<?xml version="1.0" encoding="utf-8"?>
<!-- Generator: Adobe Illustrator 17.0.0, SVG Export Plug-In . SVG Version: 6.00 Build 0)  -->
<!DOCTYPE svg PUBLIC "-//W3C//DTD SVG 1.1//EN" "http://www.w3.org/Graphics/SVG/1.1/DTD/svg11.dtd">
<svg version="1.1" id="Layer_2" xmlns="http://www.w3.org/2000/svg" xmlns:xlink="http://www.w3.org/1999/xlink" x="0px" y="0px"
	 width="60px" height="60px" viewBox="0 0 60 60" enable-background="new 0 0 60 60" xml:space="preserve">
<g>
	<path fill="#010101" d="M11,40H7c-2.57,0-5,2.43-5,5v3h10v-7C12,40.448,11.553,40,11,40z"/>
	<path fill="#010101" d="M2,57c0,1.935,1.065,3,3,3h6c0.553,0,1-0.448,1-1v-9H2V57z"/>
	<path fill="#010101" d="M48,59c0,0.552,0.447,1,1,1h6c1.935,0,3-1.065,3-3v-7H48V59z"/>
	<path fill="#010101" d="M53,40h-4c-0.553,0-1,0.448-1,1v7h10v-2.87C58,42.493,55.57,40,53,40z"/>
	<path fill="#010101" d="M45,28c2.542,0,4-1.458,4-4V9c0-5.551-3.448-9-9-9H20c-5.552,0-9,3.449-9,9v15c0,2.542,1.458,4,4,4h4v1.898
		h-5c-0.553,0-1,0.448-1,1V49v10c0,0.552,0.447,1,1,1h3V46.334C17,42.96,19.337,40,22,40h16c2.663,0,5,2.96,5,6.334V60h3
		c0.553,0,1-0.448,1-1V49V30.898c0-0.552-0.447-1-1-1h-5V28H45z M23,34h-2V24h2V34z M35,29.898H25V28h10V29.898z M39,34h-2V24h2V34z
		"/>
	<path fill="#010101" d="M38,42H22c-1.514,0-3,2.147-3,4.334V48h22v-1.666C41,44.147,39.514,42,38,42z"/>
	<rect x="19" y="50" fill="#010101" width="22" height="10"/>
</g>
</svg>
