<?xml version="1.0" encoding="utf-8"?>
<!-- Generator: Adobe Illustrator 17.0.0, SVG Export Plug-In . SVG Version: 6.00 Build 0)  -->
<!DOCTYPE svg PUBLIC "-//W3C//DTD SVG 1.1//EN" "http://www.w3.org/Graphics/SVG/1.1/DTD/svg11.dtd">
<svg version="1.1" id="Layer_2" xmlns="http://www.w3.org/2000/svg" xmlns:xlink="http://www.w3.org/1999/xlink" x="0px" y="0px"
	 width="60px" height="60px" viewBox="0 0 60 60" enable-background="new 0 0 60 60" xml:space="preserve">
<g>
	<path fill="#010101" d="M2.477,40h55.047H59h0.676l-7.69-19.227c-0.026-0.113-0.065-0.221-0.127-0.316L48,10.807V5
		c0-2.664-2.337-5-5-5H17c-2.663,0-5,2.336-5,5v5.807l-3.929,9.822L0.323,40H1H2.477z M19.693,10h20.613l2.25,6H17.443L19.693,10z
		 M13.677,12h3.13l-1.743,4.649c-0.115,0.307-0.072,0.651,0.114,0.921C15.365,17.839,15.672,18,16,18h28
		c0.008,0.001,0.015,0.001,0.02,0c0.553,0,1-0.448,1-1c0-0.193-0.054-0.373-0.148-0.525L43.193,12h3.13l3.2,8H10.477L13.677,12z"/>
	<path fill="#010101" d="M59.02,42c-0.005,0-0.013,0.001-0.02,0h-1H2H1H0v11c0,2.664,2.337,5,5,5h3v1c0,0.552,0.447,1,1,1
		c0.553,0,1-0.448,1-1v-1h40v1c0,0.552,0.447,1,1,1s1-0.448,1-1v-1h3c2.663,0,5-2.336,5-5V42H59.02z"/>
</g>
</svg>
