<?xml version="1.0" encoding="utf-8"?>
<!-- Generator: Adobe Illustrator 17.0.0, SVG Export Plug-In . SVG Version: 6.00 Build 0)  -->
<!DOCTYPE svg PUBLIC "-//W3C//DTD SVG 1.1//EN" "http://www.w3.org/Graphics/SVG/1.1/DTD/svg11.dtd">
<svg version="1.1" id="Layer_2" xmlns="http://www.w3.org/2000/svg" xmlns:xlink="http://www.w3.org/1999/xlink" x="0px" y="0px"
	 width="60px" height="60px" viewBox="0 0 60 60" enable-background="new 0 0 60 60" xml:space="preserve">
<path fill="#010101" d="M59,32h-9v-2h3c2.617,0,5-2.383,5-5c0-2.664-2.337-5-5-5h-3v-2h3c2.617,0,5-2.383,5-5c0-2.664-2.337-5-5-5H7
	c-2.663,0-5,2.336-5,5c0,2.664,2.337,5,5,5h3v2H7c-2.663,0-5,2.336-5,5c0,2.664,2.337,5,5,5h3v2H1c-0.553,0-1,0.448-1,1v8
	c0,0.552,0.447,1,1,1h5v9c0,0.552,0.447,1,1,1c0.553,0,1-0.448,1-1v-1h44v1c0,0.552,0.447,1,1,1c0.553,0,1-0.448,1-1v-9h5
	c0.553,0,1-0.448,1-1v-8C60,32.448,59.553,32,59,32z M12,18h36v2H12V18z M12,30h36v2H12V30z M52,48H8v-6h44V48z"/>
</svg>
