<?xml version="1.0" encoding="utf-8"?>
<!-- Generator: Adobe Illustrator 17.0.0, SVG Export Plug-In . SVG Version: 6.00 Build 0)  -->
<!DOCTYPE svg PUBLIC "-//W3C//DTD SVG 1.1//EN" "http://www.w3.org/Graphics/SVG/1.1/DTD/svg11.dtd">
<svg version="1.1" id="Layer_2" xmlns="http://www.w3.org/2000/svg" xmlns:xlink="http://www.w3.org/1999/xlink" x="0px" y="0px"
	 width="60px" height="60px" viewBox="0 0 60 60" enable-background="new 0 0 60 60" xml:space="preserve">
<path fill="#010101" d="M52,4c-1.491,0-3,1.374-3,4c0,2.43-1.57,4-4,4c-2.43,0-4-1.587-4-4.043C41,3.926,38.093,1,34.087,1
	C30.047,1,27,3.991,27,7.957V13h-5c-0.553,0-1,0.447-1,1v4.197C12.596,21.158,7,29.025,7,38c0,11.579,9.421,21,21,21
	c11.579,0,21-9.421,21-21c0-8.975-5.596-16.842-14-19.803V14c0-0.553-0.447-1-1-1h-5V7.957C29,5.085,31.14,3,34.087,3
	C36.979,3,39,5.038,39,7.957C39,11.515,41.468,14,45,14c3.532,0,6-2.468,6-6c0-1.299,0.516-2,1-2c0.553,0,1-0.447,1-1
	C53,4.447,52.553,4,52,4z M22.431,26.254c-6.477,3.072-9.248,10.841-6.178,17.317c0.237,0.499,0.024,1.096-0.475,1.332
	C15.64,44.969,15.494,45,15.351,45c-0.375,0-0.733-0.211-0.904-0.571c-3.543-7.474-0.346-16.438,7.127-19.981
	c0.502-0.236,1.096-0.024,1.332,0.475C23.143,25.421,22.93,26.018,22.431,26.254z"/>
</svg>
