<?xml version="1.0" encoding="utf-8"?>
<!-- Generator: Adobe Illustrator 17.0.0, SVG Export Plug-In . SVG Version: 6.00 Build 0)  -->
<!DOCTYPE svg PUBLIC "-//W3C//DTD SVG 1.1//EN" "http://www.w3.org/Graphics/SVG/1.1/DTD/svg11.dtd">
<svg version="1.1" id="Layer_2" xmlns="http://www.w3.org/2000/svg" xmlns:xlink="http://www.w3.org/1999/xlink" x="0px" y="0px"
	 width="60px" height="60px" viewBox="0 0 60 60" enable-background="new 0 0 60 60" xml:space="preserve">
<g>
	<path fill="#010101" d="M2,41c0-0.553-0.447-1-1-1c-0.553,0-1,0.447-1,1v2v14v2c0,0.553,0.447,1,1,1c0.553,0,1-0.447,1-1v-1h38v-2
		V44v-2H2V41z"/>
	<path fill="#010101" d="M42,42.025V43v14v0.975c9.609-0.263,16-4.241,16-7.975C58,46.266,51.609,42.288,42,42.025z"/>
	<path fill="#010101" d="M1,20c0.553,0,1-0.447,1-1v-1h38v-2V4V2H2V1c0-0.553-0.447-1-1-1C0.447,0,0,0.447,0,1v2v14v2
		C0,19.553,0.447,20,1,20z"/>
	<path fill="#010101" d="M58,10c0-3.734-6.391-7.712-16-7.975V3v14v0.975C51.609,17.712,58,13.734,58,10z"/>
	<path fill="#010101" d="M59,20c-0.553,0-1,0.447-1,1v1H19C8.831,22,2,26.137,2,30c0,3.863,6.831,8,17,8h39v1c0,0.553,0.447,1,1,1
		c0.553,0,1-0.447,1-1v-2V23v-2C60,20.447,59.553,20,59,20z"/>
</g>
</svg>
