<?xml version="1.0" encoding="utf-8"?>
<!-- Generator: Adobe Illustrator 17.0.0, SVG Export Plug-In . SVG Version: 6.00 Build 0)  -->
<!DOCTYPE svg PUBLIC "-//W3C//DTD SVG 1.1//EN" "http://www.w3.org/Graphics/SVG/1.1/DTD/svg11.dtd">
<svg version="1.1" id="Layer_2" xmlns="http://www.w3.org/2000/svg" xmlns:xlink="http://www.w3.org/1999/xlink" x="0px" y="0px"
	 width="60px" height="60px" viewBox="0 0 60 60" enable-background="new 0 0 60 60" xml:space="preserve">
<path fill="#010101" d="M58.999,24H56.32C54.023,13.922,46.077,5.976,36,3.68V1.001c0-0.552-0.447-1-1-1H25c-0.553,0-1,0.448-1,1
	V3.68C13.923,5.976,5.977,13.922,3.681,23.998l-2.68,0.001c-0.553,0-1,0.448-1,1v10c0,0.552,0.447,1,1,1l2.679,0
	c2.296,10.075,10.24,18.02,20.314,20.319v2.681c0,0.552,0.447,1,1,1h10c0.553,0,1-0.448,1-1v-2.678
	C46.074,54.026,54.022,46.079,56.32,36l2.679,0c0.553,0,1-0.448,1-1V25C59.999,24.447,59.552,24,58.999,24z M26,2.001h8v15.58
	c-1.291-0.385-2.631-0.58-4-0.58c-1.368,0-2.708,0.194-4,0.58V2.001z M17.58,33.999H2.001v-8H17.58
	c-0.385,1.292-0.579,2.632-0.579,4C17.001,31.368,17.195,32.708,17.58,33.999z M33.994,57.999l-8,0V42.419
	c2.582,0.771,5.418,0.771,8,0V57.999z M40.336,33.903c-0.092,0.091-0.168,0.201-0.221,0.328c-1.492,3.576-4.703,6.05-8.445,6.634
	c-0.048,0.007-0.096,0.015-0.144,0.021c-0.179,0.025-0.359,0.044-0.54,0.061c-0.832,0.068-1.668,0.046-2.497-0.057
	c-4.269-0.574-7.772-3.593-9.03-7.607c-0.302-1.062-0.458-2.161-0.458-3.284c0-1.137,0.164-2.25,0.474-3.326
	c1.24-3.898,4.6-6.849,8.717-7.518c0.928-0.139,1.869-0.178,2.804-0.101c0.175,0.017,0.349,0.034,0.522,0.059
	c0.052,0.007,0.104,0.016,0.156,0.023c3.739,0.585,6.947,3.056,8.439,6.629c0.053,0.127,0.129,0.236,0.221,0.327
	c0.433,1.254,0.664,2.564,0.664,3.909C40.999,31.343,40.768,32.65,40.336,33.903z M57.999,34H42.42c0.385-1.292,0.579-2.631,0.579-4
	c0-1.368-0.194-2.709-0.579-4h15.579V34z"/>
</svg>
