<?xml version="1.0" encoding="utf-8"?>
<!-- Generator: Adobe Illustrator 17.0.0, SVG Export Plug-In . SVG Version: 6.00 Build 0)  -->
<!DOCTYPE svg PUBLIC "-//W3C//DTD SVG 1.1//EN" "http://www.w3.org/Graphics/SVG/1.1/DTD/svg11.dtd">
<svg version="1.1" id="Layer_2" xmlns="http://www.w3.org/2000/svg" xmlns:xlink="http://www.w3.org/1999/xlink" x="0px" y="0px"
	 width="60px" height="60px" viewBox="0 0 60 60" enable-background="new 0 0 60 60" xml:space="preserve">
<g>
	<path fill="#010101" d="M28.695,47.392c10.285,0,18.652-8.367,18.652-18.652c0-7.372-4.285-14.324-10.663-17.298
		c-0.286-0.132-0.618-0.123-0.896,0.026c-0.278,0.149-0.47,0.422-0.516,0.734c-0.334,2.263-1.443,4.71-2.805,6.291
		c-1.728-1.914-2.773-4.666-2.773-7.406c0-3.918,3.019-7.532,5.823-9.232c0.41-0.248,0.586-0.753,0.419-1.203
		c-0.167-0.449-0.631-0.72-1.102-0.638C20.933,2.34,10.043,14.958,10.043,28.74C10.043,39.025,18.41,47.392,28.695,47.392z"/>
	<path fill="#010101" d="M59.976,45.782c-0.121-0.539-0.656-0.878-1.194-0.757l-58,13c-0.539,0.121-0.878,0.655-0.757,1.194
		C0.129,59.685,0.541,60,0.999,60c0.072,0,0.146-0.008,0.22-0.024l58-13C59.758,46.855,60.097,46.321,59.976,45.782z"/>
	<path fill="#010101" d="M0.783,46.977l18,4C18.856,50.993,18.929,51,19.001,51c0.458,0,0.872-0.317,0.976-0.783
		c0.119-0.539-0.221-1.073-0.76-1.193l-18-4c-0.534-0.116-1.073,0.22-1.193,0.759C-0.096,46.323,0.244,46.857,0.783,46.977z"/>
	<path fill="#010101" d="M59.217,58.024l-18-4c-0.534-0.116-1.073,0.22-1.193,0.759c-0.119,0.539,0.221,1.073,0.76,1.193l18,4
		C58.856,59.993,58.929,60,59.001,60c0.458,0,0.872-0.317,0.976-0.783C60.096,58.678,59.756,58.144,59.217,58.024z"/>
</g>
</svg>
