<?xml version="1.0" encoding="utf-8"?>
<!-- Generator: Adobe Illustrator 17.0.0, SVG Export Plug-In . SVG Version: 6.00 Build 0)  -->
<!DOCTYPE svg PUBLIC "-//W3C//DTD SVG 1.1//EN" "http://www.w3.org/Graphics/SVG/1.1/DTD/svg11.dtd">
<svg version="1.1" id="Layer_2" xmlns="http://www.w3.org/2000/svg" xmlns:xlink="http://www.w3.org/1999/xlink" x="0px" y="0px"
	 width="60px" height="60px" viewBox="0 0 60 60" enable-background="new 0 0 60 60" xml:space="preserve">
<path fill="#010101" d="M30,0C15.981,0,5,4.393,5,10v40c0,6.169,9.579,10,25,10s25-3.831,25-10V10C55,4.393,44.019,0,30,0z
	 M41,45.17c-3.863,0.703-7.471,1.044-11.003,1.044h-0.001c-3.531,0-7.137-0.342-10.996-1.044V32.202c7.688,1.362,14.302,1.361,22,0
	V45.17z M30,18c-13.555,0-23-4.216-23-8c0-3.784,9.445-8,23-8s23,4.216,23,8C53,13.784,43.555,18,30,18z"/>
</svg>
