<?xml version="1.0" encoding="utf-8"?>
<!-- Generator: Adobe Illustrator 17.0.0, SVG Export Plug-In . SVG Version: 6.00 Build 0)  -->
<!DOCTYPE svg PUBLIC "-//W3C//DTD SVG 1.1//EN" "http://www.w3.org/Graphics/SVG/1.1/DTD/svg11.dtd">
<svg version="1.1" id="Layer_2" xmlns="http://www.w3.org/2000/svg" xmlns:xlink="http://www.w3.org/1999/xlink" x="0px" y="0px"
	 width="60px" height="60px" viewBox="0 0 60 60" enable-background="new 0 0 60 60" xml:space="preserve">
<path fill="#010101" d="M49.993,38.966c-0.004-0.117-0.024-0.231-0.069-0.34c-0.009-0.021-0.022-0.038-0.033-0.059
	c-0.028-0.057-0.053-0.115-0.092-0.167L44,30.667V25v-8v-6V3V1c0-0.552-0.447-1-1-1c-0.553,0-1,0.448-1,1v1H18V1
	c0-0.552-0.447-1-1-1c-0.553,0-1,0.448-1,1v2v8v6v8v5.667L10.2,38.4c-0.039,0.052-0.064,0.11-0.092,0.167
	c-0.01,0.021-0.024,0.038-0.033,0.059c-0.044,0.109-0.065,0.224-0.069,0.34C10.006,38.978,10,38.988,10,39v6v14c0,0.552,0.447,1,1,1
	c0.553,0,1-0.448,1-1V46h4v3c0,0.552,0.447,1,1,1c0.553,0,1-0.448,1-1v-3h24v3c0,0.552,0.447,1,1,1c0.553,0,1-0.448,1-1v-3h4v13
	c0,0.552,0.447,1,1,1c0.553,0,1-0.448,1-1V45v-6C50,38.988,49.994,38.978,49.993,38.966z M18,12h24v4H18V12z M18,26h24v4H18V26z
	 M48,44H12v-4h36V44z"/>
</svg>
