<?xml version="1.0" encoding="utf-8"?>
<!-- Generator: Adobe Illustrator 17.0.0, SVG Export Plug-In . SVG Version: 6.00 Build 0)  -->
<!DOCTYPE svg PUBLIC "-//W3C//DTD SVG 1.1//EN" "http://www.w3.org/Graphics/SVG/1.1/DTD/svg11.dtd">
<svg version="1.1" id="Layer_2" xmlns="http://www.w3.org/2000/svg" xmlns:xlink="http://www.w3.org/1999/xlink" x="0px" y="0px"
	 width="60px" height="60px" viewBox="0 0 60 60" enable-background="new 0 0 60 60" xml:space="preserve">
<path fill="#010101" d="M59.993,14.964c-0.004-0.117-0.022-0.234-0.069-0.346c-0.046-0.112-0.116-0.207-0.196-0.293
	c-0.009-0.009-0.012-0.022-0.021-0.031c-0.015-0.015-0.037-0.021-0.053-0.035c-0.067-0.059-0.139-0.107-0.218-0.146
	c-0.03-0.015-0.058-0.031-0.09-0.043C59.237,14.028,59.122,14,59,14l-11,0V9.899C50.28,9.434,52,7.414,52,5c0-2.757-2.243-5-5-5
	c-2.757,0-5,2.243-5,5c0,2.414,1.721,4.434,4,4.899V14l-32,0.001V9.899C16.28,9.434,18,7.414,18,5c0-2.757-2.243-5-5-5S8,2.243,8,5
	c0,2.414,1.721,4.434,4,4.899v4.103l-11.001,0c-0.553,0-1,0.447-1,1V33c0,0.014,0.008,0.026,0.008,0.04
	c0.005,0.116,0.023,0.231,0.069,0.343v0c0.006,0.015,0.018,0.027,0.025,0.042c0.044,0.092,0.1,0.174,0.167,0.247
	c0.026,0.028,0.055,0.051,0.084,0.076c0.061,0.053,0.127,0.097,0.2,0.134c0.034,0.017,0.065,0.035,0.101,0.048
	c0.109,0.041,0.223,0.069,0.344,0.07c0.001,0,0.002,0,0.003,0H1l5,0.001V59c0,0.553,0.447,1,1,1s1-0.447,1-1V34.001l5.999,0.001
	c0.003,0,0.006-0.002,0.01-0.002h14.977c0.004,0,0.009,0.002,0.013,0.002h12c0.003,0,0.006-0.002,0.01-0.002H52v25
	c0,0.553,0.447,1,1,1s1-0.447,1-1V34h5c0.553,0,1-0.447,1-1V15C60,14.987,59.994,14.976,59.993,14.964z M13.585,32.002L3.415,32
	l15.999-15.998h10.172L13.585,32.002z M40.585,32.002h-9.172l16.001-15.998l9.171-0.003L40.585,32.002z"/>
</svg>
