<?xml version="1.0" encoding="utf-8"?>
<!-- Generator: Adobe Illustrator 17.0.0, SVG Export Plug-In . SVG Version: 6.00 Build 0)  -->
<!DOCTYPE svg PUBLIC "-//W3C//DTD SVG 1.1//EN" "http://www.w3.org/Graphics/SVG/1.1/DTD/svg11.dtd">
<svg version="1.1" id="Layer_2" xmlns="http://www.w3.org/2000/svg" xmlns:xlink="http://www.w3.org/1999/xlink" x="0px" y="0px"
	 width="60px" height="60px" viewBox="0 0 60 60" enable-background="new 0 0 60 60" xml:space="preserve">
<g>
	<path fill="#010101" d="M11,50h38c0.553,0,1-0.447,1-1V1c0-0.553-0.447-1-1-1H11c-0.553,0-1,0.447-1,1v48
		C10,49.553,10.447,50,11,50z M40.988,22c-0.547-0.014-0.988-0.465-0.981-1.013C40.014,20.44,40.453,20,41,20c1.206,0,3,0.799,3,3v8
		c0,2.201-1.794,3-3,3c-0.553,0-1-0.447-1-1c0-0.553,0.447-1,1-1c0.45-0.012,1-0.194,1-1v-8C42,22.194,41.45,22.012,40.988,22z"/>
	<path fill="#010101" d="M53,52H7c-0.553,0-1,0.447-1,1v6c0,0.553,0.447,1,1,1h46c0.553,0,1-0.447,1-1v-6C54,52.447,53.553,52,53,52
		z"/>
</g>
</svg>
