<?xml version="1.0" encoding="utf-8"?>
<!-- Generator: Adobe Illustrator 17.0.0, SVG Export Plug-In . SVG Version: 6.00 Build 0)  -->
<!DOCTYPE svg PUBLIC "-//W3C//DTD SVG 1.1//EN" "http://www.w3.org/Graphics/SVG/1.1/DTD/svg11.dtd">
<svg version="1.1" id="Layer_2" xmlns="http://www.w3.org/2000/svg" xmlns:xlink="http://www.w3.org/1999/xlink" x="0px" y="0px"
	 width="60px" height="60px" viewBox="0 0 60 60" enable-background="new 0 0 60 60" xml:space="preserve">
<g>
	<path fill="#010101" d="M60,19c0-6.785-4.598-11-12-11H25c-2.57,0-5,2.43-5,5v12c0,2.57,2.43,5,5,5h7v5c0,0.552,0.447,1,1,1h6.565
		l3.182,14H36c-0.553,0-1,0.448-1,1c0,0.552,0.447,1,1,1h8h8c0.007,0.001,0.015,0,0.019,0c0.553,0,1-0.448,1-1
		c0-0.161-0.037-0.313-0.105-0.448L47.31,30H48C55.402,30,60,25.785,60,19z M34,34v-4h4.201l0.909,4H34z"/>
	<path fill="#010101" d="M17,12h-6c-0.553,0-1,0.448-1,1v5H1c-0.553,0-1,0.448-1,1c0,0.552,0.447,1,1,1h9v5c0,0.552,0.447,1,1,1h6
		c0.553,0,1-0.448,1-1V13C18,12.448,17.553,12,17,12z"/>
</g>
</svg>
