<?xml version="1.0" encoding="utf-8"?>
<!-- Generator: Adobe Illustrator 17.0.0, SVG Export Plug-In . SVG Version: 6.00 Build 0)  -->
<!DOCTYPE svg PUBLIC "-//W3C//DTD SVG 1.1//EN" "http://www.w3.org/Graphics/SVG/1.1/DTD/svg11.dtd">
<svg version="1.1" id="Layer_2" xmlns="http://www.w3.org/2000/svg" xmlns:xlink="http://www.w3.org/1999/xlink" x="0px" y="0px"
	 width="60px" height="60px" viewBox="0 0 60 60" enable-background="new 0 0 60 60" xml:space="preserve">
<g>
	<path fill="#010101" d="M9,19H6c-1.944,0-4,2.056-4,4v6H1c-0.553,0-1,0.448-1,1c0,0.552,0.447,1,1,1h1v6c0,1.944,2.056,4,4,4h3
		c0.553,0,1-0.448,1-1V20C10,19.448,9.553,19,9,19z"/>
	<path fill="#010101" d="M44,13h-4c-2.542,0-4,1.458-4,4v12H24V17c0-2.542-1.458-4-4-4h-4c-2.542,0-4,1.458-4,4v26
		c0,2.542,1.458,4,4,4h4c2.542,0,4-1.458,4-4V31h12v12c0,2.542,1.458,4,4,4h4c2.542,0,4-1.458,4-4V17C48,14.458,46.542,13,44,13z"/>
	<path fill="#010101" d="M59,29h-1v-6c0-1.944-2.056-4-4-4h-3c-0.553,0-1,0.448-1,1v20c0,0.552,0.447,1,1,1h3c1.944,0,4-2.056,4-4
		v-6h1c0.553,0,1-0.448,1-1C60,29.448,59.553,29,59,29z"/>
</g>
</svg>
