<?xml version="1.0" encoding="utf-8"?>
<!-- Generator: Adobe Illustrator 17.0.0, SVG Export Plug-In . SVG Version: 6.00 Build 0)  -->
<!DOCTYPE svg PUBLIC "-//W3C//DTD SVG 1.1//EN" "http://www.w3.org/Graphics/SVG/1.1/DTD/svg11.dtd">
<svg version="1.1" id="Layer_2" xmlns="http://www.w3.org/2000/svg" xmlns:xlink="http://www.w3.org/1999/xlink" x="0px" y="0px"
	 width="60px" height="60px" viewBox="0 0 60 60" enable-background="new 0 0 60 60" xml:space="preserve">
<path fill="#010101" d="M53.641,0.233c-0.228-0.19-0.529-0.27-0.819-0.216l-22,4C30.346,4.103,30,4.517,30,5v1h-3h-5.764
	L9.447,0.106C8.953-0.14,8.353,0.058,8.105,0.553C7.858,1.047,8.059,1.648,8.553,1.895l8.937,4.468C10.661,7.82,6,13.53,6,21v31
	c0,0.552,0.447,1,1,1c0.553,0,1-0.448,1-1V21C8,13.807,12.991,8.51,20,8.046v4.194c-4.195,1.277-6,3.938-6,8.761v38
	c0,0.552,0.447,1,1,1h18c0.553,0,1-0.448,1-1v-8V23v-2c0-4.822-1.805-7.483-6-8.761V8h2v1c0,0.483,0.346,0.898,0.821,0.984l22,4
	C52.881,13.995,52.94,14,53,14c0.232,0,0.46-0.081,0.641-0.232C53.868,13.578,54,13.297,54,13V1C54,0.704,53.868,0.423,53.641,0.233
	z M32,24v26h-6V24H32z"/>
</svg>
