<?xml version="1.0" encoding="utf-8"?>
<!-- Generator: Adobe Illustrator 17.0.0, SVG Export Plug-In . SVG Version: 6.00 Build 0)  -->
<!DOCTYPE svg PUBLIC "-//W3C//DTD SVG 1.1//EN" "http://www.w3.org/Graphics/SVG/1.1/DTD/svg11.dtd">
<svg version="1.1" id="Layer_2" xmlns="http://www.w3.org/2000/svg" xmlns:xlink="http://www.w3.org/1999/xlink" x="0px" y="0px"
	 width="60px" height="60px" viewBox="0 0 60 60" enable-background="new 0 0 60 60" xml:space="preserve">
<g>
	<path fill="#010101" d="M59.601,23.8c0.441-0.331,0.53-0.958,0.199-1.4c-0.33-0.441-0.958-0.531-1.399-0.2
		C57.54,22.845,50,28.627,50,33v2v9v8c0,2.243-1.757,4-4,4c-2.243,0-4-1.757-4-4V17c0-2.57-2.43-5-5-5h-3V3c0-0.552-0.447-1-1-1H1
		C0.447,2,0,2.448,0,3v21h34V14h3c1.458,0,3,1.542,3,3v35c0,3.364,2.636,6,6,6c3.364,0,6-2.636,6-6v-7.279l5.316-1.772
		C57.725,42.813,58,42.431,58,42v-7c0-0.552-0.447-1-1-1h-5v-1C52,30.454,56.662,26.006,59.601,23.8z M28,19c0,0.552-0.447,1-1,1H7
		c-0.553,0-1-0.448-1-1V9c0-0.552,0.447-1,1-1h20c0.553,0,1,0.448,1,1V19z"/>
	<path fill="#010101" d="M0,57c0,0.552,0.447,1,1,1h32c0.553,0,1-0.448,1-1V26H0V57z M20,33c0-0.552,0.447-1,1-1h6
		c0.553,0,1,0.448,1,1v10c0,0.552-0.447,1-1,1h-6c-0.553,0-1-0.448-1-1V33z M21,48h6c0.553,0,1,0.448,1,1c0,0.552-0.447,1-1,1h-6
		c-0.553,0-1-0.448-1-1C20,48.448,20.447,48,21,48z"/>
</g>
</svg>
