<?xml version="1.0" encoding="utf-8"?>
<!-- Generator: Adobe Illustrator 17.0.0, SVG Export Plug-In . SVG Version: 6.00 Build 0)  -->
<!DOCTYPE svg PUBLIC "-//W3C//DTD SVG 1.1//EN" "http://www.w3.org/Graphics/SVG/1.1/DTD/svg11.dtd">
<svg version="1.1" id="Layer_2" xmlns="http://www.w3.org/2000/svg" xmlns:xlink="http://www.w3.org/1999/xlink" x="0px" y="0px"
	 width="60px" height="60px" viewBox="0 0 60 60" enable-background="new 0 0 60 60" xml:space="preserve">
<path fill="#010101" d="M34,2h-3V1c0-0.552-0.447-1-1-1c-0.553,0-1,0.448-1,1v1h-3C14.225,2,5,11.664,5,24v8
	c0,0.404,0.243,0.769,0.617,0.924c0.374,0.154,0.804,0.069,1.09-0.217L10,29.414l3.293,3.293c0.391,0.391,1.023,0.391,1.414,0
	L18,29.414l3.293,3.293c0.391,0.391,1.023,0.391,1.414,0L26,29.414l3,3V58h-7c-0.553,0-1,0.448-1,1c0,0.552,0.447,1,1,1h16
	c0.553,0,1-0.448,1-1c0-0.552-0.447-1-1-1h-7V32.414l2-2V42c0,0.552,0.447,1,1,1c0.553,0,1-0.448,1-1V30.414l2.293,2.293
	c0.391,0.391,1.023,0.391,1.414,0L42,29.414l3.293,3.293c0.391,0.391,1.023,0.391,1.414,0L50,29.414l3.293,3.293
	C53.484,32.898,53.74,33,54,33c0.129,0,0.259-0.025,0.383-0.076C54.757,32.769,55,32.404,55,32v-8C55,11.664,45.775,2,34,2z"/>
</svg>
