<?xml version="1.0" encoding="utf-8"?>
<!-- Generator: Adobe Illustrator 17.0.0, SVG Export Plug-In . SVG Version: 6.00 Build 0)  -->
<!DOCTYPE svg PUBLIC "-//W3C//DTD SVG 1.1//EN" "http://www.w3.org/Graphics/SVG/1.1/DTD/svg11.dtd">
<svg version="1.1" id="Layer_2" xmlns="http://www.w3.org/2000/svg" xmlns:xlink="http://www.w3.org/1999/xlink" x="0px" y="0px"
	 width="60px" height="60px" viewBox="0 0 60 60" enable-background="new 0 0 60 60" xml:space="preserve">
<path fill="#010101" d="M56,58h-7V31c0-12.776-9.389-22.487-22-22.976V7c0-3.86-3.141-7-7-7c-3.859,0-7,3.14-7,7v5.514
	C6.903,15.267,3,21.273,3,28v5c0,0.552,0.447,1,1,1h32c0.553,0,1-0.448,1-1v-5c0-6.727-3.903-12.733-10-15.486v-2.467
	C38.466,10.539,47,19.367,47,31v27H36c-0.553,0-1,0.448-1,1c0,0.552,0.447,1,1,1h20c0.553,0,1-0.448,1-1C57,58.448,56.553,58,56,58z
	"/>
</svg>
