<?xml version="1.0" encoding="utf-8"?>
<!-- Generator: Adobe Illustrator 17.0.0, SVG Export Plug-In . SVG Version: 6.00 Build 0)  -->
<!DOCTYPE svg PUBLIC "-//W3C//DTD SVG 1.1//EN" "http://www.w3.org/Graphics/SVG/1.1/DTD/svg11.dtd">
<svg version="1.1" id="Layer_2" xmlns="http://www.w3.org/2000/svg" xmlns:xlink="http://www.w3.org/1999/xlink" x="0px" y="0px"
	 width="60px" height="60px" viewBox="0 0 60 60" enable-background="new 0 0 60 60" xml:space="preserve">
<g>
	<path fill="#010101" d="M30,0C18.421,0,9,9.42,9,21c0,11.242,8.887,20.422,20,20.949V31.414l-2.293,2.293
		c-0.391,0.391-1.023,0.391-1.414,0l-4-4c-0.391-0.391-0.391-1.023,0-1.414c0.391-0.391,1.023-0.391,1.414,0L26,31.586l3.292-3.292
		c0.092-0.093,0.203-0.166,0.326-0.217c0.244-0.101,0.52-0.101,0.764,0c0.123,0.051,0.234,0.124,0.326,0.217L34,31.586l3.293-3.293
		c0.391-0.391,1.023-0.391,1.414,0c0.391,0.391,0.391,1.023,0,1.414l-4,4C34.512,33.902,34.256,34,34,34
		c-0.256,0-0.512-0.098-0.707-0.293L31,31.414v10.535C42.113,41.422,51,32.242,51,21C51,9.42,41.579,0,30,0z"/>
	<path fill="#010101" d="M36,46H24c-0.553,0-1,0.448-1,1c0,0.552,0.447,1,1,1h12c0.553,0,1-0.448,1-1C37,46.448,36.553,46,36,46z"/>
	<path fill="#010101" d="M36,50H24c-0.553,0-1,0.448-1,1c0,0.552,0.447,1,1,1h12c0.553,0,1-0.448,1-1C37,50.448,36.553,50,36,50z"/>
	<path fill="#010101" d="M36,54H24c-0.553,0-1,0.448-1,1c0,0.552,0.447,1,1,1h5v3c0,0.552,0.447,1,1,1c0.553,0,1-0.448,1-1v-3h5
		c0.553,0,1-0.448,1-1C37,54.448,36.553,54,36,54z"/>
</g>
</svg>
