<?xml version="1.0" encoding="utf-8"?>
<!-- Generator: Adobe Illustrator 17.0.0, SVG Export Plug-In . SVG Version: 6.00 Build 0)  -->
<!DOCTYPE svg PUBLIC "-//W3C//DTD SVG 1.1//EN" "http://www.w3.org/Graphics/SVG/1.1/DTD/svg11.dtd">
<svg version="1.1" id="Layer_2" xmlns="http://www.w3.org/2000/svg" xmlns:xlink="http://www.w3.org/1999/xlink" x="0px" y="0px"
	 width="60px" height="60px" viewBox="0 0 60 60" enable-background="new 0 0 60 60" xml:space="preserve">
<g>
	<path fill="#010101" d="M59.759,22.349C59.569,22.127,59.292,22,59,22h-1.057c-0.574-5.875-6.117-9.888-11.126-9.888
		c-1.06,0-2.082,0.164-3.054,0.49C42.31,6.027,37.141,2,30,2c-7.141,0-12.31,4.027-13.763,10.603
		c-0.972-0.326-1.994-0.49-3.054-0.49c-5.01,0-10.552,4.013-11.127,9.888H1c-0.293,0-0.571,0.128-0.761,0.352
		c-0.19,0.223-0.273,0.517-0.227,0.807l4.002,25.014c0.401,2.294,1.958,4.198,4.002,5.157C8.013,53.219,8,53.111,8,53
		c0-4.963,4.037-9,9-9c4.963,0,9,4.037,9,9c0,0.338-0.023,0.671-0.059,1h8.118C34.022,53.671,34,53.338,34,53c0-4.963,4.037-9,9-9
		c4.963,0,9,4.037,9,9c0,0.186-0.017,0.368-0.028,0.552c2.188-0.705,3.639-2.23,4.016-4.4l4-26
		C60.033,22.863,59.949,22.57,59.759,22.349z M4.06,22c0.567-4.697,5.062-7.888,9.124-7.888c1.197,0,2.331,0.263,3.369,0.782
		c0.287,0.144,0.628,0.142,0.911-0.009c0.285-0.149,0.48-0.426,0.526-0.744C18.897,7.791,23.387,4,30,4
		c6.613,0,11.102,3.791,12.01,10.142c0.046,0.318,0.241,0.595,0.526,0.744c0.284,0.15,0.625,0.152,0.911,0.009
		c1.038-0.52,2.172-0.782,3.369-0.782c4.061,0,8.557,3.19,9.124,7.888H4.06z"/>
	<path fill="#010101" d="M17,46c-3.859,0-7,3.141-7,7c0,3.859,3.141,7,7,7c3.859,0,7-3.141,7-7C24,49.141,20.859,46,17,46z"/>
	<path fill="#010101" d="M43,46c-3.859,0-7,3.141-7,7c0,3.859,3.141,7,7,7c3.859,0,7-3.141,7-7C50,49.141,46.859,46,43,46z"/>
</g>
</svg>
