<?xml version="1.0" encoding="utf-8"?>
<!-- Generator: Adobe Illustrator 17.0.0, SVG Export Plug-In . SVG Version: 6.00 Build 0)  -->
<!DOCTYPE svg PUBLIC "-//W3C//DTD SVG 1.1//EN" "http://www.w3.org/Graphics/SVG/1.1/DTD/svg11.dtd">
<svg version="1.1" id="Layer_2" xmlns="http://www.w3.org/2000/svg" xmlns:xlink="http://www.w3.org/1999/xlink" x="0px" y="0px"
	 width="60px" height="60px" viewBox="0 0 60 60" enable-background="new 0 0 60 60" xml:space="preserve">
<g>
	<path fill="#010101" d="M12.253,0.341c-0.275-0.313-0.717-0.422-1.104-0.277C10.758,0.21,10.5,0.584,10.5,1v16
		c0,0.242,0.088,0.476,0.247,0.659l7,8C17.941,25.88,18.218,26,18.5,26c0.118,0,0.237-0.021,0.352-0.064
		C19.242,25.79,19.5,25.417,19.5,25V9c0-0.242-0.088-0.476-0.247-0.659L12.253,0.341z"/>
	<path fill="#010101" d="M48.816,0.051C48.407-0.083,47.958,0.057,47.7,0.4l-6,8c-0.13,0.173-0.2,0.384-0.2,0.6v16
		c0,0.431,0.275,0.813,0.684,0.949C42.288,25.983,42.394,26,42.5,26c0.309,0,0.607-0.144,0.8-0.4l6-8c0.13-0.173,0.2-0.384,0.2-0.6
		V1C49.5,0.569,49.225,0.188,48.816,0.051z"/>
	<path fill="#010101" d="M31.5,10.027V1c0-0.552-0.447-1-1-1c-0.553,0-1,0.448-1,1v9.027c-4.895,0.271-8,2.555-8,5.973v31
		c0,1.974,1.076,4.171,2.453,6.179c0.025-0.017,0.041-0.042,0.067-0.057c1.643-0.898,4.671-1.686,6.48-1.686
		c1.81,0,4.838,0.788,6.479,1.686c0.027,0.015,0.043,0.04,0.067,0.057C38.424,51.171,39.5,48.974,39.5,47V16
		C39.5,12.582,36.394,10.299,31.5,10.027z"/>
	<path fill="#010101" d="M25.152,54.794c2.16,2.719,4.509,4.8,4.69,4.959C30.03,59.918,30.265,60,30.5,60
		c0.235,0,0.47-0.082,0.658-0.248c0.181-0.159,2.53-2.24,4.69-4.959c-1.397-0.709-3.921-1.357-5.348-1.357
		C29.074,53.437,26.549,54.085,25.152,54.794z"/>
</g>
</svg>
