<?xml version="1.0" encoding="utf-8"?>
<!-- Generator: Adobe Illustrator 17.0.0, SVG Export Plug-In . SVG Version: 6.00 Build 0)  -->
<!DOCTYPE svg PUBLIC "-//W3C//DTD SVG 1.1//EN" "http://www.w3.org/Graphics/SVG/1.1/DTD/svg11.dtd">
<svg version="1.1" id="Layer_2" xmlns="http://www.w3.org/2000/svg" xmlns:xlink="http://www.w3.org/1999/xlink" x="0px" y="0px"
	 width="60px" height="60px" viewBox="0 0 60 60" enable-background="new 0 0 60 60" xml:space="preserve">
<path fill="#010101" d="M30,1C14.01,1,1,14.009,1,30c0,15.991,13.01,29,29,29c15.99,0,29-13.009,29-29C59,14.009,45.99,1,30,1z
	 M46.247,22.188l3.695-1.526c0.51-0.209,1.096,0.031,1.306,0.542c0.211,0.511-0.031,1.095-0.542,1.306l-3.695,1.526
	c-0.125,0.051-0.254,0.076-0.382,0.076c-0.393,0-0.765-0.233-0.924-0.619C45.494,22.983,45.736,22.399,46.247,22.188z
	 M35.963,12.989l1.533-3.694c0.212-0.511,0.796-0.751,1.308-0.54c0.51,0.212,0.752,0.797,0.54,1.307l-1.533,3.694
	c-0.16,0.385-0.532,0.617-0.924,0.617c-0.128,0-0.258-0.025-0.384-0.077C35.993,14.084,35.751,13.499,35.963,12.989z M29.001,8.002
	c0-0.552,0.448-1,1-1c0.553,0,1,0.448,1,1l-0.002,4c0,0.552-0.448,1-1,1c-0.553,0-1-0.448-1-1L29.001,8.002z M21.2,8.752
	c0.509-0.209,1.095,0.031,1.306,0.542l1.529,3.696c0.211,0.51-0.031,1.095-0.542,1.306c-0.125,0.052-0.254,0.077-0.382,0.077
	c-0.392,0-0.765-0.233-0.924-0.618l-1.529-3.696C20.447,9.548,20.689,8.963,21.2,8.752z M7,30c0-0.552,0.447-1,1-1h4
	c0.553,0,1,0.448,1,1c0,0.552-0.447,1-1,1H8C7.447,31,7,30.552,7,30z M13.753,37.812l-3.695,1.531
	c-0.125,0.052-0.255,0.077-0.383,0.077c-0.392,0-0.765-0.232-0.924-0.618c-0.211-0.51,0.031-1.095,0.541-1.307l3.695-1.531
	c0.509-0.21,1.096,0.03,1.307,0.541C14.505,37.015,14.263,37.6,13.753,37.812z M14.294,23.495c-0.159,0.385-0.532,0.618-0.924,0.618
	c-0.128,0-0.258-0.025-0.383-0.077l-3.695-1.531c-0.51-0.211-0.752-0.796-0.541-1.307c0.211-0.511,0.799-0.751,1.307-0.541
	l3.695,1.531C14.263,22.4,14.505,22.985,14.294,23.495z M17.979,17.981c-0.195,0.195-0.451,0.293-0.707,0.293
	c-0.256,0-0.512-0.098-0.707-0.293l-2.828-2.829c-0.391-0.391-0.391-1.024,0-1.414c0.391-0.391,1.023-0.391,1.414,0l2.828,2.829
	C18.37,16.957,18.37,17.59,17.979,17.981z M41,48c0,0.552-0.447,1-1,1H20c-0.553,0-1-0.448-1-1v-6c0-0.552,0.447-1,1-1h20
	c0.553,0,1,0.448,1,1V48z M44.707,16.707l-10.54,10.54C34.691,28.038,35,28.983,35,30c0,2.757-2.243,5-5,5c-2.757,0-5-2.243-5-5
	c0-2.757,2.243-5,5-5c1.018,0,1.962,0.309,2.753,0.833l10.54-10.54c0.391-0.391,1.023-0.391,1.414,0
	C45.098,15.684,45.098,16.316,44.707,16.707z M51.246,38.806c-0.16,0.385-0.532,0.617-0.924,0.617c-0.128,0-0.258-0.025-0.384-0.077
	l-3.693-1.533c-0.51-0.211-0.752-0.797-0.54-1.307c0.213-0.511,0.797-0.753,1.308-0.54l3.693,1.533
	C51.216,37.711,51.458,38.296,51.246,38.806z M51.998,31.004C51.998,31.004,51.998,31.004,51.998,31.004l-3.999-0.002
	c-0.553,0-1-0.448-1-1c0-0.552,0.448-1,1-1l4,0.002c0.552,0,0.999,0.448,0.999,1C52.998,30.557,52.55,31.004,51.998,31.004z"/>
</svg>
