<?xml version="1.0" encoding="utf-8"?>
<!-- Generator: Adobe Illustrator 17.0.0, SVG Export Plug-In . SVG Version: 6.00 Build 0)  -->
<!DOCTYPE svg PUBLIC "-//W3C//DTD SVG 1.1//EN" "http://www.w3.org/Graphics/SVG/1.1/DTD/svg11.dtd">
<svg version="1.1" id="Layer_2" xmlns="http://www.w3.org/2000/svg" xmlns:xlink="http://www.w3.org/1999/xlink" x="0px" y="0px"
	 width="60px" height="60px" viewBox="0 0 60 60" enable-background="new 0 0 60 60" xml:space="preserve">
<path fill="#010101" d="M59.692,50.02C59.181,41.288,47.41,31.9,46.91,31.505c-0.398-0.316-0.968-0.282-1.327,0.078l-6.293,6.293
	l-27-27V1.29c0-0.404-0.243-0.769-0.617-0.924c-0.374-0.154-0.804-0.07-1.09,0.217l-10,10c-0.286,0.286-0.372,0.716-0.217,1.09
	c0.154,0.373,0.52,0.617,0.924,0.617h9.586l27,27l-6.293,6.293c-0.358,0.358-0.392,0.929-0.078,1.327
	c0.413,0.522,10.208,12.799,19.103,12.8c0,0,0,0,0.001,0c2.438,0,4.589-0.913,6.389-2.713C58.943,55.051,59.85,52.704,59.692,50.02z
	"/>
</svg>
