<?xml version="1.0" encoding="utf-8"?>
<!-- Generator: Adobe Illustrator 17.0.0, SVG Export Plug-In . SVG Version: 6.00 Build 0)  -->
<!DOCTYPE svg PUBLIC "-//W3C//DTD SVG 1.1//EN" "http://www.w3.org/Graphics/SVG/1.1/DTD/svg11.dtd">
<svg version="1.1" id="Layer_2" xmlns="http://www.w3.org/2000/svg" xmlns:xlink="http://www.w3.org/1999/xlink" x="0px" y="0px"
	 width="60px" height="60px" viewBox="0 0 60 60" enable-background="new 0 0 60 60" xml:space="preserve">
<g>
	<path fill="#010101" d="M59,28.004H44v12h15c0.553,0,1-0.447,1-1v-10C60,28.451,59.553,28.004,59,28.004z"/>
	<polygon fill="#010101" points="24.242,40.004 42,40.004 42,28.004 36.242,28.004 	"/>
	<path fill="#010101" d="M6,29.004v10c0,0.553,0.447,1,1,1h8.758l12-12H7C6.447,28.004,6,28.451,6,29.004z"/>
	<path fill="#010101" d="M2,29.004v10c0,0.553,0.447,1,1,1s1-0.447,1-1v-10c0-0.553-0.447-1-1-1S2,28.451,2,29.004z"/>
	<path fill="#010101" d="M1,22.004c0.553,0,1-0.447,1-1v-5c0-3.598,3.402-7,7-7c4.71,0,8-3.29,8-8c0-0.553-0.447-1-1-1s-1,0.447-1,1
		c0,3.644-2.356,6-6,6c-4.71,0-9,4.29-9,9v5C0,21.557,0.447,22.004,1,22.004z"/>
	<path fill="#010101" d="M4,21.004c0,0.553,0.447,1,1,1s1-0.447,1-1c0-3.598,3.402-7,7-7c4.71,0,8-3.29,8-8c0-0.553-0.447-1-1-1
		s-1,0.447-1,1c0,3.644-2.355,6-6,6C8.29,12.004,4,16.294,4,21.004z"/>
	<path fill="#010101" d="M59.707,1.711c0.098-0.098,0.171-0.21,0.219-0.33C59.974,1.263,60,1.137,60,1.004
		c0-0.133-0.026-0.259-0.074-0.377c-0.049-0.12-0.122-0.233-0.219-0.331c-0.098-0.098-0.21-0.171-0.331-0.22
		C59.259,0.03,59.133,0.004,59,0.004s-0.259,0.026-0.376,0.073c-0.12,0.049-0.233,0.122-0.331,0.22L30.586,28.004l-12,12
		L0.293,58.297c-0.098,0.098-0.171,0.21-0.22,0.331C0.026,58.745,0,58.871,0,59.004s0.026,0.259,0.073,0.376
		c0.049,0.12,0.122,0.233,0.22,0.331c0.003,0.003,0.008,0.004,0.011,0.007c0.381,0.37,1.011,0.37,1.392,0
		c0.003-0.003,0.008-0.004,0.011-0.007l19.707-19.707l12-12L59.707,1.711z"/>
</g>
</svg>
