<?xml version="1.0" encoding="utf-8"?>
<!-- Generator: Adobe Illustrator 17.0.0, SVG Export Plug-In . SVG Version: 6.00 Build 0)  -->
<!DOCTYPE svg PUBLIC "-//W3C//DTD SVG 1.1//EN" "http://www.w3.org/Graphics/SVG/1.1/DTD/svg11.dtd">
<svg version="1.1" id="Layer_2" xmlns="http://www.w3.org/2000/svg" xmlns:xlink="http://www.w3.org/1999/xlink" x="0px" y="0px"
	 width="60px" height="60px" viewBox="0 0 60 60" enable-background="new 0 0 60 60" xml:space="preserve">
<g>
	<circle fill="#010101" cx="30" cy="22" r="3"/>
	<path fill="#010101" d="M10.973,29.134c3.996,1.882,6.876,5.909,7.021,10.5c2.509-0.65,6.394-1.284,12.006-1.284
		c5.612,0,9.497,0.634,12.006,1.284c0.146-4.591,3.025-8.618,7.021-10.5l1.961-10.982c0.71-4.607-0.543-9.061-3.528-12.541
		C44.4,2.045,39.859,0,35,0H25c-4.862,0-9.404,2.045-12.463,5.612c-2.984,3.48-4.236,7.933-3.522,12.564L10.973,29.134z
		 M22.293,19.707c-0.391-0.391-0.391-1.023,0-1.414c0.391-0.391,1.023-0.391,1.414,0l1.713,1.713C26.193,18.24,27.952,17,30,17
		c2.048,0,3.807,1.24,4.58,3.006l1.713-1.713c0.391-0.391,1.023-0.391,1.414,0c0.391,0.391,0.391,1.023,0,1.414L35.414,22
		l2.293,2.293c0.391,0.391,0.391,1.023,0,1.414C37.512,25.902,37.256,26,37,26c-0.256,0-0.512-0.098-0.707-0.293l-1.713-1.713
		C33.807,25.76,32.048,27,30,27c-2.048,0-3.807-1.24-4.58-3.006l-1.713,1.713C23.512,25.902,23.256,26,23,26
		c-0.256,0-0.512-0.098-0.707-0.293c-0.391-0.391-0.391-1.023,0-1.414L24.586,22L22.293,19.707z"/>
	<path fill="#010101" d="M59.971,35.52c-0.016-0.141-0.041-0.284-0.07-0.429c-0.004-0.019-0.006-0.037-0.01-0.056
		c-0.032-0.149-0.073-0.3-0.119-0.451c-0.006-0.019-0.01-0.037-0.016-0.056c-0.038-0.12-0.084-0.241-0.13-0.362
		c-0.024-0.062-0.045-0.124-0.072-0.186c-0.027-0.065-0.06-0.13-0.089-0.195C58.526,31.77,56.439,30,54,30c-5.421,0-10,4.58-10,10
		v2.327l-1.303-0.415C40.456,41.199,36.435,40.35,30,40.35c-6.435,0-10.456,0.85-12.697,1.563L16,42.327V40c0-5.42-4.579-10-10-10
		c-2.44,0-4.526,1.77-5.466,3.786c-0.03,0.065-0.062,0.129-0.089,0.195c-0.026,0.062-0.048,0.124-0.072,0.186
		c-0.046,0.121-0.092,0.242-0.13,0.362c-0.006,0.019-0.01,0.037-0.016,0.056c-0.046,0.151-0.087,0.302-0.119,0.451
		c-0.004,0.019-0.006,0.037-0.01,0.056c-0.029,0.145-0.054,0.288-0.07,0.429C0.011,35.681,0,35.842,0,36
		c0,0.325,0.023,0.648,0.068,0.966c0.314,2.222,1.685,4.184,3.548,4.958l0.359,0.145l0.015,0.006
		c0.436,0.173,0.844,0.339,1.18,0.547c0.005,0.003,0.008,0.006,0.013,0.009c0.089,0.056,0.175,0.115,0.252,0.179
		c0.044,0.036,0.082,0.075,0.121,0.113c0.035,0.034,0.073,0.067,0.104,0.104c0.058,0.067,0.106,0.141,0.149,0.217
		c0.01,0.017,0.022,0.031,0.03,0.048c0.045,0.089,0.08,0.185,0.106,0.288c0.003,0.013,0.009,0.024,0.012,0.037
		C5.985,43.734,6,43.86,6,44v5c0,5.467,3.141,9,8,9v1c0,0.552,0.447,1,1,1c0.553,0,1-0.448,1-1v-1h28v1c0,0.552,0.447,1,1,1
		c0.553,0,1-0.448,1-1v-1c4.859,0,8-3.533,8-9v-5c0-0.14,0.015-0.266,0.042-0.384c0.003-0.013,0.009-0.024,0.012-0.037
		c0.026-0.103,0.06-0.199,0.106-0.288c0.009-0.017,0.02-0.031,0.03-0.047c0.043-0.077,0.092-0.151,0.15-0.218
		c0.031-0.036,0.067-0.068,0.102-0.102c0.04-0.039,0.078-0.08,0.124-0.116c0.076-0.063,0.16-0.12,0.248-0.176
		c0.006-0.004,0.011-0.008,0.018-0.012c0.337-0.208,0.746-0.375,1.183-0.548l0.35-0.141l0.02-0.008
		c1.863-0.774,3.234-2.736,3.548-4.958C59.977,36.648,60,36.325,60,36C60,35.842,59.989,35.681,59.971,35.52z"/>
</g>
</svg>
