<?xml version="1.0" encoding="utf-8"?>
<!-- Generator: Adobe Illustrator 17.0.0, SVG Export Plug-In . SVG Version: 6.00 Build 0)  -->
<!DOCTYPE svg PUBLIC "-//W3C//DTD SVG 1.1//EN" "http://www.w3.org/Graphics/SVG/1.1/DTD/svg11.dtd">
<svg version="1.1" id="Layer_2" xmlns="http://www.w3.org/2000/svg" xmlns:xlink="http://www.w3.org/1999/xlink" x="0px" y="0px"
	 width="60px" height="60px" viewBox="0 0 60 60" enable-background="new 0 0 60 60" xml:space="preserve">
<g>
	<path fill="#010101" d="M41.236,23.006l-5.729,5.729C37.079,31.107,38,33.947,38,37c0,8.271-6.729,15-15,15S8,45.271,8,37
		s6.729-15,15-15c3.053,0,5.892,0.921,8.264,2.494l5.729-5.73C33.114,15.78,28.262,14,23,14C10.317,14,0,24.317,0,37
		c0,5.982,2.297,11.437,6.054,15.532l-5.761,5.761c-0.391,0.391-0.391,1.023,0,1.414C0.488,59.902,0.744,60,1,60
		c0.256,0,0.512-0.098,0.707-0.293l5.761-5.761C11.563,57.702,17.018,60,23,60c5.982,0,11.437-2.297,15.532-6.053l5.761,5.76
		C44.488,59.902,44.744,60,45,60c0.256,0,0.512-0.098,0.707-0.293c0.391-0.391,0.391-1.023,0-1.414l-5.761-5.76
		C43.703,48.437,46,42.982,46,37C46,31.738,44.22,26.886,41.236,23.006z"/>
	<path fill="#010101" d="M29.81,25.947C27.827,24.721,25.499,24,23,24c-7.168,0-13,5.832-13,13s5.832,13,13,13s13-5.832,13-13
		c0-2.499-0.721-4.827-1.948-6.81l-4.465,4.465C29.85,35.389,30,36.176,30,37c0,3.859-3.141,7-7,7s-7-3.141-7-7s3.141-7,7-7
		c0.824,0,1.611,0.15,2.345,0.413L29.81,25.947z"/>
	<path fill="#010101" d="M23.688,32.069C23.461,32.038,23.236,32,23,32c-2.757,0-5,2.243-5,5c0,2.757,2.243,5,5,5s5-2.243,5-5
		c0-0.236-0.038-0.461-0.07-0.688l-2.809,2.809C24.555,39.687,23.801,40,23,40c-0.801,0-1.555-0.312-2.121-0.879
		C20.313,38.554,20,37.8,20,37s0.312-1.555,0.879-2.121L23.688,32.069z"/>
	<path fill="#010101" d="M59.81,6.413C59.622,6.153,59.32,6,59,6h-3.182H54V4.202V1c0-0.32-0.153-0.622-0.413-0.81
		c-0.259-0.187-0.593-0.239-0.898-0.141C52.485,0.116,50.465,0.791,48,1.999v0v9c0,0.553-0.447,1-1,1s-1-0.447-1-1V3.053
		c-3.3,1.877-6.743,4.583-7.552,7.971c-0.425,1.783-0.087,3.562,0.97,5.315c0.33,0.546,0.725,1.09,1.197,1.631l0,0l-2.083,2.083l0,0
		l-5.671,5.671l0,0l-1.414,1.414l0,0l-4.263,4.263l0,0l-1.431,1.431v0l-2.242,2.242h0l-1.219,1.218
		c-0.098,0.098-0.171,0.21-0.219,0.331C22.026,36.74,22,36.867,22,37s0.026,0.259,0.074,0.376c0.049,0.12,0.122,0.233,0.219,0.331
		c0.003,0.003,0.008,0.004,0.011,0.007c0.381,0.37,1.011,0.37,1.392,0c0.003-0.003,0.008-0.004,0.011-0.007l1.218-1.218l0,0
		l2.242-2.242v0l1.431-1.431v0l4.263-4.263l0,0l1.414-1.414l0,0l5.671-5.671l0,0l2.078-2.078l0,0
		c0.539,0.471,1.083,0.869,1.629,1.199c1.256,0.757,2.529,1.143,3.806,1.143c7.675,0,12.298-13.832,12.491-14.421
		C60.05,7.006,59.998,6.673,59.81,6.413z"/>
</g>
</svg>
