<?xml version="1.0" encoding="utf-8"?>
<!-- Generator: Adobe Illustrator 17.0.0, SVG Export Plug-In . SVG Version: 6.00 Build 0)  -->
<!DOCTYPE svg PUBLIC "-//W3C//DTD SVG 1.1//EN" "http://www.w3.org/Graphics/SVG/1.1/DTD/svg11.dtd">
<svg version="1.1" id="Layer_2" xmlns="http://www.w3.org/2000/svg" xmlns:xlink="http://www.w3.org/1999/xlink" x="0px" y="0px"
	 width="60px" height="60px" viewBox="0 0 60 60" enable-background="new 0 0 60 60" xml:space="preserve">
<g>
	<path fill="#010101" d="M37,0.002L23,0c-4.959,0-6,2.719-6,5v49c0,3.533,2.468,6,6,6h14c3.532,0,6-2.467,6-6V6
		C43,2.468,40.534,0.002,37,0.002z M30,52c-3.859,0-7-3.14-7-7c0-3.86,3.141-7,7-7c3.859,0,7,3.14,7,7C37,48.86,33.859,52,30,52z
		 M30,36c-3.859,0-7-3.14-7-7c0-3.86,3.141-7,7-7c3.859,0,7,3.14,7,7C37,32.86,33.859,36,30,36z M30,20c-3.859,0-7-3.14-7-7
		c0-3.86,3.141-7,7-7c3.859,0,7,3.14,7,7C37,16.86,33.859,20,30,20z"/>
	<path fill="#010101" d="M14,6H2C1.596,6,1.23,6.244,1.076,6.617c-0.155,0.374-0.069,0.804,0.217,1.09l12,12
		C13.484,19.898,13.74,20,14,20c0.129,0,0.259-0.025,0.383-0.076C14.757,19.769,15,19.404,15,19V7C15,6.448,14.553,6,14,6z"/>
	<path fill="#010101" d="M14,22H2c-0.404,0-0.77,0.244-0.924,0.617c-0.155,0.374-0.069,0.804,0.217,1.09l12,12
		C13.484,35.898,13.74,36,14,36c0.129,0,0.259-0.025,0.383-0.076C14.757,35.769,15,35.404,15,35V23C15,22.448,14.553,22,14,22z"/>
	<path fill="#010101" d="M14,38H2c-0.404,0-0.77,0.244-0.924,0.617c-0.155,0.374-0.069,0.804,0.217,1.09l12,12
		C13.484,51.898,13.74,52,14,52c0.129,0,0.259-0.025,0.383-0.076C14.757,51.769,15,51.404,15,51V39C15,38.448,14.553,38,14,38z"/>
	<path fill="#010101" d="M45.617,19.924C45.741,19.975,45.871,20,46,20c0.26,0,0.516-0.102,0.707-0.293l12-12
		c0.286-0.286,0.372-0.716,0.217-1.09C58.769,6.244,58.404,6,58,6H46c-0.553,0-1,0.448-1,1v12
		C45,19.404,45.243,19.769,45.617,19.924z"/>
	<path fill="#010101" d="M58,22H46c-0.553,0-1,0.448-1,1v12c0,0.404,0.243,0.769,0.617,0.924C45.741,35.975,45.871,36,46,36
		c0.26,0,0.516-0.102,0.707-0.293l12-12c0.286-0.286,0.372-0.716,0.217-1.09C58.769,22.244,58.404,22,58,22z"/>
	<path fill="#010101" d="M58,38H46c-0.553,0-1,0.448-1,1v12c0,0.404,0.243,0.769,0.617,0.924C45.741,51.975,45.871,52,46,52
		c0.26,0,0.516-0.102,0.707-0.293l12-12c0.286-0.286,0.372-0.716,0.217-1.09C58.769,38.244,58.404,38,58,38z"/>
</g>
</svg>
