<?xml version="1.0" encoding="utf-8"?>
<!-- Generator: Adobe Illustrator 17.0.0, SVG Export Plug-In . SVG Version: 6.00 Build 0)  -->
<!DOCTYPE svg PUBLIC "-//W3C//DTD SVG 1.1//EN" "http://www.w3.org/Graphics/SVG/1.1/DTD/svg11.dtd">
<svg version="1.1" id="Layer_2" xmlns="http://www.w3.org/2000/svg" xmlns:xlink="http://www.w3.org/1999/xlink" x="0px" y="0px"
	 width="60px" height="60px" viewBox="0 0 60 60" enable-background="new 0 0 60 60" xml:space="preserve">
<path fill="#010101" d="M59,58h-9.324l-2.542-9.263c0,0,0-0.001,0-0.002l-3.292-12c0-0.002-0.002-0.003-0.002-0.004l-3.84-13.995
	c0,0,0,0,0,0l-2.743-10c0-0.001-0.001-0.002-0.001-0.003L33.965,0.735C33.845,0.301,33.45,0,33,0h-6
	c-0.45,0-0.845,0.301-0.965,0.735l-9.876,35.997c0,0.001-0.001,0.002-0.001,0.003l-3.292,12c0,0,0,0.001,0,0.001L10.325,58H1
	c-0.553,0-1,0.448-1,1c0,0.552,0.447,1,1,1h58c0.553,0,1-0.448,1-1C60,58.448,59.553,58,59,58z M24.471,14h11.06l2.194,8H22.276
	L24.471,14z M15.143,48l2.743-10h24.229l2.743,10H15.143z"/>
</svg>
