<?xml version="1.0" encoding="utf-8"?>
<!-- Generator: Adobe Illustrator 17.0.0, SVG Export Plug-In . SVG Version: 6.00 Build 0)  -->
<!DOCTYPE svg PUBLIC "-//W3C//DTD SVG 1.1//EN" "http://www.w3.org/Graphics/SVG/1.1/DTD/svg11.dtd">
<svg version="1.1" id="Layer_2" xmlns="http://www.w3.org/2000/svg" xmlns:xlink="http://www.w3.org/1999/xlink" x="0px" y="0px"
	 width="60px" height="60px" viewBox="0 0 60 60" enable-background="new 0 0 60 60" xml:space="preserve">
<g>
	<path fill="#010101" d="M4,23H2c-0.553,0-1,0.447-1,1c0,0.553,0.447,1,1,1h2c0.553,0,1-0.447,1-1C5,23.447,4.553,23,4,23z"/>
	<path fill="#010101" d="M13.293,10.707C13.488,10.902,13.744,11,14,11c0.256,0,0.512-0.098,0.707-0.293
		c0.391-0.391,0.391-1.023,0-1.414l-3-3c-0.391-0.391-1.023-0.391-1.414,0c-0.391,0.391-0.391,1.023,0,1.414L13.293,10.707z"/>
	<path fill="#010101" d="M30,7c0.553,0,1-0.447,1-1V2c0-0.553-0.447-1-1-1c-0.553,0-1,0.447-1,1v4C29,6.553,29.447,7,30,7z"/>
	<path fill="#010101" d="M45,11c0.256,0,0.512-0.098,0.707-0.293l3-3c0.391-0.391,0.391-1.023,0-1.414
		c-0.391-0.391-1.023-0.391-1.414,0l-3,3c-0.391,0.391-0.391,1.023,0,1.414C44.488,10.902,44.744,11,45,11z"/>
	<path fill="#010101" d="M58,23h-2c-0.553,0-1,0.447-1,1c0,0.553,0.447,1,1,1h2c0.553,0,1-0.447,1-1C59,23.447,58.553,23,58,23z"/>
	<path fill="#010101" d="M54,29h-1.053c-0.521-4.937-4.989-5.897-10.007-5.991C42.363,18.245,37.616,15,31,15
		c-5.934,0-12.219,2.797-12.933,8.004C14.35,23.042,7.781,23.505,7.071,29H6c-0.553,0-1,0.447-1,1v28c0,0.553,0.447,1,1,1h48
		c0.553,0,1-0.447,1-1V30C55,29.447,54.553,29,54,29z M49,53H11V35h16v6h6v-6h16V53z M29,38v-2c0-0.553,0.447-1,1-1
		c0.553,0,1,0.447,1,1v2c0,0.553-0.447,1-1,1C29.447,39,29,38.553,29,38z M9.093,29c0.552-2.791,3.605-4,9.907-4
		c0.553,0,1-0.447,1-1c0-4.382,5.593-7,11-7c4.816,0,10,2.19,10,7c0,0.553,0.447,1,1,1c6.006,0,8.507,1.069,8.933,4H9.093z"/>
	<polygon fill="#010101" points="25,37 13,37 13,51 47,51 47,37 35,37 35,43 25,43 	"/>
</g>
</svg>
