<?xml version="1.0" encoding="utf-8"?>
<!-- Generator: Adobe Illustrator 17.0.0, SVG Export Plug-In . SVG Version: 6.00 Build 0)  -->
<!DOCTYPE svg PUBLIC "-//W3C//DTD SVG 1.1//EN" "http://www.w3.org/Graphics/SVG/1.1/DTD/svg11.dtd">
<svg version="1.1" id="Layer_2" xmlns="http://www.w3.org/2000/svg" xmlns:xlink="http://www.w3.org/1999/xlink" x="0px" y="0px"
	 width="60px" height="60px" viewBox="0 0 60 60" enable-background="new 0 0 60 60" xml:space="preserve">
<path fill="#010101" d="M47,10H33c-7.532,0-13,3.364-13,8v20.764L6.342,11.447l3.105-1.553c0.494-0.247,0.694-0.848,0.447-1.342
	C9.647,8.059,9.047,7.859,8.553,8.106l-8,4c-0.494,0.247-0.694,0.848-0.447,1.342C0.281,13.798,0.634,14,1.001,14
	c0.15,0,0.303-0.034,0.446-0.105l3.105-1.553L20,43.236V46c0,3.532,2.468,6,6,6h16c3.532,0,6-2.468,6-6v-8.053
	C54.804,37.412,60,31.486,60,24C60,16.149,54.29,10,47,10z M48,35.947V19c0-0.553-0.447-1-1-1h-5.586l-6-6H47
	c6.168,0,11,5.272,11,12C58,30.36,53.682,35.411,48,35.947z"/>
</svg>
