<?xml version="1.0" encoding="utf-8"?>
<!-- Generator: Adobe Illustrator 17.0.0, SVG Export Plug-In . SVG Version: 6.00 Build 0)  -->
<!DOCTYPE svg PUBLIC "-//W3C//DTD SVG 1.1//EN" "http://www.w3.org/Graphics/SVG/1.1/DTD/svg11.dtd">
<svg version="1.1" id="Layer_2" xmlns="http://www.w3.org/2000/svg" xmlns:xlink="http://www.w3.org/1999/xlink" x="0px" y="0px"
	 width="60px" height="60px" viewBox="0 0 60 60" enable-background="new 0 0 60 60" xml:space="preserve">
<path fill="#010101" d="M59.957,50.71l-8.498-27.984C50.563,19.594,48.907,16,44,16h-8.355C37.688,14.349,39,11.826,39,9
	c0-4.962-4.037-9-9-9s-9,4.038-9,9c0,2.826,1.312,5.349,3.355,7H17c-4.036,0-7.279,2.577-8.459,6.71l-8.498,28
	C0.015,50.804,0,50.901,0,51v8c0,0.552,0.447,1,1,1h58c0.553,0,1-0.448,1-1v-8C60,50.901,59.985,50.804,59.957,50.71z
	 M22.435,36.304v6.305h-1.261V30h1.261V36.304z M27.544,42.608l-4.753-5.73c-0.177-0.204-0.283-0.574-0.322-0.574
	c0.084,0,0.189-0.559,0.322-0.695L27.406,30h1.655l-5.258,6.057l5.63,6.552H27.544z M38.825,32.442
	c-1.261-0.62-2.027-0.931-3.37-0.931c-1.371,0-2.446,0.473-3.325,1.413c-0.879,0.947-1.291,2.175-1.291,3.677
	c0,1.562,0.42,2.786,1.233,3.67c0.812,0.882,1.748,1.327,3.154,1.327c0.996,0,2.338-0.194,2.338-0.589v-3.445h-2.521v-1.261h3.782
	v5.473c-1.261,0.694-2.337,1.041-3.819,1.041c-1.696,0-2.971-0.562-4.042-1.677c-1.069-1.118-1.553-2.596-1.553-4.432
	c0-1.87,0.62-3.412,1.803-4.618c1.184-1.205,2.586-1.808,4.394-1.808c1.356,0,1.956,0.219,3.217,0.649V32.442z"/>
</svg>
