<?xml version="1.0" encoding="utf-8"?>
<!-- Generator: Adobe Illustrator 17.0.0, SVG Export Plug-In . SVG Version: 6.00 Build 0)  -->
<!DOCTYPE svg PUBLIC "-//W3C//DTD SVG 1.1//EN" "http://www.w3.org/Graphics/SVG/1.1/DTD/svg11.dtd">
<svg version="1.1" xmlns="http://www.w3.org/2000/svg" xmlns:xlink="http://www.w3.org/1999/xlink" x="0px" y="0px" width="60px"
	 height="60px" viewBox="0 0 60 60" enable-background="new 0 0 60 60" xml:space="preserve">
<g id="Layer_1">
	<g>
		<path fill="#010101" d="M54,16h-2v-4c0-3.309-2.691-6-6-6H6c-3.309,0-6,2.691-6,6v28c0,3.309,2.691,6,6,6h2v4c0,3.309,2.691,6,6,6
			h40c3.309,0,6-2.691,6-6V22C60,18.691,57.309,16,54,16z M58,22v4h-6v-8h2C56.206,18,58,19.794,58,22z M6,8h40c2.206,0,4,1.794,4,4
			v4H2v-4C2,9.794,3.794,8,6,8z M2,40V18h48v22c0,2.206-1.794,4-4,4H6C3.794,44,2,42.206,2,40z M54,54H14c-2.206,0-4-1.794-4-4v-4
			h36c3.309,0,6-2.691,6-6V28h6v22C58,52.206,56.206,54,54,54z"/>
		<circle fill="#010101" cx="8" cy="12" r="2"/>
		<circle fill="#010101" cx="14" cy="12" r="2"/>
		<circle fill="#010101" cx="20" cy="12" r="2"/>
	</g>
</g>
<g id="nyt_x5F_exporter_x5F_info" display="none">
</g>
</svg>
