<?xml version="1.0" encoding="utf-8"?>
<!-- Generator: Adobe Illustrator 17.0.0, SVG Export Plug-In . SVG Version: 6.00 Build 0)  -->
<!DOCTYPE svg PUBLIC "-//W3C//DTD SVG 1.1//EN" "http://www.w3.org/Graphics/SVG/1.1/DTD/svg11.dtd">
<svg version="1.1" xmlns="http://www.w3.org/2000/svg" xmlns:xlink="http://www.w3.org/1999/xlink" x="0px" y="0px" width="60px"
	 height="60px" viewBox="0 0 60 60" enable-background="new 0 0 60 60" xml:space="preserve">
<g id="Layer_1">
	<g>
		<path fill="#010101" d="M48,26H22c-0.553,0-1,0.448-1,1s0.447,1,1,1h26c0.553,0,1-0.448,1-1S48.553,26,48,26z"/>
		<path fill="#010101" d="M14,26h-4c-0.553,0-1,0.448-1,1s0.447,1,1,1h4c0.553,0,1-0.448,1-1S14.553,26,14,26z"/>
		<path fill="#010101" d="M48,34H22c-0.553,0-1,0.448-1,1s0.447,1,1,1h26c0.553,0,1-0.448,1-1S48.553,34,48,34z"/>
		<path fill="#010101" d="M14,34h-4c-0.553,0-1,0.448-1,1s0.447,1,1,1h4c0.553,0,1-0.448,1-1S14.553,34,14,34z"/>
		<path fill="#010101" d="M48,42H22c-0.553,0-1,0.448-1,1s0.447,1,1,1h26c0.553,0,1-0.448,1-1S48.553,42,48,42z"/>
		<path fill="#010101" d="M14,42h-4c-0.553,0-1,0.448-1,1s0.447,1,1,1h4c0.553,0,1-0.448,1-1S14.553,42,14,42z"/>
		<path fill="#010101" d="M54,8H6c-3.309,0-6,2.691-6,6v34c0,3.309,2.691,6,6,6h48c3.309,0,6-2.691,6-6V14C60,10.691,57.309,8,54,8z
			 M6,10h48c2.206,0,4,1.794,4,4v4H2v-4C2,11.794,3.794,10,6,10z M54,52H6c-2.206,0-4-1.794-4-4V20h56v28C58,50.206,56.206,52,54,52
			z"/>
		<circle fill="#010101" cx="8" cy="14" r="2"/>
		<circle fill="#010101" cx="14" cy="14" r="2"/>
		<circle fill="#010101" cx="20" cy="14" r="2"/>
	</g>
</g>
<g id="nyt_x5F_exporter_x5F_info" display="none">
</g>
</svg>
