<?xml version="1.0" encoding="utf-8"?>
<!-- Generator: Adobe Illustrator 17.0.0, SVG Export Plug-In . SVG Version: 6.00 Build 0)  -->
<!DOCTYPE svg PUBLIC "-//W3C//DTD SVG 1.1//EN" "http://www.w3.org/Graphics/SVG/1.1/DTD/svg11.dtd">
<svg version="1.1" xmlns="http://www.w3.org/2000/svg" xmlns:xlink="http://www.w3.org/1999/xlink" x="0px" y="0px" width="60px"
	 height="60px" viewBox="0 0 60 60" enable-background="new 0 0 60 60" xml:space="preserve">
<g id="Layer_1">
	<g>
		<path fill="#010101" d="M44,16H16c-3.309,0-6,2.691-6,6v16c0,3.309,2.691,6,6,6h28c3.309,0,6-2.691,6-6V22
			C50,18.691,47.309,16,44,16z M16,18h28c2.206,0,4,1.794,4,4v2H12v-2C12,19.794,13.794,18,16,18z M44,42H16c-2.206,0-4-1.794-4-4
			V26h36v12C48,40.206,46.206,42,44,42z"/>
		<circle fill="#010101" cx="17" cy="21" r="1"/>
		<circle fill="#010101" cx="21" cy="21" r="1"/>
		<circle fill="#010101" cx="25" cy="21" r="1"/>
	</g>
</g>
<g id="nyt_x5F_exporter_x5F_info" display="none">
</g>
</svg>
