<?xml version="1.0" encoding="utf-8"?>
<!-- Generator: Adobe Illustrator 17.0.0, SVG Export Plug-In . SVG Version: 6.00 Build 0)  -->
<!DOCTYPE svg PUBLIC "-//W3C//DTD SVG 1.1//EN" "http://www.w3.org/Graphics/SVG/1.1/DTD/svg11.dtd">
<svg version="1.1" xmlns="http://www.w3.org/2000/svg" xmlns:xlink="http://www.w3.org/1999/xlink" x="0px" y="0px" width="60px"
	 height="60px" viewBox="0 0 60 60" enable-background="new 0 0 60 60" xml:space="preserve">
<g id="Layer_1">
	<g>
		<path fill="#010101" d="M59,36c-0.553,0-1,0.448-1,1v3.612C55.724,36.585,51.419,34,46.683,34c-5.5,0-10.427,3.482-12.26,8.665
			c-0.185,0.521,0.088,1.092,0.609,1.276c0.518,0.184,1.092-0.089,1.275-0.609C37.859,38.946,42.028,36,46.683,36
			c4.165,0,7.934,2.362,9.794,6H53c-0.553,0-1,0.448-1,1c0,0.552,0.447,1,1,1h4.997c0.001,0,0.002,0,0.003,0
			c0.001,0,0.002,0,0.003,0H60v-7C60,36.447,59.553,36,59,36z"/>
		<path fill="#010101" d="M40,49c0-0.552-0.447-1-1-1h-7v7c0,0.552,0.447,1,1,1c0.553,0,1-0.448,1-1v-3.414
			C35.867,56.58,40.645,60,46.166,60c6.376,0,11.769-4.557,12.82-10.836c0.091-0.544-0.276-1.06-0.821-1.151
			c-0.545-0.094-1.06,0.276-1.151,0.821C56.124,54.146,51.561,58,46.166,58c-4.991,0-9.263-3.302-10.581-8.001H39
			C39.553,50,40,49.552,40,49z"/>
		<path fill="#010101" d="M6,42h19c0.553,0,1-0.448,1-1c0-0.552-0.447-1-1-1H6c-2.206,0-4-1.794-4-4V12h48v12c0,0.552,0.447,1,1,1
			c0.553,0,1-0.448,1-1V6c0-3.309-2.691-6-6-6H6C2.691,0,0,2.691,0,6v30C0,39.308,2.691,42,6,42z M6,2h40c2.206,0,4,1.794,4,4v4H2V6
			C2,3.794,3.794,2,6,2z"/>
		<circle fill="#010101" cx="8" cy="6" r="2"/>
		<circle fill="#010101" cx="14" cy="6" r="2"/>
		<circle fill="#010101" cx="20" cy="6" r="2"/>
	</g>
</g>
<g id="nyt_x5F_exporter_x5F_info" display="none">
</g>
</svg>
