<?xml version="1.0" encoding="utf-8"?>
<!-- Generator: Adobe Illustrator 17.0.0, SVG Export Plug-In . SVG Version: 6.00 Build 0)  -->
<!DOCTYPE svg PUBLIC "-//W3C//DTD SVG 1.1//EN" "http://www.w3.org/Graphics/SVG/1.1/DTD/svg11.dtd">
<svg version="1.1" xmlns="http://www.w3.org/2000/svg" xmlns:xlink="http://www.w3.org/1999/xlink" x="0px" y="0px" width="60px"
	 height="60px" viewBox="0 0 60 60" enable-background="new 0 0 60 60" xml:space="preserve">
<g id="Layer_1">
	<g>
		<path fill="#010101" d="M59,48H49c-0.553,0-1,0.448-1,1v10c0,0.552,0.447,1,1,1h10c0.553,0,1-0.448,1-1V49
			C60,48.448,59.553,48,59,48z M58,58h-8v-8h8V58z"/>
		<path fill="#010101" d="M52,43V33c0-0.552-0.447-1-1-1H41c-0.553,0-1,0.448-1,1v10c0,0.552,0.447,1,1,1h10
			C51.553,44,52,43.552,52,43z M50,42h-8v-8h8V42z"/>
		<path fill="#010101" d="M33,48c-0.553,0-1,0.448-1,1v10c0,0.552,0.447,1,1,1h10c0.553,0,1-0.448,1-1V49c0-0.552-0.447-1-1-1H33z
			 M42,58h-8v-8h8V58z"/>
		<path fill="#010101" d="M6,42h21c0.553,0,1-0.448,1-1s-0.447-1-1-1H6c-2.206,0-4-1.794-4-4V12h48v13c0,0.552,0.447,1,1,1
			c0.553,0,1-0.448,1-1V6c0-3.309-2.691-6-6-6H6C2.691,0,0,2.691,0,6v30C0,39.309,2.691,42,6,42z M6,2h40c2.206,0,4,1.794,4,4v4H2V6
			C2,3.794,3.794,2,6,2z"/>
		<circle fill="#010101" cx="8" cy="6" r="2"/>
		<circle fill="#010101" cx="14" cy="6" r="2"/>
		<circle fill="#010101" cx="20" cy="6" r="2"/>
	</g>
</g>
<g id="nyt_x5F_exporter_x5F_info" display="none">
</g>
</svg>
