<?xml version="1.0" encoding="utf-8"?>
<!-- Generator: Adobe Illustrator 17.0.0, SVG Export Plug-In . SVG Version: 6.00 Build 0)  -->
<!DOCTYPE svg PUBLIC "-//W3C//DTD SVG 1.1//EN" "http://www.w3.org/Graphics/SVG/1.1/DTD/svg11.dtd">
<svg version="1.1" xmlns="http://www.w3.org/2000/svg" xmlns:xlink="http://www.w3.org/1999/xlink" x="0px" y="0px" width="60px"
	 height="60px" viewBox="0 0 60 60" enable-background="new 0 0 60 60" xml:space="preserve">
<g id="Layer_1">
	<g>
		<path fill="#010101" d="M48,28H22c-0.553,0-1,0.448-1,1s0.447,1,1,1h26c0.553,0,1-0.448,1-1S48.553,28,48,28z"/>
		<path fill="#010101" d="M14,28h-4c-0.553,0-1,0.448-1,1s0.447,1,1,1h4c0.553,0,1-0.448,1-1S14.553,28,14,28z"/>
		<path fill="#010101" d="M48,36H22c-0.553,0-1,0.448-1,1s0.447,1,1,1h26c0.553,0,1-0.448,1-1S48.553,36,48,36z"/>
		<path fill="#010101" d="M14,36h-4c-0.553,0-1,0.448-1,1s0.447,1,1,1h4c0.553,0,1-0.448,1-1S14.553,36,14,36z"/>
		<path fill="#010101" d="M48,44H22c-0.553,0-1,0.448-1,1s0.447,1,1,1h26c0.553,0,1-0.448,1-1S48.553,44,48,44z"/>
		<path fill="#010101" d="M14,44h-4c-0.553,0-1,0.448-1,1s0.447,1,1,1h4c0.553,0,1-0.448,1-1S14.553,44,14,44z"/>
		<path fill="#010101" d="M59,6H1C0.447,6,0,6.448,0,7v48c0,0.552,0.447,1,1,1h58c0.553,0,1-0.448,1-1V7C60,6.448,59.553,6,59,6z
			 M58,8v12H2V8H58z M2,54V22h56v32H2z"/>
		<circle fill="#010101" cx="34" cy="14" r="2"/>
		<circle fill="#010101" cx="42" cy="14" r="2"/>
		<circle fill="#010101" cx="50" cy="14" r="2"/>
	</g>
</g>
<g id="nyt_x5F_exporter_x5F_info" display="none">
</g>
</svg>
