<?xml version="1.0" encoding="utf-8"?>
<!-- Generator: Adobe Illustrator 17.0.0, SVG Export Plug-In . SVG Version: 6.00 Build 0)  -->
<!DOCTYPE svg PUBLIC "-//W3C//DTD SVG 1.1//EN" "http://www.w3.org/Graphics/SVG/1.1/DTD/svg11.dtd">
<svg version="1.1" xmlns="http://www.w3.org/2000/svg" xmlns:xlink="http://www.w3.org/1999/xlink" x="0px" y="0px" width="60px"
	 height="60px" viewBox="0 0 60 60" enable-background="new 0 0 60 60" xml:space="preserve">
<g id="Layer_1">
	<g>
		<path fill="#010101" d="M54,8H6c-3.309,0-6,2.691-6,6v34c0,3.309,2.691,6,6,6h48c3.309,0,6-2.691,6-6V14C60,10.691,57.309,8,54,8z
			 M6,10h48c2.206,0,4,1.794,4,4v4H2v-4C2,11.794,3.794,10,6,10z M54,52H6c-2.206,0-4-1.794-4-4V20h56v28C58,50.206,56.206,52,54,52
			z"/>
		<circle fill="#010101" cx="8" cy="14" r="2"/>
		<circle fill="#010101" cx="14" cy="14" r="2"/>
		<circle fill="#010101" cx="20" cy="14" r="2"/>
		<path fill="#010101" d="M19,24H9c-0.553,0-1,0.448-1,1v8c0,0.552,0.447,1,1,1h10c0.553,0,1-0.448,1-1v-8
			C20,24.448,19.553,24,19,24z M18,32h-8v-6h8V32z"/>
		<path fill="#010101" d="M35,24H25c-0.553,0-1,0.448-1,1v8c0,0.552,0.447,1,1,1h10c0.553,0,1-0.448,1-1v-8
			C36,24.448,35.553,24,35,24z M34,32h-8v-6h8V32z"/>
		<path fill="#010101" d="M51,24H41c-0.553,0-1,0.448-1,1v8c0,0.552,0.447,1,1,1h10c0.553,0,1-0.448,1-1v-8
			C52,24.448,51.553,24,51,24z M50,32h-8v-6h8V32z"/>
		<path fill="#010101" d="M19,38H9c-0.553,0-1,0.448-1,1v8c0,0.552,0.447,1,1,1h10c0.553,0,1-0.448,1-1v-8
			C20,38.448,19.553,38,19,38z M18,46h-8v-6h8V46z"/>
		<path fill="#010101" d="M35,38H25c-0.553,0-1,0.448-1,1v8c0,0.552,0.447,1,1,1h10c0.553,0,1-0.448,1-1v-8
			C36,38.448,35.553,38,35,38z M34,46h-8v-6h8V46z"/>
		<path fill="#010101" d="M51,38H41c-0.553,0-1,0.448-1,1v8c0,0.552,0.447,1,1,1h10c0.553,0,1-0.448,1-1v-8
			C52,38.448,51.553,38,51,38z M50,46h-8v-6h8V46z"/>
	</g>
</g>
<g id="nyt_x5F_exporter_x5F_info" display="none">
</g>
</svg>
