<?xml version="1.0" encoding="utf-8"?>
<!-- Generator: Adobe Illustrator 17.0.0, SVG Export Plug-In . SVG Version: 6.00 Build 0)  -->
<!DOCTYPE svg PUBLIC "-//W3C//DTD SVG 1.1//EN" "http://www.w3.org/Graphics/SVG/1.1/DTD/svg11.dtd">
<svg version="1.1" xmlns="http://www.w3.org/2000/svg" xmlns:xlink="http://www.w3.org/1999/xlink" x="0px" y="0px" width="60px"
	 height="60px" viewBox="0 0 60 60" enable-background="new 0 0 60 60" xml:space="preserve">
<g id="Layer_1">
	<g>
		<path fill="#010101" d="M52.197,31.926c-3.043,0-5.615,1.896-7.197,5.19c-1.582-3.295-4.154-5.19-7.197-5.19
			C33.967,31.926,30,35.32,30,41c0,8.418,13.83,18.393,14.419,18.814C44.593,59.938,44.796,60,45,60s0.407-0.062,0.581-0.186
			C46.17,59.393,60,49.418,60,41C60,35.32,56.033,31.926,52.197,31.926z M45,57.754C42.402,55.789,32,47.509,32,41
			c0-4.428,2.951-7.074,5.803-7.074c2.82,0,5.15,2.369,6.232,6.337C44.154,40.698,44.549,41,45,41s0.846-0.302,0.965-0.737
			c1.082-3.968,3.412-6.337,6.232-6.337C55.049,33.926,58,36.572,58,41C58,47.502,47.598,55.788,45,57.754z"/>
		<path fill="#010101" d="M6,42h17c0.552,0,1-0.448,1-1s-0.448-1-1-1H6c-2.206,0-4-1.794-4-4V12h48v12c0,0.552,0.448,1,1,1
			s1-0.448,1-1V6c0-3.309-2.691-6-6-6H6C2.691,0,0,2.691,0,6v30C0,39.309,2.691,42,6,42z M6,2h40c2.206,0,4,1.794,4,4v4H2V6
			C2,3.794,3.794,2,6,2z"/>
		<circle fill="#010101" cx="8" cy="6" r="2"/>
		<circle fill="#010101" cx="14" cy="6" r="2"/>
		<circle fill="#010101" cx="20" cy="6" r="2"/>
	</g>
</g>
<g id="nyt_x5F_exporter_x5F_info" display="none">
</g>
</svg>
