<?xml version="1.0" encoding="utf-8"?>
<!-- Generator: Adobe Illustrator 17.0.0, SVG Export Plug-In . SVG Version: 6.00 Build 0)  -->
<!DOCTYPE svg PUBLIC "-//W3C//DTD SVG 1.1//EN" "http://www.w3.org/Graphics/SVG/1.1/DTD/svg11.dtd">
<svg version="1.1" xmlns="http://www.w3.org/2000/svg" xmlns:xlink="http://www.w3.org/1999/xlink" x="0px" y="0px" width="60px"
	 height="60px" viewBox="0 0 60 60" enable-background="new 0 0 60 60" xml:space="preserve">
<g id="Layer_1">
	<g>
		<path fill="#010101" d="M54,8H6c-3.309,0-6,2.691-6,6v34c0,3.309,2.691,6,6,6h48c3.309,0,6-2.691,6-6V14C60,10.691,57.309,8,54,8z
			 M2,20h56v16H47c-0.345,0-0.665,0.178-0.848,0.47l-4.003,6.404l-7.235-16.28c-0.152-0.342-0.483-0.571-0.857-0.592
			c-0.368-0.016-0.729,0.169-0.919,0.492l-8.966,15.243l-5.243-13.108c-0.14-0.35-0.465-0.591-0.84-0.625
			c-0.378-0.036-0.737,0.146-0.937,0.466L12.445,36H2V20z M6,10h48c2.206,0,4,1.794,4,4v4H2v-4C2,11.794,3.794,10,6,10z M54,52H6
			c-2.206,0-4-1.794-4-4V38h11c0.345,0,0.665-0.178,0.848-0.47l3.956-6.329l5.268,13.17c0.142,0.354,0.473,0.597,0.854,0.626
			c0.378,0.023,0.743-0.161,0.938-0.49l9.014-15.324l7.21,16.223c0.15,0.338,0.475,0.565,0.844,0.591C41.953,45.999,41.977,46,42,46
			c0.343,0,0.664-0.176,0.848-0.47L47.555,38H58v10C58,50.206,56.206,52,54,52z"/>
		<circle fill="#010101" cx="8" cy="14" r="2"/>
		<circle fill="#010101" cx="14" cy="14" r="2"/>
		<circle fill="#010101" cx="20" cy="14" r="2"/>
	</g>
</g>
<g id="nyt_x5F_exporter_x5F_info" display="none">
</g>
</svg>
