<?xml version="1.0" encoding="utf-8"?>
<!-- Generator: Adobe Illustrator 17.0.0, SVG Export Plug-In . SVG Version: 6.00 Build 0)  -->
<!DOCTYPE svg PUBLIC "-//W3C//DTD SVG 1.1//EN" "http://www.w3.org/Graphics/SVG/1.1/DTD/svg11.dtd">
<svg version="1.1" xmlns="http://www.w3.org/2000/svg" xmlns:xlink="http://www.w3.org/1999/xlink" x="0px" y="0px" width="60px"
	 height="60px" viewBox="0 0 60 60" enable-background="new 0 0 60 60" xml:space="preserve">
<g id="Layer_1">
	<g>
		<path fill="#010101" d="M6,42h13c0.552,0,1-0.448,1-1s-0.448-1-1-1H6c-2.206,0-4-1.794-4-4V12h48v8c0,0.552,0.448,1,1,1
			s1-0.448,1-1V6c0-3.309-2.691-6-6-6H6C2.691,0,0,2.691,0,6v30C0,39.309,2.691,42,6,42z M6,2h40c2.206,0,4,1.794,4,4v4H2V6
			C2,3.794,3.794,2,6,2z"/>
		<circle fill="#010101" cx="8" cy="6" r="2"/>
		<circle fill="#010101" cx="14" cy="6" r="2"/>
		<circle fill="#010101" cx="20" cy="6" r="2"/>
		<path fill="#010101" d="M59.966,41.723c0.069-0.256,0.033-0.529-0.1-0.759l-4-6.928c-0.277-0.479-0.888-0.643-1.366-0.366
			l-1.739,1.004c-0.885-0.676-1.85-1.233-2.885-1.663V31c0-0.552-0.448-1-1-1h-8c-0.552,0-1,0.448-1,1v2.011
			c-1.035,0.43-2,0.987-2.885,1.663l-1.739-1.004c-0.479-0.277-1.09-0.112-1.366,0.366l-4,6.928c-0.132,0.229-0.168,0.502-0.1,0.759
			c0.068,0.256,0.236,0.475,0.466,0.607l1.737,1.003c-0.076,0.568-0.113,1.119-0.113,1.667s0.037,1.098,0.113,1.667l-1.737,1.002
			c-0.229,0.133-0.398,0.351-0.466,0.608c-0.069,0.256-0.033,0.529,0.1,0.759l4,6.928c0.133,0.23,0.351,0.397,0.608,0.466
			c0.256,0.069,0.529,0.033,0.759-0.1l1.739-1.004c0.884,0.676,1.851,1.233,2.885,1.663V59c0,0.552,0.448,1,1,1h8
			c0.552,0,1-0.448,1-1v-2.011c1.034-0.43,2-0.987,2.885-1.664L54.5,56.33c0.229,0.133,0.504,0.169,0.759,0.1
			c0.256-0.068,0.475-0.236,0.607-0.466l4-6.928c0.276-0.478,0.112-1.09-0.366-1.366l-1.737-1.003
			c0.076-0.568,0.113-1.119,0.113-1.667s-0.037-1.099-0.113-1.667L59.5,42.33C59.729,42.197,59.898,41.979,59.966,41.723z
			 M55.684,42.992c0.129,0.704,0.192,1.36,0.192,2.008s-0.063,1.304-0.192,2.007c-0.077,0.416,0.117,0.836,0.483,1.047l1.467,0.847
			l-3,5.196l-1.467-0.847c-0.367-0.211-0.827-0.169-1.15,0.106c-1.024,0.876-2.193,1.55-3.475,2.004
			c-0.399,0.142-0.667,0.519-0.667,0.943V58h-6v-1.697c0-0.423-0.267-0.801-0.666-0.942c-1.283-0.455-2.452-1.129-3.475-2.004
			c-0.323-0.276-0.783-0.318-1.15-0.106l-1.467,0.847l-3-5.196l1.467-0.847c0.367-0.212,0.56-0.631,0.483-1.047
			c-0.129-0.703-0.192-1.36-0.192-2.007c0-0.648,0.063-1.305,0.192-2.008c0.077-0.417-0.117-0.836-0.483-1.047l-1.467-0.847l3-5.196
			l1.468,0.848c0.367,0.212,0.829,0.17,1.15-0.106c1.022-0.875,2.191-1.549,3.473-2.002c0.399-0.142,0.667-0.519,0.667-0.943V32h6
			v1.697c0,0.424,0.267,0.801,0.667,0.943c1.282,0.454,2.45,1.127,3.473,2.003c0.322,0.275,0.784,0.318,1.15,0.106l1.468-0.848
			l3,5.196l-1.467,0.847C55.801,42.156,55.607,42.575,55.684,42.992z"/>
		<path fill="#010101" d="M44.876,39c-3.309,0-6,2.691-6,6s2.691,6,6,6s6-2.691,6-6S48.185,39,44.876,39z M44.876,49
			c-2.206,0-4-1.794-4-4c0-2.206,1.794-4,4-4c2.206,0,4,1.794,4,4C48.876,47.206,47.081,49,44.876,49z"/>
	</g>
</g>
<g id="nyt_x5F_exporter_x5F_info" display="none">
</g>
</svg>
