<?xml version="1.0" encoding="utf-8"?>
<!-- Generator: Adobe Illustrator 17.0.0, SVG Export Plug-In . SVG Version: 6.00 Build 0)  -->
<!DOCTYPE svg PUBLIC "-//W3C//DTD SVG 1.1//EN" "http://www.w3.org/Graphics/SVG/1.1/DTD/svg11.dtd">
<svg version="1.1" xmlns="http://www.w3.org/2000/svg" xmlns:xlink="http://www.w3.org/1999/xlink" x="0px" y="0px" width="60px"
	 height="60px" viewBox="0 0 60 60" enable-background="new 0 0 60 60" xml:space="preserve">
<g id="Layer_1">
	<g>
		<path fill="#010101" d="M37,40h15c3.309,0,6-2.691,6-6V6c0-3.309-2.691-6-6-6H8C4.691,0,2,2.691,2,6v28c0,3.309,2.691,6,6,6h13
			c0.552,0,1-0.448,1-1s-0.448-1-1-1H8c-2.206,0-4-1.794-4-4V12h52v22c0,2.206-1.794,4-4,4H37c-0.552,0-1,0.448-1,1S36.448,40,37,40
			z M4,10V6c0-2.206,1.794-4,4-4h44c2.206,0,4,1.794,4,4v4H4z"/>
		<path fill="#010101" d="M29,60c0.552,0,1-0.448,1-1V23.414l8.293,8.293C38.488,31.902,38.744,32,39,32s0.512-0.098,0.707-0.293
			c0.391-0.391,0.391-1.023,0-1.414l-9.999-9.999c-0.092-0.092-0.203-0.166-0.325-0.216c-0.244-0.101-0.52-0.101-0.764,0
			c-0.123,0.051-0.233,0.124-0.325,0.216l-9.999,9.999c-0.391,0.391-0.391,1.023,0,1.414c0.391,0.391,1.023,0.391,1.414,0L28,23.414
			V59C28,59.552,28.448,60,29,60z"/>
		<circle fill="#010101" cx="10" cy="6" r="2"/>
		<circle fill="#010101" cx="17" cy="6" r="2"/>
		<circle fill="#010101" cx="24" cy="6" r="2"/>
	</g>
</g>
<g id="nyt_x5F_exporter_x5F_info" display="none">
</g>
</svg>
