<?xml version="1.0" encoding="utf-8"?>
<!-- Generator: Adobe Illustrator 17.0.0, SVG Export Plug-In . SVG Version: 6.00 Build 0)  -->
<!DOCTYPE svg PUBLIC "-//W3C//DTD SVG 1.1//EN" "http://www.w3.org/Graphics/SVG/1.1/DTD/svg11.dtd">
<svg version="1.1" xmlns="http://www.w3.org/2000/svg" xmlns:xlink="http://www.w3.org/1999/xlink" x="0px" y="0px" width="60px"
	 height="60px" viewBox="0 0 60 60" enable-background="new 0 0 60 60" xml:space="preserve">
<g id="Layer_1">
	<g>
		<path fill="#010101" d="M51.182,34.458c-3.185-1.748-6.864-2.152-10.351-1.136c-7.206,2.1-11.361,9.669-9.262,16.872
			c1.731,5.938,7.177,9.803,13.071,9.803c1.257,0,2.535-0.176,3.801-0.545c0.53-0.154,0.835-0.709,0.681-1.24
			c-0.154-0.53-0.71-0.836-1.239-0.68c-6.147,1.79-12.602-1.752-14.394-7.898c-1.79-6.145,1.754-12.601,7.901-14.393
			c2.975-0.868,6.11-0.523,8.828,0.969c2.17,1.191,3.855,3.007,4.893,5.203l-5.033-1.283c-0.536-0.138-1.08,0.187-1.216,0.722
			c-0.137,0.536,0.186,1.08,0.722,1.216l6.908,1.76c0.028,0.007,0.057,0.006,0.086,0.011c0.028,0.005,0.055,0.008,0.084,0.01
			c0.026,0.002,0.051,0.01,0.077,0.01c0.092,0,0.184-0.014,0.273-0.039c0.003-0.001,0.005,0,0.007-0.001
			c0.009-0.003,0.016-0.01,0.025-0.013c0.071-0.023,0.141-0.049,0.206-0.087c0.022-0.013,0.035-0.035,0.055-0.05
			c0.055-0.039,0.101-0.083,0.146-0.132c0.043-0.045,0.084-0.089,0.118-0.142c0.036-0.057,0.061-0.116,0.085-0.179
			c0.015-0.038,0.043-0.07,0.053-0.11l1.761-6.913c0.137-0.536-0.187-1.08-0.722-1.216c-0.535-0.136-1.079,0.187-1.216,0.722
			l-1.03,4.044C55.27,37.536,53.452,35.705,51.182,34.458z"/>
		<path fill="#010101" d="M6.5,42h19c0.553,0,1-0.448,1-1s-0.447-1-1-1h-19c-2.206,0-4-1.794-4-4V12h48v12c0,0.552,0.447,1,1,1
			c0.553,0,1-0.448,1-1V6c0-3.309-2.691-6-6-6h-40c-3.309,0-6,2.691-6,6v30C0.5,39.309,3.191,42,6.5,42z M6.5,2h40
			c2.206,0,4,1.794,4,4v4h-48V6C2.5,3.794,4.294,2,6.5,2z"/>
		<circle fill="#010101" cx="8.5" cy="6" r="2"/>
		<circle fill="#010101" cx="14.5" cy="6" r="2"/>
		<circle fill="#010101" cx="20.5" cy="6" r="2"/>
	</g>
</g>
<g id="nyt_x5F_exporter_x5F_info" display="none">
</g>
</svg>
