<?xml version="1.0" encoding="utf-8"?>
<!-- Generator: Adobe Illustrator 17.0.0, SVG Export Plug-In . SVG Version: 6.00 Build 0)  -->
<!DOCTYPE svg PUBLIC "-//W3C//DTD SVG 1.1//EN" "http://www.w3.org/Graphics/SVG/1.1/DTD/svg11.dtd">
<svg version="1.1" xmlns="http://www.w3.org/2000/svg" xmlns:xlink="http://www.w3.org/1999/xlink" x="0px" y="0px" width="60px"
	 height="60px" viewBox="0 0 60 60" enable-background="new 0 0 60 60" xml:space="preserve">
<g id="Layer_1">
	<g>
		<path fill="#010101" d="M59.948,40.684C59.812,40.275,59.431,40,59,40h-9.323l-3.748-9.372C45.776,30.249,45.409,30,45,30
			c-0.409,0-0.776,0.249-0.929,0.628L40.323,40H31c-0.431,0-0.812,0.275-0.948,0.684c-0.137,0.409,0.004,0.858,0.349,1.116
			l7.423,5.568l-3.771,11.316c-0.137,0.41,0.005,0.86,0.351,1.118c0.344,0.257,0.817,0.265,1.171,0.018l9.453-6.617l10.437,6.642
			C55.628,59.948,55.814,60,56,60c0.229,0,0.459-0.079,0.644-0.235c0.334-0.281,0.447-0.747,0.279-1.15l-4.7-11.282L59.6,41.8
			C59.944,41.542,60.085,41.092,59.948,40.684z M50.4,46.2c-0.366,0.274-0.499,0.762-0.323,1.185l3.776,9.064l-8.316-5.293
			C45.373,51.052,45.186,51,45,51c-0.201,0-0.401,0.06-0.573,0.181l-7.521,5.265l3.043-9.129c0.137-0.409-0.004-0.858-0.349-1.116
			L34,42h7c0.409,0,0.776-0.249,0.929-0.628L45,33.692l3.071,7.679C48.224,41.751,48.591,42,49,42h7L50.4,46.2z"/>
		<path fill="#010101" d="M6,42h17c0.553,0,1-0.448,1-1s-0.447-1-1-1H6c-2.206,0-4-1.794-4-4V12h48v12c0,0.552,0.447,1,1,1
			c0.553,0,1-0.448,1-1V6c0-3.309-2.691-6-6-6H6C2.691,0,0,2.691,0,6v30C0,39.309,2.691,42,6,42z M6,2h40c2.206,0,4,1.794,4,4v4H2V6
			C2,3.794,3.794,2,6,2z"/>
		<circle fill="#010101" cx="8" cy="6" r="2"/>
		<circle fill="#010101" cx="14" cy="6" r="2"/>
		<circle fill="#010101" cx="20" cy="6" r="2"/>
	</g>
</g>
<g id="nyt_x5F_exporter_x5F_info" display="none">
</g>
</svg>
