<?xml version="1.0" encoding="utf-8"?>
<!-- Generator: Adobe Illustrator 17.0.0, SVG Export Plug-In . SVG Version: 6.00 Build 0)  -->
<!DOCTYPE svg PUBLIC "-//W3C//DTD SVG 1.1//EN" "http://www.w3.org/Graphics/SVG/1.1/DTD/svg11.dtd">
<svg version="1.1" xmlns="http://www.w3.org/2000/svg" xmlns:xlink="http://www.w3.org/1999/xlink" x="0px" y="0px" width="60px"
	 height="60px" viewBox="0 0 60 60" enable-background="new 0 0 60 60" xml:space="preserve">
<g id="Layer_1">
	<g>
		<path fill="#010101" d="M45.894,30.553c-0.339-0.678-1.45-0.678-1.789,0l-14,28c-0.155,0.31-0.138,0.678,0.044,0.973
			C30.331,59.82,30.653,60,31,60h28c0.006,0,0.013,0,0.02,0c0.552,0,1-0.448,1-1c0-0.229-0.077-0.44-0.206-0.608L45.894,30.553z
			 M32.618,58L45,33.236L57.382,58H32.618z"/>
		<path fill="#010101" d="M44,43v6c0,0.552,0.448,1,1,1s1-0.448,1-1v-6c0-0.552-0.448-1-1-1S44,42.448,44,43z"/>
		<circle fill="#010101" cx="45" cy="53" r="1"/>
		<path fill="#010101" d="M6,42h17c0.552,0,1-0.448,1-1s-0.448-1-1-1H6c-2.206,0-4-1.794-4-4V12h48v14c0,0.552,0.448,1,1,1
			s1-0.448,1-1V6c0-3.309-2.691-6-6-6H6C2.691,0,0,2.691,0,6v30C0,39.309,2.691,42,6,42z M6,2h40c2.206,0,4,1.794,4,4v4H2V6
			C2,3.794,3.794,2,6,2z"/>
		<circle fill="#010101" cx="8" cy="6" r="2"/>
		<circle fill="#010101" cx="14" cy="6" r="2"/>
		<circle fill="#010101" cx="20" cy="6" r="2"/>
	</g>
</g>
<g id="nyt_x5F_exporter_x5F_info" display="none">
</g>
</svg>
