<?xml version="1.0" encoding="utf-8"?>
<!-- Generator: Adobe Illustrator 17.0.0, SVG Export Plug-In . SVG Version: 6.00 Build 0)  -->
<!DOCTYPE svg PUBLIC "-//W3C//DTD SVG 1.1//EN" "http://www.w3.org/Graphics/SVG/1.1/DTD/svg11.dtd">
<svg version="1.1" xmlns="http://www.w3.org/2000/svg" xmlns:xlink="http://www.w3.org/1999/xlink" x="0px" y="0px" width="60px"
	 height="60px" viewBox="0 0 60 60" enable-background="new 0 0 60 60" xml:space="preserve">
<g id="Layer_1">
	<g>
		<path fill="#010101" d="M59,6H1C0.447,6,0,6.448,0,7v48c0,0.552,0.447,1,1,1h58c0.553,0,1-0.448,1-1V7C60,6.448,59.553,6,59,6z
			 M2,22h56v16H47c-0.345,0-0.665,0.178-0.848,0.47l-4.003,6.404l-7.235-16.28c-0.152-0.342-0.483-0.571-0.857-0.592
			c-0.368-0.018-0.729,0.169-0.919,0.492l-8.966,15.243l-5.243-13.108c-0.14-0.35-0.465-0.591-0.84-0.625
			c-0.378-0.033-0.737,0.146-0.937,0.466L12.445,38H2V22z M58,8v12H2V8H58z M2,54V40h11c0.345,0,0.665-0.178,0.848-0.47l3.956-6.329
			l5.268,13.17c0.142,0.354,0.473,0.597,0.854,0.626c0.378,0.023,0.743-0.161,0.938-0.49l9.014-15.324l7.21,16.223
			c0.15,0.338,0.475,0.565,0.844,0.591C41.953,47.999,41.977,48,42,48c0.343,0,0.664-0.176,0.848-0.47L47.555,40H58v14H2z"/>
		<circle fill="#010101" cx="34" cy="14" r="2"/>
		<circle fill="#010101" cx="42" cy="14" r="2"/>
		<circle fill="#010101" cx="50" cy="14" r="2"/>
	</g>
</g>
<g id="nyt_x5F_exporter_x5F_info" display="none">
</g>
</svg>
