<?xml version="1.0" encoding="utf-8"?>
<!-- Generator: Adobe Illustrator 17.0.0, SVG Export Plug-In . SVG Version: 6.00 Build 0)  -->
<!DOCTYPE svg PUBLIC "-//W3C//DTD SVG 1.1//EN" "http://www.w3.org/Graphics/SVG/1.1/DTD/svg11.dtd">
<svg version="1.1" xmlns="http://www.w3.org/2000/svg" xmlns:xlink="http://www.w3.org/1999/xlink" x="0px" y="0px" width="60px"
	 height="60px" viewBox="0 0 60 60" enable-background="new 0 0 60 60" xml:space="preserve">
<g id="Layer_1">
	<g>
		<path fill="#010101" d="M19.707,22.293c-0.391-0.391-1.023-0.391-1.414,0c-0.391,0.391-0.391,1.023,0,1.414L23.586,29
			l-5.293,5.293c-0.391,0.391-0.391,1.023,0,1.414C18.488,35.902,18.744,36,19,36c0.256,0,0.512-0.098,0.707-0.293l6-6
			c0.391-0.391,0.391-1.023,0-1.414L19.707,22.293z"/>
		<path fill="#010101" d="M42,28H32c-0.553,0-1,0.448-1,1s0.447,1,1,1h10c0.553,0,1-0.448,1-1S42.553,28,42,28z"/>
		<path fill="#010101" d="M59,6H1C0.447,6,0,6.448,0,7v50c0,0.552,0.447,1,1,1h58c0.553,0,1-0.448,1-1V7C60,6.448,59.553,6,59,6z
			 M58,56H2V8h56V56z"/>
		<path fill="#010101" d="M7,52h46c0.553,0,1-0.448,1-1V13c0-0.552-0.447-1-1-1H7c-0.553,0-1,0.448-1,1v38C6,51.552,6.447,52,7,52z
			 M8,14h44v36H8V14z"/>
	</g>
</g>
<g id="nyt_x5F_exporter_x5F_info" display="none">
</g>
</svg>
