<?xml version="1.0" encoding="utf-8"?>
<!-- Generator: Adobe Illustrator 17.0.0, SVG Export Plug-In . SVG Version: 6.00 Build 0)  -->
<!DOCTYPE svg PUBLIC "-//W3C//DTD SVG 1.1//EN" "http://www.w3.org/Graphics/SVG/1.1/DTD/svg11.dtd">
<svg version="1.1" xmlns="http://www.w3.org/2000/svg" xmlns:xlink="http://www.w3.org/1999/xlink" x="0px" y="0px" width="60px"
	 height="60px" viewBox="0 0 60 60" enable-background="new 0 0 60 60" xml:space="preserve">
<g id="Layer_1">
	<g>
		<path fill="#010101" d="M54,8H6c-3.309,0-6,2.691-6,6v34c0,3.309,2.691,6,6,6h48c3.309,0,6-2.691,6-6V14C60,10.691,57.309,8,54,8z
			 M6,10h48c2.206,0,4,1.794,4,4v4H2v-4C2,11.794,3.794,10,6,10z M54,52H6c-2.206,0-4-1.794-4-4V20h56v28C58,50.206,56.206,52,54,52
			z"/>
		<circle fill="#010101" cx="8" cy="14" r="2"/>
		<circle fill="#010101" cx="14" cy="14" r="2"/>
		<circle fill="#010101" cx="20" cy="14" r="2"/>
		<path fill="#010101" d="M6,32h6v-6H6V32z M8,28h2v2H8V28z"/>
		<path fill="#010101" d="M16,32h6v-6h-6V32z M18,28h2v2h-2V28z"/>
		<path fill="#010101" d="M26,32h6v-6h-6V32z M28,28h2v2h-2V28z"/>
		<path fill="#010101" d="M36,32h6v-6h-6V32z M38,28h2v2h-2V28z"/>
		<path fill="#010101" d="M46,32h6v-6h-6V32z M48,28h2v2h-2V28z"/>
		<path fill="#010101" d="M6,40h6v-6H6V40z M8,36h2v2H8V36z"/>
		<path fill="#010101" d="M16,40h6v-6h-6V40z M18,36h2v2h-2V36z"/>
		<path fill="#010101" d="M26,40h6v-6h-6V40z M28,36h2v2h-2V36z"/>
		<path fill="#010101" d="M36,40h6v-6h-6V40z M38,36h2v2h-2V36z"/>
		<path fill="#010101" d="M46,40h6v-6h-6V40z M48,36h2v2h-2V36z"/>
		<path fill="#010101" d="M6,48h6v-6H6V48z M8,44h2v2H8V44z"/>
		<path fill="#010101" d="M16,48h6v-6h-6V48z M18,44h2v2h-2V44z"/>
		<path fill="#010101" d="M26,48h6v-6h-6V48z M28,44h2v2h-2V44z"/>
		<path fill="#010101" d="M36,48h6v-6h-6V48z M38,44h2v2h-2V44z"/>
		<path fill="#010101" d="M46,48h6v-6h-6V48z M48,44h2v2h-2V44z"/>
	</g>
</g>
<g id="nyt_x5F_exporter_x5F_info" display="none">
</g>
</svg>
