<?xml version="1.0" encoding="utf-8"?>
<!-- Generator: Adobe Illustrator 17.0.0, SVG Export Plug-In . SVG Version: 6.00 Build 0)  -->
<!DOCTYPE svg PUBLIC "-//W3C//DTD SVG 1.1//EN" "http://www.w3.org/Graphics/SVG/1.1/DTD/svg11.dtd">
<svg version="1.1" xmlns="http://www.w3.org/2000/svg" xmlns:xlink="http://www.w3.org/1999/xlink" x="0px" y="0px" width="60px"
	 height="60px" viewBox="0 0 60 60" enable-background="new 0 0 60 60" xml:space="preserve">
<g id="Layer_1">
	<g>
		<path fill="#010101" d="M52,0H12C8.691,0,6,2.691,6,6v21c0,0.552,0.447,1,1,1c0.553,0,1-0.448,1-1V12h48v24c0,2.206-1.794,4-4,4
			H42c-0.553,0-1,0.448-1,1s0.447,1,1,1h10c3.309,0,6-2.691,6-6V6C58,2.691,55.309,0,52,0z M8,10V6c0-2.206,1.794-4,4-4h40
			c2.206,0,4,1.794,4,4v4H8z"/>
		<circle fill="#010101" cx="14" cy="6" r="2"/>
		<circle fill="#010101" cx="20" cy="6" r="2"/>
		<circle fill="#010101" cx="26" cy="6" r="2"/>
		<circle fill="#010101" cx="6" cy="54" r="2"/>
		<path fill="#010101" d="M37,48h-6.422c-0.971-1.578-4.252-6-10.578-6h-8v-3c0-0.552-0.447-1-1-1H1c-0.553,0-1,0.448-1,1v20
			c0,0.552,0.447,1,1,1h10c0.553,0,1-0.448,1-1v-1h43c0.308,0,0.599-0.142,0.788-0.385c0.189-0.243,0.257-0.559,0.182-0.858
			C55.881,56.4,53.59,48,37,48z M10,58H2V40h8V58z M12,56V44h8c4.237,0,6.849,2.383,8.136,4H18c-0.553,0-1,0.448-1,1s0.447,1,1,1h19
			c11.023,0,15.048,3.93,16.402,6H12z"/>
	</g>
</g>
<g id="nyt_x5F_exporter_x5F_info" display="none">
</g>
</svg>
