<?xml version="1.0" encoding="utf-8"?>
<!-- Generator: Adobe Illustrator 17.0.0, SVG Export Plug-In . SVG Version: 6.00 Build 0)  -->
<!DOCTYPE svg PUBLIC "-//W3C//DTD SVG 1.1//EN" "http://www.w3.org/Graphics/SVG/1.1/DTD/svg11.dtd">
<svg version="1.1" xmlns="http://www.w3.org/2000/svg" xmlns:xlink="http://www.w3.org/1999/xlink" x="0px" y="0px" width="60px"
	 height="60px" viewBox="0 0 60 60" enable-background="new 0 0 60 60" xml:space="preserve">
<g id="Layer_1">
	<g>
		<path fill="#010101" d="M6,42h13c0.553,0,1-0.448,1-1s-0.447-1-1-1H6c-2.206,0-4-1.794-4-4V12h48v8c0,0.552,0.447,1,1,1
			c0.553,0,1-0.448,1-1V6c0-3.309-2.691-6-6-6H6C2.691,0,0,2.691,0,6v30C0,39.309,2.691,42,6,42z M6,2h40c2.206,0,4,1.794,4,4v4H2V6
			C2,3.794,3.794,2,6,2z"/>
		<circle fill="#010101" cx="8" cy="6" r="2"/>
		<circle fill="#010101" cx="14" cy="6" r="2"/>
		<circle fill="#010101" cx="20" cy="6" r="2"/>
		<path fill="#010101" d="M48.293,43.293L44,47.586V36c0-0.552-0.447-1-1-1c-0.553,0-1,0.448-1,1v11.586l-4.293-4.293
			c-0.391-0.391-1.023-0.391-1.414,0c-0.391,0.391-0.391,1.023,0,1.414l5.999,5.999c0.092,0.093,0.203,0.166,0.326,0.217
			C42.74,50.973,42.87,51,43,51c0.13,0,0.26-0.027,0.382-0.077c0.123-0.051,0.234-0.124,0.326-0.217l5.999-5.999
			c0.391-0.391,0.391-1.023,0-1.414C49.316,42.902,48.684,42.902,48.293,43.293z"/>
		<path fill="#010101" d="M43,26c-9.374,0-17,7.626-17,17s7.626,17,17,17s17-7.626,17-17S52.374,26,43,26z M43,58
			c-8.271,0-15-6.729-15-15s6.729-15,15-15s15,6.729,15,15S51.271,58,43,58z"/>
	</g>
</g>
<g id="nyt_x5F_exporter_x5F_info" display="none">
</g>
</svg>
