<?xml version="1.0" encoding="utf-8"?>
<!-- Generator: Adobe Illustrator 17.0.0, SVG Export Plug-In . SVG Version: 6.00 Build 0)  -->
<!DOCTYPE svg PUBLIC "-//W3C//DTD SVG 1.1//EN" "http://www.w3.org/Graphics/SVG/1.1/DTD/svg11.dtd">
<svg version="1.1" xmlns="http://www.w3.org/2000/svg" xmlns:xlink="http://www.w3.org/1999/xlink" x="0px" y="0px" width="60px"
	 height="60px" viewBox="0 0 60 60" enable-background="new 0 0 60 60" xml:space="preserve">
<g id="Layer_1">
	<g>
		<path fill="#010101" d="M55.708,40.294c-0.001-0.001-0.001-0.001-0.002-0.002l-9.999-9.999c-0.391-0.391-1.023-0.391-1.414,0
			l-9.999,9.999c-0.001,0.001-0.001,0.001-0.002,0.002l-3.999,3.999c-0.391,0.391-0.391,1.023,0,1.414
			c0.391,0.391,1.023,0.391,1.414,0L34,43.414V59c0,0.552,0.447,1,1,1h6h8h6c0.553,0,1-0.448,1-1V43.414l2.293,2.293
			C58.488,45.902,58.744,46,59,46c0.256,0,0.512-0.098,0.707-0.293c0.391-0.391,0.391-1.023,0-1.414L55.708,40.294z M42,58v-8h6v8
			H42z M54,58h-4v-9c0-0.552-0.447-1-1-1h-8c-0.553,0-1,0.448-1,1v9h-4V41.414l9-9l9,9V58z"/>
		<path fill="#010101" d="M6,42h13c0.553,0,1-0.448,1-1s-0.447-1-1-1H6c-2.206,0-4-1.794-4-4V12h48v11c0,0.552,0.447,1,1,1
			c0.553,0,1-0.448,1-1V6c0-3.309-2.691-6-6-6H6C2.691,0,0,2.691,0,6v30C0,39.309,2.691,42,6,42z M6,2h40c2.206,0,4,1.794,4,4v4H2V6
			C2,3.794,3.794,2,6,2z"/>
		<circle fill="#010101" cx="8" cy="6" r="2"/>
		<circle fill="#010101" cx="14" cy="6" r="2"/>
		<circle fill="#010101" cx="20" cy="6" r="2"/>
	</g>
</g>
<g id="nyt_x5F_exporter_x5F_info" display="none">
</g>
</svg>
