<?xml version="1.0" encoding="utf-8"?>
<!-- Generator: Adobe Illustrator 17.0.0, SVG Export Plug-In . SVG Version: 6.00 Build 0)  -->
<!DOCTYPE svg PUBLIC "-//W3C//DTD SVG 1.1//EN" "http://www.w3.org/Graphics/SVG/1.1/DTD/svg11.dtd">
<svg version="1.1" xmlns="http://www.w3.org/2000/svg" xmlns:xlink="http://www.w3.org/1999/xlink" x="0px" y="0px" width="60px"
	 height="60px" viewBox="0 0 60 60" enable-background="new 0 0 60 60" xml:space="preserve">
<g id="Layer_1">
	<g>
		<path fill="#010101" d="M54,8H6c-3.309,0-6,2.691-6,6v34c0,3.309,2.691,6,6,6h48c3.309,0,6-2.691,6-6V14C60,10.691,57.309,8,54,8z
			 M6,10h48c2.206,0,4,1.794,4,4v4H2v-4C2,11.794,3.794,10,6,10z M54,52H6c-2.206,0-4-1.794-4-4V20h56v28C58,50.206,56.206,52,54,52
			z"/>
		<circle fill="#010101" cx="8" cy="14" r="2"/>
		<circle fill="#010101" cx="14" cy="14" r="2"/>
		<circle fill="#010101" cx="20" cy="14" r="2"/>
		<path fill="#010101" d="M13.707,28.293c-0.391-0.391-1.023-0.391-1.414,0c-0.391,0.391-0.391,1.023,0,1.414L17.586,35
			l-5.293,5.293c-0.391,0.391-0.391,1.023,0,1.414C12.488,41.902,12.744,42,13,42s0.512-0.098,0.707-0.293l6-6
			c0.391-0.391,0.391-1.023,0-1.414L13.707,28.293z"/>
		<path fill="#010101" d="M39,34H27c-0.552,0-1,0.448-1,1s0.448,1,1,1h12c0.552,0,1-0.448,1-1S39.552,34,39,34z"/>
	</g>
</g>
<g id="nyt_x5F_exporter_x5F_info" display="none">
</g>
</svg>
