<?xml version="1.0" encoding="utf-8"?>
<!-- Generator: Adobe Illustrator 17.0.0, SVG Export Plug-In . SVG Version: 6.00 Build 0)  -->
<!DOCTYPE svg PUBLIC "-//W3C//DTD SVG 1.1//EN" "http://www.w3.org/Graphics/SVG/1.1/DTD/svg11.dtd">
<svg version="1.1" id="Layer_1" xmlns="http://www.w3.org/2000/svg" xmlns:xlink="http://www.w3.org/1999/xlink" x="0px" y="0px"
	 width="60px" height="60px" viewBox="0 0 60 60" enable-background="new 0 0 60 60" xml:space="preserve">
<g>
	<path fill="#231F20" d="M8.565,40H4.782C3.248,40,2,38.654,2,37V11c0-1.654,1.346-3,3-3h38c1.654,0,3,1.346,3,3v4.174
		c0,0.552,0.447,1,1,1c0.553,0,1-0.448,1-1V11c0-2.757-2.243-5-5-5H5c-2.757,0-5,2.243-5,5v26c0,2.757,2.146,5,4.782,5h3.783
		c0.553,0,1-0.448,1-1S9.118,40,8.565,40z"/>
	<path fill="#231F20" d="M9,34H8V14h32v1c0,0.552,0.447,1,1,1c0.553,0,1-0.448,1-1v-2c0-0.552-0.447-1-1-1H7c-0.553,0-1,0.448-1,1
		v22c0,0.552,0.447,1,1,1h2c0.553,0,1-0.448,1-1S9.553,34,9,34z"/>
	<path fill="#231F20" d="M55,18H17c-2.757,0-5,2.243-5,5v26c0,2.757,2.243,5,5,5h38c2.757,0,5-2.243,5-5V23
		C60,20.243,57.757,18,55,18z M58,49c0,1.654-1.346,3-3,3H17c-1.654,0-3-1.346-3-3V23c0-1.654,1.346-3,3-3h38c1.654,0,3,1.346,3,3
		V49z"/>
	<path fill="#231F20" d="M53,24H19c-0.553,0-1,0.448-1,1v22c0,0.552,0.447,1,1,1h34c0.553,0,1-0.448,1-1V25
		C54,24.448,53.553,24,53,24z M52,46H20V26h32V46z"/>
</g>
</svg>
