<?xml version="1.0" encoding="utf-8"?>
<!-- Generator: Adobe Illustrator 17.0.0, SVG Export Plug-In . SVG Version: 6.00 Build 0)  -->
<!DOCTYPE svg PUBLIC "-//W3C//DTD SVG 1.1//EN" "http://www.w3.org/Graphics/SVG/1.1/DTD/svg11.dtd">
<svg version="1.1" id="Layer_1" xmlns="http://www.w3.org/2000/svg" xmlns:xlink="http://www.w3.org/1999/xlink" x="0px" y="0px"
	 width="60px" height="60px" viewBox="0 0 60 60" enable-background="new 0 0 60 60" xml:space="preserve">
<g>
	<path fill="#231F20" d="M57,14.044H18.391V13c0-1.654-1.346-3-3-3H9.304c-1.654,0-3,1.346-3,3v1.044H3c-1.654,0-3,1.346-3,3V49
		c0,1.654,1.346,3,3,3h54c1.654,0,3-1.346,3-3V17.044C60,15.389,58.654,14.044,57,14.044z M8.304,13c0-0.551,0.449-1,1-1h6.087
		c0.551,0,1,0.449,1,1v1.044H8.304V13z M58,49c0,0.551-0.449,1-1,1H3c-0.551,0-1-0.449-1-1v-9h17.913c0.552,0,1-0.448,1-1
		c0-0.552-0.448-1-1-1H2v-4h17.913c0.552,0,1-0.448,1-1c0-0.552-0.448-1-1-1H2v-4h17.913c0.552,0,1-0.448,1-1c0-0.552-0.448-1-1-1H2
		v-8.956c0-0.551,0.449-1,1-1h54c0.551,0,1,0.449,1,1V49z"/>
	<path fill="#231F20" d="M42,18c-7.72,0-14,6.28-14,14c0,7.72,6.28,14,14,14s14-6.28,14-14C56,24.28,49.72,18,42,18z M42,44
		c-6.617,0-12-5.383-12-12s5.383-12,12-12s12,5.383,12,12S48.617,44,42,44z"/>
	<path fill="#231F20" d="M47,26H37c-0.552,0-1,0.448-1,1v10c0,0.552,0.448,1,1,1h10c0.552,0,1-0.448,1-1V27
		C48,26.448,47.552,26,47,26z M46,36h-8v-8h8V36z"/>
</g>
</svg>
