<?xml version="1.0" encoding="utf-8"?>
<!-- Generator: Adobe Illustrator 17.0.0, SVG Export Plug-In . SVG Version: 6.00 Build 0)  -->
<!DOCTYPE svg PUBLIC "-//W3C//DTD SVG 1.1//EN" "http://www.w3.org/Graphics/SVG/1.1/DTD/svg11.dtd">
<svg version="1.1" id="Layer_1" xmlns="http://www.w3.org/2000/svg" xmlns:xlink="http://www.w3.org/1999/xlink" x="0px" y="0px"
	 width="60px" height="60px" viewBox="0 0 60 60" enable-background="new 0 0 60 60" xml:space="preserve">
<g>
	<path fill="#231F20" d="M41,0H19c-4.962,0-9,4.038-9,9v42c0,4.962,4.038,9,9,9h22c4.962,0,9-4.038,9-9V9C50,4.038,45.962,0,41,0z
		 M48,51c0,3.86-3.14,7-7,7H19c-3.86,0-7-3.14-7-7V9c0-3.86,3.14-7,7-7h22c3.86,0,7,3.14,7,7V51z"/>
	<path fill="#231F20" d="M30,22c3.309,0,6-2.691,6-6s-2.691-6-6-6s-6,2.691-6,6S26.691,22,30,22z M30,12c2.206,0,4,1.794,4,4
		c0,2.206-1.794,4-4,4c-2.206,0-4-1.794-4-4C26,13.794,27.794,12,30,12z"/>
	<path fill="#231F20" d="M38.739,24H21.087c-0.552,0-1,0.448-1,1c0,5.745,0.469,12.058,5.913,14.772V49c0,0.552,0.448,1,1,1h6
		c0.552,0,1-0.448,1-1v-9.237c5.284-2.727,5.739-9.029,5.739-14.763C39.739,24.448,39.292,24,38.739,24z M32.601,38.215
		C32.236,38.374,32,38.733,32,39.131V48h-4v-8.869c0-0.402-0.241-0.765-0.612-0.921c-4.194-1.767-5.204-5.983-5.294-12.21h15.638
		C37.641,32.069,36.646,36.451,32.601,38.215z"/>
</g>
</svg>
