<?xml version="1.0" encoding="utf-8"?>
<!-- Generator: Adobe Illustrator 17.0.0, SVG Export Plug-In . SVG Version: 6.00 Build 0)  -->
<!DOCTYPE svg PUBLIC "-//W3C//DTD SVG 1.1//EN" "http://www.w3.org/Graphics/SVG/1.1/DTD/svg11.dtd">
<svg version="1.1" id="Layer_1" xmlns="http://www.w3.org/2000/svg" xmlns:xlink="http://www.w3.org/1999/xlink" x="0px" y="0px"
	 width="60px" height="60px" viewBox="0 0 60 60" enable-background="new 0 0 60 60" xml:space="preserve">
<g>
	<path fill="#231F20" d="M57,14h-2v-3c0-1.654-1.346-3-3-3h-6c-1.654,0-3,1.346-3,3v3H3c-1.654,0-3,1.346-3,3v34
		c0,1.654,1.346,3,3,3h54c1.654,0,3-1.346,3-3V17C60,15.346,58.654,14,57,14z M45,11c0-0.551,0.448-1,1-1h6c0.552,0,1,0.449,1,1v3
		h-8V11z M3,16h54c0.552,0,1,0.449,1,1v13H39.727c-2.181-3.022-5.723-5-9.727-5s-7.546,1.978-9.727,5H2V17C2,16.449,2.448,16,3,16z
		 M20,37c0-5.514,4.486-10,10-10c5.514,0,10,4.486,10,10c0,5.514-4.486,10-10,10C24.486,47,20,42.514,20,37z M19.105,42H2V32h17.105
		C18.403,33.524,18,35.214,18,37S18.403,40.476,19.105,42z M40.895,32H58v10H40.895C41.597,40.476,42,38.786,42,37
		S41.597,33.524,40.895,32z M57,52H3c-0.552,0-1-0.449-1-1v-7h18.273c2.181,3.022,5.723,5,9.727,5s7.546-1.978,9.727-5H58v7
		C58,51.551,57.552,52,57,52z"/>
	<path fill="#231F20" d="M7,26h8c0.553,0,1-0.448,1-1v-4c0-0.552-0.447-1-1-1H7c-0.553,0-1,0.448-1,1v4C6,25.552,6.447,26,7,26z
		 M8,22h6v2H8V22z"/>
	<path fill="#231F20" d="M30,43c3.309,0,6-2.691,6-6s-2.691-6-6-6s-6,2.691-6,6S26.691,43,30,43z M30,33c2.206,0,4,1.794,4,4
		c0,2.206-1.794,4-4,4c-2.206,0-4-1.794-4-4C26,34.794,27.794,33,30,33z"/>
	<circle fill="#231F20" cx="50.174" cy="23" r="2"/>
</g>
</svg>
