<?xml version="1.0" encoding="utf-8"?>
<!-- Generator: Adobe Illustrator 17.0.0, SVG Export Plug-In . SVG Version: 6.00 Build 0)  -->
<!DOCTYPE svg PUBLIC "-//W3C//DTD SVG 1.1//EN" "http://www.w3.org/Graphics/SVG/1.1/DTD/svg11.dtd">
<svg version="1.1" id="Layer_1" xmlns="http://www.w3.org/2000/svg" xmlns:xlink="http://www.w3.org/1999/xlink" x="0px" y="0px"
	 width="60px" height="60px" viewBox="0 0 60 60" enable-background="new 0 0 60 60" xml:space="preserve">
<g>
	<path fill="#231F20" d="M53.903,16h-4.329l-2.352-4.033c-0.951-1.426-2.325-2.709-4.082-3.813L42.897,8H29.712l-0.244,0.153
		c-1.729,1.086-3.086,2.344-4.035,3.742L21.568,16h-6.98l0.021-0.956C14.609,13.212,12.999,11,11,11H9
		c-1.816,0-3.886,2.154-3.885,3.985L5.052,16.07C1.837,16.41,0,18.482,0,21.908v26.198C0,51.775,2.184,53.868,6.184,54h47.649
		l0.017,0c3.966-0.132,6.15-2.225,6.15-5.893V21C60,17.542,58.12,16,53.903,16z M9,13h2c0.761,0,1.609,1.218,1.609,2.022L12.588,16
		H7.059l0.055-0.956C7.114,14.241,8.26,13,9,13z M58,48.106c0,2.556-1.335,3.794-4.201,3.894L6.217,52
		C3.34,51.905,2,50.668,2,48.106V21.908C2,19.278,3.309,18,6,18h16.432l4.513-4.793l0.104-0.131c0.741-1.11,1.858-2.17,3.244-3.076
		h12.023c1.385,0.907,2.501,1.964,3.211,3.025L48.425,18h5.478C57.698,18,58,19.3,58,21V48.106z"/>
	<path fill="#231F20" d="M36,19c-8.271,0-15,6.729-15,15s6.729,15,15,15s15-6.729,15-15S44.271,19,36,19z M36,47
		c-7.169,0-13-5.831-13-13c0-7.168,5.831-13,13-13s13,5.832,13,13C49,41.169,43.169,47,36,47z"/>
	<path fill="#231F20" d="M36,25c-4.962,0-9,4.038-9,9s4.038,9,9,9s9-4.038,9-9S40.962,25,36,25z M36,41c-3.86,0-7-3.14-7-7
		c0-3.86,3.14-7,7-7s7,3.14,7,7C43,37.86,39.86,41,36,41z"/>
	<path fill="#231F20" d="M9,22c-2.757,0-5,2.243-5,5c0,2.757,2.243,5,5,5s5-2.243,5-5C14,24.243,11.757,22,9,22z M9,30
		c-1.654,0-3-1.346-3-3s1.346-3,3-3s3,1.346,3,3S10.654,30,9,30z"/>
</g>
</svg>
