<?xml version="1.0" encoding="utf-8"?>
<!-- Generator: Adobe Illustrator 17.0.0, SVG Export Plug-In . SVG Version: 6.00 Build 0)  -->
<!DOCTYPE svg PUBLIC "-//W3C//DTD SVG 1.1//EN" "http://www.w3.org/Graphics/SVG/1.1/DTD/svg11.dtd">
<svg version="1.1" id="Layer_1" xmlns="http://www.w3.org/2000/svg" xmlns:xlink="http://www.w3.org/1999/xlink" x="0px" y="0px"
	 width="60px" height="60px" viewBox="0 0 60 60" enable-background="new 0 0 60 60" xml:space="preserve">
<g>
	<path fill="#231F20" d="M11,37c-3.309,0-6,2.691-6,6s2.691,6,6,6s6-2.691,6-6S14.309,37,11,37z M11,47c-2.206,0-4-1.794-4-4
		c0-2.206,1.794-4,4-4s4,1.794,4,4C15,45.206,13.206,47,11,47z"/>
	<path fill="#231F20" d="M25.892,47.25c0.108,0.037,0.218,0.055,0.326,0.055c0.415,0,0.803-0.26,0.945-0.674L29.452,40h3.617
		l2.29,6.631c0.18,0.521,0.753,0.796,1.271,0.619c0.522-0.18,0.8-0.75,0.619-1.272l-2.523-7.304C34.588,38.271,34.209,38,33.782,38
		h-5.043c-0.427,0-0.806,0.271-0.945,0.674l-2.521,7.304C25.093,46.5,25.369,47.069,25.892,47.25z"/>
	<rect x="20" y="8.479" fill="#231F20" width="2" height="10.087"/>
	<rect x="26" y="8.479" fill="#231F20" width="2" height="10.087"/>
	<rect x="34" y="8.479" fill="#231F20" width="2" height="10.087"/>
	<rect x="40" y="8.479" fill="#231F20" width="2" height="10.087"/>
	<path fill="#231F20" d="M45,47h10v-8H45V47z M47,41h6v4h-6V41z"/>
	<path fill="#231F20" d="M51.435,32H42v-4h-2v-4.002L41.463,24l0.113-0.026c3.195-0.749,5.708-3.283,6.4-6.456L48,4H14v13.5
		l0.073,0.181c1.316,3.241,3.885,5.594,6.873,6.293L22,23.975V28h-2v4H8c-4.486,0-8,3.953-8,9v4.044C0,49.731,4.29,54,9,54h11v2h22
		v-2h10c4.486,0,8-3.934,8-8.956V41C60,36.576,56.796,32,51.435,32z M16,17.104V6h30v11.192c-0.546,2.307-2.444,4.219-4.773,4.808
		H21.294C19.035,21.429,17.073,19.613,16,17.104z M24,23.978l14,0.018V28H24V23.978z M9,52c-3.598,0-7-3.381-7-6.956V41
		c0-3.441,2.244-7,6-7h12v18H9z M40,54H22V30h18V54z M58,45.044C58,48.463,55.756,52,52,52H42V34h9.435C55.544,34,58,37.559,58,41
		V45.044z"/>
</g>
</svg>
