<?xml version="1.0" encoding="utf-8"?>
<!-- Generator: Adobe Illustrator 17.0.0, SVG Export Plug-In . SVG Version: 6.00 Build 0)  -->
<!DOCTYPE svg PUBLIC "-//W3C//DTD SVG 1.1//EN" "http://www.w3.org/Graphics/SVG/1.1/DTD/svg11.dtd">
<svg version="1.1" id="Layer_1" xmlns="http://www.w3.org/2000/svg" xmlns:xlink="http://www.w3.org/1999/xlink" x="0px" y="0px"
	 width="60px" height="60px" viewBox="0 0 60 60" enable-background="new 0 0 60 60" xml:space="preserve">
<g>
	<path fill="#231F20" d="M0,56h60V6H0V56z M2,8h56v46H2V8z"/>
	<polygon fill="#231F20" points="44,12 54,12 54,21 56,21 56,10 44,10 	"/>
	<polygon fill="#231F20" points="6,12 16,12 16,10 4,10 4,21 6,21 	"/>
	<polygon fill="#231F20" points="54,50 44,50 44,52 56,52 56,41 54,41 	"/>
	<polygon fill="#231F20" points="6,41 4,41 4,52 16,52 16,50 6,50 	"/>
	<path fill="#231F20" d="M49.66,31.621l0.591-0.665l-0.591-0.665C49.236,29.815,39.17,18.609,30,18.609
		c-9.17,0-19.236,11.206-19.66,11.683l-0.591,0.665l0.591,0.665C10.764,32.098,20.83,43.304,30,43.304
		C39.17,43.304,49.236,32.098,49.66,31.621z M30,41.304c-7.069,0-15.254-7.965-17.544-10.348C14.746,28.574,22.931,20.609,30,20.609
		c7.069,0,15.254,7.965,17.544,10.348C45.254,33.339,37.069,41.304,30,41.304z"/>
	<path fill="#231F20" d="M30,24c-3.859,0-7,3.14-7,7c0,3.86,3.141,7,7,7c3.859,0,7-3.14,7-7C37,27.14,33.859,24,30,24z M30,36
		c-2.757,0-5-2.243-5-5c0-2.757,2.243-5,5-5c2.757,0,5,2.243,5,5C35,33.757,32.757,36,30,36z"/>
	<circle fill="#231F20" cx="30" cy="31" r="2"/>
</g>
</svg>
