<?xml version="1.0" encoding="utf-8"?>
<!-- Generator: Adobe Illustrator 17.0.0, SVG Export Plug-In . SVG Version: 6.00 Build 0)  -->
<!DOCTYPE svg PUBLIC "-//W3C//DTD SVG 1.1//EN" "http://www.w3.org/Graphics/SVG/1.1/DTD/svg11.dtd">
<svg version="1.1" id="Layer_1" xmlns="http://www.w3.org/2000/svg" xmlns:xlink="http://www.w3.org/1999/xlink" x="0px" y="0px"
	 width="60px" height="60px" viewBox="0 0 60 60" enable-background="new 0 0 60 60" xml:space="preserve">
<g>
	<path fill="#231F20" d="M59,8.13H1c-0.553,0-1,0.448-1,1V53c0,0.552,0.447,1,1,1h58c0.553,0,1-0.448,1-1V9.13
		C60,8.578,59.553,8.13,59,8.13z M58,52H2V10.13h56V52z"/>
	<path fill="#231F20" d="M7,48h46c0.553,0,1-0.448,1-1V15c0-0.552-0.447-1-1-1H7c-0.553,0-1,0.448-1,1v32C6,47.552,6.447,48,7,48z
		 M8,16h44v30H8V16z"/>
	<path fill="#231F20" d="M11,35.87c-0.553,0-1,0.448-1,1v5.043c0,0.552,0.447,1,1,1c0.553,0,1-0.448,1-1V36.87
		C12,36.317,11.553,35.87,11,35.87z"/>
	<path fill="#231F20" d="M17,28.304c-0.553,0-1,0.448-1,1v12.609c0,0.552,0.447,1,1,1c0.553,0,1-0.448,1-1V29.304
		C18,28.752,17.553,28.304,17,28.304z"/>
	<path fill="#231F20" d="M23,33.348c-0.553,0-1,0.448-1,1v7.565c0,0.552,0.447,1,1,1c0.553,0,1-0.448,1-1v-7.565
		C24,33.795,23.553,33.348,23,33.348z"/>
	<path fill="#231F20" d="M29,35.87c-0.553,0-1,0.448-1,1v5.043c0,0.552,0.447,1,1,1c0.553,0,1-0.448,1-1V36.87
		C30,36.317,29.553,35.87,29,35.87z"/>
	<path fill="#231F20" d="M47,23.261c-0.553,0-1,0.448-1,1v17.652c0,0.552,0.447,1,1,1c0.553,0,1-0.448,1-1V24.261
		C48,23.708,47.553,23.261,47,23.261z"/>
	<path fill="#231F20" d="M41,29.565c-0.553,0-1,0.448-1,1v11.348c0,0.552,0.447,1,1,1c0.553,0,1-0.448,1-1V30.565
		C42,30.013,41.553,29.565,41,29.565z"/>
	<path fill="#231F20" d="M35,18.304c-0.553,0-1,0.448-1,1V42c0,0.552,0.447,1,1,1c0.553,0,1-0.448,1-1V19.304
		C36,18.752,35.553,18.304,35,18.304z"/>
</g>
</svg>
