<?xml version="1.0" encoding="utf-8"?>
<!-- Generator: Adobe Illustrator 17.0.0, SVG Export Plug-In . SVG Version: 6.00 Build 0)  -->
<!DOCTYPE svg PUBLIC "-//W3C//DTD SVG 1.1//EN" "http://www.w3.org/Graphics/SVG/1.1/DTD/svg11.dtd">
<svg version="1.1" id="Layer_1" xmlns="http://www.w3.org/2000/svg" xmlns:xlink="http://www.w3.org/1999/xlink" x="0px" y="0px"
	 width="60px" height="60px" viewBox="0 0 60 60" enable-background="new 0 0 60 60" xml:space="preserve">
<g>
	<path fill="#231F20" d="M30,0C13.458,0,0,13.458,0,30s13.458,30,30,30s30-13.458,30-30S46.542,0,30,0z M30,58
		C14.561,58,2,45.44,2,30S14.561,2,30,2c15.44,0,28,12.56,28,28S45.44,58,30,58z"/>
	<path fill="#231F20" d="M30,7.565C17.629,7.565,7.565,17.629,7.565,30c0,3.514,0.814,6.842,2.261,9.806V40h0.1
		C13.609,47.364,21.221,52.435,30,52.435c12.371,0,22.435-10.064,22.435-22.435S42.371,7.565,30,7.565z M47.802,20H26.738
		l5.913-10.242C39.158,10.606,44.708,14.515,47.802,20z M34.418,38h-8.835l-4.619-7.999L25.583,22h8.834l4.619,8L34.418,38z
		 M30,9.565c0.148,0,0.292,0.019,0.44,0.022L19.809,28L13.8,17.594C17.539,12.724,23.401,9.565,30,9.565z M12.548,19.425L23.273,38
		H11.2c-1.05-2.459-1.634-5.162-1.634-8C9.565,26.127,10.668,22.515,12.548,19.425z M12.198,40h21.065L27.35,50.243
		C20.843,49.394,15.292,45.486,12.198,40z M30,50.435c-0.148,0-0.291-0.019-0.439-0.022l10.63-18.412l6.008,10.407
		C42.461,47.277,36.599,50.435,30,50.435z M47.452,40.576L36.727,22H48.8c1.05,2.459,1.634,5.162,1.634,8
		C50.435,33.874,49.331,37.486,47.452,40.576z"/>
</g>
</svg>
