<?xml version="1.0" encoding="utf-8"?>
<!-- Generator: Adobe Illustrator 17.0.0, SVG Export Plug-In . SVG Version: 6.00 Build 0)  -->
<!DOCTYPE svg PUBLIC "-//W3C//DTD SVG 1.1//EN" "http://www.w3.org/Graphics/SVG/1.1/DTD/svg11.dtd">
<svg version="1.1" id="Layer_1" xmlns="http://www.w3.org/2000/svg" xmlns:xlink="http://www.w3.org/1999/xlink" x="0px" y="0px"
	 width="60px" height="60px" viewBox="0 0 60 60" enable-background="new 0 0 60 60" xml:space="preserve">
<g>
	<path fill="#231F20" d="M15.913,18h26V0h-26V18z M17.913,2h22v14h-22V2z"/>
	<path fill="#231F20" d="M15.913,38h26V20h-26V38z M17.913,22h22v14h-22V22z"/>
	<path fill="#231F20" d="M15.913,58h26V40h-26V58z M17.913,42h22v14h-22V42z"/>
	<rect x="4" fill="#231F20" width="2" height="60"/>
	<rect x="51.913" fill="#231F20" width="2" height="60"/>
	<path fill="#231F20" d="M43.913,57h6v-6h-6V57z M45.913,53h2v2h-2V53z"/>
	<path fill="#231F20" d="M43.913,47h6v-6h-6V47z M45.913,43h2v2h-2V43z"/>
	<path fill="#231F20" d="M43.913,37h6v-6h-6V37z M45.913,33h2v2h-2V33z"/>
	<path fill="#231F20" d="M43.913,27h6v-6h-6V27z M45.913,23h2v2h-2V23z"/>
	<path fill="#231F20" d="M43.913,17h6v-6h-6V17z M45.913,13h2v2h-2V13z"/>
	<path fill="#231F20" d="M43.913,7h6V1h-6V7z M45.913,3h2v2h-2V3z"/>
	<path fill="#231F20" d="M7.913,57h6v-6h-6V57z M9.913,53h2v2h-2V53z"/>
	<path fill="#231F20" d="M7.913,47h6v-6h-6V47z M9.913,43h2v2h-2V43z"/>
	<path fill="#231F20" d="M7.913,37h6v-6h-6V37z M9.913,33h2v2h-2V33z"/>
	<path fill="#231F20" d="M7.913,27h6v-6h-6V27z M9.913,23h2v2h-2V23z"/>
	<path fill="#231F20" d="M7.913,17h6v-6h-6V17z M9.913,13h2v2h-2V13z"/>
	<path fill="#231F20" d="M7.913,7h6V1h-6V7z M9.913,3h2v2h-2V3z"/>
</g>
</svg>
