<?xml version="1.0" encoding="utf-8"?>
<!-- Generator: Adobe Illustrator 17.0.0, SVG Export Plug-In . SVG Version: 6.00 Build 0)  -->
<!DOCTYPE svg PUBLIC "-//W3C//DTD SVG 1.1//EN" "http://www.w3.org/Graphics/SVG/1.1/DTD/svg11.dtd">
<svg version="1.1" id="Layer_1" xmlns="http://www.w3.org/2000/svg" xmlns:xlink="http://www.w3.org/1999/xlink" x="0px" y="0px"
	 width="60px" height="60px" viewBox="0 0 60 60" enable-background="new 0 0 60 60" xml:space="preserve">
<g>
	<polygon fill="#231F20" points="56,58 12,58 12,60 58,60 58,14 56,14 	"/>
	<polygon fill="#231F20" points="54,8.044 52,8.044 52,54 6.044,54 6.044,56 54,56 	"/>
	<path fill="#231F20" d="M50,2H0v50h50V2z M48,4v36h-4.633L35.98,20.301c-0.132-0.352-0.449-0.6-0.822-0.643
		c-0.372-0.043-0.738,0.127-0.946,0.439l-9.344,14.016l-5.447-6.537c-0.207-0.248-0.519-0.384-0.845-0.357
		c-0.323,0.025-0.614,0.205-0.78,0.482L10.416,40H2V4H48z M41.231,40H12.749l6.037-10.061l5.403,6.484
		c0.202,0.242,0.501,0.368,0.821,0.358c0.315-0.017,0.604-0.181,0.779-0.444l9.004-13.506L41.231,40z M2,50v-8h46v8H2z"/>
	<path fill="#231F20" d="M14.87,19.13c2.637,0,4.783-2.146,4.783-4.783c0-2.637-2.146-4.782-4.783-4.782s-4.783,2.146-4.783,4.782
		C10.087,16.985,12.232,19.13,14.87,19.13z M14.87,11.565c1.534,0,2.783,1.248,2.783,2.782c0,1.534-1.248,2.783-2.783,2.783
		c-1.534,0-2.783-1.249-2.783-2.783C12.087,12.814,13.335,11.565,14.87,11.565z"/>
</g>
</svg>
