<?xml version="1.0" encoding="utf-8"?>
<!-- Generator: Adobe Illustrator 17.0.0, SVG Export Plug-In . SVG Version: 6.00 Build 0)  -->
<!DOCTYPE svg PUBLIC "-//W3C//DTD SVG 1.1//EN" "http://www.w3.org/Graphics/SVG/1.1/DTD/svg11.dtd">
<svg version="1.1" id="Layer_1" xmlns="http://www.w3.org/2000/svg" xmlns:xlink="http://www.w3.org/1999/xlink" x="0px" y="0px"
	 width="60px" height="60px" viewBox="0 0 60 60" enable-background="new 0 0 60 60" xml:space="preserve">
<g>
	<path fill="#231F20" d="M56,9c0-5.215-3.364-9-8-9H13C8.037,0,4,4.038,4,9v21.665l-4,5.304V45c0,2.664,2.337,5,5,5h5.783
		c-1.138,2.736-2.854,5.7-5.447,8.293L3.63,60h53.088l-2.121-1.768c-2.731-2.276-4.481-5.327-5.605-8.232l6.05-0.001
		C57.729,49.887,60,47.598,60,45v-9.031l-4-5.304V9z M54,9v21H34v-7.061c2.902-1.468,4.9-4.471,4.9-7.939
		c0-3.468-1.999-6.471-4.9-7.939V2h14C51.532,2,54,4.878,54,9z M30,6.1c-0.688,0-1.356,0.086-2,0.235V2h4v4.335
		C31.356,6.186,30.688,6.1,30,6.1z M30,7.9c3.915,0,7.1,3.185,7.1,7.1s-3.185,7.1-7.1,7.1s-7.1-3.185-7.1-7.1S26.085,7.9,30,7.9z
		 M30,23.9c0.688,0,1.356-0.086,2-0.235V30h-4v-6.335C28.644,23.814,29.312,23.9,30,23.9z M13,2h13v5.061
		c-2.902,1.468-4.9,4.471-4.9,7.939c0,3.468,1.999,6.471,4.9,7.939V30H6V9C6,5.206,9.206,2,13,2z M45.066,42
		c0.19,2.1,0.918,7.221,3.574,12H11.066c2.855-5.027,3.648-9.962,3.859-12H45.066z M8.31,58c0.552-0.662,1.051-1.337,1.516-2.016V56
		h40.059c0.482,0.688,1.006,1.36,1.588,2H8.31z M55,48h-6.699c-0.772-2.532-1.091-4.761-1.219-6H56v-2H4v2h8.906
		c-0.146,1.225-0.508,3.424-1.372,6H5c-1.542,0-3-1.458-3-3v-7h56v7C58,46.504,56.55,47.935,55,48z M57.518,36H2.482l3.016-4h49.003
		L57.518,36z"/>
	<circle fill="#231F20" cx="14" cy="23" r="2"/>
	<path fill="#231F20" d="M50,6h-8v8h8V6z M48,12h-4V8h4V12z"/>
</g>
</svg>
