<?xml version="1.0" encoding="utf-8"?>
<!-- Generator: Adobe Illustrator 17.0.0, SVG Export Plug-In . SVG Version: 6.00 Build 0)  -->
<!DOCTYPE svg PUBLIC "-//W3C//DTD SVG 1.1//EN" "http://www.w3.org/Graphics/SVG/1.1/DTD/svg11.dtd">
<svg version="1.1" id="Layer_1" xmlns="http://www.w3.org/2000/svg" xmlns:xlink="http://www.w3.org/1999/xlink" x="0px" y="0px"
	 width="60px" height="60px" viewBox="0 0 60 60" enable-background="new 0 0 60 60" xml:space="preserve">
<g>
	<path fill="#231F20" d="M30,22c-4.411,0-8,3.589-8,8c0,4.411,3.589,8,8,8c4.411,0,8-3.589,8-8C38,25.589,34.411,22,30,22z M30,36
		c-3.309,0-6-2.691-6-6s2.691-6,6-6s6,2.691,6,6S33.309,36,30,36z"/>
	<path fill="#231F20" d="M48,18h-7.579l-5.58-5.7c-0.188-0.192-0.445-0.3-0.714-0.3h-8.253c-0.269,0-0.526,0.108-0.714,0.3
		l-5.58,5.7H12c-2.206,0-4,1.794-4,4v18c0,2.206,1.794,4,4,4h36c2.206,0,4-1.794,4-4V22C52,19.794,50.206,18,48,18z M50,40
		c0,1.103-0.897,2-2,2H12c-1.103,0-2-0.897-2-2V22c0-1.103,0.897-2,2-2h8c0.002,0,0.003-0.001,0.005-0.001
		c0.13-0.001,0.261-0.026,0.383-0.077c0.122-0.051,0.23-0.126,0.322-0.219c0.001-0.001,0.004-0.002,0.005-0.003l5.579-5.7h7.412
		l5.579,5.7c0.001,0.001,0.003,0.002,0.005,0.003c0.092,0.093,0.202,0.168,0.325,0.219C39.738,19.974,39.869,20,40,20h8
		c1.103,0,2,0.897,2,2V40z"/>
	<circle fill="#231F20" cx="45.13" cy="25" r="1"/>
	<path fill="#231F20" d="M51,0H9C4.038,0,0,4.038,0,9v42c0,4.962,4.038,9,9,9h42c4.962,0,9-4.038,9-9V9C60,4.038,55.962,0,51,0z
		 M58,51c0,3.86-3.14,7-7,7H9c-3.86,0-7-3.14-7-7V9c0-3.86,3.14-7,7-7h42c3.86,0,7,3.14,7,7V51z"/>
</g>
</svg>
