<?xml version="1.0" encoding="utf-8"?>
<!-- Generator: Adobe Illustrator 17.0.0, SVG Export Plug-In . SVG Version: 6.00 Build 0)  -->
<!DOCTYPE svg PUBLIC "-//W3C//DTD SVG 1.1//EN" "http://www.w3.org/Graphics/SVG/1.1/DTD/svg11.dtd">
<svg version="1.1" id="Layer_1" xmlns="http://www.w3.org/2000/svg" xmlns:xlink="http://www.w3.org/1999/xlink" x="0px" y="0px"
	 width="60px" height="60px" viewBox="0 0 60 60" enable-background="new 0 0 60 60" xml:space="preserve">
<g>
	<path fill="#231F20" d="M30,23c-3.86,0-7,3.14-7,7c0,3.86,3.14,7,7,7s7-3.14,7-7C37,26.14,33.86,23,30,23z M30,35
		c-2.757,0-5-2.243-5-5c0-2.757,2.243-5,5-5s5,2.243,5,5C35,32.757,32.757,35,30,35z"/>
	<path fill="#231F20" d="M46,20h-6.661l-4.948-3.794C34.217,16.073,34.003,16,33.783,16h-7.565c-0.22,0-0.434,0.073-0.608,0.206
		L20.661,20H14c-2.206,0-4,1.794-4,4v14c0,2.206,1.794,4,4,4h32c2.206,0,4-1.794,4-4V24C50,21.794,48.206,20,46,20z M48,38
		c0,1.103-0.897,2-2,2H14c-1.103,0-2-0.897-2-2V24c0-1.103,0.897-2,2-2h7.174c0.386,0,0.711-0.226,0.878-0.546L26.557,18h6.887
		l4.505,3.454C38.115,21.774,38.44,22,38.826,22H46c1.103,0,2,0.897,2,2V38z"/>
	<circle fill="#231F20" cx="43.87" cy="24.956" r="1"/>
	<path fill="#231F20" d="M30,0C13.458,0,0,13.458,0,30s13.458,30,30,30s30-13.458,30-30S46.542,0,30,0z M30,58
		C14.56,58,2,45.44,2,30S14.56,2,30,2s28,12.56,28,28S45.44,58,30,58z"/>
</g>
</svg>
