<?xml version="1.0" encoding="utf-8"?>
<!-- Generator: Adobe Illustrator 17.0.0, SVG Export Plug-In . SVG Version: 6.00 Build 0)  -->
<!DOCTYPE svg PUBLIC "-//W3C//DTD SVG 1.1//EN" "http://www.w3.org/Graphics/SVG/1.1/DTD/svg11.dtd">
<svg version="1.1" id="Layer_1" xmlns="http://www.w3.org/2000/svg" xmlns:xlink="http://www.w3.org/1999/xlink" x="0px" y="0px"
	 width="60px" height="60px" viewBox="0 0 60 60" enable-background="new 0 0 60 60" xml:space="preserve">
<g>
	<path fill="#231F20" d="M37,46H9c-0.552,0-1,0.448-1,1v4c0,0.552,0.448,1,1,1h28c0.552,0,1-0.448,1-1v-4C38,46.448,37.552,46,37,46
		z M36,50H10v-2h26V50z"/>
	<path fill="#231F20" d="M43.87,44.13c-1.247,0-2.261,1.014-2.261,2.261c0,1.247,1.014,2.261,2.261,2.261s2.261-1.014,2.261-2.261
		C46.13,45.145,45.116,44.13,43.87,44.13z M43.609,46.391c0-0.144,0.117-0.261,0.261-0.261s0.261,0.117,0.261,0.261
		C44.13,46.679,43.609,46.679,43.609,46.391z"/>
	<path fill="#231F20" d="M51.435,44.13c-1.247,0-2.261,1.014-2.261,2.261c0,1.247,1.014,2.261,2.261,2.261
		c1.247,0,2.261-1.014,2.261-2.261C53.696,45.145,52.682,44.13,51.435,44.13z M51.174,46.391c0-0.144,0.117-0.261,0.261-0.261
		c0.144,0,0.261,0.117,0.261,0.261C51.696,46.679,51.174,46.68,51.174,46.391z"/>
	<path fill="#231F20" d="M26,24c0,2.206,1.794,4,4,4s4-1.794,4-4s-1.794-4-4-4S26,21.794,26,24z M32,24c0,1.103-0.897,2-2,2
		s-2-0.897-2-2s0.897-2,2-2S32,22.897,32,24z"/>
	<path fill="#231F20" d="M55,38H5c-2.757,0-5,2.243-5,5v10c0,2.757,2.243,5,5,5h3v1c0,0.552,0.448,1,1,1s1-0.448,1-1v-1h40v1
		c0,0.552,0.448,1,1,1s1-0.448,1-1v-1h3c2.757,0,5-2.243,5-5V43C60,40.243,57.757,38,55,38z M58,53c0,1.654-1.346,3-3,3H5
		c-1.654,0-3-1.346-3-3V43c0-1.654,1.346-3,3-3h50c1.654,0,3,1.346,3,3V53z"/>
	<path fill="#231F20" d="M21,24c0,4.962,4.038,9,9,9s9-4.038,9-9s-4.038-9-9-9S21,19.038,21,24z M37,24c0,3.86-3.14,7-7,7
		s-7-3.14-7-7s3.14-7,7-7S37,20.14,37,24z"/>
	<path fill="#231F20" d="M44.13,23.696c0,0.552,0.448,1,1,1s1-0.448,1-1c0-8.895-7.236-16.13-16.13-16.13c-0.552,0-1,0.448-1,1
		s0.448,1,1,1C37.792,9.565,44.13,15.904,44.13,23.696z"/>
	<path fill="#231F20" d="M49.87,34.677c0.144,0.072,0.296,0.105,0.446,0.105c0.367,0,0.72-0.202,0.896-0.553
		c1.648-3.295,2.484-6.84,2.484-10.534C53.696,10.63,43.066,0,30,0S6.304,10.63,6.304,23.696c0,3.695,0.836,7.24,2.485,10.534
		c0.246,0.494,0.846,0.695,1.341,0.447c0.494-0.247,0.694-0.848,0.447-1.341c-1.508-3.015-2.273-6.258-2.273-9.64
		C8.304,11.733,18.037,2,30,2s21.696,9.733,21.696,21.696c0,3.381-0.765,6.624-2.273,9.64C49.175,33.829,49.375,34.43,49.87,34.677z
		"/>
</g>
</svg>
