<?xml version="1.0" encoding="utf-8"?>
<!-- Generator: Adobe Illustrator 17.0.0, SVG Export Plug-In . SVG Version: 6.00 Build 0)  -->
<!DOCTYPE svg PUBLIC "-//W3C//DTD SVG 1.1//EN" "http://www.w3.org/Graphics/SVG/1.1/DTD/svg11.dtd">
<svg version="1.1" id="Layer_1" xmlns="http://www.w3.org/2000/svg" xmlns:xlink="http://www.w3.org/1999/xlink" x="0px" y="0px"
	 width="60px" height="60px" viewBox="0 0 60 60" enable-background="new 0 0 60 60" xml:space="preserve">
<g>
	<path fill="#231F20" d="M31.178,4.122c-0.188-0.214-0.46-0.338-0.746-0.339c-0.001,0-0.003,0-0.004,0
		c-0.284,0-0.556,0.121-0.745,0.333l-29,32.435c-0.263,0.294-0.329,0.715-0.168,1.075s0.519,0.592,0.913,0.592H59
		c0.008,0.001,0.015,0,0.02,0c0.553,0,1-0.448,1-1c0-0.316-0.146-0.598-0.375-0.781L31.178,4.122z M3.663,36.217L30.422,6.289
		l26.364,29.928H3.663z"/>
	<path fill="#231F20" d="M59,44.217H1c-0.553,0-1,0.448-1,1v10c0,0.552,0.447,1,1,1h58c0.553,0,1-0.448,1-1v-10
		C60,44.665,59.553,44.217,59,44.217z M58,54.217H2v-8h56V54.217z"/>
</g>
</svg>
