<?xml version="1.0" encoding="utf-8"?>
<!-- Generator: Adobe Illustrator 17.0.0, SVG Export Plug-In . SVG Version: 6.00 Build 0)  -->
<!DOCTYPE svg PUBLIC "-//W3C//DTD SVG 1.1//EN" "http://www.w3.org/Graphics/SVG/1.1/DTD/svg11.dtd">
<svg version="1.1" id="Layer_1" xmlns="http://www.w3.org/2000/svg" xmlns:xlink="http://www.w3.org/1999/xlink" x="0px" y="0px"
	 width="60px" height="60px" viewBox="0 0 60 60" enable-background="new 0 0 60 60" xml:space="preserve">
<g>
	<path fill="#231F20" d="M7.305,38H26c0.007,0,0.013-0.004,0.02-0.004c3.561,2.718,7.991,4.352,12.806,4.352
		C50.501,42.348,60,32.849,60,21.174S50.501,0,38.826,0S17.652,9.499,17.652,21.174c0,5.77,2.326,11.003,6.083,14.826H7.305
		C3.277,36,0,39.14,0,43c0,4.187,3.619,7,7,7h44c2.386,0,4.479,1.849,4.479,3.957C55.479,56.073,53.344,58,51,58H26
		c-0.553,0-1,0.448-1,1s0.447,1,1,1h25c3.451,0,6.479-2.824,6.479-6.043C57.479,50.728,54.512,48,51,48H7c-2.415,0-5-2.009-5-5
		C2,40.243,4.38,38,7.305,38z M38.826,2C49.398,2,58,10.602,58,21.174s-8.602,19.174-19.174,19.174s-19.174-8.602-19.174-19.174
		S28.254,2,38.826,2z"/>
	<path fill="#231F20" d="M38.826,25.957c2.637,0,4.782-2.146,4.782-4.783s-2.146-4.783-4.782-4.783
		c-2.638,0-4.783,2.146-4.783,4.783S36.188,25.957,38.826,25.957z M38.826,18.391c1.534,0,2.782,1.249,2.782,2.783
		s-1.248,2.783-2.782,2.783s-2.783-1.249-2.783-2.783S37.292,18.391,38.826,18.391z"/>
	<path fill="#231F20" d="M32.168,7.745l2.355,5.673c0.213,0.511,0.8,0.751,1.307,0.541c1.849-0.767,3.935-0.781,5.815-0.051
		c0.112,0.074,0.24,0.127,0.379,0.152c0.06,0.011,0.119,0.016,0.177,0.016c0.397,0,0.766-0.237,0.923-0.614l2.411-5.771
		c0.105-0.254,0.103-0.541-0.009-0.792c-0.112-0.251-0.322-0.445-0.582-0.537c-4.236-1.493-8.459-1.546-12.061-0.127
		c-0.021,0.003-0.041,0.007-0.062,0.012c-0.473,0.103-0.804,0.528-0.787,1.011l0.001,0.029C32.041,7.45,32.088,7.606,32.168,7.745z
		 M43.272,7.921l-1.62,3.874c-0.933-0.283-1.894-0.426-2.869-0.426c-0.946,0-1.877,0.136-2.776,0.405l-1.639-3.948
		C37.062,6.959,40.137,6.999,43.272,7.921z"/>
	<path fill="#231F20" d="M31.348,25.482c0.249-0.099,0.449-0.293,0.554-0.54s0.105-0.525,0.003-0.773
		c-0.616-1.49-1.079-3.716,0.212-5.854c0.095-0.156,0.145-0.337,0.145-0.52c0-0.415-0.256-0.786-0.643-0.934l-6.305-2.412
		c-0.307-0.117-0.653-0.075-0.924,0.111c-0.182,0.125-0.313,0.304-0.382,0.507c-1.06,3.014-1.926,7.544-0.096,12.114
		c0.103,0.458,0.522,0.781,0.989,0.781c0.018,0,0.034,0,0.051-0.001c0.152-0.007,0.297-0.05,0.426-0.122L31.348,25.482z
		 M25.583,16.695l4.29,1.642c-0.708,1.724-0.764,3.669-0.16,5.641l-4.23,1.671C24.42,22.372,24.861,19.136,25.583,16.695z"/>
	<path fill="#231F20" d="M43.131,28.651c-0.099-0.249-0.293-0.449-0.539-0.553c-0.247-0.104-0.524-0.105-0.773-0.003
		c-2.102,0.87-4.171,0.804-5.851-0.212c-0.51-0.308-1.241-0.06-1.454,0.499l-2.412,6.304c-0.118,0.308-0.075,0.653,0.111,0.924
		c0.125,0.181,0.305,0.314,0.508,0.382c2.183,0.768,4.354,1.157,6.452,1.157c1.997,0,3.9-0.357,5.662-1.062
		c0.468-0.105,0.795-0.543,0.778-1.024c-0.005-0.158-0.049-0.309-0.123-0.443L43.131,28.651z M34.346,34.417l1.641-4.289
		c1.715,0.707,3.678,0.762,5.641,0.16l1.672,4.229C40.59,35.392,37.497,35.351,34.346,34.417z"/>
	<path fill="#231F20" d="M45.536,24.031c-0.095,0.156-0.145,0.338-0.145,0.521c0,0.415,0.256,0.786,0.643,0.934l6.304,2.412
		c0.115,0.044,0.235,0.065,0.355,0.065c0.145,0,0.288-0.031,0.422-0.093c0.245-0.113,0.434-0.322,0.523-0.576
		c1.062-3.015,1.934-7.555,0.099-12.137c-0.109-0.465-0.518-0.8-1.024-0.772c-0.16,0.006-0.314,0.05-0.45,0.126l-5.959,2.355
		c-0.25,0.099-0.449,0.293-0.554,0.54c-0.104,0.247-0.105,0.525-0.003,0.773C46.364,19.669,46.828,21.893,45.536,24.031z
		 M47.939,18.37l4.229-1.671c1.062,3.277,0.621,6.513-0.101,8.954l-4.289-1.641C48.487,22.287,48.544,20.342,47.939,18.37z"/>
</g>
</svg>
