<?xml version="1.0" encoding="utf-8"?>
<!-- Generator: Adobe Illustrator 17.0.0, SVG Export Plug-In . SVG Version: 6.00 Build 0)  -->
<!DOCTYPE svg PUBLIC "-//W3C//DTD SVG 1.1//EN" "http://www.w3.org/Graphics/SVG/1.1/DTD/svg11.dtd">
<svg version="1.1" id="Layer_1" xmlns="http://www.w3.org/2000/svg" xmlns:xlink="http://www.w3.org/1999/xlink" x="0px" y="0px"
	 width="60px" height="60px" viewBox="0 0 60 60" enable-background="new 0 0 60 60" xml:space="preserve">
<g>
	<path fill="#231F20" d="M23.593,2.716c-0.305-0.223-0.708-0.255-1.044-0.087C22.212,2.799,22,3.145,22,3.521V18.9L1.676,0.263
		C1.383-0.006,0.959-0.075,0.598,0.084C0.234,0.244,0,0.604,0,1v58c0,0.396,0.234,0.756,0.598,0.916C0.727,59.972,0.864,60,1,60
		c0.245,0,0.487-0.09,0.676-0.263L22,41.1v15.378c0,0.377,0.212,0.722,0.549,0.893c0.336,0.169,0.741,0.137,1.044-0.087l36-26.479
		C59.849,30.617,60,30.318,60,30s-0.151-0.617-0.407-0.806L23.593,2.716z M24,54.501V38.826c0-0.396-0.234-0.756-0.598-0.916
		c-0.361-0.16-0.785-0.09-1.078,0.179L2,56.726V3.274l20.324,18.637c0.293,0.269,0.717,0.337,1.078,0.179
		C23.766,21.93,24,21.57,24,21.174V5.499L57.312,30L24,54.501z"/>
</g>
</svg>
