<?xml version="1.0" encoding="utf-8"?>
<!-- Generator: Adobe Illustrator 17.0.0, SVG Export Plug-In . SVG Version: 6.00 Build 0)  -->
<!DOCTYPE svg PUBLIC "-//W3C//DTD SVG 1.1//EN" "http://www.w3.org/Graphics/SVG/1.1/DTD/svg11.dtd">
<svg version="1.1" id="Layer_1" xmlns="http://www.w3.org/2000/svg" xmlns:xlink="http://www.w3.org/1999/xlink" x="0px" y="0px"
	 width="60px" height="60px" viewBox="0 0 60 60" enable-background="new 0 0 60 60" xml:space="preserve">
<g>
	<path fill="#231F20" d="M0,53.426C0,55.893,2.065,57.945,4.625,58h50.761h0.011C57.935,57.944,60,55.893,60,53.426V20H0V53.426z
		 M2,22h56v31.426c0,1.384-1.182,2.537-2.637,2.574H4.646C3.188,55.969,2,54.814,2,53.426V22z"/>
	<path fill="#231F20" d="M20.473,50.241c0.161,0.1,0.344,0.15,0.527,0.15c0.151,0,0.304-0.035,0.444-0.104L41.792,40.2
		c0.34-0.169,0.556-0.516,0.556-0.896s-0.216-0.727-0.556-0.896L21.444,28.321c-0.312-0.153-0.678-0.137-0.972,0.046
		C20.179,28.55,20,28.871,20,29.217v20.174C20,49.737,20.179,50.059,20.473,50.241z M22,30.829l17.096,8.475L22,47.779V30.829z"/>
	<path fill="#231F20" d="M56.479,2H3.521C1.34,2,0,4.634,0,6.523V18h60V6.523C60,4.634,58.66,2,56.479,2z M57.882,5.743L48.557,16
		h-7.264L52.436,4h4.043C57.058,4,57.64,4.864,57.882,5.743z M31.436,4h8.271L28.564,16h-8.271L31.436,4z M17.564,16h-7.271
		L21.436,4h7.271L17.564,16z M42.436,4h7.271L38.564,16h-7.271L42.436,4z M3.521,4h5.218L2,11.413v-4.89C2,5.468,2.767,4,3.521,4z
		 M2,14.387L11.443,4h7.264L7.564,16H2V14.387z M51.261,16L58,8.587V16H51.261z"/>
</g>
</svg>
