<?xml version="1.0" encoding="utf-8"?>
<!-- Generator: Adobe Illustrator 17.0.0, SVG Export Plug-In . SVG Version: 6.00 Build 0)  -->
<!DOCTYPE svg PUBLIC "-//W3C//DTD SVG 1.1//EN" "http://www.w3.org/Graphics/SVG/1.1/DTD/svg11.dtd">
<svg version="1.1" id="Layer_1" xmlns="http://www.w3.org/2000/svg" xmlns:xlink="http://www.w3.org/1999/xlink" x="0px" y="0px"
	 width="60px" height="60px" viewBox="0 0 60 60" enable-background="new 0 0 60 60" xml:space="preserve">
<g>
	<path fill="#231F20" d="M59,0H1C0.447,0,0,0.448,0,1v8v42v8c0,0.552,0.447,1,1,1h58c0.553,0,1-0.448,1-1v-8V9V1
		C60,0.448,59.553,0,59,0z M40,52v6H20v-6H40z M2,50V10h56v40H2z M20,8V2h20v6H20z M58,8H42V2h16V8z M2,2h16v6H2V2z M2,52h16v6H2V52
		z M58,58H42v-6h16V58z"/>
	<path fill="#231F20" d="M30,15c-8.271,0-15,6.729-15,15s6.729,15,15,15s15-6.729,15-15S38.271,15,30,15z M30,43
		c-7.168,0-13-5.832-13-13s5.832-13,13-13s13,5.832,13,13S37.168,43,30,43z"/>
	<path fill="#231F20" d="M36.781,29.121l-9.305-5.043c-0.309-0.167-0.686-0.161-0.988,0.02C26.186,24.278,26,24.604,26,24.957
		v10.087c0,0.353,0.186,0.679,0.488,0.859c0.157,0.094,0.335,0.141,0.512,0.141c0.164,0,0.328-0.04,0.477-0.121l9.305-5.043
		c0.322-0.175,0.523-0.513,0.523-0.879S37.104,29.296,36.781,29.121z M28,33.364v-6.728L34.206,30L28,33.364z"/>
</g>
</svg>
