<?xml version="1.0" encoding="utf-8"?>
<!-- Generator: Adobe Illustrator 17.0.0, SVG Export Plug-In . SVG Version: 6.00 Build 0)  -->
<!DOCTYPE svg PUBLIC "-//W3C//DTD SVG 1.1//EN" "http://www.w3.org/Graphics/SVG/1.1/DTD/svg11.dtd">
<svg version="1.1" id="Layer_1" xmlns="http://www.w3.org/2000/svg" xmlns:xlink="http://www.w3.org/1999/xlink" x="0px" y="0px"
	 width="60px" height="60px" viewBox="0 0 60 60" enable-background="new 0 0 60 60" xml:space="preserve">
<g>
	<path fill="#231F20" d="M59,8H1C0.447,8,0,8.448,0,9v8v28v8c0,0.552,0.447,1,1,1h58c0.553,0,1-0.448,1-1v-8V17V9
		C60,8.448,59.553,8,59,8z M40,46v6H20v-6H40z M2,44V18h56v26H2z M58,10v6H42v-6H58z M40,16H20v-6h20V16z M2,10h16v6H2V10z M2,46h16
		v6H2V46z M58,52H42v-6h16V52z"/>
	<path fill="#231F20" d="M37.963,30.517l-14.565-6.304c-0.311-0.133-0.665-0.102-0.946,0.082C22.17,24.479,22,24.793,22,25.13
		v12.609c0,0.337,0.17,0.651,0.451,0.836c0.165,0.109,0.356,0.164,0.549,0.164c0.135,0,0.27-0.027,0.397-0.083l14.565-6.305
		c0.365-0.158,0.603-0.519,0.603-0.917S38.328,30.675,37.963,30.517z M24,36.217v-9.564l11.048,4.782L24,36.217z"/>
</g>
</svg>
