<?xml version="1.0" encoding="utf-8"?>
<!-- Generator: Adobe Illustrator 17.0.0, SVG Export Plug-In . SVG Version: 6.00 Build 0)  -->
<!DOCTYPE svg PUBLIC "-//W3C//DTD SVG 1.1//EN" "http://www.w3.org/Graphics/SVG/1.1/DTD/svg11.dtd">
<svg version="1.1" id="Layer_1" xmlns="http://www.w3.org/2000/svg" xmlns:xlink="http://www.w3.org/1999/xlink" x="0px" y="0px"
	 width="60px" height="60px" viewBox="0 0 60 60" enable-background="new 0 0 60 60" xml:space="preserve">
<g>
	<path fill="#231F20" d="M4.585,59.91C4.718,59.971,4.859,60,5,60c0.236,0,0.471-0.084,0.656-0.246l33.348-29
		c0.219-0.19,0.344-0.465,0.344-0.754s-0.125-0.564-0.344-0.754l-33.348-29C5.36-0.013,4.94-0.073,4.585,0.09
		C4.229,0.252,4,0.608,4,1v58C4,59.392,4.229,59.748,4.585,59.91z M6,3.195L36.824,30L6,56.805V3.195z"/>
	<path fill="#231F20" d="M45,60h10c0.553,0,1-0.448,1-1V1c0-0.552-0.447-1-1-1H45c-0.553,0-1,0.448-1,1v58
		C44,59.552,44.447,60,45,60z M46,2h8v56h-8V2z"/>
</g>
</svg>
