<?xml version="1.0" encoding="utf-8"?>
<!-- Generator: Adobe Illustrator 17.0.0, SVG Export Plug-In . SVG Version: 6.00 Build 0)  -->
<!DOCTYPE svg PUBLIC "-//W3C//DTD SVG 1.1//EN" "http://www.w3.org/Graphics/SVG/1.1/DTD/svg11.dtd">
<svg version="1.1" id="Layer_1" xmlns="http://www.w3.org/2000/svg" xmlns:xlink="http://www.w3.org/1999/xlink" x="0px" y="0px"
	 width="60px" height="60px" viewBox="0 0 60 60" enable-background="new 0 0 60 60" xml:space="preserve">
<g>
	<path fill="#231F20" d="M13,60h12c0.552,0,1-0.448,1-1V1c0-0.552-0.448-1-1-1H13c-0.552,0-1,0.448-1,1v58
		C12,59.552,12.448,60,13,60z M14,2h10v56H14V2z"/>
	<path fill="#231F20" d="M33,60h12c0.552,0,1-0.448,1-1V1c0-0.552-0.448-1-1-1H33c-0.552,0-1,0.448-1,1v58
		C32,59.552,32.448,60,33,60z M34,2h10v56H34V2z"/>
</g>
</svg>
