<?xml version="1.0" encoding="utf-8"?>
<!-- Generator: Adobe Illustrator 17.0.0, SVG Export Plug-In . SVG Version: 6.00 Build 0)  -->
<!DOCTYPE svg PUBLIC "-//W3C//DTD SVG 1.1//EN" "http://www.w3.org/Graphics/SVG/1.1/DTD/svg11.dtd">
<svg version="1.1" id="Layer_1" xmlns="http://www.w3.org/2000/svg" xmlns:xlink="http://www.w3.org/1999/xlink" x="0px" y="0px"
	 width="60px" height="60px" viewBox="0 0 60 60" enable-background="new 0 0 60 60" xml:space="preserve">
<g>
	<path fill="#231F20" d="M53,0H7C3.14,0,0,3.14,0,7v46c0,3.86,3.14,7,7,7h46c3.86,0,7-3.14,7-7V7C60,3.14,56.86,0,53,0z M58,53
		c0,2.757-2.243,5-5,5H7c-2.757,0-5-2.243-5-5V7c0-2.757,2.243-5,5-5h46c2.757,0,5,2.243,5,5V53z"/>
	<path fill="#231F20" d="M51,42c0.552,0,1-0.448,1-1V9c0-0.552-0.448-1-1-1H9C8.448,8,8,8.448,8,9v32c0,0.552,0.448,1,1,1h10.051
		C19.558,47.598,24.272,52,30,52s10.442-4.402,10.949-10H51z M10,10h40v30h-9.051C40.442,34.402,35.728,30,30,30
		s-10.442,4.402-10.949,10H10V10z M30,50c-4.962,0-9-4.038-9-9s4.038-9,9-9s9,4.038,9,9S34.962,50,30,50z"/>
	<path fill="#231F20" d="M17.13,50H9.565c-0.552,0-1,0.448-1,1s0.448,1,1,1h7.565c0.552,0,1-0.448,1-1S17.683,50,17.13,50z"/>
	<path fill="#231F20" d="M51.435,50H43.87c-0.552,0-1,0.448-1,1s0.448,1,1,1h7.565c0.552,0,1-0.448,1-1S51.987,50,51.435,50z"/>
	<path fill="#231F20" d="M35.427,40.444l-8-3.783c-0.31-0.146-0.673-0.123-0.962,0.06C26.175,36.904,26,37.223,26,37.565v7.565
		c0,0.343,0.175,0.662,0.465,0.845c0.163,0.103,0.349,0.155,0.535,0.155c0.146,0,0.292-0.032,0.427-0.096l8-3.783
		C35.777,42.086,36,41.734,36,41.348S35.777,40.609,35.427,40.444z M28,43.551v-4.407l4.661,2.203L28,43.551z"/>
</g>
</svg>
