<?xml version="1.0" encoding="utf-8"?>
<!-- Generator: Adobe Illustrator 17.0.0, SVG Export Plug-In . SVG Version: 6.00 Build 0)  -->
<!DOCTYPE svg PUBLIC "-//W3C//DTD SVG 1.1//EN" "http://www.w3.org/Graphics/SVG/1.1/DTD/svg11.dtd">
<svg version="1.1" id="Layer_1" xmlns="http://www.w3.org/2000/svg" xmlns:xlink="http://www.w3.org/1999/xlink" x="0px" y="0px"
	 width="60px" height="60px" viewBox="0 0 60 60" enable-background="new 0 0 60 60" xml:space="preserve">
<g>
	<path fill="#231F20" d="M53,18H41.894c-0.477-2.451-2.641-4.678-5.322-6.158l8.135-8.135c0.391-0.391,0.391-1.023,0-1.414
		s-1.023-0.391-1.414,0l-8.65,8.65C33.104,10.348,31.496,10,30,10s-3.104,0.348-4.643,0.943l-8.65-8.65
		c-0.391-0.391-1.023-0.391-1.414,0s-0.391,1.023,0,1.414l8.135,8.135c-2.681,1.48-4.845,3.707-5.322,6.158H7c-3.86,0-7,3.14-7,7v28
		c0,3.86,3.14,7,7,7h46c3.86,0,7-3.14,7-7V25C60,21.14,56.86,18,53,18z M30,12c4.201,0,8.918,3.014,9.83,6H20.17
		C21.082,15.014,25.799,12,30,12z M58,53c0,2.757-2.243,5-5,5H7c-2.757,0-5-2.243-5-5V25c0-2.757,2.243-5,5-5h46
		c2.757,0,5,2.243,5,5V53z"/>
	<path fill="#231F20" d="M27.565,22H20c-3.463,0-14,0-14,6.479v20.174C6,51.396,7.819,56,20,56h7.565C41.304,56,42,50.169,42,49
		V28.826C42,24.297,37.144,22,27.565,22z M40,49c0,0.512-0.349,5-12.435,5H20c-7.626,0-12-1.949-12-5.348V28.479
		C8,24.777,14.526,24,20,24h7.565C33.238,24,40,24.837,40,28.826V49z"/>
	<path fill="#231F20" d="M50,25c-2.757,0-5,2.243-5,5s2.243,5,5,5s5-2.243,5-5S52.757,25,50,25z M50,33c-1.654,0-3-1.346-3-3
		s1.346-3,3-3s3,1.346,3,3S51.654,33,50,33z"/>
	<path fill="#231F20" d="M50,39c-2.757,0-5,2.243-5,5s2.243,5,5,5s5-2.243,5-5S52.757,39,50,39z M50,47c-1.654,0-3-1.346-3-3
		s1.346-3,3-3s3,1.346,3,3S51.654,47,50,47z"/>
</g>
</svg>
