<?xml version="1.0" encoding="utf-8"?>
<!-- Generator: Adobe Illustrator 17.0.0, SVG Export Plug-In . SVG Version: 6.00 Build 0)  -->
<!DOCTYPE svg PUBLIC "-//W3C//DTD SVG 1.1//EN" "http://www.w3.org/Graphics/SVG/1.1/DTD/svg11.dtd">
<svg version="1.1" id="Layer_1" xmlns="http://www.w3.org/2000/svg" xmlns:xlink="http://www.w3.org/1999/xlink" x="0px" y="0px"
	 width="60px" height="60px" viewBox="0 0 60 60" enable-background="new 0 0 60 60" xml:space="preserve">
<g>
	<path fill="#231F20" d="M36.304,36H11.087c-0.552,0-1,0.448-1,1s0.448,1,1,1h25.217c0.552,0,1-0.448,1-1S36.856,36,36.304,36z"/>
	<path fill="#231F20" d="M11,26c6.065,0,11-4.935,11-11S17.065,4,11,4S0,8.935,0,15S4.935,26,11,26z M11,6c4.962,0,9,4.038,9,9
		s-4.038,9-9,9s-9-4.038-9-9S6.038,6,11,6z"/>
	<path fill="#231F20" d="M33,26c3.86,0,7-3.14,7-7s-3.14-7-7-7s-7,3.14-7,7S29.14,26,33,26z M33,14c2.757,0,5,2.243,5,5
		s-2.243,5-5,5s-5-2.243-5-5S30.243,14,33,14z"/>
	<path fill="#231F20" d="M59.013,32.286c-0.628-0.418-1.444-0.467-2.244-0.135L44,37.471V31c0-1.654-1.346-3-3-3H5
		c-1.654,0-3,1.346-3,3v22c0,1.654,1.346,3,3,3h36c1.654,0,3-1.346,3-3v-5.689l12.77,5.321c0.35,0.146,0.704,0.218,1.043,0.218
		c0.435,0,0.847-0.119,1.2-0.354C59.64,52.079,60,51.343,60,50.479V34.304C60,33.44,59.64,32.704,59.013,32.286z M42,53
		c0,0.551-0.449,1-1,1H5c-0.551,0-1-0.449-1-1V31c0-0.551,0.449-1,1-1h36c0.551,0,1,0.449,1,1V53z M58,50.479
		c0,0.213-0.058,0.329-0.097,0.354c-0.038,0.026-0.168,0.035-0.364-0.046l-13.284-5.536C44.171,45.216,44.085,45.212,44,45.2v-5.617
		c0.085-0.012,0.171-0.016,0.254-0.051l13.284-5.535c0.197-0.083,0.327-0.073,0.365-0.047C57.942,33.976,58,34.091,58,34.304V50.479
		z"/>
</g>
</svg>
