<?xml version="1.0" encoding="utf-8"?>
<!-- Generator: Adobe Illustrator 17.0.0, SVG Export Plug-In . SVG Version: 6.00 Build 0)  -->
<!DOCTYPE svg PUBLIC "-//W3C//DTD SVG 1.1//EN" "http://www.w3.org/Graphics/SVG/1.1/DTD/svg11.dtd">
<svg version="1.1" id="Layer_2" xmlns="http://www.w3.org/2000/svg" xmlns:xlink="http://www.w3.org/1999/xlink" x="0px" y="0px"
	 width="60px" height="60px" viewBox="0 0 60 60" enable-background="new 0 0 60 60" xml:space="preserve">
<path fill="#010101" d="M59.703,36.892l-37-36.602C22.516,0.104,22.263,0,22,0H1C0.448,0,0,0.448,0,1v21
	c0,0.264,0.104,0.516,0.289,0.703l36.602,37c0.187,0.189,0.442,0.296,0.708,0.297c0.001,0,0.002,0,0.003,0
	c0.265,0,0.52-0.105,0.707-0.293L59.707,38.31C59.895,38.122,60,37.866,60,37.6C59.999,37.334,59.893,37.079,59.703,36.892z
	 M13.609,18.652c-2.785,0-5.043-2.259-5.043-5.043c0-2.786,2.258-5.043,5.043-5.043c2.785,0,5.043,2.257,5.043,5.043
	C18.652,16.394,16.394,18.652,13.609,18.652z"/>
</svg>
