<?xml version="1.0" encoding="utf-8"?>
<!-- Generator: Adobe Illustrator 17.0.0, SVG Export Plug-In . SVG Version: 6.00 Build 0)  -->
<!DOCTYPE svg PUBLIC "-//W3C//DTD SVG 1.1//EN" "http://www.w3.org/Graphics/SVG/1.1/DTD/svg11.dtd">
<svg version="1.1" id="Layer_2" xmlns="http://www.w3.org/2000/svg" xmlns:xlink="http://www.w3.org/1999/xlink" x="0px" y="0px"
	 width="60px" height="60px" viewBox="0 0 60 60" enable-background="new 0 0 60 60" xml:space="preserve">
<g>
	<path fill="#010101" d="M47,34c-7.168,0-13,5.832-13,13s5.832,13,13,13s13-5.832,13-13S54.168,34,47,34z M53,48h-5v5
		c0,0.552-0.448,1-1,1s-1-0.448-1-1v-5h-5c-0.552,0-1-0.448-1-1c0-0.552,0.448-1,1-1h5v-5c0-0.552,0.448-1,1-1s1,0.448,1,1v5h5
		c0.552,0,1,0.448,1,1C54,47.552,53.552,48,53,48z"/>
	<path fill="#010101" d="M50,16V1c0-0.266-0.105-0.52-0.293-0.707C49.519,0.106,49.265,0,49,0h-0.001L31.871,0.02
		c-0.265,0-0.519,0.105-0.706,0.293L0.293,31.184c-0.391,0.39-0.391,1.024,0,1.414L16.054,48.36
		c0.195,0.195,0.451,0.293,0.707,0.293c0.253,0,0.506-0.095,0.701-0.287l32.239-31.652C49.892,16.525,50,16.269,50,16z
		 M38.826,13.609c-2.09,0-3.783-1.694-3.783-3.782c0-2.09,1.693-3.783,3.783-3.783c2.088,0,3.782,1.693,3.782,3.783
		C42.608,11.915,40.914,13.609,38.826,13.609z"/>
</g>
</svg>
