<?xml version="1.0" encoding="utf-8"?>
<!-- Generator: Adobe Illustrator 17.0.0, SVG Export Plug-In . SVG Version: 6.00 Build 0)  -->
<!DOCTYPE svg PUBLIC "-//W3C//DTD SVG 1.1//EN" "http://www.w3.org/Graphics/SVG/1.1/DTD/svg11.dtd">
<svg version="1.1" id="Layer_2" xmlns="http://www.w3.org/2000/svg" xmlns:xlink="http://www.w3.org/1999/xlink" x="0px" y="0px"
	 width="60px" height="60px" viewBox="0 0 60 60" enable-background="new 0 0 60 60" xml:space="preserve">
<g>
	<path fill="#010101" d="M19.951,5.798c-0.187-0.184-0.438-0.287-0.701-0.287h-18c-0.552,0-1,0.448-1,1v17
		c0,0.267,0.106,0.523,0.296,0.71l35.305,35c0.189,0.188,0.443,0.29,0.704,0.29c0.067,0,0.136-0.007,0.203-0.02
		c0.329-0.068,0.601-0.297,0.726-0.608l4.884-12.211l12.21-4.884c0.313-0.125,0.542-0.4,0.609-0.731
		c0.066-0.331-0.039-0.673-0.28-0.91L19.951,5.798z M12.598,20.685c-2.088,0-3.782-1.694-3.782-3.783
		c0-2.088,1.694-3.782,3.782-3.782c2.088,0,3.783,1.694,3.783,3.782C16.38,18.991,14.686,20.685,12.598,20.685z"/>
	<path fill="#010101" d="M59.455,33.562l-33-32.783c-0.187-0.186-0.44-0.291-0.705-0.291h-18c-0.552,0-1,0.448-1,1
		c0,0.552,0.448,1,1,1h17.588l31.555,31.348l-2.243,0.747c-0.524,0.175-0.807,0.741-0.632,1.265c0.14,0.419,0.53,0.685,0.949,0.685
		c0.104,0,0.211-0.017,0.316-0.052l3.783-1.261c0.329-0.11,0.578-0.382,0.657-0.721C59.803,34.162,59.701,33.807,59.455,33.562z"/>
</g>
</svg>
