<?xml version="1.0" encoding="utf-8"?>
<!-- Generator: Adobe Illustrator 17.0.0, SVG Export Plug-In . SVG Version: 6.00 Build 0)  -->
<!DOCTYPE svg PUBLIC "-//W3C//DTD SVG 1.1//EN" "http://www.w3.org/Graphics/SVG/1.1/DTD/svg11.dtd">
<svg version="1.1" id="Layer_2" xmlns="http://www.w3.org/2000/svg" xmlns:xlink="http://www.w3.org/1999/xlink" x="0px" y="0px"
	 width="60px" height="60px" viewBox="0 0 60 60" enable-background="new 0 0 60 60" xml:space="preserve">
<g>
	<path fill="#010101" d="M20.201,5.287C20.014,5.103,19.762,5,19.5,5h-18c-0.552,0-1,0.448-1,1v17c0,0.267,0.106,0.523,0.296,0.71
		l35.304,35c0.195,0.193,0.45,0.29,0.704,0.29c0.256,0,0.512-0.098,0.707-0.293l17.652-17.652c0.189-0.188,0.294-0.445,0.293-0.711
		c-0.001-0.267-0.109-0.522-0.299-0.709L20.201,5.287z M12.848,20.174c-2.088,0-3.782-1.694-3.782-3.783
		c0-2.088,1.694-3.782,3.782-3.782c2.089,0,3.783,1.694,3.783,3.782C16.63,18.48,14.936,20.174,12.848,20.174z"/>
	<path fill="#010101" d="M59.207,33.293l-33-33C26.019,0.106,25.765,0,25.5,0h-17c-0.552,0-1,0.448-1,1c0,0.552,0.448,1,1,1h16.586
		l32,32l-1.293,1.293c-0.391,0.391-0.391,1.023,0,1.414C55.988,36.902,56.244,37,56.5,37c0.256,0,0.512-0.098,0.707-0.293l2-2
		C59.598,34.316,59.598,33.684,59.207,33.293z"/>
</g>
</svg>
