<?xml version="1.0" encoding="utf-8"?>
<!-- Generator: Adobe Illustrator 17.0.0, SVG Export Plug-In . SVG Version: 6.00 Build 0)  -->
<!DOCTYPE svg PUBLIC "-//W3C//DTD SVG 1.1//EN" "http://www.w3.org/Graphics/SVG/1.1/DTD/svg11.dtd">
<svg version="1.1" id="Layer_1" xmlns="http://www.w3.org/2000/svg" xmlns:xlink="http://www.w3.org/1999/xlink" x="0px" y="0px"
	 width="60px" height="60px" viewBox="0 0 60 60" enable-background="new 0 0 60 60" xml:space="preserve">
<g>
	<path fill="#010101" d="M37,28.649V18h2c0.553,0,1-0.448,1-1s-0.447-1-1-1h-3H24h-3c-0.553,0-1,0.448-1,1s0.447,1,1,1h2v10.649
		L3.219,53.375C3.077,53.553,3,53.773,3,54c0,3.309,2.691,6,6,6h42c3.364,0,6-2.636,6-6c0-0.227-0.077-0.447-0.219-0.625L37,28.649z
		 M24.781,29.625C24.923,29.447,25,29.227,25,29V18h10v11c0,0.227,0.077,0.447,0.219,0.625l8.301,10.376H16.48L24.781,29.625z
		 M51,58H9c-2.13,0-3.822-1.585-3.987-3.666l9.867-12.333h30.24l9.867,12.333C54.822,56.415,53.13,58,51,58z"/>
	<path fill="#010101" d="M19,8c0-2.206-1.794-4-4-4s-4,1.794-4,4s1.794,4,4,4S19,10.206,19,8z M13,8c0-1.103,0.897-2,2-2
		s2,0.897,2,2s-0.897,2-2,2S13,9.103,13,8z"/>
	<path fill="#010101" d="M37,6c0-3.309-2.691-6-6-6s-6,2.691-6,6s2.691,6,6,6S37,9.309,37,6z M27,6c0-2.206,1.794-4,4-4s4,1.794,4,4
		s-1.794,4-4,4S27,8.206,27,6z"/>
	<path fill="#010101" d="M49,9c0-1.654-1.346-3-3-3s-3,1.346-3,3s1.346,3,3,3S49,10.654,49,9z M45,9c0-0.551,0.448-1,1-1
		s1,0.449,1,1s-0.448,1-1,1S45,9.551,45,9z"/>
</g>
</svg>
