<?xml version="1.0" encoding="utf-8"?>
<!-- Generator: Adobe Illustrator 17.0.0, SVG Export Plug-In . SVG Version: 6.00 Build 0)  -->
<!DOCTYPE svg PUBLIC "-//W3C//DTD SVG 1.1//EN" "http://www.w3.org/Graphics/SVG/1.1/DTD/svg11.dtd">
<svg version="1.1" id="Layer_1" xmlns="http://www.w3.org/2000/svg" xmlns:xlink="http://www.w3.org/1999/xlink" x="0px" y="0px"
	 width="60px" height="60px" viewBox="0 0 60 60" enable-background="new 0 0 60 60" xml:space="preserve">
<g>
	<path fill="#010101" d="M18,49c0,6.065,4.935,11,11,11s11-4.935,11-11V2h3c0.553,0,1-0.448,1-1s-0.447-1-1-1H15
		c-0.553,0-1,0.448-1,1s0.447,1,1,1h3V49z M38,2v47c0,4.962-4.037,9-9,9s-9-4.038-9-9V36h3c0.553,0,1-0.448,1-1s-0.447-1-1-1h-3v-6
		h7c0.553,0,1-0.448,1-1s-0.447-1-1-1h-7v-6h3c0.553,0,1-0.448,1-1s-0.447-1-1-1h-3v-6h7c0.553,0,1-0.448,1-1s-0.447-1-1-1h-7V2H38z
		"/>
	<path fill="#010101" d="M29,56.001c3.859,0,7-3.14,7-7c0-0.552-0.447-1-1-1s-1,0.448-1,1c0,2.757-2.243,5-5,5c-0.553,0-1,0.448-1,1
		S28.447,56.001,29,56.001z"/>
</g>
</svg>
