<?xml version="1.0" encoding="utf-8"?>
<!-- Generator: Adobe Illustrator 17.0.0, SVG Export Plug-In . SVG Version: 6.00 Build 0)  -->
<!DOCTYPE svg PUBLIC "-//W3C//DTD SVG 1.1//EN" "http://www.w3.org/Graphics/SVG/1.1/DTD/svg11.dtd">
<svg version="1.1" id="Layer_1" xmlns="http://www.w3.org/2000/svg" xmlns:xlink="http://www.w3.org/1999/xlink" x="0px" y="0px"
	 width="60px" height="60px" viewBox="0 0 60 60" enable-background="new 0 0 60 60" xml:space="preserve">
<g>
	<path fill="#010101" d="M43,34h-7v-7c0-0.552-0.448-1-1-1H25c-0.552,0-1,0.448-1,1v7h-7c-0.552,0-1,0.448-1,1v10
		c0,0.552,0.448,1,1,1h7v7c0,0.552,0.448,1,1,1h10c0.552,0,1-0.448,1-1v-7h7c0.552,0,1-0.448,1-1V35C44,34.448,43.552,34,43,34z
		 M42,44h-7c-0.552,0-1,0.448-1,1v7h-8v-7c0-0.552-0.448-1-1-1h-7v-8h7c0.552,0,1-0.448,1-1v-7h8v7c0,0.552,0.448,1,1,1h7V44z"/>
	<path fill="#010101" d="M53,18H40v-4c0-2.206-1.794-4-4-4H24c-2.206,0-4,1.794-4,4v4H7c-3.86,0-7,3.14-7,7v28c0,3.86,3.14,7,7,7h46
		c3.86,0,7-3.14,7-7V25C60,21.14,56.86,18,53,18z M22,14c0-1.103,0.897-2,2-2h12c1.103,0,2,0.897,2,2v4H22V14z M58,53
		c0,2.757-2.243,5-5,5H7c-2.757,0-5-2.243-5-5V25c0-2.757,2.243-5,5-5h46c2.757,0,5,2.243,5,5V53z"/>
</g>
</svg>
