<?xml version="1.0" encoding="utf-8"?>
<!-- Generator: Adobe Illustrator 17.0.0, SVG Export Plug-In . SVG Version: 6.00 Build 0)  -->
<!DOCTYPE svg PUBLIC "-//W3C//DTD SVG 1.1//EN" "http://www.w3.org/Graphics/SVG/1.1/DTD/svg11.dtd">
<svg version="1.1" id="Layer_1" xmlns="http://www.w3.org/2000/svg" xmlns:xlink="http://www.w3.org/1999/xlink" x="0px" y="0px"
	 width="60px" height="60px" viewBox="0 0 60 60" enable-background="new 0 0 60 60" xml:space="preserve">
<g>
	<path fill="#010101" d="M30.261,52.957c-0.553,0-1,0.448-1,1V59c0,0.552,0.447,1,1,1s1-0.448,1-1v-5.043
		C31.261,53.405,30.813,52.957,30.261,52.957z"/>
	<path fill="#010101" d="M58.521,43.015c-0.264-0.161-6.54-3.928-14.391-3.928c-1.124,0-2.265,0.077-3.416,0.231
		c1.775-1.264,3.637-2.775,5.408-4.547c6.976-6.976,9.924-15.184,10.046-15.53c0.128-0.363,0.036-0.767-0.236-1.04
		c-0.272-0.273-0.679-0.365-1.039-0.236c-0.347,0.122-8.559,3.067-15.534,10.043c-1.643,1.643-3.064,3.361-4.282,5.035
		c0.719-3.168,1.229-6.768,1.229-10.608c0-11.944-4.948-21.499-5.159-21.9c-0.344-0.657-1.426-0.657-1.77,0
		c-0.211,0.401-5.159,9.956-5.159,21.9c0,3.837,0.51,7.439,1.229,10.61c-1.218-1.674-2.641-3.393-4.286-5.037
		c-6.974-6.976-15.184-9.921-15.53-10.043c-0.363-0.128-0.768-0.037-1.039,0.236c-0.272,0.272-0.364,0.676-0.236,1.04
		c0.122,0.346,3.068,8.554,10.041,15.53c1.773,1.772,3.636,3.284,5.411,4.547c-1.152-0.154-2.292-0.231-3.415-0.231
		c-7.852,0-14.126,3.768-14.39,3.928c-0.298,0.182-0.479,0.505-0.479,0.854c0,0.349,0.182,0.672,0.479,0.854
		c0.264,0.16,6.538,3.929,14.39,3.929c1.48,0,2.988-0.134,4.515-0.4c-0.091,0.086-0.179,0.174-0.267,0.261
		c-4.077,4.078-5.546,9.136-5.606,9.349c-0.099,0.349-0.002,0.724,0.255,0.98c0.255,0.255,0.629,0.353,0.979,0.255
		c0.214-0.061,5.275-1.527,9.351-5.604c0.391-0.391,0.391-1.024,0-1.414c-0.391-0.391-1.023-0.391-1.414,0
		c-2.196,2.196-4.76,3.576-6.489,4.337c0.762-1.729,2.142-4.293,4.339-6.489c1.14-1.139,2.5-2.177,4.043-3.086
		c0.443-0.262,0.616-0.818,0.398-1.285c-0.218-0.467-0.756-0.692-1.24-0.52c-3.022,1.071-6.005,1.614-8.863,1.614
		c-5.009,0-9.421-1.708-11.703-2.783c2.282-1.075,6.695-2.782,11.703-2.782c2.925,0,5.982,0.571,9.088,1.696
		c0.492,0.179,1.043-0.055,1.256-0.536c0.212-0.481,0.016-1.044-0.449-1.29c-2.765-1.454-6.826-3.953-10.477-7.601
		c-4.522-4.524-7.311-9.706-8.638-12.575c2.867,1.324,8.042,4.108,12.574,8.641c4,3.997,6.631,8.469,8.135,11.518
		c0.235,0.48,0.811,0.688,1.3,0.473c0.49-0.216,0.723-0.78,0.528-1.279c-1.593-4.079-3.491-10.461-3.491-17.7
		c0-8.385,2.625-15.7,4.044-19.041c1.419,3.341,4.044,10.655,4.044,19.041c0,7.251-1.901,13.627-3.496,17.699
		c-0.195,0.499,0.036,1.062,0.526,1.279c0.491,0.218,1.063,0.008,1.301-0.471c1.509-3.052,4.146-7.528,8.137-11.52
		c4.523-4.523,9.705-7.311,12.576-8.638c-1.328,2.87-4.117,8.05-8.641,12.573c-3.647,3.648-7.708,6.147-10.474,7.601
		c-0.465,0.245-0.661,0.809-0.449,1.29c0.214,0.481,0.762,0.717,1.256,0.536c3.101-1.125,6.159-1.696,9.089-1.696
		c5.008,0,9.421,1.707,11.703,2.782c-2.282,1.076-6.695,2.783-11.703,2.783c-2.864,0-5.845-0.543-8.856-1.614
		c-0.487-0.173-1.023,0.052-1.24,0.519c-0.219,0.466-0.047,1.022,0.396,1.285c1.538,0.909,2.897,1.948,4.039,3.086
		c2.197,2.198,3.577,4.764,4.337,6.493c-1.726-0.758-4.285-2.136-6.489-4.341c-0.391-0.391-1.023-0.39-1.414,0
		c-0.391,0.391-0.391,1.024,0,1.415c4.074,4.077,9.134,5.543,9.348,5.604c0.09,0.025,0.182,0.038,0.272,0.038
		c0.262,0,0.517-0.103,0.707-0.293c0.256-0.256,0.354-0.631,0.255-0.979c-0.061-0.213-1.525-5.272-5.603-9.351
		c-0.087-0.087-0.176-0.173-0.265-0.259c1.523,0.266,3.03,0.399,4.513,0.399c7.851,0,14.127-3.769,14.391-3.929
		C58.818,44.542,59,44.218,59,43.869C59,43.52,58.818,43.197,58.521,43.015z"/>
</g>
</svg>
