<?xml version="1.0" encoding="utf-8"?>
<!-- Generator: Adobe Illustrator 17.0.0, SVG Export Plug-In . SVG Version: 6.00 Build 0)  -->
<!DOCTYPE svg PUBLIC "-//W3C//DTD SVG 1.1//EN" "http://www.w3.org/Graphics/SVG/1.1/DTD/svg11.dtd">
<svg version="1.1" id="Layer_1" xmlns="http://www.w3.org/2000/svg" xmlns:xlink="http://www.w3.org/1999/xlink" x="0px" y="0px"
	 width="60px" height="60px" viewBox="0 0 60 60" enable-background="new 0 0 60 60" xml:space="preserve">
<g>
	<path fill="#010101" d="M59,36.008H40c-0.379,0-0.725,0.214-0.895,0.553l-2.813,5.627l-4.325-16.435
		c-0.109-0.413-0.468-0.711-0.894-0.743c-0.421-0.034-0.824,0.21-0.993,0.603l-5.247,12.242l-3.986-6.378
		c-0.172-0.275-0.466-0.45-0.79-0.469c-0.334-0.02-0.637,0.121-0.839,0.374l-3.7,4.625H1c-0.552,0-1,0.448-1,1s0.448,1,1,1h15
		c0.304,0,0.591-0.138,0.781-0.375l3.119-3.898l4.252,6.804c0.197,0.315,0.557,0.497,0.925,0.467
		c0.371-0.029,0.696-0.261,0.842-0.603l4.854-11.326l4.259,16.187c0.106,0.403,0.45,0.697,0.864,0.74
		c0.035,0.003,0.069,0.005,0.104,0.005c0.375,0,0.723-0.211,0.894-0.553l3.724-7.447H59c0.552,0,1-0.448,1-1
		S59.552,36.008,59,36.008z"/>
	<path fill="#010101" d="M4.894,31.916c0.159,0.387,0.532,0.622,0.926,0.622c0.126,0,0.254-0.024,0.378-0.075
		c0.511-0.209,0.756-0.793,0.547-1.304L6.59,30.782C5.258,27.529,4,24.457,4,21.008c0-11.925,5.958-16.6,11.061-16.98
		c5.831-0.445,12.473,4.28,13.951,14.129c0.073,0.489,0.494,0.852,0.989,0.852s0.916-0.362,0.989-0.852
		c1.478-9.849,8.143-14.572,13.95-14.128C50.042,4.409,56,9.084,56,21.008c0,3.048-1,5.008-2.384,7.721
		c-0.377,0.738-0.776,1.521-1.183,2.38c-0.236,0.499-0.023,1.095,0.476,1.332c0.499,0.236,1.095,0.023,1.332-0.476
		c0.397-0.84,0.788-1.605,1.156-2.327c1.455-2.85,2.603-5.101,2.603-8.63c0-13.294-6.956-18.53-12.912-18.975
		C39.274,1.6,32.735,5.483,30,13.684C27.265,5.482,20.729,1.593,14.912,2.033C8.956,2.478,2,7.713,2,21.008
		C2,24.851,3.331,28.1,4.74,31.54L4.894,31.916z"/>
	<path fill="#010101" d="M29.448,59.842c0.167,0.111,0.36,0.166,0.552,0.166c0.217,0,0.433-0.07,0.612-0.209
		c0.096-0.074,9.667-7.536,17.273-17.57c0.333-0.44,0.248-1.067-0.193-1.401c-0.44-0.333-1.067-0.247-1.401,0.193
		c-6.386,8.423-14.19,15-16.336,16.743c-2.323-1.635-10.952-8.002-17.488-16.738c-0.33-0.441-0.958-0.533-1.4-0.202
		s-0.532,0.958-0.202,1.4C18.664,52.645,29.011,59.553,29.448,59.842z"/>
</g>
</svg>
