<?xml version="1.0" encoding="utf-8"?>
<!-- Generator: Adobe Illustrator 17.0.0, SVG Export Plug-In . SVG Version: 6.00 Build 0)  -->
<!DOCTYPE svg PUBLIC "-//W3C//DTD SVG 1.1//EN" "http://www.w3.org/Graphics/SVG/1.1/DTD/svg11.dtd">
<svg version="1.1" id="Layer_1" xmlns="http://www.w3.org/2000/svg" xmlns:xlink="http://www.w3.org/1999/xlink" x="0px" y="0px"
	 width="60px" height="60px" viewBox="0 0 60 60" enable-background="new 0 0 60 60" xml:space="preserve">
<g>
	<path fill="#010101" d="M55,38H38v-9c0-2.757-2.243-5-5-5H20v-2.051C25.598,21.442,30,16.728,30,11c0-6.065-4.935-11-11-11
		S8,4.935,8,11c0,5.728,4.402,10.442,10,10.949V24H5c-2.757,0-5,2.243-5,5v30c0,0.552,0.447,1,1,1h36h8h14c0.553,0,1-0.448,1-1V43
		C60,40.243,57.757,38,55,38z M10,11c0-4.962,4.037-9,9-9s9,4.038,9,9s-4.037,9-9,9S10,15.962,10,11z M58,43v15H46v-3
		c0-0.552-0.447-1-1-1h-8c-0.553,0-1,0.448-1,1v3H24V43c0-1.654,1.346-3,3-3h28C56.654,40,58,41.346,58,43z M5,26h28
		c1.654,0,3,1.346,3,3v9h-9c-1.629,0-3.065,0.795-3.978,2.004C23.014,40.004,23.008,40,23,40H8c-0.553,0-1,0.448-1,1s0.447,1,1,1
		h14.101C22.035,42.323,22,42.658,22,43v5H8c-0.553,0-1,0.448-1,1s0.447,1,1,1h14v8H2V29C2,27.346,3.346,26,5,26z M38,58v-2h6v2H38z
		"/>
	<path fill="#010101" d="M8,34h21c0.553,0,1-0.448,1-1s-0.447-1-1-1H8c-0.553,0-1,0.448-1,1S7.447,34,8,34z"/>
	<path fill="#010101" d="M20,16v-4h4c0.553,0,1-0.448,1-1s-0.447-1-1-1h-4V6c0-0.552-0.447-1-1-1s-1,0.448-1,1v4h-4
		c-0.553,0-1,0.448-1,1s0.447,1,1,1h4v4c0,0.552,0.447,1,1,1S20,16.552,20,16z"/>
	<path fill="#010101" d="M30,50h-2c-0.553,0-1,0.448-1,1s0.447,1,1,1h2c0.553,0,1-0.448,1-1S30.553,50,30,50z"/>
	<path fill="#010101" d="M38,50h-2c-0.553,0-1,0.448-1,1s0.447,1,1,1h2c0.553,0,1-0.448,1-1S38.553,50,38,50z"/>
	<path fill="#010101" d="M44,52h2c0.553,0,1-0.448,1-1s-0.447-1-1-1h-2c-0.553,0-1,0.448-1,1S43.447,52,44,52z"/>
	<path fill="#010101" d="M52,52h2c0.553,0,1-0.448,1-1s-0.447-1-1-1h-2c-0.553,0-1,0.448-1,1S51.447,52,52,52z"/>
	<path fill="#010101" d="M30,44h-2c-0.553,0-1,0.448-1,1s0.447,1,1,1h2c0.553,0,1-0.448,1-1S30.553,44,30,44z"/>
	<path fill="#010101" d="M35,45c0,0.552,0.447,1,1,1h2c0.553,0,1-0.448,1-1s-0.447-1-1-1h-2C35.447,44,35,44.448,35,45z"/>
	<path fill="#010101" d="M44,46h2c0.553,0,1-0.448,1-1s-0.447-1-1-1h-2c-0.553,0-1,0.448-1,1S43.447,46,44,46z"/>
	<path fill="#010101" d="M52,46h2c0.553,0,1-0.448,1-1s-0.447-1-1-1h-2c-0.553,0-1,0.448-1,1S51.447,46,52,46z"/>
</g>
</svg>
