<?xml version="1.0" encoding="utf-8"?>
<!-- Generator: Adobe Illustrator 17.0.0, SVG Export Plug-In . SVG Version: 6.00 Build 0)  -->
<!DOCTYPE svg PUBLIC "-//W3C//DTD SVG 1.1//EN" "http://www.w3.org/Graphics/SVG/1.1/DTD/svg11.dtd">
<svg version="1.1" id="Layer_1" xmlns="http://www.w3.org/2000/svg" xmlns:xlink="http://www.w3.org/1999/xlink" x="0px" y="0px"
	 width="60px" height="60px" viewBox="0 0 60 60" enable-background="new 0 0 60 60" xml:space="preserve">
<g>
	<path fill="#010101" d="M5,36h8c0.553,0,1-0.448,1-1s-0.447-1-1-1H5c-0.553,0-1,0.448-1,1S4.447,36,5,36z"/>
	<path fill="#010101" d="M5,40h8c0.553,0,1-0.448,1-1s-0.447-1-1-1H5c-0.553,0-1,0.448-1,1S4.447,40,5,40z"/>
	<path fill="#010101" d="M5,44h8c0.553,0,1-0.448,1-1s-0.447-1-1-1H5c-0.553,0-1,0.448-1,1S4.447,44,5,44z"/>
	<path fill="#010101" d="M5,48h8c0.553,0,1-0.448,1-1s-0.447-1-1-1H5c-0.553,0-1,0.448-1,1S4.447,48,5,48z"/>
	<path fill="#010101" d="M5,52h8c0.553,0,1-0.448,1-1s-0.447-1-1-1H5c-0.553,0-1,0.448-1,1S4.447,52,5,52z"/>
	<path fill="#010101" d="M59,30H44v-6.271c1.271-2.293,2-4.926,2-7.729c0-8.822-7.178-16-16-16S14,7.178,14,16
		c0,2.802,0.729,5.436,2,7.729V30H1c-0.553,0-1,0.448-1,1v28c0,0.552,0.447,1,1,1h26h6h26c0.553,0,1-0.448,1-1V31
		C60,30.448,59.553,30,59,30z M58,58H44V32h14V58z M30,2c7.72,0,14,6.28,14,14s-6.28,14-14,14s-14-6.28-14-14S22.28,2,30,2z M30,32
		c4.78,0,9.066-2.118,12-5.453V31v27h-8v-3c0-0.552-0.447-1-1-1h-6c-0.553,0-1,0.448-1,1v3h-8V31v-4.453
		C20.934,29.882,25.22,32,30,32z M16,32v26H2V32H16z M28,58v-2h4v2H28z"/>
	<path fill="#010101" d="M47,36h8c0.553,0,1-0.448,1-1s-0.447-1-1-1h-8c-0.553,0-1,0.448-1,1S46.447,36,47,36z"/>
	<path fill="#010101" d="M47,40h8c0.553,0,1-0.448,1-1s-0.447-1-1-1h-8c-0.553,0-1,0.448-1,1S46.447,40,47,40z"/>
	<path fill="#010101" d="M47,44h8c0.553,0,1-0.448,1-1s-0.447-1-1-1h-8c-0.553,0-1,0.448-1,1S46.447,44,47,44z"/>
	<path fill="#010101" d="M47,48h8c0.553,0,1-0.448,1-1s-0.447-1-1-1h-8c-0.553,0-1,0.448-1,1S46.447,48,47,48z"/>
	<path fill="#010101" d="M47,52h8c0.553,0,1-0.448,1-1s-0.447-1-1-1h-8c-0.553,0-1,0.448-1,1S46.447,52,47,52z"/>
	<path fill="#010101" d="M21,50h2c0.553,0,1-0.448,1-1s-0.447-1-1-1h-2c-0.553,0-1,0.448-1,1S20.447,50,21,50z"/>
	<path fill="#010101" d="M29,50h2c0.553,0,1-0.448,1-1s-0.447-1-1-1h-2c-0.553,0-1,0.448-1,1S28.447,50,29,50z"/>
	<path fill="#010101" d="M37,50h2c0.553,0,1-0.448,1-1s-0.447-1-1-1h-2c-0.553,0-1,0.448-1,1S36.447,50,37,50z"/>
	<path fill="#010101" d="M21,44h2c0.553,0,1-0.448,1-1s-0.447-1-1-1h-2c-0.553,0-1,0.448-1,1S20.447,44,21,44z"/>
	<path fill="#010101" d="M29,44h2c0.553,0,1-0.448,1-1s-0.447-1-1-1h-2c-0.553,0-1,0.448-1,1S28.447,44,29,44z"/>
	<path fill="#010101" d="M37,44h2c0.553,0,1-0.448,1-1s-0.447-1-1-1h-2c-0.553,0-1,0.448-1,1S36.447,44,37,44z"/>
	<path fill="#010101" d="M21,38h2c0.553,0,1-0.448,1-1s-0.447-1-1-1h-2c-0.553,0-1,0.448-1,1S20.447,38,21,38z"/>
	<path fill="#010101" d="M29,38h2c0.553,0,1-0.448,1-1s-0.447-1-1-1h-2c-0.553,0-1,0.448-1,1S28.447,38,29,38z"/>
	<path fill="#010101" d="M37,38h2c0.553,0,1-0.448,1-1s-0.447-1-1-1h-2c-0.553,0-1,0.448-1,1S36.447,38,37,38z"/>
	<path fill="#010101" d="M21,20h5v5c0,0.552,0.447,1,1,1h6c0.553,0,1-0.448,1-1v-5h5c0.553,0,1-0.448,1-1v-6c0-0.552-0.447-1-1-1h-5
		V7c0-0.552-0.447-1-1-1h-6c-0.553,0-1,0.448-1,1v5h-5c-0.553,0-1,0.448-1,1v6C20,19.552,20.447,20,21,20z M22,14h5
		c0.553,0,1-0.448,1-1V8h4v5c0,0.552,0.447,1,1,1h5v4h-5c-0.553,0-1,0.448-1,1v5h-4v-5c0-0.552-0.447-1-1-1h-5V14z"/>
</g>
</svg>
