<?xml version="1.0" encoding="utf-8"?>
<!-- Generator: Adobe Illustrator 17.0.0, SVG Export Plug-In . SVG Version: 6.00 Build 0)  -->
<!DOCTYPE svg PUBLIC "-//W3C//DTD SVG 1.1//EN" "http://www.w3.org/Graphics/SVG/1.1/DTD/svg11.dtd">
<svg version="1.1" id="Layer_1" xmlns="http://www.w3.org/2000/svg" xmlns:xlink="http://www.w3.org/1999/xlink" x="0px" y="0px"
	 width="60px" height="60px" viewBox="0 0 60 60" enable-background="new 0 0 60 60" xml:space="preserve">
<g>
	<path fill="#010101" d="M30,60c16.542,0,30-13.458,30-30S46.542,0,30,0S0,13.458,0,30S13.458,60,30,60z M30,2
		c15.439,0,28,12.561,28,28S45.439,58,30,58S2,45.439,2,30S14.561,2,30,2z"/>
	<path fill="#010101" d="M17,36h7v7c0,0.552,0.447,1,1,1h10c0.553,0,1-0.448,1-1v-7h7c0.553,0,1-0.448,1-1V25c0-0.552-0.447-1-1-1
		h-7v-7c0-0.552-0.447-1-1-1H25c-0.553,0-1,0.448-1,1v7h-7c-0.553,0-1,0.448-1,1v10C16,35.552,16.447,36,17,36z M18,26h7
		c0.553,0,1-0.448,1-1v-7h8v7c0,0.552,0.447,1,1,1h7v8h-7c-0.553,0-1,0.448-1,1v7h-8v-7c0-0.552-0.447-1-1-1h-7V26z"/>
	<path fill="#010101" d="M30,54c13.233,0,24-10.767,24-24S43.233,6,30,6S6,16.767,6,30S16.767,54,30,54z M30,8
		c12.131,0,22,9.869,22,22s-9.869,22-22,22S8,42.131,8,30S17.869,8,30,8z"/>
</g>
</svg>
