<?xml version="1.0" encoding="utf-8"?>
<!-- Generator: Adobe Illustrator 17.0.0, SVG Export Plug-In . SVG Version: 6.00 Build 0)  -->
<!DOCTYPE svg PUBLIC "-//W3C//DTD SVG 1.1//EN" "http://www.w3.org/Graphics/SVG/1.1/DTD/svg11.dtd">
<svg version="1.1" id="Layer_1" xmlns="http://www.w3.org/2000/svg" xmlns:xlink="http://www.w3.org/1999/xlink" x="0px" y="0px"
	 width="60px" height="60px" viewBox="0 0 60 60" enable-background="new 0 0 60 60" xml:space="preserve">
<g>
	<path fill="#010101" d="M53,0H7C3.14,0,0,3.14,0,7v46c0,3.86,3.14,7,7,7h46c3.86,0,7-3.14,7-7V7C60,3.14,56.86,0,53,0z M2,24h9
		c0.345,0,0.665-0.178,0.848-0.47l3.974-6.358l4.255,10.213c0.158,0.378,0.531,0.621,0.941,0.615
		c0.41-0.007,0.774-0.265,0.918-0.649l4.989-13.304l7.122,22.257C34.181,36.721,34.567,37,35,37c0.018,0,0.036,0,0.053-0.001
		c0.454-0.024,0.834-0.351,0.927-0.796l5.299-25.612l4.785,12.761C46.21,23.741,46.583,24,47,24h11v22h-4
		c-0.265,0-0.52,0.105-0.707,0.293l-3.111,3.111l-4.333-6.934c-0.162-0.259-0.432-0.429-0.735-0.464
		c-0.307-0.034-0.605,0.071-0.82,0.287L40.586,46H37c-0.265,0-0.52,0.105-0.707,0.293l-3.111,3.111l-4.333-6.934
		c-0.162-0.259-0.432-0.429-0.735-0.464c-0.307-0.034-0.605,0.071-0.82,0.287L23.586,46H19c-0.265,0-0.52,0.105-0.707,0.293
		l-3.111,3.111l-4.333-6.934c-0.162-0.259-0.432-0.429-0.735-0.464c-0.305-0.034-0.605,0.071-0.82,0.287L5.586,46H2V24z M53,58H7
		c-2.757,0-5-2.243-5-5v-5h4c0.265,0,0.52-0.105,0.707-0.293l3.111-3.111l4.333,6.934c0.162,0.259,0.432,0.429,0.735,0.464
		c0.306,0.035,0.604-0.071,0.82-0.287L19.414,48H24c0.265,0,0.52-0.105,0.707-0.293l3.111-3.111l4.333,6.934
		c0.162,0.259,0.432,0.429,0.735,0.464c0.303,0.035,0.605-0.071,0.82-0.287L37.414,48H41c0.265,0,0.52-0.105,0.707-0.293
		l3.111-3.111l4.333,6.934c0.162,0.259,0.432,0.429,0.735,0.464C49.925,51.998,49.962,52,50,52c0.264,0,0.519-0.104,0.707-0.293
		L54.414,48H58v5C58,55.757,55.757,58,53,58z M58,22H47.693L41.937,6.649c-0.156-0.417-0.573-0.674-1.014-0.646
		c-0.444,0.035-0.812,0.358-0.902,0.794l-5.229,25.272l-6.839-21.374c-0.13-0.406-0.502-0.685-0.928-0.695
		c-0.448-0.026-0.812,0.25-0.961,0.648l-5.112,13.634l-4.028-9.667c-0.144-0.345-0.468-0.581-0.841-0.612
		c-0.381-0.033-0.732,0.15-0.93,0.467L10.446,22H2V7c0-2.757,2.243-5,5-5h46c2.757,0,5,2.243,5,5V22z"/>
</g>
</svg>
