<?xml version="1.0" encoding="utf-8"?>
<!-- Generator: Adobe Illustrator 17.0.0, SVG Export Plug-In . SVG Version: 6.00 Build 0)  -->
<!DOCTYPE svg PUBLIC "-//W3C//DTD SVG 1.1//EN" "http://www.w3.org/Graphics/SVG/1.1/DTD/svg11.dtd">
<svg version="1.1" id="Layer_1" xmlns="http://www.w3.org/2000/svg" xmlns:xlink="http://www.w3.org/1999/xlink" x="0px" y="0px"
	 width="60px" height="60px" viewBox="0 0 60 60" enable-background="new 0 0 60 60" xml:space="preserve">
<g>
	<path fill="#010101" d="M16,37.949V54c0,3.309,2.691,6,6,6s6-2.691,6-6V43c0-2.757,2.243-5,5-5s5,2.243,5,5v6c0,3.309,2.691,6,6,6
		s6-2.691,6-6V31.92c3.387-0.488,6-3.401,6-6.92c0-3.86-3.14-7-7-7s-7,3.14-7,7c0,3.519,2.613,6.432,6,6.92V49c0,2.206-1.794,4-4,4
		s-4-1.794-4-4v-6c0-3.86-3.14-7-7-7s-7,3.14-7,7v11c0,2.206-1.794,4-4,4s-4-1.794-4-4V37.949C25.805,37.431,32,30.933,32,23V11
		c0-3.519-2.613-6.432-6-6.92V1c0-0.552-0.448-1-1-1c-2.757,0-5,2.243-5,5s2.243,5,5,5c0.552,0,1-0.448,1-1V6.101
		c2.279,0.465,4,2.484,4,4.899v12c0,7.168-5.832,13-13,13S4,30.168,4,23V11c0-2.414,1.721-4.434,4-4.899V9c0,0.552,0.448,1,1,1
		c2.757,0,5-2.243,5-5s-2.243-5-5-5C8.448,0,8,0.448,8,1v3.08C4.613,4.568,2,7.481,2,11v12C2,30.933,8.195,37.431,16,37.949z M44,25
		c0-2.757,2.243-5,5-5s5,2.243,5,5s-2.243,5-5,5S44,27.757,44,25z M24,7.829C22.836,7.416,22,6.304,22,5s0.836-2.416,2-2.829V7.829z
		 M10,2.171C11.164,2.584,12,3.696,12,5s-0.836,2.416-2,2.829V2.171z"/>
</g>
</svg>
