<?xml version="1.0" encoding="utf-8"?>
<!-- Generator: Adobe Illustrator 17.0.0, SVG Export Plug-In . SVG Version: 6.00 Build 0)  -->
<!DOCTYPE svg PUBLIC "-//W3C//DTD SVG 1.1//EN" "http://www.w3.org/Graphics/SVG/1.1/DTD/svg11.dtd">
<svg version="1.1" id="Layer_1" xmlns="http://www.w3.org/2000/svg" xmlns:xlink="http://www.w3.org/1999/xlink" x="0px" y="0px"
	 width="60px" height="60px" viewBox="0 0 60 60" enable-background="new 0 0 60 60" xml:space="preserve">
<g>
	<path fill="#010101" d="M43,12h-9V2h3c0.553,0,1-0.448,1-1s-0.447-1-1-1H21c-0.553,0-1,0.448-1,1s0.447,1,1,1h3v10h-9
		c-0.553,0-1,0.448-1,1s0.447,1,1,1h5v27.001c0,4.624,3.507,8.442,8,8.941V59c0,0.552,0.447,1,1,1s1-0.448,1-1v-9.058
		c4.493-0.5,8-4.317,8-8.941V14h5c0.553,0,1-0.448,1-1S43.553,12,43,12z M26,2h6v10h-6V2z M36,41.001c0,3.86-3.141,7-7,7
		s-7-3.14-7-7V34h5c0.553,0,1-0.448,1-1s-0.447-1-1-1h-5v-4h5c0.553,0,1-0.448,1-1s-0.447-1-1-1h-5v-4h5c0.553,0,1-0.448,1-1
		s-0.447-1-1-1h-5v-6h14V41.001z"/>
</g>
</svg>
