<?xml version="1.0" encoding="utf-8"?>
<!-- Generator: Adobe Illustrator 17.0.0, SVG Export Plug-In . SVG Version: 6.00 Build 0)  -->
<!DOCTYPE svg PUBLIC "-//W3C//DTD SVG 1.1//EN" "http://www.w3.org/Graphics/SVG/1.1/DTD/svg11.dtd">
<svg version="1.1" id="Layer_1" xmlns="http://www.w3.org/2000/svg" xmlns:xlink="http://www.w3.org/1999/xlink" x="0px" y="0px"
	 width="60px" height="60px" viewBox="0 0 60 60" enable-background="new 0 0 60 60" xml:space="preserve">
<g>
	<path fill="#010101" d="M29.999,0C14.915,0,2.401,11.192,0.312,25.707C0.109,26.686,0,27.699,0,28.736
		c0,0.05,0.021,0.093,0.029,0.141C0.015,29.251,0,29.624,0,30c0,16.542,13.457,30,29.999,30C46.542,60,60,46.542,60,30
		S46.542,0,29.999,0z M29.999,58C14.561,58,2,45.439,2,30c0-1.334,0.1-2.644,0.281-3.929c1.231-5.822,6.406-10.205,12.588-10.205
		c11.761,0,12.865,6.625,14.144,14.295c1.247,7.484,2.661,15.967,16.118,15.967c4.049,0,7.836-1.976,10.579-5.049
		C51.408,51.023,41.504,58,29.999,58z M45.131,44.128c-11.763,0-12.867-6.625-14.146-14.296
		c-1.247-7.483-2.661-15.966-16.116-15.966c-3.897,0-7.437,1.519-10.091,3.98C9.311,8.477,18.913,2,29.999,2
		C45.438,2,58,14.561,58,30C58,37.394,51.866,44.128,45.131,44.128z"/>
	<path fill="#010101" d="M44,26c-3.309,0-6,2.691-6,6s2.691,6,6,6s6-2.691,6-6S47.309,26,44,26z M44,36c-2.206,0-4-1.794-4-4
		s1.794-4,4-4s4,1.794,4,4S46.206,36,44,36z"/>
	<path fill="#010101" d="M16,21c-3.309,0-6,2.691-6,6s2.691,6,6,6s6-2.691,6-6S19.309,21,16,21z M16,31c-2.206,0-4-1.794-4-4
		s1.794-4,4-4s4,1.794,4,4S18.206,31,16,31z"/>
</g>
</svg>
