<?xml version="1.0" encoding="utf-8"?>
<!-- Generator: Adobe Illustrator 17.1.0, SVG Export Plug-In . SVG Version: 6.00 Build 0)  -->
<!DOCTYPE svg PUBLIC "-//W3C//DTD SVG 1.0//EN" "http://www.w3.org/TR/2001/REC-SVG-20010904/DTD/svg10.dtd">
<svg version="1.0" id="Layer_1" xmlns="http://www.w3.org/2000/svg" xmlns:xlink="http://www.w3.org/1999/xlink" x="0px" y="0px"
	 width="48px" height="48px" viewBox="0 0 48 48" enable-background="new 0 0 48 48" xml:space="preserve">
<g>
	<path d="M16.138,15.324c0.053,0.154,0.147,0.278,0.257,0.385c0.546-0.256,1.106-0.485,1.68-0.686c0-0.007-0.003-0.015-0.003-0.023
		h0.065c0.368-0.127,0.742-0.241,1.121-0.345C19.102,14.479,19,14.253,19,14V0h-5c-0.552,0-1,0.448-1,1v5
		c0,0.11,0.018,0.22,0.054,0.324L16.138,15.324z"/>
	<path d="M27,14V0h-2v14c0,0.018-0.009,0.033-0.01,0.05c0.7,0.038,1.39,0.113,2.067,0.23C27.029,14.189,27,14.099,27,14z"/>
	<path d="M23,14V0h-2v14c0,0.099-0.03,0.189-0.057,0.28c0.677-0.117,1.366-0.191,2.067-0.23C23.009,14.033,23,14.018,23,14z"/>
	<path d="M30.097,15c0,0.027-0.012,0.055-0.01,0.082c0.554,0.2,1.093,0.425,1.62,0.676c0.143-0.117,0.266-0.261,0.327-0.45l2.917-9
		C34.983,6.208,35,6.104,35,6V1c0-0.552-0.448-1-1-1h-5v14c0,0.253-0.102,0.479-0.258,0.655c0.379,0.104,0.752,0.218,1.121,0.345
		H30.097z"/>
	<path d="M24,16c-8.822,0-16,7.178-16,16s7.178,16,16,16c8.822,0,16-7.178,16-16S32.822,16,24,16z M33.624,29.781l-4.48,3.584
		l1.817,6.36c0.114,0.398-0.029,0.825-0.36,1.074C30.424,40.933,30.212,41,30,41c-0.184,0-0.368-0.05-0.53-0.152L24,37.428
		l-5.47,3.42c-0.351,0.219-0.801,0.2-1.132-0.049c-0.33-0.249-0.474-0.676-0.36-1.074l1.817-6.36l-4.48-3.584
		c-0.332-0.265-0.459-0.711-0.319-1.112C14.197,28.268,14.575,28,15,28h5.382l2.724-5.447c0.339-0.678,1.45-0.678,1.789,0L27.618,28
		H33c0.425,0,0.803,0.268,0.944,0.669C34.084,29.07,33.956,29.516,33.624,29.781z"/>
</g>
</svg>
