<?xml version="1.0" encoding="utf-8"?>
<!-- Generator: Adobe Illustrator 17.0.0, SVG Export Plug-In . SVG Version: 6.00 Build 0)  -->
<!DOCTYPE svg PUBLIC "-//W3C//DTD SVG 1.1//EN" "http://www.w3.org/Graphics/SVG/1.1/DTD/svg11.dtd">
<svg version="1.1" id="Layer_2" xmlns="http://www.w3.org/2000/svg" xmlns:xlink="http://www.w3.org/1999/xlink" x="0px" y="0px"
	 width="48px" height="48px" viewBox="0 0 48 48" enable-background="new 0 0 48 48" xml:space="preserve">
<g>
	<path fill="#010101" d="M46.91,0.467c-0.184-0.29-0.503-0.467-0.846-0.467h-3.45l-8.195,17.301c1.279,0.904,2.44,1.963,3.444,3.161
		c0.006-0.011,0.015-0.019,0.021-0.031l9.083-19C47.114,1.122,47.093,0.758,46.91,0.467z"/>
	<path fill="#010101" d="M40.4,0.001h-4.336c-0.387,0-0.739,0.223-0.904,0.573l-6.618,14.014c1.47,0.378,2.873,0.921,4.173,1.637
		L40.4,0.001z"/>
	<path fill="#010101" d="M10.17,20.569c0.992-1.204,2.148-2.263,3.416-3.176L5.347,0.001H1.896c-0.343,0-0.663,0.176-0.846,0.467
		c-0.183,0.29-0.204,0.655-0.056,0.964l9.083,19C10.102,20.483,10.138,20.524,10.17,20.569z"/>
	<path fill="#010101" d="M19.437,14.626L12.801,0.573c-0.165-0.35-0.518-0.573-0.904-0.573H7.56l7.722,16.302
		C16.576,15.576,17.971,15.016,19.437,14.626z"/>
	<path fill="#010101" d="M24.063,16.001c-8.822,0-16,7.178-16,16s7.178,16,16,16s16-7.178,16-16S32.886,16.001,24.063,16.001z
		 M33.688,29.781l-4.48,3.584l1.817,6.36c0.114,0.398-0.029,0.825-0.36,1.074c-0.178,0.134-0.389,0.201-0.602,0.201
		c-0.184,0-0.368-0.05-0.53-0.152l-5.47-3.42l-5.47,3.42c-0.351,0.219-0.801,0.2-1.132-0.049c-0.33-0.249-0.474-0.676-0.36-1.074
		l1.817-6.36l-4.48-3.584c-0.332-0.265-0.46-0.711-0.319-1.112c0.141-0.401,0.519-0.669,0.944-0.669h5.382l2.724-5.447
		c0.339-0.678,1.45-0.678,1.789,0l2.724,5.447h5.382c0.425,0,0.803,0.268,0.944,0.669C34.147,29.07,34.02,29.516,33.688,29.781z"/>
</g>
</svg>
