<?xml version="1.0" encoding="utf-8"?>
<!-- Generator: Adobe Illustrator 17.1.0, SVG Export Plug-In . SVG Version: 6.00 Build 0)  -->
<!DOCTYPE svg PUBLIC "-//W3C//DTD SVG 1.0//EN" "http://www.w3.org/TR/2001/REC-SVG-20010904/DTD/svg10.dtd">
<svg version="1.0" id="Layer_1" xmlns="http://www.w3.org/2000/svg" xmlns:xlink="http://www.w3.org/1999/xlink" x="0px" y="0px"
	 width="48px" height="48px" viewBox="0 0 48 48" enable-background="new 0 0 48 48" xml:space="preserve">
<g>
	<path d="M18.708,27l2.238-8.208c0.375-1.373,1.631-2.332,3.053-2.332s2.678,0.958,3.053,2.331L29.291,27h2.096l4.596-24.818
		c0.054-0.293-0.024-0.593-0.215-0.822C35.579,1.132,35.297,1,35,1h-7v14c0,0.552-0.448,1-1,1s-1-0.448-1-1V1h-4v14
		c0,0.552-0.448,1-1,1s-1-0.448-1-1V1h-7c-0.297,0-0.579,0.132-0.769,0.36c-0.19,0.229-0.269,0.529-0.215,0.822L16.612,27H18.708z"
		/>
	<path d="M37.949,29.684C37.812,29.275,37.431,29,37,29h-7h-1.472c-0.451,0-0.846-0.302-0.965-0.737l-2.44-8.945
		c-0.103-0.379-0.389-0.672-0.746-0.795c-0.119-0.04-0.246-0.062-0.377-0.062c-0.523,0-0.985,0.353-1.124,0.858l-2.439,8.944
		C20.318,28.698,19.923,29,19.472,29H18h-7c-0.431,0-0.812,0.275-0.949,0.684c-0.136,0.408,0.004,0.857,0.348,1.116l2.463,1.847
		l4.925,3.693l-0.285,0.712l-3.431,8.578c-0.167,0.419-0.033,0.898,0.328,1.169c0.36,0.271,0.859,0.268,1.215-0.01L24,40.267
		l8.386,6.522C32.566,46.93,32.783,47,33,47c0.211,0,0.423-0.067,0.601-0.201c0.361-0.271,0.495-0.75,0.328-1.169l-3.431-8.578
		l-0.285-0.712l4.925-3.693l2.463-1.847C37.944,30.541,38.085,30.092,37.949,29.684z"/>
</g>
</svg>
