<?xml version="1.0" encoding="utf-8"?>
<!-- Generator: Adobe Illustrator 17.0.0, SVG Export Plug-In . SVG Version: 6.00 Build 0)  -->
<!DOCTYPE svg PUBLIC "-//W3C//DTD SVG 1.1//EN" "http://www.w3.org/Graphics/SVG/1.1/DTD/svg11.dtd">
<svg version="1.1" id="Layer_2" xmlns="http://www.w3.org/2000/svg" xmlns:xlink="http://www.w3.org/1999/xlink" x="0px" y="0px"
	 width="48px" height="48px" viewBox="0 0 48 48" enable-background="new 0 0 48 48" xml:space="preserve">
<g>
	<path fill="#010101" d="M43.98,13.001c-2.206,0-4,1.794-4,4c0,1.327,0.657,2.496,1.654,3.225l-6.607,6.344l-9.101-9.963
		c1.793-0.76,3.054-2.538,3.054-4.605c0-2.757-2.243-5-5-5c-2.757,0-5,2.243-5,5c0,2.067,1.261,3.845,3.054,4.605l-9.097,9.959
		l-6.564-6.379c0.969-0.73,1.607-1.88,1.607-3.185c0-2.206-1.794-4-4-4c-2.206,0-4,1.794-4,4c0,2.177,1.75,3.945,3.915,3.991
		l4.115,16.254c0.112,0.444,0.512,0.755,0.969,0.755h30c0.456,0,0.855-0.309,0.969-0.751l4.175-16.264
		c2.138-0.078,3.856-1.829,3.856-3.985C47.98,14.795,46.186,13.001,43.98,13.001z"/>
	<path fill="#010101" d="M39.98,40.001h-32c-2.626,0-4,2.012-4,4s1.374,4,4,4h32c2.611,0,3.977-2.012,3.977-3.999
		C43.957,42.013,42.591,40.001,39.98,40.001z"/>
</g>
</svg>
