<?xml version="1.0" encoding="utf-8"?>
<!-- Generator: Adobe Illustrator 17.0.0, SVG Export Plug-In . SVG Version: 6.00 Build 0)  -->
<!DOCTYPE svg PUBLIC "-//W3C//DTD SVG 1.1//EN" "http://www.w3.org/Graphics/SVG/1.1/DTD/svg11.dtd">
<svg version="1.1" id="Layer_2" xmlns="http://www.w3.org/2000/svg" xmlns:xlink="http://www.w3.org/1999/xlink" x="0px" y="0px"
	 width="48px" height="48px" viewBox="0 0 48 48" enable-background="new 0 0 48 48" xml:space="preserve">
<g>
	<path fill="#010101" d="M42.98,2.001h-34c-0.552,0-1,0.448-1,1v24c0,0.552,0.448,1,1,1h34c0.552,0,1-0.448,1-1v-24
		C43.98,2.448,43.532,2.001,42.98,2.001z"/>
	<path fill="#010101" d="M3.98,0.001c-1.105,0-2,0.895-2,2v44c0,1.104,0.895,2,2,2c1.104,0,2-0.896,2-2v-44
		C5.98,0.896,5.084,0.001,3.98,0.001z"/>
</g>
</svg>
