<?xml version="1.0" encoding="utf-8"?>
<!-- Generator: Adobe Illustrator 17.0.0, SVG Export Plug-In . SVG Version: 6.00 Build 0)  -->
<!DOCTYPE svg PUBLIC "-//W3C//DTD SVG 1.1//EN" "http://www.w3.org/Graphics/SVG/1.1/DTD/svg11.dtd">
<svg version="1.1" id="Layer_2" xmlns="http://www.w3.org/2000/svg" xmlns:xlink="http://www.w3.org/1999/xlink" x="0px" y="0px"
	 width="48px" height="48px" viewBox="0 0 48 48" enable-background="new 0 0 48 48" xml:space="preserve">
<g>
	<path fill="#010101" d="M30.658,0.352c-0.375-0.375-1.039-0.375-1.414,0l-12.02,12.021l-3.538-3.536
		c-0.391-0.391-1.023-0.391-1.414,0l-9.9,9.899c-0.188,0.188-0.293,0.442-0.293,0.707c0,0.265,0.105,0.519,0.293,0.707
		l16.971,16.971c0.188,0.188,0.442,0.293,0.707,0.293s0.52-0.105,0.707-0.293l4.245-4.245l3.533,3.538l0,0c0,0,0,0,0,0
		c0.391,0.391,1.024,0.391,1.414,0l17.678-17.678c0.188-0.188,0.293-0.442,0.293-0.707s-0.105-0.52-0.293-0.707L30.658,0.352z
		 M24.996,31.454L24.996,31.454L24.996,31.454z M29.413,28.466c-0.725,1.998-1.127,3.522-1.309,4.685l-1.687-1.689L29.413,28.466z"
		/>
	<path fill="#010101" d="M22.566,47.415c0.39,0.391,0.902,0.586,1.414,0.586c0.512,0,1.024-0.195,1.414-0.586
		c0.781-0.781,0.781-2.047,0-2.828l-22-22c-0.78-0.781-2.048-0.781-2.828,0c-0.781,0.781-0.781,2.047,0,2.828L22.566,47.415z"/>
	<line fill="#010101" x1="24.996" y1="31.454" x2="24.996" y2="31.454"/>
</g>
</svg>
