<?xml version="1.0" encoding="utf-8"?>
<!-- Generator: Adobe Illustrator 17.0.0, SVG Export Plug-In . SVG Version: 6.00 Build 0)  -->
<!DOCTYPE svg PUBLIC "-//W3C//DTD SVG 1.1//EN" "http://www.w3.org/Graphics/SVG/1.1/DTD/svg11.dtd">
<svg version="1.1" id="Layer_2" xmlns="http://www.w3.org/2000/svg" xmlns:xlink="http://www.w3.org/1999/xlink" x="0px" y="0px"
	 width="48px" height="48px" viewBox="0 0 48 48" enable-background="new 0 0 48 48" xml:space="preserve">
<g>
	<path fill="#010101" d="M4,0C2.895,0,2,0.896,2,2v44c0,1.105,0.895,2,2,2c1.104,0,2-0.895,2-2V2C6,0.896,5.104,0,4,0z"/>
	<path fill="#010101" d="M43.607,5.592c-0.247-0.189-0.567-0.25-0.869-0.171c-0.061,0.017-6.175,1.659-10.9,1.659c0,0,0,0-0.001,0
		c-1.623,0-2.871-0.191-3.709-0.566C27.128,6.066,27,5.47,27,5c0-1.369-0.703-3.666-5.407-3.666c-5.149,0-12.61,2.612-12.926,2.724
		C8.268,4.198,8,4.576,8,5v24c0,0.325,0.158,0.629,0.422,0.816c0.265,0.187,0.605,0.236,0.911,0.126
		c0.074-0.026,7.45-2.609,12.26-2.609C25,27.334,25,28.588,25,29c0,1.875,1.205,4.11,6.946,4.11h0
		c4.976,0,11.055-1.605,11.311-1.673C43.695,31.32,44,30.924,44,30.471V6.387C44,6.075,43.855,5.782,43.607,5.592z"/>
</g>
</svg>
