<?xml version="1.0" encoding="utf-8"?>
<!-- Generator: Adobe Illustrator 17.0.0, SVG Export Plug-In . SVG Version: 6.00 Build 0)  -->
<!DOCTYPE svg PUBLIC "-//W3C//DTD SVG 1.1//EN" "http://www.w3.org/Graphics/SVG/1.1/DTD/svg11.dtd">
<svg version="1.1" id="Layer_2" xmlns="http://www.w3.org/2000/svg" xmlns:xlink="http://www.w3.org/1999/xlink" x="0px" y="0px"
	 width="48px" height="48px" viewBox="0 0 48 48" enable-background="new 0 0 48 48" xml:space="preserve">
<g>
	<path fill="#010101" d="M45.513,26.13L31.599,15L45.624,3.781c0.332-0.265,0.46-0.711,0.319-1.112C45.803,2.268,45.425,2,45,2H9
		C8.448,2,8,2.448,8,3v24c0,0.552,0.448,1,1,1h36c0.007,0,0.013,0,0.02,0c0.552,0,1-0.448,1-1
		C46.02,26.627,45.816,26.302,45.513,26.13z"/>
	<path fill="#010101" d="M4,0C2.895,0,2,0.896,2,2v44c0,1.105,0.895,2,2,2c1.104,0,2-0.895,2-2V2C6,0.896,5.104,0,4,0z"/>
</g>
</svg>
