<?xml version="1.0" encoding="utf-8"?>
<!-- Generator: Adobe Illustrator 17.0.0, SVG Export Plug-In . SVG Version: 6.00 Build 0)  -->
<!DOCTYPE svg PUBLIC "-//W3C//DTD SVG 1.1//EN" "http://www.w3.org/Graphics/SVG/1.1/DTD/svg11.dtd">
<svg version="1.1" id="Layer_2" xmlns="http://www.w3.org/2000/svg" xmlns:xlink="http://www.w3.org/1999/xlink" x="0px" y="0px"
	 width="48px" height="48px" viewBox="0 0 48 48" enable-background="new 0 0 48 48" xml:space="preserve">
<path fill="#010101" d="M41.377,13.083L12.234,0.454c-0.301-0.244-0.671-0.4-1.079-0.436c-0.022-0.004-0.044-0.004-0.067-0.007
	c-0.037-0.002-0.071-0.011-0.109-0.011c-0.017,0-0.033,0.005-0.05,0.005c-0.027,0.001-0.053,0.005-0.08,0.008
	C9.807,0.082,8.98,0.941,8.98,2.001v44c0,1.104,0.895,2,2,2c1.104,0,2-0.896,2-2V27.224l28.397-12.306
	c0.366-0.158,0.603-0.519,0.603-0.917C41.98,13.602,41.743,13.241,41.377,13.083z"/>
</svg>
