<?xml version="1.0" encoding="utf-8"?>
<!-- Generator: Adobe Illustrator 17.0.0, SVG Export Plug-In . SVG Version: 6.00 Build 0)  -->
<!DOCTYPE svg PUBLIC "-//W3C//DTD SVG 1.1//EN" "http://www.w3.org/Graphics/SVG/1.1/DTD/svg11.dtd">
<svg version="1.1" id="Layer_2" xmlns="http://www.w3.org/2000/svg" xmlns:xlink="http://www.w3.org/1999/xlink" x="0px" y="0px"
	 width="48px" height="48px" viewBox="0 0 48 48" enable-background="new 0 0 48 48" xml:space="preserve">
<g>
	<path fill="#010101" d="M13.98,0.001h-9c-2.757,0-5,2.243-5,5v5h14V0.001z"/>
	<rect x="15.98" y="0.001" fill="#010101" width="16" height="10"/>
	<path fill="#010101" d="M-0.02,47.001c0,0.552,0.448,1,1,1h46c0.552,0,1-0.448,1-1v-35h-48V47.001z M13.98,27.001
		c0-0.552,0.448-1,1-1h5v-5c0-0.552,0.448-1,1-1h6c0.552,0,1,0.448,1,1v5h5c0.552,0,1,0.448,1,1v6c0,0.552-0.448,1-1,1h-5v5
		c0,0.552-0.448,1-1,1h-6c-0.552,0-1-0.448-1-1v-5h-5c-0.552,0-1-0.448-1-1V27.001z"/>
	<path fill="#010101" d="M42.98,0.001h-9v10h14v-5C47.98,2.244,45.737,0.001,42.98,0.001z"/>
</g>
</svg>
