<?xml version="1.0" encoding="utf-8"?>
<!-- Generator: Adobe Illustrator 17.0.0, SVG Export Plug-In . SVG Version: 6.00 Build 0)  -->
<!DOCTYPE svg PUBLIC "-//W3C//DTD SVG 1.1//EN" "http://www.w3.org/Graphics/SVG/1.1/DTD/svg11.dtd">
<svg version="1.1" id="Layer_2" xmlns="http://www.w3.org/2000/svg" xmlns:xlink="http://www.w3.org/1999/xlink" x="0px" y="0px"
	 width="48px" height="48px" viewBox="0 0 48 48" enable-background="new 0 0 48 48" xml:space="preserve">
<path fill="#010101" d="M45.98,23.001c0-2.206-1.794-4-4-4H27.263c0.573-2.351,1.717-7.436,1.717-10.563
	c0-3.915-2.338-5.698-4.51-5.698c-1.99,0-3.49,1.402-3.49,3.26c0,8.84-7.378,15-14,15h-6c-0.552,0-1,0.448-1,1v18
	c0,0.552,0.448,1,1,1c9.167,0,12.302,1.347,14.822,2.429c1.881,0.808,3.659,1.571,7.178,1.571h13c2.206,0,4-1.794,4-4
	c0-0.823-0.25-1.588-0.677-2.225c1.558-0.547,2.677-2.033,2.677-3.775c0-0.823-0.25-1.588-0.677-2.225
	c1.558-0.547,2.677-2.033,2.677-3.775c0-0.823-0.25-1.588-0.677-2.225C44.86,26.229,45.98,24.743,45.98,23.001z"/>
</svg>
