<?xml version="1.0" encoding="utf-8"?>
<!-- Generator: Adobe Illustrator 17.0.0, SVG Export Plug-In . SVG Version: 6.00 Build 0)  -->
<!DOCTYPE svg PUBLIC "-//W3C//DTD SVG 1.1//EN" "http://www.w3.org/Graphics/SVG/1.1/DTD/svg11.dtd">
<svg version="1.1" id="Layer_2" xmlns="http://www.w3.org/2000/svg" xmlns:xlink="http://www.w3.org/1999/xlink" x="0px" y="0px"
	 width="48px" height="48px" viewBox="0 0 48 48" enable-background="new 0 0 48 48" xml:space="preserve">
<g>
	<path fill="#010101" d="M48,23.317c0-2.206-1.794-4-4-4H31.465c0.85-2.315,2.303-6.963,1.498-9.833
		c-1.251-4.455-3.858-4.801-4.628-4.801C26.465,4.683,25,6.279,25,8.317c0,7.418-6.657,16-11,16c-0.552,0-1,0.448-1,1v17
		c0,0.498,0.366,0.92,0.858,0.99c2.824,0.403,4.498,0.796,5.974,1.144c2.14,0.503,3.687,0.866,7.168,0.866h11c2.654,0,4-1.009,4-3
		c0-0.823-0.25-1.588-0.677-2.225C42.88,39.545,44,38.059,44,36.317c0-0.823-0.25-1.588-0.677-2.225
		C44.88,33.545,46,32.059,46,30.317c0-0.854-0.269-1.646-0.727-2.296C46.952,27.214,48,24.931,48,23.317z"/>
	<path fill="#010101" d="M11,21.317H1c-0.552,0-1,0.448-1,1v24c0,0.552,0.448,1,1,1h10c0.552,0,1-0.448,1-1v-24
		C12,21.765,11.552,21.317,11,21.317z M7,43.317c-0.552,0-1-0.448-1-1s0.448-1,1-1c0.552,0,1,0.448,1,1S7.552,43.317,7,43.317z"/>
</g>
</svg>
