<?xml version="1.0" encoding="utf-8"?>
<!-- Generator: Adobe Illustrator 17.0.0, SVG Export Plug-In . SVG Version: 6.00 Build 0)  -->
<!DOCTYPE svg PUBLIC "-//W3C//DTD SVG 1.1//EN" "http://www.w3.org/Graphics/SVG/1.1/DTD/svg11.dtd">
<svg version="1.1" id="Layer_2" xmlns="http://www.w3.org/2000/svg" xmlns:xlink="http://www.w3.org/1999/xlink" x="0px" y="0px"
	 width="48px" height="48px" viewBox="0 0 48 48" enable-background="new 0 0 48 48" xml:space="preserve">
<g>
	<path fill="#010101" d="M40.131,21.086c-0.05-0.008-0.101-0.012-0.151-0.012h-1.083c0.061,0.493,0.104,0.999,0.104,1.533
		c0,5.247-3.569,10.115-7.021,13.598v1.794c0,2.206,1.794,4,4,4v-5c0-0.552,0.448-1,1-1c0.552,0,1,0.448,1,1v1v3.463v1.537
		c0,3.131,1.495,5,4,5c2.505,0,4-1.869,4-5v-14C45.98,24.737,43.684,21.63,40.131,21.086z"/>
	<path fill="#010101" d="M9.052,21.075H7.98c-0.051,0-0.102,0.004-0.151,0.012c-3.553,0.544-5.849,3.65-5.849,7.914v14
		c0,3.131,1.495,5,4,5c2.505,0,4-1.869,4-5v-1.537v-3.463v-1c0-0.552,0.448-1,1-1c0.552,0,1,0.448,1,1v5c2.206,0,4-1.794,4-4v-1.547
		c-3.462-3.396-7.022-8.247-7.022-13.845C8.958,22.074,8.996,21.568,9.052,21.075z"/>
	<path fill="#010101" d="M23.98,11.001c4.457,0,12-0.843,12-4s-7.543-4-12-4s-12,0.843-12,4S19.523,11.001,23.98,11.001z
		 M23.98,5.001c6.044,0,9.727,1.33,10.006,1.957c-0.28,0.713-3.963,2.043-10.006,2.043s-9.726-1.33-10.006-1.958
		C14.253,6.33,17.936,5.001,23.98,5.001z"/>
	<path fill="#010101" d="M29.949,14.698c-0.251,0-0.508,0.017-0.769,0.047c-0.063,0.007-0.124,0.023-0.187,0.032
		c-0.189,0.028-0.38,0.06-0.571,0.105c-0.119,0.028-0.235,0.066-0.352,0.102c-0.123,0.036-0.245,0.072-0.367,0.116
		c-0.165,0.06-0.326,0.127-0.486,0.2c-0.059,0.027-0.119,0.054-0.178,0.083c-0.853,0.42-1.625,1.022-2.256,1.786
		c-0.003,0.004-0.009,0.006-0.013,0.01c-0.284,0.347-0.554,0.719-0.788,1.15c-0.699-1.316-1.664-2.277-2.736-2.911
		c-0.014-0.008-0.028-0.016-0.042-0.024c-0.248-0.145-0.503-0.271-0.76-0.381c-0.025-0.011-0.049-0.022-0.074-0.032
		c-0.25-0.103-0.502-0.189-0.757-0.26c-0.03-0.008-0.059-0.019-0.088-0.026c-0.25-0.066-0.5-0.115-0.751-0.151
		c-0.034-0.005-0.068-0.014-0.102-0.018c-0.281-0.037-0.561-0.056-0.838-0.056c-3.203,0-6.444,2.457-6.837,7.167
		c-0.026,0.314-0.04,0.638-0.04,0.972c0,5.492,3.965,10.266,7.433,13.393h0c1.431,1.29,2.779,2.304,3.726,2.966
		c0.748,0.523,1.248,0.831,1.343,0.888l0.001,0.001c0.159,0.096,0.338,0.145,0.518,0.145c0.192,0,0.384-0.056,0.551-0.166
		c0.091-0.06,0.549-0.367,1.233-0.874c3.159-2.345,11.238-9.052,11.238-16.353C37.001,17.47,33.368,14.698,29.949,14.698z"/>
</g>
</svg>
