<?xml version="1.0" encoding="utf-8"?>
<!-- Generator: Adobe Illustrator 17.0.0, SVG Export Plug-In . SVG Version: 6.00 Build 0)  -->
<!DOCTYPE svg PUBLIC "-//W3C//DTD SVG 1.1//EN" "http://www.w3.org/Graphics/SVG/1.1/DTD/svg11.dtd">
<svg version="1.1" id="Layer_2" xmlns="http://www.w3.org/2000/svg" xmlns:xlink="http://www.w3.org/1999/xlink" x="0px" y="0px"
	 width="48px" height="48px" viewBox="0 0 48 48" enable-background="new 0 0 48 48" xml:space="preserve">
<g>
	<path fill="#010101" d="M34.98,20.001c3.079,0,5.943,0.935,8.327,2.532c1.038-2.68,1.673-5.431,1.673-8.172
		c0-8.631-5.627-13.147-11.184-13.147c-4.127,0-8.673,2.518-10.816,8.043c-2.109-5.437-6.541-7.915-10.561-7.915
		c-7.51,0-11.439,7.145-11.439,14.203c0,7.035,3.726,14.687,10.774,22.129c5.268,5.562,10.456,9.017,10.674,9.161
		c0.168,0.111,0.36,0.166,0.552,0.166c0.216,0,0.433-0.07,0.612-0.209c0.105-0.082,0.502-0.393,1.11-0.895
		c-2.9-2.737-4.722-6.604-4.722-10.896C19.98,26.73,26.709,20.001,34.98,20.001z"/>
	<path fill="#010101" d="M34.98,22.001c-7.169,0-13,5.832-13,13s5.831,13,13,13c7.168,0,13-5.832,13-13S42.148,22.001,34.98,22.001z
		 M40.435,36.001H29.525c-0.552,0-1-0.448-1-1s0.448-1,1-1h10.909c0.552,0,1,0.448,1,1S40.987,36.001,40.435,36.001z"/>
</g>
</svg>
