<?xml version="1.0" encoding="utf-8"?>
<!-- Generator: Adobe Illustrator 17.0.0, SVG Export Plug-In . SVG Version: 6.00 Build 0)  -->
<!DOCTYPE svg PUBLIC "-//W3C//DTD SVG 1.1//EN" "http://www.w3.org/Graphics/SVG/1.1/DTD/svg11.dtd">
<svg version="1.1" id="Layer_2" xmlns="http://www.w3.org/2000/svg" xmlns:xlink="http://www.w3.org/1999/xlink" x="0px" y="0px"
	 width="48px" height="48px" viewBox="0 0 48 48" enable-background="new 0 0 48 48" xml:space="preserve">
<path fill="#010101" d="M34.816,1.213c-4.127,0-8.673,2.518-10.816,8.043c-2.109-5.437-6.541-7.915-10.561-7.915
	C5.929,1.341,2,8.486,2,15.544c0,7.035,3.726,14.687,10.774,22.129c5.268,5.562,10.456,9.017,10.674,9.161
	C23.616,46.945,23.808,47,24,47c0.216,0,0.433-0.07,0.612-0.209C25.485,46.115,46,30.054,46,14.36
	C46,5.729,40.373,1.213,34.816,1.213z"/>
</svg>
