<?xml version="1.0" encoding="utf-8"?>
<!-- Generator: Adobe Illustrator 17.0.0, SVG Export Plug-In . SVG Version: 6.00 Build 0)  -->
<!DOCTYPE svg PUBLIC "-//W3C//DTD SVG 1.1//EN" "http://www.w3.org/Graphics/SVG/1.1/DTD/svg11.dtd">
<svg version="1.1" id="Layer_2" xmlns="http://www.w3.org/2000/svg" xmlns:xlink="http://www.w3.org/1999/xlink" x="0px" y="0px"
	 width="48px" height="48px" viewBox="0 0 48 48" enable-background="new 0 0 48 48" xml:space="preserve">
<g>
	<polygon fill="#010101" points="0,22 1,22 16,22 16,20 16,16 16,14 0,14 	"/>
	<path fill="#010101" d="M36.021,2.758C34.888,1.624,33.381,1,31.778,1c-1.603,0-3.11,0.624-4.243,1.758
		C26.223,4.069,24.879,8.06,24,11.104c-0.88-3.044-2.224-7.035-3.535-8.346C19.331,1.624,17.825,1,16.222,1
		c-1.603,0-3.11,0.624-4.244,1.758c-2.339,2.34-2.338,6.147,0.001,8.485c0.933,0.932,3.192,1.922,5.491,2.757
		c0.177,0.065,0.354,0.127,0.531,0.19V16v4v2h12v-2v-4v-1.811c0.177-0.062,0.354-0.124,0.531-0.189
		c2.299-0.834,4.558-1.825,5.491-2.758C38.359,8.903,38.359,5.097,36.021,2.758z M13.393,9.828c-1.559-1.559-1.559-4.096,0-5.656
		C14.148,3.416,15.153,3,16.222,3c1.068,0,2.073,0.416,2.829,1.172c1.095,1.095,2.606,5.807,3.557,9.396
		C19.096,12.536,14.492,10.928,13.393,9.828z M34.607,9.828c-1.1,1.1-5.704,2.708-9.215,3.74c0.95-3.589,2.46-8.301,3.557-9.396
		C29.705,3.416,30.71,3,31.778,3c1.068,0,2.073,0.416,2.829,1.172C36.166,5.731,36.166,8.269,34.607,9.828z"/>
	<polygon fill="#010101" points="32,14 32,16 32,20 32,22 47,22 48,22 48,14 	"/>
	<rect x="32" y="24" fill="#010101" width="14" height="24"/>
	<rect x="2" y="24" fill="#010101" width="14" height="24"/>
	<rect x="18" y="24" fill="#010101" width="12" height="24"/>
</g>
</svg>
