<?xml version="1.0" encoding="utf-8"?>
<!-- Generator: Adobe Illustrator 17.0.0, SVG Export Plug-In . SVG Version: 6.00 Build 0)  -->
<!DOCTYPE svg PUBLIC "-//W3C//DTD SVG 1.1//EN" "http://www.w3.org/Graphics/SVG/1.1/DTD/svg11.dtd">
<svg version="1.1" id="Layer_2" xmlns="http://www.w3.org/2000/svg" xmlns:xlink="http://www.w3.org/1999/xlink" x="0px" y="0px"
	 width="48px" height="48px" viewBox="0 0 48 48" enable-background="new 0 0 48 48" xml:space="preserve">
<g>
	<path fill="#010101" d="M41.487,38.071l-17-10c-0.312-0.185-0.701-0.185-1.014,0l-17,10c-0.306,0.18-0.493,0.507-0.493,0.862
		c0,8.429,6,9.134,12.145,9.135h0.001c0.891,0,1.816-0.015,2.769-0.031c2.001-0.032,4.17-0.032,6.171,0
		c0.953,0.016,1.878,0.031,2.769,0.031c6.145,0,12.145-0.706,12.145-9.135C41.98,38.578,41.792,38.251,41.487,38.071z"/>
	<path fill="#010101" d="M41.487,26.071l-17-10c-0.312-0.185-0.701-0.185-1.014,0l-17,10c-0.306,0.18-0.493,0.507-0.493,0.862v6
		c0,0.359,0.192,0.69,0.503,0.868c0.312,0.178,0.695,0.176,1.003-0.006l16.493-9.702l16.493,9.702
		c0.156,0.092,0.332,0.138,0.507,0.138c0.171,0,0.343-0.044,0.497-0.132c0.311-0.178,0.503-0.509,0.503-0.868v-6
		C41.98,26.578,41.792,26.251,41.487,26.071z"/>
	<path fill="#010101" d="M41.487,14.071l-17-10c-0.312-0.185-0.701-0.185-1.014,0l-17,10c-0.306,0.18-0.493,0.507-0.493,0.862v6
		c0,0.359,0.192,0.69,0.503,0.868c0.312,0.178,0.695,0.176,1.003-0.006l16.493-9.702l16.493,9.702
		c0.156,0.092,0.332,0.138,0.507,0.138c0.171,0,0.343-0.044,0.497-0.132c0.311-0.178,0.503-0.509,0.503-0.868v-6
		C41.98,14.578,41.792,14.251,41.487,14.071z"/>
</g>
</svg>
