<?xml version="1.0" encoding="utf-8"?>
<!-- Generator: Adobe Illustrator 17.0.0, SVG Export Plug-In . SVG Version: 6.00 Build 0)  -->
<!DOCTYPE svg PUBLIC "-//W3C//DTD SVG 1.1//EN" "http://www.w3.org/Graphics/SVG/1.1/DTD/svg11.dtd">
<svg version="1.1" id="Layer_2" xmlns="http://www.w3.org/2000/svg" xmlns:xlink="http://www.w3.org/1999/xlink" x="0px" y="0px"
	 width="48px" height="48px" viewBox="0 0 48 48" enable-background="new 0 0 48 48" xml:space="preserve">
<g>
	<path fill="#010101" d="M41.487,40.138l-17-10c-0.312-0.185-0.701-0.185-1.014,0l-17,10C6.167,40.318,5.98,40.646,5.98,41v6
		c0,0.359,0.192,0.69,0.503,0.868c0.312,0.178,0.695,0.177,1.003-0.006L23.98,38.16l16.493,9.702C40.629,47.954,40.805,48,40.98,48
		c0.171,0,0.343-0.044,0.497-0.132C41.788,47.69,41.98,47.359,41.98,47v-6C41.98,40.646,41.792,40.318,41.487,40.138z"/>
	<path fill="#010101" d="M41.487,27.138l-17-10c-0.312-0.185-0.701-0.185-1.014,0l-17,10C6.167,27.318,5.98,27.646,5.98,28v6
		c0,0.359,0.192,0.69,0.503,0.868c0.312,0.178,0.695,0.177,1.003-0.006L23.98,25.16l16.493,9.702C40.629,34.954,40.805,35,40.98,35
		c0.171,0,0.343-0.044,0.497-0.132C41.788,34.69,41.98,34.359,41.98,34v-6C41.98,27.646,41.792,27.318,41.487,27.138z"/>
	<path fill="#010101" d="M41.487,14.138l-17-10c-0.312-0.185-0.701-0.185-1.014,0l-17,10C6.167,14.318,5.98,14.646,5.98,15v6
		c0,0.359,0.192,0.69,0.503,0.868c0.312,0.178,0.695,0.176,1.003-0.006L23.98,12.16l16.493,9.702C40.629,21.954,40.805,22,40.98,22
		c0.171,0,0.343-0.044,0.497-0.132C41.788,21.69,41.98,21.359,41.98,21v-6C41.98,14.646,41.792,14.318,41.487,14.138z"/>
</g>
</svg>
