<?xml version="1.0" encoding="utf-8"?>
<!-- Generator: Adobe Illustrator 17.0.0, SVG Export Plug-In . SVG Version: 6.00 Build 0)  -->
<!DOCTYPE svg PUBLIC "-//W3C//DTD SVG 1.1//EN" "http://www.w3.org/Graphics/SVG/1.1/DTD/svg11.dtd">
<svg version="1.1" id="Layer_2" xmlns="http://www.w3.org/2000/svg" xmlns:xlink="http://www.w3.org/1999/xlink" x="0px" y="0px"
	 width="48px" height="48px" viewBox="0 0 48 48" enable-background="new 0 0 48 48" xml:space="preserve">
<path fill="#010101" d="M35.685,0.373c-0.326,0-0.632,0.159-0.819,0.427L23.482,17.063c-1.532,0.193-2.95,0.878-4.06,1.988
	c-1.11,1.11-1.795,2.528-1.988,4.061L1.171,34.494c-0.268,0.187-0.427,0.493-0.427,0.819c0,4.143,8.171,12.314,12.314,12.314
	c0.326,0,0.632-0.159,0.819-0.427L24.84,31.539l11.552,11.553c0.191,0.191,0.447,0.293,0.707,0.293c0.129,0,0.259-0.025,0.383-0.076
	c0.374-0.155,0.617-0.519,0.617-0.924v-4.657h4.656c0.404,0,0.769-0.244,0.924-0.617c0.155-0.374,0.069-0.804-0.217-1.09
	L31.911,24.468l15.662-10.962C47.841,13.318,48,13.012,48,12.686C47.998,8.542,39.827,0.373,35.685,0.373z M32.15,17.636
	l-3.607,3.607c1.282,1.941,1.07,4.586-0.637,6.292C26.961,28.48,25.706,29,24.371,29c-0.995,0-1.945-0.291-2.757-0.83l-3.607,3.607
	c-0.195,0.195-0.451,0.293-0.707,0.293c-0.256,0-0.512-0.098-0.707-0.293c-0.391-0.391-0.391-1.023,0-1.414l3.606-3.606
	c-0.539-0.811-0.829-1.762-0.829-2.757c0-1.335,0.52-2.591,1.465-3.536C21.781,19.52,23.036,19,24.371,19
	c0.996,0,1.947,0.291,2.758,0.83l3.607-3.607c0.391-0.391,1.023-0.391,1.414,0C32.541,16.613,32.541,17.246,32.15,17.636z"/>
</svg>
