<?xml version="1.0" encoding="utf-8"?>
<!-- Generator: Adobe Illustrator 17.0.0, SVG Export Plug-In . SVG Version: 6.00 Build 0)  -->
<!DOCTYPE svg PUBLIC "-//W3C//DTD SVG 1.1//EN" "http://www.w3.org/Graphics/SVG/1.1/DTD/svg11.dtd">
<svg version="1.1" id="Layer_2" xmlns="http://www.w3.org/2000/svg" xmlns:xlink="http://www.w3.org/1999/xlink" x="0px" y="0px"
	 width="48px" height="48px" viewBox="0 0 48 48" enable-background="new 0 0 48 48" xml:space="preserve">
<path fill="#010101" d="M47.98,24.001c0-0.297-0.132-0.578-0.36-0.768l-3.811-3.176l2.305-4.393
	c0.138-0.263,0.152-0.573,0.039-0.848c-0.114-0.274-0.343-0.484-0.626-0.572l-4.736-1.476l0.45-4.941
	c0.027-0.295-0.079-0.587-0.289-0.797c-0.21-0.21-0.5-0.312-0.797-0.289L35.212,7.19l-1.476-4.736
	c-0.088-0.284-0.298-0.513-0.572-0.627c-0.275-0.113-0.584-0.1-0.848,0.039l-4.392,2.305L24.748,0.36
	c-0.38-0.456-1.156-0.456-1.536,0l-3.176,3.811l-4.393-2.305c-0.263-0.138-0.573-0.152-0.848-0.039
	c-0.274,0.114-0.484,0.343-0.572,0.627L12.748,7.19L7.807,6.741C7.51,6.718,7.22,6.821,7.01,7.03C6.8,7.24,6.694,7.532,6.721,7.828
	l0.449,4.941l-4.736,1.476c-0.283,0.088-0.513,0.298-0.627,0.572c-0.114,0.274-0.1,0.585,0.039,0.848l2.305,4.393L0.34,23.232
	c-0.228,0.19-0.36,0.471-0.36,0.768s0.132,0.578,0.36,0.768l3.811,3.176l-2.305,4.393c-0.138,0.263-0.152,0.573-0.039,0.848
	c0.114,0.274,0.343,0.483,0.627,0.572l4.736,1.476l-0.449,4.941C6.694,40.469,6.8,40.761,7.01,40.971
	c0.21,0.21,0.505,0.314,0.797,0.289l4.941-0.45l1.476,4.737c0.088,0.283,0.298,0.513,0.572,0.626
	c0.275,0.114,0.585,0.099,0.848-0.039l4.393-2.306l3.176,3.811c0.19,0.228,0.471,0.36,0.768,0.36c0.297,0,0.578-0.132,0.768-0.36
	l3.176-3.811l4.392,2.306c0.262,0.138,0.572,0.152,0.848,0.039c0.274-0.113,0.483-0.343,0.572-0.626l1.476-4.737l4.941,0.45
	c0.295,0.024,0.587-0.079,0.797-0.289c0.21-0.21,0.316-0.502,0.289-0.797l-0.45-4.941l4.736-1.476
	c0.284-0.088,0.513-0.298,0.626-0.572c0.114-0.274,0.1-0.584-0.039-0.848l-2.305-4.393l3.811-3.176
	C47.848,24.579,47.98,24.297,47.98,24.001z M31.916,33.648c0.156,0.417,0.018,0.887-0.339,1.153C31.4,34.934,31.19,35,30.98,35
	c-0.213,0-0.425-0.068-0.604-0.203l-6.383-4.838l-6.41,4.839c-0.355,0.268-0.845,0.269-1.201,0.003
	c-0.356-0.266-0.495-0.736-0.338-1.152l2.751-7.335l-5.455-4.545c-0.323-0.27-0.443-0.712-0.3-1.108
	c0.144-0.396,0.52-0.66,0.94-0.66h6.342l2.753-6.391c0.158-0.367,0.519-0.604,0.919-0.604h0.001c0.4,0,0.761,0.24,0.918,0.607
	l2.727,6.388h6.339c0.421,0,0.797,0.264,0.94,0.66c0.143,0.396,0.023,0.839-0.3,1.108l-5.455,4.545L31.916,33.648z"/>
</svg>
