<?xml version="1.0" encoding="utf-8"?>
<!-- Generator: Adobe Illustrator 17.0.0, SVG Export Plug-In . SVG Version: 6.00 Build 0)  -->
<!DOCTYPE svg PUBLIC "-//W3C//DTD SVG 1.1//EN" "http://www.w3.org/Graphics/SVG/1.1/DTD/svg11.dtd">
<svg version="1.1" id="Layer_2" xmlns="http://www.w3.org/2000/svg" xmlns:xlink="http://www.w3.org/1999/xlink" x="0px" y="0px"
	 width="48px" height="48px" viewBox="0 0 48 48" enable-background="new 0 0 48 48" xml:space="preserve">
<path fill="#010101" d="M41,0H7C6.448,0,6,0.448,6,1v46c0,0.366,0.2,0.703,0.522,0.878c0.322,0.175,0.713,0.16,1.021-0.039
	L24,37.191l16.456,10.648C40.622,47.946,40.81,48,41,48c0.164,0,0.329-0.04,0.478-0.122C41.8,47.703,42,47.366,42,47V1
	C42,0.448,41.552,0,41,0z M35.64,16.768l-5.517,4.598l1.848,7.391c0.102,0.407-0.061,0.833-0.407,1.069
	C31.393,29.942,31.196,30,31,30c-0.204,0-0.408-0.062-0.581-0.186L24,25.229l-6.419,4.585c-0.341,0.243-0.798,0.249-1.144,0.013
	c-0.346-0.236-0.509-0.663-0.407-1.069l1.848-7.391l-5.518-4.598c-0.323-0.27-0.443-0.712-0.3-1.108C12.203,15.264,12.579,15,13,15
	h7.341l2.74-6.394C23.238,8.238,23.6,8,24,8c0.4,0,0.762,0.238,0.919,0.606L27.659,15H35c0.421,0,0.797,0.264,0.94,0.66
	C36.083,16.056,35.963,16.499,35.64,16.768z"/>
</svg>
