<?xml version="1.0" encoding="utf-8"?>
<!-- Generator: Adobe Illustrator 17.0.0, SVG Export Plug-In . SVG Version: 6.00 Build 0)  -->
<!DOCTYPE svg PUBLIC "-//W3C//DTD SVG 1.1//EN" "http://www.w3.org/Graphics/SVG/1.1/DTD/svg11.dtd">
<svg version="1.1" id="Layer_2" xmlns="http://www.w3.org/2000/svg" xmlns:xlink="http://www.w3.org/1999/xlink" x="0px" y="0px"
	 width="48px" height="48px" viewBox="0 0 48 48" enable-background="new 0 0 48 48" xml:space="preserve">
<path fill="#010101" d="M48,24c0-1.8-0.962-3.409-2.438-4.289c1.026-1.378,1.299-3.233,0.61-4.895
	c-0.681-1.646-2.165-2.781-3.893-3.03c0.421-1.665-0.037-3.484-1.309-4.757c-1.239-1.239-3.091-1.731-4.756-1.309
	c-0.249-1.7-1.368-3.204-3.03-3.893c-1.631-0.676-3.539-0.407-4.896,0.608C27.407,0.961,25.799,0,24,0s-3.408,0.961-4.288,2.436
	c-1.358-1.015-3.264-1.285-4.897-0.609c-1.663,0.689-2.781,2.193-3.029,3.893c-1.666-0.419-3.517,0.072-4.756,1.31
	c-1.273,1.272-1.731,3.09-1.309,4.756c-1.727,0.25-3.21,1.383-3.893,3.03c-0.688,1.662-0.416,3.517,0.61,4.894
	C0.961,20.591,0,22.2,0,24c0,1.799,0.962,3.408,2.437,4.289c-1.026,1.377-1.299,3.232-0.611,4.896
	c0.683,1.646,2.167,2.78,3.894,3.029c-0.421,1.666,0.037,3.483,1.309,4.757c1.239,1.238,3.088,1.729,4.756,1.309
	c0.249,1.7,1.368,3.204,3.029,3.893c1.632,0.677,3.539,0.407,4.897-0.608C20.592,47.039,22.201,48,24,48s3.408-0.961,4.288-2.436
	c1.357,1.014,3.263,1.284,4.896,0.608c1.663-0.688,2.782-2.192,3.03-3.893c1.667,0.421,3.518-0.07,4.757-1.309
	c1.272-1.272,1.73-3.09,1.309-4.756c1.728-0.25,3.211-1.383,3.894-3.03c0.688-1.663,0.416-3.517-0.611-4.895
	C47.039,27.41,48,25.8,48,24z M36.651,20.759l-6.506,5.577l2.813,9.377c0.124,0.414-0.032,0.86-0.386,1.107
	C32.4,36.94,32.2,37,32,37c-0.211,0-0.422-0.067-0.6-0.2L24,31.25l-7.4,5.55c-0.346,0.26-0.819,0.267-1.172,0.02
	c-0.354-0.247-0.51-0.693-0.386-1.107l2.813-9.377l-6.506-5.577c-0.318-0.273-0.432-0.714-0.287-1.107
	C11.208,19.261,11.582,19,12,19h8.307l2.756-7.351C23.21,11.259,23.583,11,24,11s0.79,0.259,0.937,0.649L27.693,19H36
	c0.418,0,0.792,0.261,0.938,0.653C37.083,20.045,36.969,20.487,36.651,20.759z"/>
</svg>
