<?xml version="1.0" encoding="utf-8"?>
<!-- Generator: Adobe Illustrator 17.0.0, SVG Export Plug-In . SVG Version: 6.00 Build 0)  -->
<!DOCTYPE svg PUBLIC "-//W3C//DTD SVG 1.1//EN" "http://www.w3.org/Graphics/SVG/1.1/DTD/svg11.dtd">
<svg version="1.1" id="Layer_2" xmlns="http://www.w3.org/2000/svg" xmlns:xlink="http://www.w3.org/1999/xlink" x="0px" y="0px"
	 width="48px" height="48px" viewBox="0 0 48 48" enable-background="new 0 0 48 48" xml:space="preserve">
<g>
	<path fill="#010101" d="M30.98,22.001c0.215,0,0.43-0.069,0.609-0.207c0.349-0.268,0.482-0.732,0.328-1.145l-2.751-7.335
		l5.455-4.545c0.323-0.27,0.443-0.712,0.3-1.108c-0.144-0.396-0.52-0.66-0.94-0.66h-7.246l-1.793-6.275
		c-0.122-0.429-0.515-0.725-0.961-0.725c-0.446,0-0.839,0.296-0.961,0.725l-1.793,6.275H13.98c-0.421,0-0.797,0.264-0.94,0.66
		c-0.143,0.396-0.023,0.839,0.3,1.108l5.455,4.545l-2.751,7.335c-0.154,0.412-0.021,0.877,0.328,1.145
		c0.349,0.267,0.833,0.275,1.19,0.021l6.419-4.585l6.419,4.585C30.573,21.939,30.776,22.001,30.98,22.001z"/>
	<path fill="#010101" d="M47.92,33.66c-0.144-0.396-0.52-0.66-0.94-0.66h-7.246l-1.793-6.275c-0.123-0.429-0.515-0.725-0.961-0.725
		c-0.446,0-0.839,0.296-0.961,0.725l-1.793,6.275H26.98c-0.421,0-0.797,0.264-0.94,0.66c-0.143,0.396-0.023,0.839,0.3,1.108
		l5.455,4.545l-2.751,7.335c-0.154,0.412-0.021,0.876,0.328,1.145c0.349,0.267,0.832,0.275,1.19,0.021l6.419-4.585l6.419,4.585
		c0.174,0.124,0.377,0.186,0.581,0.186c0.215,0,0.43-0.069,0.609-0.207c0.349-0.268,0.482-0.732,0.328-1.145l-2.751-7.335
		l5.455-4.545C47.943,34.499,48.063,34.056,47.92,33.66z"/>
	<path fill="#010101" d="M20.98,33.001h-7.246l-1.793-6.275c-0.122-0.429-0.515-0.725-0.961-0.725c-0.446,0-0.839,0.296-0.961,0.725
		l-1.793,6.275H0.98c-0.421,0-0.797,0.264-0.94,0.66c-0.143,0.396-0.023,0.839,0.3,1.108l5.455,4.545l-2.751,7.335
		c-0.154,0.412-0.021,0.876,0.328,1.145c0.349,0.267,0.832,0.275,1.19,0.021l6.419-4.585l6.419,4.585
		c0.174,0.124,0.378,0.186,0.581,0.186c0.215,0,0.43-0.069,0.609-0.207c0.349-0.268,0.482-0.732,0.328-1.145l-2.751-7.335
		l5.455-4.545c0.323-0.27,0.443-0.712,0.3-1.108C21.777,33.264,21.401,33.001,20.98,33.001z"/>
</g>
</svg>
