<?xml version="1.0" encoding="utf-8"?>
<!-- Generator: Adobe Illustrator 17.0.0, SVG Export Plug-In . SVG Version: 6.00 Build 0)  -->
<!DOCTYPE svg PUBLIC "-//W3C//DTD SVG 1.1//EN" "http://www.w3.org/Graphics/SVG/1.1/DTD/svg11.dtd">
<svg version="1.1" id="Layer_1" xmlns="http://www.w3.org/2000/svg" xmlns:xlink="http://www.w3.org/1999/xlink" x="0px" y="0px"
	 width="48px" height="48px" viewBox="0 0 48 48" enable-background="new 0 0 48 48" xml:space="preserve">
<path fill="#010101" d="M42.001,0c-3.309,0-6,2.691-6,6c0,2.239,1.234,4.191,3.056,5.222L34.061,25.1
	c-0.345-0.062-0.698-0.1-1.06-0.1c-1.459,0-2.798,0.525-3.839,1.394l-5.026-4.307c0.545-0.903,0.865-1.957,0.865-3.087
	c0-3.309-2.691-6-6-6c-3.309,0-6,2.691-6,6c0,1.876,0.867,3.553,2.22,4.654l-7.183,12.71C7.401,36.133,6.717,36,6.001,36
	c-3.309,0-6,2.691-6,6c0,3.309,2.691,6,6,6c3.309,0,6-2.691,6-6c0-1.877-0.868-3.554-2.221-4.655l7.183-12.709
	C17.6,24.867,18.285,25,19.001,25c1.458,0,2.796-0.524,3.837-1.392l5.026,4.308c-0.544,0.903-0.863,1.956-0.863,3.085
	c0,3.309,2.691,6,6,6c3.309,0,6-2.691,6-6c0-2.24-1.236-4.193-3.059-5.224L40.938,11.9c0.346,0.062,0.7,0.1,1.063,0.1
	c3.309,0,6-2.691,6-6C48.001,2.691,45.31,0,42.001,0z"/>
</svg>
