<?xml version="1.0" encoding="utf-8"?>
<!-- Generator: Adobe Illustrator 17.0.0, SVG Export Plug-In . SVG Version: 6.00 Build 0)  -->
<!DOCTYPE svg PUBLIC "-//W3C//DTD SVG 1.1//EN" "http://www.w3.org/Graphics/SVG/1.1/DTD/svg11.dtd">
<svg version="1.1" id="Layer_1" xmlns="http://www.w3.org/2000/svg" xmlns:xlink="http://www.w3.org/1999/xlink" x="0px" y="0px"
	 width="48px" height="48px" viewBox="0 0 48 48" enable-background="new 0 0 48 48" xml:space="preserve">
<path fill="#010101" d="M42.953,36.083C42.479,29.343,36.858,24,29.999,24h-5V11.91c2.833-0.478,5-2.942,5-5.91c0-3.309-2.691-6-6-6
	s-6,2.691-6,6c0,2.967,2.167,5.431,5,5.91V24h-5c-6.858,0-12.48,5.343-12.954,12.083C2.19,36.542-0.001,39.017-0.001,42
	c0,3.309,2.691,6,6,6s6-2.691,6-6c0-2.951-2.144-5.406-4.954-5.903C7.507,30.454,12.239,26,17.999,26h5v10.09
	c-2.833,0.478-5,2.942-5,5.91c0,3.309,2.691,6,6,6s6-2.691,6-6c0-2.967-2.167-5.431-5-5.91V26h5c5.761,0,10.493,4.454,10.954,10.097
	c-2.811,0.497-4.954,2.951-4.954,5.903c0,3.309,2.691,6,6,6c3.309,0,6-2.691,6-6C47.999,39.017,45.809,36.542,42.953,36.083z"/>
</svg>
