<?xml version="1.0" encoding="utf-8"?>
<!-- Generator: Adobe Illustrator 17.0.0, SVG Export Plug-In . SVG Version: 6.00 Build 0)  -->
<!DOCTYPE svg PUBLIC "-//W3C//DTD SVG 1.1//EN" "http://www.w3.org/Graphics/SVG/1.1/DTD/svg11.dtd">
<svg version="1.1" id="Layer_1" xmlns="http://www.w3.org/2000/svg" xmlns:xlink="http://www.w3.org/1999/xlink" x="0px" y="0px"
	 width="48px" height="48px" viewBox="0 0 48 48" enable-background="new 0 0 48 48" xml:space="preserve">
<g>
	<path fill="#010101" d="M47.707,6.294l-6-6.001C41.519,0.106,41.266,0,41,0H31c-0.553,0-1,0.448-1,1v7h-1c-0.553,0-1,0.448-1,1
		c0,0.552,0.447,1,1,1h1v11c0,0.552,0.447,1,1,1h16c0.553,0,1-0.448,1-1V7.001C48,6.736,47.894,6.481,47.707,6.294z M41,7V1l6,6H41z
		"/>
	<path fill="#010101" d="M41.707,26.293C41.519,26.106,41.266,26,41,26H31c-0.553,0-1,0.448-1,1v11h-1c-0.553,0-1,0.448-1,1
		c0,0.552,0.447,1,1,1h1v7c0,0.552,0.447,1,1,1h16c0.553,0,1-0.448,1-1V33c0-0.265-0.106-0.519-0.293-0.707L41.707,26.293z M41,33
		v-6l6,6H41z"/>
	<path fill="#010101" d="M11,4c0.553,0,1-0.448,1-1V1c0-0.552-0.447-1-1-1c-0.553,0-1,0.448-1,1v2C10,3.552,10.447,4,11,4z"/>
	<path fill="#010101" d="M11,16c0.553,0,1-0.448,1-1v-2c0-0.552-0.447-1-1-1c-0.553,0-1,0.448-1,1v2C10,15.552,10.447,16,11,16z"/>
	<path fill="#010101" d="M13,8h-1V7c0-0.552-0.447-1-1-1c-0.553,0-1,0.448-1,1v2c0,0.552,0.447,1,1,1h2c0.553,0,1-0.448,1-1
		C14,8.448,13.553,8,13,8z"/>
	<path fill="#010101" d="M11,22c0.553,0,1-0.448,1-1v-2c0-0.552-0.447-1-1-1c-0.553,0-1,0.448-1,1v2C10,21.552,10.447,22,11,22z"/>
	<path fill="#010101" d="M11,28c0.553,0,1-0.448,1-1v-2c0-0.552-0.447-1-1-1c-0.553,0-1,0.448-1,1v2C10,27.552,10.447,28,11,28z"/>
	<path fill="#010101" d="M11,34c0.553,0,1-0.448,1-1v-2c0-0.552-0.447-1-1-1c-0.553,0-1,0.448-1,1v2C10,33.552,10.447,34,11,34z"/>
	<path fill="#010101" d="M13,38h-1v-1c0-0.552-0.447-1-1-1c-0.553,0-1,0.448-1,1v2c0,0.552,0.447,1,1,1h2c0.553,0,1-0.448,1-1
		C14,38.448,13.553,38,13,38z"/>
	<path fill="#010101" d="M19,8h-2c-0.553,0-1,0.448-1,1c0,0.552,0.447,1,1,1h2c0.553,0,1-0.448,1-1C20,8.448,19.553,8,19,8z"/>
	<path fill="#010101" d="M25,8h-2c-0.553,0-1,0.448-1,1c0,0.552,0.447,1,1,1h2c0.553,0,1-0.448,1-1C26,8.448,25.553,8,25,8z"/>
	<path fill="#010101" d="M19,38h-2c-0.553,0-1,0.448-1,1c0,0.552,0.447,1,1,1h2c0.553,0,1-0.448,1-1C20,38.448,19.553,38,19,38z"/>
	<path fill="#010101" d="M25,38h-2c-0.553,0-1,0.448-1,1c0,0.552,0.447,1,1,1h2c0.553,0,1-0.448,1-1C26,38.448,25.553,38,25,38z"/>
</g>
</svg>
