<?xml version="1.0" encoding="utf-8"?>
<!-- Generator: Adobe Illustrator 17.0.0, SVG Export Plug-In . SVG Version: 6.00 Build 0)  -->
<!DOCTYPE svg PUBLIC "-//W3C//DTD SVG 1.1//EN" "http://www.w3.org/Graphics/SVG/1.1/DTD/svg11.dtd">
<svg version="1.1" id="Layer_1" xmlns="http://www.w3.org/2000/svg" xmlns:xlink="http://www.w3.org/1999/xlink" x="0px" y="0px"
	 width="48px" height="48px" viewBox="0 0 48 48" enable-background="new 0 0 48 48" xml:space="preserve">
<path fill="#010101" d="M47,36h-4.051C42.435,29.299,36.83,24,30,24h-5V12.001h4c0.553,0,1-0.448,1-1V1c0-0.552-0.447-1-1-1H19
	c-0.553,0-1,0.448-1,1v10.001c0,0.552,0.447,1,1,1h4V24h-5c-6.83,0-12.436,5.299-12.949,12H1c-0.553,0-1,0.448-1,1v10
	c0,0.552,0.447,1,1,1h10c0.553,0,1-0.448,1-1V37c0-0.552-0.447-1-1-1H7.051C7.558,30.402,12.272,26,18,26h5v10h-4
	c-0.553,0-1,0.448-1,1v10c0,0.552,0.447,1,1,1h10c0.553,0,1-0.448,1-1V37c0-0.552-0.447-1-1-1h-4V26h5
	c5.728,0,10.442,4.402,10.949,10H37c-0.553,0-1,0.448-1,1v10c0,0.552,0.447,1,1,1h10c0.553,0,1-0.448,1-1V37
	C48,36.448,47.553,36,47,36z"/>
</svg>
