<?xml version="1.0" encoding="utf-8"?>
<!-- Generator: Adobe Illustrator 17.0.0, SVG Export Plug-In . SVG Version: 6.00 Build 0)  -->
<!DOCTYPE svg PUBLIC "-//W3C//DTD SVG 1.1//EN" "http://www.w3.org/Graphics/SVG/1.1/DTD/svg11.dtd">
<svg version="1.1" id="Layer_1" xmlns="http://www.w3.org/2000/svg" xmlns:xlink="http://www.w3.org/1999/xlink" x="0px" y="0px"
	 width="48px" height="48px" viewBox="0 0 48 48" enable-background="new 0 0 48 48" xml:space="preserve">
<path fill="#010101" d="M39,30c-0.932,0-1.831,0.143-2.678,0.407l-7.061-14.12C31.521,14.65,33,11.998,33,9.001
	C33,4.038,28.963,0,24,0c-4.963,0-9,4.038-9,9.001c0,2.997,1.478,5.649,3.738,7.286l-7.059,14.121C10.832,30.143,9.933,30,9,30
	c-4.963,0-9,4.038-9,9c0,4.962,4.037,9,9,9c4.624,0,8.441-3.507,8.941-8h12.118c0.5,4.493,4.316,8,8.941,8c4.963,0,9-4.038,9-9
	C48,34.038,43.963,30,39,30z M30.059,38H17.941c-0.322-2.896-2.025-5.376-4.433-6.778l6.97-13.941C21.56,17.743,22.75,18,24,18
	c1.249,0,2.44-0.257,3.522-0.719l6.971,13.941C32.085,32.623,30.381,35.103,30.059,38z"/>
</svg>
