<?xml version="1.0" encoding="utf-8"?>
<!-- Generator: Adobe Illustrator 17.0.0, SVG Export Plug-In . SVG Version: 6.00 Build 0)  -->
<!DOCTYPE svg PUBLIC "-//W3C//DTD SVG 1.1//EN" "http://www.w3.org/Graphics/SVG/1.1/DTD/svg11.dtd">
<svg version="1.1" id="Layer_2" xmlns="http://www.w3.org/2000/svg" xmlns:xlink="http://www.w3.org/1999/xlink" x="0px" y="0px"
	 width="60px" height="60px" viewBox="0 0 60 60" enable-background="new 0 0 60 60" xml:space="preserve">
<path fill="#010101" d="M30,0C13.458,0,0,13.458,0,30s13.458,30,30,30s30-13.458,30-30S46.542,0,30,0z M50.02,36
	c-0.005,0-0.013,0.001-0.02,0H40c-0.266,0-0.52-0.105-0.707-0.293L30,26.414l-9.293,9.293C20.52,35.895,20.266,36,20,36H10
	c-0.404,0-0.77-0.244-0.924-0.617c-0.155-0.374-0.069-0.804,0.217-1.09l20-20c0.391-0.391,1.023-0.391,1.414,0l19.892,19.891
	c0.255,0.181,0.421,0.479,0.421,0.816C51.02,35.552,50.572,36,50.02,36z"/>
</svg>
