<?xml version="1.0" encoding="utf-8"?>
<!-- Generator: Adobe Illustrator 17.0.0, SVG Export Plug-In . SVG Version: 6.00 Build 0)  -->
<!DOCTYPE svg PUBLIC "-//W3C//DTD SVG 1.1//EN" "http://www.w3.org/Graphics/SVG/1.1/DTD/svg11.dtd">
<svg version="1.1" id="Layer_2" xmlns="http://www.w3.org/2000/svg" xmlns:xlink="http://www.w3.org/1999/xlink" x="0px" y="0px"
	 width="60px" height="60px" viewBox="0 0 60 60" enable-background="new 0 0 60 60" xml:space="preserve">
<path fill="#010101" d="M30,0C13.458,0,0,13.458,0,30s13.458,30,30,30s30-13.458,30-30S46.542,0,30,0z M45.707,30.707l-20,20
	C25.516,50.898,25.26,51,25,51c-0.129,0-0.259-0.025-0.383-0.076C24.243,50.769,24,50.404,24,50V40c0-0.265,0.105-0.52,0.293-0.707
	L33.586,30l-9.293-9.293C24.105,20.52,24,20.265,24,20V10c0-0.404,0.243-0.769,0.617-0.924c0.375-0.153,0.804-0.07,1.09,0.217l20,20
	C46.098,29.684,46.098,30.316,45.707,30.707z"/>
</svg>
