<?xml version="1.0" encoding="utf-8"?>
<!-- Generator: Adobe Illustrator 17.0.0, SVG Export Plug-In . SVG Version: 6.00 Build 0)  -->
<!DOCTYPE svg PUBLIC "-//W3C//DTD SVG 1.1//EN" "http://www.w3.org/Graphics/SVG/1.1/DTD/svg11.dtd">
<svg version="1.1" id="Layer_2" xmlns="http://www.w3.org/2000/svg" xmlns:xlink="http://www.w3.org/1999/xlink" x="0px" y="0px"
	 width="60px" height="60px" viewBox="0 0 60 60" enable-background="new 0 0 60 60" xml:space="preserve">
<path fill="#010101" d="M30,0C13.458,0,0,13.458,0,30s13.458,30,30,30s30-13.458,30-30S46.542,0,30,0z M36,20
	c0,0.265-0.106,0.52-0.293,0.707L26.414,30l9.293,9.293C35.894,39.48,36,39.735,36,40v10c0,0.404-0.243,0.769-0.617,0.924
	C35.259,50.975,35.129,51,35,51c-0.26,0-0.516-0.102-0.707-0.293l-20-20c-0.391-0.391-0.391-1.023,0-1.414l20-20
	c0.287-0.287,0.717-0.371,1.09-0.217C35.757,9.231,36,9.596,36,10V20z"/>
</svg>
