<?xml version="1.0" encoding="utf-8"?>
<!-- Generator: Adobe Illustrator 17.0.0, SVG Export Plug-In . SVG Version: 6.00 Build 0)  -->
<!DOCTYPE svg PUBLIC "-//W3C//DTD SVG 1.1//EN" "http://www.w3.org/Graphics/SVG/1.1/DTD/svg11.dtd">
<svg version="1.1" id="Layer_2" xmlns="http://www.w3.org/2000/svg" xmlns:xlink="http://www.w3.org/1999/xlink" x="0px" y="0px"
	 width="60px" height="60px" viewBox="0 0 60 60" enable-background="new 0 0 60 60" xml:space="preserve">
<path fill="#010101" d="M59,0H1C0.447,0,0,0.448,0,1v58c0,0.553,0.447,1,1,1h58c0.553,0,1-0.447,1-1V1C60,0.448,59.553,0,59,0z
	 M44.019,50c-0.004,0.001-0.012,0.001-0.019,0H34c-0.266,0-0.52-0.105-0.707-0.293l-19-19c-0.391-0.391-0.391-1.023,0-1.414l19-19
	C33.48,10.106,33.734,10,34,10h10c0.404,0,0.769,0.244,0.924,0.617c0.155,0.374,0.069,0.804-0.217,1.09L26.414,30l18.184,18.184
	c0.255,0.182,0.421,0.479,0.421,0.816C45.019,49.553,44.572,50,44.019,50z"/>
</svg>
