<?xml version="1.0" encoding="utf-8"?>
<!-- Generator: Adobe Illustrator 17.0.0, SVG Export Plug-In . SVG Version: 6.00 Build 0)  -->
<!DOCTYPE svg PUBLIC "-//W3C//DTD SVG 1.1//EN" "http://www.w3.org/Graphics/SVG/1.1/DTD/svg11.dtd">
<svg version="1.1" id="Layer_2" xmlns="http://www.w3.org/2000/svg" xmlns:xlink="http://www.w3.org/1999/xlink" x="0px" y="0px"
	 width="60px" height="60px" viewBox="0 0 60 60" enable-background="new 0 0 60 60" xml:space="preserve">
<path fill="#010101" d="M59,0H1C0.448,0,0,0.447,0,1v58c0,0.553,0.448,1,1,1h58c0.552,0,1-0.447,1-1V1C60,0.447,59.552,0,59,0z
	 M52,34.999c0,0.553-0.448,1-1,1H29.415l12.293,12.294c0.286,0.286,0.372,0.716,0.217,1.09S41.405,50,41,50H28
	c-0.265,0-0.519-0.105-0.707-0.293l-19-19.001C8.106,30.519,8,30.265,8,29.999s0.106-0.52,0.293-0.707l19-18.999
	C27.481,10.106,27.735,10,28,10h13c0.404,0,0.769,0.243,0.924,0.617c0.155,0.374,0.069,0.804-0.217,1.09L29.415,23.999H51
	c0.552,0,1,0.447,1,1V34.999z"/>
</svg>
