<?xml version="1.0" encoding="utf-8"?>
<!-- Generator: Adobe Illustrator 17.0.0, SVG Export Plug-In . SVG Version: 6.00 Build 0)  -->
<!DOCTYPE svg PUBLIC "-//W3C//DTD SVG 1.1//EN" "http://www.w3.org/Graphics/SVG/1.1/DTD/svg11.dtd">
<svg version="1.1" id="Layer_2" xmlns="http://www.w3.org/2000/svg" xmlns:xlink="http://www.w3.org/1999/xlink" x="0px" y="0px"
	 width="60px" height="60px" viewBox="0 0 60 60" enable-background="new 0 0 60 60" xml:space="preserve">
<path fill="#010101" d="M59,0H1C0.448,0,0,0.447,0,1v58c0,0.553,0.448,1,1,1h58c0.552,0,1-0.447,1-1V1C60,0.447,59.552,0,59,0z
	 M12.999,36h-4v-4h4V36z M12.999,28h-4v-4h4V28z M20.999,36h-4v-4h4V36z M20.999,28h-4v-4h4V28z M28.999,52h-4v-4h4V52z M28.999,44
	h-4v-4h4V44z M28.999,36h-4v-4h4V36z M28.999,28h-4v-4h4V28z M28.999,20h-4v-4h4V20z M28.999,12h-4V8h4V12z M36.999,44h-4v-4h4V44z
	 M36.999,36h-4v-4h4V36z M36.999,28h-4v-4h4V28z M36.999,20h-4v-4h4V20z M44.999,36h-4v-4h4V36z M44.999,28h-4v-4h4V28z M52.999,32
	h-4v-4h4V32z"/>
</svg>
