<?xml version="1.0" encoding="utf-8"?>
<!-- Generator: Adobe Illustrator 17.0.0, SVG Export Plug-In . SVG Version: 6.00 Build 0)  -->
<!DOCTYPE svg PUBLIC "-//W3C//DTD SVG 1.1//EN" "http://www.w3.org/Graphics/SVG/1.1/DTD/svg11.dtd">
<svg version="1.1" id="Layer_2" xmlns="http://www.w3.org/2000/svg" xmlns:xlink="http://www.w3.org/1999/xlink" x="0px" y="0px"
	 width="60px" height="60px" viewBox="0 0 60 60" enable-background="new 0 0 60 60" xml:space="preserve">
<path fill="#010101" d="M59.67,31.095c0.037-0.056,0.064-0.116,0.095-0.175c0.029-0.055,0.061-0.108,0.085-0.166
	c0.028-0.069,0.046-0.14,0.066-0.212c0.015-0.052,0.035-0.103,0.045-0.157c0.024-0.122,0.036-0.246,0.037-0.37
	c0-0.006,0.002-0.011,0.002-0.016s-0.002-0.011-0.002-0.016c-0.001-0.124-0.013-0.248-0.037-0.37
	c-0.011-0.054-0.03-0.104-0.045-0.157c-0.02-0.071-0.038-0.143-0.066-0.212c-0.024-0.058-0.056-0.111-0.085-0.166
	c-0.031-0.059-0.058-0.119-0.095-0.175c-0.04-0.06-0.088-0.114-0.134-0.17c-0.032-0.039-0.058-0.082-0.094-0.119l-24-24.999
	c-0.765-0.796-2.03-0.823-2.828-0.058c-0.797,0.765-0.822,2.03-0.058,2.827l20.75,21.614H2c-1.105,0-2,0.896-2,2s0.895,2,2,2h51.308
	l-20.75,21.616c-0.765,0.797-0.739,2.062,0.058,2.827C33.003,56.815,33.501,57,33.999,57c0.526,0,1.051-0.206,1.443-0.615l24-25.001
	c0.036-0.037,0.062-0.08,0.094-0.119C59.583,31.209,59.631,31.155,59.67,31.095z"/>
</svg>
