<?xml version="1.0" encoding="utf-8"?>
<!-- Generator: Adobe Illustrator 17.0.0, SVG Export Plug-In . SVG Version: 6.00 Build 0)  -->
<!DOCTYPE svg PUBLIC "-//W3C//DTD SVG 1.1//EN" "http://www.w3.org/Graphics/SVG/1.1/DTD/svg11.dtd">
<svg version="1.1" id="Layer_2" xmlns="http://www.w3.org/2000/svg" xmlns:xlink="http://www.w3.org/1999/xlink" x="0px" y="0px"
	 width="60px" height="60px" viewBox="0 0 60 60" enable-background="new 0 0 60 60" xml:space="preserve">
<path fill="#010101" d="M55.383,15.076c-0.375-0.156-0.804-0.07-1.09,0.217L38,31.586V1c0-0.552-0.448-1-1-1H23
	c-0.552,0-1,0.448-1,1v30.586L5.707,15.293c-0.287-0.287-0.716-0.373-1.09-0.217C4.244,15.231,4,15.596,4,16v18
	c0,0.265,0.106,0.52,0.293,0.707l25,25C29.488,59.902,29.744,60,30,60s0.512-0.098,0.707-0.293l25-25C55.895,34.52,56,34.265,56,34
	V16C56,15.596,55.756,15.231,55.383,15.076z"/>
</svg>
