<?xml version="1.0" encoding="utf-8"?>
<!-- Generator: Adobe Illustrator 17.0.0, SVG Export Plug-In . SVG Version: 6.00 Build 0)  -->
<!DOCTYPE svg PUBLIC "-//W3C//DTD SVG 1.1//EN" "http://www.w3.org/Graphics/SVG/1.1/DTD/svg11.dtd">
<svg version="1.1" id="Layer_2" xmlns="http://www.w3.org/2000/svg" xmlns:xlink="http://www.w3.org/1999/xlink" x="0px" y="0px"
	 width="60px" height="60px" viewBox="0 0 60 60" enable-background="new 0 0 60 60" xml:space="preserve">
<path fill="#010101" d="M51.213,8.787C45.547,3.12,38.013,0,30,0C21.986,0,14.453,3.12,8.787,8.787
	C3.12,14.453-0.001,21.987-0.001,30c0,8.013,3.121,15.547,8.787,21.213C14.453,56.88,21.986,60,29.999,60
	c8.013,0,15.547-3.121,21.213-8.787C56.879,45.547,59.999,38.014,60,30C60,21.987,56.879,14.453,51.213,8.787z M45.999,45
	c0,0.552-0.447,1-1,1h-26c-0.552,0-1-0.448-1-1v-8c0-0.552,0.448-1,1-1h8.586L11.292,19.707c-0.391-0.391-0.391-1.023,0-1.414l7-7
	c0.391-0.391,1.023-0.391,1.414,0l16.293,16.293V19c0-0.552,0.447-1,1-1h8c0.553,0,1,0.448,1,1V45z"/>
</svg>
