<?xml version="1.0" encoding="utf-8"?>
<!-- Generator: Adobe Illustrator 17.0.0, SVG Export Plug-In . SVG Version: 6.00 Build 0)  -->
<!DOCTYPE svg PUBLIC "-//W3C//DTD SVG 1.1//EN" "http://www.w3.org/Graphics/SVG/1.1/DTD/svg11.dtd">
<svg version="1.1" id="Layer_2" xmlns="http://www.w3.org/2000/svg" xmlns:xlink="http://www.w3.org/1999/xlink" x="0px" y="0px"
	 width="60px" height="60px" viewBox="0 0 60 60" enable-background="new 0 0 60 60" xml:space="preserve">
<g>
	<path fill="#010101" d="M30,25c-2.757,0-5,2.243-5,5s2.243,5,5,5s5-2.243,5-5S32.757,25,30,25z"/>
	<path fill="#010101" d="M30,13c-2.757,0-5,2.243-5,5s2.243,5,5,5s5-2.243,5-5S32.757,13,30,13z"/>
	<path fill="#010101" d="M30,1c-2.757,0-5,2.243-5,5s2.243,5,5,5s5-2.243,5-5S32.757,1,30,1z"/>
	<path fill="#010101" d="M42,9c-2.757,0-5,2.243-5,5s2.243,5,5,5s5-2.243,5-5S44.757,9,42,9z"/>
	<path fill="#010101" d="M52,17c-2.757,0-5,2.243-5,5s2.243,5,5,5s5-2.243,5-5S54.757,17,52,17z"/>
	<path fill="#010101" d="M18,9c-2.757,0-5,2.243-5,5s2.243,5,5,5s5-2.243,5-5S20.757,9,18,9z"/>
	<path fill="#010101" d="M8,17c-2.757,0-5,2.243-5,5s2.243,5,5,5c2.757,0,5-2.243,5-5S10.757,17,8,17z"/>
	<path fill="#010101" d="M30,37c-2.757,0-5,2.243-5,5s2.243,5,5,5s5-2.243,5-5S32.757,37,30,37z"/>
	<path fill="#010101" d="M30,49c-2.757,0-5,2.243-5,5s2.243,5,5,5s5-2.243,5-5S32.757,49,30,49z"/>
</g>
</svg>
