<?xml version="1.0" encoding="utf-8"?>
<!-- Generator: Adobe Illustrator 17.0.0, SVG Export Plug-In . SVG Version: 6.00 Build 0)  -->
<!DOCTYPE svg PUBLIC "-//W3C//DTD SVG 1.1//EN" "http://www.w3.org/Graphics/SVG/1.1/DTD/svg11.dtd">
<svg version="1.1" id="Layer_2" xmlns="http://www.w3.org/2000/svg" xmlns:xlink="http://www.w3.org/1999/xlink" x="0px" y="0px"
	 width="60px" height="60px" viewBox="0 0 60 60" enable-background="new 0 0 60 60" xml:space="preserve">
<path fill="#010101" d="M51.213,8.787C45.547,3.12,38.013,0,30,0h-0.001C21.986,0,14.452,3.121,8.786,8.787S-0.001,21.987,0,30
	c-0.001,8.013,3.12,15.547,8.786,21.213C14.453,56.879,21.986,60,30,60c16.542,0,30-13.458,30-30
	C60.001,21.987,56.88,14.453,51.213,8.787z M46,45c0,0.552-0.447,1-1,1H21c-0.404,0-0.769-0.244-0.924-0.617
	c-0.155-0.374-0.069-0.804,0.217-1.09L26.586,38L9.293,20.707c-0.391-0.391-0.391-1.023,0-1.414l10-10
	c0.391-0.391,1.023-0.391,1.414,0L38,26.586l6.293-6.293c0.286-0.286,0.716-0.371,1.09-0.217C45.757,20.231,46,20.596,46,21V45z"/>
</svg>
