<?xml version="1.0" encoding="utf-8"?>
<!-- Generator: Adobe Illustrator 17.0.0, SVG Export Plug-In . SVG Version: 6.00 Build 0)  -->
<!DOCTYPE svg PUBLIC "-//W3C//DTD SVG 1.1//EN" "http://www.w3.org/Graphics/SVG/1.1/DTD/svg11.dtd">
<svg version="1.1" id="Layer_2" xmlns="http://www.w3.org/2000/svg" xmlns:xlink="http://www.w3.org/1999/xlink" x="0px" y="0px"
	 width="60px" height="60px" viewBox="0 0 60 60" enable-background="new 0 0 60 60" xml:space="preserve">
<path fill="#010101" d="M56.443,32.615c-0.765-0.796-2.031-0.824-2.828-0.058L32,53.308V2c0-1.105-0.896-2-2-2s-2,0.896-2,2v51.307
	L6.385,32.558c-0.797-0.768-2.064-0.739-2.828,0.058c-0.765,0.797-0.739,2.062,0.058,2.827l25,24
	c0.037,0.035,0.079,0.061,0.118,0.093c0.056,0.046,0.11,0.095,0.171,0.135c0.056,0.037,0.117,0.065,0.176,0.096
	c0.055,0.028,0.107,0.061,0.164,0.084c0.071,0.029,0.144,0.047,0.217,0.067c0.051,0.014,0.099,0.034,0.152,0.044
	C29.74,59.986,29.87,60,30,60c0.13,0,0.259-0.014,0.387-0.039c0.052-0.01,0.101-0.029,0.152-0.044
	c0.073-0.02,0.146-0.038,0.217-0.067c0.057-0.023,0.11-0.056,0.164-0.084c0.059-0.031,0.119-0.058,0.176-0.096
	c0.061-0.04,0.115-0.088,0.171-0.135c0.039-0.032,0.081-0.058,0.118-0.093l25-24C57.182,34.678,57.208,33.412,56.443,32.615z"/>
</svg>
