<?xml version="1.0" encoding="utf-8"?>
<!-- Generator: Adobe Illustrator 17.0.0, SVG Export Plug-In . SVG Version: 6.00 Build 0)  -->
<!DOCTYPE svg PUBLIC "-//W3C//DTD SVG 1.1//EN" "http://www.w3.org/Graphics/SVG/1.1/DTD/svg11.dtd">
<svg version="1.1" id="Layer_2" xmlns="http://www.w3.org/2000/svg" xmlns:xlink="http://www.w3.org/1999/xlink" x="0px" y="0px"
	 width="60px" height="60px" viewBox="0 0 60 60" enable-background="new 0 0 60 60" xml:space="preserve">
<path fill="#010101" d="M56.707,26.293l-26-26c-0.391-0.391-1.023-0.391-1.414,0l-26,26c-0.391,0.391-0.391,1.023,0,1.414l8,8
	c0.391,0.391,1.023,0.391,1.414,0L22,26.414V59c0,0.552,0.448,1,1,1h14c0.552,0,1-0.448,1-1V26.414l9.293,9.293
	c0.391,0.391,1.023,0.391,1.414,0l8-8C57.098,27.316,57.098,26.684,56.707,26.293z"/>
</svg>
