<?xml version="1.0" encoding="utf-8"?>
<!-- Generator: Adobe Illustrator 17.0.0, SVG Export Plug-In . SVG Version: 6.00 Build 0)  -->
<!DOCTYPE svg PUBLIC "-//W3C//DTD SVG 1.1//EN" "http://www.w3.org/Graphics/SVG/1.1/DTD/svg11.dtd">
<svg version="1.1" id="Layer_2" xmlns="http://www.w3.org/2000/svg" xmlns:xlink="http://www.w3.org/1999/xlink" x="0px" y="0px"
	 width="60px" height="60px" viewBox="0 0 60 60" enable-background="new 0 0 60 60" xml:space="preserve">
<path fill="#010101" d="M51.213,8.787C45.547,3.12,38.013,0,30,0C21.986,0,14.453,3.12,8.787,8.787C3.12,14.453,0,21.986,0,30
	c0,8.013,3.12,15.547,8.787,21.213C14.453,56.879,21.986,60,30,60c8.014,0,15.547-3.121,21.213-8.787C56.88,45.547,60,38.013,60,30
	C60,21.986,56.879,14.453,51.213,8.787z M48.707,19.707L32.414,36H41c0.552,0,1,0.448,1,1v8c0,0.552-0.448,1-1,1H15
	c-0.552,0-1-0.448-1-1V19c0-0.552,0.448-1,1-1h8c0.552,0,1,0.448,1,1v8.586l16.293-16.293c0.39-0.391,1.023-0.391,1.414,0l7,7
	C49.097,18.683,49.097,19.316,48.707,19.707z"/>
</svg>
