<?xml version="1.0" encoding="utf-8"?>
<!-- Generator: Adobe Illustrator 17.0.0, SVG Export Plug-In . SVG Version: 6.00 Build 0)  -->
<!DOCTYPE svg PUBLIC "-//W3C//DTD SVG 1.1//EN" "http://www.w3.org/Graphics/SVG/1.1/DTD/svg11.dtd">
<svg version="1.1" id="Layer_2" xmlns="http://www.w3.org/2000/svg" xmlns:xlink="http://www.w3.org/1999/xlink" x="0px" y="0px"
	 width="60px" height="60px" viewBox="0 0 60 60" enable-background="new 0 0 60 60" xml:space="preserve">
<path fill="#010101" d="M51.213,8.787C45.547,3.12,38.013,0,30,0C21.986,0,14.453,3.12,8.787,8.787C3.12,14.453,0,21.986,0,30
	c0,8.013,3.121,15.547,8.787,21.213C14.453,56.879,21.986,60,30,60c8.014,0,15.547-3.121,21.213-8.787C56.88,45.547,60,38.013,60,30
	C60,21.986,56.879,14.453,51.213,8.787z M45.207,23.207L32.414,36H37c2.757,0,5,2.243,5,5c0,2.757-2.243,5-5,5H15
	c-0.552,0-1-0.448-1-1V23c0-2.757,2.243-5,5-5c2.757,0,5,2.243,5,5v4.586l12.793-12.793C37.916,13.669,39.41,13.05,41,13.05
	c1.589,0,3.083,0.619,4.207,1.743c1.124,1.123,1.743,2.618,1.743,4.207C46.949,20.589,46.331,22.083,45.207,23.207z"/>
</svg>
