<?xml version="1.0" encoding="utf-8"?>
<!-- Generator: Adobe Illustrator 17.0.0, SVG Export Plug-In . SVG Version: 6.00 Build 0)  -->
<!DOCTYPE svg PUBLIC "-//W3C//DTD SVG 1.1//EN" "http://www.w3.org/Graphics/SVG/1.1/DTD/svg11.dtd">
<svg version="1.1" id="Layer_2" xmlns="http://www.w3.org/2000/svg" xmlns:xlink="http://www.w3.org/1999/xlink" x="0px" y="0px"
	 width="60px" height="60px" viewBox="0 0 60 60" enable-background="new 0 0 60 60" xml:space="preserve">
<g>
	<path fill="#010101" d="M59.707,29.293l-22-22c-0.287-0.286-0.717-0.372-1.09-0.217C36.244,7.231,36,7.596,36,8v12H1
		c-0.552,0-1,0.448-1,1v18c0,0.552,0.448,1,1,1h35v12c0,0.404,0.244,0.769,0.617,0.924C36.741,52.975,36.871,53,37,53
		c0.26,0,0.516-0.102,0.707-0.293l22-22C60.098,30.316,60.098,29.684,59.707,29.293z"/>
</g>
</svg>
