<?xml version="1.0" encoding="utf-8"?>
<!-- Generator: Adobe Illustrator 17.0.0, SVG Export Plug-In . SVG Version: 6.00 Build 0)  -->
<!DOCTYPE svg PUBLIC "-//W3C//DTD SVG 1.1//EN" "http://www.w3.org/Graphics/SVG/1.1/DTD/svg11.dtd">
<svg version="1.1" id="Layer_2" xmlns="http://www.w3.org/2000/svg" xmlns:xlink="http://www.w3.org/1999/xlink" x="0px" y="0px"
	 width="60px" height="60px" viewBox="0 0 60 60" enable-background="new 0 0 60 60" xml:space="preserve">
<path fill="#010101" d="M30,0C13.458,0,0,13.458,0,30s13.458,30,30,30s30-13.458,30-30S46.542,0,30,0z M51,38H26v10
	c0,0.404-0.244,0.769-0.617,0.924C25.259,48.975,25.129,49,25,49c-0.26,0-0.516-0.102-0.707-0.293l-18-18
	c-0.391-0.391-0.391-1.023,0-1.414l18-18c0.286-0.287,0.715-0.373,1.09-0.217C25.756,11.231,26,11.596,26,12v10h25
	c0.552,0,1,0.448,1,1v14C52,37.552,51.552,38,51,38z"/>
</svg>
