<?xml version="1.0" encoding="utf-8"?>
<!-- Generator: Adobe Illustrator 17.0.0, SVG Export Plug-In . SVG Version: 6.00 Build 0)  -->
<!DOCTYPE svg PUBLIC "-//W3C//DTD SVG 1.1//EN" "http://www.w3.org/Graphics/SVG/1.1/DTD/svg11.dtd">
<svg version="1.1" id="Layer_2" xmlns="http://www.w3.org/2000/svg" xmlns:xlink="http://www.w3.org/1999/xlink" x="0px" y="0px"
	 width="60px" height="60px" viewBox="0 0 60 60" enable-background="new 0 0 60 60" xml:space="preserve">
<path fill="#010101" d="M59.707,22.293l-12-12c-0.285-0.286-0.715-0.371-1.09-0.217C46.243,10.231,46,10.596,46,11v22.586
	L21.707,9.293c-0.391-0.391-1.023-0.391-1.414,0l-10,10c-0.391,0.391-0.391,1.023,0,1.414L34.586,45H11
	c-0.404,0-0.769,0.243-0.924,0.617c-0.155,0.374-0.069,0.804,0.217,1.09l12,12C22.48,58.895,22.735,59,23,59h36c0.553,0,1-0.447,1-1
	V23C60,22.735,59.894,22.48,59.707,22.293z"/>
</svg>
