<?xml version="1.0" encoding="utf-8"?>
<!-- Generator: Adobe Illustrator 17.0.0, SVG Export Plug-In . SVG Version: 6.00 Build 0)  -->
<!DOCTYPE svg PUBLIC "-//W3C//DTD SVG 1.1//EN" "http://www.w3.org/Graphics/SVG/1.1/DTD/svg11.dtd">
<svg version="1.1" id="Layer_2" xmlns="http://www.w3.org/2000/svg" xmlns:xlink="http://www.w3.org/1999/xlink" x="0px" y="0px"
	 width="60px" height="60px" viewBox="0 0 60 60" enable-background="new 0 0 60 60" xml:space="preserve">
<path fill="#010101" d="M54,15H42c-0.553,0-1,0.448-1,1v13.586L16.707,5.293c-0.391-0.391-1.023-0.391-1.414,0l-10,10
	c-0.391,0.391-0.391,1.023,0,1.414L29.586,41H18c-0.552,0-1,0.448-1,1v12c0,0.552,0.448,1,1,1h36c0.553,0,1-0.448,1-1V16
	C55,15.448,54.553,15,54,15z"/>
</svg>
