<?xml version="1.0" encoding="utf-8"?>
<!-- Generator: Adobe Illustrator 17.0.0, SVG Export Plug-In . SVG Version: 6.00 Build 0)  -->
<!DOCTYPE svg PUBLIC "-//W3C//DTD SVG 1.1//EN" "http://www.w3.org/Graphics/SVG/1.1/DTD/svg11.dtd">
<svg version="1.1" id="Layer_2" xmlns="http://www.w3.org/2000/svg" xmlns:xlink="http://www.w3.org/1999/xlink" x="0px" y="0px"
	 width="60px" height="60px" viewBox="0 0 60 60" enable-background="new 0 0 60 60" xml:space="preserve">
<path fill="#010101" d="M59.707,29.293l-21-21C38.519,8.106,38.266,8,38,8H1C0.447,8,0,8.448,0,9v42c0,0.552,0.447,1,1,1h37
	c0.266,0,0.519-0.105,0.707-0.293l21-21C60.098,30.316,60.098,29.684,59.707,29.293z M33.707,40.293
	c0.391,0.391,0.391,1.023,0,1.414C33.512,41.902,33.256,42,33,42c-0.256,0-0.512-0.098-0.707-0.293L22,31.414L11.707,41.707
	C11.512,41.902,11.256,42,11,42c-0.256,0-0.512-0.098-0.707-0.293c-0.391-0.391-0.391-1.023,0-1.414L20.586,30L10.293,19.707
	c-0.391-0.391-0.391-1.023,0-1.414c0.391-0.391,1.023-0.391,1.414,0L22,28.586l10.293-10.293c0.391-0.391,1.023-0.391,1.414,0
	c0.391,0.391,0.391,1.023,0,1.414L23.414,30L33.707,40.293z"/>
</svg>
