<?xml version="1.0" encoding="utf-8"?>
<!-- Generator: Adobe Illustrator 17.0.0, SVG Export Plug-In . SVG Version: 6.00 Build 0)  -->
<!DOCTYPE svg PUBLIC "-//W3C//DTD SVG 1.1//EN" "http://www.w3.org/Graphics/SVG/1.1/DTD/svg11.dtd">
<svg version="1.1" id="Layer_2" xmlns="http://www.w3.org/2000/svg" xmlns:xlink="http://www.w3.org/1999/xlink" x="0px" y="0px"
	 width="60px" height="60px" viewBox="0 0 60 60" enable-background="new 0 0 60 60" xml:space="preserve">
<g>
	<path fill="#010101" d="M5.003,30L31.332,6.492c0.824-0.736,0.896-2,0.16-2.824c-0.736-0.823-2-0.895-2.824-0.16l-28,25
		C0.243,28.887,0,29.43,0,30s0.243,1.112,0.668,1.492l28,25C29.05,56.832,29.525,57,29.999,57c0.55,0,1.098-0.226,1.493-0.668
		c0.735-0.824,0.664-2.088-0.16-2.824L5.003,30z"/>
	<path fill="#010101" d="M33.003,30L59.332,6.492c0.824-0.736,0.896-2,0.16-2.824c-0.736-0.823-2-0.895-2.824-0.16l-28,25
		C28.243,28.887,28,29.43,28,30s0.243,1.112,0.668,1.492l28,25C57.05,56.832,57.525,57,57.999,57c0.55,0,1.098-0.226,1.493-0.668
		c0.735-0.824,0.664-2.088-0.16-2.824L33.003,30z"/>
</g>
</svg>
