<?xml version="1.0" encoding="utf-8"?>
<!-- Generator: Adobe Illustrator 17.0.0, SVG Export Plug-In . SVG Version: 6.00 Build 0)  -->
<!DOCTYPE svg PUBLIC "-//W3C//DTD SVG 1.1//EN" "http://www.w3.org/Graphics/SVG/1.1/DTD/svg11.dtd">
<svg version="1.1" id="Layer_2" xmlns="http://www.w3.org/2000/svg" xmlns:xlink="http://www.w3.org/1999/xlink" x="0px" y="0px"
	 width="60px" height="60px" viewBox="0 0 60 60" enable-background="new 0 0 60 60" xml:space="preserve">
<g>
	<path fill="#010101" d="M39.414,30L59.707,9.707c0.286-0.286,0.372-0.716,0.217-1.09C59.769,8.243,59.404,8,59,8H45
		c-0.266,0-0.52,0.106-0.707,0.293l-21,21c-0.391,0.391-0.391,1.023,0,1.414l21,21C44.48,51.895,44.734,52,45,52h14
		c0.404,0,0.77-0.243,0.924-0.617c0.155-0.374,0.069-0.804-0.217-1.09L39.414,30z"/>
	<path fill="#010101" d="M16.414,30L36.707,9.707c0.286-0.286,0.372-0.716,0.217-1.09C36.769,8.243,36.404,8,36,8H22
		c-0.266,0-0.52,0.106-0.707,0.293l-21,21c-0.391,0.391-0.391,1.023,0,1.414l21,21C21.48,51.895,21.734,52,22,52h14
		c0.404,0,0.77-0.243,0.924-0.617c0.155-0.374,0.069-0.804-0.217-1.09L16.414,30z"/>
</g>
</svg>
