<?xml version="1.0" encoding="utf-8"?>
<!-- Generator: Adobe Illustrator 17.0.0, SVG Export Plug-In . SVG Version: 6.00 Build 0)  -->
<!DOCTYPE svg PUBLIC "-//W3C//DTD SVG 1.1//EN" "http://www.w3.org/Graphics/SVG/1.1/DTD/svg11.dtd">
<svg version="1.1" id="Layer_2" xmlns="http://www.w3.org/2000/svg" xmlns:xlink="http://www.w3.org/1999/xlink" x="0px" y="0px"
	 width="60px" height="60px" viewBox="0 0 60 60" enable-background="new 0 0 60 60" xml:space="preserve">
<g>
	<path fill="#010101" d="M34.707,29.293l-26-26c-0.391-0.391-1.023-0.391-1.414,0l-7,7c-0.391,0.391-0.391,1.023,0,1.414L18.586,30
		L0.293,48.293c-0.391,0.391-0.391,1.023,0,1.414l7,7C7.488,56.902,7.744,57,8,57c0.256,0,0.512-0.098,0.707-0.293l26-26
		C35.098,30.316,35.098,29.684,34.707,29.293z"/>
	<path fill="#010101" d="M59.707,29.293l-26-26c-0.391-0.391-1.023-0.391-1.414,0l-7,7c-0.391,0.391-0.391,1.023,0,1.414L43.586,30
		L25.293,48.293c-0.391,0.391-0.391,1.023,0,1.414l7,7C32.488,56.902,32.744,57,33,57c0.256,0,0.512-0.098,0.707-0.293l26-26
		C60.098,30.316,60.098,29.684,59.707,29.293z"/>
</g>
</svg>
