<?xml version="1.0" encoding="utf-8"?>
<!-- Generator: Adobe Illustrator 17.0.0, SVG Export Plug-In . SVG Version: 6.00 Build 0)  -->
<!DOCTYPE svg PUBLIC "-//W3C//DTD SVG 1.1//EN" "http://www.w3.org/Graphics/SVG/1.1/DTD/svg11.dtd">
<svg version="1.1" id="Layer_2" xmlns="http://www.w3.org/2000/svg" xmlns:xlink="http://www.w3.org/1999/xlink" x="0px" y="0px"
	 width="60px" height="60px" viewBox="0 0 60 60" enable-background="new 0 0 60 60" xml:space="preserve">
<path fill="#010101" d="M51.213,8.787C45.547,3.121,38.014,0,30,0C21.987,0,14.453,3.121,8.787,8.787C3.121,14.454,0,21.987,0,30
	c0,16.542,13.458,30,30,30c8.013,0,15.546-3.121,21.213-8.787C56.879,45.547,60,38.013,60,30C60,21.987,56.88,14.454,51.213,8.787z
	 M48.924,25.383C48.77,25.756,48.405,26,48,26l-10,0v25c0,0.265-0.106,0.52-0.293,0.707C37.519,51.895,37.265,52,37,52l-14,0
	c-0.552,0-1-0.448-1-1V26l-10,0c-0.404,0-0.769-0.244-0.924-0.617c-0.155-0.374-0.069-0.804,0.217-1.09l18-18
	C29.489,6.098,29.745,6,30,6c0.256,0,0.512,0.098,0.707,0.293l18,18C48.994,24.579,49.079,25.009,48.924,25.383z"/>
</svg>
