<?xml version="1.0" encoding="utf-8"?>
<!-- Generator: Adobe Illustrator 17.0.0, SVG Export Plug-In . SVG Version: 6.00 Build 0)  -->
<!DOCTYPE svg PUBLIC "-//W3C//DTD SVG 1.1//EN" "http://www.w3.org/Graphics/SVG/1.1/DTD/svg11.dtd">
<svg version="1.1" id="Layer_2" xmlns="http://www.w3.org/2000/svg" xmlns:xlink="http://www.w3.org/1999/xlink" x="0px" y="0px"
	 width="60px" height="60px" viewBox="0 0 60 60" enable-background="new 0 0 60 60" xml:space="preserve">
<path fill="#010101" d="M44.414,14.586c-0.78-0.781-2.048-0.781-2.828,0L4.002,52.17l0.011-29.181
	c0.001-1.104-0.894-2.001-1.999-2.001h0c-1.104,0-1.999,0.894-2,1.999L0,56.999l0,0c0,0.13,0.013,0.26,0.038,0.388
	c0.007,0.037,0.022,0.071,0.032,0.107c0.023,0.09,0.045,0.18,0.081,0.266c0.022,0.055,0.056,0.104,0.083,0.157
	c0.033,0.063,0.06,0.127,0.1,0.187c0.073,0.111,0.157,0.214,0.252,0.309c0.095,0.095,0.199,0.179,0.309,0.252
	c0.066,0.044,0.136,0.075,0.205,0.11c0.047,0.024,0.091,0.054,0.139,0.073c0.084,0.034,0.171,0.056,0.258,0.078
	c0.039,0.01,0.076,0.026,0.115,0.034C1.74,58.987,1.87,59,2,59h32c1.104,0,2-0.896,2-2s-0.896-2-2-2H6.828l37.586-37.586
	C45.195,16.633,45.195,15.367,44.414,14.586z"/>
</svg>
