<?xml version="1.0" encoding="utf-8"?>
<!-- Generator: Adobe Illustrator 17.0.0, SVG Export Plug-In . SVG Version: 6.00 Build 0)  -->
<!DOCTYPE svg PUBLIC "-//W3C//DTD SVG 1.1//EN" "http://www.w3.org/Graphics/SVG/1.1/DTD/svg11.dtd">
<svg version="1.1" id="Layer_2" xmlns="http://www.w3.org/2000/svg" xmlns:xlink="http://www.w3.org/1999/xlink" x="0px" y="0px"
	 width="60px" height="60px" viewBox="0 0 60 60" enable-background="new 0 0 60 60" xml:space="preserve">
<path fill="#010101" d="M59.707,40.793l-29-29c-0.391-0.391-1.023-0.391-1.414,0l-29,29C0.105,40.98,0,41.234,0,41.5v14
	c0,0.404,0.243,0.77,0.617,0.924c0.375,0.156,0.804,0.07,1.09-0.217L30,27.914l28.293,28.293C58.484,56.398,58.74,56.5,59,56.5
	c0.129,0,0.259-0.024,0.383-0.076C59.757,56.269,60,55.904,60,55.5v-14C60,41.234,59.894,40.98,59.707,40.793z"/>
</svg>
