<?xml version="1.0" encoding="utf-8"?>
<!-- Generator: Adobe Illustrator 17.0.0, SVG Export Plug-In . SVG Version: 6.00 Build 0)  -->
<!DOCTYPE svg PUBLIC "-//W3C//DTD SVG 1.1//EN" "http://www.w3.org/Graphics/SVG/1.1/DTD/svg11.dtd">
<svg version="1.1" id="Layer_2" xmlns="http://www.w3.org/2000/svg" xmlns:xlink="http://www.w3.org/1999/xlink" x="0px" y="0px"
	 width="60px" height="60px" viewBox="0 0 60 60" enable-background="new 0 0 60 60" xml:space="preserve">
<path fill="#010101" d="M59,8H22c-0.266,0-0.52,0.106-0.707,0.293l-21,21c-0.391,0.391-0.391,1.023,0,1.414l21,21
	C21.481,51.895,21.734,52,22,52h37c0.553,0,1-0.448,1-1V9C60,8.448,59.553,8,59,8z M49.707,40.293c0.391,0.391,0.391,1.023,0,1.414
	C49.512,41.902,49.256,42,49,42c-0.256,0-0.512-0.098-0.707-0.293L38,31.414L27.707,41.707C27.512,41.902,27.256,42,27,42
	c-0.256,0-0.512-0.098-0.707-0.293c-0.391-0.391-0.391-1.023,0-1.414L36.586,30L26.293,19.707c-0.391-0.391-0.391-1.023,0-1.414
	c0.391-0.391,1.023-0.391,1.414,0L38,28.586l10.293-10.293c0.391-0.391,1.023-0.391,1.414,0c0.391,0.391,0.391,1.023,0,1.414
	L39.414,30L49.707,40.293z"/>
</svg>
