<?xml version="1.0" encoding="utf-8"?>
<!-- Generator: Adobe Illustrator 17.0.0, SVG Export Plug-In . SVG Version: 6.00 Build 0)  -->
<!DOCTYPE svg PUBLIC "-//W3C//DTD SVG 1.1//EN" "http://www.w3.org/Graphics/SVG/1.1/DTD/svg11.dtd">
<svg version="1.1" id="Layer_2" xmlns="http://www.w3.org/2000/svg" xmlns:xlink="http://www.w3.org/1999/xlink" x="0px" y="0px"
	 width="60px" height="60px" viewBox="0 0 60 60" enable-background="new 0 0 60 60" xml:space="preserve">
<path fill="#010101" d="M58,27.999H6.692l20.75-21.614c0.765-0.797,0.739-2.062-0.058-2.827c-0.799-0.767-2.064-0.739-2.828,0.058
	l-24,24.999c-0.036,0.037-0.062,0.08-0.094,0.119c-0.046,0.056-0.094,0.109-0.134,0.17c-0.037,0.056-0.064,0.116-0.094,0.174
	c-0.029,0.056-0.061,0.108-0.085,0.167c-0.028,0.068-0.045,0.139-0.065,0.21c-0.015,0.053-0.035,0.104-0.046,0.159
	c-0.024,0.122-0.036,0.246-0.037,0.37C0.002,29.989,0,29.994,0,29.999s0.002,0.011,0.002,0.016c0.001,0.124,0.013,0.248,0.037,0.37
	c0.011,0.055,0.031,0.106,0.046,0.159c0.02,0.071,0.037,0.142,0.065,0.21c0.024,0.058,0.056,0.111,0.085,0.167
	c0.03,0.059,0.058,0.118,0.094,0.174c0.04,0.06,0.088,0.114,0.134,0.17c0.032,0.039,0.058,0.082,0.094,0.119l24,25.001
	C24.95,56.794,25.475,57,26,57c0.498,0,0.997-0.185,1.385-0.558c0.796-0.765,0.822-2.03,0.058-2.827L6.692,31.999H58
	c1.104,0,2-0.896,2-2C60,28.895,59.104,27.999,58,27.999z"/>
</svg>
