<?xml version="1.0" encoding="utf-8"?>
<!-- Generator: Adobe Illustrator 17.0.0, SVG Export Plug-In . SVG Version: 6.00 Build 0)  -->
<!DOCTYPE svg PUBLIC "-//W3C//DTD SVG 1.1//EN" "http://www.w3.org/Graphics/SVG/1.1/DTD/svg11.dtd">
<svg version="1.1" id="Layer_2" xmlns="http://www.w3.org/2000/svg" xmlns:xlink="http://www.w3.org/1999/xlink" x="0px" y="0px"
	 width="60px" height="60px" viewBox="0 0 60 60" enable-background="new 0 0 60 60" xml:space="preserve">
<g>
	<path fill="#010101" d="M6,50c-2.757,0-5,2.243-5,5s2.243,5,5,5c2.757,0,5-2.243,5-5S8.757,50,6,50z"/>
	<path fill="#010101" d="M20,46c0-2.757-2.243-5-5-5c-2.757,0-5,2.243-5,5s2.243,5,5,5C17.757,51,20,48.757,20,46z"/>
	<path fill="#010101" d="M24,32c-2.757,0-5,2.243-5,5s2.243,5,5,5c2.757,0,5-2.243,5-5S26.757,32,24,32z"/>
	<path fill="#010101" d="M33,33c2.757,0,5-2.243,5-5s-2.243-5-5-5c-2.757,0-5,2.243-5,5S30.243,33,33,33z"/>
	<path fill="#010101" d="M42,14c-2.757,0-5,2.243-5,5s2.243,5,5,5c2.757,0,5-2.243,5-5S44.757,14,42,14z"/>
	<path fill="#010101" d="M20,50c-2.757,0-5,2.243-5,5s2.243,5,5,5c2.757,0,5-2.243,5-5S22.757,50,20,50z"/>
	<path fill="#010101" d="M34,50c-2.757,0-5,2.243-5,5s2.243,5,5,5c2.757,0,5-2.243,5-5S36.757,50,34,50z"/>
	<path fill="#010101" d="M6,46c2.757,0,5-2.243,5-5s-2.243-5-5-5c-2.757,0-5,2.243-5,5S3.243,46,6,46z"/>
	<path fill="#010101" d="M6,32c2.757,0,5-2.243,5-5s-2.243-5-5-5c-2.757,0-5,2.243-5,5S3.243,32,6,32z"/>
</g>
</svg>
