<?xml version="1.0" encoding="utf-8"?>
<!-- Generator: Adobe Illustrator 17.0.0, SVG Export Plug-In . SVG Version: 6.00 Build 0)  -->
<!DOCTYPE svg PUBLIC "-//W3C//DTD SVG 1.1//EN" "http://www.w3.org/Graphics/SVG/1.1/DTD/svg11.dtd">
<svg version="1.1" id="Layer_2" xmlns="http://www.w3.org/2000/svg" xmlns:xlink="http://www.w3.org/1999/xlink" x="0px" y="0px"
	 width="60px" height="60px" viewBox="0 0 60 60" enable-background="new 0 0 60 60" xml:space="preserve">
<path fill="#010101" d="M30,0C21.986,0,14.453,3.121,8.787,8.787C3.121,14.453,0,21.987,0.001,30C0,38.013,3.12,45.546,8.787,51.213
	S21.986,60,30,60c8.014,0,15.547-3.121,21.214-8.787C56.879,45.546,60,38.013,60,30C60,13.458,46.542,0,30,0z M48.707,35.707
	l-18.001,18C30.511,53.902,30.255,54,30,54s-0.512-0.098-0.707-0.293l-18-18c-0.286-0.286-0.372-0.716-0.217-1.09
	C11.231,34.244,11.595,34,12,34l10,0V9c0-0.265,0.105-0.52,0.293-0.707S22.735,7.999,23,7.999L37,8c0.552,0,1,0.448,1,1v25l10,0
	c0.404,0,0.769,0.244,0.924,0.617C49.079,34.991,48.993,35.42,48.707,35.707z"/>
</svg>
