<?xml version="1.0" encoding="utf-8"?>
<!-- Generator: Adobe Illustrator 17.0.0, SVG Export Plug-In . SVG Version: 6.00 Build 0)  -->
<!DOCTYPE svg PUBLIC "-//W3C//DTD SVG 1.1//EN" "http://www.w3.org/Graphics/SVG/1.1/DTD/svg11.dtd">
<svg version="1.1" id="Layer_2" xmlns="http://www.w3.org/2000/svg" xmlns:xlink="http://www.w3.org/1999/xlink" x="0px" y="0px"
	 width="60px" height="60px" viewBox="0 0 60 60" enable-background="new 0 0 60 60" xml:space="preserve">
<path fill="#010101" d="M30,0C13.458,0,0,13.458,0,30s13.458,30,30,30s30-13.458,30-30S46.542,0,30,0z M46.019,44
	c-0.005,0-0.012,0.001-0.019,0H14c-0.352,0-0.677-0.184-0.857-0.485c-0.181-0.301-0.191-0.675-0.025-0.985l16-30
	c0.348-0.651,1.418-0.651,1.766,0l15.916,29.843c0.139,0.171,0.221,0.39,0.221,0.627C47.019,43.552,46.572,44,46.019,44z"/>
</svg>
