<?xml version="1.0" encoding="utf-8"?>
<!-- Generator: Adobe Illustrator 17.0.0, SVG Export Plug-In . SVG Version: 6.00 Build 0)  -->
<!DOCTYPE svg PUBLIC "-//W3C//DTD SVG 1.1//EN" "http://www.w3.org/Graphics/SVG/1.1/DTD/svg11.dtd">
<svg version="1.1" id="Layer_2" xmlns="http://www.w3.org/2000/svg" xmlns:xlink="http://www.w3.org/1999/xlink" x="0px" y="0px"
	 width="60px" height="60px" viewBox="0 0 60 60" enable-background="new 0 0 60 60" xml:space="preserve">
<path fill="#010101" d="M59.707,29.293l-25-25C34.519,4.106,34.265,4,34,4H16c-0.404,0-0.769,0.244-0.924,0.617
	c-0.155,0.374-0.069,0.804,0.217,1.09L31.586,22H1c-0.552,0-1,0.448-1,1v14c0,0.552,0.448,1,1,1h30.586L15.293,54.293
	c-0.286,0.286-0.372,0.716-0.217,1.09C15.231,55.757,15.596,56,16,56h18c0.265,0,0.519-0.105,0.707-0.293l25-25
	C60.098,30.316,60.098,29.684,59.707,29.293z"/>
</svg>
