<?xml version="1.0" encoding="utf-8"?>
<!-- Generator: Adobe Illustrator 17.0.0, SVG Export Plug-In . SVG Version: 6.00 Build 0)  -->
<!DOCTYPE svg PUBLIC "-//W3C//DTD SVG 1.1//EN" "http://www.w3.org/Graphics/SVG/1.1/DTD/svg11.dtd">
<svg version="1.1" id="Layer_2" xmlns="http://www.w3.org/2000/svg" xmlns:xlink="http://www.w3.org/1999/xlink" x="0px" y="0px"
	 width="60px" height="60px" viewBox="0 0 60 60" enable-background="new 0 0 60 60" xml:space="preserve">
<path fill="#010101" d="M30,0C13.458,0,0,13.458,0,30s13.458,30,30,30s30-13.458,30-30S46.542,0,30,0z M48.669,39.743
	C48.478,39.915,48.238,40,48,40c-0.273,0-0.546-0.112-0.743-0.331L30,20.495L12.743,39.669c-0.368,0.411-1.001,0.445-1.412,0.074
	c-0.41-0.369-0.443-1.001-0.074-1.412l18-20c0.379-0.422,1.108-0.422,1.486,0l18,20C49.112,38.742,49.079,39.374,48.669,39.743z"/>
</svg>
