<?xml version="1.0" encoding="utf-8"?>
<!-- Generator: Adobe Illustrator 17.0.0, SVG Export Plug-In . SVG Version: 6.00 Build 0)  -->
<!DOCTYPE svg PUBLIC "-//W3C//DTD SVG 1.1//EN" "http://www.w3.org/Graphics/SVG/1.1/DTD/svg11.dtd">
<svg version="1.1" id="Layer_2" xmlns="http://www.w3.org/2000/svg" xmlns:xlink="http://www.w3.org/1999/xlink" x="0px" y="0px"
	 width="60px" height="60px" viewBox="0 0 60 60" enable-background="new 0 0 60 60" xml:space="preserve">
<path fill="#010101" d="M59,0H1C0.448,0,0,0.447,0,1v58c0,0.553,0.448,1,1,1h58c0.552,0,1-0.447,1-1V1C60,0.447,59.552,0,59,0z
	 M50,41c0,0.404-0.244,0.77-0.617,0.924c-0.375,0.155-0.804,0.069-1.09-0.217L36.001,29.414V51c0,0.553-0.448,1-1,1h-10
	c-0.552,0-1-0.447-1-1V29.414L11.707,41.707c-0.287,0.286-0.716,0.372-1.09,0.217C10.244,41.77,10,41.404,10,41V28
	c0-0.266,0.105-0.52,0.293-0.707l19-19c0.375-0.375,1.039-0.375,1.414,0l18.999,19C49.895,27.48,50,27.734,50,28V41z"/>
</svg>
