<?xml version="1.0" encoding="utf-8"?>
<!-- Generator: Adobe Illustrator 17.0.0, SVG Export Plug-In . SVG Version: 6.00 Build 0)  -->
<!DOCTYPE svg PUBLIC "-//W3C//DTD SVG 1.1//EN" "http://www.w3.org/Graphics/SVG/1.1/DTD/svg11.dtd">
<svg version="1.1" id="Layer_2" xmlns="http://www.w3.org/2000/svg" xmlns:xlink="http://www.w3.org/1999/xlink" x="0px" y="0px"
	 width="60px" height="60px" viewBox="0 0 60 60" enable-background="new 0 0 60 60" xml:space="preserve">
<path fill="#010101" d="M30,0C13.458,0,0,13.458,0,30s13.458,30,30,30s30-13.458,30-30S46.542,0,30,0z M47.471,30.882l-30,16
	C17.323,46.961,17.161,47,17,47c-0.179,0-0.356-0.048-0.515-0.143C16.185,46.677,16,46.351,16,46V14
	c0-0.351,0.185-0.677,0.485-0.857c0.301-0.181,0.674-0.191,0.985-0.025l30,16C47.797,29.292,48,29.631,48,30
	S47.797,30.708,47.471,30.882z"/>
</svg>
