<?xml version="1.0" encoding="utf-8"?>
<!-- Generator: Adobe Illustrator 17.0.0, SVG Export Plug-In . SVG Version: 6.00 Build 0)  -->
<!DOCTYPE svg PUBLIC "-//W3C//DTD SVG 1.1//EN" "http://www.w3.org/Graphics/SVG/1.1/DTD/svg11.dtd">
<svg version="1.1" id="Layer_2" xmlns="http://www.w3.org/2000/svg" xmlns:xlink="http://www.w3.org/1999/xlink" x="0px" y="0px"
	 width="60px" height="60px" viewBox="0 0 60 60" enable-background="new 0 0 60 60" xml:space="preserve">
<path fill="#010101" d="M59,0H1C0.448,0,0,0.447,0,1v58c0,0.553,0.448,1,1,1h58c0.552,0,1-0.447,1-1V1C60,0.447,59.552,0,59,0z
	 M12,35H8v-4h4V35z M20,35h-4v-4h4V35z M20,27h-4v-4h4V27z M28,51h-4v-4h4V51z M28,43h-4v-4h4V43z M28,35h-4v-4h4V35z M28,27h-4v-4
	h4V27z M28,19h-4v-4h4V19z M28,7.001h4v4h-4V7.001z M36,51h-4v-4h4V51z M36,43h-4v-4h4V43z M36,35h-4v-4h4V35z M36,27h-4v-4h4V27z
	 M36,19h-4v-4h4V19z M44,35h-4v-4h4V35z M44,27h-4v-4h4V27z M52,35h-4v-4h4V35z"/>
</svg>
