<?xml version="1.0" encoding="utf-8"?>
<!-- Generator: Adobe Illustrator 17.0.0, SVG Export Plug-In . SVG Version: 6.00 Build 0)  -->
<!DOCTYPE svg PUBLIC "-//W3C//DTD SVG 1.1//EN" "http://www.w3.org/Graphics/SVG/1.1/DTD/svg11.dtd">
<svg version="1.1" id="Layer_2" xmlns="http://www.w3.org/2000/svg" xmlns:xlink="http://www.w3.org/1999/xlink" x="0px" y="0px"
	 width="60px" height="60px" viewBox="0 0 60 60" enable-background="new 0 0 60 60" xml:space="preserve">
<path fill="#010101" d="M30,0C13.458,0,0,13.458,0,30s13.458,30,30,30s30-13.458,30-30S46.542,0,30,0z M44,46
	c0,0.351-0.185,0.677-0.485,0.857C43.356,46.952,43.179,47,43,47c-0.161,0-0.323-0.039-0.471-0.118l-30-16
	C12.203,30.708,12,30.369,12,30s0.203-0.708,0.529-0.882l30-16c0.311-0.167,0.684-0.156,0.985,0.025C43.815,13.323,44,13.649,44,14
	V46z"/>
</svg>
