<?xml version="1.0" encoding="utf-8"?>
<!-- Generator: Adobe Illustrator 17.0.0, SVG Export Plug-In . SVG Version: 6.00 Build 0)  -->
<!DOCTYPE svg PUBLIC "-//W3C//DTD SVG 1.1//EN" "http://www.w3.org/Graphics/SVG/1.1/DTD/svg11.dtd">
<svg version="1.1" id="Layer_2" xmlns="http://www.w3.org/2000/svg" xmlns:xlink="http://www.w3.org/1999/xlink" x="0px" y="0px"
	 width="60px" height="60px" viewBox="0 0 60 60" enable-background="new 0 0 60 60" xml:space="preserve">
<g>
	<rect x="51" y="27" fill="#010101" width="6" height="6"/>
	<rect x="43" y="31" fill="#010101" width="6" height="6"/>
	<rect x="43" y="23" fill="#010101" width="6" height="6"/>
	<rect x="35" y="31" fill="#010101" width="6" height="6"/>
	<rect x="35" y="23" fill="#010101" width="6" height="6"/>
	<rect x="27" y="31" fill="#010101" width="6" height="6"/>
	<rect x="35" y="39" fill="#010101" width="6" height="6"/>
	<rect x="27" y="39" fill="#010101" width="6" height="6"/>
	<rect x="27" y="47" fill="#010101" width="6" height="6"/>
	<rect x="27" y="23" fill="#010101" width="6" height="6"/>
	<rect x="35" y="15" fill="#010101" width="6" height="6"/>
	<rect x="27" y="15" fill="#010101" width="6" height="6"/>
	<rect x="27" y="7" fill="#010101" width="6" height="6"/>
	<rect x="19" y="31" fill="#010101" width="6" height="6"/>
	<rect x="19" y="23" fill="#010101" width="6" height="6"/>
	<rect x="11" y="31" fill="#010101" width="6" height="6"/>
	<rect x="11" y="23" fill="#010101" width="6" height="6"/>
	<rect x="3" y="31" fill="#010101" width="6" height="6"/>
	<rect x="3" y="23" fill="#010101" width="6" height="6"/>
</g>
</svg>
