<?xml version="1.0" encoding="utf-8"?>
<!-- Generator: Adobe Illustrator 17.0.0, SVG Export Plug-In . SVG Version: 6.00 Build 0)  -->
<!DOCTYPE svg PUBLIC "-//W3C//DTD SVG 1.1//EN" "http://www.w3.org/Graphics/SVG/1.1/DTD/svg11.dtd">
<svg version="1.1" id="Layer_2" xmlns="http://www.w3.org/2000/svg" xmlns:xlink="http://www.w3.org/1999/xlink" x="0px" y="0px"
	 width="60px" height="60px" viewBox="0 0 60 60" enable-background="new 0 0 60 60" xml:space="preserve">
<path fill="#010101" d="M30,0C13.458,0,0,13.458,0,30s13.458,30,30,30s30-13.458,30-30S46.542,0,30,0z M48.743,21.669l-18,20
	C30.554,41.88,30.283,42,30,42c-0.283,0-0.554-0.12-0.743-0.331l-18-20c-0.369-0.411-0.336-1.043,0.074-1.412
	c0.41-0.37,1.043-0.336,1.412,0.074L30,39.505l17.257-19.174c0.37-0.41,1.001-0.444,1.412-0.074
	C49.079,20.626,49.112,21.258,48.743,21.669z"/>
</svg>
