<?xml version="1.0" encoding="utf-8"?>
<!-- Generator: Adobe Illustrator 17.0.0, SVG Export Plug-In . SVG Version: 6.00 Build 0)  -->
<!DOCTYPE svg PUBLIC "-//W3C//DTD SVG 1.1//EN" "http://www.w3.org/Graphics/SVG/1.1/DTD/svg11.dtd">
<svg version="1.1" id="Layer_2" xmlns="http://www.w3.org/2000/svg" xmlns:xlink="http://www.w3.org/1999/xlink" x="0px" y="0px"
	 width="60px" height="60px" viewBox="0 0 60 60" enable-background="new 0 0 60 60" xml:space="preserve">
<path fill="#010101" d="M54.383,22.076c-0.373-0.155-0.804-0.07-1.09,0.217L45,30.586L19.707,5.293
	c-0.391-0.391-1.023-0.391-1.414,0l-13,13c-0.391,0.391-0.391,1.023,0,1.414L30.586,45l-8.293,8.293
	c-0.286,0.286-0.372,0.716-0.217,1.09C22.231,54.756,22.596,55,23,55h31c0.553,0,1-0.448,1-1V23
	C55,22.596,54.757,22.231,54.383,22.076z"/>
</svg>
