<?xml version="1.0" encoding="utf-8"?>
<!-- Generator: Adobe Illustrator 17.0.0, SVG Export Plug-In . SVG Version: 6.00 Build 0)  -->
<!DOCTYPE svg PUBLIC "-//W3C//DTD SVG 1.1//EN" "http://www.w3.org/Graphics/SVG/1.1/DTD/svg11.dtd">
<svg version="1.1" id="Layer_2" xmlns="http://www.w3.org/2000/svg" xmlns:xlink="http://www.w3.org/1999/xlink" x="0px" y="0px"
	 width="60px" height="60px" viewBox="0 0 60 60" enable-background="new 0 0 60 60" xml:space="preserve">
<path fill="#010101" d="M59,0H1C0.448,0,0,0.447,0,1v58c0,0.553,0.448,1,1,1h58c0.552,0,1-0.447,1-1V1C60,0.447,59.552,0,59,0z
	 M13.998,50h-4v-4h4V50z M13.998,42h-4v-4h4V42z M13.998,34h-4v-4h4V34z M13.998,26h-4v-4h4V26z M21.998,50h-4v-4h4V50z M21.998,42
	h-4v-4h4V42z M21.998,34h-4v-4h4V34z M29.998,50h-4v-4h4V50z M29.998,42h-4v-4h4V42z M29.998,34h-4v-4h4V34z M29.998,26h-4v-4h4V26z
	 M37.998,50h-4v-4h4V50z M37.998,34h-4v-4h4V34z M37.998,26h-4v-4h4V26z M37.998,18h-4v-4h4V18z M45.999,26h-4v-4h4V26z"/>
</svg>
