<?xml version="1.0" encoding="utf-8"?>
<!-- Generator: Adobe Illustrator 17.0.0, SVG Export Plug-In . SVG Version: 6.00 Build 0)  -->
<!DOCTYPE svg PUBLIC "-//W3C//DTD SVG 1.1//EN" "http://www.w3.org/Graphics/SVG/1.1/DTD/svg11.dtd">
<svg version="1.1" id="Layer_2" xmlns="http://www.w3.org/2000/svg" xmlns:xlink="http://www.w3.org/1999/xlink" x="0px" y="0px"
	 width="60px" height="60px" viewBox="0 0 60 60" enable-background="new 0 0 60 60" xml:space="preserve">
<path fill="#010101" d="M59,0H1C0.447,0,0,0.448,0,1v58c0,0.553,0.447,1,1,1h58c0.553,0,1-0.447,1-1V1C60,0.448,59.553,0,59,0z
	 M50,26c0,0.265-0.106,0.52-0.293,0.707l-19,19C30.512,45.902,30.256,46,30,46c-0.256,0-0.512-0.098-0.707-0.293l-19-19
	C10.105,26.52,10,26.265,10,26V16c0-0.404,0.243-0.769,0.617-0.924c0.375-0.154,0.804-0.069,1.09,0.217L30,33.586l18.293-18.293
	c0.287-0.286,0.716-0.372,1.09-0.217C49.757,15.231,50,15.596,50,16V26z"/>
</svg>
