<?xml version="1.0" encoding="utf-8"?>
<!-- Generator: Adobe Illustrator 17.0.0, SVG Export Plug-In . SVG Version: 6.00 Build 0)  -->
<!DOCTYPE svg PUBLIC "-//W3C//DTD SVG 1.1//EN" "http://www.w3.org/Graphics/SVG/1.1/DTD/svg11.dtd">
<svg version="1.1" id="Layer_2" xmlns="http://www.w3.org/2000/svg" xmlns:xlink="http://www.w3.org/1999/xlink" x="0px" y="0px"
	 width="60px" height="60px" viewBox="0 0 60 60" enable-background="new 0 0 60 60" xml:space="preserve">
<path fill="#010101" d="M59,0H1C0.448,0,0,0.447,0,1v58c0,0.553,0.448,1,1,1h58c0.552,0,1-0.447,1-1V1C60,0.447,59.552,0,59,0z
	 M47.705,39.707l-8,8C39.518,47.895,39.264,48,38.998,48h-26c-0.552,0-1-0.447-1-1V21c0-0.266,0.106-0.52,0.293-0.707l8-8
	c0.286-0.287,0.715-0.374,1.09-0.217c0.374,0.154,0.617,0.52,0.617,0.924v16.586l16.293-16.293c0.391-0.391,1.023-0.391,1.414,0l7,7
	c0.391,0.391,0.391,1.023,0,1.414L30.413,38h16.586c0.404,0,0.769,0.243,0.924,0.617S47.992,39.421,47.705,39.707z"/>
</svg>
