<?xml version="1.0" encoding="utf-8"?>
<!-- Generator: Adobe Illustrator 17.0.0, SVG Export Plug-In . SVG Version: 6.00 Build 0)  -->
<!DOCTYPE svg PUBLIC "-//W3C//DTD SVG 1.1//EN" "http://www.w3.org/Graphics/SVG/1.1/DTD/svg11.dtd">
<svg version="1.1" id="Layer_2" xmlns="http://www.w3.org/2000/svg" xmlns:xlink="http://www.w3.org/1999/xlink" x="0px" y="0px"
	 width="60px" height="60px" viewBox="0 0 60 60" enable-background="new 0 0 60 60" xml:space="preserve">
<path fill="#010101" d="M54.707,18.293l-13-13c-0.391-0.391-1.023-0.391-1.414,0L15,30.586l-8.293-8.293
	c-0.287-0.287-0.716-0.373-1.09-0.217C5.244,22.231,5,22.596,5,23v31c0,0.552,0.448,1,1,1h31c0.404,0,0.769-0.244,0.924-0.617
	c0.155-0.374,0.069-0.804-0.217-1.09L29.414,45l25.293-25.293C55.098,19.316,55.098,18.684,54.707,18.293z"/>
</svg>
