<?xml version="1.0" encoding="utf-8"?>
<!-- Generator: Adobe Illustrator 17.0.0, SVG Export Plug-In . SVG Version: 6.00 Build 0)  -->
<!DOCTYPE svg PUBLIC "-//W3C//DTD SVG 1.1//EN" "http://www.w3.org/Graphics/SVG/1.1/DTD/svg11.dtd">
<svg version="1.1" id="Layer_2" xmlns="http://www.w3.org/2000/svg" xmlns:xlink="http://www.w3.org/1999/xlink" x="0px" y="0px"
	 width="60px" height="60px" viewBox="0 0 60 60" enable-background="new 0 0 60 60" xml:space="preserve">
<path fill="#010101" d="M44.707,14.829c-1.524-1.524-3.551-2.364-5.707-2.364c-2.156,0-4.183,0.84-5.707,2.364L14,34.121v-7.586
	c0-3.86-3.14-7-7-7c-3.86,0-7,3.14-7,7v32c0,0.552,0.448,1,1,1h30c3.86,0,7-3.14,7-7c0-3.86-3.14-7-7-7h-5.586l19.293-19.293
	C47.854,23.096,47.854,17.976,44.707,14.829z"/>
</svg>
