<?xml version="1.0" encoding="utf-8"?>
<!-- Generator: Adobe Illustrator 17.0.0, SVG Export Plug-In . SVG Version: 6.00 Build 0)  -->
<!DOCTYPE svg PUBLIC "-//W3C//DTD SVG 1.1//EN" "http://www.w3.org/Graphics/SVG/1.1/DTD/svg11.dtd">
<svg version="1.1" id="Layer_2" xmlns="http://www.w3.org/2000/svg" xmlns:xlink="http://www.w3.org/1999/xlink" x="0px" y="0px"
	 width="60px" height="60px" viewBox="0 0 60 60" enable-background="new 0 0 60 60" xml:space="preserve">
<path fill="#010101" d="M59,0H1C0.448,0,0,0.447,0,1v58c0,0.553,0.448,1,1,1h58c0.552,0,1-0.447,1-1V1C60,0.447,59.552,0,59,0z
	 M50,32c0,0.266-0.105,0.52-0.293,0.707l-19,19C30.519,51.895,30.265,52,30,52c-0.265,0-0.52-0.105-0.707-0.293l-19-19
	C10.106,32.52,10,32.266,10,32V19c0-0.404,0.244-0.77,0.617-0.924c0.373-0.156,0.803-0.069,1.09,0.217L24,30.586V9
	c0-0.553,0.448-1,1-1h10c0.552,0,1,0.447,1,1v21.586l12.293-12.293c0.286-0.286,0.714-0.373,1.09-0.217
	C49.757,18.23,50,18.596,50,19V32z"/>
</svg>
