<?xml version="1.0" encoding="utf-8"?>
<!-- Generator: Adobe Illustrator 17.0.0, SVG Export Plug-In . SVG Version: 6.00 Build 0)  -->
<!DOCTYPE svg PUBLIC "-//W3C//DTD SVG 1.1//EN" "http://www.w3.org/Graphics/SVG/1.1/DTD/svg11.dtd">
<svg version="1.1" id="Layer_2" xmlns="http://www.w3.org/2000/svg" xmlns:xlink="http://www.w3.org/1999/xlink" x="0px" y="0px"
	 width="60px" height="60px" viewBox="0 0 60 60" enable-background="new 0 0 60 60" xml:space="preserve">
<path fill="#010101" d="M59.988,56.878V24c0-1.104-0.896-2-2-2s-2,0.896-2,2v28.16L18.414,14.586c-0.78-0.781-2.048-0.781-2.828,0
	c-0.781,0.781-0.781,2.047,0,2.828L53.16,54.988H26c-1.105,0-2,0.896-2,2s0.895,2,2,2h31.878C57.919,58.991,57.959,59,58,59
	c0.512,0,1.023-0.195,1.414-0.586C59.836,57.992,60.022,57.43,59.988,56.878z"/>
</svg>
