<?xml version="1.0" encoding="utf-8"?>
<!-- Generator: Adobe Illustrator 17.0.0, SVG Export Plug-In . SVG Version: 6.00 Build 0)  -->
<!DOCTYPE svg PUBLIC "-//W3C//DTD SVG 1.1//EN" "http://www.w3.org/Graphics/SVG/1.1/DTD/svg11.dtd">
<svg version="1.1" id="Layer_2" xmlns="http://www.w3.org/2000/svg" xmlns:xlink="http://www.w3.org/1999/xlink" x="0px" y="0px"
	 width="60px" height="60px" viewBox="0 0 60 60" enable-background="new 0 0 60 60" xml:space="preserve">
<g>
	<path fill="#010101" d="M47.707,17.293l-17-17c-0.391-0.391-1.023-0.391-1.414,0l-17,17C12.105,17.48,12,17.734,12,18v12
		c0,0.404,0.243,0.77,0.617,0.924c0.374,0.155,0.804,0.069,1.09-0.217L30,14.414l16.293,16.293C46.484,30.898,46.74,31,47,31
		c0.129,0,0.259-0.024,0.383-0.076C47.757,30.77,48,30.404,48,30V18C48,17.734,47.894,17.48,47.707,17.293z"/>
	<path fill="#010101" d="M30.707,22.293c-0.391-0.391-1.023-0.391-1.414,0l-17,17C12.105,39.48,12,39.734,12,40v8
		c0,0.404,0.243,0.77,0.617,0.924c0.374,0.156,0.804,0.069,1.09-0.217L30,32.414l16.293,16.293C46.484,48.898,46.74,49,47,49
		c0.129,0,0.259-0.024,0.383-0.076C47.757,48.77,48,48.404,48,48v-8c0-0.266-0.106-0.52-0.293-0.707L30.707,22.293z"/>
	<path fill="#010101" d="M30.707,41.293c-0.391-0.391-1.023-0.391-1.414,0l-17,17c-0.391,0.391-0.391,1.023,0,1.414
		c0.391,0.391,1.023,0.391,1.414,0L30,43.414l16.293,16.293C46.488,59.902,46.744,60,47,60c0.256,0,0.512-0.098,0.707-0.293
		c0.391-0.391,0.391-1.023,0-1.414L30.707,41.293z"/>
</g>
</svg>
