<?xml version="1.0" encoding="utf-8"?>
<!-- Generator: Adobe Illustrator 17.0.0, SVG Export Plug-In . SVG Version: 6.00 Build 0)  -->
<!DOCTYPE svg PUBLIC "-//W3C//DTD SVG 1.1//EN" "http://www.w3.org/Graphics/SVG/1.1/DTD/svg11.dtd">
<svg version="1.1" id="Layer_2" xmlns="http://www.w3.org/2000/svg" xmlns:xlink="http://www.w3.org/1999/xlink" x="0px" y="0px"
	 width="60px" height="60px" viewBox="0 0 60 60" enable-background="new 0 0 60 60" xml:space="preserve">
<g>
	<path fill="#010101" d="M59.707,29.293l-17-17C42.519,12.106,42.266,12,42,12H30c-0.404,0-0.77,0.243-0.924,0.617
		c-0.155,0.374-0.069,0.804,0.217,1.09L45.586,30L29.293,46.293c-0.286,0.286-0.372,0.716-0.217,1.09C29.23,47.757,29.596,48,30,48
		h12c0.266,0,0.519-0.105,0.707-0.293l17-17C60.098,30.316,60.098,29.684,59.707,29.293z"/>
	<path fill="#010101" d="M37.707,29.293l-17-17C20.519,12.106,20.266,12,20,12h-8c-0.404,0-0.77,0.243-0.924,0.617
		c-0.155,0.374-0.069,0.804,0.217,1.09L27.586,30L11.293,46.293c-0.286,0.286-0.372,0.716-0.217,1.09C11.23,47.757,11.596,48,12,48
		h8c0.266,0,0.519-0.105,0.707-0.293l17-17C38.098,30.316,38.098,29.684,37.707,29.293z"/>
	<path fill="#010101" d="M18.707,29.293l-17-17c-0.391-0.391-1.023-0.391-1.414,0c-0.391,0.391-0.391,1.023,0,1.414L16.586,30
		L0.293,46.293c-0.391,0.391-0.391,1.023,0,1.414C0.488,47.902,0.744,48,1,48c0.256,0,0.512-0.098,0.707-0.293l17-17
		C19.098,30.316,19.098,29.684,18.707,29.293z"/>
</g>
</svg>
