<?xml version="1.0" encoding="utf-8"?>
<!-- Generator: Adobe Illustrator 17.0.0, SVG Export Plug-In . SVG Version: 6.00 Build 0)  -->
<!DOCTYPE svg PUBLIC "-//W3C//DTD SVG 1.1//EN" "http://www.w3.org/Graphics/SVG/1.1/DTD/svg11.dtd">
<svg version="1.1" id="Layer_2" xmlns="http://www.w3.org/2000/svg" xmlns:xlink="http://www.w3.org/1999/xlink" x="0px" y="0px"
	 width="60px" height="60px" viewBox="0 0 60 60" enable-background="new 0 0 60 60" xml:space="preserve">
<g>
	<path fill="#010101" d="M51.383,0.077c-0.375-0.156-0.804-0.069-1.09,0.217L30,20.586L9.707,0.293
		c-0.286-0.286-0.715-0.372-1.09-0.217C8.243,0.231,8,0.596,8,1v14c0,0.266,0.105,0.519,0.293,0.707l21,21
		C29.488,36.903,29.744,37,30,37c0.256,0,0.512-0.098,0.707-0.293l21-21C51.894,15.52,52,15.266,52,15V1
		C52,0.596,51.757,0.231,51.383,0.077z"/>
	<path fill="#010101" d="M51.383,23.076c-0.375-0.155-0.804-0.069-1.09,0.217L30,43.586L9.707,23.293
		c-0.286-0.286-0.715-0.371-1.09-0.217C8.243,23.231,8,23.596,8,24v14c0,0.266,0.105,0.519,0.293,0.707l21,21
		C29.488,59.903,29.744,60,30,60c0.256,0,0.512-0.098,0.707-0.293l21-21C51.894,38.52,52,38.266,52,38V24
		C52,23.596,51.757,23.231,51.383,23.076z"/>
</g>
</svg>
