<?xml version="1.0" encoding="utf-8"?>
<!-- Generator: Adobe Illustrator 17.0.0, SVG Export Plug-In . SVG Version: 6.00 Build 0)  -->
<!DOCTYPE svg PUBLIC "-//W3C//DTD SVG 1.1//EN" "http://www.w3.org/Graphics/SVG/1.1/DTD/svg11.dtd">
<svg version="1.1" id="Layer_2" xmlns="http://www.w3.org/2000/svg" xmlns:xlink="http://www.w3.org/1999/xlink" x="0px" y="0px"
	 width="60px" height="60px" viewBox="0 0 60 60" enable-background="new 0 0 60 60" xml:space="preserve">
<g>
	<rect x="27" y="3" fill="#010101" width="6" height="6"/>
	<rect x="31" y="11" fill="#010101" width="6" height="6"/>
	<rect x="23" y="11" fill="#010101" width="6" height="6"/>
	<rect x="31" y="19" fill="#010101" width="6" height="6"/>
	<rect x="23" y="19" fill="#010101" width="6" height="6"/>
	<rect x="31" y="27" fill="#010101" width="6" height="6"/>
	<rect x="39" y="19" fill="#010101" width="6" height="6"/>
	<rect x="39" y="27" fill="#010101" width="6" height="6"/>
	<rect x="47" y="27" fill="#010101" width="6" height="6"/>
	<rect x="23" y="27" fill="#010101" width="6" height="6"/>
	<rect x="15" y="19" fill="#010101" width="6" height="6"/>
	<rect x="15" y="27" fill="#010101" width="6" height="6"/>
	<rect x="7" y="27" fill="#010101" width="6" height="6"/>
	<rect x="31" y="35" fill="#010101" width="6" height="6"/>
	<rect x="23" y="35" fill="#010101" width="6" height="6"/>
	<rect x="31" y="43" fill="#010101" width="6" height="6"/>
	<rect x="23" y="43" fill="#010101" width="6" height="6"/>
	<rect x="31" y="51" fill="#010101" width="6" height="6"/>
	<rect x="23" y="51" fill="#010101" width="6" height="6"/>
</g>
</svg>
