<?xml version="1.0" encoding="utf-8"?>
<!-- Generator: Adobe Illustrator 17.0.0, SVG Export Plug-In . SVG Version: 6.00 Build 0)  -->
<!DOCTYPE svg PUBLIC "-//W3C//DTD SVG 1.1//EN" "http://www.w3.org/Graphics/SVG/1.1/DTD/svg11.dtd">
<svg version="1.1" id="Layer_2" xmlns="http://www.w3.org/2000/svg" xmlns:xlink="http://www.w3.org/1999/xlink" x="0px" y="0px"
	 width="60px" height="60px" viewBox="0 0 60 60" enable-background="new 0 0 60 60" xml:space="preserve">
<path fill="#010101" d="M30,0C13.458,0,0,13.458,0,30s13.458,30,30,30s30-13.458,30-30S46.542,0,30,0z M46.883,17.471l-16,30
	C30.709,47.796,30.369,48,30,48c-0.369,0-0.709-0.204-0.883-0.529l-16-30c-0.165-0.31-0.155-0.684,0.025-0.985
	C13.323,16.184,13.648,16,14,16h32c0.352,0,0.677,0.184,0.857,0.485C47.038,16.787,47.048,17.161,46.883,17.471z"/>
</svg>
