<?xml version="1.0" encoding="utf-8"?>
<!-- Generator: Adobe Illustrator 17.0.0, SVG Export Plug-In . SVG Version: 6.00 Build 0)  -->
<!DOCTYPE svg PUBLIC "-//W3C//DTD SVG 1.1//EN" "http://www.w3.org/Graphics/SVG/1.1/DTD/svg11.dtd">
<svg version="1.1" id="Layer_2" xmlns="http://www.w3.org/2000/svg" xmlns:xlink="http://www.w3.org/1999/xlink" x="0px" y="0px"
	 width="60px" height="60px" viewBox="0 0 60 60" enable-background="new 0 0 60 60" xml:space="preserve">
<path fill="#010101" d="M52.707,22.293l-22-22c-0.391-0.391-1.023-0.391-1.414,0l-22,22c-2.596,2.595-2.596,6.819,0,9.414
	c1.257,1.257,2.929,1.95,4.707,1.95c1.778,0,3.45-0.692,4.707-1.95L22,26.414V52c0,4.411,3.589,8,8,8c4.411,0,8-3.589,8-8V26.414
	l5.293,5.293c1.257,1.257,2.929,1.95,4.707,1.95c1.778,0,3.45-0.692,4.707-1.95C55.303,29.112,55.303,24.888,52.707,22.293z"/>
</svg>
