<?xml version="1.0" encoding="utf-8"?>
<!-- Generator: Adobe Illustrator 17.0.0, SVG Export Plug-In . SVG Version: 6.00 Build 0)  -->
<!DOCTYPE svg PUBLIC "-//W3C//DTD SVG 1.1//EN" "http://www.w3.org/Graphics/SVG/1.1/DTD/svg11.dtd">
<svg version="1.1" id="Layer_2" xmlns="http://www.w3.org/2000/svg" xmlns:xlink="http://www.w3.org/1999/xlink" x="0px" y="0px"
	 width="60px" height="60px" viewBox="0 0 60 60" enable-background="new 0 0 60 60" xml:space="preserve">
<g>
	<path fill="#010101" d="M59,20H24V8c0-0.404-0.244-0.769-0.617-0.924c-0.375-0.155-0.804-0.069-1.09,0.217l-22,22
		c-0.391,0.391-0.391,1.023,0,1.414l22,22C22.484,52.898,22.74,53,23,53c0.129,0,0.259-0.025,0.383-0.076
		C23.756,52.769,24,52.404,24,52V40h35c0.552,0,1-0.448,1-1V21C60,20.448,59.552,20,59,20z"/>
</g>
</svg>
