<?xml version="1.0" encoding="utf-8"?>
<!-- Generator: Adobe Illustrator 17.0.0, SVG Export Plug-In . SVG Version: 6.00 Build 0)  -->
<!DOCTYPE svg PUBLIC "-//W3C//DTD SVG 1.1//EN" "http://www.w3.org/Graphics/SVG/1.1/DTD/svg11.dtd">
<svg version="1.1" id="Layer_2" xmlns="http://www.w3.org/2000/svg" xmlns:xlink="http://www.w3.org/1999/xlink" x="0px" y="0px"
	 width="60px" height="60px" viewBox="0 0 60 60" enable-background="new 0 0 60 60" xml:space="preserve">
<g>
	<path fill="#010101" d="M47.383,29.076c-0.373-0.156-0.804-0.069-1.09,0.217L30,45.586L13.707,29.293
		c-0.286-0.286-0.716-0.373-1.09-0.217C12.243,29.23,12,29.596,12,30v12c0,0.266,0.105,0.52,0.293,0.707l17,17
		C29.488,59.902,29.744,60,30,60c0.256,0,0.512-0.098,0.707-0.293l17-17C47.894,42.52,48,42.266,48,42V30
		C48,29.596,47.757,29.23,47.383,29.076z"/>
	<path fill="#010101" d="M47.383,11.076c-0.373-0.156-0.804-0.069-1.09,0.217L30,27.586L13.707,11.293
		c-0.286-0.286-0.716-0.372-1.09-0.217C12.243,11.231,12,11.596,12,12v8c0,0.266,0.105,0.52,0.293,0.707l17,17
		C29.488,37.902,29.744,38,30,38c0.256,0,0.512-0.098,0.707-0.293l17-17C47.894,20.52,48,20.266,48,20v-8
		C48,11.596,47.757,11.231,47.383,11.076z"/>
	<path fill="#010101" d="M29.293,18.707C29.488,18.902,29.744,19,30,19c0.256,0,0.512-0.098,0.707-0.293l17-17
		c0.391-0.391,0.391-1.023,0-1.414c-0.391-0.391-1.023-0.391-1.414,0L30,16.586L13.707,0.293c-0.391-0.391-1.023-0.391-1.414,0
		c-0.391,0.391-0.391,1.023,0,1.414L29.293,18.707z"/>
</g>
</svg>
