<?xml version="1.0" encoding="utf-8"?>
<!-- Generator: Adobe Illustrator 17.0.0, SVG Export Plug-In . SVG Version: 6.00 Build 0)  -->
<!DOCTYPE svg PUBLIC "-//W3C//DTD SVG 1.1//EN" "http://www.w3.org/Graphics/SVG/1.1/DTD/svg11.dtd">
<svg version="1.1" id="Layer_2" xmlns="http://www.w3.org/2000/svg" xmlns:xlink="http://www.w3.org/1999/xlink" x="0px" y="0px"
	 width="60px" height="60px" viewBox="0 0 60 60" enable-background="new 0 0 60 60" xml:space="preserve">
<path fill="#010101" d="M55.707,25.293l-25-25c-0.391-0.391-1.023-0.391-1.414,0l-25,25C4.105,25.48,4,25.735,4,26v18
	c0,0.404,0.244,0.77,0.617,0.924c0.373,0.155,0.803,0.069,1.09-0.217L22,28.414V59c0,0.553,0.448,1,1,1h14c0.552,0,1-0.447,1-1
	V28.414l16.293,16.293c0.286,0.286,0.715,0.372,1.09,0.217C55.756,44.77,56,44.404,56,44V26C56,25.735,55.895,25.48,55.707,25.293z"
	/>
</svg>
