<?xml version="1.0" encoding="utf-8"?>
<!-- Generator: Adobe Illustrator 17.0.0, SVG Export Plug-In . SVG Version: 6.00 Build 0)  -->
<!DOCTYPE svg PUBLIC "-//W3C//DTD SVG 1.1//EN" "http://www.w3.org/Graphics/SVG/1.1/DTD/svg11.dtd">
<svg version="1.1" id="Layer_2" xmlns="http://www.w3.org/2000/svg" xmlns:xlink="http://www.w3.org/1999/xlink" x="0px" y="0px"
	 width="60px" height="60px" viewBox="0 0 60 60" enable-background="new 0 0 60 60" xml:space="preserve">
<g>
	<path fill="#010101" d="M53.508,29.168L30,55.497L6.492,29.168c-0.735-0.823-1.999-0.895-2.824-0.16
		c-0.824,0.736-0.896,2-0.16,2.824l25,27C28.888,59.257,29.431,59.5,30,59.5c0.569,0,1.112-0.243,1.492-0.668l25-27
		c0.735-0.824,0.664-2.088-0.16-2.824C55.507,28.273,54.243,28.344,53.508,29.168z"/>
	<path fill="#010101" d="M28.508,30.832C28.888,31.257,29.431,31.5,30,31.5c0.569,0,1.112-0.243,1.492-0.668l25-28
		c0.735-0.824,0.664-2.088-0.16-2.824c-0.825-0.734-2.089-0.663-2.824,0.16L30,26.497L6.492,0.168
		c-0.735-0.823-1.999-0.895-2.824-0.16c-0.824,0.736-0.896,2-0.16,2.824L28.508,30.832z"/>
</g>
</svg>
