<?xml version="1.0" encoding="utf-8"?>
<!-- Generator: Adobe Illustrator 17.0.0, SVG Export Plug-In . SVG Version: 6.00 Build 0)  -->
<!DOCTYPE svg PUBLIC "-//W3C//DTD SVG 1.1//EN" "http://www.w3.org/Graphics/SVG/1.1/DTD/svg11.dtd">
<svg version="1.1" id="Layer_2" xmlns="http://www.w3.org/2000/svg" xmlns:xlink="http://www.w3.org/1999/xlink" x="0px" y="0px"
	 width="60px" height="60px" viewBox="0 0 60 60" enable-background="new 0 0 60 60" xml:space="preserve">
<path fill="#010101" d="M30,0C13.458,0,0,13.458,0,30s13.458,30,30,30s30-13.458,30-30S46.542,0,30,0z M46,36H26.414l3.793,3.793
	c1.769,1.769,1.769,4.646,0,6.414c-0.856,0.857-1.996,1.329-3.207,1.329s-2.351-0.472-3.207-1.329l-15.5-15.5
	c-0.391-0.391-0.391-1.023,0-1.414l15.5-15.5c0.856-0.857,1.996-1.329,3.207-1.329s2.351,0.472,3.207,1.329
	c1.769,1.768,1.769,4.645,0,6.414L26.414,24H46c3.309,0,6,2.691,6,6S49.309,36,46,36z"/>
</svg>
