<?xml version="1.0" encoding="utf-8"?>
<!-- Generator: Adobe Illustrator 17.0.0, SVG Export Plug-In . SVG Version: 6.00 Build 0)  -->
<!DOCTYPE svg PUBLIC "-//W3C//DTD SVG 1.1//EN" "http://www.w3.org/Graphics/SVG/1.1/DTD/svg11.dtd">
<svg version="1.1" id="Layer_2" xmlns="http://www.w3.org/2000/svg" xmlns:xlink="http://www.w3.org/1999/xlink" x="0px" y="0px"
	 width="60px" height="60px" viewBox="0 0 60 60" enable-background="new 0 0 60 60" xml:space="preserve">
<path fill="#010101" d="M30,0C13.458,0,0,13.458,0,30s13.458,30,30,30s30-13.458,30-30S46.542,0,30,0z M33.707,48.708
	C33.512,48.903,33.256,49,33,49s-0.512-0.098-0.707-0.293l-5-5c-0.391-0.391-0.391-1.023,0-1.414L33.586,36H9c-0.552,0-1-0.448-1-1
	V25c0-0.552,0.448-1,1-1h24.586l-6.293-6.293c-0.391-0.391-0.391-1.023,0-1.414l5-5c0.391-0.391,1.023-0.391,1.414,0l18,18
	c0.391,0.391,0.391,1.023,0,1.414L33.707,48.708z"/>
</svg>
