<?xml version="1.0" encoding="utf-8"?>
<!-- Generator: Adobe Illustrator 17.0.0, SVG Export Plug-In . SVG Version: 6.00 Build 0)  -->
<!DOCTYPE svg PUBLIC "-//W3C//DTD SVG 1.1//EN" "http://www.w3.org/Graphics/SVG/1.1/DTD/svg11.dtd">
<svg version="1.1" id="Layer_2" xmlns="http://www.w3.org/2000/svg" xmlns:xlink="http://www.w3.org/1999/xlink" x="0px" y="0px"
	 width="60px" height="60px" viewBox="0 0 60 60" enable-background="new 0 0 60 60" xml:space="preserve">
<path fill="#010101" d="M59,0H1C0.448,0,0,0.447,0,1v58c0,0.553,0.448,1,1,1h58c0.552,0,1-0.447,1-1V1C60,0.447,59.552,0,59,0z
	 M11,32H7v-4h4V32z M19,36h-4v-4h4V36z M19,28h-4v-4h4V28z M27,44h-4v-4h4V44z M27,36h-4v-4h4V36z M27,28h-4v-4h4V28z M27,20h-4v-4
	h4V20z M35,52h-4v-4h4V52z M35,44h-4v-4h4V44z M35,36h-4v-4h4V36z M35,28h-4v-4h4V28z M35,20h-4v-4h4V20z M35,12h-4V8h4V12z M43,36
	h-4v-4h4V36z M43,28h-4v-4h4V28z M51,36h-4v-4h4V36z M51,28h-4v-4h4V28z"/>
</svg>
