<?xml version="1.0" encoding="utf-8"?>
<!-- Generator: Adobe Illustrator 17.0.0, SVG Export Plug-In . SVG Version: 6.00 Build 0)  -->
<!DOCTYPE svg PUBLIC "-//W3C//DTD SVG 1.1//EN" "http://www.w3.org/Graphics/SVG/1.1/DTD/svg11.dtd">
<svg version="1.1" id="Layer_2" xmlns="http://www.w3.org/2000/svg" xmlns:xlink="http://www.w3.org/1999/xlink" x="0px" y="0px"
	 width="60px" height="60px" viewBox="0 0 60 60" enable-background="new 0 0 60 60" xml:space="preserve">
<g>
	<path fill="#010101" d="M30.707,25.293c-0.391-0.391-1.023-0.391-1.414,0l-26,26c-0.391,0.391-0.391,1.023,0,1.414l7,7
		c0.391,0.391,1.023,0.391,1.414,0L30,41.414l18.293,18.293C48.488,59.902,48.744,60,49,60c0.256,0,0.512-0.098,0.707-0.293l7-7
		c0.391-0.391,0.391-1.023,0-1.414L30.707,25.293z"/>
	<path fill="#010101" d="M10.293,34.707c0.391,0.391,1.023,0.391,1.414,0L30,16.414l18.293,18.293C48.488,34.902,48.744,35,49,35
		c0.256,0,0.512-0.098,0.707-0.293l7-7c0.391-0.391,0.391-1.023,0-1.414l-26-26c-0.391-0.391-1.023-0.391-1.414,0l-26,26
		c-0.391,0.391-0.391,1.023,0,1.414L10.293,34.707z"/>
</g>
</svg>
