<?xml version="1.0" encoding="utf-8"?>
<!-- Generator: Adobe Illustrator 17.0.0, SVG Export Plug-In . SVG Version: 6.00 Build 0)  -->
<!DOCTYPE svg PUBLIC "-//W3C//DTD SVG 1.1//EN" "http://www.w3.org/Graphics/SVG/1.1/DTD/svg11.dtd">
<svg version="1.1" id="Layer_2" xmlns="http://www.w3.org/2000/svg" xmlns:xlink="http://www.w3.org/1999/xlink" x="0px" y="0px"
	 width="48px" height="48px" viewBox="0 0 48 48" enable-background="new 0 0 48 48" xml:space="preserve">
<g>
	<path fill="#010101" d="M3,46c-0.555,0-1,0.447-1,1c0,0.553,0.445,1,1,1c0.55,0,1-0.447,1-1C4,46.447,3.55,46,3,46z"/>
	<path fill="#010101" d="M7,46c-0.555,0-1,0.447-1,1c0,0.553,0.445,1,1,1c0.55,0,1-0.447,1-1C8,46.447,7.55,46,7,46z"/>
	<path fill="#010101" d="M41,46c-0.555,0-1,0.447-1,1c0,0.553,0.445,1,1,1c0.55,0,1-0.447,1-1C42,46.447,41.55,46,41,46z"/>
	<path fill="#010101" d="M45,46c-0.555,0-1,0.447-1,1c0,0.553,0.445,1,1,1c0.55,0,1-0.447,1-1C46,46.447,45.55,46,45,46z"/>
	<path fill="#010101" d="M47,8h-5V5c0-0.553-0.448-1-1-1H16V1c0-0.553-0.448-1-1-1H1C0.448,0,0,0.447,0,1v33c0,3.309,2.691,6,6,6h17
		v6H11c-0.552,0-1,0.447-1,1c0,0.553,0.448,1,1,1h26c0.552,0,1-0.447,1-1c0-0.553-0.448-1-1-1H25v-6h16c3.86,0,7-3.141,7-7V9
		C48,8.447,47.552,8,47,8z M40,8H11c-0.552,0-1,0.447-1,1v25c0,2.206-1.794,4-4,4c-2.206,0-4-1.794-4-4V2h12v3c0,0.553,0.448,1,1,1
		h25V8z"/>
</g>
</svg>
