<?xml version="1.0" encoding="utf-8"?>
<!-- Generator: Adobe Illustrator 17.0.0, SVG Export Plug-In . SVG Version: 6.00 Build 0)  -->
<!DOCTYPE svg PUBLIC "-//W3C//DTD SVG 1.1//EN" "http://www.w3.org/Graphics/SVG/1.1/DTD/svg11.dtd">
<svg version="1.1" id="Layer_2" xmlns="http://www.w3.org/2000/svg" xmlns:xlink="http://www.w3.org/1999/xlink" x="0px" y="0px"
	 width="48px" height="48px" viewBox="0 0 48 48" enable-background="new 0 0 48 48" xml:space="preserve">
<g>
	<path fill="#010101" d="M35,20c2.528,0,4.908,0.635,7,1.744V9c0-0.553-0.448-1-1-1h-3V5c0-0.553-0.448-1-1-1H12V1
		c0-0.553-0.448-1-1-1H1C0.448,0,0,0.447,0,1v31c0,2.206,1.794,4,4,4h16.051C20.029,35.668,20,35.337,20,35
		C20,26.729,26.729,20,35,20z M6,9v23c0,1.103-0.897,2-2,2s-2-0.897-2-2V2h8v3c0,0.553,0.448,1,1,1h25v2H7C6.448,8,6,8.447,6,9z"/>
	<path fill="#010101" d="M35,22c-7.169,0-13,5.832-13,13s5.831,13,13,13c7.168,0,13-5.832,13-13S42.168,22,35,22z M40.071,34.616
		c-0.195,0.195-0.451,0.293-0.707,0.293c-0.256,0-0.512-0.098-0.707-0.293L36,31.96v8.491c0,0.553-0.448,1-1,1c-0.552,0-1-0.447-1-1
		V31.96l-2.657,2.656c-0.391,0.391-1.024,0.391-1.414,0c-0.391-0.391-0.391-1.023,0-1.414l4.355-4.355
		c0.007-0.007,0.014-0.014,0.021-0.021L35,28.132l0.694,0.694c0.007,0.007,0.014,0.014,0.021,0.021l4.355,4.355
		C40.461,33.593,40.461,34.226,40.071,34.616z"/>
</g>
</svg>
