<?xml version="1.0" encoding="utf-8"?>
<!-- Generator: Adobe Illustrator 17.0.0, SVG Export Plug-In . SVG Version: 6.00 Build 0)  -->
<!DOCTYPE svg PUBLIC "-//W3C//DTD SVG 1.1//EN" "http://www.w3.org/Graphics/SVG/1.1/DTD/svg11.dtd">
<svg version="1.1" id="Layer_2" xmlns="http://www.w3.org/2000/svg" xmlns:xlink="http://www.w3.org/1999/xlink" x="0px" y="0px"
	 width="48px" height="48px" viewBox="0 0 48 48" enable-background="new 0 0 48 48" xml:space="preserve">
<g>
	<path fill="#010101" d="M33.5,21c3.223,0,6.179,1.133,8.5,3.018V9c0-0.553-0.448-1-1-1h-3V5c0-0.553-0.448-1-1-1H12V1
		c0-0.553-0.448-1-1-1H1C0.448,0,0,0.447,0,1v31c0,2.206,1.794,4,4,4h16.088C20.033,35.507,20,35.008,20,34.5
		C20,27.044,26.044,21,33.5,21z M7,8C6.448,8,6,8.447,6,9v23c0,1.103-0.897,2-2,2s-2-0.897-2-2V2h8v3c0,0.553,0.448,1,1,1h25v2H7z"
		/>
	<path fill="#010101" d="M33.5,27.282c2.168,0,4.153,0.959,5.505,2.566h-2.765c-0.552,0-1,0.447-1,1c0,0.553,0.448,1,1,1h5.565
		v-5.566c0-0.553-0.448-1-1-1c-0.552,0-1,0.447-1,1v1.513c-1.677-1.583-3.9-2.513-6.304-2.513c-5.083,0-9.217,4.135-9.217,9.218h2
		C26.283,30.521,29.52,27.282,33.5,27.282z"/>
	<path fill="#010101" d="M40.717,34.5c0,3.98-3.238,7.218-7.217,7.218c-2.169,0-4.153-0.959-5.505-2.565h1.853c0.552,0,1-0.447,1-1
		c0-0.553-0.448-1-1-1h-4.652v4.652c0,0.553,0.448,1,1,1c0.552,0,1-0.447,1-1v-0.599c1.677,1.582,3.9,2.512,6.304,2.512
		c5.082,0,9.217-4.135,9.217-9.218H40.717z"/>
</g>
</svg>
