<?xml version="1.0" encoding="utf-8"?>
<!-- Generator: Adobe Illustrator 17.0.0, SVG Export Plug-In . SVG Version: 6.00 Build 0)  -->
<!DOCTYPE svg PUBLIC "-//W3C//DTD SVG 1.1//EN" "http://www.w3.org/Graphics/SVG/1.1/DTD/svg11.dtd">
<svg version="1.1" id="Layer_2" xmlns="http://www.w3.org/2000/svg" xmlns:xlink="http://www.w3.org/1999/xlink" x="0px" y="0px"
	 width="48px" height="48px" viewBox="0 0 48 48" enable-background="new 0 0 48 48" xml:space="preserve">
<path fill="#010101" d="M47,12h-5V9c0-0.553-0.448-1-1-1H16V5c0-0.553-0.448-1-1-1H1C0.448,4,0,4.447,0,5v33c0,3.309,2.691,6,6,6h35
	c3.86,0,7-3.141,7-7V13C48,12.447,47.552,12,47,12z M36.015,24.242c-0.134,0.537-0.676,0.865-1.213,0.728
	c-0.536-0.134-0.861-0.677-0.728-1.212c0.171-0.687,0.096-1.243-0.23-1.703c-0.536-0.755-1.681-1.188-2.557-1.405l-1.326,9.337
	c0.141,1.046-0.266,2.144-1.15,3.047c-0.855,0.873-2.082,1.513-3.455,1.801C24.835,34.944,24.308,35,23.791,35
	c-2.414,0-4.287-1.187-4.661-2.955c-0.462-2.205,1.548-4.429,4.576-5.063c0.523-0.11,1.052-0.167,1.572-0.167
	c1.166,0,2.2,0.282,3.005,0.768l1.17-8.239c0.076-0.528,0.555-0.896,1.082-0.856c0.354,0.033,3.499,0.377,4.941,2.409
	C36.141,21.836,36.327,22.992,36.015,24.242z M40,12H11c-0.552,0-1,0.447-1,1v25c0,2.206-1.794,4-4,4c-2.206,0-4-1.794-4-4V6h12v3
	c0,0.553,0.448,1,1,1h25V12z"/>
</svg>
