<?xml version="1.0" encoding="utf-8"?>
<!-- Generator: Adobe Illustrator 17.0.0, SVG Export Plug-In . SVG Version: 6.00 Build 0)  -->
<!DOCTYPE svg PUBLIC "-//W3C//DTD SVG 1.1//EN" "http://www.w3.org/Graphics/SVG/1.1/DTD/svg11.dtd">
<svg version="1.1" id="Layer_2" xmlns="http://www.w3.org/2000/svg" xmlns:xlink="http://www.w3.org/1999/xlink" x="0px" y="0px"
	 width="48px" height="48px" viewBox="0 0 48 48" enable-background="new 0 0 48 48" xml:space="preserve">
<g>
	<path fill="#010101" d="M47,28h-1h-2v-3c0-0.553-0.448-1-1-1H27h-2c-0.552,0-1-0.447-1-1v-1h-1h-8h-1v1v21c0,2.206,1.794,4,4,4h23
		c0.306,0,0.606-0.026,0.902-0.065c0.736-0.095,1.434-0.306,2.08-0.612C46.353,46.201,48,43.792,48,41V29C48,28.447,47.552,28,47,28
		z M42,28H21c-0.552,0-1,0.447-1,1v15c0,1.103-0.897,2-2,2s-2-0.897-2-2V24h6v1c0,0.553,0.448,1,1,1h4h15V28z"/>
	<path fill="#010101" d="M36.294,5.708l3.999,3.999C40.488,9.902,40.744,10,41,10c0.256,0,0.512-0.098,0.707-0.293
		c0.391-0.391,0.391-1.023,0-1.414L39.414,6H42c1.103,0,2,0.898,2,2v9c0,0.553,0.448,1,1,1c0.552,0,1-0.447,1-1V8
		c0-2.206-1.794-4-4-4h-2.586l2.293-2.293c0.391-0.391,0.391-1.023,0-1.414c-0.391-0.391-1.023-0.391-1.414,0l-3.999,3.999
		c-0.093,0.093-0.166,0.203-0.217,0.326c-0.101,0.244-0.101,0.52,0,0.764C36.128,5.505,36.201,5.616,36.294,5.708z"/>
	<path fill="#010101" d="M11.706,42.292l-3.999-3.999c-0.391-0.391-1.023-0.391-1.414,0c-0.391,0.391-0.391,1.023,0,1.414L8.586,42
		H6c-1.103,0-2-0.897-2-2v-7c0-0.553-0.448-1-1-1c-0.552,0-1,0.447-1,1v7c0,2.206,1.794,4,4,4h2.586l-2.293,2.293
		c-0.391,0.391-0.391,1.023,0,1.414C6.488,47.902,6.744,48,7,48c0.256,0,0.512-0.098,0.707-0.293l3.999-3.999
		c0.093-0.092,0.166-0.203,0.217-0.326C11.973,43.26,12,43.13,12,43c0-0.13-0.027-0.26-0.077-0.382
		C11.872,42.495,11.799,42.385,11.706,42.292z"/>
	<path fill="#010101" d="M26,21v1h7.669C33.883,21.386,34,20.718,34,20V9c0-0.553-0.448-1-1-1h-3V5c0-0.553-0.448-1-1-1H12V1
		c0-0.553-0.448-1-1-1H1C0.448,0,0,0.447,0,1v21c0,2.206,1.794,4,4,4h8v-5c0-0.553,0.448-1,1-1h12C25.552,20,26,20.447,26,21z M7,8
		C6.448,8,6,8.447,6,9v13c0,1.103-0.897,2-2,2s-2-0.897-2-2V2h8v3c0,0.553,0.448,1,1,1h17v2H7z"/>
</g>
</svg>
