<?xml version="1.0" encoding="utf-8"?>
<!-- Generator: Adobe Illustrator 17.0.0, SVG Export Plug-In . SVG Version: 6.00 Build 0)  -->
<!DOCTYPE svg PUBLIC "-//W3C//DTD SVG 1.1//EN" "http://www.w3.org/Graphics/SVG/1.1/DTD/svg11.dtd">
<svg version="1.1" id="Layer_2" xmlns="http://www.w3.org/2000/svg" xmlns:xlink="http://www.w3.org/1999/xlink" x="0px" y="0px"
	 width="48px" height="48px" viewBox="0 0 48 48" enable-background="new 0 0 48 48" xml:space="preserve">
<g>
	<circle fill="#010101" cx="1.5" cy="5" r="1.5"/>
	<circle fill="#010101" cx="1.5" cy="9" r="1.5"/>
	<circle fill="#010101" cx="1.5" cy="13" r="1.5"/>
	<circle fill="#010101" cx="1.5" cy="17" r="1.5"/>
	<circle fill="#010101" cx="1.5" cy="21" r="1.5"/>
	<circle fill="#010101" cx="1.5" cy="25" r="1.5"/>
	<circle fill="#010101" cx="1.5" cy="29" r="1.5"/>
	<circle fill="#010101" cx="1.5" cy="33" r="1.5"/>
	<circle fill="#010101" cx="1.5" cy="37" r="1.5"/>
	<circle fill="#010101" cx="3.5" cy="41" r="1.5"/>
	<circle fill="#010101" cx="18" cy="43" r="1.5"/>
	<circle fill="#010101" cx="14" cy="43" r="1.5"/>
	<circle fill="#010101" cx="22" cy="43" r="1.5"/>
	<circle fill="#010101" cx="26" cy="43" r="1.5"/>
	<circle fill="#010101" cx="30" cy="43" r="1.5"/>
	<circle fill="#010101" cx="34" cy="43" r="1.5"/>
	<circle fill="#010101" cx="38" cy="43" r="1.5"/>
	<circle fill="#010101" cx="42" cy="43" r="1.5"/>
	<circle fill="#010101" cx="46.5" cy="41" r="1.5"/>
	<circle fill="#010101" cx="46.5" cy="37" r="1.5"/>
	<circle fill="#010101" cx="46.5" cy="33" r="1.5"/>
	<circle fill="#010101" cx="46.5" cy="29" r="1.5"/>
	<circle fill="#010101" cx="46.5" cy="25" r="1.5"/>
	<circle fill="#010101" cx="46.5" cy="21" r="1.5"/>
	<circle fill="#010101" cx="46.5" cy="17" r="1.5"/>
	<circle fill="#010101" cx="46.5" cy="13" r="1.5"/>
	<circle fill="#010101" cx="43" cy="13" r="1.5"/>
	<circle fill="#010101" cx="39" cy="13" r="1.5"/>
	<circle fill="#010101" cx="35" cy="13" r="1.5"/>
	<circle fill="#010101" cx="31" cy="13" r="1.5"/>
	<circle fill="#010101" cx="27" cy="13" r="1.5"/>
	<circle fill="#010101" cx="23" cy="13" r="1.5"/>
	<circle fill="#010101" cx="19" cy="13" r="1.5"/>
	<circle fill="#010101" cx="15" cy="13" r="1.5"/>
	<circle fill="#010101" cx="11" cy="13" r="1.5"/>
	<circle fill="#010101" cx="11" cy="17" r="1.5"/>
	<circle fill="#010101" cx="11" cy="21" r="1.5"/>
	<circle fill="#010101" cx="11" cy="25" r="1.5"/>
	<circle fill="#010101" cx="11" cy="29" r="1.5"/>
	<circle fill="#010101" cx="11" cy="33" r="1.5"/>
	<circle fill="#010101" cx="11" cy="37" r="1.5"/>
	<circle fill="#010101" cx="9" cy="41" r="1.5"/>
	<circle fill="#010101" cx="5.5" cy="5" r="1.5"/>
	<circle fill="#010101" cx="9.5" cy="5" r="1.5"/>
	<circle fill="#010101" cx="13.5" cy="5" r="1.5"/>
	<circle fill="#010101" cx="17.5" cy="5" r="1.5"/>
	<circle fill="#010101" cx="17" cy="9" r="1.5"/>
	<circle fill="#010101" cx="21" cy="9" r="1.5"/>
	<circle fill="#010101" cx="25" cy="9" r="1.5"/>
	<circle fill="#010101" cx="29" cy="9" r="1.5"/>
	<circle fill="#010101" cx="33" cy="9" r="1.5"/>
	<circle fill="#010101" cx="37" cy="9" r="1.5"/>
	<circle fill="#010101" cx="41" cy="9" r="1.5"/>
</g>
</svg>
