<?xml version="1.0" encoding="utf-8"?>
<!-- Generator: Adobe Illustrator 17.0.0, SVG Export Plug-In . SVG Version: 6.00 Build 0)  -->
<!DOCTYPE svg PUBLIC "-//W3C//DTD SVG 1.1//EN" "http://www.w3.org/Graphics/SVG/1.1/DTD/svg11.dtd">
<svg version="1.1" id="Layer_2" xmlns="http://www.w3.org/2000/svg" xmlns:xlink="http://www.w3.org/1999/xlink" x="0px" y="0px"
	 width="48px" height="48px" viewBox="0 0 48 48" enable-background="new 0 0 48 48" xml:space="preserve">
<g>
	<path fill="#010101" d="M37.896,22c1.291,0,2.747,0.456,4.104,1.235V9c0-0.553-0.448-1-1-1h-3V5c0-0.553-0.448-1-1-1H12V1
		c0-0.553-0.448-1-1-1H1C0.448,0,0,0.447,0,1v31c0,2.206,1.794,4,4,4h21.793v-3.758c0-1.18,0.931-1.862,1.862-1.862h1.416
		C29.071,25.75,34.172,22,37.896,22z M7,8C6.448,8,6,8.447,6,9v23c0,1.103-0.897,2-2,2s-2-0.897-2-2V2h8v3c0,0.553,0.448,1,1,1h25v2
		H7z"/>
	<path fill="#010101" d="M46.896,32h-1.483v-0.923c0-3.793-3.724-7.517-7.517-7.517c-3.793,0-7.517,3.724-7.517,7.517V32h-1.483
		c-0.552,0-1,0.447-1,1v14c0,0.553,0.448,1,1,1h18c0.552,0,1-0.447,1-1V33C47.896,32.447,47.449,32,46.896,32z M38.896,39.671v3.557
		c0,0.553-0.448,1-1,1c-0.552,0-1-0.447-1-1v-3.562c-0.374-0.294-0.624-0.742-0.634-1.249c-0.008-0.436,0.154-0.85,0.457-1.164
		c0.303-0.314,0.709-0.492,1.146-0.501c0,0,0,0,0,0c0.915,0,1.647,0.719,1.665,1.603C39.54,38.889,39.288,39.365,38.896,39.671z
		 M43.414,32.241L43.414,32.241l-11.034,0v0v-1.164c0-2.681,2.836-5.517,5.517-5.517c2.681,0,5.517,2.836,5.517,5.517V32.241z"/>
</g>
</svg>
