<?xml version="1.0" encoding="utf-8"?>
<!-- Generator: Adobe Illustrator 17.0.0, SVG Export Plug-In . SVG Version: 6.00 Build 0)  -->
<!DOCTYPE svg PUBLIC "-//W3C//DTD SVG 1.1//EN" "http://www.w3.org/Graphics/SVG/1.1/DTD/svg11.dtd">
<svg version="1.1" id="Layer_2" xmlns="http://www.w3.org/2000/svg" xmlns:xlink="http://www.w3.org/1999/xlink" x="0px" y="0px"
	 width="48px" height="48px" viewBox="0 0 48 48" enable-background="new 0 0 48 48" xml:space="preserve">
<g>
	<path fill="none" d="M10,38V13c0-0.553,0.448-1,1-1h29v-2H15c-0.552,0-1-0.447-1-1V6H2v32c0,2.206,1.794,4,4,4
		C8.206,42,10,40.206,10,38z"/>
	<polygon fill="#010101" points="23.999,35 26.999,35 26.999,31 30.999,31 30.999,35 33.999,35 33.999,26.414 28.999,21.414 
		23.999,26.414 	"/>
	<path fill="#010101" d="M47,12h-5V9c0-0.553-0.448-1-1-1H16V5c0-0.553-0.448-1-1-1H1C0.448,4,0,4.447,0,5v33c0,3.309,2.691,6,6,6
		h35c3.86,0,7-3.141,7-7V13C48,12.447,47.552,12,47,12z M19.707,30.707c-0.391,0.391-1.023,0.391-1.414,0
		c-0.391-0.391-0.391-1.023,0-1.414l3.998-3.999c0.001-0.001,0.002-0.002,0.003-0.003l5.998-5.999c0.375-0.375,1.039-0.375,1.414,0
		l5.999,5.999c0,0.001,0.001,0.001,0.001,0.002l3.999,3.999c0.391,0.391,0.391,1.023,0,1.414C39.511,30.902,39.255,31,38.999,31
		c-0.256,0-0.512-0.098-0.707-0.293l-2.293-2.293V36c0,0.553-0.448,1-1,1h-12c-0.552,0-1-0.447-1-1v-7.585L19.707,30.707z M2,38V6
		h12v3c0,0.553,0.448,1,1,1h25v2H11c-0.552,0-1,0.447-1,1v25c0,2.206-1.794,4-4,4C3.794,42,2,40.206,2,38z"/>
</g>
</svg>
