<?xml version="1.0" encoding="utf-8"?>
<!-- Generator: Adobe Illustrator 17.0.0, SVG Export Plug-In . SVG Version: 6.00 Build 0)  -->
<!DOCTYPE svg PUBLIC "-//W3C//DTD SVG 1.1//EN" "http://www.w3.org/Graphics/SVG/1.1/DTD/svg11.dtd">
<svg version="1.1" id="Layer_2" xmlns="http://www.w3.org/2000/svg" xmlns:xlink="http://www.w3.org/1999/xlink" x="0px" y="0px"
	 width="48px" height="48px" viewBox="0 0 48 48" enable-background="new 0 0 48 48" xml:space="preserve">
<g>
	<path fill="#010101" d="M21.688,34.411c0-0.545,0.037-1.091,0.112-1.655l-2.297-1.327c-0.478-0.276-0.642-0.889-0.365-1.366
		l3.983-6.892c0.276-0.479,0.885-0.644,1.365-0.366l2.317,1.333c1.013-0.749,2.293-1.451,3.344-1.91V20c0-0.553,0.448-1,1-1h7.733
		c0.552,0,1,0.447,1,1v2.246c0.779,0.386,1.465,0.905,2.12,1.448V9c0-0.553-0.448-1-1-1h-3V5c0-0.553-0.448-1-1-1H12V1
		c0-0.553-0.448-1-1-1H1C0.448,0,0,0.447,0,1v31c0,2.206,1.794,4,4,4h17.796C21.727,35.46,21.688,34.928,21.688,34.411z M6,9v23
		c0,1.103-0.897,2-2,2s-2-0.897-2-2V2h8v3c0,0.553,0.448,1,1,1h25v2H7C6.448,8,6,8.447,6,9z"/>
	<path fill="#010101" d="M45.855,37.454c-0.367-0.212-0.561-0.632-0.483-1.048c0.125-0.678,0.189-1.349,0.189-1.995
		c0-0.649-0.063-1.302-0.191-1.994c-0.077-0.417,0.117-0.837,0.483-1.049l2.028-1.172l-2.978-5.157l-2.011,1.168
		c-0.367,0.213-0.83,0.173-1.153-0.104l-0.336-0.289c-0.95-0.82-1.848-1.596-2.872-1.976c-0.392-0.146-0.652-0.52-0.652-0.938V21
		h-5.733v1.9c0,0.418-0.26,0.792-0.652,0.938c-1.315,0.488-3.015,1.462-3.954,2.265c-0.321,0.276-0.781,0.319-1.149,0.106
		l-2.039-1.174l-2.983,5.162l2.026,1.171c0.366,0.212,0.559,0.632,0.483,1.048c-0.129,0.697-0.191,1.35-0.191,1.995
		c0,0.649,0.062,1.302,0.19,1.995c0.077,0.417-0.117,0.836-0.483,1.048l-2.029,1.172l2.98,5.161l2.048-1.175
		c0.366-0.21,0.826-0.169,1.147,0.107c0.919,0.786,3.506,1.916,4.921,2.442c0.392,0.146,0.651,0.52,0.651,0.938V48h4.767v-1.9
		c0-0.418,0.26-0.791,0.651-0.938c0.854-0.317,1.669-1.058,2.458-1.773c0.251-0.229,0.501-0.455,0.751-0.669
		c0.323-0.277,0.785-0.319,1.151-0.105l2.021,1.17l2.974-5.158L45.855,37.454z M34.623,40.716c-3.476,0-6.305-2.828-6.305-6.305
		c0-3.477,2.828-6.306,6.305-6.306c3.477,0,6.306,2.829,6.306,6.306C40.929,37.888,38.101,40.716,34.623,40.716z"/>
</g>
</svg>
