<?xml version="1.0" encoding="utf-8"?>
<!-- Generator: Adobe Illustrator 17.0.0, SVG Export Plug-In . SVG Version: 6.00 Build 0)  -->
<!DOCTYPE svg PUBLIC "-//W3C//DTD SVG 1.1//EN" "http://www.w3.org/Graphics/SVG/1.1/DTD/svg11.dtd">
<svg version="1.1" id="Layer_2" xmlns="http://www.w3.org/2000/svg" xmlns:xlink="http://www.w3.org/1999/xlink" x="0px" y="0px"
	 width="48px" height="48px" viewBox="0 0 48 48" enable-background="new 0 0 48 48" xml:space="preserve">
<path fill="#010101" d="M47,12h-5V9c0-0.553-0.448-1-1-1H16V5c0-0.553-0.448-1-1-1H1C0.448,4,0,4.447,0,5v33c0,3.309,2.691,6,6,6h35
	c3.86,0,7-3.141,7-7V13C48,12.447,47.552,12,47,12z M35.504,28.864l-12,7C23.348,35.954,23.174,36,23,36
	c-0.172,0-0.344-0.044-0.498-0.133C22.191,35.689,22,35.358,22,35V21c0-0.358,0.191-0.688,0.502-0.867
	c0.311-0.179,0.693-0.176,1.002,0.003l12,7C35.811,27.315,36,27.645,36,28C36,28.356,35.811,28.685,35.504,28.864z M40,12H11
	c-0.552,0-1,0.447-1,1v25c0,2.206-1.794,4-4,4c-2.206,0-4-1.794-4-4V6h12v3c0,0.553,0.448,1,1,1h25V12z"/>
</svg>
