<?xml version="1.0" encoding="utf-8"?>
<!-- Generator: Adobe Illustrator 17.0.0, SVG Export Plug-In . SVG Version: 6.00 Build 0)  -->
<!DOCTYPE svg PUBLIC "-//W3C//DTD SVG 1.1//EN" "http://www.w3.org/Graphics/SVG/1.1/DTD/svg11.dtd">
<svg version="1.1" id="Layer_2" xmlns="http://www.w3.org/2000/svg" xmlns:xlink="http://www.w3.org/1999/xlink" x="0px" y="0px"
	 width="48px" height="48px" viewBox="0 0 48 48" enable-background="new 0 0 48 48" xml:space="preserve">
<g>
	<path fill="#010101" d="M41.194,21.465c0.221-0.221,0.518-0.303,0.806-0.274V9c0-0.553-0.448-1-1-1h-3V5c0-0.553-0.448-1-1-1H12V1
		c0-0.553-0.448-1-1-1H1C0.448,0,0,0.447,0,1v31c0,2.206,1.794,4,4,4h22.657L41.194,21.465z M6,9v23c0,1.103-0.897,2-2,2
		s-2-0.897-2-2V2h8v3c0,0.553,0.448,1,1,1h25v2H7C6.448,8,6,8.447,6,9z"/>
	<path fill="#010101" d="M23.935,46.729c-0.1,0.349-0.003,0.725,0.254,0.981c0.19,0.19,0.445,0.293,0.707,0.293
		c0.091,0,0.181-0.013,0.271-0.038l6.438-1.84l-5.832-5.832L23.935,46.729z"/>
	<path fill="#010101" d="M47.608,29.293l-5-5c-0.169-0.169-0.387-0.251-0.608-0.274v-0.334l-0.099-0.099l-4,4L44.315,34l3.293-3.293
		c0.188-0.187,0.293-0.441,0.293-0.707C47.901,29.734,47.795,29.481,47.608,29.293z"/>
	<polygon fill="#010101" points="29.485,36 29.486,36 26.896,38.589 33.31,45.003 40.825,37.489 42.901,35.414 36.487,28.999 	"/>
</g>
</svg>
