<?xml version="1.0" encoding="utf-8"?>
<!-- Generator: Adobe Illustrator 17.0.0, SVG Export Plug-In . SVG Version: 6.00 Build 0)  -->
<!DOCTYPE svg PUBLIC "-//W3C//DTD SVG 1.1//EN" "http://www.w3.org/Graphics/SVG/1.1/DTD/svg11.dtd">
<svg version="1.1" id="Layer_2" xmlns="http://www.w3.org/2000/svg" xmlns:xlink="http://www.w3.org/1999/xlink" x="0px" y="0px"
	 width="60px" height="60px" viewBox="0 0 60 60" enable-background="new 0 0 60 60" xml:space="preserve">
<g>
	<path fill="#010101" d="M24.183,18.787L15.91,0.586C15.748,0.23,15.392,0,15,0H9.539l9.345,21.027
		C20.527,20.061,22.305,19.302,24.183,18.787z"/>
	<path fill="#010101" d="M17.187,22.133L7.35,0H2C1.659,0,1.341,0.174,1.157,0.462C0.973,0.75,0.949,1.111,1.093,1.421
		l11.611,25.008C13.988,24.795,15.498,23.348,17.187,22.133z"/>
	<path fill="#010101" d="M58.843,0.462C58.659,0.174,58.341,0,58,0h-5.35l-9.837,22.133c1.689,1.215,3.199,2.663,4.484,4.296
		L58.907,1.421C59.051,1.111,59.027,0.75,58.843,0.462z"/>
	<path fill="#010101" d="M50.461,0H45c-0.392,0-0.748,0.23-0.91,0.586l-8.273,18.201c1.878,0.516,3.656,1.274,5.299,2.24L50.461,0z"
		/>
	<path fill="#010101" d="M30,20c-11.028,0-20,8.972-20,20c0,11.028,8.972,20,20,20s20-8.972,20-20C50,28.972,41.028,20,30,20z
		 M41.32,37.384l-5.738,4.782l2.892,8.676c0.067,0.2,0.001,0.421-0.165,0.551C38.219,51.464,38.11,51.5,38,51.5
		c-0.092,0-0.184-0.025-0.265-0.076L30,46.59l-7.735,4.834c-0.179,0.112-0.409,0.099-0.574-0.031
		c-0.166-0.13-0.232-0.351-0.165-0.551l2.892-8.676l-5.738-4.782c-0.162-0.135-0.222-0.356-0.15-0.554
		c0.072-0.198,0.26-0.33,0.47-0.33h6.691l3.862-7.724c0.17-0.339,0.725-0.339,0.895,0l3.862,7.724H41c0.21,0,0.398,0.132,0.47,0.33
		C41.542,37.028,41.482,37.249,41.32,37.384z"/>
</g>
</svg>
