<?xml version="1.0" encoding="utf-8"?>
<!-- Generator: Adobe Illustrator 17.0.0, SVG Export Plug-In . SVG Version: 6.00 Build 0)  -->
<!DOCTYPE svg PUBLIC "-//W3C//DTD SVG 1.1//EN" "http://www.w3.org/Graphics/SVG/1.1/DTD/svg11.dtd">
<svg version="1.1" id="Layer_2" xmlns="http://www.w3.org/2000/svg" xmlns:xlink="http://www.w3.org/1999/xlink" x="0px" y="0px"
	 width="60px" height="60px" viewBox="0 0 60 60" enable-background="new 0 0 60 60" xml:space="preserve">
<g>
	<path fill="#010101" d="M36,0h-4v18.025c1.37,0.062,2.706,0.252,4,0.555V0z"/>
	<path fill="#010101" d="M43.985,7.174C43.995,7.116,44,7.059,44,7V1c0-0.552-0.448-1-1-1h-5v19.148
		c1.251,0.421,2.454,0.948,3.593,1.577L43.985,7.174z"/>
	<path fill="#010101" d="M20.407,20.726c1.14-0.629,2.342-1.156,3.593-1.577V0h-5c-0.552,0-1,0.448-1,1v6
		c0,0.059,0.005,0.116,0.015,0.174L20.407,20.726z"/>
	<path fill="#010101" d="M30,0h-4v18.58c1.294-0.302,2.63-0.493,4-0.555V0z"/>
	<path fill="#010101" d="M31,20c-11.028,0-20,8.972-20,20c0,11.028,8.972,20,20,20c11.028,0,20-8.972,20-20
		C51,28.972,42.028,20,31,20z M42.32,37.384l-5.738,4.782l2.892,8.676c0.067,0.2,0.001,0.421-0.165,0.551
		C39.219,51.464,39.11,51.5,39,51.5c-0.092,0-0.184-0.025-0.265-0.076L31,46.59l-7.735,4.834c-0.179,0.112-0.409,0.099-0.574-0.031
		c-0.166-0.13-0.232-0.351-0.165-0.551l2.892-8.676l-5.738-4.782c-0.162-0.135-0.222-0.356-0.15-0.554
		c0.072-0.198,0.26-0.33,0.47-0.33h6.691l3.862-7.724c0.17-0.339,0.725-0.339,0.895,0l3.862,7.724H42c0.21,0,0.398,0.132,0.47,0.33
		C42.542,37.028,42.482,37.249,42.32,37.384z"/>
</g>
</svg>
