<?xml version="1.0" encoding="utf-8"?>
<!-- Generator: Adobe Illustrator 17.0.0, SVG Export Plug-In . SVG Version: 6.00 Build 0)  -->
<!DOCTYPE svg PUBLIC "-//W3C//DTD SVG 1.1//EN" "http://www.w3.org/Graphics/SVG/1.1/DTD/svg11.dtd">
<svg version="1.1" id="Layer_2" xmlns="http://www.w3.org/2000/svg" xmlns:xlink="http://www.w3.org/1999/xlink" x="0px" y="0px"
	 width="60px" height="60px" viewBox="0 0 60 60" enable-background="new 0 0 60 60" xml:space="preserve">
<g>
	<path fill="#010101" d="M35.864,41.69c-1.641,1.986-4.095,3.152-6.704,3.152c-2.609,0-5.063-1.166-6.704-3.152
		c-1.357,0.367-2.772,0.382-4.122,0.092V59c0,0.404,0.244,0.769,0.617,0.924c0.374,0.154,0.804,0.069,1.09-0.217l9.293-9.293
		l9.293,9.293C38.818,59.898,39.073,60,39.334,60c0.129,0,0.259-0.025,0.383-0.076c0.374-0.155,0.617-0.52,0.617-0.924V41.7
		C38.881,42.074,37.337,42.088,35.864,41.69z"/>
	<path fill="#010101" d="M50.297,25.483c-0.008-0.087-0.019-0.174-0.03-0.26c-0.026-0.199-0.061-0.397-0.106-0.593
		c-0.019-0.082-0.038-0.165-0.06-0.247c-0.053-0.195-0.117-0.386-0.187-0.576c-0.03-0.08-0.058-0.161-0.091-0.241
		c-0.077-0.183-0.167-0.361-0.26-0.538c-0.042-0.079-0.08-0.161-0.125-0.238c-0.103-0.177-0.221-0.345-0.342-0.513
		c-0.049-0.067-0.091-0.139-0.142-0.205c-0.178-0.229-0.37-0.447-0.58-0.652c0.209-0.205,0.401-0.424,0.579-0.652
		c0.053-0.068,0.096-0.142,0.147-0.211c0.118-0.165,0.235-0.331,0.337-0.506c0.047-0.08,0.085-0.163,0.128-0.244
		c0.092-0.174,0.181-0.351,0.257-0.532c0.034-0.081,0.062-0.163,0.092-0.244c0.07-0.188,0.134-0.379,0.186-0.572
		c0.022-0.082,0.041-0.165,0.06-0.249c0.044-0.195,0.08-0.393,0.106-0.593c0.011-0.086,0.022-0.172,0.03-0.258
		c0.018-0.198,0.023-0.397,0.022-0.598c-0.001-0.089,0.002-0.177-0.002-0.266c-0.01-0.205-0.035-0.411-0.065-0.616
		c-0.012-0.081-0.018-0.162-0.033-0.243c-0.052-0.283-0.121-0.564-0.214-0.842c-0.093-0.278-0.207-0.546-0.333-0.805
		c-0.043-0.088-0.096-0.17-0.143-0.256c-0.091-0.166-0.184-0.331-0.288-0.487c-0.063-0.094-0.133-0.183-0.2-0.273
		c-0.104-0.139-0.21-0.275-0.324-0.405c-0.076-0.087-0.156-0.17-0.237-0.252c-0.12-0.123-0.244-0.241-0.373-0.353
		c-0.085-0.075-0.172-0.148-0.262-0.219c-0.138-0.108-0.281-0.21-0.427-0.307c-0.091-0.061-0.182-0.123-0.277-0.179
		c-0.157-0.094-0.32-0.177-0.485-0.257c-0.094-0.046-0.186-0.096-0.282-0.137c-0.183-0.079-0.372-0.144-0.562-0.206
		c-0.086-0.028-0.169-0.063-0.257-0.088c-0.28-0.08-0.567-0.144-0.86-0.188c0.046-0.286,0.07-0.573,0.076-0.86
		c0.002-0.088-0.007-0.174-0.009-0.262c-0.004-0.2-0.009-0.399-0.031-0.597c-0.01-0.092-0.029-0.182-0.043-0.273
		c-0.03-0.194-0.064-0.387-0.111-0.578c-0.021-0.085-0.048-0.168-0.072-0.251c-0.057-0.192-0.12-0.383-0.194-0.57
		c-0.032-0.079-0.066-0.157-0.1-0.235c-0.082-0.184-0.172-0.364-0.271-0.54c-0.043-0.076-0.085-0.152-0.131-0.227
		c-0.105-0.17-0.22-0.335-0.341-0.496c-0.054-0.071-0.105-0.145-0.161-0.213c-0.131-0.161-0.275-0.312-0.422-0.461
		c-0.058-0.059-0.112-0.122-0.172-0.178c-0.212-0.198-0.437-0.386-0.678-0.558c-0.243-0.172-0.497-0.324-0.76-0.46
		c-0.04-0.021-0.082-0.037-0.123-0.057c-0.234-0.115-0.473-0.22-0.719-0.307c-0.022-0.008-0.044-0.014-0.066-0.021
		c-1.135-0.386-2.37-0.473-3.548-0.247c-0.003,0-0.006,0.001-0.008,0.001c-0.266,0.052-0.529,0.125-0.787,0.208
		c-0.038,0.013-0.077,0.021-0.115,0.034c-0.28,0.096-0.555,0.21-0.821,0.345c-0.131-0.254-0.282-0.496-0.444-0.728
		c-0.064-0.092-0.138-0.174-0.206-0.262c-0.11-0.142-0.219-0.283-0.34-0.415c-0.07-0.077-0.148-0.147-0.221-0.221
		c-0.134-0.133-0.27-0.264-0.415-0.385c-0.071-0.06-0.146-0.115-0.219-0.171c-0.159-0.122-0.322-0.239-0.492-0.347
		c-0.073-0.046-0.148-0.09-0.222-0.134c-0.178-0.104-0.36-0.198-0.547-0.285c-0.078-0.036-0.156-0.073-0.235-0.106
		c-0.19-0.079-0.386-0.147-0.583-0.21c-0.083-0.026-0.165-0.055-0.25-0.078c-0.205-0.056-0.415-0.096-0.626-0.133
		c-0.08-0.014-0.16-0.034-0.241-0.044C29.754,0.023,29.459,0,29.16,0c-0.299,0-0.594,0.023-0.886,0.063
		c-0.08,0.01-0.158,0.03-0.238,0.043c-0.213,0.037-0.424,0.078-0.63,0.134c-0.083,0.022-0.163,0.051-0.245,0.077
		c-0.2,0.063-0.398,0.132-0.591,0.213c-0.076,0.032-0.151,0.067-0.226,0.102c-0.191,0.089-0.378,0.185-0.56,0.291
		c-0.071,0.041-0.141,0.082-0.21,0.126C25.398,1.16,25.23,1.28,25.066,1.407c-0.068,0.053-0.137,0.104-0.203,0.159
		c-0.153,0.127-0.296,0.265-0.437,0.405c-0.066,0.066-0.136,0.129-0.2,0.199c-0.132,0.144-0.252,0.298-0.371,0.453
		c-0.058,0.075-0.121,0.146-0.175,0.223c-0.164,0.234-0.315,0.479-0.448,0.735c-0.266-0.135-0.54-0.249-0.82-0.345
		c-0.039-0.014-0.079-0.022-0.117-0.035c-0.258-0.083-0.52-0.156-0.786-0.208c-0.002,0-0.004,0-0.006-0.001
		c-1.177-0.227-2.412-0.14-3.546,0.246c-0.024,0.008-0.048,0.014-0.071,0.023c-0.244,0.086-0.482,0.191-0.714,0.305
		c-0.042,0.02-0.085,0.037-0.127,0.058c-0.263,0.136-0.517,0.288-0.759,0.46c-0.242,0.171-0.466,0.359-0.678,0.557
		c-0.06,0.057-0.113,0.119-0.171,0.177c-0.147,0.148-0.29,0.299-0.421,0.459c-0.059,0.071-0.111,0.147-0.167,0.221
		c-0.118,0.158-0.231,0.318-0.333,0.485c-0.049,0.079-0.094,0.159-0.139,0.24c-0.095,0.169-0.182,0.343-0.26,0.519
		c-0.038,0.086-0.075,0.171-0.11,0.258c-0.07,0.177-0.129,0.357-0.183,0.54c-0.028,0.093-0.057,0.186-0.081,0.281
		C13.696,8,13.665,8.18,13.637,8.36c-0.017,0.104-0.038,0.206-0.049,0.311c-0.02,0.179-0.024,0.359-0.028,0.54
		c-0.002,0.106-0.013,0.21-0.01,0.317c0.007,0.284,0.03,0.569,0.076,0.853c-0.293,0.043-0.579,0.108-0.859,0.188
		c-0.089,0.025-0.173,0.061-0.26,0.089c-0.189,0.062-0.378,0.127-0.56,0.205c-0.097,0.042-0.188,0.091-0.282,0.137
		c-0.165,0.081-0.328,0.164-0.485,0.257c-0.094,0.056-0.184,0.117-0.275,0.177c-0.148,0.098-0.292,0.2-0.431,0.31
		c-0.088,0.069-0.174,0.141-0.258,0.215c-0.131,0.114-0.256,0.234-0.378,0.358c-0.079,0.081-0.158,0.163-0.233,0.248
		c-0.116,0.131-0.223,0.27-0.328,0.411c-0.066,0.089-0.134,0.176-0.196,0.268c-0.106,0.159-0.201,0.327-0.294,0.497
		c-0.045,0.083-0.096,0.163-0.138,0.248c-0.127,0.259-0.241,0.527-0.334,0.807c-0.093,0.278-0.162,0.56-0.214,0.843
		c-0.014,0.079-0.02,0.158-0.031,0.236c-0.03,0.207-0.055,0.415-0.065,0.622c-0.004,0.088-0.001,0.177-0.002,0.266
		c-0.001,0.2,0.004,0.399,0.022,0.597c0.008,0.087,0.019,0.174,0.03,0.261c0.026,0.198,0.061,0.395,0.105,0.589
		c0.019,0.084,0.039,0.169,0.062,0.253c0.052,0.191,0.115,0.379,0.184,0.566c0.031,0.083,0.06,0.168,0.095,0.251
		c0.075,0.179,0.163,0.353,0.254,0.525c0.044,0.083,0.083,0.168,0.131,0.25c0.101,0.172,0.216,0.336,0.332,0.499
		c0.052,0.072,0.096,0.148,0.151,0.218c0.177,0.228,0.369,0.446,0.578,0.651c-0.208,0.204-0.399,0.422-0.577,0.649
		c-0.059,0.075-0.107,0.156-0.162,0.233c-0.113,0.158-0.224,0.316-0.322,0.483c-0.049,0.085-0.09,0.172-0.135,0.258
		c-0.09,0.17-0.177,0.341-0.251,0.519c-0.035,0.084-0.065,0.169-0.096,0.255c-0.068,0.185-0.131,0.371-0.182,0.562
		c-0.023,0.085-0.043,0.171-0.062,0.257c-0.044,0.193-0.078,0.388-0.104,0.585c-0.012,0.088-0.023,0.176-0.031,0.265
		C8.005,25.682,7.999,25.88,8,26.079c0,0.089-0.002,0.179,0.002,0.268c0.01,0.205,0.035,0.41,0.064,0.615
		c0.012,0.081,0.017,0.163,0.033,0.244c0.052,0.282,0.121,0.563,0.214,0.842c0.093,0.279,0.207,0.547,0.334,0.807
		c0.041,0.084,0.092,0.163,0.137,0.246c0.093,0.17,0.189,0.339,0.296,0.499c0.061,0.091,0.128,0.177,0.193,0.264
		c0.106,0.142,0.214,0.282,0.331,0.414c0.074,0.084,0.152,0.166,0.231,0.246c0.122,0.125,0.248,0.245,0.379,0.359
		c0.084,0.073,0.169,0.145,0.257,0.214c0.139,0.109,0.284,0.211,0.432,0.309c0.091,0.06,0.18,0.122,0.274,0.177
		c0.157,0.094,0.321,0.177,0.486,0.257c0.094,0.046,0.186,0.095,0.282,0.137c0.182,0.079,0.37,0.143,0.559,0.205
		c0.087,0.029,0.171,0.064,0.26,0.089c0.28,0.08,0.566,0.144,0.859,0.188c-0.046,0.285-0.069,0.572-0.076,0.857
		c-0.002,0.092,0.007,0.182,0.009,0.274c0.004,0.196,0.009,0.392,0.031,0.587c0.01,0.092,0.029,0.182,0.043,0.273
		c0.03,0.194,0.064,0.387,0.112,0.578c0.021,0.085,0.048,0.167,0.072,0.251c0.057,0.192,0.12,0.383,0.194,0.57
		c0.031,0.079,0.066,0.158,0.1,0.236c0.081,0.184,0.172,0.363,0.27,0.539c0.043,0.077,0.086,0.153,0.132,0.228
		c0.104,0.169,0.219,0.333,0.339,0.493c0.054,0.072,0.106,0.146,0.163,0.217c0.13,0.159,0.273,0.31,0.419,0.458
		c0.059,0.059,0.113,0.123,0.174,0.18c0.212,0.198,0.436,0.386,0.678,0.558c0.243,0.172,0.497,0.324,0.76,0.46
		c0.04,0.021,0.083,0.037,0.124,0.057c0.234,0.115,0.472,0.22,0.717,0.306c0.023,0.008,0.047,0.015,0.07,0.023
		c0.124,0.042,0.253,0.069,0.379,0.104v0.018c1.343,0.378,2.801,0.349,4.152-0.142c0.112-0.041,0.227-0.061,0.341-0.061
		c0.322,0,0.632,0.156,0.823,0.433c1.246,1.807,3.306,2.886,5.509,2.886c2.203,0,4.263-1.079,5.509-2.886
		c0.259-0.375,0.739-0.525,1.165-0.372c1.469,0.534,3.063,0.52,4.5,0.029v-0.002c0.01-0.003,0.021-0.005,0.031-0.008
		c0.023-0.008,0.047-0.014,0.07-0.022c0.244-0.086,0.482-0.191,0.715-0.306c0.042-0.021,0.085-0.037,0.127-0.059
		c0.262-0.136,0.517-0.288,0.759-0.459c0.241-0.171,0.465-0.359,0.677-0.556c0.063-0.059,0.118-0.124,0.179-0.185
		c0.143-0.146,0.284-0.293,0.412-0.45c0.062-0.075,0.117-0.154,0.175-0.232c0.114-0.153,0.224-0.309,0.323-0.471
		c0.052-0.083,0.1-0.17,0.148-0.256c0.091-0.164,0.175-0.331,0.251-0.5c0.041-0.091,0.081-0.183,0.117-0.276
		c0.067-0.169,0.123-0.342,0.176-0.517c0.03-0.101,0.062-0.201,0.087-0.303c0.041-0.167,0.07-0.337,0.098-0.508
		c0.018-0.114,0.042-0.226,0.054-0.341c0.018-0.162,0.02-0.326,0.026-0.489c0.004-0.122,0.015-0.244,0.012-0.367
		c-0.007-0.282-0.03-0.565-0.075-0.847c0.292-0.043,0.578-0.108,0.858-0.187c0.092-0.026,0.178-0.062,0.268-0.092
		c0.187-0.062,0.373-0.125,0.553-0.203c0.097-0.041,0.19-0.092,0.284-0.138c0.164-0.08,0.328-0.163,0.484-0.256
		c0.094-0.056,0.184-0.118,0.275-0.178c0.147-0.098,0.291-0.199,0.429-0.308c0.089-0.07,0.175-0.142,0.26-0.217
		c0.13-0.113,0.254-0.232,0.375-0.355c0.08-0.083,0.16-0.165,0.236-0.251c0.114-0.13,0.221-0.267,0.325-0.407
		c0.067-0.09,0.137-0.179,0.2-0.272c0.104-0.156,0.197-0.321,0.288-0.487c0.048-0.086,0.1-0.169,0.144-0.257
		c0.125-0.255,0.237-0.52,0.329-0.795c0.001-0.003,0.003-0.006,0.004-0.01c0.001-0.002,0.001-0.004,0.002-0.006
		c0.091-0.275,0.16-0.555,0.212-0.834c0.015-0.083,0.021-0.167,0.033-0.25c0.029-0.203,0.054-0.406,0.064-0.61
		c0.004-0.09,0.002-0.18,0.002-0.27C50.32,25.878,50.315,25.68,50.297,25.483z M40.687,17.354l-5.781,5.781l2.902,8.707
		c0.067,0.2,0.001,0.421-0.165,0.551c-0.09,0.071-0.199,0.107-0.309,0.107c-0.092,0-0.184-0.025-0.265-0.076l-7.735-4.834
		l-7.735,4.834c-0.179,0.112-0.409,0.099-0.574-0.031c-0.166-0.13-0.232-0.351-0.165-0.551l2.902-8.707l-5.781-5.781
		c-0.143-0.143-0.186-0.358-0.108-0.545c0.077-0.187,0.26-0.309,0.462-0.309h6.71l3.856-6.748c0.178-0.312,0.69-0.312,0.868,0
		l3.856,6.748h6.71c0.202,0,0.385,0.122,0.462,0.309C40.873,16.996,40.83,17.21,40.687,17.354z"/>
</g>
</svg>
