<?xml version="1.0" encoding="utf-8"?>
<!-- Generator: Adobe Illustrator 17.0.0, SVG Export Plug-In . SVG Version: 6.00 Build 0)  -->
<!DOCTYPE svg PUBLIC "-//W3C//DTD SVG 1.1//EN" "http://www.w3.org/Graphics/SVG/1.1/DTD/svg11.dtd">
<svg version="1.1" id="Layer_2" xmlns="http://www.w3.org/2000/svg" xmlns:xlink="http://www.w3.org/1999/xlink" x="0px" y="0px"
	 width="60px" height="60px" viewBox="0 0 60 60" enable-background="new 0 0 60 60" xml:space="preserve">
<g>
	<path fill="#010101" d="M22.905,34l2.351-11.035c0.309-1.428,1.539-2.459,2.993-2.508h0.001c1.511,0,2.764,0.924,3.156,2.3L34.6,34
		h2.928l6.049-32.819c0.054-0.292-0.025-0.593-0.215-0.821C43.173,0.132,42.891,0,42.594,0h-9.087v17.391c0,0.552-0.448,1-1,1
		c-0.552,0-1-0.448-1-1V0h-6.174v17.391c0,0.552-0.448,1-1,1c-0.552,0-1-0.448-1-1V0h-8.478c-0.298,0-0.58,0.133-0.77,0.362
		c-0.19,0.229-0.268,0.531-0.212,0.824L20.097,34H22.905z"/>
	<path fill="#010101" d="M37.119,44.831l8.63-7.057c0.327-0.268,0.45-0.712,0.308-1.11C45.915,36.266,45.538,36,45.115,36H33.844
		c-0.447,0-0.84-0.297-0.962-0.727l-3.4-11.969c-0.145-0.507-0.625-0.848-1.197-0.848c-0.506,0.017-0.96,0.399-1.075,0.928
		l-2.518,11.824C24.594,35.67,24.187,36,23.715,36H12.333c-0.425,0-0.803,0.269-0.944,0.669c-0.14,0.401-0.013,0.847,0.319,1.112
		l4.93,3.944l3.894,3.115l0.001,0l0.587,0.47l-4.447,10.674c-0.052,0.124-0.081,0.253-0.089,0.381
		c-0.023,0.386,0.146,0.768,0.47,1.008c0.417,0.311,1.037,0.297,1.442-0.034l5.061-4.141l4.802-3.929l0.627,0.47l2.537,1.903
		l8.209,6.157c0.178,0.134,0.389,0.2,0.6,0.2c0.217,0,0.434-0.07,0.614-0.211c0.356-0.276,0.483-0.757,0.309-1.174l-4.713-11.312
		L37.119,44.831L37.119,44.831z"/>
</g>
</svg>
