<?xml version="1.0" encoding="utf-8"?>
<!-- Generator: Adobe Illustrator 17.0.0, SVG Export Plug-In . SVG Version: 6.00 Build 0)  -->
<!DOCTYPE svg PUBLIC "-//W3C//DTD SVG 1.1//EN" "http://www.w3.org/Graphics/SVG/1.1/DTD/svg11.dtd">
<svg version="1.1" id="Layer_2" xmlns="http://www.w3.org/2000/svg" xmlns:xlink="http://www.w3.org/1999/xlink" x="0px" y="0px"
	 width="60px" height="60px" viewBox="0 0 60 60" enable-background="new 0 0 60 60" xml:space="preserve">
<g>
	<path fill="#010101" d="M55,11.167c-2.757,0-5,2.243-5,5c0,1.785,0.947,3.343,2.358,4.228L44,28.753L32.047,16.799
		C34.349,15.96,36,13.756,36,11.167c0-3.309-2.691-6-6-6c-3.309,0-6,2.691-6,6c0,2.589,1.651,4.793,3.953,5.633L16,28.753
		l-8.358-8.358C9.052,19.509,10,17.951,10,16.167c0-2.757-2.243-5-5-5c-2.757,0-5,2.243-5,5s2.243,5,5,5
		c0.07,0,0.136-0.018,0.205-0.021l4.822,20.252c0.107,0.451,0.51,0.769,0.973,0.769h38c0.463,0,0.866-0.318,0.973-0.769
		l4.822-20.252c0.07,0.002,0.135,0.021,0.205,0.021c2.757,0,5-2.243,5-5S57.757,11.167,55,11.167z"/>
	<path fill="#010101" d="M50,44.167H10c-3.14,0-4.783,2.516-4.783,5c0,2.484,1.643,5,4.783,5h40c3.121,0,4.754-2.515,4.754-4.999
		C54.754,46.682,53.121,44.167,50,44.167z"/>
</g>
</svg>
