<?xml version="1.0" encoding="utf-8"?>
<!-- Generator: Adobe Illustrator 17.0.0, SVG Export Plug-In . SVG Version: 6.00 Build 0)  -->
<!DOCTYPE svg PUBLIC "-//W3C//DTD SVG 1.1//EN" "http://www.w3.org/Graphics/SVG/1.1/DTD/svg11.dtd">
<svg version="1.1" id="Layer_2" xmlns="http://www.w3.org/2000/svg" xmlns:xlink="http://www.w3.org/1999/xlink" x="0px" y="0px"
	 width="60px" height="60px" viewBox="0 0 60 60" enable-background="new 0 0 60 60" xml:space="preserve">
<path fill="#010101" d="M22.429,0.069c-0.417-0.164-0.893-0.031-1.163,0.327c-0.27,0.357-0.27,0.851,0.001,1.208
	c6.37,8.399,6.66,22.198,0.849,29.771c-1.102-1.778-1.539-3.938-1.997-6.204l-0.075-0.371c-0.067-0.332-0.299-0.607-0.614-0.732
	c-0.315-0.125-0.673-0.08-0.948,0.118c-7.132,5.111-10.016,13.784-7.345,22.096C13.812,54.616,21.242,60,30.063,60
	c9.84,0,16.559-5.671,18.433-15.558C51.402,29.106,41.621,7.615,22.429,0.069z M29.836,52.436c-3.535,0-6.552-2.528-7.175-6.012
	c-0.059-0.332,0.052-0.671,0.296-0.902c0.245-0.232,0.589-0.324,0.917-0.247c0.158,0.037,0.33,0.056,0.511,0.056
	c1.796,0,4.221-1.741,5.522-3.963c0.572-0.977,1.388-2.869,0.431-4.573c-0.174-0.31-0.17-0.688,0.009-0.995
	c0.18-0.307,0.508-0.495,0.863-0.495c1.322,0,2.52,0.514,3.463,1.486c1.943,2.003,2.548,5.637,2.466,8.369
	C37.016,49.24,33.807,52.436,29.836,52.436z"/>
</svg>
