<?xml version="1.0" encoding="utf-8"?>
<!-- Generator: Adobe Illustrator 17.0.0, SVG Export Plug-In . SVG Version: 6.00 Build 0)  -->
<!DOCTYPE svg PUBLIC "-//W3C//DTD SVG 1.1//EN" "http://www.w3.org/Graphics/SVG/1.1/DTD/svg11.dtd">
<svg version="1.1" id="Layer_2" xmlns="http://www.w3.org/2000/svg" xmlns:xlink="http://www.w3.org/1999/xlink" x="0px" y="0px"
	 width="60px" height="60px" viewBox="0 0 60 60" enable-background="new 0 0 60 60" xml:space="preserve">
<g>
	<path fill="#010101" d="M54.706,10.292c-0.188-0.187-0.441-0.288-0.709-0.292L31,10.083V3c0-0.552-0.448-1-1-1H12
		c-0.552,0-1,0.448-1,1v32c0,0.552,0.448,1,1,1h9v5c0,0.552,0.448,1,1,1h32c0.552,0,1-0.448,1-1V11
		C55,10.734,54.894,10.48,54.706,10.292z M23,38.531V36h5.159C26.264,36.732,24.367,37.61,23,38.531z"/>
	<path fill="#010101" d="M7,0C5.895,0,5,0.896,5,2v56c0,1.105,0.895,2,2,2c1.104,0,2-0.895,2-2V2C9,0.896,8.104,0,7,0z"/>
</g>
</svg>
