<?xml version="1.0" encoding="utf-8"?>
<!-- Generator: Adobe Illustrator 17.0.0, SVG Export Plug-In . SVG Version: 6.00 Build 0)  -->
<!DOCTYPE svg PUBLIC "-//W3C//DTD SVG 1.1//EN" "http://www.w3.org/Graphics/SVG/1.1/DTD/svg11.dtd">
<svg version="1.1" id="Layer_2" xmlns="http://www.w3.org/2000/svg" xmlns:xlink="http://www.w3.org/1999/xlink" x="0px" y="0px"
	 width="60px" height="60px" viewBox="0 0 60 60" enable-background="new 0 0 60 60" xml:space="preserve">
<g>
	<path fill="#010101" d="M59.707,21.293l-21-21c-0.391-0.391-1.023-0.391-1.414,0L22,15.586l-4.293-4.293
		c-0.391-0.391-1.023-0.391-1.414,0l-13,13c-0.391,0.391-0.391,1.023,0,1.414l21,21C24.488,46.902,24.744,47,25,47
		c0.256,0,0.512-0.098,0.707-0.293L32,40.414l4.293,4.293c0.391,0.391,1.023,0.391,1.414,0l22-22
		C60.098,22.316,60.098,21.684,59.707,21.293z M35.622,41.208L33.414,39l3.771-3.77C36.459,37.233,35.82,39.399,35.622,41.208z"/>
	<path fill="#010101" d="M3.414,29.586c-0.78-0.781-2.048-0.781-2.828,0c-0.781,0.781-0.781,2.047,0,2.828l27,27
		C27.976,59.805,28.488,60,29,60c0.512,0,1.024-0.195,1.414-0.586c0.781-0.781,0.781-2.047,0-2.828L3.414,29.586z"/>
</g>
</svg>
