<?xml version="1.0" encoding="utf-8"?>
<!-- Generator: Adobe Illustrator 17.0.0, SVG Export Plug-In . SVG Version: 6.00 Build 0)  -->
<!DOCTYPE svg PUBLIC "-//W3C//DTD SVG 1.1//EN" "http://www.w3.org/Graphics/SVG/1.1/DTD/svg11.dtd">
<svg version="1.1" id="Layer_2" xmlns="http://www.w3.org/2000/svg" xmlns:xlink="http://www.w3.org/1999/xlink" x="0px" y="0px"
	 width="60px" height="60px" viewBox="0 0 60 60" enable-background="new 0 0 60 60" xml:space="preserve">
<g>
	<path fill="#010101" d="M56.624,40.219L39.108,26.207l17.527-14.435c0.326-0.268,0.448-0.712,0.306-1.11
		C56.799,10.265,56.422,10,56,10H29V3c0-0.552-0.448-1-1-1H10C9.448,2,9,2.448,9,3v32c0,0.552,0.448,1,1,1h8.87v5
		c0,0.552,0.448,1,1,1H56c0.425,0,0.803-0.269,0.944-0.669C57.084,40.93,56.956,40.484,56.624,40.219z M25.411,36.708
		c-2.141,0.933-3.572,1.653-4.541,2.225V36h6.232C26.38,36.291,25.783,36.546,25.411,36.708z"/>
	<path fill="#010101" d="M5,0C3.895,0,3,0.896,3,2v56c0,1.105,0.895,2,2,2s2-0.895,2-2V2C7,0.896,6.104,0,5,0z"/>
</g>
</svg>
