<?xml version="1.0" encoding="utf-8"?>
<!-- Generator: Adobe Illustrator 17.0.0, SVG Export Plug-In . SVG Version: 6.00 Build 0)  -->
<!DOCTYPE svg PUBLIC "-//W3C//DTD SVG 1.1//EN" "http://www.w3.org/Graphics/SVG/1.1/DTD/svg11.dtd">
<svg version="1.1" id="Layer_2" xmlns="http://www.w3.org/2000/svg" xmlns:xlink="http://www.w3.org/1999/xlink" x="0px" y="0px"
	 width="60px" height="60px" viewBox="0 0 60 60" enable-background="new 0 0 60 60" xml:space="preserve">
<g>
	<path fill="#010101" d="M56.111,2h-43.87c-0.552,0-1,0.448-1,1v30c0,0.552,0.448,1,1,1h43.87c0.552,0,1-0.448,1-1V3
		C57.111,2.448,56.663,2,56.111,2z"/>
	<path fill="#010101" d="M7.111,0c-1.104,0-2,0.896-2,2v56c0,1.105,0.896,2,2,2s2-0.895,2-2V2C9.111,0.896,8.216,0,7.111,0z"/>
</g>
</svg>
