<?xml version="1.0" encoding="utf-8"?>
<!-- Generator: Adobe Illustrator 17.0.0, SVG Export Plug-In . SVG Version: 6.00 Build 0)  -->
<!DOCTYPE svg PUBLIC "-//W3C//DTD SVG 1.1//EN" "http://www.w3.org/Graphics/SVG/1.1/DTD/svg11.dtd">
<svg version="1.1" id="Layer_2" xmlns="http://www.w3.org/2000/svg" xmlns:xlink="http://www.w3.org/1999/xlink" x="0px" y="0px"
	 width="60px" height="60px" viewBox="0 0 60 60" enable-background="new 0 0 60 60" xml:space="preserve">
<g>
	<path fill="#010101" d="M57.488,32.127L39.594,18L57.6,3.785c0.334-0.264,0.465-0.711,0.325-1.113C57.785,2.27,57.406,2,56.98,2
		h-46c-0.552,0-1,0.448-1,1v30c0,0.552,0.448,1,1,1h46c0.006,0,0.013,0,0.02,0c0.552,0,1-0.448,1-1
		C58,32.625,57.793,32.298,57.488,32.127z"/>
	<path fill="#010101" d="M5.98,0c-1.105,0-2,0.896-2,2v56c0,1.105,0.895,2,2,2c1.104,0,2-0.895,2-2V2C7.98,0.896,7.084,0,5.98,0z"/>
</g>
</svg>
