<?xml version="1.0" encoding="utf-8"?>
<!-- Generator: Adobe Illustrator 17.0.0, SVG Export Plug-In . SVG Version: 6.00 Build 0)  -->
<!DOCTYPE svg PUBLIC "-//W3C//DTD SVG 1.1//EN" "http://www.w3.org/Graphics/SVG/1.1/DTD/svg11.dtd">
<svg version="1.1" id="Layer_2" xmlns="http://www.w3.org/2000/svg" xmlns:xlink="http://www.w3.org/1999/xlink" x="0px" y="0px"
	 width="60px" height="60px" viewBox="0 0 60 60" enable-background="new 0 0 60 60" xml:space="preserve">
<g>
	<path fill="#010101" d="M0,58h60V18H0V58z M33.227,29.69l7.566-5.043c0.324-0.216,0.742-0.225,1.075-0.023
		c0.332,0.202,0.517,0.579,0.474,0.965L39.82,48.285c-0.057,0.511-0.49,0.89-0.992,0.89c-0.037,0-0.074-0.002-0.112-0.006
		c-0.549-0.061-0.944-0.555-0.883-1.104l2.284-20.563l-5.78,3.853c-0.459,0.307-1.08,0.182-1.387-0.277
		C32.644,30.617,32.768,29.996,33.227,29.69z M13.608,36H20v-7c0-0.552,0.448-1,1-1c0.552,0,1,0.448,1,1v7h6.739
		c0.552,0,1,0.448,1,1c0,0.552-0.448,1-1,1H22v6c0,0.552-0.448,1-1,1c-0.552,0-1-0.448-1-1v-6h-6.392c-0.552,0-1-0.448-1-1
		C12.608,36.448,13.056,36,13.608,36z"/>
	<rect x="20" y="2" fill="#010101" width="20" height="14"/>
	<path fill="#010101" d="M18,2H6.059C4.472,1.968,2.938,2.582,1.793,3.71C0.637,4.848,0,6.372,0,8v8h18V2z"/>
	<path fill="#010101" d="M58.207,3.71C57.061,2.582,55.531,1.969,53.956,2H42v14h18V8C60,6.372,59.363,4.848,58.207,3.71z"/>
</g>
</svg>
