<?xml version="1.0" encoding="utf-8"?>
<!-- Generator: Adobe Illustrator 17.0.0, SVG Export Plug-In . SVG Version: 6.00 Build 0)  -->
<!DOCTYPE svg PUBLIC "-//W3C//DTD SVG 1.1//EN" "http://www.w3.org/Graphics/SVG/1.1/DTD/svg11.dtd">
<svg version="1.1" id="Layer_2" xmlns="http://www.w3.org/2000/svg" xmlns:xlink="http://www.w3.org/1999/xlink" x="0px" y="0px"
	 width="60px" height="60px" viewBox="0 0 60 60" enable-background="new 0 0 60 60" xml:space="preserve">
<g>
	<path fill="#010101" d="M1,14H0v45c0,0.552,0.448,1,1,1h58c0.552,0,1-0.448,1-1V14h-1H1z M44,41h-9v10H25V41h-9v-9h9v-9h10v9h9V41z
		"/>
	<path fill="#010101" d="M53.956,0H42v12h16h2V6.044C60,2.711,57.289,0,53.956,0z"/>
	<rect x="20" fill="#010101" width="20" height="12"/>
	<path fill="#010101" d="M18,12V0H6.043C2.711,0,0,2.711,0,6.044V12h2H18z"/>
</g>
</svg>
