<?xml version="1.0" encoding="utf-8"?>
<!-- Generator: Adobe Illustrator 17.0.0, SVG Export Plug-In . SVG Version: 6.00 Build 0)  -->
<!DOCTYPE svg PUBLIC "-//W3C//DTD SVG 1.1//EN" "http://www.w3.org/Graphics/SVG/1.1/DTD/svg11.dtd">
<svg version="1.1" id="Layer_2" xmlns="http://www.w3.org/2000/svg" xmlns:xlink="http://www.w3.org/1999/xlink" x="0px" y="0px"
	 width="60px" height="60px" viewBox="0 0 60 60" enable-background="new 0 0 60 60" xml:space="preserve">
<path fill="#010101" d="M59,8.119c-11.663,0-15.969-1.365-19.429-2.463c-2.601-0.825-4.847-1.537-9.18-1.537H14
	c-1.436,0-4,1.337-4,4c0,1.242,0.294,2.286,0.845,3.093C8.415,11.626,7,13.395,7,16.119c0,0.829,0.255,1.57,0.714,2.183
	C5.627,18.901,4,20.896,4,23.119c0,1.187,0.675,2.315,1.659,3.199C3.599,26.937,2,28.916,2,31.119c0,2.664,2.336,5,5,5h18.764
	c-0.548,2.646-1.764,8.969-1.764,13c0,2.138,0.532,3.917,1.539,5.145C26.442,55.367,27.726,56,29.06,56
	c2.246,0,3.94-1.669,3.94-3.881c0-9.059,8.475-20,19-20h7c0.552,0,1-0.448,1-1v-22C60,8.567,59.552,8.119,59,8.119z"/>
</svg>
