<?xml version="1.0" encoding="utf-8"?>
<!-- Generator: Adobe Illustrator 17.0.0, SVG Export Plug-In . SVG Version: 6.00 Build 0)  -->
<!DOCTYPE svg PUBLIC "-//W3C//DTD SVG 1.1//EN" "http://www.w3.org/Graphics/SVG/1.1/DTD/svg11.dtd">
<svg version="1.1" id="Layer_2" xmlns="http://www.w3.org/2000/svg" xmlns:xlink="http://www.w3.org/1999/xlink" x="0px" y="0px"
	 width="60px" height="60px" viewBox="0 0 60 60" enable-background="new 0 0 60 60" xml:space="preserve">
<g>
	<path fill="#010101" d="M60,27c0-2.664-2.336-5-5-5H36.45c1.033-2.851,3.126-9.401,2.078-13.137C37,3.423,33.868,3,32.944,3
		C30.732,3,29,4.898,29,7.321c0,8.16-7.349,17.183-13,19.876v24.311c2.017,0.377,3.632,0.769,5.103,1.128
		C24.223,53.398,26.686,54,31,54h17c2.654,0,4-1.346,4-4c0-0.806-0.228-1.523-0.645-2.12C53.581,47.466,55,46.01,55,44
		c0-1.266-0.306-2.326-0.877-3.139C56.288,40.321,58,38.28,58,36c0-1.207-0.59-2.348-1.541-3.233C58.89,31.943,60,29.107,60,27z"/>
	<path fill="#010101" d="M13.002,24l-12-0.026c-0.246-0.009-0.521,0.104-0.709,0.292C0.105,24.453,0,24.708,0,24.974V55
		c0,0.552,0.448,1,1,1h12c0.552,0,1-0.448,1-1v-5.863V29.92V25C14,24.448,13.554,24.001,13.002,24z M8.565,51.452
		c-0.696,0-1.261-0.564-1.261-1.261s0.565-1.26,1.261-1.26s1.261,0.563,1.261,1.26S9.262,51.452,8.565,51.452z"/>
</g>
</svg>
