<?xml version="1.0" encoding="utf-8"?>
<!-- Generator: Adobe Illustrator 17.0.0, SVG Export Plug-In . SVG Version: 6.00 Build 0)  -->
<!DOCTYPE svg PUBLIC "-//W3C//DTD SVG 1.1//EN" "http://www.w3.org/Graphics/SVG/1.1/DTD/svg11.dtd">
<svg version="1.1" id="Layer_2" xmlns="http://www.w3.org/2000/svg" xmlns:xlink="http://www.w3.org/1999/xlink" x="0px" y="0px"
	 width="60px" height="60px" viewBox="0 0 60 60" enable-background="new 0 0 60 60" xml:space="preserve">
<path fill="#010101" d="M58,29c0-2.664-2.336-5-5-5H34.236C34.785,21.354,36,15.032,36,11c0-4.753-2.542-6.88-5.061-6.88
	C28.693,4.12,27,5.788,27,8c0,9.059-8.475,20-19,20H1c-0.552,0-1,0.448-1,1v22c0,0.552,0.448,1,1,1
	c11.663,0,15.969,1.365,19.429,2.463C23.029,55.288,25.276,56,29.609,56H46c1.435,0,4-1.337,4-4c0-1.242-0.294-2.286-0.845-3.093
	C51.585,48.493,53,46.724,53,44c0-0.829-0.255-1.57-0.714-2.183C54.373,41.218,56,39.223,56,37c0-1.187-0.675-2.315-1.659-3.199
	C56.401,33.183,58,31.203,58,29z"/>
</svg>
