<?xml version="1.0" encoding="utf-8"?>
<!-- Generator: Adobe Illustrator 17.0.0, SVG Export Plug-In . SVG Version: 6.00 Build 0)  -->
<!DOCTYPE svg PUBLIC "-//W3C//DTD SVG 1.1//EN" "http://www.w3.org/Graphics/SVG/1.1/DTD/svg11.dtd">
<svg version="1.1" id="Layer_2" xmlns="http://www.w3.org/2000/svg" xmlns:xlink="http://www.w3.org/1999/xlink" x="0px" y="0px"
	 width="60px" height="60px" viewBox="0 0 60 60" enable-background="new 0 0 60 60" xml:space="preserve">
<path fill="#010101" d="M30,0C13.458,0,0,13.458,0,30s13.458,30,30,30s30-13.458,30-30S46.542,0,30,0z M30.294,45.535
	C30.206,45.599,30.103,45.63,30,45.63s-0.207-0.032-0.294-0.096C29.131,45.117,15.63,35.211,15.63,27.571
	c0-5.106,3.746-8.158,7.368-8.158c2.484,0,5.479,1.5,7.002,5.578c1.522-4.078,4.518-5.578,7.002-5.578
	c3.621,0,7.368,3.052,7.368,8.158C44.37,35.211,30.869,45.117,30.294,45.535z"/>
</svg>
