<?xml version="1.0" encoding="utf-8"?>
<!-- Generator: Adobe Illustrator 17.0.0, SVG Export Plug-In . SVG Version: 6.00 Build 0)  -->
<!DOCTYPE svg PUBLIC "-//W3C//DTD SVG 1.1//EN" "http://www.w3.org/Graphics/SVG/1.1/DTD/svg11.dtd">
<svg version="1.1" id="Layer_2" xmlns="http://www.w3.org/2000/svg" xmlns:xlink="http://www.w3.org/1999/xlink" x="0px" y="0px"
	 width="60px" height="60px" viewBox="0 0 60 60" enable-background="new 0 0 60 60" xml:space="preserve">
<g>
	<path fill="#010101" d="M22.174,39.819c0-0.351,0.184-0.677,0.485-0.857l10.851-6.511l-14.478-5.568
		c-0.354-0.136-0.6-0.461-0.637-0.838c-0.036-0.377,0.144-0.743,0.466-0.943l9.617-6.011V9.553c-2.822-5.567-7.779-8.13-12.316-8.13
		C6.865,1.423,2,10.3,2,19.07c0,8.802,4.673,18.388,13.513,27.722C21.239,52.837,26.877,56.893,28.478,58V44.167l-5.819-3.491
		C22.358,40.496,22.174,40.17,22.174,39.819z"/>
	<path fill="#010101" d="M43.116,1.261c-4.667,0-9.763,2.615-12.637,8.293v10.091c0,0.345-0.178,0.666-0.47,0.848l-8.388,5.242
		l14.521,5.585c0.357,0.137,0.604,0.466,0.637,0.847c0.033,0.381-0.154,0.747-0.481,0.944l-11.18,6.708l4.875,2.925
		c0.301,0.181,0.485,0.506,0.485,0.858v14.352c1.509-1.212,7.282-5.986,12.991-12.496c8.949-10.205,13.487-19.586,13.487-27.88
		C56.956,9.469,52.202,1.261,43.116,1.261z"/>
</g>
</svg>
