<?xml version="1.0" encoding="utf-8"?>
<!-- Generator: Adobe Illustrator 17.0.0, SVG Export Plug-In . SVG Version: 6.00 Build 0)  -->
<!DOCTYPE svg PUBLIC "-//W3C//DTD SVG 1.1//EN" "http://www.w3.org/Graphics/SVG/1.1/DTD/svg11.dtd">
<svg version="1.1" id="Layer_2" xmlns="http://www.w3.org/2000/svg" xmlns:xlink="http://www.w3.org/1999/xlink" x="0px" y="0px"
	 width="60px" height="60px" viewBox="0 0 60 60" enable-background="new 0 0 60 60" xml:space="preserve">
<g>
	<path fill="#010101" d="M45.956,28.79c2.372,0,4.609,0.568,6.605,1.553c2.258-4.663,3.395-9.086,3.395-13.237
		c0-8.108-4.754-16.316-13.841-16.316c-5.269,0-11.091,3.324-13.637,10.638C25.971,4.226,20.295,0.951,15.162,0.951
		C5.865,0.951,1,9.829,1,18.599c0,8.802,4.673,18.389,13.513,27.722c6.623,6.992,13.14,11.332,13.414,11.513
		C28.095,57.945,28.287,58,28.479,58c0.216,0,0.433-0.07,0.612-0.209c0.038-0.029,2.194-1.708,5.253-4.52
		c-2.115-2.586-3.388-5.887-3.388-9.481C30.956,35.519,37.685,28.79,45.956,28.79z"/>
	<path fill="#010101" d="M45.956,30.79c-7.168,0-13,5.832-13,13s5.831,13,13,13s13-5.832,13-13S53.125,30.79,45.956,30.79z
		 M52.833,44.79h-5.877v5.878c0,0.552-0.448,1-1,1c-0.552,0-1-0.448-1-1V44.79h-5.877c-0.552,0-1-0.448-1-1c0-0.552,0.448-1,1-1
		h5.877v-5.877c0-0.552,0.448-1,1-1c0.552,0,1,0.448,1,1v5.877h5.877c0.552,0,1,0.448,1,1C53.833,44.342,53.386,44.79,52.833,44.79z
		"/>
</g>
</svg>
