<?xml version="1.0" encoding="utf-8"?>
<!-- Generator: Adobe Illustrator 17.0.0, SVG Export Plug-In . SVG Version: 6.00 Build 0)  -->
<!DOCTYPE svg PUBLIC "-//W3C//DTD SVG 1.1//EN" "http://www.w3.org/Graphics/SVG/1.1/DTD/svg11.dtd">
<svg version="1.1" id="Layer_2" xmlns="http://www.w3.org/2000/svg" xmlns:xlink="http://www.w3.org/1999/xlink" x="0px" y="0px"
	 width="60px" height="60px" viewBox="0 0 60 60" enable-background="new 0 0 60 60" xml:space="preserve">
<g>
	<path fill="#010101" d="M50.151,25.012C50.102,25.004,50.051,25,50,25h-1.394c0.046,0.473,0.073,0.959,0.073,1.462
		c0,6.902-5.134,13.311-9.679,17.634V46c0,3.131,1.869,5,5,5c0.704,0,1.379-0.176,2-0.463V40.375c0-0.552,0.448-1,1-1
		c0.552,0,1,0.448,1,1V41v5.044V52v3.872C48.859,57.22,50.227,58,52,58c3.084,0,5-2.299,5-6V34
		C57,28.881,54.568,25.689,50.151,25.012z"/>
	<path fill="#010101" d="M12.427,25H11c-0.051,0-0.102,0.004-0.151,0.012c-4.596,0.704-7.805,4.615-7.805,9.507L3,52
		c0,3.701,1.916,6,5,6c1.945,0,3.422-0.917,4.25-2.521V40.375c0-0.552,0.448-1,1-1c0.552,0,1,0.448,1,1V50.65
		C14.801,50.869,15.39,51,16,51c2.664,0,5-2.336,5-5v-2.612c-4.262-4.169-8.637-10.106-8.637-16.926
		C12.363,25.959,12.386,25.472,12.427,25z"/>
	<path fill="#010101" d="M30.521,11.566C32.939,11.566,45,11.346,45,7c0-3.282-7.284-5-14.479-5C23.305,2,16,3.718,16,7
		C16,11.346,28.097,11.566,30.521,11.566z M30.521,4C38.754,4,43,6.103,43,7c0,0.731-3.712,2.566-12.479,2.566
		C21.725,9.566,18,7.731,18,7C18,6.129,22.388,4,30.521,4z"/>
	<path fill="#010101" d="M38.048,16.75c-0.321,0-0.65,0.021-0.984,0.063c-0.195,0.025-0.386,0.069-0.578,0.108
		c-0.126,0.025-0.251,0.042-0.378,0.073c-0.305,0.078-0.606,0.172-0.901,0.285c-0.002,0.001-0.003,0.002-0.005,0.002
		c-1.507,0.578-2.852,1.604-3.838,2.977c-0.022,0.031-0.052,0.054-0.078,0.082c-0.277,0.4-0.536,0.831-0.764,1.308
		c-0.611-1.298-1.425-2.333-2.349-3.133c-0.081-0.07-0.166-0.133-0.249-0.2c-0.217-0.174-0.438-0.336-0.665-0.484
		c-0.107-0.07-0.215-0.138-0.324-0.203c-0.22-0.13-0.444-0.247-0.671-0.355c-0.11-0.052-0.218-0.107-0.33-0.155
		c-0.245-0.103-0.493-0.189-0.743-0.268c-0.097-0.03-0.192-0.067-0.29-0.095c-0.279-0.077-0.56-0.132-0.841-0.178
		c-0.074-0.012-0.146-0.033-0.221-0.043c-0.358-0.049-0.715-0.075-1.068-0.075c-4.179,0-8.409,3.436-8.409,10.001
		c0,6.794,4.891,12.717,9.206,16.623h0c1.352,1.224,2.649,2.254,3.72,3.046c0.187,0.139,0.367,0.27,0.539,0.394
		c1.207,0.867,2.034,1.375,2.173,1.46l0.002,0c0.159,0.096,0.338,0.145,0.518,0.145c0.192,0,0.384-0.055,0.551-0.166
		c0.082-0.055,0.406-0.271,0.901-0.625c3.348-2.399,14.706-11.247,14.706-20.878C46.679,20.153,42.232,16.75,38.048,16.75z"/>
</g>
</svg>
