<?xml version="1.0" encoding="utf-8"?>
<!-- Generator: Adobe Illustrator 17.0.0, SVG Export Plug-In . SVG Version: 6.00 Build 0)  -->
<!DOCTYPE svg PUBLIC "-//W3C//DTD SVG 1.1//EN" "http://www.w3.org/Graphics/SVG/1.1/DTD/svg11.dtd">
<svg version="1.1" id="Layer_2" xmlns="http://www.w3.org/2000/svg" xmlns:xlink="http://www.w3.org/1999/xlink" x="0px" y="0px"
	 width="60px" height="60px" viewBox="0 0 60 60" enable-background="new 0 0 60 60" xml:space="preserve">
<g>
	<rect x="40" y="18" fill="#010101" width="20" height="12"/>
	<rect y="18" fill="#010101" width="20" height="12"/>
	<path fill="#010101" d="M44.862,14.357c2.846-2.848,2.846-7.481,0-10.329c-1.38-1.38-3.214-2.14-5.166-2.14
		c-1.951,0-3.786,0.76-5.166,2.14c-1.748,1.748-3.558,7.299-4.642,11.096c-1.084-3.797-2.895-9.348-4.642-11.096
		c-1.38-1.38-3.214-2.14-5.166-2.14c-1.951,0-3.786,0.76-5.165,2.14c-2.848,2.849-2.848,7.482,0,10.329
		C16.2,15.642,19.54,16.96,22.728,18H22v12h16V18h-0.95C40.237,16.96,43.578,15.642,44.862,14.357z M16.33,12.943
		c-2.068-2.067-2.068-5.432,0-7.501c1.002-1.002,2.335-1.554,3.751-1.554c1.417,0,2.749,0.552,3.751,1.554
		c1.597,1.598,3.63,8.29,4.667,12.168C24.621,16.575,17.929,14.543,16.33,12.943z M35.944,5.442
		c1.002-1.002,2.335-1.554,3.752-1.554s2.75,0.552,3.751,1.554c2.067,2.068,2.067,5.433,0,7.501
		c-1.599,1.599-8.292,3.632-12.17,4.667C32.313,13.732,34.346,7.041,35.944,5.442z"/>
	<rect x="2" y="32" fill="#010101" width="18" height="28"/>
	<rect x="40" y="32" fill="#010101" width="18" height="28"/>
	<rect x="22" y="32" fill="#010101" width="16" height="28"/>
</g>
</svg>
