<?xml version="1.0" encoding="utf-8"?>
<!-- Generator: Adobe Illustrator 17.0.0, SVG Export Plug-In . SVG Version: 6.00 Build 0)  -->
<!DOCTYPE svg PUBLIC "-//W3C//DTD SVG 1.1//EN" "http://www.w3.org/Graphics/SVG/1.1/DTD/svg11.dtd">
<svg version="1.1" id="Layer_2" xmlns="http://www.w3.org/2000/svg" xmlns:xlink="http://www.w3.org/1999/xlink" x="0px" y="0px"
	 width="60px" height="60px" viewBox="0 0 60 60" enable-background="new 0 0 60 60" xml:space="preserve">
<g>
	<path fill="#010101" d="M52.509,46.036l-22-13c-0.313-0.186-0.704-0.186-1.018,0l-22,13C7.187,46.216,7,46.543,7,46.897
		C7,57.142,14.367,58,21.914,58c0,0,0.001,0,0.002,0c1.224,0,2.498-0.024,3.812-0.05c2.769-0.053,5.776-0.053,8.546,0
		c1.314,0.025,2.59,0.05,3.813,0.05C45.633,58,53,57.143,53,46.897C53,46.543,52.813,46.216,52.509,46.036z"/>
	<path fill="#010101" d="M52.479,15.019l-22-12c-0.299-0.163-0.659-0.163-0.958,0l-22,12C7.2,15.194,7,15.53,7,15.897v8
		c0,0.353,0.186,0.68,0.49,0.86c0.302,0.18,0.679,0.187,0.989,0.018L30,13.036l21.521,11.739c0.149,0.082,0.314,0.122,0.479,0.122
		c0.177,0,0.353-0.047,0.51-0.14c0.304-0.18,0.49-0.507,0.49-0.86v-8C53,15.53,52.8,15.194,52.479,15.019z"/>
	<path fill="#010101" d="M52.479,30.019l-22-12c-0.299-0.163-0.659-0.163-0.958,0l-22,12C7.2,30.194,7,30.53,7,30.897v8
		c0,0.353,0.186,0.68,0.49,0.86c0.302,0.18,0.679,0.187,0.989,0.018L30,28.036l21.521,11.739c0.149,0.082,0.314,0.122,0.479,0.122
		c0.177,0,0.353-0.047,0.51-0.14c0.304-0.18,0.49-0.507,0.49-0.86v-8C53,30.53,52.8,30.194,52.479,30.019z"/>
</g>
</svg>
