<?xml version="1.0" encoding="utf-8"?>
<!-- Generator: Adobe Illustrator 17.0.0, SVG Export Plug-In . SVG Version: 6.00 Build 0)  -->
<!DOCTYPE svg PUBLIC "-//W3C//DTD SVG 1.1//EN" "http://www.w3.org/Graphics/SVG/1.1/DTD/svg11.dtd">
<svg version="1.1" id="Layer_2" xmlns="http://www.w3.org/2000/svg" xmlns:xlink="http://www.w3.org/1999/xlink" x="0px" y="0px"
	 width="60px" height="60px" viewBox="0 0 60 60" enable-background="new 0 0 60 60" xml:space="preserve">
<g>
	<path fill="#010101" d="M53.479,15.122l-22-12c-0.299-0.163-0.659-0.163-0.958,0l-22,12C8.2,15.297,8,15.634,8,16v8
		c0,0.353,0.186,0.68,0.49,0.86c0.302,0.18,0.679,0.187,0.989,0.018L31,13.139l21.521,11.739C52.67,24.959,52.835,25,53,25
		c0.177,0,0.353-0.047,0.51-0.14C53.814,24.68,54,24.353,54,24v-8C54,15.634,53.8,15.297,53.479,15.122z"/>
	<path fill="#010101" d="M53.479,31.122l-22-12c-0.299-0.163-0.659-0.163-0.958,0l-22,12C8.2,31.297,8,31.634,8,32v8
		c0,0.353,0.186,0.68,0.49,0.86c0.302,0.18,0.679,0.187,0.989,0.018L31,29.139l21.521,11.739C52.67,40.959,52.835,41,53,41
		c0.177,0,0.353-0.047,0.51-0.14C53.814,40.68,54,40.353,54,40v-8C54,31.634,53.8,31.297,53.479,31.122z"/>
	<path fill="#010101" d="M53.479,48.122l-22-12c-0.299-0.163-0.659-0.163-0.958,0l-22,12C8.2,48.297,8,48.634,8,49v8
		c0,0.353,0.186,0.68,0.49,0.86c0.302,0.18,0.679,0.187,0.989,0.018L31,46.139l21.521,11.739C52.67,57.959,52.835,58,53,58
		c0.177,0,0.353-0.047,0.51-0.14C53.814,57.68,54,57.353,54,57v-8C54,48.634,53.8,48.297,53.479,48.122z"/>
</g>
</svg>
