<?xml version="1.0" encoding="utf-8"?>
<!-- Generator: Adobe Illustrator 17.0.0, SVG Export Plug-In . SVG Version: 6.00 Build 0)  -->
<!DOCTYPE svg PUBLIC "-//W3C//DTD SVG 1.1//EN" "http://www.w3.org/Graphics/SVG/1.1/DTD/svg11.dtd">
<svg version="1.1" id="Layer_2" xmlns="http://www.w3.org/2000/svg" xmlns:xlink="http://www.w3.org/1999/xlink" x="0px" y="0px"
	 width="60px" height="60px" viewBox="0 0 60 60" enable-background="new 0 0 60 60" xml:space="preserve">
<path fill="#010101" d="M30,0C13.458,0,0,13.458,0,30s13.458,30,30,30s30-13.458,30-30S46.542,0,30,0z M48.322,25.383l-10.18,8.568
	l4.336,13.9c0.065,0.207-0.012,0.432-0.189,0.557C42.202,48.47,42.101,48.5,42,48.5c-0.106,0-0.211-0.033-0.3-0.1L30,39.625
	L18.3,48.4c-0.173,0.131-0.41,0.134-0.588,0.008c-0.177-0.125-0.253-0.35-0.189-0.557l4.336-13.9l-10.18-8.568
	c-0.161-0.136-0.22-0.357-0.148-0.554S11.79,24.5,12,24.5h12.666l4.872-11.692c0.155-0.373,0.768-0.373,0.923,0L35.333,24.5H48
	c0.21,0,0.398,0.131,0.47,0.329S48.483,25.247,48.322,25.383z"/>
</svg>
