<?xml version="1.0" encoding="utf-8"?>
<!-- Generator: Adobe Illustrator 17.0.0, SVG Export Plug-In . SVG Version: 6.00 Build 0)  -->
<!DOCTYPE svg PUBLIC "-//W3C//DTD SVG 1.1//EN" "http://www.w3.org/Graphics/SVG/1.1/DTD/svg11.dtd">
<svg version="1.1" id="Layer_2" xmlns="http://www.w3.org/2000/svg" xmlns:xlink="http://www.w3.org/1999/xlink" x="0px" y="0px"
	 width="60px" height="60px" viewBox="0 0 60 60" enable-background="new 0 0 60 60" xml:space="preserve">
<path fill="#010101" d="M60,30c0-0.297-0.132-0.578-0.36-0.768l-4.967-4.14l3.004-5.725c0.138-0.263,0.152-0.573,0.039-0.848
	c-0.114-0.274-0.343-0.484-0.626-0.572l-6.173-1.923l0.586-6.439c0.027-0.295-0.079-0.587-0.289-0.797
	c-0.209-0.21-0.498-0.312-0.797-0.289l-6.44,0.585l-1.924-6.173c-0.088-0.284-0.298-0.513-0.572-0.626
	c-0.274-0.113-0.585-0.1-0.848,0.039l-5.725,3.004l-4.14-4.967c-0.38-0.456-1.156-0.456-1.536,0l-4.14,4.967l-5.725-3.004
	c-0.263-0.138-0.573-0.152-0.848-0.039c-0.274,0.114-0.484,0.343-0.572,0.626l-1.923,6.173l-6.44-0.585
	c-0.301-0.022-0.587,0.08-0.797,0.289c-0.21,0.21-0.316,0.502-0.289,0.797l0.585,6.439l-6.173,1.923
	c-0.283,0.088-0.513,0.298-0.626,0.572c-0.114,0.274-0.1,0.584,0.039,0.848l3.004,5.725l-4.967,4.14C0.132,29.422,0,29.703,0,30
	c0,0.297,0.132,0.578,0.36,0.768l4.967,4.14l-3.004,5.726c-0.138,0.263-0.152,0.573-0.039,0.848
	c0.114,0.274,0.343,0.484,0.626,0.572l6.173,1.923l-0.585,6.44c-0.027,0.295,0.079,0.587,0.289,0.797
	c0.211,0.21,0.507,0.313,0.797,0.289l6.44-0.586l1.923,6.174c0.088,0.283,0.298,0.513,0.572,0.626
	c0.275,0.113,0.586,0.1,0.848-0.039l5.725-3.005l4.14,4.967C29.422,59.868,29.703,60,30,60c0.297,0,0.578-0.132,0.768-0.36
	l4.14-4.967l5.725,3.005c0.262,0.138,0.573,0.152,0.848,0.039c0.274-0.113,0.483-0.343,0.572-0.626l1.924-6.174l6.44,0.586
	c0.297,0.024,0.587-0.079,0.797-0.289c0.21-0.21,0.316-0.502,0.289-0.797l-0.586-6.44l6.173-1.923
	c0.283-0.088,0.513-0.298,0.626-0.572c0.114-0.274,0.1-0.584-0.039-0.848l-3.004-5.726l4.967-4.14C59.868,30.578,60,30.297,60,30z
	 M43.3,27.4l-7.693,5.77l3.858,9.645c0.084,0.21,0.017,0.45-0.165,0.586c-0.089,0.066-0.194,0.1-0.299,0.1
	c-0.109,0-0.219-0.036-0.309-0.107l-8.674-6.826l-8.708,6.827c-0.179,0.14-0.428,0.143-0.608,0.006
	c-0.181-0.135-0.248-0.375-0.165-0.585l3.858-9.645L16.7,27.4c-0.172-0.129-0.243-0.354-0.174-0.558
	C16.594,26.638,16.785,26.5,17,26.5h8.667l3.889-9.295c0.078-0.186,0.26-0.307,0.461-0.307c0.204,0.034,0.384,0.122,0.462,0.309
	l3.855,9.293H43c0.215,0,0.406,0.138,0.474,0.342C43.542,27.046,43.472,27.271,43.3,27.4z"/>
</svg>
