<?xml version="1.0" encoding="utf-8"?>
<!-- Generator: Adobe Illustrator 17.0.0, SVG Export Plug-In . SVG Version: 6.00 Build 0)  -->
<!DOCTYPE svg PUBLIC "-//W3C//DTD SVG 1.1//EN" "http://www.w3.org/Graphics/SVG/1.1/DTD/svg11.dtd">
<svg version="1.1" id="Layer_2" xmlns="http://www.w3.org/2000/svg" xmlns:xlink="http://www.w3.org/1999/xlink" x="0px" y="0px"
	 width="60px" height="60px" viewBox="0 0 60 60" enable-background="new 0 0 60 60" xml:space="preserve">
<path fill="#010101" d="M59.952,22.693C59.818,22.28,59.434,22,59,22H37.731L30.953,0.697C30.821,0.282,30.436,0,30,0
	s-0.821,0.282-0.953,0.697L22.269,22H1c-0.43,0-0.812,0.275-0.948,0.683c-0.137,0.408,0.003,0.857,0.346,1.116l17.076,12.87
	l-7.422,22.012c-0.139,0.414,0.006,0.87,0.358,1.127C10.586,59.936,10.793,60,11,60c0.208,0,0.417-0.065,0.593-0.195L30,46.242
	l18.407,13.563c0.35,0.258,0.827,0.26,1.179,0.006c0.352-0.254,0.5-0.708,0.365-1.121l-7.364-22.627l16.998-12.252
	C59.937,23.558,60.085,23.105,59.952,22.693z"/>
</svg>
