<?xml version="1.0" encoding="utf-8"?>
<!-- Generator: Adobe Illustrator 17.0.0, SVG Export Plug-In . SVG Version: 6.00 Build 0)  -->
<!DOCTYPE svg PUBLIC "-//W3C//DTD SVG 1.1//EN" "http://www.w3.org/Graphics/SVG/1.1/DTD/svg11.dtd">
<svg version="1.1" id="Layer_2" xmlns="http://www.w3.org/2000/svg" xmlns:xlink="http://www.w3.org/1999/xlink" x="0px" y="0px"
	 width="60px" height="60px" viewBox="0 0 60 60" enable-background="new 0 0 60 60" xml:space="preserve">
<path fill="#010101" d="M49,0H11C4.832,0,0,4.832,0,11v38c0,6.169,4.832,11,11,11h38c6.168,0,11-4.831,11-11V11
	C60,4.832,55.168,0,49,0z M48.334,25.372l-9.768,8.792l3.915,13.7c0.059,0.206-0.021,0.427-0.197,0.549
	C42.198,48.471,42.099,48.5,42,48.5c-0.106,0-0.211-0.033-0.3-0.1L30,39.625L18.3,48.4c-0.171,0.13-0.406,0.133-0.583,0.012
	c-0.177-0.122-0.256-0.343-0.197-0.549l3.915-13.7l-9.768-8.792c-0.154-0.138-0.206-0.357-0.132-0.551
	C11.607,24.628,11.793,24.5,12,24.5h12.657l4.877-12.68c0.148-0.386,0.785-0.386,0.934,0l4.876,12.68H48
	c0.207,0,0.393,0.128,0.467,0.321C48.541,25.014,48.488,25.233,48.334,25.372z"/>
</svg>
