<?xml version="1.0" encoding="utf-8"?>
<!-- Generator: Adobe Illustrator 17.0.0, SVG Export Plug-In . SVG Version: 6.00 Build 0)  -->
<!DOCTYPE svg PUBLIC "-//W3C//DTD SVG 1.1//EN" "http://www.w3.org/Graphics/SVG/1.1/DTD/svg11.dtd">
<svg version="1.1" id="Layer_2" xmlns="http://www.w3.org/2000/svg" xmlns:xlink="http://www.w3.org/1999/xlink" x="0px" y="0px"
	 width="60px" height="60px" viewBox="0 0 60 60" enable-background="new 0 0 60 60" xml:space="preserve">
<g>
	<path fill="#010101" d="M55.476,13.12l-24.044-13c-0.298-0.161-0.656-0.16-0.953,0.001l-23.956,13C6.201,13.296,6,13.633,6,14v41
		c0,0.552,0.448,1,1,1h48c0.552,0,1-0.448,1-1V14C56,13.633,55.799,13.295,55.476,13.12z M47.373,23.333l-8.301,9.322l3.412,13.22
		c0.052,0.205-0.029,0.42-0.203,0.539c-0.174,0.119-0.405,0.115-0.575-0.009L31,38.618l-10.706,7.786
		C20.206,46.468,20.103,46.5,20,46.5c-0.098,0-0.195-0.028-0.28-0.086c-0.174-0.118-0.256-0.332-0.205-0.536l3.327-13.223
		l-8.217-9.324c-0.13-0.147-0.162-0.357-0.081-0.536C14.625,22.615,14.804,22.5,15,22.5h10.666l4.872-11.692
		c0.155-0.372,0.768-0.372,0.923,0L36.333,22.5H47c0.197,0,0.375,0.116,0.456,0.295C47.537,22.975,47.504,23.186,47.373,23.333z"/>
	<path fill="#010101" d="M54.913,58H7c-0.552,0-1,0.448-1,1c0,0.552,0.448,1,1,1h47.913c0.552,0,1-0.448,1-1
		C55.913,58.448,55.465,58,54.913,58z"/>
</g>
</svg>
