<?xml version="1.0" encoding="utf-8"?>
<!-- Generator: Adobe Illustrator 17.0.0, SVG Export Plug-In . SVG Version: 6.00 Build 0)  -->
<!DOCTYPE svg PUBLIC "-//W3C//DTD SVG 1.1//EN" "http://www.w3.org/Graphics/SVG/1.1/DTD/svg11.dtd">
<svg version="1.1" id="Layer_2" xmlns="http://www.w3.org/2000/svg" xmlns:xlink="http://www.w3.org/1999/xlink" x="0px" y="0px"
	 width="60px" height="60px" viewBox="0 0 60 60" enable-background="new 0 0 60 60" xml:space="preserve">
<path fill="#010101" d="M51,0H9C8.448,0,8,0.448,8,1v58c0,0.37,0.204,0.71,0.53,0.883C8.678,59.961,8.839,60,9,60
	c0.196,0,0.391-0.058,0.559-0.171l20.018-13.5l20.88,13.511c0.308,0.2,0.699,0.213,1.022,0.039C51.8,59.703,52,59.366,52,59V1
	C52,0.448,51.552,0,51,0z M43.353,19.354l-6.81,6.811l1.947,9.738c0.04,0.201-0.046,0.406-0.218,0.518
	C38.189,36.474,38.094,36.5,38,36.5c-0.102,0-0.203-0.031-0.29-0.093l-8.147-5.795l-8.276,5.797c-0.167,0.118-0.389,0.121-0.56,0.01
	c-0.171-0.112-0.257-0.316-0.217-0.517l1.947-9.738l-6.811-6.811c-0.143-0.143-0.186-0.358-0.108-0.545
	C15.615,18.622,15.798,18.5,16,18.5h9.677l3.433-7.618c0.081-0.18,0.259-0.295,0.456-0.295c0.001,0,0.002,0,0.003,0
	c0.198,0.002,0.377,0.119,0.455,0.301l3.304,7.612H43c0.202,0,0.385,0.122,0.462,0.309C43.54,18.996,43.497,19.21,43.353,19.354z"/>
</svg>
