<?xml version="1.0" encoding="utf-8"?>
<!-- Generator: Adobe Illustrator 17.0.0, SVG Export Plug-In . SVG Version: 6.00 Build 0)  -->
<!DOCTYPE svg PUBLIC "-//W3C//DTD SVG 1.1//EN" "http://www.w3.org/Graphics/SVG/1.1/DTD/svg11.dtd">
<svg version="1.1" id="Layer_1" xmlns="http://www.w3.org/2000/svg" xmlns:xlink="http://www.w3.org/1999/xlink" x="0px" y="0px"
	 width="60px" height="60px" viewBox="0 0 60 60" enable-background="new 0 0 60 60" xml:space="preserve">
<g>
	<path fill="#231F20" d="M10.066,36.642c-0.148,0.387-0.043,0.825,0.265,1.102l9.562,8.606l-2.868,12.426
		c-0.096,0.417,0.084,0.849,0.447,1.075c0.362,0.225,0.829,0.195,1.16-0.076l10.336-8.456l9.362,8.426
		C38.519,59.913,38.759,60,39,60c0.175,0,0.35-0.045,0.508-0.138c0.376-0.222,0.564-0.662,0.467-1.087l-2.868-12.426l9.562-8.606
		c0.308-0.277,0.413-0.715,0.265-1.102C46.785,36.255,46.414,36,46,36H34.686l-4.753-12.359c-0.145-0.375-0.499-0.627-0.901-0.641
		c-0.389-0.009-0.771,0.216-0.94,0.581L22.36,36H11C10.586,36,10.215,36.255,10.066,36.642z M23,38c0.39,0,0.744-0.227,0.908-0.581
		l5.008-10.851l4.15,10.791C33.215,37.745,33.586,38,34,38h9.394l-8.063,7.257c-0.271,0.243-0.387,0.614-0.306,0.968l2.287,9.911
		l-7.644-6.879c-0.367-0.331-0.92-0.343-1.302-0.031l-8.734,7.146l2.342-10.147c0.081-0.354-0.035-0.725-0.306-0.968L13.605,38H23z"
		/>
	<path fill="#231F20" d="M36.052,30.684c-0.175,0.524,0.108,1.09,0.632,1.265C36.789,31.984,36.896,32,37,32
		c0.419,0,0.809-0.265,0.948-0.684l8-24C45.982,7.214,46,7.107,46,7V1c0-0.552-0.447-1-1-1H29h-0.348H13c-0.553,0-1,0.448-1,1v6
		c0,0.095,0.014,0.189,0.04,0.28l7,24C19.167,31.717,19.566,32,20,32c0.092,0,0.186-0.013,0.28-0.04
		c0.53-0.155,0.834-0.71,0.68-1.24L14,6.857V2h8.053C22.029,2.085,22,2.168,22,2.261v16.392c0,0.552,0.447,1,1,1
		c0.553,0,1-0.448,1-1V2.261C24,2.168,23.971,2.085,23.947,2h4.105C28.029,2.085,28,2.168,28,2.261v16.392c0,0.552,0.447,1,1,1
		c0.553,0,1-0.448,1-1V2.261C30,2.168,29.971,2.085,29.947,2h4.105C34.029,2.085,34,2.168,34,2.261v16.392c0,0.552,0.447,1,1,1
		c0.553,0,1-0.448,1-1V2.261C36,2.168,35.971,2.085,35.947,2H44v4.838L36.052,30.684z"/>
</g>
</svg>
