<?xml version="1.0" encoding="utf-8"?>
<!-- Generator: Adobe Illustrator 17.0.0, SVG Export Plug-In . SVG Version: 6.00 Build 0)  -->
<!DOCTYPE svg PUBLIC "-//W3C//DTD SVG 1.1//EN" "http://www.w3.org/Graphics/SVG/1.1/DTD/svg11.dtd">
<svg version="1.1" id="Layer_1" xmlns="http://www.w3.org/2000/svg" xmlns:xlink="http://www.w3.org/1999/xlink" x="0px" y="0px"
	 width="60px" height="60px" viewBox="0 0 60 60" enable-background="new 0 0 60 60" xml:space="preserve">
<g>
	<path fill="#231F20" d="M10,40c0,11.028,8.972,20,20,20c11.028,0,20-8.972,20-20c0-11.028-8.972-20-20-20
		C18.972,20,10,28.972,10,40z M48,40c0,9.925-8.075,18-18,18s-18-8.075-18-18s8.075-18,18-18S48,30.075,48,40z"/>
	<path fill="#231F20" d="M29.105,28.553L25.382,36H19c-0.421,0-0.797,0.264-0.94,0.66c-0.144,0.396-0.023,0.839,0.3,1.108
		l5.477,4.563l-2.784,8.352c-0.134,0.4-0.002,0.841,0.33,1.102c0.33,0.261,0.791,0.286,1.148,0.062L30,47.179l7.47,4.669
		C37.633,51.95,37.816,52,38,52c0.22,0,0.438-0.072,0.618-0.214c0.332-0.261,0.464-0.702,0.33-1.102l-2.784-8.352l5.477-4.563
		c0.323-0.27,0.443-0.712,0.3-1.108C41.797,36.264,41.421,36,41,36h-6.382l-3.724-7.447C30.555,27.875,29.445,27.875,29.105,28.553z
		 M33.105,37.447C33.275,37.786,33.621,38,34,38h4.238l-3.879,3.232c-0.315,0.263-0.438,0.694-0.308,1.084l2.12,6.362l-5.642-3.526
		C30.368,45.051,30.184,45,30,45s-0.368,0.051-0.53,0.152l-5.642,3.526l2.12-6.362c0.131-0.391,0.008-0.821-0.308-1.084L21.762,38
		H26c0.379,0,0.725-0.214,0.894-0.553L30,31.236L33.105,37.447z"/>
	<path fill="#231F20" d="M58,0h-7h-6.025c-0.389,0-0.743,0.226-0.907,0.579l-6.975,15c-0.232,0.5-0.016,1.095,0.485,1.328
		c0.503,0.232,1.096,0.015,1.329-0.485L45.612,2h3.849l-7.375,16.594c-0.224,0.505,0.003,1.096,0.508,1.32
		c0.13,0.058,0.265,0.084,0.399,0.085c0.002,0,0.004,0.001,0.007,0.001c0.112,0,0.22-0.024,0.325-0.06
		c0.032-0.011,0.061-0.027,0.092-0.042c0.077-0.036,0.148-0.08,0.214-0.134c0.027-0.022,0.053-0.042,0.078-0.067
		c0.083-0.084,0.156-0.177,0.207-0.291L51.65,2h4.766l-9.319,19.57c-0.237,0.498-0.025,1.095,0.474,1.333
		C47.709,22.969,47.855,23,47.999,23c0.374,0,0.732-0.21,0.904-0.57l10-21c0.148-0.31,0.125-0.673-0.058-0.963
		C58.662,0.176,58.343,0,58,0z"/>
	<path fill="#231F20" d="M21.094,16.423c0.233,0.5,0.828,0.718,1.329,0.483c0.501-0.233,0.717-0.829,0.483-1.329l-7-15
		C15.742,0.225,15.389,0,15,0H9H2C1.657,0,1.338,0.176,1.154,0.466C0.972,0.756,0.949,1.12,1.097,1.43l10,21
		c0.172,0.36,0.53,0.57,0.904,0.57c0.143,0,0.29-0.031,0.429-0.097c0.499-0.237,0.711-0.834,0.474-1.333L3.584,2H8.35l7.736,17.406
		c0.051,0.114,0.125,0.208,0.208,0.292c0.024,0.024,0.05,0.044,0.076,0.066c0.067,0.055,0.139,0.1,0.217,0.136
		c0.03,0.014,0.058,0.03,0.089,0.04C16.78,19.976,16.889,20,17.001,20c0.002,0,0.005-0.002,0.007-0.002
		c0.133-0.001,0.269-0.027,0.398-0.085c0.505-0.224,0.731-0.815,0.508-1.32L10.539,2h3.824L21.094,16.423z"/>
</g>
</svg>
