<?xml version="1.0" encoding="utf-8"?>
<!-- Generator: Adobe Illustrator 17.0.0, SVG Export Plug-In . SVG Version: 6.00 Build 0)  -->
<!DOCTYPE svg PUBLIC "-//W3C//DTD SVG 1.1//EN" "http://www.w3.org/Graphics/SVG/1.1/DTD/svg11.dtd">
<svg version="1.1" id="Layer_1" xmlns="http://www.w3.org/2000/svg" xmlns:xlink="http://www.w3.org/1999/xlink" x="0px" y="0px"
	 width="60px" height="60px" viewBox="0 0 60 60" enable-background="new 0 0 60 60" xml:space="preserve">
<g>
	<path fill="#231F20" d="M11,40c0,11.028,8.972,20,20,20c11.028,0,20-8.972,20-20c0-11.028-8.972-20-20-20
		C19.972,20,11,28.972,11,40z M49,40c0,9.925-8.075,18-18,18s-18-8.075-18-18s8.075-18,18-18S49,30.075,49,40z"/>
	<path fill="#231F20" d="M30.105,28.553L26.382,36H20c-0.421,0-0.797,0.264-0.94,0.66c-0.144,0.396-0.023,0.839,0.3,1.108
		l5.477,4.563l-2.784,8.352c-0.134,0.4-0.002,0.841,0.33,1.102c0.33,0.261,0.79,0.286,1.148,0.062L31,47.179l7.47,4.669
		C38.633,51.95,38.816,52,39,52c0.22,0,0.438-0.072,0.618-0.214c0.332-0.261,0.464-0.702,0.33-1.102l-2.784-8.352l5.477-4.563
		c0.323-0.27,0.443-0.712,0.3-1.108C42.797,36.264,42.421,36,42,36h-6.382l-3.724-7.447C31.555,27.875,30.445,27.875,30.105,28.553z
		 M34.105,37.447C34.275,37.786,34.621,38,35,38h4.238l-3.879,3.232c-0.315,0.263-0.438,0.694-0.308,1.084l2.12,6.362l-5.642-3.526
		C31.368,45.051,31.184,45,31,45s-0.368,0.051-0.53,0.152l-5.642,3.526l2.12-6.362c0.131-0.391,0.008-0.821-0.308-1.084L22.762,38
		H27c0.379,0,0.725-0.214,0.894-0.553L31,31.236L34.105,37.447z"/>
	<path fill="#231F20" d="M43,0H30.913H19c-0.553,0-1,0.448-1,1v6c0,0.055,0.005,0.11,0.014,0.165l2,12
		C20.095,19.653,20.519,20,20.999,20c0.055,0,0.109-0.004,0.165-0.014c0.545-0.091,0.913-0.606,0.822-1.151L20,6.918V2h4v14
		c0,0.552,0.447,1,1,1c0.553,0,1-0.448,1-1V2h4v14.13c0,0.552,0.447,1,1,1c0.553,0,1-0.448,1-1V2h4v14c0,0.552,0.447,1,1,1
		c0.553,0,1-0.448,1-1V2h4v4.917l-1.986,11.918c-0.091,0.545,0.277,1.06,0.822,1.151C40.892,19.996,40.946,20,41.001,20
		c0.48,0,0.904-0.347,0.985-0.835l2-12C43.995,7.11,44,7.055,44,7V1C44,0.448,43.553,0,43,0z"/>
</g>
</svg>
