<?xml version="1.0" encoding="utf-8"?>
<!-- Generator: Adobe Illustrator 17.0.0, SVG Export Plug-In . SVG Version: 6.00 Build 0)  -->
<!DOCTYPE svg PUBLIC "-//W3C//DTD SVG 1.1//EN" "http://www.w3.org/Graphics/SVG/1.1/DTD/svg11.dtd">
<svg version="1.1" id="Layer_1" xmlns="http://www.w3.org/2000/svg" xmlns:xlink="http://www.w3.org/1999/xlink" x="0px" y="0px"
	 width="60px" height="60px" viewBox="0 0 60 60" enable-background="new 0 0 60 60" xml:space="preserve">
<g>
	<path fill="#231F20" d="M51.472,36.51C53.708,32.865,55,28.581,55,24C55,10.767,44.233,0,31,0S7,10.767,7,24
		c0,4.021,0.999,7.812,2.755,11.145L0.138,51.493c-0.2,0.34-0.182,0.765,0.047,1.086c0.228,0.321,0.621,0.478,1.011,0.401
		l9.134-1.827l2.721,8.163c0.12,0.359,0.432,0.62,0.807,0.673C13.906,59.997,13.953,60,14,60c0.325,0,0.634-0.159,0.822-0.431
		l8.813-12.73C25.958,47.59,28.431,48,31,48c2.252,0,4.43-0.319,6.498-0.901l7.571,12.422C45.252,59.82,45.577,60,45.923,60
		c0.036,0,0.072-0.002,0.109-0.006c0.385-0.042,0.712-0.304,0.837-0.671l2.82-8.25l9.211,0.921c0.384,0.037,0.742-0.141,0.944-0.46
		c0.202-0.32,0.208-0.726,0.013-1.05L51.472,36.51z M14.316,56.787l-2.368-7.103c-0.16-0.478-0.652-0.766-1.145-0.664l-7.809,1.562
		l7.921-13.466c2.606,3.977,6.355,7.14,10.782,9.008L14.316,56.787z M9,24C9,11.869,18.869,2,31,2c12.131,0,22,9.869,22,22
		c0,12.131-9.869,22-22,22C18.869,46,9,36.131,9,24z M49.1,49.005c-0.462-0.043-0.895,0.232-1.046,0.672l-2.387,6.981l-6.216-10.199
		c4.325-1.633,8.061-4.478,10.785-8.123l6.882,11.47L49.1,49.005z"/>
	<path fill="#231F20" d="M42,20h-6.382l-3.724-7.447c-0.339-0.678-1.45-0.678-1.789,0L26.382,20H20c-0.421,0-0.797,0.264-0.94,0.66
		c-0.143,0.396-0.023,0.839,0.3,1.108l5.476,4.563l-2.784,8.352c-0.133,0.4-0.001,0.842,0.331,1.103
		c0.332,0.261,0.792,0.286,1.149,0.061L31,31.168l7.469,4.68C38.632,35.95,38.816,36,39,36c0.219,0,0.438-0.072,0.618-0.214
		c0.332-0.261,0.464-0.702,0.331-1.103l-2.784-8.352l5.475-4.563c0.323-0.27,0.443-0.712,0.3-1.108C42.797,20.264,42.421,20,42,20z
		 M35.36,25.232c-0.316,0.263-0.439,0.694-0.309,1.084l2.119,6.357l-5.64-3.533c-0.162-0.102-0.347-0.153-0.531-0.153
		s-0.369,0.051-0.531,0.153l-5.64,3.533l2.119-6.357c0.13-0.391,0.008-0.821-0.309-1.084L22.762,22H27
		c0.379,0,0.725-0.214,0.894-0.553L31,15.236l3.105,6.211C34.275,21.786,34.621,22,35,22h4.238L35.36,25.232z"/>
</g>
</svg>
