<?xml version="1.0" encoding="utf-8"?>
<!-- Generator: Adobe Illustrator 17.0.0, SVG Export Plug-In . SVG Version: 6.00 Build 0)  -->
<!DOCTYPE svg PUBLIC "-//W3C//DTD SVG 1.1//EN" "http://www.w3.org/Graphics/SVG/1.1/DTD/svg11.dtd">
<svg version="1.1" id="Layer_1" xmlns="http://www.w3.org/2000/svg" xmlns:xlink="http://www.w3.org/1999/xlink" x="0px" y="0px"
	 width="60px" height="60px" viewBox="0 0 60 60" enable-background="new 0 0 60 60" xml:space="preserve">
<g>
	<path fill="#231F20" d="M11.273,36.669c-0.14,0.401-0.013,0.847,0.319,1.112l9.412,7.53l-4.71,11.305
		c-0.177,0.424-0.042,0.913,0.326,1.187C16.798,57.934,17.008,58,17.217,58c0.225,0,0.449-0.076,0.633-0.226l10.393-8.504
		l11.373,8.53c0.362,0.271,0.859,0.267,1.214-0.01c0.356-0.277,0.483-0.758,0.309-1.174l-4.713-11.312l9.206-7.529
		c0.328-0.268,0.451-0.712,0.309-1.11C45.8,36.266,45.423,36,45,36H32.985l-3.802-14.258c-0.12-0.449-0.527-0.749-0.998-0.742
		c-0.464,0.015-0.858,0.348-0.949,0.803L24.398,36h-12.18C11.792,36,11.414,36.268,11.273,36.669z M25.217,38
		c0.477,0,0.887-0.336,0.981-0.804l2.159-10.793l2.895,10.855C31.368,37.695,31.764,38,32.217,38h9.98l-7.613,6.226
		c-0.342,0.28-0.46,0.75-0.29,1.159L37.884,54l-9.066-6.8c-0.178-0.134-0.389-0.2-0.6-0.2c-0.225,0-0.449,0.076-0.633,0.226
		l-7.906,6.469l3.462-8.31c0.172-0.412,0.05-0.887-0.298-1.166L15.068,38H25.217z"/>
	<path fill="#231F20" d="M37.248,28.46c0.063,0.012,0.126,0.018,0.188,0.018c0.471,0,0.89-0.333,0.982-0.813L43.46,1.187
		c0.056-0.292-0.022-0.595-0.212-0.825C43.059,0.133,42.776,0,42.478,0H14.739c-0.298,0-0.581,0.133-0.771,0.362
		c-0.19,0.23-0.268,0.532-0.212,0.825L18.8,27.665c0.104,0.543,0.627,0.899,1.169,0.795c0.543-0.103,0.899-0.627,0.795-1.169
		L15.948,2H24v15.391c0,0.552,0.448,1,1,1s1-0.448,1-1V2h6v15.391c0,0.552,0.448,1,1,1s1-0.448,1-1V2h7.269l-4.817,25.291
		C36.349,27.833,36.705,28.357,37.248,28.46z"/>
</g>
</svg>
