<?xml version="1.0" encoding="utf-8"?>
<!-- Generator: Adobe Illustrator 17.0.0, SVG Export Plug-In . SVG Version: 6.00 Build 0)  -->
<!DOCTYPE svg PUBLIC "-//W3C//DTD SVG 1.1//EN" "http://www.w3.org/Graphics/SVG/1.1/DTD/svg11.dtd">
<svg version="1.1" id="Layer_1" xmlns="http://www.w3.org/2000/svg" xmlns:xlink="http://www.w3.org/1999/xlink" x="0px" y="0px"
	 width="60px" height="60px" viewBox="0 0 60 60" enable-background="new 0 0 60 60" xml:space="preserve">
<g>
	<path fill="#231F20" d="M6.437,48.266c-0.785,0.257-1.478,0.693-2.02,1.342c-0.755,0.904-1.17,2.108-1.17,3.389
		C3.247,55.483,4.88,58,8,58h44c3.119,0,4.752-2.516,4.752-5.001c0-2-1.06-4.017-3.1-4.729C57.157,45.286,59,41.435,59,37
		c0-9.271-6.309-16-15-16c-2.039,0-4.217,0.563-6.631,1.706c-1.921-0.948-4.072-1.525-6.369-1.658V15.92c3.386-0.488,6-3.401,6-6.92
		c0-3.86-3.141-7-7-7c-3.859,0-7,3.14-7,7c0,3.52,2.614,6.432,6,6.92v5.128c-2.296,0.132-4.447,0.71-6.369,1.658
		C20.216,21.563,18.037,21,16,21C7.309,21,1,27.729,1,37C1,41.24,2.916,45.165,6.437,48.266z M54.752,52.999
		C54.752,54.113,54.172,56,52,56H8c-2.173,0-2.753-1.887-2.753-3.002C5.247,51.884,5.827,50,8,50h0.69h42.604H52
		C54.172,50,54.752,51.885,54.752,52.999z M30,4c2.414,0,4.434,1.721,4.899,4h-9.798C25.566,5.721,27.586,4,30,4z M25.101,10h9.798
		c-0.465,2.279-2.485,4-4.899,4C27.586,14,25.566,12.279,25.101,10z M16,23c1.387,0,2.879,0.322,4.513,0.965
		c-4.045,2.849-6.644,7.497-6.644,12.861c0,1.834,0.307,3.635,0.91,5.352c0.183,0.521,0.753,0.794,1.275,0.611
		c0.521-0.183,0.795-0.754,0.611-1.275c-0.528-1.503-0.797-3.08-0.797-4.688C15.869,29.073,22.076,23,30,23
		c7.924,0,14.131,6.073,14.131,13.826c0,1.641-0.279,3.248-0.831,4.78c-0.188,0.519,0.082,1.092,0.602,1.28
		c0.112,0.04,0.227,0.06,0.339,0.06c0.409,0,0.794-0.254,0.94-0.662c0.631-1.749,0.95-3.585,0.95-5.457
		c0-5.364-2.599-10.012-6.644-12.861C41.121,23.322,42.612,23,44,23c7.532,0,13,5.888,13,14c0,5.584-3.368,9.045-6.299,11H9.313
		C6.374,45.921,3,42.365,3,37C3,28.888,8.468,23,16,23z"/>
</g>
</svg>
