<?xml version="1.0" encoding="utf-8"?>
<!-- Generator: Adobe Illustrator 17.0.0, SVG Export Plug-In . SVG Version: 6.00 Build 0)  -->
<!DOCTYPE svg PUBLIC "-//W3C//DTD SVG 1.1//EN" "http://www.w3.org/Graphics/SVG/1.1/DTD/svg11.dtd">
<svg version="1.1" id="Layer_1" xmlns="http://www.w3.org/2000/svg" xmlns:xlink="http://www.w3.org/1999/xlink" x="0px" y="0px"
	 width="60px" height="60px" viewBox="0 0 60 60" enable-background="new 0 0 60 60" xml:space="preserve">
<g>
	<path fill="#231F20" d="M30.486,60c9.841,0,16.559-5.67,18.433-15.558c2.907-15.336-6.874-36.826-26.066-44.373
		c-0.414-0.163-0.892-0.031-1.163,0.327c-0.271,0.357-0.271,0.851,0,1.208c6.37,8.399,6.659,22.198,0.85,29.771
		c-1.102-1.777-1.538-3.934-1.996-6.197l-0.077-0.378c-0.067-0.333-0.299-0.607-0.614-0.732c-0.316-0.125-0.673-0.08-0.947,0.118
		c-7.133,5.111-10.017,13.784-7.346,22.095C14.236,54.616,21.665,60,30.486,60z M18.83,26.78c0.532,2.507,1.187,4.862,2.894,6.868
		c0.187,0.219,0.459,0.348,0.746,0.352c0.006,0,0.011,0,0.016,0c0.282,0,0.552-0.12,0.741-0.329
		c6.633-7.331,7.284-20.762,1.939-30.382c16.251,8.14,24.388,27.062,21.788,40.781C45.276,52.922,39.273,58,30.486,58
		c-7.935,0-14.617-4.839-17.023-12.33C11.225,38.703,13.331,31.452,18.83,26.78z"/>
	<path fill="#231F20" d="M30.26,52.435c3.972,0,7.18-3.195,7.304-7.274c0.082-2.733-0.522-6.367-2.466-8.371
		c-0.943-0.972-2.141-1.486-3.463-1.486c-0.355,0-0.684,0.189-0.863,0.495c-0.179,0.307-0.183,0.686-0.009,0.995
		c0.957,1.703,0.141,3.596-0.431,4.572c-1.301,2.223-3.727,3.964-5.522,3.964c-0.182,0-0.354-0.019-0.512-0.056
		c-0.323-0.074-0.672,0.016-0.916,0.248c-0.244,0.231-0.356,0.57-0.297,0.902C23.707,49.907,26.725,52.435,30.26,52.435z
		 M32.059,42.377c0.926-1.583,1.295-3.168,1.099-4.62c0.176,0.119,0.344,0.261,0.505,0.427c1.511,1.557,1.969,4.699,1.901,6.917
		c-0.09,2.991-2.42,5.335-5.304,5.335c-2.131,0-4.002-1.266-4.834-3.144C27.81,46.99,30.514,45.016,32.059,42.377z"/>
</g>
</svg>
