<?xml version="1.0" encoding="utf-8"?>
<!-- Generator: Adobe Illustrator 17.0.0, SVG Export Plug-In . SVG Version: 6.00 Build 0)  -->
<!DOCTYPE svg PUBLIC "-//W3C//DTD SVG 1.1//EN" "http://www.w3.org/Graphics/SVG/1.1/DTD/svg11.dtd">
<svg version="1.1" id="Layer_1" xmlns="http://www.w3.org/2000/svg" xmlns:xlink="http://www.w3.org/1999/xlink" x="0px" y="0px"
	 width="60px" height="60px" viewBox="0 0 60 60" enable-background="new 0 0 60 60" xml:space="preserve">
<g>
	<path fill="#231F20" d="M36.256,44.707C36.443,44.895,36.697,45,36.963,45s0.519-0.105,0.707-0.293l22-22
		c0.391-0.391,0.391-1.023,0-1.414l-21-21c-0.391-0.391-1.023-0.391-1.414,0L21.963,15.586l-4.293-4.293
		c-0.391-0.391-1.023-0.391-1.414,0l-13,13c-0.391,0.391-0.391,1.023,0,1.414l21,21C24.451,46.902,24.707,47,24.963,47
		s0.512-0.098,0.707-0.293l6.064-6.064l3.759,3.132C35.712,44.095,35.958,44.409,36.256,44.707z M37.963,2.414L57.549,22
		L37.047,42.502c-2.107-3.467,1.688-8.862,1.729-8.92c0.025-0.036,0.033-0.077,0.053-0.115c0.029-0.054,0.056-0.105,0.074-0.162
		c0.021-0.064,0.03-0.126,0.037-0.192c0.007-0.059,0.014-0.115,0.01-0.175c-0.004-0.066-0.02-0.127-0.037-0.191
		c-0.015-0.057-0.027-0.113-0.053-0.167c-0.029-0.063-0.072-0.117-0.115-0.173c-0.028-0.037-0.042-0.081-0.076-0.114L23.377,17
		L37.963,2.414z M24.963,44.586L5.377,25l11.586-11.586l4.293,4.293L36.549,33L24.963,44.586z"/>
	<path fill="#231F20" d="M0.33,29.446l30.261,30.261C30.786,59.902,31.042,60,31.298,60c0.256,0,0.512-0.098,0.707-0.293
		c0.391-0.391,0.391-1.023,0-1.414L1.744,28.032c-0.391-0.391-1.023-0.391-1.414,0C-0.06,28.423-0.06,29.056,0.33,29.446z"/>
</g>
</svg>
