<?xml version="1.0" encoding="utf-8"?>
<!-- Generator: Adobe Illustrator 17.0.0, SVG Export Plug-In . SVG Version: 6.00 Build 0)  -->
<!DOCTYPE svg PUBLIC "-//W3C//DTD SVG 1.1//EN" "http://www.w3.org/Graphics/SVG/1.1/DTD/svg11.dtd">
<svg version="1.1" id="Layer_1" xmlns="http://www.w3.org/2000/svg" xmlns:xlink="http://www.w3.org/1999/xlink" x="0px" y="0px"
	 width="60px" height="60px" viewBox="0 0 60 60" enable-background="new 0 0 60 60" xml:space="preserve">
<g>
	<path fill="#231F20" d="M14.46,2.158C14.173,2.342,14,2.659,14,3v33c0,0.337,0.169,0.651,0.451,0.836
		C14.617,36.944,14.808,37,15,37c0.135,0,0.269-0.027,0.397-0.082l37-16c0.362-0.157,0.599-0.512,0.603-0.907
		c0.004-0.395-0.224-0.755-0.583-0.92l-37-17C15.108,1.949,14.747,1.974,14.46,2.158z M16,4.56l33.544,15.412L16,34.478V4.56z"/>
	<path fill="#231F20" d="M10.087,1v58c0,0.552,0.448,1,1,1s1-0.448,1-1V1c0-0.552-0.448-1-1-1S10.087,0.448,10.087,1z"/>
</g>
</svg>
