<?xml version="1.0" encoding="utf-8"?>
<!-- Generator: Adobe Illustrator 17.0.0, SVG Export Plug-In . SVG Version: 6.00 Build 0)  -->
<!DOCTYPE svg PUBLIC "-//W3C//DTD SVG 1.1//EN" "http://www.w3.org/Graphics/SVG/1.1/DTD/svg11.dtd">
<svg version="1.1" id="Layer_1" xmlns="http://www.w3.org/2000/svg" xmlns:xlink="http://www.w3.org/1999/xlink" x="0px" y="0px"
	 width="60px" height="60px" viewBox="0 0 60 60" enable-background="new 0 0 60 60" xml:space="preserve">
<g>
	<path fill="#231F20" d="M27,2H9C8.448,2,8,2.448,8,3v32c0,0.552,0.448,1,1,1h9v3.809c-0.077,0.375-0.13,0.766-0.13,1.191
		c0,0.552,0.448,1,1,1H55c0.007,0,0.014,0,0.02,0c0.552,0,1-0.448,1-1c0-0.373-0.204-0.698-0.507-0.87L38.109,26.206l17.527-14.434
		c0.326-0.269,0.448-0.712,0.306-1.11C55.799,10.265,55.422,10,55,10H28V3C28,2.448,27.552,2,27,2z M10,34V4h16v7v23h-2.995H23h-5
		H10z M52.213,12L35.886,25.445c-0.232,0.191-0.366,0.478-0.364,0.779c0.002,0.301,0.14,0.586,0.376,0.773L52.149,40H20.13v-0.311
		c1.259-3.159,6.889-3.687,6.953-3.692c0.058-0.005,0.106-0.032,0.16-0.046c0.06-0.016,0.121-0.025,0.177-0.051
		c0.061-0.028,0.109-0.07,0.163-0.11c0.049-0.036,0.101-0.066,0.142-0.111c0.045-0.048,0.074-0.105,0.108-0.161
		c0.033-0.052,0.07-0.099,0.093-0.157c0.025-0.063,0.029-0.132,0.041-0.201C27.977,35.107,28,35.057,28,35V12H52.213z"/>
	<path fill="#231F20" d="M6,59V1c0-0.552-0.448-1-1-1S4,0.448,4,1v58c0,0.552,0.448,1,1,1S6,59.552,6,59z"/>
</g>
</svg>
