<?xml version="1.0" encoding="utf-8"?>
<!-- Generator: Adobe Illustrator 17.0.0, SVG Export Plug-In . SVG Version: 6.00 Build 0)  -->
<!DOCTYPE svg PUBLIC "-//W3C//DTD SVG 1.1//EN" "http://www.w3.org/Graphics/SVG/1.1/DTD/svg11.dtd">
<svg version="1.1" id="Layer_1" xmlns="http://www.w3.org/2000/svg" xmlns:xlink="http://www.w3.org/1999/xlink" x="0px" y="0px"
	 width="60px" height="60px" viewBox="0 0 60 60" enable-background="new 0 0 60 60" xml:space="preserve">
<g>
	<path fill="#231F20" d="M12,59V34.648l37.408-16.735c0.364-0.163,0.596-0.525,0.592-0.924c-0.004-0.398-0.245-0.756-0.612-0.911
		l-38-16c-0.111-0.046-0.228-0.065-0.346-0.07C11.028,0.008,11.015,0,11,0c-0.011,0-0.021,0.006-0.032,0.007
		c-0.115,0.004-0.227,0.025-0.334,0.068c-0.022,0.009-0.04,0.02-0.061,0.03c-0.042,0.02-0.086,0.036-0.126,0.063
		c-0.044,0.029-0.081,0.067-0.119,0.103c-0.015,0.014-0.031,0.024-0.045,0.039c-0.078,0.081-0.139,0.174-0.186,0.275
		c-0.011,0.023-0.018,0.046-0.027,0.069C10.029,0.763,10,0.879,10,1v33v25c0,0.552,0.448,1,1,1S12,59.552,12,59z M12,32.457V2.506
		l34.489,14.522L12,32.457z"/>
</g>
</svg>
