<?xml version="1.0" encoding="utf-8"?>
<!-- Generator: Adobe Illustrator 17.0.0, SVG Export Plug-In . SVG Version: 6.00 Build 0)  -->
<!DOCTYPE svg PUBLIC "-//W3C//DTD SVG 1.1//EN" "http://www.w3.org/Graphics/SVG/1.1/DTD/svg11.dtd">
<svg version="1.1" id="Layer_1" xmlns="http://www.w3.org/2000/svg" xmlns:xlink="http://www.w3.org/1999/xlink" x="0px" y="0px"
	 width="60px" height="60px" viewBox="0 0 60 60" enable-background="new 0 0 60 60" xml:space="preserve">
<g>
	<path fill="#231F20" d="M53.956,0H6.044C2.711,0,0,2.711,0,6.044V13v46c0,0.552,0.447,1,1,1h58c0.553,0,1-0.448,1-1V13V6.044
		C60,2.711,57.289,0,53.956,0z M58,6.044V12H42V2h11.956C56.185,2,58,3.814,58,6.044z M20,12V2h20v10H20z M2,6.044
		C2,3.814,3.814,2,6.044,2H18v10H2V6.044z M58,58H2V14h56V58z"/>
	<path fill="#231F20" d="M36,25c0-0.552-0.447-1-1-1h-8c-0.553,0-1,0.448-1,1v7h-7c-0.553,0-1,0.448-1,1v8c0,0.552,0.447,1,1,1h7v7
		c0,0.552,0.447,1,1,1h8c0.553,0,1-0.448,1-1v-7h7c0.553,0,1-0.448,1-1v-8c0-0.552-0.447-1-1-1h-7V25z M42,34v6h-7
		c-0.553,0-1,0.448-1,1v7h-6v-7c0-0.552-0.447-1-1-1h-7v-6h7c0.553,0,1-0.448,1-1v-7h6v7c0,0.552,0.447,1,1,1H42z"/>
</g>
</svg>
