<?xml version="1.0" encoding="utf-8"?>
<!-- Generator: Adobe Illustrator 17.0.0, SVG Export Plug-In . SVG Version: 6.00 Build 0)  -->
<!DOCTYPE svg PUBLIC "-//W3C//DTD SVG 1.1//EN" "http://www.w3.org/Graphics/SVG/1.1/DTD/svg11.dtd">
<svg version="1.1" id="Layer_1" xmlns="http://www.w3.org/2000/svg" xmlns:xlink="http://www.w3.org/1999/xlink" x="0px" y="0px"
	 width="60px" height="60px" viewBox="0 0 60 60" enable-background="new 0 0 60 60" xml:space="preserve">
<g>
	<path fill="#231F20" d="M1,51.94c11.663,0,15.969,1.366,19.429,2.463c2.601,0.825,4.847,1.537,9.18,1.537H46c1.435,0,4-1.337,4-4
		c0-1.243-0.294-2.286-0.845-3.093C51.585,48.434,53,46.665,53,43.94c0-0.829-0.255-1.57-0.714-2.183
		C54.373,41.158,56,39.163,56,36.94c0-1.187-0.675-2.315-1.659-3.199C56.401,33.123,58,31.144,58,28.94c0-2.664-2.336-5-5-5H34.236
		c0.548-2.647,1.764-8.968,1.764-13c0-4.753-2.542-6.88-5.06-6.88C28.694,4.06,27,5.728,27,7.94c0,9.059-8.475,20-19,20H1
		c-0.552,0-1,0.448-1,1v22C0,51.493,0.448,51.94,1,51.94z M2,29.94h6c9.711,0,21-9.61,21-22c0-1.234,0.976-1.88,1.94-1.88
		c1.523,0,3.06,1.509,3.06,4.88c0,4.874-1.956,13.693-1.976,13.782c-0.066,0.296,0.006,0.606,0.196,0.843
		c0.19,0.237,0.477,0.375,0.78,0.375h20c1.542,0,3,1.458,3,3s-1.458,3-3,3h-3c-0.552,0-1,0.448-1,1c0,0.552,0.448,1,1,1
		c1.616,0,4,1.58,4,3c0,1.542-1.458,3-3,3h-3c-0.552,0-1,0.448-1,1c0,0.552,0.448,1,1,1c1.114,0,3,0.421,3,2c0,3-2.258,3-3,3h-3
		c-0.552,0-1,0.448-1,1c0,0.552,0.448,1,1,1c3,0,3,2.258,3,3c0,1.398-1.518,2-2,2H29.609c-4.023,0-6.032-0.637-8.575-1.443
		C17.544,51.39,13.226,50.021,2,49.944V29.94z"/>
</g>
</svg>
