<?xml version="1.0" encoding="utf-8"?>
<!-- Generator: Adobe Illustrator 17.0.0, SVG Export Plug-In . SVG Version: 6.00 Build 0)  -->
<!DOCTYPE svg PUBLIC "-//W3C//DTD SVG 1.1//EN" "http://www.w3.org/Graphics/SVG/1.1/DTD/svg11.dtd">
<svg version="1.1" id="Layer_1" xmlns="http://www.w3.org/2000/svg" xmlns:xlink="http://www.w3.org/1999/xlink" x="0px" y="0px"
	 width="60px" height="60px" viewBox="0 0 60 60" enable-background="new 0 0 60 60" xml:space="preserve">
<g>
	<path fill="#231F20" d="M55,22H36.45c1.033-2.851,3.127-9.401,2.078-13.137C37.001,3.423,33.868,3,32.944,3
		C30.732,3,29,4.898,29,7.321c0,9.169-9.277,19.427-15,20.569V25c0-0.552-0.447-1-1-1H1c-0.553,0-1,0.448-1,1v30
		c0,0.552,0.447,1,1,1h12c0.553,0,1-0.448,1-1v-3.837c3.013,0.476,5.176,1.003,7.104,1.473C24.223,53.398,26.686,54,31,54h17
		c2.654,0,4-1.346,4-4c0-0.806-0.229-1.523-0.646-2.12C53.582,47.466,55,46.01,55,44c0-1.266-0.306-2.326-0.877-3.139
		C56.287,40.321,58,38.28,58,36c0-1.207-0.59-2.347-1.54-3.233C58.89,31.943,60,29.108,60,27C60,24.336,57.663,22,55,22z M12,54H2
		V26h10v3v21V54z M55,31h-3.146c-0.553,0-1,0.448-1,1c0,0.552,0.447,1,1,1C53.985,33,56,34.458,56,36s-1.458,3-3,3h-3
		c-0.553,0-1,0.448-1,1c0,0.552,0.447,1,1,1c3,0,3,2.258,3,3c0,1.856-2.296,2-3,2h-3c-0.553,0-1,0.448-1,1c0,0.552,0.447,1,1,1
		c0.704,0,3,0.144,3,2c0,1.533-0.468,2-2,2H31c-4.072,0-6.434-0.577-9.422-1.307c-2.034-0.497-4.318-1.055-7.578-1.556V29.92
		c3.179-0.49,7.132-3.207,10.584-7.335C28.661,17.709,31,12.146,31,7.321C31,5.998,31.836,5,32.944,5
		c1.171,0,2.747,1.157,3.658,4.404c0.957,3.41-1.501,10.698-2.528,13.218c-0.126,0.309-0.09,0.659,0.096,0.935
		C34.355,23.834,34.667,24,35,24h20c1.542,0,3,1.458,3,3C58,28.613,57.047,31,55,31z"/>
	<circle fill="#231F20" cx="8.565" cy="50.191" r="1.261"/>
</g>
</svg>
