<?xml version="1.0" encoding="utf-8"?>
<!-- Generator: Adobe Illustrator 17.0.0, SVG Export Plug-In . SVG Version: 6.00 Build 0)  -->
<!DOCTYPE svg PUBLIC "-//W3C//DTD SVG 1.1//EN" "http://www.w3.org/Graphics/SVG/1.1/DTD/svg11.dtd">
<svg version="1.1" id="Layer_1" xmlns="http://www.w3.org/2000/svg" xmlns:xlink="http://www.w3.org/1999/xlink" x="0px" y="0px"
	 width="60px" height="60px" viewBox="0 0 60 60" enable-background="new 0 0 60 60" xml:space="preserve">
<g>
	<path fill="#231F20" d="M30,0C13.458,0,0,13.458,0,30s13.458,30,30,30s30-13.458,30-30S46.542,0,30,0z M30,58
		C14.56,58,2,45.44,2,30C2,14.561,14.56,2,30,2s28,12.561,28,28C58,45.44,45.44,58,30,58z"/>
	<path fill="#231F20" d="M37.002,18.913c-2.421,0-5.293,1.315-7.002,4.809c-1.709-3.493-4.581-4.809-7.002-4.809
		c-3.868,0-7.868,3.239-7.868,8.659c0,7.891,13.698,17.944,14.281,18.368c0.175,0.127,0.382,0.191,0.588,0.191
		s0.413-0.064,0.588-0.191c0.583-0.424,14.281-10.477,14.281-18.368C44.87,22.151,40.87,18.913,37.002,18.913z M30,43.884
		C25.921,40.793,17.13,33,17.13,27.571c0-4.168,2.983-6.659,5.868-6.659c2.867,0,5.122,2.255,6.03,6.032
		c0.108,0.449,0.51,0.766,0.972,0.766s0.864-0.317,0.972-0.766c0.908-3.777,3.163-6.032,6.03-6.032c2.884,0,5.868,2.491,5.868,6.659
		C42.87,33,34.079,40.793,30,43.884z"/>
</g>
</svg>
