<?xml version="1.0" encoding="utf-8"?>
<!-- Generator: Adobe Illustrator 17.0.0, SVG Export Plug-In . SVG Version: 6.00 Build 0)  -->
<!DOCTYPE svg PUBLIC "-//W3C//DTD SVG 1.1//EN" "http://www.w3.org/Graphics/SVG/1.1/DTD/svg11.dtd">
<svg version="1.1" id="Layer_1" xmlns="http://www.w3.org/2000/svg" xmlns:xlink="http://www.w3.org/1999/xlink" x="0px" y="0px"
	 width="60px" height="60px" viewBox="0 0 60 60" enable-background="new 0 0 60 60" xml:space="preserve">
<g>
	<path fill="#231F20" d="M29.448,58.439c0.168,0.111,0.36,0.166,0.552,0.166c0.216,0,0.433-0.07,0.612-0.209
		c0.067-0.052,6.772-5.27,13.378-12.804c8.95-10.206,13.487-19.586,13.487-27.88c0-8.108-4.754-16.316-13.841-16.316
		c-5.27,0-11.091,3.325-13.637,10.638C27.493,4.83,21.817,1.557,16.684,1.557c-9.297,0-14.162,8.878-14.162,17.647
		c0,8.802,4.673,18.389,13.513,27.722C22.657,53.918,29.174,58.258,29.448,58.439z M29.933,56.344h0.041
		c-0.006,0.005-0.014,0.011-0.019,0.016C29.949,56.355,29.94,56.348,29.933,56.344z M43.637,3.395
		c5.703,0,11.841,4.48,11.841,14.316c0,15.938-18.796,32.991-24.478,37.781V43.735c0-0.351-0.184-0.677-0.485-0.857l-4.875-2.925
		l11.18-6.708c0.328-0.197,0.515-0.563,0.482-0.944c-0.033-0.381-0.28-0.71-0.637-0.847l-14.521-5.585l8.387-5.242
		c0.292-0.183,0.47-0.503,0.47-0.848V16.31C32.492,6.781,38.734,3.395,43.637,3.395z M16.684,3.557
		c7.13,0,11.317,6.394,12.316,12.751v2.917l-9.617,6.01c-0.322,0.201-0.502,0.566-0.466,0.944c0.037,0.377,0.283,0.702,0.637,0.837
		l14.477,5.568l-10.85,6.511c-0.301,0.181-0.485,0.506-0.485,0.857c0,0.351,0.184,0.677,0.485,0.857L29,44.302v11.369
		C23.395,51.557,4.522,36.423,4.522,19.204C4.522,8.453,10.827,3.557,16.684,3.557z"/>
</g>
</svg>
