<?xml version="1.0" encoding="utf-8"?>
<!-- Generator: Adobe Illustrator 17.0.0, SVG Export Plug-In . SVG Version: 6.00 Build 0)  -->
<!DOCTYPE svg PUBLIC "-//W3C//DTD SVG 1.1//EN" "http://www.w3.org/Graphics/SVG/1.1/DTD/svg11.dtd">
<svg version="1.1" id="Layer_1" xmlns="http://www.w3.org/2000/svg" xmlns:xlink="http://www.w3.org/1999/xlink" x="0px" y="0px"
	 width="60px" height="60px" viewBox="0 0 60 60" enable-background="new 0 0 60 60" xml:space="preserve">
<g>
	<path fill="#231F20" d="M43.637,1.395c-5.27,0-11.091,3.325-13.637,10.638C27.493,4.83,21.817,1.557,16.684,1.557
		c-9.297,0-14.162,8.878-14.162,17.647c0,8.802,4.673,18.389,13.513,27.722c6.622,6.992,13.139,11.332,13.413,11.513
		c0.168,0.111,0.36,0.166,0.552,0.166c0.216,0,0.433-0.07,0.612-0.209c0.067-0.052,6.772-5.27,13.378-12.804
		c8.95-10.206,13.487-19.586,13.487-27.88C57.478,9.603,52.724,1.395,43.637,1.395z M29.956,56.359
		c-3.889-2.74-25.434-18.758-25.434-37.156c0-10.75,6.305-15.647,12.162-15.647c7.154,0,11.346,6.436,12.328,12.814
		c0.075,0.488,0.495,0.848,0.988,0.848s0.913-0.36,0.988-0.848c1.474-9.578,7.735-12.976,12.649-12.976
		c5.703,0,11.841,4.48,11.841,14.316C55.478,34.835,33.773,53.253,29.956,56.359z"/>
</g>
</svg>
