<?xml version="1.0" encoding="utf-8"?>
<!-- Generator: Adobe Illustrator 17.0.0, SVG Export Plug-In . SVG Version: 6.00 Build 0)  -->
<!DOCTYPE svg PUBLIC "-//W3C//DTD SVG 1.1//EN" "http://www.w3.org/Graphics/SVG/1.1/DTD/svg11.dtd">
<svg version="1.1" id="Layer_1" xmlns="http://www.w3.org/2000/svg" xmlns:xlink="http://www.w3.org/1999/xlink" x="0px" y="0px"
	 width="60px" height="60px" viewBox="0 0 60 60" enable-background="new 0 0 60 60" xml:space="preserve">
<g>
	<path fill="#231F20" d="M53.15,26.803c1.153-2.951,1.744-5.831,1.757-8.558c0.036-7.37-3.991-15.647-12.917-16.408
		c-7.133-0.61-11.896,4.087-13.997,9.609c-2.149-5.535-7.081-10.229-14.508-9.623C4.22,2.59,0,10.871,0,18.24
		c0,16.855,19.628,32.392,25.644,36.752l1.174-1.619C22.673,50.369,2,34.558,2,18.24C2,8.942,7.852,4.296,13.65,3.816
		c5.605-0.46,11.923,2.934,13.363,11.574c0.08,0.482,0.497,0.836,0.986,0.836c0.489,0,0.906-0.354,0.986-0.836
		c1.437-8.62,7.486-12.02,12.834-11.561c5.551,0.473,11.132,5.111,11.087,14.406c-0.012,2.481-0.557,5.119-1.62,7.84L53.15,26.803z"
		/>
	<path fill="#231F20" d="M45,28.226c-8.272,0-15,6.729-15,15c0,8.271,6.728,15,15,15c8.271,0,15-6.729,15-15
		C60,34.955,53.271,28.226,45,28.226z M45,56.226c-7.168,0-13-5.832-13-13c0-7.168,5.832-13,13-13s13,5.832,13,13
		C58,50.394,52.168,56.226,45,56.226z"/>
	<path fill="#231F20" d="M52,42.226H39c-0.553,0-1,0.448-1,1s0.447,1,1,1h13c0.553,0,1-0.448,1-1S52.553,42.226,52,42.226z"/>
</g>
</svg>
