<?xml version="1.0" encoding="utf-8"?>
<!-- Generator: Adobe Illustrator 17.0.0, SVG Export Plug-In . SVG Version: 6.00 Build 0)  -->
<!DOCTYPE svg PUBLIC "-//W3C//DTD SVG 1.1//EN" "http://www.w3.org/Graphics/SVG/1.1/DTD/svg11.dtd">
<svg version="1.1" id="Layer_1" xmlns="http://www.w3.org/2000/svg" xmlns:xlink="http://www.w3.org/1999/xlink" x="0px" y="0px"
	 width="60px" height="60px" viewBox="0 0 60 60" enable-background="new 0 0 60 60" xml:space="preserve">
<g>
	<path fill="#231F20" d="M48,40c-0.553,0-1,0.448-1,1v5.044C47,47.563,45.542,49,44,49c-0.742,0-3,0-3-3v-2.522c0-0.552-0.447-1-1-1
		c-0.553,0-1,0.448-1,1V46c0,3.131,1.869,5,5,5c1.103,0,2.151-0.398,3-1.052V52c0,3.701,1.916,6,5,6s5-2.299,5-6V34
		c0-5.12-2.433-8.312-6.849-8.988c-0.56-0.085-1.057,0.292-1.14,0.837c-0.084,0.546,0.291,1.056,0.837,1.14
		C53.267,27.512,55,29.871,55,34v18c0,1.494-0.39,4-3,4c-2.61,0-3-2.506-3-4V41C49,40.448,48.553,40,48,40z"/>
	<path fill="#231F20" d="M11.151,26.988c0.546-0.083,0.921-0.594,0.837-1.14c-0.083-0.545-0.598-0.922-1.14-0.837
		c-4.596,0.704-7.805,4.614-7.805,9.508L3,52c0,3.701,1.916,6,5,6s5-2.299,5-6v-2.052C13.849,50.602,14.896,51,16,51
		c2.663,0,5-2.336,5-5v-3c0-0.552-0.447-1-1-1c-0.553,0-1,0.448-1,1v3c0,1.542-1.458,3-3,3s-3-1.437-3-2.956V41c0-0.552-0.447-1-1-1
		c-0.553,0-1,0.448-1,1v11c0,1.494-0.39,4-3,4s-3-2.506-3-3.998l0.044-17.48C5.044,30.637,7.556,27.539,11.151,26.988z"/>
	<path fill="#231F20" d="M45,7c0-3.283-7.283-5-14.479-5C23.306,2,16,3.717,16,7c0,4.345,12.097,4.565,14.521,4.565
		C32.939,11.565,45,11.345,45,7z M18,7c0-0.871,4.388-3,12.521-3C38.755,4,43,6.103,43,7c0,0.73-3.712,2.565-12.479,2.565
		C21.725,9.565,18,7.73,18,7z"/>
	<path fill="#231F20" d="M30.003,47.985c0.159,0.097,0.339,0.145,0.519,0.145c0.192,0,0.385-0.055,0.552-0.166
		C31.71,47.544,46.68,37.522,46.68,26.461c0-6.376-4.342-9.712-8.631-9.712c-2.632,0-5.828,1.343-7.525,4.899
		c-1.674-3.56-4.854-5.188-7.751-5.188c-4.05,0-8.409,3.13-8.409,10.001C14.363,38.356,29.364,47.598,30.003,47.985z M22.772,18.46
		c2.824,0,6.01,2.097,6.762,6.781c0.078,0.485,0.496,0.842,0.987,0.842s0.909-0.356,0.987-0.842c0.768-4.792,4.003-6.492,6.54-6.492
		c3.295,0,6.631,2.649,6.631,7.712c0,8.891-11.545,17.597-14.18,19.467c-2.652-1.75-14.137-9.882-14.137-19.467
		C16.363,20.964,19.685,18.46,22.772,18.46z"/>
</g>
</svg>
