<?xml version="1.0" encoding="utf-8"?>
<!-- Generator: Adobe Illustrator 17.0.0, SVG Export Plug-In . SVG Version: 6.00 Build 0)  -->
<!DOCTYPE svg PUBLIC "-//W3C//DTD SVG 1.1//EN" "http://www.w3.org/Graphics/SVG/1.1/DTD/svg11.dtd">
<svg version="1.1" id="Layer_1" xmlns="http://www.w3.org/2000/svg" xmlns:xlink="http://www.w3.org/1999/xlink" x="0px" y="0px"
	 width="60px" height="60px" viewBox="0 0 60 60" enable-background="new 0 0 60 60" xml:space="preserve">
<g>
	<path fill="#231F20" d="M22.241,58.089h0.001c1.181,0,2.408-0.021,3.671-0.043c2.654-0.046,5.519-0.046,8.174,0
		c1.264,0.022,2.491,0.043,3.672,0.043C45.79,58.089,53,57.233,53,46.897c0-0.353-0.187-0.681-0.491-0.861l-22-13
		c-0.315-0.186-0.703-0.186-1.018,0l-22,13C7.186,46.216,7,46.544,7,46.897C7,57.233,14.21,58.089,22.241,58.089z M30,35.059
		l20.992,12.404c-0.206,7.317-4.483,8.627-13.233,8.627c-1.17,0-2.386-0.021-3.638-0.042C32.783,56.023,31.405,56,30,56
		c-1.405,0-2.783,0.023-4.121,0.047c-1.251,0.021-2.467,0.042-3.637,0.042h-0.001c-8.75,0-13.027-1.309-13.233-8.627L30,35.059z"/>
	<path fill="#231F20" d="M8.478,24.775L30,13.036l21.521,11.739c0.149,0.081,0.314,0.122,0.479,0.122
		c0.177,0,0.353-0.047,0.511-0.14C52.813,24.577,53,24.25,53,23.897v-8c0-0.366-0.2-0.703-0.522-0.878l-22-12
		c-0.297-0.163-0.66-0.163-0.957,0l-22,12C7.2,15.194,7,15.531,7,15.897v8c0,0.353,0.186,0.68,0.489,0.86
		C7.794,24.938,8.17,24.944,8.478,24.775z M9,16.491L30,5.036l21,11.455v5.722L30.478,11.019c-0.148-0.081-0.313-0.122-0.478-0.122
		s-0.33,0.041-0.479,0.122L9,22.212V16.491z"/>
	<path fill="#231F20" d="M7,38.897c0,0.353,0.186,0.68,0.489,0.86c0.305,0.181,0.681,0.188,0.989,0.018L30,28.036l21.521,11.739
		c0.149,0.081,0.314,0.122,0.479,0.122c0.177,0,0.353-0.047,0.511-0.14C52.813,39.577,53,39.25,53,38.897v-8
		c0-0.366-0.2-0.703-0.522-0.878l-22-12c-0.297-0.163-0.66-0.163-0.957,0l-22,12C7.2,30.194,7,30.531,7,30.897V38.897z M9,31.491
		l21-11.455l21,11.455v5.722L30.478,26.019c-0.148-0.081-0.313-0.122-0.478-0.122s-0.33,0.041-0.479,0.122L9,37.212V31.491z"/>
</g>
</svg>
