<?xml version="1.0" encoding="utf-8"?>
<!-- Generator: Adobe Illustrator 17.0.0, SVG Export Plug-In . SVG Version: 6.00 Build 0)  -->
<!DOCTYPE svg PUBLIC "-//W3C//DTD SVG 1.1//EN" "http://www.w3.org/Graphics/SVG/1.1/DTD/svg11.dtd">
<svg version="1.1" id="Layer_1" xmlns="http://www.w3.org/2000/svg" xmlns:xlink="http://www.w3.org/1999/xlink" x="0px" y="0px"
	 width="60px" height="60px" viewBox="0 0 60 60" enable-background="new 0 0 60 60" xml:space="preserve">
<g>
	<path fill="#231F20" d="M15.5,59.5c0.324,0,0.627-0.157,0.815-0.42l14.261-20.037l14.195,15.141
		C44.963,54.39,45.229,54.5,45.5,54.5c0.123,0,0.248-0.023,0.368-0.07C46.25,54.279,46.5,53.91,46.5,53.5v-6h6
		c0.398,0,0.758-0.236,0.917-0.602c0.159-0.365,0.086-0.79-0.186-1.081L39.03,30.601l20.05-14.286
		c0.264-0.188,0.42-0.491,0.42-0.815c-0.003-5.046-9.956-15-15-15c-0.323,0-0.627,0.156-0.815,0.419L29.002,21.523
		c-1.921,0.215-3.702,1.063-5.09,2.451c-1.374,1.374-2.217,3.133-2.442,5.033L0.919,43.686C0.656,43.874,0.5,44.177,0.5,44.5
		C0.5,49.547,10.453,59.5,15.5,59.5z M45.5,45.5c-0.552,0-1,0.448-1,1v4.471L32.531,38.204c1.304-0.407,2.499-1.123,3.493-2.117
		c1.015-1.015,1.717-2.225,2.115-3.51L50.199,45.5H45.5z M44.985,2.542c3.938,0.644,11.827,8.532,12.472,12.473L38.402,28.593
		c-0.233-1.381-0.803-2.714-1.713-3.867l3.519-3.519c0.391-0.391,0.391-1.023,0-1.414c-0.391-0.391-1.023-0.391-1.414,0
		l-3.519,3.519c-1.13-0.895-2.452-1.48-3.866-1.719L44.985,2.542z M25.326,25.388c1.24-1.24,2.889-1.923,4.642-1.923
		c1.753,0,3.403,0.683,4.644,1.923c2.559,2.56,2.558,6.726-0.002,9.285c-1.058,1.057-2.413,1.704-3.875,1.874
		c-0.209-0.051-0.424-0.044-0.625,0.042c-0.048,0.001-0.095,0.007-0.142,0.007c-1.753,0-3.401-0.683-4.642-1.923
		c-1.24-1.24-1.923-2.889-1.923-4.643c0-0.055,0.007-0.108,0.008-0.163c0.081-0.202,0.104-0.419,0.045-0.632
		C23.63,27.783,24.276,26.438,25.326,25.388z M21.525,31.426c0.233,1.43,0.821,2.768,1.725,3.909l-3.457,3.458
		c-0.391,0.391-0.391,1.024,0,1.414c0.195,0.195,0.451,0.293,0.707,0.293s0.512-0.098,0.707-0.293l3.457-3.458
		c1.13,0.895,2.452,1.48,3.865,1.718L15.014,57.458c-3.941-0.644-11.829-8.533-12.472-12.473L21.525,31.426z"/>
</g>
</svg>
