<?xml version="1.0" encoding="utf-8"?>
<!-- Generator: Adobe Illustrator 17.0.0, SVG Export Plug-In . SVG Version: 6.00 Build 0)  -->
<!DOCTYPE svg PUBLIC "-//W3C//DTD SVG 1.1//EN" "http://www.w3.org/Graphics/SVG/1.1/DTD/svg11.dtd">
<svg version="1.1" id="Layer_1" xmlns="http://www.w3.org/2000/svg" xmlns:xlink="http://www.w3.org/1999/xlink" x="0px" y="0px"
	 width="60px" height="60px" viewBox="0 0 60 60" enable-background="new 0 0 60 60" xml:space="preserve">
<g>
	<path fill="#231F20" d="M39.643,26.766c0.341-0.286,0.451-0.761,0.272-1.168l-3.658-8.323l6.396-5.517
		c0.316-0.273,0.43-0.714,0.284-1.106C42.792,10.26,42.418,10,42,10h-8.256l-2.786-9.287C30.831,0.29,30.441,0,30,0
		s-0.831,0.29-0.958,0.713L26.256,10H18c-0.421,0-0.796,0.263-0.94,0.658c-0.143,0.395-0.025,0.838,0.297,1.108l6.426,5.388
		l-3.699,8.444c-0.178,0.407-0.066,0.882,0.273,1.167C20.542,26.921,20.771,27,21,27c0.192,0,0.386-0.056,0.555-0.168L30,21.202
		l8.445,5.63C38.815,27.078,39.303,27.051,39.643,26.766z M30.555,19.168c-0.336-0.224-0.773-0.224-1.109,0l-6.159,4.106l2.63-6.003
		c0.178-0.407,0.066-0.882-0.273-1.167L20.749,12H27c0.441,0,0.831-0.29,0.958-0.713L30,4.48l2.042,6.807
		C32.169,11.71,32.559,12,33,12h6.31l-4.919,4.243c-0.332,0.287-0.438,0.757-0.262,1.16l2.579,5.868L30.555,19.168z"/>
	<path fill="#231F20" d="M59,42h-8.256l-2.786-9.287C47.831,32.29,47.441,32,47,32s-0.831,0.29-0.958,0.713L43.256,42H35
		c-0.421,0-0.796,0.263-0.94,0.658c-0.143,0.395-0.025,0.838,0.297,1.108l6.426,5.388l-3.699,8.444
		c-0.178,0.407-0.066,0.882,0.273,1.167C37.542,58.921,37.771,59,38,59c0.192,0,0.386-0.056,0.555-0.168L47,53.202l8.445,5.63
		c0.37,0.246,0.858,0.22,1.197-0.066c0.341-0.286,0.451-0.761,0.272-1.168l-3.658-8.323l6.396-5.517
		c0.316-0.273,0.43-0.714,0.284-1.106C59.792,42.26,59.418,42,59,42z M51.391,48.243c-0.332,0.287-0.438,0.757-0.262,1.16
		l2.579,5.868l-6.153-4.102c-0.336-0.224-0.773-0.224-1.109,0l-6.159,4.106l2.63-6.003c0.178-0.407,0.066-0.882-0.273-1.167
		L37.749,44H44c0.441,0,0.831-0.29,0.958-0.713L47,36.48l2.042,6.807C49.169,43.71,49.559,44,50,44h6.31L51.391,48.243z"/>
	<path fill="#231F20" d="M25,42h-8.256l-2.786-9.287C13.831,32.29,13.441,32,13,32s-0.831,0.29-0.958,0.713L9.256,42H1
		c-0.421,0-0.796,0.263-0.94,0.658c-0.143,0.395-0.025,0.838,0.297,1.108l6.426,5.388l-3.699,8.444
		c-0.178,0.407-0.066,0.882,0.273,1.167C3.542,58.921,3.771,59,4,59c0.192,0,0.386-0.056,0.555-0.168L13,53.202l8.445,5.63
		c0.369,0.246,0.857,0.22,1.197-0.066c0.341-0.286,0.451-0.761,0.272-1.168l-3.658-8.323l6.396-5.517
		c0.316-0.273,0.43-0.714,0.284-1.106C25.792,42.26,25.418,42,25,42z M17.391,48.243c-0.332,0.287-0.438,0.757-0.262,1.16
		l2.579,5.868l-6.153-4.102c-0.336-0.224-0.773-0.224-1.109,0l-6.159,4.106l2.63-6.003c0.178-0.407,0.066-0.882-0.273-1.167
		L3.749,44H10c0.441,0,0.831-0.29,0.958-0.713L13,36.48l2.042,6.807C15.169,43.71,15.559,44,16,44h6.31L17.391,48.243z"/>
</g>
</svg>
