<?xml version="1.0" encoding="utf-8"?>
<!-- Generator: Adobe Illustrator 17.0.0, SVG Export Plug-In . SVG Version: 6.00 Build 0)  -->
<!DOCTYPE svg PUBLIC "-//W3C//DTD SVG 1.1//EN" "http://www.w3.org/Graphics/SVG/1.1/DTD/svg11.dtd">
<svg version="1.1" id="Layer_1" xmlns="http://www.w3.org/2000/svg" xmlns:xlink="http://www.w3.org/1999/xlink" x="0px" y="0px"
	 width="60px" height="60px" viewBox="0 0 60 60" enable-background="new 0 0 60 60" xml:space="preserve">
<g>
	<path fill="#231F20" d="M30.077,10.615L25.333,22H15c-0.393,0-0.75,0.23-0.911,0.588c-0.162,0.358-0.099,0.778,0.161,1.073
		l8.044,9.127L19.03,45.756c-0.103,0.408,0.061,0.837,0.41,1.073c0.348,0.234,0.807,0.227,1.148-0.02L31,39.236l10.412,7.572
		C41.587,46.936,41.794,47,42,47c0.196,0,0.393-0.058,0.562-0.173c0.349-0.237,0.511-0.668,0.406-1.077l-3.345-12.961l8.124-9.124
		c0.262-0.294,0.327-0.715,0.166-1.074C47.751,22.231,47.394,22,47,22H36.667l-4.744-11.385C31.768,10.243,31.404,10,31,10
		S30.232,10.243,30.077,10.615z M35.077,23.385C35.232,23.757,35.596,24,36,24h8.771l-6.996,7.857
		c-0.222,0.249-0.305,0.592-0.221,0.915l2.782,10.781l-8.747-6.362c-0.351-0.255-0.826-0.255-1.177,0l-8.768,6.377l2.718-10.803
		c0.081-0.32-0.001-0.658-0.219-0.905L17.214,24H26c0.404,0,0.768-0.243,0.923-0.615L31,13.6L35.077,23.385z"/>
	<path fill="#231F20" d="M55.476,13.12l-24.044-13c-0.298-0.161-0.656-0.16-0.953,0.001l-23.957,13C6.201,13.296,6,13.633,6,14v41
		c0,0.552,0.448,1,1,1h48c0.552,0,1-0.448,1-1V14C56,13.633,55.799,13.295,55.476,13.12z M54,54H8V14.595L30.958,2.137L54,14.596V54
		z"/>
	<path fill="#231F20" d="M54.913,58H7c-0.552,0-1,0.448-1,1s0.448,1,1,1h47.913c0.552,0,1-0.448,1-1S55.465,58,54.913,58z"/>
</g>
</svg>
