<?xml version="1.0" encoding="utf-8"?>
<!-- Generator: Adobe Illustrator 17.0.0, SVG Export Plug-In . SVG Version: 6.00 Build 0)  -->
<!DOCTYPE svg PUBLIC "-//W3C//DTD SVG 1.1//EN" "http://www.w3.org/Graphics/SVG/1.1/DTD/svg11.dtd">
<svg version="1.1" id="Layer_1" xmlns="http://www.w3.org/2000/svg" xmlns:xlink="http://www.w3.org/1999/xlink" x="0px" y="0px"
	 width="60px" height="60px" viewBox="0 0 60 60" enable-background="new 0 0 60 60" xml:space="preserve">
<g>
	<path fill="#231F20" d="M48,24H35.687l-4.753-12.359C30.785,11.255,30.414,11,30,11s-0.785,0.255-0.934,0.641L24.313,24H12
		c-0.414,0-0.785,0.255-0.934,0.642c-0.148,0.387-0.043,0.825,0.265,1.102l9.536,8.582l-3.829,13.399
		c-0.118,0.413,0.041,0.855,0.395,1.099c0.354,0.244,0.823,0.234,1.167-0.024L30,40.25l11.4,8.55c0.178,0.133,0.389,0.2,0.6,0.2
		c0.198,0,0.396-0.059,0.567-0.176c0.354-0.244,0.513-0.686,0.395-1.099l-3.829-13.399l9.536-8.582
		c0.308-0.277,0.413-0.715,0.265-1.102C48.785,24.255,48.414,24,48,24z M37.331,33.257c-0.284,0.255-0.398,0.65-0.293,1.018
		l3.183,11.142L30.6,38.2C30.422,38.067,30.211,38,30,38s-0.422,0.067-0.6,0.2l-9.622,7.216l3.183-11.142
		c0.105-0.368-0.008-0.763-0.293-1.018L14.606,26H25c0.414,0,0.785-0.255,0.934-0.641L30,14.786l4.066,10.573
		C34.215,25.745,34.586,26,35,26h10.394L37.331,33.257z"/>
	<path fill="#231F20" d="M49,0H11C4.831,0,0,4.831,0,11v38c0,6.169,4.831,11,11,11h38c6.169,0,11-4.831,11-11V11
		C60,4.831,55.169,0,49,0z M58,49c0,5.047-3.953,9-9,9H11c-5.047,0-9-3.953-9-9V11c0-5.047,3.953-9,9-9h38c5.047,0,9,3.953,9,9V49z"
		/>
</g>
</svg>
