<?xml version="1.0" encoding="utf-8"?>
<!-- Generator: Adobe Illustrator 17.0.0, SVG Export Plug-In . SVG Version: 6.00 Build 0)  -->
<!DOCTYPE svg PUBLIC "-//W3C//DTD SVG 1.1//EN" "http://www.w3.org/Graphics/SVG/1.1/DTD/svg11.dtd">
<svg version="1.1" id="Layer_1" xmlns="http://www.w3.org/2000/svg" xmlns:xlink="http://www.w3.org/1999/xlink" x="0px" y="0px"
	 width="60px" height="60px" viewBox="0 0 60 60" enable-background="new 0 0 60 60" xml:space="preserve">
<g>
	<path fill="#231F20" d="M42,24h-8.279l-2.729-8.186c-0.136-0.407-0.516-0.682-0.944-0.684c-0.002,0-0.003,0-0.004,0
		c-0.427,0-0.807,0.271-0.946,0.675L26.286,24H17c-0.431,0-0.812,0.275-0.949,0.684c-0.136,0.409,0.004,0.858,0.349,1.116
		l7.387,5.541l-3.716,9.288c-0.162,0.406-0.042,0.87,0.296,1.146c0.338,0.277,0.816,0.3,1.183,0.06l8.491-5.592l8.405,5.59
		C38.615,41.945,38.808,42,39,42c0.224,0,0.448-0.075,0.63-0.224c0.34-0.276,0.461-0.741,0.298-1.148l-3.734-9.335l6.457-5.534
		c0.318-0.273,0.432-0.714,0.287-1.107C42.792,24.261,42.419,24,42,24z M34.349,30.241c-0.325,0.279-0.437,0.733-0.278,1.131
		l2.807,7.016l-6.281-4.177c-0.334-0.223-0.769-0.223-1.104-0.002l-6.38,4.203l2.816-7.04c0.167-0.42,0.033-0.9-0.329-1.171L20,26h7
		c0.427,0,0.807-0.271,0.946-0.675l2.084-6.073l2.021,6.065C32.188,25.725,32.569,26,33,26h6.297L34.349,30.241z"/>
	<path fill="#231F20" d="M54,0H6.087c-0.552,0-1,0.448-1,1v18.319c0,17.072,9.384,32.616,24.491,40.565
		C29.724,59.961,29.883,60,30.044,60c0.16,0,0.32-0.039,0.466-0.115C45.616,51.935,55,36.391,55,19.319V1C55,0.448,54.552,0,54,0z
		 M53,2v6H7.087V2H53z M30.044,57.866C15.87,50.191,7.087,35.47,7.087,19.319V10H53v9.319C53,35.47,44.217,50.19,30.044,57.866z"/>
</g>
</svg>
