<?xml version="1.0" encoding="utf-8"?>
<!-- Generator: Adobe Illustrator 17.0.0, SVG Export Plug-In . SVG Version: 6.00 Build 0)  -->
<!DOCTYPE svg PUBLIC "-//W3C//DTD SVG 1.1//EN" "http://www.w3.org/Graphics/SVG/1.1/DTD/svg11.dtd">
<svg version="1.1" id="Layer_1" xmlns="http://www.w3.org/2000/svg" xmlns:xlink="http://www.w3.org/1999/xlink" x="0px" y="0px"
	 width="60px" height="60px" viewBox="0 0 60 60" enable-background="new 0 0 60 60" xml:space="preserve">
<g>
	<path fill="#231F20" d="M48,24H35.667l-4.744-11.385C30.768,12.243,30.403,12,30,12c-0.403,0-0.768,0.243-0.923,0.615L24.333,24H12
		c-0.42,0-0.796,0.263-0.94,0.657c-0.143,0.395-0.026,0.837,0.296,1.108l9.926,8.354l-4.237,13.582
		c-0.129,0.414,0.023,0.864,0.378,1.115c0.355,0.25,0.831,0.245,1.177-0.017L30,40.25l11.4,8.55c0.177,0.133,0.389,0.2,0.6,0.2
		c0.202,0,0.403-0.061,0.577-0.183c0.354-0.25,0.507-0.701,0.378-1.115L38.718,34.12l9.926-8.354
		c0.322-0.271,0.439-0.713,0.296-1.108C48.796,24.263,48.42,24,48,24z M36.922,33.018c-0.309,0.259-0.431,0.678-0.312,1.063
		l3.514,11.262L30.6,38.2C30.422,38.067,30.211,38,30,38c-0.211,0-0.422,0.067-0.6,0.2l-9.524,7.143l3.514-11.262
		c0.119-0.385-0.003-0.804-0.312-1.063L14.741,26H25c0.403,0,0.768-0.243,0.923-0.615L30,15.6l4.077,9.785
		C34.232,25.757,34.597,26,35,26h10.259L36.922,33.018z"/>
	<path fill="#231F20" d="M30,0C13.458,0,0,13.458,0,30s13.458,30,30,30s30-13.458,30-30S46.542,0,30,0z M30,58
		C14.56,58,2,45.44,2,30S14.56,2,30,2c15.439,0,28,12.56,28,28S45.439,58,30,58z"/>
</g>
</svg>
