<?xml version="1.0" encoding="utf-8"?>
<!-- Generator: Adobe Illustrator 17.0.0, SVG Export Plug-In . SVG Version: 6.00 Build 0)  -->
<!DOCTYPE svg PUBLIC "-//W3C//DTD SVG 1.1//EN" "http://www.w3.org/Graphics/SVG/1.1/DTD/svg11.dtd">
<svg version="1.1" id="Layer_1" xmlns="http://www.w3.org/2000/svg" xmlns:xlink="http://www.w3.org/1999/xlink" x="0px" y="0px"
	 width="48px" height="48px" viewBox="0 0 48 48" enable-background="new 0 0 48 48" xml:space="preserve">
<g>
	<path fill="#231F20" d="M24.084,16c-8.822,0-16,7.178-16,16s7.178,16,16,16c8.822,0,16-7.178,16-16S32.906,16,24.084,16z
		 M24.084,46c-7.72,0-14-6.28-14-14s6.28-14,14-14c7.72,0,14,6.28,14,14S31.804,46,24.084,46z"/>
	<path fill="#231F20" d="M33.084,28h-5.382l-2.723-5.447c-0.34-0.678-1.449-0.678-1.789,0L20.466,28h-5.382
		c-0.425,0-0.803,0.268-0.943,0.669c-0.141,0.401-0.013,0.847,0.318,1.112l4.48,3.584l-1.817,6.36
		c-0.114,0.398,0.03,0.825,0.36,1.074c0.332,0.249,0.78,0.268,1.132,0.049l5.47-3.42l5.47,3.42C29.717,40.95,29.9,41,30.084,41
		c0.212,0,0.424-0.067,0.601-0.201c0.33-0.249,0.473-0.676,0.36-1.074l-1.817-6.36l4.481-3.584c0.331-0.265,0.459-0.711,0.318-1.112
		C33.887,28.268,33.509,28,33.084,28z M27.459,32.219c-0.315,0.252-0.447,0.668-0.337,1.056l1.285,4.498l-3.793-2.372
		c-0.162-0.101-0.346-0.152-0.53-0.152c-0.184,0-0.368,0.05-0.53,0.152l-3.793,2.372l1.285-4.498
		c0.11-0.388-0.023-0.804-0.337-1.056L17.935,30h3.149c0.379,0,0.725-0.214,0.894-0.553l2.106-4.212l2.105,4.212
		C26.359,29.786,26.705,30,27.084,30h3.149L27.459,32.219z"/>
	<path fill="#231F20" d="M46.931,0.467C46.747,0.177,46.428,0,46.084,0h-5h-5c-0.386,0-0.737,0.222-0.903,0.57l-5.724,12.02
		c-0.237,0.499-0.025,1.096,0.474,1.333c0.5,0.237,1.096,0.025,1.333-0.473L36.716,2h2.788l-5.928,12.512
		c-0.237,0.499-0.023,1.096,0.476,1.332c0.003,0.002,0.007,0.001,0.01,0.002c0.13,0.06,0.265,0.087,0.399,0.09
		c0.006,0,0.012,0.004,0.018,0.004c0.106,0,0.21-0.021,0.309-0.054c0.03-0.01,0.055-0.025,0.084-0.037
		c0.079-0.034,0.152-0.077,0.22-0.131c0.028-0.022,0.055-0.042,0.08-0.067c0.081-0.079,0.153-0.168,0.205-0.276
		c0.002-0.003,0.004-0.005,0.006-0.008L41.717,2h2.778L37.16,17.277c-0.239,0.498-0.029,1.095,0.469,1.334
		c0.14,0.068,0.288,0.099,0.432,0.099c0.374,0,0.731-0.209,0.904-0.568l8.021-16.71C47.134,1.123,47.114,0.758,46.931,0.467z"/>
	<path fill="#231F20" d="M10.021,18.71c0.145,0,0.292-0.031,0.432-0.099c0.498-0.239,0.708-0.836,0.469-1.334L3.589,2h2.778
		l4.167,8.796l2.165,4.572c0.054,0.113,0.13,0.206,0.216,0.288c0.022,0.021,0.044,0.037,0.067,0.056
		c0.075,0.06,0.156,0.108,0.243,0.144c0.022,0.009,0.041,0.021,0.063,0.028c0.101,0.034,0.206,0.056,0.315,0.056
		c0.007,0,0.014-0.005,0.021-0.005c0.137-0.003,0.274-0.03,0.406-0.092c0.499-0.236,0.713-0.832,0.476-1.332L8.58,2h2.788
		l5.452,11.45c0.238,0.498,0.833,0.71,1.333,0.473c0.499-0.237,0.711-0.834,0.474-1.333L12.903,0.57C12.737,0.222,12.386,0,12,0H7H2
		C1.656,0,1.337,0.176,1.153,0.467C0.971,0.758,0.95,1.123,1.099,1.433l8.02,16.71C9.291,18.501,9.648,18.71,10.021,18.71z"/>
</g>
</svg>
