<?xml version="1.0" encoding="utf-8"?>
<!-- Generator: Adobe Illustrator 17.1.0, SVG Export Plug-In . SVG Version: 6.00 Build 0)  -->
<!DOCTYPE svg PUBLIC "-//W3C//DTD SVG 1.0//EN" "http://www.w3.org/TR/2001/REC-SVG-20010904/DTD/svg10.dtd">
<svg version="1.0" id="Layer_1" xmlns="http://www.w3.org/2000/svg" xmlns:xlink="http://www.w3.org/1999/xlink" x="0px" y="0px"
	 width="48px" height="48px" viewBox="0 0 48 48" enable-background="new 0 0 48 48" xml:space="preserve">
<g>
	<path d="M37.949,29.684C37.813,29.275,37.431,29,37,29h-9.236l-2.799-10.263C24.846,18.302,24.451,18,24,18
		c-0.451,0-0.846,0.302-0.965,0.737L20.236,29H11c-0.431,0-0.812,0.275-0.949,0.684c-0.136,0.408,0.004,0.858,0.349,1.116
		l7.387,5.54l-3.716,9.289c-0.168,0.42-0.033,0.899,0.328,1.17c0.36,0.271,0.859,0.268,1.215-0.01L24,40.267l8.386,6.522
		C32.566,46.929,32.783,47,33,47c0.211,0,0.423-0.067,0.601-0.201c0.361-0.271,0.495-0.751,0.328-1.17l-3.716-9.289L37.6,30.8
		C37.944,30.542,38.085,30.092,37.949,29.684z M28.4,35.2c-0.362,0.271-0.496,0.752-0.329,1.171l2.629,6.574l-6.087-4.734
		C24.434,38.07,24.217,38,24,38c-0.217,0-0.434,0.07-0.614,0.21l-6.087,4.734l2.629-6.574c0.167-0.419,0.033-0.9-0.329-1.171L14,31
		h7c0.451,0,0.846-0.302,0.965-0.737L24,22.8l2.035,7.463C26.154,30.698,26.549,31,27,31h7L28.4,35.2z"/>
	<path d="M17.187,23.982c0.543-0.104,0.898-0.627,0.795-1.169L14.209,3H20v12c0,0.552,0.448,1,1,1c0.552,0,1-0.448,1-1V3h4v12
		c0,0.552,0.448,1,1,1c0.552,0,1-0.448,1-1V3h5.791l-3.774,19.813c-0.103,0.543,0.253,1.066,0.795,1.169
		C30.876,23.994,30.939,24,31.001,24c0.471,0,0.89-0.333,0.981-0.813l4-21c0.056-0.293-0.022-0.595-0.212-0.825
		C35.581,1.133,35.298,1,35,1H13c-0.298,0-0.581,0.133-0.771,0.362c-0.19,0.229-0.268,0.532-0.212,0.825l4,21
		C16.121,23.729,16.647,24.086,17.187,23.982z"/>
</g>
</svg>
