<?xml version="1.0" encoding="utf-8"?>
<!-- Generator: Adobe Illustrator 17.0.0, SVG Export Plug-In . SVG Version: 6.00 Build 0)  -->
<!DOCTYPE svg PUBLIC "-//W3C//DTD SVG 1.1//EN" "http://www.w3.org/Graphics/SVG/1.1/DTD/svg11.dtd">
<svg version="1.1" id="Layer_1" xmlns="http://www.w3.org/2000/svg" xmlns:xlink="http://www.w3.org/1999/xlink" x="0px" y="0px"
	 width="48px" height="48px" viewBox="0 0 48 48" enable-background="new 0 0 48 48" xml:space="preserve">
<g>
	<path fill="#231F20" d="M47.543,40.463L40.53,28.335C42.095,25.575,43,22.394,43,19C43,8.523,34.477,0,24,0S5,8.523,5,19
		c0,3.28,0.836,6.368,2.305,9.064l-7.17,12.399c-0.194,0.336-0.177,0.753,0.044,1.071s0.607,0.482,0.988,0.416l6.878-1.164
		l2.386,6.556c0.132,0.363,0.461,0.618,0.846,0.654C11.309,47.999,11.34,48,11.371,48c0.35,0,0.678-0.184,0.859-0.488l6.166-10.357
		C20.168,37.703,22.05,38,24,38c1.85,0,3.633-0.278,5.325-0.773l6.121,10.284C35.628,47.816,35.955,48,36.305,48
		c0.031,0,0.063-0.001,0.096-0.004c0.385-0.036,0.714-0.291,0.846-0.654l2.386-6.556l6.878,1.164
		c0.387,0.065,0.767-0.098,0.988-0.416C47.72,41.215,47.737,40.798,47.543,40.463z M11.59,44.677l-1.95-5.358
		c-0.166-0.454-0.63-0.726-1.107-0.644l-5.602,0.948l5.583-9.654c2.008,2.826,4.758,5.086,7.976,6.477L11.59,44.677z M7,19
		C7,9.626,14.626,2,24,2s17,7.626,17,17s-7.626,17-17,17S7,28.374,7,19z M39.144,38.674c-0.476-0.081-0.941,0.19-1.107,0.644
		l-1.95,5.358l-4.834-8.122c3.234-1.341,6.006-3.557,8.052-6.343l5.442,9.41L39.144,38.674z"/>
	<path fill="#231F20" d="M33,15h-5.382l-2.723-5.447c-0.339-0.678-1.45-0.678-1.789,0L20.382,15H15
		c-0.425,0-0.803,0.268-0.944,0.669c-0.14,0.401-0.013,0.847,0.319,1.112l4.48,3.584l-1.817,6.36
		c-0.114,0.398,0.03,0.825,0.36,1.074c0.331,0.249,0.781,0.267,1.132,0.049l5.47-3.42l5.47,3.42C29.632,27.95,29.816,28,30,28
		c0.212,0,0.424-0.067,0.602-0.201c0.331-0.249,0.474-0.676,0.36-1.074l-1.817-6.36l4.48-3.584c0.332-0.265,0.459-0.711,0.319-1.112
		C33.803,15.268,33.425,15,33,15z M27.375,19.219c-0.315,0.252-0.448,0.668-0.337,1.056l1.285,4.498l-3.793-2.372
		c-0.162-0.101-0.346-0.152-0.53-0.152s-0.368,0.05-0.53,0.151l-3.793,2.373l1.285-4.498c0.111-0.388-0.022-0.804-0.337-1.056
		L17.851,17H21c0.379,0,0.725-0.214,0.894-0.553L24,12.236l2.105,4.211C26.275,16.786,26.621,17,27,17h3.149L27.375,19.219z"/>
</g>
</svg>
