<?xml version="1.0" encoding="utf-8"?>
<!-- Generator: Adobe Illustrator 17.0.0, SVG Export Plug-In . SVG Version: 6.00 Build 0)  -->
<!DOCTYPE svg PUBLIC "-//W3C//DTD SVG 1.1//EN" "http://www.w3.org/Graphics/SVG/1.1/DTD/svg11.dtd">
<svg version="1.1" id="Layer_1" xmlns="http://www.w3.org/2000/svg" xmlns:xlink="http://www.w3.org/1999/xlink" x="0px" y="0px"
	 width="48px" height="48px" viewBox="0 0 48 48" enable-background="new 0 0 48 48" xml:space="preserve">
<g>
	<path fill="#231F20" d="M48,17.834c0-2.206-1.794-4-4-4s-4,1.794-4,4c0,1.787,1.185,3.285,2.804,3.797
		C42.145,23.885,39.821,30,34,30c-5.888,0-8.215-9.098-8.83-12.153C27.362,17.318,29,15.352,29,13c0-2.757-2.243-5-5-5s-5,2.243-5,5
		c0,2.352,1.638,4.318,3.83,4.847C22.215,20.902,19.888,30,14,30c-6.034,0-8.274-6.401-8.852-8.522C6.792,20.981,8,19.47,8,17.666
		c0-2.206-1.794-4-4-4s-4,1.794-4,4c0,1.889,1.32,3.467,3.083,3.884l3.933,21.629C7.103,43.654,7.517,44,8,44h32
		c0.483,0,0.897-0.346,0.984-0.821l3.9-21.451C46.665,21.324,48,19.735,48,17.834z M21,13c0-1.654,1.346-3,3-3s3,1.346,3,3
		s-1.346,3-3,3S21,14.654,21,13z M2,17.666c0-1.103,0.897-2,2-2s2,0.897,2,2c0,1.103-0.897,2-2,2S2,18.769,2,17.666z M39.165,42
		H8.834L6.318,28.159C8.006,30.25,10.473,32,14,32c5.771,0,8.669-6.175,10-10.569C25.331,25.825,28.229,32,34,32
		c3.527,0,5.994-1.75,7.682-3.841L39.165,42z M44,19.834c-1.103,0-2-0.897-2-2c0-1.103,0.897-2,2-2s2,0.897,2,2
		C46,18.937,45.103,19.834,44,19.834z"/>
	<path fill="#231F20" d="M40,46H8c-0.552,0-1,0.448-1,1s0.448,1,1,1h32c0.552,0,1-0.448,1-1S40.552,46,40,46z"/>
</g>
</svg>
