<?xml version="1.0" encoding="utf-8"?>
<!-- Generator: Adobe Illustrator 17.0.0, SVG Export Plug-In . SVG Version: 6.00 Build 0)  -->
<!DOCTYPE svg PUBLIC "-//W3C//DTD SVG 1.1//EN" "http://www.w3.org/Graphics/SVG/1.1/DTD/svg11.dtd">
<svg version="1.1" id="Layer_1" xmlns="http://www.w3.org/2000/svg" xmlns:xlink="http://www.w3.org/1999/xlink" x="0px" y="0px"
	 width="48px" height="48px" viewBox="0 0 48 48" enable-background="new 0 0 48 48" xml:space="preserve">
<path fill="#231F20" d="M43.895,40.446C46.486,38.009,48,34.62,48,31c0-7.168-5.832-13-13-13c-1.899,0-3.784,0.44-5.496,1.24
	C28.117,18.588,26.6,18.173,25,18.051V15.91c2.833-0.478,5-2.942,5-5.91c0-3.309-2.691-6-6-6s-6,2.691-6,6
	c0,2.968,2.167,5.432,5,5.91v2.141c-1.6,0.123-3.116,0.537-4.503,1.189C16.772,18.429,14.929,18,13,18C5.832,18,0,23.832,0,31
	c0,3.62,1.514,7.009,4.104,9.445c-1.366,0.698-2.082,2.126-2.082,3.554C2.022,45.987,3.389,48,6,48h36
	c2.611,0,3.977-2.012,3.977-3.999C45.977,42.573,45.261,41.144,43.895,40.446z M24,6c1.859,0,3.411,1.279,3.858,3h-7.716
	C20.589,7.279,22.141,6,24,6z M20.142,11h7.716c-0.447,1.721-1.999,3-3.858,3S20.589,12.721,20.142,11z M2,31
	c0-6.065,4.935-11,11-11c1.148,0,2.258,0.19,3.327,0.53C13.104,22.898,11,26.704,11,31c0,1.479,0.247,2.93,0.734,4.313
	c0.183,0.521,0.752,0.795,1.275,0.611c0.52-0.183,0.795-0.754,0.611-1.275C13.209,33.481,13,32.252,13,31c0-6.065,4.935-11,11-11
	s11,4.935,11,11c0,1.278-0.218,2.53-0.647,3.72c-0.187,0.52,0.082,1.092,0.602,1.28c0.111,0.04,0.227,0.06,0.339,0.06
	c0.409,0,0.794-0.254,0.94-0.662C36.742,33.99,37,32.51,37,31c0-4.296-2.104-8.101-5.326-10.47C32.742,20.19,33.852,20,35,20
	c6.065,0,11,4.935,11,11c0,3.593-1.744,6.936-4.68,9H6.681C3.744,37.936,2,34.593,2,31z M42,46H6c-1.46,0-1.978-1.078-1.978-2.001
	C4.022,43.077,4.54,42,6,42h0.07h35.86H42c1.46,0,1.977,1.078,1.977,2.001C43.977,44.923,43.46,46,42,46z"/>
</svg>
