<?xml version="1.0" encoding="utf-8"?>
<!-- Generator: Adobe Illustrator 17.0.0, SVG Export Plug-In . SVG Version: 6.00 Build 0)  -->
<!DOCTYPE svg PUBLIC "-//W3C//DTD SVG 1.1//EN" "http://www.w3.org/Graphics/SVG/1.1/DTD/svg11.dtd">
<svg version="1.1" id="Layer_1" xmlns="http://www.w3.org/2000/svg" xmlns:xlink="http://www.w3.org/1999/xlink" x="0px" y="0px"
	 width="48px" height="48px" viewBox="0 0 48 48" enable-background="new 0 0 48 48" xml:space="preserve">
<g>
	<path fill="#231F20" d="M18.551,0.069c-0.414-0.162-0.892-0.03-1.163,0.327c-0.271,0.358-0.271,0.852,0,1.209
		c4.972,6.556,5.25,16.897,0.814,22.858c-1.033-1.438-1.688-2.944-2.038-4.662c-0.067-0.333-0.299-0.608-0.614-0.732
		c-0.316-0.124-0.673-0.079-0.947,0.118c-5.667,4.06-7.949,10.975-5.815,17.617C10.973,43.606,17.016,48,24.185,48
		c7.982,0,13.434-4.62,14.961-12.676C41.46,23.118,33.736,6.04,18.551,0.069z M37.181,34.951C35.85,41.973,31.114,46,24.185,46
		c-6.282,0-11.579-3.85-13.493-9.807c-1.381-4.297-0.995-10.197,3.912-14.462c0.578,1.795,1.508,3.434,2.819,4.976
		c0.187,0.219,0.459,0.348,0.746,0.352c0.006,0,0.011,0,0.016,0c0.282,0,0.552-0.12,0.741-0.329
		c5.111-5.65,5.742-15.867,1.875-23.426C33.082,9.826,39.189,24.357,37.181,34.951z"/>
	<path fill="#231F20" d="M25.185,28c-0.355,0-0.683,0.189-0.863,0.495c-0.179,0.307-0.183,0.685-0.009,0.995
		c0.708,1.261,0.091,2.685-0.34,3.421c-0.981,1.677-2.866,3.041-4.201,3.041c-0.128,0-0.248-0.013-0.358-0.039
		c-0.324-0.075-0.672,0.017-0.916,0.248c-0.245,0.232-0.357,0.57-0.297,0.902C18.713,39.923,21.192,42,24.096,42
		c3.262,0,5.897-2.622,6-5.97c0.065-2.21-0.429-5.154-2.016-6.789C27.293,28.429,26.291,28,25.185,28z M24.096,40
		c-1.513,0-2.852-0.846-3.527-2.126c1.88-0.358,3.936-1.911,5.132-3.953c0.653-1.117,0.968-2.238,0.939-3.293
		c0.002,0.002,0.004,0.004,0.006,0.006c0.949,0.978,1.518,3.073,1.45,5.336C28.028,38.23,26.271,40,24.096,40z"/>
</g>
</svg>
