<?xml version="1.0" encoding="utf-8"?>
<!-- Generator: Adobe Illustrator 17.0.0, SVG Export Plug-In . SVG Version: 6.00 Build 0)  -->
<!DOCTYPE svg PUBLIC "-//W3C//DTD SVG 1.1//EN" "http://www.w3.org/Graphics/SVG/1.1/DTD/svg11.dtd">
<svg version="1.1" id="Layer_1" xmlns="http://www.w3.org/2000/svg" xmlns:xlink="http://www.w3.org/1999/xlink" x="0px" y="0px"
	 width="48px" height="48px" viewBox="0 0 48 48" enable-background="new 0 0 48 48" xml:space="preserve">
<g>
	<path fill="#231F20" d="M47.514,32.13L33.601,21L47.625,9.781c0.332-0.265,0.459-0.711,0.319-1.112C47.803,8.268,47.425,8,47,8H26
		V3c0-0.552-0.448-1-1-1H11c-0.552,0-1,0.448-1,1v24c0,0.552,0.448,1,1,1h6v5c0,0.552,0.448,1,1,1h29c0.007,0,0.013,0,0.02,0
		c0.552,0,1-0.448,1.001-1C48.021,32.627,47.817,32.302,47.514,32.13z M12,4h12v5v17H12V4z M19.164,32
		c0.978-2.89,5.991-4.01,6.047-4.022c0.034-0.007,0.061-0.029,0.094-0.04c0.055-0.018,0.106-0.039,0.157-0.066
		c0.062-0.033,0.116-0.07,0.169-0.114c0.043-0.036,0.082-0.071,0.118-0.113c0.045-0.053,0.081-0.109,0.114-0.169
		c0.027-0.048,0.052-0.095,0.071-0.148c0.024-0.068,0.034-0.139,0.043-0.212C25.981,27.076,26,27.041,26,27V10h18.149L31.375,20.219
		C31.138,20.409,31,20.696,31,21s0.138,0.591,0.375,0.781L44.149,32H19.164z"/>
	<path fill="#231F20" d="M7,0C6.448,0,6,0.448,6,1v46c0,0.552,0.448,1,1,1s1-0.448,1-1V1C8,0.448,7.552,0,7,0z"/>
</g>
</svg>
