<?xml version="1.0" encoding="utf-8"?>
<!-- Generator: Adobe Illustrator 17.0.0, SVG Export Plug-In . SVG Version: 6.00 Build 0)  -->
<!DOCTYPE svg PUBLIC "-//W3C//DTD SVG 1.1//EN" "http://www.w3.org/Graphics/SVG/1.1/DTD/svg11.dtd">
<svg version="1.1" id="Layer_1" xmlns="http://www.w3.org/2000/svg" xmlns:xlink="http://www.w3.org/1999/xlink" x="0px" y="0px"
	 width="48px" height="48px" viewBox="0 0 48 48" enable-background="new 0 0 48 48" xml:space="preserve">
<g>
	<path fill="#231F20" d="M41,8H24V3c0-0.552-0.447-1-1-1H9C8.447,2,8,2.448,8,3v24c0,0.552,0.447,1,1,1h6v5c0,0.552,0.447,1,1,1h25
		c0.553,0,1-0.448,1-1V9C42,8.448,41.553,8,41,8z M10,4h12v5v17H10V4z M40,32H17.164c0.978-2.89,5.99-4.01,6.047-4.022
		c0.034-0.007,0.061-0.029,0.094-0.04c0.056-0.018,0.107-0.039,0.158-0.067c0.06-0.032,0.114-0.069,0.166-0.112
		c0.044-0.036,0.084-0.073,0.121-0.116c0.044-0.051,0.078-0.106,0.111-0.165c0.028-0.05,0.054-0.098,0.073-0.153
		c0.023-0.067,0.033-0.136,0.042-0.208C23.981,27.078,24,27.042,24,27V10h16V32z"/>
	<path fill="#231F20" d="M5,0C4.447,0,4,0.448,4,1v46c0,0.552,0.447,1,1,1s1-0.448,1-1V1C6,0.448,5.553,0,5,0z"/>
</g>
</svg>
