<?xml version="1.0" encoding="utf-8"?>
<!-- Generator: Adobe Illustrator 17.0.0, SVG Export Plug-In . SVG Version: 6.00 Build 0)  -->
<!DOCTYPE svg PUBLIC "-//W3C//DTD SVG 1.1//EN" "http://www.w3.org/Graphics/SVG/1.1/DTD/svg11.dtd">
<svg version="1.1" id="Layer_1" xmlns="http://www.w3.org/2000/svg" xmlns:xlink="http://www.w3.org/1999/xlink" x="0px" y="0px"
	 width="48px" height="48px" viewBox="0 0 48 48" enable-background="new 0 0 48 48" xml:space="preserve">
<g>
	<path fill="#231F20" d="M41.397,15.082l-30-13c-0.309-0.132-0.664-0.103-0.946,0.082S10,2.663,10,3v26
		c0,0.337,0.169,0.651,0.451,0.836C10.617,29.945,10.808,30,11,30c0.135,0,0.27-0.027,0.397-0.082l30-13
		C41.763,16.759,42,16.398,42,16S41.763,15.241,41.397,15.082z M12,27.477V4.523L38.485,16L12,27.477z"/>
	<path fill="#231F20" d="M7,0C6.448,0,6,0.448,6,1v46c0,0.552,0.448,1,1,1s1-0.448,1-1V1C8,0.448,7.552,0,7,0z"/>
</g>
</svg>
