<?xml version="1.0" encoding="utf-8"?>
<!-- Generator: Adobe Illustrator 17.0.0, SVG Export Plug-In . SVG Version: 6.00 Build 0)  -->
<!DOCTYPE svg PUBLIC "-//W3C//DTD SVG 1.1//EN" "http://www.w3.org/Graphics/SVG/1.1/DTD/svg11.dtd">
<svg version="1.1" id="Layer_1" xmlns="http://www.w3.org/2000/svg" xmlns:xlink="http://www.w3.org/1999/xlink" x="0px" y="0px"
	 width="48px" height="48px" viewBox="0 0 48 48" enable-background="new 0 0 48 48" xml:space="preserve">
<g>
	<path fill="#231F20" d="M43,2H9C8.447,2,8,2.448,8,3v24c0,0.552,0.447,1,1,1h34c0.553,0,1-0.448,1-1V3C44,2.448,43.553,2,43,2z
		 M42,26H10V4h32V26z"/>
	<path fill="#231F20" d="M5,0C4.447,0,4,0.448,4,1v46c0,0.552,0.447,1,1,1s1-0.448,1-1V1C6,0.448,5.553,0,5,0z"/>
</g>
</svg>
