<?xml version="1.0" encoding="utf-8"?>
<!-- Generator: Adobe Illustrator 17.0.0, SVG Export Plug-In . SVG Version: 6.00 Build 0)  -->
<!DOCTYPE svg PUBLIC "-//W3C//DTD SVG 1.1//EN" "http://www.w3.org/Graphics/SVG/1.1/DTD/svg11.dtd">
<svg version="1.1" id="Layer_1" xmlns="http://www.w3.org/2000/svg" xmlns:xlink="http://www.w3.org/1999/xlink" x="0px" y="0px"
	 width="48px" height="48px" viewBox="0 0 48 48" enable-background="new 0 0 48 48" xml:space="preserve">
<path fill="#231F20" d="M39.397,13.083l-30-13c-0.001,0-0.002,0-0.002-0.001C9.385,0.078,9.375,0.078,9.366,0.074
	c-0.104-0.041-0.212-0.06-0.321-0.065C9.029,0.008,9.016,0,9,0C8.989,0,8.98,0.006,8.969,0.006C8.855,0.01,8.744,0.032,8.636,0.073
	C8.613,0.083,8.594,0.094,8.572,0.105c-0.04,0.019-0.083,0.034-0.121,0.059c-0.047,0.031-0.086,0.07-0.127,0.108
	c-0.013,0.012-0.027,0.021-0.04,0.034C8.205,0.387,8.144,0.482,8.097,0.584C8.086,0.606,8.079,0.629,8.07,0.652
	C8.029,0.763,8,0.878,8,1v26v20c0,0.552,0.448,1,1,1s1-0.448,1-1V27.657l29.397-12.739C39.763,14.759,40,14.398,40,14
	S39.763,13.241,39.397,13.083z M10,25.477V2.523L36.485,14L10,25.477z"/>
</svg>
