<?xml version="1.0" encoding="utf-8"?>
<!-- Generator: Adobe Illustrator 17.0.0, SVG Export Plug-In . SVG Version: 6.00 Build 0)  -->
<!DOCTYPE svg PUBLIC "-//W3C//DTD SVG 1.1//EN" "http://www.w3.org/Graphics/SVG/1.1/DTD/svg11.dtd">
<svg version="1.1" id="Layer_1" xmlns="http://www.w3.org/2000/svg" xmlns:xlink="http://www.w3.org/1999/xlink" x="0px" y="0px"
	 width="48px" height="48px" viewBox="0 0 48 48" enable-background="new 0 0 48 48" xml:space="preserve">
<g>
	<path fill="#231F20" d="M47.649,17.323L30.678,0.352c-0.375-0.375-1.039-0.375-1.414,0L17.245,12.373l-3.538-3.536
		c-0.391-0.391-1.023-0.391-1.414,0l-9.9,9.899C2.205,18.923,2.1,19.178,2.1,19.443c0,0.266,0.105,0.52,0.293,0.707l16.971,16.971
		c0.188,0.188,0.441,0.293,0.707,0.293s0.52-0.105,0.708-0.293l4.242-4.243l3.55,3.551l0.003-0.003
		c0.185,0.179,0.431,0.281,0.69,0.281c0.266,0,0.519-0.105,0.707-0.293l17.678-17.677c0.188-0.188,0.293-0.442,0.293-0.707
		C47.942,17.765,47.837,17.511,47.649,17.323z M20.071,35L4.514,19.443L13,10.958l3.538,3.536l12.019,12.02L20.071,35z
		 M29.379,34.177c-1.351-2.735,1.401-7.073,1.431-7.121c0.018-0.027,0.021-0.058,0.035-0.087c0.03-0.057,0.053-0.114,0.071-0.175
		c0.018-0.06,0.029-0.118,0.035-0.179c0.006-0.062,0.009-0.122,0.004-0.184c-0.005-0.062-0.018-0.119-0.035-0.179
		c-0.016-0.06-0.033-0.116-0.061-0.172c-0.029-0.06-0.069-0.112-0.11-0.165c-0.027-0.035-0.04-0.076-0.071-0.107l-12.019-12.02
		L29.971,2.473L45.526,18.03L29.379,34.177z"/>
	<path fill="#231F20" d="M1.707,22.293c-0.391-0.391-1.023-0.391-1.414,0c-0.391,0.391-0.391,1.023,0,1.414l24,24
		C24.488,47.902,24.744,48,25,48s0.512-0.098,0.707-0.293c0.391-0.391,0.391-1.023,0-1.414L1.707,22.293z"/>
</g>
</svg>
