<?xml version="1.0" encoding="utf-8"?>
<!-- Generator: Adobe Illustrator 17.0.0, SVG Export Plug-In . SVG Version: 6.00 Build 0)  -->
<!DOCTYPE svg PUBLIC "-//W3C//DTD SVG 1.1//EN" "http://www.w3.org/Graphics/SVG/1.1/DTD/svg11.dtd">
<svg version="1.1" id="Layer_1" xmlns="http://www.w3.org/2000/svg" xmlns:xlink="http://www.w3.org/1999/xlink" x="0px" y="0px"
	 width="48px" height="48px" viewBox="0 0 48 48" enable-background="new 0 0 48 48" xml:space="preserve">
<g>
	<path fill="#231F20" d="M47.513,26.13L33.599,15L47.625,3.781c0.332-0.265,0.459-0.711,0.319-1.112C47.803,2.268,47.425,2,47,2H11
		c-0.552,0-1,0.448-1,1v24c0,0.552,0.448,1,1,1h36c0.007,0,0.013,0,0.02,0c0.552,0,1-0.448,1-1
		C48.02,26.627,47.816,26.302,47.513,26.13z M12,26V4h32.149L31.373,14.219c-0.237,0.19-0.375,0.477-0.375,0.781
		s0.138,0.592,0.375,0.781L44.149,26H12z"/>
	<path fill="#231F20" d="M7,0C6.448,0,6,0.448,6,1v46c0,0.552,0.448,1,1,1s1-0.448,1-1V1C8,0.448,7.552,0,7,0z"/>
</g>
</svg>
