<?xml version="1.0" encoding="utf-8"?>
<!-- Generator: Adobe Illustrator 17.0.0, SVG Export Plug-In . SVG Version: 6.00 Build 0)  -->
<!DOCTYPE svg PUBLIC "-//W3C//DTD SVG 1.1//EN" "http://www.w3.org/Graphics/SVG/1.1/DTD/svg11.dtd">
<svg version="1.1" id="Layer_1" xmlns="http://www.w3.org/2000/svg" xmlns:xlink="http://www.w3.org/1999/xlink" x="0px" y="0px"
	 width="48px" height="48px" viewBox="0 0 48 48" enable-background="new 0 0 48 48" xml:space="preserve">
<g>
	<path fill="#231F20" d="M5,0C4.448,0,4,0.448,4,1v46c0,0.552,0.448,1,1,1s1-0.448,1-1V1C6,0.448,5.552,0,5,0z"/>
	<path fill="#231F20" d="M43.606,5.593c-0.247-0.189-0.567-0.252-0.869-0.171c-0.061,0.016-6.174,1.658-10.9,1.659
		c-1.623,0-2.871-0.191-3.709-0.566C27.128,6.066,27,5.47,27,5c0-1.369-0.703-3.666-5.407-3.667c-5.15,0-12.611,2.613-12.926,2.724
		C8.268,4.198,8,4.576,8,5v24c0,0.325,0.158,0.629,0.422,0.817c0.266,0.188,0.604,0.235,0.911,0.126
		c0.074-0.026,7.45-2.609,12.26-2.609C25,27.334,25,28.588,25,29c0,1.875,1.205,4.11,6.946,4.11c4.976,0,11.055-1.605,11.311-1.673
		C43.695,31.321,44,30.924,44,30.471V6.387C44,6.075,43.855,5.782,43.606,5.593z M42,29.69c-1.761,0.421-6.321,1.42-10.054,1.42
		C29.69,31.11,27,30.744,27,29c0-1.369-0.703-3.666-5.407-3.666c-3.913,0-9.16,1.507-11.593,2.281V5.719
		c1.931-0.633,7.631-2.385,11.593-2.385C25,3.334,25,4.588,25,5c0,1.051,0.401,2.484,2.311,3.34
		c1.113,0.499,2.594,0.741,4.527,0.741h0.001c3.704,0,8.055-0.912,10.161-1.412V29.69z"/>
</g>
</svg>
