<?xml version="1.0" encoding="utf-8"?>
<!-- Generator: Adobe Illustrator 17.0.0, SVG Export Plug-In . SVG Version: 6.00 Build 0)  -->
<!DOCTYPE svg PUBLIC "-//W3C//DTD SVG 1.1//EN" "http://www.w3.org/Graphics/SVG/1.1/DTD/svg11.dtd">
<svg version="1.1" id="Layer_1" xmlns="http://www.w3.org/2000/svg" xmlns:xlink="http://www.w3.org/1999/xlink" x="0px" y="0px"
	 width="48px" height="48px" viewBox="0 0 48 48" enable-background="new 0 0 48 48" xml:space="preserve">
<g>
	<path fill="#231F20" d="M43,0H5C2.243,0,0,2.243,0,5v6v36c0,0.552,0.447,1,1,1h46c0.553,0,1-0.448,1-1V11V5C48,2.243,45.757,0,43,0
		z M46,5v5H34V2h9C44.654,2,46,3.346,46,5z M16,10V2h16v8H16z M2,5c0-1.654,1.346-3,3-3h9v8H2V5z M46,46H2V12h44V46z"/>
	<path fill="#231F20" d="M28,26v-5c0-0.552-0.447-1-1-1h-6c-0.553,0-1,0.448-1,1v5h-5c-0.553,0-1,0.448-1,1v6c0,0.552,0.447,1,1,1h5
		v5c0,0.552,0.447,1,1,1h6c0.553,0,1-0.448,1-1v-5h5c0.553,0,1-0.448,1-1v-6c0-0.552-0.447-1-1-1H28z M32,32h-5
		c-0.553,0-1,0.448-1,1v5h-4v-5c0-0.552-0.447-1-1-1h-5v-4h5c0.553,0,1-0.448,1-1v-5h4v5c0,0.552,0.447,1,1,1h5V32z"/>
</g>
</svg>
