<?xml version="1.0" encoding="utf-8"?>
<!-- Generator: Adobe Illustrator 17.0.0, SVG Export Plug-In . SVG Version: 6.00 Build 0)  -->
<!DOCTYPE svg PUBLIC "-//W3C//DTD SVG 1.1//EN" "http://www.w3.org/Graphics/SVG/1.1/DTD/svg11.dtd">
<svg version="1.1" id="Layer_1" xmlns="http://www.w3.org/2000/svg" xmlns:xlink="http://www.w3.org/1999/xlink" x="0px" y="0px"
	 width="48px" height="48px" viewBox="0 0 48 48" enable-background="new 0 0 48 48" xml:space="preserve">
<g>
	<path fill="#231F20" d="M48,22c0-2.206-1.794-4-4-4H29.466c0.85-2.315,2.303-6.962,1.497-9.833
		c-1.251-4.455-3.859-4.801-4.628-4.801C24.465,3.366,23,4.962,23,7c0,6.96-6.693,14.72-11,15.847V21c0-0.552-0.447-1-1-1H1
		c-0.553,0-1,0.448-1,1v24c0,0.552,0.447,1,1,1h10c0.553,0,1-0.448,1-1v-2.839c2.036,0.319,3.541,0.629,4.886,0.908
		C19.492,43.61,21.374,44,25,44h13c2.654,0,4-1.009,4-3c0-0.823-0.25-1.588-0.677-2.225C42.88,38.228,44,36.742,44,35
		c0-0.823-0.25-1.588-0.677-2.225C44.88,32.228,46,30.742,46,29c0-0.854-0.269-1.646-0.727-2.296C46.951,25.897,48,23.614,48,22z
		 M10,44H2V22h8v2v17V44z M44,25h-2c-0.553,0-1,0.448-1,1s0.447,1,1,1c1.102,0,2,0.897,2,2s-0.898,2-2,2h-2c-0.553,0-1,0.448-1,1
		s0.447,1,1,1c1.102,0,2,0.897,2,2s-0.898,2-2,2h-2c-0.553,0-1,0.448-1,1s0.447,1,1,1c1.102,0,2,0.897,2,2c0,0.469,0,1-2,1H25
		c-3.42,0-5.219-0.373-7.708-0.889c-1.439-0.298-3.047-0.632-5.292-0.974v-15.22C18.237,23.898,25,13.745,25,7
		c0-0.947,0.561-1.634,1.335-1.634c0.852,0,2.011,0.878,2.702,3.342c0.741,2.639-1.161,8.041-1.956,9.899
		c-0.133,0.308-0.101,0.663,0.084,0.944C27.351,19.831,27.664,20,28,20h16c1.102,0,2,0.897,2,2C46,23.239,44.966,25,44,25z"/>
	<circle fill="#231F20" cx="7" cy="41" r="1"/>
</g>
</svg>
