<?xml version="1.0" encoding="utf-8"?>
<!-- Generator: Adobe Illustrator 17.0.0, SVG Export Plug-In . SVG Version: 6.00 Build 0)  -->
<!DOCTYPE svg PUBLIC "-//W3C//DTD SVG 1.1//EN" "http://www.w3.org/Graphics/SVG/1.1/DTD/svg11.dtd">
<svg version="1.1" id="Layer_1" xmlns="http://www.w3.org/2000/svg" xmlns:xlink="http://www.w3.org/1999/xlink" x="0px" y="0px"
	 width="48px" height="48px" viewBox="0 0 48 48" enable-background="new 0 0 48 48" xml:space="preserve">
<path fill="#231F20" d="M48,22c0-2.206-1.794-4-4-4H29.283C29.856,15.649,31,10.565,31,7.438c0-3.915-2.338-5.698-4.51-5.698
	C24.5,1.74,23,3.142,23,5c0,8.84-7.378,15-14,15H3c-0.552,0-1,0.448-1,1v18c0,0.552,0.448,1,1,1c9.167,0,12.302,1.347,14.822,2.429
	C19.703,43.237,21.48,44,25,44h13c2.206,0,4-1.794,4-4c0-0.823-0.25-1.588-0.677-2.225C42.88,37.228,44,35.742,44,34
	c0-0.823-0.25-1.588-0.677-2.225C44.88,31.228,46,29.742,46,28c0-0.823-0.25-1.588-0.677-2.225C46.88,25.228,48,23.742,48,22z
	 M44,24h-2c-0.552,0-1,0.448-1,1s0.448,1,1,1c1.103,0,2,0.897,2,2s-0.897,2-2,2h-2c-0.552,0-1,0.448-1,1s0.448,1,1,1
	c1.103,0,2,0.897,2,2s-0.897,2-2,2h-2c-0.552,0-1,0.448-1,1s0.448,1,1,1c1.103,0,2,0.897,2,2s-0.897,2-2,2H25
	c-3.108,0-4.556-0.622-6.389-1.41C16.019,39.477,12.815,38.102,4,38.005V22h5c7.568,0,16-6.981,16-17c0-0.866,0.772-1.26,1.49-1.26
	c1.158,0,2.51,0.968,2.51,3.698c0,3.823-1.947,11.232-1.967,11.306c-0.079,0.3-0.015,0.62,0.174,0.866C27.397,19.856,27.69,20,28,20
	h16c1.103,0,2,0.897,2,2S45.103,24,44,24z"/>
</svg>
