<?xml version="1.0" encoding="utf-8"?>
<!-- Generator: Adobe Illustrator 17.0.0, SVG Export Plug-In . SVG Version: 6.00 Build 0)  -->
<!DOCTYPE svg PUBLIC "-//W3C//DTD SVG 1.1//EN" "http://www.w3.org/Graphics/SVG/1.1/DTD/svg11.dtd">
<svg version="1.1" id="Layer_1" xmlns="http://www.w3.org/2000/svg" xmlns:xlink="http://www.w3.org/1999/xlink" x="0px" y="0px"
	 width="48px" height="48px" viewBox="0 0 48 48" enable-background="new 0 0 48 48" xml:space="preserve">
<path fill="#231F20" d="M34.816,2.213c-4.128,0-8.673,2.518-10.816,8.043c-2.11-5.437-6.541-7.915-10.561-7.915
	C5.929,2.341,2,9.486,2,16.544c0,7.035,3.726,14.687,10.774,22.129c5.268,5.562,10.456,9.017,10.674,9.161
	C23.616,47.945,23.808,48,24,48c0.216,0,0.433-0.07,0.612-0.21C25.485,47.114,46,31.054,46,15.36
	C46,6.729,40.373,2.213,34.816,2.213z M4,16.544C4,8.16,8.893,4.341,13.439,4.341c3.696,0,8.408,2.603,9.561,9.925v2.18l-7.53,4.706
	c-0.322,0.201-0.502,0.567-0.466,0.944c0.037,0.377,0.283,0.702,0.637,0.838l11.086,4.264l-8.242,4.945
	C18.184,32.323,18,32.649,18,33s0.184,0.677,0.485,0.857L23,36.566v8.489C18.219,41.496,4,29.795,4,16.544z M25,44.878V36
	c0-0.351-0.184-0.677-0.485-0.857L20.944,33l8.57-5.143c0.328-0.197,0.515-0.563,0.482-0.944c-0.032-0.381-0.28-0.709-0.637-0.847
	l-11.13-4.28l6.301-3.938C24.822,17.665,25,17.345,25,17v-2.734c1.167-7.417,6.012-10.053,9.816-10.053
	C39.239,4.213,44,7.701,44,15.36C44,27.616,29.848,40.741,25,44.878z"/>
</svg>
