<?xml version="1.0" encoding="utf-8"?>
<!-- Generator: Adobe Illustrator 17.0.0, SVG Export Plug-In . SVG Version: 6.00 Build 0)  -->
<!DOCTYPE svg PUBLIC "-//W3C//DTD SVG 1.1//EN" "http://www.w3.org/Graphics/SVG/1.1/DTD/svg11.dtd">
<svg version="1.1" id="Layer_1" xmlns="http://www.w3.org/2000/svg" xmlns:xlink="http://www.w3.org/1999/xlink" x="0px" y="0px"
	 width="48px" height="48px" viewBox="0 0 48 48" enable-background="new 0 0 48 48" xml:space="preserve">
<path fill="#231F20" d="M34.816,2.213c-4.128,0-8.673,2.518-10.816,8.043c-2.11-5.437-6.541-7.915-10.561-7.915
	C5.929,2.341,2,9.486,2,16.544c0,7.035,3.726,14.687,10.774,22.129c5.268,5.562,10.456,9.017,10.674,9.161
	C23.616,47.945,23.808,48,24,48c0.216,0,0.433-0.07,0.612-0.21C25.485,47.114,46,31.054,46,15.36
	C46,6.729,40.373,2.213,34.816,2.213z M23.956,45.752C20.576,43.352,4,30.848,4,16.544C4,8.16,8.893,4.341,13.439,4.341
	c3.707,0,8.438,2.616,9.573,9.988c0.075,0.488,0.494,0.848,0.988,0.848c0.493,0,0.913-0.36,0.988-0.848
	c1.149-7.467,6.013-10.116,9.828-10.116C39.239,4.213,44,7.701,44,15.36C44,28.679,27.277,43.034,23.956,45.752z"/>
</svg>
