<?xml version="1.0" encoding="utf-8"?>
<!-- Generator: Adobe Illustrator 17.0.0, SVG Export Plug-In . SVG Version: 6.00 Build 0)  -->
<!DOCTYPE svg PUBLIC "-//W3C//DTD SVG 1.1//EN" "http://www.w3.org/Graphics/SVG/1.1/DTD/svg11.dtd">
<svg version="1.1" id="Layer_1" xmlns="http://www.w3.org/2000/svg" xmlns:xlink="http://www.w3.org/1999/xlink" x="0px" y="0px"
	 width="48px" height="48px" viewBox="0 0 48 48" enable-background="new 0 0 48 48" xml:space="preserve">
<g>
	<path fill="#231F20" d="M3.01,14.548c0-7.348,4.571-10.987,9.101-11.335c4.208-0.315,8.893,2.26,9.891,8.749
		c0.075,0.488,0.495,0.848,0.988,0.848s0.913-0.36,0.988-0.848c1.024-6.648,5.821-8.668,9.593-8.38
		c4.67,0.357,9.399,4.238,9.399,10.965c0,1.632-0.312,3.379-0.925,5.191l1.895,0.642c0.683-2.021,1.03-3.983,1.03-5.833
		c0-7.943-5.657-12.532-11.246-12.959c-4.133-0.325-8.627,1.642-10.73,6.529C20.82,2.991,16.08,0.903,11.958,1.22
		C6.686,1.624,1.01,5.966,1.01,14.548c0,12.516,13.515,24.102,19.327,28.503l1.207-1.595C15.972,37.236,3.01,26.166,3.01,14.548z"/>
	<path fill="#231F20" d="M35,22c-7.168,0-13,5.832-13,13c0,7.169,5.832,13,13,13c7.168,0,13-5.831,13-13C48,27.832,42.168,22,35,22z
		 M35,46c-6.065,0-11-4.935-11-11s4.935-11,11-11s11,4.935,11,11S41.065,46,35,46z"/>
	<path fill="#231F20" d="M40.454,34H36v-4.455c0-0.552-0.447-1-1-1s-1,0.448-1,1V34h-4.454c-0.553,0-1,0.448-1,1s0.447,1,1,1H34
		v4.455c0,0.552,0.447,1,1,1s1-0.448,1-1.001V36h4.454c0.553,0,1-0.448,1-1S41.007,34,40.454,34z"/>
</g>
</svg>
