<?xml version="1.0" encoding="utf-8"?>
<!-- Generator: Adobe Illustrator 17.0.0, SVG Export Plug-In . SVG Version: 6.00 Build 0)  -->
<!DOCTYPE svg PUBLIC "-//W3C//DTD SVG 1.1//EN" "http://www.w3.org/Graphics/SVG/1.1/DTD/svg11.dtd">
<svg version="1.1" id="Layer_1" xmlns="http://www.w3.org/2000/svg" xmlns:xlink="http://www.w3.org/1999/xlink" x="0px" y="0px"
	 width="48px" height="48px" viewBox="0 0 48 48" enable-background="new 0 0 48 48" xml:space="preserve">
<path fill="#231F20" d="M48,14H30.28c2.383-0.804,4.772-1.789,5.741-2.757c2.338-2.34,2.338-6.146,0-8.485
	C34.888,1.624,33.381,1,31.778,1c-1.603,0-3.109,0.624-4.243,1.757C26.224,4.068,24.879,7.984,24,10.964
	c-0.88-2.98-2.224-6.895-3.535-8.206C19.332,1.624,17.825,1,16.222,1c-1.603,0-3.11,0.624-4.244,1.758
	c-2.339,2.34-2.338,6.146,0,8.484c0.969,0.969,3.36,1.954,5.744,2.758H0v10h2v24h44V24h2V14z M18,22v-6h12v6H18z M30,24v22H18V24H30
	z M28.949,4.172C29.705,3.416,30.71,3,31.778,3c1.069,0,2.074,0.416,2.829,1.172c1.559,1.559,1.559,4.097,0,5.657
	c-1.096,1.096-5.707,2.606-9.215,3.557C26.343,9.879,27.853,5.268,28.949,4.172z M13.393,4.172C14.149,3.416,15.154,3,16.222,3
	s2.073,0.416,2.828,1.173c1.096,1.095,2.606,5.706,3.557,9.213c-3.507-0.951-8.118-2.461-9.214-3.557
	C11.834,8.27,11.834,5.732,13.393,4.172z M2,16h14v6H2V16z M4,24h12v22H4V24z M44,46H32V24h12V46z M46,22H32v-6h14V22z"/>
</svg>
