<?xml version="1.0" encoding="utf-8"?>
<!-- Generator: Adobe Illustrator 17.0.0, SVG Export Plug-In . SVG Version: 6.00 Build 0)  -->
<!DOCTYPE svg PUBLIC "-//W3C//DTD SVG 1.1//EN" "http://www.w3.org/Graphics/SVG/1.1/DTD/svg11.dtd">
<svg version="1.1" id="Layer_1" xmlns="http://www.w3.org/2000/svg" xmlns:xlink="http://www.w3.org/1999/xlink" x="0px" y="0px"
	 width="48px" height="48px" viewBox="0 0 48 48" enable-background="new 0 0 48 48" xml:space="preserve">
<g>
	<path fill="#231F20" d="M41.507,40.071l-17-10c-0.313-0.185-0.702-0.185-1.014,0l-17,10C6.187,40.251,6,40.579,6,40.933v6
		c0,0.359,0.192,0.69,0.504,0.868c0.312,0.179,0.695,0.177,1.003-0.006L24,38.093l16.493,9.702c0.156,0.092,0.331,0.138,0.507,0.138
		c0.171,0,0.343-0.044,0.496-0.132C41.808,47.623,42,47.292,42,46.933v-6C42,40.579,41.812,40.251,41.507,40.071z M40,45.185
		l-15.493-9.114c-0.156-0.092-0.332-0.138-0.507-0.138s-0.351,0.046-0.507,0.139L8,45.185v-3.68l16-9.412l16,9.412V45.185z"/>
	<path fill="#231F20" d="M41.507,27.071l-17-10c-0.313-0.185-0.702-0.185-1.014,0l-17,10C6.187,27.251,6,27.579,6,27.933v6
		c0,0.359,0.192,0.69,0.504,0.868c0.312,0.179,0.695,0.177,1.003-0.006L24,25.093l16.493,9.702c0.156,0.092,0.331,0.138,0.507,0.138
		c0.171,0,0.343-0.044,0.496-0.132C41.808,34.623,42,34.292,42,33.933v-6C42,27.579,41.812,27.251,41.507,27.071z M40,32.185
		l-15.493-9.114c-0.156-0.092-0.332-0.138-0.507-0.138s-0.351,0.046-0.507,0.139L8,32.185v-3.68l16-9.412l16,9.412V32.185z"/>
	<path fill="#231F20" d="M41.507,14.071l-17-10c-0.313-0.185-0.702-0.185-1.014,0l-17,10C6.187,14.251,6,14.579,6,14.933v6
		c0,0.359,0.192,0.69,0.504,0.868c0.312,0.179,0.695,0.177,1.003-0.006L24,12.093l16.493,9.702c0.156,0.092,0.331,0.138,0.507,0.138
		c0.171,0,0.343-0.044,0.496-0.132C41.808,21.623,42,21.292,42,20.933v-6C42,14.579,41.812,14.251,41.507,14.071z M40,19.185
		l-15.493-9.114C24.351,9.979,24.175,9.933,24,9.933s-0.351,0.046-0.507,0.139L8,19.185v-3.68l16-9.412l16,9.412V19.185z"/>
</g>
</svg>
