<?xml version="1.0" encoding="utf-8"?>
<!-- Generator: Adobe Illustrator 17.0.0, SVG Export Plug-In . SVG Version: 6.00 Build 0)  -->
<!DOCTYPE svg PUBLIC "-//W3C//DTD SVG 1.1//EN" "http://www.w3.org/Graphics/SVG/1.1/DTD/svg11.dtd">
<svg version="1.1" id="Layer_1" xmlns="http://www.w3.org/2000/svg" xmlns:xlink="http://www.w3.org/1999/xlink" x="0px" y="0px"
	 width="48px" height="48px" viewBox="0 0 48 48" enable-background="new 0 0 48 48" xml:space="preserve">
<path fill="#231F20" d="M34.941,0.745c-0.326,0-0.632,0.159-0.819,0.427L22.738,17.435c-1.532,0.194-2.95,0.879-4.06,1.988
	c-1.111,1.111-1.795,2.529-1.989,4.062L0.427,34.867C0.159,35.054,0,35.36,0,35.686C0,39.829,8.171,48,12.314,48
	c0.327,0,0.633-0.159,0.82-0.426l10.962-15.663l11.552,11.553c0.191,0.191,0.447,0.293,0.707,0.293c0.129,0,0.259-0.025,0.384-0.075
	c0.373-0.155,0.617-0.52,0.617-0.924v-4.657h4.656c0.405,0,0.769-0.244,0.924-0.617c0.155-0.374,0.069-0.804-0.217-1.09
	L31.166,24.84l15.663-10.962c0.268-0.188,0.427-0.493,0.427-0.82C47.253,8.915,39.082,0.745,34.941,0.745z M20.092,20.837
	c0.945-0.944,2.2-1.465,3.535-1.465c1.335,0,2.592,0.521,3.537,1.466c1.948,1.949,1.947,5.121-0.002,7.071
	c-0.945,0.944-2.2,1.464-3.535,1.464c-1.334,0-2.589-0.52-3.534-1.463c-0.001-0.001-0.001-0.002-0.001-0.002
	c-0.001-0.001-0.001-0.001-0.002-0.001c-0.944-0.945-1.463-2.2-1.463-3.534C18.627,23.037,19.147,21.781,20.092,20.837z
	 M11.831,45.946c-3.053-0.637-9.14-6.724-9.777-9.777l14.734-10.312c0.211,0.98,0.633,1.897,1.238,2.703l-2.176,2.176
	c-0.391,0.391-0.391,1.023,0,1.414c0.195,0.195,0.451,0.293,0.707,0.293c0.255,0,0.511-0.097,0.707-0.293l2.176-2.176
	c0.806,0.605,1.724,1.027,2.704,1.238L11.831,45.946z M36.355,36.101c-0.552,0-1,0.448-1,1v3.242l-9.38-9.381
	c0.966-0.344,1.855-0.893,2.602-1.64c0.76-0.76,1.3-1.654,1.637-2.606l9.383,9.385H36.355z M30.462,22.892
	c-0.206-0.962-0.619-1.885-1.233-2.706l2.177-2.177c0.391-0.39,0.391-1.023,0-1.414c-0.391-0.391-1.023-0.391-1.414,0l-2.177,2.177
	c-0.807-0.606-1.725-1.028-2.705-1.238L35.424,2.799c3.052,0.637,9.139,6.723,9.777,9.777L30.462,22.892z"/>
</svg>
