<?xml version="1.0" encoding="utf-8"?>
<!-- Generator: Adobe Illustrator 17.0.0, SVG Export Plug-In . SVG Version: 6.00 Build 0)  -->
<!DOCTYPE svg PUBLIC "-//W3C//DTD SVG 1.1//EN" "http://www.w3.org/Graphics/SVG/1.1/DTD/svg11.dtd">
<svg version="1.1" id="Layer_1" xmlns="http://www.w3.org/2000/svg" xmlns:xlink="http://www.w3.org/1999/xlink" x="0px" y="0px"
	 width="48px" height="48px" viewBox="0 0 48 48" enable-background="new 0 0 48 48" xml:space="preserve">
<g>
	<path fill="#231F20" d="M38,19h-9.323l-3.748-9.372C24.776,9.249,24.409,9,24,9s-0.776,0.249-0.929,0.628L19.323,19H10
		c-0.417,0-0.79,0.258-0.936,0.648c-0.147,0.39-0.035,0.83,0.278,1.104l7.528,6.588l-2.835,10.396
		c-0.113,0.415,0.052,0.856,0.41,1.095c0.355,0.239,0.827,0.222,1.169-0.042L24,32.267l8.386,6.523C32.566,38.929,32.783,39,33,39
		c0.193,0,0.387-0.056,0.555-0.168c0.358-0.239,0.523-0.68,0.41-1.095L31.13,27.34l7.528-6.588c0.313-0.274,0.425-0.714,0.278-1.104
		C38.79,19.258,38.417,19,38,19z M29.342,26.247c-0.289,0.252-0.408,0.647-0.307,1.016l2.211,8.105l-6.632-5.158
		C24.434,30.07,24.217,30,24,30s-0.434,0.07-0.614,0.211l-6.632,5.158l2.211-8.105c0.1-0.37-0.019-0.764-0.307-1.016L12.661,21H20
		c0.409,0,0.776-0.249,0.929-0.629L24,12.692l3.071,7.68C27.224,20.751,27.591,21,28,21h7.339L29.342,26.247z"/>
	<path fill="#231F20" d="M24,0C10.767,0,0,10.767,0,24s10.767,24,24,24c13.233,0,24-10.767,24-24S37.233,0,24,0z M24,46
		C11.869,46,2,36.131,2,24S11.869,2,24,2s22,9.869,22,22S36.131,46,24,46z"/>
</g>
</svg>
