<?xml version="1.0" encoding="utf-8"?>
<!-- Generator: Adobe Illustrator 17.0.0, SVG Export Plug-In . SVG Version: 6.00 Build 0)  -->
<!DOCTYPE svg PUBLIC "-//W3C//DTD SVG 1.1//EN" "http://www.w3.org/Graphics/SVG/1.1/DTD/svg11.dtd">
<svg version="1.1" id="Layer_1" xmlns="http://www.w3.org/2000/svg" xmlns:xlink="http://www.w3.org/1999/xlink" x="0px" y="0px"
	 width="48px" height="48px" viewBox="0 0 48 48" enable-background="new 0 0 48 48" xml:space="preserve">
<g>
	<path fill="#231F20" d="M23.071,8.628L19.323,18H11c-0.404,0-0.769,0.244-0.923,0.616c-0.155,0.374-0.069,0.804,0.217,1.09
		l6.589,6.59l-2.847,10.44c-0.113,0.415,0.052,0.856,0.41,1.095c0.357,0.239,0.828,0.221,1.168-0.042L24,31.267l8.386,6.523
		C32.566,37.929,32.783,38,33,38c0.193,0,0.386-0.056,0.555-0.168c0.358-0.239,0.523-0.679,0.41-1.095l-2.847-10.44l6.589-6.59
		c0.286-0.286,0.372-0.716,0.217-1.09C37.769,18.244,37.404,18,37,18h-8.323l-3.748-9.372C24.776,8.249,24.409,8,24,8
		S23.224,8.249,23.071,8.628z M27.071,19.372C27.224,19.751,27.591,20,28,20h6.586l-5.293,5.292
		c-0.254,0.254-0.352,0.624-0.258,0.97l2.211,8.106l-6.632-5.158C24.434,29.07,24.217,29,24,29s-0.434,0.07-0.614,0.211
		l-6.632,5.158l2.211-8.106c0.094-0.346-0.004-0.716-0.258-0.97L13.414,20H20c0.409,0,0.776-0.249,0.929-0.629L24,11.692
		L27.071,19.372z"/>
	<path fill="#231F20" d="M43.466,10.115l-19-10c-0.292-0.153-0.64-0.153-0.932,0l-19,10C4.206,10.288,4,10.629,4,11v32
		c0,0.552,0.448,1,1,1h38c0.552,0,1-0.448,1-1V11C44,10.629,43.794,10.288,43.466,10.115z M42,42H6V11.604L24,2.13l18,9.474V42z"/>
	<path fill="#231F20" d="M43,46H5c-0.552,0-1,0.448-1,1s0.448,1,1,1h38c0.552,0,1-0.448,1-1S43.552,46,43,46z"/>
</g>
</svg>
