<?xml version="1.0" encoding="utf-8"?>
<!-- Generator: Adobe Illustrator 17.0.0, SVG Export Plug-In . SVG Version: 6.00 Build 0)  -->
<!DOCTYPE svg PUBLIC "-//W3C//DTD SVG 1.1//EN" "http://www.w3.org/Graphics/SVG/1.1/DTD/svg11.dtd">
<svg version="1.1" id="Layer_1" xmlns="http://www.w3.org/2000/svg" xmlns:xlink="http://www.w3.org/1999/xlink" x="0px" y="0px"
	 width="48px" height="48px" viewBox="0 0 48 48" enable-background="new 0 0 48 48" xml:space="preserve">
<g>
	<path fill="#231F20" d="M34,20h-6.34l-2.726-6.388c-0.157-0.368-0.505-0.572-0.92-0.607c-0.399,0-0.761,0.237-0.918,0.604
		L20.342,20H14c-0.421,0-0.797,0.264-0.941,0.66c-0.143,0.396-0.023,0.838,0.3,1.108l5.455,4.545l-2.751,7.335
		c-0.156,0.416-0.019,0.886,0.338,1.152c0.357,0.267,0.846,0.265,1.201-0.003l6.41-4.839l6.383,4.838
		c0.179,0.135,0.392,0.203,0.605,0.203c0.21,0,0.42-0.066,0.597-0.198c0.357-0.266,0.495-0.736,0.339-1.153l-2.751-7.335
		l5.455-4.545c0.323-0.269,0.444-0.712,0.3-1.108C34.797,20.264,34.421,20,34,20z M27.36,25.231
		c-0.326,0.272-0.445,0.721-0.296,1.119l1.787,4.764l-4.232-3.208c-0.356-0.27-0.849-0.271-1.207-0.001l-4.266,3.22l1.791-4.775
		c0.149-0.398,0.03-0.847-0.296-1.119L16.763,22H21c0.399,0,0.761-0.238,0.918-0.604l2.092-4.854l2.07,4.851
		C26.237,21.761,26.6,22,27,22h4.237L27.36,25.231z"/>
	<path fill="#231F20" d="M48,24c0-0.297-0.132-0.578-0.358-0.767l-3.812-3.176l2.306-4.393c0.138-0.264,0.151-0.574,0.038-0.848
		c-0.113-0.274-0.343-0.484-0.626-0.572l-4.736-1.476l0.449-4.941c0.026-0.295-0.079-0.587-0.289-0.797
		c-0.21-0.21-0.506-0.315-0.798-0.289L35.232,7.19l-1.475-4.736c-0.089-0.284-0.298-0.514-0.572-0.627
		c-0.276-0.113-0.584-0.099-0.848,0.039l-4.392,2.305L24.769,0.36c-0.381-0.456-1.156-0.456-1.537,0l-3.176,3.811l-4.393-2.305
		c-0.264-0.139-0.575-0.153-0.848-0.039c-0.274,0.114-0.483,0.344-0.572,0.627L12.767,7.19L7.828,6.741
		C7.534,6.715,7.24,6.82,7.03,7.03C6.82,7.239,6.715,7.532,6.741,7.827l0.448,4.94l-4.736,1.476
		c-0.283,0.088-0.513,0.298-0.626,0.572c-0.113,0.275-0.1,0.585,0.037,0.848l2.306,4.393l-3.811,3.176C0.132,23.422,0,23.703,0,24
		s0.132,0.578,0.359,0.769l3.811,3.176l-2.306,4.393c-0.138,0.264-0.151,0.574-0.038,0.848c0.113,0.274,0.343,0.484,0.626,0.572
		l4.736,1.476L6.74,40.175c-0.027,0.295,0.079,0.588,0.289,0.797c0.21,0.21,0.503,0.31,0.798,0.289l4.939-0.45l1.476,4.737
		c0.089,0.283,0.298,0.512,0.572,0.626c0.275,0.112,0.584,0.099,0.848-0.039l4.393-2.306l3.176,3.811C23.422,47.868,23.703,48,24,48
		s0.578-0.132,0.768-0.361l3.176-3.811l4.392,2.306c0.264,0.139,0.573,0.151,0.848,0.039c0.274-0.113,0.483-0.342,0.572-0.626
		l1.475-4.737l4.942,0.45c0.293,0.022,0.588-0.078,0.798-0.289c0.21-0.21,0.315-0.502,0.289-0.797l-0.449-4.941l4.736-1.476
		c0.283-0.089,0.513-0.298,0.626-0.572c0.113-0.275,0.1-0.585-0.038-0.848l-2.306-4.393l3.812-3.176C47.868,24.578,48,24.297,48,24z
		 M41.927,26.926c-0.361,0.302-0.464,0.816-0.245,1.233l2.123,4.046l-4.362,1.359c-0.45,0.14-0.741,0.576-0.698,1.045l0.414,4.551
		l-4.551-0.414c-0.476-0.037-0.905,0.249-1.046,0.699l-1.359,4.362l-4.045-2.124c-0.416-0.219-0.93-0.117-1.233,0.245L24,45.438
		l-2.924-3.51c-0.196-0.235-0.48-0.36-0.769-0.36c-0.159,0-0.318,0.037-0.466,0.114l-4.046,2.124l-1.358-4.362
		c-0.142-0.451-0.567-0.739-1.046-0.699l-4.55,0.414l0.413-4.551c0.042-0.469-0.249-0.905-0.698-1.045l-4.362-1.359l2.123-4.046
		c0.219-0.418,0.116-0.931-0.245-1.233L2.561,24l3.512-2.925c0.361-0.302,0.464-0.815,0.245-1.233l-2.123-4.046l4.362-1.359
		c0.449-0.14,0.74-0.576,0.698-1.045L8.842,8.841l4.55,0.414c0.481,0.042,0.904-0.249,1.046-0.699l1.358-4.362l4.046,2.123
		c0.417,0.219,0.931,0.118,1.233-0.245L24,2.562l2.925,3.51c0.302,0.363,0.817,0.464,1.233,0.245l4.045-2.123l1.359,4.362
		c0.141,0.45,0.568,0.739,1.046,0.699l4.551-0.414l-0.414,4.551c-0.043,0.469,0.249,0.905,0.698,1.045l4.362,1.359l-2.123,4.046
		c-0.219,0.418-0.116,0.931,0.245,1.233L45.438,24L41.927,26.926z"/>
</g>
</svg>
