<?xml version="1.0" encoding="utf-8"?>
<!-- Generator: Adobe Illustrator 17.0.0, SVG Export Plug-In . SVG Version: 6.00 Build 0)  -->
<!DOCTYPE svg PUBLIC "-//W3C//DTD SVG 1.1//EN" "http://www.w3.org/Graphics/SVG/1.1/DTD/svg11.dtd">
<svg version="1.1" id="Layer_1" xmlns="http://www.w3.org/2000/svg" xmlns:xlink="http://www.w3.org/1999/xlink" x="0px" y="0px"
	 width="48px" height="48px" viewBox="0 0 48 48" enable-background="new 0 0 48 48" xml:space="preserve">
<path fill="#231F20" d="M47.945,17.673C47.806,17.27,47.427,17,47,17H30.707L24.943,0.667C24.802,0.268,24.424,0,24,0
	s-0.802,0.268-0.943,0.667L17.293,17H1c-0.427,0-0.806,0.27-0.945,0.673c-0.139,0.403-0.008,0.85,0.327,1.113l13.447,10.565
	L8.052,46.683c-0.138,0.414,0.007,0.869,0.359,1.125c0.353,0.257,0.829,0.256,1.181-0.001L24,37.24l14.408,10.567
	C38.585,47.935,38.792,48,39,48c0.207,0,0.413-0.064,0.589-0.191c0.352-0.257,0.497-0.712,0.359-1.125l-5.777-17.332l13.447-10.566
	C47.953,18.523,48.084,18.076,47.945,17.673z M32.382,28.214c-0.332,0.26-0.464,0.701-0.33,1.102l5.006,15.019l-12.466-9.142
	C24.415,35.064,24.208,35,24,35s-0.415,0.064-0.591,0.193l-12.466,9.142l5.006-15.019c0.134-0.4,0.002-0.841-0.33-1.102L3.892,19H18
	c0.424,0,0.802-0.268,0.943-0.667L24,4.004l5.057,14.329C29.198,18.732,29.576,19,30,19h14.108L32.382,28.214z"/>
</svg>
