<?xml version="1.0" encoding="utf-8"?>
<!-- Generator: Adobe Illustrator 17.0.0, SVG Export Plug-In . SVG Version: 6.00 Build 0)  -->
<!DOCTYPE svg PUBLIC "-//W3C//DTD SVG 1.1//EN" "http://www.w3.org/Graphics/SVG/1.1/DTD/svg11.dtd">
<svg version="1.1" id="Layer_1" xmlns="http://www.w3.org/2000/svg" xmlns:xlink="http://www.w3.org/1999/xlink" x="0px" y="0px"
	 width="48px" height="48px" viewBox="0 0 48 48" enable-background="new 0 0 48 48" xml:space="preserve">
<g>
	<path fill="#231F20" d="M13.359,20.769l5.455,4.545l-2.751,7.335c-0.154,0.412-0.021,0.877,0.328,1.145
		c0.35,0.267,0.832,0.275,1.19,0.02L24,29.229l6.419,4.585C30.593,33.938,30.796,34,31,34c0.215,0,0.43-0.069,0.608-0.207
		c0.35-0.269,0.482-0.733,0.328-1.145l-2.751-7.335l5.455-4.545c0.323-0.269,0.443-0.712,0.3-1.108S34.421,19,34,19h-7.246
		l-1.793-6.275C24.839,12.296,24.446,12,24,12s-0.839,0.296-0.961,0.725L21.246,19H14c-0.421,0-0.797,0.264-0.941,0.661
		C12.916,20.057,13.036,20.499,13.359,20.769z M22,21c0.446,0,0.839-0.296,0.961-0.725L24,16.64l1.039,3.635
		C25.161,20.704,25.554,21,26,21h5.238l-3.879,3.232c-0.326,0.272-0.445,0.721-0.296,1.119l1.848,4.929l-4.33-3.094
		C24.407,27.062,24.204,27,24,27s-0.407,0.062-0.582,0.186l-4.33,3.094l1.848-4.929c0.149-0.398,0.031-0.847-0.296-1.119L16.762,21
		H22z"/>
	<path fill="#231F20" d="M43,0H5C4.448,0,4,0.448,4,1v14.529c0,13.617,7.485,26.015,19.534,32.356C23.68,47.961,23.84,48,24,48
		s0.32-0.039,0.466-0.116C36.515,41.543,44,29.145,44,15.529V1C44,0.448,43.552,0,43,0z M42,15.529c0,12.696-6.882,24.27-18,30.336
		C12.882,39.799,6,28.225,6,15.529V8h36V15.529z M42,6H6V2h36V6z"/>
</g>
</svg>
