<?xml version="1.0" encoding="utf-8"?>
<!-- Generator: Adobe Illustrator 17.0.0, SVG Export Plug-In . SVG Version: 6.00 Build 0)  -->
<!DOCTYPE svg PUBLIC "-//W3C//DTD SVG 1.1//EN" "http://www.w3.org/Graphics/SVG/1.1/DTD/svg11.dtd">
<svg version="1.1" id="Layer_1" xmlns="http://www.w3.org/2000/svg" xmlns:xlink="http://www.w3.org/1999/xlink" x="0px" y="0px"
	 width="48px" height="48px" viewBox="0 0 48 48" enable-background="new 0 0 48 48" xml:space="preserve">
<g>
	<path fill="#231F20" d="M38,19h-9.323l-3.748-9.372C24.776,9.249,24.409,9,24,9s-0.776,0.249-0.929,0.628L19.323,19H10
		c-0.417,0-0.79,0.258-0.935,0.648c-0.147,0.39-0.036,0.83,0.277,1.104l7.529,6.588l-2.835,10.396
		c-0.113,0.415,0.052,0.856,0.41,1.095c0.357,0.239,0.828,0.221,1.168-0.042L24,32.267l8.386,6.523C32.566,38.929,32.783,39,33,39
		c0.193,0,0.386-0.056,0.555-0.169c0.358-0.239,0.523-0.679,0.41-1.095L31.13,27.34l7.529-6.588
		c0.313-0.274,0.423-0.714,0.277-1.104C38.79,19.258,38.416,19,38,19z M29.341,26.246c-0.288,0.252-0.407,0.647-0.306,1.016
		l2.211,8.106l-6.632-5.158C24.434,30.07,24.217,30,24,30s-0.434,0.07-0.614,0.212l-6.632,5.158l2.211-8.106
		c0.101-0.37-0.018-0.764-0.306-1.016L12.662,21H20c0.409,0,0.776-0.249,0.929-0.629L24,12.692l3.071,7.68
		C27.224,20.751,27.591,21,28,21h7.338L29.341,26.246z"/>
	<path fill="#231F20" d="M39,0H9C4.038,0,0,4.038,0,9v30c0,4.962,4.038,9,9,9h30c4.962,0,9-4.038,9-9V9C48,4.038,43.962,0,39,0z
		 M46,39c0,3.86-3.14,7-7,7H9c-3.86,0-7-3.14-7-7V9c0-3.86,3.14-7,7-7h30c3.86,0,7,3.14,7,7V39z"/>
</g>
</svg>
