<?xml version="1.0" encoding="utf-8"?>
<!-- Generator: Adobe Illustrator 17.0.0, SVG Export Plug-In . SVG Version: 6.00 Build 0)  -->
<!DOCTYPE svg PUBLIC "-//W3C//DTD SVG 1.1//EN" "http://www.w3.org/Graphics/SVG/1.1/DTD/svg11.dtd">
<svg version="1.1" id="Layer_1" xmlns="http://www.w3.org/2000/svg" xmlns:xlink="http://www.w3.org/1999/xlink" x="0px" y="0px"
	 width="60px" height="60px" viewBox="0 0 60 60" enable-background="new 0 0 60 60" xml:space="preserve">
<g>
	<path fill="#231F20" d="M30,0C13.458,0,0,13.458,0,30s13.458,30,30,30s30-13.458,30-30S46.542,0,30,0z M30,58
		C14.561,58,2,45.44,2,30S14.561,2,30,2c15.44,0,28,12.56,28,28S45.44,58,30,58z"/>
	<path fill="#231F20" d="M39.483,17.777c-0.319-0.176-0.708-0.165-1.016,0.03L28,24.405v-5.753c0-0.39-0.226-0.744-0.58-0.907
		c-0.354-0.164-0.771-0.108-1.067,0.144L12.962,29.237c-0.224,0.19-0.354,0.469-0.354,0.763s0.129,0.573,0.354,0.763L26.354,42.11
		c0.184,0.156,0.414,0.237,0.646,0.237c0.143,0,0.286-0.03,0.42-0.093c0.354-0.164,0.58-0.518,0.58-0.907v-5.753l10.467,6.598
		c0.308,0.195,0.697,0.206,1.016,0.03C39.802,42.047,40,41.712,40,41.348V18.652C40,18.288,39.802,17.953,39.483,17.777z M38,39.535
		l-10.467-6.598c-0.163-0.102-0.348-0.154-0.533-0.154c-0.166,0-0.333,0.042-0.483,0.125C26.198,33.083,26,33.419,26,33.783v5.407
		L15.156,30L26,20.81v5.407c0,0.364,0.198,0.7,0.517,0.876c0.318,0.175,0.708,0.164,1.016-0.03L38,20.465V39.535z"/>
</g>
</svg>
