<?xml version="1.0" encoding="utf-8"?>
<!-- Generator: Adobe Illustrator 17.0.0, SVG Export Plug-In . SVG Version: 6.00 Build 0)  -->
<!DOCTYPE svg PUBLIC "-//W3C//DTD SVG 1.1//EN" "http://www.w3.org/Graphics/SVG/1.1/DTD/svg11.dtd">
<svg version="1.1" id="Layer_1" xmlns="http://www.w3.org/2000/svg" xmlns:xlink="http://www.w3.org/1999/xlink" x="0px" y="0px"
	 width="60px" height="60px" viewBox="0 0 60 60" enable-background="new 0 0 60 60" xml:space="preserve">
<g>
	<path fill="#231F20" d="M19.087,58h-13c-0.553,0-1,0.448-1,1c0,0.552,0.447,1,1,1h13c0.553,0,1-0.448,1-1
		C20.087,58.448,19.64,58,19.087,58z"/>
	<path fill="#231F20" d="M19.087,52h-13c-0.553,0-1,0.448-1,1c0,0.552,0.447,1,1,1h13c0.553,0,1-0.448,1-1
		C20.087,52.448,19.64,52,19.087,52z"/>
	<path fill="#231F20" d="M19.087,46h-13c-0.553,0-1,0.448-1,1c0,0.552,0.447,1,1,1h13c0.553,0,1-0.448,1-1
		C20.087,46.448,19.64,46,19.087,46z"/>
	<path fill="#231F20" d="M19.087,40h-13c-0.553,0-1,0.448-1,1c0,0.552,0.447,1,1,1h13c0.553,0,1-0.448,1-1
		C20.087,40.448,19.64,40,19.087,40z"/>
	<path fill="#231F20" d="M6,36h13c0.553,0,1-0.448,1-1c0-0.552-0.447-1-1-1H6c-0.553,0-1,0.448-1,1C5,35.552,5.447,36,6,36z"/>
	<path fill="#231F20" d="M24,60h12c0.553,0,1-0.448,1-1c0-0.552-0.447-1-1-1H24c-0.553,0-1,0.448-1,1C23,59.552,23.447,60,24,60z"/>
	<path fill="#231F20" d="M24,54h12c0.553,0,1-0.448,1-1c0-0.552-0.447-1-1-1H24c-0.553,0-1,0.448-1,1C23,53.552,23.447,54,24,54z"/>
	<path fill="#231F20" d="M24,48h12c0.553,0,1-0.448,1-1c0-0.552-0.447-1-1-1H24c-0.553,0-1,0.448-1,1C23,47.552,23.447,48,24,48z"/>
	<path fill="#231F20" d="M24,42h12c0.553,0,1-0.448,1-1c0-0.552-0.447-1-1-1H24c-0.553,0-1,0.448-1,1C23,41.552,23.447,42,24,42z"/>
	<path fill="#231F20" d="M24,36h12c0.553,0,1-0.448,1-1c0-0.552-0.447-1-1-1H24c-0.553,0-1,0.448-1,1C23,35.552,23.447,36,24,36z"/>
	<path fill="#231F20" d="M24,30h12c0.553,0,1-0.448,1-1c0-0.552-0.447-1-1-1H24c-0.553,0-1,0.448-1,1C23,29.552,23.447,30,24,30z"/>
	<path fill="#231F20" d="M24,24h12c0.553,0,1-0.448,1-1c0-0.552-0.447-1-1-1H24c-0.553,0-1,0.448-1,1C23,23.552,23.447,24,24,24z"/>
	<path fill="#231F20" d="M24,18h12c0.553,0,1-0.448,1-1c0-0.552-0.447-1-1-1H24c-0.553,0-1,0.448-1,1C23,17.552,23.447,18,24,18z"/>
	<path fill="#231F20" d="M24,12h12c0.553,0,1-0.448,1-1c0-0.552-0.447-1-1-1H24c-0.553,0-1,0.448-1,1C23,11.552,23.447,12,24,12z"/>
	<path fill="#231F20" d="M24,6h12c0.553,0,1-0.448,1-1c0-0.552-0.447-1-1-1H24c-0.553,0-1,0.448-1,1C23,5.552,23.447,6,24,6z"/>
	<path fill="#231F20" d="M41,60h13c0.553,0,1-0.448,1-1c0-0.552-0.447-1-1-1H41c-0.553,0-1,0.448-1,1C40,59.552,40.447,60,41,60z"/>
	<path fill="#231F20" d="M41,54h13c0.553,0,1-0.448,1-1c0-0.552-0.447-1-1-1H41c-0.553,0-1,0.448-1,1C40,53.552,40.447,54,41,54z"/>
	<path fill="#231F20" d="M41,48h13c0.553,0,1-0.448,1-1c0-0.552-0.447-1-1-1H41c-0.553,0-1,0.448-1,1C40,47.552,40.447,48,41,48z"/>
</g>
</svg>
