<?xml version="1.0" encoding="utf-8"?>
<!-- Generator: Adobe Illustrator 17.0.0, SVG Export Plug-In . SVG Version: 6.00 Build 0)  -->
<!DOCTYPE svg PUBLIC "-//W3C//DTD SVG 1.1//EN" "http://www.w3.org/Graphics/SVG/1.1/DTD/svg11.dtd">
<svg version="1.1" id="Layer_1" xmlns="http://www.w3.org/2000/svg" xmlns:xlink="http://www.w3.org/1999/xlink" x="0px" y="0px"
	 width="60px" height="60px" viewBox="0 0 60 60" enable-background="new 0 0 60 60" xml:space="preserve">
<g>
	<path fill="#231F20" d="M30,0C13.458,0,0,13.458,0,30s13.458,30,30,30s30-13.458,30-30S46.542,0,30,0z M30,58
		C14.56,58,2,45.44,2,30S14.56,2,30,2s28,12.56,28,28S45.44,58,30,58z"/>
	<path fill="#231F20" d="M33.646,17.89c-0.298-0.252-0.713-0.308-1.067-0.144C32.227,17.909,32,18.263,32,18.652v5.738L21.713,17.81
		c-0.309-0.197-0.697-0.211-1.02-0.035c-0.32,0.175-0.52,0.512-0.52,0.877v22.695c0,0.365,0.199,0.702,0.52,0.877
		c0.322,0.176,0.711,0.164,1.02-0.035L32,35.609v5.738c0,0.39,0.227,0.744,0.579,0.907c0.135,0.062,0.278,0.093,0.421,0.093
		c0.232,0,0.462-0.081,0.646-0.237l13.392-11.348c0.225-0.19,0.354-0.469,0.354-0.763s-0.129-0.573-0.354-0.763L33.646,17.89z
		 M34,39.19v-5.407c0-0.365-0.199-0.702-0.52-0.877c-0.32-0.176-0.711-0.163-1.02,0.035l-10.287,6.581V20.479l10.287,6.581
		c0.309,0.197,0.699,0.211,1.02,0.035c0.32-0.175,0.52-0.512,0.52-0.877V20.81L44.845,30L34,39.19z"/>
</g>
</svg>
