<?xml version="1.0" encoding="utf-8"?>
<!-- Generator: Adobe Illustrator 17.0.0, SVG Export Plug-In . SVG Version: 6.00 Build 0)  -->
<!DOCTYPE svg PUBLIC "-//W3C//DTD SVG 1.1//EN" "http://www.w3.org/Graphics/SVG/1.1/DTD/svg11.dtd">
<svg version="1.1" id="Layer_1" xmlns="http://www.w3.org/2000/svg" xmlns:xlink="http://www.w3.org/1999/xlink" x="0px" y="0px"
	 width="60px" height="60px" viewBox="0 0 60 60" enable-background="new 0 0 60 60" xml:space="preserve">
<g>
	<path fill="#231F20" d="M30.924,51.939c-1.914,0.675-3.922,1.018-5.968,1.018c-9.877,0-17.912-8.036-17.912-17.913
		c0-9.878,8.035-17.913,17.912-17.913c7.647,0,14.457,4.856,16.945,12.083c0.18,0.521,0.748,0.799,1.271,0.62
		c0.522-0.18,0.8-0.748,0.62-1.271C41.026,20.528,33.457,15.13,24.956,15.13c-10.98,0-19.912,8.933-19.912,19.913
		c0,10.98,8.933,19.913,19.912,19.913c2.273,0,4.505-0.381,6.634-1.132c0.521-0.184,0.794-0.755,0.61-1.275
		C32.016,52.028,31.446,51.754,30.924,51.939z"/>
	<path fill="#231F20" d="M17.956,35.044c0,3.86,3.141,7,7,7c3.859,0,7-3.14,7-7c0-3.86-3.141-7-7-7
		C21.097,28.044,17.956,31.184,17.956,35.044z M29.956,35.044c0,2.757-2.243,5-5,5c-2.757,0-5-2.243-5-5c0-2.757,2.243-5,5-5
		C27.713,30.044,29.956,32.287,29.956,35.044z"/>
	<path fill="#231F20" d="M22.695,35.044c0,1.246,1.014,2.261,2.261,2.261c1.247,0,2.262-1.014,2.262-2.261
		c0-1.247-1.015-2.261-2.262-2.261C23.709,32.783,22.695,33.797,22.695,35.044z M25.218,35.044c0,0.286-0.522,0.288-0.522,0
		c0-0.144,0.117-0.261,0.261-0.261C25.101,34.783,25.218,34.9,25.218,35.044z"/>
	<path fill="#231F20" d="M54,7.044C54,4.606,52.383,1,48.913,1C45.722,1,44,4.114,44,7.044v2.958L0,10.089V60h60V10h-6V7.044z
		 M46,7.044C46,5.48,46.791,3,48.913,3C51.095,3,52,5.633,52,7.044V14h-6V7.044z M58,12v46H2V12.085l42-0.083V16h4v16.616
		l-5.852,6.488l-2.8-2.8l-5.35,5.35c-1.97,1.969-1.97,5.163,0,7.132c0.985,0.985,2.276,1.478,3.566,1.478
		c1.29,0,2.581-0.492,3.565-1.476l5.351-5.35l-2.917-2.917L50,33.384V16h4v-4H58z M43.652,43.438l-3.935,3.935
		c-0.575,0.575-1.34,0.891-2.152,0.891s-1.577-0.316-2.152-0.892c-0.575-0.575-0.892-1.338-0.892-2.151
		c0-0.812,0.316-1.577,0.893-2.152l3.935-3.936L43.652,43.438z"/>
</g>
</svg>
