<?xml version="1.0" encoding="utf-8"?>
<!-- Generator: Adobe Illustrator 17.0.0, SVG Export Plug-In . SVG Version: 6.00 Build 0)  -->
<!DOCTYPE svg PUBLIC "-//W3C//DTD SVG 1.1//EN" "http://www.w3.org/Graphics/SVG/1.1/DTD/svg11.dtd">
<svg version="1.1" id="Layer_1" xmlns="http://www.w3.org/2000/svg" xmlns:xlink="http://www.w3.org/1999/xlink" x="0px" y="0px"
	 width="60px" height="60px" viewBox="0 0 60 60" enable-background="new 0 0 60 60" xml:space="preserve">
<g>
	<path fill="#231F20" d="M30,45c8.271,0,15-6.729,15-15s-6.729-15-15-15c-8.272,0-15,6.729-15,15S21.728,45,30,45z M30,17
		c7.168,0,13,5.832,13,13c0,7.169-5.832,13-13,13s-13-5.831-13-13C17,22.832,22.832,17,30,17z"/>
	<path fill="#231F20" d="M49.865,18.957C49.361,8.422,40.658,0,30,0C19.342,0,10.639,8.422,10.135,18.957
		C4.474,19.404,0,24.181,0,30c0,6.113,4.935,11.087,11,11.087c0.553,0,1-0.448,1-1V20.315c0.054-0.123,0.087-0.258,0.087-0.402
		C12.087,10.036,20.123,2,30,2s17.913,8.036,17.913,17.913c0,0.143,0.033,0.278,0.087,0.402v19.772c0,0.552,0.447,1,1,1
		c6.065,0,11-4.974,11-11.087C60,24.181,55.526,19.404,49.865,18.957z M10,39.031C5.506,38.527,2,34.669,2,30
		c0-4.669,3.506-8.527,8-9.031V39.031z M50,39.031V20.969c4.494,0.504,8,4.362,8,9.031C58,34.669,54.494,38.527,50,39.031z"/>
	<path fill="#231F20" d="M8.826,59c0,0.552,0.447,1,1,1h40.348c0.553,0,1-0.448,1-1c0-4.878-3.923-9-8.565-9H17.392
		C12.749,50,8.826,54.122,8.826,59z M17.392,52h25.217c3.181,0,6.006,2.705,6.492,6H10.899C11.386,54.705,14.211,52,17.392,52z"/>
</g>
</svg>
