<?xml version="1.0" encoding="utf-8"?>
<!-- Generator: Adobe Illustrator 17.0.0, SVG Export Plug-In . SVG Version: 6.00 Build 0)  -->
<!DOCTYPE svg PUBLIC "-//W3C//DTD SVG 1.1//EN" "http://www.w3.org/Graphics/SVG/1.1/DTD/svg11.dtd">
<svg version="1.1" id="Layer_1" xmlns="http://www.w3.org/2000/svg" xmlns:xlink="http://www.w3.org/1999/xlink" x="0px" y="0px"
	 width="60px" height="60px" viewBox="0 0 60 60" enable-background="new 0 0 60 60" xml:space="preserve">
<g>
	<path fill="#231F20" d="M29,60c0.552,0,1-0.448,1-1v-4.171c2.139-0.465,3.775-2.249,3.974-4.524l2.157-25.206
		C39.835,22.75,42.326,18.67,42.46,14H44c0.552,0,1-0.448,1-1c0-0.552-0.448-1-1-1h-1.624c-0.8-6.747-6.546-12-13.505-12
		S16.166,5.253,15.366,12h-1.627c-0.552,0-1,0.448-1,1c0,0.552,0.448,1,1,1h1.543c0.134,4.67,2.625,8.75,6.329,11.099l2.149,25.144
		c0.208,2.38,1.967,4.234,4.239,4.628V59C28,59.552,28.448,60,29,60z M28.871,2c5.854,0,10.697,4.359,11.484,10H17.387
		C18.174,6.359,23.017,2,28.871,2z M17.282,14H40.46c-0.209,6.219-5.32,11.217-11.589,11.217C22.602,25.217,17.491,20.219,17.282,14
		z M25.753,50.072l-2.041-23.876c1.592,0.655,3.332,1.022,5.158,1.022c1.826,0,3.566-0.367,5.158-1.022l-2.048,23.937
		c-0.141,1.61-1.464,2.824-3.08,2.824C27.25,52.957,25.896,51.715,25.753,50.072z"/>
	<path fill="#231F20" d="M30,38.826v-5.044c0-0.552-0.448-1-1-1s-1,0.448-1,1v5.044c0,0.552,0.448,1,1,1S30,39.378,30,38.826z"/>
</g>
</svg>
