<?xml version="1.0" encoding="utf-8"?>
<!-- Generator: Adobe Illustrator 17.0.0, SVG Export Plug-In . SVG Version: 6.00 Build 0)  -->
<!DOCTYPE svg PUBLIC "-//W3C//DTD SVG 1.1//EN" "http://www.w3.org/Graphics/SVG/1.1/DTD/svg11.dtd">
<svg version="1.1" id="Layer_1" xmlns="http://www.w3.org/2000/svg" xmlns:xlink="http://www.w3.org/1999/xlink" x="0px" y="0px"
	 width="60px" height="60px" viewBox="0 0 60 60" enable-background="new 0 0 60 60" xml:space="preserve">
<g>
	<path fill="#231F20" d="M29,0c-0.013,0-0.023,0.007-0.036,0.007C28.918,0.007,28.873,0,28.826,0c-2.165,0-4.213,0.382-6.098,1.055
		c-0.057,0.017-0.113,0.03-0.165,0.056c-5.88,2.166-10.037,7.317-10.502,13.589C12.03,14.796,12,14.893,12,15
		c0,0.063,0.025,0.118,0.036,0.178C12.026,15.409,12,15.636,12,15.87V30h-2v-4.043c0-0.552-0.448-1-1-1s-1,0.448-1,1l0,5.013
		c-0.174,5.644,1.853,10.94,5.707,14.915c3.744,3.862,8.797,6.047,14.292,6.25V60h2v-7.884C41.303,51.523,50,42.476,50,31v-5
		c0-0.552-0.448-1-1-1s-1,0.448-1,1v4h-2V15.87c0-0.224-0.029-0.445-0.041-0.668C45.974,15.134,46,15.071,46,15
		c0-0.133-0.029-0.259-0.076-0.375C45.167,6.896,37.504,0.136,29.06,0.012C29.039,0.011,29.021,0,29,0z M28.826,50.174
		c-5.271,0-10.13-2.018-13.683-5.682c-3.246-3.347-5.031-7.746-5.126-12.492h2.04C12.65,40.098,20.301,47,29,47
		s16.35-6.902,16.942-15h2.009C47.444,42.266,39.239,50.174,28.826,50.174z M14.06,32h29.88C43.328,38.922,36.491,45,29,45
		S14.672,38.922,14.06,32z M43.822,14H33.87c-0.552,0-1,0.448-1,1c0,0.552,0.448,1,1,1H44v4H33.87c-0.552,0-1,0.448-1,1
		c0,0.552,0.448,1,1,1H44v4H33.87c-0.552,0-1,0.448-1,1c0,0.552,0.448,1,1,1H44v2H14v-2h9.783c0.552,0,1-0.448,1-1
		c0-0.552-0.448-1-1-1H14v-4h9.783c0.552,0,1-0.448,1-1c0-0.552-0.448-1-1-1H14v-4h9.783c0.552,0,1-0.448,1-1c0-0.552-0.448-1-1-1
		h-9.649C14.786,9.066,17.977,5.457,22,3.55V8c0,0.552,0.448,1,1,1s1-0.448,1-1V2.77c1.3-0.414,2.647-0.662,4-0.734V8
		c0,0.552,0.448,1,1,1s1-0.448,1-1V2.06c1.382,0.113,2.727,0.423,4.009,0.894C34.008,2.971,34,2.984,34,3v5c0,0.552,0.448,1,1,1
		s1-0.448,1-1V3.833C40.052,5.979,43.105,9.783,43.822,14z"/>
</g>
</svg>
