<?xml version="1.0" encoding="utf-8"?>
<!-- Generator: Adobe Illustrator 17.0.0, SVG Export Plug-In . SVG Version: 6.00 Build 0)  -->
<!DOCTYPE svg PUBLIC "-//W3C//DTD SVG 1.1//EN" "http://www.w3.org/Graphics/SVG/1.1/DTD/svg11.dtd">
<svg version="1.1" id="Layer_1" xmlns="http://www.w3.org/2000/svg" xmlns:xlink="http://www.w3.org/1999/xlink" x="0px" y="0px"
	 width="60px" height="60px" viewBox="0 0 60 60" enable-background="new 0 0 60 60" xml:space="preserve">
<g>
	<path fill="#231F20" d="M12,11v22c0,6.065,4.935,11,11,11h7v4.05c-5.33,0.802-9.435,5.399-9.435,10.95c0,0.552,0.448,1,1,1h20.174
		c0.007,0,0.013,0,0.02,0c0.552,0,1-0.448,1-1c0-0.072-0.008-0.142-0.022-0.209c-0.11-5.9-4.855-10.676-10.737-10.86V44h5
		c6.065,0,11-4.935,11-11V11c0-6.065-4.935-11-11-11H23C16.935,0,12,4.935,12,11z M40.685,58H22.62
		c0.499-4.542,4.359-8.087,9.032-8.087C36.325,49.913,40.185,53.458,40.685,58z M45.941,10h-4.202c-0.552,0-1,0.448-1,1
		c0,0.552,0.448,1,1,1H46v4h-4.261c-0.552,0-1,0.448-1,1c0,0.552,0.448,1,1,1H46v4h-4.261c-0.552,0-1,0.448-1,1c0,0.552,0.448,1,1,1
		H46v9c0,4.962-4.038,9-9,9h-5v-3.09c2.833-0.478,5-2.942,5-5.91c0-3.309-2.691-6-6-6s-6,2.691-6,6c0,2.967,2.167,5.431,5,5.91V42
		h-7c-4.962,0-9-4.038-9-9v-9h15.13c0.552,0,1-0.448,1-1c0-0.552-0.448-1-1-1H14v-4h15.13c0.552,0,1-0.448,1-1c0-0.552-0.448-1-1-1
		H14v-4h15.13c0.552,0,1-0.448,1-1c0-0.552-0.448-1-1-1H14.059c0.5-4.493,4.317-8,8.941-8h14C41.624,2,45.441,5.507,45.941,10z
		 M31,37c-2.206,0-4-1.794-4-4c0-2.206,1.794-4,4-4c2.206,0,4,1.794,4,4C35,35.206,33.206,37,31,37z"/>
</g>
</svg>
