<?xml version="1.0" encoding="utf-8"?>
<!-- Generator: Adobe Illustrator 17.0.0, SVG Export Plug-In . SVG Version: 6.00 Build 0)  -->
<!DOCTYPE svg PUBLIC "-//W3C//DTD SVG 1.1//EN" "http://www.w3.org/Graphics/SVG/1.1/DTD/svg11.dtd">
<svg version="1.1" id="Layer_1" xmlns="http://www.w3.org/2000/svg" xmlns:xlink="http://www.w3.org/1999/xlink" x="0px" y="0px"
	 width="60px" height="60px" viewBox="0 0 60 60" enable-background="new 0 0 60 60" xml:space="preserve">
<g>
	<path fill="#231F20" d="M44.316,29.192L21.621,17.845c-0.311-0.154-0.678-0.138-0.973,0.044c-0.295,0.182-0.475,0.504-0.475,0.851
		v22.695c0,0.347,0.18,0.668,0.475,0.851c0.16,0.099,0.343,0.149,0.525,0.149c0.153,0,0.306-0.035,0.447-0.106l22.695-11.348
		c0.339-0.169,0.553-0.516,0.553-0.894S44.655,29.362,44.316,29.192z M22.174,39.816V20.357l19.459,9.729L22.174,39.816z"/>
	<path fill="#231F20" d="M51.258,9.034C51.174,9.011,51.087,9,51,9H9C8.913,9,8.826,9.011,8.742,9.034
		C3.595,10.407,0,14.577,0,19.174V41c0,4.624,3.691,8.819,8.778,9.975C8.852,50.992,8.926,51,9,51h42
		c0.074,0,0.148-0.008,0.222-0.025C56.309,49.819,60,45.624,60,41V19.174C60,14.577,56.405,10.407,51.258,9.034z M58,41
		c0,3.667-2.985,7.016-7.115,8H9.115C4.985,48.016,2,44.667,2,41V19.174C2,15.517,4.927,12.172,9.134,11h41.732
		C55.073,12.172,58,15.517,58,19.174V41z"/>
</g>
</svg>
