<?xml version="1.0" encoding="utf-8"?>
<!-- Generator: Adobe Illustrator 17.0.0, SVG Export Plug-In . SVG Version: 6.00 Build 0)  -->
<!DOCTYPE svg PUBLIC "-//W3C//DTD SVG 1.1//EN" "http://www.w3.org/Graphics/SVG/1.1/DTD/svg11.dtd">
<svg version="1.1" id="Layer_1" xmlns="http://www.w3.org/2000/svg" xmlns:xlink="http://www.w3.org/1999/xlink" x="0px" y="0px"
	 width="60px" height="60px" viewBox="0 0 60 60" enable-background="new 0 0 60 60" xml:space="preserve">
<g>
	<path fill="#231F20" d="M59,4H1C0.447,4,0,4.448,0,5v50c0,0.552,0.447,1,1,1h58c0.553,0,1-0.448,1-1V5C60,4.448,59.553,4,59,4z
		 M2,6h6v48H2V6z M58,54H10V6h48V54z"/>
	<path fill="#231F20" d="M25,46c3.454,0,5-1.507,5-3v-5v-3V23.554l14-8.75V28h-3c-2.421,0-7,1.254-7,6s4.579,6,7,6
		c3.282,0,5-1.509,5-3v-5v-3V13c0-0.364-0.197-0.698-0.516-0.875c-0.317-0.177-0.706-0.166-1.015,0.026l-16,10
		C28.178,22.335,28,22.655,28,23v11h-3c-3.484,0-7,1.856-7,6S21.516,46,25,46z M44,37c0,0.177-0.781,1-3,1c-0.204,0-5-0.045-5-4
		s4.796-4,5-4h3v2V37z M25,36h3v2v5c0,0.294-0.863,1-3,1c-0.512,0-5-0.112-5-4S24.488,36,25,36z"/>
</g>
</svg>
