<?xml version="1.0" encoding="utf-8"?>
<!-- Generator: Adobe Illustrator 17.0.0, SVG Export Plug-In . SVG Version: 6.00 Build 0)  -->
<!DOCTYPE svg PUBLIC "-//W3C//DTD SVG 1.1//EN" "http://www.w3.org/Graphics/SVG/1.1/DTD/svg11.dtd">
<svg version="1.1" id="Layer_1" xmlns="http://www.w3.org/2000/svg" xmlns:xlink="http://www.w3.org/1999/xlink" x="0px" y="0px"
	 width="60px" height="60px" viewBox="0 0 60 60" enable-background="new 0 0 60 60" xml:space="preserve">
<g>
	<path fill="#231F20" d="M13,60c4.794,0,9-3.738,9-8v-5.609V43V23.681l26-10.214V33h-6c-4.879,0-9,3.922-9,8.565
		C33,46.137,37.121,50,42,50c4.56,0,8-3.439,8-8v-3.174V33V0.533L20,12.318V43h-7c-4.561,0-8,3.682-8,8.565C5,56.453,8.364,60,13,60
		z M48,42c0,3.42-2.579,6-6,6c-3.794,0-7-2.947-7-6.435C35,38.068,38.271,35,42,35h6v3.826V42z M48,3.467v7.851L22,21.533v-7.851
		L48,3.467z M13,45h7v1.391V52c0,3.14-3.337,6-7,6c-3.477,0-6-2.706-6-6.435C7,47.761,9.523,45,13,45z"/>
</g>
</svg>
