<?xml version="1.0" encoding="utf-8"?>
<!-- Generator: Adobe Illustrator 17.0.0, SVG Export Plug-In . SVG Version: 6.00 Build 0)  -->
<!DOCTYPE svg PUBLIC "-//W3C//DTD SVG 1.1//EN" "http://www.w3.org/Graphics/SVG/1.1/DTD/svg11.dtd">
<svg version="1.1" id="Layer_1" xmlns="http://www.w3.org/2000/svg" xmlns:xlink="http://www.w3.org/1999/xlink" x="0px" y="0px"
	 width="60px" height="60px" viewBox="0 0 60 60" enable-background="new 0 0 60 60" xml:space="preserve">
<g>
	<path fill="#231F20" d="M52,51V1c0-0.552-0.447-1-1-1H1C0.447,0,0,0.448,0,1v50c0,0.552,0.447,1,1,1h50C51.553,52,52,51.552,52,51z
		 M50,50H2V2h48V50z"/>
	<path fill="#231F20" d="M59,8h-2.522c-0.553,0-1,0.448-1,1s0.447,1,1,1H58v48H10v-1.521c0-0.552-0.447-1-1-1c-0.553,0-1,0.448-1,1
		V59c0,0.552,0.447,1,1,1h50c0.553,0,1-0.448,1-1V9C60,8.448,59.553,8,59,8z"/>
	<path fill="#231F20" d="M17,42c3.454,0,5-1.507,5-3v-5v-3V19.554l14-8.75V24h-3c-2.421,0-7,1.254-7,6s4.579,6,7,6
		c3.282,0,5-1.509,5-3v-5v-3V9c0-0.364-0.197-0.698-0.516-0.875c-0.316-0.177-0.706-0.167-1.015,0.026l-16,10
		C20.178,18.335,20,18.655,20,19v11h-3c-3.484,0-7,1.856-7,6S13.516,42,17,42z M36,33c0,0.177-0.781,1-3,1c-0.204,0-5-0.045-5-4
		s4.796-4,5-4h3v2V33z M17,32h3v2v5c0,0.294-0.863,1-3,1c-0.512,0-5-0.112-5-4S16.488,32,17,32z"/>
</g>
</svg>
