<?xml version="1.0" encoding="utf-8"?>
<!-- Generator: Adobe Illustrator 17.0.0, SVG Export Plug-In . SVG Version: 6.00 Build 0)  -->
<!DOCTYPE svg PUBLIC "-//W3C//DTD SVG 1.1//EN" "http://www.w3.org/Graphics/SVG/1.1/DTD/svg11.dtd">
<svg version="1.1" id="Layer_1" xmlns="http://www.w3.org/2000/svg" xmlns:xlink="http://www.w3.org/1999/xlink" x="0px" y="0px"
	 width="60px" height="60px" viewBox="0 0 60 60" enable-background="new 0 0 60 60" xml:space="preserve">
<g>
	<path fill="#231F20" d="M21,48c3.435,0,5-1.6,5-3.087V39.87V37V25.291l14-8.826V30h-3c-2.421,0-7,1.254-7,6s4.579,6,7,6
		c3.282,0,5-1.509,5-3v-5.435V31V14.652c0-0.364-0.198-0.7-0.517-0.875c-0.321-0.176-0.71-0.165-1.017,0.03l-16,10.087
		C24.176,24.077,24,24.396,24,24.739V36h-3c-3.484,0-7,1.856-7,6S17.516,48,21,48z M40,39c0,0.177-0.781,1-3,1c-0.204,0-5-0.045-5-4
		s4.796-4,5-4h3v1.565V39z M21,38h3v1.87v5.043C24,45.223,23.107,46,21,46c-0.512,0-5-0.112-5-4S20.488,38,21,38z"/>
	<path fill="#231F20" d="M59,12h-5V7.087c0-0.552-0.447-1-1-1H7c-0.553,0-1,0.448-1,1V12H1c-0.553,0-1,0.448-1,1v36
		c0,0.552,0.447,1,1,1h5v5c0,0.552,0.447,1,1,1h46c0.553,0,1-0.448,1-1v-5h5c0.553,0,1-0.448,1-1V13C60,12.448,59.553,12,59,12z
		 M2,48V14h4v34H2z M52,54H8V8.087h44V54z M58,48h-4V14h4V48z"/>
</g>
</svg>
