<?xml version="1.0" encoding="utf-8"?>
<!-- Generator: Adobe Illustrator 17.0.0, SVG Export Plug-In . SVG Version: 6.00 Build 0)  -->
<!DOCTYPE svg PUBLIC "-//W3C//DTD SVG 1.1//EN" "http://www.w3.org/Graphics/SVG/1.1/DTD/svg11.dtd">
<svg version="1.1" id="Layer_1" xmlns="http://www.w3.org/2000/svg" xmlns:xlink="http://www.w3.org/1999/xlink" x="0px" y="0px"
	 width="60px" height="60px" viewBox="0 0 60 60" enable-background="new 0 0 60 60" xml:space="preserve">
<g>
	<path fill="#231F20" d="M30,0C13.458,0,0,13.458,0,30s13.458,30,30,30s30-13.458,30-30S46.542,0,30,0z M30,58
		C14.56,58,2,45.44,2,30S14.56,2,30,2s28,12.56,28,28S45.44,58,30,58z"/>
	<path fill="#231F20" d="M27,18h-6c-0.552,0-1,0.448-1,1v24c0,0.552,0.448,1,1,1h6c0.552,0,1-0.448,1-1V19
		C28,18.448,27.552,18,27,18z M26,42h-4V20h4V42z"/>
	<path fill="#231F20" d="M39,18h-6c-0.552,0-1,0.448-1,1v24c0,0.552,0.448,1,1,1h6c0.552,0,1-0.448,1-1V19
		C40,18.448,39.552,18,39,18z M38,42h-4V20h4V42z"/>
</g>
</svg>
