<?xml version="1.0" encoding="utf-8"?>
<!-- Generator: Adobe Illustrator 17.0.0, SVG Export Plug-In . SVG Version: 6.00 Build 0)  -->
<!DOCTYPE svg PUBLIC "-//W3C//DTD SVG 1.1//EN" "http://www.w3.org/Graphics/SVG/1.1/DTD/svg11.dtd">
<svg version="1.1" id="Layer_1" xmlns="http://www.w3.org/2000/svg" xmlns:xlink="http://www.w3.org/1999/xlink" x="0px" y="0px"
	 width="60px" height="60px" viewBox="0 0 60 60" enable-background="new 0 0 60 60" xml:space="preserve">
<g>
	<path fill="#231F20" d="M55,12h-7V9c0-0.552-0.447-1-1-1h-4c-0.553,0-1,0.448-1,1v3h-4V9c0-0.552-0.447-1-1-1h-4
		c-0.553,0-1,0.448-1,1v3h-4V9c0-0.552-0.447-1-1-1h-4c-0.553,0-1,0.448-1,1v3h-4V9c0-0.552-0.447-1-1-1h-4c-0.553,0-1,0.448-1,1v3
		H5c-0.553,0-1,0.448-1,1v38c0,0.552,0.447,1,1,1h50c0.553,0,1-0.448,1-1V13C56,12.448,55.553,12,55,12z M44,10h2v24h-2V10z M42,14
		v21c0,0.552,0.447,1,1,1h1v13.391c0,0.233,0.093,0.439,0.227,0.609H36V36h1c0.553,0,1-0.448,1-1V14H42z M34,10h2v24h-2V10z M32,14
		v21c0,0.552,0.447,1,1,1h1v14h-8V36h1c0.553,0,1-0.448,1-1V14H32z M24,10h2v24h-2V10z M22,14v21c0,0.552,0.447,1,1,1h1v14h-8V36h1
		c0.553,0,1-0.448,1-1V14H22z M14,10h2v24h-2V10z M6,14h6v21c0,0.552,0.447,1,1,1h1v14H6V14z M54,50h-8.227
		C45.907,49.83,46,49.625,46,49.391V36h1c0.553,0,1-0.448,1-1V14h6V50z"/>
</g>
</svg>
