<?xml version="1.0" encoding="utf-8"?>
<!-- Generator: Adobe Illustrator 17.0.0, SVG Export Plug-In . SVG Version: 6.00 Build 0)  -->
<!DOCTYPE svg PUBLIC "-//W3C//DTD SVG 1.1//EN" "http://www.w3.org/Graphics/SVG/1.1/DTD/svg11.dtd">
<svg version="1.1" id="Layer_1" xmlns="http://www.w3.org/2000/svg" xmlns:xlink="http://www.w3.org/1999/xlink" x="0px" y="0px"
	 width="60px" height="60px" viewBox="0 0 60 60" enable-background="new 0 0 60 60" xml:space="preserve">
<g>
	<path fill="#231F20" d="M30.797,51.435c0,4.723,3.843,8.565,8.565,8.565c4.583,0,8.174-3.514,8.174-8v-5.609V45V6.903
		c0.647,0.873,1.493,1.744,2.619,2.494c10.667,7.112,7.004,16.628,5.44,20.691c-0.125,0.323-0.232,0.604-0.308,0.815l-1.445,3.783
		c-0.196,0.516,0.062,1.094,0.578,1.291c0.117,0.045,0.237,0.066,0.356,0.066c0.402,0,0.782-0.245,0.935-0.643l1.453-3.806
		c0.078-0.22,0.18-0.484,0.297-0.787c1.587-4.122,5.802-15.073-6.197-23.074c-3.193-2.13-3.682-5.42-3.729-5.791V1
		c0-0.552-0.447-1-1-1c-0.553,0-1,0.448-1,1v43h-6C34.391,44,30.797,47.057,30.797,51.435z M45.536,46.391V52
		c0,3.364-2.712,6-6.174,6c-3.62,0-6.565-2.945-6.565-6.565c0-3.754,3.385-5.435,6.739-5.435h6V46.391z"/>
	<path fill="#231F20" d="M1.536,16h30.261c0.553,0,1-0.448,1-1c0-0.552-0.447-1-1-1H1.536c-0.553,0-1,0.448-1,1
		C0.536,15.552,0.983,16,1.536,16z"/>
	<path fill="#231F20" d="M1.536,22h30.261c0.553,0,1-0.448,1-1c0-0.552-0.447-1-1-1H1.536c-0.553,0-1,0.448-1,1
		C0.536,21.552,0.983,22,1.536,22z"/>
	<path fill="#231F20" d="M1.536,28h30.261c0.553,0,1-0.448,1-1c0-0.552-0.447-1-1-1H1.536c-0.553,0-1,0.448-1,1
		C0.536,27.552,0.983,28,1.536,28z"/>
	<path fill="#231F20" d="M1.536,34h30.261c0.553,0,1-0.448,1-1c0-0.552-0.447-1-1-1H1.536c-0.553,0-1,0.448-1,1
		C0.536,33.552,0.983,34,1.536,34z"/>
	<path fill="#231F20" d="M1.536,40h25.218c0.553,0,1-0.448,1-1c0-0.552-0.447-1-1-1H1.536c-0.553,0-1,0.448-1,1
		C0.536,39.552,0.983,40,1.536,40z"/>
	<path fill="#231F20" d="M1.536,46h17.652c0.553,0,1-0.448,1-1c0-0.552-0.447-1-1-1H1.536c-0.553,0-1,0.448-1,1
		C0.536,45.552,0.983,46,1.536,46z"/>
</g>
</svg>
