<?xml version="1.0" encoding="utf-8"?>
<!-- Generator: Adobe Illustrator 17.0.0, SVG Export Plug-In . SVG Version: 6.00 Build 0)  -->
<!DOCTYPE svg PUBLIC "-//W3C//DTD SVG 1.1//EN" "http://www.w3.org/Graphics/SVG/1.1/DTD/svg11.dtd">
<svg version="1.1" id="Layer_1" xmlns="http://www.w3.org/2000/svg" xmlns:xlink="http://www.w3.org/1999/xlink" x="0px" y="0px"
	 width="60px" height="60px" viewBox="0 0 60 60" enable-background="new 0 0 60 60" xml:space="preserve">
<g>
	<path fill="#231F20" d="M30,0C13.458,0,0,13.458,0,30s13.458,30,30,30s30-13.458,30-30S46.542,0,30,0z M30,58
		C14.56,58,2,45.44,2,30S14.56,2,30,2s28,12.56,28,28S45.44,58,30,58z"/>
	<path fill="#231F20" d="M44.317,29.106L21.621,17.758c-0.31-0.154-0.677-0.139-0.973,0.044c-0.294,0.182-0.474,0.504-0.474,0.85
		v22.695c0,0.347,0.18,0.668,0.474,0.85c0.161,0.099,0.343,0.15,0.526,0.15c0.153,0,0.306-0.035,0.447-0.106l22.696-11.348
		c0.339-0.169,0.553-0.516,0.553-0.895S44.656,29.275,44.317,29.106z M22.174,39.729V20.271L41.633,30L22.174,39.729z"/>
</g>
</svg>
