<?xml version="1.0" encoding="utf-8"?>
<!-- Generator: Adobe Illustrator 17.0.0, SVG Export Plug-In . SVG Version: 6.00 Build 0)  -->
<!DOCTYPE svg PUBLIC "-//W3C//DTD SVG 1.1//EN" "http://www.w3.org/Graphics/SVG/1.1/DTD/svg11.dtd">
<svg version="1.1" id="Layer_1" xmlns="http://www.w3.org/2000/svg" xmlns:xlink="http://www.w3.org/1999/xlink" x="0px" y="0px"
	 width="60px" height="60px" viewBox="0 0 60 60" enable-background="new 0 0 60 60" xml:space="preserve">
<g>
	<path fill="#231F20" d="M30,60c16.542,0,30-13.458,30-30S46.542,0,30,0S0,13.458,0,30S13.458,60,30,60z M30,2
		c15.439,0,28,12.56,28,28S45.439,58,30,58C14.56,58,2,45.44,2,30S14.56,2,30,2z"/>
	<path fill="#231F20" d="M19,42h4c0.553,0,1-0.448,1-1V19c0-0.552-0.447-1-1-1h-4c-0.553,0-1,0.448-1,1v22
		C18,41.552,18.447,42,19,42z M20,20h2v20h-2V20z"/>
	<path fill="#231F20" d="M40.332,41.744C40.519,41.912,40.758,42,41,42c0.138,0,0.276-0.028,0.407-0.087
		C41.768,41.752,42,41.395,42,41V19c0-0.394-0.232-0.752-0.593-0.913c-0.36-0.161-0.78-0.094-1.075,0.169l-12.261,11
		c-0.211,0.189-0.332,0.46-0.332,0.744s0.121,0.555,0.332,0.744L40.332,41.744z M40,21.241v17.519L30.236,30L40,21.241z"/>
</g>
</svg>
