<?xml version="1.0" encoding="utf-8"?>
<!-- Generator: Adobe Illustrator 17.0.0, SVG Export Plug-In . SVG Version: 6.00 Build 0)  -->
<!DOCTYPE svg PUBLIC "-//W3C//DTD SVG 1.1//EN" "http://www.w3.org/Graphics/SVG/1.1/DTD/svg11.dtd">
<svg version="1.1" id="Layer_1" xmlns="http://www.w3.org/2000/svg" xmlns:xlink="http://www.w3.org/1999/xlink" x="0px" y="0px"
	 width="60px" height="60px" viewBox="0 0 60 60" enable-background="new 0 0 60 60" xml:space="preserve">
<g>
	<path fill="#231F20" d="M55,29.744V26.5c0-2.481-2.243-4.5-5-4.5v-7c0-1.654-1.346-3-3-3H13c-1.654,0-3,1.346-3,3v7
		c-2.757,0-5,2.019-5,4.5v3.244C1.992,31.729,0,35.134,0,39c0,6.113,4.974,11.087,11.087,11.087h37.826
		C55.026,50.087,60,45.113,60,39C60,35.134,58.008,31.729,55,29.744z M12,15c0-0.551,0.449-1,1-1h34c0.551,0,1,0.449,1,1v7h-7.913
		H19.913H12V15z M37.928,24l-3.392,4h-9.073l-3.392-4H37.928z M2,39c0-5.011,4.076-9.087,9.087-9.087
		c5.011,0,9.087,4.076,9.087,9.087c0,5.011-4.076,9.087-9.087,9.087C6.076,48.087,2,44.011,2,39z M17.42,48.087
		c2.869-2.006,4.754-5.328,4.754-9.087c0-6.113-4.974-11.087-11.087-11.087c-1.444,0-2.821,0.286-4.087,0.79V26.5
		c0-1.378,1.346-2.5,3-2.5h9.45l4.787,5.647C24.427,29.871,24.706,30,25,30h10c0.294,0,0.573-0.129,0.763-0.353L40.55,24H50
		c1.654,0,3,1.122,3,2.5v2.203c-1.266-0.505-2.643-0.79-4.087-0.79c-6.113,0-11.087,4.974-11.087,11.087
		c0,3.759,1.884,7.081,4.754,9.087H17.42z M48.913,48.087c-5.011,0-9.087-4.076-9.087-9.087c0-5.011,4.076-9.087,9.087-9.087
		C53.924,29.913,58,33.989,58,39C58,44.011,53.924,48.087,48.913,48.087z"/>
	<path fill="#231F20" d="M33.783,36h-7.565c-0.552,0-1,0.448-1,1c0,0.552,0.448,1,1,1h7.565c0.552,0,1-0.448,1-1
		C34.783,36.448,34.335,36,33.783,36z"/>
	<path fill="#231F20" d="M48.913,35.479c-1.942,0-3.522,1.58-3.522,3.521s1.58,3.522,3.522,3.522s3.521-1.58,3.521-3.522
		S50.855,35.479,48.913,35.479z M48.913,40.522c-0.839,0-1.522-0.683-1.522-1.522c0-0.839,0.683-1.521,1.522-1.521
		c0.839,0,1.521,0.683,1.521,1.521C50.435,39.839,49.752,40.522,48.913,40.522z"/>
	<path fill="#231F20" d="M14.609,39c0-1.942-1.58-3.521-3.522-3.521S7.565,37.058,7.565,39s1.58,3.522,3.521,3.522
		S14.609,40.942,14.609,39z M9.565,39c0-0.839,0.683-1.521,1.521-1.521c0.839,0,1.522,0.683,1.522,1.521
		c0,0.839-0.683,1.522-1.522,1.522C10.248,40.522,9.565,39.839,9.565,39z"/>
</g>
</svg>
