<?xml version="1.0" encoding="utf-8"?>
<!-- Generator: Adobe Illustrator 17.0.0, SVG Export Plug-In . SVG Version: 6.00 Build 0)  -->
<!DOCTYPE svg PUBLIC "-//W3C//DTD SVG 1.1//EN" "http://www.w3.org/Graphics/SVG/1.1/DTD/svg11.dtd">
<svg version="1.1" id="Layer_1" xmlns="http://www.w3.org/2000/svg" xmlns:xlink="http://www.w3.org/1999/xlink" x="0px" y="0px"
	 width="60px" height="60px" viewBox="0 0 60 60" enable-background="new 0 0 60 60" xml:space="preserve">
<g>
	<path fill="#231F20" d="M53.956,20.174H10.28L46.838,1.895c0.494-0.247,0.694-0.848,0.447-1.342
		c-0.246-0.494-0.846-0.695-1.342-0.447L5.781,20.187C2.57,20.326,0,22.974,0,26.217v25.217C0,54.592,2.31,58,6.044,58H12v1
		c0,0.552,0.448,1,1,1s1-0.448,1-1v-1h32v1c0,0.552,0.448,1,1,1s1-0.448,1-1v-1h5.956C57.69,58,60,54.592,60,51.435V26.217
		C60,22.885,57.289,20.174,53.956,20.174z M58,51.435C58,53.63,56.454,56,53.956,56H6.044C3.546,56,2,53.63,2,51.435V26.217
		c0-2.23,1.814-4.044,4.044-4.044h47.913c2.229,0,4.044,1.814,4.044,4.044V51.435z"/>
	<path fill="#231F20" d="M49.174,26H11c-1.548,0-3.08,0.582-3.997,1.52C6.327,28.211,5.98,29.076,6,30v6c0,3.545,2.672,4,5,4h38
		c2.424,0,5-1.402,5-4v-6C54,27.252,51.498,26,49.174,26z M8,32h44v2H8V32z M8.433,28.918C8.971,28.369,10.002,28,11,28h38.173
		C50.224,28,52,28.421,52,30H8v-0.021C7.991,29.572,8.133,29.225,8.433,28.918z M49,38H11c-2.798,0-3-0.755-3-2h44
		C52,37.379,50.246,38,49,38z"/>
	<path fill="#231F20" d="M11.087,45.391c-1.942,0-3.522,1.58-3.522,3.522c0,1.942,1.58,3.521,3.522,3.521s3.522-1.58,3.522-3.521
		C14.609,46.971,13.029,45.391,11.087,45.391z M11.087,50.435c-0.839,0-1.522-0.683-1.522-1.521c0-0.839,0.683-1.522,1.522-1.522
		c0.839,0,1.522,0.683,1.522,1.522C12.609,49.752,11.926,50.435,11.087,50.435z"/>
	<path fill="#231F20" d="M48.913,45.391c-1.942,0-3.522,1.58-3.522,3.522c0,1.942,1.58,3.521,3.522,3.521s3.521-1.58,3.521-3.521
		C52.435,46.971,50.855,45.391,48.913,45.391z M48.913,50.435c-0.839,0-1.522-0.683-1.522-1.521c0-0.839,0.683-1.522,1.522-1.522
		c0.839,0,1.521,0.683,1.521,1.522C50.435,49.752,49.752,50.435,48.913,50.435z"/>
	<path fill="#231F20" d="M38.826,46H21.174C19.275,46,18,47.206,18,49c0,1.794,1.275,3,3.174,3h17.652C40.725,52,42,50.794,42,49
		C42,47.206,40.725,46,38.826,46z M20,49c0-0.273,0-1,1.174-1H32v2H21.174C20,50,20,49.273,20,49z M38.826,50H34v-2h4.826
		C40,48,40,48.727,40,49C40,49.273,40,50,38.826,50z"/>
</g>
</svg>
