<?xml version="1.0" encoding="utf-8"?>
<!-- Generator: Adobe Illustrator 17.0.0, SVG Export Plug-In . SVG Version: 6.00 Build 0)  -->
<!DOCTYPE svg PUBLIC "-//W3C//DTD SVG 1.1//EN" "http://www.w3.org/Graphics/SVG/1.1/DTD/svg11.dtd">
<svg version="1.1" id="Layer_1" xmlns="http://www.w3.org/2000/svg" xmlns:xlink="http://www.w3.org/1999/xlink" x="0px" y="0px"
	 width="60px" height="60px" viewBox="0 0 60 60" enable-background="new 0 0 60 60" xml:space="preserve">
<g>
	<path fill="#231F20" d="M47,11c-7.169,0-13,5.832-13,13c0,1.396,0.227,2.739,0.636,4h-9.272C25.773,26.739,26,25.396,26,24
		c0-7.168-5.831-13-13-13S0,16.832,0,24c0,5.4,3.311,10.039,8.008,12H8v19c0,2.757,2.243,5,5,5h8h18h8c2.757,0,5-2.243,5-5V36
		h-0.008C56.689,34.039,60,29.4,60,24C60,16.832,54.169,11,47,11z M2,24c0-6.065,4.935-11,11-11c6.065,0,11,4.935,11,11
		c0,6.065-4.935,11-11,11C6.935,35,2,30.065,2,24z M22,58v-4h16v4H22z M50,55c0,1.654-1.346,3-3,3h-7v-5c0-0.552-0.448-1-1-1H21
		c-0.552,0-1,0.448-1,1v5h-7c-1.654,0-3-1.346-3-3V36.637C10.965,36.866,11.966,37,13,37c5.004,0,9.349-2.846,11.521-7h10.958
		c2.172,4.154,6.517,7,11.521,7c1.034,0,2.035-0.134,3-0.363V55z M47,35c-6.065,0-11-4.935-11-11c0-6.065,4.935-11,11-11
		c6.065,0,11,4.935,11,11C58,30.065,53.065,35,47,35z"/>
	<path fill="#231F20" d="M14.87,46.565c-1.247,0-2.261,1.014-2.261,2.261c0,1.247,1.014,2.261,2.261,2.261
		c1.247,0,2.261-1.014,2.261-2.261C17.13,47.58,16.116,46.565,14.87,46.565z M14.609,48.826c0-0.144,0.117-0.261,0.261-0.261
		c0.144,0,0.261,0.117,0.261,0.261C15.131,49.116,14.609,49.116,14.609,48.826z"/>
	<path fill="#231F20" d="M45.13,46.565c-1.247,0-2.261,1.014-2.261,2.261c0,1.247,1.014,2.261,2.261,2.261
		c1.247,0,2.261-1.014,2.261-2.261C47.391,47.58,46.377,46.565,45.13,46.565z M44.87,48.826c0-0.144,0.117-0.261,0.261-0.261
		c0.143,0,0.261,0.117,0.261,0.261C45.392,49.116,44.87,49.116,44.87,48.826z"/>
	<path fill="#231F20" d="M35.044,37.739c-1.942,0-3.522,1.58-3.522,3.521s1.58,3.522,3.522,3.522c1.942,0,3.522-1.58,3.522-3.522
		S36.985,37.739,35.044,37.739z M35.044,42.783c-0.839,0-1.522-0.683-1.522-1.522c0-0.839,0.683-1.521,1.522-1.521
		c0.839,0,1.522,0.683,1.522,1.521C36.565,42.1,35.883,42.783,35.044,42.783z"/>
	<path fill="#231F20" d="M24.956,37.739c-1.942,0-3.522,1.58-3.522,3.521s1.58,3.522,3.522,3.522s3.522-1.58,3.522-3.522
		S26.898,37.739,24.956,37.739z M24.956,42.783c-0.839,0-1.522-0.683-1.522-1.522c0-0.839,0.683-1.521,1.522-1.521
		c0.839,0,1.522,0.683,1.522,1.521C26.479,42.1,25.796,42.783,24.956,42.783z"/>
	<path fill="#231F20" d="M47,17c-0.552,0-1,0.448-1,1v4c0,0.552,0.448,1,1,1s1-0.448,1-1v-4C48,17.448,47.552,17,47,17z"/>
	<path fill="#231F20" d="M43.445,25.168l-3,2c-0.46,0.306-0.583,0.927-0.277,1.387C40.361,28.844,40.678,29,41.001,29
		c0.19,0,0.383-0.054,0.554-0.168l3-2c0.46-0.306,0.583-0.927,0.277-1.387C44.525,24.986,43.905,24.86,43.445,25.168z"/>
	<path fill="#231F20" d="M51.555,25.168c-0.461-0.308-1.081-0.182-1.387,0.277c-0.306,0.46-0.182,1.081,0.277,1.387l3,2
		C53.616,28.946,53.809,29,53.999,29c0.323,0,0.64-0.156,0.833-0.445c0.306-0.46,0.182-1.081-0.277-1.387L51.555,25.168z"/>
	<path fill="#231F20" d="M14,22v-4c0-0.552-0.448-1-1-1s-1,0.448-1,1v4c0,0.552,0.448,1,1,1S14,22.552,14,22z"/>
	<path fill="#231F20" d="M9.445,25.168l-3,2c-0.46,0.306-0.583,0.927-0.277,1.387C6.361,28.844,6.678,29,7.001,29
		c0.19,0,0.383-0.054,0.554-0.168l3-2c0.46-0.306,0.583-0.927,0.277-1.387C10.525,24.986,9.904,24.86,9.445,25.168z"/>
	<path fill="#231F20" d="M19.445,28.832C19.616,28.946,19.809,29,19.999,29c0.323,0,0.64-0.156,0.833-0.445
		c0.306-0.46,0.182-1.081-0.277-1.387l-3-2c-0.461-0.308-1.081-0.182-1.387,0.277c-0.306,0.46-0.182,1.081,0.277,1.387
		L19.445,28.832z"/>
</g>
</svg>
