<?xml version="1.0" encoding="utf-8"?>
<!-- Generator: Adobe Illustrator 17.0.0, SVG Export Plug-In . SVG Version: 6.00 Build 0)  -->
<!DOCTYPE svg PUBLIC "-//W3C//DTD SVG 1.1//EN" "http://www.w3.org/Graphics/SVG/1.1/DTD/svg11.dtd">
<svg version="1.1" id="Layer_1" xmlns="http://www.w3.org/2000/svg" xmlns:xlink="http://www.w3.org/1999/xlink" x="0px" y="0px"
	 width="60px" height="60px" viewBox="0 0 60 60" enable-background="new 0 0 60 60" xml:space="preserve">
<g>
	<path fill="#231F20" d="M37.707,11.293c-0.287-0.287-0.716-0.373-1.09-0.217C36.244,11.231,36,11.596,36,12v24c0,1.542-1.458,3-3,3
		c-1.486,0-3-1.514-3-3l0-4h2c0.552,0,1-0.448,1-1c0-0.552-0.448-1-1-1h-2.001l0-3H32c0.552,0,1-0.448,1-1c0-0.552-0.448-1-1-1
		h-2.001l0-3H32c0.552,0,1-0.448,1-1c0-0.552-0.448-1-1-1h-2.002l0-3.807c0.188-3.011-1.06-6.036-3.609-8.749
		C22.271,3.061,15.263,0,9.348,0H4C3.448,0,3,0.448,3,1c0,0.552,0.448,1,1,1h5.348C13.13,2,15.928,4.532,16,8v35.859
		c-0.038,3.665,1.544,7.305,4.456,10.247C24.108,57.796,29.383,60,34.565,60C44.016,60,52,52.613,52,43.87v-8.826
		C52,33.735,54.28,32,56,32c0.404,0,0.769-0.244,0.924-0.617c0.155-0.374,0.069-0.804-0.217-1.09L37.707,11.293z M50,35.044v8.826
		C50,51.397,42.788,58,34.565,58c-4.66,0-9.403-1.982-12.688-5.301c-2.533-2.559-3.91-5.691-3.877-8.829V7.979
		c-0.036-1.728-0.595-3.294-1.54-4.573c3.248,1.215,6.332,3.131,8.472,5.408c1.507,1.604,3.263,4.165,3.068,7.317V20h-1
		c-0.552,0-1,0.448-1,1c0,0.552,0.448,1,1,1h1v3h-1c-0.552,0-1,0.448-1,1c0,0.552,0.448,1,1,1h1v3h-1c-0.552,0-1,0.448-1,1
		c0,0.552,0.448,1,1,1h1v4c0,2.617,2.383,5,5,5c2.664,0,5-2.336,5-5V14.414l15.994,15.994C51.924,31.21,50,33.083,50,35.044z"/>
</g>
</svg>
