<?xml version="1.0" encoding="utf-8"?>
<!-- Generator: Adobe Illustrator 17.0.0, SVG Export Plug-In . SVG Version: 6.00 Build 0)  -->
<!DOCTYPE svg PUBLIC "-//W3C//DTD SVG 1.1//EN" "http://www.w3.org/Graphics/SVG/1.1/DTD/svg11.dtd">
<svg version="1.1" id="Layer_1" xmlns="http://www.w3.org/2000/svg" xmlns:xlink="http://www.w3.org/1999/xlink" x="0px" y="0px"
	 width="60px" height="60px" viewBox="0 0 60 60" enable-background="new 0 0 60 60" xml:space="preserve">
<g>
	<path fill="#231F20" d="M12.424,0C8.521,0,6,2.355,6,6v47c0,3.372,1.878,7,6,7h34c3.706,0,6-3.633,6-7V6c0-3.757-2.243-6-6-6
		H12.424z M50,6v47c0,2.405-1.529,5-4,5H12c-2.952,0-4-2.693-4-5V6c0-2.505,1.653-4,4.424-4H46C47.825,2,50,2.694,50,6z"/>
	<path fill="#231F20" d="M29,22c-8.272,0-15,6.729-15,15s6.728,15,15,15c8.271,0,15-6.729,15-15S37.271,22,29,22z M29,50
		c-7.168,0-13-5.831-13-13c0-7.168,5.832-13,13-13s13,5.832,13,13C42,44.169,36.168,50,29,50z"/>
	<path fill="#231F20" d="M29,21c3.859,0,7-3.14,7-7c0-3.86-3.141-7-7-7c-3.859,0-7,3.14-7,7C22,17.86,25.141,21,29,21z M29,9
		c2.757,0,5,2.243,5,5c0,2.757-2.243,5-5,5c-2.757,0-5-2.243-5-5C24,11.243,26.243,9,29,9z"/>
	<path fill="#231F20" d="M29,30c-3.859,0-7,3.14-7,7c0,3.86,3.141,7,7,7c3.859,0,7-3.14,7-7C36,33.14,32.859,30,29,30z M29,42
		c-2.757,0-5-2.243-5-5c0-2.757,2.243-5,5-5c2.757,0,5,2.243,5,5C34,39.757,31.757,42,29,42z"/>
	<path fill="#231F20" d="M14.231,48.947c-1.654,0-3,1.346-3,3s1.346,3,3,3s3-1.346,3-3S15.886,48.947,14.231,48.947z M14.231,52.947
		c-0.552,0-1-0.449-1-1c0-0.551,0.448-1,1-1c0.552,0,1,0.449,1,1C15.231,52.498,14.783,52.947,14.231,52.947z"/>
	<path fill="#231F20" d="M43.159,48.947c-1.654,0-3,1.346-3,3s1.346,3,3,3s3-1.346,3-3S44.813,48.947,43.159,48.947z M43.159,52.947
		c-0.552,0-1-0.449-1-1c0-0.551,0.448-1,1-1c0.552,0,1,0.449,1,1C44.159,52.498,43.711,52.947,43.159,52.947z"/>
	<path fill="#231F20" d="M14.231,11.555c1.654,0,3-1.346,3-3s-1.346-3-3-3s-3,1.346-3,3S12.577,11.555,14.231,11.555z M14.231,7.555
		c0.552,0,1,0.449,1,1c0,0.551-0.448,1-1,1c-0.552,0-1-0.449-1-1C13.231,8.004,13.68,7.555,14.231,7.555z"/>
	<path fill="#231F20" d="M43.159,5.555c-1.654,0-3,1.346-3,3s1.346,3,3,3s3-1.346,3-3S44.813,5.555,43.159,5.555z M43.159,9.555
		c-0.552,0-1-0.449-1-1c0-0.551,0.448-1,1-1c0.552,0,1,0.449,1,1C44.159,9.106,43.711,9.555,43.159,9.555z"/>
</g>
</svg>
