<?xml version="1.0" encoding="utf-8"?>
<!-- Generator: Adobe Illustrator 17.0.0, SVG Export Plug-In . SVG Version: 6.00 Build 0)  -->
<!DOCTYPE svg PUBLIC "-//W3C//DTD SVG 1.1//EN" "http://www.w3.org/Graphics/SVG/1.1/DTD/svg11.dtd">
<svg version="1.1" id="Layer_1" xmlns="http://www.w3.org/2000/svg" xmlns:xlink="http://www.w3.org/1999/xlink" x="0px" y="0px"
	 width="60px" height="60px" viewBox="0 0 60 60" enable-background="new 0 0 60 60" xml:space="preserve">
<g>
	<path fill="#231F20" d="M8.995,12c1.654,0,3-1.346,3-3s-1.346-3-3-3s-3,1.346-3,3S7.341,12,8.995,12z M8.995,8c0.552,0,1,0.449,1,1
		c0,0.551-0.448,1-1,1c-0.552,0-1-0.449-1-1C7.995,8.449,8.443,8,8.995,8z"/>
	<path fill="#231F20" d="M51.995,6c-1.654,0-3,1.346-3,3s1.346,3,3,3s3-1.346,3-3S53.649,6,51.995,6z M51.995,10
		c-0.552,0-1-0.449-1-1c0-0.551,0.448-1,1-1c0.552,0,1,0.449,1,1C52.995,9.551,52.547,10,51.995,10z"/>
	<path fill="#231F20" d="M8.995,49c-1.654,0-3,1.346-3,3s1.346,3,3,3s3-1.346,3-3S10.649,49,8.995,49z M8.995,53
		c-0.552,0-1-0.449-1-1c0-0.551,0.448-1,1-1c0.552,0,1,0.449,1,1C9.995,52.551,9.547,53,8.995,53z"/>
	<path fill="#231F20" d="M51.995,49c-1.654,0-3,1.346-3,3s1.346,3,3,3s3-1.346,3-3S53.649,49,51.995,49z M51.995,53
		c-0.552,0-1-0.449-1-1c0-0.551,0.448-1,1-1c0.552,0,1,0.449,1,1C52.995,52.551,52.547,53,51.995,53z"/>
	<path fill="#231F20" d="M59.994,11.591c0.136-3.027-0.944-5.901-3.039-8.092C54.829,1.275,51.824,0,48.71,0H11.995
		c-6.841,0-12,4.964-12,11.546V48c0,6.505,5.495,12,12,12H48.71c3.114,0,6.119-1.275,8.245-3.498
		c2.095-2.191,3.175-5.065,3.04-8.047L59.994,11.591z M55.51,55.119C53.759,56.95,51.28,58,48.71,58H11.995c-5.327,0-10-4.673-10-10
		V11.546c0-6.267,5.03-9.546,10-9.546H48.71c2.57,0,5.049,1.05,6.8,2.881c1.714,1.792,2.598,4.144,2.485,6.665l0.001,36.953
		C58.107,50.975,57.224,53.327,55.51,55.119z"/>
	<path fill="#231F20" d="M29.995,12c-9.925,0-18,8.075-18,18s8.075,18,18,18s18-8.075,18-18S39.92,12,29.995,12z M29.995,46
		c-8.822,0-16-7.178-16-16c0-8.822,7.178-16,16-16c8.822,0,16,7.178,16,16C45.995,38.822,38.817,46,29.995,46z"/>
	<path fill="#231F20" d="M29.995,5c-13.785,0-25,11.215-25,25c0,13.785,11.215,25,25,25c13.785,0,25-11.215,25-25
		C54.995,16.215,43.78,5,29.995,5z M29.995,53c-12.683,0-23-10.318-23-23c0-12.682,10.317-23,23-23c12.683,0,23,10.318,23,23
		C52.995,42.682,42.678,53,29.995,53z"/>
	<path fill="#231F20" d="M29.995,23c-3.859,0-7,3.14-7,7c0,3.86,3.141,7,7,7c3.859,0,7-3.14,7-7C36.995,26.14,33.854,23,29.995,23z
		 M29.995,35c-2.757,0-5-2.243-5-5c0-2.757,2.243-5,5-5c2.757,0,5,2.243,5,5C34.995,32.757,32.752,35,29.995,35z"/>
</g>
</svg>
