<?xml version="1.0" encoding="utf-8"?>
<!-- Generator: Adobe Illustrator 17.0.0, SVG Export Plug-In . SVG Version: 6.00 Build 0)  -->
<!DOCTYPE svg PUBLIC "-//W3C//DTD SVG 1.1//EN" "http://www.w3.org/Graphics/SVG/1.1/DTD/svg11.dtd">
<svg version="1.1" id="Layer_1" xmlns="http://www.w3.org/2000/svg" xmlns:xlink="http://www.w3.org/1999/xlink" x="0px" y="0px"
	 width="60px" height="60px" viewBox="0 0 60 60" enable-background="new 0 0 60 60" xml:space="preserve">
<g>
	<path fill="#231F20" d="M52.697,10.304c1.654,0,3-1.346,3-3s-1.346-3-3-3c-1.654,0-3,1.346-3,3S51.043,10.304,52.697,10.304z
		 M52.697,6.304c0.552,0,1,0.449,1,1c0,0.551-0.448,1-1,1s-1-0.449-1-1C51.697,6.753,52.146,6.304,52.697,6.304z"/>
	<path fill="#231F20" d="M10.306,7.304c0-1.654-1.346-3-3-3c-1.654,0-3,1.346-3,3s1.346,3,3,3
		C8.96,10.304,10.306,8.958,10.306,7.304z M7.306,8.304c-0.552,0-1-0.449-1-1c0-0.551,0.448-1,1-1c0.552,0,1,0.449,1,1
		C8.306,7.856,7.857,8.304,7.306,8.304z"/>
	<path fill="#231F20" d="M49.697,52.695c0,1.654,1.346,3,3,3c1.654,0,3-1.346,3-3s-1.346-3-3-3
		C51.043,49.695,49.697,51.041,49.697,52.695z M52.697,51.695c0.552,0,1,0.449,1,1s-0.448,1-1,1s-1-0.449-1-1
		S52.146,51.695,52.697,51.695z"/>
	<path fill="#231F20" d="M7.306,55.695c1.654,0,3-1.346,3-3s-1.346-3-3-3c-1.654,0-3,1.346-3,3S5.651,55.695,7.306,55.695z
		 M7.306,51.695c0.552,0,1,0.449,1,1s-0.448,1-1,1c-0.552,0-1-0.449-1-1S6.754,51.695,7.306,51.695z"/>
	<path fill="#231F20" d="M30,36c3.309,0,6-2.691,6-6s-2.691-6-6-6s-6,2.691-6,6S26.691,36,30,36z M30,26c2.206,0,4,1.794,4,4
		c0,2.206-1.794,4-4,4c-2.206,0-4-1.794-4-4C26,27.794,27.794,26,30,26z"/>
	<path fill="#231F20" d="M30,52c12.131,0,22-9.869,22-22c0-12.131-9.869-22-22-22C17.869,8,8,17.869,8,30C8,42.13,17.869,52,30,52z
		 M30,10c11.028,0,20,8.972,20,20c0,11.028-8.972,20-20,20c-11.028,0-20-8.972-20-20C10,18.972,18.972,10,30,10z"/>
	<path fill="#231F20" d="M2.14,57.861C3.519,59.24,5.353,60,7.305,60c1.951,0,3.785-0.76,5.164-2.139l3.985-3.984
		c4.142,2.358,8.809,3.601,13.547,3.601c4.736,0,9.402-1.243,13.546-3.601l3.984,3.984C48.91,59.24,50.744,60,52.695,60
		c1.951,0,3.785-0.76,5.165-2.139c2.848-2.848,2.848-7.482,0-10.33l-3.984-3.983C56.235,39.4,57.479,34.733,57.479,30
		s-1.243-9.4-3.604-13.547l3.984-3.983c2.848-2.849,2.848-7.483,0-10.33C56.48,0.76,54.646,0,52.694,0
		c-1.951,0-3.784,0.76-5.163,2.14l-3.984,3.984c-4.145-2.359-8.811-3.602-13.546-3.602c-4.737,0-9.404,1.243-13.547,3.602
		L12.469,2.14C11.09,0.76,9.257,0,7.306,0C5.354,0,3.519,0.76,2.14,2.14c-2.848,2.847-2.848,7.481,0,10.33l3.983,3.983
		c-2.357,4.142-3.6,8.808-3.6,13.547c0,4.739,1.242,9.406,3.6,13.548L2.14,47.531C-0.708,50.379-0.708,55.013,2.14,57.861z
		 M8.64,43.86l-0.408-0.671C5.806,39.194,4.523,34.633,4.523,30s1.282-9.194,3.708-13.188l0.408-0.671l-5.086-5.085
		c-2.068-2.069-2.068-5.434,0-7.502C4.556,2.552,5.889,2,7.306,2c1.416,0,2.748,0.552,3.749,1.554l5.088,5.086l0.671-0.408
		c3.995-2.428,8.556-3.711,13.188-3.711c4.63,0,9.189,1.283,13.187,3.711l0.672,0.408l5.086-5.086C49.946,2.552,51.278,2,52.694,2
		c1.417,0,2.75,0.552,3.752,1.554c2.068,2.068,2.068,5.433,0,7.502l-5.087,5.084l0.408,0.671c2.429,4,3.712,8.561,3.712,13.188
		c0,4.628-1.283,9.188-3.712,13.19L51.36,43.86l5.086,5.084c2.067,2.068,2.067,5.434,0,7.502C55.444,57.448,54.112,58,52.695,58
		c-1.417,0-2.748-0.552-3.75-1.553l-5.086-5.086l-0.672,0.408c-3.996,2.427-8.556,3.71-13.187,3.71
		c-4.633,0-9.193-1.283-13.188-3.71l-0.671-0.408l-5.088,5.086C10.053,57.448,8.722,58,7.305,58s-2.749-0.552-3.751-1.553
		c-2.067-2.068-2.067-5.434,0-7.502L8.64,43.86z"/>
</g>
</svg>
