<?xml version="1.0" encoding="utf-8"?>
<!-- Generator: Adobe Illustrator 17.0.0, SVG Export Plug-In . SVG Version: 6.00 Build 0)  -->
<!DOCTYPE svg PUBLIC "-//W3C//DTD SVG 1.1//EN" "http://www.w3.org/Graphics/SVG/1.1/DTD/svg11.dtd">
<svg version="1.1" id="Layer_1" xmlns="http://www.w3.org/2000/svg" xmlns:xlink="http://www.w3.org/1999/xlink" x="0px" y="0px"
	 width="60px" height="60px" viewBox="0 0 60 60" enable-background="new 0 0 60 60" xml:space="preserve">
<g>
	<path fill="#231F20" d="M56,10H4c-2.206,0-4,1.794-4,4v32c0,2.206,1.794,4,4,4h5.826h40.348h0.02H56c2.206,0,4-1.794,4-4V14
		C60,11.794,58.206,10,56,10z M12.148,48l5.674-6h24.356l5.674,6H12.148z M58,46c0,1.103-0.897,2-2,2h-5.395l-7.269-7.687
		C43.146,40.113,42.884,40,42.609,40H17.391c-0.275,0-0.538,0.113-0.727,0.313L9.396,48H4c-1.103,0-2-0.897-2-2V14
		c0-1.103,0.897-2,2-2h52c1.103,0,2,0.897,2,2V46z"/>
	<path fill="#231F20" d="M13.609,23.87c-3.333,0-6.044,2.711-6.044,6.044c0,3.332,2.711,6.043,6.044,6.043s6.043-2.711,6.043-6.043
		C19.652,26.581,16.941,23.87,13.609,23.87z M14.609,33.816v-1.382c0-0.552-0.448-1-1-1c-0.552,0-1,0.448-1,1v1.382
		c-1.423-0.366-2.538-1.48-2.903-2.903h1.381c0.552,0,1-0.448,1-1c0-0.552-0.448-1-1-1H9.706c0.366-1.423,1.48-2.538,2.903-2.903
		v1.381c0,0.552,0.448,1,1,1c0.552,0,1-0.448,1-1V26.01c1.423,0.366,2.538,1.48,2.903,2.903H16.13c-0.552,0-1,0.448-1,1
		c0,0.552,0.448,1,1,1h1.382C17.146,32.336,16.032,33.451,14.609,33.816z"/>
	<path fill="#231F20" d="M37,26H23c-0.552,0-1,0.448-1,1v4c0,0.552,0.448,1,1,1h14c0.552,0,1-0.448,1-1v-4
		C38,26.448,37.552,26,37,26z M36,30H24v-2h12V30z"/>
	<path fill="#231F20" d="M46.391,23.87c-3.333,0-6.043,2.711-6.043,6.044c0,3.332,2.711,6.043,6.043,6.043
		c3.332,0,6.043-2.711,6.043-6.043C52.435,26.581,49.724,23.87,46.391,23.87z M47.391,33.816v-1.382c0-0.552-0.448-1-1-1
		s-1,0.448-1,1v1.382c-1.423-0.366-2.538-1.48-2.903-2.903h1.382c0.552,0,1-0.448,1-1c0-0.552-0.448-1-1-1h-1.382
		c0.366-1.423,1.48-2.538,2.903-2.903v1.381c0,0.552,0.448,1,1,1s1-0.448,1-1V26.01c1.423,0.366,2.538,1.48,2.903,2.903h-1.381
		c-0.552,0-1,0.448-1,1c0,0.552,0.448,1,1,1h1.381C49.929,32.336,48.814,33.451,47.391,33.816z"/>
	<path fill="#231F20" d="M51.435,14H8.565c-0.552,0-1,0.448-1,1c0,0.552,0.448,1,1,1h42.869c0.552,0,1-0.448,1-1
		C52.435,14.448,51.987,14,51.435,14z"/>
</g>
</svg>
