<?xml version="1.0" encoding="utf-8"?>
<!-- Generator: Adobe Illustrator 17.0.0, SVG Export Plug-In . SVG Version: 6.00 Build 0)  -->
<!DOCTYPE svg PUBLIC "-//W3C//DTD SVG 1.1//EN" "http://www.w3.org/Graphics/SVG/1.1/DTD/svg11.dtd">
<svg version="1.1" id="Layer_1" xmlns="http://www.w3.org/2000/svg" xmlns:xlink="http://www.w3.org/1999/xlink" x="0px" y="0px"
	 width="60px" height="60px" viewBox="0 0 60 60" enable-background="new 0 0 60 60" xml:space="preserve">
<g>
	<path fill="#231F20" d="M59.383,18.337c-0.374-0.154-0.804-0.069-1.09,0.217l-9.707,9.707H30v-4.957c0-0.552-0.447-1-1-1
		c-0.553,0-1,0.448-1,1v4.957h-4v-4.957c0-0.552-0.447-1-1-1c-0.553,0-1,0.448-1,1v4.957h-2v-4.957c0-0.552-0.447-1-1-1
		c-0.553,0-1,0.448-1,1v4.957H2v-2c0-0.552-0.447-1-1-1c-0.553,0-1,0.448-1,1v6c0,0.552,0.447,1,1,1c0.553,0,1-0.448,1-1v-2h6.067
		C6.191,31.728,5,33.871,5,36.261c0,4.714,4.743,8,9,8h4V46c0,0.552,0.447,1,1,1c0.553,0,1-0.448,1-1v-1.739h2V46
		c0,0.552,0.447,1,1,1c0.553,0,1-0.448,1-1v-1.739h4V46c0,0.552,0.447,1,1,1c0.553,0,1-0.448,1-1v-1.739h6c4.257,0,9-3.286,9-8
		c0-2.39-1.191-4.533-3.067-6h6.653l9.707,9.707c0.191,0.191,0.447,0.293,0.707,0.293c0.129,0,0.259-0.025,0.383-0.076
		C59.757,40.03,60,39.665,60,39.261v-20C60,18.856,59.757,18.492,59.383,18.337z M14,42.261c-2.923,0-7-2.283-7-6
		c0-3.252,3.206-6,7-6h4v12H14z M20,42.261v-12h2v12H20z M24,42.261v-12h4v12H24z M43,36.261c0,3.434-3.695,6-7,6h-6v-12h6
		C39.794,30.261,43,33.008,43,36.261z M58,36.847l-7.586-7.586L58,21.675V36.847z"/>
</g>
</svg>
