<?xml version="1.0" encoding="utf-8"?>
<!-- Generator: Adobe Illustrator 17.0.0, SVG Export Plug-In . SVG Version: 6.00 Build 0)  -->
<!DOCTYPE svg PUBLIC "-//W3C//DTD SVG 1.1//EN" "http://www.w3.org/Graphics/SVG/1.1/DTD/svg11.dtd">
<svg version="1.1" id="Layer_1" xmlns="http://www.w3.org/2000/svg" xmlns:xlink="http://www.w3.org/1999/xlink" x="0px" y="0px"
	 width="60px" height="60px" viewBox="0 0 60 60" enable-background="new 0 0 60 60" xml:space="preserve">
<g>
	<path fill="#231F20" d="M47.071,14.359c-0.426-0.352-1.056-0.29-1.408,0.135c-0.351,0.426-0.291,1.057,0.135,1.408
		C50.173,19.512,53,25.149,53,30.261c0,5.101-2.827,10.738-7.203,14.36c-0.425,0.352-0.485,0.983-0.133,1.408
		c0.198,0.239,0.483,0.362,0.771,0.362c0.225,0,0.451-0.075,0.637-0.229C51.888,42.175,55,35.934,55,30.261
		C55,24.576,51.888,18.334,47.071,14.359z"/>
	<path fill="#231F20" d="M41.979,20.625c-0.445-0.324-1.072-0.225-1.397,0.221c-0.325,0.447-0.226,1.072,0.221,1.397
		c2.113,1.536,4.631,4.173,4.631,8.017c0,3.846-2.519,6.483-4.631,8.017c-0.447,0.325-0.546,0.95-0.222,1.397
		c0.196,0.269,0.501,0.413,0.81,0.413c0.204,0,0.409-0.062,0.586-0.191c3.519-2.555,5.456-5.977,5.456-9.635
		C47.435,26.604,45.497,23.183,41.979,20.625z"/>
	<path fill="#231F20" d="M33.384,4.12c-0.372-0.155-0.802-0.069-1.089,0.214L14.587,21.956H6.174C3.716,21.956,2,24.013,2,26.972
		l0.13,8.202c0,2.637,2.146,4.783,4.783,4.783h8.434L32.32,55.69c0.188,0.175,0.433,0.267,0.68,0.267c0.135,0,0.271-0.027,0.4-0.083
		c0.365-0.159,0.6-0.519,0.6-0.917V5.044C34,4.64,33.757,4.275,33.384,4.12z M32,52.666L16.419,38.223
		c-0.185-0.171-0.428-0.267-0.68-0.267H6.913c-1.534,0-2.783-1.248-2.783-2.798L4,26.956c0-1.114,0.458-3,2.174-3H15
		c0.264,0,0.518-0.104,0.706-0.291L32,7.449V52.666z"/>
</g>
</svg>
