<?xml version="1.0" encoding="utf-8"?>
<!-- Generator: Adobe Illustrator 17.0.0, SVG Export Plug-In . SVG Version: 6.00 Build 0)  -->
<!DOCTYPE svg PUBLIC "-//W3C//DTD SVG 1.1//EN" "http://www.w3.org/Graphics/SVG/1.1/DTD/svg11.dtd">
<svg version="1.1" id="Layer_1" xmlns="http://www.w3.org/2000/svg" xmlns:xlink="http://www.w3.org/1999/xlink" x="0px" y="0px"
	 width="60px" height="60px" viewBox="0 0 60 60" enable-background="new 0 0 60 60" xml:space="preserve">
<g>
	<path fill="#231F20" d="M45.966,17.449C50.239,19.712,53,24.809,53,30.435c0,5.625-2.761,10.722-7.034,12.986
		c-0.488,0.259-0.674,0.864-0.416,1.352c0.18,0.339,0.526,0.532,0.885,0.532c0.158,0,0.318-0.037,0.467-0.116
		C51.822,42.582,55,36.791,55,30.435c0-6.357-3.178-12.148-8.097-14.753c-0.489-0.259-1.094-0.073-1.352,0.416
		C45.292,16.585,45.479,17.19,45.966,17.449z"/>
	<path fill="#231F20" d="M42.33,21.294c3.365,1.146,5.626,4.819,5.626,9.14c0,4.324-2.261,7.997-5.626,9.141
		c-0.523,0.178-0.803,0.746-0.625,1.269c0.141,0.416,0.53,0.679,0.947,0.679c0.107,0,0.215-0.018,0.322-0.054
		c4.176-1.418,6.982-5.853,6.982-11.034c0-5.178-2.806-9.612-6.982-11.034c-0.525-0.178-1.091,0.102-1.269,0.625
		C41.528,20.548,41.807,21.116,42.33,21.294z"/>
	<path fill="#231F20" d="M7.304,42h5.068C15.877,49.019,24.253,53.87,33,53.87c0.552,0,1-0.448,1-1V10c0-0.552-0.448-1-1-1
		c-8.2,0-16.947,5.548-20.633,13H7c-4.187,0-7,4.069-7,7.87v4.696C0,38.665,3.277,42,7.304,42z M2,29.87C2,27.035,4.009,24,7,24h6
		c0.393,0,0.749-0.23,0.911-0.587C16.924,16.758,24.72,11.482,32,11.031v40.812c-6.767-0.35-14.891-4.201-18.085-11.256
		C13.753,40.23,13.396,40,13.004,40h-5.7C4.429,40,2,37.511,2,34.565V29.87z"/>
</g>
</svg>
