<?xml version="1.0" encoding="utf-8"?>
<!-- Generator: Adobe Illustrator 17.0.0, SVG Export Plug-In . SVG Version: 6.00 Build 0)  -->
<!DOCTYPE svg PUBLIC "-//W3C//DTD SVG 1.1//EN" "http://www.w3.org/Graphics/SVG/1.1/DTD/svg11.dtd">
<svg version="1.1" id="Layer_1" xmlns="http://www.w3.org/2000/svg" xmlns:xlink="http://www.w3.org/1999/xlink" x="0px" y="0px"
	 width="60px" height="60px" viewBox="0 0 60 60" enable-background="new 0 0 60 60" xml:space="preserve">
<g>
	<path fill="#231F20" d="M50.832,9.334c-0.415-0.363-1.047-0.32-1.411,0.095c-0.363,0.416-0.321,1.047,0.095,1.411
		C54.908,15.554,58,22.632,58,30.261c0,7.629-3.092,14.708-8.484,19.421c-0.416,0.363-0.458,0.995-0.095,1.411
		c0.198,0.226,0.475,0.342,0.753,0.342c0.233,0,0.468-0.082,0.658-0.247C56.658,46.094,60,38.467,60,30.261
		C60,22.055,56.658,14.428,50.832,9.334z"/>
	<path fill="#231F20" d="M44.506,14.359c-0.426-0.352-1.056-0.291-1.408,0.134c-0.352,0.426-0.292,1.056,0.134,1.408
		c4.375,3.611,7.202,9.247,7.202,14.359c0,5.101-2.827,10.738-7.203,14.36c-0.425,0.352-0.485,0.983-0.133,1.408
		c0.198,0.239,0.483,0.362,0.771,0.362c0.225,0,0.451-0.075,0.637-0.229c4.815-3.987,7.927-10.229,7.927-15.901
		C52.435,24.576,49.322,18.334,44.506,14.359z"/>
	<path fill="#231F20" d="M39.414,20.626c-0.446-0.326-1.071-0.226-1.397,0.221c-0.325,0.447-0.226,1.072,0.221,1.397
		c2.113,1.536,4.631,4.174,4.631,8.017c0,3.846-2.518,6.483-4.631,8.017c-0.447,0.325-0.546,0.95-0.221,1.397
		c0.196,0.269,0.5,0.412,0.81,0.412c0.204,0,0.409-0.062,0.587-0.191c3.518-2.556,5.455-5.977,5.455-9.635
		C44.87,26.605,42.932,23.184,39.414,20.626z"/>
	<path fill="#231F20" d="M31.384,4.12c-0.371-0.155-0.802-0.069-1.089,0.214L12.587,21.956H4.174C1.716,21.956,0,24.013,0,26.972
		l0.13,8.202c0,2.637,2.146,4.783,4.783,4.783h8.434L30.32,55.69c0.188,0.175,0.433,0.267,0.68,0.267c0.135,0,0.271-0.027,0.4-0.083
		c0.365-0.159,0.6-0.519,0.6-0.917V5.044C32,4.64,31.757,4.275,31.384,4.12z M30,52.666L14.419,38.223
		c-0.185-0.171-0.428-0.267-0.68-0.267H4.913c-1.534,0-2.783-1.248-2.783-2.798L2,26.956c0-1.114,0.458-3,2.174-3H13
		c0.264,0,0.518-0.104,0.706-0.291L30,7.449V52.666z"/>
</g>
</svg>
