<?xml version="1.0" encoding="utf-8"?>
<!-- Generator: Adobe Illustrator 17.0.0, SVG Export Plug-In . SVG Version: 6.00 Build 0)  -->
<!DOCTYPE svg PUBLIC "-//W3C//DTD SVG 1.1//EN" "http://www.w3.org/Graphics/SVG/1.1/DTD/svg11.dtd">
<svg version="1.1" id="Layer_1" xmlns="http://www.w3.org/2000/svg" xmlns:xlink="http://www.w3.org/1999/xlink" x="0px" y="0px"
	 width="60px" height="60px" viewBox="0 0 60 60" enable-background="new 0 0 60 60" xml:space="preserve">
<g>
	<path fill="#231F20" d="M15.044,38c0.552,0,1-0.448,1-1s-0.448-1-1-1H8.739c-1.462,0-2.696-1.374-2.696-3v-8c0-1.542,1.458-3,3-3h8
		c0.264,0,0.518-0.104,0.706-0.291L34.044,5.493v11.464c0,0.552,0.448,1,1,1c0.552,0,1-0.448,1-1V3.087
		c0-0.404-0.243-0.768-0.616-0.923c-0.372-0.155-0.802-0.07-1.089,0.214L16.631,20H9.044c-2.664,0-5,2.336-5,5v8
		c0,2.71,2.15,5,4.696,5H15.044z"/>
	<path fill="#231F20" d="M42.87,27.304c-0.552,0-1,0.448-1,1c0,2.925-2.379,5.305-5.304,5.305h-0.522v-1.522c0-0.552-0.448-1-1-1
		c-0.552,0-1,0.448-1,1v19.35l-6.829-7.418c-0.374-0.406-1.007-0.433-1.413-0.059c-0.406,0.374-0.433,1.007-0.059,1.413l8.565,9.304
		C34.501,54.887,34.769,55,35.044,55c0.122,0,0.246-0.023,0.363-0.068c0.384-0.15,0.637-0.519,0.637-0.932V35.609h0.522
		c4.027,0,7.304-3.277,7.304-7.305C43.87,27.752,43.422,27.304,42.87,27.304z"/>
	<path fill="#231F20" d="M57.293,2.379L6.336,53.292c-0.391,0.391-0.391,1.023,0,1.414C6.531,54.902,6.788,55,7.044,55
		c0.256,0,0.512-0.098,0.707-0.292L58.707,3.794c0.391-0.391,0.391-1.023,0-1.414C58.317,1.989,57.684,1.99,57.293,2.379z"/>
</g>
</svg>
