<?xml version="1.0" encoding="utf-8"?>
<!-- Generator: Adobe Illustrator 17.0.0, SVG Export Plug-In . SVG Version: 6.00 Build 0)  -->
<!DOCTYPE svg PUBLIC "-//W3C//DTD SVG 1.1//EN" "http://www.w3.org/Graphics/SVG/1.1/DTD/svg11.dtd">
<svg version="1.1" id="Layer_1" xmlns="http://www.w3.org/2000/svg" xmlns:xlink="http://www.w3.org/1999/xlink" x="0px" y="0px"
	 width="60px" height="60px" viewBox="0 0 60 60" enable-background="new 0 0 60 60" xml:space="preserve">
<g>
	<path fill="#231F20" d="M31.384,4.12c-0.37-0.154-0.803-0.07-1.089,0.214L12.587,21.956H4.174C1.717,21.956,0,24.013,0,26.973
		l0.131,8.201c0,2.637,2.146,4.783,4.782,4.783h8.434L30.32,55.69c0.189,0.175,0.433,0.267,0.68,0.267
		c0.136,0,0.271-0.027,0.4-0.083c0.364-0.159,0.6-0.519,0.6-0.917V5.044C32,4.64,31.757,4.275,31.384,4.12z M30,52.666
		L14.419,38.223c-0.185-0.171-0.428-0.267-0.68-0.267H4.913c-1.534,0-2.782-1.248-2.782-2.799L2,26.956c0-1.114,0.458-3,2.174-3H13
		c0.265,0,0.518-0.104,0.705-0.291L30,7.449V52.666z"/>
	<path fill="#231F20" d="M59,29.956h-9v-9c0-0.552-0.447-1-1-1c-0.553,0-1,0.448-1,1v9h-9.174c-0.553,0-1,0.448-1,1
		c0,0.552,0.447,1,1,1H48v9.174c0,0.552,0.447,1,1,1c0.553,0,1-0.448,1-1v-9.174h9c0.553,0,1-0.448,1-1
		C60,30.404,59.553,29.956,59,29.956z"/>
</g>
</svg>
