<?xml version="1.0" encoding="utf-8"?>
<!-- Generator: Adobe Illustrator 17.0.0, SVG Export Plug-In . SVG Version: 6.00 Build 0)  -->
<!DOCTYPE svg PUBLIC "-//W3C//DTD SVG 1.1//EN" "http://www.w3.org/Graphics/SVG/1.1/DTD/svg11.dtd">
<svg version="1.1" id="Layer_1" xmlns="http://www.w3.org/2000/svg" xmlns:xlink="http://www.w3.org/1999/xlink" x="0px" y="0px"
	 width="60px" height="60px" viewBox="0 0 60 60" enable-background="new 0 0 60 60" xml:space="preserve">
<g>
	<path fill="#231F20" d="M42.352,21.294c3.365,1.146,5.626,4.819,5.626,9.14c0,4.325-2.261,7.997-5.626,9.141
		c-0.523,0.177-0.803,0.746-0.625,1.269c0.141,0.416,0.53,0.679,0.947,0.679c0.107,0,0.215-0.018,0.322-0.054
		c4.176-1.418,6.982-5.853,6.982-11.034c0-5.178-2.806-9.612-6.982-11.034c-0.523-0.178-1.091,0.102-1.269,0.625
		C41.549,20.548,41.829,21.116,42.352,21.294z"/>
	<path fill="#231F20" d="M7.326,42h5.068c3.504,7.019,11.88,11.87,20.628,11.87c0.552,0,1-0.448,1-1V10c0-0.552-0.448-1-1-1
		c-8.2,0-16.947,5.548-20.633,13H7.022c-4.187,0-7,4.069-7,7.87v4.696C0.022,38.665,3.299,42,7.326,42z M2.022,29.87
		c0-2.834,2.009-5.87,5-5.87h6c0.393,0,0.749-0.23,0.911-0.587c3.013-6.654,10.809-11.931,18.089-12.381v40.812
		c-6.767-0.35-14.891-4.201-18.085-11.256C13.775,40.23,13.419,40,13.026,40h-5.7c-2.875,0-5.304-2.489-5.304-5.435V29.87z"/>
</g>
</svg>
