<?xml version="1.0" encoding="utf-8"?>
<!-- Generator: Adobe Illustrator 17.0.0, SVG Export Plug-In . SVG Version: 6.00 Build 0)  -->
<!DOCTYPE svg PUBLIC "-//W3C//DTD SVG 1.1//EN" "http://www.w3.org/Graphics/SVG/1.1/DTD/svg11.dtd">
<svg version="1.1" id="Layer_1" xmlns="http://www.w3.org/2000/svg" xmlns:xlink="http://www.w3.org/1999/xlink" x="0px" y="0px"
	 width="60px" height="60px" viewBox="0 0 60 60" enable-background="new 0 0 60 60" xml:space="preserve">
<g>
	<path fill="#231F20" d="M12,39.913c0.552,0,1-0.448,1-1c0-0.552-0.448-1-1-1c-3.61,0-4-3.77-4-5.391v-5.044
		c0-1.306,0.289-5.565,4-5.565h6c0.393,0,0.749-0.23,0.911-0.587C21.877,14.777,29.795,9.954,38,9.588v5.282c0,0.552,0.448,1,1,1
		s1-0.448,1-1V8.565c0-0.552-0.448-1-1-1c-9.057,0-18.031,5.157-21.631,12.348H12c-3.645,0-6,2.969-6,7.565v5.044
		C6,37.081,8.299,39.913,12,39.913z"/>
	<path fill="#231F20" d="M45.435,29c-0.552,0-1,0.448-1,1c0,2.23-1.814,4.044-4.043,4.044H40v-2.783c0-0.552-0.448-1-1-1
		s-1,0.448-1,1v19.15c-4.898-0.231-10.155-2.119-13.353-4.845c-0.42-0.358-1.052-0.309-1.41,0.113
		c-0.358,0.42-0.308,1.051,0.113,1.41c3.752,3.198,10.041,5.346,15.65,5.346c0.552,0,1-0.448,1-1V36.044h0.391
		c3.332,0,6.043-2.711,6.043-6.044C46.435,29.448,45.987,29,45.435,29z"/>
	<path fill="#231F20" d="M8.152,52.131c0.196,0.202,0.457,0.303,0.717,0.303c0.251,0,0.503-0.094,0.697-0.283l44.13-42.869
		c0.396-0.385,0.405-1.018,0.021-1.414c-0.385-0.396-1.018-0.406-1.414-0.021L8.173,50.717C7.777,51.102,7.768,51.735,8.152,52.131z
		"/>
</g>
</svg>
