<?xml version="1.0" encoding="utf-8"?>
<!-- Generator: Adobe Illustrator 17.0.0, SVG Export Plug-In . SVG Version: 6.00 Build 0)  -->
<!DOCTYPE svg PUBLIC "-//W3C//DTD SVG 1.1//EN" "http://www.w3.org/Graphics/SVG/1.1/DTD/svg11.dtd">
<svg version="1.1" id="Layer_1" xmlns="http://www.w3.org/2000/svg" xmlns:xlink="http://www.w3.org/1999/xlink" x="0px" y="0px"
	 width="60px" height="60px" viewBox="0 0 60 60" enable-background="new 0 0 60 60" xml:space="preserve">
<g>
	<path fill="#231F20" d="M14.869,38.565c0.553,0,1-0.448,1-1c0-0.552-0.447-1-1-1c-1.534,0-2.782-1.249-2.782-2.783v-7
		c0-1.534,1.248-2.783,2.782-2.783h6.305c0.284,0,0.555-0.121,0.744-0.332L32,12.437v6.215c0,0.552,0.447,1,1,1c0.553,0,1-0.448,1-1
		V9.826c0-0.414-0.256-0.786-0.643-0.934c-0.385-0.147-0.824-0.043-1.102,0.266L20.727,22h-5.858c-2.637,0-4.782,2.146-4.782,4.783
		v7C10.087,36.42,12.232,38.565,14.869,38.565z"/>
	<path fill="#231F20" d="M33,35.304c-0.553,0-1,0.448-1,1v11.21l-3.77-4.303c-0.364-0.417-0.995-0.456-1.411-0.094
		c-0.415,0.364-0.457,0.996-0.093,1.411l5.521,6.304c0.193,0.221,0.47,0.341,0.752,0.341c0.118,0,0.237-0.021,0.352-0.064
		C33.742,50.963,34,50.59,34,50.174v-13.87C34,35.752,33.553,35.304,33,35.304z"/>
	<path fill="#231F20" d="M30,0C13.458,0,0,13.458,0,30s13.458,30,30,30s30-13.458,30-30S46.542,0,30,0z M2,30C2,14.561,14.56,2,30,2
		c7.681,0,14.648,3.11,19.711,8.135L10.135,49.711C5.11,44.648,2,37.681,2,30z M30,58c-7.04,0-13.477-2.618-18.402-6.923
		l39.479-39.479C55.382,16.523,58,22.96,58,30C58,45.44,45.44,58,30,58z"/>
</g>
</svg>
