<?xml version="1.0" encoding="utf-8"?>
<!-- Generator: Adobe Illustrator 17.0.0, SVG Export Plug-In . SVG Version: 6.00 Build 0)  -->
<!DOCTYPE svg PUBLIC "-//W3C//DTD SVG 1.1//EN" "http://www.w3.org/Graphics/SVG/1.1/DTD/svg11.dtd">
<svg version="1.1" id="Layer_1" xmlns="http://www.w3.org/2000/svg" xmlns:xlink="http://www.w3.org/1999/xlink" x="0px" y="0px"
	 width="60px" height="60px" viewBox="0 0 60 60" enable-background="new 0 0 60 60" xml:space="preserve">
<g>
	<path fill="#231F20" d="M33,9.13c-8.231,0-16.976,5.492-20.633,12.87H7c-4.188,0-7,4.137-7,8v4.696C0,38.723,3.277,42,7.305,42
		h5.068C15.871,48.989,24.427,54,33,54c0.553,0,1-0.448,1-1V10.13C34,9.578,33.553,9.13,33,9.13z M32,51.976
		c-7.72-0.376-15.215-5.049-18.085-11.388C13.753,40.23,13.396,40,13.004,40H7.305C4.38,40,2,37.621,2,34.696V30
		c0-2.838,2.054-6,5-6h6c0.393,0,0.749-0.23,0.911-0.587C16.944,16.713,24.59,11.589,32,11.16V51.976z"/>
	<path fill="#231F20" d="M59,32h-9v-9.261c0-0.552-0.447-1-1-1c-0.553,0-1,0.448-1,1V32h-9.174c-0.553,0-1,0.448-1,1s0.447,1,1,1H48
		v8.913c0,0.552,0.447,1,1,1c0.553,0,1-0.448,1-1V34h9c0.553,0,1-0.448,1-1S59.553,32,59,32z"/>
</g>
</svg>
