<?xml version="1.0" encoding="utf-8"?>
<!-- Generator: Adobe Illustrator 17.0.0, SVG Export Plug-In . SVG Version: 6.00 Build 0)  -->
<!DOCTYPE svg PUBLIC "-//W3C//DTD SVG 1.1//EN" "http://www.w3.org/Graphics/SVG/1.1/DTD/svg11.dtd">
<svg version="1.1" id="Layer_1" xmlns="http://www.w3.org/2000/svg" xmlns:xlink="http://www.w3.org/1999/xlink" x="0px" y="0px"
	 width="60px" height="60px" viewBox="0 0 60 60" enable-background="new 0 0 60 60" xml:space="preserve">
<g>
	<path fill="#231F20" d="M45,20H21c-1.654,0-3,1.346-3,3v1h-5c-0.552,0-1,0.448-1,1v16c0,0.552,0.448,1,1,1h5v15
		c0,1.654,1.346,3,3,3h24c1.654,0,3-1.346,3-3V23C48,21.346,46.654,20,45,20z M18,26v6h-4v-6H18z M14,40v-6h4v6H14z M46,57
		c0,0.551-0.449,1-1,1H21c-0.551,0-1-0.449-1-1V41V25v-2c0-0.551,0.449-1,1-1h24c0.551,0,1,0.449,1,1V57z"/>
	<path fill="#231F20" d="M41.348,54H23.696c-0.552,0-1,0.448-1,1c0,0.552,0.448,1,1,1h17.652c0.552,0,1-0.448,1-1
		C42.348,54.448,41.9,54,41.348,54z"/>
	<path fill="#231F20" d="M43,26H23c-0.552,0-1,0.448-1,1v22c0,0.552,0.448,1,1,1h20c0.552,0,1-0.448,1-1V27
		C44,26.448,43.552,26,43,26z M42,48H24V28h18V48z"/>
	<circle fill="#231F20" cx="33.783" cy="33.783" r="1.261"/>
	<circle fill="#231F20" cx="33.783" cy="41.348" r="1.261"/>
	<path fill="#231F20" d="M30,0C13.458,0,0,13.458,0,30v7c0,0.552,0.448,1,1,1h2.521C3.698,38,3.856,37.942,4,37.861V42
		c0,1.654,1.346,3,3,3s3-1.346,3-3v-9c0-1.654-1.346-3-3-3s-3,1.346-3,3v3.139C3.856,36.058,3.698,36,3.521,36H2v-6
		C2,14.561,14.56,2,30,2s28,12.561,28,28v6h-1.521c-0.177,0-0.334,0.058-0.479,0.139V33c0-1.654-1.346-3-3-3s-3,1.346-3,3v9
		c0,1.654,1.346,3,3,3s3-1.346,3-3v-4.139C56.144,37.942,56.302,38,56.479,38H59c0.552,0,1-0.448,1-1v-7C60,13.458,46.542,0,30,0z
		 M6,33c0-0.551,0.449-1,1-1s1,0.449,1,1v9c0,0.551-0.449,1-1,1s-1-0.449-1-1V33z M54,42c0,0.551-0.449,1-1,1c-0.551,0-1-0.449-1-1
		v-9c0-0.551,0.449-1,1-1c0.551,0,1,0.449,1,1V42z"/>
</g>
</svg>
