<?xml version="1.0" encoding="utf-8"?>
<!-- Generator: Adobe Illustrator 17.0.0, SVG Export Plug-In . SVG Version: 6.00 Build 0)  -->
<!DOCTYPE svg PUBLIC "-//W3C//DTD SVG 1.1//EN" "http://www.w3.org/Graphics/SVG/1.1/DTD/svg11.dtd">
<svg version="1.1" id="Layer_1" xmlns="http://www.w3.org/2000/svg" xmlns:xlink="http://www.w3.org/1999/xlink" x="0px" y="0px"
	 width="60px" height="60px" viewBox="0 0 60 60" enable-background="new 0 0 60 60" xml:space="preserve">
<g>
	<path fill="#010101" d="M49,0H11C4.935,0,0,4.935,0,11v38c0,6.065,4.935,11,11,11h38c6.065,0,11-4.935,11-11V11
		C60,4.935,55.065,0,49,0z M58,49c0,4.962-4.038,9-9,9H11c-4.962,0-9-4.038-9-9V11c0-4.962,4.038-9,9-9h38c4.962,0,9,4.038,9,9V49z"
		/>
	<path fill="#010101" d="M24.963,20.732C24.843,20.299,24.449,20,24,20s-0.843,0.299-0.963,0.732l-5,18
		c-0.148,0.532,0.164,1.083,0.696,1.231c0.532,0.148,1.083-0.164,1.231-0.696L21.427,34h5.147l1.463,5.268
		C28.16,39.71,28.562,40,29,40c0.088,0,0.179-0.012,0.268-0.037c0.532-0.147,0.844-0.699,0.696-1.231L24.963,20.732z M21.982,32
		L24,24.736L26.018,32H21.982z"/>
	<path fill="#010101" d="M33,20c-0.552,0-1,0.448-1,1v18c0,0.552,0.448,1,1,1s1-0.448,1-1V21C34,20.448,33.552,20,33,20z"/>
	<path fill="#010101" d="M42,38c-1.439,0-2-0.561-2-2V26h1c0.552,0,1-0.448,1-1s-0.448-1-1-1h-1v-3c0-0.552-0.448-1-1-1
		s-1,0.448-1,1v3h-1c-0.552,0-1,0.448-1,1s0.448,1,1,1h1v10c0,2.542,1.458,4,4,4c0.552,0,1-0.448,1-1S42.552,38,42,38z"/>
</g>
</svg>
