<?xml version="1.0" encoding="utf-8"?>
<!-- Generator: Adobe Illustrator 17.0.0, SVG Export Plug-In . SVG Version: 6.00 Build 0)  -->
<!DOCTYPE svg PUBLIC "-//W3C//DTD SVG 1.1//EN" "http://www.w3.org/Graphics/SVG/1.1/DTD/svg11.dtd">
<svg version="1.1" id="Layer_1" xmlns="http://www.w3.org/2000/svg" xmlns:xlink="http://www.w3.org/1999/xlink" x="0px" y="0px"
	 width="60px" height="60px" viewBox="0 0 60 60" enable-background="new 0 0 60 60" xml:space="preserve">
<g>
	<path fill="#010101" d="M11,60h38c6.065,0,11-4.935,11-11V11c0-6.065-4.935-11-11-11H11C4.935,0,0,4.935,0,11v38
		C0,55.065,4.935,60,11,60z M2,11c0-4.962,4.038-9,9-9h38c4.962,0,9,4.038,9,9v38c0,4.962-4.038,9-9,9H11c-4.962,0-9-4.038-9-9V11z"
		/>
	<path fill="#010101" d="M9,24h11.586l17.707,17.707C38.48,41.895,38.735,42,39,42h12c0.552,0,1-0.448,1-1s-0.448-1-1-1H39.414
		L21.707,22.293C21.52,22.105,21.265,22,21,22H9c-0.552,0-1,0.448-1,1S8.448,24,9,24z"/>
	<path fill="#010101" d="M35,24h16c0.552,0,1-0.448,1-1s-0.448-1-1-1H35c-0.552,0-1,0.448-1,1S34.448,24,35,24z"/>
</g>
</svg>
