<?xml version="1.0" encoding="utf-8"?>
<!-- Generator: Adobe Illustrator 17.0.0, SVG Export Plug-In . SVG Version: 6.00 Build 0)  -->
<!DOCTYPE svg PUBLIC "-//W3C//DTD SVG 1.1//EN" "http://www.w3.org/Graphics/SVG/1.1/DTD/svg11.dtd">
<svg version="1.1" id="Layer_1" xmlns="http://www.w3.org/2000/svg" xmlns:xlink="http://www.w3.org/1999/xlink" x="0px" y="0px"
	 width="60px" height="60px" viewBox="0 0 60 60" enable-background="new 0 0 60 60" xml:space="preserve">
<g>
	<path fill="#010101" d="M51,32c-0.552,0-1,0.448-1,1v15.586L11.707,10.293c-0.391-0.391-1.023-0.391-1.414,0s-0.391,1.023,0,1.414
		L48.586,50H33c-0.552,0-1,0.448-1,1s0.448,1,1,1h18c0.13,0,0.26-0.027,0.382-0.077c0.244-0.101,0.439-0.296,0.541-0.541
		C51.973,51.26,52,51.13,52,51V33C52,32.448,51.552,32,51,32z"/>
</g>
</svg>
