<?xml version="1.0" encoding="utf-8"?>
<!-- Generator: Adobe Illustrator 17.0.0, SVG Export Plug-In . SVG Version: 6.00 Build 0)  -->
<!DOCTYPE svg PUBLIC "-//W3C//DTD SVG 1.1//EN" "http://www.w3.org/Graphics/SVG/1.1/DTD/svg11.dtd">
<svg version="1.1" id="Layer_1" xmlns="http://www.w3.org/2000/svg" xmlns:xlink="http://www.w3.org/1999/xlink" x="0px" y="0px"
	 width="60px" height="60px" viewBox="0 0 60 60" enable-background="new 0 0 60 60" xml:space="preserve">
<g>
	<path fill="#010101" d="M48.293,10.293L10,48.586V33c0-0.552-0.448-1-1-1s-1,0.448-1,1v18c0,0.13,0.027,0.26,0.077,0.382
		c0.101,0.244,0.296,0.439,0.541,0.541C8.74,51.973,8.87,52,9,52h18c0.552,0,1-0.448,1-1s-0.448-1-1-1H11.414l38.293-38.293
		c0.391-0.391,0.391-1.023,0-1.414S48.684,9.902,48.293,10.293z"/>
</g>
</svg>
