<?xml version="1.0" encoding="utf-8"?>
<!-- Generator: Adobe Illustrator 17.0.0, SVG Export Plug-In . SVG Version: 6.00 Build 0)  -->
<!DOCTYPE svg PUBLIC "-//W3C//DTD SVG 1.1//EN" "http://www.w3.org/Graphics/SVG/1.1/DTD/svg11.dtd">
<svg version="1.1" id="Layer_1" xmlns="http://www.w3.org/2000/svg" xmlns:xlink="http://www.w3.org/1999/xlink" x="0px" y="0px"
	 width="60px" height="60px" viewBox="0 0 60 60" enable-background="new 0 0 60 60" xml:space="preserve">
<g>
	<path fill="#010101" d="M59.706,30.292L47.707,18.293c-0.391-0.391-1.023-0.391-1.414,0s-0.391,1.023,0,1.414L56.586,30H1
		c-0.553,0-1,0.448-1,1s0.447,1,1,1h55.586L46.293,42.293c-0.391,0.391-0.391,1.023,0,1.414C46.488,43.902,46.744,44,47,44
		s0.512-0.098,0.707-0.293l11.999-11.999c0.093-0.092,0.166-0.203,0.217-0.326c0.101-0.244,0.101-0.52,0-0.764
		C59.872,30.495,59.799,30.385,59.706,30.292z"/>
</g>
</svg>
