<?xml version="1.0" encoding="utf-8"?>
<!-- Generator: Adobe Illustrator 17.0.0, SVG Export Plug-In . SVG Version: 6.00 Build 0)  -->
<!DOCTYPE svg PUBLIC "-//W3C//DTD SVG 1.1//EN" "http://www.w3.org/Graphics/SVG/1.1/DTD/svg11.dtd">
<svg version="1.1" id="Layer_1" xmlns="http://www.w3.org/2000/svg" xmlns:xlink="http://www.w3.org/1999/xlink" x="0px" y="0px"
	 width="60px" height="60px" viewBox="0 0 60 60" enable-background="new 0 0 60 60" xml:space="preserve">
<g>
	<path fill="#010101" d="M51.382,8.077C51.26,8.027,51.13,8,51,8H33c-0.552,0-1,0.448-1,1s0.448,1,1,1h15.586L10.293,48.293
		c-0.391,0.391-0.391,1.023,0,1.414C10.488,49.902,10.744,50,11,50s0.512-0.098,0.707-0.293L50,11.414V27c0,0.552,0.448,1,1,1
		s1-0.448,1-1V9c0-0.13-0.027-0.26-0.077-0.382C51.821,8.373,51.627,8.179,51.382,8.077z"/>
</g>
</svg>
