<?xml version="1.0" encoding="utf-8"?>
<!-- Generator: Adobe Illustrator 17.0.0, SVG Export Plug-In . SVG Version: 6.00 Build 0)  -->
<!DOCTYPE svg PUBLIC "-//W3C//DTD SVG 1.1//EN" "http://www.w3.org/Graphics/SVG/1.1/DTD/svg11.dtd">
<svg version="1.1" id="Layer_1" xmlns="http://www.w3.org/2000/svg" xmlns:xlink="http://www.w3.org/1999/xlink" x="0px" y="0px"
	 width="60px" height="60px" viewBox="0 0 60 60" enable-background="new 0 0 60 60" xml:space="preserve">
<g>
	<path fill="#010101" d="M11.414,10H27c0.552,0,1-0.448,1-1s-0.448-1-1-1H9C8.87,8,8.74,8.027,8.618,8.077
		C8.373,8.179,8.179,8.373,8.077,8.618C8.027,8.74,8,8.87,8,9v18c0,0.552,0.448,1,1,1s1-0.448,1-1V11.414l38.293,38.293
		C48.488,49.902,48.744,50,49,50s0.512-0.098,0.707-0.293c0.391-0.391,0.391-1.023,0-1.414L11.414,10z"/>
</g>
</svg>
