<?xml version="1.0" encoding="utf-8"?>
<!-- Generator: Adobe Illustrator 17.0.0, SVG Export Plug-In . SVG Version: 6.00 Build 0)  -->
<!DOCTYPE svg PUBLIC "-//W3C//DTD SVG 1.1//EN" "http://www.w3.org/Graphics/SVG/1.1/DTD/svg11.dtd">
<svg version="1.1" id="Layer_1" xmlns="http://www.w3.org/2000/svg" xmlns:xlink="http://www.w3.org/1999/xlink" x="0px" y="0px"
	 width="60px" height="60px" viewBox="0 0 60 60" enable-background="new 0 0 60 60" xml:space="preserve">
<g>
	<path fill="#010101" d="M59,22H43.857l7.572-13.115c0.276-0.479,0.112-1.09-0.366-1.366l-12.124-7
		c-0.229-0.132-0.502-0.168-0.759-0.1s-0.475,0.236-0.607,0.466L30.001,14L22.429,0.885c-0.277-0.479-0.887-0.643-1.366-0.366
		l-12.125,7C8.708,7.651,8.54,7.87,8.472,8.126c-0.069,0.256-0.033,0.529,0.1,0.759L16.144,22H1c-0.552,0-1,0.448-1,1v14
		c0,0.552,0.448,1,1,1h15.145L8.572,51.115c-0.132,0.229-0.168,0.502-0.1,0.759c0.068,0.256,0.236,0.475,0.466,0.607l12.124,7
		c0.153,0.088,0.326,0.134,0.5,0.134c0.087,0,0.174-0.011,0.259-0.034c0.256-0.068,0.475-0.236,0.607-0.466l7.572-13.116
		l7.572,13.115c0.276,0.478,0.886,0.642,1.366,0.366l12.124-6.999c0.229-0.133,0.397-0.351,0.466-0.607
		c0.069-0.256,0.033-0.529-0.1-0.759L43.857,38H59c0.552,0,1-0.448,1-1V23C60,22.448,59.552,22,59,22z M58,36H42.125
		c-0.357,0-0.688,0.19-0.866,0.5c-0.178,0.31-0.178,0.69,0,1l7.938,13.749l-10.392,5.999l-7.938-13.749
		c-0.357-0.619-1.375-0.619-1.732,0l-7.938,13.75l-10.392-6L18.743,37.5c0.178-0.31,0.178-0.69,0-1c-0.179-0.31-0.509-0.5-0.866-0.5
		H2V24h15.876c0.357,0,0.688-0.19,0.866-0.5c0.178-0.31,0.178-0.69,0-1L10.804,8.751l10.393-6L29.135,16.5
		c0.357,0.619,1.375,0.619,1.732,0l7.938-13.749l10.392,6L41.259,22.5c-0.178,0.31-0.178,0.69,0,1c0.179,0.31,0.509,0.5,0.866,0.5
		H58V36z"/>
</g>
</svg>
