<?xml version="1.0" encoding="utf-8"?>
<!-- Generator: Adobe Illustrator 17.0.0, SVG Export Plug-In . SVG Version: 6.00 Build 0)  -->
<!DOCTYPE svg PUBLIC "-//W3C//DTD SVG 1.1//EN" "http://www.w3.org/Graphics/SVG/1.1/DTD/svg11.dtd">
<svg version="1.1" id="Layer_1" xmlns="http://www.w3.org/2000/svg" xmlns:xlink="http://www.w3.org/1999/xlink" x="0px" y="0px"
	 width="60px" height="60px" viewBox="0 0 60 60" enable-background="new 0 0 60 60" xml:space="preserve">
<g>
	<path fill="#010101" d="M59,30H13.414l12.293-12.293c0.391-0.391,0.391-1.023,0-1.414s-1.023-0.391-1.414,0L10.294,30.292
		c-0.093,0.092-0.166,0.203-0.217,0.326c-0.101,0.244-0.101,0.52,0,0.764c0.051,0.123,0.124,0.233,0.217,0.326l13.999,13.999
		C24.488,45.902,24.744,46,25,46s0.512-0.098,0.707-0.293c0.391-0.391,0.391-1.023,0-1.414L13.414,32H59c0.553,0,1-0.448,1-1
		S59.553,30,59,30z"/>
	<path fill="#010101" d="M1,16c-0.553,0-1,0.448-1,1v28c0,0.552,0.447,1,1,1s1-0.448,1-1V17C2,16.448,1.553,16,1,16z"/>
</g>
</svg>
