<?xml version="1.0" encoding="utf-8"?>
<!-- Generator: Adobe Illustrator 17.0.0, SVG Export Plug-In . SVG Version: 6.00 Build 0)  -->
<!DOCTYPE svg PUBLIC "-//W3C//DTD SVG 1.1//EN" "http://www.w3.org/Graphics/SVG/1.1/DTD/svg11.dtd">
<svg version="1.1" id="Layer_1" xmlns="http://www.w3.org/2000/svg" xmlns:xlink="http://www.w3.org/1999/xlink" x="0px" y="0px"
	 width="60px" height="60px" viewBox="0 0 60 60" enable-background="new 0 0 60 60" xml:space="preserve">
<g>
	<path fill="#010101" d="M49,0H11C4.935,0,0,4.935,0,11v38c0,6.065,4.935,11,11,11h38c6.065,0,11-4.935,11-11V11
		C60,4.935,55.065,0,49,0z M58,49c0,4.962-4.037,9-9,9H11c-4.963,0-9-4.038-9-9V11c0-4.962,4.037-9,9-9h38c4.963,0,9,4.038,9,9V49z"
		/>
	<path fill="#010101" d="M47,30H27.414l6.293-6.293c0.391-0.391,0.391-1.023,0-1.414s-1.023-0.391-1.414,0l-7.999,7.999
		c-0.093,0.092-0.166,0.203-0.217,0.326c-0.101,0.244-0.101,0.52,0,0.764c0.051,0.123,0.124,0.233,0.217,0.326l7.999,7.999
		C32.488,39.902,32.744,40,33,40s0.512-0.098,0.707-0.293c0.391-0.391,0.391-1.023,0-1.414L27.414,32H47c0.553,0,1-0.448,1-1
		S47.553,30,47,30z"/>
	<path fill="#010101" d="M17,22c-0.553,0-1,0.448-1,1v16c0,0.552,0.447,1,1,1s1-0.448,1-1V23C18,22.448,17.553,22,17,22z"/>
</g>
</svg>
