<?xml version="1.0" encoding="utf-8"?>
<!-- Generator: Adobe Illustrator 17.0.0, SVG Export Plug-In . SVG Version: 6.00 Build 0)  -->
<!DOCTYPE svg PUBLIC "-//W3C//DTD SVG 1.1//EN" "http://www.w3.org/Graphics/SVG/1.1/DTD/svg11.dtd">
<svg version="1.1" id="Layer_1" xmlns="http://www.w3.org/2000/svg" xmlns:xlink="http://www.w3.org/1999/xlink" x="0px" y="0px"
	 width="60px" height="60px" viewBox="0 0 60 60" enable-background="new 0 0 60 60" xml:space="preserve">
<g>
	<path fill="#010101" d="M49,0H11C4.935,0,0,4.935,0,11v38c0,6.065,4.935,11,11,11h38c6.065,0,11-4.935,11-11V11
		C60,4.935,55.065,0,49,0z M58,49c0,4.962-4.037,9-9,9H11c-4.963,0-9-4.038-9-9V11c0-4.962,4.037-9,9-9h38c4.963,0,9,4.038,9,9V49z"
		/>
	<path fill="#010101" d="M28.293,34.707C28.488,34.902,28.744,35,29,35s0.512-0.098,0.707-0.293L33,31.414l3.293,3.293
		C36.488,34.902,36.744,35,37,35s0.512-0.098,0.707-0.293c0.391-0.391,0.391-1.023,0-1.414L34.414,30l3.293-3.293
		c0.391-0.391,0.391-1.023,0-1.414s-1.023-0.391-1.414,0L33,28.586l-3.293-3.293c-0.391-0.391-1.023-0.391-1.414,0
		s-0.391,1.023,0,1.414L31.586,30l-3.293,3.293C27.902,33.684,27.902,34.316,28.293,34.707z"/>
	<path fill="#010101" d="M47,20H20c-0.266,0-0.52,0.105-0.707,0.293l-9,9c-0.391,0.391-0.391,1.023,0,1.414l9,9
		C19.48,39.895,19.734,40,20,40h27c0.553,0,1-0.448,1-1V21C48,20.448,47.553,20,47,20z M46,38H20.414l-8-8l8-8H46V38z"/>
</g>
</svg>
