<?xml version="1.0" encoding="utf-8"?>
<!-- Generator: Adobe Illustrator 17.0.0, SVG Export Plug-In . SVG Version: 6.00 Build 0)  -->
<!DOCTYPE svg PUBLIC "-//W3C//DTD SVG 1.1//EN" "http://www.w3.org/Graphics/SVG/1.1/DTD/svg11.dtd">
<svg version="1.1" id="Layer_1" xmlns="http://www.w3.org/2000/svg" xmlns:xlink="http://www.w3.org/1999/xlink" x="0px" y="0px"
	 width="60px" height="60px" viewBox="0 0 60 60" enable-background="new 0 0 60 60" xml:space="preserve">
<g>
	<path fill="#010101" d="M49,0H11C4.935,0,0,4.935,0,11v38c0,6.065,4.935,11,11,11h38c6.065,0,11-4.935,11-11V11
		C60,4.935,55.065,0,49,0z M58,49c0,4.962-4.038,9-9,9H11c-4.962,0-9-4.038-9-9V11c0-4.962,4.038-9,9-9h38c4.962,0,9,4.038,9,9V49z"
		/>
</g>
</svg>
