<?xml version="1.0" encoding="utf-8"?>
<!-- Generator: Adobe Illustrator 17.0.0, SVG Export Plug-In . SVG Version: 6.00 Build 0)  -->
<!DOCTYPE svg PUBLIC "-//W3C//DTD SVG 1.1//EN" "http://www.w3.org/Graphics/SVG/1.1/DTD/svg11.dtd">
<svg version="1.1" id="Layer_1" xmlns="http://www.w3.org/2000/svg" xmlns:xlink="http://www.w3.org/1999/xlink" x="0px" y="0px"
	 width="60px" height="60px" viewBox="0 0 60 60" enable-background="new 0 0 60 60" xml:space="preserve">
<g>
	<path fill="#010101" d="M59,0H31c-0.552,0-1,0.448-1,1s0.448,1,1,1h27V46H3.414l10.293-10.293c0.391-0.391,0.391-1.023,0-1.414
		s-1.023-0.391-1.414,0l-12,12c-0.092,0.092-0.165,0.203-0.216,0.325c-0.101,0.245-0.101,0.52,0,0.764
		c0.051,0.122,0.124,0.233,0.216,0.325l12,12C12.488,59.903,12.744,60,13,60s0.512-0.098,0.707-0.293
		c0.391-0.391,0.391-1.023,0-1.414L3.414,48H59c0.552,0,1-0.448,1-1V1C60,0.447,59.552,0,59,0z"/>
</g>
</svg>
