<?xml version="1.0" encoding="utf-8"?>
<!-- Generator: Adobe Illustrator 17.0.0, SVG Export Plug-In . SVG Version: 6.00 Build 0)  -->
<!DOCTYPE svg PUBLIC "-//W3C//DTD SVG 1.1//EN" "http://www.w3.org/Graphics/SVG/1.1/DTD/svg11.dtd">
<svg version="1.1" id="Layer_1" xmlns="http://www.w3.org/2000/svg" xmlns:xlink="http://www.w3.org/1999/xlink" x="0px" y="0px"
	 width="60px" height="60px" viewBox="0 0 60 60" enable-background="new 0 0 60 60" xml:space="preserve">
<g>
	<path fill="#010101" d="M40.293,13.707C40.488,13.902,40.744,14,41,14s0.512-0.098,0.707-0.293c0.391-0.391,0.391-1.023,0-1.414
		L29.708,0.294c-0.092-0.093-0.203-0.166-0.326-0.217c-0.244-0.101-0.52-0.101-0.764,0c-0.123,0.051-0.233,0.124-0.326,0.217
		L16.293,12.293c-0.391,0.391-0.391,1.023,0,1.414s1.023,0.391,1.414,0L28,3.414V24H17c-0.553,0-1,0.448-1,1s0.447,1,1,1h11v6H17
		c-0.553,0-1,0.448-1,1s0.447,1,1,1h11v25c0,0.552,0.447,1,1,1s1-0.448,1-1V34h11c0.553,0,1-0.448,1-1s-0.447-1-1-1H30v-6h11
		c0.553,0,1-0.448,1-1s-0.447-1-1-1H30V3.414L40.293,13.707z"/>
</g>
</svg>
