<?xml version="1.0" encoding="utf-8"?>
<!-- Generator: Adobe Illustrator 17.0.0, SVG Export Plug-In . SVG Version: 6.00 Build 0)  -->
<!DOCTYPE svg PUBLIC "-//W3C//DTD SVG 1.1//EN" "http://www.w3.org/Graphics/SVG/1.1/DTD/svg11.dtd">
<svg version="1.1" id="Layer_1" xmlns="http://www.w3.org/2000/svg" xmlns:xlink="http://www.w3.org/1999/xlink" x="0px" y="0px"
	 width="60px" height="60px" viewBox="0 0 60 60" enable-background="new 0 0 60 60" xml:space="preserve">
<g>
	<path fill="#010101" d="M49.923,30.618c-0.051-0.123-0.124-0.233-0.217-0.326L35.707,16.293c-0.391-0.391-1.023-0.391-1.414,0
		s-0.391,1.023,0,1.414L46.586,30H1c-0.553,0-1,0.448-1,1s0.447,1,1,1h45.586L34.293,44.293c-0.391,0.391-0.391,1.023,0,1.414
		C34.488,45.902,34.744,46,35,46s0.512-0.098,0.707-0.293l13.999-13.999c0.093-0.092,0.166-0.203,0.217-0.326
		C50.024,31.138,50.024,30.862,49.923,30.618z"/>
	<path fill="#010101" d="M59,16c-0.553,0-1,0.448-1,1v28c0,0.552,0.447,1,1,1s1-0.448,1-1V17C60,16.448,59.553,16,59,16z"/>
</g>
</svg>
