<svg width="110" height="20" viewBox="0 0 110 20" xmlns="http://www.w3.org/2000/svg">
  <g fill-rule="evenodd" stroke="none" fill="#000000">
    <path d="M57.2 6c-2.7 0-4.8 1.3-5.9 3.4-1.1-2-3.2-3.4-5.9-3.4-2.8 0-5 1.4-6 3.6l-1.8 3.9-3.5-8.2-3.6 8.2-3.3-7.1H24l6.6 13.1 3.5-7.9 3.5 7.9 2-4c1.1 2 3.2 3.3 5.8 3.3 2.7 0 4.8-1.3 5.9-3.4 1.1 2 3.2 3.4 5.9 3.4 3.8 0 6.6-2.7 6.6-6.4S61 6 57.2 6zM45.4 16.2c-2.2 0-3.9-1.6-3.9-3.9s1.7-3.9 3.9-3.9 3.9 1.6 3.9 3.9-1.7 3.9-3.9 3.9zm11.8 0c-2.2 0-3.9-1.6-3.9-3.9s1.7-3.9 3.9-3.9 3.9 1.6 3.9 3.9-1.7 3.9-3.9 3.9zM73.4 6.4c-.6-.3-1.4-.4-2.3-.4-1.7 0-2.9.3-3.6 1.3v-1h-2.7v12.1h2.7v-5.5c0-2.7 1.2-4.4 2.9-4.4.3 0 .7 0 1.1.1.5-.9 1.1-1.6 1.9-2.2zM81.8 7.4c-.6-.7-2.1-1.4-3.9-1.4-3.4 0-6.1 2.7-6.1 6.4s2.7 6.4 6.1 6.4c1.7 0 3.3-.7 3.9-1.4v1.1h2.7V6.4h-2.7v1zm-3.6 8.8c-2.3 0-3.7-1.8-3.7-3.9 0-2.1 1.4-3.9 3.7-3.9 2.2 0 3.7 1.7 3.7 3.9s-1.5 3.9-3.7 3.9zM92.5 6c-1.3 0-2.8.4-3.8 1.8V6.3H86v12.1h2.7v-6.7c0-2.1 1.5-3.2 3.2-3.2 1.8 0 2.9 1.1 2.9 3.2v6.7h2.7v-7.6c0-2.9-2.1-4.8-5-4.8zM104.9 12.2l-.2-.2 5.1-5.7h-3.4l-4.1 4.6h-.7V.2l-2.7 2.7v15.6h2.7v-5.1h.7l4.1 5.1h3.4c.1-.1-3.2-4.2-4.9-6.3z"/>
  </g>
  <path d="M7.9 20c6.5 0 11.9-7.8 11.9-7.8S14.4 4.4 7.9 4.4C3.6 4.4 0 8 0 12.2 0 16.4 3.7 20 7.9 20z" fill="#2286E6"/>
  <path d="M6.8 14.8l.7.7.7-.7 4-3.9c.4-.4.4-1 0-1.4-.4-.4-1-.4-1.4 0l-3.3 3.2-1.3-1.3c-.4-.4-1-.4-1.4 0-.4.4-.4 1 0 1.4l2 2z" fill="#FFF"/>
</svg>
