<?xml version="1.0" encoding="UTF-8" standalone="no"?>
<svg width="152px" height="20px" viewBox="0 0 152 20" version="1.1" xmlns="http://www.w3.org/2000/svg" xmlns:xlink="http://www.w3.org/1999/xlink">
    <g stroke="none" stroke-width="1" fill="none" fill-rule="evenodd">
        <path d="M120.078,18 L120.078,6.661 L118.667,6.661 L118.667,11.54 L112.037,11.54 L112.037,6.661 L110.626,6.661 L110.626,18 L112.037,18 L112.037,12.798 L118.667,12.798 L118.667,18 L120.078,18 Z M130.959,18 L130.959,16.742 L124.941,16.742 L124.941,12.832 L130.84,12.832 L130.84,11.574 L124.941,11.574 L124.941,7.919 L130.959,7.919 L130.959,6.661 L123.53,6.661 L123.53,18 L130.959,18 Z M140.497,18 L140.497,16.742 L135.227,16.742 L135.227,6.661 L133.816,6.661 L133.816,18 L140.497,18 Z M144.595,18 L144.595,13.495 L147.74,13.495 C150.001,13.495 151.293,11.931 151.293,10.078 C151.293,8.225 150.018,6.661 147.74,6.661 L143.184,6.661 L143.184,18 L144.595,18 Z M147.57,12.237 L144.595,12.237 L144.595,7.919 L147.57,7.919 C148.913,7.919 149.831,8.803 149.831,10.078 C149.831,11.353 148.913,12.237 147.57,12.237 L147.57,12.237 Z" id="HELP" fill="#888888"></path>
        <path d="M49.5777122,12.3396584 C49.5777122,15.9709045 46.7816353,18.7166351 43.0192251,18.7166351 C39.2574501,18.7166351 36.4740798,15.9709045 36.4740798,12.3396584 C36.4740798,8.70841239 39.2574501,5.96268184 43.0192251,5.96268184 C46.7816353,5.96268184 49.5777122,8.70841239 49.5777122,12.3396584 L49.5777122,12.3396584 L49.5777122,12.3396584 Z M39.206624,12.3396584 C39.206624,14.629981 40.8457692,16.2239089 43.0192251,16.2239089 C45.1926809,16.2239089 46.8451681,14.629981 46.8451681,12.3396584 C46.8451681,10.0493359 45.1926809,8.45477545 43.0192251,8.45477545 C40.8457692,8.45477545 39.206624,10.0493359 39.206624,12.3396584 L39.206624,12.3396584 L39.206624,12.3396584 Z" fill="#000000"></path>
        <path d="M61.258211,12.3396584 C61.258211,15.9709045 58.4621339,18.7166351 54.6997237,18.7166351 C50.9379487,18.7166351 48.1545784,15.9709045 48.1545784,12.3396584 C48.1545784,8.70841239 50.9379487,5.96268184 54.6997237,5.96268184 C58.4621339,5.96268184 61.258211,8.70841239 61.258211,12.3396584 L61.258211,12.3396584 L61.258211,12.3396584 Z M50.8871225,12.3396584 C50.8871225,14.629981 52.5269031,16.2239089 54.6997237,16.2239089 C56.8731795,16.2239089 58.5256667,14.629981 58.5256667,12.3396584 C58.5256667,10.0493359 56.8731795,8.45477545 54.6997237,8.45477545 C52.5269031,8.45477545 50.8871225,10.0493359 50.8871225,12.3396584 L50.8871225,12.3396584 L50.8871225,12.3396584 Z" fill="#000000"></path>
        <path d="M68.8421984,8.60241843 C68.4737451,8.52154482 68.0906488,8.48007588 67.7523176,8.48007588 C66.0617107,8.48007588 64.8291753,10.1960784 64.8545881,12.9089184 L64.8545881,18.4003795 L62.1982835,18.4003795 L62.1982835,6.27893737 L64.8291753,6.27893737 L64.8291753,7.25300443 C65.5401639,6.30423784 66.6598361,5.96268184 68.3628674,5.96268184 C69.2602016,5.96268184 70.0449899,6.12728106 70.6660756,6.3850482 C69.9226126,6.98449051 69.3023898,7.73594082 68.8421984,8.60241843 L68.8421984,8.60241843 L68.8421984,8.60241843 Z" fill="#000000"></path>
        <path d="M78.9922777,18.4003795 L78.9922777,17.3371284 C78.3952441,18.0651156 76.895061,18.7166351 75.1663346,18.7166351 C71.7603432,18.7166351 69.0786254,16.0468058 69.0786254,12.3396584 C69.0786254,8.63251106 71.7603432,5.96268184 75.1663346,5.96268184 C76.895061,5.96268184 78.440118,6.68323878 78.9922777,7.3542062 L78.9922777,6.27893737 L81.6479473,6.27893737 L81.6479473,18.4003795 L78.9922777,18.4003795 L78.9922777,18.4003795 Z M75.4839984,16.2239089 C77.6828676,16.2239089 79.1568275,14.5540797 79.1568275,12.3396584 C79.1568275,10.1252372 77.6828676,8.45477545 75.4839984,8.45477545 C73.196819,8.45477545 71.8111693,10.2137887 71.8111693,12.3396584 C71.8111693,14.4648956 73.196819,16.2239089 75.4839984,16.2239089 L75.4839984,16.2239089 L75.4839984,16.2239089 Z" fill="#000000"></path>
        <path d="M94.556551,10.7830487 L94.556551,18.4003795 L91.8875398,18.4003795 L91.8875398,11.6565465 C91.8875398,9.61922835 90.8322605,8.48007588 89.0533434,8.48007588 C87.3373232,8.48007588 85.9014828,9.60594561 85.9014828,11.6818469 L85.9014828,18.4003795 L83.2324716,18.4003795 L83.2324716,6.27893737 L85.8760695,6.27893737 L85.8760695,7.7596458 C86.8544742,6.32953827 88.3671893,5.96268184 89.6124317,5.96268184 C92.5101608,5.96268184 94.556551,7.94876659 94.556551,10.7830487" fill="#000000"></path>
        <path d="M99.47263,10.8627502 L103.489171,6.27893765 L106.83163,6.27893765 L101.735032,11.98482 C101.735032,11.98482 101.861124,12.1419766 101.92417,12.2205549 C103.576932,14.2804965 106.882456,18.4003798 106.882456,18.4003798 L103.513949,18.4003798 L99.4599234,13.3333336 L98.7972045,13.3333333 L98.7972045,18.4003795 L96.1281929,18.4003795 L96.1281929,2.83744465 L98.7972045,0.180265655 L98.7972045,10.8627499 L99.47263,10.8627502 L99.47263,10.8627502 Z" fill="#000000"></path>
        <path d="M38.3857806,12.4440228 C38.3857806,10.7305503 39.3247949,9.23845667 40.7161624,8.4408602 L41.7727122,6.30234027 L37.0642991,9.59203035 L35.299359,13.4421253 L31.8095043,5.22454141 L28.2929658,13.4440228 L25.0191225,6.30234027 L21.8189772,6.30234027 L28.3145669,19.4522454 L31.8075983,11.5667299 L35.2758518,19.4541429 L38.4321595,13.0645161 C38.4048405,12.8608476 38.3857806,12.6546489 38.3857806,12.4440228" fill="#000000"></path>
        <path d="M7.86324786,20 C14.3405983,20 19.6581197,12.1568627 19.6581197,12.1568627 C19.6581197,12.1568627 14.3405983,4.31372549 7.86324786,4.31372549 C3.62594017,4.31372549 0,7.93039216 0,12.1568627 C0,16.3833333 3.62594017,20 7.86324786,20 L7.86324786,20 L7.86324786,20 Z" fill="#2286E6"></path>
        <path d="M6.77506597,14.810889 L7.47008547,15.5041309 L8.16510497,14.810889 L12.0967289,10.8893204 C12.4805776,10.5064534 12.4805776,9.88570345 12.0967289,9.50283647 C11.7128802,9.11996953 11.0905386,9.11996953 10.7066899,9.50283647 L7.48504585,12.7460853 L6.19929301,11.4636208 C5.81544432,11.0807538 5.19310269,11.0807538 4.809254,11.4636208 C4.42540535,11.8464878 4.42540535,12.4672377 4.809254,12.8501047 L6.77506597,14.810889 L6.77506597,14.810889 Z" fill="#FFFFFF"></path>
    </g>
</svg>
