<?xml version="1.0" encoding="UTF-8" standalone="no"?>
<svg width="184px" height="20px" viewBox="0 0 184 20" version="1.1" xmlns="http://www.w3.org/2000/svg" xmlns:xlink="http://www.w3.org/1999/xlink">
    <g stroke="none" stroke-width="1" fill-rule="evenodd">
        <path d="M49.5777122,12.3396584 C49.5777122,15.9709045 46.7816353,18.7166351 43.0192251,18.7166351 C39.2574501,18.7166351 36.4740798,15.9709045 36.4740798,12.3396584 C36.4740798,8.70841239 39.2574501,5.96268184 43.0192251,5.96268184 C46.7816353,5.96268184 49.5777122,8.70841239 49.5777122,12.3396584 L49.5777122,12.3396584 L49.5777122,12.3396584 Z M39.206624,12.3396584 C39.206624,14.629981 40.8457692,16.2239089 43.0192251,16.2239089 C45.1926809,16.2239089 46.8451681,14.629981 46.8451681,12.3396584 C46.8451681,10.0493359 45.1926809,8.45477545 43.0192251,8.45477545 C40.8457692,8.45477545 39.206624,10.0493359 39.206624,12.3396584 L39.206624,12.3396584 L39.206624,12.3396584 Z"></path>
        <path d="M61.258211,12.3396584 C61.258211,15.9709045 58.4621339,18.7166351 54.6997237,18.7166351 C50.9379487,18.7166351 48.1545784,15.9709045 48.1545784,12.3396584 C48.1545784,8.70841239 50.9379487,5.96268184 54.6997237,5.96268184 C58.4621339,5.96268184 61.258211,8.70841239 61.258211,12.3396584 L61.258211,12.3396584 L61.258211,12.3396584 Z M50.8871225,12.3396584 C50.8871225,14.629981 52.5269031,16.2239089 54.6997237,16.2239089 C56.8731795,16.2239089 58.5256667,14.629981 58.5256667,12.3396584 C58.5256667,10.0493359 56.8731795,8.45477545 54.6997237,8.45477545 C52.5269031,8.45477545 50.8871225,10.0493359 50.8871225,12.3396584 L50.8871225,12.3396584 L50.8871225,12.3396584 Z"></path>
        <path d="M68.8421984,8.60241843 C68.4737451,8.52154482 68.0906488,8.48007588 67.7523176,8.48007588 C66.0617107,8.48007588 64.8291753,10.1960784 64.8545881,12.9089184 L64.8545881,18.4003795 L62.1982835,18.4003795 L62.1982835,6.27893737 L64.8291753,6.27893737 L64.8291753,7.25300443 C65.5401639,6.30423784 66.6598361,5.96268184 68.3628674,5.96268184 C69.2602016,5.96268184 70.0449899,6.12728106 70.6660756,6.3850482 C69.9226126,6.98449051 69.3023898,7.73594082 68.8421984,8.60241843 L68.8421984,8.60241843 L68.8421984,8.60241843 Z"></path>
        <path d="M78.9922777,18.4003795 L78.9922777,17.3371284 C78.3952441,18.0651156 76.895061,18.7166351 75.1663346,18.7166351 C71.7603432,18.7166351 69.0786254,16.0468058 69.0786254,12.3396584 C69.0786254,8.63251106 71.7603432,5.96268184 75.1663346,5.96268184 C76.895061,5.96268184 78.440118,6.68323878 78.9922777,7.3542062 L78.9922777,6.27893737 L81.6479473,6.27893737 L81.6479473,18.4003795 L78.9922777,18.4003795 L78.9922777,18.4003795 Z M75.4839984,16.2239089 C77.6828676,16.2239089 79.1568275,14.5540797 79.1568275,12.3396584 C79.1568275,10.1252372 77.6828676,8.45477545 75.4839984,8.45477545 C73.196819,8.45477545 71.8111693,10.2137887 71.8111693,12.3396584 C71.8111693,14.4648956 73.196819,16.2239089 75.4839984,16.2239089 L75.4839984,16.2239089 L75.4839984,16.2239089 Z"></path>
        <path d="M94.556551,10.7830487 L94.556551,18.4003795 L91.8875398,18.4003795 L91.8875398,11.6565465 C91.8875398,9.61922835 90.8322605,8.48007588 89.0533434,8.48007588 C87.3373232,8.48007588 85.9014828,9.60594561 85.9014828,11.6818469 L85.9014828,18.4003795 L83.2324716,18.4003795 L83.2324716,6.27893737 L85.8760695,6.27893737 L85.8760695,7.7596458 C86.8544742,6.32953827 88.3671893,5.96268184 89.6124317,5.96268184 C92.5101608,5.96268184 94.556551,7.94876659 94.556551,10.7830487"></path>
        <path d="M99.47263,10.8627502 L103.489171,6.27893765 L106.83163,6.27893765 L101.735032,11.98482 C101.735032,11.98482 101.861124,12.1419766 101.92417,12.2205549 C103.576932,14.2804965 106.882456,18.4003798 106.882456,18.4003798 L103.513949,18.4003798 L99.4599234,13.3333336 L98.7972045,13.3333333 L98.7972045,18.4003795 L96.1281929,18.4003795 L96.1281929,2.83744465 L98.7972045,0.180265655 L98.7972045,10.8627499 L99.47263,10.8627502 L99.47263,10.8627502 Z"></path>
        <path d="M38.3857806,12.4440228 C38.3857806,10.7305503 39.3247949,9.23845667 40.7161624,8.4408602 L41.7727122,6.30234027 L37.0642991,9.59203035 L35.299359,13.4421253 L31.8095043,5.22454141 L28.2929658,13.4440228 L25.0191225,6.30234027 L21.8189772,6.30234027 L28.3145669,19.4522454 L31.8075983,11.5667299 L35.2758518,19.4541429 L38.4321595,13.0645161 C38.4048405,12.8608476 38.3857806,12.6546489 38.3857806,12.4440228"></path>
        <path d="M7.86324786,20 C14.3405983,20 19.6581197,12.1568627 19.6581197,12.1568627 C19.6581197,12.1568627 14.3405983,4.31372549 7.86324786,4.31372549 C3.62594017,4.31372549 0,7.93039216 0,12.1568627 C0,16.3833333 3.62594017,20 7.86324786,20 Z M6.77506597,14.810889 L7.47008547,15.5041309 L8.16510497,14.810889 L12.0967289,10.8893204 C12.4805776,10.5064534 12.4805776,9.88570345 12.0967289,9.50283647 C11.7128802,9.11996953 11.0905386,9.11996953 10.7066899,9.50283647 L7.48504585,12.7460853 L6.19929301,11.4636208 C5.81544432,11.0807538 5.19310269,11.0807538 4.809254,11.4636208 C4.42540535,11.8464878 4.42540535,12.4672377 4.809254,12.8501047 L6.77506597,14.810889 Z"></path>
        <path d="M118.469887,18.4092072 L118.469887,17.0633703 L111.996422,17.0633703 L111.996422,12.8803637 L118.34188,12.8803637 L118.34188,11.5345269 L111.996422,11.5345269 L111.996422,7.6243251 L118.469887,7.6243251 L118.469887,6.2784882 L110.478632,6.2784882 L110.478632,18.4092072 L118.469887,18.4092072 L118.469887,18.4092072 Z M131.160803,18.4092072 L126.406281,12.1710713 L130.886504,6.2784882 L129.021268,6.2784882 L125.418803,11.1162262 L121.798052,6.2784882 L119.951103,6.2784882 L124.431326,12.1892583 L119.676804,18.4092072 L121.523753,18.4092072 L125.418803,13.2441035 L129.313854,18.4092072 L131.160803,18.4092072 L131.160803,18.4092072 Z M134.324389,18.4092072 L134.324389,13.5896562 L137.707414,13.5896562 C140.139535,13.5896562 141.529318,11.9164535 141.529318,9.9340722 C141.529318,7.95169082 140.157821,6.2784882 137.707414,6.2784882 L132.806599,6.2784882 L132.806599,18.4092072 L134.324389,18.4092072 L134.324389,18.4092072 Z M137.524548,12.2438193 L134.324389,12.2438193 L134.324389,7.6243251 L137.524548,7.6243251 C138.969191,7.6243251 139.956669,8.57004831 139.956669,9.9340722 C139.956669,11.298096 138.969191,12.2438193 137.524548,12.2438193 L137.524548,12.2438193 L137.524548,12.2438193 Z M151.532101,18.4092072 L151.532101,17.0633703 L145.058636,17.0633703 L145.058636,12.8803637 L151.404095,12.8803637 L151.404095,11.5345269 L145.058636,11.5345269 L145.058636,7.6243251 L151.532101,7.6243251 L151.532101,6.2784882 L143.540847,6.2784882 L143.540847,18.4092072 L151.532101,18.4092072 L151.532101,18.4092072 Z M162.796661,18.4092072 L159.505068,13.4623473 C161.169151,13.3168514 162.686941,12.1165104 162.686941,9.9340722 C162.686941,7.69707302 161.077718,6.2784882 158.84675,6.2784882 L153.945935,6.2784882 L153.945935,18.4092072 L155.463725,18.4092072 L155.463725,13.5896562 L157.914132,13.5896562 L161.004572,18.4092072 L162.796661,18.4092072 L162.796661,18.4092072 Z M158.663884,12.2620062 L155.463725,12.2620062 L155.463725,7.6243251 L158.663884,7.6243251 C160.108527,7.6243251 161.114292,8.55186133 161.114292,9.9340722 C161.114292,11.298096 160.108527,12.2620062 158.663884,12.2620062 L158.663884,12.2620062 L158.663884,12.2620062 Z M169.434705,18.4092072 L169.434705,7.6243251 L173.311469,7.6243251 L173.311469,6.2784882 L164.058438,6.2784882 L164.058438,7.6243251 L167.916915,7.6243251 L167.916915,18.4092072 L169.434705,18.4092072 L169.434705,18.4092072 Z M179.218048,18.627451 C182.50964,18.627451 183.716557,16.8087525 183.716557,15.0628019 C183.716557,10.5342427 176.493341,12.0983234 176.493341,9.37027565 C176.493341,8.22449561 177.553965,7.44245525 178.998609,7.44245525 C180.333532,7.44245525 181.613596,7.87894286 182.527927,8.89741404 L183.442258,7.78800796 C182.418207,6.71497584 180.973564,6.07843137 179.126615,6.07843137 C176.712781,6.07843137 174.920692,7.46064224 174.920692,9.46121059 C174.920692,13.789713 182.143908,12.0437624 182.143908,15.1719238 C182.143908,16.1176471 181.449016,17.2816141 179.272908,17.2816141 C177.553965,17.2816141 176.237329,16.4450128 175.451004,15.5356635 L174.536673,16.6996306 C175.542437,17.8272236 177.115086,18.627451 179.218048,18.627451 L179.218048,18.627451 L179.218048,18.627451 Z"></path>
    </g>
</svg>
