<svg xmlns="http://www.w3.org/2000/svg" fill="none" viewBox="0 0 110 31"><g fill-rule="evenodd" clip-path="url(#a)" clip-rule="evenodd"><path fill="#656D78" d="M64.01 22.88h1.594c1.1 0 1.834.367 1.834 1.316a1.173 1.173 0 0 1-.785 1.166v.033a1.24 1.24 0 0 1 1.1 1.287c0 1.056-.836 1.57-2.031 1.57h-1.72l.007-5.372Zm1.466 2.288c.913 0 1.29-.337 1.29-.884 0-.627-.428-.861-1.26-.861h-.826v1.745h.796Zm.14 2.541c.916 0 1.466-.33 1.466-1.052 0-.664-.52-.965-1.467-.965h-.935v2.017h.935Zm2.794 2.178.131-.539c.098.037.2.058.305.062.447 0 .733-.366.898-.854l.088-.293-1.595-3.99h.697l.81 2.2c.124.345.26.752.388 1.122h.033c.114-.366.228-.77.334-1.122l.712-2.2h.656l-1.5 4.327c-.282.788-.693 1.386-1.489 1.386a1.332 1.332 0 0 1-.469-.099Zm6.247-7.007h1.61c1.1 0 1.833.367 1.833 1.316a1.173 1.173 0 0 1-.785 1.166v.033a1.24 1.24 0 0 1 1.1 1.287c0 1.056-.836 1.57-2.035 1.57h-1.716l-.007-5.372Zm1.466 2.288c.917 0 1.295-.337 1.295-.884 0-.627-.433-.861-1.262-.861h-.825v1.745h.792Zm.143 2.541c.917 0 1.467-.33 1.467-1.052 0-.664-.52-.965-1.467-.965h-.935v2.017h.935Zm3.301-3.436h.557l.055.734h.022a1.37 1.37 0 0 1 1.133-.822.939.939 0 0 1 .426.081l-.129.59a1.074 1.074 0 0 0-.366-.066c-.338 0-.734.242-1.005.917v2.567h-.693v-4Zm2.882-1.25a.466.466 0 1 1 .465.444.435.435 0 0 1-.465-.444Zm.124 1.25h.66v3.979h-.66v-3.979Zm1.892 1.995c0-1.29.814-2.09 1.724-2.09.411.009.804.172 1.1.458l-.022-.682v-1.532h.674v5.83h-.557l-.055-.47h-.022a1.767 1.767 0 0 1-1.21.569c-.986 0-1.632-.756-1.632-2.083Zm2.802.975v-2.086a1.39 1.39 0 0 0-.968-.414c-.638 0-1.144.616-1.144 1.521 0 .906.396 1.522 1.1 1.522a1.376 1.376 0 0 0 1.012-.543Zm1.888 1.775a1.1 1.1 0 0 1 .583-.898v-.033a.734.734 0 0 1-.367-.653.96.96 0 0 1 .437-.733v-.033a1.37 1.37 0 0 1-.514-1.067 1.41 1.41 0 0 1 1.493-1.416c.19-.002.38.03.56.096h1.42v.52h-.818a1.145 1.145 0 0 1 .323.818 1.36 1.36 0 0 1-1.467 1.379 1.41 1.41 0 0 1-.594-.136.585.585 0 0 0-.253.473c0 .253.165.429.697.429h.773c.924 0 1.39.293 1.39.953 0 .734-.781 1.375-2.01 1.375-.975-.007-1.653-.392-1.653-1.074Zm3-.209c0-.367-.283-.495-.804-.495h-.686a2.195 2.195 0 0 1-.517-.059.829.829 0 0 0-.406.668c0 .429.428.696 1.154.696.727 0 1.258-.396 1.258-.81Zm-.514-3.216a.85.85 0 1 0-1.69 0 .852.852 0 0 0 1.192.873.85.85 0 0 0 .498-.873Zm1.694.675c0-1.294.873-2.09 1.79-2.09 1.011 0 1.587.733 1.587 1.866 0 .123-.012.246-.033.367h-2.68c.047.843.564 1.39 1.323 1.39.355-.004.7-.115.99-.32l.242.444a2.356 2.356 0 0 1-1.316.411c-1.06.015-1.903-.759-1.903-2.068Zm2.78-.323c0-.799-.367-1.232-.98-1.232-.56 0-1.06.448-1.14 1.232h2.12Zm1.738 1.511v-5.034h.674V27.5c0 .205.088.286.187.286a.653.653 0 0 0 .147 0l.091.513a1.046 1.046 0 0 1-.388.063c-.502-.011-.711-.334-.711-.906Zm2.126-4.433a.463.463 0 0 1 .272-.446.464.464 0 0 1 .626.597.469.469 0 0 1-.432.293.435.435 0 0 1-.466-.444Zm.121 1.25h.671v3.979h-.671v-3.979Zm2.178 0h.557l.059.576h.022a1.893 1.893 0 0 1 1.335-.671c.836 0 1.213.539 1.213 1.555v2.519h-.674V25.82c0-.734-.224-1.06-.734-1.06-.407 0-.689.209-1.1.612v2.879h-.674l-.004-3.979Zm4.345 1.995c0-1.294.873-2.09 1.789-2.09 1.016 0 1.588.733 1.588 1.866a1.88 1.88 0 0 1-.033.367h-2.677c.048.843.561 1.39 1.32 1.39a1.74 1.74 0 0 0 .99-.32l.242.444c-.384.27-.84.418-1.309.426-1.067 0-1.91-.774-1.91-2.083Zm2.783-.323c0-.799-.367-1.232-.983-1.232-.557 0-1.059.448-1.14 1.232h2.123Z"/><path fill="#000" d="M51.021 12.547a6.743 6.743 0 1 1-6.908-6.581h.158a6.516 6.516 0 0 1 6.75 6.581Zm-10.673 0a3.934 3.934 0 0 0 7.865.147v-.147a3.934 3.934 0 0 0-7.862-.311v.311h-.003Z"/><path fill="#000" d="M63.04 12.547a6.504 6.504 0 0 1-6.427 6.6h-.323a6.492 6.492 0 0 1-6.724-6.277v-.319a6.494 6.494 0 0 1 6.394-6.6h.33a6.508 6.508 0 0 1 6.74 6.277 3.1 3.1 0 0 1 .01.32Zm-10.673 0a3.934 3.934 0 0 0 7.861.21v-.21a3.932 3.932 0 1 0-7.854-.403v.194c0 .063-.007.129-.007.21ZM70.854 8.68a5.5 5.5 0 0 0-1.122-.128c-1.741 0-3.01 1.77-2.984 4.568v5.676h-2.736V6.288h2.721v1.009c1.797-2.013 5.097-1.28 6.002-.895a7.195 7.195 0 0 0-1.87 2.277h-.01Zm10.443 10.109v-1.1a5.378 5.378 0 0 1-3.93 1.426 6.281 6.281 0 0 1-6.274-6.28v-.283a6.288 6.288 0 0 1 5.98-6.582h.293a5.577 5.577 0 0 1 3.942 1.441V6.288h2.732v12.507l-2.743-.007Zm-3.612-2.244a3.758 3.758 0 0 0 3.792-3.71v-.294a3.792 3.792 0 0 0-7.565-.458v.458a3.75 3.75 0 0 0 3.473 4.011h.3v-.007Zm19.628-5.614v7.858h-2.746v-6.967c0-2.1-1.1-3.278-2.934-3.278a3.095 3.095 0 0 0-3.241 2.934v7.311h-2.75V6.292h2.724v1.529a4.444 4.444 0 0 1 3.847-1.855 4.825 4.825 0 0 1 5.085 4.546v.426l.015-.008Zm5.067.081 4.125-4.723h3.443l-5.247 5.893L110 18.799h-3.458l-4.18-5.232h-.686v5.232H98.93V2.743L101.676 0v11.018l.704-.007Zm-62.872 1.624a4.766 4.766 0 0 1 2.398-4.125l1.1-2.2-4.767 3.403-1.91 3.964-3.593-8.485-3.612 8.477-3.377-7.359h-3.274l6.684 13.567 3.579-8.144 3.564 8.151 3.248-6.6a4.72 4.72 0 0 1-.044-.645l.004-.004Z"/><path fill="#2286E6" d="M8.092 20.449c6.67 0 12.14-8.092 12.14-8.092s-5.474-8.093-12.14-8.093A8.235 8.235 0 0 0 0 12.357a8.228 8.228 0 0 0 8.092 8.092Z"/><path fill="#fff" d="m6.966 15.096.734.733.715-.733 4.051-4.045a1.012 1.012 0 1 0-1.433-1.43l-3.3 3.352-1.353-1.331a1.012 1.012 0 0 0-1.467 1.382l.048.048 2.005 2.024Z"/></g><defs><clipPath id="a"><path fill="#fff" d="M0 0h110v30.085H0z"/></clipPath></defs></svg>