<svg width="476px" height="51px" viewBox="0 0 476 51" version="1.1" xmlns="http://www.w3.org/2000/svg" xmlns:xlink="http://www.w3.org/1999/xlink">
    <!-- Generator: Sketch 41 (35326) - http://www.bohemiancoding.com/sketch -->
    <desc>Created with Sketch.</desc>
    <defs></defs>
    <g id="Woorank-Logo-Icon" stroke="none" fill-rule="evenodd">
        <g id="Group">
            <g transform="translate(55.000000, 0.000000)">
                <path d="M71.1,31.466 C71.1,40.726 63.988,47.727 54.418,47.727 C44.85,47.727 37.771,40.726 37.771,31.467 C37.771,22.207 44.851,15.205 54.418,15.205 C63.988,15.205 71.1,22.206 71.1,31.466 L71.1,31.466 Z M44.721,31.466 C44.721,37.306 48.891,41.371 54.418,41.371 C59.947,41.371 64.15,37.306 64.15,31.466 C64.15,25.626 59.947,21.56 54.418,21.56 C48.89,21.56 44.721,25.626 44.721,31.466 Z"></path>
                <path d="M100.809,31.466 C100.809,40.726 93.697,47.727 84.128,47.727 C74.56,47.727 67.48,40.726 67.48,31.467 C67.48,22.207 74.56,15.205 84.128,15.205 C93.698,15.205 100.808,22.206 100.808,31.466 L100.809,31.466 Z M74.43,31.466 C74.43,37.306 78.601,41.371 84.128,41.371 C89.656,41.371 93.858,37.306 93.858,31.466 C93.858,25.626 89.656,21.56 84.128,21.56 C78.601,21.56 74.43,25.626 74.43,31.466 Z M120.099,21.936 C119.188568,21.7346588 118.25941,21.6300783 117.327,21.624 C113.027,21.624 109.892,26 109.957,32.918 L109.957,46.92 L103.2,46.92 L103.2,16.01 L109.892,16.01 L109.892,18.494 C111.7,16.074 114.548,15.204 118.879,15.204 C121.162,15.204 123.158,15.624 124.738,16.281 C122.824959,17.8325571 121.246474,19.7559948 120.098,21.935 L120.099,21.936 Z M145.915,46.921 L145.915,44.21 C144.397,46.066 140.581,47.727 136.184,47.727 C127.521,47.727 120.7,40.919 120.7,31.467 C120.7,22.013 127.52,15.205 136.184,15.205 C140.581,15.205 144.511,17.042 145.915,18.753 L145.915,16.011 L152.67,16.011 L152.67,46.921 L145.915,46.921 Z M136.992,41.371 C142.585,41.371 146.334,37.113 146.334,31.466 C146.334,25.819 142.584,21.56 136.992,21.56 C131.175,21.56 127.65,26.045 127.65,31.466 C127.65,36.886 131.175,41.371 136.992,41.371 Z M185.503,27.497 L185.503,46.92 L178.714,46.92 L178.714,29.724 C178.714,24.529 176.03,21.624 171.505,21.624 C167.141,21.624 163.489,24.495 163.489,29.789 L163.489,46.92 L156.7,46.92 L156.7,16.01 L163.424,16.01 L163.424,19.786 C165.912,16.139 169.76,15.204 172.927,15.204 C180.297,15.204 185.503,20.268 185.503,27.496 L185.503,27.497 Z M198.006,27.7 L208.222,16.011 L216.724,16.011 L203.761,30.561 C208.124926,36.0143924 212.488926,41.4677258 216.853,46.921 L208.285,46.921 L197.975,34 L196.289,34 L196.289,46.921 L189.5,46.921 L189.5,7.235 L196.289,0.46 L196.289,27.7 L198.006,27.7 Z M42.633,31.732 C42.633,27.362 45.022,23.558 48.561,21.524 L51.248,16.071 L39.272,24.46 L34.783,34.277 L25.907,13.323 L16.963,34.283 L8.636,16.071 L0.496,16.071 L17.017,49.603 L25.902,29.495 L34.723,49.608 L42.751,33.315 C42.681,32.795 42.633,32.269 42.633,31.732 L42.633,31.732 Z"></path>
            </g>
            <path d="M20,51 C36.475,51 50,31 50,31 C50,31 36.475,11 20,11 C9.223,11 0,20.223 0,31 C0,41.778 9.223,51 20,51 Z M17.232,37.768 L19,39.536 L20.768,37.768 L30.768,27.768 C31.7444394,26.7915606 31.7444393,25.2084395 30.7679999,24.2320001 C29.7915605,23.2555607 28.2084394,23.2555606 27.232,24.232 L19.038,32.502 L15.768,29.232 C14.7915606,28.2555606 13.2084394,28.2555606 12.232,29.232 C11.2555606,30.2084394 11.2555606,31.7915606 12.232,32.768 L17.232,37.768 L17.232,37.768 Z"></path>
            <path d="M300.515625,47 L296.694336,37.2368164 L284.390625,37.2368164 L280.611328,47 L277,47 L289.135742,16.1777344 L292.138184,16.1777344 L304.210938,47 L300.515625,47 Z M295.581543,34.0244141 L292.012207,24.5131836 C291.550291,23.3094015 291.074384,21.832691 290.584473,20.0830078 C290.276528,21.4267645 289.835615,22.903475 289.261719,24.5131836 L285.650391,34.0244141 L295.581543,34.0244141 Z M320.713867,19.0541992 C317.340478,19.0541992 314.6775,20.177479 312.724854,22.4240723 C310.772207,24.6706655 309.795898,27.7465625 309.795898,31.6518555 C309.795898,35.6691282 310.737214,38.7730196 312.619873,40.963623 C314.502532,43.1542264 317.186506,44.2495117 320.671875,44.2495117 C322.813487,44.2495117 325.256008,43.8645872 327.999512,43.0947266 L327.999512,46.2231445 C325.871897,47.0210001 323.247411,47.4199219 320.125977,47.4199219 C315.604795,47.4199219 312.115979,46.0481908 309.659424,43.3046875 C307.202869,40.5611842 305.974609,36.6629484 305.974609,31.6098633 C305.974609,28.446436 306.565993,25.6749793 307.748779,23.2954102 C308.931565,20.915841 310.63923,19.0822004 312.871826,17.7944336 C315.104422,16.5066667 317.732407,15.862793 320.755859,15.862793 C323.975277,15.862793 326.788725,16.4506777 329.196289,17.6264648 L327.68457,20.6918945 C325.360991,19.6000922 323.037447,19.0541992 320.713867,19.0541992 Z M353.992676,47 L350.171387,37.2368164 L337.867676,37.2368164 L334.088379,47 L330.477051,47 L342.612793,16.1777344 L345.615234,16.1777344 L357.687988,47 L353.992676,47 Z M349.058594,34.0244141 L345.489258,24.5131836 C345.027341,23.3094015 344.551435,21.832691 344.061523,20.0830078 C343.753579,21.4267645 343.312666,22.903475 342.73877,24.5131836 L339.127441,34.0244141 L349.058594,34.0244141 Z M386.410645,31.3579102 C386.410645,36.4249928 385.035414,40.2987333 382.284912,42.979248 C379.53441,45.6597628 375.576686,47 370.411621,47 L361.908203,47 L361.908203,16.3037109 L371.314453,16.3037109 C376.087589,16.3037109 379.796862,17.6264516 382.442383,20.2719727 C385.087904,22.9174937 386.410645,26.6127692 386.410645,31.3579102 Z M382.631348,31.4838867 C382.631348,27.4806115 381.627045,24.4642029 379.618408,22.4345703 C377.609772,20.4049378 374.624857,19.3901367 370.663574,19.3901367 L365.477539,19.3901367 L365.477539,43.9135742 L369.82373,43.9135742 C374.07896,43.9135742 377.277333,42.8672793 379.418945,40.7746582 C381.560558,38.6820371 382.631348,35.5851442 382.631348,31.4838867 Z M410.367188,47 L393.255371,47 L393.255371,16.3037109 L410.367188,16.3037109 L410.367188,19.4741211 L396.824707,19.4741211 L396.824707,29.3632812 L409.54834,29.3632812 L409.54834,32.5126953 L396.824707,32.5126953 L396.824707,43.8085938 L410.367188,43.8085938 L410.367188,47 Z M430.754395,47 L420.340332,19.7890625 L420.172363,19.7890625 C420.368328,21.9446722 420.466309,24.5061701 420.466309,27.4736328 L420.466309,47 L417.169922,47 L417.169922,16.3037109 L422.544922,16.3037109 L432.266113,41.625 L432.434082,41.625 L442.239258,16.3037109 L447.572266,16.3037109 L447.572266,47 L444.00293,47 L444.00293,27.2216797 C444.00293,24.9540902 444.10091,22.4905732 444.296875,19.8310547 L444.128906,19.8310547 L433.630859,47 L430.754395,47 Z M463.802246,31.6518555 L471.990723,16.3037109 L475.854004,16.3037109 L465.60791,35.0952148 L465.60791,47 L461.996582,47 L461.996582,35.2631836 L451.771484,16.3037109 L455.676758,16.3037109 L463.802246,31.6518555 Z"></path>
        </g>
    </g>
</svg>
