<?xml version="1.0" encoding="UTF-8" standalone="no"?>
<svg width="394px" height="51px" viewBox="0 0 394 51" version="1.1" xmlns="http://www.w3.org/2000/svg">
    <g stroke="none" stroke-width="1" fill-rule="evenodd">
        <g transform="translate(55.000000, 0.000000)">
            <path d="M71.0998333,31.466129 C71.0998333,40.7258065 63.9880725,47.7274194 54.4184638,47.7274194 C44.850471,47.7274194 37.771029,40.7258065 37.771029,31.466129 C37.771029,22.2064516 44.850471,15.2048387 54.4184638,15.2048387 C63.9880725,15.2048387 71.0998333,22.2064516 71.0998333,31.466129 L71.0998333,31.466129 L71.0998333,31.466129 Z M44.7211957,31.466129 C44.7211957,37.3064516 48.8903261,41.3709677 54.4184638,41.3709677 C59.9466014,41.3709677 64.1496667,37.3064516 64.1496667,31.466129 C64.1496667,25.6258065 59.9466014,21.5596774 54.4184638,21.5596774 C48.8903261,21.5596774 44.7211957,25.6258065 44.7211957,31.466129 L44.7211957,31.466129 L44.7211957,31.466129 Z"></path>
            <path d="M100.808928,31.466129 C100.808928,40.7258065 93.6971667,47.7274194 84.127558,47.7274194 C74.5595652,47.7274194 67.4801232,40.7258065 67.4801232,31.466129 C67.4801232,22.2064516 74.5595652,15.2048387 84.127558,15.2048387 C93.6971667,15.2048387 100.808928,22.2064516 100.808928,31.466129 L100.808928,31.466129 L100.808928,31.466129 Z M74.4302899,31.466129 C74.4302899,37.3064516 78.6010362,41.3709677 84.127558,41.3709677 C89.6556957,41.3709677 93.8587609,37.3064516 93.8587609,31.466129 C93.8587609,25.6258065 89.6556957,21.5596774 84.127558,21.5596774 C78.6010362,21.5596774 74.4302899,25.6258065 74.4302899,31.466129 L74.4302899,31.466129 L74.4302899,31.466129 Z"></path>
            <path d="M120.098635,21.936167 C119.161482,21.7299393 118.187085,21.6241935 117.326547,21.6241935 C113.026525,21.6241935 109.891598,26 109.956235,32.9177419 L109.956235,46.9209677 L103.199982,46.9209677 L103.199982,16.0112903 L109.891598,16.0112903 L109.891598,18.4951613 C111.699982,16.0758065 114.547844,15.2048387 118.879467,15.2048387 C121.161817,15.2048387 123.157909,15.6245667 124.737627,16.2818729 C122.846645,17.8104508 121.269122,19.7266491 120.098635,21.936167 L120.098635,21.936167 Z"></path>
            <path d="M145.915141,46.9209677 L145.915141,44.2096774 C144.396599,46.0660448 140.580916,47.7274194 136.183938,47.7274194 C127.520873,47.7274194 120.699982,40.9193548 120.699982,31.466129 C120.699982,22.0129032 127.520873,15.2048387 136.183938,15.2048387 C140.580916,15.2048387 144.510735,17.0422589 145.915141,18.7532258 L145.915141,16.0112903 L152.669779,16.0112903 L152.669779,46.9209677 L145.915141,46.9209677 L145.915141,46.9209677 Z M136.991909,41.3709677 C142.584685,41.3709677 146.33367,37.1129032 146.33367,31.466129 C146.33367,25.8193548 142.584685,21.5596774 136.991909,21.5596774 C131.174518,21.5596774 127.650148,26.0451613 127.650148,31.466129 C127.650148,36.8854839 131.174518,41.3709677 136.991909,41.3709677 L136.991909,41.3709677 Z"></path>
            <path d="M185.502532,27.4967742 L185.502532,46.9209677 L178.71396,46.9209677 L178.71396,29.7241935 C178.71396,24.5290323 176.02988,21.6241935 171.505243,21.6241935 C167.140583,21.6241935 163.488554,24.4951613 163.488554,29.7887097 L163.488554,46.9209677 L156.699982,46.9209677 L156.699982,16.0112903 L163.423916,16.0112903 L163.423916,19.7870968 C165.912467,16.1403226 169.760025,15.2048387 172.927272,15.2048387 C180.297583,15.2048387 185.502532,20.2693548 185.502532,27.4967742"></path>
            <path d="M198.006472,27.7000129 L208.222457,16.011291 L216.723928,16.011291 L203.760841,30.561291 C203.760841,30.561291 204.081554,30.9620403 204.24191,31.1624149 C208.445675,36.4152661 216.853204,46.9209684 216.853204,46.9209684 L208.285479,46.9209684 L197.974153,34.0000007 L196.288542,34 L196.288542,46.9209677 L189.499969,46.9209677 L189.499969,7.23548387 L196.288542,0.459677419 L196.288542,27.7000122 L198.006472,27.7000129 L198.006472,27.7000129 Z"></path>
            <path d="M42.6333986,31.7322581 C42.6333986,27.3629032 45.0217609,23.5580645 48.5606739,21.5241935 L51.2479855,16.0709677 L39.2722391,24.4596774 L34.7831522,34.2774194 L25.9067826,13.3225806 L16.9625435,34.2822581 L8.6355942,16.0709677 L0.496094203,16.0709677 L17.0174855,49.6032258 L25.9019348,29.4951613 L34.7233623,49.6080645 L42.7513623,33.3145161 C42.6818768,32.7951613 42.6333986,32.2693548 42.6333986,31.7322581"></path>
        </g>
        <path d="M20,51 C36.475,51 50,31 50,31 C50,31 36.475,11 20,11 C9.2225,11 0,20.2225 0,31 C0,41.7775 9.2225,51 20,51 L20,51 Z M17.232233,37.767767 L19,39.5355339 L20.767767,37.767767 L30.767767,27.767767 C31.7440777,26.7914562 31.7440777,25.2085438 30.767767,24.232233 C29.7914562,23.2559223 28.2085438,23.2559223 27.232233,24.232233 L19.0380514,32.5025175 L15.767767,29.232233 C14.7914562,28.2559223 13.2085438,28.2559223 12.232233,29.232233 C11.2559223,30.2085438 11.2559223,31.7914562 12.232233,32.767767 L17.232233,37.767767 L17.232233,37.767767 Z"></path>
        <path d="M295.13081,46.897974 C300.801728,46.897974 304.102016,43.5173661 304.102016,38.5622287 C304.102016,34.857453 301.359523,31.4768452 298.059235,30.9674385 C300.894694,30.3654124 303.497738,27.7720695 303.497738,23.882055 C303.497738,19.2510854 300.19745,16.0094067 294.80543,16.0094067 L281,16.0094067 L281,46.897974 L295.13081,46.897974 L295.13081,46.897974 Z M294.154669,29.3929088 L284.858083,29.3929088 L284.858083,19.4363242 L294.154669,19.4363242 C297.640889,19.4363242 299.500206,21.6591896 299.500206,24.4377713 C299.500206,27.2626628 297.640889,29.3929088 294.154669,29.3929088 L294.154669,29.3929088 L294.154669,29.3929088 Z M294.387084,43.4710564 L284.858083,43.4710564 L284.858083,32.8198263 L294.387084,32.8198263 C298.152201,32.8198263 300.104484,35.3205499 300.104484,38.1454414 C300.104484,41.4334298 297.966269,43.4710564 294.387084,43.4710564 L294.387084,43.4710564 L294.387084,43.4710564 Z M327.994241,46.897974 L327.994241,43.4710564 L313.584533,43.4710564 L313.584533,16.0094067 L309.72645,16.0094067 L309.72645,46.897974 L327.994241,46.897974 L327.994241,46.897974 Z M345.704237,47.4536903 C354.861374,47.4536903 361.136569,40.5998553 361.136569,31.4768452 C361.136569,22.353835 354.861374,15.5 345.704237,15.5 C336.5471,15.5 330.318387,22.353835 330.318387,31.4768452 C330.318387,40.5998553 336.5471,47.4536903 345.704237,47.4536903 L345.704237,47.4536903 L345.704237,47.4536903 Z M345.704237,44.0267728 C338.731798,44.0267728 334.315919,38.654848 334.315919,31.4768452 C334.315919,24.2525326 338.731798,18.9269175 345.704237,18.9269175 C352.630193,18.9269175 357.139037,24.2525326 357.139037,31.4768452 C357.139037,38.654848 352.630193,44.0267728 345.704237,44.0267728 L345.704237,44.0267728 L345.704237,44.0267728 Z M381.821473,47.5 C386.888112,47.5 391.118058,45.369754 394,42.1280753 L394,31.0137482 L379.497326,31.0137482 L379.497326,34.4406657 L390.1884,34.4406657 L390.1884,40.6924747 C388.60798,42.2670043 385.540107,44.0267728 381.821473,44.0267728 C375.034965,44.0267728 369.87536,38.7937771 369.87536,31.4768452 C369.87536,24.0672938 375.034965,18.9269175 381.821473,18.9269175 C385.540107,18.9269175 388.840395,20.686686 390.792678,23.1874096 L393.860551,21.2424023 C391.164541,17.9081042 387.352941,15.5 381.821473,15.5 C372.989716,15.5 365.877828,21.8444284 365.877828,31.4768452 C365.877828,41.0629522 372.989716,47.5 381.821473,47.5 L381.821473,47.5 L381.821473,47.5 Z"></path>
    </g>
</svg>
