<svg id="Layer_1" data-name="Layer 1" xmlns="http://www.w3.org/2000/svg" viewBox="0 0 110 32"><defs><style>.cls-1{fill:#656d78}.cls-2{fill-rule:evenodd}</style></defs><path class="cls-1" d="M28.87 29.49v-.68a.76.76 0 01-.11.14A1.8 1.8 0 0126 29a2.2 2.2 0 010-2.89 1.8 1.8 0 012.74 0 .76.76 0 01.11.14v-.68h.63v4zm-.39-3a1.35 1.35 0 00-2 0 1.52 1.52 0 000 2 1.35 1.35 0 002 0 1.52 1.52 0 000-2zM37 28.5a1.47 1.47 0 01-.45.56 2.33 2.33 0 01-1.48.43h-1.83v-6.14h1.64a1.72 1.72 0 011.73.83 1.33 1.33 0 01.15.6 2 2 0 010 .49 1.43 1.43 0 01-.14.34 1.13 1.13 0 01-.53.49 1.48 1.48 0 01.85.59 1.8 1.8 0 01.31 1.09 1.53 1.53 0 01-.25.72zM34.88 24h-1v1.92h1.19a1.21 1.21 0 00.78-.24.94.94 0 00.29-.75c-.01-.67-.42-.93-1.26-.93zm1.6 3.23a1.22 1.22 0 00-.27-.36 1.24 1.24 0 00-.84-.32h-1.5v2.39h1.41a1.29 1.29 0 00.93-.34 1.16 1.16 0 00.37-.89 1.21 1.21 0 00-.1-.53zM39.61 26.14a.64.64 0 00-.42.14 1.19 1.19 0 00-.29.34 1.75 1.75 0 00-.23.88v2h-.62v-4h.62v.82-.16a1 1 0 011-.74.92.92 0 01.4.08v.82a.7.7 0 00-.46-.18zM41.57 24.43a.37.37 0 01-.11.28.38.38 0 01-.28.12.36.36 0 01-.28-.12.38.38 0 01-.12-.28.4.4 0 01.12-.29.39.39 0 01.28-.11.41.41 0 01.28.11.39.39 0 01.11.29zm-.7 5.06v-4h.62v4zM46 29.49v-.68a1.71 1.71 0 01-.11.14 1.8 1.8 0 01-2.74 0 2.2 2.2 0 010-2.89 1.8 1.8 0 012.74 0 1.71 1.71 0 01.11.14v-3.48h.62v6.77zm-.4-3a1.26 1.26 0 00-1-.43 1.3 1.3 0 00-1 .43 1.49 1.49 0 000 2 1.3 1.3 0 001 .43 1.26 1.26 0 001-.43 1.49 1.49 0 000-2zM48.72 30.7a1.36 1.36 0 001 .42 1.34 1.34 0 001-.42 1.38 1.38 0 00.42-1v-.87A.69.69 0 0151 29a1.74 1.74 0 01-1.36.63 1.76 1.76 0 01-1.36-.63 2.2 2.2 0 010-2.89 1.76 1.76 0 011.38-.63 1.78 1.78 0 011.36.63l.11.12v-.66h.62v4.17a2 2 0 01-.6 1.46 1.93 1.93 0 01-1.43.6 2 2 0 01-1.44-.6 2 2 0 01-.57-1.2h.64a1.36 1.36 0 00.37.7zm2-4.21a1.28 1.28 0 00-1-.43 1.31 1.31 0 00-1 .43 1.49 1.49 0 000 2 1.31 1.31 0 001 .43 1.28 1.28 0 001-.43 1.49 1.49 0 000-2zM56.93 27.75h-3.46a1.4 1.4 0 00.49.84 1.44 1.44 0 00.91.33 1.47 1.47 0 001.13-.59h.72a2 2 0 01-.76.9 1.82 1.82 0 01-1 .33 2.14 2.14 0 01-1.54-.56 2.06 2.06 0 112.89-3 1.9 1.9 0 01.62 1.41zm-1.17-1.38a1.33 1.33 0 00-.89-.33 1.34 1.34 0 00-1.2.7 1.5 1.5 0 00-.19.47h2.79a1.47 1.47 0 00-.51-.84zM58 29.49v-6.77h.63v6.77zM60.66 24.43a.41.41 0 01-.11.28.38.38 0 01-.28.12.4.4 0 01-.29-.12.41.41 0 01-.11-.28.38.38 0 01.4-.4.41.41 0 01.28.11.44.44 0 01.11.29zM60 29.49v-4h.62v4zM64.67 27a1.22 1.22 0 00-.18-.67.61.61 0 00-.57-.27 1.23 1.23 0 00-.65.15 1.3 1.3 0 00-.41.4 2.24 2.24 0 00-.28 1.21v1.66H62v-4h.62v.68a1.73 1.73 0 01.5-.54 1.24 1.24 0 01.74-.22 1.63 1.63 0 01.68.12 1.31 1.31 0 01.44.33 1.72 1.72 0 01.31 1.15v2.48h-.62zM70.33 27.75h-3.45a1.35 1.35 0 00.49.84 1.42 1.42 0 00.91.33 1.36 1.36 0 00.65-.16 1.5 1.5 0 00.51-.43h.71a2 2 0 01-.75.9 1.87 1.87 0 01-1 .33 2.1 2.1 0 01-1.57-.56 2.09 2.09 0 010-2.93 2 2 0 012.88 0 1.86 1.86 0 01.62 1.41zm-1.16-1.38a1.37 1.37 0 00-2.09.37 1.29 1.29 0 00-.19.47h2.78a1.46 1.46 0 00-.5-.84zM78.23 29a2.94 2.94 0 01-1.71.54 2.85 2.85 0 01-2.15-.94 3.1 3.1 0 01-.87-2.21 3.35 3.35 0 01.23-1.22 3.17 3.17 0 01.64-1 2.85 2.85 0 012.15-.94 3 3 0 012.8 1.95h-.68A2.42 2.42 0 0077.17 24a2.73 2.73 0 00-.74-.09 2.07 2.07 0 00-.85.2 2.64 2.64 0 00-.77.55 2.58 2.58 0 000 3.51 2.33 2.33 0 003 .39 2.54 2.54 0 00.88-1h.68A3 3 0 0178.23 29zM83.5 29a2.06 2.06 0 01-2.9-3 2 2 0 012.9 0 2.09 2.09 0 010 2.93zm-.44-2.48a1.34 1.34 0 00-1-.43 1.35 1.35 0 00-1 .43 1.46 1.46 0 000 2 1.38 1.38 0 001 .42 1.37 1.37 0 001-.42 1.44 1.44 0 000-2zM90.15 27a1 1 0 00-.38-.86.76.76 0 00-.41-.09 1 1 0 00-.52.16 1.18 1.18 0 00-.38.42 1.51 1.51 0 00-.11.22.76.76 0 010 .15v2.48h-.63V27a.93.93 0 00-.38-.86.73.73 0 00-.41-.09 1 1 0 00-.52.16 1.28 1.28 0 00-.38.42 2 2 0 00-.24.82v2h-.63v-4h.63v.63a1.64 1.64 0 01.44-.5 1.2 1.2 0 01.72-.22 1.41 1.41 0 01.66.13 1.16 1.16 0 01.41.35 1.24 1.24 0 01.17.27 1.68 1.68 0 01.46-.53 1.16 1.16 0 01.72-.22 1.41 1.41 0 01.66.13 1.25 1.25 0 01.41.35 1.74 1.74 0 01.33 1.1v2.48h-.63zM92 31.75v-6.23h.62v.68l.12-.14a1.74 1.74 0 011.37-.63 1.77 1.77 0 011.37.63 2.23 2.23 0 010 2.89 1.77 1.77 0 01-1.37.63 1.74 1.74 0 01-1.39-.58l-.12-.14v2.94zm3-5.26a1.26 1.26 0 00-1-.43 1.3 1.3 0 00-1 .43 1.49 1.49 0 000 2 1.3 1.3 0 001 .51 1.26 1.26 0 001-.43 1.49 1.49 0 000-2zM100.19 29.49v-.68l-.11.14a1.8 1.8 0 01-2.74 0 2.2 2.2 0 010-2.89 1.8 1.8 0 012.74 0l.11.14v-.68h.62v4zm-.4-3a1.28 1.28 0 00-1-.43 1.26 1.26 0 00-1 .43 1.49 1.49 0 000 2 1.26 1.26 0 001 .43 1.28 1.28 0 001-.43 1.49 1.49 0 000-2zM104.86 27a1.31 1.31 0 00-.17-.67.64.64 0 00-.58-.27 1.25 1.25 0 00-.65.15 1.3 1.3 0 00-.41.4 2.33 2.33 0 00-.28 1.21v1.66h-.62v-4h.62v.68a1.73 1.73 0 01.5-.54 1.26 1.26 0 01.74-.22 1.63 1.63 0 01.68.12 1.31 1.31 0 01.44.33 1.67 1.67 0 01.36 1.12v2.48h-.63zM106.43 31.75l1.32-2.91-1.64-3.32h.71l1.26 2.66 1.13-2.66h.69l-2.71 6.23z"/><g id="Group_117" data-name="Group 117"><g id="woorank-widget"><g id="Group"><g id="Shape"><path id="Path_17" data-name="Path 17" class="cls-2" d="M51 12.77a6.73 6.73 0 11-6.88-6.57h.16A6.51 6.51 0 0151 12.45zm-10.65 0a3.93 3.93 0 007.85.15v-.15a3.93 3.93 0 00-7.85-.15z"/><path id="Path_18" data-name="Path 18" class="cls-2" d="M63 12.77a6.5 6.5 0 01-6.42 6.57h-.32a6.47 6.47 0 01-6.71-6.24v-.32A6.49 6.49 0 0156 6.2h.33A6.49 6.49 0 0163 12.45v.32zm-10.66 0a3.93 3.93 0 007.86.23v-.21a3.93 3.93 0 10-7.85-.21zM70.8 8.92a6 6 0 00-1.12-.13c-1.74 0-3 1.77-3 4.56V19H64V6.53h2.7v1a4.1 4.1 0 013.61-1.33 6.14 6.14 0 012.36.44 7.24 7.24 0 00-1.87 2.28zM81.22 19v-1.08a5.36 5.36 0 01-3.93 1.41A6.27 6.27 0 0171 13.05a2.62 2.62 0 010-.28 6.27 6.27 0 016-6.56h.28a5.52 5.52 0 013.93 1.44V6.53H84V19zm-3.6-2.24a3.75 3.75 0 003.78-3.71 2.71 2.71 0 000-.29 3.78 3.78 0 00-7.55-.46v.46a3.75 3.75 0 003.48 4zm19.58-5.6V19h-2.74v-7c0-2.09-1.08-3.27-2.91-3.27a3.1 3.1 0 00-3.24 3V19h-2.74V6.53h2.72v1.52a4.44 4.44 0 013.84-1.85 4.82 4.82 0 015.07 4.54v.43zm5 .08l4.13-4.72h3.43l-5.24 5.87 5.34 6.61h-3.46l-4.16-5.22h-.68V19h-2.74V3l2.74-2.75v11zm-62.68 1.64a4.75 4.75 0 012.39-4.13L43 6.55l-4.75 3.39-1.9 4-3.59-8.5-3.6 8.46-3.37-7.35h-3.28l6.67 13.53L32.76 12l3.56 8.12 3.25-6.58a4.48 4.48 0 010-.64z"/></g><path id="Shape-2" d="M8.17 20.66c6.66 0 12.12-8.08 12.12-8.08S14.83 4.51 8.17 4.51A8.21 8.21 0 00.1 12.58a8.23 8.23 0 008.07 8.08z" fill="#3284e4" fill-rule="evenodd"/></g></g></g><path d="M7.06 15.31l.71.72.71-.72 4-4a1 1 0 00-1.43-1.43l-3.3 3.34-1.28-1.35A1 1 0 005 13.25l2 2z" fill="#fff" fill-rule="evenodd"/></svg>
