<?xml version="1.0" encoding="utf-8"?>
<!-- Generator: Adobe Illustrator 17.0.0, SVG Export Plug-In . SVG Version: 6.00 Build 0)  -->
<!DOCTYPE svg PUBLIC "-//W3C//DTD SVG 1.1//EN" "http://www.w3.org/Graphics/SVG/1.1/DTD/svg11.dtd">
<svg version="1.1" id="Layer_1" xmlns="http://www.w3.org/2000/svg" xmlns:xlink="http://www.w3.org/1999/xlink" x="0px" y="0px"
	 width="48px" height="48px" viewBox="0 0 48 48" enable-background="new 0 0 48 48" xml:space="preserve">
<g>
	<g>
		<path fill="none" stroke="#231F20" stroke-width="2" stroke-linecap="round" stroke-linejoin="round" stroke-miterlimit="10" d="
			M33.73,7.343C31.887,4.167,28.224,2,24,2c-4.225,0-7.887,2.167-9.73,5.343"/>
		<path fill="none" stroke="#231F20" stroke-width="2" stroke-linecap="round" stroke-linejoin="round" stroke-miterlimit="10" d="
			M19,21c2.701,1.36,7.297,1.36,10,0"/>
		<path fill="none" stroke="#231F20" stroke-width="2" stroke-linecap="round" stroke-linejoin="round" stroke-miterlimit="10" d="
			M18.009,8.209C13.668,6.115,7.683,7.985,7.056,11.585c0.858,0.518,1.497,1.344,1.776,2.33"/>
		<path fill="none" stroke="#231F20" stroke-width="2" stroke-linecap="round" stroke-linejoin="round" stroke-miterlimit="10" d="
			M7.056,11.585C4.359,9.959,1,11.92,1,15c0,3.21,3.582,5.081,6.212,3.33C8.696,22.463,16.207,22.741,19,21"/>
		<path fill="none" stroke="#231F20" stroke-width="2" stroke-linecap="round" stroke-linejoin="round" stroke-miterlimit="10" d="
			M39.469,14.156c0.346-0.659,0.863-1.207,1.501-1.585c0.502-4.152-6.227-6.662-10.988-4.358"/>
		<path fill="none" stroke="#231F20" stroke-width="2" stroke-linecap="round" stroke-linejoin="round" stroke-miterlimit="10" d="
			M29,21c2.429,1.515,9.229,1.659,11.445-1.946C43.066,21.249,47,19.374,47,16c0-3.052-3.319-5.036-6.029-3.429"/>
	</g>
	<g>
		<path fill="none" stroke="#231F20" stroke-width="2" stroke-linecap="round" stroke-linejoin="round" stroke-miterlimit="10" d="
			M25.944,35.416C28.641,37.042,32,35.08,32,32c0-3.209-3.582-5.08-6.213-3.33"/>
	</g>
	<g>
		<path fill="none" stroke="#231F20" stroke-width="2" stroke-linecap="round" stroke-linejoin="round" stroke-miterlimit="10" d="
			M22.056,35.416C19.359,37.042,16,35.08,16,32c0-3.209,3.582-5.08,6.212-3.33"/>
	</g>
	<path fill="none" stroke="#231F20" stroke-width="2" stroke-linecap="round" stroke-linejoin="round" stroke-miterlimit="10" d="
		M19,21c2,2,2,3,2,7"/>
	<path fill="none" stroke="#231F20" stroke-width="2" stroke-linecap="round" stroke-linejoin="round" stroke-miterlimit="10" d="
		M29,21c-2,2-2,3-2,7"/>
	<path fill="none" stroke="#231F20" stroke-width="2" stroke-linecap="round" stroke-linejoin="round" stroke-miterlimit="10" d="
		M21,36c0,11-16,4.39-16,11h19"/>
	<path fill="none" stroke="#231F20" stroke-width="2" stroke-linecap="round" stroke-linejoin="round" stroke-miterlimit="10" d="
		M27,36c0,11,16,4.39,16,11H24"/>
</g>
</svg>
