<?xml version="1.0" encoding="utf-8"?>
<!-- Generator: Adobe Illustrator 17.0.0, SVG Export Plug-In . SVG Version: 6.00 Build 0)  -->
<!DOCTYPE svg PUBLIC "-//W3C//DTD SVG 1.1//EN" "http://www.w3.org/Graphics/SVG/1.1/DTD/svg11.dtd">
<svg version="1.1" id="Layer_1" xmlns="http://www.w3.org/2000/svg" xmlns:xlink="http://www.w3.org/1999/xlink" x="0px" y="0px"
	 width="48px" height="48px" viewBox="0 0 48 48" enable-background="new 0 0 48 48" xml:space="preserve">
<g>
	<path fill="none" stroke="#231F20" stroke-width="2" stroke-linecap="round" stroke-miterlimit="10" d="M12.461,42.528
		c-1.93,1.932-10.486,3.495-10.486,3.495S3.54,37.469,5.47,35.54c1.93-1.932,5.061-1.932,6.991,0
		C14.391,37.469,14.391,40.6,12.461,42.528z"/>
	
		<line fill="none" stroke="#231F20" stroke-width="2" stroke-linecap="round" stroke-miterlimit="10" x1="7.633" y1="40.368" x2="3.39" y2="44.609"/>
	
		<rect x="18.958" y="11.042" transform="matrix(0.707 0.7072 -0.7072 0.707 24.4356 -8.8988)" fill="none" stroke="#231F20" stroke-width="2" stroke-linecap="round" stroke-linejoin="round" stroke-miterlimit="10" width="7.999" height="27.999"/>
	<path fill="none" stroke="#231F20" stroke-width="2" stroke-linecap="round" stroke-miterlimit="10" d="M39.929,2.415
		c-1.562-1.563-4.096-1.563-5.657,0L22.958,13.728"/>
	
		<rect x="34.514" y="1.485" transform="matrix(-0.7072 -0.707 0.707 -0.7072 59.0447 43.4233)" fill="none" stroke="#231F20" stroke-width="2" stroke-linecap="round" stroke-linejoin="round" stroke-miterlimit="10" width="8" height="16.001"/>
</g>
</svg>
