<?xml version="1.0" encoding="utf-8"?>
<!-- Generator: Adobe Illustrator 17.0.0, SVG Export Plug-In . SVG Version: 6.00 Build 0)  -->
<!DOCTYPE svg PUBLIC "-//W3C//DTD SVG 1.1//EN" "http://www.w3.org/Graphics/SVG/1.1/DTD/svg11.dtd">
<svg version="1.1" id="Layer_1" xmlns="http://www.w3.org/2000/svg" xmlns:xlink="http://www.w3.org/1999/xlink" x="0px" y="0px"
	 width="48px" height="48px" viewBox="0 0 48 48" enable-background="new 0 0 48 48" xml:space="preserve">
<g>
	<path fill="none" stroke="#231F20" stroke-width="2" stroke-linecap="round" stroke-miterlimit="10" d="M33,47V37
		c5.522,0,10-4.477,10-10v-5c0-10.493-8.506-19-19-19C13.507,3,5,11.507,5,22v5c0,5.523,4.477,10,10,10v10"/>
	
		<line fill="none" stroke="#231F20" stroke-width="2" stroke-linecap="round" stroke-miterlimit="10" x1="21" y1="37" x2="21" y2="47"/>
	
		<line fill="none" stroke="#231F20" stroke-width="2" stroke-linecap="round" stroke-miterlimit="10" x1="27" y1="37" x2="27" y2="47"/>
	<circle fill="none" stroke="#231F20" stroke-width="2" stroke-linecap="round" stroke-miterlimit="10" cx="33" cy="27" r="6"/>
	<circle fill="none" stroke="#231F20" stroke-width="2" stroke-linecap="round" stroke-miterlimit="10" cx="15" cy="27" r="6"/>
	<path fill="none" stroke="#231F20" stroke-width="2" stroke-linecap="round" stroke-miterlimit="10" d="M13,11c0,5.469-3.391,8-7,8
		"/>
	<path fill="none" stroke="#231F20" stroke-width="2" stroke-linecap="round" stroke-miterlimit="10" d="M42.882,19"/>
	<path fill="none" stroke="#231F20" stroke-width="2" stroke-linecap="round" stroke-miterlimit="10" d="M35,11
		c0,5.469,3.273,8,6.882,8"/>
	
		<polygon fill="none" stroke="#231F20" stroke-width="2" stroke-linecap="round" stroke-linejoin="round" stroke-miterlimit="10" points="
		23,33 24,31 25,33 	"/>
</g>
</svg>
