<?xml version="1.0" encoding="utf-8"?>
<!-- Generator: Adobe Illustrator 17.1.0, SVG Export Plug-In . SVG Version: 6.00 Build 0)  -->
<!DOCTYPE svg PUBLIC "-//W3C//DTD SVG 1.0//EN" "http://www.w3.org/TR/2001/REC-SVG-20010904/DTD/svg10.dtd">
<svg version="1.0" id="Layer_1" xmlns="http://www.w3.org/2000/svg" xmlns:xlink="http://www.w3.org/1999/xlink" x="0px" y="0px"
	 width="48px" height="48px" viewBox="0 0 48 48" enable-background="new 0 0 48 48" xml:space="preserve">
<g>
	<path d="M0,7c0,0.552,0.448,1,1,1h5v39c0,0.552,0.448,1,1,1h34c0.552,0,1-0.448,1-1V8h5c0.552,0,1-0.448,1-1s-0.448-1-1-1h-6h-7V1
		c0-0.552-0.448-1-1-1H15c-0.552,0-1,0.448-1,1v5H7H1C0.448,6,0,6.448,0,7z M33,14c0.552,0,1,0.448,1,1v23c0,0.552-0.448,1-1,1
		c-0.552,0-1-0.448-1-1V15C32,14.448,32.448,14,33,14z M25,15v23c0,0.552-0.448,1-1,1c-0.552,0-1-0.448-1-1V15c0-0.552,0.448-1,1-1
		C24.552,14,25,14.448,25,15z M16,15v23c0,0.552-0.448,1-1,1c-0.552,0-1-0.448-1-1V15c0-0.552,0.448-1,1-1
		C15.552,14,16,14.448,16,15z M16,2h16v4H16V2z"/>
</g>
</svg>
