<?xml version="1.0" encoding="utf-8"?>
<!-- Generator: Adobe Illustrator 17.0.0, SVG Export Plug-In . SVG Version: 6.00 Build 0)  -->
<!DOCTYPE svg PUBLIC "-//W3C//DTD SVG 1.1//EN" "http://www.w3.org/Graphics/SVG/1.1/DTD/svg11.dtd">
<svg version="1.1" id="Layer_2" xmlns="http://www.w3.org/2000/svg" xmlns:xlink="http://www.w3.org/1999/xlink" x="0px" y="0px"
	 width="48px" height="48px" viewBox="0 0 48 48" enable-background="new 0 0 48 48" xml:space="preserve">
<g>
	<path fill="#010101" d="M32.998,21c0,0.552-0.448,1-1,1c-0.552,0-1-0.448-1-1c0-1.168-2.039-2.448-5-2.861V36
		c0,6.065,4.935,11,11,11s11-4.935,11-11c0-2.406-0.785-4.626-2.1-6.439l-5.981-13.955c-0.05-0.117-0.122-0.224-0.212-0.313
		l-2.849-2.849l-2.924-7.675c-0.05-0.132-0.128-0.251-0.228-0.351c-1.905-1.906-5.509-1.906-7.414,0
		c-0.188,0.188-0.293,0.442-0.293,0.707v10.992C30.1,16.596,32.998,18.534,32.998,21z M36.998,45c-4.962,0-9-4.037-9-9s4.038-9,9-9
		s9,4.037,9,9S41.96,45,36.998,45z"/>
	<path fill="#010101" d="M-0.002,36c0,6.065,4.935,11,11,11s11-4.935,11-11V18.139c-2.961,0.413-5,1.693-5,2.861
		c0,0.552-0.448,1-1,1s-1-0.448-1-1c0-2.466,2.898-4.404,7-4.883V5c0-0.265-0.105-0.519-0.293-0.707
		c-1.905-1.906-5.509-1.906-7.414,0c-0.101,0.101-0.179,0.222-0.229,0.356l-2.924,7.797l-2.847,2.847
		c-0.09,0.09-0.162,0.196-0.212,0.313L2.098,29.561C0.783,31.374-0.002,33.594-0.002,36z M10.998,45c-4.962,0-9-4.037-9-9
		s4.038-9,9-9s9,4.037,9,9C19.998,40.963,15.96,45,10.998,45z"/>
	<path fill="#010101" d="M10.998,31c0.552,0,1-0.448,1-1s-0.448-1-1-1c-3.86,0-7,3.14-7,7c0,0.552,0.448,1,1,1s1-0.448,1-1
		C5.998,33.243,8.241,31,10.998,31z"/>
	<path fill="#010101" d="M36.998,31c0.552,0,1-0.448,1-1s-0.448-1-1-1c-3.86,0-7,3.14-7,7c0,0.552,0.448,1,1,1s1-0.448,1-1
		C31.998,33.243,34.241,31,36.998,31z"/>
</g>
</svg>
