<?xml version="1.0" encoding="utf-8"?>
<!-- Generator: Adobe Illustrator 17.0.0, SVG Export Plug-In . SVG Version: 6.00 Build 0)  -->
<!DOCTYPE svg PUBLIC "-//W3C//DTD SVG 1.1//EN" "http://www.w3.org/Graphics/SVG/1.1/DTD/svg11.dtd">
<svg version="1.1" id="Layer_2" xmlns="http://www.w3.org/2000/svg" xmlns:xlink="http://www.w3.org/1999/xlink" x="0px" y="0px"
	 width="48px" height="48px" viewBox="0 0 48 48" enable-background="new 0 0 48 48" xml:space="preserve">
<g>
	<path fill="#010101" d="M18.377,5.22c0.511,0.208,0.757,0.792,0.549,1.303c-0.209,0.511-0.793,0.757-1.304,0.549
		c-2.479-1.01-5.559-0.906-7.663,0.259c-0.6,0.333-1.314,0.873-1.694,1.662c2.613,1.289,3.548,3.635,3.548,4.924
		c0,0.552-0.448,1-1,1s-1-0.448-1-1c0-0.035-0.305-3.526-5.184-3.814c-1.004-0.016-2.175,0.483-3.07,1.365
		c-0.977,0.964-1.538,2.236-1.538,3.49c0,0.032-0.015,0.058-0.018,0.089c0.017,1.852,0.996,3.477,2.631,4.352
		c1.294,0.693,2.799,0.779,4.129,0.278c0.747,1.186,1.993,2.102,3.66,2.681c2.669,0.928,6.135,0.837,8.36-0.136
		c1.093,1.223,1.205,2.048,1.216,4.781c-0.809,0.001-1.621,0.199-2.365,0.598C15.985,28.484,15,30.129,15,32
		c0,1.827,0.95,3.454,2.542,4.353c0.756,0.427,1.58,0.643,2.406,0.649c-0.448,4.048-3.74,4.761-8.578,5.341
		C7.915,42.757,4,43.226,4,47c0,0.552,0.448,1,1,1h38c0.552,0,1-0.448,1-1c0-3.774-3.915-4.243-7.37-4.657
		c-4.838-0.58-8.13-1.292-8.578-5.341c0.825-0.006,1.649-0.223,2.406-0.649C32.05,35.454,33,33.827,33,32
		c0-1.871-0.984-3.515-2.634-4.399c-0.743-0.398-1.556-0.596-2.365-0.598c0.011-2.734,0.123-3.559,1.217-4.782
		c1.909,0.818,4.859,1.029,7.299,0.455c1.769-0.416,3.186-1.191,4.155-2.266c1.37,0.735,2.996,0.793,4.447,0.116
		C46.896,19.696,48,17.962,48,16c0-0.805-0.195-1.566-0.538-2.249c-0.076-0.141-0.146-0.284-0.235-0.419
		c-0.032-0.05-0.066-0.099-0.1-0.148c-0.179-0.251-0.377-0.493-0.602-0.715c-0.223-0.219-0.46-0.415-0.707-0.584
		c-0.003-0.002-0.007-0.004-0.01-0.007c-0.211-0.144-0.432-0.26-0.656-0.366c-0.067-0.033-0.135-0.063-0.204-0.092
		c-0.503-0.208-1.024-0.323-1.538-0.315c-4.834,0.287-5.139,3.778-5.139,3.813c0,0.552-0.448,1-1,1s-1-0.448-1-1
		c0-1.339,1.006-3.819,3.837-5.069c-0.019-0.052-0.047-0.099-0.057-0.155c-0.206-1.184-1.162-1.938-1.928-2.362
		c-2.104-1.165-5.182-1.27-7.662-0.259c-0.513,0.208-1.095-0.038-1.304-0.549c-0.208-0.511,0.038-1.095,0.549-1.303
		c0.95-0.387,1.979-0.622,3.021-0.738C30.491,2.297,27.363,1,24,1c-3.359,0-6.483,1.294-8.719,3.473
		C16.349,4.585,17.404,4.823,18.377,5.22z"/>
</g>
</svg>
