<?xml version="1.0" encoding="utf-8"?>
<!-- Generator: Adobe Illustrator 17.0.0, SVG Export Plug-In . SVG Version: 6.00 Build 0)  -->
<!DOCTYPE svg PUBLIC "-//W3C//DTD SVG 1.1//EN" "http://www.w3.org/Graphics/SVG/1.1/DTD/svg11.dtd">
<svg version="1.1" id="Layer_2" xmlns="http://www.w3.org/2000/svg" xmlns:xlink="http://www.w3.org/1999/xlink" x="0px" y="0px"
	 width="48px" height="48px" viewBox="0 0 48 48" enable-background="new 0 0 48 48" xml:space="preserve">
<g>
	<path fill="#010101" d="M25.852,37.954c-0.701,0.854-0.576,2.114,0.278,2.815c0.855,0.7,2.115,0.576,2.814-0.278L44.188,21.9
		c4.545-5.542,3.733-13.749-1.81-18.294c-2.685-2.202-6.063-3.226-9.522-2.885c-3.455,0.342-6.571,2.009-8.773,4.694L2.562,31.66
		c-3.496,4.263-2.872,10.577,1.393,14.074c1.855,1.521,4.099,2.262,6.33,2.262c2.896,0,5.77-1.248,7.746-3.657l20.583-25.182
		c2.097-2.559,1.722-6.347-0.835-8.443c-1.239-1.016-2.796-1.489-4.395-1.332c-1.595,0.158-3.033,0.927-4.049,2.167L14.09,30.138
		c-0.701,0.854-0.576,2.114,0.278,2.815c0.854,0.7,2.115,0.576,2.814-0.278l15.245-18.591c0.338-0.413,0.817-0.669,1.349-0.722
		c0.537-0.052,1.052,0.105,1.465,0.444c0.853,0.699,0.978,1.962,0.277,2.817L14.936,41.804c-2.098,2.558-5.887,2.933-8.445,0.836
		c-2.559-2.098-2.933-5.886-0.836-8.444L27.176,7.95C28.7,6.091,30.858,4.936,33.25,4.7c2.395-0.237,4.733,0.473,6.593,1.997
		c3.837,3.146,4.399,8.828,1.253,12.665L25.852,37.954z"/>
</g>
</svg>
