<?xml version="1.0" encoding="utf-8"?>
<!-- Generator: Adobe Illustrator 17.0.0, SVG Export Plug-In . SVG Version: 6.00 Build 0)  -->
<!DOCTYPE svg PUBLIC "-//W3C//DTD SVG 1.1//EN" "http://www.w3.org/Graphics/SVG/1.1/DTD/svg11.dtd">
<svg version="1.1" id="Layer_2" xmlns="http://www.w3.org/2000/svg" xmlns:xlink="http://www.w3.org/1999/xlink" x="0px" y="0px"
	 width="48px" height="48px" viewBox="0 0 48 48" enable-background="new 0 0 48 48" xml:space="preserve">
<g>
	<path fill="#010101" d="M24,18c1.104,0,2-0.895,2-2V2c0-1.104-0.896-2-2-2c-1.105,0-2,0.896-2,2v14C22,17.105,22.895,18,24,18z"/>
	<path fill="#010101" d="M16,22H2c-1.105,0-2,0.896-2,2c0,1.105,0.895,2,2,2h14c1.104,0,2-0.895,2-2C18,22.896,17.104,22,16,22z"/>
	<path fill="#010101" d="M24,30c-1.105,0-2,0.896-2,2v14c0,1.105,0.895,2,2,2c1.104,0,2-0.895,2-2V32C26,30.896,25.104,30,24,30z"/>
	<path fill="#010101" d="M46,22H32c-1.105,0-2,0.896-2,2c0,1.105,0.895,2,2,2h14c1.104,0,2-0.895,2-2C48,22.896,47.104,22,46,22z"/>
	<path fill="#010101" d="M24,21.044c-1.63,0-2.957,1.327-2.957,2.956c0,1.63,1.326,2.957,2.957,2.957
		c1.63,0,2.956-1.327,2.956-2.957C26.956,22.37,25.63,21.044,24,21.044z"/>
</g>
</svg>
