<?xml version="1.0" encoding="utf-8"?>
<!-- Generator: Adobe Illustrator 17.0.0, SVG Export Plug-In . SVG Version: 6.00 Build 0)  -->
<!DOCTYPE svg PUBLIC "-//W3C//DTD SVG 1.1//EN" "http://www.w3.org/Graphics/SVG/1.1/DTD/svg11.dtd">
<svg version="1.1" id="Layer_2" xmlns="http://www.w3.org/2000/svg" xmlns:xlink="http://www.w3.org/1999/xlink" x="0px" y="0px"
	 width="48px" height="48px" viewBox="0 0 48 48" enable-background="new 0 0 48 48" xml:space="preserve">
<g>
	<path fill="#010101" d="M2,26h3.854C6.782,34.473,13.527,41.218,22,42.146V46c0,1.105,0.895,2,2,2c1.104,0,2-0.895,2-2v-3.854
		C34.473,41.218,41.217,34.473,42.145,26H46c1.104,0,2-0.895,2-2c0-1.104-0.896-2-2-2h-3.855C41.217,13.527,34.473,6.782,26,5.855V2
		c0-1.104-0.896-2-2-2c-1.105,0-2,0.896-2,2v3.855C13.527,6.782,6.782,13.527,5.854,22H2c-1.105,0-2,0.896-2,2
		C0,25.105,0.896,26,2,26z M22,9.896v3.583c0,1.104,0.895,2,2,2c1.104,0,2-0.896,2-2V9.896C32.262,10.781,37.219,15.738,38.104,22
		h-3.582c-1.104,0-2,0.896-2,2c0,1.105,0.896,2,2,2h3.582C37.219,32.262,32.262,37.219,26,38.104v-3.582c0-1.105-0.896-2-2-2
		c-1.105,0-2,0.895-2,2v3.582C15.738,37.219,10.781,32.262,9.896,26h3.582c1.105,0,2-0.895,2-2c0-1.104-0.895-2-2-2H9.896
		C10.781,15.738,15.738,10.781,22,9.896z"/>
</g>
</svg>
