<?xml version="1.0" encoding="utf-8"?>
<!-- Generator: Adobe Illustrator 17.0.0, SVG Export Plug-In . SVG Version: 6.00 Build 0)  -->
<!DOCTYPE svg PUBLIC "-//W3C//DTD SVG 1.1//EN" "http://www.w3.org/Graphics/SVG/1.1/DTD/svg11.dtd">
<svg version="1.1" id="Layer_2" xmlns="http://www.w3.org/2000/svg" xmlns:xlink="http://www.w3.org/1999/xlink" x="0px" y="0px"
	 width="48px" height="48px" viewBox="0 0 48 48" enable-background="new 0 0 48 48" xml:space="preserve">
<g>
	<path fill="#010101" d="M2.124,45.443C2.294,45.787,2.644,46,3.02,46c0.044,0,0.088-0.003,0.133-0.009l15-2
		c0.211-0.028,0.407-0.123,0.56-0.27l1.845-1.77L17,38.394l-2.293,2.294C14.512,40.882,14.256,40.98,14,40.98
		s-0.512-0.098-0.707-0.292c-0.391-0.391-0.391-1.024,0-1.415l2.293-2.293l-2.98-2.979L2.313,44.293
		C2.01,44.596,1.934,45.059,2.124,45.443z"/>
	<polygon fill="#010101" points="22.001,40.567 24.131,38.524 16.112,30.494 14.02,32.586 	"/>
	<polygon fill="#010101" points="25.574,37.139 27.702,35.098 19.597,27.009 17.527,29.08 	"/>
	<path fill="#010101" d="M29.146,33.712l17.685-16.966c1.991-1.991,1.255-5.816-0.707-7.778c-1.14-1.14-2.97-1.876-4.662-1.876
		c-1.273,0-2.351,0.404-3.116,1.169L21.012,25.595L29.146,33.712z"/>
</g>
</svg>
