<?xml version="1.0" encoding="utf-8"?>
<!-- Generator: Adobe Illustrator 17.0.0, SVG Export Plug-In . SVG Version: 6.00 Build 0)  -->
<!DOCTYPE svg PUBLIC "-//W3C//DTD SVG 1.1//EN" "http://www.w3.org/Graphics/SVG/1.1/DTD/svg11.dtd">
<svg version="1.1" id="Layer_2" xmlns="http://www.w3.org/2000/svg" xmlns:xlink="http://www.w3.org/1999/xlink" x="0px" y="0px"
	 width="48px" height="48px" viewBox="0 0 48 48" enable-background="new 0 0 48 48" xml:space="preserve">
<g>
	<path fill="#010101" d="M6.347,40.239L22.586,24L6.347,7.761C2.41,12.038,0,17.742,0,24S2.41,35.962,6.347,40.239z"/>
	<path fill="#010101" d="M24,25.414L7.761,41.653C12.038,45.59,17.742,48,24,48s11.962-2.41,16.239-6.347L24,25.414z"/>
	<path fill="#010101" d="M25.414,24l16.239,16.239C45.59,35.962,48,30.258,48,24s-2.41-11.962-6.347-16.239L25.414,24z"/>
	<path fill="#010101" d="M24,22.586L40.239,6.347C35.962,2.41,30.258,0,24,0S12.038,2.41,7.761,6.347L24,22.586z"/>
</g>
</svg>
