<?xml version="1.0" encoding="utf-8"?>
<!-- Generator: Adobe Illustrator 17.0.0, SVG Export Plug-In . SVG Version: 6.00 Build 0)  -->
<!DOCTYPE svg PUBLIC "-//W3C//DTD SVG 1.1//EN" "http://www.w3.org/Graphics/SVG/1.1/DTD/svg11.dtd">
<svg version="1.1" id="Layer_2" xmlns="http://www.w3.org/2000/svg" xmlns:xlink="http://www.w3.org/1999/xlink" x="0px" y="0px"
	 width="48px" height="48px" viewBox="0 0 48 48" enable-background="new 0 0 48 48" xml:space="preserve">
<g>
	<path fill="#010101" d="M47,18H35.167l-2,2l-6.349,6.349c-0.09,0.09-0.196,0.162-0.313,0.212l-8.998,3.856
		c-0.127,0.055-0.261,0.081-0.394,0.081c-0.26,0-0.516-0.102-0.707-0.293c-0.289-0.289-0.373-0.725-0.212-1.101l3.848-8.979
		c0-0.001,0.001-0.002,0.001-0.002l0.007-0.016c0.017-0.04,0.05-0.069,0.072-0.106c0.043-0.072,0.081-0.148,0.14-0.207L22.055,18H1
		c-0.552,0-1,0.448-1,1v20c0,0.552,0.448,1,1,1h46c0.552,0,1-0.448,1-1V19C48,18.448,47.552,18,47,18z M46,37c0,0.552-0.448,1-1,1
		H3.095c-0.552,0-1-0.448-1-1V20.601c0-0.23,0.091-0.432,0.221-0.601c0.183-0.237,0.457-0.399,0.779-0.399H14.91
		c0.322,0,0.596,0.163,0.779,0.399c0.13,0.169,0.221,0.371,0.221,0.601c0,0.552-0.448,1-1,1H4.095V36H44V21.601h-6.366
		c-0.552,0-1-0.448-1-1c0-0.23,0.091-0.432,0.221-0.601c0.183-0.237,0.456-0.399,0.779-0.399H45c0.322,0,0.596,0.163,0.779,0.399
		C45.909,20.169,46,20.371,46,20.601V37z"/>
	
		<rect x="35.304" y="7.311" transform="matrix(0.7072 0.707 -0.707 0.7072 17.2385 -24.2856)" fill="#010101" width="5.272" height="2.719"/>
	<polygon fill="#010101" points="19.017,27.594 24.359,25.304 21.307,22.252 	"/>
	
		<rect x="27.268" y="8.703" transform="matrix(0.7071 0.7071 -0.7071 0.7071 20.571 -16.2522)" fill="#010101" width="5.272" height="16.004"/>
</g>
</svg>
