<?xml version="1.0" encoding="utf-8"?>
<!-- Generator: Adobe Illustrator 17.0.0, SVG Export Plug-In . SVG Version: 6.00 Build 0)  -->
<!DOCTYPE svg PUBLIC "-//W3C//DTD SVG 1.1//EN" "http://www.w3.org/Graphics/SVG/1.1/DTD/svg11.dtd">
<svg version="1.1" id="Layer_2" xmlns="http://www.w3.org/2000/svg" xmlns:xlink="http://www.w3.org/1999/xlink" x="0px" y="0px"
	 width="48px" height="48px" viewBox="0 0 48 48" enable-background="new 0 0 48 48" xml:space="preserve">
<g>
	<path fill="#010101" d="M30.715,21.282c-0.076,0.076-0.163,0.139-0.26,0.188l-5.166,2.583c-0.142,0.071-0.295,0.106-0.447,0.106
		c-0.26,0-0.516-0.101-0.708-0.293c-0.304-0.305-0.38-0.769-0.188-1.154l2.583-5.166c0.048-0.096,0.111-0.184,0.188-0.26L38.003,6
		l2-1.999C40.002,4.001,40.001,4,40,4H1C0.448,4,0,4.448,0,5v42c0,0.552,0.448,1,1,1h39c0.552,0,1-0.448,1-1V10.996l-2,2
		L30.715,21.282z M39,45c0,0.552-0.448,1-1,1H3c-0.552,0-1-0.448-1-1V7c0-0.552,0.448-1,1-1h29.217c0.552,0,1,0.448,1,1
		s-0.448,1-1,1H4v36h33V22.174c0-0.552,0.448-1,1-1s1,0.448,1,1V45z"/>
	<path fill="#010101" d="M46.941,1.6c-0.225-0.54-0.895-0.815-1.377-0.332l-1.875,1.875l1.168,1.169l1.875-1.876
		C46.996,2.172,47.064,1.898,46.941,1.6z"/>
	<polygon fill="#010101" points="28.247,18.585 27.079,20.921 29.415,19.753 43.442,5.726 42.274,4.557 	"/>
</g>
</svg>
