<?xml version="1.0" encoding="utf-8"?>
<!-- Generator: Adobe Illustrator 17.0.0, SVG Export Plug-In . SVG Version: 6.00 Build 0)  -->
<!DOCTYPE svg PUBLIC "-//W3C//DTD SVG 1.1//EN" "http://www.w3.org/Graphics/SVG/1.1/DTD/svg11.dtd">
<svg version="1.1" id="Layer_2" xmlns="http://www.w3.org/2000/svg" xmlns:xlink="http://www.w3.org/1999/xlink" x="0px" y="0px"
	 width="48px" height="48px" viewBox="0 0 48 48" enable-background="new 0 0 48 48" xml:space="preserve">
<path fill="#010101" d="M24,0C10.767,0,0,10.767,0,24s10.767,24,24,24s24-10.767,24-24S37.233,0,24,0z M10.504,36.184l3.98-9.286
	l6.619,6.619l-9.286,3.98c-0.127,0.054-0.261,0.08-0.394,0.08c-0.26,0-0.516-0.101-0.707-0.293
	C10.427,36.996,10.343,36.56,10.504,36.184z M22.707,32.293l-7.035-7.036l12.593-12.592c0.012,0.013,0.016,0.03,0.028,0.043
	l7.036,7.035L22.735,32.335C22.724,32.322,22.72,32.306,22.707,32.293z M29.706,11.293c-0.012-0.012-0.029-0.016-0.042-0.028
	l2.972-2.972C32.824,8.106,33.078,8,33.343,8s0.52,0.106,0.707,0.293l5.657,5.657c0.391,0.391,0.391,1.023,0,1.414l-2.964,2.964
	L29.706,11.293z"/>
</svg>
