<?xml version="1.0" encoding="utf-8"?>
<!-- Generator: Adobe Illustrator 17.0.0, SVG Export Plug-In . SVG Version: 6.00 Build 0)  -->
<!DOCTYPE svg PUBLIC "-//W3C//DTD SVG 1.1//EN" "http://www.w3.org/Graphics/SVG/1.1/DTD/svg11.dtd">
<svg version="1.1" id="Layer_2" xmlns="http://www.w3.org/2000/svg" xmlns:xlink="http://www.w3.org/1999/xlink" x="0px" y="0px"
	 width="48px" height="48px" viewBox="0 0 48 48" enable-background="new 0 0 48 48" xml:space="preserve">
<g>
	<path fill="#010101" d="M47.822,22.679c-0.062-0.137-1.561-3.398-5.676-6.735c-0.858-0.695-2.117-0.564-2.813,0.294
		c-0.695,0.858-0.564,2.117,0.294,2.813c2.058,1.668,3.308,3.285,3.964,4.279C41.19,26.234,33.525,34.5,23.998,34.5
		c-0.882,0-1.789-0.071-2.694-0.213c-1.091-0.172-2.115,0.576-2.285,1.668c-0.17,1.091,0.576,2.114,1.667,2.284
		c1.109,0.173,2.223,0.261,3.311,0.261c13.576,0,23.223-13.271,23.627-13.837C48.039,24.084,48.114,23.328,47.822,22.679z"/>
	<path fill="#010101" d="M5.745,30.971c0.371,0.303,0.818,0.45,1.263,0.45c0.58,0,1.155-0.251,1.551-0.736
		c0.698-0.856,0.57-2.116-0.286-2.814c-2.01-1.64-3.229-3.221-3.87-4.197C6.799,20.773,14.466,12.5,23.998,12.5
		c0.615,0,1.244,0.035,1.872,0.104c1.101,0.124,2.085-0.672,2.206-1.771c0.12-1.098-0.672-2.085-1.771-2.206
		C25.534,8.543,24.758,8.5,23.998,8.5C10.422,8.5,0.775,21.772,0.371,22.337c-0.412,0.576-0.488,1.327-0.201,1.975
		C0.23,24.447,1.688,27.661,5.745,30.971z"/>
	<path fill="#010101" d="M25.165,30.75c4.411,0,8-3.589,8-8c0-0.833-0.129-1.637-0.367-2.394L22.771,30.383
		C23.527,30.621,24.331,30.75,25.165,30.75z"/>
	<path fill="#010101" d="M17.165,22.75c0,0.595,0.07,1.174,0.194,1.732l9.538-9.538c-0.559-0.124-1.137-0.194-1.733-0.194
		C20.753,14.75,17.165,18.339,17.165,22.75z"/>
	<path fill="#010101" d="M46.353,3.917c0.032-0.047,0.053-0.1,0.08-0.15c0.035-0.064,0.075-0.127,0.103-0.195
		c0.04-0.097,0.067-0.198,0.091-0.3c0.005-0.023,0.015-0.044,0.02-0.067c0.025-0.128,0.038-0.259,0.038-0.392
		s-0.013-0.264-0.038-0.392c-0.005-0.023-0.015-0.046-0.021-0.069c-0.024-0.102-0.051-0.202-0.09-0.298
		c-0.029-0.071-0.071-0.138-0.109-0.207c-0.025-0.046-0.045-0.094-0.074-0.138c-0.073-0.11-0.157-0.214-0.253-0.31
		c-0.097-0.097-0.201-0.181-0.31-0.254c-0.034-0.022-0.072-0.037-0.108-0.058c-0.079-0.045-0.157-0.092-0.24-0.126
		c-0.046-0.018-0.096-0.028-0.144-0.043c-0.075-0.024-0.15-0.052-0.227-0.067c-0.126-0.024-0.255-0.038-0.386-0.038
		s-0.26,0.014-0.386,0.038c-0.081,0.016-0.158,0.044-0.237,0.07c-0.044,0.015-0.09,0.023-0.134,0.04
		c-0.085,0.035-0.166,0.083-0.247,0.13c-0.033,0.019-0.069,0.032-0.1,0.054c-0.096,0.064-0.186,0.141-0.273,0.223
		c-0.012,0.011-0.026,0.019-0.037,0.031l-39.001,39c-0.004,0.004-0.007,0.009-0.011,0.013c-0.091,0.093-0.172,0.191-0.242,0.296
		c-0.033,0.05-0.056,0.105-0.084,0.158c-0.034,0.062-0.072,0.122-0.098,0.187c-0.041,0.101-0.07,0.206-0.094,0.312
		c-0.004,0.019-0.013,0.037-0.017,0.056c-0.025,0.127-0.038,0.259-0.038,0.392s0.013,0.265,0.038,0.392
		c0.004,0.02,0.012,0.038,0.017,0.057c0.024,0.106,0.053,0.211,0.094,0.311c0.028,0.068,0.068,0.132,0.103,0.197
		c0.027,0.049,0.048,0.101,0.079,0.148c0.073,0.109,0.157,0.213,0.253,0.31c0.003,0.003,0.006,0.005,0.009,0.008
		c0.754,0.744,2.057,0.744,2.81,0c0.003-0.003,0.006-0.005,0.009-0.008l39-39C46.196,4.13,46.28,4.026,46.353,3.917z"/>
</g>
</svg>
