<?xml version="1.0" encoding="utf-8"?>
<!-- Generator: Adobe Illustrator 17.0.0, SVG Export Plug-In . SVG Version: 6.00 Build 0)  -->
<!DOCTYPE svg PUBLIC "-//W3C//DTD SVG 1.1//EN" "http://www.w3.org/Graphics/SVG/1.1/DTD/svg11.dtd">
<svg version="1.1" id="Layer_2" xmlns="http://www.w3.org/2000/svg" xmlns:xlink="http://www.w3.org/1999/xlink" x="0px" y="0px"
	 width="48px" height="48px" viewBox="0 0 48 48" enable-background="new 0 0 48 48" xml:space="preserve">
<g>
	<path fill="#010101" d="M0.003,46.925c-0.021,0.277,0.075,0.551,0.264,0.755C0.456,47.884,0.722,48,1,48h26.149
		c0.278,0,0.544-0.116,0.733-0.32s0.285-0.478,0.264-0.755C27.68,40.762,24.358,37.226,18,36.14V34h1c0.552,0,1-0.448,1-1v-4
		c0-0.552-0.448-1-1-1H9c-0.552,0-1,0.448-1,1v4c0,0.552,0.448,1,1,1h1v2.14C3.742,37.217,0.469,40.753,0.003,46.925z"/>
	<path fill="#010101" d="M46.535,0.856c-0.39-0.391-1.024-0.391-1.414,0L40,5.974V1c0-0.346-0.179-0.667-0.473-0.85
		c-0.293-0.182-0.66-0.2-0.971-0.047c-2.105,1.042-5.463,3.263-8.572,6.373c-6.022,6.022-8.667,12.667-6.591,16.096l-2.55,2.55
		c-0.391,0.39-0.391,1.023,0,1.414c0.195,0.195,0.451,0.293,0.707,0.293s0.512-0.098,0.707-0.293l2.531-2.53
		c1.006,0.666,2.242,0.999,3.631,0.999c3.33,0,7.499-1.852,11.253-5.266c0.306-0.278,0.409-0.715,0.26-1.1
		C39.784,18.254,39.413,18,39,18h-8.202l2.001-2H42c0.552,0,1-0.448,1-1s-0.448-1-1-1h-7.201l2.001-2h8.108
		c0.358,0,0.689-0.192,0.868-0.503c2.563-4.472,2.862-8.392,0.83-10.534C46.58,0.928,46.567,0.887,46.535,0.856z"/>
</g>
</svg>
