<?xml version="1.0" encoding="utf-8"?>
<!-- Generator: Adobe Illustrator 17.0.0, SVG Export Plug-In . SVG Version: 6.00 Build 0)  -->
<!DOCTYPE svg PUBLIC "-//W3C//DTD SVG 1.1//EN" "http://www.w3.org/Graphics/SVG/1.1/DTD/svg11.dtd">
<svg version="1.1" id="Layer_2" xmlns="http://www.w3.org/2000/svg" xmlns:xlink="http://www.w3.org/1999/xlink" x="0px" y="0px"
	 width="48px" height="48px" viewBox="0 0 48 48" enable-background="new 0 0 48 48" xml:space="preserve">
<g>
	<path fill="#010101" d="M12,48c6.617,0,12-5.383,12-12c0-1.845-0.433-3.672-1.257-5.329L32,21.415l4,4L39.414,22l-4-4L38,15.414
		l5,5L47.414,16l-5-5l2.293-2.293c1.493-1.493,1.493-3.921,0-5.414c-1.446-1.446-3.968-1.446-5.414,0L17.329,25.257
		C15.672,24.433,13.845,24,12,24C5.383,24,0,29.383,0,36S5.383,48,12,48z M12,30c3.309,0,6,2.691,6,6s-2.691,6-6,6s-6-2.691-6-6
		S8.691,30,12,30z"/>
</g>
</svg>
