<?xml version="1.0" encoding="utf-8"?>
<!-- Generator: Adobe Illustrator 17.0.0, SVG Export Plug-In . SVG Version: 6.00 Build 0)  -->
<!DOCTYPE svg PUBLIC "-//W3C//DTD SVG 1.1//EN" "http://www.w3.org/Graphics/SVG/1.1/DTD/svg11.dtd">
<svg version="1.1" id="Layer_2" xmlns="http://www.w3.org/2000/svg" xmlns:xlink="http://www.w3.org/1999/xlink" x="0px" y="0px"
	 width="48px" height="48px" viewBox="0 0 48 48" enable-background="new 0 0 48 48" xml:space="preserve">
<g>
	<path fill="#010101" d="M15,48c8.271,0,15-6.729,15-15c0-2.17-0.458-4.261-1.361-6.226L34.414,21H38v-3.586L38.414,17H42v-3.586
		L42.414,13H46V9.414l2-2V0h-7.414L21.225,19.36C19.261,18.457,17.17,18,15,18C6.729,18,0,24.729,0,33S6.729,48,15,48z M11,33
		c2.206,0,4,1.794,4,4s-1.794,4-4,4s-4-1.794-4-4S8.794,33,11,33z"/>
</g>
</svg>
