<?xml version="1.0" encoding="utf-8"?>
<!-- Generator: Adobe Illustrator 17.0.0, SVG Export Plug-In . SVG Version: 6.00 Build 0)  -->
<!DOCTYPE svg PUBLIC "-//W3C//DTD SVG 1.1//EN" "http://www.w3.org/Graphics/SVG/1.1/DTD/svg11.dtd">
<svg version="1.1" id="Layer_2" xmlns="http://www.w3.org/2000/svg" xmlns:xlink="http://www.w3.org/1999/xlink" x="0px" y="0px"
	 width="48px" height="48px" viewBox="0 0 48 48" enable-background="new 0 0 48 48" xml:space="preserve">
<g>
	<path fill="#010101" d="M38.444,27.145l7.62-8.227c3.061-3.305,1.684-9.344-1.544-12.335l-3.647-3.377
		c-1.506-1.395-3.75-2.375-6.003-2.622c-2.657-0.29-4.934,0.429-6.413,2.026l-7.62,8.226c-2.248,2.428-2.102,6.231,0.326,8.479
		l0.178,0.165c0.811,0.75,2.076,0.701,2.826-0.109c0.75-0.811,0.701-2.076-0.109-2.826l-0.178-0.164
		c-0.809-0.749-0.857-2.017-0.108-2.826l7.62-8.227c0.588-0.635,1.698-0.914,3.043-0.767c1.409,0.154,2.834,0.759,3.721,1.58
		l3.647,3.378c1.729,1.601,2.702,5.198,1.328,6.682l-7.62,8.227c-0.75,0.809-2.018,0.857-2.826,0.108l-0.178-0.165
		c-0.81-0.75-2.075-0.704-2.827,0.107c-0.751,0.81-0.703,2.075,0.107,2.826l0.179,0.166c1.153,1.067,2.616,1.595,4.075,1.595
		C35.654,29.065,37.264,28.419,38.444,27.145z"/>
	<path fill="#010101" d="M20.035,20.531c-1.175-1.089-2.701-1.651-4.307-1.594c-1.602,0.062-3.083,0.743-4.172,1.919l-7.62,8.226
		c-1.479,1.597-2.022,3.923-1.529,6.549c0.418,2.227,1.567,4.39,3.074,5.786l3.647,3.377c1.803,1.67,4.512,2.692,7.085,2.692
		c2.032,0,3.98-0.637,5.331-2.096l7.62-8.226c2.248-2.428,2.102-6.231-0.326-8.48L28.66,28.52c-0.812-0.751-2.076-0.701-2.826,0.109
		c-0.751,0.811-0.701,2.076,0.109,2.826l0.178,0.165c0.809,0.749,0.857,2.017,0.108,2.826l-7.62,8.227
		c-1.373,1.484-5.035,0.789-6.764-0.812l-3.647-3.377c-0.886-0.821-1.599-2.196-1.86-3.589c-0.25-1.331-0.056-2.458,0.532-3.093
		l7.62-8.227c0.363-0.392,0.857-0.619,1.391-0.639c0.522-0.022,1.044,0.168,1.437,0.533l0.178,0.165
		c0.811,0.75,2.077,0.7,2.826-0.111c0.75-0.811,0.701-2.076-0.11-2.826L20.035,20.531z"/>
	<path fill="#010101" d="M16.166,33.538c0.385,0.356,0.872,0.533,1.358,0.533c0.538,0,1.074-0.215,1.468-0.641l14.95-16.141
		c0.75-0.81,0.702-2.076-0.108-2.826c-0.81-0.751-2.076-0.702-2.826,0.108l-14.95,16.141C15.308,31.522,15.356,32.787,16.166,33.538
		z"/>
</g>
</svg>
