<?xml version="1.0" encoding="utf-8"?>
<!-- Generator: Adobe Illustrator 17.0.0, SVG Export Plug-In . SVG Version: 6.00 Build 0)  -->
<!DOCTYPE svg PUBLIC "-//W3C//DTD SVG 1.1//EN" "http://www.w3.org/Graphics/SVG/1.1/DTD/svg11.dtd">
<svg version="1.1" id="Layer_2" xmlns="http://www.w3.org/2000/svg" xmlns:xlink="http://www.w3.org/1999/xlink" x="0px" y="0px"
	 width="48px" height="48px" viewBox="0 0 48 48" enable-background="new 0 0 48 48" xml:space="preserve">
<g>
	<path fill="#010101" d="M20.362,22.565c1.512-1.512,4.146-1.512,5.657-0.001l1.414,1.414c0.781,0.782,2.047,0.782,2.829,0.001
		c0.781-0.78,0.781-2.047,0-2.828l-1.414-1.414c-1.511-1.512-3.52-2.344-5.657-2.344s-4.146,0.833-5.657,2.343L8.341,28.93
		c-3.119,3.119-3.119,8.193,0,11.314l1.413,1.412C11.266,43.168,13.274,44,15.412,44s4.147-0.833,5.656-2.344l4.344-4.344
		c0.781-0.781,0.781-2.047,0-2.828s-2.047-0.781-2.829,0l-4.345,4.344c-1.509,1.511-4.143,1.513-5.656-0.001l-1.414-1.412
		c-1.56-1.56-1.56-4.097-0.001-5.656L20.362,22.565z"/>
	<path fill="#010101" d="M33.09,29.635l9.192-9.191c1.511-1.511,2.343-3.52,2.343-5.657s-0.832-4.146-2.343-5.656l-1.415-1.416
		c-1.511-1.511-3.521-2.343-5.657-2.343s-4.145,0.832-5.656,2.343l-3.971,3.971c-0.781,0.781-0.781,2.047,0,2.828
		s2.047,0.781,2.829,0l3.972-3.971c0.755-0.755,1.759-1.171,2.827-1.171c1.069,0,2.073,0.416,2.829,1.171l1.415,1.416
		c0.755,0.755,1.171,1.759,1.171,2.828c0,1.068-0.416,2.073-1.171,2.828l-9.193,9.192c-1.511,1.512-4.145,1.512-5.655,0
		c-0.781-0.782-2.047-0.782-2.829-0.001c-0.781,0.781-0.782,2.047-0.001,2.829c1.511,1.512,3.52,2.345,5.657,2.345
		S31.58,31.147,33.09,29.635z"/>
</g>
</svg>
