<?xml version="1.0" encoding="utf-8"?>
<!-- Generator: Adobe Illustrator 17.0.0, SVG Export Plug-In . SVG Version: 6.00 Build 0)  -->
<!DOCTYPE svg PUBLIC "-//W3C//DTD SVG 1.1//EN" "http://www.w3.org/Graphics/SVG/1.1/DTD/svg11.dtd">
<svg version="1.1" id="Layer_2" xmlns="http://www.w3.org/2000/svg" xmlns:xlink="http://www.w3.org/1999/xlink" x="0px" y="0px"
	 width="48px" height="48px" viewBox="0 0 48 48" enable-background="new 0 0 48 48" xml:space="preserve">
<g>
	<path fill="#010101" d="M27.345,31.71c1.026,0.421,2.172,0.463,3.561,0.474l8.972,0.077c0.046,0,0.09,0.001,0.135,0.001
		c7.107,0,7.911-4.33,7.926-6.2l0.062-8c0.017-2.216-0.867-4.034-2.558-5.256c-1.374-0.994-3.234-1.528-5.379-1.544l-8.971-0.077
		c-0.035,0-0.069-0.001-0.104-0.001c-5.134,0-5.928,2.935-5.941,4.694c-0.008,1.104,0.88,2.007,1.984,2.015c0.005,0,0.011,0,0.016,0
		c1.097,0,1.991-0.885,2-1.984c0.002-0.347,0.009-0.741,2.014-0.724l8.971,0.077c1.292,0.01,2.381,0.289,3.067,0.785
		c0.392,0.284,0.912,0.798,0.902,1.985l-0.062,8c-0.006,0.79-0.01,2.257-4.029,2.23l-8.972-0.077
		c-0.523-0.004-1.553-0.012-1.98-0.138c-0.003-0.037-0.005-0.083-0.004-0.138c0.008-1.105-0.88-2.007-1.984-2.016
		c-1.062,0.015-2.006,0.88-2.016,1.984C24.935,30.352,26.443,31.341,27.345,31.71z"/>
	<path fill="#010101" d="M2.685,30.78c1.312,0.804,3.031,1.203,5.252,1.22l8.971,0.077c0.123,0.001,0.253,0.002,0.392,0.002
		c2.055,0,5.624-0.224,5.654-4.217c0.008-1.104-0.88-2.007-1.984-2.015c-1.075-0.015-2.007,0.88-2.016,1.984
		c0,0.054-0.003,0.099-0.006,0.134c-0.43,0.124-1.478,0.115-2.007,0.112L7.969,28c-1.812-0.014-2.737-0.351-3.194-0.631
		C4.368,27.12,3.992,26.746,4,25.709l0.061-8C4.079,15.445,6.234,14.989,8.09,15l8.972,0.077c1.166,0.009,1.65,0.189,1.835,0.295
		c0.081,0.047,0.152,0.088,0.149,0.459c-0.008,1.105,0.88,2.007,1.984,2.016c0.005,0,0.011,0,0.016,0c1.097,0,1.991-0.885,2-1.984
		c0.013-1.743-0.75-3.148-2.15-3.955c-0.96-0.554-2.169-0.818-3.801-0.83L8.123,11c-0.034,0-0.068,0-0.102,0
		c-4.808,0-7.928,2.613-7.959,6.678l-0.061,8C-0.022,28.522,1.448,30.022,2.685,30.78z"/>
	<path fill="#010101" d="M36.999,22.382c0-1.104-0.895-2-2-2H13c-1.105,0-2,0.896-2,2s0.895,2,2,2h21.999
		C36.104,24.382,36.999,23.487,36.999,22.382z"/>
</g>
</svg>
