<?xml version="1.0" encoding="utf-8"?>
<!-- Generator: Adobe Illustrator 17.1.0, SVG Export Plug-In . SVG Version: 6.00 Build 0)  -->
<!DOCTYPE svg PUBLIC "-//W3C//DTD SVG 1.0//EN" "http://www.w3.org/TR/2001/REC-SVG-20010904/DTD/svg10.dtd">
<svg version="1.0" id="Layer_1" xmlns="http://www.w3.org/2000/svg" xmlns:xlink="http://www.w3.org/1999/xlink" x="0px" y="0px"
	 width="48px" height="48px" viewBox="0 0 48 48" enable-background="new 0 0 48 48" xml:space="preserve">
<g>
	<path d="M14.183,10.565c0.781-0.781,0.781-2.048,0-2.829l-4-4c-0.78-0.78-2.048-0.78-2.828,0c-0.781,0.781-0.781,2.048,0,2.829l4,4
		c0.39,0.39,0.902,0.585,1.414,0.585C13.281,11.151,13.793,10.956,14.183,10.565z"/>
	<path d="M16.719,1.998v5c0,1.104,0.895,2,2,2c1.104,0,2-0.896,2-2v-5c0-1.105-0.896-2-2-2C17.615-0.002,16.719,0.894,16.719,1.998z
		"/>
	<path d="M5.719,12.998c-1.105,0-2,0.896-2,2s0.895,2,2,2h5c1.104,0,2-0.896,2-2s-0.896-2-2-2H5.719z"/>
	<path d="M2.912,43.249l2.121,2.121c1.755,1.755,4.06,2.632,6.364,2.632c2.305,0,4.61-0.877,6.364-2.632l6.805-6.805
		c0.781-0.781,0.781-2.048,0-2.829c-0.78-0.78-2.048-0.78-2.828,0l-6.805,6.806c-1.95,1.949-5.122,1.95-7.072,0l-2.121-2.121
		c-1.949-1.949-1.949-5.122-0.001-7.071l6.806-6.805c0.781-0.781,0.781-2.048,0-2.829c-0.78-0.781-2.047-0.781-2.828,0l-6.806,6.806
		C-0.596,34.03-0.596,39.74,2.912,43.249z"/>
	<path d="M47.719,22.151c0-4.961-4.122-9.153-9-9.153h-9c-1.105,0-2,0.896-2,2s0.895,2,2,2h9c2.71,0,5,2.359,5,5.153v4
		c0,2.673-2.266,4.847-5.05,4.847h-8.95c-1.105,0-2,0.896-2,2s0.895,2,2,2h8.95c4.99,0,9.05-3.969,9.05-8.847V22.151z"/>
</g>
</svg>
