<?xml version="1.0" encoding="utf-8"?>
<!-- Generator: Adobe Illustrator 17.0.0, SVG Export Plug-In . SVG Version: 6.00 Build 0)  -->
<!DOCTYPE svg PUBLIC "-//W3C//DTD SVG 1.1//EN" "http://www.w3.org/Graphics/SVG/1.1/DTD/svg11.dtd">
<svg version="1.1" id="Layer_2" xmlns="http://www.w3.org/2000/svg" xmlns:xlink="http://www.w3.org/1999/xlink" x="0px" y="0px"
	 width="48px" height="48px" viewBox="0 0 48 48" enable-background="new 0 0 48 48" xml:space="preserve">
<g>
	<path fill="#010101" d="M24,48.166c13.325,0,24.167-10.841,24.167-24.167C48.167,10.674,37.325-0.167,24-0.167
		S-0.167,10.674-0.167,24C-0.167,37.325,10.675,48.166,24,48.166z M24,9.902c4.442,0,8.056,3.614,8.056,8.056
		c0,2.856-1.472,5.431-3.887,6.886l1.862,12.092c0.045,0.291-0.04,0.586-0.231,0.809c-0.191,0.223-0.47,0.351-0.764,0.351H18.965
		c-0.294,0-0.573-0.128-0.764-0.351c-0.191-0.223-0.276-0.518-0.231-0.809l1.859-12.093c-2.414-1.455-3.885-4.03-3.885-6.886
		C15.944,13.516,19.558,9.902,24,9.902z"/>
</g>
</svg>
