<?xml version="1.0" encoding="utf-8"?>
<!-- Generator: Adobe Illustrator 17.0.0, SVG Export Plug-In . SVG Version: 6.00 Build 0)  -->
<!DOCTYPE svg PUBLIC "-//W3C//DTD SVG 1.1//EN" "http://www.w3.org/Graphics/SVG/1.1/DTD/svg11.dtd">
<svg version="1.1" id="Layer_2" xmlns="http://www.w3.org/2000/svg" xmlns:xlink="http://www.w3.org/1999/xlink" x="0px" y="0px"
	 width="48px" height="48px" viewBox="0 0 48 48" enable-background="new 0 0 48 48" xml:space="preserve">
<g>
	<path fill="#010101" d="M35,21.452v-9.441C35,5.164,30.271,0,24,0c-6.065,0-11,4.935-11,11h2c0-4.963,4.038-9,9-9
		c5.215,0,9,4.21,9,10.011v7.519C30.258,17.327,26.783,16,23,16c-8.822,0-16,7.178-16,16s7.178,16,16,16s16-7.178,16-16
		C39,27.958,37.481,24.272,35,21.452z M24,33.722V39c0,0.552-0.448,1-1,1s-1-0.448-1-1v-5.278c-0.595-0.347-1-0.985-1-1.722
		c0-1.102,0.897-2,2-2s2,0.898,2,2C25,32.737,24.595,33.375,24,33.722z"/>
</g>
</svg>
