<?xml version="1.0" encoding="utf-8"?>
<!-- Generator: Adobe Illustrator 17.0.0, SVG Export Plug-In . SVG Version: 6.00 Build 0)  -->
<!DOCTYPE svg PUBLIC "-//W3C//DTD SVG 1.1//EN" "http://www.w3.org/Graphics/SVG/1.1/DTD/svg11.dtd">
<svg version="1.1" id="Layer_2" xmlns="http://www.w3.org/2000/svg" xmlns:xlink="http://www.w3.org/1999/xlink" x="0px" y="0px"
	 width="48px" height="48px" viewBox="0 0 48 48" enable-background="new 0 0 48 48" xml:space="preserve">
<g>
	<path fill="#010101" d="M0.293,47.707C0.484,47.898,0.74,48,1,48c0.133,0,0.267-0.026,0.394-0.081l9.177-3.933l-6.557-6.557
		l-3.933,9.177C-0.08,46.982,0.004,47.418,0.293,47.707z"/>
	<path fill="#010101" d="M32.242,22.828L42.72,12.351c0.188-0.188,0.293-0.442,0.293-0.707c0-0.265-0.105-0.519-0.293-0.707
		l-5.657-5.656c-0.391-0.391-1.023-0.391-1.414,0l-0.778,0.778c-0.811-0.539-1.761-0.83-2.757-0.83l0,0
		c-1.336,0-2.592,0.521-3.537,1.466L17.264,18.008c-0.391,0.391-0.391,1.024,0,1.415c0.195,0.195,0.451,0.292,0.707,0.292
		s0.512-0.098,0.707-0.292L29.99,8.11c0.888-0.888,2.287-1.071,3.399-0.569l-8.217,8.217L32.242,22.828z"/>
	<path fill="#010101" d="M12.242,42.828l18.586-18.585l-7.051-7.051c-0.569,0.53-1.364,1.325-2.536,2.497L5.172,35.758
		L12.242,42.828z"/>
</g>
</svg>
