<?xml version="1.0" encoding="utf-8"?>
<!-- Generator: Adobe Illustrator 17.0.0, SVG Export Plug-In . SVG Version: 6.00 Build 0)  -->
<!DOCTYPE svg PUBLIC "-//W3C//DTD SVG 1.1//EN" "http://www.w3.org/Graphics/SVG/1.1/DTD/svg11.dtd">
<svg version="1.1" id="Layer_2" xmlns="http://www.w3.org/2000/svg" xmlns:xlink="http://www.w3.org/1999/xlink" x="0px" y="0px"
	 width="48px" height="48px" viewBox="0 0 48 48" enable-background="new 0 0 48 48" xml:space="preserve">
<g>
	<path fill="#010101" d="M3.763,34.832c-1.941,1.94-3.385,8.98-3.715,10.704l5.877-5.875c0.391-0.39,1.023-0.39,1.414,0
		c0.391,0.391,0.391,1.024,0,1.414L1.463,46.95c1.727-0.33,8.765-1.772,10.704-3.714c1.122-1.122,1.74-2.613,1.74-4.201
		s-0.618-3.08-1.74-4.201c-1.122-1.123-2.615-1.742-4.203-1.742S4.885,33.71,3.763,34.832z"/>
	<path fill="#010101" d="M10.023,31.319l5.656,5.657c0.188,0.188,0.442,0.293,0.707,0.293s0.52-0.105,0.707-0.293l17.715-17.714
		l-7.186-6.956L10.023,29.905C9.633,30.296,9.633,30.929,10.023,31.319z"/>
	<path fill="#010101" d="M36.222,17.848L46.707,7.363C46.894,7.176,47,6.921,47,6.656s-0.106-0.52-0.293-0.707l-5.658-5.656
		c-0.391-0.391-1.023-0.391-1.414,0l-0.778,0.778c-0.811-0.538-1.761-0.829-2.757-0.829c-1.336,0-2.591,0.52-3.535,1.465
		L21.251,13.021c-0.391,0.391-0.391,1.023,0,1.414c0.195,0.195,0.451,0.293,0.707,0.293s0.512-0.098,0.707-0.293L33.979,3.122
		c0.886-0.887,2.285-1.07,3.396-0.568l-8.339,8.338L36.222,17.848z"/>
</g>
</svg>
