<?xml version="1.0" encoding="utf-8"?>
<!-- Generator: Adobe Illustrator 17.0.0, SVG Export Plug-In . SVG Version: 6.00 Build 0)  -->
<!DOCTYPE svg PUBLIC "-//W3C//DTD SVG 1.1//EN" "http://www.w3.org/Graphics/SVG/1.1/DTD/svg11.dtd">
<svg version="1.1" id="Layer_2" xmlns="http://www.w3.org/2000/svg" xmlns:xlink="http://www.w3.org/1999/xlink" x="0px" y="0px"
	 width="48px" height="48px" viewBox="0 0 48 48" enable-background="new 0 0 48 48" xml:space="preserve">
<g>
	<path fill="#010101" d="M0.293,47.707C0.488,47.902,0.744,48,1,48s0.512-0.098,0.707-0.293l3.535-3.535l0.707,0.707
		c0.195,0.195,0.451,0.293,0.707,0.293c0.256,0,0.512-0.098,0.707-0.293c0.391-0.391,0.391-1.023,0-1.414l-2.829-2.829
		c-0.391-0.391-1.023-0.391-1.414,0s-0.391,1.023,0,1.414l0.707,0.708l-3.535,3.535C-0.098,46.684-0.098,47.316,0.293,47.707z"/>
	<path fill="#010101" d="M4.535,37.808l5.656,5.657c0.188,0.188,0.442,0.293,0.707,0.293c0.265,0,0.52-0.105,0.707-0.293
		l19.223-19.223l-7.071-7.07L4.535,36.394C4.144,36.785,4.144,37.418,4.535,37.808z"/>
	<path fill="#010101" d="M32.242,22.828l10.477-10.477c0.188-0.188,0.293-0.442,0.293-0.707c0-0.265-0.105-0.519-0.293-0.707
		l-5.657-5.656c-0.391-0.391-1.023-0.391-1.414,0L34.869,6.06c-0.811-0.539-1.761-0.83-2.757-0.83c-1.336,0-2.592,0.521-3.536,1.466
		L17.263,18.008c-0.391,0.391-0.391,1.024,0,1.415c0.195,0.195,0.451,0.292,0.707,0.292s0.512-0.098,0.707-0.292L29.991,8.11
		c0.887-0.888,2.286-1.071,3.397-0.569l-8.216,8.216L32.242,22.828z"/>
</g>
</svg>
