<?xml version="1.0" encoding="utf-8"?>
<!-- Generator: Adobe Illustrator 17.0.0, SVG Export Plug-In . SVG Version: 6.00 Build 0)  -->
<!DOCTYPE svg PUBLIC "-//W3C//DTD SVG 1.1//EN" "http://www.w3.org/Graphics/SVG/1.1/DTD/svg11.dtd">
<svg version="1.1" id="Layer_2" xmlns="http://www.w3.org/2000/svg" xmlns:xlink="http://www.w3.org/1999/xlink" x="0px" y="0px"
	 width="48px" height="48px" viewBox="0 0 48 48" enable-background="new 0 0 48 48" xml:space="preserve">
<g>
	<path fill="#010101" d="M1.293,46.707C1.485,46.899,1.741,47,2,47c0.151,0,0.305-0.035,0.447-0.105l10.669-5.334L6.44,34.884
		L1.105,45.553C0.913,45.938,0.988,46.403,1.293,46.707z"/>
	<path fill="#010101" d="M44.243,10.829l2.121-2.122c1.95-1.949,1.95-5.122,0-7.071c-0.944-0.944-2.2-1.464-3.536-1.464
		s-2.591,0.52-3.536,1.464l-2.121,2.122L44.243,10.829z"/>
	
		<rect x="5.372" y="17.757" transform="matrix(-0.7071 0.7071 -0.7071 -0.7071 59.183 20.9997)" fill="#010101" width="39.74" height="10"/>
</g>
</svg>
