<?xml version="1.0" encoding="utf-8"?>
<!-- Generator: Adobe Illustrator 17.0.0, SVG Export Plug-In . SVG Version: 6.00 Build 0)  -->
<!DOCTYPE svg PUBLIC "-//W3C//DTD SVG 1.1//EN" "http://www.w3.org/Graphics/SVG/1.1/DTD/svg11.dtd">
<svg version="1.1" id="Layer_2" xmlns="http://www.w3.org/2000/svg" xmlns:xlink="http://www.w3.org/1999/xlink" x="0px" y="0px"
	 width="48px" height="48px" viewBox="0 0 48 48" enable-background="new 0 0 48 48" xml:space="preserve">
<g>
	<path fill="#010101" d="M0.026,46.772c-0.079,0.337,0.022,0.691,0.267,0.935C0.482,47.897,0.738,48,1,48
		c0.076,0,0.153-0.009,0.229-0.026l12.933-3.032c0.085-0.02,0.167-0.053,0.243-0.094L3.154,33.597
		C3.112,33.673,3.08,33.754,3.06,33.84L0.026,46.772z"/>
	
		<rect x="36.356" y="2.644" transform="matrix(-0.7071 0.7071 -0.7071 -0.7071 71.2962 -8.244)" fill="#010101" width="2" height="16"/>
	
		<rect x="5.007" y="17.287" transform="matrix(-0.7071 0.7071 -0.7071 -0.7071 56.6548 27.1062)" fill="#010101" width="35.414" height="16"/>
	<path fill="#010101" d="M45.134,14.181l0.707-0.708c1.949-1.95,1.949-5.121,0-7.071L41.599,2.16
		c-0.944-0.944-2.2-1.464-3.536-1.464s-2.591,0.52-3.536,1.464L33.82,2.867L45.134,14.181z"/>
</g>
</svg>
