<?xml version="1.0" encoding="utf-8"?>
<!-- Generator: Adobe Illustrator 17.0.0, SVG Export Plug-In . SVG Version: 6.00 Build 0)  -->
<!DOCTYPE svg PUBLIC "-//W3C//DTD SVG 1.1//EN" "http://www.w3.org/Graphics/SVG/1.1/DTD/svg11.dtd">
<svg version="1.1" id="Layer_2" xmlns="http://www.w3.org/2000/svg" xmlns:xlink="http://www.w3.org/1999/xlink" x="0px" y="0px"
	 width="48px" height="48px" viewBox="0 0 48 48" enable-background="new 0 0 48 48" xml:space="preserve">
<g>
	<path fill="#010101" d="M0.293,47.707C0.483,47.898,0.739,48,1,48c0.098,0,0.197-0.015,0.294-0.044l5.542-1.706L1.75,41.164
		l-1.705,5.542C-0.065,47.06,0.031,47.445,0.293,47.707z"/>
	
		<rect x="33.878" y="5.636" transform="matrix(-0.7071 0.7071 -0.7071 -0.7071 68.9404 -2.5553)" fill="#010101" width="2.243" height="14.728"/>
	<path fill="#010101" d="M8.999,45.585l4.719-1.452l-2.426-2.426C11.105,41.52,11,41.265,11,41v-4H7
		c-0.265,0-0.52-0.105-0.707-0.293l-2.426-2.426l-1.452,4.72L8.999,45.585z"/>
	<polygon fill="#010101" points="33.5,15.914 13,36.415 13,40.586 15.414,43 38,20.414 	"/>
	<path fill="#010101" d="M42.414,16l2.464-2.464c0.941-0.941,1.46-2.197,1.46-3.536s-0.519-2.594-1.46-3.535l-3.343-3.344
		C40.594,2.18,39.339,1.662,38,1.662s-2.594,0.519-3.536,1.46L32,5.586L42.414,16z"/>
	<polygon fill="#010101" points="7.414,35 11.586,35 32.086,14.5 27.586,10 5,32.586 	"/>
</g>
</svg>
