<?xml version="1.0" encoding="utf-8"?>
<!-- Generator: Adobe Illustrator 17.0.0, SVG Export Plug-In . SVG Version: 6.00 Build 0)  -->
<!DOCTYPE svg PUBLIC "-//W3C//DTD SVG 1.1//EN" "http://www.w3.org/Graphics/SVG/1.1/DTD/svg11.dtd">
<svg version="1.1" id="Layer_2" xmlns="http://www.w3.org/2000/svg" xmlns:xlink="http://www.w3.org/1999/xlink" x="0px" y="0px"
	 width="48px" height="48px" viewBox="0 0 48 48" enable-background="new 0 0 48 48" xml:space="preserve">
<g>
	<path fill="#010101" d="M0.293,47.707C0.488,47.902,0.744,48,1,48s0.512-0.098,0.707-0.293L19,30.414l8.293,8.293
		C27.488,38.902,27.744,39,28,39s0.512-0.098,0.707-0.293l3-3C31.894,35.52,32,35.265,32,35v-7.586l9-9l1.293,1.293
		c0.391,0.391,1.023,0.391,1.414,0l4-4c0.391-0.391,0.391-1.023,0-1.414l-14-14c-0.391-0.391-1.023-0.391-1.414,0l-4,4
		c-0.391,0.391-0.391,1.023,0,1.414L29.586,7l-9,9H13c-0.265,0-0.52,0.106-0.707,0.293l-3,3c-0.391,0.391-0.391,1.023,0,1.414
		L17.586,29L0.293,46.293C-0.098,46.684-0.098,47.316,0.293,47.707z"/>
</g>
</svg>
