<?xml version="1.0" encoding="utf-8"?>
<!-- Generator: Adobe Illustrator 17.0.0, SVG Export Plug-In . SVG Version: 6.00 Build 0)  -->
<!DOCTYPE svg PUBLIC "-//W3C//DTD SVG 1.1//EN" "http://www.w3.org/Graphics/SVG/1.1/DTD/svg11.dtd">
<svg version="1.1" id="Layer_2" xmlns="http://www.w3.org/2000/svg" xmlns:xlink="http://www.w3.org/1999/xlink" x="0px" y="0px"
	 width="48px" height="48px" viewBox="0 0 48 48" enable-background="new 0 0 48 48" xml:space="preserve">
<g>
	<path fill="#010101" d="M36.874,0.515C36.698,0.197,36.364,0,36,0H20c-0.459,0-0.859,0.313-0.97,0.757l-6,24
		c-0.075,0.299-0.007,0.615,0.182,0.858C13.401,25.858,13.692,26,14,26h6.691l-5.656,20.737c-0.129,0.473,0.104,0.97,0.551,1.173
		C15.719,47.971,15.86,48,15.999,48c0.326,0,0.642-0.159,0.833-0.445l20-30c0.205-0.307,0.224-0.701,0.05-1.026
		C36.707,16.203,36.369,16,36,16h-8.196l9.044-14.47C37.04,1.222,37.051,0.833,36.874,0.515z"/>
</g>
</svg>
