<?xml version="1.0" encoding="utf-8"?>
<!-- Generator: Adobe Illustrator 17.0.0, SVG Export Plug-In . SVG Version: 6.00 Build 0)  -->
<!DOCTYPE svg PUBLIC "-//W3C//DTD SVG 1.1//EN" "http://www.w3.org/Graphics/SVG/1.1/DTD/svg11.dtd">
<svg version="1.1" id="Layer_2" xmlns="http://www.w3.org/2000/svg" xmlns:xlink="http://www.w3.org/1999/xlink" x="0px" y="0px"
	 width="48px" height="48px" viewBox="0 0 48 48" enable-background="new 0 0 48 48" xml:space="preserve">
<g>
	<path fill="#010101" d="M28.407,0.087c-0.433-0.193-0.944-0.055-1.221,0.332l-20,28c-0.217,0.305-0.247,0.706-0.075,1.039
		C7.282,29.791,7.625,30,8,30h14.753l-3.729,16.783c-0.103,0.464,0.135,0.937,0.569,1.13C19.724,47.972,19.863,48,19.999,48
		c0.315,0,0.622-0.149,0.815-0.419l20-28c0.217-0.305,0.246-0.706,0.075-1.039C40.718,18.21,40.374,18,40,18H25.247l3.73-16.783
		C29.079,0.753,28.841,0.28,28.407,0.087z"/>
</g>
</svg>
