<?xml version="1.0" encoding="utf-8"?>
<!-- Generator: Adobe Illustrator 17.0.0, SVG Export Plug-In . SVG Version: 6.00 Build 0)  -->
<!DOCTYPE svg PUBLIC "-//W3C//DTD SVG 1.1//EN" "http://www.w3.org/Graphics/SVG/1.1/DTD/svg11.dtd">
<svg version="1.1" id="Layer_2" xmlns="http://www.w3.org/2000/svg" xmlns:xlink="http://www.w3.org/1999/xlink" x="0px" y="0px"
	 width="48px" height="48px" viewBox="0 0 48 48" enable-background="new 0 0 48 48" xml:space="preserve">
<g>
	<path fill="#010101" d="M0.214,25.621C0.647,26.167,10.961,39,23.998,39s23.351-12.833,23.784-13.379
		c0.289-0.364,0.289-0.878,0-1.242C47.349,23.833,37.035,11,23.998,11S0.647,23.833,0.214,24.379
		C-0.074,24.743-0.074,25.257,0.214,25.621z M23.998,16c4.962,0,9,4.037,9,9s-4.038,9-9,9s-9-4.037-9-9
		C14.998,20.037,19.036,16,23.998,16z"/>
	<path fill="#010101" d="M23.998,32c3.86,0,7-3.14,7-7s-3.14-7-7-7s-7,3.14-7,7S20.138,32,23.998,32z"/>
</g>
</svg>
