<?xml version="1.0" encoding="utf-8"?>
<!-- Generator: Adobe Illustrator 17.0.0, SVG Export Plug-In . SVG Version: 6.00 Build 0)  -->
<!DOCTYPE svg PUBLIC "-//W3C//DTD SVG 1.1//EN" "http://www.w3.org/Graphics/SVG/1.1/DTD/svg11.dtd">
<svg version="1.1" id="Layer_2" xmlns="http://www.w3.org/2000/svg" xmlns:xlink="http://www.w3.org/1999/xlink" x="0px" y="0px"
	 width="48px" height="48px" viewBox="0 0 48 48" enable-background="new 0 0 48 48" xml:space="preserve">
<g>
	<path fill="#010101" d="M47.006,12.238c-0.602-1.021-1.665-1.791-2.917-2.115c-1.253-0.323-2.557-0.164-3.576,0.437L20.917,22.094
		c-0.003,0.002-0.005,0.001-0.008,0.003l-2.967,1.747l-6.477-3.417c2.95-1.179,5.043-4.061,5.043-7.427c0-4.411-3.589-8-8-8
		s-8,3.589-8,8c0,4.341,3.477,7.877,7.791,7.989c0.036,0.026,0.061,0.062,0.101,0.083l7.428,3.917l-7.595,4.024
		C3.95,29.16,0.508,32.682,0.508,37c0,4.411,3.589,8,8,8s8-3.589,8-8c0-3.37-2.097-6.253-5.052-7.43l6.82-3.614
		c0.072-0.021,0.141-0.05,0.207-0.087l22.446,13.237c0.673,0.397,1.47,0.601,2.295,0.601c0.424,0,0.856-0.054,1.282-0.164
		c1.252-0.323,2.316-1.094,2.917-2.114c0.14-0.237,0.062-0.543-0.175-0.684L27.017,24.698l19.814-11.776
		C47.068,12.781,47.146,12.476,47.006,12.238z M2.508,13c0-3.309,2.691-6,6-6s6,2.691,6,6s-2.691,6-6,6S2.508,16.309,2.508,13z
		 M14.508,37c0,3.308-2.691,6-6,6s-6-2.692-6-6s2.691-5.999,5.999-6h0.002H8.51C11.818,31.001,14.508,33.692,14.508,37z"/>
</g>
</svg>
