<?xml version="1.0" encoding="utf-8"?>
<!-- Generator: Adobe Illustrator 17.1.0, SVG Export Plug-In . SVG Version: 6.00 Build 0)  -->
<!DOCTYPE svg PUBLIC "-//W3C//DTD SVG 1.0//EN" "http://www.w3.org/TR/2001/REC-SVG-20010904/DTD/svg10.dtd">
<svg version="1.0" id="Layer_1" xmlns="http://www.w3.org/2000/svg" xmlns:xlink="http://www.w3.org/1999/xlink" x="0px" y="0px"
	 width="48px" height="48px" viewBox="0 0 48 48" enable-background="new 0 0 48 48" xml:space="preserve">
<g>
	<path d="M16,24c-2.206,0-4,1.794-4,4s1.794,4,4,4c2.206,0,4-1.794,4-4S18.206,24,16,24z"/>
	<path d="M28,28c0,2.206,1.794,4,4,4c2.206,0,4-1.794,4-4s-1.794-4-4-4C29.794,24,28,25.794,28,28z"/>
	<path d="M24,0C14.075,0,6,8.075,6,18v2c2.718,0,6-2.23,6-5v-2c0-0.552,0.448-1,1-1c0.552,0,1,0.448,1,1v2c0,4.006-4.224,7-8,7v12
		c0,3.228,1.539,5.444,4,5.909V43c0,2.757,2.243,5,5,5h1v-9c0-0.552,0.448-1,1-1c0.552,0,1,0.448,1,1v9h5v-9c0-0.552,0.448-1,1-1
		c0.552,0,1,0.448,1,1v9h5v-9c0-0.552,0.448-1,1-1c0.552,0,1,0.448,1,1v9h1c2.757,0,5-2.243,5-5v-3.091c2.461-0.465,4-2.682,4-5.909
		V22c-3.776,0-8-2.994-8-7v-2c0-0.552,0.448-1,1-1c0.552,0,1,0.448,1,1v2c0,2.77,3.282,5,6,5v-2C42,8.075,33.925,0,24,0z M16,34
		c-3.309,0-6-2.691-6-6s2.691-6,6-6c3.309,0,6,2.691,6,6S19.309,34,16,34z M23,36c-0.552,0-1-0.448-1-1c0-1.103,0.897-2,2-2
		s2,0.897,2,2c0,0.552-0.448,1-1,1H23z M38,28c0,3.309-2.691,6-6,6c-3.309,0-6-2.691-6-6s2.691-6,6-6C35.309,22,38,24.691,38,28z"/>
</g>
</svg>
