<?xml version="1.0" encoding="utf-8"?>
<!-- Generator: Adobe Illustrator 17.0.0, SVG Export Plug-In . SVG Version: 6.00 Build 0)  -->
<!DOCTYPE svg PUBLIC "-//W3C//DTD SVG 1.1//EN" "http://www.w3.org/Graphics/SVG/1.1/DTD/svg11.dtd">
<svg version="1.1" id="Layer_2" xmlns="http://www.w3.org/2000/svg" xmlns:xlink="http://www.w3.org/1999/xlink" x="0px" y="0px"
	 width="48px" height="48px" viewBox="0 0 48 48" enable-background="new 0 0 48 48" xml:space="preserve">
<g>
	<path fill="#010101" d="M48,16c0-1.104-0.896-2-2-2h-9.91c0.478-2.833,2.943-5,5.91-5c1.104,0,2-0.895,2-2c0-1.104-0.896-2-2-2
		c-3.268,0-6.174,1.575-8,4.006C32.174,6.575,29.268,5,26,5c-1.105,0-2,0.896-2,2c0,1.105,0.895,2,2,2c2.967,0,5.431,2.167,5.91,5H2
		c-1.105,0-2,0.896-2,2v16c0,1.105,0.895,2,2,2h30c0,3.309-2.691,6-6,6c-1.105,0-2,0.896-2,2c0,1.105,0.895,2,2,2
		c3.268,0,6.174-1.575,8-4.006C35.826,42.425,38.732,44,42,44c1.104,0,2-0.895,2-2c0-1.104-0.896-2-2-2c-3.309,0-6-2.691-6-6h10
		c1.104,0,2-0.895,2-2V16z M4,30V18h28v12H4z M44,30h-8V18h8V30z"/>
</g>
</svg>
