<?xml version="1.0" encoding="utf-8"?>
<!-- Generator: Adobe Illustrator 17.0.0, SVG Export Plug-In . SVG Version: 6.00 Build 0)  -->
<!DOCTYPE svg PUBLIC "-//W3C//DTD SVG 1.1//EN" "http://www.w3.org/Graphics/SVG/1.1/DTD/svg11.dtd">
<svg version="1.1" id="Layer_2" xmlns="http://www.w3.org/2000/svg" xmlns:xlink="http://www.w3.org/1999/xlink" x="0px" y="0px"
	 width="48px" height="48px" viewBox="0 0 48 48" enable-background="new 0 0 48 48" xml:space="preserve">
<g>
	<path fill="#010101" d="M34,4h3c1.104,0,2-0.895,2-2c0-1.104-0.896-2-2-2h-3c-3.268,0-6.174,1.575-8,4.006
		C24.174,1.575,21.268,0,18,0h-3c-1.105,0-2,0.896-2,2c0,1.105,0.895,2,2,2h3c3.309,0,6,2.691,6,6v18h-3c-1.105,0-2,0.896-2,2
		c0,1.105,0.895,2,2,2h3v6c0,3.309-2.691,6-6,6h-3c-1.105,0-2,0.896-2,2c0,1.105,0.895,2,2,2h3c3.268,0,6.174-1.575,8-4.006
		C27.826,46.425,30.732,48,34,48h3c1.104,0,2-0.895,2-2c0-1.104-0.896-2-2-2h-3c-3.309,0-6-2.691-6-6v-6h3c1.104,0,2-0.895,2-2
		c0-1.104-0.896-2-2-2h-3V10C28,6.691,30.691,4,34,4z"/>
</g>
</svg>
