<?xml version="1.0" encoding="utf-8"?>
<!-- Generator: Adobe Illustrator 17.1.0, SVG Export Plug-In . SVG Version: 6.00 Build 0)  -->
<!DOCTYPE svg PUBLIC "-//W3C//DTD SVG 1.0//EN" "http://www.w3.org/TR/2001/REC-SVG-20010904/DTD/svg10.dtd">
<svg version="1.0" id="Layer_1" xmlns="http://www.w3.org/2000/svg" xmlns:xlink="http://www.w3.org/1999/xlink" x="0px" y="0px"
	 width="48px" height="48px" viewBox="0 0 48 48" enable-background="new 0 0 48 48" xml:space="preserve">
<g>
	<path d="M0,28c0,1.104,0.895,2,2,2c1.104,0,2-0.896,2-2v-2c0-1.104-0.896-2-2-2c-1.105,0-2,0.896-2,2V28z"/>
	<path d="M0,20c0,1.104,0.895,2,2,2c1.104,0,2-0.896,2-2v-1h1c1.104,0,2-0.896,2-2s-0.896-2-2-2H2c-1.105,0-2,0.896-2,2V20z"/>
	<path d="M11,19h2c1.104,0,2-0.896,2-2s-0.896-2-2-2h-2c-1.105,0-2,0.896-2,2S9.895,19,11,19z"/>
	<path d="M19,15c-1.105,0-2,0.896-2,2s0.895,2,2,2h1v-4H19z"/>
	<path d="M0,37c0,1.104,0.895,2,2,2h3c1.104,0,2-0.896,2-2s-0.896-2-2-2H4v-1c0-1.104-0.896-2-2-2c-1.105,0-2,0.896-2,2V37z"/>
	<path d="M11,39h2c1.104,0,2-0.896,2-2s-0.896-2-2-2h-2c-1.105,0-2,0.896-2,2S9.895,39,11,39z"/>
	<path d="M19,35c-1.105,0-2,0.896-2,2s0.895,2,2,2h1v-4H19z"/>
	<path d="M48,26c0-1.104-0.896-2-2-2c-1.105,0-2,0.896-2,2v2c0,1.104,0.895,2,2,2c1.104,0,2-0.896,2-2V26z"/>
	<path d="M48,17c0-1.104-0.896-2-2-2h-3c-1.105,0-2,0.896-2,2s0.895,2,2,2h1v1c0,1.104,0.895,2,2,2c1.104,0,2-0.896,2-2V17z"/>
	<path d="M37,15h-2c-1.105,0-2,0.896-2,2s0.895,2,2,2h2c1.104,0,2-0.896,2-2S38.104,15,37,15z"/>
	<path d="M29,19c1.104,0,2-0.896,2-2s-0.896-2-2-2h-1v4H29z"/>
	<path d="M46,32c-1.105,0-2,0.896-2,2v1h-1c-1.105,0-2,0.896-2,2s0.895,2,2,2h3c1.104,0,2-0.896,2-2v-3C48,32.896,47.104,32,46,32z"
		/>
	<path d="M37,35h-2c-1.105,0-2,0.896-2,2s0.895,2,2,2h2c1.104,0,2-0.896,2-2S38.104,35,37,35z"/>
	<path d="M28,39h1c1.104,0,2-0.896,2-2s-0.896-2-2-2h-1V39z"/>
	<path d="M35,0h-3c-0.388,0-0.77,0.025-1.147,0.069c-0.084,0.009-0.166,0.026-0.25,0.038c-0.303,0.042-0.602,0.094-0.896,0.163
		c-0.069,0.016-0.137,0.036-0.205,0.053c-0.314,0.081-0.624,0.174-0.926,0.285c-0.041,0.015-0.081,0.03-0.122,0.045
		c-0.332,0.127-0.657,0.269-0.972,0.428c-0.013,0.007-0.026,0.013-0.039,0.019C26.088,1.797,24.91,2.795,24,4.006
		c-0.91-1.211-2.088-2.209-3.445-2.907c-0.013-0.006-0.025-0.012-0.038-0.018c-0.315-0.16-0.64-0.302-0.972-0.429
		c-0.04-0.015-0.08-0.03-0.121-0.045c-0.302-0.11-0.611-0.204-0.926-0.285c-0.068-0.018-0.136-0.037-0.205-0.053
		c-0.293-0.069-0.594-0.12-0.896-0.163c-0.083-0.012-0.165-0.029-0.249-0.038C16.77,0.025,16.388,0,16,0h-3c-1.103,0-2,0.897-2,2
		s0.897,2,2,2h3c0.62,0,1.219,0.095,1.782,0.27c0.376,0.117,0.735,0.27,1.075,0.455c1.7,0.925,2.906,2.648,3.111,4.662
		C21.989,9.589,22,9.793,22,10v19h-3c-1.103,0-2,0.897-2,2s0.897,2,2,2h3v6c0,3.69-3.232,5-6,5h-3c-1.103,0-2,0.897-2,2s0.897,2,2,2
		h3c0.408,0,0.806-0.02,1.197-0.055c0.082-0.007,0.161-0.02,0.242-0.029c0.316-0.035,0.629-0.076,0.932-0.133
		c0.067-0.013,0.133-0.028,0.2-0.042c0.318-0.065,0.629-0.14,0.931-0.229c0.046-0.013,0.092-0.028,0.138-0.042
		c0.318-0.098,0.626-0.209,0.925-0.333c0.032-0.013,0.064-0.026,0.095-0.04c0.304-0.13,0.597-0.274,0.879-0.43
		c0.027-0.015,0.055-0.029,0.082-0.044c0.277-0.156,0.541-0.327,0.795-0.508c0.03-0.021,0.061-0.039,0.09-0.061
		c0.26-0.189,0.505-0.392,0.739-0.605c0.017-0.015,0.035-0.028,0.052-0.043c0.251-0.231,0.486-0.477,0.705-0.735
		c0.219,0.258,0.454,0.503,0.705,0.735c0.017,0.016,0.037,0.03,0.055,0.046c0.233,0.212,0.478,0.414,0.736,0.602
		c0.03,0.022,0.063,0.041,0.093,0.062c0.254,0.18,0.517,0.35,0.793,0.506c0.027,0.015,0.055,0.029,0.082,0.044
		c0.282,0.156,0.575,0.3,0.879,0.43c0.031,0.014,0.063,0.026,0.095,0.04c0.298,0.124,0.607,0.235,0.925,0.333
		c0.046,0.014,0.092,0.029,0.138,0.042c0.301,0.089,0.613,0.164,0.93,0.229c0.067,0.014,0.133,0.029,0.2,0.042
		c0.303,0.057,0.615,0.098,0.932,0.133c0.081,0.009,0.16,0.022,0.242,0.029C31.194,47.98,31.592,48,32,48h3c1.103,0,2-0.897,2-2
		s-0.897-2-2-2h-3c-0.692,0-1.413-0.082-2.105-0.262c-0.519-0.135-1.022-0.326-1.485-0.58C27.023,42.398,26,41.076,26,39v-6h3
		c1.103,0,2-0.897,2-2s-0.897-2-2-2h-3V10c0-0.207,0.01-0.411,0.031-0.613c0.205-2.014,1.411-3.737,3.111-4.662
		c0.34-0.185,0.7-0.338,1.075-0.455C30.781,4.095,31.38,4,32,4h3c1.103,0,2-0.898,2-2S36.103,0,35,0z"/>
</g>
</svg>
