<?xml version="1.0" encoding="utf-8"?>
<!-- Generator: Adobe Illustrator 17.0.0, SVG Export Plug-In . SVG Version: 6.00 Build 0)  -->
<!DOCTYPE svg PUBLIC "-//W3C//DTD SVG 1.1//EN" "http://www.w3.org/Graphics/SVG/1.1/DTD/svg11.dtd">
<svg version="1.1" id="Layer_2" xmlns="http://www.w3.org/2000/svg" xmlns:xlink="http://www.w3.org/1999/xlink" x="0px" y="0px"
	 width="48px" height="48px" viewBox="0 0 48 48" enable-background="new 0 0 48 48" xml:space="preserve">
<g>
	<path fill="#010101" d="M0,34c0,1.105,0.895,2,2,2h44c1.104,0,2-0.895,2-2V16c0-1.104-0.896-2-2-2H2c-1.105,0-2,0.896-2,2V34z
		 M4,18h40v14H4V18z"/>
	<path fill="#010101" d="M8,20c-1.105,0-2,0.896-2,2v6c0,1.105,0.895,2,2,2c1.104,0,2-0.895,2-2v-6C10,20.896,9.104,20,8,20z"/>
</g>
</svg>
