<?xml version="1.0" encoding="utf-8"?>
<!-- Generator: Adobe Illustrator 17.0.0, SVG Export Plug-In . SVG Version: 6.00 Build 0)  -->
<!DOCTYPE svg PUBLIC "-//W3C//DTD SVG 1.1//EN" "http://www.w3.org/Graphics/SVG/1.1/DTD/svg11.dtd">
<svg version="1.1" id="Layer_2" xmlns="http://www.w3.org/2000/svg" xmlns:xlink="http://www.w3.org/1999/xlink" x="0px" y="0px"
	 width="48px" height="48px" viewBox="0 0 48 48" enable-background="new 0 0 48 48" xml:space="preserve">
<g>
	<path fill="#010101" d="M16.998,34c3.967,0,7.613-1.377,10.508-3.663l17.078,17.077C44.975,47.805,45.486,48,45.998,48
		s1.024-0.195,1.414-0.586c0.781-0.781,0.781-2.047,0-2.828L30.335,27.509c2.287-2.896,3.663-6.542,3.663-10.509
		c0-9.374-7.626-17-17-17s-17,7.626-17,17S7.624,34,16.998,34z M9.998,16h6v-6c0-0.552,0.448-1,1-1s1,0.448,1,1v6h6
		c0.552,0,1,0.448,1,1s-0.448,1-1,1h-6v6c0,0.552-0.448,1-1,1s-1-0.448-1-1v-6h-6c-0.552,0-1-0.448-1-1
		C8.998,16.448,9.446,16,9.998,16z"/>
</g>
</svg>
