<?xml version="1.0" encoding="utf-8"?>
<!-- Generator: Adobe Illustrator 17.0.0, SVG Export Plug-In . SVG Version: 6.00 Build 0)  -->
<!DOCTYPE svg PUBLIC "-//W3C//DTD SVG 1.1//EN" "http://www.w3.org/Graphics/SVG/1.1/DTD/svg11.dtd">
<svg version="1.1" id="Layer_2" xmlns="http://www.w3.org/2000/svg" xmlns:xlink="http://www.w3.org/1999/xlink" x="0px" y="0px"
	 width="48px" height="48px" viewBox="0 0 48 48" enable-background="new 0 0 48 48" xml:space="preserve">
<g>
	<path fill="#010101" d="M16.998,34c3.987,0,7.651-1.39,10.554-3.697l17.029,17.108C44.971,47.804,45.485,48,45.998,48
		c0.51,0,1.021-0.194,1.411-0.582c0.783-0.779,0.786-2.045,0.006-2.829L30.369,27.463c2.265-2.889,3.629-6.516,3.629-10.463
		c0-9.374-7.626-17-17-17s-17,7.626-17,17S7.624,34,16.998,34z M9.998,16h14c0.552,0,1,0.448,1,1s-0.448,1-1,1h-14
		c-0.552,0-1-0.448-1-1C8.998,16.448,9.446,16,9.998,16z"/>
</g>
</svg>
