<?xml version="1.0" encoding="utf-8"?>
<!-- Generator: Adobe Illustrator 17.0.0, SVG Export Plug-In . SVG Version: 6.00 Build 0)  -->
<!DOCTYPE svg PUBLIC "-//W3C//DTD SVG 1.1//EN" "http://www.w3.org/Graphics/SVG/1.1/DTD/svg11.dtd">
<svg version="1.1" id="Layer_2" xmlns="http://www.w3.org/2000/svg" xmlns:xlink="http://www.w3.org/1999/xlink" x="0px" y="0px"
	 width="48px" height="48px" viewBox="0 0 48 48" enable-background="new 0 0 48 48" xml:space="preserve">
<g>
	<path fill="#010101" d="M2,16c1.104,0,2-0.895,2-2v-3c0-1.104-0.896-2-2-2c-1.105,0-2,0.896-2,2v3C0,15.105,0.895,16,2,16z"/>
	<path fill="#010101" d="M2,26c1.104,0,2-0.895,2-2v-3c0-1.104-0.896-2-2-2c-1.105,0-2,0.896-2,2v3C0,25.105,0.895,26,2,26z"/>
	<path fill="#010101" d="M35,11c0-1.104-0.896-2-2-2c-1.105,0-2,0.896-2,2v4c0,1.105,0.895,2,2,2c1.104,0,2-0.895,2-2V11z"/>
	<path fill="#010101" d="M33,19c-1.105,0-2,0.896-2,2v1.191C31.65,22.071,32.316,22,33,22s1.35,0.071,2,0.191V21
		C35,19.896,34.104,19,33,19z"/>
	<path fill="#010101" d="M5,31H4v-1c0-1.104-0.896-2-2-2c-1.105,0-2,0.896-2,2v3c0,1.105,0.895,2,2,2h3c1.104,0,2-0.895,2-2
		C7,31.896,6.104,31,5,31z"/>
	<path fill="#010101" d="M5,0H2C0.895,0,0,0.896,0,2v3c0,1.105,0.895,2,2,2c1.104,0,2-0.895,2-2V4h1c1.104,0,2-0.895,2-2
		C7,0.896,6.104,0,5,0z"/>
	<path fill="#010101" d="M14,0h-3C9.895,0,9,0.896,9,2c0,1.105,0.895,2,2,2h3c1.104,0,2-0.895,2-2C16,0.896,15.104,0,14,0z"/>
	<path fill="#010101" d="M14,31h-3c-1.105,0-2,0.896-2,2c0,1.105,0.895,2,2,2h3c1.104,0,2-0.895,2-2C16,31.896,15.104,31,14,31z"/>
	<path fill="#010101" d="M21,31c-1.105,0-2,0.896-2,2c0,1.105,0.895,2,2,2h1.191C22.071,34.351,22,33.684,22,33s0.071-1.351,0.191-2
		H21z"/>
	<path fill="#010101" d="M25,2c0-1.104-0.896-2-2-2h-2c-1.105,0-2,0.896-2,2c0,1.105,0.895,2,2,2h2C24.104,4,25,3.105,25,2z"/>
	<path fill="#010101" d="M30,4h1v1c0,1.105,0.895,2,2,2c1.104,0,2-0.895,2-2V2c0-1.104-0.896-2-2-2h-3c-1.105,0-2,0.896-2,2
		C28,3.105,28.895,4,30,4z"/>
	<path fill="#010101" d="M47.414,44.586l-5.357-5.357l-1.446-1.446C41.486,36.395,42,34.758,42,33c0-4.963-4.038-9-9-9s-9,4.037-9,9
		s4.038,9,9,9c1.758,0,3.395-0.515,4.783-1.39l1.446,1.446l5.357,5.357C44.976,47.805,45.488,48,46,48s1.023-0.195,1.414-0.586
		C48.195,46.633,48.195,45.367,47.414,44.586z M34,37c0,0.552-0.448,1-1,1s-1-0.448-1-1v-3h-3c-0.552,0-1-0.448-1-1s0.448-1,1-1h3
		v-3c0-0.552,0.448-1,1-1s1,0.448,1,1v3h3c0.552,0,1,0.448,1,1s-0.448,1-1,1h-3V37z"/>
</g>
</svg>
