<?xml version="1.0" encoding="utf-8"?>
<!-- Generator: Adobe Illustrator 17.0.0, SVG Export Plug-In . SVG Version: 6.00 Build 0)  -->
<!DOCTYPE svg PUBLIC "-//W3C//DTD SVG 1.1//EN" "http://www.w3.org/Graphics/SVG/1.1/DTD/svg11.dtd">
<svg version="1.1" id="Layer_1" xmlns="http://www.w3.org/2000/svg" xmlns:xlink="http://www.w3.org/1999/xlink" x="0px" y="0px"
	 width="48px" height="48px" viewBox="0 0 48 48" enable-background="new 0 0 48 48" xml:space="preserve">
<g>
	<circle fill="#010101" cx="7" cy="9" r="1"/>
	<circle fill="#010101" cx="11" cy="9" r="1"/>
	<circle fill="#010101" cx="15" cy="9" r="1"/>
	<path fill="#010101" d="M43,12h-1V9c0-2.757-2.243-5-5-5H5C2.243,4,0,6.243,0,9v22c0,2.757,2.243,5,5,5h1v3c0,2.757,2.243,5,5,5h32
		c2.757,0,5-2.243,5-5V17C48,14.243,45.757,12,43,12z M46,17v3h-4v-6h1C44.654,14,46,15.346,46,17z M5,6h32c1.654,0,3,1.346,3,3v3H2
		V9C2,7.346,3.346,6,5,6z M2,31V14h38v17c0,1.654-1.346,3-3,3H5C3.346,34,2,32.654,2,31z M43,42H11c-1.654,0-3-1.346-3-3v-3h29
		c2.757,0,5-2.243,5-5v-9h4v17C46,40.654,44.654,42,43,42z"/>
</g>
</svg>
