<?xml version="1.0" encoding="utf-8"?>
<!-- Generator: Adobe Illustrator 17.0.0, SVG Export Plug-In . SVG Version: 6.00 Build 0)  -->
<!DOCTYPE svg PUBLIC "-//W3C//DTD SVG 1.1//EN" "http://www.w3.org/Graphics/SVG/1.1/DTD/svg11.dtd">
<svg version="1.1" id="Layer_1" xmlns="http://www.w3.org/2000/svg" xmlns:xlink="http://www.w3.org/1999/xlink" x="0px" y="0px"
	 width="48px" height="48px" viewBox="0 0 48 48" enable-background="new 0 0 48 48" xml:space="preserve">
<g>
	<circle fill="#010101" cx="7" cy="5" r="1"/>
	<circle fill="#010101" cx="11" cy="5" r="1"/>
	<circle fill="#010101" cx="15" cy="5" r="1"/>
	<path fill="#010101" d="M19,32H5c-1.654,0-3-1.346-3-3V10h38v11c0,0.552,0.447,1,1,1s1-0.448,1-1V5c0-2.757-2.243-5-5-5H5
		C2.243,0,0,2.243,0,5v24c0,2.757,2.243,5,5,5h14c0.553,0,1-0.448,1-1S19.553,32,19,32z M5,2h32c1.654,0,3,1.346,3,3v3H2V5
		C2,3.346,3.346,2,5,2z"/>
	<path fill="#010101" d="M47.94,32.66C47.797,32.264,47.421,32,47,32h-6.381l-3.708-7.446c-0.168-0.339-0.515-0.553-0.893-0.554
		c-0.001,0-0.001,0-0.002,0c-0.378,0-0.724,0.213-0.894,0.551L31.383,32H25c-0.421,0-0.797,0.264-0.942,0.66
		c-0.143,0.396-0.023,0.838,0.3,1.108l5.477,4.563l-2.784,8.353c-0.136,0.407,0.004,0.857,0.347,1.115
		c0.344,0.258,0.814,0.268,1.168,0.025L36,42.719l7.434,5.105C43.604,47.942,43.803,48,44,48c0.212,0,0.424-0.067,0.601-0.201
		c0.343-0.258,0.484-0.707,0.347-1.115l-2.784-8.353l5.476-4.563C47.964,33.499,48.084,33.056,47.94,32.66z M40.359,37.231
		c-0.316,0.264-0.439,0.694-0.308,1.085l2.057,6.172l-5.542-3.806c-0.171-0.117-0.368-0.176-0.566-0.176s-0.396,0.059-0.566,0.177
		l-5.542,3.806l2.057-6.172c0.131-0.391,0.008-0.822-0.308-1.085L27.762,34H32c0.378,0,0.724-0.213,0.893-0.551l3.118-6.213
		l3.093,6.21C39.274,33.785,39.621,34,40,34h4.238L40.359,37.231z"/>
</g>
</svg>
