<?xml version="1.0" encoding="utf-8"?>
<!-- Generator: Adobe Illustrator 17.0.0, SVG Export Plug-In . SVG Version: 6.00 Build 0)  -->
<!DOCTYPE svg PUBLIC "-//W3C//DTD SVG 1.1//EN" "http://www.w3.org/Graphics/SVG/1.1/DTD/svg11.dtd">
<svg version="1.1" id="Layer_1" xmlns="http://www.w3.org/2000/svg" xmlns:xlink="http://www.w3.org/1999/xlink" x="0px" y="0px"
	 width="48px" height="48px" viewBox="0 0 48 48" enable-background="new 0 0 48 48" xml:space="preserve">
<g>
	<circle fill="#010101" cx="9.052" cy="7" r="1"/>
	<circle fill="#010101" cx="13.052" cy="7" r="1"/>
	<circle fill="#010101" cx="17.052" cy="7" r="1"/>
	<path fill="#010101" d="M41.052,2h-34C4.267,2,2,4.243,2,7v22c0,2.757,2.267,5,5.052,5H13c0.552,0,1-0.448,1-1s-0.448-1-1-1H7.052
		C5.369,32,4,30.654,4,29V12h40v17c0,1.682-1.295,3-2.948,3H36c-0.552,0-1,0.448-1,1s0.448,1,1,1h5.052C43.78,34,46,31.757,46,29V7
		C46,4.243,43.78,2,41.052,2z M4,10V7c0-1.654,1.369-3,3.052-3h34C42.705,4,44,5.318,44,7v3H4z"/>
	<path fill="#010101" d="M25.759,19.293c-0.202-0.203-0.469-0.295-0.734-0.288C25.016,19.005,25.009,19,25,19
		c-0.345,0-0.635,0.186-0.815,0.453l-7.84,7.84c-0.391,0.391-0.391,1.023,0,1.414c0.39,0.391,1.023,0.391,1.414,0L24,22.466V43
		c0,0.552,0.448,1,1,1s1-0.448,1-1V22.362l6.345,6.345C32.54,28.902,32.796,29,33.052,29s0.512-0.098,0.707-0.293
		c0.391-0.391,0.391-1.023,0-1.414L25.759,19.293z"/>
</g>
</svg>
