<?xml version="1.0" encoding="utf-8"?>
<!-- Generator: Adobe Illustrator 17.0.0, SVG Export Plug-In . SVG Version: 6.00 Build 0)  -->
<!DOCTYPE svg PUBLIC "-//W3C//DTD SVG 1.1//EN" "http://www.w3.org/Graphics/SVG/1.1/DTD/svg11.dtd">
<svg version="1.1" id="Layer_1" xmlns="http://www.w3.org/2000/svg" xmlns:xlink="http://www.w3.org/1999/xlink" x="0px" y="0px"
	 width="48px" height="48px" viewBox="0 0 48 48" enable-background="new 0 0 48 48" xml:space="preserve">
<g>
	<circle fill="#010101" cx="7" cy="11" r="1"/>
	<circle fill="#010101" cx="11" cy="11" r="1"/>
	<circle fill="#010101" cx="15" cy="11" r="1"/>
	<path fill="#010101" d="M43.908,14.092c-0.375-2.028-1.972-3.625-4-4C39.479,7.768,37.446,6,35,6H5c-2.757,0-5,2.243-5,5v20
		c0,2.446,1.768,4.479,4.092,4.908c0.375,2.028,1.972,3.625,4,4C8.521,42.232,10.554,44,13,44h30c2.757,0,5-2.243,5-5V19
		C48,16.554,46.232,14.521,43.908,14.092z M5,8h30c1.654,0,3,1.346,3,3v3H2v-3C2,9.346,3.346,8,5,8z M2,31V16h36v15
		c0,1.654-1.346,3-3,3H5C3.346,34,2,32.654,2,31z M6.184,36H35c2.757,0,5-2.243,5-5V12.184c1.161,0.414,2,1.514,2,2.816v20
		c0,1.654-1.346,3-3,3H9C7.698,38,6.599,37.161,6.184,36z M46,39c0,1.654-1.346,3-3,3H13c-1.302,0-2.401-0.839-2.816-2H39
		c2.757,0,5-2.243,5-5V16.184c1.161,0.414,2,1.514,2,2.816V39z"/>
</g>
</svg>
