<?xml version="1.0" encoding="utf-8"?>
<!-- Generator: Adobe Illustrator 17.0.0, SVG Export Plug-In . SVG Version: 6.00 Build 0)  -->
<!DOCTYPE svg PUBLIC "-//W3C//DTD SVG 1.1//EN" "http://www.w3.org/Graphics/SVG/1.1/DTD/svg11.dtd">
<svg version="1.1" id="Layer_1" xmlns="http://www.w3.org/2000/svg" xmlns:xlink="http://www.w3.org/1999/xlink" x="0px" y="0px"
	 width="48px" height="48px" viewBox="0 0 48 48" enable-background="new 0 0 48 48" xml:space="preserve">
<g>
	<path fill="#010101" d="M28,38h-3.553c-0.088-0.105-0.182-0.222-0.286-0.351C22.938,36.14,20.394,33,16,33h-6v-1
		c0-0.552-0.447-1-1-1H1c-0.553,0-1,0.448-1,1v15c0,0.552,0.447,1,1,1h8c0.553,0,1-0.448,1-1v-1h33c0.553,0,1-0.448,1-1
		C44,40.875,35.567,38,28,38z M8,46H2V33h6V46z M10,44v-9h6c2.793,0,4.624,1.612,5.848,3H14c-0.553,0-1,0.448-1,1s0.447,1,1,1h14
		c6.72,0,12.043,2.148,13.562,4H10z"/>
	<circle fill="#010101" cx="5" cy="43" r="1"/>
	<path fill="#010101" d="M41,0H9C6.243,0,4,2.243,4,5v17c0,0.552,0.447,1,1,1s1-0.448,1-1V10h38v19c0,1.654-1.346,3-3,3h-6
		c-0.553,0-1,0.448-1,1s0.447,1,1,1h6c2.757,0,5-2.243,5-5V5C46,2.243,43.757,0,41,0z M6,8V5c0-1.654,1.346-3,3-3h32
		c1.654,0,3,1.346,3,3v3H6z"/>
	<circle fill="#010101" cx="11" cy="5" r="1"/>
	<circle fill="#010101" cx="15" cy="5" r="1"/>
	<circle fill="#010101" cx="19" cy="5" r="1"/>
</g>
</svg>
