<?xml version="1.0" encoding="utf-8"?>
<!-- Generator: Adobe Illustrator 17.0.0, SVG Export Plug-In . SVG Version: 6.00 Build 0)  -->
<!DOCTYPE svg PUBLIC "-//W3C//DTD SVG 1.1//EN" "http://www.w3.org/Graphics/SVG/1.1/DTD/svg11.dtd">
<svg version="1.1" id="Layer_1" xmlns="http://www.w3.org/2000/svg" xmlns:xlink="http://www.w3.org/1999/xlink" x="0px" y="0px"
	 width="48px" height="48px" viewBox="0 0 48 48" enable-background="new 0 0 48 48" xml:space="preserve">
<g>
	<path d="M43,4H5C2.243,4,0,6.243,0,9v28c0,2.757,2.243,5,5,5h38c2.757,0,5-2.243,5-5V9C48,6.243,45.757,4,43,4z M5,6h38
		c1.654,0,3,1.346,3,3v5H2V9C2,7.346,3.346,6,5,6z M43,40H5c-1.654,0-3-1.346-3-3V16h44v21C46,38.654,44.654,40,43,40z"/>
	<circle cx="8" cy="10" r="2"/>
	<circle cx="14" cy="10" r="2"/>
	<circle cx="20" cy="10" r="2"/>
	<path d="M15,19H9c-0.553,0-1,0.448-1,1v6c0,0.552,0.447,1,1,1h6c0.553,0,1-0.448,1-1v-6C16,19.448,15.553,19,15,19z M14,25h-4v-4h4
		V25z"/>
	<path d="M15,29H9c-0.553,0-1,0.448-1,1v6c0,0.552,0.447,1,1,1h6c0.553,0,1-0.448,1-1v-6C16,29.448,15.553,29,15,29z M14,35h-4v-4h4
		V35z"/>
	<path d="M27,19h-6c-0.553,0-1,0.448-1,1v6c0,0.552,0.447,1,1,1h6c0.553,0,1-0.448,1-1v-6C28,19.448,27.553,19,27,19z M26,25h-4v-4
		h4V25z"/>
	<path d="M27,29h-6c-0.553,0-1,0.448-1,1v6c0,0.552,0.447,1,1,1h6c0.553,0,1-0.448,1-1v-6C28,29.448,27.553,29,27,29z M26,35h-4v-4
		h4V35z"/>
	<path d="M39,19h-6c-0.553,0-1,0.448-1,1v6c0,0.552,0.447,1,1,1h6c0.553,0,1-0.448,1-1v-6C40,19.448,39.553,19,39,19z M38,25h-4v-4
		h4V25z"/>
	<path d="M39,29h-6c-0.553,0-1,0.448-1,1v6c0,0.552,0.447,1,1,1h6c0.553,0,1-0.448,1-1v-6C40,29.448,39.553,29,39,29z M38,35h-4v-4
		h4V35z"/>
</g>
</svg>
