<?xml version="1.0" encoding="utf-8"?>
<!-- Generator: Adobe Illustrator 17.0.0, SVG Export Plug-In . SVG Version: 6.00 Build 0)  -->
<!DOCTYPE svg PUBLIC "-//W3C//DTD SVG 1.1//EN" "http://www.w3.org/Graphics/SVG/1.1/DTD/svg11.dtd">
<svg version="1.1" id="Layer_1" xmlns="http://www.w3.org/2000/svg" xmlns:xlink="http://www.w3.org/1999/xlink" x="0px" y="0px"
	 width="48px" height="48px" viewBox="0 0 48 48" enable-background="new 0 0 48 48" xml:space="preserve">
<g>
	<circle fill="#010101" cx="28" cy="14" r="2"/>
	<circle fill="#010101" cx="34" cy="14" r="2"/>
	<circle fill="#010101" cx="40" cy="14" r="2"/>
	<path fill="#010101" d="M47,8H1C0.447,8,0,8.448,0,9v38c0,0.552,0.447,1,1,1h46c0.553,0,1-0.448,1-1V9C48,8.448,47.553,8,47,8z
		 M2,20h44v12h-9c-0.358,0-0.69,0.192-0.869,0.505l-3.004,5.256l-5.209-12.154c-0.144-0.338-0.462-0.569-0.827-0.602
		c-0.369-0.034-0.72,0.136-0.924,0.441l-6.945,10.418l-3.294-8.235c-0.133-0.33-0.429-0.566-0.782-0.618
		c-0.351-0.053-0.705,0.087-0.928,0.365L10.519,32H2V20z M46,10v8H2v-8H46z M2,46V34h9c0.304,0,0.591-0.138,0.781-0.375l2.928-3.66
		l3.362,8.407c0.138,0.345,0.456,0.585,0.825,0.623c0.38,0.039,0.731-0.131,0.936-0.44l6.976-10.464l5.273,12.303
		c0.149,0.349,0.483,0.583,0.862,0.605C32.962,41,32.981,41,33,41c0.357,0,0.689-0.191,0.868-0.504L37.58,34H46v12H2z"/>
</g>
</svg>
