<?xml version="1.0" encoding="utf-8"?>
<!-- Generator: Adobe Illustrator 17.0.0, SVG Export Plug-In . SVG Version: 6.00 Build 0)  -->
<!DOCTYPE svg PUBLIC "-//W3C//DTD SVG 1.1//EN" "http://www.w3.org/Graphics/SVG/1.1/DTD/svg11.dtd">
<svg version="1.1" id="Layer_1" xmlns="http://www.w3.org/2000/svg" xmlns:xlink="http://www.w3.org/1999/xlink" x="0px" y="0px"
	 width="48px" height="48px" viewBox="0 0 48 48" enable-background="new 0 0 48 48" xml:space="preserve">
<g>
	<path fill="#010101" d="M37,24H19c-0.553,0-1,0.448-1,1s0.447,1,1,1h18c0.553,0,1-0.448,1-1S37.553,24,37,24z"/>
	<path fill="#010101" d="M13,24h-2c-0.553,0-1,0.448-1,1s0.447,1,1,1h2c0.553,0,1-0.448,1-1S13.553,24,13,24z"/>
	<path fill="#010101" d="M37,30H19c-0.553,0-1,0.448-1,1s0.447,1,1,1h18c0.553,0,1-0.448,1-1S37.553,30,37,30z"/>
	<path fill="#010101" d="M13,30h-2c-0.553,0-1,0.448-1,1s0.447,1,1,1h2c0.553,0,1-0.448,1-1S13.553,30,13,30z"/>
	<path fill="#010101" d="M37,36H19c-0.553,0-1,0.448-1,1s0.447,1,1,1h18c0.553,0,1-0.448,1-1S37.553,36,37,36z"/>
	<path fill="#010101" d="M13,36h-2c-0.553,0-1,0.448-1,1s0.447,1,1,1h2c0.553,0,1-0.448,1-1S13.553,36,13,36z"/>
	<circle fill="#010101" cx="28" cy="14" r="2"/>
	<circle fill="#010101" cx="34" cy="14" r="2"/>
	<circle fill="#010101" cx="40" cy="14" r="2"/>
	<path fill="#010101" d="M47,8H1C0.447,8,0,8.448,0,9v38c0,0.552,0.447,1,1,1h46c0.553,0,1-0.448,1-1V9C48,8.448,47.553,8,47,8z
		 M46,10v8H2v-8H46z M2,46V20h44v26H2z"/>
</g>
</svg>
