<?xml version="1.0" encoding="utf-8"?>
<!-- Generator: Adobe Illustrator 17.0.0, SVG Export Plug-In . SVG Version: 6.00 Build 0)  -->
<!DOCTYPE svg PUBLIC "-//W3C//DTD SVG 1.1//EN" "http://www.w3.org/Graphics/SVG/1.1/DTD/svg11.dtd">
<svg version="1.1" id="Layer_1" xmlns="http://www.w3.org/2000/svg" xmlns:xlink="http://www.w3.org/1999/xlink" x="0px" y="0px"
	 width="48px" height="48px" viewBox="0 0 48 48" enable-background="new 0 0 48 48" xml:space="preserve">
<g>
	<circle fill="#010101" cx="7" cy="5" r="1"/>
	<circle fill="#010101" cx="11" cy="5" r="1"/>
	<circle fill="#010101" cx="15" cy="5" r="1"/>
	<path fill="#010101" d="M19,32H5c-1.654,0-3-1.346-3-3V10h38v11c0,0.552,0.448,1,1,1s1-0.448,1-1V5c0-2.757-2.243-5-5-5H5
		C2.243,0,0,2.243,0,5v24c0,2.757,2.243,5,5,5h14c0.552,0,1-0.448,1-1S19.552,32,19,32z M5,2h32c1.654,0,3,1.346,3,3v3H2V5
		C2,3.346,3.346,2,5,2z"/>
	<path fill="#010101" d="M47.814,46.392l-10.92-21.839c-0.339-0.678-1.45-0.678-1.789,0l-11,22c-0.155,0.31-0.138,0.678,0.044,0.973
		C24.331,47.82,24.653,48,25,48h22c0.007,0,0.014,0,0.02,0c0.552,0,1-0.448,1-1C48.02,46.771,47.943,46.56,47.814,46.392z
		 M26.618,46L36,27.236L45.382,46H26.618z"/>
	<path fill="#010101" d="M35,34v6c0,0.552,0.448,1,1,1s1-0.448,1-1v-6c0-0.552-0.448-1-1-1S35,33.448,35,34z"/>
	<circle fill="#010101" cx="36" cy="43" r="1"/>
</g>
</svg>
