<?xml version="1.0" encoding="utf-8"?>
<!-- Generator: Adobe Illustrator 17.0.0, SVG Export Plug-In . SVG Version: 6.00 Build 0)  -->
<!DOCTYPE svg PUBLIC "-//W3C//DTD SVG 1.1//EN" "http://www.w3.org/Graphics/SVG/1.1/DTD/svg11.dtd">
<svg version="1.1" id="Layer_1" xmlns="http://www.w3.org/2000/svg" xmlns:xlink="http://www.w3.org/1999/xlink" x="0px" y="0px"
	 width="48px" height="48px" viewBox="0 0 48 48" enable-background="new 0 0 48 48" xml:space="preserve">
<g>
	<circle fill="#010101" cx="7" cy="5" r="1"/>
	<circle fill="#010101" cx="11" cy="5" r="1"/>
	<circle fill="#010101" cx="15" cy="5" r="1"/>
	<path fill="#010101" d="M19,32H5c-1.654,0-3-1.346-3-3V10h38v11c0,0.552,0.447,1,1,1s1-0.448,1-1V5c0-2.757-2.243-5-5-5H5
		C2.243,0,0,2.243,0,5v24c0,2.757,2.243,5,5,5h14c0.553,0,1-0.448,1-1S19.553,32,19,32z M5,2h32c1.654,0,3,1.346,3,3v3H2V5
		C2,3.346,3.346,2,5,2z"/>
	<path fill="#010101" d="M47,29c-0.553,0-1,0.448-1,1v2.004C44.144,29.533,41.199,28,38,28c-4.231,0-8.021,2.679-9.43,6.666
		c-0.185,0.52,0.087,1.092,0.609,1.276C29.288,35.981,29.402,36,29.512,36c0.412,0,0.798-0.257,0.942-0.667
		C31.583,32.143,34.615,30,38,30c2.886,0,5.503,1.565,6.915,4H42c-0.553,0-1,0.448-1,1s0.447,1,1,1h6v-6C48,29.448,47.553,29,47,29z
		"/>
	<path fill="#010101" d="M46.821,40.057c-0.522-0.186-1.092,0.09-1.275,0.61C44.418,43.857,41.386,46,38,46
		c-2.885,0-5.503-1.565-6.915-4H33c0.553,0,1-0.448,1-1s-0.447-1-1-1h-5v5c0,0.552,0.447,1,1,1s1-0.448,1-1v-1.003
		C31.856,46.468,34.801,48,38,48c4.231,0,8.021-2.679,9.43-6.667C47.615,40.812,47.342,40.241,46.821,40.057z"/>
</g>
</svg>
