<?xml version="1.0" encoding="utf-8"?>
<!-- Generator: Adobe Illustrator 17.0.0, SVG Export Plug-In . SVG Version: 6.00 Build 0)  -->
<!DOCTYPE svg PUBLIC "-//W3C//DTD SVG 1.1//EN" "http://www.w3.org/Graphics/SVG/1.1/DTD/svg11.dtd">
<svg version="1.1" id="Layer_1" xmlns="http://www.w3.org/2000/svg" xmlns:xlink="http://www.w3.org/1999/xlink" x="0px" y="0px"
	 width="48px" height="48px" viewBox="0 0 48 48" enable-background="new 0 0 48 48" xml:space="preserve">
<g>
	<path fill="#010101" d="M17,0H5C2.243,0,0,2.243,0,5v12c0,2.757,2.243,5,5,5h12c2.757,0,5-2.243,5-5V5C22,2.243,19.757,0,17,0z
		 M5,2h12c1.654,0,3,1.346,3,3v1H2V5C2,3.346,3.346,2,5,2z M17,20H5c-1.654,0-3-1.346-3-3V8h18v9C20,18.654,18.654,20,17,20z"/>
	<path fill="#010101" d="M43,0H31c-2.757,0-5,2.243-5,5v12c0,2.757,2.243,5,5,5h12c2.757,0,5-2.243,5-5V5C48,2.243,45.757,0,43,0z
		 M31,2h12c1.654,0,3,1.346,3,3v1H28V5C28,3.346,29.346,2,31,2z M43,20H31c-1.654,0-3-1.346-3-3V8h18v9C46,18.654,44.654,20,43,20z"
		/>
	<path fill="#010101" d="M17,26H5c-2.757,0-5,2.243-5,5v12c0,2.757,2.243,5,5,5h12c2.757,0,5-2.243,5-5V31
		C22,28.243,19.757,26,17,26z M5,28h12c1.654,0,3,1.346,3,3v1H2v-1C2,29.346,3.346,28,5,28z M17,46H5c-1.654,0-3-1.346-3-3v-9h18v9
		C20,44.654,18.654,46,17,46z"/>
	<path fill="#010101" d="M43,26H31c-2.757,0-5,2.243-5,5v12c0,2.757,2.243,5,5,5h12c2.757,0,5-2.243,5-5V31
		C48,28.243,45.757,26,43,26z M31,28h12c1.654,0,3,1.346,3,3v1H28v-1C28,29.346,29.346,28,31,28z M43,46H31c-1.654,0-3-1.346-3-3v-9
		h18v9C46,44.654,44.654,46,43,46z"/>
</g>
</svg>
