<?xml version="1.0" encoding="utf-8"?>
<!-- Generator: Adobe Illustrator 17.0.0, SVG Export Plug-In . SVG Version: 6.00 Build 0)  -->
<!DOCTYPE svg PUBLIC "-//W3C//DTD SVG 1.1//EN" "http://www.w3.org/Graphics/SVG/1.1/DTD/svg11.dtd">
<svg version="1.1" id="Layer_1" xmlns="http://www.w3.org/2000/svg" xmlns:xlink="http://www.w3.org/1999/xlink" x="0px" y="0px"
	 width="48px" height="48px" viewBox="0 0 48 48" enable-background="new 0 0 48 48" xml:space="preserve">
<g>
	<path fill="#010101" d="M13.707,24.293c-0.391-0.391-1.023-0.391-1.414,0c-0.391,0.391-0.391,1.023,0,1.414L16.586,30l-4.293,4.293
		c-0.391,0.391-0.391,1.023,0,1.414C12.488,35.902,12.744,36,13,36s0.512-0.098,0.707-0.293l5-5c0.391-0.391,0.391-1.023,0-1.414
		L13.707,24.293z"/>
	<path fill="#010101" d="M32,30h-8c-0.552,0-1,0.448-1,1s0.448,1,1,1h8c0.552,0,1-0.448,1-1S32.552,30,32,30z"/>
	<circle fill="#010101" cx="28" cy="14" r="2"/>
	<circle fill="#010101" cx="34" cy="14" r="2"/>
	<circle fill="#010101" cx="40" cy="14" r="2"/>
	<path fill="#010101" d="M47,8H1C0.448,8,0,8.448,0,9v38c0,0.552,0.448,1,1,1h46c0.552,0,1-0.448,1-1V9C48,8.448,47.552,8,47,8z
		 M46,10v8H2v-8H46z M2,46V20h44v26H2z"/>
</g>
</svg>
