<?xml version="1.0" encoding="utf-8"?>
<!-- Generator: Adobe Illustrator 17.0.0, SVG Export Plug-In . SVG Version: 6.00 Build 0)  -->
<!DOCTYPE svg PUBLIC "-//W3C//DTD SVG 1.1//EN" "http://www.w3.org/Graphics/SVG/1.1/DTD/svg11.dtd">
<svg version="1.1" id="Layer_1" xmlns="http://www.w3.org/2000/svg" xmlns:xlink="http://www.w3.org/1999/xlink" x="0px" y="0px"
	 width="48px" height="48px" viewBox="0 0 48 48" enable-background="new 0 0 48 48" xml:space="preserve">
<g>
	<path fill="#010101" d="M43,4H5C2.243,4,0,6.243,0,9v28c0,2.757,2.243,5,5,5h38c2.757,0,5-2.243,5-5V9C48,6.243,45.757,4,43,4z
		 M5,6h38c1.654,0,3,1.346,3,3v5H2V9C2,7.346,3.346,6,5,6z M43,40H5c-1.654,0-3-1.346-3-3V16h44v21C46,38.654,44.654,40,43,40z"/>
	<circle fill="#010101" cx="8" cy="10" r="2"/>
	<circle fill="#010101" cx="14" cy="10" r="2"/>
	<circle fill="#010101" cx="20" cy="10" r="2"/>
	<path fill="#010101" d="M11.707,22.293c-0.391-0.391-1.023-0.391-1.414,0c-0.391,0.391-0.391,1.023,0,1.414L14.586,28l-4.293,4.293
		c-0.391,0.391-0.391,1.023,0,1.414C10.488,33.902,10.744,34,11,34s0.512-0.098,0.707-0.293l5-5c0.391-0.391,0.391-1.023,0-1.414
		L11.707,22.293z"/>
	<path fill="#010101" d="M30,28h-8c-0.552,0-1,0.448-1,1s0.448,1,1,1h8c0.552,0,1-0.448,1-1S30.552,28,30,28z"/>
</g>
</svg>
