<?xml version="1.0" encoding="utf-8"?>
<!-- Generator: Adobe Illustrator 17.0.0, SVG Export Plug-In . SVG Version: 6.00 Build 0)  -->
<!DOCTYPE svg PUBLIC "-//W3C//DTD SVG 1.1//EN" "http://www.w3.org/Graphics/SVG/1.1/DTD/svg11.dtd">
<svg version="1.1" id="Layer_1" xmlns="http://www.w3.org/2000/svg" xmlns:xlink="http://www.w3.org/1999/xlink" x="0px" y="0px"
	 width="48px" height="48px" viewBox="0 0 48 48" enable-background="new 0 0 48 48" xml:space="preserve">
<g>
	<circle fill="#010101" cx="6.943" cy="5" r="1"/>
	<circle fill="#010101" cx="10.943" cy="5" r="1"/>
	<circle fill="#010101" cx="14.943" cy="5" r="1"/>
	<path fill="#010101" d="M18.943,32h-14c-1.654,0-3-1.346-3-3V10h38v11c0,0.552,0.448,1,1,1s1-0.448,1-1V5c0-2.757-2.243-5-5-5h-32
		c-2.757,0-5,2.243-5,5v24c0,2.757,2.243,5,5,5h14c0.553,0,1-0.448,1-1S19.495,32,18.943,32z M4.943,2h32c1.654,0,3,1.346,3,3v3h-38
		V5C1.943,3.346,3.289,2,4.943,2z"/>
	<path fill="#010101" d="M47.023,38.643c-0.069-0.256-0.236-0.475-0.466-0.607l-1.595-0.92c0.043-0.374,0.065-0.747,0.065-1.116
		c0-0.365-0.022-0.739-0.066-1.117l1.593-0.919c0.23-0.132,0.398-0.351,0.466-0.607c0.068-0.257,0.032-0.53-0.1-0.759l-3-5.195
		c-0.132-0.23-0.352-0.398-0.608-0.466c-0.258-0.067-0.53-0.031-0.76,0.102l-1.583,0.918c-0.583-0.425-1.229-0.798-1.916-1.104V25
		c0-0.552-0.448-1-1-1h-6c-0.552,0-1,0.448-1,1v1.853c-0.589,0.261-1.273,0.622-1.942,1.107l-1.605-0.923
		c-0.479-0.275-1.089-0.111-1.364,0.366l-3.003,5.195c-0.277,0.478-0.113,1.09,0.365,1.366l1.59,0.919
		c-0.045,0.381-0.067,0.75-0.067,1.117c0,0.364,0.022,0.738,0.066,1.116l-1.593,0.92c-0.478,0.277-0.642,0.888-0.366,1.366l3,5.195
		c0.277,0.478,0.886,0.643,1.364,0.368l1.612-0.924c0.669,0.486,1.353,0.848,1.943,1.109V47c0,0.552,0.448,1,1,1h6
		c0.552,0,1-0.448,1-1v-1.852c0.687-0.307,1.335-0.68,1.917-1.105l1.589,0.92c0.23,0.133,0.502,0.169,0.759,0.1
		c0.257-0.068,0.475-0.236,0.608-0.466l2.997-5.195C47.056,39.172,47.092,38.899,47.023,38.643z M42.693,42.731l-1.31-0.758
		c-0.366-0.212-0.828-0.17-1.151,0.106c-0.704,0.603-1.579,1.108-2.528,1.462c-0.391,0.145-0.651,0.519-0.651,0.937V46h-4h-0.001
		v-1.523c0-0.418-0.259-0.792-0.651-0.937c-0.966-0.36-1.873-0.879-2.553-1.462c-0.323-0.276-0.781-0.319-1.148-0.108l-1.332,0.764
		l-2.002-3.466l1.316-0.761c0.366-0.211,0.56-0.63,0.483-1.046c-0.092-0.501-0.139-0.993-0.139-1.461
		c0-0.465,0.046-0.943,0.141-1.461c0.076-0.416-0.117-0.835-0.483-1.046l-1.314-0.76l2.003-3.466l1.326,0.762
		c0.367,0.211,0.827,0.169,1.149-0.107c0.68-0.583,1.588-1.102,2.554-1.462c0.391-0.145,0.651-0.519,0.651-0.937V26h4v1.522
		c0,0.418,0.259,0.791,0.651,0.937c0.95,0.354,1.824,0.859,2.529,1.462c0.324,0.276,0.785,0.319,1.152,0.105l1.303-0.756
		l1.998,3.461l-1.317,0.761c-0.367,0.213-0.561,0.633-0.483,1.05c0.094,0.505,0.14,0.982,0.14,1.458
		c0,0.478-0.046,0.969-0.138,1.458c-0.079,0.417,0.115,0.838,0.483,1.05l1.319,0.761L42.693,42.731z"/>
	<path fill="#010101" d="M35.025,31c-2.757,0-5,2.243-5,5s2.243,5,5,5c2.757,0,5-2.243,5-5S37.782,31,35.025,31z M35.025,39
		c-1.654,0-3-1.346-3-3s1.346-3,3-3c1.655,0,3,1.346,3,3S36.679,39,35.025,39z"/>
</g>
</svg>
