<?xml version="1.0" encoding="utf-8"?>
<!-- Generator: Adobe Illustrator 17.0.0, SVG Export Plug-In . SVG Version: 6.00 Build 0)  -->
<!DOCTYPE svg PUBLIC "-//W3C//DTD SVG 1.1//EN" "http://www.w3.org/Graphics/SVG/1.1/DTD/svg11.dtd">
<svg version="1.1" id="Layer_1" xmlns="http://www.w3.org/2000/svg" xmlns:xlink="http://www.w3.org/1999/xlink" x="0px" y="0px"
	 width="48px" height="48px" viewBox="0 0 48 48" enable-background="new 0 0 48 48" xml:space="preserve">
<g>
	<circle fill="#010101" cx="7" cy="5" r="1"/>
	<circle fill="#010101" cx="11" cy="5" r="1"/>
	<circle fill="#010101" cx="15" cy="5" r="1"/>
	<path fill="#010101" d="M19,32H5c-1.654,0-3-1.346-3-3V10h38v11c0,0.552,0.447,1,1,1s1-0.448,1-1V5c0-2.757-2.243-5-5-5H5
		C2.243,0,0,2.243,0,5v24c0,2.757,2.243,5,5,5h14c0.553,0,1-0.448,1-1S19.553,32,19,32z M5,2h32c1.654,0,3,1.346,3,3v3H2V5
		C2,3.346,3.346,2,5,2z"/>
	<path fill="#010101" d="M46.247,27.747c-0.535-0.138-1.08,0.187-1.216,0.722l-0.693,2.719c-0.986-1.589-2.36-2.91-4.043-3.834
		c-2.576-1.414-5.549-1.741-8.366-0.917c-5.825,1.697-9.182,7.815-7.486,13.638c1.398,4.799,5.799,7.923,10.565,7.923
		c1.015,0,2.049-0.142,3.071-0.441c0.531-0.155,0.835-0.71,0.681-1.24c-0.153-0.53-0.708-0.837-1.239-0.68
		c-2.313,0.674-4.741,0.406-6.848-0.75c-2.107-1.157-3.638-3.064-4.311-5.372c-1.388-4.764,1.36-9.77,6.126-11.159
		c2.306-0.672,4.738-0.405,6.845,0.751c1.55,0.851,2.784,2.11,3.598,3.634l-3.56-0.907c-0.537-0.136-1.08,0.187-1.216,0.723
		c-0.136,0.535,0.187,1.08,0.722,1.216l5.479,1.396c0.029,0.007,0.058,0.006,0.088,0.011c0.028,0.005,0.055,0.008,0.084,0.01
		c0.025,0.002,0.051,0.01,0.077,0.01c0.068,0,0.132-0.02,0.198-0.033c0.027-0.006,0.054,0.001,0.081-0.007
		c0.007-0.002,0.012-0.008,0.019-0.01c0.117-0.037,0.225-0.092,0.321-0.168c0.025-0.02,0.041-0.046,0.064-0.068
		c0.064-0.061,0.122-0.125,0.168-0.202c0.024-0.04,0.038-0.083,0.056-0.127c0.02-0.047,0.049-0.088,0.062-0.139l1.396-5.483
		C47.105,28.428,46.782,27.884,46.247,27.747z"/>
</g>
</svg>
