<?xml version="1.0" encoding="utf-8"?>
<!-- Generator: Adobe Illustrator 17.0.0, SVG Export Plug-In . SVG Version: 6.00 Build 0)  -->
<!DOCTYPE svg PUBLIC "-//W3C//DTD SVG 1.1//EN" "http://www.w3.org/Graphics/SVG/1.1/DTD/svg11.dtd">
<svg version="1.1" id="Layer_1" xmlns="http://www.w3.org/2000/svg" xmlns:xlink="http://www.w3.org/1999/xlink" x="0px" y="0px"
	 width="48px" height="48px" viewBox="0 0 48 48" enable-background="new 0 0 48 48" xml:space="preserve">
<g>
	<circle fill="#010101" cx="7" cy="4.992" r="1"/>
	<circle fill="#010101" cx="11" cy="4.992" r="1"/>
	<circle fill="#010101" cx="15" cy="4.992" r="1"/>
	<path fill="#010101" d="M19,31.989H5c-1.654,0-3-1.345-3-2.997V9.988h38v11c0,0.552,0.447,1,1,1s1-0.448,1-1V4.991
		c0-2.758-2.243-5.003-5-5.003H5c-2.757,0-5,2.244-5,5.003v24c0,2.755,2.243,4.997,5,4.997h14c0.553,0,1-0.447,1-0.999
		S19.553,31.989,19,31.989z M5,1.989h32c1.654,0,3,1.347,3,3.003v2.996H2V4.992C2,3.336,3.346,1.989,5,1.989z"/>
	<path fill="#010101" d="M47.707,29.278l-5-4.999c-0.391-0.391-1.023-0.391-1.414,0L26.29,39.281
		c-0.084,0.084-0.146,0.186-0.196,0.294c-0.011,0.024-0.022,0.047-0.031,0.073c-0.008,0.022-0.021,0.042-0.028,0.065l-2,7
		c-0.1,0.35-0.002,0.725,0.255,0.982c0.19,0.19,0.445,0.293,0.707,0.293c0.092,0,0.185-0.012,0.274-0.039l7-2
		c0.021-0.006,0.04-0.018,0.061-0.026c0.028-0.01,0.054-0.022,0.082-0.035c0.107-0.049,0.207-0.11,0.29-0.193l15.003-15.003
		C47.894,30.505,48,30.25,48,29.985S47.894,29.466,47.707,29.278z M31.997,43.575l-3.586-3.586l9.587-9.587l3.586,3.586
		L31.997,43.575z M27.492,41.897l2.597,2.597l-3.636,1.038L27.492,41.897z M42.998,32.573l-3.586-3.586L42,26.4l3.586,3.585
		L42.998,32.573z"/>
</g>
</svg>
