<?xml version="1.0" encoding="utf-8"?>
<!-- Generator: Adobe Illustrator 17.0.0, SVG Export Plug-In . SVG Version: 6.00 Build 0)  -->
<!DOCTYPE svg PUBLIC "-//W3C//DTD SVG 1.1//EN" "http://www.w3.org/Graphics/SVG/1.1/DTD/svg11.dtd">
<svg version="1.1" id="Layer_1" xmlns="http://www.w3.org/2000/svg" xmlns:xlink="http://www.w3.org/1999/xlink" x="0px" y="0px"
	 width="48px" height="48px" viewBox="0 0 48 48" enable-background="new 0 0 48 48" xml:space="preserve">
<g>
	<circle fill="#010101" cx="9.053" cy="5" r="1"/>
	<circle fill="#010101" cx="13.053" cy="5" r="1"/>
	<circle fill="#010101" cx="17.053" cy="5" r="1"/>
	<path fill="#010101" d="M41.053,0h-34C4.267,0,2,2.243,2,5v22c0,2.757,2.267,5,5.053,5H19c0.552,0,1-0.448,1-1s-0.448-1-1-1H7.053
		C5.37,30,4,28.654,4,27V10h40v17c0,1.682-1.294,3-2.947,3H31c-0.552,0-1,0.448-1,1s0.448,1,1,1h10.053C43.781,32,46,29.757,46,27V5
		C46,2.243,43.781,0,41.053,0z M4,8V5c0-1.654,1.37-3,3.053-3h34C42.706,2,44,3.318,44,5v3H4z"/>
	<path fill="#010101" d="M32.346,38.293L26,44.639V24c0-0.552-0.448-1-1-1s-1,0.448-1,1v20.533l-6.24-6.24
		c-0.391-0.391-1.023-0.391-1.414,0c-0.391,0.391-0.391,1.023,0,1.414l7.837,7.837C24.363,47.812,24.653,48,25,48
		c0.009,0,0.017-0.005,0.026-0.005c0.009,0,0.018,0.005,0.027,0.005c0.256,0,0.511-0.098,0.707-0.293l8-8
		c0.391-0.391,0.391-1.023,0-1.414C33.369,37.902,32.737,37.902,32.346,38.293z"/>
</g>
</svg>
