<?xml version="1.0" encoding="utf-8"?>
<!-- Generator: Adobe Illustrator 17.0.0, SVG Export Plug-In . SVG Version: 6.00 Build 0)  -->
<!DOCTYPE svg PUBLIC "-//W3C//DTD SVG 1.1//EN" "http://www.w3.org/Graphics/SVG/1.1/DTD/svg11.dtd">
<svg version="1.1" id="Layer_1" xmlns="http://www.w3.org/2000/svg" xmlns:xlink="http://www.w3.org/1999/xlink" x="0px" y="0px"
	 width="48px" height="48px" viewBox="0 0 48 48" enable-background="new 0 0 48 48" xml:space="preserve">
<g>
	<circle fill="#010101" cx="7" cy="5" r="1"/>
	<circle fill="#010101" cx="11" cy="5" r="1"/>
	<circle fill="#010101" cx="15" cy="5" r="1"/>
	<path fill="#010101" d="M17,32H5c-1.654,0-3-1.346-3-3V10h38v7c0,0.552,0.448,1,1,1s1-0.448,1-1V5c0-2.757-2.243-5-5-5H5
		C2.243,0,0,2.243,0,5v24c0,2.757,2.243,5,5,5h12c0.552,0,1-0.448,1-1S17.552,32,17,32z M5,2h32c1.654,0,3,1.346,3,3v3H2V5
		C2,3.346,3.346,2,5,2z"/>
	<path fill="#010101" d="M35,22c-7.169,0-13,5.832-13,13c0,7.169,5.831,13,13,13c7.168,0,13-5.831,13-13C48,27.832,42.168,22,35,22z
		 M35,46c-6.065,0-11-4.935-11-11s4.935-11,11-11s11,4.935,11,11S41.065,46,35,46z"/>
	<path fill="#010101" d="M36.413,34.999l4.243-4.242c0.391-0.39,0.391-1.023,0-1.414s-1.023-0.391-1.414,0l-4.243,4.243
		l-4.242-4.242c-0.391-0.391-1.023-0.391-1.414,0s-0.391,1.024,0,1.414l4.242,4.241l-4.243,4.243c-0.391,0.39-0.391,1.023,0,1.414
		c0.195,0.195,0.451,0.293,0.707,0.293s0.512-0.097,0.707-0.294l4.243-4.242l4.244,4.243c0.195,0.195,0.451,0.293,0.707,0.293
		s0.511-0.097,0.707-0.292c0.391-0.391,0.391-1.024,0-1.414L36.413,34.999z"/>
</g>
</svg>
