<?xml version="1.0" encoding="utf-8"?>
<!-- Generator: Adobe Illustrator 17.0.0, SVG Export Plug-In . SVG Version: 6.00 Build 0)  -->
<!DOCTYPE svg PUBLIC "-//W3C//DTD SVG 1.1//EN" "http://www.w3.org/Graphics/SVG/1.1/DTD/svg11.dtd">
<svg version="1.1" xmlns="http://www.w3.org/2000/svg" xmlns:xlink="http://www.w3.org/1999/xlink" x="0px" y="0px" width="60px"
	 height="60px" viewBox="0 0 60 60" enable-background="new 0 0 60 60" xml:space="preserve">
<g id="Layer_3">
	<g>
		<path fill="#010101" d="M19.155,34.535c-0.184-0.29-0.206-0.653-0.059-0.963L27.894,15H1c-0.553,0-1,0.448-1,1v28
			c0,0.552,0.447,1,1,1h27V35h-8C19.657,35,19.338,34.824,19.155,34.535z"/>
		<path fill="#010101" d="M57,21h-7v-5c0-0.552-0.447-1-1-1H30v12h8c0.347,0,0.668,0.18,0.851,0.474
			c0.183,0.295,0.199,0.663,0.044,0.973L30.618,45H49c0.553,0,1-0.448,1-1v-5h7c0.553,0,1-0.448,1-1V22C58,21.448,57.553,21,57,21z"
			/>
	</g>
</g>
<g id="nyt_x5F_exporter_x5F_info" display="none">
</g>
</svg>
