<?xml version="1.0" encoding="utf-8"?>
<!-- Generator: Adobe Illustrator 17.0.0, SVG Export Plug-In . SVG Version: 6.00 Build 0)  -->
<!DOCTYPE svg PUBLIC "-//W3C//DTD SVG 1.1//EN" "http://www.w3.org/Graphics/SVG/1.1/DTD/svg11.dtd">
<svg version="1.1" xmlns="http://www.w3.org/2000/svg" xmlns:xlink="http://www.w3.org/1999/xlink" x="0px" y="0px" width="60px"
	 height="60px" viewBox="0 0 60 60" enable-background="new 0 0 60 60" xml:space="preserve">
<g id="Layer_3">
	<g>
		<path fill="#010101" d="M59,30c0.553,0,1-0.448,1-1c0-0.552-0.447-1-1-1h-9v-8h9c0.553,0,1-0.448,1-1c0-0.552-0.447-1-1-1h-9v-5
			c0-1.654-1.346-3-3-3h-7V1c0-0.552-0.447-1-1-1c-0.553,0-1,0.448-1,1v9h-8V1c0-0.552-0.447-1-1-1c-0.553,0-1,0.448-1,1v9h-8V1
			c0-0.552-0.447-1-1-1c-0.553,0-1,0.448-1,1v9h-5c-1.654,0-3,1.346-3,3v3H1c-0.553,0-1,0.448-1,1c0,0.552,0.447,1,1,1h9v8H1
			c-0.553,0-1,0.448-1,1c0,0.552,0.447,1,1,1h9v8H1c-0.553,0-1,0.448-1,1c0,0.552,0.447,1,1,1h9v9c0,1.654,1.346,3,3,3h7v9
			c0,0.552,0.447,1,1,1c0.553,0,1-0.448,1-1v-9h8v9c0,0.552,0.447,1,1,1c0.553,0,1-0.448,1-1v-9h8v9c0,0.552,0.447,1,1,1
			c0.553,0,1-0.448,1-1v-9h5c1.654,0,3-1.346,3-3v-7h9c0.553,0,1-0.448,1-1c0-0.552-0.447-1-1-1h-9v-8H59z M46,40
			c0,3.309-2.691,6-6,6H20c-3.309,0-6-2.691-6-6V20c0-3.309,2.691-6,6-6h20c3.309,0,6,2.691,6,6V40z"/>
		<path fill="#010101" d="M23,24h10c0.553,0,1-0.448,1-1c0-0.552-0.447-1-1-1H23c-0.553,0-1,0.448-1,1C22,23.552,22.447,24,23,24z"
			/>
		<path fill="#010101" d="M29,26h-6c-0.553,0-1,0.448-1,1c0,0.552,0.447,1,1,1h6c0.553,0,1-0.448,1-1C30,26.448,29.553,26,29,26z"/>
		<path fill="#010101" d="M37,36h-6c-0.553,0-1,0.448-1,1c0,0.552,0.447,1,1,1h6c0.553,0,1-0.448,1-1C38,36.448,37.553,36,37,36z"/>
	</g>
</g>
<g id="nyt_x5F_exporter_x5F_info" display="none">
</g>
</svg>
