<?xml version="1.0" encoding="utf-8"?>
<!-- Generator: Adobe Illustrator 17.0.0, SVG Export Plug-In . SVG Version: 6.00 Build 0)  -->
<!DOCTYPE svg PUBLIC "-//W3C//DTD SVG 1.1//EN" "http://www.w3.org/Graphics/SVG/1.1/DTD/svg11.dtd">
<svg version="1.1" xmlns="http://www.w3.org/2000/svg" xmlns:xlink="http://www.w3.org/1999/xlink" x="0px" y="0px" width="60px"
	 height="60px" viewBox="0 0 60 60" enable-background="new 0 0 60 60" xml:space="preserve">
<g id="Layer_3">
	<g>
		<path fill="#010101" d="M55,40H5c-2.757,0-5,2.243-5,5v14c0,0.552,0.447,1,1,1h58c0.553,0,1-0.448,1-1V45
			C60,42.243,57.757,40,55,40z M13,52H7c-0.553,0-1-0.448-1-1c0-0.552,0.447-1,1-1h6c0.553,0,1,0.448,1,1C14,51.552,13.553,52,13,52
			z M21,48H7c-0.553,0-1-0.448-1-1c0-0.552,0.447-1,1-1h14c0.553,0,1,0.448,1,1C22,47.552,21.553,48,21,48z M54,50H30v-6h24V50z"/>
		<path fill="#010101" d="M7,38h46c2.757,0,5-2.243,5-5V5c0-2.757-2.243-5-5-5H7C4.243,0,2,2.243,2,5v28C2,35.757,4.243,38,7,38z
			 M8,6h44v26H8V6z"/>
	</g>
</g>
<g id="nyt_x5F_exporter_x5F_info" display="none">
</g>
</svg>
