<?xml version="1.0" encoding="utf-8"?>
<!-- Generator: Adobe Illustrator 17.0.0, SVG Export Plug-In . SVG Version: 6.00 Build 0)  -->
<!DOCTYPE svg PUBLIC "-//W3C//DTD SVG 1.1//EN" "http://www.w3.org/Graphics/SVG/1.1/DTD/svg11.dtd">
<svg version="1.1" xmlns="http://www.w3.org/2000/svg" xmlns:xlink="http://www.w3.org/1999/xlink" x="0px" y="0px" width="60px"
	 height="60px" viewBox="0 0 60 60" enable-background="new 0 0 60 60" xml:space="preserve">
<g id="Layer_3">
	<g>
		<path fill="#010101" d="M59,0H1C0.447,0,0,0.448,0,1v58c0,0.552,0.447,1,1,1h58c0.553,0,1-0.448,1-1V1C60,0.448,59.553,0,59,0z
			 M30,54C16.767,54,6,43.233,6,30C6,16.767,16.767,6,30,6s24,10.767,24,24C54,43.233,43.233,54,30,54z"/>
		<path fill="#010101" d="M30,23c-3.859,0-7,3.14-7,7c0,3.86,3.141,7,7,7c3.859,0,7-3.14,7-7C37,26.14,33.859,23,30,23z M30,35
			c-2.757,0-5-2.243-5-5c0-2.757,2.243-5,5-5c2.757,0,5,2.243,5,5C35,32.757,32.757,35,30,35z"/>
		<circle fill="#010101" cx="30" cy="30" r="3"/>
		<path fill="#010101" d="M30,12c-0.553,0-1,0.448-1,1c0,0.552,0.447,1,1,1c8.822,0,16,7.178,16,16c0,0.552,0.447,1,1,1
			c0.553,0,1-0.448,1-1C48,20.075,39.925,12,30,12z"/>
		<path fill="#010101" d="M30,46c-8.822,0-16-7.178-16-16c0-0.552-0.447-1-1-1c-0.553,0-1,0.448-1,1c0,9.925,8.075,18,18,18
			c0.553,0,1-0.448,1-1C31,46.448,30.553,46,30,46z"/>
		<path fill="#010101" d="M30,16c-0.553,0-1,0.448-1,1c0,0.552,0.447,1,1,1c6.617,0,12,5.383,12,12c0,0.552,0.447,1,1,1
			c0.553,0,1-0.448,1-1C44,22.28,37.72,16,30,16z"/>
		<path fill="#010101" d="M30,42c-6.617,0-12-5.383-12-12c0-0.552-0.447-1-1-1c-0.553,0-1,0.448-1,1c0,7.72,6.28,14,14,14
			c0.553,0,1-0.448,1-1C31,42.448,30.553,42,30,42z"/>
	</g>
</g>
<g id="nyt_x5F_exporter_x5F_info" display="none">
</g>
</svg>
