<?xml version="1.0" encoding="utf-8"?>
<!-- Generator: Adobe Illustrator 17.0.0, SVG Export Plug-In . SVG Version: 6.00 Build 0)  -->
<!DOCTYPE svg PUBLIC "-//W3C//DTD SVG 1.1//EN" "http://www.w3.org/Graphics/SVG/1.1/DTD/svg11.dtd">
<svg version="1.1" xmlns="http://www.w3.org/2000/svg" xmlns:xlink="http://www.w3.org/1999/xlink" x="0px" y="0px" width="60px"
	 height="60px" viewBox="0 0 60 60" enable-background="new 0 0 60 60" xml:space="preserve">
<g id="Layer_3">
	<g>
		<path fill="#010101" d="M59,0H49H11H9C8.734,0,8.48,0.106,8.293,0.293l-8,8C0.105,8.481,0,8.735,0,9v50c0,0.552,0.447,1,1,1h10h38
			h10c0.553,0,1-0.448,1-1V1C60,0.448,59.553,0,59,0z M12,2h36v10H12V2z M41,29c0,6.065-4.935,11-11,11c-6.065,0-11-4.935-11-11
			c0-6.065,4.935-11,11-11C36.065,18,41,22.935,41,29z M48,58H12v-6h36V58z M49,48H37c-0.553,0-1-0.448-1-1c0-0.552,0.447-1,1-1h12
			c0.553,0,1,0.448,1,1C50,47.552,49.553,48,49,48z"/>
		<path fill="#010101" d="M25,25c-0.553,0-1,0.448-1,1v6c0,0.552,0.447,1,1,1c0.553,0,1-0.448,1-1v-6C26,25.448,25.553,25,25,25z"/>
		<circle fill="#010101" cx="30" cy="29" r="2"/>
	</g>
</g>
<g id="nyt_x5F_exporter_x5F_info" display="none">
</g>
</svg>
