<?xml version="1.0" encoding="utf-8"?>
<!-- Generator: Adobe Illustrator 17.0.0, SVG Export Plug-In . SVG Version: 6.00 Build 0)  -->
<!DOCTYPE svg PUBLIC "-//W3C//DTD SVG 1.1//EN" "http://www.w3.org/Graphics/SVG/1.1/DTD/svg11.dtd">
<svg version="1.1" xmlns="http://www.w3.org/2000/svg" xmlns:xlink="http://www.w3.org/1999/xlink" x="0px" y="0px" width="60px"
	 height="60px" viewBox="0 0 60 60" enable-background="new 0 0 60 60" xml:space="preserve">
<g id="Layer_3">
	<g>
		<path fill="#010101" d="M47,2H13C9.691,2,7,4.691,7,8v44c0,3.309,2.691,6,6,6h34c3.309,0,6-2.691,6-6V8C53,4.691,50.309,2,47,2z
			 M31,51c0,0.551-0.448,1-1,1H14c-0.552,0-1-0.449-1-1V41c0-0.115,0.027-0.224,0.064-0.33l0.033-0.082
			c0.046-0.101,0.106-0.195,0.184-0.276c0.003-0.003,0.006-0.008,0.008-0.012l10.004-10.007c0.383-0.383,1.031-0.383,1.414,0
			C24.898,30.485,25,30.729,25,31s-0.102,0.515-0.293,0.707l-5.981,5.982h0l-2.92,2.92l14.546,5.455C30.739,46.21,31,46.586,31,47
			V51z M44,50c-0.553,0-1-0.448-1-1c0-0.552,0.447-1,1-1c0.553,0,1,0.448,1,1C45,49.552,44.553,50,44,50z M30,42
			c-3.606,0-6.946-1.136-9.7-3.058l5.821-5.821C26.687,32.554,27,31.801,27,31c0-0.801-0.313-1.554-0.879-2.121
			c-1.133-1.134-3.109-1.134-4.242,0l-5.82,5.822C14.136,31.947,13,28.606,13,25c0-9.374,7.626-17,17-17s17,7.626,17,17
			S39.374,42,30,42z"/>
		<circle fill="#010101" cx="30" cy="25" r="3"/>
	</g>
</g>
<g id="nyt_x5F_exporter_x5F_info" display="none">
</g>
</svg>
