<?xml version="1.0" encoding="utf-8"?>
<!-- Generator: Adobe Illustrator 17.0.0, SVG Export Plug-In . SVG Version: 6.00 Build 0)  -->
<!DOCTYPE svg PUBLIC "-//W3C//DTD SVG 1.1//EN" "http://www.w3.org/Graphics/SVG/1.1/DTD/svg11.dtd">
<svg version="1.1" xmlns="http://www.w3.org/2000/svg" xmlns:xlink="http://www.w3.org/1999/xlink" x="0px" y="0px" width="60px"
	 height="60px" viewBox="0 0 60 60" enable-background="new 0 0 60 60" xml:space="preserve">
<g id="Layer_3">
	<g>
		<path fill="#010101" d="M55,4H5C2.243,4,0,6.243,0,9v31h60V9C60,6.243,57.757,4,55,4z"/>
		<path fill="#010101" d="M0,47c0,2.757,2.243,5,5,5h24v4H13c-0.553,0-1,0.448-1,1c0,0.552,0.447,1,1,1h36c0.553,0,1-0.448,1-1
			c0-0.552-0.447-1-1-1H31v-4h24c2.757,0,5-2.243,5-5v-5H0V47z M30,44c1.103,0,2,0.897,2,2s-0.897,2-2,2s-2-0.897-2-2
			S28.897,44,30,44z"/>
	</g>
</g>
<g id="nyt_x5F_exporter_x5F_info" display="none">
</g>
</svg>
