<?xml version="1.0" encoding="utf-8"?>
<!-- Generator: Adobe Illustrator 17.0.0, SVG Export Plug-In . SVG Version: 6.00 Build 0)  -->
<!DOCTYPE svg PUBLIC "-//W3C//DTD SVG 1.1//EN" "http://www.w3.org/Graphics/SVG/1.1/DTD/svg11.dtd">
<svg version="1.1" xmlns="http://www.w3.org/2000/svg" xmlns:xlink="http://www.w3.org/1999/xlink" x="0px" y="0px" width="60px"
	 height="60px" viewBox="0 0 60 60" enable-background="new 0 0 60 60" xml:space="preserve">
<g id="Layer_3">
	<g>
		<path fill="#010101" d="M45,0H15c-2.757,0-5,2.243-5,5v50c0,2.757,2.243,5,5,5h30c2.757,0,5-2.243,5-5V5C50,2.243,47.757,0,45,0z
			 M30,54c-6.065,0-11-4.935-11-11c0-6.065,4.935-11,11-11c6.065,0,11,4.935,11,11C41,49.065,36.065,54,30,54z M44,28H16V6h28V28z"
			/>
		<path fill="#010101" d="M30,36c-3.859,0-7,3.14-7,7c0,3.86,3.141,7,7,7c3.859,0,7-3.14,7-7C37,39.14,33.859,36,30,36z"/>
	</g>
</g>
<g id="nyt_x5F_exporter_x5F_info" display="none">
</g>
</svg>
