<?xml version="1.0" encoding="utf-8"?>
<!-- Generator: Adobe Illustrator 17.0.0, SVG Export Plug-In . SVG Version: 6.00 Build 0)  -->
<!DOCTYPE svg PUBLIC "-//W3C//DTD SVG 1.1//EN" "http://www.w3.org/Graphics/SVG/1.1/DTD/svg11.dtd">
<svg version="1.1" xmlns="http://www.w3.org/2000/svg" xmlns:xlink="http://www.w3.org/1999/xlink" x="0px" y="0px" width="60px"
	 height="60px" viewBox="0 0 60 60" enable-background="new 0 0 60 60" xml:space="preserve">
<g id="Layer_3">
	<path fill="#010101" d="M49,40h-3v-3c0-1.654-1.346-3-3-3h-8c-1.654,0-3,1.346-3,3v3h-8V19.941c4.493-0.5,8-4.317,8-8.941
		c0-4.962-4.037-9-9-9c-4.963,0-9,4.038-9,9c0,4.624,3.507,8.441,8,8.941V40H11c-0.553,0-1,0.448-1,1v16c0,0.552,0.447,1,1,1h38
		c0.553,0,1-0.448,1-1V41C50,40.448,49.553,40,49,40z M43,48H17c-0.553,0-1-0.448-1-1c0-0.552,0.447-1,1-1h26c0.553,0,1,0.448,1,1
		C44,47.552,43.553,48,43,48z"/>
</g>
<g id="nyt_x5F_exporter_x5F_info" display="none">
</g>
</svg>
