<?xml version="1.0" encoding="utf-8"?>
<!-- Generator: Adobe Illustrator 17.0.0, SVG Export Plug-In . SVG Version: 6.00 Build 0)  -->
<!DOCTYPE svg PUBLIC "-//W3C//DTD SVG 1.1//EN" "http://www.w3.org/Graphics/SVG/1.1/DTD/svg11.dtd">
<svg version="1.1" xmlns="http://www.w3.org/2000/svg" xmlns:xlink="http://www.w3.org/1999/xlink" x="0px" y="0px" width="60px"
	 height="60px" viewBox="0 0 60 60" enable-background="new 0 0 60 60" xml:space="preserve">
<g id="Layer_3">
	<path fill="#010101" d="M46,24c-3.692,0-7.15,1.417-9.784,4H36v-3c0-0.552-0.447-1-1-1h-3v-7c0-4.962-4.037-9-9-9h-8
		c-0.553,0-1,0.448-1,1c0,0.552,0.447,1,1,1h8c3.859,0,7,3.14,7,7v7h-5c-0.553,0-1,0.448-1,1v3h-0.216c-2.634-2.583-6.092-4-9.784-4
		C6.28,24,0,30.28,0,38c0,7.72,6.28,14,14,14c3.692,0,7.15-1.417,9.784-4h12.432c2.634,2.583,6.092,4,9.784,4c7.72,0,14-6.28,14-14
		C60,30.28,53.72,24,46,24z M18,39h-4v4c0,0.552-0.447,1-1,1c-0.553,0-1-0.448-1-1v-4H8c-0.553,0-1-0.448-1-1c0-0.552,0.447-1,1-1h4
		v-4c0-0.552,0.447-1,1-1c0.553,0,1,0.448,1,1v4h4c0.553,0,1,0.448,1,1C19,38.552,18.553,39,18,39z M26,26h8v2h-8V26z M27,44h-2
		c-0.553,0-1-0.448-1-1c0-0.552,0.447-1,1-1h2c0.553,0,1,0.448,1,1C28,43.552,27.553,44,27,44z M35,44h-2c-0.553,0-1-0.448-1-1
		c0-0.552,0.447-1,1-1h2c0.553,0,1,0.448,1,1C36,43.552,35.553,44,35,44z M47,30.5c1.379,0,2.5,1.122,2.5,2.5
		c0,1.378-1.121,2.5-2.5,2.5c-1.379,0-2.5-1.122-2.5-2.5C44.5,31.622,45.621,30.5,47,30.5z M42,40.5c-1.379,0-2.5-1.122-2.5-2.5
		c0-1.378,1.121-2.5,2.5-2.5c1.379,0,2.5,1.122,2.5,2.5C44.5,39.378,43.379,40.5,42,40.5z M47,45.5c-1.379,0-2.5-1.122-2.5-2.5
		c0-1.378,1.121-2.5,2.5-2.5c1.379,0,2.5,1.122,2.5,2.5C49.5,44.378,48.379,45.5,47,45.5z M52,40.5c-1.379,0-2.5-1.122-2.5-2.5
		c0-1.378,1.121-2.5,2.5-2.5c1.379,0,2.5,1.122,2.5,2.5C54.5,39.378,53.379,40.5,52,40.5z"/>
</g>
<g id="nyt_x5F_exporter_x5F_info" display="none">
</g>
</svg>
