<?xml version="1.0" encoding="utf-8"?>
<!-- Generator: Adobe Illustrator 17.0.0, SVG Export Plug-In . SVG Version: 6.00 Build 0)  -->
<!DOCTYPE svg PUBLIC "-//W3C//DTD SVG 1.1//EN" "http://www.w3.org/Graphics/SVG/1.1/DTD/svg11.dtd">
<svg version="1.1" xmlns="http://www.w3.org/2000/svg" xmlns:xlink="http://www.w3.org/1999/xlink" x="0px" y="0px" width="60px"
	 height="60px" viewBox="0 0 60 60" enable-background="new 0 0 60 60" xml:space="preserve">
<g id="Layer_3">
	<path fill="#010101" d="M57,34H10v-4c0-3.269,2.493-8,7-8h33c6.565,0,10-4.527,10-9c0-4.473-3.435-9-10-9H33c-1.458,0-3-1.542-3-3
		c0-0.552-0.447-1-1-1c-0.553,0-1,0.448-1,1c0,2.57,2.43,5,5,5h17c5.496,0,8,3.628,8,7c0,3.372-2.504,7-8,7H17
		c-5.384,0-9,5.171-9,10v4H1c-0.553,0-1,0.448-1,1v24c0,0.552,0.447,1,1,1h56c0.553,0,1-0.448,1-1V35C58,34.448,57.553,34,57,34z
		 M7,56c-0.553,0-1-0.448-1-1c0-0.552,0.447-1,1-1c0.553,0,1,0.448,1,1C8,55.552,7.553,56,7,56z M47,58H11v-4h36V58z M51,56
		c-0.553,0-1-0.448-1-1c0-0.552,0.447-1,1-1c0.553,0,1,0.448,1,1C52,55.552,51.553,56,51,56z M51,50H7c-0.553,0-1-0.448-1-1
		c0-0.552,0.447-1,1-1h44c0.553,0,1,0.448,1,1C52,49.552,51.553,50,51,50z M51,46H7c-0.553,0-1-0.448-1-1c0-0.552,0.447-1,1-1h44
		c0.553,0,1,0.448,1,1C52,45.552,51.553,46,51,46z M51,42H7c-0.553,0-1-0.448-1-1c0-0.552,0.447-1,1-1h44c0.553,0,1,0.448,1,1
		C52,41.552,51.553,42,51,42z"/>
</g>
<g id="nyt_x5F_exporter_x5F_info" display="none">
</g>
</svg>
