<?xml version="1.0" encoding="utf-8"?>
<!-- Generator: Adobe Illustrator 17.0.0, SVG Export Plug-In . SVG Version: 6.00 Build 0)  -->
<!DOCTYPE svg PUBLIC "-//W3C//DTD SVG 1.1//EN" "http://www.w3.org/Graphics/SVG/1.1/DTD/svg11.dtd">
<svg version="1.1" xmlns="http://www.w3.org/2000/svg" xmlns:xlink="http://www.w3.org/1999/xlink" x="0px" y="0px" width="60px"
	 height="60px" viewBox="0 0 60 60" enable-background="new 0 0 60 60" xml:space="preserve">
<g id="Layer_3">
	<g>
		<rect x="5" y="32" fill="#010101" width="8" height="6"/>
		<rect x="47" y="24" fill="#010101" width="8" height="6"/>
		<rect x="5" y="24" fill="#010101" width="8" height="6"/>
		<rect x="47" y="32" fill="#010101" width="8" height="6"/>
		<path fill="#010101" d="M50,0H10C7.243,0,5,2.243,5,5v17h8V6h34v16h8V5C55,2.243,52.757,0,50,0z"/>
		<path fill="#010101" d="M47,44H13v-4H5v15c0,2.757,2.243,5,5,5h40c2.757,0,5-2.243,5-5V40h-8V44z M16,52c-0.553,0-1-0.448-1-1
			c0-0.552,0.447-1,1-1c0.553,0,1,0.448,1,1C17,51.552,16.553,52,16,52z M20,52c-0.553,0-1-0.448-1-1c0-0.552,0.447-1,1-1
			c0.553,0,1,0.448,1,1C21,51.552,20.553,52,20,52z M35,52c0,1.103-0.898,2-2,2h-6c-1.103,0-2-0.897-2-2v-2c0-1.103,0.897-2,2-2h6
			c1.102,0,2,0.897,2,2V52z M40,52c-0.553,0-1-0.448-1-1c0-0.552,0.447-1,1-1c0.553,0,1,0.448,1,1C41,51.552,40.553,52,40,52z
			 M44,52c-0.553,0-1-0.448-1-1c0-0.552,0.447-1,1-1c0.553,0,1,0.448,1,1C45,51.552,44.553,52,44,52z"/>
		<path fill="#010101" d="M19,20h22c0.553,0,1-0.448,1-1c0-0.552-0.447-1-1-1H19c-0.553,0-1,0.448-1,1C18,19.552,18.447,20,19,20z"
			/>
		<path fill="#010101" d="M19,24h22c0.553,0,1-0.448,1-1c0-0.552-0.447-1-1-1H19c-0.553,0-1,0.448-1,1C18,23.552,18.447,24,19,24z"
			/>
		<path fill="#010101" d="M19,28h22c0.553,0,1-0.448,1-1c0-0.552-0.447-1-1-1H19c-0.553,0-1,0.448-1,1C18,27.552,18.447,28,19,28z"
			/>
		<path fill="#010101" d="M19,32h22c0.553,0,1-0.448,1-1c0-0.552-0.447-1-1-1H19c-0.553,0-1,0.448-1,1C18,31.552,18.447,32,19,32z"
			/>
		<path fill="#010101" d="M19,36h22c0.553,0,1-0.448,1-1c0-0.552-0.447-1-1-1H19c-0.553,0-1,0.448-1,1C18,35.552,18.447,36,19,36z"
			/>
		<path fill="#010101" d="M19,16h13c0.553,0,1-0.448,1-1c0-0.552-0.447-1-1-1H19c-0.553,0-1,0.448-1,1C18,15.552,18.447,16,19,16z"
			/>
	</g>
</g>
<g id="nyt_x5F_exporter_x5F_info" display="none">
</g>
</svg>
