<?xml version="1.0" encoding="utf-8"?>
<!-- Generator: Adobe Illustrator 17.0.0, SVG Export Plug-In . SVG Version: 6.00 Build 0)  -->
<!DOCTYPE svg PUBLIC "-//W3C//DTD SVG 1.1//EN" "http://www.w3.org/Graphics/SVG/1.1/DTD/svg11.dtd">
<svg version="1.1" xmlns="http://www.w3.org/2000/svg" xmlns:xlink="http://www.w3.org/1999/xlink" x="0px" y="0px" width="60px"
	 height="60px" viewBox="0 0 60 60" enable-background="new 0 0 60 60" xml:space="preserve">
<g id="Layer_3">
	<g>
		<path fill="#010101" d="M59,52h-1H2H1H0v1c0,2.757,2.243,5,5,5h50c2.757,0,5-2.243,5-5v-1H59z"/>
		<path fill="#010101" d="M2.443,50h55.113H59h0.693l-5.25-14H53h-0.693H7.693H7H5.557l-5.25,14H1H2.443z M21.279,40h17.441l2.667,8
			H18.612L21.279,40z"/>
		<path fill="#010101" d="M8,34h44h1h1V7c0-2.757-2.243-5-5-5H11C8.243,2,6,4.243,6,7v27h1H8z M10,6h40v26H10V6z"/>
	</g>
</g>
<g id="nyt_x5F_exporter_x5F_info" display="none">
</g>
</svg>
