<?xml version="1.0" encoding="utf-8"?>
<!-- Generator: Adobe Illustrator 17.0.0, SVG Export Plug-In . SVG Version: 6.00 Build 0)  -->
<!DOCTYPE svg PUBLIC "-//W3C//DTD SVG 1.1//EN" "http://www.w3.org/Graphics/SVG/1.1/DTD/svg11.dtd">
<svg version="1.1" xmlns="http://www.w3.org/2000/svg" xmlns:xlink="http://www.w3.org/1999/xlink" x="0px" y="0px" width="60px"
	 height="60px" viewBox="0 0 60 60" enable-background="new 0 0 60 60" xml:space="preserve">
<g id="Layer_3">
	<g>
		<path fill="#010101" d="M59,44H35c-0.553,0-1,0.448-1,1v1h-8v-1c0-0.552-0.447-1-1-1H1c-0.553,0-1,0.448-1,1v4
			c0,2.757,2.243,5,5,5h50c2.757,0,5-2.243,5-5v-4C60,44.448,59.553,44,59,44z"/>
		<path fill="#010101" d="M3,42h54c0.553,0,1-0.448,1-1V11c0-2.757-2.243-5-5-5H7c-2.757,0-5,2.243-5,5v30C2,41.552,2.447,42,3,42z
			 M6,10h48v28H6V10z"/>
	</g>
</g>
<g id="nyt_x5F_exporter_x5F_info" display="none">
</g>
</svg>
