<?xml version="1.0" encoding="utf-8"?>
<!-- Generator: Adobe Illustrator 17.0.0, SVG Export Plug-In . SVG Version: 6.00 Build 0)  -->
<!DOCTYPE svg PUBLIC "-//W3C//DTD SVG 1.1//EN" "http://www.w3.org/Graphics/SVG/1.1/DTD/svg11.dtd">
<svg version="1.1" xmlns="http://www.w3.org/2000/svg" xmlns:xlink="http://www.w3.org/1999/xlink" x="0px" y="0px" width="60px"
	 height="60px" viewBox="0 0 60 60" enable-background="new 0 0 60 60" xml:space="preserve">
<g id="Layer_3">
	<path fill="#010101" d="M39,0H21c-6.065,0-11,4.935-11,11v38c0,6.065,4.935,11,11,11h18c6.065,0,11-4.935,11-11V11
		C50,4.935,45.065,0,39,0z M24,6h12c0.553,0,1,0.448,1,1c0,0.552-0.447,1-1,1H24c-0.553,0-1-0.448-1-1C23,6.448,23.447,6,24,6z
		 M24.5,52.5h-3v-3h3V52.5z M24.5,46.5h-3v-3h3V46.5z M24.5,40.5h-3v-3h3V40.5z M31.5,52.5h-3v-3h3V52.5z M31.5,46.5h-3v-3h3V46.5z
		 M31.5,40.5h-3v-3h3V40.5z M38.5,52.5h-3v-3h3V52.5z M38.5,46.5h-3v-3h3V46.5z M38.5,40.5h-3v-3h3V40.5z M44,34H16V10h28V34z"/>
</g>
<g id="nyt_x5F_exporter_x5F_info" display="none">
</g>
</svg>
