<?xml version="1.0" encoding="utf-8"?>
<!-- Generator: Adobe Illustrator 17.0.0, SVG Export Plug-In . SVG Version: 6.00 Build 0)  -->
<!DOCTYPE svg PUBLIC "-//W3C//DTD SVG 1.1//EN" "http://www.w3.org/Graphics/SVG/1.1/DTD/svg11.dtd">
<svg version="1.1" xmlns="http://www.w3.org/2000/svg" xmlns:xlink="http://www.w3.org/1999/xlink" x="0px" y="0px" width="60px"
	 height="60px" viewBox="0 0 60 60" enable-background="new 0 0 60 60" xml:space="preserve">
<g id="Layer_3">
	<path fill="#010101" d="M50,5H10c-2.268,0-5.444,1.42-7.698,8.184C0.817,17.636,0,23.608,0,30c0,12.444,3.092,25,10,25h40
		c6.908,0,10-12.556,10-25C60,17.556,56.908,5,50,5z M20,30c0,0.552-0.447,1-1,1c-0.553,0-1-0.448-1-1V16c0-0.552,0.447-1,1-1
		c0.553,0,1,0.448,1,1V30z M36,46c0,0.552-0.447,1-1,1H25c-0.553,0-1-0.448-1-1v-7c0-4.103,3.019-6.25,6-6.25
		c2.981,0,6,2.147,6,6.25V46z M42,30c0,0.552-0.447,1-1,1c-0.553,0-1-0.448-1-1V16c0-0.552,0.447-1,1-1c0.553,0,1,0.448,1,1V30z"/>
</g>
<g id="nyt_x5F_exporter_x5F_info" display="none">
</g>
</svg>
