<?xml version="1.0" encoding="utf-8"?>
<!-- Generator: Adobe Illustrator 17.0.0, SVG Export Plug-In . SVG Version: 6.00 Build 0)  -->
<!DOCTYPE svg PUBLIC "-//W3C//DTD SVG 1.1//EN" "http://www.w3.org/Graphics/SVG/1.1/DTD/svg11.dtd">
<svg version="1.1" xmlns="http://www.w3.org/2000/svg" xmlns:xlink="http://www.w3.org/1999/xlink" x="0px" y="0px" width="60px"
	 height="60px" viewBox="0 0 60 60" enable-background="new 0 0 60 60" xml:space="preserve">
<g id="Layer_3">
	<path fill="#010101" d="M50,20h-9V1c0-0.552-0.447-1-1-1s-1,0.448-1,1v19H21V1c0-0.552-0.447-1-1-1s-1,0.448-1,1v19h-9
		c-0.553,0-1,0.448-1,1c0,0.552,0.447,1,1,1h3v19c0,4.962,4.037,9,9,9h1v5c0,0.552,0.447,1,1,1h5v3c0,0.552,0.447,1,1,1s1-0.448,1-1
		v-3h5c0.553,0,1-0.448,1-1v-5h1c4.963,0,9-4.038,9-9V22h3c0.553,0,1-0.448,1-1C51,20.448,50.553,20,50,20z"/>
</g>
<g id="nyt_x5F_exporter_x5F_info" display="none">
</g>
</svg>
