<?xml version="1.0" encoding="utf-8"?>
<!-- Generator: Adobe Illustrator 17.0.0, SVG Export Plug-In . SVG Version: 6.00 Build 0)  -->
<!DOCTYPE svg PUBLIC "-//W3C//DTD SVG 1.1//EN" "http://www.w3.org/Graphics/SVG/1.1/DTD/svg11.dtd">
<svg version="1.1" xmlns="http://www.w3.org/2000/svg" xmlns:xlink="http://www.w3.org/1999/xlink" x="0px" y="0px" width="60px"
	 height="60px" viewBox="0 0 60 60" enable-background="new 0 0 60 60" xml:space="preserve">
<g id="Layer_3">
	<path fill="#010101" d="M55.945,11.293c-0.391-0.391-1.023-0.391-1.414,0l-6.293,6.293L38.652,8l6.293-6.293
		c0.391-0.391,0.391-1.023,0-1.414c-0.391-0.391-1.023-0.391-1.414,0l-6.293,6.293l-4.293-4.293c-0.391-0.391-1.023-0.391-1.414,0
		L20.016,13.808c-4.663,4.664-5.024,12.012-1.106,17.106l-4.379,4.379c-0.391,0.391-0.391,1.023,0,1.414l1.793,1.793L5.531,49.293
		c-2.358,2.359-2.358,6.055,0,8.414c2.359,2.359,6.055,2.359,8.414,0l8.001-8c1.065-1.067,2.519-1.066,3.585,0
		c1.089,1.089,1.089,2.497,0,3.586l-5,5c-0.391,0.391-0.391,1.023,0,1.414C20.726,59.902,20.982,60,21.238,60
		c0.256,0,0.512-0.098,0.707-0.293l5-5c1.858-1.857,1.858-4.555,0-6.414c-1.807-1.808-4.609-1.808-6.414,0l-8,8
		c-1.566,1.566-4.02,1.565-5.586,0c-1.592-1.592-1.592-3.994,0-5.586l10.793-10.793l1.793,1.793C19.726,41.902,19.982,42,20.238,42
		c0.256,0,0.512-0.098,0.707-0.293l4.379-4.379c2.255,1.736,5.005,2.687,7.914,2.687c3.481,0,6.746-1.347,9.192-3.793l11.515-11.515
		c0.391-0.391,0.391-1.023,0-1.414L49.652,19l6.293-6.293C56.336,12.316,56.336,11.684,55.945,11.293z M31.238,30
		c-2.757,0-5-2.243-5-5c0-2.757,2.243-5,5-5s5,2.243,5,5C36.238,27.757,33.995,30,31.238,30z M46.945,24.707
		C46.75,24.902,46.494,25,46.238,25c-0.256,0-0.512-0.098-0.707-0.293l-14-14c-0.391-0.391-0.391-1.023,0-1.414
		c0.391-0.391,1.023-0.391,1.414,0l14,14C47.336,23.684,47.336,24.316,46.945,24.707z"/>
</g>
<g id="nyt_x5F_exporter_x5F_info" display="none">
</g>
</svg>
