<?xml version="1.0" encoding="utf-8"?>
<!-- Generator: Adobe Illustrator 17.0.0, SVG Export Plug-In . SVG Version: 6.00 Build 0)  -->
<!DOCTYPE svg PUBLIC "-//W3C//DTD SVG 1.1//EN" "http://www.w3.org/Graphics/SVG/1.1/DTD/svg11.dtd">
<svg version="1.1" xmlns="http://www.w3.org/2000/svg" xmlns:xlink="http://www.w3.org/1999/xlink" x="0px" y="0px" width="60px"
	 height="60px" viewBox="0 0 60 60" enable-background="new 0 0 60 60" xml:space="preserve">
<g id="Layer_3">
	<g>
		<path fill="#010101" d="M55,32H31.574c-1.311-4.61-5.549-8-10.574-8c-5.024,0-9.263,3.39-10.574,8H5c-2.757,0-5,2.243-5,5v10
			c0,2.757,2.243,5,5,5h1v1c0,0.552,0.447,1,1,1c0.553,0,1-0.448,1-1v-1h44v1c0,0.552,0.447,1,1,1c0.553,0,1-0.448,1-1v-1h1
			c2.757,0,5-2.243,5-5V37C60,34.243,57.757,32,55,32z M21,44c-4.963,0-9-4.038-9-9c0-4.962,4.037-9,9-9c4.963,0,9,4.038,9,9
			C30,39.962,25.963,44,21,44z M40,46c0,0.552-0.447,1-1,1c-0.553,0-1-0.448-1-1v-8c0-0.552,0.447-1,1-1c0.553,0,1,0.448,1,1V46z
			 M44,46c0,0.552-0.447,1-1,1c-0.553,0-1-0.448-1-1v-8c0-0.552,0.447-1,1-1c0.553,0,1,0.448,1,1V46z M48,46c0,0.552-0.447,1-1,1
			c-0.553,0-1-0.448-1-1v-8c0-0.552,0.447-1,1-1c0.553,0,1,0.448,1,1V46z M52,46c0,0.552-0.447,1-1,1c-0.553,0-1-0.448-1-1v-8
			c0-0.552,0.447-1,1-1c0.553,0,1,0.448,1,1V46z"/>
		<path fill="#010101" d="M21,29c-3.309,0-6,2.691-6,6c0,3.309,2.691,6,6,6c3.309,0,6-2.691,6-6C27,31.691,24.309,29,21,29z"/>
	</g>
</g>
<g id="nyt_x5F_exporter_x5F_info" display="none">
</g>
</svg>
