<?xml version="1.0" encoding="utf-8"?>
<!-- Generator: Adobe Illustrator 17.0.0, SVG Export Plug-In . SVG Version: 6.00 Build 0)  -->
<!DOCTYPE svg PUBLIC "-//W3C//DTD SVG 1.1//EN" "http://www.w3.org/Graphics/SVG/1.1/DTD/svg11.dtd">
<svg version="1.1" xmlns="http://www.w3.org/2000/svg" xmlns:xlink="http://www.w3.org/1999/xlink" x="0px" y="0px" width="60px"
	 height="60px" viewBox="0 0 60 60" enable-background="new 0 0 60 60" xml:space="preserve">
<g id="Layer_3">
	<g>
		<path fill="#010101" d="M3,32h55c0.008,0,0.015,0,0.019,0c0.553,0,1-0.448,1-1c0-0.362-0.192-0.679-0.479-0.854L44.65,18.241
			C44.47,18.085,44.238,18,44,18H16c-0.251,0-0.493,0.095-0.679,0.265l-13,12c-0.302,0.279-0.402,0.715-0.253,1.099
			C2.219,31.748,2.588,32,3,32z"/>
		<circle fill="#010101" cx="51" cy="43" r="1"/>
		<circle fill="#010101" cx="11" cy="43" r="3"/>
		<circle fill="#010101" cx="43" cy="43" r="1"/>
		<circle fill="#010101" cx="35" cy="43" r="1"/>
		<path fill="#010101" d="M59,34H1c-0.553,0-1,0.448-1,1v11c0,3.309,2.691,6,6,6v1c0,0.552,0.447,1,1,1c0.553,0,1-0.448,1-1v-1h44v1
			c0,0.552,0.447,1,1,1c0.553,0,1-0.448,1-1v-1c3.309,0,6-2.691,6-6V35C60,34.448,59.553,34,59,34z M11,48c-2.757,0-5-2.243-5-5
			c0-2.757,2.243-5,5-5c2.757,0,5,2.243,5,5C16,45.757,13.757,48,11,48z M35,46c-1.654,0-3-1.346-3-3c0-1.654,1.346-3,3-3
			c1.654,0,3,1.346,3,3C38,44.654,36.654,46,35,46z M43,46c-1.654,0-3-1.346-3-3c0-1.654,1.346-3,3-3c1.654,0,3,1.346,3,3
			C46,44.654,44.654,46,43,46z M51,46c-1.654,0-3-1.346-3-3c0-1.654,1.346-3,3-3c1.654,0,3,1.346,3,3C54,44.654,52.654,46,51,46z"/>
	</g>
</g>
<g id="nyt_x5F_exporter_x5F_info" display="none">
</g>
</svg>
