<?xml version="1.0" encoding="utf-8"?>
<!-- Generator: Adobe Illustrator 17.0.0, SVG Export Plug-In . SVG Version: 6.00 Build 0)  -->
<!DOCTYPE svg PUBLIC "-//W3C//DTD SVG 1.1//EN" "http://www.w3.org/Graphics/SVG/1.1/DTD/svg11.dtd">
<svg version="1.1" xmlns="http://www.w3.org/2000/svg" xmlns:xlink="http://www.w3.org/1999/xlink" x="0px" y="0px" width="60px"
	 height="60px" viewBox="0 0 60 60" enable-background="new 0 0 60 60" xml:space="preserve">
<g id="Layer_3">
	<g>
		<path fill="#010101" d="M55,2H5C2.243,2,0,4.243,0,7v38c0,2.757,2.243,5,5,5h17.557l-2.25,6H12c-0.553,0-1,0.448-1,1
			c0,0.552,0.447,1,1,1h9h18h0.019H48c0.553,0,1-0.448,1-1c0-0.552-0.447-1-1-1h-8.307l-2.25-6H55c2.757,0,5-2.243,5-5V7
			C60,4.243,57.757,2,55,2z M30,47c-1.103,0-2-0.897-2-2s0.897-2,2-2c1.102,0,2,0.897,2,2S31.102,47,30,47z M54,42H6V8h48V42z"/>
	</g>
</g>
<g id="nyt_x5F_exporter_x5F_info" display="none">
</g>
</svg>
