<?xml version="1.0" encoding="utf-8"?>
<!-- Generator: Adobe Illustrator 17.0.0, SVG Export Plug-In . SVG Version: 6.00 Build 0)  -->
<!DOCTYPE svg PUBLIC "-//W3C//DTD SVG 1.1//EN" "http://www.w3.org/Graphics/SVG/1.1/DTD/svg11.dtd">
<svg version="1.1" xmlns="http://www.w3.org/2000/svg" xmlns:xlink="http://www.w3.org/1999/xlink" x="0px" y="0px" width="60px"
	 height="60px" viewBox="0 0 60 60" enable-background="new 0 0 60 60" xml:space="preserve">
<g id="Layer_3">
	<path fill="#010101" d="M57,5.999H3c-1.654,0-3,1.346-3,3v29c0,1.594,1.23,3.054,2.801,3.325l21.156,3.647v5.386
		c-4.977,0.577-9.615,1.85-13.431,3.746c-0.494,0.246-0.696,0.846-0.45,1.34c0.245,0.495,0.844,0.698,1.341,0.451
		c3.912-1.944,8.752-3.202,13.948-3.676h9.271c5.196,0.474,10.036,1.733,13.949,3.676c0.143,0.071,0.295,0.104,0.444,0.104
		c0.368,0,0.722-0.204,0.896-0.555c0.246-0.495,0.044-1.095-0.45-1.34c-3.817-1.896-8.455-3.169-13.432-3.746v-5.386l21.156-3.647
		C58.769,41.053,60,39.593,60,37.999v-29C60,7.345,58.654,5.999,57,5.999z M30,41.999c-1.103,0-2-0.897-2-2s0.897-2,2-2
		c1.102,0,2,0.897,2,2S31.102,41.999,30,41.999z M56,35.999H4v-26h52V35.999z"/>
</g>
<g id="nyt_x5F_exporter_x5F_info" display="none">
</g>
</svg>
