<?xml version="1.0" encoding="utf-8"?>
<!-- Generator: Adobe Illustrator 17.0.0, SVG Export Plug-In . SVG Version: 6.00 Build 0)  -->
<!DOCTYPE svg PUBLIC "-//W3C//DTD SVG 1.1//EN" "http://www.w3.org/Graphics/SVG/1.1/DTD/svg11.dtd">
<svg version="1.1" xmlns="http://www.w3.org/2000/svg" xmlns:xlink="http://www.w3.org/1999/xlink" x="0px" y="0px" width="60px"
	 height="60px" viewBox="0 0 60 60" enable-background="new 0 0 60 60" xml:space="preserve">
<g id="Layer_3">
	<path fill="#010101" d="M57,6H3C1.346,6,0,7.345,0,9v32c0,1.654,1.346,3,3,3h23v4.167c-5.749,0.435-11.14,1.784-15.475,3.938
		c-0.494,0.246-0.696,0.846-0.45,1.34c0.246,0.494,0.844,0.698,1.341,0.451C16.474,51.383,23.073,50,30,50
		c6.927,0,13.526,1.383,18.584,3.896C48.727,53.967,48.879,54,49.028,54c0.368,0,0.722-0.204,0.896-0.555
		c0.246-0.495,0.044-1.095-0.45-1.34C45.14,49.951,39.749,48.602,34,48.167V44h23c1.654,0,3-1.346,3-3V9C60,7.345,58.654,6,57,6z
		 M56,40H4V10h52V40z"/>
</g>
<g id="nyt_x5F_exporter_x5F_info" display="none">
</g>
</svg>
