<?xml version="1.0" encoding="utf-8"?>
<!-- Generator: Adobe Illustrator 17.0.0, SVG Export Plug-In . SVG Version: 6.00 Build 0)  -->
<!DOCTYPE svg PUBLIC "-//W3C//DTD SVG 1.1//EN" "http://www.w3.org/Graphics/SVG/1.1/DTD/svg11.dtd">
<svg version="1.1" xmlns="http://www.w3.org/2000/svg" xmlns:xlink="http://www.w3.org/1999/xlink" x="0px" y="0px" width="60px"
	 height="60px" viewBox="0 0 60 60" enable-background="new 0 0 60 60" xml:space="preserve">
<g id="Layer_3">
	<path fill="#010101" d="M42,0H18c-3.309,0-6,2.691-6,6v4v40v4c0,3.309,2.691,6,6,6h24c3.309,0,6-2.691,6-6v-4V10V6
		C48,2.691,45.309,0,42,0z M23,6h14c0.553,0,1,0.448,1,1c0,0.552-0.447,1-1,1H23c-0.553,0-1-0.448-1-1C22,6.448,22.447,6,23,6z
		 M30,57c-1.654,0-3-1.346-3-3c0-1.654,1.346-3,3-3c1.654,0,3,1.346,3,3C33,55.654,31.654,57,30,57z M46,48H14V12h32V48z"/>
</g>
<g id="nyt_x5F_exporter_x5F_info" display="none">
</g>
</svg>
