<?xml version="1.0" encoding="utf-8"?>
<!-- Generator: Adobe Illustrator 17.0.0, SVG Export Plug-In . SVG Version: 6.00 Build 0)  -->
<!DOCTYPE svg PUBLIC "-//W3C//DTD SVG 1.1//EN" "http://www.w3.org/Graphics/SVG/1.1/DTD/svg11.dtd">
<svg version="1.1" xmlns="http://www.w3.org/2000/svg" xmlns:xlink="http://www.w3.org/1999/xlink" x="0px" y="0px" width="60px"
	 height="60px" viewBox="0 0 60 60" enable-background="new 0 0 60 60" xml:space="preserve">
<g id="Layer_3">
	<g>
		<path fill="#010101" d="M56,2H4C1.794,2,0,3.794,0,6v34c0,2.206,1.794,4,4,4h22v-4H4V6h52v34h-8v4h8c2.206,0,4-1.794,4-4V6
			C60,3.794,58.206,2,56,2z"/>
		<path fill="#010101" d="M28,60h18V32H28V60z M41,38c0.553,0,1,0.448,1,1c0,0.552-0.447,1-1,1c-0.553,0-1-0.448-1-1
			C40,38.448,40.447,38,41,38z M41,44c0.553,0,1,0.448,1,1c0,0.552-0.447,1-1,1c-0.553,0-1-0.448-1-1C40,44.448,40.447,44,41,44z
			 M41,50c0.553,0,1,0.448,1,1c0,0.552-0.447,1-1,1c-0.553,0-1-0.448-1-1C40,50.448,40.447,50,41,50z M37,38c0.553,0,1,0.448,1,1
			c0,0.552-0.447,1-1,1c-0.553,0-1-0.448-1-1C36,38.448,36.447,38,37,38z M37,44c0.553,0,1,0.448,1,1c0,0.552-0.447,1-1,1
			c-0.553,0-1-0.448-1-1C36,44.448,36.447,44,37,44z M37,50c0.553,0,1,0.448,1,1c0,0.552-0.447,1-1,1c-0.553,0-1-0.448-1-1
			C36,50.448,36.447,50,37,50z M33,38c0.553,0,1,0.448,1,1c0,0.552-0.447,1-1,1c-0.553,0-1-0.448-1-1C32,38.448,32.447,38,33,38z
			 M33,44c0.553,0,1,0.448,1,1c0,0.552-0.447,1-1,1c-0.553,0-1-0.448-1-1C32,44.448,32.447,44,33,44z M33,50c0.553,0,1,0.448,1,1
			c0,0.552-0.447,1-1,1c-0.553,0-1-0.448-1-1C32,50.448,32.447,50,33,50z"/>
		<path fill="#010101" d="M43.155,22.872c0.32,0,0.636-0.154,0.829-0.44c0.309-0.458,0.189-1.079-0.268-1.389
			c-4.019-2.72-9.417-2.718-13.434,0c-0.457,0.309-0.577,0.931-0.268,1.389c0.31,0.457,0.93,0.578,1.389,0.268
			c3.348-2.264,7.844-2.265,11.191,0C42.768,22.816,42.963,22.872,43.155,22.872z"/>
		<path fill="#010101" d="M27.242,16.081c-0.452,0.317-0.561,0.941-0.243,1.393c0.195,0.277,0.505,0.425,0.819,0.425
			c0.198,0,0.399-0.059,0.574-0.182c5.15-3.621,12.067-3.62,17.214,0c0.452,0.318,1.075,0.208,1.394-0.243
			c0.317-0.452,0.209-1.075-0.243-1.393C40.922,11.976,33.079,11.976,27.242,16.081z"/>
		<path fill="#010101" d="M33.368,26.02c-0.472,0.287-0.621,0.903-0.333,1.374c0.188,0.309,0.517,0.48,0.854,0.48
			c0.178,0,0.356-0.047,0.52-0.146c1.597-0.973,3.583-0.974,5.182,0c0.475,0.289,1.088,0.137,1.375-0.334
			c0.287-0.472,0.138-1.087-0.334-1.374C38.39,24.655,35.608,24.655,33.368,26.02z"/>
	</g>
</g>
<g id="nyt_x5F_exporter_x5F_info" display="none">
</g>
</svg>
