<?xml version="1.0" encoding="utf-8"?>
<!-- Generator: Adobe Illustrator 17.0.0, SVG Export Plug-In . SVG Version: 6.00 Build 0)  -->
<!DOCTYPE svg PUBLIC "-//W3C//DTD SVG 1.1//EN" "http://www.w3.org/Graphics/SVG/1.1/DTD/svg11.dtd">
<svg version="1.1" xmlns="http://www.w3.org/2000/svg" xmlns:xlink="http://www.w3.org/1999/xlink" x="0px" y="0px" width="60px"
	 height="60px" viewBox="0 0 60 60" enable-background="new 0 0 60 60" xml:space="preserve">
<g id="Layer_3">
	<g>
		<path fill="#010101" d="M59,12h-1V7V5c0-0.552-0.447-1-1-1c-0.553,0-1,0.448-1,1v1h-6V4c0-2.206-2.243-4-5-4H15
			c-2.757,0-5,1.794-5,4v2H4V5c0-0.552-0.447-1-1-1S2,4.448,2,5v2v5H1c-0.553,0-1,0.448-1,1c0,0.552,0.447,1,1,1h1v7v2
			c0,0.552,0.447,1,1,1s1-0.448,1-1v-1h7h38h7v1c0,0.552,0.447,1,1,1c0.553,0,1-0.448,1-1v-2v-7h1c0.553,0,1-0.448,1-1
			C60,12.448,59.553,12,59,12z M48,7H12V4c0-1.084,1.374-2,3-2h30c1.626,0,3,0.916,3,2V7z"/>
		<path fill="#010101" d="M10,55c0,2.757,2.243,5,5,5h30c2.757,0,5-2.243,5-5V44H10V55z M44,48h2v2h-2V48z M44,54h-2v-2h2V54z
			 M40,48h2v2h-2V48z M40,54h-2v-2h2V54z M36,48h2v2h-2V48z M36,54H24v-2h12V54z M32,48h2v2h-2V48z M26,48h2v2h-2V48z M22,48h2v2h-2
			V48z M22,54h-2v-2h2V54z M18,48h2v2h-2V48z M18,54h-2v-2h2V54z M14,48h2v2h-2V48z"/>
		<path fill="#010101" d="M43,28c0,1.602,0.634,3.055,1.661,4.132C43.071,34.111,38.824,38,30,38s-13.072-3.889-14.661-5.868
			C16.365,31.055,17,29.602,17,28c0-3.309-2.691-6-6-6s-6,2.691-6,6c0,2.967,2.167,5.431,5,5.91V42h40v-8.09
			c2.833-0.478,5-2.942,5-5.91c0-3.309-2.691-6-6-6C45.691,22,43,24.691,43,28z"/>
	</g>
</g>
<g id="nyt_x5F_exporter_x5F_info" display="none">
</g>
</svg>
