<?xml version="1.0" encoding="utf-8"?>
<!-- Generator: Adobe Illustrator 17.0.0, SVG Export Plug-In . SVG Version: 6.00 Build 0)  -->
<!DOCTYPE svg PUBLIC "-//W3C//DTD SVG 1.1//EN" "http://www.w3.org/Graphics/SVG/1.1/DTD/svg11.dtd">
<svg version="1.1" xmlns="http://www.w3.org/2000/svg" xmlns:xlink="http://www.w3.org/1999/xlink" x="0px" y="0px" width="60px"
	 height="60px" viewBox="0 0 60 60" enable-background="new 0 0 60 60" xml:space="preserve">
<g id="Layer_3">
	<g>
		<path fill="#010101" d="M43,12h-5V1c0-0.552-0.447-1-1-1H22.994c-0.551,0-0.998,0.446-1,0.997L21.96,12H17c-0.553,0-1,0.448-1,1
			v36c0,6.065,4.935,11,11,11h6c6.065,0,11-4.935,11-11V13C44,12.448,43.553,12,43,12z M23.991,2H36v10H23.96L23.991,2z M37,20H23
			c-0.553,0-1-0.448-1-1c0-0.552,0.447-1,1-1h14c0.553,0,1,0.448,1,1C38,19.552,37.553,20,37,20z"/>
		<path fill="#010101" d="M27,4c-0.553,0-1,0.448-1,1v4c0,0.552,0.447,1,1,1c0.553,0,1-0.448,1-1V5C28,4.448,27.553,4,27,4z"/>
		<path fill="#010101" d="M33,4c-0.553,0-1,0.448-1,1v4c0,0.552,0.447,1,1,1c0.553,0,1-0.448,1-1V5C34,4.448,33.553,4,33,4z"/>
	</g>
</g>
<g id="nyt_x5F_exporter_x5F_info" display="none">
</g>
</svg>
