<?xml version="1.0" encoding="utf-8"?>
<!-- Generator: Adobe Illustrator 17.0.0, SVG Export Plug-In . SVG Version: 6.00 Build 0)  -->
<!DOCTYPE svg PUBLIC "-//W3C//DTD SVG 1.1//EN" "http://www.w3.org/Graphics/SVG/1.1/DTD/svg11.dtd">
<svg version="1.1" xmlns="http://www.w3.org/2000/svg" xmlns:xlink="http://www.w3.org/1999/xlink" x="0px" y="0px" width="60px"
	 height="60px" viewBox="0 0 60 60" enable-background="new 0 0 60 60" xml:space="preserve">
<g id="Layer_3">
	<g>
		<path fill="#010101" d="M45,28h-1V1c0-0.552-0.447-1-1-1H17c-0.553,0-1,0.448-1,1v27h-1c-0.553,0-1,0.448-1,1v18
			c0,3.86,3.141,7,7,7h3v5c0,0.552,0.447,1,1,1h10c0.553,0,1-0.448,1-1v-5h3c3.859,0,7-3.14,7-7V29C46,28.448,45.553,28,45,28z
			 M42,28H18V2h24V28z"/>
		<path fill="#010101" d="M21,14h6c0.553,0,1-0.448,1-1V7c0-0.552-0.447-1-1-1h-6c-0.553,0-1,0.448-1,1v6C20,13.552,20.447,14,21,14
			z"/>
		<path fill="#010101" d="M33,14h6c0.553,0,1-0.448,1-1V7c0-0.552-0.447-1-1-1h-6c-0.553,0-1,0.448-1,1v6C32,13.552,32.447,14,33,14
			z"/>
	</g>
</g>
<g id="nyt_x5F_exporter_x5F_info" display="none">
</g>
</svg>
