<?xml version="1.0" encoding="utf-8"?>
<!-- Generator: Adobe Illustrator 17.0.0, SVG Export Plug-In . SVG Version: 6.00 Build 0)  -->
<!DOCTYPE svg PUBLIC "-//W3C//DTD SVG 1.1//EN" "http://www.w3.org/Graphics/SVG/1.1/DTD/svg11.dtd">
<svg version="1.1" xmlns="http://www.w3.org/2000/svg" xmlns:xlink="http://www.w3.org/1999/xlink" x="0px" y="0px" width="60px"
	 height="60px" viewBox="0 0 60 60" enable-background="new 0 0 60 60" xml:space="preserve">
<g id="Layer_3">
	<g>
		<path fill="#010101" d="M59.707,58.293L48.271,46.857C53.633,41.919,57,34.846,57,27C57,12.112,44.888,0,30,0
			C15.112,0,3,12.112,3,27c0,7.846,3.367,14.919,8.729,19.857L0.293,58.293c-0.391,0.391-0.391,1.023,0,1.414
			C0.488,59.902,0.744,60,1,60c0.256,0,0.512-0.098,0.707-0.293l11.549-11.549C17.862,51.811,23.678,54,30,54
			c6.321,0,12.138-2.189,16.744-5.842l11.549,11.549C58.488,59.902,58.744,60,59,60c0.256,0,0.512-0.098,0.707-0.293
			C60.098,59.316,60.098,58.684,59.707,58.293z M30,7c1.654,0,3,1.346,3,3c0,1.654-1.346,3-3,3c-1.654,0-3-1.346-3-3
			C27,8.346,28.346,7,30,7z M30,36c-4.963,0-9-4.038-9-9c0-4.962,4.037-9,9-9c4.963,0,9,4.038,9,9C39,31.962,34.963,36,30,36z"/>
		<path fill="#010101" d="M30,20c-3.859,0-7,3.14-7,7c0,0.552,0.447,1,1,1c0.553,0,1-0.448,1-1c0-2.757,2.243-5,5-5
			c0.553,0,1-0.448,1-1C31,20.448,30.553,20,30,20z"/>
	</g>
</g>
<g id="nyt_x5F_exporter_x5F_info" display="none">
</g>
</svg>
