<?xml version="1.0" encoding="utf-8"?>
<!-- Generator: Adobe Illustrator 17.0.0, SVG Export Plug-In . SVG Version: 6.00 Build 0)  -->
<!DOCTYPE svg PUBLIC "-//W3C//DTD SVG 1.1//EN" "http://www.w3.org/Graphics/SVG/1.1/DTD/svg11.dtd">
<svg version="1.1" xmlns="http://www.w3.org/2000/svg" xmlns:xlink="http://www.w3.org/1999/xlink" x="0px" y="0px" width="60px"
	 height="60px" viewBox="0 0 60 60" enable-background="new 0 0 60 60" xml:space="preserve">
<g id="Layer_3">
	<g>
		<path fill="#010101" d="M25,19c0.553,0,1-0.448,1-1v-4c0-0.552-0.447-1-1-1c-0.553,0-1,0.448-1,1v4C24,18.552,24.447,19,25,19z"/>
		<path fill="#010101" d="M17,22c0.553,0,1-0.448,1-1V11c0-0.552-0.447-1-1-1c-0.553,0-1,0.448-1,1v10C16,21.552,16.447,22,17,22z"
			/>
		<path fill="#010101" d="M9,24c0.553,0,1-0.448,1-1V9c0-0.552-0.447-1-1-1S8,8.448,8,9v14C8,23.552,8.447,24,9,24z"/>
		<path fill="#010101" d="M1,27c0.553,0,1-0.448,1-1V6c0-0.552-0.447-1-1-1S0,5.448,0,6v20C0,26.552,0.447,27,1,27z"/>
		<path fill="#010101" d="M33,19c0.553,0,1-0.448,1-1v-4c0-0.552-0.447-1-1-1c-0.553,0-1,0.448-1,1v4C32,18.552,32.447,19,33,19z"/>
		<path fill="#010101" d="M41,22c0.553,0,1-0.448,1-1V11c0-0.552-0.447-1-1-1c-0.553,0-1,0.448-1,1v10C40,21.552,40.447,22,41,22z"
			/>
		<path fill="#010101" d="M49,24c0.553,0,1-0.448,1-1V9c0-0.552-0.447-1-1-1c-0.553,0-1,0.448-1,1v14C48,23.552,48.447,24,49,24z"/>
		<path fill="#010101" d="M57,27c0.553,0,1-0.448,1-1V6c0-0.552-0.447-1-1-1c-0.553,0-1,0.448-1,1v20C56,26.552,56.447,27,57,27z"/>
		<path fill="#010101" d="M55,35H30V18c0-0.552-0.447-1-1-1c-0.553,0-1,0.448-1,1v17H5c-2.757,0-5,2.243-5,5v8c0,2.757,2.243,5,5,5
			h1v1c0,0.552,0.447,1,1,1s1-0.448,1-1v-1h44v1c0,0.552,0.447,1,1,1c0.553,0,1-0.448,1-1v-1h1c2.757,0,5-2.243,5-5v-8
			C60,37.243,57.757,35,55,35z M21,45H7c-0.553,0-1-0.448-1-1c0-0.552,0.447-1,1-1h14c0.553,0,1,0.448,1,1
			C22,44.552,21.553,45,21,45z M36,46c-1.103,0-2-0.897-2-2s0.897-2,2-2c1.102,0,2,0.897,2,2S37.102,46,36,46z M42,46
			c-1.103,0-2-0.897-2-2s0.897-2,2-2c1.102,0,2,0.897,2,2S43.102,46,42,46z M48,46c-1.103,0-2-0.897-2-2s0.897-2,2-2
			c1.102,0,2,0.897,2,2S49.102,46,48,46z"/>
	</g>
</g>
<g id="nyt_x5F_exporter_x5F_info" display="none">
</g>
</svg>
