<?xml version="1.0" encoding="utf-8"?>
<!-- Generator: Adobe Illustrator 17.0.0, SVG Export Plug-In . SVG Version: 6.00 Build 0)  -->
<!DOCTYPE svg PUBLIC "-//W3C//DTD SVG 1.1//EN" "http://www.w3.org/Graphics/SVG/1.1/DTD/svg11.dtd">
<svg version="1.1" xmlns="http://www.w3.org/2000/svg" xmlns:xlink="http://www.w3.org/1999/xlink" x="0px" y="0px" width="60px"
	 height="60px" viewBox="0 0 60 60" enable-background="new 0 0 60 60" xml:space="preserve">
<g id="Layer_3">
	<g>
		<path fill="#010101" d="M55,38h-9V17c0-0.552-0.447-1-1-1s-1,0.448-1,1v21H28v18h24v1c0,0.552,0.447,1,1,1s1-0.448,1-1v-1h1
			c2.757,0,5-2.243,5-5v-8C60,40.243,57.757,38,55,38z M36,49c-1.103,0-2-0.897-2-2s0.897-2,2-2s2,0.897,2,2S37.103,49,36,49z
			 M42,49c-1.103,0-2-0.897-2-2s0.897-2,2-2s2,0.897,2,2S43.103,49,42,49z M48,49c-1.103,0-2-0.897-2-2s0.897-2,2-2s2,0.897,2,2
			S49.103,49,48,49z"/>
		<path fill="#010101" d="M0,43v8c0,2.757,2.243,5,5,5h1v1c0,0.552,0.447,1,1,1s1-0.448,1-1v-1h18V38H5C2.243,38,0,40.243,0,43z
			 M7,46h14c0.553,0,1,0.448,1,1c0,0.552-0.447,1-1,1H7c-0.553,0-1-0.448-1-1C6,46.448,6.447,46,7,46z"/>
		<path fill="#010101" d="M38,17c0,0.552,0.447,1,1,1s1-0.448,1-1c0-2.757,2.243-5,5-5s5,2.243,5,5c0,0.552,0.447,1,1,1s1-0.448,1-1
			c0-3.86-3.141-7-7-7S38,13.14,38,17z"/>
		<path fill="#010101" d="M31,18c0.553,0,1-0.448,1-1c0-7.168,5.832-13,13-13s13,5.832,13,13c0,0.552,0.447,1,1,1s1-0.448,1-1
			c0-8.271-6.729-15-15-15S30,8.729,30,17C30,17.552,30.447,18,31,18z"/>
	</g>
</g>
<g id="nyt_x5F_exporter_x5F_info" display="none">
</g>
</svg>
