<?xml version="1.0" encoding="utf-8"?>
<!-- Generator: Adobe Illustrator 17.0.0, SVG Export Plug-In . SVG Version: 6.00 Build 0)  -->
<!DOCTYPE svg PUBLIC "-//W3C//DTD SVG 1.1//EN" "http://www.w3.org/Graphics/SVG/1.1/DTD/svg11.dtd">
<svg version="1.1" id="Layer_1" xmlns="http://www.w3.org/2000/svg" xmlns:xlink="http://www.w3.org/1999/xlink" x="0px" y="0px"
	 width="60px" height="60px" viewBox="0 0 60 60" enable-background="new 0 0 60 60" xml:space="preserve">
<g>
	<path fill="#010101" d="M55,30h-3c0-0.917-0.112-1.665-0.298-2.287l2.005-2.006c0.391-0.391,0.391-1.024,0-1.414
		c-0.391-0.391-1.023-0.391-1.414,0l-1.635,1.635c-0.49-0.455-1.068-0.707-1.658-0.829V22c0-0.552-0.448-1-1-1s-1,0.448-1,1v3.123
		c-0.402,0.1-0.726,0.264-0.998,0.465l-1.295-1.295c-0.391-0.391-1.023-0.391-1.414,0s-0.391,1.023,0,1.414l1.572,1.572
		c-0.109,0.338-0.185,0.668-0.248,0.952C44.319,29.575,44.169,30,43,30h-5V16h5c0.552,0,1-0.448,1-1s-0.448-1-1-1h-5.174
		c-0.223-1.356-0.69-2.815-1.496-4.118l3.448-4.252c0.348-0.429,0.282-1.059-0.147-1.407c-0.43-0.347-1.059-0.281-1.407,0.147
		l-3.167,3.906c-1.202-1.176-2.85-2.021-5.056-2.22V1c0-0.552-0.448-1-1-1s-1,0.448-1,1v5.056c-2.323,0.21-4.021,1.141-5.238,2.414
		l-2.953-4.059c-0.325-0.446-0.95-0.546-1.397-0.22c-0.447,0.325-0.545,0.95-0.22,1.397l3.319,4.561C20.404,12.075,20,14.304,20,16
		v6h-3c-0.71,0-1-0.29-1-1l-0.001-4.054c-0.039-0.722-0.273-1.715-0.807-2.622l2.53-2.629c0.383-0.398,0.371-1.031-0.027-1.414
		c-0.397-0.382-1.031-0.371-1.414,0.027l-2.435,2.531c-0.503-0.354-1.115-0.616-1.844-0.745V9.001c0-0.552-0.448-1-1-1s-1,0.448-1,1
		v3.092c-0.729,0.129-1.34,0.391-1.843,0.746l-2.436-2.531C5.338,9.91,4.705,9.898,4.307,10.28c-0.398,0.383-0.41,1.016-0.027,1.414
		l2.534,2.632C6.275,15.244,6.04,16.253,6,17v8c0,3.742,3.235,4.906,5,5h9v6h-5c-0.552,0-1,0.448-1,1s0.448,1,1,1h5v4h-5
		c-0.297,0-0.58,0.132-0.77,0.361s-0.268,0.531-0.213,0.823l3,16C17.106,59.657,17.519,60,18,60h22c0.481,0,0.894-0.343,0.983-0.816
		l3-16c0.055-0.292-0.023-0.594-0.213-0.823S43.297,42,43,42h-5v-4h8c3.533,0,6-1.645,6-4v-2h3c0.552,0,1-0.448,1-1S55.552,30,55,30
		z M39.17,58H18.83l-2.625-14h25.59L39.17,58z M50,34c0,1.299-2.061,2-4,2H36v6H22V28l-10.941,0.002C10.746,27.981,8,27.727,8,25
		l-0.002-7.941C8.019,16.746,8.274,14,11,14c2.726,0,2.981,2.746,3,3v4c0,1.822,1.178,3,3,3h5v-8c0-0.819,0.196-8,7-8s7,7.181,7,8
		v16h7c2.831,0,3.293-2.088,3.569-3.336C46.873,27.294,47.029,27,48,27c0.597,0,1.219,0.09,1.607,0.81
		c0.01,0.027,0.026,0.051,0.039,0.078C49.864,28.334,50,29,50,30V34z"/>
</g>
</svg>
