<?xml version="1.0" encoding="utf-8"?>
<!-- Generator: Adobe Illustrator 17.0.0, SVG Export Plug-In . SVG Version: 6.00 Build 0)  -->
<!DOCTYPE svg PUBLIC "-//W3C//DTD SVG 1.1//EN" "http://www.w3.org/Graphics/SVG/1.1/DTD/svg11.dtd">
<svg version="1.1" id="Layer_1" xmlns="http://www.w3.org/2000/svg" xmlns:xlink="http://www.w3.org/1999/xlink" x="0px" y="0px"
	 width="60px" height="60px" viewBox="0 0 60 60" enable-background="new 0 0 60 60" xml:space="preserve">
<g>
	<path fill="#010101" d="M30.141,21.589c-5.514,0-10,4.486-10,10s4.486,10,10,10s10-4.486,10-10S35.655,21.589,30.141,21.589z
		 M30.141,39.589c-4.411,0-8-3.589-8-8s3.589-8,8-8s8,3.589,8,8S34.552,39.589,30.141,39.589z"/>
	<path fill="#010101" d="M47.141,13.589c-1.933,0-3.831,0.471-5.528,1.352c0.273-2.328-0.144-4.686-1.233-6.822
		c-1.456-2.856-3.936-4.975-6.984-5.965c-1.206-0.392-2.454-0.59-3.71-0.59c-5.213,0-9.799,3.333-11.412,8.295
		c-0.597,1.838-0.736,3.788-0.421,5.675c-1.554-0.714-3.243-1.085-4.983-1.085c-3.834,0-7.467,1.85-9.717,4.948
		C-0.736,24.75,0.455,32.27,5.808,36.16c1.576,1.145,3.37,1.876,5.264,2.158c-1.588,1.722-2.635,3.873-3.01,6.24
		c-0.502,3.167,0.26,6.339,2.146,8.932c2.25,3.098,5.882,4.947,9.716,4.947c2.544,0,4.98-0.793,7.046-2.293
		c1.563-1.136,2.821-2.633,3.676-4.344c2.092,3.728,6.046,6.106,10.45,6.106c1.258,0,2.508-0.199,3.714-0.592
		c6.291-2.043,9.747-8.826,7.704-15.121c-0.598-1.838-1.633-3.498-2.997-4.84c5.482-1.106,9.624-5.96,9.624-11.764
		C59.141,18.972,53.757,13.589,47.141,13.589z M47.108,35.586c-0.001,0-0.003,0-0.005,0c-0.02-0.001-0.139-0.007-0.159-0.008
		c-0.461,0.001-0.847,0.288-0.973,0.718c-0.126,0.431,0.049,0.893,0.43,1.13c1.991,1.243,3.487,3.156,4.212,5.384
		c1.702,5.246-1.178,10.898-6.421,12.601c-1.007,0.328-2.048,0.494-3.096,0.494c-4.345,0-8.164-2.778-9.516-6.955
		c-0.004-0.017-0.034-0.128-0.039-0.145c-0.131-0.43-0.516-0.743-0.982-0.709c-0.45,0.011-0.836,0.321-0.945,0.758
		c-0.567,2.278-1.923,4.293-3.819,5.671c-1.722,1.25-3.751,1.911-5.871,1.911c-3.196,0-6.223-1.542-8.099-4.123
		c-1.571-2.161-2.206-4.804-1.788-7.443c0.418-2.639,1.838-4.956,4.038-6.549c0.015-0.009,0.111-0.072,0.125-0.082
		c0.369-0.258,0.52-0.729,0.369-1.153c-0.142-0.401-0.521-0.666-0.942-0.666c-0.023,0-0.047,0.001-0.071,0.002
		c-2.347,0.164-4.664-0.494-6.573-1.881C2.522,31.3,1.53,25.034,4.771,20.573c1.875-2.582,4.903-4.124,8.099-4.124
		c2.119,0,4.148,0.661,5.904,1.941c0.012,0.01,0.098,0.08,0.111,0.09c0.358,0.273,0.855,0.273,1.213,0
		c0.358-0.273,0.49-0.752,0.32-1.17c-0.88-2.177-0.966-4.604-0.242-6.833c1.344-4.135,5.166-6.914,9.509-6.914
		c1.046,0,2.086,0.166,3.092,0.492c2.541,0.825,4.607,2.59,5.82,4.971c1.213,2.38,1.426,5.09,0.585,7.667
		c-0.007,0.017-0.048,0.125-0.054,0.142c-0.148,0.425,0.006,0.896,0.377,1.152s0.866,0.232,1.21-0.058
		c1.797-1.509,4.079-2.341,6.424-2.341c5.514,0,10,4.486,10,10C57.141,31.102,52.658,35.586,47.108,35.586z"/>
</g>
</svg>
