<?xml version="1.0" encoding="utf-8"?>
<!-- Generator: Adobe Illustrator 17.0.0, SVG Export Plug-In . SVG Version: 6.00 Build 0)  -->
<!DOCTYPE svg PUBLIC "-//W3C//DTD SVG 1.1//EN" "http://www.w3.org/Graphics/SVG/1.1/DTD/svg11.dtd">
<svg version="1.1" id="Layer_1" xmlns="http://www.w3.org/2000/svg" xmlns:xlink="http://www.w3.org/1999/xlink" x="0px" y="0px"
	 width="60px" height="60px" viewBox="0 0 60 60" enable-background="new 0 0 60 60" xml:space="preserve">
<g>
	<path fill="#010101" d="M41.976,13.019c-0.115-2.031-0.725-6.669-3.818-9.847C36.108,1.067,33.364,0,30,0s-6.108,1.067-8.158,3.172
		c-3.095,3.179-3.704,7.818-3.818,9.849C9.037,13.414,5,19.232,5,25c0,6.46,4.809,13,14,13h7v4.001h-8
		c-0.328,0-0.635,0.161-0.822,0.43c-0.187,0.27-0.229,0.614-0.115,0.921l6,15.999C23.21,59.741,23.583,60,24,60h12
		c0.417,0,0.79-0.259,0.937-0.649l6-15.999c0.115-0.307,0.072-0.651-0.115-0.921c-0.187-0.27-0.494-0.43-0.822-0.43h-8V38h7
		c9.191,0,14-6.54,14-13C55,17.769,50.154,13.342,41.976,13.019z M35.307,58H24.693l-5.25-13.999h21.114L35.307,58z M32,42.001h-4
		V38h4V42.001z M41,36H19c-7.878,0-12-5.534-12-11c0-4.613,3.143-10,12-10c0.27,0,0.528-0.109,0.716-0.302
		c0.188-0.193,0.291-0.455,0.283-0.725c-0.001-0.059-0.118-5.92,3.276-9.406C24.934,2.864,27.197,2,30,2
		c2.799,0,5.059,0.861,6.717,2.56c3.387,3.47,3.285,9.355,3.283,9.415c-0.007,0.269,0.096,0.53,0.284,0.723
		C40.473,14.891,40.73,15,41,15c7.626,0,12,3.645,12,10C53,30.298,49.245,36,41,36z"/>
</g>
</svg>
