<?xml version="1.0" encoding="utf-8"?>
<!-- Generator: Adobe Illustrator 17.0.0, SVG Export Plug-In . SVG Version: 6.00 Build 0)  -->
<!DOCTYPE svg PUBLIC "-//W3C//DTD SVG 1.1//EN" "http://www.w3.org/Graphics/SVG/1.1/DTD/svg11.dtd">
<svg version="1.1" id="Layer_1" xmlns="http://www.w3.org/2000/svg" xmlns:xlink="http://www.w3.org/1999/xlink" x="0px" y="0px"
	 width="48px" height="48px" viewBox="0 0 48 48" enable-background="new 0 0 48 48" xml:space="preserve">
<g>
	<path fill="#010101" d="M32,12c-4.072,0-5.6,0.882-6.716,1.526c-0.107,0.062-0.195,0.111-0.284,0.16V11c0-2.757-2.243-5-5-5h-4
		c-0.553,0-1,0.448-1,1s0.447,1,1,1h4c1.654,0,3,1.346,3,3v2.686c-0.089-0.049-0.177-0.098-0.284-0.16C21.6,12.882,20.072,12,16,12
		C9.271,12,4,18.589,4,27c0,7.912,6.076,21,13,21c3.602,0,4.662-0.683,5.587-1.508C22.966,46.154,23.139,46,24,46
		s1.034,0.154,1.413,0.492C26.338,47.317,27.397,48,31,48c6.924,0,13-13.088,13-21C44,18.589,38.728,12,32,12z M31,46
		c-3.134,0-3.731-0.532-4.256-1.001C26.109,44.433,25.504,44,24,44s-2.109,0.433-2.744,0.999C20.73,45.468,20.134,46,17,46
		C11.794,46,6,34.675,6,27c0-7.29,4.393-13,10-13c3.536,0,4.744,0.698,5.716,1.258C22.347,15.623,23,16,24,16
		s1.653-0.377,2.284-0.742C27.256,14.698,28.464,14,32,14c5.607,0,10,5.71,10,13C42,34.675,36.206,46,31,46z"/>
	<path fill="#010101" d="M28,11c5.514,0,10-4.486,10-10c0-0.552-0.447-1-1-1c-5.514,0-10,4.486-10,10C27,10.552,27.447,11,28,11z
		 M35.929,2.071c-0.479,3.556-3.301,6.38-6.857,6.857C29.55,5.372,32.372,2.549,35.929,2.071z"/>
</g>
<g id="nyt_x5F_exporter_x5F_info" display="none">
</g>
</svg>
