<?xml version="1.0" encoding="utf-8"?>
<!-- Generator: Adobe Illustrator 17.0.0, SVG Export Plug-In . SVG Version: 6.00 Build 0)  -->
<!DOCTYPE svg PUBLIC "-//W3C//DTD SVG 1.1//EN" "http://www.w3.org/Graphics/SVG/1.1/DTD/svg11.dtd">
<svg version="1.1" id="Layer_1" xmlns="http://www.w3.org/2000/svg" xmlns:xlink="http://www.w3.org/1999/xlink" x="0px" y="0px"
	 width="48px" height="48px" viewBox="0 0 48 48" enable-background="new 0 0 48 48" xml:space="preserve">
<g>
	<path fill="#010101" d="M40.913,22.092C43.918,20.633,46,17.559,46,14c0-4.962-4.038-9-9-9c-1.288,0-2.559,0.28-3.728,0.815
		C31.107,2.204,27.258,0,23,0c-4.259,0-8.108,2.204-10.273,5.815C11.558,5.28,10.288,5,9,5c-4.962,0-9,4.038-9,9s4.038,9,9,9
		c0,1.194,0.355,2.305,0.958,3.241L8.124,40H8c-2.206,0-4,1.794-4,4s1.794,4,4,4h30c2.206,0,4-1.794,4-4s-1.794-4-4-4h-0.099
		l-0.208-2h2.596C42.887,38,45,35.757,45,33v-6C45,24.555,43.234,22.523,40.913,22.092z M2,14c0-3.86,3.14-7,7-7
		c1.27,0,2.519,0.351,3.614,1.015c0.239,0.146,0.528,0.183,0.799,0.105c0.269-0.079,0.493-0.267,0.617-0.519
		C15.727,4.146,19.164,2,23,2c3.834,0,7.271,2.147,8.97,5.602c0.124,0.251,0.347,0.439,0.617,0.518
		c0.267,0.078,0.559,0.041,0.799-0.105C34.48,7.351,35.73,7,37,7c3.86,0,7,3.14,7,7s-3.14,7-7,7c-1.975,0-3.803-0.806-5.148-2.272
		c-0.189-0.206-0.456-0.323-0.736-0.323h-0.001c-0.281,0.001-0.548,0.119-0.737,0.326c-2.521,2.76-6.438,3.935-10.144,2.871
		c-0.315-0.089-0.656-0.02-0.91,0.188c-0.254,0.208-0.39,0.527-0.363,0.855c0.005,0.072,0.014,0.144,0.024,0.216
		C18.991,22.907,19,22.953,19,23c0,2.206-1.794,4-4,4s-4-1.794-4-4c0-0.277,0.034-0.56,0.104-0.865
		c0.073-0.32-0.015-0.656-0.237-0.898c-0.191-0.208-0.459-0.325-0.738-0.325c-0.045,0-0.09,0.003-0.136,0.009
		C9.596,20.976,9.29,21,9,21C5.14,21,2,17.86,2,14z M40,44c0,1.103-0.897,2-2,2H8c-1.103,0-2-0.897-2-2s0.897-2,2-2h30
		C39.103,42,40,42.897,40,44z M10.141,40l1.596-11.971C12.677,28.641,13.797,29,15,29c0.305,0,0.599-0.039,0.892-0.083l-0.886,7.973
		c-0.061,0.549,0.334,1.043,0.883,1.104C15.927,37.998,15.964,38,16.001,38c0.503,0,0.936-0.378,0.992-0.889l0.991-8.919
		c1.573-0.908,2.704-2.5,2.96-4.374c3.704,0.654,7.474-0.508,10.185-3.009c0.868,0.749,1.871,1.317,2.943,1.689L35.89,40H10.141z
		 M43,33c0,1.654-1.216,3-2.711,3h-2.804l-1.246-12H40c1.654,0,3,1.346,3,3V33z"/>
	<path fill="#010101" d="M28.901,26.005c-0.55,0.056-0.951,0.545-0.896,1.095l1,10c0.052,0.515,0.486,0.9,0.994,0.9
		c0.033,0,0.067-0.001,0.101-0.004c0.55-0.056,0.951-0.545,0.896-1.095l-1-10C29.941,26.351,29.451,25.952,28.901,26.005z"/>
	<path fill="#010101" d="M23,26c-0.552,0-1,0.448-1,1v10c0,0.552,0.448,1,1,1s1-0.448,1-1V27C24,26.448,23.552,26,23,26z"/>
</g>
<g id="nyt_x5F_exporter_x5F_info" display="none">
</g>
</svg>
