<?xml version="1.0" encoding="utf-8"?>
<!-- Generator: Adobe Illustrator 17.0.0, SVG Export Plug-In . SVG Version: 6.00 Build 0)  -->
<!DOCTYPE svg PUBLIC "-//W3C//DTD SVG 1.1//EN" "http://www.w3.org/Graphics/SVG/1.1/DTD/svg11.dtd">
<svg version="1.1" id="Layer_1" xmlns="http://www.w3.org/2000/svg" xmlns:xlink="http://www.w3.org/1999/xlink" x="0px" y="0px"
	 width="48px" height="48px" viewBox="0 0 48 48" enable-background="new 0 0 48 48" xml:space="preserve">
<g>
	<path fill="#010101" d="M29.039,36c-0.351-0.017-0.677,0.155-0.87,0.445l-1.124,1.685l-2.187-3.645
		c-0.361-0.603-1.354-0.603-1.715,0l-2.187,3.645l-1.124-1.685c-0.193-0.29-0.533-0.463-0.87-0.445
		c-0.348,0.014-0.664,0.207-0.834,0.51C17.605,37.441,15,42.175,15,44c0,2.206,1.794,4,4,4h10c2.206,0,4-1.794,4-4
		c0-1.825-2.606-6.559-3.127-7.49C29.703,36.206,29.387,36.014,29.039,36z M29,46H19c-1.103,0-2-0.897-2-2
		c0-0.698,0.982-2.93,2.09-5.062l1.078,1.617c0.189,0.285,0.495,0.464,0.856,0.445c0.342-0.008,0.657-0.191,0.833-0.485L24,36.944
		l2.143,3.571c0.176,0.294,0.49,0.477,0.833,0.485c0.354,0.021,0.666-0.16,0.856-0.445l1.078-1.617C30.018,41.07,31,43.302,31,44
		C31,45.103,30.103,46,29,46z"/>
	<path fill="#010101" d="M39,10h-3V6h1c0.552,0,1-0.448,1-1s-0.448-1-1-1h-2h-6.101C28.434,1.721,26.415,0,24,0
		s-4.434,1.721-4.899,4H13h-2c-0.552,0-1,0.448-1,1s0.448,1,1,1h1v4H9c-0.552,0-1,0.448-1,1s0.448,1,1,1h3v15c0,2.757,2.243,5,5,5
		h14c2.757,0,5-2.243,5-5V12h3c0.552,0,1-0.448,1-1S39.552,10,39,10z M24,2c1.302,0,2.401,0.839,2.816,2h-5.631
		C21.599,2.839,22.698,2,24,2z M34,27c0,1.654-1.346,3-3,3H17c-1.654,0-3-1.346-3-3V6h20V27z"/>
</g>
<g id="nyt_x5F_exporter_x5F_info" display="none">
</g>
</svg>
