<?xml version="1.0" encoding="utf-8"?>
<!-- Generator: Adobe Illustrator 17.0.0, SVG Export Plug-In . SVG Version: 6.00 Build 0)  -->
<!DOCTYPE svg PUBLIC "-//W3C//DTD SVG 1.1//EN" "http://www.w3.org/Graphics/SVG/1.1/DTD/svg11.dtd">
<svg version="1.1" id="Layer_1" xmlns="http://www.w3.org/2000/svg" xmlns:xlink="http://www.w3.org/1999/xlink" x="0px" y="0px"
	 width="48px" height="48px" viewBox="0 0 48 48" enable-background="new 0 0 48 48" xml:space="preserve">
<path fill="#010101" d="M28.706,12.207C27.945,11.017,27,9.536,27,9V1c0-0.552-0.447-1-1-1h-6c-0.553,0-1,0.448-1,1v8
	c0,0.536-0.945,2.017-1.706,3.207C15.826,14.505,14,17.365,14,20v26c0,0.618,0,2.5,9,2.5s9-1.882,9-2.5V20
	C32,17.365,30.174,14.505,28.706,12.207z M25,2v2h-4V2H25z M30,45.707c-0.691,0.348-3.161,0.793-7,0.793s-6.309-0.445-7-0.793V20
	c0-2.051,1.652-4.638,2.979-6.717C20.108,11.516,21,10.121,21,9V6h4v3c0,1.121,0.892,2.516,2.02,4.283
	C28.348,15.362,30,17.949,30,20V45.707z"/>
<g id="nyt_x5F_exporter_x5F_info" display="none">
</g>
</svg>
