<?xml version="1.0" encoding="utf-8"?>
<!-- Generator: Adobe Illustrator 17.0.0, SVG Export Plug-In . SVG Version: 6.00 Build 0)  -->
<!DOCTYPE svg PUBLIC "-//W3C//DTD SVG 1.1//EN" "http://www.w3.org/Graphics/SVG/1.1/DTD/svg11.dtd">
<svg version="1.1" id="Layer_1" xmlns="http://www.w3.org/2000/svg" xmlns:xlink="http://www.w3.org/1999/xlink" x="0px" y="0px"
	 width="48px" height="48px" viewBox="0 0 48 48" enable-background="new 0 0 48 48" xml:space="preserve">
<path fill="#010101" d="M31.56,23.327C29.729,21.314,28,19.411,28,18V7V1c0-0.552-0.447-1-1-1h-6c-0.553,0-1,0.448-1,1v6v11
	c0,1.411-1.73,3.314-3.561,5.327C13.89,26.132,11,29.31,11,33c0,6.054,1.481,12.05,1.545,12.302C12.922,46.815,14.44,48,16,48h16
	c1.56,0,3.078-1.185,3.455-2.698C35.519,45.05,37,39.054,37,33C37,29.31,34.11,26.132,31.56,23.327z M34.429,40H13.571
	c-0.264-1.777-0.497-3.873-0.556-6h21.97C34.926,36.127,34.694,38.223,34.429,40z M26,6h-4V2h4V6z M17.92,24.673
	C20.109,22.265,22,20.185,22,18V8h4v10c0,2.185,1.891,4.265,4.08,6.673c2.043,2.245,4.322,4.757,4.818,7.327H13.102
	C13.598,29.43,15.877,26.918,17.92,24.673z M32,46H16c-0.639,0-1.36-0.564-1.516-1.183c-0.006-0.025-0.276-1.124-0.583-2.817h20.199
	c-0.308,1.693-0.577,2.792-0.583,2.817C33.36,45.436,32.639,46,32,46z"/>
<g id="nyt_x5F_exporter_x5F_info" display="none">
</g>
</svg>
