<?xml version="1.0" encoding="utf-8"?>
<!-- Generator: Adobe Illustrator 17.0.0, SVG Export Plug-In . SVG Version: 6.00 Build 0)  -->
<!DOCTYPE svg PUBLIC "-//W3C//DTD SVG 1.1//EN" "http://www.w3.org/Graphics/SVG/1.1/DTD/svg11.dtd">
<svg version="1.1" id="Layer_1" xmlns="http://www.w3.org/2000/svg" xmlns:xlink="http://www.w3.org/1999/xlink" x="0px" y="0px"
	 width="48px" height="48px" viewBox="0 0 48 48" enable-background="new 0 0 48 48" xml:space="preserve">
<path fill="#010101" d="M29.707,18.293C28.294,16.88,28,16.586,28,14V7V1c0-0.552-0.447-1-1-1h-6c-0.553,0-1,0.448-1,1v6v7
	c0,2.586-0.294,2.88-1.707,4.293C16.793,19.793,14,22.586,14,27v2v10v6c0,1.654,1.346,3,3,3h14c1.654,0,3-1.346,3-3v-6V29v-2
	C34,22.586,31.207,19.793,29.707,18.293z M26,6h-4V2h4V6z M19.707,19.707C21.411,18.003,22,17.249,22,14V8h4v6
	c0,3.249,0.589,4.003,2.293,5.707C29.769,21.183,32,23.414,32,27v1H16v-1C16,23.414,18.23,21.183,19.707,19.707z M32,38H16v-8h16V38
	z M31,46H17c-0.552,0-1-0.449-1-1v-5h16v5C32,45.551,31.552,46,31,46z"/>
<g id="nyt_x5F_exporter_x5F_info" display="none">
</g>
</svg>
