<?xml version="1.0" encoding="utf-8"?>
<!-- Generator: Adobe Illustrator 17.0.0, SVG Export Plug-In . SVG Version: 6.00 Build 0)  -->
<!DOCTYPE svg PUBLIC "-//W3C//DTD SVG 1.1//EN" "http://www.w3.org/Graphics/SVG/1.1/DTD/svg11.dtd">
<svg version="1.1" id="Layer_1" xmlns="http://www.w3.org/2000/svg" xmlns:xlink="http://www.w3.org/1999/xlink" x="0px" y="0px"
	 width="48px" height="48px" viewBox="0 0 48 48" enable-background="new 0 0 48 48" xml:space="preserve">
<g>
	<path fill="#010101" d="M46,28.556V26c0-7.72-6.28-14-14-14H16C8.28,12,2,18.28,2,26v2.556C0.81,29.25,0,30.526,0,32v2
		c0,1.474,0.81,2.75,2,3.444V39c0,2.757,2.243,5,5,5h34c2.757,0,5-2.244,5-5v-1.556c1.19-0.694,2-1.97,2-3.444v-2
		C48,30.526,47.19,29.25,46,28.556z M4,26c0-6.617,5.383-12,12-12h16c6.617,0,12,5.383,12,12v2H4V26z M44,39c0,1.654-1.346,3-3,3H7
		c-1.654,0-3-1.346-3-3v-1h40V39z M46,34c0,1.103-0.898,2-2,2H4c-1.103,0-2-0.897-2-2v-2c0-1.103,0.897-2,2-2h40
		c1.102,0,2,0.897,2,2V34z"/>
	<circle fill="#010101" cx="14" cy="19" r="1"/>
	<circle fill="#010101" cx="19" cy="17" r="1"/>
	<circle fill="#010101" cx="29" cy="17" r="1"/>
	<circle fill="#010101" cx="24" cy="19" r="1"/>
	<circle fill="#010101" cx="34" cy="19" r="1"/>
</g>
<g id="nyt_x5F_exporter_x5F_info" display="none">
</g>
</svg>
