<?xml version="1.0" encoding="utf-8"?>
<!-- Generator: Adobe Illustrator 17.0.0, SVG Export Plug-In . SVG Version: 6.00 Build 0)  -->
<!DOCTYPE svg PUBLIC "-//W3C//DTD SVG 1.1//EN" "http://www.w3.org/Graphics/SVG/1.1/DTD/svg11.dtd">
<svg version="1.1" id="Layer_1" xmlns="http://www.w3.org/2000/svg" xmlns:xlink="http://www.w3.org/1999/xlink" x="0px" y="0px"
	 width="48px" height="48px" viewBox="0 0 48 48" enable-background="new 0 0 48 48" xml:space="preserve">
<path fill="#010101" d="M47.927,30.624c-0.001-0.002-0.003-0.004-0.004-0.006c-0.051-0.122-0.124-0.232-0.216-0.325L33.696,16.282
	C33.887,15.551,34,14.789,34,14c0-3.378-1.874-6.325-4.635-7.864c1.792-3.174,5.619-4.262,9.642-2.617
	c0.511,0.208,1.095-0.036,1.304-0.547c0.209-0.511-0.036-1.095-0.547-1.304C34.727-0.391,29.727,1.17,27.502,5.361
	C26.707,5.13,25.869,5,25,5c-2.461,0-4.694,0.995-6.32,2.603C7.84,10.059,0,19.842,0,31v13c0,2.206,1.794,4,4,4h43
	c0.552,0,1-0.448,1-1V31.002C48,30.873,47.976,30.745,47.927,30.624z M2,32h44v6H2V32z M32,14c0,0.72-0.11,1.415-0.313,2.07
	c-0.05,0.091-0.083,0.183-0.102,0.282C30.615,19.057,28.034,21,25,21c-3.86,0-7-3.14-7-7s3.14-7,7-7S32,10.14,32,14z M16.849,10.208
	C16.31,11.362,16,12.644,16,14c0,4.962,4.038,9,9,9c3.401,0,6.367-1.898,7.897-4.689L44.586,30H2.044
	C2.459,20.985,8.423,13.115,16.849,10.208z M4,46c-1.103,0-2-0.897-2-2v-4h44v6H4z"/>
<g id="nyt_x5F_exporter_x5F_info" display="none">
</g>
</svg>
