<?xml version="1.0" encoding="utf-8"?>
<!-- Generator: Adobe Illustrator 17.0.0, SVG Export Plug-In . SVG Version: 6.00 Build 0)  -->
<!DOCTYPE svg PUBLIC "-//W3C//DTD SVG 1.1//EN" "http://www.w3.org/Graphics/SVG/1.1/DTD/svg11.dtd">
<svg version="1.1" id="Layer_1" xmlns="http://www.w3.org/2000/svg" xmlns:xlink="http://www.w3.org/1999/xlink" x="0px" y="0px"
	 width="48px" height="48px" viewBox="0 0 48 48" enable-background="new 0 0 48 48" xml:space="preserve">
<g>
	<circle fill="#010101" cx="19" cy="23" r="1"/>
	<circle fill="#010101" cx="21" cy="17" r="1"/>
	<circle fill="#010101" cx="23" cy="28" r="1"/>
	<circle fill="#010101" cx="25" cy="24" r="1"/>
	<circle fill="#010101" cx="27" cy="19" r="1"/>
	<path fill="#010101" d="M31.997,24.917l-2-24C29.953,0.398,29.52,0,29,0H17c-0.52,0-0.953,0.398-0.997,0.917L14,25
		c0,4.624,3.507,8.441,8,8.941V46h-4c-0.552,0-1,0.448-1,1s0.448,1,1,1h10c0.552,0,1-0.448,1-1s-0.448-1-1-1h-4V33.941
		C28.493,33.441,32,29.618,31.997,24.917z M28.08,2l0.835,10H17.087L17.92,2H28.08z M15.997,25.083L16.92,14h12.161L30,25
		c0,3.86-3.14,7-7,7S16,28.86,15.997,25.083z"/>
</g>
<g id="nyt_x5F_exporter_x5F_info" display="none">
</g>
</svg>
