<?xml version="1.0" encoding="utf-8"?>
<!-- Generator: Adobe Illustrator 17.0.0, SVG Export Plug-In . SVG Version: 6.00 Build 0)  -->
<!DOCTYPE svg PUBLIC "-//W3C//DTD SVG 1.1//EN" "http://www.w3.org/Graphics/SVG/1.1/DTD/svg11.dtd">
<svg version="1.1" id="Layer_1" xmlns="http://www.w3.org/2000/svg" xmlns:xlink="http://www.w3.org/1999/xlink" x="0px" y="0px"
	 width="48px" height="48px" viewBox="0 0 48 48" enable-background="new 0 0 48 48" xml:space="preserve">
<path fill="#010101" d="M38,21c0-0.041-0.019-0.076-0.023-0.116c-0.008-0.07-0.018-0.137-0.041-0.202
	c-0.02-0.059-0.047-0.111-0.078-0.164c-0.033-0.058-0.066-0.111-0.109-0.162c-0.041-0.048-0.087-0.087-0.137-0.126
	c-0.05-0.04-0.1-0.076-0.158-0.106c-0.06-0.031-0.122-0.05-0.188-0.069c-0.04-0.011-0.072-0.036-0.114-0.042
	c-0.026-0.004-0.05,0.006-0.075,0.004C37.051,20.013,37.028,20,37,20h-5.471l0.787-6.032C34.923,13.802,37,11.649,37,9
	c0-2.202-1.44-4.054-3.42-4.72l0.411-3.15c0.073-0.548-0.314-1.049-0.862-1.121c-0.555-0.078-1.05,0.314-1.12,0.862l-0.413,3.17
	C29.03,4.251,27,6.381,27,9c0,2.171,1.399,4.004,3.335,4.693L29.513,20H9c-0.027,0-0.049,0.013-0.076,0.015
	c-0.026,0.002-0.05-0.007-0.076-0.003c-0.041,0.006-0.074,0.03-0.113,0.041c-0.067,0.019-0.131,0.039-0.191,0.07
	c-0.056,0.029-0.104,0.064-0.153,0.103c-0.052,0.041-0.099,0.081-0.142,0.131c-0.041,0.048-0.073,0.1-0.104,0.155
	c-0.032,0.056-0.06,0.111-0.081,0.173c-0.021,0.062-0.03,0.126-0.039,0.192C8.019,20.919,8,20.956,8,21
	c0,0.027,0.013,0.05,0.016,0.077c0.002,0.026-0.007,0.049-0.003,0.075l3.391,22.047C11.811,45.846,14.322,48,17,48h12
	c2.678,0,5.188-2.154,5.597-4.802l3.392-22.046c0.004-0.027-0.006-0.052-0.004-0.079C37.987,21.047,38,21.026,38,21z M29,9
	c0-1.654,1.346-3,3-3s3,1.346,3,3s-1.346,3-3,3S29,10.654,29,9z M35.835,22l-1.231,8h-4.379l1.043-8H35.835z M28.209,30H11.397
	l-1.231-8h19.086L28.209,30z M13.381,42.894L11.705,32h16.243l-1.826,14H17C15.297,46,13.64,44.578,13.381,42.894z M32.62,42.894
	C32.36,44.578,30.703,46,29,46h-0.862l1.826-14h4.332L32.62,42.894z"/>
<g id="nyt_x5F_exporter_x5F_info" display="none">
</g>
</svg>
