<?xml version="1.0" encoding="utf-8"?>
<!-- Generator: Adobe Illustrator 17.0.0, SVG Export Plug-In . SVG Version: 6.00 Build 0)  -->
<!DOCTYPE svg PUBLIC "-//W3C//DTD SVG 1.1//EN" "http://www.w3.org/Graphics/SVG/1.1/DTD/svg11.dtd">
<svg version="1.1" id="Layer_1" xmlns="http://www.w3.org/2000/svg" xmlns:xlink="http://www.w3.org/1999/xlink" x="0px" y="0px"
	 width="48px" height="48px" viewBox="0 0 48 48" enable-background="new 0 0 48 48" xml:space="preserve">
<path fill="#010101" d="M41,4c-3.859,0-7,3.14-7,7c0,0.339,0.037,0.671,0.084,1H15.455L8.454,4H0v2h7.546l5.25,6H9
	c-0.404,0-0.77,0.244-0.924,0.617c-0.155,0.374-0.069,0.804,0.217,1.09L24,29.414V46h-7c-0.553,0-1,0.448-1,1s0.447,1,1,1h16
	c0.553,0,1-0.448,1-1s-0.447-1-1-1h-7V29.414l12.065-12.065C38.981,17.771,39.98,18,41,18c3.859,0,7-3.14,7-7S44.859,4,41,4z
	 M38.586,14L25,27.586L11.414,14H38.586z M41,16c-0.473,0-0.94-0.068-1.389-0.197l2.096-2.096c0.286-0.286,0.372-0.716,0.217-1.09
	C41.769,12.244,41.404,12,41,12h-4.89C36.044,11.674,36,11.342,36,11c0-2.757,2.243-5,5-5s5,2.243,5,5S43.757,16,41,16z"/>
<g id="nyt_x5F_exporter_x5F_info" display="none">
</g>
</svg>
