<?xml version="1.0" encoding="utf-8"?>
<!-- Generator: Adobe Illustrator 17.0.0, SVG Export Plug-In . SVG Version: 6.00 Build 0)  -->
<!DOCTYPE svg PUBLIC "-//W3C//DTD SVG 1.1//EN" "http://www.w3.org/Graphics/SVG/1.1/DTD/svg11.dtd">
<svg version="1.1" id="Layer_1" xmlns="http://www.w3.org/2000/svg" xmlns:xlink="http://www.w3.org/1999/xlink" x="0px" y="0px"
	 width="48px" height="48px" viewBox="0 0 48 48" enable-background="new 0 0 48 48" xml:space="preserve">
<g>
	<path fill="#010101" d="M48,24c0-6.831-5.299-12.436-12-12.949V7c0-0.552-0.447-1-1-1H1C0.447,6,0,6.448,0,7v30
		c0,4.962,4.037,9,9,9h18c4.963,0,9-4.038,9-9v-0.051C42.701,36.436,48,30.831,48,24z M36,18.09c2.833,0.478,5,2.942,5,5.91
		s-2.167,5.432-5,5.91V18.09z M34,37c0,3.86-3.141,7-7,7H9c-3.859,0-7-3.14-7-7V8h32V37z M36,34.949v-3.019
		c3.94-0.495,7-3.859,7-7.931s-3.06-7.436-7-7.931v-3.019C41.598,13.558,46,18.273,46,24S41.598,34.442,36,34.949z"/>
	<path fill="#010101" d="M7,13c-0.553,0-1,0.448-1,1v22c0,0.552,0.447,1,1,1s1-0.448,1-1V14C8,13.448,7.553,13,7,13z"/>
</g>
<g id="nyt_x5F_exporter_x5F_info" display="none">
</g>
</svg>
