<?xml version="1.0" encoding="utf-8"?>
<!-- Generator: Adobe Illustrator 17.0.0, SVG Export Plug-In . SVG Version: 6.00 Build 0)  -->
<!DOCTYPE svg PUBLIC "-//W3C//DTD SVG 1.1//EN" "http://www.w3.org/Graphics/SVG/1.1/DTD/svg11.dtd">
<svg version="1.1" id="Layer_1" xmlns="http://www.w3.org/2000/svg" xmlns:xlink="http://www.w3.org/1999/xlink" x="0px" y="0px"
	 width="48px" height="48px" viewBox="0 0 48 48" enable-background="new 0 0 48 48" xml:space="preserve">
<path fill="#010101" d="M47,46H27.729C32.655,43.269,36,38.02,36,32h4c3.991,0,7-3.439,7-8c0-4.56-3.009-8-7-8h-4v-1
	c0-0.552-0.448-1-1-1H5c-0.552,0-1,0.448-1,1v17c0,6.02,3.345,11.269,8.271,14H1c-0.552,0-1,0.448-1,1s0.448,1,1,1h46
	c0.552,0,1-0.448,1-1S47.552,46,47,46z M40,18c3.248,0,5,3.091,5,6s-1.752,6-5,6h-4V18H40z M6,32V16h28v16c0,7.72-6.28,14-14,14
	S6,39.72,6,32z"/>
<g id="nyt_x5F_exporter_x5F_info" display="none">
</g>
</svg>
