<?xml version="1.0" encoding="utf-8"?>
<!-- Generator: Adobe Illustrator 17.1.0, SVG Export Plug-In . SVG Version: 6.00 Build 0)  -->
<!DOCTYPE svg PUBLIC "-//W3C//DTD SVG 1.0//EN" "http://www.w3.org/TR/2001/REC-SVG-20010904/DTD/svg10.dtd">
<svg version="1.0" id="Layer_1" xmlns="http://www.w3.org/2000/svg" xmlns:xlink="http://www.w3.org/1999/xlink" x="0px" y="0px"
	 width="48px" height="48px" viewBox="0 0 48 48" enable-background="new 0 0 48 48" xml:space="preserve">
<g>
	<path d="M44,0H7C6.447,0,6,0.447,6,1v20c0,0.553,0.447,1,1,1h3v5H9c-0.553,0-1,0.447-1,1v1H1c-0.553,0-1,0.447-1,1
		c0,0.553,0.447,1,1,1h7v1c0,0.553,0.447,1,1,1h3v1c0,0.553,0.447,1,1,1s1-0.447,1-1v-1h3c0.553,0,1-0.447,1-1v-4
		c0-0.553-0.447-1-1-1h-1v-5h4v18H1c-0.553,0-1,0.447-1,1v6c0,0.553,0.447,1,1,1h46c0.553,0,1-0.447,1-1V4C48,1.794,46.206,0,44,0z
		 M16,31h-6v-2h6V31z M14,27h-2v-5h2V27z M2,42h19c0.553,0,1-0.447,1-1V21c0-0.553-0.447-1-1-1H8V2h36c1.103,0,2,0.898,2,2v6H35
		c-0.553,0-1,0.447-1,1c0,0.553,0.447,1,1,1h11v2H35c-0.553,0-1,0.447-1,1c0,0.553,0.447,1,1,1h11v2H35c-0.553,0-1,0.447-1,1
		c0,0.553,0.447,1,1,1h11v4h-9c-0.553,0-1,0.447-1,1v21H2V42z M38,46V26h8v20H38z"/>
	<path d="M14,4c-2.206,0-4,1.794-4,4s1.794,4,4,4s4-1.794,4-4S16.206,4,14,4z M14,10c-1.102,0-2-0.898-2-2s0.898-2,2-2s2,0.898,2,2
		S15.103,10,14,10z"/>
</g>
</svg>
