<?xml version="1.0" encoding="utf-8"?>
<!-- Generator: Adobe Illustrator 17.0.0, SVG Export Plug-In . SVG Version: 6.00 Build 0)  -->
<!DOCTYPE svg PUBLIC "-//W3C//DTD SVG 1.1//EN" "http://www.w3.org/Graphics/SVG/1.1/DTD/svg11.dtd">
<svg version="1.1" id="Layer_1" xmlns="http://www.w3.org/2000/svg" xmlns:xlink="http://www.w3.org/1999/xlink" x="0px" y="0px"
	 width="48px" height="48px" viewBox="0 0 48 48" enable-background="new 0 0 48 48" xml:space="preserve">
<g>
	<path fill="#010101" d="M47,42h-2h-2.051c-0.467-8.911-7.084-16.202-15.687-17.699C27.723,23.649,28,22.858,28,22
		c0-2.206-1.794-4-4-4s-4,1.794-4,4c0,0.858,0.277,1.649,0.738,2.301C12.135,25.798,5.518,33.089,5.051,42H3H1c-0.552,0-1,0.448-1,1
		s0.448,1,1,1h1.586l3.707,3.707C6.48,47.895,6.735,48,7,48h34c0.265,0,0.519-0.105,0.707-0.293L45.414,44H47c0.552,0,1-0.448,1-1
		S47.552,42,47,42z M22,22c0-1.103,0.897-2,2-2s2,0.897,2,2s-0.897,2-2,2S22,23.103,22,22z M24,26c9.036,0,16.427,7.092,16.949,16
		H7.051C7.573,33.092,14.964,26,24,26z M40.586,46H7.414l-2-2h37.172L40.586,46z"/>
	<path fill="#010101" d="M24,29c-4.799,0-9.21,2.416-11.797,6.461c-0.298,0.465-0.162,1.084,0.303,1.381
		C12.673,36.949,12.859,37,13.044,37c0.329,0,0.652-0.163,0.843-0.461C16.105,33.071,19.886,31,24,31c0.552,0,1-0.448,1-1
		S24.552,29,24,29z"/>
</g>
<g id="nyt_x5F_exporter_x5F_info" display="none">
</g>
</svg>
