<?xml version="1.0" encoding="utf-8"?>
<!-- Generator: Adobe Illustrator 17.0.0, SVG Export Plug-In . SVG Version: 6.00 Build 0)  -->
<!DOCTYPE svg PUBLIC "-//W3C//DTD SVG 1.1//EN" "http://www.w3.org/Graphics/SVG/1.1/DTD/svg11.dtd">
<svg version="1.1" id="Layer_1" xmlns="http://www.w3.org/2000/svg" xmlns:xlink="http://www.w3.org/1999/xlink" x="0px" y="0px"
	 width="48px" height="48px" viewBox="0 0 48 48" enable-background="new 0 0 48 48" xml:space="preserve">
<g>
	<path fill="#010101" d="M31,0c-0.552,0-1.009,0.447-1.009,0.999c0,0.016,0.008,0.029,0.009,0.045V47c0,0.552,0.448,1,1,1
		s1-0.448,1-1V31h5c0.552,0,1-0.448,1-1C38,15.512,35.187,0,31,0z M32,29V3.255C33.622,6.421,35.889,15.448,35.996,29H32z"/>
	<path fill="#010101" d="M23,0c-0.552,0-1,0.448-1,1v10c0,2.415-1.721,4.434-4,4.899V1c0-0.552-0.448-1-1-1s-1,0.448-1,1v14.899
		c-2.279-0.465-4-2.484-4-4.899V1c0-0.552-0.448-1-1-1s-1,0.448-1,1v10c0,3.52,2.613,6.432,6,6.92V47c0,0.552,0.448,1,1,1
		s1-0.448,1-1V17.92c3.387-0.488,6-3.401,6-6.92V1C24,0.448,23.552,0,23,0z"/>
</g>
<g id="nyt_x5F_exporter_x5F_info" display="none">
</g>
</svg>
