<?xml version="1.0" encoding="utf-8"?>
<!-- Generator: Adobe Illustrator 17.0.0, SVG Export Plug-In . SVG Version: 6.00 Build 0)  -->
<!DOCTYPE svg PUBLIC "-//W3C//DTD SVG 1.1//EN" "http://www.w3.org/Graphics/SVG/1.1/DTD/svg11.dtd">
<svg version="1.1" id="Layer_1" xmlns="http://www.w3.org/2000/svg" xmlns:xlink="http://www.w3.org/1999/xlink" x="0px" y="0px"
	 width="48px" height="48px" viewBox="0 0 48 48" enable-background="new 0 0 48 48" xml:space="preserve">
<g>
	<path fill="#010101" d="M24,38c-2.757,0-5,2.243-5,5s2.243,5,5,5s5-2.243,5-5S26.757,38,24,38z M24,46c-1.654,0-3-1.346-3-3
		s1.346-3,3-3s3,1.346,3,3S25.654,46,24,46z"/>
	<path fill="#010101" d="M19,21c0,2.757,2.243,5,5,5s5-2.243,5-5s-2.243-5-5-5S19,18.243,19,21z M27,21c0,1.654-1.346,3-3,3
		s-3-1.346-3-3s1.346-3,3-3S27,19.346,27,21z"/>
	<path fill="#010101" d="M17,22c0-2.757-2.243-5-5-5s-5,2.243-5,5s2.243,5,5,5S17,24.757,17,22z M12,25c-1.654,0-3-1.346-3-3
		s1.346-3,3-3s3,1.346,3,3S13.654,25,12,25z"/>
	<path fill="#010101" d="M36,17c-2.757,0-5,2.243-5,5s2.243,5,5,5s5-2.243,5-5S38.757,17,36,17z M36,25c-1.654,0-3-1.346-3-3
		s1.346-3,3-3s3,1.346,3,3S37.654,25,36,25z"/>
	<path fill="#010101" d="M30,28c-2.757,0-5,2.243-5,5s2.243,5,5,5s5-2.243,5-5S32.757,28,30,28z M30,36c-1.654,0-3-1.346-3-3
		s1.346-3,3-3s3,1.346,3,3S31.654,36,30,36z"/>
	<path fill="#010101" d="M23,33c0-2.757-2.243-5-5-5s-5,2.243-5,5s2.243,5,5,5S23,35.757,23,33z M18,36c-1.654,0-3-1.346-3-3
		s1.346-3,3-3s3,1.346,3,3S19.654,36,18,36z"/>
	<path fill="#010101" d="M24,14c0.552,0,1-0.448,1-1V1c0-0.552-0.448-1-1-1s-1,0.448-1,1v12C23,13.552,23.448,14,24,14z"/>
	<path fill="#010101" d="M44.843,2.461C44.7,2.237,44.474,2.08,44.215,2.023c-1.173-0.258-2.353-0.388-3.507-0.388
		c-6.827,0-12.199,4.377-13.684,11.15c-0.057,0.259-0.009,0.53,0.134,0.753c0.143,0.224,0.369,0.381,0.628,0.438
		c1.172,0.258,2.352,0.388,3.508,0.388c6.824,0,12.195-4.376,13.683-11.15C45.034,2.956,44.986,2.685,44.843,2.461z M31.293,12.364
		c-0.677,0-1.366-0.051-2.057-0.154c1.562-5.243,5.965-8.574,11.471-8.574c0.677,0,1.366,0.051,2.057,0.153
		C41.2,9.033,36.797,12.364,31.293,12.364z"/>
	<path fill="#010101" d="M16.707,14.364c1.154,0,2.334-0.13,3.508-0.388c0.259-0.057,0.485-0.214,0.628-0.438
		c0.143-0.223,0.191-0.494,0.134-0.753c-1.488-6.773-6.859-11.15-13.684-11.15c-1.154,0-2.334,0.131-3.507,0.388
		C3.527,2.08,3.301,2.237,3.157,2.461C3.014,2.684,2.966,2.955,3.023,3.214C4.509,9.987,9.88,14.364,16.707,14.364z M7.293,3.636
		c5.504,0,9.907,3.33,11.471,8.576c-0.691,0.102-1.38,0.153-2.057,0.153c-5.506,0-9.909-3.331-11.471-8.575
		C5.927,3.687,6.616,3.636,7.293,3.636z"/>
</g>
<g id="nyt_x5F_exporter_x5F_info" display="none">
</g>
</svg>
