<?xml version="1.0" encoding="utf-8"?>
<!-- Generator: Adobe Illustrator 17.0.0, SVG Export Plug-In . SVG Version: 6.00 Build 0)  -->
<!DOCTYPE svg PUBLIC "-//W3C//DTD SVG 1.1//EN" "http://www.w3.org/Graphics/SVG/1.1/DTD/svg11.dtd">
<svg version="1.1" id="Layer_1" xmlns="http://www.w3.org/2000/svg" xmlns:xlink="http://www.w3.org/1999/xlink" x="0px" y="0px"
	 width="48px" height="48px" viewBox="0 0 48 48" enable-background="new 0 0 48 48" xml:space="preserve">
<g>
	<path fill="#010101" d="M38.839,8.947c0-0.003-0.002-0.005-0.002-0.008C38.803,4.005,34.781,0,29.84,0h-12
		c-4.941,0-8.963,4.005-8.997,8.938c0,0.003-0.002,0.005-0.002,0.009L7.006,43.791c-0.057,1.091,0.342,2.171,1.093,2.961
		C8.85,47.545,9.907,48,11,48h25.676c1.093,0,2.15-0.455,2.901-1.247c0.751-0.79,1.151-1.868,1.096-2.962L38.839,8.947z M17.84,2h12
		c3.521,0,6.442,2.612,6.929,6H10.911C11.398,4.612,14.319,2,17.84,2z M38.126,45.377C37.751,45.773,37.222,46,36.676,46H11
		c-0.546,0-1.075-0.227-1.452-0.624c-0.375-0.395-0.574-0.935-0.546-1.479L10.789,10h26.102l1.785,33.894
		C38.703,44.441,38.503,44.981,38.126,45.377z"/>
	<path fill="#010101" d="M14.84,18c1.103,0,2-0.897,2-2s-0.897-2-2-2c-1.103,0-2,0.897-2,2S13.737,18,14.84,18z M14.841,16l-0.001,1
		l-0.001-0.999C14.839,16.001,14.84,16,14.841,16z"/>
	<path fill="#010101" d="M20.84,18c1.103,0,2-0.897,2-2s-0.897-2-2-2c-1.103,0-2,0.897-2,2S19.737,18,20.84,18z M20.841,16l-0.001,1
		l-0.001-0.999L20.841,16z"/>
	<path fill="#010101" d="M26.84,18c1.103,0,2-0.897,2-2s-0.897-2-2-2c-1.103,0-2,0.897-2,2S25.737,18,26.84,18z M26.841,16l-0.001,1
		l-0.001-0.999L26.841,16z"/>
	<path fill="#010101" d="M32.84,14c-1.103,0-2,0.897-2,2s0.897,2,2,2c1.103,0,2-0.897,2-2S33.943,14,32.84,14z M32.84,17
		l-0.001-0.999c0,0,0.001-0.001,0.002-0.001L32.84,17z"/>
	<path fill="#010101" d="M15.84,22c0,1.103,0.897,2,2,2c1.103,0,2-0.897,2-2s-0.897-2-2-2C16.737,20,15.84,20.897,15.84,22z
		 M17.841,22l-0.001,1l-0.001-0.999L17.841,22z"/>
	<path fill="#010101" d="M21.84,22c0,1.103,0.897,2,2,2c1.103,0,2-0.897,2-2s-0.897-2-2-2C22.737,20,21.84,20.897,21.84,22z
		 M23.841,22l-0.001,1l-0.001-0.999L23.841,22z"/>
	<path fill="#010101" d="M31.84,22c0-1.103-0.897-2-2-2c-1.103,0-2,0.897-2,2s0.897,2,2,2C30.943,24,31.84,23.103,31.84,22z
		 M29.841,22l-0.001,1l-0.001-0.999L29.841,22z"/>
	<path fill="#010101" d="M19.84,34c0-1.103-0.897-2-2-2c-1.103,0-2,0.897-2,2s0.897,2,2,2C18.943,36,19.84,35.103,19.84,34z
		 M17.84,35l-0.001-0.999L17.841,34L17.84,35z"/>
	<path fill="#010101" d="M25.84,34c0-1.103-0.897-2-2-2c-1.103,0-2,0.897-2,2s0.897,2,2,2C24.943,36,25.84,35.103,25.84,34z
		 M23.84,35l-0.001-0.999L23.841,34L23.84,35z"/>
	<path fill="#010101" d="M31.84,34c0-1.103-0.897-2-2-2c-1.103,0-2,0.897-2,2s0.897,2,2,2C30.943,36,31.84,35.103,31.84,34z
		 M29.84,35l-0.001-0.999L29.841,34L29.84,35z"/>
	<path fill="#010101" d="M14.84,30c1.103,0,2-0.897,2-2s-0.897-2-2-2c-1.103,0-2,0.897-2,2S13.737,30,14.84,30z M14.841,28l-0.001,1
		l-0.001-0.999C14.839,28.001,14.84,28,14.841,28z"/>
	<path fill="#010101" d="M20.84,26c-1.103,0-2,0.897-2,2s0.897,2,2,2c1.103,0,2-0.897,2-2S21.943,26,20.84,26z M20.84,29
		l-0.001-0.999L20.841,28L20.84,29z"/>
	<path fill="#010101" d="M26.84,26c-1.103,0-2,0.897-2,2s0.897,2,2,2c1.103,0,2-0.897,2-2S27.943,26,26.84,26z M26.84,29
		l-0.001-0.999L26.841,28L26.84,29z"/>
	<path fill="#010101" d="M32.84,26c-1.103,0-2,0.897-2,2s0.897,2,2,2c1.103,0,2-0.897,2-2S33.943,26,32.84,26z M32.84,29
		l-0.001-0.999c0,0,0.001-0.001,0.002-0.001L32.84,29z"/>
	<path fill="#010101" d="M14.84,38c-1.103,0-2,0.897-2,2s0.897,2,2,2c1.103,0,2-0.897,2-2S15.943,38,14.84,38z M14.84,41
		l-0.001-0.999c0,0,0.001-0.001,0.002-0.001L14.84,41z"/>
	<path fill="#010101" d="M20.84,38c-1.103,0-2,0.897-2,2s0.897,2,2,2c1.103,0,2-0.897,2-2S21.943,38,20.84,38z M20.84,41
		l-0.001-0.999L20.841,40L20.84,41z"/>
	<path fill="#010101" d="M26.84,38c-1.103,0-2,0.897-2,2s0.897,2,2,2c1.103,0,2-0.897,2-2S27.943,38,26.84,38z M26.84,41
		l-0.001-0.999L26.841,40L26.84,41z"/>
	<path fill="#010101" d="M32.84,38c-1.103,0-2,0.897-2,2s0.897,2,2,2c1.103,0,2-0.897,2-2S33.943,38,32.84,38z M32.84,41
		l-0.001-0.999c0,0,0.001-0.001,0.002-0.001L32.84,41z"/>
</g>
<g id="nyt_x5F_exporter_x5F_info" display="none">
</g>
</svg>
