<?xml version="1.0" encoding="utf-8"?>
<!-- Generator: Adobe Illustrator 17.0.0, SVG Export Plug-In . SVG Version: 6.00 Build 0)  -->
<!DOCTYPE svg PUBLIC "-//W3C//DTD SVG 1.1//EN" "http://www.w3.org/Graphics/SVG/1.1/DTD/svg11.dtd">
<svg version="1.1" id="Layer_1" xmlns="http://www.w3.org/2000/svg" xmlns:xlink="http://www.w3.org/1999/xlink" x="0px" y="0px"
	 width="48px" height="48px" viewBox="0 0 48 48" enable-background="new 0 0 48 48" xml:space="preserve">
<g>
	<path fill="#010101" d="M39,6h-1.279l-1.772-5.316C35.812,0.275,35.431,0,35,0H11c-0.431,0-0.813,0.275-0.949,0.684L8.279,6H7
		C6.448,6,6,6.448,6,7v8c0,0.552,0.448,1,1,1h1.061l1.941,31.063C10.035,47.589,10.472,48,11,48h24c0.528,0,0.965-0.411,0.998-0.938
		L37.939,16H39c0.552,0,1-0.448,1-1V7C40,6.448,39.552,6,39,6z M11.721,2H34.28l1.333,4H10.387L11.721,2z M10.564,24h24.871
		L34.81,34H11.189L10.564,24z M11.939,46l-0.625-10h23.371L34.06,46H11.939z M35.56,22H10.439l-0.375-6h25.871L35.56,22z M38,14h-1
		H9H8V8h1h28h0.02H38V14z"/>
	<path fill="#010101" d="M28,28H18c-0.552,0-1,0.448-1,1s0.448,1,1,1h10c0.552,0,1-0.448,1-1S28.552,28,28,28z"/>
</g>
<g id="nyt_x5F_exporter_x5F_info" display="none">
</g>
</svg>
