<?xml version="1.0" encoding="utf-8"?>
<!-- Generator: Adobe Illustrator 17.0.0, SVG Export Plug-In . SVG Version: 6.00 Build 0)  -->
<!DOCTYPE svg PUBLIC "-//W3C//DTD SVG 1.1//EN" "http://www.w3.org/Graphics/SVG/1.1/DTD/svg11.dtd">
<svg version="1.1" id="Layer_1" xmlns="http://www.w3.org/2000/svg" xmlns:xlink="http://www.w3.org/1999/xlink" x="0px" y="0px"
	 width="48px" height="48px" viewBox="0 0 48 48" enable-background="new 0 0 48 48" xml:space="preserve">
<g>
	<path fill="#010101" d="M14.962,33.042c-0.189-0.188-0.292-0.439-0.292-0.705c-0.001-0.267,0.103-0.518,0.294-0.708
		c0.388-0.39,1.024-0.389,1.413-0.001c1.133,1.137,3.113,1.135,4.242,0.002c0.567-0.566,0.88-1.319,0.88-2.121
		c0-0.803-0.313-1.556-0.878-2.121c-0.391-0.391-0.391-1.026,0-1.417c0.187-0.188,0.438-0.292,0.705-0.292
		c0.268,0,0.518,0.104,0.708,0.293c1.17,1.17,3.072,1.17,4.242,0c0.567-0.567,0.88-1.321,0.879-2.123
		c-0.001-0.802-0.312-1.554-0.878-2.118c-0.39-0.391-0.391-1.025-0.001-1.415c0.391-0.39,1.023-0.39,1.414,0
		c0.566,0.567,1.32,0.879,2.123,0.879c0,0,0.001,0,0.002,0c0.802-0.001,1.554-0.313,2.119-0.879c1.167-1.167,1.168-3.07,0-4.244
		c-0.389-0.389-0.389-1.022,0.001-1.413c0.375-0.377,1.034-0.376,1.413,0.001c1.17,1.17,3.072,1.17,4.242,0
		c0.567-0.567,0.88-1.322,0.879-2.124s-0.315-1.554-0.879-2.116c-0.391-0.393-0.392-1.028-0.003-1.417
		c0.391-0.39,1.026-0.39,1.417,0.001c0.391,0.391,1.023,0.391,1.414,0c0.391-0.391,0.391-1.023,0-1.414
		c-1.168-1.169-3.072-1.172-4.244-0.002c-1.167,1.167-1.168,3.07,0.002,4.246c0.189,0.187,0.292,0.437,0.293,0.704
		c0,0.268-0.104,0.519-0.293,0.708c-0.391,0.39-1.024,0.39-1.415-0.001c-1.136-1.133-3.113-1.131-4.242,0.002
		c-1.167,1.17-1.167,3.072-0.001,4.238c0.391,0.392,0.392,1.027,0.001,1.418c-0.187,0.188-0.438,0.292-0.706,0.292
		c-0.269,0-0.52-0.104-0.709-0.293c-1.17-1.17-3.072-1.17-4.242,0c-1.168,1.168-1.169,3.071,0.001,4.243
		c0.188,0.188,0.292,0.438,0.292,0.705c0,0.267-0.104,0.519-0.293,0.708c-0.379,0.378-1.035,0.378-1.414,0
		c-0.566-0.567-1.32-0.879-2.122-0.879c0,0-0.001,0-0.002,0c-0.801,0.001-1.554,0.313-2.118,0.879
		c-1.169,1.169-1.169,3.073,0.001,4.245c0.188,0.188,0.292,0.439,0.292,0.706c0,0.267-0.104,0.517-0.294,0.707
		c-0.377,0.378-1.033,0.38-1.414-0.002c-1.17-1.168-3.074-1.167-4.24,0c-0.569,0.567-0.882,1.322-0.881,2.124
		c0,0.802,0.313,1.556,0.878,2.118c0.39,0.392,0.39,1.028,0.003,1.417c-0.393,0.389-1.028,0.39-1.415,0.002
		c-0.565-0.568-1.318-0.882-2.12-0.882c-0.001,0-0.002,0-0.002,0c-0.803,0-1.557,0.313-2.121,0.879
		c-0.568,0.566-0.88,1.319-0.88,2.121c0,0.801,0.312,1.555,0.878,2.122c0.195,0.196,0.451,0.294,0.708,0.294
		c0.255,0,0.51-0.097,0.706-0.292c0.392-0.39,0.392-1.023,0.002-1.414c-0.19-0.189-0.294-0.441-0.294-0.709
		c0-0.267,0.104-0.517,0.294-0.707c0.188-0.189,0.439-0.293,0.707-0.293c0.267,0,0.517,0.104,0.707,0.295
		c1.168,1.165,3.071,1.167,4.245-0.003C16.129,36.117,16.129,34.214,14.962,33.042z"/>
	<path fill="#010101" d="M45.177,10.963c0.394-2.183-0.247-4.519-1.93-6.203c-1.321-1.321-3.079-2.049-4.949-2.049
		c-0.415,0-0.822,0.042-1.223,0.112c-4.518-3.7-9.318-3.788-12.918-0.184L2.942,23.853c-2.947,2.945-4.07,8.177,0.191,12.89
		c-0.394,2.184,0.247,4.52,1.931,6.203c1.322,1.322,3.08,2.049,4.95,2.049c0.428,0,0.849-0.043,1.261-0.117
		c1.945,1.828,4.2,2.81,6.56,2.826c0.019,0,0.037,0,0.057,0c2.305,0,4.586-0.959,6.265-2.637l21.211-21.213
		C48.39,20.832,49.436,15.722,45.177,10.963z M4.356,25.268L25.573,4.052c2.584-2.585,5.899-2.711,9.26-0.421
		c-0.536,0.306-1.038,0.68-1.486,1.129L5.064,33.043c-0.461,0.461-0.838,0.975-1.143,1.517C1.337,31.051,2.168,27.454,4.356,25.268z
		 M10.013,42.995c-1.336,0-2.592-0.52-3.536-1.463c-1.949-1.95-1.949-5.123,0-7.074L34.761,6.175c0.944-0.944,2.2-1.464,3.537-1.464
		c1.336,0,2.592,0.52,3.534,1.464c1.948,1.949,1.948,5.122,0,7.072L13.547,41.532C12.604,42.475,11.348,42.995,10.013,42.995z
		 M43.954,22.44L22.743,43.652c-1.317,1.317-3.098,2.055-4.895,2.052c-1.54-0.01-3.042-0.565-4.411-1.605
		c0.551-0.31,1.066-0.693,1.525-1.153L43.247,14.66c0.459-0.46,0.835-0.971,1.139-1.511C47.133,16.88,45.978,20.416,43.954,22.44z"
		/>
</g>
<g id="nyt_x5F_exporter_x5F_info" display="none">
</g>
</svg>
