<?xml version="1.0" encoding="utf-8"?>
<!-- Generator: Adobe Illustrator 17.0.0, SVG Export Plug-In . SVG Version: 6.00 Build 0)  -->
<!DOCTYPE svg PUBLIC "-//W3C//DTD SVG 1.1//EN" "http://www.w3.org/Graphics/SVG/1.1/DTD/svg11.dtd">
<svg version="1.1" id="Layer_1" xmlns="http://www.w3.org/2000/svg" xmlns:xlink="http://www.w3.org/1999/xlink" x="0px" y="0px"
	 width="48px" height="48px" viewBox="0 0 48 48" enable-background="new 0 0 48 48" xml:space="preserve">
<path fill="#010101" d="M39,10H13.522L6.82,0.427L5.181,1.574L11.08,10H9c-0.552,0-1,0.448-1,1v6c0,0.552,0.448,1,1,1h2.064
	l1.938,29.066C13.037,47.592,13.474,48,14,48h20c0.526,0,0.963-0.408,0.997-0.933L36.935,18H39c0.552,0,1-0.448,1-1v-6
	C40,10.448,39.552,10,39,10z M13.612,26.15C15.485,26.621,17,28.237,17,30c0,1.939-1.187,3.461-2.873,3.877L13.612,26.15z
	 M33.064,46H14.935l-0.673-10.101C16.989,35.395,19,32.987,19,30c0-2.9-2.491-5.47-5.526-5.922L13.069,18h21.862L33.064,46z M38,16
	h-2H12h-2v-4h28V16z"/>
<g id="nyt_x5F_exporter_x5F_info" display="none">
</g>
</svg>
