<?xml version="1.0" encoding="utf-8"?>
<!-- Generator: Adobe Illustrator 17.1.0, SVG Export Plug-In . SVG Version: 6.00 Build 0)  -->
<!DOCTYPE svg PUBLIC "-//W3C//DTD SVG 1.0//EN" "http://www.w3.org/TR/2001/REC-SVG-20010904/DTD/svg10.dtd">
<svg version="1.0" id="Layer_1" xmlns="http://www.w3.org/2000/svg" xmlns:xlink="http://www.w3.org/1999/xlink" x="0px" y="0px"
	 width="48px" height="48px" viewBox="0 0 48 48" enable-background="new 0 0 48 48" xml:space="preserve">
<path d="M41,23.999c0-0.553-0.447-1-1-1h-2.08c-0.488-3.386-3.401-6-6.92-6c-0.027,0-0.053,0.004-0.079,0.004
	c-0.36-2.51-2.051-4.592-4.338-5.504C26.841,11.056,27,10.548,27,9.999c0-1.079-0.577-2.018-1.434-2.547l1.266-1.898
	c0.307-0.46,0.183-1.08-0.277-1.387c-0.461-0.306-1.081-0.183-1.387,0.277l-1.742,2.613C22.046,7.326,21,8.542,21,9.999
	c0,0.549,0.159,1.057,0.417,1.5c-2.287,0.912-3.978,2.994-4.338,5.504c-0.027,0-0.053-0.004-0.079-0.004
	c-0.725,0-1.425,0.111-2.084,0.317L10.973,0.768C10.845,0.23,10.3-0.097,9.769,0.027C9.231,0.155,8.899,0.694,9.027,1.231
	l4.046,16.978c-1.591,1.082-2.707,2.804-2.994,4.791H8c-0.553,0-1,0.447-1,1c0,9.036,7.092,16.427,16,16.949v5.051h-5
	c-0.553,0-1,0.447-1,1s0.447,1,1,1h12c0.553,0,1-0.447,1-1s-0.447-1-1-1h-5v-5.051C33.908,40.427,41,33.036,41,23.999z
	 M35.899,22.999h-9.798c0.465-2.279,2.485-4,4.899-4S35.434,20.72,35.899,22.999z M23,9.999c0-0.552,0.448-1,1-1s1,0.448,1,1
	s-0.448,1-1,1S23,10.551,23,9.999z M24,12.999c2.521,0,4.592,1.883,4.931,4.313c-2.543,0.789-4.463,2.994-4.851,5.687h-0.16
	c-0.388-2.693-2.307-4.898-4.851-5.687C19.408,14.883,21.479,12.999,24,12.999z M17,18.999c2.414,0,4.434,1.721,4.899,4h-9.798
	C12.566,20.72,14.586,18.999,17,18.999z M9.033,24.999h29.934c-0.517,7.807-7.032,14-14.967,14S9.55,32.806,9.033,24.999z"/>
</svg>
