<?xml version="1.0" encoding="utf-8"?>
<!-- Generator: Adobe Illustrator 17.0.0, SVG Export Plug-In . SVG Version: 6.00 Build 0)  -->
<!DOCTYPE svg PUBLIC "-//W3C//DTD SVG 1.1//EN" "http://www.w3.org/Graphics/SVG/1.1/DTD/svg11.dtd">
<svg version="1.1" id="Layer_1" xmlns="http://www.w3.org/2000/svg" xmlns:xlink="http://www.w3.org/1999/xlink" x="0px" y="0px"
	 width="48px" height="48px" viewBox="0 0 48 48" enable-background="new 0 0 48 48" xml:space="preserve">
<path fill="#010101" d="M24,0c-7.72,0-14,6.28-14,14v4c0,2.206,1.794,4,4,4c0.095,0,0.185-0.022,0.278-0.028l8.777,25.355
	C23.194,47.73,23.574,48,24,48s0.806-0.27,0.945-0.673l8.777-25.355C33.815,21.978,33.905,22,34,22c2.206,0,4-1.794,4-4v-4
	C38,6.28,31.72,0,24,0z M24,43.943l-7.822-22.596C17.272,20.632,18,19.402,18,18c0-0.551,0.449-1,1-1s1,0.449,1,1v2
	c0,2.206,1.794,4,4,4s4-1.794,4-4v-2c0-0.551,0.449-1,1-1s1,0.449,1,1c0,1.402,0.728,2.632,1.822,3.347L24,43.943z M36,18
	c0,1.103-0.897,2-2,2s-2-0.897-2-2c0-1.654-1.346-3-3-3s-3,1.346-3,3v2c0,1.103-0.897,2-2,2s-2-0.897-2-2v-2c0-1.654-1.346-3-3-3
	s-3,1.346-3,3c0,1.103-0.897,2-2,2s-2-0.897-2-2v-4c0-6.617,5.383-12,12-12s12,5.383,12,12V18z"/>
<g id="nyt_x5F_exporter_x5F_info" display="none">
</g>
</svg>
