<?xml version="1.0" encoding="utf-8"?>
<!-- Generator: Adobe Illustrator 17.0.0, SVG Export Plug-In . SVG Version: 6.00 Build 0)  -->
<!DOCTYPE svg PUBLIC "-//W3C//DTD SVG 1.1//EN" "http://www.w3.org/Graphics/SVG/1.1/DTD/svg11.dtd">
<svg version="1.1" id="Layer_1" xmlns="http://www.w3.org/2000/svg" xmlns:xlink="http://www.w3.org/1999/xlink" x="0px" y="0px"
	 width="48px" height="48px" viewBox="0 0 48 48" enable-background="new 0 0 48 48" xml:space="preserve">
<path fill="#010101" d="M43,26h-2h-8.047C32.472,18.509,26.764,12,24,12s-8.472,6.509-8.953,14H1c-0.336,0-0.65,0.169-0.835,0.45
	c-0.185,0.28-0.217,0.635-0.084,0.944L6,41.205V43c0,2.757,2.243,5,5,5h26c2.757,0,5-2.243,5-5V28h1c1.654,0,3,1.346,3,3v14
	c0,0.552,0.448,1,1,1s1-0.448,1-1V31C48,28.243,45.757,26,43,26z M30.953,26H25V14.51C26.935,15.938,30.56,20.291,30.953,26z
	 M23,14.509V26h-5.953C17.44,20.289,21.066,15.936,23,14.509z M40,43c0,1.654-1.346,3-3,3H11c-1.654,0-3-1.346-3-3v-2
	c0-0.135-0.027-0.269-0.081-0.394L2.517,28H40V43z"/>
<g id="nyt_x5F_exporter_x5F_info" display="none">
</g>
</svg>
