<?xml version="1.0" encoding="utf-8"?>
<!-- Generator: Adobe Illustrator 17.0.0, SVG Export Plug-In . SVG Version: 6.00 Build 0)  -->
<!DOCTYPE svg PUBLIC "-//W3C//DTD SVG 1.1//EN" "http://www.w3.org/Graphics/SVG/1.1/DTD/svg11.dtd">
<svg version="1.1" id="Layer_1" xmlns="http://www.w3.org/2000/svg" xmlns:xlink="http://www.w3.org/1999/xlink" x="0px" y="0px"
	 width="48px" height="48px" viewBox="0 0 48 48" enable-background="new 0 0 48 48" xml:space="preserve">
<g>
	<path fill="#010101" d="M23.837,0.001C13.242,0.001,1.84,7.511,1.84,24c0,9.101,5.832,22.815,6.081,23.394
		C8.078,47.762,8.44,48,8.84,48h30c0.4,0,0.762-0.238,0.919-0.606C40.007,46.815,45.84,33.101,45.84,24
		C45.84,7.511,34.434,0.001,23.837,0.001z M38.172,46H9.507C8.378,43.237,3.84,31.651,3.84,24c0-15.115,10.366-21.999,19.996-21.999
		c9.634,0,20.003,6.884,20.003,21.999C43.839,31.647,39.301,43.236,38.172,46z"/>
	<path fill="#010101" d="M23.84,32c5.514,0,10-4.486,10-10c0-5.442-4.372-9.874-9.786-9.989C24.035,12.01,24.019,12,24,12
		c-0.011,0-0.021,0.006-0.032,0.006C23.925,12.006,23.883,12,23.84,12c-5.514,0-10,4.486-10,10S18.326,32,23.84,32z M23,14.045V18
		c0,0.552,0.448,1,1,1s1-0.448,1-1v-3.906c3.862,0.565,6.84,3.89,6.84,7.906c0,4.411-3.589,8-8,8c-4.411,0-8-3.589-8-8
		C15.84,17.873,18.982,14.466,23,14.045z"/>
	<path fill="#010101" d="M24,10c0.552,0,1-0.448,1-1V7c0-0.552-0.448-1-1-1s-1,0.448-1,1v2C23,9.552,23.448,10,24,10z"/>
	<path fill="#010101" d="M13.939,13.518c0.195,0.195,0.451,0.293,0.707,0.293s0.512-0.098,0.707-0.292
		c0.391-0.39,0.391-1.023,0.001-1.414l-1.414-1.416c-0.39-0.391-1.023-0.391-1.414-0.001s-0.391,1.023-0.001,1.414L13.939,13.518z"
		/>
	<path fill="#010101" d="M11,21H9c-0.552,0-1,0.448-1,1s0.448,1,1,1h2c0.552,0,1-0.448,1-1S11.552,21,11,21z"/>
	<path fill="#010101" d="M15.353,30.486c-0.391-0.391-1.023-0.391-1.414,0L12.525,31.9c-0.391,0.39-0.391,1.023,0,1.414
		c0.195,0.195,0.451,0.293,0.707,0.293s0.512-0.097,0.707-0.293l1.414-1.414C15.744,31.51,15.744,30.877,15.353,30.486z"/>
	<path fill="#010101" d="M23,35v2c0,0.552,0.448,1,1,1s1-0.448,1-1v-2c0-0.552-0.448-1-1-1S23,34.448,23,35z"/>
	<path fill="#010101" d="M33.738,30.486c-0.39-0.391-1.023-0.391-1.414,0c-0.391,0.391-0.391,1.023,0,1.414l1.414,1.414
		c0.195,0.195,0.451,0.293,0.707,0.293s0.512-0.097,0.707-0.293c0.391-0.391,0.391-1.023,0-1.414L33.738,30.486z"/>
	<path fill="#010101" d="M39,21h-2c-0.552,0-1,0.448-1,1s0.448,1,1,1h2c0.552,0,1-0.448,1-1S39.552,21,39,21z"/>
	<path fill="#010101" d="M33.031,13.811c0.257,0,0.512-0.098,0.707-0.293l1.414-1.416c0.39-0.391,0.39-1.024-0.001-1.414
		c-0.391-0.391-1.024-0.391-1.414,0.001l-1.414,1.416c-0.39,0.391-0.39,1.024,0.001,1.414C32.52,13.713,32.775,13.811,33.031,13.811
		z"/>
	<path fill="#010101" d="M33,42H15c-0.552,0-1,0.448-1,1s0.448,1,1,1h18c0.552,0,1-0.448,1-1S33.552,42,33,42z"/>
</g>
<g id="nyt_x5F_exporter_x5F_info" display="none">
</g>
</svg>
