<?xml version="1.0" encoding="utf-8"?>
<!-- Generator: Adobe Illustrator 17.0.0, SVG Export Plug-In . SVG Version: 6.00 Build 0)  -->
<!DOCTYPE svg PUBLIC "-//W3C//DTD SVG 1.1//EN" "http://www.w3.org/Graphics/SVG/1.1/DTD/svg11.dtd">
<svg version="1.1" id="Layer_1" xmlns="http://www.w3.org/2000/svg" xmlns:xlink="http://www.w3.org/1999/xlink" x="0px" y="0px"
	 width="48px" height="48px" viewBox="0 0 48 48" enable-background="new 0 0 48 48" xml:space="preserve">
<g>
	<path fill="#010101" d="M47.922,20.616c-0.051-0.121-0.124-0.231-0.215-0.323L38,10.586V6c0-3.309-3.14-6-7-6H17
		c-3.86,0-7,2.691-7,6v4.586l-9.707,9.707c-0.092,0.092-0.165,0.203-0.216,0.325C0.026,20.74,0,20.871,0,21.001V47
		c0,0.552,0.448,1,1,1h26h20c0.552,0,1-0.448,1-1V21C48,20.867,47.973,20.736,47.922,20.616z M11.414,12h23.172l-8,8H3.414
		L11.414,12z M37,12.414L44.586,20H29.414L37,12.414z M17,2h14c2.757,0,5,1.794,5,4v4H12V6C12,3.794,14.243,2,17,2z M2,22h24v24H2
		V22z M28,46V22h18v24H28z"/>
	<path fill="#010101" d="M21,26H5c-0.552,0-1,0.448-1,1v8c0,0.552,0.448,1,1,1h16c0.552,0,1-0.448,1-1v-8C22,26.448,21.552,26,21,26
		z M20,34H6v-6h14V34z"/>
</g>
<g id="nyt_x5F_exporter_x5F_info" display="none">
</g>
</svg>
