<?xml version="1.0" encoding="utf-8"?>
<!-- Generator: Adobe Illustrator 17.0.0, SVG Export Plug-In . SVG Version: 6.00 Build 0)  -->
<!DOCTYPE svg PUBLIC "-//W3C//DTD SVG 1.1//EN" "http://www.w3.org/Graphics/SVG/1.1/DTD/svg11.dtd">
<svg version="1.1" id="Layer_1" xmlns="http://www.w3.org/2000/svg" xmlns:xlink="http://www.w3.org/1999/xlink" x="0px" y="0px"
	 width="48px" height="48px" viewBox="0 0 48 48" enable-background="new 0 0 48 48" xml:space="preserve">
<path fill="#010101" d="M26,10.051V2h7c0.553,0,1-0.448,1-1s-0.447-1-1-1H17c-0.553,0-1,0.448-1,1s0.447,1,1,1h7v8.037
	c-0.928,0.049-1.849,0.165-2.758,0.349C21.724,8.669,22,6.868,22,5c0-0.552-0.447-1-1-1C9.972,4,1,12.972,1,24c0,0.552,0.447,1,1,1
	c1.576,0,3.102-0.202,4.573-0.548C6.198,25.952,6,27.475,6,29c0,10.477,8.523,19,19,19s19-8.523,19-19
	C44,18.861,36.011,10.576,26,10.051z M19.971,6.029c-0.516,9.108-7.834,16.426-16.942,16.942
	C3.545,13.863,10.863,6.545,19.971,6.029z M25,46c-9.374,0-17-7.626-17-17c0-1.76,0.296-3.518,0.854-5.236
	c5.259-1.928,9.494-5.986,11.628-11.142c1.15-0.317,2.326-0.515,3.517-0.585v5.345l-2.552-1.276
	c-0.493-0.247-1.094-0.047-1.342,0.447c-0.247,0.494-0.047,1.095,0.447,1.342l4,2c0.009,0.004,0.019,0.003,0.028,0.007
	C24.709,19.961,24.849,20,25,20c0.151,0,0.29-0.038,0.418-0.098c0.009-0.004,0.02-0.002,0.03-0.007l4-2
	c0.494-0.247,0.694-0.848,0.447-1.342c-0.247-0.494-0.848-0.694-1.342-0.447L26,17.382v-5.331C34.908,12.573,42,19.964,42,29
	C42,38.374,34.374,46,25,46z"/>
<g id="nyt_x5F_exporter_x5F_info" display="none">
</g>
</svg>
