<?xml version="1.0" encoding="utf-8"?>
<!-- Generator: Adobe Illustrator 17.0.0, SVG Export Plug-In . SVG Version: 6.00 Build 0)  -->
<!DOCTYPE svg PUBLIC "-//W3C//DTD SVG 1.1//EN" "http://www.w3.org/Graphics/SVG/1.1/DTD/svg11.dtd">
<svg version="1.1" id="Layer_1" xmlns="http://www.w3.org/2000/svg" xmlns:xlink="http://www.w3.org/1999/xlink" x="0px" y="0px"
	 width="48px" height="48px" viewBox="0 0 48 48" enable-background="new 0 0 48 48" xml:space="preserve">
<g>
	<path fill="#010101" d="M7,38h34c0.553,0,1-0.448,1-1V17c0-0.552-0.447-1-1-1H7c-0.553,0-1,0.448-1,1v20C6,37.552,6.447,38,7,38z
		 M8,18h32v18H8V18z"/>
	<path fill="#010101" d="M35,22H13c-0.553,0-1,0.448-1,1s0.447,1,1,1h22c0.553,0,1-0.448,1-1S35.553,22,35,22z"/>
	<path fill="#010101" d="M31,14c1.654,0,3-1.346,3-3s-1.346-3-3-3s-3,1.346-3,3S29.346,14,31,14z M31,10c0.552,0,1,0.449,1,1
		s-0.448,1-1,1s-1-0.449-1-1S30.448,10,31,10z"/>
	<path fill="#010101" d="M39,14c1.654,0,3-1.346,3-3s-1.346-3-3-3s-3,1.346-3,3S37.346,14,39,14z M39,10c0.552,0,1,0.449,1,1
		s-0.448,1-1,1s-1-0.449-1-1S38.448,10,39,10z"/>
	<path fill="#010101" d="M7,14h18c0.553,0,1-0.448,1-1V9c0-0.552-0.447-1-1-1H7C6.447,8,6,8.448,6,9v4C6,13.552,6.447,14,7,14z
		 M8,10h16v2H8V10z"/>
	<path fill="#010101" d="M47,6c0.553,0,1-0.448,1-1V1c0-0.552-0.447-1-1-1H1C0.447,0,0,0.448,0,1v4c0,0.552,0.447,1,1,1h1v34H1
		c-0.553,0-1,0.448-1,1v6c0,0.552,0.447,1,1,1h46c0.553,0,1-0.448,1-1v-6c0-0.552-0.447-1-1-1h-1V6H47z M2,2h44v2h-1H3H2V2z M46,46
		H2v-4h1h42h1V46z M44,40H4V6h40V40z"/>
</g>
<g id="nyt_x5F_exporter_x5F_info" display="none">
</g>
</svg>
