<?xml version="1.0" encoding="utf-8"?>
<!-- Generator: Adobe Illustrator 17.0.0, SVG Export Plug-In . SVG Version: 6.00 Build 0)  -->
<!DOCTYPE svg PUBLIC "-//W3C//DTD SVG 1.1//EN" "http://www.w3.org/Graphics/SVG/1.1/DTD/svg11.dtd">
<svg version="1.1" id="Layer_1" xmlns="http://www.w3.org/2000/svg" xmlns:xlink="http://www.w3.org/1999/xlink" x="0px" y="0px"
	 width="48px" height="48px" viewBox="0 0 48 48" enable-background="new 0 0 48 48" xml:space="preserve">
<g>
	<path fill="#010101" d="M27.622,19.926C27.744,19.976,27.873,20,28,20c0.264,0,0.522-0.104,0.714-0.3l4.226-4.317
		c0.109-0.052,0.214-0.117,0.303-0.21c0.076-0.081,0.125-0.176,0.169-0.272l2.451-2.504c0.155-0.055,0.301-0.134,0.418-0.266
		c0.097-0.109,0.161-0.235,0.201-0.366l1.681-1.717c0.161-0.045,0.316-0.115,0.442-0.241c0.131-0.131,0.202-0.293,0.245-0.461
		L41.441,6.7c0.189-0.194,0.292-0.455,0.285-0.726c-0.008-0.271-0.124-0.526-0.322-0.71C37.718,1.87,32.957,0,28,0
		c-0.553,0-1,0.448-1,1v18C27,19.406,27.246,19.773,27.622,19.926z M29,6.049c2.718,0.206,5.266,1.242,7.349,2.995l-0.967,0.988
		c-1.202-0.894-3.013-0.814-4.089,0.262c-1.086,1.086-1.156,2.921-0.22,4.138L29,16.549V6.049z M32.506,12.968
		c-0.166-0.414-0.103-0.957,0.201-1.261c0.292-0.292,0.808-0.365,1.235-0.205L32.506,12.968z M39.272,6.058l-1.524,1.557
		C35.285,5.499,32.245,4.261,29,4.049V2.028C32.752,2.241,36.336,3.648,39.272,6.058z"/>
	<path fill="#010101" d="M37.435,15.567c-0.391-0.39-1.023-0.391-1.414,0l-2.817,2.817c-0.004,0.004-0.009,0.005-0.013,0.008
		L25,26.585V15v-4c0-0.552-0.447-1-1-1C13.523,10,5,18.523,5,29s8.523,19,19,19s19-8.523,19-19
		C43,23.923,41.023,19.152,37.435,15.567z M23,29c0,0.404,0.243,0.769,0.617,0.924c0.374,0.154,0.804,0.069,1.09-0.217l3.816-3.815
		c0.561,0.456,1.264,0.697,1.977,0.697c0.81,0,1.619-0.294,2.205-0.884c1.086-1.086,1.155-2.921,0.179-4.174l0.989-0.989
		C35.895,22.897,37,25.864,37,29c0,7.169-5.832,13-13,13c-7.168,0-13-5.831-13-13c0-6.831,5.297-12.45,12-12.962V29z M31.292,24.292
		c-0.311,0.311-0.87,0.364-1.322,0.152l1.481-1.48C31.657,23.385,31.613,23.97,31.292,24.292z M24,46c-9.374,0-17-7.626-17-17
		c0-9.038,7.09-16.451,16-16.971v2.022C15.195,14.569,9,21.067,9,29c0,8.271,6.728,15,15,15c8.271,0,15-6.729,15-15
		c0-3.669-1.323-7.128-3.72-9.864l1.428-1.428C39.483,20.82,41,24.793,41,29C41,38.374,33.374,46,24,46z"/>
	<path fill="#010101" d="M19,25c1.654,0,3-1.346,3-3s-1.346-3-3-3s-3,1.346-3,3S17.346,25,19,25z M19,21c0.552,0,1,0.449,1,1
		s-0.448,1-1,1s-1-0.449-1-1S18.448,21,19,21z"/>
	<path fill="#010101" d="M17,34c1.654,0,3-1.346,3-3s-1.346-3-3-3s-3,1.346-3,3S15.346,34,17,34z M17,30c0.552,0,1,0.449,1,1
		s-0.448,1-1,1s-1-0.449-1-1S16.448,30,17,30z"/>
	<path fill="#010101" d="M25,40c1.654,0,3-1.346,3-3s-1.346-3-3-3s-3,1.346-3,3S23.346,40,25,40z M25,36c0.552,0,1,0.449,1,1
		s-0.448,1-1,1s-1-0.449-1-1S24.448,36,25,36z"/>
	<path fill="#010101" d="M32,34c1.654,0,3-1.346,3-3s-1.346-3-3-3s-3,1.346-3,3S30.346,34,32,34z M32,30c0.552,0,1,0.449,1,1
		s-0.448,1-1,1s-1-0.449-1-1S31.448,30,32,30z"/>
</g>
<g id="nyt_x5F_exporter_x5F_info" display="none">
</g>
</svg>
