<?xml version="1.0" encoding="utf-8"?>
<!-- Generator: Adobe Illustrator 17.0.0, SVG Export Plug-In . SVG Version: 6.00 Build 0)  -->
<!DOCTYPE svg PUBLIC "-//W3C//DTD SVG 1.1//EN" "http://www.w3.org/Graphics/SVG/1.1/DTD/svg11.dtd">
<svg version="1.1" id="Layer_1" xmlns="http://www.w3.org/2000/svg" xmlns:xlink="http://www.w3.org/1999/xlink" x="0px" y="0px"
	 width="48px" height="48px" viewBox="0 0 48 48" enable-background="new 0 0 48 48" xml:space="preserve">
<g>
	<path fill="#010101" d="M42,14H8c-0.276,0-0.54,0.114-0.729,0.316c-0.189,0.201-0.287,0.472-0.269,0.747l2,32
		C9.035,47.589,9.472,48,10,48h30c0.528,0,0.965-0.411,0.998-0.938l2-32c0.017-0.275-0.08-0.546-0.27-0.747
		C42.54,14.114,42.276,14,42,14z M40.435,24H35v-8h5.935L40.435,24z M17,24v-8h4v8H17z M23,16h4v8h-4V16z M29,16h4v8h-4V16z M15,16
		v8H9.564l-0.5-8H15z M9.689,26H40.31l-0.375,6H10.064L9.689,26z M21,34v12h-4V34H21z M23,34h4v12h-4V34z M29,34h4v12h-4V34z
		 M10.189,34H15v12h-4.061L10.189,34z M35,46V34h4.81l-0.75,12H35z"/>
	<path fill="#010101" d="M8,12c0.553,0,1-0.448,1-1c0-2.555,1.03-4.326,2.828-4.858c1.671-0.495,3.567,0.216,4.524,1.686
		c0.219,0.337,0.621,0.508,1.017,0.438c0.397-0.073,0.711-0.376,0.797-0.77c0.884-4.042,4.229-5.476,6.825-5.476
		c2.604,0,5.958,1.434,6.843,5.476c0.086,0.394,0.401,0.697,0.797,0.77c0.404,0.072,0.799-0.101,1.019-0.439
		c0.955-1.47,2.854-2.18,4.527-1.685C39.971,6.674,41,8.444,41,11c0,0.552,0.447,1,1,1s1-0.448,1-1c0-3.453-1.591-5.986-4.255-6.775
		c-1.891-0.56-3.98-0.092-5.503,1.12c-1.557-3.663-5.098-5.325-8.251-5.325c-3.142,0-6.672,1.659-8.229,5.315
		c-1.519-1.225-3.584-1.68-5.503-1.111C8.592,5.015,7,7.548,7,11C7,11.552,7.447,12,8,12z"/>
</g>
<g id="nyt_x5F_exporter_x5F_info" display="none">
</g>
</svg>
