<?xml version="1.0" encoding="utf-8"?>
<!-- Generator: Adobe Illustrator 17.0.0, SVG Export Plug-In . SVG Version: 6.00 Build 0)  -->
<!DOCTYPE svg PUBLIC "-//W3C//DTD SVG 1.1//EN" "http://www.w3.org/Graphics/SVG/1.1/DTD/svg11.dtd">
<svg version="1.1" id="Layer_1" xmlns="http://www.w3.org/2000/svg" xmlns:xlink="http://www.w3.org/1999/xlink" x="0px" y="0px"
	 width="48px" height="48px" viewBox="0 0 48 48" enable-background="new 0 0 48 48" xml:space="preserve">
<g>
	<path fill="#010101" d="M24,40h-1.573c-0.015-0.016-0.026-0.027-0.042-0.044C21.177,38.672,18.664,36,14,36h-4v-1
		c0-0.552-0.448-1-1-1H1c-0.552,0-1,0.448-1,1v12c0,0.552,0.448,1,1,1h8c0.552,0,1-0.448,1-1v-1h29c0.552,0,1-0.448,1-1
		C40,41.636,34.767,40,24,40z M8,46H2V36h6V46z M10,44v-6h4c2.578,0,4.33,0.996,5.54,2H14c-0.552,0-1,0.448-1,1s0.448,1,1,1h10
		c7.478,0,11.762,0.901,13.321,2H10z"/>
	<circle fill="#010101" cx="5" cy="43" r="1"/>
	<path fill="#010101" d="M47,26h-2h-2.051c-0.467-8.911-7.084-16.202-15.687-17.699C27.723,7.649,28,6.858,28,6c0-2.206-1.794-4-4-4
		s-4,1.794-4,4c0,0.858,0.277,1.649,0.738,2.301C12.135,9.798,5.518,17.089,5.051,26H3H1c-0.552,0-1,0.448-1,1s0.448,1,1,1h1.586
		l3.707,3.707C6.48,31.895,6.735,32,7,32h34c0.266,0,0.52-0.105,0.707-0.293L45.414,28H47c0.552,0,1-0.448,1-1S47.552,26,47,26z
		 M22,6c0-1.103,0.897-2,2-2s2,0.897,2,2s-0.897,2-2,2S22,7.103,22,6z M24,10c9.036,0,16.427,7.092,16.949,16H7.051
		C7.573,17.092,14.964,10,24,10z M40.586,30H7.414l-2-2h37.172L40.586,30z"/>
	<path fill="#010101" d="M24,13c-4.799,0-9.21,2.416-11.798,6.461c-0.298,0.465-0.162,1.083,0.303,1.381
		C12.672,20.949,12.858,21,13.043,21c0.33,0,0.652-0.163,0.843-0.461C16.105,17.071,19.886,15,24,15c0.552,0,1-0.448,1-1
		S24.552,13,24,13z"/>
</g>
<g id="nyt_x5F_exporter_x5F_info" display="none">
</g>
</svg>
