<?xml version="1.0" encoding="utf-8"?>
<!-- Generator: Adobe Illustrator 17.1.0, SVG Export Plug-In . SVG Version: 6.00 Build 0)  -->
<!DOCTYPE svg PUBLIC "-//W3C//DTD SVG 1.0//EN" "http://www.w3.org/TR/2001/REC-SVG-20010904/DTD/svg10.dtd">
<svg version="1.0" id="Layer_1" xmlns="http://www.w3.org/2000/svg" xmlns:xlink="http://www.w3.org/1999/xlink" x="0px" y="0px"
	 width="48px" height="48px" viewBox="0 0 48 48" enable-background="new 0 0 48 48" xml:space="preserve">
<g>
	<circle cx="29" cy="3" r="1"/>
	<path d="M24,18c-3.859,0-7,3.141-7,7s3.141,7,7,7s7-3.141,7-7S27.859,18,24,18z M24,20c2.414,0,4.434,1.721,4.899,4h-9.798
		C19.566,21.721,21.586,20,24,20z M24,30c-2.414,0-4.434-1.721-4.899-4h9.798C28.434,28.279,26.414,30,24,30z"/>
	<path d="M19,34c-0.553,0-1,0.447-1,1v8c0,0.553,0.447,1,1,1s1-0.447,1-1v-8C20,34.447,19.553,34,19,34z"/>
	<path d="M23,39c-0.553,0-1,0.447-1,1v3c0,0.553,0.447,1,1,1s1-0.447,1-1v-3C24,39.447,23.553,39,23,39z"/>
	<path d="M36.707,16.293L32.414,12H33c0.553,0,1-0.447,1-1c0-0.553-0.447-1-1-1h-3h-8.586l-3.707-3.707
		c-0.391-0.391-1.023-0.391-1.414,0c-0.391,0.391-0.391,1.023,0,1.414L18.586,10H18h-3c-0.553,0-1,0.447-1,1c0,0.553,0.447,1,1,1
		h0.586l-4.293,4.293C11.106,16.481,11,16.734,11,17v27c0,0.266,0.106,0.52,0.293,0.707l3,3C14.481,47.895,14.734,48,15,48h18
		c0.266,0,0.52-0.105,0.707-0.293l3-3C36.895,44.52,37,44.266,37,44V17C37,16.734,36.895,16.481,36.707,16.293z M35,43.586
		L32.586,46H15.414L13,43.586V17.414L18.414,12h11.172L35,17.414V43.586z"/>
	<circle cx="27" cy="7" r="1"/>
	<circle cx="25" cy="1" r="1"/>
</g>
</svg>
