<?xml version="1.0" encoding="utf-8"?>
<!-- Generator: Adobe Illustrator 17.0.0, SVG Export Plug-In . SVG Version: 6.00 Build 0)  -->
<!DOCTYPE svg PUBLIC "-//W3C//DTD SVG 1.1//EN" "http://www.w3.org/Graphics/SVG/1.1/DTD/svg11.dtd">
<svg version="1.1" id="Layer_1" xmlns="http://www.w3.org/2000/svg" xmlns:xlink="http://www.w3.org/1999/xlink" x="0px" y="0px"
	 width="48px" height="48px" viewBox="0 0 48 48" enable-background="new 0 0 48 48" xml:space="preserve">
<g>
	<path fill="#010101" d="M38.747,12.335C38.558,12.122,38.285,12,38,12H17.054l-0.559-5.869C16.159,2.636,13.259,0,9.75,0H6
		C5.447,0,5,0.448,5,1s0.447,1,1,1h3.75c2.474,0,4.518,1.858,4.755,4.322L15.045,12H12c-0.285,0-0.558,0.122-0.747,0.336
		c-0.19,0.213-0.279,0.497-0.246,0.781l4,34C15.066,47.621,15.493,48,16,48h18c0.507,0,0.934-0.379,0.993-0.884l4-34
		C39.026,12.833,38.937,12.548,38.747,12.335z M36.875,14l-0.706,6H17.815l-0.571-6H36.875z M15.236,14l0.571,6h-1.976l-0.706-6
		H15.236z M33.11,46H16.89l-2.824-24h1.931l2.008,21.095C18.054,43.612,18.489,44,18.999,44c0.031,0,0.063-0.001,0.096-0.005
		c0.549-0.052,0.953-0.54,0.9-1.09L18.005,22h17.928L33.11,46z"/>
	<circle fill="#010101" cx="23" cy="6" r="1"/>
	<circle fill="#010101" cx="29" cy="9" r="1"/>
	<circle fill="#010101" cx="31" cy="27" r="1"/>
	<circle fill="#010101" cx="25" cy="31" r="1"/>
	<circle fill="#010101" cx="29" cy="36" r="1"/>
	<circle fill="#010101" cx="24" cy="41" r="1"/>
	<circle fill="#010101" cx="22" cy="25" r="1"/>
	<circle fill="#010101" cx="32" cy="4" r="1"/>
</g>
<g id="nyt_x5F_exporter_x5F_info" display="none">
</g>
</svg>
