<?xml version="1.0" encoding="utf-8"?>
<!-- Generator: Adobe Illustrator 17.0.0, SVG Export Plug-In . SVG Version: 6.00 Build 0)  -->
<!DOCTYPE svg PUBLIC "-//W3C//DTD SVG 1.1//EN" "http://www.w3.org/Graphics/SVG/1.1/DTD/svg11.dtd">
<svg version="1.1" id="Layer_1" xmlns="http://www.w3.org/2000/svg" xmlns:xlink="http://www.w3.org/1999/xlink" x="0px" y="0px"
	 width="48px" height="48px" viewBox="0 0 48 48" enable-background="new 0 0 48 48" xml:space="preserve">
<path fill="#010101" d="M41,21c-1.159,0-2.273,0.28-3.276,0.818c-0.265-0.443-0.55-0.87-0.855-1.284
	c-0.053-0.099-0.116-0.19-0.198-0.265c-2.299-2.986-5.613-5.15-9.433-5.939C27.712,13.672,28,12.872,28,12c0-2.206-1.794-4-4-4
	s-4,1.794-4,4c0,0.872,0.288,1.672,0.762,2.33c-3.821,0.788-7.135,2.953-9.433,5.939c-0.082,0.075-0.145,0.166-0.198,0.265
	c-1.754,2.378-2.862,5.25-3.075,8.371C5.749,28.461,4,26.434,4,24v-3c0-1.654-1.346-3-3-3c-0.552,0-1,0.448-1,1s0.448,1,1,1
	c0.551,0,1,0.449,1,1v3c0,3.532,2.632,6.454,6.037,6.926c0.18,3.143,1.266,6.127,3.186,8.676C11.412,39.853,11.708,40,12.022,40
	h23.959c0.314,0,0.61-0.148,0.799-0.399c1.115-1.482,1.942-3.111,2.483-4.83C39.828,34.917,40.407,35,41,35c3.86,0,7-3.14,7-7
	S44.86,21,41,21z M33.78,20H14.221c2.526-2.47,5.976-4,9.779-4S31.254,17.53,33.78,20z M22,12c0-1.103,0.897-2,2-2s2,0.897,2,2
	s-0.897,2-2,2S22,13.103,22,12z M35.471,38h-22.94C10.873,35.637,10,32.881,10,30c0-2.975,0.939-5.73,2.527-8h22.946
	C37.061,24.27,38,27.025,38,30C38,32.88,37.127,35.635,35.471,38z M41,33c-0.43,0-0.847-0.073-1.257-0.181
	C39.908,31.896,40,30.955,40,30c0-2.279-0.487-4.444-1.349-6.408C39.369,23.204,40.168,23,41,23c2.757,0,5,2.243,5,5
	S43.757,33,41,33z"/>
<g id="nyt_x5F_exporter_x5F_info" display="none">
</g>
</svg>
