<?xml version="1.0" encoding="utf-8"?>
<!-- Generator: Adobe Illustrator 17.0.0, SVG Export Plug-In . SVG Version: 6.00 Build 0)  -->
<!DOCTYPE svg PUBLIC "-//W3C//DTD SVG 1.1//EN" "http://www.w3.org/Graphics/SVG/1.1/DTD/svg11.dtd">
<svg version="1.1" id="Layer_1" xmlns="http://www.w3.org/2000/svg" xmlns:xlink="http://www.w3.org/1999/xlink" x="0px" y="0px"
	 width="48px" height="48px" viewBox="0 0 48 48" enable-background="new 0 0 48 48" xml:space="preserve">
<g>
	<path fill="#010101" d="M28,31.528V5c0-2.757-2.243-5-5-5s-5,2.243-5,5v26.527c-2.481,1.662-4,4.474-4,7.473c0,4.962,4.037,9,9,9
		s9-4.038,9-9C32,36.003,30.481,33.192,28,31.528z M23,46c-3.859,0-7-3.14-7-7c0-2.484,1.342-4.803,3.501-6.052
		C19.81,32.769,20,32.439,20,32.082V5c0-1.654,1.346-3,3-3s3,1.346,3,3v27.082c0,0.357,0.19,0.687,0.499,0.865
		C28.658,34.199,30,36.518,30,39C30,42.86,26.859,46,23,46z"/>
	<path fill="#010101" d="M24,36.184V15c0-0.552-0.447-1-1-1s-1,0.448-1,1v21.184c-1.161,0.414-2,1.514-2,2.816c0,1.654,1.346,3,3,3
		s3-1.346,3-3C26,37.698,25.161,36.599,24,36.184z M23,40c-0.552,0-1-0.449-1-1s0.448-1,1-1s1,0.449,1,1S23.552,40,23,40z"/>
	<path fill="#010101" d="M31,6h2c0.553,0,1-0.448,1-1s-0.447-1-1-1h-2c-0.553,0-1,0.448-1,1S30.447,6,31,6z"/>
	<path fill="#010101" d="M37,14h-6c-0.553,0-1,0.448-1,1s0.447,1,1,1h6c0.553,0,1-0.448,1-1S37.553,14,37,14z"/>
	<path fill="#010101" d="M33,24h-2c-0.553,0-1,0.448-1,1s0.447,1,1,1h2c0.553,0,1-0.448,1-1S33.553,24,33,24z"/>
</g>
<g id="nyt_x5F_exporter_x5F_info" display="none">
</g>
</svg>
