<?xml version="1.0" encoding="utf-8"?>
<!-- Generator: Adobe Illustrator 17.0.0, SVG Export Plug-In . SVG Version: 6.00 Build 0)  -->
<!DOCTYPE svg PUBLIC "-//W3C//DTD SVG 1.1//EN" "http://www.w3.org/Graphics/SVG/1.1/DTD/svg11.dtd">
<svg version="1.1" id="Layer_1" xmlns="http://www.w3.org/2000/svg" xmlns:xlink="http://www.w3.org/1999/xlink" x="0px" y="0px"
	 width="48px" height="48px" viewBox="0 0 48 48" enable-background="new 0 0 48 48" xml:space="preserve">
<path fill="#010101" d="M39.737,0.324C39.548,0.118,39.28,0,39,0H9C8.72,0,8.452,0.118,8.263,0.324S7.98,0.807,8.004,1.086l4,46
	C12.049,47.604,12.481,48,13,48h22c0.519,0,0.951-0.396,0.996-0.914l4-46C40.02,0.807,39.926,0.531,39.737,0.324z M37.909,2
	l-1.217,14H11.308L10.091,2H37.909z M34.083,46H13.917l-2.435-28h25.035L34.083,46z"/>
<g id="nyt_x5F_exporter_x5F_info" display="none">
</g>
</svg>
