<?xml version="1.0" encoding="utf-8"?>
<!-- Generator: Adobe Illustrator 17.0.0, SVG Export Plug-In . SVG Version: 6.00 Build 0)  -->
<!DOCTYPE svg PUBLIC "-//W3C//DTD SVG 1.1//EN" "http://www.w3.org/Graphics/SVG/1.1/DTD/svg11.dtd">
<svg version="1.1" id="Layer_1" xmlns="http://www.w3.org/2000/svg" xmlns:xlink="http://www.w3.org/1999/xlink" x="0px" y="0px"
	 width="48px" height="48px" viewBox="0 0 48 48" enable-background="new 0 0 48 48" xml:space="preserve">
<path fill="#010101" d="M39,16c0-0.044-0.002-0.088-0.009-0.132l-2-15C36.925,0.371,36.501,0,36,0H14
	c-0.501,0-0.925,0.371-0.991,0.868l-2,15C11.003,15.912,11,15.956,11,16c0,7.382,5.747,13.433,13,13.949V46h-5c-0.552,0-1,0.448-1,1
	s0.448,1,1,1h12c0.552,0,1-0.448,1-1s-0.448-1-1-1h-5V29.949C33.253,29.433,39,23.382,39,16z M14.875,2h20.249l1.334,10H13.542
	L14.875,2z M13,16.065L13.275,14h23.449L37,16.065C36.965,22.652,31.595,28,25,28S13.036,22.652,13,16.065z"/>
<g id="nyt_x5F_exporter_x5F_info" display="none">
</g>
</svg>
