<?xml version="1.0" encoding="UTF-8" standalone="no"?>
<svg width="33px" height="33px" viewBox="0 0 33 33" version="1.1" xmlns="http://www.w3.org/2000/svg" xmlns:xlink="http://www.w3.org/1999/xlink">
    <g stroke="none" stroke-width="1" fill="none" fill-rule="evenodd">
        <g fill="#CCCCCC">
            <path d="M30.153,0.001 C30.151,0.001 30.149,0 30.147,0 L1.855,0 C1.854,0 1.852,0.001 1.85,0.001 C0.828,0.004 0,0.808 0,1.799 L0,4.996 L0,30.166 C0,31.191 0.831,32.023 1.855,32.023 L30.147,32.023 C31.172,32.023 32.002,31.191 32.002,30.166 L32.002,4.996 L32.002,1.799 C32.003,0.808 31.175,0.004 30.153,0.001 L30.153,0.001 Z"></path>
        </g>
        <g transform="translate(2.000000, 6.000000)" fill="#FFFFFF">
            <path d="M27.003,0.003 L1.003,0.003 L0.003,0.003 L0.003,1.004 L0.003,7.01 L0.003,23.026 C0.003,23.579 0.45,24.027 1.003,24.027 L27.003,24.027 C27.556,24.027 28.003,23.579 28.003,23.026 L28.003,7.01 L28.003,1.004 L28.003,0.003 L27.003,0.003 L27.003,0.003 Z"></path>
        </g>
        <g transform="translate(9.000000, 11.000000)" fill="#E6B85C">
            <path d="M4.22,0.01 L1.786,0.01 C0.806,0.01 0.01,0.806 0.01,1.788 L0.01,6.234 C0.01,7.215 0.806,8.012 1.786,8.012 L4.22,8.012 C5.2,8.012 5.995,7.215 5.995,6.234 L5.995,1.788 C5.995,0.806 5.2,0.01 4.22,0.01 L4.22,0.01 Z"></path>
        </g>
        <g transform="translate(17.000000, 11.000000)" fill="#E6B85C">
            <path d="M4.22,0.01 L1.786,0.01 C0.806,0.01 0.01,0.806 0.01,1.788 L0.01,6.234 C0.01,7.215 0.806,8.012 1.786,8.012 L4.22,8.012 C5.2,8.012 5.995,7.215 5.995,6.234 L5.995,1.788 C5.995,0.806 5.2,0.01 4.22,0.01 L4.22,0.01 Z"></path>
        </g>
        <g transform="translate(7.000000, 13.000000)" fill="#FFCC66">
            <rect x="0.003" y="0.001" width="18" height="12.009"></rect>
        </g>
        <g transform="translate(2.000000, 1.000000)" fill="#FFFFFF">
            <path d="M21.003,0.999 C20.984,0.999 20.969,1.009 20.95,1.01 L1.003,1.01 C0.45,1.01 0.003,1.457 0.003,2.01 C0.003,2.562 0.45,3.01 1.003,3.01 L21.003,3.01 C21.555,3.01 22.003,2.562 22.003,2.01 C22.003,2.008 22.002,2.007 22.002,2.006 C22.002,2.004 22.003,2.003 22.003,2.001 C22.003,1.447 21.555,0.999 21.003,0.999 L21.003,0.999 Z M24.003,0.999 C23.45,0.999 23.003,1.447 23.003,2.001 C23.003,2.553 23.45,3.002 24.003,3.002 C24.555,3.002 25.003,2.553 25.003,2.001 C25.003,1.447 24.555,0.999 24.003,0.999 L24.003,0.999 Z M27.003,0.999 C26.45,0.999 26.003,1.447 26.003,2.001 C26.003,2.553 26.45,3.002 27.003,3.002 C27.556,3.002 28.003,2.553 28.003,2.001 C28.003,1.447 27.556,0.999 27.003,0.999 L27.003,0.999 Z"></path>
        </g>
    </g>
</svg>
