<?xml version="1.0" encoding="UTF-8" standalone="no"?>
<svg width="33px" height="33px" viewBox="0 0 33 33" version="1.1" xmlns="http://www.w3.org/2000/svg" xmlns:xlink="http://www.w3.org/1999/xlink">
    <g id="Page-1" stroke="none" stroke-width="1" fill="none" fill-rule="evenodd">
        <g id="extension">
            <path d="M30.2629143,0.000971428571 C30.460887,0.0182005246 30.460887,0.0182005246 30.495606,0.0294901427 C30.4579727,0.0174719531 30.4579727,0.0174719531 30.2570857,0 L2.77342857,0 C2.49011077,0.0358353149 2.49011077,0.0358353149 2.50449233,0.0378624509 C2.56838362,0.0182199755 2.56838362,0.0182199755 2.76857143,0.000971428571 C1.24404695,0.0054423641 0,1.21418402 0,2.71902857 L0,5.82468571 L0,30.2755429 C0,31.8075546 1.24197249,33.0509143 2.77342857,33.0509143 L30.2570857,33.0509143 C31.7892589,33.0509143 33.0305143,31.8078097 33.0305143,30.2755429 L33.0305143,5.82468571 L33.0305143,2.71902857 C33.0320327,1.21478208 31.7878362,0.00544353072 30.2657658,0.000975613796 L30.2629143,0.000971428571 Z" id="Shape" fill="#FFFFFF"></path>
            <path d="M30.2629143,0.9724 C30.2609714,0.9724 30.2590286,0.971428571 30.2570857,0.971428571 L2.77342857,0.971428571 C2.77245714,0.971428571 2.77051429,0.9724 2.76857143,0.9724 C1.77577143,0.975314286 0.971428571,1.75634286 0.971428571,2.71902857 L0.971428571,5.82468571 L0.971428571,30.2755429 C0.971428571,31.2712571 1.77868571,32.0794857 2.77342857,32.0794857 L30.2570857,32.0794857 C31.2528,32.0794857 32.0590857,31.2712571 32.0590857,30.2755429 L32.0590857,5.82468571 L32.0590857,2.71902857 C32.0600571,1.75634286 31.2557143,0.975314286 30.2629143,0.9724 L30.2629143,0.9724 L30.2629143,0.9724 Z" id="Shape" fill="#CCCCCC"></path>
            <path d="M29.1457714,6.80291429 L3.88862857,6.80291429 L2.9172,6.80291429 L2.9172,7.77531429 L2.9172,13.6097143 L2.9172,29.1681143 C2.9172,29.7053143 3.35142857,30.1405143 3.88862857,30.1405143 L29.1457714,30.1405143 C29.6829714,30.1405143 30.1172,29.7053143 30.1172,29.1681143 L30.1172,13.6097143 L30.1172,7.77531429 L30.1172,6.80291429 L29.1457714,6.80291429 L29.1457714,6.80291429 L29.1457714,6.80291429 Z" id="Shape" fill="#FFFFFF"></path>
            <path d="M13.8137143,11.6668571 L11.4492571,11.6668571 C10.4972571,11.6668571 9.724,12.4401143 9.724,13.3940571 L9.724,17.7130286 C9.724,18.666 10.4972571,19.4402286 11.4492571,19.4402286 L13.8137143,19.4402286 C14.7657143,19.4402286 15.538,18.666 15.538,17.7130286 L15.538,13.3940571 C15.538,12.4401143 14.7657143,11.6668571 13.8137143,11.6668571 L13.8137143,11.6668571 L13.8137143,11.6668571 Z" id="Shape" fill="#E6B85C"></path>
            <path d="M21.5851429,11.6668571 L19.2206857,11.6668571 C18.2686857,11.6668571 17.4954286,12.4401143 17.4954286,13.3940571 L17.4954286,17.7130286 C17.4954286,18.666 18.2686857,19.4402286 19.2206857,19.4402286 L21.5851429,19.4402286 C22.5371429,19.4402286 23.3094286,18.666 23.3094286,17.7130286 L23.3094286,13.3940571 C23.3094286,12.4401143 22.5371429,11.6668571 21.5851429,11.6668571 L21.5851429,11.6668571 L21.5851429,11.6668571 Z" id="Shape" fill="#E6B85C"></path>
            <rect id="Rectangle-path" fill="#FFCC66" x="7.77434286" y="13.6009714" width="17.4857143" height="11.6658857"></rect>
            <path d="M23.3172,2.91331429 C23.2987429,2.91331429 23.2841714,2.92302857 23.2657143,2.924 L3.88862857,2.924 C3.35142857,2.924 2.9172,3.35822857 2.9172,3.89542857 C2.9172,4.43165714 3.35142857,4.86685714 3.88862857,4.86685714 L23.3172,4.86685714 C23.8534286,4.86685714 24.2886286,4.43165714 24.2886286,3.89542857 C24.2886286,3.89348571 24.2876571,3.89251429 24.2876571,3.89154286 C24.2876571,3.8896 24.2886286,3.88862857 24.2886286,3.88668571 C24.2886286,3.34851429 23.8534286,2.91331429 23.3172,2.91331429 L23.3172,2.91331429 L23.3172,2.91331429 Z M26.2314857,2.91331429 C25.6942857,2.91331429 25.2600571,3.34851429 25.2600571,3.88668571 C25.2600571,4.42291429 25.6942857,4.85908571 26.2314857,4.85908571 C26.7677143,4.85908571 27.2029143,4.42291429 27.2029143,3.88668571 C27.2029143,3.34851429 26.7677143,2.91331429 26.2314857,2.91331429 L26.2314857,2.91331429 L26.2314857,2.91331429 Z M29.1457714,2.91331429 C28.6085714,2.91331429 28.1743429,3.34851429 28.1743429,3.88668571 C28.1743429,4.42291429 28.6085714,4.85908571 29.1457714,4.85908571 C29.6829714,4.85908571 30.1172,4.42291429 30.1172,3.88668571 C30.1172,3.34851429 29.6829714,2.91331429 29.1457714,2.91331429 L29.1457714,2.91331429 L29.1457714,2.91331429 Z" id="Shape" fill="#FFFFFF"></path>
        </g>
    </g>
</svg>
