<?xml version="1.0" encoding="UTF-8" standalone="no"?>
<svg width="64px" height="64px" viewBox="0 0 64 64" version="1.1" xmlns="http://www.w3.org/2000/svg" xmlns:xlink="http://www.w3.org/1999/xlink">
    <g id="Page-1" stroke="none" stroke-width="1" fill="none" fill-rule="evenodd">
        <g id="Group">
            <path d="M32,0.484848485 C14.5938274,0.484848485 0.484848485,14.5938274 0.484848485,32 C0.484848485,49.4056553 14.5942505,63.5151515 32,63.5151515 C49.4052323,63.5151515 63.5151515,49.4052323 63.5151515,32 C63.5151515,14.5942505 49.4056553,0.484848485 32,0.484848485 L32,0.484848485 Z M32,18.9090909 C39.2300463,18.9090909 45.0909091,24.7699146 45.0909091,32 C45.0909091,39.2298643 39.2298643,45.0909091 32,45.0909091 C24.7699146,45.0909091 18.9090909,39.2300463 18.9090909,32 C18.9090909,24.7697327 24.7697327,18.9090909 32,18.9090909 L32,18.9090909 Z" id="Path" fill="#FFFFFF"></path>
            <path d="M32,1.91000918 C15.3809219,1.91000918 1.91000918,15.3809219 1.91000918,32 C1.91000918,48.6181377 15.3809219,62.0899908 32,62.0899908 C48.6181377,62.0899908 62.0899908,48.6181377 62.0899908,32 C62.0899908,15.3809219 48.6181377,1.91000918 32,1.91000918 L32,1.91000918 L32,1.91000918 Z M32,47.0449954 C23.690461,47.0449954 16.9550046,40.3085987 16.9550046,32 C16.9550046,23.690461 23.690461,16.9559449 32,16.9559449 C40.3085987,16.9559449 47.0449954,23.690461 47.0449954,32 C47.0449954,40.3085987 40.3085987,47.0449954 32,47.0449954 L32,47.0449954 L32,47.0449954 Z" id="Shape" fill="#CCD1D9"></path>
            <path d="M32,5.67125803 C17.4590119,5.67125803 5.67125803,17.4580716 5.67125803,32 C5.67125803,46.5409881 17.4590119,58.328742 32,58.328742 C46.5409881,58.328742 58.328742,46.5409881 58.328742,32 C58.328742,17.4580716 46.5409881,5.67125803 32,5.67125803 L32,5.67125803 L32,5.67125803 Z M32,47.0449954 C23.690461,47.0449954 16.9550046,40.3085987 16.9550046,32 C16.9550046,23.690461 23.690461,16.9559449 32,16.9559449 C40.3085987,16.9559449 47.0449954,23.690461 47.0449954,32 C47.0449954,40.3085987 40.3085987,47.0449954 32,47.0449954 L32,47.0449954 L32,47.0449954 Z" id="Shape" fill="#FFFFFF"></path>
            <path d="M32,13.1937557 C21.6133113,13.1937557 13.1937557,21.6133113 13.1937557,32 C13.1937557,42.3866887 21.6133113,50.8071846 32,50.8071846 C42.3857484,50.8071846 50.8062443,42.3866887 50.8062443,32 C50.8062443,21.6133113 42.3857484,13.1937557 32,13.1937557 L32,13.1937557 L32,13.1937557 Z M32,47.0449954 C23.690461,47.0449954 16.9550046,40.3085987 16.9550046,32 C16.9550046,23.690461 23.690461,16.9559449 32,16.9559449 C40.3085987,16.9559449 47.0449954,23.690461 47.0449954,32 C47.0449954,40.3085987 40.3085987,47.0449954 32,47.0449954 L32,47.0449954 L32,47.0449954 Z" id="Shape" fill="#CCD1D9"></path>
            <path d="M18.5544757,38.722292 L5.10895133,45.4455243 C7.80012489,50.8165877 12.0352911,55.271787 17.2540239,58.2140239 L24.6270119,45.1079522 C22.0176455,43.6354233 19.9000624,41.408764 18.5544757,38.722292 L18.5544757,38.722292 L18.5544757,38.722292 Z M38.722292,45.4455243 L45.444584,58.8901084 C50.8165877,56.1989348 55.2699063,51.9647089 58.2121433,46.7450358 L45.1060716,39.3729881 C43.6354233,41.9823545 41.408764,44.0999376 38.722292,45.4455243 L38.722292,45.4455243 L38.722292,45.4455243 Z M45.4455243,25.277708 L58.8901084,18.555416 C56.1989348,13.1834123 51.9637686,8.72915335 46.7450358,5.78691644 L39.3720478,18.8929881 C41.9814141,20.3645767 44.0989972,22.5921763 45.4455243,25.277708 L45.4455243,25.277708 L45.4455243,25.277708 Z M5.78597612,17.2549642 L18.8920478,24.6270119 C20.3626961,22.0185859 22.591236,19.9000624 25.2767677,18.5544757 L18.5544757,5.10989164 C13.182472,7.80200551 8.72821304,12.0362314 5.78597612,17.2549642 L5.78597612,17.2549642 L5.78597612,17.2549642 Z" id="Shape" fill="#D9534F"></path>
        </g>
    </g>
</svg>
