<?xml version="1.0" encoding="UTF-8" standalone="no"?>
<svg width="32px" height="32px" viewBox="0 0 32 32" version="1.1" xmlns="http://www.w3.org/2000/svg" xmlns:xlink="http://www.w3.org/1999/xlink">
    <g stroke="none" stroke-width="1" fill="none" fill-rule="evenodd">
        <g fill="#F5F7FA">
            <path d="M16,0 C7.163,0 0,7.163 0,16 C0,24.837 7.163,32 16,32 C24.836,32 32,24.837 32,16 C32,7.163 24.836,0 16,0 L16,0 Z"></path>
        </g>
        <g transform="translate(9.000000, 9.000000)" fill="#9777A8">
            <path d="M-1.44551038e-13,14 L3.67983566,12.773344 L1.22614425,10.320032 L-1.44551038e-13,14 L-1.44551038e-13,14 Z M13.4917955,0.506784159 C12.8155924,-0.168928053 11.7157101,-0.168928053 11.039507,0.506784159 L2.4522885,9.09337606 L4.90597991,11.546688 L13.4917955,2.96009613 C14.1694015,2.28298203 14.1694015,1.18530016 13.4917955,0.506784159 L13.4917955,0.506784159 Z"></path>
        </g>
    </g>
</svg>
