<?xml version="1.0" encoding="utf-8"?>
<!-- Generator: Adobe Illustrator 17.0.0, SVG Export Plug-In . SVG Version: 6.00 Build 0)  -->
<!DOCTYPE svg PUBLIC "-//W3C//DTD SVG 1.1//EN" "http://www.w3.org/Graphics/SVG/1.1/DTD/svg11.dtd">
<svg version="1.1" id="Layer_1" xmlns="http://www.w3.org/2000/svg" xmlns:xlink="http://www.w3.org/1999/xlink" x="0px" y="0px"
	 width="48px" height="48px" viewBox="0 0 48 48" enable-background="new 0 0 48 48" xml:space="preserve">
<g>
	<path fill="#231F20" d="M37.485,16.126c-0.319-0.178-0.708-0.167-1.015,0.026L30,20.196V15c0-0.552-0.448-1-1-1H11
		c-0.552,0-1,0.448-1,1v18c0,0.552,0.448,1,1,1h18c0.552,0,1-0.448,1-1v-5.196l6.47,4.045c0.307,0.192,0.696,0.202,1.015,0.026
		C37.803,31.698,38,31.364,38,31V17C38,16.636,37.803,16.302,37.485,16.126z M36,29.196l-6.47-4.044
		c-0.309-0.193-0.698-0.203-1.015-0.026C28.197,25.302,28,25.636,28,26v6H12V16h16v6c0,0.364,0.197,0.698,0.515,0.874
		c0.318,0.177,0.706,0.166,1.015-0.026L36,18.804V29.196z"/>
	<path fill="#231F20" d="M41,0H7C3.14,0,0,3.14,0,7v34c0,3.86,3.14,7,7,7h34c3.86,0,7-3.14,7-7V7C48,3.14,44.86,0,41,0z M46,41
		c0,2.757-2.243,5-5,5H7c-2.757,0-5-2.243-5-5V7c0-2.757,2.243-5,5-5h34c2.757,0,5,2.243,5,5V41z"/>
</g>
</svg>
