<?xml version="1.0" encoding="utf-8"?>
<!-- Generator: Adobe Illustrator 17.0.0, SVG Export Plug-In . SVG Version: 6.00 Build 0)  -->
<!DOCTYPE svg PUBLIC "-//W3C//DTD SVG 1.1//EN" "http://www.w3.org/Graphics/SVG/1.1/DTD/svg11.dtd">
<svg version="1.1" id="Layer_1" xmlns="http://www.w3.org/2000/svg" xmlns:xlink="http://www.w3.org/1999/xlink" x="0px" y="0px"
	 width="48px" height="48px" viewBox="0 0 48 48" enable-background="new 0 0 48 48" xml:space="preserve">
<g>
	<path fill="#231F20" d="M29,12H3c-1.654,0-3,1.346-3,3v22c0,1.654,1.346,3,3,3h26c1.654,0,3-1.346,3-3V15
		C32,13.346,30.654,12,29,12z M30,37c0,0.551-0.448,1-1,1H3c-0.552,0-1-0.449-1-1V15c0-0.551,0.448-1,1-1h26c0.552,0,1,0.449,1,1V37
		z"/>
	<path fill="#231F20" d="M47.526,14.15c-0.295-0.183-0.663-0.199-0.973-0.044l-12,6C34.214,20.275,34,20.621,34,21v10
		c0,0.379,0.214,0.725,0.553,0.895l12,6C46.694,37.965,46.847,38,47,38c0.183,0,0.365-0.05,0.525-0.149
		C47.82,37.669,48,37.347,48,37V15C48,14.653,47.82,14.332,47.526,14.15z M46,35.382l-10-5v-8.764l10-5V35.382z"/>
</g>
</svg>
