<?xml version="1.0" encoding="utf-8"?>
<!-- Generator: Adobe Illustrator 17.0.0, SVG Export Plug-In . SVG Version: 6.00 Build 0)  -->
<!DOCTYPE svg PUBLIC "-//W3C//DTD SVG 1.1//EN" "http://www.w3.org/Graphics/SVG/1.1/DTD/svg11.dtd">
<svg version="1.1" id="Layer_1" xmlns="http://www.w3.org/2000/svg" xmlns:xlink="http://www.w3.org/1999/xlink" x="0px" y="0px"
	 width="48px" height="48px" viewBox="0 0 48 48" enable-background="new 0 0 48 48" xml:space="preserve">
<path fill="#231F20" d="M47,36h-5V25c0-0.552-0.448-1-1-1H25V12h14c0.552,0,1-0.448,1-1V3c0-0.552-0.448-1-1-1H9
	C8.448,2,8,2.448,8,3v8c0,0.552,0.448,1,1,1h14v12H7c-0.552,0-1,0.448-1,1v11H1c-0.552,0-1,0.448-1,1v10c0,0.552,0.448,1,1,1h10
	c0.552,0,1-0.448,1-1V37c0-0.552-0.448-1-1-1H8V26h15v10h-4c-0.552,0-1,0.448-1,1v10c0,0.552,0.448,1,1,1h10c0.552,0,1-0.448,1-1V37
	c0-0.552-0.448-1-1-1h-4V26h15v10h-3c-0.552,0-1,0.448-1,1v10c0,0.552,0.448,1,1,1h10c0.552,0,1-0.448,1-1V37
	C48,36.448,47.552,36,47,36z M10,4h28v6H10V4z M10,38v8H2v-8h4h2H10z M28,38v8h-8v-8h3h2H28z M46,46h-8v-8h2h2h4V46z"/>
</svg>
