<?xml version="1.0" encoding="utf-8"?>
<!-- Generator: Adobe Illustrator 17.0.0, SVG Export Plug-In . SVG Version: 6.00 Build 0)  -->
<!DOCTYPE svg PUBLIC "-//W3C//DTD SVG 1.1//EN" "http://www.w3.org/Graphics/SVG/1.1/DTD/svg11.dtd">
<svg version="1.1" id="Layer_1" xmlns="http://www.w3.org/2000/svg" xmlns:xlink="http://www.w3.org/1999/xlink" x="0px" y="0px"
	 width="48px" height="48px" viewBox="0 0 48 48" enable-background="new 0 0 48 48" xml:space="preserve">
<g>
	<path fill="#231F20" d="M47,28h-5v-5c0-0.552-0.448-1-1-1H28v-2h7c0.552,0,1-0.448,1-1V1c0-0.552-0.448-1-1-1H17
		c-0.552,0-1,0.448-1,1v18c0,0.552,0.448,1,1,1h9v2H7c-0.552,0-1,0.448-1,1v5H1c-0.552,0-1,0.448-1,1v18c0,0.552,0.448,1,1,1h18
		c0.552,0,1-0.448,1-1V29c0-0.552-0.448-1-1-1H8v-4h32v4H29c-0.552,0-1,0.448-1,1v18c0,0.552,0.448,1,1,1h18c0.552,0,1-0.448,1-1V29
		C48,28.448,47.552,28,47,28z M18,2h16v16H18V2z M18,46H2V30h16V46z M46,46H30V30h16V46z"/>
	<path fill="#231F20" d="M32,5.001c0-0.552-0.448-1-1-1H21c-0.552,0-1,0.448-1,1s0.448,1,1,1h10C31.552,6.001,32,5.553,32,5.001z"/>
	<path fill="#231F20" d="M32,33c0,0.552,0.448,1,1,1h10c0.552,0,1-0.448,1-1s-0.448-1-1-1H33C32.448,32,32,32.448,32,33z"/>
	<path fill="#231F20" d="M4,33c0,0.552,0.448,1,1,1h10c0.552,0,1-0.448,1-1s-0.448-1-1-1H5C4.448,32,4,32.448,4,33z"/>
</g>
</svg>
