<?xml version="1.0" encoding="utf-8"?>
<!-- Generator: Adobe Illustrator 17.0.0, SVG Export Plug-In . SVG Version: 6.00 Build 0)  -->
<!DOCTYPE svg PUBLIC "-//W3C//DTD SVG 1.1//EN" "http://www.w3.org/Graphics/SVG/1.1/DTD/svg11.dtd">
<svg version="1.1" id="Layer_1" xmlns="http://www.w3.org/2000/svg" xmlns:xlink="http://www.w3.org/1999/xlink" x="0px" y="0px"
	 width="48px" height="48px" viewBox="0 0 48 48" enable-background="new 0 0 48 48" xml:space="preserve">
<path fill="#231F20" d="M42.954,36.083C42.48,29.343,36.859,24,30,24h-5V11.91c2.833-0.478,5-2.942,5-5.91c0-3.309-2.691-6-6-6
	s-6,2.691-6,6c0,2.968,2.167,5.432,5,5.91V24h-5c-6.859,0-12.48,5.343-12.954,12.083C2.19,36.542,0,39.016,0,42c0,3.309,2.691,6,6,6
	s6-2.691,6-6c0-2.952-2.143-5.406-4.954-5.903C7.508,30.454,12.24,26,18,26h5v10.09c-2.833,0.478-5,2.942-5,5.91
	c0,3.309,2.691,6,6,6s6-2.691,6-6c0-2.968-2.167-5.432-5-5.91V26h5c5.76,0,10.492,4.454,10.954,10.097
	C38.143,36.594,36,39.048,36,42c0,3.309,2.691,6,6,6s6-2.691,6-6C48,39.016,45.81,36.542,42.954,36.083z M20,6c0-2.206,1.794-4,4-4
	s4,1.794,4,4s-1.794,4-4,4S20,8.206,20,6z M10,42c0,2.206-1.794,4-4,4s-4-1.794-4-4s1.794-4,4-4S10,39.794,10,42z M28,42
	c0,2.206-1.794,4-4,4s-4-1.794-4-4s1.794-4,4-4S28,39.794,28,42z M42,46c-2.206,0-4-1.794-4-4s1.794-4,4-4s4,1.794,4,4
	S44.206,46,42,46z"/>
</svg>
