<?xml version="1.0" encoding="utf-8"?>
<!-- Generator: Adobe Illustrator 17.0.0, SVG Export Plug-In . SVG Version: 6.00 Build 0)  -->
<!DOCTYPE svg PUBLIC "-//W3C//DTD SVG 1.1//EN" "http://www.w3.org/Graphics/SVG/1.1/DTD/svg11.dtd">
<svg version="1.1" id="Layer_1" xmlns="http://www.w3.org/2000/svg" xmlns:xlink="http://www.w3.org/1999/xlink" x="0px" y="0px"
	 width="48px" height="48px" viewBox="0 0 48 48" enable-background="new 0 0 48 48" xml:space="preserve">
<path fill="#231F20" d="M47,32c0.553,0,1-0.448,1-1v-6c0-0.552-0.447-1-1-1H35.999v-2c0-2.206-1.794-4-4-4h-14c-1.103,0-2-0.897-2-2
	V8h11c0.553,0,1-0.448,1-1V1c0-0.552-0.447-1-1-1h-26c-0.553,0-1,0.448-1,1v6c0,0.552,0.447,1,1,1h13v8c0,2.206,1.794,4,4,4h14
	c1.103,0,2,0.897,2,2v2h-13c-0.553,0-1,0.448-1,1v6c0,0.552,0.447,1,1,1h13v8h-13c-0.553,0-1,0.448-1,1v6c0,0.552,0.447,1,1,1H47
	c0.553,0,1-0.448,1-1v-6c0-0.552-0.447-1-1-1H35.999v-8H47z M1.999,2h24v4h-24V2z M46,46H21.999v-4H46V46z M21.999,26H46v4H21.999
	V26z"/>
</svg>
