<?xml version="1.0" encoding="utf-8"?>
<!-- Generator: Adobe Illustrator 17.0.0, SVG Export Plug-In . SVG Version: 6.00 Build 0)  -->
<!DOCTYPE svg PUBLIC "-//W3C//DTD SVG 1.1//EN" "http://www.w3.org/Graphics/SVG/1.1/DTD/svg11.dtd">
<svg version="1.1" id="Layer_1" xmlns="http://www.w3.org/2000/svg" xmlns:xlink="http://www.w3.org/1999/xlink" x="0px" y="0px"
	 width="48px" height="48px" viewBox="0 0 48 48" enable-background="new 0 0 48 48" xml:space="preserve">
<g>
	<path fill="#010101" d="M48,7c0-0.031-0.015-0.058-0.018-0.088c-0.009-0.101-0.021-0.202-0.059-0.295
		c-0.051-0.123-0.126-0.234-0.22-0.327l-5.995-5.996c-0.092-0.092-0.202-0.166-0.324-0.217C41.264,0.027,41.134,0,41,0H31
		c-0.553,0-1,0.448-1,1v7h-1c-0.553,0-1,0.448-1,1s0.447,1,1,1h1v11c0,0.552,0.447,1,1,1h16c0.553,0,1-0.448,1-1V7
		C48,7.001,48,7.001,48,7C48,7,48,7,48,7z M42,3.414L44.585,6H42V3.414z M32,20V2h8v5c0,0.552,0.447,1,1,1h5v12H32z"/>
	<path fill="#010101" d="M47.706,32.292l-5.998-5.998c-0.092-0.092-0.202-0.166-0.323-0.216C41.264,26.027,41.134,26,41,26H31
		c-0.553,0-1,0.448-1,1v11h-1c-0.553,0-1,0.448-1,1s0.447,1,1,1h1v7c0,0.552,0.447,1,1,1h16c0.553,0,1-0.448,1-1V33
		c0-0.133-0.027-0.263-0.077-0.384C47.872,32.494,47.798,32.384,47.706,32.292z M42,29.414L44.586,32H42V29.414z M32,46V28h8v5
		c0,0.552,0.447,1,1,1h5v12H32z"/>
	<path fill="#010101" d="M11,4c0.553,0,1-0.448,1-1V1c0-0.552-0.447-1-1-1s-1,0.448-1,1v2C10,3.552,10.447,4,11,4z"/>
	<path fill="#010101" d="M11,16c0.553,0,1-0.448,1-1v-2c0-0.552-0.447-1-1-1s-1,0.448-1,1v2C10,15.552,10.447,16,11,16z"/>
	<path fill="#010101" d="M13,8h-1V7c0-0.552-0.447-1-1-1s-1,0.448-1,1v2c0,0.552,0.447,1,1,1h2c0.553,0,1-0.448,1-1S13.553,8,13,8z"
		/>
	<path fill="#010101" d="M11,22c0.553,0,1-0.448,1-1v-2c0-0.552-0.447-1-1-1s-1,0.448-1,1v2C10,21.552,10.447,22,11,22z"/>
	<path fill="#010101" d="M11,28c0.553,0,1-0.448,1-1v-2c0-0.552-0.447-1-1-1s-1,0.448-1,1v2C10,27.552,10.447,28,11,28z"/>
	<path fill="#010101" d="M11,34c0.553,0,1-0.448,1-1v-2c0-0.552-0.447-1-1-1s-1,0.448-1,1v2C10,33.552,10.447,34,11,34z"/>
	<path fill="#010101" d="M13,38h-1v-1c0-0.552-0.447-1-1-1s-1,0.448-1,1v2c0,0.552,0.447,1,1,1h2c0.553,0,1-0.448,1-1
		S13.553,38,13,38z"/>
	<path fill="#010101" d="M19,8h-2c-0.553,0-1,0.448-1,1s0.447,1,1,1h2c0.553,0,1-0.448,1-1S19.553,8,19,8z"/>
	<path fill="#010101" d="M25,8h-2c-0.553,0-1,0.448-1,1s0.447,1,1,1h2c0.553,0,1-0.448,1-1S25.553,8,25,8z"/>
	<path fill="#010101" d="M19,38h-2c-0.553,0-1,0.448-1,1s0.447,1,1,1h2c0.553,0,1-0.448,1-1S19.553,38,19,38z"/>
	<path fill="#010101" d="M25,38h-2c-0.553,0-1,0.448-1,1s0.447,1,1,1h2c0.553,0,1-0.448,1-1S25.553,38,25,38z"/>
</g>
</svg>
