<?xml version="1.0" encoding="utf-8"?>
<!-- Generator: Adobe Illustrator 17.0.0, SVG Export Plug-In . SVG Version: 6.00 Build 0)  -->
<!DOCTYPE svg PUBLIC "-//W3C//DTD SVG 1.1//EN" "http://www.w3.org/Graphics/SVG/1.1/DTD/svg11.dtd">
<svg version="1.1" id="Layer_1" xmlns="http://www.w3.org/2000/svg" xmlns:xlink="http://www.w3.org/1999/xlink" x="0px" y="0px"
	 width="48px" height="48px" viewBox="0 0 48 48" enable-background="new 0 0 48 48" xml:space="preserve">
<path fill="#231F20" d="M44,25c-1.388,0-2.611,0.712-3.328,1.788l-5.409-2.235c0.471-1.091,0.734-2.291,0.734-3.553
	c0-2.117-0.74-4.062-1.968-5.601l7.951-7.966C42.575,7.784,43.26,8,44,8c2.206,0,4-1.794,4-4s-1.794-4-4-4s-4,1.794-4,4
	c0,0.739,0.215,1.424,0.566,2.018l-7.948,7.964C31.076,12.745,29.123,12,26.997,12c-3.349,0-6.271,1.842-7.82,4.563L7.925,11.741
	C7.97,11.501,8,11.255,8,11.001c0-2.206-1.794-4-4-4s-4,1.794-4,4s1.794,4,4,4c1.235,0,2.326-0.574,3.06-1.455l11.323,4.852
	c-0.25,0.824-0.387,1.697-0.387,2.602c0,2.131,0.748,4.088,1.99,5.631L6.015,40.564C5.421,40.215,4.738,40,4,40
	c-2.206,0-4,1.794-4,4s1.794,4,4,4s4-1.794,4-4c0-0.741-0.216-1.427-0.569-2.023L21.407,28.04c1.291,1.027,2.866,1.709,4.59,1.901
	v10.201c-1.721,0.447-3,1.999-3,3.858c0,2.206,1.794,4,4,4s4-1.794,4-4c0-1.859-1.279-3.411-3-3.858V29.941
	c2.567-0.285,4.805-1.657,6.257-3.641l5.777,2.387C40.023,28.792,40,28.893,40,29c0,2.206,1.794,4,4,4s4-1.794,4-4S46.206,25,44,25z
	 M4,13.001c-1.103,0-2-0.897-2-2c0-1.103,0.897-2,2-2c1.102,0,2,0.897,2,2C6,12.104,5.102,13.001,4,13.001z M44,2
	c1.102,0,2,0.897,2,2s-0.898,2-2,2c-1.103,0-2-0.897-2-2S42.897,2,44,2z M4,46c-1.103,0-2-0.897-2-2s0.897-2,2-2
	c1.102,0,2,0.897,2,2S5.102,46,4,46z M28.997,44c0,1.103-0.898,2-2,2c-1.103,0-2-0.897-2-2s0.897-2,2-2
	C28.1,42,28.997,42.897,28.997,44z M26.997,28c-3.859,0-7-3.14-7-7s3.141-7,7-7s7,3.14,7,7S30.856,28,26.997,28z M44,31
	c-1.103,0-2-0.897-2-2s0.897-2,2-2c1.102,0,2,0.897,2,2S45.102,31,44,31z"/>
</svg>
