<?xml version="1.0" encoding="utf-8"?>
<!-- Generator: Adobe Illustrator 17.0.0, SVG Export Plug-In . SVG Version: 6.00 Build 0)  -->
<!DOCTYPE svg PUBLIC "-//W3C//DTD SVG 1.1//EN" "http://www.w3.org/Graphics/SVG/1.1/DTD/svg11.dtd">
<svg version="1.1" id="Layer_1" xmlns="http://www.w3.org/2000/svg" xmlns:xlink="http://www.w3.org/1999/xlink" x="0px" y="0px"
	 width="60px" height="60px" viewBox="0 0 60 60" enable-background="new 0 0 60 60" xml:space="preserve">
<g>
	<path fill="#010101" d="M5,54h49.885c2.757,0,5-2.243,5-5V17c0-2.757-2.243-5-5-5H5c-2.757,0-5,2.243-5,5v32
		C0,51.757,2.243,54,5,54z M2,17c0-1.654,1.346-3,3-3h49.885c1.654,0,3,1.346,3,3v32c0,1.654-1.346,3-3,3H5c-1.654,0-3-1.346-3-3V17
		z"/>
	<path fill="#010101" d="M9.854,35.479h4.272l0.802,2h3.039l-4.336-10h-3.28l-4.35,10h3.038L9.854,35.479z M12.004,29.887
		l1.442,3.592h-2.896L12.004,29.887z"/>
	<polygon fill="#010101" points="22.798,31.909 24.836,35.479 25.072,35.479 27.798,31.909 27.798,37.479 30.798,37.479 
		30.798,27.479 28.024,27.479 24.987,31.169 21.962,27.479 19.798,27.479 19.798,37.479 22.798,37.479 	"/>
	<polygon fill="#010101" points="40.798,35.479 35.798,35.479 35.798,33.479 39.798,33.479 39.798,31.479 35.798,31.479 
		35.798,30.479 39.798,30.479 39.798,27.479 33.798,27.479 33.798,37.479 40.798,37.479 	"/>
	<path fill="#010101" d="M45.194,37.479l0.901-1.051c0.359-0.444,0.824-0.993,1.392-1.759c0.123,0.164,0.374,0.46,0.752,0.916
		c0.379,0.457,0.585,0.677,0.618,0.724l1.043,1.169h3.812l-4.323-5.198l3.826-4.802h-3.72l-0.773,1.039
		c-0.308,0.365-0.719,1.035-1.235,1.793c-0.54-0.715-1.004-1.384-1.392-1.863l-0.673-0.969H41.63l3.982,4.802l-4.173,5.198H45.194z"
		/>
</g>
</svg>
