<?xml version="1.0" encoding="utf-8"?>
<!-- Generator: Adobe Illustrator 17.0.0, SVG Export Plug-In . SVG Version: 6.00 Build 0)  -->
<!DOCTYPE svg PUBLIC "-//W3C//DTD SVG 1.1//EN" "http://www.w3.org/Graphics/SVG/1.1/DTD/svg11.dtd">
<svg version="1.1" id="Layer_1" xmlns="http://www.w3.org/2000/svg" xmlns:xlink="http://www.w3.org/1999/xlink" x="0px" y="0px"
	 width="60px" height="60px" viewBox="0 0 60 60" enable-background="new 0 0 60 60" xml:space="preserve">
<g>
	<path fill="#010101" d="M59,38h-0.323l-7.2-18H54c0.552,0,1-0.448,1-1s-0.448-1-1-1H33.899c-0.465-2.279-2.485-4-4.899-4
		s-4.434,1.721-4.899,4H6c-0.552,0-1,0.448-1,1s0.448,1,1,1h2.523l-7.2,18H1c-0.552,0-1,0.448-1,1c0,5.514,4.486,10,10,10
		s10-4.486,10-10c0-0.552-0.448-1-1-1h-0.323l-7.2-18h12.624c0.399,1.956,1.943,3.5,3.899,3.899V58h-7c-0.552,0-1,0.448-1,1
		s0.448,1,1,1h18c0.552,0,1-0.448,1-1s-0.448-1-1-1h-9V23.899c1.956-0.399,3.5-1.943,3.899-3.899h14.624l-7.2,18H41
		c-0.552,0-1,0.448-1,1c0,5.514,4.486,10,10,10s10-4.486,10-10C60,38.448,59.552,38,59,38z M10,47c-4.072,0-7.444-3.059-7.938-7
		h15.876C17.444,43.941,14.072,47,10,47z M3.477,38L10,21.692L16.523,38H3.477z M29,22c-1.654,0-3-1.346-3-3s1.346-3,3-3
		s3,1.346,3,3S30.654,22,29,22z M50,21.692L56.523,38H43.477L50,21.692z M50,47c-4.072,0-7.444-3.059-7.938-7h15.876
		C57.444,43.941,54.072,47,50,47z"/>
</g>
</svg>
