<?xml version="1.0" encoding="utf-8"?>
<!-- Generator: Adobe Illustrator 17.0.0, SVG Export Plug-In . SVG Version: 6.00 Build 0)  -->
<!DOCTYPE svg PUBLIC "-//W3C//DTD SVG 1.1//EN" "http://www.w3.org/Graphics/SVG/1.1/DTD/svg11.dtd">
<svg version="1.1" id="Layer_1" xmlns="http://www.w3.org/2000/svg" xmlns:xlink="http://www.w3.org/1999/xlink" x="0px" y="0px"
	 width="60px" height="60px" viewBox="0 0 60 60" enable-background="new 0 0 60 60" xml:space="preserve">
<g>
	<path fill="#010101" d="M1,46c-0.553,0-1,0.448-1,1c0,0.552,0.447,1,1,1h11v1c0,0.552,0.447,1,1,1h18c0.553,0,1-0.448,1-1v-1h12
		c0.197,0,0.391-0.059,0.555-0.168l15-10c0.46-0.306,0.584-0.927,0.277-1.387c-0.307-0.459-0.927-0.584-1.387-0.277L43.697,46H32v-3
		h12c0.197,0,0.391-0.059,0.555-0.168l15-10c0.46-0.306,0.584-0.927,0.277-1.387c-0.307-0.459-0.927-0.585-1.387-0.277L43.697,41H32
		v-4h12c0.197,0,0.391-0.059,0.555-0.168l15-10c0.46-0.306,0.584-0.927,0.277-1.387c-0.307-0.459-0.927-0.585-1.387-0.277L43.697,35
		H32v-3h12c0.197,0,0.391-0.059,0.555-0.168l15-10c0.366-0.245,0.53-0.7,0.402-1.122C59.829,20.289,59.44,20,59,20H46.303
		l0.252-0.168c0.366-0.245,0.53-0.7,0.402-1.122C46.829,18.289,46.44,18,46,18H28c-0.197,0-0.391,0.059-0.555,0.168L24.697,20H16
		c-0.197,0-0.391,0.059-0.555,0.168l-15,10c-0.366,0.245-0.53,0.7-0.402,1.122C0.171,31.711,0.56,32,1,32h11v2H1
		c-0.553,0-1,0.448-1,1c0,0.552,0.447,1,1,1h11v2H1c-0.553,0-1,0.448-1,1c0,0.552,0.447,1,1,1h11v2H1c-0.553,0-1,0.448-1,1
		c0,0.552,0.447,1,1,1h11v2H1z M55.697,22l-12,8H32v-0.465L43.303,22H55.697z M28.303,20h14.395l-12.252,8.168
		C30.167,28.354,30,28.666,30,29v19H14V29.535L28.303,20z M4.303,30l12-8h5.395l-9.252,6.168C12.167,28.354,12,28.666,12,29v1H4.303
		z"/>
	<path fill="#010101" d="M22.001,42c-0.001,0-0.001,0-0.001,0c-0.001,0-0.001,0-0.002,0c-1.102-0.001-1.999-0.897-1.999-2
		c0-0.552-0.447-1-1-1s-1,0.448-1,1c0,1.859,1.28,3.411,3.001,3.858V45c0,0.552,0.447,1,1,1c0.553,0,1-0.448,1-1v-1.142
		c1.72-0.448,2.999-2,2.999-3.858c0-2.205-1.794-4-3.999-4.001c-1.103,0-2-0.897-2-2s0.897-2,2-2c1.102,0,2,0.897,2,2
		c0,0.552,0.447,1,1,1c0.553,0,1-0.448,1-1c0-1.858-1.279-3.411-3-3.858V29c0-0.552-0.447-1-1-1c-0.553,0-1,0.448-1,1v1.142
		c-1.721,0.447-3,2-3,3.858c0,2.205,1.794,4,3.999,4.001c1.103,0,2,0.897,2,2C23.999,41.103,23.103,41.999,22.001,42z"/>
</g>
</svg>
