<?xml version="1.0" encoding="utf-8"?>
<!-- Generator: Adobe Illustrator 17.0.0, SVG Export Plug-In . SVG Version: 6.00 Build 0)  -->
<!DOCTYPE svg PUBLIC "-//W3C//DTD SVG 1.1//EN" "http://www.w3.org/Graphics/SVG/1.1/DTD/svg11.dtd">
<svg version="1.1" id="Layer_1" xmlns="http://www.w3.org/2000/svg" xmlns:xlink="http://www.w3.org/1999/xlink" x="0px" y="0px"
	 width="60px" height="60px" viewBox="0 0 60 60" enable-background="new 0 0 60 60" xml:space="preserve">
<g>
	<path fill="#010101" d="M50,10H0v32h50V10z M48,40H2V12h46V40z"/>
	<path fill="#010101" d="M53,14c-0.553,0-1,0.448-1,1v29H5c-0.553,0-1,0.448-1,1c0,0.552,0.447,1,1,1h49V15
		C54,14.448,53.553,14,53,14z"/>
	<path fill="#010101" d="M8,49c0,0.552,0.447,1,1,1h49V19c0-0.552-0.447-1-1-1c-0.553,0-1,0.448-1,1v29H9C8.447,48,8,48.448,8,49z"
		/>
	<path fill="#010101" d="M7,36h6c0.553,0,1-0.448,1-1c0-0.552-0.447-1-1-1H7c-0.553,0-1,0.448-1,1C6,35.552,6.447,36,7,36z"/>
	<path fill="#010101" d="M37,18h6c0.553,0,1-0.448,1-1c0-0.552-0.447-1-1-1h-6c-0.553,0-1,0.448-1,1C36,17.552,36.447,18,37,18z"/>
	<path fill="#010101" d="M25,35c4.963,0,9-4.038,9-9s-4.037-9-9-9s-9,4.038-9,9S20.037,35,25,35z M25,19c3.859,0,7,3.14,7,7
		c0,3.86-3.141,7-7,7c-3.859,0-7-3.14-7-7C18,22.14,21.141,19,25,19z"/>
</g>
</svg>
