<?xml version="1.0" encoding="utf-8"?>
<!-- Generator: Adobe Illustrator 17.0.0, SVG Export Plug-In . SVG Version: 6.00 Build 0)  -->
<!DOCTYPE svg PUBLIC "-//W3C//DTD SVG 1.1//EN" "http://www.w3.org/Graphics/SVG/1.1/DTD/svg11.dtd">
<svg version="1.1" id="Layer_1" xmlns="http://www.w3.org/2000/svg" xmlns:xlink="http://www.w3.org/1999/xlink" x="0px" y="0px"
	 width="60px" height="60px" viewBox="0 0 60 60" enable-background="new 0 0 60 60" xml:space="preserve">
<g>
	<path fill="#010101" d="M0,50h60V12H0V50z M2,14h56v34H2V14z"/>
	<path fill="#010101" d="M29.999,23.001C25.588,23.001,22,26.589,22,31c0,4.411,3.588,8,7.999,8C34.411,39,38,35.411,38,31
		C38,26.589,34.411,23.001,29.999,23.001z M29.999,37C26.691,37,24,34.309,24,31c0-3.308,2.691-5.999,5.999-5.999
		C33.308,25.001,36,27.692,36,31C36,34.309,33.308,37,29.999,37z"/>
	<path fill="#010101" d="M47,34c-1.654,0-3,1.345-3,2.999C44,38.654,45.346,40,47,40s3-1.346,3-3.001C50,35.345,48.654,34,47,34z
		 M47,38c-0.552,0-1-0.449-1-1.001C46,36.448,46.448,36,47,36c0.552,0,1,0.448,1,0.999C48,37.551,47.552,38,47,38z"/>
	<path fill="#010101" d="M13,22c-1.654,0-3,1.345-3,2.999C10,26.654,11.346,28,13,28s3-1.346,3-3.001C16,23.345,14.654,22,13,22z
		 M13,26c-0.552,0-1-0.449-1-1.001C12,24.448,12.448,24,13,24c0.552,0,1,0.448,1,0.999C14,25.551,13.552,26,13,26z"/>
	<path fill="#010101" d="M50,16H10c-3.364,0-6,2.636-6,6v18c0,3.364,2.636,6,6,6h40c3.364,0,6-2.636,6-6V22
		C56,18.636,53.364,16,50,16z M54,40c0,2.243-1.757,4-4,4H10c-2.243,0-4-1.757-4-4V22c0-2.243,1.757-4,4-4h40c2.243,0,4,1.757,4,4
		V40z"/>
</g>
</svg>
