<?xml version="1.0" encoding="utf-8"?>
<!-- Generator: Adobe Illustrator 17.0.0, SVG Export Plug-In . SVG Version: 6.00 Build 0)  -->
<!DOCTYPE svg PUBLIC "-//W3C//DTD SVG 1.1//EN" "http://www.w3.org/Graphics/SVG/1.1/DTD/svg11.dtd">
<svg version="1.1" id="Layer_1" xmlns="http://www.w3.org/2000/svg" xmlns:xlink="http://www.w3.org/1999/xlink" x="0px" y="0px"
	 width="60px" height="60px" viewBox="0 0 60 60" enable-background="new 0 0 60 60" xml:space="preserve">
<g>
	<path fill="#010101" d="M1,60h56c0.553,0,1-0.448,1-1s-0.447-1-1-1H1c-0.553,0-1,0.448-1,1S0.447,60,1,60z"/>
	<path fill="#010101" d="M53,34c0.553,0,1-0.448,1-1s-0.447-1-1-1H41c-0.553,0-1,0.448-1,1s0.447,1,1,1h1v20h-1
		c-0.553,0-1,0.448-1,1s0.447,1,1,1h12c0.553,0,1-0.448,1-1s-0.447-1-1-1h-1V34H53z M44,34h2v20h-2V34z M50,54h-2V34h2V54z"/>
	<path fill="#010101" d="M17,34c0.553,0,1-0.448,1-1s-0.447-1-1-1H5c-0.553,0-1,0.448-1,1s0.447,1,1,1h1v20H5c-0.553,0-1,0.448-1,1
		s0.447,1,1,1h12c0.553,0,1-0.448,1-1s-0.447-1-1-1h-1V34H17z M8,34h2v20H8V34z M14,54h-2V34h2V54z"/>
	<path fill="#010101" d="M35,34c0.553,0,1-0.448,1-1s-0.447-1-1-1H23c-0.553,0-1,0.448-1,1s0.447,1,1,1h1v20h-1
		c-0.553,0-1,0.448-1,1s0.447,1,1,1h12c0.553,0,1-0.448,1-1s-0.447-1-1-1h-1V34H35z M26,34h2v20h-2V34z M32,54h-2V34h2V54z"/>
	<path fill="#010101" d="M57.952,29.305c0.133-0.414-0.018-0.866-0.371-1.119l-28-20c-0.348-0.248-0.814-0.248-1.162,0l-28,20
		c-0.354,0.253-0.504,0.705-0.371,1.119C0.181,29.719,0.565,30,1,30h56C57.435,30,57.819,29.719,57.952,29.305z M4.12,28L29,10.229
		L53.88,28H4.12z"/>
</g>
</svg>
