<?xml version="1.0" encoding="utf-8"?>
<!-- Generator: Adobe Illustrator 17.0.0, SVG Export Plug-In . SVG Version: 6.00 Build 0)  -->
<!DOCTYPE svg PUBLIC "-//W3C//DTD SVG 1.1//EN" "http://www.w3.org/Graphics/SVG/1.1/DTD/svg11.dtd">
<svg version="1.1" id="Layer_1" xmlns="http://www.w3.org/2000/svg" xmlns:xlink="http://www.w3.org/1999/xlink" x="0px" y="0px"
	 width="60px" height="60px" viewBox="0 0 60 60" enable-background="new 0 0 60 60" xml:space="preserve">
<g>
	<path fill="#010101" d="M1,52h1v7c0,0.552,0.447,1,1,1h24c0.553,0,1-0.448,1-1v-8c0-0.552-0.447-1-1-1h-1v-6h1c0.553,0,1-0.448,1-1
		v-8c0-0.552-0.447-1-1-1h-1v-6h3c0.553,0,1-0.448,1-1v-7h3c0.553,0,1-0.448,1-1v-8c0-0.552-0.447-1-1-1h-5V3c0-0.552-0.447-1-1-1H3
		C2.447,2,2,2.448,2,3v8c0,0.552,0.447,1,1,1h5v6H5c-0.553,0-1,0.448-1,1v7H1c-0.553,0-1,0.448-1,1v8c0,0.552,0.447,1,1,1h1v6H1
		c-0.553,0-1,0.448-1,1v8C0,51.552,0.447,52,1,52z M4,52h4v6H4V52z M18,28v6H8v-6H18z M22,20v6H12v-6H22z M10,4h10v6H10V4z M26,12v6
		H16v-6H26z M20,36v6H10v-6H20z M18,44v6H8v-6H18z M20,52v6H10v-6H20z M26,58h-4v-6h3h1V58z M24,50h-4v-6h4V50z M26,42h-1h-3v-6h3h1
		V42z M24,34h-4v-6h4V34z M28,26h-3h-1v-6h4V26z M32,18h-3h-1v-6h4V18z M26,10h-4V4h4V10z M4,4h4v6H4V4z M10,12h4v6h-4V12z M6,20h3
		h1v6H6V20z M2,28h3h1v6H3H2V28z M4,36h4v6H4V36z M2,44h1h3v6H3H2V44z"/>
	<path fill="#010101" d="M31,34c-0.553,0-1,0.448-1,1v8c0,0.552,0.447,1,1,1h3v6h-3c-0.553,0-1,0.448-1,1v8c0,0.552,0.447,1,1,1h24
		c0.553,0,1-0.448,1-1v-7h3c0.553,0,1-0.448,1-1v-8c0-0.552-0.447-1-1-1h-3v-7c0-0.552-0.447-1-1-1H31z M42,50v-6h10v6H42z M48,52v6
		H38v-6H48z M38,42v-6h10v6H38z M32,36h4v6h-1h-3V36z M36,44h4v6h-4V44z M32,52h3h1v6h-4V52z M54,58h-4v-6h4V58z M58,50h-3h-1v-6h1
		h3V50z M54,42h-4v-6h4V42z"/>
</g>
</svg>
