<?xml version="1.0" encoding="utf-8"?>
<!-- Generator: Adobe Illustrator 17.0.0, SVG Export Plug-In . SVG Version: 6.00 Build 0)  -->
<!DOCTYPE svg PUBLIC "-//W3C//DTD SVG 1.1//EN" "http://www.w3.org/Graphics/SVG/1.1/DTD/svg11.dtd">
<svg version="1.1" id="Layer_1" xmlns="http://www.w3.org/2000/svg" xmlns:xlink="http://www.w3.org/1999/xlink" x="0px" y="0px"
	 width="60px" height="60px" viewBox="0 0 60 60" enable-background="new 0 0 60 60" xml:space="preserve">
<g>
	<path fill="#010101" d="M46.81,0.415C46.623,0.154,46.321,0,46,0H14c-0.321,0-0.623,0.154-0.81,0.415l-13,18
		c-0.033,0.046-0.054,0.098-0.078,0.148c-0.012,0.024-0.027,0.045-0.037,0.07c-0.043,0.109-0.065,0.223-0.069,0.339
		C0.005,18.982,0,18.99,0,19v40c0,0.552,0.447,1,1,1h58c0.553,0,1-0.448,1-1V19.097c0.003-0.033,0.019-0.062,0.019-0.097
		c0-0.284-0.117-0.54-0.307-0.721L46.81,0.415z M57.044,18H32V2h13.488L57.044,18z M14.512,2H30v16H2.956L14.512,2z M58,58H2V20h56
		V58z"/>
	<path fill="#010101" d="M33,54h20c0.553,0,1-0.448,1-1v-8c0-0.552-0.447-1-1-1H33c-0.553,0-1,0.448-1,1v8
		C32,53.552,32.447,54,33,54z M34,46h18v6H34V46z"/>
</g>
</svg>
