<?xml version="1.0" encoding="utf-8"?>
<!-- Generator: Adobe Illustrator 17.0.0, SVG Export Plug-In . SVG Version: 6.00 Build 0)  -->
<!DOCTYPE svg PUBLIC "-//W3C//DTD SVG 1.1//EN" "http://www.w3.org/Graphics/SVG/1.1/DTD/svg11.dtd">
<svg version="1.1" id="Layer_1" xmlns="http://www.w3.org/2000/svg" xmlns:xlink="http://www.w3.org/1999/xlink" x="0px" y="0px"
	 width="60px" height="60px" viewBox="0 0 60 60" enable-background="new 0 0 60 60" xml:space="preserve">
<g>
	<path fill="#010101" d="M1,60h58c0.553,0,1-0.448,1-1V1c0-0.552-0.447-1-1-1H1C0.447,0,0,0.448,0,1v58C0,59.552,0.447,60,1,60z
		 M2,2h56v56H2V2z"/>
	<path fill="#010101" d="M51,50H9c-0.553,0-1,0.448-1,1c0,0.552,0.447,1,1,1h42c0.553,0,1-0.448,1-1C52,50.448,51.553,50,51,50z"/>
	<path fill="#010101" d="M11.707,19.707L18,13.414V43c0,0.552,0.447,1,1,1c0.553,0,1-0.448,1-1V13.414l6.293,6.293
		C26.488,19.902,26.744,20,27,20c0.256,0,0.512-0.098,0.707-0.293c0.391-0.391,0.391-1.023,0-1.414l-7.999-7.999
		c-0.092-0.093-0.203-0.166-0.326-0.217c-0.244-0.101-0.52-0.101-0.764,0c-0.123,0.051-0.234,0.124-0.326,0.217l-7.999,7.999
		c-0.391,0.391-0.391,1.023,0,1.414C10.684,20.098,11.316,20.098,11.707,19.707z"/>
	<path fill="#010101" d="M33.707,19.707L40,13.414V43c0,0.552,0.447,1,1,1c0.553,0,1-0.448,1-1V13.414l6.293,6.293
		C48.488,19.902,48.744,20,49,20c0.256,0,0.512-0.098,0.707-0.293c0.391-0.391,0.391-1.023,0-1.414l-7.999-7.999
		c-0.092-0.093-0.203-0.166-0.326-0.217c-0.244-0.101-0.52-0.101-0.764,0c-0.123,0.051-0.234,0.124-0.326,0.217l-7.999,7.999
		c-0.391,0.391-0.391,1.023,0,1.414C32.684,20.098,33.316,20.098,33.707,19.707z"/>
</g>
</svg>
