<?xml version="1.0" encoding="utf-8"?>
<!-- Generator: Adobe Illustrator 17.0.0, SVG Export Plug-In . SVG Version: 6.00 Build 0)  -->
<!DOCTYPE svg PUBLIC "-//W3C//DTD SVG 1.1//EN" "http://www.w3.org/Graphics/SVG/1.1/DTD/svg11.dtd">
<svg version="1.1" id="Layer_1" xmlns="http://www.w3.org/2000/svg" xmlns:xlink="http://www.w3.org/1999/xlink" x="0px" y="0px"
	 width="60px" height="60px" viewBox="0 0 60 60" enable-background="new 0 0 60 60" xml:space="preserve">
<g>
	<path fill="#010101" d="M60,13c0-0.115-0.026-0.225-0.064-0.331c-0.009-0.025-0.018-0.049-0.029-0.074
		c-0.046-0.103-0.104-0.2-0.182-0.283c-0.007-0.007-0.016-0.012-0.023-0.02c-0.05-0.05-0.102-0.097-0.163-0.136
		c-0.034-0.021-0.071-0.033-0.107-0.05c-0.014-0.007-0.023-0.02-0.038-0.026l-28-12c-0.244-0.105-0.518-0.108-0.766-0.01l-30,12
		c-0.014,0.006-0.023,0.018-0.036,0.024c-0.048,0.021-0.096,0.04-0.141,0.069c-0.044,0.029-0.081,0.066-0.119,0.102
		c-0.015,0.014-0.033,0.025-0.047,0.04c-0.078,0.08-0.139,0.173-0.186,0.274c-0.011,0.023-0.018,0.046-0.027,0.07
		c-0.036,0.096-0.06,0.196-0.065,0.301c-0.001,0.013-0.005,0.025-0.005,0.039C0.001,12.993,0,12.996,0,13v32
		c0,0.389,0.225,0.742,0.577,0.906l30,14c0.015,0.007,0.032,0.004,0.048,0.011C30.746,59.966,30.871,60,31,60
		c0.137,0,0.271-0.038,0.398-0.094c0.016-0.007,0.033-0.004,0.049-0.012l28-14C59.786,45.725,60,45.379,60,45V13.006
		c0,0,0-0.001,0-0.001V13z M30.987,2.083l25.56,10.954l-11.046,5.128L20.213,6.392L30.987,2.083z M30.986,24.904L3.6,13.037
		l14.063-5.625l25.464,11.855L30.986,24.904z M2,14.523l28,12.134V57.43L2,44.363V14.523z M58,44.382l-26,13V26.638l26-12.071
		V44.382z"/>
	<path fill="#010101" d="M23.394,30.081l-14-6C9.086,23.95,8.73,23.981,8.45,24.165C8.169,24.35,8,24.664,8,25v13
		c0,0.4,0.238,0.762,0.606,0.919l14,6C22.732,44.973,22.866,45,23,45c0.193,0,0.385-0.056,0.55-0.165C23.831,44.65,24,44.336,24,44
		V31C24,30.6,23.762,30.238,23.394,30.081z M22,42.483l-12-5.143V26.517l12,5.143V42.483z"/>
</g>
</svg>
