<?xml version="1.0" encoding="utf-8"?>
<!-- Generator: Adobe Illustrator 17.0.0, SVG Export Plug-In . SVG Version: 6.00 Build 0)  -->
<!DOCTYPE svg PUBLIC "-//W3C//DTD SVG 1.1//EN" "http://www.w3.org/Graphics/SVG/1.1/DTD/svg11.dtd">
<svg version="1.1" id="Layer_1" xmlns="http://www.w3.org/2000/svg" xmlns:xlink="http://www.w3.org/1999/xlink" x="0px" y="0px"
	 width="60px" height="60px" viewBox="0 0 60 60" enable-background="new 0 0 60 60" xml:space="preserve">
<g>
	<path fill="#010101" d="M59,58h-3V21c0-0.552-0.447-1-1-1h-8c-0.553,0-1,0.448-1,1v37h-4V39c0-0.552-0.447-1-1-1h-8
		c-0.553,0-1,0.448-1,1v19h-4V33c0-0.552-0.447-1-1-1h-8c-0.553,0-1,0.448-1,1v25h-4V47c0-0.552-0.447-1-1-1H5c-0.553,0-1,0.448-1,1
		v11H1c-0.553,0-1,0.448-1,1c0,0.552,0.447,1,1,1h4h8h6h8h6h8h6h8h4c0.553,0,1-0.448,1-1C60,58.448,59.553,58,59,58z M6,58V48h6v10
		H6z M20,58V34h6v24H20z M34,58V40h6v18H34z M48,58V22h6v36H48z"/>
	<path fill="#010101" d="M23,12c-2.206,0-4,1.794-4,4c0,0.638,0.164,1.234,0.431,1.769l-9.163,7.942C9.622,25.265,8.842,25,8,25
		c-2.206,0-4,1.794-4,4c0,2.206,1.794,4,4,4c2.206,0,4-1.794,4-4c0-0.638-0.164-1.234-0.431-1.769l9.163-7.942
		C21.378,19.735,22.158,20,23,20c1.32,0,2.483-0.65,3.212-1.639l7.839,3.136C34.03,21.664,34,21.828,34,22c0,2.206,1.794,4,4,4
		c2.206,0,4-1.794,4-4c0-0.87-0.286-1.669-0.759-2.326L51.298,7.605C51.816,7.851,52.389,8,53,8c2.206,0,4-1.794,4-4
		c0-2.206-1.794-4-4-4c-2.206,0-4,1.794-4,4c0,0.87,0.286,1.669,0.759,2.326L39.703,18.395C39.184,18.149,38.611,18,38,18
		c-1.32,0-2.483,0.65-3.212,1.639l-7.839-3.136C26.97,16.336,27,16.172,27,16C27,13.794,25.206,12,23,12z M53,2c1.102,0,2,0.897,2,2
		s-0.898,2-2,2c-1.103,0-2-0.897-2-2S51.897,2,53,2z M38,20c0.486,0,0.925,0.181,1.272,0.47c0,0,0.001,0.001,0.001,0.001
		c0,0,0.001,0,0.002,0.001C39.714,20.839,40,21.384,40,22c0,1.103-0.898,2-2,2c-1.103,0-2-0.897-2-2S36.897,20,38,20z M8,31
		c-1.103,0-2-0.897-2-2s0.897-2,2-2c0.602,0,1.136,0.273,1.503,0.695c0,0,0,0.001,0.001,0.001c0,0,0.001,0,0.001,0.001
		C9.809,28.048,10,28.5,10,29C10,30.103,9.102,31,8,31z M23,18c-1.103,0-2-0.897-2-2s0.897-2,2-2c1.102,0,2,0.897,2,2
		S24.102,18,23,18z"/>
</g>
</svg>
