<?xml version="1.0" encoding="utf-8"?>
<!-- Generator: Adobe Illustrator 17.0.0, SVG Export Plug-In . SVG Version: 6.00 Build 0)  -->
<!DOCTYPE svg PUBLIC "-//W3C//DTD SVG 1.1//EN" "http://www.w3.org/Graphics/SVG/1.1/DTD/svg11.dtd">
<svg version="1.1" id="Layer_1" xmlns="http://www.w3.org/2000/svg" xmlns:xlink="http://www.w3.org/1999/xlink" x="0px" y="0px"
	 width="60px" height="60px" viewBox="0 0 60 60" enable-background="new 0 0 60 60" xml:space="preserve">
<g>
	<path fill="#010101" d="M1,60h4h8h6h8h6h8h6h8h4c0.553,0,1-0.448,1-1c0-0.552-0.447-1-1-1h-3V21c0-0.552-0.447-1-1-1h-8
		c-0.553,0-1,0.448-1,1v37h-4V39c0-0.552-0.447-1-1-1h-8c-0.553,0-1,0.448-1,1v19h-4V33c0-0.552-0.447-1-1-1h-8
		c-0.553,0-1,0.448-1,1v25h-4V47c0-0.552-0.447-1-1-1H5c-0.553,0-1,0.448-1,1v11H1c-0.553,0-1,0.448-1,1C0,59.552,0.447,60,1,60z
		 M48,22h6v36h-6V22z M34,40h6v18h-6V40z M20,34h6v24h-6V34z M6,48h6v10H6V48z"/>
</g>
</svg>
