<?xml version="1.0" encoding="utf-8"?>
<!-- Generator: Adobe Illustrator 17.0.0, SVG Export Plug-In . SVG Version: 6.00 Build 0)  -->
<!DOCTYPE svg PUBLIC "-//W3C//DTD SVG 1.1//EN" "http://www.w3.org/Graphics/SVG/1.1/DTD/svg11.dtd">
<svg version="1.1" id="Layer_1" xmlns="http://www.w3.org/2000/svg" xmlns:xlink="http://www.w3.org/1999/xlink" x="0px" y="0px"
	 width="60px" height="60px" viewBox="0 0 60 60" enable-background="new 0 0 60 60" xml:space="preserve">
<g>
	<path fill="#010101" d="M9.293,49.707C9.488,49.902,9.744,50,10,50s0.512-0.098,0.707-0.293L15,45.414l4.293,4.293
		C19.488,49.902,19.744,50,20,50s0.512-0.098,0.707-0.293c0.391-0.391,0.391-1.023,0-1.414L16.414,44l4.293-4.293
		c0.391-0.391,0.391-1.023,0-1.414c-0.391-0.391-1.023-0.391-1.414,0L15,42.586l-4.293-4.293c-0.391-0.391-1.023-0.391-1.414,0
		c-0.391,0.391-0.391,1.023,0,1.414L13.586,44l-4.293,4.293C8.902,48.684,8.902,49.316,9.293,49.707z"/>
	<path fill="#010101" d="M9,16h5v5c0,0.552,0.448,1,1,1s1-0.448,1-1v-5h5c0.552,0,1-0.448,1-1c0-0.552-0.448-1-1-1h-5V9
		c0-0.552-0.448-1-1-1s-1,0.448-1,1v5H9c-0.552,0-1,0.448-1,1C8,15.552,8.448,16,9,16z"/>
	<path fill="#010101" d="M37,16h1h12c0.552,0,1-0.448,1-1c0-0.552-0.448-1-1-1H38h-1c-0.552,0-1,0.448-1,1
		C36,15.552,36.448,16,37,16z"/>
	<path fill="#010101" d="M50,46H38c-0.552,0-1,0.448-1,1c0,0.552,0.448,1,1,1h12c0.552,0,1-0.448,1-1C51,46.448,50.552,46,50,46z"/>
	<path fill="#010101" d="M50,40H38c-0.552,0-1,0.448-1,1c0,0.552,0.448,1,1,1h12c0.552,0,1-0.448,1-1C51,40.448,50.552,40,50,40z"/>
	<path fill="#010101" d="M8.565,60h42.869C56.158,60,60,56.158,60,51.435V8.565C60,3.842,56.158,0,51.435,0H8.565
		C3.842,0,0,3.842,0,8.565v42.87C0,56.158,3.842,60,8.565,60z M51.435,58H30V30h28v21.435C58,55.055,55.055,58,51.435,58z M58,8.565
		V28H30V2h21.435C55.055,2,58,4.945,58,8.565z M8.565,2H28v26H2V8.565C2,4.945,4.945,2,8.565,2z M2,30h26v28H8.565
		C4.945,58,2,55.055,2,51.435V30z"/>
</g>
</svg>
