<?xml version="1.0" encoding="utf-8"?>
<!-- Generator: Adobe Illustrator 17.0.0, SVG Export Plug-In . SVG Version: 6.00 Build 0)  -->
<!DOCTYPE svg PUBLIC "-//W3C//DTD SVG 1.1//EN" "http://www.w3.org/Graphics/SVG/1.1/DTD/svg11.dtd">
<svg version="1.1" id="Layer_1" xmlns="http://www.w3.org/2000/svg" xmlns:xlink="http://www.w3.org/1999/xlink" x="0px" y="0px"
	 width="60px" height="60px" viewBox="0 0 60 60" enable-background="new 0 0 60 60" xml:space="preserve">
<g>
	<path fill="#010101" d="M1,59.833h58c0.552,0,1-0.448,1-1v-12c0-0.012-0.007-0.023-0.007-0.035
		c-0.004-0.107-0.018-0.214-0.056-0.316L54,30.651V14.833c0-0.552-0.448-1-1-1h-7v-4h5c1.654,0,3-1.346,3-3v-4c0-1.654-1.346-3-3-3
		H39c-1.654,0-3,1.346-3,3v4c0,1.654,1.346,3,3,3h5v4H26v-9c0-0.332-0.165-0.642-0.44-0.828c-0.275-0.186-0.623-0.224-0.932-0.101
		l-10,4C14.249,8.057,14,8.424,14,8.833v5H7c-0.552,0-1,0.448-1,1v15.818L0.063,46.482c-0.038,0.103-0.053,0.209-0.056,0.316
		C0.007,46.81,0,46.821,0,46.833v12C0,59.385,0.448,59.833,1,59.833z M38,6.833v-4c0-0.551,0.449-1,1-1h12c0.551,0,1,0.449,1,1v4
		c0,0.551-0.449,1-1,1H39C38.449,7.833,38,7.384,38,6.833z M58,57.833H2v-10h56V57.833z M16,9.51l8-3.2v7.523h-8V9.51z M8,15.833h44
		v14H8V15.833z M7.693,31.833h44.614l5.25,14H2.443L7.693,31.833z"/>
	<path fill="#010101" d="M21,53.833c0.552,0,1-0.448,1-1v-1h14v1c0,0.552,0.448,1,1,1s1-0.448,1-1v-2c0-0.552-0.448-1-1-1H21
		c-0.552,0-1,0.448-1,1v2C20,53.385,20.448,53.833,21,53.833z"/>
	<rect x="13.609" y="39.92" fill="#010101" width="2.521" height="2.521"/>
	<rect x="21.174" y="39.92" fill="#010101" width="2.522" height="2.521"/>
	<rect x="28.739" y="39.92" fill="#010101" width="2.522" height="2.521"/>
	<rect x="36.305" y="39.92" fill="#010101" width="2.521" height="2.521"/>
	<rect x="43.87" y="39.92" fill="#010101" width="2.522" height="2.521"/>
	<rect x="40.087" y="36.137" fill="#010101" width="2.522" height="2.522"/>
	<rect x="32.522" y="36.137" fill="#010101" width="2.522" height="2.522"/>
	<rect x="24.956" y="36.137" fill="#010101" width="2.522" height="2.522"/>
	<rect x="17.392" y="36.137" fill="#010101" width="2.521" height="2.522"/>
	<path fill="#010101" d="M27,17.833H13c-0.552,0-1,0.448-1,1v8c0,0.552,0.448,1,1,1h14c0.552,0,1-0.448,1-1v-8
		C28,18.281,27.552,17.833,27,17.833z M26,25.833H14v-6h12V25.833z"/>
	<path fill="#010101" d="M46,21.833H36c-0.552,0-1,0.448-1,1c0,0.552,0.448,1,1,1h10c0.552,0,1-0.448,1-1
		C47,22.281,46.552,21.833,46,21.833z"/>
</g>
</svg>
