<?xml version="1.0" encoding="utf-8"?>
<!-- Generator: Adobe Illustrator 17.0.0, SVG Export Plug-In . SVG Version: 6.00 Build 0)  -->
<!DOCTYPE svg PUBLIC "-//W3C//DTD SVG 1.1//EN" "http://www.w3.org/Graphics/SVG/1.1/DTD/svg11.dtd">
<svg version="1.1" id="Layer_1" xmlns="http://www.w3.org/2000/svg" xmlns:xlink="http://www.w3.org/1999/xlink" x="0px" y="0px"
	 width="60px" height="60px" viewBox="0 0 60 60" enable-background="new 0 0 60 60" xml:space="preserve">
<g>
	<path fill="#010101" d="M51,42H21c-0.553,0-1,0.448-1,1c0,0.552,0.447,1,1,1h30c0.553,0,1-0.448,1-1C52,42.448,51.553,42,51,42z"/>
	<path fill="#010101" d="M51,34H31c-0.553,0-1,0.448-1,1c0,0.552,0.447,1,1,1h20c0.553,0,1-0.448,1-1C52,34.448,51.553,34,51,34z"/>
	<path fill="#010101" d="M1,54h58c0.553,0,1-0.448,1-1V21c0-0.552-0.447-1-1-1H35.414l7.293-7.293c0.391-0.391,0.391-1.023,0-1.414
		l-5-5c-0.391-0.391-1.023-0.391-1.414,0l-3.856,3.856l-2.714-2.84C29.537,7.115,29.28,7.003,29.012,7
		c-0.253,0.002-0.528,0.103-0.719,0.293l-8,8c-0.391,0.391-0.391,1.023,0,1.414C20.488,16.902,20.744,17,21,17
		c0.256,0,0.512-0.098,0.707-0.293l7.276-7.276l2.039,2.133L22.586,20H1c-0.553,0-1,0.448-1,1v32C0,53.552,0.447,54,1,54z
		 M14,38.586L10.414,35l13.293-13.293c0,0,0,0,0,0L28,17.414L31.586,21L14,38.586z M9.495,36.909l2.597,2.597l-3.635,1.038
		L9.495,36.909z M37,8.414L40.586,12L33,19.586L29.414,16L37,8.414z M2,22h18.586L8.293,34.293
		c-0.084,0.084-0.146,0.186-0.196,0.294c-0.011,0.024-0.022,0.047-0.031,0.072c-0.008,0.022-0.022,0.042-0.028,0.065l-2,7
		c-0.1,0.35-0.002,0.725,0.255,0.982C6.483,42.898,6.738,43,7,43c0.092,0,0.185-0.013,0.274-0.039l7-2
		c0.022-0.006,0.042-0.019,0.064-0.027c0.026-0.009,0.05-0.021,0.076-0.032c0.108-0.049,0.209-0.111,0.293-0.195L33.414,22H58v30H2
		V22z"/>
</g>
</svg>
