<?xml version="1.0" encoding="utf-8"?>
<!-- Generator: Adobe Illustrator 17.0.0, SVG Export Plug-In . SVG Version: 6.00 Build 0)  -->
<!DOCTYPE svg PUBLIC "-//W3C//DTD SVG 1.1//EN" "http://www.w3.org/Graphics/SVG/1.1/DTD/svg11.dtd">
<svg version="1.1" id="Layer_1" xmlns="http://www.w3.org/2000/svg" xmlns:xlink="http://www.w3.org/1999/xlink" x="0px" y="0px"
	 width="60px" height="60px" viewBox="0 0 60 60" enable-background="new 0 0 60 60" xml:space="preserve">
<g>
	<path fill="#010101" d="M40,0C28.972,0,20,8.972,20,20C8.972,20,0,28.972,0,40c0,11.028,8.972,20,20,20c11.028,0,20-8.972,20-20
		c11.028,0,20-8.972,20-20C60,8.972,51.028,0,40,0z M38,40c0,9.925-8.075,18-18,18S2,49.925,2,40s8.075-18,18-18
		c0.034,0,0.068,0.004,0.102,0.005c0.943,9.43,8.463,16.951,17.894,17.894C37.996,39.932,38,39.966,38,40z M40,38
		c-9.925,0-18-8.075-18-18S30.075,2,40,2s18,8.075,18,18S49.925,38,40,38z"/>
	<path fill="#010101" d="M40,13c1.654,0,3,1.346,3,3c0,0.552,0.448,1,1,1s1-0.448,1-1c0-2.414-1.721-4.434-4-4.899V10
		c0-0.552-0.448-1-1-1s-1,0.448-1,1v1.101c-2.279,0.465-4,2.485-4,4.899c0,2.757,2.243,5,5,5c1.654,0,3,1.346,3,3s-1.346,3-3,3
		s-3-1.346-3-3c0-0.552-0.448-1-1-1s-1,0.448-1,1c0,2.414,1.721,4.434,4,4.899V30c0,0.552,0.448,1,1,1s1-0.448,1-1v-1.101
		c2.279-0.465,4-2.484,4-4.899c0-2.757-2.243-5-5-5c-1.654,0-3-1.346-3-3S38.346,13,40,13z"/>
	<path fill="#010101" d="M20,33c1.654,0,3,1.346,3,3c0,0.552,0.448,1,1,1s1-0.448,1-1c0-2.414-1.721-4.434-4-4.899V30
		c0-0.552-0.448-1-1-1s-1,0.448-1,1v1.101c-2.279,0.465-4,2.485-4,4.899c0,2.757,2.243,5,5,5c1.654,0,3,1.346,3,3s-1.346,3-3,3
		s-3-1.346-3-3c0-0.552-0.448-1-1-1s-1,0.448-1,1c0,2.414,1.721,4.434,4,4.899V50c0,0.552,0.448,1,1,1s1-0.448,1-1v-1.101
		c2.279-0.465,4-2.484,4-4.899c0-2.757-2.243-5-5-5c-1.654,0-3-1.346-3-3S18.346,33,20,33z"/>
</g>
</svg>
