<?xml version="1.0" encoding="utf-8"?>
<!-- Generator: Adobe Illustrator 17.0.0, SVG Export Plug-In . SVG Version: 6.00 Build 0)  -->
<!DOCTYPE svg PUBLIC "-//W3C//DTD SVG 1.1//EN" "http://www.w3.org/Graphics/SVG/1.1/DTD/svg11.dtd">
<svg version="1.1" id="Layer_1" xmlns="http://www.w3.org/2000/svg" xmlns:xlink="http://www.w3.org/1999/xlink" x="0px" y="0px"
	 width="60px" height="60px" viewBox="0 0 60 60" enable-background="new 0 0 60 60" xml:space="preserve">
<g>
	<path fill="#010101" d="M24,52.101v-1.176c0-1.533-1.379-2.929-2.893-2.929c-0.06,0-0.121,0.002-0.107,0.004L7.075,48.003
		C5.478,47.866,4,49.331,4,50.925v1.176c-2.156,0.475-4,2.594-4,4.824V59c0,0.552,0.448,1,1,1h26c0.552,0,1-0.448,1-1v-2.075
		C28,54.695,26.156,52.576,24,52.101z M6,50.925c0-0.417,0.493-0.929,0.893-0.929L21,50c0.025,0,0.082-0.002,0.107-0.004
		c0.4,0,0.893,0.512,0.893,0.929v1.073L8.564,52H6V50.925z M26,58H2v-1.075c0-1.422,1.486-2.927,2.89-2.927h0.1
		C4.994,53.998,4.996,54,5,54h18c0.013,0,0.097-0.001,0.11-0.002c1.404,0,2.89,1.504,2.89,2.927V58z"/>
	<path fill="#010101" d="M34.914,23.425L40,18.339l0.293,0.293c0.857,0.857,1.848,1.219,2.826,1.219
		c1.235,0,2.449-0.579,3.338-1.469c1.594-1.594,2.191-4.223,0.25-6.164l-11-11c-1.941-1.941-4.571-1.346-6.164,0.25
		c-1.594,1.594-2.191,4.223-0.25,6.164l0.293,0.293L18,19.511l-0.293-0.293c-1.941-1.942-4.571-1.345-6.164,0.25
		c-1.594,1.594-2.191,4.223-0.25,6.164l11,11c0.857,0.857,1.848,1.22,2.826,1.219c1.235,0,2.449-0.579,3.338-1.469
		c1.594-1.594,2.191-4.223,0.25-6.164l-0.293-0.293l5.086-5.086l24.793,24.793c0.195,0.195,0.451,0.293,0.707,0.293
		s0.512-0.098,0.707-0.293c0.391-0.391,0.391-1.023,0-1.414L34.914,23.425z M30.957,2.882c0.666-0.666,2.118-1.467,3.336-0.25l11,11
		c1.218,1.218,0.416,2.67-0.25,3.336c-0.665,0.666-2.117,1.468-3.336,0.25l-1-1l-9-9l-1-1C29.489,5,30.291,3.548,30.957,2.882z
		 M31,9.339l7.586,7.586L27,28.511l-7.586-7.586L31,9.339z M27.043,34.968c-0.666,0.667-2.117,1.467-3.336,0.25l-11-11
		c-1.218-1.218-0.416-2.67,0.25-3.336c0.667-0.666,2.118-1.467,3.336-0.25l0.999,0.999c0,0,0.001,0.001,0.001,0.001l9,9
		c0,0,0.001,0.001,0.001,0.001l0.999,0.999C28.511,32.85,27.709,34.302,27.043,34.968z"/>
</g>
</svg>
