<?xml version="1.0" encoding="utf-8"?>
<!-- Generator: Adobe Illustrator 17.0.0, SVG Export Plug-In . SVG Version: 6.00 Build 0)  -->
<!DOCTYPE svg PUBLIC "-//W3C//DTD SVG 1.1//EN" "http://www.w3.org/Graphics/SVG/1.1/DTD/svg11.dtd">
<svg version="1.1" id="Layer_1" xmlns="http://www.w3.org/2000/svg" xmlns:xlink="http://www.w3.org/1999/xlink" x="0px" y="0px"
	 width="60px" height="60px" viewBox="0 0 60 60" enable-background="new 0 0 60 60" xml:space="preserve">
<g>
	<path fill="#010101" d="M6.391,32H29c0.553,0,1-0.448,1-1c0-0.552-0.447-1-1-1H6.391C4.279,30,2,28.554,2,26.217V10h41v6
		c0,0.552,0.447,1,1,1c0.553,0,1-0.448,1-1V6.044C45,2.655,42.44,0,39.174,0H6.391C2.927,0,0,2.768,0,6.044v20.174
		C0,29.406,2.867,32,6.391,32z M6.391,2h32.783C41.355,2,43,3.738,43,6.044V8H2V6.044C2,3.89,4.052,2,6.391,2z"/>
	<path fill="#010101" d="M24,15c0-0.552-0.447-1-1-1H9c-0.553,0-1,0.448-1,1c0,0.552,0.447,1,1,1h14C23.553,16,24,15.552,24,15z"/>
	<path fill="#010101" d="M30,14c-0.553,0-1,0.448-1,1c0,0.552,0.447,1,1,1h6c0.553,0,1-0.448,1-1c0-0.552-0.447-1-1-1H30z"/>
	<path fill="#010101" d="M9,20c-0.553,0-1,0.448-1,1c0,0.552,0.447,1,1,1h8c0.553,0,1-0.448,1-1c0-0.552-0.447-1-1-1H9z"/>
	<path fill="#010101" d="M59,38h-3v-5c0-4.962-4.037-9-9-9s-9,4.038-9,9v5h-3c-0.553,0-1,0.448-1,1v20c0,0.552,0.447,1,1,1h24
		c0.553,0,1-0.448,1-1V39C60,38.448,59.553,38,59,38z M40,33c0-3.86,3.141-7,7-7c3.859,0,7,3.14,7,7v5H40V33z M58,58H36V40h22V58z"
		/>
	<path fill="#010101" d="M47,45c-1.104,0-2,0.896-2,2c0,0.738,0.405,1.376,1,1.723V53c0,0.552,0.447,1,1,1c0.553,0,1-0.448,1-1
		v-4.277c0.595-0.346,1-0.984,1-1.723C49,45.896,48.104,45,47,45z"/>
</g>
</svg>
