<?xml version="1.0" encoding="utf-8"?>
<!-- Generator: Adobe Illustrator 17.0.0, SVG Export Plug-In . SVG Version: 6.00 Build 0)  -->
<!DOCTYPE svg PUBLIC "-//W3C//DTD SVG 1.1//EN" "http://www.w3.org/Graphics/SVG/1.1/DTD/svg11.dtd">
<svg version="1.1" id="Layer_1" xmlns="http://www.w3.org/2000/svg" xmlns:xlink="http://www.w3.org/1999/xlink" x="0px" y="0px"
	 width="60px" height="60px" viewBox="0 0 60 60" enable-background="new 0 0 60 60" xml:space="preserve">
<g>
	<path fill="#010101" d="M54,18H6c-3.364,0-6,2.636-6,6v26c0,3.364,2.636,6,6,6h48c3.364,0,6-2.636,6-6V24
		C60,20.636,57.364,18,54,18z M6,20h48c2.243,0,4,1.757,4,4v4H2v-4C2,21.757,3.757,20,6,20z M54,54H6c-2.243,0-4-1.757-4-4V30h56v20
		C58,52.243,56.243,54,54,54z"/>
	<path fill="#010101" d="M51,36H41c-0.553,0-1,0.448-1,1c0,0.552,0.447,1,1,1h10c0.553,0,1-0.448,1-1C52,36.448,51.553,36,51,36z"/>
	<path fill="#010101" d="M29,36H9c-0.553,0-1,0.448-1,1c0,0.552,0.447,1,1,1h20c0.553,0,1-0.448,1-1C30,36.448,29.553,36,29,36z"/>
	<path fill="#010101" d="M17,42H9c-0.553,0-1,0.448-1,1c0,0.552,0.447,1,1,1h8c0.553,0,1-0.448,1-1C18,42.448,17.553,42,17,42z"/>
</g>
</svg>
