<?xml version="1.0" encoding="utf-8"?>
<!-- Generator: Adobe Illustrator 17.0.0, SVG Export Plug-In . SVG Version: 6.00 Build 0)  -->
<!DOCTYPE svg PUBLIC "-//W3C//DTD SVG 1.1//EN" "http://www.w3.org/Graphics/SVG/1.1/DTD/svg11.dtd">
<svg version="1.1" id="Layer_1" xmlns="http://www.w3.org/2000/svg" xmlns:xlink="http://www.w3.org/1999/xlink" x="0px" y="0px"
	 width="60px" height="60px" viewBox="0 0 60 60" enable-background="new 0 0 60 60" xml:space="preserve">
<g>
	<path fill="#010101" d="M40,54H28.899c-0.465-2.279-2.485-4-4.899-4c-2.414,0-4.434,1.721-4.899,4H14V36c0-0.552-0.448-1-1-1
		s-1,0.448-1,1v19c0,0.552,0.448,1,1,1h6.101c0.465,2.279,2.484,4,4.899,4c2.414,0,4.434-1.721,4.899-4H41h3.101
		c0.465,2.279,2.484,4,4.899,4c2.414,0,4.434-1.721,4.899-4H59c0.552,0,1-0.448,1-1V45c0-0.133-0.027-0.264-0.078-0.385
		c-0.051-0.121-0.124-0.231-0.216-0.323l-9.999-9.999C49.519,34.106,49.265,34,49,34h-7v-5c0-0.552-0.448-1-1-1H29
		c-0.552,0-1,0.448-1,1c0,0.552,0.448,1,1,1h11V54z M24,58c-1.654,0-3-1.346-3-3s1.346-3,3-3s3,1.346,3,3S25.654,58,24,58z M49,58
		c-1.654,0-3-1.346-3-3s1.346-3,3-3s3,1.346,3,3S50.654,58,49,58z M53.899,54c-0.465-2.279-2.485-4-4.899-4
		c-2.414,0-4.434,1.721-4.899,4H42v-8h16v8H53.899z M48.586,36l8,8H42v-8H48.586z"/>
	<path fill="#010101" d="M17,20h-3v-5c0-0.552-0.448-1-1-1s-1,0.448-1,1v6c0,0.552,0.448,1,1,1h4c0.552,0,1-0.448,1-1
		C18,20.448,17.552,20,17,20z"/>
	<path fill="#010101" d="M0,43c0,0.552,0.448,1,1,1h8c0.552,0,1-0.448,1-1c0-0.552-0.448-1-1-1H1C0.448,42,0,42.448,0,43z"/>
	<path fill="#010101" d="M9,46H5c-0.552,0-1,0.448-1,1c0,0.552,0.448,1,1,1h4c0.552,0,1-0.448,1-1C10,46.448,9.552,46,9,46z"/>
	<path fill="#010101" d="M7,52h2c0.552,0,1-0.448,1-1c0-0.552-0.448-1-1-1H7c-0.552,0-1,0.448-1,1C6,51.552,6.448,52,7,52z"/>
	<path fill="#010101" d="M13,8C6.383,8,1,13.383,1,20s5.383,12,12,12s12-5.383,12-12S19.617,8,13,8z M13,30C7.486,30,3,25.514,3,20
		c0-5.514,4.486-10,10-10c5.514,0,10,4.486,10,10C23,25.514,18.514,30,13,30z"/>
</g>
</svg>
