<?xml version="1.0" encoding="utf-8"?>
<!-- Generator: Adobe Illustrator 17.0.0, SVG Export Plug-In . SVG Version: 6.00 Build 0)  -->
<!DOCTYPE svg PUBLIC "-//W3C//DTD SVG 1.1//EN" "http://www.w3.org/Graphics/SVG/1.1/DTD/svg11.dtd">
<svg version="1.1" id="Layer_1" xmlns="http://www.w3.org/2000/svg" xmlns:xlink="http://www.w3.org/1999/xlink" x="0px" y="0px"
	 width="60px" height="60px" viewBox="0 0 60 60" enable-background="new 0 0 60 60" xml:space="preserve">
<g>
	<path fill="#010101" d="M56.795,24.67c1.39-1.685,1.793-4.045,0.921-6.15c-0.862-2.083-2.787-3.488-5.002-3.698
		c0.64-2.088,0.11-4.423-1.501-6.036c-1.139-1.139-2.652-1.766-4.263-1.766c-0.607,0-1.203,0.089-1.772,0.264
		c-0.209-2.173-1.593-4.127-3.698-5c-2.068-0.858-4.493-0.454-6.151,0.919C34.304,1.275,32.278,0,30,0
		c-2.278,0-4.304,1.275-5.329,3.204c-1.659-1.372-4.083-1.775-6.153-0.919c-2.105,0.871-3.488,2.825-3.697,5
		c-0.569-0.174-1.164-0.263-1.771-0.263c-1.61,0-3.125,0.627-4.265,1.767c-1.611,1.611-2.142,3.946-1.501,6.035
		c-2.213,0.209-4.137,1.614-5.001,3.698c-0.871,2.104-0.468,4.464,0.92,6.149C1.275,25.694,0,27.72,0,30
		c0,2.278,1.276,4.305,3.205,5.33c-1.389,1.684-1.793,4.045-0.922,6.151c0.864,2.083,2.789,3.487,5.002,3.697
		c-0.639,2.088-0.109,4.423,1.501,6.036c1.14,1.139,2.654,1.766,4.263,1.766c0.607,0,1.203-0.089,1.772-0.264
		c0.209,2.174,1.593,4.128,3.697,5.001c2.069,0.857,4.493,0.454,6.152-0.921C25.696,58.725,27.722,60,30,60
		c2.278,0,4.304-1.275,5.329-3.204c1.658,1.373,4.081,1.777,6.151,0.921c2.105-0.872,3.489-2.826,3.698-5.001
		c0.569,0.174,1.166,0.264,1.773,0.264c1.61,0,3.124-0.627,4.263-1.767c1.612-1.612,2.142-3.947,1.502-6.035
		c2.214-0.21,4.139-1.614,5.003-3.697c0.872-2.105,0.469-4.465-0.922-6.15C58.724,34.306,60,32.28,60,30
		C60,27.721,58.724,25.695,56.795,24.67z M54.702,33.967c-0.402,0.075-0.719,0.387-0.799,0.788c-0.08,0.401,0.093,0.81,0.436,1.034
		c1.631,1.06,2.274,3.132,1.531,4.927c-0.734,1.771-2.685,2.804-4.568,2.402c-0.4-0.086-0.812,0.082-1.039,0.423
		c-0.227,0.34-0.224,0.784,0.007,1.122c1.101,1.603,0.903,3.763-0.471,5.137c-1.343,1.343-3.58,1.542-5.137,0.472
		c-0.337-0.232-0.782-0.234-1.122-0.007c-0.34,0.227-0.508,0.639-0.423,1.038c0.403,1.903-0.607,3.824-2.402,4.567
		c-1.779,0.735-3.891,0.064-4.927-1.531c-0.223-0.343-0.629-0.516-1.034-0.436c-0.401,0.08-0.713,0.396-0.788,0.798
		C33.61,56.612,31.942,58,30,58s-3.611-1.388-3.967-3.299c-0.075-0.402-0.387-0.718-0.788-0.798
		c-0.065-0.013-0.131-0.019-0.195-0.019c-0.334,0-0.651,0.168-0.838,0.455c-1.039,1.595-3.152,2.269-4.927,1.531
		c-1.795-0.744-2.806-2.665-2.403-4.566c0.084-0.4-0.083-0.812-0.423-1.039c-0.341-0.227-0.785-0.225-1.122,0.007
		c-1.559,1.07-3.794,0.871-5.137-0.472c-1.373-1.375-1.571-3.535-0.472-5.138c0.232-0.337,0.234-0.781,0.007-1.121
		c-0.227-0.339-0.638-0.506-1.039-0.423c-0.274,0.058-0.555,0.087-0.834,0.087c-1.64,0-3.104-0.978-3.731-2.489
		c-0.742-1.796-0.099-3.868,1.529-4.928c0.343-0.223,0.515-0.632,0.435-1.033c-0.08-0.401-0.396-0.713-0.797-0.788
		C3.387,33.61,2,31.942,2,30c0-1.943,1.387-3.611,3.297-3.965c0.402-0.075,0.718-0.387,0.798-0.788
		c0.08-0.401-0.092-0.811-0.435-1.034c-1.628-1.061-2.271-3.133-1.529-4.927c0.627-1.513,2.091-2.491,3.731-2.491
		c0.28,0,0.561,0.029,0.835,0.087C9.096,16.97,9.509,16.8,9.736,16.46c0.227-0.34,0.225-0.784-0.007-1.121
		c-1.101-1.604-0.903-3.764,0.471-5.137c1.344-1.343,3.581-1.543,5.138-0.474c0.337,0.231,0.781,0.234,1.122,0.007
		c0.34-0.228,0.507-0.639,0.423-1.039c-0.403-1.901,0.606-3.821,2.4-4.564c1.777-0.736,3.892-0.064,4.929,1.529
		c0.223,0.343,0.63,0.514,1.033,0.436c0.401-0.08,0.713-0.396,0.788-0.798C26.389,3.388,28.058,2,30,2s3.61,1.388,3.966,3.3
		c0.075,0.402,0.387,0.718,0.788,0.798c0.407,0.081,0.811-0.093,1.034-0.436c1.037-1.596,3.149-2.267,4.926-1.53
		c1.795,0.744,2.807,2.664,2.403,4.565c-0.084,0.4,0.083,0.812,0.423,1.039c0.341,0.227,0.785,0.225,1.122-0.007
		c1.559-1.069,3.796-0.871,5.137,0.472c1.375,1.375,1.573,3.536,0.472,5.138c-0.231,0.337-0.234,0.781-0.007,1.122
		c0.227,0.34,0.636,0.508,1.039,0.423c1.885-0.4,3.834,0.631,4.567,2.402c0.743,1.794,0.1,3.867-1.53,4.927
		c-0.343,0.223-0.515,0.633-0.436,1.034c0.08,0.401,0.397,0.713,0.798,0.788C56.613,26.389,58,28.057,58,30
		C58,31.944,56.613,33.612,54.702,33.967z"/>
	<path fill="#010101" d="M34.956,24c0,0.552,0.448,1,1,1c0.552,0,1-0.448,1-1c0-3.519-2.613-6.432-6-6.92V14c0-0.552-0.448-1-1-1
		c-0.552,0-1,0.448-1,1v3.08c-3.387,0.488-6,3.401-6,6.92c0,3.52,2.613,6.432,6,6.92v9.979c-2.279-0.465-4-2.484-4-4.899
		c0-0.552-0.448-1-1-1c-0.552,0-1,0.448-1,1c0,3.52,2.613,6.432,6,6.92V46c0,0.552,0.448,1,1,1c0.552,0,1-0.448,1-1v-3.08
		c3.387-0.488,6-3.401,6-6.92c0-3.519-2.613-6.432-6-6.92v-9.979C33.236,19.566,34.956,21.586,34.956,24z M24.956,24
		c0-2.414,1.721-4.434,4-4.899v9.798C26.677,28.434,24.956,26.414,24.956,24z M34.956,36c0,2.414-1.721,4.434-4,4.899v-9.798
		C33.236,31.566,34.956,33.586,34.956,36z"/>
</g>
</svg>
