<?xml version="1.0" encoding="utf-8"?>
<!-- Generator: Adobe Illustrator 17.0.0, SVG Export Plug-In . SVG Version: 6.00 Build 0)  -->
<!DOCTYPE svg PUBLIC "-//W3C//DTD SVG 1.1//EN" "http://www.w3.org/Graphics/SVG/1.1/DTD/svg11.dtd">
<svg version="1.1" id="Layer_1" xmlns="http://www.w3.org/2000/svg" xmlns:xlink="http://www.w3.org/1999/xlink" x="0px" y="0px"
	 width="60px" height="60px" viewBox="0 0 60 60" enable-background="new 0 0 60 60" xml:space="preserve">
<g>
	<path fill="#010101" d="M52,19.694V15c0-0.552-0.448-1-1-1H9c-0.552,0-1,0.448-1,1v4.694C3.253,21.374,0,25.918,0,31
		s3.253,9.626,8,11.306V47c0,0.552,0.448,1,1,1h42c0.552,0,1-0.448,1-1v-4.694c4.747-1.68,8-6.224,8-11.306S56.747,21.374,52,19.694
		z M50.727,40.613C50.297,40.735,50,41.128,50,41.575V46H10v-4.425c0-0.447-0.297-0.84-0.727-0.962C4.991,39.4,2,35.447,2,31
		c0-4.447,2.991-8.4,7.273-9.613C9.703,21.265,10,20.872,10,20.425V16h40v4.425c0,0.447,0.297,0.84,0.727,0.962
		C55.009,22.6,58,26.553,58,31C58,35.447,55.009,39.4,50.727,40.613z"/>
	<path fill="#010101" d="M29,24c1.654,0,3,1.346,3,3c0,0.552,0.448,1,1,1s1-0.448,1-1c0-2.414-1.721-4.434-4-4.899V21
		c0-0.552-0.448-1-1-1s-1,0.448-1,1v1.101c-2.279,0.465-4,2.485-4,4.899c0,2.757,2.243,5,5,5c1.654,0,3,1.346,3,3s-1.346,3-3,3
		s-3-1.346-3-3c0-0.552-0.448-1-1-1s-1,0.448-1,1c0,2.414,1.721,4.434,4,4.899V41c0,0.552,0.448,1,1,1s1-0.448,1-1v-1.101
		c2.279-0.465,4-2.484,4-4.899c0-2.757-2.243-5-5-5c-1.654,0-3-1.346-3-3S27.346,24,29,24z"/>
</g>
</svg>
