<?xml version="1.0" encoding="utf-8"?>
<!-- Generator: Adobe Illustrator 17.0.0, SVG Export Plug-In . SVG Version: 6.00 Build 0)  -->
<!DOCTYPE svg PUBLIC "-//W3C//DTD SVG 1.1//EN" "http://www.w3.org/Graphics/SVG/1.1/DTD/svg11.dtd">
<svg version="1.1" id="Layer_1" xmlns="http://www.w3.org/2000/svg" xmlns:xlink="http://www.w3.org/1999/xlink" x="0px" y="0px"
	 width="60px" height="60px" viewBox="0 0 60 60" enable-background="new 0 0 60 60" xml:space="preserve">
<g>
	<path fill="#010101" d="M30,60c16.542,0,30-13.458,30-30S46.542,0,30,0S0,13.458,0,30S13.458,60,30,60z M30,2
		c15.44,0,28,12.56,28,28S45.44,58,30,58S2,45.44,2,30S14.56,2,30,2z"/>
	<path fill="#010101" d="M25,36c0-0.552-0.448-1-1-1s-1,0.448-1,1c0,3.52,2.613,6.432,6,6.92V46c0,0.552,0.448,1,1,1s1-0.448,1-1
		v-3.08c3.387-0.488,6-3.401,6-6.92c0-3.519-2.613-6.432-6-6.92v-9.979c2.279,0.465,4,2.485,4,4.899c0,0.552,0.448,1,1,1
		s1-0.448,1-1c0-3.519-2.613-6.432-6-6.92V14c0-0.552-0.448-1-1-1s-1,0.448-1,1v3.08c-3.387,0.488-6,3.401-6,6.92
		c0,3.52,2.613,6.432,6,6.92v9.979C26.721,40.434,25,38.414,25,36z M35,36c0,2.414-1.721,4.434-4,4.899v-9.798
		C33.279,31.566,35,33.586,35,36z M25,24c0-2.414,1.721-4.434,4-4.899v9.798C26.721,28.434,25,26.414,25,24z"/>
</g>
</svg>
