<?xml version="1.0" encoding="utf-8"?>
<!-- Generator: Adobe Illustrator 17.0.0, SVG Export Plug-In . SVG Version: 6.00 Build 0)  -->
<!DOCTYPE svg PUBLIC "-//W3C//DTD SVG 1.1//EN" "http://www.w3.org/Graphics/SVG/1.1/DTD/svg11.dtd">
<svg version="1.1" id="Layer_1" xmlns="http://www.w3.org/2000/svg" xmlns:xlink="http://www.w3.org/1999/xlink" x="0px" y="0px"
	 width="60px" height="60px" viewBox="0 0 60 60" enable-background="new 0 0 60 60" xml:space="preserve">
<g>
	<path fill="#010101" d="M56.796,24.67c1.389-1.685,1.792-4.044,0.923-6.151c-0.865-2.083-2.79-3.487-5.002-3.697
		c0.64-2.087,0.109-4.423-1.502-6.036c-1.139-1.139-2.653-1.766-4.264-1.766c-0.607,0-1.202,0.089-1.771,0.263
		c-0.208-2.173-1.592-4.126-3.699-4.999c-2.068-0.858-4.492-0.452-6.151,0.919C34.303,1.275,32.277,0,30,0
		c-2.278,0-4.304,1.275-5.329,3.204c-1.658-1.373-4.084-1.777-6.15-0.919c-2.106,0.871-3.489,2.825-3.698,5
		c-0.568-0.174-1.164-0.263-1.771-0.263c-1.61,0-3.125,0.627-4.265,1.767c-1.611,1.611-2.142,3.946-1.501,6.035
		c-2.213,0.209-4.138,1.614-5.001,3.698c-0.871,2.104-0.469,4.463,0.92,6.149C1.276,25.694,0,27.72,0,30
		c0,2.278,1.276,4.305,3.206,5.33c-1.39,1.685-1.794,4.046-0.923,6.151c0.863,2.083,2.789,3.487,5.003,3.697
		c-0.64,2.088-0.109,4.423,1.501,6.035c1.14,1.139,2.653,1.767,4.263,1.767c0.607,0,1.203-0.089,1.772-0.264
		c0.21,2.175,1.594,4.129,3.699,5.001c2.066,0.857,4.491,0.453,6.15-0.92C25.696,58.725,27.722,60,30,60
		c2.277,0,4.304-1.275,5.329-3.204c1.658,1.373,4.081,1.778,6.153,0.921c2.105-0.872,3.487-2.827,3.696-5.001
		c0.569,0.174,1.165,0.264,1.771,0.264c1.611,0,3.125-0.627,4.265-1.767c1.611-1.612,2.141-3.947,1.501-6.035
		c2.212-0.21,4.138-1.614,5.003-3.697c0.872-2.105,0.469-4.465-0.922-6.15C58.725,34.306,60,32.28,60,30
		C60,27.721,58.725,25.695,56.796,24.67z M54.702,33.967c-0.402,0.075-0.719,0.387-0.798,0.788c-0.08,0.401,0.093,0.81,0.435,1.034
		c1.631,1.06,2.275,3.132,1.531,4.926c-0.628,1.513-2.094,2.491-3.733,2.491c-0.28,0-0.561-0.03-0.835-0.088
		c-0.404-0.084-0.811,0.083-1.039,0.423c-0.227,0.34-0.224,0.784,0.008,1.122c1.101,1.602,0.902,3.762-0.471,5.137
		c-1.344,1.342-3.579,1.543-5.139,0.472c-0.338-0.231-0.78-0.235-1.122-0.007c-0.34,0.227-0.508,0.639-0.423,1.039
		c0.403,1.903-0.607,3.823-2.399,4.566c-1.781,0.736-3.893,0.063-4.928-1.53c-0.223-0.343-0.634-0.517-1.033-0.437
		c-0.401,0.08-0.714,0.396-0.789,0.797C33.611,56.612,31.942,58,30,58s-3.61-1.388-3.966-3.299
		c-0.075-0.402-0.387-0.718-0.788-0.798c-0.065-0.013-0.131-0.019-0.195-0.019c-0.334,0-0.651,0.168-0.838,0.455
		c-1.038,1.596-3.146,2.271-4.926,1.531c-1.795-0.744-2.807-2.664-2.404-4.567c0.084-0.4-0.083-0.811-0.423-1.038
		c-0.342-0.227-0.785-0.224-1.121,0.007c-1.559,1.07-3.793,0.871-5.138-0.472c-1.372-1.375-1.57-3.535-0.471-5.138
		c0.231-0.337,0.234-0.781,0.008-1.122c-0.229-0.34-0.638-0.508-1.039-0.423c-0.274,0.058-0.555,0.087-0.835,0.087
		c-1.641,0-3.106-0.977-3.733-2.489c-0.742-1.794-0.099-3.867,1.53-4.928c0.343-0.223,0.515-0.632,0.435-1.033
		c-0.079-0.401-0.396-0.713-0.797-0.788C3.388,33.61,2,31.942,2,30c0-1.943,1.387-3.611,3.298-3.965
		c0.401-0.075,0.718-0.387,0.798-0.788c0.08-0.401-0.092-0.81-0.435-1.034c-1.628-1.062-2.271-3.134-1.528-4.927
		c0.627-1.513,2.091-2.491,3.73-2.491c0.28,0,0.562,0.029,0.836,0.087C9.096,16.97,9.511,16.8,9.737,16.46
		c0.227-0.34,0.225-0.784-0.007-1.121c-1.101-1.604-0.902-3.764,0.471-5.137c1.344-1.343,3.579-1.543,5.138-0.474
		c0.336,0.23,0.779,0.234,1.121,0.007c0.34-0.227,0.507-0.638,0.423-1.038c-0.402-1.903,0.608-3.823,2.402-4.565
		c1.78-0.735,3.892-0.063,4.928,1.53c0.223,0.342,0.629,0.514,1.033,0.436c0.401-0.08,0.713-0.396,0.788-0.798
		C26.39,3.388,28.058,2,30,2s3.611,1.388,3.968,3.3c0.075,0.402,0.388,0.718,0.789,0.797c0.401,0.081,0.812-0.093,1.033-0.437
		c1.035-1.595,3.146-2.267,4.925-1.529c1.797,0.745,2.808,2.664,2.402,4.564c-0.085,0.4,0.082,0.812,0.423,1.04
		c0.34,0.229,0.784,0.225,1.122-0.007C46.22,8.66,48.459,8.859,49.8,10.2c1.374,1.376,1.572,3.537,0.472,5.138
		c-0.232,0.337-0.234,0.781-0.008,1.122c0.228,0.34,0.635,0.51,1.039,0.423c0.274-0.058,0.556-0.087,0.836-0.087
		c1.64,0,3.104,0.978,3.732,2.489c0.741,1.796,0.097,3.869-1.531,4.928c-0.344,0.223-0.516,0.633-0.435,1.034
		c0.08,0.401,0.396,0.713,0.798,0.788C56.613,26.389,58,28.057,58,30C58,31.944,56.613,33.612,54.702,33.967z"/>
	<path fill="#010101" d="M33,17c2.067,0,3.824,0.883,5.22,2.625c0.344,0.429,0.973,0.501,1.405,0.155
		c0.432-0.345,0.501-0.975,0.155-1.406C38.012,16.167,35.667,15,33,15c-4.963,0-9,4.038-9,9v4h-4c-0.553,0-1,0.448-1,1s0.447,1,1,1
		h4v2h-4c-0.553,0-1,0.448-1,1s0.447,1,1,1h4v2c0,4.962,4.037,9,9,9c2.666,0,5.011-1.167,6.78-3.375
		c0.346-0.431,0.276-1.061-0.155-1.406c-0.429-0.346-1.06-0.275-1.405,0.155C36.823,42.117,35.067,43,33,43c-3.859,0-7-3.14-7-7v-2
		h6c0.553,0,1-0.448,1-1s-0.447-1-1-1h-6v-2h10c0.553,0,1-0.448,1-1s-0.447-1-1-1H26v-4C26,20.14,29.141,17,33,17z"/>
</g>
</svg>
