<?xml version="1.0" encoding="utf-8"?>
<!-- Generator: Adobe Illustrator 17.0.0, SVG Export Plug-In . SVG Version: 6.00 Build 0)  -->
<!DOCTYPE svg PUBLIC "-//W3C//DTD SVG 1.1//EN" "http://www.w3.org/Graphics/SVG/1.1/DTD/svg11.dtd">
<svg version="1.1" id="Layer_1" xmlns="http://www.w3.org/2000/svg" xmlns:xlink="http://www.w3.org/1999/xlink" x="0px" y="0px"
	 width="60px" height="60px" viewBox="0 0 60 60" enable-background="new 0 0 60 60" xml:space="preserve">
<g>
	<path fill="#010101" d="M35,2c7.169,0,13,5.832,13,13c0,0.552,0.448,1,1,1s1-0.448,1-1c0-8.271-6.729-15-15-15S20,6.729,20,15v11H7
		c-0.552,0-1,0.448-1,1s0.448,1,1,1h13v6H7c-0.552,0-1,0.448-1,1s0.448,1,1,1h13v9c0,8.271,6.729,15,15,15s15-6.729,15-15
		c0-0.552-0.448-1-1-1s-1,0.448-1,1c0,7.169-5.831,13-13,13s-13-5.831-13-13v-9h17c0.552,0,1-0.448,1-1s-0.448-1-1-1H22v-6h23
		c0.552,0,1-0.448,1-1s-0.448-1-1-1H22V15C22,7.832,27.831,2,35,2z"/>
</g>
</svg>
