<?xml version="1.0" encoding="utf-8"?>
<!-- Generator: Adobe Illustrator 17.0.0, SVG Export Plug-In . SVG Version: 6.00 Build 0)  -->
<!DOCTYPE svg PUBLIC "-//W3C//DTD SVG 1.1//EN" "http://www.w3.org/Graphics/SVG/1.1/DTD/svg11.dtd">
<svg version="1.1" id="Layer_1" xmlns="http://www.w3.org/2000/svg" xmlns:xlink="http://www.w3.org/1999/xlink" x="0px" y="0px"
	 width="60px" height="60px" viewBox="0 0 60 60" enable-background="new 0 0 60 60" xml:space="preserve">
<g>
	<path fill="#010101" d="M23,43c0,0.552,0.448,1,1,1h1.525c1.24,3.49,4.565,6,8.475,6c0.552,0,1-0.448,1-1c0-0.552-0.448-1-1-1
		c-2.785,0-5.189-1.639-6.315-4H32c0.552,0,1-0.448,1-1c0-0.552-0.448-1-1-1h-4.92C27.033,41.672,27,41.34,27,41s0.033-0.672,0.08-1
		H32c0.552,0,1-0.448,1-1c0-0.552-0.448-1-1-1h-4.315c1.126-2.361,3.53-4,6.315-4c0.552,0,1-0.448,1-1c0-0.552-0.448-1-1-1
		c-3.909,0-7.235,2.51-8.475,6H24c-0.552,0-1,0.448-1,1c0,0.552,0.448,1,1,1h1.059C25.022,40.329,25,40.662,25,41
		s0.022,0.671,0.059,1H24C23.448,42,23,42.448,23,43z"/>
	<path fill="#010101" d="M30,60c18.272,0,21-10.024,21-16c0-7.294-8.074-17.958-13.415-21.811C37.415,22.066,37.21,22,37,22H23
		c-0.21,0-0.415,0.066-0.585,0.189C17.074,26.042,9,36.706,9,44C9,49.976,11.728,60,30,60z M23.328,24h13.345
		C42.287,28.202,49,38.106,49,44c0,9.159-6.57,14-19,14s-19-4.841-19-14C11,38.106,17.713,28.202,23.328,24z"/>
	<path fill="#010101" d="M23,18c-0.552,0-1,0.448-1,1c0,0.552,0.448,1,1,1h14c0.552,0,1-0.448,1-1c0-0.552-0.448-1-1-1H23z"/>
	<path fill="#010101" d="M41.815,3.421c-0.263-0.37-0.741-0.516-1.166-0.357l-7.157,2.684l-2.597-5.195
		c-0.339-0.678-1.45-0.678-1.789,0l-2.597,5.195l-7.157-2.684c-0.425-0.16-0.903-0.012-1.167,0.357
		c-0.263,0.37-0.243,0.871,0.047,1.219C18.279,4.697,23,10.415,23,15c0,0.552,0.448,1,1,1h12c0.552,0,1-0.448,1-1
		c0-4.574,4.721-10.303,4.769-10.36C42.059,4.291,42.078,3.791,41.815,3.421z M35.056,14H24.944
		c-0.313-2.864-1.878-5.833-3.208-7.906l4.913,1.842c0.48,0.178,1.017-0.032,1.246-0.489L30,3.236l2.105,4.211
		c0.229,0.458,0.766,0.667,1.246,0.489l4.913-1.842C36.935,8.167,35.37,11.136,35.056,14z"/>
</g>
</svg>
