<?xml version="1.0" encoding="utf-8"?>
<!-- Generator: Adobe Illustrator 17.0.0, SVG Export Plug-In . SVG Version: 6.00 Build 0)  -->
<!DOCTYPE svg PUBLIC "-//W3C//DTD SVG 1.1//EN" "http://www.w3.org/Graphics/SVG/1.1/DTD/svg11.dtd">
<svg version="1.1" id="Layer_1" xmlns="http://www.w3.org/2000/svg" xmlns:xlink="http://www.w3.org/1999/xlink" x="0px" y="0px"
	 width="60px" height="60px" viewBox="0 0 60 60" enable-background="new 0 0 60 60" xml:space="preserve">
<g>
	<path fill="#010101" d="M30,60c16.542,0,30-13.458,30-30S46.542,0,30,0S0,13.458,0,30S13.458,60,30,60z M30,2
		c15.44,0,28,12.56,28,28S45.44,58,30,58S2,45.44,2,30S14.56,2,30,2z"/>
	<path fill="#010101" d="M18,32c-0.553,0-1,0.448-1,1s0.447,1,1,1h4v2c0,4.962,4.037,9,9,9c2.666,0,5.011-1.167,6.78-3.375
		c0.346-0.431,0.276-1.061-0.155-1.406c-0.43-0.346-1.06-0.275-1.405,0.155C34.823,42.117,33.067,43,31,43c-3.859,0-7-3.14-7-7v-2h6
		c0.553,0,1-0.448,1-1s-0.447-1-1-1h-6v-2h10c0.553,0,1-0.448,1-1s-0.447-1-1-1H24v-4c0-3.86,3.141-7,7-7
		c2.067,0,3.824,0.883,5.22,2.625c0.344,0.429,0.973,0.501,1.405,0.155c0.432-0.345,0.501-0.975,0.155-1.406
		C36.012,16.167,33.667,15,31,15c-4.963,0-9,4.038-9,9v4h-4c-0.553,0-1,0.448-1,1s0.447,1,1,1h4v2H18z"/>
</g>
</svg>
