<?xml version="1.0" encoding="utf-8"?>
<!-- Generator: Adobe Illustrator 17.0.0, SVG Export Plug-In . SVG Version: 6.00 Build 0)  -->
<!DOCTYPE svg PUBLIC "-//W3C//DTD SVG 1.1//EN" "http://www.w3.org/Graphics/SVG/1.1/DTD/svg11.dtd">
<svg version="1.1" id="Layer_1" xmlns="http://www.w3.org/2000/svg" xmlns:xlink="http://www.w3.org/1999/xlink" x="0px" y="0px"
	 width="60px" height="60px" viewBox="0 0 60 60" enable-background="new 0 0 60 60" xml:space="preserve">
<g>
	<path fill="#010101" d="M52,21.694V17c0-0.552-0.447-1-1-1H9c-0.553,0-1,0.448-1,1v4.694C3.254,23.374,0,27.918,0,33
		s3.254,9.626,8,11.306V49c0,0.552,0.447,1,1,1h42c0.553,0,1-0.448,1-1v-4.694c4.746-1.68,8-6.224,8-11.306S56.746,23.374,52,21.694
		z M50.727,42.613C50.297,42.735,50,43.128,50,43.575V48H10v-4.425c0-0.447-0.297-0.84-0.728-0.962C4.99,41.4,2,37.447,2,33
		c0-4.447,2.99-8.4,7.272-9.613C9.703,23.265,10,22.872,10,22.425V18h40v4.425c0,0.447,0.297,0.84,0.727,0.962
		C55.01,24.6,58,28.553,58,33C58,37.447,55.01,41.4,50.727,42.613z"/>
	<path fill="#010101" d="M35,25c0.553,0,1-0.448,1-1s-0.447-1-1-1c-4.469,0-8.261,2.947-9.539,7H23c-0.553,0-1,0.448-1,1
		s0.447,1,1,1h2.051C25.018,32.329,25,32.662,25,33s0.018,0.671,0.051,1H23c-0.553,0-1,0.448-1,1s0.447,1,1,1h2.461
		c1.277,4.053,5.07,7,9.539,7c0.553,0,1-0.448,1-1s-0.447-1-1-1c-3.35,0-6.221-2.072-7.411-5H33c0.553,0,1-0.448,1-1s-0.447-1-1-1
		h-5.931C27.028,33.672,27,33.339,27,33s0.028-0.672,0.069-1H33c0.553,0,1-0.448,1-1s-0.447-1-1-1h-5.411
		C28.779,27.072,31.65,25,35,25z"/>
</g>
</svg>
