<?xml version="1.0" encoding="utf-8"?>
<!-- Generator: Adobe Illustrator 17.0.0, SVG Export Plug-In . SVG Version: 6.00 Build 0)  -->
<!DOCTYPE svg PUBLIC "-//W3C//DTD SVG 1.1//EN" "http://www.w3.org/Graphics/SVG/1.1/DTD/svg11.dtd">
<svg version="1.1" id="Layer_1" xmlns="http://www.w3.org/2000/svg" xmlns:xlink="http://www.w3.org/1999/xlink" x="0px" y="0px"
	 width="60px" height="60px" viewBox="0 0 60 60" enable-background="new 0 0 60 60" xml:space="preserve">
<g>
	<path fill="#010101" d="M55,12H18.522C15.859,12,14,13.824,14,16.435v3.695C7.148,20.924,0,25.9,0,38v8c0,7.458,6.542,14,14,14h15
		h3.652H33c0.139,0,0.272-0.029,0.392-0.081C35.491,59.536,37,57.557,37,55c0-1.149-0.315-2.174-0.84-3H43c2.664,0,5-2.336,5-5
		c0-1.109-0.42-2.149-1.086-3H55c2.664,0,5-2.336,5-5V17C60,14.336,57.664,12,55,12z M16,16.435C16,14.933,16.966,14,18.522,14H55
		c1.542,0,3,1.458,3,3v5H28.838c-1.156-1.284-3.015-2-4.838-2h-8V16.435z M46,47c0,1.542-1.458,3-3,3H33
		c-0.043,0-0.08,0.019-0.122,0.025C32.802,50.02,32.73,50,32.652,50H26c-0.552,0-1,0.448-1,1c0,0.552,0.448,1,1,1h6.652
		C34.193,52,35,53.509,35,55c0,1.491-0.807,3-2.348,3H29H14C7.607,58,2,52.393,2,46v-8c0-15.228,11.662-16,14-16h8
		c1.966,0,4,1.122,4,3v2c0,1.949-2.061,3-4,3h-5c-0.418,0-0.792,0.261-0.938,0.653c-0.019,0.052-1.416,3.725-3.755,5.856
		c-0.006,0.006-0.013,0.011-0.019,0.017C13.337,37.387,12.235,38,11,38c-0.552,0-1,0.448-1,1c0,0.552,0.448,1,1,1
		c1.105,0,2.109-0.324,3.018-0.834C14.114,41.759,16.393,44,19,44h7h17C44.542,44,46,45.458,46,47z M55,42H43H26h-7
		c-1.542,0-3-1.458-3-3v-1.36c1.912-1.903,3.159-4.449,3.673-5.64H24c2.909,0,6-1.752,6-5v-2c0-0.35-0.044-0.682-0.115-1H58v15
		C58,40.542,56.542,42,55,42z"/>
	<path fill="#010101" d="M53,28h-8c-0.552,0-1,0.448-1,1c0,0.552,0.448,1,1,1h8c0.552,0,1-0.448,1-1C54,28.448,53.552,28,53,28z"/>
</g>
</svg>
