<?xml version="1.0" encoding="utf-8"?>
<!-- Generator: Adobe Illustrator 17.0.0, SVG Export Plug-In . SVG Version: 6.00 Build 0)  -->
<!DOCTYPE svg PUBLIC "-//W3C//DTD SVG 1.1//EN" "http://www.w3.org/Graphics/SVG/1.1/DTD/svg11.dtd">
<svg version="1.1" id="Layer_1" xmlns="http://www.w3.org/2000/svg" xmlns:xlink="http://www.w3.org/1999/xlink" x="0px" y="0px"
	 width="60px" height="60px" viewBox="0 0 60 60" enable-background="new 0 0 60 60" xml:space="preserve">
<g>
	<path fill="#010101" d="M55,12H5c-2.757,0-5,2.243-5,5v32c0,2.757,2.243,5,5,5h50c2.757,0,5-2.243,5-5V17
		C60,14.243,57.757,12,55,12z M58,49c0,1.654-1.346,3-3,3H5c-1.654,0-3-1.346-3-3V17c0-1.654,1.346-3,3-3h50c1.654,0,3,1.346,3,3V49
		z"/>
	<path fill="#010101" d="M40,20c-3.646,0-7.039,1.509-9.496,4.159C28.128,21.608,24.752,20,21,20c-2.535,0-4.894,0.74-6.896,2H14
		v0.063c-3.602,2.314-6,6.347-6,10.938c0,4.59,2.398,8.623,6,10.936V44h0.103c2.002,1.26,4.362,2,6.896,2
		c3.752,0,7.128-1.607,9.503-4.158C32.96,44.492,36.353,46,40,46c7.169,0,13-5.832,13-13C53,25.832,47.168,20,40,20z M28,41.479V40
		h-2v2h1.305c-0.994,0.698-2.108,1.233-3.305,1.574V42h-2v1.949C21.67,43.979,21.337,44,21,44c-1.801,0-3.497-0.444-5-1.214V42
		h-1.305c-1.462-1.027-2.66-2.4-3.481-4H12v-2h-1.574c-0.183-0.645-0.313-1.312-0.376-2H12v-2h-1.949
		c0.062-0.688,0.192-1.355,0.376-2H12v-2h-0.785c0.821-1.6,2.019-2.973,3.481-4H16v-0.786C17.502,22.444,19.198,22,21,22
		c0.338,0,0.67,0.021,1,0.051V24h2v-1.573c1.197,0.34,2.31,0.875,3.304,1.573H26v2h2v-1.478c1.696,1.402,2.956,3.306,3.573,5.478H30
		v2h1.949C31.979,32.33,32,32.663,32,33.001c0,0.337-0.021,0.669-0.051,0.999H30v2h1.574C30.956,38.172,29.696,40.076,28,41.479z
		 M40,44c-3.18,0-6.13-1.362-8.223-3.737C33.18,38.188,34,35.689,34,33.001c0-2.688-0.82-5.188-2.223-7.263
		C33.871,23.362,36.82,22,40,22c6.066,0,11,4.935,11,11.001C51,39.066,46.065,44,40,44z"/>
	<rect x="14" y="30" fill="#010101" width="2" height="2"/>
	<rect x="14" y="34" fill="#010101" width="2" height="2"/>
	<rect x="18" y="36" fill="#010101" width="2" height="2"/>
	<rect x="18" y="40" fill="#010101" width="2" height="2"/>
	<rect x="18" y="24" fill="#010101" width="2" height="2"/>
	<rect x="18" y="32" fill="#010101" width="2" height="2"/>
	<rect x="18" y="28" fill="#010101" width="2" height="2"/>
	<rect x="26" y="36" fill="#010101" width="2" height="2"/>
	<rect x="26" y="32" fill="#010101" width="2" height="2"/>
	<rect x="26" y="28" fill="#010101" width="2" height="2"/>
	<rect x="14" y="38" fill="#010101" width="2" height="2"/>
	<rect x="14" y="26" fill="#010101" width="2" height="2"/>
	<rect x="22" y="30" fill="#010101" width="2" height="2"/>
	<rect x="22" y="34" fill="#010101" width="2" height="2"/>
	<rect x="22" y="38" fill="#010101" width="2" height="2"/>
	<rect x="22" y="26" fill="#010101" width="2" height="2"/>
</g>
</svg>
