<?xml version="1.0" encoding="utf-8"?>
<!-- Generator: Adobe Illustrator 17.0.0, SVG Export Plug-In . SVG Version: 6.00 Build 0)  -->
<!DOCTYPE svg PUBLIC "-//W3C//DTD SVG 1.1//EN" "http://www.w3.org/Graphics/SVG/1.1/DTD/svg11.dtd">
<svg version="1.1" id="Layer_1" xmlns="http://www.w3.org/2000/svg" xmlns:xlink="http://www.w3.org/1999/xlink" x="0px" y="0px"
	 width="60px" height="60px" viewBox="0 0 60 60" enable-background="new 0 0 60 60" xml:space="preserve">
<g>
	<path fill="#010101" d="M59,48c-0.552,0-1,0.448-1,1v3c0,0.552,0.448,1,1,1s1-0.448,1-1v-3C60,48.448,59.552,48,59,48z"/>
	<path fill="#010101" d="M59,28c-0.552,0-1,0.448-1,1v3c0,0.552,0.448,1,1,1s1-0.448,1-1v-3C60,28.448,59.552,28,59,28z"/>
	<path fill="#010101" d="M59,38c-0.552,0-1,0.448-1,1v3c0,0.552,0.448,1,1,1s1-0.448,1-1v-3C60,38.448,59.552,38,59,38z"/>
	<path fill="#010101" d="M59,18c-0.552,0-1,0.448-1,1v2c0,0.552,0.448,1,1,1s1-0.448,1-1v-2C60,18.448,59.552,18,59,18z"/>
	<path fill="#010101" d="M59,8c-0.552,0-1,0.448-1,1v2c0,0.552,0.448,1,1,1s1-0.448,1-1V9C60,8.448,59.552,8,59,8z"/>
	<path fill="#010101" d="M1,60h3c0.552,0,1-0.448,1-1s-0.448-1-1-1H2v-1c0-0.552-0.448-1-1-1s-1,0.448-1,1v2C0,59.552,0.448,60,1,60
		z"/>
	<path fill="#010101" d="M59,56c-0.552,0-1,0.448-1,1v1h-1c-0.552,0-1,0.448-1,1s0.448,1,1,1h2c0.552,0,1-0.448,1-1v-2
		C60,56.448,59.552,56,59,56z"/>
	<path fill="#010101" d="M1,5c0.552,0,1-0.448,1-1V2h2c0.552,0,1-0.448,1-1S4.552,0,4,0H1C0.448,0,0,0.448,0,1v3
		C0,4.552,0.448,5,1,5z"/>
	<path fill="#010101" d="M59,0h-2c-0.552,0-1,0.448-1,1s0.448,1,1,1h1v2c0,0.552,0.448,1,1,1s1-0.448,1-1V1C60,0.448,59.552,0,59,0z
		"/>
	<path fill="#010101" d="M9,60h2c0.552,0,1-0.448,1-1s-0.448-1-1-1H9c-0.552,0-1,0.448-1,1S8.448,60,9,60z"/>
	<path fill="#010101" d="M29,58c-0.552,0-1,0.448-1,1s0.448,1,1,1h2c0.552,0,1-0.448,1-1s-0.448-1-1-1H29z"/>
	<path fill="#010101" d="M19,60h2c0.552,0,1-0.448,1-1s-0.448-1-1-1h-2c-0.552,0-1,0.448-1,1S18.448,60,19,60z"/>
	<path fill="#010101" d="M39,58c-0.552,0-1,0.448-1,1s0.448,1,1,1h2c0.552,0,1-0.448,1-1s-0.448-1-1-1H39z"/>
	<path fill="#010101" d="M49,60h3c0.552,0,1-0.448,1-1s-0.448-1-1-1h-3c-0.552,0-1,0.448-1,1S48.448,60,49,60z"/>
	<path fill="#010101" d="M9,2h2c0.552,0,1-0.448,1-1s-0.448-1-1-1H9C8.448,0,8,0.448,8,1S8.448,2,9,2z"/>
	<path fill="#010101" d="M31,2c0.552,0,1-0.448,1-1s-0.448-1-1-1h-2c-0.552,0-1,0.448-1,1s0.448,1,1,1H31z"/>
	<path fill="#010101" d="M21,2c0.552,0,1-0.448,1-1s-0.448-1-1-1h-2c-0.552,0-1,0.448-1,1s0.448,1,1,1H21z"/>
	<path fill="#010101" d="M41,0h-2c-0.552,0-1,0.448-1,1s0.448,1,1,1h2c0.552,0,1-0.448,1-1S41.552,0,41,0z"/>
	<path fill="#010101" d="M49,2h3c0.552,0,1-0.448,1-1s-0.448-1-1-1h-3c-0.552,0-1,0.448-1,1S48.448,2,49,2z"/>
	<path fill="#010101" d="M1,53c0.552,0,1-0.448,1-1v-3c0-0.552-0.448-1-1-1s-1,0.448-1,1v3C0,52.552,0.448,53,1,53z"/>
	<path fill="#010101" d="M1,33c0.552,0,1-0.448,1-1v-3c0-0.552-0.448-1-1-1s-1,0.448-1,1v3C0,32.552,0.448,33,1,33z"/>
	<path fill="#010101" d="M1,43c0.552,0,1-0.448,1-1v-3c0-0.552-0.448-1-1-1s-1,0.448-1,1v3C0,42.552,0.448,43,1,43z"/>
	<path fill="#010101" d="M1,22c0.552,0,1-0.448,1-1v-2c0-0.552-0.448-1-1-1s-1,0.448-1,1v2C0,21.552,0.448,22,1,22z"/>
	<path fill="#010101" d="M1,12c0.552,0,1-0.448,1-1V9c0-0.552-0.448-1-1-1S0,8.448,0,9v2C0,11.552,0.448,12,1,12z"/>
	<path fill="#010101" d="M19.293,40.707C19.488,40.902,19.744,41,20,41s0.512-0.098,0.707-0.293l20-20
		c0.391-0.391,0.391-1.023,0-1.414c-0.391-0.391-1.023-0.391-1.414,0l-20,20C18.902,39.684,18.902,40.316,19.293,40.707z"/>
	<path fill="#010101" d="M23,28c2.757,0,5-2.243,5-5c0-2.757-2.243-5-5-5c-2.757,0-5,2.243-5,5C18,25.757,20.243,28,23,28z M23,20
		c1.654,0,3,1.346,3,3s-1.346,3-3,3s-3-1.346-3-3S21.346,20,23,20z"/>
	<path fill="#010101" d="M37,32c-2.757,0-5,2.243-5,5c0,2.757,2.243,5,5,5c2.757,0,5-2.243,5-5C42,34.243,39.757,32,37,32z M37,40
		c-1.654,0-3-1.346-3-3s1.346-3,3-3s3,1.346,3,3S38.654,40,37,40z"/>
</g>
</svg>
