<?xml version="1.0" encoding="utf-8"?>
<!-- Generator: Adobe Illustrator 17.0.0, SVG Export Plug-In . SVG Version: 6.00 Build 0)  -->
<!DOCTYPE svg PUBLIC "-//W3C//DTD SVG 1.1//EN" "http://www.w3.org/Graphics/SVG/1.1/DTD/svg11.dtd">
<svg version="1.1" id="Layer_1" xmlns="http://www.w3.org/2000/svg" xmlns:xlink="http://www.w3.org/1999/xlink" x="0px" y="0px"
	 width="60px" height="60px" viewBox="0 0 60 60" enable-background="new 0 0 60 60" xml:space="preserve">
<g>
	<path fill="#010101" d="M59.923,0.618c-0.101-0.245-0.296-0.439-0.541-0.541C59.26,0.027,59.13,0,59,0H43c-0.552,0-1,0.448-1,1
		s0.448,1,1,1h13.586L0.293,58.293c-0.391,0.391-0.391,1.023,0,1.414C0.488,59.902,0.744,60,1,60s0.512-0.098,0.707-0.293L58,3.414
		V17c0,0.552,0.448,1,1,1s1-0.448,1-1V1C60,0.87,59.973,0.74,59.923,0.618z"/>
	<path fill="#010101" d="M12,22c5.514,0,10-4.486,10-10c0-5.514-4.486-10-10-10C6.486,2,2,6.486,2,12C2,17.514,6.486,22,12,22z
		 M12,4c4.411,0,8,3.589,8,8c0,4.411-3.589,8-8,8c-4.411,0-8-3.589-8-8C4,7.589,7.589,4,12,4z"/>
	<path fill="#010101" d="M58,48c0-5.514-4.486-10-10-10c-5.514,0-10,4.486-10,10s4.486,10,10,10C53.514,58,58,53.514,58,48z M40,48
		c0-4.411,3.589-8,8-8c4.411,0,8,3.589,8,8c0,4.411-3.589,8-8,8C43.589,56,40,52.411,40,48z"/>
</g>
</svg>
