<?xml version="1.0" encoding="utf-8"?>
<!-- Generator: Adobe Illustrator 17.0.0, SVG Export Plug-In . SVG Version: 6.00 Build 0)  -->
<!DOCTYPE svg PUBLIC "-//W3C//DTD SVG 1.1//EN" "http://www.w3.org/Graphics/SVG/1.1/DTD/svg11.dtd">
<svg version="1.1" id="Layer_1" xmlns="http://www.w3.org/2000/svg" xmlns:xlink="http://www.w3.org/1999/xlink" x="0px" y="0px"
	 width="60px" height="60px" viewBox="0 0 60 60" enable-background="new 0 0 60 60" xml:space="preserve">
<g>
	<path fill="#010101" d="M33,0c-0.553,0-1,0.448-1,1v26c0,0.552,0.447,1,1,1h26c0.553,0,1-0.448,1-1C60,12.112,47.888,0,33,0z
		 M34,26V2.02C46.991,2.533,57.467,13.008,57.98,26H34z"/>
	<path fill="#010101" d="M28,32.586V7c0-0.552-0.447-1-1-1C12.112,6,0,18.112,0,33s12.112,27,27,27
		c7.212,0,13.992-2.809,19.092-7.908c0.188-0.188,0.293-0.442,0.293-0.707c0-0.265-0.105-0.52-0.293-0.707L28,32.586z M27,58
		C13.215,58,2,46.785,2,33C2,19.55,12.677,8.546,26,8.02V33c0,0.265,0.105,0.52,0.293,0.707l17.664,17.664
		C39.326,55.654,33.344,58,27,58z"/>
	<path fill="#010101" d="M59,30H33c-0.404,0-0.77,0.244-0.924,0.617c-0.155,0.374-0.069,0.804,0.217,1.09l18.385,18.385
		c0.188,0.188,0.441,0.293,0.707,0.293c0.266,0,0.52-0.106,0.707-0.293C57.191,44.992,60,38.212,60,31C60,30.448,59.553,30,59,30z
		 M51.371,47.956L35.414,32H57.98C57.747,37.971,55.428,43.57,51.371,47.956z"/>
</g>
</svg>
