<?xml version="1.0" encoding="utf-8"?>
<!-- Generator: Adobe Illustrator 17.0.0, SVG Export Plug-In . SVG Version: 6.00 Build 0)  -->
<!DOCTYPE svg PUBLIC "-//W3C//DTD SVG 1.1//EN" "http://www.w3.org/Graphics/SVG/1.1/DTD/svg11.dtd">
<svg version="1.1" id="Layer_1" xmlns="http://www.w3.org/2000/svg" xmlns:xlink="http://www.w3.org/1999/xlink" x="0px" y="0px"
	 width="60px" height="60px" viewBox="0 0 60 60" enable-background="new 0 0 60 60" xml:space="preserve">
<g>
	<path fill="#010101" d="M29.066,19.998c4.185-0.278,8.794,1.144,12.333,3.802c0.18,0.135,0.391,0.2,0.6,0.2
		c0.304,0,0.604-0.138,0.801-0.399c0.331-0.442,0.242-1.069-0.199-1.4c-3.912-2.936-9.027-4.503-13.667-4.198
		c-0.551,0.037-0.968,0.513-0.932,1.064C28.039,19.617,28.505,20.035,29.066,19.998z"/>
	<path fill="#010101" d="M1,42h6.362C9.802,47.035,14.21,50.636,20,52.512V59c0,0.552,0.448,1,1,1s1-0.448,1-1v-5.919
		C24.465,53.68,27.139,54,30,54c2.798,0,5.487-0.397,8-1.117V59c0,0.552,0.448,1,1,1s1-0.448,1-1v-6.772
		c8.453-3.135,14.471-10.114,14.926-18.304C57.835,33.49,60,31.048,60,28c0-0.552-0.448-1-1-1s-1,0.448-1,1
		c0,1.922-1.294,3.478-3.075,3.887C54.278,20.829,43.346,12,30,12c-1.935,0-3.831,0.031-5.704,0.37C22.48,9.657,19.416,8,16.132,8
		c-1.717,0-3.417,0.458-4.916,1.325c-0.309,0.179-0.499,0.509-0.499,0.866c0,0.357,0.19,0.687,0.5,0.866
		c1.913,1.107,3.242,2.912,3.718,5.018C9.791,19.398,6.201,24.515,5.153,30H1c-0.552,0-1,0.448-1,1v10C0,41.552,0.448,42,1,42z
		 M2,32h4c0.498,0,0.92-0.367,0.99-0.86c0.767-5.428,4.344-10.557,9.568-13.722c0.342-0.208,0.528-0.599,0.472-0.996
		c-0.337-2.377-1.517-4.5-3.313-6.036C14.497,10.131,15.312,10,16.132,10c2.81,0,5.418,1.525,6.809,3.981
		c0.217,0.384,0.66,0.579,1.09,0.483C25.933,14.036,27.94,14,30,14c12.658,0,22.956,8.489,22.956,18.924
		C52.956,43.443,42.658,52,30,52c-10.179,0-17.865-4.157-21.086-11.406C8.753,40.233,8.395,40,8,40H2V32z"/>
	<path fill="#010101" d="M16,32c1.654,0,3-1.346,3-3s-1.346-3-3-3s-3,1.346-3,3S14.346,32,16,32z M16,28c0.551,0,1,0.449,1,1
		c0,0.551-0.449,1-1,1s-1-0.449-1-1C15,28.449,15.449,28,16,28z"/>
</g>
</svg>
