<?xml version="1.0" encoding="utf-8"?>
<!-- Generator: Adobe Illustrator 17.0.0, SVG Export Plug-In . SVG Version: 6.00 Build 0)  -->
<!DOCTYPE svg PUBLIC "-//W3C//DTD SVG 1.1//EN" "http://www.w3.org/Graphics/SVG/1.1/DTD/svg11.dtd">
<svg version="1.1" id="Layer_1" xmlns="http://www.w3.org/2000/svg" xmlns:xlink="http://www.w3.org/1999/xlink" x="0px" y="0px"
	 width="60px" height="60px" viewBox="0 0 60 60" enable-background="new 0 0 60 60" xml:space="preserve">
<g>
	<path fill="#010101" d="M56.795,24.67c1.389-1.685,1.793-4.045,0.924-6.152c-0.865-2.083-2.79-3.486-5.002-3.696
		c0.64-2.088,0.109-4.422-1.502-6.035c-1.139-1.139-2.653-1.767-4.264-1.767c-0.607,0-1.202,0.089-1.771,0.263
		c-0.208-2.174-1.592-4.128-3.699-5c-2.067-0.855-4.492-0.453-6.151,0.92C34.303,1.275,32.277,0,30,0
		c-2.278,0-4.304,1.275-5.329,3.204c-1.659-1.372-4.081-1.776-6.151-0.92c-2.104,0.872-3.488,2.826-3.697,5
		c-0.568-0.174-1.164-0.263-1.771-0.263c-1.61,0-3.125,0.628-4.265,1.767c-1.611,1.611-2.142,3.945-1.501,6.035
		c-2.213,0.21-4.138,1.615-5.001,3.698c-0.873,2.104-0.47,4.464,0.92,6.149C1.275,25.695,0,27.721,0,30
		c0,2.278,1.276,4.304,3.205,5.33c-1.39,1.685-1.793,4.045-0.922,6.15c0.863,2.084,2.789,3.488,5.003,3.698
		c-0.639,2.088-0.109,4.423,1.501,6.036c1.14,1.138,2.653,1.765,4.263,1.765c0.607,0,1.203-0.09,1.772-0.264
		c0.209,2.175,1.594,4.129,3.699,5.001c2.064,0.857,4.491,0.454,6.15-0.919C25.696,58.725,27.722,60,30,60
		c2.277,0,4.304-1.275,5.329-3.204c1.659,1.373,4.084,1.775,6.152,0.919c2.106-0.871,3.489-2.825,3.697-5.001
		c0.569,0.174,1.165,0.263,1.771,0.263c1.61,0,3.125-0.626,4.265-1.766c1.611-1.612,2.141-3.947,1.501-6.035
		c2.213-0.21,4.138-1.614,5.003-3.698c0.872-2.104,0.469-4.464-0.922-6.15C58.725,34.306,60,32.28,60,30
		C60,27.721,58.725,25.695,56.795,24.67z M54.703,33.966c-0.402,0.075-0.719,0.387-0.799,0.788c-0.08,0.401,0.092,0.811,0.435,1.034
		c1.631,1.061,2.275,3.133,1.531,4.926c-0.734,1.771-2.684,2.803-4.568,2.403c-0.404-0.085-0.811,0.083-1.039,0.423
		c-0.227,0.34-0.224,0.784,0.008,1.122c1.101,1.602,0.902,3.762-0.471,5.136c-1.344,1.341-3.579,1.542-5.139,0.472
		c-0.338-0.231-0.782-0.235-1.122-0.007c-0.34,0.227-0.508,0.639-0.423,1.039c0.403,1.903-0.606,3.823-2.4,4.566
		c-0.494,0.205-1.014,0.309-1.543,0.309c-1.372,0-2.637-0.687-3.384-1.837c-0.223-0.343-0.634-0.514-1.033-0.437
		c-0.401,0.08-0.714,0.396-0.789,0.797C33.611,56.612,31.942,58,30,58s-3.61-1.388-3.966-3.299
		c-0.075-0.402-0.387-0.718-0.788-0.798c-0.065-0.013-0.131-0.019-0.195-0.019c-0.334,0-0.651,0.167-0.838,0.455
		c-1.038,1.594-3.148,2.266-4.927,1.529c-1.794-0.743-2.806-2.663-2.403-4.566c0.084-0.4-0.083-0.811-0.423-1.038
		c-0.34-0.227-0.785-0.224-1.121,0.007c-1.559,1.068-3.793,0.87-5.138-0.471c-1.372-1.374-1.57-3.535-0.471-5.138
		c0.231-0.337,0.234-0.781,0.007-1.122c-0.227-0.339-0.637-0.51-1.038-0.423c-0.274,0.058-0.556,0.088-0.836,0.088
		c-1.641,0-3.105-0.978-3.732-2.49c-0.742-1.794-0.099-3.867,1.53-4.928c0.343-0.223,0.515-0.632,0.435-1.033
		c-0.079-0.401-0.396-0.713-0.797-0.788C3.387,33.61,2,31.942,2,30c0-1.942,1.388-3.611,3.299-3.967
		c0.401-0.075,0.718-0.387,0.797-0.788c0.08-0.401-0.093-0.81-0.435-1.033c-1.629-1.06-2.272-3.131-1.527-4.925
		c0.734-1.772,2.685-2.801,4.566-2.403c0.401,0.086,0.812-0.083,1.038-0.423c0.227-0.34,0.225-0.784-0.007-1.122
		c-1.101-1.604-0.902-3.764,0.471-5.136c1.344-1.344,3.579-1.543,5.138-0.474c0.336,0.23,0.779,0.234,1.121,0.007
		c0.34-0.227,0.507-0.638,0.423-1.038c-0.402-1.902,0.608-3.823,2.401-4.566c1.781-0.734,3.893-0.063,4.929,1.53
		c0.223,0.342,0.629,0.514,1.033,0.436c0.401-0.08,0.713-0.396,0.788-0.798C26.39,3.387,28.058,2,30,2s3.611,1.388,3.968,3.299
		c0.075,0.402,0.388,0.718,0.789,0.797c0.401,0.08,0.812-0.093,1.033-0.437c1.035-1.595,3.148-2.266,4.925-1.529
		c1.797,0.745,2.808,2.664,2.402,4.565c-0.085,0.4,0.082,0.812,0.423,1.04c0.34,0.228,0.784,0.224,1.122-0.007
		c1.556-1.07,3.794-0.873,5.139,0.472c1.373,1.376,1.571,3.536,0.471,5.137c-0.232,0.337-0.234,0.781-0.008,1.122
		c0.228,0.34,0.635,0.508,1.039,0.423c1.884-0.4,3.834,0.632,4.567,2.4c0.742,1.796,0.098,3.87-1.531,4.931
		c-0.343,0.223-0.515,0.632-0.435,1.033c0.08,0.401,0.396,0.713,0.798,0.788C56.613,26.39,58,28.057,58,30
		C58,31.944,56.613,33.612,54.703,33.966z"/>
	<path fill="#010101" d="M32,18c2.43,0,4,1.57,4,4c0,0.552,0.447,1,1,1c0.553,0,1-0.448,1-1c0-3.533-2.468-6-6-6
		c-3.532,0-6,2.467-6,6v6h-5c-0.553,0-1,0.448-1,1s0.447,1,1,1h5v3c0,3.372-1.565,7-5,7c-0.553,0-1,0.448-1,1s0.447,1,1,1h16
		c0.553,0,1-0.448,1-1s-0.447-1-1-1H25.617C27.235,38.238,28,35.562,28,33v-3h5c0.553,0,1-0.448,1-1s-0.447-1-1-1h-5v-6
		C28,19.57,29.57,18,32,18z"/>
</g>
</svg>
