<?xml version="1.0" encoding="utf-8"?>
<!-- Generator: Adobe Illustrator 17.0.0, SVG Export Plug-In . SVG Version: 6.00 Build 0)  -->
<!DOCTYPE svg PUBLIC "-//W3C//DTD SVG 1.1//EN" "http://www.w3.org/Graphics/SVG/1.1/DTD/svg11.dtd">
<svg version="1.1" id="Layer_1" xmlns="http://www.w3.org/2000/svg" xmlns:xlink="http://www.w3.org/1999/xlink" x="0px" y="0px"
	 width="60px" height="60px" viewBox="0 0 60 60" enable-background="new 0 0 60 60" xml:space="preserve">
<g>
	<path fill="#010101" d="M32,24c1.439,0,2,0.56,2,2c0,0.552,0.447,1,1,1c0.553,0,1-0.448,1-1c0-2.542-1.458-4-4-4s-4,1.419-4,3.891
		V30h-3c-0.553,0-1,0.448-1,1s0.447,1,1,1h3v3c0,1.038-0.418,3-2,3c-0.553,0-1,0.448-1,1s0.447,1,1,1h9c0.553,0,1-0.448,1-1
		s-0.447-1-1-1h-5.741C29.75,37.127,30,36.06,30,35v-3h3c0.553,0,1-0.448,1-1s-0.447-1-1-1h-3v-4.109C30,24.53,30.56,24,32,24z"/>
	<path fill="#010101" d="M52,19.694V15c0-0.552-0.447-1-1-1H9c-0.553,0-1,0.448-1,1v4.694C3.254,21.374,0,25.918,0,31
		s3.254,9.626,8,11.306V47c0,0.552,0.447,1,1,1h42c0.553,0,1-0.448,1-1v-4.694c4.746-1.68,8-6.224,8-11.306S56.746,21.374,52,19.694
		z M50.727,40.613C50.297,40.735,50,41.128,50,41.575V46H10v-4.425c0-0.447-0.297-0.84-0.728-0.962C4.99,39.4,2,35.447,2,31
		c0-4.447,2.99-8.4,7.272-9.613C9.703,21.265,10,20.872,10,20.425V16h40v4.425c0,0.447,0.297,0.84,0.727,0.962
		C55.01,22.6,58,26.553,58,31C58,35.447,55.01,39.4,50.727,40.613z"/>
</g>
</svg>
