<?xml version="1.0" encoding="utf-8"?>
<!-- Generator: Adobe Illustrator 17.0.0, SVG Export Plug-In . SVG Version: 6.00 Build 0)  -->
<!DOCTYPE svg PUBLIC "-//W3C//DTD SVG 1.1//EN" "http://www.w3.org/Graphics/SVG/1.1/DTD/svg11.dtd">
<svg version="1.1" id="Layer_1" xmlns="http://www.w3.org/2000/svg" xmlns:xlink="http://www.w3.org/1999/xlink" x="0px" y="0px"
	 width="60px" height="60px" viewBox="0 0 60 60" enable-background="new 0 0 60 60" xml:space="preserve">
<g>
	<path fill="#010101" d="M37,2c7.169,0,13,5.831,13,13c0,0.552,0.448,1,1,1s1-0.448,1-1c0-8.271-6.729-15-15-15S22,6.729,22,15v15H9
		c-0.552,0-1,0.448-1,1s0.448,1,1,1h13v12c0,6.673-6.804,14-13,14c-0.552,0-1,0.448-1,1s0.448,1,1,1h41c0.552,0,1-0.448,1-1
		s-0.448-1-1-1H15.477C20.234,55.088,24,49.435,24,44V32h21c0.552,0,1-0.448,1-1s-0.448-1-1-1H24V15C24,7.953,29.953,2,37,2z"/>
</g>
</svg>
