<?xml version="1.0" encoding="utf-8"?>
<!-- Generator: Adobe Illustrator 17.0.0, SVG Export Plug-In . SVG Version: 6.00 Build 0)  -->
<!DOCTYPE svg PUBLIC "-//W3C//DTD SVG 1.1//EN" "http://www.w3.org/Graphics/SVG/1.1/DTD/svg11.dtd">
<svg version="1.1" id="Layer_1" xmlns="http://www.w3.org/2000/svg" xmlns:xlink="http://www.w3.org/1999/xlink" x="0px" y="0px"
	 width="60px" height="60px" viewBox="0 0 60 60" enable-background="new 0 0 60 60" xml:space="preserve">
<g>
	<path fill="#010101" d="M57,6H3C1.346,6,0,7.346,0,9v44c0,1.654,1.346,3,3,3h3v3c0,0.552,0.447,1,1,1h6c0.553,0,1-0.448,1-1v-3h32
		v3c0,0.552,0.447,1,1,1h6c0.553,0,1-0.448,1-1v-3h3c1.654,0,3-1.346,3-3V9C60,7.346,58.654,6,57,6z M12,58H8v-2h4V58z M52,58h-4v-2
		h4V58z M58,53c0,0.551-0.448,1-1,1H3c-0.552,0-1-0.449-1-1V9c0-0.551,0.448-1,1-1h54c0.552,0,1,0.449,1,1V53z"/>
	<path fill="#010101" d="M51,12H9c-1.654,0-3,1.346-3,3v5H5c-0.553,0-1,0.448-1,1v4c0,0.552,0.447,1,1,1h1v10H5
		c-0.553,0-1,0.448-1,1v4c0,0.552,0.447,1,1,1h1v5c0,1.654,1.346,3,3,3h42c1.654,0,3-1.346,3-3V15C54,13.346,52.654,12,51,12z M6,22
		h2v2H6V22z M6,38h2v2H6V38z M52,47c0,0.551-0.448,1-1,1H9c-0.552,0-1-0.449-1-1v-5h1c0.553,0,1-0.448,1-1v-4c0-0.552-0.447-1-1-1H8
		V26h1c0.553,0,1-0.448,1-1v-4c0-0.552-0.447-1-1-1H8v-5c0-0.551,0.448-1,1-1h42c0.552,0,1,0.449,1,1V47z"/>
	<path fill="#010101" d="M40,16c-4.411,0-8,3.589-8,8c0,4.411,3.589,8,8,8c4.411,0,8-3.589,8-8C48,19.589,44.411,16,40,16z M40,30
		c-3.309,0-6-2.691-6-6s2.691-6,6-6s6,2.691,6,6S43.309,30,40,30z"/>
	<circle fill="#010101" cx="40" cy="24" r="2"/>
	<rect x="36" y="34" fill="#010101" width="2" height="2"/>
	<rect x="40" y="34" fill="#010101" width="2" height="2"/>
	<rect x="44" y="34" fill="#010101" width="2" height="2"/>
	<rect x="36" y="38" fill="#010101" width="2" height="2"/>
	<rect x="40" y="38" fill="#010101" width="2" height="2"/>
	<rect x="44" y="38" fill="#010101" width="2" height="2"/>
	<rect x="36" y="42" fill="#010101" width="2" height="2"/>
	<rect x="40" y="42" fill="#010101" width="2" height="2"/>
	<rect x="44" y="42" fill="#010101" width="2" height="2"/>
</g>
</svg>
