<?xml version="1.0" encoding="utf-8"?>
<!-- Generator: Adobe Illustrator 17.0.0, SVG Export Plug-In . SVG Version: 6.00 Build 0)  -->
<!DOCTYPE svg PUBLIC "-//W3C//DTD SVG 1.1//EN" "http://www.w3.org/Graphics/SVG/1.1/DTD/svg11.dtd">
<svg version="1.1" id="Layer_1" xmlns="http://www.w3.org/2000/svg" xmlns:xlink="http://www.w3.org/1999/xlink" x="0px" y="0px"
	 width="60px" height="60px" viewBox="0 0 60 60" enable-background="new 0 0 60 60" xml:space="preserve">
<g>
	<path fill="#010101" d="M53,0H7C3.663,0,0,3.664,0,7v44c0,3.005,2.972,6.266,6,6.886V59c0,0.552,0.447,1,1,1c0.553,0,1-0.448,1-1
		v-1h44v1c0,0.552,0.447,1,1,1c0.553,0,1-0.448,1-1v-1.114c3.028-0.62,6-3.881,6-6.886V7C60,3.664,56.337,0,53,0z M58,51
		c0,2.243-2.757,5-5,5H7c-2.243,0-5-2.757-5-5V7c0-2.243,2.757-5,5-5h46c2.243,0,5,2.757,5,5V51z"/>
	<path fill="#010101" d="M46,8H14c-3.532,0-6,2.467-6,6v2H7c-0.553,0-1,0.448-1,1v8c0,0.552,0.447,1,1,1h1v6H7c-0.553,0-1,0.448-1,1
		v8c0,0.552,0.447,1,1,1h1v2c0,3.533,2.468,6,6,6h32c3.532,0,6-2.467,6-6V14C52,10.467,49.532,8,46,8z M8,18h2v6H8V18z M8,34h2v6H8
		V34z M50,44c0,2.43-1.57,4-4,4H14c-2.43,0-4-1.57-4-4v-2h1c0.553,0,1-0.448,1-1v-8c0-0.552-0.447-1-1-1h-1v-6h1
		c0.553,0,1-0.448,1-1v-8c0-0.552-0.447-1-1-1h-1v-2c0-2.43,1.57-4,4-4h32c2.43,0,4,1.57,4,4V44z"/>
	<path fill="#010101" d="M40.21,19.836c-0.008-0.008-0.01-0.02-0.018-0.028c-0.008-0.008-0.019-0.011-0.028-0.018
		C37.811,17.449,34.572,16,31,16c-3.572,0-6.81,1.449-9.162,3.789c-0.009,0.009-0.022,0.011-0.031,0.021
		c-0.009,0.009-0.012,0.022-0.021,0.032C19.448,22.193,18,25.43,18,29c0,3.57,1.448,6.807,3.785,9.158
		c0.01,0.01,0.013,0.024,0.023,0.034c0.01,0.01,0.024,0.013,0.034,0.023c2.351,2.337,5.587,3.784,9.155,3.785
		C30.998,42,30.999,42,31,42S31.002,42,31.003,42c3.568-0.001,6.804-1.448,9.155-3.785c0.01-0.009,0.024-0.012,0.034-0.022
		s0.013-0.023,0.022-0.034C42.552,35.807,44,32.57,44,29C44,25.427,42.55,22.188,40.21,19.836z M39.448,36.034l-2.85-2.849
		c0.686-0.915,1.151-2.001,1.322-3.184l4.029,0C41.742,32.283,40.839,34.367,39.448,36.034z M20.051,30h4.029
		c0.17,1.183,0.636,2.269,1.322,3.185l-2.85,2.849C21.161,34.366,20.258,32.283,20.051,30z M22.551,21.967l2.85,2.849
		C24.716,25.731,24.25,26.817,24.08,28h-4.029C20.258,25.718,21.161,23.635,22.551,21.967z M31,34c-2.757,0-5-2.243-5-5
		c0-2.757,2.243-5,5-5c2.757,0,5,2.243,5,5C36,31.757,33.757,34,31,34z M35.185,23.402C34.269,22.716,33.183,22.25,32,22.08
		l-0.001-4.029c2.283,0.207,4.367,1.111,6.034,2.501L35.185,23.402z M30,22.08c-1.183,0.17-2.269,0.636-3.184,1.322l-2.851-2.849
		c1.667-1.391,3.751-2.295,6.034-2.502L30,22.08z M26.816,34.599c0.915,0.686,2.001,1.151,3.184,1.322v4.029
		c-2.283-0.207-4.366-1.111-6.034-2.501L26.816,34.599z M32,35.92c1.183-0.17,2.269-0.636,3.184-1.322l2.85,2.849
		c-1.667,1.391-3.751,2.294-6.034,2.501V35.92z M37.92,28c-0.17-1.183-0.636-2.269-1.322-3.184l2.849-2.85
		c1.391,1.667,2.295,3.751,2.502,6.034L37.92,28z"/>
</g>
</svg>
