<?xml version="1.0" encoding="utf-8"?>
<!-- Generator: Adobe Illustrator 17.0.0, SVG Export Plug-In . SVG Version: 6.00 Build 0)  -->
<!DOCTYPE svg PUBLIC "-//W3C//DTD SVG 1.1//EN" "http://www.w3.org/Graphics/SVG/1.1/DTD/svg11.dtd">
<svg version="1.1" id="Layer_1" xmlns="http://www.w3.org/2000/svg" xmlns:xlink="http://www.w3.org/1999/xlink" x="0px" y="0px"
	 width="60px" height="60px" viewBox="0 0 60 60" enable-background="new 0 0 60 60" xml:space="preserve">
<g>
	<path fill="#010101" d="M31,36H11c-0.553,0-1,0.448-1,1v14c0,0.552,0.447,1,1,1h20c0.553,0,1-0.448,1-1V37
		C32,36.448,31.553,36,31,36z M30,50H12V38h18V50z"/>
	<path fill="#010101" d="M59.93,18.654c-0.011-0.029-0.023-0.056-0.036-0.084c-0.013-0.028-0.02-0.058-0.036-0.084l-6-10
		C53.677,8.184,53.352,8,53,8H7C6.648,8,6.323,8.184,6.143,8.485l-6,10c-0.016,0.027-0.023,0.057-0.037,0.085
		c-0.013,0.028-0.025,0.054-0.036,0.084c-0.041,0.111-0.068,0.225-0.069,0.342C0.001,18.997,0,18.998,0,19v2
		c0,4.266,2.514,7.74,6,8.716V59c0,0.552,0.447,1,1,1h30h12h4c0.553,0,1-0.448,1-1V29.409c3.385-1.325,6-4.734,6-8.409v-2
		c0-0.002-0.001-0.003-0.001-0.005C59.999,18.879,59.971,18.765,59.93,18.654z M57.233,18H45.744l-2.4-8h9.089L57.233,18z
		 M44,26.695C42.344,29.239,40.954,30,38,30c-2.799,0-6.341-0.841-8-2.433V20h14V26.695z M16,20h12v7.598
		C26.419,29.27,24.605,30,22,30c-2.957,0-4.347-0.762-6-3.306V20z M28,10v8H16.344l2.4-8H28z M41.256,10l2.4,8H30v-8H41.256z
		 M7.566,10h9.089l-2.4,8H2.767L7.566,10z M2,21v-1h12v6.517C12.783,27.4,9.997,28,8,28C4.244,28,2,24.441,2,21z M38,58V38h10v20H38
		z M52,58h-2V37c0-0.552-0.447-1-1-1H37c-0.553,0-1,0.448-1,1v21H8V30c1.757,0,4.823-0.44,6.75-1.573C16.373,30.705,18.255,32,22,32
		c2.947,0,5.159-0.807,7.036-2.594C31.264,31.191,35,32,38,32c3.727,0,5.608-1.284,7.227-3.542C46.948,29.581,49.304,30,51,30
		c0.336,0,0.669-0.028,1-0.07V58z M58,21c0,3.598-3.402,7-7,7c-1.648,0-3.753-0.46-5-1.464V20h12V21z"/>
	<circle fill="#010101" cx="45" cy="49" r="1"/>
</g>
</svg>
