<?xml version="1.0" encoding="utf-8"?>
<!-- Generator: Adobe Illustrator 17.0.0, SVG Export Plug-In . SVG Version: 6.00 Build 0)  -->
<!DOCTYPE svg PUBLIC "-//W3C//DTD SVG 1.1//EN" "http://www.w3.org/Graphics/SVG/1.1/DTD/svg11.dtd">
<svg version="1.1" id="Layer_1" xmlns="http://www.w3.org/2000/svg" xmlns:xlink="http://www.w3.org/1999/xlink" x="0px" y="0px"
	 width="60px" height="60px" viewBox="0 0 60 60" enable-background="new 0 0 60 60" xml:space="preserve">
<g>
	<path fill="#010101" d="M54,22h-1.586L30.707,0.293c-0.391-0.391-1.023-0.391-1.414,0L7.586,22H6c-3.364,0-6,2.636-6,6v26
		c0,3.364,2.636,6,6,6h48c3.364,0,6-2.636,6-6V28C60,24.636,57.364,22,54,22z M30,2.414L49.586,22H10.414L30,2.414z M58,54
		c0,2.243-1.757,4-4,4H6c-2.243,0-4-1.757-4-4V28c0-2.243,1.757-4,4-4h48c2.243,0,4,1.757,4,4V54z"/>
	<path fill="#010101" d="M50,28H10c-2.542,0-4,1.458-4,4v18c0,2.542,1.458,4,4,4h40c2.542,0,4-1.458,4-4V32
		C54,29.458,52.542,28,50,28z M52,50c0,1.44-0.561,2-2,2H10c-1.44,0-2-0.56-2-2V32c0-1.44,0.56-2,2-2h40c1.439,0,2,0.56,2,2V50z"/>
</g>
</svg>
