<?xml version="1.0" encoding="utf-8"?>
<!-- Generator: Adobe Illustrator 17.0.0, SVG Export Plug-In . SVG Version: 6.00 Build 0)  -->
<!DOCTYPE svg PUBLIC "-//W3C//DTD SVG 1.1//EN" "http://www.w3.org/Graphics/SVG/1.1/DTD/svg11.dtd">
<svg version="1.1" id="Layer_1" xmlns="http://www.w3.org/2000/svg" xmlns:xlink="http://www.w3.org/1999/xlink" x="0px" y="0px"
	 width="60px" height="60px" viewBox="0 0 60 60" enable-background="new 0 0 60 60" xml:space="preserve">
<g>
	<path fill="#010101" d="M59,18H25c-0.552,0-1,0.448-1,1v5H13c-0.351,0-0.677,0.184-0.857,0.485L6.229,34.34l-5.87,4.892
		C0.132,39.422,0,39.703,0,40v15c0,0.552,0.448,1,1,1h5.35c0.826,2.327,3.043,4,5.65,4s4.824-1.673,5.65-4h24.7
		c0.826,2.327,3.043,4,5.65,4s4.824-1.673,5.65-4H59c0.552,0,1-0.448,1-1V19C60,18.448,59.552,18,59,18z M26,20h32v28H26V25v-1V20z
		 M7.64,35.768c0.086-0.072,0.16-0.157,0.217-0.254L13.566,26H24v22H2v-7.532L7.64,35.768z M2,54v-4h5.54
		C6.586,51.063,6,52.462,6,54H2z M12,58c-2.206,0-4-1.794-4-4c0-2.206,1.794-4,4-4c2.206,0,4,1.794,4,4C16,56.206,14.206,58,12,58z
		 M18,54c0-1.538-0.586-2.937-1.54-4H43.54C42.586,51.063,42,52.462,42,54H18z M48,58c-2.206,0-4-1.794-4-4c0-2.206,1.794-4,4-4
		c2.206,0,4,1.794,4,4C52,56.206,50.206,58,48,58z M54,54c0-1.538-0.586-2.937-1.54-4H58v4H54z"/>
	<path fill="#010101" d="M11.553,37.895C11.696,37.966,11.849,38,11.999,38c0.367,0,0.72-0.202,0.895-0.553L16.618,30H18
		c0.552,0,1-0.448,1-1c0-0.552-0.448-1-1-1h-2c-0.379,0-0.725,0.214-0.895,0.553l-4,8C10.858,37.047,11.059,37.648,11.553,37.895z"
		/>
</g>
</svg>
