<?xml version="1.0" encoding="utf-8"?>
<!-- Generator: Adobe Illustrator 17.0.0, SVG Export Plug-In . SVG Version: 6.00 Build 0)  -->
<!DOCTYPE svg PUBLIC "-//W3C//DTD SVG 1.1//EN" "http://www.w3.org/Graphics/SVG/1.1/DTD/svg11.dtd">
<svg version="1.1" id="Layer_1" xmlns="http://www.w3.org/2000/svg" xmlns:xlink="http://www.w3.org/1999/xlink" x="0px" y="0px"
	 width="60px" height="60px" viewBox="0 0 60 60" enable-background="new 0 0 60 60" xml:space="preserve">
<g>
	<path fill="#010101" d="M42,53c0,3.86,3.14,7,7,7s7-3.14,7-7c0-3.86-3.14-7-7-7S42,49.14,42,53z M54,53c0,2.757-2.243,5-5,5
		c-2.757,0-5-2.243-5-5c0-2.757,2.243-5,5-5C51.757,48,54,50.243,54,53z"/>
	<path fill="#010101" d="M21,60c3.86,0,7-3.14,7-7c0-3.86-3.14-7-7-7s-7,3.14-7,7C14,56.86,17.14,60,21,60z M21,48
		c2.757,0,5,2.243,5,5c0,2.757-2.243,5-5,5s-5-2.243-5-5C16,50.243,18.243,48,21,48z"/>
	<path fill="#010101" d="M31,52c-0.552,0-1,0.448-1,1c0,0.552,0.448,1,1,1h8c0.552,0,1-0.448,1-1c0-0.552-0.448-1-1-1H31z"/>
	<path fill="#010101" d="M1,56h10c0.552,0,1-0.448,1-1c0-0.552-0.448-1-1-1H2v-4h9c0.552,0,1-0.448,1-1c0-0.552-0.448-1-1-1H2V33
		c0-3.86,3.14-7,7-7h11v15c0,0.552,0.448,1,1,1s1-0.448,1-1V16h36v36c0,0.552,0.448,1,1,1s1-0.448,1-1V15c0-0.552-0.448-1-1-1H21
		c-0.552,0-1,0.448-1,1v9H9c-4.962,0-9,4.038-9,9v22C0,55.552,0.448,56,1,56z"/>
	<path fill="#010101" d="M16,31c0-0.552-0.448-1-1-1h-5c-2.206,0-4,1.794-4,4v5c0,0.552,0.448,1,1,1s1-0.448,1-1v-5
		c0-1.103,0.897-2,2-2h5C15.552,32,16,31.552,16,31z"/>
</g>
</svg>
