<?xml version="1.0" encoding="utf-8"?>
<!-- Generator: Adobe Illustrator 17.0.0, SVG Export Plug-In . SVG Version: 6.00 Build 0)  -->
<!DOCTYPE svg PUBLIC "-//W3C//DTD SVG 1.1//EN" "http://www.w3.org/Graphics/SVG/1.1/DTD/svg11.dtd">
<svg version="1.1" id="Layer_1" xmlns="http://www.w3.org/2000/svg" xmlns:xlink="http://www.w3.org/1999/xlink" x="0px" y="0px"
	 width="60px" height="60px" viewBox="0 0 60 60" enable-background="new 0 0 60 60" xml:space="preserve">
<g>
	<path fill="#010101" d="M33.229,22.363l-4.192,5.075l-4.271-5.082c-0.355-0.422-0.986-0.476-1.409-0.122
		c-0.423,0.355-0.477,0.986-0.122,1.409L28,29.313V30h-2c-0.552,0-1,0.448-1,1s0.448,1,1,1h2v2h-2c-0.552,0-1,0.448-1,1s0.448,1,1,1
		h2v3c0,0.552,0.448,1,1,1s1-0.448,1-1v-3h2c0.552,0,1-0.448,1-1s-0.448-1-1-1h-2v-2h2c0.552,0,1-0.448,1-1s-0.448-1-1-1h-2v-0.588
		l4.771-5.775c0.352-0.426,0.292-1.056-0.134-1.408C34.213,21.879,33.581,21.937,33.229,22.363z"/>
	<path fill="#010101" d="M52,19.694V15c0-0.552-0.448-1-1-1H9c-0.552,0-1,0.448-1,1v4.694C3.253,21.374,0,25.918,0,31
		s3.253,9.626,8,11.306V47c0,0.552,0.448,1,1,1h42c0.552,0,1-0.448,1-1v-4.694c4.747-1.68,8-6.224,8-11.306S56.747,21.374,52,19.694
		z M50.727,40.613C50.297,40.735,50,41.128,50,41.575V46H10v-4.425c0-0.447-0.297-0.84-0.727-0.962C4.991,39.4,2,35.447,2,31
		c0-4.447,2.991-8.4,7.273-9.613C9.703,21.265,10,20.872,10,20.425V16h40v4.425c0,0.447,0.297,0.84,0.727,0.962
		C55.009,22.6,58,26.553,58,31C58,35.447,55.009,39.4,50.727,40.613z"/>
</g>
</svg>
