<?xml version="1.0" encoding="utf-8"?>
<!-- Generator: Adobe Illustrator 17.0.0, SVG Export Plug-In . SVG Version: 6.00 Build 0)  -->
<!DOCTYPE svg PUBLIC "-//W3C//DTD SVG 1.1//EN" "http://www.w3.org/Graphics/SVG/1.1/DTD/svg11.dtd">
<svg version="1.1" id="Layer_1" xmlns="http://www.w3.org/2000/svg" xmlns:xlink="http://www.w3.org/1999/xlink" x="0px" y="0px"
	 width="60px" height="60px" viewBox="0 0 60 60" enable-background="new 0 0 60 60" xml:space="preserve">
<g>
	<path fill="#010101" d="M45.852,1.524c0.289-0.47,0.143-1.086-0.328-1.375c-0.47-0.291-1.086-0.143-1.376,0.328L29,25.092
		L13.852,0.476c-0.29-0.47-0.907-0.618-1.375-0.328c-0.471,0.29-0.617,0.905-0.328,1.375L28,27.283V28H18c-0.552,0-1,0.448-1,1
		s0.448,1,1,1h10v6H18c-0.552,0-1,0.448-1,1s0.448,1,1,1h10v21c0,0.552,0.448,1,1,1s1-0.448,1-1V38h10c0.552,0,1-0.448,1-1
		s-0.448-1-1-1H30v-6h10c0.552,0,1-0.448,1-1s-0.448-1-1-1H30v-0.717L45.852,1.524z"/>
</g>
</svg>
