<?xml version="1.0" encoding="utf-8"?>
<!-- Generator: Adobe Illustrator 17.0.0, SVG Export Plug-In . SVG Version: 6.00 Build 0)  -->
<!DOCTYPE svg PUBLIC "-//W3C//DTD SVG 1.1//EN" "http://www.w3.org/Graphics/SVG/1.1/DTD/svg11.dtd">
<svg version="1.1" id="Layer_1" xmlns="http://www.w3.org/2000/svg" xmlns:xlink="http://www.w3.org/1999/xlink" x="0px" y="0px"
	 width="60px" height="60px" viewBox="0 0 60 60" enable-background="new 0 0 60 60" xml:space="preserve">
<g>
	<path fill="#010101" d="M30,60c16.542,0,30-13.458,30-30S46.542,0,30,0S0,13.458,0,30S13.458,60,30,60z M30,2
		c15.44,0,28,12.56,28,28S45.44,58,30,58S2,45.44,2,30S14.56,2,30,2z"/>
	<path fill="#010101" d="M29,29.333V32h-5c-0.552,0-1,0.448-1,1s0.448,1,1,1h5v4h-5c-0.552,0-1,0.448-1,1s0.448,1,1,1h5v5
		c0,0.552,0.448,1,1,1s1-0.448,1-1v-5h5c0.552,0,1-0.448,1-1s-0.448-1-1-1h-5v-4h5c0.552,0,1-0.448,1-1s-0.448-1-1-1h-5v-2.667
		L39.8,17.6c0.331-0.442,0.242-1.069-0.2-1.4c-0.443-0.332-1.069-0.241-1.4,0.2L30,27.333L21.8,16.4
		c-0.331-0.441-0.957-0.532-1.4-0.2c-0.442,0.331-0.531,0.958-0.2,1.4L29,29.333z"/>
</g>
</svg>
