<?xml version="1.0" encoding="utf-8"?>
<!-- Generator: Adobe Illustrator 17.0.0, SVG Export Plug-In . SVG Version: 6.00 Build 0)  -->
<!DOCTYPE svg PUBLIC "-//W3C//DTD SVG 1.1//EN" "http://www.w3.org/Graphics/SVG/1.1/DTD/svg11.dtd">
<svg version="1.1" xmlns="http://www.w3.org/2000/svg" xmlns:xlink="http://www.w3.org/1999/xlink" x="0px" y="0px" width="60px"
	 height="60px" viewBox="0 0 60 60" enable-background="new 0 0 60 60" xml:space="preserve">
<g id="Layer_3">
	<g>
		<path fill="#010101" d="M40,15c-5.111,0-7.061,1.366-8.35,2.27c-0.258,0.181-0.461,0.313-0.65,0.425V13c0-2.757-2.243-5-5-5h-6
			c-0.553,0-1,0.447-1,1c0,0.553,0.447,1,1,1h6c1.654,0,3,1.346,3,3v4.694c-0.19-0.111-0.392-0.244-0.649-0.425
			C27.061,16.366,25.112,15,20,15c-8.272,0-15,8.523-15,19c0,5.088,1.836,11.515,4.791,16.773C13.087,56.637,17.173,60,21,60
			c4.48,0,5.83-0.985,7.021-2.175C28.571,57.275,28.847,57,30,57c1.153,0,1.429,0.275,1.977,0.825C33.168,59.015,34.519,60,39,60
			c3.827,0,7.912-3.363,11.208-9.227C53.164,45.514,55,39.087,55,34C55,23.523,48.271,15,40,15z"/>
		<path fill="#010101" d="M34,14c6.617,0,12-5.832,12-13c0-0.553-0.447-1-1-1c-6.617,0-12,5.832-12,13C33,13.553,33.447,14,34,14z"
			/>
	</g>
</g>
<g id="nyt_x5F_exporter_x5F_info" display="none">
</g>
</svg>
