<?xml version="1.0" encoding="utf-8"?>
<!-- Generator: Adobe Illustrator 17.0.0, SVG Export Plug-In . SVG Version: 6.00 Build 0)  -->
<!DOCTYPE svg PUBLIC "-//W3C//DTD SVG 1.1//EN" "http://www.w3.org/Graphics/SVG/1.1/DTD/svg11.dtd">
<svg version="1.1" xmlns="http://www.w3.org/2000/svg" xmlns:xlink="http://www.w3.org/1999/xlink" x="0px" y="0px" width="60px"
	 height="60px" viewBox="0 0 60 60" enable-background="new 0 0 60 60" xml:space="preserve">
<g id="Layer_3">
	<g>
		<path fill="#010101" d="M50,52H12c-3.131,0-5,1.495-5,4c0,2.505,1.869,4,5,4h38c3.131,0,5-1.495,5-4C55,53.495,53.131,52,50,52z"
			/>
		<path fill="#010101" d="M52.781,27.079C56.627,25.462,59,21.813,59,17c0-6.579-4.421-11-11-11c-1.792,0-3.285,0.791-4.61,1.59
			C40.61,2.619,36.347,0,31,0c-5.606,0-10.639,2.884-13.381,7.595C16.29,6.794,14.793,6,13,6C6.159,6,1,10.729,1,17
			c0,5.968,5.18,10.387,11.849,10.108c-0.051,1.315,0.255,2.647,0.873,3.843l-2.71,17.899c-0.044,0.288,0.04,0.58,0.23,0.802
			C11.432,49.873,11.709,50,12,50h36c0.282,0,0.552-0.119,0.741-0.328c0.189-0.21,0.281-0.489,0.254-0.77L48.808,47H52
			c2.757,0,5-2.243,5-5V32C57,29.511,55.165,27.457,52.781,27.079z M22.998,44.065C22.963,44.595,22.523,45,22.001,45
			c-0.023,0-0.044-0.001-0.066-0.002c-0.552-0.036-0.969-0.513-0.933-1.063l0.596-9.045c0.733-0.158,1.425-0.444,2.06-0.838
			L22.998,44.065z M31,44c0,0.553-0.447,1-1,1c-0.553,0-1-0.447-1-1V33c0-0.553,0.447-1,1-1c0.553,0,1,0.447,1,1V44z M39.104,44.994
			C39.068,44.998,39.033,45,38.999,45c-0.506,0-0.939-0.382-0.993-0.895l-1.174-11.217c-0.058-0.55,0.341-1.042,0.89-1.099
			c0.568-0.061,1.042,0.341,1.099,0.89l1.174,11.217C40.052,44.445,39.653,44.938,39.104,44.994z M40,22L40,22
			c-0.282,0-0.549,0.118-0.738,0.325c-2.587,2.833-5.675,4.27-9.177,4.27c-1.24,0-2.523-0.188-3.81-0.556
			c-0.317-0.093-0.655-0.021-0.91,0.188c-0.254,0.209-0.389,0.528-0.361,0.856c0.144,1.732-0.356,3.314-1.403,4.452
			c-0.896,0.973-2.112,1.508-3.427,1.508c-1.543,0-3.021-0.745-4.057-2.045c-1.088-1.366-1.516-3.151-1.143-4.774
			c0.073-0.319-0.015-0.655-0.236-0.897C14.548,25.117,14.279,25,14,25c-0.045,0-0.09,0.003-0.135,0.009
			c-0.559,0.076-1.123,0.114-1.674,0.114C6.865,25.123,3,21.707,3,17c0-5.215,4.206-9,10-9c1.46,0,2.731,0.781,4.078,1.608
			l0.403,0.246c0.239,0.147,0.529,0.184,0.799,0.105c0.27-0.079,0.493-0.268,0.617-0.52C21.151,4.852,25.789,2,31,2
			c4.939,0,8.675,2.504,11.102,7.441c0.124,0.252,0.348,0.439,0.617,0.519c0.269,0.077,0.559,0.042,0.799-0.105l0.411-0.251
			C45.272,8.779,46.541,8,48,8c5.468,0,9,3.532,9,9c0,5.468-3.532,9-9,9c-2.671,0-5.638-1.905-7.264-3.677
			C40.547,22.117,40.28,22,40,22z M55,42c0,1.654-1.346,3-3,3h-3.39l-1.578-16H52c1.654,0,3,1.346,3,3V42z"/>
	</g>
</g>
<g id="nyt_x5F_exporter_x5F_info" display="none">
</g>
</svg>
