<?xml version="1.0" encoding="utf-8"?>
<!-- Generator: Adobe Illustrator 17.0.0, SVG Export Plug-In . SVG Version: 6.00 Build 0)  -->
<!DOCTYPE svg PUBLIC "-//W3C//DTD SVG 1.1//EN" "http://www.w3.org/Graphics/SVG/1.1/DTD/svg11.dtd">
<svg version="1.1" xmlns="http://www.w3.org/2000/svg" xmlns:xlink="http://www.w3.org/1999/xlink" x="0px" y="0px" width="60px"
	 height="60px" viewBox="0 0 60 60" enable-background="new 0 0 60 60" xml:space="preserve">
<g id="Layer_3">
	<g>
		<path fill="#010101" d="M39.816,28.91C37.34,26.316,35,23.866,35,22V10H25v12c0,1.866-2.34,4.316-4.816,6.91
			c-3.119,3.266-6.617,6.938-7.117,11.09h33.867C46.434,35.848,42.935,32.177,39.816,28.91z"/>
		<path fill="#010101" d="M46.981,42H13.019c0.19,7.334,2.371,15.016,2.468,15.355C15.912,58.838,17.456,60,19,60h22
			c1.544,0,3.088-1.162,3.514-2.645c0.05-0.175,0.659-2.316,1.261-5.355H14.233v-2h31.634v1.519
			C46.397,48.758,46.894,45.347,46.981,42z"/>
		<path fill="#010101" d="M35,1c0-0.553-0.447-1-1-1h-8c-0.553,0-1,0.447-1,1v7h10V1z"/>
	</g>
</g>
<g id="nyt_x5F_exporter_x5F_info" display="none">
</g>
</svg>
