<?xml version="1.0" encoding="utf-8"?>
<!-- Generator: Adobe Illustrator 17.0.0, SVG Export Plug-In . SVG Version: 6.00 Build 0)  -->
<!DOCTYPE svg PUBLIC "-//W3C//DTD SVG 1.1//EN" "http://www.w3.org/Graphics/SVG/1.1/DTD/svg11.dtd">
<svg version="1.1" xmlns="http://www.w3.org/2000/svg" xmlns:xlink="http://www.w3.org/1999/xlink" x="0px" y="0px" width="60px"
	 height="60px" viewBox="0 0 60 60" enable-background="new 0 0 60 60" xml:space="preserve">
<g id="Layer_3">
	<g>
		<path fill="#010101" d="M24,10h12c0.553,0,1-0.447,1-1V1c0-0.553-0.447-1-1-1H24c-0.553,0-1,0.447-1,1v8C23,9.553,23.447,10,24,10
			z"/>
		<path fill="#010101" d="M35,19.265V13c0-0.553-0.447-1-1-1h-8c-0.553,0-1,0.447-1,1v6.265C16.724,21.994,15,27.942,15,36v19
			c0,2.57,2.43,5,5,5h20c2.57,0,5-2.43,5-5V36C45,27.942,43.276,21.994,35,19.265z M39,39c0,0.553-0.447,1-1,1H22
			c-0.553,0-1-0.447-1-1v-8c0-0.553,0.447-1,1-1h16c0.553,0,1,0.447,1,1V39z"/>
	</g>
</g>
<g id="nyt_x5F_exporter_x5F_info" display="none">
</g>
</svg>
