<?xml version="1.0" encoding="utf-8"?>
<!-- Generator: Adobe Illustrator 17.0.0, SVG Export Plug-In . SVG Version: 6.00 Build 0)  -->
<!DOCTYPE svg PUBLIC "-//W3C//DTD SVG 1.1//EN" "http://www.w3.org/Graphics/SVG/1.1/DTD/svg11.dtd">
<svg version="1.1" xmlns="http://www.w3.org/2000/svg" xmlns:xlink="http://www.w3.org/1999/xlink" x="0px" y="0px" width="60px"
	 height="60px" viewBox="0 0 60 60" enable-background="new 0 0 60 60" xml:space="preserve">
<g id="Layer_3">
	<g>
		<path fill="#010101" d="M37.707,23.293C35.929,21.514,35,20.426,35,17v-7H25v7c0,3.429-0.928,4.516-2.755,6.341
			C20.283,25.302,17,28.585,17,34v2h26v-2C43,28.585,39.717,25.302,37.707,23.293z"/>
		<rect x="17" y="38" fill="#010101" width="26" height="10"/>
		<path fill="#010101" d="M17,57c0,1.654,1.346,3,3,3h20c1.654,0,3-1.346,3-3v-7H17V57z"/>
		<path fill="#010101" d="M35,1c0-0.553-0.447-1-1-1h-8c-0.553,0-1,0.447-1,1v7h10V1z"/>
	</g>
</g>
<g id="nyt_x5F_exporter_x5F_info" display="none">
</g>
</svg>
