<?xml version="1.0" encoding="utf-8"?>
<!-- Generator: Adobe Illustrator 17.0.0, SVG Export Plug-In . SVG Version: 6.00 Build 0)  -->
<!DOCTYPE svg PUBLIC "-//W3C//DTD SVG 1.1//EN" "http://www.w3.org/Graphics/SVG/1.1/DTD/svg11.dtd">
<svg version="1.1" xmlns="http://www.w3.org/2000/svg" xmlns:xlink="http://www.w3.org/1999/xlink" x="0px" y="0px" width="60px"
	 height="60px" viewBox="0 0 60 60" enable-background="new 0 0 60 60" xml:space="preserve">
<g id="Layer_3">
	<g>
		<path fill="#010101" d="M48,34H32.401l2.008,16H51c0.294,0,0.573-0.129,0.763-0.353c0.19-0.225,0.272-0.521,0.224-0.811
			l-2.487-14.923C49.004,33.967,48.505,34,48,34z"/>
		<path fill="#010101" d="M49,10H35.999C39.628,12.282,42,16.309,42,21c0,4.657-2.313,8.704-5.973,11h11.126H48
			c6.393,0,12-5.141,12-11C60,14.832,55.168,10,49,10z"/>
		<path fill="#010101" d="M30.134,32h0.525c0.118-0.087,0.251-0.156,0.405-0.184C36.325,30.859,40,26.411,40,21
			c0-6.168-4.832-11-11-11h-0.861H11C4.832,10,0,14.832,0,21c0,0.38,0.012,0.751,0.032,1.115c0.009,0.167,0.027,0.326,0.041,0.489
			c0.016,0.188,0.029,0.377,0.05,0.56c0.025,0.212,0.058,0.418,0.09,0.624c0.019,0.121,0.035,0.244,0.057,0.362
			c0.043,0.236,0.094,0.466,0.147,0.693c0.018,0.077,0.035,0.156,0.053,0.232c0.063,0.249,0.133,0.492,0.208,0.729
			c0.014,0.046,0.028,0.092,0.043,0.137c0.084,0.255,0.176,0.503,0.274,0.744c0.009,0.021,0.017,0.042,0.026,0.063
			c0.107,0.256,0.221,0.505,0.344,0.744c0.001,0.002,0.002,0.003,0.002,0.003c1.141,2.217,2.965,3.69,5.361,4.25
			c0.337,0.078,0.681,0.143,1.04,0.185L7.542,32.95v0.004L4.023,48.787c-0.064,0.295,0.008,0.602,0.196,0.839
			C4.41,49.862,4.696,50,5,50h1h25.261h0.02h1.113l-2.041-16.258L30.134,32z"/>
	</g>
</g>
<g id="nyt_x5F_exporter_x5F_info" display="none">
</g>
</svg>
