<?xml version="1.0" encoding="utf-8"?>
<!-- Generator: Adobe Illustrator 17.0.0, SVG Export Plug-In . SVG Version: 6.00 Build 0)  -->
<!DOCTYPE svg PUBLIC "-//W3C//DTD SVG 1.1//EN" "http://www.w3.org/Graphics/SVG/1.1/DTD/svg11.dtd">
<svg version="1.1" xmlns="http://www.w3.org/2000/svg" xmlns:xlink="http://www.w3.org/1999/xlink" x="0px" y="0px" width="60px"
	 height="60px" viewBox="0 0 60 60" enable-background="new 0 0 60 60" xml:space="preserve">
<g id="Layer_3">
	<g>
		<path fill="#010101" d="M57,43H3c-0.553,0-1,0.447-1,1v3c0,3.309,2.691,6,6,6h44c3.309,0,6-2.691,6-6v-3
			C58,43.447,57.553,43,57,43z"/>
		<path fill="#010101" d="M55,30H5c-2.757,0-5,2.243-5,5v2c0,2.757,2.243,5,5,5h50c2.757,0,5-2.243,5-5v-2
			C60,32.243,57.757,30,55,30z"/>
		<path fill="#010101" d="M3,29h54c0.553,0,1-0.447,1-1v-4c0-9.374-7.626-17-17-17H19C9.626,7,2,14.626,2,24v4
			C2,28.553,2.447,29,3,29z M43,15c0.553,0,1,0.447,1,1c0,0.553-0.447,1-1,1c-0.553,0-1-0.447-1-1C42,15.447,42.447,15,43,15z
			 M37,11c0.553,0,1,0.447,1,1c0,0.553-0.447,1-1,1c-0.553,0-1-0.447-1-1C36,11.447,36.447,11,37,11z M29,15c0.553,0,1,0.447,1,1
			c0,0.553-0.447,1-1,1c-0.553,0-1-0.447-1-1C28,15.447,28.447,15,29,15z M23,11c0.553,0,1,0.447,1,1c0,0.553-0.447,1-1,1
			c-0.553,0-1-0.447-1-1C22,11.447,22.447,11,23,11z M17,15c0.553,0,1,0.447,1,1c0,0.553-0.447,1-1,1c-0.553,0-1-0.447-1-1
			C16,15.447,16.447,15,17,15z"/>
	</g>
</g>
<g id="nyt_x5F_exporter_x5F_info" display="none">
</g>
</svg>
