<?xml version="1.0" encoding="utf-8"?>
<!-- Generator: Adobe Illustrator 17.0.0, SVG Export Plug-In . SVG Version: 6.00 Build 0)  -->
<!DOCTYPE svg PUBLIC "-//W3C//DTD SVG 1.1//EN" "http://www.w3.org/Graphics/SVG/1.1/DTD/svg11.dtd">
<svg version="1.1" xmlns="http://www.w3.org/2000/svg" xmlns:xlink="http://www.w3.org/1999/xlink" x="0px" y="0px" width="60px"
	 height="60px" viewBox="0 0 60 60" enable-background="new 0 0 60 60" xml:space="preserve">
<g id="Layer_3">
	<g>
		<path fill="#010101" d="M54,39h-1H30H6c-3.364,0-6,2.416-6,5.5S2.636,50,6,50h48c3.364,0,6-2.416,6-5.5S57.364,39,54,39z
			 M44.816,46.769L34,41h16.586L44.816,46.769z"/>
		<path fill="#010101" d="M54,51H6c-0.553,0-1,0.447-1,1v2.625C5,57.639,7.636,60,11,60h38c3.364,0,6-2.361,6-5.375V52
			C55,51.447,54.553,51,54,51z"/>
		<path fill="#010101" d="M58.337,29.518C59.316,29.025,60,28.028,60,26c0-2.381-4.198-5.085-5.485-5.857
			C54.359,20.049,54.182,20,54,20H6c-0.182,0-0.359,0.049-0.515,0.143C4.198,20.915,0,23.619,0,26c0,1.831,0.79,2.819,1.859,3.357
			C0.711,30.263,0,31.548,0,33c0,2.804,2.636,5,6,5h48c3.364,0,6-2.196,6-5C60,31.633,59.37,30.413,58.337,29.518z M55,28
			c-2.105,0-2.963-0.394-3.312-0.726c-0.225-0.213-0.536-0.306-0.841-0.263c-0.307,0.047-0.573,0.233-0.723,0.504
			C48.99,29.567,46.472,31,44,31c-2.863,0-5.161-2.28-6.083-4.399C37.758,26.236,37.398,26,37.001,26C37,26,37,26,37,26
			c-0.398,0-0.757,0.235-0.916,0.6C35.14,28.761,32.922,30,30,30c-2.926,0-5.143-1.239-6.083-3.399
			C23.758,26.236,23.398,26,23.001,26C23,26,23,26,23,26c-0.398,0-0.757,0.235-0.916,0.6C21.158,28.719,18.859,31,16,31
			c-2.182,0-3.81-1.107-5.125-3.484c-0.149-0.271-0.417-0.457-0.723-0.504c-0.308-0.05-0.618,0.051-0.841,0.264
			C8.963,27.606,8.106,28,6,28c-3.422,0-4-0.499-4-2c0-0.812,2.21-2.715,4.281-4h47.437C55.79,23.285,58,25.188,58,26
			C58,27.774,57.833,28,55,28z"/>
		<path fill="#010101" d="M6,19h48c0.553,0,1-0.447,1-1C55,4.714,41.532,0,30,0C18.468,0,5,4.714,5,18C5,18.553,5.447,19,6,19z
			 M43,9.998c0.553,0,1.001,0.447,1.001,1C44.001,11.551,43.553,12,43,12c-0.553,0-1.001-0.449-1.001-1.002
			C41.999,10.445,42.447,9.998,43,9.998z M37,5.998c0.553,0,1.001,0.447,1.001,1C38.001,7.551,37.553,8,37,8
			c-0.553,0-1.001-0.449-1.001-1.002C35.999,6.445,36.447,5.998,37,5.998z M31.001,9.998c0.553,0,1.001,0.447,1.001,1
			c0,0.553-0.448,1.002-1.001,1.002C30.447,12,30,11.551,30,10.998C30,10.445,30.447,9.998,31.001,9.998z M22.999,5.998
			c0.553,0,1.001,0.447,1.001,1C24,7.551,23.552,8,22.999,8c-0.553,0-1.001-0.449-1.001-1.002
			C21.998,6.445,22.446,5.998,22.999,5.998z M17,9.998c0.553,0,1.001,0.447,1.001,1C18.001,11.551,17.553,12,17,12
			c-0.553,0-1.001-0.449-1.001-1.002C15.999,10.445,16.447,9.998,17,9.998z"/>
	</g>
</g>
<g id="nyt_x5F_exporter_x5F_info" display="none">
</g>
</svg>
