<?xml version="1.0" encoding="utf-8"?>
<!-- Generator: Adobe Illustrator 17.0.0, SVG Export Plug-In . SVG Version: 6.00 Build 0)  -->
<!DOCTYPE svg PUBLIC "-//W3C//DTD SVG 1.1//EN" "http://www.w3.org/Graphics/SVG/1.1/DTD/svg11.dtd">
<svg version="1.1" xmlns="http://www.w3.org/2000/svg" xmlns:xlink="http://www.w3.org/1999/xlink" x="0px" y="0px" width="60px"
	 height="60px" viewBox="0 0 60 60" enable-background="new 0 0 60 60" xml:space="preserve">
<g id="Layer_3">
	<path fill="#010101" d="M48.981,27.093C48.984,27.061,49,27.033,49,27c0-0.038-0.017-0.069-0.021-0.105
		c-0.007-0.068-0.019-0.131-0.039-0.195c-0.02-0.062-0.044-0.118-0.075-0.173C48.834,26.47,48.8,26.42,48.76,26.37
		c-0.042-0.05-0.086-0.093-0.136-0.134c-0.048-0.039-0.097-0.073-0.153-0.103c-0.061-0.033-0.122-0.057-0.189-0.077
		c-0.034-0.01-0.061-0.032-0.097-0.039c-0.031-0.006-0.06,0.004-0.091,0.001C48.061,26.015,48.033,26,48,26h-8.367l1.198-8.55
		c2.899-0.082,5.367-2.263,5.772-5.155c0.223-1.587-0.186-3.166-1.152-4.445c-0.763-1.011-1.807-1.726-2.993-2.096l0.583-4.629
		c0.069-0.548-0.319-1.048-0.867-1.117c-0.551-0.065-1.049,0.319-1.117,0.867L40.478,5.47c-2.894,0.083-5.354,2.274-5.759,5.16
		c-0.412,2.938,1.392,5.678,4.132,6.547L37.614,26H12c-0.033,0-0.061,0.016-0.093,0.019c-0.031,0.003-0.06-0.007-0.092-0.001
		c-0.036,0.007-0.063,0.029-0.097,0.039c-0.067,0.02-0.129,0.043-0.189,0.076c-0.056,0.03-0.105,0.064-0.153,0.103
		c-0.05,0.041-0.094,0.084-0.136,0.134c-0.041,0.049-0.074,0.1-0.105,0.156c-0.031,0.056-0.055,0.111-0.075,0.173
		c-0.02,0.064-0.032,0.128-0.039,0.195C11.017,26.931,11,26.962,11,27c0,0.033,0.016,0.061,0.019,0.093
		c0.003,0.031-0.007,0.06-0.001,0.092l2.329,12.424c0.015,0.08,0.051,0.149,0.083,0.221l2.85,15.424C16.77,57.87,19.337,60,22,60h16
		c2.663,0,5.229-2.13,5.72-4.747l3.014-16.069c0-0.001,0-0.002,0-0.002l2.249-11.997C48.988,27.153,48.978,27.124,48.981,27.093z
		 M35.933,38H15.079l-1.874-10h24.129L35.933,38z M44.921,38h-6.969l1.401-10h7.442L44.921,38z"/>
</g>
<g id="nyt_x5F_exporter_x5F_info" display="none">
</g>
</svg>
