<?xml version="1.0" encoding="utf-8"?>
<!-- Generator: Adobe Illustrator 17.0.0, SVG Export Plug-In . SVG Version: 6.00 Build 0)  -->
<!DOCTYPE svg PUBLIC "-//W3C//DTD SVG 1.1//EN" "http://www.w3.org/Graphics/SVG/1.1/DTD/svg11.dtd">
<svg version="1.1" xmlns="http://www.w3.org/2000/svg" xmlns:xlink="http://www.w3.org/1999/xlink" x="0px" y="0px" width="60px"
	 height="60px" viewBox="0 0 60 60" enable-background="new 0 0 60 60" xml:space="preserve">
<g id="Layer_3">
	<path fill="#010101" d="M51,2c-4.963,0-9,4.037-9,9c0,1.025,0.196,2.037,0.539,3H16.78l-1.355-5.422C14.519,4.951,10.739,2,7,2H0v2
		h7c2.829,0,5.799,2.318,6.485,5.063L14.72,14H9v1c0,8.04,8.949,20.317,21,20.969V58h-9c-0.553,0-1,0.447-1,1c0,0.553,0.447,1,1,1
		h20c0.553,0,1-0.447,1-1c0-0.553-0.447-1-1-1h-9V35.969c9.768-0.528,17.496-8.692,20.074-16.05C56.57,19.388,60,15.601,60,11
		C60,6.037,55.963,2,51,2z M52.676,17.789C52.885,16.823,53,15.885,53,15v-1h-8.303C44.248,13.061,44,12.038,44,11
		c0-3.859,3.141-7,7-7c3.859,0,7,3.141,7,7C58,14.284,55.751,17.04,52.676,17.789z"/>
</g>
<g id="nyt_x5F_exporter_x5F_info" display="none">
</g>
</svg>
