<?xml version="1.0" encoding="utf-8"?>
<!-- Generator: Adobe Illustrator 17.0.0, SVG Export Plug-In . SVG Version: 6.00 Build 0)  -->
<!DOCTYPE svg PUBLIC "-//W3C//DTD SVG 1.1//EN" "http://www.w3.org/Graphics/SVG/1.1/DTD/svg11.dtd">
<svg version="1.1" xmlns="http://www.w3.org/2000/svg" xmlns:xlink="http://www.w3.org/1999/xlink" x="0px" y="0px" width="60px"
	 height="60px" viewBox="0 0 60 60" enable-background="new 0 0 60 60" xml:space="preserve">
<g id="Layer_3">
	<path fill="#010101" d="M58.785,27.26C58,22.237,54.866,17.229,50.607,14.187C50.438,14.065,50.234,14,50.026,14h-7.584
		l4.292-4.293c0.391-0.391,0.391-1.023,0-1.414c-0.391-0.391-1.023-0.391-1.414,0L39.614,14H10.026c-0.553,0-1,0.447-1,1
		c0,0.553,0.447,1,1,1h29.99c0.003,0,0.007,0.002,0.01,0.002S40.033,16,40.036,16h9.665c3.706,2.756,6.419,7.159,7.108,11.569
		c0.337,2.15,0.335,5.256-1.586,7.834c-1.065,1.434-2.514,2.289-4.224,2.524c-0.062-2.395-0.321-4.536-0.815-6.492
		c-0.001-0.003,0-0.006,0-0.009c-0.002-0.009-0.005-0.017-0.007-0.025l-0.179-0.66c-0.01-0.038-0.033-0.068-0.047-0.104
		c-1.245-4.237-3.636-7.664-7.323-10.436c-0.173-0.13-0.384-0.2-0.601-0.2h-38c-0.379,0-0.725,0.214-0.894,0.553
		c-0.169,0.339-0.133,0.744,0.095,1.047l2.558,3.413c-1.275,1.807-2.288,3.666-3.053,5.544c-0.014,0.029-0.036,0.052-0.047,0.083
		l-0.296,0.765C1.484,33.885,1.026,36.44,1.026,39c0,4.183,1.166,8.846,3.119,12.474C4.32,51.798,4.658,52,5.026,52h42
		c0.368,0,0.706-0.202,0.881-0.526c1.808-3.359,2.928-7.599,3.087-11.527c2.352-0.251,4.399-1.417,5.834-3.349
		C58.65,34.151,59.345,30.835,58.785,27.26z M5.162,30.002c0.716-1.489,1.599-2.964,2.667-4.404
		c0.263-0.355,0.262-0.842-0.004-1.195L6.025,22h35.663c2.873,2.224,4.792,4.811,5.955,8.002H5.162z"/>
</g>
<g id="nyt_x5F_exporter_x5F_info" display="none">
</g>
</svg>
