<?xml version="1.0" encoding="utf-8"?>
<!-- Generator: Adobe Illustrator 17.0.0, SVG Export Plug-In . SVG Version: 6.00 Build 0)  -->
<!DOCTYPE svg PUBLIC "-//W3C//DTD SVG 1.1//EN" "http://www.w3.org/Graphics/SVG/1.1/DTD/svg11.dtd">
<svg version="1.1" xmlns="http://www.w3.org/2000/svg" xmlns:xlink="http://www.w3.org/1999/xlink" x="0px" y="0px" width="60px"
	 height="60px" viewBox="0 0 60 60" enable-background="new 0 0 60 60" xml:space="preserve">
<g id="Layer_3">
	<path fill="#010101" d="M44,10.051V6c0-0.553-0.447-1-1-1H1C0.447,5,0,5.447,0,6v40c0,4.963,4.037,9,9,9h26c4.963,0,9-4.037,9-9
		v-2.051C52.908,43.427,60,36.037,60,27S52.908,10.573,44,10.051z M10,42c0,0.553-0.447,1-1,1c-0.553,0-1-0.447-1-1V14
		c0-0.553,0.447-1,1-1c0.553,0,1,0.447,1,1V42z M44,35.941V18.059c4.493,0.499,8,4.316,8,8.941S48.493,35.442,44,35.941z"/>
</g>
<g id="nyt_x5F_exporter_x5F_info" display="none">
</g>
</svg>
