<?xml version="1.0" encoding="utf-8"?>
<!-- Generator: Adobe Illustrator 17.0.0, SVG Export Plug-In . SVG Version: 6.00 Build 0)  -->
<!DOCTYPE svg PUBLIC "-//W3C//DTD SVG 1.1//EN" "http://www.w3.org/Graphics/SVG/1.1/DTD/svg11.dtd">
<svg version="1.1" xmlns="http://www.w3.org/2000/svg" xmlns:xlink="http://www.w3.org/1999/xlink" x="0px" y="0px" width="60px"
	 height="60px" viewBox="0 0 60 60" enable-background="new 0 0 60 60" xml:space="preserve">
<g id="Layer_3">
	<g>
		<path fill="#010101" d="M55,30H13c-0.553,0-1,0.447-1,1v21c0,3.364,2.636,6,6,6v1c0,0.553,0.447,1,1,1c0.553,0,1-0.447,1-1v-1h28
			v1c0,0.553,0.447,1,1,1c0.553,0,1-0.447,1-1v-1c3.364,0,6-2.636,6-6V31C56,30.447,55.553,30,55,30z M44,39c0,0.553-0.447,1-1,1
			c-0.553,0-1-0.447-1-1v-1H26v1c0,0.553-0.447,1-1,1c-0.553,0-1-0.447-1-1v-2c0-0.553,0.447-1,1-1h18c0.553,0,1,0.447,1,1V39z"/>
		<path fill="#010101" d="M48,20v-9c0-0.553-0.447-1-1-1h-5v16C45.364,26,48,23.364,48,20z"/>
		<rect x="34" y="10" fill="#010101" width="6" height="16"/>
		<rect x="26" y="10" fill="#010101" width="6" height="16"/>
		<path fill="#010101" d="M18,6v5v9c0,3.364,2.636,6,6,6V10h-4V6c0-3.364-2.636-6-6-6H5C4.447,0,4,0.447,4,1c0,0.553,0.447,1,1,1h9
			C16.243,2,18,3.757,18,6z"/>
	</g>
</g>
<g id="nyt_x5F_exporter_x5F_info" display="none">
</g>
</svg>
