<?xml version="1.0" encoding="utf-8"?>
<!-- Generator: Adobe Illustrator 17.0.0, SVG Export Plug-In . SVG Version: 6.00 Build 0)  -->
<!DOCTYPE svg PUBLIC "-//W3C//DTD SVG 1.1//EN" "http://www.w3.org/Graphics/SVG/1.1/DTD/svg11.dtd">
<svg version="1.1" xmlns="http://www.w3.org/2000/svg" xmlns:xlink="http://www.w3.org/1999/xlink" x="0px" y="0px" width="60px"
	 height="60px" viewBox="0 0 60 60" enable-background="new 0 0 60 60" xml:space="preserve">
<g id="Layer_3">
	<g>
		<path fill="#010101" d="M54.597,44H5.303H2.575l5.268,5.68C8.033,49.884,8.298,50,8.576,50h42.435
			c0.266,0,0.519-0.105,0.707-0.293L57.425,44H54.597z"/>
		<path fill="#010101" d="M33.754,18.281c0.773-0.881,1.257-2.02,1.257-3.281c0-2.757-2.243-5-5-5s-5,2.243-5,5
			c0,1.261,0.485,2.4,1.257,3.281C14.575,20.044,5.514,29.937,5.036,42h49.949C54.508,29.937,45.448,20.044,33.754,18.281z
			 M30.011,26c-5.686,0-10.973,2.825-14.139,7.557C15.68,33.845,15.363,34,15.04,34c-0.191,0-0.385-0.055-0.556-0.169
			c-0.459-0.308-0.582-0.929-0.274-1.388C17.748,27.156,23.656,24,30.011,24c0.553,0,1,0.447,1,1C31.011,25.553,30.564,26,30.011,26
			z M30.011,18c-1.654,0-3-1.346-3-3c0-1.654,1.346-3,3-3c1.654,0,3,1.346,3,3C33.011,16.654,31.665,18,30.011,18z"/>
	</g>
</g>
<g id="nyt_x5F_exporter_x5F_info" display="none">
</g>
</svg>
