<?xml version="1.0" encoding="utf-8"?>
<!-- Generator: Adobe Illustrator 17.0.0, SVG Export Plug-In . SVG Version: 6.00 Build 0)  -->
<!DOCTYPE svg PUBLIC "-//W3C//DTD SVG 1.1//EN" "http://www.w3.org/Graphics/SVG/1.1/DTD/svg11.dtd">
<svg version="1.1" xmlns="http://www.w3.org/2000/svg" xmlns:xlink="http://www.w3.org/1999/xlink" x="0px" y="0px" width="60px"
	 height="60px" viewBox="0 0 60 60" enable-background="new 0 0 60 60" xml:space="preserve">
<g id="Layer_3">
	<g>
		<path fill="#010101" d="M39.5,0c-0.553,0-1,0.447-1,1v36v2.999V58c0,1.105,0.896,2,2,2s2-0.895,2-2V40h6c0.553,0,1-0.447,1-1
			C49.5,19.683,44.453,0,39.5,0z"/>
		<path fill="#010101" d="M28.5,0c-1.104,0-2,0.896-2,2v13c0,2.606-1.673,4.824-4,5.65V2c0-1.104-0.896-2-2-2s-2,0.896-2,2v18.65
			c-2.327-0.826-4-3.044-4-5.65V2c0-1.104-0.896-2-2-2s-2,0.896-2,2v13c0,4.829,3.441,8.869,8,9.798V58c0,1.105,0.896,2,2,2
			s2-0.895,2-2V24.798c4.559-0.929,8-4.969,8-9.798V2C30.5,0.896,29.604,0,28.5,0z"/>
	</g>
</g>
<g id="nyt_x5F_exporter_x5F_info" display="none">
</g>
</svg>
