<?xml version="1.0" encoding="utf-8"?>
<!-- Generator: Adobe Illustrator 17.0.0, SVG Export Plug-In . SVG Version: 6.00 Build 0)  -->
<!DOCTYPE svg PUBLIC "-//W3C//DTD SVG 1.1//EN" "http://www.w3.org/Graphics/SVG/1.1/DTD/svg11.dtd">
<svg version="1.1" xmlns="http://www.w3.org/2000/svg" xmlns:xlink="http://www.w3.org/1999/xlink" x="0px" y="0px" width="60px"
	 height="60px" viewBox="0 0 60 60" enable-background="new 0 0 60 60" xml:space="preserve">
<g id="Layer_3">
	<g>
		<path fill="#010101" d="M26.5,0c-1.104,0-2,0.896-2,2v13c0,2.606-1.673,4.824-4,5.65V2c0-1.104-0.896-2-2-2s-2,0.896-2,2v18.65
			c-2.327-0.826-4-3.043-4-5.65V2c0-1.104-0.896-2-2-2s-2,0.896-2,2v13c0,4.829,3.441,8.869,8,9.798V58c0,1.105,0.896,2,2,2
			s2-0.895,2-2V24.798c4.559-0.929,8-4.969,8-9.798V2C28.5,0.896,27.604,0,26.5,0z"/>
		<path fill="#010101" d="M42.5,0c-4.963,0-9,4.037-9,9v6c0,4.275,2.998,7.856,7,8.768V58c0,1.105,0.896,2,2,2s2-0.895,2-2V23.768
			c4.002-0.913,7-4.494,7-8.768V9C51.5,4.037,47.463,0,42.5,0z"/>
	</g>
</g>
<g id="nyt_x5F_exporter_x5F_info" display="none">
</g>
</svg>
