<?xml version="1.0" encoding="utf-8"?>
<!-- Generator: Adobe Illustrator 17.0.0, SVG Export Plug-In . SVG Version: 6.00 Build 0)  -->
<!DOCTYPE svg PUBLIC "-//W3C//DTD SVG 1.1//EN" "http://www.w3.org/Graphics/SVG/1.1/DTD/svg11.dtd">
<svg version="1.1" xmlns="http://www.w3.org/2000/svg" xmlns:xlink="http://www.w3.org/1999/xlink" x="0px" y="0px" width="60px"
	 height="60px" viewBox="0 0 60 60" enable-background="new 0 0 60 60" xml:space="preserve">
<g id="Layer_3">
	<g>
		<path fill="#010101" d="M30,17c0.553,0,1-0.447,1-1V1c0-0.553-0.447-1-1-1c-0.553,0-1,0.447-1,1v15C29,16.553,29.447,17,30,17z"/>
		<path fill="#010101" d="M56.842,2.461c-0.143-0.224-0.368-0.381-0.628-0.438c-1.393-0.306-2.795-0.461-4.166-0.461
			c-8.317,0-15.158,5.716-17.025,14.224c-0.057,0.259-0.009,0.529,0.135,0.753c0.143,0.224,0.368,0.381,0.628,0.438
			c1.393,0.306,2.795,0.461,4.166,0.461c8.314,0,15.155-5.716,17.025-14.223C57.033,2.955,56.985,2.685,56.842,2.461z"/>
		<path fill="#010101" d="M24.214,16.977c0.26-0.057,0.485-0.214,0.628-0.438c0.144-0.224,0.191-0.494,0.135-0.753
			C23.11,7.278,16.269,1.563,7.952,1.563c-1.371,0-2.773,0.155-4.166,0.461C3.526,2.08,3.301,2.237,3.158,2.461
			C3.015,2.685,2.967,2.955,3.023,3.215c1.868,8.507,8.71,14.223,17.024,14.223C21.419,17.438,22.821,17.282,24.214,16.977z"/>
		<path fill="#010101" d="M30,32c3.309,0,6-2.691,6-6c0-3.309-2.691-6-6-6c-3.309,0-6,2.691-6,6C24,29.309,26.691,32,30,32z"/>
		<path fill="#010101" d="M30,48c-3.309,0-6,2.691-6,6c0,3.309,2.691,6,6,6c3.309,0,6-2.691,6-6C36,50.691,33.309,48,30,48z"/>
		<path fill="#010101" d="M45,22c-3.309,0-6,2.691-6,6c0,3.309,2.691,6,6,6c3.309,0,6-2.691,6-6C51,24.691,48.309,22,45,22z"/>
		<path fill="#010101" d="M21,28c0-3.309-2.691-6-6-6c-3.309,0-6,2.691-6,6c0,3.309,2.691,6,6,6C18.309,34,21,31.309,21,28z"/>
		<path fill="#010101" d="M29,40c0-3.309-2.691-6-6-6c-3.309,0-6,2.691-6,6c0,3.309,2.691,6,6,6C26.309,46,29,43.309,29,40z"/>
		<path fill="#010101" d="M37,34c-3.309,0-6,2.691-6,6c0,3.309,2.691,6,6,6c3.309,0,6-2.691,6-6C43,36.691,40.309,34,37,34z"/>
	</g>
</g>
<g id="nyt_x5F_exporter_x5F_info" display="none">
</g>
</svg>
