<?xml version="1.0" encoding="utf-8"?>
<!-- Generator: Adobe Illustrator 17.0.0, SVG Export Plug-In . SVG Version: 6.00 Build 0)  -->
<!DOCTYPE svg PUBLIC "-//W3C//DTD SVG 1.1//EN" "http://www.w3.org/Graphics/SVG/1.1/DTD/svg11.dtd">
<svg version="1.1" xmlns="http://www.w3.org/2000/svg" xmlns:xlink="http://www.w3.org/1999/xlink" x="0px" y="0px" width="60px"
	 height="60px" viewBox="0 0 60 60" enable-background="new 0 0 60 60" xml:space="preserve">
<g id="Layer_3">
	<path fill="#010101" d="M48.999,10.958l-0.001-0.006C48.973,4.808,44.152,0,38,0H22c-6.152,0-10.973,4.808-10.998,10.952
		l-0.001,0.006L9.167,54.963c-0.056,1.338,0.419,2.601,1.336,3.556C11.419,59.474,12.661,60,14,60h32
		c1.339,0,2.581-0.526,3.497-1.481c0.917-0.955,1.392-2.218,1.336-3.557L48.999,10.958z M18,52c-1.103,0-2-0.897-2-2
		c0-1.102,0.897-2,2-2c1.102,0,2,0.898,2,2C20,51.103,19.102,52,18,52z M34,20c-1.103,0-2-0.897-2-2c0-1.102,0.897-2,2-2
		c1.102,0,2,0.898,2,2C36,19.103,35.102,20,34,20z M38,24c1.102,0,2,0.898,2,2c0,1.103-0.898,2-2,2c-1.103,0-2-0.897-2-2
		C36,24.898,36.897,24,38,24z M34,32c1.102,0,2,0.898,2,2c0,1.103-0.898,2-2,2c-1.103,0-2-0.897-2-2C32,32.898,32.897,32,34,32z
		 M30,28c-1.103,0-2-0.897-2-2c0-1.102,0.897-2,2-2c1.102,0,2,0.898,2,2C32,27.103,31.102,28,30,28z M26,20c-1.103,0-2-0.897-2-2
		c0-1.102,0.897-2,2-2c1.102,0,2,0.898,2,2C28,19.103,27.102,20,26,20z M26,32c1.102,0,2,0.898,2,2c0,1.103-0.898,2-2,2
		c-1.103,0-2-0.897-2-2C24,32.898,24.897,32,26,32z M22,28c-1.103,0-2-0.897-2-2c0-1.102,0.897-2,2-2c1.102,0,2,0.898,2,2
		C24,27.103,23.102,28,22,28z M18,20c-1.103,0-2-0.897-2-2c0-1.102,0.897-2,2-2c1.102,0,2,0.898,2,2C20,19.103,19.102,20,18,20z
		 M18,32c1.102,0,2,0.898,2,2c0,1.103-0.898,2-2,2c-1.103,0-2-0.897-2-2C16,32.898,16.897,32,18,32z M22,44c-1.103,0-2-0.897-2-2
		c0-1.102,0.897-2,2-2c1.102,0,2,0.898,2,2C24,43.103,23.102,44,22,44z M26,52c-1.103,0-2-0.897-2-2c0-1.102,0.897-2,2-2
		c1.102,0,2,0.898,2,2C28,51.103,27.102,52,26,52z M30,44c-1.103,0-2-0.897-2-2c0-1.102,0.897-2,2-2c1.102,0,2,0.898,2,2
		C32,43.103,31.102,44,30,44z M34,52c-1.103,0-2-0.897-2-2c0-1.102,0.897-2,2-2c1.102,0,2,0.898,2,2C36,51.103,35.102,52,34,52z
		 M38,44c-1.103,0-2-0.897-2-2c0-1.102,0.897-2,2-2c1.102,0,2,0.898,2,2C40,43.103,39.102,44,38,44z M42,52c-1.103,0-2-0.897-2-2
		c0-1.102,0.897-2,2-2c1.102,0,2,0.898,2,2C44,51.103,43.102,52,42,52z M42,36c-1.103,0-2-0.897-2-2c0-1.102,0.897-2,2-2
		c1.102,0,2,0.898,2,2C44,35.103,43.102,36,42,36z M42,20c-1.103,0-2-0.897-2-2c0-1.102,0.897-2,2-2c1.102,0,2,0.898,2,2
		C44,19.103,43.102,20,42,20z M13.053,10C13.535,5.44,17.292,2,22,2h16c4.708,0,8.465,3.44,8.947,8H13.053z"/>
</g>
<g id="nyt_x5F_exporter_x5F_info" display="none">
</g>
</svg>
