<?xml version="1.0" encoding="utf-8"?>
<!-- Generator: Adobe Illustrator 17.0.0, SVG Export Plug-In . SVG Version: 6.00 Build 0)  -->
<!DOCTYPE svg PUBLIC "-//W3C//DTD SVG 1.1//EN" "http://www.w3.org/Graphics/SVG/1.1/DTD/svg11.dtd">
<svg version="1.1" xmlns="http://www.w3.org/2000/svg" xmlns:xlink="http://www.w3.org/1999/xlink" x="0px" y="0px" width="60px"
	 height="60px" viewBox="0 0 60 60" enable-background="new 0 0 60 60" xml:space="preserve">
<g id="Layer_3">
	<g>
		<path fill="#010101" d="M14.004,59.083C14.047,59.602,14.479,60,15,60h30c0.52,0,0.953-0.398,0.996-0.917L47.003,47H12.997
			L14.004,59.083z"/>
		<path fill="#010101" d="M51,10H9c-0.553,0-1,0.447-1,1v9c0,0.553,0.447,1,1,1h42c0.553,0,1-0.447,1-1v-9
			C52,10.447,51.553,10,51,10z"/>
		<path fill="#010101" d="M12,9h36c0.008,0.001,0.016,0.001,0.019,0c0.553,0,1-0.447,1-1c0-0.281-0.116-0.536-0.304-0.718
			l-4.902-6.863C43.626,0.156,43.323,0,43,0H17c-0.323,0-0.626,0.156-0.814,0.419l-5,7c-0.218,0.305-0.247,0.705-0.076,1.039
			C11.282,8.791,11.625,9,12,9z"/>
		<path fill="#010101" d="M12.676,43.146L12.797,45H13.8h32.388h1.002l0.08-1.198L48.336,31H11.664L12.676,43.146z M23,36h14
			c0.553,0,1,0.447,1,1c0,0.553-0.447,1-1,1H23c-0.553,0-1-0.447-1-1C22,36.447,22.447,36,23,36z"/>
		<path fill="#010101" d="M48,22H12c-0.279,0-0.547,0.117-0.736,0.323c-0.188,0.205-0.283,0.482-0.26,0.76L11.497,29h1.253h34.5
			h1.253l0.493-5.917c0.023-0.278-0.071-0.555-0.26-0.76C48.547,22.117,48.279,22,48,22z"/>
	</g>
</g>
<g id="nyt_x5F_exporter_x5F_info" display="none">
</g>
</svg>
