<?xml version="1.0" encoding="utf-8"?>
<!-- Generator: Adobe Illustrator 17.1.0, SVG Export Plug-In . SVG Version: 6.00 Build 0)  -->
<!DOCTYPE svg PUBLIC "-//W3C//DTD SVG 1.0//EN" "http://www.w3.org/TR/2001/REC-SVG-20010904/DTD/svg10.dtd">
<svg version="1.0" id="Layer_1" xmlns="http://www.w3.org/2000/svg" xmlns:xlink="http://www.w3.org/1999/xlink" x="0px" y="0px"
	 width="60px" height="60px" viewBox="0 0 60 60" enable-background="new 0 0 60 60" xml:space="preserve">
<path d="M51,31c0-0.553-0.447-1-1-1h-1.059c-0.499-4.493-4.316-8-8.941-8c-0.355,0-0.704,0.026-1.049,0.066
	c-0.36-3.479-2.714-6.366-5.892-7.52C33.638,13.853,34,12.972,34,12c0-1.685-1.049-3.122-2.526-3.711l1.421-2.842
	c0.247-0.494,0.047-1.095-0.447-1.342c-0.493-0.245-1.094-0.047-1.342,0.447l-1.757,3.513C27.453,8.379,26,10.017,26,12
	c0,0.972,0.362,1.853,0.941,2.547c-3.179,1.154-5.532,4.041-5.892,7.52C20.704,22.026,20.355,22,20,22
	c-0.412,0-0.815,0.038-1.212,0.091L12.965,0.737c-0.146-0.534-0.699-0.845-1.227-0.702C11.204,0.18,10.89,0.73,11.035,1.262
	l5.813,21.318c-3.111,1.169-5.41,4.005-5.789,7.419H10c-0.553,0-1,0.447-1,1c0,11.242,8.887,20.424,20,20.951V58h-7
	c-0.553,0-1,0.447-1,1s0.447,1,1,1h16c0.553,0,1-0.447,1-1s-0.447-1-1-1h-7v-6.049C42.113,51.424,51,42.242,51,31z M40,24
	c3.519,0,6.432,2.614,6.92,6H33.08C33.568,26.614,36.481,24,40,24z M13.08,30c0.488-3.386,3.401-6,6.92-6s6.432,2.614,6.92,6H13.08z
	 M28.941,30c-0.385-3.462-2.741-6.328-5.917-7.466C23.266,18.891,26.298,16,30,16s6.734,2.892,6.976,6.534
	c-3.176,1.138-5.533,4.005-5.917,7.466H28.941z"/>
</svg>
