<?xml version="1.0" encoding="utf-8"?>
<!-- Generator: Adobe Illustrator 17.0.0, SVG Export Plug-In . SVG Version: 6.00 Build 0)  -->
<!DOCTYPE svg PUBLIC "-//W3C//DTD SVG 1.1//EN" "http://www.w3.org/Graphics/SVG/1.1/DTD/svg11.dtd">
<svg version="1.1" xmlns="http://www.w3.org/2000/svg" xmlns:xlink="http://www.w3.org/1999/xlink" x="0px" y="0px" width="60px"
	 height="60px" viewBox="0 0 60 60" enable-background="new 0 0 60 60" xml:space="preserve">
<g id="Layer_3">
	<path fill="#010101" d="M27,2c-7.168,0-13,5.383-13,12v31c0,0.553,0.447,1,1,1h11v15c0,0.553,0.447,1,1,1s1-0.447,1-1V46h11
		c0.553,0,1-0.447,1-1V14C40,7.383,34.168,2,27,2z M33,36c-3.552,0-5-1.448-5-5V21c0-0.448-0.552-1-1-1s-1,0.552-1,1
		c0,1.542-1.458,3-3,3s-3-1.458-3-3v-6c0-0.553,0.447-1,1-1s1,0.447,1,1v6c0,0.448,0.552,1,1,1s1-0.552,1-1c0-1.542,1.458-3,3-3
		s3,1.458,3,3v10c0,2.44,0.56,3,3,3c0.553,0,1,0.447,1,1C34,35.553,33.553,36,33,36z"/>
</g>
<g id="nyt_x5F_exporter_x5F_info" display="none">
</g>
</svg>
