<?xml version="1.0" encoding="utf-8"?>
<!-- Generator: Adobe Illustrator 17.0.0, SVG Export Plug-In . SVG Version: 6.00 Build 0)  -->
<!DOCTYPE svg PUBLIC "-//W3C//DTD SVG 1.1//EN" "http://www.w3.org/Graphics/SVG/1.1/DTD/svg11.dtd">
<svg version="1.1" xmlns="http://www.w3.org/2000/svg" xmlns:xlink="http://www.w3.org/1999/xlink" x="0px" y="0px" width="60px"
	 height="60px" viewBox="0 0 60 60" enable-background="new 0 0 60 60" xml:space="preserve">
<g id="Layer_3">
	<g>
		<path fill="#010101" d="M48.947,7.724H15.565l-3.724-7.447l-1.789,0.895l3.276,6.553h-0.382c-0.553,0-1,0.447-1,1v8
			c0,0.553,0.447,1,1,1h36c0.553,0,1-0.447,1-1v-8C49.947,8.171,49.5,7.724,48.947,7.724z"/>
		<path fill="#010101" d="M45.947,19.724h-30c-0.279,0-0.545,0.116-0.734,0.321c-0.189,0.205-0.284,0.48-0.263,0.758l3,38
			c0.041,0.52,0.476,0.921,0.997,0.921h24c0.521,0,0.956-0.401,0.997-0.921l3-38c0.021-0.278-0.073-0.553-0.263-0.758
			C46.492,19.84,46.227,19.724,45.947,19.724z M17.964,45.653l-0.127-0.992l0-0.001l-0.127-0.991
			c0.017-0.002,0.031-0.008,0.048-0.011l-0.941-11.924c-0.017,0.001-0.034-0.001-0.052-0.001l-0.027-0.999v-0.001l-0.027-1
			c2.171-0.059,4.257,0.739,5.81,2.249c1.542,1.501,2.427,3.593,2.427,5.741C24.947,41.736,21.945,45.146,17.964,45.653z"/>
	</g>
</g>
<g id="nyt_x5F_exporter_x5F_info" display="none">
</g>
</svg>
