<?xml version="1.0" encoding="utf-8"?>
<!-- Generator: Adobe Illustrator 17.0.0, SVG Export Plug-In . SVG Version: 6.00 Build 0)  -->
<!DOCTYPE svg PUBLIC "-//W3C//DTD SVG 1.1//EN" "http://www.w3.org/Graphics/SVG/1.1/DTD/svg11.dtd">
<svg version="1.1" xmlns="http://www.w3.org/2000/svg" xmlns:xlink="http://www.w3.org/1999/xlink" x="0px" y="0px" width="60px"
	 height="60px" viewBox="0 0 60 60" enable-background="new 0 0 60 60" xml:space="preserve">
<g id="Layer_3">
	<path fill="#010101" d="M30,0c-9.925,0-18,8.075-18,18v6c0,2.206,1.794,4,4,4c1.463,0,2.732-0.798,3.429-1.973l9.61,33.25
		C29.163,59.705,29.555,60,30,60c0.445,0,0.837-0.295,0.961-0.723l9.609-33.252C41.267,27.201,42.536,28,44,28c2.206,0,4-1.794,4-4
		v-6C48,8.075,39.925,0,30,0z M46,24c0,1.103-0.898,2-2,2c-1.103,0-2-0.897-2-2c0-2.206-1.794-4-4-4c-2.206,0-4,1.794-4,4v2
		c0,2.206-1.794,4-4,4c-2.206,0-4-1.794-4-4v-2c0-2.206-1.794-4-4-4c-2.206,0-4,1.794-4,4c0,1.103-0.898,2-2,2c-1.103,0-2-0.897-2-2
		v-6c0-8.822,7.178-16,16-16s16,7.178,16,16V24z"/>
</g>
<g id="nyt_x5F_exporter_x5F_info" display="none">
</g>
</svg>
