<?xml version="1.0" encoding="utf-8"?>
<!-- Generator: Adobe Illustrator 17.0.0, SVG Export Plug-In . SVG Version: 6.00 Build 0)  -->
<!DOCTYPE svg PUBLIC "-//W3C//DTD SVG 1.1//EN" "http://www.w3.org/Graphics/SVG/1.1/DTD/svg11.dtd">
<svg version="1.1" xmlns="http://www.w3.org/2000/svg" xmlns:xlink="http://www.w3.org/1999/xlink" x="0px" y="0px" width="60px"
	 height="60px" viewBox="0 0 60 60" enable-background="new 0 0 60 60" xml:space="preserve">
<g id="Layer_3">
	<g>
		<path fill="#010101" d="M54,26.385h-3H29H1c-0.339,0-0.654,0.171-0.839,0.455c-0.185,0.284-0.213,0.642-0.075,0.951L8,45.597
			v2.788c0,3.364,2.636,6,6,6h32c3.364,0,6-2.636,6-6v-20h2c2.243,0,4,1.757,4,4v17c0,0.553,0.447,1,1,1s1-0.447,1-1v-17
			C60,29.021,57.364,26.385,54,26.385z"/>
		<path fill="#010101" d="M39.02,25.385c0.553,0,1-0.447,1-1c0-0.07-0.007-0.139-0.021-0.205C39.904,15.303,33.685,7.014,30,5.615
			v19.77h9C39.008,25.386,39.015,25.386,39.02,25.385z"/>
		<path fill="#010101" d="M19,25.385h9V5.615c-3.714,1.41-10,9.816-10,18.77C18,24.938,18.447,25.385,19,25.385z"/>
	</g>
</g>
<g id="nyt_x5F_exporter_x5F_info" display="none">
</g>
</svg>
