<?xml version="1.0" encoding="utf-8"?>
<!-- Generator: Adobe Illustrator 17.0.0, SVG Export Plug-In . SVG Version: 6.00 Build 0)  -->
<!DOCTYPE svg PUBLIC "-//W3C//DTD SVG 1.1//EN" "http://www.w3.org/Graphics/SVG/1.1/DTD/svg11.dtd">
<svg version="1.1" xmlns="http://www.w3.org/2000/svg" xmlns:xlink="http://www.w3.org/1999/xlink" x="0px" y="0px" width="60px"
	 height="60px" viewBox="0 0 60 60" enable-background="new 0 0 60 60" xml:space="preserve">
<g id="Layer_3">
	<g>
		<path fill="#010101" d="M46.5,14h1V6.5C47.5,2.916,44.584,0,41,0H19c-3.584,0-6.5,2.916-6.5,6.5V14h1H46.5z"/>
		<polygon fill="#010101" points="48.466,16 48.414,16 37.414,27 59.5,27 59.5,26.79 		"/>
		<path fill="#010101" d="M0.5,60H34V29H0.5V60z M6.5,34h21v11h-21V34z"/>
		<rect x="36" y="29" fill="#010101" width="23.5" height="31"/>
		<polygon fill="#010101" points="11.534,16 0.5,26.79 0.5,27 34.586,27 45.586,16 		"/>
	</g>
</g>
<g id="nyt_x5F_exporter_x5F_info" display="none">
</g>
</svg>
