<?xml version="1.0" encoding="utf-8"?>
<!-- Generator: Adobe Illustrator 17.0.0, SVG Export Plug-In . SVG Version: 6.00 Build 0)  -->
<!DOCTYPE svg PUBLIC "-//W3C//DTD SVG 1.1//EN" "http://www.w3.org/Graphics/SVG/1.1/DTD/svg11.dtd">
<svg version="1.1" xmlns="http://www.w3.org/2000/svg" xmlns:xlink="http://www.w3.org/1999/xlink" x="0px" y="0px" width="60px"
	 height="60px" viewBox="0 0 60 60" enable-background="new 0 0 60 60" xml:space="preserve">
<g id="Layer_3">
	<g>
		<path fill="#010101" d="M57,49c0.553,0,1-0.447,1-1V10c0-0.553-0.447-1-1-1H3c-0.553,0-1,0.447-1,1v38c0,0.553,0.447,1,1,1H57z
			 M50,12c1.102,0,2,0.898,2,2c0,1.103-0.898,2-2,2c-1.103,0-2-0.897-2-2C48,12.898,48.897,12,50,12z M40,12c1.102,0,2,0.898,2,2
			c0,1.103-0.898,2-2,2c-1.103,0-2-0.897-2-2C38,12.898,38.897,12,40,12z M10,12h20v4H10V12z M10,22h40v24H10V22z"/>
		<path fill="#010101" d="M59,50H1c-0.553,0-1,0.447-1,1v8c0,0.553,0.447,1,1,1h58c0.553,0,1-0.447,1-1v-8
			C60,50.447,59.553,50,59,50z"/>
		<path fill="#010101" d="M45,28H15c-0.553,0-1,0.447-1,1c0,0.553,0.447,1,1,1h30c0.553,0,1-0.447,1-1C46,28.447,45.553,28,45,28z"
			/>
		<path fill="#010101" d="M59,0H1C0.447,0,0,0.447,0,1v6c0,0.553,0.447,1,1,1h58c0.553,0,1-0.447,1-1V1C60,0.447,59.553,0,59,0z"/>
	</g>
</g>
<g id="nyt_x5F_exporter_x5F_info" display="none">
</g>
</svg>
