<?xml version="1.0" encoding="utf-8"?>
<!-- Generator: Adobe Illustrator 17.0.0, SVG Export Plug-In . SVG Version: 6.00 Build 0)  -->
<!DOCTYPE svg PUBLIC "-//W3C//DTD SVG 1.1//EN" "http://www.w3.org/Graphics/SVG/1.1/DTD/svg11.dtd">
<svg version="1.1" xmlns="http://www.w3.org/2000/svg" xmlns:xlink="http://www.w3.org/1999/xlink" x="0px" y="0px" width="60px"
	 height="60px" viewBox="0 0 60 60" enable-background="new 0 0 60 60" xml:space="preserve">
<g id="Layer_3">
	<g>
		<path fill="#010101" d="M15,33C3.667,33,0,50.517,0,59c0,0.553,0.447,1,1,1h28c0.008,0,0.016,0,0.019,0c0.553,0,1-0.447,1-1
			c0-0.069-0.007-0.138-0.02-0.203C29.941,50.24,26.243,33,15,33z M13,40c-0.553,0-1-0.447-1-1c0-0.553,0.447-1,1-1
			c0.553,0,1,0.447,1,1C14,39.553,13.553,40,13,40z M17,40c-0.553,0-1-0.447-1-1c0-0.553,0.447-1,1-1c0.553,0,1,0.447,1,1
			C18,39.553,17.553,40,17,40z"/>
		<path fill="#010101" d="M51,30H39c-2.663,0-5,2.337-5,5v24c0,0.553,0.447,1,1,1h20c0.553,0,1-0.447,1-1V35
			C56,32.337,53.663,30,51,30z"/>
		<path fill="#010101" d="M51,29c0.553,0,1-0.447,1-1v-6c0-0.553-0.447-1-1-1H39c-0.553,0-1,0.447-1,1v6c0,0.553,0.447,1,1,1H51z"/>
		<path fill="#010101" d="M55,15H35c-0.553,0-1,0.447-1,1v1.5c0,2.5,3.011,2.5,4,2.5h14c0.989,0,4,0,4-2.5V16
			C56,15.447,55.553,15,55,15z"/>
		<path fill="#010101" d="M55,4h-9V2h2c0.553,0,1-0.447,1-1c0-0.553-0.447-1-1-1h-6c-0.553,0-1,0.447-1,1c0,0.553,0.447,1,1,1h2v2
			h-9c-2.757,0-5,2.243-5,5c0,2.757,2.243,5,5,5h20c2.757,0,5-2.243,5-5C60,6.243,57.757,4,55,4z"/>
	</g>
</g>
<g id="nyt_x5F_exporter_x5F_info" display="none">
</g>
</svg>
