<?xml version="1.0" encoding="utf-8"?>
<!-- Generator: Adobe Illustrator 17.0.0, SVG Export Plug-In . SVG Version: 6.00 Build 0)  -->
<!DOCTYPE svg PUBLIC "-//W3C//DTD SVG 1.1//EN" "http://www.w3.org/Graphics/SVG/1.1/DTD/svg11.dtd">
<svg version="1.1" xmlns="http://www.w3.org/2000/svg" xmlns:xlink="http://www.w3.org/1999/xlink" x="0px" y="0px" width="60px"
	 height="60px" viewBox="0 0 60 60" enable-background="new 0 0 60 60" xml:space="preserve">
<g id="Layer_3">
	<g>
		<polygon fill="#010101" points="8.572,40 51.428,40 52.028,32 7.972,32 		"/>
		<path fill="#010101" d="M43,60h6c0.523,0,0.958-0.403,0.997-0.925L51.278,42H43V60z"/>
		<path fill="#010101" d="M52.733,18.322c-0.189-0.204-0.455-0.32-0.733-0.32l-9,0V30h9.178l0.819-10.923
			C53.018,18.8,52.922,18.525,52.733,18.322z"/>
		<rect x="35" y="42" fill="#010101" width="6" height="18"/>
		<rect x="19" y="42" fill="#010101" width="6" height="18"/>
		<rect x="27" y="42" fill="#010101" width="6" height="18"/>
		<path fill="#010101" d="M10.003,59.075C10.042,59.597,10.477,60,11,60h6V42H8.722L10.003,59.075z"/>
		<rect x="19" y="18.001" fill="#010101" width="6" height="11.999"/>
		<path fill="#010101" d="M17,18.001L8,18c-0.278,0-0.544,0.116-0.733,0.32c-0.188,0.203-0.284,0.477-0.264,0.755L7.822,30H17
			V18.001z"/>
		<rect x="35" y="18.001" fill="#010101" width="6" height="11.998"/>
		<rect x="27" y="18.001" fill="#010101" width="6" height="11.999"/>
		<path fill="#010101" d="M8,14c0.553,0,1-0.447,1-1c0-3.153,1.253-5.262,3.526-5.936c2.36-0.699,5.274,0.39,6.636,2.482
			c0.22,0.337,0.622,0.515,1.018,0.438c0.397-0.072,0.711-0.376,0.797-0.769C22.066,4.229,26.036,2,29.491,2
			c0.004,0,0.008,0,0.012,0c3.457,0.005,7.432,2.237,8.52,7.214c0.086,0.393,0.4,0.697,0.797,0.769
			c0.399,0.077,0.798-0.101,1.019-0.439c1.359-2.091,4.271-3.183,6.639-2.481C48.749,7.737,50,9.846,50,13c0,0.553,0.447,1,1,1
			s1-0.447,1-1c0-4.058-1.806-6.92-4.954-7.853c-2.594-0.77-5.579,0.006-7.606,1.823C37.621,2.179,33.311,0.005,29.505,0
			c-0.005,0-0.009,0-0.014,0c-3.806,0-8.113,2.171-9.932,6.97c-2.028-1.817-5.013-2.593-7.602-1.823C8.807,6.082,7,8.944,7,13
			C7,13.553,7.447,14,8,14z"/>
	</g>
</g>
<g id="nyt_x5F_exporter_x5F_info" display="none">
</g>
</svg>
