<?xml version="1.0" encoding="utf-8"?>
<!-- Generator: Adobe Illustrator 17.0.0, SVG Export Plug-In . SVG Version: 6.00 Build 0)  -->
<!DOCTYPE svg PUBLIC "-//W3C//DTD SVG 1.1//EN" "http://www.w3.org/Graphics/SVG/1.1/DTD/svg11.dtd">
<svg version="1.1" xmlns="http://www.w3.org/2000/svg" xmlns:xlink="http://www.w3.org/1999/xlink" x="0px" y="0px" width="60px"
	 height="60px" viewBox="0 0 60 60" enable-background="new 0 0 60 60" xml:space="preserve">
<g id="Layer_3">
	<g>
		<path fill="#010101" d="M12.293,42h-10c-0.553,0-1,0.447-1,1v16c0,0.553,0.447,1,1,1h10c0.553,0,1-0.447,1-1V43
			C13.293,42.447,12.846,42,12.293,42z M6.293,56c-0.553,0-1-0.447-1-1c0-0.553,0.447-1,1-1c0.553,0,1,0.447,1,1
			C7.293,55.553,6.846,56,6.293,56z"/>
		<path fill="#010101" d="M35.72,50.001c-0.025-0.025-0.049-0.051-0.074-0.077C34.114,48.304,30.047,44,22.293,44h-6
			c-0.553,0-1,0.447-1,1v12c0,0.553,0.447,1,1,1h38c0.553,0,1-0.447,1-1C55.293,52.233,45.532,50.063,35.72,50.001z"/>
		<path fill="#010101" d="M9.858,40h42.435c0.266,0,0.519-0.105,0.707-0.293L58.707,34h-2.828h-0.586h-48H6.585H3.857l5.268,5.68
			C9.314,39.884,9.58,40,9.858,40z"/>
		<path fill="#010101" d="M54.271,32h1.996C55.79,19.937,46.729,10.044,35.036,8.281C35.808,7.4,36.293,6.261,36.293,5
			c0-2.757-2.243-5-5-5c-2.757,0-5,2.243-5,5c0,1.261,0.484,2.4,1.257,3.281C15.856,10.044,6.796,19.937,6.318,32h1.996H54.271z
			 M31.293,2c1.654,0,3,1.346,3,3c0,1.654-1.346,3-3,3c-1.654,0-3-1.346-3-3C28.293,3.346,29.639,2,31.293,2z M15.492,22.443
			C19.03,17.156,24.937,14,31.293,14c0.553,0,1,0.447,1,1c0,0.553-0.447,1-1,1c-5.687,0-10.973,2.825-14.139,7.557
			C16.962,23.845,16.644,24,16.322,24c-0.191,0-0.385-0.055-0.556-0.169C15.308,23.523,15.185,22.902,15.492,22.443z"/>
	</g>
</g>
<g id="nyt_x5F_exporter_x5F_info" display="none">
</g>
</svg>
