<?xml version="1.0" encoding="utf-8"?>
<!-- Generator: Adobe Illustrator 17.0.0, SVG Export Plug-In . SVG Version: 6.00 Build 0)  -->
<!DOCTYPE svg PUBLIC "-//W3C//DTD SVG 1.1//EN" "http://www.w3.org/Graphics/SVG/1.1/DTD/svg11.dtd">
<svg version="1.1" xmlns="http://www.w3.org/2000/svg" xmlns:xlink="http://www.w3.org/1999/xlink" x="0px" y="0px" width="60px"
	 height="60px" viewBox="0 0 60 60" enable-background="new 0 0 60 60" xml:space="preserve">
<g id="Layer_3">
	<g>
		<path fill="#010101" d="M45.707,19.293L40.414,14H41c0.553,0,1-0.447,1-1c0-0.553-0.447-1-1-1h-3H27.414l-3.707-3.707
			c-0.391-0.391-1.023-0.391-1.414,0c-0.391,0.391-0.391,1.023,0,1.414L24.586,12H22h-3c-0.553,0-1,0.447-1,1c0,0.553,0.447,1,1,1
			h0.586l-5.293,5.293C14.105,19.481,14,19.734,14,20v35c0,0.266,0.105,0.52,0.293,0.707l4,4C18.48,59.895,18.734,60,19,60h22
			c0.266,0,0.519-0.105,0.707-0.293l4-4C45.894,55.52,46,55.266,46,55V20C46,19.734,45.894,19.481,45.707,19.293z M24,53
			c0,0.553-0.447,1-1,1c-0.553,0-1-0.447-1-1V43c0-0.553,0.447-1,1-1c0.553,0,1,0.447,1,1V53z M28,53c0,0.553-0.447,1-1,1
			c-0.553,0-1-0.447-1-1v-4c0-0.553,0.447-1,1-1c0.553,0,1,0.447,1,1V53z M30,40c-4.625,0-8.442-3.507-8.941-8h17.882
			C38.442,36.493,34.624,40,30,40z M21.059,30c0.499-4.493,4.316-8,8.941-8c4.624,0,8.442,3.507,8.941,8H21.059z"/>
		<circle fill="#010101" cx="35" cy="9" r="1"/>
		<circle fill="#010101" cx="37" cy="3" r="1"/>
		<circle fill="#010101" cx="31" cy="1" r="1"/>
	</g>
</g>
<g id="nyt_x5F_exporter_x5F_info" display="none">
</g>
</svg>
