<?xml version="1.0" encoding="utf-8"?>
<!-- Generator: Adobe Illustrator 17.0.0, SVG Export Plug-In . SVG Version: 6.00 Build 0)  -->
<!DOCTYPE svg PUBLIC "-//W3C//DTD SVG 1.1//EN" "http://www.w3.org/Graphics/SVG/1.1/DTD/svg11.dtd">
<svg version="1.1" xmlns="http://www.w3.org/2000/svg" xmlns:xlink="http://www.w3.org/1999/xlink" x="0px" y="0px" width="60px"
	 height="60px" viewBox="0 0 60 60" enable-background="new 0 0 60 60" xml:space="preserve">
<g id="Layer_3">
	<g>
		<path fill="#010101" d="M44.259,29c-2.812-2.863-6.475-4.878-10.577-5.645C34.492,22.465,35,21.295,35,20c0-2.757-2.243-5-5-5
			c-2.757,0-5,2.243-5,5c0,1.295,0.508,2.465,1.318,3.355c-4.101,0.767-7.765,2.782-10.577,5.645H44.259z M30,17
			c1.654,0,3,1.346,3,3c0,1.654-1.346,3-3,3c-1.654,0-3-1.346-3-3C27,18.346,28.346,17,30,17z"/>
		<path fill="#010101" d="M50,30c-0.855,0-1.695,0.114-2.508,0.325c-0.633,0.164-1.25,0.388-1.841,0.675H14.038
			c-2.126,2.822-3.54,6.209-3.926,9.906C7.522,40.389,6,37.657,6,35v-4c0-2.897-1.683-5-4-5c-1.105,0-2,0.896-2,2
			c0,1.036,0.789,1.889,1.799,1.99C1.89,30.167,2,30.533,2,31v4c0,5.272,3.494,9.468,8.106,9.951
			c0.338,3.457,1.559,6.755,3.606,9.629c0.188,0.264,0.491,0.42,0.814,0.42h30.946c0.323,0,0.627-0.156,0.814-0.42
			c1.038-1.457,1.853-3.028,2.462-4.668C49.164,49.965,49.581,50,50,50c5.514,0,10-4.486,10-10C60,34.486,55.514,30,50,30z M50,46
			c-0.076,0-0.151-0.016-0.226-0.019C49.921,45.001,50,44.005,50,43c0-3.1-0.729-6.025-1.993-8.646C48.644,34.128,49.313,34,50,34
			c3.309,0,6,2.691,6,6C56,43.309,53.309,46,50,46z"/>
	</g>
</g>
<g id="nyt_x5F_exporter_x5F_info" display="none">
</g>
</svg>
