<?xml version="1.0" encoding="utf-8"?>
<!-- Generator: Adobe Illustrator 17.0.0, SVG Export Plug-In . SVG Version: 6.00 Build 0)  -->
<!DOCTYPE svg PUBLIC "-//W3C//DTD SVG 1.1//EN" "http://www.w3.org/Graphics/SVG/1.1/DTD/svg11.dtd">
<svg version="1.1" xmlns="http://www.w3.org/2000/svg" xmlns:xlink="http://www.w3.org/1999/xlink" x="0px" y="0px" width="60px"
	 height="60px" viewBox="0 0 60 60" enable-background="new 0 0 60 60" xml:space="preserve">
<g id="Layer_3">
	<path fill="#010101" d="M49.737,0.324C49.548,0.117,49.28,0,49,0H11c-0.28,0-0.548,0.117-0.737,0.324
		c-0.189,0.206-0.283,0.482-0.259,0.762l1.745,20.245l3.255,37.755C15.048,59.603,15.481,60,16,60h28
		c0.519,0,0.952-0.397,0.996-0.914l3.25-37.714l0-0.001l1.749-20.285C50.02,0.807,49.926,0.53,49.737,0.324z M46.358,20H13.641
		L12.09,2h35.82L46.358,20z"/>
</g>
<g id="nyt_x5F_exporter_x5F_info" display="none">
</g>
</svg>
