<?xml version="1.0" encoding="utf-8"?>
<!-- Generator: Adobe Illustrator 17.0.0, SVG Export Plug-In . SVG Version: 6.00 Build 0)  -->
<!DOCTYPE svg PUBLIC "-//W3C//DTD SVG 1.1//EN" "http://www.w3.org/Graphics/SVG/1.1/DTD/svg11.dtd">
<svg version="1.1" id="Layer_1" xmlns="http://www.w3.org/2000/svg" xmlns:xlink="http://www.w3.org/1999/xlink" x="0px" y="0px"
	 width="48px" height="48px" viewBox="0 0 48 48" enable-background="new 0 0 48 48" xml:space="preserve">
<g>
	<path fill="#231F20" d="M34.341,32.312c-0.944-0.945-2.2-1.465-3.536-1.465c-1.335,0-2.591,0.52-3.536,1.465l-0.77,0.77
		c-4.139-3.464-8.115-7.44-11.578-11.579l0.771-0.771c1.947-1.948,1.947-5.12-0.001-7.07l-4.244-4.243
		c-0.944-0.944-2.199-1.464-3.535-1.464s-2.591,0.52-3.536,1.464l-2.327,2.327c-2.34,2.339-2.711,6.043-0.884,8.808
		C8.009,30.902,17.098,39.99,27.447,46.836c1.15,0.76,2.486,1.162,3.863,1.162c1.87,0,3.626-0.726,4.945-2.046l2.328-2.327
		c1.949-1.949,1.949-5.121,0-7.071L34.341,32.312z M37.167,42.211l-2.328,2.327c-0.941,0.942-2.195,1.46-3.53,1.46
		c-0.984,0-1.938-0.287-2.759-0.83C18.423,38.469,9.53,29.576,2.833,19.451c-1.306-1.975-1.041-4.621,0.629-6.291l2.328-2.328
		c0.567-0.566,1.32-0.878,2.122-0.878c0.801,0,1.554,0.312,2.121,0.879l4.243,4.242c1.168,1.171,1.168,3.074,0,4.243l-1.415,1.414
		c-0.363,0.363-0.392,0.943-0.066,1.341c3.869,4.722,8.41,9.264,13.132,13.133c0.398,0.327,0.978,0.298,1.341-0.066l1.413-1.414
		c1.134-1.134,3.111-1.134,4.244,0l4.242,4.242C38.336,39.138,38.336,41.042,37.167,42.211z"/>
	<path fill="#231F20" d="M35,0c-7.169,0-13,5.832-13,13c0,7.169,5.831,13,13,13c7.168,0,13-5.831,13-13C48,5.832,42.168,0,35,0z
		 M35,24c-6.065,0-11-4.935-11-11S28.935,2,35,2s11,4.935,11,11S41.065,24,35,24z"/>
	<path fill="#231F20" d="M40.454,12H36V7.545c0-0.552-0.448-1-1-1s-1,0.448-1,1V12h-4.455c-0.552,0-1,0.448-1,1s0.448,1,1,1H34
		v4.455c0,0.552,0.448,1,1,1s1-0.448,1-1.001V14h4.455c0.552,0,1-0.448,0.999-1C41.454,12.448,41.006,12,40.454,12z"/>
</g>
</svg>
