<?xml version="1.0" encoding="utf-8"?>
<!-- Generator: Adobe Illustrator 17.0.0, SVG Export Plug-In . SVG Version: 6.00 Build 0)  -->
<!DOCTYPE svg PUBLIC "-//W3C//DTD SVG 1.1//EN" "http://www.w3.org/Graphics/SVG/1.1/DTD/svg11.dtd">
<svg version="1.1" id="Layer_1" xmlns="http://www.w3.org/2000/svg" xmlns:xlink="http://www.w3.org/1999/xlink" x="0px" y="0px"
	 width="48px" height="48px" viewBox="0 0 48 48" enable-background="new 0 0 48 48" xml:space="preserve">
<g>
	<path fill="#231F20" d="M34.34,32.314c-0.943-0.945-2.198-1.465-3.534-1.465s-2.592,0.52-3.536,1.464l-0.77,0.77
		c-4.139-3.465-8.116-7.441-11.578-11.579l0.771-0.771c1.945-1.949,1.945-5.12-0.001-7.07l-4.244-4.242
		C10.505,8.476,9.25,7.956,7.914,7.956S5.322,8.476,4.378,9.42l-2.327,2.328c-2.34,2.34-2.712,6.044-0.885,8.808
		c6.847,10.349,15.935,19.437,26.282,26.282c1.15,0.76,2.486,1.162,3.863,1.162c1.871,0,3.627-0.727,4.945-2.046l2.327-2.327
		c0.944-0.944,1.465-2.2,1.465-3.535c0-1.336-0.521-2.592-1.465-3.536L34.34,32.314z M37.17,42.212l-2.327,2.327
		c-0.941,0.941-2.195,1.46-3.531,1.46c-0.984,0-1.939-0.287-2.76-0.83C18.427,38.472,9.533,29.579,2.834,19.452
		c-1.305-1.975-1.04-4.62,0.631-6.291l2.327-2.327c0.566-0.566,1.32-0.878,2.122-0.878c0.801,0,1.554,0.312,2.12,0.877l4.243,4.242
		c1.169,1.17,1.169,3.074,0.001,4.243l-1.415,1.414c-0.363,0.363-0.392,0.943-0.066,1.341c3.868,4.72,8.409,9.262,13.133,13.133
		c0.399,0.326,0.977,0.298,1.341-0.066l1.414-1.414c1.132-1.132,3.108-1.134,4.242,0l4.243,4.243
		c0.567,0.567,0.879,1.321,0.879,2.122S37.736,41.645,37.17,42.212z"/>
	<path fill="#231F20" d="M47.707,0.297c-0.391-0.391-1.023-0.391-1.414,0L28.002,18.588V8.002c0-0.552-0.447-1-1-1
		c-0.553,0-1,0.448-1,1v12.99c-0.003,0.26,0.092,0.52,0.291,0.719c0.089,0.089,0.192,0.151,0.3,0.199
		c0.007,0.003,0.012,0.01,0.02,0.013c0.124,0.052,0.255,0.081,0.387,0.081c0.004,0,0.007-0.002,0.01-0.002h12.992
		c0.553,0,1-0.448,1-1s-0.447-1-1-1H29.416L47.707,1.711C48.098,1.32,48.098,0.688,47.707,0.297z"/>
</g>
</svg>
