<?xml version="1.0" encoding="utf-8"?>
<!-- Generator: Adobe Illustrator 17.0.0, SVG Export Plug-In . SVG Version: 6.00 Build 0)  -->
<!DOCTYPE svg PUBLIC "-//W3C//DTD SVG 1.1//EN" "http://www.w3.org/Graphics/SVG/1.1/DTD/svg11.dtd">
<svg version="1.1" id="Layer_1" xmlns="http://www.w3.org/2000/svg" xmlns:xlink="http://www.w3.org/1999/xlink" x="0px" y="0px"
	 width="48px" height="48px" viewBox="0 0 48 48" enable-background="new 0 0 48 48" xml:space="preserve">
<g>
	<path fill="#231F20" d="M34.338,32.314c-0.943-0.945-2.199-1.465-3.535-1.465s-2.591,0.52-3.535,1.464l-0.771,0.77
		c-4.14-3.466-8.116-7.442-11.578-11.579l0.771-0.77c1.949-1.949,1.949-5.122,0-7.071L11.447,9.42
		c-0.944-0.944-2.199-1.464-3.535-1.464S5.32,8.476,4.376,9.42l-2.327,2.327c-2.34,2.34-2.712,6.044-0.884,8.809
		C8.01,30.904,17.098,39.992,27.447,46.838C28.597,47.598,29.933,48,31.31,48c1.871,0,3.626-0.727,4.944-2.046l2.328-2.327
		c1.948-1.95,1.949-5.121,0-7.071L34.338,32.314z M37.169,42.213l-2.328,2.327C33.9,45.481,32.646,46,31.311,46
		c-0.985,0-1.939-0.287-2.76-0.83C18.424,38.471,9.531,29.578,2.833,19.452c-1.306-1.976-1.041-4.621,0.63-6.291l2.327-2.327
		c0.566-0.566,1.32-0.878,2.122-0.878s1.555,0.312,2.121,0.877l4.243,4.243c1.169,1.17,1.169,3.073,0,4.243l-1.414,1.414
		c-0.363,0.363-0.392,0.943-0.066,1.341c3.866,4.72,8.407,9.261,13.132,13.133c0.398,0.326,0.977,0.298,1.341-0.066l1.414-1.414
		c1.134-1.134,3.11-1.132,4.242,0l4.244,4.243C38.338,39.14,38.338,41.044,37.169,42.213z"/>
	<path fill="#231F20" d="M47.966,0.834c-0.012-0.07-0.015-0.142-0.042-0.209c-0.101-0.248-0.299-0.446-0.548-0.547
		c-0.03-0.012-0.063-0.01-0.094-0.019C47.191,0.032,47.1,0.002,47,0.002H34c-0.553,0-1,0.448-1,1s0.447,1,1,1h10.587L26.292,20.297
		c-0.391,0.391-0.391,1.023,0,1.414c0.195,0.195,0.451,0.293,0.707,0.293c0.256,0,0.512-0.098,0.707-0.293L46,3.417v10.585
		c0,0.552,0.447,1,1,1s1-0.448,1-1v-13C48,0.942,47.976,0.891,47.966,0.834z"/>
</g>
</svg>
