<?xml version="1.0" encoding="utf-8"?>
<!-- Generator: Adobe Illustrator 17.0.0, SVG Export Plug-In . SVG Version: 6.00 Build 0)  -->
<!DOCTYPE svg PUBLIC "-//W3C//DTD SVG 1.1//EN" "http://www.w3.org/Graphics/SVG/1.1/DTD/svg11.dtd">
<svg version="1.1" id="Layer_1" xmlns="http://www.w3.org/2000/svg" xmlns:xlink="http://www.w3.org/1999/xlink" x="0px" y="0px"
	 width="48px" height="48px" viewBox="0 0 48 48" enable-background="new 0 0 48 48" xml:space="preserve">
<g>
	<path fill="#231F20" d="M29.479,39.541c0.787,0.519,1.7,0.794,2.641,0.794c1.277,0,2.478-0.497,3.379-1.4l1.468-1.468
		c0.666-0.667,1.033-1.554,1.032-2.496c-0.001-0.941-0.368-1.825-1.033-2.487l-2.675-2.674c-1.331-1.333-3.654-1.331-4.982-0.001
		l-0.246,0.246c-2.41-2.041-4.73-4.36-6.783-6.781l0.245-0.246c0.667-0.666,1.034-1.553,1.034-2.495c0-0.94-0.367-1.824-1.031-2.487
		l-2.677-2.678c-1.332-1.33-3.653-1.328-4.984,0.002l-1.468,1.468c-1.599,1.6-1.853,4.131-0.603,6.019
		C17.138,29.426,22.906,35.195,29.479,39.541z M14.813,18.252l1.468-1.468c0.288-0.287,0.671-0.446,1.079-0.446
		c0.408,0,0.791,0.158,1.077,0.443l2.676,2.678c0.287,0.286,0.445,0.667,0.445,1.073c0,0.407-0.158,0.791-0.448,1.08l-0.892,0.893
		c-0.363,0.363-0.391,0.944-0.065,1.341c2.465,3.005,5.348,5.886,8.337,8.333c0.397,0.325,0.976,0.297,1.34-0.066l0.892-0.891
		c0.574-0.575,1.578-0.575,2.154,0.001l2.677,2.676c0.287,0.287,0.446,0.668,0.446,1.074c0,0.409-0.158,0.792-0.447,1.081
		l-1.468,1.468c-0.909,0.91-2.425,1.062-3.503,0.35c-6.35-4.199-11.923-9.772-16.117-16.118
		C13.737,20.655,13.883,19.182,14.813,18.252z"/>
	<path fill="#231F20" d="M6,5c0-1.654,1.346-3,3-3h34c0.552,0,1-0.448,1-1s-0.448-1-1-1H9C6.243,0,4,2.243,4,5
		c0,0.235,0.016,0.467,0.048,0.693C4.017,5.79,4,5.893,4,6v8H3c-0.552,0-1,0.448-1,1s0.448,1,1,1h1v4H3c-0.552,0-1,0.448-1,1
		s0.448,1,1,1h1v4H3c-0.552,0-1,0.448-1,1s0.448,1,1,1h1v4H3c-0.552,0-1,0.448-1,1s0.448,1,1,1h1v4H3c-0.552,0-1,0.448-1,1
		s0.448,1,1,1h1v3c0,2.757,2.243,5,5,5h35V8H9C7.346,8,6,6.654,6,5z M42,46H9c-1.654,0-3-1.346-3-3v-3h1c0.552,0,1-0.448,1-1
		s-0.448-1-1-1H6v-4h1c0.552,0,1-0.448,1-1s-0.448-1-1-1H6v-4h1c0.552,0,1-0.448,1-1s-0.448-1-1-1H6v-4h1c0.552,0,1-0.448,1-1
		s-0.448-1-1-1H6v-4h1c0.552,0,1-0.448,1-1s-0.448-1-1-1H6V8.998C6.836,9.627,7.875,10,9,10h33V46z"/>
	<path fill="#231F20" d="M9,4C8.448,4,8,4.448,8,5s0.448,1,1,1h32c0.552,0,1-0.448,1-1s-0.448-1-1-1H9z"/>
</g>
</svg>
