<?xml version="1.0" encoding="utf-8"?>
<!-- Generator: Adobe Illustrator 17.0.0, SVG Export Plug-In . SVG Version: 6.00 Build 0)  -->
<!DOCTYPE svg PUBLIC "-//W3C//DTD SVG 1.1//EN" "http://www.w3.org/Graphics/SVG/1.1/DTD/svg11.dtd">
<svg version="1.1" id="Layer_1" xmlns="http://www.w3.org/2000/svg" xmlns:xlink="http://www.w3.org/1999/xlink" x="0px" y="0px"
	 width="48px" height="48px" viewBox="0 0 48 48" enable-background="new 0 0 48 48" xml:space="preserve">
<g>
	<rect x="26" y="4" fill="#231F20" width="9" height="2"/>
	<rect x="26" y="8" fill="#231F20" width="14" height="2"/>
	<path fill="#231F20" d="M45,12h-1V4.52L38.351,0H22v12h-2c0-2.757-2.243-5-5-5h-5V1c0-0.552-0.447-1-1-1S8,0.448,8,1v6.101
		C5.721,7.566,4,9.585,4,12H3c-1.654,0-3,1.346-3,3v26c0,1.654,1.346,3,3,3h1.101C4.566,46.279,6.585,48,9,48h6
		c2.415,0,4.434-1.721,4.899-4H45c1.654,0,3-1.346,3-3V15C48,13.346,46.654,12,45,12z M2,41V15c0-0.551,0.448-1,1-1h1v28H3
		C2.448,42,2,41.551,2,41z M18,43c0,1.654-1.346,3-3,3H9c-1.654,0-3-1.346-3-3V12c0-1.654,1.346-3,3-3h6c1.654,0,3,1.346,3,3V43z
		 M24,2h13.649L42,5.481V12H24V2z M46,41c0,0.551-0.448,1-1,1H20V14h25c0.552,0,1,0.449,1,1V41z"/>
	<path fill="#231F20" d="M26,22h14v-6H26V22z M28,18h10v2H28V18z"/>
	<rect x="26" y="26" fill="#231F20" width="2" height="2"/>
	<rect x="32" y="26" fill="#231F20" width="2" height="2"/>
	<rect x="38" y="26" fill="#231F20" width="2" height="2"/>
	<rect x="26" y="30" fill="#231F20" width="2" height="2"/>
	<rect x="32" y="30" fill="#231F20" width="2" height="2"/>
	<rect x="38" y="30" fill="#231F20" width="2" height="2"/>
	<rect x="26" y="34" fill="#231F20" width="2" height="2"/>
	<rect x="32" y="34" fill="#231F20" width="2" height="2"/>
	<rect x="38" y="34" fill="#231F20" width="2" height="2"/>
</g>
</svg>
