<?xml version="1.0" encoding="utf-8"?>
<!-- Generator: Adobe Illustrator 17.0.0, SVG Export Plug-In . SVG Version: 6.00 Build 0)  -->
<!DOCTYPE svg PUBLIC "-//W3C//DTD SVG 1.1//EN" "http://www.w3.org/Graphics/SVG/1.1/DTD/svg11.dtd">
<svg version="1.1" id="Layer_1" xmlns="http://www.w3.org/2000/svg" xmlns:xlink="http://www.w3.org/1999/xlink" x="0px" y="0px"
	 width="48px" height="48px" viewBox="0 0 48 48" enable-background="new 0 0 48 48" xml:space="preserve">
<g>
	<path fill="#231F20" d="M40.317,26.334c-0.944-0.945-2.2-1.465-3.536-1.465c-1.335,0-2.592,0.52-3.537,1.465l-0.769,0.77
		c-0.666-0.557-1.324-1.125-1.966-1.695c-0.413-0.367-1.045-0.33-1.412,0.083c-0.367,0.412-0.33,1.045,0.083,1.412
		c0.885,0.786,1.802,1.569,2.725,2.325c0.398,0.326,0.978,0.298,1.341-0.067l1.412-1.413c1.134-1.133,3.111-1.133,4.244,0
		l4.244,4.242c1.169,1.17,1.169,3.074,0,4.243l-2.328,2.328c-1.671,1.669-4.318,1.934-6.29,0.63
		c-3.494-2.311-6.881-4.915-10.068-7.74c-0.414-0.368-1.047-0.329-1.412,0.084c-0.366,0.414-0.328,1.046,0.085,1.412
		c3.257,2.889,6.72,5.55,10.292,7.912c1.174,0.777,2.519,1.156,3.856,1.156c1.809,0,3.606-0.694,4.952-2.041l2.328-2.328
		c1.949-1.949,1.949-5.121,0-7.071L40.317,26.334z"/>
	<path fill="#231F20" d="M15.05,24.866c0.198,0.223,0.473,0.337,0.749,0.337c0.236,0,0.472-0.083,0.663-0.252
		c0.413-0.367,0.451-0.999,0.085-1.412c-2.825-3.189-5.428-6.575-7.736-10.064C7.505,11.5,7.77,8.855,9.439,7.185l2.329-2.328
		c1.134-1.133,3.109-1.133,4.242,0l4.243,4.244c1.169,1.17,1.169,3.073,0,4.243l-1.414,1.414c-0.363,0.363-0.392,0.942-0.067,1.34
		c0.733,0.895,1.514,1.811,2.324,2.723c0.367,0.413,0.999,0.451,1.412,0.084c0.413-0.367,0.451-0.999,0.084-1.412
		c-0.583-0.657-1.151-1.316-1.695-1.966l0.77-0.771c1.95-1.949,1.95-5.122,0-7.071l-4.243-4.242
		c-0.944-0.945-2.199-1.465-3.535-1.465s-2.591,0.52-3.536,1.464L8.025,5.77c-2.339,2.339-2.71,6.043-0.883,8.808
		C9.502,18.146,12.162,21.607,15.05,24.866z"/>
	<path fill="#231F20" d="M47.707,0.293c-0.391-0.391-1.023-0.391-1.414,0l-46,46c-0.391,0.391-0.391,1.023,0,1.414
		C0.488,47.902,0.744,48,1,48s0.512-0.098,0.707-0.293l46-46C48.098,1.316,48.098,0.684,47.707,0.293z"/>
</g>
</svg>
