<?xml version="1.0" encoding="utf-8"?>
<!-- Generator: Adobe Illustrator 17.0.0, SVG Export Plug-In . SVG Version: 6.00 Build 0)  -->
<!DOCTYPE svg PUBLIC "-//W3C//DTD SVG 1.1//EN" "http://www.w3.org/Graphics/SVG/1.1/DTD/svg11.dtd">
<svg version="1.1" id="Layer_1" xmlns="http://www.w3.org/2000/svg" xmlns:xlink="http://www.w3.org/1999/xlink" x="0px" y="0px"
	 width="48px" height="48px" viewBox="0 0 48 48" enable-background="new 0 0 48 48" xml:space="preserve">
<g>
	<path fill="#231F20" d="M10,28h30V8H10V28z M12,10h26v16H12V10z"/>
	<path fill="#231F20" d="M20,6h10c0.552,0,1-0.448,1-1s-0.448-1-1-1H20c-0.552,0-1,0.448-1,1S19.448,6,20,6z"/>
	<rect x="14" y="32" fill="#231F20" width="2" height="2"/>
	<rect x="18" y="32" fill="#231F20" width="2" height="2"/>
	<rect x="22" y="32" fill="#231F20" width="2" height="2"/>
	<rect x="14" y="36" fill="#231F20" width="2" height="2"/>
	<rect x="18" y="36" fill="#231F20" width="2" height="2"/>
	<rect x="22" y="36" fill="#231F20" width="2" height="2"/>
	<rect x="14" y="40" fill="#231F20" width="2" height="2"/>
	<rect x="18" y="40" fill="#231F20" width="2" height="2"/>
	<rect x="22" y="40" fill="#231F20" width="2" height="2"/>
	<rect x="26" y="32" fill="#231F20" width="2" height="2"/>
	<rect x="26" y="36" fill="#231F20" width="2" height="2"/>
	<rect x="26" y="40" fill="#231F20" width="2" height="2"/>
	<rect x="30" y="32" fill="#231F20" width="2" height="2"/>
	<rect x="30" y="36" fill="#231F20" width="2" height="2"/>
	<rect x="30" y="40" fill="#231F20" width="2" height="2"/>
	<rect x="34" y="32" fill="#231F20" width="2" height="2"/>
	<rect x="34" y="36" fill="#231F20" width="2" height="2"/>
	<rect x="34" y="40" fill="#231F20" width="2" height="2"/>
	<path fill="#231F20" d="M40,0H10C7.794,0,6,1.794,6,4v37c0,3.86,3.14,7,7,7h24c3.86,0,7-3.14,7-7V4C44,1.794,42.206,0,40,0z M42,41
		c0,2.757-2.243,5-5,5H13c-2.757,0-5-2.243-5-5V4c0-1.103,0.897-2,2-2h30c1.103,0,2,0.897,2,2V41z"/>
</g>
</svg>
