<?xml version="1.0" encoding="utf-8"?>
<!-- Generator: Adobe Illustrator 17.1.0, SVG Export Plug-In . SVG Version: 6.00 Build 0)  -->
<!DOCTYPE svg PUBLIC "-//W3C//DTD SVG 1.0//EN" "http://www.w3.org/TR/2001/REC-SVG-20010904/DTD/svg10.dtd">
<svg version="1.0" id="Layer_1" xmlns="http://www.w3.org/2000/svg" xmlns:xlink="http://www.w3.org/1999/xlink" x="0px" y="0px"
	 width="48px" height="48px" viewBox="0 0 48 48" enable-background="new 0 0 48 48" xml:space="preserve">
<g>
	<path d="M43,12H22c0-2.757-2.243-5-5-5h-4V1c0-0.552-0.448-1-1-1c-0.552,0-1,0.448-1,1v6c-2.757,0-5,2.243-5,5H5
		c-1.654,0-3,1.346-3,3v26c0,1.654,1.346,3,3,3h1.101c0.465,2.279,2.484,4,4.899,4h6c2.414,0,4.434-1.721,4.899-4H43
		c1.654,0,3-1.346,3-3V15C46,13.346,44.654,12,43,12z M4,41V15c0-0.551,0.449-1,1-1h1v28H5C4.449,42,4,41.551,4,41z M20,43
		c0,1.654-1.346,3-3,3h-6c-1.654,0-3-1.346-3-3V12c0-1.654,1.346-3,3-3h6c1.654,0,3,1.346,3,3V43z M44,41c0,0.551-0.449,1-1,1H22V14
		h21c0.551,0,1,0.449,1,1V41z"/>
	<path d="M26,22h14v-6H26V22z M28,18h10v2H28V18z"/>
	<rect x="26" y="26" width="2" height="2"/>
	<rect x="32" y="26" width="2" height="2"/>
	<rect x="38" y="26" width="2" height="2"/>
	<rect x="26" y="30" width="2" height="2"/>
	<rect x="32" y="30" width="2" height="2"/>
	<rect x="38" y="30" width="2" height="2"/>
	<rect x="26" y="34" width="2" height="2"/>
	<rect x="32" y="34" width="2" height="2"/>
	<rect x="38" y="34" width="2" height="2"/>
</g>
</svg>
