<?xml version="1.0" encoding="utf-8"?>
<!-- Generator: Adobe Illustrator 17.0.0, SVG Export Plug-In . SVG Version: 6.00 Build 0)  -->
<!DOCTYPE svg PUBLIC "-//W3C//DTD SVG 1.1//EN" "http://www.w3.org/Graphics/SVG/1.1/DTD/svg11.dtd">
<svg version="1.1" id="Layer_1" xmlns="http://www.w3.org/2000/svg" xmlns:xlink="http://www.w3.org/1999/xlink" x="0px" y="0px"
	 width="48px" height="48px" viewBox="0 0 48 48" enable-background="new 0 0 48 48" xml:space="preserve">
<g>
	<path fill="#231F20" d="M33,8H15c-1.654,0-3,1.346-3,3v22c0,1.654,1.346,3,3,3h18c1.654,0,3-1.346,3-3V11C36,9.346,34.654,8,33,8z
		 M34,33c0,0.551-0.449,1-1,1H15c-0.551,0-1-0.449-1-1V11c0-0.551,0.449-1,1-1h18c0.551,0,1,0.449,1,1V33z"/>
	<path fill="#231F20" d="M33,0H15c-3.86,0-7,3.14-7,7v34c0,3.86,3.14,7,7,7h18c3.86,0,7-3.14,7-7V7C40,3.14,36.86,0,33,0z M38,41
		c0,2.757-2.243,5-5,5H15c-2.757,0-5-2.243-5-5V7c0-2.757,2.243-5,5-5h18c2.757,0,5,2.243,5,5V41z"/>
	<path fill="#231F20" d="M19,6h10c0.552,0,1-0.448,1-1s-0.448-1-1-1H19c-0.552,0-1,0.448-1,1S18.448,6,19,6z"/>
	<rect x="16" y="40" fill="#231F20" width="2" height="2"/>
	<rect x="30" y="40" fill="#231F20" width="2" height="2"/>
	<path fill="#231F20" d="M27,38h-6c-0.552,0-1,0.448-1,1v4c0,0.552,0.448,1,1,1h6c0.552,0,1-0.448,1-1v-4C28,38.448,27.552,38,27,38
		z M26,42h-4v-2h4V42z"/>
</g>
</svg>
