<?xml version="1.0" encoding="UTF-8" standalone="no"?>
<svg viewBox="0 0 20 24" version="1.1" xmlns="http://www.w3.org/2000/svg" xmlns:xlink="http://www.w3.org/1999/xlink">
  <g fill="none" stroke="#010101" stroke-miterlimit="10" stroke-linecap="round" stroke-linejoin="round">
		<path d="M6.88 14.524c-.16-.746-.522-1.024-1.297-1.024-1.2 0-1.41.97-1.41 2.434 0 1.464.21 2.65 1.41 2.65.775 0 1.138-.495 1.297-1.24M8.977 17.343c.04.692.58 1.24 1.24 1.24.685 0 1.24-.593 1.24-1.324 0-1.08-1.022-1.263-1.24-1.326-.216-.064-1.24-.245-1.24-1.325 0-.733.556-1.11 1.24-1.11.66 0 1.2.332 1.24 1.024M13.44 17.343c.042.692.58 1.24 1.24 1.24.686 0 1.24-.593 1.24-1.324 0-1.08-1.02-1.263-1.238-1.326-.217-.064-1.24-.245-1.24-1.325 0-.733.555-1.11 1.24-1.11.66 0 1.198.332 1.24 1.024" stroke-linecap="round" stroke-linejoin="round"/>
    <path d="M19.5 23.5H.5V.5h13l6 6z"/>
    <path d="M13.5.5v6h6"/>
  </g>
</svg>
