<?xml version="1.0" encoding="UTF-8" standalone="no"?>
<svg viewBox="0 0 24 24" version="1.1" xmlns="http://www.w3.org/2000/svg" xmlns:xlink="http://www.w3.org/1999/xlink">
	<g fill="none" stroke="#010101" stroke-miterlimit="10" stroke-linecap="round" stroke-linejoin="round">
    <path d="M.5 5.5h23v6H.5zM.5 5.5l6-5h11l6 5"/>
    <circle cx="14" cy="8.5" r=".5"/>
    <circle cx="17" cy="8.5" r=".5"/>
    <circle cx="20" cy="8.5" r=".5"/>
    <circle cx="3.5" cy="8.5" r="1"/>
    <path d="M.5 11.5v6h23v-6"/>
    <circle cx="14" cy="14.5" r=".5"/>
    <circle cx="17" cy="14.5" r=".5"/>
    <circle cx="20" cy="14.5" r=".5"/>
    <circle cx="3.5" cy="14.5" r="1"/>
    <path d="M23.5 17.5v4c0 1.1-.9 2-2 2h-19c-1.1 0-2-.9-2-2v-4"/>
    <circle cx="14" cy="20.5" r=".5"/>
    <circle cx="17" cy="20.5" r=".5"/>
    <circle cx="20" cy="20.5" r=".5"/>
    <circle cx="3.5" cy="20.5" r="1"/>
  </g>
</svg>
