<?xml version="1.0" encoding="UTF-8" standalone="no"?>
<svg width="20px" height="20px" viewBox="0 0 20 20" version="1.1" xmlns="http://www.w3.org/2000/svg" xmlns:xlink="http://www.w3.org/1999/xlink">
  <g stroke="none" stroke-width="1" fill-rule="evenodd" transform="translate(0.500000, 0.500000)">
    <path d="M12.3080218,14 L12.5521,15.35568 C12.5521,15.35568 12.7191,15.41168 12.9961,15.53168 C13.3091,15.66768 13.5511,15.80268 13.7181,15.95668 C13.8771,16.10468 13.9811,16.27668 13.9811,16.49868 L13.9891,16.64168 C14.0001,16.79768 14.0041,16.89468 13.9971,17.01068 C13.9561,17.67668 13.5251,18.11568 12.7031,18.11568 L9.5001,18.11568 L6.2981,18.11568 C5.4751,18.11568 5.0441,17.67668 5.0041,17.01068 C4.9971,16.89468 5.0001,16.79768 5.0111,16.64168 C5.0181,16.54268 5.0201,16.52268 5.0201,16.49868 C5.0201,16.27668 5.1231,16.10468 5.2821,15.95668 C5.4491,15.80268 5.6911,15.66768 6.0051,15.53168 C6.2811,15.41168 6.4481,15.35568 6.4481,15.35568 L6.69217819,14 L6.5,14 L6.5,12 L12.5,12 L12.5,14 L12.3080218,14 L12.3080218,14 Z M10.716968,14.5 L10.9397284,15.7390358 C10.9628159,15.8633006 11.0524495,15.965157 11.1733191,16.0031834 C11.2792498,16.0357775 11.8645847,16.2469598 11.8679799,16.2999251 C11.8686589,16.3121479 11.870017,16.3264078 11.8713751,16.3433838 C11.8768074,16.4201157 11.8781655,16.4628954 11.8761284,16.5029589 C11.869338,16.6082105 11.8618685,16.61568 11.6751317,16.61568 L9.50015773,16.61568 L7.32586276,16.61568 C7.13844695,16.61568 7.13097748,16.6082105 7.12486609,16.5029589 C7.12214992,16.4628954 7.12350801,16.4201157 7.12961939,16.3433838 C7.13029844,16.3264078 7.13165652,16.3121479 7.13233556,16.2999251 C7.13640982,16.2469598 7.72174469,16.0357775 7.82699632,16.0031834 C7.94786594,15.965157 8.03817863,15.8633006 8.06058704,15.7390358 L8.2833475,14.5 L10.716968,14.5 L10.716968,14.5 Z"></path>
    <path d="M2,12 L17,12 L17,2 L2,2 L2,12 Z M18.492,0 L0.508,0 C0.227,0 0,0.223 0,0.498 L0,13.502 C0,13.78 0.228,14 0.508,14 L18.492,14 C18.773,14 19,13.777 19,13.502 L19,0.498 C19,0.22 18.772,0 18.492,0 L18.492,0 Z"></path>
    <polygon points="8.43 3 7.933 4.55303077 6.976 7.545043 1 7.545043 1 8.43605319 7.353 8.43605319 7.731 8.43605319 7.834 8.11261649 8.398 6.35108934 9.486 9.98641093 9.841 11.1759095 10.423 10.0594738 11.593 7.80967303 11.792 8.14380185 11.933 8.37902854 12.233 8.37902854 18.001 8.37902854 18.001 7.48801835 12.534 7.48801835 12.003 6.60057219 11.531 5.81024615 11.108 6.62195644 10.096 8.5679227 8.897 4.56015885"></polygon>
  </g>
</svg>
