<?xml version="1.0" encoding="UTF-8" standalone="no"?>
<svg version="1.1" xmlns="http://www.w3.org/2000/svg" xmlns:xlink="http://www.w3.org/1999/xlink" x="0px" y="0px" viewBox="0 0 21 21">
	 <g fill="none" stroke-miterlimit="10" stroke-linejoin="round">
     <path d="M8.76 13.1s-1.3-.43-1.3-2.6c-.72 0-.72-1.74 0-1.74 0-.3-1.3-3.48.87-3.04.43-1.74 5.2-1.74 5.65 0 .3 1.2-.44 2.83-.44 3.04.72 0 .72 1.74 0 1.74 0 2.17-1.3 2.6-1.3 2.6v2.18c2.15.8 4.3 1.48 5.38 2.24 1.78-1.8 2.88-4.28 2.88-7.02 0-5.52-4.48-10-10-10s-10 4.48-10 10c0 2.74 1.1 5.22 2.9 7.03 1.15-.8 3.43-1.52 5.36-2.25V13.1z"/>
     <path d="M3.4 17.53c1.8 1.83 4.32 2.97 7.1 2.97 2.8 0 5.3-1.14 7.12-2.98"/>
   </g>
 </svg>
