<svg width="24px" height="24px" viewBox="0 0 24 24" version="1.1" xmlns="http://www.w3.org/2000/svg" xmlns:xlink="http://www.w3.org/1999/xlink">
  <path d="M2,2.004 L12,2.004 L12,6.004 L16,6.004 L16,14.007 L18,14.007 L18,4.59 L13.414,0.004 L2,0.004 C0.897,0.004 0,0.902 0,2.004 L0,20.004 C0,21.107 0.897,22.004 2,22.004 L14,22.004 L14,20.004 L2,20.004 L2,2.004 Z"></path>
  <polygon points="21 19.007 21 16.007 19 16.007 19 19.007 16 19.007 16 21.007 19 21.007 19 24.007 21 24.007 21 21.007 24 21.007 24 19.007"></polygon>
</svg>
