<?xml version="1.0" encoding="utf-8"?>
<!-- Generator: Adobe Illustrator 16.0.3, SVG Export Plug-In . SVG Version: 6.00 Build 0)  -->
<!DOCTYPE svg PUBLIC "-//W3C//DTD SVG 1.1//EN" "http://www.w3.org/Graphics/SVG/1.1/DTD/svg11.dtd">
<svg version="1.1" xmlns="http://www.w3.org/2000/svg" xmlns:xlink="http://www.w3.org/1999/xlink" x="0px" y="0px" width="24px"
	 height="24px" viewBox="0 0 24 24" enable-background="new 0 0 24 24" xml:space="preserve">
<g id="Outline_Icons_1_">
	<g id="Outline_Icons">
		<g>
			<g>
				<path d="M12,24C5.383,24,0,18.617,0,12S5.383,0,12,0s12,5.383,12,12S18.617,24,12,24z M12,1C5.935,1,1,5.935,1,12
					c0,6.066,4.935,11,11,11s11-4.934,11-11C23,5.935,18.065,1,12,1z"/>
			</g>
			<g>
				<path d="M17.162,17.869l-6-5.5C11.059,12.274,11,12.14,11,12V6.5C11,6.224,11.224,6,11.5,6S12,6.224,12,6.5v5.28l5.838,5.351
					c0.204,0.187,0.217,0.503,0.031,0.707C17.681,18.042,17.366,18.055,17.162,17.869z"/>
			</g>
		</g>
	</g>
	<g id="New_icons_1_">
	</g>
</g>
</svg>
