<?xml version="1.0" encoding="utf-8"?>
<!-- Generator: Adobe Illustrator 16.0.3, SVG Export Plug-In . SVG Version: 6.00 Build 0)  -->
<!DOCTYPE svg PUBLIC "-//W3C//DTD SVG 1.1//EN" "http://www.w3.org/Graphics/SVG/1.1/DTD/svg11.dtd">
<svg version="1.1" xmlns="http://www.w3.org/2000/svg" xmlns:xlink="http://www.w3.org/1999/xlink" x="0px" y="0px" width="24px"
	 height="24px" viewBox="0 0 24 24" enable-background="new 0 0 24 24" xml:space="preserve">
<g id="Outline_Icons_1_">
	<g id="Outline_Icons">
		<g>
			<path d="M22,4H2C0.897,4,0,4.896,0,6v12c0,1.103,0.897,2,2,2h20c1.103,0,2-0.897,2-2V6C24,4.896,23.103,4,22,4z M23,18
				c0,0.551-0.449,1-1,1H2c-0.551,0-1-0.449-1-1V6c0-0.551,0.449-1,1-1h20c0.551,0,1,0.449,1,1V18z"/>
			<path d="M20.92,8.229c-0.15-0.231-0.46-0.298-0.691-0.148L12,13.404L3.771,8.08C3.54,7.931,3.23,7.997,3.08,8.229
				C2.93,8.46,2.997,8.77,3.229,8.92l8.5,5.5c0.083,0.054,0.177,0.08,0.271,0.08s0.189-0.026,0.271-0.08l8.5-5.5
				C21.003,8.77,21.07,8.46,20.92,8.229z"/>
			<path d="M6.752,13.566l-3.5,2c-0.24,0.136-0.323,0.442-0.186,0.682C3.158,16.41,3.327,16.5,3.5,16.5
				c0.218,0,3.559-1.958,3.748-2.066c0.24-0.136,0.323-0.442,0.186-0.682C7.296,13.512,6.991,13.427,6.752,13.566z"/>
			<path d="M20.748,15.566l-3.5-2c-0.241-0.139-0.546-0.054-0.682,0.186c-0.137,0.24-0.054,0.546,0.186,0.682l3.5,2
				c0.235,0.135,0.543,0.057,0.682-0.186C21.071,16.009,20.988,15.702,20.748,15.566z"/>
		</g>
	</g>
</g>
</svg>
