<?xml version="1.0" encoding="UTF-8" standalone="no"?>
<svg width="24px" height="24px" viewBox="0 0 24 24" version="1.1" xmlns="http://www.w3.org/2000/svg" xmlns:xlink="http://www.w3.org/1999/xlink">
    <!-- Generator: Sketch 48 (47235) - http://www.bohemiancoding.com/sketch -->
    <title>icon/dark/folde-open</title>
    <desc>Created with Sketch.</desc>
    <defs></defs>
    <g id="Symbols" stroke="none" stroke-width="1" >
        <g id="icon/dark/folde-open">
            
            <path d="M20,7 L11.75,7 L10.1,4.8 C9.725,4.299 9.126,4 8.5,4 L4,4 C2.897,4 2,4.898 2,6 L2,19 C2,20.103 2.897,21 4,21 L20,21 C21.103,21 22,20.103 22,19 L22,9 C22,7.898 21.103,7 20,7 Z M4,19 L4,6 L8.5,6 L10.15,8.2 C10.525,8.701 11.124,9 11.75,9 L20,9 L20.001,19 L4,19 Z" id="Shape"  fill-rule="evenodd"></path>
            <path d="M20,11 L11.75,11 L10.1,9.8 C8.98217773,9 8.98101807,9 8.5,9 L4,9 C2.897,9 2,9.898 2,11 L2,17 C2,18.103 2.897,19 4,19 L20,19 C21.103,19 22,18.103 22,17 L22,13 C22,11.898 21.103,11 20,11 Z M4,19 L4,11 L8.5,11 L10.15,12.2 C11.2804565,13 11.2846069,13 11.75,13 L20,13 L20.001,19 L4,19 Z" id="Shape"  fill-rule="evenodd"></path>
        </g>
    </g>
</svg>
