<?xml version="1.0" encoding="UTF-8" standalone="no"?>
<svg width="24px" height="24px" viewBox="0 0 24 24" version="1.1" xmlns="http://www.w3.org/2000/svg" xmlns:xlink="http://www.w3.org/1999/xlink">
    <!-- Generator: Sketch 48 (47235) - http://www.bohemiancoding.com/sketch -->
    <title>icon/dark/hashtag</title>
    <desc>Created with Sketch.</desc>
    <defs></defs>
    <g id="Symbols" stroke="none" stroke-width="1" >
        <g id="icon/dark/hashtag">
            <g id="Group-3">
                
                <path d="M19.721,4 L17.613,4 L16.28,8 L11.388,8 L12.721,4 L10.613,4 L9.279,8 L5,8 L5,10 L8.612,10 L7.279,14 L3,14 L3,16 L6.612,16 L5.279,20 L7.387,20 L8.72,16 L13.612,16 L12.279,20 L14.387,20 L15.72,16 L20,16 L20,14 L16.388,14 L17.721,10 L22,10 L22,8 L18.388,8 L19.721,4 Z M14.279,14 L9.388,14 L10.721,10 L15.613,10 L14.279,14 Z" id="Shape" ></path>
            </g>
        </g>
    </g>
</svg>
