<svg xmlns="http://www.w3.org/2000/svg" width="24" height="24"><g fill-rule="evenodd"><path d="M1.375 11c0 5.3166667 4.30833333 9.625 9.625 9.625 5.3166667 0 9.625-4.3083333 9.625-9.625 0-5.31666667-4.3083333-9.625-9.625-9.625-5.31666667 0-9.625 4.30833333-9.625 9.625zM0 11C0 4.92525 4.9225 0 11 0c6.07475 0 11 4.9225 11 11 0 6.07475-4.9225 11-11 11-6.07475 0-11-4.9225-11-11z"/><path d="M5.3800001 11.0050001c0 3.1071429 2.51785716 5.625 5.625 5.625 3.1071429 0 5.625-2.5178571 5.625-5.625 0-3.10714284-2.5178571-5.625-5.625-5.625-3.10714284 0-5.625 2.51785716-5.625 5.625zM4 11c0-3.86575 3.1325-7 7-7 3.86575 0 7 3.1325 7 7 0 3.86575-3.1325 7-7 7-3.86575 0-7-3.1325-7-7z"/></g></svg>
