<svg width="24" height="24" xmlns="http://www.w3.org/2000/svg" xmlns:xlink="http://www.w3.org/1999/xlink"><defs><path id="a" d="M0 .629h22V19.98H0z"/></defs><g fill-rule="evenodd"><g transform="translate(1 2)"><mask id="b" fill="#fff"><use xlink:href="#a"/></mask><path d="M7.547 2.943c0-.491.397-.89.89-.895h5.04c.491 0 .89.396.89.885v.753h-6.82v-.743zM12.435 15.8c.011-3.014 2.473-5.448 5.5-5.437A5.492 5.492 0 0 1 22 12.181V4.943a1.26 1.26 0 0 0-1.263-1.257H15.821v-.743A2.32 2.32 0 0 0 13.506.629h-5.07a2.31 2.31 0 0 0-2.314 2.304v.753h-4.86A1.26 1.26 0 0 0 0 4.943v13.78a1.26 1.26 0 0 0 1.263 1.258h13.085a5.352 5.352 0 0 1-1.913-4.18z" mask="url(#b)"/></g><path d="M18.533 19.57c-1.23 0-2.229-.97-2.229-2.167 0-1.2.999-2.17 2.229-2.17s2.227.97 2.227 2.17c-.004 1.193-1 2.162-2.227 2.167zm0-5.57c-1.949-.003-3.53 1.531-3.533 3.427-.002 1.895 1.575 3.433 3.523 3.435.605.001 1.2-.15 1.729-.437h.099l1.4 1.352a.754.754 0 0 0 .508.223c.2.003.39-.079.521-.223a.674.674 0 0 0 0-.992l-1.38-1.342.08-.087c.384-.567.591-1.227.6-1.906.006-1.9-1.574-3.446-3.527-3.45h-.02z"/></g></svg>