<?xml version="1.0" encoding="UTF-8" standalone="no"?>
<svg width="24px" height="24px" viewBox="0 0 24 24" version="1.1" xmlns="http://www.w3.org/2000/svg" xmlns:xlink="http://www.w3.org/1999/xlink">
    <!-- Generator: Sketch 48 (47235) - http://www.bohemiancoding.com/sketch -->
    <title>icon/dark/line-graph</title>
    <desc>Created with Sketch.</desc>
    <defs></defs>
    <g id="Symbols" stroke="none" stroke-width="1" >
        <g id="icon/dark/line-graph">
            
            <path d="M22,22 L22,9 C22,8.448 21.553,8 21,8 L17,8 C16.447,8 16,8.448 16,9 L16,22 L15,22 L15,14.999 C15,14.448 14.553,13.999 14,13.999 L10,13.999 C9.447,13.999 9,14.448 9,14.999 L9,22 L8,22 L8,12.999 C8,12.448 7.553,11.999 7,11.999 L3,11.999 C2.447,11.999 2,12.448 2,12.999 L2,22 L0,22 L0,24 L24,24 L24,22 L22,22 Z M18,10 L20,10 L20,21.999 L18,21.999 L18,10 Z M11,15.999 L13,15.999 L13,21.999 L11,21.999 L11,15.999 Z M4,13.999 L6,13.999 L6,21.999 L4,21.999 L4,13.999 Z" id="Shape"  fill-rule="evenodd"></path>
        </g>
    </g>
</svg>
