<?xml version="1.0" encoding="utf-8"?>
<!-- Generator: Adobe Illustrator 16.0.3, SVG Export Plug-In . SVG Version: 6.00 Build 0)  -->
<!DOCTYPE svg PUBLIC "-//W3C//DTD SVG 1.1//EN" "http://www.w3.org/Graphics/SVG/1.1/DTD/svg11.dtd">
<svg version="1.1" xmlns="http://www.w3.org/2000/svg" xmlns:xlink="http://www.w3.org/1999/xlink" x="0px" y="0px" width="24px"
	 height="24px" viewBox="0 0 24 24" enable-background="new 0 0 24 24" xml:space="preserve">
<g id="Outline_Icons">
	<g>
		<path d="M8.5,5h15C23.776,5,24,4.776,24,4.5S23.776,4,23.5,4h-15C8.224,4,8,4.224,8,4.5S8.224,5,8.5,5z"/>
		<path d="M23.5,12h-15C8.224,12,8,12.224,8,12.5S8.224,13,8.5,13h15c0.276,0,0.5-0.224,0.5-0.5S23.776,12,23.5,12z"/>
		<path d="M23.5,20h-15C8.224,20,8,20.224,8,20.5S8.224,21,8.5,21h15c0.276,0,0.5-0.224,0.5-0.5S23.776,20,23.5,20z"/>
		<path d="M4.5,2h-4C0.224,2,0,2.224,0,2.5v4C0,6.776,0.224,7,0.5,7h4C4.776,7,5,6.776,5,6.5v-4C5,2.224,4.776,2,4.5,2z M4,6H1V3h3
			V6z"/>
		<path d="M4.5,10h-4C0.224,10,0,10.224,0,10.5v4C0,14.776,0.224,15,0.5,15h4C4.776,15,5,14.776,5,14.5v-4C5,10.224,4.776,10,4.5,10
			z M4,14H1v-3h3V14z"/>
		<path d="M4.5,18h-4C0.224,18,0,18.224,0,18.5v4C0,22.776,0.224,23,0.5,23h4C4.776,23,5,22.776,5,22.5v-4C5,18.224,4.776,18,4.5,18
			z M4,22H1v-3h3V22z"/>
	</g>
</g>
</svg>
