<?xml version="1.0" encoding="UTF-8" standalone="no"?>
<svg width="24px" height="24px" viewBox="0 0 24 24" version="1.1" xmlns="http://www.w3.org/2000/svg" xmlns:xlink="http://www.w3.org/1999/xlink">
    <!-- Generator: Sketch 48 (47235) - http://www.bohemiancoding.com/sketch -->
    <title>icon/dark/list</title>
    <desc>Created with Sketch.</desc>
    <defs></defs>
    <g id="Symbols" stroke="none" stroke-width="1" >
        <g id="icon/dark/list">
            
            <path d="M5,2 C3.346,2 2,3.345 2,5 C2,6.655 3.346,8 5,8 C6.654,8 8,6.654 8,5 C8,3.346 6.654,2 5,2 Z M5,6 C4.449,6 4,5.551 4,5 C4,4.449 4.449,4 5,4 C5.552,4 6,4.449 6,5 C6,5.551 5.552,6 5,6 Z" id="Shape"  fill-rule="evenodd"></path>
            <path d="M5,9 C3.346,9 2,10.346 2,12 C2,13.654 3.346,15 5,15 C6.654,15 8,13.654 8,12 C8,10.346 6.654,9 5,9 Z M5,13 C4.449,13 4,12.551 4,12 C4,11.449 4.449,11 5,11 C5.552,11 6,11.449 6,12 C6,12.551 5.552,13 5,13 Z" id="path-1"  fill-rule="evenodd"></path>
            <path d="M5,16 C3.346,16 2,17.346 2,19 C2,20.654 3.346,22 5,22 C6.654,22 8,20.654 8,19 C8,17.346 6.654,16 5,16 Z M5,20 C4.449,20 4,19.551 4,19 C4,18.449 4.449,18 5,18 C5.552,18 6,18.449 6,19 C6,19.551 5.552,20 5,20 Z" id="path-1"  fill-rule="evenodd"></path>
            <polygon id="path-2"  fill-rule="evenodd" points="10 4 22 4 22 6 10 6"></polygon>
            <polygon id="path-2"  fill-rule="evenodd" points="10 11 22 11 22 13 10 13"></polygon>
            <polygon id="path-2"  fill-rule="evenodd" points="10 18 22 18 22 20 10 20"></polygon>
        </g>
    </g>
</svg>
