<svg xmlns="http://www.w3.org/2000/svg" width="24" height="24" viewBox="0 0 24 24"><g fill-rule="evenodd"><g fill-rule="evenodd" transform="translate(3 2)"><polygon points="0 0 14 0 14 2 0 2" transform="translate(5 2)"/><polygon points="0 0 14 0 14 2 0 2" transform="translate(5 9)"/><polygon points="0 0 14 0 14 2 0 2" transform="translate(5 16)"/><path d="M1.32 1.869L1.32 5.47 2.414 5.47 2.414.548C2.414.327 2.28.127 2.076.042 1.871-.044 1.637.004 1.48.161L0 1.642.773 2.415 1.32 1.869zM1.5 7C.673 7 0 7.673 0 8.5L0 9 1 9 1 8.5C1 8.224 1.225 8 1.5 8 1.776 8 2.001 8.224 2.001 8.5 2.001 8.989 1.038 10.254.147 11.146.004 11.289-.039 11.503.039 11.691.116 11.879.298 12 .5 12L3 12 3 11 1.638 11C2.261 10.266 3 9.238 3 8.5 3 7.673 2.328 7 1.5 7zM1.5 14.442L0 14.443.001 15.443 1.5 15.442C1.775 15.442 2 15.666 2 15.942 2 16.218 1.775 16.442 1.5 16.442L1 16.442 1 17.442 1.5 17.442C1.775 17.442 2 17.666 2 17.942 2 18.219 1.775 18.442 1.5 18.442L0 18.442.001 19.442 1.5 19.442C2.327 19.442 3 18.769 3 17.942 3 17.558 2.855 17.207 2.617 16.942 2.855 16.677 3 16.327 3 15.942 3 15.115 2.327 14.442 1.5 14.442z"/></g></g></svg>
