<svg xmlns="http://www.w3.org/2000/svg" width="24px" height="24px" viewBox="0 0 50 50">
  <g stroke-width="0" fill-rule="evenodd">
    <path d="M1.2 27.8c-.7 0-1.2-.6-1.2-1.4v-2.7c0-.8.5-1.4 1.2-1.4h8.7c.7 0 1.2.6 1.2 1.4v2.7c0 .8-.5 1.4-1.2 1.4H1.2z" fill-opacity=".3"/>
    <path d="M27.8 9.9c0 .7-.6 1.2-1.4 1.2h-2.7c-.8 0-1.4-.5-1.4-1.2V1.2c0-.7.6-1.2 1.4-1.2h2.7c.8 0 1.4.5 1.4 1.2v8.7z"/>
    <path d="M13.6 16.8l-1.3 2.3c-.4.7-1.2 1-1.8.6L3 15.5c-.6-.3-.7-1.2-.3-1.8L4 11.4c.4-.7 1.2-1 1.8-.6l7.5 4.2c.6.3.7 1.2.3 1.8z" fill-opacity=".4"/>
    <path d="M19.8 10.5c.3.6 0 1.4-.6 1.8l-2.3 1.3c-.7.4-1.5.3-1.8-.3l-4.3-7.5c-.3-.6 0-1.4.6-1.8l2.3-1.3c.7-.4 1.5-.3 1.8.3l4.3 7.5z" fill-opacity=".6"/>
    <path d="M10.5 30.2c.6-.3 1.4 0 1.8.6l1.3 2.3c.4.7.3 1.5-.3 1.8l-7.5 4.3c-.6.3-1.4 0-1.8-.6l-1.3-2.3c-.4-.7-.3-1.5.3-1.8l7.5-4.3z" fill-opacity=".25"/>
    <path d="M27.8 48.8c0 .7-.6 1.2-1.4 1.2h-2.7c-.8 0-1.4-.5-1.4-1.2v-8.7c0-.7.6-1.2 1.4-1.2h2.7c.8 0 1.4.5 1.4 1.2v8.7zM47 34.5c.6.3.7 1.2.3 1.8L46 38.6c-.4.7-1.2 1-1.8.6L36.7 35c-.6-.3-.7-1.2-.3-1.8l1.3-2.3c.4-.7 1.2-1 1.8-.6l7.5 4.2zM38.7 46l-2.3 1.3c-.7.4-1.5.3-1.8-.3l-4.3-7.5c-.3-.6 0-1.4.6-1.8l2.3-1.3c.7-.4 1.5-.3 1.8.3l4.3 7.5c.3.6 0 1.4-.6 1.8zM15 36.7c.3-.6 1.2-.7 1.8-.3l2.3 1.3c.7.4 1 1.2.6 1.8L15.5 47c-.3.6-1.2.7-1.8.3L11.4 46c-.7-.4-1-1.2-.6-1.8l4.2-7.5zm25.1-8.9c-.7 0-1.2-.6-1.2-1.4v-2.7c0-.8.5-1.4 1.2-1.4h8.7c.7 0 1.2.6 1.2 1.4v2.7c0 .8-.5 1.4-1.2 1.4h-8.7zM46 11.3l1.3 2.3c.4.7.3 1.5-.3 1.8l-7.5 4.3c-.6.3-1.4 0-1.8-.6l-1.3-2.3c-.4-.7-.3-1.5.3-1.8l7.5-4.3c.6-.3 1.4 0 1.8.6zm-9.7-8.6L38.6 4c.7.4 1 1.2.6 1.8L35 13.3c-.3.6-1.2.7-1.8.3l-2.3-1.3c-.7-.4-1-1.2-.6-1.8L34.5 3c.3-.6 1.2-.7 1.8-.3z" fill-opacity=".2"/>
  </g>
</svg>
