<?xml version="1.0" encoding="UTF-8" standalone="no"?>
<svg width="24px" height="24px" viewBox="0 0 24 24" version="1.1" xmlns="http://www.w3.org/2000/svg" xmlns:xlink="http://www.w3.org/1999/xlink">
    <!-- Generator: Sketch 48 (47235) - http://www.bohemiancoding.com/sketch -->
    <title>icon/dark/lock</title>
    <desc>Created with Sketch.</desc>
    <defs></defs>
    <g id="Symbols" stroke="none" stroke-width="1" >
        <g id="icon/dark/lock">
            
            <path d="M13.0607109,15.4393861 C13.646497,16.0251723 13.646497,16.9749167 13.0607109,17.5607069 C12.4749247,18.146493 11.5251803,18.146493 10.9393901,17.5607069 C10.353604,16.9749207 10.353604,16.0251763 10.9393901,15.4393861 C11.5251763,14.8536 12.4749207,14.8536 13.0607109,15.4393861" id="Shape"  fill-rule="evenodd"></path>
            <path d="M17,11 L17,7 C17,4.243 14.757,2 12,2 C9.243,2 7,4.243 7,7 L7,11 C5.896,11 5,11.896 5,13 L5,20 C5,21.103 5.896,22 7,22 L17,22 C18.104,22 19,21.103 19,20 L19,13 C19,11.896 18.104,11 17,11 Z M9,7 C9,5.346 10.346,4 12,4 C13.654,4 15,5.346 15,7 L15,11 L9,11 L9,7 Z M7,20 L7,13 L17,13 L17.002,20 L7,20 Z" id="Shape"  fill-rule="evenodd"></path>
        </g>
    </g>
</svg>
