<svg width="24px" height="24px" viewBox="0 0 24 24" version="1.1" xmlns="http://www.w3.org/2000/svg" xmlns:xlink="http://www.w3.org/1999/xlink">
    <g id="Woorank-Icon" stroke="none" stroke-width="1" fill-rule="evenodd">
				<path d="M12,24 C18.6274169,24 24,18.6274169 24,12 C24,5.372583 18.6274169,0 12,0 C5.372583,0 0,5.372583 0,12 C0,18.6274169 5.372583,24 12,24 Z M12,22.25 C6.33908132,22.25 1.75,17.6609187 1.75,12 C1.75,6.33908132 6.33908132,1.75 12,1.75 C17.6609187,1.75 22.25,6.33908132 22.25,12 C22.25,17.6609187 17.6609187,22.25 12,22.25 Z" id="Oval"></path>
        <polygon points="4.5 20.5606602 20.5606602 4.5 19.5 3.43933983 3.43933983 19.5"></polygon>
    </g>
</svg>
