<svg xmlns="http://www.w3.org/2000/svg" width="24" height="24" viewBox="0 0 24 24"><g ><path  fill-rule="evenodd" d="M19,13 L11,13 L11,5 C11,4.714 10.877,4.44 10.662,4.25 C10.447,4.06 10.163,3.971 9.876,4.008 C5.386,4.569 2,8.435 2,13 C2,17.962 6.037,22 11,22 C15.566,22 19.432,18.614 19.992,14.124 C20.027,13.84 19.939,13.554 19.75,13.338 C19.56,13.123 19.287,13 19,13 Z M11,20 C7.141,20 4,16.86 4,13 C4,9.834 6.082,7.102 9,6.229 L9,14 C9,14.552 9.447,15 10,15 L17.771,15 C16.898,17.917 14.166,20 11,20 Z"/><path  fill-rule="evenodd" d="M13,2 C12.447,2 12,2.448 12,3 L12,11 C12,11.552 12.447,12 13,12 L21,12 C21.553,12 22,11.552 22,11 C22,6.038 17.963,2 13,2 Z M14,10 L14,4.071 C17.061,4.51 19.488,6.938 19.929,10 L14,10 Z"/></g></svg>
