<?xml version="1.0" encoding="utf-8"?>
<!-- Generator: Adobe Illustrator 16.0.3, SVG Export Plug-In . SVG Version: 6.00 Build 0)  -->
<!DOCTYPE svg PUBLIC "-//W3C//DTD SVG 1.1//EN" "http://www.w3.org/Graphics/SVG/1.1/DTD/svg11.dtd">
<svg version="1.1" xmlns="http://www.w3.org/2000/svg" xmlns:xlink="http://www.w3.org/1999/xlink" x="0px" y="0px" width="24px"
	 height="24px" viewBox="0 0 24 24" enable-background="new 0 0 24 24" xml:space="preserve">
<g id="Outline_Icons_1_">
	<g id="Outline_Icons">
		<path d="M23.969,8.327C23.896,8.13,23.709,8,23.5,8h-8.153l-2.879-7.676c-0.146-0.39-0.789-0.39-0.936,0L8.653,8H0.5
			C0.291,8,0.104,8.13,0.031,8.327c-0.073,0.196-0.016,0.417,0.144,0.553l6.744,5.782l-2.894,8.681
			c-0.068,0.207,0.004,0.434,0.18,0.562s0.415,0.128,0.591-0.001L12,18.62l7.204,5.283C19.292,23.968,19.396,24,19.5,24
			s0.207-0.032,0.295-0.096c0.176-0.128,0.248-0.356,0.18-0.562l-2.894-8.681l6.744-5.782C23.984,8.744,24.042,8.523,23.969,8.327z
			 M16.175,14.121c-0.154,0.131-0.214,0.344-0.149,0.538l2.504,7.509l-6.233-4.571C12.208,17.532,12.104,17.5,12,17.5
			s-0.208,0.032-0.296,0.097l-6.233,4.571l2.504-7.509c0.064-0.193,0.005-0.406-0.149-0.538L1.852,9H9
			c0.208,0,0.395-0.129,0.468-0.324L12,1.924l2.532,6.752C14.605,8.871,14.792,9,15,9h7.148L16.175,14.121z"/>
	</g>
	<g id="New_icons_1_">
	</g>
</g>
</svg>
