<svg xmlns="http://www.w3.org/2000/svg" width="24" height="24" viewBox="0 0 24 24"><g ><path  fill-rule="evenodd" d="M14,22 C13.737,22 13.482,21.896 13.293,21.707 L2.293,10.707 C2.105,10.52 2,10.266 2,10 L2,3 C2,2.447 2.447,2 3,2 L10,2 C10.266,2 10.52,2.105 10.707,2.293 L21.707,13.293 C21.945,13.531 22.047,13.871 21.979,14.201 C21.912,14.53 21.683,14.804 21.371,14.929 L16.77,16.77 L14.929,21.372 C14.804,21.685 14.531,21.913 14.201,21.98 C14.135,21.993 14.066,22 14,22 Z M4,9.586 L13.635,19.221 L15.072,15.629 C15.175,15.375 15.376,15.174 15.63,15.071 L19.222,13.634 L9.586,4 L4,4 L4,9.586 Z"/><path  fill-rule="evenodd" d="M8.41421701,5.58578849 C9.19526533,6.3668368 9.19526533,7.6331667 8.41421701,8.41421601 C7.6331687,9.19526433 6.3668388,9.19526433 5.58578949,8.41421601 C4.80474117,7.6331677 4.80474117,6.3668378 5.58578949,5.58578849 C6.3668378,4.80474017 7.6331677,4.80474017 8.41421701,5.58578849"/></g></svg>
