<svg xmlns="http://www.w3.org/2000/svg" width="24" height="24" viewBox="0 0 24 24"><g ><g  fill-rule="evenodd" transform="translate(5 3)"><path d="M8.06071085,12.4393861 C8.64649705,13.0251723 8.64649705,13.9749167 8.06071085,14.5607069 C7.47492466,15.146493 6.52518034,15.146493 5.93939015,14.5607069 C5.35360395,13.9749207 5.35360395,13.0251763 5.93939015,12.4393861 C6.52517634,11.8536 7.47492066,11.8536 8.06071085,12.4393861"/><path d="M12,8 L4,8 L4,5 C4,3.346 5.346,2 7,2 C8.654,2 10,3.346 10,5 L10,6 L12,6 L12,5 C12,2.243 9.757,0 7,0 C4.243,0 2,2.243 2,5 L2,8 C0.897,8 0,8.898 0,10 L0,17 C0,18.103 0.897,19 2,19 L12,19 C13.103,19 14,18.103 14,17 L14,10 C14,8.897 13.103,8 12,8 Z M2,17 L2,10 L12,10 L12.001,17 L2,17 Z"/></g></g></svg>
