<?xml version="1.0" encoding="utf-8"?>
<!-- Generator: Adobe Illustrator 16.0.3, SVG Export Plug-In . SVG Version: 6.00 Build 0)  -->
<!DOCTYPE svg PUBLIC "-//W3C//DTD SVG 1.1//EN" "http://www.w3.org/Graphics/SVG/1.1/DTD/svg11.dtd">
<svg version="1.1" xmlns="http://www.w3.org/2000/svg" xmlns:xlink="http://www.w3.org/1999/xlink" x="0px" y="0px" width="24px"
	 height="24px" viewBox="0 0 24 24" enable-background="new 0 0 24 24" xml:space="preserve">
<g id="Outline_Icons_1_">
	<g>
		<path d="M12,14c-0.552,0-1,0.449-1,1c0,0.365,0.207,0.672,0.5,0.847V18.5c0,0.276,0.224,0.5,0.5,0.5s0.5-0.224,0.5-0.5v-2.653
			C12.793,15.672,13,15.365,13,15C13,14.449,12.552,14,12,14z"/>
		<path d="M3.5,24h17c0.276,0,0.5-0.224,0.5-0.5v-14C21,9.224,20.776,9,20.5,9H18V6c0-3.309-2.691-6-6-6S6,2.691,6,6
			c0,0.276,0.224,0.5,0.5,0.5S7,6.276,7,6c0-2.757,2.243-5,5-5s5,2.243,5,5v3H3.5C3.224,9,3,9.224,3,9.5v14
			C3,23.776,3.224,24,3.5,24z M4,10h16v13H4V10z"/>
	</g>
</g>
</svg>
