<?xml version="1.0" encoding="utf-8"?>
<!-- Generator: Adobe Illustrator 16.0.3, SVG Export Plug-In . SVG Version: 6.00 Build 0)  -->
<!DOCTYPE svg PUBLIC "-//W3C//DTD SVG 1.1//EN" "http://www.w3.org/Graphics/SVG/1.1/DTD/svg11.dtd">
<svg version="1.1" xmlns="http://www.w3.org/2000/svg" xmlns:xlink="http://www.w3.org/1999/xlink" x="0px" y="0px" width="24px"
	 height="24px" viewBox="0 0 24 24" enable-background="new 0 0 24 24" xml:space="preserve">
<g id="Outline_Icons_1_">
	<g id="Outline_Icons">
		<path d="M23.073,3.96C23,3.817,22.864,3.719,22.706,3.694c-0.158-0.026-0.318,0.026-0.431,0.139L19.11,6.988h-1.958V4.883
			l3.087-3.166c0.111-0.114,0.161-0.273,0.135-0.43c-0.025-0.157-0.124-0.292-0.266-0.364c-2.686-1.374-6.048-0.846-8.177,1.282
			c-2.075,2.075-2.641,5.168-1.461,7.804l-9.577,9.568C0.421,20.051,0.16,20.681,0.16,21.35c0,0.666,0.259,1.292,0.73,1.761
			c0.472,0.473,1.1,0.733,1.766,0.733c0.667,0,1.294-0.26,1.767-0.733l9.565-9.567c2.642,1.185,5.736,0.628,7.803-1.438
			C23.947,9.948,24.462,6.674,23.073,3.96z M21.084,11.398c-1.845,1.845-4.646,2.287-6.971,1.097
			c-0.191-0.098-0.427-0.062-0.581,0.092l-9.816,9.817c-0.566,0.567-1.55,0.569-2.119,0c-0.583-0.583-0.584-1.53,0.005-2.119
			l9.827-9.819c0.153-0.153,0.19-0.388,0.092-0.582c-1.186-2.315-0.736-5.118,1.119-6.972c1.146-1.146,2.709-1.75,4.284-1.75
			c0.709,0,1.42,0.123,2.097,0.373l-2.726,2.795c-0.091,0.094-0.142,0.219-0.142,0.349v2.809c0,0.277,0.224,0.5,0.5,0.5h2.664
			c0.132,0,0.259-0.053,0.353-0.146l2.796-2.787C23.283,7.241,22.766,9.716,21.084,11.398z"/>
	</g>
</g>
</svg>
