<svg xmlns="http://www.w3.org/2000/svg" width="24" height="24" viewBox="0 0 24 24"><g ><path  fill-rule="evenodd" d="M14,8 C14,5.044 12.125,2.394 9.334,1.407 L8,0.934 L8,7 C8,7.553 7.551,8 7,8 C6.449,8 6,7.553 6,7 L6,0.934 L4.666,1.407 C1.875,2.394 0,5.044 0,8 C0,10.786 1.639,13.188 4,14.315 L4,21 L6,21 L6,15 L8,15 L8,21 L10,21 L10,14.315 C12.361,13.188 14,10.785 14,8 Z M7,13 C4.243,13 2,10.757 2,8 C2,6.405 2.766,4.935 4,4.007 L4,7 C4,8.654 5.346,10 7,10 C8.654,10 10,8.654 10,7 L10,4.006 C11.234,4.934 12,6.404 12,8 C12,10.756 9.757,13 7,13 Z" transform="translate(5 1)"/></g></svg>
