<?xml version="1.0" encoding="utf-8"?>
<!-- Generator: Adobe Illustrator 17.0.0, SVG Export Plug-In . SVG Version: 6.00 Build 0)  -->
<!DOCTYPE svg PUBLIC "-//W3C//DTD SVG 1.1//EN" "http://www.w3.org/Graphics/SVG/1.1/DTD/svg11.dtd">
<svg version="1.1" id="Layer_1" xmlns="http://www.w3.org/2000/svg" xmlns:xlink="http://www.w3.org/1999/xlink" x="0px" y="0px"
	 width="48px" height="48px" viewBox="0 0 48 48" enable-background="new 0 0 48 48" xml:space="preserve">
<g>
	<path fill="#231F20" d="M24,34c-5.801,0-10,7.765-10,13c0,0.552,0.448,1,1,1h18c0.006-0.001,0.013,0,0.02,0c0.552,0,1-0.448,1-1
		c0-0.072-0.007-0.142-0.022-0.21C33.888,41.56,29.724,34,24,34z M16.058,46c0.478-4.293,3.853-10,7.942-10s7.464,5.707,7.942,10
		H16.058z"/>
	<path fill="#231F20" d="M24,32c3.86,0,7-3.14,7-7s-3.14-7-7-7s-7,3.14-7,7S20.14,32,24,32z M24,20c2.757,0,5,2.243,5,5
		s-2.243,5-5,5s-5-2.243-5-5S21.243,20,24,20z"/>
	<path fill="#231F20" d="M35.315,12.685c-6.239-6.239-16.39-6.238-22.628,0c-6.238,6.239-6.238,16.39,0,22.628
		c0.39,0.391,1.023,0.391,1.414,0s0.391-1.023,0-1.414c-5.458-5.458-5.458-14.341,0-19.799s14.34-5.458,19.799,0
		c5.458,5.458,5.458,14.341,0,19.799c-0.391,0.39-0.391,1.023,0,1.414c0.195,0.195,0.451,0.293,0.707,0.293s0.512-0.097,0.708-0.293
		C41.553,29.074,41.553,18.923,35.315,12.685z"/>
	<path fill="#231F20" d="M40.971,7.029c-9.358-9.357-24.584-9.356-33.941,0c-9.357,9.358-9.357,24.584,0,33.941
		c0.391,0.391,1.023,0.391,1.414,0c0.391-0.391,0.391-1.023,0-1.414c-8.578-8.578-8.578-22.535,0-31.113
		c8.578-8.578,22.534-8.578,31.113,0c8.578,8.578,8.578,22.535,0,31.113c-0.391,0.391-0.391,1.023,0,1.414
		c0.195,0.195,0.451,0.293,0.707,0.293c0.255,0,0.511-0.097,0.707-0.293C50.328,31.612,50.328,16.387,40.971,7.029z"/>
</g>
</svg>
