<?xml version="1.0" encoding="utf-8"?>
<!-- Generator: Adobe Illustrator 17.0.0, SVG Export Plug-In . SVG Version: 6.00 Build 0)  -->
<!DOCTYPE svg PUBLIC "-//W3C//DTD SVG 1.1//EN" "http://www.w3.org/Graphics/SVG/1.1/DTD/svg11.dtd">
<svg version="1.1" id="Layer_1" xmlns="http://www.w3.org/2000/svg" xmlns:xlink="http://www.w3.org/1999/xlink" x="0px" y="0px"
	 width="48px" height="48px" viewBox="0 0 48 48" enable-background="new 0 0 48 48" xml:space="preserve">
<g>
	<path fill="#231F20" d="M25,26.765V23c0-0.552-0.447-1-1-1s-1,0.448-1,1v3.763l-9.895,19.79c-0.155,0.31-0.139,0.678,0.044,0.973
		C13.332,47.82,13.653,48,14,48h20c0.347,0,0.668-0.18,0.85-0.474c0.183-0.295,0.199-0.663,0.044-0.973L25,26.765z M24,29.236
		L25.882,33h-3.764L24,29.236z M26.882,35l0.842,1.684l-3.722,2.657l-3.724-2.66L21.118,35H26.882z M22.281,40.57l-6.139,4.382
		l3.23-6.46L22.281,40.57z M24.002,41.799L29.884,46H18.116L24.002,41.799z M25.723,40.57l2.907-2.075l3.229,6.458L25.723,40.57z"/>
	<path fill="#231F20" d="M24,0C10.767,0,0,10.766,0,24c0,6.207,2.367,12.098,6.664,16.589c0.383,0.399,1.017,0.413,1.414,0.031
		c0.399-0.382,0.413-1.015,0.031-1.414C4.17,35.089,2,29.689,2,24C2,11.869,11.869,2,24,2s22,9.869,22,22
		c0,5.689-2.17,11.089-6.109,15.207c-0.382,0.399-0.368,1.032,0.031,1.414c0.193,0.185,0.442,0.277,0.691,0.277
		c0.263,0,0.527-0.104,0.723-0.309C45.633,36.098,48,30.207,48,24C48,10.766,37.233,0,24,0z"/>
	<path fill="#231F20" d="M24,8C15.178,8,8,15.178,8,24c0,3.352,1.038,6.571,3.003,9.31c0.322,0.448,0.946,0.552,1.396,0.23
		c0.448-0.322,0.551-0.947,0.229-1.396C10.909,29.747,10,26.931,10,24c0-7.72,6.28-14,14-14s14,6.28,14,14
		c0,2.932-0.909,5.748-2.628,8.143c-0.323,0.449-0.22,1.074,0.229,1.396c0.177,0.127,0.38,0.188,0.582,0.188
		c0.311,0,0.618-0.145,0.813-0.417C38.961,30.572,40,27.353,40,24C40,15.178,32.822,8,24,8z"/>
	<path fill="#231F20" d="M30.939,25.263c0.56,0.023,1.023-0.444,1.049-0.996C31.995,24.178,32,24.09,32,24c0-4.411-3.589-8-8-8
		s-8,3.589-8,8c0,0.09,0.005,0.178,0.012,0.266l0.005,0.089c0.025,0.536,0.468,0.953,0.998,0.953c0.016,0,0.032,0,0.048-0.001
		c0.552-0.026,0.978-0.494,0.952-1.046L18,24c0-3.309,2.691-6,6-6s6,2.691,6,6l-0.015,0.261
		C29.959,24.813,30.387,25.237,30.939,25.263z"/>
</g>
</svg>
