<?xml version="1.0" encoding="utf-8"?>
<!-- Generator: Adobe Illustrator 17.0.0, SVG Export Plug-In . SVG Version: 6.00 Build 0)  -->
<!DOCTYPE svg PUBLIC "-//W3C//DTD SVG 1.1//EN" "http://www.w3.org/Graphics/SVG/1.1/DTD/svg11.dtd">
<svg version="1.1" id="Layer_1" xmlns="http://www.w3.org/2000/svg" xmlns:xlink="http://www.w3.org/1999/xlink" x="0px" y="0px"
	 width="48px" height="48px" viewBox="0 0 48 48" enable-background="new 0 0 48 48" xml:space="preserve">
<g>
	<path fill="#231F20" d="M24,16c-4.411,0-8,3.589-8,8v4c0,0.552,0.447,1,1,1s1-0.448,1-1v-4c0-3.309,2.691-6,6-6s6,2.691,6,6v4
		c0,0.552,0.447,1,1,1s1-0.448,1-1v-4C32,19.589,28.411,16,24,16z"/>
	<path fill="#231F20" d="M24,8C15.178,8,8,15.178,8,24v4c0,0.552,0.447,1,1,1s1-0.448,1-1v-4c0-7.72,6.28-14,14-14s14,6.28,14,14v4
		c0,0.552,0.447,1,1,1s1-0.448,1-1v-4C40,15.178,32.822,8,24,8z"/>
	<path fill="#231F20" d="M24,24c-0.553,0-1,0.448-1,1v22c0,0.552,0.447,1,1,1s1-0.448,1-1V25C25,24.448,24.553,24,24,24z"/>
	<path fill="#231F20" d="M24,0C10.767,0,0,10.767,0,24v4c0,0.552,0.447,1,1,1s1-0.448,1-1v-4C2,11.869,11.869,2,24,2s22,9.869,22,22
		v4c0,0.552,0.447,1,1,1s1-0.448,1-1v-4C48,10.767,37.233,0,24,0z"/>
</g>
</svg>
