<?xml version="1.0" encoding="utf-8"?>
<!-- Generator: Adobe Illustrator 17.0.0, SVG Export Plug-In . SVG Version: 6.00 Build 0)  -->
<!DOCTYPE svg PUBLIC "-//W3C//DTD SVG 1.1//EN" "http://www.w3.org/Graphics/SVG/1.1/DTD/svg11.dtd">
<svg version="1.1" id="Layer_1" xmlns="http://www.w3.org/2000/svg" xmlns:xlink="http://www.w3.org/1999/xlink" x="0px" y="0px"
	 width="48px" height="48px" viewBox="0 0 48 48" enable-background="new 0 0 48 48" xml:space="preserve">
<g>
	<path fill="#231F20" d="M40.971,4.029c-0.391-0.391-1.023-0.391-1.414,0s-0.391,1.023,0,1.414C43.712,9.599,46,15.124,46,21
		c0,5.877-2.288,11.401-6.443,15.557c-0.391,0.391-0.391,1.023,0,1.414c0.195,0.195,0.451,0.293,0.707,0.293
		c0.255,0,0.511-0.097,0.707-0.293C45.504,33.438,48,27.411,48,21S45.504,8.562,40.971,4.029z"/>
	<path fill="#231F20" d="M35.313,9.687c-0.391-0.391-1.023-0.391-1.414,0s-0.391,1.024,0,1.414C36.544,13.745,38,17.26,38,21
		c0,3.739-1.456,7.255-4.101,9.899c-0.391,0.39-0.391,1.023,0,1.414c0.195,0.195,0.451,0.293,0.707,0.293
		c0.256,0,0.512-0.097,0.707-0.292C38.336,29.292,40,25.273,40,21C40,16.726,38.336,12.708,35.313,9.687z"/>
	<path fill="#231F20" d="M2,21C2,15.124,4.288,9.599,8.443,5.443c0.391-0.391,0.391-1.023,0-1.414s-1.023-0.391-1.414,0
		C2.496,8.562,0,14.589,0,21s2.496,12.438,7.029,16.971c0.195,0.195,0.451,0.293,0.707,0.293c0.256,0,0.512-0.097,0.707-0.293
		c0.391-0.391,0.391-1.023,0-1.414C4.288,32.401,2,26.877,2,21z"/>
	<path fill="#231F20" d="M10,21c0-3.739,1.456-7.255,4.099-9.899c0.391-0.391,0.391-1.024,0-1.414c-0.39-0.391-1.023-0.391-1.414,0
		C9.664,12.709,8,16.727,8,21s1.664,8.291,4.686,11.313c0.195,0.195,0.451,0.293,0.707,0.293c0.255,0,0.511-0.097,0.707-0.293
		c0.391-0.39,0.391-1.023,0-1.414C11.456,28.255,10,24.739,10,21z"/>
	<path fill="#231F20" d="M24,14c-3.859,0-7,3.14-7,7c0,3.52,2.614,6.432,6,6.92V44c0,0.552,0.447,1,1,1s1-0.448,1-1V27.92
		c3.386-0.488,6-3.401,6-6.92C31,17.14,27.859,14,24,14z M24,26c-2.757,0-5-2.243-5-5s2.243-5,5-5s5,2.243,5,5S26.757,26,24,26z"/>
</g>
</svg>
