<?xml version="1.0" encoding="utf-8"?>
<!-- Generator: Adobe Illustrator 17.0.0, SVG Export Plug-In . SVG Version: 6.00 Build 0)  -->
<!DOCTYPE svg PUBLIC "-//W3C//DTD SVG 1.1//EN" "http://www.w3.org/Graphics/SVG/1.1/DTD/svg11.dtd">
<svg version="1.1" id="Layer_1" xmlns="http://www.w3.org/2000/svg" xmlns:xlink="http://www.w3.org/1999/xlink" x="0px" y="0px"
	 width="48px" height="48px" viewBox="0 0 48 48" enable-background="new 0 0 48 48" xml:space="preserve">
<path fill="#231F20" d="M39,30c-3.087,0-5.898,1.551-7.549,4.109l-14.008-7.005C17.813,26.108,18,25.068,18,24
	s-0.187-2.108-0.556-3.103l14.008-7.005C33.102,16.449,35.913,18,39,18c4.962,0,9-4.038,9-9s-4.038-9-9-9s-9,4.038-9,9
	c0,1.067,0.189,2.106,0.558,3.102l-14.025,7.013C14.883,16.559,12.086,15,9,15c-4.962,0-9,4.038-9,9s4.038,9,9,9
	c3.086,0,5.884-1.56,7.534-4.115l14.031,7.016c-0.956,2.582-0.689,5.443,0.786,7.831C33.001,46.404,35.861,48,39,48
	c4.962,0,9-4.038,9-9S43.962,30,39,30z M39,2c3.86,0,7,3.14,7,7s-3.14,7-7,7c-2.661,0-5.058-1.484-6.256-3.873l0,0
	C32.25,11.14,32,10.087,32,9C32,5.14,35.14,2,39,2z M9,31c-3.86,0-7-3.14-7-7s3.14-7,7-7c2.662,0,5.059,1.484,6.255,3.873
	C15.749,21.86,16,22.913,16,24c0,1.088-0.251,2.14-0.745,3.127C14.059,29.516,11.662,31,9,31z M39,46
	c-2.441,0-4.665-1.241-5.948-3.319c-1.284-2.079-1.399-4.621-0.311-6.801l0.003-0.006C33.941,33.484,36.339,32,39,32
	c3.86,0,7,3.14,7,7S42.86,46,39,46z"/>
</svg>
