<?xml version="1.0" encoding="utf-8"?>
<!-- Generator: Adobe Illustrator 17.0.0, SVG Export Plug-In . SVG Version: 6.00 Build 0)  -->
<!DOCTYPE svg PUBLIC "-//W3C//DTD SVG 1.1//EN" "http://www.w3.org/Graphics/SVG/1.1/DTD/svg11.dtd">
<svg version="1.1" id="Layer_1" xmlns="http://www.w3.org/2000/svg" xmlns:xlink="http://www.w3.org/1999/xlink" x="0px" y="0px"
	 width="48px" height="48px" viewBox="0 0 48 48" enable-background="new 0 0 48 48" xml:space="preserve">
<path fill="#231F20" d="M44,18V7c0-0.34-0.173-0.657-0.46-0.841c-0.285-0.183-0.645-0.209-0.955-0.069L40.73,6.94
	C32.836,10.57,25.38,14,9,14H7c-3.859,0-7,3.14-7,7v4c0,3.86,3.141,7,7,7h2c1.774,0,3.426,0.047,5.002,0.124
	c0.025,5.871,3.295,11.142,8.551,13.771C22.696,45.966,22.849,46,22.999,46c0.367,0,0.72-0.202,0.895-0.552
	c0.247-0.494,0.047-1.095-0.447-1.342c-4.537-2.27-7.371-6.802-7.44-11.861c11.679,0.835,18.059,3.75,24.729,6.818l1.85,0.847
	C42.718,39.97,42.859,40,43,40c0.189,0,0.377-0.054,0.541-0.159C43.827,39.657,44,39.34,44,39V28c2.206,0,4-1.794,4-4v-2
	C48,19.794,46.206,18,44,18z M7,30c-2.757,0-5-2.243-5-5v-4c0-2.757,2.243-5,5-5h2c1.772,0,3.421-0.047,5-0.121v14.243
	C12.421,30.047,10.772,30,9,30H7z M42,37.442l-0.429-0.196c-6.88-3.163-13.458-6.17-25.571-7.008V15.762
	c12.115-0.838,18.69-3.843,25.566-7.005L42,8.558V19v8V37.442z M46,24c0,1.103-0.898,2-2,2v-6c1.102,0,2,0.897,2,2V24z"/>
</svg>
