<?xml version="1.0" encoding="utf-8"?>
<!-- Generator: Adobe Illustrator 17.0.0, SVG Export Plug-In . SVG Version: 6.00 Build 0)  -->
<!DOCTYPE svg PUBLIC "-//W3C//DTD SVG 1.1//EN" "http://www.w3.org/Graphics/SVG/1.1/DTD/svg11.dtd">
<svg version="1.1" id="Layer_1" xmlns="http://www.w3.org/2000/svg" xmlns:xlink="http://www.w3.org/1999/xlink" x="0px" y="0px"
	 width="48px" height="48px" viewBox="0 0 48 48" enable-background="new 0 0 48 48" xml:space="preserve">
<path fill="#231F20" d="M47.707,31.293L39,22.586v-7.687c2.279-0.465,4-2.484,4-4.899c0-2.757-2.243-5-5-5
	c-2.415,0-4.434,1.721-4.899,4h-7.687l-8.707-8.707c-0.391-0.391-1.023-0.391-1.414,0C6.919,8.667,6.392,21.96,13.711,30.953
	L0.247,46.341c-0.257,0.296-0.32,0.715-0.157,1.072C0.252,47.771,0.607,48,1,48h28c0.393,0,0.748-0.229,0.91-0.587
	c0.163-0.357,0.101-0.777-0.157-1.072l-7.94-9.075c3.001,1.41,6.284,2.177,9.687,2.177c6.107,0,11.863-2.393,16.207-6.737
	C48.098,32.316,48.098,31.684,47.707,31.293z M32.914,16.5l2.333-2.333c0.524,0.348,1.116,0.602,1.753,0.732v5.687L32.914,16.5z
	 M38,7c1.654,0,3,1.346,3,3s-1.346,3-3,3c-0.827,0-1.576-0.336-2.119-0.879c0,0,0-0.001-0.001-0.001s-0.001,0-0.001-0.001
	C35.336,11.576,35,10.827,35,10C35,8.346,36.346,7,38,7z M33.101,11c0.13,0.637,0.384,1.229,0.732,1.753L31.5,15.086L27.414,11
	H33.101z M3.204,46L15,32.519L26.796,46H3.204z M31.5,37.444c-5.573,0-10.826-2.185-14.793-6.151
	c-7.92-7.92-8.149-20.662-0.69-28.862l8.276,8.276l0,0l21.276,21.277C41.698,35.512,36.74,37.444,31.5,37.444z"/>
</svg>
