<?xml version="1.0" encoding="utf-8"?>
<!-- Generator: Adobe Illustrator 17.0.0, SVG Export Plug-In . SVG Version: 6.00 Build 0)  -->
<!DOCTYPE svg PUBLIC "-//W3C//DTD SVG 1.1//EN" "http://www.w3.org/Graphics/SVG/1.1/DTD/svg11.dtd">
<svg version="1.1" id="Layer_1" xmlns="http://www.w3.org/2000/svg" xmlns:xlink="http://www.w3.org/1999/xlink" x="0px" y="0px"
	 width="48px" height="48px" viewBox="0 0 48 48" enable-background="new 0 0 48 48" xml:space="preserve">
<g>
	<path fill="#231F20" d="M0,18v2c15.439,0,28,12.561,28,28h2C30,31.458,16.542,18,0,18z"/>
	<path fill="#231F20" d="M0,0v2c25.364,0,46,20.636,46,46h2C48,21.533,26.467,0,0,0z"/>
	<path fill="#231F20" d="M6,36c-3.309,0-6,2.691-6,6s2.691,6,6,6s6-2.691,6-6S9.309,36,6,36z M6,46c-2.206,0-4-1.794-4-4
		s1.794-4,4-4s4,1.794,4,4S8.206,46,6,46z"/>
</g>
</svg>
