<?xml version="1.0" encoding="utf-8"?>
<!-- Generator: Adobe Illustrator 17.0.0, SVG Export Plug-In . SVG Version: 6.00 Build 0)  -->
<!DOCTYPE svg PUBLIC "-//W3C//DTD SVG 1.1//EN" "http://www.w3.org/Graphics/SVG/1.1/DTD/svg11.dtd">
<svg version="1.1" id="Layer_1" xmlns="http://www.w3.org/2000/svg" xmlns:xlink="http://www.w3.org/1999/xlink" x="0px" y="0px"
	 width="48px" height="48px" viewBox="0 0 48 48" enable-background="new 0 0 48 48" xml:space="preserve">
<g>
	<path fill="#231F20" d="M47.706,37.062L36.393,25.749c-0.391-0.391-1.023-0.391-1.414,0l-2.122,2.122l-1.414-1.414l4.951-4.951
		c2.488-2.488,2.7-6.395,0.651-9.135l2.18-2.179c0.062-0.063,0.098-0.139,0.14-0.212c0.184,0.054,0.373,0.09,0.564,0.09
		c0.513,0,1.024-0.195,1.415-0.585c0.78-0.78,0.78-2.048,0-2.828c-0.391-0.389-0.903-0.585-1.415-0.585
		c-0.512,0-1.024,0.195-1.415,0.585c-0.536,0.536-0.695,1.301-0.494,1.981c-0.072,0.042-0.148,0.077-0.21,0.139l-2.179,2.178
		c-1.203-0.903-2.655-1.399-4.187-1.399c-1.87,0-3.628,0.729-4.95,2.051l-4.949,4.949l-1.415-1.414l2.122-2.121
		c0.188-0.188,0.293-0.442,0.293-0.707c0-0.265-0.105-0.519-0.293-0.707L10.937,0.293c-0.375-0.375-1.039-0.375-1.414,0L3.867,5.951
		c-0.391,0.391-0.391,1.023,0,1.414L15.18,18.678c0.195,0.195,0.451,0.293,0.707,0.293c0.256,0,0.511-0.098,0.707-0.294l2.121-2.12
		l1.415,1.414l-4.95,4.95c-0.187,0.187-0.293,0.442-0.293,0.707s0.105,0.519,0.293,0.707l0.245,0.245
		c-0.314-0.033-0.632-0.052-0.952-0.052c-2.404,0-4.664,0.935-6.364,2.635c-0.188,0.188-0.293,0.442-0.293,0.707
		s0.105,0.519,0.293,0.707l11.314,11.315c0.187,0.188,0.442,0.293,0.707,0.293s0.519-0.105,0.706-0.293
		c1.999-1.999,2.855-4.712,2.577-7.325l0.253,0.253c0.195,0.195,0.451,0.293,0.707,0.293c0.256,0,0.512-0.097,0.707-0.293
		l4.949-4.949l1.414,1.414l-2.121,2.121c-0.188,0.187-0.293,0.442-0.293,0.707c0,0.265,0.105,0.519,0.293,0.707l11.315,11.314
		c0.187,0.188,0.442,0.293,0.707,0.293s0.519-0.105,0.706-0.294l5.656-5.657C48.097,38.085,48.097,37.453,47.706,37.062z
		 M15.886,16.557L5.988,6.658l4.242-4.243l9.9,9.9L15.886,16.557z M20.079,37.72l-9.799-9.8c1.204-0.903,2.661-1.392,4.193-1.392
		c1.869,0,3.627,0.727,4.949,2.049C21.912,31.067,22.13,34.98,20.079,37.72z M24.373,30.699l-7.072-7.071l4.945-4.944
		c0.002-0.002,0.005-0.003,0.007-0.005c0.002-0.002,0.003-0.005,0.005-0.008l5.65-5.649c0.945-0.945,2.201-1.465,3.536-1.465
		c1.335,0,2.59,0.52,3.534,1.463c0,0.001,0.001,0.001,0.001,0.002c0.001,0.001,0.002,0.001,0.002,0.001
		c1.948,1.949,1.947,5.12-0.001,7.07l-5.657,5.656c0,0-0.001,0-0.001,0.001s0,0.001-0.001,0.001L24.373,30.699z M41.343,42.013
		l-9.9-9.9l2.12-2.119c0,0,0.001-0.001,0.002-0.001c0,0,0.001-0.001,0.001-0.002l2.121-2.12l9.899,9.899L41.343,42.013z"/>
	<path fill="#231F20" d="M12.524,43.963c-1.134,1.132-2.64,1.757-4.243,1.757c-1.603,0-3.109-0.624-4.242-1.757
		c-1.134-1.134-1.758-2.64-1.758-4.243c0-1.603,0.624-3.11,1.758-4.243c0.391-0.39,0.391-1.023,0-1.414s-1.023-0.391-1.414,0
		c-1.511,1.511-2.344,3.52-2.344,5.657c0,2.137,0.833,4.146,2.344,5.657c1.51,1.51,3.519,2.343,5.656,2.343s4.146-0.833,5.657-2.343
		c0.391-0.391,0.391-1.023,0-1.414S12.915,43.572,12.524,43.963z"/>
	<path fill="#231F20" d="M7.816,36.063c-0.391-0.391-1.023-0.391-1.414,0c-0.756,0.755-1.172,1.76-1.172,2.828
		c0,1.069,0.416,2.073,1.172,2.83c0.78,0.778,1.804,1.168,2.828,1.168c1.024,0,2.049-0.39,2.829-1.168
		c0.39-0.391,0.39-1.024,0-1.415c-0.391-0.39-1.024-0.39-1.415,0c-0.779,0.779-2.049,0.778-2.828,0
		c-0.378-0.378-0.586-0.881-0.586-1.415s0.208-1.036,0.586-1.414C8.207,37.087,8.207,36.454,7.816,36.063z"/>
</g>
</svg>
