<?xml version="1.0" encoding="utf-8"?>
<!-- Generator: Adobe Illustrator 17.0.0, SVG Export Plug-In . SVG Version: 6.00 Build 0)  -->
<!DOCTYPE svg PUBLIC "-//W3C//DTD SVG 1.1//EN" "http://www.w3.org/Graphics/SVG/1.1/DTD/svg11.dtd">
<svg version="1.1" xmlns="http://www.w3.org/2000/svg" xmlns:xlink="http://www.w3.org/1999/xlink" x="0px" y="0px" width="48px"
	 height="48px" viewBox="0 0 48 48" enable-background="new 0 0 48 48" xml:space="preserve">
<g id="Layer_3">
	<path fill="#010101" d="M39,0H9C4.037,0,0,4.037,0,9v30c0,4.963,4.037,9,9,9h30c4.963,0,9-4.037,9-9V9C48,4.037,43.963,0,39,0z
		 M41,34H31c-0.266,0-0.52-0.105-0.707-0.293L16.586,20H7c-0.553,0-1-0.447-1-1c0-0.553,0.447-1,1-1h10
		c0.266,0,0.519,0.106,0.707,0.293L31.414,32H41c0.553,0,1,0.447,1,1C42,33.553,41.553,34,41,34z M41,20H29c-0.553,0-1-0.447-1-1
		c0-0.553,0.447-1,1-1h12c0.553,0,1,0.447,1,1C42,19.553,41.553,20,41,20z"/>
</g>
<g id="nyt_x5F_exporter_x5F_info" display="none">
</g>
</svg>
