<?xml version="1.0" encoding="utf-8"?>
<!-- Generator: Adobe Illustrator 17.0.0, SVG Export Plug-In . SVG Version: 6.00 Build 0)  -->
<!DOCTYPE svg PUBLIC "-//W3C//DTD SVG 1.1//EN" "http://www.w3.org/Graphics/SVG/1.1/DTD/svg11.dtd">
<svg version="1.1" xmlns="http://www.w3.org/2000/svg" xmlns:xlink="http://www.w3.org/1999/xlink" x="0px" y="0px" width="48px"
	 height="48px" viewBox="0 0 48 48" enable-background="new 0 0 48 48" xml:space="preserve">
<g id="Layer_3">
	<g>
		<polygon fill="#010101" points="16.754,25 19.246,25 18,20.64 		"/>
		<path fill="#010101" d="M39,0H9C4.037,0,0,4.037,0,9v30c0,4.963,4.037,9,9,9h30c4.963,0,9-4.037,9-9V9C48,4.037,43.963,0,39,0z
			 M22.274,31.962C22.183,31.987,22.091,32,21.999,32c-0.435,0-0.835-0.286-0.961-0.726L19.817,27h-3.634l-1.221,4.274
			c-0.152,0.532-0.71,0.832-1.236,0.688c-0.531-0.152-0.839-0.706-0.688-1.236l4-14C17.161,16.296,17.554,16,18,16
			c0.446,0,0.839,0.296,0.962,0.726l4,14C23.113,31.256,22.806,31.81,22.274,31.962z M27,31c0,0.553-0.447,1-1,1
			c-0.553,0-1-0.447-1-1V17c0-0.553,0.447-1,1-1c0.553,0,1,0.447,1,1V31z M34,30c0.553,0,1,0.447,1,1c0,0.553-0.447,1-1,1
			c-1.654,0-3-1.346-3-3v-8h-1c-0.553,0-1-0.447-1-1c0-0.553,0.447-1,1-1h1v-2c0-0.553,0.447-1,1-1c0.553,0,1,0.447,1,1v2h1
			c0.553,0,1,0.447,1,1c0,0.553-0.447,1-1,1h-1v8C33,29.552,33.448,30,34,30z"/>
	</g>
</g>
<g id="nyt_x5F_exporter_x5F_info" display="none">
</g>
</svg>
