<?xml version="1.0" encoding="utf-8"?>
<!-- Generator: Adobe Illustrator 17.0.0, SVG Export Plug-In . SVG Version: 6.00 Build 0)  -->
<!DOCTYPE svg PUBLIC "-//W3C//DTD SVG 1.1//EN" "http://www.w3.org/Graphics/SVG/1.1/DTD/svg11.dtd">
<svg version="1.1" xmlns="http://www.w3.org/2000/svg" xmlns:xlink="http://www.w3.org/1999/xlink" x="0px" y="0px" width="48px"
	 height="48px" viewBox="0 0 48 48" enable-background="new 0 0 48 48" xml:space="preserve">
<g id="Layer_3">
	<path fill="#010101" d="M35.414,32.586L6.828,4H16c1.104,0,2-0.895,2-2s-0.896-2-2-2H2C1.869,0,1.738,0.014,1.608,0.04
		c-0.06,0.012-0.115,0.034-0.173,0.051c-0.067,0.02-0.135,0.035-0.2,0.062C1.167,0.181,1.105,0.22,1.04,0.256
		C0.99,0.283,0.939,0.305,0.891,0.336c-0.22,0.147-0.408,0.335-0.555,0.555C0.305,0.939,0.283,0.99,0.256,1.04
		C0.22,1.104,0.181,1.167,0.153,1.235c-0.027,0.065-0.042,0.133-0.062,0.2C0.074,1.493,0.051,1.548,0.04,1.609
		C0.014,1.738,0,1.869,0,2v14c0,1.104,0.896,2,2,2s2-0.896,2-2V6.828l28.586,28.586C32.977,35.805,33.488,36,34,36
		s1.023-0.195,1.414-0.586C36.195,34.633,36.195,33.367,35.414,32.586z"/>
</g>
<g id="nyt_x5F_exporter_x5F_info" display="none">
</g>
</svg>
