<?xml version="1.0" encoding="utf-8"?>
<!-- Generator: Adobe Illustrator 17.0.0, SVG Export Plug-In . SVG Version: 6.00 Build 0)  -->
<!DOCTYPE svg PUBLIC "-//W3C//DTD SVG 1.1//EN" "http://www.w3.org/Graphics/SVG/1.1/DTD/svg11.dtd">
<svg version="1.1" xmlns="http://www.w3.org/2000/svg" xmlns:xlink="http://www.w3.org/1999/xlink" x="0px" y="0px" width="48px"
	 height="48px" viewBox="0 0 48 48" enable-background="new 0 0 48 48" xml:space="preserve">
<g id="Layer_3">
	<path fill="#010101" d="M47.96,1.609c-0.012-0.06-0.034-0.115-0.051-0.173c-0.02-0.067-0.035-0.135-0.062-0.2
		c-0.028-0.069-0.067-0.131-0.103-0.196c-0.027-0.049-0.049-0.101-0.08-0.148c-0.147-0.22-0.336-0.408-0.555-0.555
		c-0.047-0.032-0.099-0.053-0.148-0.081c-0.065-0.036-0.127-0.075-0.196-0.103c-0.065-0.027-0.133-0.042-0.2-0.062
		c-0.058-0.017-0.113-0.039-0.173-0.051C46.262,0.014,46.131,0,46,0H32c-1.105,0-2,0.896-2,2s0.895,2,2,2h9.172L12.586,32.586
		c-0.781,0.781-0.781,2.047,0,2.828C12.977,35.805,13.488,36,14,36c0.512,0,1.023-0.195,1.414-0.586L44,6.828V16
		c0,1.104,0.895,2,2,2c1.104,0,2-0.896,2-2V2C48,1.869,47.986,1.738,47.96,1.609z"/>
</g>
<g id="nyt_x5F_exporter_x5F_info" display="none">
</g>
</svg>
