<?xml version="1.0" encoding="utf-8"?>
<!-- Generator: Adobe Illustrator 17.0.0, SVG Export Plug-In . SVG Version: 6.00 Build 0)  -->
<!DOCTYPE svg PUBLIC "-//W3C//DTD SVG 1.1//EN" "http://www.w3.org/Graphics/SVG/1.1/DTD/svg11.dtd">
<svg version="1.1" xmlns="http://www.w3.org/2000/svg" xmlns:xlink="http://www.w3.org/1999/xlink" x="0px" y="0px" width="48px"
	 height="48px" viewBox="0 0 48 48" enable-background="new 0 0 48 48" xml:space="preserve">
<g id="Layer_3">
	<path fill="#010101" d="M35.414,12.586c-0.781-0.781-2.047-0.781-2.828,0L4,41.172V32c0-1.104-0.896-2-2-2c-1.105,0-2,0.896-2,2v14
		c0,0.131,0.014,0.262,0.04,0.391c0.012,0.06,0.034,0.116,0.051,0.173c0.02,0.067,0.035,0.135,0.062,0.2
		c0.028,0.069,0.067,0.131,0.103,0.196c0.027,0.049,0.049,0.101,0.081,0.148c0.147,0.22,0.335,0.408,0.555,0.555
		c0.047,0.032,0.099,0.053,0.148,0.081c0.065,0.036,0.127,0.075,0.196,0.103c0.065,0.027,0.133,0.042,0.2,0.062
		c0.058,0.017,0.113,0.04,0.173,0.051C1.738,47.986,1.869,48,2,48h13c1.104,0,2-0.896,2-2s-0.896-2-2-2H6.828l28.586-28.586
		C36.195,14.633,36.195,13.367,35.414,12.586z"/>
</g>
<g id="nyt_x5F_exporter_x5F_info" display="none">
</g>
</svg>
