<?xml version="1.0" encoding="utf-8"?>
<!-- Generator: Adobe Illustrator 17.0.0, SVG Export Plug-In . SVG Version: 6.00 Build 0)  -->
<!DOCTYPE svg PUBLIC "-//W3C//DTD SVG 1.1//EN" "http://www.w3.org/Graphics/SVG/1.1/DTD/svg11.dtd">
<svg version="1.1" xmlns="http://www.w3.org/2000/svg" xmlns:xlink="http://www.w3.org/1999/xlink" x="0px" y="0px" width="48px"
	 height="48px" viewBox="0 0 48 48" enable-background="new 0 0 48 48" xml:space="preserve">
<g id="Layer_3">
	<path fill="#010101" d="M46,30c-1.105,0-2,0.896-2,2v9.172L15.414,12.586c-0.781-0.781-2.047-0.781-2.828,0
		c-0.781,0.781-0.781,2.047,0,2.828L41.172,44H32c-1.105,0-2,0.896-2,2s0.895,2,2,2h14c0.131,0,0.262-0.014,0.392-0.04
		c0.06-0.012,0.116-0.034,0.173-0.051c0.067-0.02,0.135-0.035,0.2-0.062c0.069-0.028,0.131-0.067,0.196-0.103
		c0.05-0.027,0.101-0.049,0.148-0.081c0.22-0.147,0.408-0.335,0.555-0.555c0.032-0.048,0.053-0.099,0.081-0.148
		c0.036-0.065,0.075-0.127,0.103-0.196c0.027-0.065,0.042-0.133,0.062-0.2c0.017-0.058,0.039-0.113,0.051-0.173
		C47.986,46.262,48,46.131,48,46V32C48,30.896,47.104,30,46,30z"/>
</g>
<g id="nyt_x5F_exporter_x5F_info" display="none">
</g>
</svg>
