<?xml version="1.0" encoding="utf-8"?>
<!-- Generator: Adobe Illustrator 17.0.0, SVG Export Plug-In . SVG Version: 6.00 Build 0)  -->
<!DOCTYPE svg PUBLIC "-//W3C//DTD SVG 1.1//EN" "http://www.w3.org/Graphics/SVG/1.1/DTD/svg11.dtd">
<svg version="1.1" xmlns="http://www.w3.org/2000/svg" xmlns:xlink="http://www.w3.org/1999/xlink" x="0px" y="0px" width="48px"
	 height="48px" viewBox="0 0 48 48" enable-background="new 0 0 48 48" xml:space="preserve">
<g id="Layer_3">
	<path fill="#010101" d="M47,18H34.393l6.304-10.918c0.133-0.229,0.168-0.503,0.1-0.759c-0.068-0.256-0.236-0.475-0.466-0.607
		l-8.66-5c-0.479-0.276-1.09-0.113-1.366,0.366L24,12L17.696,1.082c-0.277-0.479-0.891-0.642-1.366-0.366l-8.66,5
		C7.44,5.849,7.272,6.067,7.204,6.323c-0.068,0.256-0.033,0.529,0.1,0.759L13.607,18H1c-0.553,0-1,0.447-1,1v10c0,0.553,0.447,1,1,1
		h12.607L7.304,40.918c-0.133,0.23-0.168,0.503-0.1,0.759c0.068,0.256,0.236,0.475,0.466,0.607l8.66,5
		c0.476,0.274,1.089,0.112,1.366-0.366L24,36l6.304,10.918c0.186,0.321,0.522,0.5,0.867,0.5c0.17,0,0.342-0.043,0.499-0.134l8.66-5
		c0.229-0.133,0.397-0.352,0.466-0.607c0.068-0.256,0.033-0.529-0.1-0.759L34.393,30H47c0.553,0,1-0.447,1-1V19
		C48,18.447,47.553,18,47,18z"/>
</g>
<g id="nyt_x5F_exporter_x5F_info" display="none">
</g>
</svg>
