<?xml version="1.0" encoding="utf-8"?>
<!-- Generator: Adobe Illustrator 17.0.0, SVG Export Plug-In . SVG Version: 6.00 Build 0)  -->
<!DOCTYPE svg PUBLIC "-//W3C//DTD SVG 1.1//EN" "http://www.w3.org/Graphics/SVG/1.1/DTD/svg11.dtd">
<svg version="1.1" xmlns="http://www.w3.org/2000/svg" xmlns:xlink="http://www.w3.org/1999/xlink" x="0px" y="0px" width="48px"
	 height="48px" viewBox="0 0 48 48" enable-background="new 0 0 48 48" xml:space="preserve">
<g id="Layer_3">
	<path fill="#010101" d="M45.5,21.998H27.399L35.748,6.97c0.537-0.966,0.188-2.184-0.776-2.72c-0.967-0.536-2.185-0.187-2.72,0.776
		L24,19.88L15.748,5.024c-0.535-0.965-1.753-1.314-2.72-0.776c-0.965,0.536-1.314,1.754-0.776,2.72l8.35,15.03H2.5
		c-1.105,0-2,0.896-2,2c0,1.105,0.895,2,2,2h18.102l-8.35,15.03c-0.537,0.966-0.189,2.184,0.776,2.72
		C13.336,43.919,13.67,44,13.998,44c0.703,0,1.385-0.371,1.75-1.028L24,28.116l8.252,14.853c0.365,0.657,1.047,1.028,1.75,1.028
		c0.328,0,0.662-0.081,0.97-0.252c0.965-0.536,1.313-1.754,0.776-2.72l-8.349-15.028H45.5c1.104,0,2-0.895,2-2
		C47.5,22.894,46.604,21.998,45.5,21.998z"/>
</g>
<g id="nyt_x5F_exporter_x5F_info" display="none">
</g>
</svg>
