<?xml version="1.0" encoding="utf-8"?>
<!-- Generator: Adobe Illustrator 17.0.0, SVG Export Plug-In . SVG Version: 6.00 Build 0)  -->
<!DOCTYPE svg PUBLIC "-//W3C//DTD SVG 1.1//EN" "http://www.w3.org/Graphics/SVG/1.1/DTD/svg11.dtd">
<svg version="1.1" xmlns="http://www.w3.org/2000/svg" xmlns:xlink="http://www.w3.org/1999/xlink" x="0px" y="0px" width="48px"
	 height="48px" viewBox="0 0 48 48" enable-background="new 0 0 48 48" xml:space="preserve">
<g id="Layer_3">
	<path fill="#010101" d="M39.002,0h-30c-4.963,0-9,4.037-9,9v30c0,4.963,4.037,9,9,9h30c4.963,0,9-4.037,9-9V9
		C48.002,4.037,43.965,0,39.002,0z M14,29c0,0.553-0.447,1-1,1c-0.553,0-1-0.447-1-1V17c0-0.553,0.447-1,1-1c0.553,0,1,0.447,1,1V29
		z M37,24H21.416l4.293,4.293c0.391,0.391,0.391,1.023,0,1.414C25.514,29.902,25.258,30,25.002,30c-0.256,0-0.512-0.098-0.707-0.293
		L18.3,23.712c-0.096-0.094-0.172-0.208-0.224-0.335c-0.013-0.032-0.011-0.067-0.02-0.101C18.029,23.187,18,23.098,18,23
		c0-0.099,0.029-0.188,0.056-0.278c0.01-0.033,0.007-0.068,0.02-0.099c0.052-0.127,0.128-0.24,0.224-0.335l5.995-5.995
		c0.391-0.391,1.024-0.391,1.414,0c0.391,0.391,0.391,1.023,0,1.414L21.416,22H37c0.553,0,1,0.447,1,1C38,23.553,37.553,24,37,24z"
		/>
</g>
<g id="nyt_x5F_exporter_x5F_info" display="none">
</g>
</svg>
