<?xml version="1.0" encoding="utf-8"?>
<!-- Generator: Adobe Illustrator 17.0.0, SVG Export Plug-In . SVG Version: 6.00 Build 0)  -->
<!DOCTYPE svg PUBLIC "-//W3C//DTD SVG 1.1//EN" "http://www.w3.org/Graphics/SVG/1.1/DTD/svg11.dtd">
<svg version="1.1" xmlns="http://www.w3.org/2000/svg" xmlns:xlink="http://www.w3.org/1999/xlink" x="0px" y="0px" width="48px"
	 height="48px" viewBox="0 0 48 48" enable-background="new 0 0 48 48" xml:space="preserve">
<g id="Layer_3">
	<g>
		<path fill="#010101" d="M39.002,0h-30c-4.963,0-9,4.037-9,9v30c0,4.963,4.037,9,9,9h30c4.963,0,9-4.037,9-9V9
			C48.002,4.037,43.965,0,39.002,0z M38,31c0,0.553-0.447,1-1,1H16.002c-0.266,0-0.52-0.105-0.707-0.293l-7-7
			c-0.391-0.391-0.391-1.023,0-1.414l7-7C15.482,16.106,15.736,16,16.002,16H37c0.553,0,1,0.447,1,1V31z"/>
		<path fill="#010101" d="M29.709,20.293c-0.391-0.391-1.024-0.391-1.414,0l-2.293,2.293l-2.293-2.293
			c-0.391-0.391-1.024-0.391-1.414,0c-0.391,0.391-0.391,1.023,0,1.414L24.588,24l-2.293,2.293c-0.391,0.391-0.391,1.023,0,1.414
			C22.49,27.902,22.746,28,23.002,28c0.256,0,0.512-0.098,0.707-0.293l2.293-2.293l2.293,2.293C28.49,27.902,28.746,28,29.002,28
			c0.256,0,0.512-0.098,0.707-0.293c0.391-0.391,0.391-1.023,0-1.414L27.416,24l2.293-2.293C30.1,21.316,30.1,20.684,29.709,20.293z
			"/>
	</g>
</g>
<g id="nyt_x5F_exporter_x5F_info" display="none">
</g>
</svg>
