<?xml version="1.0" encoding="utf-8"?>
<!-- Generator: Adobe Illustrator 17.0.0, SVG Export Plug-In . SVG Version: 6.00 Build 0)  -->
<!DOCTYPE svg PUBLIC "-//W3C//DTD SVG 1.1//EN" "http://www.w3.org/Graphics/SVG/1.1/DTD/svg11.dtd">
<svg version="1.1" xmlns="http://www.w3.org/2000/svg" xmlns:xlink="http://www.w3.org/1999/xlink" x="0px" y="0px" width="48px"
	 height="48px" viewBox="0 0 48 48" enable-background="new 0 0 48 48" xml:space="preserve">
<g id="Layer_3">
	<path fill="#010101" d="M34,23c1.104,0,2-0.896,2-2s-0.896-2-2-2h-8V6.828l6.586,6.586C32.977,13.805,33.488,14,34,14
		c0.512,0,1.023-0.195,1.414-0.586c0.781-0.781,0.781-2.047,0-2.828l-9.999-9.999c-0.093-0.093-0.196-0.177-0.307-0.251
		c-0.047-0.032-0.099-0.053-0.148-0.081c-0.065-0.036-0.127-0.075-0.196-0.103c-0.065-0.027-0.133-0.042-0.2-0.062
		c-0.058-0.017-0.113-0.039-0.173-0.051c-0.259-0.052-0.525-0.052-0.783,0c-0.06,0.012-0.115,0.034-0.173,0.051
		c-0.067,0.02-0.135,0.035-0.2,0.062c-0.069,0.029-0.131,0.067-0.196,0.103c-0.05,0.027-0.101,0.049-0.148,0.081
		c-0.11,0.074-0.213,0.157-0.307,0.251l-9.999,9.999c-0.781,0.781-0.781,2.047,0,2.828c0.781,0.781,2.047,0.781,2.828,0L22,6.828V19
		h-8c-1.105,0-2,0.896-2,2s0.895,2,2,2h8v2h-8c-1.105,0-2,0.896-2,2s0.895,2,2,2h8v17c0,1.104,0.895,2,2,2c1.104,0,2-0.896,2-2V29h8
		c1.104,0,2-0.896,2-2s-0.896-2-2-2h-8v-2H34z"/>
</g>
<g id="nyt_x5F_exporter_x5F_info" display="none">
</g>
</svg>
