<?xml version="1.0" encoding="utf-8"?>
<!-- Generator: Adobe Illustrator 17.0.0, SVG Export Plug-In . SVG Version: 6.00 Build 0)  -->
<!DOCTYPE svg PUBLIC "-//W3C//DTD SVG 1.1//EN" "http://www.w3.org/Graphics/SVG/1.1/DTD/svg11.dtd">
<svg version="1.1" xmlns="http://www.w3.org/2000/svg" xmlns:xlink="http://www.w3.org/1999/xlink" x="0px" y="0px" width="48px"
	 height="48px" viewBox="0 0 48 48" enable-background="new 0 0 48 48" xml:space="preserve">
<g id="Layer_3">
	<path fill="#010101" d="M32.999,6H24c-1.105,0-2,0.896-2,2c0,1.105,0.895,2,2,2h8.999C39.373,10,44,14.206,44,20
		c0,5.794-4.627,10-11.001,10H6.828l6.586-6.586c0.781-0.781,0.781-2.047,0-2.828c-0.781-0.781-2.047-0.781-2.828,0l-9.999,9.999
		c-0.094,0.093-0.177,0.196-0.251,0.307c-0.032,0.048-0.053,0.099-0.081,0.148c-0.036,0.065-0.075,0.127-0.103,0.196
		c-0.027,0.065-0.042,0.133-0.062,0.2c-0.017,0.058-0.039,0.113-0.051,0.173c-0.052,0.258-0.052,0.525,0,0.783
		c0.012,0.06,0.034,0.115,0.051,0.173c0.02,0.067,0.035,0.135,0.062,0.2c0.029,0.069,0.067,0.131,0.103,0.196
		c0.027,0.049,0.049,0.101,0.081,0.148c0.074,0.11,0.157,0.213,0.251,0.307l9.999,9.999C10.977,43.805,11.488,44,12,44
		c0.512,0,1.023-0.195,1.414-0.586c0.781-0.781,0.781-2.047,0-2.828L6.828,34h26.171C41.551,34,48,27.981,48,20S41.551,6,32.999,6z"
		/>
</g>
<g id="nyt_x5F_exporter_x5F_info" display="none">
</g>
</svg>
