<?xml version="1.0" encoding="utf-8"?>
<!-- Generator: Adobe Illustrator 17.0.0, SVG Export Plug-In . SVG Version: 6.00 Build 0)  -->
<!DOCTYPE svg PUBLIC "-//W3C//DTD SVG 1.1//EN" "http://www.w3.org/Graphics/SVG/1.1/DTD/svg11.dtd">
<svg version="1.1" xmlns="http://www.w3.org/2000/svg" xmlns:xlink="http://www.w3.org/1999/xlink" x="0px" y="0px" width="48px"
	 height="48px" viewBox="0 0 48 48" enable-background="new 0 0 48 48" xml:space="preserve">
<g id="Layer_3">
	<path fill="#010101" d="M47.581,22.173L24.691,0.277c-0.387-0.369-0.996-0.369-1.383,0l-23,22
		c-0.295,0.282-0.389,0.716-0.236,1.095C0.224,23.752,0.592,24,1,24h11v23c0,0.553,0.447,1,1,1h22c0.553,0,1-0.447,1-1V24h11
		c0.007,0,0.015,0,0.019,0c0.553,0,1-0.447,1-1C48.019,22.656,47.846,22.353,47.581,22.173z"/>
</g>
<g id="nyt_x5F_exporter_x5F_info" display="none">
</g>
</svg>
