<?xml version="1.0" encoding="utf-8"?>
<!-- Generator: Adobe Illustrator 17.0.0, SVG Export Plug-In . SVG Version: 6.00 Build 0)  -->
<!DOCTYPE svg PUBLIC "-//W3C//DTD SVG 1.1//EN" "http://www.w3.org/Graphics/SVG/1.1/DTD/svg11.dtd">
<svg version="1.1" xmlns="http://www.w3.org/2000/svg" xmlns:xlink="http://www.w3.org/1999/xlink" x="0px" y="0px" width="48px"
	 height="48px" viewBox="0 0 48 48" enable-background="new 0 0 48 48" xml:space="preserve">
<g id="Layer_3">
	<path fill="#010101" d="M39.002,0h-30c-4.963,0-9,4.037-9,9v30c0,4.963,4.037,9,9,9h30c4.963,0,9-4.037,9-9V9
		C48.002,4.037,43.965,0,39.002,0z M38.021,26c-0.005,0-0.013,0-0.019,0H30v13c0,0.553-0.447,1-1,1H19c-0.553,0-1-0.447-1-1V26
		h-7.998c-0.393,0-0.748-0.229-0.91-0.587c-0.163-0.357-0.101-0.776,0.157-1.071l14-16c0.381-0.436,1.125-0.436,1.506,0
		l13.895,15.879c0.228,0.184,0.372,0.465,0.372,0.779C39.021,25.553,38.574,26,38.021,26z"/>
</g>
<g id="nyt_x5F_exporter_x5F_info" display="none">
</g>
</svg>
