<?xml version="1.0" encoding="utf-8"?>
<!-- Generator: Adobe Illustrator 17.0.0, SVG Export Plug-In . SVG Version: 6.00 Build 0)  -->
<!DOCTYPE svg PUBLIC "-//W3C//DTD SVG 1.1//EN" "http://www.w3.org/Graphics/SVG/1.1/DTD/svg11.dtd">
<svg version="1.1" xmlns="http://www.w3.org/2000/svg" xmlns:xlink="http://www.w3.org/1999/xlink" x="0px" y="0px" width="48px"
	 height="48px" viewBox="0 0 48 48" enable-background="new 0 0 48 48" xml:space="preserve">
<g id="Layer_3">
	<g>
		<path fill="#010101" d="M39.909,21.435c-0.02-0.067-0.035-0.135-0.062-0.2c-0.028-0.069-0.067-0.131-0.103-0.196
			c-0.027-0.049-0.049-0.101-0.081-0.148c-0.074-0.11-0.157-0.213-0.251-0.307L27.414,8.586c-0.781-0.781-2.047-0.781-2.828,0
			c-0.781,0.781-0.781,2.047,0,2.828L33.172,20H2c-1.105,0-2,0.896-2,2s0.895,2,2,2h31.172l-8.586,8.586
			c-0.781,0.781-0.781,2.047,0,2.828C24.977,35.805,25.488,36,26,36c0.512,0,1.023-0.195,1.414-0.586l11.999-11.999
			c0.094-0.093,0.177-0.196,0.251-0.307c0.032-0.048,0.053-0.099,0.081-0.148c0.036-0.065,0.075-0.127,0.103-0.196
			c0.027-0.065,0.042-0.133,0.062-0.2c0.017-0.058,0.039-0.113,0.051-0.173c0.052-0.258,0.052-0.525,0-0.783
			C39.949,21.549,39.926,21.493,39.909,21.435z"/>
		<path fill="#010101" d="M46,8c-1.105,0-2,0.896-2,2v24c0,1.104,0.895,2,2,2c1.104,0,2-0.896,2-2V10C48,8.896,47.104,8,46,8z"/>
	</g>
</g>
<g id="nyt_x5F_exporter_x5F_info" display="none">
</g>
</svg>
