<?xml version="1.0" encoding="utf-8"?>
<!-- Generator: Adobe Illustrator 17.0.0, SVG Export Plug-In . SVG Version: 6.00 Build 0)  -->
<!DOCTYPE svg PUBLIC "-//W3C//DTD SVG 1.1//EN" "http://www.w3.org/Graphics/SVG/1.1/DTD/svg11.dtd">
<svg version="1.1" id="Layer_1" xmlns="http://www.w3.org/2000/svg" xmlns:xlink="http://www.w3.org/1999/xlink" x="0px" y="0px"
	 width="48px" height="48px" viewBox="0 0 48 48" enable-background="new 0 0 48 48" xml:space="preserve">
<path fill="#010101" d="M47.993,32.968c-0.003-0.108-0.018-0.215-0.056-0.319L39,8.817V4.001C39,1.795,37.206,0,35,0H13
	c-2.206,0-4,1.795-4,4.001v4.816L0.063,32.649c-0.038,0.103-0.052,0.21-0.056,0.317C0.007,32.978,0,32.988,0,33v9.001
	C0,44.206,1.794,46,4,46h2v1c0,0.552,0.448,1,1,1s1-0.448,1-1v-1h32v1c0,0.552,0.448,1,1,1s1-0.448,1-1v-1h2
	c2.206,0,4-1.794,4-3.999V33C48,32.989,47.994,32.979,47.993,32.968z M10.693,10h2.253l-0.895,2.684
	c-0.101,0.305-0.05,0.64,0.138,0.901C12.377,13.846,12.679,14,13,14h22c0.007,0,0.013,0,0.02,0c0.552,0,1-0.448,1-1
	c0-0.18-0.048-0.349-0.131-0.495L35.054,10h2.253l2.25,6H8.443L10.693,10z M33.613,12H14.387l1.334-4H32.28L33.613,12z M13,2h22
	c1.103,0,2,0.898,2,2.001V8h-2.612l-0.439-1.316C33.812,6.275,33.431,6,33,6H15c-0.431,0-0.812,0.275-0.949,0.684L13.612,8H11V4.001
	C11,2.898,11.897,2,13,2z M7.693,18h32.614l5.25,14H2.443L7.693,18z M46,42.001C46,43.103,45.103,44,44,44H4
	c-1.103,0-2-0.897-2-1.999V34h44V42.001z"/>
</svg>
