<?xml version="1.0" encoding="utf-8"?>
<!-- Generator: Adobe Illustrator 17.0.0, SVG Export Plug-In . SVG Version: 6.00 Build 0)  -->
<!DOCTYPE svg PUBLIC "-//W3C//DTD SVG 1.1//EN" "http://www.w3.org/Graphics/SVG/1.1/DTD/svg11.dtd">
<svg version="1.1" id="Layer_1" xmlns="http://www.w3.org/2000/svg" xmlns:xlink="http://www.w3.org/1999/xlink" x="0px" y="0px"
	 width="48px" height="48px" viewBox="0 0 48 48" enable-background="new 0 0 48 48" xml:space="preserve">
<path fill="#010101" d="M47,32h-7v-2h2c2.206,0,4-1.794,4-4s-1.794-4-4-4h-2v-2h2c2.206,0,4-1.794,4-4s-1.794-4-4-4H6
	c-2.206,0-4,1.794-4,4s1.794,4,4,4h2v2H6c-2.206,0-4,1.794-4,4s1.794,4,4,4h2v2H1c-0.552,0-1,0.448-1,1v6c0,0.552,0.448,1,1,1h3v7
	c0,0.552,0.448,1,1,1s1-0.448,1-1v-1h36v1c0,0.552,0.448,1,1,1s1-0.448,1-1v-7h3c0.552,0,1-0.448,1-1v-6C48,32.448,47.552,32,47,32z
	 M4,16c0-1.103,0.897-2,2-2h36c1.103,0,2,0.897,2,2s-0.897,2-2,2H6C4.897,18,4,17.103,4,16z M10,20h28v2H10V20z M4,26
	c0-1.103,0.897-2,2-2h36c1.103,0,2,0.897,2,2s-0.897,2-2,2H6C4.897,28,4,27.103,4,26z M10,30h28v2H10V30z M42,44H6v-4h36V44z M46,38
	H2v-4h44V38z"/>
</svg>
