<?xml version="1.0" encoding="utf-8"?>
<!-- Generator: Adobe Illustrator 17.0.0, SVG Export Plug-In . SVG Version: 6.00 Build 0)  -->
<!DOCTYPE svg PUBLIC "-//W3C//DTD SVG 1.1//EN" "http://www.w3.org/Graphics/SVG/1.1/DTD/svg11.dtd">
<svg version="1.1" id="Layer_1" xmlns="http://www.w3.org/2000/svg" xmlns:xlink="http://www.w3.org/1999/xlink" x="0px" y="0px"
	 width="48px" height="48px" viewBox="0 0 48 48" enable-background="new 0 0 48 48" xml:space="preserve">
<path fill="#010101" d="M47,20h-1.384C43.974,11.096,36.906,4.029,28,2.385V1c0-0.552-0.448-1-1-1h-6c-0.552,0-1,0.448-1,1v1.384
	C11.094,4.028,4.024,11.095,2.38,20H1c-0.552,0-1,0.448-1,1v6c0,0.552,0.448,1,1,1h1.378C4.023,36.908,11.093,43.976,20,45.618V47
	c0,0.552,0.448,1,1,1h6c0.552,0,1-0.448,1-1v-1.383c8.905-1.642,15.972-8.71,17.615-17.617H47c0.552,0,1-0.448,1-1v-6
	C48,20.448,47.552,20,47,20z M43.584,20h-9.348c-1.118-2.849-3.387-5.118-6.236-6.236V4.416C35.806,6.009,41.993,12.196,43.584,20z
	 M24,33c-4.962,0-9-4.038-9-9s4.038-9,9-9s9,4.038,9,9S28.962,33,24,33z M26,2v11.191C25.35,13.071,24.684,13,24,13
	s-1.35,0.071-2,0.191V2H26z M20,4.415v9.349c-2.849,1.118-5.118,3.387-6.236,6.236H4.412C6.005,12.196,12.194,6.008,20,4.415z M2,22
	h11.191C13.071,22.65,13,23.316,13,24s0.071,1.35,0.191,2H2V22z M4.41,28h9.354c1.118,2.849,3.387,5.118,6.236,6.236v9.351
	C12.193,41.998,6.002,35.808,4.41,28z M22,46V34.809C22.65,34.929,23.316,35,24,35s1.35-0.071,2-0.191V46H22z M28,43.586v-9.35
	c2.849-1.118,5.118-3.387,6.236-6.236h9.347C41.993,35.807,35.805,41.995,28,43.586z M46,26H34.809C34.929,25.35,35,24.684,35,24
	s-0.071-1.35-0.191-2H46V26z"/>
</svg>
