<?xml version="1.0" encoding="utf-8"?>
<!-- Generator: Adobe Illustrator 17.0.0, SVG Export Plug-In . SVG Version: 6.00 Build 0)  -->
<!DOCTYPE svg PUBLIC "-//W3C//DTD SVG 1.1//EN" "http://www.w3.org/Graphics/SVG/1.1/DTD/svg11.dtd">
<svg version="1.1" id="Layer_1" xmlns="http://www.w3.org/2000/svg" xmlns:xlink="http://www.w3.org/1999/xlink" x="0px" y="0px"
	 width="48px" height="48px" viewBox="0 0 48 48" enable-background="new 0 0 48 48" xml:space="preserve">
<g>
	<path fill="#010101" d="M23,38c8.271,0,15-6.729,15-15c0-5.927-3.447-11.515-8.579-13.906c-0.286-0.133-0.618-0.123-0.896,0.026
		c-0.278,0.149-0.469,0.422-0.515,0.734c-0.247,1.675-1.038,3.477-2.022,4.701C24.746,13.084,24,11.038,24,9
		c0-3.027,2.342-5.826,4.518-7.144c0.41-0.249,0.586-0.754,0.419-1.203c-0.166-0.45-0.626-0.716-1.102-0.639
		C16.712,1.874,8,11.971,8,23C8,31.271,14.729,38,23,38z M24.27,3.035C22.954,4.711,22,6.797,22,9c0,2.938,1.277,5.905,3.334,7.745
		c0.379,0.34,0.954,0.339,1.335-0.001c1.325-1.191,2.46-3.185,3.03-5.238C33.512,13.821,36,18.284,36,23c0,7.169-5.832,13-13,13
		c-7.169,0-13-5.831-13-13C10,14.248,16.017,6.135,24.27,3.035z"/>
	<path fill="#010101" d="M47.978,36.788c-0.117-0.54-0.649-0.884-1.19-0.765l-46,10c-0.54,0.117-0.883,0.65-0.765,1.189
		C0.124,47.681,0.539,48,0.999,48c0.07,0,0.142-0.007,0.214-0.023l46-10C47.753,37.86,48.096,37.327,47.978,36.788z"/>
	<path fill="#010101" d="M0.788,37.977l13.996,3.045c0.071,0.016,0.143,0.023,0.213,0.023c0.46,0,0.875-0.319,0.976-0.788
		c0.117-0.539-0.225-1.072-0.765-1.189L1.212,36.023c-0.536-0.119-1.072,0.225-1.189,0.765C-0.094,37.327,0.248,37.86,0.788,37.977z
		"/>
	<path fill="#010101" d="M47.212,46.022l-14-3.043c-0.542-0.116-1.072,0.226-1.189,0.765c-0.117,0.54,0.225,1.073,0.765,1.19
		l14,3.043C46.859,47.993,46.931,48,47.001,48c0.46,0,0.874-0.319,0.976-0.789C48.094,46.672,47.752,46.139,47.212,46.022z"/>
</g>
</svg>
