<?xml version="1.0" encoding="utf-8"?>
<!-- Generator: Adobe Illustrator 17.0.0, SVG Export Plug-In . SVG Version: 6.00 Build 0)  -->
<!DOCTYPE svg PUBLIC "-//W3C//DTD SVG 1.1//EN" "http://www.w3.org/Graphics/SVG/1.1/DTD/svg11.dtd">
<svg version="1.1" id="Layer_1" xmlns="http://www.w3.org/2000/svg" xmlns:xlink="http://www.w3.org/1999/xlink" x="0px" y="0px"
	 width="48px" height="48px" viewBox="0 0 48 48" enable-background="new 0 0 48 48" xml:space="preserve">
<g>
	<path fill="#010101" d="M32.816,26.017l-16,3C16.343,29.106,16,29.519,16,30v17c0,0.552,0.448,1,1,1h16c0.552,0,1-0.448,1-1V27
		c0-0.297-0.132-0.58-0.361-0.77C33.41,26.04,33.105,25.962,32.816,26.017z M32,46H18V30.83l14-2.625V46z"/>
	<path fill="#010101" d="M25,24c4.962,0,9-4.038,9-9c0-6.993-5.063-13.43-11.776-14.976c-0.458-0.105-0.935,0.126-1.133,0.558
		c-0.198,0.432-0.066,0.942,0.316,1.223c2.678,1.97,2.889,5.42,2.261,7.513c-0.377-0.438-0.613-0.89-0.675-1.431
		c-0.035-0.31-0.212-0.585-0.479-0.745c-0.266-0.161-0.593-0.186-0.882-0.072C18.053,8.488,16,11.378,16,15
		C16,19.962,20.038,24,25,24z M21.359,9.403c0.442,0.979,1.21,1.716,2.007,2.371c0.22,0.18,0.505,0.258,0.784,0.216
		c0.28-0.043,0.529-0.202,0.685-0.438c1.256-1.903,1.616-5.377,0.262-8.281C29.196,5.589,32,10.14,32,15c0,3.86-3.14,7-7,7
		s-7-3.14-7-7C18,12.556,19.183,10.602,21.359,9.403z"/>
</g>
</svg>
