<?xml version="1.0" encoding="utf-8"?>
<!-- Generator: Adobe Illustrator 17.0.0, SVG Export Plug-In . SVG Version: 6.00 Build 0)  -->
<!DOCTYPE svg PUBLIC "-//W3C//DTD SVG 1.1//EN" "http://www.w3.org/Graphics/SVG/1.1/DTD/svg11.dtd">
<svg version="1.1" id="Layer_1" xmlns="http://www.w3.org/2000/svg" xmlns:xlink="http://www.w3.org/1999/xlink" x="0px" y="0px"
	 width="48px" height="48px" viewBox="0 0 48 48" enable-background="new 0 0 48 48" xml:space="preserve">
<g>
	<path fill="#010101" d="M47.811,6.416C47.623,6.154,47.321,6,47,6H14c-3.309,0-6,2.691-6,6v9c0,0.552,0.447,1,1,1h1.086
		c0.407,2.299,2.413,4,4.914,4h24c0.553,0,1-0.448,1-1v-9.531l5.274-1.507c0.318-0.091,0.57-0.332,0.674-0.645l2-6
		C48.05,7.012,47.999,6.677,47.811,6.416z M38,24H15c-1.391,0-2.491-0.82-2.858-2H31c0.553,0,1-0.448,1-1v-3.246l6-1.714V24z
		 M44.218,12.184l-13.492,3.855C30.296,16.161,30,16.554,30,17v3H10v-8c0-2.206,1.794-4,4-4h31.612L44.218,12.184z"/>
	<path fill="#010101" d="M43,17c-0.553,0-1,0.448-1,1v4c0,0.552,0.447,1,1,1s1-0.448,1-1v-4C44,17.448,43.553,17,43,17z"/>
	<path fill="#010101" d="M25,28h-8c-0.553,0-1,0.448-1,1s0.447,1,1,1h3v8.18l-18,3.6V39c0-0.552-0.447-1-1-1s-1,0.448-1,1v8
		c0,0.552,0.447,1,1,1s1-0.448,1-1v-3.18l19.196-3.839C21.663,39.887,22,39.477,22,39v-9h3c0.553,0,1-0.448,1-1S25.553,28,25,28z"/>
</g>
</svg>
