<?xml version="1.0" encoding="utf-8"?>
<!-- Generator: Adobe Illustrator 17.0.0, SVG Export Plug-In . SVG Version: 6.00 Build 0)  -->
<!DOCTYPE svg PUBLIC "-//W3C//DTD SVG 1.1//EN" "http://www.w3.org/Graphics/SVG/1.1/DTD/svg11.dtd">
<svg version="1.1" id="Layer_1" xmlns="http://www.w3.org/2000/svg" xmlns:xlink="http://www.w3.org/1999/xlink" x="0px" y="0px"
	 width="48px" height="48px" viewBox="0 0 48 48" enable-background="new 0 0 48 48" xml:space="preserve">
<g>
	<path fill="#010101" d="M19,30c-0.553,0-1,0.448-1,1v6c0,2.757-2.243,5-5,5H2v-3c0-0.552-0.447-1-1-1s-1,0.448-1,1v8
		c0,0.552,0.447,1,1,1s1-0.448,1-1v-3h11c3.859,0,7-3.14,7-7v-6C20,30.448,19.553,30,19,30z"/>
	<path fill="#010101" d="M47,4H9c-4.963,0-9,4.038-9,9v6c0,4.962,4.037,9,9,9h27c1.991,0,4-1.546,4-5h3c0.553,0,1-0.448,1-1v-8.946
		l3.53-2.206C47.822,10.665,48,10.345,48,10V5C48,4.448,47.553,4,47,4z M42,21h-2v-5.446l2-1.25V21z M46,9.446l-7.53,4.706
		C38.178,14.335,38,14.655,38,15v8c0,1.878-0.748,3-2,3H9c-3.519,0-6.432-2.613-6.92-6H11c0.553,0,1-0.448,1-1s-0.447-1-1-1H2v-4h7
		c0.553,0,1-0.448,1-1s-0.447-1-1-1H2.08C2.568,8.613,5.481,6,9,6h37V9.446z"/>
	<path fill="#010101" d="M20,23c2.206,0,4-1.794,4-4s-1.794-4-4-4s-4,1.794-4,4S17.794,23,20,23z M20,17c1.102,0,2,0.897,2,2
		s-0.898,2-2,2c-1.103,0-2-0.897-2-2S18.897,17,20,17z"/>
</g>
</svg>
