<?xml version="1.0" encoding="utf-8"?>
<!-- Generator: Adobe Illustrator 17.0.0, SVG Export Plug-In . SVG Version: 6.00 Build 0)  -->
<!DOCTYPE svg PUBLIC "-//W3C//DTD SVG 1.1//EN" "http://www.w3.org/Graphics/SVG/1.1/DTD/svg11.dtd">
<svg version="1.1" id="Layer_1" xmlns="http://www.w3.org/2000/svg" xmlns:xlink="http://www.w3.org/1999/xlink" x="0px" y="0px"
	 width="48px" height="48px" viewBox="0 0 48 48" enable-background="new 0 0 48 48" xml:space="preserve">
<path fill="#010101" d="M39.927,30.638c-0.009-0.024-0.022-0.045-0.033-0.068c-0.02-0.042-0.035-0.086-0.061-0.125L36,24.695V1
	c0-0.552-0.448-1-1-1s-1,0.448-1,1v1H14V1c0-0.552-0.448-1-1-1s-1,0.448-1,1v23.698l-3.832,5.748
	c-0.025,0.037-0.038,0.078-0.057,0.117c-0.013,0.027-0.028,0.052-0.039,0.08c-0.042,0.11-0.067,0.224-0.069,0.34
	C8.003,30.989,8,30.994,8,31v4v12c0,0.552,0.448,1,1,1s1-0.448,1-1V36h2v3c0,0.552,0.448,1,1,1s1-0.448,1-1v-3h20v3
	c0,0.552,0.448,1,1,1s1-0.448,1-1v-3h2v11c0,0.552,0.448,1,1,1s1-0.448,1-1V35v-4c0-0.005-0.003-0.009-0.003-0.014
	C39.996,30.867,39.971,30.75,39.927,30.638z M34,18H14v-4h20V18z M34,12H14v-2h20V12z M14,20h20v4H14V20z M34,4v4H14V4H34z
	 M13.536,26h20.93l2.666,4H10.869L13.536,26z M10,32h28v2H10V32z"/>
</svg>
