<?xml version="1.0" encoding="utf-8"?>
<!-- Generator: Adobe Illustrator 17.0.0, SVG Export Plug-In . SVG Version: 6.00 Build 0)  -->
<!DOCTYPE svg PUBLIC "-//W3C//DTD SVG 1.1//EN" "http://www.w3.org/Graphics/SVG/1.1/DTD/svg11.dtd">
<svg version="1.1" id="Layer_1" xmlns="http://www.w3.org/2000/svg" xmlns:xlink="http://www.w3.org/1999/xlink" x="0px" y="0px"
	 width="48px" height="48px" viewBox="0 0 48 48" enable-background="new 0 0 48 48" xml:space="preserve">
<path fill="#010101" d="M47,10H37V7.859c1.721-0.447,3-1.999,3-3.858C40,1.795,38.206,0,36,0s-4,1.795-4,4.001
	c0,1.859,1.279,3.411,3,3.858V10H13V7.859c1.721-0.447,3-1.999,3-3.858C16,1.795,14.206,0,12,0S8,1.795,8,4.001
	c0,1.859,1.279,3.411,3,3.858V10H1c-0.553,0-1,0.448-1,1v14c0,0.552,0.447,1,1,1h3v21c0,0.552,0.447,1,1,1s1-0.448,1-1V26h36v21
	c0,0.552,0.447,1,1,1s1-0.448,1-1V26h3c0.553,0,1-0.448,1-1V11C48,10.448,47.553,10,47,10z M34,4.001C34,2.898,34.897,2,36,2
	c1.102,0,2,0.898,2,2.001c0,1.103-0.898,2-2,2C34.897,6.001,34,5.104,34,4.001z M10,4.001C10,2.898,10.897,2,12,2
	c1.102,0,2,0.898,2,2.001c0,1.103-0.898,2-2,2C10.897,6.001,10,5.104,10,4.001z M3.416,24l12-12h7.172l-12,12H3.416z M25.416,12
	h9.172l-12,12h-9.172L25.416,12z M37.416,12h7.172l-12,12h-7.172L37.416,12z M12.587,12L2,22.587V12H12.587z M35.415,24L46,13.415
	V24H35.415z"/>
</svg>
