<?xml version="1.0" encoding="utf-8"?>
<!-- Generator: Adobe Illustrator 17.0.0, SVG Export Plug-In . SVG Version: 6.00 Build 0)  -->
<!DOCTYPE svg PUBLIC "-//W3C//DTD SVG 1.1//EN" "http://www.w3.org/Graphics/SVG/1.1/DTD/svg11.dtd">
<svg version="1.1" id="Layer_1" xmlns="http://www.w3.org/2000/svg" xmlns:xlink="http://www.w3.org/1999/xlink" x="0px" y="0px"
	 width="48px" height="48px" viewBox="0 0 48 48" enable-background="new 0 0 48 48" xml:space="preserve">
<path fill="#010101" d="M48,15.001C48,15,48,15,48,14.999c0-0.006-0.003-0.011-0.003-0.017c-0.002-0.112-0.026-0.222-0.066-0.328
	c-0.016-0.043-0.038-0.08-0.06-0.12c-0.02-0.038-0.032-0.08-0.058-0.115l-10-14.001c-0.051-0.072-0.113-0.134-0.179-0.189
	c-0.009-0.008-0.02-0.013-0.03-0.02c-0.092-0.071-0.196-0.124-0.307-0.159c-0.009-0.003-0.014-0.009-0.023-0.012
	c-0.004-0.001-0.008,0-0.011-0.001C37.178,0.014,37.09-0.001,37-0.001H11c-0.091,0-0.178,0.015-0.263,0.038
	c-0.004,0.001-0.007,0-0.011,0.001c-0.008,0.002-0.014,0.009-0.022,0.011c-0.112,0.035-0.216,0.089-0.309,0.16
	c-0.009,0.007-0.02,0.012-0.029,0.02c-0.067,0.055-0.128,0.117-0.18,0.189l-10,14.001C0.159,14.457,0.146,14.5,0.125,14.54
	c-0.019,0.037-0.04,0.071-0.055,0.11c-0.086,0.228-0.085,0.476,0.002,0.704c0.013,0.033,0.03,0.061,0.046,0.092
	c0.023,0.046,0.038,0.094,0.069,0.137l23,32c0.055,0.076,0.121,0.139,0.192,0.196c0.02,0.016,0.041,0.027,0.062,0.041
	c0.06,0.041,0.124,0.075,0.192,0.102c0.026,0.01,0.051,0.021,0.079,0.029C23.805,47.981,23.901,48,24,48s0.195-0.019,0.288-0.048
	c0.027-0.008,0.053-0.019,0.079-0.029c0.067-0.027,0.131-0.061,0.191-0.101c0.021-0.014,0.043-0.027,0.064-0.043
	c0.071-0.056,0.136-0.12,0.191-0.195l0.012-0.017c0,0,0,0,0-0.001l22.987-31.982c0.029-0.041,0.044-0.088,0.066-0.131
	c0.018-0.034,0.037-0.065,0.051-0.101C47.972,15.238,48,15.121,48,15.001z M10.608,3.269l3.065,10.73H2.944L10.608,3.269z
	 M31.681,15.999L24,43.307l-7.681-27.308H31.681z M16.832,13.999L24,2.848l7.168,11.151H16.832z M25.831,1.999h9.843L32.645,12.6
	L25.831,1.999z M15.355,12.6L12.326,1.999h9.843L15.355,12.6z M14.242,15.999l7.259,25.811L2.949,15.999H14.242z M33.758,15.999
	h11.291L26.499,41.81L33.758,15.999z M34.327,13.999l3.065-10.73l7.664,10.73H34.327z"/>
</svg>
