<?xml version="1.0" encoding="utf-8"?>
<!-- Generator: Adobe Illustrator 17.0.0, SVG Export Plug-In . SVG Version: 6.00 Build 0)  -->
<!DOCTYPE svg PUBLIC "-//W3C//DTD SVG 1.1//EN" "http://www.w3.org/Graphics/SVG/1.1/DTD/svg11.dtd">
<svg version="1.1" id="Layer_1" xmlns="http://www.w3.org/2000/svg" xmlns:xlink="http://www.w3.org/1999/xlink" x="0px" y="0px"
	 width="48px" height="48px" viewBox="0 0 48 48" enable-background="new 0 0 48 48" xml:space="preserve">
<g>
	<path fill="#010101" d="M42,42h-4V1c0-0.552-0.447-1-1-1H11c-0.553,0-1,0.448-1,1v41H6c-0.553,0-1,0.448-1,1v4c0,0.552,0.447,1,1,1
		h36c0.553,0,1-0.448,1-1v-4C43,42.448,42.553,42,42,42z M12,2h24v40H12V2z M41,46H7v-2h4h26h4V46z"/>
	<path fill="#010101" d="M33.165,17.013c-0.546-0.093-1.037,0.27-1.138,0.805c-0.1,0.536,0.258,1.055,0.792,1.165
		c0.074,0.016,0.179,0.062,0.181,0.02V25c-0.553,0-1,0.448-1,1s0.447,1,1,1c0.97,0,2-0.701,2-2v-6
		C35,17.846,34.049,17.161,33.165,17.013z"/>
</g>
</svg>
