<?xml version="1.0" encoding="utf-8"?>
<!-- Generator: Adobe Illustrator 17.0.0, SVG Export Plug-In . SVG Version: 6.00 Build 0)  -->
<!DOCTYPE svg PUBLIC "-//W3C//DTD SVG 1.1//EN" "http://www.w3.org/Graphics/SVG/1.1/DTD/svg11.dtd">
<svg version="1.1" id="Layer_1" xmlns="http://www.w3.org/2000/svg" xmlns:xlink="http://www.w3.org/1999/xlink" x="0px" y="0px"
	 width="48px" height="48px" viewBox="0 0 48 48" enable-background="new 0 0 48 48" xml:space="preserve">
<g>
	<path fill="#010101" d="M47,8H1C0.447,8,0,8.448,0,9v6c0,0.552,0.447,1,1,1h1v27v4c0,0.552,0.447,1,1,1s1-0.448,1-1v-3h40v3
		c0,0.552,0.447,1,1,1s1-0.448,1-1v-4V16h1c0.553,0,1-0.448,1-1V9C48,8.448,47.553,8,47,8z M44,42H4V16h40V42z M46,14h-1H3H2v-4h44
		V14z"/>
	<path fill="#010101" d="M7,40h34c0.553,0,1-0.448,1-1v-8c0-0.552-0.447-1-1-1H7c-0.553,0-1,0.448-1,1v8C6,39.552,6.447,40,7,40z
		 M8,32h32v6H8V32z"/>
	<path fill="#010101" d="M27,28h14c0.553,0,1-0.448,1-1v-8c0-0.552-0.447-1-1-1H27c-0.553,0-1,0.448-1,1v8
		C26,27.552,26.447,28,27,28z M28,20h12v6H28V20z"/>
	<path fill="#010101" d="M7,28h14c0.553,0,1-0.448,1-1v-8c0-0.552-0.447-1-1-1H7c-0.553,0-1,0.448-1,1v8C6,27.552,6.447,28,7,28z
		 M8,20h12v6H8V20z"/>
	<circle fill="#010101" cx="24" cy="35" r="1"/>
	<circle fill="#010101" cx="14" cy="23" r="1"/>
	<circle fill="#010101" cx="34" cy="23" r="1"/>
</g>
</svg>
