<?xml version="1.0" encoding="utf-8"?>
<!-- Generator: Adobe Illustrator 17.0.0, SVG Export Plug-In . SVG Version: 6.00 Build 0)  -->
<!DOCTYPE svg PUBLIC "-//W3C//DTD SVG 1.1//EN" "http://www.w3.org/Graphics/SVG/1.1/DTD/svg11.dtd">
<svg version="1.1" id="Layer_1" xmlns="http://www.w3.org/2000/svg" xmlns:xlink="http://www.w3.org/1999/xlink" x="0px" y="0px"
	 width="48px" height="48px" viewBox="0 0 48 48" enable-background="new 0 0 48 48" xml:space="preserve">
<path fill="#010101" d="M41.659,0.248c-0.217-0.19-0.503-0.278-0.791-0.239l-15,2C25.371,2.075,25,2.499,25,3v1h-3h-3.787
	L9.406,0.086C8.9-0.139,8.31,0.089,8.086,0.594s0.003,1.096,0.508,1.32l5.866,2.607C9.568,6.02,6,10.58,6,15.957V41
	c0,0.552,0.448,1,1,1s1-0.448,1-1V15.957c0-5.155,3.938-9.407,9-9.907v2.537c-2.978,1.208-5,4.156-5,7.413v31c0,0.552,0.448,1,1,1
	h14c0.552,0,1-0.448,1-1V16c0-3.256-2.022-6.203-5-7.413V6h2v1c0,0.501,0.371,0.925,0.868,0.991l15,2C40.912,9.997,40.956,10,41,10
	c0.241,0,0.475-0.087,0.659-0.248C41.875,9.563,42,9.288,42,9V1C42,0.712,41.875,0.438,41.659,0.248z M26,40h-4V20h4V40z M26,16v2
	h-5c-0.552,0-1,0.448-1,1v22c0,0.552,0.448,1,1,1h5v4H14V16c0-2.633,1.762-4.997,4.285-5.747C18.709,10.127,19,9.737,19,9.295V6h2
	v3.295c0,0.442,0.29,0.832,0.714,0.958C24.238,11.005,26,13.368,26,16z M40,7.858L27,6.125V3.876l13-1.734V7.858z"/>
</svg>
