<?xml version="1.0" encoding="utf-8"?>
<!-- Generator: Adobe Illustrator 17.0.0, SVG Export Plug-In . SVG Version: 6.00 Build 0)  -->
<!DOCTYPE svg PUBLIC "-//W3C//DTD SVG 1.1//EN" "http://www.w3.org/Graphics/SVG/1.1/DTD/svg11.dtd">
<svg version="1.1" id="Layer_1" xmlns="http://www.w3.org/2000/svg" xmlns:xlink="http://www.w3.org/1999/xlink" x="0px" y="0px"
	 width="48px" height="48px" viewBox="0 0 48 48" enable-background="new 0 0 48 48" xml:space="preserve">
<path fill="#010101" d="M47,16h-4h-8c-2.415,0-4.434,1.721-4.899,4H26v-3c0-0.552-0.448-1-1-1h-6c-0.552,0-1,0.448-1,1v3H4
	c-2.206,0-4,1.794-4,4v6c0,2.206,1.794,4,4,4h26.101c0.465,2.279,2.484,4,4.899,4h8h4c0.552,0,1-0.448,1-1V17
	C48,16.448,47.552,16,47,16z M20,18h4v2h-4V18z M2,30v-6c0-1.103,0.897-2,2-2h26v10H4C2.897,32,2,31.103,2,30z M32,33V21
	c0-1.654,1.346-3,3-3h7v18h-7C33.346,36,32,34.654,32,33z M46,36h-2V18h2V36z"/>
</svg>
