<?xml version="1.0" encoding="utf-8"?>
<!-- Generator: Adobe Illustrator 17.0.0, SVG Export Plug-In . SVG Version: 6.00 Build 0)  -->
<!DOCTYPE svg PUBLIC "-//W3C//DTD SVG 1.1//EN" "http://www.w3.org/Graphics/SVG/1.1/DTD/svg11.dtd">
<svg version="1.1" id="Layer_1" xmlns="http://www.w3.org/2000/svg" xmlns:xlink="http://www.w3.org/1999/xlink" x="0px" y="0px"
	 width="48px" height="48px" viewBox="0 0 48 48" enable-background="new 0 0 48 48" xml:space="preserve">
<path fill="#010101" d="M47,14h-3v-1v-2c0-0.552-0.448-1-1-1s-1,0.448-1,1v1H32H18h-6V9c0-0.552-0.448-1-1-1H7C6.448,8,6,8.448,6,9
	v3H5c-2.757,0-5,2.243-5,5v10c0,0.431,0.275,0.813,0.684,0.949c2.932,0.977,4.637,3.989,3.968,7.007L2.024,46.783
	c-0.066,0.296,0.007,0.606,0.196,0.843C2.41,47.862,2.697,48,3,48h12h4c0.552,0,1-0.448,1-1s-0.448-1-1-1h-2.754l2.222-10H27
	c0.431,0,0.812-0.275,0.948-0.683L29.72,30H43c0.552,0,1-0.448,1-1v-7h3c0.552,0,1-0.448,1-1v-6C48,14.448,47.552,14,47,14z M31,14
	v2H19v-2H31z M8,10h2v2H8V10z M5,14h2h4h6v3c0,0.552,0.448,1,1,1h14c0.552,0,1-0.448,1-1v-3h9v1v6v1H2v-5C2,15.346,3.346,14,5,14z
	 M26.279,34h-7.366l0.889-4h7.81L26.279,34z M19,28c-0.469,0-0.875,0.326-0.976,0.783L14.198,46H4.247l2.357-10.61
	c0.839-3.782-1.12-7.556-4.604-9.076V24h40v4H19z M46,20h-2v-4h2V20z"/>
</svg>
