<?xml version="1.0" encoding="utf-8"?>
<!-- Generator: Adobe Illustrator 17.0.0, SVG Export Plug-In . SVG Version: 6.00 Build 0)  -->
<!DOCTYPE svg PUBLIC "-//W3C//DTD SVG 1.1//EN" "http://www.w3.org/Graphics/SVG/1.1/DTD/svg11.dtd">
<svg version="1.1" id="Layer_1" xmlns="http://www.w3.org/2000/svg" xmlns:xlink="http://www.w3.org/1999/xlink" x="0px" y="0px"
	 width="48px" height="48px" viewBox="0 0 48 48" enable-background="new 0 0 48 48" xml:space="preserve">
<path fill="#010101" d="M24.767,2.018V1c0-0.552-0.447-1-1-1c-0.553,0-1,0.448-1,1v1.03C10.273,2.628,1,12.302,1,25
	c0,0.552,0.447,1,1,1h20v20h-4.233c-0.553,0-1,0.448-1,1s0.447,1,1,1H29c0.553,0,1-0.448,1-1s-0.447-1-1-1h-5V26h4v5
	c0,0.552,0.447,1,1,1s1-0.448,1-1v-5h16c0.553,0,1-0.448,1-1C47,12.146,37.495,2.397,24.767,2.018z M3.021,24
	C3.508,12.528,12.363,4,24,4s20.492,8.528,20.978,20H3.021z"/>
</svg>
