<?xml version="1.0" encoding="utf-8"?>
<!-- Generator: Adobe Illustrator 17.0.0, SVG Export Plug-In . SVG Version: 6.00 Build 0)  -->
<!DOCTYPE svg PUBLIC "-//W3C//DTD SVG 1.1//EN" "http://www.w3.org/Graphics/SVG/1.1/DTD/svg11.dtd">
<svg version="1.1" id="Layer_1" xmlns="http://www.w3.org/2000/svg" xmlns:xlink="http://www.w3.org/1999/xlink" x="0px" y="0px"
	 width="48px" height="48px" viewBox="0 0 48 48" enable-background="new 0 0 48 48" xml:space="preserve">
<path fill="#010101" d="M37.988,2.848C37.913,2.36,37.493,2,37,2H25V1c0-0.552-0.447-1-1-1s-1,0.448-1,1v1H11
	c-0.493,0-0.913,0.36-0.988,0.848l-4,26c-0.045,0.288,0.039,0.581,0.229,0.803S6.708,30,7,30h16v16h-5c-0.553,0-1,0.448-1,1
	s0.447,1,1,1h12c0.553,0,1-0.448,1-1s-0.447-1-1-1h-5V30h2v5c0,0.552,0.447,1,1,1s1-0.448,1-1v-5h12
	c0.292,0,0.569-0.127,0.759-0.349c0.19-0.221,0.274-0.515,0.229-0.803L37.988,2.848z M8.166,28l3.692-24h24.284l3.692,24H8.166z"/>
</svg>
