<?xml version="1.0" encoding="utf-8"?>
<!-- Generator: Adobe Illustrator 17.0.0, SVG Export Plug-In . SVG Version: 6.00 Build 0)  -->
<!DOCTYPE svg PUBLIC "-//W3C//DTD SVG 1.1//EN" "http://www.w3.org/Graphics/SVG/1.1/DTD/svg11.dtd">
<svg version="1.1" id="Layer_1" xmlns="http://www.w3.org/2000/svg" xmlns:xlink="http://www.w3.org/1999/xlink" x="0px" y="0px"
	 width="48px" height="48px" viewBox="0 0 48 48" enable-background="new 0 0 48 48" xml:space="preserve">
<path fill="#010101" d="M47,46h-5V25c0-10.139-7.989-18.424-18-18.949V6c0-3.309-2.691-6.001-6-6.001S12,2.691,12,6v4.351
	C7.118,12.663,4,17.557,4,23v4c0,0.552,0.447,1,1,1h26c0.553,0,1-0.448,1-1v-4c0-5.442-3.118-10.335-8-12.649v-2.3
	C32.908,8.573,40,15.964,40,25v21h-9c-0.553,0-1,0.448-1,1s0.447,1,1,1h16c0.553,0,1-0.448,1-1S47.553,46,47,46z M30,23v3H6v-3
	c0-4.859,2.898-9.207,7.385-11.077C13.758,11.768,14,11.404,14,11V6c0-2.206,1.794-4.001,4-4.001S22,3.794,22,6v5
	c0,0.403,0.242,0.768,0.615,0.923C27.102,13.794,30,18.143,30,23z"/>
</svg>
