<?xml version="1.0" encoding="utf-8"?>
<!-- Generator: Adobe Illustrator 17.0.0, SVG Export Plug-In . SVG Version: 6.00 Build 0)  -->
<!DOCTYPE svg PUBLIC "-//W3C//DTD SVG 1.1//EN" "http://www.w3.org/Graphics/SVG/1.1/DTD/svg11.dtd">
<svg version="1.1" id="Layer_1" xmlns="http://www.w3.org/2000/svg" xmlns:xlink="http://www.w3.org/1999/xlink" x="0px" y="0px"
	 width="48px" height="48px" viewBox="0 0 48 48" enable-background="new 0 0 48 48" xml:space="preserve">
<path fill="#010101" d="M27,2h-2V1c0-0.552-0.447-1-1-1s-1,0.448-1,1v1h-2C11.626,2,4,9.626,4,19v6c0,0.404,0.243,0.769,0.617,0.924
	c0.374,0.155,0.804,0.069,1.09-0.217L8,23.414l2.293,2.293c0.391,0.391,1.023,0.391,1.414,0L14,23.414l2.293,2.293
	c0.391,0.391,1.023,0.391,1.414,0L20,23.414l3,3V46h-5c-0.553,0-1,0.448-1,1s0.447,1,1,1h12c0.553,0,1-0.448,1-1s-0.447-1-1-1h-5
	V26.414l3-3V34c0,0.552,0.447,1,1,1s1-0.448,1-1v-8.586l0.293,0.293c0.391,0.391,1.023,0.391,1.414,0L34,23.414l2.293,2.293
	c0.391,0.391,1.023,0.391,1.414,0L40,23.414l2.293,2.293c0.287,0.287,0.717,0.372,1.09,0.217C43.757,25.769,44,25.404,44,25v-6
	C44,9.626,36.374,2,27,2z M42,22.586l-1.293-1.293c-0.391-0.391-1.023-0.391-1.414,0L37,23.586l-2.293-2.293
	c-0.391-0.391-1.023-0.391-1.414,0L31,23.586l-1.292-1.292c-0.001-0.001-0.002-0.002-0.002-0.002l-0.999-0.999
	c-0.391-0.391-1.023-0.391-1.414,0L24,24.586l-3.293-3.293C20.512,21.098,20.256,21,20,21s-0.512,0.098-0.707,0.293L17,23.586
	l-2.293-2.293c-0.391-0.391-1.023-0.391-1.414,0L11,23.586l-2.293-2.293c-0.391-0.391-1.023-0.391-1.414,0L6,22.586V19
	c0-8.271,6.728-15,15-15h6c8.271,0,15,6.729,15,15V22.586z"/>
</svg>
