<?xml version="1.0" encoding="utf-8"?>
<!-- Generator: Adobe Illustrator 17.0.0, SVG Export Plug-In . SVG Version: 6.00 Build 0)  -->
<!DOCTYPE svg PUBLIC "-//W3C//DTD SVG 1.1//EN" "http://www.w3.org/Graphics/SVG/1.1/DTD/svg11.dtd">
<svg version="1.1" id="Layer_1" xmlns="http://www.w3.org/2000/svg" xmlns:xlink="http://www.w3.org/1999/xlink" x="0px" y="0px"
	 width="48px" height="48px" viewBox="0 0 48 48" enable-background="new 0 0 48 48" xml:space="preserve">
<g>
	<path fill="#010101" d="M24,0C14.626,0,7,7.626,7,17c0,9.375,7.626,17.001,17,17.001S41,26.375,41,17C41,7.626,33.374,0,24,0z
		 M25,31.95v-6.536l1.293,1.293C26.488,26.902,26.744,27,27,27s0.512-0.098,0.707-0.293l3-3c0.391-0.391,0.391-1.023,0-1.414
		c-0.391-0.391-1.023-0.391-1.414,0L27,24.586l-2.293-2.293c-0.092-0.092-0.203-0.165-0.325-0.216c-0.245-0.102-0.52-0.102-0.765,0
		c-0.122,0.051-0.233,0.124-0.325,0.216L21,24.586l-1.793-1.793c-0.391-0.391-1.023-0.391-1.414,0c-0.391,0.391-0.391,1.023,0,1.414
		l2.5,2.5c0.391,0.391,1.023,0.391,1.414,0L23,25.414v6.536C15.195,31.432,9,24.934,9,17C9,8.729,15.729,2,24,2s15,6.729,15,15
		C39,24.934,32.805,31.432,25,31.95z"/>
	<path fill="#010101" d="M29,36H19c-0.552,0-1,0.448-1,1s0.448,1,1,1h10c0.552,0,1-0.448,1-1S29.552,36,29,36z"/>
	<path fill="#010101" d="M29,40H19c-0.552,0-1,0.448-1,1s0.448,1,1,1h10c0.552,0,1-0.448,1-1S29.552,40,29,40z"/>
	<path fill="#010101" d="M29,44H19c-0.552,0-1,0.448-1,1s0.448,1,1,1h4v1c0,0.552,0.448,1,1,1s1-0.448,1-1v-1h4c0.552,0,1-0.448,1-1
		S29.552,44,29,44z"/>
</g>
</svg>
