<?xml version="1.0" encoding="utf-8"?>
<!-- Generator: Adobe Illustrator 17.1.0, SVG Export Plug-In . SVG Version: 6.00 Build 0)  -->
<!DOCTYPE svg PUBLIC "-//W3C//DTD SVG 1.0//EN" "http://www.w3.org/TR/2001/REC-SVG-20010904/DTD/svg10.dtd">
<svg version="1.0" id="Layer_1" xmlns="http://www.w3.org/2000/svg" xmlns:xlink="http://www.w3.org/1999/xlink" x="0px" y="0px"
	 width="48px" height="48px" viewBox="0 0 48 48" enable-background="new 0 0 48 48" xml:space="preserve">
<path d="M47.766,17.356C47.575,17.13,47.295,17,47,17h-1.063C45.474,13.046,42.235,9,38,9c-0.878,0-1.73,0.139-2.547,0.415
	C33.908,4.474,29.271,1,24,1c-5.272,0-9.91,3.474-11.457,8.415C11.729,9.139,10.877,9,10,9c-4.235,0-7.474,4.046-7.937,8H1
	c-0.295,0-0.575,0.13-0.766,0.356c-0.19,0.226-0.271,0.524-0.22,0.815l3.312,19.06c0.429,2.454,2.361,4.302,4.751,4.687
	C8.522,44.791,11.004,47,14,47c2.967,0,5.431-2.167,5.91-5h8.181c0.478,2.833,2.942,5,5.91,5c2.996,0,5.478-2.209,5.922-5.082
	c2.39-0.385,4.319-2.234,4.747-4.688l3.317-19.059C48.036,17.88,47.955,17.583,47.766,17.356z M10,11
	c0.97,0,1.898,0.227,2.759,0.676c0.277,0.145,0.608,0.151,0.892,0.016c0.284-0.135,0.487-0.396,0.55-0.703
	C15.145,6.36,19.267,3,24,3c4.732,0,8.852,3.36,9.796,7.989c0.062,0.308,0.266,0.568,0.549,0.703
	c0.283,0.134,0.613,0.129,0.893-0.016C36.1,11.227,37.029,11,38,11c3.047,0,5.471,3.042,5.919,6H4.081C4.529,14.042,6.953,11,10,11z
	 M14,45c-2.206,0-4-1.794-4-4s1.794-4,4-4s4,1.794,4,4S16.206,45,14,45z M34,45c-2.206,0-4-1.794-4-4s1.794-4,4-4s4,1.794,4,4
	S36.206,45,34,45z M42.698,36.887c-0.261,1.5-1.385,2.646-2.807,2.993C39.365,37.105,36.926,35,34,35c-2.967,0-5.431,2.167-5.91,5
	H19.91c-0.478-2.833-2.942-5-5.91-5c-2.925,0-5.365,2.106-5.891,4.88c-1.423-0.347-2.548-1.493-2.811-2.993L2.189,19h43.622
	L42.698,36.887z"/>
</svg>
