<?xml version="1.0" encoding="utf-8"?>
<!-- Generator: Adobe Illustrator 17.0.0, SVG Export Plug-In . SVG Version: 6.00 Build 0)  -->
<!DOCTYPE svg PUBLIC "-//W3C//DTD SVG 1.1//EN" "http://www.w3.org/Graphics/SVG/1.1/DTD/svg11.dtd">
<svg version="1.1" id="Layer_1" xmlns="http://www.w3.org/2000/svg" xmlns:xlink="http://www.w3.org/1999/xlink" x="0px" y="0px"
	 width="48px" height="48px" viewBox="0 0 48 48" enable-background="new 0 0 48 48" xml:space="preserve">
<path fill="#010101" d="M37.423,0.094c-0.347-0.162-0.764-0.111-1.064,0.138l-6,5C30.132,5.422,30,5.703,30,6v3.667
	c-1.25-0.882-2.998-1.476-5-1.626V1c0-0.552-0.447-1-1-1s-1,0.448-1,1v7.041c-2.002,0.15-3.75,0.744-5,1.626V6
	c0-0.297-0.132-0.578-0.36-0.768l-6-5c-0.297-0.249-0.714-0.301-1.064-0.138C10.225,0.259,10,0.612,10,1v13
	c0,0.297,0.132,0.578,0.359,0.768L16,19.469v18.532c0,4.251,6.65,9.25,7.408,9.806C23.585,47.936,23.792,48,24,48
	s0.415-0.064,0.592-0.193C25.35,47.251,32,42.252,32,38.001V19.469l5.641-4.701C37.868,14.578,38,14.297,38,14V1
	C38,0.612,37.775,0.259,37.423,0.094z M12,13.532V3.135l4,3.333V13v3.865L12,13.532z M24.001,45.741
	c-0.726-0.576-1.699-1.415-2.65-2.365c0.879-0.371,1.788-0.581,2.649-0.581c0.865,0,1.779,0.211,2.661,0.585
	C25.717,44.319,24.746,45.153,24.001,45.741z M30,38.001c0,1.146-0.83,2.525-1.926,3.843c-1.315-0.668-2.73-1.049-4.074-1.049
	c-1.34,0-2.75,0.378-4.061,1.043C18.838,40.517,18,39.135,18,38.001V19v-6c0-1.281,2.01-2.689,5-2.952V20c0,0.552,0.447,1,1,1
	s1-0.448,1-1v-9.952c2.99,0.263,5,1.672,5,2.952v6V38.001z M36,13.531l-4,3.333V13V6.468l4-3.333V13.531z"/>
</svg>
