<?xml version="1.0" encoding="utf-8"?>
<!-- Generator: Adobe Illustrator 17.1.0, SVG Export Plug-In . SVG Version: 6.00 Build 0)  -->
<!DOCTYPE svg PUBLIC "-//W3C//DTD SVG 1.0//EN" "http://www.w3.org/TR/2001/REC-SVG-20010904/DTD/svg10.dtd">
<svg version="1.0" id="Layer_1" xmlns="http://www.w3.org/2000/svg" xmlns:xlink="http://www.w3.org/1999/xlink" x="0px" y="0px"
	 width="48px" height="48px" viewBox="0 0 48 48" enable-background="new 0 0 48 48" xml:space="preserve">
<g>
	<path d="M15.01,5.948C15.009,5.966,15,5.981,15,6c0,0.006,0.003,0.011,0.003,0.017c0.002,0.117,0.026,0.232,0.069,0.343
		c0.012,0.031,0.03,0.058,0.045,0.087c0.023,0.045,0.039,0.093,0.069,0.135l5,7C20.374,13.844,20.677,14,21,14h6
		c0.323,0,0.626-0.156,0.813-0.419l5-7c0.03-0.042,0.046-0.09,0.069-0.135c0.015-0.03,0.033-0.056,0.045-0.087
		c0.043-0.111,0.067-0.226,0.069-0.343C32.997,6.01,33,6.005,33,6c0-0.018-0.009-0.033-0.01-0.052
		c-0.005-0.096-0.024-0.189-0.057-0.281c-0.013-0.036-0.026-0.069-0.043-0.103c-0.013-0.026-0.018-0.054-0.032-0.078l-3-5
		C29.677,0.184,29.352,0,29,0H19c-0.352,0-0.677,0.184-0.857,0.485l-3,5c-0.015,0.025-0.02,0.052-0.032,0.078
		c-0.017,0.034-0.03,0.067-0.043,0.103C15.034,5.759,15.015,5.852,15.01,5.948z M26.485,12h-4.971l-3.572-5h12.115L26.485,12z
		 M19.566,2h8.867l1.8,3H17.766L19.566,2z"/>
	<path d="M31.214,13.514c-0.509-0.222-1.095,0.009-1.317,0.514c-0.222,0.506,0.009,1.096,0.515,1.318
		C36.236,17.901,40,23.653,40,30.001c0,8.822-7.178,16-16,16s-16-7.178-16-16c0-6.349,3.763-12.101,9.585-14.654
		c0.506-0.222,0.736-0.812,0.515-1.318c-0.222-0.504-0.808-0.735-1.317-0.514C10.232,16.387,6,22.858,6,30.001
		c0,9.925,8.075,18,18,18s18-8.075,18-18C42,22.859,37.767,16.388,31.214,13.514z"/>
	<path d="M10,30.001c0,7.72,6.28,14,14,14s14-6.28,14-14c0-7.72-6.28-14-14-14S10,22.281,10,30.001z M36,30.001
		c0,6.617-5.383,12-12,12s-12-5.383-12-12s5.383-12,12-12S36,23.384,36,30.001z"/>
</g>
</svg>
