<?xml version="1.0" encoding="utf-8"?>
<!-- Generator: Adobe Illustrator 17.0.0, SVG Export Plug-In . SVG Version: 6.00 Build 0)  -->
<!DOCTYPE svg PUBLIC "-//W3C//DTD SVG 1.1//EN" "http://www.w3.org/Graphics/SVG/1.1/DTD/svg11.dtd">
<svg version="1.1" id="Layer_1" xmlns="http://www.w3.org/2000/svg" xmlns:xlink="http://www.w3.org/1999/xlink" x="0px" y="0px"
	 width="48px" height="48px" viewBox="0 0 48 48" enable-background="new 0 0 48 48" xml:space="preserve">
<g>
	<path fill="#010101" d="M24,0C10.767,0,0,10.767,0,24s10.767,24,24,24c13.233,0,24-10.767,24-24S37.233,0,24,0z M24,46
		C11.869,46,2,36.131,2,24S11.869,2,24,2s22,9.869,22,22S36.131,46,24,46z"/>
	<path fill="#010101" d="M36.726,11.273c-0.391-0.391-1.023-0.391-1.414,0l-9.293,9.294C25.424,20.215,24.74,20,24,20
		c-2.206,0-4,1.794-4,4s1.794,4,4,4s4-1.794,4-4c0-0.74-0.216-1.425-0.567-2.02l9.293-9.293
		C37.117,12.296,37.117,11.664,36.726,11.273z M24,26c-1.103,0-2-0.897-2-2s0.897-2,2-2c1.102,0,2,0.897,2,2S25.102,26,24,26z"/>
	<path fill="#010101" d="M9.888,24.37c0-0.552-0.447-1-1-1h-4c-0.553,0-1,0.448-1,1s0.447,1,1,1h4
		C9.44,25.37,9.888,24.922,9.888,24.37z"/>
	<path fill="#010101" d="M9.758,28.817l-3.697,1.53c-0.51,0.211-0.752,0.796-0.541,1.306c0.159,0.385,0.532,0.618,0.924,0.618
		c0.128,0,0.258-0.025,0.383-0.076l3.697-1.53c0.51-0.211,0.752-0.796,0.541-1.306C10.854,28.848,10.267,28.606,9.758,28.817z"/>
	<path fill="#010101" d="M41.935,30.347l-3.694-1.531c-0.508-0.211-1.096,0.03-1.307,0.541c-0.212,0.511,0.03,1.095,0.541,1.307
		l3.694,1.531c0.125,0.052,0.255,0.077,0.383,0.077c0.391,0,0.764-0.232,0.924-0.618C42.688,31.143,42.446,30.558,41.935,30.347z"/>
	<path fill="#010101" d="M42.998,23.002L39.001,23C39,23,39,23,39,23c-0.552,0-1,0.448-1,1s0.447,1,1,1l3.998,0.002
		c0.552,0,1-0.447,1-1C43.998,23.45,43.551,23.002,42.998,23.002z"/>
	<path fill="#010101" d="M37.857,19.26c0.128,0,0.258-0.025,0.383-0.076l3.695-1.529c0.51-0.211,0.752-0.796,0.541-1.306
		c-0.211-0.511-0.797-0.752-1.307-0.542l-3.695,1.529c-0.51,0.211-0.752,0.796-0.541,1.306C37.092,19.027,37.464,19.26,37.857,19.26
		z"/>
	<path fill="#010101" d="M29.357,11.065c0.125,0.052,0.255,0.077,0.383,0.077c0.392,0,0.765-0.232,0.924-0.618l1.531-3.694
		c0.212-0.511-0.03-1.095-0.541-1.307c-0.508-0.21-1.096,0.03-1.307,0.541l-1.531,3.694C28.604,10.269,28.846,10.854,29.357,11.065z
		"/>
	<path fill="#010101" d="M23.888,10.37c0.552,0,1-0.448,1-1v-4c0-0.552-0.447-1-1-1s-1,0.448-1,1v4
		C22.888,9.922,23.335,10.37,23.888,10.37z"/>
	<path fill="#010101" d="M17.336,10.524c0.159,0.385,0.531,0.618,0.924,0.618c0.128,0,0.258-0.025,0.383-0.077
		c0.51-0.211,0.752-0.796,0.541-1.306l-1.529-3.695c-0.211-0.51-0.799-0.752-1.307-0.541c-0.51,0.211-0.752,0.796-0.541,1.306
		L17.336,10.524z"/>
	<path fill="#010101" d="M14.1,12.688l-2.826-2.829c-0.391-0.392-1.023-0.391-1.414-0.001c-0.391,0.39-0.391,1.023,0,1.414
		l2.826,2.829c0.195,0.195,0.451,0.293,0.707,0.293c0.255,0,0.511-0.098,0.707-0.292C14.491,13.712,14.491,13.079,14.1,12.688z"/>
	<path fill="#010101" d="M10.525,17.336l-3.694-1.532c-0.508-0.21-1.094,0.03-1.307,0.54c-0.212,0.51,0.03,1.095,0.541,1.307
		l3.694,1.532c0.125,0.052,0.255,0.077,0.383,0.077c0.391,0,0.763-0.232,0.924-0.617C11.278,18.133,11.036,17.548,10.525,17.336z"/>
	<path fill="#010101" d="M33,32H15c-0.553,0-1,0.448-1,1v6c0,0.552,0.447,1,1,1h18c0.553,0,1-0.448,1-1v-6
		C34,32.448,33.553,32,33,32z M32,38H16v-4h16V38z"/>
</g>
</svg>
