<?xml version="1.0" encoding="utf-8"?>
<!-- Generator: Adobe Illustrator 17.0.0, SVG Export Plug-In . SVG Version: 6.00 Build 0)  -->
<!DOCTYPE svg PUBLIC "-//W3C//DTD SVG 1.1//EN" "http://www.w3.org/Graphics/SVG/1.1/DTD/svg11.dtd">
<svg version="1.1" id="Layer_1" xmlns="http://www.w3.org/2000/svg" xmlns:xlink="http://www.w3.org/1999/xlink" x="0px" y="0px"
	 width="48px" height="48px" viewBox="0 0 48 48" enable-background="new 0 0 48 48" xml:space="preserve">
<path fill="#010101" d="M46.986,39.088c-0.407-7.003-9.852-14.554-10.254-14.872c-0.397-0.315-0.967-0.283-1.327,0.077l-4.793,4.793
	l-20.5-20.5V1c0-0.404-0.243-0.769-0.617-0.924c-0.373-0.155-0.803-0.07-1.09,0.217l-8,8c-0.286,0.286-0.372,0.716-0.217,1.09
	C0.343,9.756,0.708,10,1.112,10h7.586l20.5,20.5l-4.793,4.793c-0.358,0.358-0.391,0.929-0.077,1.327
	c0.331,0.42,8.199,10.271,15.336,10.271c1.971,0,3.706-0.735,5.155-2.184C46.382,43.143,47.112,41.253,46.986,39.088z M8.112,3.414
	V8H3.526L8.112,3.414z M43.405,43.293c-1.076,1.075-2.3,1.598-3.741,1.598c-5.185,0-11.326-6.651-13.198-8.83l4.147-4.146
	l6.792,6.792C37.6,38.902,37.856,39,38.112,39s0.512-0.098,0.707-0.293c0.391-0.391,0.391-1.023,0-1.414L32.027,30.5l4.146-4.146
	c2.128,1.831,8.52,7.738,8.816,12.852C45.081,40.797,44.563,42.134,43.405,43.293z"/>
</svg>
