<?xml version="1.0" encoding="utf-8"?>
<!-- Generator: Adobe Illustrator 17.0.0, SVG Export Plug-In . SVG Version: 6.00 Build 0)  -->
<!DOCTYPE svg PUBLIC "-//W3C//DTD SVG 1.1//EN" "http://www.w3.org/Graphics/SVG/1.1/DTD/svg11.dtd">
<svg version="1.1" id="Layer_1" xmlns="http://www.w3.org/2000/svg" xmlns:xlink="http://www.w3.org/1999/xlink" x="0px" y="0px"
	 width="48px" height="48px" viewBox="0 0 48 48" enable-background="new 0 0 48 48" xml:space="preserve">
<g>
	<path fill="#010101" d="M6,23v8c0,0.552,0.448,1,1,1h4c0.552,0,1-0.448,1-1s-0.448-1-1-1H8v-6h11c0.552,0,1-0.448,1-1s-0.448-1-1-1
		H7C6.448,22,6,22.448,6,23z"/>
	<path fill="#010101" d="M47,22H31c-0.552,0-1,0.448-1,1s0.448,1,1,1h5v6H23c-0.552,0-1,0.448-1,1s0.448,1,1,1h24
		c0.552,0,1-0.448,1-1v-8C48,22.448,47.552,22,47,22z M46,30h-8v-6h8V30z"/>
	<path fill="#010101" d="M2,23v8c0,0.552,0.448,1,1,1s1-0.448,1-1v-8c0-0.552-0.448-1-1-1S2,22.448,2,23z"/>
	<path fill="#010101" d="M1,18c0.552,0,1-0.448,1-1v-4c0-2.757,2.243-5,5-5c3.86,0,7-3.14,7-7c0-0.552-0.448-1-1-1s-1,0.448-1,1
		c0,2.757-2.243,5-5,5c-3.86,0-7,3.14-7,7v4C0,17.552,0.448,18,1,18z"/>
	<path fill="#010101" d="M4,17c0,0.552,0.448,1,1,1s1-0.448,1-1c0-2.757,2.243-5,5-5c3.86,0,7-3.14,7-7c0-0.552-0.448-1-1-1
		s-1,0.448-1,1c0,2.757-2.243,5-5,5C7.14,10,4,13.14,4,17z"/>
	<path fill="#010101" d="M47.707,0.293c-0.391-0.391-1.023-0.391-1.414,0l-46,46c-0.391,0.391-0.391,1.023,0,1.414
		C0.488,47.902,0.744,48,1,48s0.512-0.098,0.707-0.293l46-46C48.098,1.316,48.098,0.684,47.707,0.293z"/>
</g>
</svg>
