<?xml version="1.0" encoding="utf-8"?>
<!-- Generator: Adobe Illustrator 17.0.0, SVG Export Plug-In . SVG Version: 6.00 Build 0)  -->
<!DOCTYPE svg PUBLIC "-//W3C//DTD SVG 1.1//EN" "http://www.w3.org/Graphics/SVG/1.1/DTD/svg11.dtd">
<svg version="1.1" id="Layer_1" xmlns="http://www.w3.org/2000/svg" xmlns:xlink="http://www.w3.org/1999/xlink" x="0px" y="0px"
	 width="48px" height="48px" viewBox="0 0 48 48" enable-background="new 0 0 48 48" xml:space="preserve">
<g>
	<path fill="#010101" d="M43,24c-1.322,0-2.567,0.328-3.666,0.898l1.524-9.921c0.578-3.752-0.508-7.557-2.983-10.439
		C35.403,1.654,31.808,0,28.009,0h-8.025c-3.798,0-7.393,1.654-9.866,4.538C7.645,7.42,6.559,11.225,7.137,14.977l1.527,9.92
		C7.565,24.327,6.321,24,5,24c-2.757,0-5,2.244-5,5.001c0,2.027,1.207,3.839,3.076,4.618C3.638,33.852,4,34.395,4,35.001v4
		C4,42.86,7.141,46,11,46v1c0,0.552,0.447,1,1,1s1-0.448,1-1v-1h22v1c0,0.552,0.447,1,1,1s1-0.448,1-1v-1c3.859,0,7-3.14,7-6.999v-4
		c0-0.608,0.36-1.15,0.92-1.382c1.871-0.78,3.08-2.593,3.08-4.618C48,26.244,45.757,24,43,24z M11.636,5.839
		C13.729,3.399,16.772,2,19.985,2h8.025c3.214,0,6.257,1.399,8.349,3.839c2.093,2.439,3.013,5.658,2.524,8.833l-1.846,12.014
		C35.775,28.101,35,29.96,35,32.001v1.461c-1.772-0.633-5.197-1.461-11-1.461s-9.229,0.828-11,1.461v-1.461
		c0-2.041-0.774-3.899-2.036-5.314l-1.85-12.015C8.624,11.497,9.543,8.278,11.636,5.839z M44.151,31.772
		C42.845,32.315,42,33.583,42,35.001v4C42,41.757,39.757,44,37,44H11c-2.757,0-5-2.243-5-4.999v-4c0-1.417-0.847-2.685-2.155-3.229
		C2.724,31.305,2,30.218,2,29.001C2,27.346,3.346,26,5,26c3.309,0,6,2.692,6,6.001l0.009,4.814l1.537-0.976
		c0.028-0.018,2.991-1.838,11.454-1.838s11.426,1.82,11.445,1.832L37,36.87v-4.869C37,28.692,39.691,26,43,26
		c1.654,0,3,1.346,3,3.001C46,30.216,45.274,31.304,44.151,31.772z"/>
	<path fill="#010101" d="M17.293,20.707C17.488,20.902,17.744,21,18,21s0.512-0.098,0.707-0.293l1.499-1.499
		C20.722,20.821,22.218,22,24,22c1.782,0,3.278-1.179,3.794-2.793l1.5,1.5C29.488,20.902,29.744,21,30,21s0.512-0.098,0.707-0.293
		c0.391-0.391,0.391-1.023,0-1.414L29.414,18l1.293-1.293c0.391-0.391,0.391-1.023,0-1.414c-0.391-0.391-1.023-0.391-1.414,0
		l-1.5,1.5C27.278,15.179,25.782,14,24,14c-1.782,0-3.278,1.179-3.794,2.792l-1.499-1.499c-0.391-0.391-1.023-0.391-1.414,0
		c-0.391,0.391-0.391,1.023,0,1.414L18.586,18l-1.293,1.293C16.902,19.684,16.902,20.316,17.293,20.707z M24,16c1.102,0,2,0.897,2,2
		s-0.898,2-2,2c-1.103,0-2-0.897-2-2S22.897,16,24,16z"/>
</g>
</svg>
