<?xml version="1.0" encoding="utf-8"?>
<!-- Generator: Adobe Illustrator 17.0.0, SVG Export Plug-In . SVG Version: 6.00 Build 0)  -->
<!DOCTYPE svg PUBLIC "-//W3C//DTD SVG 1.1//EN" "http://www.w3.org/Graphics/SVG/1.1/DTD/svg11.dtd">
<svg version="1.1" id="Layer_1" xmlns="http://www.w3.org/2000/svg" xmlns:xlink="http://www.w3.org/1999/xlink" x="0px" y="0px"
	 width="48px" height="48px" viewBox="0 0 48 48" enable-background="new 0 0 48 48" xml:space="preserve">
<path fill="#010101" d="M44,27c0-4.962-4.038-9-9.001-9h-22C8.037,18,4,22.038,4,27v0c0,0-0.001,0-0.001,0c-2.206,0-4,1.794-4,4
	c0,0.002,0.001,0.003,0.001,0.005V39c0,2.415,1.72,4.435,4,4.899V47c0,0.552,0.447,1,1,1s1-0.448,1-1v-3h36v3c0,0.552,0.447,1,1,1
	s1-0.448,1-1v-3.101c2.279-0.465,4-2.484,4-4.899v-8C48,28.794,46.206,27,44,27z M42,27v0.556c-1.19,0.694-2.001,1.97-2.001,3.444
	c0,0.002,0.001,0.003,0.001,0.005V33c0,0.551-0.449,1-1.001,1H25V20h9.999C38.859,20,42,23.14,42,27z M6,27c0-3.86,3.14-7,6.999-7
	H23v14H8.999C8.448,34,8,33.551,8,33v-2c0-0.003-0.002-0.006-0.002-0.01C7.994,29.521,7.187,28.249,6,27.557V27z M46,39
	c0,1.654-1.346,3-3,3H4.999C3.346,42,2,40.654,2,39v-8c0-0.001-0.001-0.002-0.001-0.003C2.001,29.895,2.897,29,3.999,29
	c1.103,0,2,0.897,2,2C5.999,31.002,6,31.003,6,31.005V33c0,1.654,1.346,3,2.999,3h30C40.653,36,42,34.654,42,33v-2
	c0-0.001-0.001-0.002-0.001-0.003C42.001,29.895,42.897,29,44,29c1.102,0,2,0.897,2,2V39z"/>
</svg>
