<?xml version="1.0" encoding="utf-8"?>
<!-- Generator: Adobe Illustrator 17.0.0, SVG Export Plug-In . SVG Version: 6.00 Build 0)  -->
<!DOCTYPE svg PUBLIC "-//W3C//DTD SVG 1.1//EN" "http://www.w3.org/Graphics/SVG/1.1/DTD/svg11.dtd">
<svg version="1.1" id="Layer_1" xmlns="http://www.w3.org/2000/svg" xmlns:xlink="http://www.w3.org/1999/xlink" x="0px" y="0px"
	 width="48px" height="48px" viewBox="0 0 48 48" enable-background="new 0 0 48 48" xml:space="preserve">
<path fill="#010101" d="M47.806,5.408C47.617,5.151,47.318,5,47,5h-4V1c0-0.318-0.151-0.617-0.407-0.805
	c-0.257-0.189-0.588-0.243-0.891-0.149c-0.387,0.121-9.498,3.024-10.787,8.265c-0.466,1.89,0.109,3.791,1.7,5.66l-2.634,2.634
	C26.795,13.752,22.603,12,18,12C8.075,12,0,20.075,0,30c0,4.603,1.752,8.795,4.605,11.981l-4.312,4.312
	c-0.391,0.391-0.391,1.023,0,1.414C0.488,47.902,0.744,48,1,48s0.512-0.098,0.707-0.293l4.312-4.312C9.205,46.248,13.397,48,18,48
	s8.795-1.752,11.981-4.605l4.312,4.312C34.488,47.902,34.744,48,35,48s0.512-0.098,0.707-0.293c0.391-0.391,0.391-1.023,0-1.414
	l-4.312-4.312C34.248,38.795,36,34.603,36,30s-1.752-8.795-4.605-11.981l2.635-2.635c1.446,1.229,2.921,1.857,4.393,1.857
	c6.041,0,9.391-10.495,9.531-10.941C48.05,5.995,47.994,5.664,47.806,5.408z M41,5.586l-3,3v-4.79c1.06-0.57,2.119-1.037,3-1.38
	V5.586z M32.856,8.79C33.204,7.373,34.47,6.092,36,5.02v5.566l-1.964,1.964C32.951,11.235,32.559,9.998,32.856,8.79z M34,30
	c0,4.38-1.772,8.352-4.633,11.244c-0.023,0.019-0.052,0.027-0.074,0.049s-0.03,0.05-0.049,0.074C26.352,44.228,22.38,46,18,46
	c-4.38,0-8.352-1.772-11.244-4.634c-0.019-0.023-0.027-0.052-0.049-0.073s-0.05-0.03-0.073-0.049C3.772,38.352,2,34.38,2,30
	c0-8.822,7.178-16,16-16c4.052,0,7.746,1.526,10.568,4.018l-2.827,2.827C23.649,19.074,20.949,18,18,18c-6.617,0-12,5.383-12,12
	s5.383,12,12,12s12-5.383,12-12c0-2.949-1.074-5.649-2.845-7.741l2.827-2.827C32.474,22.255,34,25.948,34,30z M22,30
	c0,2.206-1.794,4-4,4s-4-1.794-4-4s1.794-4,4-4c0.74,0,1.424,0.215,2.019,0.567l-1.508,1.508C18.347,28.031,18.178,28,18,28
	c-1.105,0-2,0.895-2,2s0.895,2,2,2s2-0.895,2-2c0-0.178-0.031-0.347-0.074-0.512l1.508-1.508C21.785,28.576,22,29.26,22,30z
	 M21.471,25.115C20.49,24.416,19.294,24,18,24c-3.309,0-6,2.691-6,6s2.691,6,6,6s6-2.691,6-6c0-1.294-0.416-2.49-1.115-3.471
	l2.853-2.853C27.15,25.4,28,27.602,28,30c0,5.514-4.486,10-10,10S8,35.514,8,30s4.486-10,10-10c2.398,0,4.6,0.85,6.324,2.262
	L21.471,25.115z M38.424,15.24c-0.948,0-1.945-0.434-2.973-1.277L42.414,7h3.173C44.381,10.11,41.703,15.24,38.424,15.24z"/>
</svg>
