<?xml version="1.0" encoding="utf-8"?>
<!-- Generator: Adobe Illustrator 17.0.0, SVG Export Plug-In . SVG Version: 6.00 Build 0)  -->
<!DOCTYPE svg PUBLIC "-//W3C//DTD SVG 1.1//EN" "http://www.w3.org/Graphics/SVG/1.1/DTD/svg11.dtd">
<svg version="1.1" id="Layer_1" xmlns="http://www.w3.org/2000/svg" xmlns:xlink="http://www.w3.org/1999/xlink" x="0px" y="0px"
	 width="48px" height="48px" viewBox="0 0 48 48" enable-background="new 0 0 48 48" xml:space="preserve">
<g>
	<path fill="#010101" d="M24,18c-3.309,0-6,2.691-6,6s2.691,6,6,6s6-2.691,6-6S27.309,18,24,18z M24,28c-2.206,0-4-1.794-4-4
		s1.794-4,4-4s4,1.794,4,4S26.206,28,24,28z"/>
	<path fill="#010101" d="M24,32c-3.309,0-6,2.691-6,6s2.691,6,6,6s6-2.691,6-6S27.309,32,24,32z M24,42c-2.206,0-4-1.794-4-4
		s1.794-4,4-4s4,1.794,4,4S26.206,42,24,42z"/>
	<path fill="#010101" d="M24,4c-3.309,0-6,2.691-6,6s2.691,6,6,6s6-2.691,6-6S27.309,4,24,4z M24,14c-2.206,0-4-1.794-4-4
		s1.794-4,4-4s4,1.794,4,4S26.206,14,24,14z"/>
	<path fill="#010101" d="M45.707,19.707c0.286-0.286,0.372-0.716,0.217-1.09C45.769,18.244,45.404,18,45,18h-9v-2.586l9.707-9.707
		c0.286-0.286,0.372-0.716,0.217-1.09C45.769,4.244,45.404,4,45,4h-9.101C35.434,1.721,33.415,0,31,0H17
		c-2.415,0-4.434,1.721-4.899,4H3C2.596,4,2.231,4.244,2.076,4.617c-0.155,0.374-0.069,0.804,0.217,1.09L12,15.414V18H3
		c-0.404,0-0.769,0.244-0.924,0.617c-0.155,0.374-0.069,0.804,0.217,1.09L12,29.414V32H3c-0.404,0-0.769,0.244-0.924,0.617
		c-0.155,0.374-0.069,0.804,0.217,1.09l9.754,9.754C12.283,45.999,14.401,48,17,48h14c2.599,0,4.717-2.001,4.953-4.539l9.754-9.754
		c0.286-0.286,0.372-0.716,0.217-1.09C45.769,32.244,45.404,32,45,32h-9v-2.586L45.707,19.707z M42.586,20L36,26.586V20H42.586z
		 M36,12.586V6h6.586L36,12.586z M5.414,6H12v6.586L5.414,6z M5.414,20H12v6.586L5.414,20z M12,34v6.586L5.414,34H12z M31,46H17
		c-1.654,0-2.999-1.345-3-2.999c0-0.001,0-0.002,0-0.003V29.002c0-0.001,0-0.002,0-0.003V15.002C14,15,14,15,14,14.998V5
		c0-1.654,1.346-3,3-3h14c1.654,0,3,1.346,3,3v9.999C34,15,34,15,34,15.001v13.997C34,29,34,29,34,29.001v13.997
		c0,0.001,0,0.001,0,0.002C33.999,44.654,32.654,46,31,46z M42.586,34L36,40.586V34H42.586z"/>
</g>
</svg>
