<?xml version="1.0" encoding="utf-8"?>
<!-- Generator: Adobe Illustrator 17.0.0, SVG Export Plug-In . SVG Version: 6.00 Build 0)  -->
<!DOCTYPE svg PUBLIC "-//W3C//DTD SVG 1.1//EN" "http://www.w3.org/Graphics/SVG/1.1/DTD/svg11.dtd">
<svg version="1.1" id="Layer_1" xmlns="http://www.w3.org/2000/svg" xmlns:xlink="http://www.w3.org/1999/xlink" x="0px" y="0px"
	 width="48px" height="48px" viewBox="0 0 48 48" enable-background="new 0 0 48 48" xml:space="preserve">
<path fill="#010101" d="M47,46h-7.244L26.916,0.727C26.794,0.297,26.401,0,25.954,0H22c-0.448,0-0.841,0.297-0.962,0.728L8.244,46H1
	c-0.552,0-1,0.448-1,1s0.448,1,1,1h37.993c0.002,0,0.004,0.001,0.006,0.001c0.002,0,0.005-0.001,0.007-0.001H47c0.552,0,1-0.448,1-1
	S47.552,46,47,46z M29.736,18H18.234l1.696-6h8.104L29.736,18z M30.303,20l2.269,8H15.408l2.261-8H30.303z M33.139,30l1.702,6
	H13.147l1.696-6H33.139z M22.756,2h2.442l2.269,8h-6.972L22.756,2z M12.582,38h22.826l2.269,8H10.321L12.582,38z"/>
</svg>
