<?xml version="1.0" encoding="utf-8"?>
<!-- Generator: Adobe Illustrator 17.0.0, SVG Export Plug-In . SVG Version: 6.00 Build 0)  -->
<!DOCTYPE svg PUBLIC "-//W3C//DTD SVG 1.1//EN" "http://www.w3.org/Graphics/SVG/1.1/DTD/svg11.dtd">
<svg version="1.1" id="Layer_1" xmlns="http://www.w3.org/2000/svg" xmlns:xlink="http://www.w3.org/1999/xlink" x="0px" y="0px"
	 width="48px" height="48px" viewBox="0 0 48 48" enable-background="new 0 0 48 48" xml:space="preserve">
<g>
	<path fill="#231F20" d="M27,29v5h-6v-5c0-0.552-0.448-1-1-1H9c-0.552,0-1,0.448-1,1v14c0,0.552,0.448,1,1,1h30c0.552,0,1-0.448,1-1
		V29c0-0.552-0.448-1-1-1H28C27.448,28,27,28.448,27,29z M29,35v-5h9v12H10V30h9v5c0,0.552,0.448,1,1,1h8C28.552,36,29,35.552,29,35
		z"/>
	<path fill="#231F20" d="M24,32c0.552,0,1-0.448,1-1v-2c0-0.552-0.448-1-1-1s-1,0.448-1,1v2C23,31.552,23.448,32,24,32z"/>
	<path fill="#231F20" d="M35,12H13c-4.962,0-9,4.038-9,9v4v22c0,0.552,0.448,1,1,1h38c0.552,0,1-0.448,1-1V25v-4
		C44,16.038,39.962,12,35,12z M35,14c3.86,0,7,3.14,7,7v3h-6v-3c0-1.955-0.579-5.002-2.379-7H35z M14,24v-2.998
		C14.001,20.716,14.078,14,19,14h10c4.922,0,4.999,6.716,5,7v3H14z M6,21c0-3.86,3.14-7,7-7h1.379C12.579,15.998,12,19.045,12,21v3
		H6V21z M42,46H6V26h36V46z"/>
</g>
</svg>
