<?xml version="1.0" encoding="utf-8"?>
<!-- Generator: Adobe Illustrator 17.0.0, SVG Export Plug-In . SVG Version: 6.00 Build 0)  -->
<!DOCTYPE svg PUBLIC "-//W3C//DTD SVG 1.1//EN" "http://www.w3.org/Graphics/SVG/1.1/DTD/svg11.dtd">
<svg version="1.1" id="Layer_1" xmlns="http://www.w3.org/2000/svg" xmlns:xlink="http://www.w3.org/1999/xlink" x="0px" y="0px"
	 width="48px" height="48px" viewBox="0 0 48 48" enable-background="new 0 0 48 48" xml:space="preserve">
<g>
	<path fill="#010101" d="M43,24h-1.076c-0.162-1.321-0.64-2.402-1.456-3.198c-1.604-1.559-4.218-1.836-6.716-1.816
		C32.053,14,26.041,14,24,14s-8.053,0-9.752,4.987c-2.495-0.026-5.112,0.257-6.716,1.816C6.715,21.598,6.238,22.679,6.076,24H5
		c-0.553,0-1,0.448-1,1v22c0,0.552,0.447,1,1,1h38c0.553,0,1-0.448,1-1V25C44,24.448,43.553,24,43,24z M8.927,22.236
		c1.245-1.211,3.884-1.296,6.045-1.237c0.51,0.033,0.898-0.313,1.004-0.779C16.635,17.302,19.109,16,24,16s7.365,1.302,8.024,4.219
		c0.104,0.457,0.51,0.78,0.976,0.78c0.008,0,0.018,0,0.028,0c2.157-0.059,4.8,0.026,6.045,1.237c0.442,0.43,0.715,1.018,0.841,1.764
		H8.086C8.212,23.254,8.485,22.666,8.927,22.236z M42,46H6V26h36V46z"/>
	<path fill="#010101" d="M39,28H28c-0.553,0-1,0.448-1,1v5h-6v-5c0-0.552-0.447-1-1-1H9c-0.553,0-1,0.448-1,1v14
		c0,0.552,0.447,1,1,1h30c0.553,0,1-0.448,1-1V29C40,28.448,39.553,28,39,28z M38,42H10V30h9v5c0,0.552,0.447,1,1,1h8
		c0.553,0,1-0.448,1-1v-5h9V42z"/>
	<path fill="#010101" d="M24,32c0.553,0,1-0.448,1-1v-2c0-0.552-0.447-1-1-1s-1,0.448-1,1v2C23,31.552,23.447,32,24,32z"/>
	<path fill="#010101" d="M3,20H1c-0.553,0-1,0.448-1,1s0.447,1,1,1h2c0.553,0,1-0.448,1-1S3.553,20,3,20z"/>
	<path fill="#010101" d="M10.293,8.707C10.488,8.902,10.744,9,11,9s0.512-0.098,0.707-0.293c0.391-0.391,0.391-1.023,0-1.414l-2-2
		c-0.391-0.391-1.023-0.391-1.414,0c-0.391,0.391-0.391,1.023,0,1.414L10.293,8.707z"/>
	<path fill="#010101" d="M24,7c0.553,0,1-0.448,1-1V3c0-0.552-0.447-1-1-1s-1,0.448-1,1v3C23,6.552,23.447,7,24,7z"/>
	<path fill="#010101" d="M37,9c0.256,0,0.512-0.098,0.707-0.293l2-2c0.391-0.391,0.391-1.023,0-1.414
		c-0.391-0.391-1.023-0.391-1.414,0l-2,2c-0.391,0.391-0.391,1.023,0,1.414C36.488,8.902,36.744,9,37,9z"/>
	<path fill="#010101" d="M47,20h-2c-0.553,0-1,0.448-1,1s0.447,1,1,1h2c0.553,0,1-0.448,1-1S47.553,20,47,20z"/>
</g>
</svg>
