<?xml version="1.0" encoding="utf-8"?>
<!-- Generator: Adobe Illustrator 17.0.0, SVG Export Plug-In . SVG Version: 6.00 Build 0)  -->
<!DOCTYPE svg PUBLIC "-//W3C//DTD SVG 1.1//EN" "http://www.w3.org/Graphics/SVG/1.1/DTD/svg11.dtd">
<svg version="1.1" id="Layer_1" xmlns="http://www.w3.org/2000/svg" xmlns:xlink="http://www.w3.org/1999/xlink" x="0px" y="0px"
	 width="48px" height="48px" viewBox="0 0 48 48" enable-background="new 0 0 48 48" xml:space="preserve">
<path fill="#010101" d="M37.864,45.463L30.953,27.69c-0.443-1.642-1.842-2.699-3.58-2.699c-1.131,0-2.253,0.474-3.08,1.301
	L21.5,29.085l-3.156-3.158l9.192-9.191c0.188-0.187,0.293-0.442,0.293-0.707s-0.105-0.519-0.293-0.707L23.9,11.686
	c0.358-0.611,0.567-1.307,0.567-2.02c0-1.052-0.427-2.082-1.171-2.828l-5.659-5.659c-1.51-1.51-4.144-1.51-5.655,0
	c-0.745,0.744-1.172,1.775-1.172,2.828c0,1.068,0.416,2.073,1.172,2.828l5.658,5.658c0.755,0.756,1.76,1.173,2.828,1.173
	c0.723,0,1.411-0.205,2.02-0.564l2.927,2.927l-9.192,9.191c-0.391,0.39-0.391,1.023,0,1.414l3.863,3.865l-2.794,2.794
	c-1.096,1.098-1.539,2.67-1.152,4.1c0.343,1.271,1.27,2.2,2.547,2.558l17.951,6.981C36.755,46.978,36.878,47,37,47
	c0.006,0,0.012-0.001,0.019-0.001c0.553,0,1-0.448,1-1C38.019,45.802,37.963,45.618,37.864,45.463z M19.054,11.079l-5.658-5.658
	c-0.378-0.378-0.586-0.88-0.586-1.414c0-0.527,0.214-1.042,0.585-1.414c0.379-0.377,0.881-0.585,1.415-0.585
	s1.036,0.208,1.413,0.585l5.658,5.658c0.372,0.372,0.586,0.888,0.586,1.414c0,0.526-0.214,1.041-0.584,1.413
	c-0.001,0.001-0.002,0.001-0.003,0.002c0,0,0,0.001-0.001,0.001C21.121,11.837,19.809,11.834,19.054,11.079z M19.362,38.067
	c-0.035-0.014-0.07-0.025-0.106-0.035c-0.818-0.216-1.094-0.82-1.186-1.161c-0.2-0.742,0.044-1.571,0.637-2.165l2.793-2.793
	l1.793,1.794C23.488,33.902,23.744,34,24,34s0.512-0.098,0.707-0.293c0.391-0.39,0.391-1.023,0-1.414l-1.793-1.794l2.793-2.792
	c0.455-0.454,1.062-0.715,1.666-0.715c0.314,0,1.364,0.091,1.657,1.251c0.01,0.04,0.022,0.08,0.038,0.118l6.176,15.882
	L19.362,38.067z"/>
</svg>
