<?xml version="1.0" encoding="utf-8"?>
<!-- Generator: Adobe Illustrator 17.0.0, SVG Export Plug-In . SVG Version: 6.00 Build 0)  -->
<!DOCTYPE svg PUBLIC "-//W3C//DTD SVG 1.1//EN" "http://www.w3.org/Graphics/SVG/1.1/DTD/svg11.dtd">
<svg version="1.1" id="Layer_1" xmlns="http://www.w3.org/2000/svg" xmlns:xlink="http://www.w3.org/1999/xlink" x="0px" y="0px"
	 width="48px" height="48px" viewBox="0 0 48 48" enable-background="new 0 0 48 48" xml:space="preserve">
<path fill="#231F20" d="M48,23c0-6.065-4.935-11-11-11H27c-6.168,0-11,3.075-11,7v15.724L5.925,14.355l2.689-1.33
	c0.495-0.245,0.698-0.845,0.453-1.34c-0.246-0.495-0.845-0.698-1.34-0.453l-7.171,3.547c-0.495,0.245-0.698,0.845-0.453,1.34
	c0.175,0.353,0.53,0.557,0.898,0.557c0.148,0,0.3-0.033,0.442-0.104l2.689-1.33L16,39.235V41c0,2.757,2.243,5,5,5h12
	c2.757,0,5-2.243,5-5v-7.051C43.598,33.442,48,28.727,48,23z M36,41c0,1.654-1.346,3-3,3H21c-1.654,0-3-1.346-3-3V19
	c0-2.612,3.827-4.833,8.471-4.991l3.697,5.546C30.353,19.833,30.666,20,31,20h5V41z M38,31.941V19c0-0.552-0.447-1-1-1h-5.465
	l-2.666-4H37c4.963,0,9,4.038,9,9C46,27.624,42.494,31.441,38,31.941z"/>
</svg>
