<?xml version="1.0" encoding="utf-8"?>
<!-- Generator: Adobe Illustrator 17.0.0, SVG Export Plug-In . SVG Version: 6.00 Build 0)  -->
<!DOCTYPE svg PUBLIC "-//W3C//DTD SVG 1.1//EN" "http://www.w3.org/Graphics/SVG/1.1/DTD/svg11.dtd">
<svg version="1.1" id="Layer_2" xmlns="http://www.w3.org/2000/svg" xmlns:xlink="http://www.w3.org/1999/xlink" x="0px" y="0px"
	 width="60px" height="60px" viewBox="0 0 60 60" enable-background="new 0 0 60 60" xml:space="preserve">
<g>
	<path fill="#010101" d="M41,18c-5.514,0-10,4.486-10,10v23c0,0.553,0.447,1,1,1h18c0.553,0,1-0.447,1-1V28
		C51,22.486,46.513,18,41,18z M47,33c0,0.553-0.447,1-1,1H36c-0.553,0-1-0.447-1-1v-5c0-3.309,2.691-6,6-6c3.309,0,6,2.691,6,6V33z"
		/>
	<path fill="#010101" d="M20,18c-5.514,0-10,4.486-10,10v23c0,0.553,0.447,1,1,1h18c0.553,0,1-0.447,1-1V28
		C30,22.486,25.513,18,20,18z M26,33c0,0.553-0.447,1-1,1H15c-0.553,0-1-0.447-1-1v-5c0-3.309,2.691-6,6-6s6,2.691,6,6V33z"/>
	<path fill="#010101" d="M59.559,16.171C51.973,11.055,40.923,8,30,8C19.913,8,9.747,10.598,2.295,15.007l0.695-4.866
		C3.068,9.595,2.688,9.088,2.141,9.01C1.594,8.939,1.088,9.313,1.01,9.858l-1,7c-0.016,0.111-0.011,0.22,0.009,0.326
		c0.003,0.018,0.013,0.035,0.018,0.053c0.025,0.1,0.064,0.194,0.117,0.281c0.008,0.013,0.009,0.029,0.018,0.042
		c0.025,0.037,0.057,0.065,0.086,0.098c0.02,0.022,0.037,0.047,0.059,0.067c0.07,0.066,0.146,0.122,0.23,0.165
		c0.002,0.001,0.004,0.003,0.006,0.004l6,3C6.696,20.966,6.848,21,6.999,21c0.367,0,0.72-0.202,0.896-0.553
		c0.247-0.494,0.047-1.095-0.447-1.342l-4.423-2.212C10.194,12.558,20.125,10,30,10c10.54,0,21.172,2.927,28.44,7.829
		c0.458,0.309,1.079,0.188,1.389-0.27C60.137,17.102,60.016,16.48,59.559,16.171z"/>
</g>
</svg>
