<?xml version="1.0" encoding="utf-8"?>
<!-- Generator: Adobe Illustrator 17.0.0, SVG Export Plug-In . SVG Version: 6.00 Build 0)  -->
<!DOCTYPE svg PUBLIC "-//W3C//DTD SVG 1.1//EN" "http://www.w3.org/Graphics/SVG/1.1/DTD/svg11.dtd">
<svg version="1.1" id="Layer_2" xmlns="http://www.w3.org/2000/svg" xmlns:xlink="http://www.w3.org/1999/xlink" x="0px" y="0px"
	 width="60px" height="60px" viewBox="0 0 60 60" enable-background="new 0 0 60 60" xml:space="preserve">
<g>
	<path fill="#010101" d="M8,29H4.414l3.293-3.293c0.391-0.391,0.391-1.023,0-1.414c-0.391-0.391-1.023-0.391-1.414,0l-4.999,4.999
		c-0.093,0.093-0.166,0.204-0.217,0.327c-0.101,0.244-0.101,0.52,0,0.764c0.051,0.123,0.124,0.234,0.217,0.327l4.999,4.998
		C6.488,35.902,6.744,36,7,36s0.512-0.098,0.707-0.293c0.391-0.391,0.391-1.023,0-1.414L4.414,31H8c0.553,0,1-0.447,1-1
		C9,29.447,8.553,29,8,29z"/>
	<path fill="#010101" d="M58.923,29.618c-0.051-0.123-0.125-0.234-0.217-0.327l-4.999-4.999c-0.391-0.391-1.023-0.391-1.414,0
		c-0.391,0.391-0.391,1.023,0,1.414L55.586,29H52c-0.553,0-1,0.447-1,1c0,0.553,0.447,1,1,1h3.586l-3.293,3.293
		c-0.391,0.391-0.391,1.023,0,1.414C52.488,35.902,52.744,36,53,36c0.256,0,0.512-0.098,0.707-0.293l4.999-4.998
		c0.093-0.093,0.166-0.204,0.217-0.327C59.024,30.138,59.024,29.862,58.923,29.618z"/>
	<path fill="#010101" d="M39,19c-3.961,0-7.382,2.322-9,5.67C28.382,21.322,24.961,19,21,19c-5.514,0-10,4.486-10,10v11
		c0,0.553,0.447,1,1,1h18h18c0.553,0,1-0.447,1-1V29C49,23.486,44.514,19,39,19z M27,34c0,0.553-0.447,1-1,1H16
		c-0.553,0-1-0.447-1-1v-5c0-3.309,2.691-6,6-6c3.309,0,6,2.691,6,6V34z M45,34c0,0.553-0.447,1-1,1H34c-0.553,0-1-0.447-1-1v-5
		c0-3.309,2.691-6,6-6c3.309,0,6,2.691,6,6V34z"/>
</g>
</svg>
