<?xml version="1.0" encoding="utf-8"?>
<!-- Generator: Adobe Illustrator 17.0.0, SVG Export Plug-In . SVG Version: 6.00 Build 0)  -->
<!DOCTYPE svg PUBLIC "-//W3C//DTD SVG 1.1//EN" "http://www.w3.org/Graphics/SVG/1.1/DTD/svg11.dtd">
<svg version="1.1" id="Layer_2" xmlns="http://www.w3.org/2000/svg" xmlns:xlink="http://www.w3.org/1999/xlink" x="0px" y="0px"
	 width="60px" height="60px" viewBox="0 0 60 60" enable-background="new 0 0 60 60" xml:space="preserve">
<g>
	<path fill="#010101" d="M42,40c0-5.514-4.486-10-10-10H9c-0.553,0-1,0.447-1,1v18c0,0.553,0.447,1,1,1h23
		C37.514,50,42,45.514,42,40z M32,46h-5c-0.553,0-1-0.447-1-1V35c0-0.553,0.447-1,1-1h5c3.309,0,6,2.691,6,6
		C38,43.309,35.309,46,32,46z"/>
	<path fill="#010101" d="M9,29h23c5.514,0,10-4.486,10-10S37.514,9,32,9H9c-0.553,0-1,0.447-1,1v18C8,28.553,8.447,29,9,29z M26,14
		c0-0.553,0.447-1,1-1h5c3.309,0,6,2.691,6,6s-2.691,6-6,6h-5c-0.553,0-1-0.447-1-1V14z"/>
	<path fill="#010101" d="M49.858,57.01l-4.866,0.695C49.402,50.254,52,40.087,52,30c0-10.923-3.055-21.974-8.171-29.56
		c-0.31-0.458-0.931-0.578-1.389-0.27c-0.457,0.309-0.578,0.931-0.27,1.389C47.073,8.828,50,19.46,50,30
		c0,9.874-2.558,19.806-6.894,26.976l-2.212-4.423c-0.248-0.495-0.848-0.694-1.342-0.447c-0.494,0.247-0.694,0.848-0.447,1.342l3,6
		c0.011,0.021,0.028,0.037,0.04,0.058c0.016,0.028,0.035,0.053,0.055,0.079c0.059,0.081,0.127,0.151,0.206,0.21
		c0.013,0.01,0.02,0.024,0.033,0.034c0.006,0.004,0.013,0.005,0.019,0.009c0.059,0.038,0.123,0.065,0.188,0.09
		c0.025,0.009,0.048,0.025,0.073,0.032c0.084,0.024,0.172,0.037,0.261,0.038c0.006,0,0.012,0.003,0.019,0.003h0H43
		c0.047,0,0.094-0.003,0.142-0.01l7-1c0.547-0.078,0.927-0.585,0.849-1.132C50.911,57.312,50.401,56.928,49.858,57.01z"/>
</g>
</svg>
