<?xml version="1.0" encoding="utf-8"?>
<!-- Generator: Adobe Illustrator 17.0.0, SVG Export Plug-In . SVG Version: 6.00 Build 0)  -->
<!DOCTYPE svg PUBLIC "-//W3C//DTD SVG 1.1//EN" "http://www.w3.org/Graphics/SVG/1.1/DTD/svg11.dtd">
<svg version="1.1" id="Layer_2" xmlns="http://www.w3.org/2000/svg" xmlns:xlink="http://www.w3.org/1999/xlink" x="0px" y="0px"
	 width="60px" height="60px" viewBox="0 0 60 60" enable-background="new 0 0 60 60" xml:space="preserve">
<g>
	<path fill="#010101" d="M32,33H9c-0.553,0-1,0.447-1,1v18c0,0.553,0.447,1,1,1h23c5.514,0,10-4.486,10-10S37.514,33,32,33z M32,49
		h-5c-0.553,0-1-0.447-1-1V38c0-0.553,0.447-1,1-1h5c3.309,0,6,2.691,6,6S35.309,49,32,49z"/>
	<path fill="#010101" d="M32,12H9c-0.553,0-1,0.447-1,1v18c0,0.553,0.447,1,1,1h23c5.514,0,10-4.486,10-10S37.514,12,32,12z M32,28
		h-5c-0.553,0-1-0.447-1-1V17c0-0.553,0.447-1,1-1h5c3.309,0,6,2.691,6,6S35.309,28,32,28z"/>
	<path fill="#010101" d="M44.993,2.294l4.866,0.695c0.548,0.079,1.054-0.302,1.132-0.849c0.078-0.547-0.302-1.054-0.849-1.132l-7-1
		c-0.11-0.015-0.219-0.01-0.323,0.009c-0.022,0.004-0.041,0.016-0.063,0.021c-0.097,0.025-0.188,0.062-0.272,0.114
		c-0.014,0.008-0.03,0.009-0.044,0.018c-0.021,0.014-0.031,0.036-0.051,0.051c-0.066,0.052-0.124,0.111-0.175,0.179
		c-0.025,0.032-0.05,0.062-0.07,0.098c-0.011,0.019-0.028,0.033-0.038,0.053l-3,6c-0.247,0.494-0.047,1.095,0.447,1.342
		C39.696,7.965,39.849,8,39.999,8c0.367,0,0.72-0.202,0.895-0.553l2.212-4.423C47.442,10.194,50,20.126,50,30
		c0,10.54-2.927,21.172-7.829,28.44c-0.309,0.458-0.188,1.08,0.27,1.389C42.612,59.944,42.807,60,42.999,60
		c0.321,0,0.637-0.154,0.83-0.44C48.945,51.973,52,40.922,52,30C52,19.913,49.402,9.746,44.993,2.294z"/>
</g>
</svg>
