<?xml version="1.0" encoding="utf-8"?>
<!-- Generator: Adobe Illustrator 17.0.0, SVG Export Plug-In . SVG Version: 6.00 Build 0)  -->
<!DOCTYPE svg PUBLIC "-//W3C//DTD SVG 1.1//EN" "http://www.w3.org/Graphics/SVG/1.1/DTD/svg11.dtd">
<svg version="1.1" id="Layer_2" xmlns="http://www.w3.org/2000/svg" xmlns:xlink="http://www.w3.org/1999/xlink" x="0px" y="0px"
	 width="60px" height="60px" viewBox="0 0 60 60" enable-background="new 0 0 60 60" xml:space="preserve">
<g>
	<path fill="#010101" d="M39,14c-4.914,0-9.003,3.566-9.836,8.245C27.352,19.682,24.371,18,21,18c-5.514,0-10,4.486-10,10v23
		c0,0.553,0.447,1,1,1h18h18c0.553,0,1-0.447,1-1V24C49,18.486,44.514,14,39,14z M27,33c0,0.553-0.447,1-1,1H16
		c-0.553,0-1-0.447-1-1v-5c0-3.309,2.691-6,6-6c3.309,0,6,2.691,6,6V33z M45,29c0,0.553-0.447,1-1,1H34c-0.553,0-1-0.447-1-1v-5
		c0-3.309,2.691-6,6-6c3.309,0,6,2.691,6,6V29z"/>
	<path fill="#010101" d="M20,14c1.596,0,3.156,0.291,4.639,0.866c0.516,0.2,1.095-0.057,1.294-0.571
		c0.199-0.515-0.057-1.094-0.571-1.294C23.647,12.337,21.844,12,20,12c-8.272,0-15,6.729-15,15c0,1.846,0.332,3.649,0.987,5.361
		c0.152,0.398,0.531,0.643,0.934,0.643c0.119,0,0.24-0.021,0.357-0.066c0.516-0.197,0.773-0.775,0.576-1.291
		C7.288,30.164,7,28.601,7,27C7,19.832,12.832,14,20,14z"/>
	<path fill="#010101" d="M40.001,8c-2.641,0-5.234,0.693-7.502,2.006c-0.478,0.276-0.642,0.888-0.364,1.366
		c0.276,0.476,0.885,0.642,1.366,0.364c1.963-1.136,4.211-1.736,6.5-1.736C47.169,10,53,15.83,53,22.996
		c0,1.603-0.287,3.165-0.854,4.647c-0.197,0.516,0.061,1.094,0.576,1.291C52.841,28.979,52.961,29,53.08,29
		c0.402,0,0.781-0.244,0.934-0.643C54.668,26.648,55,24.844,55,22.996C55,14.728,48.271,8,40.001,8z"/>
</g>
</svg>
