<?xml version="1.0" encoding="utf-8"?>
<!-- Generator: Adobe Illustrator 17.0.0, SVG Export Plug-In . SVG Version: 6.00 Build 0)  -->
<!DOCTYPE svg PUBLIC "-//W3C//DTD SVG 1.1//EN" "http://www.w3.org/Graphics/SVG/1.1/DTD/svg11.dtd">
<svg version="1.1" id="Layer_2" xmlns="http://www.w3.org/2000/svg" xmlns:xlink="http://www.w3.org/1999/xlink" x="0px" y="0px"
	 width="60px" height="60px" viewBox="0 0 60 60" enable-background="new 0 0 60 60" xml:space="preserve">
<g>
	<path fill="#010101" d="M39,19.999c-3.961,0-7.382,2.322-9,5.67c-1.618-3.349-5.039-5.67-9-5.67c-5.514,0-10,4.486-10,10v11
		c0,0.553,0.447,1,1,1h18h18c0.553,0,1-0.447,1-1v-11C49,24.486,44.514,19.999,39,19.999z M27,34.999c0,0.553-0.447,1-1,1H16
		c-0.553,0-1-0.447-1-1v-5c0-3.309,2.691-6,6-6c3.309,0,6,2.691,6,6V34.999z M45,34.999c0,0.553-0.447,1-1,1H34
		c-0.553,0-1-0.447-1-1v-5c0-3.309,2.691-6,6-6c3.309,0,6,2.691,6,6V34.999z"/>
	<path fill="#010101" d="M34.293,53.292L31,56.585V45.999c0-0.553-0.447-1-1-1c-0.553,0-1,0.447-1,1v10.586l-3.293-3.293
		c-0.391-0.391-1.023-0.391-1.414,0c-0.391,0.391-0.391,1.023,0,1.414l4.999,4.999c0.092,0.093,0.203,0.167,0.326,0.217
		c0.122,0.051,0.252,0.077,0.382,0.077c0.13,0,0.26-0.026,0.382-0.077c0.123-0.051,0.234-0.125,0.326-0.217l4.999-4.999
		c0.391-0.391,0.391-1.023,0-1.414C35.316,52.902,34.684,52.902,34.293,53.292z"/>
	<path fill="#010101" d="M25.707,6.706L29,3.413v10.586c0,0.553,0.447,1,1,1c0.553,0,1-0.447,1-1V3.413l3.293,3.293
		C34.488,6.902,34.744,6.999,35,6.999c0.256,0,0.512-0.098,0.707-0.293c0.391-0.391,0.391-1.023,0-1.414l-4.999-4.999
		c-0.093-0.093-0.203-0.166-0.326-0.217c-0.244-0.101-0.519-0.101-0.764,0c-0.123,0.051-0.234,0.125-0.326,0.217l-4.999,4.999
		c-0.391,0.391-0.391,1.023,0,1.414C24.684,7.097,25.316,7.097,25.707,6.706z"/>
</g>
</svg>
