<?xml version="1.0" encoding="utf-8"?>
<!-- Generator: Adobe Illustrator 17.0.0, SVG Export Plug-In . SVG Version: 6.00 Build 0)  -->
<!DOCTYPE svg PUBLIC "-//W3C//DTD SVG 1.1//EN" "http://www.w3.org/Graphics/SVG/1.1/DTD/svg11.dtd">
<svg version="1.1" id="Layer_2" xmlns="http://www.w3.org/2000/svg" xmlns:xlink="http://www.w3.org/1999/xlink" x="0px" y="0px"
	 width="60px" height="60px" viewBox="0 0 60 60" enable-background="new 0 0 60 60" xml:space="preserve">
<g>
	<path fill="#010101" d="M38,20c-4.914,0-9.003,3.566-9.836,8.245C26.352,25.682,23.371,24,20,24c-5.514,0-10,4.486-10,10v23
		c0,0.553,0.447,1,1,1h18h18c0.553,0,1-0.447,1-1V30C48,24.486,43.514,20,38,20z M26,39c0,0.553-0.447,1-1,1H15
		c-0.553,0-1-0.447-1-1v-5c0-3.309,2.691-6,6-6c3.309,0,6,2.691,6,6V39z M44,35c0,0.553-0.447,1-1,1H33c-0.553,0-1-0.447-1-1v-5
		c0-3.309,2.691-6,6-6c3.309,0,6,2.691,6,6V35z"/>
	<path fill="#010101" d="M47,20c4.963,0,9-4.037,9-9c0-4.963-4.037-9-9-9c-4.963,0-9,4.037-9,9C38,15.963,42.037,20,47,20z M46,7
		c0-0.553,0.447-1,1-1c0.553,0,1,0.447,1,1v3h2c0.553,0,1,0.447,1,1c0,0.553-0.447,1-1,1h-3c-0.553,0-1-0.447-1-1V7z"/>
	<path fill="#010101" d="M19,20c1.596,0,3.156,0.291,4.639,0.866c0.517,0.2,1.095-0.057,1.294-0.571
		c0.199-0.515-0.057-1.094-0.571-1.294C22.647,18.337,20.844,18,19,18c-8.272,0-15,6.729-15,15c0,1.846,0.332,3.649,0.987,5.361
		c0.152,0.398,0.531,0.643,0.934,0.643c0.119,0,0.24-0.021,0.357-0.066c0.516-0.197,0.773-0.775,0.576-1.291
		C6.288,36.164,6,34.601,6,33C6,25.832,11.832,20,19,20z"/>
	<path fill="#010101" d="M32.001,17.871c0.17,0,0.343-0.043,0.501-0.135c0.863-0.501,1.793-0.902,2.761-1.192
		c0.529-0.159,0.829-0.716,0.671-1.245c-0.159-0.529-0.716-0.827-1.245-0.671c-1.118,0.335-2.191,0.799-3.19,1.378
		c-0.478,0.277-0.641,0.889-0.363,1.367C31.32,17.692,31.656,17.871,32.001,17.871z"/>
	<path fill="#010101" d="M50.591,21.078c-0.477,0.279-0.637,0.892-0.358,1.368C51.389,24.423,52,26.689,52,28.996
		c0,1.603-0.287,3.165-0.854,4.647c-0.197,0.516,0.061,1.094,0.576,1.291C51.841,34.979,51.961,35,52.08,35
		c0.402,0,0.781-0.244,0.934-0.643C53.668,32.648,54,30.844,54,28.996c0-2.662-0.706-5.276-2.041-7.56
		C51.679,20.958,51.067,20.8,50.591,21.078z"/>
</g>
</svg>
