<?xml version="1.0" encoding="utf-8"?>
<!-- Generator: Adobe Illustrator 17.0.0, SVG Export Plug-In . SVG Version: 6.00 Build 0)  -->
<!DOCTYPE svg PUBLIC "-//W3C//DTD SVG 1.1//EN" "http://www.w3.org/Graphics/SVG/1.1/DTD/svg11.dtd">
<svg version="1.1" id="Layer_2" xmlns="http://www.w3.org/2000/svg" xmlns:xlink="http://www.w3.org/1999/xlink" x="0px" y="0px"
	 width="60px" height="60px" viewBox="0 0 60 60" enable-background="new 0 0 60 60" xml:space="preserve">
<g>
	<path fill="#010101" d="M39,17c-4.914,0-9.003,3.566-9.836,8.245C27.352,22.682,24.371,21,21,21c-5.514,0-10,4.486-10,10v23
		c0,0.553,0.447,1,1,1h18h18c0.553,0,1-0.447,1-1V27C49,21.486,44.514,17,39,17z M27,36c0,0.553-0.447,1-1,1H16
		c-0.553,0-1-0.447-1-1v-5c0-3.309,2.691-6,6-6c3.309,0,6,2.691,6,6V36z M45,32c0,0.553-0.447,1-1,1H34c-0.553,0-1-0.447-1-1v-5
		c0-3.309,2.691-6,6-6c3.309,0,6,2.691,6,6V32z"/>
	<path fill="#010101" d="M2,29C2,17.972,10.972,9,22,9c1.281,0,2.591,0.133,3.891,0.397c0.544,0.112,1.068-0.241,1.179-0.782
		c0.109-0.541-0.241-1.069-0.782-1.179C24.856,7.147,23.414,7,22,7C9.869,7,0,16.869,0,29c0,0.764,0.495,4.887,0.91,6.285
		C1.04,35.72,1.437,36,1.869,36c0.094,0,0.19-0.014,0.285-0.041c0.529-0.158,0.831-0.715,0.674-1.244C2.484,33.56,2,29.596,2,29z"/>
	<path fill="#010101" d="M38,5c-2.469,0-4.902,0.413-7.231,1.228c-0.521,0.183-0.796,0.753-0.614,1.274
		c0.183,0.521,0.754,0.799,1.274,0.614C33.546,7.375,35.756,7,38,7c11.028,0,20,8.972,20,20c0,1.946-0.279,3.87-0.829,5.719
		c-0.158,0.529,0.144,1.086,0.673,1.243c0.095,0.028,0.191,0.042,0.285,0.042c0.432,0,0.829-0.28,0.958-0.715
		C59.693,31.255,60,29.14,60,27C60,14.869,50.131,5,38,5z"/>
	<path fill="#010101" d="M37,11c-2.166,0-4.275,0.401-6.271,1.193c-0.513,0.204-0.764,0.785-0.561,1.299
		c0.205,0.515,0.786,0.763,1.299,0.56C33.227,13.355,35.088,13,37,13c8.271,0,15,6.729,15,15c0,0.553,0.447,1,1,1
		c0.553,0,1-0.447,1-1C54,18.626,46.374,11,37,11z"/>
	<path fill="#010101" d="M20,17c2.298,0,4.532,0.651,6.461,1.884c0.462,0.297,1.083,0.161,1.381-0.305
		c0.297-0.465,0.161-1.083-0.305-1.381C25.287,15.76,22.681,15,20,15c-7.72,0-14,6.28-14,14c0,0.553,0.447,1,1,1
		c0.553,0,1-0.447,1-1C8,22.383,13.383,17,20,17z"/>
</g>
</svg>
