<?xml version="1.0" encoding="utf-8"?>
<!-- Generator: Adobe Illustrator 17.0.0, SVG Export Plug-In . SVG Version: 6.00 Build 0)  -->
<!DOCTYPE svg PUBLIC "-//W3C//DTD SVG 1.1//EN" "http://www.w3.org/Graphics/SVG/1.1/DTD/svg11.dtd">
<svg version="1.1" id="Layer_2" xmlns="http://www.w3.org/2000/svg" xmlns:xlink="http://www.w3.org/1999/xlink" x="0px" y="0px"
	 width="60px" height="60px" viewBox="0 0 60 60" enable-background="new 0 0 60 60" xml:space="preserve">
<g>
	<path fill="#010101" d="M30,21c-5.514,0-10,4.486-10,10v23c0,0.553,0.447,1,1,1h18c0.553,0,1-0.447,1-1V31
		C40,25.486,35.514,21,30,21z M36,36c0,0.553-0.447,1-1,1H25c-0.553,0-1-0.447-1-1v-5c0-3.309,2.691-6,6-6s6,2.691,6,6V36z"/>
	<path fill="#010101" d="M30,13c-9.925,0-18,8.075-18,18c0,2.952,0.731,5.881,2.114,8.471c0.26,0.489,0.867,0.67,1.352,0.411
		c0.487-0.26,0.672-0.865,0.411-1.353C14.649,36.228,14,33.624,14,31c0-8.822,7.178-16,16-16s16,7.178,16,16
		c0,2.624-0.649,5.228-1.878,7.529c-0.261,0.487-0.076,1.093,0.411,1.353c0.149,0.08,0.311,0.118,0.47,0.118
		c0.358,0,0.703-0.191,0.883-0.529C47.269,36.881,48,33.952,48,31C48,21.075,39.925,13,30,13z"/>
	<path fill="#010101" d="M30,5C15.663,5,4,16.663,4,31c0,6.076,2.14,11.986,6.024,16.643c0.197,0.237,0.482,0.359,0.769,0.359
		c0.226,0,0.453-0.076,0.64-0.232c0.424-0.354,0.481-0.984,0.127-1.408C7.975,42.065,6,36.609,6,31C6,17.767,16.767,7,30,7
		s24,10.767,24,24c0,5.606-1.975,11.062-5.559,15.359c-0.354,0.424-0.297,1.055,0.127,1.408c0.427,0.354,1.056,0.297,1.408-0.127
		C53.861,42.983,56,37.074,56,31C56,16.663,44.337,5,30,5z"/>
</g>
</svg>
