<?xml version="1.0" encoding="utf-8"?>
<!-- Generator: Adobe Illustrator 17.0.0, SVG Export Plug-In . SVG Version: 6.00 Build 0)  -->
<!DOCTYPE svg PUBLIC "-//W3C//DTD SVG 1.1//EN" "http://www.w3.org/Graphics/SVG/1.1/DTD/svg11.dtd">
<svg version="1.1" id="Layer_2" xmlns="http://www.w3.org/2000/svg" xmlns:xlink="http://www.w3.org/1999/xlink" x="0px" y="0px"
	 width="60px" height="60px" viewBox="0 0 60 60" enable-background="new 0 0 60 60" xml:space="preserve">
<g>
	<path fill="#010101" d="M44,41.999c0-5.514-4.486-10-10-10H9c-0.553,0-1,0.447-1,1v18c0,0.553,0.447,1,1,1h25
		C39.514,51.999,44,47.513,44,41.999z M28,46.999v-10c0-0.553,0.447-1,1-1h5c3.309,0,6,2.691,6,6c0,3.309-2.691,6-6,6h-5
		C28.447,47.999,28,47.552,28,46.999z"/>
	<path fill="#010101" d="M32.707,6.706L36,3.413v16.586c0,0.553,0.447,1,1,1c0.553,0,1-0.447,1-1V3.413l3.293,3.293
		C41.488,6.902,41.744,6.999,42,6.999c0.256,0,0.512-0.098,0.707-0.293c0.391-0.391,0.391-1.023,0-1.414l-4.999-4.999
		c-0.093-0.093-0.203-0.167-0.326-0.217c-0.244-0.101-0.52-0.101-0.764,0c-0.123,0.051-0.234,0.125-0.326,0.217l-4.999,4.999
		c-0.391,0.391-0.391,1.023,0,1.414C31.684,7.097,32.316,7.097,32.707,6.706z"/>
	<path fill="#010101" d="M34,23.999c-3.606,0-7.086,1.062-10.064,3.073c-0.458,0.31-0.578,0.931-0.269,1.389
		c0.309,0.458,0.931,0.578,1.389,0.27c2.646-1.787,5.738-2.731,8.944-2.731c8.822,0,16,7.178,16,16s-7.178,16-16,16
		c-3.239,0-6.359-0.964-9.025-2.786c-0.456-0.312-1.079-0.195-1.39,0.261c-0.312,0.456-0.195,1.078,0.261,1.39
		c3,2.052,6.511,3.136,10.154,3.136c9.925,0,18-8.075,18-18S43.925,23.999,34,23.999z"/>
</g>
</svg>
