<?xml version="1.0" encoding="utf-8"?>
<!-- Generator: Adobe Illustrator 17.0.0, SVG Export Plug-In . SVG Version: 6.00 Build 0)  -->
<!DOCTYPE svg PUBLIC "-//W3C//DTD SVG 1.1//EN" "http://www.w3.org/Graphics/SVG/1.1/DTD/svg11.dtd">
<svg version="1.1" id="Layer_2" xmlns="http://www.w3.org/2000/svg" xmlns:xlink="http://www.w3.org/1999/xlink" x="0px" y="0px"
	 width="60px" height="60px" viewBox="0 0 60 60" enable-background="new 0 0 60 60" xml:space="preserve">
<g>
	<path fill="#010101" d="M41.999,16c-5.514,0-10,4.486-10,10v25c0,0.553,0.447,1,1,1h18c0.553,0,1-0.447,1-1V26
		C51.999,20.486,47.513,16,41.999,16z M47.999,31c0,0.553-0.447,1-1,1h-10c-0.553,0-1-0.447-1-1v-5c0-3.309,2.691-6,6-6
		c3.309,0,6,2.691,6,6V31z"/>
	<path fill="#010101" d="M19.999,22H3.413l3.293-3.293c0.391-0.391,0.391-1.023,0-1.414c-0.391-0.391-1.023-0.391-1.414,0
		l-4.999,4.999c-0.093,0.093-0.166,0.204-0.217,0.327c-0.101,0.244-0.101,0.52,0,0.764c0.051,0.123,0.124,0.234,0.217,0.327
		l4.999,4.998C5.488,28.902,5.743,29,5.999,29c0.256,0,0.512-0.098,0.707-0.293c0.391-0.391,0.391-1.023,0-1.414L3.413,24h16.586
		c0.553,0,1-0.447,1-1C20.999,22.447,20.552,22,19.999,22z"/>
	<path fill="#010101" d="M41.999,8c-9.925,0-18,8.075-18,18c0,3.606,1.063,7.087,3.075,10.064c0.308,0.458,0.932,0.58,1.388,0.268
		c0.458-0.309,0.578-0.931,0.268-1.388c-1.787-2.646-2.731-5.738-2.731-8.944c0-8.822,7.178-16,16-16s16,7.178,16,16
		c0,3.24-0.964,6.361-2.786,9.025c-0.312,0.456-0.195,1.078,0.261,1.39c0.173,0.118,0.369,0.175,0.563,0.175
		c0.319,0,0.633-0.152,0.826-0.435c2.052-2.998,3.136-6.51,3.136-10.154C59.999,16.075,51.924,8,41.999,8z"/>
</g>
</svg>
