<?xml version="1.0" encoding="utf-8"?>
<!-- Generator: Adobe Illustrator 17.0.0, SVG Export Plug-In . SVG Version: 6.00 Build 0)  -->
<!DOCTYPE svg PUBLIC "-//W3C//DTD SVG 1.1//EN" "http://www.w3.org/Graphics/SVG/1.1/DTD/svg11.dtd">
<svg version="1.1" id="Layer_2" xmlns="http://www.w3.org/2000/svg" xmlns:xlink="http://www.w3.org/1999/xlink" x="0px" y="0px"
	 width="60px" height="60px" viewBox="0 0 60 60" enable-background="new 0 0 60 60" xml:space="preserve">
<g>
	<path fill="#010101" d="M30,16c-5.514,0-10,4.486-10,10v25c0,0.553,0.447,1,1,1h18c0.553,0,1-0.447,1-1V26
		C40,20.486,35.514,16,30,16z M36,31c0,0.553-0.447,1-1,1H25c-0.553,0-1-0.447-1-1v-5c0-3.309,2.691-6,6-6c3.309,0,6,2.691,6,6V31z"
		/>
	<path fill="#010101" d="M8,22H3.414l3.293-3.293c0.391-0.391,0.391-1.023,0-1.414c-0.391-0.391-1.023-0.391-1.414,0l-4.999,4.999
		c-0.093,0.093-0.166,0.204-0.217,0.327c-0.101,0.244-0.101,0.519,0,0.764c0.051,0.123,0.124,0.234,0.217,0.327l4.999,4.998
		C5.488,28.902,5.744,29,6,29c0.256,0,0.512-0.098,0.707-0.293c0.391-0.391,0.391-1.023,0-1.414L3.414,24H8c0.553,0,1-0.447,1-1
		C9,22.447,8.553,22,8,22z"/>
	<path fill="#010101" d="M59.923,22.618c-0.051-0.123-0.125-0.234-0.217-0.327l-4.999-4.999c-0.391-0.391-1.023-0.391-1.414,0
		c-0.391,0.391-0.391,1.023,0,1.414L56.586,22H52c-0.553,0-1,0.447-1,1c0,0.553,0.447,1,1,1h4.586l-3.293,3.293
		c-0.391,0.391-0.391,1.023,0,1.414C53.488,28.902,53.744,29,54,29c0.256,0,0.512-0.098,0.707-0.293l4.999-4.998
		c0.093-0.093,0.166-0.204,0.217-0.327C60.024,23.138,60.024,22.862,59.923,22.618z"/>
	<path fill="#010101" d="M30,8c-9.925,0-18,8.075-18,18c0,3.645,1.084,7.156,3.136,10.154c0.193,0.283,0.507,0.436,0.826,0.436
		c0.194,0,0.391-0.057,0.564-0.175c0.456-0.311,0.572-0.934,0.261-1.39C14.964,32.361,14,29.24,14,26c0-8.822,7.178-16,16-16
		c8.822,0,16,7.178,16,16c0,3.206-0.944,6.299-2.731,8.944c-0.31,0.457-0.189,1.079,0.269,1.388c0.457,0.312,1.08,0.19,1.388-0.268
		C46.936,33.087,48,29.606,48,26C48,16.075,39.925,8,30,8z"/>
</g>
</svg>
