<?xml version="1.0" encoding="utf-8"?>
<!-- Generator: Adobe Illustrator 17.0.0, SVG Export Plug-In . SVG Version: 6.00 Build 0)  -->
<!DOCTYPE svg PUBLIC "-//W3C//DTD SVG 1.1//EN" "http://www.w3.org/Graphics/SVG/1.1/DTD/svg11.dtd">
<svg version="1.1" id="Layer_2" xmlns="http://www.w3.org/2000/svg" xmlns:xlink="http://www.w3.org/1999/xlink" x="0px" y="0px"
	 width="60px" height="60px" viewBox="0 0 60 60" enable-background="new 0 0 60 60" xml:space="preserve">
<g>
	<path fill="#010101" d="M44,29.999c0-5.514-4.486-10-10-10H9c-0.553,0-1,0.447-1,1v18c0,0.553,0.447,1,1,1h25
		C39.514,39.999,44,35.513,44,29.999z M28,34.999v-10c0-0.553,0.447-1,1-1h5c3.309,0,6,2.691,6,6s-2.691,6-6,6h-5
		C28.447,35.999,28,35.552,28,34.999z"/>
	<path fill="#010101" d="M32.707,6.706L36,3.413v4.586c0,0.553,0.447,1,1,1c0.553,0,1-0.447,1-1V3.413l3.293,3.293
		C41.488,6.902,41.744,6.999,42,6.999c0.256,0,0.512-0.098,0.707-0.293c0.391-0.391,0.391-1.023,0-1.414l-4.999-4.999
		c-0.093-0.093-0.203-0.167-0.326-0.217c-0.244-0.101-0.52-0.101-0.764,0c-0.123,0.051-0.234,0.125-0.326,0.217l-4.999,4.999
		c-0.391,0.391-0.391,1.023,0,1.414C31.684,7.097,32.316,7.097,32.707,6.706z"/>
	<path fill="#010101" d="M41.293,53.292L38,56.585v-4.586c0-0.553-0.447-1-1-1c-0.553,0-1,0.447-1,1v4.586l-3.293-3.293
		c-0.391-0.391-1.023-0.391-1.414,0c-0.391,0.391-0.391,1.023,0,1.414l4.999,4.999c0.092,0.093,0.203,0.167,0.326,0.217
		c0.122,0.051,0.252,0.077,0.382,0.077c0.13,0,0.26-0.026,0.382-0.077c0.123-0.051,0.234-0.125,0.326-0.217l4.999-4.999
		c0.391-0.391,0.391-1.023,0-1.414C42.316,52.902,41.684,52.902,41.293,53.292z"/>
	<path fill="#010101" d="M34,11.999c-3.647,0-7.158,1.084-10.154,3.136c-0.456,0.312-0.572,0.935-0.261,1.39
		c0.311,0.456,0.935,0.575,1.39,0.261c2.663-1.822,5.784-2.786,9.025-2.786c8.822,0,16,7.178,16,16c0,8.822-7.178,16-16,16
		c-3.207,0-6.299-0.945-8.944-2.732c-0.456-0.312-1.078-0.189-1.388,0.268c-0.31,0.457-0.19,1.079,0.268,1.388
		c2.977,2.013,6.456,3.076,10.064,3.076c9.925,0,18-8.075,18-18S43.925,11.999,34,11.999z"/>
</g>
</svg>
