<?xml version="1.0" encoding="utf-8"?>
<!-- Generator: Adobe Illustrator 17.0.0, SVG Export Plug-In . SVG Version: 6.00 Build 0)  -->
<!DOCTYPE svg PUBLIC "-//W3C//DTD SVG 1.1//EN" "http://www.w3.org/Graphics/SVG/1.1/DTD/svg11.dtd">
<svg version="1.1" id="Layer_2" xmlns="http://www.w3.org/2000/svg" xmlns:xlink="http://www.w3.org/1999/xlink" x="0px" y="0px"
	 width="60px" height="60px" viewBox="0 0 60 60" enable-background="new 0 0 60 60" xml:space="preserve">
<g>
	<path fill="#010101" d="M48,30c0-5.514-4.486-10-10-10H13c-0.553,0-1,0.447-1,1v18c0,0.553,0.447,1,1,1h25
		C43.514,40,48,35.514,48,30z M32,35V25c0-0.553,0.447-1,1-1h5c3.309,0,6,2.691,6,6s-2.691,6-6,6h-5C32.447,36,32,35.553,32,35z"/>
	<path fill="#010101" d="M40.876,57.008l-7.121,0.89l-1.785-7.14c-0.134-0.536-0.679-0.863-1.212-0.728
		c-0.536,0.134-0.862,0.677-0.728,1.212l2,8C32.143,59.693,32.546,60,32.999,60c0.041,0,0.083-0.003,0.125-0.008l8-1
		c0.548-0.068,0.936-0.568,0.868-1.116C41.923,57.328,41.432,56.942,40.876,57.008z"/>
	<path fill="#010101" d="M44.876,51.008l-6.202,0.775c0.894-1.963,1.741-4.094,2.302-6.561c0.122-0.539-0.216-1.074-0.754-1.197
		c-0.545-0.121-1.075,0.216-1.197,0.754c-0.432,1.905-1.064,3.606-1.749,5.201l-1.306-5.222c-0.134-0.537-0.678-0.862-1.212-0.728
		c-0.536,0.134-0.862,0.677-0.728,1.212l2,8c0.004,0.017,0.015,0.029,0.02,0.045c0.014,0.045,0.036,0.085,0.056,0.129
		c0.032,0.069,0.067,0.134,0.112,0.192c0.028,0.036,0.058,0.066,0.091,0.098c0.059,0.058,0.123,0.105,0.194,0.146
		c0.023,0.014,0.038,0.036,0.063,0.048c0.014,0.007,0.029,0.004,0.043,0.01C36.732,53.964,36.861,54,36.999,54
		c0.041,0,0.083-0.003,0.125-0.008l8-1c0.548-0.068,0.936-0.568,0.868-1.116C45.924,51.328,45.43,50.946,44.876,51.008z"/>
	<path fill="#010101" d="M39.024,15.222C39.13,15.686,39.542,16,39.999,16c0.073,0,0.147-0.008,0.223-0.024
		c0.538-0.123,0.876-0.658,0.754-1.197C39.464,8.119,37.146,3.509,33.684,0.27c-0.404-0.378-1.035-0.356-1.414,0.047
		c-0.377,0.404-0.356,1.037,0.047,1.414C35.475,4.684,37.605,8.971,39.024,15.222z"/>
</g>
</svg>
