<?xml version="1.0" encoding="utf-8"?>
<!-- Generator: Adobe Illustrator 17.0.0, SVG Export Plug-In . SVG Version: 6.00 Build 0)  -->
<!DOCTYPE svg PUBLIC "-//W3C//DTD SVG 1.1//EN" "http://www.w3.org/Graphics/SVG/1.1/DTD/svg11.dtd">
<svg version="1.1" id="Layer_2" xmlns="http://www.w3.org/2000/svg" xmlns:xlink="http://www.w3.org/1999/xlink" x="0px" y="0px"
	 width="60px" height="60px" viewBox="0 0 60 60" enable-background="new 0 0 60 60" xml:space="preserve">
<g>
	<path fill="#010101" d="M30,12c-5.514,0-10,4.486-10,10v25c0,0.553,0.447,1,1,1h18c0.553,0,1-0.447,1-1V22
		C40,16.486,35.514,12,30,12z M36,27c0,0.553-0.447,1-1,1H25c-0.553,0-1-0.447-1-1v-5c0-3.309,2.691-6,6-6c3.309,0,6,2.691,6,6V27z"
		/>
	<path fill="#010101" d="M16,22H9.414l3.293-3.293c0.391-0.391,0.391-1.023,0-1.414c-0.391-0.391-1.023-0.391-1.414,0l-4.999,4.999
		c-0.093,0.093-0.166,0.204-0.217,0.327c-0.101,0.244-0.101,0.52,0,0.764c0.051,0.123,0.124,0.234,0.217,0.327l4.999,4.998
		C11.488,28.902,11.744,29,12,29c0.256,0,0.512-0.098,0.707-0.293c0.391-0.391,0.391-1.023,0-1.414L9.414,24H16c0.553,0,1-0.447,1-1
		C17,22.447,16.553,22,16,22z"/>
	<path fill="#010101" d="M2.414,23l4.293-4.293c0.391-0.391,0.391-1.023,0-1.414c-0.391-0.391-1.023-0.391-1.414,0l-5,5
		c-0.391,0.391-0.391,1.023,0,1.414l5,5C5.488,28.902,5.744,29,6,29c0.256,0,0.512-0.098,0.707-0.293
		c0.391-0.391,0.391-1.023,0-1.414L2.414,23z"/>
	<path fill="#010101" d="M53.923,23.382c0.101-0.244,0.101-0.52,0-0.764c-0.051-0.123-0.125-0.234-0.217-0.327l-4.999-4.999
		c-0.391-0.391-1.023-0.391-1.414,0c-0.391,0.391-0.391,1.023,0,1.414L50.586,22H44c-0.553,0-1,0.447-1,1c0,0.553,0.447,1,1,1h6.586
		l-3.293,3.293c-0.391,0.391-0.391,1.023,0,1.414C47.488,28.902,47.744,29,48,29c0.256,0,0.512-0.098,0.707-0.293l4.999-4.998
		C53.799,23.616,53.872,23.505,53.923,23.382z"/>
	<path fill="#010101" d="M59.707,22.293l-5-5c-0.391-0.391-1.023-0.391-1.414,0c-0.391,0.391-0.391,1.023,0,1.414L57.586,23
		l-4.293,4.293c-0.391,0.391-0.391,1.023,0,1.414C53.488,28.902,53.744,29,54,29c0.256,0,0.512-0.098,0.707-0.293l5-5
		C60.098,23.316,60.098,22.684,59.707,22.293z"/>
</g>
</svg>
