<?xml version="1.0" encoding="utf-8"?>
<!-- Generator: Adobe Illustrator 17.0.0, SVG Export Plug-In . SVG Version: 6.00 Build 0)  -->
<!DOCTYPE svg PUBLIC "-//W3C//DTD SVG 1.1//EN" "http://www.w3.org/Graphics/SVG/1.1/DTD/svg11.dtd">
<svg version="1.1" id="Layer_2" xmlns="http://www.w3.org/2000/svg" xmlns:xlink="http://www.w3.org/1999/xlink" x="0px" y="0px"
	 width="60px" height="60px" viewBox="0 0 60 60" enable-background="new 0 0 60 60" xml:space="preserve">
<g>
	<path fill="#010101" d="M30,12c-5.514,0-10,4.486-10,10v25c0,0.553,0.447,1,1,1h18c0.553,0,1-0.447,1-1V22
		C40,16.486,35.514,12,30,12z M36,27c0,0.553-0.447,1-1,1H25c-0.553,0-1-0.447-1-1v-5c0-3.309,2.691-6,6-6s6,2.691,6,6V27z"/>
	<path fill="#010101" d="M9.242,28.03l-7.14-1.785l0.89-7.121c0.068-0.548-0.32-1.048-0.868-1.116
		c-0.55-0.07-1.048,0.321-1.116,0.868l-1,8c-0.062,0.502,0.259,0.972,0.75,1.094l8,2C8.839,29.99,8.921,30,9.001,30
		c0.448,0,0.855-0.303,0.969-0.758C10.104,28.707,9.778,28.164,9.242,28.03z"/>
	<path fill="#010101" d="M59.73,26.316c-3.242-3.464-7.853-5.781-14.509-7.292c-0.545-0.122-1.075,0.216-1.197,0.754
		c-0.122,0.539,0.216,1.074,0.754,1.197c6.249,1.417,10.536,3.549,13.491,6.708C58.467,27.894,58.733,28,59,28
		c0.245,0,0.49-0.089,0.684-0.269C60.087,27.353,60.107,26.72,59.73,26.316z"/>
	<path fill="#010101" d="M15.242,24.03l-5.222-1.306c1.594-0.686,3.294-1.317,5.201-1.749c0.539-0.122,0.877-0.658,0.755-1.196
		c-0.122-0.539-0.66-0.876-1.196-0.755c-2.47,0.561-4.6,1.407-6.562,2.301l0.775-6.202c0.068-0.548-0.32-1.048-0.868-1.116
		c-0.554-0.067-1.048,0.32-1.116,0.868l-1,8c-0.004,0.031,0.006,0.059,0.005,0.089c-0.002,0.058,0.002,0.114,0.01,0.172
		c0.01,0.073,0.027,0.141,0.053,0.208c0.011,0.029,0.009,0.06,0.022,0.088c0.014,0.029,0.036,0.051,0.052,0.078
		c0.019,0.032,0.039,0.062,0.062,0.093c0.049,0.064,0.104,0.119,0.166,0.168c0.023,0.019,0.043,0.04,0.068,0.056
		c0.092,0.062,0.192,0.108,0.299,0.136c0.004,0.001,0.007,0.004,0.012,0.005l8,2C14.839,25.99,14.921,26,15.001,26
		c0.448,0,0.855-0.303,0.969-0.758C16.104,24.707,15.778,24.164,15.242,24.03z"/>
</g>
</svg>
