<?xml version="1.0" encoding="utf-8"?>
<!-- Generator: Adobe Illustrator 17.0.0, SVG Export Plug-In . SVG Version: 6.00 Build 0)  -->
<!DOCTYPE svg PUBLIC "-//W3C//DTD SVG 1.1//EN" "http://www.w3.org/Graphics/SVG/1.1/DTD/svg11.dtd">
<svg version="1.1" id="Layer_2" xmlns="http://www.w3.org/2000/svg" xmlns:xlink="http://www.w3.org/1999/xlink" x="0px" y="0px"
	 width="60px" height="60px" viewBox="0 0 60 60" enable-background="new 0 0 60 60" xml:space="preserve">
<g>
	<path fill="#010101" d="M28,41.001v-11c0-5.514-4.486-10-10-10c-5.514,0-10,4.486-10,10v11c0,0.553,0.447,1,1,1h18
		C27.553,42.001,28,41.553,28,41.001z M23.5,35.001c0,0.276-0.224,0.5-0.5,0.5H13c-0.276,0-0.5-0.224-0.5-0.5v-5
		c0-3.032,2.468-5.5,5.5-5.5c3.032,0,5.5,2.468,5.5,5.5V35.001z"/>
	<path fill="#010101" d="M42,20.001c-5.514,0-10,4.486-10,10v11c0,0.553,0.447,1,1,1h18c0.553,0,1-0.447,1-1v-11
		C52,24.487,47.514,20.001,42,20.001z M47.5,35.001c0,0.276-0.224,0.5-0.5,0.5H37c-0.276,0-0.5-0.224-0.5-0.5v-5
		c0-3.032,2.468-5.5,5.5-5.5c3.032,0,5.5,2.468,5.5,5.5V35.001z"/>
	<path fill="#010101" d="M32.968,10.487l-1.641-6.351c4.042,0.751,7.687,4.881,9.722,11.173c0.137,0.424,0.529,0.692,0.951,0.692
		c0.102,0,0.205-0.016,0.308-0.049c0.525-0.17,0.813-0.733,0.644-1.259c-1.897-5.869-5.036-9.984-8.778-11.739l3.813-0.986
		c0.535-0.138,0.857-0.684,0.718-1.218c-0.138-0.536-0.683-0.86-1.218-0.718l-7.736,2c-0.024,0.006-0.041,0.023-0.064,0.031
		c-0.068,0.022-0.127,0.055-0.188,0.091c-0.053,0.031-0.104,0.061-0.149,0.101c-0.049,0.043-0.088,0.093-0.128,0.145
		c-0.039,0.05-0.076,0.098-0.104,0.155c-0.028,0.056-0.044,0.114-0.062,0.175c-0.019,0.065-0.035,0.129-0.04,0.198
		C29.013,2.953,29,2.975,29,3.001c0,0.045,0.02,0.083,0.025,0.127c0.005,0.041-0.004,0.082,0.007,0.123l2,7.736
		c0.116,0.451,0.522,0.75,0.967,0.75c0.083,0,0.167-0.01,0.251-0.032C32.785,11.567,33.106,11.021,32.968,10.487z"/>
	<path fill="#010101" d="M30.968,56.751l-2-7.736c-0.138-0.535-0.684-0.862-1.218-0.718c-0.535,0.138-0.856,0.684-0.718,1.218
		l1.641,6.351c-4.042-0.751-7.687-4.881-9.722-11.173c-0.169-0.525-0.73-0.815-1.259-0.644c-0.525,0.17-0.814,0.733-0.644,1.259
		c1.897,5.869,5.036,9.984,8.778,11.739l-3.813,0.986c-0.535,0.138-0.856,0.684-0.718,1.218c0.116,0.451,0.523,0.75,0.967,0.75
		c0.083,0,0.167-0.01,0.251-0.032l7.736-2c0.024-0.006,0.041-0.024,0.064-0.031c0.068-0.022,0.127-0.055,0.188-0.091
		c0.053-0.031,0.104-0.061,0.149-0.101c0.049-0.043,0.088-0.093,0.128-0.145c0.039-0.05,0.076-0.098,0.104-0.154
		c0.028-0.056,0.045-0.115,0.062-0.176c0.019-0.065,0.035-0.128,0.04-0.197C30.987,57.048,31,57.027,31,57.001
		c0-0.045-0.02-0.083-0.025-0.126C30.969,56.833,30.978,56.792,30.968,56.751z"/>
</g>
</svg>
