<?xml version="1.0" encoding="utf-8"?>
<!-- Generator: Adobe Illustrator 17.0.0, SVG Export Plug-In . SVG Version: 6.00 Build 0)  -->
<!DOCTYPE svg PUBLIC "-//W3C//DTD SVG 1.1//EN" "http://www.w3.org/Graphics/SVG/1.1/DTD/svg11.dtd">
<svg version="1.1" id="Layer_2" xmlns="http://www.w3.org/2000/svg" xmlns:xlink="http://www.w3.org/1999/xlink" x="0px" y="0px"
	 width="60px" height="60px" viewBox="0 0 60 60" enable-background="new 0 0 60 60" xml:space="preserve">
<g>
	<path fill="#010101" d="M18,20.001c-5.514,0-10,4.486-10,10v11c0,0.553,0.447,1,1,1h18c0.553,0,1-0.447,1-1v-11
		C28,24.487,23.514,20.001,18,20.001z M23.5,35.001c0,0.276-0.224,0.5-0.5,0.5H13c-0.276,0-0.5-0.224-0.5-0.5v-5
		c0-3.032,2.468-5.5,5.5-5.5c3.032,0,5.5,2.468,5.5,5.5V35.001z"/>
	<path fill="#010101" d="M42,20.001c-5.514,0-10,4.486-10,10v11c0,0.553,0.447,1,1,1h18c0.553,0,1-0.447,1-1v-11
		C52,24.487,47.514,20.001,42,20.001z M47.5,35.001c0,0.276-0.224,0.5-0.5,0.5H37c-0.276,0-0.5-0.224-0.5-0.5v-5
		c0-3.032,2.468-5.5,5.5-5.5c3.032,0,5.5,2.468,5.5,5.5V35.001z"/>
	<path fill="#010101" d="M30.975,3.127C30.98,3.084,31,3.046,31,3.001c0-0.026-0.013-0.047-0.015-0.073
		c-0.005-0.069-0.021-0.132-0.04-0.197c-0.017-0.062-0.034-0.12-0.062-0.176c-0.028-0.056-0.065-0.104-0.104-0.154
		c-0.04-0.052-0.079-0.101-0.128-0.145c-0.045-0.04-0.097-0.069-0.149-0.101c-0.061-0.036-0.12-0.068-0.188-0.091
		c-0.023-0.008-0.04-0.025-0.064-0.031l-7.736-2c-0.535-0.144-1.08,0.182-1.218,0.718c-0.139,0.534,0.183,1.08,0.718,1.218
		l3.813,0.986c-3.742,1.755-6.88,5.87-8.778,11.739c-0.17,0.525,0.118,1.089,0.644,1.259c0.102,0.033,0.206,0.049,0.308,0.049
		c0.422,0,0.814-0.269,0.951-0.692c2.035-6.292,5.681-10.422,9.722-11.173l-1.641,6.352c-0.139,0.534,0.183,1.08,0.718,1.218
		c0.084,0.023,0.168,0.032,0.251,0.032c0.444,0,0.851-0.299,0.967-0.75l2-7.736C30.978,3.209,30.969,3.169,30.975,3.127z"/>
	<path fill="#010101" d="M42.308,44.05c-0.527-0.172-1.089,0.119-1.259,0.644c-2.035,6.292-5.681,10.422-9.722,11.173l1.641-6.352
		c0.139-0.534-0.183-1.08-0.718-1.218c-0.534-0.146-1.08,0.183-1.218,0.718l-2,7.736c-0.011,0.042-0.001,0.082-0.007,0.124
		C29.02,56.918,29,56.956,29,57.001c0,0.026,0.013,0.047,0.015,0.073c0.005,0.069,0.021,0.132,0.04,0.198
		c0.018,0.061,0.034,0.12,0.062,0.175c0.028,0.057,0.065,0.104,0.104,0.155c0.04,0.052,0.079,0.101,0.128,0.144
		c0.045,0.04,0.097,0.069,0.149,0.101c0.061,0.036,0.12,0.068,0.187,0.091c0.024,0.008,0.041,0.025,0.065,0.031l7.736,2
		c0.084,0.022,0.168,0.032,0.251,0.032c0.444,0,0.851-0.299,0.967-0.75c0.139-0.534-0.183-1.08-0.718-1.218l-3.813-0.986
		c3.742-1.755,6.88-5.87,8.778-11.739C43.121,44.783,42.833,44.22,42.308,44.05z"/>
</g>
</svg>
