<?xml version="1.0" encoding="utf-8"?>
<!-- Generator: Adobe Illustrator 17.0.0, SVG Export Plug-In . SVG Version: 6.00 Build 0)  -->
<!DOCTYPE svg PUBLIC "-//W3C//DTD SVG 1.1//EN" "http://www.w3.org/Graphics/SVG/1.1/DTD/svg11.dtd">
<svg version="1.1" id="Layer_2" xmlns="http://www.w3.org/2000/svg" xmlns:xlink="http://www.w3.org/1999/xlink" x="0px" y="0px"
	 width="60px" height="60px" viewBox="0 0 60 60" enable-background="new 0 0 60 60" xml:space="preserve">
<g>
	<path fill="#010101" d="M30,12c-5.514,0-10,4.486-10,10v25c0,0.553,0.447,1,1,1h18c0.553,0,1-0.447,1-1V22
		C40,16.486,35.514,12,30,12z M36,27c0,0.553-0.447,1-1,1H25c-0.553,0-1-0.447-1-1v-5c0-3.309,2.691-6,6-6s6,2.691,6,6V27z"/>
	<path fill="#010101" d="M14,22H3.414l3.293-3.293c0.391-0.391,0.391-1.023,0-1.414c-0.391-0.391-1.023-0.391-1.414,0l-4.999,4.999
		c-0.093,0.093-0.166,0.204-0.217,0.327c-0.101,0.244-0.101,0.519,0,0.764c0.051,0.123,0.124,0.234,0.217,0.327l4.999,4.998
		C5.488,28.902,5.744,29,6,29s0.512-0.098,0.707-0.293c0.391-0.391,0.391-1.023,0-1.414L3.414,24H14c0.553,0,1-0.447,1-1
		C15,22.447,14.553,22,14,22z"/>
	<path fill="#010101" d="M59.923,22.618c-0.051-0.123-0.125-0.234-0.217-0.327l-4.999-4.999c-0.391-0.391-1.023-0.391-1.414,0
		c-0.391,0.391-0.391,1.023,0,1.414L56.586,22H46c-0.553,0-1,0.447-1,1c0,0.553,0.447,1,1,1h10.586l-3.293,3.293
		c-0.391,0.391-0.391,1.023,0,1.414C53.488,28.902,53.744,29,54,29s0.512-0.098,0.707-0.293l4.999-4.998
		c0.093-0.093,0.166-0.204,0.217-0.327C60.024,23.138,60.024,22.862,59.923,22.618z"/>
</g>
</svg>
