<?xml version="1.0" encoding="utf-8"?>
<!-- Generator: Adobe Illustrator 17.0.0, SVG Export Plug-In . SVG Version: 6.00 Build 0)  -->
<!DOCTYPE svg PUBLIC "-//W3C//DTD SVG 1.1//EN" "http://www.w3.org/Graphics/SVG/1.1/DTD/svg11.dtd">
<svg version="1.1" id="Layer_2" xmlns="http://www.w3.org/2000/svg" xmlns:xlink="http://www.w3.org/1999/xlink" x="0px" y="0px"
	 width="60px" height="60px" viewBox="0 0 60 60" enable-background="new 0 0 60 60" xml:space="preserve">
<g>
	<path fill="#010101" d="M30.004,12c-5.514,0-10,4.486-10,10v25c0,0.553,0.447,1,1,1h18c0.553,0,1-0.447,1-1V22
		C40.004,16.486,35.517,12,30.004,12z M36.004,27c0,0.553-0.447,1-1,1h-10c-0.553,0-1-0.447-1-1v-5c0-3.309,2.691-6,6-6
		c3.309,0,6,2.691,6,6V27z"/>
	<path fill="#010101" d="M58.996,18.876c-0.068-0.548-0.565-0.937-1.116-0.868c-0.548,0.068-0.937,0.568-0.868,1.116l0.662,5.302
		c-3.025-2.424-7.045-4.173-12.448-5.401c-0.543-0.12-1.075,0.215-1.197,0.754c-0.122,0.539,0.216,1.074,0.754,1.197
		c5.464,1.241,9.403,3.006,12.236,5.49l-6.257,1.565c-0.536,0.134-0.862,0.677-0.728,1.212C50.147,29.697,50.554,30,51.003,30
		c0.08,0,0.162-0.01,0.243-0.03l8-2c0.019-0.005,0.033-0.018,0.052-0.024c0.059-0.018,0.111-0.046,0.166-0.076
		c0.057-0.03,0.113-0.061,0.162-0.101c0.017-0.014,0.038-0.019,0.054-0.033c0.025-0.023,0.035-0.055,0.058-0.08
		c0.05-0.056,0.093-0.113,0.129-0.178c0.027-0.048,0.048-0.096,0.066-0.147c0.023-0.064,0.037-0.127,0.047-0.196
		c0.008-0.059,0.013-0.115,0.01-0.174c-0.001-0.029,0.009-0.057,0.005-0.086L58.996,18.876z"/>
	<path fill="#010101" d="M14.782,19.024c-6.656,1.511-11.267,3.828-14.509,7.292c-0.377,0.403-0.356,1.036,0.047,1.414
		C0.513,27.911,0.758,28,1.004,28c0.267,0,0.533-0.106,0.73-0.316c2.955-3.159,7.242-5.291,13.491-6.708
		c0.538-0.123,0.876-0.658,0.754-1.197C15.857,19.24,15.325,18.902,14.782,19.024z"/>
</g>
</svg>
