<?xml version="1.0" encoding="utf-8"?>
<!-- Generator: Adobe Illustrator 17.0.0, SVG Export Plug-In . SVG Version: 6.00 Build 0)  -->
<!DOCTYPE svg PUBLIC "-//W3C//DTD SVG 1.1//EN" "http://www.w3.org/Graphics/SVG/1.1/DTD/svg11.dtd">
<svg version="1.1" id="Layer_2" xmlns="http://www.w3.org/2000/svg" xmlns:xlink="http://www.w3.org/1999/xlink" x="0px" y="0px"
	 width="60px" height="60px" viewBox="0 0 60 60" enable-background="new 0 0 60 60" xml:space="preserve">
<g>
	<path fill="#010101" d="M29.996,12c-5.514,0-10,4.486-10,10v25c0,0.553,0.447,1,1,1h18c0.553,0,1-0.447,1-1V22
		C39.996,16.486,35.51,12,29.996,12z M35.996,27c0,0.553-0.447,1-1,1h-10c-0.553,0-1-0.447-1-1v-5c0-3.309,2.691-6,6-6
		c3.309,0,6,2.691,6,6V27z"/>
	<path fill="#010101" d="M59.727,26.316c-3.242-3.464-7.853-5.781-14.509-7.292c-0.545-0.124-1.075,0.216-1.197,0.754
		c-0.122,0.539,0.216,1.074,0.754,1.197c6.249,1.417,10.536,3.549,13.491,6.708C58.463,27.894,58.73,28,58.996,28
		c0.245,0,0.49-0.089,0.684-0.269C60.083,27.353,60.104,26.72,59.727,26.316z"/>
	<path fill="#010101" d="M14.775,19.024c-5.403,1.228-9.424,2.978-12.448,5.401l0.662-5.302c0.068-0.548-0.32-1.048-0.868-1.116
		c-0.55-0.069-1.048,0.32-1.116,0.868l-1,8c-0.004,0.029,0.006,0.057,0.005,0.086c-0.002,0.059,0.002,0.115,0.01,0.174
		c0.01,0.068,0.024,0.132,0.047,0.196c0.018,0.051,0.039,0.099,0.066,0.147c0.036,0.065,0.08,0.123,0.129,0.178
		c0.022,0.025,0.032,0.057,0.058,0.08c0.016,0.015,0.037,0.02,0.054,0.033c0.049,0.04,0.105,0.07,0.162,0.101
		c0.055,0.029,0.108,0.058,0.167,0.076c0.019,0.006,0.033,0.019,0.052,0.024l8,2C8.835,29.99,8.917,30,8.997,30
		c0.448,0,0.855-0.303,0.969-0.758c0.135-0.535-0.191-1.078-0.727-1.212l-6.257-1.565c2.833-2.484,6.772-4.249,12.236-5.49
		c0.538-0.123,0.876-0.658,0.754-1.197C15.849,19.239,15.311,18.903,14.775,19.024z"/>
</g>
</svg>
