<?xml version="1.0" encoding="utf-8"?>
<!-- Generator: Adobe Illustrator 17.0.0, SVG Export Plug-In . SVG Version: 6.00 Build 0)  -->
<!DOCTYPE svg PUBLIC "-//W3C//DTD SVG 1.1//EN" "http://www.w3.org/Graphics/SVG/1.1/DTD/svg11.dtd">
<svg version="1.1" id="Layer_2" xmlns="http://www.w3.org/2000/svg" xmlns:xlink="http://www.w3.org/1999/xlink" x="0px" y="0px"
	 width="60px" height="60px" viewBox="0 0 60 60" enable-background="new 0 0 60 60" xml:space="preserve">
<g>
	<path fill="#010101" d="M38,19.996H13c-0.553,0-1,0.447-1,1v18c0,0.553,0.447,1,1,1h25c5.514,0,10-4.486,10-10
		S43.514,19.996,38,19.996z M38,35.996h-5c-0.553,0-1-0.447-1-1v-10c0-0.553,0.447-1,1-1h5c3.309,0,6,2.691,6,6
		C44,33.305,41.309,35.996,38,35.996z"/>
	<path fill="#010101" d="M30.758,9.966c0.081,0.021,0.163,0.03,0.243,0.03c0.448,0,0.855-0.303,0.969-0.758l1.565-6.257
		c2.485,2.833,4.249,6.772,5.49,12.236c0.105,0.464,0.519,0.778,0.975,0.778c0.073,0,0.148-0.008,0.223-0.024
		c0.538-0.123,0.876-0.658,0.754-1.197c-1.228-5.403-2.978-9.424-5.401-12.448l5.302,0.662c0.546,0.064,1.048-0.32,1.116-0.868
		c0.068-0.548-0.32-1.048-0.868-1.116l-8-1c-0.028-0.003-0.055,0.006-0.083,0.005c-0.064-0.002-0.125,0.003-0.189,0.013
		c-0.059,0.009-0.114,0.022-0.17,0.04c-0.06,0.021-0.115,0.045-0.17,0.077c-0.059,0.033-0.11,0.073-0.161,0.117
		c-0.028,0.024-0.062,0.036-0.087,0.063c-0.015,0.017-0.02,0.038-0.033,0.055c-0.044,0.055-0.076,0.116-0.109,0.18
		c-0.026,0.052-0.055,0.101-0.071,0.156c-0.005,0.016-0.016,0.028-0.02,0.044l-2,8C29.895,9.289,30.222,9.832,30.758,9.966z"/>
	<path fill="#010101" d="M40.222,44.021c-0.545-0.119-1.075,0.215-1.197,0.754c-1.418,6.249-3.55,10.535-6.708,13.491
		c-0.403,0.378-0.424,1.011-0.047,1.414c0.197,0.21,0.464,0.316,0.731,0.316c0.245,0,0.49-0.09,0.684-0.269
		c3.464-3.242,5.78-7.853,7.292-14.509C41.098,44.679,40.76,44.144,40.222,44.021z"/>
</g>
</svg>
