<?xml version="1.0" encoding="utf-8"?>
<!-- Generator: Adobe Illustrator 17.0.0, SVG Export Plug-In . SVG Version: 6.00 Build 0)  -->
<!DOCTYPE svg PUBLIC "-//W3C//DTD SVG 1.1//EN" "http://www.w3.org/Graphics/SVG/1.1/DTD/svg11.dtd">
<svg version="1.1" id="Layer_2" xmlns="http://www.w3.org/2000/svg" xmlns:xlink="http://www.w3.org/1999/xlink" x="0px" y="0px"
	 width="60px" height="60px" viewBox="0 0 60 60" enable-background="new 0 0 60 60" xml:space="preserve">
<g>
	<path fill="#010101" d="M38,20H13c-0.553,0-1,0.447-1,1v18c0,0.553,0.447,1,1,1h25c5.514,0,10-4.486,10-10
		C48,24.487,43.514,20,38,20z M38,36h-5c-0.553,0-1-0.447-1-1V25c0-0.553,0.447-1,1-1h5c3.309,0,6,2.691,6,6S41.309,36,38,36z"/>
	<path fill="#010101" d="M39.024,15.222C39.13,15.686,39.542,16,39.999,16c0.073,0,0.147-0.008,0.223-0.024
		c0.538-0.123,0.876-0.658,0.754-1.197C39.464,8.119,37.146,3.509,33.684,0.27c-0.404-0.378-1.035-0.356-1.414,0.047
		c-0.377,0.404-0.356,1.037,0.047,1.414C35.475,4.684,37.605,8.971,39.024,15.222z"/>
	<path fill="#010101" d="M40.876,57.008l-5.302,0.662c2.423-3.024,4.173-7.045,5.401-12.448c0.122-0.539-0.216-1.074-0.754-1.197
		c-0.544-0.119-1.075,0.215-1.197,0.754c-1.241,5.464-3.006,9.403-5.49,12.236l-1.565-6.257c-0.134-0.537-0.678-0.863-1.212-0.728
		c-0.536,0.134-0.862,0.677-0.728,1.212l2,8c0.004,0.017,0.015,0.03,0.021,0.047c0.014,0.046,0.037,0.087,0.057,0.13
		c0.034,0.072,0.072,0.139,0.121,0.2c0.014,0.018,0.019,0.041,0.035,0.058c0.016,0.017,0.037,0.022,0.054,0.038
		c0.067,0.064,0.141,0.115,0.223,0.159c0.033,0.017,0.062,0.039,0.096,0.052C32.751,59.971,32.872,60,32.999,60H33h0h0
		c0.041,0,0.082-0.003,0.124-0.008l8-1c0.548-0.068,0.936-0.568,0.868-1.116C41.923,57.328,41.431,56.943,40.876,57.008z"/>
</g>
</svg>
