<?xml version="1.0" encoding="utf-8"?>
<!-- Generator: Adobe Illustrator 17.0.0, SVG Export Plug-In . SVG Version: 6.00 Build 0)  -->
<!DOCTYPE svg PUBLIC "-//W3C//DTD SVG 1.1//EN" "http://www.w3.org/Graphics/SVG/1.1/DTD/svg11.dtd">
<svg version="1.1" id="Layer_2" xmlns="http://www.w3.org/2000/svg" xmlns:xlink="http://www.w3.org/1999/xlink" x="0px" y="0px"
	 width="60px" height="60px" viewBox="0 0 60 60" enable-background="new 0 0 60 60" xml:space="preserve">
<g>
	<path fill="#010101" d="M28,22c-5.514,0-10,4.486-10,10v23c0,0.553,0.447,1,1,1h18c0.553,0,1-0.447,1-1V32
		C38,26.486,33.514,22,28,22z M34,37c0,0.553-0.447,1-1,1H23c-0.553,0-1-0.447-1-1v-5c0-3.309,2.691-6,6-6c3.309,0,6,2.691,6,6V37z"
		/>
	<path fill="#010101" d="M43.556,25.061c-0.517,0.195-0.777,0.772-0.582,1.289C43.654,28.153,44,30.054,44,32
		c0,2.624-0.649,5.228-1.878,7.529c-0.261,0.487-0.076,1.093,0.411,1.353c0.149,0.08,0.311,0.118,0.47,0.118
		c0.358,0,0.703-0.191,0.883-0.529C45.269,37.881,46,34.952,46,32c0-2.188-0.389-4.327-1.155-6.357
		C44.649,25.126,44.073,24.866,43.556,25.061z"/>
	<path fill="#010101" d="M28,16c0.553,0,1-0.447,1-1c0-0.553-0.447-1-1-1c-9.925,0-18,8.075-18,18c0,2.952,0.731,5.881,2.114,8.471
		C12.294,40.809,12.64,41,12.997,41c0.159,0,0.32-0.038,0.47-0.118c0.487-0.26,0.672-0.865,0.411-1.353
		C12.649,37.228,12,34.624,12,32C12,23.178,19.178,16,28,16z"/>
	<path fill="#010101" d="M41,4c-4.963,0-9,4.037-9,9c0,4.963,4.037,9,9,9s9-4.037,9-9C50,8.037,45.963,4,41,4z M44,14h-3
		c-0.553,0-1-0.447-1-1V9c0-0.553,0.447-1,1-1c0.553,0,1,0.447,1,1v3h2c0.553,0,1,0.447,1,1C45,13.553,44.553,14,44,14z"/>
</g>
</svg>
