<?xml version="1.0" encoding="utf-8"?>
<!-- Generator: Adobe Illustrator 17.0.0, SVG Export Plug-In . SVG Version: 6.00 Build 0)  -->
<!DOCTYPE svg PUBLIC "-//W3C//DTD SVG 1.1//EN" "http://www.w3.org/Graphics/SVG/1.1/DTD/svg11.dtd">
<svg version="1.1" id="Layer_2" xmlns="http://www.w3.org/2000/svg" xmlns:xlink="http://www.w3.org/1999/xlink" x="0px" y="0px"
	 width="60px" height="60px" viewBox="0 0 60 60" enable-background="new 0 0 60 60" xml:space="preserve">
<g>
	<path fill="#010101" d="M38,20H13c-0.553,0-1,0.447-1,1v18c0,0.553,0.447,1,1,1h25c5.514,0,10-4.486,10-10
		C48,24.486,43.514,20,38,20z M38,36h-5c-0.553,0-1-0.447-1-1V25c0-0.553,0.447-1,1-1h5c3.309,0,6,2.691,6,6
		C44,33.309,41.309,36,38,36z"/>
	<path fill="#010101" d="M32.707,12.707L36,9.414V16c0,0.553,0.447,1,1,1c0.553,0,1-0.447,1-1V9.414l3.293,3.293
		C41.488,12.902,41.744,13,42,13c0.256,0,0.512-0.098,0.707-0.293c0.391-0.391,0.391-1.023,0-1.414l-4.999-4.999
		c-0.093-0.093-0.203-0.167-0.326-0.217c-0.244-0.101-0.52-0.101-0.764,0c-0.123,0.051-0.234,0.125-0.326,0.217l-4.999,4.999
		c-0.391,0.391-0.391,1.023,0,1.414C31.684,13.098,32.316,13.098,32.707,12.707z"/>
	<path fill="#010101" d="M32.707,6.707L37,2.414l4.293,4.293C41.488,6.902,41.744,7,42,7c0.256,0,0.512-0.098,0.707-0.293
		c0.391-0.391,0.391-1.023,0-1.414l-5-5c-0.391-0.391-1.023-0.391-1.414,0l-5,5c-0.391,0.391-0.391,1.023,0,1.414
		C31.684,7.098,32.316,7.098,32.707,6.707z"/>
	<path fill="#010101" d="M41.293,47.293L38,50.586V44c0-0.553-0.447-1-1-1c-0.553,0-1,0.447-1,1v6.586l-3.293-3.293
		c-0.391-0.391-1.023-0.391-1.414,0c-0.391,0.391-0.391,1.023,0,1.414l4.999,4.999c0.092,0.093,0.203,0.167,0.326,0.217
		C36.74,53.974,36.87,54,37,54c0.13,0,0.26-0.026,0.382-0.077c0.123-0.051,0.234-0.125,0.326-0.217l4.999-4.999
		c0.391-0.391,0.391-1.023,0-1.414C42.316,46.902,41.684,46.902,41.293,47.293z"/>
	<path fill="#010101" d="M41.293,53.293L37,57.586l-4.293-4.293c-0.391-0.391-1.023-0.391-1.414,0c-0.391,0.391-0.391,1.023,0,1.414
		l5,5C36.488,59.902,36.744,60,37,60c0.256,0,0.512-0.098,0.707-0.293l5-5c0.391-0.391,0.391-1.023,0-1.414
		C42.316,52.902,41.684,52.902,41.293,53.293z"/>
</g>
</svg>
