<?xml version="1.0" encoding="utf-8"?>
<!-- Generator: Adobe Illustrator 17.0.0, SVG Export Plug-In . SVG Version: 6.00 Build 0)  -->
<!DOCTYPE svg PUBLIC "-//W3C//DTD SVG 1.1//EN" "http://www.w3.org/Graphics/SVG/1.1/DTD/svg11.dtd">
<svg version="1.1" xmlns="http://www.w3.org/2000/svg" xmlns:xlink="http://www.w3.org/1999/xlink" x="0px" y="0px" width="60px"
	 height="60px" viewBox="0 0 60 60" enable-background="new 0 0 60 60" xml:space="preserve">
<g id="Layer_1">
	<g>
		<path fill="#010101" d="M57,22h-7v-5c0-0.552-0.447-1-1-1H37c-0.553,0-1,0.448-1,1s0.447,1,1,1h11v5c0,0.552,0.447,1,1,1h7v14h-7
			c-0.553,0-1,0.448-1,1v5H38c-0.553,0-1,0.448-1,1s0.447,1,1,1h11c0.553,0,1-0.448,1-1v-5h7c0.553,0,1-0.448,1-1V23
			C58,22.448,57.553,22,57,22z"/>
		<path fill="#010101" d="M19,44H2V18h17c0.553,0,1-0.448,1-1s-0.447-1-1-1H1c-0.553,0-1,0.448-1,1v28c0,0.552,0.447,1,1,1h18
			c0.553,0,1-0.448,1-1S19.553,44,19,44z"/>
		<path fill="#010101" d="M38.851,28.474C38.668,28.18,38.347,28,38,28h-8V16c0-0.468-0.324-0.873-0.78-0.976
			c-0.456-0.102-0.923,0.125-1.123,0.547l-9,19c-0.148,0.31-0.125,0.673,0.059,0.963C19.338,35.824,19.657,36,20,36h8v11
			c0,0.464,0.319,0.867,0.771,0.973C28.847,47.991,28.924,48,29,48c0.372,0,0.723-0.208,0.894-0.553l9-18
			C39.05,29.137,39.033,28.769,38.851,28.474z M30,42.764V35c0-0.552-0.447-1-1-1h-7.42L28,20.447V29c0,0.552,0.447,1,1,1h7.382
			L30,42.764z"/>
	</g>
</g>
<g id="nyt_x5F_exporter_x5F_info" display="none">
</g>
</svg>
