<?xml version="1.0" encoding="utf-8"?>
<!-- Generator: Adobe Illustrator 17.0.0, SVG Export Plug-In . SVG Version: 6.00 Build 0)  -->
<!DOCTYPE svg PUBLIC "-//W3C//DTD SVG 1.1//EN" "http://www.w3.org/Graphics/SVG/1.1/DTD/svg11.dtd">
<svg version="1.1" xmlns="http://www.w3.org/2000/svg" xmlns:xlink="http://www.w3.org/1999/xlink" x="0px" y="0px" width="60px"
	 height="60px" viewBox="0 0 60 60" enable-background="new 0 0 60 60" xml:space="preserve">
<g id="Layer_1">
	<g>
		<path fill="#010101" d="M45,20H35H25H15H5c-0.552,0-1,0.448-1,1v20c0,0.552,0.448,1,1,1h10h10h10h10c0.552,0,1-0.448,1-1V21
			C46,20.448,45.552,20,45,20z M6,22h8v18H6V22z M16,22h8v18h-8V22z M26,22h8v18h-8V22z M44,40h-8V22h8V40z"/>
		<path fill="#010101" d="M57,22h-7v-5c0-0.552-0.448-1-1-1H1c-0.552,0-1,0.448-1,1v28c0,0.552,0.448,1,1,1h48c0.552,0,1-0.448,1-1
			v-5h7c0.552,0,1-0.448,1-1V23C58,22.448,57.552,22,57,22z M56,38h-7c-0.552,0-1,0.448-1,1v5H2V18h46v5c0,0.552,0.448,1,1,1h7V38z"
			/>
	</g>
</g>
<g id="nyt_x5F_exporter_x5F_info" display="none">
</g>
</svg>
