<?xml version="1.0" encoding="utf-8"?>
<!-- Generator: Adobe Illustrator 17.0.0, SVG Export Plug-In . SVG Version: 6.00 Build 0)  -->
<!DOCTYPE svg PUBLIC "-//W3C//DTD SVG 1.1//EN" "http://www.w3.org/Graphics/SVG/1.1/DTD/svg11.dtd">
<svg version="1.1" xmlns="http://www.w3.org/2000/svg" xmlns:xlink="http://www.w3.org/1999/xlink" x="0px" y="0px" width="60px"
	 height="60px" viewBox="0 0 60 60" enable-background="new 0 0 60 60" xml:space="preserve">
<g id="Layer_1">
	<g>
		<path fill="#010101" d="M52,6H8v26h44V6z M50,30H10V8h40V30z"/>
		<path fill="#010101" d="M21,46H7c-0.552,0-1,0.448-1,1c0,0.552,0.448,1,1,1h14c0.552,0,1-0.448,1-1C22,46.448,21.552,46,21,46z"/>
		<path fill="#010101" d="M13,50H7c-0.552,0-1,0.448-1,1c0,0.552,0.448,1,1,1h6c0.552,0,1-0.448,1-1C14,50.448,13.552,50,13,50z"/>
		<path fill="#010101" d="M30,50h24v-6H30V50z M32,46h20v2H32V46z"/>
		<path fill="#010101" d="M55,40H5c-2.757,0-5,2.243-5,5v14c0,0.552,0.448,1,1,1h58c0.552,0,1-0.448,1-1V45
			C60,42.243,57.757,40,55,40z M58,58H2V45c0-1.654,1.346-3,3-3h50c1.654,0,3,1.346,3,3V58z"/>
		<path fill="#010101" d="M7,38h46c2.757,0,5-2.243,5-5V5c0-2.757-2.243-5-5-5H7C4.243,0,2,2.243,2,5v28C2,35.757,4.243,38,7,38z
			 M4,5c0-1.654,1.346-3,3-3h46c1.654,0,3,1.346,3,3v28c0,1.654-1.346,3-3,3H7c-1.654,0-3-1.346-3-3V5z"/>
	</g>
</g>
<g id="nyt_x5F_exporter_x5F_info" display="none">
</g>
</svg>
