<?xml version="1.0" encoding="utf-8"?>
<!-- Generator: Adobe Illustrator 17.0.0, SVG Export Plug-In . SVG Version: 6.00 Build 0)  -->
<!DOCTYPE svg PUBLIC "-//W3C//DTD SVG 1.1//EN" "http://www.w3.org/Graphics/SVG/1.1/DTD/svg11.dtd">
<svg version="1.1" xmlns="http://www.w3.org/2000/svg" xmlns:xlink="http://www.w3.org/1999/xlink" x="0px" y="0px" width="60px"
	 height="60px" viewBox="0 0 60 60" enable-background="new 0 0 60 60" xml:space="preserve">
<g id="Layer_1">
	<g>
		<path fill="#010101" d="M59,0H1C0.448,0,0,0.448,0,1v58c0,0.552,0.448,1,1,1h58c0.552,0,1-0.448,1-1V1C60,0.448,59.552,0,59,0z
			 M58,58H2V2h56V58z"/>
		<path fill="#010101" d="M30,54c13.233,0,24-10.767,24-24S43.233,6,30,6S6,16.767,6,30S16.767,54,30,54z M30,8
			c12.131,0,22,9.869,22,22c0,12.131-9.869,22-22,22S8,42.131,8,30C8,17.869,17.869,8,30,8z"/>
		<path fill="#010101" d="M30,37c3.86,0,7-3.14,7-7c0-3.86-3.14-7-7-7s-7,3.14-7,7C23,33.86,26.14,37,30,37z M30,25
			c2.757,0,5,2.243,5,5c0,2.757-2.243,5-5,5s-5-2.243-5-5C25,27.243,27.243,25,30,25z"/>
		<path fill="#010101" d="M30,33c1.654,0,3-1.346,3-3s-1.346-3-3-3s-3,1.346-3,3S28.346,33,30,33z M30,29c0.551,0,1,0.449,1,1
			c0,0.551-0.449,1-1,1c-0.551,0-1-0.449-1-1C29,29.449,29.449,29,30,29z"/>
		<path fill="#010101" d="M30,14c8.822,0,16,7.178,16,16c0,0.552,0.448,1,1,1s1-0.448,1-1c0-9.925-8.075-18-18-18
			c-0.552,0-1,0.448-1,1C29,13.552,29.448,14,30,14z"/>
		<path fill="#010101" d="M30,48c0.552,0,1-0.448,1-1c0-0.552-0.448-1-1-1c-8.822,0-16-7.178-16-16c0-0.552-0.448-1-1-1
			s-1,0.448-1,1C12,39.925,20.075,48,30,48z"/>
		<path fill="#010101" d="M30,18c6.617,0,12,5.383,12,12c0,0.552,0.448,1,1,1s1-0.448,1-1c0-7.72-6.28-14-14-14
			c-0.552,0-1,0.448-1,1C29,17.552,29.448,18,30,18z"/>
		<path fill="#010101" d="M30,44c0.552,0,1-0.448,1-1c0-0.552-0.448-1-1-1c-6.617,0-12-5.383-12-12c0-0.552-0.448-1-1-1
			s-1,0.448-1,1C16,37.72,22.28,44,30,44z"/>
	</g>
</g>
<g id="nyt_x5F_exporter_x5F_info" display="none">
</g>
</svg>
