<?xml version="1.0" encoding="utf-8"?>
<!-- Generator: Adobe Illustrator 17.0.0, SVG Export Plug-In . SVG Version: 6.00 Build 0)  -->
<!DOCTYPE svg PUBLIC "-//W3C//DTD SVG 1.1//EN" "http://www.w3.org/Graphics/SVG/1.1/DTD/svg11.dtd">
<svg version="1.1" xmlns="http://www.w3.org/2000/svg" xmlns:xlink="http://www.w3.org/1999/xlink" x="0px" y="0px" width="60px"
	 height="60px" viewBox="0 0 60 60" enable-background="new 0 0 60 60" xml:space="preserve">
<g id="Layer_1">
	<g>
		<path fill="#010101" d="M59,0H49H11H9C8.734,0,8.48,0.106,8.293,0.293l-8,8C0.105,8.481,0,8.735,0,9v50c0,0.552,0.447,1,1,1h10h38
			h10c0.553,0,1-0.448,1-1V1C60,0.448,59.553,0,59,0z M48,2v10H12V2H48z M12,58v-6h36v6H12z M58,58h-8v-7c0-0.552-0.447-1-1-1H11
			c-0.553,0-1,0.448-1,1v7H2V9.414L9.414,2H10v11c0,0.552,0.447,1,1,1h38c0.553,0,1-0.448,1-1V2h8V58z"/>
		<path fill="#010101" d="M49,46H37c-0.553,0-1,0.448-1,1s0.447,1,1,1h12c0.553,0,1-0.448,1-1S49.553,46,49,46z"/>
		<path fill="#010101" d="M25,25c-0.553,0-1,0.448-1,1v6c0,0.552,0.447,1,1,1c0.553,0,1-0.448,1-1v-6C26,25.448,25.553,25,25,25z"/>
		<path fill="#010101" d="M41,29c0-6.065-4.935-11-11-11c-6.065,0-11,4.935-11,11c0,6.065,4.935,11,11,11C36.065,40,41,35.065,41,29
			z M30,38c-4.963,0-9-4.038-9-9s4.037-9,9-9c4.963,0,9,4.038,9,9S34.963,38,30,38z"/>
		<circle fill="#010101" cx="30" cy="29" r="2"/>
	</g>
</g>
<g id="nyt_x5F_exporter_x5F_info" display="none">
</g>
</svg>
