<?xml version="1.0" encoding="utf-8"?>
<!-- Generator: Adobe Illustrator 17.0.0, SVG Export Plug-In . SVG Version: 6.00 Build 0)  -->
<!DOCTYPE svg PUBLIC "-//W3C//DTD SVG 1.1//EN" "http://www.w3.org/Graphics/SVG/1.1/DTD/svg11.dtd">
<svg version="1.1" xmlns="http://www.w3.org/2000/svg" xmlns:xlink="http://www.w3.org/1999/xlink" x="0px" y="0px" width="60px"
	 height="60px" viewBox="0 0 60 60" enable-background="new 0 0 60 60" xml:space="preserve">
<g id="Layer_1">
	<g>
		<path fill="#010101" d="M51,46H9c-0.553,0-1,0.448-1,1c0,0.552,0.447,1,1,1h42c0.553,0,1-0.448,1-1C52,46.448,51.553,46,51,46z"/>
		<path fill="#010101" d="M53.464,12.589C52.753,10.016,50.104,8,47.435,8h-34.87c-2.676,0-5.302,2.028-5.977,4.618L1.042,33.877
			C0.868,34.544,0,37.9,0,38.5V39v10c0,2.757,2.243,5,5,5h50c2.757,0,5-2.243,5-5V39c0-0.389-0.055-0.764-0.14-1.128
			c0.081-0.145,0.14-0.302,0.14-0.48v-0.5c0-0.602-0.917-3.955-1.101-4.622L53.464,12.589z M8.523,13.123
			C8.965,11.43,10.816,10,12.565,10h34.87c1.755,0,3.633,1.43,4.101,3.122l5.436,19.681c0.192,0.697,0.358,1.324,0.501,1.879
			C56.741,34.26,55.904,34,55,34H5c-0.728,0-1.415,0.164-2.039,0.445c0.006-0.022,0.011-0.041,0.016-0.063L8.523,13.123z M58,49
			c0,1.654-1.346,3-3,3H5c-1.654,0-3-1.346-3-3V39c0-1.654,1.346-3,3-3h50c1.654,0,3,1.346,3,3V49z"/>
		<circle fill="#010101" cx="50" cy="42" r="2"/>
		<circle fill="#010101" cx="44" cy="42" r="2"/>
	</g>
</g>
<g id="nyt_x5F_exporter_x5F_info" display="none">
</g>
</svg>
