<?xml version="1.0" encoding="utf-8"?>
<!-- Generator: Adobe Illustrator 17.0.0, SVG Export Plug-In . SVG Version: 6.00 Build 0)  -->
<!DOCTYPE svg PUBLIC "-//W3C//DTD SVG 1.1//EN" "http://www.w3.org/Graphics/SVG/1.1/DTD/svg11.dtd">
<svg version="1.1" xmlns="http://www.w3.org/2000/svg" xmlns:xlink="http://www.w3.org/1999/xlink" x="0px" y="0px" width="60px"
	 height="60px" viewBox="0 0 60 60" enable-background="new 0 0 60 60" xml:space="preserve">
<g id="Layer_1">
	<g>
		<path fill="#010101" d="M4.84,52h24v4h-16c-0.552,0-1,0.448-1,1c0,0.552,0.448,1,1,1h36c0.552,0,1-0.448,1-1c0-0.552-0.448-1-1-1
			h-18v-4h24c2.757,0,5-2.243,5-5V9c0-2.757-2.243-5-5-5h-50c-2.757,0-5,2.243-5,5v38C-0.16,49.757,2.083,52,4.84,52z M54.84,50h-50
			c-1.654,0-3-1.346-3-3v-5h56v5C57.84,48.654,56.495,50,54.84,50z M4.84,6h50c1.654,0,3,1.346,3,3v31h-56V9
			C1.84,7.346,3.186,6,4.84,6z"/>
		<circle fill="#010101" cx="29.84" cy="46" r="2"/>
	</g>
</g>
<g id="nyt_x5F_exporter_x5F_info" display="none">
</g>
</svg>
