<?xml version="1.0" encoding="utf-8"?>
<!-- Generator: Adobe Illustrator 17.0.0, SVG Export Plug-In . SVG Version: 6.00 Build 0)  -->
<!DOCTYPE svg PUBLIC "-//W3C//DTD SVG 1.1//EN" "http://www.w3.org/Graphics/SVG/1.1/DTD/svg11.dtd">
<svg version="1.1" xmlns="http://www.w3.org/2000/svg" xmlns:xlink="http://www.w3.org/1999/xlink" x="0px" y="0px" width="60px"
	 height="60px" viewBox="0 0 60 60" enable-background="new 0 0 60 60" xml:space="preserve">
<g id="Layer_1">
	<g>
		<path fill="#010101" d="M49,18H36v-3c0-0.552-0.448-1-1-1h-3V6c0-3.309-2.691-6-6-6H13c-0.552,0-1,0.448-1,1s0.448,1,1,1h13
			c2.206,0,4,1.794,4,4v8h-5c-0.552,0-1,0.448-1,1v3H11C4.831,18,0,22.831,0,29v25c0,3.309,2.711,6,6.043,6
			c3.226,0,3.602-0.668,7.197-7.06c1.445-2.57,3.407-6.06,6.327-10.94h20.867c2.899,4.847,4.845,8.328,6.279,10.892
			C50.233,59.191,50.686,60,54,60c3.364,0,6-2.636,6-6V29C60,22.831,55.169,18,49,18z M26,16h8v2h-8V16z M58,54c0,2.243-1.757,4-4,4
			c-2.141,0-2.141,0-5.542-6.084c-1.487-2.66-3.524-6.303-6.6-11.431C41.677,40.184,41.351,40,41,40H19
			c-0.351,0-0.677,0.184-0.857,0.485c-3.096,5.159-5.148,8.809-6.646,11.474C8.1,58,8.1,58,6.043,58C3.813,58,2,56.206,2,54V29
			c0-5.047,3.953-9,9-9h14h10h14c5.047,0,9,3.953,9,9V54z"/>
		<path fill="#010101" d="M18,30h-4v-4c0-0.552-0.448-1-1-1s-1,0.448-1,1v4H8c-0.552,0-1,0.448-1,1s0.448,1,1,1h4v4
			c0,0.552,0.448,1,1,1s1-0.448,1-1v-4h4c0.552,0,1-0.448,1-1S18.552,30,18,30z"/>
		<path fill="#010101" d="M27,36h-4c-0.552,0-1,0.448-1,1s0.448,1,1,1h4c0.552,0,1-0.448,1-1S27.552,36,27,36z"/>
		<path fill="#010101" d="M37,36h-4c-0.552,0-1,0.448-1,1s0.448,1,1,1h4c0.552,0,1-0.448,1-1S37.552,36,37,36z"/>
		<circle fill="#010101" cx="42" cy="31" r="2"/>
		<circle fill="#010101" cx="52" cy="31" r="2"/>
		<circle fill="#010101" cx="47" cy="26" r="2"/>
		<circle fill="#010101" cx="47" cy="36" r="2"/>
	</g>
</g>
<g id="nyt_x5F_exporter_x5F_info" display="none">
</g>
</svg>
