<?xml version="1.0" encoding="utf-8"?>
<!-- Generator: Adobe Illustrator 17.0.0, SVG Export Plug-In . SVG Version: 6.00 Build 0)  -->
<!DOCTYPE svg PUBLIC "-//W3C//DTD SVG 1.1//EN" "http://www.w3.org/Graphics/SVG/1.1/DTD/svg11.dtd">
<svg version="1.1" xmlns="http://www.w3.org/2000/svg" xmlns:xlink="http://www.w3.org/1999/xlink" x="0px" y="0px" width="60px"
	 height="60px" viewBox="0 0 60 60" enable-background="new 0 0 60 60" xml:space="preserve">
<g id="Layer_1">
	<g>
		<path fill="#010101" d="M11,40c-0.552,0-1,0.448-1,1v16c0,0.552,0.448,1,1,1h38c0.552,0,1-0.448,1-1V41c0-0.552-0.448-1-1-1h-3v-3
			c0-1.654-1.346-3-3-3h-8c-1.654,0-3,1.346-3,3v3h-8V19.941c4.493-0.5,8-4.317,8-8.941c0-4.962-4.038-9-9-9s-9,4.038-9,9
			c0,4.624,3.507,8.441,8,8.941V40H11z M16,11c0-3.86,3.14-7,7-7s7,3.14,7,7c0,3.86-3.14,7-7,7S16,14.86,16,11z M48,56H12V42h36V56z
			 M34,37c0-0.551,0.449-1,1-1h8c0.551,0,1,0.449,1,1v3H34V37z"/>
		<path fill="#010101" d="M43,46H17c-0.552,0-1,0.448-1,1s0.448,1,1,1h26c0.552,0,1-0.448,1-1S43.552,46,43,46z"/>
	</g>
</g>
<g id="nyt_x5F_exporter_x5F_info" display="none">
</g>
</svg>
