<?xml version="1.0" encoding="utf-8"?>
<!-- Generator: Adobe Illustrator 17.0.0, SVG Export Plug-In . SVG Version: 6.00 Build 0)  -->
<!DOCTYPE svg PUBLIC "-//W3C//DTD SVG 1.1//EN" "http://www.w3.org/Graphics/SVG/1.1/DTD/svg11.dtd">
<svg version="1.1" xmlns="http://www.w3.org/2000/svg" xmlns:xlink="http://www.w3.org/1999/xlink" x="0px" y="0px" width="60px"
	 height="60px" viewBox="0 0 60 60" enable-background="new 0 0 60 60" xml:space="preserve">
<g id="Layer_1">
	<g>
		<path fill="#010101" d="M46,25c-3.693,0-7.15,1.417-9.784,4H36v-3c0-0.552-0.448-1-1-1h-3v-7c0-4.962-4.038-9-9-9h-8
			c-0.552,0-1,0.448-1,1s0.448,1,1,1h8c3.86,0,7,3.14,7,7v7h-5c-0.552,0-1,0.448-1,1v3h-0.216c-2.634-2.583-6.091-4-9.784-4
			C6.28,25,0,31.28,0,39c0,7.72,6.28,14,14,14c3.693,0,7.15-1.417,9.784-4h12.432c2.634,2.583,6.091,4,9.784,4c7.72,0,14-6.28,14-14
			C60,31.28,53.72,25,46,25z M26,27h8v2h-8V27z M46,51c-3.287,0-6.358-1.311-8.646-3.693C37.165,47.111,36.905,47,36.633,47H23.367
			c-0.272,0-0.533,0.111-0.721,0.307C20.358,49.689,17.287,51,14,51C7.383,51,2,45.617,2,39s5.383-12,12-12
			c3.287,0,6.358,1.312,8.646,3.693C22.834,30.889,23.095,31,23.367,31h13.266c0.272,0,0.533-0.111,0.721-0.307
			C39.642,28.312,42.713,27,46,27c6.617,0,12,5.383,12,12S52.617,51,46,51z"/>
		<path fill="#010101" d="M18,38h-4v-4c0-0.552-0.448-1-1-1s-1,0.448-1,1v4H8c-0.552,0-1,0.448-1,1s0.448,1,1,1h4v4
			c0,0.552,0.448,1,1,1s1-0.448,1-1v-4h4c0.552,0,1-0.448,1-1S18.552,38,18,38z"/>
		<path fill="#010101" d="M27,43h-2c-0.552,0-1,0.448-1,1s0.448,1,1,1h2c0.552,0,1-0.448,1-1S27.552,43,27,43z"/>
		<path fill="#010101" d="M35,43h-2c-0.552,0-1,0.448-1,1s0.448,1,1,1h2c0.552,0,1-0.448,1-1S35.552,43,35,43z"/>
		<circle fill="#010101" cx="42" cy="39" r="2"/>
		<circle fill="#010101" cx="52" cy="39" r="2"/>
		<circle fill="#010101" cx="47" cy="34" r="2"/>
		<circle fill="#010101" cx="47" cy="44" r="2"/>
	</g>
</g>
<g id="nyt_x5F_exporter_x5F_info" display="none">
</g>
</svg>
