<?xml version="1.0" encoding="utf-8"?>
<!-- Generator: Adobe Illustrator 17.0.0, SVG Export Plug-In . SVG Version: 6.00 Build 0)  -->
<!DOCTYPE svg PUBLIC "-//W3C//DTD SVG 1.1//EN" "http://www.w3.org/Graphics/SVG/1.1/DTD/svg11.dtd">
<svg version="1.1" xmlns="http://www.w3.org/2000/svg" xmlns:xlink="http://www.w3.org/1999/xlink" x="0px" y="0px" width="60px"
	 height="60px" viewBox="0 0 60 60" enable-background="new 0 0 60 60" xml:space="preserve">
<g id="Layer_1">
	<g>
		<path fill="#010101" d="M50,4H33c-1.458,0-3-1.542-3-3c0-0.552-0.447-1-1-1c-0.553,0-1,0.448-1,1c0,2.57,2.43,5,5,5h17
			c5.496,0,8,3.628,8,7c0,3.372-2.504,7-8,7H17c-5.384,0-9,5.171-9,10v4H1c-0.553,0-1,0.448-1,1v24c0,0.552,0.447,1,1,1h10h36h10
			c0.553,0,1-0.448,1-1V35c0-0.552-0.447-1-1-1H10v-4c0-3.269,2.493-8,7-8h33c6.565,0,10-4.527,10-9C60,8.527,56.565,4,50,4z M12,58
			v-2h34v2H12z M56,58h-8v-3c0-0.552-0.447-1-1-1H11c-0.553,0-1,0.448-1,1v3H2V36h54V58z"/>
		<path fill="#010101" d="M6,41c0,0.552,0.447,1,1,1h44c0.553,0,1-0.448,1-1c0-0.552-0.447-1-1-1H7C6.447,40,6,40.448,6,41z"/>
		<path fill="#010101" d="M51,44H7c-0.553,0-1,0.448-1,1c0,0.552,0.447,1,1,1h44c0.553,0,1-0.448,1-1C52,44.448,51.553,44,51,44z"/>
		<path fill="#010101" d="M51,48H7c-0.553,0-1,0.448-1,1c0,0.552,0.447,1,1,1h44c0.553,0,1-0.448,1-1C52,48.448,51.553,48,51,48z"/>
		<circle fill="#010101" cx="7" cy="55" r="1"/>
		<circle fill="#010101" cx="51" cy="55" r="1"/>
	</g>
</g>
<g id="nyt_x5F_exporter_x5F_info" display="none">
</g>
</svg>
