<?xml version="1.0" encoding="utf-8"?>
<!-- Generator: Adobe Illustrator 17.0.0, SVG Export Plug-In . SVG Version: 6.00 Build 0)  -->
<!DOCTYPE svg PUBLIC "-//W3C//DTD SVG 1.1//EN" "http://www.w3.org/Graphics/SVG/1.1/DTD/svg11.dtd">
<svg version="1.1" xmlns="http://www.w3.org/2000/svg" xmlns:xlink="http://www.w3.org/1999/xlink" x="0px" y="0px" width="60px"
	 height="60px" viewBox="0 0 60 60" enable-background="new 0 0 60 60" xml:space="preserve">
<g id="Layer_1">
	<g>
		<rect x="20" y="18" fill="#010101" width="22" height="2"/>
		<rect x="20" y="22" fill="#010101" width="22" height="2"/>
		<rect x="20" y="26" fill="#010101" width="22" height="2"/>
		<rect x="20" y="30" fill="#010101" width="22" height="2"/>
		<rect x="20" y="34" fill="#010101" width="22" height="2"/>
		<rect x="20" y="14" fill="#010101" width="13" height="2"/>
		<path fill="#010101" d="M11,60h40c2.757,0,5-2.243,5-5V5c0-2.757-2.243-5-5-5H11C8.243,0,6,2.243,6,5v50C6,57.757,8.243,60,11,60z
			 M51,58H11c-1.654,0-3-1.346-3-3V40h6v4h34v-4h6v15C54,56.654,52.654,58,51,58z M14,30H8v-6h6V30z M14,32v6H8v-6H14z M16,42V8h30
			v34H16z M48,24h6v6h-6V24z M48,32h6v6h-6V32z M11,2h40c1.654,0,3,1.346,3,3v17h-6V6H14v16H8V5C8,3.346,9.346,2,11,2z"/>
		<path fill="#010101" d="M34,48h-6c-1.103,0-2,0.897-2,2v2c0,1.103,0.897,2,2,2h6c1.102,0,2-0.897,2-2v-2
			C36,48.897,35.102,48,34,48z M33.997,52H28v-2h6L33.997,52z"/>
		<circle fill="#010101" cx="17" cy="51" r="1"/>
		<circle fill="#010101" cx="21" cy="51" r="1"/>
		<circle fill="#010101" cx="41" cy="51" r="1"/>
		<circle fill="#010101" cx="45" cy="51" r="1"/>
	</g>
</g>
<g id="nyt_x5F_exporter_x5F_info" display="none">
</g>
</svg>
