<?xml version="1.0" encoding="utf-8"?>
<!-- Generator: Adobe Illustrator 17.0.0, SVG Export Plug-In . SVG Version: 6.00 Build 0)  -->
<!DOCTYPE svg PUBLIC "-//W3C//DTD SVG 1.1//EN" "http://www.w3.org/Graphics/SVG/1.1/DTD/svg11.dtd">
<svg version="1.1" xmlns="http://www.w3.org/2000/svg" xmlns:xlink="http://www.w3.org/1999/xlink" x="0px" y="0px" width="60px"
	 height="60px" viewBox="0 0 60 60" enable-background="new 0 0 60 60" xml:space="preserve">
<g id="Layer_1">
	<g>
		<path fill="#010101" d="M59,42h-1V13c0-2.757-2.243-5-5-5H7c-2.757,0-5,2.243-5,5v29H1c-0.553,0-1,0.448-1,1v4
			c0,2.757,2.243,5,5,5h50c2.757,0,5-2.243,5-5v-4C60,42.448,59.553,42,59,42z M4,13c0-1.654,1.346-3,3-3h46c1.654,0,3,1.346,3,3v29
			H35c-0.553,0-1,0.448-1,1v1h-8v-1c0-0.552-0.447-1-1-1H4V13z M58,47c0,1.654-1.346,3-3,3H5c-1.654,0-3-1.346-3-3v-3h22v1
			c0,0.552,0.447,1,1,1h10c0.553,0,1-0.448,1-1v-1h22V47z"/>
		<path fill="#010101" d="M54,12H6v28h48V12z M52,38H8V14h44V38z"/>
	</g>
</g>
<g id="nyt_x5F_exporter_x5F_info" display="none">
</g>
</svg>
