<?xml version="1.0" encoding="utf-8"?>
<!-- Generator: Adobe Illustrator 17.0.0, SVG Export Plug-In . SVG Version: 6.00 Build 0)  -->
<!DOCTYPE svg PUBLIC "-//W3C//DTD SVG 1.1//EN" "http://www.w3.org/Graphics/SVG/1.1/DTD/svg11.dtd">
<svg version="1.1" xmlns="http://www.w3.org/2000/svg" xmlns:xlink="http://www.w3.org/1999/xlink" x="0px" y="0px" width="60px"
	 height="60px" viewBox="0 0 60 60" enable-background="new 0 0 60 60" xml:space="preserve">
<g id="Layer_1">
	<g>
		<path fill="#010101" d="M59.936,50.649L54,34.818V7c0-2.757-2.243-5-5-5H11C8.243,2,6,4.243,6,7v27.818L0.063,50.649
			c-0.039,0.103-0.053,0.21-0.057,0.317C0.006,50.978,0,50.988,0,51v2c0,2.757,2.243,5,5,5h50c2.757,0,5-2.243,5-5v-2
			c0-0.012-0.006-0.022-0.007-0.034C59.99,50.859,59.975,50.752,59.936,50.649z M8,7c0-1.654,1.346-3,3-3h38c1.654,0,3,1.346,3,3v27
			H8V7z M7.693,36h44.613l5.25,14H2.443L7.693,36z M58,53c0,1.654-1.346,3-3,3H5c-1.654,0-3-1.346-3-3v-1h56V53z"/>
		<path fill="#010101" d="M10,32h40V6H10V32z M12,8h36v22H12V8z"/>
		<path fill="#010101" d="M21.279,40l-2.667,8h22.775l-2.667-8H21.279z M21.388,46l1.333-4h14.559l1.333,4H21.388z"/>
	</g>
</g>
<g id="nyt_x5F_exporter_x5F_info" display="none">
</g>
</svg>
