<?xml version="1.0" encoding="utf-8"?>
<!-- Generator: Adobe Illustrator 17.0.0, SVG Export Plug-In . SVG Version: 6.00 Build 0)  -->
<!DOCTYPE svg PUBLIC "-//W3C//DTD SVG 1.1//EN" "http://www.w3.org/Graphics/SVG/1.1/DTD/svg11.dtd">
<svg version="1.1" xmlns="http://www.w3.org/2000/svg" xmlns:xlink="http://www.w3.org/1999/xlink" x="0px" y="0px" width="60px"
	 height="60px" viewBox="0 0 60 60" enable-background="new 0 0 60 60" xml:space="preserve">
<g id="Layer_1">
	<g>
		<path fill="#010101" d="M7,32c-0.553,0-1,0.448-1,1v26c0,0.552,0.447,1,1,1h44c0.553,0,1-0.448,1-1V14
			c0-0.265-0.106-0.519-0.293-0.707l-13-13C38.519,0.106,38.266,0,38,0H7C6.447,0,6,0.448,6,1v22c0,0.552,0.447,1,1,1h3v8H7z M11,22
			H8V2h29.586L50,14.414V58H8V34h3c0.553,0,1-0.448,1-1V23C12,22.448,11.553,22,11,22z"/>
		<path fill="#010101" d="M17,22c0.553,0,1-0.448,1-1V9c0-0.552-0.447-1-1-1c-0.553,0-1,0.448-1,1v12C16,21.552,16.447,22,17,22z"/>
		<path fill="#010101" d="M25,22c0.553,0,1-0.448,1-1V9c0-0.552-0.447-1-1-1c-0.553,0-1,0.448-1,1v12C24,21.552,24.447,22,25,22z"/>
		<path fill="#010101" d="M33,22c0.553,0,1-0.448,1-1V9c0-0.552-0.447-1-1-1c-0.553,0-1,0.448-1,1v12C32,21.552,32.447,22,33,22z"/>
		<path fill="#010101" d="M41,24c0.553,0,1-0.448,1-1V13c0-0.552-0.447-1-1-1c-0.553,0-1,0.448-1,1v10C40,23.552,40.447,24,41,24z"
			/>
		<path fill="#010101" d="M24,52h10c0.008,0.001,0.015,0,0.019,0c0.553,0,1-0.448,1-1c0-0.261-0.1-0.498-0.263-0.677l-4.909-7.853
			c-0.365-0.585-1.33-0.585-1.695,0l-5,8c-0.193,0.308-0.203,0.697-0.027,1.015C23.302,51.803,23.637,52,24,52z M29,44.887
			L32.195,50h-6.391L29,44.887z"/>
	</g>
</g>
<g id="nyt_x5F_exporter_x5F_info" display="none">
</g>
</svg>
