<?xml version="1.0" encoding="utf-8"?>
<!-- Generator: Adobe Illustrator 17.0.0, SVG Export Plug-In . SVG Version: 6.00 Build 0)  -->
<!DOCTYPE svg PUBLIC "-//W3C//DTD SVG 1.1//EN" "http://www.w3.org/Graphics/SVG/1.1/DTD/svg11.dtd">
<svg version="1.1" xmlns="http://www.w3.org/2000/svg" xmlns:xlink="http://www.w3.org/1999/xlink" x="0px" y="0px" width="60px"
	 height="60px" viewBox="0 0 60 60" enable-background="new 0 0 60 60" xml:space="preserve">
<g id="Layer_1">
	<g>
		<path fill="#010101" d="M21,0c-6.065,0-11,4.935-11,11v38c0,6.065,4.935,11,11,11h18c6.065,0,11-4.935,11-11V11
			c0-6.065-4.935-11-11-11H21z M48,11v38c0,4.962-4.038,9-9,9H21c-4.962,0-9-4.038-9-9V11c0-4.962,4.038-9,9-9h18
			C43.962,2,48,6.038,48,11z"/>
		<path fill="#010101" d="M16,34h28V10H16V34z M18,12h24v20H18V12z"/>
		<path fill="#010101" d="M24,8h12c0.552,0,1-0.448,1-1c0-0.552-0.448-1-1-1H24c-0.552,0-1,0.448-1,1C23,7.552,23.448,8,24,8z"/>
		<rect x="22" y="38" fill="#010101" width="2" height="2"/>
		<rect x="29" y="38" fill="#010101" width="2" height="2"/>
		<rect x="36" y="38" fill="#010101" width="2" height="2"/>
		<rect x="22" y="44" fill="#010101" width="2" height="2"/>
		<rect x="29" y="44" fill="#010101" width="2" height="2"/>
		<rect x="36" y="44" fill="#010101" width="2" height="2"/>
		<rect x="22" y="50" fill="#010101" width="2" height="2"/>
		<rect x="29" y="50" fill="#010101" width="2" height="2"/>
		<rect x="36" y="50" fill="#010101" width="2" height="2"/>
	</g>
</g>
<g id="nyt_x5F_exporter_x5F_info" display="none">
</g>
</svg>
