<?xml version="1.0" encoding="utf-8"?>
<!-- Generator: Adobe Illustrator 17.0.0, SVG Export Plug-In . SVG Version: 6.00 Build 0)  -->
<!DOCTYPE svg PUBLIC "-//W3C//DTD SVG 1.1//EN" "http://www.w3.org/Graphics/SVG/1.1/DTD/svg11.dtd">
<svg version="1.1" xmlns="http://www.w3.org/2000/svg" xmlns:xlink="http://www.w3.org/1999/xlink" x="0px" y="0px" width="60px"
	 height="60px" viewBox="0 0 60 60" enable-background="new 0 0 60 60" xml:space="preserve">
<g id="Layer_1">
	<g>
		<path fill="#010101" d="M33,60c9.374,0,17-7.626,17-17V17c0-9.374-7.626-17-17-17h-6c-9.374,0-17,7.626-17,17v26
			c0,9.374,7.626,17,17,17H33z M12,43V17c0-8.271,6.729-15,15-15h6c8.271,0,15,6.729,15,15v26c0,8.271-6.729,15-15,15h-6
			C18.729,58,12,51.271,12,43z"/>
		<path fill="#010101" d="M30,25c2.206,0,4-1.794,4-4v-6c0-2.206-1.794-4-4-4s-4,1.794-4,4v6C26,23.206,27.794,25,30,25z M28,15
			c0-1.103,0.897-2,2-2c1.102,0,2,0.897,2,2v6c0,1.103-0.898,2-2,2c-1.103,0-2-0.897-2-2V15z"/>
	</g>
</g>
<g id="nyt_x5F_exporter_x5F_info" display="none">
</g>
</svg>
