<?xml version="1.0" encoding="utf-8"?>
<!-- Generator: Adobe Illustrator 17.0.0, SVG Export Plug-In . SVG Version: 6.00 Build 0)  -->
<!DOCTYPE svg PUBLIC "-//W3C//DTD SVG 1.1//EN" "http://www.w3.org/Graphics/SVG/1.1/DTD/svg11.dtd">
<svg version="1.1" xmlns="http://www.w3.org/2000/svg" xmlns:xlink="http://www.w3.org/1999/xlink" x="0px" y="0px" width="60px"
	 height="60px" viewBox="0 0 60 60" enable-background="new 0 0 60 60" xml:space="preserve">
<g id="Layer_1">
	<g>
		<path fill="#010101" d="M18,40c-3.859,0-7,3.14-7,7c0,3.86,3.141,7,7,7c3.859,0,7-3.14,7-7C25,43.14,21.859,40,18,40z M18,52
			c-2.757,0-5-2.243-5-5c0-2.757,2.243-5,5-5c2.757,0,5,2.243,5,5C23,49.757,20.757,52,18,52z"/>
		<polygon fill="#010101" points="16,50 21,47 16,44 		"/>
		<rect x="7" y="28" fill="#010101" width="6" height="2"/>
		<rect x="7" y="24" fill="#010101" width="6" height="2"/>
		<rect x="7" y="20" fill="#010101" width="6" height="2"/>
		<rect x="15" y="28" fill="#010101" width="6" height="2"/>
		<rect x="15" y="24" fill="#010101" width="6" height="2"/>
		<rect x="15" y="20" fill="#010101" width="6" height="2"/>
		<rect x="23" y="28" fill="#010101" width="6" height="2"/>
		<rect x="23" y="24" fill="#010101" width="6" height="2"/>
		<rect x="23" y="20" fill="#010101" width="6" height="2"/>
		<rect x="7" y="16" fill="#010101" width="6" height="2"/>
		<rect x="23" y="16" fill="#010101" width="6" height="2"/>
		<rect x="7" y="12" fill="#010101" width="6" height="2"/>
		<path fill="#010101" d="M56,14c-1.892,0-3.471,1.323-3.886,3.09C49.78,17.51,48,19.547,48,22c0,2.453,1.78,4.49,4.114,4.91
			C52.529,28.677,54.108,30,56,30v17c0,3.309-2.691,6-6,6s-6-2.691-6-6V13c0-2.757-2.243-5-5-5h-3V5c0-2.757-2.243-5-5-5H5
			C2.243,0,0,2.243,0,5v50c0,2.757,2.243,5,5,5h26c2.757,0,5-2.243,5-5V10h3c1.654,0,3,1.346,3,3v34c0,4.411,3.589,8,8,8
			c4.411,0,8-3.589,8-8V29.444c1.19-0.694,2-1.97,2-3.444v-8C60,15.794,58.206,14,56,14z M50,22c0-1.302,0.839-2.402,2-2.816v5.631
			C50.839,24.402,50,23.302,50,22z M5,2h26c1.654,0,3,1.346,3,3v29H2V5C2,3.346,3.346,2,5,2z M31,58H5c-1.654,0-3-1.346-3-3V36h32
			v19C34,56.654,32.654,58,31,58z M58,26c0,1.103-0.898,2-2,2c-1.103,0-2-0.897-2-2v-8c0-1.103,0.897-2,2-2c1.102,0,2,0.897,2,2V26z
			"/>
	</g>
</g>
<g id="nyt_x5F_exporter_x5F_info" display="none">
</g>
</svg>
