<?xml version="1.0" encoding="utf-8"?>
<!-- Generator: Adobe Illustrator 17.0.0, SVG Export Plug-In . SVG Version: 6.00 Build 0)  -->
<!DOCTYPE svg PUBLIC "-//W3C//DTD SVG 1.1//EN" "http://www.w3.org/Graphics/SVG/1.1/DTD/svg11.dtd">
<svg version="1.1" xmlns="http://www.w3.org/2000/svg" xmlns:xlink="http://www.w3.org/1999/xlink" x="0px" y="0px" width="60px"
	 height="60px" viewBox="0 0 60 60" enable-background="new 0 0 60 60" xml:space="preserve">
<g id="Layer_1">
	<g>
		<path fill="#010101" d="M19,0c-0.552,0-1,0.448-1,1v19H9c-0.552,0-1,0.448-1,1s0.448,1,1,1h3v19c0,4.962,4.038,9,9,9h1v5
			c0,0.552,0.448,1,1,1h5v3c0,0.552,0.448,1,1,1s1-0.448,1-1v-3h5c0.552,0,1-0.448,1-1v-5h1c4.962,0,9-4.038,9-9V22h3
			c0.552,0,1-0.448,1-1s-0.448-1-1-1h-9V1c0-0.552-0.448-1-1-1s-1,0.448-1,1v19H20V1C20,0.448,19.552,0,19,0z M34,54H24v-4h10V54z
			 M44,41c0,3.86-3.14,7-7,7h-2H23h-2c-3.86,0-7-3.14-7-7V22h30V41z"/>
	</g>
</g>
<g id="nyt_x5F_exporter_x5F_info" display="none">
</g>
</svg>
