<?xml version="1.0" encoding="utf-8"?>
<!-- Generator: Adobe Illustrator 17.0.0, SVG Export Plug-In . SVG Version: 6.00 Build 0)  -->
<!DOCTYPE svg PUBLIC "-//W3C//DTD SVG 1.1//EN" "http://www.w3.org/Graphics/SVG/1.1/DTD/svg11.dtd">
<svg version="1.1" xmlns="http://www.w3.org/2000/svg" xmlns:xlink="http://www.w3.org/1999/xlink" x="0px" y="0px" width="60px"
	 height="60px" viewBox="0 0 60 60" enable-background="new 0 0 60 60" xml:space="preserve">
<g id="Layer_1">
	<g>
		<path fill="#010101" d="M55,18H5c-2.757,0-5,2.243-5,5v18c0,2.757,2.243,5,5,5h7v11c0,0.552,0.447,1,1,1h34c0.553,0,1-0.448,1-1
			V46h7c2.757,0,5-2.243,5-5V23C60,20.243,57.757,18,55,18z M46,56H14V38h32V56z M58,41c0,1.654-1.346,3-3,3h-7v-7
			c0-0.552-0.447-1-1-1H13c-0.553,0-1,0.448-1,1v7H5c-1.654,0-3-1.346-3-3V23c0-1.654,1.346-3,3-3h50c1.654,0,3,1.346,3,3V41z"/>
		<path fill="#010101" d="M47,16c0.553,0,1-0.448,1-1v-4c0-0.133-0.027-0.264-0.078-0.385c-0.051-0.122-0.124-0.231-0.216-0.323
			l-7.998-7.998c-0.092-0.092-0.201-0.166-0.323-0.216C39.264,2.027,39.134,2,39,2H13c-0.553,0-1,0.448-1,1v12c0,0.552,0.447,1,1,1
			c0.553,0,1-0.448,1-1V4h24v7c0,0.552,0.447,1,1,1h7v3C46,15.552,46.447,16,47,16z M40,5.414L44.586,10H40V5.414z"/>
		<path fill="#010101" d="M41,42H19c-0.553,0-1,0.448-1,1c0,0.552,0.447,1,1,1h22c0.553,0,1-0.448,1-1C42,42.448,41.553,42,41,42z"
			/>
		<path fill="#010101" d="M41,46H19c-0.553,0-1,0.448-1,1c0,0.552,0.447,1,1,1h22c0.553,0,1-0.448,1-1C42,46.448,41.553,46,41,46z"
			/>
		<path fill="#010101" d="M41,50H19c-0.553,0-1,0.448-1,1c0,0.552,0.447,1,1,1h22c0.553,0,1-0.448,1-1C42,50.448,41.553,50,41,50z"
			/>
		<path fill="#010101" d="M8,22c-2.206,0-4,1.794-4,4c0,2.206,1.794,4,4,4s4-1.794,4-4C12,23.794,10.206,22,8,22z M8,28
			c-1.103,0-2-0.897-2-2s0.897-2,2-2c1.102,0,2,0.897,2,2S9.102,28,8,28z"/>
	</g>
</g>
<g id="nyt_x5F_exporter_x5F_info" display="none">
</g>
</svg>
