<?xml version="1.0" encoding="utf-8"?>
<!-- Generator: Adobe Illustrator 17.0.0, SVG Export Plug-In . SVG Version: 6.00 Build 0)  -->
<!DOCTYPE svg PUBLIC "-//W3C//DTD SVG 1.1//EN" "http://www.w3.org/Graphics/SVG/1.1/DTD/svg11.dtd">
<svg version="1.1" xmlns="http://www.w3.org/2000/svg" xmlns:xlink="http://www.w3.org/1999/xlink" x="0px" y="0px" width="60px"
	 height="60px" viewBox="0 0 60 60" enable-background="new 0 0 60 60" xml:space="preserve">
<g id="Layer_1">
	<g>
		<path fill="#010101" d="M55,32H31.574c-1.31-4.61-5.549-8-10.574-8c-5.024,0-9.263,3.39-10.574,8H5c-2.757,0-5,2.243-5,5v10
			c0,2.757,2.243,5,5,5h1v1c0,0.552,0.447,1,1,1c0.553,0,1-0.448,1-1v-1h44v1c0,0.552,0.447,1,1,1c0.553,0,1-0.448,1-1v-1h1
			c2.757,0,5-2.243,5-5V37C60,34.243,57.757,32,55,32z M21,26c4.963,0,9,4.038,9,9s-4.037,9-9,9s-9-4.038-9-9S16.037,26,21,26z
			 M58,47c0,1.654-1.346,3-3,3H5c-1.654,0-3-1.346-3-3V37c0-1.654,1.346-3,3-3h5.051C10.021,34.33,10,34.662,10,35
			c0,6.065,4.935,11,11,11c6.065,0,11-4.935,11-11c0-0.338-0.021-0.67-0.051-1H55c1.654,0,3,1.346,3,3V47z"/>
		<path fill="#010101" d="M51,37c-0.553,0-1,0.448-1,1v8c0,0.552,0.447,1,1,1c0.553,0,1-0.448,1-1v-8C52,37.448,51.553,37,51,37z"/>
		<path fill="#010101" d="M47,37c-0.553,0-1,0.448-1,1v8c0,0.552,0.447,1,1,1c0.553,0,1-0.448,1-1v-8C48,37.448,47.553,37,47,37z"/>
		<path fill="#010101" d="M43,37c-0.553,0-1,0.448-1,1v8c0,0.552,0.447,1,1,1c0.553,0,1-0.448,1-1v-8C44,37.448,43.553,37,43,37z"/>
		<path fill="#010101" d="M39,37c-0.553,0-1,0.448-1,1v8c0,0.552,0.447,1,1,1c0.553,0,1-0.448,1-1v-8C40,37.448,39.553,37,39,37z"/>
		<path fill="#010101" d="M21,41c3.309,0,6-2.691,6-6s-2.691-6-6-6s-6,2.691-6,6S17.691,41,21,41z M21,31c2.206,0,4,1.794,4,4
			c0,2.206-1.794,4-4,4c-2.206,0-4-1.794-4-4C17,32.794,18.794,31,21,31z"/>
	</g>
</g>
<g id="nyt_x5F_exporter_x5F_info" display="none">
</g>
</svg>
