<?xml version="1.0" encoding="utf-8"?>
<!-- Generator: Adobe Illustrator 17.0.0, SVG Export Plug-In . SVG Version: 6.00 Build 0)  -->
<!DOCTYPE svg PUBLIC "-//W3C//DTD SVG 1.1//EN" "http://www.w3.org/Graphics/SVG/1.1/DTD/svg11.dtd">
<svg version="1.1" xmlns="http://www.w3.org/2000/svg" xmlns:xlink="http://www.w3.org/1999/xlink" x="0px" y="0px" width="60px"
	 height="60px" viewBox="0 0 60 60" enable-background="new 0 0 60 60" xml:space="preserve">
<g id="Layer_1">
	<g>
		<path fill="#010101" d="M42.168,50.555l6,9C48.361,59.844,48.678,60,49.001,60c0.19,0,0.383-0.054,0.554-0.168
			c0.459-0.306,0.583-0.927,0.277-1.387L44,49.697V39c0-5.131-4.53-8.73-9.326-12.54L34,25.924V22c0-2.206-1.794-4-4-4H16
			c-2.206,0-4,1.794-4,4v26c0,2.206,1.794,4,4,4h10c0.552,0,1-0.448,1-1c0-0.552-0.448-1-1-1H16c-1.103,0-2-0.897-2-2V22
			c0-1.103,0.897-2,2-2h14c1.103,0,2,0.897,2,2v9c0,0.552,0.448,1,1,1s1-0.448,1-1v-2.519c4.189,3.335,8,6.534,8,10.519v11
			C42,50.197,42.059,50.391,42.168,50.555z"/>
		<path fill="#010101" d="M31.293,37.707l6,6c0.391,0.391,1.023,0.391,1.414,0c0.391-0.391,0.391-1.023,0-1.414l-6-6
			c-1.392-1.392-4.022-1.392-5.414,0c-1.362,1.362-1.391,3.912-0.087,5.324L32,49.287V53c0,3.199,0.205,3.814,2.187,6.582
			C34.382,59.855,34.69,60,35.001,60c0.201,0,0.405-0.06,0.581-0.187c0.449-0.321,0.553-0.946,0.231-1.395
			C34.085,56.004,34,55.751,34,53v-4c0-0.188-0.053-0.371-0.152-0.53l-5-8c-0.04-0.064-0.087-0.124-0.141-0.177
			c-0.604-0.604-0.604-1.982,0-2.586C29.311,37.104,30.688,37.104,31.293,37.707z"/>
		<path fill="#010101" d="M16.293,12.293c-0.391,0.391-0.391,1.023,0,1.414c0.391,0.391,1.023,0.391,1.414,0
			C18.556,12.859,20.302,12,22,12s3.444,0.859,4.293,1.707C26.488,13.902,26.744,14,27,14c0.256,0,0.512-0.098,0.707-0.293
			c0.391-0.391,0.391-1.023,0-1.414C26.602,11.189,24.346,10,22,10S17.397,11.189,16.293,12.293z"/>
		<path fill="#010101" d="M30,10c0.256,0,0.512-0.098,0.707-0.293c0.391-0.391,0.391-1.023,0-1.414C28.674,6.26,26.508,5,22,5
			s-6.674,1.26-8.707,3.293c-0.391,0.391-0.391,1.023,0,1.414c0.391,0.391,1.023,0.391,1.414,0C16.463,7.952,18.145,7,22,7
			s5.537,0.952,7.293,2.707C29.488,9.902,29.744,10,30,10z"/>
		<path fill="#010101" d="M10.293,5.707c0.391,0.391,1.023,0.391,1.414,0C14.444,2.97,17.138,2,22,2s7.556,0.97,10.293,3.707
			C32.488,5.902,32.744,6,33,6c0.256,0,0.512-0.098,0.707-0.293c0.391-0.391,0.391-1.023,0-1.414C30.578,1.164,27.405,0,22,0
			s-8.578,1.164-11.707,4.293C9.902,4.684,9.902,5.316,10.293,5.707z"/>
		<circle fill="#010101" cx="19" cy="25" r="1"/>
		<circle fill="#010101" cx="23" cy="25" r="1"/>
		<circle fill="#010101" cx="27" cy="25" r="1"/>
		<circle fill="#010101" cx="19" cy="31" r="1"/>
		<circle fill="#010101" cx="23" cy="31" r="1"/>
		<circle fill="#010101" cx="19" cy="37" r="1"/>
		<circle fill="#010101" cx="23" cy="37" r="1"/>
		<circle fill="#010101" cx="19" cy="43" r="1"/>
		<circle fill="#010101" cx="23" cy="43" r="1"/>
		<circle fill="#010101" cx="27" cy="31" r="1"/>
	</g>
</g>
<g id="nyt_x5F_exporter_x5F_info" display="none">
</g>
</svg>
