<?xml version="1.0" encoding="utf-8"?>
<!-- Generator: Adobe Illustrator 17.0.0, SVG Export Plug-In . SVG Version: 6.00 Build 0)  -->
<!DOCTYPE svg PUBLIC "-//W3C//DTD SVG 1.1//EN" "http://www.w3.org/Graphics/SVG/1.1/DTD/svg11.dtd">
<svg version="1.1" xmlns="http://www.w3.org/2000/svg" xmlns:xlink="http://www.w3.org/1999/xlink" x="0px" y="0px" width="60px"
	 height="60px" viewBox="0 0 60 60" enable-background="new 0 0 60 60" xml:space="preserve">
<g id="Layer_1">
	<g>
		<path fill="#010101" d="M59.926,34.633c-0.028-0.071-0.075-0.128-0.117-0.19c-0.029-0.042-0.043-0.09-0.079-0.128l-15-16
			C44.54,18.114,44.276,18,44,18H16c-0.276,0-0.54,0.114-0.729,0.316l-15,16c-0.034,0.036-0.048,0.082-0.076,0.122
			c-0.044,0.063-0.092,0.123-0.121,0.195c-0.029,0.073-0.035,0.15-0.046,0.227C0.021,34.908,0,34.95,0,35v11c0,3.309,2.691,6,6,6v1
			c0,0.552,0.447,1,1,1c0.553,0,1-0.448,1-1v-1h44v1c0,0.552,0.447,1,1,1c0.553,0,1-0.448,1-1v-1c3.309,0,6-2.691,6-6V35
			c0-0.049-0.021-0.092-0.028-0.139C59.961,34.783,59.955,34.707,59.926,34.633z M16.434,20h27.133l13.126,14H3.308L16.434,20z
			 M58,46c0,2.206-1.794,4-4,4H6c-2.206,0-4-1.794-4-4V36h56V46z"/>
		<path fill="#010101" d="M11,48c2.757,0,5-2.243,5-5c0-2.757-2.243-5-5-5c-2.757,0-5,2.243-5,5C6,45.757,8.243,48,11,48z M11,40
			c1.654,0,3,1.346,3,3s-1.346,3-3,3s-3-1.346-3-3S9.346,40,11,40z"/>
		<path fill="#010101" d="M35,46c1.654,0,3-1.346,3-3s-1.346-3-3-3s-3,1.346-3,3S33.346,46,35,46z M35,42c0.552,0,1,0.449,1,1
			c0,0.551-0.448,1-1,1c-0.552,0-1-0.449-1-1C34,42.449,34.448,42,35,42z"/>
		<path fill="#010101" d="M43,46c1.654,0,3-1.346,3-3s-1.346-3-3-3s-3,1.346-3,3S41.346,46,43,46z M43,42c0.552,0,1,0.449,1,1
			c0,0.551-0.448,1-1,1c-0.552,0-1-0.449-1-1C42,42.449,42.448,42,43,42z"/>
		<path fill="#010101" d="M51,46c1.654,0,3-1.346,3-3s-1.346-3-3-3s-3,1.346-3,3S49.346,46,51,46z M51,42c0.552,0,1,0.449,1,1
			c0,0.551-0.448,1-1,1c-0.552,0-1-0.449-1-1C50,42.449,50.448,42,51,42z"/>
	</g>
</g>
<g id="nyt_x5F_exporter_x5F_info" display="none">
</g>
</svg>
