<?xml version="1.0" encoding="utf-8"?>
<!-- Generator: Adobe Illustrator 17.0.0, SVG Export Plug-In . SVG Version: 6.00 Build 0)  -->
<!DOCTYPE svg PUBLIC "-//W3C//DTD SVG 1.1//EN" "http://www.w3.org/Graphics/SVG/1.1/DTD/svg11.dtd">
<svg version="1.1" xmlns="http://www.w3.org/2000/svg" xmlns:xlink="http://www.w3.org/1999/xlink" x="0px" y="0px" width="60px"
	 height="60px" viewBox="0 0 60 60" enable-background="new 0 0 60 60" xml:space="preserve">
<g id="Layer_1">
	<g>
		<path fill="#010101" d="M57,6H3C1.346,6,0,7.346,0,9v29c0,1.594,1.23,3.054,2.801,3.325l21.156,3.648v5.386
			c-4.977,0.577-9.614,1.85-13.43,3.746c-0.495,0.246-0.696,0.846-0.451,1.34c0.246,0.494,0.845,0.698,1.34,0.451
			C16.474,53.383,23.073,52,30,52c6.926,0,13.526,1.383,18.584,3.896C48.727,55.967,48.879,56,49.028,56
			c0.368,0,0.722-0.204,0.897-0.555c0.246-0.495,0.044-1.095-0.451-1.34c-3.817-1.896-8.454-3.169-13.431-3.746v-5.386l21.156-3.648
			C58.77,41.054,60,39.594,60,38V9C60,7.346,58.654,6,57,6z M34.043,50.17C32.71,50.068,31.364,50,30,50s-2.71,0.068-4.043,0.17
			v-4.853l1.902,0.328c0.579,0.1,1.339,0.155,2.141,0.155s1.562-0.055,2.141-0.155l1.902-0.328V50.17z M58,38
			c0,0.617-0.533,1.25-1.141,1.354l-25.059,4.32c-0.926,0.159-2.676,0.159-3.602,0l-25.059-4.32C2.533,39.25,2,38.617,2,38V9
			c0-0.551,0.449-1,1-1h54c0.551,0,1,0.449,1,1V38z"/>
		<path fill="#010101" d="M4,36h52V10H4V36z M6,12h48v22H6V12z"/>
		<circle fill="#010101" cx="30" cy="40" r="2"/>
	</g>
</g>
<g id="nyt_x5F_exporter_x5F_info" display="none">
</g>
</svg>
