<?xml version="1.0" encoding="utf-8"?>
<!-- Generator: Adobe Illustrator 17.0.0, SVG Export Plug-In . SVG Version: 6.00 Build 0)  -->
<!DOCTYPE svg PUBLIC "-//W3C//DTD SVG 1.1//EN" "http://www.w3.org/Graphics/SVG/1.1/DTD/svg11.dtd">
<svg version="1.1" xmlns="http://www.w3.org/2000/svg" xmlns:xlink="http://www.w3.org/1999/xlink" x="0px" y="0px" width="60px"
	 height="60px" viewBox="0 0 60 60" enable-background="new 0 0 60 60" xml:space="preserve">
<g id="Layer_1">
	<g>
		<path fill="#010101" d="M57,6H3C1.346,6,0,7.346,0,9v32c0,1.654,1.346,3,3,3h23v4.167c-5.749,0.435-11.139,1.784-15.474,3.937
			c-0.495,0.246-0.696,0.846-0.451,1.34c0.246,0.494,0.844,0.697,1.34,0.451C16.474,51.383,23.073,50,30,50
			s13.526,1.383,18.584,3.896C48.727,53.967,48.878,54,49.028,54c0.368,0,0.722-0.204,0.897-0.555
			c0.246-0.495,0.044-1.095-0.451-1.34c-4.334-2.153-9.725-3.503-15.474-3.937V44h23c1.654,0,3-1.346,3-3V9C60,7.346,58.654,6,57,6z
			 M32,48.05C31.336,48.025,30.671,48,30,48s-1.336,0.025-2,0.05V44h4V48.05z M58,41c0,0.551-0.449,1-1,1H3c-0.551,0-1-0.449-1-1V9
			c0-0.551,0.449-1,1-1h54c0.551,0,1,0.449,1,1V41z"/>
		<path fill="#010101" d="M4,40h52V10H4V40z M6,12h48v26H6V12z"/>
	</g>
</g>
<g id="nyt_x5F_exporter_x5F_info" display="none">
</g>
</svg>
