<?xml version="1.0" encoding="utf-8"?>
<!-- Generator: Adobe Illustrator 17.0.0, SVG Export Plug-In . SVG Version: 6.00 Build 0)  -->
<!DOCTYPE svg PUBLIC "-//W3C//DTD SVG 1.1//EN" "http://www.w3.org/Graphics/SVG/1.1/DTD/svg11.dtd">
<svg version="1.1" xmlns="http://www.w3.org/2000/svg" xmlns:xlink="http://www.w3.org/1999/xlink" x="0px" y="0px" width="60px"
	 height="60px" viewBox="0 0 60 60" enable-background="new 0 0 60 60" xml:space="preserve">
<g id="Layer_1">
	<g>
		<path fill="#010101" d="M42,0H18c-3.309,0-6,2.691-6,6v48c0,3.309,2.691,6,6,6h24c3.309,0,6-2.691,6-6V6C48,2.691,45.309,0,42,0z
			 M14,12h32v36H14V12z M18,2h24c2.206,0,4,1.794,4,4v4H14V6C14,3.794,15.794,2,18,2z M42,58H18c-2.206,0-4-1.794-4-4v-4h32v4
			C46,56.206,44.206,58,42,58z"/>
		<path fill="#010101" d="M23,8h14c0.552,0,1-0.448,1-1c0-0.552-0.448-1-1-1H23c-0.552,0-1,0.448-1,1C22,7.552,22.448,8,23,8z"/>
		<path fill="#010101" d="M30,51c-1.654,0-3,1.346-3,3s1.346,3,3,3s3-1.346,3-3S31.654,51,30,51z M30,55c-0.551,0-1-0.449-1-1
			c0-0.551,0.449-1,1-1c0.551,0,1,0.449,1,1C31,54.551,30.551,55,30,55z"/>
	</g>
</g>
<g id="nyt_x5F_exporter_x5F_info" display="none">
</g>
</svg>
