<?xml version="1.0" encoding="utf-8"?>
<!-- Generator: Adobe Illustrator 17.0.0, SVG Export Plug-In . SVG Version: 6.00 Build 0)  -->
<!DOCTYPE svg PUBLIC "-//W3C//DTD SVG 1.1//EN" "http://www.w3.org/Graphics/SVG/1.1/DTD/svg11.dtd">
<svg version="1.1" xmlns="http://www.w3.org/2000/svg" xmlns:xlink="http://www.w3.org/1999/xlink" x="0px" y="0px" width="60px"
	 height="60px" viewBox="0 0 60 60" enable-background="new 0 0 60 60" xml:space="preserve">
<g id="Layer_1">
	<g>
		<path fill="#010101" d="M19,46h-2c-0.552,0-1,0.448-1,1s0.448,1,1,1h2c0.552,0,1-0.448,1-1S19.552,46,19,46z"/>
		<path fill="#010101" d="M27,46h-2c-0.552,0-1,0.448-1,1s0.448,1,1,1h2c0.552,0,1-0.448,1-1S27.552,46,27,46z"/>
		<path fill="#010101" d="M35,46h-2c-0.552,0-1,0.448-1,1s0.448,1,1,1h2c0.552,0,1-0.448,1-1S35.552,46,35,46z"/>
		<path fill="#010101" d="M43,46h-2c-0.552,0-1,0.448-1,1s0.448,1,1,1h2c0.552,0,1-0.448,1-1S43.552,46,43,46z"/>
		<path fill="#010101" d="M15,50h-2c-0.552,0-1,0.448-1,1s0.448,1,1,1h2c0.552,0,1-0.448,1-1S15.552,50,15,50z"/>
		<path fill="#010101" d="M23,50h-2c-0.552,0-1,0.448-1,1s0.448,1,1,1h2c0.552,0,1-0.448,1-1S23.552,50,23,50z"/>
		<path fill="#010101" d="M31,50h-2c-0.552,0-1,0.448-1,1s0.448,1,1,1h2c0.552,0,1-0.448,1-1S31.552,50,31,50z"/>
		<path fill="#010101" d="M39,50h-2c-0.552,0-1,0.448-1,1s0.448,1,1,1h2c0.552,0,1-0.448,1-1S39.552,50,39,50z"/>
		<path fill="#010101" d="M47,50h-2c-0.552,0-1,0.448-1,1s0.448,1,1,1h2c0.552,0,1-0.448,1-1S47.552,50,47,50z"/>
		<path fill="#010101" d="M59,34h-1v-5v-2c0-0.552-0.448-1-1-1s-1,0.448-1,1v1h-8V9c0-0.265-0.106-0.519-0.293-0.707l-6-6
			C41.519,2.106,41.265,2,41,2H13c-0.552,0-1,0.448-1,1v25H4v-1c0-0.552-0.448-1-1-1s-1,0.448-1,1v2v5H1c-0.552,0-1,0.448-1,1
			s0.448,1,1,1h1v5v2c0,0.552,0.448,1,1,1s1-0.448,1-1v-1h4v14H5c-0.552,0-1,0.448-1,1s0.448,1,1,1h50c0.552,0,1-0.448,1-1
			s-0.448-1-1-1h-3V42h4v1c0,0.552,0.448,1,1,1s1-0.448,1-1v-2v-5h1c0.552,0,1-0.448,1-1S59.552,34,59,34z M14,4h26.586L46,9.414V28
			H14V4z M10,56V41c0-1.654,1.346-3,3-3h10.382l1.724,3.447C25.275,41.786,25.621,42,26,42h8c0.379,0,0.725-0.214,0.894-0.553
			L36.618,38H47c1.654,0,3,1.346,3,3v15H10z M25.618,38h8.764l-1,2h-6.764L25.618,38z M51.899,40c-0.465-2.279-2.485-4-4.899-4H36
			H24H13c-2.414,0-4.434,1.721-4.899,4H4V30h9h34h9v10H51.899z"/>
	</g>
</g>
<g id="nyt_x5F_exporter_x5F_info" display="none">
</g>
</svg>
