<?xml version="1.0" encoding="utf-8"?>
<!-- Generator: Adobe Illustrator 17.0.0, SVG Export Plug-In . SVG Version: 6.00 Build 0)  -->
<!DOCTYPE svg PUBLIC "-//W3C//DTD SVG 1.1//EN" "http://www.w3.org/Graphics/SVG/1.1/DTD/svg11.dtd">
<svg version="1.1" xmlns="http://www.w3.org/2000/svg" xmlns:xlink="http://www.w3.org/1999/xlink" x="0px" y="0px" width="60px"
	 height="60px" viewBox="0 0 60 60" enable-background="new 0 0 60 60" xml:space="preserve">
<g id="Layer_1">
	<g>
		<path fill="#010101" d="M59,12h-1V7V5c0-0.552-0.448-1-1-1s-1,0.448-1,1v1h-6V4c0-2.206-2.243-4-5-4H15c-2.757,0-5,1.794-5,4v2H4
			V5c0-0.552-0.448-1-1-1S2,4.448,2,5v2v5H1c-0.552,0-1,0.448-1,1s0.448,1,1,1h1v7v2c0,0.552,0.448,1,1,1s1-0.448,1-1v-1h7h38h7v1
			c0,0.552,0.448,1,1,1s1-0.448,1-1v-2v-7h1c0.552,0,1-0.448,1-1S59.552,12,59,12z M12,4c0-1.084,1.374-2,3-2h30
			c1.626,0,3,0.916,3,2v2H12V4z M4,20V8h52v12H4z"/>
		<rect x="14" y="48" fill="#010101" width="2" height="2"/>
		<rect x="18" y="48" fill="#010101" width="2" height="2"/>
		<rect x="22" y="48" fill="#010101" width="2" height="2"/>
		<rect x="26" y="48" fill="#010101" width="2" height="2"/>
		<rect x="32" y="48" fill="#010101" width="2" height="2"/>
		<rect x="36" y="48" fill="#010101" width="2" height="2"/>
		<rect x="40" y="48" fill="#010101" width="2" height="2"/>
		<rect x="44" y="48" fill="#010101" width="2" height="2"/>
		<rect x="16" y="52" fill="#010101" width="2" height="2"/>
		<rect x="20" y="52" fill="#010101" width="2" height="2"/>
		<rect x="24" y="52" fill="#010101" width="12" height="2"/>
		<rect x="38" y="52" fill="#010101" width="2" height="2"/>
		<rect x="42" y="52" fill="#010101" width="2" height="2"/>
		<path fill="#010101" d="M43,28c0,1.602,0.635,3.055,1.661,4.132C43.072,34.111,38.824,38,30,38s-13.072-3.889-14.661-5.868
			C16.365,31.055,17,29.602,17,28c0-3.309-2.691-6-6-6s-6,2.691-6,6c0,2.967,2.167,5.431,5,5.91V55c0,2.757,2.243,5,5,5h30
			c2.757,0,5-2.243,5-5V33.91c2.833-0.478,5-2.942,5-5.91c0-3.309-2.691-6-6-6S43,24.691,43,28z M30,40
			c9.704,0,14.468-4.422,16.26-6.668c0.538,0.278,1.123,0.474,1.74,0.578V42H12v-8.09c0.617-0.104,1.202-0.3,1.74-0.578
			C15.532,35.578,20.296,40,30,40z M7,28c0-2.206,1.794-4,4-4s4,1.794,4,4c0,2.206-1.794,4-4,4S7,30.206,7,28z M45,58H15
			c-1.654,0-3-1.346-3-3V44h36v11C48,56.654,46.654,58,45,58z M49,24c2.206,0,4,1.794,4,4c0,2.206-1.794,4-4,4c-2.206,0-4-1.794-4-4
			C45,25.794,46.794,24,49,24z"/>
	</g>
</g>
<g id="nyt_x5F_exporter_x5F_info" display="none">
</g>
</svg>
