<?xml version="1.0" encoding="utf-8"?>
<!-- Generator: Adobe Illustrator 17.0.0, SVG Export Plug-In . SVG Version: 6.00 Build 0)  -->
<!DOCTYPE svg PUBLIC "-//W3C//DTD SVG 1.1//EN" "http://www.w3.org/Graphics/SVG/1.1/DTD/svg11.dtd">
<svg version="1.1" xmlns="http://www.w3.org/2000/svg" xmlns:xlink="http://www.w3.org/1999/xlink" x="0px" y="0px" width="60px"
	 height="60px" viewBox="0 0 60 60" enable-background="new 0 0 60 60" xml:space="preserve">
<g id="Layer_1">
	<g>
		<path fill="#010101" d="M37,0H22.994c-0.551,0-0.998,0.446-1,0.997L21.96,12H17c-0.553,0-1,0.448-1,1v36c0,6.065,4.935,11,11,11h6
			c6.065,0,11-4.935,11-11V13c0-0.552-0.447-1-1-1h-5V1C38,0.448,37.553,0,37,0z M23.991,2H36v10H23.96L23.991,2z M33,58h-6
			c-4.963,0-9-4.038-9-9V14h4.957H37h5v35C42,53.962,37.963,58,33,58z"/>
		<path fill="#010101" d="M27,4c-0.553,0-1,0.448-1,1v4c0,0.552,0.447,1,1,1c0.553,0,1-0.448,1-1V5C28,4.448,27.553,4,27,4z"/>
		<path fill="#010101" d="M33,4c-0.553,0-1,0.448-1,1v4c0,0.552,0.447,1,1,1c0.553,0,1-0.448,1-1V5C34,4.448,33.553,4,33,4z"/>
		<path fill="#010101" d="M37,18H23c-0.553,0-1,0.448-1,1s0.447,1,1,1h14c0.553,0,1-0.448,1-1S37.553,18,37,18z"/>
	</g>
</g>
<g id="nyt_x5F_exporter_x5F_info" display="none">
</g>
</svg>
