<?xml version="1.0" encoding="utf-8"?>
<!-- Generator: Adobe Illustrator 17.0.0, SVG Export Plug-In . SVG Version: 6.00 Build 0)  -->
<!DOCTYPE svg PUBLIC "-//W3C//DTD SVG 1.1//EN" "http://www.w3.org/Graphics/SVG/1.1/DTD/svg11.dtd">
<svg version="1.1" xmlns="http://www.w3.org/2000/svg" xmlns:xlink="http://www.w3.org/1999/xlink" x="0px" y="0px" width="60px"
	 height="60px" viewBox="0 0 60 60" enable-background="new 0 0 60 60" xml:space="preserve">
<g id="Layer_1">
	<g>
		<path fill="#010101" d="M43,0H17c-0.552,0-1,0.448-1,1v27h-1c-0.552,0-1,0.448-1,1v18c0,3.86,3.14,7,7,7h3v5c0,0.552,0.448,1,1,1
			h10c0.552,0,1-0.448,1-1v-5h3c3.86,0,7-3.14,7-7V29c0-0.552-0.448-1-1-1h-1V1C44,0.448,43.552,0,43,0z M18,2h24v26H18V2z M34,58
			h-8v-4h8V58z M44,47c0,2.757-2.243,5-5,5h-4H25h-4c-2.757,0-5-2.243-5-5V30h1h26h1V47z"/>
		<path fill="#010101" d="M27,6h-6c-0.552,0-1,0.448-1,1v6c0,0.552,0.448,1,1,1h6c0.552,0,1-0.448,1-1V7C28,6.448,27.552,6,27,6z
			 M26,12h-4V8h4V12z"/>
		<path fill="#010101" d="M39,6h-6c-0.552,0-1,0.448-1,1v6c0,0.552,0.448,1,1,1h6c0.552,0,1-0.448,1-1V7C40,6.448,39.552,6,39,6z
			 M38,12h-4V8h4V12z"/>
	</g>
</g>
<g id="nyt_x5F_exporter_x5F_info" display="none">
</g>
</svg>
