<?xml version="1.0" encoding="utf-8"?>
<!-- Generator: Adobe Illustrator 17.0.0, SVG Export Plug-In . SVG Version: 6.00 Build 0)  -->
<!DOCTYPE svg PUBLIC "-//W3C//DTD SVG 1.1//EN" "http://www.w3.org/Graphics/SVG/1.1/DTD/svg11.dtd">
<svg version="1.1" xmlns="http://www.w3.org/2000/svg" xmlns:xlink="http://www.w3.org/1999/xlink" x="0px" y="0px" width="60px"
	 height="60px" viewBox="0 0 60 60" enable-background="new 0 0 60 60" xml:space="preserve">
<g id="Layer_1">
	<g>
		<path fill="#010101" d="M48.271,46.857C53.633,41.919,57,34.846,57,27C57,12.112,44.888,0,30,0S3,12.112,3,27
			c0,7.846,3.367,14.919,8.729,19.857L0.293,58.293c-0.391,0.391-0.391,1.023,0,1.414C0.488,59.902,0.744,60,1,60
			s0.512-0.098,0.707-0.293l11.549-11.549C17.862,51.81,23.679,54,30,54s12.138-2.19,16.744-5.842l11.549,11.549
			C58.488,59.902,58.744,60,59,60s0.512-0.098,0.707-0.293c0.391-0.391,0.391-1.023,0-1.414L48.271,46.857z M5,27
			C5,13.215,16.215,2,30,2s25,11.215,25,25c0,13.785-11.215,25-25,25S5,40.785,5,27z"/>
		<path fill="#010101" d="M30,16c-6.065,0-11,4.935-11,11c0,6.065,4.935,11,11,11c6.065,0,11-4.935,11-11C41,20.935,36.065,16,30,16
			z M30,36c-4.962,0-9-4.038-9-9s4.038-9,9-9s9,4.038,9,9S34.962,36,30,36z"/>
		<path fill="#010101" d="M30,13c1.654,0,3-1.346,3-3s-1.346-3-3-3s-3,1.346-3,3S28.346,13,30,13z M30,9c0.551,0,1,0.449,1,1
			c0,0.551-0.449,1-1,1c-0.551,0-1-0.449-1-1C29,9.449,29.449,9,30,9z"/>
		<path fill="#010101" d="M30,20c-3.86,0-7,3.14-7,7c0,0.552,0.448,1,1,1s1-0.448,1-1c0-2.757,2.243-5,5-5c0.552,0,1-0.448,1-1
			C31,20.448,30.552,20,30,20z"/>
	</g>
</g>
<g id="nyt_x5F_exporter_x5F_info" display="none">
</g>
</svg>
