<?xml version="1.0" encoding="utf-8"?>
<!-- Generator: Adobe Illustrator 17.0.0, SVG Export Plug-In . SVG Version: 6.00 Build 0)  -->
<!DOCTYPE svg PUBLIC "-//W3C//DTD SVG 1.1//EN" "http://www.w3.org/Graphics/SVG/1.1/DTD/svg11.dtd">
<svg version="1.1" xmlns="http://www.w3.org/2000/svg" xmlns:xlink="http://www.w3.org/1999/xlink" x="0px" y="0px" width="60px"
	 height="60px" viewBox="0 0 60 60" enable-background="new 0 0 60 60" xml:space="preserve">
<g id="Layer_1">
	<g>
		<path fill="#010101" d="M24,15v4c0,0.552,0.448,1,1,1s1-0.448,1-1v-4c0-0.552-0.448-1-1-1S24,14.448,24,15z"/>
		<path fill="#010101" d="M16,12v10c0,0.552,0.448,1,1,1s1-0.448,1-1V12c0-0.552-0.448-1-1-1S16,11.448,16,12z"/>
		<path fill="#010101" d="M8,24c0,0.552,0.448,1,1,1s1-0.448,1-1V10c0-0.552-0.448-1-1-1s-1,0.448-1,1V24z"/>
		<path fill="#010101" d="M1,28c0.552,0,1-0.448,1-1V7c0-0.552-0.448-1-1-1S0,6.448,0,7v20C0,27.552,0.448,28,1,28z"/>
		<path fill="#010101" d="M32,15v4c0,0.552,0.448,1,1,1s1-0.448,1-1v-4c0-0.552-0.448-1-1-1S32,14.448,32,15z"/>
		<path fill="#010101" d="M40,12v10c0,0.552,0.448,1,1,1s1-0.448,1-1V12c0-0.552-0.448-1-1-1S40,11.448,40,12z"/>
		<path fill="#010101" d="M48,10v14c0,0.552,0.448,1,1,1s1-0.448,1-1V10c0-0.552-0.448-1-1-1S48,9.448,48,10z"/>
		<path fill="#010101" d="M58,27V7c0-0.552-0.448-1-1-1s-1,0.448-1,1v20c0,0.552,0.448,1,1,1S58,27.552,58,27z"/>
		<path fill="#010101" d="M55,36H30V19c0-0.552-0.448-1-1-1s-1,0.448-1,1v17H5c-2.757,0-5,2.243-5,5v8c0,2.757,2.243,5,5,5h1v1
			c0,0.552,0.448,1,1,1s1-0.448,1-1v-1h44v1c0,0.552,0.448,1,1,1s1-0.448,1-1v-1h1c2.757,0,5-2.243,5-5v-8
			C60,38.243,57.757,36,55,36z M58,49c0,1.654-1.346,3-3,3H5c-1.654,0-3-1.346-3-3v-8c0-1.654,1.346-3,3-3h50c1.654,0,3,1.346,3,3
			V49z"/>
		<path fill="#010101" d="M21,44H7c-0.552,0-1,0.448-1,1c0,0.552,0.448,1,1,1h14c0.552,0,1-0.448,1-1C22,44.448,21.552,44,21,44z"/>
		<circle fill="#010101" cx="36" cy="45" r="2"/>
		<circle fill="#010101" cx="42" cy="45" r="2"/>
		<circle fill="#010101" cx="48" cy="45" r="2"/>
	</g>
</g>
<g id="nyt_x5F_exporter_x5F_info" display="none">
</g>
</svg>
