<?xml version="1.0" encoding="utf-8"?>
<!-- Generator: Adobe Illustrator 17.0.0, SVG Export Plug-In . SVG Version: 6.00 Build 0)  -->
<!DOCTYPE svg PUBLIC "-//W3C//DTD SVG 1.1//EN" "http://www.w3.org/Graphics/SVG/1.1/DTD/svg11.dtd">
<svg version="1.1" id="Layer_1" xmlns="http://www.w3.org/2000/svg" xmlns:xlink="http://www.w3.org/1999/xlink" x="0px" y="0px"
	 width="48px" height="48px" viewBox="0 0 48 48" enable-background="new 0 0 48 48" xml:space="preserve">
<g>
	<path fill="#010101" d="M16,0h-5c-0.552,0-1,0.448-1,1v46c0,0.404,0.244,0.769,0.617,0.924c0.373,0.154,0.803,0.069,1.09-0.217
		l4.363-4.362C16.029,43.236,16,43.122,16,43V0z"/>
	<path fill="#010101" d="M32,43c0,0.122-0.029,0.236-0.07,0.345l4.363,4.362C36.484,47.898,36.74,48,37,48
		c0.129,0,0.259-0.025,0.383-0.076C37.756,47.769,38,47.404,38,47V1c0-0.552-0.448-1-1-1h-5V43z"/>
	<polygon fill="#010101" points="30,0 18,0 18,41.414 24,35.414 30,41.414 	"/>
</g>
</svg>
