<?xml version="1.0" encoding="utf-8"?>
<!-- Generator: Adobe Illustrator 17.0.0, SVG Export Plug-In . SVG Version: 6.00 Build 0)  -->
<!DOCTYPE svg PUBLIC "-//W3C//DTD SVG 1.1//EN" "http://www.w3.org/Graphics/SVG/1.1/DTD/svg11.dtd">
<svg version="1.1" id="Layer_1" xmlns="http://www.w3.org/2000/svg" xmlns:xlink="http://www.w3.org/1999/xlink" x="0px" y="0px"
	 width="48px" height="48px" viewBox="0 0 48 48" enable-background="new 0 0 48 48" xml:space="preserve">
<g>
	<path fill="#010101" d="M0,47c0,0.552,0.448,1,1,1h46c0.552,0,1-0.448,1-1V3c0-0.552-0.448-1-1-1H24V1c0-0.552-0.448-1-1-1H7
		C6.448,0,6,0.448,6,1v1H1C0.448,2,0,2.448,0,3V47z M7,32h34c0.552,0,1,0.448,1,1c0,0.552-0.448,1-1,1H7c-0.552,0-1-0.448-1-1
		C6,32.448,6.448,32,7,32z M29,20h12c0.552,0,1,0.448,1,1c0,0.552-0.448,1-1,1H29c-0.552,0-1-0.448-1-1C28,20.448,28.448,20,29,20z
		 M28,15c0-0.552,0.448-1,1-1h12c0.552,0,1,0.448,1,1c0,0.552-0.448,1-1,1H29C28.448,16,28,15.552,28,15z M29,26h12
		c0.552,0,1,0.448,1,1c0,0.552-0.448,1-1,1H29c-0.552,0-1-0.448-1-1C28,26.448,28.448,26,29,26z M7,38h26c0.552,0,1,0.448,1,1
		c0,0.552-0.448,1-1,1H7c-0.552,0-1-0.448-1-1C6,38.448,6.448,38,7,38z M8,2h14v22.586l-6.293-6.293C15.512,18.098,15.256,18,15,18
		c-0.256,0-0.512,0.098-0.707,0.293L8,24.586V2z"/>
</g>
</svg>
