<?xml version="1.0" encoding="utf-8"?>
<!-- Generator: Adobe Illustrator 17.0.0, SVG Export Plug-In . SVG Version: 6.00 Build 0)  -->
<!DOCTYPE svg PUBLIC "-//W3C//DTD SVG 1.1//EN" "http://www.w3.org/Graphics/SVG/1.1/DTD/svg11.dtd">
<svg version="1.1" id="Layer_1" xmlns="http://www.w3.org/2000/svg" xmlns:xlink="http://www.w3.org/1999/xlink" x="0px" y="0px"
	 width="48px" height="48px" viewBox="0 0 48 48" enable-background="new 0 0 48 48" xml:space="preserve">
<g>
	<path fill="#010101" d="M8,47c0,0.404,0.244,0.769,0.617,0.924c0.373,0.154,0.803,0.069,1.09-0.217L19,38.414l9.293,9.293
		C28.484,47.898,28.74,48,29,48c0.129,0,0.259-0.025,0.383-0.076C29.756,47.769,30,47.404,30,47V15v-1v-2V9c0-1.738,1.262-3,3-3
		c0.552,0,1,0.448,1,1c0,0.552-0.448,1-1,1c-0.636,0-1,0.364-1,1v5h7c0.552,0,1-0.448,1-1V8c0-4.411-3.589-8-8-8H16
		c-4.411,0-8,3.589-8,8V47z"/>
</g>
</svg>
