<?xml version="1.0" encoding="utf-8"?>
<!-- Generator: Adobe Illustrator 17.0.0, SVG Export Plug-In . SVG Version: 6.00 Build 0)  -->
<!DOCTYPE svg PUBLIC "-//W3C//DTD SVG 1.1//EN" "http://www.w3.org/Graphics/SVG/1.1/DTD/svg11.dtd">
<svg version="1.1" id="Layer_1" xmlns="http://www.w3.org/2000/svg" xmlns:xlink="http://www.w3.org/1999/xlink" x="0px" y="0px"
	 width="48px" height="48px" viewBox="0 0 48 48" enable-background="new 0 0 48 48" xml:space="preserve">
<g>
	<path fill="#010101" d="M37,26c-6.065,0-11,4.935-11,11c0,6.065,4.935,11,11,11c6.065,0,11-4.935,11-11C48,30.935,43.065,26,37,26z
		 M42,38h-4v4c0,0.552-0.448,1-1,1c-0.552,0-1-0.448-1-1v-4h-4c-0.552,0-1-0.448-1-1c0-0.552,0.448-1,1-1h4v-4c0-0.552,0.448-1,1-1
		c0.552,0,1,0.448,1,1v4h4c0.552,0,1,0.448,1,1C43,37.552,42.552,38,42,38z"/>
	<path fill="#010101" d="M0.293,26.207l12.5,12.501c0.187,0.188,0.442,0.293,0.707,0.293c0.001,0,0.003,0,0.005,0
		c0.267-0.002,0.522-0.109,0.71-0.3l24.5-25C38.897,13.513,39,13.262,39,13V1c0-0.266-0.106-0.52-0.294-0.707
		C38.519,0.106,38.265,0,38,0h-0.002L25.483,0.016c-0.265,0-0.519,0.105-0.706,0.293L0.293,24.793
		C-0.098,25.184-0.098,25.816,0.293,26.207z M31,4c2.206,0,4,1.794,4,4c0,2.206-1.794,4-4,4c-2.206,0-4-1.794-4-4
		C27,5.794,28.794,4,31,4z"/>
</g>
</svg>
