<?xml version="1.0" encoding="utf-8"?>
<!-- Generator: Adobe Illustrator 17.0.0, SVG Export Plug-In . SVG Version: 6.00 Build 0)  -->
<!DOCTYPE svg PUBLIC "-//W3C//DTD SVG 1.1//EN" "http://www.w3.org/Graphics/SVG/1.1/DTD/svg11.dtd">
<svg version="1.1" id="Layer_1" xmlns="http://www.w3.org/2000/svg" xmlns:xlink="http://www.w3.org/1999/xlink" x="0px" y="0px"
	 width="48px" height="48px" viewBox="0 0 48 48" enable-background="new 0 0 48 48" xml:space="preserve">
<g>
	<path fill="#010101" d="M0.016,17.986c0,0.265,0.105,0.519,0.293,0.706l29.014,29.015C29.51,47.895,29.764,48,30.029,48
		c0.265,0,0.519-0.105,0.707-0.293l16.971-16.97C47.894,30.549,48,30.295,48,30.03c0-0.265-0.106-0.519-0.293-0.707L18.692,0.308
		c-0.187-0.188-0.441-0.293-0.706-0.293L1.001,0C1,0,1,0,1,0C0.735,0,0.48,0.106,0.293,0.293C0.105,0.481,0,0.735,0,1.001
		L0.016,17.986z M16,11c0,2.757-2.243,5-5,5c-2.757,0-5-2.243-5-5c0-2.757,2.243-5,5-5C13.757,6,16,8.243,16,11z"/>
</g>
</svg>
