<?xml version="1.0" encoding="utf-8"?>
<!-- Generator: Adobe Illustrator 17.0.0, SVG Export Plug-In . SVG Version: 6.00 Build 0)  -->
<!DOCTYPE svg PUBLIC "-//W3C//DTD SVG 1.1//EN" "http://www.w3.org/Graphics/SVG/1.1/DTD/svg11.dtd">
<svg version="1.1" id="Layer_1" xmlns="http://www.w3.org/2000/svg" xmlns:xlink="http://www.w3.org/1999/xlink" x="0px" y="0px"
	 width="48px" height="48px" viewBox="0 0 48 48" enable-background="new 0 0 48 48" xml:space="preserve">
<g>
	<path fill="#010101" d="M0,19c0,0.265,0.105,0.52,0.293,0.707l28,28C28.482,47.897,28.737,48,29,48c0.067,0,0.134-0.007,0.201-0.02
		c0.329-0.067,0.603-0.296,0.728-0.608l3.841-9.602l9.602-3.841c0.312-0.125,0.541-0.398,0.608-0.728
		c0.068-0.329-0.035-0.671-0.272-0.908l-28-28C15.519,4.106,15.265,4,15,4H1C0.448,4,0,4.448,0,5V19z M14,14c0,2.206-1.794,4-4,4
		c-2.206,0-4-1.794-4-4c0-2.206,1.794-4,4-4C12.206,10,14,11.794,14,14z"/>
	<path fill="#010101" d="M43.051,28.316C43.191,28.735,43.581,29,44,29c0.104,0,0.211-0.017,0.316-0.051l3-1
		c0.329-0.11,0.577-0.381,0.657-0.719c0.08-0.337-0.021-0.691-0.266-0.937l-26-26C21.519,0.106,21.265,0,21,0H7C6.448,0,6,0.448,6,1
		c0,0.552,0.448,1,1,1h13.586l24.563,24.563l-1.465,0.488C43.16,27.226,42.876,27.792,43.051,28.316z"/>
</g>
</svg>
