<?xml version="1.0" encoding="utf-8"?>
<!-- Generator: Adobe Illustrator 17.0.0, SVG Export Plug-In . SVG Version: 6.00 Build 0)  -->
<!DOCTYPE svg PUBLIC "-//W3C//DTD SVG 1.1//EN" "http://www.w3.org/Graphics/SVG/1.1/DTD/svg11.dtd">
<svg version="1.1" id="Layer_1" xmlns="http://www.w3.org/2000/svg" xmlns:xlink="http://www.w3.org/1999/xlink" x="0px" y="0px"
	 width="60px" height="60px" viewBox="0 0 60 60" enable-background="new 0 0 60 60" xml:space="preserve">
<g>
	<path fill="#231F20" d="M31.389,6.996L30.982,7c-6.162,0.107-11.96,2.597-16.326,7.012C10.259,18.456,7.897,24.276,8.003,30.4
		c0.22,12.675,10.15,22.604,22.607,22.604L31.017,53c6.163-0.107,11.961-2.598,16.328-7.012c4.396-4.444,6.758-10.265,6.652-16.389
		C53.776,16.925,43.846,6.996,31.389,6.996z M45.923,44.583c-3.997,4.04-9.303,6.32-14.941,6.418l-0.371,0.003
		c-11.355,0-20.407-9.065-20.607-20.638c-0.097-5.581,2.06-10.89,6.074-14.948C20.075,11.377,25.38,9.097,31.017,9l0.372-0.003
		c11.355,0,20.407,9.065,20.608,20.639C52.094,35.216,49.937,40.524,45.923,44.583z"/>
	<path fill="#231F20" d="M31,33.997c0.552,0,1-0.448,1-1v-14c0-0.552-0.448-1-1-1s-1,0.448-1,1v14
		C30,33.549,30.448,33.997,31,33.997z"/>
	<path fill="#231F20" d="M31.001,37.997c-0.012,0-0.024,0-0.036,0c-1.103,0.018-1.984,0.93-1.965,2.033
		c0.019,1.094,0.91,1.966,2,1.966c0.012,0,0.023-0.001,0.035-0.001c1.103-0.02,1.984-0.93,1.965-2.034
		C32.981,38.869,32.09,37.997,31.001,37.997z"/>
</g>
</svg>
