<?xml version="1.0" encoding="utf-8"?>
<!-- Generator: Adobe Illustrator 17.0.0, SVG Export Plug-In . SVG Version: 6.00 Build 0)  -->
<!DOCTYPE svg PUBLIC "-//W3C//DTD SVG 1.1//EN" "http://www.w3.org/Graphics/SVG/1.1/DTD/svg11.dtd">
<svg version="1.1" id="Layer_1" xmlns="http://www.w3.org/2000/svg" xmlns:xlink="http://www.w3.org/1999/xlink" x="0px" y="0px"
	 width="60px" height="60px" viewBox="0 0 60 60" enable-background="new 0 0 60 60" xml:space="preserve">
<g>
	<path fill="#231F20" d="M28,20v16c0,0.552,0.448,1,1,1s1-0.448,1-1V20c0-0.552-0.448-1-1-1S28,19.448,28,20z"/>
	<circle fill="#231F20" cx="29" cy="43" r="2"/>
	<path fill="#231F20" d="M29.707,8.293c-0.391-0.391-1.023-0.391-1.414,0l-22,22c-0.391,0.391-0.391,1.023,0,1.414l22,22
		C28.488,53.902,28.744,54,29,54s0.512-0.098,0.707-0.293l22-22c0.391-0.391,0.391-1.023,0-1.414L29.707,8.293z M29,51.586L8.414,31
		L29,10.414L49.586,31L29,51.586z"/>
</g>
</svg>
