<?xml version="1.0" encoding="utf-8"?>
<!-- Generator: Adobe Illustrator 17.0.0, SVG Export Plug-In . SVG Version: 6.00 Build 0)  -->
<!DOCTYPE svg PUBLIC "-//W3C//DTD SVG 1.1//EN" "http://www.w3.org/Graphics/SVG/1.1/DTD/svg11.dtd">
<svg version="1.1" id="Layer_1" xmlns="http://www.w3.org/2000/svg" xmlns:xlink="http://www.w3.org/1999/xlink" x="0px" y="0px"
	 width="60px" height="60px" viewBox="0 0 60 60" enable-background="new 0 0 60 60" xml:space="preserve">
<g>
	<path fill="#231F20" d="M29,8C16.318,8,6,18.318,6,31c0,12.682,10.318,23,23,23c12.682,0,23-10.318,23-23C52,18.318,41.682,8,29,8z
		 M29,52C17.42,52,8,42.58,8,31s9.42-21,21-21s21,9.42,21,21S40.58,52,29,52z"/>
	<path fill="#231F20" d="M35,44h-5V27c0-0.552-0.448-1-1-1h-4c-0.552,0-1,0.448-1,1c0,0.552,0.448,1,1,1h3v16h-5
		c-0.552,0-1,0.448-1,1c0,0.552,0.448,1,1,1h12c0.552,0,1-0.448,1-1C36,44.448,35.552,44,35,44z"/>
	<path fill="#231F20" d="M28,20c1.103,0,2-0.897,2-2s-0.897-2-2-2s-2,0.897-2,2S26.897,20,28,20z M28,18l0,1l-0.002-0.999L28,18z"/>
</g>
</svg>
