<?xml version="1.0" encoding="utf-8"?>
<!-- Generator: Adobe Illustrator 17.0.0, SVG Export Plug-In . SVG Version: 6.00 Build 0)  -->
<!DOCTYPE svg PUBLIC "-//W3C//DTD SVG 1.1//EN" "http://www.w3.org/Graphics/SVG/1.1/DTD/svg11.dtd">
<svg version="1.1" id="Layer_1" xmlns="http://www.w3.org/2000/svg" xmlns:xlink="http://www.w3.org/1999/xlink" x="0px" y="0px"
	 width="60px" height="60px" viewBox="0 0 60 60" enable-background="new 0 0 60 60" xml:space="preserve">
<g>
	<circle fill="#231F20" cx="29" cy="42" r="2"/>
	<path fill="#231F20" d="M29,6C15.767,6,5,16.767,5,30s10.767,24,24,24s24-10.767,24-24S42.233,6,29,6z M29,52
		C16.869,52,7,42.131,7,30C7,17.869,16.869,8,29,8s22,9.869,22,22C51,42.131,41.131,52,29,52z"/>
	<path fill="#231F20" d="M29,18c-3.86,0-7,3.14-7,7c0,0.552,0.448,1,1,1s1-0.448,1-1c0-2.757,2.243-5,5-5s5,2.243,5,5
		c0,2.757-2.243,5-5,5c-0.552,0-1,0.448-1,1v6c0,0.552,0.448,1,1,1s1-0.448,1-1v-5.071c3.388-0.487,6-3.408,6-6.929
		C36,21.14,32.86,18,29,18z"/>
</g>
</svg>
