<?xml version="1.0" encoding="utf-8"?>
<!-- Generator: Adobe Illustrator 17.0.0, SVG Export Plug-In . SVG Version: 6.00 Build 0)  -->
<!DOCTYPE svg PUBLIC "-//W3C//DTD SVG 1.1//EN" "http://www.w3.org/Graphics/SVG/1.1/DTD/svg11.dtd">
<svg version="1.1" id="Layer_2" xmlns="http://www.w3.org/2000/svg" xmlns:xlink="http://www.w3.org/1999/xlink" x="0px" y="0px"
	 width="60px" height="60px" viewBox="0 0 60 60" enable-background="new 0 0 60 60" xml:space="preserve">
<g>
	<path fill="#010101" d="M47,32c0.383,0,0.759,0.029,1.135,0.057l0.354-1.846L49.733,24H51c0.552,0,1-0.447,1-1v-4
		c0-0.553-0.448-1-1-1H1c-0.552,0-1,0.447-1,1v4c0,0.553,0.448,1,1,1h1.71l4.877,23.206C7.684,47.669,8.092,48,8.565,48h23.485
		C32.029,47.668,32,47.338,32,47C32,38.729,38.729,32,47,32z M3.521,22H2v-2h48v2h-1.087H3.521z"/>
	<path fill="#010101" d="M8.566,14.609c0.226,0,0.453-0.076,0.64-0.231l15.13-12.608c0.424-0.354,0.481-0.984,0.128-1.409
		c-0.354-0.425-0.984-0.481-1.408-0.128L7.925,12.84c-0.424,0.354-0.482,0.984-0.128,1.409C7.995,14.487,8.279,14.609,8.566,14.609z
		"/>
	<path fill="#010101" d="M43.229,14.377c0.187,0.155,0.414,0.231,0.64,0.231c0.287,0,0.571-0.122,0.769-0.359
		c0.354-0.425,0.296-1.056-0.128-1.409L29.379,0.232c-0.425-0.353-1.055-0.296-1.408,0.128c-0.354,0.425-0.296,1.056,0.128,1.409
		L43.229,14.377z"/>
	<path fill="#010101" d="M47,34c-7.169,0-13,5.832-13,13s5.831,13,13,13c7.168,0,13-5.832,13-13S54.168,34,47,34z M53,48h-5v5
		c0,0.553-0.448,1-1,1c-0.552,0-1-0.447-1-1v-5h-1.75H41c-0.552,0-1-0.447-1-1s0.448-1,1-1h2.424H46v-5c0-0.553,0.448-1,1-1
		c0.552,0,1,0.447,1,1v5h5c0.552,0,1,0.447,1,1S53.552,48,53,48z"/>
</g>
</svg>
