<?xml version="1.0" encoding="utf-8"?>
<!-- Generator: Adobe Illustrator 17.0.0, SVG Export Plug-In . SVG Version: 6.00 Build 0)  -->
<!DOCTYPE svg PUBLIC "-//W3C//DTD SVG 1.1//EN" "http://www.w3.org/Graphics/SVG/1.1/DTD/svg11.dtd">
<svg version="1.1" xmlns="http://www.w3.org/2000/svg" xmlns:xlink="http://www.w3.org/1999/xlink" x="0px" y="0px" width="60px"
	 height="60px" viewBox="0 0 60 60" enable-background="new 0 0 60 60" xml:space="preserve">
<g id="Layer_3">
	<g>
		<rect x="24" y="36" fill="#010101" width="12" height="6"/>
		<path fill="#010101" d="M38,43c0,0.553-0.448,1-1,1H23c-0.552,0-1-0.447-1-1v-1H4v13c0,0.553,0.448,1,1,1h50c0.552,0,1-0.447,1-1
			V42H38V43z"/>
		<path fill="#010101" d="M54.32,14.068C54.204,14.023,54.081,14,53.956,14H42v-1c0-4.963-3.687-9-8.218-9h-7.565
			C21.686,4,18,8.037,18,13v1H6.043c-0.125,0-0.248,0.023-0.363,0.068C2.176,15.436,0,18.142,0,21.131V40h2h3h17v-5
			c0-0.553,0.448-1,1-1h14c0.552,0,1,0.447,1,1v5h17h3h2V21.131C60,18.142,57.823,15.436,54.32,14.068z M40,14H20v-1
			c0-3.859,2.789-7,6.217-7h7.565C37.211,6,40,9.141,40,13V14z"/>
	</g>
</g>
<g id="nyt_x5F_exporter_x5F_info" display="none">
</g>
</svg>
