<?xml version="1.0" encoding="utf-8"?>
<!-- Generator: Adobe Illustrator 17.0.0, SVG Export Plug-In . SVG Version: 6.00 Build 0)  -->
<!DOCTYPE svg PUBLIC "-//W3C//DTD SVG 1.1//EN" "http://www.w3.org/Graphics/SVG/1.1/DTD/svg11.dtd">
<svg version="1.1" xmlns="http://www.w3.org/2000/svg" xmlns:xlink="http://www.w3.org/1999/xlink" x="0px" y="0px" width="60px"
	 height="60px" viewBox="0 0 60 60" enable-background="new 0 0 60 60" xml:space="preserve">
<g id="Layer_3">
	<g>
		<path fill="#010101" d="M59,8h-8.826c-0.461,0-0.863,0.316-0.972,0.765L45.996,22H1c-0.318,0-0.618,0.151-0.807,0.408
			c-0.188,0.258-0.243,0.589-0.147,0.893l7.565,24C7.743,47.717,8.129,48,8.565,48h31.132l-0.484,2H12c-2.757,0-5,2.243-5,5
			c0,2.757,2.243,5,5,5s5-2.243,5-5c0-1.13-0.391-2.162-1.026-3h19.051C34.391,52.838,34,53.87,34,55c0,2.757,2.243,5,5,5
			c2.757,0,5-2.243,5-5c0-1.985-1.171-3.688-2.851-4.495l0.752-3.103c0.025-0.056,0.057-0.107,0.072-0.167l5.783-24
			c0,0,0-0.001,0-0.001L50.96,10H59c0.552,0,1-0.447,1-1C60,8.447,59.552,8,59,8z"/>
		<path fill="#010101" d="M24.247,19.658c0.007,0.008,0.018,0.011,0.025,0.018c0.068,0.073,0.15,0.126,0.237,0.177
			c0.031,0.018,0.056,0.046,0.089,0.06C24.722,19.968,24.857,20,25,20c0.143,0,0.278-0.032,0.401-0.087
			c0.033-0.015,0.058-0.042,0.089-0.06c0.087-0.05,0.169-0.104,0.237-0.177c0.007-0.008,0.018-0.01,0.025-0.018l7-8
			c0.364-0.415,0.322-1.047-0.094-1.411c-0.416-0.363-1.047-0.321-1.411,0.095L26,16.339V1c0-0.553-0.448-1-1-1
			c-0.552,0-1,0.447-1,1v15.339l-5.248-5.997c-0.364-0.417-0.995-0.46-1.411-0.095c-0.416,0.364-0.458,0.996-0.094,1.411
			L24.247,19.658z"/>
	</g>
</g>
<g id="nyt_x5F_exporter_x5F_info" display="none">
</g>
</svg>
