<?xml version="1.0" encoding="utf-8"?>
<!-- Generator: Adobe Illustrator 17.0.0, SVG Export Plug-In . SVG Version: 6.00 Build 0)  -->
<!DOCTYPE svg PUBLIC "-//W3C//DTD SVG 1.1//EN" "http://www.w3.org/Graphics/SVG/1.1/DTD/svg11.dtd">
<svg version="1.1" xmlns="http://www.w3.org/2000/svg" xmlns:xlink="http://www.w3.org/1999/xlink" x="0px" y="0px" width="60px"
	 height="60px" viewBox="0 0 60 60" enable-background="new 0 0 60 60" xml:space="preserve">
<g id="Layer_3">
	<g>
		<path fill="#010101" d="M58,3.5h-6c-1.332,0-3.43,0.891-3.707,2.854l-0.704,6.133L4,12.5c-1.944,0-4,2.056-4,4
			c0,1.944,2.056,4,4,4h36.087c0.822,0,1.913,1.141,1.913,2c0,0.841-1.159,2-2,2H7c-1.944,0-4,2.056-4,4c0,2.598,2.061,4,4,4h31
			c0.841,0,2,1.159,2,2c0,0.841-1.159,2-2,2H9c-1.944,0-4,2.056-4,4c0,1.944,2.056,4,4,4h36.732c1.118,0,2.081-0.834,2.242-1.963
			l3.446-28.619c0.029-0.102,0.054-0.206,0.066-0.315L52.188,7.5H58c1.104,0,2-0.895,2-2C60,4.396,59.104,3.5,58,3.5z"/>
		<path fill="#010101" d="M42,46.5c-2.757,0-5,2.243-5,5c0,2.757,2.243,5,5,5s5-2.243,5-5C47,48.743,44.757,46.5,42,46.5z"/>
		<path fill="#010101" d="M13,46.5c-2.757,0-5,2.243-5,5c0,2.757,2.243,5,5,5s5-2.243,5-5C18,48.743,15.757,46.5,13,46.5z"/>
	</g>
</g>
<g id="nyt_x5F_exporter_x5F_info" display="none">
</g>
</svg>
