<?xml version="1.0" encoding="utf-8"?>
<!-- Generator: Adobe Illustrator 17.0.0, SVG Export Plug-In . SVG Version: 6.00 Build 0)  -->
<!DOCTYPE svg PUBLIC "-//W3C//DTD SVG 1.1//EN" "http://www.w3.org/Graphics/SVG/1.1/DTD/svg11.dtd">
<svg version="1.1" xmlns="http://www.w3.org/2000/svg" xmlns:xlink="http://www.w3.org/1999/xlink" x="0px" y="0px" width="60px"
	 height="60px" viewBox="0 0 60 60" enable-background="new 0 0 60 60" xml:space="preserve">
<g id="Layer_3">
	<g>
		<path fill="#010101" d="M18.752,9.658L24,3.661V19c0,0.553,0.448,1,1,1s1-0.447,1-1V3.661l5.248,5.997
			C31.445,9.885,31.722,10,32,10c0.233,0,0.468-0.081,0.658-0.247c0.415-0.364,0.457-0.996,0.094-1.411l-7-8
			c-0.007-0.008-0.017-0.01-0.024-0.017C25.546,0.128,25.29,0,25,0c-0.29,0-0.546,0.128-0.729,0.325
			c-0.007,0.007-0.017,0.009-0.024,0.017l-7,8c-0.364,0.415-0.322,1.047,0.094,1.411C17.759,10.118,18.389,10.075,18.752,9.658z"/>
		<path fill="#010101" d="M59,8h-8.826c-0.461,0-0.863,0.316-0.972,0.765L45.996,22H1c-0.318,0-0.618,0.151-0.807,0.408
			c-0.188,0.258-0.243,0.589-0.147,0.893l7.565,24C7.743,47.717,8.129,48,8.565,48h31.132l-0.484,2H12c-2.757,0-5,2.243-5,5
			c0,2.757,2.243,5,5,5s5-2.243,5-5c0-1.13-0.391-2.162-1.026-3h19.051C34.391,52.838,34,53.87,34,55c0,2.757,2.243,5,5,5
			c2.757,0,5-2.243,5-5c0-1.985-1.171-3.688-2.851-4.495l0.752-3.103c0.025-0.056,0.057-0.107,0.072-0.167l5.748-23.858L50.96,10H59
			c0.552,0,1-0.447,1-1C60,8.447,59.552,8,59,8z"/>
	</g>
</g>
<g id="nyt_x5F_exporter_x5F_info" display="none">
</g>
</svg>
