<?xml version="1.0" encoding="utf-8"?>
<!-- Generator: Adobe Illustrator 17.0.0, SVG Export Plug-In . SVG Version: 6.00 Build 0)  -->
<!DOCTYPE svg PUBLIC "-//W3C//DTD SVG 1.1//EN" "http://www.w3.org/Graphics/SVG/1.1/DTD/svg11.dtd">
<svg version="1.1" xmlns="http://www.w3.org/2000/svg" xmlns:xlink="http://www.w3.org/1999/xlink" x="0px" y="0px" width="60px"
	 height="60px" viewBox="0 0 60 60" enable-background="new 0 0 60 60" xml:space="preserve">
<g id="Layer_3">
	<g>
		<path fill="#010101" d="M47,59v1h4.435C56.078,60,60,55.879,60,51v-3.608h-1.391C52.207,47.392,47,52.599,47,59z"/>
		<path fill="#010101" d="M1,47.392H0V51c0,4.879,3.922,9,8.565,9h4.043v-1C12.609,52.599,7.401,47.392,1,47.392z"/>
		<path fill="#010101" d="M48.11,22.006C48.074,22.002,48.037,22,48,22h-4.001l-0.001-8.447C43.572,5.953,37.423,0,30,0
			c-7.423,0-13.572,5.953-14,13.608V22h-4c-0.037,0-0.074,0.002-0.11,0.006C5.111,22.758,0,28.363,0,35.044v10.348h1
			c7.504,0,13.609,6.104,13.609,13.608v1H45v-1c0-7.504,6.105-13.608,13.609-13.608H60V35.044C60,28.363,54.889,22.758,48.11,22.006
			z M17.998,13.664C18.366,7.124,23.638,2,30,2c6.362,0,11.634,5.124,12,11.608V22H17.999L17.998,13.664z M12.087,42.608
			c0,0.553-0.448,1-1,1c-0.552,0-1-0.447-1-1v-2.521c0-0.553,0.448-1,1-1c0.552,0,1,0.447,1,1V42.608z M53.956,38H6.043
			c-0.552,0-1-0.447-1-1c0-0.553,0.448-1,1-1h47.913c0.552,0,1,0.447,1,1C54.956,37.553,54.508,38,53.956,38z"/>
	</g>
</g>
<g id="nyt_x5F_exporter_x5F_info" display="none">
</g>
</svg>
