<?xml version="1.0" encoding="utf-8"?>
<!-- Generator: Adobe Illustrator 17.0.0, SVG Export Plug-In . SVG Version: 6.00 Build 0)  -->
<!DOCTYPE svg PUBLIC "-//W3C//DTD SVG 1.1//EN" "http://www.w3.org/Graphics/SVG/1.1/DTD/svg11.dtd">
<svg version="1.1" xmlns="http://www.w3.org/2000/svg" xmlns:xlink="http://www.w3.org/1999/xlink" x="0px" y="0px" width="60px"
	 height="60px" viewBox="0 0 60 60" enable-background="new 0 0 60 60" xml:space="preserve">
<g id="Layer_3">
	<g>
		<path fill="#010101" d="M40.862,19.138H55V5H40.862V19.138z M44.241,9.379c0-0.553,0.448-1,1-1h5.379c0.552,0,1,0.447,1,1v5.38
			c0,0.553-0.448,1-1,1h-5.379c-0.552,0-1-0.447-1-1V9.379z"/>
		<rect x="46.241" y="10.379" fill="#010101" width="3.379" height="3.38"/>
		<rect x="8.586" y="44.448" fill="#010101" width="6.965" height="6.966"/>
		<rect x="40.862" y="40.862" fill="#010101" width="5.172" height="5.172"/>
		<path fill="#010101" d="M5,19.138h14.138V5H5V19.138z M6.586,7.586c0-0.553,0.448-1,1-1h8.965c0.552,0,1,0.447,1,1v8.966
			c0,0.553-0.448,1-1,1H7.586c-0.552,0-1-0.447-1-1V7.586z"/>
		<rect x="8.586" y="8.586" fill="#010101" width="6.965" height="6.966"/>
		<path fill="#010101" d="M5,55h14.138V40.862H5V55z M6.586,43.448c0-0.553,0.448-1,1-1h8.965c0.552,0,1,0.447,1,1v8.966
			c0,0.553-0.448,1-1,1H7.586c-0.552,0-1-0.447-1-1V43.448z"/>
		<path fill="#010101" d="M59,0H1C0.448,0,0,0.447,0,1v58c0,0.553,0.448,1,1,1h58c0.552,0,1-0.447,1-1V1C60,0.447,59.552,0,59,0z
			 M37.276,8.523v9.822c0,0.553-0.448,1-1,1H31.13c-0.552,0-1-0.447-1-1v-5.302c0-0.553,0.448-1,1-1c0.552,0,1,0.447,1,1v4.302
			h3.146V8.523c0-0.553,0.448-1,1-1C36.828,7.523,37.276,7.97,37.276,8.523z M27.739,28.104h4.521c0.552,0,1,0.447,1,1s-0.448,1-1,1
			h-4.521c-0.552,0-1-0.447-1-1S27.187,28.104,27.739,28.104z M24.348,24.724c-0.552,0-1-0.447-1-1c0-0.553,0.448-1,1-1h7.913
			c0.552,0,1,0.447,1,1c0,0.553-0.448,1-1,1H24.348z M35.652,38.862c0.552,0,1,0.447,1,1c0,0.553-0.448,1-1,1h-3.756v6.095
			c0,0.553-0.448,1-1,1c-0.552,0-1-0.447-1-1v-7.095c0-0.553,0.448-1,1-1H35.652z M43.565,35.276c0.552,0,1,0.447,1,1
			c0,0.553-0.448,1-1,1h-6.783c-0.552,0-1-0.447-1-1c0-0.553,0.448-1,1-1h2.08V31.13c0-0.553,0.448-1,1-1c0.552,0,1,0.447,1,1v4.146
			H43.565z M35.276,45.826c0-0.553,0.448-1,1-1c0.552,0,1,0.447,1,1v5.588h9.681c0.552,0,1,0.447,1,1c0,0.553-0.448,1-1,1H36.276
			c-0.552,0-1-0.447-1-1V45.826z M47.035,48.034h-7.172c-0.552,0-1-0.447-1-1v-7.172c0-0.553,0.448-1,1-1h7.172c0.552,0,1,0.447,1,1
			v7.172C48.035,47.587,47.587,48.034,47.035,48.034z M47.828,35.652V28.87c0-0.553,0.448-1,1-1c0.552,0,1,0.447,1,1v6.782
			c0,0.553-0.448,1-1,1C48.275,36.652,47.828,36.205,47.828,35.652z M48.087,24.724H37.276v4.146c0,0.553-0.448,1-1,1
			c-0.552,0-1-0.447-1-1v-5.146c0-0.553,0.448-1,1-1h11.811c0.552,0,1,0.447,1,1C49.087,24.276,48.639,24.724,48.087,24.724z
			 M28.87,3h6.783c0.552,0,1,0.447,1,1c0,0.553-0.448,1-1,1H28.87c-0.552,0-1-0.447-1-1C27.87,3.447,28.317,3,28.87,3z M22.724,4
			c0-0.553,0.448-1,1-1c0.552,0,1,0.447,1,1v4.379h4.145c0.552,0,1,0.447,1,1s-0.448,1-1,1h-5.145c-0.552,0-1-0.447-1-1V4z
			 M22.724,13.043c0-0.553,0.448-1,1-1c0.552,0,1,0.447,1,1v6.783c0,0.553-0.448,1-1,1c-0.552,0-1-0.447-1-1V13.043z M22.724,28.87
			c0-0.553,0.448-1,1-1c0.552,0,1,0.447,1,1v6.406h7.537c0.552,0,1,0.447,1,1c0,0.553-0.448,1-1,1h-8.537c-0.552,0-1-0.447-1-1
			V28.87z M3,28.87c0-0.553,0.448-1,1-1c0.552,0,1,0.447,1,1v6.406h3.522c0.552,0,1,0.447,1,1c0,0.553-0.448,1-1,1H4
			c-0.552,0-1-0.447-1-1V28.87z M15.304,32.13H8.522c-0.552,0-1-0.447-1-1c0-0.553,0.448-1,1-1h6.782c0.552,0,1,0.447,1,1
			C16.304,31.683,15.856,32.13,15.304,32.13z M19.826,35.276c0.552,0,1,0.447,1,1c0,0.553-0.448,1-1,1h-4.522c-0.552,0-1-0.447-1-1
			c0-0.553,0.448-1,1-1H19.826z M21.138,56c0,0.553-0.448,1-1,1H4c-0.552,0-1-0.447-1-1V39.862c0-0.553,0.448-1,1-1h16.138
			c0.552,0,1,0.447,1,1V56z M21.138,28.87c0,0.553-0.448,1-1,1c-0.552,0-1-0.447-1-1v-4.146H4c-0.552,0-1-0.447-1-1
			c0-0.553,0.448-1,1-1h16.138c0.552,0,1,0.447,1,1V28.87z M21.138,20.138c0,0.553-0.448,1-1,1H4c-0.552,0-1-0.447-1-1V4
			c0-0.553,0.448-1,1-1h16.138c0.552,0,1,0.447,1,1V20.138z M22.724,52.414v-9.979c0-0.553,0.448-1,1-1c0.552,0,1,0.447,1,1v8.979
			h6.406c0.552,0,1,0.447,1,1c0,0.553-0.448,1-1,1h-7.406C23.172,53.414,22.724,52.967,22.724,52.414z M57,46.957
			c0,0.553-0.448,1-1,1c-0.552,0-1-0.447-1-1v-6.095h-3.379V56c0,0.553-0.448,1-1,1H31.13c-0.552,0-1-0.447-1-1c0-0.553,0.448-1,1-1
			h18.49V39.862c0-0.553,0.448-1,1-1H56c0.552,0,1,0.447,1,1V46.957z M56,24.724h-2.392v10.929c0,0.553-0.448,1-1,1s-1-0.447-1-1
			V23.724c0-0.553,0.448-1,1-1H56c0.552,0,1,0.447,1,1C57,24.276,56.552,24.724,56,24.724z M57,20.138c0,0.553-0.448,1-1,1H39.862
			c-0.552,0-1-0.447-1-1V4c0-0.553,0.448-1,1-1H56c0.552,0,1,0.447,1,1V20.138z"/>
	</g>
</g>
<g id="nyt_x5F_exporter_x5F_info" display="none">
</g>
</svg>
