<?xml version="1.0" encoding="utf-8"?>
<!-- Generator: Adobe Illustrator 17.0.0, SVG Export Plug-In . SVG Version: 6.00 Build 0)  -->
<!DOCTYPE svg PUBLIC "-//W3C//DTD SVG 1.1//EN" "http://www.w3.org/Graphics/SVG/1.1/DTD/svg11.dtd">
<svg version="1.1" xmlns="http://www.w3.org/2000/svg" xmlns:xlink="http://www.w3.org/1999/xlink" x="0px" y="0px" width="60px"
	 height="60px" viewBox="0 0 60 60" enable-background="new 0 0 60 60" xml:space="preserve">
<g id="Layer_3">
	<path fill="#010101" d="M55.488,0.984L55.473,0H22.495l-0.007,0.993C22.486,1.267,22.271,28.006,19.663,42H8.488
		c-3.868,0-3.955,4.237-4.031,7.975C4.354,54.968,4.036,58,0.488,58v2h31c3.16,0,4.617-1.738,5.309-4h9.691
		c0.925,0,1.783-0.395,2.552-1.176C56.119,47.636,55.517,2.886,55.488,0.984z M30.749,8h5.044c0.552,0,1,0.447,1,1
		c0,0.553-0.448,1-1,1h-5.044c-0.552,0-1-0.447-1-1C29.749,8.447,30.196,8,30.749,8z M29.488,18h16.391c0.552,0,1,0.447,1,1
		c0,0.553-0.448,1-1,1H29.488c-0.552,0-1-0.447-1-1C28.488,18.447,28.936,18,29.488,18z M28.227,30h17.652c0.552,0,1,0.447,1,1
		c0,0.553-0.448,1-1,1H28.227c-0.552,0-1-0.447-1-1C27.227,30.447,27.675,30,28.227,30z M28.488,27c0-0.553,0.448-1,1-1h15.13
		c0.552,0,1,0.447,1,1c0,0.553-0.448,1-1,1h-15.13C28.936,28,28.488,27.553,28.488,27z M37.219,54
		c0.18-1.337,0.212-2.729,0.238-3.984C37.54,45.927,37.768,44,39.488,44c0.851,0,1.108,0.273,1.193,0.362
		c0.583,0.616,0.491,2.249,0.403,3.828c-0.111,1.988-0.226,4.207,0.841,5.81H37.219z M47.14,36H26.966c-0.552,0-1-0.447-1-1
		c0-0.553,0.448-1,1-1H47.14c0.552,0,1,0.447,1,1C48.14,35.553,47.693,36,47.14,36z M47.14,24H29.488c-0.552,0-1-0.447-1-1
		c0-0.553,0.448-1,1-1H47.14c0.552,0,1,0.447,1,1C48.14,23.553,47.693,24,47.14,24z M47.14,14H33.27c-0.552,0-1-0.447-1-1
		c0-0.553,0.448-1,1-1h13.87c0.552,0,1,0.447,1,1C48.14,13.553,47.693,14,47.14,14z"/>
</g>
<g id="nyt_x5F_exporter_x5F_info" display="none">
</g>
</svg>
