<?xml version="1.0" encoding="utf-8"?>
<!-- Generator: Adobe Illustrator 17.0.0, SVG Export Plug-In . SVG Version: 6.00 Build 0)  -->
<!DOCTYPE svg PUBLIC "-//W3C//DTD SVG 1.1//EN" "http://www.w3.org/Graphics/SVG/1.1/DTD/svg11.dtd">
<svg version="1.1" xmlns="http://www.w3.org/2000/svg" xmlns:xlink="http://www.w3.org/1999/xlink" x="0px" y="0px" width="60px"
	 height="60px" viewBox="0 0 60 60" enable-background="new 0 0 60 60" xml:space="preserve">
<g id="Layer_3">
	<path fill="#010101" d="M58.518,2.718c-0.391-0.415-0.871-0.646-1.393-0.696V2H25c-0.791,0-1.495,0.3-2.035,0.867
		c-1.381,1.451-1.284,4.259-1.27,4.529c0.001,0.211,0.074,20.848-2.52,34.603H7c-1.007,0-1.826,0.321-2.434,0.956
		c-1.396,1.455-1.281,4.188-1.16,7.081c0.114,2.723,0.244,5.808-1.043,7.15C1.839,57.734,1.066,58,0,58v2h31
		c3.16,0,4.617-1.738,5.309-4H47c0.985,0,1.89-0.414,2.691-1.229c5.179-5.274,5.647-28.615,5.428-42.784L59.906,12l0.056-0.94
		C60.026,9.99,60.256,4.563,58.518,2.718z M30.261,12h5.044c0.552,0,1,0.447,1,1c0,0.553-0.448,1-1,1h-5.044c-0.552,0-1-0.447-1-1
		C29.261,12.447,29.708,12,30.261,12z M29,22h16.391c0.552,0,1,0.447,1,1c0,0.553-0.448,1-1,1H29c-0.552,0-1-0.447-1-1
		C28,22.447,28.448,22,29,22z M36.731,54c0.18-1.337,0.212-2.729,0.238-3.984C37.052,45.927,37.28,44,39,44
		c1.664,0,1.941,0.963,2.032,4.274c0.049,1.786,0.121,4.097,1.292,5.726H36.731z M45.391,36H27.739c-0.552,0-1-0.447-1-1
		c0-0.553,0.448-1,1-1h17.652c0.552,0,1,0.447,1,1C46.391,35.553,45.943,36,45.391,36z M28,31c0-0.553,0.448-1,1-1h15.13
		c0.552,0,1,0.447,1,1c0,0.553-0.448,1-1,1H29C28.448,32,28,31.553,28,31z M46.652,28H29c-0.552,0-1-0.447-1-1c0-0.553,0.448-1,1-1
		h17.652c0.552,0,1,0.447,1,1C47.652,27.553,47.205,28,46.652,28z M46.652,20h-13.87c-0.552,0-1-0.447-1-1c0-0.553,0.448-1,1-1
		h13.87c0.552,0,1,0.447,1,1C47.652,19.553,47.205,20,46.652,20z M58.001,10l-2.957-0.012c-0.049-1.88-0.123-2.985-0.125-2.985
		C54.92,6.881,54.961,4,56.919,4c0.021,0,0.059,0,0.143,0.089C57.803,4.875,58.042,7.75,58.001,10z"/>
</g>
<g id="nyt_x5F_exporter_x5F_info" display="none">
</g>
</svg>
