<?xml version="1.0" encoding="utf-8"?>
<!-- Generator: Adobe Illustrator 17.0.0, SVG Export Plug-In . SVG Version: 6.00 Build 0)  -->
<!DOCTYPE svg PUBLIC "-//W3C//DTD SVG 1.1//EN" "http://www.w3.org/Graphics/SVG/1.1/DTD/svg11.dtd">
<svg version="1.1" xmlns="http://www.w3.org/2000/svg" xmlns:xlink="http://www.w3.org/1999/xlink" x="0px" y="0px" width="60px"
	 height="60px" viewBox="0 0 60 60" enable-background="new 0 0 60 60" xml:space="preserve">
<g id="Layer_3">
	<path fill="#010101" d="M50.387,0.119c-0.371-0.156-0.8-0.073-1.087,0.209l-4.293,4.218l-4.299-4.299
		c-0.391-0.391-1.023-0.391-1.414,0L35,4.54l-4.293-4.293c-0.391-0.391-1.023-0.391-1.414,0L25,4.54l-4.293-4.293
		c-0.391-0.391-1.023-0.391-1.414,0l-4.299,4.299l-4.293-4.218c-0.287-0.282-0.716-0.365-1.087-0.209C9.242,0.274,9,0.637,9,1.041
		v58c0,0.406,0.246,0.771,0.621,0.926c0.376,0.152,0.808,0.065,1.092-0.225l4.293-4.368l4.374,4.374
		c0.19,0.19,0.473,0.329,0.716,0.293c0.268-0.002,0.524-0.112,0.711-0.306l4.206-4.354l4.281,4.28c0.391,0.391,1.023,0.391,1.414,0
		L35,55.368l4.293,4.293c0.391,0.391,1.023,0.391,1.414,0l4.287-4.287l4.293,4.368c0.192,0.195,0.45,0.299,0.713,0.299
		c0.127,0,0.256-0.024,0.379-0.074C50.754,59.812,51,59.447,51,59.041v-58C51,0.637,50.758,0.274,50.387,0.119z M25.13,39.954
		h-7.565c-0.552,0-1-0.447-1-1c0-0.553,0.448-1,1-1h7.565c0.552,0,1,0.447,1,1C26.13,39.506,25.683,39.954,25.13,39.954z
		 M27.652,31.954H17.565c-0.552,0-1-0.447-1-1c0-0.553,0.448-1,1-1h10.087c0.552,0,1,0.447,1,1
		C28.652,31.506,28.205,31.954,27.652,31.954z M27.652,23.954H17.565c-0.552,0-1-0.447-1-1c0-0.553,0.448-1,1-1h10.087
		c0.552,0,1,0.447,1,1C28.652,23.506,28.205,23.954,27.652,23.954z M17.565,15.954c-0.552,0-1-0.447-1-1c0-0.553,0.448-1,1-1h20.174
		c0.552,0,1,0.447,1,1c0,0.553-0.448,1-1,1H17.565z M39,35.345c2.637,0,4.782,2.146,4.782,4.782c0,2.293-1.625,4.212-3.782,4.673
		v2.153c0,0.553-0.448,1-1,1c-0.552,0-1-0.447-1-1v-2.153c-2.158-0.461-3.783-2.38-3.783-4.673c0-0.553,0.448-1,1-1
		c0.552,0,1,0.447,1,1c0,1.534,1.249,2.782,2.783,2.782c1.534,0,2.782-1.248,2.782-2.782c0-1.534-1.248-2.782-2.782-2.782
		c-2.638,0-4.783-2.146-4.783-4.783c0-2.293,1.625-4.212,3.783-4.673v-1.935c0-0.553,0.448-1,1-1c0.552,0,1,0.447,1,1v1.935
		c2.158,0.462,3.782,2.38,3.782,4.673c0,0.553-0.448,1-1,1c-0.552,0-1-0.447-1-1c0-1.534-1.248-2.782-2.782-2.782
		c-1.535,0-2.783,1.248-2.783,2.782C36.217,34.096,37.465,35.345,39,35.345z"/>
</g>
<g id="nyt_x5F_exporter_x5F_info" display="none">
</g>
</svg>
