<?xml version="1.0" encoding="utf-8"?>
<!-- Generator: Adobe Illustrator 17.0.0, SVG Export Plug-In . SVG Version: 6.00 Build 0)  -->
<!DOCTYPE svg PUBLIC "-//W3C//DTD SVG 1.1//EN" "http://www.w3.org/Graphics/SVG/1.1/DTD/svg11.dtd">
<svg version="1.1" xmlns="http://www.w3.org/2000/svg" xmlns:xlink="http://www.w3.org/1999/xlink" x="0px" y="0px" width="60px"
	 height="60px" viewBox="0 0 60 60" enable-background="new 0 0 60 60" xml:space="preserve">
<g id="Layer_3">
	<path fill="#010101" d="M50.387,0.121c-0.372-0.156-0.8-0.073-1.087,0.209l-4.293,4.218l-4.299-4.299
		c-0.391-0.391-1.023-0.391-1.414,0L35,4.542l-4.293-4.293c-0.391-0.391-1.023-0.391-1.414,0L25,4.542l-4.293-4.293
		c-0.391-0.391-1.023-0.391-1.414,0l-4.299,4.299L10.701,0.33c-0.287-0.282-0.716-0.365-1.087-0.209C9.242,0.277,9,0.64,9,1.043v58
		c0,0.404,0.244,0.769,0.617,0.924c0.124,0.052,0.254,0.076,0.383,0.076c0.26,0,0.516-0.102,0.707-0.293l4.336-4.336l4.25,4.249
		c0.386,0.388,1.01,0.392,1.402,0.012l4.417-4.267l4.175,4.249c0.187,0.19,0.442,0.298,0.709,0.299
		c0.279,0.022,0.523-0.104,0.711-0.293L35,55.371l4.293,4.293c0.391,0.391,1.023,0.391,1.414,0l4.287-4.287l4.293,4.368
		c0.286,0.291,0.718,0.378,1.092,0.225C50.754,59.815,51,59.45,51,59.043v-58C51,0.64,50.758,0.277,50.387,0.121z M25.13,41.956
		h-7.565c-0.552,0-1-0.447-1-1s0.448-1,1-1h7.565c0.552,0,1,0.447,1,1S25.683,41.956,25.13,41.956z M30.174,33.956H17.565
		c-0.552,0-1-0.447-1-1s0.448-1,1-1h12.608c0.552,0,1,0.447,1,1S30.726,33.956,30.174,33.956z M16.565,24.956c0-0.553,0.448-1,1-1
		h10.087c0.552,0,1,0.447,1,1s-0.448,1-1,1H17.565C17.013,25.956,16.565,25.509,16.565,24.956z M32.695,17.956h-15.13
		c-0.552,0-1-0.447-1-1s0.448-1,1-1h15.13c0.552,0,1,0.447,1,1S33.248,17.956,32.695,17.956z M42.782,41.956h-2.521
		c-0.552,0-1-0.447-1-1s0.448-1,1-1h2.521c0.552,0,1,0.447,1,1S43.334,41.956,42.782,41.956z M42.782,33.956h-2.521
		c-0.552,0-1-0.447-1-1s0.448-1,1-1h2.521c0.552,0,1,0.447,1,1S43.334,33.956,42.782,33.956z M42.782,25.956h-2.521
		c-0.552,0-1-0.447-1-1s0.448-1,1-1h2.521c0.552,0,1,0.447,1,1S43.334,25.956,42.782,25.956z M42.782,17.956h-2.521
		c-0.552,0-1-0.447-1-1s0.448-1,1-1h2.521c0.552,0,1,0.447,1,1S43.334,17.956,42.782,17.956z"/>
</g>
<g id="nyt_x5F_exporter_x5F_info" display="none">
</g>
</svg>
