<?xml version="1.0" encoding="utf-8"?>
<!-- Generator: Adobe Illustrator 17.0.0, SVG Export Plug-In . SVG Version: 6.00 Build 0)  -->
<!DOCTYPE svg PUBLIC "-//W3C//DTD SVG 1.1//EN" "http://www.w3.org/Graphics/SVG/1.1/DTD/svg11.dtd">
<svg version="1.1" xmlns="http://www.w3.org/2000/svg" xmlns:xlink="http://www.w3.org/1999/xlink" x="0px" y="0px" width="60px"
	 height="60px" viewBox="0 0 60 60" enable-background="new 0 0 60 60" xml:space="preserve">
<g id="Layer_3">
	<path fill="#010101" d="M59,5.5h-8.826c-0.461,0-0.863,0.316-0.972,0.765l-3.098,12.79l-7.767-9.41
		C38.159,9.431,37.9,9.3,37.622,9.284c-0.29-0.02-0.551,0.086-0.751,0.279L34.868,11.5H23c-0.552,0-1,0.447-1,1v7h-6.355
		L8.216,3.088C8.105,2.843,7.9,2.653,7.648,2.56C7.396,2.47,7.118,2.481,6.875,2.597l-6.305,3C0.085,5.828-0.131,6.4,0.081,6.894
		L5.484,19.5H1c-0.318,0-0.618,0.151-0.807,0.408c-0.188,0.258-0.243,0.589-0.147,0.893l7.565,24
		C7.743,45.217,8.129,45.5,8.565,45.5h31.132l-0.484,2H12c-2.757,0-5,2.243-5,5c0,2.757,2.243,5,5,5s5-2.243,5-5
		c0-1.13-0.391-2.162-1.026-3h19.051C34.391,50.338,34,51.37,34,52.5c0,2.757,2.243,5,5,5c2.757,0,5-2.243,5-5
		c0-1.985-1.171-3.688-2.851-4.495l0.752-3.103c0.025-0.056,0.057-0.107,0.072-0.167l5.783-24v-0.001L50.96,7.5H59
		c0.552,0,1-0.447,1-1S59.552,5.5,59,5.5z M7.659,19.5L2.298,6.99l4.516-2.149L13.45,19.5H7.659z M24,19.5v-6h8.8l-6.204,6H24z
		 M29.472,19.5l6.506-6.292c0.001-0.001,0.002-0.001,0.003-0.002l1.502-1.453l6.395,7.747H29.472z"/>
</g>
<g id="nyt_x5F_exporter_x5F_info" display="none">
</g>
</svg>
