<?xml version="1.0" encoding="utf-8"?>
<!-- Generator: Adobe Illustrator 17.0.0, SVG Export Plug-In . SVG Version: 6.00 Build 0)  -->
<!DOCTYPE svg PUBLIC "-//W3C//DTD SVG 1.1//EN" "http://www.w3.org/Graphics/SVG/1.1/DTD/svg11.dtd">
<svg version="1.1" xmlns="http://www.w3.org/2000/svg" xmlns:xlink="http://www.w3.org/1999/xlink" x="0px" y="0px" width="60px"
	 height="60px" viewBox="0 0 60 60" enable-background="new 0 0 60 60" xml:space="preserve">
<g id="Layer_3">
	<path fill="#010101" d="M48,10.087V6c0-3.364-2.636-6-6-6h-8c-3.364,0-6,2.636-6,6v4.087h-8V6c0-2.243,1.757-4,4-4h2
		c0.552,0,1-0.447,1-1c0-0.553-0.448-1-1-1h-2c-3.364,0-6,2.636-6,6v4.087H9.402C9.278,10.033,9.144,10,9,10
		c-0.144,0-0.278,0.033-0.402,0.087H0V60h18.652H20h40V10.087H48z M18,58H2V12.087h6v37.499l-3.707,3.707
		c-0.391,0.391-0.391,1.023,0,1.414c0.391,0.391,1.023,0.391,1.414,0L9,51.414l3.293,3.293C12.488,54.902,12.744,55,13,55
		c0.256,0,0.512-0.098,0.707-0.293c0.391-0.391,0.391-1.023,0-1.414L10,49.586V12.087h8V58z M46,10.087H30V6c0-2.243,1.757-4,4-4h8
		c2.243,0,4,1.757,4,4V10.087z"/>
</g>
<g id="nyt_x5F_exporter_x5F_info" display="none">
</g>
</svg>
