<?xml version="1.0" encoding="utf-8"?>
<!-- Generator: Adobe Illustrator 17.0.0, SVG Export Plug-In . SVG Version: 6.00 Build 0)  -->
<!DOCTYPE svg PUBLIC "-//W3C//DTD SVG 1.1//EN" "http://www.w3.org/Graphics/SVG/1.1/DTD/svg11.dtd">
<svg version="1.1" xmlns="http://www.w3.org/2000/svg" xmlns:xlink="http://www.w3.org/1999/xlink" x="0px" y="0px" width="60px"
	 height="60px" viewBox="0 0 60 60" enable-background="new 0 0 60 60" xml:space="preserve">
<g id="Layer_3">
	<g>
		<path fill="#010101" d="M50.5,20h-48c-0.552,0-1,0.447-1,1v38c0,0.553,0.448,1,1,1h48c0.552,0,1-0.447,1-1V21
			C51.5,20.447,51.052,20,50.5,20z"/>
		<path fill="#010101" d="M14.5,17.131c0.552,0,1-0.447,1-1v-3.783C15.5,6.352,19.429,2,24.843,2C30.62,2,35.5,6.738,35.5,12.348
			v3.783c0,0.553,0.448,1,1,1c0.552,0,1-0.447,1-1v-3.783C37.5,5.654,31.704,0,24.843,0C18.27,0,13.5,5.193,13.5,12.348v3.783
			C13.5,16.684,13.948,17.131,14.5,17.131z"/>
		<path fill="#010101" d="M58.207,7.769l-5.349-5.351c-0.379-0.381-0.992-0.393-1.386-0.027l-9.651,8.918
			c-0.205,0.189-0.321,0.455-0.321,0.734V17c0,0.553,0.448,1,1,1h6.085c0.257,0,0.505-0.1,0.691-0.277l8.915-8.524
			c0.195-0.186,0.306-0.442,0.309-0.711C58.503,8.218,58.397,7.959,58.207,7.769z"/>
	</g>
</g>
<g id="nyt_x5F_exporter_x5F_info" display="none">
</g>
</svg>
