<?xml version="1.0" encoding="utf-8"?>
<!-- Generator: Adobe Illustrator 17.0.0, SVG Export Plug-In . SVG Version: 6.00 Build 0)  -->
<!DOCTYPE svg PUBLIC "-//W3C//DTD SVG 1.1//EN" "http://www.w3.org/Graphics/SVG/1.1/DTD/svg11.dtd">
<svg version="1.1" xmlns="http://www.w3.org/2000/svg" xmlns:xlink="http://www.w3.org/1999/xlink" x="0px" y="0px" width="60px"
	 height="60px" viewBox="0 0 60 60" enable-background="new 0 0 60 60" xml:space="preserve">
<g id="Layer_3">
	<g>
		<path fill="#010101" d="M30,0C13.458,0,0,13.458,0,30s13.458,30,30,30s30-13.458,30-30S46.542,0,30,0z M30,58
			C14.56,58,2,45.44,2,30C2,14.561,14.56,2,30,2c15.439,0,28,12.561,28,28C58,45.44,45.439,58,30,58z"/>
		<path fill="#010101" d="M30,7.565C17.629,7.565,7.565,17.63,7.565,30c0,12.37,10.064,22.435,22.435,22.435
			c12.371,0,22.435-10.065,22.435-22.435C52.435,17.63,42.371,7.565,30,7.565z M45.654,25.756l-8.19,7.084l3.571,10.713
			c0.138,0.415-0.009,0.872-0.364,1.128c-0.355,0.256-0.835,0.252-1.185-0.012L30,37.555l-9.487,7.114
			c-0.178,0.134-0.389,0.2-0.6,0.2c-0.205,0-0.41-0.062-0.584-0.188c-0.355-0.256-0.502-0.713-0.364-1.128l3.571-10.713
			l-8.189-7.084c-0.316-0.272-0.429-0.714-0.283-1.104C14.208,24.26,14.582,24,15,24h10.291l3.765-10.723
			c0.141-0.4,0.519-0.669,0.943-0.669c0.425,0,0.803,0.269,0.943,0.669L34.708,24H45c0.417,0,0.791,0.26,0.937,0.651
			C46.083,25.042,45.97,25.483,45.654,25.756z"/>
	</g>
</g>
<g id="nyt_x5F_exporter_x5F_info" display="none">
</g>
</svg>
