<?xml version="1.0" encoding="utf-8"?>
<!-- Generator: Adobe Illustrator 17.0.0, SVG Export Plug-In . SVG Version: 6.00 Build 0)  -->
<!DOCTYPE svg PUBLIC "-//W3C//DTD SVG 1.1//EN" "http://www.w3.org/Graphics/SVG/1.1/DTD/svg11.dtd">
<svg version="1.1" xmlns="http://www.w3.org/2000/svg" xmlns:xlink="http://www.w3.org/1999/xlink" x="0px" y="0px" width="60px"
	 height="60px" viewBox="0 0 60 60" enable-background="new 0 0 60 60" xml:space="preserve">
<g id="Layer_3">
	<g>
		<path fill="#010101" d="M2,18h56c1.104,0,2-0.895,2-2c0-1.104-0.896-2-2-2H2c-1.105,0-2,0.896-2,2C0,17.105,0.895,18,2,18z"/>
		<path fill="#010101" d="M58,42H2c-1.105,0-2,0.896-2,2c0,1.105,0.895,2,2,2h56c1.104,0,2-0.895,2-2C60,42.896,59.104,42,58,42z"/>
		<path fill="#010101" d="M15,25v4.299l-4.439-5.548c-0.53-0.664-1.423-0.916-2.224-0.639C7.537,23.394,7,24.15,7,25v10
			c0,1.105,0.895,2,2,2c1.104,0,2-0.895,2-2v-4.299l4.438,5.548C15.825,36.733,16.404,37,17,37c0.221,0,0.445-0.037,0.662-0.112
			C18.463,36.606,19,35.85,19,35V25c0-1.104-0.896-2-2-2C15.895,23,15,23.896,15,25z"/>
		<path fill="#010101" d="M30,27c1.104,0,2-0.895,2-2c0-1.104-0.896-2-2-2h-7c-1.105,0-2,0.896-2,2v10c0,1.105,0.895,2,2,2h7
			c1.104,0,2-0.895,2-2c0-1.104-0.896-2-2-2h-5v-1h3c1.104,0,2-0.895,2-2c0-1.104-0.896-2-2-2h-3v-1H30z"/>
		<path fill="#010101" d="M49.258,24.298l-1.91,5.093l-1.91-5.093C45.145,23.518,44.399,23,43.565,23s-1.58,0.518-1.872,1.298
			l-1.91,5.093l-1.91-5.093c-0.388-1.034-1.542-1.557-2.575-1.171c-1.034,0.389-1.559,1.541-1.171,2.575l3.783,10.087
			c0.293,0.781,1.039,1.298,1.873,1.298c0.834,0,1.58-0.518,1.873-1.298l1.91-5.093l1.91,5.093c0.292,0.78,1.039,1.298,1.872,1.298
			s1.58-0.518,1.873-1.298l3.783-10.087c0.388-1.034-0.136-2.187-1.17-2.575C50.796,22.741,49.645,23.264,49.258,24.298z"/>
	</g>
</g>
<g id="nyt_x5F_exporter_x5F_info" display="none">
</g>
</svg>
