<?xml version="1.0" encoding="utf-8"?>
<!-- Generator: Adobe Illustrator 17.0.0, SVG Export Plug-In . SVG Version: 6.00 Build 0)  -->
<!DOCTYPE svg PUBLIC "-//W3C//DTD SVG 1.1//EN" "http://www.w3.org/Graphics/SVG/1.1/DTD/svg11.dtd">
<svg version="1.1" xmlns="http://www.w3.org/2000/svg" xmlns:xlink="http://www.w3.org/1999/xlink" x="0px" y="0px" width="60px"
	 height="60px" viewBox="0 0 60 60" enable-background="new 0 0 60 60" xml:space="preserve">
<g id="Layer_3">
	<path fill="#010101" d="M30,0C13.458,0,0,13.458,0,30s13.458,30,30,30s30-13.458,30-30S46.542,0,30,0z M22,35
		c0,0.425-0.268,0.803-0.669,0.943c-0.4,0.139-0.847,0.012-1.112-0.318L14,27.851v7.236c0,0.553-0.448,1-1,1s-1-0.447-1-1V25
		c0-0.425,0.268-0.803,0.669-0.943c0.398-0.142,0.846-0.014,1.112,0.318L20,32.149V25c0-0.553,0.448-1,1-1s1,0.447,1,1V35z
		 M30.66,29.044c0.552,0.004,0.997,0.455,0.992,1.008c-0.004,0.55-0.451,0.992-1,0.992c-0.002,0-0.005,0-0.008,0L26,31.008V34h6
		c0.552,0,1,0.447,1,1c0,0.553-0.448,1-1,1h-7c-0.552,0-1-0.447-1-1V25c0-0.553,0.448-1,1-1h7c0.552,0,1,0.447,1,1
		c0,0.553-0.448,1-1,1h-6v3.008L30.66,29.044z M47.98,35.439c-0.146,0.39-0.52,0.648-0.937,0.648c-0.417,0-0.79-0.259-0.937-0.648
		l-2.846-7.591l-2.846,7.591c-0.146,0.39-0.52,0.648-0.937,0.648s-0.79-0.259-0.937-0.648l-3.783-10.087
		c-0.194-0.518,0.068-1.094,0.585-1.288c0.517-0.192,1.094,0.068,1.288,0.585l2.847,7.591l2.846-7.591
		c0.146-0.39,0.52-0.648,0.937-0.648c0.417,0,0.79,0.259,0.937,0.648l2.846,7.591l2.846-7.591c0.194-0.517,0.771-0.777,1.288-0.585
		c0.517,0.194,0.779,0.77,0.585,1.288L47.98,35.439z"/>
</g>
<g id="nyt_x5F_exporter_x5F_info" display="none">
</g>
</svg>
