<?xml version="1.0" encoding="utf-8"?>
<!-- Generator: Adobe Illustrator 17.0.0, SVG Export Plug-In . SVG Version: 6.00 Build 0)  -->
<!DOCTYPE svg PUBLIC "-//W3C//DTD SVG 1.1//EN" "http://www.w3.org/Graphics/SVG/1.1/DTD/svg11.dtd">
<svg version="1.1" xmlns="http://www.w3.org/2000/svg" xmlns:xlink="http://www.w3.org/1999/xlink" x="0px" y="0px" width="60px"
	 height="60px" viewBox="0 0 60 60" enable-background="new 0 0 60 60" xml:space="preserve">
<g id="Layer_3">
	<g>
		<path fill="#010101" d="M30,0C13.458,0,0,13.458,0,30s13.458,30,30,30s30-13.458,30-30S46.542,0,30,0z M30,58
			C14.56,58,2,45.44,2,30C2,14.561,14.56,2,30,2c15.439,0,28,12.561,28,28C58,45.44,45.439,58,30,58z"/>
		<path fill="#010101" d="M31.414,18.499c-0.589,0-1.13-0.017-1.61-0.031c-0.519-0.017-0.98-0.031-1.304-0.017v10.14
			c0.542,0.079,1.435,0.124,2.51,0.124c4.016,0,6.318-1.935,6.318-5.309C37.328,19.351,34.112,18.499,31.414,18.499z"/>
		<path fill="#010101" d="M30,7.565C17.629,7.565,7.565,17.63,7.565,30c0,12.37,10.064,22.435,22.435,22.435
			c12.371,0,22.435-10.065,22.435-22.435C52.435,17.63,42.371,7.565,30,7.565z M39.599,29.401c-1.896,2.021-4.949,3.138-8.589,3.138
			c-0.331,0-0.663,0.007-0.986,0.014c-0.57,0.013-1.124,0.02-1.523,0V43.5h-6V15.605l0.385-0.091C25.607,14.869,28.565,14.5,31,14.5
			c3.381,0,6.48,0.973,8.292,2.603c1.641,1.459,2.545,3.626,2.545,6.101C41.838,25.787,41.084,27.872,39.599,29.401z"/>
	</g>
</g>
<g id="nyt_x5F_exporter_x5F_info" display="none">
</g>
</svg>
