<?xml version="1.0" encoding="utf-8"?>
<!-- Generator: Adobe Illustrator 17.0.0, SVG Export Plug-In . SVG Version: 6.00 Build 0)  -->
<!DOCTYPE svg PUBLIC "-//W3C//DTD SVG 1.1//EN" "http://www.w3.org/Graphics/SVG/1.1/DTD/svg11.dtd">
<svg version="1.1" xmlns="http://www.w3.org/2000/svg" xmlns:xlink="http://www.w3.org/1999/xlink" x="0px" y="0px" width="60px"
	 height="60px" viewBox="0 0 60 60" enable-background="new 0 0 60 60" xml:space="preserve">
<g id="Layer_3">
	<g>
		<path fill="#010101" d="M40,50c-2.757,0-5,2.243-5,5c0,2.757,2.243,5,5,5c2.757,0,5-2.243,5-5C45,52.243,42.757,50,40,50z"/>
		<path fill="#010101" d="M11,50c-2.757,0-5,2.243-5,5c0,2.757,2.243,5,5,5c2.757,0,5-2.243,5-5C16,52.243,13.757,50,11,50z"/>
		<path fill="#010101" d="M58,7h-3.783c-1,0-1.847,0.739-1.981,1.73L47.428,44H2c-1.105,0-2,0.896-2,2c0,1.105,0.895,2,2,2h47.174
			c1,0,1.847-0.739,1.981-1.729L55.963,11H58c1.104,0,2-0.895,2-2C60,7.896,59.104,7,58,7z"/>
		<path fill="#010101" d="M23.53,37.356c0.009,0.01,0.02,0.016,0.029,0.025c0.059,0.061,0.124,0.114,0.19,0.167
			c0.038,0.031,0.072,0.065,0.112,0.093c0.079,0.055,0.165,0.099,0.251,0.142c0.032,0.016,0.062,0.037,0.095,0.052
			c0.107,0.046,0.22,0.081,0.336,0.108c0.016,0.004,0.031,0.011,0.047,0.015C24.723,37.985,24.86,38,25,38
			c0.14,0,0.277-0.015,0.41-0.043c0.016-0.003,0.031-0.011,0.047-0.015c0.116-0.027,0.229-0.061,0.336-0.108
			c0.033-0.014,0.063-0.035,0.095-0.052c0.087-0.043,0.172-0.088,0.251-0.142c0.04-0.028,0.074-0.062,0.112-0.093
			c0.066-0.053,0.131-0.106,0.19-0.167c0.009-0.009,0.02-0.016,0.029-0.025l12-13c0.749-0.812,0.698-2.077-0.113-2.826
			c-0.811-0.749-2.077-0.698-2.826,0.113L27,30.885V2c0-1.104-0.896-2-2-2c-1.105,0-2,0.896-2,2v28.885l-8.53-9.241
			c-0.75-0.811-2.015-0.861-2.826-0.113c-0.812,0.749-0.862,2.015-0.113,2.826L23.53,37.356z"/>
	</g>
</g>
<g id="nyt_x5F_exporter_x5F_info" display="none">
</g>
</svg>
