<?xml version="1.0" encoding="utf-8"?>
<!-- Generator: Adobe Illustrator 17.0.0, SVG Export Plug-In . SVG Version: 6.00 Build 0)  -->
<!DOCTYPE svg PUBLIC "-//W3C//DTD SVG 1.1//EN" "http://www.w3.org/Graphics/SVG/1.1/DTD/svg11.dtd">
<svg version="1.1" xmlns="http://www.w3.org/2000/svg" xmlns:xlink="http://www.w3.org/1999/xlink" x="0px" y="0px" width="60px"
	 height="60px" viewBox="0 0 60 60" enable-background="new 0 0 60 60" xml:space="preserve">
<g id="Layer_3">
	<g>
		<path fill="#010101" d="M40.087,46.5c-2.757,0-5,2.243-5,5c0,2.757,2.243,5,5,5s5-2.243,5-5
			C45.087,48.743,42.844,46.5,40.087,46.5z"/>
		<path fill="#010101" d="M11.087,46.5c-2.757,0-5,2.243-5,5c0,2.757,2.243,5,5,5s5-2.243,5-5
			C16.087,48.743,13.844,46.5,11.087,46.5z"/>
		<path fill="#010101" d="M57.913,3.5H54.13c-1,0-1.847,0.739-1.981,1.73L47.341,40.5H2.087c-1.104,0-2,0.896-2,2
			c0,1.105,0.896,2,2,2h47c1,0,1.847-0.739,1.981-1.729L55.876,7.5h2.037c1.104,0,2-0.895,2-2C59.913,4.396,59.018,3.5,57.913,3.5z"
			/>
		<polygon fill="#010101" points="27.887,27.8 22.437,27.8 7.387,27.8 4.087,27.8 4.087,36.55 27.887,36.55 		"/>
		<rect x="8.387" y="19.2" fill="#010101" width="13.05" height="6.6"/>
		<polygon fill="#010101" points="45.087,8.45 29.887,8.45 29.887,26.8 29.887,36.55 45.087,36.55 		"/>
	</g>
</g>
<g id="nyt_x5F_exporter_x5F_info" display="none">
</g>
</svg>
