<?xml version="1.0" encoding="utf-8"?>
<!-- Generator: Adobe Illustrator 17.0.0, SVG Export Plug-In . SVG Version: 6.00 Build 0)  -->
<!DOCTYPE svg PUBLIC "-//W3C//DTD SVG 1.1//EN" "http://www.w3.org/Graphics/SVG/1.1/DTD/svg11.dtd">
<svg version="1.1" xmlns="http://www.w3.org/2000/svg" xmlns:xlink="http://www.w3.org/1999/xlink" x="0px" y="0px" width="60px"
	 height="60px" viewBox="0 0 60 60" enable-background="new 0 0 60 60" xml:space="preserve">
<g id="Layer_3">
	<g>
		<path fill="#010101" d="M40,46.5c-2.757,0-5,2.243-5,5c0,2.757,2.243,5,5,5c2.757,0,5-2.243,5-5C45,48.743,42.757,46.5,40,46.5z"
			/>
		<path fill="#010101" d="M11,46.5c-2.757,0-5,2.243-5,5c0,2.757,2.243,5,5,5c2.757,0,5-2.243,5-5C16,48.743,13.757,46.5,11,46.5z"
			/>
		<path fill="#010101" d="M58,3.5h-3.783c-1,0-1.847,0.739-1.981,1.73L47.428,40.5H2c-1.105,0-2,0.896-2,2c0,1.105,0.895,2,2,2
			h47.174c1,0,1.847-0.739,1.981-1.729L55.963,7.5H58c1.104,0,2-0.895,2-2C60,4.396,59.104,3.5,58,3.5z"/>
	</g>
</g>
<g id="nyt_x5F_exporter_x5F_info" display="none">
</g>
</svg>
