<?xml version="1.0" encoding="utf-8"?>
<!-- Generator: Adobe Illustrator 17.1.0, SVG Export Plug-In . SVG Version: 6.00 Build 0)  -->
<!DOCTYPE svg PUBLIC "-//W3C//DTD SVG 1.0//EN" "http://www.w3.org/TR/2001/REC-SVG-20010904/DTD/svg10.dtd">
<svg version="1.0" id="Layer_1" xmlns="http://www.w3.org/2000/svg" xmlns:xlink="http://www.w3.org/1999/xlink" x="0px" y="0px"
	 width="60px" height="60px" viewBox="0 0 60 60" enable-background="new 0 0 60 60" xml:space="preserve">
<g>
	<path d="M40.087,48c-2.757,0-5,2.243-5,5c0,2.757,2.243,5,5,5c2.757,0,5-2.243,5-5C45.087,50.243,42.844,48,40.087,48z"/>
	<path d="M11.087,48c-2.757,0-5,2.243-5,5c0,2.757,2.243,5,5,5s5-2.243,5-5C16.087,50.243,13.844,48,11.087,48z"/>
	<path d="M57.913,5H54.13c-1,0-1.847,0.739-1.982,1.73L47.341,42H2.087c-1.105,0-2,0.896-2,2c0,1.105,0.896,2,2,2h47
		c1,0,1.847-0.739,1.981-1.729L55.876,9h2.037c1.104,0,2-0.895,2-2C59.913,5.896,59.018,5,57.913,5z"/>
	<path d="M9.087,40h30c2.757,0,5-2.243,5-5V19c0-2.757-2.243-5-5-5h-7v-3.956c0-2.206-1.794-4-4-4h-8c-2.206,0-4,1.794-4,4V14h-7
		c-2.757,0-5,2.243-5,5v16C4.087,37.757,6.33,40,9.087,40z M18.087,10.044c0-1.102,0.897-2,2-2h8c1.103,0,2,0.898,2,2V14h-12V10.044
		z M11.174,20h25.913c0.552,0,1,0.447,1,1c0,0.553-0.448,1-1,1H11.174c-0.552,0-1-0.447-1-1C10.174,20.447,10.622,20,11.174,20z
		 M11.174,26h25.913c0.552,0,1,0.447,1,1c0,0.553-0.448,1-1,1H11.174c-0.552,0-1-0.447-1-1C10.174,26.447,10.622,26,11.174,26z
		 M11.174,32h25.913c0.552,0,1,0.447,1,1c0,0.553-0.448,1-1,1H11.174c-0.552,0-1-0.447-1-1C10.174,32.447,10.622,32,11.174,32z"/>
</g>
</svg>
