<?xml version="1.0" encoding="utf-8"?>
<!-- Generator: Adobe Illustrator 17.0.0, SVG Export Plug-In . SVG Version: 6.00 Build 0)  -->
<!DOCTYPE svg PUBLIC "-//W3C//DTD SVG 1.1//EN" "http://www.w3.org/Graphics/SVG/1.1/DTD/svg11.dtd">
<svg version="1.1" xmlns="http://www.w3.org/2000/svg" xmlns:xlink="http://www.w3.org/1999/xlink" x="0px" y="0px" width="60px"
	 height="60px" viewBox="0 0 60 60" enable-background="new 0 0 60 60" xml:space="preserve">
<g id="Layer_3">
	<g>
		<path fill="#010101" d="M55.999,27.186l-0.002-5.57c-0.331-4.634-3.628-8.583-8.109-10.001l-2.64-8.782L11.87,11.167l-5.131-0.001
			l-0.242,0.029c-3.144,0.785-5.683,3.324-6.467,6.468L0,50.688l0.03,0.242c0.808,3.237,3.442,5.738,6.555,6.225l0.154,0.012
			l39.176-0.004c5.368-0.479,9.703-4.857,10.085-10.257v-5.795c2.511-0.273,4-2.065,4-4.945v-3
			C60,30.335,58.626,27.474,55.999,27.186z M9.261,51.166H6.739c-0.552,0-1-0.447-1-1c0-0.553,0.448-1,1-1h2.521
			c0.552,0,1,0.447,1,1C10.261,50.719,9.813,51.166,9.261,51.166z M9.261,19.166H6.739c-0.552,0-1-0.447-1-1c0-0.553,0.448-1,1-1
			h2.521c0.552,0,1,0.447,1,1C10.261,18.719,9.813,19.166,9.261,19.166z M48.087,18.166c0,0.553-0.448,1-1,1h-2.521
			c-0.552,0-1-0.447-1-1c0-0.553,0.448-1,1-1h2.521C47.639,17.166,48.087,17.613,48.087,18.166z M16.826,51.166h-2.522
			c-0.552,0-1-0.447-1-1c0-0.553,0.448-1,1-1h2.522c0.552,0,1,0.447,1,1C17.826,50.719,17.378,51.166,16.826,51.166z M16.826,19.166
			h-2.522c-0.552,0-1-0.447-1-1c0-0.553,0.448-1,1-1h2.522c0.552,0,1,0.447,1,1C17.826,18.719,17.378,19.166,16.826,19.166z
			 M43.882,5.236l1.785,5.939l-25.546-0.006L43.882,5.236z M24.391,51.166H21.87c-0.552,0-1-0.447-1-1c0-0.553,0.448-1,1-1h2.521
			c0.552,0,1,0.447,1,1C25.391,50.719,24.943,51.166,24.391,51.166z M24.391,19.166H21.87c-0.552,0-1-0.447-1-1c0-0.553,0.448-1,1-1
			h2.521c0.552,0,1,0.447,1,1C25.391,18.719,24.943,19.166,24.391,19.166z M31.956,51.166h-2.522c-0.552,0-1-0.447-1-1
			c0-0.553,0.448-1,1-1h2.522c0.552,0,1,0.447,1,1C32.956,50.719,32.508,51.166,31.956,51.166z M31.956,19.166h-2.522
			c-0.552,0-1-0.447-1-1c0-0.553,0.448-1,1-1h2.522c0.552,0,1,0.447,1,1C32.956,18.719,32.508,19.166,31.956,19.166z M39.521,51.166
			H37c-0.552,0-1-0.447-1-1c0-0.553,0.448-1,1-1h2.521c0.552,0,1,0.447,1,1C40.521,50.719,40.074,51.166,39.521,51.166z
			 M39.521,19.166H37c-0.552,0-1-0.447-1-1c0-0.553,0.448-1,1-1h2.521c0.552,0,1,0.447,1,1
			C40.521,18.719,40.074,19.166,39.521,19.166z M47.087,51.166h-2.521c-0.552,0-1-0.447-1-1c0-0.553,0.448-1,1-1h2.521
			c0.552,0,1,0.447,1,1C48.087,50.719,47.639,51.166,47.087,51.166z M58,36.166c0,2.69-1.523,3-2.668,3H45.148
			c-0.947,0-3.148-0.292-3.148-3v-3c0-1.935,1.172-4.009,2.917-4.009c0.053,0,0.106,0.002,0.231,0.009l10.255-0.003
			C57.123,29.023,58,31.109,58,33.166V36.166z"/>
		<circle fill="#010101" cx="47" cy="34.166" r="2"/>
	</g>
</g>
<g id="nyt_x5F_exporter_x5F_info" display="none">
</g>
</svg>
