<?xml version="1.0" encoding="utf-8"?>
<!-- Generator: Adobe Illustrator 17.0.0, SVG Export Plug-In . SVG Version: 6.00 Build 0)  -->
<!DOCTYPE svg PUBLIC "-//W3C//DTD SVG 1.1//EN" "http://www.w3.org/Graphics/SVG/1.1/DTD/svg11.dtd">
<svg version="1.1" xmlns="http://www.w3.org/2000/svg" xmlns:xlink="http://www.w3.org/1999/xlink" x="0px" y="0px" width="60px"
	 height="60px" viewBox="0 0 60 60" enable-background="new 0 0 60 60" xml:space="preserve">
<g id="Layer_3">
	<g>
		<path fill="#010101" d="M52.5,0.446h-46c-1.895,0-3.613,0.76-4.875,1.987l22.693,6.05c0.061-0.011,0.117-0.036,0.181-0.036h23.913
			c0.552,0,1,0.447,1,1c0,0.553-0.448,1-1,1H31.684l5.535,1.476c4.015,1.073,7.281,5.326,7.281,9.481v1.044h3.913
			c0.552,0,1,0.447,1,1c0,0.553-0.448,1-1,1H44.5v22h8c3.86,0,7-3.141,7-7v-32C59.5,3.587,56.36,0.446,52.5,0.446z"/>
		<path fill="#010101" d="M33.5,31.446c-2.206,0-4,1.794-4,4c0,2.206,1.794,4,4,4c2.206,0,4-1.794,4-4
			C37.5,33.24,35.706,31.446,33.5,31.446z"/>
		<path fill="#010101" d="M36.703,13.854L1.324,4.422C1.29,4.464,0.5,5.468,0.5,7.446c0,2,0,37.261,0,37.261
			c0,3.309,2.617,6.629,5.834,7.401l30.331,7.284c0.445,0.107,0.89,0.161,1.321,0.161h0.001c1.259,0,2.404-0.468,3.223-1.317
			c0.832-0.862,1.29-2.085,1.29-3.442V21.402C42.5,18.15,39.845,14.693,36.703,13.854z M33.5,41.446c-3.309,0-6-2.691-6-6
			c0-3.309,2.691-6,6-6c3.309,0,6,2.691,6,6C39.5,38.755,36.809,41.446,33.5,41.446z"/>
	</g>
</g>
<g id="nyt_x5F_exporter_x5F_info" display="none">
</g>
</svg>
