<?xml version="1.0" encoding="utf-8"?>
<!-- Generator: Adobe Illustrator 17.0.0, SVG Export Plug-In . SVG Version: 6.00 Build 0)  -->
<!DOCTYPE svg PUBLIC "-//W3C//DTD SVG 1.1//EN" "http://www.w3.org/Graphics/SVG/1.1/DTD/svg11.dtd">
<svg version="1.1" id="Layer_1" xmlns="http://www.w3.org/2000/svg" xmlns:xlink="http://www.w3.org/1999/xlink" x="0px" y="0px"
	 width="48px" height="48px" viewBox="0 0 48 48" enable-background="new 0 0 48 48" xml:space="preserve">
<path fill="#231F20" d="M24,0C10.767,0,0,10.767,0,24c0,13.233,10.767,24,24,24c4.895,0,9.586-1.444,13.566-4.176
	c0.455-0.312,0.571-0.935,0.258-1.39c-0.312-0.454-0.935-0.572-1.39-0.258C32.789,44.678,28.49,46,24,46C11.869,46,2,36.131,2,24
	S11.869,2,24,2s22,9.869,22,22v2c0,3.309-2.691,6-6,6s-6-2.691-6-6v-2c0-5.514-4.486-10-10-10s-10,4.486-10,10s4.486,10,10,10
	c3.667,0,6.87-1.99,8.611-4.941C33.815,31.956,36.672,34,40,34c4.411,0,8-3.589,8-8v-2C48,10.767,37.233,0,24,0z M24,32
	c-4.411,0-8-3.589-8-8s3.589-8,8-8s8,3.589,8,8S28.411,32,24,32z"/>
</svg>
