<?xml version="1.0" encoding="utf-8"?>
<!-- Generator: Adobe Illustrator 17.0.0, SVG Export Plug-In . SVG Version: 6.00 Build 0)  -->
<!DOCTYPE svg PUBLIC "-//W3C//DTD SVG 1.1//EN" "http://www.w3.org/Graphics/SVG/1.1/DTD/svg11.dtd">
<svg version="1.1" id="Layer_1" xmlns="http://www.w3.org/2000/svg" xmlns:xlink="http://www.w3.org/1999/xlink" x="0px" y="0px"
	 width="48px" height="48px" viewBox="0 0 48 48" enable-background="new 0 0 48 48" xml:space="preserve">
<g>
	<path fill="#231F20" d="M24,0C10.767,0,0,10.767,0,24c0,13.233,10.767,24,24,24c13.233,0,24-10.767,24-24S37.233,0,24,0z M24,46
		C11.869,46,2,36.131,2,24S11.869,2,24,2s22,9.869,22,22S36.131,46,24,46z"/>
	<path fill="#231F20" d="M36.61,13.671C33.669,10.615,29.309,9,24,9C15.729,9,9,15.729,9,24s6.729,15,15,15
		c2.636,0,5.23-0.694,7.5-2.007c0.478-0.276,0.641-0.888,0.365-1.366c-0.276-0.478-0.887-0.642-1.366-0.365
		C28.533,36.399,26.285,37,24,37c-7.169,0-13-5.831-13-13c0-7.168,5.831-13,13-13c4.752,0,8.614,1.403,11.169,4.058
		c2.062,2.144,3.245,5.115,3.245,8.154C38.414,26.503,36.867,30,34,30c-2,0-2-0.972-2-2V18c0-0.552-0.448-1-1-1s-1,0.448-1,1v0.726
		C28.533,17.059,26.39,16,24,16c-4.411,0-8,3.589-8,8s3.589,8,8,8c2.45,0,4.644-1.11,6.113-2.851C30.471,31.034,31.766,32,34,32
		c3.717,0,6.414-3.696,6.414-8.789C40.414,19.661,39.028,16.184,36.61,13.671z M24,30c-3.309,0-6-2.691-6-6s2.691-6,6-6s6,2.691,6,6
		S27.309,30,24,30z"/>
</g>
</svg>
