<?xml version="1.0" encoding="utf-8"?>
<!-- Generator: Adobe Illustrator 17.0.0, SVG Export Plug-In . SVG Version: 6.00 Build 0)  -->
<!DOCTYPE svg PUBLIC "-//W3C//DTD SVG 1.1//EN" "http://www.w3.org/Graphics/SVG/1.1/DTD/svg11.dtd">
<svg version="1.1" id="Layer_1" xmlns="http://www.w3.org/2000/svg" xmlns:xlink="http://www.w3.org/1999/xlink" x="0px" y="0px"
	 width="48px" height="48px" viewBox="0 0 48 48" enable-background="new 0 0 48 48" xml:space="preserve">
<g>
	<path fill="#231F20" d="M23.612,9C15.355,9,8.637,15.729,8.637,24s6.752,15,15.052,15c2.665,0,5.367-0.713,7.605-2.007
		c0.477-0.276,0.641-0.888,0.364-1.366c-0.275-0.478-0.887-0.643-1.366-0.365C28.353,36.383,26.008,37,23.689,37
		c-7.197,0-13.052-5.831-13.052-13c0-7.168,5.821-13,12.975-13c4.782,0,8.675,1.42,11.257,4.108c2.085,2.169,3.28,5.165,3.28,8.22
		c0,3.316-1.491,6.672-4.343,6.672c-0.727,0-1.246-0.137-1.503-0.397c-0.316-0.318-0.309-0.929-0.304-1.42L32,18
		c0-0.552-0.447-1-1-1s-1,0.448-1,1v1.239C28.541,17.278,26.213,16,23.586,16c-4.411,0-8,3.589-8,8s3.589,8,8,8
		c2.63,0,4.96-1.281,6.419-3.246c0.032,0.695,0.189,1.562,0.875,2.256c0.651,0.657,1.635,0.99,2.925,0.99
		c3.676,0,6.343-3.647,6.343-8.672c0-3.567-1.398-7.068-3.838-9.606C33.343,10.633,28.952,9,23.612,9z M23.586,30
		c-3.309,0-6-2.691-6-6s2.691-6,6-6c3.308,0,6,2.691,6,6S26.895,30,23.586,30z"/>
	<path fill="#231F20" d="M46,10h1c0.553,0,1-0.448,1-1V3c0-1.654-1.346-3-3-3h-6c-0.553,0-1,0.448-1,1v1c0,1.103-0.898,2-2,2
		c-1.103,0-2-0.897-2-2V1c0-0.552-0.447-1-1-1h-6c-0.553,0-1,0.448-1,1v1c0,1.103-0.898,2-2,2c-1.103,0-2-0.897-2-2V1
		c0-0.552-0.447-1-1-1h-6c-0.553,0-1,0.448-1,1v1c0,1.103-0.898,2-2,2c-1.103,0-2-0.897-2-2V1c0-0.552-0.447-1-1-1H3
		C1.346,0,0,1.346,0,3v6c0,0.552,0.447,1,1,1h1c1.102,0,2,0.897,2,2s-0.898,2-2,2H1c-0.553,0-1,0.448-1,1v6c0,0.552,0.447,1,1,1h1
		c1.102,0,2,0.897,2,2s-0.898,2-2,2H1c-0.553,0-1,0.448-1,1v6c0,0.552,0.447,1,1,1h1c1.102,0,2,0.897,2,2s-0.898,2-2,2H1
		c-0.553,0-1,0.448-1,1v6c0,1.654,1.346,3,3,3h6c0.553,0,1-0.448,1-1v-1c0-1.103,0.897-2,2-2c1.102,0,2,0.897,2,2v1
		c0,0.552,0.447,1,1,1h6c0.553,0,1-0.448,1-1v-1c0-1.103,0.897-2,2-2c1.102,0,2,0.897,2,2v1c0,0.552,0.447,1,1,1h6
		c0.553,0,1-0.448,1-1v-1c0-1.103,0.897-2,2-2c1.102,0,2,0.897,2,2v1c0,0.552,0.447,1,1,1h6c1.654,0,3-1.346,3-3v-6
		c0-0.552-0.447-1-1-1h-1c-1.103,0-2-0.897-2-2s0.897-2,2-2h1c0.553,0,1-0.448,1-1v-6c0-0.552-0.447-1-1-1h-1c-1.103,0-2-0.897-2-2
		s0.897-2,2-2h1c0.553,0,1-0.448,1-1v-6c0-0.552-0.447-1-1-1h-1c-1.103,0-2-0.897-2-2S44.897,10,46,10z M46,16v4
		c-2.206,0-4,1.794-4,4s1.794,4,4,4v4c-2.206,0-4,1.794-4,4s1.794,4,4,4v5c0,0.551-0.448,1-1,1h-5c0-2.206-1.794-4-4-4s-4,1.794-4,4
		h-4c0-2.206-1.794-4-4-4s-4,1.794-4,4h-4c0-2.206-1.794-4-4-4s-4,1.794-4,4H3c-0.552,0-1-0.449-1-1v-5c2.206,0,4-1.794,4-4
		s-1.794-4-4-4v-4c2.206,0,4-1.794,4-4s-1.794-4-4-4v-4c2.206,0,4-1.794,4-4S4.206,8,2,8V3c0-0.551,0.448-1,1-1h5
		c0,2.206,1.794,4,4,4s4-1.794,4-4h4c0,2.206,1.794,4,4,4s4-1.794,4-4h4c0,2.206,1.794,4,4,4s4-1.794,4-4h5c0.552,0,1,0.449,1,1v5
		c-2.206,0-4,1.794-4,4S43.794,16,46,16z"/>
</g>
</svg>
