<?xml version="1.0" encoding="utf-8"?>
<!-- Generator: Adobe Illustrator 17.0.0, SVG Export Plug-In . SVG Version: 6.00 Build 0)  -->
<!DOCTYPE svg PUBLIC "-//W3C//DTD SVG 1.1//EN" "http://www.w3.org/Graphics/SVG/1.1/DTD/svg11.dtd">
<svg version="1.1" id="Layer_1" xmlns="http://www.w3.org/2000/svg" xmlns:xlink="http://www.w3.org/1999/xlink" x="0px" y="0px"
	 width="48px" height="48px" viewBox="0 0 48 48" enable-background="new 0 0 48 48" xml:space="preserve">
<g>
	<path fill="#231F20" d="M17,10h2c0.552,0,1-0.448,1-1s-0.448-1-1-1h-2c-0.552,0-1,0.448-1,1S16.448,10,17,10z"/>
	<path fill="#231F20" d="M21,14h10c0.552,0,1-0.448,1-1s-0.448-1-1-1H21c-0.552,0-1,0.448-1,1S20.448,14,21,14z"/>
	<path fill="#231F20" d="M17,18h14c0.552,0,1-0.448,1-1s-0.448-1-1-1H17c-0.552,0-1,0.448-1,1S16.448,18,17,18z"/>
	<path fill="#231F20" d="M17,22h14c0.552,0,1-0.448,1-1s-0.448-1-1-1H17c-0.552,0-1,0.448-1,1S16.448,22,17,22z"/>
	<path fill="#231F20" d="M17,26h14c0.552,0,1-0.448,1-1s-0.448-1-1-1H17c-0.552,0-1,0.448-1,1S16.448,26,17,26z"/>
	<path fill="#231F20" d="M47.988,32.939c-0.004-0.067-0.022-0.131-0.04-0.197c-0.018-0.065-0.034-0.127-0.063-0.186
		c-0.01-0.02-0.009-0.041-0.021-0.06l-7-12C40.685,20.189,40.355,20,40,20h-2V3c0-0.552-0.448-1-1-1H11c-0.552,0-1,0.448-1,1v17H8
		c-0.355,0-0.685,0.189-0.864,0.496l-7,12c-0.011,0.019-0.011,0.041-0.021,0.06c-0.03,0.059-0.046,0.121-0.063,0.186
		c-0.018,0.066-0.036,0.13-0.04,0.197C0.011,32.96,0,32.978,0,33v14c0,0.552,0.448,1,1,1h46c0.552,0,1-0.448,1-1V33
		C48,32.978,47.989,32.96,47.988,32.939z M8.574,22H10v7c0,0.552,0.448,1,1,1s1-0.448,1-1V4h24v25c0,0.552,0.448,1,1,1s1-0.448,1-1
		v-7h1.426l5.833,10H33c-0.552,0-1,0.448-1,1v2c0,1.654-1.346,3-3,3h-9c-1.654,0-3-1.346-3-3v-2c0-0.552-0.448-1-1-1H2.741L8.574,22
		z M46,46H2V34h13v1c0,2.757,2.243,5,5,5h9c2.757,0,5-2.243,5-5v-1h12V46z"/>
</g>
</svg>
