<?xml version="1.0" encoding="utf-8"?>
<!-- Generator: Adobe Illustrator 17.0.0, SVG Export Plug-In . SVG Version: 6.00 Build 0)  -->
<!DOCTYPE svg PUBLIC "-//W3C//DTD SVG 1.1//EN" "http://www.w3.org/Graphics/SVG/1.1/DTD/svg11.dtd">
<svg version="1.1" id="Layer_1" xmlns="http://www.w3.org/2000/svg" xmlns:xlink="http://www.w3.org/1999/xlink" x="0px" y="0px"
	 width="48px" height="48px" viewBox="0 0 48 48" enable-background="new 0 0 48 48" xml:space="preserve">
<g>
	<path fill="#231F20" d="M43.561,16.172c-0.067-0.045-0.138-0.08-0.211-0.108l0.001-0.002l-8-3l-0.703,1.874l5.584,2.094L23,23.923
		L5.771,17.031l5.581-2.095l-0.703-1.873L2.67,16.058c-0.08,0.028-0.158,0.065-0.231,0.114C2.165,16.358,2,16.668,2,17v20
		c0,0.379,0.214,0.725,0.553,0.895l20,10C22.693,47.965,22.847,48,23,48s0.307-0.035,0.447-0.105l20-10
		C43.786,37.725,44,37.379,44,37V17C44,16.668,43.835,16.358,43.561,16.172z M4,18.477l18,7.2v19.705l-18-9V18.477z M42,36.382
		l-18,9V25.677l18-7.2V36.382z"/>
	<path fill="#231F20" d="M22.292,17.706c0.092,0.093,0.203,0.166,0.326,0.217C22.74,17.973,22.87,18,23,18
		c0.13,0,0.26-0.026,0.382-0.077c0.123-0.051,0.234-0.124,0.326-0.217l7.999-7.999c0.391-0.391,0.391-1.023,0-1.414
		c-0.391-0.391-1.023-0.391-1.414,0L24,14.586V1c0-0.552-0.447-1-1-1s-1,0.448-1,1v13.586l-6.293-6.293
		c-0.391-0.391-1.023-0.391-1.414,0c-0.391,0.391-0.391,1.023,0,1.414L22.292,17.706z"/>
</g>
</svg>
