<?xml version="1.0" encoding="utf-8"?>
<!-- Generator: Adobe Illustrator 17.0.0, SVG Export Plug-In . SVG Version: 6.00 Build 0)  -->
<!DOCTYPE svg PUBLIC "-//W3C//DTD SVG 1.1//EN" "http://www.w3.org/Graphics/SVG/1.1/DTD/svg11.dtd">
<svg version="1.1" id="Layer_1" xmlns="http://www.w3.org/2000/svg" xmlns:xlink="http://www.w3.org/1999/xlink" x="0px" y="0px"
	 width="48px" height="48px" viewBox="0 0 48 48" enable-background="new 0 0 48 48" xml:space="preserve">
<g>
	<path fill="#231F20" d="M44,10H4c-2.206,0-4,1.794-4,4v24c0,2.206,1.794,4,4,4h40c2.206,0,4-1.794,4-4V14
		C48,11.794,46.206,10,44,10z M46,38c0,1.103-0.897,2-2,2H4c-1.103,0-2-0.897-2-2V14c0-1.103,0.897-2,2-2h40c1.103,0,2,0.897,2,2V38
		z"/>
	<path fill="#231F20" d="M41,16h-8c-0.552,0-1,0.448-1,1v8c0,0.552,0.448,1,1,1h8c0.552,0,1-0.448,1-1v-8C42,16.448,41.552,16,41,16
		z M40,24h-6v-6h6V24z"/>
	<path fill="#231F20" d="M9,20h4c0.552,0,1-0.448,1-1s-0.448-1-1-1H9c-0.552,0-1,0.448-1,1S8.448,20,9,20z"/>
	<path fill="#231F20" d="M9,32h18c0.552,0,1-0.448,1-1s-0.448-1-1-1H9c-0.552,0-1,0.448-1,1S8.448,32,9,32z"/>
	<path fill="#231F20" d="M33,34H9c-0.552,0-1,0.448-1,1s0.448,1,1,1h24c0.552,0,1-0.448,1-1S33.552,34,33,34z"/>
</g>
</svg>
