<?xml version="1.0" encoding="utf-8"?>
<!-- Generator: Adobe Illustrator 17.0.0, SVG Export Plug-In . SVG Version: 6.00 Build 0)  -->
<!DOCTYPE svg PUBLIC "-//W3C//DTD SVG 1.1//EN" "http://www.w3.org/Graphics/SVG/1.1/DTD/svg11.dtd">
<svg version="1.1" id="Layer_1" xmlns="http://www.w3.org/2000/svg" xmlns:xlink="http://www.w3.org/1999/xlink" x="0px" y="0px"
	 width="48px" height="48px" viewBox="0 0 48 48" enable-background="new 0 0 48 48" xml:space="preserve">
<g>
	<path fill="#231F20" d="M34,14H14c-2.206,0-4,1.794-4,4v14c0,2.206,1.794,4,4,4h20c2.206,0,4-1.794,4-4V18
		C38,15.794,36.206,14,34,14z M36,32c0,1.103-0.898,2-2,2H14c-1.103,0-2-0.897-2-2V18c0-1.103,0.897-2,2-2h20c1.102,0,2,0.897,2,2
		V32z"/>
	<path fill="#231F20" d="M28.387,24.854l5.227-4.065c0.436-0.339,0.515-0.967,0.175-1.403c-0.338-0.435-0.965-0.514-1.403-0.176
		L24,25.733l-8.386-6.522c-0.436-0.338-1.063-0.259-1.403,0.176s-0.261,1.064,0.175,1.403l5.226,4.065l-5.253,4.377
		c-0.424,0.353-0.481,0.984-0.128,1.408c0.199,0.237,0.483,0.36,0.77,0.36c0.226,0,0.452-0.076,0.639-0.232l5.588-4.657l2.158,1.679
		C23.566,27.93,23.783,28,24,28s0.434-0.07,0.614-0.211l2.157-1.678l5.588,4.657C32.547,30.924,32.773,31,32.999,31
		c0.287,0,0.571-0.123,0.769-0.36c0.353-0.424,0.296-1.055-0.128-1.408L28.387,24.854z"/>
	<path fill="#231F20" d="M12.201,5.436C15.729,3.188,19.81,2,24,2s8.27,1.188,11.799,3.436c0.166,0.107,0.352,0.157,0.536,0.157
		c0.33,0,0.653-0.164,0.845-0.463c0.296-0.465,0.159-1.084-0.307-1.38C33.023,1.296,28.571,0,24,0s-9.023,1.296-12.873,3.75
		c-0.466,0.296-0.603,0.914-0.307,1.38C11.118,5.595,11.736,5.733,12.201,5.436z"/>
	<path fill="#231F20" d="M42.87,37.179c0.166,0.107,0.352,0.157,0.536,0.157c0.33,0,0.654-0.164,0.845-0.463
		C46.703,33.023,48,28.572,48,24s-1.297-9.023-3.749-12.873c-0.299-0.466-0.917-0.604-1.381-0.306
		c-0.466,0.296-0.603,0.914-0.307,1.38C44.811,15.73,46,19.81,46,24s-1.189,8.27-3.437,11.799
		C42.267,36.264,42.404,36.883,42.87,37.179z"/>
	<path fill="#231F20" d="M5.13,10.821c-0.464-0.297-1.082-0.159-1.381,0.306C1.297,14.977,0,19.428,0,24s1.297,9.023,3.749,12.873
		c0.192,0.3,0.515,0.463,0.845,0.463c0.183,0,0.37-0.05,0.535-0.157c0.466-0.296,0.603-0.914,0.307-1.38C3.188,32.27,2,28.19,2,24
		s1.188-8.27,3.437-11.799C5.732,11.736,5.596,11.117,5.13,10.821z"/>
	<path fill="#231F20" d="M35.799,42.564C32.27,44.812,28.19,46,24,46s-8.271-1.188-11.799-3.435
		c-0.464-0.297-1.082-0.159-1.381,0.306c-0.296,0.465-0.159,1.084,0.307,1.38C14.977,46.704,19.429,48,24,48
		s9.023-1.296,12.873-3.75c0.466-0.296,0.603-0.914,0.307-1.38C36.881,42.404,36.263,42.265,35.799,42.564z"/>
	<path fill="#231F20" d="M38.707,37.293c-0.391-0.391-1.023-0.391-1.414,0c-0.391,0.391-0.391,1.023,0,1.414l9,9
		C46.488,47.902,46.744,48,47,48s0.512-0.098,0.707-0.293c0.391-0.391,0.391-1.023,0-1.414L38.707,37.293z"/>
	<path fill="#231F20" d="M10.707,37.293c-0.391-0.391-1.023-0.391-1.414,0l-9,9c-0.391,0.391-0.391,1.023,0,1.414
		C0.488,47.902,0.744,48,1,48s0.512-0.098,0.707-0.293l9-9C11.098,38.316,11.098,37.684,10.707,37.293z"/>
	<path fill="#231F20" d="M37.293,10.707C37.488,10.902,37.744,11,38,11s0.512-0.098,0.707-0.293l9-9
		c0.391-0.391,0.391-1.023,0-1.414c-0.391-0.391-1.023-0.391-1.414,0l-9,9C36.902,9.684,36.902,10.316,37.293,10.707z"/>
	<path fill="#231F20" d="M9.293,10.707C9.488,10.902,9.744,11,10,11s0.512-0.098,0.707-0.293c0.391-0.391,0.391-1.023,0-1.414l-9-9
		c-0.391-0.391-1.023-0.391-1.414,0c-0.391,0.391-0.391,1.023,0,1.414L9.293,10.707z"/>
</g>
</svg>
