<?xml version="1.0" encoding="utf-8"?>
<!-- Generator: Adobe Illustrator 17.0.0, SVG Export Plug-In . SVG Version: 6.00 Build 0)  -->
<!DOCTYPE svg PUBLIC "-//W3C//DTD SVG 1.1//EN" "http://www.w3.org/Graphics/SVG/1.1/DTD/svg11.dtd">
<svg version="1.1" id="Layer_1" xmlns="http://www.w3.org/2000/svg" xmlns:xlink="http://www.w3.org/1999/xlink" x="0px" y="0px"
	 width="48px" height="48px" viewBox="0 0 48 48" enable-background="new 0 0 48 48" xml:space="preserve">
<g>
	<path fill="#231F20" d="M47.516,13.241C46.983,12.452,46.053,12,44.968,12h-24c-2.061,0-4.314,1.594-5.129,3.629l-5.599,14
		c-0.459,1.144-0.393,2.284,0.179,3.13C10.953,33.548,11.882,34,12.968,34h24c2.061,0,4.314-1.594,5.129-3.629l5.599-14
		C48.154,15.227,48.088,14.086,47.516,13.241z M45.839,15.628l-5.599,14C39.725,30.914,38.227,32,36.968,32h-24
		c-0.295,0-0.69-0.063-0.893-0.361c-0.193-0.288-0.186-0.749,0.022-1.267l5.599-14C18.202,15.108,19.731,14,20.968,14h24
		c0.295,0,0.69,0.063,0.892,0.362C46.054,14.649,46.047,15.11,45.839,15.628z"/>
	<path fill="#231F20" d="M41.877,16.129l-13.529,7.623l-7.265-7.45c-0.386-0.395-1.019-0.404-1.414-0.018
		c-0.395,0.385-0.403,1.018-0.017,1.414l7.801,8C27.646,25.897,27.906,26,28.169,26c0.167,0,0.336-0.042,0.491-0.129l14.199-8
		c0.481-0.271,0.651-0.881,0.38-1.362C42.968,16.027,42.356,15.857,41.877,16.129z"/>
	<path fill="#231F20" d="M21.587,24.186l-7,5c-0.45,0.321-0.554,0.946-0.233,1.395C14.549,30.855,14.857,31,15.169,31
		c0.202,0,0.405-0.06,0.58-0.186l7-5c0.45-0.321,0.554-0.946,0.233-1.395C22.66,23.969,22.035,23.866,21.587,24.186z"/>
	<path fill="#231F20" d="M35.026,24.486c-0.285-0.474-0.898-0.628-1.372-0.343c-0.474,0.284-0.627,0.898-0.343,1.372l3,5
		C36.498,30.827,36.829,31,37.169,31c0.176,0,0.353-0.046,0.514-0.142c0.474-0.284,0.627-0.898,0.343-1.372L35.026,24.486z"/>
	<path fill="#231F20" d="M1,14h10c0.552,0,1-0.448,1-1s-0.448-1-1-1H1c-0.552,0-1,0.448-1,1S0.448,14,1,14z"/>
	<path fill="#231F20" d="M5,30H1c-0.552,0-1,0.448-1,1s0.448,1,1,1h4c0.552,0,1-0.448,1-1S5.552,30,5,30z"/>
	<path fill="#231F20" d="M7,20H1c-0.552,0-1,0.448-1,1s0.448,1,1,1h6c0.552,0,1-0.448,1-1S7.552,20,7,20z"/>
</g>
</svg>
