<?xml version="1.0" encoding="utf-8"?>
<!-- Generator: Adobe Illustrator 17.0.0, SVG Export Plug-In . SVG Version: 6.00 Build 0)  -->
<!DOCTYPE svg PUBLIC "-//W3C//DTD SVG 1.1//EN" "http://www.w3.org/Graphics/SVG/1.1/DTD/svg11.dtd">
<svg version="1.1" id="Layer_1" xmlns="http://www.w3.org/2000/svg" xmlns:xlink="http://www.w3.org/1999/xlink" x="0px" y="0px"
	 width="48px" height="48px" viewBox="0 0 48 48" enable-background="new 0 0 48 48" xml:space="preserve">
<g>
	<path fill="#231F20" d="M36,12H12c-2.206,0-4,1.794-4,4v16c0,2.206,1.794,4,4,4h24c2.206,0,4-1.794,4-4V16
		C40,13.794,38.206,12,36,12z M38,32c0,1.103-0.898,2-2,2H12c-1.103,0-2-0.897-2-2V16c0-1.103,0.897-2,2-2h24c1.102,0,2,0.897,2,2
		V32z"/>
	<path fill="#231F20" d="M35.774,16.367c-0.35-0.429-0.98-0.491-1.407-0.141L24,24.708l-10.368-8.482
		c-0.428-0.349-1.056-0.286-1.407,0.141c-0.349,0.428-0.286,1.057,0.142,1.407l7.235,5.92l-7.133,4.458
		c-0.467,0.293-0.61,0.91-0.317,1.378c0.19,0.304,0.516,0.47,0.849,0.47c0.181,0,0.364-0.049,0.529-0.152l7.707-4.817l2.13,1.743
		C23.551,26.925,23.775,27,24,27s0.449-0.075,0.632-0.226l2.13-1.743l7.708,4.817C34.635,29.951,34.818,30,34.999,30
		c0.333,0,0.659-0.166,0.849-0.47c0.293-0.468,0.151-1.085-0.317-1.378l-7.134-4.459l7.235-5.919
		C36.06,17.425,36.124,16.795,35.774,16.367z"/>
	<path fill="#231F20" d="M24,0C10.767,0,0,10.767,0,24c0,13.233,10.767,24,24,24c13.233,0,24-10.767,24-24S37.233,0,24,0z M24,46
		C11.869,46,2,36.131,2,24S11.869,2,24,2s22,9.869,22,22S36.131,46,24,46z"/>
</g>
</svg>
