<?xml version="1.0" encoding="utf-8"?>
<!-- Generator: Adobe Illustrator 17.0.0, SVG Export Plug-In . SVG Version: 6.00 Build 0)  -->
<!DOCTYPE svg PUBLIC "-//W3C//DTD SVG 1.1//EN" "http://www.w3.org/Graphics/SVG/1.1/DTD/svg11.dtd">
<svg version="1.1" id="Layer_1" xmlns="http://www.w3.org/2000/svg" xmlns:xlink="http://www.w3.org/1999/xlink" x="0px" y="0px"
	 width="48px" height="48px" viewBox="0 0 48 48" enable-background="new 0 0 48 48" xml:space="preserve">
<g>
	<path fill="#231F20" d="M40,22H8c-2.206,0-4,1.794-4,4v18c0,2.206,1.794,4,4,4h32c2.206,0,4-1.794,4-4V26
		C44,23.794,42.206,22,40,22z M40,24c0.112,0,0.22,0.015,0.328,0.033L24,36.733l-16.329-12.7C7.779,24.015,7.887,24,8,24H40z M42,44
		c0,1.103-0.898,2-2,2H8c-1.103,0-2-0.897-2-2V26c0-0.226,0.046-0.44,0.115-0.643L23.386,38.79C23.566,38.93,23.783,39,24,39
		s0.434-0.07,0.614-0.211l17.27-13.432C41.954,25.56,42,25.774,42,26V44z"/>
	<path fill="#231F20" d="M22.292,18.706c0.092,0.093,0.203,0.166,0.326,0.217C22.74,18.973,22.87,19,23,19
		c0.13,0,0.26-0.026,0.382-0.077c0.123-0.051,0.234-0.124,0.326-0.217l8.999-8.999c0.391-0.391,0.391-1.023,0-1.414
		c-0.391-0.391-1.023-0.391-1.414,0L24,15.586V1c0-0.552-0.447-1-1-1s-1,0.448-1,1v14.586l-7.293-7.293
		c-0.391-0.391-1.023-0.391-1.414,0c-0.391,0.391-0.391,1.023,0,1.414L22.292,18.706z"/>
</g>
</svg>
