<?xml version="1.0" encoding="utf-8"?>
<!-- Generator: Adobe Illustrator 17.0.0, SVG Export Plug-In . SVG Version: 6.00 Build 0)  -->
<!DOCTYPE svg PUBLIC "-//W3C//DTD SVG 1.1//EN" "http://www.w3.org/Graphics/SVG/1.1/DTD/svg11.dtd">
<svg version="1.1" id="Layer_1" xmlns="http://www.w3.org/2000/svg" xmlns:xlink="http://www.w3.org/1999/xlink" x="0px" y="0px"
	 width="48px" height="48px" viewBox="0 0 48 48" enable-background="new 0 0 48 48" xml:space="preserve">
<g>
	<path fill="#231F20" d="M41.864,11.317C41.948,11.532,42,11.761,42,12v8.061c0,0.552,0.447,1,1,1s1-0.448,1-1V12
		c0-2.206-1.818-4-4.053-4h-36C2.827,8,1.82,8.48,1.101,9.242C1.079,9.266,1.05,9.279,1.03,9.305
		c-0.013,0.018-0.016,0.04-0.028,0.058C0.386,10.069,0,10.986,0,12v22c0,2.206,1.77,4,3.947,4H19c0.553,0,1-0.448,1-1s-0.447-1-1-1
		H3.947C2.855,36,2,35.122,2,34V12c0-0.224,0.042-0.434,0.105-0.633l19.24,14.493c0.178,0.134,0.39,0.201,0.602,0.201
		c0.212,0,0.424-0.067,0.602-0.202L41.864,11.317z M3.653,10.029C3.75,10.015,3.846,10,3.947,10h36c0.103,0,0.202,0.016,0.302,0.031
		L21.948,23.809L3.653,10.029z"/>
	<path fill="#231F20" d="M47.5,37.323l-1.785-1.03c0.051-0.427,0.077-0.849,0.077-1.262c0-0.412-0.026-0.834-0.078-1.262l1.782-1.03
		c0.478-0.276,0.642-0.888,0.366-1.366l-3.264-5.654c-0.132-0.23-0.351-0.398-0.608-0.466c-0.258-0.068-0.532-0.031-0.76,0.102
		l-1.772,1.029c-0.655-0.484-1.389-0.907-2.167-1.25v-2.073c0-0.552-0.447-1-1-1h-6.528c-0.553,0-1,0.448-1,1v2.071
		c-0.661,0.289-1.439,0.696-2.197,1.253l-1.795-1.033c-0.479-0.275-1.09-0.111-1.365,0.366l-3.269,5.654
		c-0.132,0.23-0.168,0.503-0.1,0.759c0.069,0.256,0.237,0.475,0.466,0.607l1.781,1.03c-0.053,0.428-0.078,0.845-0.078,1.262
		c0,0.413,0.026,0.836,0.077,1.262L22.5,37.323c-0.478,0.276-0.642,0.888-0.366,1.366l3.265,5.654
		c0.276,0.477,0.885,0.642,1.364,0.367l1.803-1.035c0.756,0.556,1.535,0.964,2.197,1.254V47c0,0.552,0.447,1,1,1h6.528
		c0.553,0,1-0.448,1-1v-2.072c0.78-0.344,1.514-0.767,2.167-1.25l1.78,1.03c0.23,0.134,0.504,0.17,0.76,0.101
		c0.255-0.068,0.474-0.236,0.607-0.466l3.261-5.654C48.143,38.211,47.978,37.599,47.5,37.323z M43.372,42.476l-1.502-0.87
		c-0.367-0.213-0.829-0.17-1.151,0.105c-0.772,0.662-1.733,1.217-2.778,1.607c-0.39,0.146-0.65,0.519-0.65,0.937V46h-4.528h-0.001
		v-1.744c0-0.418-0.259-0.791-0.65-0.937c-1.064-0.396-2.06-0.967-2.808-1.607c-0.322-0.275-0.782-0.319-1.148-0.107l-1.524,0.875
		l-2.266-3.924l1.509-0.872c0.367-0.212,0.56-0.631,0.483-1.048c-0.101-0.545-0.152-1.085-0.152-1.604
		c0-0.519,0.05-1.044,0.154-1.604c0.077-0.417-0.116-0.836-0.483-1.048l-1.508-0.872l2.269-3.923l1.518,0.873
		c0.367,0.211,0.828,0.169,1.149-0.107c0.751-0.642,1.747-1.213,2.806-1.606c0.392-0.146,0.652-0.52,0.652-0.938v-1.746h4.528v1.746
		c0,0.418,0.259,0.792,0.651,0.938c1.042,0.386,2.002,0.942,2.777,1.606c0.323,0.276,0.786,0.319,1.152,0.105l1.495-0.868
		l2.263,3.92l-1.508,0.872c-0.367,0.212-0.56,0.631-0.483,1.048c0.103,0.557,0.153,1.082,0.153,1.604
		c0,0.519-0.05,1.059-0.152,1.604c-0.078,0.416,0.116,0.836,0.483,1.048l1.512,0.872L43.372,42.476z"/>
	<path fill="#231F20" d="M34.998,29.677c-2.952,0-5.353,2.402-5.353,5.353c0,2.952,2.402,5.353,5.353,5.353s5.353-2.402,5.353-5.353
		C40.351,32.078,37.949,29.677,34.998,29.677z M34.998,38.384c-1.849,0-3.353-1.504-3.353-3.353s1.504-3.353,3.353-3.353
		s3.353,1.504,3.353,3.353S36.847,38.384,34.998,38.384z"/>
</g>
</svg>
