<?xml version="1.0" encoding="utf-8"?>
<!-- Generator: Adobe Illustrator 17.0.0, SVG Export Plug-In . SVG Version: 6.00 Build 0)  -->
<!DOCTYPE svg PUBLIC "-//W3C//DTD SVG 1.1//EN" "http://www.w3.org/Graphics/SVG/1.1/DTD/svg11.dtd">
<svg version="1.1" id="Layer_1" xmlns="http://www.w3.org/2000/svg" xmlns:xlink="http://www.w3.org/1999/xlink" x="0px" y="0px"
	 width="48px" height="48px" viewBox="0 0 48 48" enable-background="new 0 0 48 48" xml:space="preserve">
<g>
	<path fill="#231F20" d="M2.102,9.4l19.25,16.362C21.539,25.92,21.769,26,22,26c0.23,0,0.461-0.08,0.647-0.239l19.25-16.363
		C41.958,9.589,42,9.789,42,10v10c0,0.552,0.447,1,1,1s1-0.448,1-1V10c0-2.206-1.794-4-4-4H4c-2.206,0-4,1.794-4,4v22
		c0,2.206,1.794,4,4,4h15c0.553,0,1-0.448,1-1s-0.447-1-1-1H4c-1.103,0-2-0.897-2-2V10C2,9.789,2.042,9.59,2.102,9.4z M40,8
		c0.139,0,0.275,0.015,0.406,0.042L22,23.688L3.593,8.042C3.724,8.015,3.861,8,4,8H40z"/>
	<path fill="#231F20" d="M35,22c-7.168,0-13,5.832-13,13c0,7.168,5.832,13,13,13c7.168,0,13-5.831,13-13S42.168,22,35,22z M35,46
		c-6.065,0-11-4.935-11-11s4.935-11,11-11s11,4.935,11,11S41.065,46,35,46z"/>
	<path fill="#231F20" d="M40.808,31.053l-6.932,7.596l-4.715-4.714c-0.391-0.391-1.023-0.391-1.414,0s-0.391,1.023,0,1.414
		l6.195,6.195l8.342-9.143c0.374-0.408,0.344-1.041-0.064-1.413C41.815,30.618,41.182,30.643,40.808,31.053z"/>
</g>
</svg>
