<?xml version="1.0" encoding="utf-8"?>
<!-- Generator: Adobe Illustrator 17.0.0, SVG Export Plug-In . SVG Version: 6.00 Build 0)  -->
<!DOCTYPE svg PUBLIC "-//W3C//DTD SVG 1.1//EN" "http://www.w3.org/Graphics/SVG/1.1/DTD/svg11.dtd">
<svg version="1.1" id="Layer_1" xmlns="http://www.w3.org/2000/svg" xmlns:xlink="http://www.w3.org/1999/xlink" x="0px" y="0px"
	 width="48px" height="48px" viewBox="0 0 48 48" enable-background="new 0 0 48 48" xml:space="preserve">
<g>
	<path fill="#231F20" d="M42,12v11c0,0.552,0.448,1,1,1s1-0.448,1-1V12c0-2.206-1.794-4-4-4H4c-2.206,0-4,1.794-4,4v22
		c0,2.206,1.794,4,4,4h16c0.552,0,1-0.448,1-1s-0.448-1-1-1H4c-1.103,0-2-0.897-2-2V12c0-0.221,0.045-0.431,0.111-0.63
		l19.264,15.411C21.558,26.927,21.779,27,22,27s0.442-0.073,0.624-0.22l19.264-15.411C41.955,11.568,42,11.778,42,12z M22,24.719
		L3.644,10.036C3.76,10.015,3.878,10,4,10h36c0.121,0,0.239,0.015,0.354,0.036L22,24.719z"/>
	<path fill="#231F20" d="M47.94,32.66C47.797,32.264,47.421,32,47,32h-6.381l-3.708-7.446c-0.169-0.339-0.515-0.553-0.894-0.554
		h-0.001c-0.378,0-0.725,0.213-0.894,0.551L31.383,32H25c-0.421,0-0.797,0.264-0.94,0.66s-0.023,0.838,0.3,1.108l5.476,4.563
		l-2.784,8.353c-0.136,0.407,0.004,0.857,0.347,1.115c0.343,0.258,0.814,0.268,1.167,0.025L36,42.719l7.434,5.105
		C43.605,47.942,43.802,48,44,48c0.212,0,0.424-0.067,0.601-0.201c0.343-0.258,0.483-0.707,0.347-1.115l-2.784-8.353l5.476-4.563
		C47.963,33.499,48.083,33.056,47.94,32.66z M40.36,37.232c-0.317,0.263-0.439,0.693-0.309,1.084l2.057,6.172l-5.542-3.806
		c-0.171-0.117-0.368-0.176-0.566-0.176s-0.396,0.059-0.566,0.176l-5.542,3.806l2.057-6.172c0.13-0.39,0.007-0.821-0.309-1.084
		L27.762,34H32c0.378,0,0.724-0.213,0.893-0.551l3.119-6.213l3.093,6.21C39.274,33.785,39.621,34,40,34h4.238L40.36,37.232z"/>
</g>
</svg>
