<?xml version="1.0" encoding="utf-8"?>
<!-- Generator: Adobe Illustrator 17.0.0, SVG Export Plug-In . SVG Version: 6.00 Build 0)  -->
<!DOCTYPE svg PUBLIC "-//W3C//DTD SVG 1.1//EN" "http://www.w3.org/Graphics/SVG/1.1/DTD/svg11.dtd">
<svg version="1.1" id="Layer_1" xmlns="http://www.w3.org/2000/svg" xmlns:xlink="http://www.w3.org/1999/xlink" x="0px" y="0px"
	 width="48px" height="48px" viewBox="0 0 48 48" enable-background="new 0 0 48 48" xml:space="preserve">
<g>
	<path fill="#231F20" d="M22,36H4c-0.966,0-2-1.761-2-3V11.281l19.375,15.5C21.558,26.927,21.779,27,22,27s0.442-0.073,0.624-0.22
		l19.264-15.411C41.955,11.568,42,11.778,42,12v9c0,0.552,0.448,1,1,1s1-0.448,1-1v-9c0-2.206-1.794-4-4-4H4c-2.654,0-4,1.009-4,3
		v22c0,1.991,1.595,5,4,5h18c0.552,0,1-0.448,1-1S22.552,36,22,36z M40,10c0.121,0,0.239,0.015,0.354,0.036L22,24.719L3.616,10.014
		C3.741,10.008,3.855,10,4,10H40z"/>
	<path fill="#231F20" d="M47,32h-2v-1c0-3.86-3.14-7-7-7s-7,3.14-7,7v1h-2c-0.552,0-1,0.448-1,1v14c0,0.552,0.448,1,1,1h18
		c0.552,0,1-0.448,1-1V33C48,32.448,47.552,32,47,32z M33,31c0-2.757,2.243-5,5-5s5,2.243,5,5v1H33V31z M46,46H30V34h16V46z"/>
	<path fill="#231F20" d="M38,36c-1.105,0-2,0.895-2,2c0,0.738,0.405,1.376,1,1.723V43c0,0.552,0.448,1,1,1s1-0.448,1-1v-3.278
		c0.595-0.347,1-0.984,1-1.722C40,36.895,39.104,36,38,36z"/>
</g>
</svg>
