<?xml version="1.0" encoding="utf-8"?>
<!-- Generator: Adobe Illustrator 17.0.0, SVG Export Plug-In . SVG Version: 6.00 Build 0)  -->
<!DOCTYPE svg PUBLIC "-//W3C//DTD SVG 1.1//EN" "http://www.w3.org/Graphics/SVG/1.1/DTD/svg11.dtd">
<svg version="1.1" id="Layer_1" xmlns="http://www.w3.org/2000/svg" xmlns:xlink="http://www.w3.org/1999/xlink" x="0px" y="0px"
	 width="48px" height="48px" viewBox="0 0 48 48" enable-background="new 0 0 48 48" xml:space="preserve">
<g>
	<path fill="#231F20" d="M41.888,11.369C41.955,11.569,42,11.778,42,12v11c0,0.552,0.447,1,1,1s1-0.448,1-1V12c0-2.206-1.794-4-4-4
		H4c-2.206,0-4,1.794-4,4v22c0,2.206,1.794,4,4,4h16c0.553,0,1-0.448,1-1s-0.447-1-1-1H4c-1.103,0-2-0.897-2-2V12
		c0-0.221,0.045-0.431,0.111-0.63l19.264,15.411C21.558,26.927,21.779,27,22,27s0.442-0.073,0.625-0.22L41.888,11.369z
		 M3.645,10.036C3.761,10.015,3.878,10,4,10h36c0.121,0,0.239,0.015,0.354,0.036L22,24.719L3.645,10.036z"/>
	<path fill="#231F20" d="M47.814,46.392l-11.92-23.839c-0.34-0.678-1.449-0.678-1.789,0l-12,24c-0.155,0.31-0.139,0.678,0.044,0.973
		C22.332,47.82,22.653,48,23,48h24c0.007,0.001,0.014,0.001,0.019,0c0.553,0,1-0.448,1-1C48.019,46.771,47.943,46.56,47.814,46.392z
		 M24.618,46L35,25.236L45.382,46H24.618z"/>
	<path fill="#231F20" d="M34,32.819v6.545c0,0.552,0.447,1,1,1s1-0.448,1-1v-6.545c0-0.552-0.447-1-1-1S34,32.267,34,32.819z"/>
	<circle fill="#231F20" cx="35" cy="42.637" r="1.091"/>
</g>
</svg>
