<?xml version="1.0" encoding="utf-8"?>
<!-- Generator: Adobe Illustrator 17.0.0, SVG Export Plug-In . SVG Version: 6.00 Build 0)  -->
<!DOCTYPE svg PUBLIC "-//W3C//DTD SVG 1.1//EN" "http://www.w3.org/Graphics/SVG/1.1/DTD/svg11.dtd">
<svg version="1.1" id="Layer_1" xmlns="http://www.w3.org/2000/svg" xmlns:xlink="http://www.w3.org/1999/xlink" x="0px" y="0px"
	 width="48px" height="48px" viewBox="0 0 48 48" enable-background="new 0 0 48 48" xml:space="preserve">
<g>
	<path fill="#231F20" d="M35.03,27.556l-5.071,5.071c-0.391,0.391-0.391,1.023,0,1.414s1.023,0.391,1.414,0L34,31.414v9.041
		c0,0.552,0.448,1,1,1s1-0.448,1-1.001v-9.1l2.687,2.687c0.195,0.195,0.451,0.293,0.707,0.293c0.256,0,0.512-0.098,0.707-0.293
		c0.391-0.391,0.391-1.023,0-1.414L35.03,27.556z"/>
	<path fill="#231F20" d="M2.111,9.37l19.264,15.411C21.558,24.927,21.779,25,22,25s0.442-0.073,0.624-0.22L41.888,9.369
		C41.955,9.568,42,9.778,42,10v9c0,0.552,0.448,1,1,1s1-0.448,1-1v-9c0-2.206-1.794-4-4-4H4c-2.206,0-4,1.794-4,4v22
		c0,2.206,1.794,4,4,4h15c0.552,0,1-0.448,1-1s-0.448-1-1-1H4c-1.103,0-2-0.897-2-2V10C2,9.779,2.045,9.569,2.111,9.37z M40,8
		c0.121,0,0.239,0.015,0.354,0.036L22,22.719L3.644,8.036C3.76,8.015,3.878,8,4,8H40z"/>
	<path fill="#231F20" d="M35,22c-7.169,0-13,5.832-13,13c0,7.169,5.831,13,13,13c7.168,0,13-5.831,13-13C48,27.832,42.169,22,35,22z
		 M35,46c-6.065,0-11-4.935-11-11s4.935-11,11-11s11,4.935,11,11S41.065,46,35,46z"/>
</g>
</svg>
