<?xml version="1.0" encoding="utf-8"?>
<!-- Generator: Adobe Illustrator 17.0.0, SVG Export Plug-In . SVG Version: 6.00 Build 0)  -->
<!DOCTYPE svg PUBLIC "-//W3C//DTD SVG 1.1//EN" "http://www.w3.org/Graphics/SVG/1.1/DTD/svg11.dtd">
<svg version="1.1" id="Layer_1" xmlns="http://www.w3.org/2000/svg" xmlns:xlink="http://www.w3.org/1999/xlink" x="0px" y="0px"
	 width="48px" height="48px" viewBox="0 0 48 48" enable-background="new 0 0 48 48" xml:space="preserve">
<g>
	<path fill="#231F20" d="M42,12v11c0,0.552,0.447,1,1,1s1-0.448,1-1V12c0-2.206-1.794-4-4-4H4c-2.206,0-4,1.794-4,4v22
		c0,2.206,1.794,4,4,4h16c0.553,0,1-0.448,1-1s-0.447-1-1-1H4c-1.103,0-2-0.897-2-2V12c0-0.221,0.045-0.431,0.111-0.63
		l19.264,15.411C21.558,26.927,21.779,27,22,27s0.442-0.073,0.625-0.22l19.263-15.411C41.955,11.569,42,11.778,42,12z M22,24.719
		L3.645,10.036C3.761,10.015,3.878,10,4,10h36c0.121,0,0.239,0.015,0.354,0.036L22,24.719z"/>
	<path fill="#231F20" d="M38,30c2.473,0,4.728,1.126,6.226,3H41c-0.553,0-1,0.448-1,1s0.447,1,1,1h6v-6c0-0.552-0.447-1-1-1
		s-1,0.448-1,1v1.879C43.164,29.067,40.686,28,38,28c-5.514,0-10,4.486-10,10h2C30,33.589,33.589,30,38,30z"/>
	<path fill="#231F20" d="M46,38c0,4.411-3.589,8-8,8c-2.474,0-4.729-1.126-6.227-3H34c0.553,0,1-0.448,1-1s-0.447-1-1-1h-5v5
		c0,0.552,0.447,1,1,1s1-0.448,1-1v-0.878C32.836,46.934,35.314,48,38,48c5.514,0,10-4.486,10-10H46z"/>
</g>
</svg>
