<?xml version="1.0" encoding="utf-8"?>
<!-- Generator: Adobe Illustrator 17.0.0, SVG Export Plug-In . SVG Version: 6.00 Build 0)  -->
<!DOCTYPE svg PUBLIC "-//W3C//DTD SVG 1.1//EN" "http://www.w3.org/Graphics/SVG/1.1/DTD/svg11.dtd">
<svg version="1.1" id="Layer_1" xmlns="http://www.w3.org/2000/svg" xmlns:xlink="http://www.w3.org/1999/xlink" x="0px" y="0px"
	 width="48px" height="48px" viewBox="0 0 48 48" enable-background="new 0 0 48 48" xml:space="preserve">
<g>
	<path fill="#231F20" d="M42,12v9c0,0.552,0.448,1,1,1s1-0.448,1-1v-9c0-2.206-1.794-4-4-4H4c-2.206,0-4,1.794-4,4v22
		c0,2.206,1.794,4,4,4h16c0.552,0,1-0.448,1-1s-0.448-1-1-1H4c-1.103,0-2-0.897-2-2V12c0-0.221,0.045-0.431,0.111-0.63
		l19.264,15.411C21.558,26.927,21.779,27,22,27s0.442-0.073,0.624-0.22l19.264-15.411C41.955,11.568,42,11.778,42,12z M22,24.719
		L3.644,10.036C3.76,10.015,3.878,10,4,10h36c0.121,0,0.239,0.015,0.354,0.036L22,24.719z"/>
	<path fill="#231F20" d="M41.554,26c-1.902,0-4.142,0.983-5.554,3.569C34.588,26.983,32.348,26,30.446,26
		C27.278,26,24,28.646,24,33.074c0,6.362,10.946,14.396,11.412,14.735C35.587,47.936,35.793,48,36,48
		c0.206,0,0.413-0.064,0.588-0.191C37.054,47.47,48,39.436,48,33.074C48,28.646,44.722,26,41.554,26z M36,45.752
		c-3.26-2.493-10-8.51-10-12.678C26,29.898,28.261,28,30.446,28c2.173,0,3.885,1.729,4.582,4.626
		c0.108,0.449,0.51,0.766,0.972,0.766s0.864-0.317,0.972-0.766C37.669,29.729,39.382,28,41.554,28C43.739,28,46,29.898,46,33.074
		C46,37.242,39.26,43.259,36,45.752z"/>
</g>
</svg>
