<?xml version="1.0" encoding="utf-8"?>
<!-- Generator: Adobe Illustrator 17.0.0, SVG Export Plug-In . SVG Version: 6.00 Build 0)  -->
<!DOCTYPE svg PUBLIC "-//W3C//DTD SVG 1.1//EN" "http://www.w3.org/Graphics/SVG/1.1/DTD/svg11.dtd">
<svg version="1.1" id="Layer_1" xmlns="http://www.w3.org/2000/svg" xmlns:xlink="http://www.w3.org/1999/xlink" x="0px" y="0px"
	 width="48px" height="48px" viewBox="0 0 48 48" enable-background="new 0 0 48 48" xml:space="preserve">
<g>
	<path fill="#231F20" d="M47.948,32.742c-0.018-0.065-0.034-0.127-0.063-0.186c-0.01-0.02-0.009-0.041-0.021-0.06l-7-12
		C40.685,20.189,40.355,20,40,20H29c-0.552,0-1,0.448-1,1s0.448,1,1,1h10.426l5.833,10H33c-0.552,0-1,0.448-1,1v2
		c0,1.654-1.346,3-3,3h-9c-1.654,0-3-1.346-3-3v-2c0-0.552-0.448-1-1-1H2.741l5.833-10H13c0.552,0,1-0.448,1-1s-0.448-1-1-1H8
		c-0.356,0-0.685,0.189-0.864,0.496l-7,12c-0.011,0.019-0.011,0.041-0.021,0.06c-0.03,0.059-0.046,0.121-0.063,0.186
		c-0.018,0.066-0.036,0.13-0.04,0.197C0.011,32.96,0,32.978,0,33v14c0,0.552,0.448,1,1,1h46c0.552,0,1-0.448,1-1V33
		c0-0.022-0.011-0.04-0.012-0.061C47.984,32.872,47.966,32.808,47.948,32.742z M46,46H2V34h13v1c0,2.757,2.243,5,5,5h9
		c2.757,0,5-2.243,5-5v-1h12V46z"/>
	<path fill="#231F20" d="M16.9,28.994c0.034,0.004,0.067,0.005,0.101,0.005c0.47,0,0.884-0.332,0.979-0.801
		c0.116-0.568,2.947-13.625,18.02-14.18V17c0,0.384,0.22,0.735,0.566,0.902c0.346,0.165,0.758,0.119,1.058-0.121l10-8
		C47.862,9.591,48,9.304,48,9s-0.138-0.591-0.375-0.78l-10-8c-0.301-0.241-0.713-0.287-1.058-0.121C36.22,0.265,36,0.616,36,1v3.019
		C16.231,4.768,16,27.764,16,28C16,28.514,16.389,28.943,16.9,28.994z M20.44,16.846C23.589,9.649,29.161,6,37,6
		c0.552,0,1-0.448,1-1V3.081L45.399,9L38,14.919V13c0-0.552-0.448-1-1-1c-9.791,0-15.169,4.833-18.021,9.153
		C19.327,19.781,19.8,18.309,20.44,16.846z"/>
</g>
</svg>
