<?xml version="1.0" encoding="utf-8"?>
<!-- Generator: Adobe Illustrator 17.0.0, SVG Export Plug-In . SVG Version: 6.00 Build 0)  -->
<!DOCTYPE svg PUBLIC "-//W3C//DTD SVG 1.1//EN" "http://www.w3.org/Graphics/SVG/1.1/DTD/svg11.dtd">
<svg version="1.1" id="Layer_1" xmlns="http://www.w3.org/2000/svg" xmlns:xlink="http://www.w3.org/1999/xlink" x="0px" y="0px"
	 width="48px" height="48px" viewBox="0 0 48 48" enable-background="new 0 0 48 48" xml:space="preserve">
<path fill="#231F20" d="M47.992,1.044c0.002-0.038-0.002-0.073-0.004-0.111c-0.006-0.082-0.021-0.161-0.047-0.239
	c-0.012-0.036-0.021-0.07-0.037-0.105c-0.047-0.104-0.108-0.202-0.19-0.286c-0.003-0.003-0.004-0.007-0.007-0.01
	c-0.004-0.004-0.01-0.005-0.014-0.009c-0.083-0.08-0.179-0.14-0.28-0.186C47.376,0.08,47.339,0.07,47.3,0.058
	c-0.075-0.024-0.15-0.039-0.228-0.044c-0.041-0.003-0.08-0.007-0.121-0.005c-0.088,0.004-0.175,0.023-0.26,0.051
	c-0.027,0.009-0.054,0.01-0.08,0.021c-0.003,0.001-0.007,0.001-0.011,0.003l-46,20c-0.352,0.153-0.585,0.494-0.6,0.878
	c-0.015,0.384,0.191,0.742,0.531,0.922L17.26,30.74l8.856,16.728C26.29,47.796,26.63,48,27,48c0.013,0,0.025,0,0.039,0
	c0.383-0.014,0.725-0.248,0.878-0.6l20-46c0.002-0.005,0.002-0.01,0.004-0.015c0.008-0.02,0.009-0.04,0.016-0.06
	C47.969,1.233,47.988,1.139,47.992,1.044z M42.569,4.017L17.815,28.771L3.304,21.088L42.569,4.017z M26.912,44.696l-7.683-14.511
	L43.983,5.431L26.912,44.696z"/>
</svg>
