<?xml version="1.0" encoding="utf-8"?>
<!-- Generator: Adobe Illustrator 17.0.0, SVG Export Plug-In . SVG Version: 6.00 Build 0)  -->
<!DOCTYPE svg PUBLIC "-//W3C//DTD SVG 1.1//EN" "http://www.w3.org/Graphics/SVG/1.1/DTD/svg11.dtd">
<svg version="1.1" id="Layer_1" xmlns="http://www.w3.org/2000/svg" xmlns:xlink="http://www.w3.org/1999/xlink" x="0px" y="0px"
	 width="48px" height="48px" viewBox="0 0 48 48" enable-background="new 0 0 48 48" xml:space="preserve">
<path fill="#231F20" d="M20.447,14.887c-0.564,0-1.053,0.015-1.447,0.035V8c0-0.387-0.224-0.739-0.574-0.904
	c-0.347-0.164-0.761-0.115-1.062,0.132l-17,14C0.134,21.418,0,21.701,0,22s0.134,0.582,0.365,0.772l17,14
	c0.298,0.246,0.712,0.298,1.062,0.132C18.776,36.739,19,36.387,19,36v-7.218c1.013-0.224,3.018-0.582,5.496-0.582
	c5.54,0,13.094,1.782,17.621,10.271C42.294,38.802,42.637,39,43,39c0.08,0,0.162-0.01,0.242-0.03C43.687,38.859,44,38.459,44,38
	C44,16.554,25.973,14.888,20.447,14.887z M24.496,26.2c-3.876,0-6.661,0.806-6.778,0.841C17.292,27.166,17,27.557,17,28v5.881
	L2.573,22L17,10.119V16c0,0.286,0.123,0.558,0.336,0.748c0.215,0.19,0.501,0.279,0.782,0.246c0.009-0.002,0.907-0.106,2.329-0.106
	c6.028,0,19.49,1.78,21.34,17.364C36.774,27.69,29.795,26.2,24.496,26.2z"/>
</svg>
