<?xml version="1.0" encoding="utf-8"?>
<!-- Generator: Adobe Illustrator 17.0.0, SVG Export Plug-In . SVG Version: 6.00 Build 0)  -->
<!DOCTYPE svg PUBLIC "-//W3C//DTD SVG 1.1//EN" "http://www.w3.org/Graphics/SVG/1.1/DTD/svg11.dtd">
<svg version="1.1" xmlns="http://www.w3.org/2000/svg" xmlns:xlink="http://www.w3.org/1999/xlink" x="0px" y="0px" width="60px"
	 height="60px" viewBox="0 0 60 60" enable-background="new 0 0 60 60" xml:space="preserve">
<g id="Layer_3">
	<g>
		<path fill="#010101" d="M4.828,30l11.586-11.586c0.781-0.781,0.781-2.047,0-2.828c-0.781-0.781-2.047-0.781-2.828,0l-13,13
			c-0.781,0.781-0.781,2.047,0,2.828l13,13C13.977,44.805,14.488,45,15,45s1.023-0.195,1.414-0.586c0.781-0.781,0.781-2.047,0-2.828
			L4.828,30z"/>
		<path fill="#010101" d="M59.414,28.586l-13-13c-0.781-0.781-2.047-0.781-2.828,0c-0.781,0.781-0.781,2.047,0,2.828L55.172,30
			L43.586,41.586c-0.781,0.781-0.781,2.047,0,2.828C43.977,44.805,44.488,45,45,45s1.023-0.195,1.414-0.586l13-13
			C60.195,30.633,60.195,29.367,59.414,28.586z"/>
		<path fill="#010101" d="M30,26c-2.206,0-4,1.794-4,4c0,2.206,1.794,4,4,4s4-1.794,4-4C34,27.794,32.206,26,30,26z"/>
		<path fill="#010101" d="M18,26c-2.206,0-4,1.794-4,4c0,2.206,1.794,4,4,4s4-1.794,4-4C22,27.794,20.206,26,18,26z"/>
		<path fill="#010101" d="M46,30c0-2.206-1.794-4-4-4s-4,1.794-4,4c0,2.206,1.794,4,4,4S46,32.206,46,30z"/>
	</g>
</g>
<g id="nyt_x5F_exporter_x5F_info" display="none">
</g>
</svg>
