<?xml version="1.0" encoding="utf-8"?>
<!-- Generator: Adobe Illustrator 17.0.0, SVG Export Plug-In . SVG Version: 6.00 Build 0)  -->
<!DOCTYPE svg PUBLIC "-//W3C//DTD SVG 1.1//EN" "http://www.w3.org/Graphics/SVG/1.1/DTD/svg11.dtd">
<svg version="1.1" xmlns="http://www.w3.org/2000/svg" xmlns:xlink="http://www.w3.org/1999/xlink" x="0px" y="0px" width="60px"
	 height="60px" viewBox="0 0 60 60" enable-background="new 0 0 60 60" xml:space="preserve">
<g id="Layer_3">
	<g>
		<path fill="#010101" d="M58.707,7.293l-7-7c-0.391-0.391-1.023-0.391-1.414,0l-13,13c-0.391,0.391-0.391,1.023,0,1.414l7,7
			C44.488,21.902,44.744,22,45,22c0.256,0,0.512-0.098,0.707-0.293l13-13C59.098,8.316,59.098,7.684,58.707,7.293z"/>
		<path fill="#010101" d="M34,52H22c-0.553,0-1,0.448-1,1v6c0,0.552,0.447,1,1,1h12c0.553,0,1-0.448,1-1v-6
			C35,52.448,34.553,52,34,52z"/>
		<path fill="#010101" d="M34,42H22c-0.553,0-1,0.448-1,1v6c0,0.552,0.447,1,1,1h12c0.553,0,1-0.448,1-1v-6
			C35,42.448,34.553,42,34,42z"/>
		<path fill="#010101" d="M14.707,6.293l-4-4c-0.391-0.391-1.023-0.391-1.414,0l-8,8c-0.391,0.391-0.391,1.023,0,1.414l4,4
			C5.488,15.902,5.744,16,6,16c0.256,0,0.512-0.098,0.707-0.293l8-8C15.098,7.316,15.098,6.684,14.707,6.293z"/>
		<path fill="#010101" d="M21.707,13.293l-4-4c-0.391-0.391-1.023-0.391-1.414,0l-8,8c-0.391,0.391-0.391,1.023,0,1.414l4,4
			C12.488,22.902,12.744,23,13,23c0.256,0,0.512-0.098,0.707-0.293l8-8C22.098,14.316,22.098,13.684,21.707,13.293z"/>
		<path fill="#010101" d="M28,20c-4.963,0-9,4.038-9,9c0,4.962,4.037,9,9,9c4.963,0,9-4.038,9-9C37,24.038,32.963,20,28,20z"/>
	</g>
</g>
<g id="nyt_x5F_exporter_x5F_info" display="none">
</g>
</svg>
