<?xml version="1.0" encoding="utf-8"?>
<!-- Generator: Adobe Illustrator 17.0.0, SVG Export Plug-In . SVG Version: 6.00 Build 0)  -->
<!DOCTYPE svg PUBLIC "-//W3C//DTD SVG 1.1//EN" "http://www.w3.org/Graphics/SVG/1.1/DTD/svg11.dtd">
<svg version="1.1" xmlns="http://www.w3.org/2000/svg" xmlns:xlink="http://www.w3.org/1999/xlink" x="0px" y="0px" width="60px"
	 height="60px" viewBox="0 0 60 60" enable-background="new 0 0 60 60" xml:space="preserve">
<g id="Layer_3">
	<g>
		<path fill="#010101" d="M30,20c-4.963,0-9,4.038-9,9c0,4.962,4.037,9,9,9c4.963,0,9-4.038,9-9C39,24.038,34.963,20,30,20z"/>
		<path fill="#010101" d="M36,47H24c-1.105,0-2,0.896-2,2c0,1.105,0.895,2,2,2h12c1.104,0,2-0.895,2-2C38,47.896,37.104,47,36,47z"
			/>
		<path fill="#010101" d="M36,55H24c-1.105,0-2,0.896-2,2c0,1.105,0.895,2,2,2h12c1.104,0,2-0.895,2-2C38,55.896,37.104,55,36,55z"
			/>
		<path fill="#010101" d="M21.414,8.586c-0.781-0.781-2.047-0.781-2.828,0l-9,9c-0.781,0.781-0.781,2.047,0,2.828
			C9.977,20.805,10.488,21,11,21c0.512,0,1.023-0.195,1.414-0.586l9-9C22.195,10.633,22.195,9.367,21.414,8.586z"/>
		<path fill="#010101" d="M15.414,2.586c-0.781-0.781-2.047-0.781-2.828,0l-9,9c-0.781,0.781-0.781,2.047,0,2.828
			C3.977,14.805,4.488,15,5,15c0.512,0,1.023-0.195,1.414-0.586l9-9C16.195,4.633,16.195,3.367,15.414,2.586z"/>
		<path fill="#010101" d="M56.414,1.586c-0.781-0.781-2.047-0.781-2.828,0l-13,13c-0.781,0.781-0.781,2.047,0,2.828
			C40.977,17.805,41.488,18,42,18c0.512,0,1.023-0.195,1.414-0.586l13-13C57.195,3.633,57.195,2.367,56.414,1.586z"/>
	</g>
</g>
<g id="nyt_x5F_exporter_x5F_info" display="none">
</g>
</svg>
