<?xml version="1.0" encoding="utf-8"?>
<!-- Generator: Adobe Illustrator 17.0.0, SVG Export Plug-In . SVG Version: 6.00 Build 0)  -->
<!DOCTYPE svg PUBLIC "-//W3C//DTD SVG 1.1//EN" "http://www.w3.org/Graphics/SVG/1.1/DTD/svg11.dtd">
<svg version="1.1" xmlns="http://www.w3.org/2000/svg" xmlns:xlink="http://www.w3.org/1999/xlink" x="0px" y="0px" width="60px"
	 height="60px" viewBox="0 0 60 60" enable-background="new 0 0 60 60" xml:space="preserve">
<g id="Layer_3">
	<g>
		<path fill="#010101" d="M27.65,31h4.7c0.826-2.327,3.043-4,5.65-4h6v-2c0-0.732-0.212-1.409-0.556-2H40H20h-3.444
			C16.212,23.591,16,24.268,16,25v2h6C24.606,27,26.824,28.673,27.65,31z"/>
		<path fill="#010101" d="M40,21h2V7c0-2.206-1.794-4-4-4H22c-2.206,0-4,1.794-4,4v14h2H40z M22,8c0-0.552,0.447-1,1-1h14
			c0.553,0,1,0.448,1,1v10c0,0.552-0.447,1-1,1H23c-0.553,0-1-0.448-1-1V8z"/>
		<path fill="#010101" d="M59.897,50.14c-0.006-0.026-0.01-0.053-0.017-0.079c-0.069-0.278-0.168-0.547-0.296-0.804
			c-0.008-0.017-0.017-0.034-0.026-0.051c-0.037-0.073-0.093-0.136-0.135-0.207H32.576c-0.042,0.071-0.098,0.133-0.135,0.207
			c-0.009,0.017-0.017,0.034-0.026,0.051c-0.127,0.257-0.226,0.526-0.296,0.804c-0.007,0.026-0.011,0.053-0.017,0.079
			C32.039,50.421,32,50.709,32,51v5c0,0.551,0.448,1,1,1h26c0.552,0,1-0.449,1-1v-5C60,50.709,59.961,50.421,59.897,50.14z"/>
		<path fill="#010101" d="M38,29c-0.827,0-1.597,0.252-2.235,0.684c-0.213,0.144-0.411,0.308-0.592,0.489
			C34.448,30.897,34,31.897,34,33v14h24V33c0-1.103-0.449-2.103-1.173-2.827c-0.181-0.181-0.379-0.345-0.592-0.489
			C55.597,29.252,54.827,29,54,29H42H38z M54,34v10c0,0.552-0.447,1-1,1H39c-0.553,0-1-0.448-1-1V34c0-0.552,0.447-1,1-1h14
			C53.553,33,54,33.448,54,34z"/>
		<path fill="#010101" d="M26,33c0-1.103-0.449-2.103-1.173-2.827c-0.181-0.181-0.379-0.345-0.592-0.489
			C23.597,29.252,22.827,29,22,29h-4H6c-0.827,0-1.597,0.252-2.235,0.684c-0.213,0.144-0.411,0.308-0.592,0.489
			C2.448,30.897,2,31.897,2,33v14h24V33z M22,44c0,0.552-0.447,1-1,1H7c-0.553,0-1-0.448-1-1V34c0-0.552,0.447-1,1-1h14
			c0.553,0,1,0.448,1,1V44z"/>
		<path fill="#010101" d="M27.88,50.061c-0.069-0.278-0.168-0.547-0.296-0.804c-0.008-0.017-0.017-0.034-0.026-0.051
			c-0.037-0.073-0.093-0.136-0.135-0.207H0.576c-0.042,0.071-0.098,0.133-0.135,0.207c-0.009,0.017-0.017,0.034-0.026,0.051
			c-0.127,0.257-0.226,0.526-0.296,0.804c-0.007,0.026-0.011,0.053-0.017,0.079C0.039,50.421,0,50.709,0,51v5c0,0.551,0.448,1,1,1
			h26c0.552,0,1-0.449,1-1v-5c0-0.291-0.039-0.579-0.103-0.86C27.891,50.114,27.887,50.087,27.88,50.061z"/>
	</g>
</g>
<g id="nyt_x5F_exporter_x5F_info" display="none">
</g>
</svg>
