<?xml version="1.0" encoding="utf-8"?>
<!-- Generator: Adobe Illustrator 17.0.0, SVG Export Plug-In . SVG Version: 6.00 Build 0)  -->
<!DOCTYPE svg PUBLIC "-//W3C//DTD SVG 1.1//EN" "http://www.w3.org/Graphics/SVG/1.1/DTD/svg11.dtd">
<svg version="1.1" xmlns="http://www.w3.org/2000/svg" xmlns:xlink="http://www.w3.org/1999/xlink" x="0px" y="0px" width="60px"
	 height="60px" viewBox="0 0 60 60" enable-background="new 0 0 60 60" xml:space="preserve">
<g id="Layer_3">
	<g>
		<path fill="#010101" d="M13,28H7c-0.553,0-1,0.448-1,1c0,0.552,0.447,1,1,1h6c0.553,0,1-0.448,1-1C14,28.448,13.553,28,13,28z"/>
		<path fill="#010101" d="M32,4c0-2.206-1.794-4-4-4H4C1.794,0,0,1.794,0,4v14h32V4z"/>
		<path fill="#010101" d="M24,22h4.156h3.351C31.811,21.45,32,20.828,32,20.156V20H0c0,2.206,1.794,4,4,4h14.726
			C20.136,22.759,21.979,22,24,22z"/>
		<path fill="#010101" d="M54,24H28.156H24c-3.309,0-6,2.691-6,6v16h42V30C60,26.691,57.309,24,54,24z"/>
		<path fill="#010101" d="M18,50c0,3.309,2.691,6,6,6h14v2h-9c-0.553,0-1,0.448-1,1c0,0.552,0.447,1,1,1h20c0.553,0,1-0.448,1-1
			c0-0.552-0.447-1-1-1h-9v-2h14c3.309,0,6-2.691,6-6v-2H18V50z M39,49.5c0.827,0,1.5,0.673,1.5,1.5c0,0.827-0.673,1.5-1.5,1.5
			c-0.827,0-1.5-0.673-1.5-1.5C37.5,50.173,38.173,49.5,39,49.5z"/>
	</g>
</g>
<g id="nyt_x5F_exporter_x5F_info" display="none">
</g>
</svg>
