<?xml version="1.0" encoding="utf-8"?>
<!-- Generator: Adobe Illustrator 17.0.0, SVG Export Plug-In . SVG Version: 6.00 Build 0)  -->
<!DOCTYPE svg PUBLIC "-//W3C//DTD SVG 1.1//EN" "http://www.w3.org/Graphics/SVG/1.1/DTD/svg11.dtd">
<svg version="1.1" xmlns="http://www.w3.org/2000/svg" xmlns:xlink="http://www.w3.org/1999/xlink" x="0px" y="0px" width="60px"
	 height="60px" viewBox="0 0 60 60" enable-background="new 0 0 60 60" xml:space="preserve">
<g id="Layer_3">
	<g>
		<path fill="#010101" d="M58.99,12h-58c-0.553,0-1,0.448-1,1v15h2h56h2V13C59.99,12.448,59.543,12,58.99,12z M8.99,25
			c-2.209,0-4-1.79-4-4c0-2.209,1.791-4,4-4s4,1.791,4,4C12.99,23.21,11.199,25,8.99,25z M34.99,24c-1.654,0-3-1.346-3-3
			c0-1.654,1.346-3,3-3c1.654,0,3,1.346,3,3C37.99,22.654,36.645,24,34.99,24z M42.99,24c-1.654,0-3-1.346-3-3c0-1.654,1.346-3,3-3
			c1.654,0,3,1.346,3,3C45.99,22.654,44.645,24,42.99,24z M50.99,24c-1.654,0-3-1.346-3-3c0-1.654,1.346-3,3-3c1.654,0,3,1.346,3,3
			C53.99,22.654,52.645,24,50.99,24z"/>
		<path fill="#010101" d="M0.99,10h58c0.008,0.001,0.015,0.001,0.02,0c0.553,0,1-0.448,1-1c0-0.401-0.235-0.747-0.576-0.906
			L47.545,0.168C47.381,0.059,47.188,0,46.99,0h-34c-0.197,0-0.391,0.059-0.555,0.168l-12,8c-0.366,0.245-0.53,0.7-0.402,1.122
			C0.161,9.711,0.55,10,0.99,10z"/>
		<circle fill="#010101" cx="54.99" cy="59" r="1"/>
		<circle fill="#010101" cx="50.99" cy="59" r="1"/>
		<circle fill="#010101" cx="8.99" cy="59" r="1"/>
		<circle fill="#010101" cx="4.99" cy="59" r="1"/>
		<path fill="#010101" d="M0.99,30h-1v10c0,3.309,2.691,6,6,6h24v12h-17c-0.553,0-1,0.448-1,1c0,0.552,0.447,1,1,1h34
			c0.553,0,1-0.448,1-1c0-0.552-0.447-1-1-1h-15V46h22c3.309,0,6-2.691,6-6V30h-1H0.99z M8.99,41c-2.209,0-4-1.79-4-4
			c0-2.209,1.791-4,4-4s4,1.791,4,4C12.99,39.21,11.199,41,8.99,41z M34.99,40c-1.654,0-3-1.346-3-3c0-1.654,1.346-3,3-3
			c1.654,0,3,1.346,3,3C37.99,38.654,36.645,40,34.99,40z M42.99,40c-1.654,0-3-1.346-3-3c0-1.654,1.346-3,3-3c1.654,0,3,1.346,3,3
			C45.99,38.654,44.645,40,42.99,40z M50.99,40c-1.654,0-3-1.346-3-3c0-1.654,1.346-3,3-3c1.654,0,3,1.346,3,3
			C53.99,38.654,52.645,40,50.99,40z"/>
	</g>
</g>
<g id="nyt_x5F_exporter_x5F_info" display="none">
</g>
</svg>
