<?xml version="1.0" encoding="utf-8"?>
<!-- Generator: Adobe Illustrator 17.0.0, SVG Export Plug-In . SVG Version: 6.00 Build 0)  -->
<!DOCTYPE svg PUBLIC "-//W3C//DTD SVG 1.1//EN" "http://www.w3.org/Graphics/SVG/1.1/DTD/svg11.dtd">
<svg version="1.1" xmlns="http://www.w3.org/2000/svg" xmlns:xlink="http://www.w3.org/1999/xlink" x="0px" y="0px" width="60px"
	 height="60px" viewBox="0 0 60 60" enable-background="new 0 0 60 60" xml:space="preserve">
<g id="Layer_3">
	<g>
		<circle fill="#010101" cx="55" cy="53" r="1"/>
		<circle fill="#010101" cx="51" cy="53" r="1"/>
		<circle fill="#010101" cx="9" cy="53" r="1"/>
		<circle fill="#010101" cx="5" cy="53" r="1"/>
		<path fill="#010101" d="M0,39c0,0.552,0.447,1,1,1h29v12H13c-0.553,0-1,0.448-1,1c0,0.552,0.447,1,1,1h34c0.553,0,1-0.448,1-1
			c0-0.552-0.447-1-1-1H32V40h27c0.553,0,1-0.448,1-1V24H0V39z M51,28c1.654,0,3,1.346,3,3c0,1.654-1.346,3-3,3
			c-1.654,0-3-1.346-3-3C48,29.346,49.346,28,51,28z M43,28c1.654,0,3,1.346,3,3c0,1.654-1.346,3-3,3c-1.654,0-3-1.346-3-3
			C40,29.346,41.346,28,43,28z M35,28c1.654,0,3,1.346,3,3c0,1.654-1.346,3-3,3c-1.654,0-3-1.346-3-3C32,29.346,33.346,28,35,28z
			 M9,26c2.757,0,5,2.243,5,5c0,2.757-2.243,5-5,5c-2.757,0-5-2.243-5-5C4,28.243,6.243,26,9,26z"/>
		<path fill="#010101" d="M59,6H1C0.447,6,0,6.448,0,7v15h60V7C60,6.448,59.553,6,59,6z M9,20c-2.757,0-5-2.243-5-5
			c0-2.757,2.243-5,5-5c2.757,0,5,2.243,5,5C14,17.757,11.757,20,9,20z M35,18c-1.654,0-3-1.346-3-3c0-1.654,1.346-3,3-3
			c1.654,0,3,1.346,3,3C38,16.654,36.654,18,35,18z M43,18c-1.654,0-3-1.346-3-3c0-1.654,1.346-3,3-3c1.654,0,3,1.346,3,3
			C46,16.654,44.654,18,43,18z M51,18c-1.654,0-3-1.346-3-3c0-1.654,1.346-3,3-3c1.654,0,3,1.346,3,3C54,16.654,52.654,18,51,18z"/>
	</g>
</g>
<g id="nyt_x5F_exporter_x5F_info" display="none">
</g>
</svg>
