<?xml version="1.0" encoding="utf-8"?>
<!-- Generator: Adobe Illustrator 17.0.0, SVG Export Plug-In . SVG Version: 6.00 Build 0)  -->
<!DOCTYPE svg PUBLIC "-//W3C//DTD SVG 1.1//EN" "http://www.w3.org/Graphics/SVG/1.1/DTD/svg11.dtd">
<svg version="1.1" xmlns="http://www.w3.org/2000/svg" xmlns:xlink="http://www.w3.org/1999/xlink" x="0px" y="0px" width="60px"
	 height="60px" viewBox="0 0 60 60" enable-background="new 0 0 60 60" xml:space="preserve">
<g id="Layer_3">
	<g>
		<path fill="#010101" d="M0,12v14h60V12H0z M9,23c-2.209,0-4-1.79-4-4c0-2.209,1.791-4,4-4s4,1.791,4,4C13,21.21,11.209,23,9,23z
			 M35,22c-1.654,0-3-1.346-3-3c0-1.654,1.346-3,3-3c1.654,0,3,1.346,3,3C38,20.654,36.654,22,35,22z M43,22c-1.654,0-3-1.346-3-3
			c0-1.654,1.346-3,3-3c1.654,0,3,1.346,3,3C46,20.654,44.654,22,43,22z M51,22c-1.654,0-3-1.346-3-3c0-1.654,1.346-3,3-3
			c1.654,0,3,1.346,3,3C54,20.654,52.654,22,51,22z"/>
		<path fill="#010101" d="M49.707,0.293C49.519,0.106,49.266,0,49,0H11c-0.266,0-0.52,0.106-0.707,0.293L0.586,10h58.828
			L49.707,0.293z"/>
		<path fill="#010101" d="M0,54c0,3.309,2.691,6,6,6h48c3.309,0,6-2.691,6-6V44H0V54z M51,48c1.654,0,3,1.346,3,3
			c0,1.654-1.346,3-3,3c-1.654,0-3-1.346-3-3C48,49.346,49.346,48,51,48z M43,48c1.654,0,3,1.346,3,3c0,1.654-1.346,3-3,3
			c-1.654,0-3-1.346-3-3C40,49.346,41.346,48,43,48z M35,48c1.654,0,3,1.346,3,3c0,1.654-1.346,3-3,3c-1.654,0-3-1.346-3-3
			C32,49.346,33.346,48,35,48z M9,47c2.209,0,4,1.791,4,4c0,2.21-1.791,4-4,4s-4-1.79-4-4C5,48.791,6.791,47,9,47z"/>
		<path fill="#010101" d="M0,42h60V28H0V42z M51,32c1.654,0,3,1.346,3,3c0,1.654-1.346,3-3,3c-1.654,0-3-1.346-3-3
			C48,33.346,49.346,32,51,32z M43,32c1.654,0,3,1.346,3,3c0,1.654-1.346,3-3,3c-1.654,0-3-1.346-3-3C40,33.346,41.346,32,43,32z
			 M35,32c1.654,0,3,1.346,3,3c0,1.654-1.346,3-3,3c-1.654,0-3-1.346-3-3C32,33.346,33.346,32,35,32z M9,31c2.209,0,4,1.791,4,4
			c0,2.21-1.791,4-4,4s-4-1.79-4-4C5,32.791,6.791,31,9,31z"/>
	</g>
</g>
<g id="nyt_x5F_exporter_x5F_info" display="none">
</g>
</svg>
