<?xml version="1.0" encoding="utf-8"?>
<!-- Generator: Adobe Illustrator 17.0.0, SVG Export Plug-In . SVG Version: 6.00 Build 0)  -->
<!DOCTYPE svg PUBLIC "-//W3C//DTD SVG 1.1//EN" "http://www.w3.org/Graphics/SVG/1.1/DTD/svg11.dtd">
<svg version="1.1" xmlns="http://www.w3.org/2000/svg" xmlns:xlink="http://www.w3.org/1999/xlink" x="0px" y="0px" width="60px"
	 height="60px" viewBox="0 0 60 60" enable-background="new 0 0 60 60" xml:space="preserve">
<g id="Layer_3">
	<path fill="#010101" d="M44,12h-8c-1.105,0-2,0.896-2,2v8c0,1.104,0.895,2,2,2h2v3.868l-6,3.6V6.828l2.586,2.586
		C34.977,9.804,35.488,10,36,10c0.512,0,1.023-0.195,1.414-0.586c0.781-0.781,0.781-2.047,0-2.828l-5.999-5.999
		c-0.093-0.093-0.196-0.177-0.307-0.251c-0.047-0.032-0.099-0.053-0.148-0.081c-0.065-0.036-0.127-0.075-0.196-0.103
		c-0.065-0.027-0.133-0.042-0.2-0.062c-0.058-0.017-0.113-0.039-0.173-0.051c-0.258-0.052-0.525-0.052-0.783,0
		c-0.06,0.012-0.116,0.034-0.173,0.051c-0.067,0.02-0.135,0.035-0.2,0.062c-0.069,0.028-0.131,0.067-0.196,0.103
		c-0.05,0.027-0.101,0.049-0.148,0.081c-0.11,0.074-0.213,0.157-0.307,0.251l-5.999,5.999c-0.781,0.781-0.781,2.047,0,2.828
		c0.781,0.781,2.047,0.781,2.828,0L28,6.828v29.639l-5.992-3.595l0.024-3.234C24.341,28.803,26,26.594,26,24c0-3.309-2.691-6-6-6
		c-3.309,0-6,2.691-6,6c0,2.618,1.688,4.844,4.031,5.661L18,33.985c-0.005,0.708,0.364,1.365,0.971,1.729L28,41.132v3.131
		c-3.445,0.892-6,4.017-6,7.737c0,4.411,3.589,8,8,8c4.411,0,8-3.589,8-8c0-3.72-2.555-6.845-6-7.737v-8.131l9.029-5.417
		C41.632,30.353,42,29.702,42,29v-5h2c1.104,0,2-0.896,2-2v-8C46,12.895,45.104,12,44,12z M20,26c-1.103,0-2-0.897-2-2
		c0-1.103,0.897-2,2-2c1.102,0,2,0.897,2,2C22,25.103,21.102,26,20,26z M34,52c0,2.206-1.794,4-4,4c-2.206,0-4-1.794-4-4
		c0-2.206,1.794-4,4-4C32.206,48,34,49.794,34,52z M42,20h-4v-4h4V20z"/>
</g>
<g id="nyt_x5F_exporter_x5F_info" display="none">
</g>
</svg>
