<?xml version="1.0" encoding="utf-8"?>
<!-- Generator: Adobe Illustrator 17.0.0, SVG Export Plug-In . SVG Version: 6.00 Build 0)  -->
<!DOCTYPE svg PUBLIC "-//W3C//DTD SVG 1.1//EN" "http://www.w3.org/Graphics/SVG/1.1/DTD/svg11.dtd">
<svg version="1.1" id="Layer_2" xmlns="http://www.w3.org/2000/svg" xmlns:xlink="http://www.w3.org/1999/xlink" x="0px" y="0px"
	 width="60px" height="60px" viewBox="0 0 60 60" enable-background="new 0 0 60 60" xml:space="preserve">
<path fill="#010101" d="M52.804,51.37l-21.92-43.84c-0.339-0.678-1.45-0.678-1.789,0l-22,44c-0.155,0.31-0.138,0.678,0.044,0.973
	c0.182,0.295,0.504,0.475,0.851,0.475h44c0.007-0.001,0.013,0,0.02,0c0.552,0,1-0.447,1-1C53.01,51.749,52.933,51.538,52.804,51.37z
	 M28.99,23.283c0-0.553,0.448-1,1-1c0.552,0,1,0.447,1,1v15.305c0,0.553-0.448,1-1,1c-0.552,0-1-0.447-1-1V23.283z M29.99,47.695
	c-1.331,0-2.413-1.082-2.413-2.412c0-1.331,1.083-2.414,2.413-2.414c1.331,0,2.413,1.083,2.413,2.414
	C32.403,46.613,31.321,47.695,29.99,47.695z"/>
</svg>
