<?xml version="1.0" encoding="utf-8"?>
<!-- Generator: Adobe Illustrator 17.0.0, SVG Export Plug-In . SVG Version: 6.00 Build 0)  -->
<!DOCTYPE svg PUBLIC "-//W3C//DTD SVG 1.1//EN" "http://www.w3.org/Graphics/SVG/1.1/DTD/svg11.dtd">
<svg version="1.1" id="Layer_2" xmlns="http://www.w3.org/2000/svg" xmlns:xlink="http://www.w3.org/1999/xlink" x="0px" y="0px"
	 width="60px" height="60px" viewBox="0 0 60 60" enable-background="new 0 0 60 60" xml:space="preserve">
<path fill="#010101" d="M30.389,6.997L29.982,7c-6.162,0.107-11.96,2.598-16.327,7.012C9.26,18.456,6.897,24.276,7.003,30.4
	c0.22,12.675,10.15,22.602,22.607,22.602L30.017,53c6.163-0.107,11.961-2.597,16.328-7.011c4.396-4.444,6.758-10.265,6.652-16.39
	C52.777,16.925,42.846,6.997,30.389,6.997z M29,18.996c0-0.553,0.448-1,1-1s1,0.447,1,1v14c0,0.553-0.448,1-1,1s-1-0.447-1-1V18.996
	z M30.044,42.496H30.04H30c-1.355,0-2.477-1.102-2.5-2.456c-0.012-0.668,0.238-1.3,0.702-1.78c0.464-0.48,1.088-0.751,1.755-0.762
	c0.001,0,0.001,0,0.002,0c1.397,0,2.517,1.102,2.541,2.456C32.524,41.331,31.422,42.472,30.044,42.496z"/>
</svg>
