<?xml version="1.0" encoding="utf-8"?>
<!-- Generator: Adobe Illustrator 17.0.0, SVG Export Plug-In . SVG Version: 6.00 Build 0)  -->
<!DOCTYPE svg PUBLIC "-//W3C//DTD SVG 1.1//EN" "http://www.w3.org/Graphics/SVG/1.1/DTD/svg11.dtd">
<svg version="1.1" id="Layer_2" xmlns="http://www.w3.org/2000/svg" xmlns:xlink="http://www.w3.org/1999/xlink" x="0px" y="0px"
	 width="60px" height="60px" viewBox="0 0 60 60" enable-background="new 0 0 60 60" xml:space="preserve">
<path fill="#010101" d="M30,7C17.318,7,7,17.317,7,30c0,12.683,10.318,23,23,23c12.682,0,23-10.317,23-23C53,17.317,42.682,7,30,7z
	 M29,15c1.103,0,2,0.898,2,2c0,1.103-0.897,2-2,2s-2-0.897-2-2C27,15.898,27.897,15,29,15z M36,45H24c-0.552,0-1-0.447-1-1
	c0-0.553,0.448-1,1-1h5V27h-3c-0.552,0-1-0.447-1-1c0-0.553,0.448-1,1-1h4c0.552,0,1,0.447,1,1v17h5c0.552,0,1,0.447,1,1
	C37,44.553,36.552,45,36,45z"/>
</svg>
