<?xml version="1.0" encoding="utf-8"?>
<!-- Generator: Adobe Illustrator 17.0.0, SVG Export Plug-In . SVG Version: 6.00 Build 0)  -->
<!DOCTYPE svg PUBLIC "-//W3C//DTD SVG 1.1//EN" "http://www.w3.org/Graphics/SVG/1.1/DTD/svg11.dtd">
<svg version="1.1" id="Layer_2" xmlns="http://www.w3.org/2000/svg" xmlns:xlink="http://www.w3.org/1999/xlink" x="0px" y="0px"
	 width="60px" height="60px" viewBox="0 0 60 60" enable-background="new 0 0 60 60" xml:space="preserve">
<path fill="#010101" d="M30,6C16.767,6,6,16.767,6,30c0,13.233,10.767,24,24,24s24-10.767,24-24C54,16.767,43.233,6,30,6z M30,44.5
	c-1.378,0-2.5-1.121-2.5-2.5c0-1.379,1.122-2.5,2.5-2.5c1.378,0,2.5,1.121,2.5,2.5C32.5,43.379,31.378,44.5,30,44.5z M31,31.929V37
	c0,0.553-0.448,1-1,1c-0.552,0-1-0.447-1-1v-6c0-0.553,0.448-1,1-1c2.757,0,5-2.243,5-5c0-2.757-2.243-5-5-5c-2.757,0-5,2.243-5,5
	c0,0.553-0.448,1-1,1c-0.552,0-1-0.447-1-1c0-3.859,3.14-7,7-7c3.86,0,7,3.141,7,7C37,28.521,34.388,31.442,31,31.929z"/>
</svg>
