<?xml version="1.0" encoding="utf-8"?>
<!-- Generator: Adobe Illustrator 17.0.0, SVG Export Plug-In . SVG Version: 6.00 Build 0)  -->
<!DOCTYPE svg PUBLIC "-//W3C//DTD SVG 1.1//EN" "http://www.w3.org/Graphics/SVG/1.1/DTD/svg11.dtd">
<svg version="1.1" id="Layer_1" xmlns="http://www.w3.org/2000/svg" xmlns:xlink="http://www.w3.org/1999/xlink" x="0px" y="0px"
	 width="48px" height="48px" viewBox="0 0 48 48" enable-background="new 0 0 48 48" xml:space="preserve">
<g>
	<path fill="#010101" d="M43,14H32v-2c0-2.206-1.794-4-4-4h-8c-2.206,0-4,1.794-4,4v2H5c-2.757,0-5,2.243-5,5v24
		c0,2.757,2.243,5,5,5h38c2.757,0,5-2.243,5-5V19C48,16.243,45.757,14,43,14z M18,12c0-1.103,0.897-2,2-2h8c1.102,0,2,0.897,2,2v2
		H18V12z M46,43c0,1.654-1.346,3-3,3H5c-1.654,0-3-1.346-3-3V19c0-1.654,1.346-3,3-3h38c1.654,0,3,1.346,3,3V43z"/>
	<circle fill="#010101" cx="30" cy="32" r="2"/>
	<path fill="#010101" d="M30,25c-2.287,0-4.434,1.136-5.738,3H13c-0.266,0-0.52,0.106-0.707,0.293l-3,3
		c-0.391,0.391-0.391,1.023,0,1.414l3,3C12.48,35.895,12.734,36,13,36h11.262c1.303,1.864,3.451,3,5.738,3c3.859,0,7-3.14,7-7
		S33.859,25,30,25z M30,37c-1.773,0-3.431-0.958-4.326-2.502C25.495,34.19,25.165,34,24.809,34H13.414l-2-2l2-2h11.395
		c0.356,0,0.686-0.19,0.865-0.498C26.569,27.959,28.227,27,30,27c2.757,0,5,2.243,5,5S32.757,37,30,37z"/>
</g>
<g id="nyt_x5F_exporter_x5F_info" display="none">
</g>
</svg>
