<?xml version="1.0" encoding="utf-8"?>
<!-- Generator: Adobe Illustrator 17.0.0, SVG Export Plug-In . SVG Version: 6.00 Build 0)  -->
<!DOCTYPE svg PUBLIC "-//W3C//DTD SVG 1.1//EN" "http://www.w3.org/Graphics/SVG/1.1/DTD/svg11.dtd">
<svg version="1.1" id="Layer_1" xmlns="http://www.w3.org/2000/svg" xmlns:xlink="http://www.w3.org/1999/xlink" x="0px" y="0px"
	 width="48px" height="48px" viewBox="0 0 48 48" enable-background="new 0 0 48 48" xml:space="preserve">
<g>
	<path fill="#010101" d="M26.844,28.229l1.738,6.998c0.081,0.324,0.319,0.587,0.633,0.7c0.111,0.039,0.225,0.059,0.338,0.059
		c0.212,0,0.421-0.067,0.596-0.196l5.791-4.295c0.324-0.241,0.472-0.652,0.375-1.044l-1.737-6.998
		c-0.081-0.325-0.319-0.588-0.633-0.701c-0.316-0.111-0.665-0.06-0.934,0.138l-5.792,4.295
		C26.895,27.425,26.747,27.837,26.844,28.229z M32.997,25.391l1.216,4.895l-4.051,3.004l-1.217-4.895L32.997,25.391z"/>
	<path fill="#010101" d="M47.903,18.513c-0.113-0.24-0.316-0.425-0.566-0.515l-20.706-7.432c-0.519-0.187-1.092,0.083-1.279,0.603
		l-0.143,0.399l-1.797-7.793c-0.124-0.538-0.661-0.87-1.199-0.75L0.775,7.963C0.517,8.022,0.293,8.182,0.152,8.407
		C0.011,8.632-0.035,8.903,0.025,9.162L6.76,38.397c0.059,0.258,0.219,0.482,0.444,0.623c0.16,0.1,0.343,0.152,0.53,0.152
		c0.076,0,0.151-0.008,0.224-0.025l8.013-1.847l-0.755,2.103c-0.186,0.52,0.084,1.092,0.604,1.279l20.705,7.433
		c0.109,0.039,0.224,0.059,0.338,0.059c0.147,0,0.292-0.032,0.427-0.096c0.24-0.112,0.425-0.316,0.515-0.566L47.94,19.278
		C48.03,19.028,48.016,18.753,47.903,18.513z M8.484,36.973L2.199,9.688l19.488-4.489l2.272,9.851l-7.185,20.013L8.484,36.973z
		 M36.259,45.895l-18.822-6.758l9.46-26.352l18.823,6.756L36.259,45.895z"/>
	
		<rect x="28" y="15.914" transform="matrix(0.427 0.9042 -0.9042 0.427 31.4777 -16.4346)" fill="#010101" width="1.414" height="1.413"/>
	<polygon fill="#010101" points="33.508,41.721 34.113,42.998 35.393,42.397 34.79,41.115 	"/>
	<path fill="#010101" d="M5.796,10.938c-0.074,0-0.15,0.008-0.226,0.025c-0.539,0.125-0.873,0.66-0.75,1.199
		c0.106,0.463,0.518,0.776,0.973,0.776c0.074,0,0.15-0.008,0.226-0.026c0.538-0.123,0.875-0.66,0.75-1.199
		C6.664,11.25,6.252,10.938,5.796,10.938z"/>
	<path fill="#010101" d="M14.368,15.298c-0.407-0.179-0.884-0.071-1.17,0.27c-0.592,0.703-3.518,4.324-2.985,6.641
		c0.42,1.821,2.05,2.951,4.254,2.951c0.174,0,0.349-0.016,0.524-0.031l0.244,1.055c0.108,0.463,0.519,0.775,0.974,0.775
		c0.074,0,0.15-0.008,0.225-0.026c0.538-0.124,0.874-0.661,0.75-1.199l-0.242-1.05c0.813-0.317,1.526-0.774,2.057-1.337
		c0.901-0.955,1.242-2.157,0.96-3.384C19.425,17.644,15.208,15.67,14.368,15.298z M17.544,21.975
		c-0.457,0.485-1.19,0.872-2.009,1.06c-0.358,0.083-0.717,0.125-1.068,0.125c-0.596,0-2.014-0.136-2.305-1.399
		c-0.184-0.796,0.874-2.724,2.087-4.307c1.782,0.891,3.577,2.162,3.761,2.958C18.144,20.99,17.991,21.501,17.544,21.975z"/>
</g>
<g id="nyt_x5F_exporter_x5F_info" display="none">
</g>
</svg>
