<?xml version="1.0" encoding="utf-8"?>
<!-- Generator: Adobe Illustrator 17.1.0, SVG Export Plug-In . SVG Version: 6.00 Build 0)  -->
<!DOCTYPE svg PUBLIC "-//W3C//DTD SVG 1.0//EN" "http://www.w3.org/TR/2001/REC-SVG-20010904/DTD/svg10.dtd">
<svg version="1.0" id="Layer_1" xmlns="http://www.w3.org/2000/svg" xmlns:xlink="http://www.w3.org/1999/xlink" x="0px" y="0px"
	 width="48px" height="48px" viewBox="0 0 48 48" enable-background="new 0 0 48 48" xml:space="preserve">
<g>
	<path d="M47,0H1C0.447,0,0,0.447,0,1v23v4v19c0,0.553,0.447,1,1,1h16c0.553,0,1-0.447,1-1c0-3.261-0.419-6.306-1.15-9h14.3
		C30.419,40.694,30,43.739,30,47c0,0.553,0.447,1,1,1h16c0.553,0,1-0.447,1-1V28v-4V1C48,0.447,47.553,0,47,0z M46,23h-5
		C28.212,23,25.195,11.813,25.01,2H46V23z M46,27h-4v-2h4V27z M22.985,2C22.667,19.316,14.162,23,7,23H2V2H22.985z M2,25h4v2H2V25z
		 M2,46V29h5c4.711,0,8.716,7.687,8.985,17H2z M16.231,36c-1.777-4.982-4.745-8.364-8.231-8.911v-2.136
		c8.388-0.373,13.881-5.412,16-14.487c2.119,9.074,7.612,14.114,16,14.487v2.136c-3.486,0.548-6.454,3.929-8.231,8.911H16.231z
		 M32.015,46c0.27-9.313,4.275-17,8.985-17h5v17H32.015z"/>
	<path d="M8.001,19c0.15,0,0.303-0.034,0.446-0.105c4.503-2.251,8.512-7.592,9.533-12.698c0.108-0.542-0.243-1.068-0.784-1.177
		c-0.54-0.113-1.069,0.241-1.177,0.784c-0.895,4.478-4.535,9.336-8.467,11.302c-0.494,0.247-0.694,0.848-0.447,1.342
		C7.281,18.798,7.634,19,8.001,19z"/>
	<path d="M7,31c-0.553,0-1,0.447-1,1c0,0.496,0.36,0.907,0.834,0.986C7.458,33.441,9,36.402,9,38c0,0.553,0.447,1,1,1
		c0.553,0,1-0.447,1-1C11,36.094,9.055,31,7,31z"/>
	<path d="M39.553,18.895C39.696,18.966,39.849,19,39.999,19c0.367,0,0.72-0.202,0.895-0.553c0.247-0.494,0.047-1.095-0.447-1.342
		c-3.932-1.966-7.571-6.824-8.467-11.302c-0.108-0.541-0.63-0.897-1.177-0.784c-0.541,0.108-0.893,0.635-0.784,1.177
		C31.041,11.303,35.05,16.644,39.553,18.895z"/>
	<path d="M41,31c-2.055,0-4,5.094-4,7c0,0.553,0.447,1,1,1c0.553,0,1-0.447,1-1c0-1.598,1.542-4.559,2.166-5.014
		C41.64,32.907,42,32.496,42,32C42,31.447,41.553,31,41,31z"/>
</g>
</svg>
