<?xml version="1.0" encoding="utf-8"?>
<!-- Generator: Adobe Illustrator 17.0.0, SVG Export Plug-In . SVG Version: 6.00 Build 0)  -->
<!DOCTYPE svg PUBLIC "-//W3C//DTD SVG 1.1//EN" "http://www.w3.org/Graphics/SVG/1.1/DTD/svg11.dtd">
<svg version="1.1" id="Layer_1" xmlns="http://www.w3.org/2000/svg" xmlns:xlink="http://www.w3.org/1999/xlink" x="0px" y="0px"
	 width="48px" height="48px" viewBox="0 0 48 48" enable-background="new 0 0 48 48" xml:space="preserve">
<g>
	<path fill="#010101" d="M45,4H21c-1.654,0-3,1.346-3,3v11H3c-1.654,0-3,1.346-3,3v24c0,1.654,1.346,3,3,3h24c1.654,0,3-1.346,3-3
		V34h15c1.654,0,3-1.346,3-3V7C48,5.346,46.654,4,45,4z M28,45c0,0.551-0.449,1-1,1H3c-0.551,0-1-0.449-1-1V21c0-0.551,0.449-1,1-1
		h24c0.551,0,1,0.449,1,1V45z M46,31c0,0.551-0.449,1-1,1H30V21c0-1.654-1.346-3-3-3h-7V7c0-0.551,0.449-1,1-1h24
		c0.551,0,1,0.449,1,1V31z"/>
	<circle fill="#010101" cx="8" cy="28" r="2"/>
	<circle fill="#010101" cx="22" cy="28" r="2"/>
	<circle fill="#010101" cx="15" cy="28" r="2"/>
	<circle fill="#010101" cx="8" cy="38" r="2"/>
	<circle fill="#010101" cx="22" cy="38" r="2"/>
	<circle fill="#010101" cx="15" cy="38" r="2"/>
	<circle fill="#010101" cx="28" cy="12" r="2"/>
	<circle fill="#010101" cx="38" cy="26" r="2"/>
	<circle fill="#010101" cx="38" cy="12" r="2"/>
</g>
<g id="nyt_x5F_exporter_x5F_info" display="none">
</g>
</svg>
