<?xml version="1.0" encoding="utf-8"?>
<!-- Generator: Adobe Illustrator 17.0.0, SVG Export Plug-In . SVG Version: 6.00 Build 0)  -->
<!DOCTYPE svg PUBLIC "-//W3C//DTD SVG 1.1//EN" "http://www.w3.org/Graphics/SVG/1.1/DTD/svg11.dtd">
<svg version="1.1" id="Layer_1" xmlns="http://www.w3.org/2000/svg" xmlns:xlink="http://www.w3.org/1999/xlink" x="0px" y="0px"
	 width="48px" height="48px" viewBox="0 0 48 48" enable-background="new 0 0 48 48" xml:space="preserve">
<g>
	<path fill="#010101" d="M17,18.004c-1.106,0-2,0.893-2,2c0,1.102,0.894,2,2,2c1.103,0,2-0.898,2-2
		C19,18.896,18.103,18.004,17,18.004z"/>
	<circle fill="#010101" cx="25" cy="34" r="2"/>
	<circle fill="#010101" cx="12" cy="39" r="2"/>
	<circle fill="#010101" cx="6" cy="29" r="2"/>
	<circle fill="#010101" cx="22" cy="39" r="2"/>
	<circle fill="#010101" cx="28" cy="29" r="2"/>
	<circle fill="#010101" cx="38" cy="13" r="2"/>
	<circle fill="#010101" cx="38" cy="23" r="2"/>
	<path fill="#010101" d="M43.992,5.936c-0.002-0.023-0.005-0.044-0.008-0.066c-0.031-0.236-0.144-0.449-0.321-0.608
		C43.651,5.251,43.64,5.24,43.627,5.23c-0.02-0.016-0.036-0.036-0.057-0.051c-0.082-0.057-0.171-0.095-0.263-0.125
		c-0.003-0.001-0.006-0.004-0.009-0.005l-16-5.004c-0.195-0.061-0.403-0.061-0.597,0l-16,5.004
		c-0.003,0.001-0.004,0.003-0.007,0.004c-0.092,0.03-0.182,0.068-0.264,0.125c-0.022,0.015-0.038,0.035-0.058,0.052
		c-0.013,0.011-0.024,0.021-0.037,0.033c-0.174,0.158-0.286,0.369-0.319,0.602c-0.004,0.026-0.008,0.05-0.009,0.076
		C10.006,5.961,10,5.98,10,6v10.141l-9.299,2.908c-0.003,0.001-0.004,0.003-0.007,0.004c-0.092,0.03-0.182,0.068-0.264,0.125
		c-0.022,0.015-0.038,0.036-0.059,0.052c-0.013,0.01-0.024,0.021-0.036,0.032c-0.175,0.158-0.288,0.37-0.319,0.604
		c-0.003,0.024-0.007,0.047-0.009,0.072C0.006,19.959,0,19.979,0,20v20c0,0.397,0.235,0.757,0.599,0.916l16,7
		c0.015,0.006,0.031,0.004,0.045,0.01C16.759,47.97,16.878,48,17,48s0.241-0.03,0.356-0.074c0.015-0.006,0.031-0.003,0.045-0.01
		l16-7C33.765,40.757,34,40.397,34,40v-9.322l9.372-3.749C43.751,26.776,44,26.409,44,26V6C44,5.978,43.994,5.958,43.992,5.936z
		 M27,2.048l12.919,4.04l-12.917,4.844L14.082,6.087L27,2.048z M17,24.931L4.082,20.087L17,16.048l12.917,4.039L17,24.931z
		 M12,7.443l14,5.25v4.074l-8.702-2.722c-0.195-0.06-0.403-0.06-0.597,0L12,15.515V7.443z M2,21.443l14,5.25v18.778L2,39.346V21.443
		z M32,39.346l-14,6.125V26.693l14-5.25V39.346z M42,25.323l-8,3.201V20c0-0.022-0.006-0.042-0.008-0.064
		c-0.002-0.023-0.005-0.044-0.008-0.066c-0.031-0.237-0.145-0.451-0.323-0.61c-0.011-0.01-0.02-0.019-0.032-0.028
		c-0.021-0.017-0.038-0.038-0.06-0.053c-0.082-0.057-0.173-0.096-0.266-0.125c-0.002-0.001-0.004-0.003-0.006-0.003L28,17.392
		v-4.698l14-5.251V25.323z"/>
	<path fill="#010101" d="M27,8.004c1.103,0,2-0.898,2-2c0-1.107-0.897-2-2-2c-1.106,0-2,0.893-2,2C25,7.106,25.894,8.004,27,8.004z"
		/>
</g>
<g id="nyt_x5F_exporter_x5F_info" display="none">
</g>
</svg>
