<?xml version="1.0" encoding="utf-8"?>
<!-- Generator: Adobe Illustrator 17.0.0, SVG Export Plug-In . SVG Version: 6.00 Build 0)  -->
<!DOCTYPE svg PUBLIC "-//W3C//DTD SVG 1.1//EN" "http://www.w3.org/Graphics/SVG/1.1/DTD/svg11.dtd">
<svg version="1.1" id="Layer_1" xmlns="http://www.w3.org/2000/svg" xmlns:xlink="http://www.w3.org/1999/xlink" x="0px" y="0px"
	 width="48px" height="48px" viewBox="0 0 48 48" enable-background="new 0 0 48 48" xml:space="preserve">
<g>
	<path fill="#010101" d="M24,0C14.075,0,6,8.075,6,18v27c0,1.654,1.346,3,3,3h1c1.654,0,3-1.346,3-3c0-0.551,0.449-1,1-1
		s1,0.449,1,1c0,1.654,1.346,3,3,3h2c1.654,0,3-1.346,3-3c0-0.551,0.449-1,1-1s1,0.449,1,1c0,1.654,1.346,3,3,3h2
		c1.654,0,3-1.346,3-3c0-0.551,0.449-1,1-1s1,0.449,1,1c0,1.654,1.346,3,3,3h1c1.654,0,3-1.346,3-3V18C42,8.075,33.925,0,24,0z
		 M40,45c0,0.551-0.449,1-1,1h-1c-0.551,0-1-0.449-1-1c0-1.654-1.346-3-3-3s-3,1.346-3,3c0,0.551-0.449,1-1,1h-2
		c-0.551,0-1-0.449-1-1c0-1.654-1.346-3-3-3s-3,1.346-3,3c0,0.551-0.449,1-1,1h-2c-0.551,0-1-0.449-1-1c0-1.654-1.346-3-3-3
		s-3,1.346-3,3c0,0.551-0.449,1-1,1H9c-0.551,0-1-0.449-1-1V18C8,9.178,15.178,2,24,2s16,7.178,16,16V45z"/>
	<path fill="#010101" d="M30,14c-2.206,0-4,1.794-4,4v6c0,2.206,1.794,4,4,4s4-1.794,4-4v-6C34,15.794,32.206,14,30,14z M32,24
		c0,1.103-0.897,2-2,2s-2-0.897-2-2c1.105,0,2-0.895,2-2s-0.895-2-2-2v-2c0-1.103,0.897-2,2-2s2,0.897,2,2V24z"/>
	<path fill="#010101" d="M18,14c-2.206,0-4,1.794-4,4v6c0,2.206,1.794,4,4,4s4-1.794,4-4v-6C22,15.794,20.206,14,18,14z M20,24
		c0,1.103-0.897,2-2,2s-2-0.897-2-2c1.105,0,2-0.895,2-2s-0.895-2-2-2v-2c0-1.103,0.897-2,2-2s2,0.897,2,2V24z"/>
</g>
<g id="nyt_x5F_exporter_x5F_info" display="none">
</g>
</svg>
