<?xml version="1.0" encoding="utf-8"?>
<!-- Generator: Adobe Illustrator 17.0.0, SVG Export Plug-In . SVG Version: 6.00 Build 0)  -->
<!DOCTYPE svg PUBLIC "-//W3C//DTD SVG 1.1//EN" "http://www.w3.org/Graphics/SVG/1.1/DTD/svg11.dtd">
<svg version="1.1" id="Layer_1" xmlns="http://www.w3.org/2000/svg" xmlns:xlink="http://www.w3.org/1999/xlink" x="0px" y="0px"
	 width="48px" height="48px" viewBox="0 0 48 48" enable-background="new 0 0 48 48" xml:space="preserve">
<g>
	<path fill="#010101" d="M43.353,36.461L25.732,24l17.62-12.459c0.217-0.153,0.364-0.386,0.409-0.648
		c0.044-0.262-0.017-0.53-0.17-0.747C39.091,3.793,31.767,0,24,0C10.766,0,0,10.767,0,24c0,13.233,10.766,24,24,24
		c7.768,0,15.091-3.792,19.592-10.144c0.153-0.217,0.214-0.486,0.17-0.747C43.717,36.847,43.57,36.614,43.353,36.461z M24,46
		C11.869,46,2,36.131,2,24S11.869,2,24,2c6.786,0,13.203,3.159,17.362,8.499L23.423,23.184C23.158,23.371,23,23.675,23,24
		s0.158,0.629,0.423,0.816l17.939,12.687C37.204,42.842,30.786,46,24,46z"/>
	<path fill="#010101" d="M19,8c-2.757,0-5,2.243-5,5s2.243,5,5,5s5-2.243,5-5S21.757,8,19,8z M19,16c-1.654,0-3-1.346-3-3
		s1.346-3,3-3s3,1.346,3,3S20.654,16,19,16z"/>
</g>
<g id="nyt_x5F_exporter_x5F_info" display="none">
</g>
</svg>
