<?xml version="1.0" encoding="utf-8"?>
<!-- Generator: Adobe Illustrator 17.0.0, SVG Export Plug-In . SVG Version: 6.00 Build 0)  -->
<!DOCTYPE svg PUBLIC "-//W3C//DTD SVG 1.1//EN" "http://www.w3.org/Graphics/SVG/1.1/DTD/svg11.dtd">
<svg version="1.1" id="Layer_1" xmlns="http://www.w3.org/2000/svg" xmlns:xlink="http://www.w3.org/1999/xlink" x="0px" y="0px"
	 width="48px" height="48px" viewBox="0 0 48 48" enable-background="new 0 0 48 48" xml:space="preserve">
<g>
	<path fill="#010101" d="M45.383,0.077c-0.372-0.155-0.803-0.07-1.09,0.216C42.257,2.328,33.91,3.749,23.995,3.749
		c-9.911,0-18.253-1.421-20.288-3.456C3.42,0.006,2.99-0.079,2.617,0.076C2.244,0.231,2,0.596,2,1v23c0,13.506,17.548,24,22,24
		s22-10.494,22-24V1C46,0.596,45.756,0.231,45.383,0.077z M44,24c0,11.85-16.202,22-20,22S4,35.85,4,24V2.877
		c4.169,2.094,12.685,2.872,19.995,2.872c7.313,0,15.834-0.779,20.005-2.873V24z"/>
	<path fill="#010101" d="M20,13.996c0-0.552-0.448-1-1-1s-1,0.448-1,1c0,1.654-1.346,3-3,3s-3-1.346-3-3c0-0.552-0.448-1-1-1
		s-1,0.448-1,1c0,2.757,2.243,5,5,5S20,16.753,20,13.996z"/>
	<path fill="#010101" d="M33,18.996c2.757,0,5-2.243,5-5c0-0.552-0.448-1-1-1s-1,0.448-1,1c0,1.654-1.346,3-3,3s-3-1.346-3-3
		c0-0.552-0.448-1-1-1s-1,0.448-1,1C28,16.753,30.243,18.996,33,18.996z"/>
	<path fill="#010101" d="M15,35.996c0,0.552,0.448,1,1,1s1-0.448,1-1c0-3.86,3.14-7,7-7s7,3.14,7,7c0,0.552,0.448,1,1,1s1-0.448,1-1
		c0-4.962-4.038-9-9-9S15,31.034,15,35.996z"/>
</g>
<g id="nyt_x5F_exporter_x5F_info" display="none">
</g>
</svg>
