<?xml version="1.0" encoding="utf-8"?>
<!-- Generator: Adobe Illustrator 17.0.0, SVG Export Plug-In . SVG Version: 6.00 Build 0)  -->
<!DOCTYPE svg PUBLIC "-//W3C//DTD SVG 1.1//EN" "http://www.w3.org/Graphics/SVG/1.1/DTD/svg11.dtd">
<svg version="1.1" id="Layer_1" xmlns="http://www.w3.org/2000/svg" xmlns:xlink="http://www.w3.org/1999/xlink" x="0px" y="0px"
	 width="48px" height="48px" viewBox="0 0 48 48" enable-background="new 0 0 48 48" xml:space="preserve">
<g>
	<path fill="#010101" d="M22,0c-6.617,0-12,5.383-12,12c0,0.552,0.447,1,1,1s1-0.448,1-1c0-5.514,4.486-10,10-10s10,4.486,10,10
		s-4.486,10-10,10c-6.953,0-12,5.888-12,14v11c0,0.552,0.447,1,1,1h22c0.553,0,1-0.448,1-1V12C34,5.383,28.617,0,22,0z M32,46H12V36
		c0-7.065,4.112-12,10-12c4.169,0,7.849-2.137,10-5.373V46z"/>
	<path fill="#010101" d="M27,40H17c-0.553,0-1,0.448-1,1s0.447,1,1,1h10c0.553,0,1-0.448,1-1S27.553,40,27,40z"/>
</g>
<g id="nyt_x5F_exporter_x5F_info" display="none">
</g>
</svg>
