<?xml version="1.0" encoding="utf-8"?>
<!-- Generator: Adobe Illustrator 17.0.0, SVG Export Plug-In . SVG Version: 6.00 Build 0)  -->
<!DOCTYPE svg PUBLIC "-//W3C//DTD SVG 1.1//EN" "http://www.w3.org/Graphics/SVG/1.1/DTD/svg11.dtd">
<svg version="1.1" id="Layer_1" xmlns="http://www.w3.org/2000/svg" xmlns:xlink="http://www.w3.org/1999/xlink" x="0px" y="0px"
	 width="48px" height="48px" viewBox="0 0 48 48" enable-background="new 0 0 48 48" xml:space="preserve">
<path fill="#010101" d="M41,14h-9v-3c0-2.757-2.243-5-5-5h-6c-2.757,0-5,2.243-5,5v3H7c-3.859,0-7,3.14-7,7v20c0,3.86,3.141,7,7,7
	h34c3.859,0,7-3.14,7-7V21C48,17.14,44.859,14,41,14z M16,16h16v30H16V16z M14,46h-4V16h4V46z M34,16h4v30h-4V16z M18,11
	c0-1.654,1.346-3,3-3h6c1.654,0,3,1.346,3,3v3H18V11z M2,41V21c0-2.757,2.243-5,5-5h1v30H7C4.243,46,2,43.757,2,41z M46,41
	c0,2.757-2.243,5-5,5h-1V16h1c2.757,0,5,2.243,5,5V41z"/>
<g id="nyt_x5F_exporter_x5F_info" display="none">
</g>
</svg>
