<?xml version="1.0" encoding="utf-8"?>
<!-- Generator: Adobe Illustrator 17.0.0, SVG Export Plug-In . SVG Version: 6.00 Build 0)  -->
<!DOCTYPE svg PUBLIC "-//W3C//DTD SVG 1.1//EN" "http://www.w3.org/Graphics/SVG/1.1/DTD/svg11.dtd">
<svg version="1.1" id="Layer_1" xmlns="http://www.w3.org/2000/svg" xmlns:xlink="http://www.w3.org/1999/xlink" x="0px" y="0px"
	 width="48px" height="48px" viewBox="0 0 48 48" enable-background="new 0 0 48 48" xml:space="preserve">
<g>
	<path fill="#010101" d="M33,12h-5V2h2c0.553,0,1-0.448,1-1s-0.447-1-1-1H18c-0.553,0-1,0.448-1,1s0.447,1,1,1h2v10h-5
		c-2.757,0-5,2.243-5,5v24c0,2.757,2.243,5,5,5h1v1c0,0.552,0.447,1,1,1s1-0.448,1-1v-1h12v1c0,0.552,0.447,1,1,1s1-0.448,1-1v-1h1
		c2.757,0,5-2.243,5-5V17C38,14.243,35.757,12,33,12z M22,2h4v10h-4V2z M36,41c0,1.654-1.346,3-3,3H15c-1.654,0-3-1.346-3-3V17
		c0-1.654,1.346-3,3-3h18c1.654,0,3,1.346,3,3V41z"/>
	<path fill="#010101" d="M31,18H17c-0.553,0-1,0.448-1,1s0.447,1,1,1h1v1c0,0.552,0.447,1,1,1s1-0.448,1-1v-1h11
		c0.553,0,1-0.448,1-1S31.553,18,31,18z"/>
	<path fill="#010101" d="M31,30H17c-0.553,0-1,0.448-1,1v6c0,1.654,1.346,3,3,3h10c1.654,0,3-1.346,3-3v-6
		C32,30.448,31.553,30,31,30z M30,37c0,0.551-0.448,1-1,1H19c-0.552,0-1-0.449-1-1v-5h12V37z"/>
</g>
<g id="nyt_x5F_exporter_x5F_info" display="none">
</g>
</svg>
