<?xml version="1.0" encoding="utf-8"?>
<!-- Generator: Adobe Illustrator 17.0.0, SVG Export Plug-In . SVG Version: 6.00 Build 0)  -->
<!DOCTYPE svg PUBLIC "-//W3C//DTD SVG 1.1//EN" "http://www.w3.org/Graphics/SVG/1.1/DTD/svg11.dtd">
<svg version="1.1" id="Layer_1" xmlns="http://www.w3.org/2000/svg" xmlns:xlink="http://www.w3.org/1999/xlink" x="0px" y="0px"
	 width="48px" height="48px" viewBox="0 0 48 48" enable-background="new 0 0 48 48" xml:space="preserve">
<g>
	<path fill="#010101" d="M41,38h-7v-7c0-0.552-0.447-1-1-1h-7v-7v-8c0-0.552-0.447-1-1-1H10V7c0-0.552-0.447-1-1-1H1
		C0.447,6,0,6.448,0,7v16v8v16c0,0.552,0.447,1,1,1h16h24c0.553,0,1-0.448,1-1v-8C42,38.448,41.553,38,41,38z M17,30H2v-6h22v7v7h-6
		v-7C18,30.448,17.553,30,17,30z M2,8h6v7c0,0.552,0.447,1,1,1h15v6H2V8z M2,32h14v7v7H2V32z M40,46H18v-6h7c0.553,0,1-0.448,1-1v-7
		h6v7c0,0.552,0.447,1,1,1h7V46z"/>
	<path fill="#010101" d="M47,8h-7V1c0-0.552-0.447-1-1-1h-8c-0.553,0-1,0.448-1,1v16c0,0.552,0.447,1,1,1h7v7c0,0.552,0.447,1,1,1h8
		c0.553,0,1-0.448,1-1V9C48,8.448,47.553,8,47,8z M46,24h-6v-7c0-0.552-0.447-1-1-1h-7V2h6v7c0,0.552,0.447,1,1,1h7V24z"/>
</g>
<g id="nyt_x5F_exporter_x5F_info" display="none">
</g>
</svg>
