<?xml version="1.0" encoding="utf-8"?>
<!-- Generator: Adobe Illustrator 17.1.0, SVG Export Plug-In . SVG Version: 6.00 Build 0)  -->
<!DOCTYPE svg PUBLIC "-//W3C//DTD SVG 1.0//EN" "http://www.w3.org/TR/2001/REC-SVG-20010904/DTD/svg10.dtd">
<svg version="1.0" id="Layer_1" xmlns="http://www.w3.org/2000/svg" xmlns:xlink="http://www.w3.org/1999/xlink" x="0px" y="0px"
	 width="48px" height="48px" viewBox="0 0 48 48" enable-background="new 0 0 48 48" xml:space="preserve">
<g>
	<path d="M47,21c0.553,0,1-0.447,1-1v-9c0-0.553-0.447-1-1-1H1c-0.553,0-1,0.447-1,1v9c0,0.553,0.447,1,1,1c2.757,0,5,2.243,5,5
		s-2.243,5-5,5c-0.553,0-1,0.447-1,1v9c0,0.553,0.447,1,1,1h46c0.553,0,1-0.447,1-1v-9c0-0.553-0.447-1-1-1c-2.757,0-5-2.243-5-5
		S44.243,21,47,21z M40,26c0,3.521,2.612,6.442,6,6.929V40H2v-7.071C5.388,32.442,8,29.521,8,26s-2.612-6.442-6-6.929V12h44v7.071
		C42.612,19.558,40,22.479,40,26z"/>
	<rect x="36" y="13" width="2" height="2"/>
	<rect x="36" y="17" width="2" height="2"/>
	<rect x="36" y="21" width="2" height="2"/>
	<rect x="36" y="25" width="2" height="2"/>
	<rect x="36" y="29" width="2" height="2"/>
	<rect x="36" y="33" width="2" height="2"/>
	<rect x="36" y="37" width="2" height="2"/>
	<path d="M31,16H13c-0.553,0-1,0.447-1,1v18c0,0.553,0.447,1,1,1h18c0.553,0,1-0.447,1-1V17C32,16.447,31.553,16,31,16z M30,34H14
		V18h16V34z"/>
	<path d="M19,24h6c0.553,0,1-0.447,1-1c0-0.553-0.447-1-1-1h-6c-0.553,0-1,0.447-1,1C18,23.553,18.447,24,19,24z"/>
	<path d="M19,30h6c0.553,0,1-0.447,1-1c0-0.553-0.447-1-1-1h-6c-0.553,0-1,0.447-1,1C18,29.553,18.447,30,19,30z"/>
</g>
</svg>
