<?xml version="1.0" encoding="utf-8"?>
<!-- Generator: Adobe Illustrator 17.0.0, SVG Export Plug-In . SVG Version: 6.00 Build 0)  -->
<!DOCTYPE svg PUBLIC "-//W3C//DTD SVG 1.1//EN" "http://www.w3.org/Graphics/SVG/1.1/DTD/svg11.dtd">
<svg version="1.1" id="Layer_1" xmlns="http://www.w3.org/2000/svg" xmlns:xlink="http://www.w3.org/1999/xlink" x="0px" y="0px"
	 width="48px" height="48px" viewBox="0 0 48 48" enable-background="new 0 0 48 48" xml:space="preserve">
<g>
	<path fill="#010101" d="M35,0h-7c-0.553,0-1,0.448-1,1c0,1.654-1.346,3-3,3s-3-1.346-3-3c0-0.552-0.447-1-1-1h-7
		c-2.757,0-5,2.243-5,5v38c0,2.757,2.243,5,5,5h7c0.553,0,1-0.448,1-1c0-1.654,1.346-3,3-3s3,1.346,3,3c0,0.552,0.447,1,1,1h7
		c2.757,0,5-2.243,5-5V5C40,2.243,37.757,0,35,0z M38,43c0,1.654-1.346,3-3,3h-6.101c-0.464-2.279-2.484-4-4.899-4
		s-4.434,1.721-4.899,4H13c-1.654,0-3-1.346-3-3V5c0-1.654,1.346-3,3-3h6.101C19.565,4.279,21.585,6,24,6s4.435-1.721,4.899-4H35
		c1.654,0,3,1.346,3,3V43z"/>
	<path fill="#010101" d="M35,8H13c-0.553,0-1,0.448-1,1v30c0,0.552,0.447,1,1,1h22c0.553,0,1-0.448,1-1V9C36,8.448,35.553,8,35,8z
		 M14,16h20v16H14V16z M34,10v4H14v-4H34z M14,38v-4h20v4H14z"/>
	<path fill="#010101" d="M19,18c-0.553,0-1,0.448-1,1v10c0,0.552,0.447,1,1,1s1-0.448,1-1V19C20,18.448,19.553,18,19,18z"/>
</g>
<g id="nyt_x5F_exporter_x5F_info" display="none">
</g>
</svg>
