<?xml version="1.0" encoding="utf-8"?>
<!-- Generator: Adobe Illustrator 17.0.0, SVG Export Plug-In . SVG Version: 6.00 Build 0)  -->
<!DOCTYPE svg PUBLIC "-//W3C//DTD SVG 1.1//EN" "http://www.w3.org/Graphics/SVG/1.1/DTD/svg11.dtd">
<svg version="1.1" id="Layer_2" xmlns="http://www.w3.org/2000/svg" xmlns:xlink="http://www.w3.org/1999/xlink" x="0px" y="0px"
	 width="60px" height="60px" viewBox="0 0 60 60" enable-background="new 0 0 60 60" xml:space="preserve">
<g>
	<path fill="#010101" d="M43,42H15c-0.298,0-0.579,0.133-0.769,0.361c-0.191,0.229-0.269,0.53-0.213,0.823l3,16
		C17.106,59.657,17.519,60,18,60h22c0.481,0,0.895-0.343,0.982-0.815l3-16c0.056-0.293-0.022-0.595-0.213-0.823
		C43.579,42.133,43.298,42,43,42z"/>
	<path fill="#010101" d="M55,30h-3c0-0.917-0.112-1.665-0.298-2.288l2.005-2.005c0.391-0.391,0.391-1.023,0-1.414
		c-0.391-0.391-1.023-0.391-1.414,0l-1.635,1.635c-0.49-0.455-1.068-0.706-1.658-0.829V22c0-0.553-0.447-1-1-1s-1,0.447-1,1v3.124
		c-0.402,0.1-0.726,0.264-0.998,0.464l-1.295-1.295c-0.391-0.391-1.023-0.391-1.414,0c-0.391,0.391-0.391,1.023,0,1.414l1.572,1.572
		c-0.11,0.337-0.186,0.668-0.249,0.953C44.319,29.575,44.169,30,43,30h-5V16h5c0.553,0,1-0.447,1-1c0-0.553-0.447-1-1-1h-5.174
		c-0.223-1.356-0.69-2.815-1.497-4.118l3.447-4.252c0.349-0.429,0.282-1.059-0.146-1.406c-0.43-0.349-1.059-0.281-1.406,0.147
		l-3.167,3.907C33.854,7.101,32.207,6.255,30,6.056V1c0-0.553-0.447-1-1-1s-1,0.447-1,1v5.056c-2.323,0.21-4.02,1.141-5.237,2.413
		l-2.954-4.059c-0.323-0.445-0.951-0.543-1.398-0.22c-0.446,0.325-0.545,0.95-0.22,1.397l3.319,4.56C20.404,12.075,20,14.304,20,16
		v6h-3c-0.71,0-1-0.29-1-1l-0.002-4.054c-0.039-0.723-0.272-1.716-0.807-2.623l2.529-2.63c0.383-0.399,0.37-1.031-0.027-1.414
		c-0.398-0.383-1.03-0.37-1.414,0.027l-2.435,2.531c-0.503-0.354-1.115-0.616-1.844-0.745V9c0-0.553-0.447-1-1-1s-1,0.447-1,1v3.093
		c-0.728,0.129-1.34,0.391-1.843,0.746l-2.436-2.532c-0.383-0.397-1.016-0.41-1.414-0.027c-0.398,0.383-0.41,1.016-0.027,1.414
		l2.534,2.633C6.275,15.244,6.04,16.253,6,17v8c0,3.742,3.235,4.906,5,5h9v6h-5c-0.553,0-1,0.447-1,1c0,0.553,0.447,1,1,1h5v3h18v-3
		h8c3.532,0,6-1.644,6-4v-2h3c0.553,0,1-0.447,1-1C56,30.447,55.553,30,55,30z"/>
</g>
</svg>
