<?xml version="1.0" encoding="utf-8"?>
<!-- Generator: Adobe Illustrator 17.0.0, SVG Export Plug-In . SVG Version: 6.00 Build 0)  -->
<!DOCTYPE svg PUBLIC "-//W3C//DTD SVG 1.1//EN" "http://www.w3.org/Graphics/SVG/1.1/DTD/svg11.dtd">
<svg version="1.1" id="Layer_2" xmlns="http://www.w3.org/2000/svg" xmlns:xlink="http://www.w3.org/1999/xlink" x="0px" y="0px"
	 width="60px" height="60px" viewBox="0 0 60 60" enable-background="new 0 0 60 60" xml:space="preserve">
<path fill="#010101" d="M55.986,28.738C57.871,27.065,59,24.747,59,22.434c0-4.901-5.991-8.565-11.348-8.565
	c-1.167,0-2.655,0.565-4.491,1.708c1.145-1.835,1.709-3.324,1.709-4.491C44.87,5.843,41.352,0,36.305,0
	C33.884,0,31.609,1.016,30,2.768C28.392,1.015,26.117,0,23.696,0c-5.048,0-8.565,5.843-8.565,11.086
	c0,1.167,0.564,2.656,1.709,4.491c-1.836-1.143-3.324-1.708-4.491-1.708C6.991,13.869,1,17.532,1,22.434
	c0,2.312,1.129,4.632,3.013,6.305C2.129,30.414,1,32.732,1,35.043c0,4.901,5.991,8.564,11.349,8.564
	c4.237,0,13.141-4.226,16.651-5.977V55c0,2.757,2.243,5,5,5h4c0.553,0,1-0.447,1-1c0-0.553-0.447-1-1-1h-4c-1.654,0-3-1.346-3-3
	V37.63c3.511,1.751,12.415,5.977,16.652,5.977c5.356,0,11.348-3.663,11.348-8.564C59,32.731,57.871,30.413,55.986,28.738z"/>
</svg>
