<?xml version="1.0" encoding="utf-8"?>
<!-- Generator: Adobe Illustrator 17.0.0, SVG Export Plug-In . SVG Version: 6.00 Build 0)  -->
<!DOCTYPE svg PUBLIC "-//W3C//DTD SVG 1.1//EN" "http://www.w3.org/Graphics/SVG/1.1/DTD/svg11.dtd">
<svg version="1.1" id="Layer_2" xmlns="http://www.w3.org/2000/svg" xmlns:xlink="http://www.w3.org/1999/xlink" x="0px" y="0px"
	 width="60px" height="60px" viewBox="0 0 60 60" enable-background="new 0 0 60 60" xml:space="preserve">
<path fill="#010101" d="M59.141,25.589c0-6.617-5.383-12-12-12c-1.934,0-3.831,0.471-5.527,1.352
	c0.272-2.328-0.145-4.686-1.233-6.822c-1.455-2.856-3.936-4.975-6.984-5.965c-1.205-0.392-2.453-0.59-3.71-0.59
	c-5.213,0-9.798,3.333-11.411,8.295c-0.597,1.84-0.735,3.79-0.421,5.676c-1.555-0.714-3.243-1.085-4.983-1.085
	c-3.834,0-7.467,1.85-9.717,4.948c-1.885,2.593-2.646,5.765-2.145,8.93c0.502,3.166,2.206,5.947,4.8,7.833
	c1.576,1.144,3.37,1.875,5.265,2.156c-1.588,1.722-2.636,3.873-3.01,6.24c-0.502,3.167,0.26,6.339,2.146,8.933
	c2.25,3.098,5.883,4.947,9.717,4.947c2.544,0,4.979-0.793,7.045-2.293c1.563-1.137,2.821-2.633,3.676-4.345
	c2.092,3.729,6.047,6.106,10.45,6.106c1.258,0,2.508-0.199,3.714-0.592c6.292-2.044,9.748-8.827,7.705-15.122
	c-0.599-1.839-1.634-3.497-2.997-4.839C55.001,36.247,59.141,31.393,59.141,25.589z M30.141,41.589c-5.514,0-10-4.486-10-10
	c0-5.514,4.486-10,10-10s10,4.486,10,10C40.141,37.103,35.655,41.589,30.141,41.589z"/>
</svg>
