<?xml version="1.0" encoding="utf-8"?>
<!-- Generator: Adobe Illustrator 17.0.0, SVG Export Plug-In . SVG Version: 6.00 Build 0)  -->
<!DOCTYPE svg PUBLIC "-//W3C//DTD SVG 1.1//EN" "http://www.w3.org/Graphics/SVG/1.1/DTD/svg11.dtd">
<svg version="1.1" id="Layer_2" xmlns="http://www.w3.org/2000/svg" xmlns:xlink="http://www.w3.org/1999/xlink" x="0px" y="0px"
	 width="60px" height="60px" viewBox="0 0 60 60" enable-background="new 0 0 60 60" xml:space="preserve">
<g>
	<path fill="#010101" d="M11,36.012H1c-0.553,0-1,0.447-1,1v18c0,0.553,0.447,1,1,1h10c0.553,0,1-0.447,1-1v-18
		C12,36.459,11.552,36.012,11,36.012z"/>
	<path fill="#010101" d="M59.707,46.305c-2.962-2.964-5.024-3.071-8.051-2.204l-4.959,1.57c-0.119,1.028-0.494,1.98-1.113,2.726
		c-0.878,1.057-2.117,1.615-3.584,1.615h-1H28c-0.553,0-1-0.447-1-1c0-0.553,0.447-1,1-1h13h1c0.864,0,1.553-0.301,2.046-0.894
		c0.449-0.541,0.706-1.312,0.706-2.119c0-0.148-0.012-0.31-0.035-0.479c-0.511-1.396-1.764-2.519-3.711-2.521
		c-1.17,0.001-2.003,0.005-2.704,0.007c-1.37,0.008-2.266,0.011-4.291-0.008c-0.223-0.002-0.438-0.078-0.613-0.217
		c-3.149-2.501-6.642-3.769-10.378-3.769h-0.882c0.003,0.002,0.005,0.004,0.008,0.006c-0.049,0-0.096-0.006-0.145-0.006h-7h-1
		c-0.553,0-1,0.447-1,1v13.844c0,0.431,0.275,0.812,0.684,0.948c3.909,1.304,7.003,2.429,9.49,3.333
		c5.065,1.842,7.895,2.852,10.487,2.852c3.173,0,5.986-1.514,12.104-4.868c3.239-1.777,7.677-4.211,13.683-7.214
		c0.287-0.143,0.488-0.417,0.54-0.734C60.039,46.855,59.934,46.532,59.707,46.305z"/>
	<path fill="#010101" d="M23.019,36.012c4.091,0,7.906,1.342,11.348,3.989c1.778,0.015,2.642,0.01,3.926,0.006
		c0.892-0.004,1.986-0.009,3.726-0.009c0.683,0,1.29,0.128,1.828,0.343c7.214-3.376,12.236-10.685,12.236-19.163
		c0-5.319-1.987-10.173-5.238-13.896c-0.033-0.098-0.067-0.196-0.129-0.28c-0.811-1.097-2.279-2.26-3.844-3.275
		c-0.778-0.535-1.599-1.005-2.446-1.434C42.92,1.501,41.6,0.961,41.01,0.897c-0.02-0.002-0.04,0.004-0.06,0.003
		c-1.914-0.571-3.936-0.888-6.033-0.888c-11.672,0-21.167,9.495-21.167,21.167c0,5.774,2.33,11.01,6.092,14.833H23.019z
		 M26.427,13.397c0.751-0.151,1.406-0.228,1.946-0.228c0.822,0,1.167,0.18,1.249,0.264c0.031,0.213,0.13,0.412,0.283,0.565
		c0.713,0.712,1.693,1.072,2.917,1.072c1.036,0,2.109-0.249,3.055-0.469c0.688-0.16,1.337-0.311,1.754-0.311
		c0.498,0,0.92-0.366,0.99-0.858c0.25-1.754,0.526-4.86-0.434-5.967c-0.465-0.535-1.198-0.674-1.883-0.331
		c-0.355,0.178-0.7,0.272-0.999,0.272c-0.631,0-0.989-0.412-1.064-1.226c-0.097-1.036,3.401-2.558,6.669-3.269
		c1.131,0.301,5.991,2.744,7.916,4.936c-0.285,1.087-1.223,3.955-3.452,5.266c-0.435-0.082-0.884-0.123-1.341-0.123
		c-2.419,0-5.785,1.437-5.785,2.852c0,0.349,0.215,0.731,0.513,0.913c0.088,0.054,0.217,0.101,0.345,0.131
		c0.287,0.366,0.771,1.627,1.062,2.79c0.044,0.176,0.135,0.337,0.264,0.465c0.447,0.446,1.062,0.682,1.779,0.682
		c0.371,0,0.731-0.062,1.043-0.144c-0.049,0.996-1.593,2.602-2.495,3.54c-0.966,1.004-1.498,1.558-1.498,2.229
		c0,0.784,0.559,1.27,0.966,1.625c0.08,0.069,0.186,0.161,0.263,0.238c-0.016,0.019-0.036,0.039-0.059,0.062
		c-1.113,1.113-2.233,1.511-2.239,1.513c-0.408,0.136-0.684,0.518-0.684,0.948c0,2.201-1.377,3.339-4.094,3.384
		c-0.58-0.487-1.752-2.769-1.802-3.384c0-0.202,0.178-0.555,0.334-0.867c0.256-0.51,0.546-1.089,0.546-1.764
		c0-0.995-1.007-2.247-1.769-3.052c-0.203-3.308-2.829-3.308-3.715-3.308c-0.396,0-0.817,0.024-1.25,0.049
		c-0.42,0.023-0.853,0.049-1.285,0.049c-1.595,0-1.63-2.411-1.631-2.51C22.844,19.379,22.885,14.104,26.427,13.397z"/>
</g>
</svg>
