<?xml version="1.0" encoding="utf-8"?>
<!-- Generator: Adobe Illustrator 17.0.0, SVG Export Plug-In . SVG Version: 6.00 Build 0)  -->
<!DOCTYPE svg PUBLIC "-//W3C//DTD SVG 1.1//EN" "http://www.w3.org/Graphics/SVG/1.1/DTD/svg11.dtd">
<svg version="1.1" id="Layer_2" xmlns="http://www.w3.org/2000/svg" xmlns:xlink="http://www.w3.org/1999/xlink" x="0px" y="0px"
	 width="60px" height="60px" viewBox="0 0 60 60" enable-background="new 0 0 60 60" xml:space="preserve">
<g>
	<path fill="#010101" d="M21.996,28.109c1.477,0,3.405-0.547,5.163-2.74c2.909,4.619,3.957,7.807,3.975,7.861l1.431,4.635
		c0.119,0.387,0.46,0.664,0.863,0.701c0.031,0.003,0.062,0.004,0.092,0.004c0.369,0,0.712-0.204,0.886-0.536l2.25-4.292
		c0.017-0.031,0.94-1.723,2.818-3.786c1.503,2.018,3.257,2.52,4.619,2.52c0,0,0,0,0.001,0c1.904,0,3.957-1.012,5.632-2.775
		c3.16-3.332,4.323-12.444,2.184-17.105c-0.127-0.275-0.371-0.479-0.665-0.553c-0.289-0.071-0.604-0.012-0.847,0.171
		c-2.253,1.699-4.366,2.246-6.411,2.773c-1.807,0.467-3.675,0.95-5.541,2.193c-2.085,1.391-3.333,3.408-3.338,5.396
		c-0.002,0.707,0.162,1.59,0.688,2.534c-0.408,0.417-0.797,0.829-1.143,1.224c-0.752-1.458-1.773-3.247-3.097-5.25
		c1.556-1.22,2.547-2.662,2.931-4.32c0.822-3.552-1.354-6.787-2.723-8.398c-2.29-2.7-5.574-3.485-9.051-4.317
		c-3.135-0.75-6.376-1.525-9.066-3.8c-0.231-0.195-0.538-0.277-0.836-0.218c-0.297,0.058-0.552,0.246-0.693,0.514
		c-3.397,6.42-1.657,18.663,2.121,23.115C16.637,26.487,19.466,28.109,21.996,28.109z M19.401,9.949
		c0.19,0.176,0.383,0.353,0.569,0.529c0.235,0.222,0.472,0.445,0.7,0.667c0.272,0.264,0.535,0.527,0.798,0.79
		c0.257,0.257,0.519,0.516,0.767,0.772c0.13,0.134,0.251,0.266,0.379,0.399c6.085,6.383,9.388,12.247,10.918,15.474
		c0.003,0.006,0.008,0.011,0.011,0.017c0.15,0.301,0.442,0.509,0.779,0.547c0.352,0.045,0.683-0.103,0.897-0.372
		c0.057-0.071,0.125-0.15,0.184-0.223c0.155-0.192,0.31-0.383,0.482-0.586c0.078-0.09,0.167-0.187,0.248-0.279
		c0.333-0.381,0.699-0.775,1.093-1.178c0.154-0.157,0.306-0.313,0.469-0.472c0.197-0.192,0.406-0.387,0.617-0.581
		c0.194-0.178,0.395-0.356,0.601-0.535c0.207-0.18,0.414-0.36,0.633-0.54c0.318-0.26,0.653-0.517,0.997-0.773
		c0.192-0.144,0.385-0.286,0.585-0.428c0.419-0.295,0.853-0.585,1.307-0.867c0.181-0.112,0.372-0.22,0.559-0.33
		c0.221-0.13,0.455-0.253,0.684-0.378l0.886,1.77c-0.076,0.042-0.145,0.088-0.22,0.13c-0.193,0.11-0.38,0.223-0.568,0.336
		c-0.215,0.13-0.429,0.26-0.636,0.394c-0.182,0.118-0.357,0.236-0.533,0.356c-0.198,0.136-0.394,0.272-0.584,0.41
		c-0.17,0.124-0.336,0.248-0.5,0.374c-0.181,0.139-0.359,0.276-0.532,0.416c-0.16,0.129-0.315,0.257-0.468,0.387
		c-0.164,0.138-0.323,0.276-0.479,0.415c-0.148,0.132-0.294,0.263-0.436,0.395c-0.146,0.136-0.289,0.271-0.428,0.406
		c-0.138,0.133-0.273,0.266-0.404,0.398c-0.13,0.131-0.254,0.26-0.377,0.39c-0.126,0.133-0.251,0.265-0.371,0.396
		c-0.114,0.125-0.222,0.247-0.33,0.369c-0.114,0.129-0.229,0.259-0.335,0.385c-0.099,0.117-0.191,0.229-0.284,0.342
		c-0.102,0.125-0.206,0.25-0.301,0.371c-0.084,0.106-0.161,0.206-0.239,0.309c-0.09,0.117-0.182,0.235-0.264,0.347
		c-0.072,0.098-0.136,0.187-0.203,0.279c-0.075,0.104-0.153,0.211-0.221,0.309c-0.059,0.084-0.108,0.158-0.162,0.237
		c-0.064,0.094-0.131,0.192-0.187,0.277c-0.042,0.063-0.074,0.116-0.111,0.174c-0.055,0.085-0.112,0.174-0.158,0.248
		c-0.022,0.036-0.038,0.062-0.058,0.095c-0.184,0.301-0.284,0.486-0.29,0.497l-1.126,2.147l-0.715-2.316
		c-0.027-0.087-2.287-7.194-9.721-15.783c-0.003-0.004-0.006-0.007-0.01-0.011c-0.263-0.304-0.532-0.609-0.809-0.916
		c-0.04-0.044-0.08-0.089-0.12-0.133c-0.241-0.267-0.487-0.534-0.738-0.803c-0.078-0.083-0.155-0.166-0.233-0.25
		c-0.221-0.234-0.447-0.469-0.675-0.705c-0.11-0.113-0.22-0.227-0.333-0.341c-0.205-0.21-0.416-0.419-0.628-0.629
		c-0.139-0.138-0.278-0.275-0.419-0.413c-0.195-0.189-0.393-0.379-0.593-0.569c-0.164-0.157-0.329-0.313-0.497-0.47
		c-0.067-0.063-0.131-0.125-0.199-0.189L19.401,9.949z"/>
	<path fill="#010101" d="M11,36.012H1c-0.553,0-1,0.447-1,1v18c0,0.553,0.447,1,1,1h10c0.553,0,1-0.447,1-1v-18
		C12,36.459,11.552,36.012,11,36.012z"/>
	<path fill="#010101" d="M59.707,46.305c-2.962-2.964-5.024-3.071-8.051-2.204l-4.958,1.57c-0.119,1.027-0.495,1.98-1.114,2.726
		c-0.878,1.057-2.117,1.615-3.584,1.615h-1H28c-0.553,0-1-0.447-1-1s0.447-1,1-1h13h1c0.864,0,1.553-0.301,2.046-0.894
		c0.449-0.541,0.707-1.312,0.707-2.119c0-0.147-0.012-0.308-0.034-0.476c-0.51-1.397-1.764-2.522-3.713-2.524
		c-1.17,0.001-2.003,0.005-2.705,0.007c-0.852,0.005-1.521,0.008-2.393,0.005c-0.714,0.001-1.463-0.001-2.56-0.01
		c-3.441-2.647-7.257-3.989-11.348-3.989h-8c-0.553,0-1,0.447-1,1v13.844c0,0.431,0.275,0.812,0.684,0.948
		c3.909,1.304,7.003,2.429,9.49,3.333c5.066,1.842,7.896,2.852,10.487,2.852c3.173,0,5.986-1.514,12.104-4.868
		c3.239-1.777,7.677-4.211,13.683-7.214c0.287-0.144,0.488-0.417,0.54-0.734C60.039,46.855,59.934,46.532,59.707,46.305z"/>
</g>
</svg>
