<?xml version="1.0" encoding="utf-8"?>
<!-- Generator: Adobe Illustrator 17.0.0, SVG Export Plug-In . SVG Version: 6.00 Build 0)  -->
<!DOCTYPE svg PUBLIC "-//W3C//DTD SVG 1.1//EN" "http://www.w3.org/Graphics/SVG/1.1/DTD/svg11.dtd">
<svg version="1.1" id="Layer_2" xmlns="http://www.w3.org/2000/svg" xmlns:xlink="http://www.w3.org/1999/xlink" x="0px" y="0px"
	 width="60px" height="60px" viewBox="0 0 60 60" enable-background="new 0 0 60 60" xml:space="preserve">
<path fill="#010101" d="M58.415,1.587c-0.214-0.216-0.516-0.321-0.816-0.288c-0.105,0.012-10.659,1.19-22.179,4.718
	C19.795,10.8,9.906,17.399,6.029,25.629c-3.036,6.443-2.237,13.754,2.343,21.757l-6.786,6.786c-0.391,0.391-0.391,1.023,0,1.414
	l2.828,2.828c0.195,0.195,0.451,0.293,0.707,0.293c0.256,0,0.512-0.098,0.707-0.293l6.811-6.811
	c4.719,2.623,9.223,3.963,13.415,3.963c11.027,0,20.177-9.267,26.459-26.799c4.669-13.028,6.174-26.232,6.188-26.364
	C58.734,2.102,58.629,1.802,58.415,1.587z M41.707,23.293h-3.586l-8,8h7.586c0.553,0,1,0.447,1,1c0,0.553-0.447,1-1,1h-9.586l-8,8
	h9.586c0.553,0,1,0.447,1,1c0,0.553-0.447,1-1,1H18.121l-13,13l-1.414-1.414l13-13V30.293c0-0.553,0.447-1,1-1s1,0.447,1,1v9.586
	l8-8v-9.586c0-0.553,0.447-1,1-1s1,0.447,1,1v7.586l8-8v-3.586c0-0.553,0.447-1,1-1s1,0.447,1,1v3h3c0.553,0,1,0.447,1,1
	C42.707,22.846,42.26,23.293,41.707,23.293z"/>
</svg>
