<?xml version="1.0" encoding="utf-8"?>
<!-- Generator: Adobe Illustrator 17.0.0, SVG Export Plug-In . SVG Version: 6.00 Build 0)  -->
<!DOCTYPE svg PUBLIC "-//W3C//DTD SVG 1.1//EN" "http://www.w3.org/Graphics/SVG/1.1/DTD/svg11.dtd">
<svg version="1.1" id="Layer_2" xmlns="http://www.w3.org/2000/svg" xmlns:xlink="http://www.w3.org/1999/xlink" x="0px" y="0px"
	 width="60px" height="60px" viewBox="0 0 60 60" enable-background="new 0 0 60 60" xml:space="preserve">
<g>
	<path fill="#010101" d="M29.491,30.652c2.115,1.684,4.016,2.582,5.516,2.582c2.441,0,3.533-2.43,4.021-4.467
		c1.132-4.728-2.903-14.061-7.656-18.202c-1.524,2.965-3.653,5.001-5.557,6.822c-2.229,2.133-4.154,3.976-4.842,6.846
		c-0.388,1.622-0.641,3.823,0.359,5.092c0.95,1.202,3.085,1.492,6.166,0.874c0.06-4.907,0.729-9.673,2.657-12.732
		c0.294-0.466,0.91-0.607,1.379-0.312c0.467,0.294,0.607,0.911,0.312,1.379C30.078,21.339,29.502,25.913,29.491,30.652z"/>
	<path fill="#010101" d="M30,0C17.317,0,7,10.317,7,23c0,9.653,5.998,18.229,15,21.563V47c0,0.553,0.447,1,1,1h6.21
		c-0.455-2.425-1.575-9.025-1.708-15.774c-1.017,0.186-1.973,0.301-2.812,0.301c-2.243,0-3.901-0.66-4.929-1.963
		c-1.202-1.523-1.449-3.81-0.735-6.796c0.825-3.442,3.05-5.571,5.404-7.825c2.104-2.012,4.277-4.093,5.648-7.332
		c0.118-0.278,0.355-0.489,0.646-0.572c0.295-0.082,0.605-0.029,0.851,0.146c5.884,4.161,10.801,15.177,9.396,21.049
		c-0.926,3.87-3.045,6.002-5.966,6.002c-1.637,0-3.473-0.701-5.472-2.063c0.238,6.6,1.36,12.969,1.713,14.829H37
		c0.553,0,1-0.447,1-1v-2.437C47.002,41.229,53,32.653,53,23C53,10.317,42.683,0,30,0z"/>
	<path fill="#010101" d="M37,50H23c-0.553,0-1,0.447-1,1c0,0.553,0.447,1,1,1h14c0.553,0,1-0.447,1-1C38,50.447,37.553,50,37,50z"/>
	<path fill="#010101" d="M37,54H23c-0.553,0-1,0.447-1,1c0,0.553,0.447,1,1,1h6v3c0,0.553,0.447,1,1,1c0.553,0,1-0.447,1-1v-3h6
		c0.553,0,1-0.447,1-1C38,54.447,37.553,54,37,54z"/>
</g>
</svg>
