<?xml version="1.0" encoding="utf-8"?>
<!-- Generator: Adobe Illustrator 17.0.0, SVG Export Plug-In . SVG Version: 6.00 Build 0)  -->
<!DOCTYPE svg PUBLIC "-//W3C//DTD SVG 1.1//EN" "http://www.w3.org/Graphics/SVG/1.1/DTD/svg11.dtd">
<svg version="1.1" id="Layer_2" xmlns="http://www.w3.org/2000/svg" xmlns:xlink="http://www.w3.org/1999/xlink" x="0px" y="0px"
	 width="60px" height="60px" viewBox="0 0 60 60" enable-background="new 0 0 60 60" xml:space="preserve">
<path fill="#010101" d="M52,14h-2.407c-0.881-1.519-3.633-5.596-7.95-5.972C40.649,6.085,36.98,0,30,0
	c-6.981,0-10.649,6.085-11.643,8.028c-4.318,0.376-7.069,4.452-7.95,5.972H8c-2.861,0-7,2.493-7,7c0,4.317,2.683,7,7,7h11.586
	L29,37.414V42H18c-0.328,0-0.635,0.161-0.822,0.431c-0.186,0.27-0.229,0.613-0.114,0.921l6,16C23.21,59.741,23.583,60,24,60h12
	c0.417,0,0.79-0.259,0.936-0.648l6-16c0.115-0.308,0.072-0.651-0.114-0.921C42.635,42.161,42.328,42,42,42H31v-4.586L40.414,28H52
	c4.317,0,7-2.683,7-7C59,16.493,54.861,14,52,14z M29,34.586L22.414,28H29V34.586z M31,34.586V28h6.586L31,34.586z"/>
</svg>
