<?xml version="1.0" encoding="utf-8"?>
<!-- Generator: Adobe Illustrator 17.0.0, SVG Export Plug-In . SVG Version: 6.00 Build 0)  -->
<!DOCTYPE svg PUBLIC "-//W3C//DTD SVG 1.1//EN" "http://www.w3.org/Graphics/SVG/1.1/DTD/svg11.dtd">
<svg version="1.1" xmlns="http://www.w3.org/2000/svg" xmlns:xlink="http://www.w3.org/1999/xlink" x="0px" y="0px" width="60px"
	 height="60px" viewBox="0 0 60 60" enable-background="new 0 0 60 60" xml:space="preserve">
<g id="Layer_1">
	<g>
		<path d="M57,46h-5V31c0-0.552-0.448-1-1-1H30V14h17c0.552,0,1-0.448,1-1V3c0-0.552-0.448-1-1-1H11c-0.552,0-1,0.448-1,1v10
			c0,0.552,0.448,1,1,1h17v16H7c-0.552,0-1,0.448-1,1v15H1c-0.552,0-1,0.448-1,1v12c0,0.552,0.448,1,1,1h12c0.552,0,1-0.448,1-1V47
			c0-0.552-0.448-1-1-1H8V32h20v14h-5c-0.552,0-1,0.448-1,1v12c0,0.552,0.448,1,1,1h12c0.552,0,1-0.448,1-1V47c0-0.552-0.448-1-1-1
			h-5V32h20v14h-5c-0.552,0-1,0.448-1,1v12c0,0.552,0.448,1,1,1h12c0.552,0,1-0.448,1-1V47C58,46.448,57.552,46,57,46z M12,12V4h34
			v8H30h-2H12z M12,48v10H2V48h4h2H12z M34,48v10H24V48h4h2H34z M56,58H46V48h4h2h4V58z"/>
	</g>
</g>
<g id="nyt_x5F_exporter_x5F_info" display="none">
</g>
</svg>
