<?xml version="1.0" encoding="utf-8"?>
<!-- Generator: Adobe Illustrator 17.0.0, SVG Export Plug-In . SVG Version: 6.00 Build 0)  -->
<!DOCTYPE svg PUBLIC "-//W3C//DTD SVG 1.1//EN" "http://www.w3.org/Graphics/SVG/1.1/DTD/svg11.dtd">
<svg version="1.1" xmlns="http://www.w3.org/2000/svg" xmlns:xlink="http://www.w3.org/1999/xlink" x="0px" y="0px" width="60px"
	 height="60px" viewBox="0 0 60 60" enable-background="new 0 0 60 60" xml:space="preserve">
<g id="Layer_1">
	<g>
		<path d="M57,46h-5.022c-0.12-3.363-1.479-6.562-3.913-9.098C45.031,33.741,40.743,32,35.989,32H30V14h5c0.552,0,1-0.448,1-1V1
			c0-0.552-0.448-1-1-1H23c-0.552,0-1,0.448-1,1v12c0,0.552,0.448,1,1,1h5v18h-6.011C13.08,32,6.537,37.832,6.038,46H1
			c-0.552,0-1,0.448-1,1v12c0,0.552,0.448,1,1,1h12c0.552,0,1-0.448,1-1V47c0-0.552-0.448-1-1-1H8.037
			c0.482-7.113,6.076-12,13.953-12H28v12h-5c-0.552,0-1,0.448-1,1v12c0,0.552,0.448,1,1,1h12c0.552,0,1-0.448,1-1V47
			c0-0.552-0.448-1-1-1h-5V34h5.989c4.204,0,7.979,1.523,10.633,4.287c2.071,2.158,3.238,4.868,3.358,7.713H45c-0.552,0-1,0.448-1,1
			v12c0,0.552,0.448,1,1,1h12c0.552,0,1-0.448,1-1V47C58,46.448,57.552,46,57,46z M24,2h10v10H24V2z M12,58H2V48h10V58z M34,58H24
			V48h10V58z M56,58H46V48h10V58z"/>
	</g>
</g>
<g id="nyt_x5F_exporter_x5F_info" display="none">
</g>
</svg>
