<?xml version="1.0" encoding="utf-8"?>
<!-- Generator: Adobe Illustrator 17.0.0, SVG Export Plug-In . SVG Version: 6.00 Build 0)  -->
<!DOCTYPE svg PUBLIC "-//W3C//DTD SVG 1.1//EN" "http://www.w3.org/Graphics/SVG/1.1/DTD/svg11.dtd">
<svg version="1.1" xmlns="http://www.w3.org/2000/svg" xmlns:xlink="http://www.w3.org/1999/xlink" x="0px" y="0px" width="60px"
	 height="60px" viewBox="0 0 60 60" enable-background="new 0 0 60 60" xml:space="preserve">
<g id="Layer_1">
	<g>
		<path d="M51.989,46.078c-0.101-3.391-1.461-6.62-3.913-9.175C45.042,33.741,40.754,32,36,32h-6V13.92c3.386-0.488,6-3.401,6-6.92
			c0-3.86-3.141-7-7-7c-3.859,0-7,3.14-7,7c0,3.52,2.614,6.432,6,6.92V32h-6c-8.936,0-15.491,5.867-15.955,14.073
			C2.637,46.541,0,49.465,0,53c0,3.86,3.141,7,7,7c3.859,0,7-3.14,7-7c0-3.504-2.592-6.407-5.957-6.914
			C8.486,38.927,14.091,34,22,34h6v12.08c-3.386,0.488-6,3.401-6,6.92c0,3.86,3.141,7,7,7c3.859,0,7-3.14,7-7
			c0-3.519-2.614-6.432-6-6.92V34h6c4.204,0,7.98,1.523,10.633,4.288c2.091,2.179,3.258,4.919,3.359,7.794
			C46.609,46.572,44,49.483,44,53c0,3.86,3.141,7,7,7c3.859,0,7-3.14,7-7C58,49.477,55.381,46.561,51.989,46.078z M24,7
			c0-2.757,2.243-5,5-5c2.757,0,5,2.243,5,5c0,2.757-2.243,5-5,5C26.243,12,24,9.757,24,7z M12,53c0,2.757-2.243,5-5,5
			c-2.757,0-5-2.243-5-5c0-2.757,2.243-5,5-5C9.757,48,12,50.243,12,53z M34,53c0,2.757-2.243,5-5,5c-2.757,0-5-2.243-5-5
			c0-2.757,2.243-5,5-5C31.757,48,34,50.243,34,53z M51,58c-2.757,0-5-2.243-5-5c0-2.757,2.243-5,5-5c2.757,0,5,2.243,5,5
			C56,55.757,53.757,58,51,58z"/>
	</g>
</g>
<g id="nyt_x5F_exporter_x5F_info" display="none">
</g>
</svg>
