<?xml version="1.0" encoding="utf-8"?>
<!-- Generator: Adobe Illustrator 17.0.0, SVG Export Plug-In . SVG Version: 6.00 Build 0)  -->
<!DOCTYPE svg PUBLIC "-//W3C//DTD SVG 1.1//EN" "http://www.w3.org/Graphics/SVG/1.1/DTD/svg11.dtd">
<svg version="1.1" xmlns="http://www.w3.org/2000/svg" xmlns:xlink="http://www.w3.org/1999/xlink" x="0px" y="0px" width="60px"
	 height="60px" viewBox="0 0 60 60" enable-background="new 0 0 60 60" xml:space="preserve">
<g id="Layer_1">
	<g>
		<path d="M59,34h-7v-5c0-0.552-0.448-1-1-1H34v-2h11c0.552,0,1-0.448,1-1V1c0-0.552-0.448-1-1-1H21c-0.552,0-1,0.448-1,1v24
			c0,0.552,0.448,1,1,1h11v2H9c-0.552,0-1,0.448-1,1v5H1c-0.552,0-1,0.448-1,1v24c0,0.552,0.448,1,1,1h24c0.552,0,1-0.448,1-1V35
			c0-0.552-0.448-1-1-1H10v-4h40v4H35c-0.552,0-1,0.448-1,1v24c0,0.552,0.448,1,1,1h24c0.552,0,1-0.448,1-1V35
			C60,34.448,59.552,34,59,34z M22,2h22v22H22V2z M24,58H2V36h22V58z M58,58H36V36h22V58z"/>
		<path d="M40,41c0,0.552,0.448,1,1,1h12c0.552,0,1-0.448,1-1c0-0.552-0.448-1-1-1H41C40.448,40,40,40.448,40,41z"/>
		<path d="M40,7c0-0.552-0.448-1-1-1H27c-0.552,0-1,0.448-1,1c0,0.552,0.448,1,1,1h12C39.552,8,40,7.552,40,7z"/>
		<path d="M6,41c0,0.552,0.448,1,1,1h12c0.552,0,1-0.448,1-1c0-0.552-0.448-1-1-1H7C6.448,40,6,40.448,6,41z"/>
	</g>
</g>
<g id="nyt_x5F_exporter_x5F_info" display="none">
</g>
</svg>
