<?xml version="1.0" encoding="utf-8"?>
<!-- Generator: Adobe Illustrator 17.0.0, SVG Export Plug-In . SVG Version: 6.00 Build 0)  -->
<!DOCTYPE svg PUBLIC "-//W3C//DTD SVG 1.1//EN" "http://www.w3.org/Graphics/SVG/1.1/DTD/svg11.dtd">
<svg version="1.1" xmlns="http://www.w3.org/2000/svg" xmlns:xlink="http://www.w3.org/1999/xlink" x="0px" y="0px" width="60px"
	 height="60px" viewBox="0 0 60 60" enable-background="new 0 0 60 60" xml:space="preserve">
<g id="Layer_1">
	<g>
		<path d="M59,40c0.553,0,1-0.448,1-1v-8c0-0.552-0.447-1-1-1H44v-5c0-2.57-2.43-5-5-5H21c-1.458,0-3-1.542-3-3v-7h17
			c0.553,0,1-0.448,1-1V1c0-0.552-0.447-1-1-1H1C0.447,0,0,0.448,0,1v8c0,0.552,0.447,1,1,1h15v7c0,2.57,2.43,5,5,5h18
			c1.458,0,3,1.542,3,3v5H25c-0.553,0-1,0.448-1,1v8c0,0.552,0.447,1,1,1h17v10H25c-0.553,0-1,0.448-1,1v8c0,0.552,0.447,1,1,1h34
			c0.553,0,1-0.448,1-1v-8c0-0.552-0.447-1-1-1H44V40H59z M2,2h32v6H2V2z M58,58H26v-6h32V58z M26,32h32v6H26V32z"/>
	</g>
</g>
<g id="nyt_x5F_exporter_x5F_info" display="none">
</g>
</svg>
