<?xml version="1.0" encoding="utf-8"?>
<!-- Generator: Adobe Illustrator 16.0.3, SVG Export Plug-In . SVG Version: 6.00 Build 0)  -->
<!DOCTYPE svg PUBLIC "-//W3C//DTD SVG 1.1//EN" "http://www.w3.org/Graphics/SVG/1.1/DTD/svg11.dtd">
<svg version="1.1" xmlns="http://www.w3.org/2000/svg" xmlns:xlink="http://www.w3.org/1999/xlink" x="0px" y="0px" width="24px"
	 height="24px" viewBox="0 0 24 24" enable-background="new 0 0 24 24" xml:space="preserve">
<g id="Outline_Icons">
	<path d="M19.139,7.165C19.044,7.06,18.909,7,18.768,7H15V5.595c0-0.282,0.058-0.605,0.512-0.605H18.5c0.276,0,0.5-0.224,0.5-0.5
		V0.548c0-0.275-0.223-0.499-0.499-0.5l-4.331-0.013C9.373,0.035,9,4.107,9,5.355V7H6.5C6.224,7,6,7.224,6,7.5v4
		C6,11.776,6.224,12,6.5,12H9v11.5C9,23.776,9.224,24,9.5,24h5c0.276,0,0.5-0.224,0.5-0.5V12h3.351c0.256,0,0.471-0.193,0.497-0.448
		l0.417-4C19.28,7.411,19.234,7.271,19.139,7.165z M17.9,11h-3.4c-0.276,0-0.5,0.224-0.5,0.5V23h-4V11.5c0-0.276-0.224-0.5-0.5-0.5
		H7V8h2.5C9.776,8,10,7.776,10,7.5V5.355c0-1.613,0.542-4.32,4.169-4.32L18,1.047V3.99h-2.488C14.814,3.99,14,4.411,14,5.595V7.5
		C14,7.776,14.224,8,14.5,8h3.713L17.9,11z"/>
</g>
</svg>
