<?xml version="1.0" ?>
<!DOCTYPE svg  PUBLIC '-//W3C//DTD SVG 1.1//EN'  'http://www.w3.org/Graphics/SVG/1.1/DTD/svg11.dtd'>
<svg enable-background="new 0 0 512 512" height="48px" id="Layer_1" version="1.1" viewBox="0 0 512 512" width="48px" xml:space="preserve" xmlns="http://www.w3.org/2000/svg" xmlns:xlink="http://www.w3.org/1999/xlink">
  <path d="M513,433c0,44.182-35.816,80-80,80H80.998c-44.183,0-80-35.818-80-80V81c0-44.183,35.817-80,80-80H433  c44.184,0,80,35.817,80,80V433z" fill="#4086CD"/>
  <path d="M513,433V213.579L416.999,117l-135.18,135.334l-67.613-67.613l-7.5,7.501  C196.556,185.78,184.259,182,170.999,182c-34.794,0-63,25.967-63,58c0,14.623,5.891,27.971,15.59,38.173l-6.637,6.637L345.142,513  H433C477.184,513,513,477.182,513,433z" fill="#22537C"/>
  <path d="M416.999,117L297.291,236.541l-43.047-40.62l-18.046,17.007c-0.846-2.353-2.486-3.613-4.746-3.96  c-10.649-24.883-35.499-42.334-64.453-42.334c-38.663,0-70,31.107-70,69.487c0,35.116,26.245,64.149,60.327,68.828L252.307,397  l104.888-102.071l-13.321-14.081l73.126-55.411V117z M396.54,215.833L252.429,356.735l-77.325-71.63  c-2.637,0.43-5.346,0.645-8.104,0.645c-27.612,0-50-22.217-50-49.629s22.388-49.634,50-49.634s50,22.222,50,49.634  c0,4.433-0.587,8.735-1.686,12.827l38.551,59.087l143.993-151.616L396.54,215.833z" fill="#FFFFFF"/>
</svg>
