<svg xmlns="http://www.w3.org/2000/svg" width="24" height="24"><defs><linearGradient id="a" x1="0%" y1="50%" y2="50%"><stop stop-color="#FFF" stop-opacity=".1" offset="0%"/><stop stop-color="#FFF" stop-opacity="0" offset="100%"/></linearGradient><linearGradient id="b" x1="-49.6146435%" x2="93.1791908%" y1="25.2403846%" y2="96.5%"><stop stop-color="#BF360C" stop-opacity=".2" offset="0%"/><stop stop-color="#BF360C" stop-opacity=".02" offset="100%"/></linearGradient><linearGradient id="c" x1="33.5322368%" x2="98.2203947%" y1="33.5730263%" y2="98.2611842%"><stop stop-color="#FFF" stop-opacity=".1" offset="0%"/><stop stop-color="#FFF" stop-opacity="0" offset="100%"/></linearGradient></defs><g fill="none"><path fill="url(#a)" d="M22.0591716 0h-4.3708087c-1.0571992 0-1.9250493.86842105-1.9250493 1.9263158v5.65263157H9.43589744c-1.02564103 0-1.86193294.8368421-1.86193294 1.87894737v6.33157896H1.87771203C.8362919 15.7894737 0 16.6263158 0 17.6684211v4.4210526C0 23.1315789.8362919 23.9684211 1.87771203 24H22.0749507C23.1321499 24 24 23.1315789 24 22.0736842V1.9263158C23.9842209.86842104 23.1163708 0 22.0591716 0z"/><path fill="url(#a)" d="M22.0591716 0h-4.3708087c-1.0571992 0-1.9250493.86842105-1.9250493 1.9263158v5.65263157H9.43589744c-1.02564103 0-1.86193294.8368421-1.86193294 1.87894737v6.33157896H1.87771203C.8362919 15.7894737 0 16.6263158 0 17.6684211v4.4210526C0 23.1315789.8362919 23.9684211 1.87771203 24H22.0749507C23.1321499 24 24 23.1315789 24 22.0736842V1.9263158C23.9842209.86842104 23.1163708 0 22.0591716 0z"/><path fill="#F57C00" d="M22.0736842 0h-4.3421053c-1.0578947 0-1.9263157.86842105-1.9263157 1.9263158V24h6.268421C23.1315789 24 24 23.1315789 24 22.0736842V1.9263158C24 .86842104 23.1315789 0 22.0736842 0z"/><path fill="#FFC107" d="M7.57894737 9.4736842v6.3157895H1.89473684C.85263158 15.7894737 0 16.6421053 0 17.6842105v4.4210527C0 23.1473684.85263158 24 1.89473684 24H15.7894737V7.57894737H9.4736842c-1.04210525 0-1.89473683.85263158-1.89473683 1.89473684z"/><path fill="url(#b)" d="M16 8v16h6.1194605C23.1522158 24 24 23.1538462 24 22.1230769V16l-8-8z"/><path fill="#FFF" d="M9.84615385 8.15384615H16V8H9.84615385C8.83076923 8 8 8.83076923 8 9.84615385V10c0-1.01538462.83076923-1.84615385 1.84615385-1.84615385zM2 16.1538462h6V16H2c-1.1 0-2 .8307692-2 1.8461538V18c0-1.0153846.9-1.8461538 2-1.8461538zM22.1194605 0h-4.238921C16.8477842 0 16 .83333333 16 1.84848485V2c0-1.0151515.8477842-1.84848485 1.8805395-1.84848485h4.238921C23.1522158.15151515 24 .9848485 24 2v-.15151515C24 .83333333 23.1522158 0 22.1194605 0z" opacity=".2"/><path fill="#BF360C" d="M22.0880207 23.8484848H1.89596744C.85318534 23.8484848 0 23.030303 0 22.030303v.1515152C0 23.1818182.85318535 24 1.89596744 24H22.072221c1.0585818 0 1.9275669-.8333333 1.9275669-1.8484848V22c.0157997 1.0151515-.8531854 1.8484848-1.9117672 1.8484848z" opacity=".2"/><path fill="url(#c)" d="M22.0736842 0h-4.3421053c-1.0578947 0-1.9263157.86842105-1.9263157 1.9263158v5.65263157H9.48947368c-1.04210526 0-1.89473684.85263158-1.89473684 1.89473684v6.3157895h-5.7C.85263158 15.7894737 0 16.6421053 0 17.6842105v4.4210527C0 23.1473684.85263158 24 1.89473684 24H22.0736842C23.1315789 24 24 23.1315789 24 22.0736842V1.9263158C24 .86842104 23.1315789 0 22.0736842 0z"/></g></svg>
