<?xml version="1.0" encoding="utf-8"?>
<!-- Generator: Adobe Illustrator 16.0.3, SVG Export Plug-In . SVG Version: 6.00 Build 0)  -->
<!DOCTYPE svg PUBLIC "-//W3C//DTD SVG 1.1//EN" "http://www.w3.org/Graphics/SVG/1.1/DTD/svg11.dtd">
<svg version="1.1" xmlns="http://www.w3.org/2000/svg" xmlns:xlink="http://www.w3.org/1999/xlink" x="0px" y="0px" width="24px"
	 height="24px" viewBox="0 0 24 24" enable-background="new 0 0 24 24" xml:space="preserve">
<g id="Outline_Icons">
	<g>
		<path d="M6.5,8h-5C1.224,8,1,8.224,1,8.5v13C1,21.776,1.224,22,1.5,22h5C6.776,22,7,21.776,7,21.5v-13C7,8.224,6.776,8,6.5,8z
			 M6,21H2V9h4V21z"/>
		<path d="M4.02,1.107c-1.737,0-3.047,1.252-3.047,2.912C0.973,5.69,2.285,7,3.961,7H3.99c1.738,0,3.048-1.266,3.048-2.958
			C6.999,2.341,5.73,1.107,4.02,1.107z M3.99,6H3.961C2.669,6,1.973,4.979,1.973,4.019c0-1.125,0.842-1.912,2.047-1.912
			c1.356,0,1.997,1.015,2.019,1.947C6.038,5.021,5.334,6,3.99,6z"/>
		<path d="M17.438,8.042c-1.506,0-2.699,0.525-3.438,0.969V8.5C14,8.224,13.776,8,13.5,8h-5C8.362,8,8.231,8.057,8.136,8.157
			C8.042,8.257,7.993,8.392,8.001,8.529C8.058,9.502,8,21.378,8,21.498c0,0.133,0.052,0.261,0.146,0.355S8.367,22,8.5,22h5
			c0.276,0,0.5-0.224,0.5-0.5v-7c0-0.827,0.673-1.5,1.5-1.5s1.5,0.673,1.5,1.5v7c0,0.276,0.224,0.5,0.5,0.5h5
			c0.276,0,0.5-0.224,0.5-0.5v-6.654C23,10.649,20.869,8.042,17.438,8.042z M22,21h-4v-6.5c0-1.378-1.122-2.5-2.5-2.5
			S13,13.122,13,14.5V21H9.002c0.009-2.076,0.042-9.785,0.01-12H13v0.985c0,0.199,0.118,0.379,0.301,0.458
			c0.182,0.079,0.394,0.043,0.54-0.093c0.014-0.013,1.429-1.309,3.598-1.309c2.856,0,4.562,2.17,4.562,5.804V21z"/>
	</g>
</g>
</svg>
