<?xml version="1.0" encoding="utf-8"?>
<!-- Generator: Adobe Illustrator 16.0.3, SVG Export Plug-In . SVG Version: 6.00 Build 0)  -->
<!DOCTYPE svg PUBLIC "-//W3C//DTD SVG 1.1//EN" "http://www.w3.org/Graphics/SVG/1.1/DTD/svg11.dtd">
<svg version="1.1" xmlns="http://www.w3.org/2000/svg" xmlns:xlink="http://www.w3.org/1999/xlink" x="0px" y="0px" width="24px"
	 height="24px" viewBox="0 0 24 24" enable-background="new 0 0 24 24" xml:space="preserve">
<g id="Outline_Icons">
	<g>
		<path d="M8.675,10.816h2.289c0.583,0,1.18-0.181,1.727-0.526c0.196-0.125,0.382-0.265,0.554-0.426
			c0.5-0.471,0.844-1.049,0.989-1.653c0.273-0.975-0.022-1.915-0.771-2.452c-0.383-0.276-0.851-0.422-1.354-0.422h-2.39
			c-0.232,0-0.435,0.161-0.487,0.387l-1.046,4.479c-0.035,0.149,0,0.306,0.095,0.424C8.378,10.747,8.522,10.816,8.675,10.816z
			 M10.118,6.337h1.993c0.292,0,0.557,0.081,0.77,0.234c0.404,0.29,0.55,0.802,0.387,1.388c-0.103,0.426-0.354,0.844-0.707,1.176
			c-0.126,0.118-0.264,0.221-0.405,0.311c-0.385,0.242-0.797,0.37-1.192,0.37H9.306L10.118,6.337z"/>
		<path d="M6.979,19.612L8.378,14h3.095c3.685,0,6.569-2.283,7.348-5.816c0.477-2.161-0.18-3.556-0.814-4.345
			C17.081,2.688,15.547,2,13.903,2H5.589C5.357,2,5.155,2.16,5.103,2.387L1.128,19.378c-0.035,0.148,0,0.304,0.095,0.424
			c0.095,0.12,0.239,0.189,0.392,0.189h4.879C6.723,19.991,6.923,19.835,6.979,19.612z M2.245,18.991L5.986,3h7.917
			c1.344,0,2.587,0.548,3.324,1.465c0.713,0.887,0.927,2.099,0.617,3.503C17.171,11.025,14.67,13,11.473,13H7.988
			c-0.229,0-0.43,0.156-0.485,0.379l-1.399,5.612H2.245z"/>
		<path d="M21.42,7.442c-0.135-0.24-0.44-0.327-0.681-0.19c-0.24,0.135-0.326,0.44-0.19,0.681c0.469,0.833,0.574,1.86,0.311,3.052
			c-0.66,2.997-3.106,4.965-6.235,5.012c-0.268,0.005-2.436,0.003-3.286,0.003h-0.313c-0.229,0-0.429,0.156-0.485,0.377L9.12,22.007
			H5.256l0.203-0.901c0.061-0.27-0.109-0.538-0.378-0.598c-0.273-0.062-0.537,0.108-0.598,0.377l-0.34,1.511
			c-0.033,0.149,0.002,0.304,0.097,0.422c0.095,0.119,0.239,0.188,0.391,0.188h4.878c0.229,0,0.429-0.155,0.485-0.377l1.421-5.628
			c0.903,0,2.97,0.002,3.228-0.004c3.606-0.054,6.43-2.33,7.194-5.796C22.15,9.781,22.006,8.482,21.42,7.442z"/>
	</g>
</g>
</svg>
