<?xml version="1.0" encoding="utf-8"?>
<!-- Generator: Adobe Illustrator 16.0.3, SVG Export Plug-In . SVG Version: 6.00 Build 0)  -->
<!DOCTYPE svg PUBLIC "-//W3C//DTD SVG 1.1//EN" "http://www.w3.org/Graphics/SVG/1.1/DTD/svg11.dtd">
<svg version="1.1" xmlns="http://www.w3.org/2000/svg" xmlns:xlink="http://www.w3.org/1999/xlink" x="0px" y="0px" width="24px"
	 height="24px" viewBox="0 0 24 24" enable-background="new 0 0 24 24" xml:space="preserve">
<g id="Outline_Icons">
	<path d="M12.137,0C5.914,0,2.195,4.451,2.195,8.752c0,2.682,1.127,4.74,3.016,5.51c0.576,0.238,1.179-0.067,1.334-0.664
		l0.271-1.062c0.144-0.541,0.015-0.824-0.293-1.188C6.009,10.744,5.77,10.023,5.77,9.082c0-2.825,2.104-5.828,6.005-5.828
		c3.083,0,4.997,1.748,4.997,4.562c0,3.658-1.621,6.524-3.689,6.524c-0.542,0-1.028-0.221-1.333-0.606
		c-0.287-0.362-0.381-0.832-0.265-1.323c0.142-0.596,0.331-1.208,0.515-1.803c0.342-1.107,0.666-2.153,0.666-3
		c0-1.485-0.917-2.483-2.282-2.483c-1.709,0-3.048,1.723-3.048,3.92c0,1.023,0.262,1.805,0.397,2.137L6.07,18.219
		c-0.435,1.843-0.222,4.016-0.049,5.202C6.067,23.757,6.348,24,6.689,24c0.212,0,0.408-0.096,0.571-0.306
		c0.699-0.894,1.944-2.663,2.438-4.455c0.104-0.374,0.451-1.741,0.691-2.689c0.752,0.651,1.867,1.071,2.983,1.071
		c4.42,0,7.628-4.018,7.628-9.553C21,4.103,17.685,0,12.137,0z M13.372,16.621c-1.291,0-2.43-0.701-2.785-1.379
		c-0.096-0.184-0.298-0.296-0.501-0.264C9.88,15.003,9.71,15.151,9.66,15.353c0,0-0.764,3.034-0.926,3.621
		c-0.28,1.016-0.925,2.259-1.824,3.518c-0.167-1.549-0.121-2.964,0.133-4.042l1.7-7.199c0.026-0.113,0.012-0.232-0.039-0.337
		c-0.003-0.008-0.37-0.768-0.37-1.868c0-1.638,0.899-2.92,2.048-2.92c1.157,0,1.282,1.037,1.282,1.483
		c0,0.695-0.302,1.671-0.621,2.706c-0.19,0.615-0.386,1.25-0.533,1.867c-0.188,0.795-0.026,1.566,0.454,2.174
		c0.496,0.627,1.268,0.985,2.118,0.985c2.673,0,4.689-3.234,4.689-7.524c0-3.379-2.354-5.562-5.997-5.562
		c-3.994,0-7.005,2.936-7.005,6.828c0,1.176,0.324,2.129,0.99,2.912c0.09,0.107,0.113,0.147,0.116,0.147c0,0,0,0,0-0.001
		c0,0.005,0,0.037-0.028,0.141l-0.259,1.055c-1.499-0.611-2.394-2.325-2.394-4.584C3.195,5.533,5.969,1,12.137,1
		C17.059,1,20,4.594,20,8.068C20,13.104,17.274,16.621,13.372,16.621z"/>
</g>
</svg>
