<?xml version="1.0" encoding="utf-8"?>
<!-- Generator: Adobe Illustrator 16.0.3, SVG Export Plug-In . SVG Version: 6.00 Build 0)  -->
<!DOCTYPE svg PUBLIC "-//W3C//DTD SVG 1.1//EN" "http://www.w3.org/Graphics/SVG/1.1/DTD/svg11.dtd">
<svg version="1.1" xmlns="http://www.w3.org/2000/svg" xmlns:xlink="http://www.w3.org/1999/xlink" x="0px" y="0px" width="24px"
	 height="24px" viewBox="0 0 24 24" enable-background="new 0 0 24 24" xml:space="preserve">
<g id="Outline_Icons">
	<path d="M23.79,4.512c-0.144-0.17-0.383-0.226-0.586-0.134c-0.346,0.153-0.653,0.23-0.939,0.235
		c0.323-0.382,0.452-0.797,0.624-1.348l0.088-0.282c0.063-0.198-0.003-0.414-0.165-0.543c-0.163-0.13-0.389-0.146-0.567-0.039
		c-0.771,0.457-1.6,0.789-2.468,0.988C18.843,2.503,17.591,2,16.298,2c-2.781,0-5.044,2.263-5.044,5.044
		c0,0.164,0.008,0.328,0.023,0.49C8.011,7.205,4.982,5.58,2.893,3.016c-0.104-0.127-0.27-0.191-0.427-0.183
		C2.302,2.847,2.155,2.938,2.073,3.08C1.626,3.849,1.39,4.726,1.39,5.617c0,1.045,0.321,2.044,0.898,2.876
		c-0.065-0.031-0.129-0.064-0.192-0.1C1.941,8.307,1.752,8.338,1.6,8.428c-0.153,0.09-0.247,0.283-0.247,0.46
		c0,1.626,0.786,3.109,2.024,4.039C3.26,12.943,3.151,13,3.071,13.091c-0.117,0.132-0.155,0.316-0.102,0.484
		c0.521,1.622,1.809,2.839,3.39,3.301c-1.594,0.922-3.458,1.305-5.338,1.086c-0.23-0.027-0.45,0.109-0.529,0.328
		c-0.079,0.22,0.005,0.464,0.201,0.59C2.858,20.268,5.36,21,7.929,21c8.405,0,13.428-6.828,13.428-13.429
		c0-0.112-0.001-0.224-0.003-0.335c0.114-0.08,0.23-0.159,0.347-0.239c0.78-0.533,1.587-1.084,2.123-1.885
		C23.947,4.927,23.933,4.682,23.79,4.512z M21.136,6.172c-0.199,0.135-0.395,0.27-0.583,0.406c-0.137,0.099-0.214,0.26-0.207,0.428
		c0.008,0.188,0.011,0.375,0.011,0.565C20.356,13.681,15.708,20,7.929,20c-1.707,0-3.382-0.35-4.933-1.022
		c1.827-0.176,3.541-0.86,5.003-2.006c0.167-0.13,0.233-0.352,0.166-0.552c-0.067-0.2-0.253-0.337-0.465-0.341
		c-1.46-0.027-2.769-0.834-3.46-2.075c0.467,0.003,0.937-0.054,1.39-0.176c0.224-0.062,0.376-0.268,0.368-0.5
		c-0.008-0.232-0.174-0.428-0.401-0.474C3.971,12.527,2.73,11.235,2.425,9.63c0.473,0.161,0.969,0.252,1.469,0.269
		c0.242,0.016,0.424-0.133,0.493-0.346S4.375,9.107,4.189,8.983C3.062,8.23,2.39,6.972,2.39,5.617c0-0.472,0.082-0.937,0.241-1.376
		c2.377,2.592,5.694,4.162,9.216,4.339c0.164,0.01,0.308-0.058,0.409-0.179c0.101-0.12,0.139-0.281,0.104-0.434
		c-0.069-0.298-0.104-0.609-0.104-0.923c0-2.23,1.814-4.044,4.044-4.044c1.114,0,2.189,0.466,2.952,1.278
		c0.119,0.125,0.293,0.182,0.461,0.149c0.646-0.128,1.273-0.32,1.876-0.575c-0.135,0.208-0.323,0.365-0.665,0.569
		c-0.157,0.094-0.25,0.267-0.243,0.45c0.007,0.183,0.114,0.347,0.278,0.428c0.332,0.164,0.658,0.262,0.989,0.299
		C21.686,5.796,21.409,5.986,21.136,6.172z"/>
</g>
</svg>
