<svg xmlns="http://www.w3.org/2000/svg" width="48" height="48" fill-rule="evenodd" stroke-width="28.22200012" version="1.2" viewBox="0 0 5644.4442 4057.0515" preserveAspectRatio="xMidYMid" clip-path="url(#a)" stroke-linejoin="round"><defs class="ClipPathGroup"><clipPath id="a"><path d="M0 0h20000v20000H0z"/></clipPath></defs><path fill="#6b0094" d="M2093.40806548-.00002826c1186.76825682 0 2093.40839748 878.14671708 2093.40839748 2028.18248808 0 1150.035771-906.64014066 2028.52578234-2093.40839748 2028.52578234S-.000332 3178.21823082-.000332 2028.18245982c0-1150.035771 906.64014066-2028.18248808 2093.40839748-2028.18248808zm-2093.40839748 0zm4187.16008922 4057.05156468z"/><path fill="#fff" d="M2003.46496936 1332.66828906c4.80611964-70.3753233 9.95553354-140.40735234 19.91106708-210.43938138H430.8339643v210.43938138c159.97512516 9.95553354 315.48742494 25.06048098 475.80584436 35.01601452 300.3824775 365.6083869 600.764955 731.2167738 906.2968464 1101.63128034v566.09223474c-170.27395296 15.10494744-340.54790592 25.06048098-510.82185888 40.16542842v185.03560614h1572.63100506v-185.03560614c-170.27395296-10.2988278-340.54790592-15.10494744-510.82185888-20.25436134 5.1494139-200.14055358 9.95553354-405.43052106 15.10494744-605.9143689 295.2330636-260.56034334 586.00330182-520.77739242 876.43024578-781.33773576 150.01959162-9.95553354 300.3824775-19.91106708 455.55148302-35.01601452v-245.4553959c-445.59594948 5.1494139-886.38577932 9.95553354-1331.9817288 19.91106708v205.63326174c165.12453906 9.95553354 330.59237238 14.76165318 495.71691144 19.91106708-215.24550102 185.3789004-430.8342963 365.6083869-646.07979732 550.9872873-220.39491492-270.51587688-440.78982984-545.8378734-661.18474476-816.35375028 145.21347198-15.10494744 290.42694396-25.06048098 435.9837102-35.01601452z" class="com.sun.star.drawing.ClosedBezierShape"/><path fill="#6b0094" d="M5644.44389092 200.82711384c-405.77381532-20.25436134-806.39821674-40.16542842-1207.02261816-60.41978976-20.25436134 956.76110262-40.16542842 1918.32832488-60.0764955 2875.0894275 190.18502004 19.91106708 385.51945398 39.82213416 575.70447402 60.0764955 230.35044846-961.56722226 461.04419118-1918.32832488 691.39463964-2874.74613324zM4322.0744014 4051.90212252h691.05134538V3476.1976485c-250.26151554-20.25436134-500.52303108-40.16542842-751.12784088-60.0764955 19.91106708 215.24550102 40.16542842 425.6848824 60.0764955 635.78096952z" class="com.sun.star.drawing.ClosedBezierShape"/></svg>
