<?xml version="1.0" encoding="UTF-8" standalone="no"?>
<svg
   xmlns:ooo="http://xml.openoffice.org/svg/export"
   xmlns:dc="http://purl.org/dc/elements/1.1/"
   xmlns:cc="http://creativecommons.org/ns#"
   xmlns:rdf="http://www.w3.org/1999/02/22-rdf-syntax-ns#"
   xmlns:svg="http://www.w3.org/2000/svg"
   xmlns="http://www.w3.org/2000/svg"
   xmlns:sodipodi="http://sodipodi.sourceforge.net/DTD/sodipodi-0.dtd"
   xmlns:inkscape="http://www.inkscape.org/namespaces/inkscape"
   version="1.2"
   width="48px"
   height="48px" 
   viewBox="0 0 5644.4442 4057.0515"
   preserveAspectRatio="xMidYMid"
   clip-path="url(#presentation_clip_path)"
   xml:space="preserve"
   id="svg2"
   inkscape:version="0.48.3.1 r9886"
   sodipodi:docname="Sem título 1.svg"
   style="fill-rule:evenodd;stroke-width:28.22200012;stroke-linejoin:round"><metadata
   id="metadata75"><rdf:RDF><cc:Work
       rdf:about=""><dc:format>image/svg+xml</dc:format><dc:type
         rdf:resource="http://purl.org/dc/dcmitype/StillImage" /></cc:Work></rdf:RDF></metadata><sodipodi:namedview
   pagecolor="#ffffff"
   bordercolor="#666666"
   borderopacity="1"
   objecttolerance="10"
   gridtolerance="10"
   guidetolerance="10"
   inkscape:pageopacity="0"
   inkscape:pageshadow="2"
   inkscape:window-width="1440"
   inkscape:window-height="876"
   id="namedview73"
   showgrid="false"
   fit-margin-top="0"
   fit-margin-left="0"
   fit-margin-right="0"
   fit-margin-bottom="0"
   inkscape:zoom="0.86711188"
   inkscape:cx="-18.482228"
   inkscape:cy="-95.951374"
   inkscape:window-x="0"
   inkscape:window-y="24"
   inkscape:window-maximized="1"
   inkscape:current-layer="svg2" />
 <defs class="ClipPathGroup" id="defs4">
  <clipPath id="presentation_clip_path" clipPathUnits="userSpaceOnUse">
   <rect x="0" y="0" width="20000" height="20000" id="rect7" />
  </clipPath>
</defs>
<defs class="TextShapeIndex" id="defs9">
  <g ooo:slide="id1" ooo:id-list="id3 id4 id5" id="g11" />
</defs>
<defs class="EmbeddedBulletChars" id="defs13">
  <g id="bullet-char-template(57356)" transform="scale(4.8828125e-4,-4.8828125e-4)">
    <path d="M 580,1141 1163,571 580,0 -4,571 580,1141 z" id="path16" inkscape:connector-curvature="0" />
  </g>
  <g id="bullet-char-template(57354)" transform="scale(4.8828125e-4,-4.8828125e-4)">
    <path d="m 8,1128 1129,0 L 1137,0 8,0 8,1128 z" id="path19" inkscape:connector-curvature="0" />
  </g>
  <g id="bullet-char-template(10146)" transform="scale(4.8828125e-4,-4.8828125e-4)">
    <path d="M 174,0 602,739 174,1481 1456,739 174,0 z m 1184,739 -1049,607 350,-607 699,0 z" id="path22" inkscape:connector-curvature="0" />
  </g>
  <g id="bullet-char-template(10132)" transform="scale(4.8828125e-4,-4.8828125e-4)">
    <path d="M 2015,739 1276,0 717,0 l 543,543 -1086,0 0,393 1086,0 -543,545 557,0 741,-742 z" id="path25" inkscape:connector-curvature="0" />
  </g>
  <g id="bullet-char-template(10007)" transform="scale(4.8828125e-4,-4.8828125e-4)">
    <path d="m 0,-2 c -7,16 -16,29 -25,39 l 381,530 c -94,256 -141,385 -141,387 0,25 13,38 40,38 9,0 21,-2 34,-5 21,4 42,12 65,25 l 27,-13 111,-251 280,301 64,-25 24,25 c 21,-10 41,-24 62,-43 C 886,937 835,863 770,784 769,783 710,716 594,584 L 774,223 c 0,-27 -21,-55 -63,-84 l 16,-20 C 717,90 699,76 672,76 641,76 570,178 457,381 L 164,-76 c -22,-34 -53,-51 -92,-51 -42,0 -63,17 -64,51 -7,9 -10,24 -10,44 0,9 1,19 2,30 z" id="path28" inkscape:connector-curvature="0" />
  </g>
  <g id="bullet-char-template(10004)" transform="scale(4.8828125e-4,-4.8828125e-4)">
    <path d="M 285,-33 C 182,-33 111,30 74,156 52,228 41,333 41,471 c 0,78 14,145 41,201 34,71 87,106 158,106 53,0 88,-31 106,-94 l 23,-176 c 8,-64 28,-97 59,-98 l 735,706 c 11,11 33,17 66,17 42,0 63,-15 63,-46 l 0,-122 c 0,-36 -10,-64 -30,-84 L 442,47 C 390,-6 338,-33 285,-33 z" id="path31" inkscape:connector-curvature="0" />
  </g>
  <g id="bullet-char-template(9679)" transform="scale(4.8828125e-4,-4.8828125e-4)">
    <path d="M 813,0 C 632,0 489,54 383,161 276,268 223,411 223,592 c 0,181 53,324 160,431 106,107 249,161 430,161 179,0 323,-54 432,-161 108,-107 162,-251 162,-431 0,-180 -54,-324 -162,-431 C 1136,54 992,0 813,0 z" id="path34" inkscape:connector-curvature="0" />
  </g>
  <g id="bullet-char-template(8226)" transform="scale(4.8828125e-4,-4.8828125e-4)">
    <path d="m 346,457 c -73,0 -137,26 -191,78 -54,51 -81,114 -81,188 0,73 27,136 81,188 54,52 118,78 191,78 73,0 134,-26 185,-79 51,-51 77,-114 77,-187 0,-75 -25,-137 -76,-188 -50,-52 -112,-78 -186,-78 z" id="path37" inkscape:connector-curvature="0" />
  </g>
  <g id="bullet-char-template(8211)" transform="scale(4.8828125e-4,-4.8828125e-4)">
    <path d="m -4,459 1139,0 0,147 -1139,0 0,-147 z" id="path40" inkscape:connector-curvature="0" />
  </g>
</defs>
<defs class="TextEmbeddedBitmaps" id="defs42" />
<g id="g44" transform="translate(-11027.183,-3706.8291)">
  <g id="id2" class="Master_Slide">
    <g id="bg-id2" class="Background" />
    <g id="bo-id2" class="BackgroundObjects" />
  </g>
</g>
<g id="g3970" transform="translate(-11027.183,-3706.8291)">
  <g transform="matrix(0.34329426,0,0,0.34329426,10409.253,2299.6659)" id="g3956">
    <path style="fill:#6b0094;stroke:none" inkscape:connector-curvature="0" id="path61" d="m 7898,4099 c 3457,0 6098,2558 6098,5908 0,3350 -2641,5909 -6098,5909 -3457,0 -6098,-2559 -6098,-5909 0,-3350 2641,-5908 6098,-5908 z m -6098,0 0,0 z m 12197,11818 0,0 z" />
    <g id="g63" class="com.sun.star.drawing.ClosedBezierShape">
      <g id="id4">
        <path style="fill:#ffffff;stroke:none" inkscape:connector-curvature="0" id="path66" d="m 7636,7981 c 14,-205 29,-409 58,-613 -1547,0 -3093,0 -4639,0 0,204 0,408 0,613 466,29 919,73 1386,102 875,1065 1750,2130 2640,3209 0,555 0,1094 0,1649 -496,44 -992,73 -1488,117 0,175 0,364 0,539 1532,0 3064,0 4581,0 0,-175 0,-364 0,-539 -496,-30 -992,-44 -1488,-59 15,-583 29,-1181 44,-1765 860,-759 1707,-1517 2553,-2276 437,-29 875,-58 1327,-102 0,-233 0,-481 0,-715 -1298,15 -2582,29 -3880,58 0,205 0,394 0,599 481,29 963,43 1444,58 -627,540 -1255,1065 -1882,1605 -642,-788 -1284,-1590 -1926,-2378 423,-44 846,-73 1270,-102 z" />
      </g>
    </g>
    <g id="g68" class="com.sun.star.drawing.ClosedBezierShape">
      <g id="id5">
        <path style="fill:#6b0094;stroke:none" inkscape:connector-curvature="0" id="path71" d="m 18242,4684 c -1182,-59 -2349,-117 -3516,-176 -59,2787 -117,5588 -175,8375 554,58 1123,116 1677,175 671,-2801 1343,-5588 2014,-8374 z m -3852,11218 c 671,0 1342,0 2013,0 0,-554 0,-1108 0,-1677 -729,-59 -1458,-117 -2188,-175 58,627 117,1240 175,1852 z" />
      </g>
    </g>
  </g>
</g>
</svg>
