<svg xmlns="http://www.w3.org/2000/svg" width="20" height="24"><path stroke="none" d="M8.657 12.148c.097.104.23.16.367.16.057 0 .115-.01.17-.03.19-.07.318-.243.33-.444L10.107.55c.008-.165-.066-.324-.2-.425-.13-.1-.305-.127-.462-.072L1.062 2.928c-.16.054-.28.187-.322.35-.042.164.003.338.118.462l7.8 8.408zm10.463-.298l-3.113-5.236c-.088-.147-.246-.24-.418-.244-.184-.007-.337.082-.43.226l-4.066 6.195c-.107.167-.11.377-.005.545.092.146.253.232.423.232.022 0 .044 0 .066-.005l7.176-.957c.167-.022.31-.127.384-.278.075-.15.066-.33-.02-.474zm-.655 5.703l-6.99-2.458c-.185-.066-.39-.016-.527.125-.136.14-.177.348-.105.53l2.655 6.736c.062.156.198.27.362.306.035.007.07.01.104.01.13 0 .257-.05.35-.144l4.337-4.278c.126-.12.177-.297.14-.466-.04-.166-.16-.304-.323-.36zm-9.137-1.91c-.183-.065-.39-.02-.527.12L3.73 20.93c-.118.12-.167.29-.132.454.035.164.15.3.307.362l5.675 2.218c.06.022.12.034.182.034.106 0 .21-.033.298-.098.14-.104.214-.27.2-.443l-.604-7.388c-.015-.196-.144-.364-.328-.43zm-1.045-1.306c-.014-.195-.14-.364-.324-.433l-6.787-2.527c-.158-.058-.333-.033-.47.064-.134.1-.21.26-.204.43l.283 6.087c.008.172.104.328.255.412.074.042.16.063.243.063.084 0 .166-.02.24-.06l6.5-3.56c.173-.092.274-.278.26-.473z"/></svg>
