<?xml version="1.0" ?><svg height="48px" id="Layer_1" version="1.1" viewBox="0 0 512 512" width="48px" xml:space="preserve" xmlns="http://www.w3.org/2000/svg" xmlns:cc="http://creativecommons.org/ns#" xmlns:dc="http://purl.org/dc/elements/1.1/" xmlns:inkscape="http://www.inkscape.org/namespaces/inkscape" xmlns:rdf="http://www.w3.org/1999/02/22-rdf-syntax-ns#" xmlns:sodipodi="http://sodipodi.sourceforge.net/DTD/sodipodi-0.dtd" xmlns:svg="http://www.w3.org/2000/svg"><defs id="defs12"/><g id="g3781" transform="translate(297.22034,0)"><rect height="512" id="rect2987" rx="64" ry="64" style="fill:#cf2200;fill-opacity:1;fill-rule:nonzero;stroke:none" width="512" x="-297.22034" y="5.6843419e-014"/><path d="m -144.16236,66.782475 c 21.00377,-16.51353 61.369651,-21.24114 77.983381,-18.01335 16.63221,3.20313 25.31981,12.49959 25.42001,23.82615 l 0.9634,144.381225 c 0.0693,11.34505 -5.81587,21.76369 -13.09614,23.16487 -7.31878,1.37498 -18.08889,-5.36577 -24.0142,-15.01524 L -152.66499,101.33095 c -5.86828,-9.669505 -17.71738,-13.925435 8.50263,-34.548475 z m -25.15333,274.556475 76.272361,-26.99075 c 10.6252,-3.775 20.14672,-14.26147 21.2134,-23.36835 1.02506,-9.10995 -6.69142,-19.92321 -17.17173,-24.06816 l -80.569921,-31.94958 c -10.49263,-4.14958 -22.58683,5.68485 -25.77454,21.77141 0,0 -1.92065,56.02083 0,67.61868 1.94068,11.59014 15.40368,20.76637 26.03043,16.98675 z m 133.042331,13.48458 c 0.21581,-11.37279 -5.84826,-21.18411 -13.48921,-21.88547 -7.65483,-0.70753 -19.79373,5.8128 -27.03545,14.48036 l -53.204591,63.79588 c -7.24173,8.6691 -3.64862,29.02854 6.91185,32.88678 l 55.630831,19.31589 c 10.58667,3.85979 29.24127,-7.54693 29.45553,-18.87966 l 1.73104,-89.71378 z M 95.972041,339.97168 29.261281,320.793 c -10.81633,-3.11064 -23.09551,-2.81624 -27.25279,0.70597 -4.16807,3.47289 -3.12297,14.47419 2.31372,24.39957 l 42.10771,77.05544 c 5.43669,9.91921 27.21272,8.21899 33.20741,-1.4058 0,0 25.376849,-37.43252 30.038189,-51.47511 4.67829,-14.06879 -2.89329,-26.99537 -13.703479,-30.10139 z M 112.21737,231.62641 c -3.00891,-9.75273 -23.860079,-38.48532 -35.158889,-48.27505 -11.28339,-9.82056 -24.19764,-8.59203 -31.47172,0.0309 l -42.98943,51.21613 c -7.28798,8.61669 -9.2379,22.29087 -4.37925,30.32027 4.85247,8.03865 17.80525,12.589 28.79115,10.12114 l 74.365589,-13.78516 c 13.41522,-3.22163 13.89769,-19.88468 10.84255,-29.62817 z" id="Yelp_3_" style="fill:#ffffff"/></g></svg>
