<?xml version="1.0" encoding="utf-8"?>
<!-- Generator: Adobe Illustrator 16.0.3, SVG Export Plug-In . SVG Version: 6.00 Build 0)  -->
<!DOCTYPE svg PUBLIC "-//W3C//DTD SVG 1.1//EN" "http://www.w3.org/Graphics/SVG/1.1/DTD/svg11.dtd">
<svg version="1.1" xmlns="http://www.w3.org/2000/svg" xmlns:xlink="http://www.w3.org/1999/xlink" x="0px" y="0px" width="24px"
	 height="24px" viewBox="0 0 24 24" enable-background="new 0 0 24 24" xml:space="preserve">
<g id="Outline_Icons">
	<g>
		<path d="M9.77,7.358c-0.154-0.1-0.349-0.104-0.51-0.018C9.1,7.429,9,7.598,9,7.779v8.662c0,0.182,0.1,0.351,0.26,0.438
			c0.075,0.041,0.158,0.062,0.24,0.062c0.094,0,0.188-0.027,0.27-0.079l6.769-4.331c0.144-0.092,0.23-0.25,0.23-0.421
			s-0.087-0.329-0.23-0.421L9.77,7.358z M10,15.528V8.692l5.341,3.418L10,15.528z"/>
		<path d="M20.062,4H3.938C1.767,4,0,5.768,0,7.939v9.121C0,19.232,1.767,21,3.938,21h16.125C22.233,21,24,19.232,24,17.061V7.939
			C24,5.768,22.233,4,20.062,4z M23,17.061C23,18.682,21.682,20,20.062,20H3.938C2.318,20,1,18.682,1,17.061V7.939
			C1,6.318,2.318,5,3.938,5h16.125C21.682,5,23,6.318,23,7.939V17.061z"/>
	</g>
</g>
</svg>
