<?xml version="1.0" encoding="UTF-8" standalone="no"?>
<svg width="20px" height="20px" viewBox="0 0 20 20" version="1.1" xmlns="http://www.w3.org/2000/svg" xmlns:xlink="http://www.w3.org/1999/xlink">
    <g stroke="none" stroke-width="1" fill-rule="evenodd">
        <path d="M19.823061,6.3397228 C19.5104689,3.66794456 18.4488352,3.29637275 16.3432616,3.15482159 C13.3470953,2.9483928 6.65290475,2.9483928 3.65673843,3.15482159 C1.55116485,3.29637275 0.489531112,3.66794456 0.176938956,6.3397228 C-0.058979652,8.3214391 -0.058979652,11.7127691 0.176938956,13.7003834 C0.489531112,16.3721616 1.55116485,16.7437334 3.65673843,16.8852846 C6.65880271,17.0917134 13.3470953,17.0917134 16.3432616,16.8852846 C18.4488352,16.7437334 19.5104689,16.3721616 19.823061,13.7003834 C20.0589797,11.7186671 20.0589797,8.32733707 19.823061,6.3397228 L19.823061,6.3397228 Z M8.00353878,12.8156886 L8.00353878,7.23621351 L13.3529932,10.025951 L8.00353878,12.8156886 L8.00353878,12.8156886 Z"></path>
    </g>
</svg>
