<?xml version="1.0" encoding="utf-8"?>
<!-- Generator: Adobe Illustrator 17.0.0, SVG Export Plug-In . SVG Version: 6.00 Build 0)  -->
<!DOCTYPE svg PUBLIC "-//W3C//DTD SVG 1.1//EN" "http://www.w3.org/Graphics/SVG/1.1/DTD/svg11.dtd">
<svg version="1.1" id="Layer_1" xmlns="http://www.w3.org/2000/svg" xmlns:xlink="http://www.w3.org/1999/xlink" x="0px" y="0px"
	 width="48px" height="48px" viewBox="0 0 48 48" enable-background="new 0 0 48 48" xml:space="preserve">
<g>
	<path fill="#010101" d="M38.697,32.035c0.602-1.972,0.303-4.115-0.846-5.868c-1.324-2.018-3.571-3.231-5.951-3.163
		C29.96,18.786,25.671,16,21,16c-5.899,0-10.956,4.4-11.853,10.159C3.879,27.042,0,31.568,0,37c0,6.065,4.935,11,11,11h22
		c4.962,0,9-4.038,9-9C42,36.289,40.778,33.739,38.697,32.035z M33,46H11c-4.962,0-9-4.038-9-9c0-4.668,3.5-8.518,8.141-8.955
		c0.481-0.046,0.861-0.429,0.902-0.91C11.484,22.012,15.857,18,21,18c4.163,0,7.823,2.516,9.324,6.411
		c0.165,0.428,0.599,0.693,1.056,0.632c1.945-0.241,3.751,0.624,4.798,2.22c0.94,1.435,1.089,3.158,0.407,4.727
		c-0.191,0.44-0.043,0.953,0.353,1.224C38.855,34.523,40,36.687,40,39C40,42.86,36.86,46,33,46z"/>
	<path fill="#010101" d="M44.701,16.036c0.655-2.126,0.265-4.404-1.1-6.229c-1.367-1.827-3.432-2.821-5.699-2.803
		C35.961,2.786,31.671,0,27,0c-5.901,0-10.956,4.4-11.851,10.159C9.879,11.042,6,15.568,6,21c0,0.552,0.448,1,1,1s1-0.448,1-1
		c0-4.668,3.5-8.518,8.142-8.956c0.482-0.045,0.861-0.429,0.903-0.91C17.484,6.012,21.857,2,27,2c4.164,0,7.824,2.516,9.326,6.411
		c0.165,0.428,0.6,0.689,1.056,0.632c1.805-0.223,3.531,0.51,4.617,1.962c1.091,1.459,1.312,3.322,0.589,4.985
		c-0.192,0.439-0.044,0.953,0.352,1.224C44.856,18.524,46,20.687,46,23c0,2.114-0.941,4.092-2.582,5.427
		c-0.429,0.349-0.494,0.979-0.145,1.407c0.197,0.243,0.485,0.369,0.776,0.369c0.222,0,0.446-0.073,0.631-0.224
		C46.79,28.263,48,25.719,48,23C48,20.29,46.78,17.74,44.701,16.036z"/>
</g>
</svg>
