<?xml version="1.0" encoding="utf-8"?>
<!-- Generator: Adobe Illustrator 17.0.0, SVG Export Plug-In . SVG Version: 6.00 Build 0)  -->
<!DOCTYPE svg PUBLIC "-//W3C//DTD SVG 1.1//EN" "http://www.w3.org/Graphics/SVG/1.1/DTD/svg11.dtd">
<svg version="1.1" id="Layer_1" xmlns="http://www.w3.org/2000/svg" xmlns:xlink="http://www.w3.org/1999/xlink" x="0px" y="0px"
	 width="48px" height="48px" viewBox="0 0 48 48" enable-background="new 0 0 48 48" xml:space="preserve">
<g>
	<path fill="#010101" d="M18.706,36.277c-0.392-0.39-1.024-0.389-1.414,0.002l-5,5.015c-0.285,0.286-0.37,0.716-0.216,1.089
		C12.231,42.757,12.596,43,13,43h2.576l-3.281,3.262c-0.392,0.389-0.394,1.022-0.004,1.414c0.195,0.197,0.452,0.295,0.709,0.295
		c0.255,0,0.51-0.097,0.705-0.291l5-4.971c0.287-0.285,0.374-0.715,0.22-1.09C18.769,41.244,18.405,41,18,41h-2.591l3.299-3.309
		C19.098,37.3,19.098,36.667,18.706,36.277z"/>
	<path fill="#010101" d="M28.706,36.277c-0.391-0.39-1.023-0.389-1.414,0.002l-5,5.015c-0.285,0.286-0.37,0.716-0.216,1.089
		C22.231,42.757,22.596,43,23,43h2.576l-3.281,3.262c-0.392,0.389-0.394,1.022-0.004,1.414c0.195,0.197,0.452,0.295,0.709,0.295
		c0.255,0,0.51-0.097,0.705-0.291l5-4.971c0.287-0.285,0.374-0.715,0.22-1.09C28.769,41.244,28.405,41,28,41h-2.591l3.299-3.309
		C29.098,37.3,29.098,36.667,28.706,36.277z"/>
	<path fill="#010101" d="M38.706,36.277c-0.392-0.39-1.024-0.389-1.414,0.002l-5,5.015c-0.285,0.286-0.37,0.716-0.216,1.089
		C32.231,42.757,32.596,43,33,43h2.576l-3.281,3.262c-0.392,0.389-0.394,1.022-0.004,1.414c0.195,0.197,0.452,0.295,0.709,0.295
		c0.255,0,0.51-0.097,0.705-0.291l5-4.971c0.287-0.285,0.374-0.715,0.22-1.09C38.769,41.244,38.405,41,38,41h-2.591l3.299-3.309
		C39.098,37.3,39.098,36.667,38.706,36.277z"/>
	<path fill="#010101" d="M44.698,16.035c0.601-1.973,0.302-4.116-0.848-5.869c-1.323-2.017-3.518-3.217-5.95-3.162
		C35.962,2.786,31.672,0,27,0c-5.899,0-10.956,4.4-11.853,10.159C9.879,11.042,6,15.568,6,21c0,6.065,4.935,11,11,11h22
		c4.963,0,9-4.038,9-9C48,20.289,46.778,17.739,44.698,16.035z M39,30H17c-4.963,0-9-4.038-9-9c0-4.668,3.5-8.518,8.141-8.955
		c0.481-0.046,0.861-0.429,0.902-0.91C17.484,6.012,21.857,2,27,2c4.164,0,7.824,2.516,9.323,6.41
		c0.166,0.429,0.611,0.693,1.057,0.633c1.95-0.241,3.75,0.624,4.798,2.22c0.94,1.434,1.09,3.157,0.408,4.727
		c-0.191,0.44-0.043,0.953,0.353,1.224C44.856,18.524,46,20.687,46,23C46,26.86,42.859,30,39,30z"/>
</g>
</svg>
