<?xml version="1.0" encoding="utf-8"?>
<!-- Generator: Adobe Illustrator 17.0.0, SVG Export Plug-In . SVG Version: 6.00 Build 0)  -->
<!DOCTYPE svg PUBLIC "-//W3C//DTD SVG 1.1//EN" "http://www.w3.org/Graphics/SVG/1.1/DTD/svg11.dtd">
<svg version="1.1" id="Layer_1" xmlns="http://www.w3.org/2000/svg" xmlns:xlink="http://www.w3.org/1999/xlink" x="0px" y="0px"
	 width="48px" height="48px" viewBox="0 0 48 48" enable-background="new 0 0 48 48" xml:space="preserve">
<path fill="#010101" d="M43.779,29.792c0.545-2.247,0.1-4.572-1.262-6.486c-1.501-2.108-3.926-3.366-6.488-3.366
	c-0.014,0-0.028,0-0.041,0c-2.007-4.814-6.732-7.999-11.988-7.999c-6.845,0-12.471,5.318-12.965,12.039
	C4.868,24.474,0,29.663,0,35.971C0,42.604,5.383,48,12,48h26c5.514,0,10-4.499,10-10.029C48,34.725,46.4,31.659,43.779,29.792z
	 M38,46H12C6.486,46,2,41.501,2,35.97c0-5.53,4.486-10.029,10-10.029c0.552,0,1-0.448,1-1c0-6.065,4.935-11,11-11
	c4.66,0,8.827,2.96,10.371,7.366c0.152,0.436,0.584,0.709,1.043,0.665c2.169-0.211,4.228,0.746,5.474,2.495
	c1.136,1.596,1.421,3.575,0.779,5.429c-0.155,0.447,0.025,0.942,0.431,1.185C44.505,32.523,46,35.163,46,37.971
	C46,42.398,42.411,46,38,46z"/>
</svg>
