<?xml version="1.0" encoding="utf-8"?>
<!-- Generator: Adobe Illustrator 17.0.0, SVG Export Plug-In . SVG Version: 6.00 Build 0)  -->
<!DOCTYPE svg PUBLIC "-//W3C//DTD SVG 1.1//EN" "http://www.w3.org/Graphics/SVG/1.1/DTD/svg11.dtd">
<svg version="1.1" id="Layer_1" xmlns="http://www.w3.org/2000/svg" xmlns:xlink="http://www.w3.org/1999/xlink" x="0px" y="0px"
	 width="48px" height="48px" viewBox="0 0 48 48" enable-background="new 0 0 48 48" xml:space="preserve">
<g>
	<path fill="#010101" d="M44.698,16.035c0.601-1.973,0.302-4.116-0.848-5.869c-1.322-2.017-3.53-3.217-5.95-3.162
		C35.962,2.786,31.672,0,27,0c-5.899,0-10.956,4.4-11.853,10.159C9.879,11.042,6,15.568,6,21c0,6.065,4.935,11,11,11h22
		c4.963,0,9-4.038,9-9C48,20.289,46.778,17.739,44.698,16.035z M39,30H17c-4.963,0-9-4.038-9-9c0-4.668,3.5-8.518,8.141-8.955
		c0.481-0.046,0.861-0.429,0.902-0.91C17.484,6.012,21.857,2,27,2c4.164,0,7.824,2.516,9.323,6.41
		c0.166,0.429,0.608,0.693,1.057,0.633c1.949-0.241,3.751,0.624,4.798,2.22c0.94,1.434,1.09,3.157,0.408,4.727
		c-0.191,0.44-0.043,0.953,0.353,1.224C44.856,18.524,46,20.687,46,23C46,26.86,42.859,30,39,30z"/>
	<path fill="#010101" d="M34.293,36.297l-7.778,7.778C26.349,44.031,26.179,44,26,44c-1.105,0-2,0.895-2,2s0.895,2,2,2s2-0.895,2-2
		c0-0.177-0.03-0.345-0.073-0.509l7.78-7.78c0.391-0.391,0.391-1.023,0-1.414C35.316,35.906,34.684,35.906,34.293,36.297z"/>
	<path fill="#010101" d="M25.707,37.711c0.391-0.391,0.391-1.023,0-1.414c-0.391-0.391-1.023-0.391-1.414,0l-5.778,5.778
		C18.349,42.031,18.179,42,18,42c-1.105,0-2,0.895-2,2s0.895,2,2,2s2-0.895,2-2c0-0.177-0.03-0.345-0.073-0.509L25.707,37.711z"/>
	<path fill="#010101" d="M15.707,36.297c-0.391-0.391-1.023-0.391-1.414,0l-7.778,7.778C6.349,44.031,6.179,44,6,44
		c-1.105,0-2,0.895-2,2s0.895,2,2,2s2-0.895,2-2c0-0.177-0.03-0.345-0.073-0.509l7.78-7.78
		C16.098,37.32,16.098,36.688,15.707,36.297z"/>
</g>
</svg>
