<?xml version="1.0" encoding="utf-8"?>
<!-- Generator: Adobe Illustrator 17.0.0, SVG Export Plug-In . SVG Version: 6.00 Build 0)  -->
<!DOCTYPE svg PUBLIC "-//W3C//DTD SVG 1.1//EN" "http://www.w3.org/Graphics/SVG/1.1/DTD/svg11.dtd">
<svg version="1.1" id="Layer_1" xmlns="http://www.w3.org/2000/svg" xmlns:xlink="http://www.w3.org/1999/xlink" x="0px" y="0px"
	 width="48px" height="48px" viewBox="0 0 48 48" enable-background="new 0 0 48 48" xml:space="preserve">
<g>
	<path fill="#010101" d="M38.698,31.984c0.601-1.972,0.303-4.115-0.847-5.868c-1.324-2.018-3.574-3.231-5.951-3.163
		c-1.94-4.218-6.229-7.004-10.9-7.004c-5.899,0-10.956,4.401-11.853,10.159C3.879,26.99,0,31.517,0,36.949c0,6.065,4.935,11,11,11
		h22c4.962,0,9-4.037,9-9C42,36.238,40.779,33.688,38.698,31.984z M33,45.949H11c-4.962,0-9-4.038-9-9
		c0-4.668,3.5-8.518,8.141-8.955c0.481-0.046,0.861-0.429,0.902-0.91c0.441-5.123,4.814-9.135,9.957-9.135
		c4.163,0,7.823,2.516,9.324,6.411c0.165,0.427,0.6,0.689,1.056,0.632c1.945-0.243,3.751,0.624,4.798,2.22
		c0.941,1.434,1.09,3.158,0.408,4.727c-0.191,0.44-0.043,0.953,0.353,1.224C38.855,34.472,40,36.635,40,38.949
		C40,42.809,36.86,45.949,33,45.949z"/>
	<path fill="#010101" d="M47.43,26.683C42.917,24.534,40,19.928,40,14.949c0-4.98,2.917-9.585,7.43-11.731
		C47.778,3.052,48,2.701,48,2.315c0-0.387-0.222-0.738-0.571-0.904C45.388,0.441,43.225-0.051,41-0.051
		c-7.069,0-13.083,4.821-14.624,11.723c-0.12,0.539,0.219,1.073,0.758,1.194c0.541,0.119,1.074-0.218,1.194-0.758
		C29.664,6.127,34.875,1.949,41,1.949c1.253,0,2.483,0.181,3.678,0.539C40.564,5.245,38,9.932,38,14.949
		c0,5.016,2.563,9.703,6.677,12.462c-0.288,0.085-0.577,0.161-0.869,0.226c-0.539,0.121-0.879,0.655-0.758,1.194
		c0.104,0.466,0.518,0.782,0.975,0.782c0.073,0,0.146-0.007,0.22-0.023c1.094-0.246,2.165-0.616,3.185-1.101
		c0.348-0.166,0.57-0.517,0.57-0.903S47.778,26.849,47.43,26.683z"/>
</g>
</svg>
