<?xml version="1.0" encoding="utf-8"?>
<!-- Generator: Adobe Illustrator 17.0.0, SVG Export Plug-In . SVG Version: 6.00 Build 0)  -->
<!DOCTYPE svg PUBLIC "-//W3C//DTD SVG 1.1//EN" "http://www.w3.org/Graphics/SVG/1.1/DTD/svg11.dtd">
<svg version="1.1" id="Layer_1" xmlns="http://www.w3.org/2000/svg" xmlns:xlink="http://www.w3.org/1999/xlink" x="0px" y="0px"
	 width="48px" height="48px" viewBox="0 0 48 48" enable-background="new 0 0 48 48" xml:space="preserve">
<g>
	<path fill="#010101" d="M17.707,36.234c-0.391-0.391-1.023-0.391-1.414,0l-10,10c-0.391,0.391-0.391,1.023,0,1.414
		C6.488,47.843,6.744,47.941,7,47.941s0.512-0.097,0.707-0.293l10-10C18.098,37.257,18.098,36.625,17.707,36.234z"/>
	<path fill="#010101" d="M27.707,36.234c-0.391-0.391-1.023-0.391-1.414,0l-10,10c-0.391,0.391-0.391,1.023,0,1.414
		c0.195,0.195,0.451,0.293,0.707,0.293s0.512-0.097,0.707-0.293l10-10C28.098,37.257,28.098,36.625,27.707,36.234z"/>
	<path fill="#010101" d="M36.293,36.234l-10,10c-0.391,0.391-0.391,1.023,0,1.414c0.195,0.195,0.451,0.293,0.707,0.293
		s0.512-0.097,0.707-0.293l10-10c0.391-0.391,0.391-1.023,0-1.414C37.316,35.843,36.684,35.843,36.293,36.234z"/>
	<path fill="#010101" d="M44.699,16.035c0.601-1.973,0.302-4.116-0.848-5.869c-1.324-2.017-3.564-3.216-5.95-3.162
		C35.961,2.786,31.672,0,27,0c-5.899,0-10.956,4.4-11.853,10.159C9.879,11.042,6,15.568,6,21c0,6.065,4.935,11,11,11h22
		c4.962,0,9-4.038,9-9C48,20.289,46.779,17.739,44.699,16.035z M39,30H17c-4.962,0-9-4.038-9-9c0-4.668,3.5-8.518,8.141-8.955
		c0.481-0.046,0.861-0.429,0.902-0.91C17.484,6.012,21.857,2,27,2c4.164,0,7.824,2.516,9.325,6.41
		c0.165,0.429,0.598,0.69,1.056,0.633c1.944-0.243,3.751,0.624,4.797,2.22c0.941,1.434,1.09,3.157,0.408,4.727
		c-0.19,0.44-0.042,0.953,0.354,1.224C44.856,18.524,46,20.687,46,23C46,26.86,42.86,30,39,30z"/>
</g>
</svg>
