<?xml version="1.0" encoding="utf-8"?>
<!-- Generator: Adobe Illustrator 17.0.0, SVG Export Plug-In . SVG Version: 6.00 Build 0)  -->
<!DOCTYPE svg PUBLIC "-//W3C//DTD SVG 1.1//EN" "http://www.w3.org/Graphics/SVG/1.1/DTD/svg11.dtd">
<svg version="1.1" id="Layer_1" xmlns="http://www.w3.org/2000/svg" xmlns:xlink="http://www.w3.org/1999/xlink" x="0px" y="0px"
	 width="48px" height="48px" viewBox="0 0 48 48" enable-background="new 0 0 48 48" xml:space="preserve">
<g>
	<path fill="#010101" d="M41.698,16.035c0.601-1.973,0.302-4.116-0.848-5.869c-1.323-2.017-3.511-3.217-5.95-3.162
		C32.962,2.786,28.672,0,24,0c-5.899,0-10.956,4.4-11.853,10.159C6.879,11.042,3,15.568,3,21c0,6.065,4.935,11,11,11h22
		c4.963,0,9-4.038,9-9C45,20.289,43.778,17.739,41.698,16.035z M36,30H14c-4.963,0-9-4.038-9-9c0-4.668,3.5-8.518,8.141-8.955
		c0.481-0.046,0.861-0.429,0.902-0.91C14.484,6.012,18.857,2,24,2c4.164,0,7.824,2.516,9.323,6.41
		c0.166,0.429,0.609,0.693,1.057,0.633c1.95-0.241,3.75,0.624,4.798,2.22c0.94,1.434,1.09,3.157,0.408,4.727
		c-0.191,0.44-0.043,0.953,0.353,1.224C41.856,18.524,43,20.687,43,23C43,26.86,39.859,30,36,30z"/>
	<circle fill="#010101" cx="24" cy="37" r="1"/>
	<circle fill="#010101" cx="36" cy="40" r="1"/>
	<circle fill="#010101" cx="36" cy="46" r="1"/>
	<circle fill="#010101" cx="24" cy="43" r="1"/>
	<circle fill="#010101" cx="32" cy="43" r="1"/>
	<circle fill="#010101" cx="28" cy="46" r="1"/>
	<circle fill="#010101" cx="32" cy="37" r="1"/>
	<circle fill="#010101" cx="28" cy="40" r="1"/>
	<circle fill="#010101" cx="20" cy="40" r="1"/>
	<circle fill="#010101" cx="20" cy="46" r="1"/>
	<circle fill="#010101" cx="16" cy="43" r="1"/>
	<circle fill="#010101" cx="12" cy="46" r="1"/>
	<circle fill="#010101" cx="16" cy="37" r="1"/>
	<circle fill="#010101" cx="12" cy="40" r="1"/>
</g>
</svg>
