<?xml version="1.0" encoding="utf-8"?>
<!-- Generator: Adobe Illustrator 17.0.0, SVG Export Plug-In . SVG Version: 6.00 Build 0)  -->
<!DOCTYPE svg PUBLIC "-//W3C//DTD SVG 1.1//EN" "http://www.w3.org/Graphics/SVG/1.1/DTD/svg11.dtd">
<svg version="1.1" id="Layer_1" xmlns="http://www.w3.org/2000/svg" xmlns:xlink="http://www.w3.org/1999/xlink" x="0px" y="0px"
	 width="48px" height="48px" viewBox="0 0 48 48" enable-background="new 0 0 48 48" xml:space="preserve">
<g>
	<path fill="#010101" d="M19,4c0.552,0,1-0.448,1-1V1c0-0.552-0.448-1-1-1s-1,0.448-1,1v2C18,3.552,18.448,4,19,4z"/>
	<path fill="#010101" d="M7.001,7.945c0.256,0,0.512-0.097,0.707-0.293c0.391-0.391,0.391-1.023,0-1.414l-2-2
		c-0.391-0.391-1.023-0.391-1.414,0c-0.391,0.391-0.391,1.023,0,1.414l2,2C6.489,7.847,6.745,7.945,7.001,7.945z"/>
	<path fill="#010101" d="M31.001,7.945c0.256,0,0.512-0.097,0.707-0.293l2-2c0.391-0.391,0.39-1.023,0-1.414
		c-0.39-0.391-1.023-0.391-1.414,0l-2,2c-0.391,0.391-0.391,1.023,0,1.414C30.489,7.847,30.745,7.945,31.001,7.945z"/>
	<path fill="#010101" d="M3,18H1c-0.552,0-1,0.448-1,1s0.448,1,1,1h2c0.552,0,1-0.448,1-1S3.552,18,3,18z"/>
	<path fill="#010101" d="M44.698,31.977c0.602-1.973,0.304-4.116-0.846-5.869c-1.324-2.018-3.563-3.226-5.951-3.163
		c-1.94-4.218-6.229-7.004-10.9-7.004c-5.9,0-10.956,4.401-11.853,10.159c-5.268,0.884-9.147,5.423-9.147,10.871
		c0,6.081,4.935,11.029,11,11.029h22c4.962,0,9-4.05,9-9.029C48.001,36.243,46.78,33.683,44.698,31.977z M39.001,46h-22
		c-4.962,0-9-4.05-9-9.029c0-4.608,3.576-8.555,8.141-8.985c0.481-0.046,0.861-0.429,0.902-0.91
		c0.441-5.123,4.814-9.135,9.957-9.135c4.163,0,7.823,2.517,9.324,6.412c0.164,0.428,0.602,0.693,1.056,0.632
		c1.944-0.243,3.751,0.624,4.798,2.22c0.94,1.435,1.089,3.158,0.407,4.727c-0.191,0.44-0.043,0.953,0.353,1.224
		c1.917,1.309,3.062,3.483,3.062,5.815C46.001,42.847,42.861,46,39.001,46z"/>
	<path fill="#010101" d="M7.669,23.86c0.111,0,0.223-0.019,0.331-0.058c0.521-0.184,0.794-0.755,0.61-1.276
		c-0.405-1.149-0.611-2.356-0.611-3.585c0-6.065,4.935-11,11-11c3.135,0,6.133,1.353,8.225,3.711
		c0.366,0.412,0.998,0.45,1.412,0.084c0.414-0.367,0.452-0.999,0.085-1.412C26.249,7.539,22.706,5.941,19,5.941
		c-7.168,0-13,5.832-13,13c0,1.457,0.245,2.887,0.726,4.251C6.871,23.603,7.257,23.86,7.669,23.86z"/>
</g>
</svg>
