<?xml version="1.0" encoding="utf-8"?>
<!-- Generator: Adobe Illustrator 17.0.0, SVG Export Plug-In . SVG Version: 6.00 Build 0)  -->
<!DOCTYPE svg PUBLIC "-//W3C//DTD SVG 1.1//EN" "http://www.w3.org/Graphics/SVG/1.1/DTD/svg11.dtd">
<svg version="1.1" id="Layer_1" xmlns="http://www.w3.org/2000/svg" xmlns:xlink="http://www.w3.org/1999/xlink" x="0px" y="0px"
	 width="48px" height="48px" viewBox="0 0 48 48" enable-background="new 0 0 48 48" xml:space="preserve">
<g>
	<path fill="#010101" d="M28,31.477V4.949c0-2.757-2.243-5-5-5s-5,2.243-5,5v26.528c-2.481,1.662-4,4.473-4,7.472
		c0,4.962,4.038,9,9,9s9-4.037,9-9C32,35.951,30.481,33.139,28,31.477z M23,45.949c-3.86,0-7-3.14-7-7
		c0-2.483,1.341-4.802,3.501-6.053C19.81,32.718,20,32.388,20,32.031V4.949c0-1.654,1.346-3,3-3s3,1.346,3,3v27.082
		c0,0.357,0.19,0.687,0.499,0.865c2.16,1.251,3.501,3.57,3.501,6.053C30,42.809,26.86,45.949,23,45.949z"/>
	<path fill="#010101" d="M24,36.133V14.949c0-0.552-0.448-1-1-1s-1,0.448-1,1v21.184c-1.161,0.414-2,1.514-2,2.816
		c0,1.654,1.346,3,3,3s3-1.345,3-3C26,37.647,25.161,36.547,24,36.133z M23,39.949c-0.551,0-1-0.449-1-1c0-0.551,0.449-1,1-1
		s1,0.449,1,1C24,39.5,23.551,39.949,23,39.949z"/>
</g>
</svg>
