<?xml version="1.0" encoding="utf-8"?>
<!-- Generator: Adobe Illustrator 17.0.0, SVG Export Plug-In . SVG Version: 6.00 Build 0)  -->
<!DOCTYPE svg PUBLIC "-//W3C//DTD SVG 1.1//EN" "http://www.w3.org/Graphics/SVG/1.1/DTD/svg11.dtd">
<svg version="1.1" id="Layer_1" xmlns="http://www.w3.org/2000/svg" xmlns:xlink="http://www.w3.org/1999/xlink" x="0px" y="0px"
	 width="48px" height="48px" viewBox="0 0 48 48" enable-background="new 0 0 48 48" xml:space="preserve">
<path fill="#010101" d="M27.09,45.944C19.138,42.093,14,33.48,14,24S19.138,5.907,27.089,2.058c0.401-0.193,0.625-0.627,0.551-1.066
	c-0.074-0.439-0.429-0.776-0.87-0.827C25.831,0.056,24.899,0,24,0C10.767,0,0,10.767,0,24s10.767,24,24,24
	c0.893,0,1.823-0.055,2.768-0.162c0.442-0.051,0.798-0.387,0.872-0.826C27.715,46.573,27.49,46.138,27.09,45.944z M2,24
	C2,12.14,11.434,2.442,23.191,2.015C16.3,6.731,12,15.01,12,24c0,8.988,4.299,17.267,11.189,21.985C11.432,45.558,2,35.86,2,24z"/>
</svg>
