<?xml version="1.0" encoding="utf-8"?>
<!-- Generator: Adobe Illustrator 17.0.0, SVG Export Plug-In . SVG Version: 6.00 Build 0)  -->
<!DOCTYPE svg PUBLIC "-//W3C//DTD SVG 1.1//EN" "http://www.w3.org/Graphics/SVG/1.1/DTD/svg11.dtd">
<svg version="1.1" id="Layer_1" xmlns="http://www.w3.org/2000/svg" xmlns:xlink="http://www.w3.org/1999/xlink" x="0px" y="0px"
	 width="48px" height="48px" viewBox="0 0 48 48" enable-background="new 0 0 48 48" xml:space="preserve">
<path fill="#010101" d="M29.151,0.731c-0.142-0.144-0.324-0.242-0.522-0.281C27.096,0.151,25.539,0,24,0C10.767,0,0,10.767,0,24
	s10.767,24,24,24c1.549,0,3.107-0.151,4.63-0.45c0.198-0.039,0.379-0.137,0.521-0.281C34.774,41.544,38,33.063,38,24
	C38,14.941,34.775,6.46,29.151,0.731z M27.94,45.645C26.641,45.88,25.317,46,24,46C11.869,46,2,36.131,2,24S11.869,2,24,2
	c1.309,0,2.632,0.12,3.941,0.356C33.066,7.71,36,15.579,36,24C36,32.425,33.066,40.294,27.94,45.645z"/>
</svg>
