<?xml version="1.0" encoding="utf-8"?>
<!-- Generator: Adobe Illustrator 17.0.0, SVG Export Plug-In . SVG Version: 6.00 Build 0)  -->
<!DOCTYPE svg PUBLIC "-//W3C//DTD SVG 1.1//EN" "http://www.w3.org/Graphics/SVG/1.1/DTD/svg11.dtd">
<svg version="1.1" id="Layer_1" xmlns="http://www.w3.org/2000/svg" xmlns:xlink="http://www.w3.org/1999/xlink" x="0px" y="0px"
	 width="48px" height="48px" viewBox="0 0 48 48" enable-background="new 0 0 48 48" xml:space="preserve">
<path fill="#010101" d="M24,0c-1.533,0-3.091,0.151-4.63,0.449c-0.199,0.039-0.381,0.137-0.523,0.282C13.225,6.461,10,14.942,10,24
	c0,9.063,3.225,17.544,8.847,23.269c0.141,0.144,0.324,0.242,0.522,0.281C20.897,47.849,22.456,48,24,48c13.233,0,24-10.767,24-24
	S37.233,0,24,0z M24,46c-1.314,0-2.638-0.12-3.942-0.355C14.933,40.293,12,32.425,12,24c0-8.42,2.933-16.289,8.058-21.644
	C21.371,2.12,22.695,2,24,2c12.131,0,22,9.869,22,22S36.131,46,24,46z"/>
</svg>
