<svg width="256" height="256" viewBox="0 0 256 256" fill="none" xmlns="http://www.w3.org/2000/svg">
<g clip-path="url(#clip0_1_2)">
<path d="M230.416 0H25.584C11.504 0.04 0.04 11.504 0 25.584V230.416C0.04 244.496 11.504 255.96 25.584 256H230.416C244.496 255.96 255.96 244.496 256 230.416V25.584C255.96 11.504 244.496 0.04 230.416 0Z" fill="white"/>
<path d="M230.416 0H25.584C11.504 0.04 0.04 11.504 0 25.584V230.416C0.04 244.496 11.504 255.96 25.584 256H230.416C244.496 255.96 255.96 244.496 256 230.416V25.584C255.96 11.504 244.496 0.04 230.416 0ZM75.168 154.288C86.456 159.456 99.792 154.456 104.96 143.16H122.672C111.632 188.368 45.088 180.368 45.088 133.824C45.088 87.24 111.632 79.24 122.672 124.488H104.96C98.456 110.2 79.672 106.776 68.584 117.904C57.456 128.984 60.872 147.784 75.168 154.288ZM196.168 163.288C192.792 166.208 189 168.456 184.832 170.04C172.872 174.664 159.376 173.168 148.704 165.96V170.04H132.576V57.288H148.576V101.12C154.288 97.248 160.912 94.952 167.784 94.408H170.656C207.072 94.328 223.824 139.656 196.16 163.28L196.168 163.288ZM193.792 133.792C194.04 146.376 183.92 156.752 171.336 156.752C158.752 156.752 148.624 146.376 148.92 133.792C149.544 104.544 193.128 104.544 193.792 133.792Z" fill="#146AFF"/>
</g>
<defs>
<clipPath id="clip0_1_2">
<rect width="256" height="256" fill="white"/>
</clipPath>
</defs>
</svg>
