<svg width="256" height="256" viewBox="0 0 256 256" fill="none" xmlns="http://www.w3.org/2000/svg">
<path d="M216.715 46.1751C200.398 38.6883 182.901 33.1724 164.607 30.0133C164.274 29.9523 163.941 30.1047 163.769 30.4094C161.519 34.4117 159.026 39.633 157.281 43.7369C137.604 40.7911 118.029 40.7911 98.7554 43.7369C97.0096 39.5418 94.4265 34.4117 92.1661 30.4094C91.9945 30.1148 91.6617 29.9624 91.3285 30.0133C73.0444 33.1623 55.5473 38.6782 39.2206 46.1751C39.0793 46.236 38.9582 46.3377 38.8777 46.4697C5.68951 96.0522 -3.40214 144.416 1.05792 192.18C1.0781 192.414 1.20928 192.637 1.39091 192.779C23.2876 208.86 44.4982 218.622 65.315 225.093C65.6481 225.194 66.0011 225.073 66.2131 224.798C71.1374 218.074 75.5268 210.983 79.2904 203.527C79.5125 203.09 79.3005 202.572 78.8466 202.399C71.8841 199.758 65.2544 196.538 58.8771 192.881C58.3727 192.587 58.3323 191.865 58.7964 191.52C60.1384 190.514 61.4807 189.468 62.7622 188.411C62.994 188.218 63.3171 188.178 63.5897 188.299C105.486 207.428 150.843 207.428 192.245 188.299C192.517 188.167 192.84 188.208 193.082 188.401C194.364 189.458 195.706 190.514 197.058 191.52C197.522 191.865 197.492 192.587 196.988 192.881C190.61 196.609 183.981 199.758 177.008 202.389C176.554 202.562 176.352 203.09 176.574 203.527C180.419 210.973 184.808 218.063 189.642 224.788C189.843 225.073 190.207 225.194 190.54 225.093C211.457 218.622 232.668 208.86 254.565 192.779C254.756 192.637 254.878 192.424 254.898 192.19C260.236 136.97 245.957 89.0024 217.048 46.4797C216.977 46.3377 216.856 46.236 216.715 46.1751ZM85.5469 163.097C72.9333 163.097 62.5401 151.517 62.5401 137.295C62.5401 123.073 72.7318 111.493 85.5469 111.493C98.4626 111.493 108.755 123.175 108.553 137.295C108.553 151.517 98.3617 163.097 85.5469 163.097ZM170.611 163.097C157.997 163.097 147.604 151.517 147.604 137.295C147.604 123.073 157.796 111.493 170.611 111.493C183.527 111.493 193.819 123.175 193.617 137.295C193.617 151.517 183.527 163.097 170.611 163.097Z" fill="#5865F2"/>
</svg>
