<svg xmlns="http://www.w3.org/2000/svg" viewBox="0 0 24 24"><path d="M3,.86H21a2.9,2.9,0,0,1,3,2.78V20.36a2.9,2.9,0,0,1-3,2.78H3a2.9,2.9,0,0,1-3-2.78V3.64A2.9,2.9,0,0,1,3,.86Z" fill="#ea4a78"/><path d="M6.24,3.3a1.1,1.1,0,0,0-.79.3,1,1,0,0,0-.33.73l0,15.34a1.06,1.06,0,0,0,.72,1,1.2,1.2,0,0,0,1.24-.28l4.89-5.12h3.5a1.17,1.17,0,0,0,.7-.23,1.12,1.12,0,0,0,.39-.59l2.35-9.83a1,1,0,0,0-.22-.87,1.16,1.16,0,0,0-.87-.39L6.24,3.3Zm1.3,1.86h0l8.59,0a.39.39,0,0,1,.3.14.33.33,0,0,1,.07.3L16,7.85a.4.4,0,0,1-.38.28h-4c-.18,0-.43,0-.51.22a9,9,0,0,0-.3,1.22A.65.65,0,0,0,11,10a.77.77,0,0,0,.48.18h3.47a.42.42,0,0,1,.3.13.39.39,0,0,1,.08.31L14.75,13a.4.4,0,0,1-.38.28H11.43a.74.74,0,0,0-.51.21l0,0-3.75,4v-12a.39.39,0,0,1,.39-.36Z" fill="#fff"/></svg>
