<?xml version="1.0" encoding="UTF-8" standalone="no"?><svg width="16px" height="16px" viewBox="0 0 16 16" version="1.1" xmlns="http://www.w3.org/2000/svg" xmlns:xlink="http://www.w3.org/1999/xlink"><g stroke="none" stroke-width="1" fill="none" fill-rule="evenodd"><g transform="translate(0.000000, 1.000000)"><path d="M8,0 L5.65517241,0 L5.65517241,0.965517241 L10.3448276,0.965517241 L10.3448276,0 L8,0" fill="#5A5A5A"/><path d="M10.3448276,0 L10.3448276,2.22993103 L11.5172414,2.22993103 L11.5172414,1 L10.3448276,0" fill="#7B7B7B"/><path d="M5.65517241,0 L5.65517241,2.22993103 L4.48275862,2.22993103 L4.48275862,1 L5.65517241,0" fill="#7B7B7B"/><path d="M13.7413793,2.20689655 L2.25862069,2.20689655 L0,4.48565517 L0,6.75862069 L16,6.75862069 L16,4.48565517 L13.7413793,2.20689655" fill="#D0D1D2"/><path d="M13.4482759,4.4137931 L8,4.4137931 L2.55172414,4.4137931 C2.10344828,4.4137931 1.79310345,4.87931034 1.79310345,5.22413793 L1.79310345,6.75862069 L14.2068966,6.75862069 L14.2068966,5.22413793 C14.2068966,4.87931034 13.8965517,4.4137931 13.4482759,4.4137931" fill="#458CF6"/><path d="M8,6.75862069 L0,6.75862069 L0,13.0862069 C0,13.637931 0.586206897,14.2068966 1.03448276,14.2068966 L8,14.2068966 L14.9655172,14.2068966 C15.4137931,14.2068966 16,13.637931 16,13.0862069 L16,6.75862069 L8,6.75862069" fill="#E6E7E8"/><path d="M8,6.75862069 L1.79310345,6.75862069 L1.79310345,14.2068966 L14.2068966,14.2068966 L14.2068966,6.75862069 L8,6.75862069" fill="#FFFFFF"/><path d="M3.57448276,5.51144828 C3.57448276,5.77475862 3.36110345,5.98841379 3.09765517,5.98841379 C2.8342069,5.98841379 2.62068966,5.77475862 2.62068966,5.51144828 C2.62068966,5.248 2.8342069,5.03448276 3.09765517,5.03448276 C3.36110345,5.03448276 3.57448276,5.248 3.57448276,5.51144828" fill="#FFFFFF"/><path d="M5.07351724,5.51144828 C5.07351724,5.77475862 4.86,5.98841379 4.59655172,5.98841379 C4.33310345,5.98841379 4.11958621,5.77475862 4.11958621,5.51144828 C4.11958621,5.248 4.33310345,5.03448276 4.59655172,5.03448276 C4.86,5.03448276 5.07351724,5.248 5.07351724,5.51144828" fill="#FFFFFF"/><path d="M2.62068966,7.67241379 L6.72413793,7.67241379 L6.72413793,12.2758621 L2.62068966,12.2758621 L2.62068966,7.67241379 Z" fill="#D0D1D2"/><path d="M2.62068966,13.2413793 L8,13.2413793 L8,14.2068966 L2.62068966,14.2068966 L2.62068966,13.2413793 Z" fill="#D0D1D2"/><path d="M12.8049655,8.87875862 C12.5158621,8.35475862 12.0692414,7.932 11.5862069,7.68206897 L11.5862069,10.0689655 L9.10344828,7.74455172 L9.10344828,7.73227586 C8.27586207,8.18082759 7.66593103,9.08482759 7.66593103,10.1293793 C7.66593103,11.2089655 8.32524138,12.1377931 9.24137931,12.5692414 L9.24137931,14.2068966 L14.2068966,14.2068966 L14.2068966,10.2068966 L12.8049655,8.87875862" fill="#BDBDBD"/><path d="M11.5862069,7.68206897 L11.5862069,10.2413793 L10.3448276,11 L9.10344828,10.2413793 L9.10344828,7.73227586 C8.27586207,8.18082759 7.66593103,9.08482759 7.66593103,10.1293793 C7.66593103,11.2089655 8.32524138,12.1377931 9.24137931,12.5692414 L9.24137931,14.2068966 L11.5862069,14.2068966 L11.5862069,12.5692414 C12.4137931,12.1377931 13.137931,11.2089655 13.137931,10.1293793 C13.137931,9.04358621 12.4137931,8.1102069 11.5862069,7.68206897" fill="#5A5A5A"/></g></g></svg>
