<svg width="256" height="256" viewBox="0 0 256 256" fill="none" xmlns="http://www.w3.org/2000/svg">
<path d="M127.224 215.147C178.94 215.147 220.866 173.222 220.866 121.505C220.866 69.7881 178.94 27.8632 127.224 27.8632C75.5065 27.8632 33.5815 69.7881 33.5815 121.505C33.5815 173.222 75.5065 215.147 127.224 215.147Z" fill="#FFD21E"/>
<path d="M220.866 121.505C220.866 69.7881 178.941 27.8632 127.224 27.8632C75.5066 27.8632 33.5816 69.7881 33.5816 121.505C33.5816 173.222 75.5066 215.147 127.224 215.147C178.941 215.147 220.866 173.222 220.866 121.505ZM22.8025 121.505C22.8025 63.8352 69.5533 17.0842 127.224 17.0842C184.894 17.0842 231.645 63.8352 231.645 121.505C231.645 179.175 184.894 225.926 127.224 225.926C69.5533 225.926 22.8025 179.175 22.8025 121.505Z" fill="#FF9D0B"/>
<path d="M157.649 96.0171C161.083 97.2297 162.449 104.29 165.919 102.445C172.489 98.9517 174.983 90.7933 171.49 84.223C167.996 77.653 159.838 75.1588 153.268 78.6522C146.697 82.1457 144.203 90.304 147.696 96.8743C149.345 99.9754 154.579 94.933 157.649 96.0171Z" fill="#3A3B45"/>
<path d="M94.1685 96.0171C90.7344 97.2297 89.3681 104.29 85.8989 102.445C79.3286 98.9517 76.8344 90.7933 80.3278 84.223C83.8213 77.653 91.9796 75.1588 98.5499 78.6522C105.12 82.1457 107.614 90.304 104.121 96.8743C102.472 99.9754 97.2384 94.933 94.1685 96.0171Z" fill="#3A3B45"/>
<path d="M126.55 160.684C153.035 160.684 161.581 137.07 161.581 124.944C161.581 118.642 157.345 120.626 150.56 123.985C144.289 127.089 135.842 131.368 126.55 131.368C107.202 131.368 91.5183 112.818 91.5183 124.944C91.5183 137.07 100.065 160.684 126.55 160.684Z" fill="#3A3B45"/>
<mask id="mask0_3_90" style="mask-type:alpha" maskUnits="userSpaceOnUse" x="91" y="120" width="71" height="41">
<path d="M126.55 160.684C153.035 160.684 161.581 137.07 161.581 124.944C161.581 118.642 157.345 120.626 150.56 123.985C144.289 127.089 135.842 131.368 126.55 131.368C107.202 131.368 91.5183 112.818 91.5183 124.944C91.5183 137.07 100.065 160.684 126.55 160.684Z" fill="white"/>
</mask>
<g mask="url(#mask0_3_90)">
<path d="M127.224 188.2C140.131 188.2 150.595 177.736 150.595 164.829C150.595 154.775 144.247 146.204 135.34 142.906C135.012 142.784 134.681 142.67 134.347 142.563C132.101 141.845 129.708 149.564 127.224 149.564C124.903 149.564 122.661 141.796 120.544 142.426C110.891 145.3 103.852 154.242 103.852 164.829C103.852 177.736 114.316 188.2 127.224 188.2Z" fill="#F94040"/>
</g>
<path d="M190.55 108.705C195.387 108.705 199.308 104.784 199.308 99.9474C199.308 95.1106 195.387 91.1895 190.55 91.1895C185.713 91.1895 181.792 95.1106 181.792 99.9474C181.792 104.784 185.713 108.705 190.55 108.705Z" fill="#FF9D0B"/>
<path d="M65.2447 108.705C70.0815 108.705 74.0026 104.784 74.0026 99.9474C74.0026 95.1106 70.0815 91.1895 65.2447 91.1895C60.4077 91.1895 56.4868 95.1106 56.4868 99.9474C56.4868 104.784 60.4077 108.705 65.2447 108.705Z" fill="#FF9D0B"/>
<path d="M47.2221 138.347C42.8593 138.347 38.96 140.139 36.241 143.389C34.5595 145.402 32.8026 148.647 32.6597 153.505C30.83 152.98 29.0704 152.686 27.4266 152.686C23.2497 152.686 19.4771 154.287 16.8093 157.194C13.3816 160.927 11.8591 165.513 12.522 170.102C12.8373 172.288 13.5675 174.247 14.6589 176.06C12.3576 177.922 10.6626 180.515 9.84341 183.632C9.20206 186.077 8.54454 191.167 11.9776 196.411C11.7594 196.753 11.5546 197.109 11.3632 197.473C9.29907 201.391 9.16703 205.818 10.9887 209.941C13.7508 216.19 20.6143 221.114 33.9424 226.398C42.2341 229.685 49.8198 231.787 49.8872 231.806C60.8494 234.649 70.7633 236.094 79.3461 236.094C95.121 236.094 106.415 231.262 112.914 221.733C123.375 206.389 121.88 192.355 108.344 178.828C100.853 171.342 95.8729 160.304 94.8354 157.882C92.7443 150.708 87.2147 142.734 78.0229 142.734C77.2496 142.734 76.4654 142.796 75.6947 142.918C71.6688 143.551 68.1494 145.868 65.6352 149.355C62.9216 145.982 60.2862 143.298 57.9013 141.783C54.3066 139.503 50.7145 138.347 47.2221 138.347ZM47.2221 149.126C48.5964 149.126 50.2752 149.711 52.1265 150.886C57.8744 154.532 68.9659 173.597 73.0269 181.013C74.3877 183.498 76.7133 184.549 78.8071 184.549C82.9624 184.549 86.2069 180.418 79.1871 175.168C68.6318 167.27 72.3344 154.359 77.3735 153.565C77.5945 153.53 77.8128 153.513 78.0229 153.513C82.604 153.513 84.625 161.409 84.625 161.409C84.625 161.409 90.5481 176.284 100.723 186.451C110.899 196.621 111.424 204.783 104.008 215.659C98.9503 223.075 89.2681 225.315 79.3461 225.315C69.0549 225.315 58.505 222.906 52.5927 221.372C52.3017 221.297 16.3458 211.14 20.8999 202.496C21.6652 201.043 22.9264 200.461 24.5136 200.461C30.927 200.461 42.5925 210.006 47.6074 210.006C48.7285 210.006 49.518 209.529 49.8414 208.365C51.9783 200.698 17.3509 197.475 20.2693 186.37C20.784 184.406 22.1799 183.608 24.1417 183.611C32.6166 183.611 51.6307 198.515 55.6162 198.515C55.9207 198.515 56.139 198.427 56.2576 198.238C58.2544 195.015 57.1603 192.765 43.0857 184.247C29.0111 175.726 19.1322 170.601 24.7507 164.484C25.3974 163.778 26.3136 163.465 27.4266 163.465C35.9716 163.468 56.1605 181.84 56.1605 181.84C56.1605 181.84 61.6093 187.507 64.905 187.507C65.6622 187.507 66.3062 187.208 66.7428 186.47C69.0791 182.53 45.0421 164.314 43.6866 156.798C42.7677 151.705 44.3306 149.126 47.2221 149.126Z" fill="#FF9D0B"/>
<path d="M104.008 215.659C111.424 204.783 110.898 196.621 100.723 186.451C90.5478 176.283 84.6248 161.408 84.6248 161.408C84.6248 161.408 82.4124 152.769 77.3733 153.564C72.3341 154.359 68.6342 167.269 79.1895 175.168C89.7448 183.063 77.0876 188.429 73.0266 181.013C68.9657 173.597 57.8768 154.531 52.1263 150.885C46.3784 147.239 42.3309 149.282 43.6863 156.798C45.0418 164.313 69.0815 182.53 66.7425 186.472C64.4035 190.412 56.1603 181.84 56.1603 181.84C56.1603 181.84 30.3663 158.366 24.7503 164.483C19.1345 170.6 29.0108 175.726 43.0854 184.246C57.1627 192.764 58.2541 195.014 56.2573 198.237C54.2578 201.46 23.1873 175.265 20.2689 186.37C17.3532 197.475 51.9781 200.698 49.8411 208.364C47.7042 216.033 25.4509 193.853 20.8995 202.495C16.3454 211.14 52.3014 221.296 52.5925 221.372C64.2068 224.384 93.7034 230.768 104.008 215.659Z" fill="#FFD21E"/>
<path d="M208.572 138.347C212.935 138.347 216.834 140.139 219.553 143.389C221.235 145.402 222.992 148.647 223.135 153.505C224.964 152.98 226.724 152.686 228.368 152.686C232.545 152.686 236.317 154.287 238.985 157.194C242.413 160.927 243.935 165.513 243.272 170.102C242.957 172.288 242.227 174.247 241.136 176.06C243.437 177.922 245.132 180.515 245.951 183.632C246.592 186.077 247.25 191.167 243.817 196.411C244.035 196.753 244.24 197.109 244.431 197.473C246.495 201.391 246.627 205.818 244.806 209.941C242.044 216.19 235.18 221.114 221.852 226.398C213.56 229.685 205.975 231.787 205.907 231.806C194.945 234.649 185.031 236.094 176.448 236.094C160.673 236.094 149.38 231.262 142.88 221.733C132.419 206.389 133.915 192.355 147.45 178.828C154.942 171.342 159.922 160.304 160.959 157.882C163.05 150.708 168.58 142.734 177.772 142.734C178.545 142.734 179.329 142.796 180.1 142.918C184.126 143.551 187.645 145.868 190.159 149.355C192.873 145.982 195.508 143.298 197.893 141.783C201.488 139.503 205.08 138.347 208.572 138.347ZM208.572 149.126C207.198 149.126 205.519 149.711 203.668 150.886C197.92 154.532 186.829 173.597 182.768 181.013C181.407 183.498 179.081 184.549 176.987 184.549C172.832 184.549 169.588 180.418 176.607 175.168C187.163 167.27 183.46 154.359 178.421 153.565C178.2 153.53 177.982 153.513 177.772 153.513C173.19 153.513 171.169 161.409 171.169 161.409C171.169 161.409 165.246 176.284 155.071 186.451C144.896 196.621 144.37 204.783 151.786 215.659C156.844 223.075 166.526 225.315 176.448 225.315C186.74 225.315 197.289 222.906 203.202 221.372C203.493 221.297 239.449 211.14 234.895 202.496C234.129 201.043 232.868 200.461 231.281 200.461C224.867 200.461 213.202 210.006 208.187 210.006C207.066 210.006 206.276 209.529 205.953 208.365C203.816 200.698 238.444 197.475 235.525 186.37C235.01 184.406 233.615 183.608 231.653 183.611C223.178 183.611 204.164 198.515 200.178 198.515C199.874 198.515 199.655 198.427 199.537 198.238C197.54 195.015 198.634 192.765 212.709 184.247C226.783 175.726 236.662 170.601 231.044 164.484C230.397 163.778 229.481 163.465 228.368 163.465C219.823 163.468 199.634 181.84 199.634 181.84C199.634 181.84 194.185 187.507 190.889 187.507C190.132 187.507 189.488 187.208 189.052 186.47C186.715 182.53 210.752 164.314 212.108 156.798C213.027 151.705 211.464 149.126 208.572 149.126Z" fill="#FF9D0B"/>
<path d="M151.787 215.659C144.371 204.783 144.896 196.621 155.072 186.451C165.247 176.283 171.17 161.408 171.17 161.408C171.17 161.408 173.382 152.769 178.422 153.564C183.461 154.359 187.161 167.269 176.605 175.168C166.05 183.063 178.707 188.429 182.768 181.013C186.829 173.597 197.918 154.531 203.669 150.885C209.416 147.239 213.464 149.282 212.108 156.798C210.753 164.313 186.713 182.53 189.052 186.472C191.391 190.412 199.635 181.84 199.635 181.84C199.635 181.84 225.429 158.366 231.044 164.483C236.66 170.6 226.784 175.726 212.709 184.246C198.632 192.764 197.541 195.014 199.538 198.237C201.537 201.46 232.607 175.265 235.526 186.37C238.441 197.475 203.817 200.698 205.954 208.364C208.091 216.033 230.344 193.853 234.895 202.495C239.449 211.14 203.493 221.296 203.202 221.372C191.588 224.384 162.091 230.768 151.787 215.659Z" fill="#FFD21E"/>
</svg>
