<svg width="256" height="256" viewBox="0 0 256 256" fill="none" xmlns="http://www.w3.org/2000/svg">
<g clip-path="url(#clip0_4_4)">
<path d="M128.042 0C74.603 0 58.9742 0.0551281 55.9362 0.307142C44.9696 1.21872 38.1456 2.94542 30.7112 6.64687C24.9818 9.49188 20.4632 12.7897 16.0038 17.4126C7.88222 25.8433 2.96007 36.2152 1.17825 48.5442C0.311955 54.5296 0.0599409 55.7503 0.00875049 86.3227C-0.0109381 96.5136 0.00875049 109.925 0.00875049 127.915C0.00875049 181.31 0.0678163 196.923 0.323768 199.956C1.20976 210.627 2.88329 217.341 6.42724 224.684C13.2001 238.742 26.1355 249.295 41.3745 253.233C46.6511 254.591 52.4789 255.34 59.9606 255.694C63.1304 255.832 95.4394 255.93 127.768 255.93C160.097 255.93 192.425 255.891 195.517 255.733C204.18 255.326 209.21 254.65 214.772 253.213C230.109 249.256 242.809 238.86 249.719 224.606C253.194 217.439 254.956 210.469 255.754 200.355C255.927 198.15 256 162.992 256 127.881C256 92.7648 255.921 57.6719 255.748 55.4667C254.941 45.1893 253.179 38.2786 249.591 30.9741C246.648 24.9947 243.38 20.5293 238.635 15.9635C230.167 7.87544 219.81 2.95329 207.47 1.17344C201.49 0.309111 200.299 0.0531592 169.703 0H128.042Z" fill="#EB3575"/>
<path d="M127.983 33.4706C102.317 33.4706 99.0958 33.5829 89.0152 34.0416C78.9543 34.5023 72.087 36.0951 66.078 38.4322C59.8623 40.846 54.5897 44.0749 49.3368 49.3298C44.0799 54.5827 40.851 59.8553 38.4293 66.069C36.0863 72.08 34.4916 78.9493 34.0387 89.0063C33.5879 99.0868 33.4697 102.31 33.4697 127.976C33.4697 153.642 33.5839 156.853 34.0407 166.934C34.5034 176.995 36.0962 183.862 38.4313 189.871C40.847 196.087 44.076 201.359 49.3309 206.612C54.5818 211.869 59.8544 215.106 66.0662 217.52C72.0791 219.857 78.9484 221.45 89.0073 221.91C99.0879 222.369 102.307 222.481 127.971 222.481C153.639 222.481 156.85 222.369 166.931 221.91C176.992 221.45 183.867 219.857 189.88 217.52C196.094 215.106 201.358 211.869 206.609 206.612C211.866 201.359 215.095 196.087 217.517 189.873C219.84 183.862 221.435 176.993 221.907 166.936C222.36 156.855 222.478 153.642 222.478 127.976C222.478 102.31 222.36 99.0888 221.907 89.0082C221.435 78.9474 219.84 72.08 217.517 66.071C215.095 59.8553 211.866 54.5827 206.609 49.3298C201.353 44.0729 196.096 40.844 189.874 38.4322C183.849 36.0951 176.978 34.5023 166.917 34.0416C156.837 33.5829 153.627 33.4706 127.953 33.4706H127.983ZM119.505 50.5013C122.021 50.4973 124.829 50.5013 127.983 50.5013C153.216 50.5013 156.207 50.5918 166.171 51.0447C175.385 51.466 180.386 53.0057 183.717 54.2992C188.128 56.0121 191.272 58.0597 194.578 61.3674C197.885 64.6751 199.933 67.8253 201.65 72.2355C202.943 75.5629 204.485 80.5638 204.904 89.7781C205.357 99.7405 205.456 102.733 205.456 127.954C205.456 153.175 205.357 156.168 204.904 166.13C204.483 175.345 202.943 180.346 201.65 183.673C199.937 188.083 197.885 191.224 194.578 194.529C191.27 197.837 188.13 199.885 183.717 201.598C180.39 202.897 175.385 204.433 166.171 204.854C156.208 205.307 153.216 205.405 127.983 205.405C102.748 205.405 99.7573 205.307 89.7949 204.854C80.5806 204.429 75.5797 202.889 72.2464 201.596C67.8362 199.883 64.686 197.835 61.3783 194.527C58.0706 191.22 56.023 188.077 54.3062 183.665C53.0126 180.338 51.471 175.337 51.0517 166.123C50.5988 156.16 50.5082 153.167 50.5082 127.931C50.5082 102.694 50.5988 99.7169 51.0517 89.7544C51.473 80.5402 53.0126 75.5393 54.3062 72.208C56.0191 67.7977 58.0706 64.6475 61.3783 61.3398C64.686 58.0322 67.8362 55.9845 72.2464 54.2677C75.5777 52.9683 80.5806 51.4325 89.7949 51.0092C98.513 50.6155 101.892 50.4973 119.505 50.4776V50.5013ZM178.429 66.1931C172.168 66.1931 167.088 71.2668 167.088 77.5298C167.088 83.7908 172.168 88.8704 178.429 88.8704C184.69 88.8704 189.77 83.7908 189.77 77.5298C189.77 71.2688 184.69 66.1892 178.429 66.1892V66.1931ZM127.983 79.4435C101.181 79.4435 79.4505 101.174 79.4505 127.976C79.4505 154.778 101.181 176.498 127.983 176.498C154.785 176.498 176.507 154.778 176.507 127.976C176.507 101.174 154.785 79.4435 127.983 79.4435ZM127.983 96.4742C145.38 96.4742 159.485 110.577 159.485 127.976C159.485 145.373 145.38 159.478 127.983 159.478C110.584 159.478 96.4811 145.373 96.4811 127.976C96.4811 110.577 110.584 96.4742 127.983 96.4742Z" fill="white"/>
</g>
<defs>
<clipPath id="clip0_4_4">
<rect width="256" height="256" fill="white"/>
</clipPath>
</defs>
</svg>
