<svg xmlns="http://www.w3.org/2000/svg" width="23" height="23"><path d="M5.554 8.57c-.315.76-.49 1.592-.49 2.465 0 3.553 2.882 6.434 6.436 6.434s6.435-2.884 6.435-6.437c0-.873-.174-1.706-.49-2.465h5.09V6.926h-6.082C15.273 5.506 13.493 4.6 11.5 4.6c-1.992 0-3.773.905-4.953 2.327H.465V8.57h5.09zm11.833 13.5H5.613c-2.82 0-5.148-2.328-5.148-5.15V5.15C.465 2.328 2.793 0 5.613 0h11.774c2.82 0 5.148 2.327 5.148 5.148V16.92c0 2.822-2.328 5.15-5.148 5.15zm1.807-16.293c.383 0 .712-.328.74-.74V3.56c0-.41-.33-.74-.74-.74h-1.48c-.41 0-.738.33-.738.74v1.478c0 .41.33.74.74.74h1.478z"/><path d="M11.5 14.183c1.74 0 3.15-1.41 3.15-3.148 0-1.74-1.41-3.15-3.15-3.15s-3.15 1.41-3.15 3.15 1.41 3.148 3.15 3.148z"/></svg>
