<svg width="20" height="20" viewBox="0 0 20 20" fill="none" xmlns="http://www.w3.org/2000/svg">
<path fill-rule="evenodd" clip-rule="evenodd" d="M0 2C0 0.895431 0.895431 0 2 0H18C19.1046 0 20 0.895431 20 2V18C20 19.1046 19.1046 20 18 20H2C0.895431 20 0 19.1046 0 18V2ZM16.5845 16.5848H13.8151V12.3265C13.8151 11.3141 13.8151 9.97406 12.356 9.97406C10.8969 9.97406 10.748 11.1056 10.748 12.267V16.6146H8.03814V7.74069H10.6884V8.93182H10.748C11.1053 8.21714 11.9987 7.47268 13.3387 7.47268C16.1081 7.47268 16.6441 9.28916 16.6441 11.7012L16.5845 16.5848ZM4.91141 6.54955C4.07762 6.54955 3.33316 5.83487 3.33316 4.91175C3.33316 4.07795 4.04784 3.3335 4.91141 3.3335C5.80476 3.3335 6.48966 4.04818 6.48966 4.91175C6.54922 5.8051 5.80476 6.54955 4.91141 6.54955ZM6.3711 16.5849H3.60172V7.74072H6.3711V16.5849Z" fill="#353B48"/>
</svg>
