<svg width="256" height="256" viewBox="0 0 256 256" fill="none" xmlns="http://www.w3.org/2000/svg">
<path d="M144.399 127.694C144.399 167.842 112.074 200.389 72.1983 200.389C32.3224 200.389 0 167.851 0 127.694C0 87.5357 32.3248 55 72.1983 55C112.072 55 144.399 87.5455 144.399 127.694ZM223.604 127.694C223.604 165.488 207.44 196.124 187.504 196.124C167.567 196.124 151.403 165.478 151.403 127.694C151.403 89.9089 167.567 59.2634 187.504 59.2634C207.44 59.2634 223.604 89.9089 223.604 127.694ZM256 127.694C256 161.556 250.315 189.004 243.303 189.004C236.291 189.004 230.606 161.546 230.606 127.694C230.606 93.8413 236.291 66.383 243.305 66.383C250.32 66.383 256 93.8339 256 127.694Z" fill="black"/>
</svg>
