<svg width="256" height="256" viewBox="0 0 256 256" fill="none" xmlns="http://www.w3.org/2000/svg">
<path d="M37.5433 146.1C55.7331 146.1 70.4788 131.354 70.4788 113.165C70.4788 94.9747 55.7331 80.229 37.5433 80.229C19.3536 80.229 4.60783 94.9747 4.60783 113.165C4.60783 131.354 19.3536 146.1 37.5433 146.1Z" fill="black"/>
<path d="M120.171 140.35C140.517 140.35 157.01 123.857 157.01 103.511C157.01 83.165 140.517 66.6715 120.171 66.6715C99.8252 66.6715 83.3317 83.165 83.3317 103.511C83.3317 123.857 99.8252 140.35 120.171 140.35Z" fill="black"/>
<path d="M211.452 132.458C233.767 132.458 251.857 114.223 251.857 91.729C251.857 69.235 233.767 51 211.452 51C189.137 51 171.047 69.235 171.047 91.729C171.047 114.223 189.137 132.458 211.452 132.458Z" fill="black"/>
<path d="M37.191 150.849C15.5018 150.849 1 170.382 1 188.126V200.231C1 202.867 2.76163 204.586 5.31248 204.586H69.0554C71.6345 204.586 73.3679 202.881 73.3679 200.231V188.126C73.3538 167.507 56.9777 150.849 37.191 150.849Z" fill="black"/>
<path d="M120.143 145.931C99.3555 145.931 80.7386 163.209 80.7386 186.744V200.316C80.7386 202.909 82.458 204.586 84.9947 204.586H155.756C158.307 204.586 160.04 202.909 160.04 200.316V186.744C160.04 166.549 144.369 145.931 120.143 145.931Z" fill="black"/>
<path d="M211.959 138.941C190.735 138.941 167.622 156.036 167.622 184.081V200.26C167.622 202.895 169.342 204.6 171.907 204.6H251.716C254.281 204.6 256 202.909 256 200.26V184.081C256 160.094 237.256 138.941 211.959 138.941Z" fill="black"/>
</svg>
