<svg xmlns="http://www.w3.org/2000/svg" width="17" height="22" viewBox="0 0 24 24"><path d="M8.988 0C3.362 0 0 4.08 0 8.023c0 2.458 1.02 4.345 2.727 5.05.52.22 1.065-.06 1.205-.608l.245-.974c.13-.49.014-.75-.264-1.08-.465-.552-.68-1.213-.68-2.076 0-2.59 1.9-5.342 5.427-5.342 2.788 0 4.518 1.603 4.518 4.183 0 3.35-1.466 5.98-3.335 5.98-.49 0-.93-.205-1.205-.558-.26-.33-.345-.762-.24-1.212.13-.546.3-1.107.466-1.652.31-1.014.602-1.973.602-2.75 0-1.36-.83-2.275-2.063-2.275-1.545 0-2.755 1.58-2.755 3.593 0 .94.236 1.658.358 1.96L3.503 16.7c-.393 1.69-.2 3.682-.044 4.77.04.307.29.53.6.53.19 0 .37-.088.51-.28.63-.82 1.756-2.442 2.203-4.084.094-.343.41-1.596.624-2.465.68.6 1.69.99 2.697.99 4 0 6.9-3.684 6.9-8.76C17 3.76 14.002 0 8.987 0z"/></svg>
