<svg width="256" height="256" viewBox="0 0 256 256" fill="none" xmlns="http://www.w3.org/2000/svg">
<g clip-path="url(#clip0_3_41)">
<path d="M230.416 0H25.584C11.504 0.04 0.04 11.504 0 25.584V230.416C0.04 244.496 11.504 255.96 25.584 256H230.416C244.496 255.96 255.96 244.496 256 230.416V25.584C255.96 11.504 244.496 0.04 230.416 0Z" fill="white"/>
<path d="M230.416 0H25.584C11.504 0.04 0.04 11.504 0 25.584V230.416C0.04 244.496 11.504 255.96 25.584 256H230.416C244.496 255.96 255.96 244.496 256 230.416V25.584C255.96 11.504 244.496 0.04 230.416 0Z" fill="url(#paint0_linear_3_41)"/>
<path d="M27.3442 136.827C26.9123 136.827 26.5694 137.161 26.5138 137.638L25 149.149L26.5138 160.462C26.5694 160.938 26.9123 161.271 27.3442 161.271C27.7627 161.271 28.1033 160.941 28.1701 160.466L29.9643 149.149L28.1701 137.636C28.1055 137.161 27.7604 136.827 27.3442 136.827ZM35.857 130.537C35.7858 130.043 35.4318 129.702 34.9955 129.702C34.5569 129.702 34.1941 130.054 34.134 130.537C34.134 130.542 32.0992 149.149 32.0992 149.149L34.134 167.348C34.1918 167.836 34.5547 168.188 34.9955 168.188C35.4296 168.188 35.7835 167.845 35.8548 167.353L38.17 149.149L35.857 130.537ZM67.9227 113.37C67.0879 113.37 66.3978 114.054 66.3577 114.923L64.7371 149.164L66.3577 171.293C66.4 172.158 67.0879 172.84 67.9227 172.84C68.7531 172.84 69.4409 172.155 69.4899 171.288V171.295L71.3221 149.164L69.4899 114.923C69.4409 114.054 68.7531 113.37 67.9227 113.37ZM51.3266 125.271C50.6855 125.271 50.1623 125.784 50.1111 126.468L48.2857 149.156L50.1111 171.106C50.1601 171.785 50.6855 172.298 51.3266 172.298C51.9611 172.298 52.4842 171.785 52.5399 171.106L54.6147 149.156L52.5399 126.463C52.4842 125.784 51.9611 125.271 51.3266 125.271ZM84.7881 172.837C85.8233 172.837 86.6648 172.002 86.7071 170.932L88.2966 149.176L86.7093 103.588C86.667 102.519 85.8255 101.683 84.7904 101.683C83.7463 101.683 82.9026 102.521 82.8692 103.591C82.8692 103.593 81.46 149.173 81.46 149.173L82.8692 170.938C82.9026 171.999 83.7463 172.837 84.7881 172.837ZM119.316 172.94C120.741 172.94 121.916 171.765 121.943 170.321L123.051 149.189L121.943 96.5391C121.918 95.0972 120.741 93.9204 119.316 93.9204C117.889 93.9204 116.711 95.0949 116.689 96.5413L115.698 149.171C115.698 149.205 116.689 170.335 116.689 170.335C116.711 171.765 117.891 172.94 119.316 172.94ZM101.921 172.857C103.161 172.857 104.16 171.861 104.194 170.591V170.606L105.543 149.18L104.191 103.263C104.158 101.993 103.158 100.999 101.918 100.999C100.67 100.999 99.67 101.993 99.6433 103.263L98.4434 149.182L99.6456 170.604C99.6723 171.861 100.672 172.857 101.921 172.857ZM59.5924 172.657C60.3292 172.657 60.9259 172.066 60.9815 171.288L62.9361 149.156L60.9815 128.101C60.9281 127.324 60.3315 126.737 59.5924 126.737C58.8444 126.737 58.2478 127.328 58.201 128.11L56.4802 149.156L58.201 171.286C58.25 172.066 58.8444 172.657 59.5924 172.657ZM43.1277 171.444C43.6664 171.444 44.1027 171.019 44.1651 170.43L46.3601 149.151L44.1673 127.07C44.1027 126.479 43.6664 126.053 43.1277 126.053C42.5823 126.053 42.1459 126.481 42.0903 127.07C42.0903 127.072 40.158 149.151 40.158 149.151L42.0903 170.426C42.1437 171.016 42.58 171.444 43.1277 171.444ZM110.585 102.499C109.238 102.499 108.158 103.571 108.132 104.943L107.036 149.185L108.132 170.473C108.158 171.828 109.236 172.9 110.585 172.9C111.93 172.9 113.003 171.83 113.034 170.457V170.475L114.263 149.187L113.034 104.939C113.003 103.571 111.93 102.499 110.585 102.499ZM76.3242 172.882C77.2548 172.882 78.0228 172.122 78.0673 171.152L79.777 149.171L78.0673 107.099C78.0206 106.127 77.2548 105.369 76.3242 105.369C75.3848 105.369 74.619 106.129 74.5789 107.099C74.5789 107.101 73.0651 149.171 73.0651 149.171L74.5812 171.161C74.619 172.122 75.3848 172.882 76.3242 172.882ZM95.4158 170.796L96.8851 149.178L95.4158 102.055C95.3802 100.885 94.4586 99.9668 93.321 99.9668C92.1768 99.9668 91.2551 100.883 91.224 102.055L89.9194 149.176L91.2262 170.805C91.2574 171.964 92.179 172.88 93.321 172.88C94.4608 172.88 95.378 171.961 95.4158 170.796ZM206.542 122.015C203.053 122.015 199.725 122.721 196.693 123.994C194.667 101.021 175.424 83 151.952 83C146.208 83 140.609 84.1322 135.665 86.0466C133.744 86.791 133.232 87.5576 133.214 89.0441V169.945C133.234 171.505 134.443 172.804 135.963 172.958C136.028 172.964 206.085 173 206.539 173C220.6 173 232 161.587 232 147.509C232 133.43 220.602 122.015 206.542 122.015ZM128.009 88.9728C126.48 88.9728 125.224 90.2298 125.202 91.7742L124.053 149.196L125.204 170.036C125.224 171.558 126.48 172.813 128.009 172.813C129.534 172.813 130.79 171.558 130.812 170.014V170.038L132.061 149.196L130.812 91.7698C130.79 90.2298 129.534 88.9728 128.009 88.9728Z" fill="url(#paint1_linear_3_41)"/>
<path d="M27.3442 136.827C26.9123 136.827 26.5694 137.161 26.5138 137.638L25 149.149L26.5138 160.462C26.5694 160.938 26.9123 161.271 27.3442 161.271C27.7627 161.271 28.1033 160.941 28.1701 160.466L29.9643 149.149L28.1701 137.636C28.1055 137.161 27.7604 136.827 27.3442 136.827ZM35.857 130.537C35.7858 130.043 35.4318 129.702 34.9955 129.702C34.5569 129.702 34.1941 130.054 34.134 130.537C34.134 130.542 32.0992 149.149 32.0992 149.149L34.134 167.348C34.1918 167.836 34.5547 168.188 34.9955 168.188C35.4296 168.188 35.7835 167.845 35.8548 167.353L38.17 149.149L35.857 130.537ZM67.9227 113.37C67.0879 113.37 66.3978 114.054 66.3577 114.923L64.7371 149.164L66.3577 171.293C66.4 172.158 67.0879 172.84 67.9227 172.84C68.7531 172.84 69.4409 172.155 69.4899 171.288V171.295L71.3221 149.164L69.4899 114.923C69.4409 114.054 68.7531 113.37 67.9227 113.37ZM51.3266 125.271C50.6855 125.271 50.1623 125.784 50.1111 126.468L48.2857 149.156L50.1111 171.106C50.1601 171.785 50.6855 172.298 51.3266 172.298C51.9611 172.298 52.4842 171.785 52.5399 171.106L54.6147 149.156L52.5399 126.463C52.4842 125.784 51.9611 125.271 51.3266 125.271ZM84.7881 172.837C85.8233 172.837 86.6648 172.002 86.7071 170.932L88.2966 149.176L86.7093 103.588C86.667 102.519 85.8255 101.683 84.7904 101.683C83.7463 101.683 82.9026 102.521 82.8692 103.591C82.8692 103.593 81.46 149.173 81.46 149.173L82.8692 170.938C82.9026 171.999 83.7463 172.837 84.7881 172.837ZM119.316 172.94C120.741 172.94 121.916 171.765 121.943 170.321L123.051 149.189L121.943 96.5391C121.918 95.0972 120.741 93.9204 119.316 93.9204C117.889 93.9204 116.711 95.0949 116.689 96.5413L115.698 149.171C115.698 149.205 116.689 170.335 116.689 170.335C116.711 171.765 117.891 172.94 119.316 172.94ZM101.921 172.857C103.161 172.857 104.16 171.861 104.194 170.591V170.606L105.543 149.18L104.191 103.263C104.158 101.993 103.158 100.999 101.918 100.999C100.67 100.999 99.67 101.993 99.6433 103.263L98.4434 149.182L99.6456 170.604C99.6723 171.861 100.672 172.857 101.921 172.857ZM59.5924 172.657C60.3292 172.657 60.9259 172.066 60.9815 171.288L62.9361 149.156L60.9815 128.101C60.9281 127.324 60.3315 126.737 59.5924 126.737C58.8444 126.737 58.2478 127.328 58.201 128.11L56.4802 149.156L58.201 171.286C58.25 172.066 58.8444 172.657 59.5924 172.657ZM43.1277 171.444C43.6664 171.444 44.1027 171.019 44.1651 170.43L46.3601 149.151L44.1673 127.07C44.1027 126.479 43.6664 126.053 43.1277 126.053C42.5823 126.053 42.1459 126.481 42.0903 127.07C42.0903 127.072 40.158 149.151 40.158 149.151L42.0903 170.426C42.1437 171.016 42.58 171.444 43.1277 171.444ZM110.585 102.499C109.238 102.499 108.158 103.571 108.132 104.943L107.036 149.185L108.132 170.473C108.158 171.828 109.236 172.9 110.585 172.9C111.93 172.9 113.003 171.83 113.034 170.457V170.475L114.263 149.187L113.034 104.939C113.003 103.571 111.93 102.499 110.585 102.499ZM76.3242 172.882C77.2548 172.882 78.0228 172.122 78.0673 171.152L79.777 149.171L78.0673 107.099C78.0206 106.127 77.2548 105.369 76.3242 105.369C75.3848 105.369 74.619 106.129 74.5789 107.099C74.5789 107.101 73.0651 149.171 73.0651 149.171L74.5812 171.161C74.619 172.122 75.3848 172.882 76.3242 172.882ZM95.4158 170.796L96.8851 149.178L95.4158 102.055C95.3802 100.885 94.4586 99.9668 93.321 99.9668C92.1768 99.9668 91.2551 100.883 91.224 102.055L89.9194 149.176L91.2262 170.805C91.2574 171.964 92.179 172.88 93.321 172.88C94.4608 172.88 95.378 171.961 95.4158 170.796ZM206.542 122.015C203.053 122.015 199.725 122.721 196.693 123.994C194.667 101.021 175.424 83 151.952 83C146.208 83 140.609 84.1322 135.665 86.0466C133.744 86.791 133.232 87.5576 133.214 89.0441V169.945C133.234 171.505 134.443 172.804 135.963 172.958C136.028 172.964 206.085 173 206.539 173C220.6 173 232 161.587 232 147.509C232 133.43 220.602 122.015 206.542 122.015ZM128.009 88.9728C126.48 88.9728 125.224 90.2298 125.202 91.7742L124.053 149.196L125.204 170.036C125.224 171.558 126.48 172.813 128.009 172.813C129.534 172.813 130.79 171.558 130.812 170.014V170.038L132.061 149.196L130.812 91.7698C130.79 90.2298 129.534 88.9728 128.009 88.9728Z" fill="white"/>
</g>
<defs>
<linearGradient id="paint0_linear_3_41" x1="128.001" y1="0" x2="128.001" y2="336.023" gradientUnits="userSpaceOnUse">
<stop stop-color="#F79810"/>
<stop offset="1" stop-color="#F8310E"/>
</linearGradient>
<linearGradient id="paint1_linear_3_41" x1="128.5" y1="83" x2="128.5" y2="201.133" gradientUnits="userSpaceOnUse">
<stop stop-color="#F79810"/>
<stop offset="1" stop-color="#F8310E"/>
</linearGradient>
<clipPath id="clip0_3_41">
<rect width="256" height="256" fill="white"/>
</clipPath>
</defs>
</svg>
