<svg width="256" height="256" viewBox="0 0 256 256" fill="none" xmlns="http://www.w3.org/2000/svg">
<g clip-path="url(#clip0_3_41)">
<path d="M230.416 0H25.584C11.504 0.04 0.04 11.504 0 25.584V230.416C0.04 244.496 11.504 255.96 25.584 256H230.416C244.496 255.96 255.96 244.496 256 230.416V25.584C255.96 11.504 244.496 0.04 230.416 0Z" fill="url(#paint0_linear_3_41)"/>
<path d="M230.416 0H25.584C11.504 0.04 0.04 11.504 0 25.584V230.416C0.04 244.496 11.504 255.96 25.584 256H230.416C244.496 255.96 255.96 244.496 256 230.416V25.584C255.96 11.504 244.496 0.04 230.416 0Z" fill="#F7780F"/>
<path d="M28.2 160.5C28.1 161 27.8 161.3 27.4 161.3C27 161.3 26.6 161 26.6 160.5L25 149.1L26.5 137.6C26.6 137.1 26.9 136.8 27.3 136.8C27.7 136.8 28.1 137.1 28.1 137.6L29.9 149.1L28.2 160.5ZM35.9 167.4C35.8 167.9 35.5 168.2 35 168.2C34.6 168.2 34.2 167.8 34.1 167.4L32.1 149.2L34.1 130.6C34.2 130.1 34.5 129.8 35 129.8C35.4 129.8 35.8 130.1 35.9 130.6L38.2 149.2L35.9 167.4ZM44.2 170.4C44.1 171 43.7 171.4 43.2 171.4C42.7 171.4 42.2 171 42.2 170.4L40.3 149.1L42.2 127C42.3 126.4 42.7 126 43.2 126C43.7 126 44.2 126.4 44.2 127L46.4 149.1L44.2 170.4ZM52.5 171.1C52.4 171.8 51.9 172.3 51.3 172.3C50.7 172.3 50.1 171.8 50.1 171.1L48.3 149.1L50.1 126.4C50.2 125.7 50.7 125.2 51.3 125.2C51.9 125.2 52.5 125.7 52.5 126.4L54.6 149.1L52.5 171.1ZM61 171.3C60.9 172.1 60.3 172.7 59.6 172.7C58.9 172.7 58.3 172.1 58.2 171.3L56.5 149.2L58.2 128.2C58.2 127.4 58.8 126.8 59.6 126.8C60.3 126.8 60.9 127.4 61 128.2L63 149.3L61 171.3ZM69.5 171.3C69.5 172.2 68.8 172.8 67.9 172.8C67.1 172.8 66.4 172.1 66.3 171.3L64.7 149.2L66.3 115C66.3 114.1 67 113.4 67.9 113.4C68.7 113.4 69.4 114.1 69.5 115L71.3 149.2L69.5 171.3ZM78.1 171.2C78.1 172.2 77.3 172.9 76.4 172.9C75.5 172.9 74.7 172.1 74.7 171.2L73.2 149.2L74.7 107.1C74.7 106.1 75.5 105.4 76.4 105.4C77.3 105.4 78.1 106.2 78.1 107.1L79.8 149.2L78.1 171.2ZM86.7 170.9C86.7 172 85.8 172.8 84.8 172.8C83.8 172.8 82.9 172 82.9 170.9L81.5 149.1L82.9 103.5C82.9 102.4 83.8 101.6 84.8 101.6C85.8 101.6 86.7 102.4 86.7 103.5L88.3 149.1L86.7 170.9ZM95.4 170.8C95.4 172 94.4 172.9 93.3 172.9C92.2 172.9 91.2 172 91.2 170.8L89.9 149.2L91.2 102.1C91.2 100.9 92.2 100 93.3 100C94.4 100 95.4 100.9 95.4 102.1L96.9 149.2L95.4 170.8ZM104.2 170.6C104.2 171.9 103.2 172.9 101.9 172.9C100.7 172.9 99.7 171.9 99.6 170.6L98.4 149.2L99.6 103.3C99.6 102 100.6 101 101.9 101C103.1 101 104.1 102 104.2 103.3L105.6 149.2L104.2 170.6ZM113 170.5C113 171.9 111.9 172.9 110.6 172.9C109.3 172.9 108.2 171.8 108.1 170.5L107 149.2L108.1 105C108.1 103.6 109.2 102.6 110.6 102.6C111.9 102.6 113 103.7 113 105L114.2 149.2L113 170.5ZM121.9 170.3C121.9 171.7 120.7 172.9 119.3 172.9C117.9 172.9 116.7 171.7 116.7 170.3C116.7 170.3 115.7 149.2 115.7 149.1L116.7 96.5C116.7 95.1 117.9 93.9 119.3 93.9C120.7 93.9 121.9 95.1 121.9 96.5L123 149.1L121.9 170.3ZM130.8 170C130.8 171.5 129.5 172.8 128 172.8C126.5 172.8 125.2 171.5 125.2 170L124 149.2L125.1 91.8C125.1 90.3 126.4 89 127.9 89C129.4 89 130.7 90.3 130.7 91.8L131.9 149.2L130.8 170ZM206.5 173C206 173 136 173 135.9 173C134.4 172.8 133.2 171.5 133.2 170V89C133.2 87.5 133.7 86.7 135.7 86C140.6 84.1 146.2 83 152 83C175.5 83 194.7 101 196.7 124C199.7 122.7 203.1 122 206.5 122C220.6 122 232 133.4 232 147.5C232 161.6 220.6 173 206.5 173Z" fill="white"/>
</g>
<defs>
<linearGradient id="paint0_linear_3_41" x1="128.001" y1="0" x2="128.001" y2="336.023" gradientUnits="userSpaceOnUse">
<stop stop-color="#F79810"/>
<stop offset="1" stop-color="#F8310E"/>
</linearGradient>
<clipPath id="clip0_3_41">
<rect width="256" height="256" fill="white"/>
</clipPath>
</defs>
</svg>
