<svg width="256" height="256" viewBox="0 0 256 256" fill="none" xmlns="http://www.w3.org/2000/svg">
<path d="M182.898 92.4106C199.428 104.22 219.677 111.169 241.547 111.169V69.1054C237.408 69.1063 233.28 68.6749 229.231 67.8174V100.928C207.362 100.928 187.115 93.9789 170.581 82.1699V168.01C170.581 210.951 135.753 245.759 92.7919 245.759C76.7623 245.759 61.8633 240.916 49.4868 232.609C63.6126 247.045 83.3121 256 105.106 256C148.069 256 182.9 221.192 182.9 178.249V92.4106H182.898ZM198.092 49.9735C189.645 40.7493 184.098 28.8288 182.898 15.6501V10.2399H171.226C174.164 26.9899 184.185 41.3002 198.092 49.9735ZM76.6595 199.657C71.9397 193.472 69.3892 185.905 69.4007 178.126C69.4007 158.486 85.331 142.562 104.985 142.562C108.648 142.561 112.288 143.121 115.779 144.228V101.224C111.7 100.666 107.583 100.428 103.468 100.515V133.988C99.9743 132.881 96.3317 132.318 92.668 132.322C73.0142 132.322 57.0848 148.244 57.0848 167.887C57.0848 181.775 65.0473 193.799 76.6595 199.657Z" fill="#FF004F"/>
<path d="M170.581 82.169C187.115 93.978 207.361 100.927 229.23 100.927V67.8166C217.023 65.2177 206.217 58.8419 198.092 49.9735C184.184 41.2993 174.164 26.9891 171.226 10.2399H140.567V178.247C140.497 197.833 124.594 213.692 104.983 213.692C93.4258 213.692 83.1587 208.186 76.6564 199.657C65.0451 193.799 57.0825 181.774 57.0825 167.887C57.0825 148.247 73.012 132.323 92.6658 132.323C96.4314 132.323 100.061 132.909 103.465 133.988V100.516C61.2593 101.388 27.3154 135.856 27.3154 178.248C27.3154 199.409 35.7682 218.593 49.4872 232.61C61.8637 240.916 76.7627 245.76 92.7923 245.76C135.754 245.76 170.582 210.95 170.582 168.01V82.169H170.581Z" fill="black"/>
<path d="M229.231 67.8165V58.8638C218.223 58.8805 207.431 55.7994 198.092 49.9726C206.359 59.0193 217.246 65.2572 229.231 67.8165ZM171.226 10.2398C170.946 8.63905 170.731 7.02774 170.581 5.41028V0H128.25V168.009C128.182 187.592 112.28 203.451 92.6663 203.451C86.9081 203.451 81.4714 202.085 76.6568 199.658C83.1592 208.186 93.4262 213.691 104.983 213.691C124.593 213.691 140.499 197.834 140.567 178.248V10.2398H171.226ZM103.467 100.516V90.9855C99.9303 90.5023 96.3642 90.2598 92.7937 90.2616C49.8286 90.2607 15 125.071 15 168.009C15 194.928 28.6882 218.653 49.4886 232.608C35.7696 218.592 27.3168 199.407 27.3168 178.247C27.3168 135.856 61.2597 101.388 103.467 100.516Z" fill="#00F2EA"/>
</svg>
