<svg width="256" height="256" viewBox="0 0 256 256" fill="none" xmlns="http://www.w3.org/2000/svg">
<g clip-path="url(#clip0_3_52)">
<rect width="256" height="256" rx="128" fill="#001935"/>
<path d="M166.088 175.536C163.119 176.952 157.441 178.184 153.207 178.29C140.424 178.632 137.943 169.311 137.84 162.554V112.849H169.905V88.673H137.951V48C137.951 48 114.943 48 114.568 48C114.183 48 113.511 48.337 113.416 49.192C112.048 61.64 106.224 83.488 82 92.224V112.848H98.16V165.015C98.16 182.878 111.336 208.255 146.119 207.656C157.855 207.455 170.889 202.543 173.767 198.302L166.088 175.536Z" fill="white"/>
</g>
<defs>
<clipPath id="clip0_3_52">
<rect width="256" height="256" fill="white"/>
</clipPath>
</defs>
</svg>
