<svg xmlns="http://www.w3.org/2000/svg" width="22" height="18" viewBox="0 0 24 24"><path fill="#00aced" d="M6.92 18c8.3 0 12.84-6.926 12.84-12.932 0-.196 0-.392-.012-.587.882-.64 1.646-1.44 2.252-2.35-.824.37-1.698.61-2.592.717.942-.568 1.647-1.46 1.984-2.513-.886.53-1.855.902-2.866 1.103-1.4-1.498-3.623-1.865-5.423-.895-1.8.97-2.73 3.038-2.27 5.04C7.203 5.4 3.823 3.67 1.53.83.336 2.908.948 5.565 2.93 6.898c-.72-.02-1.422-.216-2.05-.568v.055c0 2.164 1.515 4.027 3.62 4.455-.663.184-1.36.21-2.037.08.59 1.85 2.286 3.12 4.217 3.156-1.598 1.264-3.573 1.95-5.606 1.95C.714 16.022.357 16 0 15.956c2.064 1.336 4.466 2.044 6.92 2.04"/></svg>
