<svg width="20" height="20" viewBox="0 0 20 20" xmlns="http://www.w3.org/2000/svg"><path d="M7.19 16.496c6.225 0 9.63-5.194 9.63-9.699 0-.147 0-.294-.009-.44A6.914 6.914 0 0 0 18.5 4.595a6.682 6.682 0 0 1-1.944.537 3.414 3.414 0 0 0 1.488-1.884 6.749 6.749 0 0 1-2.15.827 3.372 3.372 0 0 0-4.067-.671 3.424 3.424 0 0 0-1.702 3.78 9.591 9.591 0 0 1-6.978-3.565 3.43 3.43 0 0 0 1.05 4.55 3.332 3.332 0 0 1-1.537-.425v.041a3.403 3.403 0 0 0 2.715 3.341 3.35 3.35 0 0 1-1.528.06 3.392 3.392 0 0 0 3.163 2.367 6.777 6.777 0 0 1-4.204 1.463A7.226 7.226 0 0 1 2 14.963a9.52 9.52 0 0 0 5.19 1.53"/></svg>
