<svg width="256" height="256" viewBox="0 0 256 256" fill="none" xmlns="http://www.w3.org/2000/svg">
<g clip-path="url(#clip0_3_56)">
<path d="M38.6574 0H217.343C238.692 0 256 17.3075 256 38.6574V217.323C256 238.673 238.692 255.98 217.343 255.98H38.6574C17.3075 255.98 1.52588e-05 238.673 1.52588e-05 217.323V38.6574C1.52588e-05 17.3075 17.3075 0 38.6574 0Z" fill="#00ADEF"/>
<path d="M25.4647 97.8954C47.644 77.9949 67.4443 43.3139 90.4311 50.5166C128.525 60.3761 112.066 133.248 133.713 167.318C163.36 150.598 182.597 115.428 174.606 97.1775C172.819 92.0773 174.994 79.3579 150.654 90.47C144.336 93.3542 144.595 82.1792 145.706 80.6668C168.241 55.9041 181.255 45.5754 196.675 46.2094C209.642 48.3757 232.447 62.9473 228.26 97.8954C219.581 149.897 143.23 231.555 117.71 228.546C88.4929 234.991 73.6393 142.69 51.6666 99.3311L31.5595 107.111C23.274 108.417 24.4173 103.123 25.4647 97.8954Z" fill="white"/>
</g>
<defs>
<clipPath id="clip0_3_56">
<rect width="256" height="256" fill="white"/>
</clipPath>
</defs>
</svg>
