<svg xmlns="http://www.w3.org/2000/svg" width="24" height="24" viewBox="0 0 24 24"><g fill="none"><path fill="#000" d="M5.8087406 1C3.7091485 1 2 2.67121125 2 4.72646923V19.2781017C2 21.329063 3.7091485 23 5.8087406 23h12.3855093C20.2936551 23 22 21.329063 22 19.2781017V4.72646923C22 2.67121125 20.2936551 1 18.1942499 1H5.8087406"/><path fill="#FFC717" d="M15.9399531 18.4900468C15.4633135 18.2141008 15.0841705 18 14.2612816 18c-.8446662 0-1.6732044.6514545-1.6732044 1.1373413h-1.17752115C11.41055605 18.6514545 10.58138 18 9.73498257 18c-.82298002 0-1.20002733.2140084-1.6792182.4900468-.5387822.3037718-1.14827217.6491434-2.32852685.6491434-.68129114 0-1.26444793-.1165722-1.72723752-.3236472v.1969986C4 20.1081906 4.87938222 21 5.9612292 21H18.037404C19.1187954 21 20 20.1081906 20 19.0125416v-.1969986c-.4643386.207075-1.052598.3236472-1.7301533.3236472-1.1830793 0-1.7922048-.3453716-2.3298936-.6491434"/><path fill="#FFF" d="M5.7272277 18c.87263448 0 1.2802041-.2230619 1.75228505-.480852.52793612-.288155 1.12484837-.616381 2.25543716-.616381.88037953 0 1.7231274.3976824 2.2617243.9627725.540237-.5650901 1.3865385-.9627725 2.2646401-.9627725 1.1314088 0 1.7278655.328226 2.2546171.616381.4703497.2578791.8813818.480852 1.7539251.480852.6966862 0 1.7288679-.1994645 1.7301435-.7539581V4.91868852C20 3.8617046 19.1188004 3 18.0374152 3H5.96121802C4.87937722 3 4 3.8617046 4 4.91868852V17.2487133C4.00273353 17.8005355 5.03318394 18 5.7272277 18"/><path fill="#000" d="M7.566275 3s.60069765.94684875.47760236 1.3482139c-.19836607.65079368-.4205067 1.61224267-.10051404 2.5882919.19625482.59776184.45630622.83965476.5970259 1.16792454.1312649.30622815-.14641088.7019416-.62502296 1.54753066L7 11.2670295c.0865614.0409749 1.12612447.3943005 2.21286947-.54388227C10.39104094 9.70188438 11.0938131 8.8869087 11.0938131 8.8869087c.11914816-.1141644.23205435-.133286.31971728.00894855.11015238.171435 2.63089772 4.16332745 3.70460802 5.86486705.7427942 1.1813945.9034331 1.380617 1.1696347 1.689671.5572792.6538079 1.4204149.6449536 1.7122269.3825262L11.97640903 3H7.566275"/><path fill="#000" d="M8.16640452 15.3354128C7.81999732 16.0104707 7.99256586 16.994564 8.8909722 17L12 11.80855 10.90980382 10s-.08492946.17059912-2.7433993 5.3354128"/></g></svg>
