<svg width="20" height="20" viewBox="0 0 20 20" fill="none" xmlns="http://www.w3.org/2000/svg">
<path d="M19.8182 5.99998C19.8182 5.99998 20 7.63633 20 9.18177V10.7272C20 12.3636 19.8182 13.9999 19.8182 13.9999C19.8182 13.9999 19.6364 15.3635 19 15.9999C18.2727 16.8181 17.3636 16.8181 17 16.8181C14.1818 16.9999 10 16.9999 10 16.9999C9.81818 16.9999 4.81818 16.9999 3.18182 16.8181C2.72727 16.7272 1.72727 16.7272 1 15.9999C0.363636 15.3635 0.181818 13.9999 0.181818 13.9999C0.181818 13.9999 0 12.3636 0 10.7272V9.18177C0 7.54542 0.272727 5.99998 0.272727 5.99998C0.272727 5.99998 0.454545 4.63635 1.09091 3.99999C1.81818 3.18182 2.63636 3.18182 3 3.18182C5.81818 3 10 3 10 3C10 3 14.1818 3 17 3.18182C17.3636 3.18182 18.2727 3.27273 19 3.99999C19.5455 4.63635 19.8182 5.99998 19.8182 5.99998ZM8 12.8181L13.3636 9.99994L8 7.18178V12.8181Z" fill="#EA3223"/>
</svg>
