<?xml version="1.0" encoding="utf-8"?>
<!-- Generator: Adobe Illustrator 17.0.0, SVG Export Plug-In . SVG Version: 6.00 Build 0)  -->
<!DOCTYPE svg PUBLIC "-//W3C//DTD SVG 1.1//EN" "http://www.w3.org/Graphics/SVG/1.1/DTD/svg11.dtd">
<svg version="1.1" id="Layer_1" xmlns="http://www.w3.org/2000/svg" xmlns:xlink="http://www.w3.org/1999/xlink" x="0px" y="0px"
	 width="60px" height="60px" viewBox="0 0 60 60" enable-background="new 0 0 60 60" xml:space="preserve">
<g>
	<path fill="#231F20" d="M29,30.261c-0.553,0-1,0.448-1,1V59c0,0.552,0.447,1,1,1c0.553,0,1-0.448,1-1V31.261
		C30,30.708,29.553,30.261,29,30.261z"/>
	<path fill="#231F20" d="M28.8,0C12.92,0,0,12.919,0,28.8V36c0,0.552,0.447,1,1,1c0.553,0,1-0.448,1-1v-7.2
		C2,14.023,14.022,2,28.8,2C43.544,2,56,14.364,56,29v7c0,0.552,0.447,1,1,1c0.553,0,1-0.448,1-1v-7C58,13.28,44.628,0,28.8,0z"/>
	<path fill="#231F20" d="M28.857,8.19C17.356,8.19,8,18.438,8,31.033V36c0,0.552,0.447,1,1,1c0.553,0,1-0.448,1-1v-4.967
		c0-11.493,8.459-20.843,18.857-20.843c10.376,0,19.143,9.617,19.143,21V36c0,0.552,0.447,1,1,1c0.553,0,1-0.448,1-1v-4.81
		C50,18.508,40.516,8.19,28.857,8.19z"/>
	<path fill="#231F20" d="M28.914,16.674C21.793,16.674,16,23.492,16,31.872V36c0,0.552,0.447,1,1,1c0.553,0,1-0.448,1-1v-4.128
		c0-7.277,4.896-13.198,10.914-13.198c6.009,0,11.086,6.09,11.086,13.3V36c0,0.552,0.447,1,1,1c0.553,0,1-0.448,1-1v-4.027
		C42,23.537,36.13,16.674,28.914,16.674z"/>
</g>
</svg>
