<?xml version="1.0" encoding="utf-8"?>
<!-- Generator: Adobe Illustrator 17.0.0, SVG Export Plug-In . SVG Version: 6.00 Build 0)  -->
<!DOCTYPE svg PUBLIC "-//W3C//DTD SVG 1.1//EN" "http://www.w3.org/Graphics/SVG/1.1/DTD/svg11.dtd">
<svg version="1.1" id="Layer_1" xmlns="http://www.w3.org/2000/svg" xmlns:xlink="http://www.w3.org/1999/xlink" x="0px" y="0px"
	 width="60px" height="60px" viewBox="0 0 60 60" enable-background="new 0 0 60 60" xml:space="preserve">
<g>
	<path fill="#231F20" d="M30,43c-7.214,0-12,9.63-12,16c0,0.552,0.448,1,1,1h22c0.007,0,0.013,0,0.02,0c0.552,0,1-0.448,1-1
		c0-0.071-0.007-0.141-0.022-0.208C41.896,52.423,37.136,43,30,43z M20.044,58C20.51,52.523,24.629,45,30,45s9.49,7.523,9.956,13
		H20.044z"/>
	<path fill="#231F20" d="M30,40c4.962,0,9-4.038,9-9s-4.038-9-9-9s-9,4.038-9,9S25.038,40,30,40z M30,24c3.86,0,7,3.14,7,7
		c0,3.86-3.14,7-7,7s-7-3.14-7-7C23,27.14,26.14,24,30,24z"/>
	<path fill="#231F20" d="M44.081,15.919c-7.765-7.764-20.397-7.763-28.161,0c-7.764,7.764-7.764,20.398,0,28.162
		c0.391,0.391,1.023,0.391,1.414,0c0.391-0.391,0.391-1.023,0-1.414c-6.984-6.984-6.984-18.349,0-25.333
		c6.983-6.983,18.348-6.984,25.333,0c6.984,6.984,6.984,18.349,0,25.333c-0.391,0.391-0.391,1.023,0,1.414
		c0.195,0.195,0.451,0.293,0.707,0.293c0.256,0,0.512-0.098,0.707-0.293C51.845,36.316,51.845,23.683,44.081,15.919z"/>
	<path fill="#231F20" d="M30,0C21.987,0,14.453,3.12,8.787,8.787c-11.697,11.697-11.697,30.729,0,42.426
		c0.391,0.391,1.023,0.391,1.414,0c0.391-0.391,0.391-1.023,0-1.414c-10.917-10.917-10.917-28.681,0-39.598
		C15.49,4.912,22.521,2,30,2s14.51,2.912,19.799,8.201c10.917,10.918,10.917,28.681,0,39.598c-0.391,0.391-0.391,1.023,0,1.414
		c0.195,0.195,0.451,0.293,0.707,0.293c0.256,0,0.512-0.098,0.707-0.293c11.697-11.697,11.697-30.729,0-42.426
		C45.547,3.12,38.013,0,30,0z"/>
</g>
</svg>
