<?xml version="1.0" encoding="utf-8"?>
<!-- Generator: Adobe Illustrator 17.0.0, SVG Export Plug-In . SVG Version: 6.00 Build 0)  -->
<!DOCTYPE svg PUBLIC "-//W3C//DTD SVG 1.1//EN" "http://www.w3.org/Graphics/SVG/1.1/DTD/svg11.dtd">
<svg version="1.1" id="Layer_1" xmlns="http://www.w3.org/2000/svg" xmlns:xlink="http://www.w3.org/1999/xlink" x="0px" y="0px"
	 width="60px" height="60px" viewBox="0 0 60 60" enable-background="new 0 0 60 60" xml:space="preserve">
<g>
	<path fill="#231F20" d="M31,33.755V29c0-0.552-0.447-1-1-1c-0.553,0-1,0.448-1,1v4.755L16.112,58.539
		c-0.161,0.31-0.148,0.682,0.033,0.98C16.326,59.818,16.65,60,17,60h26c0.35,0,0.674-0.182,0.854-0.481
		c0.182-0.299,0.194-0.67,0.033-0.98L31,33.755z M30,36.167L33.033,42h-6.066L30,36.167z M34.073,44l1.423,2.736L30,50.034
		l-5.496-3.297L25.927,44H34.073z M28.056,51.2l-8.536,5.122l4.06-7.808L28.056,51.2z M30,52.366L39.39,58H20.61L30,52.366z
		 M31.944,51.2l4.476-2.686l4.06,7.808L31.944,51.2z"/>
	<path fill="#231F20" d="M30,0C14.01,0,1,13.009,1,29c0,8.565,3.759,16.649,10.312,22.177c0.188,0.159,0.416,0.236,0.644,0.236
		c0.285,0,0.567-0.121,0.766-0.355c0.355-0.422,0.303-1.053-0.12-1.409C6.5,44.501,3,36.975,3,29C3,14.112,15.112,2,30,2
		s27,12.112,27,27c0,7.965-3.493,15.486-9.584,20.633c-0.422,0.357-0.475,0.987-0.118,1.409c0.354,0.42,0.987,0.476,1.409,0.118
		C55.248,45.633,59,37.556,59,29C59,13.009,45.99,0,30,0z"/>
	<path fill="#231F20" d="M30,10c-10.477,0-19,8.523-19,19c0,3.809,1.122,7.482,3.246,10.624c0.192,0.286,0.508,0.44,0.829,0.44
		c0.192,0,0.388-0.056,0.559-0.171c0.458-0.31,0.578-0.931,0.268-1.389C14.004,35.694,13,32.408,13,29c0-9.374,7.626-17,17-17
		s17,7.626,17,17c0,3.39-0.995,6.664-2.877,9.466c-0.308,0.458-0.185,1.08,0.273,1.388c0.458,0.309,1.079,0.185,1.388-0.273
		C47.888,36.448,49,32.789,49,29C49,18.523,40.477,10,30,10z"/>
	<path fill="#231F20" d="M37.493,31.989c0.084,0.021,0.168,0.032,0.251,0.032c0.444,0,0.851-0.299,0.967-0.75
		C38.903,30.53,39,29.767,39,29c0-4.962-4.037-9-9-9s-9,4.038-9,9c0,0.722,0.086,1.441,0.256,2.139
		c0.13,0.537,0.672,0.864,1.208,0.735c0.537-0.131,0.866-0.671,0.735-1.208C23.067,30.123,23,29.562,23,29c0-3.86,3.141-7,7-7
		c3.859,0,7,3.14,7,7c0,0.598-0.076,1.193-0.225,1.77C36.637,31.305,36.958,31.85,37.493,31.989z"/>
</g>
</svg>
