<?xml version="1.0" encoding="utf-8"?>
<!-- Generator: Adobe Illustrator 17.0.0, SVG Export Plug-In . SVG Version: 6.00 Build 0)  -->
<!DOCTYPE svg PUBLIC "-//W3C//DTD SVG 1.1//EN" "http://www.w3.org/Graphics/SVG/1.1/DTD/svg11.dtd">
<svg version="1.1" id="Layer_1" xmlns="http://www.w3.org/2000/svg" xmlns:xlink="http://www.w3.org/1999/xlink" x="0px" y="0px"
	 width="60px" height="60px" viewBox="0 0 60 60" enable-background="new 0 0 60 60" xml:space="preserve">
<g>
	<path fill="#231F20" d="M29,15.476c-4.963,0-9,4.038-9,9c0,4.624,3.507,8.442,8,8.941v21.059c0,0.552,0.447,1,1,1
		c0.553,0,1-0.448,1-1V33.417c4.493-0.5,8-4.317,8-8.941C38,19.513,33.963,15.476,29,15.476z M29,31.476c-3.859,0-7-3.14-7-7
		c0-3.86,3.141-7,7-7c3.859,0,7,3.14,7,7C36,28.335,32.859,31.476,29,31.476z"/>
	<path fill="#231F20" d="M48.935,4.789c-0.406,0.373-0.433,1.006-0.06,1.413C53.47,11.195,56,17.685,56,24.476
		c0,8.319-3.751,16.05-10.29,21.21c-0.434,0.342-0.508,0.971-0.166,1.405c0.197,0.25,0.49,0.38,0.786,0.38
		c0.217,0,0.435-0.07,0.618-0.215C53.972,41.713,58,33.411,58,24.476c0-7.293-2.718-14.264-7.651-19.628
		C49.975,4.44,49.34,4.416,48.935,4.789z"/>
	<path fill="#231F20" d="M2,24.476c0-6.787,2.527-13.274,7.117-18.267c0.374-0.407,0.347-1.039-0.06-1.413
		c-0.406-0.372-1.038-0.347-1.413,0.06C2.715,10.219,0,17.187,0,24.476c0,8.938,4.029,17.241,11.055,22.782
		c0.184,0.144,0.401,0.215,0.618,0.215c0.296,0,0.589-0.13,0.786-0.381c0.342-0.434,0.268-1.062-0.166-1.404
		C5.752,40.528,2,32.797,2,24.476z"/>
	<path fill="#231F20" d="M12,24.476c0-4.19,1.537-8.215,4.329-11.333c0.368-0.412,0.333-1.044-0.078-1.412
		c-0.409-0.367-1.043-0.334-1.412,0.078C11.719,15.294,10,19.793,10,24.476c0,5.824,2.616,11.246,7.179,14.877
		c0.185,0.146,0.404,0.217,0.622,0.217c0.295,0,0.586-0.129,0.783-0.377c0.344-0.432,0.272-1.061-0.159-1.405
		C14.342,34.538,12,29.687,12,24.476z"/>
	<path fill="#231F20" d="M43.12,11.762c-0.37-0.412-1.005-0.442-1.412-0.073c-0.411,0.37-0.443,1.002-0.074,1.412
		C44.449,16.226,46,20.265,46,24.476c0,5.181-2.32,10.016-6.365,13.264c-0.431,0.346-0.5,0.975-0.153,1.406
		c0.197,0.246,0.487,0.374,0.78,0.374c0.22,0,0.44-0.072,0.625-0.22C45.407,35.669,48,30.266,48,24.476
		C48,19.77,46.267,15.254,43.12,11.762z"/>
</g>
</svg>
