<?xml version="1.0" encoding="utf-8"?>
<!-- Generator: Adobe Illustrator 17.0.0, SVG Export Plug-In . SVG Version: 6.00 Build 0)  -->
<!DOCTYPE svg PUBLIC "-//W3C//DTD SVG 1.1//EN" "http://www.w3.org/Graphics/SVG/1.1/DTD/svg11.dtd">
<svg version="1.1" id="Layer_1" xmlns="http://www.w3.org/2000/svg" xmlns:xlink="http://www.w3.org/1999/xlink" x="0px" y="0px"
	 width="60px" height="60px" viewBox="0 0 60 60" enable-background="new 0 0 60 60" xml:space="preserve">
<g>
	<path fill="#231F20" d="M30,27.478c-1.393,0-2.522,1.129-2.522,2.521s1.129,2.522,2.522,2.522c1.393,0,2.521-1.129,2.521-2.522
		S31.393,27.478,30,27.478z M30,30.521c-0.288,0-0.522-0.234-0.522-0.522c0-0.288,0.233-0.521,0.522-0.521
		c0.288,0,0.521,0.234,0.521,0.521C30.521,30.288,30.288,30.521,30,30.521z"/>
	<path fill="#231F20" d="M49.799,8.786c-0.391,0.391-0.391,1.024,0,1.414C55.088,15.488,58,22.52,58,30s-2.912,14.512-8.201,19.8
		c-0.391,0.391-0.391,1.023,0,1.414c0.195,0.195,0.451,0.293,0.707,0.293c0.256,0,0.512-0.098,0.707-0.293
		C56.879,45.548,60,38.014,60,30c0-8.014-3.121-15.548-8.787-21.213C50.822,8.396,50.189,8.396,49.799,8.786z"/>
	<path fill="#231F20" d="M44.08,15.919c-0.391-0.391-1.023-0.391-1.414,0c-0.391,0.391-0.391,1.024,0,1.414
		c3.384,3.383,5.247,7.881,5.247,12.666c0,4.784-1.863,9.282-5.247,12.667c-0.391,0.391-0.391,1.024,0,1.414
		c0.195,0.195,0.451,0.293,0.707,0.293c0.256,0,0.512-0.098,0.707-0.293c3.762-3.762,5.833-8.763,5.833-14.081
		C49.913,24.681,47.842,19.68,44.08,15.919z"/>
	<path fill="#231F20" d="M35.533,23.052c-0.391,0.391-0.391,1.023,0,1.414c1.478,1.477,2.293,3.442,2.293,5.533
		c0,2.091-0.815,4.056-2.293,5.534c-0.391,0.391-0.391,1.024,0,1.415c0.195,0.195,0.451,0.293,0.707,0.293
		c0.256,0,0.512-0.098,0.707-0.293c1.856-1.855,2.879-4.323,2.879-6.949s-1.022-5.093-2.879-6.948
		C36.557,22.662,35.924,22.661,35.533,23.052z"/>
	<path fill="#231F20" d="M2,30c0-7.479,2.912-14.511,8.201-19.799c0.391-0.391,0.391-1.023,0-1.414
		c-0.391-0.391-1.023-0.391-1.414,0C3.121,14.453,0,21.986,0,30s3.121,15.547,8.787,21.214c0.195,0.195,0.451,0.293,0.707,0.293
		c0.256,0,0.512-0.098,0.707-0.293c0.391-0.391,0.391-1.023,0-1.414C4.913,44.511,2,37.479,2,30z"/>
	<path fill="#231F20" d="M17.333,15.919c-0.391-0.391-1.023-0.391-1.414,0c-3.761,3.76-5.832,8.761-5.832,14.08
		c0,5.319,2.071,10.319,5.832,14.081c0.195,0.195,0.451,0.293,0.707,0.293c0.256,0,0.512-0.098,0.707-0.293
		c0.391-0.39,0.391-1.023,0-1.414C13.95,39.282,12.087,34.784,12.087,30c0-4.785,1.863-9.283,5.246-12.666
		C17.724,16.943,17.724,16.31,17.333,15.919z"/>
	<path fill="#231F20" d="M24.467,23.052c-0.391-0.391-1.023-0.391-1.414,0c-1.856,1.856-2.879,4.323-2.879,6.948
		c0,2.624,1.023,5.092,2.879,6.948c0.195,0.195,0.451,0.293,0.707,0.293c0.256,0,0.512-0.098,0.707-0.293
		c0.391-0.391,0.391-1.023,0-1.414c-1.479-1.479-2.293-3.444-2.293-5.534c0-2.09,0.815-4.055,2.293-5.534
		C24.857,24.076,24.857,23.442,24.467,23.052z"/>
</g>
</svg>
