<?xml version="1.0" encoding="utf-8"?>
<!-- Generator: Adobe Illustrator 17.0.0, SVG Export Plug-In . SVG Version: 6.00 Build 0)  -->
<!DOCTYPE svg PUBLIC "-//W3C//DTD SVG 1.1//EN" "http://www.w3.org/Graphics/SVG/1.1/DTD/svg11.dtd">
<svg version="1.1" id="Layer_1" xmlns="http://www.w3.org/2000/svg" xmlns:xlink="http://www.w3.org/1999/xlink" x="0px" y="0px"
	 width="60px" height="60px" viewBox="0 0 60 60" enable-background="new 0 0 60 60" xml:space="preserve">
<g>
	<path fill="#231F20" d="M49,22c6.065,0,11-4.935,11-11c0-6.065-4.935-11-11-11c-6.065,0-11,4.935-11,11
		c0,1.255,0.222,2.457,0.611,3.582l-18.46,9.325C18.177,20.952,14.813,19,11,19C4.935,19,0,23.935,0,30c0,6.065,4.935,11,11,11
		c3.789,0,7.137-1.926,9.116-4.851l18.803,8.461C38.331,45.957,38,47.44,38,49c0,6.065,4.935,11,11,11c6.065,0,11-4.935,11-11
		c0-6.065-4.935-11-11-11c-3.789,0-7.137,1.926-9.116,4.851L21.08,34.389C21.669,33.043,22,31.56,22,30
		c0-1.539-0.32-3.004-0.894-4.336l18.326-9.257C41.324,19.741,44.9,22,49,22z M49,40c4.962,0,9,4.038,9,9s-4.038,9-9,9s-9-4.038-9-9
		S44.038,40,49,40z M11,39c-4.962,0-9-4.038-9-9s4.038-9,9-9s9,4.038,9,9S15.962,39,11,39z M49,2c4.962,0,9,4.038,9,9s-4.038,9-9,9
		s-9-4.038-9-9S44.038,2,49,2z"/>
</g>
</svg>
