<?xml version="1.0" encoding="utf-8"?>
<!-- Generator: Adobe Illustrator 17.0.0, SVG Export Plug-In . SVG Version: 6.00 Build 0)  -->
<!DOCTYPE svg PUBLIC "-//W3C//DTD SVG 1.1//EN" "http://www.w3.org/Graphics/SVG/1.1/DTD/svg11.dtd">
<svg version="1.1" id="Layer_1" xmlns="http://www.w3.org/2000/svg" xmlns:xlink="http://www.w3.org/1999/xlink" x="0px" y="0px"
	 width="60px" height="60px" viewBox="0 0 60 60" enable-background="new 0 0 60 60" xml:space="preserve">
<g>
	<path fill="#231F20" d="M55,24.913h-1V11c0-0.346-0.179-0.668-0.474-0.85c-0.294-0.183-0.662-0.2-0.972-0.045l-0.589,0.293
		C42.137,15.291,32.852,19.913,11,19.913H8c-4.486,0-8,3.953-8,9v5c0,4.71,3.29,8,8,8h3c2.498,0,4.823,0.067,7.006,0.19
		c0.066,7.668,4.085,14.604,10.286,17.705c0.143,0.072,0.296,0.105,0.446,0.105c0.367,0,0.72-0.202,0.896-0.553
		c0.247-0.494,0.047-1.095-0.447-1.342c-5.41-2.705-9.063-9.021-9.176-15.786c14.815,1.12,22.596,5.023,30.758,9.117l1.786,0.894
		c0.141,0.07,0.293,0.104,0.445,0.104c0.184,0,0.366-0.05,0.526-0.15C53.821,52.016,54,51.694,54,51.348V36.913h1
		c2.804,0,5-1.967,5-4.478v-2.522C60,27.25,57.663,24.913,55,24.913z M8,39.913c-3.645,0-6-2.355-6-6v-5c0-3.441,2.244-7,6-7h3
		c2.489,0,4.812-0.061,7-0.173v18.365c-2.19-0.124-4.514-0.193-7-0.193H8z M52,49.729l-0.335-0.167
		c-8.02-4.023-16.275-8.16-31.665-9.325V21.623c15.565-1.061,23.725-4.896,32-9.008v13.298v10V49.729z M58,32.435
		c0,1.551-1.525,2.478-3,2.478h-1v-8h1c1.542,0,3,1.458,3,3V32.435z"/>
</g>
</svg>
