<?xml version="1.0" encoding="utf-8"?>
<!-- Generator: Adobe Illustrator 17.0.0, SVG Export Plug-In . SVG Version: 6.00 Build 0)  -->
<!DOCTYPE svg PUBLIC "-//W3C//DTD SVG 1.1//EN" "http://www.w3.org/Graphics/SVG/1.1/DTD/svg11.dtd">
<svg version="1.1" id="Layer_1" xmlns="http://www.w3.org/2000/svg" xmlns:xlink="http://www.w3.org/1999/xlink" x="0px" y="0px"
	 width="60px" height="60px" viewBox="0 0 60 60" enable-background="new 0 0 60 60" xml:space="preserve">
<g>
	<path fill="#231F20" d="M59,5.044c-0.553,0-1,0.448-1,1v1.781L2,24.868v-1.172c0-0.552-0.447-1-1-1c-0.553,0-1,0.448-1,1v2.521
		v7.565v2.521c0,0.552,0.447,1,1,1c0.553,0,1-0.448,1-1v-1.172l10,3.043v5.781c0,6.884,5.409,10.019,10.435,10.019
		c5.712,0,9.429-3.805,9.554-9.717L58,52.175v1.781c0,0.552,0.447,1,1,1c0.553,0,1-0.448,1-1v-2.522V8.565V6.044
		C60,5.491,59.553,5.044,59,5.044z M30,43.956c0,5.022-2.828,8.019-7.565,8.019c-4.198,0-8.435-2.479-8.435-8.019v-5.172l16,4.87
		V43.956z M2,33.042v-6.084L58,9.915v40.17L2,33.042z"/>
</g>
</svg>
