<?xml version="1.0" encoding="utf-8"?>
<!-- Generator: Adobe Illustrator 17.0.0, SVG Export Plug-In . SVG Version: 6.00 Build 0)  -->
<!DOCTYPE svg PUBLIC "-//W3C//DTD SVG 1.1//EN" "http://www.w3.org/Graphics/SVG/1.1/DTD/svg11.dtd">
<svg version="1.1" id="Layer_1" xmlns="http://www.w3.org/2000/svg" xmlns:xlink="http://www.w3.org/1999/xlink" x="0px" y="0px"
	 width="60px" height="60px" viewBox="0 0 60 60" enable-background="new 0 0 60 60" xml:space="preserve">
<g>
	<path fill="#231F20" d="M59.707,39.293L48,27.586v-9.213c3.17-0.184,5.695-2.851,5.695-6.113c0-3.34-2.654-5.956-6.043-5.956
		c-3.216,0-5.845,2.525-6.026,5.696h-9.212L20.707,0.293c-0.391-0.391-1.023-0.391-1.414,0C9.004,10.582,8.151,26.766,16.739,37.968
		L0.223,58.371c-0.242,0.3-0.291,0.712-0.125,1.06C0.264,59.778,0.614,60,1,60h35c0.391,0,0.745-0.227,0.908-0.582
		c0.163-0.355,0.105-0.773-0.149-1.069L26.064,45.872c4.057,2.152,8.597,3.296,13.307,3.296h0.001
		c7.656,0,14.879-3.005,20.335-8.462C60.098,40.316,60.098,39.684,59.707,39.293z M40.914,20.5l3.236-3.236
		c0.555,0.396,1.178,0.7,1.85,0.892v7.43L40.914,20.5z M47.652,8.304c2.268,0,4.043,1.738,4.043,3.956
		c0,2.239-1.852,4.13-4.043,4.13c-1.114,0-2.125-0.453-2.857-1.185c0,0,0,0,0-0.001c0,0-0.001,0-0.001-0.001
		c-0.732-0.732-1.186-1.743-1.186-2.857C43.608,10.118,45.423,8.304,47.652,8.304z M41.844,14c0.191,0.672,0.496,1.295,0.892,1.85
		L39.5,19.086L34.414,14H41.844z M3.096,58l14.926-18.438L33.826,58H3.096z M39.371,47.169c-7.069,0-13.729-2.766-18.751-7.789
		C10.494,29.253,10.302,12.882,20.013,2.427l18.564,18.564c0.047,0.092,0.096,0.183,0.172,0.259c0.077,0.077,0.168,0.126,0.26,0.172
		l7.284,7.284c0,0,0.001,0.001,0.001,0.001l11.28,11.28C52.588,44.626,46.163,47.169,39.371,47.169z"/>
</g>
</svg>
