<?xml version="1.0" encoding="utf-8"?>
<!-- Generator: Adobe Illustrator 17.0.0, SVG Export Plug-In . SVG Version: 6.00 Build 0)  -->
<!DOCTYPE svg PUBLIC "-//W3C//DTD SVG 1.1//EN" "http://www.w3.org/Graphics/SVG/1.1/DTD/svg11.dtd">
<svg version="1.1" id="Layer_1" xmlns="http://www.w3.org/2000/svg" xmlns:xlink="http://www.w3.org/1999/xlink" x="0px" y="0px"
	 width="60px" height="60px" viewBox="0 0 60 60" enable-background="new 0 0 60 60" xml:space="preserve">
<g>
	<path fill="#231F20" d="M0,22.5v2c19.626,0,35,15.374,35,35h2C37,38.752,20.748,22.5,0,22.5z"/>
	<path fill="#231F20" d="M0-0.5v2c15.562,0,30.146,6.014,41.066,16.934C51.986,29.354,58,43.938,58,59.5h2
		c0-16.096-6.222-31.182-17.52-42.48C31.183,5.722,16.096-0.5,0-0.5z"/>
	<path fill="#231F20" d="M7,45.5c-3.86,0-7,3.14-7,7s3.14,7,7,7c3.86,0,7-3.14,7-7S10.86,45.5,7,45.5z M7,57.5c-2.757,0-5-2.243-5-5
		c0-2.757,2.243-5,5-5c2.757,0,5,2.243,5,5C12,55.257,9.757,57.5,7,57.5z"/>
</g>
</svg>
