<?xml version="1.0" encoding="utf-8"?>
<!-- Generator: Adobe Illustrator 17.0.0, SVG Export Plug-In . SVG Version: 6.00 Build 0)  -->
<!DOCTYPE svg PUBLIC "-//W3C//DTD SVG 1.1//EN" "http://www.w3.org/Graphics/SVG/1.1/DTD/svg11.dtd">
<svg version="1.1" id="Layer_1" xmlns="http://www.w3.org/2000/svg" xmlns:xlink="http://www.w3.org/1999/xlink" x="0px" y="0px"
	 width="60px" height="60px" viewBox="0 0 60 60" enable-background="new 0 0 60 60" xml:space="preserve">
<g>
	<path fill="#231F20" d="M45.265,32.567c-0.391-0.391-1.023-0.391-1.414,0l-2.86,2.86l-2.151-2.152l6.426-6.426
		c3.099-3.1,3.317-8.002,0.662-11.361l2.907-2.905c0.048-0.048,0.071-0.107,0.107-0.161c0.309,0.128,0.637,0.193,0.966,0.193
		c0.645,0,1.291-0.246,1.784-0.738c0.984-0.984,0.984-2.582,0-3.566c-0.493-0.492-1.138-0.738-1.784-0.738
		c-0.646,0-1.291,0.246-1.783,0.738c-0.743,0.743-0.923,1.837-0.543,2.751c-0.054,0.036-0.113,0.059-0.16,0.106l-2.907,2.905
		c-1.506-1.194-3.354-1.847-5.305-1.847c-2.288,0-4.44,0.891-6.057,2.509l-6.425,6.425l-2.153-2.152l2.86-2.859
		c0.188-0.188,0.293-0.442,0.293-0.707c0-0.265-0.106-0.52-0.293-0.707L13.168,0.47c-0.375-0.375-1.039-0.375-1.414,0L4.623,7.604
		c-0.391,0.391-0.391,1.023,0,1.414l14.263,14.264c0.195,0.195,0.451,0.293,0.707,0.293c0.256,0,0.512-0.098,0.707-0.293l2.86-2.859
		l2.153,2.152l-6.427,6.427c-0.188,0.188-0.293,0.442-0.293,0.707c0,0.265,0.105,0.52,0.293,0.707l0.865,0.865
		c-0.635-0.112-1.282-0.177-1.94-0.177c-2.962,0-5.746,1.153-7.84,3.247c-0.391,0.391-0.391,1.023,0,1.414L24.236,50.03
		c0.188,0.188,0.442,0.293,0.707,0.293c0.265,0,0.52-0.105,0.707-0.293c2.658-2.658,3.675-6.34,3.064-9.788l0.872,0.872
		c0.195,0.195,0.451,0.293,0.707,0.293c0.256,0,0.512-0.098,0.707-0.293l6.425-6.425l2.151,2.152L36.718,39.7
		c-0.188,0.188-0.293,0.442-0.293,0.707c0,0.265,0.105,0.52,0.293,0.707l14.266,14.265c0.188,0.188,0.442,0.293,0.707,0.293
		c0.265,0,0.519-0.106,0.707-0.293l7.132-7.133c0.391-0.391,0.391-1.023,0-1.414L45.265,32.567z M49.538,9.725
		c0.127-0.126,0.271-0.153,0.37-0.153c0.099,0,0.243,0.026,0.37,0.152c0.203,0.203,0.203,0.534,0,0.737
		c-0.127,0.127-0.271,0.153-0.37,0.153c-0.099,0-0.243-0.026-0.369-0.153C49.334,10.259,49.334,9.928,49.538,9.725z M19.593,21.161
		L6.744,8.31l5.717-5.719l12.852,12.852L19.593,21.161z M24.904,47.87L12.131,35.095c1.606-1.291,3.589-1.992,5.68-1.992
		c2.423,0,4.7,0.942,6.415,2.651l0.02,0.02C27.54,39.079,27.76,44.309,24.904,47.87z M30.293,38.993l-4.634-4.633
		c-0.003-0.003-0.006-0.007-0.009-0.01c-0.003-0.003-0.007-0.006-0.011-0.01l-4.632-4.631l6.427-6.426c0,0,0,0,0.001,0s0,0,0-0.001
		l7.131-7.131c1.24-1.24,2.889-1.923,4.643-1.923c1.753,0,3.401,0.683,4.641,1.922c0,0,0,0.001,0.001,0.001c0,0,0.001,0,0.001,0.001
		c2.558,2.56,2.558,6.725-0.001,9.284l-7.129,7.129c-0.001,0.001-0.003,0.001-0.004,0.003s-0.001,0.003-0.003,0.004L30.293,38.993z
		 M51.691,53.258L38.839,40.407l2.858-2.858c0,0,0,0,0.001,0s0,0,0-0.001l2.86-2.86l12.851,12.851L51.691,53.258z"/>
	<path fill="#231F20" d="M15.537,55.531c-1.478,1.478-3.443,2.292-5.534,2.292s-4.055-0.814-5.533-2.292
		c-1.479-1.478-2.293-3.443-2.293-5.534c0-2.09,0.814-4.056,2.293-5.534c0.391-0.39,0.391-1.023,0-1.414
		c-0.391-0.391-1.023-0.391-1.414,0c-1.856,1.855-2.879,4.323-2.879,6.948c0,2.625,1.022,5.093,2.879,6.948
		c1.855,1.855,4.322,2.878,6.947,2.878c2.625,0,5.092-1.021,6.948-2.878c0.391-0.391,0.391-1.023,0-1.414
		C16.56,55.141,15.927,55.141,15.537,55.531z"/>
	<path fill="#231F20" d="M9.233,45.571c-0.391-0.391-1.023-0.391-1.414,0c-0.903,0.903-1.401,2.104-1.401,3.381
		c0,1.277,0.498,2.479,1.401,3.382c0.932,0.932,2.157,1.397,3.381,1.397s2.449-0.465,3.381-1.397c0.391-0.391,0.391-1.024,0-1.415
		c-0.391-0.391-1.024-0.39-1.415,0c-1.085,1.085-2.85,1.084-3.935,0c-0.526-0.526-0.815-1.225-0.815-1.968
		c0-0.743,0.289-1.441,0.815-1.967C9.624,46.595,9.624,45.962,9.233,45.571z"/>
</g>
</svg>
