<?xml version="1.0" encoding="utf-8"?>
<!-- Generator: Adobe Illustrator 17.0.0, SVG Export Plug-In . SVG Version: 6.00 Build 0)  -->
<!DOCTYPE svg PUBLIC "-//W3C//DTD SVG 1.1//EN" "http://www.w3.org/Graphics/SVG/1.1/DTD/svg11.dtd">
<svg version="1.1" id="Layer_1" xmlns="http://www.w3.org/2000/svg" xmlns:xlink="http://www.w3.org/1999/xlink" x="0px" y="0px"
	 width="48px" height="48px" viewBox="0 0 48 48" enable-background="new 0 0 48 48" xml:space="preserve">
<g>
	<path fill="#010101" d="M29,10.001H3c-1.654,0-3,1.346-3,3v22c0,1.654,1.346,3,3,3h26c1.654,0,3-1.346,3-3v-22
		C32,11.346,30.654,10.001,29,10.001z"/>
	<path fill="#010101" d="M47.526,12.15c-0.295-0.182-0.664-0.198-0.973-0.044l-12,6C34.214,18.275,34,18.622,34,19.001v10
		c0,0.379,0.214,0.725,0.553,0.894l12,6c0.141,0.07,0.294,0.106,0.447,0.106c0.183,0,0.365-0.05,0.526-0.149
		C47.82,35.669,48,35.347,48,35.001v-22C48,12.654,47.82,12.332,47.526,12.15z"/>
</g>
</svg>
