<?xml version="1.0" encoding="utf-8"?>
<!-- Generator: Adobe Illustrator 17.0.0, SVG Export Plug-In . SVG Version: 6.00 Build 0)  -->
<!DOCTYPE svg PUBLIC "-//W3C//DTD SVG 1.1//EN" "http://www.w3.org/Graphics/SVG/1.1/DTD/svg11.dtd">
<svg version="1.1" id="Layer_1" xmlns="http://www.w3.org/2000/svg" xmlns:xlink="http://www.w3.org/1999/xlink" x="0px" y="0px"
	 width="48px" height="48px" viewBox="0 0 48 48" enable-background="new 0 0 48 48" xml:space="preserve">
<path fill="#010101" d="M41,0.001H7c-3.86,0-7,3.14-7,7v34c0,3.86,3.14,7,7,7h34c3.86,0,7-3.14,7-7v-34
	C48,3.141,44.86,0.001,41,0.001z M38,31.001c0,0.364-0.197,0.698-0.515,0.874c-0.318,0.176-0.707,0.166-1.015-0.026L30,27.805V33
	c0,0.552-0.448,1-1,1H11c-0.552,0-1-0.448-1-1V15c0-0.552,0.448-1,1-1h18c0.552,0,1,0.448,1,1v5.196l6.47-4.044
	c0.308-0.193,0.696-0.203,1.015-0.026C37.803,16.302,38,16.637,38,17.001V31.001z"/>
</svg>
