<?xml version="1.0" encoding="utf-8"?>
<!-- Generator: Adobe Illustrator 17.0.0, SVG Export Plug-In . SVG Version: 6.00 Build 0)  -->
<!DOCTYPE svg PUBLIC "-//W3C//DTD SVG 1.1//EN" "http://www.w3.org/Graphics/SVG/1.1/DTD/svg11.dtd">
<svg version="1.1" id="Layer_1" xmlns="http://www.w3.org/2000/svg" xmlns:xlink="http://www.w3.org/1999/xlink" x="0px" y="0px"
	 width="48px" height="48px" viewBox="0 0 48 48" enable-background="new 0 0 48 48" xml:space="preserve">
<path fill="#010101" d="M44,20.101V19c0-2.757-2.243-5-5-5h-0.051C38.431,6.196,31.933,0,24,0C16.066,0,9.569,6.196,9.051,14H9
	c-2.757,0-5,2.243-5,5v1.101C1.721,20.566,0,22.585,0,25c0,2.415,1.721,4.434,4,4.899V31c0,2.757,2.243,5,5,5h4c0.552,0,1-0.448,1-1
	V15c0-0.552-0.448-1-1-1h-1.949C11.564,7.299,17.169,2,24,2c6.831,0,12.435,5.299,12.949,12H35c-0.552,0-1,0.448-1,1v20
	c0,0.552,0.448,1,1,1h4v1c0,3.309-2.691,6-6,6h-3.142c-0.447-1.72-2-3-3.858-3c-2.206,0-4,1.794-4,4c0,2.206,1.794,4,4,4
	c1.858,0,3.411-1.28,3.858-3H33c4.411,0,8-3.589,8-8v-1.424c1.763-0.774,3-2.531,3-4.576v-1.101c2.279-0.465,4-2.484,4-4.899
	C48,22.585,46.279,20.566,44,20.101z"/>
</svg>
