<?xml version="1.0" encoding="utf-8"?>
<!-- Generator: Adobe Illustrator 17.0.0, SVG Export Plug-In . SVG Version: 6.00 Build 0)  -->
<!DOCTYPE svg PUBLIC "-//W3C//DTD SVG 1.1//EN" "http://www.w3.org/Graphics/SVG/1.1/DTD/svg11.dtd">
<svg version="1.1" id="Layer_2" xmlns="http://www.w3.org/2000/svg" xmlns:xlink="http://www.w3.org/1999/xlink" x="0px" y="0px"
	 width="48px" height="48px" viewBox="0 0 48 48" enable-background="new 0 0 48 48" xml:space="preserve">
<g>
	<path fill="#010101" d="M41,39c-1.654,0-3-1.346-3-3v-7c0-5.454-3.134-10.358-8.037-12.666C29.631,13.338,27.083,11,24,11
		c-3.083,0-5.63,2.338-5.963,5.333C13.134,18.639,10,23.543,10,29v7c0,1.654-1.346,3-3,3c-0.552,0-1,0.447-1,1c0,0.553,0.448,1,1,1
		h34c0.552,0,1-0.447,1-1C42,39.447,41.552,39,41,39z"/>
	<path fill="#010101" d="M28,42h-8c-0.552,0-1,0.447-1,1c0,2.757,2.243,5,5,5c2.757,0,5-2.243,5-5C29,42.447,28.552,42,28,42z"/>
	<path fill="#010101" d="M8,19c0-0.553-0.448-1-1-1H3.414l4.293-4.293c0.286-0.286,0.372-0.716,0.217-1.09
		C7.769,12.243,7.404,12,7,12H1c-0.552,0-1,0.447-1,1c0,0.553,0.448,1,1,1h3.586l-4.293,4.293c-0.286,0.286-0.372,0.716-0.217,1.09
		C0.231,19.757,0.596,20,1,20h6C7.552,20,8,19.553,8,19z"/>
	<path fill="#010101" d="M19,4h1.586l-2.293,2.293c-0.286,0.286-0.372,0.716-0.217,1.09C18.231,7.757,18.596,8,19,8h4
		c0.552,0,1-0.447,1-1c0-0.553-0.448-1-1-1h-1.586l2.293-2.293c0.286-0.286,0.372-0.716,0.217-1.09C23.769,2.243,23.404,2,23,2h-4
		c-0.552,0-1,0.447-1,1C18,3.553,18.448,4,19,4z"/>
	<path fill="#010101" d="M47,14h-5.586l6.293-6.293c0.286-0.286,0.372-0.716,0.217-1.09C47.769,6.243,47.404,6,47,6h-8
		c-0.552,0-1,0.447-1,1c0,0.553,0.448,1,1,1h5.586l-6.293,6.293c-0.286,0.286-0.372,0.716-0.217,1.09C38.231,15.757,38.596,16,39,16
		h8c0.552,0,1-0.447,1-1C48,14.447,47.552,14,47,14z"/>
</g>
</svg>
