<?xml version="1.0" encoding="utf-8"?>
<!-- Generator: Adobe Illustrator 17.0.0, SVG Export Plug-In . SVG Version: 6.00 Build 0)  -->
<!DOCTYPE svg PUBLIC "-//W3C//DTD SVG 1.1//EN" "http://www.w3.org/Graphics/SVG/1.1/DTD/svg11.dtd">
<svg version="1.1" id="Layer_1" xmlns="http://www.w3.org/2000/svg" xmlns:xlink="http://www.w3.org/1999/xlink" x="0px" y="0px"
	 width="48px" height="48px" viewBox="0 0 48 48" enable-background="new 0 0 48 48" xml:space="preserve">
<g>
	<path fill="#010101" d="M8.793,46.293c-0.391,0.391-0.391,1.023,0,1.414C8.988,47.902,9.244,48,9.5,48
		c0.256,0,0.512-0.098,0.707-0.293l1.286-1.287c-0.566-0.37-1.114-0.766-1.642-1.185L8.793,46.293z"/>
	<path fill="#010101" d="M37.149,45.235c-0.529,0.419-1.076,0.815-1.642,1.186l1.286,1.286C36.988,47.902,37.244,48,37.5,48
		c0.256,0,0.512-0.098,0.707-0.293c0.391-0.391,0.391-1.023,0-1.414L37.149,45.235z"/>
	<path fill="#010101" d="M38.5,2c-3.569,0-6.651,2.094-8.105,5.113c5.719,1.893,10.406,6.068,12.972,11.446
		C45.85,16.955,47.5,14.169,47.5,11C47.5,6.037,43.462,2,38.5,2z"/>
	<path fill="#010101" d="M17.476,6.845C15.972,3.97,12.964,2,9.5,2c-4.962,0-9,4.037-9,9c0,2.845,1.331,5.381,3.398,7.032
		C6.65,12.643,11.556,8.534,17.476,6.845z"/>
	<path fill="#010101" d="M23.5,8c-11.028,0-20,8.972-20,20s8.972,20,20,20c11.028,0,20-8.972,20-20S34.528,8,23.5,8z M25.5,29
		c0,0.553-0.448,1-1,1h-8c-0.552,0-1-0.447-1-1s0.448-1,1-1h7V17c0-0.553,0.448-1,1-1c0.552,0,1,0.447,1,1V29z"/>
</g>
</svg>
