<?xml version="1.0" encoding="utf-8"?>
<!-- Generator: Adobe Illustrator 17.0.0, SVG Export Plug-In . SVG Version: 6.00 Build 0)  -->
<!DOCTYPE svg PUBLIC "-//W3C//DTD SVG 1.1//EN" "http://www.w3.org/Graphics/SVG/1.1/DTD/svg11.dtd">
<svg version="1.1" id="Layer_2" xmlns="http://www.w3.org/2000/svg" xmlns:xlink="http://www.w3.org/1999/xlink" x="0px" y="0px"
	 width="48px" height="48px" viewBox="0 0 48 48" enable-background="new 0 0 48 48" xml:space="preserve">
<g>
	<path fill="#010101" d="M41,38c-1.654,0-3-1.346-3-3v-7c0-5.454-3.134-10.358-8.037-12.666C29.631,12.338,27.083,10,24,10
		c-3.083,0-5.63,2.338-5.963,5.333C13.134,17.639,10,22.543,10,28v7c0,1.654-1.346,3-3,3c-0.552,0-1,0.447-1,1c0,0.553,0.448,1,1,1
		h34c0.552,0,1-0.447,1-1C42,38.447,41.552,38,41,38z"/>
	<path fill="#010101" d="M28,42h-8c-0.552,0-1,0.447-1,1c0,2.757,2.243,5,5,5c2.757,0,5-2.243,5-5C29,42.447,28.552,42,28,42z"/>
	<path fill="#010101" d="M18,6C11.383,6,6,11.383,6,18c0,0.553,0.448,1,1,1c0.552,0,1-0.447,1-1c0-5.514,4.486-10,10-10
		c0.552,0,1-0.447,1-1C19,6.447,18.552,6,18,6z"/>
	<path fill="#010101" d="M18,2c0.552,0,1-0.447,1-1c0-0.553-0.448-1-1-1C8.075,0,0,8.075,0,18c0,0.553,0.448,1,1,1
		c0.552,0,1-0.447,1-1C2,9.178,9.178,2,18,2z"/>
	<path fill="#010101" d="M30,6c-0.552,0-1,0.447-1,1c0,0.553,0.448,1,1,1c5.514,0,10,4.486,10,10c0,0.553,0.448,1,1,1
		c0.552,0,1-0.447,1-1C42,11.383,36.617,6,30,6z"/>
	<path fill="#010101" d="M30,0c-0.552,0-1,0.447-1,1c0,0.553,0.448,1,1,1c8.822,0,16,7.178,16,16c0,0.553,0.448,1,1,1
		c0.552,0,1-0.447,1-1C48,8.075,39.925,0,30,0z"/>
</g>
</svg>
