<?xml version="1.0" encoding="utf-8"?>
<!-- Generator: Adobe Illustrator 17.0.0, SVG Export Plug-In . SVG Version: 6.00 Build 0)  -->
<!DOCTYPE svg PUBLIC "-//W3C//DTD SVG 1.1//EN" "http://www.w3.org/Graphics/SVG/1.1/DTD/svg11.dtd">
<svg version="1.1" id="Layer_2" xmlns="http://www.w3.org/2000/svg" xmlns:xlink="http://www.w3.org/1999/xlink" x="0px" y="0px"
	 width="48px" height="48px" viewBox="0 0 48 48" enable-background="new 0 0 48 48" xml:space="preserve">
<g>
	<path fill="#010101" d="M7,35h1.758L33.26,10.498c-0.977-0.86-2.082-1.592-3.297-2.164C29.631,5.338,27.083,3,24,3
		c-3.083,0-5.63,2.338-5.963,5.333C13.134,10.639,10,15.543,10,21v9c0,1.654-1.346,3-3,3c-0.552,0-1,0.447-1,1
		C6,34.553,6.448,35,7,35z"/>
	<path fill="#010101" d="M41,33c-1.654,0-3-1.346-3-3v-9c0-1.969-0.414-3.863-1.166-5.592L17.242,35H41c0.552,0,1-0.447,1-1
		C42,33.447,41.552,33,41,33z"/>
	<path fill="#010101" d="M28,36h-8c-0.552,0-1,0.447-1,1c0,2.757,2.243,5,5,5c2.757,0,5-2.243,5-5C29,36.447,28.552,36,28,36z"/>
	<path fill="#010101" d="M47.927,0.624c-0.049-0.12-0.122-0.233-0.22-0.331c-0.098-0.098-0.21-0.171-0.33-0.22
		C47.259,0.026,47.133,0,47,0c-0.133,0-0.259,0.026-0.377,0.073c-0.12,0.049-0.233,0.122-0.33,0.22L34.664,11.922L11.586,35h0
		L0.293,46.293c-0.098,0.098-0.171,0.21-0.22,0.331C0.026,46.741,0,46.867,0,47c0,0.133,0.026,0.259,0.073,0.377
		c0.049,0.12,0.122,0.233,0.22,0.33c0.003,0.003,0.007,0.004,0.01,0.007c0.382,0.371,1.011,0.371,1.393,0
		c0.003-0.003,0.007-0.004,0.011-0.007L14.414,35h0L35.86,13.554L47.707,1.707c0.098-0.098,0.171-0.21,0.22-0.33
		C47.974,1.259,48,1.133,48,1C48,0.867,47.974,0.741,47.927,0.624z"/>
</g>
</svg>
