<?xml version="1.0" encoding="utf-8"?>
<!-- Generator: Adobe Illustrator 17.0.0, SVG Export Plug-In . SVG Version: 6.00 Build 0)  -->
<!DOCTYPE svg PUBLIC "-//W3C//DTD SVG 1.1//EN" "http://www.w3.org/Graphics/SVG/1.1/DTD/svg11.dtd">
<svg version="1.1" id="Layer_1" xmlns="http://www.w3.org/2000/svg" xmlns:xlink="http://www.w3.org/1999/xlink" x="0px" y="0px"
	 width="48px" height="48px" viewBox="0 0 48 48" enable-background="new 0 0 48 48" xml:space="preserve">
<path fill="#010101" d="M24,0C10.767,0,0,10.767,0,24s10.767,24,24,24c13.233,0,24-10.767,24-24S37.233,0,24,0z M35.737,35.676
	C35.54,35.891,35.27,36,34.999,36c-0.241,0-0.483-0.087-0.675-0.263l-12-11C22.118,24.548,22,24.28,22,24V13c0-0.553,0.448-1,1-1
	c0.552,0,1,0.447,1,1v10.56l11.676,10.702C36.083,34.636,36.11,35.269,35.737,35.676z"/>
</svg>
