<?xml version="1.0" encoding="utf-8"?>
<!-- Generator: Adobe Illustrator 17.0.0, SVG Export Plug-In . SVG Version: 6.00 Build 0)  -->
<!DOCTYPE svg PUBLIC "-//W3C//DTD SVG 1.1//EN" "http://www.w3.org/Graphics/SVG/1.1/DTD/svg11.dtd">
<svg version="1.1" id="Layer_1" xmlns="http://www.w3.org/2000/svg" xmlns:xlink="http://www.w3.org/1999/xlink" x="0px" y="0px"
	 width="48px" height="48px" viewBox="0 0 48 48" enable-background="new 0 0 48 48" xml:space="preserve">
<path fill="#010101" d="M24,0C10.767,0,0,10.767,0,24s10.767,24,24,24c13.233,0,24-10.767,24-24S37.233,0,24,0z M36.707,36.707
	C36.512,36.902,36.256,37,36,37c-0.256,0-0.512-0.098-0.707-0.293l-9.276-9.273C25.423,27.785,24.739,28,24,28c-2.206,0-4-1.794-4-4
	c0-1.474,0.81-2.75,2-3.444V13c0-0.553,0.448-1,1-1c0.552,0,1,0.447,1,1v7c2.206,0,4,1.794,4,4c0,0.74-0.216,1.426-0.568,2.021
	l9.275,9.272C37.098,35.684,37.098,36.316,36.707,36.707z"/>
</svg>
