<?xml version="1.0" encoding="utf-8"?>
<!-- Generator: Adobe Illustrator 17.0.0, SVG Export Plug-In . SVG Version: 6.00 Build 0)  -->
<!DOCTYPE svg PUBLIC "-//W3C//DTD SVG 1.1//EN" "http://www.w3.org/Graphics/SVG/1.1/DTD/svg11.dtd">
<svg version="1.1" id="Layer_1" xmlns="http://www.w3.org/2000/svg" xmlns:xlink="http://www.w3.org/1999/xlink" x="0px" y="0px"
	 width="48px" height="48px" viewBox="0 0 48 48" enable-background="new 0 0 48 48" xml:space="preserve">
<g>
	<path fill="#010101" d="M42,0H6C2.691,0,0,2.691,0,6v36c0,3.309,2.691,6,6,6h36c3.309,0,6-2.691,6-6V6C48,2.691,45.309,0,42,0z
		 M24,40c-8.822,0-16-7.178-16-16S15.178,8,24,8c8.822,0,16,7.178,16,16S32.822,40,24,40z"/>
	<path fill="#010101" d="M30,24h-6V14c0-0.553-0.448-1-1-1c-0.552,0-1,0.447-1,1v12h8c0.552,0,1-0.447,1-1S30.552,24,30,24z"/>
</g>
</svg>
