<?xml version="1.0" encoding="utf-8"?>
<!-- Generator: Adobe Illustrator 17.0.0, SVG Export Plug-In . SVG Version: 6.00 Build 0)  -->
<!DOCTYPE svg PUBLIC "-//W3C//DTD SVG 1.1//EN" "http://www.w3.org/Graphics/SVG/1.1/DTD/svg11.dtd">
<svg version="1.1" id="Layer_2" xmlns="http://www.w3.org/2000/svg" xmlns:xlink="http://www.w3.org/1999/xlink" x="0px" y="0px"
	 width="48px" height="48px" viewBox="0 0 48 48" enable-background="new 0 0 48 48" xml:space="preserve">
<path fill="#010101" d="M42,46h-2.345L30.09,24l9.565-22H42c0.552,0,1-0.447,1-1c0-0.553-0.448-1-1-1h-2.983
	c-0.005,0-0.009,0-0.013,0H8.998C8.992,0,8.986,0,8.981,0H6C5.448,0,5,0.447,5,1c0,0.553,0.448,1,1,1h2.344l9.565,22L8.344,46H6
	c-0.552,0-1,0.447-1,1c0,0.553,0.448,1,1,1h3h30h3c0.552,0,1-0.447,1-1C43,46.447,42.552,46,42,46z M18.159,10.459
	C18.343,10.173,18.66,10,19,10h10c0.34,0,0.657,0.173,0.841,0.459c0.184,0.285,0.21,0.646,0.069,0.955l-5,11
	C24.748,22.771,24.392,23,24,23c-0.392,0-0.748-0.229-0.91-0.586l-5-11C17.949,11.105,17.975,10.744,18.159,10.459z M32.02,44
	c-0.007,0-0.013-0.001-0.02,0H16c-0.362,0-0.696-0.196-0.873-0.512c-0.177-0.316-0.169-0.704,0.021-1.013l8-13
	c0.364-0.592,1.339-0.592,1.703,0l7.909,12.853c0.161,0.178,0.259,0.413,0.259,0.672C33.02,43.553,32.572,44,32.02,44z"/>
</svg>
