<?xml version="1.0" encoding="utf-8"?>
<!-- Generator: Adobe Illustrator 17.0.0, SVG Export Plug-In . SVG Version: 6.00 Build 0)  -->
<!DOCTYPE svg PUBLIC "-//W3C//DTD SVG 1.1//EN" "http://www.w3.org/Graphics/SVG/1.1/DTD/svg11.dtd">
<svg version="1.1" id="Layer_2" xmlns="http://www.w3.org/2000/svg" xmlns:xlink="http://www.w3.org/1999/xlink" x="0px" y="0px"
	 width="48px" height="48px" viewBox="0 0 48 48" enable-background="new 0 0 48 48" xml:space="preserve">
<path fill="#010101" d="M24-0.001c-13.233,0-24,10.767-24,24c0,13.233,10.767,24,24,24s24-10.767,24-24
	C48,10.766,37.233-0.001,24-0.001z M33.899,12.686l2.828-2.828c0.391-0.391,1.024-0.391,1.414,0c0.391,0.391,0.391,1.023,0,1.414
	L35.313,14.1c-0.195,0.195-0.451,0.293-0.707,0.293c-0.256,0-0.512-0.098-0.707-0.293C33.509,13.709,33.509,13.076,33.899,12.686z
	 M5,23.999c-0.552,0-1-0.447-1-1c0-0.553,0.448-1,1-1h4c0.552,0,1,0.447,1,1c0,0.553-0.448,1-1,1H5z M14.1,35.313l-2.829,2.828
	c-0.195,0.195-0.451,0.293-0.707,0.293c-0.256,0-0.512-0.098-0.707-0.293c-0.391-0.391-0.391-1.023,0-1.414l2.829-2.828
	c0.391-0.391,1.023-0.391,1.414,0C14.491,34.289,14.491,34.922,14.1,35.313z M14.1,14.1c-0.195,0.195-0.451,0.293-0.707,0.293
	c-0.256,0-0.512-0.098-0.707-0.293l-2.829-2.828c-0.391-0.391-0.391-1.024,0-1.414c0.391-0.391,1.024-0.391,1.414,0l2.829,2.828
	C14.491,13.076,14.491,13.709,14.1,14.1z M25,42.999c0,0.553-0.448,1-1,1c-0.552,0-1-0.447-1-1v-4c0-0.553,0.448-1,1-1
	c0.552,0,1,0.447,1,1V42.999z M25,8.999c0,0.553-0.448,1-1,1c-0.552,0-1-0.447-1-1v-4c0-0.553,0.448-1,1-1c0.552,0,1,0.447,1,1
	V8.999z M38.142,38.141c-0.195,0.195-0.451,0.293-0.707,0.293c-0.256,0-0.512-0.098-0.707-0.293l-2.828-2.828
	c-0.391-0.391-0.391-1.024,0-1.414c0.391-0.391,1.024-0.391,1.414,0l2.828,2.828C38.532,37.117,38.532,37.75,38.142,38.141z
	 M43,23.999h-4c-0.552,0-1-0.447-1-1c0-0.553,0.448-1,1-1h4c0.552,0,1,0.447,1,1C44,23.552,43.552,23.999,43,23.999z"/>
</svg>
