<?xml version="1.0" encoding="utf-8"?>
<!-- Generator: Adobe Illustrator 17.0.0, SVG Export Plug-In . SVG Version: 6.00 Build 0)  -->
<!DOCTYPE svg PUBLIC "-//W3C//DTD SVG 1.1//EN" "http://www.w3.org/Graphics/SVG/1.1/DTD/svg11.dtd">
<svg version="1.1" id="Layer_2" xmlns="http://www.w3.org/2000/svg" xmlns:xlink="http://www.w3.org/1999/xlink" x="0px" y="0px"
	 width="48px" height="48px" viewBox="0 0 48 48" enable-background="new 0 0 48 48" xml:space="preserve">
<path fill="#010101" d="M40.04,12.375l2.46-2.461l0.793,0.793C43.488,10.902,43.744,11,44,11c0.256,0,0.512-0.098,0.707-0.293
	c0.391-0.391,0.391-1.023,0-1.414l-3-3c-0.391-0.391-1.023-0.391-1.414,0c-0.391,0.391-0.391,1.023,0,1.414L41.086,8.5l-2.508,2.508
	C35.152,8.095,30.784,6.277,26,6.051V2h1c0.552,0,1-0.447,1-1c0-0.553-0.448-1-1-1h-4c-0.552,0-1,0.447-1,1c0,0.553,0.448,1,1,1h1
	v4.051C12.886,6.578,4,15.758,4,27c0,11.579,9.42,21,21,21c11.58,0,21-9.421,21-21C46,21.316,43.721,16.16,40.04,12.375z M10,27
	c0-0.553,0.448-1,1-1h4c0.552,0,1,0.447,1,1c0,0.553-0.448,1-1,1h-4C10.448,28,10,27.553,10,27z M18.707,34.707l-3,3
	C15.512,37.902,15.256,38,15,38c-0.256,0-0.512-0.098-0.707-0.293c-0.391-0.391-0.391-1.023,0-1.414l3-3
	c0.391-0.391,1.023-0.391,1.414,0C19.098,33.684,19.098,34.316,18.707,34.707z M18.707,20.707C18.512,20.902,18.256,21,18,21
	c-0.256,0-0.512-0.098-0.707-0.293l-3-3c-0.391-0.391-0.391-1.023,0-1.414c0.391-0.391,1.023-0.391,1.414,0l3,3
	C19.098,19.684,19.098,20.316,18.707,20.707z M26,41c0,0.553-0.448,1-1,1c-0.552,0-1-0.447-1-1v-4c0-0.553,0.448-1,1-1
	c0.552,0,1,0.447,1,1V41z M26,17c0,0.553-0.448,1-1,1c-0.552,0-1-0.447-1-1v-4c0-0.553,0.448-1,1-1c0.552,0,1,0.447,1,1V17z
	 M31.293,19.293l3-3c0.391-0.391,1.023-0.391,1.414,0c0.391,0.391,0.391,1.023,0,1.414l-3,3C32.512,20.902,32.256,21,32,21
	c-0.256,0-0.512-0.098-0.707-0.293C30.902,20.316,30.902,19.684,31.293,19.293z M35.707,37.707C35.512,37.902,35.256,38,35,38
	c-0.256,0-0.512-0.098-0.707-0.293l-3-3c-0.391-0.391-0.391-1.023,0-1.414c0.391-0.391,1.023-0.391,1.414,0l3,3
	C36.098,36.684,36.098,37.316,35.707,37.707z M39,28h-4c-0.552,0-1-0.447-1-1c0-0.553,0.448-1,1-1h4c0.552,0,1,0.447,1,1
	C40,27.553,39.552,28,39,28z"/>
</svg>
