<?xml version="1.0" encoding="utf-8"?>
<!-- Generator: Adobe Illustrator 17.0.0, SVG Export Plug-In . SVG Version: 6.00 Build 0)  -->
<!DOCTYPE svg PUBLIC "-//W3C//DTD SVG 1.1//EN" "http://www.w3.org/Graphics/SVG/1.1/DTD/svg11.dtd">
<svg version="1.1" id="Layer_1" xmlns="http://www.w3.org/2000/svg" xmlns:xlink="http://www.w3.org/1999/xlink" x="0px" y="0px"
	 width="48px" height="48px" viewBox="0 0 48 48" enable-background="new 0 0 48 48" xml:space="preserve">
<g>
	<path fill="#010101" d="M38.809,14.605L41,12.414l0.293,0.293C41.488,12.902,41.744,13,42,13c0.256,0,0.512-0.098,0.707-0.293
		c0.391-0.391,0.391-1.023,0-1.414l-2-2c-0.391-0.391-1.023-0.391-1.414,0c-0.391,0.391-0.391,1.023,0,1.414L39.586,11l-2.191,2.191
		C33.845,9.977,29.155,8,24,8C12.972,8,4,16.972,4,28s8.972,20,20,20c11.028,0,20-8.972,20-20
		C44,22.845,42.023,18.155,38.809,14.605z M24.707,28.707C24.512,28.902,24.256,29,24,29c-0.256,0-0.512-0.098-0.707-0.293l-9-9
		c-0.391-0.391-0.391-1.023,0-1.414c0.391-0.391,1.023-0.391,1.414,0l9,9C25.098,27.684,25.098,28.316,24.707,28.707z"/>
	<path fill="#010101" d="M18,2h3v4c0,0.553,0.448,1,1,1h4c0.552,0,1-0.447,1-1V2h3c0.552,0,1-0.447,1-1s-0.448-1-1-1h-4h-4h-4
		c-0.552,0-1,0.447-1,1S17.448,2,18,2z"/>
</g>
</svg>
