<?xml version="1.0" encoding="utf-8"?>
<!-- Generator: Adobe Illustrator 17.0.0, SVG Export Plug-In . SVG Version: 6.00 Build 0)  -->
<!DOCTYPE svg PUBLIC "-//W3C//DTD SVG 1.1//EN" "http://www.w3.org/Graphics/SVG/1.1/DTD/svg11.dtd">
<svg version="1.1" id="Layer_2" xmlns="http://www.w3.org/2000/svg" xmlns:xlink="http://www.w3.org/1999/xlink" x="0px" y="0px"
	 width="48px" height="48px" viewBox="0 0 48 48" enable-background="new 0 0 48 48" xml:space="preserve">
<g>
	<path fill="#010101" d="M21,2c-0.552,0-1,0.447-1,1v22c0,0.553,0.448,1,1,1h24c0.552,0,1-0.447,1-1C46,12.317,34.785,2,21,2z
		 M36.142,13.273l-2.828,2.828c-0.195,0.195-0.451,0.293-0.707,0.293c-0.256,0-0.512-0.098-0.707-0.293
		c-0.391-0.391-0.391-1.024,0-1.414l2.828-2.828c0.391-0.391,1.023-0.391,1.414,0C36.532,12.249,36.532,12.882,36.142,13.273z"/>
	<path fill="#010101" d="M8,25c0-0.553-0.448-1-1-1H3c-0.552,0-1,0.447-1,1c0,0.553,0.448,1,1,1h4C7.552,26,8,25.553,8,25z"/>
	<path fill="#010101" d="M33.313,35.899c-0.391-0.391-1.023-0.391-1.414,0c-0.391,0.391-0.391,1.023,0,1.414l2.828,2.829
		c0.195,0.195,0.451,0.293,0.707,0.293c0.256,0,0.512-0.098,0.707-0.293c0.391-0.391,0.391-1.023,0-1.414L33.313,35.899z"/>
	<path fill="#010101" d="M9.271,11.858c-0.391-0.391-1.023-0.391-1.414,0c-0.391,0.391-0.391,1.023,0,1.414l2.829,2.828
		c0.195,0.195,0.451,0.293,0.707,0.293c0.256,0,0.512-0.098,0.707-0.293c0.391-0.391,0.391-1.024,0-1.414L9.271,11.858z"/>
	<path fill="#010101" d="M10.686,35.899l-2.829,2.829c-0.391,0.391-0.391,1.023,0,1.414c0.195,0.195,0.451,0.293,0.707,0.293
		c0.256,0,0.512-0.098,0.707-0.293l2.829-2.829c0.391-0.391,0.391-1.024,0-1.414C11.71,35.509,11.077,35.509,10.686,35.899z"/>
	<path fill="#010101" d="M21,40c-0.552,0-1,0.447-1,1v4c0,0.553,0.448,1,1,1s1-0.447,1-1v-4C22,40.447,21.552,40,21,40z"/>
</g>
</svg>
