<?xml version="1.0" encoding="utf-8"?>
<!-- Generator: Adobe Illustrator 17.0.0, SVG Export Plug-In . SVG Version: 6.00 Build 0)  -->
<!DOCTYPE svg PUBLIC "-//W3C//DTD SVG 1.1//EN" "http://www.w3.org/Graphics/SVG/1.1/DTD/svg11.dtd">
<svg version="1.1" id="Layer_2" xmlns="http://www.w3.org/2000/svg" xmlns:xlink="http://www.w3.org/1999/xlink" x="0px" y="0px"
	 width="48px" height="48px" viewBox="0 0 48 48" enable-background="new 0 0 48 48" xml:space="preserve">
<g>
	<path fill="#010101" d="M25,0c-0.552,0-1,0.447-1,1v21H1c-0.552,0-1,0.447-1,1c0,13.785,10.767,25,24,25c13.233,0,24-10.767,24-24
		C48,10.99,37.467,0,25,0z M14.1,35.314l-2.829,2.828c-0.195,0.195-0.451,0.293-0.707,0.293c-0.256,0-0.512-0.098-0.707-0.293
		c-0.391-0.391-0.391-1.023,0-1.414l2.829-2.828c0.391-0.391,1.023-0.391,1.414,0C14.491,34.29,14.491,34.923,14.1,35.314z
		 M33.899,12.687l2.829-2.828c0.391-0.391,1.023-0.391,1.414,0c0.391,0.391,0.391,1.023,0,1.414l-2.829,2.828
		c-0.195,0.195-0.451,0.293-0.707,0.293c-0.256,0-0.512-0.098-0.707-0.293C33.509,13.71,33.509,13.077,33.899,12.687z M26,43
		c0,0.553-0.448,1-1,1c-0.552,0-1-0.447-1-1v-4c0-0.553,0.448-1,1-1c0.552,0,1,0.447,1,1V43z M38.142,38.142
		c-0.195,0.195-0.451,0.293-0.707,0.293c-0.256,0-0.512-0.098-0.707-0.293l-2.829-2.828c-0.391-0.391-0.391-1.024,0-1.414
		c0.391-0.391,1.023-0.391,1.414,0l2.829,2.828C38.533,37.118,38.533,37.751,38.142,38.142z M43,24h-4c-0.552,0-1-0.447-1-1
		c0-0.553,0.448-1,1-1h4c0.552,0,1,0.447,1,1C44,23.553,43.552,24,43,24z"/>
	<path fill="#010101" d="M12.686,14.101c0.195,0.195,0.451,0.293,0.707,0.293c0.256,0,0.512-0.098,0.707-0.293
		c0.391-0.391,0.391-1.024,0-1.414l-2.829-2.828c-0.391-0.391-1.023-0.391-1.414,0c-0.391,0.391-0.391,1.023,0,1.414L12.686,14.101z
		"/>
</g>
</svg>
