<?xml version="1.0" encoding="utf-8"?>
<!-- Generator: Adobe Illustrator 17.0.0, SVG Export Plug-In . SVG Version: 6.00 Build 0)  -->
<!DOCTYPE svg PUBLIC "-//W3C//DTD SVG 1.1//EN" "http://www.w3.org/Graphics/SVG/1.1/DTD/svg11.dtd">
<svg version="1.1" id="Layer_2" xmlns="http://www.w3.org/2000/svg" xmlns:xlink="http://www.w3.org/1999/xlink" x="0px" y="0px"
	 width="48px" height="48px" viewBox="0 0 48 48" enable-background="new 0 0 48 48" xml:space="preserve">
<g>
	<path fill="#010101" d="M36.04,12.375l2.46-2.461l0.793,0.793C39.488,10.902,39.744,11,40,11c0.256,0,0.512-0.098,0.707-0.293
		c0.391-0.391,0.391-1.023,0-1.414l-3-3c-0.391-0.391-1.023-0.391-1.414,0c-0.391,0.391-0.391,1.023,0,1.414L37.086,8.5
		l-2.508,2.508C31.152,8.095,26.784,6.277,22,6.051V2h1c0.552,0,1-0.447,1-1c0-0.553-0.448-1-1-1h-4c-0.552,0-1,0.447-1,1
		c0,0.553,0.448,1,1,1h1v5v40c0,0.553,0.448,1,1,1c11.58,0,21-9.421,21-21C42,21.316,39.721,16.16,36.04,12.375z M27.293,19.293l3-3
		c0.391-0.391,1.023-0.391,1.414,0c0.391,0.391,0.391,1.023,0,1.414l-3,3C28.512,20.902,28.256,21,28,21
		c-0.256,0-0.512-0.098-0.707-0.293C26.902,20.316,26.902,19.684,27.293,19.293z M31.707,37.707C31.512,37.902,31.256,38,31,38
		c-0.256,0-0.512-0.098-0.707-0.293l-3-3c-0.391-0.391-0.391-1.023,0-1.414c0.391-0.391,1.023-0.391,1.414,0l3,3
		C32.098,36.684,32.098,37.316,31.707,37.707z M35,28h-4c-0.552,0-1-0.447-1-1c0-0.553,0.448-1,1-1h4c0.552,0,1,0.447,1,1
		C36,27.553,35.552,28,35,28z"/>
	<path fill="#010101" d="M12,27c0-0.553-0.448-1-1-1H7c-0.552,0-1,0.447-1,1c0,0.553,0.448,1,1,1h4C11.552,28,12,27.553,12,27z"/>
	<path fill="#010101" d="M11.707,16.293c-0.391-0.391-1.023-0.391-1.414,0c-0.391,0.391-0.391,1.023,0,1.414l3,3
		C13.488,20.902,13.744,21,14,21c0.256,0,0.512-0.098,0.707-0.293c0.391-0.391,0.391-1.023,0-1.414L11.707,16.293z"/>
	<path fill="#010101" d="M13.293,33.293l-3,3c-0.391,0.391-0.391,1.023,0,1.414C10.488,37.902,10.744,38,11,38
		c0.256,0,0.512-0.098,0.707-0.293l3-3c0.391-0.391,0.391-1.023,0-1.414C14.316,32.902,13.684,32.902,13.293,33.293z"/>
</g>
</svg>
