<?xml version="1.0" encoding="utf-8"?>
<!-- Generator: Adobe Illustrator 17.0.0, SVG Export Plug-In . SVG Version: 6.00 Build 0)  -->
<!DOCTYPE svg PUBLIC "-//W3C//DTD SVG 1.1//EN" "http://www.w3.org/Graphics/SVG/1.1/DTD/svg11.dtd">
<svg version="1.1" id="Layer_2" xmlns="http://www.w3.org/2000/svg" xmlns:xlink="http://www.w3.org/1999/xlink" x="0px" y="0px"
	 width="48px" height="48px" viewBox="0 0 48 48" enable-background="new 0 0 48 48" xml:space="preserve">
<g>
	<path fill="#010101" d="M31,0h-4c-0.552,0-1,0.447-1,1c0,0.553,0.448,1,1,1h1v4.025c-5.043,0.227-9.704,2.17-13.349,5.211
		L11.914,8.5l0.793-0.793c0.391-0.391,0.391-1.023,0-1.414c-0.391-0.391-1.023-0.391-1.414,0l-3,3c-0.391,0.391-0.391,1.023,0,1.414
		C8.488,10.902,8.744,11,9,11c0.256,0,0.512-0.098,0.707-0.293L10.5,9.914l2.673,2.673C9.373,16.381,7,21.481,7,27
		c0,11.383,10.075,21,22,21c0.552,0,1-0.447,1-1V7V2h1c0.552,0,1-0.447,1-1C32,0.447,31.552,0,31,0z M13,27c0-0.553,0.448-1,1-1h4
		c0.552,0,1,0.447,1,1c0,0.553-0.448,1-1,1h-4C13.448,28,13,27.553,13,27z M21.707,34.707l-3,3C18.512,37.902,18.256,38,18,38
		c-0.256,0-0.512-0.098-0.707-0.293c-0.391-0.391-0.391-1.023,0-1.414l3-3c0.391-0.391,1.023-0.391,1.414,0
		C22.098,33.684,22.098,34.316,21.707,34.707z M21.707,20.707C21.512,20.902,21.256,21,21,21c-0.256,0-0.512-0.098-0.707-0.293l-3-3
		c-0.391-0.391-0.391-1.023,0-1.414c0.391-0.391,1.023-0.391,1.414,0l3,3C22.098,19.684,22.098,20.316,21.707,20.707z"/>
	<path fill="#010101" d="M43,26h-4c-0.552,0-1,0.447-1,1c0,0.553,0.448,1,1,1h4c0.552,0,1-0.447,1-1C44,26.447,43.552,26,43,26z"/>
	<path fill="#010101" d="M36,21c0.256,0,0.512-0.098,0.707-0.293l3-3c0.391-0.391,0.391-1.023,0-1.414
		c-0.391-0.391-1.023-0.391-1.414,0l-3,3c-0.391,0.391-0.391,1.023,0,1.414C35.488,20.902,35.744,21,36,21z"/>
	<path fill="#010101" d="M36.707,33.293c-0.391-0.391-1.023-0.391-1.414,0c-0.391,0.391-0.391,1.023,0,1.414l3,3
		C38.488,37.902,38.744,38,39,38c0.256,0,0.512-0.098,0.707-0.293c0.391-0.391,0.391-1.023,0-1.414L36.707,33.293z"/>
</g>
</svg>
