<?xml version="1.0" encoding="utf-8"?>
<!-- Generator: Adobe Illustrator 17.0.0, SVG Export Plug-In . SVG Version: 6.00 Build 0)  -->
<!DOCTYPE svg PUBLIC "-//W3C//DTD SVG 1.1//EN" "http://www.w3.org/Graphics/SVG/1.1/DTD/svg11.dtd">
<svg version="1.1" id="Layer_2" xmlns="http://www.w3.org/2000/svg" xmlns:xlink="http://www.w3.org/1999/xlink" x="0px" y="0px"
	 width="48px" height="48px" viewBox="0 0 48 48" enable-background="new 0 0 48 48" xml:space="preserve">
<g>
	<path fill="#010101" d="M27,0C13.449,0,2,10.99,2,24c0,13.01,11.449,24,25,24c0.552,0,1-0.447,1-1V1C28,0.447,27.552,0,27,0z M7,24
		c-0.552,0-1-0.447-1-1c0-0.553,0.448-1,1-1h4c0.552,0,1,0.447,1,1c0,0.553-0.448,1-1,1H7z M16.101,35.314l-2.828,2.828
		c-0.195,0.195-0.451,0.293-0.707,0.293c-0.256,0-0.512-0.098-0.707-0.293c-0.391-0.391-0.391-1.023,0-1.414l2.828-2.828
		c0.391-0.391,1.024-0.391,1.414,0C16.491,34.29,16.491,34.923,16.101,35.314z M16.101,14.101c-0.195,0.195-0.451,0.293-0.707,0.293
		c-0.256,0-0.512-0.098-0.707-0.293l-2.828-2.828c-0.391-0.391-0.391-1.024,0-1.414c0.391-0.391,1.023-0.391,1.414,0l2.828,2.828
		C16.491,13.077,16.491,13.71,16.101,14.101z"/>
	<path fill="#010101" d="M45,22h-4c-0.552,0-1,0.447-1,1c0,0.553,0.448,1,1,1h4c0.552,0,1-0.447,1-1C46,22.447,45.552,22,45,22z"/>
	<path fill="#010101" d="M36.607,14.394c0.256,0,0.512-0.098,0.707-0.293l2.828-2.828c0.391-0.391,0.391-1.024,0-1.414
		c-0.391-0.391-1.023-0.391-1.414,0L35.9,12.687c-0.391,0.391-0.391,1.023,0,1.414C36.095,14.296,36.351,14.394,36.607,14.394z"/>
	<path fill="#010101" d="M37.314,33.899c-0.391-0.391-1.024-0.391-1.414,0c-0.391,0.391-0.391,1.023,0,1.414l2.828,2.828
		c0.195,0.195,0.451,0.293,0.707,0.293c0.256,0,0.512-0.098,0.707-0.293c0.391-0.391,0.391-1.023,0-1.414L37.314,33.899z"/>
</g>
</svg>
