<?xml version="1.0" encoding="utf-8"?>
<!-- Generator: Adobe Illustrator 17.0.0, SVG Export Plug-In . SVG Version: 6.00 Build 0)  -->
<!DOCTYPE svg PUBLIC "-//W3C//DTD SVG 1.1//EN" "http://www.w3.org/Graphics/SVG/1.1/DTD/svg11.dtd">
<svg version="1.1" id="Layer_2" xmlns="http://www.w3.org/2000/svg" xmlns:xlink="http://www.w3.org/1999/xlink" x="0px" y="0px"
	 width="48px" height="48px" viewBox="0 0 48 48" enable-background="new 0 0 48 48" xml:space="preserve">
<g>
	<path fill="#010101" d="M36.04,16.375l2.461-2.461l0.793,0.793C39.488,14.902,39.744,15,40,15c0.256,0,0.512-0.098,0.707-0.293
		c0.391-0.391,0.391-1.023,0-1.414l-3-3c-0.391-0.391-1.023-0.391-1.414,0c-0.391,0.391-0.391,1.023,0,1.414l0.793,0.793
		l-2.508,2.508c-3.426-2.913-7.794-4.731-12.578-4.958V6h1c0.552,0,1-0.447,1-1c0-0.553-0.448-1-1-1h-4c-0.552,0-1,0.447-1,1
		c0,0.553,0.448,1,1,1h1v5v20c0,0.553,0.448,1,1,1h20c0.552,0,1-0.447,1-1C42,25.316,39.721,20.16,36.04,16.375z M31.707,21.707
		l-3,3C28.512,24.902,28.256,25,28,25c-0.256,0-0.512-0.098-0.707-0.293c-0.391-0.391-0.391-1.023,0-1.414l3-3
		c0.391-0.391,1.023-0.391,1.414,0C32.098,20.684,32.098,21.316,31.707,21.707z"/>
	<path fill="#010101" d="M12,31c0-0.553-0.448-1-1-1H7c-0.552,0-1,0.447-1,1c0,0.553,0.448,1,1,1h4C11.552,32,12,31.553,12,31z"/>
	<path fill="#010101" d="M11.707,20.293c-0.391-0.391-1.023-0.391-1.414,0c-0.391,0.391-0.391,1.023,0,1.414l3,3
		C13.488,24.902,13.744,25,14,25c0.256,0,0.512-0.098,0.707-0.293c0.391-0.391,0.391-1.023,0-1.414L11.707,20.293z"/>
	<path fill="#010101" d="M21,40c-0.552,0-1,0.447-1,1v4c0,0.553,0.448,1,1,1c0.552,0,1-0.447,1-1v-4C22,40.447,21.552,40,21,40z"/>
	<path fill="#010101" d="M13.293,37.293l-3,3c-0.391,0.391-0.391,1.023,0,1.414C10.488,41.902,10.744,42,11,42
		c0.256,0,0.512-0.098,0.707-0.293l3-3c0.391-0.391,0.391-1.023,0-1.414C14.316,36.902,13.684,36.902,13.293,37.293z"/>
	<path fill="#010101" d="M28.707,37.293c-0.391-0.391-1.023-0.391-1.414,0c-0.391,0.391-0.391,1.023,0,1.414l2.999,3
		C30.488,41.902,30.744,42,30.999,42c0.256,0,0.512-0.098,0.707-0.293c0.391-0.391,0.391-1.023,0-1.414L28.707,37.293z"/>
</g>
</svg>
