<?xml version="1.0" encoding="utf-8"?>
<!-- Generator: Adobe Illustrator 17.0.0, SVG Export Plug-In . SVG Version: 6.00 Build 0)  -->
<!DOCTYPE svg PUBLIC "-//W3C//DTD SVG 1.1//EN" "http://www.w3.org/Graphics/SVG/1.1/DTD/svg11.dtd">
<svg version="1.1" id="Layer_1" xmlns="http://www.w3.org/2000/svg" xmlns:xlink="http://www.w3.org/1999/xlink" x="0px" y="0px"
	 width="48px" height="48px" viewBox="0 0 48 48" enable-background="new 0 0 48 48" xml:space="preserve">
<g>
	<path fill="#010101" d="M32,11.333V1c0-0.553-0.448-1-1-1H17c-0.552,0-1,0.447-1,1v10.333C11.801,13.995,9,18.671,9,24
		s2.801,10.005,7,12.667V47c0,0.553,0.448,1,1,1h14c0.552,0,1-0.447,1-1V36.667c4.199-2.662,7-7.337,7-12.667
		S36.199,13.995,32,11.333z M24,37c-7.169,0-13-5.832-13-13s5.831-13,13-13c7.168,0,13,5.832,13,13S31.168,37,24,37z"/>
	<path fill="#010101" d="M24,23.54V18c0-0.553-0.448-1-1-1c-0.552,0-1,0.447-1,1v6c0,0.292,0.127,0.569,0.349,0.759l7,6
		c0.189,0.162,0.42,0.241,0.65,0.241c0.282,0,0.562-0.118,0.76-0.35c0.359-0.419,0.311-1.05-0.108-1.409L24,23.54z"/>
</g>
</svg>
