<?xml version="1.0" encoding="utf-8"?>
<!-- Generator: Adobe Illustrator 17.0.0, SVG Export Plug-In . SVG Version: 6.00 Build 0)  -->
<!DOCTYPE svg PUBLIC "-//W3C//DTD SVG 1.1//EN" "http://www.w3.org/Graphics/SVG/1.1/DTD/svg11.dtd">
<svg version="1.1" id="Layer_1" xmlns="http://www.w3.org/2000/svg" xmlns:xlink="http://www.w3.org/1999/xlink" x="0px" y="0px"
	 width="48px" height="48px" viewBox="0 0 48 48" enable-background="new 0 0 48 48" xml:space="preserve">
<g>
	<path fill="#010101" d="M46.707,9.293L43.414,6l-3.707,3.707c-0.105,0.106-0.229,0.177-0.36,0.226L43.414,14l3.293-3.293
		C47.098,10.316,47.098,9.684,46.707,9.293z"/>
	<path fill="#010101" d="M38.293,8.293L42,4.586l-3.293-3.293c-0.391-0.391-1.023-0.391-1.414,0L34,4.586l4.067,4.067
		C38.116,8.523,38.188,8.398,38.293,8.293z"/>
	<path fill="#010101" d="M32.586,6l-4.797,4.797C26.282,10.288,24.676,10,23,10c-8.271,0-15,6.729-15,15
		c0,1.676,0.288,3.282,0.797,4.789l-8.504,8.504C0.105,38.48,0,38.734,0,39v8c0,0.553,0.448,1,1,1h8
		c0.265,0,0.519-0.105,0.707-0.293l8.505-8.504C19.718,39.712,21.324,40,23,40c8.271,0,15-6.729,15-15
		c0-1.676-0.288-3.282-0.798-4.789L42,15.414L32.586,6z M7,42c-0.556,0-1-0.447-1-1s0.444-1,1-1c0.549,0,1,0.447,1,1S7.549,42,7,42z
		 M10,39c-0.556,0-1-0.447-1-1s0.444-1,1-1c0.549,0,1,0.447,1,1S10.549,39,10,39z M23,38c-7.169,0-13-5.832-13-13s5.831-13,13-13
		c7.168,0,13,5.832,13,13S30.168,38,23,38z"/>
	<path fill="#010101" d="M24,24.586V20c0-0.553-0.448-1-1-1c-0.552,0-1,0.447-1,1v5c0,0.266,0.105,0.52,0.293,0.707l6,6
		C28.488,31.902,28.744,32,29,32c0.256,0,0.512-0.098,0.707-0.293c0.391-0.391,0.391-1.023,0-1.414L24,24.586z"/>
</g>
</svg>
