<?xml version="1.0" encoding="utf-8"?>
<!-- Generator: Adobe Illustrator 17.0.0, SVG Export Plug-In . SVG Version: 6.00 Build 0)  -->
<!DOCTYPE svg PUBLIC "-//W3C//DTD SVG 1.1//EN" "http://www.w3.org/Graphics/SVG/1.1/DTD/svg11.dtd">
<svg version="1.1" id="Layer_2" xmlns="http://www.w3.org/2000/svg" xmlns:xlink="http://www.w3.org/1999/xlink" x="0px" y="0px"
	 width="48px" height="48px" viewBox="0 0 48 48" enable-background="new 0 0 48 48" xml:space="preserve">
<g>
	<path fill="#010101" d="M33,10h1V9V5V4h-1h-4.343h-0.758c-0.053-0.259-0.131-0.508-0.223-0.751
		c-0.038-0.102-0.087-0.198-0.132-0.296c-0.068-0.151-0.138-0.302-0.221-0.445c-0.054-0.094-0.116-0.182-0.176-0.272
		c-0.09-0.135-0.184-0.268-0.286-0.393c-0.07-0.086-0.145-0.166-0.22-0.247c-0.107-0.114-0.218-0.224-0.335-0.328
		c-0.087-0.077-0.176-0.151-0.268-0.222c-0.118-0.091-0.242-0.175-0.368-0.256c-0.103-0.065-0.205-0.129-0.312-0.187
		c-0.13-0.07-0.266-0.13-0.403-0.189c-0.111-0.048-0.221-0.098-0.336-0.138c-0.156-0.054-0.319-0.092-0.481-0.13
		c-0.102-0.024-0.202-0.056-0.306-0.073C23.56,0.028,23.284,0,23,0c-0.284,0-0.56,0.028-0.831,0.074
		c-0.104,0.018-0.204,0.049-0.306,0.073c-0.163,0.038-0.325,0.077-0.481,0.13c-0.115,0.04-0.225,0.09-0.336,0.138
		c-0.137,0.059-0.273,0.118-0.403,0.189c-0.107,0.058-0.21,0.122-0.312,0.187c-0.126,0.081-0.25,0.165-0.368,0.256
		c-0.092,0.071-0.181,0.145-0.268,0.222c-0.117,0.104-0.228,0.213-0.335,0.328c-0.075,0.08-0.15,0.161-0.22,0.247
		c-0.103,0.125-0.196,0.258-0.286,0.393c-0.06,0.09-0.122,0.178-0.176,0.272c-0.083,0.143-0.152,0.294-0.221,0.445
		c-0.044,0.098-0.094,0.194-0.132,0.296C18.232,3.492,18.153,3.741,18.101,4h-0.758H13h-1v1v4v1h1H33z"/>
	<path fill="#010101" d="M41,4h-5v6v1v31H10V11v-1V4H5C4.448,4,4,4.447,4,5v42c0,0.553,0.448,1,1,1h36c0.552,0,1-0.447,1-1V5
		C42,4.447,41.552,4,41,4z"/>
	<path fill="#010101" d="M31,16H19c-0.552,0-1,0.447-1,1c0,0.553,0.448,1,1,1h12c0.552,0,1-0.447,1-1C32,16.447,31.552,16,31,16z"/>
	<path fill="#010101" d="M31,22H19c-0.552,0-1,0.447-1,1c0,0.553,0.448,1,1,1h12c0.552,0,1-0.447,1-1C32,22.447,31.552,22,31,22z"/>
	<path fill="#010101" d="M31,28H19c-0.552,0-1,0.447-1,1c0,0.553,0.448,1,1,1h12c0.552,0,1-0.447,1-1C32,28.447,31.552,28,31,28z"/>
	<path fill="#010101" d="M31,34H19c-0.552,0-1,0.447-1,1c0,0.553,0.448,1,1,1h12c0.552,0,1-0.447,1-1C32,34.447,31.552,34,31,34z"/>
	<path fill="#010101" d="M15,16h-1c-0.552,0-1,0.447-1,1c0,0.553,0.448,1,1,1h1c0.552,0,1-0.447,1-1C16,16.447,15.552,16,15,16z"/>
	<path fill="#010101" d="M15,22h-1c-0.552,0-1,0.447-1,1c0,0.553,0.448,1,1,1h1c0.552,0,1-0.447,1-1C16,22.447,15.552,22,15,22z"/>
	<path fill="#010101" d="M15,28h-1c-0.552,0-1,0.447-1,1c0,0.553,0.448,1,1,1h1c0.552,0,1-0.447,1-1C16,28.447,15.552,28,15,28z"/>
	<path fill="#010101" d="M15,34h-1c-0.552,0-1,0.447-1,1c0,0.553,0.448,1,1,1h1c0.552,0,1-0.447,1-1C16,34.447,15.552,34,15,34z"/>
</g>
</svg>
