<?xml version="1.0" encoding="utf-8"?>
<!-- Generator: Adobe Illustrator 17.0.0, SVG Export Plug-In . SVG Version: 6.00 Build 0)  -->
<!DOCTYPE svg PUBLIC "-//W3C//DTD SVG 1.1//EN" "http://www.w3.org/Graphics/SVG/1.1/DTD/svg11.dtd">
<svg version="1.1" id="Layer_2" xmlns="http://www.w3.org/2000/svg" xmlns:xlink="http://www.w3.org/1999/xlink" x="0px" y="0px"
	 width="48px" height="48px" viewBox="0 0 48 48" enable-background="new 0 0 48 48" xml:space="preserve">
<g>
	<path fill="#010101" d="M6,38V15v-3V6H1C0.448,6,0,6.447,0,7v32c0,2.757,2.243,5,5,5h18.028c-1.317-1.747-2.274-3.78-2.726-6H6z"/>
	<path fill="#010101" d="M34,7c0-0.553-0.448-1-1-1h-5v6v3v6.744c1.812-0.961,3.845-1.55,6-1.693V7z"/>
	<path fill="#010101" d="M21,18H11c-0.552,0-1,0.447-1,1c0,0.553,0.448,1,1,1h10c0.552,0,1-0.447,1-1C22,18.447,21.552,18,21,18z"/>
	<path fill="#010101" d="M21,22H11c-0.552,0-1,0.447-1,1c0,0.553,0.448,1,1,1h10c0.552,0,1-0.447,1-1C22,22.447,21.552,22,21,22z"/>
	<path fill="#010101" d="M22,27c0-0.553-0.448-1-1-1H11c-0.552,0-1,0.447-1,1c0,0.553,0.448,1,1,1h10C21.552,28,22,27.553,22,27z"/>
	<path fill="#010101" d="M11,30c-0.552,0-1,0.447-1,1c0,0.553,0.448,1,1,1h6c0.552,0,1-0.447,1-1c0-0.553-0.448-1-1-1H11z"/>
	<path fill="#010101" d="M9,14h16c0.552,0,1-0.447,1-1V5c0-0.553-0.448-1-1-1h-2.316H21.91c-0.043-0.236-0.106-0.469-0.18-0.698
		c-0.332-1.013-0.928-1.822-1.715-2.388c-0.021-0.015-0.041-0.032-0.063-0.047c-0.17-0.118-0.353-0.22-0.54-0.315
		c-0.055-0.028-0.111-0.056-0.168-0.082c-0.169-0.077-0.344-0.144-0.525-0.202c-0.113-0.036-0.232-0.066-0.352-0.095
		c-0.146-0.036-0.292-0.072-0.445-0.096C17.629,0.032,17.326,0,17,0s-0.629,0.032-0.922,0.076c-0.153,0.024-0.299,0.061-0.445,0.097
		c-0.119,0.029-0.238,0.058-0.351,0.094c-0.181,0.058-0.356,0.125-0.525,0.202c-0.057,0.026-0.113,0.054-0.168,0.082
		c-0.187,0.095-0.37,0.197-0.54,0.315c-0.022,0.015-0.042,0.032-0.063,0.047c-0.788,0.566-1.384,1.375-1.715,2.388
		C12.196,3.531,12.133,3.764,12.09,4h-0.774H9C8.448,4,8,4.447,8,5v8C8,13.553,8.448,14,9,14z"/>
	<path fill="#010101" d="M35,22c-7.169,0-13,5.832-13,13s5.831,13,13,13s13-5.832,13-13S42.168,22,35,22z M41.108,39.692
		c0.391,0.391,0.391,1.023,0,1.414c-0.195,0.195-0.451,0.293-0.707,0.293c-0.256,0-0.512-0.098-0.707-0.293l-4.693-4.692
		l-4.693,4.692c-0.195,0.195-0.451,0.293-0.707,0.293c-0.256,0-0.512-0.098-0.707-0.293c-0.391-0.391-0.391-1.023,0-1.414L33.587,35
		l-4.693-4.692c-0.391-0.391-0.391-1.023,0-1.414c0.391-0.391,1.023-0.391,1.414,0l4.693,4.692l4.693-4.692
		c0.391-0.391,1.023-0.391,1.414,0c0.391,0.391,0.391,1.023,0,1.414L36.415,35L41.108,39.692z"/>
</g>
</svg>
