<?xml version="1.0" encoding="utf-8"?>
<!-- Generator: Adobe Illustrator 17.0.0, SVG Export Plug-In . SVG Version: 6.00 Build 0)  -->
<!DOCTYPE svg PUBLIC "-//W3C//DTD SVG 1.1//EN" "http://www.w3.org/Graphics/SVG/1.1/DTD/svg11.dtd">
<svg version="1.1" id="Layer_2" xmlns="http://www.w3.org/2000/svg" xmlns:xlink="http://www.w3.org/1999/xlink" x="0px" y="0px"
	 width="48px" height="48px" viewBox="0 0 48 48" enable-background="new 0 0 48 48" xml:space="preserve">
<g>
	<path fill="#010101" d="M41,6h-5v6v3v25H14V15v-3V6H9C8.448,6,8,6.447,8,7v40c0,0.553,0.448,1,1,1h32c0.552,0,1-0.447,1-1V7
		C42,6.447,41.552,6,41,6z"/>
	<path fill="#010101" d="M17,14h16c0.552,0,1-0.447,1-1V5c0-0.553-0.448-1-1-1h-2.343h-0.758c-0.053-0.259-0.131-0.508-0.223-0.751
		c-0.038-0.102-0.088-0.198-0.132-0.296c-0.069-0.151-0.138-0.302-0.221-0.445c-0.054-0.094-0.116-0.182-0.176-0.272
		c-0.09-0.135-0.184-0.268-0.286-0.393c-0.07-0.086-0.145-0.166-0.22-0.247c-0.107-0.114-0.218-0.224-0.335-0.328
		c-0.087-0.077-0.176-0.151-0.268-0.222c-0.118-0.091-0.242-0.175-0.368-0.256c-0.103-0.065-0.205-0.129-0.312-0.187
		c-0.13-0.07-0.266-0.13-0.403-0.189c-0.111-0.048-0.221-0.098-0.336-0.138c-0.156-0.054-0.319-0.092-0.481-0.13
		c-0.102-0.024-0.202-0.056-0.306-0.073C25.56,0.028,25.284,0,25,0c-0.284,0-0.56,0.028-0.831,0.074
		c-0.104,0.018-0.204,0.049-0.306,0.073c-0.163,0.038-0.325,0.077-0.481,0.13c-0.115,0.04-0.225,0.09-0.336,0.138
		c-0.137,0.059-0.273,0.118-0.403,0.189c-0.107,0.058-0.21,0.122-0.312,0.187c-0.126,0.081-0.25,0.165-0.368,0.256
		c-0.092,0.071-0.181,0.145-0.268,0.222c-0.117,0.104-0.228,0.213-0.335,0.328c-0.075,0.08-0.15,0.161-0.22,0.247
		c-0.103,0.125-0.196,0.258-0.286,0.393c-0.06,0.09-0.122,0.178-0.176,0.272c-0.083,0.143-0.152,0.294-0.221,0.445
		c-0.045,0.098-0.094,0.194-0.132,0.296C20.232,3.492,20.153,3.741,20.101,4h-0.758H17c-0.552,0-1,0.447-1,1v8
		C16,13.553,16.448,14,17,14z"/>
</g>
</svg>
