<?xml version="1.0" encoding="utf-8"?>
<!-- Generator: Adobe Illustrator 17.0.0, SVG Export Plug-In . SVG Version: 6.00 Build 0)  -->
<!DOCTYPE svg PUBLIC "-//W3C//DTD SVG 1.1//EN" "http://www.w3.org/Graphics/SVG/1.1/DTD/svg11.dtd">
<svg version="1.1" id="Layer_2" xmlns="http://www.w3.org/2000/svg" xmlns:xlink="http://www.w3.org/1999/xlink" x="0px" y="0px"
	 width="48px" height="48px" viewBox="0 0 48 48" enable-background="new 0 0 48 48" xml:space="preserve">
<g>
	<path fill="#010101" d="M34,7c0-0.553-0.448-1-1-1h-5v6v3v19.753l6-5.999V7z"/>
	<path fill="#010101" d="M24.508,38.245L24.753,38H6V15v-3V6H1C0.448,6,0,6.447,0,7v32c0,2.757,2.243,5,5,5h17.733l1.521-5.322
		C24.3,38.514,24.388,38.365,24.508,38.245z"/>
	<path fill="#010101" d="M21,18H11c-0.552,0-1,0.447-1,1c0,0.553,0.448,1,1,1h10c0.552,0,1-0.447,1-1C22,18.447,21.552,18,21,18z"/>
	<path fill="#010101" d="M21,22H11c-0.552,0-1,0.447-1,1c0,0.553,0.448,1,1,1h10c0.552,0,1-0.447,1-1C22,22.447,21.552,22,21,22z"/>
	<path fill="#010101" d="M22,27c0-0.553-0.448-1-1-1H11c-0.552,0-1,0.447-1,1c0,0.553,0.448,1,1,1h10C21.552,28,22,27.553,22,27z"/>
	<path fill="#010101" d="M11,30c-0.552,0-1,0.447-1,1c0,0.553,0.448,1,1,1h6c0.552,0,1-0.447,1-1c0-0.553-0.448-1-1-1H11z"/>
	<path fill="#010101" d="M9,14h16c0.552,0,1-0.447,1-1V5c0-0.553-0.448-1-1-1h-2.316H21.91c-0.043-0.236-0.106-0.469-0.18-0.698
		c-0.332-1.013-0.928-1.822-1.715-2.388c-0.021-0.015-0.041-0.032-0.063-0.047c-0.17-0.118-0.353-0.22-0.54-0.315
		c-0.055-0.028-0.111-0.056-0.168-0.082c-0.169-0.077-0.344-0.144-0.525-0.202c-0.113-0.036-0.232-0.066-0.352-0.095
		c-0.146-0.036-0.292-0.072-0.445-0.096C17.629,0.032,17.326,0,17,0c-0.326,0-0.629,0.032-0.922,0.076
		c-0.153,0.024-0.299,0.061-0.445,0.097c-0.12,0.029-0.238,0.058-0.351,0.094c-0.181,0.058-0.356,0.125-0.525,0.202
		c-0.057,0.026-0.113,0.054-0.168,0.082c-0.187,0.095-0.37,0.197-0.54,0.315c-0.022,0.015-0.042,0.032-0.063,0.047
		c-0.788,0.566-1.383,1.375-1.715,2.388C12.196,3.531,12.133,3.764,12.09,4h-0.774H9C8.448,4,8,4.447,8,5v8C8,13.553,8.448,14,9,14z
		"/>
	<path fill="#010101" d="M47.707,29.29l-5-5c-0.391-0.391-1.023-0.391-1.414,0L38,27.583l6.414,6.414l3.293-3.293
		C47.894,30.517,48,30.263,48,29.997C48,29.731,47.894,29.478,47.707,29.29z"/>
	<path fill="#010101" d="M24.812,44L24.812,44l-0.778,2.726c-0.1,0.349-0.003,0.725,0.254,0.981C24.478,47.898,24.734,48,24.996,48
		c0.09,0,0.181-0.013,0.271-0.038l6.438-1.84l-5.832-5.832L24.812,44z"/>
	<polygon fill="#010101" points="34,31.582 34,31.582 28,37.581 28,37.582 27.582,38 27.581,38 26.995,38.585 33.409,45 
		40.924,37.486 43,35.411 36.586,28.997 	"/>
</g>
</svg>
