<?xml version="1.0" encoding="utf-8"?>
<!-- Generator: Adobe Illustrator 17.0.0, SVG Export Plug-In . SVG Version: 6.00 Build 0)  -->
<!DOCTYPE svg PUBLIC "-//W3C//DTD SVG 1.1//EN" "http://www.w3.org/Graphics/SVG/1.1/DTD/svg11.dtd">
<svg version="1.1" id="Layer_2" xmlns="http://www.w3.org/2000/svg" xmlns:xlink="http://www.w3.org/1999/xlink" x="0px" y="0px"
	 width="48px" height="48px" viewBox="0 0 48 48" enable-background="new 0 0 48 48" xml:space="preserve">
<path fill="#010101" d="M41.707,12.293l-12-12C29.519,0.106,29.265,0,29,0H7C6.448,0,6,0.447,6,1v46c0,0.553,0.448,1,1,1h34
	c0.552,0,1-0.447,1-1V13C42,12.734,41.894,12.481,41.707,12.293z M21.707,34.707l-5,5C16.512,39.902,16.256,40,16,40
	c-0.256,0-0.512-0.098-0.707-0.293l-3-3c-0.391-0.391-0.391-1.023,0-1.414c0.391-0.391,1.023-0.391,1.414,0L16,37.586l4.293-4.293
	c0.391-0.391,1.023-0.391,1.414,0C22.098,33.684,22.098,34.316,21.707,34.707z M21.707,25.707l-5,5C16.512,30.902,16.256,31,16,31
	c-0.256,0-0.512-0.098-0.707-0.293l-3-3c-0.391-0.391-0.391-1.023,0-1.414c0.391-0.391,1.023-0.391,1.414,0L16,28.586l4.293-4.293
	c0.391-0.391,1.023-0.391,1.414,0C22.098,24.684,22.098,25.316,21.707,25.707z M21.707,16.707l-5,5C16.512,21.902,16.256,22,16,22
	c-0.256,0-0.512-0.098-0.707-0.293l-3-3c-0.391-0.391-0.391-1.023,0-1.414c0.391-0.391,1.023-0.391,1.414,0L16,19.586l4.293-4.293
	c0.391-0.391,1.023-0.391,1.414,0C22.098,15.684,22.098,16.316,21.707,16.707z M33,38h-8c-0.552,0-1-0.447-1-1c0-0.553,0.448-1,1-1
	h8c0.552,0,1,0.447,1,1C34,37.553,33.552,38,33,38z M33,30h-8c-0.552,0-1-0.447-1-1c0-0.553,0.448-1,1-1h8c0.552,0,1,0.447,1,1
	C34,29.553,33.552,30,33,30z M33,22h-8c-0.552,0-1-0.447-1-1c0-0.553,0.448-1,1-1h8c0.552,0,1,0.447,1,1C34,21.553,33.552,22,33,22z
	 M29,13V1l12,12H29z"/>
</svg>
