<?xml version="1.0" encoding="utf-8"?>
<!-- Generator: Adobe Illustrator 17.0.0, SVG Export Plug-In . SVG Version: 6.00 Build 0)  -->
<!DOCTYPE svg PUBLIC "-//W3C//DTD SVG 1.1//EN" "http://www.w3.org/Graphics/SVG/1.1/DTD/svg11.dtd">
<svg version="1.1" id="Layer_2" xmlns="http://www.w3.org/2000/svg" xmlns:xlink="http://www.w3.org/1999/xlink" x="0px" y="0px"
	 width="48px" height="48px" viewBox="0 0 48 48" enable-background="new 0 0 48 48" xml:space="preserve">
<g>
	<rect x="28" y="22" fill="#010101" width="4" height="16"/>
	<rect x="22" y="34" fill="#010101" width="4" height="4"/>
	<rect x="16" y="30" fill="#010101" width="4" height="8"/>
	<path fill="#010101" d="M41.707,12.293l-12-12C29.519,0.105,29.265,0,29,0H7C6.448,0,6,0.447,6,1v46c0,0.553,0.448,1,1,1h34
		c0.552,0,1-0.447,1-1V13C42,12.734,41.894,12.481,41.707,12.293z M34,39c0,0.553-0.448,1-1,1H15c-0.552,0-1-0.447-1-1V16
		c0-0.553,0.448-1,1-1c0.552,0,1,0.447,1,1v12h5c0.552,0,1,0.447,1,1v3h4V21c0-0.553,0.448-1,1-1h6c0.552,0,1,0.447,1,1V39z M29,13
		V1l12,12H29z"/>
</g>
</svg>
