<?xml version="1.0" encoding="utf-8"?>
<!-- Generator: Adobe Illustrator 17.0.0, SVG Export Plug-In . SVG Version: 6.00 Build 0)  -->
<!DOCTYPE svg PUBLIC "-//W3C//DTD SVG 1.1//EN" "http://www.w3.org/Graphics/SVG/1.1/DTD/svg11.dtd">
<svg version="1.1" id="Layer_2" xmlns="http://www.w3.org/2000/svg" xmlns:xlink="http://www.w3.org/1999/xlink" x="0px" y="0px"
	 width="48px" height="48px" viewBox="0 0 48 48" enable-background="new 0 0 48 48" xml:space="preserve">
<path fill="#010101" d="M39.707,8.293l-8-8C31.519,0.105,31.265,0,31,0h-5v26c0,0.404-0.244,0.77-0.617,0.924
	C25.259,26.976,25.129,27,25,27c-0.26,0-0.516-0.102-0.707-0.293L20,22.414l-4.293,4.293c-0.287,0.286-0.716,0.372-1.09,0.217
	C14.244,26.77,14,26.404,14,26V0H5C4.448,0,4,0.447,4,1v46c0,0.553,0.448,1,1,1h34c0.552,0,1-0.447,1-1V9
	C40,8.734,39.894,8.481,39.707,8.293z"/>
</svg>
