<?xml version="1.0" encoding="utf-8"?>
<!-- Generator: Adobe Illustrator 17.0.0, SVG Export Plug-In . SVG Version: 6.00 Build 0)  -->
<!DOCTYPE svg PUBLIC "-//W3C//DTD SVG 1.1//EN" "http://www.w3.org/Graphics/SVG/1.1/DTD/svg11.dtd">
<svg version="1.1" id="Layer_2" xmlns="http://www.w3.org/2000/svg" xmlns:xlink="http://www.w3.org/1999/xlink" x="0px" y="0px"
	 width="48px" height="48px" viewBox="0 0 48 48" enable-background="new 0 0 48 48" xml:space="preserve">
<g>
	<path fill="#010101" d="M28,9c0-0.266-0.105-0.519-0.293-0.707l-8-8C19.52,0.106,19.265,0,19,0H1C0.448,0,0,0.447,0,1v34
		c0,0.553,0.448,1,1,1h17V12c0-0.553,0.448-1,1-1h9V9z M19,9V1l8,8H19z"/>
	<path fill="#010101" d="M47.661,20.25l-8.005-7.005C39.474,13.088,39.241,13,39,13H21h-1v1v33c0,0.553,0.448,1,1,1h26
		c0.552,0,1-0.447,1-1V21C48,20.713,47.876,20.441,47.661,20.25z M39,21v-7l8,7H39z"/>
	<path fill="#010101" d="M31.294,5.708l3.999,3.999C35.488,9.902,35.744,10,36,10s0.512-0.098,0.707-0.293
		c0.391-0.391,0.391-1.023,0-1.414L34.414,6H42c1.103,0,2,0.898,2,2v3c0,0.553,0.448,1,1,1s1-0.447,1-1V8c0-2.206-1.794-4-4-4
		h-7.586l2.293-2.293c0.391-0.391,0.391-1.023,0-1.414c-0.391-0.391-1.023-0.391-1.414,0l-3.999,3.999
		c-0.093,0.093-0.166,0.203-0.217,0.326c-0.101,0.244-0.101,0.52,0,0.764C31.128,5.505,31.201,5.616,31.294,5.708z"/>
	<path fill="#010101" d="M16.706,42.292l-3.999-3.999c-0.391-0.391-1.023-0.391-1.414,0c-0.391,0.391-0.391,1.023,0,1.414L13.586,42
		H6c-1.103,0-2-0.897-2-2v-1c0-0.553-0.448-1-1-1c-0.552,0-1,0.447-1,1v1c0,2.206,1.794,4,4,4h7.586l-2.293,2.293
		c-0.391,0.391-0.391,1.023,0,1.414C11.488,47.902,11.744,48,12,48s0.512-0.098,0.707-0.293l3.999-3.999
		c0.093-0.092,0.166-0.203,0.217-0.326c0.101-0.244,0.101-0.52,0-0.764C16.872,42.495,16.799,42.385,16.706,42.292z"/>
</g>
</svg>
