<?xml version="1.0" encoding="utf-8"?>
<!-- Generator: Adobe Illustrator 17.0.0, SVG Export Plug-In . SVG Version: 6.00 Build 0)  -->
<!DOCTYPE svg PUBLIC "-//W3C//DTD SVG 1.1//EN" "http://www.w3.org/Graphics/SVG/1.1/DTD/svg11.dtd">
<svg version="1.1" id="Layer_2" xmlns="http://www.w3.org/2000/svg" xmlns:xlink="http://www.w3.org/1999/xlink" x="0px" y="0px"
	 width="48px" height="48px" viewBox="0 0 48 48" enable-background="new 0 0 48 48" xml:space="preserve">
<path fill="#010101" d="M41.707,12.293l-12-12C29.519,0.106,29.265,0,29,0H7C6.448,0,6,0.447,6,1v46c0,0.553,0.448,1,1,1h34
	c0.552,0,1-0.447,1-1V13C42,12.734,41.894,12.481,41.707,12.293z M35,40H13c-0.552,0-1-0.447-1-1V16c0-0.553,0.448-1,1-1
	c0.552,0,1,0.447,1,1v14.586l6.293-6.293c0.337-0.337,0.864-0.391,1.262-0.125l5.295,3.53l6.921-7.382
	c0.377-0.403,1.01-0.424,1.414-0.046c0.403,0.378,0.423,1.011,0.045,1.413l-7.5,8c-0.334,0.356-0.878,0.42-1.284,0.148l-5.318-3.545
	L14,33.414V38h21c0.552,0,1,0.447,1,1C36,39.553,35.552,40,35,40z M29,13V1l12,12H29z"/>
</svg>
