<?xml version="1.0" encoding="utf-8"?>
<!-- Generator: Adobe Illustrator 17.0.0, SVG Export Plug-In . SVG Version: 6.00 Build 0)  -->
<!DOCTYPE svg PUBLIC "-//W3C//DTD SVG 1.1//EN" "http://www.w3.org/Graphics/SVG/1.1/DTD/svg11.dtd">
<svg version="1.1" id="Layer_2" xmlns="http://www.w3.org/2000/svg" xmlns:xlink="http://www.w3.org/1999/xlink" x="0px" y="0px"
	 width="48px" height="48px" viewBox="0 0 48 48" enable-background="new 0 0 48 48" xml:space="preserve">
<g>
	<path fill="#010101" d="M7,44V10H5c-0.552,0-1,0.447-1,1v36c0,0.553,0.448,1,1,1h28c0.552,0,1-0.447,1-1v-2H8
		C7.448,45,7,44.553,7,44z"/>
	<path fill="#010101" d="M13,40c-0.552,0-1-0.447-1-1V6h-2C9.448,6,9,6.447,9,7v35v1h1h27c0.552,0,1-0.447,1-1l-0.001-2H13z"/>
	<path fill="#010101" d="M41.707,12.293L38.12,8.706l-2.147-2.147L35.414,6l-2-2l-1.707-1.707C31.519,2.106,31.265,2,31,2H15
		c-0.552,0-1,0.447-1,1v34v1h1h26c0.552,0,1-0.447,1-1V13C42,12.734,41.894,12.481,41.707,12.293z M31,13V3l10,10H31z"/>
</g>
</svg>
