<?xml version="1.0" encoding="utf-8"?>
<!-- Generator: Adobe Illustrator 17.0.0, SVG Export Plug-In . SVG Version: 6.00 Build 0)  -->
<!DOCTYPE svg PUBLIC "-//W3C//DTD SVG 1.1//EN" "http://www.w3.org/Graphics/SVG/1.1/DTD/svg11.dtd">
<svg version="1.1" id="Layer_2" xmlns="http://www.w3.org/2000/svg" xmlns:xlink="http://www.w3.org/1999/xlink" x="0px" y="0px"
	 width="48px" height="48px" viewBox="0 0 48 48" enable-background="new 0 0 48 48" xml:space="preserve">
<g>
	<path fill="#010101" d="M34,23.185V11c0-0.266-0.106-0.519-0.293-0.707l-10-10C23.519,0.106,23.265,0,23,0H1C0.448,0,0,0.447,0,1
		v42c0,0.553,0.448,1,1,1h24.896V32.242c0-1.18,0.931-1.862,1.862-1.862h1.416C29.174,27.316,31.41,24.646,34,23.185z M23,11V1
		l10,10H23z"/>
	<path fill="#010101" d="M47,32h-1.483v-0.923c0-3.793-3.724-7.517-7.517-7.517c-3.794,0-7.517,3.724-7.517,7.517V32H29
		c-0.552,0-1,0.447-1,1v14c0,0.553,0.448,1,1,1h18c0.552,0,1-0.447,1-1V33C48,32.447,47.552,32,47,32z M39,39.67v3.557
		c0,0.553-0.448,1-1,1c-0.552,0-1-0.447-1-1v-3.561c-0.374-0.294-0.624-0.741-0.634-1.248c-0.017-0.901,0.702-1.648,1.603-1.666h0
		c0.915,0,1.648,0.72,1.665,1.604C39.644,38.889,39.391,39.365,39,39.67z M32.483,32.242L32.483,32.242l0-1.164
		c0-2.681,2.836-5.517,5.517-5.517c2.681,0,5.517,2.836,5.517,5.517v1.164l0,0H32.483z"/>
</g>
</svg>
