<?xml version="1.0" encoding="utf-8"?>
<!-- Generator: Adobe Illustrator 17.0.0, SVG Export Plug-In . SVG Version: 6.00 Build 0)  -->
<!DOCTYPE svg PUBLIC "-//W3C//DTD SVG 1.1//EN" "http://www.w3.org/Graphics/SVG/1.1/DTD/svg11.dtd">
<svg version="1.1" id="Layer_2" xmlns="http://www.w3.org/2000/svg" xmlns:xlink="http://www.w3.org/1999/xlink" x="0px" y="0px"
	 width="48px" height="48px" viewBox="0 0 48 48" enable-background="new 0 0 48 48" xml:space="preserve">
<path fill="#010101" d="M41.707,12.293l-12-12C29.519,0.106,29.265,0,29,0H7C6.448,0,6,0.447,6,1v46c0,0.553,0.448,1,1,1h34
	c0.552,0,1-0.447,1-1V13C42,12.734,41.894,12.481,41.707,12.293z M16,16c2.206,0,4,1.794,4,4c0,2.206-1.794,4-4,4
	c-2.206,0-4-1.794-4-4C12,17.794,13.794,16,16,16z M35.831,41.557C35.645,41.834,35.333,42,35,42H13
	c-0.347,0-0.669-0.18-0.851-0.475c-0.182-0.295-0.199-0.663-0.044-0.973l5-10c0.144-0.287,0.417-0.488,0.734-0.54
	c0.316-0.057,0.64,0.052,0.867,0.28l3.055,3.055l5.36-9.826c0.184-0.339,0.553-0.55,0.932-0.52c0.385,0.021,0.724,0.261,0.871,0.617
	l7,17C36.052,40.928,36.017,41.279,35.831,41.557z M29,13V1l12,12H29z"/>
</svg>
