<?xml version="1.0" encoding="utf-8"?>
<!-- Generator: Adobe Illustrator 17.0.0, SVG Export Plug-In . SVG Version: 6.00 Build 0)  -->
<!DOCTYPE svg PUBLIC "-//W3C//DTD SVG 1.1//EN" "http://www.w3.org/Graphics/SVG/1.1/DTD/svg11.dtd">
<svg version="1.1" id="Layer_2" xmlns="http://www.w3.org/2000/svg" xmlns:xlink="http://www.w3.org/1999/xlink" x="0px" y="0px"
	 width="48px" height="48px" viewBox="0 0 48 48" enable-background="new 0 0 48 48" xml:space="preserve">
<g>
	<path fill="#010101" d="M15.707,0.293C15.519,0.106,15.265,0,15,0H5C4.448,0,4,0.447,4,1v20c0,0.553,0.448,1,1,1h16
		c0.552,0,1-0.447,1-1V7c0-0.266-0.106-0.519-0.293-0.707L15.707,0.293z M15,7V1l6,6H15z"/>
	<path fill="#010101" d="M43.707,6.293l-6-6C37.519,0.106,37.265,0,37,0H27c-0.552,0-1,0.447-1,1v20c0,0.553,0.448,1,1,1h16
		c0.552,0,1-0.447,1-1V7C44,6.734,43.894,6.481,43.707,6.293z M37,7V1l6,6H37z"/>
	<path fill="#010101" d="M15.707,26.293C15.519,26.106,15.265,26,15,26H5c-0.552,0-1,0.447-1,1v20c0,0.553,0.448,1,1,1h16
		c0.552,0,1-0.447,1-1V33c0-0.266-0.106-0.519-0.293-0.707L15.707,26.293z M15,33v-6l6,6H15z"/>
	<path fill="#010101" d="M37.707,26.293C37.519,26.106,37.265,26,37,26H27c-0.552,0-1,0.447-1,1v20c0,0.553,0.448,1,1,1h16
		c0.552,0,1-0.447,1-1V33c0-0.266-0.106-0.519-0.293-0.707L37.707,26.293z M37,33v-6l6,6H37z"/>
</g>
</svg>
