<?xml version="1.0" encoding="utf-8"?>
<!-- Generator: Adobe Illustrator 17.0.0, SVG Export Plug-In . SVG Version: 6.00 Build 0)  -->
<!DOCTYPE svg PUBLIC "-//W3C//DTD SVG 1.1//EN" "http://www.w3.org/Graphics/SVG/1.1/DTD/svg11.dtd">
<svg version="1.1" id="Layer_2" xmlns="http://www.w3.org/2000/svg" xmlns:xlink="http://www.w3.org/1999/xlink" x="0px" y="0px"
	 width="48px" height="48px" viewBox="0 0 48 48" enable-background="new 0 0 48 48" xml:space="preserve">
<g>
	<path fill="#010101" d="M11,42c-0.552,0-1-0.447-1-1V10V8H9C8.448,8,8,8.447,8,9v34c0,0.553,0.448,1,1,1h26c0.552,0,1-0.447,1-1v-1
		h-2H11z"/>
	<path fill="#010101" d="M39.707,14.293l-10-10C29.519,4.106,29.265,4,29,4H13c-0.552,0-1,0.447-1,1v34v1h1h26c0.552,0,1-0.447,1-1
		V15C40,14.734,39.894,14.481,39.707,14.293z M29,15V5l10,10H29z"/>
</g>
</svg>
