<?xml version="1.0" encoding="utf-8"?>
<!-- Generator: Adobe Illustrator 17.0.0, SVG Export Plug-In . SVG Version: 6.00 Build 0)  -->
<!DOCTYPE svg PUBLIC "-//W3C//DTD SVG 1.1//EN" "http://www.w3.org/Graphics/SVG/1.1/DTD/svg11.dtd">
<svg version="1.1" id="Layer_2" xmlns="http://www.w3.org/2000/svg" xmlns:xlink="http://www.w3.org/1999/xlink" x="0px" y="0px"
	 width="48px" height="48px" viewBox="0 0 48 48" enable-background="new 0 0 48 48" xml:space="preserve">
<g>
	<path fill="#010101" d="M26.135,28.001c-0.753-1.953-0.587-4.164,0.473-6c1.053-1.823,2.881-3.071,4.954-3.404
		C32.876,16.963,34.876,16,37,16c1.053,0,2.076,0.238,3,0.677V11c0-0.266-0.106-0.519-0.293-0.707l-10-10
		C29.519,0.106,29.265,0,29,0H7C6.448,0,6,0.447,6,1v42c0,0.553,0.448,1,1,1h21v-8.297c-0.545-0.487-1.02-1.056-1.393-1.703
		C25.549,32.165,25.382,29.955,26.135,28.001z M29,1l10,10H29V1z"/>
	<path fill="#010101" d="M37,40c-2.122,0-4.122-0.963-5.437-2.596c-0.541-0.087-1.065-0.239-1.563-0.445V47
		c0,0.388,0.225,0.741,0.576,0.905c0.352,0.165,0.767,0.111,1.064-0.137l1.849-1.541l2.871-2.393
		c0.186-0.154,0.413-0.231,0.64-0.231c0.227,0,0.455,0.077,0.64,0.231l2.871,2.393l1.849,1.541C42.543,47.921,42.77,48,43,48
		c0.144,0,0.289-0.031,0.424-0.095C43.775,47.741,44,47.388,44,47V36.959c-0.498,0.205-1.021,0.357-1.562,0.444
		C41.123,39.037,39.123,40,37,40z"/>
	<path fill="#010101" d="M46.32,30.297c-0.004-0.1-0.011-0.199-0.021-0.298c-0.01-0.1-0.023-0.199-0.039-0.298
		c-0.019-0.113-0.042-0.226-0.069-0.338c-0.02-0.085-0.041-0.17-0.066-0.254c-0.037-0.124-0.08-0.247-0.127-0.368
		c-0.028-0.073-0.054-0.146-0.085-0.218c-0.078-0.178-0.162-0.354-0.262-0.524c0.099-0.169,0.183-0.344,0.26-0.521
		c0.033-0.075,0.06-0.151,0.089-0.227c0.045-0.118,0.088-0.238,0.124-0.359c0.025-0.087,0.047-0.174,0.067-0.261
		c0.026-0.11,0.049-0.22,0.067-0.331c0.016-0.101,0.03-0.201,0.04-0.302c0.01-0.098,0.016-0.196,0.021-0.295
		c0.005-0.111,0.007-0.222,0.004-0.333c-0.002-0.09-0.009-0.181-0.017-0.271c-0.009-0.115-0.019-0.23-0.036-0.344
		c-0.014-0.092-0.034-0.183-0.054-0.274c-0.023-0.109-0.044-0.218-0.074-0.326c-0.031-0.11-0.071-0.217-0.11-0.325
		c-0.031-0.086-0.057-0.174-0.093-0.259c-0.081-0.193-0.173-0.384-0.28-0.569c-0.106-0.184-0.225-0.358-0.352-0.525
		c-0.041-0.054-0.088-0.102-0.132-0.155c-0.09-0.109-0.181-0.217-0.28-0.317c-0.056-0.057-0.117-0.108-0.175-0.162
		c-0.094-0.087-0.189-0.173-0.29-0.252c-0.066-0.052-0.136-0.1-0.204-0.149c-0.101-0.071-0.202-0.141-0.308-0.205
		c-0.074-0.045-0.15-0.086-0.226-0.127c-0.106-0.057-0.214-0.111-0.325-0.16c-0.081-0.036-0.162-0.07-0.245-0.102
		c-0.112-0.043-0.226-0.082-0.341-0.116c-0.085-0.026-0.17-0.051-0.256-0.072c-0.12-0.03-0.241-0.052-0.364-0.073
		c-0.085-0.014-0.169-0.03-0.255-0.04c-0.19-0.022-0.382-0.038-0.576-0.038c-0.002,0-0.003,0-0.004,0
		c-0.097-0.17-0.207-0.331-0.322-0.486c-0.048-0.065-0.099-0.126-0.15-0.188c-0.081-0.099-0.163-0.196-0.251-0.289
		c-0.062-0.065-0.126-0.126-0.191-0.188c-0.083-0.078-0.167-0.153-0.255-0.225C39.279,18.413,38.168,18,37,18
		c-1.626,0-3.148,0.788-4.075,2.109c-0.169,0.24-0.433,0.393-0.725,0.421c-1.613,0.153-3.056,1.076-3.861,2.47
		c-0.811,1.406-0.89,3.118-0.212,4.58c0.124,0.267,0.124,0.574,0,0.841c-0.588,1.271-0.604,2.729-0.067,4.01
		c0.081,0.193,0.173,0.383,0.28,0.569c0.106,0.184,0.225,0.359,0.352,0.525c0.04,0.053,0.087,0.101,0.129,0.152
		c0.091,0.11,0.183,0.219,0.283,0.32c0.055,0.056,0.114,0.106,0.172,0.159c0.095,0.088,0.191,0.175,0.293,0.255
		c0.066,0.052,0.134,0.098,0.202,0.147c0.075,0.053,0.151,0.103,0.228,0.152v0.009c0.656,0.413,1.408,0.676,2.202,0.752
		c0.292,0.027,0.556,0.181,0.724,0.421C33.853,37.212,35.376,38,37,38c1.625,0,3.148-0.789,4.075-2.109
		c0.168-0.24,0.433-0.394,0.725-0.421c0.794-0.075,1.545-0.339,2.201-0.751V34.71c0.077-0.048,0.153-0.098,0.227-0.151
		c0.069-0.049,0.139-0.097,0.205-0.149c0.1-0.079,0.194-0.164,0.287-0.25c0.06-0.055,0.121-0.107,0.178-0.165
		c0.096-0.097,0.184-0.203,0.272-0.308c0.046-0.055,0.096-0.107,0.14-0.164c0.114-0.15,0.219-0.308,0.316-0.471
		c0.011-0.018,0.024-0.034,0.035-0.052c0.012-0.021,0.021-0.045,0.033-0.066c0.091-0.164,0.175-0.33,0.246-0.5
		c0.039-0.093,0.068-0.188,0.101-0.282c0.036-0.101,0.073-0.201,0.102-0.303c0.031-0.111,0.053-0.224,0.077-0.337
		c0.018-0.088,0.038-0.176,0.052-0.265c0.017-0.115,0.028-0.232,0.037-0.347c0.007-0.09,0.014-0.18,0.017-0.27
		C46.327,30.519,46.325,30.408,46.32,30.297z M37,32c-2.206,0-4-1.794-4-4c0-2.206,1.794-4,4-4c2.206,0,4,1.794,4,4
		C41,30.206,39.206,32,37,32z"/>
</g>
</svg>
