<?xml version="1.0" encoding="utf-8"?>
<!-- Generator: Adobe Illustrator 17.0.0, SVG Export Plug-In . SVG Version: 6.00 Build 0)  -->
<!DOCTYPE svg PUBLIC "-//W3C//DTD SVG 1.1//EN" "http://www.w3.org/Graphics/SVG/1.1/DTD/svg11.dtd">
<svg version="1.1" id="Layer_2" xmlns="http://www.w3.org/2000/svg" xmlns:xlink="http://www.w3.org/1999/xlink" x="0px" y="0px"
	 width="48px" height="48px" viewBox="0 0 48 48" enable-background="new 0 0 48 48" xml:space="preserve">
<g>
	<polygon fill="#010101" points="34,31.59 34,31.589 26.999,38.588 33.414,45.003 40.929,37.489 43.004,35.414 36.59,29 	"/>
	<path fill="#010101" d="M24.512,38.248L34,28.761V11c0-0.266-0.106-0.519-0.293-0.707l-10-10C23.519,0.106,23.265,0,23,0H1
		C0.448,0,0,0.447,0,1v42c0,0.553,0.448,1,1,1h21.738l1.52-5.319C24.304,38.517,24.392,38.368,24.512,38.248z M23,1l10,10H23V1z"/>
	<path fill="#010101" d="M47.711,29.293l-5-5c-0.391-0.391-1.023-0.391-1.414,0l-3.293,3.292L44.418,34l3.293-3.293
		c0.188-0.187,0.293-0.441,0.293-0.707C48.004,29.734,47.899,29.481,47.711,29.293z"/>
	<path fill="#010101" d="M24.818,44L24.818,44l-0.779,2.729c-0.1,0.349-0.002,0.725,0.255,0.981c0.19,0.19,0.445,0.293,0.707,0.293
		c0.09,0,0.181-0.013,0.271-0.038l6.437-1.84l-5.832-5.832L24.818,44z"/>
</g>
</svg>
