<?xml version="1.0" encoding="utf-8"?>
<!-- Generator: Adobe Illustrator 17.0.0, SVG Export Plug-In . SVG Version: 6.00 Build 0)  -->
<!DOCTYPE svg PUBLIC "-//W3C//DTD SVG 1.1//EN" "http://www.w3.org/Graphics/SVG/1.1/DTD/svg11.dtd">
<svg version="1.1" id="Layer_2" xmlns="http://www.w3.org/2000/svg" xmlns:xlink="http://www.w3.org/1999/xlink" x="0px" y="0px"
	 width="48px" height="48px" viewBox="0 0 48 48" enable-background="new 0 0 48 48" xml:space="preserve">
<g>
	<path fill="#010101" d="M34,11c0-0.266-0.106-0.519-0.293-0.707l-10-10C23.519,0.106,23.265,0,23,0H1C0.448,0,0,0.447,0,1v42
		c0,0.553,0.448,1,1,1h20.146L34,18.292V11z M23,11V1l10,10H23z"/>
	<path fill="#010101" d="M47.971,46.707L35.893,22.551c-0.34-0.674-1.446-0.674-1.786,0L22.104,46.556
		c-0.153,0.309-0.136,0.675,0.045,0.97C22.331,47.82,22.653,48,23,48h24c0.007-0.001,0.013-0.001,0.02,0c0.552,0,1-0.447,1-1
		C48.02,46.898,48,46.8,47.971,46.707z M34,32.818c0-0.553,0.448-1,1-1c0.552,0,1,0.447,1,1v6.545c0,0.553-0.448,1-1,1
		c-0.552,0-1-0.447-1-1V32.818z M35,43.727c-0.603,0-1.091-0.488-1.091-1.091c0-0.603,0.488-1.091,1.091-1.091
		c0.603,0,1.091,0.488,1.091,1.091C36.091,43.239,35.603,43.727,35,43.727z"/>
</g>
</svg>
