<?xml version="1.0" encoding="utf-8"?>
<!-- Generator: Adobe Illustrator 17.0.0, SVG Export Plug-In . SVG Version: 6.00 Build 0)  -->
<!DOCTYPE svg PUBLIC "-//W3C//DTD SVG 1.1//EN" "http://www.w3.org/Graphics/SVG/1.1/DTD/svg11.dtd">
<svg version="1.1" id="Layer_2" xmlns="http://www.w3.org/2000/svg" xmlns:xlink="http://www.w3.org/1999/xlink" x="0px" y="0px"
	 width="48px" height="48px" viewBox="0 0 48 48" enable-background="new 0 0 48 48" xml:space="preserve">
<g>
	<path fill="#010101" d="M30,25c0-0.553,0.448-1,1-1h3V11c0-0.266-0.106-0.519-0.293-0.707l-10-10C23.519,0.106,23.265,0,23,0H1
		C0.448,0,0,0.447,0,1v42c0,0.553,0.448,1,1,1h23v-7c0-0.553,0.448-1,1-1h5V25z M23,11V1l10,10H23z"/>
	<path fill="#010101" d="M47,38h-4h-4c-0.552,0-1,0.447-1,1v8c0,0.553,0.448,1,1,1h8c0.552,0,1-0.447,1-1v-8
		C48,38.447,47.552,38,47,38z"/>
	<path fill="#010101" d="M35,38h-4h-4h-1v1v8c0,0.553,0.448,1,1,1h8c0.552,0,1-0.447,1-1v-8C36,38.447,35.552,38,35,38z"/>
	<path fill="#010101" d="M42,35v-8c0-0.553-0.448-1-1-1h-8h-1v1v8v1h1h4h4C41.552,36,42,35.553,42,35z"/>
</g>
</svg>
