<?xml version="1.0" encoding="utf-8"?>
<!-- Generator: Adobe Illustrator 17.0.0, SVG Export Plug-In . SVG Version: 6.00 Build 0)  -->
<!DOCTYPE svg PUBLIC "-//W3C//DTD SVG 1.1//EN" "http://www.w3.org/Graphics/SVG/1.1/DTD/svg11.dtd">
<svg version="1.1" id="Layer_2" xmlns="http://www.w3.org/2000/svg" xmlns:xlink="http://www.w3.org/1999/xlink" x="0px" y="0px"
	 width="48px" height="48px" viewBox="0 0 48 48" enable-background="new 0 0 48 48" xml:space="preserve">
<g>
	<path fill="#010101" d="M34,20.051V11c0-0.266-0.106-0.519-0.293-0.707l-10-10C23.519,0.106,23.265,0,23,0H1C0.448,0,0,0.447,0,1
		v42c0,0.553,0.448,1,1,1h22.028C21.136,41.49,20,38.379,20,35C20,27.066,26.195,20.569,34,20.051z M23,1l10,10H23V1z"/>
	<path fill="#010101" d="M35,22c-7.169,0-13,5.832-13,13s5.831,13,13,13c7.168,0,13-5.832,13-13S42.168,22,35,22z M40.071,36.798
		L35,41.868l-5.071-5.07c-0.391-0.391-0.391-1.024,0-1.414c0.391-0.391,1.023-0.391,1.414,0L34,38.04v-8.498c0-0.553,0.448-1,1-1
		c0.552,0,1,0.447,1,1v8.498l2.657-2.656c0.391-0.391,1.024-0.391,1.414,0C40.461,35.774,40.461,36.407,40.071,36.798z"/>
</g>
</svg>
