<?xml version="1.0" encoding="utf-8"?>
<!-- Generator: Adobe Illustrator 17.0.0, SVG Export Plug-In . SVG Version: 6.00 Build 0)  -->
<!DOCTYPE svg PUBLIC "-//W3C//DTD SVG 1.1//EN" "http://www.w3.org/Graphics/SVG/1.1/DTD/svg11.dtd">
<svg version="1.1" id="Layer_2" xmlns="http://www.w3.org/2000/svg" xmlns:xlink="http://www.w3.org/1999/xlink" x="0px" y="0px"
	 width="48px" height="48px" viewBox="0 0 48 48" enable-background="new 0 0 48 48" xml:space="preserve">
<g>
	<path fill="#010101" d="M34,20.051V11c0-0.266-0.106-0.519-0.293-0.707l-10-10C23.519,0.106,23.265,0,23,0H1C0.448,0,0,0.447,0,1
		v42c0,0.553,0.448,1,1,1h22.028C21.136,41.49,20,38.379,20,35C20,27.066,26.195,20.569,34,20.051z M23,1l10,10H23V1z"/>
	<path fill="#010101" d="M35,22c-7.169,0-13,5.832-13,13s5.831,13,13,13c7.168,0,13-5.832,13-13S42.168,22,35,22z M40.071,34.616
		c-0.195,0.195-0.451,0.293-0.707,0.293c-0.256,0-0.512-0.098-0.707-0.293L36,31.96v8.491c0,0.553-0.448,1-1,1c-0.552,0-1-0.447-1-1
		V31.96l-2.657,2.656c-0.391,0.391-1.024,0.391-1.414,0s-0.391-1.023,0-1.414l4.355-4.355c0.007-0.007,0.014-0.014,0.021-0.021
		L35,28.132l0.694,0.694c0.007,0.007,0.014,0.014,0.021,0.021l4.355,4.355C40.461,33.593,40.461,34.226,40.071,34.616z"/>
</g>
</svg>
