<?xml version="1.0" encoding="utf-8"?>
<!-- Generator: Adobe Illustrator 17.0.0, SVG Export Plug-In . SVG Version: 6.00 Build 0)  -->
<!DOCTYPE svg PUBLIC "-//W3C//DTD SVG 1.1//EN" "http://www.w3.org/Graphics/SVG/1.1/DTD/svg11.dtd">
<svg version="1.1" id="Layer_2" xmlns="http://www.w3.org/2000/svg" xmlns:xlink="http://www.w3.org/1999/xlink" x="0px" y="0px"
	 width="48px" height="48px" viewBox="0 0 48 48" enable-background="new 0 0 48 48" xml:space="preserve">
<path fill="#010101" d="M47.707,18.293l-12-12C35.519,6.106,35.265,6,35,6H1C0.448,6,0,6.447,0,7v34c0,0.553,0.448,1,1,1h46
	c0.552,0,1-0.447,1-1V19C48,18.734,47.894,18.481,47.707,18.293z M19,20c0,2.206-1.794,4-4,4c-2.206,0-4-1.794-4-4
	c0-2.206,1.794-4,4-4C17.206,16,19,17.794,19,20z M10.232,32.359l5-6c0.297-0.355,0.8-0.462,1.215-0.254l3.302,1.651l5.492-6.407
	c0.222-0.259,0.561-0.391,0.9-0.34c0.338,0.048,0.628,0.266,0.77,0.576l5,11c0.141,0.31,0.115,0.67-0.069,0.955
	C31.657,33.827,31.34,34,31,34H11c-0.388,0-0.741-0.225-0.906-0.576C9.93,33.073,9.983,32.658,10.232,32.359z M45.586,19H35V8.414V7
	l12,12H45.586z"/>
</svg>
