<?xml version="1.0" encoding="utf-8"?>
<!-- Generator: Adobe Illustrator 17.0.0, SVG Export Plug-In . SVG Version: 6.00 Build 0)  -->
<!DOCTYPE svg PUBLIC "-//W3C//DTD SVG 1.1//EN" "http://www.w3.org/Graphics/SVG/1.1/DTD/svg11.dtd">
<svg version="1.1" id="Layer_2" xmlns="http://www.w3.org/2000/svg" xmlns:xlink="http://www.w3.org/1999/xlink" x="0px" y="0px"
	 width="48px" height="48px" viewBox="0 0 48 48" enable-background="new 0 0 48 48" xml:space="preserve">
<path fill="#010101" d="M41.707,12.293l-12-12C29.519,0.106,29.265,0,29,0H7C6.448,0,6,0.447,6,1v46c0,0.553,0.448,1,1,1h34
	c0.552,0,1-0.447,1-1V13C42,12.734,41.894,12.481,41.707,12.293z M33.53,27.848l-16,10C17.368,37.949,17.184,38,17,38
	c-0.167,0-0.334-0.042-0.485-0.125C16.197,37.698,16,37.363,16,37V17c0-0.363,0.197-0.698,0.515-0.875
	c0.318-0.175,0.706-0.167,1.015,0.027l16,10C33.822,26.335,34,26.655,34,27C34,27.345,33.822,27.665,33.53,27.848z M29,13V1l12,12
	H29z"/>
</svg>
