<?xml version="1.0" encoding="utf-8"?>
<!-- Generator: Adobe Illustrator 17.1.0, SVG Export Plug-In . SVG Version: 6.00 Build 0)  -->
<!DOCTYPE svg PUBLIC "-//W3C//DTD SVG 1.0//EN" "http://www.w3.org/TR/2001/REC-SVG-20010904/DTD/svg10.dtd">
<svg version="1.0" id="Layer_1" xmlns="http://www.w3.org/2000/svg" xmlns:xlink="http://www.w3.org/1999/xlink" x="0px" y="0px"
	 width="48px" height="48px" viewBox="0 0 48 48" enable-background="new 0 0 48 48" xml:space="preserve">
<g>
	<circle cx="6" cy="2" r="1.5"/>
	<circle cx="10" cy="2" r="1.5"/>
	<circle cx="14" cy="2" r="1.5"/>
	<circle cx="18" cy="2" r="1.5"/>
	<circle cx="22" cy="2" r="1.5"/>
	<circle cx="26" cy="2" r="1.5"/>
	<circle cx="30" cy="2" r="1.5"/>
	<circle cx="30" cy="6" r="1.5"/>
	<circle cx="30" cy="10" r="1.5"/>
	<circle cx="35" cy="6" r="1.5"/>
	<circle cx="30" cy="14" r="1.5"/>
	<circle cx="38" cy="9" r="1.5"/>
	<circle cx="10" cy="46" r="1.5"/>
	<circle cx="14" cy="46" r="1.5"/>
	<circle cx="18" cy="46" r="1.5"/>
	<circle cx="22" cy="46" r="1.5"/>
	<circle cx="26" cy="46" r="1.5"/>
	<circle cx="30" cy="46" r="1.5"/>
	<circle cx="34" cy="46" r="1.5"/>
	<circle cx="38" cy="46" r="1.5"/>
	<circle cx="6" cy="6" r="1.5"/>
	<circle cx="6" cy="10" r="1.5"/>
	<circle cx="6" cy="14" r="1.5"/>
	<circle cx="42" cy="14" r="1.5"/>
	<circle cx="38" cy="14" r="1.5"/>
	<circle cx="34" cy="14" r="1.5"/>
	<circle cx="6" cy="18" r="1.5"/>
	<circle cx="42" cy="18" r="1.5"/>
	<circle cx="6" cy="22" r="1.5"/>
	<circle cx="42" cy="22" r="1.5"/>
	<circle cx="6" cy="26" r="1.5"/>
	<circle cx="42" cy="26" r="1.5"/>
	<circle cx="6" cy="30" r="1.5"/>
	<circle cx="42" cy="30" r="1.5"/>
	<circle cx="6" cy="34" r="1.5"/>
	<circle cx="42" cy="34" r="1.5"/>
	<circle cx="6" cy="38" r="1.5"/>
	<circle cx="42" cy="38" r="1.5"/>
	<circle cx="6" cy="42" r="1.5"/>
	<circle cx="42" cy="42" r="1.5"/>
	<circle cx="6" cy="46" r="1.5"/>
	<circle cx="42" cy="46" r="1.5"/>
</g>
</svg>
