<?xml version="1.0" encoding="utf-8"?>
<!-- Generator: Adobe Illustrator 17.0.0, SVG Export Plug-In . SVG Version: 6.00 Build 0)  -->
<!DOCTYPE svg PUBLIC "-//W3C//DTD SVG 1.1//EN" "http://www.w3.org/Graphics/SVG/1.1/DTD/svg11.dtd">
<svg version="1.1" id="Layer_2" xmlns="http://www.w3.org/2000/svg" xmlns:xlink="http://www.w3.org/1999/xlink" x="0px" y="0px"
	 width="48px" height="48px" viewBox="0 0 48 48" enable-background="new 0 0 48 48" xml:space="preserve">
<g>
	<path fill="#010101" d="M25.121,37.121c-1.134,1.133-3.108,1.133-4.242,0C20.312,36.555,20,35.801,20,35
		c0-0.801,0.312-1.555,0.879-2.121l12-12c0.319-0.318,0.707-0.538,1.121-0.677V11c0-0.266-0.106-0.519-0.293-0.707l-10-10
		C23.519,0.106,23.265,0,23,0H1C0.448,0,0,0.447,0,1v42c0,0.553,0.448,1,1,1h25v-7h-0.758L25.121,37.121z M23,1l10,10H23V1z"/>
	<path fill="#010101" d="M47.927,34.624c-0.049-0.12-0.122-0.233-0.22-0.331l-12-12c-0.001-0.001-0.003-0.001-0.004-0.003
		c-0.383-0.378-1.023-0.378-1.406,0c-0.001,0.001-0.003,0.001-0.004,0.003L34,22.586L22.293,34.293C22.102,34.484,22,34.73,22,35
		c0,0.271,0.102,0.516,0.293,0.707c0.384,0.383,1.03,0.383,1.414,0L24.414,35H28v13h5v-5v-2h5v7h5V35h2.586l0,0l0.236,0.236
		l0.471,0.471c0.003,0.003,0.007,0.004,0.01,0.007c0.382,0.371,1.011,0.371,1.393,0c0.003-0.003,0.007-0.004,0.011-0.007
		c0.098-0.098,0.171-0.21,0.22-0.33C47.974,35.259,48,35.133,48,35C48,34.867,47.974,34.741,47.927,34.624z"/>
</g>
</svg>
