<?xml version="1.0" encoding="utf-8"?>
<!-- Generator: Adobe Illustrator 17.1.0, SVG Export Plug-In . SVG Version: 6.00 Build 0)  -->
<!DOCTYPE svg PUBLIC "-//W3C//DTD SVG 1.0//EN" "http://www.w3.org/TR/2001/REC-SVG-20010904/DTD/svg10.dtd">
<svg version="1.0" id="Layer_1" xmlns="http://www.w3.org/2000/svg" xmlns:xlink="http://www.w3.org/1999/xlink" x="0px" y="0px"
	 width="48px" height="48px" viewBox="0 0 48 48" enable-background="new 0 0 48 48" xml:space="preserve">
<g>
	<path d="M47.707,14.293l-10-10C37.519,4.106,37.265,4,37,4H26c-0.552,0-1,0.447-1,1v38c0,0.553,0.448,1,1,1h21c0.552,0,1-0.447,1-1
		V15C48,14.734,47.894,14.481,47.707,14.293z M37,15V5l10,10H37z"/>
	<path d="M22,4H11c-0.265,0-0.52,0.106-0.707,0.293l-10,10C0.105,14.481,0,14.734,0,15v28c0,0.553,0.448,1,1,1h21
		c0.552,0,1-0.447,1-1V5C23,4.447,22.552,4,22,4z M11,15H1L11,5V15z"/>
</g>
</svg>
