<?xml version="1.0" encoding="utf-8"?>
<!-- Generator: Adobe Illustrator 17.0.0, SVG Export Plug-In . SVG Version: 6.00 Build 0)  -->
<!DOCTYPE svg PUBLIC "-//W3C//DTD SVG 1.1//EN" "http://www.w3.org/Graphics/SVG/1.1/DTD/svg11.dtd">
<svg version="1.1" id="Layer_2" xmlns="http://www.w3.org/2000/svg" xmlns:xlink="http://www.w3.org/1999/xlink" x="0px" y="0px"
	 width="48px" height="48px" viewBox="0 0 48 48" enable-background="new 0 0 48 48" xml:space="preserve">
<g>
	<path fill="#010101" d="M47.707,8.293l-8-8C39.519,0.106,39.265,0,39,0H25c-0.552,0-1,0.447-1,1v30c0,0.553,0.448,1,1,1h22
		c0.552,0,1-0.447,1-1V9C48,8.734,47.894,8.481,47.707,8.293z M39,9V1l8,8H39z"/>
	<path fill="#010101" d="M9,32H1c-0.552,0-1,0.447-1,1v14c0,0.553,0.448,1,1,1h8c0.552,0,1-0.447,1-1V33C10,32.447,9.552,32,9,32z
		 M5,44c-0.553,0-1-0.447-1-1c0-0.553,0.447-1,1-1c0.552,0,1,0.447,1,1C6,43.553,5.552,44,5,44z"/>
	<path fill="#010101" d="M31,38h-3.574c-0.014-0.015-0.027-0.029-0.041-0.044C26.177,36.672,23.663,34,19,34h-7
		c-0.552,0-1,0.447-1,1v10c0,0.553,0.448,1,1,1h34c0.552,0,1-0.447,1-1C47,40.875,38.568,38,31,38z"/>
</g>
</svg>
