<?xml version="1.0" encoding="utf-8"?>
<!-- Generator: Adobe Illustrator 17.0.0, SVG Export Plug-In . SVG Version: 6.00 Build 0)  -->
<!DOCTYPE svg PUBLIC "-//W3C//DTD SVG 1.1//EN" "http://www.w3.org/Graphics/SVG/1.1/DTD/svg11.dtd">
<svg version="1.1" id="Layer_2" xmlns="http://www.w3.org/2000/svg" xmlns:xlink="http://www.w3.org/1999/xlink" x="0px" y="0px"
	 width="48px" height="48px" viewBox="0 0 48 48" enable-background="new 0 0 48 48" xml:space="preserve">
<g>
	<path fill="#010101" d="M35,20c1.755,0,3.433,0.319,5,0.875V1c0-0.553-0.448-1-1-1h-6v4h1v4h-4V4h1V0h-6v4h1v4h-4V4h1V0h-6v4h1v4
		h-4V4h1V0H9v4h1v4H6V4h1V0H1C0.448,0,0,0.447,0,1v40c0,0.553,0.448,1,1,1h20.743C20.634,39.908,20,37.528,20,35
		C20,26.729,26.729,20,35,20z"/>
	<path fill="#010101" d="M35,22c-7.169,0-13,5.832-13,13s5.831,13,13,13c7.168,0,13-5.832,13-13S42.168,22,35,22z M40.071,34.616
		c-0.195,0.195-0.451,0.293-0.707,0.293c-0.256,0-0.512-0.098-0.707-0.293L36,31.96v8.494c0,0.553-0.448,1-1,1c-0.552,0-1-0.447-1-1
		V31.96l-2.657,2.656c-0.391,0.391-1.024,0.391-1.414,0c-0.391-0.391-0.391-1.023,0-1.414l4.363-4.363c0,0,0.001-0.001,0.001-0.001
		L35,28.132l0.706,0.706c0,0,0.001,0.001,0.001,0.001l4.363,4.363C40.461,33.593,40.461,34.226,40.071,34.616z"/>
</g>
</svg>
