<?xml version="1.0" encoding="utf-8"?>
<!-- Generator: Adobe Illustrator 17.0.0, SVG Export Plug-In . SVG Version: 6.00 Build 0)  -->
<!DOCTYPE svg PUBLIC "-//W3C//DTD SVG 1.1//EN" "http://www.w3.org/Graphics/SVG/1.1/DTD/svg11.dtd">
<svg version="1.1" id="Layer_2" xmlns="http://www.w3.org/2000/svg" xmlns:xlink="http://www.w3.org/1999/xlink" x="0px" y="0px"
	 width="48px" height="48px" viewBox="0 0 48 48" enable-background="new 0 0 48 48" xml:space="preserve">
<g>
	<path fill="#010101" d="M23.123,35.52c-1.006-0.819-1.387-2.211-0.938-3.456C22.639,30.827,23.819,30,25.122,30h4.812l4.98-9.92
		c0.169-0.339,0.516-0.552,0.894-0.552c0,0,0.001,0,0.001,0c0.379,0.001,0.725,0.215,0.893,0.554L40,26.701V1c0-0.553-0.448-1-1-1
		h-6v4h1v4h-4V4h1V0h-6v4h1v4h-4V4h1V0h-6v4h1v4h-4V4h1V0H9v4h1v4H6V4h1V0H1C0.448,0,0,0.447,0,1v40c0,0.553,0.448,1,1,1h25.29
		l1.002-3.006L23.123,35.52z"/>
	<path fill="#010101" d="M42.475,37.895l4.953-4.127c0.322-0.27,0.442-0.712,0.299-1.108C47.582,32.264,47.206,32,46.786,32h-5.762
		h-0.619l-0.276-0.553l0,0l-4.324-8.682l-4.359,8.684C31.276,31.787,30.93,32,30.552,32h-5.43c-0.469,0-0.894,0.301-1.058,0.747
		c-0.156,0.435-0.022,0.942,0.33,1.229l4.702,3.919c0.316,0.264,0.438,0.694,0.309,1.085L28.399,42l-0.132,0.396l-1.43,4.291
		c-0.135,0.408,0.004,0.856,0.347,1.115c0.178,0.134,0.39,0.201,0.602,0.201c0.198,0,0.396-0.059,0.566-0.176l7.434-5.105
		l7.434,5.104c0.354,0.243,0.824,0.233,1.167-0.025c0.343-0.259,0.482-0.707,0.347-1.114l-2.2-6.602l-0.584-1.753l0.523-0.436
		C42.474,37.896,42.474,37.895,42.475,37.895z"/>
</g>
</svg>
