<?xml version="1.0" encoding="utf-8"?>
<!-- Generator: Adobe Illustrator 17.0.0, SVG Export Plug-In . SVG Version: 6.00 Build 0)  -->
<!DOCTYPE svg PUBLIC "-//W3C//DTD SVG 1.1//EN" "http://www.w3.org/Graphics/SVG/1.1/DTD/svg11.dtd">
<svg version="1.1" id="Layer_2" xmlns="http://www.w3.org/2000/svg" xmlns:xlink="http://www.w3.org/1999/xlink" x="0px" y="0px"
	 width="48px" height="48px" viewBox="0 0 48 48" enable-background="new 0 0 48 48" xml:space="preserve">
<g>
	<polygon fill="#010101" points="26.995,38.585 33.409,45 40.924,37.486 43,35.411 36.585,28.997 	"/>
	<path fill="#010101" d="M24.508,38.245L40,22.755V1c0-0.553-0.448-1-1-1h-6v4h1v4h-4V4h1V0h-6v4h1v4h-4V4h1V0h-6v4h1v4h-4V4h1V0H9
		v4h1v4H6V4h1V0H1C0.448,0,0,0.447,0,1v40c0,0.553,0.448,1,1,1h22.304l0.949-3.322C24.3,38.514,24.388,38.365,24.508,38.245z"/>
	<path fill="#010101" d="M25.384,42L25.384,42l-1.35,4.726c-0.1,0.349-0.003,0.725,0.254,0.981C24.478,47.898,24.734,48,24.996,48
		c0.091,0,0.181-0.013,0.271-0.038l6.438-1.84l-5.832-5.832L25.384,42z"/>
	<path fill="#010101" d="M47.707,29.29l-5-5c-0.391-0.391-1.023-0.391-1.414,0L40,25.583v0l-2,2l6.414,6.414l3.293-3.293
		C47.894,30.517,48,30.263,48,29.997C48,29.731,47.894,29.478,47.707,29.29z"/>
</g>
</svg>
