<?xml version="1.0" encoding="utf-8"?>
<!-- Generator: Adobe Illustrator 17.0.0, SVG Export Plug-In . SVG Version: 6.00 Build 0)  -->
<!DOCTYPE svg PUBLIC "-//W3C//DTD SVG 1.1//EN" "http://www.w3.org/Graphics/SVG/1.1/DTD/svg11.dtd">
<svg version="1.1" id="Layer_2" xmlns="http://www.w3.org/2000/svg" xmlns:xlink="http://www.w3.org/1999/xlink" x="0px" y="0px"
	 width="48px" height="48px" viewBox="0 0 48 48" enable-background="new 0 0 48 48" xml:space="preserve">
<g>
	<path fill="#010101" d="M34.105,18.081c0.339-0.678,1.45-0.678,1.789,0L40,26.292V1c0-0.553-0.448-1-1-1h-6v4h1v4h-4V4h1V0h-6v4h1
		v4h-4V4h1V0h-6v4h1v4h-4V4h1V0H9v4h1v4H6V4h1V0H1C0.448,0,0,0.447,0,1v40c0,0.553,0.448,1,1,1h21.146L34.105,18.081z"/>
	<path fill="#010101" d="M47.971,46.707L35,20.765L22.104,46.556c-0.153,0.309-0.137,0.675,0.045,0.969
		C22.331,47.82,22.653,48,23,48h24c0.007-0.001,0.013-0.001,0.02,0c0.552,0,1-0.447,1-1C48.02,46.898,48,46.8,47.971,46.707z
		 M34,32.818c0-0.553,0.448-1,1-1s1,0.447,1,1v6.545c0,0.553-0.448,1-1,1s-1-0.447-1-1V32.818z M35,43.727
		c-0.603,0-1.091-0.488-1.091-1.091c0-0.603,0.488-1.091,1.091-1.091c0.603,0,1.091,0.488,1.091,1.091
		C36.091,43.239,35.603,43.727,35,43.727z"/>
</g>
</svg>
