<?xml version="1.0" encoding="utf-8"?>
<!-- Generator: Adobe Illustrator 17.0.0, SVG Export Plug-In . SVG Version: 6.00 Build 0)  -->
<!DOCTYPE svg PUBLIC "-//W3C//DTD SVG 1.1//EN" "http://www.w3.org/Graphics/SVG/1.1/DTD/svg11.dtd">
<svg version="1.1" id="Layer_2" xmlns="http://www.w3.org/2000/svg" xmlns:xlink="http://www.w3.org/1999/xlink" x="0px" y="0px"
	 width="48px" height="48px" viewBox="0 0 48 48" enable-background="new 0 0 48 48" xml:space="preserve">
<g>
	<path fill="#010101" d="M35,20c1.755,0,3.433,0.319,5,0.875V1c0-0.553-0.448-1-1-1h-6v4h1v4h-4V4h1V0h-6v4h1v4h-4V4h1V0h-6v4h1v4
		h-4V4h1V0H9v4h1v4H6V4h1V0H1C0.448,0,0,0.447,0,1v40c0,0.553,0.448,1,1,1h20.743C20.635,39.908,20,37.528,20,35
		C20,26.729,26.729,20,35,20z"/>
	<path fill="#010101" d="M35,22c-7.169,0-13,5.832-13,13s5.831,13,13,13c7.168,0,13-5.832,13-13S42.168,22,35,22z M40.455,36H36
		v4.454c0,0.553-0.448,1-1,1c-0.552,0-1-0.447-1-1V36h-4.455c-0.552,0-1-0.447-1-1c0-0.553,0.448-1,1-1H34v-4.454
		c0-0.553,0.448-1,1-1c0.552,0,1,0.447,1,1V34h4.455c0.552,0,1,0.447,1,1C41.455,35.553,41.007,36,40.455,36z"/>
</g>
</svg>
