<?xml version="1.0" encoding="utf-8"?>
<!-- Generator: Adobe Illustrator 17.0.0, SVG Export Plug-In . SVG Version: 6.00 Build 0)  -->
<!DOCTYPE svg PUBLIC "-//W3C//DTD SVG 1.1//EN" "http://www.w3.org/Graphics/SVG/1.1/DTD/svg11.dtd">
<svg version="1.1" id="Layer_2" xmlns="http://www.w3.org/2000/svg" xmlns:xlink="http://www.w3.org/1999/xlink" x="0px" y="0px"
	 width="48px" height="48px" viewBox="0 0 48 48" enable-background="new 0 0 48 48" xml:space="preserve">
<g>
	<path fill="#010101" d="M20,35c0-8.271,6.729-15,15-15c1.755,0,3.433,0.319,5,0.875V1c0-0.553-0.448-1-1-1h-6v4h1v4h-4V4h1V0h-6v4
		h1v4h-4V4h1V0h-6v4h1v4h-4V4h1V0H9v4h1v4H6V4h1V0H1C0.448,0,0,0.447,0,1v40c0,0.553,0.448,1,1,1h20.743
		C20.635,39.908,20,37.528,20,35z"/>
	<path fill="#010101" d="M35,22c-7.169,0-13,5.832-13,13s5.831,13,13,13c7.168,0,13-5.832,13-13S42.168,22,35,22z M40.071,36.798
		L35,41.868l-5.071-5.07c-0.391-0.391-0.391-1.023,0-1.414c0.391-0.391,1.023-0.391,1.414,0L34,38.04v-8.498c0-0.553,0.448-1,1-1
		c0.552,0,1,0.447,1,1v8.498l2.657-2.656c0.391-0.391,1.023-0.391,1.414,0C40.461,35.774,40.461,36.407,40.071,36.798z"/>
</g>
</svg>
