<?xml version="1.0" encoding="utf-8"?>
<!-- Generator: Adobe Illustrator 17.0.0, SVG Export Plug-In . SVG Version: 6.00 Build 0)  -->
<!DOCTYPE svg PUBLIC "-//W3C//DTD SVG 1.1//EN" "http://www.w3.org/Graphics/SVG/1.1/DTD/svg11.dtd">
<svg version="1.1" id="Layer_2" xmlns="http://www.w3.org/2000/svg" xmlns:xlink="http://www.w3.org/1999/xlink" x="0px" y="0px"
	 width="48px" height="48px" viewBox="0 0 48 48" enable-background="new 0 0 48 48" xml:space="preserve">
<path fill="#010101" d="M43,0h-6v4h1v4h-4V4h1V0h-6v4h1v4h-4V4h1V0h-6v4h1v4h-4V4h1V0h-6v4h1v4h-4V4h1V0H5C4.448,0,4,0.447,4,1v46
	c0,0.553,0.448,1,1,1h38c0.552,0,1-0.447,1-1V1C44,0.447,43.552,0,43,0z M35,40H13c-0.552,0-1-0.447-1-1c0-0.553,0.448-1,1-1h22
	c0.552,0,1,0.447,1,1C36,39.553,35.552,40,35,40z M35,34H13c-0.552,0-1-0.447-1-1c0-0.553,0.448-1,1-1h22c0.552,0,1,0.447,1,1
	C36,33.553,35.552,34,35,34z M35,28H13c-0.552,0-1-0.447-1-1c0-0.553,0.448-1,1-1h22c0.552,0,1,0.447,1,1C36,27.553,35.552,28,35,28
	z M35,22H13c-0.552,0-1-0.447-1-1c0-0.553,0.448-1,1-1h22c0.552,0,1,0.447,1,1C36,21.553,35.552,22,35,22z M35,16H13
	c-0.552,0-1-0.447-1-1c0-0.553,0.448-1,1-1h22c0.552,0,1,0.447,1,1C36,15.553,35.552,16,35,16z"/>
</svg>
