<?xml version="1.0" encoding="utf-8"?>
<!-- Generator: Adobe Illustrator 17.1.0, SVG Export Plug-In . SVG Version: 6.00 Build 0)  -->
<!DOCTYPE svg PUBLIC "-//W3C//DTD SVG 1.0//EN" "http://www.w3.org/TR/2001/REC-SVG-20010904/DTD/svg10.dtd">
<svg version="1.0" id="Layer_1" xmlns="http://www.w3.org/2000/svg" xmlns:xlink="http://www.w3.org/1999/xlink" x="0px" y="0px"
	 width="48px" height="48px" viewBox="0 0 48 48" enable-background="new 0 0 48 48" xml:space="preserve">
<g>
	<path d="M44,18H4c-2.206,0-4,1.794-4,4v4c0,2.206,1.794,4,4,4h8v10c0,1.103-0.897,2-2,2c-0.552,0-1,0.447-1,1s0.448,1,1,1
		c2.206,0,4-1.794,4-4V30h4v17c0,0.553,0.448,1,1,1c0.552,0,1-0.447,1-1V30h3v17c0,0.553,0.448,1,1,1c0.552,0,1-0.447,1-1V30h3v17
		c0,0.553,0.448,1,1,1c0.552,0,1-0.447,1-1V30h4v10c0,2.206,1.794,4,4,4c0.552,0,1-0.447,1-1s-0.448-1-1-1c-1.103,0-2-0.897-2-2V30
		h8c2.206,0,4-1.794,4-4v-4C48,19.794,46.206,18,44,18z M39,26H9c-0.552,0-1-0.447-1-1s0.448-1,1-1h30c0.552,0,1,0.447,1,1
		S39.552,26,39,26z M43,26c-0.555,0-1-0.447-1-1s0.445-1,1-1c0.551,0,1,0.447,1,1S43.551,26,43,26z"/>
	<path d="M11,17h26c0.552,0,1-0.447,1-1v-3c0-0.266-0.106-0.519-0.293-0.707l-12-12C25.519,0.105,25.265,0,25,0H11
		c-0.552,0-1,0.447-1,1v15C10,16.553,10.448,17,11,17z M25,1l12,12H25V1z"/>
</g>
</svg>
