<?xml version="1.0" encoding="utf-8"?>
<!-- Generator: Adobe Illustrator 17.0.0, SVG Export Plug-In . SVG Version: 6.00 Build 0)  -->
<!DOCTYPE svg PUBLIC "-//W3C//DTD SVG 1.1//EN" "http://www.w3.org/Graphics/SVG/1.1/DTD/svg11.dtd">
<svg version="1.1" xmlns="http://www.w3.org/2000/svg" xmlns:xlink="http://www.w3.org/1999/xlink" x="0px" y="0px" width="60px"
	 height="60px" viewBox="0 0 60 60" enable-background="new 0 0 60 60" xml:space="preserve">
<g id="Layer_3">
	<g>
		<path fill="#010101" d="M0,55.333c0,0.552,0.447,1,1,1h58c0.553,0,1-0.448,1-1v-33H0V55.333z M29,34.333h12c0.553,0,1,0.448,1,1
			s-0.447,1-1,1H29c-0.553,0-1-0.448-1-1S28.447,34.333,29,34.333z M14.293,30.04c-0.391-0.391-0.391-1.023,0-1.414
			c0.391-0.391,1.023-0.391,1.414,0l6,6c0.391,0.391,0.391,1.023,0,1.414l-6,6c-0.195,0.195-0.451,0.293-0.707,0.293
			c-0.256,0-0.512-0.098-0.707-0.293c-0.391-0.391-0.391-1.023,0-1.414l5.293-5.293L14.293,30.04z"/>
		<path fill="#010101" d="M59,6.333H1c-0.553,0-1,0.448-1,1v13h60v-13C60,6.781,59.553,6.333,59,6.333z M34,16.333
			c-1.103,0-2-0.897-2-2s0.897-2,2-2c1.102,0,2,0.897,2,2S35.102,16.333,34,16.333z M42,16.333c-1.103,0-2-0.897-2-2s0.897-2,2-2
			c1.102,0,2,0.897,2,2S43.102,16.333,42,16.333z M50,16.333c-1.103,0-2-0.897-2-2s0.897-2,2-2c1.102,0,2,0.897,2,2
			S51.102,16.333,50,16.333z"/>
	</g>
</g>
<g id="nyt_x5F_exporter_x5F_info" display="none">
</g>
</svg>
