<?xml version="1.0" encoding="utf-8"?>
<!-- Generator: Adobe Illustrator 17.0.0, SVG Export Plug-In . SVG Version: 6.00 Build 0)  -->
<!DOCTYPE svg PUBLIC "-//W3C//DTD SVG 1.1//EN" "http://www.w3.org/Graphics/SVG/1.1/DTD/svg11.dtd">
<svg version="1.1" xmlns="http://www.w3.org/2000/svg" xmlns:xlink="http://www.w3.org/1999/xlink" x="0px" y="0px" width="60px"
	 height="60px" viewBox="0 0 60 60" enable-background="new 0 0 60 60" xml:space="preserve">
<g id="Layer_3">
	<g>
		<path fill="#010101" d="M59.995,9.03V5.554c0.057-1.451-0.47-2.83-1.483-3.883C57.491,0.609,56.057,0,54.578,0h-36.12
			c-1.486,0-2.877,0.585-3.917,1.648c-1.027,1.049-1.575,2.43-1.545,3.868v3.523c0.015,0,0.028-0.009,0.044-0.009H59.995z
			 M31.1,3.612c1.05,0,1.903,0.854,1.903,1.903S32.149,7.418,31.1,7.418c-1.049,0-1.902-0.854-1.902-1.903S30.051,3.612,31.1,3.612z
			 M25.682,3.612c1.05,0,1.903,0.854,1.903,1.903s-0.854,1.903-1.903,1.903c-1.049,0-1.902-0.854-1.902-1.903
			S24.633,3.612,25.682,3.612z M20.264,3.612c1.05,0,1.903,0.854,1.903,1.903s-0.854,1.903-1.903,1.903
			c-1.049,0-1.902-0.854-1.902-1.903S19.215,3.612,20.264,3.612z"/>
		<path fill="#010101" d="M18.079,37.975c0.108,0,0.218-0.003,0.266-0.008h36.233c1.528,0,2.987-0.606,4.004-1.664
			c0.966-1.004,1.468-2.331,1.414-3.698L59.995,11.03H13.04c-0.016,0-0.029-0.008-0.044-0.009v13.451l-0.053,8.246
			C12.943,35.617,15.247,37.975,18.079,37.975z"/>
		<path fill="#010101" d="M10.996,37.966h-10c-0.553,0-1,0.448-1,1v20c0,0.552,0.447,1,1,1h10c0.553,0,1-0.448,1-1v-20
			C11.996,38.414,11.549,37.966,10.996,37.966z M5.996,55.966c-1.102,0-2-0.897-2-2s0.897-2,2-2s2,0.897,2,2
			S7.099,55.966,5.996,55.966z"/>
		<path fill="#010101" d="M40.996,47.966h-6.42h-2.441H21.996h-3c-0.553,0-1-0.448-1-1s0.447-1,1-1h14.048
			c-1.701-1.841-4.633-4-9.048-4h-9c-0.553,0-1,0.448-1,1v14c0,0.552,0.447,1,1,1h44c0.308,0,0.599-0.142,0.788-0.385
			c0.189-0.243,0.257-0.559,0.182-0.858C59.877,56.366,57.586,47.966,40.996,47.966z"/>
	</g>
</g>
<g id="nyt_x5F_exporter_x5F_info" display="none">
</g>
</svg>
