<?xml version="1.0" encoding="utf-8"?>
<!-- Generator: Adobe Illustrator 17.0.0, SVG Export Plug-In . SVG Version: 6.00 Build 0)  -->
<!DOCTYPE svg PUBLIC "-//W3C//DTD SVG 1.1//EN" "http://www.w3.org/Graphics/SVG/1.1/DTD/svg11.dtd">
<svg version="1.1" xmlns="http://www.w3.org/2000/svg" xmlns:xlink="http://www.w3.org/1999/xlink" x="0px" y="0px" width="60px"
	 height="60px" viewBox="0 0 60 60" enable-background="new 0 0 60 60" xml:space="preserve">
<g id="Layer_3">
	<g>
		<path fill="#010101" d="M0,38h12.445l4.707-7.53c0.199-0.32,0.561-0.5,0.937-0.466c0.375,0.034,0.7,0.275,0.84,0.625l5.243,13.108
			l8.966-15.243c0.189-0.323,0.551-0.51,0.919-0.492c0.374,0.021,0.705,0.25,0.857,0.592l7.235,16.28l4.003-6.404
			C46.335,38.178,46.655,38,47,38h13V22H0V38z"/>
		<path fill="#010101" d="M42.848,47.53C42.664,47.824,42.343,48,42,48c-0.023,0-0.047-0.001-0.07-0.002
			c-0.369-0.026-0.693-0.254-0.844-0.591l-7.21-16.223l-9.014,15.324c-0.194,0.329-0.562,0.515-0.938,0.49
			c-0.381-0.029-0.712-0.271-0.854-0.625l-5.268-13.17l-3.956,6.329C13.665,39.822,13.345,40,13,40H0v15c0,0.552,0.447,1,1,1h58
			c0.553,0,1-0.448,1-1V40H47.555L42.848,47.53z"/>
		<path fill="#010101" d="M59,6H1C0.447,6,0,6.448,0,7v13h60V7C60,6.448,59.553,6,59,6z M34,16c-1.103,0-2-0.897-2-2s0.897-2,2-2
			c1.102,0,2,0.897,2,2S35.102,16,34,16z M42,16c-1.103,0-2-0.897-2-2s0.897-2,2-2c1.102,0,2,0.897,2,2S43.102,16,42,16z M50,16
			c-1.103,0-2-0.897-2-2s0.897-2,2-2c1.102,0,2,0.897,2,2S51.102,16,50,16z"/>
	</g>
</g>
<g id="nyt_x5F_exporter_x5F_info" display="none">
</g>
</svg>
