<?xml version="1.0" encoding="utf-8"?>
<!-- Generator: Adobe Illustrator 17.0.0, SVG Export Plug-In . SVG Version: 6.00 Build 0)  -->
<!DOCTYPE svg PUBLIC "-//W3C//DTD SVG 1.1//EN" "http://www.w3.org/Graphics/SVG/1.1/DTD/svg11.dtd">
<svg version="1.1" xmlns="http://www.w3.org/2000/svg" xmlns:xlink="http://www.w3.org/1999/xlink" x="0px" y="0px" width="60px"
	 height="60px" viewBox="0 0 60 60" enable-background="new 0 0 60 60" xml:space="preserve">
<g id="Layer_3">
	<g>
		<path fill="#010101" d="M56,16.421v25.285C56,46.279,52.313,50,47.782,50H10.434c0.908,2.338,3.156,4,5.784,4h37.564
			C57.211,54,60,51.177,60,47.706V22.294C60,19.615,58.335,17.328,56,16.421z"/>
		<path fill="#010101" d="M54,41.706V16.294c0-2.744-1.747-5.077-4.171-5.937C49.94,10.888,50,11.437,50,12v24c0,4.411-3.589,8-8,8
			H6c-0.557,0-1.101-0.058-1.627-0.167C5.237,46.258,7.527,48,10.218,48h37.564C51.211,48,54,45.177,54,41.706z"/>
		<path fill="#010101" d="M42,42c3.309,0,6-2.691,6-6V16H16.218H0v20c0,3.309,2.691,6,6,6H42z"/>
		<path fill="#010101" d="M48,12c0-3.309-2.691-6-6-6H6c-3.309,0-6,2.691-6,6v2h48V12z M8,12.5c-0.827,0-1.5-0.673-1.5-1.5
			c0-0.827,0.673-1.5,1.5-1.5c0.827,0,1.5,0.673,1.5,1.5C9.5,11.827,8.827,12.5,8,12.5z M12,12.5c-0.827,0-1.5-0.673-1.5-1.5
			c0-0.827,0.673-1.5,1.5-1.5c0.827,0,1.5,0.673,1.5,1.5C13.5,11.827,12.827,12.5,12,12.5z M16,12.5c-0.827,0-1.5-0.673-1.5-1.5
			c0-0.827,0.673-1.5,1.5-1.5c0.827,0,1.5,0.673,1.5,1.5C17.5,11.827,16.827,12.5,16,12.5z"/>
	</g>
</g>
<g id="nyt_x5F_exporter_x5F_info" display="none">
</g>
</svg>
