<?xml version="1.0" encoding="utf-8"?>
<!-- Generator: Adobe Illustrator 17.0.0, SVG Export Plug-In . SVG Version: 6.00 Build 0)  -->
<!DOCTYPE svg PUBLIC "-//W3C//DTD SVG 1.1//EN" "http://www.w3.org/Graphics/SVG/1.1/DTD/svg11.dtd">
<svg version="1.1" xmlns="http://www.w3.org/2000/svg" xmlns:xlink="http://www.w3.org/1999/xlink" x="0px" y="0px" width="60px"
	 height="60px" viewBox="0 0 60 60" enable-background="new 0 0 60 60" xml:space="preserve">
<g id="Layer_3">
	<g>
		<path fill="#010101" d="M52,10V6c0-3.309-2.691-6-6-6H6C2.691,0,0,2.691,0,6v4H52z M8,8C6.897,8,6,7.103,6,6s0.897-2,2-2
			c1.102,0,2,0.897,2,2S9.102,8,8,8z M14,8c-1.103,0-2-0.897-2-2s0.897-2,2-2c1.102,0,2,0.897,2,2S15.102,8,14,8z M20,8
			c-1.103,0-2-0.897-2-2s0.897-2,2-2c1.102,0,2,0.897,2,2S21.102,8,20,8z"/>
		<path fill="#010101" d="M45,28c2.497,0,4.862,0.555,7,1.526V12H0v24c0,3.309,2.691,6,6,6h22.281C29.705,34.054,36.651,28,45,28z"
			/>
		<path fill="#010101" d="M45,30c-8.272,0-15,6.729-15,15s6.728,15,15,15c8.271,0,15-6.729,15-15S53.271,30,45,30z M51.877,46
			H38.123c-0.553,0-1-0.448-1-1c0-0.552,0.447-1,1-1h13.754c0.553,0,1,0.448,1,1C52.877,45.552,52.43,46,51.877,46z"/>
	</g>
</g>
<g id="nyt_x5F_exporter_x5F_info" display="none">
</g>
</svg>
