<?xml version="1.0" encoding="utf-8"?>
<!-- Generator: Adobe Illustrator 17.0.0, SVG Export Plug-In . SVG Version: 6.00 Build 0)  -->
<!DOCTYPE svg PUBLIC "-//W3C//DTD SVG 1.1//EN" "http://www.w3.org/Graphics/SVG/1.1/DTD/svg11.dtd">
<svg version="1.1" xmlns="http://www.w3.org/2000/svg" xmlns:xlink="http://www.w3.org/1999/xlink" x="0px" y="0px" width="60px"
	 height="60px" viewBox="0 0 60 60" enable-background="new 0 0 60 60" xml:space="preserve">
<g id="Layer_3">
	<g>
		<path fill="#010101" d="M0,50c0,3.309,2.691,6,6,6h12V22H0V50z"/>
		<path fill="#010101" d="M20,56h34c3.309,0,6-2.691,6-6V36H20V56z"/>
		<path fill="#010101" d="M54,8H6c-3.309,0-6,2.691-6,6v6h60v-6C60,10.691,57.309,8,54,8z M8,17c-1.102,0-2-0.897-2-2s0.898-2,2-2
			s2,0.897,2,2S9.102,17,8,17z M14,17c-1.102,0-2-0.897-2-2s0.898-2,2-2s2,0.897,2,2S15.102,17,14,17z M20,17c-1.103,0-2-0.897-2-2
			s0.897-2,2-2s2,0.897,2,2S21.103,17,20,17z"/>
		<rect x="20" y="22" fill="#010101" width="40" height="12"/>
	</g>
</g>
<g id="nyt_x5F_exporter_x5F_info" display="none">
</g>
</svg>
