<?xml version="1.0" encoding="utf-8"?>
<!-- Generator: Adobe Illustrator 17.0.0, SVG Export Plug-In . SVG Version: 6.00 Build 0)  -->
<!DOCTYPE svg PUBLIC "-//W3C//DTD SVG 1.1//EN" "http://www.w3.org/Graphics/SVG/1.1/DTD/svg11.dtd">
<svg version="1.1" xmlns="http://www.w3.org/2000/svg" xmlns:xlink="http://www.w3.org/1999/xlink" x="0px" y="0px" width="60px"
	 height="60px" viewBox="0 0 60 60" enable-background="new 0 0 60 60" xml:space="preserve">
<g id="Layer_3">
	<g>
		<path fill="#010101" d="M59,6H1C0.447,6,0,6.448,0,7v13h60V7C60,6.448,59.553,6,59,6z M34,16c-1.103,0-2-0.897-2-2s0.897-2,2-2
			c1.102,0,2,0.897,2,2S35.102,16,34,16z M42,16c-1.103,0-2-0.897-2-2s0.897-2,2-2c1.102,0,2,0.897,2,2S43.102,16,42,16z M50,16
			c-1.103,0-2-0.897-2-2s0.897-2,2-2c1.102,0,2,0.897,2,2S51.102,16,50,16z"/>
		<path fill="#010101" d="M0,55c0,0.552,0.447,1,1,1h58c0.553,0,1-0.448,1-1V22H0V55z M22,28h26c0.553,0,1,0.448,1,1
			c0,0.552-0.447,1-1,1H22c-0.553,0-1-0.448-1-1C21,28.448,21.447,28,22,28z M22,36h26c0.553,0,1,0.448,1,1c0,0.552-0.447,1-1,1H22
			c-0.553,0-1-0.448-1-1C21,36.448,21.447,36,22,36z M22,44h26c0.553,0,1,0.448,1,1c0,0.552-0.447,1-1,1H22c-0.553,0-1-0.448-1-1
			C21,44.448,21.447,44,22,44z M10,28h4c0.553,0,1,0.448,1,1c0,0.552-0.447,1-1,1h-4c-0.553,0-1-0.448-1-1C9,28.448,9.447,28,10,28z
			 M10,36h4c0.553,0,1,0.448,1,1c0,0.552-0.447,1-1,1h-4c-0.553,0-1-0.448-1-1C9,36.448,9.447,36,10,36z M10,44h4
			c0.553,0,1,0.448,1,1c0,0.552-0.447,1-1,1h-4c-0.553,0-1-0.448-1-1C9,44.448,9.447,44,10,44z"/>
	</g>
</g>
<g id="nyt_x5F_exporter_x5F_info" display="none">
</g>
</svg>
