<?xml version="1.0" encoding="utf-8"?>
<!-- Generator: Adobe Illustrator 17.0.0, SVG Export Plug-In . SVG Version: 6.00 Build 0)  -->
<!DOCTYPE svg PUBLIC "-//W3C//DTD SVG 1.1//EN" "http://www.w3.org/Graphics/SVG/1.1/DTD/svg11.dtd">
<svg version="1.1" xmlns="http://www.w3.org/2000/svg" xmlns:xlink="http://www.w3.org/1999/xlink" x="0px" y="0px" width="60px"
	 height="60px" viewBox="0 0 60 60" enable-background="new 0 0 60 60" xml:space="preserve">
<g id="Layer_3">
	<g>
		<path fill="#010101" d="M54,8H6c-3.309,0-6,2.691-6,6v4h60v-4C60,10.691,57.309,8,54,8z M8,16c-1.103,0-2-0.897-2-2s0.897-2,2-2
			c1.102,0,2,0.897,2,2S9.102,16,8,16z M14,16c-1.103,0-2-0.897-2-2s0.897-2,2-2c1.102,0,2,0.897,2,2S15.102,16,14,16z M20,16
			c-1.103,0-2-0.897-2-2s0.897-2,2-2c1.102,0,2,0.897,2,2S21.102,16,20,16z"/>
		<path fill="#010101" d="M0,48c0,3.309,2.691,6,6,6h48c3.309,0,6-2.691,6-6V20H0V48z M40,25c0-0.552,0.447-1,1-1h10
			c0.553,0,1,0.448,1,1v8c0,0.552-0.447,1-1,1H41c-0.553,0-1-0.448-1-1V25z M40,39c0-0.552,0.447-1,1-1h10c0.553,0,1,0.448,1,1v8
			c0,0.552-0.447,1-1,1H41c-0.553,0-1-0.448-1-1V39z M24,25c0-0.552,0.447-1,1-1h10c0.553,0,1,0.448,1,1v8c0,0.552-0.447,1-1,1H25
			c-0.553,0-1-0.448-1-1V25z M24,39c0-0.552,0.447-1,1-1h10c0.553,0,1,0.448,1,1v8c0,0.552-0.447,1-1,1H25c-0.553,0-1-0.448-1-1V39z
			 M8,25c0-0.552,0.447-1,1-1h10c0.553,0,1,0.448,1,1v8c0,0.552-0.447,1-1,1H9c-0.553,0-1-0.448-1-1V25z M8,39c0-0.552,0.447-1,1-1
			h10c0.553,0,1,0.448,1,1v8c0,0.552-0.447,1-1,1H9c-0.553,0-1-0.448-1-1V39z"/>
	</g>
</g>
<g id="nyt_x5F_exporter_x5F_info" display="none">
</g>
</svg>
