<?xml version="1.0" encoding="utf-8"?>
<!-- Generator: Adobe Illustrator 17.0.0, SVG Export Plug-In . SVG Version: 6.00 Build 0)  -->
<!DOCTYPE svg PUBLIC "-//W3C//DTD SVG 1.1//EN" "http://www.w3.org/Graphics/SVG/1.1/DTD/svg11.dtd">
<svg version="1.1" xmlns="http://www.w3.org/2000/svg" xmlns:xlink="http://www.w3.org/1999/xlink" x="0px" y="0px" width="60px"
	 height="60px" viewBox="0 0 60 60" enable-background="new 0 0 60 60" xml:space="preserve">
<g id="Layer_3">
	<g>
		<path fill="#010101" d="M44.002,29c3.017,0,5.79,1.043,7.998,2.774V12H0v24c0,3.309,2.691,6,6,6h25C31,34.832,36.833,29,44.002,29
			z"/>
		<path fill="#010101" d="M52,6c0-3.309-2.691-6-6-6H6C2.691,0,0,2.691,0,6v4h52V6z M8,8C6.897,8,6,7.103,6,6s0.897-2,2-2
			c1.102,0,2,0.897,2,2S9.102,8,8,8z M14,8c-1.103,0-2-0.897-2-2s0.897-2,2-2c1.102,0,2,0.897,2,2S15.102,8,14,8z M20,8
			c-1.103,0-2-0.897-2-2s0.897-2,2-2c1.102,0,2,0.897,2,2S21.102,8,20,8z"/>
		<path fill="#010101" d="M59.707,58.293l-6.825-6.825l-1.413-1.414C53.634,48.044,55,45.183,55,42.001
			C55,35.935,50.066,31,44.002,31C37.935,31,33,35.935,33,42.001c0,6.065,4.935,11,11.002,11c2.16,0,4.169-0.635,5.871-1.714
			l1.448,1.449l6.972,6.972C58.488,59.902,58.744,60,59,60c0.256,0,0.512-0.098,0.707-0.293
			C60.098,59.316,60.098,58.684,59.707,58.293z M44.002,51.001c-4.964,0-9.002-4.038-9.002-9C35,37.038,39.038,33,44.002,33
			C48.964,33,53,37.038,53,42.001C53,46.963,48.964,51.001,44.002,51.001z"/>
	</g>
</g>
<g id="nyt_x5F_exporter_x5F_info" display="none">
</g>
</svg>
