<?xml version="1.0" encoding="utf-8"?>
<!-- Generator: Adobe Illustrator 17.0.0, SVG Export Plug-In . SVG Version: 6.00 Build 0)  -->
<!DOCTYPE svg PUBLIC "-//W3C//DTD SVG 1.1//EN" "http://www.w3.org/Graphics/SVG/1.1/DTD/svg11.dtd">
<svg version="1.1" xmlns="http://www.w3.org/2000/svg" xmlns:xlink="http://www.w3.org/1999/xlink" x="0px" y="0px" width="60px"
	 height="60px" viewBox="0 0 60 60" enable-background="new 0 0 60 60" xml:space="preserve">
<g id="Layer_3">
	<g>
		<path fill="#010101" d="M2,34c0,3.309,2.691,6,6,6h18V28.242l-4.879,4.879c-1.133,1.134-3.109,1.134-4.242,0
			C16.312,32.555,16,31.801,16,31c0-0.801,0.312-1.555,0.879-2.121l9.999-9.999c0.28-0.28,0.609-0.5,0.977-0.651
			c0.729-0.301,1.563-0.302,2.293,0.001c0.366,0.151,0.694,0.37,0.975,0.65l9.999,9.999C41.687,29.445,42,30.199,42,31
			c0,0.801-0.313,1.555-0.879,2.121c-1.133,1.134-3.109,1.134-4.242,0L32,28.242V40h20c3.309,0,6-2.691,6-6V12H2V34z"/>
		<path fill="#010101" d="M52,0H8C4.691,0,2,2.691,2,6v4h56V6C58,2.691,55.309,0,52,0z M10,8C8.897,8,8,7.103,8,6s0.897-2,2-2
			c1.102,0,2,0.897,2,2S11.102,8,10,8z M17,8c-1.103,0-2-0.897-2-2s0.897-2,2-2c1.102,0,2,0.897,2,2S18.102,8,17,8z M24,8
			c-1.103,0-2-0.897-2-2s0.897-2,2-2c1.102,0,2,0.897,2,2S25.102,8,24,8z"/>
		<path fill="#010101" d="M39.707,31.707C39.898,31.515,40,31.271,40,31s-0.102-0.515-0.293-0.707l-9.999-9.999
			c-0.093-0.093-0.202-0.166-0.324-0.216c-0.246-0.101-0.523-0.101-0.766-0.001c-0.123,0.051-0.233,0.124-0.326,0.217l-9.999,9.999
			C18.102,30.485,18,30.729,18,31s0.102,0.515,0.293,0.707c0.383,0.383,1.031,0.383,1.414,0L28,23.414V59c0,0.551,0.448,1,1,1
			c0.552,0,1-0.449,1-1V23.414l8.293,8.293C38.676,32.09,39.324,32.09,39.707,31.707z"/>
	</g>
</g>
<g id="nyt_x5F_exporter_x5F_info" display="none">
</g>
</svg>
