<?xml version="1.0" encoding="utf-8"?>
<!-- Generator: Adobe Illustrator 17.0.0, SVG Export Plug-In . SVG Version: 6.00 Build 0)  -->
<!DOCTYPE svg PUBLIC "-//W3C//DTD SVG 1.1//EN" "http://www.w3.org/Graphics/SVG/1.1/DTD/svg11.dtd">
<svg version="1.1" xmlns="http://www.w3.org/2000/svg" xmlns:xlink="http://www.w3.org/1999/xlink" x="0px" y="0px" width="60px"
	 height="60px" viewBox="0 0 60 60" enable-background="new 0 0 60 60" xml:space="preserve">
<g id="Layer_3">
	<g>
		<path fill="#010101" d="M40,32v1v10c0,0.552,0.447,1,1,1h10c0.553,0,1-0.448,1-1v-6.875V33v-1h-1H41H40z"/>
		<path fill="#010101" d="M38,31c0-0.552,0.447-1,1-1h13V12H0v24c0,3.309,2.691,6,6,6h32V31z"/>
		<path fill="#010101" d="M52,6c0-3.309-2.691-6-6-6H6C2.691,0,0,2.691,0,6v4h52V6z M8,8C6.897,8,6,7.103,6,6s0.897-2,2-2
			c1.102,0,2,0.897,2,2S9.102,8,8,8z M14,8c-1.103,0-2-0.897-2-2s0.897-2,2-2c1.102,0,2,0.897,2,2S15.102,8,14,8z M20,8
			c-1.103,0-2-0.897-2-2s0.897-2,2-2c1.102,0,2,0.897,2,2S21.102,8,20,8z"/>
		<path fill="#010101" d="M59,48H49c-0.553,0-1,0.448-1,1v10c0,0.552,0.447,1,1,1h10c0.553,0,1-0.448,1-1V49
			C60,48.448,59.553,48,59,48z"/>
		<path fill="#010101" d="M43,48H33c-0.553,0-1,0.448-1,1v10c0,0.552,0.447,1,1,1h10c0.553,0,1-0.448,1-1V49
			C44,48.448,43.553,48,43,48z"/>
	</g>
</g>
<g id="nyt_x5F_exporter_x5F_info" display="none">
</g>
</svg>
