<?xml version="1.0" encoding="utf-8"?>
<!-- Generator: Adobe Illustrator 17.0.0, SVG Export Plug-In . SVG Version: 6.00 Build 0)  -->
<!DOCTYPE svg PUBLIC "-//W3C//DTD SVG 1.1//EN" "http://www.w3.org/Graphics/SVG/1.1/DTD/svg11.dtd">
<svg version="1.1" xmlns="http://www.w3.org/2000/svg" xmlns:xlink="http://www.w3.org/1999/xlink" x="0px" y="0px" width="60px"
	 height="60px" viewBox="0 0 60 60" enable-background="new 0 0 60 60" xml:space="preserve">
<g id="Layer_3">
	<g>
		<path fill="#010101" d="M54,7H6c-3.309,0-6,2.691-6,6v4h60v-4C60,9.691,57.309,7,54,7z M8,15c-1.103,0-2-0.897-2-2s0.897-2,2-2
			c1.102,0,2,0.897,2,2S9.102,15,8,15z M14,15c-1.103,0-2-0.897-2-2s0.897-2,2-2c1.102,0,2,0.897,2,2S15.102,15,14,15z M20,15
			c-1.103,0-2-0.897-2-2s0.897-2,2-2c1.102,0,2,0.897,2,2S21.102,15,20,15z"/>
		<path fill="#010101" d="M0,47c0,3.309,2.691,6,6,6h48c3.309,0,6-2.691,6-6V19H0V47z M22,25h26c0.553,0,1,0.448,1,1
			c0,0.552-0.447,1-1,1H22c-0.553,0-1-0.448-1-1C21,25.448,21.447,25,22,25z M22,33h26c0.553,0,1,0.448,1,1c0,0.552-0.447,1-1,1H22
			c-0.553,0-1-0.448-1-1C21,33.448,21.447,33,22,33z M22,41h26c0.553,0,1,0.448,1,1c0,0.552-0.447,1-1,1H22c-0.553,0-1-0.448-1-1
			C21,41.448,21.447,41,22,41z M10,25h4c0.553,0,1,0.448,1,1c0,0.552-0.447,1-1,1h-4c-0.553,0-1-0.448-1-1C9,25.448,9.447,25,10,25z
			 M10,33h4c0.553,0,1,0.448,1,1c0,0.552-0.447,1-1,1h-4c-0.553,0-1-0.448-1-1C9,33.448,9.447,33,10,33z M10,41h4
			c0.553,0,1,0.448,1,1c0,0.552-0.447,1-1,1h-4c-0.553,0-1-0.448-1-1C9,41.448,9.447,41,10,41z"/>
	</g>
</g>
<g id="nyt_x5F_exporter_x5F_info" display="none">
</g>
</svg>
