<?xml version="1.0" encoding="utf-8"?>
<!-- Generator: Adobe Illustrator 17.0.0, SVG Export Plug-In . SVG Version: 6.00 Build 0)  -->
<!DOCTYPE svg PUBLIC "-//W3C//DTD SVG 1.1//EN" "http://www.w3.org/Graphics/SVG/1.1/DTD/svg11.dtd">
<svg version="1.1" xmlns="http://www.w3.org/2000/svg" xmlns:xlink="http://www.w3.org/1999/xlink" x="0px" y="0px" width="60px"
	 height="60px" viewBox="0 0 60 60" enable-background="new 0 0 60 60" xml:space="preserve">
<g id="Layer_3">
	<g>
		<path fill="#010101" d="M52,6c0-3.309-2.691-6-6-6H6C2.691,0,0,2.691,0,6v4h52V6z M8,8C6.897,8,6,7.103,6,6s0.897-2,2-2
			c1.102,0,2,0.897,2,2S9.102,8,8,8z M14,8c-1.103,0-2-0.897-2-2s0.897-2,2-2c1.102,0,2,0.897,2,2S15.102,8,14,8z M20,8
			c-1.103,0-2-0.897-2-2s0.897-2,2-2c1.102,0,2,0.897,2,2S21.102,8,20,8z"/>
		<path fill="#010101" d="M46,32c2.15,0,4.179,0.499,6,1.365V12H0v24c0,3.309,2.691,6,6,6h26.587C34.31,36.219,39.659,32,46,32z"/>
		<path fill="#010101" d="M56.725,36.203c-0.233-0.059-0.462-0.018-0.663,0.075c-0.263,0.122-0.476,0.344-0.552,0.647l-0.663,2.601
			c-2.493-3.959-7.392-5.974-12.098-4.603c-5.692,1.659-8.975,7.639-7.316,13.33c0.803,2.757,2.632,5.036,5.15,6.418
			c1.607,0.882,3.373,1.331,5.157,1.331c1.01,0,2.026-0.144,3.022-0.434c0.53-0.154,0.835-0.71,0.681-1.24
			c-0.154-0.529-0.71-0.837-1.239-0.68c-2.243,0.654-4.609,0.395-6.659-0.73c-2.05-1.125-3.539-2.98-4.192-5.224
			c-1.35-4.632,1.322-9.5,5.956-10.851c4.012-1.167,8.199,0.684,10.125,4.214l-3.413-0.869c-0.536-0.137-1.08,0.187-1.216,0.723
			c-0.137,0.535,0.187,1.079,0.722,1.216l5.343,1.361c0.028,0.007,0.056,0.006,0.084,0.01c0.029,0.005,0.057,0.009,0.087,0.011
			c0.026,0.002,0.051,0.01,0.077,0.01c0.068,0,0.132-0.02,0.198-0.033c0.027-0.005,0.054,0.001,0.081-0.007
			c0.007-0.002,0.012-0.008,0.019-0.01c0.117-0.037,0.224-0.092,0.32-0.168c0.025-0.02,0.042-0.047,0.065-0.069
			c0.063-0.061,0.121-0.125,0.167-0.201c0.024-0.041,0.038-0.084,0.057-0.127c0.02-0.047,0.048-0.087,0.061-0.138l1.26-4.947
			l0.102-0.399C57.583,36.884,57.26,36.34,56.725,36.203z"/>
	</g>
</g>
<g id="nyt_x5F_exporter_x5F_info" display="none">
</g>
</svg>
