<?xml version="1.0" encoding="utf-8"?>
<!-- Generator: Adobe Illustrator 17.0.0, SVG Export Plug-In . SVG Version: 6.00 Build 0)  -->
<!DOCTYPE svg PUBLIC "-//W3C//DTD SVG 1.1//EN" "http://www.w3.org/Graphics/SVG/1.1/DTD/svg11.dtd">
<svg version="1.1" xmlns="http://www.w3.org/2000/svg" xmlns:xlink="http://www.w3.org/1999/xlink" x="0px" y="0px" width="60px"
	 height="60px" viewBox="0 0 60 60" enable-background="new 0 0 60 60" xml:space="preserve">
<g id="Layer_3">
	<g>
		<path fill="#010101" d="M52.49,6.5c0-3.309-2.691-6-6-6h-40c-3.309,0-6,2.691-6,6v4h52V6.5z M8.49,8.5c-1.102,0-2-0.897-2-2
			s0.897-2,2-2c1.103,0,2,0.897,2,2S9.593,8.5,8.49,8.5z M14.49,8.5c-1.102,0-2-0.897-2-2s0.898-2,2-2c1.103,0,2,0.897,2,2
			S15.593,8.5,14.49,8.5z M20.49,8.5c-1.103,0-2-0.897-2-2s0.897-2,2-2c1.103,0,2,0.897,2,2S21.593,8.5,20.49,8.5z"/>
		<path fill="#010101" d="M43.584,23.348c0.164-0.352,0.518-0.577,0.906-0.577c0.389,0,0.742,0.225,0.906,0.577L52.29,38.12
			c0.126-0.479,0.2-0.978,0.2-1.495V12.5h-52v24c0,3.309,2.691,6,6,6h28.156L43.584,23.348z"/>
		<path fill="#010101" d="M59.466,58.226l-0.142-0.304c-0.002-0.003-0.003-0.006-0.004-0.009l-8.185-17.539l0,0L44.49,26.135
			L36.853,42.5l-7.269,15.577c-0.145,0.31-0.121,0.672,0.062,0.96c0.183,0.289,0.502,0.463,0.844,0.463h28c0.007,0,0.015,0,0.02,0
			c0.553,0,1-0.448,1-1C59.51,58.404,59.491,58.313,59.466,58.226z M44.49,53.5c-0.553,0-1-0.447-1-1s0.447-1,1-1
			c0.553,0,1,0.447,1,1S45.043,53.5,44.49,53.5z M45.49,48.871c0,0.552-0.447,1-1,1c-0.553,0-1-0.448-1-1v-8.252
			c0-0.552,0.447-1,1-1c0.553,0,1,0.448,1,1V48.871z"/>
	</g>
</g>
<g id="nyt_x5F_exporter_x5F_info" display="none">
</g>
</svg>
