<?xml version="1.0" encoding="utf-8"?>
<!-- Generator: Adobe Illustrator 17.0.0, SVG Export Plug-In . SVG Version: 6.00 Build 0)  -->
<!DOCTYPE svg PUBLIC "-//W3C//DTD SVG 1.1//EN" "http://www.w3.org/Graphics/SVG/1.1/DTD/svg11.dtd">
<svg version="1.1" xmlns="http://www.w3.org/2000/svg" xmlns:xlink="http://www.w3.org/1999/xlink" x="0px" y="0px" width="60px"
	 height="60px" viewBox="0 0 60 60" enable-background="new 0 0 60 60" xml:space="preserve">
<g id="Layer_3">
	<g>
		<path fill="#010101" d="M0,35h12.445l4.707-7.53c0.199-0.32,0.561-0.499,0.937-0.466c0.375,0.034,0.7,0.275,0.84,0.625
			l5.243,13.108l8.966-15.243c0.189-0.323,0.551-0.514,0.919-0.492c0.374,0.021,0.705,0.25,0.857,0.592l7.235,16.28l4.003-6.404
			C46.335,35.178,46.655,35,47,35h13V19H0V35z"/>
		<path fill="#010101" d="M42.848,44.53C42.664,44.824,42.343,45,42,45c-0.023,0-0.047-0.001-0.07-0.002
			c-0.369-0.026-0.693-0.254-0.844-0.591l-7.21-16.223l-9.014,15.324c-0.194,0.329-0.562,0.518-0.938,0.49
			c-0.381-0.029-0.712-0.271-0.854-0.625l-5.268-13.17l-3.956,6.329C13.665,36.822,13.345,37,13,37H0v10c0,3.309,2.691,6,6,6h48
			c3.309,0,6-2.691,6-6V37H47.555L42.848,44.53z"/>
		<path fill="#010101" d="M54,7H6c-3.309,0-6,2.691-6,6v4h60v-4C60,9.691,57.309,7,54,7z M8,15c-1.103,0-2-0.897-2-2s0.897-2,2-2
			c1.102,0,2,0.897,2,2S9.102,15,8,15z M14,15c-1.103,0-2-0.897-2-2s0.897-2,2-2c1.102,0,2,0.897,2,2S15.102,15,14,15z M20,15
			c-1.103,0-2-0.897-2-2s0.897-2,2-2c1.102,0,2,0.897,2,2S21.102,15,20,15z"/>
	</g>
</g>
<g id="nyt_x5F_exporter_x5F_info" display="none">
</g>
</svg>
