<?xml version="1.0" encoding="utf-8"?>
<!-- Generator: Adobe Illustrator 17.0.0, SVG Export Plug-In . SVG Version: 6.00 Build 0)  -->
<!DOCTYPE svg PUBLIC "-//W3C//DTD SVG 1.1//EN" "http://www.w3.org/Graphics/SVG/1.1/DTD/svg11.dtd">
<svg version="1.1" xmlns="http://www.w3.org/2000/svg" xmlns:xlink="http://www.w3.org/1999/xlink" x="0px" y="0px" width="60px"
	 height="60px" viewBox="0 0 60 60" enable-background="new 0 0 60 60" xml:space="preserve">
<g id="Layer_1">
	<g>
		<path fill="#231F20" d="M42,0H20c-5.421,0-10,4.58-10,10v49c0,0.409,0.249,0.777,0.629,0.929C10.749,59.977,10.875,60,11,60
			c0.269,0,0.532-0.108,0.725-0.31l11.329-11.904l13.277,11.958c0.294,0.264,0.718,0.33,1.075,0.17C37.768,59.753,38,59.395,38,59
			V16h13c0.553,0,1-0.448,1-1v-5C52,4.58,47.421,0,42,0z M50,14H38v-3c0-2.355,1.644-4,4-4c0.553,0,1-0.448,1-1s-0.447-1-1-1
			c-3.421,0-6,2.58-6,6v45.753L23.669,45.648c-0.19-0.172-0.43-0.257-0.669-0.257c-0.265,0-0.528,0.104-0.725,0.311L12,56.499V10
			c0-4.336,3.663-8,8-8h22c4.337,0,8,3.664,8,8V14z"/>
	</g>
</g>
<g id="nyt_x5F_exporter_x5F_info" display="none">
</g>
</svg>
