<?xml version="1.0" encoding="utf-8"?>
<!-- Generator: Adobe Illustrator 17.0.0, SVG Export Plug-In . SVG Version: 6.00 Build 0)  -->
<!DOCTYPE svg PUBLIC "-//W3C//DTD SVG 1.1//EN" "http://www.w3.org/Graphics/SVG/1.1/DTD/svg11.dtd">
<svg version="1.1" xmlns="http://www.w3.org/2000/svg" xmlns:xlink="http://www.w3.org/1999/xlink" x="0px" y="0px" width="60px"
	 height="60px" viewBox="0 0 60 60" enable-background="new 0 0 60 60" xml:space="preserve">
<g id="Layer_1">
	<g>
		<path fill="#231F20" d="M42.055,0.293c-0.39-0.389-1.02-0.39-1.411-0.003l-40.348,40c-0.288,0.285-0.375,0.716-0.221,1.091
			C0.229,41.755,0.595,42,1,42h17v17c0,0.405,0.244,0.771,0.619,0.925C18.742,59.976,18.872,60,19,60
			c0.262,0,0.519-0.102,0.71-0.296l40-40.348c0.388-0.391,0.387-1.022-0.003-1.411L42.055,0.293z M20,56.571V41c0-0.552-0.447-1-1-1
			H3.429L41.345,2.411l16.244,16.244L20,56.571z"/>
	</g>
</g>
<g id="nyt_x5F_exporter_x5F_info" display="none">
</g>
</svg>
