<?xml version="1.0" encoding="utf-8"?>
<!-- Generator: Adobe Illustrator 17.0.0, SVG Export Plug-In . SVG Version: 6.00 Build 0)  -->
<!DOCTYPE svg PUBLIC "-//W3C//DTD SVG 1.1//EN" "http://www.w3.org/Graphics/SVG/1.1/DTD/svg11.dtd">
<svg version="1.1" xmlns="http://www.w3.org/2000/svg" xmlns:xlink="http://www.w3.org/1999/xlink" x="0px" y="0px" width="60px"
	 height="60px" viewBox="0 0 60 60" enable-background="new 0 0 60 60" xml:space="preserve">
<g id="Layer_1">
	<g>
		<path fill="#231F20" d="M47,0H13c-0.553,0-1,0.448-1,1v58c0,0.399,0.237,0.76,0.604,0.918c0.367,0.158,0.792,0.084,1.082-0.191
			l16.69-15.729l15.922,15.714C46.488,59.9,46.742,60,47,60c0.13,0,0.261-0.025,0.386-0.077C47.758,59.767,48,59.403,48,59V1
			C48,0.448,47.553,0,47,0z M14,2h6v49.019c0,0.003,0.002,0.005,0.002,0.008L14,56.684V2z M29.706,41.881L22,49.144V2h16v46.713
			l-6.906-6.816C30.712,41.519,30.098,41.511,29.706,41.881z M46,56.608l-6-5.921V2h6V56.608z"/>
	</g>
</g>
<g id="nyt_x5F_exporter_x5F_info" display="none">
</g>
</svg>
