<?xml version="1.0" encoding="utf-8"?>
<!-- Generator: Adobe Illustrator 17.0.0, SVG Export Plug-In . SVG Version: 6.00 Build 0)  -->
<!DOCTYPE svg PUBLIC "-//W3C//DTD SVG 1.1//EN" "http://www.w3.org/Graphics/SVG/1.1/DTD/svg11.dtd">
<svg version="1.1" xmlns="http://www.w3.org/2000/svg" xmlns:xlink="http://www.w3.org/1999/xlink" x="0px" y="0px" width="60px"
	 height="60px" viewBox="0 0 60 60" enable-background="new 0 0 60 60" xml:space="preserve">
<g id="Layer_1">
	<g>
		<path fill="#231F20" d="M47,34c-7.169,0-13,5.831-13,13s5.831,13,13,13s13-5.831,13-13S54.169,34,47,34z M47,58
			c-6.065,0-11-4.935-11-11c0-6.065,4.935-11,11-11c6.065,0,11,4.935,11,11C58,53.065,53.065,58,47,58z"/>
		<path fill="#231F20" d="M53,46H41c-0.552,0-1,0.448-1,1s0.448,1,1,1h12c0.552,0,1-0.448,1-1S53.552,46,53,46z"/>
		<path fill="#231F20" d="M48.652,16.13V1c0-0.266-0.105-0.52-0.293-0.708C48.171,0.105,47.917,0,47.652,0h-0.001L31.87,0.02
			c-0.265,0-0.518,0.105-0.706,0.293L0.293,31.184c-0.391,0.391-0.391,1.023,0,1.414L16.054,48.36
			c0.188,0.188,0.442,0.293,0.707,0.293c0.002,0,0.004,0,0.005,0c0.267-0.001,0.522-0.109,0.709-0.3L48.367,16.83
			C48.55,16.644,48.652,16.392,48.652,16.13z M46.652,15.722L16.753,46.231L2.414,31.891L32.286,2.019l14.366-0.017V15.722z"/>
		<path fill="#231F20" d="M38.826,14.609c2.637,0,4.783-2.146,4.783-4.783c0-2.637-2.146-4.783-4.783-4.783
			c-2.637,0-4.783,2.146-4.783,4.783C34.044,12.463,36.189,14.609,38.826,14.609z M38.826,7.044c1.534,0,2.783,1.248,2.783,2.783
			c0,1.534-1.248,2.783-2.783,2.783c-1.534,0-2.783-1.248-2.783-2.783C36.044,8.292,37.292,7.044,38.826,7.044z"/>
	</g>
</g>
<g id="nyt_x5F_exporter_x5F_info" display="none">
</g>
</svg>
