<?xml version="1.0" encoding="utf-8"?>
<!-- Generator: Adobe Illustrator 17.0.0, SVG Export Plug-In . SVG Version: 6.00 Build 0)  -->
<!DOCTYPE svg PUBLIC "-//W3C//DTD SVG 1.1//EN" "http://www.w3.org/Graphics/SVG/1.1/DTD/svg11.dtd">
<svg version="1.1" xmlns="http://www.w3.org/2000/svg" xmlns:xlink="http://www.w3.org/1999/xlink" x="0px" y="0px" width="60px"
	 height="60px" viewBox="0 0 60 60" enable-background="new 0 0 60 60" xml:space="preserve">
<g id="Layer_1">
	<g>
		<path fill="#231F20" d="M22.703,0.289C22.516,0.104,22.263,0,22,0H1C0.448,0,0,0.448,0,1v21c0,0.263,0.104,0.516,0.289,0.703
			l36.602,37C37.081,59.896,37.338,60,37.602,60c0.079,0,0.16-0.01,0.239-0.029c0.342-0.084,0.614-0.342,0.717-0.679L43.41,43.41
			l15.882-4.85c0.337-0.103,0.595-0.376,0.679-0.717c0.084-0.342-0.017-0.703-0.268-0.95L22.703,0.289z M42.317,41.652
			c-0.318,0.097-0.567,0.346-0.665,0.665l-4.518,14.789L2,21.589V2h19.589l35.517,35.136L42.317,41.652z"/>
		<path fill="#231F20" d="M13.609,7.565c-3.333,0-6.044,2.711-6.044,6.043c0,3.333,2.711,6.043,6.044,6.043s6.043-2.711,6.043-6.043
			C19.652,10.276,16.941,7.565,13.609,7.565z M13.609,17.652c-2.229,0-4.044-1.814-4.044-4.043s1.814-4.043,4.044-4.043
			s4.043,1.814,4.043,4.043S15.838,17.652,13.609,17.652z"/>
	</g>
</g>
<g id="nyt_x5F_exporter_x5F_info" display="none">
</g>
</svg>
