<?xml version="1.0" encoding="utf-8"?>
<!-- Generator: Adobe Illustrator 17.0.0, SVG Export Plug-In . SVG Version: 6.00 Build 0)  -->
<!DOCTYPE svg PUBLIC "-//W3C//DTD SVG 1.1//EN" "http://www.w3.org/Graphics/SVG/1.1/DTD/svg11.dtd">
<svg version="1.1" xmlns="http://www.w3.org/2000/svg" xmlns:xlink="http://www.w3.org/1999/xlink" x="0px" y="0px" width="60px"
	 height="60px" viewBox="0 0 60 60" enable-background="new 0 0 60 60" xml:space="preserve">
<g id="Layer_1">
	<g>
		<path fill="#231F20" d="M19.701,6.287C19.514,6.103,19.262,6,19,6H1C0.447,6,0,6.448,0,7v17c0,0.267,0.106,0.523,0.296,0.71
			l35.305,35C35.79,59.898,36.044,60,36.305,60c0.067,0,0.136-0.007,0.203-0.021c0.328-0.068,0.601-0.296,0.726-0.607l4.884-12.211
			l12.21-4.884c0.313-0.126,0.543-0.401,0.609-0.732s-0.039-0.673-0.279-0.91L19.701,6.287z M40.977,45.462
			c-0.255,0.102-0.456,0.303-0.558,0.557l-4.482,11.208L2,23.583V8h16.591l33.572,32.988L40.977,45.462z"/>
		<path fill="#231F20" d="M26.705,0.291C26.518,0.104,26.264,0,26,0H8C7.447,0,7,0.448,7,1s0.447,1,1,1h17.588l31.556,31.348
			l-2.242,0.747c-0.523,0.175-0.807,0.741-0.632,1.265c0.14,0.419,0.529,0.684,0.948,0.684c0.104,0,0.211-0.017,0.316-0.052
			l3.782-1.261c0.329-0.11,0.578-0.383,0.657-0.721c0.079-0.338-0.022-0.693-0.268-0.938L26.705,0.291z"/>
		<path fill="#231F20" d="M12.348,12.609c-2.637,0-4.782,2.146-4.782,4.782c0,2.637,2.146,4.783,4.782,4.783
			c2.638,0,4.783-2.146,4.783-4.783C17.131,14.754,14.985,12.609,12.348,12.609z M12.348,20.174c-1.534,0-2.782-1.249-2.782-2.783
			s1.248-2.782,2.782-2.782c1.534,0,2.783,1.248,2.783,2.782S13.882,20.174,12.348,20.174z"/>
	</g>
</g>
<g id="nyt_x5F_exporter_x5F_info" display="none">
</g>
</svg>
