<?xml version="1.0" encoding="utf-8"?>
<!-- Generator: Adobe Illustrator 17.0.0, SVG Export Plug-In . SVG Version: 6.00 Build 0)  -->
<!DOCTYPE svg PUBLIC "-//W3C//DTD SVG 1.1//EN" "http://www.w3.org/Graphics/SVG/1.1/DTD/svg11.dtd">
<svg version="1.1" xmlns="http://www.w3.org/2000/svg" xmlns:xlink="http://www.w3.org/1999/xlink" x="0px" y="0px" width="60px"
	 height="60px" viewBox="0 0 60 60" enable-background="new 0 0 60 60" xml:space="preserve">
<g id="Layer_1">
	<g>
		<path fill="#231F20" d="M19.701,6.287C19.514,6.103,19.262,6,19,6H1C0.448,6,0,6.448,0,7v17c0,0.267,0.106,0.523,0.296,0.71
			l35.304,35c0.195,0.193,0.45,0.29,0.704,0.29c0.256,0,0.512-0.098,0.707-0.293l17.652-17.652c0.189-0.188,0.294-0.445,0.293-0.711
			c-0.001-0.267-0.109-0.522-0.299-0.709L19.701,6.287z M36.301,57.589L2,23.583V8h16.591l33.945,33.354L36.301,57.589z"/>
		<path fill="#231F20" d="M26.707,0.293C26.519,0.106,26.265,0,26,0H9C8.448,0,8,0.448,8,1s0.448,1,1,1h16.586l32,32l-2.293,2.293
			c-0.391,0.391-0.391,1.023,0,1.414C55.488,37.902,55.744,38,56,38s0.512-0.098,0.707-0.293l3-3c0.391-0.391,0.391-1.023,0-1.414
			L26.707,0.293z"/>
		<path fill="#231F20" d="M12.348,12.609c-2.637,0-4.782,2.146-4.782,4.782c0,2.637,2.146,4.783,4.782,4.783
			c2.637,0,4.783-2.146,4.783-4.783C17.13,14.754,14.985,12.609,12.348,12.609z M12.348,20.174c-1.534,0-2.782-1.249-2.782-2.783
			s1.248-2.782,2.782-2.782c1.534,0,2.783,1.248,2.783,2.782S13.882,20.174,12.348,20.174z"/>
	</g>
</g>
<g id="nyt_x5F_exporter_x5F_info" display="none">
</g>
</svg>
