<?xml version="1.0" encoding="utf-8"?>
<!-- Generator: Adobe Illustrator 17.0.0, SVG Export Plug-In . SVG Version: 6.00 Build 0)  -->
<!DOCTYPE svg PUBLIC "-//W3C//DTD SVG 1.1//EN" "http://www.w3.org/Graphics/SVG/1.1/DTD/svg11.dtd">
<svg version="1.1" id="Layer_1" xmlns="http://www.w3.org/2000/svg" xmlns:xlink="http://www.w3.org/1999/xlink" x="0px" y="0px"
	 width="60px" height="60px" viewBox="0 0 60 60" enable-background="new 0 0 60 60" xml:space="preserve">
<g>
	<path fill="#231F20" d="M3,54h54c0.552,0,1-0.448,1-1V17c0-0.552-0.448-1-1-1H41.951C41.46,10.318,36.83,6,31,6
		s-10.46,4.318-10.951,10H3c-0.552,0-1,0.448-1,1v36C2,53.552,2.448,54,3,54z M4,52V31.991C4.015,31.992,4.028,32,4.044,32H26v5
		c0,0.552,0.448,1,1,1h8c0.552,0,1-0.448,1-1v-5h20v20H4z M34,36h-6v-8h6V36z M31,8c4.708,0,8.461,3.441,8.944,8H22.056
		C22.539,11.441,26.292,8,31,8z M56,18v12H36v-3c0-0.552-0.448-1-1-1h-8c-0.552,0-1,0.448-1,1v3H4.044
		C4.028,30,4.015,30.008,4,30.009V18H56z"/>
</g>
</svg>
