<?xml version="1.0" encoding="utf-8"?>
<!-- Generator: Adobe Illustrator 17.0.0, SVG Export Plug-In . SVG Version: 6.00 Build 0)  -->
<!DOCTYPE svg PUBLIC "-//W3C//DTD SVG 1.1//EN" "http://www.w3.org/Graphics/SVG/1.1/DTD/svg11.dtd">
<svg version="1.1" id="Layer_1" xmlns="http://www.w3.org/2000/svg" xmlns:xlink="http://www.w3.org/1999/xlink" x="0px" y="0px"
	 width="60px" height="60px" viewBox="0 0 60 60" enable-background="new 0 0 60 60" xml:space="preserve">
<g>
	<path fill="#231F20" d="M29,21.087c-3.309,0-6,2.691-6,6s2.691,6,6,6s6-2.691,6-6S32.309,21.087,29,21.087z M29,31.087
		c-2.206,0-4-1.794-4-4c0-2.206,1.794-4,4-4c2.206,0,4,1.794,4,4C33,29.292,31.206,31.087,29,31.087z"/>
	<path fill="#231F20" d="M19,27.087c0-0.552-0.448-1-1-1h-5c-0.552,0-1,0.448-1,1c0,0.552,0.448,1,1,1h5
		C18.552,28.087,19,27.639,19,27.087z"/>
	<path fill="#231F20" d="M19.876,34.709l-3.567,3.566c-0.391,0.39-0.391,1.023,0,1.414c0.195,0.195,0.451,0.293,0.707,0.293
		s0.512-0.098,0.707-0.293l3.567-3.566c0.391-0.39,0.391-1.023,0-1.414C20.9,34.318,20.267,34.318,19.876,34.709z"/>
	<path fill="#231F20" d="M29,37.739c-0.552,0-1,0.448-1,1v5.043c0,0.552,0.448,1,1,1s1-0.448,1-1v-5.043
		C30,38.187,29.552,37.739,29,37.739z"/>
	<path fill="#231F20" d="M37.339,34.708c-0.391-0.391-1.024-0.39-1.415-0.001c-0.391,0.391-0.391,1.024-0.001,1.415l3.566,3.567
		c0.195,0.195,0.452,0.293,0.707,0.293c0.256,0,0.512-0.098,0.707-0.292c0.391-0.391,0.391-1.024,0-1.415L37.339,34.708z"/>
	<path fill="#231F20" d="M45,26.087h-5c-0.552,0-1,0.448-1,1c0,0.552,0.448,1,1,1h5c0.552,0,1-0.448,1-1
		C46,26.535,45.552,26.087,45,26.087z"/>
	<path fill="#231F20" d="M36.631,20.367c0.256,0,0.512-0.098,0.707-0.293l3.565-3.566c0.391-0.391,0.391-1.024,0-1.414
		c-0.391-0.391-1.023-0.391-1.414,0l-3.565,3.566c-0.391,0.391-0.391,1.024,0,1.414C36.12,20.269,36.375,20.367,36.631,20.367z"/>
	<path fill="#231F20" d="M30,16.044V11c0-0.552-0.448-1-1-1s-1,0.448-1,1v5.044c0,0.552,0.448,1,1,1S30,16.596,30,16.044z"/>
	<path fill="#231F20" d="M20.583,20.367c0.256,0,0.512-0.098,0.707-0.293c0.391-0.391,0.391-1.023,0-1.414l-3.566-3.566
		c-0.391-0.391-1.023-0.391-1.414,0c-0.391,0.391-0.391,1.023,0,1.414l3.566,3.566C20.071,20.269,20.327,20.367,20.583,20.367z"/>
</g>
</svg>
