<?xml version="1.0" encoding="utf-8"?>
<!-- Generator: Adobe Illustrator 17.0.0, SVG Export Plug-In . SVG Version: 6.00 Build 0)  -->
<!DOCTYPE svg PUBLIC "-//W3C//DTD SVG 1.1//EN" "http://www.w3.org/Graphics/SVG/1.1/DTD/svg11.dtd">
<svg version="1.1" id="Layer_1" xmlns="http://www.w3.org/2000/svg" xmlns:xlink="http://www.w3.org/1999/xlink" x="0px" y="0px"
	 width="60px" height="60px" viewBox="0 0 60 60" enable-background="new 0 0 60 60" xml:space="preserve">
<g>
	<path fill="#231F20" d="M30,19c-6.065,0-11,4.935-11,11s4.935,11,11,11c6.065,0,11-4.935,11-11S36.065,19,30,19z M30,39
		c-4.962,0-9-4.038-9-9s4.038-9,9-9s9,4.038,9,9S34.962,39,30,39z"/>
	<path fill="#231F20" d="M30,1v10.087c0,0.552,0.448,1,1,1s1-0.448,1-1V1c0-0.552-0.448-1-1-1S30,0.448,30,1z"/>
	<path fill="#231F20" d="M31,47.913c-0.552,0-1,0.448-1,1V59c0,0.552,0.448,1,1,1s1-0.448,1-1V48.913
		C32,48.361,31.552,47.913,31,47.913z"/>
	<path fill="#231F20" d="M10.2,8.787c-0.391-0.391-1.023-0.391-1.414,0c-0.391,0.391-0.391,1.023,0,1.414l7.132,7.133
		c0.195,0.195,0.451,0.293,0.707,0.293s0.512-0.098,0.707-0.293c0.391-0.391,0.391-1.023,0-1.414L10.2,8.787z"/>
	<path fill="#231F20" d="M44.079,42.667c-0.391-0.391-1.023-0.391-1.414,0c-0.391,0.391-0.391,1.024,0,1.414l7.134,7.133
		c0.195,0.195,0.451,0.293,0.707,0.293c0.256,0,0.512-0.098,0.707-0.293c0.391-0.391,0.391-1.024,0-1.414L44.079,42.667z"/>
	<path fill="#231F20" d="M12.087,31c0-0.552-0.448-1-1-1H1c-0.552,0-1,0.448-1,1s0.448,1,1,1h10.087
		C11.639,32,12.087,31.552,12.087,31z"/>
	<path fill="#231F20" d="M59,30H48.913c-0.552,0-1,0.448-1,1s0.448,1,1,1H59c0.552,0,1-0.448,1-1S59.552,30,59,30z"/>
	<path fill="#231F20" d="M15.918,42.667l-7.132,7.133c-0.391,0.391-0.391,1.023,0,1.414c0.195,0.195,0.451,0.293,0.707,0.293
		c0.256,0,0.512-0.098,0.707-0.293l7.132-7.133c0.391-0.391,0.391-1.023,0-1.414C16.941,42.276,16.309,42.276,15.918,42.667z"/>
	<path fill="#231F20" d="M49.799,8.787l-7.134,7.133c-0.391,0.39-0.391,1.023,0,1.414c0.195,0.195,0.451,0.293,0.707,0.293
		c0.256,0,0.512-0.098,0.707-0.293l7.134-7.133c0.391-0.39,0.391-1.023,0-1.414C50.822,8.396,50.19,8.396,49.799,8.787z"/>
</g>
</svg>
