<?xml version="1.0" encoding="utf-8"?>
<!-- Generator: Adobe Illustrator 17.0.0, SVG Export Plug-In . SVG Version: 6.00 Build 0)  -->
<!DOCTYPE svg PUBLIC "-//W3C//DTD SVG 1.1//EN" "http://www.w3.org/Graphics/SVG/1.1/DTD/svg11.dtd">
<svg version="1.1" id="Layer_1" xmlns="http://www.w3.org/2000/svg" xmlns:xlink="http://www.w3.org/1999/xlink" x="0px" y="0px"
	 width="60px" height="60px" viewBox="0 0 60 60" enable-background="new 0 0 60 60" xml:space="preserve">
<g>
	<path fill="#231F20" d="M9,20h6.261c1.793,0,2.41-0.883,2.624-2H24v18h-1c-0.552,0-1,0.448-1,1v22c0,0.552,0.448,1,1,1h9.913
		c0.552,0,1-0.448,1-1V37c0-0.552-0.448-1-1-1H32V18h12c0.552,0,1-0.448,1-1c0-5.047,3.514-9,8-9c0.552,0,1-0.448,1-1V3
		c0-0.552-0.448-1-1-1H17.778C17.367,0.727,16.393,0,15,0H9C7.122,0,6,1.316,6,3.521V16C6,17.782,6,20,9,20z M31.913,58H24V38h1h6
		h0.913V58z M30,36h-4V18h4V36z M52,6.052C47.178,6.556,43.456,10.68,43.039,16H31h-6h-7V4h34V6.052z M8,3.521C8,2,8.65,2,9,2h6
		c0.35,0,1,0,1,1.521V16.13C16,18,16,18,15.261,18H9c-0.962,0-1,0-1-2V3.521z"/>
</g>
</svg>
