<?xml version="1.0" encoding="utf-8"?>
<!-- Generator: Adobe Illustrator 17.0.0, SVG Export Plug-In . SVG Version: 6.00 Build 0)  -->
<!DOCTYPE svg PUBLIC "-//W3C//DTD SVG 1.1//EN" "http://www.w3.org/Graphics/SVG/1.1/DTD/svg11.dtd">
<svg version="1.1" id="Layer_1" xmlns="http://www.w3.org/2000/svg" xmlns:xlink="http://www.w3.org/1999/xlink" x="0px" y="0px"
	 width="60px" height="60px" viewBox="0 0 60 60" enable-background="new 0 0 60 60" xml:space="preserve">
<g>
	<path fill="#231F20" d="M59,32H44.64l-5.731-12.419c-0.182-0.394-0.596-0.624-1.025-0.574c-0.43,0.051-0.778,0.373-0.863,0.797
		l-5.865,29.325L24.99,6.856c-0.068-0.462-0.447-0.816-0.913-0.853c-0.472-0.03-0.895,0.256-1.032,0.703L15.261,32H1
		c-0.552,0-1,0.448-1,1s0.448,1,1,1h15c0.439,0,0.827-0.286,0.956-0.706l6.695-21.759l6.359,43.609
		c0.07,0.481,0.477,0.842,0.963,0.855c0.009,0,0.018,0,0.027,0c0.475,0,0.886-0.335,0.98-0.804l6.398-31.99l4.713,10.212
		C43.255,33.773,43.61,34,44,34h15c0.552,0,1-0.448,1-1S59.552,32,59,32z"/>
</g>
</svg>
