<?xml version="1.0" encoding="utf-8"?>
<!-- Generator: Adobe Illustrator 17.0.0, SVG Export Plug-In . SVG Version: 6.00 Build 0)  -->
<!DOCTYPE svg PUBLIC "-//W3C//DTD SVG 1.1//EN" "http://www.w3.org/Graphics/SVG/1.1/DTD/svg11.dtd">
<svg version="1.1" id="Layer_1" xmlns="http://www.w3.org/2000/svg" xmlns:xlink="http://www.w3.org/1999/xlink" x="0px" y="0px"
	 width="60px" height="60px" viewBox="0 0 60 60" enable-background="new 0 0 60 60" xml:space="preserve">
<g>
	<path fill="#231F20" d="M21.202,30.261c-4.723,0-8.565,3.842-8.565,8.566c0,4.723,3.843,8.565,8.565,8.565
		c4.723,0,8.565-3.842,8.565-8.565C29.768,34.103,25.925,30.261,21.202,30.261z M21.202,45.391c-3.62,0-6.565-2.945-6.565-6.565
		c0-3.62,2.945-6.566,6.565-6.566c3.62,0,6.565,2.945,6.565,6.566C27.768,42.446,24.822,45.391,21.202,45.391z"/>
	<path fill="#231F20" d="M47.681,7.565c-2.637,0-4.782,2.145-4.782,4.782c0,2.637,2.146,4.783,4.782,4.783
		c2.637,0,4.782-2.146,4.782-4.783C52.463,9.711,50.317,7.565,47.681,7.565z M47.681,15.13c-1.534,0-2.782-1.249-2.782-2.783
		c0-1.534,1.248-2.782,2.782-2.782c1.534,0,2.782,1.248,2.782,2.782C50.463,13.882,49.215,15.13,47.681,15.13z"/>
	<path fill="#231F20" d="M41.714,43.678l-3.359-1.936c0.159-0.951,0.239-1.929,0.239-2.916c0-0.965-0.084-1.943-0.25-2.918
		l3.349-1.935c0.479-0.276,0.643-0.887,0.366-1.366l-5.043-8.738c-0.134-0.231-0.354-0.399-0.612-0.467
		c-0.261-0.068-0.533-0.03-0.763,0.106l-3.266,1.93c-1.465-1.262-2.949-2.26-4.95-2.94v-3.543c0-0.552-0.447-1-1-1H16.338
		c-0.553,0-1,0.448-1,1v3.541c-1.861,0.625-3.489,1.56-5.137,2.952l-3.409-1.947c-0.476-0.273-1.085-0.109-1.361,0.367l-5.066,8.738
		c-0.133,0.229-0.169,0.503-0.101,0.759c0.067,0.256,0.235,0.475,0.465,0.608l3.341,1.934c-0.168,0.98-0.253,1.959-0.253,2.919
		c0,0.977,0.082,1.955,0.245,2.917l-3.352,1.935c-0.479,0.276-0.643,0.888-0.366,1.366l5.043,8.737
		c0.274,0.476,0.882,0.641,1.358,0.371l3.454-1.952c1.646,1.392,3.274,2.329,5.14,2.956V59c0,0.552,0.447,1,1,1h10.087
		c0.553,0,1-0.448,1-1v-3.846c2.001-0.682,3.486-1.681,4.955-2.945l3.31,1.935c0.23,0.134,0.507,0.172,0.762,0.103
		c0.258-0.068,0.477-0.237,0.61-0.468l5.021-8.737C42.356,44.565,42.192,43.954,41.714,43.678z M35.829,51.91l-3.064-1.792
		c-0.375-0.22-0.851-0.172-1.175,0.121c-1.668,1.505-3.16,2.568-5.44,3.218c-0.43,0.123-0.726,0.515-0.726,0.962V58h-8.087v-3.581
		c0-0.447-0.296-0.839-0.726-0.962c-2.107-0.601-3.788-1.563-5.618-3.218c-0.32-0.29-0.788-0.341-1.163-0.129l-3.208,1.813
		l-4.048-7.013l3.102-1.79c0.375-0.217,0.568-0.65,0.479-1.074c-0.225-1.055-0.339-2.138-0.339-3.22c0-1.054,0.117-2.137,0.348-3.22
		c0.09-0.423-0.103-0.857-0.478-1.073l-3.09-1.789l4.066-7.012l3.164,1.807c0.377,0.215,0.846,0.164,1.166-0.126
		c1.835-1.656,3.516-2.618,5.618-3.216c0.43-0.122,0.727-0.515,0.727-0.962v-3.278h8.087v3.278c0,0.447,0.297,0.84,0.727,0.962
		c2.282,0.649,3.772,1.711,5.435,3.215c0.325,0.294,0.803,0.342,1.18,0.119l3.021-1.786l4.038,6.997l-3.099,1.79
		c-0.375,0.216-0.568,0.65-0.478,1.074c0.228,1.074,0.345,2.157,0.345,3.22c0,1.099-0.111,2.182-0.332,3.22
		c-0.09,0.424,0.104,0.857,0.479,1.074l3.109,1.792L35.829,51.91z"/>
	<path fill="#231F20" d="M59.289,14.97l-1.899-1.092c0.078-0.502,0.117-1.014,0.117-1.531c0-0.504-0.042-1.017-0.126-1.534
		l1.888-1.089c0.479-0.276,0.643-0.888,0.366-1.366L57.113,3.99c-0.134-0.232-0.356-0.401-0.615-0.468
		c-0.26-0.068-0.535-0.028-0.765,0.11l-1.796,1.076c-0.777-0.632-1.644-1.147-2.556-1.517V1c0-0.552-0.447-1-1-1h-5.044
		c-0.553,0-1,0.448-1,1v2.187c-1.012,0.394-1.963,0.928-2.741,1.537L39.649,3.62c-0.477-0.27-1.083-0.106-1.357,0.367l-2.544,4.369
		c-0.134,0.23-0.171,0.503-0.102,0.76c0.068,0.257,0.235,0.476,0.466,0.609l1.879,1.088c-0.086,0.523-0.13,1.037-0.13,1.536
		c0,0.508,0.041,1.021,0.123,1.533l-1.891,1.091c-0.23,0.132-0.398,0.351-0.467,0.607c-0.068,0.256-0.033,0.529,0.1,0.759
		l2.521,4.369c0.272,0.474,0.876,0.641,1.353,0.373l1.99-1.111c0.78,0.612,1.734,1.148,2.748,1.543v2.185c0,0.552,0.447,1,1,1h5.044
		c0.553,0,1-0.448,1-1v-2.19c0.912-0.37,1.78-0.886,2.562-1.522l1.841,1.084c0.23,0.135,0.505,0.172,0.765,0.104
		c0.258-0.068,0.479-0.238,0.611-0.47l2.499-4.369C59.933,15.856,59.768,15.245,59.289,14.97z M55.927,18.831l-1.591-0.937
		c-0.384-0.225-0.869-0.172-1.195,0.135c-0.887,0.839-1.945,1.469-3.06,1.822c-0.416,0.132-0.698,0.518-0.698,0.954v1.892h-3.044
		v-1.892c0-0.436-0.282-0.822-0.698-0.954c-1.258-0.397-2.438-1.061-3.24-1.821c-0.317-0.302-0.794-0.36-1.175-0.147l-1.739,0.97
		l-1.527-2.648l1.644-0.949c0.384-0.221,0.576-0.667,0.474-1.098c-0.144-0.603-0.216-1.212-0.216-1.81
		c0-0.583,0.073-1.175,0.225-1.81c0.102-0.43-0.089-0.876-0.472-1.097L37.98,8.496l1.543-2.648l1.698,0.963
		c0.383,0.217,0.862,0.158,1.182-0.145c0.798-0.758,1.978-1.42,3.236-1.818c0.416-0.132,0.698-0.518,0.698-0.954V2h3.044v1.891
		c0,0.436,0.282,0.821,0.696,0.953c1.121,0.357,2.179,0.986,3.061,1.821c0.326,0.31,0.818,0.362,1.201,0.132l1.549-0.928
		l1.514,2.622L55.761,9.44c-0.383,0.221-0.575,0.667-0.473,1.097c0.146,0.614,0.219,1.223,0.219,1.811
		c0,0.619-0.07,1.227-0.208,1.81c-0.102,0.431,0.091,0.877,0.475,1.098l1.654,0.951L55.927,18.831z"/>
</g>
</svg>
