<?xml version="1.0" encoding="utf-8"?>
<!-- Generator: Adobe Illustrator 17.0.0, SVG Export Plug-In . SVG Version: 6.00 Build 0)  -->
<!DOCTYPE svg PUBLIC "-//W3C//DTD SVG 1.1//EN" "http://www.w3.org/Graphics/SVG/1.1/DTD/svg11.dtd">
<svg version="1.1" id="Layer_1" xmlns="http://www.w3.org/2000/svg" xmlns:xlink="http://www.w3.org/1999/xlink" x="0px" y="0px"
	 width="60px" height="60px" viewBox="0 0 60 60" enable-background="new 0 0 60 60" xml:space="preserve">
<g>
	<path fill="#231F20" d="M45.042,38.278l-8.279-8.28l8.279-8.278c1.186,0.419,2.428,0.631,3.697,0.631
		c2.958,0,5.738-1.152,7.83-3.244c3.222-3.221,4.127-7.81,2.364-11.977c-0.135-0.319-0.426-0.546-0.769-0.599
		c-0.344-0.054-0.689,0.076-0.914,0.34l-4.524,5.314h-4.539V7.263l5.143-4.528c0.258-0.227,0.381-0.571,0.326-0.911
		c-0.056-0.34-0.281-0.627-0.598-0.761c-1.377-0.582-2.835-0.878-4.335-0.878c-2.96,0-5.742,1.152-7.833,3.244
		c-3.046,3.045-4.037,7.505-2.615,11.527l-8.277,8.278l-8.278-8.278c1.425-4.024,0.435-8.483-2.612-11.528
		c-3.221-3.222-7.81-4.13-11.977-2.366C6.812,1.199,6.586,1.49,6.533,1.833C6.48,2.176,6.609,2.521,6.873,2.746l5.315,4.527v4.913
		H7.273L2.747,6.872c-0.226-0.265-0.575-0.393-0.914-0.34C1.49,6.585,1.199,6.812,1.064,7.131c-1.753,4.142-0.824,8.88,2.366,12.07
		c3.026,3.03,7.486,4.001,11.528,2.566l8.265,8.244l-8.265,8.267c-1.187-0.418-2.427-0.63-3.697-0.63
		c-2.96,0-5.741,1.152-7.831,3.244c-3.207,3.207-4.136,7.982-2.366,12.165c0.134,0.317,0.421,0.542,0.761,0.598
		c0.345,0.052,0.683-0.069,0.91-0.326l4.528-5.141h4.924v4.54l-5.315,4.527c-0.264,0.225-0.393,0.571-0.34,0.914
		c0.053,0.343,0.279,0.634,0.599,0.768c1.376,0.582,2.825,0.877,4.307,0.877c0.001,0,0.001,0,0.001,0
		c2.914,0,5.671-1.152,7.762-3.243c3.011-3.009,3.966-7.469,2.52-11.529l8.278-8.278l8.28,8.281
		c-1.425,4.023-0.434,8.482,2.613,11.528c2.125,2.126,4.941,3.25,7.818,3.25c1.461,0,2.938-0.29,4.349-0.886
		c0.316-0.134,0.542-0.421,0.598-0.761c0.055-0.339-0.068-0.684-0.327-0.911l-5.143-4.525v-4.552h4.549l4.528,5.141
		c0.227,0.257,0.565,0.378,0.91,0.326c0.34-0.055,0.627-0.281,0.761-0.598c1.77-4.183,0.841-8.958-2.366-12.165
		C53.523,37.845,49.062,36.855,45.042,38.278z M15.91,19.892c-0.288-0.287-0.722-0.371-1.096-0.213
		c-3.451,1.461-7.362,0.717-9.97-1.892c-2.2-2.201-3.087-5.3-2.453-8.248l3.658,4.296c0.19,0.223,0.469,0.352,0.762,0.352h6.376
		c0.553,0,1-0.448,1-1V6.812c0-0.293-0.129-0.571-0.352-0.761l-4.3-3.663c2.932-0.641,5.94,0.237,8.158,2.457
		c2.629,2.627,3.39,6.541,1.938,9.969c-0.159,0.375-0.074,0.809,0.214,1.097l8.739,8.739l-3.947,3.947L15.91,19.892z M19.632,45.185
		c1.469,3.469,0.745,7.382-1.845,9.97c-1.713,1.714-3.968,2.657-6.349,2.657c-0.642,0-1.277-0.068-1.9-0.203l4.298-3.661
		c0.223-0.19,0.352-0.468,0.352-0.761v-6.001c0-0.552-0.447-1-1-1H6.811c-0.287,0-0.56,0.124-0.75,0.339l-3.665,4.161
		c-0.666-2.998,0.22-6.151,2.448-8.38c1.713-1.714,3.991-2.658,6.417-2.658c1.23,0,2.426,0.242,3.554,0.719
		c0.375,0.158,0.808,0.075,1.097-0.214L40.15,15.911c0.288-0.288,0.373-0.722,0.214-1.097c-1.449-3.428-0.688-7.342,1.94-9.97
		c1.714-1.714,3.993-2.658,6.419-2.658c0.666,0,1.322,0.071,1.963,0.212l-4.16,3.663c-0.215,0.19-0.339,0.463-0.339,0.751v6.375
		c0,0.552,0.447,1,1,1h6.001c0.293,0,0.571-0.128,0.762-0.352l3.66-4.299c0.64,2.928-0.236,5.939-2.455,8.158
		c-1.714,1.714-3.992,2.658-6.416,2.658c-1.229,0-2.426-0.242-3.554-0.72c-0.374-0.158-0.808-0.075-1.097,0.214L19.846,44.088
		C19.558,44.376,19.473,44.81,19.632,45.185z M57.603,50.686l-3.665-4.161c-0.189-0.215-0.463-0.339-0.75-0.339h-6.001
		c-0.553,0-1,0.448-1,1v6.004c0,0.288,0.124,0.561,0.34,0.75l4.161,3.662c-3.003,0.667-6.154-0.218-8.382-2.445
		c-2.629-2.629-3.39-6.542-1.938-9.97c0.159-0.375,0.074-0.809-0.214-1.097l-8.741-8.742l3.936-3.936l8.74,8.741
		c0.288,0.289,0.723,0.372,1.097,0.214c3.43-1.451,7.342-0.689,9.97,1.939C57.384,44.535,58.269,47.688,57.603,50.686z"/>
</g>
</svg>
