<?xml version="1.0" encoding="utf-8"?>
<!-- Generator: Adobe Illustrator 17.0.0, SVG Export Plug-In . SVG Version: 6.00 Build 0)  -->
<!DOCTYPE svg PUBLIC "-//W3C//DTD SVG 1.1//EN" "http://www.w3.org/Graphics/SVG/1.1/DTD/svg11.dtd">
<svg version="1.1" id="Layer_1" xmlns="http://www.w3.org/2000/svg" xmlns:xlink="http://www.w3.org/1999/xlink" x="0px" y="0px"
	 width="60px" height="60px" viewBox="0 0 60 60" enable-background="new 0 0 60 60" xml:space="preserve">
<g>
	<path fill="#231F20" d="M59,0H1C0.447,0,0,0.448,0,1v58c0,0.552,0.447,1,1,1h58c0.553,0,1-0.448,1-1V1C60,0.448,59.553,0,59,0z
		 M58,58H2V2h56V58z"/>
	<path fill="#231F20" d="M39,32h3v4.304c0,0.552,0.447,1,1,1c0.553,0,1-0.448,1-1V32h3c0.553,0,1-0.448,1-1v-4c0-0.552-0.447-1-1-1
		h-3V8.565c0-0.552-0.447-1-1-1c-0.553,0-1,0.448-1,1V26h-3c-0.553,0-1,0.448-1,1v4C38,31.552,38.447,32,39,32z M40,28h6v2h-6V28z"
		/>
	<path fill="#231F20" d="M27,20h3v16.304c0,0.552,0.447,1,1,1c0.553,0,1-0.448,1-1V20h3c0.553,0,1-0.448,1-1v-4c0-0.552-0.447-1-1-1
		h-3V8.565c0-0.552-0.447-1-1-1c-0.553,0-1,0.448-1,1V14h-3c-0.553,0-1,0.448-1,1v4C26,19.552,26.447,20,27,20z M28,16h6v2h-6V16z"
		/>
	<path fill="#231F20" d="M13,28h3v8.304c0,0.552,0.447,1,1,1c0.553,0,1-0.448,1-1V28h3c0.553,0,1-0.448,1-1v-4c0-0.552-0.447-1-1-1
		h-3V8.565c0-0.552-0.447-1-1-1c-0.553,0-1,0.448-1,1V22h-3c-0.553,0-1,0.448-1,1v4C12,27.552,12.447,28,13,28z M14,24h6v2h-6V24z"
		/>
	<path fill="#231F20" d="M43,52c2.757,0,5-2.243,5-5s-2.243-5-5-5c-2.757,0-5,2.243-5,5S40.243,52,43,52z M43,44
		c1.654,0,3,1.346,3,3s-1.346,3-3,3s-3-1.346-3-3S41.346,44,43,44z"/>
	<path fill="#231F20" d="M31,52c2.757,0,5-2.243,5-5s-2.243-5-5-5c-2.757,0-5,2.243-5,5S28.243,52,31,52z M31,44
		c1.654,0,3,1.346,3,3s-1.346,3-3,3s-3-1.346-3-3S29.346,44,31,44z"/>
	<path fill="#231F20" d="M17,52c2.757,0,5-2.243,5-5s-2.243-5-5-5c-2.757,0-5,2.243-5,5S14.243,52,17,52z M17,44
		c1.654,0,3,1.346,3,3s-1.346,3-3,3s-3-1.346-3-3S15.346,44,17,44z"/>
</g>
</svg>
