<?xml version="1.0" encoding="utf-8"?>
<!-- Generator: Adobe Illustrator 17.0.0, SVG Export Plug-In . SVG Version: 6.00 Build 0)  -->
<!DOCTYPE svg PUBLIC "-//W3C//DTD SVG 1.1//EN" "http://www.w3.org/Graphics/SVG/1.1/DTD/svg11.dtd">
<svg version="1.1" id="Layer_1" xmlns="http://www.w3.org/2000/svg" xmlns:xlink="http://www.w3.org/1999/xlink" x="0px" y="0px"
	 width="60px" height="60px" viewBox="0 0 60 60" enable-background="new 0 0 60 60" xml:space="preserve">
<g>
	<path fill="#231F20" d="M59.029,12.729c0.068-0.256,0.033-0.529-0.1-0.759l-3.783-6.55C55.012,5.188,54.79,5.02,54.53,4.952
		c-0.257-0.066-0.535-0.027-0.765,0.111l-3.026,1.818c-0.936-0.737-2.148-1.45-3.677-2.163V1c0-0.552-0.447-1-1-1h-7.565
		c-0.553,0-1,0.448-1,1v3.583c-1.895,0.543-2.958,1.349-4.018,2.299L30.241,5.05c-0.477-0.27-1.08-0.106-1.356,0.367l-3.82,6.55
		c-0.134,0.229-0.17,0.503-0.103,0.759c0.068,0.257,0.235,0.476,0.465,0.609l3.148,1.828c-0.254,1.5-0.257,2.968-0.009,4.454
		l-3.172,1.828c-0.23,0.132-0.398,0.351-0.467,0.607c-0.068,0.256-0.033,0.529,0.1,0.759l3.78,6.551
		c0.273,0.472,0.876,0.641,1.352,0.374l3.312-1.84c1.049,0.941,2.111,1.756,4.026,2.304v2.757c0,0.552,0.447,1,1,1h7.565
		c0.553,0,1-0.448,1-1v-2.892c1.528-0.713,2.742-1.427,3.68-2.165l3.022,1.82c0.23,0.138,0.508,0.179,0.766,0.111
		c0.26-0.067,0.481-0.236,0.616-0.468l3.783-6.551c0.133-0.23,0.168-0.502,0.1-0.759c-0.068-0.256-0.236-0.475-0.466-0.607
		l-3.166-1.828c0.251-1.494,0.251-2.963,0-4.453l3.166-1.828C58.793,13.204,58.961,12.986,59.029,12.729z M53.779,13.789
		c-0.378,0.218-0.57,0.657-0.477,1.082c0.375,1.692,0.376,3.341,0.001,5.041c-0.094,0.426,0.099,0.863,0.477,1.082l2.917,1.684
		l-2.773,4.803l-2.765-1.665c-0.378-0.229-0.864-0.18-1.191,0.12c-0.938,0.86-2.348,1.701-4.311,2.572
		c-0.361,0.16-0.595,0.519-0.595,0.914v2.535h-5.565v-2.535c0-0.469-0.326-0.875-0.783-0.976c-2.229-0.494-3.082-1.277-4.425-2.509
		c-0.317-0.291-0.787-0.346-1.161-0.137l-3.081,1.711l-2.788-4.832l2.923-1.685c0.378-0.218,0.571-0.656,0.478-1.082
		c-0.372-1.684-0.369-3.333,0.009-5.041c0.094-0.425-0.098-0.862-0.475-1.081l-2.896-1.682l2.817-4.832l3.011,1.703
		c0.377,0.214,0.892,0.122,1.211-0.173c1.291-1.188,2.145-1.972,4.379-2.469c0.457-0.102,0.782-0.507,0.782-0.976V2h5.565v3.361
		c0,0.395,0.233,0.754,0.595,0.914c1.963,0.871,3.372,1.711,4.307,2.568c0.327,0.301,0.812,0.347,1.19,0.121l2.769-1.663
		l2.774,4.803L53.779,13.789z"/>
	<path fill="#231F20" d="M41.977,11.348c-3.332,0-6.043,2.711-6.043,6.043s2.711,6.044,6.043,6.044c3.333,0,6.044-2.711,6.044-6.044
		S45.31,11.348,41.977,11.348z M41.977,21.435c-2.229,0-4.043-1.814-4.043-4.044s1.813-4.043,4.043-4.043s4.044,1.814,4.044,4.043
		S44.207,21.435,41.977,21.435z"/>
	<path fill="#231F20" d="M34.973,37.188l-3.782-6.55c-0.135-0.232-0.356-0.401-0.616-0.468c-0.258-0.066-0.535-0.028-0.765,0.111
		l-3.027,1.818c-0.935-0.737-2.148-1.451-3.676-2.164v-2.979c0-0.552-0.447-1-1-1h-7.565c-0.553,0-1,0.448-1,1v2.844
		c-1.893,0.543-2.956,1.349-4.018,2.299l-3.238-1.833c-0.477-0.271-1.079-0.106-1.356,0.366l-3.82,6.55
		c-0.134,0.229-0.17,0.503-0.103,0.759c0.068,0.257,0.235,0.476,0.465,0.609l3.148,1.827c-0.254,1.501-0.257,2.97-0.01,4.455
		l-3.172,1.828c-0.231,0.132-0.398,0.351-0.467,0.607c-0.068,0.256-0.033,0.529,0.1,0.759l3.78,6.551
		c0.272,0.473,0.876,0.64,1.352,0.374l3.313-1.84c1.048,0.941,2.111,1.756,4.025,2.304V59c0,0.552,0.447,1,1,1h7.565
		c0.553,0,1-0.448,1-1v-3.718c1.527-0.712,2.741-1.427,3.68-2.166l3.023,1.82c0.23,0.139,0.507,0.179,0.766,0.111
		c0.26-0.067,0.482-0.236,0.616-0.468l3.782-6.551c0.276-0.478,0.112-1.09-0.366-1.366l-3.165-1.828c0.25-1.496,0.25-2.964,0-4.453
		l3.165-1.828C35.085,38.278,35.249,37.666,34.973,37.188z M29.823,39.006c-0.378,0.218-0.57,0.657-0.477,1.083
		c0.375,1.69,0.375,3.339,0.001,5.041c-0.094,0.426,0.099,0.863,0.477,1.081l2.916,1.684l-2.772,4.803l-2.765-1.665
		c-0.377-0.229-0.864-0.181-1.191,0.12c-0.926,0.849-2.376,1.714-4.31,2.572c-0.361,0.16-0.595,0.519-0.595,0.914V58h-5.565v-3.361
		c0-0.469-0.326-0.875-0.783-0.976c-2.229-0.495-3.084-1.279-4.423-2.509c-0.318-0.291-0.784-0.347-1.162-0.137l-3.082,1.711
		l-2.788-4.832l2.923-1.685c0.378-0.218,0.571-0.656,0.477-1.081c-0.371-1.682-0.368-3.331,0.01-5.041
		c0.094-0.425-0.098-0.862-0.475-1.081l-2.896-1.682l2.817-4.832l3.01,1.703c0.376,0.212,0.895,0.118,1.214-0.175
		c1.291-1.187,2.144-1.971,4.376-2.468c0.457-0.102,0.782-0.507,0.782-0.976v-2.622h5.565v2.622c0,0.396,0.233,0.754,0.595,0.914
		c1.935,0.858,3.383,1.722,4.307,2.569c0.327,0.301,0.812,0.348,1.19,0.121l2.769-1.663l2.773,4.803L29.823,39.006z"/>
	<path fill="#231F20" d="M18.021,36.565c-3.333,0-6.044,2.711-6.044,6.043c0,3.333,2.711,6.043,6.044,6.043
		c3.332,0,6.043-2.711,6.043-6.043C24.064,39.276,21.353,36.565,18.021,36.565z M18.021,46.652c-2.229,0-4.044-1.814-4.044-4.043
		s1.815-4.043,4.044-4.043s4.043,1.814,4.043,4.043S20.251,46.652,18.021,46.652z"/>
</g>
</svg>
