<?xml version="1.0" encoding="utf-8"?>
<!-- Generator: Adobe Illustrator 17.0.0, SVG Export Plug-In . SVG Version: 6.00 Build 0)  -->
<!DOCTYPE svg PUBLIC "-//W3C//DTD SVG 1.1//EN" "http://www.w3.org/Graphics/SVG/1.1/DTD/svg11.dtd">
<svg version="1.1" id="Layer_1" xmlns="http://www.w3.org/2000/svg" xmlns:xlink="http://www.w3.org/1999/xlink" x="0px" y="0px"
	 width="60px" height="60px" viewBox="0 0 60 60" enable-background="new 0 0 60 60" xml:space="preserve">
<g>
	<path fill="#231F20" d="M59,24h-7.863c-0.157-0.442-0.352-1.109-0.51-1.641c-0.33-1.125-0.695-2.367-1.122-3.318l5.274-5.274
		c0.188-0.188,0.293-0.442,0.293-0.707c0-0.265-0.105-0.52-0.293-0.707l-7.134-7.132c-0.391-0.391-1.023-0.391-1.414,0l-5.259,5.257
		c-1.15-0.584-2.547-1.075-3.708-1.483C36.799,8.831,36.349,8.673,36,8.538V1c0-0.552-0.447-1-1-1H25c-0.553,0-1,0.448-1,1v7.538
		c-0.349,0.136-0.799,0.294-1.264,0.457c-1.163,0.408-2.56,0.898-3.71,1.483l-5.26-5.257c-0.391-0.391-1.023-0.391-1.414,0
		L5.22,12.352c-0.391,0.39-0.391,1.023,0,1.414l5.259,5.259c-0.584,1.148-1.074,2.541-1.481,3.701
		C8.832,23.196,8.672,23.649,8.535,24H1c-0.553,0-1,0.448-1,1v8c0,0.552,0.447,1,1,1h7.354c0.396,2.02,1.092,4.922,2.124,6.973
		l-5.26,5.26c-0.188,0.188-0.293,0.442-0.293,0.707c0,0.265,0.106,0.52,0.293,0.707l7.134,7.132c0.376,0.375,1.039,0.375,1.414,0
		l5.258-5.259c1.15,0.585,2.545,1.076,3.706,1.484c0.468,0.165,0.92,0.323,1.27,0.459V59c0,0.552,0.447,1,1,1h10
		c0.553,0,1-0.448,1-1v-7.537c0.35-0.136,0.803-0.295,1.271-0.46c1.16-0.408,2.554-0.897,3.701-1.481l5.261,5.258
		c0.391,0.39,1.023,0.39,1.414,0l7.132-7.132c0.391-0.391,0.391-1.023,0-1.414l-5.234-5.236c0.924-1.544,1.668-3.086,2.16-6.997H59
		c0.553,0,1-0.448,1-1v-8C60,24.448,59.553,24,59,24z M58,32h-7.185c-0.512,0-0.94,0.386-0.994,0.894
		c-0.493,4.63-1.256,5.878-2.312,7.604l-0.079,0.129c-0.24,0.394-0.181,0.902,0.146,1.229l5.083,5.085l-5.718,5.718l-5.086-5.083
		c-0.328-0.327-0.837-0.386-1.229-0.146c-1.059,0.648-2.699,1.224-4.018,1.687c-0.919,0.323-1.644,0.578-2.088,0.82
		C34.2,50.111,34,50.448,34,50.814V58h-8v-7.186c0-0.366-0.2-0.703-0.521-0.878c-0.443-0.242-1.168-0.496-2.086-0.819
		c-1.319-0.464-2.961-1.041-4.023-1.69c-0.393-0.242-0.902-0.182-1.229,0.146l-5.083,5.085L7.34,46.94l5.085-5.085
		c0.327-0.327,0.387-0.835,0.146-1.229c-0.906-1.481-1.781-4.325-2.402-7.803C10.084,32.347,9.669,32,9.185,32H2v-6h7.185
		c0.365,0,0.702-0.2,0.877-0.52c0.243-0.444,0.499-1.171,0.822-2.09c0.463-1.317,1.04-2.957,1.688-4.017
		c0.24-0.394,0.181-0.902-0.146-1.228L7.341,13.06l5.719-5.718l5.085,5.083c0.327,0.327,0.833,0.386,1.229,0.146
		c1.062-0.648,2.705-1.226,4.025-1.689c0.915-0.321,1.637-0.575,2.079-0.815C25.8,9.892,26,9.554,26,9.188V2h8v7.188
		c0,0.366,0.2,0.704,0.522,0.878c0.442,0.241,1.164,0.494,2.079,0.815c1.319,0.464,2.962,1.041,4.025,1.689
		c0.392,0.24,0.9,0.181,1.227-0.146l5.084-5.083l5.72,5.718l-5.083,5.082c-0.326,0.326-0.387,0.834-0.146,1.228
		c0.453,0.743,0.912,2.301,1.28,3.553c0.667,2.269,0.943,3.208,1.957,3.208h0.001c0.184,0,0.359-0.046,0.518-0.131H58V32z"/>
	<path fill="#231F20" d="M30,18c-6.617,0-12,5.383-12,12s5.383,12,12,12s12-5.383,12-12S36.617,18,30,18z M30,40
		c-5.514,0-10-4.486-10-10s4.486-10,10-10c5.514,0,10,4.486,10,10S35.514,40,30,40z"/>
</g>
</svg>
