<?xml version="1.0" encoding="utf-8"?>
<!-- Generator: Adobe Illustrator 17.0.0, SVG Export Plug-In . SVG Version: 6.00 Build 0)  -->
<!DOCTYPE svg PUBLIC "-//W3C//DTD SVG 1.1//EN" "http://www.w3.org/Graphics/SVG/1.1/DTD/svg11.dtd">
<svg version="1.1" id="Layer_1" xmlns="http://www.w3.org/2000/svg" xmlns:xlink="http://www.w3.org/1999/xlink" x="0px" y="0px"
	 width="60px" height="60px" viewBox="0 0 60 60" enable-background="new 0 0 60 60" xml:space="preserve">
<g>
	<path fill="#231F20" d="M56.947,9.307c-0.326-0.049-0.643,0.064-0.867,0.297L48.024,18H44v-6.101l6.648-8.074
		c0.193-0.234,0.27-0.542,0.208-0.839c-0.062-0.296-0.254-0.549-0.524-0.687c-2.435-1.247-5.188-1.905-7.959-1.905
		c-4.687,0-9.075,1.808-12.358,5.09c-5.197,5.198-6.584,12.969-3.556,19.551L2.182,49.29c-1.143,1.142-1.773,2.658-1.777,4.271
		c-0.005,1.615,0.622,3.134,1.764,4.275c1.142,1.142,2.658,1.771,4.27,1.771c1.611,0,3.128-0.629,4.27-1.771l24.25-24.254
		c2.266,1.039,4.762,1.586,7.266,1.586h0.001c4.641,0,9.003-1.807,12.283-5.087c5.357-5.358,6.636-13.491,3.185-20.239
		C57.545,9.553,57.268,9.354,56.947,9.307z M53.094,28.666c-2.903,2.903-6.763,4.501-10.869,4.501h-0.001
		c-2.435,0-4.859-0.583-7.014-1.686c-0.386-0.196-0.856-0.125-1.163,0.183L9.294,56.421c-0.765,0.764-1.778,1.185-2.855,1.185
		c-1.078,0-2.092-0.421-2.857-1.185c-0.763-0.763-1.181-1.777-1.179-2.857c0.003-1.079,0.427-2.096,1.192-2.861l24.781-24.757
		c0.307-0.307,0.381-0.777,0.183-1.163c-3.041-5.941-1.889-13.129,2.868-17.886c2.905-2.905,6.792-4.504,10.944-4.504
		c2.031,0,4.051,0.399,5.907,1.161l-6.052,7.349C42.081,11.083,42,11.308,42,11.54V19c0,0.552,0.447,1,1,1h5.451
		c0.272,0,0.533-0.111,0.722-0.308l7.33-7.641C58.786,17.742,57.495,24.263,53.094,28.666z"/>
</g>
</svg>
