<?xml version="1.0" encoding="utf-8"?>
<!-- Generator: Adobe Illustrator 17.0.0, SVG Export Plug-In . SVG Version: 6.00 Build 0)  -->
<!DOCTYPE svg PUBLIC "-//W3C//DTD SVG 1.1//EN" "http://www.w3.org/Graphics/SVG/1.1/DTD/svg11.dtd">
<svg version="1.1" xmlns="http://www.w3.org/2000/svg" xmlns:xlink="http://www.w3.org/1999/xlink" x="0px" y="0px" width="60px"
	 height="60px" viewBox="0 0 60 60" enable-background="new 0 0 60 60" xml:space="preserve">
<g id="Layer_3">
	<path fill="#010101" d="M30,0C13.458,0,0,13.458,0,30s13.458,30,30,30s30-13.458,30-30S46.542,0,30,0z M42.894,18.447l-15,30
		C27.723,48.792,27.372,49,27,49c-0.076,0-0.153-0.009-0.23-0.027C26.319,48.867,26,48.464,26,48V34H12
		c-0.464,0-0.866-0.319-0.974-0.77c-0.106-0.451,0.111-0.917,0.526-1.124l30-15c0.386-0.191,0.849-0.118,1.154,0.187
		C43.012,17.597,43.087,18.063,42.894,18.447z"/>
</g>
<g id="nyt_x5F_exporter_x5F_info" display="none">
</g>
</svg>
