<?xml version="1.0" encoding="utf-8"?>
<!-- Generator: Adobe Illustrator 17.0.0, SVG Export Plug-In . SVG Version: 6.00 Build 0)  -->
<!DOCTYPE svg PUBLIC "-//W3C//DTD SVG 1.1//EN" "http://www.w3.org/Graphics/SVG/1.1/DTD/svg11.dtd">
<svg version="1.1" xmlns="http://www.w3.org/2000/svg" xmlns:xlink="http://www.w3.org/1999/xlink" x="0px" y="0px" width="60px"
	 height="60px" viewBox="0 0 60 60" enable-background="new 0 0 60 60" xml:space="preserve">
<g id="Layer_3">
	<path fill="#010101" d="M30,0C13.458,0,0,13.458,0,30s13.458,30,30,30s30-13.458,30-30S46.542,0,30,0z M15.394,45.919
		C15.267,45.974,15.133,46,15,46c-0.26,0-0.516-0.102-0.707-0.293c-0.289-0.289-0.373-0.725-0.212-1.101l8.733-20.378l0.478,0.478
		l12,12l0.479,0.479L15.394,45.919z M45.919,15.394l-8.733,20.378l-0.479-0.479l-12-12l-0.479-0.478l20.378-8.733
		c0.375-0.161,0.811-0.077,1.101,0.212C45.996,14.582,46.08,15.018,45.919,15.394z"/>
</g>
<g id="nyt_x5F_exporter_x5F_info" display="none">
</g>
</svg>
