<?xml version="1.0" encoding="utf-8"?>
<!-- Generator: Adobe Illustrator 17.0.0, SVG Export Plug-In . SVG Version: 6.00 Build 0)  -->
<!DOCTYPE svg PUBLIC "-//W3C//DTD SVG 1.1//EN" "http://www.w3.org/Graphics/SVG/1.1/DTD/svg11.dtd">
<svg version="1.1" xmlns="http://www.w3.org/2000/svg" xmlns:xlink="http://www.w3.org/1999/xlink" x="0px" y="0px" width="60px"
	 height="60px" viewBox="0 0 60 60" enable-background="new 0 0 60 60" xml:space="preserve">
<g id="Layer_3">
	<path fill="#010101" d="M30,0C17.532,0,7,10.533,7,23c0,8.417,3.886,17.458,11.236,26.146c5.515,6.517,10.947,10.497,11.176,10.663
		C29.587,59.937,29.794,60,30,60c0.206,0,0.413-0.063,0.588-0.191c0.229-0.166,5.661-4.146,11.176-10.663
		C49.114,40.458,53,31.417,53,23C53,10.533,42.468,0,30,0z M38.707,30.293c0.391,0.391,0.391,1.023,0,1.414
		C38.512,31.902,38.256,32,38,32c-0.256,0-0.512-0.098-0.707-0.293L30,24.414l-7.293,7.293C22.512,31.902,22.256,32,22,32
		c-0.256,0-0.512-0.098-0.707-0.293c-0.391-0.391-0.391-1.023,0-1.414L28.586,23l-7.293-7.293c-0.391-0.391-0.391-1.023,0-1.414
		c0.391-0.391,1.023-0.391,1.414,0L30,21.586l7.293-7.293c0.391-0.391,1.023-0.391,1.414,0c0.391,0.391,0.391,1.023,0,1.414
		L31.414,23L38.707,30.293z"/>
</g>
<g id="nyt_x5F_exporter_x5F_info" display="none">
</g>
</svg>
