<?xml version="1.0" encoding="utf-8"?>
<!-- Generator: Adobe Illustrator 17.0.0, SVG Export Plug-In . SVG Version: 6.00 Build 0)  -->
<!DOCTYPE svg PUBLIC "-//W3C//DTD SVG 1.1//EN" "http://www.w3.org/Graphics/SVG/1.1/DTD/svg11.dtd">
<svg version="1.1" xmlns="http://www.w3.org/2000/svg" xmlns:xlink="http://www.w3.org/1999/xlink" x="0px" y="0px" width="60px"
	 height="60px" viewBox="0 0 60 60" enable-background="new 0 0 60 60" xml:space="preserve">
<g id="Layer_3">
	<path fill="#010101" d="M30,0C17.532,0,7,10.533,7,23c0,8.417,3.886,17.458,11.236,26.146c5.515,6.517,10.947,10.497,11.176,10.663
		C29.587,59.937,29.794,60,30,60c0.206,0,0.413-0.063,0.588-0.191c0.229-0.166,5.661-4.146,11.176-10.663
		C49.114,40.458,53,31.417,53,23C53,10.533,42.468,0,30,0z M43.6,19.8l-7.456,5.593l2.821,10.344
		c0.116,0.425-0.06,0.877-0.434,1.111C38.367,36.95,38.184,37,38,37c-0.236,0-0.472-0.084-0.658-0.247L30,30.329l-7.342,6.424
		c-0.332,0.291-0.815,0.329-1.189,0.095c-0.374-0.234-0.551-0.686-0.434-1.111l2.821-10.344L16.4,19.8
		c-0.345-0.258-0.485-0.708-0.349-1.116C16.187,18.275,16.569,18,17,18h9.279l2.772-8.316C29.187,9.275,29.569,9,30,9
		c0.431,0,0.812,0.275,0.948,0.684L33.721,18H43c0.431,0,0.812,0.275,0.948,0.684C44.085,19.092,43.944,19.542,43.6,19.8z"/>
</g>
<g id="nyt_x5F_exporter_x5F_info" display="none">
</g>
</svg>
