<?xml version="1.0" encoding="utf-8"?>
<!-- Generator: Adobe Illustrator 17.0.0, SVG Export Plug-In . SVG Version: 6.00 Build 0)  -->
<!DOCTYPE svg PUBLIC "-//W3C//DTD SVG 1.1//EN" "http://www.w3.org/Graphics/SVG/1.1/DTD/svg11.dtd">
<svg version="1.1" xmlns="http://www.w3.org/2000/svg" xmlns:xlink="http://www.w3.org/1999/xlink" x="0px" y="0px" width="60px"
	 height="60px" viewBox="0 0 60 60" enable-background="new 0 0 60 60" xml:space="preserve">
<g id="Layer_3">
	<g>
		<path fill="#010101" d="M24,36.681V47c0,0.552,0.447,1,1,1h8c0.553,0,1-0.448,1-1V36.681c7-2.999,7-11.209,7-15.681
			c0-0.552-0.447-1-1-1H18c-0.553,0-1,0.448-1,1C17,25.472,17,33.682,24,36.681z"/>
		<path fill="#010101" d="M29,18c4.963,0,9-4.037,9-9s-4.037-9-9-9c-4.963,0-9,4.037-9,9S24.037,18,29,18z"/>
		<path fill="#010101" d="M39.151,38.502c-0.552-0.064-1.044,0.333-1.106,0.881c-0.062,0.549,0.333,1.044,0.882,1.106
			C49.978,41.738,58,45.317,58,49c0,5.304-14.757,9-28,9c-13.243,0-28-3.696-28-9c0-3.684,8.024-7.263,19.08-8.511
			c0.549-0.062,0.943-0.557,0.882-1.106c-0.062-0.548-0.555-0.944-1.106-0.881C8.186,39.932,0,44.053,0,49c0,6.886,15.253,11,30,11
			s30-4.114,30-11C60,44.054,51.816,39.933,39.151,38.502z"/>
		<path fill="#010101" d="M30,52c-11,0-17-2.643-17-4c0-0.785,2.214-2.387,8.156-3.343c0.545-0.088,0.916-0.601,0.828-1.146
			c-0.088-0.545-0.607-0.916-1.146-0.828C17.164,43.273,11,44.751,11,48c0,3.939,9.559,6,19,6c9.441,0,19-2.061,19-6
			c0-3.238-6.124-4.716-9.774-5.308c-0.555-0.09-1.059,0.282-1.148,0.827c-0.088,0.545,0.282,1.059,0.827,1.147
			C44.803,45.623,47,47.219,47,48C47,49.357,41,52,30,52z"/>
	</g>
</g>
<g id="nyt_x5F_exporter_x5F_info" display="none">
</g>
</svg>
