<?xml version="1.0" encoding="utf-8"?>
<!-- Generator: Adobe Illustrator 17.0.0, SVG Export Plug-In . SVG Version: 6.00 Build 0)  -->
<!DOCTYPE svg PUBLIC "-//W3C//DTD SVG 1.1//EN" "http://www.w3.org/Graphics/SVG/1.1/DTD/svg11.dtd">
<svg version="1.1" xmlns="http://www.w3.org/2000/svg" xmlns:xlink="http://www.w3.org/1999/xlink" x="0px" y="0px" width="60px"
	 height="60px" viewBox="0 0 60 60" enable-background="new 0 0 60 60" xml:space="preserve">
<g id="Layer_3">
	<g>
		<path fill="#010101" d="M30,50c0.328,0,0.636-0.161,0.823-0.432C31.483,48.612,47,26.045,47,17c0-9.374-7.626-17-17-17
			S13,7.626,13,17c0,9.045,15.517,31.612,16.177,32.568C29.364,49.839,29.672,50,30,50z M23,17c0-3.86,3.141-7,7-7s7,3.14,7,7
			s-3.141,7-7,7S23,20.86,23,17z"/>
		<path fill="#010101" d="M42.948,50.684c-0.175-0.523-0.736-0.808-1.265-0.632L30,53.946l-11.684-3.895
			c-0.528-0.175-1.09,0.109-1.265,0.632c-0.175,0.524,0.108,1.09,0.632,1.265L26.837,55l-9.154,3.051
			c-0.523,0.175-0.807,0.741-0.632,1.265C17.191,59.735,17.581,60,18,60c0.104,0,0.211-0.017,0.316-0.051L30,56.054l11.684,3.895
			C41.789,59.983,41.896,60,42,60c0.419,0,0.809-0.265,0.948-0.684c0.175-0.524-0.108-1.09-0.632-1.265L33.163,55l9.154-3.051
			C42.84,51.774,43.123,51.208,42.948,50.684z"/>
	</g>
</g>
<g id="nyt_x5F_exporter_x5F_info" display="none">
</g>
</svg>
