<?xml version="1.0" encoding="utf-8"?>
<!-- Generator: Adobe Illustrator 17.0.0, SVG Export Plug-In . SVG Version: 6.00 Build 0)  -->
<!DOCTYPE svg PUBLIC "-//W3C//DTD SVG 1.1//EN" "http://www.w3.org/Graphics/SVG/1.1/DTD/svg11.dtd">
<svg version="1.1" xmlns="http://www.w3.org/2000/svg" xmlns:xlink="http://www.w3.org/1999/xlink" x="0px" y="0px" width="60px"
	 height="60px" viewBox="0 0 60 60" enable-background="new 0 0 60 60" xml:space="preserve">
<g id="Layer_3">
	<path fill="#010101" d="M46.242,58.03L34.123,55l12.119-3.03c0.536-0.134,0.862-0.677,0.728-1.212
		c-0.134-0.536-0.678-0.861-1.212-0.728L31,53.719v-31.77C36.598,21.442,41,16.728,41,11c0-6.065-4.935-11-11-11
		c-6.065,0-11,4.935-11,11c0,5.728,4.402,10.442,10,10.949v31.77L14.242,50.03c-0.537-0.133-1.078,0.192-1.212,0.728
		c-0.135,0.535,0.191,1.078,0.728,1.212L25.877,55l-12.119,3.03c-0.536,0.134-0.862,0.677-0.728,1.212
		C13.144,59.697,13.551,60,13.999,60c0.08,0,0.162-0.01,0.243-0.03L30,56.031l15.758,3.939c0.081,0.02,0.163,0.03,0.243,0.03
		c0.448,0,0.855-0.303,0.969-0.758C47.104,58.707,46.778,58.164,46.242,58.03z M29,6c0-0.552,0.447-1,1-1c3.309,0,6,2.691,6,6
		c0,0.552-0.447,1-1,1c-0.553,0-1-0.448-1-1c0-2.206-1.794-4-4-4C29.447,7,29,6.552,29,6z"/>
</g>
<g id="nyt_x5F_exporter_x5F_info" display="none">
</g>
</svg>
