<?xml version="1.0" encoding="utf-8"?>
<!-- Generator: Adobe Illustrator 17.0.0, SVG Export Plug-In . SVG Version: 6.00 Build 0)  -->
<!DOCTYPE svg PUBLIC "-//W3C//DTD SVG 1.1//EN" "http://www.w3.org/Graphics/SVG/1.1/DTD/svg11.dtd">
<svg version="1.1" xmlns="http://www.w3.org/2000/svg" xmlns:xlink="http://www.w3.org/1999/xlink" x="0px" y="0px" width="60px"
	 height="60px" viewBox="0 0 60 60" enable-background="new 0 0 60 60" xml:space="preserve">
<g id="Layer_3">
	<path fill="#010101" d="M30,0C18.421,0,9,9.421,9,21c0,11.248,19.372,37.484,20.197,38.596C29.386,59.85,29.684,60,30,60
		c0.316,0,0.614-0.15,0.803-0.404C31.628,58.484,51,32.248,51,21C51,9.421,41.579,0,30,0z M30,30c-4.963,0-9-4.037-9-9
		c0-4.963,4.037-9,9-9c4.963,0,9,4.037,9,9C39,25.963,34.963,30,30,30z"/>
</g>
<g id="nyt_x5F_exporter_x5F_info" display="none">
</g>
</svg>
