<?xml version="1.0" encoding="utf-8"?>
<!-- Generator: Adobe Illustrator 17.0.0, SVG Export Plug-In . SVG Version: 6.00 Build 0)  -->
<!DOCTYPE svg PUBLIC "-//W3C//DTD SVG 1.1//EN" "http://www.w3.org/Graphics/SVG/1.1/DTD/svg11.dtd">
<svg version="1.1" xmlns="http://www.w3.org/2000/svg" xmlns:xlink="http://www.w3.org/1999/xlink" x="0px" y="0px" width="60px"
	 height="60px" viewBox="0 0 60 60" enable-background="new 0 0 60 60" xml:space="preserve">
<g id="Layer_3">
	<path fill="#010101" d="M30,0C17.532,0,7,10.533,7,23c0,8.417,3.886,17.458,11.236,26.146c5.515,6.517,10.947,10.497,11.176,10.663
		C29.587,59.937,29.794,60,30,60c0.206,0,0.413-0.063,0.588-0.191c0.229-0.166,5.661-4.146,11.176-10.663
		C49.114,40.458,53,31.417,53,23C53,10.533,42.468,0,30,0z M30,37c-7.72,0-14-6.28-14-14S22.28,9,30,9c7.72,0,14,6.28,14,14
		S37.72,37,30,37z"/>
</g>
<g id="nyt_x5F_exporter_x5F_info" display="none">
</g>
</svg>
