<?xml version="1.0" encoding="utf-8"?>
<!-- Generator: Adobe Illustrator 17.0.0, SVG Export Plug-In . SVG Version: 6.00 Build 0)  -->
<!DOCTYPE svg PUBLIC "-//W3C//DTD SVG 1.1//EN" "http://www.w3.org/Graphics/SVG/1.1/DTD/svg11.dtd">
<svg version="1.1" xmlns="http://www.w3.org/2000/svg" xmlns:xlink="http://www.w3.org/1999/xlink" x="0px" y="0px" width="60px"
	 height="60px" viewBox="0 0 60 60" enable-background="new 0 0 60 60" xml:space="preserve">
<g id="Layer_3">
	<g>
		<path fill="#010101" d="M34.999,48.075L32,48.094V52c0,1.654-1.346,3-3,3c-1.654,0-3-1.346-3-3v-3.869l-3.087,0.019
			C2.232,49.039,0,52.537,0,54c0,5.932,28.775,6,30,6c1.225,0,30-0.068,30-6C60,49.196,40.892,48.251,34.999,48.075z"/>
		<path fill="#010101" d="M26,21.574c0.645,0.183,1.312,0.314,2,0.376V52c0,0.552,0.448,1,1,1c0.552,0,1-0.448,1-1V21.949
			c0.687-0.062,1.354-0.192,2-0.376c4.61-1.31,8-5.549,8-10.574c0-6.065-4.935-11-11-11c-6.065,0-11,4.935-11,11
			C18,16.024,21.39,20.263,26,21.574z M29,5c3.309,0,6,2.691,6,6c0,0.552-0.447,1-1,1c-0.553,0-1-0.448-1-1c0-2.206-1.794-4-4-4
			c-0.553,0-1-0.448-1-1C28,5.448,28.447,5,29,5z"/>
	</g>
</g>
<g id="nyt_x5F_exporter_x5F_info" display="none">
</g>
</svg>
