<?xml version="1.0" encoding="utf-8"?>
<!-- Generator: Adobe Illustrator 17.0.0, SVG Export Plug-In . SVG Version: 6.00 Build 0)  -->
<!DOCTYPE svg PUBLIC "-//W3C//DTD SVG 1.1//EN" "http://www.w3.org/Graphics/SVG/1.1/DTD/svg11.dtd">
<svg version="1.1" xmlns="http://www.w3.org/2000/svg" xmlns:xlink="http://www.w3.org/1999/xlink" x="0px" y="0px" width="60px"
	 height="60px" viewBox="0 0 60 60" enable-background="new 0 0 60 60" xml:space="preserve">
<g id="Layer_3">
	<path fill="#010101" d="M27,14c-6.065,0-11,4.935-11,11c0,5.728,4.402,10.442,10,10.949V59c0,0.552,0.447,1,1,1
		c0.553,0,1-0.448,1-1V35.949C33.598,35.442,38,30.728,38,25C38,18.935,33.065,14,27,14z M32,26c-0.553,0-1-0.448-1-1
		c0-2.206-1.794-4-4-4c-0.553,0-1-0.448-1-1c0-0.552,0.447-1,1-1c3.309,0,6,2.691,6,6C33,25.552,32.553,26,32,26z"/>
</g>
<g id="nyt_x5F_exporter_x5F_info" display="none">
</g>
</svg>
