<?xml version="1.0" encoding="utf-8"?>
<!-- Generator: Adobe Illustrator 17.0.0, SVG Export Plug-In . SVG Version: 6.00 Build 0)  -->
<!DOCTYPE svg PUBLIC "-//W3C//DTD SVG 1.1//EN" "http://www.w3.org/Graphics/SVG/1.1/DTD/svg11.dtd">
<svg version="1.1" xmlns="http://www.w3.org/2000/svg" xmlns:xlink="http://www.w3.org/1999/xlink" x="0px" y="0px" width="60px"
	 height="60px" viewBox="0 0 60 60" enable-background="new 0 0 60 60" xml:space="preserve">
<g id="Layer_3">
	<g>
		<path fill="#010101" d="M30,0C17.869,0,8,9.869,8,22c0,10.101,6.741,18.767,16.468,21.279l4.57,15.996
			C29.161,59.704,29.554,60,30,60c0.446,0,0.839-0.296,0.962-0.726l4.57-15.996C45.259,40.767,52,32.101,52,22
			C52,9.869,42.131,0,30,0z M30,37c-8.272,0-15-6.729-15-15S21.728,7,30,7s15,6.729,15,15S38.271,37,30,37z"/>
		<path fill="#010101" d="M35.707,17.293c-0.391-0.391-1.023-0.391-1.414,0L30,21.586l-4.293-4.293
			c-0.391-0.391-1.023-0.391-1.414,0c-0.391,0.391-0.391,1.023,0,1.414L28.586,23l-4.293,4.293c-0.391,0.391-0.391,1.023,0,1.414
			C24.488,28.902,24.744,29,25,29c0.256,0,0.512-0.098,0.707-0.293L30,24.414l4.293,4.293C34.488,28.902,34.744,29,35,29
			c0.256,0,0.512-0.098,0.707-0.293c0.391-0.391,0.391-1.023,0-1.414L31.414,23l4.293-4.293
			C36.098,18.316,36.098,17.684,35.707,17.293z"/>
	</g>
</g>
<g id="nyt_x5F_exporter_x5F_info" display="none">
</g>
</svg>
