<?xml version="1.0" encoding="utf-8"?>
<!-- Generator: Adobe Illustrator 17.0.0, SVG Export Plug-In . SVG Version: 6.00 Build 0)  -->
<!DOCTYPE svg PUBLIC "-//W3C//DTD SVG 1.1//EN" "http://www.w3.org/Graphics/SVG/1.1/DTD/svg11.dtd">
<svg version="1.1" xmlns="http://www.w3.org/2000/svg" xmlns:xlink="http://www.w3.org/1999/xlink" x="0px" y="0px" width="60px"
	 height="60px" viewBox="0 0 60 60" enable-background="new 0 0 60 60" xml:space="preserve">
<g id="Layer_3">
	<path fill="#010101" d="M30,0c-7.842,0-17,4.452-17,17c0,6.131,4.325,12.961,8.509,19.566C25.361,42.649,29,48.396,29,53v6
		c0,0.552,0.447,1,1,1c0.553,0,1-0.448,1-1v-6c0-4.604,3.639-10.351,7.491-16.434C42.675,29.961,47,23.131,47,17
		C47,4.452,37.842,0,30,0z M35.707,22.293c0.391,0.391,0.391,1.023,0,1.414C35.512,23.902,35.256,24,35,24
		c-0.256,0-0.512-0.098-0.707-0.293L30,19.414l-4.293,4.293C25.512,23.902,25.256,24,25,24c-0.256,0-0.512-0.098-0.707-0.293
		c-0.391-0.391-0.391-1.023,0-1.414L28.586,18l-4.293-4.293c-0.391-0.391-0.391-1.023,0-1.414c0.391-0.391,1.023-0.391,1.414,0
		L30,16.586l4.293-4.293c0.391-0.391,1.023-0.391,1.414,0c0.391,0.391,0.391,1.023,0,1.414L31.414,18L35.707,22.293z"/>
</g>
<g id="nyt_x5F_exporter_x5F_info" display="none">
</g>
</svg>
