<?xml version="1.0" encoding="utf-8"?>
<!-- Generator: Adobe Illustrator 17.0.0, SVG Export Plug-In . SVG Version: 6.00 Build 0)  -->
<!DOCTYPE svg PUBLIC "-//W3C//DTD SVG 1.1//EN" "http://www.w3.org/Graphics/SVG/1.1/DTD/svg11.dtd">
<svg version="1.1" xmlns="http://www.w3.org/2000/svg" xmlns:xlink="http://www.w3.org/1999/xlink" x="0px" y="0px" width="60px"
	 height="60px" viewBox="0 0 60 60" enable-background="new 0 0 60 60" xml:space="preserve">
<g id="Layer_3">
	<path fill="#010101" d="M30,0c-7.842,0-17,4.452-17,17c0,6.131,4.325,12.961,8.509,19.566C25.361,42.649,29,48.396,29,53v6
		c0,0.552,0.447,1,1,1c0.553,0,1-0.448,1-1v-6c0-4.604,3.639-10.351,7.491-16.434C42.675,29.961,47,23.131,47,17
		C47,4.452,37.842,0,30,0z M38.625,13.781l-4.48,3.584l1.817,6.36c0.119,0.418-0.046,0.866-0.408,1.107
		C35.386,24.944,35.192,25,35,25c-0.222,0-0.442-0.073-0.625-0.219L30,21.28l-4.375,3.501c-0.341,0.272-0.816,0.293-1.179,0.052
		c-0.362-0.241-0.527-0.689-0.408-1.107l1.817-6.36l-4.48-3.584c-0.331-0.265-0.459-0.711-0.318-1.112
		C21.197,12.269,21.575,12,22,12h5.279l1.773-5.316C29.188,6.275,29.569,6,30,6c0.431,0,0.812,0.275,0.948,0.684L32.721,12H38
		c0.425,0,0.803,0.269,0.943,0.669C39.084,13.07,38.956,13.516,38.625,13.781z"/>
</g>
<g id="nyt_x5F_exporter_x5F_info" display="none">
</g>
</svg>
