<?xml version="1.0" encoding="utf-8"?>
<!-- Generator: Adobe Illustrator 17.0.0, SVG Export Plug-In . SVG Version: 6.00 Build 0)  -->
<!DOCTYPE svg PUBLIC "-//W3C//DTD SVG 1.1//EN" "http://www.w3.org/Graphics/SVG/1.1/DTD/svg11.dtd">
<svg version="1.1" xmlns="http://www.w3.org/2000/svg" xmlns:xlink="http://www.w3.org/1999/xlink" x="0px" y="0px" width="60px"
	 height="60px" viewBox="0 0 60 60" enable-background="new 0 0 60 60" xml:space="preserve">
<g id="Layer_3">
	<g>
		<path fill="#010101" d="M30,0C18.972,0,10,8.972,10,20c0,9.549,6.684,17.682,15.981,19.574l3.057,10.7
			C29.161,50.704,29.554,51,30,51c0.446,0,0.839-0.296,0.962-0.726l3.057-10.7C43.316,37.682,50,29.549,50,20
			C50,8.972,41.028,0,30,0z M30,33c-7.168,0-13-5.832-13-13S22.832,7,30,7s13,5.832,13,13S37.168,33,30,33z"/>
		<path fill="#010101" d="M42.948,50.684c-0.175-0.523-0.736-0.808-1.265-0.632L30,53.946l-11.684-3.895
			c-0.527-0.175-1.09,0.109-1.265,0.632c-0.175,0.524,0.108,1.09,0.632,1.265L26.837,55l-9.154,3.051
			c-0.523,0.175-0.807,0.741-0.632,1.265C17.191,59.735,17.581,60,18,60c0.104,0,0.211-0.017,0.316-0.051L30,56.054l11.684,3.894
			C41.789,59.983,41.895,60,42,60c0.419,0,0.809-0.265,0.948-0.684c0.175-0.524-0.108-1.09-0.632-1.265L33.163,55l9.154-3.051
			C42.84,51.774,43.123,51.208,42.948,50.684z"/>
	</g>
</g>
<g id="nyt_x5F_exporter_x5F_info" display="none">
</g>
</svg>
