<?xml version="1.0" encoding="utf-8"?>
<!-- Generator: Adobe Illustrator 17.0.0, SVG Export Plug-In . SVG Version: 6.00 Build 0)  -->
<!DOCTYPE svg PUBLIC "-//W3C//DTD SVG 1.1//EN" "http://www.w3.org/Graphics/SVG/1.1/DTD/svg11.dtd">
<svg version="1.1" xmlns="http://www.w3.org/2000/svg" xmlns:xlink="http://www.w3.org/1999/xlink" x="0px" y="0px" width="60px"
	 height="60px" viewBox="0 0 60 60" enable-background="new 0 0 60 60" xml:space="preserve">
<g id="Layer_3">
	<g>
		<path fill="#010101" d="M29,46v4c0,0.552,0.447,1,1,1c0.553,0,1-0.448,1-1v-4c0-3.484,3.476-8.806,6.837-13.952
			C41.52,26.408,45,21.081,45,17C45,6.196,39.532,0,30,0c-9.532,0-15,6.196-15,17c0,4.081,3.479,9.408,7.163,15.048
			C25.524,37.194,29,42.516,29,46z M30,8c3.859,0,7,3.14,7,7c0,3.86-3.141,7-7,7c-3.859,0-7-3.14-7-7C23,11.14,26.141,8,30,8z"/>
		<path fill="#010101" d="M42.948,50.684c-0.174-0.523-0.737-0.808-1.265-0.632L30,53.946l-11.684-3.895
			c-0.528-0.175-1.09,0.109-1.265,0.632c-0.175,0.524,0.108,1.09,0.632,1.265L26.837,55l-9.154,3.051
			c-0.523,0.175-0.807,0.741-0.632,1.265C17.191,59.735,17.581,60,18,60c0.104,0,0.211-0.017,0.316-0.051L30,56.054l11.684,3.895
			C41.789,59.983,41.895,60,42,60c0.419,0,0.809-0.265,0.948-0.684c0.175-0.524-0.108-1.09-0.632-1.265L33.163,55l9.154-3.051
			C42.84,51.774,43.123,51.208,42.948,50.684z"/>
	</g>
</g>
<g id="nyt_x5F_exporter_x5F_info" display="none">
</g>
</svg>
