<?xml version="1.0" encoding="utf-8"?>
<!-- Generator: Adobe Illustrator 17.0.0, SVG Export Plug-In . SVG Version: 6.00 Build 0)  -->
<!DOCTYPE svg PUBLIC "-//W3C//DTD SVG 1.1//EN" "http://www.w3.org/Graphics/SVG/1.1/DTD/svg11.dtd">
<svg version="1.1" xmlns="http://www.w3.org/2000/svg" xmlns:xlink="http://www.w3.org/1999/xlink" x="0px" y="0px" width="60px"
	 height="60px" viewBox="0 0 60 60" enable-background="new 0 0 60 60" xml:space="preserve">
<g id="Layer_3">
	<g>
		<path fill="#010101" d="M18.826,43.358c5.294,4.833,10.513,7.431,10.731,7.539C29.697,50.966,29.849,51,30,51
			s0.303-0.034,0.442-0.103c0.219-0.108,5.438-2.706,10.731-7.539C48.257,36.892,52,29.506,52,22C52,8.841,43.159,0,30,0
			S8,8.841,8,22C8,29.506,11.743,36.892,18.826,43.358z M30,10c6.617,0,12,5.383,12,12c0,6.617-5.383,12-12,12s-12-5.383-12-12
			C18,15.383,23.383,10,30,10z"/>
		<path fill="#010101" d="M42.948,50.684c-0.175-0.523-0.736-0.807-1.265-0.632L30,53.946l-11.684-3.895
			c-0.528-0.174-1.09,0.109-1.265,0.632c-0.175,0.524,0.108,1.09,0.632,1.265L26.837,55l-9.154,3.051
			c-0.523,0.175-0.807,0.741-0.632,1.265C17.191,59.735,17.581,60,18,60c0.104,0,0.211-0.017,0.316-0.051L30,56.054l11.684,3.895
			C41.789,59.983,41.896,60,42,60c0.419,0,0.809-0.265,0.948-0.684c0.175-0.524-0.108-1.09-0.632-1.265L33.163,55l9.154-3.051
			C42.84,51.774,43.123,51.208,42.948,50.684z"/>
	</g>
</g>
<g id="nyt_x5F_exporter_x5F_info" display="none">
</g>
</svg>
