<?xml version="1.0" encoding="utf-8"?>
<!-- Generator: Adobe Illustrator 17.0.0, SVG Export Plug-In . SVG Version: 6.00 Build 0)  -->
<!DOCTYPE svg PUBLIC "-//W3C//DTD SVG 1.1//EN" "http://www.w3.org/Graphics/SVG/1.1/DTD/svg11.dtd">
<svg version="1.1" xmlns="http://www.w3.org/2000/svg" xmlns:xlink="http://www.w3.org/1999/xlink" x="0px" y="0px" width="60px"
	 height="60px" viewBox="0 0 60 60" enable-background="new 0 0 60 60" xml:space="preserve">
<g id="Layer_3">
	<g>
		<path fill="#010101" d="M30,0C17.869,0,8,9.869,8,22c0,10.101,6.741,18.767,16.468,21.279l4.57,15.996
			C29.161,59.704,29.554,60,30,60s0.839-0.296,0.962-0.726l4.57-15.996C45.259,40.767,52,32.101,52,22C52,9.869,42.131,0,30,0z
			 M30,37c-8.271,0-15-6.729-15-15S21.729,7,30,7s15,6.729,15,15S38.271,37,30,37z"/>
		<path fill="#010101" d="M36,22H24c-0.553,0-1,0.448-1,1c0,0.552,0.447,1,1,1h12c0.553,0,1-0.448,1-1C37,22.448,36.553,22,36,22z"
			/>
	</g>
</g>
<g id="nyt_x5F_exporter_x5F_info" display="none">
</g>
</svg>
