<?xml version="1.0" encoding="utf-8"?>
<!-- Generator: Adobe Illustrator 17.0.0, SVG Export Plug-In . SVG Version: 6.00 Build 0)  -->
<!DOCTYPE svg PUBLIC "-//W3C//DTD SVG 1.1//EN" "http://www.w3.org/Graphics/SVG/1.1/DTD/svg11.dtd">
<svg version="1.1" id="Layer_2" xmlns="http://www.w3.org/2000/svg" xmlns:xlink="http://www.w3.org/1999/xlink" x="0px" y="0px"
	 width="60px" height="60px" viewBox="0 0 60 60" enable-background="new 0 0 60 60" xml:space="preserve">
<path fill="#010101" d="M28,5C19.206,5,10.839,8.745,5,15.05V2c0-1.104-0.896-2-2-2S1,0.896,1,2v20c0,1.105,0.895,2,2,2h20
	c1.104,0,2-0.895,2-2c0-1.104-0.896-2-2-2H6.095C11.162,13.166,19.338,9,28,9c14.888,0,27,12.112,27,27
	c0,8.323-3.439,15.192-10.221,20.415c-0.875,0.675-1.038,1.931-0.364,2.806C44.81,59.731,45.402,60,46.001,60
	c0.427,0,0.855-0.136,1.22-0.415C54.927,53.649,59,45.493,59,36C59,18.906,45.094,5,28,5z"/>
</svg>
