<?xml version="1.0" encoding="utf-8"?>
<!-- Generator: Adobe Illustrator 17.0.0, SVG Export Plug-In . SVG Version: 6.00 Build 0)  -->
<!DOCTYPE svg PUBLIC "-//W3C//DTD SVG 1.1//EN" "http://www.w3.org/Graphics/SVG/1.1/DTD/svg11.dtd">
<svg version="1.1" id="Layer_2" xmlns="http://www.w3.org/2000/svg" xmlns:xlink="http://www.w3.org/1999/xlink" x="0px" y="0px"
	 width="60px" height="60px" viewBox="0 0 60 60" enable-background="new 0 0 60 60" xml:space="preserve">
<path fill="#010101" d="M42.536,28.817C46.45,25.898,49,21.247,49,16c0-8.822-7.178-16-16-16H8C6.896,0,6,0.896,6,2
	c0,1.105,0.896,2,2,2h5v52H8c-1.104,0-2,0.896-2,2c0,1.105,0.896,2,2,2h29c9.691,0,17-6.879,17-16
	C54,36.722,49.34,30.885,42.536,28.817z M17,4h16c6.505,0,12,5.495,12,12c0,6.505-5.495,12-12,12h-5H17V4z M37,56H17V32h11h5h4
	c7.532,0,13,5.047,13,12C50,50.953,44.532,56,37,56z"/>
</svg>
