<?xml version="1.0" encoding="utf-8"?>
<!-- Generator: Adobe Illustrator 17.0.0, SVG Export Plug-In . SVG Version: 6.00 Build 0)  -->
<!DOCTYPE svg PUBLIC "-//W3C//DTD SVG 1.1//EN" "http://www.w3.org/Graphics/SVG/1.1/DTD/svg11.dtd">
<svg version="1.1" id="Layer_2" xmlns="http://www.w3.org/2000/svg" xmlns:xlink="http://www.w3.org/1999/xlink" x="0px" y="0px"
	 width="60px" height="60px" viewBox="0 0 60 60" enable-background="new 0 0 60 60" xml:space="preserve">
<g>
	<path fill="#010101" d="M3.414,11.414L4,10.828V18c0,1.104,0.896,2,2,2s2-0.896,2-2V6c0-0.809-0.487-1.538-1.234-1.848
		c-0.75-0.311-1.607-0.139-2.18,0.434l-4,4c-0.781,0.781-0.781,2.047,0,2.828C1.367,12.196,2.633,12.196,3.414,11.414z"/>
	<path fill="#010101" d="M9,34H6.502c0.055-0.053,0.108-0.105,0.162-0.157C8.38,32.176,10,30.602,10,28c0-3.084-1.916-5-5-5
		s-5,1.916-5,5c0,1.105,0.895,2,2,2s2-0.895,2-2c0-0.897,0.102-1,1-1s1,0.103,1,1c0,0.836-0.551,1.445-2.123,2.974
		C2.88,31.942,1.64,33.147,0.4,34.8c-0.455,0.607-0.528,1.417-0.189,2.095C0.55,37.573,1.242,38,2,38h7c1.104,0,2-0.896,2-2
		S10.105,34,9,34z"/>
	<path fill="#010101" d="M7.033,46.831l1.682-2.802c0.371-0.618,0.381-1.388,0.025-2.015C8.386,41.388,7.721,41,7,41H2
		c-1.105,0-2,0.896-2,2s0.895,2,2,2h1.468l-1.183,1.971c-0.371,0.618-0.381,1.388-0.025,2.015C2.614,49.613,3.279,50,4,50
		c0.898,0,1,0.102,1,1c0,0.897-0.102,1-1,1H2c-1.105,0-2,0.896-2,2s0.895,2,2,2h2c3.084,0,5-1.916,5-5
		C9,49.12,8.288,47.674,7.033,46.831z"/>
	<path fill="#010101" d="M17,15h41c1.104,0,2-0.896,2-2s-0.896-2-2-2H17c-1.104,0-2,0.896-2,2S15.896,15,17,15z"/>
	<path fill="#010101" d="M58,29H17c-1.104,0-2,0.896-2,2c0,1.105,0.896,2,2,2h41c1.104,0,2-0.896,2-2C60,29.896,59.105,29,58,29z"/>
	<path fill="#010101" d="M58,47H17c-1.104,0-2,0.896-2,2s0.896,2,2,2h41c1.104,0,2-0.896,2-2S59.105,47,58,47z"/>
</g>
</svg>
