<?xml version="1.0" encoding="utf-8"?>
<!-- Generator: Adobe Illustrator 17.0.0, SVG Export Plug-In . SVG Version: 6.00 Build 0)  -->
<!DOCTYPE svg PUBLIC "-//W3C//DTD SVG 1.1//EN" "http://www.w3.org/Graphics/SVG/1.1/DTD/svg11.dtd">
<svg version="1.1" id="Layer_2" xmlns="http://www.w3.org/2000/svg" xmlns:xlink="http://www.w3.org/1999/xlink" x="0px" y="0px"
	 width="60px" height="60px" viewBox="0 0 60 60" enable-background="new 0 0 60 60" xml:space="preserve">
<g>
	<path fill="#010101" d="M13,5H1C0.447,5,0,5.447,0,6v12c0,0.553,0.447,1,1,1h12c0.553,0,1-0.447,1-1V6C14,5.447,13.553,5,13,5z"/>
	<path fill="#010101" d="M13,23H1c-0.553,0-1,0.447-1,1v12c0,0.553,0.447,1,1,1h12c0.553,0,1-0.447,1-1V24
		C14,23.447,13.553,23,13,23z"/>
	<path fill="#010101" d="M13,41H1c-0.553,0-1,0.447-1,1v12c0,0.553,0.447,1,1,1h12c0.553,0,1-0.447,1-1V42
		C14,41.447,13.553,41,13,41z"/>
	<path fill="#010101" d="M21,13h37c1.104,0,2-0.895,2-2c0-1.104-0.896-2-2-2H21c-1.105,0-2,0.896-2,2C19,12.105,19.895,13,21,13z"/>
	<path fill="#010101" d="M58,27H21c-1.105,0-2,0.896-2,2c0,1.105,0.895,2,2,2h37c1.104,0,2-0.895,2-2C60,27.896,59.104,27,58,27z"/>
	<path fill="#010101" d="M58,45H21c-1.105,0-2,0.896-2,2c0,1.105,0.895,2,2,2h37c1.104,0,2-0.895,2-2C60,45.896,59.104,45,58,45z"/>
</g>
</svg>
