<?xml version="1.0" encoding="utf-8"?>
<!-- Generator: Adobe Illustrator 17.0.0, SVG Export Plug-In . SVG Version: 6.00 Build 0)  -->
<!DOCTYPE svg PUBLIC "-//W3C//DTD SVG 1.1//EN" "http://www.w3.org/Graphics/SVG/1.1/DTD/svg11.dtd">
<svg version="1.1" id="Layer_2" xmlns="http://www.w3.org/2000/svg" xmlns:xlink="http://www.w3.org/1999/xlink" x="0px" y="0px"
	 width="60px" height="60px" viewBox="0 0 60 60" enable-background="new 0 0 60 60" xml:space="preserve">
<g>
	<path fill="#010101" d="M23,14.001h35c1.104,0,2-0.896,2-2c0-1.105-0.896-2-2-2H23c-1.105,0-2,0.895-2,2
		C21,13.105,21.895,14.001,23,14.001z"/>
	<path fill="#010101" d="M58,28.001H23c-1.105,0-2,0.895-2,2c0,1.104,0.895,2,2,2h35c1.104,0,2-0.896,2-2
		C60,28.896,59.104,28.001,58,28.001z"/>
	<path fill="#010101" d="M58,46.001H23c-1.105,0-2,0.895-2,2c0,1.104,0.895,2,2,2h35c1.104,0,2-0.896,2-2
		C60,46.896,59.104,46.001,58,46.001z"/>
	<path fill="#010101" d="M14,10.001h-2.764l1.553-3.106c0.494-0.988,0.094-2.189-0.895-2.684c-0.989-0.495-2.19-0.093-2.684,0.895
		L8,7.528L6.789,5.106c-0.494-0.987-1.693-1.39-2.684-0.895C3.117,4.706,2.717,5.907,3.211,6.895l1.553,3.106H2
		c-1.105,0-2,0.895-2,2c0,1.104,0.895,2,2,2h2.764l-1.553,3.105c-0.494,0.988-0.094,2.189,0.895,2.684
		c0.287,0.143,0.593,0.211,0.893,0.211c0.734,0,1.44-0.404,1.791-1.106L8,16.473l1.211,2.422c0.351,0.701,1.057,1.106,1.791,1.106
		c0.3,0,0.605-0.067,0.892-0.211c0.988-0.494,1.389-1.695,0.895-2.684l-1.553-3.105H14c1.104,0,2-0.896,2-2
		C16,10.896,15.104,10.001,14,10.001z"/>
	<path fill="#010101" d="M14,28.001h-2.764l1.553-3.106c0.494-0.988,0.094-2.189-0.895-2.684c-0.989-0.494-2.19-0.093-2.684,0.895
		L8,25.528l-1.211-2.422c-0.494-0.987-1.693-1.389-2.684-0.895c-0.988,0.494-1.389,1.695-0.895,2.684l1.553,3.106H2
		c-1.105,0-2,0.895-2,2c0,1.104,0.895,2,2,2h2.764l-1.553,3.105c-0.494,0.988-0.094,2.189,0.895,2.684
		c0.287,0.144,0.593,0.211,0.893,0.211c0.734,0,1.44-0.404,1.791-1.106L8,34.473l1.211,2.422c0.351,0.701,1.057,1.106,1.791,1.106
		c0.3,0,0.605-0.067,0.892-0.211c0.988-0.494,1.389-1.695,0.895-2.684l-1.553-3.105H14c1.104,0,2-0.896,2-2
		C16,28.896,15.104,28.001,14,28.001z"/>
	<path fill="#010101" d="M14,46.001h-2.764l1.553-3.106c0.494-0.988,0.094-2.189-0.895-2.684c-0.989-0.495-2.19-0.093-2.684,0.895
		L8,43.528l-1.211-2.422c-0.494-0.987-1.693-1.39-2.684-0.895c-0.988,0.494-1.389,1.695-0.895,2.684l1.553,3.106H2
		c-1.105,0-2,0.895-2,2c0,1.104,0.895,2,2,2h2.764l-1.553,3.105c-0.494,0.988-0.094,2.189,0.895,2.684
		c0.287,0.144,0.593,0.211,0.893,0.211c0.734,0,1.44-0.404,1.791-1.106L8,52.473l1.211,2.422c0.351,0.701,1.057,1.106,1.791,1.106
		c0.3,0,0.605-0.067,0.892-0.211c0.988-0.494,1.389-1.695,0.895-2.684l-1.553-3.105H14c1.104,0,2-0.896,2-2
		C16,46.896,15.104,46.001,14,46.001z"/>
</g>
</svg>
