<?xml version="1.0" encoding="utf-8"?>
<!-- Generator: Adobe Illustrator 17.0.0, SVG Export Plug-In . SVG Version: 6.00 Build 0)  -->
<!DOCTYPE svg PUBLIC "-//W3C//DTD SVG 1.1//EN" "http://www.w3.org/Graphics/SVG/1.1/DTD/svg11.dtd">
<svg version="1.1" id="Layer_2" xmlns="http://www.w3.org/2000/svg" xmlns:xlink="http://www.w3.org/1999/xlink" x="0px" y="0px"
	 width="60px" height="60px" viewBox="0 0 60 60" enable-background="new 0 0 60 60" xml:space="preserve">
<g>
	<path fill="#010101" d="M21,15h37c1.104,0,2-0.895,2-2c0-1.104-0.896-2-2-2H21c-1.105,0-2,0.896-2,2C19,14.105,19.895,15,21,15z"/>
	<path fill="#010101" d="M58,29H21c-1.105,0-2,0.896-2,2c0,1.105,0.895,2,2,2h37c1.104,0,2-0.895,2-2C60,29.896,59.104,29,58,29z"/>
	<path fill="#010101" d="M58,47H21c-1.105,0-2,0.896-2,2c0,1.105,0.895,2,2,2h37c1.104,0,2-0.895,2-2C60,47.896,59.104,47,58,47z"/>
	<path fill="#010101" d="M7,5c-3.859,0-7,3.141-7,7c0,3.859,3.141,7,7,7c3.859,0,7-3.141,7-7C14,8.141,10.859,5,7,5z"/>
	<path fill="#010101" d="M7,23c-3.859,0-7,3.141-7,7c0,3.859,3.141,7,7,7c3.859,0,7-3.141,7-7C14,26.141,10.859,23,7,23z"/>
	<path fill="#010101" d="M7,41c-3.859,0-7,3.141-7,7c0,3.859,3.141,7,7,7c3.859,0,7-3.141,7-7C14,44.141,10.859,41,7,41z"/>
</g>
</svg>
