<?xml version="1.0" encoding="utf-8"?>
<!-- Generator: Adobe Illustrator 17.0.0, SVG Export Plug-In . SVG Version: 6.00 Build 0)  -->
<!DOCTYPE svg PUBLIC "-//W3C//DTD SVG 1.1//EN" "http://www.w3.org/Graphics/SVG/1.1/DTD/svg11.dtd">
<svg version="1.1" id="Layer_2" xmlns="http://www.w3.org/2000/svg" xmlns:xlink="http://www.w3.org/1999/xlink" x="0px" y="0px"
	 width="60px" height="60px" viewBox="0 0 60 60" enable-background="new 0 0 60 60" xml:space="preserve">
<path fill="#010101" d="M58,0H17C7.468,0,0,7.468,0,17c0,9.532,7.468,17,17,17h7v24c0,1.105,0.895,2,2,2c1.104,0,2-0.895,2-2V32V4
	h16v54c0,1.105,0.895,2,2,2c1.104,0,2-0.895,2-2V4h10c1.104,0,2-0.895,2-2C60,0.896,59.104,0,58,0z"/>
</svg>
