<?xml version="1.0" encoding="utf-8"?>
<!-- Generator: Adobe Illustrator 17.0.0, SVG Export Plug-In . SVG Version: 6.00 Build 0)  -->
<!DOCTYPE svg PUBLIC "-//W3C//DTD SVG 1.1//EN" "http://www.w3.org/Graphics/SVG/1.1/DTD/svg11.dtd">
<svg version="1.1" id="Layer_2" xmlns="http://www.w3.org/2000/svg" xmlns:xlink="http://www.w3.org/1999/xlink" x="0px" y="0px"
	 width="60px" height="60px" viewBox="0 0 60 60" enable-background="new 0 0 60 60" xml:space="preserve">
<g>
	<path fill="#010101" d="M6,14h2V8H1C0.447,8,0,8.447,0,9v50c0,0.553,0.447,1,1,1h27v-8H6V14z"/>
	<path fill="#010101" d="M36,32h6V9c0-0.553-0.447-1-1-1h-7v6h2V32z"/>
	<path fill="#010101" d="M59.707,40.293l-6-6C53.519,34.106,53.266,34,53,34H31c-0.553,0-1,0.447-1,1v24v1h1h10h18
		c0.553,0,1-0.447,1-1V41C60,40.734,59.894,40.481,59.707,40.293z M37,40h12c0.553,0,1,0.447,1,1c0,0.553-0.447,1-1,1H37
		c-0.553,0-1-0.447-1-1C36,40.447,36.447,40,37,40z M53,54H37c-0.553,0-1-0.447-1-1c0-0.553,0.447-1,1-1h16c0.553,0,1,0.447,1,1
		C54,53.553,53.553,54,53,54z M53,50H37c-0.553,0-1-0.447-1-1c0-0.553,0.447-1,1-1h16c0.553,0,1,0.447,1,1
		C54,49.553,53.553,50,53,50z M53,46H37c-0.553,0-1-0.447-1-1c0-0.553,0.447-1,1-1h16c0.553,0,1,0.447,1,1
		C54,45.553,53.553,46,53,46z"/>
	<path fill="#010101" d="M11,16h20c0.553,0,1-0.447,1-1V7c0-0.553-0.447-1-1-1h-2.212h-0.847c-0.039-0.329-0.104-0.64-0.181-0.943
		c-0.078-0.313-0.176-0.608-0.289-0.89c-0.063-0.156-0.132-0.308-0.205-0.455c-0.095-0.194-0.199-0.378-0.31-0.556
		c-0.119-0.19-0.246-0.372-0.382-0.545c-0.105-0.134-0.213-0.264-0.327-0.387c-0.139-0.152-0.285-0.295-0.436-0.432
		c-0.151-0.134-0.305-0.263-0.466-0.382c-0.103-0.076-0.205-0.153-0.311-0.224c-0.236-0.154-0.48-0.292-0.73-0.415
		c-0.077-0.038-0.155-0.076-0.234-0.112c-0.283-0.127-0.572-0.237-0.865-0.326c-0.051-0.016-0.102-0.03-0.154-0.044
		c-0.314-0.088-0.632-0.159-0.95-0.206c-0.035-0.005-0.071-0.008-0.106-0.013C21.662,0.027,21.328,0,21,0
		c-0.328,0-0.662,0.027-0.996,0.071c-0.035,0.005-0.071,0.008-0.106,0.013c-0.318,0.047-0.635,0.118-0.95,0.206
		c-0.051,0.015-0.102,0.029-0.153,0.044c-0.293,0.089-0.582,0.199-0.865,0.326c-0.079,0.036-0.156,0.074-0.234,0.112
		c-0.25,0.123-0.494,0.261-0.73,0.415c-0.106,0.07-0.209,0.147-0.311,0.224c-0.161,0.118-0.315,0.247-0.466,0.382
		c-0.152,0.136-0.297,0.28-0.436,0.431c-0.114,0.124-0.223,0.254-0.328,0.388c-0.135,0.173-0.262,0.354-0.381,0.544
		c-0.111,0.178-0.215,0.363-0.31,0.557c-0.073,0.148-0.142,0.299-0.205,0.455c-0.113,0.282-0.211,0.577-0.289,0.89
		C14.163,5.36,14.098,5.671,14.059,6h-0.847H11c-0.553,0-1,0.447-1,1v8C10,15.553,10.447,16,11,16z"/>
</g>
</svg>
