<?xml version="1.0" encoding="utf-8"?>
<!-- Generator: Adobe Illustrator 17.0.0, SVG Export Plug-In . SVG Version: 6.00 Build 0)  -->
<!DOCTYPE svg PUBLIC "-//W3C//DTD SVG 1.1//EN" "http://www.w3.org/Graphics/SVG/1.1/DTD/svg11.dtd">
<svg version="1.1" id="Layer_2" xmlns="http://www.w3.org/2000/svg" xmlns:xlink="http://www.w3.org/1999/xlink" x="0px" y="0px"
	 width="60px" height="60px" viewBox="0 0 60 60" enable-background="new 0 0 60 60" xml:space="preserve">
<g>
	<path fill="#010101" d="M14,54V34h21.706c2.253-1.872,5.145-3,8.296-3c7.027,0,12.756,5.611,12.977,12.587
		C58.753,42.818,60,41.053,60,39V21c0-2.757-2.243-5-5-5H5c-2.757,0-5,2.243-5,5v18c0,2.757,2.243,5,5,5h7v11c0,0.553,0.447,1,1,1
		h26.007c-1.202-0.502-2.314-1.179-3.302-2H14z M8,28c-2.206,0-4-1.794-4-4c0-2.206,1.794-4,4-4c2.206,0,4,1.794,4,4
		C12,26.206,10.206,28,8,28z"/>
	<path fill="#010101" d="M13,12h34c0.553,0,1-0.447,1-1V9c0-0.266-0.106-0.52-0.293-0.707l-8-8C39.519,0.105,39.266,0,39,0H13
		c-0.553,0-1,0.447-1,1v10C12,11.552,12.447,12,13,12z M39,1l8,8h-8V1z"/>
	<path fill="#010101" d="M59.707,58.294l-5.845-5.845l-1.413-1.413C54.04,49.126,55,46.674,55,44.001C55,37.934,50.066,33,44.002,33
		C37.935,33,33,37.934,33,44.001c0,6.065,4.935,11,11.002,11c2.673,0,5.124-0.96,7.032-2.552l1.414,1.413l5.845,5.845
		c0.195,0.195,0.451,0.293,0.707,0.293c0.256,0,0.512-0.098,0.707-0.293C60.098,59.317,60.098,58.684,59.707,58.294z M44.002,53.001
		c-4.964,0-9.002-4.037-9.002-9S39.038,35,44.002,35C48.964,35,53,39.038,53,44.001S48.964,53.001,44.002,53.001z"/>
</g>
</svg>
