<?xml version="1.0" encoding="utf-8"?>
<!-- Generator: Adobe Illustrator 17.0.0, SVG Export Plug-In . SVG Version: 6.00 Build 0)  -->
<!DOCTYPE svg PUBLIC "-//W3C//DTD SVG 1.1//EN" "http://www.w3.org/Graphics/SVG/1.1/DTD/svg11.dtd">
<svg version="1.1" id="Layer_2" xmlns="http://www.w3.org/2000/svg" xmlns:xlink="http://www.w3.org/1999/xlink" x="0px" y="0px"
	 width="60px" height="60px" viewBox="0 0 60 60" enable-background="new 0 0 60 60" xml:space="preserve">
<g>
	<path fill="#010101" d="M26,11.5c1.104,0,2-0.895,2-2c0-1.104-0.896-2-2-2c-15.794,0-26,12.168-26,31c0,7.72,6.28,14,14,14
		c7.72,0,14-6.28,14-14c0-7.72-6.28-14-14-14c-3.224,0-6.189,1.107-8.559,2.945C8.826,15.891,17.636,11.5,26,11.5z"/>
	<path fill="#010101" d="M46,24.5c-3.224,0-6.189,1.107-8.559,2.945C40.826,15.891,49.636,11.5,58,11.5c1.104,0,2-0.895,2-2
		c0-1.104-0.896-2-2-2c-15.794,0-26,12.168-26,31c0,7.72,6.28,14,14,14c7.72,0,14-6.28,14-14C60,30.78,53.72,24.5,46,24.5z"/>
</g>
</svg>
