<?xml version="1.0" encoding="utf-8"?>
<!-- Generator: Adobe Illustrator 17.0.0, SVG Export Plug-In . SVG Version: 6.00 Build 0)  -->
<!DOCTYPE svg PUBLIC "-//W3C//DTD SVG 1.1//EN" "http://www.w3.org/Graphics/SVG/1.1/DTD/svg11.dtd">
<svg version="1.1" id="Layer_2" xmlns="http://www.w3.org/2000/svg" xmlns:xlink="http://www.w3.org/1999/xlink" x="0px" y="0px"
	 width="60px" height="60px" viewBox="0 0 60 60" enable-background="new 0 0 60 60" xml:space="preserve">
<path fill="#010101" d="M58,30H32.89c-1.587-1.034-3.217-2.008-4.804-2.951C21.356,23.052,15,19.275,15,13c0-6.184,5.702-9,11-9
	c11,0,11,5.269,11,7v3c0,1.105,0.895,2,2,2c1.104,0,2-0.895,2-2v-3c0-4.108-1.948-11-15-11c-8.691,0-15,5.468-15,13
	c0,8.237,7.094,12.754,14.225,17H2c-1.105,0-2,0.896-2,2c0,1.105,0.895,2,2,2h29.699C36.412,37.191,40,40.751,40,46
	c0,7.373-7.232,10-14,10c-11.652,0-13-5.137-13-9v-3c0-1.104-0.896-2-2-2c-1.105,0-2,0.896-2,2v3c0,5.931,2.949,13,17,13
	c10.935,0,18-5.495,18-14c0-5.088-2.435-8.884-5.834-12H58c1.104,0,2-0.895,2-2C60,30.896,59.104,30,58,30z"/>
</svg>
