<?xml version="1.0" encoding="utf-8"?>
<!-- Generator: Adobe Illustrator 17.0.0, SVG Export Plug-In . SVG Version: 6.00 Build 0)  -->
<!DOCTYPE svg PUBLIC "-//W3C//DTD SVG 1.1//EN" "http://www.w3.org/Graphics/SVG/1.1/DTD/svg11.dtd">
<svg version="1.1" id="Layer_2" xmlns="http://www.w3.org/2000/svg" xmlns:xlink="http://www.w3.org/1999/xlink" x="0px" y="0px"
	 width="60px" height="60px" viewBox="0 0 60 60" enable-background="new 0 0 60 60" xml:space="preserve">
<path fill="#010101" d="M59,0H1C0.447,0,0,0.447,0,1v58c0,0.553,0.447,1,1,1h58c0.553,0,1-0.447,1-1V1C60,0.447,59.553,0,59,0z
	 M43,46H9c-0.553,0-1-0.447-1-1c0-0.553,0.447-1,1-1h34c0.553,0,1,0.447,1,1C44,45.553,43.553,46,43,46z M51,38H9
	c-0.553,0-1-0.447-1-1c0-0.553,0.447-1,1-1h42c0.553,0,1,0.447,1,1C52,37.553,51.553,38,51,38z M51,30H9c-0.553,0-1-0.447-1-1
	c0-0.553,0.447-1,1-1h42c0.553,0,1,0.447,1,1C52,29.553,51.553,30,51,30z M51,22H9c-0.553,0-1-0.447-1-1c0-0.553,0.447-1,1-1h42
	c0.553,0,1,0.447,1,1C52,21.553,51.553,22,51,22z M51,14H17c-0.553,0-1-0.447-1-1c0-0.553,0.447-1,1-1h34c0.553,0,1,0.447,1,1
	C52,13.553,51.553,14,51,14z"/>
</svg>
