<?xml version="1.0" encoding="utf-8"?>
<!-- Generator: Adobe Illustrator 17.0.0, SVG Export Plug-In . SVG Version: 6.00 Build 0)  -->
<!DOCTYPE svg PUBLIC "-//W3C//DTD SVG 1.1//EN" "http://www.w3.org/Graphics/SVG/1.1/DTD/svg11.dtd">
<svg version="1.1" id="Layer_2" xmlns="http://www.w3.org/2000/svg" xmlns:xlink="http://www.w3.org/1999/xlink" x="0px" y="0px"
	 width="60px" height="60px" viewBox="0 0 60 60" enable-background="new 0 0 60 60" xml:space="preserve">
<path fill="#010101" d="M54,0H6C4.895,0,4,0.896,4,2v8c0,1.105,0.895,2,2,2c1.104,0,2-0.895,2-2V4h20v52h-7c-1.105,0-2,0.896-2,2
	c0,1.105,0.895,2,2,2h18c1.104,0,2-0.895,2-2c0-1.104-0.896-2-2-2h-7V4h20v6c0,1.105,0.895,2,2,2c1.104,0,2-0.895,2-2V2
	C56,0.896,55.104,0,54,0z"/>
</svg>
