<?xml version="1.0" encoding="utf-8"?>
<!-- Generator: Adobe Illustrator 17.0.0, SVG Export Plug-In . SVG Version: 6.00 Build 0)  -->
<!DOCTYPE svg PUBLIC "-//W3C//DTD SVG 1.1//EN" "http://www.w3.org/Graphics/SVG/1.1/DTD/svg11.dtd">
<svg version="1.1" id="Layer_2" xmlns="http://www.w3.org/2000/svg" xmlns:xlink="http://www.w3.org/1999/xlink" x="0px" y="0px"
	 width="60px" height="60px" viewBox="0 0 60 60" enable-background="new 0 0 60 60" xml:space="preserve">
<g>
	<path fill="#010101" d="M52,15v28c0,0.552,0.448,1,1,1c0.552,0,1-0.448,1-1V15c0-0.552-0.448-1-1-1C52.448,14,52,14.448,52,15z"/>
	<path fill="#010101" d="M43,4H15c-0.552,0-1,0.448-1,1c0,0.552,0.448,1,1,1h28c0.552,0,1-0.448,1-1C44,4.448,43.552,4,43,4z"/>
	<path fill="#010101" d="M6,43V16c0-0.552-0.448-1-1-1c-0.552,0-1,0.448-1,1v27c0,0.552,0.448,1,1,1C5.552,44,6,43.552,6,43z"/>
	<path fill="#010101" d="M43,52H15c-0.552,0-1,0.448-1,1c0,0.552,0.448,1,1,1h28c0.552,0,1-0.448,1-1C44,52.448,43.552,52,43,52z"/>
	<path fill="#010101" d="M53,10c2.757,0,5-2.243,5-5c0-2.757-2.243-5-5-5c-2.757,0-5,2.243-5,5C48,7.757,50.243,10,53,10z"/>
	<path fill="#010101" d="M5,0C2.243,0,0,2.243,0,5c0,2.757,2.243,5,5,5c2.757,0,5-2.243,5-5C10,2.243,7.757,0,5,0z"/>
	<path fill="#010101" d="M53,48c-2.757,0-5,2.243-5,5c0,2.757,2.243,5,5,5c2.757,0,5-2.243,5-5C58,50.243,55.757,48,53,48z"/>
	<path fill="#010101" d="M5,48c-2.757,0-5,2.243-5,5c0,2.757,2.243,5,5,5c2.757,0,5-2.243,5-5C10,50.243,7.757,48,5,48z"/>
</g>
</svg>
