<?xml version="1.0" encoding="utf-8"?>
<!-- Generator: Adobe Illustrator 17.0.0, SVG Export Plug-In . SVG Version: 6.00 Build 0)  -->
<!DOCTYPE svg PUBLIC "-//W3C//DTD SVG 1.1//EN" "http://www.w3.org/Graphics/SVG/1.1/DTD/svg11.dtd">
<svg version="1.1" id="Layer_2" xmlns="http://www.w3.org/2000/svg" xmlns:xlink="http://www.w3.org/1999/xlink" x="0px" y="0px"
	 width="60px" height="60px" viewBox="0 0 60 60" enable-background="new 0 0 60 60" xml:space="preserve">
<g>
	<path fill="#010101" d="M52,0.475c-0.309,0-0.6,0.143-0.789,0.386L25.32,34.141l6.096,5.074c0.021,0.017,0.03,0.042,0.049,0.061
		L59.729,9.159C59.903,8.974,60,8.729,60,8.475C60,3.79,59.426,0.475,52,0.475z"/>
	<path fill="#010101" d="M28.733,42.186l-5.908-4.917c-0.966-0.302-1.999-0.459-3.073-0.459c-3.369,0-6.638,1.576-8.532,4.114
		c-0.898,1.205-1.389,2.769-1.909,4.425c-1.199,3.82-2.353,7.42-8.262,7.126c-0.403-0.014-0.796,0.216-0.963,0.594
		C-0.082,53.447,0,53.89,0.293,54.182c3.496,3.496,7.815,5.344,12.492,5.344c7.262,0,14.485-4.622,16.443-10.522
		c0.792-2.387,0.594-4.728-0.509-6.801L28.733,42.186z"/>
</g>
</svg>
