<?xml version="1.0" encoding="utf-8"?>
<!-- Generator: Adobe Illustrator 17.0.0, SVG Export Plug-In . SVG Version: 6.00 Build 0)  -->
<!DOCTYPE svg PUBLIC "-//W3C//DTD SVG 1.1//EN" "http://www.w3.org/Graphics/SVG/1.1/DTD/svg11.dtd">
<svg version="1.1" id="Layer_2" xmlns="http://www.w3.org/2000/svg" xmlns:xlink="http://www.w3.org/1999/xlink" x="0px" y="0px"
	 width="60px" height="60px" viewBox="0 0 60 60" enable-background="new 0 0 60 60" xml:space="preserve">
<g>
	<path fill="#010101" d="M49.158,31.393c0.158-0.368,0.08-0.795-0.197-1.084l-22-23C26.775,7.114,26.519,7.003,26.25,7
		c-0.285-0.005-0.528,0.103-0.718,0.293l-0.293,0.293V5c0-2.757-2.243-5-5-5h-2c-2.757,0-5,2.243-5,5v14.586l-9.707,9.707
		c-1.142,1.142-1.77,2.636-1.77,4.207c0,1.572,0.628,3.066,1.77,4.207l12,12c1.142,1.142,2.636,1.771,4.207,1.771
		c1.571,0,3.065-0.629,4.207-1.771L41.653,32h6.586C48.639,32,49.001,31.761,49.158,31.393z M23.238,9.586l-8,8V5
		c0-1.654,1.346-3,3-3h2c1.654,0,3,1.346,3,3V9.586z"/>
	<path fill="#010101" d="M52.107,38.505c-0.355-0.624-1.382-0.624-1.737,0c-0.627,1.1-6.131,10.853-6.131,14.495
		c0,4.056,2.944,7,7,7s7-2.944,7-7C58.238,49.358,52.735,39.605,52.107,38.505z"/>
</g>
</svg>
