<?xml version="1.0" encoding="utf-8"?>
<!-- Generator: Adobe Illustrator 17.0.0, SVG Export Plug-In . SVG Version: 6.00 Build 0)  -->
<!DOCTYPE svg PUBLIC "-//W3C//DTD SVG 1.1//EN" "http://www.w3.org/Graphics/SVG/1.1/DTD/svg11.dtd">
<svg version="1.1" id="Layer_2" xmlns="http://www.w3.org/2000/svg" xmlns:xlink="http://www.w3.org/1999/xlink" x="0px" y="0px"
	 width="60px" height="60px" viewBox="0 0 60 60" enable-background="new 0 0 60 60" xml:space="preserve">
<g>
	<path fill="#010101" d="M24,13h12c0.552,0,1-0.448,1-1V7c0-3.381-2.813-7-7-7s-7,3.619-7,7v5C23,12.552,23.448,13,24,13z"/>
	<path fill="#010101" d="M41,15H24.012h-0.001H19c-0.552,0-1,0.448-1,1s0.448,1,1,1h4.014l0.03,18.029
		c-0.041,2.828,1.425,5.251,3.957,6.597V47c0,0.552,0.448,1,1,1h4c0.552,0,1-0.448,1-1v-5.404c2.517-1.471,4-3.896,4-6.596V17h4
		c0.552,0,1-0.448,1-1S41.552,15,41,15z M33,35c0,1.457-1.84,2-3,2c-1.16,0-3-0.543-3-2V21c0-0.552,0.448-1,1-1h4
		c0.552,0,1,0.448,1,1V35z"/>
	<path fill="#010101" d="M29.525,50.867c-0.633,0.917-2.699,4.03-2.699,5.611c0,1.941,1.58,3.521,3.521,3.521
		s3.522-1.58,3.522-3.521c0-1.582-2.066-4.695-2.699-5.611C30.797,50.327,29.898,50.327,29.525,50.867z"/>
</g>
</svg>
