<?xml version="1.0" encoding="utf-8"?>
<!-- Generator: Adobe Illustrator 17.0.0, SVG Export Plug-In . SVG Version: 6.00 Build 0)  -->
<!DOCTYPE svg PUBLIC "-//W3C//DTD SVG 1.1//EN" "http://www.w3.org/Graphics/SVG/1.1/DTD/svg11.dtd">
<svg version="1.1" id="Layer_2" xmlns="http://www.w3.org/2000/svg" xmlns:xlink="http://www.w3.org/1999/xlink" x="0px" y="0px"
	 width="60px" height="60px" viewBox="0 0 60 60" enable-background="new 0 0 60 60" xml:space="preserve">
<g>
	<path fill="#010101" d="M24,19.5h12c0.552,0,1-0.447,1-1v-5c0-4.056-2.944-7-7-7c-4.056,0-7,2.944-7,7v5
		C23,19.053,23.448,19.5,24,19.5z"/>
	<path fill="#010101" d="M41,21.5H19c-0.552,0-1,0.448-1,1s0.448,1,1,1h4v18c0,2.451,1.31,4.3,4,5.637V52.5c0,0.552,0.448,1,1,1h4
		c0.552,0,1-0.448,1-1v-5.363c2.69-1.336,4-3.186,4-5.637v-18h4c0.552,0,1-0.448,1-1S41.552,21.5,41,21.5z"/>
</g>
</svg>
