<?xml version="1.0" encoding="utf-8"?>
<!-- Generator: Adobe Illustrator 17.0.0, SVG Export Plug-In . SVG Version: 6.00 Build 0)  -->
<!DOCTYPE svg PUBLIC "-//W3C//DTD SVG 1.1//EN" "http://www.w3.org/Graphics/SVG/1.1/DTD/svg11.dtd">
<svg version="1.1" id="Layer_2" xmlns="http://www.w3.org/2000/svg" xmlns:xlink="http://www.w3.org/1999/xlink" x="0px" y="0px"
	 width="60px" height="60px" viewBox="0 0 60 60" enable-background="new 0 0 60 60" xml:space="preserve">
<g>
	<path fill="#010101" d="M7.661,46.457c-0.256,0.396-0.201,0.917,0.132,1.25l2,2C9.987,49.901,10.243,50,10.5,50
		c0.21,0,0.421-0.066,0.6-0.2L26.406,38.32l-8.185-8.185L7.661,46.457z"/>
	<path fill="#010101" d="M18.226,27.312l10.481,10.48c0.13,0.13,0.201,0.291,0.244,0.457l7.094,0.709L17.54,20.455L18.226,27.312z"
		/>
	<path fill="#010101" d="M56.207,18.293l-18-18c-0.391-0.391-1.023-0.391-1.414,0L18.5,18.586L37.914,38l18.293-18.293
		C56.598,19.316,56.598,18.684,56.207,18.293z"/>
	<path fill="#010101" d="M5.61,51.543C5.115,52.508,3.5,55.751,3.5,57c0,1.654,1.346,3,3,3c1.654,0,3-1.346,3-3
		c0-1.249-1.615-4.492-2.11-5.457C7.047,50.876,5.953,50.876,5.61,51.543z"/>
</g>
</svg>
