<?xml version="1.0" encoding="utf-8"?>
<!-- Generator: Adobe Illustrator 17.0.0, SVG Export Plug-In . SVG Version: 6.00 Build 0)  -->
<!DOCTYPE svg PUBLIC "-//W3C//DTD SVG 1.1//EN" "http://www.w3.org/Graphics/SVG/1.1/DTD/svg11.dtd">
<svg version="1.1" id="Layer_2" xmlns="http://www.w3.org/2000/svg" xmlns:xlink="http://www.w3.org/1999/xlink" x="0px" y="0px"
	 width="60px" height="60px" viewBox="0 0 60 60" enable-background="new 0 0 60 60" xml:space="preserve">
<g>
	<path fill="#010101" d="M32.629,24.629l-32,32c-0.781,0.781-0.781,2.048,0,2.828c0.391,0.39,0.902,0.585,1.414,0.585
		c0.512,0,1.024-0.195,1.414-0.585l32-32c0.781-0.781,0.781-2.047,0-2.828C34.676,23.848,33.409,23.848,32.629,24.629z"/>
	<path fill="#010101" d="M57.956,15.957h-8c-1.104,0-2,0.895-2,2c0,1.104,0.896,2,2,2h8c1.104,0,2-0.896,2-2
		C59.956,16.852,59.061,15.957,57.956,15.957z"/>
	<path fill="#010101" d="M47.956,13.957c0.512,0,1.024-0.195,1.414-0.586l6-6c0.781-0.781,0.781-2.047,0-2.828
		c-0.78-0.781-2.048-0.781-2.828,0l-6,6c-0.781,0.781-0.781,2.047,0,2.828C46.932,13.761,47.445,13.957,47.956,13.957z"/>
	<path fill="#010101" d="M41.956-0.043c-1.104,0-2,0.896-2,2v8c0,1.104,0.896,2,2,2s2-0.896,2-2v-8
		C43.956,0.852,43.061-0.043,41.956-0.043z"/>
	<path fill="#010101" d="M31.37,4.543c-0.78-0.781-2.048-0.781-2.828,0c-0.781,0.781-0.781,2.047,0,2.828l6,6
		c0.39,0.391,0.902,0.586,1.414,0.586c0.512,0,1.024-0.195,1.414-0.586c0.781-0.781,0.781-2.047,0-2.828L31.37,4.543z"/>
	<path fill="#010101" d="M25.956,19.957h8c1.104,0,2-0.896,2-2c0-1.105-0.896-2-2-2h-8c-1.104,0-2,0.895-2,2
		C23.956,19.061,24.852,19.957,25.956,19.957z"/>
	<path fill="#010101" d="M41.956,24.957c-1.104,0-2,0.895-2,2v8c0,1.104,0.896,2,2,2s2-0.896,2-2v-8
		C43.956,25.852,43.061,24.957,41.956,24.957z"/>
	<path fill="#010101" d="M49.37,22.542c-0.78-0.781-2.048-0.781-2.828,0c-0.781,0.781-0.781,2.047,0,2.828l6,6
		c0.39,0.391,0.902,0.586,1.414,0.586c0.512,0,1.024-0.195,1.414-0.586c0.781-0.781,0.781-2.047,0-2.828L49.37,22.542z"/>
</g>
</svg>
