<?xml version="1.0" encoding="utf-8"?>
<!-- Generator: Adobe Illustrator 17.0.0, SVG Export Plug-In . SVG Version: 6.00 Build 0)  -->
<!DOCTYPE svg PUBLIC "-//W3C//DTD SVG 1.1//EN" "http://www.w3.org/Graphics/SVG/1.1/DTD/svg11.dtd">
<svg version="1.1" id="Layer_2" xmlns="http://www.w3.org/2000/svg" xmlns:xlink="http://www.w3.org/1999/xlink" x="0px" y="0px"
	 width="60px" height="60px" viewBox="0 0 60 60" enable-background="new 0 0 60 60" xml:space="preserve">
<path fill="#010101" d="M57.088,22.684l-6.401-6.401L55.4,5.914c0.173-0.38,0.092-0.826-0.203-1.121
	c-0.295-0.295-0.742-0.376-1.121-0.203L43.707,9.303l-6.51-6.51c-0.313-0.312-0.791-0.383-1.179-0.175
	c-0.389,0.208-0.595,0.645-0.509,1.078l1.839,9.196l-11.243,4.684c-0.413,0.172-0.662,0.599-0.608,1.044
	c0.054,0.444,0.397,0.799,0.841,0.867L36.162,21l-0.727,0.727c0,0-0.001,0.001-0.001,0.001L3.076,54.086
	c-0.781,0.781-0.781,2.047,0,2.828C3.467,57.305,3.978,57.5,4.49,57.5c0.512,0,1.024-0.195,1.414-0.586l32.358-32.358
	c0,0,0.001,0,0.001-0.001l0.726-0.727l1.511,9.824c0.067,0.437,0.414,0.778,0.852,0.838c0.046,0.006,0.092,0.009,0.137,0.009
	c0.388,0,0.746-0.226,0.91-0.586l4.704-10.348l9.287,0.929c0.034,0.003,0.067,0.005,0.1,0.005c0.005,0,0.012,0,0.02,0
	c0.552,0,1-0.448,1-1C57.51,23.163,57.343,22.865,57.088,22.684z"/>
</svg>
