<?xml version="1.0" encoding="utf-8"?>
<!-- Generator: Adobe Illustrator 17.0.0, SVG Export Plug-In . SVG Version: 6.00 Build 0)  -->
<!DOCTYPE svg PUBLIC "-//W3C//DTD SVG 1.1//EN" "http://www.w3.org/Graphics/SVG/1.1/DTD/svg11.dtd">
<svg version="1.1" id="Layer_2" xmlns="http://www.w3.org/2000/svg" xmlns:xlink="http://www.w3.org/1999/xlink" x="0px" y="0px"
	 width="60px" height="60px" viewBox="0 0 60 60" enable-background="new 0 0 60 60" xml:space="preserve">
<g>
	<path fill="#010101" d="M31.696,42.793c-1.955,1.954-4.545,3.031-7.294,3.031c-2.748,0-5.338-1.077-7.292-3.031
		c-4.02-4.021-4.02-10.564,0.001-14.587l12.776-12.808L21.489,7L7.696,20.793c-9.055,9.058-9.513,23.901-1,32.414
		c3.999,3.999,9.724,6.293,15.707,6.293c5.983,0,11.708-2.294,15.707-6.293l14.793-14.793L44.489,30L31.696,42.793z"/>
	<path fill="#010101" d="M36.028,9.241c0.387-0.388,0.39-1.016,0.005-1.407l-6.916-7.035c-0.187-0.19-0.442-0.298-0.709-0.299
		c-0.255,0.014-0.523,0.105-0.711,0.293l-4.793,4.793l8.396,8.396L36.028,9.241z"/>
	<path fill="#010101" d="M59.11,30.793l-7-7c-0.391-0.391-1.023-0.391-1.414,0l-4.793,4.793L54.317,37l4.793-4.793
		C59.501,31.816,59.501,31.184,59.11,30.793z"/>
</g>
</svg>
