<?xml version="1.0" encoding="utf-8"?>
<!-- Generator: Adobe Illustrator 17.0.0, SVG Export Plug-In . SVG Version: 6.00 Build 0)  -->
<!DOCTYPE svg PUBLIC "-//W3C//DTD SVG 1.1//EN" "http://www.w3.org/Graphics/SVG/1.1/DTD/svg11.dtd">
<svg version="1.1" id="Layer_2" xmlns="http://www.w3.org/2000/svg" xmlns:xlink="http://www.w3.org/1999/xlink" x="0px" y="0px"
	 width="60px" height="60px" viewBox="0 0 60 60" enable-background="new 0 0 60 60" xml:space="preserve">
<g>
	<path fill="#010101" d="M15.707,50.293l-5-5c-0.391-0.391-1.023-0.391-1.414,0l-9,9c-0.286,0.286-0.372,0.716-0.217,1.09
		C0.231,55.757,0.596,56,1,56h10c0.265,0,0.519-0.105,0.707-0.293l4-4C16.098,51.317,16.098,50.684,15.707,50.293z"/>
	<path fill="#010101" d="M10.797,36.332c0.074,0.89-0.551,1.925-2.087,3.461c-0.39,0.39-0.391,1.022-0.001,1.413L19.75,52.289
		c0.187,0.188,0.442,0.294,0.707,0.294h0.001c0.265,0,0.52-0.105,0.707-0.293c1.448-1.447,2.476-2.093,3.334-2.093
		c0.924,0,1.988,0.704,3.794,2.51C28.488,52.903,28.744,53,29,53c0.251,0,0.502-0.094,0.696-0.282l4.125-4
		c0.192-0.187,0.302-0.442,0.304-0.71c0.002-0.268-0.104-0.525-0.293-0.715l-20-20c-0.386-0.387-1.011-0.391-1.403-0.011l-4.125,4
		C8.111,31.469,8.002,31.725,8,31.992c-0.002,0.268,0.103,0.525,0.293,0.715C10,34.414,10.726,35.465,10.797,36.332z"/>
	<path fill="#010101" d="M35.105,46.395c0.188,0.188,0.442,0.293,0.707,0.293c0.02,0,0.04,0,0.06-0.002
		c0.286-0.017,0.55-0.156,0.726-0.381l23.188-29.557c0.312-0.398,0.278-0.966-0.08-1.324l-15.13-15.13
		c-0.373-0.374-0.972-0.392-1.368-0.044L15.152,24.937c-0.208,0.183-0.33,0.443-0.339,0.719c-0.009,0.276,0.097,0.544,0.292,0.739
		L35.105,46.395z"/>
	<path fill="#010101" d="M59,58H16c-0.552,0-1,0.448-1,1s0.448,1,1,1h43c0.552,0,1-0.448,1-1S59.552,58,59,58z"/>
</g>
</svg>
