<?xml version="1.0" encoding="utf-8"?>
<!-- Generator: Adobe Illustrator 17.0.0, SVG Export Plug-In . SVG Version: 6.00 Build 0)  -->
<!DOCTYPE svg PUBLIC "-//W3C//DTD SVG 1.1//EN" "http://www.w3.org/Graphics/SVG/1.1/DTD/svg11.dtd">
<svg version="1.1" id="Layer_2" xmlns="http://www.w3.org/2000/svg" xmlns:xlink="http://www.w3.org/1999/xlink" x="0px" y="0px"
	 width="60px" height="60px" viewBox="0 0 60 60" enable-background="new 0 0 60 60" xml:space="preserve">
<path fill="#010101" d="M50.72,12.266c-5.913-5.912-14-9.302-22.188-9.302c-7.688,0-14.871,2.948-20.226,8.302
	c-5.618,5.618-8.56,13.339-8.286,21.741c0.265,8.138,3.65,16.038,9.286,21.673c1.142,1.141,2.636,1.77,4.208,1.77
	s3.065-0.628,4.206-1.77c2.358-2.358,2.358-6.054,0-8.414c-1.505-1.505-1.642-2.943-1-3.586c0.357-0.357,0.535-0.357,0.602-0.357
	c0.234,0,0.802,0.177,1.983,1.357l11,11c2.808,2.809,6.611,4.355,10.707,4.355c4.096,0,7.899-1.547,10.707-4.355
	C63.137,43.264,62.688,24.238,50.72,12.266z M27.841,20.644c-1.56,1.561-4.095,1.561-5.656,0c-1.563-1.562-1.563-4.096,0-5.656
	c1.562-1.563,4.093-1.563,5.656,0C29.403,16.548,29.404,19.081,27.841,20.644z M37.884,17.663c1.561-1.563,4.095-1.563,5.656,0
	c1.562,1.561,1.562,4.095,0,5.657c-1.561,1.561-4.096,1.561-5.656,0C36.32,21.758,36.32,19.224,37.884,17.663z M44.247,48.991
	c-1.952,1.952-5.121,1.952-7.071,0c-1.953-1.951-1.953-5.119,0-7.072c1.95-1.952,5.119-1.952,7.071,0
	C46.2,43.871,46.2,47.04,44.247,48.991z M49.786,35.095c-1.172,1.17-3.07,1.17-4.242,0c-1.172-1.173-1.172-3.071,0-4.243
	c1.172-1.171,3.07-1.171,4.242,0C50.958,32.024,50.958,33.922,49.786,35.095z"/>
</svg>
