<?xml version="1.0" encoding="utf-8"?>
<!-- Generator: Adobe Illustrator 17.0.0, SVG Export Plug-In . SVG Version: 6.00 Build 0)  -->
<!DOCTYPE svg PUBLIC "-//W3C//DTD SVG 1.1//EN" "http://www.w3.org/Graphics/SVG/1.1/DTD/svg11.dtd">
<svg version="1.1" id="Layer_2" xmlns="http://www.w3.org/2000/svg" xmlns:xlink="http://www.w3.org/1999/xlink" x="0px" y="0px"
	 width="60px" height="60px" viewBox="0 0 60 60" enable-background="new 0 0 60 60" xml:space="preserve">
<path fill="#010101" d="M35,15.875V12h1c0.441,0,0.831-0.29,0.958-0.713l3-10c0.091-0.303,0.033-0.63-0.156-0.884
	C39.614,0.149,39.316,0,39,0H21c-0.316,0-0.614,0.149-0.802,0.403c-0.189,0.253-0.247,0.581-0.156,0.884l3,10
	C23.169,11.71,23.559,12,24,12h1v3.875C19.184,17.941,15,23.484,15,30c0,7.851,12.609,28.639,13.146,29.521
	C28.328,59.818,28.651,60,29,60V36c0-0.047,0.02-0.087,0.027-0.133C27.291,35.431,26,33.872,26,32c0-2.209,1.791-4,4-4
	c2.208,0,4,1.791,4,4c0,1.872-1.291,3.431-3.027,3.867C30.979,35.912,31,35.953,31,36v24c0.356,0,0.685-0.189,0.864-0.497
	C32.4,58.582,45,36.868,45,30C45,23.484,40.816,17.941,35,15.875z M33,15.302C32.03,15.105,31.027,15,30,15
	c-1.027,0-2.03,0.105-3,0.302V12h6V15.302z"/>
</svg>
