<?xml version="1.0" encoding="utf-8"?>
<!-- Generator: Adobe Illustrator 17.0.0, SVG Export Plug-In . SVG Version: 6.00 Build 0)  -->
<!DOCTYPE svg PUBLIC "-//W3C//DTD SVG 1.1//EN" "http://www.w3.org/Graphics/SVG/1.1/DTD/svg11.dtd">
<svg version="1.1" id="Layer_2" xmlns="http://www.w3.org/2000/svg" xmlns:xlink="http://www.w3.org/1999/xlink" x="0px" y="0px"
	 width="60px" height="60px" viewBox="0 0 60 60" enable-background="new 0 0 60 60" xml:space="preserve">
<path fill="#010101" d="M59.435,1.158c-0.009-0.024-0.02-0.047-0.03-0.071c-0.048-0.105-0.107-0.205-0.19-0.29
	c-0.001-0.001-0.003-0.002-0.005-0.003c0-0.001-0.001-0.002-0.001-0.002c-0.002-0.002-0.006-0.003-0.009-0.006
	c-0.083-0.081-0.181-0.142-0.285-0.189c-0.024-0.011-0.046-0.022-0.07-0.031c-0.104-0.039-0.213-0.061-0.325-0.063
	c-0.021,0-0.041,0.003-0.062,0.004c-0.053,0.002-0.106,0.002-0.158,0.012c-0.115,0.023-11.589,2.41-22.2,7.063
	c-0.364,0.16-0.599,0.519-0.599,0.916c0,2.717-1.653,5.477-3,7.275v-5.275c0-0.343-0.176-0.662-0.466-0.846
	c-0.29-0.183-0.654-0.205-0.963-0.058c-4.169,1.982-6.857,3.777-9.278,6.196c-6.926,6.926-9.188,13.272-9.866,17.377
	c-0.746,4.516,0.07,8.645,2.164,11.325L0.794,57.791c-0.391,0.391-0.391,1.023,0,1.414c0.195,0.195,0.451,0.293,0.707,0.293
	c0.256,0,0.512-0.098,0.707-0.293l13.273-13.273c1.748,1.412,4.017,2.153,6.626,2.153c5.158,0,11.213-2.911,17.306-8.261
	l-6.619-6.619c-0.391-0.391-0.391-1.023,0-1.414c0.391-0.391,1.023-0.391,1.414,0l6.688,6.688c0.438-0.412,0.875-0.837,1.312-1.274
	c0.263-0.263,0.519-0.538,0.775-0.811l-6.189-6.189c-0.391-0.391-0.391-1.023,0-1.414c0.391-0.391,1.023-0.391,1.414,0l6.111,6.111
	C54.709,22.621,59.276,2.616,59.477,1.716c0.014-0.062,0.015-0.123,0.017-0.185c0.001-0.015,0.005-0.03,0.004-0.045
	C59.497,1.373,59.473,1.264,59.435,1.158z"/>
</svg>
