<?xml version="1.0" encoding="utf-8"?>
<!-- Generator: Adobe Illustrator 17.0.0, SVG Export Plug-In . SVG Version: 6.00 Build 0)  -->
<!DOCTYPE svg PUBLIC "-//W3C//DTD SVG 1.1//EN" "http://www.w3.org/Graphics/SVG/1.1/DTD/svg11.dtd">
<svg version="1.1" id="Layer_2" xmlns="http://www.w3.org/2000/svg" xmlns:xlink="http://www.w3.org/1999/xlink" x="0px" y="0px"
	 width="60px" height="60px" viewBox="0 0 60 60" enable-background="new 0 0 60 60" xml:space="preserve">
<g>
	<path fill="#010101" d="M30,19c-1.105,0-2,0.896-2,2v37c0,1.105,0.895,2,2,2c1.104,0,2-0.895,2-2V21C32,19.896,31.104,19,30,19z"/>
	<path fill="#010101" d="M2.707,20.293c-0.287-0.286-0.716-0.372-1.09-0.217C1.244,20.231,1,20.596,1,21v36
		c0,0.404,0.244,0.769,0.617,0.924C1.741,57.975,1.871,58,2,58c0.26,0,0.516-0.102,0.707-0.293l18-18
		c0.391-0.391,0.391-1.023,0-1.414L2.707,20.293z"/>
	<path fill="#010101" d="M58.383,20.076c-0.375-0.155-0.805-0.069-1.09,0.217l-18,18c-0.391,0.391-0.391,1.023,0,1.414l18,18
		C57.484,57.898,57.74,58,58,58c0.129,0,0.259-0.025,0.383-0.076C58.756,57.769,59,57.404,59,57V21
		C59,20.596,58.756,20.231,58.383,20.076z"/>
	<path fill="#010101" d="M43.121,18.848c0.122,0.072,0.253,0.13,0.39,0.175c0.041,0.013,0.08,0.027,0.121,0.038
		c0.16,0.042,0.326,0.07,0.499,0.07c0.151,0,0.297-0.02,0.439-0.052c0.008-0.002,0.017-0.001,0.025-0.003
		c0.046-0.011,0.088-0.032,0.132-0.046c0.073-0.023,0.147-0.044,0.216-0.075c0.052-0.023,0.1-0.054,0.15-0.081
		c0.064-0.036,0.128-0.069,0.188-0.111c0.049-0.034,0.092-0.075,0.137-0.113c0.054-0.046,0.108-0.09,0.156-0.141
		c0.041-0.043,0.076-0.09,0.113-0.137c0.045-0.056,0.09-0.112,0.129-0.172c0.009-0.015,0.022-0.026,0.03-0.041l4.87-8.131
		c0.567-0.947,0.259-2.176-0.688-2.743c-0.949-0.568-2.176-0.26-2.744,0.688l-2.12,3.539C42.831,4.821,36.476,0,29,0
		c-9.533,0-17,7.467-17,17c0,1.105,0.895,2,2,2c1.104,0,2-0.895,2-2c0-7.29,5.71-13,13-13c5.834,0,10.786,3.827,12.491,9.1
		l-4.424-2.792c-0.935-0.59-2.169-0.31-2.759,0.624c-0.589,0.935-0.31,2.169,0.624,2.759l8.13,5.13
		C43.081,18.833,43.102,18.837,43.121,18.848z"/>
</g>
</svg>
