<?xml version="1.0" encoding="utf-8"?>
<!-- Generator: Adobe Illustrator 17.0.0, SVG Export Plug-In . SVG Version: 6.00 Build 0)  -->
<!DOCTYPE svg PUBLIC "-//W3C//DTD SVG 1.1//EN" "http://www.w3.org/Graphics/SVG/1.1/DTD/svg11.dtd">
<svg version="1.1" id="Layer_2" xmlns="http://www.w3.org/2000/svg" xmlns:xlink="http://www.w3.org/1999/xlink" x="0px" y="0px"
	 width="60px" height="60px" viewBox="0 0 60 60" enable-background="new 0 0 60 60" xml:space="preserve">
<path fill="#010101" d="M59.588,58.184L50.404,49l-3.707,3.707C46.502,52.902,46.246,53,45.99,53c-0.256,0-0.512-0.098-0.707-0.293
	c-0.391-0.391-0.391-1.023,0-1.414l3.707-3.707L43.904,42.5l-4.207,4.207C39.502,46.902,39.246,47,38.99,47
	c-0.256,0-0.512-0.098-0.707-0.293c-0.391-0.391-0.391-1.023,0-1.414l4.207-4.207L37.904,36.5l-4.207,4.207
	C33.502,40.902,33.246,41,32.99,41c-0.256,0-0.512-0.098-0.707-0.293c-0.391-0.391-0.391-1.023,0-1.414l4.207-4.207L31.404,30
	l-3.707,3.707C27.502,33.902,27.246,34,26.99,34c-0.256,0-0.512-0.098-0.707-0.293c-0.391-0.391-0.391-1.023,0-1.414l3.707-3.707
	L24.904,23.5l-4.207,4.207C20.502,27.902,20.246,28,19.99,28c-0.256,0-0.512-0.098-0.707-0.293c-0.391-0.391-0.391-1.023,0-1.414
	l4.207-4.207L18.904,17.5l-4.207,4.207C14.502,21.902,14.246,22,13.99,22c-0.256,0-0.512-0.098-0.707-0.293
	c-0.391-0.391-0.391-1.023,0-1.414l4.207-4.207L12.404,11l-3.707,3.707C8.502,14.902,8.246,15,7.99,15
	c-0.256,0-0.512-0.098-0.707-0.293c-0.391-0.391-0.391-1.023,0-1.414l3.707-3.707L1.697,0.293C1.41,0.007,0.98-0.078,0.607,0.076
	C0.234,0.231-0.01,0.596-0.01,1v58c0,0.552,0.448,1,1,1h58c0.007,0,0.013,0,0.02,0c0.552,0,1-0.448,1-1
	C60.01,58.663,59.843,58.365,59.588,58.184z M8.99,51V25l26,26H8.99z"/>
</svg>
