<?xml version="1.0" encoding="utf-8"?>
<!-- Generator: Adobe Illustrator 17.0.0, SVG Export Plug-In . SVG Version: 6.00 Build 0)  -->
<!DOCTYPE svg PUBLIC "-//W3C//DTD SVG 1.1//EN" "http://www.w3.org/Graphics/SVG/1.1/DTD/svg11.dtd">
<svg version="1.1" id="Layer_2" xmlns="http://www.w3.org/2000/svg" xmlns:xlink="http://www.w3.org/1999/xlink" x="0px" y="0px"
	 width="60px" height="60px" viewBox="0 0 60 60" enable-background="new 0 0 60 60" xml:space="preserve">
<path fill="#010101" d="M59.707,14.293l-14-14c-0.391-0.391-1.023-0.391-1.414,0L36,8.586l5.707,5.707
	c0.391,0.391,0.391,1.023,0,1.414C41.512,15.902,41.256,16,41,16c-0.256,0-0.512-0.098-0.707-0.293L34.586,10L31,13.586l6.707,6.707
	c0.391,0.391,0.391,1.023,0,1.414C37.512,21.902,37.256,22,37,22c-0.256,0-0.512-0.098-0.707-0.293L29.586,15L25.5,19.086
	l5.207,5.207c0.391,0.391,0.391,1.023,0,1.414C30.512,25.902,30.256,26,30,26c-0.256,0-0.512-0.098-0.707-0.293L24.086,20.5
	L20.5,24.086l7.207,7.207c0.391,0.391,0.391,1.023,0,1.414C27.512,32.902,27.256,33,27,33c-0.256,0-0.512-0.098-0.707-0.293
	L19.086,25.5L15,29.586l5.707,5.707c0.391,0.391,0.391,1.023,0,1.414C20.512,36.902,20.256,37,20,37
	c-0.256,0-0.512-0.098-0.707-0.293L13.586,31L10,34.586l6.707,6.707c0.391,0.391,0.391,1.023,0,1.414C16.512,42.902,16.256,43,16,43
	c-0.256,0-0.512-0.098-0.707-0.293L8.586,36l-8.293,8.293c-0.391,0.391-0.391,1.023,0,1.414l14,14C14.488,59.902,14.744,60,15,60
	c0.256,0,0.512-0.098,0.707-0.293l44-44C60.098,15.317,60.098,14.684,59.707,14.293z"/>
</svg>
