<?xml version="1.0" encoding="utf-8"?>
<!-- Generator: Adobe Illustrator 17.0.0, SVG Export Plug-In . SVG Version: 6.00 Build 0)  -->
<!DOCTYPE svg PUBLIC "-//W3C//DTD SVG 1.1//EN" "http://www.w3.org/Graphics/SVG/1.1/DTD/svg11.dtd">
<svg version="1.1" id="Layer_2" xmlns="http://www.w3.org/2000/svg" xmlns:xlink="http://www.w3.org/1999/xlink" x="0px" y="0px"
	 width="60px" height="60px" viewBox="0 0 60 60" enable-background="new 0 0 60 60" xml:space="preserve">
<g>
	<path fill="#010101" d="M26,32H2c-1.105,0-2,0.896-2,2v24c0,1.105,0.895,2,2,2h24c1.104,0,2-0.895,2-2V34
		C28,32.896,27.104,32,26,32z"/>
	<path fill="#010101" d="M54,19.379V8c0-0.131-0.014-0.262-0.04-0.392c-0.012-0.059-0.034-0.114-0.051-0.171
		c-0.02-0.068-0.036-0.137-0.063-0.203c-0.027-0.066-0.065-0.126-0.099-0.188c-0.028-0.052-0.051-0.107-0.085-0.156
		c-0.073-0.109-0.156-0.212-0.249-0.305c-0.001-0.001-0.002-0.001-0.003-0.002c-0.092-0.092-0.193-0.174-0.302-0.247
		c-0.051-0.034-0.106-0.058-0.16-0.087c-0.061-0.033-0.119-0.07-0.184-0.097C52.7,6.126,52.632,6.11,52.564,6.091
		c-0.058-0.017-0.113-0.039-0.173-0.051c-0.121-0.024-0.244-0.036-0.367-0.037C52.016,6.002,52.008,6,52,6H40.621
		c-1.104,0-2,0.896-2,2c0,1.105,0.896,2,2,2h6.551L31.482,25.69c-0.781,0.781-0.781,2.047,0,2.828
		c0.39,0.391,0.902,0.586,1.414,0.586s1.024-0.195,1.414-0.586L50,12.828v6.551c0,1.104,0.895,2,2,2
		C53.104,21.379,54,20.484,54,19.379z"/>
	<path fill="#010101" d="M12,8c1.104,0,2-0.895,2-2V4h2c1.104,0,2-0.895,2-2c0-1.104-0.896-2-2-2h-4c-1.105,0-2,0.896-2,2v4
		C10,7.105,10.895,8,12,8z"/>
	<path fill="#010101" d="M58,0h-4c-1.105,0-2,0.896-2,2c0,1.105,0.895,2,2,2h2v2c0,1.105,0.895,2,2,2c1.104,0,2-0.895,2-2V2
		C60,0.896,59.104,0,58,0z"/>
	<path fill="#010101" d="M58,11c-1.105,0-2,0.896-2,2v3c0,1.105,0.895,2,2,2c1.104,0,2-0.895,2-2v-3C60,11.896,59.104,11,58,11z"/>
	<path fill="#010101" d="M58,21c-1.105,0-2,0.896-2,2v3c0,1.105,0.895,2,2,2c1.104,0,2-0.895,2-2v-3C60,21.896,59.104,21,58,21z"/>
	<path fill="#010101" d="M12,18c1.104,0,2-0.895,2-2v-3c0-1.104-0.896-2-2-2c-1.105,0-2,0.896-2,2v3C10,17.105,10.895,18,12,18z"/>
	<path fill="#010101" d="M12,28c1.104,0,2-0.895,2-2v-3c0-1.104-0.896-2-2-2c-1.105,0-2,0.896-2,2v3C10,27.105,10.895,28,12,28z"/>
	<path fill="#010101" d="M58,31c-1.105,0-2,0.896-2,2v3c0,1.105,0.895,2,2,2c1.104,0,2-0.895,2-2v-3C60,31.896,59.104,31,58,31z"/>
	<path fill="#010101" d="M26,0h-3c-1.105,0-2,0.896-2,2c0,1.105,0.895,2,2,2h3c1.104,0,2-0.895,2-2C28,0.896,27.104,0,26,0z"/>
	<path fill="#010101" d="M33,4h3c1.104,0,2-0.895,2-2c0-1.104-0.896-2-2-2h-3c-1.105,0-2,0.896-2,2C31,3.105,31.895,4,33,4z"/>
	<path fill="#010101" d="M43.069,4H47c1.104,0,2-0.895,2-2c0-1.104-0.896-2-2-2h-3.931c-1.104,0-2,0.896-2,2
		C41.069,3.105,41.964,4,43.069,4z"/>
	<path fill="#010101" d="M36,45h-3c-1.105,0-2,0.896-2,2c0,1.105,0.895,2,2,2h3c1.104,0,2-0.895,2-2C38,45.896,37.104,45,36,45z"/>
	<path fill="#010101" d="M47,45h-3.931c-1.104,0-2,0.896-2,2c0,1.105,0.896,2,2,2H47c1.104,0,2-0.895,2-2C49,45.896,48.104,45,47,45
		z"/>
	<path fill="#010101" d="M58,41c-1.105,0-2,0.896-2,2v2h-2c-1.105,0-2,0.896-2,2c0,1.105,0.895,2,2,2h4c1.104,0,2-0.895,2-2v-4
		C60,41.896,59.104,41,58,41z"/>
</g>
</svg>
