<?xml version="1.0" encoding="utf-8"?>
<!-- Generator: Adobe Illustrator 17.0.0, SVG Export Plug-In . SVG Version: 6.00 Build 0)  -->
<!DOCTYPE svg PUBLIC "-//W3C//DTD SVG 1.1//EN" "http://www.w3.org/Graphics/SVG/1.1/DTD/svg11.dtd">
<svg version="1.1" id="Layer_2" xmlns="http://www.w3.org/2000/svg" xmlns:xlink="http://www.w3.org/1999/xlink" x="0px" y="0px"
	 width="60px" height="60px" viewBox="0 0 60 60" enable-background="new 0 0 60 60" xml:space="preserve">
<g>
	<path fill="#010101" d="M58,0H10C8.896,0,8,0.896,8,2v32c0,1.105,0.896,2,2,2h1c1.104,0,2-0.895,2-2c0-0.738-0.405-1.376-1-1.723V4
		h44v44H27.723c-0.347-0.595-0.984-1-1.723-1c-1.105,0-2,0.896-2,2v1c0,1.105,0.895,2,2,2h32c1.104,0,2-0.895,2-2V2
		C60,0.896,59.104,0,58,0z"/>
	<path fill="#010101" d="M30.965,14.483c-1.104,0-2,0.896-2,2v12.551c0,0.001,0,0.002,0,0.002c0,0.13,0.014,0.261,0.039,0.389
		c0.012,0.06,0.034,0.115,0.051,0.172c0.02,0.067,0.036,0.136,0.062,0.201c0.028,0.067,0.066,0.128,0.1,0.19
		c0.028,0.051,0.051,0.104,0.084,0.154c0.073,0.11,0.156,0.212,0.249,0.305c0.001,0.001,0.002,0.001,0.002,0.002
		c0.092,0.092,0.194,0.174,0.302,0.247c0.049,0.033,0.102,0.055,0.153,0.083c0.064,0.035,0.124,0.073,0.191,0.101
		c0.065,0.026,0.133,0.042,0.2,0.062c0.058,0.017,0.113,0.04,0.173,0.052c0.129,0.025,0.26,0.039,0.392,0.039h12.552
		c1.104,0,2-0.895,2-2c0-1.105-0.896-2-2-2h-7.723l16.316-16.315c0.781-0.781,0.781-2.047,0-2.829c-0.781-0.781-2.048-0.781-2.828,0
		L32.965,24.206v-7.723C32.965,15.378,32.07,14.483,30.965,14.483z"/>
	<path fill="#010101" d="M2,45c1.105,0,2-0.895,2-2v-1c0-1.104-0.895-2-2-2s-2,0.896-2,2v1C0,44.105,0.896,45,2,45z"/>
	<path fill="#010101" d="M18,32h-1c-1.105,0-2,0.896-2,2c0,1.105,0.895,2,2,2h1c1.104,0,2-0.895,2-2C20,32.896,19.104,32,18,32z"/>
	<path fill="#010101" d="M2,52c1.105,0,2-0.895,2-2v-1c0-1.104-0.895-2-2-2s-2,0.896-2,2v1C0,51.105,0.896,52,2,52z"/>
	<path fill="#010101" d="M28,34c0-1.104-0.896-2-2-2h-2c-1.105,0-2,0.896-2,2c0,1.105,0.895,2,2,2c0,1.105,0.895,2,2,2
		c1.104,0,2-0.895,2-2V34z"/>
	<path fill="#010101" d="M18,56h-1c-1.105,0-2,0.896-2,2c0,1.105,0.895,2,2,2h1c1.104,0,2-0.895,2-2C20,56.896,19.104,56,18,56z"/>
	<path fill="#010101" d="M11,56h-1c-1.104,0-2,0.896-2,2c0,1.105,0.896,2,2,2h1c1.104,0,2-0.895,2-2C13,56.896,12.104,56,11,56z"/>
	<path fill="#010101" d="M4,32H2c-1.105,0-2,0.896-2,2v2c0,1.105,0.896,2,2,2s2-0.895,2-2c1.104,0,2-0.895,2-2
		C6,32.896,5.104,32,4,32z"/>
	<path fill="#010101" d="M26,54c-1.105,0-2,0.896-2,2c-1.105,0-2,0.896-2,2c0,1.105,0.895,2,2,2h2c1.104,0,2-0.895,2-2v-2
		C28,54.896,27.104,54,26,54z"/>
	<path fill="#010101" d="M4,56c0-1.104-0.895-2-2-2s-2,0.896-2,2v2c0,1.105,0.896,2,2,2h2c1.104,0,2-0.895,2-2
		C6,56.896,5.104,56,4,56z"/>
	<path fill="#010101" d="M26,40c-1.105,0-2,0.896-2,2v1c0,1.105,0.895,2,2,2c1.104,0,2-0.895,2-2v-1C28,40.896,27.104,40,26,40z"/>
</g>
</svg>
