<?xml version="1.0" encoding="utf-8"?>
<!-- Generator: Adobe Illustrator 17.0.0, SVG Export Plug-In . SVG Version: 6.00 Build 0)  -->
<!DOCTYPE svg PUBLIC "-//W3C//DTD SVG 1.1//EN" "http://www.w3.org/Graphics/SVG/1.1/DTD/svg11.dtd">
<svg version="1.1" id="Layer_2" xmlns="http://www.w3.org/2000/svg" xmlns:xlink="http://www.w3.org/1999/xlink" x="0px" y="0px"
	 width="60px" height="60px" viewBox="0 0 60 60" enable-background="new 0 0 60 60" xml:space="preserve">
<g>
	<path fill="#010101" d="M13.539,11.77h26.902l-2.355,2.354c-0.781,0.781-0.781,2.048,0,2.829c0.39,0.391,0.902,0.586,1.414,0.586
		c0.512,0,1.024-0.195,1.414-0.586l5.77-5.769c0.092-0.092,0.175-0.193,0.248-0.302c0.02-0.029,0.032-0.062,0.05-0.092
		c0.049-0.082,0.097-0.163,0.134-0.252c0.017-0.04,0.025-0.084,0.039-0.125c0.028-0.082,0.058-0.163,0.075-0.249
		c0.026-0.129,0.04-0.262,0.04-0.395c0-0.134-0.014-0.267-0.04-0.396c-0.017-0.086-0.047-0.167-0.075-0.249
		c-0.014-0.041-0.022-0.084-0.039-0.124c-0.037-0.088-0.086-0.17-0.134-0.252c-0.018-0.03-0.03-0.063-0.05-0.092
		c-0.073-0.108-0.155-0.209-0.248-0.302l-5.77-5.769c-0.781-0.781-2.048-0.781-2.828,0c-0.781,0.781-0.781,2.047,0,2.828
		l2.355,2.355H13.539c-1.104,0-2,0.895-2,2C11.539,10.874,12.434,11.77,13.539,11.77z"/>
	<path fill="#010101" d="M2,28.115c1.104,0,2-0.896,2-2V24h0.885c1.104,0,2-0.895,2-2c0-1.104-0.896-2-2-2H2c-1.105,0-2,0.896-2,2
		v4.115C0,27.22,0.895,28.115,2,28.115z"/>
	<path fill="#010101" d="M59.561,21.11C59.223,20.43,58.529,20,57.77,20h-25h-2.885h-3.846c-0.198,0-0.39,0.039-0.575,0.095
		C25.279,20.039,25.087,20,24.885,20h-4c-1.104,0-2,0.896-2,2c0,1.105,0.896,2,2,2h1.15L2.971,49.377
		C2.682,49.215,2.354,49.115,2,49.115c-1.105,0-2,0.896-2,2V54c0,0.105,0.015,0.206,0.031,0.307
		c0.004,0.024,0.003,0.048,0.007,0.073c0.032,0.167,0.088,0.323,0.158,0.472c0.007,0.014,0.007,0.029,0.014,0.042
		c0.011,0.023,0.03,0.039,0.042,0.062c0.066,0.12,0.143,0.232,0.231,0.336c0.024,0.027,0.044,0.057,0.069,0.083
		c0.111,0.117,0.235,0.22,0.372,0.307c0.029,0.019,0.06,0.032,0.09,0.049c0.115,0.065,0.236,0.119,0.364,0.161
		c0.042,0.014,0.082,0.027,0.124,0.039C1.663,55.971,1.827,56,2,56h2.425h25.46h2.885h0.752c0.626,0,1.216-0.293,1.594-0.792
		l24.248-32C59.822,22.603,59.898,21.79,59.561,21.11z M34.229,49.756c-0.365-0.392-0.881-0.641-1.459-0.641c-1.105,0-2,0.896-2,2
		V52h-0.885H6.004l21.034-28h2.847h0.885v2.115c0,1.104,0.896,2,2,2c1.104,0,2-0.896,2-2V24h18.975L34.229,49.756z"/>
	<path fill="#010101" d="M32.77,30c-1.105,0-2,0.896-2,2v3c0,1.105,0.896,2,2,2c1.104,0,2-0.895,2-2v-3
		C34.77,30.896,33.874,30,32.77,30z"/>
	<path fill="#010101" d="M32.77,40c-1.105,0-2,0.896-2,2v3c0,1.105,0.896,2,2,2c1.104,0,2-0.895,2-2v-3
		C34.77,40.896,33.874,40,32.77,40z"/>
	<path fill="#010101" d="M2,37c1.104,0,2-0.895,2-2v-3c0-1.104-0.896-2-2-2c-1.105,0-2,0.896-2,2v3C0,36.105,0.895,37,2,37z"/>
	<path fill="#010101" d="M2,47c1.104,0,2-0.895,2-2v-3c0-1.104-0.896-2-2-2c-1.105,0-2,0.896-2,2v3C0,46.105,0.895,47,2,47z"/>
	<path fill="#010101" d="M10.885,24h3c1.104,0,2-0.895,2-2c0-1.104-0.896-2-2-2h-3c-1.104,0-2,0.896-2,2
		C8.885,23.105,9.78,24,10.885,24z"/>
</g>
</svg>
