<?xml version="1.0" encoding="utf-8"?>
<!-- Generator: Adobe Illustrator 17.0.0, SVG Export Plug-In . SVG Version: 6.00 Build 0)  -->
<!DOCTYPE svg PUBLIC "-//W3C//DTD SVG 1.1//EN" "http://www.w3.org/Graphics/SVG/1.1/DTD/svg11.dtd">
<svg version="1.1" id="Layer_2" xmlns="http://www.w3.org/2000/svg" xmlns:xlink="http://www.w3.org/1999/xlink" x="0px" y="0px"
	 width="60px" height="60px" viewBox="0 0 60 60" enable-background="new 0 0 60 60" xml:space="preserve">
<path fill="#010101" d="M54,39.75H41.306c-8.433-5.807-4.693-14.113-1.684-20.8C40.898,16.116,42,13.669,42,11.75
	c0-7.55-6.037-11.5-12-11.5c-5.963,0-12,3.95-12,11.5c0,1.919,1.104,4.365,2.383,7.197c3.018,6.681,6.765,14.98-1.69,20.803H6
	c-3.252,0-6,2.888-6,6.307v8.693c0,0.552,0.448,1,1,1h1v3c0,0.552,0.448,1,1,1h54c0.552,0,1-0.448,1-1v-3h1c0.552,0,1-0.448,1-1
	v-8.693C60,42.638,57.252,39.75,54,39.75z M56,57.75H4v-2h52V57.75z"/>
</svg>
