<?xml version="1.0" encoding="utf-8"?>
<!-- Generator: Adobe Illustrator 17.0.0, SVG Export Plug-In . SVG Version: 6.00 Build 0)  -->
<!DOCTYPE svg PUBLIC "-//W3C//DTD SVG 1.1//EN" "http://www.w3.org/Graphics/SVG/1.1/DTD/svg11.dtd">
<svg version="1.1" id="Layer_2" xmlns="http://www.w3.org/2000/svg" xmlns:xlink="http://www.w3.org/1999/xlink" x="0px" y="0px"
	 width="60px" height="60px" viewBox="0 0 60 60" enable-background="new 0 0 60 60" xml:space="preserve">
<g>
	<path fill="#010101" d="M39,0H9C8.964,0,8.933,0.015,8.898,0.019C8.787,0.014,8.677,0,8.565,0C3.922,0,0,4.122,0,9v32
		c0,0.552,0.448,1,1,1h7v17c0,0.552,0.448,1,1,1h30c0.552,0,1-0.448,1-1V17.93c4.3-0.55,8-4.556,8-8.93C48,4.29,43.71,0,39,0z M8,11
		v6v23H2V9c0-3.729,3.068-7,6.565-7c0.112,0,0.222,0.013,0.333,0.019c2.993,0.901,4.575,2.358,5.382,3.831
		C14.736,6.803,15,7.874,15,9c0,0.334-0.027,0.668-0.069,1H9C8.448,10,8,10.448,8,11z M10.856,15.678
		c-0.114,0.041-0.231,0.076-0.349,0.109c-0.081,0.024-0.163,0.047-0.246,0.067c-0.085,0.02-0.174,0.032-0.261,0.048V12h4.393
		C13.762,13.44,12.566,15.016,10.856,15.678z M20.707,31.707l-5,5C15.512,36.902,15.256,37,15,37c-0.256,0-0.512-0.098-0.707-0.293
		l-1-1c-0.391-0.391-0.391-1.023,0-1.414c0.391-0.391,1.023-0.391,1.414,0L15,34.586l4.293-4.293c0.391-0.391,1.023-0.391,1.414,0
		C21.098,30.684,21.098,31.316,20.707,31.707z M20.707,21.707l-5,5C15.512,26.902,15.256,27,15,27c-0.256,0-0.512-0.098-0.707-0.293
		l-1-1c-0.391-0.391-0.391-1.023,0-1.414c0.391-0.391,1.023-0.391,1.414,0L15,24.586l4.293-4.293c0.391-0.391,1.023-0.391,1.414,0
		C21.098,20.684,21.098,21.316,20.707,21.707z M34,48H24c-0.552,0-1-0.448-1-1c0-0.552,0.448-1,1-1h10c0.552,0,1,0.448,1,1
		C35,47.552,34.552,48,34,48z M34,38H24c-0.552,0-1-0.448-1-1c0-0.552,0.448-1,1-1h10c0.552,0,1,0.448,1,1
		C35,37.552,34.552,38,34,38z M34,28H24c-0.552,0-1-0.448-1-1c0-0.552,0.448-1,1-1h10c0.552,0,1,0.448,1,1
		C35,27.552,34.552,28,34,28z"/>
	<path fill="#010101" d="M55,14c-2.033,0-4.09,1.564-4.767,3.049C48.067,17.307,46,18.702,46,22v18.087c0,0.552,0.448,1,1,1
		c0.552,0,1-0.448,1-1V22c0-1.887,0.945-2.636,2-2.888V36h10V18C60,16.327,57.48,14,55,14z"/>
	<path fill="#010101" d="M50,55c0,2.664,2.336,5,5,5c2.405,0,5-2.294,5-6H50V55z"/>
	<rect x="50" y="38" fill="#010101" width="10" height="14"/>
</g>
</svg>
