<?xml version="1.0" encoding="utf-8"?>
<!-- Generator: Adobe Illustrator 17.0.0, SVG Export Plug-In . SVG Version: 6.00 Build 0)  -->
<!DOCTYPE svg PUBLIC "-//W3C//DTD SVG 1.1//EN" "http://www.w3.org/Graphics/SVG/1.1/DTD/svg11.dtd">
<svg version="1.1" id="Layer_2" xmlns="http://www.w3.org/2000/svg" xmlns:xlink="http://www.w3.org/1999/xlink" x="0px" y="0px"
	 width="60px" height="60px" viewBox="0 0 60 60" enable-background="new 0 0 60 60" xml:space="preserve">
<g>
	<rect x="11.556" y="48" fill="#010101" width="14" height="2"/>
	<path fill="#010101" d="M11.556,54c0,3.379,3.903,6,7.261,6c3.181,0,6.739-2.566,6.739-6v-2h-14V54z"/>
	<rect x="19.556" y="22" fill="#010101" width="6" height="24"/>
	<rect x="11.556" y="22" fill="#010101" width="6" height="24"/>
	<path fill="#010101" d="M19.45,8.553c-0.339-0.677-1.45-0.677-1.789,0L11.937,20h13.236L19.45,8.553z"/>
	<path fill="#010101" d="M46.556,0h-16c-0.552,0-1,0.448-1,1v7h7c0.552,0,1,0.448,1,1c0,0.552-0.448,1-1,1h-7v8h7
		c0.552,0,1,0.448,1,1c0,0.552-0.448,1-1,1h-7v8h7c0.552,0,1,0.448,1,1c0,0.552-0.448,1-1,1h-7v8h7c0.552,0,1,0.448,1,1
		c0,0.552-0.448,1-1,1h-7v8h7c0.552,0,1,0.448,1,1c0,0.552-0.448,1-1,1h-7v9c0,0.552,0.448,1,1,1h16c0.552,0,1-0.448,1-1V1
		C47.556,0.448,47.108,0,46.556,0z"/>
</g>
</svg>
