<?xml version="1.0" encoding="utf-8"?>
<!-- Generator: Adobe Illustrator 17.0.0, SVG Export Plug-In . SVG Version: 6.00 Build 0)  -->
<!DOCTYPE svg PUBLIC "-//W3C//DTD SVG 1.1//EN" "http://www.w3.org/Graphics/SVG/1.1/DTD/svg11.dtd">
<svg version="1.1" id="Layer_2" xmlns="http://www.w3.org/2000/svg" xmlns:xlink="http://www.w3.org/1999/xlink" x="0px" y="0px"
	 width="60px" height="60px" viewBox="0 0 60 60" enable-background="new 0 0 60 60" xml:space="preserve">
<g>
	<path fill="#010101" d="M44,30h-2v-1c0-0.552-0.448-1-1-1H9c-0.552,0-1,0.448-1,1v25c0,3.364,2.636,6,6,6h22c3.42,0,6-2.579,6-6v-8
		h2c4.636,0,8-3.364,8-8S48.636,30,44,30z M44,44h-2V32h2c3.533,0,6,2.467,6,6S47.533,44,44,44z"/>
	<path fill="#010101" d="M6.496,10.132c-0.328-0.188-0.735-0.174-1.051,0.036c-0.315,0.21-0.484,0.58-0.438,0.956l0.957,7.652
		l6.772-5.079L6.496,10.132z"/>
	<path fill="#010101" d="M11,26h8c0.007,0,0.013,0,0.02,0c0.535,0,0.963-0.422,0.99-0.95C20.037,25.578,20.465,26,21,26h12
		c0.164,0,0.311-0.048,0.448-0.118C33.588,25.955,33.743,26,33.906,26h5.185c0.388,0,0.742-0.225,0.906-0.577l4.324-9.258
		c2.421-0.346,4.245-2.521,4.62-5.664c0.48-4.023-1.535-8.967-7.094-10.312c-0.4-0.097-0.816,0.06-1.053,0.395
		c-0.236,0.335-0.244,0.781-0.019,1.125c1.504,2.293,0.386,3.702-0.907,5.333c-0.531,0.67-1.033,1.304-1.329,2.005
		c-0.564,1.338-0.595,2.74-0.088,3.949c0.241,0.574,0.604,1.091,1.06,1.541L34,23.021V22h-5c-0.552,0-1-0.448-1-1s0.448-1,1-1h5v-4
		h-7c-0.552,0-1-0.448-1-1s0.448-1,1-1h7v-2h-5c-0.552,0-1-0.448-1-1c0-0.552,0.448-1,1-1h5V8h-7c-0.552,0-1-0.448-1-1s0.448-1,1-1
		h7V1c0-0.552-0.448-1-1-1H21c-0.552,0-1,0.448-1,1v23.893c-0.023-0.211-0.099-0.406-0.232-0.557l-5.55-9.249l-7.353,5.515
		l3.303,4.954C10.353,25.833,10.665,26,11,26z M40.384,9.825c0.19-0.45,0.609-0.979,1.053-1.54c1.006-1.269,2.404-3.032,1.987-5.354
		c2.822,1.604,3.845,4.715,3.532,7.333c-0.219,1.832-1.216,3.971-3.306,3.971h0c-0.487,0-1.015-0.119-1.569-0.352
		c-0.865-0.364-1.482-0.939-1.784-1.66C39.996,11.505,40.026,10.675,40.384,9.825z"/>
</g>
</svg>
