<?xml version="1.0" encoding="utf-8"?>
<!-- Generator: Adobe Illustrator 17.0.0, SVG Export Plug-In . SVG Version: 6.00 Build 0)  -->
<!DOCTYPE svg PUBLIC "-//W3C//DTD SVG 1.1//EN" "http://www.w3.org/Graphics/SVG/1.1/DTD/svg11.dtd">
<svg version="1.1" id="Layer_2" xmlns="http://www.w3.org/2000/svg" xmlns:xlink="http://www.w3.org/1999/xlink" x="0px" y="0px"
	 width="60px" height="60px" viewBox="0 0 60 60" enable-background="new 0 0 60 60" xml:space="preserve">
<path fill="#010101" d="M59,14h-8c-0.552,0-1,0.448-1,1v3h-6c-6.376,0-11.953,1.544-16.27,4.453
	c-0.14-0.428-0.319-0.837-0.563-1.205l10.362-10.362C38.51,11.584,39.706,12,41,12c3.309,0,6-2.691,6-6c0-3.309-2.691-6-6-6
	s-6,2.691-6,6c0,1.294,0.416,2.49,1.115,3.471L25.753,19.833C24.963,19.309,24.018,19,23,19c-2.757,0-5,2.243-5,5
	c0,1.018,0.309,1.962,0.833,2.753L8.86,36.727C8.009,36.263,7.035,36,6,36c-3.309,0-6,2.691-6,6c0,3.309,2.691,6,6,6s6-2.691,6-6
	c0-1.549-0.595-2.958-1.562-4.024l9.809-9.809c0.445,0.295,0.946,0.506,1.475,0.647C19.288,32.918,18,38.122,18,44v6h-3
	c-0.552,0-1,0.448-1,1v8c0,0.552,0.448,1,1,1h8c0.552,0,1-0.448,1-1v-8c0-0.552-0.448-1-1-1h-3v-6c0-5.99,1.404-11.198,4.046-15.114
	c2.007-0.43,3.556-2.07,3.876-4.115C32.011,21.655,37.553,20,44,20h6v3c0,0.552,0.448,1,1,1h8c0.552,0,1-0.448,1-1v-8
	C60,14.448,59.552,14,59,14z"/>
</svg>
