<?xml version="1.0" encoding="utf-8"?>
<!-- Generator: Adobe Illustrator 17.0.0, SVG Export Plug-In . SVG Version: 6.00 Build 0)  -->
<!DOCTYPE svg PUBLIC "-//W3C//DTD SVG 1.1//EN" "http://www.w3.org/Graphics/SVG/1.1/DTD/svg11.dtd">
<svg version="1.1" id="Layer_2" xmlns="http://www.w3.org/2000/svg" xmlns:xlink="http://www.w3.org/1999/xlink" x="0px" y="0px"
	 width="48px" height="48px" viewBox="0 0 48 48" enable-background="new 0 0 48 48" xml:space="preserve">
<g>
	<path fill="#010101" d="M42,12v24c0,0.552,0.448,1,1,1c0.552,0,1-0.448,1-1V12c0-0.552-0.448-1-1-1C42.448,11,42,11.448,42,12z"/>
	<path fill="#010101" d="M35,4H13c-0.552,0-1,0.448-1,1c0,0.552,0.448,1,1,1h22c0.552,0,1-0.448,1-1C36,4.448,35.552,4,35,4z"/>
	<path fill="#010101" d="M6,36V12c0-0.552-0.448-1-1-1c-0.552,0-1,0.448-1,1v24c0,0.552,0.448,1,1,1C5.552,37,6,36.552,6,36z"/>
	<path fill="#010101" d="M35,42H13c-0.552,0-1,0.448-1,1c0,0.552,0.448,1,1,1h22c0.552,0,1-0.448,1-1C36,42.448,35.552,42,35,42z"/>
	<path fill="#010101" d="M43,10c2.757,0,5-2.243,5-5c0-2.757-2.243-5-5-5c-2.757,0-5,2.243-5,5C38,7.757,40.243,10,43,10z"/>
	<path fill="#010101" d="M5,0C2.243,0,0,2.243,0,5c0,2.757,2.243,5,5,5c2.757,0,5-2.243,5-5C10,2.243,7.757,0,5,0z"/>
	<path fill="#010101" d="M43,38c-2.757,0-5,2.243-5,5c0,2.757,2.243,5,5,5c2.757,0,5-2.243,5-5C48,40.243,45.757,38,43,38z"/>
	<path fill="#010101" d="M5,38c-2.757,0-5,2.243-5,5c0,2.757,2.243,5,5,5c2.757,0,5-2.243,5-5C10,40.243,7.757,38,5,38z"/>
</g>
</svg>
