<?xml version="1.0" encoding="utf-8"?>
<!-- Generator: Adobe Illustrator 17.0.0, SVG Export Plug-In . SVG Version: 6.00 Build 0)  -->
<!DOCTYPE svg PUBLIC "-//W3C//DTD SVG 1.1//EN" "http://www.w3.org/Graphics/SVG/1.1/DTD/svg11.dtd">
<svg version="1.1" id="Layer_2" xmlns="http://www.w3.org/2000/svg" xmlns:xlink="http://www.w3.org/1999/xlink" x="0px" y="0px"
	 width="48px" height="48px" viewBox="0 0 48 48" enable-background="new 0 0 48 48" xml:space="preserve">
<g>
	<path fill="#010101" d="M36,1c0-0.552-0.448-1-1-1H1C0.448,0,0,0.448,0,1v34c0,0.552,0.448,1,1,1h9V11c0-0.552,0.448-1,1-1h25V1z"
		/>
	<path fill="#010101" d="M47,12H13h-1v1v34c0,0.552,0.448,1,1,1h34c0.552,0,1-0.448,1-1V13C48,12.448,47.552,12,47,12z"/>
</g>
</svg>
