<?xml version="1.0" encoding="utf-8"?>
<!-- Generator: Adobe Illustrator 17.1.0, SVG Export Plug-In . SVG Version: 6.00 Build 0)  -->
<!DOCTYPE svg PUBLIC "-//W3C//DTD SVG 1.0//EN" "http://www.w3.org/TR/2001/REC-SVG-20010904/DTD/svg10.dtd">
<svg version="1.0" id="Layer_1" xmlns="http://www.w3.org/2000/svg" xmlns:xlink="http://www.w3.org/1999/xlink" x="0px" y="0px"
	 width="48px" height="48px" viewBox="0 0 48 48" enable-background="new 0 0 48 48" xml:space="preserve">
<g>
	<path d="M3,28h42c0.552,0,1-0.448,1-1V7c0-0.552-0.448-1-1-1H30V5c0-0.552-0.448-1-1-1h-4V1c0-0.552-0.448-1-1-1s-1,0.448-1,1v3h-4
		c-0.552,0-1,0.448-1,1v1H3C2.448,6,2,6.448,2,7v20C2,27.552,2.448,28,3,28z M20,6h8v2h-8V6z"/>
	<path d="M45,30H3c-1.654,0-3,1.346-3,3s1.346,3,3,3h9.382L7.105,46.553c-0.247,0.494-0.047,1.095,0.447,1.342
		C7.696,47.966,7.849,48,7.999,48c0.367,0,0.72-0.202,0.896-0.553L14.618,36H23v11c0,0.552,0.448,1,1,1s1-0.448,1-1V36h8.382
		l5.724,11.447C39.281,47.798,39.634,48,40.001,48c0.15,0,0.303-0.034,0.446-0.105c0.494-0.247,0.694-0.848,0.447-1.342L35.618,36
		H45c1.654,0,3-1.346,3-3S46.654,30,45,30z"/>
</g>
</svg>
