<?xml version="1.0" encoding="utf-8"?>
<!-- Generator: Adobe Illustrator 17.0.0, SVG Export Plug-In . SVG Version: 6.00 Build 0)  -->
<!DOCTYPE svg PUBLIC "-//W3C//DTD SVG 1.1//EN" "http://www.w3.org/Graphics/SVG/1.1/DTD/svg11.dtd">
<svg version="1.1" id="Layer_2" xmlns="http://www.w3.org/2000/svg" xmlns:xlink="http://www.w3.org/1999/xlink" x="0px" y="0px"
	 width="48px" height="48px" viewBox="0 0 48 48" enable-background="new 0 0 48 48" xml:space="preserve">
<g>
	<path fill="#010101" d="M47.02,1.728c-0.884-0.892-2.386-1.271-5.023-1.271c-0.305,0-0.594,0.139-0.784,0.379L21.564,25.614
		l1.41,1.442l1.831,1.872l1.4,1.432L47.73,7.136c0.171-0.184,0.267-0.428,0.267-0.68L48,5.817C48.013,4.166,48.024,2.74,47.02,1.728
		z"/>
	<path fill="#010101" d="M23.444,30.398l-1.722-1.762l-1.41-1.441l-2.062,2.6c-0.891-0.332-1.835-0.521-2.815-0.521
		c-2.561,0-4.989,1.206-6.497,3.227c-0.73,0.979-1.124,2.219-1.542,3.532c-0.965,3.039-1.821,5.644-6.35,5.424
		c-0.413-0.018-0.79,0.212-0.96,0.586c-0.169,0.374-0.094,0.813,0.192,1.109c2.778,2.873,6.239,4.392,10.009,4.392
		c5.7,0,11.373-3.641,12.915-8.29c0.615-1.853,0.474-3.67-0.327-5.302l1.968-2.123L23.444,30.398z"/>
</g>
</svg>
