<?xml version="1.0" encoding="utf-8"?>
<!-- Generator: Adobe Illustrator 17.0.0, SVG Export Plug-In . SVG Version: 6.00 Build 0)  -->
<!DOCTYPE svg PUBLIC "-//W3C//DTD SVG 1.1//EN" "http://www.w3.org/Graphics/SVG/1.1/DTD/svg11.dtd">
<svg version="1.1" id="Layer_2" xmlns="http://www.w3.org/2000/svg" xmlns:xlink="http://www.w3.org/1999/xlink" x="0px" y="0px"
	 width="48px" height="48px" viewBox="0 0 48 48" enable-background="new 0 0 48 48" xml:space="preserve">
<g>
	<path fill="#010101" d="M40,20H29.954c-0.332,0-0.642-0.164-0.828-0.44c-0.186-0.275-0.224-0.624-0.101-0.931
		C29.672,17.014,30,15.311,30,13.569V6c0-3.309-2.691-6-6-6c-3.309,0-6,2.691-6,6v7.569c0,1.74,0.328,3.441,0.975,5.06
		c0.123,0.308,0.086,0.656-0.1,0.931C18.688,19.835,18.378,20,18.046,20H8c-2.206,0-4,1.794-4,4v5h40v-5C44,21.794,42.206,20,40,20z
		 M24,8c-1.103,0-2-0.898-2-2s0.897-2,2-2s2,0.898,2,2S25.103,8,24,8z"/>
	<path fill="#010101" d="M41,31H7c-0.552,0-1,0.448-1,1v15c0,0.552,0.448,1,1,1h5c0.379,0,0.725-0.214,0.894-0.553L15,43.236V47
		c0,0.552,0.448,1,1,1h12v-5.208c0-0.553,0.448-1,1-1c0.552,0,1,0.447,1,1V48h2v-8.684c0-0.552,0.448-1,1-1c0.552,0,1,0.448,1,1V48
		h2V37c0-0.552,0.448-1,1-1c0.552,0,1,0.448,1,1v11h3c0.552,0,1-0.448,1-1V32C42,31.448,41.552,31,41,31z"/>
</g>
</svg>
