<?xml version="1.0" encoding="utf-8"?>
<!-- Generator: Adobe Illustrator 17.0.0, SVG Export Plug-In . SVG Version: 6.00 Build 0)  -->
<!DOCTYPE svg PUBLIC "-//W3C//DTD SVG 1.1//EN" "http://www.w3.org/Graphics/SVG/1.1/DTD/svg11.dtd">
<svg version="1.1" id="Layer_2" xmlns="http://www.w3.org/2000/svg" xmlns:xlink="http://www.w3.org/1999/xlink" x="0px" y="0px"
	 width="48px" height="48px" viewBox="0 0 48 48" enable-background="new 0 0 48 48" xml:space="preserve">
<g>
	<path fill="#010101" d="M39.093,25.383c0.155-0.374,0.069-0.804-0.217-1.09l-18-18C20.681,6.098,20.425,6,20.169,6V5
		c0-2.757-2.243-5-5-5s-5,2.243-5,5v10.586l-7.707,7.707c-1.949,1.949-1.95,5.121,0,7.071l9.343,9.343
		c0.944,0.944,2.2,1.465,3.535,1.465c1.336,0,2.591-0.521,3.536-1.465L32.583,26h5.586C38.573,26,38.938,25.756,39.093,25.383z
		 M18.169,7.586l-6,6V5c0-1.654,1.346-3,3-3s3,1.346,3,3V7.586z"/>
	<path fill="#010101" d="M41.024,30.481c-0.363-0.598-1.347-0.598-1.71,0c-0.526,0.867-5.145,8.562-5.145,11.519
		c0,3.309,2.691,6,6,6c3.309,0,6-2.691,6-6C46.169,39.044,41.55,31.349,41.024,30.481z"/>
</g>
</svg>
