<?xml version="1.0" encoding="utf-8"?>
<!-- Generator: Adobe Illustrator 17.0.0, SVG Export Plug-In . SVG Version: 6.00 Build 0)  -->
<!DOCTYPE svg PUBLIC "-//W3C//DTD SVG 1.1//EN" "http://www.w3.org/Graphics/SVG/1.1/DTD/svg11.dtd">
<svg version="1.1" id="Layer_2" xmlns="http://www.w3.org/2000/svg" xmlns:xlink="http://www.w3.org/1999/xlink" x="0px" y="0px"
	 width="48px" height="48px" viewBox="0 0 48 48" enable-background="new 0 0 48 48" xml:space="preserve">
<g>
	<path fill="#010101" d="M33,13h-3.999H29h-0.001h-9.998H19h-0.001H15c-0.552,0-1,0.448-1,1s0.448,1,1,1h3v13
		c0,2.155,1.158,4.127,3,5.191V37c0,0.552,0.448,1,1,1h4c0.552,0,1-0.448,1-1v-3.809c1.842-1.064,3-3.036,3-5.191V15h3
		c0.552,0,1-0.448,1-1S33.552,13,33,13z M26,28c0,1.103-0.897,2-2,2s-2-0.897-2-2V17c0-0.552,0.448-1,1-1h2c0.552,0,1,0.448,1,1V28z
		"/>
	<path fill="#010101" d="M19,11h10c0.552,0,1-0.448,1-1V6c0-3.309-2.691-6-6-6c-3.309,0-6,2.691-6,6v4C18,10.552,18.448,11,19,11z"
		/>
	<path fill="#010101" d="M23.177,40.432C22.522,41.379,21,43.722,21,45c0,1.654,1.346,3,3,3c1.654,0,3-1.346,3-3
		c0-1.278-1.523-3.621-2.177-4.568C24.45,39.891,23.55,39.891,23.177,40.432z"/>
</g>
</svg>
