<?xml version="1.0" encoding="utf-8"?>
<!-- Generator: Adobe Illustrator 17.0.0, SVG Export Plug-In . SVG Version: 6.00 Build 0)  -->
<!DOCTYPE svg PUBLIC "-//W3C//DTD SVG 1.1//EN" "http://www.w3.org/Graphics/SVG/1.1/DTD/svg11.dtd">
<svg version="1.1" id="Layer_2" xmlns="http://www.w3.org/2000/svg" xmlns:xlink="http://www.w3.org/1999/xlink" x="0px" y="0px"
	 width="48px" height="48px" viewBox="0 0 48 48" enable-background="new 0 0 48 48" xml:space="preserve">
<path fill="#010101" d="M46,26c1.104,0,2-0.895,2-2c0-1.104-0.896-2-2-2H36v-6h10c1.104,0,2-0.895,2-2c0-1.104-0.896-2-2-2H36V2
	c0-1.104-0.896-2-2-2c-1.105,0-2,0.896-2,2v10h-6V2c0-1.104-0.896-2-2-2c-1.105,0-2,0.896-2,2v10h-6V2c0-1.104-0.896-2-2-2
	c-1.105,0-2,0.896-2,2v10H2c-1.105,0-2,0.896-2,2c0,1.105,0.895,2,2,2h10v6H2c-1.105,0-2,0.896-2,2c0,1.105,0.895,2,2,2h10v6H2
	c-1.105,0-2,0.896-2,2c0,1.105,0.895,2,2,2h10v10c0,1.105,0.895,2,2,2c1.104,0,2-0.895,2-2V36h6v10c0,1.105,0.895,2,2,2
	c1.104,0,2-0.895,2-2V36h6v10c0,1.105,0.895,2,2,2c1.104,0,2-0.895,2-2V36h10c1.104,0,2-0.895,2-2c0-1.104-0.896-2-2-2H36v-6H46z
	 M22,32h-6v-6h6V32z M22,22h-6v-6h6V22z M32,32h-6v-6h6V32z M32,22h-6v-6h6V22z"/>
</svg>
