<?xml version="1.0" encoding="utf-8"?>
<!-- Generator: Adobe Illustrator 17.0.0, SVG Export Plug-In . SVG Version: 6.00 Build 0)  -->
<!DOCTYPE svg PUBLIC "-//W3C//DTD SVG 1.1//EN" "http://www.w3.org/Graphics/SVG/1.1/DTD/svg11.dtd">
<svg version="1.1" id="Layer_2" xmlns="http://www.w3.org/2000/svg" xmlns:xlink="http://www.w3.org/1999/xlink" x="0px" y="0px"
	 width="48px" height="48px" viewBox="0 0 48 48" enable-background="new 0 0 48 48" xml:space="preserve">
<g>
	<path fill="#010101" d="M25.586,19.586l-25,25c-0.781,0.781-0.781,2.047,0,2.828C0.976,47.805,1.488,48,2,48
		c0.512,0,1.024-0.195,1.414-0.586l25-25c0.781-0.781,0.781-2.047,0-2.828C27.634,18.805,26.366,18.805,25.586,19.586z"/>
	<path fill="#010101" d="M46,12h-5c-1.105,0-2,0.896-2,2s0.895,2,2,2h5c1.104,0,2-0.896,2-2S47.104,12,46,12z"/>
	<path fill="#010101" d="M39,11c0.512,0,1.024-0.195,1.414-0.586l4-4c0.781-0.781,0.781-2.047,0-2.828
		c-0.78-0.781-2.048-0.781-2.828,0l-4,4c-0.781,0.781-0.781,2.047,0,2.828C37.976,10.805,38.488,11,39,11z"/>
	<path fill="#010101" d="M34,0c-1.105,0-2,0.896-2,2v5c0,1.104,0.895,2,2,2c1.104,0,2-0.896,2-2V2C36,0.896,35.104,0,34,0z"/>
	<path fill="#010101" d="M26.414,3.586c-0.78-0.781-2.048-0.781-2.828,0c-0.781,0.781-0.781,2.047,0,2.828l4,4
		C27.976,10.805,28.488,11,29,11c0.512,0,1.024-0.195,1.414-0.586c0.781-0.781,0.781-2.047,0-2.828L26.414,3.586z"/>
	<path fill="#010101" d="M27,12h-6c-1.105,0-2,0.896-2,2s0.895,2,2,2h6c1.104,0,2-0.896,2-2S28.104,12,27,12z"/>
	<path fill="#010101" d="M34,19c-1.105,0-2,0.896-2,2v6c0,1.104,0.895,2,2,2c1.104,0,2-0.896,2-2v-6C36,19.896,35.104,19,34,19z"/>
	<path fill="#010101" d="M40.414,17.586c-0.78-0.781-2.048-0.781-2.828,0c-0.781,0.781-0.781,2.047,0,2.828l4,4
		C41.976,24.805,42.488,25,43,25c0.512,0,1.024-0.195,1.414-0.586c0.781-0.781,0.781-2.047,0-2.828L40.414,17.586z"/>
</g>
</svg>
