<?xml version="1.0" encoding="utf-8"?>
<!-- Generator: Adobe Illustrator 17.0.0, SVG Export Plug-In . SVG Version: 6.00 Build 0)  -->
<!DOCTYPE svg PUBLIC "-//W3C//DTD SVG 1.1//EN" "http://www.w3.org/Graphics/SVG/1.1/DTD/svg11.dtd">
<svg version="1.1" id="Layer_2" xmlns="http://www.w3.org/2000/svg" xmlns:xlink="http://www.w3.org/1999/xlink" x="0px" y="0px"
	 width="48px" height="48px" viewBox="0 0 48 48" enable-background="new 0 0 48 48" xml:space="preserve">
<g>
	<path fill="#010101" d="M47.345,24.693l-5.657-5.657c-0.375-0.375-1.039-0.375-1.414,0l-3.536,3.536l7.071,7.071l3.536-3.536
		c0.187-0.188,0.293-0.442,0.293-0.707C47.638,25.135,47.532,24.88,47.345,24.693z"/>
	<path fill="#010101" d="M28.96,7.722c0.391-0.391,0.391-1.023,0-1.414l-5.657-5.658c-0.188-0.188-0.442-0.293-0.707-0.293
		c-0.265,0-0.52,0.105-0.707,0.293l-3.536,3.536l7.071,7.071L28.96,7.722z"/>
	<path fill="#010101" d="M25.425,33.884c-1.511,1.512-3.521,2.344-5.658,2.344c-2.137,0-4.145-0.832-5.657-2.343
		c-3.119-3.119-3.119-8.195,0-11.314l9.9-9.899L16.939,5.6L5.625,16.914c-7.017,7.019-7.017,18.438,0,25.456
		c3.4,3.4,7.921,5.272,12.729,5.272s9.328-1.872,12.727-5.272l11.314-11.313l-7.071-7.071L25.425,33.884z"/>
</g>
</svg>
