<?xml version="1.0" encoding="utf-8"?>
<!-- Generator: Adobe Illustrator 17.0.0, SVG Export Plug-In . SVG Version: 6.00 Build 0)  -->
<!DOCTYPE svg PUBLIC "-//W3C//DTD SVG 1.1//EN" "http://www.w3.org/Graphics/SVG/1.1/DTD/svg11.dtd">
<svg version="1.1" id="Layer_2" xmlns="http://www.w3.org/2000/svg" xmlns:xlink="http://www.w3.org/1999/xlink" x="0px" y="0px"
	 width="48px" height="48px" viewBox="0 0 48 48" enable-background="new 0 0 48 48" xml:space="preserve">
<g>
	<circle fill="#010101" cx="24" cy="21" r="3"/>
	<path fill="#010101" d="M20.099,47.433C20.265,47.779,20.615,48,21,48h2V25.899c-2.279-0.464-4-2.484-4-4.899c0-2.757,2.243-5,5-5
		c2.757,0,5,2.243,5,5c0,2.415-1.721,4.435-4,4.899V48h2c0.385,0,0.735-0.221,0.901-0.567l12-25c0.147-0.307,0.128-0.667-0.05-0.956
		L32.789,10H15.21L8.148,21.476c-0.178,0.289-0.197,0.65-0.05,0.956L20.099,47.433z"/>
	<path fill="#010101" d="M32.618,8l3.276-6.553c0.155-0.31,0.138-0.678-0.044-0.973C35.668,0.18,35.347,0,35,0H12
		c-0.364,0-0.698,0.197-0.875,0.515c-0.176,0.318-0.166,0.707,0.026,1.015L15.196,8H32.618z"/>
</g>
</svg>
