<?xml version="1.0" encoding="utf-8"?>
<!-- Generator: Adobe Illustrator 17.0.0, SVG Export Plug-In . SVG Version: 6.00 Build 0)  -->
<!DOCTYPE svg PUBLIC "-//W3C//DTD SVG 1.1//EN" "http://www.w3.org/Graphics/SVG/1.1/DTD/svg11.dtd">
<svg version="1.1" id="Layer_2" xmlns="http://www.w3.org/2000/svg" xmlns:xlink="http://www.w3.org/1999/xlink" x="0px" y="0px"
	 width="48px" height="48px" viewBox="0 0 48 48" enable-background="new 0 0 48 48" xml:space="preserve">
<g>
	<circle fill="#010101" cx="24" cy="26" r="2"/>
	<path fill="#010101" d="M28,12.7V10h1c0.459,0,0.859-0.312,0.97-0.758l2-8c0.075-0.298,0.007-0.615-0.182-0.857
		C31.599,0.142,31.308,0,31,0H17c-0.308,0-0.599,0.142-0.788,0.385c-0.189,0.242-0.257,0.559-0.182,0.857l2,8
		C18.141,9.688,18.541,10,19,10h1v2.7c-4.653,1.652-8,6.087-8,11.3c0,6.276,9.725,22.808,10.139,23.509
		C22.319,47.814,22.646,48,23,48V29.858c-1.72-0.447-3-2-3-3.858c0-2.206,1.794-4,4-4c2.206,0,4,1.794,4,4
		c0,1.858-1.28,3.411-3,3.858V48c0.329,0,0.636-0.161,0.823-0.432C28.276,44.016,36,29.602,36,24C36,18.787,32.653,14.353,28,12.7z
		 M26,12.181C25.348,12.07,24.683,12,24,12c-0.683,0-1.348,0.07-2,0.181V10h4V12.181z"/>
</g>
</svg>
