<?xml version="1.0" encoding="utf-8"?>
<!-- Generator: Adobe Illustrator 17.0.0, SVG Export Plug-In . SVG Version: 6.00 Build 0)  -->
<!DOCTYPE svg PUBLIC "-//W3C//DTD SVG 1.1//EN" "http://www.w3.org/Graphics/SVG/1.1/DTD/svg11.dtd">
<svg version="1.1" id="Layer_2" xmlns="http://www.w3.org/2000/svg" xmlns:xlink="http://www.w3.org/1999/xlink" x="0px" y="0px"
	 width="48px" height="48px" viewBox="0 0 48 48" enable-background="new 0 0 48 48" xml:space="preserve">
<path fill="#010101" d="M47.247,0.35c-0.176-0.189-0.417-0.297-0.671-0.312c-0.135-0.015-0.268-0.004-0.399,0.036
	c-1.322,0.214-9.193,1.585-17.078,5.043C28.735,5.275,28.5,5.635,28.5,6.032c0,1.873-1.037,3.799-2.016,5.202V8.032
	c0-0.343-0.176-0.662-0.466-0.845c-0.29-0.184-0.655-0.205-0.963-0.058c-2.796,1.328-4.899,2.834-7.262,5.196
	c-5.552,5.552-7.447,10.513-8.059,13.698c-0.67,3.49-0.123,6.709,1.456,8.858L0.777,45.293c-0.391,0.391-0.391,1.023,0,1.414
	C0.973,46.902,1.229,47,1.484,47s0.512-0.098,0.707-0.293l10.401-10.401c1.396,1.071,3.166,1.639,5.186,1.639h0.001
	c4.091,0,8.913-2.331,13.783-6.611l-4.88-4.881c-0.391-0.391-0.391-1.024,0-1.415c0.391-0.39,1.023-0.39,1.414,0l4.938,4.94
	c0.251-0.241,0.503-0.482,0.754-0.733c0.22-0.22,0.434-0.449,0.648-0.677l-3.378-3.395c-0.39-0.392-0.388-1.025,0.004-1.415
	c0.391-0.39,1.025-0.388,1.414,0.004l3.282,3.299C43.822,17.285,47.335,1.948,47.491,1.25C47.564,0.928,47.472,0.591,47.247,0.35z"
	/>
</svg>
