<?xml version="1.0" encoding="utf-8"?>
<!-- Generator: Adobe Illustrator 17.0.0, SVG Export Plug-In . SVG Version: 6.00 Build 0)  -->
<!DOCTYPE svg PUBLIC "-//W3C//DTD SVG 1.1//EN" "http://www.w3.org/Graphics/SVG/1.1/DTD/svg11.dtd">
<svg version="1.1" id="Layer_2" xmlns="http://www.w3.org/2000/svg" xmlns:xlink="http://www.w3.org/1999/xlink" x="0px" y="0px"
	 width="48px" height="48px" viewBox="0 0 48 48" enable-background="new 0 0 48 48" xml:space="preserve">
<g>
	<path fill="#010101" d="M24,16c-0.552,0-1,0.448-1,1v30c0,0.552,0.448,1,1,1c0.552,0,1-0.448,1-1V17C25,16.448,24.552,16,24,16z"/>
	<path fill="#010101" d="M2.707,16.293c-0.287-0.286-0.715-0.372-1.09-0.217C1.244,16.231,1,16.596,1,17v28
		c0,0.404,0.244,0.769,0.617,0.924C1.741,45.975,1.871,46,2,46c0.26,0,0.516-0.102,0.707-0.293l14-14
		c0.391-0.391,0.391-1.023,0-1.414L2.707,16.293z"/>
	<path fill="#010101" d="M46.383,16.076c-0.375-0.155-0.804-0.069-1.09,0.217l-14,14c-0.391,0.391-0.391,1.023,0,1.414l14,14
		C45.484,45.898,45.74,46,46,46c0.129,0,0.259-0.025,0.383-0.076C46.756,45.769,47,45.404,47,45V17
		C47,16.596,46.756,16.231,46.383,16.076z"/>
	<path fill="#010101" d="M34.519,13.859c0.04,0.022,0.074,0.05,0.117,0.067C34.752,13.972,34.874,14,35,14
		c0.048,0,0.096-0.003,0.144-0.01c0.04-0.006,0.073-0.031,0.112-0.042c0.073-0.019,0.142-0.042,0.207-0.076
		c0.052-0.028,0.097-0.061,0.144-0.097c0.06-0.047,0.113-0.098,0.161-0.157c0.019-0.024,0.048-0.038,0.065-0.063l4-6
		c0.306-0.46,0.182-1.08-0.277-1.387c-0.46-0.308-1.08-0.183-1.387,0.277l-2.486,3.73C34.387,4.362,29.197,0,23,0
		c-7.169,0-13,5.832-13,13c0,0.552,0.448,1,1,1c0.552,0,1-0.448,1-1c0-6.065,4.935-11,11-11c5.258,0,9.66,3.71,10.741,8.649
		L29.64,7.231c-0.425-0.353-1.055-0.296-1.408,0.128c-0.354,0.424-0.296,1.055,0.128,1.409l6,5
		C34.408,13.808,34.465,13.83,34.519,13.859z"/>
</g>
</svg>
