<?xml version="1.0" encoding="utf-8"?>
<!-- Generator: Adobe Illustrator 17.0.0, SVG Export Plug-In . SVG Version: 6.00 Build 0)  -->
<!DOCTYPE svg PUBLIC "-//W3C//DTD SVG 1.1//EN" "http://www.w3.org/Graphics/SVG/1.1/DTD/svg11.dtd">
<svg version="1.1" id="Layer_2" xmlns="http://www.w3.org/2000/svg" xmlns:xlink="http://www.w3.org/1999/xlink" x="0px" y="0px"
	 width="48px" height="48px" viewBox="0 0 48 48" enable-background="new 0 0 48 48" xml:space="preserve">
<path fill="#010101" d="M40,6h-1V1c0-0.552-0.448-1-1-1H8C7.448,0,7,0.448,7,1v5H6C4.346,6,3,7.346,3,9v8c0,1.654,1.346,3,3,3h16
	c0.551,0,1,0.448,1,1v5.032c-1.864,0.406-4,1.854-4,3.88v15C19,46.797,21.835,48,23.318,48h2C26.986,48,29,46.623,29,44.912v-15
	c0-2.026-2.136-3.474-4-3.88V21c0-1.654-1.346-3-3-3H6c-0.551,0-1-0.448-1-1V9c0-0.552,0.449-1,1-1h1v5c0,0.552,0.448,1,1,1h30
	c0.552,0,1-0.448,1-1V8h1c0.552,0,1-0.448,1-1C41,6.448,40.552,6,40,6z"/>
</svg>
