<?xml version="1.0" encoding="utf-8"?>
<!-- Generator: Adobe Illustrator 17.0.0, SVG Export Plug-In . SVG Version: 6.00 Build 0)  -->
<!DOCTYPE svg PUBLIC "-//W3C//DTD SVG 1.1//EN" "http://www.w3.org/Graphics/SVG/1.1/DTD/svg11.dtd">
<svg version="1.1" id="Layer_2" xmlns="http://www.w3.org/2000/svg" xmlns:xlink="http://www.w3.org/1999/xlink" x="0px" y="0px"
	 width="48px" height="48px" viewBox="0 0 48 48" enable-background="new 0 0 48 48" xml:space="preserve">
<path fill="#010101" d="M47.588,46.184L40.404,39l-2.707,2.707C37.502,41.902,37.246,42,36.99,42c-0.256,0-0.512-0.098-0.707-0.293
	c-0.391-0.391-0.391-1.023,0-1.414l2.707-2.707L35.404,34l-2.707,2.707C32.502,36.902,32.246,37,31.99,37
	c-0.256,0-0.512-0.098-0.707-0.293c-0.391-0.391-0.391-1.023,0-1.414l2.707-2.707L30.404,29l-2.707,2.707
	C27.502,31.902,27.246,32,26.99,32c-0.256,0-0.512-0.098-0.707-0.293c-0.391-0.391-0.391-1.023,0-1.414l2.707-2.707l-3.58-3.58
	l-2.715,2.703C22.5,26.903,22.245,27,21.99,27c-0.257,0-0.513-0.098-0.709-0.294c-0.39-0.391-0.389-1.025,0.003-1.415l2.711-2.699
	L20.404,19l-2.707,2.707C17.502,21.902,17.246,22,16.99,22c-0.256,0-0.512-0.098-0.707-0.293c-0.391-0.391-0.391-1.023,0-1.414
	l2.707-2.707L15.404,14l-2.707,2.707C12.502,16.902,12.246,17,11.99,17c-0.256,0-0.512-0.098-0.707-0.293
	c-0.391-0.391-0.391-1.023,0-1.414l2.707-2.707L10.404,9l-2.707,2.707C7.502,11.902,7.246,12,6.99,12
	c-0.256,0-0.512-0.098-0.707-0.293c-0.391-0.391-0.391-1.023,0-1.414L8.99,7.586L1.697,0.293C1.41,0.007,0.981-0.079,0.607,0.076
	C0.234,0.231-0.01,0.596-0.01,1v46c0,0.552,0.448,1,1,1h46c0.007,0,0.013,0,0.02,0c0.552,0,1-0.448,1-1
	C48.01,46.663,47.843,46.365,47.588,46.184z M7.99,40V22.414L25.576,40H7.99z"/>
</svg>
