<?xml version="1.0" encoding="utf-8"?>
<!-- Generator: Adobe Illustrator 17.0.0, SVG Export Plug-In . SVG Version: 6.00 Build 0)  -->
<!DOCTYPE svg PUBLIC "-//W3C//DTD SVG 1.1//EN" "http://www.w3.org/Graphics/SVG/1.1/DTD/svg11.dtd">
<svg version="1.1" id="Layer_2" xmlns="http://www.w3.org/2000/svg" xmlns:xlink="http://www.w3.org/1999/xlink" x="0px" y="0px"
	 width="48px" height="48px" viewBox="0 0 48 48" enable-background="new 0 0 48 48" xml:space="preserve">
<path fill="#010101" d="M47.707,11.287l-11-11.001c-0.375-0.375-1.039-0.375-1.414,0l-6.292,6.292l4.731,4.675
	c0.393,0.389,0.396,1.021,0.008,1.414c-0.196,0.198-0.454,0.297-0.711,0.297c-0.254,0-0.508-0.096-0.703-0.289l-4.739-4.684
	L25,10.58l5.707,5.707c0.391,0.391,0.391,1.024,0,1.414c-0.195,0.195-0.451,0.293-0.707,0.293c-0.256,0-0.512-0.098-0.707-0.293
	l-5.707-5.707l-3.056,3.057l4.207,4.207c0.391,0.39,0.391,1.024,0,1.414c-0.195,0.195-0.451,0.293-0.707,0.293
	s-0.512-0.098-0.707-0.293l-4.207-4.207l-2.601,2.601l5.707,5.707c0.391,0.391,0.391,1.023,0,1.414
	c-0.195,0.195-0.451,0.293-0.707,0.293c-0.256,0-0.512-0.098-0.707-0.293L15.1,20.48l-3.069,3.069l4.731,4.674
	c0.393,0.388,0.397,1.021,0.009,1.415c-0.196,0.198-0.454,0.297-0.711,0.297c-0.254,0-0.508-0.096-0.703-0.289l-4.74-4.683
	l-2.588,2.588l5.707,5.707c0.391,0.39,0.391,1.024,0,1.414c-0.195,0.195-0.451,0.293-0.707,0.293c-0.256,0-0.512-0.098-0.707-0.293
	l-5.707-5.706l-6.322,6.322c-0.391,0.391-0.391,1.023,0,1.414l11,11c0.187,0.188,0.442,0.293,0.707,0.293
	c0.265,0,0.519-0.105,0.707-0.293l35-35C48.098,12.311,48.098,11.678,47.707,11.287z"/>
</svg>
