<?xml version="1.0" encoding="utf-8"?>
<!-- Generator: Adobe Illustrator 17.0.0, SVG Export Plug-In . SVG Version: 6.00 Build 0)  -->
<!DOCTYPE svg PUBLIC "-//W3C//DTD SVG 1.1//EN" "http://www.w3.org/Graphics/SVG/1.1/DTD/svg11.dtd">
<svg version="1.1" id="Layer_2" xmlns="http://www.w3.org/2000/svg" xmlns:xlink="http://www.w3.org/1999/xlink" x="0px" y="0px"
	 width="48px" height="48px" viewBox="0 0 48 48" enable-background="new 0 0 48 48" xml:space="preserve">
<g>
	<path fill="#010101" d="M44,6c0-0.131-0.014-0.262-0.04-0.392c-0.012-0.059-0.034-0.114-0.051-0.171
		c-0.02-0.068-0.036-0.137-0.063-0.203c-0.028-0.066-0.065-0.126-0.099-0.188c-0.028-0.052-0.051-0.107-0.085-0.156
		c-0.073-0.109-0.156-0.212-0.249-0.305l0,0c-0.001-0.001-0.002-0.001-0.003-0.002c-0.092-0.092-0.193-0.174-0.302-0.247
		c-0.051-0.034-0.107-0.058-0.16-0.087c-0.061-0.033-0.12-0.07-0.184-0.097C42.7,4.126,42.632,4.11,42.564,4.091
		c-0.058-0.017-0.113-0.04-0.173-0.051c-0.121-0.024-0.244-0.036-0.367-0.037C42.016,4.002,42.008,4,42,4H32c-1.105,0-2,0.896-2,2
		c0,1.105,0.895,2,2,2h5.172L24.586,20.586c-0.781,0.781-0.781,2.047,0,2.828C24.976,23.805,25.488,24,26,24
		c0.512,0,1.024-0.195,1.414-0.586L40,10.828V16c0,1.105,0.895,2,2,2c1.104,0,2-0.895,2-2V6z"/>
	<path fill="#010101" d="M9,4c0.552,0,1-0.448,1-1V2h1c0.552,0,1-0.448,1-1c0-0.552-0.448-1-1-1H9C8.448,0,8,0.448,8,1v2
		C8,3.552,8.448,4,9,4z"/>
	<path fill="#010101" d="M47,0h-2c-0.552,0-1,0.448-1,1c0,0.552,0.448,1,1,1h1v1c0,0.552,0.448,1,1,1c0.552,0,1-0.448,1-1V1
		C48,0.448,47.552,0,47,0z"/>
	<path fill="#010101" d="M9,10c0.552,0,1-0.448,1-1V7c0-0.552-0.448-1-1-1C8.448,6,8,6.448,8,7v2C8,9.552,8.448,10,9,10z"/>
	<path fill="#010101" d="M15,2h2c0.552,0,1-0.448,1-1c0-0.552-0.448-1-1-1h-2c-0.552,0-1,0.448-1,1C14,1.552,14.448,2,15,2z"/>
	<path fill="#010101" d="M21,2h2c0.552,0,1-0.448,1-1c0-0.552-0.448-1-1-1h-2c-0.552,0-1,0.448-1,1C20,1.552,20.448,2,21,2z"/>
	<path fill="#010101" d="M27,2h2c0.552,0,1-0.448,1-1c0-0.552-0.448-1-1-1h-2c-0.552,0-1,0.448-1,1C26,1.552,26.448,2,27,2z"/>
	<path fill="#010101" d="M33,2h2c0.552,0,1-0.448,1-1c0-0.552-0.448-1-1-1h-2c-0.552,0-1,0.448-1,1C32,1.552,32.448,2,33,2z"/>
	<path fill="#010101" d="M39,2h2c0.552,0,1-0.448,1-1c0-0.552-0.448-1-1-1h-2c-0.552,0-1,0.448-1,1C38,1.552,38.448,2,39,2z"/>
	<path fill="#010101" d="M23,38h-1V27c0-0.552-0.448-1-1-1H10v-1c0-0.552-0.448-1-1-1c-0.552,0-1,0.448-1,1v1H1
		c-0.552,0-1,0.448-1,1v20c0,0.552,0.448,1,1,1h20c0.552,0,1-0.448,1-1v-7h1c0.552,0,1-0.448,1-1C24,38.448,23.552,38,23,38z"/>
	<path fill="#010101" d="M29,38h-2c-0.552,0-1,0.448-1,1c0,0.552,0.448,1,1,1h2c0.552,0,1-0.448,1-1C30,38.448,29.552,38,29,38z"/>
	<path fill="#010101" d="M35,38h-2c-0.552,0-1,0.448-1,1c0,0.552,0.448,1,1,1h2c0.552,0,1-0.448,1-1C36,38.448,35.552,38,35,38z"/>
	<path fill="#010101" d="M41,38h-2c-0.552,0-1,0.448-1,1c0,0.552,0.448,1,1,1h2c0.552,0,1-0.448,1-1C42,38.448,41.552,38,41,38z"/>
	<path fill="#010101" d="M47,36c-0.552,0-1,0.448-1,1v1h-1c-0.552,0-1,0.448-1,1c0,0.552,0.448,1,1,1h2c0.552,0,1-0.448,1-1v-2
		C48,36.448,47.552,36,47,36z"/>
	<path fill="#010101" d="M47,30c-0.552,0-1,0.448-1,1v2c0,0.552,0.448,1,1,1c0.552,0,1-0.448,1-1v-2C48,30.448,47.552,30,47,30z"/>
	<path fill="#010101" d="M47,24c-0.552,0-1,0.448-1,1v2c0,0.552,0.448,1,1,1c0.552,0,1-0.448,1-1v-2C48,24.448,47.552,24,47,24z"/>
	<path fill="#010101" d="M47,18c-0.552,0-1,0.448-1,1v2c0,0.552,0.448,1,1,1c0.552,0,1-0.448,1-1v-2C48,18.448,47.552,18,47,18z"/>
	<path fill="#010101" d="M47,12c-0.552,0-1,0.448-1,1v2c0,0.552,0.448,1,1,1c0.552,0,1-0.448,1-1v-2C48,12.448,47.552,12,47,12z"/>
	<path fill="#010101" d="M9,22c0.552,0,1-0.448,1-1v-2c0-0.552-0.448-1-1-1c-0.552,0-1,0.448-1,1v2C8,21.552,8.448,22,9,22z"/>
	<path fill="#010101" d="M9,16c0.552,0,1-0.448,1-1v-2c0-0.552-0.448-1-1-1c-0.552,0-1,0.448-1,1v2C8,15.552,8.448,16,9,16z"/>
	<path fill="#010101" d="M47,6c-0.552,0-1,0.448-1,1v2c0,0.552,0.448,1,1,1c0.552,0,1-0.448,1-1V7C48,6.448,47.552,6,47,6z"/>
</g>
</svg>
