<?xml version="1.0" encoding="utf-8"?>
<!-- Generator: Adobe Illustrator 17.0.0, SVG Export Plug-In . SVG Version: 6.00 Build 0)  -->
<!DOCTYPE svg PUBLIC "-//W3C//DTD SVG 1.1//EN" "http://www.w3.org/Graphics/SVG/1.1/DTD/svg11.dtd">
<svg version="1.1" id="Layer_2" xmlns="http://www.w3.org/2000/svg" xmlns:xlink="http://www.w3.org/1999/xlink" x="0px" y="0px"
	 width="48px" height="48px" viewBox="0 0 48 48" enable-background="new 0 0 48 48" xml:space="preserve">
<g>
	<path fill="#010101" d="M4,25H1c-0.552,0-1,0.448-1,1v3c0,0.552,0.448,1,1,1s1-0.448,1-1v-2h2c0.552,0,1-0.448,1-1
		C5,25.448,4.552,25,4,25z"/>
	<path fill="#010101" d="M15,25h-2c-0.552,0-1,0.448-1,1c0,0.552,0.448,1,1,1h2c0.552,0,1-0.448,1-1C16,25.448,15.552,25,15,25z"/>
	<path fill="#010101" d="M9,46H7c-0.552,0-1,0.448-1,1c0,0.552,0.448,1,1,1h2c0.552,0,1-0.448,1-1C10,46.448,9.552,46,9,46z"/>
	<path fill="#010101" d="M46,0H8C6.895,0,6,0.896,6,2v22c0,0.457,0.159,0.873,0.417,1.21C6.17,25.392,6,25.67,6,26
		c0,0.552,0.448,1,1,1h2c0.552,0,1-0.448,1-1c0-0.33-0.17-0.608-0.417-0.79C9.841,24.873,10,24.457,10,24V4h34v34H24
		c-1.105,0-2,0.896-2,2c0,1.105,0.895,2,2,2h22c1.104,0,2-0.895,2-2V2C48,0.896,47.104,0,46,0z"/>
	<path fill="#010101" d="M15,46h-2c-0.552,0-1,0.448-1,1c0,0.552,0.448,1,1,1h2c0.552,0,1-0.448,1-1C16,46.448,15.552,46,15,46z"/>
	<path fill="#010101" d="M4,46H2v-2c0-0.552-0.448-1-1-1s-1,0.448-1,1v3c0,0.552,0.448,1,1,1h3c0.552,0,1-0.448,1-1
		C5,46.448,4.552,46,4,46z"/>
	<path fill="#010101" d="M1,36c0.552,0,1-0.448,1-1v-2c0-0.552-0.448-1-1-1s-1,0.448-1,1v2C0,35.552,0.448,36,1,36z"/>
	<path fill="#010101" d="M1,41c0.552,0,1-0.448,1-1v-2c0-0.552-0.448-1-1-1s-1,0.448-1,1v2C0,40.552,0.448,41,1,41z"/>
	<path fill="#010101" d="M22,26c0-0.552-0.448-1-1-1h-3c-0.552,0-1,0.448-1,1c0,0.552,0.448,1,1,1h2v2c0,0.552,0.448,1,1,1
		c0.552,0,1-0.448,1-1V26z"/>
	<path fill="#010101" d="M21,42c-0.552,0-1,0.448-1,1v3h-2c-0.552,0-1,0.448-1,1c0,0.552,0.448,1,1,1h3c0.552,0,1-0.448,1-1v-4
		C22,42.448,21.552,42,21,42z"/>
	<path fill="#010101" d="M21,32c-0.552,0-1,0.448-1,1v2c0,0.552,0.448,1,1,1c0.552,0,1-0.448,1-1v-2C22,32.448,21.552,32,21,32z"/>
	<path fill="#010101" d="M21,37c-0.552,0-1,0.448-1,1v2c0,0.552,0.448,1,1,1c0.552,0,1-0.448,1-1v-2C22,37.448,21.552,37,21,37z"/>
	<path fill="#010101" d="M25,11c-1.105,0-2,0.896-2,2v10c0,0.131,0.014,0.262,0.04,0.392c0.012,0.059,0.034,0.114,0.051,0.171
		c0.02,0.068,0.036,0.137,0.063,0.203c0.027,0.066,0.065,0.126,0.099,0.188c0.028,0.052,0.051,0.106,0.085,0.156
		c0.073,0.109,0.156,0.212,0.249,0.305c0.001,0.001,0.002,0.001,0.003,0.002c0.092,0.092,0.193,0.174,0.302,0.247
		c0.051,0.034,0.106,0.058,0.16,0.086c0.061,0.034,0.12,0.071,0.185,0.098c0.066,0.027,0.135,0.043,0.203,0.063
		c0.057,0.017,0.112,0.038,0.171,0.05C24.737,24.986,24.869,25,25,25h10c1.104,0,2-0.895,2-2c0-1.104-0.896-2-2-2h-5.172
		L41.414,9.414c0.781-0.781,0.781-2.047,0-2.828c-0.78-0.781-2.048-0.781-2.828,0L27,18.172V13C27,11.896,26.104,11,25,11z"/>
</g>
</svg>
