<?xml version="1.0" encoding="utf-8"?>
<!-- Generator: Adobe Illustrator 17.0.0, SVG Export Plug-In . SVG Version: 6.00 Build 0)  -->
<!DOCTYPE svg PUBLIC "-//W3C//DTD SVG 1.1//EN" "http://www.w3.org/Graphics/SVG/1.1/DTD/svg11.dtd">
<svg version="1.1" id="Layer_2" xmlns="http://www.w3.org/2000/svg" xmlns:xlink="http://www.w3.org/1999/xlink" x="0px" y="0px"
	 width="48px" height="48px" viewBox="0 0 48 48" enable-background="new 0 0 48 48" xml:space="preserve">
<g>
	<path fill="#010101" d="M33,23H14c-1.105,0-2,0.896-2,2c0,1.105,0.895,2,2,2h19c1.104,0,2-0.895,2-2C35,23.896,34.104,23,33,23z"/>
	<path fill="#010101" d="M27.586,38.586L25,41.172V31c0-1.104-0.896-2-2-2c-1.105,0-2,0.896-2,2v10.172l-2.586-2.586
		c-0.78-0.781-2.048-0.781-2.828,0c-0.781,0.781-0.781,2.047,0,2.828l6,6c0.001,0.001,0.002,0.001,0.003,0.002
		c0.092,0.092,0.193,0.174,0.302,0.247c0.051,0.034,0.106,0.058,0.159,0.086c0.061,0.034,0.12,0.071,0.185,0.098
		c0.066,0.027,0.135,0.043,0.203,0.063c0.057,0.017,0.112,0.038,0.171,0.05C22.738,47.986,22.869,48,23,48
		c0.131,0,0.262-0.014,0.392-0.04c0.059-0.012,0.114-0.034,0.171-0.05c0.068-0.02,0.137-0.036,0.203-0.063
		c0.065-0.027,0.124-0.064,0.185-0.098c0.053-0.029,0.109-0.052,0.159-0.086c0.108-0.073,0.21-0.155,0.302-0.247
		c0.001-0.001,0.002-0.002,0.003-0.002l6-6c0.781-0.781,0.781-2.047,0-2.828C29.634,37.805,28.366,37.805,27.586,38.586z"/>
	<path fill="#010101" d="M18.414,9.414L21,6.828V17c0,1.105,0.895,2,2,2c1.104,0,2-0.895,2-2V6.828l2.586,2.586
		C27.976,9.805,28.488,10,29,10c0.512,0,1.024-0.195,1.414-0.586c0.781-0.781,0.781-2.047,0-2.828l-6-6
		c-0.001-0.001-0.002-0.001-0.003-0.002c-0.092-0.092-0.193-0.174-0.302-0.247c-0.051-0.034-0.107-0.058-0.16-0.087
		c-0.061-0.033-0.12-0.07-0.184-0.097C23.7,0.126,23.632,0.11,23.564,0.091c-0.058-0.017-0.113-0.039-0.173-0.051
		c-0.121-0.024-0.244-0.036-0.367-0.037C23.016,0.002,23.008,0,23,0c-0.008,0-0.016,0.002-0.024,0.002
		c-0.123,0.002-0.246,0.013-0.367,0.037c-0.06,0.012-0.116,0.034-0.174,0.051c-0.067,0.02-0.135,0.035-0.2,0.062
		C22.17,0.18,22.111,0.217,22.05,0.251c-0.053,0.029-0.108,0.052-0.159,0.086c-0.108,0.072-0.21,0.155-0.302,0.247
		c-0.001,0.001-0.002,0.001-0.003,0.002l-6,6c-0.781,0.781-0.781,2.047,0,2.828C16.366,10.195,17.634,10.195,18.414,9.414z"/>
</g>
</svg>
