<?xml version="1.0" encoding="utf-8"?>
<!-- Generator: Adobe Illustrator 17.0.0, SVG Export Plug-In . SVG Version: 6.00 Build 0)  -->
<!DOCTYPE svg PUBLIC "-//W3C//DTD SVG 1.1//EN" "http://www.w3.org/Graphics/SVG/1.1/DTD/svg11.dtd">
<svg version="1.1" id="Layer_2" xmlns="http://www.w3.org/2000/svg" xmlns:xlink="http://www.w3.org/1999/xlink" x="0px" y="0px"
	 width="48px" height="48px" viewBox="0 0 48 48" enable-background="new 0 0 48 48" xml:space="preserve">
<g>
	<path fill="#010101" d="M19.414,15.586c-0.78-0.781-2.048-0.781-2.828,0c-0.781,0.781-0.781,2.047,0,2.828l13,13
		C29.976,31.805,30.488,32,31,32c0.512,0,1.024-0.195,1.414-0.586c0.781-0.781,0.781-2.047,0-2.828L19.414,15.586z"/>
	<path fill="#010101" d="M16.586,28.586L4,41.172V38c0-1.104-0.896-2-2-2c-1.105,0-2,0.896-2,2v8c0,0.131,0.014,0.262,0.039,0.392
		c0.012,0.059,0.034,0.114,0.051,0.171c0.02,0.068,0.036,0.137,0.063,0.203c0.027,0.066,0.065,0.126,0.099,0.188
		c0.028,0.052,0.051,0.106,0.085,0.156c0.073,0.109,0.156,0.212,0.249,0.305l0,0c0.001,0.001,0.002,0.001,0.003,0.002
		c0.092,0.092,0.193,0.174,0.302,0.247c0.051,0.034,0.106,0.058,0.159,0.086c0.061,0.034,0.12,0.071,0.185,0.098
		c0.066,0.027,0.135,0.043,0.203,0.063c0.057,0.017,0.112,0.038,0.171,0.05C1.738,47.986,1.869,48,2,48h8c1.104,0,2-0.895,2-2
		c0-1.104-0.896-2-2-2H6.828l12.586-12.586c0.781-0.781,0.781-2.047,0-2.828C18.634,27.805,17.366,27.805,16.586,28.586z"/>
	<path fill="#010101" d="M47.96,1.608c-0.012-0.059-0.034-0.114-0.051-0.171c-0.02-0.068-0.036-0.137-0.063-0.203
		c-0.028-0.066-0.065-0.126-0.099-0.188c-0.028-0.052-0.051-0.107-0.085-0.156c-0.073-0.109-0.156-0.212-0.249-0.305l0,0
		c-0.001-0.001-0.002-0.001-0.003-0.002c-0.092-0.092-0.193-0.174-0.302-0.247c-0.051-0.034-0.107-0.058-0.16-0.087
		c-0.061-0.033-0.12-0.07-0.184-0.097C46.7,0.126,46.632,0.11,46.564,0.091c-0.058-0.017-0.113-0.039-0.173-0.051
		c-0.121-0.024-0.244-0.036-0.367-0.037C46.016,0.002,46.008,0,46,0h-8c-1.105,0-2,0.896-2,2c0,1.105,0.895,2,2,2h3.172
		L29.586,15.586c-0.781,0.781-0.781,2.047,0,2.828C29.976,18.805,30.488,19,31,19c0.512,0,1.024-0.195,1.414-0.586L44,6.828V10
		c0,1.105,0.895,2,2,2c1.104,0,2-0.895,2-2V2C48,1.869,47.986,1.738,47.96,1.608z"/>
</g>
</svg>
