<?xml version="1.0" encoding="utf-8"?>
<!-- Generator: Adobe Illustrator 17.0.0, SVG Export Plug-In . SVG Version: 6.00 Build 0)  -->
<!DOCTYPE svg PUBLIC "-//W3C//DTD SVG 1.1//EN" "http://www.w3.org/Graphics/SVG/1.1/DTD/svg11.dtd">
<svg version="1.1" id="Layer_2" xmlns="http://www.w3.org/2000/svg" xmlns:xlink="http://www.w3.org/1999/xlink" x="0px" y="0px"
	 width="48px" height="48px" viewBox="0 0 48 48" enable-background="new 0 0 48 48" xml:space="preserve">
<g>
	<path fill="#010101" d="M31.414,15.586c-0.78-0.781-2.048-0.781-2.828,0l-13,13c-0.781,0.781-0.781,2.047,0,2.828
		C15.976,31.805,16.488,32,17,32s1.024-0.195,1.414-0.586l13-13C32.195,17.633,32.195,16.367,31.414,15.586z"/>
	<path fill="#010101" d="M46,36c-1.104,0-2,0.896-2,2v3.172L31.414,28.586c-0.78-0.781-2.048-0.781-2.828,0
		c-0.781,0.781-0.781,2.047,0,2.828L41.172,44H38c-1.104,0-2,0.896-2,2c0,1.105,0.896,2,2,2h8c0.131,0,0.262-0.014,0.392-0.04
		c0.059-0.012,0.114-0.034,0.171-0.05c0.068-0.02,0.137-0.036,0.203-0.063c0.065-0.027,0.124-0.064,0.185-0.098
		c0.053-0.029,0.109-0.052,0.159-0.086c0.108-0.073,0.21-0.155,0.302-0.247c0.001-0.001,0.002-0.002,0.003-0.002l0,0
		c0.093-0.093,0.176-0.195,0.249-0.305c0.033-0.05,0.056-0.104,0.085-0.156c0.034-0.062,0.072-0.122,0.099-0.188
		c0.027-0.066,0.043-0.135,0.063-0.203c0.017-0.057,0.039-0.112,0.051-0.171C47.986,46.262,48,46.131,48,46v-8
		C48,36.896,47.104,36,46,36z"/>
	<path fill="#010101" d="M17,19c0.512,0,1.024-0.195,1.414-0.586c0.781-0.781,0.781-2.047,0-2.828L6.828,4H10c1.104,0,2-0.895,2-2
		c0-1.104-0.896-2-2-2H2C1.992,0,1.984,0.002,1.976,0.002C1.853,0.004,1.73,0.016,1.609,0.04c-0.06,0.012-0.116,0.034-0.174,0.051
		C1.368,0.11,1.3,0.126,1.235,0.153C1.17,0.18,1.111,0.217,1.05,0.251C0.996,0.279,0.941,0.303,0.89,0.337
		c-0.108,0.072-0.21,0.155-0.302,0.247C0.588,0.585,0.587,0.585,0.586,0.586l0,0C0.493,0.679,0.41,0.781,0.337,0.891
		C0.303,0.94,0.281,0.995,0.252,1.047C0.218,1.109,0.18,1.169,0.153,1.235C0.126,1.301,0.11,1.37,0.09,1.438
		C0.073,1.495,0.051,1.549,0.039,1.608C0.014,1.738,0,1.869,0,2v8c0,1.105,0.895,2,2,2c1.104,0,2-0.895,2-2V6.828l11.586,11.586
		C15.976,18.805,16.488,19,17,19z"/>
</g>
</svg>
