<?xml version="1.0" encoding="utf-8"?>
<!-- Generator: Adobe Illustrator 17.0.0, SVG Export Plug-In . SVG Version: 6.00 Build 0)  -->
<!DOCTYPE svg PUBLIC "-//W3C//DTD SVG 1.1//EN" "http://www.w3.org/Graphics/SVG/1.1/DTD/svg11.dtd">
<svg version="1.1" id="Layer_2" xmlns="http://www.w3.org/2000/svg" xmlns:xlink="http://www.w3.org/1999/xlink" x="0px" y="0px"
	 width="48px" height="48px" viewBox="0 0 48 48" enable-background="new 0 0 48 48" xml:space="preserve">
<g>
	<path fill="#010101" d="M47.783,19.095C47.442,18.423,46.753,18,46,18H21c-0.638,0-1.238,0.305-1.615,0.82l-0.164,0.225
		C19.148,19.027,19.078,19,19,19h-2c-0.552,0-1,0.448-1,1c0,0.552,0.448,1,1,1h0.792L0.385,44.82
		c-0.444,0.607-0.509,1.414-0.168,2.085C0.558,47.577,1.247,48,2,48h25c0.638,0,1.238-0.305,1.615-0.82l19-26
		C48.059,20.572,48.124,19.766,47.783,19.095z M25.984,44H5.938l16.077-22H26c0,0.552,0.448,1,1,1c0.552,0,1-0.448,1-1h14.061
		L25.984,44z"/>
	<path fill="#010101" d="M11,11h21.73l-2.267,2.72c-0.707,0.849-0.592,2.109,0.256,2.816C31.094,16.848,31.547,17,31.999,17
		c0.573,0,1.142-0.245,1.538-0.72l5-6c0.022-0.027,0.038-0.058,0.058-0.085c0.037-0.049,0.072-0.1,0.105-0.153
		c0.035-0.058,0.067-0.116,0.096-0.176c0.026-0.053,0.049-0.106,0.07-0.161c0.025-0.066,0.045-0.133,0.062-0.201
		c0.014-0.054,0.028-0.107,0.038-0.163c0.013-0.077,0.019-0.154,0.023-0.232C38.991,9.073,39,9.038,39,9
		c0-0.015-0.004-0.028-0.004-0.042c-0.002-0.083-0.013-0.164-0.025-0.246c-0.007-0.046-0.009-0.093-0.019-0.139
		c-0.018-0.082-0.047-0.162-0.075-0.241c-0.014-0.04-0.023-0.081-0.039-0.12c-0.043-0.099-0.097-0.194-0.156-0.287
		c-0.009-0.014-0.015-0.03-0.024-0.044c-0.068-0.1-0.146-0.195-0.234-0.284c-0.003-0.003-0.006-0.008-0.009-0.011l0,0l-5-5
		c-0.78-0.781-2.048-0.781-2.828,0c-0.781,0.781-0.781,2.047,0,2.828L32.172,7H11C9.895,7,9,7.896,9,9C9,10.105,9.895,11,11,11z"/>
	<path fill="#010101" d="M2,23c0.552,0,1-0.448,1-1v-1h1c0.552,0,1-0.448,1-1c0-0.552-0.448-1-1-1H2c-0.552,0-1,0.448-1,1v2
		C1,22.552,1.448,23,2,23z"/>
	<path fill="#010101" d="M27,27c-0.552,0-1,0.448-1,1v2c0,0.552,0.448,1,1,1c0.552,0,1-0.448,1-1v-2C28,27.448,27.552,27,27,27z"/>
	<path fill="#010101" d="M27,35c-0.552,0-1,0.448-1,1v2c0,0.552,0.448,1,1,1c0.552,0,1-0.448,1-1v-2C28,35.448,27.552,35,27,35z"/>
	<path fill="#010101" d="M2,31c0.552,0,1-0.448,1-1v-2c0-0.552-0.448-1-1-1c-0.552,0-1,0.448-1,1v2C1,30.552,1.448,31,2,31z"/>
	<path fill="#010101" d="M2,39c0.552,0,1-0.448,1-1v-2c0-0.552-0.448-1-1-1c-0.552,0-1,0.448-1,1v2C1,38.552,1.448,39,2,39z"/>
	<path fill="#010101" d="M10,21h2c0.552,0,1-0.448,1-1c0-0.552-0.448-1-1-1h-2c-0.552,0-1,0.448-1,1C9,20.552,9.448,21,10,21z"/>
</g>
</svg>
