<?xml version="1.0" encoding="utf-8"?>
<!-- Generator: Adobe Illustrator 17.0.0, SVG Export Plug-In . SVG Version: 6.00 Build 0)  -->
<!DOCTYPE svg PUBLIC "-//W3C//DTD SVG 1.1//EN" "http://www.w3.org/Graphics/SVG/1.1/DTD/svg11.dtd">
<svg version="1.1" id="Layer_2" xmlns="http://www.w3.org/2000/svg" xmlns:xlink="http://www.w3.org/1999/xlink" x="0px" y="0px"
	 width="48px" height="48px" viewBox="0 0 48 48" enable-background="new 0 0 48 48" xml:space="preserve">
<g>
	<path fill="#010101" d="M21,24H7c-0.552,0-1,0.448-1,1v22c0,0.552,0.448,1,1,1h14c0.552,0,1-0.448,1-1V25
		C22,24.448,21.552,24,21,24z"/>
	<path fill="#010101" d="M9,23h10c0.007,0,0.013,0,0.02,0c0.552,0,1-0.448,1-1c0-0.27-0.108-0.517-0.283-0.696l-1.905-2.858
		C17.646,18.167,17.334,18,17,18h-6c-0.335,0-0.647,0.167-0.832,0.445l-2,3c-0.205,0.307-0.224,0.701-0.05,1.026
		C8.292,22.797,8.631,23,9,23z"/>
	<path fill="#010101" d="M12,14h1v2c0,0.552,0.448,1,1,1c0.552,0,1-0.448,1-1v-2h1c0.552,0,1-0.448,1-1V9c0-0.552-0.448-1-1-1h-4
		c-0.552,0-1,0.448-1,1v4C11,13.552,11.448,14,12,14z"/>
	<path fill="#010101" d="M31,10h-6c-0.552,0-1,0.448-1,1c0,0.552,0.448,1,1,1h6c0.552,0,1-0.448,1-1C32,10.448,31.552,10,31,10z"/>
	<path fill="#010101" d="M30.316,16.051l-6-2c-0.525-0.175-1.091,0.109-1.265,0.632c-0.175,0.524,0.108,1.09,0.632,1.265l6,2
		C29.789,17.983,29.895,18,30,18c0.419,0,0.809-0.265,0.949-0.684C31.123,16.792,30.84,16.226,30.316,16.051z"/>
	<path fill="#010101" d="M24,8c0.104,0,0.211-0.017,0.316-0.051l6-2c0.524-0.175,0.807-0.741,0.632-1.265
		c-0.175-0.523-0.74-0.808-1.265-0.632l-6,2c-0.524,0.175-0.807,0.741-0.632,1.265C23.191,7.735,23.581,8,24,8z"/>
	<path fill="#010101" d="M44,11c0-2.659-1.516-4.85-3.861-5.715c0.085-1.142-0.242-2.272-0.946-3.208C38.214,0.776,36.646,0,35,0
		c-0.552,0-1,0.448-1,1c0,0.552,0.448,1,1,1c1.021,0,1.992,0.479,2.595,1.28c0.536,0.711,0.693,1.579,0.444,2.443
		C37.962,5.992,38,6.28,38.145,6.52c0.145,0.239,0.384,0.406,0.658,0.461C40.715,7.364,42,8.98,42,11
		c0,2.165-1.21,3.703-3.157,4.013c-0.31,0.049-0.579,0.241-0.726,0.518c-0.147,0.277-0.156,0.607-0.023,0.892
		c0.355,0.762,0.329,1.5-0.076,2.136C37.46,19.435,36.275,20,35,20c-0.552,0-1,0.448-1,1c0,0.552,0.448,1,1,1
		c1.972,0,3.774-0.907,4.704-2.367c0.571-0.896,0.763-1.91,0.568-2.935C42.542,15.866,44,13.7,44,11z"/>
</g>
</svg>
