<?xml version="1.0" encoding="utf-8"?>
<!-- Generator: Adobe Illustrator 17.0.0, SVG Export Plug-In . SVG Version: 6.00 Build 0)  -->
<!DOCTYPE svg PUBLIC "-//W3C//DTD SVG 1.1//EN" "http://www.w3.org/Graphics/SVG/1.1/DTD/svg11.dtd">
<svg version="1.1" id="Layer_2" xmlns="http://www.w3.org/2000/svg" xmlns:xlink="http://www.w3.org/1999/xlink" x="0px" y="0px"
	 width="48px" height="48px" viewBox="0 0 48 48" enable-background="new 0 0 48 48" xml:space="preserve">
<path fill="#010101" d="M43,31.966h-9.692c-6.569-4.572-3.55-11.233-1.119-16.599C33.201,13.135,34,11.371,34,9.967
	c0-6.522-5.032-9.933-10.003-9.933C19.029,0.033,14,3.445,14,9.967c0,1.411,0.803,3.178,1.82,5.415
	c2.434,5.354,5.456,12.003-1.127,16.585H5c-2.757,0-5,2.243-5,5v6c0,0.552,0.448,1,1,1h1v3c0,0.552,0.448,1,1,1h42
	c0.552,0,1-0.448,1-1v-3h1c0.552,0,1-0.448,1-1v-6C48,34.21,45.757,31.966,43,31.966z M44,45.966H4v-2h40V45.966z"/>
</svg>
