<?xml version="1.0" encoding="utf-8"?>
<!-- Generator: Adobe Illustrator 17.0.0, SVG Export Plug-In . SVG Version: 6.00 Build 0)  -->
<!DOCTYPE svg PUBLIC "-//W3C//DTD SVG 1.1//EN" "http://www.w3.org/Graphics/SVG/1.1/DTD/svg11.dtd">
<svg version="1.1" id="Layer_2" xmlns="http://www.w3.org/2000/svg" xmlns:xlink="http://www.w3.org/1999/xlink" x="0px" y="0px"
	 width="48px" height="48px" viewBox="0 0 48 48" enable-background="new 0 0 48 48" xml:space="preserve">
<g>
	<path fill="#010101" d="M31,0H7C3.14,0,0,3.14,0,7v26c0,0.552,0.448,1,1,1h5v13c0,0.552,0.448,1,1,1h24c0.552,0,1-0.448,1-1V13.92
		c3.387-0.487,6-3.4,6-6.92C38,3.14,34.86,0,31,0z M6,9v4v19H2V7c0-2.757,2.243-5,5-5c2.757,0,5,2.243,5,5
		c0,0.342-0.035,0.677-0.101,1H7C6.448,8,6,8.448,6,9z M9.197,11.469c-0.096,0.047-0.185,0.106-0.284,0.147
		c-0.27,0.112-0.553,0.199-0.845,0.263c-0.022,0.005-0.042,0.015-0.065,0.019c-0.001,0-0.003,0-0.004,0V10h2.974
		c-0.078,0.104-0.161,0.202-0.247,0.299c-0.087,0.099-0.17,0.202-0.265,0.293c-0.134,0.129-0.282,0.241-0.429,0.354
		c-0.099,0.076-0.191,0.16-0.295,0.228C9.567,11.288,9.382,11.378,9.197,11.469z M16.707,25.707l-4,4C12.512,29.902,12.256,30,12,30
		c-0.256,0-0.512-0.098-0.707-0.293l-1-1c-0.391-0.391-0.391-1.023,0-1.414c0.391-0.391,1.023-0.391,1.414,0L12,27.586l3.293-3.293
		c0.391-0.391,1.023-0.391,1.414,0C17.098,24.684,17.098,25.316,16.707,25.707z M16.707,17.707l-4,4C12.512,21.902,12.256,22,12,22
		c-0.256,0-0.512-0.098-0.707-0.293l-1-1c-0.391-0.391-0.391-1.023,0-1.414c0.391-0.391,1.023-0.391,1.414,0L12,19.586l3.293-3.293
		c0.391-0.391,1.023-0.391,1.414,0C17.098,16.684,17.098,17.316,16.707,17.707z M27,38h-8c-0.552,0-1-0.448-1-1c0-0.552,0.448-1,1-1
		h8c0.552,0,1,0.448,1,1C28,37.552,27.552,38,27,38z M27,30h-8c-0.552,0-1-0.448-1-1c0-0.552,0.448-1,1-1h8c0.552,0,1,0.448,1,1
		C28,29.552,27.552,30,27,30z M27,22h-8c-0.552,0-1-0.448-1-1c0-0.552,0.448-1,1-1h8c0.552,0,1,0.448,1,1C28,21.552,27.552,22,27,22
		z"/>
	<rect x="40" y="30" fill="#010101" width="8" height="12"/>
	<path fill="#010101" d="M44,11c-1.474,0-2.75,0.81-3.444,2H40c-2.206,0-4,1.794-4,4v15c0,0.552,0.448,1,1,1c0.552,0,1-0.448,1-1V17
		c0-1.102,0.897-2,2-2v13h8V15C48,12.794,46.206,11,44,11z"/>
	<path fill="#010101" d="M44,48c2.206,0,4-1.794,4-4h-8C40,46.206,41.794,48,44,48z"/>
</g>
</svg>
