<?xml version="1.0" encoding="utf-8"?>
<!-- Generator: Adobe Illustrator 17.0.0, SVG Export Plug-In . SVG Version: 6.00 Build 0)  -->
<!DOCTYPE svg PUBLIC "-//W3C//DTD SVG 1.1//EN" "http://www.w3.org/Graphics/SVG/1.1/DTD/svg11.dtd">
<svg version="1.1" id="Layer_2" xmlns="http://www.w3.org/2000/svg" xmlns:xlink="http://www.w3.org/1999/xlink" x="0px" y="0px"
	 width="48px" height="48px" viewBox="0 0 48 48" enable-background="new 0 0 48 48" xml:space="preserve">
<g>
	<rect x="11" y="38" fill="#010101" width="10" height="2"/>
	<rect x="17" y="17" fill="#010101" width="4" height="19"/>
	<path fill="#010101" d="M16.914,6.594C16.753,6.232,16.395,6,16,6s-0.753,0.232-0.914,0.594L11.35,15h9.299L16.914,6.594z"/>
	<path fill="#010101" d="M11,43c0,2.757,2.243,5,5,5c2.757,0,5-2.243,5-5v-1H11V43z"/>
	<rect x="11" y="17" fill="#010101" width="4" height="19"/>
	<path fill="#010101" d="M38,0H26c-0.552,0-1,0.448-1,1v5h5c0.552,0,1,0.448,1,1c0,0.552-0.448,1-1,1h-5v6h5c0.552,0,1,0.448,1,1
		c0,0.552-0.448,1-1,1h-5v6h5c0.552,0,1,0.448,1,1c0,0.552-0.448,1-1,1h-5v6h5c0.552,0,1,0.448,1,1c0,0.552-0.448,1-1,1h-5v6h5
		c0.552,0,1,0.448,1,1c0,0.552-0.448,1-1,1h-5v7c0,0.552,0.448,1,1,1h12c0.552,0,1-0.448,1-1V1C39,0.448,38.552,0,38,0z"/>
</g>
</svg>
