<?xml version="1.0" encoding="utf-8"?>
<!-- Generator: Adobe Illustrator 17.1.0, SVG Export Plug-In . SVG Version: 6.00 Build 0)  -->
<!DOCTYPE svg PUBLIC "-//W3C//DTD SVG 1.0//EN" "http://www.w3.org/TR/2001/REC-SVG-20010904/DTD/svg10.dtd">
<svg version="1.0" id="Layer_1" xmlns="http://www.w3.org/2000/svg" xmlns:xlink="http://www.w3.org/1999/xlink" x="0px" y="0px"
	 width="48px" height="48px" viewBox="0 0 48 48" enable-background="new 0 0 48 48" xml:space="preserve">
<path d="M42,12v2h-7c-4.464,0-8.835,1.474-12.471,4.156c-0.035-0.066-0.069-0.134-0.108-0.198l8.691-8.891
	C31.929,9.649,32.922,10,34,10c2.757,0,5-2.243,5-5s-2.243-5-5-5c-2.757,0-5,2.243-5,5c0,0.955,0.283,1.839,0.749,2.599
	l-8.754,8.955C20.406,16.211,19.73,16,19,16c-2.206,0-4,1.794-4,4c0,0.766,0.227,1.476,0.602,2.084l-7.665,7.889
	C7.11,29.369,6.101,29,5,29c-2.757,0-5,2.243-5,5s2.243,5,5,5c2.757,0,5-2.243,5-5c0-0.931-0.273-1.793-0.718-2.541l7.764-7.99
	c0.103,0.058,0.203,0.12,0.312,0.17C15.188,27.046,14,31.025,14,35v7h-2v6h6v-6h-2v-7c0-3.901,1.271-7.806,3.568-11.058
	c1.82-0.262,3.234-1.744,3.397-3.594C26.398,17.549,30.652,16,35,16h7v2h6v-6H42z"/>
</svg>
