<?xml version="1.0" encoding="utf-8"?>
<!-- Generator: Adobe Illustrator 17.0.0, SVG Export Plug-In . SVG Version: 6.00 Build 0)  -->
<!DOCTYPE svg PUBLIC "-//W3C//DTD SVG 1.1//EN" "http://www.w3.org/Graphics/SVG/1.1/DTD/svg11.dtd">
<svg version="1.1" id="Layer_1" xmlns="http://www.w3.org/2000/svg" xmlns:xlink="http://www.w3.org/1999/xlink" x="0px" y="0px"
	 width="48px" height="48px" viewBox="0 0 48 48" enable-background="new 0 0 48 48" xml:space="preserve">
<g>
	<path fill="#010101" d="M47,14H28v-1c0-2.757-2.243-5-5-5s-5,2.243-5,5v2v3h-8c-0.363,0-0.698,0.197-0.874,0.514l-4.932,8.878
		l-3.901,3.901C0.105,31.481,0,31.735,0,32v11c0,0.552,0.448,1,1,1h4.101c0.465,2.279,2.484,4,4.899,4s4.434-1.721,4.899-4h18.202
		c0.465,2.279,2.484,4,4.899,4s4.434-1.721,4.899-4H47c0.552,0,1-0.448,1-1V15C48,14.448,47.552,14,47,14z M46,38H20V19v-3h7h19V38z
		 M33.101,42H14.899c-0.152-0.743-0.482-1.416-0.924-2h20.051C33.583,40.584,33.253,41.257,33.101,42z M20,13c0-1.654,1.346-3,3-3
		s3,1.346,3,3v1h-6V13z M5.707,28.707c0.066-0.065,0.122-0.14,0.167-0.221L10.588,20H18v18H2v-5.586L5.707,28.707z M2,40h4.025
		c-0.442,0.584-0.773,1.257-0.924,2H2V40z M10,46c-1.654,0-3-1.346-3-3s1.346-3,3-3s3,1.346,3,3S11.654,46,10,46z M38,46
		c-1.654,0-3-1.346-3-3s1.346-3,3-3s3,1.346,3,3S39.654,46,38,46z M42.899,42c-0.152-0.743-0.482-1.416-0.924-2H46v2H42.899z"/>
	<path fill="#010101" d="M8.553,29.895C8.696,29.966,8.849,30,8.999,30c0.367,0,0.72-0.202,0.895-0.553L12.618,24H15
		c0.552,0,1-0.448,1-1s-0.448-1-1-1h-3c-0.379,0-0.725,0.214-0.894,0.553l-3,6C7.859,29.047,8.059,29.648,8.553,29.895z"/>
	<path fill="#010101" d="M26,25v4c0,0.552,0.448,1,1,1h3v3c0,0.552,0.448,1,1,1h4c0.552,0,1-0.448,1-1v-3h3c0.552,0,1-0.448,1-1v-4
		c0-0.552-0.448-1-1-1h-3v-3c0-0.552-0.448-1-1-1h-4c-0.552,0-1,0.448-1,1v3h-3C26.448,24,26,24.448,26,25z M28,26h3
		c0.552,0,1-0.448,1-1v-3h2v3c0,0.552,0.448,1,1,1h3v2h-3c-0.552,0-1,0.448-1,1v3h-2v-3c0-0.552-0.448-1-1-1h-3V26z"/>
</g>
</svg>
