<?xml version="1.0" encoding="utf-8"?>
<!-- Generator: Adobe Illustrator 17.0.0, SVG Export Plug-In . SVG Version: 6.00 Build 0)  -->
<!DOCTYPE svg PUBLIC "-//W3C//DTD SVG 1.1//EN" "http://www.w3.org/Graphics/SVG/1.1/DTD/svg11.dtd">
<svg version="1.1" id="Layer_1" xmlns="http://www.w3.org/2000/svg" xmlns:xlink="http://www.w3.org/1999/xlink" x="0px" y="0px"
	 width="48px" height="48px" viewBox="0 0 48 48" enable-background="new 0 0 48 48" xml:space="preserve">
<g>
	<path fill="#010101" d="M37,0h-4H17h-4c-0.553,0-1,0.448-1,1s0.447,1,1,1h3v37c0,4.962,4.037,9,9,9s9-4.038,9-9V2h3
		c0.553,0,1-0.448,1-1S37.553,0,37,0z M32,39c0,3.86-3.141,7-7,7s-7-3.14-7-7v-9h3c0.553,0,1-0.448,1-1s-0.447-1-1-1h-3v-4h5
		c0.553,0,1-0.448,1-1s-0.447-1-1-1h-5v-4h3c0.553,0,1-0.448,1-1s-0.447-1-1-1h-3v-4h5c0.553,0,1-0.448,1-1s-0.447-1-1-1h-5V2h14V39
		z"/>
	<path fill="#010101" d="M25,44c2.757,0,5-2.243,5-5c0-0.552-0.447-1-1-1s-1,0.448-1,1c0,1.654-1.346,3-3,3c-0.553,0-1,0.448-1,1
		S24.447,44,25,44z"/>
</g>
</svg>
