<?xml version="1.0" encoding="utf-8"?>
<!-- Generator: Adobe Illustrator 17.0.0, SVG Export Plug-In . SVG Version: 6.00 Build 0)  -->
<!DOCTYPE svg PUBLIC "-//W3C//DTD SVG 1.1//EN" "http://www.w3.org/Graphics/SVG/1.1/DTD/svg11.dtd">
<svg version="1.1" id="Layer_1" xmlns="http://www.w3.org/2000/svg" xmlns:xlink="http://www.w3.org/1999/xlink" x="0px" y="0px"
	 width="48px" height="48px" viewBox="0 0 48 48" enable-background="new 0 0 48 48" xml:space="preserve">
<g>
	<path fill="#010101" d="M24.834,0.449c-0.369-0.56-1.299-0.56-1.668,0C22.546,1.387,8,23.512,8,32c0,8.822,7.178,16,16,16
		s16-7.178,16-16C40,23.512,25.454,1.387,24.834,0.449z M24,46c-7.72,0-14-6.28-14-14c0-6.789,10.867-24.264,14-29.159
		C27.133,7.736,38,25.21,38,32C38,39.72,31.72,46,24,46z"/>
	<path fill="#010101" d="M20.555,18.115c-0.49-0.257-1.093-0.068-1.35,0.42C15.751,25.106,14,29.636,14,32
		c0,2.844,1.217,5.562,3.337,7.459c0.191,0.17,0.43,0.254,0.667,0.254c0.274,0,0.548-0.113,0.745-0.334
		c0.368-0.412,0.333-1.044-0.078-1.412C16.974,36.45,16,34.275,16,32c0-1.979,1.767-6.431,4.975-12.534
		C21.233,18.977,21.044,18.372,20.555,18.115z"/>
</g>
</svg>
