<?xml version="1.0" encoding="utf-8"?>
<!-- Generator: Adobe Illustrator 17.0.0, SVG Export Plug-In . SVG Version: 6.00 Build 0)  -->
<!DOCTYPE svg PUBLIC "-//W3C//DTD SVG 1.1//EN" "http://www.w3.org/Graphics/SVG/1.1/DTD/svg11.dtd">
<svg version="1.1" id="Layer_1" xmlns="http://www.w3.org/2000/svg" xmlns:xlink="http://www.w3.org/1999/xlink" x="0px" y="0px"
	 width="48px" height="48px" viewBox="0 0 48 48" enable-background="new 0 0 48 48" xml:space="preserve">
<g>
	<path fill="#010101" d="M33,26h-5v-5c0-0.552-0.448-1-1-1h-6c-0.552,0-1,0.448-1,1v5h-5c-0.552,0-1,0.448-1,1v6
		c0,0.552,0.448,1,1,1h5v5c0,0.552,0.448,1,1,1h6c0.552,0,1-0.448,1-1v-5h5c0.552,0,1-0.448,1-1v-6C34,26.448,33.552,26,33,26z
		 M32,32h-5c-0.552,0-1,0.448-1,1v5h-4v-5c0-0.552-0.448-1-1-1h-5v-4h5c0.552,0,1-0.448,1-1v-5h4v5c0,0.552,0.448,1,1,1h5V32z"/>
	<path fill="#010101" d="M43,12H32v-2c0-2.206-1.794-4-4-4h-8c-2.206,0-4,1.794-4,4v2H5c-2.757,0-5,2.243-5,5v24
		c0,2.757,2.243,5,5,5h38c2.757,0,5-2.243,5-5V17C48,14.243,45.757,12,43,12z M18,10c0-1.103,0.897-2,2-2h8c1.103,0,2,0.897,2,2v2
		H18V10z M46,41c0,1.654-1.346,3-3,3H5c-1.654,0-3-1.346-3-3V17c0-1.654,1.346-3,3-3h38c1.654,0,3,1.346,3,3V41z"/>
</g>
</svg>
