<?xml version="1.0" encoding="utf-8"?>
<!-- Generator: Adobe Illustrator 17.0.0, SVG Export Plug-In . SVG Version: 6.00 Build 0)  -->
<!DOCTYPE svg PUBLIC "-//W3C//DTD SVG 1.1//EN" "http://www.w3.org/Graphics/SVG/1.1/DTD/svg11.dtd">
<svg version="1.1" id="Layer_1" xmlns="http://www.w3.org/2000/svg" xmlns:xlink="http://www.w3.org/1999/xlink" x="0px" y="0px"
	 width="48px" height="48px" viewBox="0 0 48 48" enable-background="new 0 0 48 48" xml:space="preserve">
<g>
	<path fill="#010101" d="M47,28H32c-0.375,0-0.718,0.21-0.89,0.543l-1.844,3.593l-3.305-11.567
		c-0.114-0.397-0.459-0.683-0.869-0.721c-0.416-0.041-0.802,0.179-0.987,0.548l-4.229,8.459l-3.044-4.565
		c-0.181-0.273-0.485-0.439-0.813-0.445c-0.34-0.008-0.638,0.149-0.829,0.415L12.489,28H1c-0.552,0-1,0.448-1,1s0.448,1,1,1h12
		c0.321,0,0.623-0.154,0.81-0.413l2.157-2.986l3.201,4.8c0.197,0.296,0.54,0.466,0.894,0.443c0.356-0.022,0.672-0.232,0.832-0.551
		l3.85-7.701l3.294,11.529c0.113,0.394,0.455,0.68,0.864,0.72c0.033,0.004,0.065,0.005,0.098,0.005c0.373,0,0.717-0.208,0.89-0.544
		L32.611,30H47c0.552,0,1-0.448,1-1S47.552,28,47,28z"/>
	<path fill="#010101" d="M4.823,25.845c0.126,0,0.254-0.024,0.378-0.075c0.511-0.209,0.756-0.793,0.547-1.304
		C4.588,21.631,4,18.841,4,16.177C4,8.229,8.424,4.333,12.809,3.998c4.261-0.329,9.074,2.628,10.203,9.964
		C23.087,14.45,23.506,14.81,24,14.81s0.913-0.36,0.989-0.849C26.133,6.524,31.081,3.537,35.471,3.87
		C39.716,4.195,44,7.761,44,14.993c0,2.895-0.806,6.066-2.395,9.423c-0.236,0.499-0.023,1.096,0.476,1.332
		c0.499,0.237,1.096,0.023,1.332-0.476C45.129,21.644,46,18.186,46,14.993c0-5.935-3.247-12.571-10.377-13.117
		C31.316,1.553,26.288,3.974,24,9.883c-2.252-5.81-7.141-8.203-11.344-7.879C7.352,2.409,2,6.949,2,16.177
		c0,2.926,0.638,5.969,1.897,9.046C4.055,25.61,4.429,25.845,4.823,25.845z"/>
	<path fill="#010101" d="M36.756,32.241c-4.938,6.513-10.949,11.632-12.8,13.144c-2.001-1.418-8.634-6.375-13.695-13.139
		c-0.33-0.443-0.957-0.533-1.4-0.202s-0.533,0.958-0.202,1.4c6.206,8.293,14.441,13.792,14.789,14.022
		c0.168,0.111,0.36,0.166,0.552,0.166c0.217,0,0.433-0.07,0.613-0.209c0.311-0.241,7.688-5.994,13.737-13.974
		c0.333-0.44,0.248-1.068-0.193-1.401C37.717,31.715,37.09,31.801,36.756,32.241z"/>
</g>
</svg>
