<?xml version="1.0" encoding="utf-8"?>
<!-- Generator: Adobe Illustrator 17.0.0, SVG Export Plug-In . SVG Version: 6.00 Build 0)  -->
<!DOCTYPE svg PUBLIC "-//W3C//DTD SVG 1.1//EN" "http://www.w3.org/Graphics/SVG/1.1/DTD/svg11.dtd">
<svg version="1.1" id="Layer_1" xmlns="http://www.w3.org/2000/svg" xmlns:xlink="http://www.w3.org/1999/xlink" x="0px" y="0px"
	 width="48px" height="48px" viewBox="0 0 48 48" enable-background="new 0 0 48 48" xml:space="preserve">
<g>
	<path fill="#010101" d="M35,12h-8c-0.553,0-1,0.448-1,1v7h-4v-7c0-0.552-0.447-1-1-1h-8c-0.553,0-1,0.448-1,1v22
		c0,0.552,0.447,1,1,1h8c0.553,0,1-0.448,1-1v-7h4v7c0,0.552,0.447,1,1,1h8c0.553,0,1-0.448,1-1V13C36,12.448,35.553,12,35,12z
		 M34,34h-6v-7c0-0.552-0.447-1-1-1h-6c-0.553,0-1,0.448-1,1v7h-6V14h6v7c0,0.552,0.447,1,1,1h6c0.553,0,1-0.448,1-1v-7h6V34z"/>
	<path fill="#010101" d="M24,0C10.767,0,0,10.767,0,24s10.767,24,24,24c13.233,0,24-10.767,24-24S37.233,0,24,0z M24,46
		C11.869,46,2,36.131,2,24S11.869,2,24,2s22,9.869,22,22S36.131,46,24,46z"/>
</g>
</svg>
