<?xml version="1.0" encoding="utf-8"?>
<!-- Generator: Adobe Illustrator 17.0.0, SVG Export Plug-In . SVG Version: 6.00 Build 0)  -->
<!DOCTYPE svg PUBLIC "-//W3C//DTD SVG 1.1//EN" "http://www.w3.org/Graphics/SVG/1.1/DTD/svg11.dtd">
<svg version="1.1" id="Layer_1" xmlns="http://www.w3.org/2000/svg" xmlns:xlink="http://www.w3.org/1999/xlink" x="0px" y="0px"
	 width="48px" height="48px" viewBox="0 0 48 48" enable-background="new 0 0 48 48" xml:space="preserve">
<g>
	<path fill="#010101" d="M45,30H30v-7c0-1.654-1.346-3-3-3H16v-2.059c4.494-0.5,8-4.317,8-8.941c0-4.962-4.037-9-9-9S6,4.038,6,9
		c0,4.624,3.506,8.441,8,8.941V20H3c-1.654,0-3,1.346-3,3v24c0,0.552,0.447,1,1,1h29h6h11c0.553,0,1-0.448,1-1V33
		C48,31.346,46.654,30,45,30z M8,9c0-3.86,3.141-7,7-7s7,3.14,7,7s-3.141,7-7,7S8,12.86,8,9z M46,33v13h-9v-3c0-0.552-0.447-1-1-1
		h-6c-0.553,0-1,0.448-1,1v3h-9V33c0-0.551,0.448-1,1-1h24C45.552,32,46,32.449,46,33z M3,22h24c0.552,0,1,0.449,1,1v7h-7
		c-1.302,0-2.401,0.839-2.816,2H7c-0.553,0-1,0.448-1,1s0.447,1,1,1h11v4H7c-0.553,0-1,0.448-1,1s0.447,1,1,1h11v6H2V23
		C2,22.449,2.448,22,3,22z M31,46v-2h4v2H31z"/>
	<path fill="#010101" d="M7,28h16c0.553,0,1-0.448,1-1s-0.447-1-1-1H7c-0.553,0-1,0.448-1,1S6.447,28,7,28z"/>
	<path fill="#010101" d="M16,13v-3h3c0.553,0,1-0.448,1-1s-0.447-1-1-1h-3V5c0-0.552-0.447-1-1-1s-1,0.448-1,1v3h-3
		c-0.553,0-1,0.448-1,1s0.447,1,1,1h3v3c0,0.552,0.447,1,1,1S16,13.552,16,13z"/>
	<path fill="#010101" d="M25,38h-2c-0.553,0-1,0.448-1,1s0.447,1,1,1h2c0.553,0,1-0.448,1-1S25.553,38,25,38z"/>
	<path fill="#010101" d="M25,34h-2c-0.553,0-1,0.448-1,1s0.447,1,1,1h2c0.553,0,1-0.448,1-1S25.553,34,25,34z"/>
	<path fill="#010101" d="M31,38h-2c-0.553,0-1,0.448-1,1s0.447,1,1,1h2c0.553,0,1-0.448,1-1S31.553,38,31,38z"/>
	<path fill="#010101" d="M28,35c0,0.552,0.447,1,1,1h2c0.553,0,1-0.448,1-1s-0.447-1-1-1h-2C28.447,34,28,34.448,28,35z"/>
	<path fill="#010101" d="M35,40h2c0.553,0,1-0.448,1-1s-0.447-1-1-1h-2c-0.553,0-1,0.448-1,1S34.447,40,35,40z"/>
	<path fill="#010101" d="M35,36h2c0.553,0,1-0.448,1-1s-0.447-1-1-1h-2c-0.553,0-1,0.448-1,1S34.447,36,35,36z"/>
	<path fill="#010101" d="M41,40h2c0.553,0,1-0.448,1-1s-0.447-1-1-1h-2c-0.553,0-1,0.448-1,1S40.447,40,41,40z"/>
	<path fill="#010101" d="M41,36h2c0.553,0,1-0.448,1-1s-0.447-1-1-1h-2c-0.553,0-1,0.448-1,1S40.447,36,41,36z"/>
</g>
</svg>
