<?xml version="1.0" encoding="utf-8"?>
<!-- Generator: Adobe Illustrator 17.0.0, SVG Export Plug-In . SVG Version: 6.00 Build 0)  -->
<!DOCTYPE svg PUBLIC "-//W3C//DTD SVG 1.1//EN" "http://www.w3.org/Graphics/SVG/1.1/DTD/svg11.dtd">
<svg version="1.1" id="Layer_1" xmlns="http://www.w3.org/2000/svg" xmlns:xlink="http://www.w3.org/1999/xlink" x="0px" y="0px"
	 width="48px" height="48px" viewBox="0 0 48 48" enable-background="new 0 0 48 48" xml:space="preserve">
<g>
	<path fill="#010101" d="M47,0H1C0.447,0,0,0.448,0,1v46c0,0.552,0.447,1,1,1h46c0.553,0,1-0.448,1-1V1C48,0.448,47.553,0,47,0z
		 M46,46H2V2h44V46z"/>
	<path fill="#010101" d="M9,40h10c0.553,0,1-0.448,1-1v-9h8v9c0,0.552,0.447,1,1,1h10c0.553,0,1-0.448,1-1V9c0-0.552-0.447-1-1-1H29
		c-0.553,0-1,0.448-1,1v9h-8V9c0-0.552-0.447-1-1-1H9C8.447,8,8,8.448,8,9v30C8,39.552,8.447,40,9,40z M10,10h8v9
		c0,0.552,0.447,1,1,1h10c0.553,0,1-0.448,1-1v-9h8v28h-8v-9c0-0.552-0.447-1-1-1H19c-0.553,0-1,0.448-1,1v9h-8V10z"/>
</g>
</svg>
