<?xml version="1.0" encoding="utf-8"?>
<!-- Generator: Adobe Illustrator 17.0.0, SVG Export Plug-In . SVG Version: 6.00 Build 0)  -->
<!DOCTYPE svg PUBLIC "-//W3C//DTD SVG 1.1//EN" "http://www.w3.org/Graphics/SVG/1.1/DTD/svg11.dtd">
<svg version="1.1" id="Layer_1" xmlns="http://www.w3.org/2000/svg" xmlns:xlink="http://www.w3.org/1999/xlink" x="0px" y="0px"
	 width="48px" height="48px" viewBox="0 0 48 48" enable-background="new 0 0 48 48" xml:space="preserve">
<g>
	<path fill="#010101" d="M45,18H3c-1.654,0-3,1.346-3,3s1.346,3,3,3h1.024c0.361,7.43,4.702,14.425,10.854,17.747
		C11.684,43.044,9,45.016,9,47c0,0.552,0.447,1,1,1h28c0.007,0,0.015,0.001,0.019,0c0.553,0,1-0.448,1.001-1
		c0-0.092-0.012-0.182-0.035-0.267c-0.226-1.892-2.812-3.746-5.864-4.986C39.274,38.426,43.616,31.431,43.976,24H45
		c1.654,0,3-1.346,3-3S46.654,18,45,18z M45,22h-2c-0.553,0-1,0.448-1,1c0,7.915-5.023,15.456-11.944,17.932
		c-0.41,0.146-0.679,0.542-0.662,0.978c0.015,0.435,0.311,0.81,0.731,0.927c3.171,0.879,5.279,2.188,6.253,3.163H11.621
		c0.975-0.975,3.082-2.284,6.252-3.163c0.42-0.117,0.715-0.492,0.731-0.927c0.017-0.436-0.252-0.832-0.662-0.978
		C11.022,38.456,6,30.914,6,23c0-0.552-0.447-1-1-1H3c-0.552,0-1-0.449-1-1s0.448-1,1-1h42c0.552,0,1,0.449,1,1S45.552,22,45,22z"/>
	<path fill="#010101" d="M28.734,15.679C39.391,4.15,41.558,2.11,42.368,2.776c0.676,0.551-0.562,2.409-7.181,11.642
		c-0.322,0.449-0.218,1.073,0.23,1.395C35.594,15.94,35.798,16,35.999,16c0.311,0,0.618-0.145,0.814-0.417
		c8.16-11.382,9.012-12.571,6.819-14.358C41.266-0.7,40.02,0.523,27.265,14.322c-0.375,0.405-0.349,1.038,0.056,1.413
		C27.725,16.108,28.358,16.085,28.734,15.679z"/>
	<path fill="#010101" d="M19.389,35.082c-2.904-1.21-5.263-3.569-6.473-6.472c-0.213-0.511-0.799-0.751-1.308-0.538
		c-0.51,0.213-0.751,0.798-0.538,1.308c1.411,3.386,4.163,6.137,7.549,7.548c0.126,0.053,0.256,0.078,0.385,0.078
		c0.391,0,0.763-0.232,0.923-0.616C20.14,35.88,19.899,35.294,19.389,35.082z"/>
</g>
</svg>
