<?xml version="1.0" encoding="utf-8"?>
<!-- Generator: Adobe Illustrator 17.0.0, SVG Export Plug-In . SVG Version: 6.00 Build 0)  -->
<!DOCTYPE svg PUBLIC "-//W3C//DTD SVG 1.1//EN" "http://www.w3.org/Graphics/SVG/1.1/DTD/svg11.dtd">
<svg version="1.1" id="Layer_1" xmlns="http://www.w3.org/2000/svg" xmlns:xlink="http://www.w3.org/1999/xlink" x="0px" y="0px"
	 width="48px" height="48px" viewBox="0 0 48 48" enable-background="new 0 0 48 48" xml:space="preserve">
<g>
	<path fill="#010101" d="M43,0H5C2.243,0,0,2.243,0,5v38c0,2.757,2.243,5,5,5h38c2.757,0,5-2.243,5-5V5C48,2.243,45.757,0,43,0z
		 M5,2h38c1.654,0,3,1.346,3,3v13h-9.246L32.961,4.725C32.834,4.283,32.438,3.973,31.963,4c-0.459,0.017-0.848,0.345-0.942,0.795
		l-4.22,20.253L21.953,9.696c-0.125-0.396-0.482-0.674-0.897-0.697c-0.407-0.019-0.802,0.212-0.97,0.592l-3.262,7.34l-2.992-4.487
		c-0.371-0.557-1.293-0.557-1.664,0L8.465,18H2V5C2,3.346,3.346,2,5,2z M43,46H5c-1.654,0-3-1.346-3-3V20h7
		c0.334,0,0.646-0.167,0.832-0.445L13,14.802l3.167,4.75c0.202,0.303,0.541,0.47,0.917,0.442c0.364-0.031,0.681-0.257,0.829-0.59
		l2.928-6.587l5.205,16.482c0.132,0.418,0.519,0.699,0.953,0.699c0.018,0,0.034,0,0.051-0.001c0.454-0.023,0.836-0.35,0.929-0.795
		l4.173-20.03l2.887,10.103C35.161,19.704,35.554,20,36,20h10v23C46,44.654,44.654,46,43,46z"/>
	<path fill="#010101" d="M9,40c-0.552,0-1,0.448-1,1v2c0,0.552,0.448,1,1,1s1-0.448,1-1v-2C10,40.448,9.552,40,9,40z"/>
	<path fill="#010101" d="M21,40c-0.552,0-1,0.448-1,1v2c0,0.552,0.448,1,1,1s1-0.448,1-1v-2C22,40.448,21.552,40,21,40z"/>
	<path fill="#010101" d="M33,40c-0.552,0-1,0.448-1,1v2c0,0.552,0.448,1,1,1s1-0.448,1-1v-2C34,40.448,33.552,40,33,40z"/>
	<path fill="#010101" d="M15,36c-0.552,0-1,0.448-1,1v6c0,0.552,0.448,1,1,1s1-0.448,1-1v-6C16,36.448,15.552,36,15,36z"/>
	<path fill="#010101" d="M27,36c-0.552,0-1,0.448-1,1v6c0,0.552,0.448,1,1,1s1-0.448,1-1v-6C28,36.448,27.552,36,27,36z"/>
	<path fill="#010101" d="M39,36c-0.552,0-1,0.448-1,1v6c0,0.552,0.448,1,1,1s1-0.448,1-1v-6C40,36.448,39.552,36,39,36z"/>
</g>
</svg>
