<?xml version="1.0" encoding="utf-8"?>
<!-- Generator: Adobe Illustrator 17.0.0, SVG Export Plug-In . SVG Version: 6.00 Build 0)  -->
<!DOCTYPE svg PUBLIC "-//W3C//DTD SVG 1.1//EN" "http://www.w3.org/Graphics/SVG/1.1/DTD/svg11.dtd">
<svg version="1.1" id="Layer_1" xmlns="http://www.w3.org/2000/svg" xmlns:xlink="http://www.w3.org/1999/xlink" x="0px" y="0px"
	 width="48px" height="48px" viewBox="0 0 48 48" enable-background="new 0 0 48 48" xml:space="preserve">
<path fill="#010101" d="M41,6h-9V5c0-0.552-0.448-1-1-1h-3.101C27.435,1.721,25.415,0,23,0s-4.435,1.721-4.899,4H15
	c-0.552,0-1,0.448-1,1v1H5C4.448,6,4,6.448,4,7v40c0,0.552,0.448,1,1,1h36c0.552,0,1-0.448,1-1V7C42,6.448,41.552,6,41,6z M10,30h3
	c0.315,0,0.611-0.148,0.8-0.4l2.152-2.868l3.216,4.824c0.197,0.297,0.541,0.468,0.894,0.443c0.356-0.022,0.672-0.232,0.832-0.551
	l3.85-7.701l3.294,11.528c0.114,0.397,0.459,0.683,0.869,0.721C28.938,35.999,28.969,36,29,36c0.376,0,0.724-0.212,0.894-0.553
	L32.618,30H36v10H10V30z M36,28h-4c-0.379,0-0.725,0.214-0.895,0.553l-1.85,3.701l-3.294-11.528
	c-0.114-0.397-0.459-0.683-0.869-0.721c-0.414-0.038-0.803,0.179-0.987,0.548l-4.229,8.459l-3.044-4.566
	c-0.18-0.27-0.48-0.436-0.804-0.445c-0.331-0.018-0.634,0.14-0.828,0.399L12.5,28H10V12h4v1c0,0.552,0.448,1,1,1h16
	c0.552,0,1-0.448,1-1v-1h4V28z M16,6h3c0.552,0,1-0.448,1-1c0-1.654,1.346-3,3-3s3,1.346,3,3c0,0.552,0.448,1,1,1h3v6H16V6z M40,46
	H6V8h8v2H9c-0.552,0-1,0.448-1,1v30c0,0.552,0.448,1,1,1h28c0.552,0,1-0.448,1-1V11c0-0.552-0.448-1-1-1h-5V8h8V46z"/>
</svg>
