<?xml version="1.0" encoding="utf-8"?>
<!-- Generator: Adobe Illustrator 17.0.0, SVG Export Plug-In . SVG Version: 6.00 Build 0)  -->
<!DOCTYPE svg PUBLIC "-//W3C//DTD SVG 1.1//EN" "http://www.w3.org/Graphics/SVG/1.1/DTD/svg11.dtd">
<svg version="1.1" id="Layer_1" xmlns="http://www.w3.org/2000/svg" xmlns:xlink="http://www.w3.org/1999/xlink" x="0px" y="0px"
	 width="48px" height="48px" viewBox="0 0 48 48" enable-background="new 0 0 48 48" xml:space="preserve">
<path fill="#010101" d="M46.958,30.302L36.04,24l10.918-6.306c0.478-0.276,0.642-0.888,0.366-1.366l-5-8.66
	c-0.132-0.23-0.351-0.398-0.607-0.466c-0.256-0.068-0.53-0.033-0.759,0.1L30.04,13.606V1c0-0.552-0.448-1-1-1h-10
	c-0.552,0-1,0.448-1,1v12.604L7.125,7.302c-0.229-0.132-0.502-0.168-0.759-0.1C6.11,7.271,5.892,7.439,5.759,7.668l-5,8.66
	c-0.276,0.478-0.113,1.09,0.366,1.366L12.04,24L1.125,30.302c-0.478,0.276-0.642,0.888-0.366,1.366l5,8.66
	c0.132,0.23,0.351,0.398,0.607,0.466c0.257,0.069,0.53,0.033,0.759-0.1l10.915-6.303V47c0,0.552,0.448,1,1,1h10c0.552,0,1-0.448,1-1
	V34.39l10.918,6.304c0.23,0.133,0.505,0.17,0.759,0.1c0.256-0.069,0.474-0.237,0.607-0.466l5-8.66c0.133-0.23,0.169-0.503,0.1-0.759
	C47.355,30.653,47.187,30.435,46.958,30.302z M41.092,38.462l-11.552-6.67c-0.31-0.179-0.69-0.179-1,0
	c-0.31,0.178-0.5,0.509-0.5,0.866V46h-8V32.658c0-0.357-0.19-0.687-0.5-0.866c-0.31-0.178-0.69-0.178-1,0.001L6.991,38.462l-4-6.928
	l11.549-6.668c0.31-0.178,0.5-0.509,0.5-0.866s-0.19-0.687-0.5-0.866L2.991,16.462l4-6.928l11.549,6.668c0.31,0.179,0.69,0.179,1,0
	c0.31-0.178,0.5-0.508,0.5-0.866V2h8v13.338c0,0.357,0.19,0.687,0.5,0.866c0.31,0.179,0.69,0.179,1,0l11.552-6.67l4,6.928
	L33.54,23.134c-0.31,0.179-0.5,0.509-0.5,0.866s0.191,0.687,0.5,0.866l11.552,6.668L41.092,38.462z"/>
</svg>
