<?xml version="1.0" encoding="utf-8"?>
<!-- Generator: Adobe Illustrator 17.0.0, SVG Export Plug-In . SVG Version: 6.00 Build 0)  -->
<!DOCTYPE svg PUBLIC "-//W3C//DTD SVG 1.1//EN" "http://www.w3.org/Graphics/SVG/1.1/DTD/svg11.dtd">
<svg version="1.1" id="Layer_1" xmlns="http://www.w3.org/2000/svg" xmlns:xlink="http://www.w3.org/1999/xlink" x="0px" y="0px"
	 width="48px" height="48px" viewBox="0 0 48 48" enable-background="new 0 0 48 48" xml:space="preserve">
<path fill="#010101" d="M44,20.846c0-2.757-2.243-5-5-5s-5,2.243-5,5c0,2.415,1.721,4.434,4,4.899v13.101c0,1.654-1.346,3-3,3
	s-3-1.346-3-3v-5.998c0-3.31-2.691-6.002-6-6.002s-6,2.691-6,6v10c0,1.654-1.346,3-3,3s-3-1.346-3-3V28.795
	c5.598-0.508,10-5.222,10-10.949v-10c0-2.415-1.721-4.434-4-4.899V0.846c0-0.552-0.448-1-1-1c-1.608,0-4,1.065-4,4s2.392,4,4,4
	c0.552,0,1-0.448,1-1V5.03c1.161,0.414,2,1.514,2,2.816v10c0,4.962-4.038,9-9,9s-9-4.038-9-9v-10C4,6.544,4.839,5.445,6,5.03v1.816
	c0,0.552,0.448,1,1,1c1.608,0,4-1.065,4-4s-2.392-4-4-4c-0.552,0-1,0.448-1,1v2.101C3.721,3.412,2,5.431,2,7.846v10
	c0,5.727,4.402,10.442,10,10.949v14.051c0,2.757,2.243,5,5,5s5-2.243,5-5v-10c0-2.206,1.794-4,4-4s4,1.795,4,4.002v5.998
	c0,2.757,2.243,5,5,5s5-2.243,5-5V25.745C42.279,25.28,44,23.261,44,20.846z M18,5.624c-0.505-0.24-1-0.741-1-1.779
	c0-1.031,0.49-1.533,1-1.776V5.624z M8,2.066c0.505,0.241,1,0.742,1,1.78c0,1.03-0.489,1.532-1,1.775V2.066z M39,23.846
	c-1.654,0-3-1.346-3-3s1.346-3,3-3s3,1.345,3,3C42,22.5,40.654,23.846,39,23.846z"/>
</svg>
