<?xml version="1.0" encoding="utf-8"?>
<!-- Generator: Adobe Illustrator 17.0.0, SVG Export Plug-In . SVG Version: 6.00 Build 0)  -->
<!DOCTYPE svg PUBLIC "-//W3C//DTD SVG 1.1//EN" "http://www.w3.org/Graphics/SVG/1.1/DTD/svg11.dtd">
<svg version="1.1" id="Layer_1" xmlns="http://www.w3.org/2000/svg" xmlns:xlink="http://www.w3.org/1999/xlink" x="0px" y="0px"
	 width="48px" height="48px" viewBox="0 0 48 48" enable-background="new 0 0 48 48" xml:space="preserve">
<path fill="#010101" d="M39,10h-6h-3V2h3c0.553,0,1-0.448,1-1s-0.447-1-1-1h-4h-6h-4c-0.553,0-1,0.448-1,1s0.447,1,1,1h3v8h-3h-6
	c-0.553,0-1,0.448-1,1s0.447,1,1,1h5v19c0,4.58,3.06,8.365,7,8.922V47c0,0.552,0.447,1,1,1s1-0.448,1-1v-7.078
	c3.94-0.556,7-4.342,7-8.922V12h5c0.553,0,1-0.448,1-1S39.553,10,39,10z M24,2h4v8h-4V2z M32,31c0,3.86-2.691,7-6,7s-6-3.14-6-7v-5
	h3c0.553,0,1-0.448,1-1s-0.447-1-1-1h-3v-2h3c0.553,0,1-0.448,1-1s-0.447-1-1-1h-3v-2h3c0.553,0,1-0.448,1-1s-0.447-1-1-1h-3v-4h3h6
	h3V31z"/>
</svg>
