<?xml version="1.0" encoding="utf-8"?>
<!-- Generator: Adobe Illustrator 17.0.0, SVG Export Plug-In . SVG Version: 6.00 Build 0)  -->
<!DOCTYPE svg PUBLIC "-//W3C//DTD SVG 1.1//EN" "http://www.w3.org/Graphics/SVG/1.1/DTD/svg11.dtd">
<svg version="1.1" id="Layer_1" xmlns="http://www.w3.org/2000/svg" xmlns:xlink="http://www.w3.org/1999/xlink" x="0px" y="0px"
	 width="48px" height="48px" viewBox="0 0 48 48" enable-background="new 0 0 48 48" xml:space="preserve">
<g>
	<path fill="#010101" d="M24,0C11.936,0,1.926,8.95,0.251,20.558C0.087,21.346,0,22.162,0,22.998c0,0.04,0.018,0.073,0.023,0.112
		C0.012,23.406,0,23.702,0,24c0,13.233,10.767,24,24,24c13.233,0,24-10.767,24-24S37.233,0,24,0z M24,2c12.131,0,22,9.869,22,22
		c0,5.756-4.767,10.998-10,10.998c-9.154,0-10.016-5.173-11.014-11.164C23.983,17.817,22.847,10.998,12,10.998
		c-2.768,0-5.312,0.951-7.344,2.531C8.385,6.668,15.657,2,24,2z M24,46C11.869,46,2,36.131,2,24c0-1.045,0.078-2.071,0.22-3.078
		c0.959-4.521,4.978-7.924,9.78-7.924c9.153,0,10.016,5.174,11.014,11.165C24.017,30.179,25.153,36.998,36,36.998
		c2.869,0,5.575-1.23,7.692-3.205C40.083,41.021,32.614,46,24,46z"/>
	<path fill="#010101" d="M13,16.998c-2.757,0-5,2.243-5,5c0,2.757,2.243,5,5,5s5-2.243,5-5C18,19.241,15.757,16.998,13,16.998z
		 M13,24.998c-1.654,0-3-1.346-3-3s1.346-3,3-3s3,1.346,3,3S14.654,24.998,13,24.998z"/>
	<path fill="#010101" d="M35,30.998c2.757,0,5-2.243,5-5c0-2.757-2.243-5-5-5s-5,2.243-5,5C30,28.755,32.243,30.998,35,30.998z
		 M35,22.998c1.654,0,3,1.346,3,3s-1.346,3-3,3s-3-1.346-3-3S33.346,22.998,35,22.998z"/>
</g>
</svg>
