<?xml version="1.0" encoding="utf-8"?>
<!-- Generator: Adobe Illustrator 17.0.0, SVG Export Plug-In . SVG Version: 6.00 Build 0)  -->
<!DOCTYPE svg PUBLIC "-//W3C//DTD SVG 1.1//EN" "http://www.w3.org/Graphics/SVG/1.1/DTD/svg11.dtd">
<svg version="1.1" id="Layer_1" xmlns="http://www.w3.org/2000/svg" xmlns:xlink="http://www.w3.org/1999/xlink" x="0px" y="0px"
	 width="60px" height="60px" viewBox="0 0 60 60" enable-background="new 0 0 60 60" xml:space="preserve">
<g>
	<path fill="#231F20" d="M58.227,0.365l-36.3,44.149L10.707,33.293c-0.391-0.391-1.023-0.391-1.414,0
		c-0.391,0.391-0.391,1.023,0,1.414l12,12C21.48,46.895,21.735,47,22,47c0.017,0,0.032,0,0.049-0.001
		c0.281-0.014,0.544-0.146,0.724-0.364l37-45c0.351-0.427,0.289-1.057-0.138-1.408C59.208-0.124,58.576-0.061,58.227,0.365z"/>
	<path fill="#231F20" d="M45.597,30.271c-0.539,0.123-0.875,0.659-0.752,1.198c0.363,1.586,0.547,3.212,0.547,4.835
		C45.392,48.267,35.658,58,23.695,58C11.732,58,2,48.267,2,36.304s9.732-21.695,21.695-21.695c3.385,0,6.629,0.759,9.642,2.257
		c0.497,0.247,1.095,0.044,1.341-0.451c0.246-0.494,0.044-1.095-0.45-1.34c-3.293-1.636-6.836-2.466-10.532-2.466
		C10.63,12.609,0,23.239,0,36.304C0,49.37,10.63,60,23.695,60c13.066,0,23.696-10.63,23.696-23.696c0-1.772-0.201-3.549-0.598-5.281
		C46.671,30.484,46.126,30.144,45.597,30.271z"/>
</g>
</svg>
