<?xml version="1.0" encoding="utf-8"?>
<!-- Generator: Adobe Illustrator 17.0.0, SVG Export Plug-In . SVG Version: 6.00 Build 0)  -->
<!DOCTYPE svg PUBLIC "-//W3C//DTD SVG 1.1//EN" "http://www.w3.org/Graphics/SVG/1.1/DTD/svg11.dtd">
<svg version="1.1" id="Layer_1" xmlns="http://www.w3.org/2000/svg" xmlns:xlink="http://www.w3.org/1999/xlink" x="0px" y="0px"
	 width="60px" height="60px" viewBox="0 0 60 60" enable-background="new 0 0 60 60" xml:space="preserve">
<g>
	<path fill="#231F20" d="M23.209,35.75c0.195,0.195,0.451,0.293,0.707,0.293c0.245,0,0.49-0.089,0.682-0.269l18.913-17.652
		c0.404-0.377,0.426-1.01,0.049-1.413c-0.377-0.405-1.01-0.425-1.413-0.049L23.94,33.653l-5.621-5.621
		c-0.391-0.391-1.023-0.391-1.414,0c-0.391,0.391-0.391,1.023,0,1.414L23.209,35.75z"/>
	<path fill="#231F20" d="M52.913,0H5C4.448,0,4,0.448,4,1v18.32c0,17.075,9.384,32.618,24.491,40.565
		C28.637,59.962,28.796,60,28.956,60c0.16,0,0.32-0.039,0.466-0.115c15.106-7.951,24.491-23.494,24.491-40.565V1
		C53.913,0.448,53.465,0,52.913,0z M51.913,19.32c0,16.149-8.783,30.87-22.957,38.547C14.783,50.194,6,35.473,6,19.32V2h45.913
		V19.32z"/>
</g>
</svg>
