<?xml version="1.0" encoding="utf-8"?>
<!-- Generator: Adobe Illustrator 17.0.0, SVG Export Plug-In . SVG Version: 6.00 Build 0)  -->
<!DOCTYPE svg PUBLIC "-//W3C//DTD SVG 1.1//EN" "http://www.w3.org/Graphics/SVG/1.1/DTD/svg11.dtd">
<svg version="1.1" id="Layer_1" xmlns="http://www.w3.org/2000/svg" xmlns:xlink="http://www.w3.org/1999/xlink" x="0px" y="0px"
	 width="60px" height="60px" viewBox="0 0 60 60" enable-background="new 0 0 60 60" xml:space="preserve">
<g>
	<path fill="#231F20" d="M41.927,20.443L23.72,37.436l-5.622-5.621c-0.391-0.391-1.023-0.391-1.414,0
		c-0.391,0.391-0.391,1.023,0,1.414l6.305,6.305c0.195,0.195,0.451,0.293,0.707,0.293c0.245,0,0.49-0.089,0.682-0.269l18.913-17.652
		c0.404-0.377,0.426-1.01,0.049-1.413C42.963,20.087,42.33,20.066,41.927,20.443z"/>
	<path fill="#231F20" d="M60,30c0-2.28-1.277-4.306-3.209-5.33c1.388-1.685,1.793-4.044,0.926-6.15
		c-0.863-2.083-2.79-3.488-5.006-3.697c0.641-2.089,0.11-4.425-1.502-6.037c-1.138-1.139-2.652-1.766-4.262-1.766
		c-0.607,0-1.203,0.089-1.773,0.264c-0.208-2.173-1.593-4.127-3.699-4.999c-2.067-0.857-4.493-0.454-6.151,0.919
		C34.3,1.275,32.276,0,30,0c-2.279,0-4.306,1.276-5.333,3.205c-1.658-1.374-4.084-1.776-6.153-0.92c-2.105,0.87-3.489,2.824-3.698,5
		c-0.568-0.174-1.164-0.263-1.771-0.263c-1.611,0-3.125,0.627-4.264,1.767c-1.612,1.61-2.143,3.945-1.502,6.035
		c-2.209,0.21-4.132,1.614-4.996,3.696c-0.873,2.105-0.472,4.465,0.916,6.15C1.274,25.695,0,27.721,0,30s1.275,4.306,3.202,5.33
		c-1.388,1.686-1.79,4.046-0.919,6.152c0.864,2.082,2.788,3.485,4.999,3.695c-0.639,2.088-0.109,4.423,1.5,6.036
		c1.139,1.14,2.653,1.767,4.264,1.767c0.607,0,1.203-0.09,1.772-0.264c0.21,2.174,1.594,4.128,3.698,5.001
		c2.068,0.858,4.495,0.453,6.151-0.92C25.694,58.726,27.721,60,30,60c2.276,0,4.3-1.274,5.325-3.202
		c1.657,1.372,4.081,1.777,6.152,0.919c2.103-0.872,3.486-2.827,3.696-5.001c0.569,0.174,1.166,0.264,1.773,0.264
		c1.61,0,3.125-0.628,4.263-1.767c1.611-1.611,2.142-3.946,1.502-6.035c2.215-0.209,4.142-1.613,5.006-3.696
		c0.872-2.104,0.468-4.465-0.925-6.151C58.723,34.307,60,32.28,60,30z M54.698,33.966c-0.402,0.075-0.718,0.387-0.798,0.788
		c-0.08,0.401,0.092,0.811,0.435,1.034c1.633,1.063,2.279,3.136,1.535,4.928c-0.627,1.513-2.093,2.49-3.735,2.49
		c-0.28,0-0.562-0.03-0.836-0.088c-0.403-0.086-0.813,0.082-1.039,0.422c-0.227,0.34-0.225,0.785,0.007,1.122
		c1.101,1.603,0.902,3.763-0.472,5.137c-1.342,1.343-3.579,1.542-5.136,0.472c-0.336-0.231-0.781-0.234-1.121-0.008
		c-0.34,0.227-0.508,0.638-0.424,1.039c0.401,1.903-0.609,3.825-2.401,4.567c-1.78,0.736-3.894,0.065-4.928-1.529
		c-0.223-0.343-0.631-0.515-1.034-0.437c-0.401,0.08-0.713,0.396-0.788,0.798C33.607,56.613,31.94,58,30,58
		c-1.944,0-3.614-1.387-3.971-3.299c-0.075-0.402-0.387-0.718-0.789-0.797c-0.065-0.013-0.13-0.019-0.194-0.019
		c-0.335,0-0.652,0.168-0.839,0.456c-1.036,1.594-3.15,2.266-4.925,1.529c-1.795-0.744-2.806-2.665-2.405-4.566
		c0.085-0.4-0.083-0.811-0.423-1.038c-0.34-0.227-0.784-0.224-1.121,0.007c-1.561,1.069-3.795,0.87-5.137-0.473
		c-1.372-1.375-1.57-3.535-0.471-5.138c0.231-0.337,0.234-0.781,0.007-1.121c-0.227-0.34-0.636-0.508-1.038-0.423
		C8.42,43.176,8.14,43.205,7.86,43.205c-1.639,0-3.103-0.977-3.73-2.488c-0.743-1.795-0.101-3.869,1.526-4.929
		C6,35.564,6.171,35.155,6.091,34.754c-0.08-0.401-0.396-0.713-0.797-0.788C3.385,33.611,2,31.943,2,30
		c0-1.943,1.385-3.612,3.294-3.967c0.402-0.075,0.718-0.387,0.798-0.788c0.08-0.401-0.093-0.81-0.435-1.034
		c-1.628-1.059-2.269-3.13-1.524-4.925c0.627-1.513,2.089-2.49,3.726-2.49c0.28,0,0.561,0.029,0.836,0.087
		c0.4,0.083,0.811-0.082,1.039-0.422c0.227-0.34,0.225-0.784-0.007-1.122c-1.102-1.605-0.904-3.765,0.47-5.137
		c1.344-1.343,3.581-1.542,5.137-0.474c0.337,0.231,0.781,0.234,1.121,0.007c0.34-0.227,0.508-0.638,0.423-1.038
		c-0.402-1.904,0.608-3.823,2.402-4.565c1.78-0.739,3.892-0.066,4.928,1.529c0.223,0.343,0.632,0.516,1.033,0.436
		c0.401-0.08,0.714-0.396,0.789-0.797C26.386,3.388,28.056,2,30,2c1.94,0,3.606,1.388,3.963,3.301
		c0.075,0.402,0.387,0.718,0.788,0.798c0.405,0.08,0.811-0.093,1.034-0.437c1.035-1.595,3.147-2.265,4.925-1.529
		c1.796,0.744,2.808,2.664,2.404,4.564c-0.085,0.4,0.082,0.811,0.422,1.039c0.339,0.226,0.784,0.224,1.122-0.007
		c1.558-1.07,3.796-0.872,5.137,0.471c1.374,1.375,1.573,3.536,0.472,5.139c-0.232,0.337-0.234,0.782-0.007,1.122
		c0.228,0.34,0.637,0.506,1.039,0.422c0.275-0.058,0.557-0.088,0.838-0.088c1.641,0,3.107,0.978,3.733,2.488
		c0.74,1.796,0.094,3.87-1.535,4.931c-0.343,0.223-0.515,0.633-0.435,1.034c0.08,0.401,0.396,0.713,0.799,0.787
		C56.611,26.39,58,28.057,58,30C58,31.944,56.611,33.612,54.698,33.966z"/>
</g>
</svg>
