<?xml version="1.0" encoding="utf-8"?>
<!-- Generator: Adobe Illustrator 17.0.0, SVG Export Plug-In . SVG Version: 6.00 Build 0)  -->
<!DOCTYPE svg PUBLIC "-//W3C//DTD SVG 1.1//EN" "http://www.w3.org/Graphics/SVG/1.1/DTD/svg11.dtd">
<svg version="1.1" id="Layer_1" xmlns="http://www.w3.org/2000/svg" xmlns:xlink="http://www.w3.org/1999/xlink" x="0px" y="0px"
	 width="60px" height="60px" viewBox="0 0 60 60" enable-background="new 0 0 60 60" xml:space="preserve">
<g>
	<path fill="#231F20" d="M10.707,31.293c-0.391-0.391-1.023-0.391-1.414,0c-0.391,0.391-0.391,1.023,0,1.414l12,12
		C21.48,44.895,21.735,45,22,45c0.017,0,0.032,0,0.049-0.001c0.282-0.014,0.545-0.146,0.725-0.365l32-39
		c0.35-0.427,0.288-1.057-0.139-1.407c-0.429-0.352-1.057-0.288-1.408,0.139l-31.3,38.147L10.707,31.293z"/>
	<path fill="#231F20" d="M1,58h46c0.553,0,1-0.448,1-1V29.261c0-0.552-0.447-1-1-1c-0.553,0-1,0.448-1,1V56H2V12h31.782
		c0.553,0,1-0.448,1-1s-0.447-1-1-1H1c-0.553,0-1,0.448-1,1v46C0,57.552,0.447,58,1,58z"/>
</g>
</svg>
