<?xml version="1.0" encoding="utf-8"?>
<!-- Generator: Adobe Illustrator 17.0.0, SVG Export Plug-In . SVG Version: 6.00 Build 0)  -->
<!DOCTYPE svg PUBLIC "-//W3C//DTD SVG 1.1//EN" "http://www.w3.org/Graphics/SVG/1.1/DTD/svg11.dtd">
<svg version="1.1" id="Layer_1" xmlns="http://www.w3.org/2000/svg" xmlns:xlink="http://www.w3.org/1999/xlink" x="0px" y="0px"
	 width="60px" height="60px" viewBox="0 0 60 60" enable-background="new 0 0 60 60" xml:space="preserve">
<g>
	<path fill="#231F20" d="M59,0H1C0.448,0,0,0.448,0,1v58c0,0.552,0.448,1,1,1h58c0.552,0,1-0.448,1-1V1C60,0.448,59.552,0,59,0z
		 M58,58H2V2h56V58z"/>
	<path fill="#231F20" d="M12.902,23.142c0.195,0.195,0.451,0.293,0.707,0.293c0.256,0,0.512-0.098,0.707-0.293l12.608-12.608
		c0.391-0.391,0.391-1.023,0-1.414c-0.391-0.391-1.023-0.391-1.414,0L13.609,21.021l-4.336-4.336c-0.391-0.391-1.023-0.391-1.414,0
		c-0.391,0.391-0.391,1.023,0,1.414L12.902,23.142z"/>
	<path fill="#231F20" d="M12.902,47.098c0.195,0.195,0.451,0.293,0.707,0.293c0.256,0,0.512-0.098,0.707-0.293L26.924,34.49
		c0.391-0.391,0.391-1.023,0-1.414c-0.391-0.391-1.023-0.391-1.414,0L13.609,44.977l-4.336-4.336c-0.391-0.391-1.023-0.391-1.414,0
		c-0.391,0.391-0.391,1.023,0,1.414L12.902,47.098z"/>
	<path fill="#231F20" d="M31.261,22.174h20.174c0.552,0,1-0.448,1-1c0-0.552-0.448-1-1-1H31.261c-0.552,0-1,0.448-1,1
		C30.261,21.726,30.708,22.174,31.261,22.174z"/>
	<path fill="#231F20" d="M31.261,44h20.174c0.552,0,1-0.448,1-1s-0.448-1-1-1H31.261c-0.552,0-1,0.448-1,1S30.708,44,31.261,44z"/>
</g>
</svg>
