<?xml version="1.0" encoding="utf-8"?>
<!-- Generator: Adobe Illustrator 17.0.0, SVG Export Plug-In . SVG Version: 6.00 Build 0)  -->
<!DOCTYPE svg PUBLIC "-//W3C//DTD SVG 1.1//EN" "http://www.w3.org/Graphics/SVG/1.1/DTD/svg11.dtd">
<svg version="1.1" id="Layer_1" xmlns="http://www.w3.org/2000/svg" xmlns:xlink="http://www.w3.org/1999/xlink" x="0px" y="0px"
	 width="60px" height="60px" viewBox="0 0 60 60" enable-background="new 0 0 60 60" xml:space="preserve">
<g>
	<path fill="#231F20" d="M60,30c0-2.28-1.277-4.307-3.208-5.33c1.387-1.685,1.792-4.044,0.926-6.15
		c-0.864-2.084-2.79-3.488-5.006-3.697c0.641-2.089,0.11-4.425-1.502-6.037c-1.137-1.139-2.65-1.766-4.262-1.766
		c-0.607,0-1.203,0.089-1.773,0.264c-0.209-2.173-1.593-4.127-3.699-4.999c-2.068-0.858-4.493-0.453-6.15,0.919
		C34.3,1.275,32.275,0,30,0c-2.278,0-4.305,1.276-5.331,3.205c-1.658-1.374-4.089-1.775-6.153-0.92
		c-2.105,0.871-3.489,2.824-3.698,5c-0.568-0.174-1.163-0.263-1.769-0.263c-1.61,0-3.125,0.627-4.265,1.767
		c-1.611,1.609-2.142,3.945-1.502,6.035c-2.209,0.21-4.132,1.614-4.995,3.696c-0.874,2.105-0.473,4.465,0.915,6.15
		C1.274,25.695,0,27.721,0,30s1.275,4.306,3.202,5.33c-1.388,1.686-1.79,4.046-0.92,6.152c0.864,2.082,2.788,3.485,5,3.695
		c-0.639,2.089-0.108,4.424,1.501,6.036c1.14,1.14,2.653,1.767,4.263,1.767c0.607,0,1.203-0.09,1.772-0.264
		c0.209,2.173,1.593,4.127,3.698,5c2.066,0.859,4.495,0.454,6.152-0.92C25.695,58.725,27.722,60,30,60
		c2.275,0,4.3-1.274,5.325-3.202c1.657,1.371,4.08,1.776,6.153,0.919c2.103-0.872,3.485-2.827,3.695-5.001
		c0.569,0.174,1.166,0.264,1.773,0.264c1.611,0,3.125-0.628,4.263-1.767c1.611-1.611,2.142-3.946,1.502-6.035
		c2.214-0.209,4.142-1.613,5.006-3.697c0.872-2.104,0.468-4.465-0.925-6.151C58.724,34.307,60,32.28,60,30z M54.699,33.966
		c-0.402,0.075-0.719,0.387-0.799,0.788c-0.08,0.401,0.092,0.811,0.435,1.034c1.633,1.062,2.278,3.135,1.535,4.928
		c-0.628,1.513-2.094,2.49-3.735,2.49c-0.28,0-0.562-0.03-0.836-0.088c-0.398-0.083-0.812,0.082-1.039,0.422
		c-0.228,0.34-0.225,0.785,0.007,1.122c1.101,1.603,0.902,3.764-0.471,5.138c-1.342,1.342-3.578,1.542-5.137,0.471
		c-0.336-0.231-0.781-0.234-1.121-0.008c-0.34,0.227-0.508,0.638-0.424,1.038c0.401,1.904-0.609,3.825-2.4,4.568
		c-1.781,0.736-3.895,0.064-4.929-1.529c-0.223-0.343-0.636-0.517-1.033-0.437c-0.401,0.08-0.714,0.396-0.789,0.798
		C33.607,56.613,31.94,58,30,58c-1.943,0-3.613-1.387-3.97-3.299c-0.075-0.402-0.388-0.718-0.789-0.797
		c-0.064-0.013-0.13-0.019-0.194-0.019c-0.334,0-0.652,0.168-0.839,0.456c-1.035,1.594-3.149,2.266-4.926,1.529
		c-1.795-0.745-2.806-2.665-2.403-4.565c0.084-0.4-0.083-0.811-0.423-1.039c-0.34-0.227-0.785-0.224-1.121,0.007
		c-1.562,1.068-3.795,0.87-5.138-0.473c-1.371-1.373-1.57-3.535-0.472-5.139c0.231-0.337,0.233-0.781,0.006-1.121
		c-0.227-0.34-0.635-0.508-1.038-0.423C8.42,43.176,8.14,43.205,7.86,43.205c-1.639,0-3.104-0.977-3.731-2.488
		c-0.742-1.796-0.1-3.87,1.527-4.93C6,35.565,6.172,35.155,6.092,34.754c-0.08-0.401-0.396-0.713-0.798-0.788
		C3.386,33.611,2,31.943,2,30c0-1.943,1.386-3.612,3.294-3.967c0.402-0.075,0.719-0.387,0.798-0.788
		c0.08-0.401-0.093-0.81-0.435-1.034c-1.627-1.059-2.268-3.13-1.523-4.926c0.627-1.512,2.089-2.489,3.724-2.489
		c0.28,0,0.561,0.029,0.835,0.087c0.401,0.086,0.812-0.083,1.039-0.422c0.228-0.34,0.225-0.784-0.006-1.121
		c-1.1-1.606-0.901-3.767,0.472-5.138c1.343-1.343,3.578-1.543,5.138-0.474c0.336,0.231,0.781,0.233,1.121,0.007
		c0.34-0.227,0.508-0.639,0.423-1.039c-0.403-1.903,0.607-3.823,2.401-4.565c1.78-0.736,3.893-0.065,4.928,1.529
		c0.223,0.343,0.633,0.515,1.033,0.437c0.401-0.08,0.714-0.396,0.789-0.797C26.387,3.388,28.057,2,30,2
		c1.94,0,3.606,1.388,3.963,3.301c0.075,0.402,0.388,0.718,0.789,0.798c0.399,0.081,0.81-0.093,1.033-0.437
		c1.034-1.594,3.146-2.267,4.925-1.529c1.797,0.744,2.808,2.664,2.404,4.564c-0.085,0.4,0.083,0.811,0.423,1.039
		c0.34,0.228,0.785,0.224,1.121-0.007c1.558-1.07,3.797-0.872,5.138,0.471c1.374,1.375,1.572,3.536,0.471,5.139
		c-0.231,0.337-0.234,0.782-0.007,1.122c0.227,0.339,0.641,0.508,1.038,0.422c0.275-0.058,0.558-0.088,0.839-0.088
		c1.641,0,3.107,0.978,3.732,2.487c0.739,1.796,0.094,3.87-1.534,4.931c-0.343,0.224-0.515,0.633-0.435,1.034
		c0.08,0.401,0.396,0.713,0.799,0.787C56.611,26.39,58,28.057,58,30C58,31.944,56.611,33.612,54.699,33.966z"/>
	<path fill="#231F20" d="M42.055,17.945c-0.391-0.391-1.023-0.391-1.414,0L30,28.586L19.359,17.945
		c-0.391-0.391-1.023-0.391-1.414,0c-0.391,0.391-0.391,1.023,0,1.414L28.586,30L17.945,40.641c-0.391,0.391-0.391,1.023,0,1.414
		c0.195,0.195,0.451,0.293,0.707,0.293c0.256,0,0.512-0.098,0.707-0.293L30,31.414l10.641,10.641
		c0.195,0.195,0.451,0.293,0.707,0.293c0.256,0,0.512-0.098,0.707-0.293c0.391-0.391,0.391-1.023,0-1.414L31.414,30l10.641-10.641
		C42.445,18.969,42.445,18.336,42.055,17.945z"/>
</g>
</svg>
