<?xml version="1.0" encoding="utf-8"?>
<!-- Generator: Adobe Illustrator 17.0.0, SVG Export Plug-In . SVG Version: 6.00 Build 0)  -->
<!DOCTYPE svg PUBLIC "-//W3C//DTD SVG 1.1//EN" "http://www.w3.org/Graphics/SVG/1.1/DTD/svg11.dtd">
<svg version="1.1" id="Layer_1" xmlns="http://www.w3.org/2000/svg" xmlns:xlink="http://www.w3.org/1999/xlink" x="0px" y="0px"
	 width="60px" height="60px" viewBox="0 0 60 60" enable-background="new 0 0 60 60" xml:space="preserve">
<g>
	<path fill="#231F20" d="M59.707,0.293c-0.391-0.391-1.023-0.391-1.414,0L30,28.586L1.707,0.293c-0.391-0.391-1.023-0.391-1.414,0
		c-0.391,0.391-0.391,1.023,0,1.414L28.586,30L0.293,58.293c-0.391,0.391-0.391,1.023,0,1.414C0.488,59.902,0.744,60,1,60
		c0.256,0,0.512-0.098,0.707-0.293L30,31.414l28.293,28.293C58.488,59.902,58.744,60,59,60c0.256,0,0.512-0.098,0.707-0.293
		c0.391-0.391,0.391-1.023,0-1.414L31.414,30L59.707,1.707C60.098,1.316,60.098,0.684,59.707,0.293z"/>
</g>
</svg>
