<?xml version="1.0" encoding="utf-8"?>
<!-- Generator: Adobe Illustrator 17.0.0, SVG Export Plug-In . SVG Version: 6.00 Build 0)  -->
<!DOCTYPE svg PUBLIC "-//W3C//DTD SVG 1.1//EN" "http://www.w3.org/Graphics/SVG/1.1/DTD/svg11.dtd">
<svg version="1.1" id="Layer_1" xmlns="http://www.w3.org/2000/svg" xmlns:xlink="http://www.w3.org/1999/xlink" x="0px" y="0px"
	 width="60px" height="60px" viewBox="0 0 60 60" enable-background="new 0 0 60 60" xml:space="preserve">
<g>
	<path fill="#231F20" d="M53,0H5C4.447,0,4,0.448,4,1v18.32c0,17.073,9.384,32.617,24.49,40.565C28.636,59.961,28.796,60,28.956,60
		c0.16,0,0.32-0.039,0.466-0.115C44.493,51.953,53.911,36.411,54,19.32V1C54,0.448,53.553,0,53,0z M52,19.315
		c-0.084,16.169-8.899,30.892-23.044,38.552C14.782,50.193,6,35.472,6,19.32V2h46V19.315z"/>
	<path fill="#231F20" d="M16.901,35.75c0.195,0.195,0.451,0.293,0.707,0.293c0.256,0,0.512-0.098,0.707-0.293L28.957,25.11
		L39.598,35.75c0.195,0.195,0.451,0.293,0.707,0.293c0.256,0,0.512-0.098,0.707-0.293c0.391-0.391,0.391-1.023,0-1.414
		L30.371,23.696l10.641-10.641c0.391-0.391,0.391-1.023,0-1.414c-0.391-0.391-1.023-0.391-1.414,0L28.957,22.282L18.315,11.641
		c-0.391-0.391-1.023-0.391-1.414,0c-0.391,0.391-0.391,1.023,0,1.414l10.641,10.641L16.901,34.336
		C16.511,34.727,16.511,35.36,16.901,35.75z"/>
</g>
</svg>
