<?xml version="1.0" encoding="utf-8"?>
<!-- Generator: Adobe Illustrator 17.0.0, SVG Export Plug-In . SVG Version: 6.00 Build 0)  -->
<!DOCTYPE svg PUBLIC "-//W3C//DTD SVG 1.1//EN" "http://www.w3.org/Graphics/SVG/1.1/DTD/svg11.dtd">
<svg version="1.1" id="Layer_2" xmlns="http://www.w3.org/2000/svg" xmlns:xlink="http://www.w3.org/1999/xlink" x="0px" y="0px"
	 width="48px" height="48px" viewBox="0 0 48 48" enable-background="new 0 0 48 48" xml:space="preserve">
<g>
	<path fill="#010101" d="M24,35.255c-0.159,0-0.317-0.038-0.463-0.113L12,29.122v2.869c1.842,1.062,3,3.03,3,5.182
		c0,0.25-0.02,0.495-0.05,0.737c2.463,1.262,5.507,2.089,9.052,2.089c9.912,0,15.998-6.407,15.998-11v-1.964l-15.537,8.107
		C24.317,35.217,24.159,35.255,24,35.255z"/>
	<path fill="#010101" d="M12.966,36.714c-0.163-1.394-1.051-2.618-2.366-3.192L10,33.26v-4.261v-0.92l-2-1.044v1.964v4.261v0.055
		c-0.213,0.055-0.419,0.128-0.617,0.216c-0.021,0.009-0.038,0.021-0.059,0.031c-0.17,0.079-0.336,0.168-0.492,0.269
		c-0.045,0.029-0.086,0.064-0.13,0.095c-0.125,0.088-0.247,0.179-0.36,0.28c-0.051,0.046-0.098,0.095-0.147,0.144
		c-0.096,0.094-0.188,0.192-0.275,0.295c-0.051,0.062-0.098,0.126-0.145,0.19c-0.072,0.098-0.14,0.2-0.203,0.304
		c-0.045,0.075-0.088,0.151-0.128,0.229c-0.053,0.104-0.101,0.212-0.145,0.322c-0.033,0.082-0.068,0.164-0.095,0.249
		c-0.04,0.122-0.07,0.248-0.098,0.374c-0.017,0.076-0.039,0.151-0.051,0.228C5.021,36.746,5,36.957,5,37.173
		C5,38,5.252,38.77,5.684,39.408c0.288,0.426,0.655,0.793,1.081,1.081C7.403,40.921,8.173,41.173,9,41.173
		c0.827,0,1.597-0.252,2.235-0.684c0.425-0.288,0.793-0.655,1.081-1.081C12.748,38.77,13,38,13,37.173
		c0-0.158-0.022-0.31-0.04-0.463C12.962,36.711,12.964,36.712,12.966,36.714z"/>
	<path fill="#010101" d="M47.466,19.115L24.462,7.112c-0.291-0.15-0.633-0.15-0.924,0L0.534,19.115C0.206,19.288,0,19.628,0,19.999
		c0,0.372,0.206,0.711,0.534,0.884L24,33.127l23.466-12.244C47.794,20.71,48,20.371,48,19.999
		C48,19.628,47.794,19.288,47.466,19.115z"/>
</g>
</svg>
