<?xml version="1.0" encoding="utf-8"?>
<!-- Generator: Adobe Illustrator 17.0.0, SVG Export Plug-In . SVG Version: 6.00 Build 0)  -->
<!DOCTYPE svg PUBLIC "-//W3C//DTD SVG 1.1//EN" "http://www.w3.org/Graphics/SVG/1.1/DTD/svg11.dtd">
<svg version="1.1" id="Layer_2" xmlns="http://www.w3.org/2000/svg" xmlns:xlink="http://www.w3.org/1999/xlink" x="0px" y="0px"
	 width="48px" height="48px" viewBox="0 0 48 48" enable-background="new 0 0 48 48" xml:space="preserve">
<g>
	<path fill="#010101" d="M44,37.833H4c-2.206,0-4,1.794-4,4v2c0,2.206,1.794,4,4,4h40c2.206,0,4-1.794,4-4v-2
		C48,39.627,46.206,37.833,44,37.833z"/>
	<path fill="#010101" d="M5,35.833h38c0.553,0,1-0.447,1-1c0-16.9-10.169-27-20-27c-9.831,0-20,10.1-20,27
		C4,35.386,4.447,35.833,5,35.833z"/>
	<path fill="#010101" d="M31,6.833c0-0.553-0.447-1-1-1h-3.586l2.293-2.293c0.391-0.391,0.391-1.023,0-1.414
		c-0.391-0.391-1.023-0.391-1.414,0L25,4.419V0.833c0-0.553-0.447-1-1-1c-0.553,0-1,0.447-1,1v3.586l-2.293-2.293
		c-0.391-0.391-1.023-0.391-1.414,0c-0.391,0.391-0.391,1.023,0,1.414l2.293,2.293H18c-0.553,0-1,0.447-1,1c0,0.553,0.447,1,1,1h6h6
		C30.553,7.833,31,7.386,31,6.833z"/>
</g>
</svg>
