<?xml version="1.0" encoding="utf-8"?>
<!-- Generator: Adobe Illustrator 17.1.0, SVG Export Plug-In . SVG Version: 6.00 Build 0)  -->
<!DOCTYPE svg PUBLIC "-//W3C//DTD SVG 1.0//EN" "http://www.w3.org/TR/2001/REC-SVG-20010904/DTD/svg10.dtd">
<svg version="1.0" id="Layer_1" xmlns="http://www.w3.org/2000/svg" xmlns:xlink="http://www.w3.org/1999/xlink" x="0px" y="0px"
	 width="48px" height="48px" viewBox="0 0 48 48" enable-background="new 0 0 48 48" xml:space="preserve">
<path d="M44.04,10.317c-0.001-0.001-0.002-0.001-0.003-0.001c-4.94-3.894-11.194-5.952-18.087-5.952
	c-4.515,0-8.798,1.294-12.387,3.743c-0.454,0.311-1.078,0.194-1.39-0.263c-0.311-0.456-0.193-1.078,0.263-1.39
	c3.923-2.676,8.596-4.091,13.514-4.091c4.093,0,7.967,0.709,11.523,2.038C33.61,1.856,28.752,0.001,23,0.001
	c-4.917,0-12.095,1.085-17.489,4.128C4.504,4.694,3.898,5.882,4,7.022l0.037,1.634C1.654,9.773,0,12.196,0,14.998
	c0,3.183,2.136,5.871,5.048,6.719c0.155,1.978,0.751,7.472,2.548,8.194c0.102,0.045,0.215,0.065,0.331,0.074
	C7.95,29.986,7.97,30,7.993,30h0.001C7.996,30,7.998,30,8,30c0.008,0,0.018,0,0.024,0h12.118c0.363,1.399,1.459,2.495,2.858,2.858
	V40h-1c-0.553,0-1,0.447-1,1v6c0,0.553,0.447,1,1,1h4c0.553,0,1-0.447,1-1v-6c0-0.553-0.447-1-1-1h-1v-7.142
	c1.72-0.447,3-1.999,3-3.858c0-1.859-1.28-3.411-3-3.858V22h19c2.206,0,4-1.795,4-4.002C48,16.507,46.632,13.474,44.04,10.317z
	 M7.053,22h6.533l-5.475,5.475C7.678,26.226,7.208,23.722,7.053,22z M23,25.142c-1.399,0.364-2.495,1.459-2.858,2.858h-9.728l6-6H23
	V25.142z"/>
</svg>
