<?xml version="1.0" encoding="utf-8"?>
<!-- Generator: Adobe Illustrator 17.0.0, SVG Export Plug-In . SVG Version: 6.00 Build 0)  -->
<!DOCTYPE svg PUBLIC "-//W3C//DTD SVG 1.1//EN" "http://www.w3.org/Graphics/SVG/1.1/DTD/svg11.dtd">
<svg version="1.1" id="Layer_1" xmlns="http://www.w3.org/2000/svg" xmlns:xlink="http://www.w3.org/1999/xlink" x="0px" y="0px"
	 width="48px" height="48px" viewBox="0 0 48 48" enable-background="new 0 0 48 48" xml:space="preserve">
<g>
	<path fill="#010101" d="M24,1.622c-1.658,0-3,1.344-3,3h6C27,2.966,25.654,1.622,24,1.622z"/>
	<path fill="#010101" d="M45.995,34.421v-6.799c0-12.131-9.869-22-22-22s-22,9.869-22,22v6.799
		C8.499,31.483,16.946,29.622,24,29.622C31.044,29.622,39.489,31.483,45.995,34.421z M13.342,25.498
		c-0.309,0.113-0.651,0.068-0.918-0.118c-0.269-0.187-0.429-0.493-0.429-0.82v-8c0-0.419,0.261-0.793,0.653-0.938
		c3.596-1.327,7.413-2,11.347-2s7.751,0.673,11.347,2c0.393,0.145,0.653,0.519,0.653,0.938v8c0,0.327-0.16,0.633-0.429,0.82
		c-0.17,0.119-0.369,0.18-0.571,0.18c-0.117,0-0.234-0.021-0.347-0.062c-3.372-1.245-6.956-1.876-10.653-1.876
		C20.298,23.622,16.714,24.253,13.342,25.498z"/>
	<path fill="#010101" d="M47.985,46.444l-1.754-9.701c-6.291-3.069-15.168-5.121-22.23-5.121c-7.068,0-15.942,2.05-22.229,5.116
		l-1.755,9.707c-0.072,0.4,0.105,0.804,0.448,1.022c0.344,0.219,0.784,0.207,1.116-0.029c6.756-4.806,15.921-5.815,22.42-5.815
		c6.5,0,15.665,1.009,22.42,5.815c0.174,0.123,0.377,0.185,0.58,0.185c0.185,0,0.372-0.052,0.536-0.156
		C47.879,47.249,48.057,46.844,47.985,46.444z"/>
</g>
</svg>
