<?xml version="1.0" encoding="utf-8"?>
<!-- Generator: Adobe Illustrator 17.0.0, SVG Export Plug-In . SVG Version: 6.00 Build 0)  -->
<!DOCTYPE svg PUBLIC "-//W3C//DTD SVG 1.1//EN" "http://www.w3.org/Graphics/SVG/1.1/DTD/svg11.dtd">
<svg version="1.1" id="Layer_2" xmlns="http://www.w3.org/2000/svg" xmlns:xlink="http://www.w3.org/1999/xlink" x="0px" y="0px"
	 width="48px" height="48px" viewBox="0 0 48 48" enable-background="new 0 0 48 48" xml:space="preserve">
<g>
	<path fill="#010101" d="M47,20.832c-0.553,0-1,0.447-1,1c0,3.72-2.555,6.846-6,7.738v-3.737H8v3.737c-3.445-0.892-6-4.017-6-7.738
		c0-0.553-0.447-1-1-1c-0.553,0-1,0.447-1,1c0,5.515,4.486,10.001,10,10.001h28c5.514,0,10-4.486,10-10.001
		C48,21.28,47.553,20.832,47,20.832z"/>
	<path fill="#010101" d="M40,15.832C40,7.01,32.822-0.167,24-0.167c-8.822,0-16,7.177-16,15.999v8.001h32V15.832z"/>
	<polygon fill="#010101" points="21,43.833 19,47.833 29,47.833 27,43.833 	"/>
</g>
</svg>
