<?xml version="1.0" encoding="utf-8"?>
<!-- Generator: Adobe Illustrator 17.0.0, SVG Export Plug-In . SVG Version: 6.00 Build 0)  -->
<!DOCTYPE svg PUBLIC "-//W3C//DTD SVG 1.1//EN" "http://www.w3.org/Graphics/SVG/1.1/DTD/svg11.dtd">
<svg version="1.1" id="Layer_2" xmlns="http://www.w3.org/2000/svg" xmlns:xlink="http://www.w3.org/1999/xlink" x="0px" y="0px"
	 width="48px" height="48px" viewBox="0 0 48 48" enable-background="new 0 0 48 48" xml:space="preserve">
<path fill="#010101" d="M45.754,30.358c-0.068-0.048-0.14-0.092-0.214-0.13l-19.147-10.03c2.386-1.373,4.22-4.34,4.22-6.199
	c0-3.859-3.141-7-7-7s-7,3.141-7,7c0,1.105,0.896,2,2,2s2-0.895,2-2c0-1.654,1.346-3,3-3c1.654,0,3,1.346,3.005,2.911
	c-0.087,0.531-1.171,2.418-2.455,2.963c-1.208,0.512-1.993,1.647-2.341,2.807L1.685,30.229c-0.074,0.038-0.146,0.081-0.213,0.129
	c-1.273,0.885-1.781,2.461-1.293,4.018C0.67,35.945,2.05,37,3.612,37h40c1.561,0,2.94-1.055,3.433-2.625
	C47.532,32.819,47.026,31.242,45.754,30.358z M5.014,33l18.599-9.742L42.211,33H5.014z"/>
</svg>
