<?xml version="1.0" encoding="utf-8"?>
<!-- Generator: Adobe Illustrator 17.0.0, SVG Export Plug-In . SVG Version: 6.00 Build 0)  -->
<!DOCTYPE svg PUBLIC "-//W3C//DTD SVG 1.1//EN" "http://www.w3.org/Graphics/SVG/1.1/DTD/svg11.dtd">
<svg version="1.1" id="Layer_2" xmlns="http://www.w3.org/2000/svg" xmlns:xlink="http://www.w3.org/1999/xlink" x="0px" y="0px"
	 width="48px" height="48px" viewBox="0 0 48 48" enable-background="new 0 0 48 48" xml:space="preserve">
<g>
	<path fill="#010101" d="M35,15.999c-3.888,0-7.198,2.482-8.453,5.941c-0.694-0.579-1.574-0.941-2.547-0.941
		c-0.972,0-1.853,0.362-2.547,0.941c-1.256-3.459-4.566-5.941-8.453-5.941c-4.963,0-9,4.037-9,9C4,29.962,8.037,34,13,34
		c4.963,0,9-4.038,9-9.001c0-1.102,0.897-2,2-2c1.102,0,2,0.898,2,2C26,29.962,30.037,34,35,34c4.963,0,9-4.038,9-9.001
		C44,20.036,39.963,15.999,35,15.999z"/>
	<path fill="#010101" d="M2.502,19.094C2,18.865,1.407,19.085,1.176,19.586C0.395,21.287,0,23.108,0,24.999c0,0.553,0.447,1,1,1
		c0.553,0,1-0.447,1-1c0-1.601,0.334-3.142,0.994-4.579C3.225,19.918,3.004,19.324,2.502,19.094z"/>
	<path fill="#010101" d="M46.821,19.587c-0.229-0.502-0.822-0.725-1.325-0.493c-0.503,0.229-0.723,0.823-0.493,1.325
		C45.664,21.864,46,23.404,46,24.999c0,0.553,0.447,1,1,1c0.553,0,1-0.447,1-1C48,23.115,47.603,21.294,46.821,19.587z"/>
</g>
</svg>
