<?xml version="1.0" encoding="utf-8"?>
<!-- Generator: Adobe Illustrator 17.0.0, SVG Export Plug-In . SVG Version: 6.00 Build 0)  -->
<!DOCTYPE svg PUBLIC "-//W3C//DTD SVG 1.1//EN" "http://www.w3.org/Graphics/SVG/1.1/DTD/svg11.dtd">
<svg version="1.1" id="Layer_1" xmlns="http://www.w3.org/2000/svg" xmlns:xlink="http://www.w3.org/1999/xlink" x="0px" y="0px"
	 width="48px" height="48px" viewBox="0 0 48 48" enable-background="new 0 0 48 48" xml:space="preserve">
<g>
	<path fill="#010101" d="M32.5,1.122c-6.065,0-11,4.935-11,11c0,6.065,4.935,11,11,11s11-4.935,11-11
		C43.5,6.057,38.566,1.122,32.5,1.122z M32.5,19.122c-0.553,0-1-0.448-1-1c0-0.552,0.447-1,1-1c2.757,0,5-2.243,5-5
		c0-0.552,0.447-1,1-1c0.553,0,1,0.448,1,1C39.5,15.982,36.36,19.122,32.5,19.122z"/>
	<circle fill="#010101" cx="47" cy="11.122" r="1"/>
	<path fill="#010101" d="M46.995,13c-0.553,0-1,0.448-1,1v32c0,0.552,0.447,1,1,1c0.553,0,1-0.448,1-1V14
		C47.995,13.448,47.548,13,46.995,13z"/>
	<path fill="#010101" d="M38.787,38.917c-0.455-0.251-1.023-0.118-1.314,0.311c-0.77,1.13-2.043,1.804-3.404,1.804
		c-2.27,0-4.117-1.848-4.117-4.12c0-3.981-3.064-6.064-6.091-6.064c-1.437,0-2.8,0.451-3.867,1.261
		c-1.066-0.81-2.429-1.261-3.865-1.261c-3.027,0-6.091,2.083-6.091,6.064c0,2.272-1.848,4.12-4.119,4.12
		c-1.362,0-2.634-0.674-3.401-1.804c-0.291-0.428-0.861-0.562-1.313-0.311c-0.453,0.252-0.638,0.808-0.427,1.28
		c1.877,4.214,5.527,6.631,10.015,6.631c3.559,0,7.026-1.557,9.202-4.054c2.176,2.497,5.644,4.054,9.203,4.054
		c4.487,0,8.139-2.417,10.016-6.631C39.424,39.725,39.239,39.17,38.787,38.917z"/>
</g>
</svg>
