<?xml version="1.0" encoding="utf-8"?>
<!-- Generator: Adobe Illustrator 17.0.0, SVG Export Plug-In . SVG Version: 6.00 Build 0)  -->
<!DOCTYPE svg PUBLIC "-//W3C//DTD SVG 1.1//EN" "http://www.w3.org/Graphics/SVG/1.1/DTD/svg11.dtd">
<svg version="1.1" id="Layer_2" xmlns="http://www.w3.org/2000/svg" xmlns:xlink="http://www.w3.org/1999/xlink" x="0px" y="0px"
	 width="48px" height="48px" viewBox="0 0 48 48" enable-background="new 0 0 48 48" xml:space="preserve">
<g>
	<path fill="#010101" d="M20.071,6.205c0.152,0.38,0.519,0.629,0.929,0.629h8c0.409,0,0.776-0.249,0.929-0.629l2-5
		c0.123-0.308,0.085-0.657-0.101-0.932c-0.187-0.275-0.496-0.44-0.828-0.44H19c-0.332,0-0.642,0.165-0.828,0.44
		c-0.186,0.274-0.224,0.624-0.101,0.932L20.071,6.205z"/>
	<path fill="#010101" d="M29.991,8.702C29.925,8.205,29.501,7.833,29,7.833h-8c-0.501,0-0.925,0.371-0.991,0.868l-4,30
		c-0.041,0.309,0.063,0.619,0.284,0.839l8,8c0.187,0.188,0.441,0.293,0.707,0.293c0.266,0,0.519-0.105,0.707-0.293l7.999-8
		c0.221-0.22,0.325-0.53,0.284-0.839L29.991,8.702z"/>
</g>
</svg>
