<?xml version="1.0" encoding="utf-8"?>
<!-- Generator: Adobe Illustrator 17.0.0, SVG Export Plug-In . SVG Version: 6.00 Build 0)  -->
<!DOCTYPE svg PUBLIC "-//W3C//DTD SVG 1.1//EN" "http://www.w3.org/Graphics/SVG/1.1/DTD/svg11.dtd">
<svg version="1.1" id="Layer_1" xmlns="http://www.w3.org/2000/svg" xmlns:xlink="http://www.w3.org/1999/xlink" x="0px" y="0px"
	 width="48px" height="48px" viewBox="0 0 48 48" enable-background="new 0 0 48 48" xml:space="preserve">
<path fill="#010101" d="M45,26h-3v-1c0-10.978-8.193-20.353-19.06-21.807c-1.936-0.26-3.905,0.311-5.407,1.561L16.819,5.35
	C18.027,5.122,19.144,5,20,5c7.477,0,13.825,4.092,17.878,11.521c0.265,0.485,0.086,1.092-0.399,1.357
	C37.327,17.961,37.163,18,37.001,18c-0.355,0-0.697-0.188-0.879-0.521C32.436,10.722,26.711,7,20,7c-2.316,0-7.24,1.112-9.384,2.788
	c-0.15,0.117-0.324,0.167-0.499,0.188c-4.663,3.079-7.798,8.267-8.07,14.195C0.861,24.572,0,25.682,0,27v2c0,1.654,1.348,3,3.005,3
	H4v6c0,2.206,1.795,4,4.002,4c2.207,0,4.002-1.794,4.002-4c0-1.103,0.898-2,2.001-2h21c2.414,0,4.432-1.721,4.896-4H41h4
	c1.654,0,3-1.346,3-3S46.654,26,45,26z M45,30h-5H4.005h-1C2.451,30,2,29.551,2,29v-2c0-0.551,0.451-1,1.005-1H22v1
	c0,0.552,0.447,1,1,1h22c0.552,0,1,0.449,1,1S45.552,30,45,30z"/>
</svg>
