<?xml version="1.0" encoding="utf-8"?>
<!-- Generator: Adobe Illustrator 17.1.0, SVG Export Plug-In . SVG Version: 6.00 Build 0)  -->
<!DOCTYPE svg PUBLIC "-//W3C//DTD SVG 1.0//EN" "http://www.w3.org/TR/2001/REC-SVG-20010904/DTD/svg10.dtd">
<svg version="1.0" id="Layer_1" xmlns="http://www.w3.org/2000/svg" xmlns:xlink="http://www.w3.org/1999/xlink" x="0px" y="0px"
	 width="48px" height="48px" viewBox="0 0 48 48" enable-background="new 0 0 48 48" xml:space="preserve">
<path d="M47.709,18.293l-10.999-11C36.522,7.106,36.269,7,36.003,7h-2.589l-2.707-2.707c-0.015-0.015-0.035-0.02-0.05-0.033
	c-0.069-0.061-0.145-0.111-0.228-0.151c-0.03-0.014-0.057-0.031-0.088-0.042C30.232,4.027,30.119,4,30,4H18
	c-0.119,0-0.232,0.027-0.341,0.066c-0.031,0.011-0.058,0.027-0.088,0.042c-0.083,0.04-0.159,0.09-0.228,0.151
	c-0.015,0.014-0.035,0.019-0.05,0.033L14.586,7h-2.583c-0.266,0-0.519,0.106-0.707,0.293l-11,11c-0.391,0.391-0.391,1.023,0,1.414
	l5.999,6c0.375,0.375,1.039,0.375,1.414,0L11,22.415V45c0,0.553,0.447,1,1,1h24c0.553,0,1-0.447,1-1V22.413l3.295,3.294
	c0.391,0.391,1.024,0.391,1.414,0l6-6C48.1,19.316,48.1,18.684,47.709,18.293z M27.586,6L24,9.586L20.414,6H27.586z M21,12.586
	L16.414,8L18,6.414L22.586,11L21,12.586z M24.003,22c-0.552,0-1-0.447-1-1L23,11c0-0.552,0.447-1,1-1c0.552,0,1,0.447,1,1l0.003,10
	C25.003,21.552,24.556,22,24.003,22z M27,12.586L25.414,11L30,6.414L31.586,8L27,12.586z"/>
</svg>
