<?xml version="1.0" encoding="utf-8"?>
<!-- Generator: Adobe Illustrator 17.0.0, SVG Export Plug-In . SVG Version: 6.00 Build 0)  -->
<!DOCTYPE svg PUBLIC "-//W3C//DTD SVG 1.1//EN" "http://www.w3.org/Graphics/SVG/1.1/DTD/svg11.dtd">
<svg version="1.1" id="Layer_2" xmlns="http://www.w3.org/2000/svg" xmlns:xlink="http://www.w3.org/1999/xlink" x="0px" y="0px"
	 width="48px" height="48px" viewBox="0 0 48 48" enable-background="new 0 0 48 48" xml:space="preserve">
<path fill="#010101" d="M47.707,17.126l-8.072-8.07c-2.048-2.048-4.884-3.223-7.779-3.223H30H18h-1.859
	c-2.938,0-5.699,1.145-7.777,3.223l-8.07,8.07c-0.391,0.391-0.391,1.024,0,1.414l6,6c0.391,0.391,1.023,0.391,1.414,0L11,21.248
	v21.586c0,0.553,0.447,1,1,1h24c0.553,0,1-0.447,1-1V21.248l3.293,3.293c0.391,0.391,1.023,0.391,1.414,0l6-6
	C47.894,18.353,48,18.099,48,17.833C48,17.568,47.894,17.314,47.707,17.126z M24,11.833c-2.415,0-4.435-1.721-4.899-4h9.799
	C28.435,10.113,26.415,11.833,24,11.833z"/>
</svg>
