<?xml version="1.0" encoding="utf-8"?>
<!-- Generator: Adobe Illustrator 17.0.0, SVG Export Plug-In . SVG Version: 6.00 Build 0)  -->
<!DOCTYPE svg PUBLIC "-//W3C//DTD SVG 1.1//EN" "http://www.w3.org/Graphics/SVG/1.1/DTD/svg11.dtd">
<svg version="1.1" id="Layer_2" xmlns="http://www.w3.org/2000/svg" xmlns:xlink="http://www.w3.org/1999/xlink" x="0px" y="0px"
	 width="48px" height="48px" viewBox="0 0 48 48" enable-background="new 0 0 48 48" xml:space="preserve">
<g>
	<path fill="#010101" d="M47,5.833H1c-0.553,0-1,0.447-1,1v3h48v-3C48,6.281,47.553,5.833,47,5.833z"/>
	<path fill="#010101" d="M40.1,11.833H25c0,2.206-1.794,4-4,4h-6c-0.825,0-0.973,1.808-0.996,2.706l4.328,1.546l2.961-2.959
		c0.391-0.391,1.023-0.391,1.414,0c0.391,0.391,0.391,1.024,0,1.414l-2.29,2.289l1.681,0.601c0.048-0.107,0.11-0.21,0.198-0.299
		l2.996-3.004c0.391-0.392,1.023-0.391,1.414-0.002c0.392,0.39,0.392,1.024,0.002,1.414l-2.601,2.608l4.557,1.628
		c0.109,0.039,0.223,0.059,0.336,0.059c0.203,0,0.405-0.062,0.576-0.183C29.842,23.463,30,23.159,30,22.833c0-0.807,1.907-2,6-2
		c3.406,0,6,1.333,6,2c0,0.553,0.447,1,1,1h2c1.654,0,3-1.346,3-3v-3C44.546,17.833,40.728,15.326,40.1,11.833z"/>
	<path fill="#010101" d="M12.041,17.838c0.268-3.449,1.931-4.005,2.959-4.005h6c1.102,0,2-0.897,2-2H0.032
		c0.151,1.095,0.898,2.038,1.958,2.415L12.041,17.838z"/>
	<path fill="#010101" d="M48,15.833v-4h-5.856C42.804,14.121,45.618,15.833,48,15.833z"/>
	<path fill="#010101" d="M27,33.833c-1.103,0-2,0.898-2,2h22.968c-0.151-1.095-0.898-2.037-1.958-2.415l-10.051-3.59
		c-0.268,3.449-1.931,4.005-2.959,4.005H27z"/>
	<path fill="#010101" d="M0,31.833v4h5.856C5.196,33.546,2.381,31.833,0,31.833z"/>
	<path fill="#010101" d="M7.9,35.833H23c0-2.206,1.794-4,4-4h6c0.825,0,0.973-1.808,0.996-2.706l-4.328-1.546l-2.96,2.958
		c-0.195,0.195-0.451,0.293-0.707,0.293c-0.256,0-0.512-0.098-0.707-0.293c-0.391-0.39-0.391-1.024,0-1.414l2.29-2.289l-1.681-0.601
		c-0.048,0.107-0.11,0.21-0.198,0.299l-2.996,3.004c-0.195,0.196-0.452,0.294-0.708,0.294c-0.256,0-0.511-0.098-0.706-0.292
		c-0.392-0.389-0.392-1.023-0.002-1.414l2.601-2.608l-4.557-1.628c-0.305-0.107-0.646-0.062-0.912,0.124
		C18.158,24.204,18,24.508,18,24.833c0,0.807-1.907,2-6,2c-3.406,0-6-1.333-6-2c0-0.553-0.447-1-1-1H3c-1.654,0-3,1.346-3,3v3
		C3.454,29.833,7.271,32.34,7.9,35.833z"/>
	<path fill="#010101" d="M0,40.833c0,0.553,0.447,1,1,1h46c0.553,0,1-0.447,1-1v-3H0V40.833z"/>
</g>
</svg>
