<?xml version="1.0" encoding="utf-8"?>
<!-- Generator: Adobe Illustrator 17.0.0, SVG Export Plug-In . SVG Version: 6.00 Build 0)  -->
<!DOCTYPE svg PUBLIC "-//W3C//DTD SVG 1.1//EN" "http://www.w3.org/Graphics/SVG/1.1/DTD/svg11.dtd">
<svg version="1.1" id="Layer_1" xmlns="http://www.w3.org/2000/svg" xmlns:xlink="http://www.w3.org/1999/xlink" x="0px" y="0px"
	 width="48px" height="48px" viewBox="0 0 48 48" enable-background="new 0 0 48 48" xml:space="preserve">
<g>
	<path fill="#010101" d="M43.167,1c-0.553,0-1,0.448-1,1v2c0,0.552,0.447,1,1,1c0.553,0,1-0.448,1-1V2
		C44.167,1.448,43.719,1,43.167,1z"/>
	<path fill="#010101" d="M29.172,35h4c2.762,0,5.226-2.23,5.843-5.031C39.067,29.978,39.113,30,39.167,30c0.553,0,1-0.448,1-1v-4
		c0-0.552-0.447-1-1-1c-0.125,0-0.243,0.029-0.353,0.071C37.678,19.954,33.854,17,29.172,17h-7.005c-0.553,0-1,0.448-1,1v8.622
		C21.167,31.164,24.833,35,29.172,35z"/>
	<path fill="#010101" d="M20.167,26.622V18c0-0.552-0.447-1-1-1h-6.995c-4.687,0-8.515,2.954-9.651,7.071
		C2.41,24.029,2.292,24,2.167,24c-0.553,0-1,0.448-1,1v4c0,0.552,0.447,1,1,1c0.054,0,0.1-0.022,0.152-0.031
		C2.936,32.77,5.405,35,8.172,35h4C16.506,35,20.167,31.164,20.167,26.622z"/>
	<path fill="#010101" d="M43.167,7c-0.553,0-1,0.448-1,1v22.622C42.167,36.248,37.59,41,32.172,41h-4.033
		c-0.312-3.017-2.869-5.378-5.967-5.378S16.516,37.983,16.204,41h-3.037c-0.553,0-1,0.448-1,1s0.447,1,1,1h3.171
		c0.625,2.645,3,4.622,5.834,4.622c2.834,0,5.209-1.977,5.834-4.622h4.166c6.502,0,11.995-5.668,11.995-12.378V8
		C44.167,7.448,43.719,7,43.167,7z"/>
</g>
</svg>
