<?xml version="1.0" encoding="utf-8"?>
<!-- Generator: Adobe Illustrator 17.1.0, SVG Export Plug-In . SVG Version: 6.00 Build 0)  -->
<!DOCTYPE svg PUBLIC "-//W3C//DTD SVG 1.0//EN" "http://www.w3.org/TR/2001/REC-SVG-20010904/DTD/svg10.dtd">
<svg version="1.0" id="Layer_1" xmlns="http://www.w3.org/2000/svg" xmlns:xlink="http://www.w3.org/1999/xlink" x="0px" y="0px"
	 width="48px" height="48px" viewBox="0 0 48 48" enable-background="new 0 0 48 48" xml:space="preserve">
<path d="M39,1H28c0-0.553-0.447-1-1-1h-6c-0.553,0-1,0.447-1,1H9C8.447,1,8,1.447,8,2v5v5.001C8.001,12.001,8.002,12,8.003,12
	c3.005,0,6.266-2.972,6.886-6H10V3h10v3h-3.079c-0.605,4.112-4.794,8-8.918,8C8.002,14,8.001,13.999,8,13.999V47
	c0,0.553,0.447,1,1,1h13c0.553,0,1-0.447,1-1V19c0-0.552,0.448-1,1-1s1,0.448,1,1v28c0,0.553,0.447,1,1,1h13c0.553,0,1-0.447,1-1V14
	c-4.123-0.002-8.31-3.889-8.915-8H28V3h10v3h-4.883c0.62,3.027,3.879,5.998,6.883,6V7V2C40,1.447,39.553,1,39,1z M26,5h-4V2h4V5z"/>
</svg>
