<?xml version="1.0" encoding="utf-8"?>
<!-- Generator: Adobe Illustrator 17.0.0, SVG Export Plug-In . SVG Version: 6.00 Build 0)  -->
<!DOCTYPE svg PUBLIC "-//W3C//DTD SVG 1.1//EN" "http://www.w3.org/Graphics/SVG/1.1/DTD/svg11.dtd">
<svg version="1.1" id="Layer_2" xmlns="http://www.w3.org/2000/svg" xmlns:xlink="http://www.w3.org/1999/xlink" x="0px" y="0px"
	 width="48px" height="48px" viewBox="0 0 48 48" enable-background="new 0 0 48 48" xml:space="preserve">
<g>
	<path fill="#010101" d="M28,39.833c0,1.104,0.895,2,2,2c1.104,0,2-0.896,2-2v-31c0-4.963-4.037-9-9-9c-4.963,0-9,4.037-9,9
		c0,1.104,0.895,2,2,2c1.104,0,2-0.896,2-2c0-2.757,2.243-5,5-5c2.757,0,5,2.243,5,5V39.833z"/>
	<path fill="#010101" d="M31,43.833h-2c-1.105,0-2,0.896-2,2s0.895,2,2,2h2c1.104,0,2-0.896,2-2S32.104,43.833,31,43.833z"/>
</g>
</svg>
