<?xml version="1.0" encoding="utf-8"?>
<!-- Generator: Adobe Illustrator 17.0.0, SVG Export Plug-In . SVG Version: 6.00 Build 0)  -->
<!DOCTYPE svg PUBLIC "-//W3C//DTD SVG 1.1//EN" "http://www.w3.org/Graphics/SVG/1.1/DTD/svg11.dtd">
<svg version="1.1" id="Layer_1" xmlns="http://www.w3.org/2000/svg" xmlns:xlink="http://www.w3.org/1999/xlink" x="0px" y="0px"
	 width="48px" height="48px" viewBox="0 0 48 48" enable-background="new 0 0 48 48" xml:space="preserve">
<path fill="#231F20" d="M37.256,14.013C34.673,9.125,29.54,6,24,6c-7.556,0-13.882,5.639-14.853,13.024
	c-0.22-0.017-0.44-0.025-0.659-0.025C3.808,18.999,0,22.812,0,27.5c0,4.355,2.38,6.438,4.378,7.418C6.475,35.948,8.579,36,8.979,36
	H38l0.129-0.008C38.228,35.979,48,34.595,48,25C48,19.019,43.202,14.139,37.256,14.013z M37.929,34H8.988l-0.009,1v-1
	C8.264,34,2,33.818,2,27.5c0-3.585,2.911-6.501,6.488-6.501c0.45,0,0.904,0.047,1.351,0.14l1.135,0.237l0.068-1.157
	C11.446,13.367,17.138,8,24,8c4.985,0,9.592,2.923,11.737,7.446l0.282,0.595l0.658-0.024C41.783,15.82,46,19.93,46,25
	C46,32.561,38.715,33.88,37.929,34z"/>
</svg>
