<?xml version="1.0" encoding="utf-8"?>
<!-- Generator: Adobe Illustrator 17.0.0, SVG Export Plug-In . SVG Version: 6.00 Build 0)  -->
<!DOCTYPE svg PUBLIC "-//W3C//DTD SVG 1.1//EN" "http://www.w3.org/Graphics/SVG/1.1/DTD/svg11.dtd">
<svg version="1.1" id="Layer_1" xmlns="http://www.w3.org/2000/svg" xmlns:xlink="http://www.w3.org/1999/xlink" x="0px" y="0px"
	 width="48px" height="48px" viewBox="0 0 48 48" enable-background="new 0 0 48 48" xml:space="preserve">
<g>
	<path fill="#231F20" d="M42.764,15.215c-1.919-1.849-4.405-2.88-7.058-2.941C33.226,7.597,28.307,4.609,23,4.609
		c-7.235,0-13.295,5.389-14.243,12.455c-2.067-0.148-4.109,0.487-5.74,1.812C1.1,20.434,0,22.745,0,25.217
		c0,6.897,6.059,7.973,7.916,8.138c0.553,0.048,1.036-0.357,1.085-0.907c0.049-0.55-0.357-1.036-0.907-1.085
		C5.818,31.16,2,30.092,2,25.217c0-1.866,0.831-3.612,2.278-4.789c1.45-1.179,3.335-1.635,5.168-1.252l1.135,0.237l0.068-1.157
		C11.035,11.725,16.46,6.609,23,6.609c4.753,0,9.144,2.786,11.188,7.097l0.282,0.595l0.658-0.024
		c2.356-0.095,4.567,0.758,6.248,2.378C43.068,18.286,44,20.477,44,22.826c0,7.437-7.41,8.529-7.739,8.573
		c-0.547,0.073-0.932,0.574-0.861,1.121c0.065,0.504,0.495,0.871,0.99,0.871c0.043,0,0.087-0.002,0.13-0.008
		C36.615,33.37,46,32.042,46,22.826C46,19.929,44.851,17.227,42.764,15.215z"/>
	<path fill="#231F20" d="M22,22c-6.065,0-11,4.935-11,11s4.935,11,11,11s11-4.935,11-11S28.065,22,22,22z M22,42
		c-4.962,0-9-4.038-9-9s4.038-9,9-9s9,4.038,9,9S26.962,42,22,42z"/>
	<path fill="#231F20" d="M25.293,30.293L21,34.586l-2.293-2.293c-0.391-0.391-1.023-0.391-1.414,0c-0.391,0.391-0.391,1.023,0,1.414
		l3,3C20.488,36.902,20.744,37,21,37s0.512-0.098,0.707-0.293l5-5c0.391-0.391,0.391-1.023,0-1.414
		C26.316,29.902,25.684,29.902,25.293,30.293z"/>
</g>
</svg>
