<?xml version="1.0" encoding="utf-8"?>
<!-- Generator: Adobe Illustrator 17.0.0, SVG Export Plug-In . SVG Version: 6.00 Build 0)  -->
<!DOCTYPE svg PUBLIC "-//W3C//DTD SVG 1.1//EN" "http://www.w3.org/Graphics/SVG/1.1/DTD/svg11.dtd">
<svg version="1.1" id="Layer_1" xmlns="http://www.w3.org/2000/svg" xmlns:xlink="http://www.w3.org/1999/xlink" x="0px" y="0px"
	 width="48px" height="48px" viewBox="0 0 48 48" enable-background="new 0 0 48 48" xml:space="preserve">
<g>
	<path fill="#231F20" d="M42.765,15.608c-1.919-1.851-4.405-2.882-7.059-2.943C33.225,7.988,28.306,5,23,5
		C15.764,5,9.704,10.389,8.756,17.456c-2.062-0.149-4.109,0.487-5.739,1.812C1.1,20.826,0,23.137,0,25.609
		c0,6.865,6.023,7.961,7.868,8.133c0.554,0.048,1.038-0.353,1.089-0.902c0.052-0.55-0.352-1.038-0.902-1.089
		C5.793,31.54,2,30.461,2,25.609c0-1.867,0.83-3.612,2.278-4.789c1.45-1.179,3.331-1.637,5.168-1.253l1.134,0.237l0.068-1.157
		C11.034,12.116,16.459,7,23,7c4.752,0,9.144,2.786,11.187,7.099l0.282,0.595l0.658-0.024c2.358-0.098,4.569,0.758,6.25,2.379
		C43.068,18.679,44,20.87,44,23.218c0,7.444-7.424,8.531-7.74,8.574c-0.546,0.072-0.931,0.573-0.86,1.12
		c0.066,0.504,0.495,0.871,0.99,0.871c0.043,0,0.087-0.003,0.13-0.009C36.615,33.762,46,32.433,46,23.217
		C46,20.321,44.851,17.619,42.765,15.608z"/>
	<path fill="#231F20" d="M22,22.391c-6.065,0-11,4.935-11,11s4.935,11,11,11s11-4.935,11-11S28.065,22.391,22,22.391z M22,42.391
		c-4.962,0-9-4.038-9-9s4.038-9,9-9s9,4.038,9,9S26.962,42.391,22,42.391z"/>
	<path fill="#231F20" d="M27,32H17c-0.552,0-1,0.448-1,1s0.448,1,1,1h10c0.552,0,1-0.448,1-1S27.552,32,27,32z"/>
</g>
</svg>
