<?xml version="1.0" encoding="utf-8"?>
<!-- Generator: Adobe Illustrator 17.0.0, SVG Export Plug-In . SVG Version: 6.00 Build 0)  -->
<!DOCTYPE svg PUBLIC "-//W3C//DTD SVG 1.1//EN" "http://www.w3.org/Graphics/SVG/1.1/DTD/svg11.dtd">
<svg version="1.1" id="Layer_1" xmlns="http://www.w3.org/2000/svg" xmlns:xlink="http://www.w3.org/1999/xlink" x="0px" y="0px"
	 width="48px" height="48px" viewBox="0 0 48 48" enable-background="new 0 0 48 48" xml:space="preserve">
<g>
	<path fill="#231F20" d="M42.765,14.824c-1.919-1.85-4.405-2.881-7.059-2.942C33.226,7.205,28.307,4.217,23,4.217
		c-7.235,0-13.296,5.389-14.244,12.456c-2.056-0.146-4.107,0.486-5.739,1.812C1.1,20.043,0,22.354,0,24.826
		c0,6.944,6.108,7.989,7.98,8.143c0.544,0.05,1.033-0.364,1.079-0.914c0.045-0.55-0.364-1.034-0.915-1.079
		C6.297,30.823,2,29.918,2,24.826c0-1.867,0.83-3.613,2.278-4.79c1.45-1.178,3.328-1.637,5.168-1.252l1.134,0.237l0.068-1.157
		C11.035,11.333,16.46,6.217,23,6.217c4.753,0,9.144,2.786,11.189,7.098l0.282,0.595l0.658-0.024c2.329-0.1,4.567,0.759,6.248,2.379
		c1.691,1.63,2.623,3.822,2.623,6.17c0,7.444-7.424,8.531-7.74,8.574c-0.546,0.072-0.93,0.573-0.859,1.12
		C35.466,32.633,35.896,33,36.391,33c0.043,0,0.086-0.002,0.129-0.008C36.615,32.98,46,31.651,46,22.435
		C46,19.538,44.851,16.835,42.765,14.824z"/>
	<path fill="#231F20" d="M22,20.391c-6.065,0-11,4.935-11,11s4.935,11,11,11s11-4.935,11-11S28.065,20.391,22,20.391z M22,40.391
		c-4.963,0-9-4.038-9-9c0-4.962,4.037-9,9-9s9,4.038,9,9S26.963,40.391,22,40.391z"/>
	<path fill="#231F20" d="M26.241,27.149c-0.39-0.391-1.023-0.391-1.414,0l-2.828,2.828l-2.828-2.828
		c-0.391-0.391-1.023-0.391-1.414,0s-0.391,1.023,0,1.414l2.828,2.828l-2.828,2.828c-0.391,0.391-0.391,1.023,0,1.414
		c0.195,0.195,0.451,0.293,0.707,0.293s0.512-0.098,0.707-0.293l2.828-2.828l2.828,2.828c0.195,0.195,0.451,0.293,0.707,0.293
		s0.512-0.098,0.707-0.293c0.391-0.39,0.391-1.023,0-1.414l-2.828-2.828l2.828-2.828C26.632,28.173,26.632,27.54,26.241,27.149z"/>
</g>
</svg>
