<?xml version="1.0" encoding="utf-8"?>
<!-- Generator: Adobe Illustrator 17.0.0, SVG Export Plug-In . SVG Version: 6.00 Build 0)  -->
<!DOCTYPE svg PUBLIC "-//W3C//DTD SVG 1.1//EN" "http://www.w3.org/Graphics/SVG/1.1/DTD/svg11.dtd">
<svg version="1.1" id="Layer_1" xmlns="http://www.w3.org/2000/svg" xmlns:xlink="http://www.w3.org/1999/xlink" x="0px" y="0px"
	 width="48px" height="48px" viewBox="0 0 48 48" enable-background="new 0 0 48 48" xml:space="preserve">
<g>
	<path fill="#231F20" d="M42.764,15.606c-1.918-1.849-4.403-2.88-7.056-2.941C33.226,7.988,28.307,5,23,5
		C15.766,5,9.706,10.389,8.758,17.455c-2.072-0.151-4.11,0.487-5.741,1.814C1.1,20.827,0,23.138,0,25.609
		c0,6.667,5.795,7.886,7.571,8.101c0.041,0.005,0.081,0.007,0.122,0.007c0.498,0,0.93-0.372,0.991-0.879
		c0.066-0.549-0.325-1.047-0.873-1.113C5.641,31.462,2,30.318,2,25.609c0-1.866,0.831-3.612,2.279-4.789
		c1.451-1.179,3.335-1.635,5.169-1.253l1.134,0.237l0.068-1.157C11.037,12.116,16.461,7,23,7c4.753,0,9.145,2.786,11.19,7.097
		l0.282,0.595l0.658-0.024c2.349-0.088,4.566,0.758,6.247,2.378C43.068,18.677,44,20.868,44,23.217c0,5.048-3.32,7.223-6.106,8.159
		c-0.524,0.176-0.805,0.743-0.629,1.267c0.176,0.523,0.742,0.807,1.267,0.629C41.321,32.335,46,29.781,46,23.217
		C46,20.32,44.851,17.618,42.764,15.606z"/>
	<path fill="#231F20" d="M28.602,37.591c-1.338,1.781-3.38,2.802-5.602,2.802c-3.713,0-6.751-2.907-6.978-6.564l1.271,1.271
		c0.195,0.195,0.451,0.293,0.707,0.293s0.512-0.098,0.707-0.293c0.391-0.391,0.391-1.023,0-1.414l-3-3c0,0,0,0,0,0L15,29.979
		l-3.707,3.707c-0.391,0.391-0.391,1.023,0,1.414c0.391,0.391,1.023,0.391,1.414,0l1.313-1.313c0.208,4.779,4.151,8.606,8.98,8.606
		c2.857,0,5.482-1.313,7.201-3.601c0.332-0.442,0.242-1.068-0.199-1.4C29.56,37.061,28.933,37.149,28.602,37.591z"/>
	<path fill="#231F20" d="M33.293,31.686l-1.313,1.313c-0.208-4.779-4.151-8.606-8.98-8.606c-2.857,0-5.481,1.312-7.199,3.599
		c-0.332,0.442-0.243,1.068,0.199,1.4c0.441,0.332,1.069,0.243,1.4-0.199c1.337-1.779,3.378-2.8,5.6-2.8
		c3.713,0,6.751,2.907,6.978,6.564l-1.271-1.271c-0.391-0.391-1.023-0.391-1.414,0c-0.391,0.391-0.391,1.023,0,1.414L31,36.807
		l3.707-3.707c0.391-0.391,0.391-1.023,0-1.414C34.316,31.295,33.684,31.295,33.293,31.686z"/>
</g>
</svg>
