<?xml version="1.0" encoding="utf-8"?>
<!-- Generator: Adobe Illustrator 17.0.0, SVG Export Plug-In . SVG Version: 6.00 Build 0)  -->
<!DOCTYPE svg PUBLIC "-//W3C//DTD SVG 1.1//EN" "http://www.w3.org/Graphics/SVG/1.1/DTD/svg11.dtd">
<svg version="1.1" id="Layer_1" xmlns="http://www.w3.org/2000/svg" xmlns:xlink="http://www.w3.org/1999/xlink" x="0px" y="0px"
	 width="48px" height="48px" viewBox="0 0 48 48" enable-background="new 0 0 48 48" xml:space="preserve">
<g>
	<path fill="#010101" d="M42.764,18.217c-1.919-1.851-4.405-2.882-7.058-2.943C33.225,10.597,28.307,7.609,23,7.609
		c-7.235,0-13.297,5.389-14.245,12.454c-2.069-0.148-4.108,0.487-5.738,1.813C1.1,23.434,0,25.745,0,28.217
		c0,2.367,0.731,4.286,2.173,5.707c2.429,2.393,6.021,2.467,6.442,2.467c0.019,0,0.031,0,0.037,0h5.727c0.553,0,1-0.448,1-1
		s-0.447-1-1-1H8.638c-0.037-0.007-3.117,0.025-5.061-1.892C2.53,31.468,2,30.027,2,28.217c0-1.867,0.83-3.612,2.277-4.789
		c1.451-1.179,3.336-1.635,5.168-1.252l1.134,0.237l0.068-1.157C11.034,14.725,16.46,9.609,23,9.609
		c4.753,0,9.144,2.786,11.188,7.097l0.282,0.595l0.658-0.024c2.337-0.092,4.567,0.758,6.249,2.379
		C43.068,21.287,44,23.478,44,25.826c0,7.187-6.919,8.448-7.68,8.565h-4.724c-0.553,0-1,0.448-1,1s0.447,1,1,1h4.795l0.129-0.008
		C36.615,36.37,46,35.042,46,25.826C46,22.931,44.851,20.228,42.764,18.217z"/>
	<path fill="#010101" d="M23.708,23.294c-0.092-0.093-0.203-0.166-0.326-0.217c-0.245-0.101-0.52-0.101-0.765,0
		c-0.123,0.051-0.234,0.124-0.326,0.217l-5.999,5.999c-0.391,0.391-0.391,1.023,0,1.414c0.391,0.391,1.023,0.391,1.414,0L22,26.414
		V46c0,0.552,0.447,1,1,1s1-0.448,1-1V26.414l4.293,4.293C28.488,30.902,28.744,31,29,31s0.512-0.098,0.707-0.293
		c0.391-0.391,0.391-1.023,0-1.414L23.708,23.294z"/>
</g>
</svg>
