<?xml version="1.0" encoding="utf-8"?>
<!-- Generator: Adobe Illustrator 17.0.0, SVG Export Plug-In . SVG Version: 6.00 Build 0)  -->
<!DOCTYPE svg PUBLIC "-//W3C//DTD SVG 1.1//EN" "http://www.w3.org/Graphics/SVG/1.1/DTD/svg11.dtd">
<svg version="1.1" id="Layer_1" xmlns="http://www.w3.org/2000/svg" xmlns:xlink="http://www.w3.org/1999/xlink" x="0px" y="0px"
	 width="48px" height="48px" viewBox="0 0 48 48" enable-background="new 0 0 48 48" xml:space="preserve">
<g>
	<path fill="#231F20" d="M42.764,14.608c-1.918-1.851-4.405-2.882-7.059-2.943C33.225,6.988,28.307,4,23,4
		C15.764,4,9.703,9.389,8.756,16.456c-2.07-0.152-4.108,0.487-5.739,1.812C1.1,19.826,0,22.137,0,24.609
		c0,2.366,0.731,4.286,2.173,5.706c2.429,2.393,6.017,2.468,6.455,2.468c0.019,0,0.032,0,0.039,0
		c0.552-0.009,0.993-0.463,0.985-1.015c-0.008-0.547-0.454-0.985-1-0.985c-0.005,0-0.01,0-0.015,0
		c-0.033,0.007-3.115,0.025-5.061-1.892C2.53,27.86,2,26.419,2,24.609c0-1.867,0.83-3.612,2.278-4.789
		c1.45-1.179,3.337-1.637,5.168-1.253l1.134,0.237l0.068-1.157C11.034,11.116,16.459,6,23,6c4.752,0,9.144,2.786,11.188,7.098
		l0.282,0.595l0.658-0.024c2.334-0.095,4.567,0.758,6.249,2.379C43.068,17.678,44,19.869,44,22.217c0,7.44-7.415,8.531-7.74,8.574
		c-0.546,0.072-0.931,0.573-0.86,1.12c0.071,0.548,0.567,0.937,1.12,0.863C36.615,32.762,46,31.433,46,22.217
		C46,19.321,44.852,16.619,42.764,14.608z"/>
	<path fill="#231F20" d="M29.424,27.135c-0.477,0.278-0.64,0.889-0.363,1.367C29.676,29.559,30,30.769,30,32c0,3.86-3.141,7-7,7
		s-7-3.14-7-7c0-3.713,2.908-6.751,6.564-6.978l-1.271,1.271c-0.391,0.391-0.391,1.023,0,1.414C21.488,27.902,21.744,28,22,28
		s0.512-0.098,0.707-0.293l2.999-2.999c0.001-0.001,0.001-0.001,0.002-0.002L26.414,24l-0.706-0.706
		c-0.001-0.001-0.001-0.001-0.002-0.002l-2.999-2.999c-0.391-0.391-1.023-0.391-1.414,0c-0.391,0.391-0.391,1.023,0,1.414
		l1.313,1.313C17.826,23.228,14,27.171,14,32c0,4.962,4.037,9,9,9s9-4.038,9-9c0-1.583-0.418-3.14-1.209-4.502
		C30.514,27.021,29.904,26.858,29.424,27.135z"/>
</g>
</svg>
