<?xml version="1.0" encoding="utf-8"?>
<!-- Generator: Adobe Illustrator 17.0.0, SVG Export Plug-In . SVG Version: 6.00 Build 0)  -->
<!DOCTYPE svg PUBLIC "-//W3C//DTD SVG 1.1//EN" "http://www.w3.org/Graphics/SVG/1.1/DTD/svg11.dtd">
<svg version="1.1" id="Layer_1" xmlns="http://www.w3.org/2000/svg" xmlns:xlink="http://www.w3.org/1999/xlink" x="0px" y="0px"
	 width="48px" height="48px" viewBox="0 0 48 48" enable-background="new 0 0 48 48" xml:space="preserve">
<g>
	<path fill="#010101" d="M33.293,26.293L24,35.586V12c0-0.552-0.448-1-1-1s-1,0.448-1,1v23.586l-9.293-9.293
		c-0.391-0.391-1.023-0.391-1.414,0c-0.391,0.391-0.391,1.023,0,1.414l11,11c0.092,0.092,0.203,0.165,0.325,0.216
		C22.74,38.973,22.87,39,23,39s0.26-0.027,0.382-0.077c0.122-0.051,0.233-0.124,0.325-0.216l11-11c0.391-0.391,0.391-1.023,0-1.414
		C34.316,25.902,33.684,25.902,33.293,26.293z"/>
	<path fill="#010101" d="M2.913,44H2v-0.913c0-0.552-0.448-1-1-1s-1,0.448-1,1V45c0,0.552,0.448,1,1,1h1.913c0.552,0,1-0.448,1-1
		S3.465,44,2.913,44z"/>
	<path fill="#010101" d="M45,42.087c-0.552,0-1,0.448-1,1V44h-0.913c-0.552,0-1,0.448-1,1s0.448,1,1,1H45c0.552,0,1-0.448,1-1
		v-1.913C46,42.535,45.552,42.087,45,42.087z"/>
	<path fill="#010101" d="M2.913,0H1C0.448,0,0,0.448,0,1v1.913c0,0.552,0.448,1,1,1s1-0.448,1-1V2h0.913c0.552,0,1-0.448,1-1
		S3.465,0,2.913,0z"/>
	<path fill="#010101" d="M45,0h-1.913c-0.552,0-1,0.448-1,1s0.448,1,1,1H44v0.913c0,0.552,0.448,1,1,1s1-0.448,1-1V1
		C46,0.448,45.552,0,45,0z"/>
	<path fill="#010101" d="M8.652,44H6.739c-0.552,0-1,0.448-1,1s0.448,1,1,1h1.913c0.553,0,1-0.448,1-1S9.204,44,8.652,44z"/>
	<path fill="#010101" d="M23.956,44h-1.913c-0.552,0-1,0.448-1,1s0.448,1,1,1h1.913c0.553,0,1-0.448,1-1S24.508,44,23.956,44z"/>
	<path fill="#010101" d="M16.304,44h-1.913c-0.552,0-1,0.448-1,1s0.448,1,1,1h1.913c0.552,0,1-0.448,1-1S16.856,44,16.304,44z"/>
	<path fill="#010101" d="M31.609,44h-1.913c-0.552,0-1,0.448-1,1s0.448,1,1,1h1.913c0.552,0,1-0.448,1-1S32.161,44,31.609,44z"/>
	<path fill="#010101" d="M39.261,44h-1.913c-0.552,0-1,0.448-1,1s0.448,1,1,1h1.913c0.552,0,1-0.448,1-1S39.813,44,39.261,44z"/>
	<path fill="#010101" d="M8.652,0H6.739c-0.552,0-1,0.448-1,1s0.448,1,1,1h1.913c0.553,0,1-0.448,1-1S9.204,0,8.652,0z"/>
	<path fill="#010101" d="M22.043,2h1.913c0.553,0,1-0.448,1-1s-0.448-1-1-1h-1.913c-0.552,0-1,0.448-1,1S21.491,2,22.043,2z"/>
	<path fill="#010101" d="M14.391,2h1.913c0.552,0,1-0.448,1-1s-0.448-1-1-1h-1.913c-0.552,0-1,0.448-1,1S13.839,2,14.391,2z"/>
	<path fill="#010101" d="M29.696,2h1.913c0.552,0,1-0.448,1-1s-0.448-1-1-1h-1.913c-0.552,0-1,0.448-1,1S29.144,2,29.696,2z"/>
	<path fill="#010101" d="M39.261,0h-1.913c-0.552,0-1,0.448-1,1s0.448,1,1,1h1.913c0.552,0,1-0.448,1-1S39.813,0,39.261,0z"/>
	<path fill="#010101" d="M45,36.348c-0.552,0-1,0.448-1,1v1.913c0,0.552,0.448,1,1,1s1-0.448,1-1v-1.913
		C46,36.796,45.552,36.348,45,36.348z"/>
	<path fill="#010101" d="M45,21.044c-0.552,0-1,0.448-1,1v1.913c0,0.552,0.448,1,1,1s1-0.448,1-1v-1.913
		C46,21.492,45.552,21.044,45,21.044z"/>
	<path fill="#010101" d="M45,28.696c-0.552,0-1,0.448-1,1v1.913c0,0.552,0.448,1,1,1s1-0.448,1-1v-1.913
		C46,29.144,45.552,28.696,45,28.696z"/>
	<path fill="#010101" d="M45,13.391c-0.552,0-1,0.448-1,1v1.913c0,0.552,0.448,1,1,1s1-0.448,1-1v-1.913
		C46,13.839,45.552,13.391,45,13.391z"/>
	<path fill="#010101" d="M45,5.739c-0.552,0-1,0.448-1,1v1.913c0,0.552,0.448,1,1,1s1-0.447,1-1V6.739
		C46,6.187,45.552,5.739,45,5.739z"/>
	<path fill="#010101" d="M1,40.261c0.552,0,1-0.448,1-1v-1.913c0-0.552-0.448-1-1-1s-1,0.448-1,1v1.913
		C0,39.813,0.448,40.261,1,40.261z"/>
	<path fill="#010101" d="M1,24.957c0.552,0,1-0.448,1-1v-1.913c0-0.552-0.448-1-1-1s-1,0.448-1,1v1.913
		C0,24.509,0.448,24.957,1,24.957z"/>
	<path fill="#010101" d="M1,32.609c0.552,0,1-0.448,1-1v-1.913c0-0.552-0.448-1-1-1s-1,0.448-1,1v1.913
		C0,32.161,0.448,32.609,1,32.609z"/>
	<path fill="#010101" d="M1,17.304c0.552,0,1-0.448,1-1v-1.913c0-0.552-0.448-1-1-1s-1,0.448-1,1v1.913
		C0,16.856,0.448,17.304,1,17.304z"/>
	<path fill="#010101" d="M1,9.652c0.552,0,1-0.447,1-1V6.739c0-0.552-0.448-1-1-1s-1,0.448-1,1v1.913C0,9.204,0.448,9.652,1,9.652z"
		/>
</g>
</svg>
