<?xml version="1.0" encoding="utf-8"?>
<!-- Generator: Adobe Illustrator 17.0.0, SVG Export Plug-In . SVG Version: 6.00 Build 0)  -->
<!DOCTYPE svg PUBLIC "-//W3C//DTD SVG 1.1//EN" "http://www.w3.org/Graphics/SVG/1.1/DTD/svg11.dtd">
<svg version="1.1" id="Layer_1" xmlns="http://www.w3.org/2000/svg" xmlns:xlink="http://www.w3.org/1999/xlink" x="0px" y="0px"
	 width="48px" height="48px" viewBox="0 0 48 48" enable-background="new 0 0 48 48" xml:space="preserve">
<g>
	<path fill="#010101" d="M24.293,25.707c0.092,0.092,0.203,0.165,0.325,0.216C24.74,25.973,24.87,26,25,26s0.26-0.027,0.382-0.077
		c0.122-0.051,0.233-0.124,0.325-0.216l10-10c0.391-0.391,0.391-1.023,0-1.414c-0.391-0.391-1.023-0.391-1.414,0L26,22.586V1
		c0-0.552-0.448-1-1-1s-1,0.448-1,1v21.586l-8.293-8.293c-0.391-0.391-1.023-0.391-1.414,0c-0.391,0.391-0.391,1.023,0,1.414
		L24.293,25.707z"/>
	<path fill="#010101" d="M47.923,32.618c-0.051-0.122-0.124-0.232-0.216-0.325l-8-8C39.519,24.106,39.265,24,39,24h-5
		c-0.552,0-1,0.448-1,1s0.448,1,1,1h4.586l6,6H33c-0.552,0-1,0.448-1,1v3H16v-3c0-0.552-0.448-1-1-1H3.414l6-6H16
		c0.552,0,1-0.448,1-1s-0.448-1-1-1H9c-0.265,0-0.52,0.106-0.707,0.293l-8,8c-0.092,0.092-0.165,0.203-0.216,0.325
		C0.026,32.74,0,32.871,0,33.001V47c0,0.552,0.448,1,1,1h46c0.552,0,1-0.448,1-1V33.002C48,32.871,47.974,32.74,47.923,32.618z
		 M46,46H2V34h12v3c0,0.552,0.448,1,1,1h18c0.552,0,1-0.448,1-1v-3h12V46z"/>
</g>
</svg>
