<?xml version="1.0" encoding="utf-8"?>
<!-- Generator: Adobe Illustrator 17.0.0, SVG Export Plug-In . SVG Version: 6.00 Build 0)  -->
<!DOCTYPE svg PUBLIC "-//W3C//DTD SVG 1.1//EN" "http://www.w3.org/Graphics/SVG/1.1/DTD/svg11.dtd">
<svg version="1.1" id="Layer_1" xmlns="http://www.w3.org/2000/svg" xmlns:xlink="http://www.w3.org/1999/xlink" x="0px" y="0px"
	 width="48px" height="48px" viewBox="0 0 48 48" enable-background="new 0 0 48 48" xml:space="preserve">
<g>
	<path fill="#231F20" d="M23.148,33.524C23.33,33.82,23.652,34,24,34s0.67-0.18,0.851-0.476l16-26
		c0.289-0.471,0.143-1.086-0.327-1.376c-0.474-0.29-1.088-0.142-1.376,0.328L24,31.092L8.851,6.476
		c-0.289-0.47-0.904-0.618-1.376-0.328c-0.469,0.29-0.616,0.906-0.327,1.376L23.148,33.524z"/>
	<path fill="#231F20" d="M47,42H1c-0.553,0-1,0.448-1,1s0.447,1,1,1h46c0.553,0,1-0.448,1-1S47.553,42,47,42z"/>
</g>
</svg>
