<?xml version="1.0" encoding="utf-8"?>
<!-- Generator: Adobe Illustrator 17.0.0, SVG Export Plug-In . SVG Version: 6.00 Build 0)  -->
<!DOCTYPE svg PUBLIC "-//W3C//DTD SVG 1.1//EN" "http://www.w3.org/Graphics/SVG/1.1/DTD/svg11.dtd">
<svg version="1.1" id="Layer_1" xmlns="http://www.w3.org/2000/svg" xmlns:xlink="http://www.w3.org/1999/xlink" x="0px" y="0px"
	 width="48px" height="48px" viewBox="0 0 48 48" enable-background="new 0 0 48 48" xml:space="preserve">
<g>
	<path fill="#010101" d="M23.293,39.707C23.488,39.902,23.744,40,24,40s0.512-0.098,0.707-0.293l12-12
		c0.286-0.286,0.372-0.716,0.217-1.09C36.769,26.244,36.404,26,36,26h-6v-5c0-0.552-0.448-1-1-1s-1,0.448-1,1v6c0,0.552,0.448,1,1,1
		h4.586L24,37.586L14.414,28H19c0.552,0,1-0.448,1-1v-6c0-0.552-0.448-1-1-1s-1,0.448-1,1v5h-6c-0.404,0-0.769,0.244-0.924,0.617
		c-0.155,0.374-0.069,0.804,0.217,1.09L23.293,39.707z"/>
	<path fill="#010101" d="M29,18c0.552,0,1-0.448,1-1v-4c0-0.552-0.448-1-1-1s-1,0.448-1,1v4C28,17.552,28.448,18,29,18z"/>
	<path fill="#010101" d="M19,18c0.552,0,1-0.448,1-1v-4c0-0.552-0.448-1-1-1s-1,0.448-1,1v4C18,17.552,18.448,18,19,18z"/>
	<path fill="#010101" d="M29,10c0.552,0,1-0.448,1-1V5c0-0.552-0.448-1-1-1s-1,0.448-1,1v4C28,9.552,28.448,10,29,10z"/>
	<path fill="#010101" d="M19,10c0.552,0,1-0.448,1-1V5c0-0.552-0.448-1-1-1s-1,0.448-1,1v4C18,9.552,18.448,10,19,10z"/>
	<path fill="#010101" d="M47,0H1C0.448,0,0,0.448,0,1v46c0,0.552,0.448,1,1,1h46c0.552,0,1-0.448,1-1V1C48,0.448,47.552,0,47,0z
		 M46,46H2V2h44V46z"/>
</g>
</svg>
