<?xml version="1.0" encoding="utf-8"?>
<!-- Generator: Adobe Illustrator 17.0.0, SVG Export Plug-In . SVG Version: 6.00 Build 0)  -->
<!DOCTYPE svg PUBLIC "-//W3C//DTD SVG 1.1//EN" "http://www.w3.org/Graphics/SVG/1.1/DTD/svg11.dtd">
<svg version="1.1" id="Layer_1" xmlns="http://www.w3.org/2000/svg" xmlns:xlink="http://www.w3.org/1999/xlink" x="0px" y="0px"
	 width="48px" height="48px" viewBox="0 0 48 48" enable-background="new 0 0 48 48" xml:space="preserve">
<g>
	<path fill="#231F20" d="M47.922,5.949c-0.051-0.122-0.124-0.231-0.216-0.323l-5.999-5.999C41.519-0.561,41.266-0.666,41-0.666h-8
		c-0.553,0-1,0.448-1,1v18c0,0.552,0.447,1,1,1h14c0.553,0,1-0.448,1-1v-12C48,6.2,47.973,6.07,47.922,5.949z M44.586,5.334H41
		V1.748L44.586,5.334z M34,17.334v-16h5v5c0,0.552,0.447,1,1,1h6v10H34z"/>
	<path fill="#231F20" d="M16.292,21.04c0.092,0.093,0.203,0.166,0.326,0.217c0.122,0.051,0.252,0.077,0.382,0.077
		c0.13,0,0.26-0.026,0.382-0.077c0.124-0.051,0.236-0.126,0.329-0.22l3.997-3.997c0.391-0.391,0.391-1.023,0-1.414
		c-0.391-0.391-1.023-0.391-1.414,0L18,17.919v-0.585c0-4.962,4.037-9,9-9c0.553,0,1-0.448,1-1s-0.447-1-1-1
		c-6.065,0-11,4.935-11,11v0.585l-2.293-2.292c-0.391-0.391-1.023-0.391-1.414,0c-0.391,0.391-0.391,1.023,0,1.414L16.292,21.04z"/>
	<path fill="#231F20" d="M28,21.334h-3c-0.553,0-1,0.448-1,1s0.447,1,1,1h3c1.102,0,2,0.897,2,2v11.999H2V25.334
		c0-1.103,0.897-2,2-2h4c0.553,0,1-0.448,1-1s-0.447-1-1-1H4c-2.206,0-4,1.794-4,4v14c0,2.206,1.794,4,4,4h11v2h-5
		c-0.553,0-1,0.448-1,1s0.447,1,1,1h12c0.553,0,1-0.448,1-1s-0.447-1-1-1h-5v-2h11c2.206,0,4-1.795,4-4v-14
		C32,23.128,30.206,21.334,28,21.334z M28,41.334H4c-1.103,0-2-0.897-2-2v-0.001h28v0.001C30,40.437,29.102,41.334,28,41.334z"/>
</g>
</svg>
