<?xml version="1.0" encoding="utf-8"?>
<!-- Generator: Adobe Illustrator 17.0.0, SVG Export Plug-In . SVG Version: 6.00 Build 0)  -->
<!DOCTYPE svg PUBLIC "-//W3C//DTD SVG 1.1//EN" "http://www.w3.org/Graphics/SVG/1.1/DTD/svg11.dtd">
<svg version="1.1" id="Layer_1" xmlns="http://www.w3.org/2000/svg" xmlns:xlink="http://www.w3.org/1999/xlink" x="0px" y="0px"
	 width="48px" height="48px" viewBox="0 0 48 48" enable-background="new 0 0 48 48" xml:space="preserve">
<g>
	<path fill="#231F20" d="M23.293,33.707C23.488,33.902,23.744,34,24,34s0.512-0.098,0.707-0.293l16-16
		c0.286-0.286,0.372-0.716,0.217-1.09C40.769,16.244,40.404,16,40,16H8c-0.404,0-0.77,0.244-0.924,0.617
		c-0.155,0.374-0.069,0.804,0.217,1.09L23.293,33.707z M37.586,18L24,31.586L10.414,18H37.586z"/>
	<path fill="#231F20" d="M47,42H1c-0.553,0-1,0.448-1,1s0.447,1,1,1h46c0.553,0,1-0.448,1-1S47.553,42,47,42z"/>
</g>
</svg>
