<?xml version="1.0" encoding="utf-8"?>
<!-- Generator: Adobe Illustrator 17.0.0, SVG Export Plug-In . SVG Version: 6.00 Build 0)  -->
<!DOCTYPE svg PUBLIC "-//W3C//DTD SVG 1.1//EN" "http://www.w3.org/Graphics/SVG/1.1/DTD/svg11.dtd">
<svg version="1.1" id="Layer_1" xmlns="http://www.w3.org/2000/svg" xmlns:xlink="http://www.w3.org/1999/xlink" x="0px" y="0px"
	 width="48px" height="48px" viewBox="0 0 48 48" enable-background="new 0 0 48 48" xml:space="preserve">
<g>
	<path fill="#231F20" d="M15.292,21.706c0.092,0.093,0.203,0.166,0.326,0.217C15.74,21.973,15.87,22,16,22
		c0.13,0,0.26-0.026,0.382-0.077c0.123-0.051,0.234-0.124,0.326-0.217l3.999-3.999c0.391-0.391,0.391-1.023,0-1.414
		c-0.391-0.391-1.023-0.391-1.414,0L17,18.586V18c0-7.977,3.206-9,6-9c0.553,0,1-0.448,1-1s-0.447-1-1-1c-5.309,0-8,3.701-8,11
		v0.586l-2.293-2.293c-0.391-0.391-1.023-0.391-1.414,0c-0.391,0.391-0.391,1.023,0,1.414L15.292,21.706z"/>
	<path fill="#231F20" d="M28,22h-3c-0.553,0-1,0.448-1,1s0.447,1,1,1h3c1.102,0,2,0.897,2,2v12H2V26c0-1.103,0.897-2,2-2h4
		c0.553,0,1-0.448,1-1s-0.447-1-1-1H4c-2.206,0-4,1.794-4,4v14c0,2.206,1.794,4,4,4h11v2h-5c-0.553,0-1,0.448-1,1s0.447,1,1,1h12
		c0.553,0,1-0.448,1-1s-0.447-1-1-1h-5v-2h11c2.206,0,4-1.794,4-4V26C32,23.794,30.206,22,28,22z M28,42H4c-1.103,0-2-0.897-2-2h28
		C30,41.103,29.102,42,28,42z"/>
	<path fill="#231F20" d="M47,6h-1V3c0-0.552-0.447-1-1-1H32V1c0-0.552-0.447-1-1-1h-4c-0.553,0-1,0.448-1,1v14
		c0,1.654,1.345,2.999,2.998,3c0.001,0,0.001,0,0.002,0h15c2.206,0,4-1.794,4-4V7C48,6.448,47.553,6,47,6z M30,7v8
		c0,0.551-0.448,1-1,1s-1-0.449-1-1V2h2v1c0,0.552,0.447,1,1,1h13v2H31C30.447,6,30,6.448,30,7z M46,14c0,1.103-0.898,2-2,2H31.829
		C31.939,15.687,32,15.351,32,15V8h14V14z"/>
</g>
</svg>
