<?xml version="1.0" encoding="utf-8"?>
<!-- Generator: Adobe Illustrator 17.0.0, SVG Export Plug-In . SVG Version: 6.00 Build 0)  -->
<!DOCTYPE svg PUBLIC "-//W3C//DTD SVG 1.1//EN" "http://www.w3.org/Graphics/SVG/1.1/DTD/svg11.dtd">
<svg version="1.1" id="Layer_1" xmlns="http://www.w3.org/2000/svg" xmlns:xlink="http://www.w3.org/1999/xlink" x="0px" y="0px"
	 width="48px" height="48px" viewBox="0 0 48 48" enable-background="new 0 0 48 48" xml:space="preserve">
<g>
	<path fill="#010101" d="M22.292,27.706c0.092,0.093,0.203,0.166,0.326,0.217C22.74,27.973,22.87,28,23,28
		c0.13,0,0.26-0.026,0.382-0.077c0.123-0.051,0.234-0.124,0.326-0.217l10.999-10.999c0.391-0.391,0.391-1.023,0-1.414
		c-0.391-0.391-1.023-0.391-1.414,0L24,24.586V1c0-0.552-0.447-1-1-1s-1,0.448-1,1v23.586l-9.293-9.293
		c-0.391-0.391-1.023-0.391-1.414,0c-0.391,0.391-0.391,1.023,0,1.414L22.292,27.706z"/>
	<path fill="#010101" d="M36,46H10c-0.553,0-1,0.448-1,1s0.447,1,1,1h26c0.553,0,1-0.448,1-1S36.553,46,36,46z"/>
	<path fill="#010101" d="M36,40H10c-0.553,0-1,0.448-1,1s0.447,1,1,1h26c0.553,0,1-0.448,1-1S36.553,40,36,40z"/>
	<path fill="#010101" d="M10,36h26c0.553,0,1-0.448,1-1s-0.447-1-1-1H10c-0.553,0-1,0.448-1,1S9.447,36,10,36z"/>
</g>
</svg>
