<?xml version="1.0" encoding="utf-8"?>
<!-- Generator: Adobe Illustrator 17.0.0, SVG Export Plug-In . SVG Version: 6.00 Build 0)  -->
<!DOCTYPE svg PUBLIC "-//W3C//DTD SVG 1.1//EN" "http://www.w3.org/Graphics/SVG/1.1/DTD/svg11.dtd">
<svg version="1.1" id="Layer_1" xmlns="http://www.w3.org/2000/svg" xmlns:xlink="http://www.w3.org/1999/xlink" x="0px" y="0px"
	 width="48px" height="48px" viewBox="0 0 48 48" enable-background="new 0 0 48 48" xml:space="preserve">
<g>
	<path fill="#010101" d="M23,0C10.318,0,0,10.318,0,23s10.318,23,23,23s23-10.318,23-23S35.682,0,23,0z M23,44
		C11.42,44,2,34.58,2,23S11.42,2,23,2s21,9.42,21,21S34.58,44,23,44z"/>
	<path fill="#010101" d="M33.293,24.293L24,33.586V10c0-0.552-0.448-1-1-1s-1,0.448-1,1v23.586l-9.293-9.293
		c-0.391-0.391-1.023-0.391-1.414,0c-0.391,0.391-0.391,1.023,0,1.414l11,11c0.092,0.092,0.203,0.165,0.325,0.216
		C22.74,36.973,22.87,37,23,37s0.26-0.027,0.382-0.077c0.122-0.051,0.233-0.124,0.325-0.216l11-11c0.391-0.391,0.391-1.023,0-1.414
		C34.316,23.902,33.684,23.902,33.293,24.293z"/>
</g>
</svg>
