<?xml version="1.0" encoding="utf-8"?>
<!-- Generator: Adobe Illustrator 17.0.0, SVG Export Plug-In . SVG Version: 6.00 Build 0)  -->
<!DOCTYPE svg PUBLIC "-//W3C//DTD SVG 1.1//EN" "http://www.w3.org/Graphics/SVG/1.1/DTD/svg11.dtd">
<svg version="1.1" id="Layer_1" xmlns="http://www.w3.org/2000/svg" xmlns:xlink="http://www.w3.org/1999/xlink" x="0px" y="0px"
	 width="48px" height="48px" viewBox="0 0 48 48" enable-background="new 0 0 48 48" xml:space="preserve">
<g>
	<path fill="#010101" d="M48.035,3c0-0.062-0.025-0.115-0.035-0.173V1c0-0.552-0.448-1-1-1s-1,0.448-1,1v0.965H2V1
		c0-0.552-0.448-1-1-1S0,0.448,0,1v1.827C-0.01,2.885-0.035,2.938-0.035,3v26c0,0.062,0.025,0.115,0.035,0.173V47
		c0,0.552,0.448,1,1,1s1-0.448,1-1V30.035h44V47c0,0.552,0.448,1,1,1s1-0.448,1-1V29.173c0.01-0.059,0.035-0.112,0.035-0.173V3z
		 M42,27.965V24h-4v3.965h-4V24h-4v3.965h-4V24h-4v3.965h-4V24h-4v3.965h-4V24H6v3.965H2.035V24H6v-4H2.035v-4H6v-4H2.035V8H6V4.035
		h4V8h4V4.035h4V8h4V4.035h4V8h4V4.035h4V8h4V4.035h4V8h3.965v4H42v4h3.965v4H42v4h3.965v3.965H42z"/>
	<rect x="6" y="8" fill="#010101" width="4" height="4"/>
	<rect x="14" y="8" fill="#010101" width="4" height="4"/>
	<rect x="22" y="8" fill="#010101" width="4" height="4"/>
	<rect x="30" y="8" fill="#010101" width="4" height="4"/>
	<rect x="38" y="8" fill="#010101" width="4" height="4"/>
	<rect x="10" y="12" fill="#010101" width="4" height="4"/>
	<rect x="18" y="12" fill="#010101" width="4" height="4"/>
	<rect x="26" y="12" fill="#010101" width="4" height="4"/>
	<rect x="34" y="12" fill="#010101" width="4" height="4"/>
	<rect x="6" y="16" fill="#010101" width="4" height="4"/>
	<rect x="14" y="16" fill="#010101" width="4" height="4"/>
	<rect x="22" y="16" fill="#010101" width="4" height="4"/>
	<rect x="30" y="16" fill="#010101" width="4" height="4"/>
	<rect x="38" y="16" fill="#010101" width="4" height="4"/>
	<rect x="10" y="20" fill="#010101" width="4" height="4"/>
	<rect x="18" y="20" fill="#010101" width="4" height="4"/>
	<rect x="26" y="20" fill="#010101" width="4" height="4"/>
	<rect x="34" y="20" fill="#010101" width="4" height="4"/>
</g>
</svg>
