<?xml version="1.0" encoding="utf-8"?>
<!-- Generator: Adobe Illustrator 17.1.0, SVG Export Plug-In . SVG Version: 6.00 Build 0)  -->
<!DOCTYPE svg PUBLIC "-//W3C//DTD SVG 1.0//EN" "http://www.w3.org/TR/2001/REC-SVG-20010904/DTD/svg10.dtd">
<svg version="1.0" id="Layer_1" xmlns="http://www.w3.org/2000/svg" xmlns:xlink="http://www.w3.org/1999/xlink" x="0px" y="0px"
	 width="48px" height="48px" viewBox="0 0 48 48" enable-background="new 0 0 48 48" xml:space="preserve">
<g>
	<path d="M45,2H7C6.448,2,6,2.447,6,3v22c0,0.553,0.448,1,1,1h38c0.552,0,1-0.447,1-1V3C46,2.447,45.552,2,45,2z M44,12h-4v4h4v4h-4
		v4h-4v-4h-4v4h-4v-4h-4v4h-4v-4h-4v4h-4v-4H8v-4h4v-4H8V8h4V4h4v4h4V4h4v4h4V4h4v4h4V4h4v4h4V12z"/>
	<path d="M3,0C2.448,0,2,0.447,2,1v46c0,0.553,0.448,1,1,1c0.552,0,1-0.447,1-1V1C4,0.447,3.552,0,3,0z"/>
	<rect x="12" y="8" width="4" height="4"/>
	<rect x="20" y="8" width="4" height="4"/>
	<rect x="28" y="8" width="4" height="4"/>
	<rect x="36" y="8" width="4" height="4"/>
	<rect x="16" y="12" width="4" height="4"/>
	<rect x="24" y="12" width="4" height="4"/>
	<rect x="32" y="12" width="4" height="4"/>
	<rect x="12" y="16" width="4" height="4"/>
	<rect x="20" y="16" width="4" height="4"/>
	<rect x="28" y="16" width="4" height="4"/>
	<rect x="36" y="16" width="4" height="4"/>
</g>
</svg>
