<?xml version="1.0" encoding="utf-8"?>
<!-- Generator: Adobe Illustrator 17.0.0, SVG Export Plug-In . SVG Version: 6.00 Build 0)  -->
<!DOCTYPE svg PUBLIC "-//W3C//DTD SVG 1.1//EN" "http://www.w3.org/Graphics/SVG/1.1/DTD/svg11.dtd">
<svg version="1.1" id="Layer_1" xmlns="http://www.w3.org/2000/svg" xmlns:xlink="http://www.w3.org/1999/xlink" x="0px" y="0px"
	 width="48px" height="48px" viewBox="0 0 48 48" enable-background="new 0 0 48 48" xml:space="preserve">
<g>
	<path fill="#231F20" d="M27,30H13.414l4.293-4.293c0.391-0.391,0.391-1.023,0-1.414c-0.391-0.391-1.023-0.391-1.414,0l-6,6
		c-0.092,0.092-0.165,0.203-0.216,0.325c-0.102,0.245-0.102,0.52,0,0.765c0.051,0.122,0.124,0.232,0.216,0.325l6,6
		C16.488,37.902,16.744,38,17,38s0.512-0.098,0.707-0.293c0.391-0.391,0.391-1.023,0-1.414L13.414,32H27c0.552,0,1-0.448,1-1
		S27.552,30,27,30z"/>
	<path fill="#231F20" d="M37.923,16.618c-0.051-0.122-0.124-0.232-0.216-0.325l-6-6c-0.391-0.391-1.023-0.391-1.414,0
		c-0.391,0.391-0.391,1.023,0,1.414L34.586,16H21c-0.552,0-1,0.448-1,1s0.448,1,1,1h13.586l-4.293,4.293
		c-0.391,0.391-0.391,1.023,0,1.414C30.488,23.902,30.744,24,31,24s0.512-0.098,0.707-0.293l6-6
		c0.092-0.092,0.165-0.202,0.216-0.325C38.024,17.138,38.024,16.862,37.923,16.618z"/>
	<path fill="#231F20" d="M24,0C10.767,0,0,10.767,0,24c0,13.233,10.767,24,24,24c13.233,0,24-10.767,24-24S37.233,0,24,0z M24,46
		C11.869,46,2,36.131,2,24S11.869,2,24,2s22,9.869,22,22S36.131,46,24,46z"/>
</g>
</svg>
