<?xml version="1.0" encoding="utf-8"?>
<!-- Generator: Adobe Illustrator 17.0.0, SVG Export Plug-In . SVG Version: 6.00 Build 0)  -->
<!DOCTYPE svg PUBLIC "-//W3C//DTD SVG 1.1//EN" "http://www.w3.org/Graphics/SVG/1.1/DTD/svg11.dtd">
<svg version="1.1" id="Layer_1" xmlns="http://www.w3.org/2000/svg" xmlns:xlink="http://www.w3.org/1999/xlink" x="0px" y="0px"
	 width="48px" height="48px" viewBox="0 0 48 48" enable-background="new 0 0 48 48" xml:space="preserve">
<g>
	<path fill="#231F20" d="M6.342,25.94C6.737,25.796,7,25.42,7,25v-5c0-0.983,0-2,4-2h19v5c0,0.413,0.254,0.784,0.639,0.933
		c0.386,0.148,0.824,0.046,1.101-0.26l10-11c0.347-0.382,0.347-0.964,0-1.346l-10-11c-0.278-0.305-0.715-0.409-1.101-0.26
		C30.254,0.216,30,0.587,30,1v5H11c-6.217,0-9,5.525-9,11c0,4.728,3.102,8.484,3.233,8.642C5.427,25.874,5.71,26,6,26
		C6.114,26,6.23,25.981,6.342,25.94z M5,20v1.38C4.457,20.149,4,18.628,4,17c0-4.152,1.833-9,7-9h20c0.552,0,1-0.448,1-1V3.586
		L39.648,12L32,20.414V17c0-0.552-0.448-1-1-1H11C7.884,16,5,16.484,5,20z"/>
	<path fill="#231F20" d="M42.767,22.358c-0.27-0.323-0.714-0.442-1.108-0.298C41.263,22.204,41,22.58,41,23v5c0,0.983,0,2-4,2H18v-5
		c0-0.413-0.254-0.784-0.639-0.933c-0.387-0.149-0.823-0.046-1.101,0.26l-10,11c-0.347,0.382-0.347,0.964,0,1.346l10,11
		C16.454,47.885,16.724,48,17,48c0.121,0,0.243-0.022,0.361-0.067C17.746,47.784,18,47.413,18,47v-5h19c6.217,0,9-5.525,9-11
		C46,26.273,42.899,22.516,42.767,22.358z M37,40H17c-0.552,0-1,0.448-1,1v3.414L8.352,36L16,27.586V31c0,0.552,0.448,1,1,1h20
		c3.116,0,6-0.484,6-4v-1.379c0.543,1.231,1,2.751,1,4.379C44,35.152,42.166,40,37,40z"/>
</g>
</svg>
