<?xml version="1.0" encoding="utf-8"?>
<!-- Generator: Adobe Illustrator 17.0.0, SVG Export Plug-In . SVG Version: 6.00 Build 0)  -->
<!DOCTYPE svg PUBLIC "-//W3C//DTD SVG 1.1//EN" "http://www.w3.org/Graphics/SVG/1.1/DTD/svg11.dtd">
<svg version="1.1" id="Layer_1" xmlns="http://www.w3.org/2000/svg" xmlns:xlink="http://www.w3.org/1999/xlink" x="0px" y="0px"
	 width="48px" height="48px" viewBox="0 0 48 48" enable-background="new 0 0 48 48" xml:space="preserve">
<g>
	<path fill="#231F20" d="M37.923,2.618c-0.101-0.244-0.296-0.439-0.541-0.541C37.26,2.026,37.129,2,36.999,2H25
		c-0.553,0-1,0.448-1,1s0.447,1,1,1h9.586L18.293,20.293c-0.391,0.391-0.391,1.023,0,1.414C18.488,21.902,18.744,22,19,22
		s0.512-0.098,0.707-0.293L36,5.414V15c0,0.552,0.447,1,1,1s1-0.448,1-1V3.002C38,2.871,37.974,2.741,37.923,2.618z"/>
	<path fill="#231F20" d="M27.293,25.293L10,42.586V33c0-0.552-0.447-1-1-1s-1,0.448-1,1v11.999c0,0.131,0.026,0.261,0.077,0.383
		c0.101,0.245,0.296,0.439,0.541,0.541C8.74,45.973,8.87,46,9,46h12c0.553,0,1-0.448,1-1s-0.447-1-1-1h-9.586l17.293-17.293
		c0.391-0.391,0.391-1.023,0-1.414C28.316,24.902,27.684,24.902,27.293,25.293z"/>
</g>
</svg>
