<?xml version="1.0" encoding="utf-8"?>
<!-- Generator: Adobe Illustrator 17.0.0, SVG Export Plug-In . SVG Version: 6.00 Build 0)  -->
<!DOCTYPE svg PUBLIC "-//W3C//DTD SVG 1.1//EN" "http://www.w3.org/Graphics/SVG/1.1/DTD/svg11.dtd">
<svg version="1.1" id="Layer_1" xmlns="http://www.w3.org/2000/svg" xmlns:xlink="http://www.w3.org/1999/xlink" x="0px" y="0px"
	 width="48px" height="48px" viewBox="0 0 48 48" enable-background="new 0 0 48 48" xml:space="preserve">
<g>
	<path fill="#231F20" d="M19,24.143c0.256,0,0.512-0.098,0.707-0.293l12.436-12.436V17c0,0.552,0.448,1,1,1s1-0.448,1-1V9.001
		c0-0.131-0.026-0.261-0.077-0.384c-0.101-0.244-0.296-0.439-0.54-0.54C33.403,8.026,33.272,8,33.142,8h-7.999c-0.552,0-1,0.448-1,1
		s0.448,1,1,1h5.586L18.293,22.436c-0.391,0.391-0.391,1.023,0,1.414C18.488,24.045,18.744,24.143,19,24.143z"/>
	<path fill="#231F20" d="M14.077,39.382c0.101,0.244,0.296,0.439,0.541,0.54C14.74,39.973,14.87,40,15,40h8c0.552,0,1-0.448,1-1
		s-0.448-1-1-1h-5.586l12.435-12.436c0.391-0.391,0.391-1.023,0-1.414c-0.391-0.391-1.023-0.391-1.414,0L16,36.586V31
		c0-0.552-0.448-1-1-1s-1,0.448-1,1v7.999C14,39.129,14.026,39.26,14.077,39.382z"/>
	<path fill="#231F20" d="M47,0H1C0.448,0,0,0.448,0,1v46c0,0.552,0.448,1,1,1h46c0.552,0,1-0.448,1-1V1C48,0.448,47.552,0,47,0z
		 M46,46H2V2h44V46z"/>
</g>
</svg>
