<?xml version="1.0" encoding="utf-8"?>
<!-- Generator: Adobe Illustrator 17.0.0, SVG Export Plug-In . SVG Version: 6.00 Build 0)  -->
<!DOCTYPE svg PUBLIC "-//W3C//DTD SVG 1.1//EN" "http://www.w3.org/Graphics/SVG/1.1/DTD/svg11.dtd">
<svg version="1.1" id="Layer_1" xmlns="http://www.w3.org/2000/svg" xmlns:xlink="http://www.w3.org/1999/xlink" x="0px" y="0px"
	 width="48px" height="48px" viewBox="0 0 48 48" enable-background="new 0 0 48 48" xml:space="preserve">
<g>
	<path fill="#231F20" d="M13.707,13.707L18,9.414V27c0,0.552,0.447,1,1,1s1-0.448,1-1V9.414l4.293,4.293
		C24.488,13.902,24.744,14,25,14s0.512-0.098,0.707-0.293c0.391-0.391,0.391-1.023,0-1.414l-5.999-5.999
		c-0.092-0.093-0.203-0.166-0.326-0.217c-0.245-0.101-0.52-0.101-0.765,0c-0.123,0.051-0.233,0.124-0.326,0.217l-5.999,5.999
		c-0.391,0.391-0.391,1.023,0,1.414C12.684,14.098,13.316,14.098,13.707,13.707z"/>
	<path fill="#231F20" d="M23.707,34.293c-0.391-0.391-1.023-0.391-1.414,0c-0.391,0.391-0.391,1.023,0,1.414l5.999,5.999
		c0.092,0.093,0.203,0.166,0.326,0.217C28.74,41.973,28.87,42,29,42c0.13,0,0.26-0.026,0.382-0.077
		c0.123-0.051,0.234-0.124,0.326-0.217l5.999-5.999c0.391-0.391,0.391-1.023,0-1.414c-0.391-0.391-1.023-0.391-1.414,0L30,38.586V21
		c0-0.552-0.447-1-1-1s-1,0.448-1,1v17.586L23.707,34.293z"/>
	<path fill="#231F20" d="M47,0H1C0.447,0,0,0.448,0,1v46c0,0.552,0.447,1,1,1h46c0.553,0,1-0.448,1-1V1C48,0.448,47.553,0,47,0z
		 M46,46H2V2h44V46z"/>
</g>
</svg>
