<?xml version="1.0" encoding="utf-8"?>
<!-- Generator: Adobe Illustrator 17.0.0, SVG Export Plug-In . SVG Version: 6.00 Build 0)  -->
<!DOCTYPE svg PUBLIC "-//W3C//DTD SVG 1.1//EN" "http://www.w3.org/Graphics/SVG/1.1/DTD/svg11.dtd">
<svg version="1.1" id="Layer_1" xmlns="http://www.w3.org/2000/svg" xmlns:xlink="http://www.w3.org/1999/xlink" x="0px" y="0px"
	 width="48px" height="48px" viewBox="0 0 48 48" enable-background="new 0 0 48 48" xml:space="preserve">
<g>
	<path fill="#231F20" d="M26.293,38.293L20,44.586V19c0-0.552-0.447-1-1-1s-1,0.448-1,1v25.586l-6.293-6.293
		c-0.391-0.391-1.023-0.391-1.414,0c-0.391,0.391-0.391,1.023,0,1.414l7.999,7.999c0.092,0.093,0.203,0.166,0.326,0.217
		C18.74,47.973,18.87,48,19,48c0.13,0,0.26-0.026,0.382-0.077c0.123-0.051,0.234-0.124,0.326-0.217l7.999-7.999
		c0.391-0.391,0.391-1.023,0-1.414C27.316,37.902,26.684,37.902,26.293,38.293z"/>
	<path fill="#231F20" d="M37.707,8.293l-7.999-7.999c-0.092-0.093-0.203-0.166-0.326-0.217c-0.245-0.101-0.52-0.101-0.765,0
		c-0.123,0.051-0.234,0.124-0.326,0.217l-7.999,7.999c-0.391,0.391-0.391,1.023,0,1.414c0.391,0.391,1.023,0.391,1.414,0L28,3.414
		V29c0,0.552,0.447,1,1,1s1-0.448,1-1V3.414l6.293,6.293C36.488,9.902,36.744,10,37,10s0.512-0.098,0.707-0.293
		C38.098,9.316,38.098,8.684,37.707,8.293z"/>
</g>
</svg>
