<?xml version="1.0" encoding="utf-8"?>
<!-- Generator: Adobe Illustrator 17.0.0, SVG Export Plug-In . SVG Version: 6.00 Build 0)  -->
<!DOCTYPE svg PUBLIC "-//W3C//DTD SVG 1.1//EN" "http://www.w3.org/Graphics/SVG/1.1/DTD/svg11.dtd">
<svg version="1.1" id="Layer_1" xmlns="http://www.w3.org/2000/svg" xmlns:xlink="http://www.w3.org/1999/xlink" x="0px" y="0px"
	 width="48px" height="48px" viewBox="0 0 48 48" enable-background="new 0 0 48 48" xml:space="preserve">
<g>
	<path fill="#231F20" d="M47.923,31.382c0.101-0.245,0.101-0.52,0-0.764c-0.051-0.123-0.124-0.233-0.217-0.326l-7.999-7.999
		c-0.391-0.391-1.023-0.391-1.414,0c-0.391,0.391-0.391,1.023,0,1.414L44.586,30H19c-0.553,0-1,0.448-1,1s0.447,1,1,1h25.586
		l-6.293,6.293c-0.391,0.391-0.391,1.023,0,1.414C38.488,39.902,38.744,40,39,40s0.512-0.098,0.707-0.293l7.999-7.999
		C47.799,31.615,47.872,31.505,47.923,31.382z"/>
	<path fill="#231F20" d="M3.414,22H29c0.553,0,1-0.448,1-1s-0.447-1-1-1H3.414l6.293-6.293c0.391-0.391,0.391-1.023,0-1.414
		c-0.391-0.391-1.023-0.391-1.414,0l-7.999,7.999c-0.093,0.092-0.166,0.203-0.217,0.326c-0.101,0.245-0.101,0.52,0,0.764
		c0.051,0.123,0.124,0.233,0.217,0.326l7.999,7.999C8.488,29.902,8.744,30,9,30s0.512-0.098,0.707-0.293
		c0.391-0.391,0.391-1.023,0-1.414L3.414,22z"/>
</g>
</svg>
