<?xml version="1.0" encoding="utf-8"?>
<!-- Generator: Adobe Illustrator 17.0.0, SVG Export Plug-In . SVG Version: 6.00 Build 0)  -->
<!DOCTYPE svg PUBLIC "-//W3C//DTD SVG 1.1//EN" "http://www.w3.org/Graphics/SVG/1.1/DTD/svg11.dtd">
<svg version="1.1" id="Layer_1" xmlns="http://www.w3.org/2000/svg" xmlns:xlink="http://www.w3.org/1999/xlink" x="0px" y="0px"
	 width="48px" height="48px" viewBox="0 0 48 48" enable-background="new 0 0 48 48" xml:space="preserve">
<g>
	<path fill="#231F20" d="M20.293,20.293L4,36.586V27c0-0.552-0.448-1-1-1s-1,0.448-1,1v11.999c0,0.131,0.026,0.261,0.077,0.384
		c0.101,0.244,0.296,0.439,0.541,0.54C2.74,39.973,2.87,40,3,40h12c0.552,0,1-0.448,1-1s-0.448-1-1-1H5.414l16.293-16.293
		c0.391-0.391,0.391-1.023,0-1.414C21.316,19.902,20.684,19.902,20.293,20.293z"/>
	<path fill="#231F20" d="M45.923,10.618c-0.101-0.244-0.296-0.439-0.54-0.54C45.26,10.026,45.129,10,44.999,10H33
		c-0.552,0-1,0.448-1,1s0.448,1,1,1h9.586L25.293,29.293c-0.391,0.391-0.391,1.023,0,1.414C25.488,30.902,25.744,31,26,31
		s0.512-0.098,0.707-0.293L44,13.414V23c0,0.552,0.448,1,1,1s1-0.448,1-1V11.002C46,10.871,45.974,10.74,45.923,10.618z"/>
</g>
</svg>
