<?xml version="1.0" encoding="utf-8"?>
<!-- Generator: Adobe Illustrator 17.0.0, SVG Export Plug-In . SVG Version: 6.00 Build 0)  -->
<!DOCTYPE svg PUBLIC "-//W3C//DTD SVG 1.1//EN" "http://www.w3.org/Graphics/SVG/1.1/DTD/svg11.dtd">
<svg version="1.1" id="Layer_1" xmlns="http://www.w3.org/2000/svg" xmlns:xlink="http://www.w3.org/1999/xlink" x="0px" y="0px"
	 width="48px" height="48px" viewBox="0 0 48 48" enable-background="new 0 0 48 48" xml:space="preserve">
<g>
	<path fill="#231F20" d="M16.292,21.706c0.092,0.093,0.203,0.166,0.326,0.217C16.74,21.973,16.87,22,17,22
		c0.13,0,0.26-0.026,0.382-0.077c0.123-0.051,0.234-0.124,0.326-0.217l3.999-3.999c0.391-0.391,0.391-1.023,0-1.414
		c-0.391-0.391-1.023-0.391-1.414,0L18,18.586V15.5c0-3.584,2.916-6.5,6.5-6.5h1.086l-1.293,1.293c-0.391,0.391-0.391,1.023,0,1.414
		C24.488,11.902,24.744,12,25,12s0.512-0.098,0.707-0.293l2.999-2.999c0.093-0.092,0.166-0.203,0.217-0.326
		c0.101-0.245,0.101-0.52,0-0.764c-0.051-0.123-0.124-0.233-0.217-0.326l-2.999-2.999c-0.391-0.391-1.023-0.391-1.414,0
		c-0.391,0.391-0.391,1.023,0,1.414L25.586,7H24.5c-4.687,0-8.5,3.813-8.5,8.5v3.086l-2.293-2.293c-0.391-0.391-1.023-0.391-1.414,0
		c-0.391,0.391-0.391,1.023,0,1.414L16.292,21.706z"/>
	<path fill="#231F20" d="M28,22h-3c-0.553,0-1,0.448-1,1s0.447,1,1,1h3c1.102,0,2,0.897,2,2v12H2V26c0-1.103,0.897-2,2-2h3
		c0.553,0,1-0.448,1-1s-0.447-1-1-1H4c-2.206,0-4,1.794-4,4v14c0,2.206,1.794,4,4,4h11v2h-5c-0.553,0-1,0.448-1,1s0.447,1,1,1h12
		c0.553,0,1-0.448,1-1s-0.447-1-1-1h-5v-2h11c2.206,0,4-1.794,4-4V26C32,23.794,30.206,22,28,22z M28,42H4c-1.103,0-2-0.897-2-2h28
		C30,41.103,29.102,42,28,42z"/>
	<path fill="#231F20" d="M44,0H28c-0.553,0-1,0.448-1,1s0.447,1,1,1h16c1.102,0,2,0.897,2,2v8H29c-0.553,0-1,0.448-1,1s0.447,1,1,1
		h17c0,1.103-0.898,2-2,2H28c-0.494,0-0.967-0.18-1.33-0.506c-0.411-0.366-1.042-0.335-1.412,0.077
		c-0.369,0.411-0.335,1.043,0.076,1.412C26.065,17.639,27.013,18,28,18h7v2h-2c-0.553,0-1,0.448-1,1s0.447,1,1,1h6
		c0.553,0,1-0.448,1-1s-0.447-1-1-1h-2v-2h7c2.206,0,4-1.794,4-4V4C48,1.794,46.206,0,44,0z"/>
</g>
</svg>
