<?xml version="1.0" encoding="utf-8"?>
<!-- Generator: Adobe Illustrator 17.0.0, SVG Export Plug-In . SVG Version: 6.00 Build 0)  -->
<!DOCTYPE svg PUBLIC "-//W3C//DTD SVG 1.1//EN" "http://www.w3.org/Graphics/SVG/1.1/DTD/svg11.dtd">
<svg version="1.1" id="Layer_1" xmlns="http://www.w3.org/2000/svg" xmlns:xlink="http://www.w3.org/1999/xlink" x="0px" y="0px"
	 width="48px" height="48px" viewBox="0 0 48 48" enable-background="new 0 0 48 48" xml:space="preserve">
<g>
	<path fill="#010101" d="M23.708,20.294c-0.092-0.093-0.203-0.166-0.326-0.217c-0.245-0.101-0.52-0.101-0.765,0
		c-0.123,0.051-0.234,0.124-0.326,0.217L11.293,31.293c-0.391,0.391-0.391,1.023,0,1.414c0.391,0.391,1.023,0.391,1.414,0L22,23.414
		V47c0,0.552,0.447,1,1,1s1-0.448,1-1V23.414l9.293,9.293C33.488,32.902,33.744,33,34,33s0.512-0.098,0.707-0.293
		c0.391-0.391,0.391-1.023,0-1.414L23.708,20.294z"/>
	<path fill="#010101" d="M10,2h26c0.553,0,1-0.448,1-1s-0.447-1-1-1H10C9.447,0,9,0.448,9,1S9.447,2,10,2z"/>
	<path fill="#010101" d="M36,6H10C9.447,6,9,6.448,9,7s0.447,1,1,1h26c0.553,0,1-0.448,1-1S36.553,6,36,6z"/>
	<path fill="#010101" d="M36,12H10c-0.553,0-1,0.448-1,1s0.447,1,1,1h26c0.553,0,1-0.448,1-1S36.553,12,36,12z"/>
</g>
</svg>
