<?xml version="1.0" encoding="utf-8"?>
<!-- Generator: Adobe Illustrator 17.0.0, SVG Export Plug-In . SVG Version: 6.00 Build 0)  -->
<!DOCTYPE svg PUBLIC "-//W3C//DTD SVG 1.1//EN" "http://www.w3.org/Graphics/SVG/1.1/DTD/svg11.dtd">
<svg version="1.1" id="Layer_1" xmlns="http://www.w3.org/2000/svg" xmlns:xlink="http://www.w3.org/1999/xlink" x="0px" y="0px"
	 width="48px" height="48px" viewBox="0 0 48 48" enable-background="new 0 0 48 48" xml:space="preserve">
<g>
	<path fill="#010101" d="M38.732,16.318l-14-15c-0.379-0.405-1.084-0.405-1.463,0l-14,15c-0.272,0.291-0.345,0.715-0.186,1.08
		C9.241,17.764,9.602,18,10,18h8v8c0,0.552,0.447,1,1,1s1-0.448,1-1v-9c0-0.552-0.447-1-1-1h-6.699L24,3.466L35.699,16H29
		c-0.553,0-1,0.448-1,1v9c0,0.552,0.447,1,1,1s1-0.448,1-1v-8h8c0.398,0,0.759-0.236,0.918-0.602
		C39.077,17.033,39.003,16.609,38.732,16.318z"/>
	<path fill="#010101" d="M19,29c-0.553,0-1,0.448-1,1v5c0,0.552,0.447,1,1,1s1-0.448,1-1v-5C20,29.448,19.553,29,19,29z"/>
	<path fill="#010101" d="M29,29c-0.553,0-1,0.448-1,1v5c0,0.552,0.447,1,1,1s1-0.448,1-1v-5C30,29.448,29.553,29,29,29z"/>
	<path fill="#010101" d="M19,38c-0.553,0-1,0.448-1,1v3c0,0.552,0.447,1,1,1s1-0.448,1-1v-3C20,38.448,19.553,38,19,38z"/>
	<path fill="#010101" d="M29,38c-0.553,0-1,0.448-1,1v3c0,0.552,0.447,1,1,1s1-0.448,1-1v-3C30,38.448,29.553,38,29,38z"/>
	<path fill="#010101" d="M19,45c-0.553,0-1,0.448-1,1v1c0,0.552,0.447,1,1,1s1-0.448,1-1v-1C20,45.448,19.553,45,19,45z"/>
	<path fill="#010101" d="M29,45c-0.553,0-1,0.448-1,1v1c0,0.552,0.447,1,1,1s1-0.448,1-1v-1C30,45.448,29.553,45,29,45z"/>
</g>
</svg>
