<?xml version="1.0" encoding="utf-8"?>
<!-- Generator: Adobe Illustrator 17.0.0, SVG Export Plug-In . SVG Version: 6.00 Build 0)  -->
<!DOCTYPE svg PUBLIC "-//W3C//DTD SVG 1.1//EN" "http://www.w3.org/Graphics/SVG/1.1/DTD/svg11.dtd">
<svg version="1.1" id="Layer_1" xmlns="http://www.w3.org/2000/svg" xmlns:xlink="http://www.w3.org/1999/xlink" x="0px" y="0px"
	 width="48px" height="48px" viewBox="0 0 48 48" enable-background="new 0 0 48 48" xml:space="preserve">
<g>
	<path fill="#010101" d="M17.707,13.707L24,7.414V29c0,0.552,0.448,1,1,1s1-0.448,1-1V7.414l6.293,6.293
		C32.488,13.902,32.744,14,33,14s0.512-0.098,0.707-0.293c0.391-0.391,0.391-1.023,0-1.414l-8-8
		c-0.092-0.092-0.203-0.165-0.325-0.216c-0.245-0.102-0.52-0.102-0.765,0c-0.122,0.051-0.233,0.124-0.325,0.216l-8,8
		c-0.391,0.391-0.391,1.023,0,1.414C16.684,14.098,17.316,14.098,17.707,13.707z"/>
	<path fill="#010101" d="M38,22h-7c-0.552,0-1,0.448-1,1s0.448,1,1,1h7c1.103,0,2,0.897,2,2v12H10V26c0-1.103,0.897-2,2-2h7
		c0.552,0,1-0.448,1-1s-0.448-1-1-1h-7c-2.206,0-4,1.794-4,4v14c0,2.206,1.794,4,4,4h12v2h-5c-0.552,0-1,0.448-1,1s0.448,1,1,1h12
		c0.552,0,1-0.448,1-1s-0.448-1-1-1h-5v-2h12c2.206,0,4-1.794,4-4V26C42,23.794,40.206,22,38,22z M38,42H12c-1.103,0-2-0.897-2-2h30
		C40,41.103,39.103,42,38,42z"/>
</g>
</svg>
