<?xml version="1.0" encoding="utf-8"?>
<!-- Generator: Adobe Illustrator 17.0.0, SVG Export Plug-In . SVG Version: 6.00 Build 0)  -->
<!DOCTYPE svg PUBLIC "-//W3C//DTD SVG 1.1//EN" "http://www.w3.org/Graphics/SVG/1.1/DTD/svg11.dtd">
<svg version="1.1" id="Layer_1" xmlns="http://www.w3.org/2000/svg" xmlns:xlink="http://www.w3.org/1999/xlink" x="0px" y="0px"
	 width="48px" height="48px" viewBox="0 0 48 48" enable-background="new 0 0 48 48" xml:space="preserve">
<g>
	<path fill="#231F20" d="M10,16.002L16,16v21c0,0.552,0.448,1,1,1h14c0.552,0,1-0.448,1-1V16.002h6c0.405,0,0.769-0.244,0.924-0.617
		c0.155-0.374,0.069-0.804-0.217-1.09l-14-14.001c-0.375-0.375-1.039-0.375-1.414,0l-14,14.001c-0.286,0.286-0.372,0.716-0.217,1.09
		C9.231,15.758,9.596,16.002,10,16.002z M24,2.414l11.586,11.588H31c-0.552,0-1,0.448-1,1V36H18V15c0-0.265-0.106-0.519-0.293-0.707
		C17.519,14.106,17.265,14,17,14l-4.585,0.001L24,2.414z"/>
	<path fill="#231F20" d="M47,36c-0.552,0-1,0.448-1,1v9H2v-9c0-0.552-0.448-1-1-1s-1,0.448-1,1v10c0,0.552,0.448,1,1,1h46
		c0.552,0,1-0.448,1-1V37C48,36.448,47.552,36,47,36z"/>
</g>
</svg>
