<?xml version="1.0" encoding="utf-8"?>
<!-- Generator: Adobe Illustrator 17.1.0, SVG Export Plug-In . SVG Version: 6.00 Build 0)  -->
<!DOCTYPE svg PUBLIC "-//W3C//DTD SVG 1.0//EN" "http://www.w3.org/TR/2001/REC-SVG-20010904/DTD/svg10.dtd">
<svg version="1.0" id="Layer_1" xmlns="http://www.w3.org/2000/svg" xmlns:xlink="http://www.w3.org/1999/xlink" x="0px" y="0px"
	 width="48px" height="48px" viewBox="0 0 48 48" enable-background="new 0 0 48 48" xml:space="preserve">
<g>
	<path d="M36,21c0.256,0,0.512-0.098,0.707-0.293c0.391-0.391,0.391-1.023,0-1.414L25.708,8.294
		c-0.092-0.093-0.203-0.166-0.326-0.217c-0.244-0.101-0.52-0.101-0.764,0c-0.123,0.051-0.234,0.124-0.326,0.217L13.293,19.293
		c-0.391,0.391-0.391,1.023,0,1.414c0.391,0.391,1.023,0.391,1.414,0L24,11.414V39c0,0.553,0.448,1,1,1c0.552,0,1-0.447,1-1V11.414
		l9.293,9.293C35.488,20.902,35.744,21,36,21z"/>
	<path d="M47,0H35c-0.552,0-1,0.447-1,1c0,0.553,0.448,1,1,1h11v44H35c-0.552,0-1,0.447-1,1c0,0.553,0.448,1,1,1h12
		c0.552,0,1-0.447,1-1V1C48,0.447,47.552,0,47,0z"/>
	<path d="M13,46H2V2h11c0.552,0,1-0.447,1-1c0-0.553-0.448-1-1-1H1C0.448,0,0,0.447,0,1v46c0,0.553,0.448,1,1,1h12
		c0.552,0,1-0.447,1-1C14,46.447,13.552,46,13,46z"/>
</g>
</svg>
