<?xml version="1.0" encoding="utf-8"?>
<!-- Generator: Adobe Illustrator 17.0.0, SVG Export Plug-In . SVG Version: 6.00 Build 0)  -->
<!DOCTYPE svg PUBLIC "-//W3C//DTD SVG 1.1//EN" "http://www.w3.org/Graphics/SVG/1.1/DTD/svg11.dtd">
<svg version="1.1" id="Layer_2" xmlns="http://www.w3.org/2000/svg" xmlns:xlink="http://www.w3.org/1999/xlink" x="0px" y="0px"
	 width="48px" height="48px" viewBox="0 0 48 48" enable-background="new 0 0 48 48" xml:space="preserve">
<g>
	<path fill="#010101" d="M26.829,24L47.414,3.414c0.781-0.781,0.781-2.047,0-2.828c-0.78-0.781-2.048-0.781-2.828,0l-22,22
		c-0.781,0.781-0.781,2.047,0,2.828l22,22C44.976,47.805,45.488,48,46,48c0.512,0,1.024-0.195,1.414-0.586
		c0.781-0.781,0.781-2.047,0-2.828L26.829,24z"/>
	<path fill="#010101" d="M4.829,24L25.414,3.414c0.781-0.781,0.781-2.047,0-2.828c-0.78-0.781-2.048-0.781-2.828,0l-22,22
		c-0.781,0.781-0.781,2.047,0,2.828l22,22C22.976,47.805,23.488,48,24,48c0.512,0,1.024-0.195,1.414-0.586
		c0.781-0.781,0.781-2.047,0-2.828L4.829,24z"/>
</g>
</svg>
