<?xml version="1.0" encoding="utf-8"?>
<!-- Generator: Adobe Illustrator 17.0.0, SVG Export Plug-In . SVG Version: 6.00 Build 0)  -->
<!DOCTYPE svg PUBLIC "-//W3C//DTD SVG 1.1//EN" "http://www.w3.org/Graphics/SVG/1.1/DTD/svg11.dtd">
<svg version="1.1" id="Layer_2" xmlns="http://www.w3.org/2000/svg" xmlns:xlink="http://www.w3.org/1999/xlink" x="0px" y="0px"
	 width="48px" height="48px" viewBox="0 0 48 48" enable-background="new 0 0 48 48" xml:space="preserve">
<path d="M24.001,0C10.767,0,0,10.767,0,24s10.767,24,24.001,24C37.234,48,48,37.233,48,24S37.234,0,24.001,0z M31.703,37.934
	c-0.197,0.251-0.49,0.382-0.787,0.382c-0.216,0-0.434-0.069-0.617-0.214L13.352,24.786c-0.247-0.194-0.389-0.494-0.382-0.809
	c0.008-0.315,0.162-0.608,0.419-0.791l16.947-12.105c0.449-0.321,1.074-0.217,1.395,0.232c0.321,0.449,0.217,1.074-0.232,1.394
	l-15.861,11.33l15.899,12.491C31.969,36.87,32.045,37.499,31.703,37.934z"/>
</svg>
