<?xml version="1.0" encoding="utf-8"?>
<!-- Generator: Adobe Illustrator 17.0.0, SVG Export Plug-In . SVG Version: 6.00 Build 0)  -->
<!DOCTYPE svg PUBLIC "-//W3C//DTD SVG 1.1//EN" "http://www.w3.org/Graphics/SVG/1.1/DTD/svg11.dtd">
<svg version="1.1" id="Layer_2" xmlns="http://www.w3.org/2000/svg" xmlns:xlink="http://www.w3.org/1999/xlink" x="0px" y="0px"
	 width="48px" height="48px" viewBox="0 0 48 48" enable-background="new 0 0 48 48" xml:space="preserve">
<g>
	<path fill="#010101" d="M35.422,24.434c-0.368-0.157-0.798-0.078-1.085,0.199L23.804,34.775l-10.13-10.129
		c-0.286-0.286-0.715-0.371-1.09-0.217c-0.374,0.154-0.617,0.52-0.617,0.924v10.823c0,0.266,0.105,0.52,0.293,0.707l10.823,10.823
		C23.279,47.902,23.535,48,23.79,48c0.25,0,0.5-0.093,0.693-0.279l11.24-10.823c0.196-0.188,0.307-0.449,0.307-0.721V25.354
		C36.031,24.952,35.791,24.59,35.422,24.434z"/>
	<path fill="#010101" d="M35.422,8.198c-0.368-0.158-0.798-0.078-1.085,0.199L23.804,18.54L13.674,8.411
		c-0.286-0.286-0.715-0.372-1.09-0.217c-0.374,0.154-0.617,0.52-0.617,0.924v8.117c0,0.266,0.105,0.52,0.293,0.707l10.823,10.823
		c0.195,0.195,0.451,0.293,0.707,0.293c0.25,0,0.5-0.093,0.693-0.279l11.24-10.823c0.196-0.188,0.307-0.449,0.307-0.721V9.118
		C36.031,8.717,35.791,8.354,35.422,8.198z"/>
	<path fill="#010101" d="M23.085,12.53c0.195,0.195,0.451,0.293,0.707,0.293c0.25,0,0.5-0.093,0.693-0.279l11.24-10.823
		c0.398-0.384,0.41-1.017,0.027-1.414c-0.383-0.398-1.018-0.409-1.414-0.027L23.806,10.422L13.675,0.293
		c-0.391-0.391-1.023-0.391-1.414,0c-0.391,0.391-0.391,1.023,0,1.414L23.085,12.53z"/>
</g>
</svg>
