<?xml version="1.0" encoding="utf-8"?>
<!-- Generator: Adobe Illustrator 17.0.0, SVG Export Plug-In . SVG Version: 6.00 Build 0)  -->
<!DOCTYPE svg PUBLIC "-//W3C//DTD SVG 1.1//EN" "http://www.w3.org/Graphics/SVG/1.1/DTD/svg11.dtd">
<svg version="1.1" id="Layer_2" xmlns="http://www.w3.org/2000/svg" xmlns:xlink="http://www.w3.org/1999/xlink" x="0px" y="0px"
	 width="48px" height="48px" viewBox="0 0 48 48" enable-background="new 0 0 48 48" xml:space="preserve">
<path d="M40.969,7.03c-4.533-4.533-10.56-7.03-16.971-7.03c-6.41,0-12.437,2.496-16.969,7.029
	c-9.357,9.357-9.356,24.583,0.001,33.94c4.533,4.533,10.56,7.029,16.971,7.03c0,0,0.001,0,0.001,0
	c6.409,0,12.436-2.497,16.968-7.029C50.328,31.614,50.327,16.388,40.969,7.03z M36.025,34.994c0,0.552-0.448,1-1,1h-22.02
	c-0.552,0-1-0.448-1-1v-5.991c0-0.552,0.448-1,1-1h9.293L10.594,16.244c-0.389-0.391-0.388-1.023,0.002-1.413l4.235-4.235
	c0.39-0.391,1.021-0.39,1.413-0.002l11.759,11.705v-9.293c0-0.552,0.448-1,1-1h6.022c0.552,0,1,0.448,1,1V34.994z"/>
</svg>
