<?xml version="1.0" encoding="utf-8"?>
<!-- Generator: Adobe Illustrator 17.0.0, SVG Export Plug-In . SVG Version: 6.00 Build 0)  -->
<!DOCTYPE svg PUBLIC "-//W3C//DTD SVG 1.1//EN" "http://www.w3.org/Graphics/SVG/1.1/DTD/svg11.dtd">
<svg version="1.1" id="Layer_2" xmlns="http://www.w3.org/2000/svg" xmlns:xlink="http://www.w3.org/1999/xlink" x="0px" y="0px"
	 width="48px" height="48px" viewBox="0 0 48 48" enable-background="new 0 0 48 48" xml:space="preserve">
<path fill="#010101" d="M47.321,19.499c-0.83-0.731-2.095-0.648-2.822,0.18L26,40.7V2c0-1.105-0.896-2-2-2c-1.105,0-2,0.896-2,2
	v38.7L3.501,19.679c-0.728-0.828-1.993-0.911-2.822-0.18c-0.829,0.729-0.91,1.993-0.18,2.822l22,25
	c0.013,0.014,0.029,0.025,0.042,0.039c0.057,0.061,0.12,0.115,0.184,0.169c0.041,0.034,0.079,0.07,0.122,0.101
	c0.071,0.05,0.148,0.091,0.226,0.132c0.042,0.022,0.081,0.048,0.124,0.067c0.093,0.041,0.191,0.069,0.29,0.096
	c0.033,0.009,0.064,0.023,0.098,0.03C23.719,47.984,23.857,48,24,48c0.142,0,0.281-0.016,0.415-0.044
	c0.034-0.007,0.065-0.022,0.098-0.03c0.099-0.026,0.198-0.055,0.29-0.096c0.043-0.019,0.082-0.045,0.124-0.067
	c0.078-0.041,0.155-0.082,0.226-0.132c0.043-0.03,0.081-0.067,0.122-0.101c0.064-0.054,0.127-0.108,0.184-0.169
	c0.013-0.014,0.029-0.024,0.042-0.039l22-25C48.231,21.492,48.15,20.229,47.321,19.499z"/>
</svg>
