<?xml version="1.0" encoding="utf-8"?>
<!-- Generator: Adobe Illustrator 17.0.0, SVG Export Plug-In . SVG Version: 6.00 Build 0)  -->
<!DOCTYPE svg PUBLIC "-//W3C//DTD SVG 1.1//EN" "http://www.w3.org/Graphics/SVG/1.1/DTD/svg11.dtd">
<svg version="1.1" id="Layer_2" xmlns="http://www.w3.org/2000/svg" xmlns:xlink="http://www.w3.org/1999/xlink" x="0px" y="0px"
	 width="48px" height="48px" viewBox="0 0 48 48" enable-background="new 0 0 48 48" xml:space="preserve">
<g>
	<rect x="35.379" y="17.684" width="5.538" height="5.538"/>
	<rect x="28.303" y="17.688" width="5.538" height="5.538"/>
	<rect x="21.227" y="17.693" width="5.538" height="5.538"/>
	<rect x="21.223" y="10.617" width="5.538" height="5.538"/>
	<rect x="14.146" y="10.623" width="5.538" height="5.538"/>
	<rect x="21.217" y="3.541" width="5.538" height="5.538"/>
	<rect x="14.151" y="17.699" width="5.538" height="5.538"/>
	<rect x="7.075" y="17.703" width="5.538" height="5.538"/>
	<rect x="42.455" y="17.679" width="5.538" height="5.538"/>
	<rect x="35.385" y="24.76" width="5.538" height="5.537"/>
	<rect x="28.309" y="24.764" width="5.538" height="5.538"/>
	<rect x="21.233" y="24.769" width="5.538" height="5.538"/>
	<rect x="14.157" y="24.775" width="5.538" height="5.538"/>
	<rect x="21.237" y="31.845" width="5.538" height="5.538"/>
	<rect x="21.242" y="38.921" width="5.538" height="5.538"/>
	<rect x="14.162" y="31.851" width="5.538" height="5.538"/>
	<rect x="7.081" y="24.779" width="5.538" height="5.538"/>
	<rect x="0.002" y="21.461" transform="matrix(-9.750563e-04 -1 1 -9.750563e-04 -21.4563 27.0246)" width="5.538" height="5.538"/>
	<rect x="42.461" y="24.754" transform="matrix(1 -0.001 0.001 1 -0.0288 0.0474)" width="5.538" height="5.538"/>
</g>
</svg>
