<?xml version="1.0" encoding="utf-8"?>
<!-- Generator: Adobe Illustrator 17.0.0, SVG Export Plug-In . SVG Version: 6.00 Build 0)  -->
<!DOCTYPE svg PUBLIC "-//W3C//DTD SVG 1.1//EN" "http://www.w3.org/Graphics/SVG/1.1/DTD/svg11.dtd">
<svg version="1.1" id="Layer_2" xmlns="http://www.w3.org/2000/svg" xmlns:xlink="http://www.w3.org/1999/xlink" x="0px" y="0px"
	 width="48px" height="48px" viewBox="0 0 48 48" enable-background="new 0 0 48 48" xml:space="preserve">
<path d="M44.666,20.047c-1.029-1.03-2.387-1.598-3.82-1.598c-1.352,0-2.61,0.514-3.558,1.461l-8.289,8.643V4.067
	c0.001-0.97-0.373-1.859-1.084-2.57C26.98,0.56,25.516,0,23.999,0c-1.56,0-3.04,0.55-3.959,1.47
	c-0.694,0.695-1.059,1.572-1.059,2.536v24.55l-8.319-8.31c-0.911-0.915-2.146-1.418-3.476-1.418c-1.415,0-2.814,0.588-3.84,1.613
	c-2.066,2.07-2.156,5.351-0.199,7.315l19.923,19.951C23.266,47.902,23.523,48,23.779,48c0.256,0,0.512-0.098,0.707-0.292
	l20.33-20.299C46.802,25.421,46.736,22.119,44.666,20.047z"/>
</svg>
