<?xml version="1.0" encoding="utf-8"?>
<!-- Generator: Adobe Illustrator 17.0.0, SVG Export Plug-In . SVG Version: 6.00 Build 0)  -->
<!DOCTYPE svg PUBLIC "-//W3C//DTD SVG 1.1//EN" "http://www.w3.org/Graphics/SVG/1.1/DTD/svg11.dtd">
<svg version="1.1" id="Layer_2" xmlns="http://www.w3.org/2000/svg" xmlns:xlink="http://www.w3.org/1999/xlink" x="0px" y="0px"
	 width="48px" height="48px" viewBox="0 0 48 48" enable-background="new 0 0 48 48" xml:space="preserve">
<path d="M47,7.98H35.062c-0.553,0-1,0.448-1,1v14.055L11.776,0.341c-0.188-0.19-0.442-0.298-0.709-0.299
	c-0.27-0.011-0.523,0.104-0.712,0.293L0.293,10.398C0.103,10.587-0.002,10.843,0,11.111c0.002,0.267,0.11,0.523,0.302,0.71
	l22.68,22.138H8.937c-0.553,0-1,0.448-1,1v12c0,0.552,0.447,1,1,1H47c0.553,0,1-0.448,1-1V8.98C48,8.427,47.553,7.98,47,7.98z"/>
</svg>
