<?xml version="1.0" encoding="utf-8"?>
<!-- Generator: Adobe Illustrator 17.0.0, SVG Export Plug-In . SVG Version: 6.00 Build 0)  -->
<!DOCTYPE svg PUBLIC "-//W3C//DTD SVG 1.1//EN" "http://www.w3.org/Graphics/SVG/1.1/DTD/svg11.dtd">
<svg version="1.1" id="Layer_2" xmlns="http://www.w3.org/2000/svg" xmlns:xlink="http://www.w3.org/1999/xlink" x="0px" y="0px"
	 width="48px" height="48px" viewBox="0 0 48 48" enable-background="new 0 0 48 48" xml:space="preserve">
<g>
	<path fill="#231F20" d="M23.293,27.861c0.195,0.195,0.451,0.293,0.707,0.293c0.256,0,0.512-0.098,0.707-0.293l20.5-20.5
		C45.394,7.173,45.5,6.919,45.5,6.654s-0.106-0.519-0.293-0.707l-5.52-5.519c-0.391-0.391-1.023-0.391-1.414,0L24,14.701
		L9.727,0.428c-0.391-0.391-1.023-0.391-1.414,0L2.793,5.947C2.605,6.134,2.5,6.389,2.5,6.654s0.105,0.519,0.293,0.707
		L23.293,27.861z"/>
	<path fill="#231F20" d="M39.687,20.139c-0.391-0.391-1.023-0.391-1.414,0L24,34.413L9.727,20.139c-0.391-0.391-1.023-0.391-1.414,0
		l-5.519,5.519C2.605,25.846,2.5,26.1,2.5,26.365c0,0.265,0.105,0.52,0.293,0.707l20.5,20.5c0.195,0.195,0.451,0.293,0.707,0.293
		c0.256,0,0.512-0.098,0.707-0.293l20.5-20.5c0.187-0.188,0.293-0.442,0.293-0.707c0-0.265-0.106-0.52-0.293-0.707L39.687,20.139z"
		/>
</g>
</svg>
