<?xml version="1.0" encoding="utf-8"?>
<!-- Generator: Adobe Illustrator 17.0.0, SVG Export Plug-In . SVG Version: 6.00 Build 0)  -->
<!DOCTYPE svg PUBLIC "-//W3C//DTD SVG 1.1//EN" "http://www.w3.org/Graphics/SVG/1.1/DTD/svg11.dtd">
<svg version="1.1" id="Layer_2" xmlns="http://www.w3.org/2000/svg" xmlns:xlink="http://www.w3.org/1999/xlink" x="0px" y="0px"
	 width="48px" height="48px" viewBox="0 0 48 48" enable-background="new 0 0 48 48" xml:space="preserve">
<g>
	<path d="M44,19.875c-2.243,0-4,1.757-4,4s1.757,4,4,4c2.243,0,4-1.757,4-4S46.243,19.875,44,19.875z"/>
	<path d="M36,18.125c2.243,0,4-1.757,4-4s-1.757-4-4-4c-2.243,0-4,1.757-4,4S33.757,18.125,36,18.125z"/>
	<path d="M28,9.875c2.243,0,4-1.757,4-4s-1.757-4-4-4c-2.243,0-4,1.757-4,4S25.757,9.875,28,9.875z"/>
	<path d="M36,30.125c-2.243,0-4,1.757-4,4s1.757,4,4,4c2.243,0,4-1.757,4-4S38.243,30.125,36,30.125z"/>
	<path d="M28,38.125c-2.243,0-4,1.757-4,4s1.757,4,4,4c2.243,0,4-1.757,4-4S30.243,38.125,28,38.125z"/>
	<path d="M4,19.875c-2.243,0-4,1.757-4,4s1.757,4,4,4c2.243,0,4-1.757,4-4S6.243,19.875,4,19.875z"/>
	<path d="M14,19.875c-2.243,0-4,1.757-4,4s1.757,4,4,4c2.243,0,4-1.757,4-4S16.243,19.875,14,19.875z"/>
	<path d="M28,23.875c0-2.243-1.757-4-4-4c-2.243,0-4,1.757-4,4s1.757,4,4,4C26.243,27.875,28,26.118,28,23.875z"/>
	<path d="M30,23.875c0,2.243,1.757,4,4,4c2.243,0,4-1.757,4-4s-1.757-4-4-4C31.757,19.875,30,21.632,30,23.875z"/>
</g>
</svg>
