<?xml version="1.0" encoding="utf-8"?>
<!-- Generator: Adobe Illustrator 17.0.0, SVG Export Plug-In . SVG Version: 6.00 Build 0)  -->
<!DOCTYPE svg PUBLIC "-//W3C//DTD SVG 1.1//EN" "http://www.w3.org/Graphics/SVG/1.1/DTD/svg11.dtd">
<svg version="1.1" id="Layer_2" xmlns="http://www.w3.org/2000/svg" xmlns:xlink="http://www.w3.org/1999/xlink" x="0px" y="0px"
	 width="48px" height="48px" viewBox="0 0 48 48" enable-background="new 0 0 48 48" xml:space="preserve">
<path d="M47,0H1C0.448,0,0,0.448,0,1v46c0,0.552,0.448,1,1,1h46c0.552,0,1-0.448,1-1V1C48,0.448,47.552,0,47,0z M38,26H21
	c-0.405,0-0.771,0.245-0.925,0.619c-0.154,0.375-0.067,0.805,0.22,1.091l6.402,6.353h-6.255l-9.149-10.059l9.146-9.941h6.231
	l-6.369,6.222c-0.291,0.284-0.381,0.716-0.228,1.093C20.227,21.754,20.593,22,21,22h17V26z"/>
</svg>
