<?xml version="1.0" encoding="utf-8"?>
<!-- Generator: Adobe Illustrator 17.0.0, SVG Export Plug-In . SVG Version: 6.00 Build 0)  -->
<!DOCTYPE svg PUBLIC "-//W3C//DTD SVG 1.1//EN" "http://www.w3.org/Graphics/SVG/1.1/DTD/svg11.dtd">
<svg version="1.1" id="Layer_2" xmlns="http://www.w3.org/2000/svg" xmlns:xlink="http://www.w3.org/1999/xlink" x="0px" y="0px"
	 width="48px" height="48px" viewBox="0 0 48 48" enable-background="new 0 0 48 48" xml:space="preserve">
<path d="M47,0H1C0.447,0,0,0.448,0,1v46c0,0.552,0.447,1,1,1h46c0.553,0,1-0.448,1-1V1C48,0.448,47.553,0,47,0z M34.053,33.979
	H20.24l-4.309-3.962h8.793c0.402,0,0.765-0.241,0.921-0.611c0.156-0.37,0.076-0.798-0.204-1.086l-12.01-12.357l2.838-2.838
	l11.999,12.02c0.286,0.287,0.718,0.373,1.09,0.217c0.374-0.154,0.618-0.519,0.618-0.924v-8.926l4.076,4.329V33.979z"/>
</svg>
