<?xml version="1.0" encoding="utf-8"?>
<!-- Generator: Adobe Illustrator 17.0.0, SVG Export Plug-In . SVG Version: 6.00 Build 0)  -->
<!DOCTYPE svg PUBLIC "-//W3C//DTD SVG 1.1//EN" "http://www.w3.org/Graphics/SVG/1.1/DTD/svg11.dtd">
<svg version="1.1" id="Layer_2" xmlns="http://www.w3.org/2000/svg" xmlns:xlink="http://www.w3.org/1999/xlink" x="0px" y="0px"
	 width="48px" height="48px" viewBox="0 0 48 48" enable-background="new 0 0 48 48" xml:space="preserve">
<path d="M40.971,7.029C36.438,2.497,30.411,0,24,0C17.589,0,11.562,2.497,7.029,7.029c-9.357,9.357-9.357,24.584,0,33.941
	C11.562,45.503,17.589,48,24,48c0,0,0.001,0,0.002,0c6.409,0,12.435-2.497,16.969-7.029C50.328,31.613,50.328,16.387,40.971,7.029z
	 M35.991,17.666l-10.33,10.326h5.346c0.799,0,1.552,0.312,2.12,0.88c0.568,0.568,0.88,1.321,0.88,2.12l0,2.036
	c-0.001,1.654-1.347,3-3.001,3H15.029c-1.654,0-3-1.346-3-3V16.973c0-1.654,1.346-3,3-3h2c1.654,0,3,1.346,3,3v5.431l10.35-10.35
	c1.13-1.13,3.112-1.13,4.242,0l1.37,1.37c0.565,0.565,0.876,1.318,0.876,2.121C36.867,16.348,36.556,17.101,35.991,17.666z"/>
</svg>
