<?xml version="1.0" encoding="utf-8"?>
<!-- Generator: Adobe Illustrator 17.0.0, SVG Export Plug-In . SVG Version: 6.00 Build 0)  -->
<!DOCTYPE svg PUBLIC "-//W3C//DTD SVG 1.1//EN" "http://www.w3.org/Graphics/SVG/1.1/DTD/svg11.dtd">
<svg version="1.1" id="Layer_2" xmlns="http://www.w3.org/2000/svg" xmlns:xlink="http://www.w3.org/1999/xlink" x="0px" y="0px"
	 width="48px" height="48px" viewBox="0 0 48 48" enable-background="new 0 0 48 48" xml:space="preserve">
<path d="M47,18.021H22.172L32.76,5.65c0.254-0.297,0.312-0.714,0.148-1.068C32.745,4.227,32.391,4,32,4H18
	c-0.285,0-0.556,0.122-0.746,0.333l-17,19.021c-0.339,0.38-0.339,0.954,0.001,1.333l17,18.979C17.444,43.879,17.716,44,18,44h14.25
	c0.393,0,0.749-0.229,0.911-0.587c0.162-0.358,0.1-0.777-0.159-1.072l-10.796-12.32H47c0.553,0,1-0.448,1-1v-10
	C48,18.469,47.553,18.021,47,18.021z"/>
</svg>
