<?xml version="1.0" encoding="utf-8"?>
<!-- Generator: Adobe Illustrator 17.0.0, SVG Export Plug-In . SVG Version: 6.00 Build 0)  -->
<!DOCTYPE svg PUBLIC "-//W3C//DTD SVG 1.1//EN" "http://www.w3.org/Graphics/SVG/1.1/DTD/svg11.dtd">
<svg version="1.1" id="Layer_2" xmlns="http://www.w3.org/2000/svg" xmlns:xlink="http://www.w3.org/1999/xlink" x="0px" y="0px"
	 width="48px" height="48px" viewBox="0 0 48 48" enable-background="new 0 0 48 48" xml:space="preserve">
<path d="M47.741,18.326c-0.188-0.189-0.443-0.295-0.709-0.295H22.722l7.729-8.3c0.367-0.394,0.356-1.008-0.025-1.389l-6.9-6.9
	c-0.391-0.391-1.023-0.391-1.414,0l-21.85,21.85c-0.391,0.391-0.391,1.023,0,1.414l21.85,21.85c0.195,0.195,0.451,0.293,0.707,0.293
	c0.256,0,0.512-0.098,0.707-0.293l6.9-6.9c0.381-0.381,0.392-0.996,0.024-1.389l-7.63-8.174h24.149c0.55,0,0.997-0.444,1-0.994
	l0.062-10.062C48.033,18.771,47.928,18.515,47.741,18.326z"/>
</svg>
