<?xml version="1.0" encoding="utf-8"?>
<!-- Generator: Adobe Illustrator 17.0.0, SVG Export Plug-In . SVG Version: 6.00 Build 0)  -->
<!DOCTYPE svg PUBLIC "-//W3C//DTD SVG 1.1//EN" "http://www.w3.org/Graphics/SVG/1.1/DTD/svg11.dtd">
<svg version="1.1" id="Layer_2" xmlns="http://www.w3.org/2000/svg" xmlns:xlink="http://www.w3.org/1999/xlink" x="0px" y="0px"
	 width="48px" height="48px" viewBox="0 0 48 48" enable-background="new 0 0 48 48" xml:space="preserve">
<path d="M47.651,12.036l-5.164-4.426c-0.418-0.359-1.05-0.311-1.41,0.107L23.997,27.64L6.923,7.719
	C6.75,7.517,6.505,7.393,6.24,7.372C5.976,7.35,5.714,7.438,5.513,7.611l-5.164,4.426c-0.419,0.359-0.468,0.99-0.108,1.409
	l22.997,26.836c0.19,0.222,0.467,0.35,0.759,0.35s0.569-0.128,0.759-0.35l23.003-26.836c0.172-0.201,0.258-0.463,0.238-0.728
	C47.977,12.454,47.852,12.208,47.651,12.036z"/>
</svg>
