<?xml version="1.0" encoding="utf-8"?>
<!-- Generator: Adobe Illustrator 17.0.0, SVG Export Plug-In . SVG Version: 6.00 Build 0)  -->
<!DOCTYPE svg PUBLIC "-//W3C//DTD SVG 1.1//EN" "http://www.w3.org/Graphics/SVG/1.1/DTD/svg11.dtd">
<svg version="1.1" id="Layer_2" xmlns="http://www.w3.org/2000/svg" xmlns:xlink="http://www.w3.org/1999/xlink" x="0px" y="0px"
	 width="48px" height="48px" viewBox="0 0 48 48" enable-background="new 0 0 48 48" xml:space="preserve">
<path d="M47.716,23.381L27.699,3.315c-0.287-0.287-0.719-0.373-1.09-0.218c-0.374,0.155-0.618,0.52-0.618,0.924v11.958h-25
	c-0.552,0-1,0.448-1,1v14c0,0.552,0.448,1,1,1h25v12c0,0.404,0.243,0.768,0.616,0.923c0.125,0.052,0.255,0.077,0.384,0.077
	c0.259,0,0.514-0.101,0.705-0.291l20.017-19.892c0.188-0.188,0.294-0.442,0.295-0.708C48.009,23.824,47.904,23.569,47.716,23.381z"
	/>
</svg>
