<?xml version="1.0" encoding="utf-8"?>
<!-- Generator: Adobe Illustrator 17.0.0, SVG Export Plug-In . SVG Version: 6.00 Build 0)  -->
<!DOCTYPE svg PUBLIC "-//W3C//DTD SVG 1.1//EN" "http://www.w3.org/Graphics/SVG/1.1/DTD/svg11.dtd">
<svg version="1.1" id="Layer_2" xmlns="http://www.w3.org/2000/svg" xmlns:xlink="http://www.w3.org/1999/xlink" x="0px" y="0px"
	 width="48px" height="48px" viewBox="0 0 48 48" enable-background="new 0 0 48 48" xml:space="preserve">
<path d="M47.708,23.514L27.409,3.184c-0.934-0.933-2.191-1.446-3.543-1.446c-1.433,0-2.788,0.566-3.819,1.595
	c-0.994,0.994-1.561,2.304-1.596,3.688c-0.035,1.403,0.479,2.708,1.46,3.689L28.555,19H4.061C1.519,19,0,21.542,0,24
	c0,2.433,1.402,5.018,4.006,5.018h24.55l-8.31,8.319c-0.913,0.91-1.417,2.143-1.418,3.471c-0.002,1.417,0.586,2.818,1.613,3.845
	c1.025,1.023,2.425,1.61,3.84,1.61c1.327,0,2.561-0.501,3.475-1.412l19.951-19.922C48.098,24.538,48.098,23.905,47.708,23.514z"/>
</svg>
