<?xml version="1.0" encoding="utf-8"?>
<!-- Generator: Adobe Illustrator 17.0.0, SVG Export Plug-In . SVG Version: 6.00 Build 0)  -->
<!DOCTYPE svg PUBLIC "-//W3C//DTD SVG 1.1//EN" "http://www.w3.org/Graphics/SVG/1.1/DTD/svg11.dtd">
<svg version="1.1" id="Layer_2" xmlns="http://www.w3.org/2000/svg" xmlns:xlink="http://www.w3.org/1999/xlink" x="0px" y="0px"
	 width="48px" height="48px" viewBox="0 0 48 48" enable-background="new 0 0 48 48" xml:space="preserve">
<g>
	<path fill="#010101" d="M35.74,11.116L24.916,0.293c-0.387-0.386-1.009-0.392-1.4-0.014l-11.24,10.823
		c-0.196,0.188-0.307,0.449-0.307,0.721v10.824c0,0.401,0.239,0.764,0.608,0.92c0.368,0.157,0.798,0.079,1.085-0.199l10.533-10.143
		l10.131,10.13c0.191,0.191,0.447,0.293,0.707,0.293c0.129,0,0.259-0.024,0.383-0.076c0.374-0.154,0.617-0.519,0.617-0.924V11.823
		C36.033,11.558,35.927,11.304,35.74,11.116z"/>
	<path fill="#010101" d="M24.916,19.235c-0.387-0.386-1.009-0.391-1.4-0.014l-11.24,10.823c-0.196,0.188-0.307,0.449-0.307,0.721
		v8.118c0,0.401,0.239,0.764,0.608,0.92c0.368,0.157,0.798,0.079,1.085-0.199L24.195,29.46l10.131,10.13
		c0.191,0.191,0.447,0.293,0.707,0.293c0.129,0,0.259-0.024,0.383-0.076c0.374-0.154,0.617-0.52,0.617-0.924v-8.118
		c0-0.266-0.105-0.519-0.293-0.707L24.916,19.235z"/>
	<path fill="#010101" d="M24.915,35.47c-0.386-0.386-1.009-0.392-1.4-0.014l-11.24,10.823c-0.398,0.384-0.41,1.017-0.027,1.414
		C12.443,47.898,12.706,48,12.967,48c0.25,0,0.5-0.093,0.693-0.279l10.533-10.143l10.13,10.129c0.391,0.391,1.023,0.391,1.414,0
		c0.391-0.391,0.391-1.023,0-1.414L24.915,35.47z"/>
</g>
</svg>
