<?xml version="1.0" encoding="utf-8"?>
<!-- Generator: Adobe Illustrator 17.0.0, SVG Export Plug-In . SVG Version: 6.00 Build 0)  -->
<!DOCTYPE svg PUBLIC "-//W3C//DTD SVG 1.1//EN" "http://www.w3.org/Graphics/SVG/1.1/DTD/svg11.dtd">
<svg version="1.1" id="Layer_2" xmlns="http://www.w3.org/2000/svg" xmlns:xlink="http://www.w3.org/1999/xlink" x="0px" y="0px"
	 width="48px" height="48px" viewBox="0 0 48 48" enable-background="new 0 0 48 48" xml:space="preserve">
<path d="M47.378,3.044c-0.373-0.152-0.803-0.069-1.09,0.216L24.032,25.476L1.71,3.275C1.425,2.99,0.995,2.909,0.621,3.06
	c-0.373,0.155-0.616,0.52-0.616,0.924v17.143c0,0.267,0.106,0.521,0.295,0.709L23.329,44.74c0.195,0.194,0.45,0.291,0.705,0.291
	c0.256,0,0.511-0.098,0.707-0.292l22.961-22.92c0.188-0.188,0.294-0.442,0.294-0.708V3.968C47.995,3.564,47.751,3.2,47.378,3.044z"
	/>
</svg>
