<?xml version="1.0" encoding="utf-8"?>
<!-- Generator: Adobe Illustrator 17.0.0, SVG Export Plug-In . SVG Version: 6.00 Build 0)  -->
<!DOCTYPE svg PUBLIC "-//W3C//DTD SVG 1.1//EN" "http://www.w3.org/Graphics/SVG/1.1/DTD/svg11.dtd">
<svg version="1.1" id="Layer_2" xmlns="http://www.w3.org/2000/svg" xmlns:xlink="http://www.w3.org/1999/xlink" x="0px" y="0px"
	 width="48px" height="48px" viewBox="0 0 48 48" enable-background="new 0 0 48 48" xml:space="preserve">
<path d="M47,0H1C0.447,0,0,0.448,0,1v46c0,0.552,0.447,1,1,1h46c0.553,0,1-0.448,1-1V1C48,0.448,47.553,0,47,0z M34.062,27.558
	l-10.059,9.149l-9.941-9.146V21.33l6.223,6.369c0.283,0.292,0.715,0.38,1.092,0.228C21.754,27.772,22,27.407,22,27V10h4v17
	c0,0.405,0.244,0.771,0.619,0.925c0.372,0.153,0.805,0.067,1.091-0.22l6.353-6.402V27.558z"/>
</svg>
