<?xml version="1.0" encoding="utf-8"?>
<!-- Generator: Adobe Illustrator 17.0.0, SVG Export Plug-In . SVG Version: 6.00 Build 0)  -->
<!DOCTYPE svg PUBLIC "-//W3C//DTD SVG 1.1//EN" "http://www.w3.org/Graphics/SVG/1.1/DTD/svg11.dtd">
<svg version="1.1" id="Layer_2" xmlns="http://www.w3.org/2000/svg" xmlns:xlink="http://www.w3.org/1999/xlink" x="0px" y="0px"
	 width="48px" height="48px" viewBox="0 0 48 48" enable-background="new 0 0 48 48" xml:space="preserve">
<path d="M24,0C10.767,0,0,10.767,0,24s10.767,24,24,24c13.233,0,24-10.767,24-24S37.233,0,24,0z M36.02,34
	c-0.006,0-0.013-0.001-0.02,0H12c-0.357,0-0.686-0.189-0.865-0.498c-0.179-0.309-0.18-0.688-0.003-0.998l12-21
	c0.356-0.623,1.381-0.623,1.736,0l11.913,20.848C36.93,32.526,37.02,32.753,37.02,33C37.02,33.553,36.572,34,36.02,34z"/>
</svg>
