<?xml version="1.0" encoding="utf-8"?>
<!-- Generator: Adobe Illustrator 17.0.0, SVG Export Plug-In . SVG Version: 6.00 Build 0)  -->
<!DOCTYPE svg PUBLIC "-//W3C//DTD SVG 1.1//EN" "http://www.w3.org/Graphics/SVG/1.1/DTD/svg11.dtd">
<svg version="1.1" id="Layer_2" xmlns="http://www.w3.org/2000/svg" xmlns:xlink="http://www.w3.org/1999/xlink" x="0px" y="0px"
	 width="48px" height="48px" viewBox="0 0 48 48" enable-background="new 0 0 48 48" xml:space="preserve">
<path d="M41.994,11.622c0.001-1.324-0.639-2.755-1.711-3.827c-1.102-1.102-2.535-1.76-3.836-1.76c-0.983,0-1.863,0.361-2.537,1.037
	L15.943,24.671l-0.007-11.99c0.003-1.412-0.51-2.704-1.443-3.639c-0.898-0.9-2.137-1.396-3.487-1.396
	c-2.834,0.002-4.975,2.165-4.98,5.032L6.006,40.965c0,0.265,0.105,0.52,0.293,0.708c0.187,0.188,0.441,0.293,0.707,0.293h28.615
	c2.905,0,5.099-2.15,5.1-5c0-1.407-0.542-2.683-1.525-3.593c-0.937-0.867-2.207-1.344-3.575-1.344H23.537l17.406-17.821
	C41.63,13.521,41.994,12.628,41.994,11.622z"/>
</svg>
