<?xml version="1.0" encoding="utf-8"?>
<!-- Generator: Adobe Illustrator 17.0.0, SVG Export Plug-In . SVG Version: 6.00 Build 0)  -->
<!DOCTYPE svg PUBLIC "-//W3C//DTD SVG 1.1//EN" "http://www.w3.org/Graphics/SVG/1.1/DTD/svg11.dtd">
<svg version="1.1" id="Layer_2" xmlns="http://www.w3.org/2000/svg" xmlns:xlink="http://www.w3.org/1999/xlink" x="0px" y="0px"
	 width="48px" height="48px" viewBox="0 0 48 48" enable-background="new 0 0 48 48" xml:space="preserve">
<g>
	<rect x="24.778" y="35.379" width="5.538" height="5.538"/>
	<rect x="24.774" y="28.303" width="5.538" height="5.538"/>
	<rect x="24.769" y="21.227" width="5.538" height="5.538"/>
	<rect x="31.845" y="21.223" width="5.538" height="5.538"/>
	<rect x="31.839" y="14.147" width="5.538" height="5.538"/>
	<rect x="38.921" y="21.218" transform="matrix(1 -0.001 0.001 1 -0.0247 0.0429)" width="5.538" height="5.537"/>
	<rect x="24.763" y="14.151" width="5.538" height="5.538"/>
	<rect x="24.759" y="7.075" width="5.538" height="5.538"/>
	
		<rect x="24.784" y="42.456" transform="matrix(-9.559828e-04 -1 1 -9.559828e-04 -17.6455 72.8205)" width="5.537" height="5.538"/>
	<rect x="17.702" y="35.385" width="5.538" height="5.537"/>
	<rect x="17.698" y="28.309" width="5.538" height="5.538"/>
	<rect x="17.693" y="21.233" width="5.538" height="5.538"/>
	<rect x="17.687" y="14.157" width="5.538" height="5.538"/>
	<rect x="10.617" y="21.238" width="5.538" height="5.538"/>
	<rect x="3.541" y="21.242" width="5.538" height="5.538"/>
	<rect x="10.611" y="14.162" width="5.538" height="5.538"/>
	<rect x="17.683" y="7.081" width="5.538" height="5.538"/>
	<rect x="21.216" y="0.002" transform="matrix(0.001 1 -1 0.001 26.7306 -21.2168)" width="5.538" height="5.538"/>
	
		<rect x="17.707" y="42.461" transform="matrix(-9.750563e-04 -1 1 -9.750563e-04 -24.7335 65.7506)" width="5.538" height="5.538"/>
</g>
</svg>
