<?xml version="1.0" encoding="utf-8"?>
<!-- Generator: Adobe Illustrator 17.0.0, SVG Export Plug-In . SVG Version: 6.00 Build 0)  -->
<!DOCTYPE svg PUBLIC "-//W3C//DTD SVG 1.1//EN" "http://www.w3.org/Graphics/SVG/1.1/DTD/svg11.dtd">
<svg version="1.1" id="Layer_2" xmlns="http://www.w3.org/2000/svg" xmlns:xlink="http://www.w3.org/1999/xlink" x="0px" y="0px"
	 width="48px" height="48px" viewBox="0 0 48 48" enable-background="new 0 0 48 48" xml:space="preserve">
<path d="M24,0C10.767,0,0,10.767,0,24s10.767,24,24,24s24-10.767,24-24S37.233,0,24,0z M30,17c0,0.309-0.143,0.6-0.386,0.789
	L21.629,24l7.985,6.211C29.857,30.4,30,30.691,30,31v8c0,0.388-0.225,0.741-0.576,0.905C29.289,39.969,29.144,40,29,40
	c-0.23,0-0.457-0.079-0.64-0.231l-18-15C10.132,24.578,10,24.297,10,24s0.132-0.578,0.36-0.769l18-15
	c0.298-0.248,0.713-0.301,1.064-0.137C29.775,8.259,30,8.612,30,9V17z"/>
</svg>
