<?xml version="1.0" encoding="utf-8"?>
<!-- Generator: Adobe Illustrator 17.0.0, SVG Export Plug-In . SVG Version: 6.00 Build 0)  -->
<!DOCTYPE svg PUBLIC "-//W3C//DTD SVG 1.1//EN" "http://www.w3.org/Graphics/SVG/1.1/DTD/svg11.dtd">
<svg version="1.1" id="Layer_2" xmlns="http://www.w3.org/2000/svg" xmlns:xlink="http://www.w3.org/1999/xlink" x="0px" y="0px"
	 width="48px" height="48px" viewBox="0 0 48 48" enable-background="new 0 0 48 48" xml:space="preserve">
<g>
	<path d="M47.721,23.515l-10.823-11.24c-0.188-0.196-0.449-0.307-0.721-0.307H25.353c-0.401,0-0.764,0.239-0.92,0.608
		c-0.157,0.369-0.078,0.796,0.199,1.085l10.143,10.533l-10.129,10.13c-0.286,0.286-0.372,0.716-0.217,1.09
		c0.154,0.374,0.52,0.617,0.924,0.617h10.823c0.266,0,0.52-0.105,0.707-0.293l10.823-10.823
		C48.093,24.531,48.099,23.908,47.721,23.515z"/>
	<path d="M28.78,23.515l-10.824-11.24c-0.189-0.196-0.449-0.307-0.721-0.307H9.118c-0.401,0-0.764,0.239-0.92,0.608
		c-0.157,0.369-0.078,0.796,0.199,1.085L18.54,24.195L8.411,34.325c-0.286,0.286-0.372,0.716-0.217,1.09
		c0.154,0.374,0.52,0.617,0.924,0.617h8.117c0.266,0,0.52-0.105,0.707-0.293l10.824-10.823
		C29.152,24.531,29.158,23.908,28.78,23.515z"/>
	<path d="M12.545,23.514L1.721,12.274c-0.384-0.398-1.019-0.409-1.414-0.027c-0.398,0.384-0.41,1.017-0.027,1.414l10.144,10.533
		l-10.13,10.13c-0.391,0.391-0.391,1.023,0,1.414C0.488,35.933,0.744,36.031,1,36.031c0.256,0,0.512-0.098,0.707-0.293
		l10.824-10.823C12.917,24.53,12.923,23.907,12.545,23.514z"/>
</g>
</svg>
