<?xml version="1.0" encoding="utf-8"?>
<!-- Generator: Adobe Illustrator 17.0.0, SVG Export Plug-In . SVG Version: 6.00 Build 0)  -->
<!DOCTYPE svg PUBLIC "-//W3C//DTD SVG 1.1//EN" "http://www.w3.org/Graphics/SVG/1.1/DTD/svg11.dtd">
<svg version="1.1" id="Layer_2" xmlns="http://www.w3.org/2000/svg" xmlns:xlink="http://www.w3.org/1999/xlink" x="0px" y="0px"
	 width="48px" height="48px" viewBox="0 0 48 48" enable-background="new 0 0 48 48" xml:space="preserve">
<path d="M24,0C10.767,0,0,10.767,0,24s10.767,24,24,24c13.233,0,24-10.767,24-24S37.233,0,24,0z M34,36
	c0,0.356-0.189,0.686-0.498,0.865C33.347,36.955,33.174,37,33,37c-0.171,0-0.343-0.044-0.496-0.132l-21-12
	C11.192,24.69,11,24.358,11,24s0.192-0.69,0.504-0.868l21-12c0.31-0.178,0.69-0.175,0.998,0.003C33.811,11.314,34,11.644,34,12V36z"
	/>
</svg>
