<?xml version="1.0" encoding="utf-8"?>
<!-- Generator: Adobe Illustrator 17.0.0, SVG Export Plug-In . SVG Version: 6.00 Build 0)  -->
<!DOCTYPE svg PUBLIC "-//W3C//DTD SVG 1.1//EN" "http://www.w3.org/Graphics/SVG/1.1/DTD/svg11.dtd">
<svg version="1.1" id="Layer_2" xmlns="http://www.w3.org/2000/svg" xmlns:xlink="http://www.w3.org/1999/xlink" x="0px" y="0px"
	 width="48px" height="48px" viewBox="0 0 48 48" enable-background="new 0 0 48 48" xml:space="preserve">
<g>
	<rect x="4.3" y="38.3" width="5.4" height="5.399"/>
	<rect x="4.3" y="31.5" width="5.4" height="5.4"/>
	<rect x="4.3" y="24.7" width="5.4" height="5.4"/>
	<rect x="4.3" y="17.9" width="5.4" height="5.4"/>
	<rect x="11.1" y="31.5" width="5.4" height="5.4"/>
	<rect x="11.1" y="24.7" width="5.4" height="5.4"/>
	<rect x="11.1" y="17.9" width="5.4" height="5.4"/>
	<rect x="17.9" y="31.5" width="5.4" height="5.4"/>
	<rect x="17.9" y="24.7" width="5.4" height="5.4"/>
	<rect x="17.9" y="17.9" width="5.4" height="5.4"/>
	<rect x="4.3" y="11.1" width="5.4" height="5.399"/>
	<rect x="31.5" y="17.9" width="5.4" height="5.4"/>
	<rect x="31.5" y="11.1" width="5.4" height="5.399"/>
	<rect x="31.5" y="4.3" width="5.4" height="5.399"/>
	<rect x="38.3" y="11.1" width="5.4" height="5.399"/>
	<rect x="24.7" y="31.5" width="5.4" height="5.4"/>
	<rect x="24.7" y="24.7" width="5.4" height="5.4"/>
	<rect x="24.7" y="17.9" width="5.4" height="5.4"/>
	<rect x="24.7" y="11.1" width="5.4" height="5.399"/>
	<rect x="31.5" y="38.3" width="5.4" height="5.399"/>
	<rect x="24.7" y="38.3" width="5.4" height="5.399"/>
	<rect x="17.9" y="38.3" width="5.4" height="5.399"/>
	<rect x="11.1" y="38.3" width="5.4" height="5.399"/>
</g>
</svg>
