<?xml version="1.0" encoding="utf-8"?>
<!-- Generator: Adobe Illustrator 17.0.0, SVG Export Plug-In . SVG Version: 6.00 Build 0)  -->
<!DOCTYPE svg PUBLIC "-//W3C//DTD SVG 1.1//EN" "http://www.w3.org/Graphics/SVG/1.1/DTD/svg11.dtd">
<svg version="1.1" id="Layer_2" xmlns="http://www.w3.org/2000/svg" xmlns:xlink="http://www.w3.org/1999/xlink" x="0px" y="0px"
	 width="48px" height="48px" viewBox="0 0 48 48" enable-background="new 0 0 48 48" xml:space="preserve">
<path d="M47,0H1C0.447,0,0,0.447,0,1v46c0,0.553,0.447,1,1,1h46c0.553,0,1-0.447,1-1V1C48,0.447,47.553,0,47,0z M35.567,24.74
	l-12.105,11C23.277,35.907,23.038,36,22.789,36h-7.263c-0.413,0-0.784-0.254-0.933-0.64c-0.149-0.386-0.046-0.822,0.26-1.101
	l11.294-10.263L14.852,13.654c-0.305-0.278-0.406-0.715-0.257-1.1c0.149-0.385,0.52-0.638,0.932-0.638h7.263
	c0.25,0,0.491,0.094,0.675,0.263l12.105,11.083c0.208,0.189,0.326,0.458,0.325,0.739C35.894,24.283,35.775,24.551,35.567,24.74z"/>
</svg>
