<?xml version="1.0" encoding="utf-8"?>
<!-- Generator: Adobe Illustrator 17.0.0, SVG Export Plug-In . SVG Version: 6.00 Build 0)  -->
<!DOCTYPE svg PUBLIC "-//W3C//DTD SVG 1.1//EN" "http://www.w3.org/Graphics/SVG/1.1/DTD/svg11.dtd">
<svg version="1.1" id="Layer_2" xmlns="http://www.w3.org/2000/svg" xmlns:xlink="http://www.w3.org/1999/xlink" x="0px" y="0px"
	 width="48px" height="48px" viewBox="0 0 48 48" enable-background="new 0 0 48 48" xml:space="preserve">
<g>
	<path d="M40.97,35.294c-1.539-1.539-4.128-1.53-5.657,0c-0.759,0.759-1.182,1.755-1.189,2.804
		c-0.008,1.065,0.415,2.078,1.189,2.853c0.768,0.768,1.771,1.19,2.824,1.19c1.06,0,2.066-0.423,2.833-1.19
		c0.759-0.759,1.182-1.754,1.19-2.803C42.168,37.083,41.745,36.07,40.97,35.294z"/>
	<path d="M38.137,29.59c1.06,0,2.066-0.422,2.833-1.19c1.586-1.586,1.586-4.071,0-5.657c-1.539-1.539-4.127-1.53-5.657,0
		c-1.586,1.586-1.586,4.071,0,5.657C36.081,29.167,37.084,29.59,38.137,29.59z"/>
	<path d="M38.137,18.1c1.06,0,2.066-0.423,2.833-1.19c1.586-1.586,1.586-4.071,0-5.657c-1.539-1.539-4.128-1.53-5.657,0
		c-1.586,1.587-1.586,4.071,0,5.657C36.081,17.677,37.084,18.1,38.137,18.1z"/>
	<path d="M22.409,35.294c-0.759,0.759-1.182,1.755-1.19,2.804c-0.008,1.065,0.415,2.078,1.19,2.853
		c0.768,0.768,1.77,1.19,2.824,1.19h0c1.059,0,2.065-0.423,2.833-1.19c0.759-0.759,1.182-1.754,1.19-2.803
		c0.008-1.065-0.415-2.078-1.19-2.854C26.528,33.756,23.939,33.764,22.409,35.294z"/>
	<path d="M11.095,35.294c-0.759,0.759-1.182,1.754-1.189,2.804c-0.008,1.065,0.415,2.078,1.189,2.853
		c0.767,0.768,1.769,1.19,2.823,1.19h0c1.06,0,2.065-0.423,2.833-1.19c1.586-1.586,1.586-4.07,0-5.656
		C15.213,33.756,12.623,33.765,11.095,35.294z"/>
	<path d="M12.686,7.01c-1.538-1.539-4.128-1.53-5.657,0c-1.586,1.587-1.586,4.071,0,5.657c0.767,0.768,1.77,1.19,2.823,1.19
		c1.06,0,2.066-0.423,2.833-1.19C14.272,11.081,14.272,8.596,12.686,7.01z"/>
	<path d="M19.757,14.081c-1.538-1.539-4.126-1.529-5.656,0c-0.759,0.759-1.182,1.754-1.189,2.804
		c-0.008,1.065,0.415,2.078,1.189,2.853c0.767,0.768,1.77,1.19,2.823,1.19c1.06,0,2.066-0.422,2.833-1.19
		c0.759-0.759,1.182-1.754,1.19-2.803C20.955,15.87,20.533,14.856,19.757,14.081z"/>
	<path d="M26.828,26.809c0.759-0.759,1.182-1.754,1.19-2.803c0.008-1.065-0.415-2.078-1.19-2.854c-1.539-1.539-4.128-1.53-5.657,0
		c-0.759,0.759-1.182,1.755-1.189,2.804c-0.008,1.065,0.415,2.078,1.189,2.853c0.767,0.768,1.77,1.19,2.824,1.19
		C25.055,27.999,26.061,27.576,26.828,26.809z"/>
	<path d="M33.899,28.223c-1.538-1.539-4.126-1.529-5.656,0c-1.586,1.586-1.586,4.071,0,5.657c0.767,0.768,1.77,1.19,2.823,1.19
		c1.06,0,2.066-0.422,2.833-1.19c0.759-0.759,1.182-1.754,1.19-2.803C35.097,30.012,34.675,28.998,33.899,28.223z"/>
</g>
</svg>
