<?xml version="1.0" encoding="utf-8"?>
<!-- Generator: Adobe Illustrator 17.0.0, SVG Export Plug-In . SVG Version: 6.00 Build 0)  -->
<!DOCTYPE svg PUBLIC "-//W3C//DTD SVG 1.1//EN" "http://www.w3.org/Graphics/SVG/1.1/DTD/svg11.dtd">
<svg version="1.1" id="Layer_2" xmlns="http://www.w3.org/2000/svg" xmlns:xlink="http://www.w3.org/1999/xlink" x="0px" y="0px"
	 width="48px" height="48px" viewBox="0 0 48 48" enable-background="new 0 0 48 48" xml:space="preserve">
<path d="M40.281,23.244L13.445,0.241c-0.201-0.173-0.453-0.258-0.727-0.238c-0.264,0.02-0.51,0.145-0.683,0.347L7.609,5.514
	c-0.358,0.419-0.311,1.05,0.108,1.409l19.922,17.08L7.719,41.076c-0.42,0.36-0.469,0.991-0.109,1.41l4.426,5.164
	c0.198,0.232,0.479,0.35,0.76,0.35c0.23,0,0.462-0.079,0.65-0.24l26.836-22.997c0.222-0.19,0.35-0.468,0.35-0.76
	C40.631,23.711,40.503,23.434,40.281,23.244z"/>
</svg>
