<?xml version="1.0" encoding="utf-8"?>
<!-- Generator: Adobe Illustrator 17.0.0, SVG Export Plug-In . SVG Version: 6.00 Build 0)  -->
<!DOCTYPE svg PUBLIC "-//W3C//DTD SVG 1.1//EN" "http://www.w3.org/Graphics/SVG/1.1/DTD/svg11.dtd">
<svg version="1.1" id="Layer_2" xmlns="http://www.w3.org/2000/svg" xmlns:xlink="http://www.w3.org/1999/xlink" x="0px" y="0px"
	 width="48px" height="48px" viewBox="0 0 48 48" enable-background="new 0 0 48 48" xml:space="preserve">
<path d="M24,0C10.767,0,0,10.767,0,24s10.767,24,24,24c13.233,0,24-10.767,24-24S37.233,0,24,0z M36.868,15.496l-12,21
	C24.69,36.808,24.358,37,24,37c-0.358,0-0.69-0.192-0.868-0.504l-12-21c-0.177-0.31-0.176-0.69,0.003-0.998
	C11.314,14.189,11.644,14,12,14h24c0.356,0,0.686,0.189,0.865,0.498C37.044,14.807,37.045,15.186,36.868,15.496z"/>
</svg>
