<?xml version="1.0" encoding="utf-8"?>
<!-- Generator: Adobe Illustrator 17.0.0, SVG Export Plug-In . SVG Version: 6.00 Build 0)  -->
<!DOCTYPE svg PUBLIC "-//W3C//DTD SVG 1.1//EN" "http://www.w3.org/Graphics/SVG/1.1/DTD/svg11.dtd">
<svg version="1.1" id="Layer_2" xmlns="http://www.w3.org/2000/svg" xmlns:xlink="http://www.w3.org/1999/xlink" x="0px" y="0px"
	 width="48px" height="48px" viewBox="0 0 48 48" enable-background="new 0 0 48 48" xml:space="preserve">
<path d="M44.816,20.591L24.486,0.293c-0.391-0.391-1.024-0.391-1.415,0.001L3.148,20.245c-1.957,1.963-1.867,5.245,0.2,7.315
	c1.024,1.025,2.424,1.613,3.839,1.613c1.33,0,2.565-0.503,3.475-1.417l8.32-8.312v24.548c-0.001,0.965,0.364,1.842,1.059,2.537
	C20.959,47.45,22.44,48,23.999,48c1.517,0,2.981-0.56,3.916-1.497c0.711-0.711,1.085-1.6,1.084-2.569V19.446l8.304,8.658
	c0.933,0.933,2.191,1.447,3.543,1.447c1.434,0,2.791-0.567,3.821-1.598C46.736,25.881,46.802,22.579,44.816,20.591z"/>
</svg>
