<?xml version="1.0" encoding="utf-8"?>
<!-- Generator: Adobe Illustrator 17.0.0, SVG Export Plug-In . SVG Version: 6.00 Build 0)  -->
<!DOCTYPE svg PUBLIC "-//W3C//DTD SVG 1.1//EN" "http://www.w3.org/Graphics/SVG/1.1/DTD/svg11.dtd">
<svg version="1.1" id="Layer_2" xmlns="http://www.w3.org/2000/svg" xmlns:xlink="http://www.w3.org/1999/xlink" x="0px" y="0px"
	 width="48px" height="48px" viewBox="0 0 48 48" enable-background="new 0 0 48 48" xml:space="preserve">
<path d="M46.557,24.447l-6.899-6.9c-0.38-0.381-0.992-0.391-1.387-0.026l-8.203,7.605V0.996c0-0.552-0.447-1-1-1h-10.01
	c-0.553,0-1,0.448-1,1v24.18l-8.331-7.659c-0.394-0.362-1.005-0.349-1.384,0.029l-6.899,6.9c-0.391,0.391-0.391,1.023,0,1.414
	l21.85,21.85c0.187,0.188,0.441,0.293,0.707,0.293c0.266,0,0.519-0.105,0.707-0.293l21.85-21.85
	C46.947,25.47,46.947,24.837,46.557,24.447z"/>
</svg>
