<?xml version="1.0" encoding="utf-8"?>
<!-- Generator: Adobe Illustrator 17.0.0, SVG Export Plug-In . SVG Version: 6.00 Build 0)  -->
<!DOCTYPE svg PUBLIC "-//W3C//DTD SVG 1.1//EN" "http://www.w3.org/Graphics/SVG/1.1/DTD/svg11.dtd">
<svg version="1.1" id="Layer_2" xmlns="http://www.w3.org/2000/svg" xmlns:xlink="http://www.w3.org/1999/xlink" x="0px" y="0px"
	 width="48px" height="48px" viewBox="0 0 48 48" enable-background="new 0 0 48 48" xml:space="preserve">
<path d="M44.62,46.18L22.515,24.033l22.2-22.323C45,1.424,45.084,0.994,44.93,0.621c-0.155-0.373-0.52-0.616-0.924-0.616H26.863
	c-0.266,0-0.521,0.106-0.709,0.295L3.25,23.329c-0.389,0.391-0.388,1.021,0.001,1.411l22.92,22.961
	c0.188,0.188,0.442,0.294,0.708,0.294h17.143c0.008,0,0.015,0,0.02,0c0.553,0,1-0.447,1-1C45.041,46.658,44.875,46.361,44.62,46.18z
	"/>
</svg>
