<?xml version="1.0" encoding="utf-8"?>
<!-- Generator: Adobe Illustrator 17.0.0, SVG Export Plug-In . SVG Version: 6.00 Build 0)  -->
<!DOCTYPE svg PUBLIC "-//W3C//DTD SVG 1.1//EN" "http://www.w3.org/Graphics/SVG/1.1/DTD/svg11.dtd">
<svg version="1.1" id="Layer_2" xmlns="http://www.w3.org/2000/svg" xmlns:xlink="http://www.w3.org/1999/xlink" x="0px" y="0px"
	 width="48px" height="48px" viewBox="0 0 48 48" enable-background="new 0 0 48 48" xml:space="preserve">
<path d="M24,0C10.767,0,0,10.767,0,24s10.767,24,24,24c13.233,0,24-10.767,24-24S37.233,0,24,0z M36.496,24.868l-21,12
	C15.343,36.956,15.171,37,15,37c-0.174,0-0.347-0.045-0.502-0.135C14.189,36.686,14,36.356,14,36V12
	c0-0.356,0.189-0.686,0.498-0.865c0.308-0.178,0.689-0.181,0.998-0.003l21,12C36.808,23.31,37,23.642,37,24
	S36.808,24.69,36.496,24.868z"/>
</svg>
