<?xml version="1.0" encoding="utf-8"?>
<!-- Generator: Adobe Illustrator 17.0.0, SVG Export Plug-In . SVG Version: 6.00 Build 0)  -->
<!DOCTYPE svg PUBLIC "-//W3C//DTD SVG 1.1//EN" "http://www.w3.org/Graphics/SVG/1.1/DTD/svg11.dtd">
<svg version="1.1" id="Layer_2" xmlns="http://www.w3.org/2000/svg" xmlns:xlink="http://www.w3.org/1999/xlink" x="0px" y="0px"
	 width="48px" height="48px" viewBox="0 0 48 48" enable-background="new 0 0 48 48" xml:space="preserve">
<path d="M24,0C10.767,0,0,10.767,0,24s10.767,24,24,24c13.233,0,24-10.767,24-24S37.233,0,24,0z M39.769,19.641l-15,18
	C24.578,37.868,24.297,38,24,38c-0.297,0-0.578-0.132-0.769-0.359l-15-18c-0.248-0.299-0.302-0.714-0.137-1.064
	C8.259,18.225,8.612,18,9,18h8c0.309,0,0.6,0.143,0.789,0.386L24,26.371l6.211-7.985C30.4,18.143,30.691,18,31,18h8
	c0.388,0,0.741,0.225,0.905,0.576C40.07,18.927,40.017,19.342,39.769,19.641z"/>
</svg>
