<?xml version="1.0" encoding="utf-8"?>
<!-- Generator: Adobe Illustrator 17.0.0, SVG Export Plug-In . SVG Version: 6.00 Build 0)  -->
<!DOCTYPE svg PUBLIC "-//W3C//DTD SVG 1.1//EN" "http://www.w3.org/Graphics/SVG/1.1/DTD/svg11.dtd">
<svg version="1.1" id="Layer_2" xmlns="http://www.w3.org/2000/svg" xmlns:xlink="http://www.w3.org/1999/xlink" x="0px" y="0px"
	 width="48px" height="48px" viewBox="0 0 48 48" enable-background="new 0 0 48 48" xml:space="preserve">
<path d="M47.759,34.555L24.763,7.719c-0.19-0.222-0.467-0.35-0.759-0.35c-0.292,0-0.569,0.128-0.759,0.35L0.241,34.555
	c-0.172,0.201-0.258,0.463-0.238,0.728c0.02,0.264,0.145,0.51,0.346,0.682l5.164,4.426c0.188,0.162,0.42,0.241,0.65,0.241
	c0.282,0,0.562-0.118,0.76-0.348l17.08-19.922l17.074,19.921c0.172,0.202,0.418,0.326,0.683,0.347
	c0.263,0.019,0.526-0.066,0.728-0.238l5.164-4.426C48.07,35.604,48.119,34.974,47.759,34.555z"/>
</svg>
