<?xml version="1.0" encoding="utf-8"?>
<!-- Generator: Adobe Illustrator 17.0.0, SVG Export Plug-In . SVG Version: 6.00 Build 0)  -->
<!DOCTYPE svg PUBLIC "-//W3C//DTD SVG 1.1//EN" "http://www.w3.org/Graphics/SVG/1.1/DTD/svg11.dtd">
<svg version="1.1" id="Layer_2" xmlns="http://www.w3.org/2000/svg" xmlns:xlink="http://www.w3.org/1999/xlink" x="0px" y="0px"
	 width="48px" height="48px" viewBox="0 0 48 48" enable-background="new 0 0 48 48" xml:space="preserve">
<path d="M48,11.069c0.002-0.267-0.104-0.524-0.293-0.713L37.644,0.294c-0.189-0.19-0.475-0.31-0.713-0.293
	c-0.267,0.002-0.522,0.11-0.709,0.301l-22.16,22.682V8.938c0-0.552-0.447-1-1-1H1c-0.553,0-1,0.448-1,1v38.062c0,0.552,0.447,1,1,1
	h38.062c0.553,0,1-0.448,1-1V34.917c0-0.552-0.447-1-1-1H25.018l22.68-22.138C47.889,11.592,47.998,11.337,48,11.069z"/>
</svg>
