<?xml version="1.0" encoding="utf-8"?>
<!-- Generator: Adobe Illustrator 17.0.0, SVG Export Plug-In . SVG Version: 6.00 Build 0)  -->
<!DOCTYPE svg PUBLIC "-//W3C//DTD SVG 1.1//EN" "http://www.w3.org/Graphics/SVG/1.1/DTD/svg11.dtd">
<svg version="1.1" id="Layer_2" xmlns="http://www.w3.org/2000/svg" xmlns:xlink="http://www.w3.org/1999/xlink" x="0px" y="0px"
	 width="48px" height="48px" viewBox="0 0 48 48" enable-background="new 0 0 48 48" xml:space="preserve">
<g>
	<path fill="#010101" d="M25.414,22.586c-0.78-0.781-2.048-0.781-2.828,0l-22,22c-0.781,0.781-0.781,2.047,0,2.828
		c0.78,0.781,2.048,0.781,2.828,0L24,26.828l20.586,20.586C44.976,47.805,45.488,48,46,48s1.024-0.195,1.414-0.586
		c0.781-0.781,0.781-2.047,0-2.828L25.414,22.586z"/>
	<path fill="#010101" d="M3.414,25.414L24,4.828l20.586,20.586C44.976,25.805,45.488,26,46,26s1.024-0.195,1.414-0.586
		c0.781-0.781,0.781-2.047,0-2.828l-22-22c-0.78-0.781-2.048-0.781-2.828,0l-22,22c-0.781,0.781-0.781,2.047,0,2.828
		C1.366,26.195,2.634,26.195,3.414,25.414z"/>
</g>
</svg>
