<?xml version="1.0" encoding="utf-8"?>
<!-- Generator: Adobe Illustrator 17.0.0, SVG Export Plug-In . SVG Version: 6.00 Build 0)  -->
<!DOCTYPE svg PUBLIC "-//W3C//DTD SVG 1.1//EN" "http://www.w3.org/Graphics/SVG/1.1/DTD/svg11.dtd">
<svg version="1.1" id="Layer_2" xmlns="http://www.w3.org/2000/svg" xmlns:xlink="http://www.w3.org/1999/xlink" x="0px" y="0px"
	 width="48px" height="48px" viewBox="0 0 48 48" enable-background="new 0 0 48 48" xml:space="preserve">
<path fill="#010101" d="M46,22H7.142l20.21-18.525c0.815-0.747,0.869-2.012,0.123-2.826c-0.746-0.813-2.012-0.869-2.826-0.123
	l-24,22c-0.011,0.01-0.018,0.022-0.029,0.033c-0.058,0.056-0.109,0.118-0.16,0.18c-0.034,0.041-0.07,0.079-0.1,0.122
	c-0.052,0.075-0.094,0.156-0.136,0.238c-0.019,0.037-0.042,0.07-0.059,0.108c-0.044,0.101-0.075,0.209-0.102,0.318
	c-0.006,0.022-0.016,0.043-0.021,0.066C0.015,23.722,0,23.859,0,24c0,0.141,0.015,0.278,0.043,0.41
	c0.005,0.022,0.015,0.042,0.02,0.064c0.027,0.11,0.059,0.218,0.103,0.32c0.016,0.037,0.04,0.071,0.058,0.107
	c0.042,0.082,0.084,0.164,0.136,0.239c0.03,0.043,0.066,0.08,0.1,0.121c0.051,0.063,0.102,0.125,0.16,0.181
	c0.01,0.01,0.018,0.023,0.029,0.033l24,22C25.032,47.826,25.516,48,25.999,48c0.541,0,1.081-0.219,1.475-0.648
	c0.746-0.815,0.692-2.079-0.123-2.826L7.142,26H46c1.104,0,2-0.896,2-2C48,22.895,47.104,22,46,22z"/>
</svg>
