<?xml version="1.0" encoding="utf-8"?>
<!-- Generator: Adobe Illustrator 17.0.0, SVG Export Plug-In . SVG Version: 6.00 Build 0)  -->
<!DOCTYPE svg PUBLIC "-//W3C//DTD SVG 1.1//EN" "http://www.w3.org/Graphics/SVG/1.1/DTD/svg11.dtd">
<svg version="1.1" id="Layer_2" xmlns="http://www.w3.org/2000/svg" xmlns:xlink="http://www.w3.org/1999/xlink" x="0px" y="0px"
	 width="48px" height="48px" viewBox="0 0 48 48" enable-background="new 0 0 48 48" xml:space="preserve">
<path d="M46.97,0H1.03c-0.553,0-1,0.448-1,1v45.961c0,0.552,0.447,1,0.999,1L46.969,48h0.001c0.265,0,0.52-0.105,0.707-0.292
	C47.865,47.52,47.97,47.265,47.97,47V1C47.97,0.448,47.523,0,46.97,0z M22.501,6.492h3.996v3.996h-3.996V6.492z M11.517,28.465
	H7.521v-3.997h3.996V28.465z M17.509,28.465h-3.996v-3.997h3.996V28.465z M17.509,22.473h-3.996v-3.996h3.996V22.473z M23.501,40.45
	h-3.996v-3.996h3.996V40.45z M23.501,34.458h-3.996v-3.996h3.996V34.458z M23.501,28.465h-3.996v-3.997h3.996V28.465z
	 M23.501,22.473h-3.996v-3.996h3.996V22.473z M23.501,16.48h-3.996v-3.996h3.996V16.48z M29.494,40.45h-3.996v-3.996h3.996V40.45z
	 M29.494,34.458h-3.996v-3.996h3.996V34.458z M29.494,28.465h-3.996v-3.997h3.996V28.465z M29.494,22.473h-3.996v-3.996h3.996
	V22.473z M29.494,16.48h-3.996v-3.996h3.996V16.48z M35.486,28.465H31.49v-3.997h3.996V28.465z M35.486,22.473H31.49v-3.996h3.996
	V22.473z M41.478,28.465h-3.996v-3.997h3.996V28.465z"/>
</svg>
