<?xml version="1.0" encoding="utf-8"?>
<!-- Generator: Adobe Illustrator 17.0.0, SVG Export Plug-In . SVG Version: 6.00 Build 0)  -->
<!DOCTYPE svg PUBLIC "-//W3C//DTD SVG 1.1//EN" "http://www.w3.org/Graphics/SVG/1.1/DTD/svg11.dtd">
<svg version="1.1" id="Layer_2" xmlns="http://www.w3.org/2000/svg" xmlns:xlink="http://www.w3.org/1999/xlink" x="0px" y="0px"
	 width="48px" height="48px" viewBox="0 0 48 48" enable-background="new 0 0 48 48" xml:space="preserve">
<path d="M47,0H1C0.448,0,0,0.447,0,1v46c0,0.553,0.448,1,1,1h46c0.552,0,1-0.447,1-1V1C48,0.447,47.552,0,47,0z M32.494,36.083
	c-0.006-0.001-0.013-0.001-0.02,0H25.21c-0.25,0-0.491-0.094-0.675-0.263L12.43,24.737c-0.207-0.189-0.325-0.458-0.325-0.739
	c0.001-0.281,0.12-0.549,0.328-0.738l12.105-11C24.722,12.093,24.962,12,25.21,12h7.263c0.413,0,0.784,0.254,0.933,0.64
	c0.149,0.386,0.046,0.822-0.26,1.101L21.852,24.003l11.186,10.241c0.274,0.179,0.455,0.487,0.455,0.839
	C33.494,35.636,33.046,36.083,32.494,36.083z"/>
</svg>
