<?xml version="1.0" encoding="utf-8"?>
<!-- Generator: Adobe Illustrator 17.0.0, SVG Export Plug-In . SVG Version: 6.00 Build 0)  -->
<!DOCTYPE svg PUBLIC "-//W3C//DTD SVG 1.1//EN" "http://www.w3.org/Graphics/SVG/1.1/DTD/svg11.dtd">
<svg version="1.1" id="Layer_2" xmlns="http://www.w3.org/2000/svg" xmlns:xlink="http://www.w3.org/1999/xlink" x="0px" y="0px"
	 width="48px" height="48px" viewBox="0 0 48 48" enable-background="new 0 0 48 48" xml:space="preserve">
<path d="M24,0C10.767,0,0,10.766,0,23.999C0,37.233,10.767,48,24,48c13.233,0,24-10.767,24-24.001C48,10.766,37.233,0,24,0z
	 M38.102,17.701L24.786,34.648C24.597,34.89,24.307,35.03,24,35.03c-0.008,0-0.016,0-0.023,0c-0.315-0.008-0.608-0.162-0.791-0.419
	L11.081,17.664c-0.321-0.449-0.217-1.074,0.232-1.395c0.448-0.322,1.073-0.218,1.395,0.233l11.33,15.861l12.491-15.899
	c0.341-0.434,0.968-0.511,1.404-0.168C38.367,16.638,38.443,17.267,38.102,17.701z"/>
</svg>
