<?xml version="1.0" encoding="utf-8"?>
<!-- Generator: Adobe Illustrator 17.0.0, SVG Export Plug-In . SVG Version: 6.00 Build 0)  -->
<!DOCTYPE svg PUBLIC "-//W3C//DTD SVG 1.1//EN" "http://www.w3.org/Graphics/SVG/1.1/DTD/svg11.dtd">
<svg version="1.1" id="Layer_2" xmlns="http://www.w3.org/2000/svg" xmlns:xlink="http://www.w3.org/1999/xlink" x="0px" y="0px"
	 width="48px" height="48px" viewBox="0 0 48 48" enable-background="new 0 0 48 48" xml:space="preserve">
<g>
	<rect x="7.083" y="24.778" width="5.538" height="5.538"/>
	<rect x="14.159" y="24.773" width="5.538" height="5.538"/>
	<rect x="21.235" y="24.769" width="5.538" height="5.538"/>
	<rect x="21.239" y="31.845" width="5.538" height="5.538"/>
	<rect x="28.315" y="31.839" width="5.538" height="5.538"/>
	<rect x="21.245" y="38.921" transform="matrix(-9.750563e-04 -1 1 -9.750563e-04 -17.653 65.7442)" width="5.538" height="5.538"/>
	<rect x="28.311" y="24.763" width="5.538" height="5.538"/>
	<rect x="35.387" y="24.758" width="5.538" height="5.538"/>
	<rect x="0.007" y="24.783" width="5.538" height="5.538"/>
	<rect x="7.077" y="17.702" width="5.538" height="5.537"/>
	<rect x="14.153" y="17.698" width="5.538" height="5.538"/>
	<rect x="21.229" y="17.693" width="5.538" height="5.538"/>
	<rect x="28.305" y="17.687" width="5.538" height="5.538"/>
	<rect x="21.225" y="10.617" width="5.538" height="5.538"/>
	<rect x="21.22" y="3.541" width="5.538" height="5.538"/>
	<rect x="28.3" y="10.611" width="5.538" height="5.538"/>
	<rect x="35.381" y="17.682" width="5.538" height="5.538"/>
	<rect x="42.46" y="21.215" transform="matrix(1 -0.0011 0.0011 1 -0.0255 0.0482)" width="5.538" height="5.538"/>
	<rect x="0.001" y="17.707" width="5.538" height="5.538"/>
</g>
</svg>
