<?xml version="1.0" encoding="utf-8"?>
<!-- Generator: Adobe Illustrator 17.0.0, SVG Export Plug-In . SVG Version: 6.00 Build 0)  -->
<!DOCTYPE svg PUBLIC "-//W3C//DTD SVG 1.1//EN" "http://www.w3.org/Graphics/SVG/1.1/DTD/svg11.dtd">
<svg version="1.1" id="Layer_2" xmlns="http://www.w3.org/2000/svg" xmlns:xlink="http://www.w3.org/1999/xlink" x="0px" y="0px"
	 width="48px" height="48px" viewBox="0 0 48 48" enable-background="new 0 0 48 48" xml:space="preserve">
<path d="M47,0H1C0.447,0,0,0.448,0,1v46c0,0.552,0.447,1,1,1h46c0.553,0,1-0.448,1-1V1C48,0.448,47.553,0,47,0z M22.638,29.359
	c0.154,0.374,0.52,0.618,0.924,0.618h8.926l-4.328,4.077H14.062V20.239l3.982-4.358v8.781c0,0.402,0.24,0.765,0.61,0.921
	c0.369,0.155,0.797,0.077,1.087-0.204l12.295-11.947l2.837,2.837L22.855,28.269C22.568,28.555,22.482,28.985,22.638,29.359z"/>
</svg>
