<?xml version="1.0" encoding="utf-8"?>
<!-- Generator: Adobe Illustrator 17.0.0, SVG Export Plug-In . SVG Version: 6.00 Build 0)  -->
<!DOCTYPE svg PUBLIC "-//W3C//DTD SVG 1.1//EN" "http://www.w3.org/Graphics/SVG/1.1/DTD/svg11.dtd">
<svg version="1.1" id="Layer_2" xmlns="http://www.w3.org/2000/svg" xmlns:xlink="http://www.w3.org/1999/xlink" x="0px" y="0px"
	 width="48px" height="48px" viewBox="0 0 48 48" enable-background="new 0 0 48 48" xml:space="preserve">
<path d="M24,0C10.767,0,0,10.767,0,24s10.767,24,24,24s24-10.767,24-24S37.233,0,24,0z M38.051,25.062c0,1.654-1.346,3-3,3H20.248
	l4.421,4.902c1.089,1.208,1.04,3.126-0.111,4.276l-0.593,0.591c-0.56,0.561-1.307,0.87-2.1,0.87c-0.81,0-1.567-0.32-2.132-0.901
	L8.738,26.477c-1.135-1.17-1.15-3.087-0.034-4.274L19.96,10.233c1.095-1.164,3.09-1.195,4.22-0.065l0.592,0.591
	c1.154,1.153,1.195,3.069,0.094,4.271l-4.56,4.973L35.051,20c0.799,0,1.552,0.312,2.12,0.88c0.568,0.567,0.88,1.32,0.88,2.119
	V25.062z"/>
</svg>
