<?xml version="1.0" encoding="utf-8"?>
<!-- Generator: Adobe Illustrator 17.0.0, SVG Export Plug-In . SVG Version: 6.00 Build 0)  -->
<!DOCTYPE svg PUBLIC "-//W3C//DTD SVG 1.1//EN" "http://www.w3.org/Graphics/SVG/1.1/DTD/svg11.dtd">
<svg version="1.1" id="Layer_2" xmlns="http://www.w3.org/2000/svg" xmlns:xlink="http://www.w3.org/1999/xlink" x="0px" y="0px"
	 width="48px" height="48px" viewBox="0 0 48 48" enable-background="new 0 0 48 48" xml:space="preserve">
<path d="M47,0H1C0.447,0,0,0.447,0,1v46c0,0.553,0.447,1,1,1h46c0.553,0,1-0.447,1-1V1C48,0.447,47.553,0,47,0z M36.083,22.789
	c0,0.25-0.094,0.491-0.263,0.675L24.737,35.569c-0.189,0.207-0.457,0.325-0.737,0.325c-0.277,0.026-0.55-0.119-0.74-0.327
	l-11-12.106C12.093,23.277,12,23.038,12,22.789v-7.263c0-0.413,0.254-0.784,0.64-0.933c0.385-0.15,0.822-0.047,1.101,0.26
	l10.263,11.294l10.343-11.296c0.279-0.305,0.715-0.405,1.1-0.257c0.385,0.149,0.638,0.52,0.638,0.932V22.789z"/>
</svg>
