<?xml version="1.0" encoding="utf-8"?>
<!-- Generator: Adobe Illustrator 17.0.0, SVG Export Plug-In . SVG Version: 6.00 Build 0)  -->
<!DOCTYPE svg PUBLIC "-//W3C//DTD SVG 1.1//EN" "http://www.w3.org/Graphics/SVG/1.1/DTD/svg11.dtd">
<svg version="1.1" id="Layer_2" xmlns="http://www.w3.org/2000/svg" xmlns:xlink="http://www.w3.org/1999/xlink" x="0px" y="0px"
	 width="48px" height="48px" viewBox="0 0 48 48" enable-background="new 0 0 48 48" xml:space="preserve">
<g>
	<path fill="#231F20" d="M24.207,20.139c-0.195-0.195-0.451-0.293-0.707-0.293c-0.256,0-0.512,0.098-0.707,0.293l-20.5,20.5
		C2.105,40.827,2,41.081,2,41.346c0,0.265,0.105,0.52,0.293,0.707l5.519,5.519c0.391,0.39,1.023,0.39,1.414,0L23.5,33.299
		l14.273,14.273c0.391,0.39,1.024,0.39,1.414,0l5.52-5.519C44.894,41.866,45,41.611,45,41.346c0-0.265-0.106-0.52-0.293-0.707
		L24.207,20.139z"/>
	<path fill="#231F20" d="M7.812,27.861c0.391,0.391,1.023,0.391,1.414,0L23.5,13.587l14.273,14.273c0.391,0.391,1.024,0.391,1.414,0
		l5.52-5.519C44.894,22.154,45,21.9,45,21.635c0-0.265-0.106-0.52-0.293-0.707l-20.5-20.5c-0.195-0.195-0.451-0.293-0.707-0.293
		c-0.256,0-0.512,0.097-0.707,0.293l-20.5,20.5C2.105,21.115,2,21.37,2,21.635c0,0.265,0.105,0.519,0.293,0.707L7.812,27.861z"/>
</g>
</svg>
