<?xml version="1.0" encoding="utf-8"?>
<!-- Generator: Adobe Illustrator 17.0.0, SVG Export Plug-In . SVG Version: 6.00 Build 0)  -->
<!DOCTYPE svg PUBLIC "-//W3C//DTD SVG 1.1//EN" "http://www.w3.org/Graphics/SVG/1.1/DTD/svg11.dtd">
<svg version="1.1" id="Layer_2" xmlns="http://www.w3.org/2000/svg" xmlns:xlink="http://www.w3.org/1999/xlink" x="0px" y="0px"
	 width="48px" height="48px" viewBox="0 0 48 48" enable-background="new 0 0 48 48" xml:space="preserve">
<g>
	<path d="M4,20.125c-2.243,0-4,1.757-4,4s1.757,4,4,4c2.243,0,4-1.757,4-4S6.243,20.125,4,20.125z"/>
	<path d="M12,29.875c-2.243,0-4,1.757-4,4s1.757,4,4,4c2.243,0,4-1.757,4-4S14.243,29.875,12,29.875z"/>
	<path d="M20,38.125c-2.243,0-4,1.757-4,4s1.757,4,4,4c2.243,0,4-1.757,4-4S22.243,38.125,20,38.125z"/>
	<path d="M12,17.875c2.243,0,4-1.757,4-4s-1.757-4-4-4c-2.243,0-4,1.757-4,4S9.757,17.875,12,17.875z"/>
	<path d="M20,9.875c2.243,0,4-1.757,4-4s-1.757-4-4-4c-2.243,0-4,1.757-4,4S17.757,9.875,20,9.875z"/>
	<path d="M44,20.125c-2.243,0-4,1.757-4,4s1.757,4,4,4c2.243,0,4-1.757,4-4S46.243,20.125,44,20.125z"/>
	<path d="M34,20.125c-2.243,0-4,1.757-4,4s1.757,4,4,4c2.243,0,4-1.757,4-4S36.243,20.125,34,20.125z"/>
	<path d="M24,20.125c-2.243,0-4,1.757-4,4s1.757,4,4,4c2.243,0,4-1.757,4-4S26.243,20.125,24,20.125z"/>
	<path d="M14,20.125c-2.243,0-4,1.757-4,4s1.757,4,4,4c2.243,0,4-1.757,4-4S16.243,20.125,14,20.125z"/>
</g>
</svg>
