<?xml version="1.0" encoding="utf-8"?>
<!-- Generator: Adobe Illustrator 17.0.0, SVG Export Plug-In . SVG Version: 6.00 Build 0)  -->
<!DOCTYPE svg PUBLIC "-//W3C//DTD SVG 1.1//EN" "http://www.w3.org/Graphics/SVG/1.1/DTD/svg11.dtd">
<svg version="1.1" id="Layer_2" xmlns="http://www.w3.org/2000/svg" xmlns:xlink="http://www.w3.org/1999/xlink" x="0px" y="0px"
	 width="48px" height="48px" viewBox="0 0 48 48" enable-background="new 0 0 48 48" xml:space="preserve">
<g>
	<path d="M26.143,36.175L14.633,23.961l11.616-12.247c0.275-0.29,0.351-0.716,0.193-1.083c-0.158-0.367-0.52-0.605-0.919-0.605
		H13.257c-0.274,0-0.537,0.112-0.726,0.311L0.264,23.27c-0.365,0.385-0.366,0.988-0.002,1.374l12.267,13.017
		c0.189,0.201,0.452,0.315,0.728,0.315h12.267c0.006,0,0.013,0,0.02,0c0.552,0,1-0.447,1-1
		C26.543,36.648,26.386,36.358,26.143,36.175z"/>
	<path d="M47.61,36.175L36.099,23.961l11.616-12.247c0.275-0.29,0.351-0.716,0.193-1.083c-0.158-0.367-0.52-0.605-0.919-0.605
		H34.723c-0.274,0-0.537,0.112-0.726,0.311L21.731,23.27c-0.365,0.385-0.366,0.988-0.002,1.374l12.267,13.017
		c0.189,0.201,0.452,0.315,0.728,0.315H46.99c0.006,0,0.013,0,0.02,0c0.552,0,1-0.447,1-1C48.01,36.648,47.853,36.358,47.61,36.175z
		"/>
</g>
</svg>
