<?xml version="1.0" encoding="utf-8"?>
<!-- Generator: Adobe Illustrator 17.0.0, SVG Export Plug-In . SVG Version: 6.00 Build 0)  -->
<!DOCTYPE svg PUBLIC "-//W3C//DTD SVG 1.1//EN" "http://www.w3.org/Graphics/SVG/1.1/DTD/svg11.dtd">
<svg version="1.1" id="Layer_2" xmlns="http://www.w3.org/2000/svg" xmlns:xlink="http://www.w3.org/1999/xlink" x="0px" y="0px"
	 width="48px" height="48px" viewBox="0 0 48 48" enable-background="new 0 0 48 48" xml:space="preserve">
<path d="M24,0C10.767,0,0,10.767,0,24s10.767,24,24,24c13.233,0,24-10.767,24-24S37.233,0,24,0z M37.767,26.134L25.796,37.39
	c-0.569,0.535-1.321,0.83-2.118,0.83c-0.816,0-1.581-0.307-2.155-0.864L10.199,26.36c-0.575-0.559-0.895-1.309-0.901-2.11
	c-0.006-0.802,0.303-1.555,0.87-2.122l0.591-0.592c1.105-1.106,3.11-1.167,4.28-0.128l5.023,4.461V11.042c0-1.654,1.346-3,3-3H25
	c0.799,0,1.552,0.312,2.12,0.88c0.568,0.568,0.88,1.321,0.88,2.12l-0.002,14.746l4.973-4.56c1.166-1.069,3.152-1.026,4.271,0.093
	l0.592,0.593c0.569,0.569,0.876,1.324,0.863,2.124C38.683,24.838,38.353,25.583,37.767,26.134z"/>
</svg>
