<?xml version="1.0" encoding="utf-8"?>
<!-- Generator: Adobe Illustrator 17.0.0, SVG Export Plug-In . SVG Version: 6.00 Build 0)  -->
<!DOCTYPE svg PUBLIC "-//W3C//DTD SVG 1.1//EN" "http://www.w3.org/Graphics/SVG/1.1/DTD/svg11.dtd">
<svg version="1.1" id="Layer_2" xmlns="http://www.w3.org/2000/svg" xmlns:xlink="http://www.w3.org/1999/xlink" x="0px" y="0px"
	 width="48px" height="48px" viewBox="0 0 48 48" enable-background="new 0 0 48 48" xml:space="preserve">
<g>
	<path fill="#231F20" d="M20.004,23.293c-0.195,0.195-0.293,0.451-0.293,0.707c0,0.256,0.098,0.512,0.293,0.707l20.5,20.5
		c0.188,0.188,0.442,0.293,0.707,0.293c0.265,0,0.52-0.106,0.707-0.293l5.519-5.519c0.391-0.391,0.391-1.023,0-1.414L33.164,24
		L47.438,9.726c0.391-0.391,0.391-1.023,0-1.414l-5.519-5.519C41.731,2.605,41.477,2.5,41.211,2.5c-0.265,0-0.52,0.105-0.707,0.293
		L20.004,23.293z"/>
	<path fill="#231F20" d="M27.726,39.688c0.391-0.391,0.391-1.023,0-1.414L13.453,24L27.726,9.726c0.391-0.391,0.391-1.023,0-1.414
		l-5.519-5.519C22.02,2.605,21.765,2.5,21.5,2.5c-0.265,0-0.52,0.105-0.707,0.293l-20.5,20.5C0.098,23.488,0,23.744,0,24
		c0,0.256,0.098,0.512,0.293,0.707l20.5,20.5C20.98,45.394,21.235,45.5,21.5,45.5c0.265,0,0.52-0.106,0.707-0.293L27.726,39.688z"/>
</g>
</svg>
