<?xml version="1.0" encoding="utf-8"?>
<!-- Generator: Adobe Illustrator 17.0.0, SVG Export Plug-In . SVG Version: 6.00 Build 0)  -->
<!DOCTYPE svg PUBLIC "-//W3C//DTD SVG 1.1//EN" "http://www.w3.org/Graphics/SVG/1.1/DTD/svg11.dtd">
<svg version="1.1" id="Layer_2" xmlns="http://www.w3.org/2000/svg" xmlns:xlink="http://www.w3.org/1999/xlink" x="0px" y="0px"
	 width="48px" height="48px" viewBox="0 0 48 48" enable-background="new 0 0 48 48" xml:space="preserve">
<path d="M24,0C10.767,0,0,10.767,0,24.001C0,37.234,10.767,48,24,48c13.233,0,24-10.766,24-23.999C48,10.767,37.233,0,24,0z
	 M36.686,31.73c-0.176,0.126-0.379,0.187-0.58,0.187c-0.312,0-0.619-0.146-0.814-0.419l-11.33-15.861L11.471,31.535
	c-0.341,0.434-0.969,0.512-1.404,0.168c-0.434-0.341-0.51-0.97-0.168-1.404l13.316-16.947c0.194-0.248,0.506-0.375,0.809-0.382
	c0.315,0.008,0.608,0.162,0.791,0.419l12.105,16.947C37.24,30.785,37.136,31.41,36.686,31.73z"/>
</svg>
