<?xml version="1.0" encoding="utf-8"?>
<!-- Generator: Adobe Illustrator 17.0.0, SVG Export Plug-In . SVG Version: 6.00 Build 0)  -->
<!DOCTYPE svg PUBLIC "-//W3C//DTD SVG 1.1//EN" "http://www.w3.org/Graphics/SVG/1.1/DTD/svg11.dtd">
<svg version="1.1" id="Layer_2" xmlns="http://www.w3.org/2000/svg" xmlns:xlink="http://www.w3.org/1999/xlink" x="0px" y="0px"
	 width="48px" height="48px" viewBox="0 0 48 48" enable-background="new 0 0 48 48" xml:space="preserve">
<path d="M47.707,0.323C47.52,0.135,47.265,0.03,47,0.03H1c-0.552,0-1,0.448-1,1v45.94c0,0.552,0.448,1,1,1h45.961
	c0.552,0,1-0.447,1-0.999L48,1.031C48,0.765,47.895,0.511,47.707,0.323z M10.488,25.499H6.492v-3.996h3.996V25.499z M16.48,28.495
	h-3.996v-3.996h3.996V28.495z M16.48,22.502h-3.996v-3.996h3.996V22.502z M22.473,34.487h-3.996v-3.996h3.996V34.487z
	 M22.473,28.495h-3.996v-3.996h3.996V28.495z M22.473,22.502h-3.996v-3.996h3.996V22.502z M22.473,16.51h-3.996v-3.996h3.996V16.51z
	 M28.465,40.479h-3.997v-3.996h3.997V40.479z M28.465,34.487h-3.997v-3.996h3.997V34.487z M28.465,28.495h-3.997v-3.996h3.997
	V28.495z M28.465,22.502h-3.997v-3.996h3.997V22.502z M28.465,16.51h-3.997v-3.996h3.997V16.51z M28.465,10.518h-3.997V6.522h3.997
	V10.518z M34.457,28.495h-3.996v-3.996h3.996V28.495z M34.457,22.502h-3.996v-3.996h3.996V22.502z M40.45,28.495h-3.996v-3.996
	h3.996V28.495z M40.45,22.502h-3.996v-3.996h3.996V22.502z"/>
</svg>
