<?xml version="1.0" encoding="utf-8"?>
<!-- Generator: Adobe Illustrator 17.0.0, SVG Export Plug-In . SVG Version: 6.00 Build 0)  -->
<!DOCTYPE svg PUBLIC "-//W3C//DTD SVG 1.1//EN" "http://www.w3.org/Graphics/SVG/1.1/DTD/svg11.dtd">
<svg version="1.1" id="Layer_2" xmlns="http://www.w3.org/2000/svg" xmlns:xlink="http://www.w3.org/1999/xlink" x="0px" y="0px"
	 width="48px" height="48px" viewBox="0 0 48 48" enable-background="new 0 0 48 48" xml:space="preserve">
<path d="M24,0C10.767,0,0,10.767,0,24s10.767,24,24,24s24-10.767,24-24S37.233,0,24,0z M39.02,30c-0.004,0.001-0.012,0.001-0.02,0
	h-8c-0.309,0-0.6-0.143-0.789-0.386L24,21.629l-6.211,7.985C17.6,29.857,17.309,30,17,30H9c-0.388,0-0.741-0.225-0.905-0.576
	c-0.165-0.351-0.111-0.766,0.137-1.064l15-18c0.381-0.455,1.156-0.455,1.537,0l14.896,17.876c0.218,0.184,0.355,0.458,0.355,0.765
	C40.02,29.553,39.572,30,39.02,30z"/>
</svg>
