<?xml version="1.0" encoding="utf-8"?>
<!-- Generator: Adobe Illustrator 17.0.0, SVG Export Plug-In . SVG Version: 6.00 Build 0)  -->
<!DOCTYPE svg PUBLIC "-//W3C//DTD SVG 1.1//EN" "http://www.w3.org/Graphics/SVG/1.1/DTD/svg11.dtd">
<svg version="1.1" id="Layer_2" xmlns="http://www.w3.org/2000/svg" xmlns:xlink="http://www.w3.org/1999/xlink" x="0px" y="0px"
	 width="48px" height="48px" viewBox="0 0 48 48" enable-background="new 0 0 48 48" xml:space="preserve">
<path fill="#010101" d="M47.957,23.59c-0.005-0.023-0.015-0.043-0.021-0.066c-0.027-0.109-0.058-0.217-0.102-0.318
	c-0.016-0.038-0.04-0.071-0.059-0.108c-0.042-0.082-0.083-0.163-0.136-0.238c-0.03-0.043-0.067-0.081-0.1-0.122
	c-0.051-0.062-0.102-0.125-0.16-0.18c-0.01-0.01-0.018-0.023-0.029-0.033l-24-22c-0.814-0.746-2.08-0.69-2.826,0.123
	c-0.746,0.815-0.691,2.079,0.123,2.826L40.858,22H2c-1.105,0-2,0.895-2,2c0,1.104,0.895,2,2,2h38.858l-20.21,18.525
	c-0.814,0.747-0.869,2.012-0.123,2.826C20.92,47.782,21.459,48,22.001,48c0.482,0,0.967-0.174,1.35-0.525l24-22
	c0.011-0.01,0.018-0.022,0.029-0.033c0.058-0.056,0.109-0.118,0.16-0.181c0.033-0.041,0.07-0.078,0.1-0.121
	c0.052-0.075,0.094-0.157,0.136-0.239c0.018-0.036,0.042-0.07,0.058-0.107c0.044-0.102,0.076-0.21,0.103-0.32
	c0.005-0.022,0.015-0.042,0.02-0.064C47.985,24.278,48,24.141,48,24C48,23.859,47.985,23.722,47.957,23.59z"/>
</svg>
