<?xml version="1.0" encoding="utf-8"?>
<!-- Generator: Adobe Illustrator 17.0.0, SVG Export Plug-In . SVG Version: 6.00 Build 0)  -->
<!DOCTYPE svg PUBLIC "-//W3C//DTD SVG 1.1//EN" "http://www.w3.org/Graphics/SVG/1.1/DTD/svg11.dtd">
<svg version="1.1" id="Layer_2" xmlns="http://www.w3.org/2000/svg" xmlns:xlink="http://www.w3.org/1999/xlink" x="0px" y="0px"
	 width="48px" height="48px" viewBox="0 0 48 48" enable-background="new 0 0 48 48" xml:space="preserve">
<path d="M24,0C10.767,0,0,10.767,0,24s10.767,24,24,24s24-10.767,24-24S37.233,0,24,0z M37.64,24.769l-18,15
	C19.457,39.921,19.229,40,19,40c-0.144,0-0.289-0.031-0.424-0.095C18.225,39.741,18,39.388,18,39v-8c0-0.309,0.143-0.6,0.386-0.789
	L26.371,24l-7.985-6.211C18.143,17.6,18,17.309,18,17V9c0-0.388,0.225-0.741,0.576-0.905c0.351-0.165,0.766-0.111,1.064,0.137l18,15
	C37.868,23.422,38,23.703,38,24S37.868,24.578,37.64,24.769z"/>
</svg>
