<?xml version="1.0" encoding="utf-8"?>
<!-- Generator: Adobe Illustrator 17.0.0, SVG Export Plug-In . SVG Version: 6.00 Build 0)  -->
<!DOCTYPE svg PUBLIC "-//W3C//DTD SVG 1.1//EN" "http://www.w3.org/Graphics/SVG/1.1/DTD/svg11.dtd">
<svg version="1.1" id="Layer_2" xmlns="http://www.w3.org/2000/svg" xmlns:xlink="http://www.w3.org/1999/xlink" x="0px" y="0px"
	 width="48px" height="48px" viewBox="0 0 48 48" enable-background="new 0 0 48 48" xml:space="preserve">
<path d="M47.008,15.729h-25V4.021c0-0.405-0.244-0.77-0.618-0.924c-0.375-0.154-0.804-0.068-1.09,0.218L0.284,23.381
	c-0.188,0.188-0.292,0.443-0.292,0.708c0.001,0.266,0.107,0.52,0.295,0.708l20.017,19.892c0.191,0.19,0.446,0.291,0.705,0.291
	c0.129,0,0.26-0.025,0.384-0.077c0.373-0.155,0.616-0.52,0.616-0.923v-12.25h25c0.552,0,1-0.448,1-1v-14
	C48.008,16.177,47.561,15.729,47.008,15.729z"/>
</svg>
