<?xml version="1.0" encoding="utf-8"?>
<!-- Generator: Adobe Illustrator 17.0.0, SVG Export Plug-In . SVG Version: 6.00 Build 0)  -->
<!DOCTYPE svg PUBLIC "-//W3C//DTD SVG 1.1//EN" "http://www.w3.org/Graphics/SVG/1.1/DTD/svg11.dtd">
<svg version="1.1" id="Layer_2" xmlns="http://www.w3.org/2000/svg" xmlns:xlink="http://www.w3.org/1999/xlink" x="0px" y="0px"
	 width="48px" height="48px" viewBox="0 0 48 48" enable-background="new 0 0 48 48" xml:space="preserve">
<path fill="#010101" d="M47.501,25.679l-22-25c-0.012-0.013-0.027-0.022-0.039-0.035c-0.077-0.083-0.162-0.158-0.253-0.227
	c-0.01-0.007-0.019-0.017-0.03-0.024C24.848,0.148,24.443,0,24,0c-0.443,0-0.848,0.148-1.179,0.392
	c-0.01,0.007-0.019,0.017-0.03,0.024C22.7,0.486,22.615,0.56,22.538,0.644c-0.012,0.013-0.027,0.022-0.039,0.035l-22,25
	c-0.731,0.829-0.65,2.093,0.18,2.822c0.829,0.731,2.094,0.649,2.822-0.18L22,7.3V46c0,1.104,0.895,2,2,2c1.104,0,2-0.896,2-2V7.3
	l18.499,21.021C44.894,28.771,45.446,29,46.001,29c0.469,0,0.94-0.164,1.32-0.499C48.15,27.771,48.231,26.508,47.501,25.679z"/>
</svg>
