<?xml version="1.0" encoding="utf-8"?>
<!-- Generator: Adobe Illustrator 17.0.0, SVG Export Plug-In . SVG Version: 6.00 Build 0)  -->
<!DOCTYPE svg PUBLIC "-//W3C//DTD SVG 1.1//EN" "http://www.w3.org/Graphics/SVG/1.1/DTD/svg11.dtd">
<svg version="1.1" id="Layer_2" xmlns="http://www.w3.org/2000/svg" xmlns:xlink="http://www.w3.org/1999/xlink" x="0px" y="0px"
	 width="48px" height="48px" viewBox="0 0 48 48" enable-background="new 0 0 48 48" xml:space="preserve">
<path d="M40.976,7.029C36.443,2.496,30.416,0,24.006,0S11.568,2.496,7.035,7.029C2.502,11.562,0.006,17.589,0.006,24
	s2.496,12.438,7.029,16.97C11.568,45.503,17.595,48,24.006,48s12.438-2.497,16.971-7.03C50.334,31.613,50.334,16.387,40.976,7.029z
	 M36.028,35.023c0,0.552-0.448,1-1,1H14.209c-0.407,0-0.773-0.247-0.926-0.624c-0.153-0.377-0.063-0.809,0.229-1.093l6.245-6.077
	L9.173,17.638c-0.39-0.391-0.39-1.024,0.001-1.414l7.063-7.063c0.188-0.188,0.442-0.293,0.707-0.293s0.52,0.105,0.707,0.293
	l10.581,10.584l6.085-6.329c0.283-0.295,0.714-0.388,1.095-0.235c0.378,0.153,0.626,0.52,0.626,0.928L36.028,35.023z"/>
</svg>
