<?xml version="1.0" encoding="utf-8"?>
<!-- Generator: Adobe Illustrator 17.0.0, SVG Export Plug-In . SVG Version: 6.00 Build 0)  -->
<!DOCTYPE svg PUBLIC "-//W3C//DTD SVG 1.1//EN" "http://www.w3.org/Graphics/SVG/1.1/DTD/svg11.dtd">
<svg version="1.1" id="Layer_2" xmlns="http://www.w3.org/2000/svg" xmlns:xlink="http://www.w3.org/1999/xlink" x="0px" y="0px"
	 width="48px" height="48px" viewBox="0 0 48 48" enable-background="new 0 0 48 48" xml:space="preserve">
<g>
	<path d="M23.875,0c-2.243,0-4,1.757-4,4s1.757,4,4,4s4-1.757,4-4S26.118,0,23.875,0z"/>
	<path d="M14.125,8c-2.243,0-4,1.757-4,4s1.757,4,4,4s4-1.757,4-4S16.368,8,14.125,8z"/>
	<path d="M5.875,16c-2.243,0-4,1.757-4,4s1.757,4,4,4c2.243,0,4-1.757,4-4S8.118,16,5.875,16z"/>
	<path d="M34.125,8c-2.243,0-4,1.757-4,4s1.757,4,4,4s4-1.757,4-4S36.368,8,34.125,8z"/>
	<path d="M42.125,16c-2.243,0-4,1.757-4,4s1.757,4,4,4s4-1.757,4-4S44.368,16,42.125,16z"/>
	<path d="M23.875,40c-2.243,0-4,1.757-4,4s1.757,4,4,4s4-1.757,4-4S26.118,40,23.875,40z"/>
	<path d="M23.875,30c-2.243,0-4,1.757-4,4s1.757,4,4,4s4-1.757,4-4S26.118,30,23.875,30z"/>
	<path d="M23.875,20c-2.243,0-4,1.757-4,4s1.757,4,4,4s4-1.757,4-4S26.118,20,23.875,20z"/>
	<path d="M23.875,10c-2.243,0-4,1.757-4,4s1.757,4,4,4s4-1.757,4-4S26.118,10,23.875,10z"/>
</g>
</svg>
