<?xml version="1.0" encoding="utf-8"?>
<!-- Generator: Adobe Illustrator 17.0.0, SVG Export Plug-In . SVG Version: 6.00 Build 0)  -->
<!DOCTYPE svg PUBLIC "-//W3C//DTD SVG 1.1//EN" "http://www.w3.org/Graphics/SVG/1.1/DTD/svg11.dtd">
<svg version="1.1" id="Layer_2" xmlns="http://www.w3.org/2000/svg" xmlns:xlink="http://www.w3.org/1999/xlink" x="0px" y="0px"
	 width="48px" height="48px" viewBox="0 0 48 48" enable-background="new 0 0 48 48" xml:space="preserve">
<path d="M47,0H1C0.448,0,0,0.448,0,1v46c0,0.552,0.448,1,1,1h46c0.552,0,1-0.448,1-1V1C48,0.448,47.552,0,47,0z M33.937,26.67
	l-6.222-6.369c-0.284-0.292-0.717-0.38-1.093-0.228C26.246,20.228,26,20.593,26,21v17h-4V21c0-0.405-0.245-0.771-0.619-0.925
	c-0.374-0.153-0.805-0.067-1.091,0.22l-6.352,6.402v-6.255l10.059-9.149l9.941,9.146V26.67z"/>
</svg>
