<?xml version="1.0" encoding="utf-8"?>
<!-- Generator: Adobe Illustrator 17.0.0, SVG Export Plug-In . SVG Version: 6.00 Build 0)  -->
<!DOCTYPE svg PUBLIC "-//W3C//DTD SVG 1.1//EN" "http://www.w3.org/Graphics/SVG/1.1/DTD/svg11.dtd">
<svg version="1.1" id="Layer_2" xmlns="http://www.w3.org/2000/svg" xmlns:xlink="http://www.w3.org/1999/xlink" x="0px" y="0px"
	 width="48px" height="48px" viewBox="0 0 48 48" enable-background="new 0 0 48 48" xml:space="preserve">
<path d="M47.75,23.339l-15-17C32.56,6.123,32.287,6,32,6H1C0.448,6,0,6.447,0,7v34c0,0.553,0.448,1,1,1h31
	c0.287,0,0.56-0.123,0.75-0.339l15-17C48.083,24.283,48.083,23.717,47.75,23.339z M26.707,31.293c0.391,0.391,0.391,1.023,0,1.414
	C26.512,32.902,26.256,33,26,33c-0.256,0-0.512-0.098-0.707-0.293L18,25.414l-7.293,7.293C10.512,32.902,10.256,33,10,33
	c-0.256,0-0.512-0.098-0.707-0.293c-0.391-0.391-0.391-1.023,0-1.414L16.586,24l-7.293-7.293c-0.391-0.391-0.391-1.023,0-1.414
	c0.391-0.391,1.024-0.391,1.414,0L18,22.586l7.293-7.293c0.391-0.391,1.024-0.391,1.414,0c0.391,0.391,0.391,1.023,0,1.414
	L19.414,24L26.707,31.293z"/>
</svg>
