<?xml version="1.0" encoding="utf-8"?>
<!-- Generator: Adobe Illustrator 17.0.0, SVG Export Plug-In . SVG Version: 6.00 Build 0)  -->
<!DOCTYPE svg PUBLIC "-//W3C//DTD SVG 1.1//EN" "http://www.w3.org/Graphics/SVG/1.1/DTD/svg11.dtd">
<svg version="1.1" id="Layer_2" xmlns="http://www.w3.org/2000/svg" xmlns:xlink="http://www.w3.org/1999/xlink" x="0px" y="0px"
	 width="48px" height="48px" viewBox="0 0 48 48" enable-background="new 0 0 48 48" xml:space="preserve">
<path d="M47,6H16c-0.287,0-0.56,0.123-0.75,0.339l-15,17c-0.333,0.378-0.333,0.944,0,1.322l15,17C15.44,41.877,15.713,42,16,42h31
	c0.552,0,1-0.447,1-1V7C48,6.447,47.552,6,47,6z M38.707,31.293c0.391,0.391,0.391,1.023,0,1.414C38.512,32.902,38.256,33,38,33
	c-0.256,0-0.512-0.098-0.707-0.293L30,25.414l-7.293,7.293C22.512,32.902,22.256,33,22,33c-0.256,0-0.512-0.098-0.707-0.293
	c-0.391-0.391-0.391-1.023,0-1.414L28.586,24l-7.293-7.293c-0.391-0.391-0.391-1.023,0-1.414c0.391-0.391,1.023-0.391,1.414,0
	L30,22.586l7.293-7.293c0.391-0.391,1.023-0.391,1.414,0c0.391,0.391,0.391,1.023,0,1.414L31.414,24L38.707,31.293z"/>
</svg>
