<?xml version="1.0" encoding="utf-8"?>
<!-- Generator: Adobe Illustrator 17.0.0, SVG Export Plug-In . SVG Version: 6.00 Build 0)  -->
<!DOCTYPE svg PUBLIC "-//W3C//DTD SVG 1.1//EN" "http://www.w3.org/Graphics/SVG/1.1/DTD/svg11.dtd">
<svg version="1.1" id="Layer_2" xmlns="http://www.w3.org/2000/svg" xmlns:xlink="http://www.w3.org/1999/xlink" x="0px" y="0px"
	 width="48px" height="48px" viewBox="0 0 48 48" enable-background="new 0 0 48 48" xml:space="preserve">
<path d="M24,0.002C10.767,0.002,0,10.767,0,24s10.767,23.999,24,23.999S48,37.233,48,24S37.233,0.002,24,0.002z M39.681,24.707
	L24.707,39.68c-0.195,0.195-0.451,0.293-0.707,0.293s-0.512-0.098-0.707-0.293L19.3,35.688c-0.189-0.188-0.294-0.443-0.293-0.709
	c0.001-0.266,0.107-0.521,0.296-0.708l6.263-6.213H9.07c-0.553,0-1-0.448-1-1v-5.989c0-0.552,0.447-1,1-1h16.521l-6.295-6.344
	c-0.388-0.391-0.387-1.022,0.003-1.412l3.993-3.993c0.391-0.391,1.023-0.391,1.414,0l14.974,14.974
	c0.188,0.188,0.293,0.442,0.293,0.707S39.868,24.52,39.681,24.707z"/>
</svg>
