<?xml version="1.0" encoding="utf-8"?>
<!-- Generator: Adobe Illustrator 17.0.0, SVG Export Plug-In . SVG Version: 6.00 Build 0)  -->
<!DOCTYPE svg PUBLIC "-//W3C//DTD SVG 1.1//EN" "http://www.w3.org/Graphics/SVG/1.1/DTD/svg11.dtd">
<svg version="1.1" id="Layer_2" xmlns="http://www.w3.org/2000/svg" xmlns:xlink="http://www.w3.org/1999/xlink" x="0px" y="0px"
	 width="48px" height="48px" viewBox="0 0 48 48" enable-background="new 0 0 48 48" xml:space="preserve">
<path d="M47,0H1C0.448,0,0,0.447,0,1v46c0,0.553,0.448,1,1,1h46c0.552,0,1-0.447,1-1V1C48,0.447,47.552,0,47,0z M31.97,24.707
	L19.865,36.812c-0.195,0.195-0.451,0.293-0.707,0.293c-0.256,0-0.512-0.098-0.707-0.293c-0.391-0.391-0.391-1.023,0-1.414L29.849,24
	L18.451,12.602c-0.391-0.391-0.391-1.023,0-1.414s1.023-0.391,1.414,0L31.97,23.293C32.361,23.684,32.361,24.316,31.97,24.707z"/>
</svg>
