<?xml version="1.0" encoding="utf-8"?>
<!-- Generator: Adobe Illustrator 17.0.0, SVG Export Plug-In . SVG Version: 6.00 Build 0)  -->
<!DOCTYPE svg PUBLIC "-//W3C//DTD SVG 1.1//EN" "http://www.w3.org/Graphics/SVG/1.1/DTD/svg11.dtd">
<svg version="1.1" id="Layer_2" xmlns="http://www.w3.org/2000/svg" xmlns:xlink="http://www.w3.org/1999/xlink" x="0px" y="0px"
	 width="48px" height="48px" viewBox="0 0 48 48" enable-background="new 0 0 48 48" xml:space="preserve">
<path d="M44.903,26.609c-0.155-0.374-0.52-0.618-0.924-0.618H32v-25c0-0.552-0.448-1-1-1H17c-0.552,0-1,0.448-1,1v25H4.021
	c-0.404,0-0.768,0.243-0.923,0.616c-0.155,0.373-0.071,0.803,0.214,1.09l19.892,20.017c0.188,0.188,0.442,0.294,0.707,0.295
	c0,0,0.002,0,0.002,0c0.265,0,0.519-0.105,0.706-0.292l20.066-20.017C44.972,27.414,45.058,26.983,44.903,26.609z"/>
</svg>
