<?xml version="1.0" encoding="utf-8"?>
<!-- Generator: Adobe Illustrator 17.0.0, SVG Export Plug-In . SVG Version: 6.00 Build 0)  -->
<!DOCTYPE svg PUBLIC "-//W3C//DTD SVG 1.1//EN" "http://www.w3.org/Graphics/SVG/1.1/DTD/svg11.dtd">
<svg version="1.1" id="Layer_2" xmlns="http://www.w3.org/2000/svg" xmlns:xlink="http://www.w3.org/1999/xlink" x="0px" y="0px"
	 width="48px" height="48px" viewBox="0 0 48 48" enable-background="new 0 0 48 48" xml:space="preserve">
<path d="M43.091,15.466L33.104,5.39c-0.286-0.288-0.715-0.374-1.091-0.221c-0.375,0.154-0.619,0.52-0.619,0.925V22.28L13.386,4.831
	c-0.392-0.379-1.017-0.376-1.403,0.011l-7.071,7.071c-0.386,0.385-0.391,1.009-0.013,1.401l17.459,18.112H6.311
	c-0.403,0-0.767,0.242-0.923,0.614c-0.155,0.372-0.072,0.801,0.211,1.088l9.899,10.025c0.188,0.19,0.444,0.297,0.711,0.297h26.17
	c0.552,0,1-0.448,1-1V16.17C43.381,15.906,43.277,15.654,43.091,15.466z"/>
</svg>
