<?xml version="1.0" encoding="utf-8"?>
<!-- Generator: Adobe Illustrator 17.0.0, SVG Export Plug-In . SVG Version: 6.00 Build 0)  -->
<!DOCTYPE svg PUBLIC "-//W3C//DTD SVG 1.1//EN" "http://www.w3.org/Graphics/SVG/1.1/DTD/svg11.dtd">
<svg version="1.1" id="Layer_2" xmlns="http://www.w3.org/2000/svg" xmlns:xlink="http://www.w3.org/1999/xlink" x="0px" y="0px"
	 width="48px" height="48px" viewBox="0 0 48 48" enable-background="new 0 0 48 48" xml:space="preserve">
<g>
	<path d="M7.029,35.294c-1.586,1.586-1.586,4.07,0,5.656c0.768,0.768,1.774,1.19,2.834,1.19c1.053,0,2.056-0.423,2.823-1.19
		c0.775-0.774,1.198-1.788,1.189-2.853c-0.008-1.049-0.43-2.045-1.189-2.804C11.157,33.765,8.568,33.756,7.029,35.294z"/>
	<path d="M19.581,35.294c-1.586,1.586-1.586,4.07,0,5.656c0.768,0.768,1.774,1.19,2.833,1.19c1.053,0,2.056-0.423,2.823-1.19
		c0.775-0.774,1.197-1.788,1.189-2.853c-0.008-1.049-0.43-2.045-1.189-2.804C23.709,33.765,21.119,33.756,19.581,35.294z"/>
	<path d="M31.071,35.294c-0.776,0.775-1.198,1.789-1.19,2.854c0.008,1.048,0.431,2.044,1.19,2.803
		c0.767,0.768,1.773,1.19,2.833,1.19c1.053,0,2.056-0.423,2.824-1.19c1.586-1.586,1.586-4.07,0-5.656
		C35.198,33.765,32.609,33.757,31.071,35.294z"/>
	<path d="M9.863,29.236c1.053,0,2.056-0.423,2.823-1.19c0.775-0.775,1.198-1.788,1.189-2.853c-0.008-1.049-0.43-2.045-1.189-2.804
		c-1.53-1.529-4.118-1.539-5.657,0c-1.586,1.585-1.586,4.07,0,5.657C7.797,28.814,8.803,29.236,9.863,29.236z"/>
	<path d="M9.863,17.923c1.053,0,2.056-0.423,2.823-1.191c0.775-0.774,1.198-1.788,1.189-2.852c-0.008-1.049-0.43-2.045-1.189-2.804
		c-1.529-1.53-4.118-1.539-5.657,0c-1.586,1.586-1.586,4.071,0,5.657C7.797,17.5,8.803,17.923,9.863,17.923z"/>
	<path d="M40.97,7.01c-1.529-1.53-4.118-1.539-5.656,0c-0.776,0.775-1.198,1.789-1.19,2.854c0.008,1.048,0.431,2.044,1.19,2.803
		c0.767,0.768,1.773,1.19,2.833,1.19c1.053,0,2.056-0.423,2.823-1.19c0.775-0.774,1.198-1.788,1.189-2.852
		C42.152,8.765,41.73,7.769,40.97,7.01z"/>
	<path d="M33.9,19.738c1.586-1.586,1.586-4.071,0-5.657c-1.529-1.529-4.118-1.539-5.657,0c-1.586,1.586-1.586,4.071,0,5.657
		c0.767,0.768,1.773,1.19,2.833,1.19C32.13,20.928,33.132,20.505,33.9,19.738z"/>
	<path d="M21.172,21.152c-0.776,0.775-1.198,1.788-1.19,2.854c0.008,1.048,0.431,2.044,1.19,2.803
		c0.767,0.768,1.773,1.19,2.833,1.19c1.053,0,2.056-0.423,2.823-1.19c0.775-0.774,1.198-1.788,1.19-2.853
		c-0.008-1.049-0.43-2.045-1.19-2.804C25.299,19.622,22.71,19.614,21.172,21.152z"/>
	<path d="M19.757,28.223c-1.529-1.529-4.118-1.539-5.657,0c-1.586,1.586-1.586,4.071,0,5.657c0.767,0.768,1.773,1.19,2.833,1.19
		c1.054,0,2.057-0.422,2.824-1.19C21.343,32.294,21.343,29.809,19.757,28.223z"/>
</g>
</svg>
