<?xml version="1.0" encoding="utf-8"?>
<!-- Generator: Adobe Illustrator 17.0.0, SVG Export Plug-In . SVG Version: 6.00 Build 0)  -->
<!DOCTYPE svg PUBLIC "-//W3C//DTD SVG 1.1//EN" "http://www.w3.org/Graphics/SVG/1.1/DTD/svg11.dtd">
<svg version="1.1" id="Layer_2" xmlns="http://www.w3.org/2000/svg" xmlns:xlink="http://www.w3.org/1999/xlink" x="0px" y="0px"
	 width="48px" height="48px" viewBox="0 0 48 48" enable-background="new 0 0 48 48" xml:space="preserve">
<path d="M47.711,23.293l-21.85-21.85c-0.391-0.391-1.023-0.391-1.414,0l-6.9,6.9c-0.381,0.381-0.392,0.995-0.025,1.389l7.726,8.297
	L0.997,18c0,0-0.001,0-0.001,0c-0.265,0-0.519,0.105-0.706,0.292C0.102,18.48-0.004,18.734-0.004,19v10.078c0,0.552,0.448,1,1,1
	h24.159l-7.633,8.191c-0.367,0.394-0.356,1.008,0.024,1.389l6.9,6.9c0.195,0.195,0.451,0.293,0.707,0.293
	c0.256,0,0.512-0.098,0.707-0.293l21.85-21.85C48.101,24.316,48.101,23.684,47.711,23.293z"/>
</svg>
