<?xml version="1.0" encoding="utf-8"?>
<!-- Generator: Adobe Illustrator 17.0.0, SVG Export Plug-In . SVG Version: 6.00 Build 0)  -->
<!DOCTYPE svg PUBLIC "-//W3C//DTD SVG 1.1//EN" "http://www.w3.org/Graphics/SVG/1.1/DTD/svg11.dtd">
<svg version="1.1" id="Layer_2" xmlns="http://www.w3.org/2000/svg" xmlns:xlink="http://www.w3.org/1999/xlink" x="0px" y="0px"
	 width="48px" height="48px" viewBox="0 0 48 48" enable-background="new 0 0 48 48" xml:space="preserve">
<path d="M23.999,0C10.766,0,0,10.767,0,24s10.766,24,23.999,24C37.233,48,48,37.233,48,24S37.233,0,23.999,0z M34.611,24.813
	L17.664,36.919c-0.176,0.126-0.379,0.187-0.58,0.187c-0.312,0-0.619-0.146-0.814-0.419c-0.321-0.449-0.217-1.074,0.233-1.395
	l15.861-11.33L16.465,11.471c-0.434-0.341-0.51-0.97-0.168-1.404c0.341-0.434,0.968-0.511,1.404-0.168l16.947,13.315
	c0.247,0.194,0.389,0.494,0.382,0.809C35.022,24.338,34.868,24.631,34.611,24.813z"/>
</svg>
