<?xml version="1.0" encoding="utf-8"?>
<!-- Generator: Adobe Illustrator 17.0.0, SVG Export Plug-In . SVG Version: 6.00 Build 0)  -->
<!DOCTYPE svg PUBLIC "-//W3C//DTD SVG 1.1//EN" "http://www.w3.org/Graphics/SVG/1.1/DTD/svg11.dtd">
<svg version="1.1" id="Layer_2" xmlns="http://www.w3.org/2000/svg" xmlns:xlink="http://www.w3.org/1999/xlink" x="0px" y="0px"
	 width="48px" height="48px" viewBox="0 0 48 48" enable-background="new 0 0 48 48" xml:space="preserve">
<path d="M47,0H1C0.447,0,0,0.448,0,1v46c0,0.552,0.447,1,1,1h46c0.553,0,1-0.448,1-1V1C48,0.448,47.553,0,47,0z M11.5,17.5h-4v-4h4
	V17.5z M17.5,41.5h-4v-4h4V41.5z M17.5,23.5h-4v-4h4V23.5z M17.5,17.5h-4v-4h4V17.5z M17.5,11.5h-4v-4h4V11.5z M23.5,41.5h-4v-4h4
	V41.5z M23.5,35.5h-4v-4h4V35.5z M23.5,29.5h-4v-4h4V29.5z M23.5,23.5h-4v-4h4V23.5z M23.5,17.5h-4v-4h4V17.5z M29.5,41.5h-4v-4h4
	V41.5z M29.5,35.5h-4v-4h4V35.5z M29.5,29.5h-4v-4h4V29.5z M29.5,23.5h-4v-4h4V23.5z M35.5,41.5h-4v-4h4V41.5z M35.5,35.5h-4v-4h4
	V35.5z M35.5,29.5h-4v-4h4V29.5z M35.5,23.5h-4v-4h4V23.5z M41.5,41.5h-4v-4h4V41.5z M41.5,35.5h-4v-4h4V35.5z M41.5,29.5h-4v-4h4
	V29.5z M41.5,23.5h-4v-4h4V23.5z M41.5,17.5h-4v-4h4V17.5z"/>
</svg>
