<?xml version="1.0" encoding="utf-8"?>
<!-- Generator: Adobe Illustrator 17.0.0, SVG Export Plug-In . SVG Version: 6.00 Build 0)  -->
<!DOCTYPE svg PUBLIC "-//W3C//DTD SVG 1.1//EN" "http://www.w3.org/Graphics/SVG/1.1/DTD/svg11.dtd">
<svg version="1.1" id="Layer_2" xmlns="http://www.w3.org/2000/svg" xmlns:xlink="http://www.w3.org/1999/xlink" x="0px" y="0px"
	 width="48px" height="48px" viewBox="0 0 48 48" enable-background="new 0 0 48 48" xml:space="preserve">
<path d="M36.938,7.646c-1.35,0-2.587,0.496-3.486,1.396c-0.934,0.935-1.446,2.228-1.443,3.637l-0.007,11.992L14.042,7.08
	c-0.682-0.684-1.561-1.045-2.545-1.045c-1.3,0-2.734,0.658-3.837,1.76c-1.072,1.072-1.712,2.503-1.71,3.827
	c0,1.006,0.364,1.899,1.041,2.575l17.416,17.831H12.321c-2.907,0-5.1,2.123-5.1,4.938c0.002,2.849,2.195,4.999,5.101,4.999H41.05
	c0.553,0,1-0.448,1-1V12.676C42.045,9.858,39.8,7.648,36.938,7.646z"/>
</svg>
