<?xml version="1.0" encoding="utf-8"?>
<!-- Generator: Adobe Illustrator 17.0.0, SVG Export Plug-In . SVG Version: 6.00 Build 0)  -->
<!DOCTYPE svg PUBLIC "-//W3C//DTD SVG 1.1//EN" "http://www.w3.org/Graphics/SVG/1.1/DTD/svg11.dtd">
<svg version="1.1" id="Layer_2" xmlns="http://www.w3.org/2000/svg" xmlns:xlink="http://www.w3.org/1999/xlink" x="0px" y="0px"
	 width="48px" height="48px" viewBox="0 0 48 48" enable-background="new 0 0 48 48" xml:space="preserve">
<path d="M40.976,7.029C36.443,2.496,30.416,0,24.006,0S11.568,2.496,7.035,7.029C2.502,11.562,0.006,17.589,0.006,24
	s2.497,12.438,7.03,16.97c4.533,4.533,10.56,7.03,16.97,7.03s12.438-2.497,16.971-7.03C50.334,31.613,50.334,16.387,40.976,7.029z
	 M38.839,17.638L28.255,28.229l6.245,6.077c0.292,0.284,0.382,0.716,0.229,1.093c-0.153,0.377-0.52,0.624-0.926,0.624H13.014
	c-0.265,0-0.52-0.105-0.708-0.293c-0.188-0.188-0.292-0.442-0.292-0.708l0.019-20.988c0-0.41,0.25-0.777,0.631-0.929
	c0.381-0.15,0.815-0.055,1.096,0.244l6.027,6.39L30.361,9.161c0.375-0.375,1.039-0.375,1.414,0l7.063,7.063
	C39.229,16.614,39.229,17.248,38.839,17.638z"/>
</svg>
