<?xml version="1.0" encoding="utf-8"?>
<!-- Generator: Adobe Illustrator 17.0.0, SVG Export Plug-In . SVG Version: 6.00 Build 0)  -->
<!DOCTYPE svg PUBLIC "-//W3C//DTD SVG 1.1//EN" "http://www.w3.org/Graphics/SVG/1.1/DTD/svg11.dtd">
<svg version="1.1" id="Layer_2" xmlns="http://www.w3.org/2000/svg" xmlns:xlink="http://www.w3.org/1999/xlink" x="0px" y="0px"
	 width="48px" height="48px" viewBox="0 0 48 48" enable-background="new 0 0 48 48" xml:space="preserve">
<path d="M24,0C10.767,0,0,10.767,0,24s10.767,24,24,24c13.233,0,24-10.767,24-24S37.233,0,24,0z M40.692,24.707L25.706,39.694
	c-0.191,0.191-0.447,0.293-0.707,0.293c-0.129,0-0.259-0.025-0.383-0.076c-0.374-0.155-0.617-0.519-0.617-0.924v-8.991L9.014,29.999
	c-0.265,0-0.52-0.105-0.707-0.293s-0.293-0.442-0.293-0.707V19.01c0-0.552,0.447-1,1-1l14.985-0.005V9.013
	c0-0.404,0.243-0.769,0.617-0.924c0.375-0.153,0.804-0.07,1.09,0.217l14.986,14.987C41.083,23.684,41.083,24.316,40.692,24.707z"/>
</svg>
