<?xml version="1.0" encoding="utf-8"?>
<!-- Generator: Adobe Illustrator 17.0.0, SVG Export Plug-In . SVG Version: 6.00 Build 0)  -->
<!DOCTYPE svg PUBLIC "-//W3C//DTD SVG 1.1//EN" "http://www.w3.org/Graphics/SVG/1.1/DTD/svg11.dtd">
<svg version="1.1" id="Layer_2" xmlns="http://www.w3.org/2000/svg" xmlns:xlink="http://www.w3.org/1999/xlink" x="0px" y="0px"
	 width="60px" height="60px" viewBox="0 0 60 60" enable-background="new 0 0 60 60" xml:space="preserve">
<g>
	<path fill="#010101" d="M53,13H40v-3c0-2.757-2.691-5-6-5h-8c-3.309,0-6,2.243-6,5v3H7c-3.859,0-7,3.141-7,7v28
		c0,3.859,3.141,7,7,7h46c3.859,0,7-3.141,7-7V20C60,16.141,56.859,13,53,13z M22,10c0-1.626,1.832-3,4-3h8c2.168,0,4,1.374,4,3v3
		H22V10z M38,43c-2.999,0-5.812-1.519-7.475-4H16c-0.266,0-0.52-0.105-0.707-0.293l-4-4c-0.391-0.391-0.391-1.023,0-1.414l4-4
		C15.48,29.106,15.734,29,16,29h14.525c1.663-2.481,4.476-4,7.475-4c4.963,0,9,4.037,9,9C47,38.963,42.963,43,38,43z"/>
	<circle fill="#010101" cx="38" cy="34" r="3"/>
</g>
</svg>
