<?xml version="1.0" encoding="utf-8"?>
<!-- Generator: Adobe Illustrator 17.0.0, SVG Export Plug-In . SVG Version: 6.00 Build 0)  -->
<!DOCTYPE svg PUBLIC "-//W3C//DTD SVG 1.1//EN" "http://www.w3.org/Graphics/SVG/1.1/DTD/svg11.dtd">
<svg version="1.1" id="Layer_2" xmlns="http://www.w3.org/2000/svg" xmlns:xlink="http://www.w3.org/1999/xlink" x="0px" y="0px"
	 width="60px" height="60px" viewBox="0 0 60 60" enable-background="new 0 0 60 60" xml:space="preserve">
<g>
	<path fill="#010101" d="M30.828,9.073l-1.869-6.355c-0.151-0.519-0.688-0.822-1.21-0.686l-27,7C0.218,9.17-0.103,9.71,0.03,10.243
		l9,36c0.066,0.268,0.24,0.496,0.481,0.63C9.662,46.957,9.83,47,10,47c0.101,0,0.202-0.016,0.3-0.046l8.811-2.773L30.794,9.132
		C30.801,9.11,30.819,9.094,30.828,9.073z M8,16c-1.102,0-2-0.898-2-2s0.898-2,2-2s2,0.898,2,2S9.103,16,8,16z M20.796,27.917
		l0.357,1.546c0.124,0.538-0.212,1.075-0.75,1.199c-0.075,0.018-0.151,0.025-0.225,0.025c-0.455,0-0.866-0.312-0.974-0.775
		l-0.356-1.544c-0.29,0.031-0.58,0.05-0.866,0.05c-2.651,0-4.609-1.348-5.11-3.518c-0.644-2.801,2.977-7.277,3.709-8.146
		c0.286-0.34,0.763-0.45,1.17-0.269c1.039,0.46,6.255,2.896,6.901,5.701C25.277,24.904,23.298,27.007,20.796,27.917z"/>
	<path fill="#010101" d="M59.902,20.57c-0.115-0.24-0.321-0.424-0.572-0.513l-26.007-9.002c-0.252-0.085-0.525-0.07-0.765,0.048
		c-0.239,0.118-0.422,0.328-0.506,0.581L31.81,12.41v0L20.052,47.685c-0.171,0.515,0.099,1.072,0.61,1.255l25,9
		C45.774,57.982,45.888,58,46,58c0.408,0,0.791-0.252,0.939-0.657l13.002-36.005C60.031,21.087,60.017,20.81,59.902,20.57z
		 M36.361,16.727L36.361,16.727l0.761,1.614L35.509,19.1l-0.761-1.613L36.361,16.727z M42.752,51.171l-0.764-1.609l1.616-0.764
		l0.761,1.615L42.752,51.171z M44.899,36.458l-7.302,5.414c-0.175,0.129-0.384,0.196-0.596,0.196c-0.113,0-0.228-0.02-0.338-0.059
		c-0.314-0.113-0.552-0.376-0.633-0.7l-2.191-8.822c-0.097-0.392,0.051-0.804,0.375-1.044l7.302-5.416
		c0.269-0.199,0.617-0.249,0.934-0.139c0.314,0.113,0.552,0.376,0.633,0.7l2.191,8.824C45.37,35.805,45.223,36.217,44.899,36.458z"
		/>
</g>
</svg>
