<?xml version="1.0" encoding="utf-8"?>
<!-- Generator: Adobe Illustrator 17.0.0, SVG Export Plug-In . SVG Version: 6.00 Build 0)  -->
<!DOCTYPE svg PUBLIC "-//W3C//DTD SVG 1.1//EN" "http://www.w3.org/Graphics/SVG/1.1/DTD/svg11.dtd">
<svg version="1.1" id="Layer_2" xmlns="http://www.w3.org/2000/svg" xmlns:xlink="http://www.w3.org/1999/xlink" x="0px" y="0px"
	 width="60px" height="60px" viewBox="0 0 60 60" enable-background="new 0 0 60 60" xml:space="preserve">
<path fill="#010101" d="M48,0H12C9.243,0,7,2.243,7,5v50c0,2.757,2.243,5,5,5h36c2.757,0,5-2.243,5-5V5C53,2.243,50.757,0,48,0z
	 M18,18c-0.304,0-0.591-0.138-0.781-0.375l-4-5c-0.292-0.365-0.292-0.885,0-1.25l4-5C17.6,5.9,18.4,5.9,18.781,6.375l4,5
	c0.292,0.365,0.292,0.885,0,1.25l-4,5C18.591,17.862,18.304,18,18,18z M30,41c-0.326,0-0.632-0.159-0.819-0.427l-7-10
	c-0.241-0.344-0.241-0.803,0-1.146l7-10c0.375-0.535,1.264-0.535,1.639,0l7,10c0.241,0.344,0.241,0.803,0,1.146l-7,10
	C30.632,40.841,30.326,41,30,41z M46.781,48.625l-4,5C42.591,53.862,42.304,54,42,54c-0.304,0-0.591-0.138-0.781-0.375l-4-5
	c-0.292-0.365-0.292-0.885,0-1.25l4-5c0.381-0.475,1.182-0.475,1.562,0l4,5C47.073,47.74,47.073,48.26,46.781,48.625z"/>
</svg>
