<?xml version="1.0" encoding="utf-8"?>
<!-- Generator: Adobe Illustrator 17.0.0, SVG Export Plug-In . SVG Version: 6.00 Build 0)  -->
<!DOCTYPE svg PUBLIC "-//W3C//DTD SVG 1.1//EN" "http://www.w3.org/Graphics/SVG/1.1/DTD/svg11.dtd">
<svg version="1.1" id="Layer_2" xmlns="http://www.w3.org/2000/svg" xmlns:xlink="http://www.w3.org/1999/xlink" x="0px" y="0px"
	 width="60px" height="60px" viewBox="0 0 60 60" enable-background="new 0 0 60 60" xml:space="preserve">
<path fill="#010101" d="M59,0H30H1C0.447,0,0,0.447,0,1v28v4.001V35v24c0,0.553,0.447,1,1,1h20c0.553,0,1-0.447,1-1
	c0-3.995-0.44-7.715-1.235-11h18.47C38.44,51.285,38,55.005,38,59c0,0.553,0.447,1,1,1h20c0.553,0,1-0.447,1-1V35v-0.997V29V1
	C60,0.447,59.553,0,59,0z M38.804,6.02c0.548-0.114,1.069,0.242,1.177,0.784c1.151,5.763,6.402,12.769,11.467,15.302
	c0.494,0.247,0.694,0.848,0.447,1.342C51.719,23.798,51.366,24,50.999,24c-0.15,0-0.303-0.034-0.446-0.105
	c-5.538-2.77-11.278-10.416-12.533-16.698C37.911,6.654,38.263,6.128,38.804,6.02z M8.553,22.106
	c5.064-2.532,10.316-9.539,11.467-15.302c0.108-0.541,0.628-0.9,1.177-0.784c0.541,0.108,0.893,0.635,0.784,1.177
	c-1.255,6.282-6.995,13.929-12.533,16.698C9.304,23.966,9.151,24,9.001,24c-0.367,0-0.72-0.202-0.896-0.553
	C7.858,22.953,8.059,22.353,8.553,22.106z M2,33.001V30h6v4H2V33.001z M13,49c-0.553,0-1-0.447-1-1c0-2.21-2.289-6.501-3.126-7.008
	C8.381,40.931,8,40.51,8,40c0-0.553,0.447-1,1-1c2.222,0,5,6.525,5,9C14,48.553,13.553,49,13,49z M39.781,46H20.219
	C18.153,39.202,14.455,34.668,10,34.074v-4.095c10.909-0.346,17.606-6.394,20-18.025c2.394,11.631,9.091,17.679,20,18.025v4.095
	C45.545,34.668,41.847,39.202,39.781,46z M51.126,40.992C50.289,41.499,48,45.79,48,48c0,0.553-0.447,1-1,1c-0.553,0-1-0.447-1-1
	c0-2.475,2.778-9,5-9c0.553,0,1,0.447,1,1C52,40.51,51.619,40.931,51.126,40.992z M58,34h-6v-4h6V34z"/>
</svg>
