<?xml version="1.0" encoding="utf-8"?>
<!-- Generator: Adobe Illustrator 17.0.0, SVG Export Plug-In . SVG Version: 6.00 Build 0)  -->
<!DOCTYPE svg PUBLIC "-//W3C//DTD SVG 1.1//EN" "http://www.w3.org/Graphics/SVG/1.1/DTD/svg11.dtd">
<svg version="1.1" id="Layer_2" xmlns="http://www.w3.org/2000/svg" xmlns:xlink="http://www.w3.org/1999/xlink" x="0px" y="0px"
	 width="60px" height="60px" viewBox="0 0 60 60" enable-background="new 0 0 60 60" xml:space="preserve">
<g>
	<path fill="#010101" d="M57,2H25c-1.654,0-3,1.346-3,3v13h13c2.757,0,5,2.243,5,5v17h17c1.654,0,3-1.346,3-3V5
		C60,3.346,58.654,2,57,2z M33,16c-1.654,0-3-1.346-3-3s1.346-3,3-3c1.654,0,3,1.346,3,3S34.654,16,33,16z M49,32
		c-1.654,0-3-1.346-3-3s1.346-3,3-3c1.654,0,3,1.346,3,3S50.654,32,49,32z M49,16c-1.654,0-3-1.346-3-3s1.346-3,3-3
		c1.654,0,3,1.346,3,3S50.654,16,49,16z"/>
	<path fill="#010101" d="M35,20H3c-1.654,0-3,1.346-3,3v32c0,1.654,1.346,3,3,3h32c1.654,0,3-1.346,3-3V23
		C38,21.346,36.654,20,35,20z M9,48c-1.654,0-3-1.346-3-3s1.346-3,3-3c1.654,0,3,1.346,3,3S10.654,48,9,48z M9,36
		c-1.654,0-3-1.346-3-3s1.346-3,3-3c1.654,0,3,1.346,3,3S10.654,36,9,36z M19,48c-1.654,0-3-1.346-3-3s1.346-3,3-3
		c1.654,0,3,1.346,3,3S20.654,48,19,48z M19,36c-1.654,0-3-1.346-3-3s1.346-3,3-3c1.654,0,3,1.346,3,3S20.654,36,19,36z M29,48
		c-1.654,0-3-1.346-3-3s1.346-3,3-3c1.654,0,3,1.346,3,3S30.654,48,29,48z M29,36c-1.654,0-3-1.346-3-3s1.346-3,3-3
		c1.654,0,3,1.346,3,3S30.654,36,29,36z"/>
</g>
</svg>
