<?xml version="1.0" encoding="utf-8"?>
<!-- Generator: Adobe Illustrator 17.0.0, SVG Export Plug-In . SVG Version: 6.00 Build 0)  -->
<!DOCTYPE svg PUBLIC "-//W3C//DTD SVG 1.1//EN" "http://www.w3.org/Graphics/SVG/1.1/DTD/svg11.dtd">
<svg version="1.1" id="Layer_2" xmlns="http://www.w3.org/2000/svg" xmlns:xlink="http://www.w3.org/1999/xlink" x="0px" y="0px"
	 width="60px" height="60px" viewBox="0 0 60 60" enable-background="new 0 0 60 60" xml:space="preserve">
<g>
	<path fill="#010101" d="M37,14.914v2.238l11.303,3.596C48.718,20.88,49,21.266,49,21.701v18.225l9.379-3.836
		C58.755,35.936,59,35.57,59,35.164V8.498L37,14.914z M53,33.164c-1.654,0-3-1.346-3-3s1.346-3,3-3c1.654,0,3,1.346,3,3
		S54.654,33.164,53,33.164z M53,20.164c-1.654,0-3-1.346-3-3s1.346-3,3-3c1.654,0,3,1.346,3,3S54.654,20.164,53,20.164z"/>
	<path fill="#010101" d="M57.329,6.902l-21.027-6.69c-0.197-0.062-0.408-0.062-0.605,0l-21.027,6.69L36,13.122L57.329,6.902z
		 M33,7.164c0-1.654,1.346-3,3-3c1.654,0,3,1.346,3,3s-1.346,3-3,3C34.346,10.164,33,8.818,33,7.164z"/>
	<path fill="#010101" d="M24.303,13.112L35,16.516v-1.602L13,8.498v8.018l10.697-3.403C23.894,13.05,24.105,13.05,24.303,13.112z"/>
	<path fill="#010101" d="M1,50.164c0,0.406,0.245,0.771,0.621,0.926L23,59.836V30.885L1,23.551V50.164z M17,44.164
		c1.654,0,3,1.346,3,3s-1.346,3-3,3c-1.654,0-3-1.346-3-3S15.346,44.164,17,44.164z M9,31.164c1.654,0,3,1.346,3,3s-1.346,3-3,3
		c-1.654,0-3-1.346-3-3S7.346,31.164,9,31.164z"/>
	<path fill="#010101" d="M24,15.115L6.111,20.807L2.518,21.95l21.475,7.158l21.014-7.309L24,15.115z M24,26.164
		c-1.654,0-3-1.346-3-3s1.346-3,3-3c1.654,0,3,1.346,3,3S25.654,26.164,24,26.164z"/>
	<path fill="#010101" d="M25,59.836l21.379-8.746C46.755,50.936,47,50.57,47,50.164V23.223l-22,7.652V59.836z M40,30.164
		c1.654,0,3,1.346,3,3s-1.346,3-3,3c-1.654,0-3-1.346-3-3S38.346,30.164,40,30.164z M36,37.164c1.654,0,3,1.346,3,3s-1.346,3-3,3
		c-1.654,0-3-1.346-3-3S34.346,37.164,36,37.164z M31,44.164c1.654,0,3,1.346,3,3s-1.346,3-3,3c-1.654,0-3-1.346-3-3
		S29.346,44.164,31,44.164z"/>
</g>
</svg>
