<?xml version="1.0" encoding="utf-8"?>
<!-- Generator: Adobe Illustrator 17.0.0, SVG Export Plug-In . SVG Version: 6.00 Build 0)  -->
<!DOCTYPE svg PUBLIC "-//W3C//DTD SVG 1.1//EN" "http://www.w3.org/Graphics/SVG/1.1/DTD/svg11.dtd">
<svg version="1.1" id="Layer_2" xmlns="http://www.w3.org/2000/svg" xmlns:xlink="http://www.w3.org/1999/xlink" x="0px" y="0px"
	 width="60px" height="60px" viewBox="0 0 60 60" enable-background="new 0 0 60 60" xml:space="preserve">
<g>
	<path fill="#010101" d="M30,0C17.663,0,8,9.663,8,22v35c0,1.654,1.346,3,3,3h2c1.654,0,3-1.346,3-3v-2c0-0.552,0.448-1,1-1h2
		c0.552,0,1,0.448,1,1v2c0,1.654,1.346,3,3,3h2c1.654,0,3-1.346,3-3v-2c0-0.552,0.448-1,1-1h2c0.552,0,1,0.448,1,1v2
		c0,1.654,1.346,3,3,3h2c1.654,0,3-1.346,3-3v-2c0-0.552,0.448-1,1-1h2c0.552,0,1,0.448,1,1v2c0,1.654,1.346,3,3,3h2
		c1.654,0,3-1.346,3-3V22C52,9.663,42.337,0,30,0z M28,28c0,3.309-2.243,6-5,6c-2.757,0-5-2.691-5-6v-1v-5c0-3.309,2.243-6,5-6
		c2.757,0,5,2.691,5,6V28z M42,28c0,3.309-2.243,6-5,6c-2.757,0-5-2.691-5-6v-1v-5c0-3.309,2.243-6,5-6c2.757,0,5,2.691,5,6V28z"/>
	<circle fill="#010101" cx="21" cy="27" r="3"/>
	<circle fill="#010101" cx="35" cy="27" r="3"/>
</g>
</svg>
