<?xml version="1.0" encoding="utf-8"?>
<!-- Generator: Adobe Illustrator 17.0.0, SVG Export Plug-In . SVG Version: 6.00 Build 0)  -->
<!DOCTYPE svg PUBLIC "-//W3C//DTD SVG 1.1//EN" "http://www.w3.org/Graphics/SVG/1.1/DTD/svg11.dtd">
<svg version="1.1" id="Layer_2" xmlns="http://www.w3.org/2000/svg" xmlns:xlink="http://www.w3.org/1999/xlink" x="0px" y="0px"
	 width="60px" height="60px" viewBox="0 0 60 60" enable-background="new 0 0 60 60" xml:space="preserve">
<path fill="#010101" d="M34.396,30l22.519-15.922c0.217-0.153,0.363-0.386,0.408-0.647c0.045-0.262-0.016-0.53-0.169-0.747
	C51.528,4.741,42.373,0,32.663,0c-16.542,0-30,13.458-30,30s13.458,30,30,30c9.711,0,18.866-4.741,24.49-12.682
	c0.153-0.217,0.214-0.485,0.169-0.747s-0.191-0.494-0.408-0.647L34.396,30z M26.663,22c-3.309,0-6-2.691-6-6s2.691-6,6-6
	s6,2.691,6,6S29.972,22,26.663,22z"/>
</svg>
