<?xml version="1.0" encoding="utf-8"?>
<!-- Generator: Adobe Illustrator 17.0.0, SVG Export Plug-In . SVG Version: 6.00 Build 0)  -->
<!DOCTYPE svg PUBLIC "-//W3C//DTD SVG 1.1//EN" "http://www.w3.org/Graphics/SVG/1.1/DTD/svg11.dtd">
<svg version="1.1" id="Layer_2" xmlns="http://www.w3.org/2000/svg" xmlns:xlink="http://www.w3.org/1999/xlink" x="0px" y="0px"
	 width="60px" height="60px" viewBox="0 0 60 60" enable-background="new 0 0 60 60" xml:space="preserve">
<path fill="#010101" d="M30,0c-8.272,0-15,6.729-15,15c0,0.553,0.447,1,1,1c0.553,0,1-0.447,1-1c0-7.168,5.832-13,13-13
	s13,5.832,13,13s-5.832,13-13,13c-7.43,0-15,8.075-15,16v15c0,0.553,0.447,1,1,1h28c0.553,0,1-0.447,1-1V15C45,6.729,38.271,0,30,0z
	 M38,54H22c-0.553,0-1-0.447-1-1c0-0.553,0.447-1,1-1h16c0.553,0,1,0.447,1,1C39,53.553,38.553,54,38,54z"/>
</svg>
