<?xml version="1.0" encoding="utf-8"?>
<!-- Generator: Adobe Illustrator 17.0.0, SVG Export Plug-In . SVG Version: 6.00 Build 0)  -->
<!DOCTYPE svg PUBLIC "-//W3C//DTD SVG 1.1//EN" "http://www.w3.org/Graphics/SVG/1.1/DTD/svg11.dtd">
<svg version="1.1" id="Layer_2" xmlns="http://www.w3.org/2000/svg" xmlns:xlink="http://www.w3.org/1999/xlink" x="0px" y="0px"
	 width="60px" height="60px" viewBox="0 0 60 60" enable-background="new 0 0 60 60" xml:space="preserve">
<path fill="#010101" d="M56.383,0.077c-0.374-0.156-0.804-0.07-1.09,0.217c-2.612,2.609-13.017,4.433-25.302,4.434
	c-0.001,0-0.002,0-0.004,0c-12.47,0-22.629-1.782-25.28-4.434c-0.286-0.286-0.715-0.372-1.09-0.217C3.244,0.231,3,0.596,3,1v29
	c0,16.883,21.536,30,27,30s27-13.117,27-30V1C57,0.596,56.757,0.232,56.383,0.077z M11,18c0-0.553,0.447-1,1-1s1,0.447,1,1
	c0,2.206,1.794,4,4,4s4-1.794,4-4c0-0.553,0.447-1,1-1s1,0.447,1,1c0,3.309-2.691,6-6,6S11,21.309,11,18z M40,46
	c-0.553,0-1-0.447-1-1c0-4.963-4.037-9-9-9s-9,4.037-9,9c0,0.553-0.447,1-1,1s-1-0.447-1-1c0-6.065,4.935-11,11-11s11,4.935,11,11
	C41,45.553,40.553,46,40,46z M43,24c-3.309,0-6-2.691-6-6c0-0.553,0.447-1,1-1s1,0.447,1,1c0,2.206,1.794,4,4,4s4-1.794,4-4
	c0-0.553,0.447-1,1-1s1,0.447,1,1C49,21.309,46.309,24,43,24z"/>
</svg>
