<?xml version="1.0" encoding="utf-8"?>
<!-- Generator: Adobe Illustrator 17.0.0, SVG Export Plug-In . SVG Version: 6.00 Build 0)  -->
<!DOCTYPE svg PUBLIC "-//W3C//DTD SVG 1.1//EN" "http://www.w3.org/Graphics/SVG/1.1/DTD/svg11.dtd">
<svg version="1.1" id="Layer_2" xmlns="http://www.w3.org/2000/svg" xmlns:xlink="http://www.w3.org/1999/xlink" x="0px" y="0px"
	 width="60px" height="60px" viewBox="0 0 60 60" enable-background="new 0 0 60 60" xml:space="preserve">
<g>
	<path fill="#010101" d="M14,8.439c0-0.404,0.244-0.77,0.617-0.924c0.375-0.154,0.804-0.069,1.09,0.217l3.415,3.417
		C21.034,13.063,28.131,15,37.995,15c2.144,0,4.147-0.096,6.005-0.259V1c0-0.42-0.263-0.796-0.657-0.94
		c-0.394-0.142-0.836-0.026-1.108,0.296C40.034,2.973,32.051,4.73,22.37,4.73C12.663,4.731,4.359,2.947,1.707,0.293
		c-0.286-0.286-0.715-0.372-1.09-0.217C0.244,0.231,0,0.596,0,1v21c0,7.943,5.782,15.012,8.321,17.734l13,12
		c0.096,0.088,0.206,0.154,0.323,0.199C17.334,47.092,14,40.853,14,34V8.439z"/>
	<path fill="#010101" d="M59.383,12.346c-0.373-0.156-0.804-0.07-1.09,0.217c-0.166,0.166-0.353,0.328-0.561,0.487
		c-2.388,1.824-7.484,3.166-13.732,3.697C42.09,16.909,40.078,17,37.995,17c-9.483,0-17.637-1.783-20.288-4.438L16,10.854v2.416V34
		c0,14.302,16.61,26,22,26c5.39,0,22-11.698,22-26V13.27C60,12.865,59.757,12.5,59.383,12.346z M26,31c0,0.553-0.447,1-1,1
		c-0.553,0-1-0.447-1-1c0-2.757,2.243-5,5-5c2.757,0,5,2.243,5,5c0,0.553-0.447,1-1,1c-0.553,0-1-0.447-1-1c0-1.654-1.346-3-3-3
		C27.346,28,26,29.346,26,31z M38,51c-4.963,0-9-4.037-9-9c0-0.553,0.447-1,1-1c0.553,0,1,0.447,1,1c0,3.859,3.141,7,7,7
		c3.859,0,7-3.141,7-7c0-0.553,0.447-1,1-1c0.553,0,1,0.447,1,1C47,46.963,42.963,51,38,51z M51,32c-0.553,0-1-0.447-1-1
		c0-1.654-1.346-3-3-3c-1.654,0-3,1.346-3,3c0,0.553-0.447,1-1,1c-0.553,0-1-0.447-1-1c0-2.757,2.243-5,5-5c2.757,0,5,2.243,5,5
		C52,31.553,51.553,32,51,32z"/>
</g>
</svg>
