<?xml version="1.0" encoding="utf-8"?>
<!-- Generator: Adobe Illustrator 17.0.0, SVG Export Plug-In . SVG Version: 6.00 Build 0)  -->
<!DOCTYPE svg PUBLIC "-//W3C//DTD SVG 1.1//EN" "http://www.w3.org/Graphics/SVG/1.1/DTD/svg11.dtd">
<svg version="1.1" id="Layer_2" xmlns="http://www.w3.org/2000/svg" xmlns:xlink="http://www.w3.org/1999/xlink" x="0px" y="0px"
	 width="60px" height="60px" viewBox="0 0 60 60" enable-background="new 0 0 60 60" xml:space="preserve">
<g>
	<path fill="#010101" d="M43,16h-9V2h3c0.553,0,1-0.447,1-1c0-0.553-0.447-1-1-1H23c-0.553,0-1,0.447-1,1c0,0.553,0.447,1,1,1h3v14
		h-9c-2.757,0-5,2.243-5,5v32c0,2.757,2.243,5,5,5h3v1c0,0.553,0.447,1,1,1c0.553,0,1-0.447,1-1v-1h16v1c0,0.553,0.447,1,1,1
		c0.553,0,1-0.447,1-1v-1h3c2.757,0,5-2.243,5-5V21C48,18.243,45.757,16,43,16z M28,2h4v14h-4V2z M21,24h18c0.553,0,1,0.447,1,1
		s-0.447,1-1,1H24v1c0,0.553-0.447,1-1,1c-0.553,0-1-0.447-1-1v-1h-1c-0.553,0-1-0.447-1-1S20.447,24,21,24z M42,48
		c0,1.944-2.056,4-4,4H22c-1.85,0-4-1.576-4-3.609V39c0-0.553,0.447-1,1-1h22c0.553,0,1,0.447,1,1V48z"/>
	<path fill="#010101" d="M20,48.391C20,49.143,21.065,50,22,50h16c0.841,0,2-1.159,2-2v-8H20V48.391z"/>
</g>
</svg>
