<?xml version="1.0" encoding="utf-8"?>
<!-- Generator: Adobe Illustrator 17.0.0, SVG Export Plug-In . SVG Version: 6.00 Build 0)  -->
<!DOCTYPE svg PUBLIC "-//W3C//DTD SVG 1.1//EN" "http://www.w3.org/Graphics/SVG/1.1/DTD/svg11.dtd">
<svg version="1.1" id="Layer_2" xmlns="http://www.w3.org/2000/svg" xmlns:xlink="http://www.w3.org/1999/xlink" x="0px" y="0px"
	 width="60px" height="60px" viewBox="0 0 60 60" enable-background="new 0 0 60 60" xml:space="preserve">
<g>
	<path fill="#010101" d="M53,14h-3v42h3c3.859,0,7-3.141,7-7V21C60,17.141,56.859,14,53,14z"/>
	<path fill="#010101" d="M34,4h-8c-3.309,0-6,2.691-6,6v4v1v41h20V15v-1v-4C40,6.691,37.309,4,34,4z M38,14H22v-4
		c0-2.206,1.794-4,4-4h8c2.206,0,4,1.794,4,4V14z"/>
	<rect x="42" y="14" fill="#010101" width="6" height="42"/>
	<rect x="12" y="14" fill="#010101" width="6" height="42"/>
	<path fill="#010101" d="M0,21v28c0,3.859,3.141,7,7,7h3V14H7C3.141,14,0,17.141,0,21z"/>
</g>
</svg>
