<?xml version="1.0" encoding="utf-8"?>
<!-- Generator: Adobe Illustrator 17.0.0, SVG Export Plug-In . SVG Version: 6.00 Build 0)  -->
<!DOCTYPE svg PUBLIC "-//W3C//DTD SVG 1.1//EN" "http://www.w3.org/Graphics/SVG/1.1/DTD/svg11.dtd">
<svg version="1.1" id="Layer_2" xmlns="http://www.w3.org/2000/svg" xmlns:xlink="http://www.w3.org/1999/xlink" x="0px" y="0px"
	 width="60px" height="60px" viewBox="0 0 60 60" enable-background="new 0 0 60 60" xml:space="preserve">
<g>
	<path fill="#010101" d="M54,48h-9v-9c0-0.553-0.447-1-1-1H34c-0.553,0-1,0.447-1,1v9h-9c-0.553,0-1,0.447-1,1v10
		c0,0.553,0.447,1,1,1h30c0.553,0,1-0.447,1-1V49C55,48.447,54.553,48,54,48z"/>
	<path fill="#010101" d="M1,24h30c0.553,0,1-0.447,1-1V13c0-0.553-0.447-1-1-1H12V3c0-0.553-0.447-1-1-1H1C0.447,2,0,2.447,0,3v20
		C0,23.553,0.447,24,1,24z"/>
	<path fill="#010101" d="M59,10h-9V1c0-0.553-0.447-1-1-1H39c-0.553,0-1,0.447-1,1v20c0,0.553,0.447,1,1,1h9v9c0,0.553,0.447,1,1,1
		h10c0.553,0,1-0.447,1-1V11C60,10.447,59.553,10,59,10z"/>
	<path fill="#010101" d="M1,37h22v9c0,0.553,0.447,1,1,1h7c0.553,0,1-0.447,1-1V26c0-0.553-0.447-1-1-1H1c-0.553,0-1,0.447-1,1v10
		C0,36.553,0.447,37,1,37z"/>
	<path fill="#010101" d="M21,38H1c-0.553,0-1,0.447-1,1v20c0,0.553,0.447,1,1,1h20c0.553,0,1-0.447,1-1V39
		C22,38.447,21.553,38,21,38z"/>
</g>
</svg>
