<?xml version="1.0" encoding="utf-8"?>
<!-- Generator: Adobe Illustrator 17.0.0, SVG Export Plug-In . SVG Version: 6.00 Build 0)  -->
<!DOCTYPE svg PUBLIC "-//W3C//DTD SVG 1.1//EN" "http://www.w3.org/Graphics/SVG/1.1/DTD/svg11.dtd">
<svg version="1.1" id="Layer_2" xmlns="http://www.w3.org/2000/svg" xmlns:xlink="http://www.w3.org/1999/xlink" x="0px" y="0px"
	 width="60px" height="60px" viewBox="0 0 60 60" enable-background="new 0 0 60 60" xml:space="preserve">
<g>
	<path fill="#010101" d="M45,0h-9c-0.553,0-1,0.447-1,1c0,2.757-2.243,5-5,5c-2.757,0-5-2.243-5-5c0-0.553-0.447-1-1-1h-9
		c-3.309,0-6,2.691-6,6v48c0,3.309,2.691,6,6,6h9c0.553,0,1-0.447,1-1c0-2.757,2.243-5,5-5c2.757,0,5,2.243,5,5c0,0.553,0.447,1,1,1
		h9c3.364,0,6-2.636,6-6V6C51,2.636,48.364,0,45,0z M45,49c0,0.553-0.447,1-1,1H16c-0.553,0-1-0.447-1-1V11c0-0.553,0.447-1,1-1h28
		c0.553,0,1,0.447,1,1V49z"/>
	<rect x="17" y="12" fill="#010101" width="26" height="6"/>
	<rect x="17" y="42" fill="#010101" width="26" height="6"/>
	<path fill="#010101" d="M17,40h26V20H17V40z M23,23c0-0.553,0.447-1,1-1c0.553,0,1,0.447,1,1v14c0,0.553-0.447,1-1,1
		c-0.553,0-1-0.447-1-1V23z"/>
</g>
</svg>
