<?xml version="1.0" encoding="utf-8"?>
<!-- Generator: Adobe Illustrator 17.0.0, SVG Export Plug-In . SVG Version: 6.00 Build 0)  -->
<!DOCTYPE svg PUBLIC "-//W3C//DTD SVG 1.1//EN" "http://www.w3.org/Graphics/SVG/1.1/DTD/svg11.dtd">
<svg version="1.1" id="Layer_2" xmlns="http://www.w3.org/2000/svg" xmlns:xlink="http://www.w3.org/1999/xlink" x="0px" y="0px"
	 width="60px" height="60px" viewBox="0 0 60 60" enable-background="new 0 0 60 60" xml:space="preserve">
<g>
	<path fill="#010101" d="M57.767,22.515c-0.005-1.843,0.685-3.55,1.94-4.807c0.391-0.391,0.391-1.023,0-1.414l-16-16
		c-0.215-0.216-0.515-0.329-0.82-0.286c-0.303,0.034-0.573,0.205-0.734,0.463c-0.68,1.087-2.298,1.762-4.224,1.762
		c-2.025,0-4.025-0.742-5.222-1.938c-0.391-0.391-1.023-0.391-1.414,0l-31,31c-0.391,0.391-0.391,1.023,0,1.414
		c1.223,1.223,1.924,2.97,1.924,4.793s-0.701,3.57-1.924,4.793c-0.391,0.391-0.391,1.023,0,1.414l16,16
		c0.391,0.391,1.023,0.391,1.414,0c1.223-1.223,2.97-1.924,4.793-1.924c1.823,0,3.57,0.701,4.793,1.924
		c0.195,0.195,0.451,0.293,0.707,0.293c0.256,0,0.512-0.098,0.707-0.293l31-31C59.894,28.521,60,28.267,60,28.001
		s-0.106-0.52-0.293-0.707C58.479,26.066,57.771,24.324,57.767,22.515z M49.879,28.536L28.535,49.88
		c-0.941,0.941-2.197,1.459-3.535,1.459c-1.338,0-2.594-0.518-3.535-1.459L10.121,38.536c-0.941-0.941-1.46-2.197-1.46-3.535
		c0-1.339,0.519-2.595,1.46-3.535l21.344-21.344c0.942-0.941,2.196-1.46,3.535-1.46c1.339,0,2.594,0.519,3.535,1.46l11.344,11.344
		c0.941,0.941,1.46,2.196,1.46,3.535C51.339,26.339,50.82,27.595,49.879,28.536z"/>
	<path fill="#010101" d="M37.121,11.536c-0.563-0.563-1.316-0.874-2.121-0.874c-0.805,0-1.558,0.311-2.121,0.874L11.535,32.88
		c-0.564,0.564-0.874,1.316-0.874,2.121c0,0.804,0.311,1.558,0.874,2.121l11.344,11.344c1.127,1.125,3.115,1.125,4.242,0
		l21.344-21.344c0.563-0.563,0.874-1.317,0.874-2.121c0-0.805-0.311-1.558-0.874-2.121L37.121,11.536z M20.707,34.708
		c-0.195,0.195-0.451,0.293-0.707,0.293c-0.256,0-0.512-0.098-0.707-0.293c-0.391-0.391-0.391-1.023,0-1.414l15-15
		c0.391-0.391,1.023-0.391,1.414,0c0.391,0.391,0.391,1.023,0,1.414L20.707,34.708z M37.707,28.708l-8,8
		c-0.195,0.195-0.451,0.293-0.707,0.293c-0.256,0-0.512-0.098-0.707-0.293c-0.391-0.391-0.391-1.023,0-1.414l8-8
		c0.391-0.391,1.023-0.391,1.414,0C38.098,27.685,38.098,28.318,37.707,28.708z"/>
</g>
</svg>
