<?xml version="1.0" encoding="utf-8"?>
<!-- Generator: Adobe Illustrator 17.0.0, SVG Export Plug-In . SVG Version: 6.00 Build 0)  -->
<!DOCTYPE svg PUBLIC "-//W3C//DTD SVG 1.1//EN" "http://www.w3.org/Graphics/SVG/1.1/DTD/svg11.dtd">
<svg version="1.1" id="Layer_2" xmlns="http://www.w3.org/2000/svg" xmlns:xlink="http://www.w3.org/1999/xlink" x="0px" y="0px"
	 width="60px" height="60px" viewBox="0 0 60 60" enable-background="new 0 0 60 60" xml:space="preserve">
<g>
	<path fill="#010101" d="M59,23c0.553,0,1-0.447,1-1V11c0-0.553-0.447-1-1-1H1c-0.553,0-1,0.447-1,1v11c0,0.553,0.447,1,1,1
		c3.859,0,7,3.141,7,7c0,3.859-3.141,7-7,7c-0.553,0-1,0.447-1,1v11c0,0.553,0.447,1,1,1h58c0.553,0,1-0.447,1-1V38
		c0-0.553-0.447-1-1-1c-3.859,0-7-3.141-7-7C52,26.141,55.141,23,59,23z M39.999,41c0,0.553-0.447,1-1,1H17.001
		c-0.553,0-1-0.447-1-1V19.002c0-0.553,0.447-1,1-1h21.998c0.553,0,1,0.447,1,1V41z M48,46h-2v-2h2V46z M48,40h-2v-2h2V40z M48,34
		h-2v-2h2V34z M48,28h-2v-2h2V28z M48,22h-2v-2h2V22z M48,16h-2v-2h2V16z"/>
	<path fill="#010101" d="M18.001,40h19.998V20.002H18.001V40z M23,26h10c0.553,0,1,0.447,1,1c0,0.553-0.447,1-1,1H23
		c-0.553,0-1-0.447-1-1C22,26.447,22.447,26,23,26z M23,32h10c0.553,0,1,0.447,1,1c0,0.553-0.447,1-1,1H23c-0.553,0-1-0.447-1-1
		C22,32.447,22.447,32,23,32z"/>
</g>
</svg>
