<?xml version="1.0" encoding="utf-8"?>
<!-- Generator: Adobe Illustrator 17.0.0, SVG Export Plug-In . SVG Version: 6.00 Build 0)  -->
<!DOCTYPE svg PUBLIC "-//W3C//DTD SVG 1.1//EN" "http://www.w3.org/Graphics/SVG/1.1/DTD/svg11.dtd">
<svg version="1.1" id="Layer_1" xmlns="http://www.w3.org/2000/svg" xmlns:xlink="http://www.w3.org/1999/xlink" x="0px" y="0px"
	 width="48px" height="48px" viewBox="0 0 48 48" enable-background="new 0 0 48 48" xml:space="preserve">
<g>
	<path fill="#010101" d="M39,8c-0.059,0-0.059,0-26.053,3C11.317,10.971,10,9.636,10,8c0-2.137,0-2.312,9.113-3.556
		c3.785-0.517,8.97-1.225,16.059-2.458c0.544-0.095,0.909-0.613,0.814-1.157c-0.095-0.544-0.61-0.907-1.157-0.814
		c-7.053,1.227-12.217,1.932-15.987,2.447C10.081,3.658,8,3.942,8,8c0,2.757,2.243,5,5,5c0.038,0,0.077-0.002,0.115-0.006
		c0,0,19.915-2.299,24.885-2.872v32.995l-23.056,2.882C14.368,45.985,10,45.717,10,41V16c0-0.552-0.448-1-1-1s-1,0.448-1,1v25
		c0,5.537,4.579,7,7,7c0.041,0,0.083-0.002,0.124-0.008l24-3C39.624,44.93,40,44.504,40,44V9C40,8.448,39.552,8,39,8z"/>
	<path fill="#010101" d="M13.008,8.13c0.066,0.504,0.495,0.871,0.99,0.871c0.044,0,0.087-0.002,0.131-0.009l23-3
		c0.547-0.071,0.933-0.573,0.862-1.121c-0.072-0.548-0.573-0.933-1.121-0.862l-23,3C13.323,7.08,12.937,7.582,13.008,8.13z"/>
</g>
</svg>
