<?xml version="1.0" encoding="utf-8"?>
<!-- Generator: Adobe Illustrator 17.0.0, SVG Export Plug-In . SVG Version: 6.00 Build 0)  -->
<!DOCTYPE svg PUBLIC "-//W3C//DTD SVG 1.1//EN" "http://www.w3.org/Graphics/SVG/1.1/DTD/svg11.dtd">
<svg version="1.1" id="Layer_1" xmlns="http://www.w3.org/2000/svg" xmlns:xlink="http://www.w3.org/1999/xlink" x="0px" y="0px"
	 width="48px" height="48px" viewBox="0 0 48 48" enable-background="new 0 0 48 48" xml:space="preserve">
<path fill="#010101" d="M45,5c-9.337,0-18.94,2.041-22,5.572C19.939,7.041,10.337,5,1,5C0.447,5,0,5.448,0,6v33c0,0.552,0.447,1,1,1
	c11.827,0,21,3.226,21,6c0,0.552,0.447,1,1,1s1-0.448,1-1c0-2.774,9.173-6,21-6c0.553,0,1-0.448,1-1V6C46,5.448,45.553,5,45,5z
	 M2,38.008v-31C13.34,7.183,22,10.304,22,13v29.658C18.341,39.81,10.17,38.135,2,38.008z M44,38.008
	c-8.17,0.127-16.341,1.802-20,4.65V13c0-2.696,8.66-5.817,20-5.992V38.008z"/>
</svg>
