<?xml version="1.0" encoding="utf-8"?>
<!-- Generator: Adobe Illustrator 17.0.0, SVG Export Plug-In . SVG Version: 6.00 Build 0)  -->
<!DOCTYPE svg PUBLIC "-//W3C//DTD SVG 1.1//EN" "http://www.w3.org/Graphics/SVG/1.1/DTD/svg11.dtd">
<svg version="1.1" id="Layer_1" xmlns="http://www.w3.org/2000/svg" xmlns:xlink="http://www.w3.org/1999/xlink" x="0px" y="0px"
	 width="48px" height="48px" viewBox="0 0 48 48" enable-background="new 0 0 48 48" xml:space="preserve">
<path fill="#010101" d="M39,8h-1V1c0-0.552-0.447-1-1-1H9C6.243,0,4,2.243,4,5v38c0,2.757,2.243,5,5,5h30c0.553,0,1-0.448,1-1V9
	C40,8.448,39.553,8,39,8z M9,2h27v6h-2V6H20v2H9C7.346,8,6,6.654,6,5S7.346,2,9,2z M22,8h10v20.586l-5-5l-5,5V8z M38,46H9
	c-1.654,0-3-1.346-3-3V8.975C6.838,9.609,7.87,10,9,10h11v23.414l7-7l7,7V10h4V46z"/>
</svg>
