<?xml version="1.0" encoding="utf-8"?>
<!-- Generator: Adobe Illustrator 17.0.0, SVG Export Plug-In . SVG Version: 6.00 Build 0)  -->
<!DOCTYPE svg PUBLIC "-//W3C//DTD SVG 1.1//EN" "http://www.w3.org/Graphics/SVG/1.1/DTD/svg11.dtd">
<svg version="1.1" id="Layer_1" xmlns="http://www.w3.org/2000/svg" xmlns:xlink="http://www.w3.org/1999/xlink" x="0px" y="0px"
	 width="48px" height="48px" viewBox="0 0 48 48" enable-background="new 0 0 48 48" xml:space="preserve">
<g>
	<path fill="#010101" d="M13,0c-0.553,0-1,0.448-1,1v7v3c0,1.654-1.346,3-3,3H5c-1.654,0-3-1.346-3-3V8V1c0-0.552-0.447-1-1-1
		S0,0.448,0,1v7v3v33c0,2.505,1.869,4,5,4h4c3.131,0,5-1.495,5-4V11V8V1C14,0.448,13.553,0,13,0z M5,16h4
		c1.13,0,2.162-0.391,3-1.025V22H2v-7.025C2.838,15.609,3.87,16,5,16z M2,36h10v2H2V36z M2,34v-6h10v6H2z M2,26v-2h10v2H2z M9,46H5
		c-3,0-3-1.505-3-2v-4h10v4C12,44.495,12,46,9,46z"/>
	<path fill="#010101" d="M29,0c-0.553,0-1,0.448-1,1v7v3c0,1.654-1.346,3-3,3h-4c-1.654,0-3-1.346-3-3V8V1c0-0.552-0.447-1-1-1
		s-1,0.448-1,1v7v3v33c0,2.505,1.869,4,5,4h4c3.131,0,5-1.495,5-4V11V8V1C30,0.448,29.553,0,29,0z M21,16h4
		c1.13,0,2.162-0.391,3-1.025V22H18v-7.025C18.838,15.609,19.87,16,21,16z M18,36h10v2H18V36z M18,34v-6h10v6H18z M18,26v-2h10v2H18
		z M25,46h-4c-3,0-3-1.505-3-2v-4h10v4C28,44.495,28,46,25,46z"/>
	<path fill="#010101" d="M45,0c-0.553,0-1,0.448-1,1v7v3c0,1.654-1.346,3-3,3h-4c-1.654,0-3-1.346-3-3V8V1c0-0.552-0.447-1-1-1
		s-1,0.448-1,1v7v3v33c0,2.505,1.869,4,5,4h4c3.131,0,5-1.495,5-4V11V8V1C46,0.448,45.553,0,45,0z M37,16h4
		c1.13,0,2.162-0.391,3-1.025V22H34v-7.025C34.838,15.609,35.87,16,37,16z M34,36h10v2H34V36z M34,34v-6h10v6H34z M34,26v-2h10v2H34
		z M41,46h-4c-3,0-3-1.505-3-2v-4h10v4C44,44.495,44,46,41,46z"/>
	<path fill="#010101" d="M5,12c0.553,0,1-0.448,1-1V3c0-0.552-0.447-1-1-1S4,2.448,4,3v8C4,11.552,4.447,12,5,12z"/>
	<path fill="#010101" d="M9,12c0.553,0,1-0.448,1-1V3c0-0.552-0.447-1-1-1S8,2.448,8,3v8C8,11.552,8.447,12,9,12z"/>
	<path fill="#010101" d="M21,12c0.553,0,1-0.448,1-1V3c0-0.552-0.447-1-1-1s-1,0.448-1,1v8C20,11.552,20.447,12,21,12z"/>
	<path fill="#010101" d="M25,12c0.553,0,1-0.448,1-1V3c0-0.552-0.447-1-1-1s-1,0.448-1,1v8C24,11.552,24.447,12,25,12z"/>
	<path fill="#010101" d="M37,12c0.553,0,1-0.448,1-1V3c0-0.552-0.447-1-1-1s-1,0.448-1,1v8C36,11.552,36.447,12,37,12z"/>
	<path fill="#010101" d="M41,12c0.553,0,1-0.448,1-1V3c0-0.552-0.447-1-1-1s-1,0.448-1,1v8C40,11.552,40.447,12,41,12z"/>
</g>
</svg>
