<?xml version="1.0" encoding="utf-8"?>
<!-- Generator: Adobe Illustrator 17.0.0, SVG Export Plug-In . SVG Version: 6.00 Build 0)  -->
<!DOCTYPE svg PUBLIC "-//W3C//DTD SVG 1.1//EN" "http://www.w3.org/Graphics/SVG/1.1/DTD/svg11.dtd">
<svg version="1.1" id="Layer_1" xmlns="http://www.w3.org/2000/svg" xmlns:xlink="http://www.w3.org/1999/xlink" x="0px" y="0px"
	 width="48px" height="48px" viewBox="0 0 48 48" enable-background="new 0 0 48 48" xml:space="preserve">
<path fill="#010101" d="M45,8h-3V6H32v2h-3c-2.73,0-4.839,1.294-6,3.506C21.839,9.294,19.729,8,17,8H1C0.447,8,0,8.448,0,9v32
	c0,0.552,0.447,1,1,1h16c3.458,0,5,1.542,5,5c0,0.552,0.447,1,1,1s1-0.448,1-1c0-3.458,1.542-5,5-5h16c0.553,0,1-0.448,1-1V9
	C46,8.448,45.553,8,45,8z M34,8h6v13.586l-3-3l-3,3V8z M17,40H2V10h15c4.513,0,5,4.196,5,6v25.578C20.828,40.535,19.153,40,17,40z
	 M44,40H29c-2.153,0-3.828,0.535-5,1.578V16c0-1.804,0.487-6,5-6h3v16.414l5-5l5,5V10h2V40z"/>
</svg>
