<?xml version="1.0" encoding="utf-8"?>
<!-- Generator: Adobe Illustrator 17.0.0, SVG Export Plug-In . SVG Version: 6.00 Build 0)  -->
<!DOCTYPE svg PUBLIC "-//W3C//DTD SVG 1.1//EN" "http://www.w3.org/Graphics/SVG/1.1/DTD/svg11.dtd">
<svg version="1.1" id="Layer_1" xmlns="http://www.w3.org/2000/svg" xmlns:xlink="http://www.w3.org/1999/xlink" x="0px" y="0px"
	 width="48px" height="48px" viewBox="0 0 48 48" enable-background="new 0 0 48 48" xml:space="preserve">
<g>
	<path fill="#010101" d="M10.419,25.812l6.4,4.583l-2.767,8.313c-0.134,0.401-0.002,0.841,0.33,1.102
		c0.18,0.142,0.399,0.214,0.618,0.214c0.184,0,0.367-0.05,0.53-0.151L23,35.202l7.47,4.664c0.358,0.224,0.817,0.198,1.149-0.062
		c0.331-0.261,0.463-0.702,0.33-1.102l-2.767-8.306l6.4-4.583c0.353-0.253,0.503-0.705,0.37-1.119C35.819,24.281,35.435,24,35,24
		h-8.279l-2.771-8.341c-0.136-0.409-0.518-0.685-0.949-0.685c-0.431,0-0.813,0.276-0.949,0.685L19.279,24H11
		c-0.435,0-0.819,0.281-0.951,0.693C9.916,25.107,10.065,25.559,10.419,25.812z M20,26c0.431,0,0.813-0.276,0.949-0.685L23,19.145
		l2.051,6.169c0.136,0.409,0.518,0.685,0.949,0.685h5.886l-4.468,3.2c-0.357,0.255-0.506,0.713-0.367,1.129l2.122,6.37l-5.643-3.524
		c-0.325-0.202-0.736-0.202-1.06,0l-5.643,3.529l2.122-6.375c0.138-0.416-0.011-0.874-0.367-1.129L14.115,26H20z"/>
	<path fill="#010101" d="M43,8H9C7.346,8,6,6.654,6,5s1.346-3,3-3h34c0.552,0,1-0.448,1-1s-0.448-1-1-1H9C6.243,0,4,2.243,4,5
		c0,0.235,0.016,0.467,0.048,0.693C4.017,5.79,4,5.893,4,6v37c0,2.757,2.243,5,5,5h34c0.552,0,1-0.448,1-1V9C44,8.448,43.552,8,43,8
		z M42,46H9c-1.654,0-3-1.346-3-3V8.998C6.836,9.627,7.875,10,9,10h33V46z"/>
	<path fill="#010101" d="M9,4C8.448,4,8,4.448,8,5s0.448,1,1,1h32c0.552,0,1-0.448,1-1s-0.448-1-1-1H9z"/>
</g>
</svg>
