<?xml version="1.0" encoding="utf-8"?>
<!-- Generator: Adobe Illustrator 17.0.0, SVG Export Plug-In . SVG Version: 6.00 Build 0)  -->
<!DOCTYPE svg PUBLIC "-//W3C//DTD SVG 1.1//EN" "http://www.w3.org/Graphics/SVG/1.1/DTD/svg11.dtd">
<svg version="1.1" id="Layer_1" xmlns="http://www.w3.org/2000/svg" xmlns:xlink="http://www.w3.org/1999/xlink" x="0px" y="0px"
	 width="48px" height="48px" viewBox="0 0 48 48" enable-background="new 0 0 48 48" xml:space="preserve">
<g>
	<path fill="#010101" d="M47,4c-9.665,0-19.833,1.935-23,5.568C20.833,5.935,10.665,4,1,4C0.448,4,0,4.448,0,5v33
		c0,0.552,0.448,1,1,1c13.63,0,22,3.495,22,6c0,0.552,0.448,1,1,1s1-0.448,1-1c0-2.505,8.37-6,22-6c0.552,0,1-0.448,1-1V5
		C48,4.448,47.552,4,47,4z M2,37.007V6.006C15.038,6.172,23,9.557,23,12v29.662C19.196,38.732,10.511,37.123,2,37.007z M46,37.007
		c-8.511,0.117-17.196,1.725-21,4.655V12c0-2.443,7.962-5.828,21-5.993V37.007z"/>
	<path fill="#010101" d="M19.358,15.546c-3.372-1.29-8.092-2.192-13.29-2.543c-0.547-0.04-1.027,0.38-1.065,0.93
		c-0.037,0.551,0.379,1.028,0.93,1.065c5.004,0.338,9.518,1.196,12.71,2.416C18.76,17.459,18.881,17.48,19,17.48
		c0.402,0,0.782-0.245,0.935-0.643C20.132,16.321,19.874,15.743,19.358,15.546z"/>
	<path fill="#010101" d="M19.358,21.546c-3.372-1.29-8.092-2.192-13.29-2.543c-0.547-0.045-1.027,0.38-1.065,0.93
		c-0.037,0.551,0.379,1.028,0.93,1.065c5.004,0.338,9.518,1.196,12.71,2.416C18.76,23.459,18.881,23.48,19,23.48
		c0.402,0,0.782-0.245,0.935-0.643C20.132,22.321,19.874,21.743,19.358,21.546z"/>
	<path fill="#010101" d="M19.358,27.546c-3.372-1.29-8.092-2.192-13.29-2.543c-0.547-0.049-1.027,0.38-1.065,0.93
		c-0.037,0.551,0.379,1.028,0.93,1.065c5.004,0.338,9.518,1.196,12.71,2.416C18.76,29.459,18.881,29.48,19,29.48
		c0.402,0,0.782-0.245,0.935-0.643C20.132,28.321,19.874,27.743,19.358,27.546z"/>
	<path fill="#010101" d="M19.358,33.546c-3.372-1.289-8.092-2.192-13.29-2.543c-0.547-0.043-1.027,0.38-1.065,0.93
		c-0.037,0.551,0.379,1.028,0.93,1.065c5.004,0.338,9.518,1.196,12.71,2.416C18.76,35.459,18.881,35.48,19,35.48
		c0.402,0,0.782-0.245,0.935-0.643C20.132,34.321,19.874,33.743,19.358,33.546z"/>
	<path fill="#010101" d="M29,17.48c0.119,0,0.24-0.021,0.356-0.067c3.194-1.22,7.708-2.079,12.711-2.416
		c0.551-0.037,0.967-0.514,0.93-1.065c-0.037-0.55-0.499-0.967-1.065-0.93c-5.195,0.35-9.914,1.253-13.289,2.543
		c-0.516,0.197-0.774,0.775-0.577,1.291C28.218,17.235,28.598,17.48,29,17.48z"/>
	<path fill="#010101" d="M29,23.48c0.119,0,0.24-0.021,0.356-0.067c3.194-1.22,7.708-2.079,12.711-2.416
		c0.551-0.037,0.967-0.514,0.93-1.065c-0.037-0.55-0.499-0.972-1.065-0.93c-5.195,0.35-9.914,1.254-13.289,2.543
		c-0.516,0.197-0.774,0.775-0.577,1.291C28.218,23.235,28.598,23.48,29,23.48z"/>
	<path fill="#010101" d="M29,29.48c0.119,0,0.24-0.021,0.356-0.067c3.194-1.22,7.708-2.079,12.711-2.416
		c0.551-0.037,0.967-0.514,0.93-1.065c-0.037-0.55-0.499-0.976-1.065-0.93c-5.195,0.35-9.914,1.253-13.289,2.543
		c-0.516,0.197-0.774,0.775-0.577,1.291C28.218,29.235,28.598,29.48,29,29.48z"/>
	<path fill="#010101" d="M29,35.48c0.119,0,0.24-0.021,0.356-0.067c3.194-1.22,7.708-2.079,12.711-2.416
		c0.551-0.037,0.967-0.514,0.93-1.065c-0.037-0.55-0.499-0.969-1.065-0.93c-5.195,0.35-9.914,1.254-13.289,2.543
		c-0.516,0.197-0.774,0.775-0.577,1.291C28.218,35.235,28.598,35.48,29,35.48z"/>
</g>
</svg>
