<?xml version="1.0" encoding="utf-8"?>
<!-- Generator: Adobe Illustrator 17.0.0, SVG Export Plug-In . SVG Version: 6.00 Build 0)  -->
<!DOCTYPE svg PUBLIC "-//W3C//DTD SVG 1.1//EN" "http://www.w3.org/Graphics/SVG/1.1/DTD/svg11.dtd">
<svg version="1.1" id="Layer_1" xmlns="http://www.w3.org/2000/svg" xmlns:xlink="http://www.w3.org/1999/xlink" x="0px" y="0px"
	 width="48px" height="48px" viewBox="0 0 48 48" enable-background="new 0 0 48 48" xml:space="preserve">
<g>
	<path fill="#010101" d="M39,8h-1V1c0-0.552-0.447-1-1-1H9C6.243,0,4,2.243,4,5v38c0,2.757,2.243,5,5,5h30c0.553,0,1-0.448,1-1V9
		C40,8.448,39.553,8,39,8z M9,2h27v6h-2V5c0-0.552-0.447-1-1-1H9C8.447,4,8,4.448,8,5s0.447,1,1,1h23v2H9C7.346,8,6,6.654,6,5
		S7.346,2,9,2z M38,46H9c-1.654,0-3-1.346-3-3V8.998C6.836,9.627,7.875,10,9,10h29V46z"/>
	<path fill="#010101" d="M22.949,15.659c-0.136-0.409-0.518-0.685-0.949-0.685c-0.431,0-0.813,0.276-0.949,0.685L18.278,24H10
		c-0.435,0-0.819,0.281-0.951,0.696c-0.133,0.414,0.017,0.866,0.371,1.119l6.398,4.57l-2.766,8.299
		c-0.134,0.4-0.002,0.841,0.33,1.102c0.329,0.26,0.79,0.285,1.148,0.062L22,35.179l7.47,4.669C29.633,39.95,29.816,40,30,40
		c0.22,0,0.438-0.072,0.618-0.215c0.332-0.261,0.464-0.702,0.33-1.102l-2.766-8.299l6.399-4.57c0.354-0.253,0.504-0.705,0.371-1.119
		S34.435,24,34,24h-8.278L22.949,15.659z M26.419,29.186c-0.357,0.255-0.507,0.713-0.367,1.13l2.12,6.362l-5.642-3.526
		C22.368,33.051,22.184,33,22,33s-0.368,0.051-0.53,0.152l-5.642,3.526l2.12-6.362c0.14-0.416-0.01-0.875-0.367-1.13L13.12,26H19
		c0.431,0,0.813-0.276,0.949-0.685L22,19.145l2.051,6.17C24.186,25.724,24.569,26,25,26h5.88L26.419,29.186z"/>
</g>
</svg>
