<?xml version="1.0" encoding="utf-8"?>
<!-- Generator: Adobe Illustrator 17.0.0, SVG Export Plug-In . SVG Version: 6.00 Build 0)  -->
<!DOCTYPE svg PUBLIC "-//W3C//DTD SVG 1.1//EN" "http://www.w3.org/Graphics/SVG/1.1/DTD/svg11.dtd">
<svg version="1.1" id="Layer_1" xmlns="http://www.w3.org/2000/svg" xmlns:xlink="http://www.w3.org/1999/xlink" x="0px" y="0px"
	 width="48px" height="48px" viewBox="0 0 48 48" enable-background="new 0 0 48 48" xml:space="preserve">
<g>
	<path fill="#010101" d="M45,6c-9.337,0-18.94,2.041-22,5.572C19.939,8.041,10.337,6,1,6C0.447,6,0,6.448,0,7v33
		c0,0.552,0.447,1,1,1c11.827,0,21,3.226,21,6c0,0.552,0.447,1,1,1s1-0.448,1-1c0-2.774,9.173-6,21-6c0.553,0,1-0.448,1-1V7
		C46,6.448,45.553,6,45,6z M34,9.001c1.827-0.354,3.839-0.632,6-0.803v13.387l-3-3l-3,3V9.001z M2,39.008v-31
		C13.34,8.183,22,11.304,22,14v29.658C18.341,40.81,10.17,39.135,2,39.008z M44,39.008c-8.17,0.127-16.341,1.802-20,4.65V14
		c0-1.609,3.101-3.365,8-4.561v16.976l5-5.001l5,5.001V8.072c0.657-0.031,1.323-0.053,2-0.064V39.008z"/>
	<path fill="#010101" d="M18.357,17.546c-3.372-1.29-8.093-2.192-13.29-2.543c-0.561-0.048-1.027,0.379-1.065,0.93
		c-0.037,0.551,0.38,1.028,0.931,1.065c5.005,0.338,9.519,1.196,12.71,2.416c0.118,0.045,0.238,0.066,0.357,0.066
		c0.402,0,0.781-0.245,0.933-0.643C19.131,18.321,18.873,17.743,18.357,17.546z"/>
	<path fill="#010101" d="M18.357,23.546c-3.372-1.29-8.093-2.192-13.29-2.543c-0.561-0.041-1.027,0.38-1.065,0.93
		c-0.037,0.551,0.38,1.028,0.931,1.065c5.005,0.338,9.519,1.196,12.71,2.416c0.118,0.045,0.238,0.066,0.357,0.066
		c0.402,0,0.781-0.245,0.933-0.643C19.131,24.321,18.873,23.743,18.357,23.546z"/>
	<path fill="#010101" d="M18.357,29.546c-3.372-1.29-8.093-2.192-13.29-2.543c-0.561-0.046-1.027,0.379-1.065,0.93
		c-0.037,0.551,0.38,1.028,0.931,1.065c5.005,0.338,9.519,1.196,12.71,2.416c0.118,0.045,0.238,0.066,0.357,0.066
		c0.402,0,0.781-0.245,0.933-0.643C19.131,30.321,18.873,29.743,18.357,29.546z"/>
	<path fill="#010101" d="M18.357,35.546c-3.372-1.29-8.093-2.192-13.29-2.543c-0.561-0.05-1.027,0.38-1.065,0.93
		c-0.037,0.551,0.38,1.028,0.931,1.065c5.005,0.338,9.519,1.196,12.71,2.416c0.118,0.045,0.238,0.066,0.357,0.066
		c0.402,0,0.781-0.245,0.933-0.643C19.131,36.321,18.873,35.743,18.357,35.546z"/>
	<path fill="#010101" d="M40.932,27.002c-5.195,0.35-9.915,1.254-13.29,2.543c-0.515,0.197-0.773,0.775-0.577,1.291
		c0.153,0.399,0.533,0.644,0.935,0.644c0.119,0,0.239-0.021,0.356-0.067c3.193-1.22,7.707-2.079,12.71-2.416
		c0.551-0.037,0.968-0.514,0.931-1.065C41.96,27.382,41.509,26.96,40.932,27.002z"/>
	<path fill="#010101" d="M40.932,33.002c-5.195,0.35-9.915,1.253-13.29,2.543c-0.515,0.197-0.773,0.775-0.577,1.291
		c0.153,0.399,0.533,0.644,0.935,0.644c0.119,0,0.239-0.021,0.356-0.067c3.193-1.22,7.707-2.079,12.71-2.416
		c0.551-0.037,0.968-0.514,0.931-1.065C41.96,33.382,41.509,32.955,40.932,33.002z"/>
</g>
</svg>
