<?xml version="1.0" encoding="utf-8"?>
<!-- Generator: Adobe Illustrator 17.0.0, SVG Export Plug-In . SVG Version: 6.00 Build 0)  -->
<!DOCTYPE svg PUBLIC "-//W3C//DTD SVG 1.1//EN" "http://www.w3.org/Graphics/SVG/1.1/DTD/svg11.dtd">
<svg version="1.1" id="Layer_1" xmlns="http://www.w3.org/2000/svg" xmlns:xlink="http://www.w3.org/1999/xlink" x="0px" y="0px"
	 width="48px" height="48px" viewBox="0 0 48 48" enable-background="new 0 0 48 48" xml:space="preserve">
<path fill="#010101" d="M47,8h-3V5c0-0.552-0.447-1-1-1H31c-2.868,0-4.89,0.95-6,2.785C23.89,4.95,21.868,4,19,4H7
	C6.447,4,6,4.448,6,5v3H3C2.447,8,2,8.448,2,9v32c0,0.552,0.447,1,1,1h12c1.804,0,6,0.487,6,5c0,0.552,0.447,1,1,1h6
	c0.553,0,1-0.448,1-1c0-4.513,4.196-5,6-5h12c0.553,0,1-0.448,1-1V9C48,8.448,47.553,8,47,8z M31,6h11v30H31
	c-2.153,0-3.828,0.535-5,1.578V11C26,7.542,27.542,6,31,6z M8,6h11c3.458,0,5,1.542,5,5v26.578C22.828,36.535,21.153,36,19,36H8V6z
	 M46,40H35c-4.468,0-7.482,2.322-7.94,6h-4.121c-0.458-3.678-3.471-6-7.939-6H4V10h2v27c0,0.552,0.447,1,1,1h12c3.458,0,5,1.542,5,5
	c0,0.552,0.447,1,1,1s1-0.448,1-1c0-3.458,1.542-5,5-5h12c0.553,0,1-0.448,1-1V10h2V40z"/>
</svg>
