<?xml version="1.0" encoding="utf-8"?>
<!-- Generator: Adobe Illustrator 17.0.0, SVG Export Plug-In . SVG Version: 6.00 Build 0)  -->
<!DOCTYPE svg PUBLIC "-//W3C//DTD SVG 1.1//EN" "http://www.w3.org/Graphics/SVG/1.1/DTD/svg11.dtd">
<svg version="1.1" id="Layer_1" xmlns="http://www.w3.org/2000/svg" xmlns:xlink="http://www.w3.org/1999/xlink" x="0px" y="0px"
	 width="48px" height="48px" viewBox="0 0 48 48" enable-background="new 0 0 48 48" xml:space="preserve">
<g>
	<path fill="#010101" d="M37,8H11C9.346,8,8,6.654,8,5s1.346-3,3-3h26c0.552,0,1-0.448,1-1s-0.448-1-1-1H11C8.243,0,6,2.243,6,5
		c0,0.228,0.038,0.446,0.067,0.667C6.03,5.772,6,5.882,6,6v27c0,2.757,2.243,5,5,5h6c0.552,0,1-0.448,1-1s-0.448-1-1-1h-6
		c-1.654,0-3-1.346-3-3V8.975C8.838,9.609,9.87,10,11,10h25v26h-7c-0.552,0-1,0.448-1,1s0.448,1,1,1h8c0.552,0,1-0.448,1-1V9
		C38,8.448,37.552,8,37,8z"/>
	<path fill="#010101" d="M27.293,41.293L24,44.586V24c0-0.552-0.448-1-1-1s-1,0.448-1,1v20.586l-3.293-3.293
		c-0.391-0.391-1.023-0.391-1.414,0c-0.391,0.391-0.391,1.023,0,1.414l5,5c0.092,0.092,0.203,0.165,0.325,0.216
		C22.74,47.973,22.87,48,23,48s0.26-0.027,0.382-0.077c0.122-0.051,0.233-0.124,0.325-0.216l5-5c0.391-0.391,0.391-1.023,0-1.414
		C28.316,40.902,27.684,40.902,27.293,41.293z"/>
	<path fill="#010101" d="M11,4c-0.552,0-1,0.448-1,1s0.448,1,1,1h24c0.552,0,1-0.448,1-1s-0.448-1-1-1H11z"/>
</g>
</svg>
