<?xml version="1.0" encoding="utf-8"?>
<!-- Generator: Adobe Illustrator 17.0.0, SVG Export Plug-In . SVG Version: 6.00 Build 0)  -->
<!DOCTYPE svg PUBLIC "-//W3C//DTD SVG 1.1//EN" "http://www.w3.org/Graphics/SVG/1.1/DTD/svg11.dtd">
<svg version="1.1" id="Layer_1" xmlns="http://www.w3.org/2000/svg" xmlns:xlink="http://www.w3.org/1999/xlink" x="0px" y="0px"
	 width="48px" height="48px" viewBox="0 0 48 48" enable-background="new 0 0 48 48" xml:space="preserve">
<g>
	<path fill="#010101" d="M25.191,44h4c0.553,0,1-0.448,1-1s-0.448-1-1-1h-4c-0.552,0-1,0.448-1,1S24.639,44,25.191,44z"/>
	<path fill="#010101" d="M15.191,32c0.553,0,1-0.448,1-1V5c0-0.552-0.448-1-1-1s-1,0.448-1,1v26C14.191,31.552,14.639,32,15.191,32z
		"/>
	<path fill="#010101" d="M17.191,34h-4c-0.552,0-1,0.448-1,1v8c0,0.552,0.448,1,1,1h4c0.553,0,1-0.448,1-1v-8
		C18.191,34.448,17.743,34,17.191,34z M16.191,42h-2v-6h2V42z"/>
	<path fill="#010101" d="M27.191,40c0.553,0,1-0.448,1-1V21c0-0.552-0.448-1-1-1s-1,0.448-1,1v18C26.191,39.552,26.639,40,27.191,40
		z"/>
	<path fill="#010101" d="M5.191,12c-0.552,0-1,0.448-1,1v28c0,0.552,0.448,1,1,1c0.553,0,1-0.448,1-1V13
		C6.191,12.448,5.743,12,5.191,12z"/>
	<path fill="#010101" d="M47.968,45.25l-10-38.73c-0.137-0.534-0.68-0.854-1.218-0.718l-5.811,1.5
		c-0.257,0.066-0.476,0.232-0.611,0.46c-0.135,0.229-0.173,0.501-0.107,0.758L32.153,16h-9.962V1c0-0.552-0.448-1-1-1h-12
		c-0.552,0-1,0.448-1,1v5h-7c-0.552,0-1,0.448-1,1v40c0,0.552,0.448,1,1,1h8h12h12c0.553,0,1-0.448,1-1V23.893l6.032,23.357
		C40.34,47.701,40.746,48,41.191,48c0.082,0,0.166-0.01,0.25-0.032l5.809-1.5C47.784,46.33,48.106,45.785,47.968,45.25z M2.191,8h6
		v38h-6V8z M10.191,7V2h10v15v29h-10V7z M32.191,46h-10V18h10V46z M41.91,45.782L32.408,8.988l3.874-1l9.5,36.794L41.91,45.782z"/>
</g>
</svg>
