<?xml version="1.0" encoding="utf-8"?>
<!-- Generator: Adobe Illustrator 17.0.0, SVG Export Plug-In . SVG Version: 6.00 Build 0)  -->
<!DOCTYPE svg PUBLIC "-//W3C//DTD SVG 1.1//EN" "http://www.w3.org/Graphics/SVG/1.1/DTD/svg11.dtd">
<svg version="1.1" id="Layer_1" xmlns="http://www.w3.org/2000/svg" xmlns:xlink="http://www.w3.org/1999/xlink" x="0px" y="0px"
	 width="48px" height="48px" viewBox="0 0 48 48" enable-background="new 0 0 48 48" xml:space="preserve">
<g>
	<path fill="#010101" d="M45.525,4.198C45.23,4.015,44.863,4,44.554,4.154l-19.55,9.776L5.455,4.154
		C5.144,4,4.777,4.015,4.482,4.198S4.007,4.702,4.007,5.049v31c0,0.379,0.214,0.726,0.553,0.895l19.996,10
		c0.009,0.004,0.019,0.003,0.028,0.007c0.128,0.06,0.268,0.098,0.419,0.098s0.291-0.039,0.419-0.098
		c0.009-0.004,0.019-0.002,0.028-0.007l19.997-10C45.786,36.774,46,36.428,46,36.049v-31C46,4.702,45.82,4.38,45.525,4.198z
		 M6.007,6.667l17.996,9v28.764l-17.996-9V6.667z M44,35.431l-17.997,9V15.667l17.997-9V35.431z"/>
	<path fill="#010101" d="M8.552,2.892l16,8.097c0.142,0.072,0.296,0.108,0.451,0.108c0.155,0,0.309-0.036,0.452-0.108l16-8.097
		c0.493-0.249,0.69-0.851,0.441-1.344c-0.251-0.493-0.851-0.691-1.344-0.44L25.003,8.976L9.454,1.108
		C8.961,0.859,8.36,1.057,8.11,1.548C7.861,2.042,8.059,2.643,8.552,2.892z"/>
</g>
</svg>
