<?xml version="1.0" encoding="utf-8"?>
<!-- Generator: Adobe Illustrator 17.0.0, SVG Export Plug-In . SVG Version: 6.00 Build 0)  -->
<!DOCTYPE svg PUBLIC "-//W3C//DTD SVG 1.1//EN" "http://www.w3.org/Graphics/SVG/1.1/DTD/svg11.dtd">
<svg version="1.1" id="Layer_1" xmlns="http://www.w3.org/2000/svg" xmlns:xlink="http://www.w3.org/1999/xlink" x="0px" y="0px"
	 width="48px" height="48px" viewBox="0 0 48 48" enable-background="new 0 0 48 48" xml:space="preserve">
<g>
	<path fill="#010101" d="M45,14H32V8c0-1.103-0.897-2-2-2H18c-1.103,0-2,0.897-2,2v6H3c-1.654,0-3,1.346-3,3v28c0,1.654,1.346,3,3,3
		h42c1.654,0,3-1.346,3-3V17C48,15.346,46.654,14,45,14z M30,8v2H18V8H30z M18,12h12v2H18V12z M46,45c0,0.551-0.449,1-1,1H3
		c-0.551,0-1-0.449-1-1V17c0-0.551,0.449-1,1-1h42c0.551,0,1,0.449,1,1V45z"/>
	<rect x="6" y="22" fill="#010101" width="36" height="2"/>
	<rect x="6" y="30" fill="#010101" width="36" height="2"/>
	<rect x="6" y="38" fill="#010101" width="36" height="2"/>
</g>
</svg>
