<?xml version="1.0" encoding="utf-8"?>
<!-- Generator: Adobe Illustrator 17.0.0, SVG Export Plug-In . SVG Version: 6.00 Build 0)  -->
<!DOCTYPE svg PUBLIC "-//W3C//DTD SVG 1.1//EN" "http://www.w3.org/Graphics/SVG/1.1/DTD/svg11.dtd">
<svg version="1.1" id="Layer_1" xmlns="http://www.w3.org/2000/svg" xmlns:xlink="http://www.w3.org/1999/xlink" x="0px" y="0px"
	 width="48px" height="48px" viewBox="0 0 48 48" enable-background="new 0 0 48 48" xml:space="preserve">
<g>
	<path fill="#010101" d="M27.866,38.912c0.751,0.496,1.625,0.759,2.524,0.759c1.221,0,2.368-0.474,3.231-1.335l1.387-1.387
		C35.647,36.309,36,35.458,36,34.553c-0.001-0.904-0.353-1.753-0.992-2.39l-2.527-2.528c-1.279-1.279-3.508-1.279-4.787,0
		l-0.196,0.196c-2.248-1.909-4.412-4.073-6.329-6.329l0.197-0.197c0.64-0.639,0.991-1.49,0.991-2.395
		c-0.001-0.905-0.352-1.754-0.991-2.391l-2.528-2.53c-1.277-1.275-3.512-1.274-4.785,0.003l-1.391,1.387
		c-1.525,1.529-1.768,3.949-0.575,5.757C16.198,29.35,21.654,34.806,27.866,38.912z M14.074,18.793l1.391-1.387
		C15.726,17.144,16.074,17,16.444,17c0.371,0,0.719,0.144,0.98,0.403l2.528,2.53c0.26,0.26,0.404,0.606,0.404,0.976
		c0,0.371-0.143,0.719-0.405,0.98l-0.844,0.844c-0.363,0.363-0.392,0.943-0.066,1.341c2.33,2.84,5.056,5.566,7.884,7.882
		c0.399,0.326,0.978,0.297,1.341-0.066l0.842-0.842c0.524-0.523,1.436-0.523,1.959,0l2.528,2.529
		c0.26,0.261,0.404,0.607,0.405,0.977c0,0.37-0.145,0.719-0.407,0.981l-1.386,1.386c-0.843,0.84-2.244,0.982-3.24,0.323
		c-5.989-3.96-11.25-9.219-15.213-15.211C13.082,21.015,13.217,19.652,14.074,18.793z"/>
	<path fill="#010101" d="M43,8H9C7.346,8,6,6.654,6,5s1.346-3,3-3h34c0.553,0,1-0.448,1-1s-0.447-1-1-1H9C6.243,0,4,2.243,4,5
		c0,0.235,0.017,0.467,0.048,0.693C4.017,5.79,4,5.893,4,6v37c0,2.757,2.243,5,5,5h34c0.553,0,1-0.448,1-1V9C44,8.448,43.553,8,43,8
		z M42,46H9c-1.654,0-3-1.346-3-3V8.998C6.836,9.627,7.875,10,9,10h33V46z"/>
	<path fill="#010101" d="M9,4C8.447,4,8,4.448,8,5s0.447,1,1,1h32c0.553,0,1-0.448,1-1s-0.447-1-1-1H9z"/>
</g>
</svg>
