<?xml version="1.0" encoding="utf-8"?>
<!-- Generator: Adobe Illustrator 17.0.0, SVG Export Plug-In . SVG Version: 6.00 Build 0)  -->
<!DOCTYPE svg PUBLIC "-//W3C//DTD SVG 1.1//EN" "http://www.w3.org/Graphics/SVG/1.1/DTD/svg11.dtd">
<svg version="1.1" id="Layer_1" xmlns="http://www.w3.org/2000/svg" xmlns:xlink="http://www.w3.org/1999/xlink" x="0px" y="0px"
	 width="48px" height="48px" viewBox="0 0 48 48" enable-background="new 0 0 48 48" xml:space="preserve">
<g>
	<path fill="#010101" d="M41,8h-1V1c0-0.552-0.447-1-1-1H11C8.243,0,6,2.243,6,5v38c0,2.757,2.243,5,5,5h30c0.553,0,1-0.448,1-1V9
		C42,8.448,41.553,8,41,8z M11,2h27v6h-2V5c0-0.552-0.447-1-1-1H11c-0.553,0-1,0.448-1,1s0.447,1,1,1h23v2H11C9.346,8,8,6.654,8,5
		S9.346,2,11,2z M40,46H11c-1.654,0-3-1.346-3-3V8.998C8.836,9.627,9.875,10,11,10h29V46z"/>
	<path fill="#010101" d="M27.674,26.734C29.086,25.635,30,23.924,30,22c0-3.309-2.691-6-6-6s-6,2.691-6,6
		c0,1.924,0.914,3.635,2.326,4.734C17.213,27.955,14,30.901,14,37v1h20v-1C34,30.901,30.787,27.955,27.674,26.734z M20,22
		c0-2.206,1.794-4,4-4s4,1.794,4,4s-1.794,4-4,4S20,24.206,20,22z M16.036,36c0.466-6.297,5.331-8,7.964-8s7.498,1.703,7.964,8
		H16.036z"/>
</g>
</svg>
