<?xml version="1.0" encoding="utf-8"?>
<!-- Generator: Adobe Illustrator 17.0.0, SVG Export Plug-In . SVG Version: 6.00 Build 0)  -->
<!DOCTYPE svg PUBLIC "-//W3C//DTD SVG 1.1//EN" "http://www.w3.org/Graphics/SVG/1.1/DTD/svg11.dtd">
<svg version="1.1" id="Layer_1" xmlns="http://www.w3.org/2000/svg" xmlns:xlink="http://www.w3.org/1999/xlink" x="0px" y="0px"
	 width="48px" height="48px" viewBox="0 0 48 48" enable-background="new 0 0 48 48" xml:space="preserve">
<g>
	<path fill="#010101" d="M24,0C10.767,0,0,10.767,0,24s10.767,24,24,24c13.233,0,24-10.767,24-24S37.233,0,24,0z M24,46
		C11.869,46,2,36.131,2,24S11.869,2,24,2s22,9.869,22,22S36.131,46,24,46z"/>
	<path fill="#010101" d="M16,18c1.689,0,3.212,0.604,4.286,1.699c0.386,0.395,1.018,0.401,1.414,0.015
		c0.395-0.387,0.401-1.02,0.014-1.414C20.261,16.817,18.231,16,16,16c-4.411,0-8,3.589-8,8s3.589,8,8,8c2.23,0,4.26-0.817,5.714-2.3
		c0.386-0.394,0.38-1.028-0.014-1.414c-0.393-0.386-1.028-0.382-1.414,0.014C19.211,29.396,17.689,30,16,30c-3.309,0-6-2.691-6-6
		S12.691,18,16,18z"/>
	<path fill="#010101" d="M32,18c1.689,0,3.212,0.604,4.286,1.699c0.386,0.395,1.018,0.401,1.414,0.015
		c0.395-0.387,0.401-1.02,0.014-1.414C36.261,16.817,34.231,16,32,16c-4.411,0-8,3.589-8,8s3.589,8,8,8c2.23,0,4.26-0.817,5.714-2.3
		c0.386-0.394,0.381-1.028-0.014-1.414c-0.393-0.386-1.028-0.382-1.414,0.014C35.211,29.396,33.689,30,32,30c-3.309,0-6-2.691-6-6
		S28.691,18,32,18z"/>
</g>
</svg>
