<?xml version="1.0" encoding="utf-8"?>
<!-- Generator: Adobe Illustrator 17.0.0, SVG Export Plug-In . SVG Version: 6.00 Build 0)  -->
<!DOCTYPE svg PUBLIC "-//W3C//DTD SVG 1.1//EN" "http://www.w3.org/Graphics/SVG/1.1/DTD/svg11.dtd">
<svg version="1.1" id="Layer_1" xmlns="http://www.w3.org/2000/svg" xmlns:xlink="http://www.w3.org/1999/xlink" x="0px" y="0px"
	 width="48px" height="48px" viewBox="0 0 48 48" enable-background="new 0 0 48 48" xml:space="preserve">
<path fill="#010101" d="M47,8.927c-0.03,0-0.055,0.014-0.084,0.017L24.253,3.032c-0.166-0.043-0.339-0.043-0.505,0L1.085,8.944
	C1.055,8.942,1.03,8.927,1,8.927c-0.552,0-1,0.448-1,1V38c0,0.426,0.27,0.805,0.671,0.944l23,8C23.778,46.981,23.889,47,24,47
	s0.222-0.019,0.329-0.056l23-8C47.73,38.805,48,38.426,48,38V9.927C48,9.375,47.552,8.927,47,8.927z M24,5.034L43.039,10
	l-18.955,4.944c-0.029-0.003-0.054-0.017-0.084-0.017s-0.055,0.014-0.084,0.017L4.961,10L24,5.034z M2,11.295l21,5.478v27.82
	L2,37.289V11.295z M25,44.593v-27.82l21-5.478v25.994L25,44.593z"/>
</svg>
