<?xml version="1.0" encoding="utf-8"?>
<!-- Generator: Adobe Illustrator 17.0.0, SVG Export Plug-In . SVG Version: 6.00 Build 0)  -->
<!DOCTYPE svg PUBLIC "-//W3C//DTD SVG 1.1//EN" "http://www.w3.org/Graphics/SVG/1.1/DTD/svg11.dtd">
<svg version="1.1" id="Layer_1" xmlns="http://www.w3.org/2000/svg" xmlns:xlink="http://www.w3.org/1999/xlink" x="0px" y="0px"
	 width="48px" height="48px" viewBox="0 0 48 48" enable-background="new 0 0 48 48" xml:space="preserve">
<g>
	<path fill="#010101" d="M37.924,0.617C37.769,0.244,37.404,0,37,0H1C0.596,0,0.231,0.244,0.076,0.617
		c-0.155,0.374-0.069,0.804,0.217,1.09L16,17.414V32c0,0.404,0.244,0.769,0.617,0.924C16.741,32.975,16.871,33,17,33
		c0.26,0,0.516-0.102,0.707-0.293l4-4C21.894,28.52,22,28.265,22,28V17.414L37.707,1.707C37.993,1.421,38.079,0.991,37.924,0.617z
		 M20.293,16.293C20.105,16.481,20,16.735,20,17v10.586l-2,2V17c0-0.265-0.106-0.519-0.293-0.707L3.414,2h31.172L20.293,16.293z"/>
	<path fill="#010101" d="M35,28h8c0.552,0,1-0.448,1-1s-0.448-1-1-1h-8c-0.552,0-1,0.448-1,1S34.448,28,35,28z"/>
	<path fill="#010101" d="M31,32h12c0.552,0,1-0.448,1-1s-0.448-1-1-1H31c-0.552,0-1,0.448-1,1S30.448,32,31,32z"/>
	<path fill="#010101" d="M31,36h12c0.552,0,1-0.448,1-1s-0.448-1-1-1H31c-0.552,0-1,0.448-1,1S30.448,36,31,36z"/>
	<path fill="#010101" d="M31,40h12c0.552,0,1-0.448,1-1s-0.448-1-1-1H31c-0.552,0-1,0.448-1,1S30.448,40,31,40z"/>
	<path fill="#010101" d="M31,44h12c0.552,0,1-0.448,1-1s-0.448-1-1-1H31c-0.552,0-1,0.448-1,1S30.448,44,31,44z"/>
	<path fill="#010101" d="M47,22H27c-0.552,0-1,0.448-1,1v24c0,0.552,0.448,1,1,1h20c0.552,0,1-0.448,1-1V23
		C48,22.448,47.552,22,47,22z M46,46H28V24h18V46z"/>
</g>
</svg>
