<?xml version="1.0" encoding="utf-8"?>
<!-- Generator: Adobe Illustrator 17.0.0, SVG Export Plug-In . SVG Version: 6.00 Build 0)  -->
<!DOCTYPE svg PUBLIC "-//W3C//DTD SVG 1.1//EN" "http://www.w3.org/Graphics/SVG/1.1/DTD/svg11.dtd">
<svg version="1.1" id="Layer_1" xmlns="http://www.w3.org/2000/svg" xmlns:xlink="http://www.w3.org/1999/xlink" x="0px" y="0px"
	 width="48px" height="48px" viewBox="0 0 48 48" enable-background="new 0 0 48 48" xml:space="preserve">
<g>
	<path fill="#010101" d="M47,30h-5V5c0-0.552-0.447-1-1-1H19c-0.553,0-1,0.448-1,1v3H7C6.447,8,6,8.448,6,9v21H1
		c-0.553,0-1,0.448-1,1v16c0,0.552,0.447,1,1,1h46c0.553,0,1-0.448,1-1V31C48,30.448,47.553,30,47,30z M20,6h20v24h-7
		c-0.553,0-1,0.448-1,1v3H20V6z M8,10h10v24h-2v-3c0-0.552-0.447-1-1-1H8V10z M46,46H2V32h12v3c0,0.552,0.447,1,1,1h18
		c0.553,0,1-0.448,1-1v-3h12V46z"/>
	<path fill="#010101" d="M27,12h10c0.553,0,1-0.448,1-1s-0.447-1-1-1H27c-0.553,0-1,0.448-1,1S26.447,12,27,12z"/>
	<path fill="#010101" d="M23,16h14c0.553,0,1-0.448,1-1s-0.447-1-1-1H23c-0.553,0-1,0.448-1,1S22.447,16,23,16z"/>
	<path fill="#010101" d="M23,20h14c0.553,0,1-0.448,1-1s-0.447-1-1-1H23c-0.553,0-1,0.448-1,1S22.447,20,23,20z"/>
	<path fill="#010101" d="M23,24h14c0.553,0,1-0.448,1-1s-0.447-1-1-1H23c-0.553,0-1,0.448-1,1S22.447,24,23,24z"/>
	<path fill="#010101" d="M23,28h14c0.553,0,1-0.448,1-1s-0.447-1-1-1H23c-0.553,0-1,0.448-1,1S22.447,28,23,28z"/>
</g>
</svg>
