<?xml version="1.0" encoding="utf-8"?>
<!-- Generator: Adobe Illustrator 17.0.0, SVG Export Plug-In . SVG Version: 6.00 Build 0)  -->
<!DOCTYPE svg PUBLIC "-//W3C//DTD SVG 1.1//EN" "http://www.w3.org/Graphics/SVG/1.1/DTD/svg11.dtd">
<svg version="1.1" id="Layer_1" xmlns="http://www.w3.org/2000/svg" xmlns:xlink="http://www.w3.org/1999/xlink" x="0px" y="0px"
	 width="48px" height="48px" viewBox="0 0 48 48" enable-background="new 0 0 48 48" xml:space="preserve">
<g>
	<path fill="#010101" d="M9,22h30c0.553,0,1-0.448,1-1V9c0-0.552-0.447-1-1-1H9C8.447,8,8,8.448,8,9v12C8,21.552,8.447,22,9,22z
		 M10,10h28v10H10V10z"/>
	<path fill="#010101" d="M9,40h30c0.553,0,1-0.448,1-1V27c0-0.552-0.447-1-1-1H9c-0.553,0-1,0.448-1,1v12C8,39.552,8.447,40,9,40z
		 M10,28h28v10H10V28z"/>
	<path fill="#010101" d="M28,14h-6c-0.553,0-1,0.448-1,1s0.447,1,1,1h6c0.553,0,1-0.448,1-1S28.553,14,28,14z"/>
	<path fill="#010101" d="M28,32h-6c-0.553,0-1,0.448-1,1s0.447,1,1,1h6c0.553,0,1-0.448,1-1S28.553,32,28,32z"/>
	<path fill="#010101" d="M47,2H1C0.447,2,0,2.448,0,3s0.447,1,1,1h1v36.999c0,2.757,2.243,5,5,5h4V47c0,0.552,0.447,1,1,1
		s1-0.448,1-1v-1.001h24V47c0,0.552,0.447,1,1,1s1-0.448,1-1v-1.001h2c2.757,0,5-2.243,5-5V4h1c0.553,0,1-0.448,1-1S47.553,2,47,2z
		 M44,40.999c0,1.654-1.346,3-3,3H7c-1.654,0-3-1.346-3-3V4h40V40.999z"/>
</g>
</svg>
