<?xml version="1.0" encoding="utf-8"?>
<!-- Generator: Adobe Illustrator 17.0.0, SVG Export Plug-In . SVG Version: 6.00 Build 0)  -->
<!DOCTYPE svg PUBLIC "-//W3C//DTD SVG 1.1//EN" "http://www.w3.org/Graphics/SVG/1.1/DTD/svg11.dtd">
<svg version="1.1" id="Layer_1" xmlns="http://www.w3.org/2000/svg" xmlns:xlink="http://www.w3.org/1999/xlink" x="0px" y="0px"
	 width="48px" height="48px" viewBox="0 0 48 48" enable-background="new 0 0 48 48" xml:space="preserve">
<g>
	<path fill="#010101" d="M38,0H12C8.691,0,6,2.691,6,6v36c0,3.309,2.691,6,6,6h26c3.309,0,6-2.691,6-6V6C44,2.691,41.309,0,38,0z
		 M8,6c0-2.206,1.794-4,4-4h26c2.206,0,4,1.794,4,4v8H8V6z M8,16h34v14H8V16z M38,46H12c-2.206,0-4-1.794-4-4V32h34v10
		C42,44.206,40.206,46,38,46z"/>
	<path fill="#010101" d="M31,6H20c-0.347,0-0.668,0.18-0.851,0.474c-0.183,0.295-0.199,0.663-0.044,0.973l2,4
		C21.275,11.786,21.621,12,22,12h7c0.379,0,0.725-0.214,0.895-0.553l2-4c0.155-0.31,0.139-0.678-0.044-0.973
		C31.668,6.18,31.347,6,31,6z M28.382,10h-5.764l-1-2h7.764L28.382,10z"/>
	<path fill="#010101" d="M31.851,20.474C31.668,20.18,31.347,20,31,20H20c-0.347,0-0.668,0.18-0.851,0.474
		c-0.183,0.295-0.199,0.663-0.044,0.973l2,4C21.275,25.786,21.621,26,22,26h7c0.379,0,0.725-0.214,0.895-0.553l2-4
		C32.05,21.137,32.034,20.769,31.851,20.474z M28.382,24h-5.764l-1-2h7.764L28.382,24z"/>
	<path fill="#010101" d="M31,38H20c-0.347,0-0.668,0.18-0.851,0.474c-0.183,0.295-0.199,0.663-0.044,0.973l2,4
		C21.275,43.786,21.621,44,22,44h7c0.379,0,0.725-0.214,0.895-0.553l2-4c0.155-0.31,0.139-0.678-0.044-0.973
		C31.668,38.18,31.347,38,31,38z M28.382,42h-5.764l-1-2h7.764L28.382,42z"/>
</g>
</svg>
