<?xml version="1.0" encoding="utf-8"?>
<!-- Generator: Adobe Illustrator 17.0.0, SVG Export Plug-In . SVG Version: 6.00 Build 0)  -->
<!DOCTYPE svg PUBLIC "-//W3C//DTD SVG 1.1//EN" "http://www.w3.org/Graphics/SVG/1.1/DTD/svg11.dtd">
<svg version="1.1" id="Layer_1" xmlns="http://www.w3.org/2000/svg" xmlns:xlink="http://www.w3.org/1999/xlink" x="0px" y="0px"
	 width="48px" height="48px" viewBox="0 0 48 48" enable-background="new 0 0 48 48" xml:space="preserve">
<path fill="#010101" d="M44.019,47c0-0.03-0.016-0.055-0.019-0.085V0h-1h-1H8H7H6v48h1h1h34h1c0.007,0,0.013,0,0.02,0H44v-0.905
	C44.003,47.062,44.019,47.034,44.019,47z M40.81,2l-4.657,5.371C35.723,7.903,35.029,8,33.819,8H16.182
	c-1.211,0-1.904-0.097-2.356-0.655L9.191,2H40.81z M8,3.679l4.293,4.95C13.402,10,15.075,10,16.182,10H24v30H12
	c-0.297,0-0.578,0.132-0.768,0.36L8,44.238V3.679z M9.135,46l3.333-4h25.063l3.333,4H9.135z M38.768,40.36
	C38.578,40.132,38.297,40,38,40H26V10h7.818c1.107,0,2.78,0,3.868-1.345L42,3.68v40.558L38.768,40.36z"/>
</svg>
