<?xml version="1.0" encoding="utf-8"?>
<!-- Generator: Adobe Illustrator 17.0.0, SVG Export Plug-In . SVG Version: 6.00 Build 0)  -->
<!DOCTYPE svg PUBLIC "-//W3C//DTD SVG 1.1//EN" "http://www.w3.org/Graphics/SVG/1.1/DTD/svg11.dtd">
<svg version="1.1" id="Layer_1" xmlns="http://www.w3.org/2000/svg" xmlns:xlink="http://www.w3.org/1999/xlink" x="0px" y="0px"
	 width="48px" height="48px" viewBox="0 0 48 48" enable-background="new 0 0 48 48" xml:space="preserve">
<g>
	<path fill="#010101" d="M11,4H5C4.447,4,4,4.448,4,5v24c0,0.552,0.447,1,1,1h6c0.553,0,1-0.448,1-1V5C12,4.448,11.553,4,11,4z
		 M10,6v4H6V6H10z M6,28V12h4v16H6z"/>
	<path fill="#010101" d="M27,4h-6c-0.553,0-1,0.448-1,1v24c0,0.552,0.447,1,1,1h6c0.553,0,1-0.448,1-1V5C28,4.448,27.553,4,27,4z
		 M26,6v4h-4V6H26z M22,28V12h4v16H22z"/>
	<path fill="#010101" d="M47,0H32H16H1C0.447,0,0,0.448,0,1v46c0,0.552,0.447,1,1,1h15h16h15c0.553,0,1-0.448,1-1V1
		C48,0.448,47.553,0,47,0z M2,2h13v44H2V2z M17,2h14v44H17V2z M46,46H33V2h13V46z"/>
	<path fill="#010101" d="M37,30h6c0.553,0,1-0.448,1-1V5c0-0.552-0.447-1-1-1h-6c-0.553,0-1,0.448-1,1v24C36,29.552,36.447,30,37,30
		z M38,28V12h4v16H38z M42,6v4h-4V6H42z"/>
	<path fill="#010101" d="M8,34c-2.206,0-4,1.794-4,4s1.794,4,4,4s4-1.794,4-4S10.206,34,8,34z M8,40c-1.103,0-2-0.897-2-2
		s0.897-2,2-2c1.102,0,2,0.897,2,2S9.102,40,8,40z"/>
	<path fill="#010101" d="M24,34c-2.206,0-4,1.794-4,4s1.794,4,4,4s4-1.794,4-4S26.206,34,24,34z M24,40c-1.103,0-2-0.897-2-2
		s0.897-2,2-2c1.102,0,2,0.897,2,2S25.102,40,24,40z"/>
	<path fill="#010101" d="M40,42c2.206,0,4-1.794,4-4s-1.794-4-4-4s-4,1.794-4,4S37.794,42,40,42z M40,36c1.102,0,2,0.897,2,2
		s-0.898,2-2,2c-1.103,0-2-0.897-2-2S38.897,36,40,36z"/>
</g>
</svg>
