<?xml version="1.0" encoding="utf-8"?>
<!-- Generator: Adobe Illustrator 17.0.0, SVG Export Plug-In . SVG Version: 6.00 Build 0)  -->
<!DOCTYPE svg PUBLIC "-//W3C//DTD SVG 1.1//EN" "http://www.w3.org/Graphics/SVG/1.1/DTD/svg11.dtd">
<svg version="1.1" id="Layer_1" xmlns="http://www.w3.org/2000/svg" xmlns:xlink="http://www.w3.org/1999/xlink" x="0px" y="0px"
	 width="48px" height="48px" viewBox="0 0 48 48" enable-background="new 0 0 48 48" xml:space="preserve">
<path fill="#010101" d="M48,1c0-0.552-0.448-1-1-1H1C0.448,0,0,0.448,0,1v46c0,0.552,0.448,1,1,1h32
	c0.134,0,0.264-0.027,0.385-0.078c0.121-0.051,0.23-0.124,0.322-0.215l14-14c0.091-0.091,0.165-0.201,0.215-0.322
	C47.973,33.264,48,33.133,48,33V1z M2,2h44v30H33c-0.552,0-1,0.448-1,1v13H2V2z M44.586,34L34,44.586V34H44.586z"/>
</svg>
