<?xml version="1.0" encoding="utf-8"?>
<!-- Generator: Adobe Illustrator 17.0.0, SVG Export Plug-In . SVG Version: 6.00 Build 0)  -->
<!DOCTYPE svg PUBLIC "-//W3C//DTD SVG 1.1//EN" "http://www.w3.org/Graphics/SVG/1.1/DTD/svg11.dtd">
<svg version="1.1" id="Layer_1" xmlns="http://www.w3.org/2000/svg" xmlns:xlink="http://www.w3.org/1999/xlink" x="0px" y="0px"
	 width="48px" height="48px" viewBox="0 0 48 48" enable-background="new 0 0 48 48" xml:space="preserve">
<path fill="#010101" d="M47.905,0.574C47.74,0.224,47.387,0,47,0H1C0.613,0,0.26,0.224,0.095,0.574
	C-0.07,0.925-0.018,1.339,0.229,1.637L20,25.542V47c0,0.404,0.244,0.769,0.617,0.924C20.741,47.975,20.871,48,21,48
	c0.26,0,0.516-0.102,0.707-0.293l6-6C27.894,41.52,28,41.265,28,41V25.542L47.771,1.637C48.018,1.339,48.07,0.925,47.905,0.574z
	 M26.229,24.545C26.081,24.724,26,24.95,26,25.182v15.403l-4,4V25.181c0-0.232-0.082-0.458-0.23-0.637L3.125,2h41.75L26.229,24.545z
	"/>
</svg>
