<?xml version="1.0" encoding="utf-8"?>
<!-- Generator: Adobe Illustrator 17.0.0, SVG Export Plug-In . SVG Version: 6.00 Build 0)  -->
<!DOCTYPE svg PUBLIC "-//W3C//DTD SVG 1.1//EN" "http://www.w3.org/Graphics/SVG/1.1/DTD/svg11.dtd">
<svg version="1.1" id="Layer_1" xmlns="http://www.w3.org/2000/svg" xmlns:xlink="http://www.w3.org/1999/xlink" x="0px" y="0px"
	 width="48px" height="48px" viewBox="0 0 48 48" enable-background="new 0 0 48 48" xml:space="preserve">
<g>
	<path fill="#010101" d="M47,2H17c-0.552,0-1,0.448-1,1v10c0,0.552,0.448,1,1,1h30c0.552,0,1-0.448,1-1V3C48,2.448,47.552,2,47,2z
		 M46,12H18V4h28V12z"/>
	<path fill="#010101" d="M47,18H17c-0.552,0-1,0.448-1,1v10c0,0.552,0.448,1,1,1h30c0.552,0,1-0.448,1-1V19
		C48,18.448,47.552,18,47,18z M46,28H18v-8h28V28z"/>
	<path fill="#010101" d="M47,34H17c-0.552,0-1,0.448-1,1v10c0,0.552,0.448,1,1,1h30c0.552,0,1-0.448,1-1V35
		C48,34.448,47.552,34,47,34z M46,44H18v-8h28V44z"/>
	<path fill="#010101" d="M11,2H1C0.448,2,0,2.448,0,3v10c0,0.552,0.448,1,1,1h10c0.552,0,1-0.448,1-1V3C12,2.448,11.552,2,11,2z
		 M10,12H2V4h8V12z"/>
	<path fill="#010101" d="M11,18H1c-0.552,0-1,0.448-1,1v10c0,0.552,0.448,1,1,1h10c0.552,0,1-0.448,1-1V19
		C12,18.448,11.552,18,11,18z M10,28H2v-8h8V28z"/>
	<path fill="#010101" d="M11,34H1c-0.552,0-1,0.448-1,1v10c0,0.552,0.448,1,1,1h10c0.552,0,1-0.448,1-1V35
		C12,34.448,11.552,34,11,34z M10,44H2v-8h8V44z"/>
</g>
</svg>
