<?xml version="1.0" encoding="utf-8"?>
<!-- Generator: Adobe Illustrator 17.0.0, SVG Export Plug-In . SVG Version: 6.00 Build 0)  -->
<!DOCTYPE svg PUBLIC "-//W3C//DTD SVG 1.1//EN" "http://www.w3.org/Graphics/SVG/1.1/DTD/svg11.dtd">
<svg version="1.1" id="Layer_1" xmlns="http://www.w3.org/2000/svg" xmlns:xlink="http://www.w3.org/1999/xlink" x="0px" y="0px"
	 width="48px" height="48px" viewBox="0 0 48 48" enable-background="new 0 0 48 48" xml:space="preserve">
<g>
	<path fill="#010101" d="M47,6H1C0.447,6,0,6.448,0,7v36c0,0.552,0.447,1,1,1h46c0.553,0,1-0.448,1-1V7C48,6.448,47.553,6,47,6z
		 M46,42H2V8h44V42z"/>
	<path fill="#010101" d="M5,20h38c0.553,0,1-0.448,1-1v-6c0-0.552-0.447-1-1-1H5c-0.553,0-1,0.448-1,1v6C4,19.552,4.447,20,5,20z
		 M6,14h36v4H6V14z"/>
	<path fill="#010101" d="M21,24H9c-0.553,0-1,0.448-1,1s0.447,1,1,1h12c0.553,0,1-0.448,1-1S21.553,24,21,24z"/>
	<path fill="#010101" d="M21,28H7c-0.553,0-1,0.448-1,1s0.447,1,1,1h14c0.553,0,1-0.448,1-1S21.553,28,21,28z"/>
	<path fill="#010101" d="M21,32H7c-0.553,0-1,0.448-1,1s0.447,1,1,1h14c0.553,0,1-0.448,1-1S21.553,32,21,32z"/>
	<path fill="#010101" d="M21,36H7c-0.553,0-1,0.448-1,1s0.447,1,1,1h14c0.553,0,1-0.448,1-1S21.553,36,21,36z"/>
	<path fill="#010101" d="M41,24H27c-0.553,0-1,0.448-1,1s0.447,1,1,1h14c0.553,0,1-0.448,1-1S41.553,24,41,24z"/>
	<path fill="#010101" d="M41,28H27c-0.553,0-1,0.448-1,1s0.447,1,1,1h14c0.553,0,1-0.448,1-1S41.553,28,41,28z"/>
	<path fill="#010101" d="M41,32H27c-0.553,0-1,0.448-1,1s0.447,1,1,1h14c0.553,0,1-0.448,1-1S41.553,32,41,32z"/>
	<path fill="#010101" d="M39,36H27c-0.553,0-1,0.448-1,1s0.447,1,1,1h12c0.553,0,1-0.448,1-1S39.553,36,39,36z"/>
</g>
</svg>
