<?xml version="1.0" encoding="utf-8"?>
<!-- Generator: Adobe Illustrator 17.0.0, SVG Export Plug-In . SVG Version: 6.00 Build 0)  -->
<!DOCTYPE svg PUBLIC "-//W3C//DTD SVG 1.1//EN" "http://www.w3.org/Graphics/SVG/1.1/DTD/svg11.dtd">
<svg version="1.1" id="Layer_1" xmlns="http://www.w3.org/2000/svg" xmlns:xlink="http://www.w3.org/1999/xlink" x="0px" y="0px"
	 width="48px" height="48px" viewBox="0 0 48 48" enable-background="new 0 0 48 48" xml:space="preserve">
<path fill="#010101" d="M43.461,1.154c-0.331-0.172-0.728-0.147-1.034,0.067c-3.535,2.468-6.45,3.569-9.453,3.569
	c-3.634,0-6.977-1.606-9.172-4.407c-0.018-0.024-0.049-0.032-0.07-0.053c-0.065-0.072-0.145-0.124-0.229-0.174
	c-0.025-0.013-0.043-0.036-0.07-0.047C23.301,0.044,23.158,0,23,0c-0.157,0-0.301,0.043-0.433,0.108
	c-0.035,0.015-0.06,0.044-0.093,0.063c-0.073,0.046-0.145,0.091-0.203,0.155c-0.023,0.023-0.056,0.032-0.076,0.058
	C20,3.184,16.657,4.79,13.025,4.79c-3.005,0-5.92-1.1-9.452-3.569C3.267,1.007,2.869,0.982,2.538,1.154C2.207,1.327,2,1.669,2,2.041
	v29.624c0,0.09,0.012,0.179,0.036,0.265C2.16,32.383,5.287,43.074,22.73,47.962c0.083,0.024,0.169,0.034,0.255,0.035
	C22.99,47.997,22.995,48,23,48s0.01-0.003,0.015-0.003c0.086-0.001,0.172-0.011,0.255-0.035
	c17.443-4.889,20.57-15.579,20.694-16.032C43.988,31.844,44,31.755,44,31.665V2.041C44,1.669,43.793,1.327,43.461,1.154z
	 M32.975,6.791c2.964,0,5.803-0.901,9.025-2.893V22H24V3.481C26.449,5.608,29.606,6.791,32.975,6.791z M4,3.898
	c3.22,1.991,6.059,2.893,9.025,2.893c3.369,0,6.526-1.184,8.975-3.312V22H4V3.898z M4,31.511V24h18v21.657
	C7.731,41.222,4.367,32.589,4,31.511z M42,31.514c-0.364,1.088-3.663,9.693-18,14.143V24h18V31.514z"/>
</svg>
