<?xml version="1.0" encoding="utf-8"?>
<!-- Generator: Adobe Illustrator 17.0.0, SVG Export Plug-In . SVG Version: 6.00 Build 0)  -->
<!DOCTYPE svg PUBLIC "-//W3C//DTD SVG 1.1//EN" "http://www.w3.org/Graphics/SVG/1.1/DTD/svg11.dtd">
<svg version="1.1" id="Layer_1" xmlns="http://www.w3.org/2000/svg" xmlns:xlink="http://www.w3.org/1999/xlink" x="0px" y="0px"
	 width="48px" height="48px" viewBox="0 0 48 48" enable-background="new 0 0 48 48" xml:space="preserve">
<g>
	<path fill="#010101" d="M43.462,1.155c-0.33-0.172-0.729-0.147-1.034,0.067c-3.534,2.468-6.45,3.569-9.453,3.569
		c-3.574,0-6.92-1.61-9.18-4.418c-0.381-0.471-1.213-0.472-1.592,0.001c-2.258,2.807-5.603,4.417-9.178,4.417
		c-3.005,0-5.921-1.101-9.452-3.569C3.265,1.008,2.869,0.983,2.538,1.155C2.207,1.328,2,1.669,2,2.042v29.624
		c0,0.09,0.012,0.179,0.036,0.265C2.16,32.384,5.287,43.075,22.73,47.963C22.818,47.988,22.909,48,23,48s0.182-0.012,0.27-0.037
		c17.443-4.888,20.57-15.579,20.694-16.032C43.988,31.845,44,31.756,44,31.666V2.042C44,1.669,43.793,1.328,43.462,1.155z
		 M42,31.515c-0.372,1.113-3.809,10.095-19,14.446C7.881,41.629,4.376,32.615,4,31.512V3.899c3.22,1.991,6.059,2.892,9.025,2.892
		c3.798,0,7.372-1.551,9.974-4.292c2.604,2.741,6.179,4.292,9.976,4.292c2.964,0,5.804-0.902,9.025-2.893V31.515z"/>
	<path fill="#010101" d="M28,12c0-0.552-0.447-1-1-1h-8c-0.553,0-1,0.448-1,1v5h-5c-0.553,0-1,0.448-1,1v8c0,0.552,0.447,1,1,1h5v5
		c0,0.552,0.447,1,1,1h8c0.553,0,1-0.448,1-1v-5h5c0.553,0,1-0.448,1-1v-8c0-0.552-0.447-1-1-1h-5V12z M32,19v6h-5
		c-0.553,0-1,0.448-1,1v5h-6v-5c0-0.552-0.447-1-1-1h-5v-6h5c0.553,0,1-0.448,1-1v-5h6v5c0,0.552,0.447,1,1,1H32z"/>
</g>
</svg>
