<?xml version="1.0" encoding="utf-8"?>
<!-- Generator: Adobe Illustrator 17.1.0, SVG Export Plug-In . SVG Version: 6.00 Build 0)  -->
<!DOCTYPE svg PUBLIC "-//W3C//DTD SVG 1.0//EN" "http://www.w3.org/TR/2001/REC-SVG-20010904/DTD/svg10.dtd">
<svg version="1.0" id="Layer_1" xmlns="http://www.w3.org/2000/svg" xmlns:xlink="http://www.w3.org/1999/xlink" x="0px" y="0px"
	 width="48px" height="48px" viewBox="0 0 48 48" enable-background="new 0 0 48 48" xml:space="preserve">
<path d="M44.462,1.155c-0.33-0.172-0.729-0.147-1.034,0.067c-3.534,2.468-6.45,3.569-9.453,3.569c-3.574,0-6.92-1.61-9.18-4.418
	c-0.018-0.022-0.048-0.03-0.068-0.05c-0.065-0.07-0.144-0.12-0.227-0.169c-0.026-0.014-0.044-0.036-0.071-0.048
	C24.299,0.043,24.156,0,24,0c-0.155,0-0.298,0.042-0.429,0.105c-0.035,0.014-0.059,0.044-0.092,0.062
	c-0.073,0.046-0.146,0.09-0.204,0.152c-0.021,0.021-0.052,0.029-0.072,0.053c-2.26,2.808-5.605,4.418-9.178,4.418
	c-3.005,0-5.921-1.101-9.452-3.569C4.266,1.008,3.868,0.983,3.538,1.155C3.207,1.328,3,1.669,3,2.042v29.624
	c0,0.09,0.012,0.179,0.036,0.265c0.124,0.453,3.251,11.143,20.694,16.032C23.818,47.988,23.909,48,24,48
	c0.091,0,0.182-0.012,0.269-0.037c17.443-4.888,20.57-15.579,20.694-16.032C44.988,31.845,45,31.756,45,31.666V2.042
	C45,1.669,44.793,1.328,44.462,1.155z M33.975,6.791c2.965,0,5.805-0.901,9.025-2.893V22H25V3.452
	C27.483,5.596,30.643,6.791,33.975,6.791z M38,38.559c-0.856,0.791-1.849,1.597-3,2.39V24h3V38.559z M25,24h3v20.612
	c-0.94,0.369-1.943,0.717-3,1.045V24z M30,24h3v18.211c-0.917,0.533-1.915,1.053-3,1.55V24z M23,3.45V22h-3V5.407
	C21.073,4.887,22.086,4.24,23,3.45z M13,22h-3V6.201c1.005,0.293,1.999,0.479,3,0.55V22z M15,6.741c1.026-0.072,2.032-0.25,3-0.543
	V22h-3V6.741z M8,5.475V22H5V3.899C6.035,4.539,7.027,5.054,8,5.475z M5,31.512V24h18v21.657C8.731,41.223,5.367,32.59,5,31.512z
	 M40,36.475V24h3v7.514C42.837,32.003,42.081,34.01,40,36.475z"/>
</svg>
