<?xml version="1.0" encoding="utf-8"?>
<!-- Generator: Adobe Illustrator 17.0.0, SVG Export Plug-In . SVG Version: 6.00 Build 0)  -->
<!DOCTYPE svg PUBLIC "-//W3C//DTD SVG 1.1//EN" "http://www.w3.org/Graphics/SVG/1.1/DTD/svg11.dtd">
<svg version="1.1" id="Layer_1" xmlns="http://www.w3.org/2000/svg" xmlns:xlink="http://www.w3.org/1999/xlink" x="0px" y="0px"
	 width="48px" height="48px" viewBox="0 0 48 48" enable-background="new 0 0 48 48" xml:space="preserve">
<g>
	<path fill="#231F20" d="M11,12c0.552,0,1-0.448,1-1V1c0-0.552-0.448-1-1-1s-1,0.448-1,1v10C10,11.552,10.448,12,11,12z"/>
	<path fill="#231F20" d="M24,12c0.552,0,1-0.448,1-1V1c0-0.552-0.448-1-1-1s-1,0.448-1,1v10C23,11.552,23.448,12,24,12z"/>
	<path fill="#231F20" d="M37,12c0.552,0,1-0.448,1-1V1c0-0.552-0.448-1-1-1s-1,0.448-1,1v10C36,11.552,36.448,12,37,12z"/>
	<path fill="#231F20" d="M47,4h-6c-0.552,0-1,0.448-1,1s0.448,1,1,1h5v40H2V6h5c0.552,0,1-0.448,1-1S7.552,4,7,4H1
		C0.448,4,0,4.448,0,5v42c0,0.552,0.448,1,1,1h46c0.552,0,1-0.448,1-1V5C48,4.448,47.552,4,47,4z"/>
	<path fill="#231F20" d="M8,9c0-0.552-0.448-1-1-1S6,8.448,6,9v32c0,0.552,0.448,1,1,1h34c0.552,0,1-0.448,1-1V9
		c0-0.552-0.448-1-1-1s-1,0.448-1,1v31H8V9z"/>
	<path fill="#231F20" d="M15,6h5c0.552,0,1-0.448,1-1s-0.448-1-1-1h-5c-0.552,0-1,0.448-1,1S14.448,6,15,6z"/>
	<path fill="#231F20" d="M28,6h5c0.552,0,1-0.448,1-1s-0.448-1-1-1h-5c-0.552,0-1,0.448-1,1S27.448,6,28,6z"/>
</g>
</svg>
