<?xml version="1.0" encoding="utf-8"?>
<!-- Generator: Adobe Illustrator 17.0.0, SVG Export Plug-In . SVG Version: 6.00 Build 0)  -->
<!DOCTYPE svg PUBLIC "-//W3C//DTD SVG 1.1//EN" "http://www.w3.org/Graphics/SVG/1.1/DTD/svg11.dtd">
<svg version="1.1" id="Layer_1" xmlns="http://www.w3.org/2000/svg" xmlns:xlink="http://www.w3.org/1999/xlink" x="0px" y="0px"
	 width="48px" height="48px" viewBox="0 0 48 48" enable-background="new 0 0 48 48" xml:space="preserve">
<g>
	<path fill="#010101" d="M21,0H1C0.448,0,0,0.448,0,1v20c0,0.552,0.448,1,1,1h20c0.552,0,1-0.448,1-1V1C22,0.448,21.552,0,21,0z
		 M20,20H2V2h18V20z"/>
	<path fill="#010101" d="M47,0H27c-0.552,0-1,0.448-1,1v20c0,0.552,0.448,1,1,1h20c0.552,0,1-0.448,1-1V1C48,0.448,47.552,0,47,0z
		 M46,20H28V2h18V20z"/>
	<path fill="#010101" d="M21,26H1c-0.552,0-1,0.448-1,1v20c0,0.552,0.448,1,1,1h20c0.552,0,1-0.448,1-1V27
		C22,26.448,21.552,26,21,26z M20,46H2V28h18V46z"/>
	<path fill="#010101" d="M47,26H27c-0.552,0-1,0.448-1,1v20c0,0.552,0.448,1,1,1h20c0.552,0,1-0.448,1-1V27
		C48,26.448,47.552,26,47,26z M46,46H28V28h18V46z"/>
</g>
</svg>
