<?xml version="1.0" encoding="utf-8"?>
<!-- Generator: Adobe Illustrator 17.0.0, SVG Export Plug-In . SVG Version: 6.00 Build 0)  -->
<!DOCTYPE svg PUBLIC "-//W3C//DTD SVG 1.1//EN" "http://www.w3.org/Graphics/SVG/1.1/DTD/svg11.dtd">
<svg version="1.1" id="Layer_1" xmlns="http://www.w3.org/2000/svg" xmlns:xlink="http://www.w3.org/1999/xlink" x="0px" y="0px"
	 width="48px" height="48px" viewBox="0 0 48 48" enable-background="new 0 0 48 48" xml:space="preserve">
<g>
	<path fill="#010101" d="M29,2H17c-0.552,0-1,0.448-1,1v12c0,0.552,0.448,1,1,1h12c0.552,0,1-0.448,1-1V3C30,2.448,29.552,2,29,2z
		 M28,14H18V4h10V14z"/>
	<path fill="#010101" d="M13,2H1C0.448,2,0,2.448,0,3v12c0,0.552,0.448,1,1,1h12c0.552,0,1-0.448,1-1V3C14,2.448,13.552,2,13,2z
		 M12,14H2V4h10V14z"/>
	<path fill="#010101" d="M45,2H33c-0.552,0-1,0.448-1,1v12c0,0.552,0.448,1,1,1h12c0.552,0,1-0.448,1-1V3C46,2.448,45.552,2,45,2z
		 M44,14H34V4h10V14z"/>
	<path fill="#010101" d="M29,18H17c-0.552,0-1,0.448-1,1v12c0,0.552,0.448,1,1,1h12c0.552,0,1-0.448,1-1V19
		C30,18.448,29.552,18,29,18z M28,30H18V20h10V30z"/>
	<path fill="#010101" d="M13,18H1c-0.552,0-1,0.448-1,1v12c0,0.552,0.448,1,1,1h12c0.552,0,1-0.448,1-1V19
		C14,18.448,13.552,18,13,18z M12,30H2V20h10V30z"/>
	<path fill="#010101" d="M45,18H33c-0.552,0-1,0.448-1,1v12c0,0.552,0.448,1,1,1h12c0.552,0,1-0.448,1-1V19
		C46,18.448,45.552,18,45,18z M44,30H34V20h10V30z"/>
	<path fill="#010101" d="M29,34H17c-0.552,0-1,0.448-1,1v12c0,0.552,0.448,1,1,1h12c0.552,0,1-0.448,1-1V35
		C30,34.448,29.552,34,29,34z M28,46H18V36h10V46z"/>
	<path fill="#010101" d="M13,34H1c-0.552,0-1,0.448-1,1v12c0,0.552,0.448,1,1,1h12c0.552,0,1-0.448,1-1V35
		C14,34.448,13.552,34,13,34z M12,46H2V36h10V46z"/>
	<path fill="#010101" d="M45,34H33c-0.552,0-1,0.448-1,1v12c0,0.552,0.448,1,1,1h12c0.552,0,1-0.448,1-1V35
		C46,34.448,45.552,34,45,34z M44,46H34V36h10V46z"/>
</g>
</svg>
