<?xml version="1.0" encoding="utf-8"?>
<!-- Generator: Adobe Illustrator 17.0.0, SVG Export Plug-In . SVG Version: 6.00 Build 0)  -->
<!DOCTYPE svg PUBLIC "-//W3C//DTD SVG 1.1//EN" "http://www.w3.org/Graphics/SVG/1.1/DTD/svg11.dtd">
<svg version="1.1" id="Layer_2" xmlns="http://www.w3.org/2000/svg" xmlns:xlink="http://www.w3.org/1999/xlink" x="0px" y="0px"
	 width="48px" height="48px" viewBox="0 0 48 48" enable-background="new 0 0 48 48" xml:space="preserve">
<g>
	<path fill="#010101" d="M40.677,3.322c-0.781-0.781-2.048-0.781-2.828,0c-0.781,0.781-0.781,2.047,0,2.828
		C41.815,10.117,44,15.39,44,21c0,5.609-2.185,10.883-6.151,14.85c-0.781,0.781-0.781,2.047,0,2.828
		c0.39,0.391,0.902,0.586,1.414,0.586s1.024-0.195,1.414-0.586C45.399,33.957,48,27.678,48,21C48,14.322,45.399,8.044,40.677,3.322z
		"/>
	<path fill="#010101" d="M35.02,8.979c-0.781-0.78-2.047-0.781-2.829,0.001c-0.781,0.781-0.781,2.047,0,2.829
		C34.647,14.263,36,17.528,36,21c0,3.472-1.353,6.736-3.808,9.192c-0.781,0.781-0.781,2.047,0,2.828
		c0.39,0.391,0.902,0.586,1.414,0.586c0.512,0,1.024-0.195,1.414-0.586C38.231,29.81,40,25.541,40,21
		C40,16.459,38.231,12.19,35.02,8.979z"/>
	<path fill="#010101" d="M4,21c0-5.61,2.185-10.883,6.151-14.85c0.781-0.781,0.781-2.047,0-2.828c-0.78-0.781-2.047-0.781-2.828,0
		C2.601,8.044,0,14.322,0,21c0,6.678,2.601,12.957,7.323,17.678c0.39,0.391,0.902,0.586,1.414,0.586
		c0.512,0,1.024-0.195,1.414-0.586c0.781-0.781,0.781-2.047,0-2.828C6.185,31.883,4,26.609,4,21z"/>
	<path fill="#010101" d="M12,21c0-3.473,1.352-6.737,3.807-9.192c0.781-0.781,0.781-2.047,0-2.828c-0.78-0.781-2.048-0.781-2.828,0
		C9.768,12.19,8,16.459,8,21c0,4.541,1.768,8.81,4.978,12.021c0.391,0.391,0.903,0.586,1.415,0.586c0.512,0,1.023-0.195,1.414-0.585
		c0.781-0.781,0.781-2.047,0-2.829C13.352,27.737,12,24.472,12,21z"/>
	<path fill="#010101" d="M24,14c-3.86,0-7,3.14-7,7c0,3.165,2.112,5.842,5,6.705V43c0,1.105,0.895,2,2,2c1.104,0,2-0.895,2-2V27.705
		c2.888-0.863,5-3.541,5-6.705C31,17.14,27.86,14,24,14z"/>
</g>
</svg>
