<?xml version="1.0" encoding="utf-8"?>
<!-- Generator: Adobe Illustrator 17.0.0, SVG Export Plug-In . SVG Version: 6.00 Build 0)  -->
<!DOCTYPE svg PUBLIC "-//W3C//DTD SVG 1.1//EN" "http://www.w3.org/Graphics/SVG/1.1/DTD/svg11.dtd">
<svg version="1.1" id="Layer_2" xmlns="http://www.w3.org/2000/svg" xmlns:xlink="http://www.w3.org/1999/xlink" x="0px" y="0px"
	 width="48px" height="48px" viewBox="0 0 48 48" enable-background="new 0 0 48 48" xml:space="preserve">
<g>
	<circle fill="#010101" cx="24" cy="23.471" r="1.964"/>
	<path fill="#010101" d="M41.031,6.439c-0.586-0.586-1.536-0.586-2.121,0c-0.586,0.586-0.586,1.536,0,2.121
		c3.982,3.982,6.176,9.277,6.176,14.91c0,5.633-2.193,10.928-6.176,14.911c-0.586,0.585-0.586,1.536,0,2.121
		c0.293,0.293,0.677,0.439,1.06,0.439c0.384,0,0.768-0.146,1.061-0.439c4.549-4.549,7.055-10.598,7.055-17.032
		C48.086,17.037,45.581,10.988,41.031,6.439z"/>
	<path fill="#010101" d="M35.476,11.995c-0.586-0.586-1.536-0.586-2.121,0c-0.586,0.586-0.586,1.536,0,2.121
		c2.499,2.499,3.876,5.821,3.876,9.355c0,3.533-1.377,6.856-3.876,9.355c-0.586,0.585-0.586,1.536,0,2.121
		c0.293,0.293,0.677,0.44,1.061,0.44c0.384,0,0.768-0.146,1.061-0.44c3.066-3.066,4.754-7.142,4.754-11.476
		C40.23,19.135,38.541,15.06,35.476,11.995z"/>
	<path fill="#010101" d="M27.799,17.55c-0.585,0.586-0.585,1.536,0.001,2.121c1.015,1.015,1.574,2.364,1.574,3.8
		c0,1.436-0.559,2.785-1.574,3.799c-0.586,0.585-0.586,1.535-0.001,2.121c0.293,0.294,0.677,0.44,1.061,0.44
		c0.384,0,0.767-0.146,1.06-0.439c1.583-1.581,2.454-3.684,2.454-5.921c0-2.238-0.872-4.341-2.454-5.922
		C29.334,16.963,28.384,16.963,27.799,17.55z"/>
	<path fill="#010101" d="M3,23.471c0-5.633,2.193-10.928,6.176-14.91c0.586-0.586,0.586-1.536,0-2.122
		c-0.585-0.586-1.535-0.586-2.121,0C2.505,10.988,0,17.036,0,23.471c0,6.434,2.505,12.483,7.055,17.032
		c0.293,0.293,0.677,0.439,1.06,0.439c0.384,0,0.768-0.146,1.061-0.439c0.586-0.586,0.586-1.536,0-2.121
		C5.193,34.399,3,29.104,3,23.471z"/>
	<path fill="#010101" d="M14.644,11.995c-0.586-0.586-1.535-0.586-2.121,0C9.458,15.06,7.77,19.135,7.77,23.471
		c0,4.335,1.688,8.41,4.753,11.476c0.292,0.293,0.677,0.44,1.061,0.44c0.384,0,0.768-0.146,1.06-0.44
		c0.586-0.585,0.586-1.535,0-2.121c-2.498-2.499-3.874-5.821-3.874-9.355c0-3.534,1.376-6.856,3.874-9.355
		C15.23,13.53,15.23,12.58,14.644,11.995z"/>
	<path fill="#010101" d="M20.201,17.549c-0.586-0.586-1.536-0.586-2.122,0c-1.582,1.582-2.454,3.685-2.454,5.922
		c0,2.237,0.872,4.339,2.454,5.921c0.293,0.293,0.677,0.439,1.061,0.439c0.384,0,0.768-0.146,1.061-0.439
		c0.585-0.586,0.585-1.536-0.001-2.122c-1.016-1.015-1.575-2.364-1.575-3.799c0-1.435,0.559-2.785,1.575-3.8
		C20.787,19.085,20.787,18.135,20.201,17.549z"/>
</g>
</svg>
