<?xml version="1.0" encoding="utf-8"?>
<!-- Generator: Adobe Illustrator 17.0.0, SVG Export Plug-In . SVG Version: 6.00 Build 0)  -->
<!DOCTYPE svg PUBLIC "-//W3C//DTD SVG 1.1//EN" "http://www.w3.org/Graphics/SVG/1.1/DTD/svg11.dtd">
<svg version="1.1" id="Layer_2" xmlns="http://www.w3.org/2000/svg" xmlns:xlink="http://www.w3.org/1999/xlink" x="0px" y="0px"
	 width="48px" height="48px" viewBox="0 0 48 48" enable-background="new 0 0 48 48" xml:space="preserve">
<path fill="#010101" d="M39,30c-3.165,0-5.944,1.638-7.548,4.108l-14.008-7.005C17.813,26.108,18,25.068,18,24
	c0-1.068-0.187-2.108-0.557-3.103l14.008-7.005C33.056,16.362,35.835,18,39,18c4.971,0,9-4.029,9-9c0-4.971-4.029-9-9-9
	c-4.971,0-9,4.029-9,9c0,1.092,0.204,2.133,0.56,3.101l-14.026,7.013C14.884,16.56,12.086,15,9,15c-4.962,0-9,4.038-9,9
	c0,4.962,4.038,9,9,9c3.086,0,5.884-1.56,7.534-4.115l14.026,7.014C30.204,36.867,30,37.908,30,39c0,4.971,4.029,9,9,9
	c4.971,0,9-4.029,9-9C48,34.029,43.971,30,39,30z"/>
</svg>
