<?xml version="1.0" encoding="utf-8"?>
<!-- Generator: Adobe Illustrator 17.0.0, SVG Export Plug-In . SVG Version: 6.00 Build 0)  -->
<!DOCTYPE svg PUBLIC "-//W3C//DTD SVG 1.1//EN" "http://www.w3.org/Graphics/SVG/1.1/DTD/svg11.dtd">
<svg version="1.1" id="Layer_2" xmlns="http://www.w3.org/2000/svg" xmlns:xlink="http://www.w3.org/1999/xlink" x="0px" y="0px"
	 width="48px" height="48px" viewBox="0 0 48 48" enable-background="new 0 0 48 48" xml:space="preserve">
<path fill="#010101" d="M47,4c-0.552,0-1,0.448-1,1v1.259L2,19.65V19c0-0.552-0.448-1-1-1c-0.552,0-1,0.448-1,1v2v6v2
	c0,0.552,0.448,1,1,1c0.552,0,1-0.448,1-1v-0.65l8,2.435v4.438c0,4.411,3.589,8,8,8c4.268,0,7.755-3.362,7.978-7.575L46,41.741V43
	c0,0.552,0.448,1,1,1c0.552,0,1-0.448,1-1v-2V7V5C48,4.448,47.552,4,47,4z M24,35.222c0,3.309-2.691,6-6,6c-3.309,0-6-2.691-6-6
	v-3.829l12,3.652V35.222z"/>
</svg>
