<?xml version="1.0" encoding="utf-8"?>
<!-- Generator: Adobe Illustrator 17.0.0, SVG Export Plug-In . SVG Version: 6.00 Build 0)  -->
<!DOCTYPE svg PUBLIC "-//W3C//DTD SVG 1.1//EN" "http://www.w3.org/Graphics/SVG/1.1/DTD/svg11.dtd">
<svg version="1.1" id="Layer_2" xmlns="http://www.w3.org/2000/svg" xmlns:xlink="http://www.w3.org/1999/xlink" x="0px" y="0px"
	 width="48px" height="48px" viewBox="0 0 48 48" enable-background="new 0 0 48 48" xml:space="preserve">
<g>
	<path fill="#010101" d="M44,17.006v-11c0-0.34-0.173-0.657-0.459-0.841c-0.286-0.184-0.646-0.21-0.955-0.069l-1.855,0.85
		C34.453,8.833,28.435,11.588,18,12.597v18.465c0,0.119,0.009,0.237,0.012,0.355c10.425,1.011,16.444,3.764,22.723,6.651
		l1.851,0.848c0.132,0.06,0.273,0.09,0.414,0.09c0.189,0,0.377-0.054,0.541-0.159C43.827,38.663,44,38.346,44,38.006v-11
		c2.206,0,4-1.794,4-4v-2C48,18.801,46.206,17.006,44,17.006z M46,23.006c0,1.103-0.897,2-2,2v-6c1.103,0,2,0.897,2,2V23.006z"/>
	<path fill="#010101" d="M7,13.006c-3.86,0-7,3.14-7,7v4c0,3.86,3.14,7,7,7h2c1.035,0,2.034,0.014,3,0.041V12.965
		c-0.966,0.027-1.965,0.041-3,0.041H7z"/>
	<path fill="#010101" d="M23.76,43.356c-0.084-0.099-0.189-0.182-0.313-0.244c-0.612-0.306-1.191-0.656-1.739-1.041
		c-3.305-2.319-5.392-5.98-5.675-10.053c-0.018-0.254-0.023-0.51-0.027-0.767C16.006,31.188,16,31.126,16,31.062V12.006
		c0-0.551-0.449-1-1-1c-0.551,0-1,0.449-1,1v19.056c0,2.46,0.577,4.813,1.625,6.916c0.208,0.418,0.428,0.829,0.673,1.226
		c0.555,0.897,1.202,1.737,1.933,2.506c1.219,1.282,2.673,2.367,4.321,3.191h0c0.117,0.059,0.243,0.089,0.37,0.097
		c0.004,0,0.008,0.001,0.012,0.001c0.25,0.012,0.499-0.073,0.695-0.228c0.011-0.009,0.023-0.018,0.033-0.027
		c0.093-0.081,0.174-0.176,0.231-0.29l0,0c0.062-0.124,0.096-0.254,0.104-0.383c0.008-0.126-0.007-0.254-0.05-0.38
		C23.907,43.564,23.842,43.452,23.76,43.356z"/>
</g>
</svg>
