<?xml version="1.0" encoding="utf-8"?>
<!-- Generator: Adobe Illustrator 17.0.0, SVG Export Plug-In . SVG Version: 6.00 Build 0)  -->
<!DOCTYPE svg PUBLIC "-//W3C//DTD SVG 1.1//EN" "http://www.w3.org/Graphics/SVG/1.1/DTD/svg11.dtd">
<svg version="1.1" id="Layer_2" xmlns="http://www.w3.org/2000/svg" xmlns:xlink="http://www.w3.org/1999/xlink" x="0px" y="0px"
	 width="48px" height="48px" viewBox="0 0 48 48" enable-background="new 0 0 48 48" xml:space="preserve">
<path fill="#010101" d="M47.707,31.293L39,22.586v-7.687c2.279-0.465,4-2.484,4-4.899c0-2.757-2.243-5-5-5
	c-2.414,0-4.434,1.721-4.899,4h-7.687l-8.707-8.707c-0.391-0.391-1.023-0.391-1.414,0c-8.374,8.374-8.9,21.667-1.582,30.661
	L0.248,46.341c-0.258,0.295-0.32,0.715-0.158,1.072C0.251,47.771,0.607,48,1,48h28c0.393,0,0.748-0.229,0.911-0.587
	c0.162-0.357,0.1-0.776-0.158-1.072l-7.941-9.075c3.002,1.41,6.285,2.178,9.689,2.178c6.107,0,11.863-2.393,16.207-6.737
	C48.098,32.316,48.098,31.684,47.707,31.293z M27.414,11h5.687c0.13,0.637,0.384,1.229,0.732,1.753L31.5,15.086L27.414,11z
	 M37,20.586L32.914,16.5l2.333-2.333c0.524,0.348,1.116,0.602,1.753,0.732V20.586z"/>
</svg>
