<?xml version="1.0" encoding="utf-8"?>
<!-- Generator: Adobe Illustrator 17.0.0, SVG Export Plug-In . SVG Version: 6.00 Build 0)  -->
<!DOCTYPE svg PUBLIC "-//W3C//DTD SVG 1.1//EN" "http://www.w3.org/Graphics/SVG/1.1/DTD/svg11.dtd">
<svg version="1.1" id="Layer_2" xmlns="http://www.w3.org/2000/svg" xmlns:xlink="http://www.w3.org/1999/xlink" x="0px" y="0px"
	 width="48px" height="48px" viewBox="0 0 48 48" enable-background="new 0 0 48 48" xml:space="preserve">
<g>
	<path fill="#010101" d="M47.426,37.051L36.112,25.738c-0.391-0.391-1.024-0.391-1.414,0l-2.122,2.122l-1.414-1.414l5.086-5.086
		c2.42-2.42,2.575-6.27,0.516-9.001l2.179-2.177c0.062-0.062,0.098-0.139,0.141-0.211c0.184,0.054,0.373,0.09,0.564,0.09
		c0.512,0,1.024-0.195,1.415-0.585c0.78-0.78,0.78-2.048,0-2.828c-0.391-0.39-0.903-0.585-1.415-0.585s-1.024,0.195-1.415,0.585
		c-0.536,0.536-0.695,1.3-0.494,1.981c-0.072,0.042-0.148,0.077-0.21,0.139l-2.178,2.177c-1.226-0.929-2.699-1.438-4.246-1.438
		c-1.807,0-3.496,0.694-4.756,1.955l-5.086,5.085l-1.415-1.414l2.122-2.121c0.188-0.188,0.293-0.442,0.293-0.707
		c0-0.265-0.105-0.52-0.293-0.707L10.656,0.281c-0.375-0.375-1.039-0.375-1.414,0L3.586,5.939c-0.391,0.391-0.391,1.023,0,1.414
		l11.312,11.313c0.195,0.195,0.451,0.293,0.707,0.293c0.256,0,0.512-0.098,0.707-0.293l2.122-2.121l1.415,1.414l-4.451,4.45
		c-0.188,0.188-0.293,0.442-0.293,0.707c0,0.265,0.106,0.52,0.293,0.707l8.486,8.485c0.195,0.195,0.451,0.293,0.707,0.293
		c0.256,0,0.512-0.098,0.707-0.293l4.449-4.449l1.414,1.414l-2.121,2.121c-0.188,0.187-0.293,0.442-0.293,0.707
		c0,0.265,0.106,0.519,0.293,0.707l11.314,11.314c0.188,0.188,0.442,0.293,0.707,0.293c0.265,0,0.52-0.105,0.707-0.293l5.656-5.657
		C47.816,38.075,47.816,37.442,47.426,37.051z"/>
	<path fill="#010101" d="M12.22,26.489c-2.404,0-4.665,0.936-6.364,2.635c-0.188,0.188-0.293,0.442-0.293,0.707
		c0,0.265,0.105,0.52,0.293,0.707l11.313,11.315c0.188,0.188,0.442,0.293,0.707,0.293c0.265,0,0.52-0.105,0.707-0.293
		c3.509-3.509,3.509-9.219,0-12.729C16.884,27.424,14.623,26.489,12.22,26.489z"/>
	<path fill="#010101" d="M12.242,43.951c-1.133,1.133-2.64,1.757-4.243,1.757c-1.603,0-3.109-0.624-4.242-1.757
		C2.624,42.817,2,41.311,2,39.708c0-1.602,0.624-3.109,1.758-4.243c0.391-0.39,0.391-1.023,0-1.414
		c-0.391-0.391-1.024-0.391-1.414,0C0.832,35.562,0,37.571,0,39.708c0,2.137,0.832,4.146,2.344,5.657
		c1.51,1.511,3.519,2.343,5.656,2.343c2.137,0,4.146-0.832,5.657-2.343c0.391-0.391,0.391-1.024,0-1.414
		C13.266,43.56,12.633,43.56,12.242,43.951z"/>
	<path fill="#010101" d="M7.535,36.051c-0.391-0.391-1.023-0.391-1.414,0c-0.756,0.755-1.172,1.76-1.172,2.828
		c0,1.068,0.416,2.073,1.172,2.829c0.78,0.779,1.804,1.168,2.828,1.168c1.024,0,2.048-0.39,2.828-1.168
		c0.391-0.391,0.391-1.023,0-1.415c-0.391-0.391-1.024-0.39-1.415,0c-0.779,0.779-2.049,0.779-2.828,0
		c-0.378-0.378-0.586-0.88-0.586-1.415s0.208-1.036,0.586-1.414C7.926,37.075,7.926,36.442,7.535,36.051z"/>
</g>
</svg>
