<?xml version="1.0" encoding="utf-8"?>
<!-- Generator: Adobe Illustrator 17.0.0, SVG Export Plug-In . SVG Version: 6.00 Build 0)  -->
<!DOCTYPE svg PUBLIC "-//W3C//DTD SVG 1.1//EN" "http://www.w3.org/Graphics/SVG/1.1/DTD/svg11.dtd">
<svg version="1.1" id="Layer_1" xmlns="http://www.w3.org/2000/svg" xmlns:xlink="http://www.w3.org/1999/xlink" x="0px" y="0px"
	 width="48px" height="48px" viewBox="0 0 48 48" enable-background="new 0 0 48 48" xml:space="preserve">
<path fill="#010101" d="M47,0c-0.552,0-1,0.448-1,1v11.551c-3.636-4.134-8.539-6.874-14.042-7.794
	C25.635,3.702,19.279,5.17,14.062,8.895c-5.218,3.724-8.675,9.257-9.732,15.58c-1.057,6.322,0.412,12.678,4.136,17.897
	c1.496,2.096,3.301,3.925,5.364,5.435C14.008,47.938,14.215,48,14.42,48c0.308,0,0.612-0.142,0.808-0.409
	c0.327-0.445,0.229-1.071-0.216-1.397c-1.891-1.385-3.545-3.061-4.917-4.984C6.681,36.426,5.334,30.6,6.303,24.804
	c0.969-5.796,4.137-10.867,8.922-14.281c4.782-3.414,10.609-4.761,16.404-3.793c5.1,0.852,9.638,3.41,12.981,7.27H33
	c-0.552,0-1,0.448-1,1s0.448,1,1,1h13.417c0.216,0.072,0.445,0.068,0.664-0.016C47.593,15.941,48,15.523,48,15V1
	C48,0.448,47.552,0,47,0z"/>
</svg>
