<?xml version="1.0" encoding="utf-8"?>
<!-- Generator: Adobe Illustrator 17.0.0, SVG Export Plug-In . SVG Version: 6.00 Build 0)  -->
<!DOCTYPE svg PUBLIC "-//W3C//DTD SVG 1.1//EN" "http://www.w3.org/Graphics/SVG/1.1/DTD/svg11.dtd">
<svg version="1.1" id="Layer_1" xmlns="http://www.w3.org/2000/svg" xmlns:xlink="http://www.w3.org/1999/xlink" x="0px" y="0px"
	 width="48px" height="48px" viewBox="0 0 48 48" enable-background="new 0 0 48 48" xml:space="preserve">
<g>
	<path fill="#010101" d="M46.996,23.885h-5.025C41.416,12.814,32.222,3.977,20.999,3.977C9.42,3.977,0,13.405,0,24.993
		C0,36.576,9.42,46,21,46c4.412,0,8-3.587,8-7.997c0-4.41-3.589-7.998-8-7.998c-1.084,0-2-0.943-2-2.06s0.916-2.06,2-2.06h19.652
		c0.215,0.079,0.475,0.079,0.69,0h5.654c0.552,0,1-0.448,1-1S47.548,23.885,46.996,23.885z M21,23.886c-2.206,0-4,1.821-4,4.06
		s1.794,4.06,4,4.06c3.309,0,6,2.691,6,5.998C27,41.31,24.309,44,21,44C10.523,44,2,35.473,2,24.993
		C2,14.508,10.523,5.977,20.999,5.977c10.119,0,18.416,7.941,18.969,17.909H21z"/>
	<path fill="#010101" d="M21,42.008c2.206,0,4-1.794,4-4s-1.794-4-4-4s-4,1.794-4,4S18.794,42.008,21,42.008z M21,36.008
		c1.103,0,2,0.897,2,2s-0.897,2-2,2s-2-0.897-2-2S19.897,36.008,21,36.008z"/>
</g>
</svg>
