<?xml version="1.0" encoding="utf-8"?>
<!-- Generator: Adobe Illustrator 17.0.0, SVG Export Plug-In . SVG Version: 6.00 Build 0)  -->
<!DOCTYPE svg PUBLIC "-//W3C//DTD SVG 1.1//EN" "http://www.w3.org/Graphics/SVG/1.1/DTD/svg11.dtd">
<svg version="1.1" id="Layer_1" xmlns="http://www.w3.org/2000/svg" xmlns:xlink="http://www.w3.org/1999/xlink" x="0px" y="0px"
	 width="48px" height="48px" viewBox="0 0 48 48" enable-background="new 0 0 48 48" xml:space="preserve">
<g>
	<path fill="#010101" d="M44,38h-0.016C43.641,21.369,34.812,8,24,8S4.359,21.369,4.016,38H4c-2.206,0-4,1.794-4,4v2
		c0,2.206,1.794,4,4,4h40c2.206,0,4-1.794,4-4v-2C48,39.794,46.206,38,44,38z M24,10c9.717,0,17.655,12.471,17.984,28H6.016
		C6.345,22.471,14.283,10,24,10z M46,44c0,1.103-0.897,2-2,2H4c-1.103,0-2-0.897-2-2v-2c0-1.103,0.897-2,2-2h40c1.103,0,2,0.897,2,2
		V44z"/>
	<path fill="#010101" d="M31,7c0-0.552-0.448-1-1-1h-3.586l2.293-2.293c0.391-0.391,0.391-1.023,0-1.414
		c-0.391-0.391-1.023-0.391-1.414,0L25,4.586V1c0-0.552-0.448-1-1-1s-1,0.448-1,1v3.586l-2.293-2.293
		c-0.391-0.391-1.023-0.391-1.414,0c-0.391,0.391-0.391,1.023,0,1.414L21.586,6H18c-0.552,0-1,0.448-1,1s0.448,1,1,1h6h6
		C30.552,8,31,7.552,31,7z"/>
</g>
</svg>
