<?xml version="1.0" encoding="utf-8"?>
<!-- Generator: Adobe Illustrator 17.1.0, SVG Export Plug-In . SVG Version: 6.00 Build 0)  -->
<!DOCTYPE svg PUBLIC "-//W3C//DTD SVG 1.0//EN" "http://www.w3.org/TR/2001/REC-SVG-20010904/DTD/svg10.dtd">
<svg version="1.0" id="Layer_1" xmlns="http://www.w3.org/2000/svg" xmlns:xlink="http://www.w3.org/1999/xlink" x="0px" y="0px"
	 width="48px" height="48px" viewBox="0 0 48 48" enable-background="new 0 0 48 48" xml:space="preserve">
<path d="M23,0.001c-4.917,0-12.095,1.085-17.489,4.128C4.504,4.694,3.899,5.882,4,7.022l0.037,1.634C1.654,9.773,0,12.196,0,14.998
	c0,3.183,2.136,5.871,5.048,6.719c0.155,1.978,0.751,7.472,2.548,8.194c0.102,0.045,0.215,0.065,0.332,0.074
	C7.95,29.986,7.97,30,7.993,30h0.001C7.996,30,7.998,30,8,30c0.008,0,0.018,0,0.024,0h12.117c0.364,1.399,1.459,2.495,2.858,2.858
	V40h-1c-0.553,0-1,0.447-1,1v6c0,0.553,0.447,1,1,1h4c0.553,0,1-0.447,1-1v-6c0-0.553-0.447-1-1-1h-1v-7.142
	c1.721-0.447,3-1.999,3-3.858c0-1.859-1.279-3.411-3-3.858V22h19c2.206,0,4-1.795,4-4.002C48,14.144,38.899,0.001,23,0.001z M25,46
	h-2v-4h2V46z M7.053,22h6.533l-5.475,5.475C7.678,26.226,7.208,23.722,7.053,22z M26,29c0,1.103-0.897,2-2,2c-1.102,0-2-0.897-2-2
	c0-1.102,0.898-2,2-2C25.103,27,26,27.897,26,29z M23,25.142c-1.399,0.364-2.495,1.459-2.858,2.858h-9.728l6-6H23V25.142z M44,20H16
	H7c-2.757,0-5-2.244-5-5.002c0-2.758,2.243-5.001,5-5.001c0.553,0,1-0.447,1-1c0-0.553-0.447-1-1-1
	c-0.331,0-0.658,0.023-0.977,0.068L5.996,6.913C5.96,6.497,6.172,6.051,6.491,5.872C11.551,3.017,18.337,2.001,23,2.001
	c5.42,0,9.922,1.753,13.467,4.111c-3.021-1.207-6.326-1.868-9.69-1.868c-4.848,0-9.521,1.44-13.514,4.164
	c-0.456,0.311-0.574,0.934-0.263,1.39c0.311,0.458,0.936,0.573,1.39,0.263c3.659-2.497,7.942-3.816,12.387-3.816
	c6.621,0,12.991,2.729,17.041,7.299c0.082,0.093,0.183,0.155,0.286,0.209C45.36,15.664,46,17.262,46,17.997
	C46,19.101,45.103,20,44,20z"/>
</svg>
