<?xml version="1.0" encoding="utf-8"?>
<!-- Generator: Adobe Illustrator 17.0.0, SVG Export Plug-In . SVG Version: 6.00 Build 0)  -->
<!DOCTYPE svg PUBLIC "-//W3C//DTD SVG 1.1//EN" "http://www.w3.org/Graphics/SVG/1.1/DTD/svg11.dtd">
<svg version="1.1" id="Layer_1" xmlns="http://www.w3.org/2000/svg" xmlns:xlink="http://www.w3.org/1999/xlink" x="0px" y="0px"
	 width="48px" height="48px" viewBox="0 0 48 48" enable-background="new 0 0 48 48" xml:space="preserve">
<path fill="#010101" d="M46.753,15.112c-0.782-0.561-1.792-0.714-2.704-0.41L29.211,19.66c-0.558-0.669-1.352-1.112-2.211-1.112h-6
	c-0.854,0-1.645,0.438-2.203,1.102L3.949,14.702c-0.91-0.305-1.92-0.151-2.703,0.411C0.466,15.675,0,16.586,0,17.549v16.449
	c0,0.964,0.465,1.875,1.245,2.436c0.517,0.372,1.134,0.565,1.756,0.565c0.318,0,0.638-0.051,0.946-0.154l15.004-5.004
	c0.525,0.441,1.231,0.707,2.049,0.707h6c0.824,0,1.534-0.269,2.06-0.715l14.988,5.012c0.309,0.103,0.629,0.153,0.948,0.153
	c0.623,0,1.24-0.193,1.757-0.565C47.534,35.87,48,34.959,48,33.997V17.549C48,16.59,47.535,15.68,46.753,15.112z M3.313,34.947
	c-0.303,0.101-0.64,0.05-0.901-0.138C2.154,34.623,2,34.32,2,33.997V17.549c0-0.321,0.155-0.625,0.414-0.811
	c0.26-0.189,0.595-0.239,0.901-0.138l14.712,4.902C18.019,21.592,18,21.681,18,21.773v2.775h-3c-0.552,0-1,0.448-1,1s0.448,1,1,1h3
	v3.226c0,0.093,0.018,0.178,0.027,0.268L3.313,34.947z M21,30.548c-0.167,0-1-0.037-1-0.774v-8.001c0-0.166,0.04-0.332,0.106-0.487
	c0.021-0.043,0.055-0.076,0.07-0.123c0.004-0.011,0.001-0.021,0.004-0.032c0.191-0.335,0.507-0.583,0.82-0.583h6
	c0.317,0,0.636,0.254,0.826,0.595c0.003,0.011,0,0.022,0.004,0.033c0.016,0.047,0.049,0.081,0.071,0.124
	C27.963,21.451,28,21.612,28,21.773v8.001c0,0.737-0.833,0.774-1,0.774H21z M46,33.998c0,0.321-0.155,0.625-0.415,0.812
	c-0.261,0.188-0.598,0.239-0.903,0.138L29.975,30.03C29.982,29.945,30,29.863,30,29.774v-3.226h3c0.552,0,1-0.448,1-1s-0.448-1-1-1
	h-3v-2.775c0-0.088-0.019-0.173-0.026-0.26l14.709-4.914c0.302-0.103,0.64-0.051,0.9,0.136C45.844,16.924,46,17.229,46,17.549
	V33.998z"/>
</svg>
