<?xml version="1.0" encoding="utf-8"?>
<!-- Generator: Adobe Illustrator 17.0.0, SVG Export Plug-In . SVG Version: 6.00 Build 0)  -->
<!DOCTYPE svg PUBLIC "-//W3C//DTD SVG 1.1//EN" "http://www.w3.org/Graphics/SVG/1.1/DTD/svg11.dtd">
<svg version="1.1" id="Layer_1" xmlns="http://www.w3.org/2000/svg" xmlns:xlink="http://www.w3.org/1999/xlink" x="0px" y="0px"
	 width="48px" height="48px" viewBox="0 0 48 48" enable-background="new 0 0 48 48" xml:space="preserve">
<g>
	<path fill="#010101" d="M47,20.999c-0.553,0-1,0.448-1,1c0,3.72-2.555,6.846-6,7.738V15.999C40,7.177,32.822,0,24,0
		S8,7.177,8,15.999v13.738c-3.445-0.892-6-4.018-6-7.738c0-0.552-0.447-1-1-1s-1,0.448-1,1C0,27.514,4.486,32,10,32h28
		c5.514,0,10-4.486,10-10.001C48,21.447,47.553,20.999,47,20.999z M24,2c7.72,0,14,6.28,14,13.999V24H10v-8.001
		C10,8.28,16.28,2,24,2z M10,30v-4h28v4H10z"/>
	<polygon fill="#010101" points="21,44 19,48 29,48 27,44 	"/>
</g>
</svg>
