<?xml version="1.0" encoding="utf-8"?>
<!-- Generator: Adobe Illustrator 17.0.0, SVG Export Plug-In . SVG Version: 6.00 Build 0)  -->
<!DOCTYPE svg PUBLIC "-//W3C//DTD SVG 1.1//EN" "http://www.w3.org/Graphics/SVG/1.1/DTD/svg11.dtd">
<svg version="1.1" id="Layer_1" xmlns="http://www.w3.org/2000/svg" xmlns:xlink="http://www.w3.org/1999/xlink" x="0px" y="0px"
	 width="48px" height="48px" viewBox="0 0 48 48" enable-background="new 0 0 48 48" xml:space="preserve">
<path fill="#010101" d="M46.183,30.179c-0.04-0.028-0.081-0.053-0.124-0.074L24.728,19.439c0.131-0.367,0.359-0.699,0.605-0.803
	c2.441-1.035,4.279-4.133,4.279-5.636c0-3.309-2.691-6-6-6s-6,2.691-6,6c0,0.552,0.447,1,1,1s1-0.448,1-1c0-2.206,1.794-4,4-4
	s4,1.794,4,4c0,0.604-1.27,3.036-3.061,3.795c-1.031,0.437-1.666,1.532-1.865,2.549L1.164,30.105
	c-0.043,0.021-0.084,0.046-0.123,0.073c-0.906,0.63-1.263,1.768-0.909,2.898C0.493,34.227,1.489,35,2.612,35h42
	c1.121,0,2.117-0.773,2.478-1.924C47.445,31.946,47.088,30.809,46.183,30.179z M45.182,32.477C45.121,32.671,44.932,33,44.612,33
	h-42c-0.321,0-0.51-0.328-0.571-0.522c-0.031-0.101-0.113-0.434,0.102-0.625l21.468-10.735l21.47,10.734
	C45.295,32.044,45.213,32.375,45.182,32.477z"/>
</svg>
