<?xml version="1.0" encoding="utf-8"?>
<!-- Generator: Adobe Illustrator 17.0.0, SVG Export Plug-In . SVG Version: 6.00 Build 0)  -->
<!DOCTYPE svg PUBLIC "-//W3C//DTD SVG 1.1//EN" "http://www.w3.org/Graphics/SVG/1.1/DTD/svg11.dtd">
<svg version="1.1" id="Layer_1" xmlns="http://www.w3.org/2000/svg" xmlns:xlink="http://www.w3.org/1999/xlink" x="0px" y="0px"
	 width="48px" height="48px" viewBox="0 0 48 48" enable-background="new 0 0 48 48" xml:space="preserve">
<g>
	<path fill="#010101" d="M21.514,6.816C21.175,2.913,17.944-0.03,14-0.03c-3.946,0-7.178,2.949-7.518,6.861l-3.478,39.96
		c-0.024,0.28,0.07,0.556,0.259,0.763C3.452,47.76,3.72,47.878,4,47.878h20c0.007,0,0.015,0,0.019,0c0.553,0,1-0.448,1.001-1
		c0-0.098-0.014-0.194-0.04-0.284L21.514,6.816z M20.919,45.878l-1.923-22.962c-0.045-0.55-0.537-0.955-1.079-0.913
		c-0.551,0.046-0.96,0.53-0.913,1.08l1.909,22.795H9.096l1.9-22.795c0.046-0.551-0.362-1.034-0.913-1.08
		c-0.561-0.045-1.034,0.364-1.079,0.914L7.09,45.878H5.091L8.475,7.004C8.725,4.134,11.1,1.97,14,1.97
		c2.899,0,5.272,2.157,5.521,5.019l3.388,38.889H20.919z"/>
	<path fill="#010101" d="M13.995,4c-2.206,0-4,1.794-4,4v4c0,2.206,1.794,4,4,4s4-1.794,4-4V8C17.995,5.794,16.201,4,13.995,4z
		 M15.995,12c0,1.103-0.897,2-2,2c-1.102,0-2-0.897-2-2V8c0-1.103,0.898-2,2-2c1.103,0,2,0.897,2,2V12z"/>
	<path fill="#010101" d="M46.737,0.202C46.548-0.004,46.28-0.122,46-0.122H26c-0.28,0-0.548,0.118-0.737,0.324
		c-0.19,0.206-0.283,0.483-0.259,0.762l3.478,40.084c0.337,3.881,3.64,6.922,7.518,6.922c3.875,0,7.176-3.047,7.514-6.938
		l3.482-40.068C47.02,0.685,46.927,0.409,46.737,0.202z M41.521,40.86c-0.249,2.865-2.674,5.11-5.521,5.11
		c-2.85,0-5.277-2.238-5.525-5.095L27.091,1.878c0,0,1.595,0,1.989,0l1.924,23.205C31.047,25.605,31.484,26,31.999,26
		c0.027,0,0.056-0.001,0.084-0.003c0.55-0.045,0.959-0.529,0.913-1.079l-1.91-23.04c3.419,0,6.41,0,9.829,0l-1.91,23.04
		c-0.046,0.55,0.363,1.034,0.913,1.079C39.945,25.999,39.974,26,40.001,26c0.515,0,0.952-0.395,0.995-0.917L42.92,1.878
		c0.395,0,1.989,0,1.989,0L41.521,40.86z"/>
	<path fill="#010101" d="M35.995,32c-2.206,0-4,1.794-4,4v4c0,2.206,1.794,4,4,4s4-1.794,4-4v-4C39.995,33.794,38.201,32,35.995,32z
		 M37.995,40c0,1.103-0.897,2-2,2c-1.103,0-2-0.897-2-2v-4c0-1.103,0.897-2,2-2c1.103,0,2,0.897,2,2V40z"/>
</g>
</svg>
