<?xml version="1.0" encoding="utf-8"?>
<!-- Generator: Adobe Illustrator 17.0.0, SVG Export Plug-In . SVG Version: 6.00 Build 0)  -->
<!DOCTYPE svg PUBLIC "-//W3C//DTD SVG 1.1//EN" "http://www.w3.org/Graphics/SVG/1.1/DTD/svg11.dtd">
<svg version="1.1" id="Layer_1" xmlns="http://www.w3.org/2000/svg" xmlns:xlink="http://www.w3.org/1999/xlink" x="0px" y="0px"
	 width="48px" height="48px" viewBox="0 0 48 48" enable-background="new 0 0 48 48" xml:space="preserve">
<path fill="#231F20" d="M47,34H20.858c-0.364-1.399-1.459-2.495-2.858-2.858V29c0-6.065,4.935-11,11-11h14.396
	c0.317,1.291,0.516,2.628,0.581,4H31c-4.962,0-9,4.038-9,9c0,0.552,0.448,1,1,1s1-0.448,1-1c0-3.86,3.14-7,7-7h14
	c0.552,0,1-0.448,1-1c0-1.717-0.195-3.389-0.554-5H47c0.552,0,1-0.448,1-1s-0.448-1-1-1h-2.093C41.938,6.731,33.242,0,23,0
	C10.318,0,0,10.318,0,23c0,10.816,7.356,20.04,17.888,22.43c0.074,0.017,0.149,0.025,0.222,0.025c0.457,0,0.869-0.314,0.975-0.779
	c0.122-0.538-0.216-1.074-0.754-1.196C8.715,41.297,2,32.876,2,23C2,11.42,11.42,2,23,2c9.127,0,16.91,5.852,19.8,14H29
	c-7.169,0-13,5.832-13,13v2.142c-1.721,0.447-3,1.999-3,3.858c0,2.206,1.794,4,4,4c0.74,0,1.424-0.215,2.019-0.567l5.757,5.757
	c1.617,1.617,3.59,2.745,5.737,3.334c0.02,0.006,0.039,0.01,0.059,0.015C31.67,47.835,32.809,48,33.975,48H35h2h6
	c2.757,0,5-2.243,5-5v-8C48,34.448,47.552,34,47,34z M46,40h-4v-4h4V40z M20.433,37.019c0.186-0.316,0.33-0.656,0.425-1.019H32v4
	h-8.586L20.433,37.019z M34,36h6v4h-6V36z M15,35c0-1.103,0.897-2,2-2s2,0.897,2,2s-0.897,2-2,2S15,36.103,15,35z M25.414,42H32v1
	c0,1.015-0.504,1.939-1.333,2.492c-1.671-0.524-3.203-1.443-4.477-2.716L25.414,42z M35,46h-1.025c-0.319,0-0.635-0.02-0.95-0.046
	C33.643,45.113,34,44.091,34,43v-1h6v1c0,1.654-1.346,3-3,3H35z M43,46h-2.025C41.609,45.162,42,44.13,42,43v-1h4v1
	C46,44.654,44.654,46,43,46z"/>
</svg>
