<?xml version="1.0" encoding="utf-8"?>
<!-- Generator: Adobe Illustrator 17.0.0, SVG Export Plug-In . SVG Version: 6.00 Build 0)  -->
<!DOCTYPE svg PUBLIC "-//W3C//DTD SVG 1.1//EN" "http://www.w3.org/Graphics/SVG/1.1/DTD/svg11.dtd">
<svg version="1.1" id="Layer_1" xmlns="http://www.w3.org/2000/svg" xmlns:xlink="http://www.w3.org/1999/xlink" x="0px" y="0px"
	 width="48px" height="48px" viewBox="0 0 48 48" enable-background="new 0 0 48 48" xml:space="preserve">
<path fill="#010101" d="M40,7c-0.552,0-1,0.448-1,1s0.448,1,1,1c1.103,0,2,0.897,2,2v19.355c-1.651-2.044-4.174-3.356-7-3.356
	c-3.887,0-7.197,2.483-8.453,5.942C25.853,32.362,24.972,32,24,32s-1.853,0.362-2.547,0.941c-1.256-3.459-4.566-5.942-8.453-5.942
	c-2.826,0-5.349,1.312-7,3.356V11c0-1.103,0.897-2,2-2c0.552,0,1-0.448,1-1S8.552,7,8,7c-2.206,0-4,1.794-4,4v25
	c0,4.962,4.038,9,9,9s9-4.038,9-9c0-1.103,0.897-2,2-2s2,0.897,2,2c0,4.962,4.038,9,9,9s9-4.038,9-9V11C44,8.794,42.206,7,40,7z
	 M13,43c-3.86,0-7-3.14-7-7s3.14-7.001,7-7.001S20,32.14,20,36S16.86,43,13,43z M35,43c-3.86,0-7-3.14-7-7s3.14-7.001,7-7.001
	S42,32.14,42,36S38.86,43,35,43z"/>
</svg>
