<?xml version="1.0" encoding="utf-8"?>
<!-- Generator: Adobe Illustrator 17.0.0, SVG Export Plug-In . SVG Version: 6.00 Build 0)  -->
<!DOCTYPE svg PUBLIC "-//W3C//DTD SVG 1.1//EN" "http://www.w3.org/Graphics/SVG/1.1/DTD/svg11.dtd">
<svg version="1.1" id="Layer_1" xmlns="http://www.w3.org/2000/svg" xmlns:xlink="http://www.w3.org/1999/xlink" x="0px" y="0px"
	 width="48px" height="48px" viewBox="0 0 48 48" enable-background="new 0 0 48 48" xml:space="preserve">
<path fill="#010101" d="M44,31.878h-1.027c-0.298-4.695-4.202-8.427-8.971-8.427c-0.953,0-1.87,0.151-2.733,0.427l-6.257-3.59
	l9.537-5.472c0.462-0.267,0.998-0.338,1.515-0.199c0.516,0.138,0.947,0.469,1.214,0.931c0.276,0.478,0.888,0.643,1.366,0.366
	c0.479-0.276,0.642-0.888,0.366-1.366c-0.534-0.925-1.396-1.587-2.428-1.863c-1.031-0.276-2.11-0.135-3.031,0.399l-10.547,6.051
	l-10.544-6.05c-0.925-0.534-2.002-0.676-3.035-0.4c-1.033,0.276-1.895,0.938-2.429,1.863c-0.276,0.478-0.112,1.09,0.366,1.366
	c0.477,0.276,1.09,0.112,1.366-0.366c0.267-0.462,0.699-0.793,1.215-0.931c0.515-0.139,1.054-0.068,1.519,0.201l9.532,5.47
	l-6.258,3.59c-0.863-0.276-1.781-0.428-2.734-0.428c-4.769,0-8.673,3.732-8.971,8.427H2c-0.552,0-1,0.448-1,1s0.448,1,1,1h1.126
	c0.687,4.285,4.4,7.573,8.876,7.573c4.963,0,9-4.038,9-9c0-1.103,0.897-2,2-2c1.103,0,2,0.897,2,2c0,4.962,4.038,9,9,9
	c4.476,0,8.188-3.288,8.876-7.573H44c0.552,0,1-0.448,1-1S44.552,31.878,44,31.878z M12.002,39.451c-3.86,0-7-3.14-7-7s3.14-7,7-7
	s7,3.14,7,7S15.862,39.451,12.002,39.451z M23.002,28.451c-0.972,0-1.853,0.363-2.547,0.941c-0.669-1.842-1.916-3.406-3.529-4.465
	l6.076-3.486l6.075,3.486c-1.613,1.06-2.86,2.624-3.529,4.465C24.855,28.814,23.974,28.451,23.002,28.451z M34.002,39.451
	c-3.86,0-7-3.14-7-7s3.14-7,7-7s7,3.14,7,7S37.862,39.451,34.002,39.451z"/>
</svg>
