<?xml version="1.0" encoding="utf-8"?>
<!-- Generator: Adobe Illustrator 17.0.0, SVG Export Plug-In . SVG Version: 6.00 Build 0)  -->
<!DOCTYPE svg PUBLIC "-//W3C//DTD SVG 1.1//EN" "http://www.w3.org/Graphics/SVG/1.1/DTD/svg11.dtd">
<svg version="1.1" id="Layer_1" xmlns="http://www.w3.org/2000/svg" xmlns:xlink="http://www.w3.org/1999/xlink" x="0px" y="0px"
	 width="48px" height="48px" viewBox="0 0 48 48" enable-background="new 0 0 48 48" xml:space="preserve">
<g>
	<path fill="#010101" d="M35,16c-3.887,0-7.197,2.482-8.453,5.941C25.853,21.362,24.972,21,24,21s-1.853,0.362-2.547,0.941
		C20.197,18.482,16.887,16,13,16c-4.962,0-9,4.038-9,9c0,4.963,4.038,9.001,9,9.001s9-4.038,9-9.001c0-1.103,0.897-2,2-2
		s2,0.897,2,2c0,4.963,4.038,9.001,9,9.001s9-4.038,9-9.001C44,20.038,39.962,16,35,16z M13,32.001c-3.86,0-7-3.141-7-7.001
		s3.14-7,7-7s7,3.14,7,7S16.86,32.001,13,32.001z M35,32.001c-3.86,0-7-3.141-7-7.001s3.14-7,7-7s7,3.14,7,7S38.86,32.001,35,32.001
		z"/>
	<path fill="#010101" d="M2.502,19.095C2,18.866,1.406,19.085,1.176,19.587C0.395,21.289,0,23.11,0,25c0,0.552,0.448,1,1,1
		s1-0.448,1-1c0-1.601,0.334-3.141,0.994-4.579C3.224,19.919,3.004,19.326,2.502,19.095z"/>
	<path fill="#010101" d="M46.822,19.587c-0.23-0.502-0.822-0.723-1.326-0.493c-0.502,0.23-0.723,0.824-0.493,1.326
		C45.665,21.865,46,23.406,46,25c0,0.552,0.448,1,1,1s1-0.448,1-1C48,23.116,47.603,21.295,46.822,19.587z"/>
</g>
</svg>
