<?xml version="1.0" encoding="utf-8"?>
<!-- Generator: Adobe Illustrator 17.0.0, SVG Export Plug-In . SVG Version: 6.00 Build 0)  -->
<!DOCTYPE svg PUBLIC "-//W3C//DTD SVG 1.1//EN" "http://www.w3.org/Graphics/SVG/1.1/DTD/svg11.dtd">
<svg version="1.1" id="Layer_1" xmlns="http://www.w3.org/2000/svg" xmlns:xlink="http://www.w3.org/1999/xlink" x="0px" y="0px"
	 width="48px" height="48px" viewBox="0 0 48 48" enable-background="new 0 0 48 48" xml:space="preserve">
<g>
	<path fill="#010101" d="M48,13c0-4.363-8.412-9-24-9S0,8.637,0,13c0,2.642,3.104,5.378,9,7.131V41c0,3.436,7.775,5,15,5
		s15-1.564,15-5V20.131C44.896,18.378,48,15.642,48,13z M37,28c0,0.897-4.423,3-13,3s-13-2.103-13-3v-1.333
		C13.775,28.255,19.017,29,24,29s10.225-0.745,13-2.333V28z M24,44c-8.577,0-13-2.103-13-3V30.667C13.775,32.255,19.017,33,24,33
		s10.225-0.745,13-2.333V41C37,41.897,32.577,44,24,44z M37,24c0,0.897-4.423,3-13,3s-13-2.103-13-3v-3.339
		C14.532,21.491,18.869,22,24,22s9.468-0.509,13-1.339V24z M24,20c-12.965,0-22-3.689-22-7s9.035-7,22-7s22,3.689,22,7
		S36.965,20,24,20z"/>
	<path fill="#010101" d="M24,8C16.775,8,9,9.565,9,13c0,3.436,7.775,5,15,5s15-1.564,15-5C39,9.565,31.225,8,24,8z M24,16
		c-8.577,0-13-2.103-13-3s4.423-3,13-3s13,2.103,13,3S32.577,16,24,16z"/>
</g>
</svg>
