<?xml version="1.0" encoding="utf-8"?>
<!-- Generator: Adobe Illustrator 17.0.0, SVG Export Plug-In . SVG Version: 6.00 Build 0)  -->
<!DOCTYPE svg PUBLIC "-//W3C//DTD SVG 1.1//EN" "http://www.w3.org/Graphics/SVG/1.1/DTD/svg11.dtd">
<svg version="1.1" id="Layer_1" xmlns="http://www.w3.org/2000/svg" xmlns:xlink="http://www.w3.org/1999/xlink" x="0px" y="0px"
	 width="48px" height="48px" viewBox="0 0 48 48" enable-background="new 0 0 48 48" xml:space="preserve">
<path fill="#010101" d="M47,30h-5v-5.122C42,13.9,33.807,4.525,22.94,3.071c-1.933-0.259-3.905,0.311-5.407,1.561L13.361,8.11
	c-0.026,0.022-0.038,0.053-0.062,0.077C6.917,10.761,2.354,16.886,2.044,24.103c-0.394,0.113-0.764,0.307-1.081,0.591
	C0.351,25.242,0,26.038,0,26.878v2c0,1.594,1.245,2.934,2.896,3.116C2.932,31.998,2.968,32,3.005,32H4v5.878
	c0,2.206,1.795,4,4.002,4c2.207,0,4.002-1.795,4.001-4c0-0.543,0.221-1.06,0.606-1.417c0.36-0.335,0.832-0.502,1.396-0.461h21
	c2.321,0,4.391-1.778,4.883-4H47c0.553,0,1-0.448,1-1S47.553,30,47,30z M2,28.878v-2c0-0.272,0.108-0.524,0.298-0.694
	c0.117-0.104,0.315-0.222,0.598-0.19C2.932,25.998,2.968,26,3.005,26H23c0.553,0,1-0.448,1-1s-0.447-1-1-1H4.05
	c0.46-8.413,7.43-15.122,15.956-15.122c5.917,0,11.328,3.245,14.121,8.469c0.259,0.487,0.865,0.669,1.353,0.41
	c0.487-0.261,0.671-0.867,0.41-1.354c-3.142-5.875-9.229-9.525-15.885-9.525c-0.755,0-1.494,0.062-2.224,0.152l1.033-0.861
	c1.072-0.893,2.481-1.303,3.862-1.115C32.553,6.375,40,14.898,40,24.878V30H3.067C2.465,29.912,2,29.427,2,28.878z M35.005,34
	l-20.927,0.003c-1.05-0.076-2.058,0.275-2.83,0.993c-0.791,0.734-1.244,1.785-1.244,2.882c0,1.103-0.899,2-2.002,2
	c-1.104,0-2.002-0.897-2.002-2V32h31.791C37.321,33.176,36.099,34,35.005,34z"/>
</svg>
