<?xml version="1.0" encoding="utf-8"?>
<!-- Generator: Adobe Illustrator 17.0.0, SVG Export Plug-In . SVG Version: 6.00 Build 0)  -->
<!DOCTYPE svg PUBLIC "-//W3C//DTD SVG 1.1//EN" "http://www.w3.org/Graphics/SVG/1.1/DTD/svg11.dtd">
<svg version="1.1" id="Layer_1" xmlns="http://www.w3.org/2000/svg" xmlns:xlink="http://www.w3.org/1999/xlink" x="0px" y="0px"
	 width="48px" height="48px" viewBox="0 0 48 48" enable-background="new 0 0 48 48" xml:space="preserve">
<g>
	<path fill="#010101" d="M46.008,33.585l-21.482-7.672c-0.002-0.001-0.003-0.001-0.005-0.002l-5.185-1.852
		c-0.304-0.109-0.645-0.063-0.912,0.124C18.158,24.37,18,24.675,18,25c0,0.807-1.907,2-6,2c-3.406,0-6-1.333-6-2
		c0-0.552-0.447-1-1-1H3c-1.654,0-3,1.346-3,3v14c0,0.552,0.447,1,1,1h46c0.553,0,1-0.448,1-1v-4.59
		C48,35.145,47.199,34.009,46.008,33.585z M45.9,36H25c0-1.103,0.897-2,2-2h6c1.267,0,2.25-0.894,2.71-1.97l9.626,3.438
		C45.595,35.561,45.79,35.759,45.9,36z M3,26h1.241c0.94,1.877,4.461,3,7.759,3c3.927,0,6.731-1.025,7.663-2.701l2.666,0.952
		l-1.038,1.043c-0.389,0.392-0.388,1.025,0.004,1.415C21.49,29.903,21.745,30,22,30c0.257,0,0.514-0.098,0.709-0.294l1.702-1.711
		l1.606,0.574l-0.725,0.725c-0.391,0.391-0.391,1.024,0,1.414C25.488,30.902,25.744,31,26,31s0.512-0.098,0.707-0.293l1.393-1.395
		l5.725,2.045C33.632,31.72,33.307,32,33,32h-6c-2.206,0-4,1.794-4,4H7.92C7.479,32.941,5.059,30.521,2,30.08V27
		C2,26.449,2.448,26,3,26z M2,32.101C3.956,32.5,5.5,34.044,5.899,36H2V32.101z M2,40v-2h44v2H2z"/>
	<path fill="#010101" d="M47,6H1C0.447,6,0,6.448,0,7v4.592c0,1.264,0.8,2.399,1.99,2.824l26.674,9.526
		C28.773,23.981,28.887,24,29,24c0.203,0,0.405-0.062,0.576-0.183C29.842,23.63,30,23.325,30,23c0-0.807,1.907-2,6-2
		c3.406,0,6,1.333,6,2c0,0.552,0.447,1,1,1h2c1.654,0,3-1.346,3-3V7C48,6.448,47.553,6,47,6z M46,15.899
		C44.044,15.5,42.5,13.956,42.101,12H46V15.899z M46,8v2H2V8H46z M2.099,12H23c0,1.103-0.898,2-2,2h-6
		c-1.268,0-2.25,0.894-2.711,1.97l-9.628-3.438C2.403,12.44,2.209,12.241,2.099,12z M45,22h-1.241c-0.94-1.876-4.461-3-7.759-3
		c-3.927,0-6.731,1.025-7.663,2.701l-2.667-0.953l1.039-1.042c0.39-0.392,0.389-1.025-0.002-1.415
		c-0.392-0.39-1.024-0.388-1.414,0.002l-1.705,1.712l-1.604-0.573l0.724-0.724c0.391-0.39,0.391-1.023,0-1.414
		c-0.391-0.392-1.023-0.391-1.414-0.001l-1.396,1.394l-5.723-2.044C14.368,16.281,14.693,16,15,16h6c2.206,0,4-1.794,4-4h15.08
		c0.441,3.059,2.862,5.479,5.92,5.92V21C46,21.551,45.552,22,45,22z"/>
</g>
</svg>
