<?xml version="1.0" encoding="utf-8"?>
<!-- Generator: Adobe Illustrator 17.0.0, SVG Export Plug-In . SVG Version: 6.00 Build 0)  -->
<!DOCTYPE svg PUBLIC "-//W3C//DTD SVG 1.1//EN" "http://www.w3.org/Graphics/SVG/1.1/DTD/svg11.dtd">
<svg version="1.1" id="Layer_1" xmlns="http://www.w3.org/2000/svg" xmlns:xlink="http://www.w3.org/1999/xlink" x="0px" y="0px"
	 width="48px" height="48px" viewBox="0 0 48 48" enable-background="new 0 0 48 48" xml:space="preserve">
<g>
	<path fill="#010101" d="M43,7.378c-0.553,0-1,0.448-1,1V31c0,5.625-4.577,10.378-9.995,10.378h-4.032
		C27.66,38.36,25.104,36,22.005,36s-5.655,2.36-5.968,5.378H13c-0.553,0-1,0.448-1,1s0.447,1,1,1h3.171
		c0.625,2.646,3,4.622,5.834,4.622c2.833,0,5.209-1.976,5.834-4.622h4.166C38.507,43.378,44,37.709,44,31V8.378
		C44,7.826,43.553,7.378,43,7.378z M22.005,46c-2.206,0-4-1.794-4-4s1.794-4,4-4s4,1.794,4,4S24.211,46,22.005,46z"/>
	<path fill="#010101" d="M43,1.378c-0.553,0-1,0.448-1,1v2c0,0.552,0.447,1,1,1s1-0.448,1-1v-2C44,1.826,43.553,1.378,43,1.378z"/>
	<path fill="#010101" d="M22.001,30.986c1.379,2.592,4.033,4.392,7.004,4.392h4c2.761,0,5.226-2.231,5.843-5.031
		c0.052,0.008,0.098,0.031,0.152,0.031c0.553,0,1-0.448,1-1v-4c0-0.552-0.447-1-1-1c-0.125,0-0.243,0.029-0.353,0.071
		c-1.135-4.117-4.96-7.071-9.642-7.071H22h-6.995c-4.688,0-8.515,2.954-9.652,7.071C5.243,24.407,5.125,24.378,5,24.378
		c-0.553,0-1,0.448-1,1v4c0,0.552,0.447,1,1,1c0.054,0,0.1-0.022,0.152-0.031c0.618,2.8,3.087,5.031,5.853,5.031h4
		C17.973,35.378,20.623,33.579,22.001,30.986z M37,27v2c0,2.332-1.867,4.378-3.995,4.378h-4C25.806,33.378,23,30.397,23,27v-7.622
		h6.005C33.562,19.378,37,22.655,37,27z M7,29v-2c0-4.345,3.441-7.622,8.005-7.622H21V27c0,3.397-2.802,6.378-5.995,6.378h-4
		C8.909,33.378,7,31.291,7,29z"/>
</g>
</svg>
