<?xml version="1.0" encoding="utf-8"?>
<!-- Generator: Adobe Illustrator 17.1.0, SVG Export Plug-In . SVG Version: 6.00 Build 0)  -->
<!DOCTYPE svg PUBLIC "-//W3C//DTD SVG 1.0//EN" "http://www.w3.org/TR/2001/REC-SVG-20010904/DTD/svg10.dtd">
<svg version="1.0" id="Layer_1" xmlns="http://www.w3.org/2000/svg" xmlns:xlink="http://www.w3.org/1999/xlink" x="0px" y="0px"
	 width="48px" height="48px" viewBox="0 0 48 48" enable-background="new 0 0 48 48" xml:space="preserve">
<path d="M47,41c-0.489,0-0.898,0.352-0.983,0.816c-0.647,0.595-3.932,1.326-9.82,1.774l3.799-40.496
	c0.025-0.28-0.067-0.558-0.257-0.767C39.55,2.118,39.281,2,39,2H9C8.719,2,8.45,2.118,8.261,2.327
	C8.071,2.535,7.979,2.814,8.004,3.094L11.27,37.9c-0.004,0.035-0.02,0.065-0.02,0.1c0,0.098,0.03,0.186,0.056,0.275l0.499,5.315
	c-5.889-0.447-9.174-1.179-9.821-1.774C1.898,41.352,1.489,41,1,41c-0.553,0-1,0.447-1,1c0,1.385,1.373,2.467,8.072,3.243
	c1.404,0.163,2.98,0.299,4.667,0.411c0.057,0.01,0.111,0.032,0.171,0.032c0.031,0,0.062-0.001,0.095-0.004
	c0.01-0.001,0.017-0.007,0.027-0.008C16.333,45.886,20.078,46,24,46c3.923,0,7.667-0.114,10.968-0.326
	c0.01,0.001,0.017,0.007,0.027,0.008c0.09,0.008,0.172-0.014,0.256-0.028c1.691-0.112,3.27-0.248,4.676-0.412
	C46.627,44.467,48,43.385,48,42C48,41.447,47.553,41,47,41z M12.633,31h22.736l-0.563,6h-21.61L12.633,31z M37.902,4l-2.346,25
	H12.445L10.099,4H37.902z M13.827,43.725L13.383,39h21.234l-0.443,4.725C31.297,43.894,27.917,44,24,44
	C20.084,44,16.704,43.894,13.827,43.725z"/>
</svg>
