<?xml version="1.0" encoding="utf-8"?>
<!-- Generator: Adobe Illustrator 17.1.0, SVG Export Plug-In . SVG Version: 6.00 Build 0)  -->
<!DOCTYPE svg PUBLIC "-//W3C//DTD SVG 1.0//EN" "http://www.w3.org/TR/2001/REC-SVG-20010904/DTD/svg10.dtd">
<svg version="1.0" id="Layer_1" xmlns="http://www.w3.org/2000/svg" xmlns:xlink="http://www.w3.org/1999/xlink" x="0px" y="0px"
	 width="48px" height="48px" viewBox="0 0 48 48" enable-background="new 0 0 48 48" xml:space="preserve">
<path d="M40,12c0-0.005-0.003-0.009-0.003-0.014V1c0-0.553-0.447-1-1-1h-30c-0.553,0-1,0.447-1,1v46c0,0.553,0.447,1,1,1h13
	c0.553,0,1-0.447,1-1V19c0-0.552,0.448-1,1-1s1,0.448,1,1v28c0,0.553,0.447,1,1,1h13c0.553,0,1-0.447,1-1V12.015
	C39.997,12.009,40,12.005,40,12z M37.997,10.909C35.491,10.485,33.514,8.506,33.09,6h4.907V10.909z M37.997,4h-10V2h10V4z M21.997,4
	V2h4v2H21.997z M19.997,2v2h-10V2H19.997z M9.997,6h4.913c-0.423,2.508-2.404,4.488-4.913,4.91V6z M26.997,46V19
	c0-1.654-1.346-3-3-3s-3,1.346-3,3v27h-11V12.931c3.613-0.452,6.48-3.318,6.934-6.931h14.139c0.453,3.611,3.318,6.476,6.928,6.93V46
	H26.997z"/>
</svg>
