<?xml version="1.0" encoding="utf-8"?>
<!-- Generator: Adobe Illustrator 17.0.0, SVG Export Plug-In . SVG Version: 6.00 Build 0)  -->
<!DOCTYPE svg PUBLIC "-//W3C//DTD SVG 1.1//EN" "http://www.w3.org/Graphics/SVG/1.1/DTD/svg11.dtd">
<svg version="1.1" id="Layer_2" xmlns="http://www.w3.org/2000/svg" xmlns:xlink="http://www.w3.org/1999/xlink" x="0px" y="0px"
	 width="48px" height="48px" viewBox="0 0 48 48" enable-background="new 0 0 48 48" xml:space="preserve">
<g>
	<path fill="#010101" d="M47,6H1C0.448,6,0,6.447,0,7v34c0,0.553,0.448,1,1,1h46c0.552,0,1-0.447,1-1V7C48,6.447,47.552,6,47,6z
		 M46,40H2V8h44V40z"/>
	<path fill="#010101" d="M5,38h38c0.552,0,1-0.447,1-1V11c0-0.553-0.448-1-1-1H5c-0.552,0-1,0.447-1,1v26C4,37.553,4.448,38,5,38z
		 M8.143,30.485l6-10c0.361-0.602,1.353-0.602,1.715,0l5.276,8.793l4.099-4.919c0.38-0.455,1.156-0.455,1.536,0l4.078,4.895
		l7.286-12.75c0.274-0.479,0.886-0.648,1.364-0.372c0.479,0.274,0.646,0.885,0.372,1.364l-8,14c-0.163,0.284-0.454,0.472-0.78,0.5
		c-0.328,0.036-0.647-0.104-0.856-0.355L26,26.563l-4.232,5.078c-0.207,0.248-0.517,0.378-0.845,0.356
		c-0.323-0.025-0.614-0.205-0.78-0.482L15,22.943l-5.143,8.571C9.67,31.827,9.339,32,8.999,32c-0.175,0-0.353-0.046-0.514-0.143
		C8.012,31.573,7.858,30.959,8.143,30.485z"/>
</g>
</svg>
