<?xml version="1.0" encoding="utf-8"?>
<!-- Generator: Adobe Illustrator 17.0.0, SVG Export Plug-In . SVG Version: 6.00 Build 0)  -->
<!DOCTYPE svg PUBLIC "-//W3C//DTD SVG 1.1//EN" "http://www.w3.org/Graphics/SVG/1.1/DTD/svg11.dtd">
<svg version="1.1" id="Layer_2" xmlns="http://www.w3.org/2000/svg" xmlns:xlink="http://www.w3.org/1999/xlink" x="0px" y="0px"
	 width="48px" height="48px" viewBox="0 0 48 48" enable-background="new 0 0 48 48" xml:space="preserve">
<path fill="#010101" d="M40.547,2.408l-0.195-0.127l-0.23-0.028C40.038,2.242,38.033,2,35.625,2c-3.349,0-5.762,0.467-7.172,1.388
	c-1.592,1.039-3.349,2.415-3.905,2.856L8,10.298v10.434l11,2.02V33c0,0.974,0.701,1.785,1.624,1.962L9.293,46.293
	c-0.391,0.391-0.391,1.023,0,1.414C9.488,47.902,9.744,48,10,48s0.512-0.098,0.707-0.293L21,37.414V47c0,0.553,0.448,1,1,1
	s1-0.447,1-1v-9.586l10.293,10.293C33.488,47.902,33.744,48,34,48s0.512-0.098,0.707-0.293c0.391-0.391,0.391-1.023,0-1.414
	L23.376,34.962C24.299,34.785,25,33.974,25,33v-8.889c0.781,0.608,2.166,1.661,3.453,2.502C29.863,27.533,32.275,28,35.625,28h0.001
	c2.408,0,4.412-0.242,4.496-0.253l0.23-0.028l0.195-0.127C40.9,27.361,44,25.047,44,15C44,4.953,40.9,2.639,40.547,2.408z"/>
</svg>
