<?xml version="1.0" encoding="utf-8"?>
<!-- Generator: Adobe Illustrator 17.0.0, SVG Export Plug-In . SVG Version: 6.00 Build 0)  -->
<!DOCTYPE svg PUBLIC "-//W3C//DTD SVG 1.1//EN" "http://www.w3.org/Graphics/SVG/1.1/DTD/svg11.dtd">
<svg version="1.1" id="Layer_2" xmlns="http://www.w3.org/2000/svg" xmlns:xlink="http://www.w3.org/1999/xlink" x="0px" y="0px"
	 width="48px" height="48px" viewBox="0 0 48 48" enable-background="new 0 0 48 48" xml:space="preserve">
<g>
	<path fill="#010101" d="M15.709,18c-0.373,1.587-0.613,3.279-0.681,5h10c0.062-1.675,0.271-3.369,0.623-5H15.709z"/>
	<path fill="#010101" d="M15.028,25c0.068,1.721,0.308,3.414,0.681,5h9.942c-0.353-1.631-0.561-3.325-0.623-5H15.028z"/>
	<path fill="#010101" d="M17.884,9H16c-3.533,0-7,7.43-7,15c0,7.57,3.467,15,7,15h1.884c-3-3.087-4.884-9.268-4.884-15
		C13,18.268,14.884,12.087,17.884,9z"/>
	<path fill="#010101" d="M16.261,32c1.324,4.062,3.518,7,5.739,7h7.884c-1.592-1.639-2.867-4.143-3.714-7H16.261z"/>
	<path fill="#010101" d="M39,9c-3.533,0-7,7.43-7,15c0,7.57,3.467,15,7,15c5.047,0,9-6.589,9-15C48,15.589,44.047,9,39,9z"/>
	<path fill="#010101" d="M10.319,11.035C0.814,16.709,0,17.338,0,24c0,6.663,0.599,7.161,10.32,12.966C8.246,33.611,7,28.657,7,24
		C7,19.343,8.245,14.389,10.319,11.035z"/>
	<path fill="#010101" d="M26.17,16c0.847-2.857,2.122-5.361,3.714-7H22c-2.221,0-4.415,2.938-5.739,7H26.17z"/>
	<path fill="#010101" d="M34.884,9H34c-3.533,0-7,7.43-7,15c0,7.57,3.467,15,7,15h0.884c-3-3.087-4.884-9.268-4.884-15
		C30,18.268,31.884,12.087,34.884,9z"/>
</g>
</svg>
