<?xml version="1.0" encoding="utf-8"?>
<!-- Generator: Adobe Illustrator 17.0.0, SVG Export Plug-In . SVG Version: 6.00 Build 0)  -->
<!DOCTYPE svg PUBLIC "-//W3C//DTD SVG 1.1//EN" "http://www.w3.org/Graphics/SVG/1.1/DTD/svg11.dtd">
<svg version="1.1" id="Layer_2" xmlns="http://www.w3.org/2000/svg" xmlns:xlink="http://www.w3.org/1999/xlink" x="0px" y="0px"
	 width="48px" height="48px" viewBox="0 0 48 48" enable-background="new 0 0 48 48" xml:space="preserve">
<path fill="#010101" d="M39,8H9c-4.962,0-9,4.037-9,9v14c0,4.963,4.038,9,9,9h30c4.962,0,9-4.037,9-9V17C48,12.037,43.962,8,39,8z
	 M32.02,34c-0.007,0-0.013,0-0.02,0H16c-0.552,0-1-0.447-1-1c0-3.672,2.214-6.833,5.374-8.231C18.935,23.672,18,21.945,18,20
	c0-3.309,2.691-6,6-6c3.309,0,6,2.691,6,6c0,1.946-0.935,3.673-2.375,4.77c3.1,1.371,5.289,4.436,5.373,8.018
	c0.015,0.068,0.022,0.14,0.022,0.212C33.02,33.553,32.572,34,32.02,34z"/>
</svg>
