<?xml version="1.0" encoding="utf-8"?>
<!-- Generator: Adobe Illustrator 17.0.0, SVG Export Plug-In . SVG Version: 6.00 Build 0)  -->
<!DOCTYPE svg PUBLIC "-//W3C//DTD SVG 1.1//EN" "http://www.w3.org/Graphics/SVG/1.1/DTD/svg11.dtd">
<svg version="1.1" id="Layer_2" xmlns="http://www.w3.org/2000/svg" xmlns:xlink="http://www.w3.org/1999/xlink" x="0px" y="0px"
	 width="48px" height="48px" viewBox="0 0 48 48" enable-background="new 0 0 48 48" xml:space="preserve">
<g>
	<circle fill="#010101" cx="8" cy="20" r="2"/>
	<path fill="#010101" d="M29,16c-5.514,0-10,4.486-10,10c0,5.514,4.486,10,10,10c5.514,0,10-4.486,10-10C39,20.486,34.514,16,29,16z
		 M29,33c-3.86,0-7-3.141-7-7c0-3.859,3.14-7,7-7c3.86,0,7,3.141,7,7C36,29.859,32.86,33,29,33z"/>
	<path fill="#010101" d="M42.889,12h-3.271l-1.724-3.447l-0.062-0.107C36.781,6.868,35.42,6,34,6H24c-1.42,0-2.781,0.868-3.8,2.4
		L17.5,12H12v-1c0-1.598-1.454-3-3.111-3H7c-1.568,0-2.944,1.402-2.944,2.973l-0.03,1.083C0.735,12.413,0,14.589,0,16.444v20.778
		C0,40.259,1.863,42,5.111,42h37.777C46.137,42,48,40.259,48,37.223V16.444C48,14.417,47.113,12,42.889,12z M8,24
		c-2.206,0-4-1.794-4-4c0-2.206,1.794-4,4-4c2.206,0,4,1.794,4,4C12,22.206,10.206,24,8,24z M29,38c-6.617,0-12-5.383-12-12
		c0-6.617,5.383-12,12-12c6.617,0,12,5.383,12,12C41,32.617,35.617,38,29,38z"/>
</g>
</svg>
