<?xml version="1.0" encoding="utf-8"?>
<!-- Generator: Adobe Illustrator 17.0.0, SVG Export Plug-In . SVG Version: 6.00 Build 0)  -->
<!DOCTYPE svg PUBLIC "-//W3C//DTD SVG 1.1//EN" "http://www.w3.org/Graphics/SVG/1.1/DTD/svg11.dtd">
<svg version="1.1" id="Layer_2" xmlns="http://www.w3.org/2000/svg" xmlns:xlink="http://www.w3.org/1999/xlink" x="0px" y="0px"
	 width="48px" height="48px" viewBox="0 0 48 48" enable-background="new 0 0 48 48" xml:space="preserve">
<g>
	<path fill="#010101" d="M33,18c-4.962,0-9,4.037-9,9c0,4.963,4.038,9,9,9c4.962,0,9-4.037,9-9C42,22.037,37.962,18,33,18z M37,31
		h-8v-8h8V31z"/>
	<path fill="#010101" d="M45,12H15v-1c0-1.654-1.346-3-3-3H8c-1.654,0-3,1.346-3,3v1H3c-1.654,0-3,1.346-3,3v7h16
		c0.552,0,1,0.447,1,1c0,0.553-0.448,1-1,1H0v2h16c0.552,0,1,0.447,1,1c0,0.553-0.448,1-1,1H0v2h16c0.552,0,1,0.447,1,1
		c0,0.553-0.448,1-1,1H0v7c0,1.654,1.346,3,3,3h42c1.654,0,3-1.346,3-3V15C48,13.346,46.654,12,45,12z M33,38
		c-6.065,0-11-4.935-11-11c0-6.065,4.935-11,11-11c6.065,0,11,4.935,11,11C44,33.065,39.065,38,33,38z"/>
</g>
</svg>
