<?xml version="1.0" encoding="utf-8"?>
<!-- Generator: Adobe Illustrator 17.0.0, SVG Export Plug-In . SVG Version: 6.00 Build 0)  -->
<!DOCTYPE svg PUBLIC "-//W3C//DTD SVG 1.1//EN" "http://www.w3.org/Graphics/SVG/1.1/DTD/svg11.dtd">
<svg version="1.1" id="Layer_2" xmlns="http://www.w3.org/2000/svg" xmlns:xlink="http://www.w3.org/1999/xlink" x="0px" y="0px"
	 width="48px" height="48px" viewBox="0 0 48 48" enable-background="new 0 0 48 48" xml:space="preserve">
<g>
	<path fill="#010101" d="M4,29V11c0-0.553,0.448-1,1-1h28c0.552,0,1,0.447,1,1v3h4v-4c0-2.206-2.243-4-5-4H5c-2.757,0-5,2.243-5,5
		v18c0,2.757,1.794,5,4,5h4v-4H5C4.448,30,4,29.553,4,29z"/>
	<path fill="#010101" d="M43,16H15c-2.757,0-5,2.243-5,5v18c0,2.757,2.243,5,5,5h28c2.757,0,5-2.243,5-5V21
		C48,18.243,45.757,16,43,16z M44,39c0,0.553-0.448,1-1,1H15c-0.552,0-1-0.447-1-1V21c0-0.553,0.448-1,1-1h28c0.552,0,1,0.447,1,1
		V39z"/>
</g>
</svg>
