<?xml version="1.0" encoding="utf-8"?>
<!-- Generator: Adobe Illustrator 17.0.0, SVG Export Plug-In . SVG Version: 6.00 Build 0)  -->
<!DOCTYPE svg PUBLIC "-//W3C//DTD SVG 1.1//EN" "http://www.w3.org/Graphics/SVG/1.1/DTD/svg11.dtd">
<svg version="1.1" id="Layer_2" xmlns="http://www.w3.org/2000/svg" xmlns:xlink="http://www.w3.org/1999/xlink" x="0px" y="0px"
	 width="48px" height="48px" viewBox="0 0 48 48" enable-background="new 0 0 48 48" xml:space="preserve">
<g>
	<path fill="#010101" d="M24,0C10.767,0,0,10.767,0,24c0,13.233,10.767,24,24,24s24-10.767,24-24C48,10.767,37.233,0,24,0z M24,42
		c-9.925,0-18-8.075-18-18c0-9.925,8.075-18,18-18s18,8.075,18,18C42,33.925,33.925,42,24,42z"/>
	<path fill="#010101" d="M24.001,8L24.001,8c-5.111,0-9.659,2.418-12.59,6.16l4.604,7.673L24.001,8z"/>
	<path fill="#010101" d="M38.822,18h-9.049l8.072,13.983C39.208,29.63,40,26.908,40,24C40,21.878,39.576,19.855,38.822,18z"/>
	<path fill="#010101" d="M24,40c5.117,0,9.669-2.424,12.6-6.174l-4.518-7.825L24,40z"/>
	<path fill="#010101" d="M10.174,15.986C8.8,18.346,8,21.079,8,24c0,2.122,0.424,4.145,1.178,6h9.406L10.174,15.986z"/>
	<path fill="#010101" d="M37.835,16c-2.419-4.166-6.656-7.137-11.623-7.829L21.692,16H37.835z"/>
	<path fill="#010101" d="M10.165,32c2.419,4.166,6.657,7.138,11.624,7.829L26.309,32H10.165z"/>
</g>
</svg>
