<?xml version="1.0" encoding="utf-8"?>
<!-- Generator: Adobe Illustrator 17.0.0, SVG Export Plug-In . SVG Version: 6.00 Build 0)  -->
<!DOCTYPE svg PUBLIC "-//W3C//DTD SVG 1.1//EN" "http://www.w3.org/Graphics/SVG/1.1/DTD/svg11.dtd">
<svg version="1.1" id="Layer_2" xmlns="http://www.w3.org/2000/svg" xmlns:xlink="http://www.w3.org/1999/xlink" x="0px" y="0px"
	 width="48px" height="48px" viewBox="0 0 48 48" enable-background="new 0 0 48 48" xml:space="preserve">
<path fill="#010101" d="M31,0H17c-4.962,0-9,4.037-9,9v30c0,4.963,4.038,9,9,9h14c4.962,0,9-4.037,9-9V9C40,4.037,35.962,0,31,0z
	 M24,8c2.757,0,5,2.243,5,5c0,2.757-2.243,5-5,5c-2.757,0-5-2.243-5-5C19,10.243,21.243,8,24,8z M28,31.826V39c0,0.553-0.448,1-1,1
	h-6c-0.552,0-1-0.447-1-1v-7.174c-3.531-2.195-4-6.905-4-10.826c0-0.553,0.448-1,1-1h14c0.552,0,1,0.447,1,1
	C32,24.92,31.53,29.63,28,31.826z"/>
</svg>
