<?xml version="1.0" encoding="utf-8"?>
<!-- Generator: Adobe Illustrator 17.1.0, SVG Export Plug-In . SVG Version: 6.00 Build 0)  -->
<!DOCTYPE svg PUBLIC "-//W3C//DTD SVG 1.0//EN" "http://www.w3.org/TR/2001/REC-SVG-20010904/DTD/svg10.dtd">
<svg version="1.0" id="Layer_1" xmlns="http://www.w3.org/2000/svg" xmlns:xlink="http://www.w3.org/1999/xlink" x="0px" y="0px"
	 width="48px" height="48px" viewBox="0 0 48 48" enable-background="new 0 0 48 48" xml:space="preserve">
<g>
	<path d="M34,0v15H14V0H4v48h10V33h20v15h10V0H34z M12,46H8v-4h4V46z M12,38H8v-4h4V38z M12,30H8v-4h4V30z M12,22H8v-4h4V22z M12,14
		H8v-4h4V14z M12,6H8V2h4V6z M34,31H14V17h20V31z M40,46h-4v-4h4V46z M40,38h-4v-4h4V38z M40,30h-4v-4h4V30z M40,22h-4v-4h4V22z
		 M40,14h-4v-4h4V14z M40,6h-4V2h4V6z"/>
	<rect x="16" y="0.875" width="16" height="12.125"/>
	<rect x="16" y="19" width="16" height="10"/>
	<rect x="16" y="35" width="16" height="12"/>
</g>
</svg>
