<?xml version="1.0" encoding="utf-8"?>
<!-- Generator: Adobe Illustrator 17.0.0, SVG Export Plug-In . SVG Version: 6.00 Build 0)  -->
<!DOCTYPE svg PUBLIC "-//W3C//DTD SVG 1.1//EN" "http://www.w3.org/Graphics/SVG/1.1/DTD/svg11.dtd">
<svg version="1.1" id="Layer_2" xmlns="http://www.w3.org/2000/svg" xmlns:xlink="http://www.w3.org/1999/xlink" x="0px" y="0px"
	 width="48px" height="48px" viewBox="0 0 48 48" enable-background="new 0 0 48 48" xml:space="preserve">
<g>
	<polygon fill="#010101" points="31.704,21.338 31.704,21.337 31.704,21.337 	"/>
	<polygon fill="#010101" points="14.493,21.409 14.492,21.409 14.493,21.413 	"/>
	<rect y="40" fill="#010101" width="48" height="8"/>
	<path fill="#010101" d="M0,0v38h22v-7c0-0.553,0.448-1,1-1c0.552,0,1,0.447,1,1v7h24V0H0z M7.623,19.337l-0.044-0.162l0.011-0.168
		c0.185-2.756,4.254-3.502,6.38-3.512c2.251,0,4.219,0.858,6.057,2.625l0.702,0.674l-0.655,0.72
		c-0.108,0.118-2.672,2.899-5.581,2.899l-0.082-0.001C12.03,22.369,8.432,22.306,7.623,19.337z M21.464,27.951
		c-1.093,1.732-2.745,4.349-5.171,4.349c-0.325,0-0.654-0.047-0.979-0.141l-0.162-0.046l-0.137-0.097
		c-2.26-1.588-0.788-5.453,0.307-7.275c1.147-1.91,2.909-3.158,5.386-3.818l0.941-0.25l0.275,0.934
		C21.97,21.763,23.036,25.462,21.464,27.951z M21.924,16.228l-0.275,0.934l-0.941-0.251c-2.477-0.659-4.238-1.908-5.385-3.817
		c-1.095-1.822-2.567-5.688-0.307-7.276l0.138-0.097l0.162-0.046c0.325-0.094,0.654-0.141,0.978-0.141
		c2.427,0,4.079,2.617,5.172,4.35C23.036,12.371,21.97,16.071,21.924,16.228z M24.25,9.882c1.093-1.731,2.745-4.349,5.171-4.349
		c0.324,0,0.653,0.047,0.978,0.141l0.162,0.046l0.138,0.097c2.26,1.588,0.788,5.454-0.307,7.276
		c-1.146,1.909-2.908,3.157-5.385,3.817l-0.941,0.251l-0.275-0.934C23.745,16.071,22.679,12.371,24.25,9.882z M30.699,32.017
		l-0.137,0.097L30.4,32.159c-0.325,0.094-0.655,0.141-0.979,0.141h0c-2.425,0-4.077-2.616-5.17-4.348
		c-1.571-2.49-0.506-6.189-0.459-6.346l0.275-0.934l0.941,0.25c2.478,0.66,4.239,1.909,5.385,3.818
		C31.487,26.564,32.959,30.43,30.699,32.017z M38.124,18.825c-0.184,2.757-4.253,3.503-6.379,3.513h-0.042
		c-2.209,0-4.177-0.858-6.015-2.623l-0.703-0.675l0.655-0.72c0.108-0.118,2.672-2.9,5.581-2.9c2.463,0.044,6.061,0.107,6.87,3.076
		l0.044,0.162L38.124,18.825z"/>
</g>
</svg>
