<?xml version="1.0" encoding="utf-8"?>
<!-- Generator: Adobe Illustrator 17.0.0, SVG Export Plug-In . SVG Version: 6.00 Build 0)  -->
<!DOCTYPE svg PUBLIC "-//W3C//DTD SVG 1.1//EN" "http://www.w3.org/Graphics/SVG/1.1/DTD/svg11.dtd">
<svg version="1.1" id="Layer_2" xmlns="http://www.w3.org/2000/svg" xmlns:xlink="http://www.w3.org/1999/xlink" x="0px" y="0px"
	 width="48px" height="48px" viewBox="0 0 48 48" enable-background="new 0 0 48 48" xml:space="preserve">
<g>
	<polygon fill="#010101" points="7,36 0,36 0,48 48,48 48,36 44,36 	"/>
	<path fill="#010101" d="M0,0v34h6.336C7.378,31.603,11.069,24,16,24c4.015,0,7.336,3.327,8.89,5.204l5.275-9.044
		c0.777-1.332,2.219-2.16,3.761-2.16c1.66,0,3.152,0.923,3.895,2.407L44.618,34H48V0H0z M19,18h-6c-2.206,0-4-1.794-4-4
		c0-2.324,2.029-4.191,4.352-3.983C14.175,7.637,16.406,6,19,6c3.309,0,6,2.691,6,6C25,15.309,22.309,18,19,18z"/>
</g>
</svg>
