<?xml version="1.0" encoding="utf-8"?>
<!-- Generator: Adobe Illustrator 17.0.0, SVG Export Plug-In . SVG Version: 6.00 Build 0)  -->
<!DOCTYPE svg PUBLIC "-//W3C//DTD SVG 1.1//EN" "http://www.w3.org/Graphics/SVG/1.1/DTD/svg11.dtd">
<svg version="1.1" id="Layer_2" xmlns="http://www.w3.org/2000/svg" xmlns:xlink="http://www.w3.org/1999/xlink" x="0px" y="0px"
	 width="48px" height="48px" viewBox="0 0 48 48" enable-background="new 0 0 48 48" xml:space="preserve">
<g>
	<polygon fill="#010101" points="46,11 46,46 11,46 11,48 48,48 48,11 	"/>
	<polygon fill="#010101" points="44,5 42,5 42,42 5,42 5,44 44,44 	"/>
	<path fill="#010101" d="M14.143,20.485c0.167-0.277,0.458-0.457,0.78-0.483c0.328-0.02,0.638,0.108,0.845,0.356l4.142,4.972
		l7.257-10.886c0.207-0.312,0.572-0.485,0.946-0.439c0.373,0.043,0.69,0.291,0.822,0.642L34.693,30H40V0H0v30h8.434L14.143,20.485z
		 M12,6c2.206,0,4,1.794,4,4c0,2.206-1.794,4-4,4c-2.206,0-4-1.794-4-4C8,7.794,9.794,6,12,6z"/>
	<polygon fill="#010101" points="40,32 34,32 9,32 0,32 0,40 40,40 	"/>
</g>
</svg>
