<?xml version="1.0" encoding="utf-8"?>
<!-- Generator: Adobe Illustrator 17.1.0, SVG Export Plug-In . SVG Version: 6.00 Build 0)  -->
<!DOCTYPE svg PUBLIC "-//W3C//DTD SVG 1.0//EN" "http://www.w3.org/TR/2001/REC-SVG-20010904/DTD/svg10.dtd">
<svg version="1.0" id="Layer_1" xmlns="http://www.w3.org/2000/svg" xmlns:xlink="http://www.w3.org/1999/xlink" x="0px" y="0px"
	 width="48px" height="48px" viewBox="0 0 48 48" enable-background="new 0 0 48 48" xml:space="preserve">
<g>
	<rect x="35" y="7" width="3" height="2"/>
	<path d="M29,12c0-2.757-2.243-5-5-5c-2.757,0-5,2.243-5,5c0,2.757,2.243,5,5,5C26.757,17,29,14.757,29,12z"/>
	<circle cx="11.5" cy="18.562" r="0.5"/>
	<path d="M23,18.92V23h2v-4.08C24.672,18.967,24.34,19,24,19C23.66,19,23.327,18.967,23,18.92z"/>
	<path d="M21,18.315c-2.361-1.126-4-3.53-4-6.315s1.639-5.188,4-6.315V1h2v4.08C23.327,5.033,23.66,5,24,5
		c0.34,0,0.672,0.033,1,0.08V1h2v4.685c2.361,1.126,4,3.53,4,6.315s-1.639,5.189-4,6.315V23h17V7c0-3.859-3.14-7-7-7H11
		C7.14,0,4,3.141,4,7v16h17V18.315z M33,5h7v6h-7V5z M11.5,20.063c-0.827,0-1.5-0.673-1.5-1.5c0-0.827,0.673-1.5,1.5-1.5
		c0.827,0,1.5,0.673,1.5,1.5C13,19.39,12.327,20.063,11.5,20.063z"/>
	<path d="M0,30v6c0,2.206,1.794,4,4,4h4.421c-0.844,2.062-2.132,4.297-4.128,6.293L2.586,48h43.176l-2.122-1.769
		c-2.095-1.745-3.41-4.042-4.238-6.231H44c2.206,0,4-1.794,4-4v-6H0z M40.575,46H7.232c0.526-0.659,0.987-1.329,1.403-2H39.13
		C39.553,44.686,40.028,45.359,40.575,46z M44,34h-7.956c0.115,1.576,0.531,4.774,2.013,8H9.733c1.618-3.352,2.085-6.461,2.215-8H4
		v-2h6h27.998H44V34z"/>
	<polygon points="45.08,25 2.92,25 0.519,28 47.48,28 	"/>
</g>
</svg>
