<?xml version="1.0" encoding="utf-8"?>
<!-- Generator: Adobe Illustrator 17.0.0, SVG Export Plug-In . SVG Version: 6.00 Build 0)  -->
<!DOCTYPE svg PUBLIC "-//W3C//DTD SVG 1.1//EN" "http://www.w3.org/Graphics/SVG/1.1/DTD/svg11.dtd">
<svg version="1.1" id="Layer_2" xmlns="http://www.w3.org/2000/svg" xmlns:xlink="http://www.w3.org/1999/xlink" x="0px" y="0px"
	 width="48px" height="48px" viewBox="0 0 48 48" enable-background="new 0 0 48 48" xml:space="preserve">
<g>
	<path fill="#010101" d="M39,0H9C4.038,0,0,4.037,0,9v30c0,4.963,4.038,9,9,9h30c4.962,0,9-4.037,9-9V9C48,4.037,43.962,0,39,0z
		 M40,32c0,1.103-0.897,2-2,2H10c-1.103,0-2-0.897-2-2V18.363c0-1.103,0.897-2,2-2h6.364c0.265,0,0.52-0.105,0.707-0.293l4.07-4.07
		h5.717l4.071,4.07c0.188,0.188,0.442,0.293,0.707,0.293H38c1.103,0,2,0.897,2,2V32z"/>
	<circle fill="#010101" cx="36" cy="20.818" r="1.091"/>
	<path fill="#010101" d="M24,17.637c-3.559,0-6.455,2.896-6.455,6.454c0,3.56,2.896,6.455,6.455,6.455
		c3.559,0,6.455-2.896,6.455-6.455C30.455,20.532,27.559,17.637,24,17.637z M24,28.546c-2.456,0-4.455-1.999-4.455-4.455
		c0-2.456,1.998-4.454,4.455-4.454c2.456,0,4.455,1.998,4.455,4.454C28.455,26.547,26.456,28.546,24,28.546z"/>
</g>
</svg>
