<?xml version="1.0" encoding="utf-8"?>
<!-- Generator: Adobe Illustrator 17.0.0, SVG Export Plug-In . SVG Version: 6.00 Build 0)  -->
<!DOCTYPE svg PUBLIC "-//W3C//DTD SVG 1.1//EN" "http://www.w3.org/Graphics/SVG/1.1/DTD/svg11.dtd">
<svg version="1.1" id="Layer_2" xmlns="http://www.w3.org/2000/svg" xmlns:xlink="http://www.w3.org/1999/xlink" x="0px" y="0px"
	 width="48px" height="48px" viewBox="0 0 48 48" enable-background="new 0 0 48 48" xml:space="preserve">
<g>
	<path fill="#010101" d="M42.499,39.246L31,35.35v-5.923c3.592-2.836,5.801-7.609,5.801-12.901c0-0.983-0.086-1.941-0.234-2.873
		c0.035,0.526-0.339,0.995-0.869,1.06c-0.217,0.025-0.379,0.029-0.535,0.032c-0.114,0.002-0.221,0.001-0.381,0.032
		C34.012,14.925,33.281,15,32.588,15c-2.943,0-5.234-1.351-7.173-4.202c-0.461,0.419-1.027,0.849-1.636,1.281
		C26.165,12.457,28,14.51,28,17v11c0,2.757-2.243,5-5,5h-6v2.35L5.483,39.252C2.204,40.422,0,43.535,0,47v1h48v-1
		C48,43.536,45.796,40.422,42.499,39.246z"/>
	<path fill="#010101" d="M17.764,10c1.306,0,2.541,0.52,3.459,1.401c0.988-0.653,3.088-2.066,3.44-2.741l0.847-1.623l0.908,1.59
		c2.12,3.709,4.357,4.885,7.984,4.186c0.305-0.059,0.51-0.065,0.728-0.068c0.096-0.002,0.196-0.002,0.33-0.018
		c0.527-0.057,1,0.302,1.094,0.819C35.376,6.406,30.061,1,23.696,1h-0.143c-5.355,0-9.963,3.829-11.994,9.293
		C12.091,10.103,12.656,10,13.236,10H17.764z"/>
	<circle fill="#010101" cx="15" cy="22" r="3"/>
	<path fill="#010101" d="M3,31h20c1.654,0,3-1.346,3-3V17c0-1.654-1.346-3-3-3h-1.772c-0.358,0-0.688-0.191-0.867-0.501
		C19.821,12.561,18.851,12,17.764,12h-4.528c-1.066,0-2.016,0.545-2.562,1.453c-0.041,0.068-0.085,0.134-0.121,0.206L10.382,14
		h-0.61H6v-2H3v2c-1.654,0-3,1.346-3,3v11C0,29.654,1.346,31,3,31z M15,17c2.757,0,5,2.243,5,5c0,2.757-2.243,5-5,5
		c-2.757,0-5-2.243-5-5C10,19.243,12.243,17,15,17z"/>
</g>
</svg>
