<?xml version="1.0" encoding="utf-8"?>
<!-- Generator: Adobe Illustrator 17.0.0, SVG Export Plug-In . SVG Version: 6.00 Build 0)  -->
<!DOCTYPE svg PUBLIC "-//W3C//DTD SVG 1.1//EN" "http://www.w3.org/Graphics/SVG/1.1/DTD/svg11.dtd">
<svg version="1.1" id="Layer_1" xmlns="http://www.w3.org/2000/svg" xmlns:xlink="http://www.w3.org/1999/xlink" x="0px" y="0px"
	 width="48px" height="48px" viewBox="0 0 48 48" enable-background="new 0 0 48 48" xml:space="preserve">
<g>
	<path fill="#010101" d="M24,0C13.168,0,5,8.598,5,20c0,14.346,17.663,27.268,18.414,27.811C23.589,47.937,23.795,48,24,48
		s0.411-0.063,0.586-0.189C25.337,47.268,43,34.346,43,20C43,8.598,34.832,0,24,0z M24,45.746C20.944,43.379,7,31.922,7,20
		C7,9.738,14.309,2,24,2s17,7.738,17,18C41,31.922,27.056,43.379,24,45.746z"/>
	<path fill="#010101" d="M34,18h-9V9c0-0.552-0.447-1-1-1s-1,0.448-1,1v9h-9c-0.553,0-1,0.448-1,1s0.447,1,1,1h9v9
		c0,0.552,0.447,1,1,1s1-0.448,1-1v-9h9c0.553,0,1-0.448,1-1S34.553,18,34,18z"/>
</g>
</svg>
