<?xml version="1.0" encoding="utf-8"?>
<!-- Generator: Adobe Illustrator 17.0.0, SVG Export Plug-In . SVG Version: 6.00 Build 0)  -->
<!DOCTYPE svg PUBLIC "-//W3C//DTD SVG 1.1//EN" "http://www.w3.org/Graphics/SVG/1.1/DTD/svg11.dtd">
<svg version="1.1" id="Layer_1" xmlns="http://www.w3.org/2000/svg" xmlns:xlink="http://www.w3.org/1999/xlink" x="0px" y="0px"
	 width="48px" height="48px" viewBox="0 0 48 48" enable-background="new 0 0 48 48" xml:space="preserve">
<g>
	<path fill="#010101" d="M25,0C16.178,0,9,7.178,9,16c0,8.489,14.546,30.613,15.166,31.551C24.351,47.832,24.664,48,25,48
		s0.649-0.168,0.834-0.449C26.454,46.613,41,24.489,41,16C41,7.178,33.822,0,25,0z M25,45.159C21.867,40.264,11,22.791,11,16
		c0-7.72,6.28-14,14-14c7.72,0,14,6.28,14,14C39,22.789,28.133,40.264,25,45.159z"/>
	<path fill="#010101" d="M33,16h-7V9c0-0.552-0.447-1-1-1s-1,0.448-1,1v7h-7c-0.553,0-1,0.448-1,1s0.447,1,1,1h7v7
		c0,0.552,0.447,1,1,1s1-0.448,1-1v-7h7c0.553,0,1-0.448,1-1S33.553,16,33,16z"/>
</g>
</svg>
