<?xml version="1.0" encoding="utf-8"?>
<!-- Generator: Adobe Illustrator 17.0.0, SVG Export Plug-In . SVG Version: 6.00 Build 0)  -->
<!DOCTYPE svg PUBLIC "-//W3C//DTD SVG 1.1//EN" "http://www.w3.org/Graphics/SVG/1.1/DTD/svg11.dtd">
<svg version="1.1" id="Layer_1" xmlns="http://www.w3.org/2000/svg" xmlns:xlink="http://www.w3.org/1999/xlink" x="0px" y="0px"
	 width="48px" height="48px" viewBox="0 0 48 48" enable-background="new 0 0 48 48" xml:space="preserve">
<g>
	<path fill="#010101" d="M23,0C13.075,0,5,8.075,5,18c0,8.251,5.711,15.501,13.665,17.469l3.373,11.806
		C22.161,47.704,22.554,48,23,48s0.839-0.296,0.962-0.725l3.373-11.806C35.289,33.501,41,26.251,41,18C41,8.075,32.925,0,23,0z
		 M26.328,33.648c-0.362,0.077-0.652,0.348-0.755,0.704L23,43.36l-2.573-9.008c-0.103-0.356-0.393-0.627-0.755-0.704
		C12.329,32.095,7,25.514,7,18C7,9.178,14.178,2,23,2s16,7.178,16,16C39,25.514,33.671,32.095,26.328,33.648z"/>
	<path fill="#010101" d="M23,6c-6.617,0-12,5.383-12,12s5.383,12,12,12s12-5.383,12-12S29.617,6,23,6z M23,28
		c-5.514,0-10-4.486-10-10S17.486,8,23,8s10,4.486,10,10S28.514,28,23,28z"/>
	<path fill="#010101" d="M28,16h-4v-4c0-0.552-0.447-1-1-1s-1,0.448-1,1v4h-4c-0.553,0-1,0.448-1,1s0.447,1,1,1h4v4
		c0,0.552,0.447,1,1,1s1-0.448,1-1v-4h4c0.553,0,1-0.448,1-1S28.553,16,28,16z"/>
</g>
</svg>
