<?xml version="1.0" encoding="utf-8"?>
<!-- Generator: Adobe Illustrator 17.0.0, SVG Export Plug-In . SVG Version: 6.00 Build 0)  -->
<!DOCTYPE svg PUBLIC "-//W3C//DTD SVG 1.1//EN" "http://www.w3.org/Graphics/SVG/1.1/DTD/svg11.dtd">
<svg version="1.1" id="Layer_1" xmlns="http://www.w3.org/2000/svg" xmlns:xlink="http://www.w3.org/1999/xlink" x="0px" y="0px"
	 width="48px" height="48px" viewBox="0 0 48 48" enable-background="new 0 0 48 48" xml:space="preserve">
<g>
	<path fill="#010101" d="M14,0C5.103,0,0,5.103,0,14c0,8.516,12.655,25.857,13.194,26.592C13.382,40.848,13.682,41,14,41
		s0.618-0.152,0.806-0.408C15.345,39.857,28,22.516,28,14C28,5.103,22.897,0,14,0z M14,38.278C11.188,34.279,2,20.695,2,14
		C2,6.262,6.262,2,14,2s12,4.262,12,12C26,20.695,16.811,34.279,14,38.278z"/>
	<path fill="#010101" d="M35,22c-7.169,0-13,5.832-13,13c0,7.168,5.831,13,13,13c7.168,0,13-5.831,13-13S42.168,22,35,22z M35,46
		c-6.065,0-11-4.935-11-11s4.935-11,11-11s11,4.935,11,11S41.065,46,35,46z"/>
	<path fill="#010101" d="M40,34h-4v-4c0-0.552-0.448-1-1-1s-1,0.448-1,1v4h-4c-0.552,0-1,0.448-1,1s0.448,1,1,1h4v4
		c0,0.552,0.448,1,1,1s1-0.448,1-1v-4h4c0.552,0,1-0.448,1-1S40.552,34,40,34z"/>
</g>
</svg>
