<?xml version="1.0" encoding="utf-8"?>
<!-- Generator: Adobe Illustrator 17.0.0, SVG Export Plug-In . SVG Version: 6.00 Build 0)  -->
<!DOCTYPE svg PUBLIC "-//W3C//DTD SVG 1.1//EN" "http://www.w3.org/Graphics/SVG/1.1/DTD/svg11.dtd">
<svg version="1.1" id="Layer_1" xmlns="http://www.w3.org/2000/svg" xmlns:xlink="http://www.w3.org/1999/xlink" x="0px" y="0px"
	 width="48px" height="48px" viewBox="0 0 48 48" enable-background="new 0 0 48 48" xml:space="preserve">
<path fill="#010101" d="M47.707,0.293c-0.307-0.309-0.782-0.382-1.169-0.18l-46,24c-0.409,0.213-0.619,0.678-0.509,1.125
	C0.139,25.686,0.54,26,1,26h21v21c0,0.46,0.314,0.861,0.762,0.971C22.841,47.991,22.921,48,23,48c0.366,0,0.711-0.202,0.887-0.538
	l24-46C48.089,1.075,48.016,0.602,47.707,0.293z M24,42.921V25c0-0.552-0.448-1-1-1H5.079L44.642,3.358L24,42.921z"/>
</svg>
