<?xml version="1.0" encoding="utf-8"?>
<!-- Generator: Adobe Illustrator 17.0.0, SVG Export Plug-In . SVG Version: 6.00 Build 0)  -->
<!DOCTYPE svg PUBLIC "-//W3C//DTD SVG 1.1//EN" "http://www.w3.org/Graphics/SVG/1.1/DTD/svg11.dtd">
<svg version="1.1" id="Layer_1" xmlns="http://www.w3.org/2000/svg" xmlns:xlink="http://www.w3.org/1999/xlink" x="0px" y="0px"
	 width="48px" height="48px" viewBox="0 0 48 48" enable-background="new 0 0 48 48" xml:space="preserve">
<g>
	<path fill="#010101" d="M24,0C15.178,0,8,7.178,8,16c0,8.489,14.546,30.613,15.166,31.551C23.351,47.832,23.664,48,24,48
		s0.649-0.168,0.834-0.449C25.454,46.613,40,24.489,40,16C40,7.178,32.822,0,24,0z M24,45.159C20.867,40.264,10,22.791,10,16
		c0-7.72,6.28-14,14-14s14,6.28,14,14C38,22.789,27.133,40.264,24,45.159z"/>
	<path fill="#010101" d="M30.707,10.293c-0.391-0.391-1.023-0.391-1.414,0L24,15.586l-5.293-5.293c-0.391-0.391-1.023-0.391-1.414,0
		c-0.391,0.391-0.391,1.023,0,1.414L22.586,17l-5.293,5.293c-0.391,0.391-0.391,1.023,0,1.414C17.488,23.902,17.744,24,18,24
		s0.512-0.098,0.707-0.293L24,18.414l5.293,5.293C29.488,23.902,29.744,24,30,24s0.512-0.098,0.707-0.293
		c0.391-0.391,0.391-1.023,0-1.414L25.414,17l5.293-5.293C31.098,11.316,31.098,10.684,30.707,10.293z"/>
</g>
</svg>
