<?xml version="1.0" encoding="utf-8"?>
<!-- Generator: Adobe Illustrator 17.0.0, SVG Export Plug-In . SVG Version: 6.00 Build 0)  -->
<!DOCTYPE svg PUBLIC "-//W3C//DTD SVG 1.1//EN" "http://www.w3.org/Graphics/SVG/1.1/DTD/svg11.dtd">
<svg version="1.1" id="Layer_1" xmlns="http://www.w3.org/2000/svg" xmlns:xlink="http://www.w3.org/1999/xlink" x="0px" y="0px"
	 width="48px" height="48px" viewBox="0 0 48 48" enable-background="new 0 0 48 48" xml:space="preserve">
<g>
	<path fill="#010101" d="M25,0C14.168,0,6,8.598,6,20c0,14.346,17.663,27.268,18.414,27.811C24.589,47.937,24.795,48,25,48
		s0.411-0.063,0.586-0.189C26.337,47.268,44,34.346,44,20C44,8.598,35.832,0,25,0z M25,45.746C21.944,43.379,8,31.922,8,20
		C8,9.738,15.309,2,25,2s17,7.738,17,18C42,31.922,28.056,43.379,25,45.746z"/>
	<path fill="#010101" d="M32.707,11.293c-0.391-0.391-1.023-0.391-1.414,0L25,17.586l-6.293-6.293c-0.391-0.391-1.023-0.391-1.414,0
		c-0.391,0.391-0.391,1.023,0,1.414L23.586,19l-6.293,6.293c-0.391,0.391-0.391,1.023,0,1.414C17.488,26.902,17.744,27,18,27
		s0.512-0.098,0.707-0.293L25,20.414l6.293,6.293C31.488,26.902,31.744,27,32,27s0.512-0.098,0.707-0.293
		c0.391-0.391,0.391-1.023,0-1.414L26.414,19l6.293-6.293C33.098,12.316,33.098,11.684,32.707,11.293z"/>
</g>
</svg>
