<?xml version="1.0" encoding="utf-8"?>
<!-- Generator: Adobe Illustrator 17.0.0, SVG Export Plug-In . SVG Version: 6.00 Build 0)  -->
<!DOCTYPE svg PUBLIC "-//W3C//DTD SVG 1.1//EN" "http://www.w3.org/Graphics/SVG/1.1/DTD/svg11.dtd">
<svg version="1.1" id="Layer_1" xmlns="http://www.w3.org/2000/svg" xmlns:xlink="http://www.w3.org/1999/xlink" x="0px" y="0px"
	 width="48px" height="48px" viewBox="0 0 48 48" enable-background="new 0 0 48 48" xml:space="preserve">
<g>
	<path fill="#010101" d="M22,0C13.178,0,6,7.178,6,16c0,8.489,14.546,30.613,15.166,31.551C21.351,47.832,21.664,48,22,48
		s0.649-0.168,0.834-0.449C23.454,46.613,38,24.489,38,16C38,7.178,30.822,0,22,0z M22,45.159C18.867,40.264,8,22.791,8,16
		C8,8.28,14.28,2,22,2s14,6.28,14,14C36,22.789,25.133,40.264,22,45.159z"/>
	<path fill="#010101" d="M30,12h-5.323l-1.748-4.372C22.776,7.249,22.409,7,22,7s-0.776,0.249-0.929,0.628L19.323,12H14
		c-0.425,0-0.803,0.268-0.943,0.67c-0.141,0.401-0.013,0.847,0.318,1.112l4.456,3.564l-1.779,5.338
		c-0.141,0.421,0.013,0.884,0.376,1.137c0.364,0.253,0.85,0.237,1.197-0.04l4.375-3.5l4.375,3.5C26.558,23.927,26.778,24,27,24
		c0.199,0,0.399-0.06,0.572-0.18c0.363-0.254,0.517-0.717,0.376-1.137l-1.779-5.338l4.456-3.564
		c0.331-0.265,0.459-0.711,0.318-1.112C30.803,12.268,30.425,12,30,12z M24.374,16.219c-0.327,0.262-0.456,0.7-0.323,1.097
		l0.929,2.788l-2.355-1.885C22.442,18.073,22.221,18,22,18s-0.442,0.073-0.625,0.219l-2.356,1.885l0.929-2.788
		c0.133-0.397,0.004-0.835-0.323-1.097L16.851,14H20c0.409,0,0.776-0.249,0.929-0.629L22,10.692l1.071,2.68
		C23.224,13.751,23.591,14,24,14h3.149L24.374,16.219z"/>
</g>
</svg>
