<?xml version="1.0" encoding="utf-8"?>
<!-- Generator: Adobe Illustrator 17.0.0, SVG Export Plug-In . SVG Version: 6.00 Build 0)  -->
<!DOCTYPE svg PUBLIC "-//W3C//DTD SVG 1.1//EN" "http://www.w3.org/Graphics/SVG/1.1/DTD/svg11.dtd">
<svg version="1.1" id="Layer_1" xmlns="http://www.w3.org/2000/svg" xmlns:xlink="http://www.w3.org/1999/xlink" x="0px" y="0px"
	 width="48px" height="48px" viewBox="0 0 48 48" enable-background="new 0 0 48 48" xml:space="preserve">
<g>
	<path fill="#010101" d="M29,10h-3.382l-1.723-3.447c-0.339-0.678-1.45-0.678-1.789,0L20.382,10H17
		c-0.404,0-0.769,0.244-0.924,0.617c-0.155,0.374-0.069,0.804,0.217,1.09l2.622,2.622l-0.895,4.475
		c-0.082,0.406,0.096,0.821,0.447,1.042c0.351,0.222,0.801,0.204,1.133-0.046l3.4-2.55l3.4,2.55c0.177,0.133,0.388,0.2,0.6,0.2
		c0.185,0,0.37-0.051,0.533-0.154c0.35-0.221,0.529-0.635,0.447-1.042l-0.895-4.475l2.622-2.622c0.286-0.286,0.372-0.716,0.217-1.09
		C29.769,10.244,29.404,10,29,10z M25.293,13.293c-0.237,0.236-0.34,0.575-0.274,0.903l0.487,2.433L23.6,15.2
		C23.422,15.067,23.211,15,23,15s-0.422,0.067-0.6,0.2l-1.907,1.429l0.487-2.433c0.066-0.328-0.037-0.667-0.273-0.903L19.414,12H21
		c0.379,0,0.725-0.214,0.894-0.552L23,9.236l1.105,2.211C24.275,11.786,24.621,12,25,12h1.586L25.293,13.293z"/>
	<path fill="#010101" d="M23,0C13.972,0,9,4.972,9,14c0,4.936,3.536,10.235,6.955,15.36C19.064,34.02,22,38.421,22,42v5
		c0,0.552,0.448,1,1,1s1-0.448,1-1v-5c0-3.579,2.936-7.98,6.045-12.64C33.464,24.235,37,18.936,37,14C37,4.972,32.028,0,23,0z
		 M28.381,28.25c-2.141,3.21-4.205,6.304-5.381,9.229c-1.176-2.925-3.239-6.019-5.381-9.229C14.365,23.373,11,18.33,11,14
		c0-7.962,4.038-12,12-12s12,4.038,12,12C35,18.33,31.635,23.373,28.381,28.25z"/>
</g>
</svg>
