<?xml version="1.0" encoding="utf-8"?>
<!-- Generator: Adobe Illustrator 17.0.0, SVG Export Plug-In . SVG Version: 6.00 Build 0)  -->
<!DOCTYPE svg PUBLIC "-//W3C//DTD SVG 1.1//EN" "http://www.w3.org/Graphics/SVG/1.1/DTD/svg11.dtd">
<svg version="1.1" id="Layer_1" xmlns="http://www.w3.org/2000/svg" xmlns:xlink="http://www.w3.org/1999/xlink" x="0px" y="0px"
	 width="48px" height="48px" viewBox="0 0 48 48" enable-background="new 0 0 48 48" xml:space="preserve">
<g>
	<path fill="#010101" d="M36,14h-6.795l-2.264-6.336C26.8,7.266,26.423,7,26,7s-0.8,0.266-0.941,0.664L22.795,14H16
		c-0.421,0-0.797,0.264-0.94,0.66c-0.143,0.396-0.023,0.838,0.3,1.108l5.519,4.598l-1.848,7.391c-0.106,0.42,0.071,0.859,0.438,1.09
		c0.365,0.23,0.839,0.198,1.172-0.079L26,24.302l5.359,4.466C31.544,28.922,31.771,29,32,29c0.184,0,0.368-0.05,0.532-0.153
		c0.367-0.231,0.543-0.67,0.438-1.09l-1.848-7.391l5.518-4.598c0.324-0.269,0.444-0.712,0.3-1.108C36.797,14.264,36.421,14,36,14z
		 M29.359,19.232c-0.294,0.246-0.423,0.638-0.329,1.011l1.257,5.028l-3.646-3.039C26.455,22.077,26.227,22,26,22
		c-0.228,0-0.455,0.077-0.641,0.232l-3.646,3.039l1.257-5.028c0.094-0.373-0.035-0.765-0.329-1.011L18.762,16H23.5
		c0.423,0,0.8-0.266,0.941-0.664L26,10.973l1.559,4.363C27.7,15.734,28.077,16,28.5,16h4.738L29.359,19.232z"/>
	<path fill="#010101" d="M26,0C15.168,0,7,8.598,7,20c0,14.346,17.663,27.268,18.414,27.811C25.589,47.937,25.795,48,26,48
		s0.411-0.063,0.586-0.189C27.337,47.268,45,34.346,45,20C45,8.598,36.832,0,26,0z M26,45.746C22.944,43.379,9,31.922,9,20
		C9,9.738,16.309,2,26,2s17,7.738,17,18C43,31.922,29.056,43.379,26,45.746z"/>
</g>
</svg>
