<?xml version="1.0" encoding="utf-8"?>
<!-- Generator: Adobe Illustrator 17.0.0, SVG Export Plug-In . SVG Version: 6.00 Build 0)  -->
<!DOCTYPE svg PUBLIC "-//W3C//DTD SVG 1.1//EN" "http://www.w3.org/Graphics/SVG/1.1/DTD/svg11.dtd">
<svg version="1.1" id="Layer_1" xmlns="http://www.w3.org/2000/svg" xmlns:xlink="http://www.w3.org/1999/xlink" x="0px" y="0px"
	 width="48px" height="48px" viewBox="0 0 48 48" enable-background="new 0 0 48 48" xml:space="preserve">
<g>
	<path fill="#010101" d="M22,35c9.374,0,17-7.626,17-17S31.374,1,22,1S5,8.626,5,18S12.626,35,22,35z M22,3c8.271,0,15,6.729,15,15
		s-6.729,15-15,15c-8.272,0-15-6.729-15-15S13.728,3,22,3z"/>
	<path fill="#010101" d="M38.263,34.264c8.729-8.729,8.936-22.772,0.672-31.784l0.743-0.743c0.391-0.391,0.391-1.024,0-1.414
		c-0.391-0.391-1.023-0.391-1.414,0l-1.411,1.411c-0.001,0.001-0.003,0.002-0.004,0.003s-0.002,0.003-0.003,0.004l-1.41,1.411
		c-0.391,0.391-0.391,1.024,0,1.414c0.195,0.195,0.451,0.293,0.707,0.293c0.255,0,0.511-0.098,0.707-0.293l0.671-0.671
		c7.485,8.232,7.277,21.007-0.672,28.956c-7.948,7.95-20.724,8.155-28.956,0.67l0.671-0.671c0.391-0.391,0.391-1.024,0-1.414
		c-0.391-0.391-1.023-0.391-1.414,0l-1.413,1.413c0,0-0.001,0.001-0.001,0.001S5.735,32.85,5.735,32.85l-1.413,1.414
		c-0.391,0.391-0.391,1.024,0,1.414c0.195,0.195,0.451,0.293,0.707,0.293s0.512-0.097,0.707-0.293l0.743-0.744
		c3.859,3.538,8.627,5.536,13.521,5.959v1.211c-3.819,0.363-7.438,1.753-10.563,4.096c-0.345,0.258-0.486,0.708-0.35,1.116
		C9.224,47.725,9.605,48,10.036,48h23.927c0.431,0,0.812-0.275,0.949-0.684c0.135-0.408-0.005-0.858-0.35-1.116
		c-3.125-2.342-6.744-3.733-10.562-4.096v-1.211C29.206,40.443,34.288,38.239,38.263,34.264z M13.539,46c2.617-1.315,5.49-2,8.461-2
		c2.97,0,5.844,0.685,8.46,2H13.539z"/>
</g>
</svg>
