<?xml version="1.0" encoding="utf-8"?>
<!-- Generator: Adobe Illustrator 17.0.0, SVG Export Plug-In . SVG Version: 6.00 Build 0)  -->
<!DOCTYPE svg PUBLIC "-//W3C//DTD SVG 1.1//EN" "http://www.w3.org/Graphics/SVG/1.1/DTD/svg11.dtd">
<svg version="1.1" id="Layer_1" xmlns="http://www.w3.org/2000/svg" xmlns:xlink="http://www.w3.org/1999/xlink" x="0px" y="0px"
	 width="48px" height="48px" viewBox="0 0 48 48" enable-background="new 0 0 48 48" xml:space="preserve">
<g>
	<path fill="#010101" d="M24,14c3.86,0,7-3.14,7-7s-3.14-7-7-7s-7,3.14-7,7S20.14,14,24,14z M24,2c2.757,0,5,2.243,5,5s-2.243,5-5,5
		s-5-2.243-5-5S21.243,2,24,2z"/>
	<path fill="#010101" d="M20,29.067V37c0,0.552,0.448,1,1,1h6c0.552,0,1-0.448,1-1v-7.933C31.903,27.2,34,21.596,34,17
		c0-0.552-0.448-1-1-1H15c-0.552,0-1,0.448-1,1C14,21.596,16.097,27.2,20,29.067z M31.961,18c-0.292,3.926-2.26,8.395-5.292,9.456
		C26.269,27.597,26,27.975,26,28.4V36h-4v-7.6c0-0.424-0.269-0.803-0.669-0.944c-3.032-1.06-5-5.53-5.293-9.456H31.961z"/>
	<path fill="#010101" d="M24,41c-8.028,0-12.732-1.642-13.002-2.478c0.069-0.224,1.147-1.205,5.161-1.907
		c0.543-0.095,0.907-0.613,0.812-1.157c-0.095-0.543-0.607-0.907-1.157-0.812C11.292,35.436,9,36.733,9,38.5
		c0,3.552,9.429,4.5,15,4.5s15-0.948,15-4.5c0-1.764-2.283-3.059-6.788-3.851c-0.546-0.098-1.062,0.269-1.158,0.812
		c-0.095,0.544,0.268,1.062,0.812,1.158c3.994,0.702,5.067,1.68,5.136,1.859C36.732,39.358,32.028,41,24,41z"/>
	<path fill="#010101" d="M32.134,30.505c-0.549-0.074-1.05,0.315-1.12,0.864c-0.07,0.548,0.316,1.049,0.864,1.12
		C41.149,33.688,46,36.671,46,39c0,3.311-9.035,7-22,7S2,42.311,2,39c0-2.329,4.852-5.313,14.127-6.51
		c0.548-0.071,0.935-0.572,0.864-1.12c-0.071-0.549-0.577-0.939-1.12-0.864C8.198,31.496,0,34.248,0,39c0,4.363,8.412,9,24,9
		s24-4.637,24-9C48,34.249,39.804,31.497,32.134,30.505z"/>
</g>
</svg>
