<?xml version="1.0" encoding="utf-8"?>
<!-- Generator: Adobe Illustrator 17.0.0, SVG Export Plug-In . SVG Version: 6.00 Build 0)  -->
<!DOCTYPE svg PUBLIC "-//W3C//DTD SVG 1.1//EN" "http://www.w3.org/Graphics/SVG/1.1/DTD/svg11.dtd">
<svg version="1.1" id="Layer_1" xmlns="http://www.w3.org/2000/svg" xmlns:xlink="http://www.w3.org/1999/xlink" x="0px" y="0px"
	 width="48px" height="48px" viewBox="0 0 48 48" enable-background="new 0 0 48 48" xml:space="preserve">
<g>
	<path fill="#010101" d="M26,9c0,0.552,0.448,1,1,1s1-0.448,1-1c0-2.757-2.243-5-5-5c-0.552,0-1,0.448-1,1s0.448,1,1,1
		C24.654,6,26,7.346,26,9z"/>
	<path fill="#010101" d="M37.209,46.021L27.775,44l9.434-2.021c0.54-0.116,0.885-0.648,0.769-1.188
		c-0.116-0.54-0.65-0.884-1.188-0.769L24,42.762V17.941c4.493-0.5,8-4.317,8-8.941c0-4.962-4.038-9-9-9s-9,4.038-9,9
		c0,4.624,3.507,8.441,8,8.941v24.821L9.209,40.021c-0.542-0.115-1.071,0.229-1.187,0.769c-0.116,0.541,0.228,1.072,0.768,1.188
		L18.224,44L8.79,46.021c-0.54,0.116-0.884,0.648-0.768,1.188C8.123,47.679,8.538,48,8.999,48c0.069,0,0.14-0.007,0.21-0.022
		L23,45.023l13.79,2.955C36.861,47.993,36.932,48,37.001,48c0.461,0,0.876-0.321,0.977-0.791
		C38.093,46.668,37.749,46.137,37.209,46.021z M16,9c0-3.86,3.14-7,7-7s7,3.14,7,7s-3.14,7-7,7S16,12.86,16,9z"/>
</g>
</svg>
