<?xml version="1.0" encoding="utf-8"?>
<!-- Generator: Adobe Illustrator 17.0.0, SVG Export Plug-In . SVG Version: 6.00 Build 0)  -->
<!DOCTYPE svg PUBLIC "-//W3C//DTD SVG 1.1//EN" "http://www.w3.org/Graphics/SVG/1.1/DTD/svg11.dtd">
<svg version="1.1" id="Layer_1" xmlns="http://www.w3.org/2000/svg" xmlns:xlink="http://www.w3.org/1999/xlink" x="0px" y="0px"
	 width="48px" height="48px" viewBox="0 0 48 48" enable-background="new 0 0 48 48" xml:space="preserve">
<g>
	<path fill="#010101" d="M32.317,46.052L26.162,44l6.154-2.051c0.524-0.175,0.807-0.741,0.632-1.265
		c-0.174-0.524-0.739-0.808-1.265-0.632L23,42.946l-8.683-2.894c-0.525-0.177-1.09,0.108-1.265,0.632
		c-0.175,0.524,0.108,1.09,0.632,1.265L19.838,44l-6.155,2.052c-0.524,0.175-0.807,0.741-0.632,1.265
		c0.14,0.419,0.53,0.684,0.949,0.684c0.104,0,0.211-0.017,0.316-0.052L23,45.054l8.684,2.895c0.105,0.035,0.212,0.052,0.316,0.052
		c0.419,0,0.809-0.266,0.949-0.684C33.124,46.793,32.841,46.227,32.317,46.052z"/>
	<path fill="#010101" d="M14.316,34.98c4.06,3.806,8.069,5.831,8.237,5.915C22.693,40.965,22.847,41,23,41s0.307-0.035,0.447-0.105
		c0.169-0.084,4.177-2.109,8.237-5.915C37.125,29.879,40,24.008,40,18C40,7.065,33.327,0,23,0S6,7.065,6,18
		C6,24.008,8.875,29.879,14.316,34.98z M23,2c9.112,0,15,6.28,15,16c0,11.922-12.461,19.455-15,20.865C20.458,37.458,8,29.94,8,18
		C8,8.28,13.888,2,23,2z"/>
	<path fill="#010101" d="M23,26c4.962,0,9-4.038,9-9s-4.038-9-9-9s-9,4.038-9,9S18.038,26,23,26z M23,10c3.86,0,7,3.14,7,7
		s-3.14,7-7,7s-7-3.14-7-7S19.14,10,23,10z"/>
</g>
</svg>
