<?xml version="1.0" encoding="utf-8"?>
<!-- Generator: Adobe Illustrator 17.0.0, SVG Export Plug-In . SVG Version: 6.00 Build 0)  -->
<!DOCTYPE svg PUBLIC "-//W3C//DTD SVG 1.1//EN" "http://www.w3.org/Graphics/SVG/1.1/DTD/svg11.dtd">
<svg version="1.1" id="Layer_1" xmlns="http://www.w3.org/2000/svg" xmlns:xlink="http://www.w3.org/1999/xlink" x="0px" y="0px"
	 width="48px" height="48px" viewBox="0 0 48 48" enable-background="new 0 0 48 48" xml:space="preserve">
<g>
	<path fill="#010101" d="M32.317,46.052L26.162,44l6.154-2.051c0.524-0.175,0.807-0.741,0.632-1.265
		c-0.175-0.523-0.738-0.809-1.265-0.632L23,42.946l-8.683-2.894c-0.526-0.177-1.091,0.109-1.265,0.632
		c-0.175,0.524,0.108,1.09,0.632,1.265L19.838,44l-6.155,2.052c-0.524,0.175-0.807,0.741-0.632,1.265
		c0.14,0.419,0.53,0.684,0.949,0.684c0.104,0,0.211-0.017,0.316-0.052L23,45.054l8.684,2.895c0.105,0.035,0.211,0.052,0.316,0.052
		c0.419,0,0.809-0.266,0.949-0.684C33.124,46.793,32.841,46.227,32.317,46.052z"/>
	<path fill="#010101" d="M23,6c-5.514,0-10,4.486-10,10s4.486,10,10,10s10-4.486,10-10S28.514,6,23,6z M23,24c-4.411,0-8-3.589-8-8
		s3.589-8,8-8s8,3.589,8,8S27.411,24,23,24z"/>
	<path fill="#010101" d="M23,0C14.178,0,7,7.178,7,16c0,7.483,5.193,13.943,12.433,15.59l2.609,8.697C22.169,40.71,22.559,41,23,41
		s0.831-0.29,0.958-0.713l2.609-8.697C33.807,29.943,39,23.483,39,16C39,7.178,31.822,0,23,0z M25.595,29.749
		c-0.367,0.069-0.666,0.338-0.773,0.696L23,36.52l-1.823-6.074c-0.107-0.359-0.406-0.627-0.773-0.696C13.796,28.51,9,22.727,9,16
		C9,8.28,15.28,2,23,2s14,6.28,14,14C37,22.727,32.204,28.51,25.595,29.749z"/>
</g>
</svg>
