<?xml version="1.0" encoding="utf-8"?>
<!-- Generator: Adobe Illustrator 17.0.0, SVG Export Plug-In . SVG Version: 6.00 Build 0)  -->
<!DOCTYPE svg PUBLIC "-//W3C//DTD SVG 1.1//EN" "http://www.w3.org/Graphics/SVG/1.1/DTD/svg11.dtd">
<svg version="1.1" id="Layer_1" xmlns="http://www.w3.org/2000/svg" xmlns:xlink="http://www.w3.org/1999/xlink" x="0px" y="0px"
	 width="48px" height="48px" viewBox="0 0 48 48" enable-background="new 0 0 48 48" xml:space="preserve">
<g>
	<path fill="#010101" d="M22,13.92V34c0,0.552,0.447,1,1,1s1-0.448,1-1V13.92c3.386-0.488,6-3.401,6-6.92c0-3.86-3.141-7-7-7
		s-7,3.14-7,7C16,10.52,18.614,13.432,22,13.92z M23,2c2.757,0,5,2.243,5,5s-2.243,5-5,5s-5-2.243-5-5S20.243,2,23,2z"/>
	<path fill="#010101" d="M47.275,24.039l-14-4c-0.16-0.046-0.328-0.052-0.491-0.015l-4,0.889c-0.539,0.12-0.879,0.654-0.76,1.193
		c0.12,0.54,0.657,0.877,1.193,0.759L32,22.247v19.951l-16,3.555V25.802l1.216-0.27c0.539-0.12,0.879-0.654,0.76-1.193
		c-0.12-0.539-0.653-0.875-1.193-0.759l-1.752,0.389l-13.757-3.93c-0.299-0.086-0.626-0.026-0.877,0.163C0.147,20.391,0,20.686,0,21
		v22c0,0.446,0.296,0.839,0.726,0.961l14,4c0.16,0.047,0.329,0.053,0.491,0.015l17.753-3.945l13.756,3.93
		C46.815,47.987,46.908,48,47,48c0.215,0,0.427-0.069,0.602-0.202C47.852,47.609,48,47.314,48,47V25
		C48,24.554,47.704,24.161,47.275,24.039z M2,22.326l12,3.428v19.921L2,42.246V22.326z M46,45.674l-12-3.428V22.325l12,3.429V45.674
		z"/>
	<path fill="#010101" d="M23,6c0.552,0,1,0.449,1,1c0,0.552,0.447,1,1,1s1-0.448,1-1c0-1.654-1.346-3-3-3c-0.553,0-1,0.448-1,1
		S22.447,6,23,6z"/>
</g>
</svg>
