<?xml version="1.0" encoding="utf-8"?>
<!-- Generator: Adobe Illustrator 17.0.0, SVG Export Plug-In . SVG Version: 6.00 Build 0)  -->
<!DOCTYPE svg PUBLIC "-//W3C//DTD SVG 1.1//EN" "http://www.w3.org/Graphics/SVG/1.1/DTD/svg11.dtd">
<svg version="1.1" id="Layer_1" xmlns="http://www.w3.org/2000/svg" xmlns:xlink="http://www.w3.org/1999/xlink" x="0px" y="0px"
	 width="48px" height="48px" viewBox="0 0 48 48" enable-background="new 0 0 48 48" xml:space="preserve">
<g>
	<path fill="#010101" d="M32.949,40.684c-0.175-0.524-0.736-0.808-1.265-0.632l-8.683,2.894l-8.684-2.894
		c-0.529-0.177-1.09,0.108-1.265,0.632c-0.175,0.524,0.109,1.09,0.632,1.265L19.839,44l-6.155,2.052
		c-0.524,0.175-0.807,0.741-0.632,1.265c0.139,0.419,0.529,0.684,0.948,0.684c0.104,0,0.211-0.017,0.317-0.052l8.684-2.895
		l8.683,2.895c0.105,0.035,0.211,0.052,0.316,0.052c0.419,0,0.809-0.266,0.949-0.684c0.175-0.524-0.109-1.09-0.632-1.265L26.162,44
		l6.155-2.052C32.841,41.774,33.124,41.208,32.949,40.684z"/>
	<path fill="#010101" d="M22,37v3c0,0.552,0.447,1,1,1s1-0.448,1-1v-3c0-2.705,2.715-6.9,5.34-10.956C32.251,21.544,35,17.295,35,14
		c0-9.29-4.037-14-12-14S11,4.71,11,14c0,3.295,2.749,7.544,5.66,12.044C19.285,30.1,22,34.295,22,37z M23,2c6.822,0,10,3.813,10,12
		c0,2.705-2.715,6.9-5.34,10.957c-1.833,2.833-3.601,5.566-4.66,8.025c-1.058-2.459-2.827-5.192-4.66-8.025
		C15.715,20.9,13,16.705,13,14C13,5.813,16.178,2,23,2z"/>
	<path fill="#010101" d="M23,18c3.309,0,6-2.691,6-6s-2.691-6-6-6s-6,2.691-6,6S19.691,18,23,18z M23,8c2.206,0,4,1.794,4,4
		s-1.794,4-4,4s-4-1.794-4-4S20.794,8,23,8z"/>
</g>
</svg>
