<?xml version="1.0" encoding="utf-8"?>
<!-- Generator: Adobe Illustrator 17.0.0, SVG Export Plug-In . SVG Version: 6.00 Build 0)  -->
<!DOCTYPE svg PUBLIC "-//W3C//DTD SVG 1.1//EN" "http://www.w3.org/Graphics/SVG/1.1/DTD/svg11.dtd">
<svg version="1.1" id="Layer_1" xmlns="http://www.w3.org/2000/svg" xmlns:xlink="http://www.w3.org/1999/xlink" x="0px" y="0px"
	 width="48px" height="48px" viewBox="0 0 48 48" enable-background="new 0 0 48 48" xml:space="preserve">
<g>
	<path fill="#010101" d="M23,41c0.318,0,0.618-0.152,0.806-0.408C24.345,39.857,37,22.516,37,14c0-8.897-5.103-14-14-14
		S9,5.103,9,14c0,8.516,12.655,25.857,13.194,26.592C22.382,40.848,22.682,41,23,41z M23,2c7.738,0,12,4.262,12,12
		c0,6.695-9.188,20.279-12,24.278C20.188,34.279,11,20.695,11,14C11,6.262,15.262,2,23,2z"/>
	<path fill="#010101" d="M29,14c0-3.309-2.691-6-6-6s-6,2.691-6,6s2.691,6,6,6S29,17.309,29,14z M19,14c0-2.206,1.794-4,4-4
		s4,1.794,4,4s-1.794,4-4,4S19,16.206,19,14z"/>
	<path fill="#010101" d="M32.317,46.051l-6.155-2.052l6.154-2.051c0.524-0.175,0.807-0.741,0.632-1.265
		c-0.174-0.523-0.739-0.808-1.265-0.632L23,42.945l-8.683-2.894c-0.525-0.177-1.09,0.109-1.265,0.632
		c-0.175,0.524,0.108,1.09,0.632,1.265l6.154,2.051l-6.155,2.052c-0.524,0.175-0.807,0.741-0.632,1.265
		C13.191,47.735,13.581,48,14,48c0.104,0,0.211-0.016,0.316-0.052L23,45.053l8.684,2.895C31.789,47.983,31.896,48,32,48
		c0.419,0,0.809-0.265,0.949-0.684C33.124,46.792,32.841,46.226,32.317,46.051z"/>
</g>
</svg>
