<?xml version="1.0" encoding="utf-8"?>
<!-- Generator: Adobe Illustrator 17.0.0, SVG Export Plug-In . SVG Version: 6.00 Build 0)  -->
<!DOCTYPE svg PUBLIC "-//W3C//DTD SVG 1.1//EN" "http://www.w3.org/Graphics/SVG/1.1/DTD/svg11.dtd">
<svg version="1.1" id="Layer_1" xmlns="http://www.w3.org/2000/svg" xmlns:xlink="http://www.w3.org/1999/xlink" x="0px" y="0px"
	 width="48px" height="48px" viewBox="0 0 48 48" enable-background="new 0 0 48 48" xml:space="preserve">
<g>
	<path fill="#010101" d="M30,2.943l12,8.572V21c0,0.552,0.447,1,1,1s1-0.448,1-1V11c0-0.323-0.156-0.626-0.419-0.814l-14-10
		c-0.039-0.028-0.083-0.041-0.125-0.062c-0.036-0.019-0.068-0.039-0.106-0.053C29.237,0.028,29.12,0,29,0c0,0,0,0,0,0
		c0,0-0.001,0-0.001,0c-0.119,0-0.236,0.028-0.348,0.07c-0.038,0.014-0.071,0.035-0.107,0.054c-0.041,0.021-0.085,0.034-0.124,0.062
		L15,9.771L1.581,0.186C1.276-0.031,0.875-0.061,0.542,0.111C0.209,0.282,0,0.626,0,1v32c0,0.323,0.156,0.626,0.419,0.814l14,10
		c0.039,0.028,0.083,0.041,0.125,0.062c0.036,0.019,0.068,0.039,0.106,0.053C14.763,43.972,14.88,44,15,44
		c0.12,0,0.237-0.028,0.351-0.071c0.037-0.014,0.069-0.034,0.104-0.052c0.042-0.022,0.087-0.035,0.127-0.063l12-8.571
		c0.449-0.321,0.553-0.946,0.232-1.395c-0.322-0.45-0.946-0.553-1.395-0.233L16,41.057V11.515l12-8.571V21c0,0.552,0.447,1,1,1
		s1-0.448,1-1V2.943z M2,2.943l12,8.572v29.542L2,32.485V2.943z"/>
	<path fill="#010101" d="M39,24c-4.963,0-9,4.038-9,9c0,4.646,7.39,13.631,8.232,14.641C38.422,47.869,38.703,48,39,48
		s0.578-0.131,0.768-0.359C40.61,46.631,48,37.646,48,33C48,28.038,43.963,24,39,24z M39,45.414C36.512,42.28,32,35.981,32,33
		c0-3.86,3.141-7,7-7s7,3.14,7,7C46,35.981,41.488,42.28,39,45.414z"/>
	<path fill="#010101" d="M39,29c-2.206,0-4,1.794-4,4s1.794,4,4,4s4-1.794,4-4S41.206,29,39,29z M39,35c-1.103,0-2-0.897-2-2
		s0.897-2,2-2c1.102,0,2,0.897,2,2S40.102,35,39,35z"/>
</g>
</svg>
