<?xml version="1.0" encoding="utf-8"?>
<!-- Generator: Adobe Illustrator 17.0.0, SVG Export Plug-In . SVG Version: 6.00 Build 0)  -->
<!DOCTYPE svg PUBLIC "-//W3C//DTD SVG 1.1//EN" "http://www.w3.org/Graphics/SVG/1.1/DTD/svg11.dtd">
<svg version="1.1" id="Layer_1" xmlns="http://www.w3.org/2000/svg" xmlns:xlink="http://www.w3.org/1999/xlink" x="0px" y="0px"
	 width="48px" height="48px" viewBox="0 0 48 48" enable-background="new 0 0 48 48" xml:space="preserve">
<path fill="#010101" d="M43.581,10.186l-14-10c-0.039-0.028-0.083-0.041-0.124-0.062c-0.036-0.019-0.069-0.039-0.107-0.053
	c-0.227-0.085-0.473-0.085-0.7,0c-0.038,0.014-0.071,0.035-0.107,0.053c-0.041,0.021-0.086,0.034-0.124,0.062L15,9.771L1.581,0.186
	C1.275-0.031,0.876-0.061,0.542,0.111C0.209,0.282,0,0.626,0,1v32c0,0.323,0.156,0.626,0.419,0.814l14,10
	c0.039,0.028,0.083,0.041,0.124,0.062c0.036,0.019,0.069,0.039,0.107,0.053c0.227,0.085,0.473,0.085,0.7,0
	c0.038-0.014,0.071-0.035,0.107-0.053c0.041-0.021,0.086-0.034,0.124-0.062L29,34.229l13.419,9.585C42.592,43.937,42.795,44,43,44
	c0.156,0,0.313-0.037,0.458-0.111C43.791,43.718,44,43.375,44,43V11C44,10.677,43.844,10.374,43.581,10.186z M16,11.515l12-8.571
	v29.542l-12,8.571V11.515z M2,2.943l12,8.572v29.542L2,32.485V2.943z M42,41.057l-12-8.572V2.943l12,8.572V41.057z"/>
</svg>
