<?xml version="1.0" encoding="utf-8"?>
<!-- Generator: Adobe Illustrator 17.0.0, SVG Export Plug-In . SVG Version: 6.00 Build 0)  -->
<!DOCTYPE svg PUBLIC "-//W3C//DTD SVG 1.1//EN" "http://www.w3.org/Graphics/SVG/1.1/DTD/svg11.dtd">
<svg version="1.1" id="Layer_1" xmlns="http://www.w3.org/2000/svg" xmlns:xlink="http://www.w3.org/1999/xlink" x="0px" y="0px"
	 width="48px" height="48px" viewBox="0 0 48 48" enable-background="new 0 0 48 48" xml:space="preserve">
<g>
	<path fill="#010101" d="M23,0C13.972,0,9,4.972,9,14c0,4.936,3.536,10.235,6.955,15.36C19.064,34.02,22,38.421,22,42v5
		c0,0.552,0.448,1,1,1s1-0.448,1-1v-5c0-3.579,2.936-7.98,6.045-12.64C33.464,24.235,37,18.936,37,14C37,4.972,32.028,0,23,0z
		 M28.381,28.25c-2.141,3.21-4.205,6.304-5.381,9.229c-1.175-2.925-3.239-6.019-5.381-9.229C14.365,23.373,11,18.33,11,14
		c0-7.962,4.038-12,12-12s12,4.038,12,12C35,18.33,31.635,23.373,28.381,28.25z"/>
	<path fill="#010101" d="M23,6c-4.411,0-8,3.589-8,8s3.589,8,8,8s8-3.589,8-8S27.411,6,23,6z M23,20c-3.309,0-6-2.691-6-6
		s2.691-6,6-6s6,2.691,6,6S26.309,20,23,20z"/>
</g>
</svg>
