<?xml version="1.0" encoding="utf-8"?>
<!-- Generator: Adobe Illustrator 17.0.0, SVG Export Plug-In . SVG Version: 6.00 Build 0)  -->
<!DOCTYPE svg PUBLIC "-//W3C//DTD SVG 1.1//EN" "http://www.w3.org/Graphics/SVG/1.1/DTD/svg11.dtd">
<svg version="1.1" id="Layer_1" xmlns="http://www.w3.org/2000/svg" xmlns:xlink="http://www.w3.org/1999/xlink" x="0px" y="0px"
	 width="48px" height="48px" viewBox="0 0 48 48" enable-background="new 0 0 48 48" xml:space="preserve">
<g>
	<path fill="#010101" d="M32,9c0-4.962-4.038-9-9-9s-9,4.038-9,9c0,4.624,3.507,8.441,8,8.941V47c0,0.552,0.448,1,1,1s1-0.448,1-1
		V17.941C28.493,17.441,32,13.624,32,9z M23,16c-3.86,0-7-3.14-7-7s3.14-7,7-7s7,3.14,7,7S26.86,16,23,16z"/>
	<path fill="#010101" d="M23,4c-0.552,0-1,0.448-1,1s0.448,1,1,1c1.654,0,3,1.346,3,3c0,0.552,0.448,1,1,1s1-0.448,1-1
		C28,6.243,25.757,4,23,4z"/>
</g>
</svg>
