<?xml version="1.0" encoding="utf-8"?>
<!-- Generator: Adobe Illustrator 17.0.0, SVG Export Plug-In . SVG Version: 6.00 Build 0)  -->
<!DOCTYPE svg PUBLIC "-//W3C//DTD SVG 1.1//EN" "http://www.w3.org/Graphics/SVG/1.1/DTD/svg11.dtd">
<svg version="1.1" id="Layer_1" xmlns="http://www.w3.org/2000/svg" xmlns:xlink="http://www.w3.org/1999/xlink" x="0px" y="0px"
	 width="48px" height="48px" viewBox="0 0 48 48" enable-background="new 0 0 48 48" xml:space="preserve">
<g>
	<path fill="#010101" d="M22,17.941V41c0,0.552,0.448,1,1,1s1-0.448,1-1V17.941c4.493-0.5,8-4.317,8-8.941c0-4.962-4.038-9-9-9
		s-9,4.038-9,9C14,13.624,17.507,17.441,22,17.941z M23,2c3.86,0,7,3.14,7,7s-3.14,7-7,7s-7-3.14-7-7S19.14,2,23,2z"/>
	<path fill="#010101" d="M23,6c1.654,0,3,1.346,3,3c0,0.552,0.448,1,1,1s1-0.448,1-1c0-2.757-2.243-5-5-5c-0.552,0-1,0.448-1,1
		S22.448,6,23,6z"/>
	<path fill="#010101" d="M29.039,38.096c-0.556-0.031-1.017,0.41-1.038,0.961c-0.022,0.551,0.408,1.016,0.96,1.037
		c11.342,0.438,16.262,2.111,16.988,2.908C44.971,44.128,37.177,46,24,46S3.029,44.127,2.05,43.002
		c0.67-0.739,4.911-2.25,14.961-2.812c0.552-0.031,0.974-0.503,0.943-1.054c-0.03-0.552-0.51-0.967-1.054-0.943
		C9.19,38.624,0,39.807,0,43c0,4.86,21.543,5,24,5c2.456,0,24-0.14,24-5C48,39.234,34.74,38.315,29.039,38.096z"/>
</g>
</svg>
