<?xml version="1.0" encoding="utf-8"?>
<!-- Generator: Adobe Illustrator 17.0.0, SVG Export Plug-In . SVG Version: 6.00 Build 0)  -->
<!DOCTYPE svg PUBLIC "-//W3C//DTD SVG 1.1//EN" "http://www.w3.org/Graphics/SVG/1.1/DTD/svg11.dtd">
<svg version="1.1" id="Layer_1" xmlns="http://www.w3.org/2000/svg" xmlns:xlink="http://www.w3.org/1999/xlink" x="0px" y="0px"
	 width="48px" height="48px" viewBox="0 0 48 48" enable-background="new 0 0 48 48" xml:space="preserve">
<g>
	<path fill="#010101" d="M26,0c-8.822,0-16,7.178-16,16c0,8.489,14.546,30.613,15.166,31.551C25.351,47.832,25.664,48,26,48
		s0.649-0.168,0.834-0.449C27.454,46.613,42,24.489,42,16C42,7.178,34.822,0,26,0z M26,45.159C22.867,40.264,12,22.791,12,16
		c0-7.72,6.28-14,14-14c7.72,0,14,6.28,14,14C40,22.789,29.133,40.264,26,45.159z"/>
	<path fill="#010101" d="M26,9c-3.859,0-7,3.14-7,7s3.141,7,7,7s7-3.14,7-7S29.859,9,26,9z M26,21c-2.757,0-5-2.243-5-5s2.243-5,5-5
		s5,2.243,5,5S28.757,21,26,21z"/>
</g>
</svg>
