<?xml version="1.0" encoding="utf-8"?>
<!-- Generator: Adobe Illustrator 17.0.0, SVG Export Plug-In . SVG Version: 6.00 Build 0)  -->
<!DOCTYPE svg PUBLIC "-//W3C//DTD SVG 1.1//EN" "http://www.w3.org/Graphics/SVG/1.1/DTD/svg11.dtd">
<svg version="1.1" id="Layer_1" xmlns="http://www.w3.org/2000/svg" xmlns:xlink="http://www.w3.org/1999/xlink" x="0px" y="0px"
	 width="48px" height="48px" viewBox="0 0 48 48" enable-background="new 0 0 48 48" xml:space="preserve">
<g>
	<path fill="#010101" d="M25,0C14.168,0,6,8.598,6,20c0,14.346,17.663,27.268,18.414,27.811C24.589,47.937,24.795,48,25,48
		s0.411-0.063,0.586-0.189C26.337,47.268,44,34.346,44,20C44,8.598,35.832,0,25,0z M25,45.746C21.944,43.379,8,31.922,8,20
		C8,9.738,15.309,2,25,2s17,7.738,17,18C42,31.922,28.056,43.379,25,45.746z"/>
	<path fill="#010101" d="M25,8c-6.065,0-11,4.935-11,11s4.935,11,11,11s11-4.935,11-11S31.065,8,25,8z M25,28c-4.963,0-9-4.038-9-9
		s4.037-9,9-9s9,4.038,9,9S29.963,28,25,28z"/>
</g>
</svg>
