<?xml version="1.0" encoding="utf-8"?>
<!-- Generator: Adobe Illustrator 17.0.0, SVG Export Plug-In . SVG Version: 6.00 Build 0)  -->
<!DOCTYPE svg PUBLIC "-//W3C//DTD SVG 1.1//EN" "http://www.w3.org/Graphics/SVG/1.1/DTD/svg11.dtd">
<svg version="1.1" id="Layer_2" xmlns="http://www.w3.org/2000/svg" xmlns:xlink="http://www.w3.org/1999/xlink" x="0px" y="0px"
	 width="48px" height="48px" viewBox="0 0 48 48" enable-background="new 0 0 48 48" xml:space="preserve">
<path fill="#010101" d="M43,0H5C4.448,0,4,0.447,4,1v14.529c0,13.619,7.485,26.018,19.535,32.355C23.68,47.962,23.84,48,24,48
	c0.16,0,0.32-0.038,0.466-0.115C36.515,41.543,44,29.146,44,15.529V1C44,0.447,43.552,0,43,0z M35.685,14.731l-15,14
	C20.492,28.911,20.247,29,20.002,29c-0.256,0-0.512-0.098-0.707-0.293l-5-5c-0.391-0.391-0.391-1.023,0-1.414
	c0.391-0.391,1.023-0.391,1.414,0l4.317,4.316L34.32,13.269c0.403-0.375,1.037-0.354,1.413,0.049
	C36.11,13.722,36.088,14.355,35.685,14.731z"/>
</svg>
