<?xml version="1.0" encoding="utf-8"?>
<!-- Generator: Adobe Illustrator 17.0.0, SVG Export Plug-In . SVG Version: 6.00 Build 0)  -->
<!DOCTYPE svg PUBLIC "-//W3C//DTD SVG 1.1//EN" "http://www.w3.org/Graphics/SVG/1.1/DTD/svg11.dtd">
<svg version="1.1" id="Layer_2" xmlns="http://www.w3.org/2000/svg" xmlns:xlink="http://www.w3.org/1999/xlink" x="0px" y="0px"
	 width="48px" height="48px" viewBox="0 0 48 48" enable-background="new 0 0 48 48" xml:space="preserve">
<path fill="#010101" d="M47,0H1C0.448,0,0,0.447,0,1v46c0,0.553,0.448,1,1,1h46c0.552,0,1-0.447,1-1V1C48,0.447,47.552,0,47,0z
	 M21.707,27.707l-10,10C11.512,37.902,11.256,38,11,38c-0.256,0-0.512-0.098-0.707-0.293l-4-4c-0.391-0.391-0.391-1.023,0-1.414
	c0.391-0.391,1.023-0.391,1.414,0L11,35.586l9.293-9.293c0.391-0.391,1.023-0.391,1.414,0
	C22.098,26.684,22.098,27.316,21.707,27.707z M21.707,8.707l-10,10C11.512,18.902,11.256,19,11,19c-0.256,0-0.512-0.098-0.707-0.293
	l-4-4c-0.391-0.391-0.391-1.023,0-1.414c0.391-0.391,1.023-0.391,1.414,0L11,16.586l9.293-9.293c0.391-0.391,1.023-0.391,1.414,0
	C22.098,7.684,22.098,8.316,21.707,8.707z M41,36H25c-0.552,0-1-0.447-1-1c0-0.553,0.448-1,1-1h16c0.552,0,1,0.447,1,1
	C42,35.553,41.552,36,41,36z M41,18H25c-0.552,0-1-0.447-1-1c0-0.553,0.448-1,1-1h16c0.552,0,1,0.447,1,1C42,17.553,41.552,18,41,18
	z"/>
</svg>
