<?xml version="1.0" encoding="utf-8"?>
<!-- Generator: Adobe Illustrator 17.0.0, SVG Export Plug-In . SVG Version: 6.00 Build 0)  -->
<!DOCTYPE svg PUBLIC "-//W3C//DTD SVG 1.1//EN" "http://www.w3.org/Graphics/SVG/1.1/DTD/svg11.dtd">
<svg version="1.1" id="Layer_2" xmlns="http://www.w3.org/2000/svg" xmlns:xlink="http://www.w3.org/1999/xlink" x="0px" y="0px"
	 width="48px" height="48px" viewBox="0 0 48 48" enable-background="new 0 0 48 48" xml:space="preserve">
<g>
	<path fill="#010101" d="M47.246,0.434c-0.866-0.688-2.123-0.543-2.81,0.322L18.831,33l-8.415-8.414
		c-0.78-0.781-2.048-0.781-2.828,0c-0.781,0.781-0.781,2.047,0,2.828l10,10C17.964,37.79,18.474,38,19.002,38
		c0.038,0,0.076-0.001,0.114-0.003c0.569-0.033,1.097-0.307,1.452-0.753l27-34C48.255,2.379,48.111,1.121,47.246,0.434z"/>
	<path fill="#010101" d="M37.102,22.039c-1.077,0.246-1.749,1.318-1.503,2.396c0.268,1.169,0.403,2.369,0.403,3.565
		c0,8.822-7.178,16-16,16c-8.822,0-16-7.178-16-16c0-8.822,7.178-16,16-16c2.496,0,4.888,0.56,7.11,1.664
		c0.989,0.493,2.189,0.088,2.681-0.901c0.492-0.988,0.088-2.189-0.901-2.681C26.113,8.701,23.122,8,20.002,8
		c-11.028,0-20,8.972-20,20s8.972,20,20,20c11.028,0,20-8.972,20-20c0-1.496-0.169-2.996-0.504-4.458
		C39.252,22.465,38.181,21.789,37.102,22.039z"/>
</g>
</svg>
