<?xml version="1.0" encoding="utf-8"?>
<!-- Generator: Adobe Illustrator 17.0.0, SVG Export Plug-In . SVG Version: 6.00 Build 0)  -->
<!DOCTYPE svg PUBLIC "-//W3C//DTD SVG 1.1//EN" "http://www.w3.org/Graphics/SVG/1.1/DTD/svg11.dtd">
<svg version="1.1" id="Layer_2" xmlns="http://www.w3.org/2000/svg" xmlns:xlink="http://www.w3.org/1999/xlink" x="0px" y="0px"
	 width="48px" height="48px" viewBox="0 0 48 48" enable-background="new 0 0 48 48" xml:space="preserve">
<g>
	<path fill="#010101" d="M45.255,3.444c-0.86-0.695-2.119-0.558-2.812,0.301L18.84,33.012l-8.426-8.426
		c-0.78-0.781-2.048-0.781-2.828,0c-0.781,0.781-0.781,2.047,0,2.828l10,10c0.376,0.376,0.885,0.586,1.414,0.586
		c0.035,0,0.071-0.001,0.107-0.003c0.566-0.03,1.094-0.3,1.45-0.741l25-31C46.25,5.396,46.115,4.137,45.255,3.444z"/>
	<path fill="#010101" d="M38,22.001c-1.105,0-2,0.896-2,2v20H4v-32h24c1.104,0,2-0.896,2-2s-0.896-2-2-2H2c-1.105,0-2,0.896-2,2v36
		c0,1.104,0.895,2,2,2h36c1.104,0,2-0.896,2-2v-22C40,22.896,39.104,22.001,38,22.001z"/>
</g>
</svg>
