<?xml version="1.0" encoding="utf-8"?>
<!-- Generator: Adobe Illustrator 17.0.0, SVG Export Plug-In . SVG Version: 6.00 Build 0)  -->
<!DOCTYPE svg PUBLIC "-//W3C//DTD SVG 1.1//EN" "http://www.w3.org/Graphics/SVG/1.1/DTD/svg11.dtd">
<svg version="1.1" id="Layer_2" xmlns="http://www.w3.org/2000/svg" xmlns:xlink="http://www.w3.org/1999/xlink" x="0px" y="0px"
	 width="48px" height="48px" viewBox="0 0 48 48" enable-background="new 0 0 48 48" xml:space="preserve">
<path fill="#010101" d="M48,24c0-1.801-0.963-3.41-2.44-4.289c1.025-1.378,1.299-3.232,0.614-4.894
	c-0.682-1.648-2.168-2.781-3.897-3.03c0.421-1.666-0.037-3.484-1.309-4.757c-1.237-1.238-3.091-1.731-4.756-1.309
	c-0.249-1.699-1.368-3.203-3.031-3.893c-1.632-0.675-3.539-0.405-4.896,0.608C27.405,0.961,25.797,0,24,0
	c-1.799,0-3.409,0.962-4.29,2.437c-1.357-1.014-3.266-1.284-4.898-0.608c-1.663,0.687-2.781,2.191-3.029,3.893
	c-1.667-0.418-3.518,0.074-4.756,1.31c-1.273,1.272-1.731,3.09-1.31,4.757c-1.724,0.249-3.206,1.383-3.889,3.029
	c-0.689,1.663-0.418,3.517,0.606,4.894C0.961,20.591,0,22.2,0,24c0,1.8,0.961,3.409,2.435,4.289
	c-1.024,1.378-1.297,3.233-0.609,4.896c0.683,1.646,2.166,2.779,3.892,3.028c-0.421,1.666,0.037,3.484,1.308,4.757
	c1.239,1.238,3.088,1.731,4.757,1.31c0.249,1.7,1.368,3.204,3.03,3.893c1.632,0.676,3.54,0.406,4.897-0.608
	C20.592,47.039,22.201,48,24,48c1.797,0,3.405-0.961,4.285-2.435c1.358,1.014,3.263,1.286,4.897,0.608
	c1.661-0.688,2.779-2.193,3.028-3.893c1.665,0.422,3.52-0.069,4.757-1.31c1.272-1.272,1.73-3.09,1.309-4.756
	c1.729-0.249,3.214-1.383,3.897-3.029c0.689-1.661,0.416-3.517-0.612-4.896C47.038,27.41,48,25.801,48,24z M33.707,32.293
	c0.391,0.391,0.391,1.023,0,1.414C33.512,33.902,33.256,34,33,34c-0.256,0-0.512-0.098-0.707-0.293L24,25.414l-8.293,8.293
	C15.512,33.902,15.256,34,15,34c-0.256,0-0.512-0.098-0.707-0.293c-0.391-0.391-0.391-1.023,0-1.414L22.586,24l-8.293-8.293
	c-0.391-0.391-0.391-1.023,0-1.414c0.391-0.391,1.023-0.391,1.414,0L24,22.586l8.293-8.293c0.391-0.391,1.023-0.391,1.414,0
	c0.391,0.391,0.391,1.023,0,1.414L25.414,24L33.707,32.293z"/>
</svg>
