<?xml version="1.0" encoding="utf-8"?>
<!-- Generator: Adobe Illustrator 17.0.0, SVG Export Plug-In . SVG Version: 6.00 Build 0)  -->
<!DOCTYPE svg PUBLIC "-//W3C//DTD SVG 1.1//EN" "http://www.w3.org/Graphics/SVG/1.1/DTD/svg11.dtd">
<svg version="1.1" id="Layer_2" xmlns="http://www.w3.org/2000/svg" xmlns:xlink="http://www.w3.org/1999/xlink" x="0px" y="0px"
	 width="48px" height="48px" viewBox="0 0 48 48" enable-background="new 0 0 48 48" xml:space="preserve">
<path fill="#010101" d="M43,0H5C4.448,0,4,0.447,4,1v14.529c0,13.618,7.485,26.017,19.534,32.355C23.68,47.962,23.84,48,24,48
	c0.16,0,0.32-0.038,0.466-0.115C36.515,41.543,44,29.146,44,15.529V1C44,0.447,43.552,0,43,0z M33.707,27.293
	c0.391,0.391,0.391,1.023,0,1.414C33.512,28.902,33.256,29,33,29c-0.256,0-0.512-0.098-0.707-0.293L24,20.414l-8.293,8.293
	C15.512,28.902,15.256,29,15,29c-0.256,0-0.512-0.098-0.707-0.293c-0.391-0.391-0.391-1.023,0-1.414L22.586,19l-8.293-8.293
	c-0.391-0.391-0.391-1.023,0-1.414c0.391-0.391,1.023-0.391,1.414,0L24,17.586l8.293-8.293c0.391-0.391,1.023-0.391,1.414,0
	c0.391,0.391,0.391,1.023,0,1.414L25.414,19L33.707,27.293z"/>
</svg>
