<?xml version="1.0" encoding="utf-8"?>
<!-- Generator: Adobe Illustrator 17.0.0, SVG Export Plug-In . SVG Version: 6.00 Build 0)  -->
<!DOCTYPE svg PUBLIC "-//W3C//DTD SVG 1.1//EN" "http://www.w3.org/Graphics/SVG/1.1/DTD/svg11.dtd">
<svg version="1.1" xmlns="http://www.w3.org/2000/svg" xmlns:xlink="http://www.w3.org/1999/xlink" x="0px" y="0px" width="60px"
	 height="60px" viewBox="0 0 60 60" enable-background="new 0 0 60 60" xml:space="preserve">
<g id="Layer_1">
	<g>
		<path fill="#010101" d="M47,16.011c0.003-0.291-0.12-0.569-0.338-0.761l-17-15c-0.295-0.26-0.715-0.323-1.073-0.162
			C28.23,0.25,28,0.607,28,1v26.504L14.645,16.236c-0.423-0.357-1.053-0.303-1.409,0.119c-0.356,0.422-0.303,1.053,0.119,1.409
			L27.857,30L13.355,42.236c-0.422,0.356-0.476,0.987-0.119,1.409c0.356,0.421,0.985,0.476,1.409,0.119L28,32.496V59
			c0,0.393,0.23,0.75,0.589,0.912C28.721,59.971,28.861,60,29,60c0.239,0,0.475-0.086,0.662-0.25l17-15
			c0.218-0.192,0.341-0.47,0.338-0.761c-0.003-0.291-0.133-0.566-0.355-0.753L30.958,30l15.687-13.236
			C46.867,16.577,46.997,16.302,47,16.011z M44.469,44.017L30,56.784V31.809L44.469,44.017z M30,28.191V3.216l14.469,12.767
			L30,28.191z"/>
	</g>
</g>
<g id="nyt_x5F_exporter_x5F_info" display="none">
</g>
</svg>
