<?xml version="1.0" encoding="utf-8"?>
<!-- Generator: Adobe Illustrator 17.0.0, SVG Export Plug-In . SVG Version: 6.00 Build 0)  -->
<!DOCTYPE svg PUBLIC "-//W3C//DTD SVG 1.1//EN" "http://www.w3.org/Graphics/SVG/1.1/DTD/svg11.dtd">
<svg version="1.1" xmlns="http://www.w3.org/2000/svg" xmlns:xlink="http://www.w3.org/1999/xlink" x="0px" y="0px" width="60px"
	 height="60px" viewBox="0 0 60 60" enable-background="new 0 0 60 60" xml:space="preserve">
<g id="Layer_1">
	<g>
		<path fill="#010101" d="M59,0H1C0.447,0,0,0.448,0,1v58c0,0.552,0.447,1,1,1h58c0.553,0,1-0.448,1-1V1C60,0.448,59.553,0,59,0z
			 M58,58H2V2h56V58z"/>
		<path fill="#010101" d="M9,44h13v3c0,0.552,0.447,1,1,1h14c0.553,0,1-0.448,1-1v-3h13c0.553,0,1-0.448,1-1V11c0-0.552-0.447-1-1-1
			H9c-0.553,0-1,0.448-1,1v32C8,43.552,8.447,44,9,44z M10,12h8v11c0,0.552,0.447,1,1,1c0.553,0,1-0.448,1-1V12h6v11
			c0,0.552,0.447,1,1,1c0.553,0,1-0.448,1-1V12h4v11c0,0.552,0.447,1,1,1c0.553,0,1-0.448,1-1V12h6v11c0,0.552,0.447,1,1,1
			c0.553,0,1-0.448,1-1V12h8v30H37c-0.553,0-1,0.448-1,1v3H24v-3c0-0.552-0.447-1-1-1H10V12z"/>
	</g>
</g>
<g id="nyt_x5F_exporter_x5F_info" display="none">
</g>
</svg>
