<?xml version="1.0" encoding="utf-8"?>
<!-- Generator: Adobe Illustrator 17.0.0, SVG Export Plug-In . SVG Version: 6.00 Build 0)  -->
<!DOCTYPE svg PUBLIC "-//W3C//DTD SVG 1.1//EN" "http://www.w3.org/Graphics/SVG/1.1/DTD/svg11.dtd">
<svg version="1.1" xmlns="http://www.w3.org/2000/svg" xmlns:xlink="http://www.w3.org/1999/xlink" x="0px" y="0px" width="60px"
	 height="60px" viewBox="0 0 60 60" enable-background="new 0 0 60 60" xml:space="preserve">
<g id="Layer_1">
	<g>
		<path fill="#010101" d="M30,20c-4.963,0-9,4.038-9,9s4.037,9,9,9c4.963,0,9-4.038,9-9S34.963,20,30,20z M30,36
			c-3.859,0-7-3.14-7-7c0-3.86,3.141-7,7-7c3.859,0,7,3.14,7,7C37,32.86,33.859,36,30,36z"/>
		<path fill="#010101" d="M36,48H24c-0.553,0-1,0.448-1,1s0.447,1,1,1h12c0.553,0,1-0.448,1-1S36.553,48,36,48z"/>
		<path fill="#010101" d="M36,56H24c-0.553,0-1,0.448-1,1s0.447,1,1,1h12c0.553,0,1-0.448,1-1S36.553,56,36,56z"/>
		<path fill="#010101" d="M20.707,9.293c-0.391-0.391-1.023-0.391-1.414,0l-9,9c-0.391,0.391-0.391,1.023,0,1.414
			C10.488,19.902,10.744,20,11,20c0.256,0,0.512-0.098,0.707-0.293l9-9C21.098,10.316,21.098,9.684,20.707,9.293z"/>
		<path fill="#010101" d="M14.707,3.293c-0.391-0.391-1.023-0.391-1.414,0l-9,9c-0.391,0.391-0.391,1.023,0,1.414
			C4.488,13.902,4.744,14,5,14c0.256,0,0.512-0.098,0.707-0.293l9-9C15.098,4.316,15.098,3.684,14.707,3.293z"/>
		<path fill="#010101" d="M55.707,2.293c-0.391-0.391-1.023-0.391-1.414,0l-13,13c-0.391,0.391-0.391,1.023,0,1.414
			C41.488,16.902,41.744,17,42,17c0.256,0,0.512-0.098,0.707-0.293l13-13C56.098,3.316,56.098,2.684,55.707,2.293z"/>
	</g>
</g>
<g id="nyt_x5F_exporter_x5F_info" display="none">
</g>
</svg>
