<?xml version="1.0" encoding="utf-8"?>
<!-- Generator: Adobe Illustrator 17.0.0, SVG Export Plug-In . SVG Version: 6.00 Build 0)  -->
<!DOCTYPE svg PUBLIC "-//W3C//DTD SVG 1.1//EN" "http://www.w3.org/Graphics/SVG/1.1/DTD/svg11.dtd">
<svg version="1.1" xmlns="http://www.w3.org/2000/svg" xmlns:xlink="http://www.w3.org/1999/xlink" x="0px" y="0px" width="60px"
	 height="60px" viewBox="0 0 60 60" enable-background="new 0 0 60 60" xml:space="preserve">
<g id="Layer_1">
	<g>
		<path fill="#010101" d="M54,24H24c-3.309,0-6,2.691-6,6v20c0,3.309,2.691,6,6,6h14v2h-9c-0.552,0-1,0.448-1,1s0.448,1,1,1h20
			c0.552,0,1-0.448,1-1s-0.448-1-1-1h-9v-2h14c3.309,0,6-2.691,6-6V30C60,26.691,57.309,24,54,24z M24,26h30c2.206,0,4,1.794,4,4v16
			H20V30C20,27.794,21.794,26,24,26z M54,54H24c-2.206,0-4-1.794-4-4v-2h38v2C58,52.206,56.206,54,54,54z"/>
		<circle fill="#010101" cx="39" cy="51" r="1"/>
		<path fill="#010101" d="M13,28H7c-0.552,0-1,0.448-1,1s0.448,1,1,1h6c0.552,0,1-0.448,1-1S13.552,28,13,28z"/>
		<path fill="#010101" d="M14,23c0-0.552-0.448-1-1-1H4c-1.103,0-2-0.897-2-2h29c0.552,0,1-0.448,1-1V4c0-2.206-1.794-4-4-4H4
			C1.794,0,0,1.794,0,4v16c0,2.206,1.794,4,4,4h9C13.552,24,14,23.552,14,23z M2,4c0-1.103,0.897-2,2-2h24c1.103,0,2,0.897,2,2v14H2
			V4z"/>
	</g>
</g>
<g id="nyt_x5F_exporter_x5F_info" display="none">
</g>
</svg>
