<?xml version="1.0" encoding="utf-8"?>
<!-- Generator: Adobe Illustrator 17.0.0, SVG Export Plug-In . SVG Version: 6.00 Build 0)  -->
<!DOCTYPE svg PUBLIC "-//W3C//DTD SVG 1.1//EN" "http://www.w3.org/Graphics/SVG/1.1/DTD/svg11.dtd">
<svg version="1.1" xmlns="http://www.w3.org/2000/svg" xmlns:xlink="http://www.w3.org/1999/xlink" x="0px" y="0px" width="60px"
	 height="60px" viewBox="0 0 60 60" enable-background="new 0 0 60 60" xml:space="preserve">
<g id="Layer_1">
	<g>
		<path fill="#010101" d="M21,32H7c-0.552,0-1,0.448-1,1v10c0,0.552,0.448,1,1,1h14c0.552,0,1-0.448,1-1V33
			C22,32.448,21.552,32,21,32z M20,42H8v-8h12V42z"/>
		<path fill="#010101" d="M37,8H23c-0.552,0-1,0.448-1,1v10c0,0.552,0.448,1,1,1h14c0.552,0,1-0.448,1-1V9C38,8.448,37.552,8,37,8z
			 M36,18H24v-8h12V18z"/>
		<path fill="#010101" d="M58,46.556V32c0-2.206-1.794-4-4-4H44v-2c0-1.474-0.81-2.75-2-3.444V8c0-2.206-1.794-4-4-4H22
			c-2.206,0-4,1.794-4,4v14.556c-1.19,0.694-2,1.97-2,3.444v2H6c-2.206,0-4,1.794-4,4v14.556C0.81,47.25,0,48.526,0,50v5
			c0,0.552,0.448,1,1,1h26c0.552,0,1-0.448,1-1v-5c0-1.474-0.81-2.75-2-3.444V32h8v14.556c-1.19,0.694-2,1.97-2,3.444v5
			c0,0.552,0.448,1,1,1h26c0.552,0,1-0.448,1-1v-5C60,48.526,59.19,47.25,58,46.556z M20,8c0-1.103,0.897-2,2-2h16
			c1.103,0,2,0.897,2,2v14H20V8z M26,54H2v-4c0-1.103,0.897-2,2-2h20c1.103,0,2,0.897,2,2V54z M4,46V32c0-1.103,0.897-2,2-2h16
			c1.103,0,2,0.897,2,2v14H4z M25.444,30c-0.694-1.19-1.97-2-3.444-2h-4v-2c0-1.103,0.897-2,2-2h20c1.103,0,2,0.897,2,2v2h-4
			c-1.474,0-2.75,0.81-3.444,2H25.444z M36,32c0-1.103,0.897-2,2-2h16c1.103,0,2,0.897,2,2v14H36V32z M58,54H34v-4
			c0-1.103,0.897-2,2-2h20c1.103,0,2,0.897,2,2V54z"/>
		<path fill="#010101" d="M53,32H39c-0.552,0-1,0.448-1,1v10c0,0.552,0.448,1,1,1h14c0.552,0,1-0.448,1-1V33
			C54,32.448,53.552,32,53,32z M52,42H40v-8h12V42z"/>
	</g>
</g>
<g id="nyt_x5F_exporter_x5F_info" display="none">
</g>
</svg>
