<?xml version="1.0" encoding="utf-8"?>
<!-- Generator: Adobe Illustrator 17.0.0, SVG Export Plug-In . SVG Version: 6.00 Build 0)  -->
<!DOCTYPE svg PUBLIC "-//W3C//DTD SVG 1.1//EN" "http://www.w3.org/Graphics/SVG/1.1/DTD/svg11.dtd">
<svg version="1.1" xmlns="http://www.w3.org/2000/svg" xmlns:xlink="http://www.w3.org/1999/xlink" x="0px" y="0px" width="60px"
	 height="60px" viewBox="0 0 60 60" enable-background="new 0 0 60 60" xml:space="preserve">
<g id="Layer_1">
	<g>
		<path fill="#010101" d="M59.923,12.618c-0.051-0.123-0.124-0.233-0.216-0.325L47.707,0.293C47.519,0.106,47.265,0,47,0H13
			c-0.265,0-0.52,0.106-0.707,0.293L0.294,12.292c-0.092,0.092-0.166,0.203-0.216,0.325C0.027,12.74,0,12.87,0,13v16v11
			c0,3.309,2.691,6,6,6h24v12H13c-0.552,0-1,0.448-1,1s0.448,1,1,1h34c0.552,0,1-0.448,1-1s-0.448-1-1-1H32V46h22
			c3.309,0,6-2.691,6-6V29V13C60,12.87,59.973,12.74,59.923,12.618z M2,14h56v14H2V14z M13.414,2h33.172l10,10H3.414L13.414,2z
			 M54,44H6c-2.206,0-4-1.794-4-4V30h56v10C58,42.206,56.206,44,54,44z"/>
		<circle fill="#010101" cx="55" cy="59" r="1"/>
		<circle fill="#010101" cx="51" cy="59" r="1"/>
		<circle fill="#010101" cx="9" cy="59" r="1"/>
		<circle fill="#010101" cx="5" cy="59" r="1"/>
		<path fill="#010101" d="M9,16c-2.757,0-5,2.243-5,5c0,2.757,2.243,5,5,5c2.757,0,5-2.243,5-5C14,18.243,11.757,16,9,16z M9,24
			c-1.654,0-3-1.346-3-3s1.346-3,3-3s3,1.346,3,3S10.654,24,9,24z"/>
		<path fill="#010101" d="M35,18c-1.654,0-3,1.346-3,3s1.346,3,3,3s3-1.346,3-3S36.654,18,35,18z M35,22c-0.551,0-1-0.449-1-1
			c0-0.551,0.449-1,1-1c0.551,0,1,0.449,1,1C36,21.551,35.551,22,35,22z"/>
		<path fill="#010101" d="M43,18c-1.654,0-3,1.346-3,3s1.346,3,3,3s3-1.346,3-3S44.654,18,43,18z M43,22c-0.551,0-1-0.449-1-1
			c0-0.551,0.449-1,1-1c0.551,0,1,0.449,1,1C44,21.551,43.551,22,43,22z"/>
		<path fill="#010101" d="M51,18c-1.654,0-3,1.346-3,3s1.346,3,3,3s3-1.346,3-3S52.654,18,51,18z M51,22c-0.551,0-1-0.449-1-1
			c0-0.551,0.449-1,1-1c0.551,0,1,0.449,1,1C52,21.551,51.551,22,51,22z"/>
		<path fill="#010101" d="M35,34c-1.654,0-3,1.346-3,3s1.346,3,3,3s3-1.346,3-3S36.654,34,35,34z M35,38c-0.551,0-1-0.449-1-1
			c0-0.551,0.449-1,1-1c0.551,0,1,0.449,1,1C36,37.551,35.551,38,35,38z"/>
		<path fill="#010101" d="M43,34c-1.654,0-3,1.346-3,3s1.346,3,3,3s3-1.346,3-3S44.654,34,43,34z M43,38c-0.551,0-1-0.449-1-1
			c0-0.551,0.449-1,1-1c0.551,0,1,0.449,1,1C44,37.551,43.551,38,43,38z"/>
		<path fill="#010101" d="M51,34c-1.654,0-3,1.346-3,3s1.346,3,3,3s3-1.346,3-3S52.654,34,51,34z M51,38c-0.551,0-1-0.449-1-1
			c0-0.551,0.449-1,1-1c0.551,0,1,0.449,1,1C52,37.551,51.551,38,51,38z"/>
		<path fill="#010101" d="M9,32c-2.757,0-5,2.243-5,5c0,2.757,2.243,5,5,5c2.757,0,5-2.243,5-5C14,34.243,11.757,32,9,32z M9,40
			c-1.654,0-3-1.346-3-3s1.346-3,3-3s3,1.346,3,3S10.654,40,9,40z"/>
	</g>
</g>
<g id="nyt_x5F_exporter_x5F_info" display="none">
</g>
</svg>
