<?xml version="1.0" encoding="utf-8"?>
<!-- Generator: Adobe Illustrator 17.0.0, SVG Export Plug-In . SVG Version: 6.00 Build 0)  -->
<!DOCTYPE svg PUBLIC "-//W3C//DTD SVG 1.1//EN" "http://www.w3.org/Graphics/SVG/1.1/DTD/svg11.dtd">
<svg version="1.1" xmlns="http://www.w3.org/2000/svg" xmlns:xlink="http://www.w3.org/1999/xlink" x="0px" y="0px" width="60px"
	 height="60px" viewBox="0 0 60 60" enable-background="new 0 0 60 60" xml:space="preserve">
<g id="Layer_1">
	<g>
		<path fill="#010101" d="M59.706,10.292l-9.999-9.999C49.519,0.106,49.266,0,49,0H11c-0.266,0-0.52,0.106-0.707,0.293l-9.999,9.999
			c-0.093,0.092-0.166,0.203-0.217,0.326C0.026,10.74,0,10.87,0,11v16v16v11c0,3.309,2.691,6,6,6h48c3.309,0,6-2.691,6-6V43V27V11
			c0-0.13-0.026-0.26-0.077-0.382C59.872,10.495,59.799,10.384,59.706,10.292z M58,26H2V12h56V26z M2,28h56v14H2V28z M11.414,2
			h37.172l8,8H3.414L11.414,2z M54,58H6c-2.206,0-4-1.794-4-4V44h56v10C58,56.206,56.206,58,54,58z"/>
		<path fill="#010101" d="M9,24c2.757,0,5-2.243,5-5c0-2.757-2.243-5-5-5c-2.757,0-5,2.243-5,5C4,21.757,6.243,24,9,24z M9,16
			c1.654,0,3,1.346,3,3s-1.346,3-3,3s-3-1.346-3-3S7.346,16,9,16z"/>
		<path fill="#010101" d="M35,22c1.654,0,3-1.346,3-3s-1.346-3-3-3s-3,1.346-3,3S33.346,22,35,22z M35,18c0.552,0,1,0.449,1,1
			c0,0.551-0.448,1-1,1c-0.552,0-1-0.449-1-1C34,18.449,34.448,18,35,18z"/>
		<path fill="#010101" d="M43,22c1.654,0,3-1.346,3-3s-1.346-3-3-3s-3,1.346-3,3S41.346,22,43,22z M43,18c0.552,0,1,0.449,1,1
			c0,0.551-0.448,1-1,1c-0.552,0-1-0.449-1-1C42,18.449,42.448,18,43,18z"/>
		<path fill="#010101" d="M51,22c1.654,0,3-1.346,3-3s-1.346-3-3-3s-3,1.346-3,3S49.346,22,51,22z M51,18c0.552,0,1,0.449,1,1
			c0,0.551-0.448,1-1,1c-0.552,0-1-0.449-1-1C50,18.449,50.448,18,51,18z"/>
		<path fill="#010101" d="M9,30c-2.757,0-5,2.243-5,5c0,2.757,2.243,5,5,5c2.757,0,5-2.243,5-5C14,32.243,11.757,30,9,30z M9,38
			c-1.654,0-3-1.346-3-3s1.346-3,3-3s3,1.346,3,3S10.654,38,9,38z"/>
		<path fill="#010101" d="M35,32c-1.654,0-3,1.346-3,3s1.346,3,3,3s3-1.346,3-3S36.654,32,35,32z M35,36c-0.552,0-1-0.449-1-1
			c0-0.551,0.448-1,1-1c0.552,0,1,0.449,1,1C36,35.551,35.552,36,35,36z"/>
		<path fill="#010101" d="M43,32c-1.654,0-3,1.346-3,3s1.346,3,3,3s3-1.346,3-3S44.654,32,43,32z M43,36c-0.552,0-1-0.449-1-1
			c0-0.551,0.448-1,1-1c0.552,0,1,0.449,1,1C44,35.551,43.552,36,43,36z"/>
		<path fill="#010101" d="M51,32c-1.654,0-3,1.346-3,3s1.346,3,3,3s3-1.346,3-3S52.654,32,51,32z M51,36c-0.552,0-1-0.449-1-1
			c0-0.551,0.448-1,1-1c0.552,0,1,0.449,1,1C52,35.551,51.552,36,51,36z"/>
		<path fill="#010101" d="M35,48c-1.654,0-3,1.346-3,3s1.346,3,3,3s3-1.346,3-3S36.654,48,35,48z M35,52c-0.552,0-1-0.449-1-1
			c0-0.551,0.448-1,1-1c0.552,0,1,0.449,1,1C36,51.551,35.552,52,35,52z"/>
		<path fill="#010101" d="M43,48c-1.654,0-3,1.346-3,3s1.346,3,3,3s3-1.346,3-3S44.654,48,43,48z M43,52c-0.552,0-1-0.449-1-1
			c0-0.551,0.448-1,1-1c0.552,0,1,0.449,1,1C44,51.551,43.552,52,43,52z"/>
		<path fill="#010101" d="M51,48c-1.654,0-3,1.346-3,3s1.346,3,3,3s3-1.346,3-3S52.654,48,51,48z M51,52c-0.552,0-1-0.449-1-1
			c0-0.551,0.448-1,1-1c0.552,0,1,0.449,1,1C52,51.551,51.552,52,51,52z"/>
		<path fill="#010101" d="M9,46c-2.757,0-5,2.243-5,5c0,2.757,2.243,5,5,5c2.757,0,5-2.243,5-5C14,48.243,11.757,46,9,46z M9,54
			c-1.654,0-3-1.346-3-3s1.346-3,3-3s3,1.346,3,3S10.654,54,9,54z"/>
	</g>
</g>
<g id="nyt_x5F_exporter_x5F_info" display="none">
</g>
</svg>
