<?xml version="1.0" encoding="utf-8"?>
<!-- Generator: Adobe Illustrator 17.0.0, SVG Export Plug-In . SVG Version: 6.00 Build 0)  -->
<!DOCTYPE svg PUBLIC "-//W3C//DTD SVG 1.1//EN" "http://www.w3.org/Graphics/SVG/1.1/DTD/svg11.dtd">
<svg version="1.1" xmlns="http://www.w3.org/2000/svg" xmlns:xlink="http://www.w3.org/1999/xlink" x="0px" y="0px" width="60px"
	 height="60px" viewBox="0 0 60 60" enable-background="new 0 0 60 60" xml:space="preserve">
<g id="Layer_1">
	<g>
		<path fill="#010101" d="M59,6H1C0.447,6,0,6.448,0,7v16v16c0,0.552,0.447,1,1,1h29v12H13c-0.553,0-1,0.448-1,1s0.447,1,1,1h34
			c0.553,0,1-0.448,1-1s-0.447-1-1-1H32V40h27c0.553,0,1-0.448,1-1V23V7C60,6.448,59.553,6,59,6z M2,8h56v14H2V8z M2,38V24h56v14H2z
			"/>
		<circle fill="#010101" cx="55" cy="53" r="1"/>
		<circle fill="#010101" cx="51" cy="53" r="1"/>
		<circle fill="#010101" cx="9" cy="53" r="1"/>
		<circle fill="#010101" cx="5" cy="53" r="1"/>
		<path fill="#010101" d="M9,10c-2.757,0-5,2.243-5,5c0,2.757,2.243,5,5,5c2.757,0,5-2.243,5-5C14,12.243,11.757,10,9,10z M9,18
			c-1.654,0-3-1.346-3-3s1.346-3,3-3s3,1.346,3,3S10.654,18,9,18z"/>
		<path fill="#010101" d="M35,12c-1.654,0-3,1.346-3,3s1.346,3,3,3s3-1.346,3-3S36.654,12,35,12z M35,16c-0.552,0-1-0.449-1-1
			c0-0.551,0.448-1,1-1c0.552,0,1,0.449,1,1C36,15.551,35.552,16,35,16z"/>
		<path fill="#010101" d="M43,12c-1.654,0-3,1.346-3,3s1.346,3,3,3s3-1.346,3-3S44.654,12,43,12z M43,16c-0.552,0-1-0.449-1-1
			c0-0.551,0.448-1,1-1c0.552,0,1,0.449,1,1C44,15.551,43.552,16,43,16z"/>
		<path fill="#010101" d="M51,12c-1.654,0-3,1.346-3,3s1.346,3,3,3s3-1.346,3-3S52.654,12,51,12z M51,16c-0.552,0-1-0.449-1-1
			c0-0.551,0.448-1,1-1c0.552,0,1,0.449,1,1C52,15.551,51.552,16,51,16z"/>
		<path fill="#010101" d="M35,28c-1.654,0-3,1.346-3,3s1.346,3,3,3s3-1.346,3-3S36.654,28,35,28z M35,32c-0.552,0-1-0.449-1-1
			c0-0.551,0.448-1,1-1c0.552,0,1,0.449,1,1C36,31.551,35.552,32,35,32z"/>
		<path fill="#010101" d="M43,28c-1.654,0-3,1.346-3,3s1.346,3,3,3s3-1.346,3-3S44.654,28,43,28z M43,32c-0.552,0-1-0.449-1-1
			c0-0.551,0.448-1,1-1c0.552,0,1,0.449,1,1C44,31.551,43.552,32,43,32z"/>
		<path fill="#010101" d="M51,28c-1.654,0-3,1.346-3,3s1.346,3,3,3s3-1.346,3-3S52.654,28,51,28z M51,32c-0.552,0-1-0.449-1-1
			c0-0.551,0.448-1,1-1c0.552,0,1,0.449,1,1C52,31.551,51.552,32,51,32z"/>
		<path fill="#010101" d="M9,26c-2.757,0-5,2.243-5,5c0,2.757,2.243,5,5,5c2.757,0,5-2.243,5-5C14,28.243,11.757,26,9,26z M9,34
			c-1.654,0-3-1.346-3-3s1.346-3,3-3s3,1.346,3,3S10.654,34,9,34z"/>
	</g>
</g>
<g id="nyt_x5F_exporter_x5F_info" display="none">
</g>
</svg>
