<?xml version="1.0" encoding="utf-8"?>
<!-- Generator: Adobe Illustrator 17.0.0, SVG Export Plug-In . SVG Version: 6.00 Build 0)  -->
<!DOCTYPE svg PUBLIC "-//W3C//DTD SVG 1.1//EN" "http://www.w3.org/Graphics/SVG/1.1/DTD/svg11.dtd">
<svg version="1.1" xmlns="http://www.w3.org/2000/svg" xmlns:xlink="http://www.w3.org/1999/xlink" x="0px" y="0px" width="60px"
	 height="60px" viewBox="0 0 60 60" enable-background="new 0 0 60 60" xml:space="preserve">
<g id="Layer_1">
	<g>
		<path fill="#010101" d="M30,42c-3.309,0-6,2.691-6,6s2.691,6,6,6s6-2.691,6-6S33.309,42,30,42z M30,52c-2.206,0-4-1.794-4-4
			c0-2.206,1.794-4,4-4c2.206,0,4,1.794,4,4C34,50.206,32.206,52,30,52z"/>
		<path fill="#010101" d="M19.025,33.507l1.157,1.631C23.075,33.085,26.47,32,30,32c3.531,0,6.926,1.085,9.818,3.138l1.157-1.631
			C37.743,31.212,33.948,30,30,30C26.053,30,22.257,31.213,19.025,33.507z"/>
		<path fill="#010101" d="M12.084,23.708l1.157,1.631C18.165,21.846,23.959,20,30,20c6.042,0,11.836,1.846,16.758,5.339l1.157-1.631
			C42.654,19.974,36.459,18,30,18C23.542,18,17.347,19.974,12.084,23.708z"/>
		<path fill="#010101" d="M5.149,13.918l1.157,1.631C13.267,10.61,21.459,8,30,8c8.54,0,16.733,2.61,23.694,7.549l1.157-1.631
			C47.551,8.738,38.958,6,30,6S12.449,8.738,5.149,13.918z"/>
	</g>
</g>
<g id="nyt_x5F_exporter_x5F_info" display="none">
</g>
</svg>
