<svg xmlns="http://www.w3.org/2000/svg" width="24" height="24" viewBox="0 0 24 24"><g fill="none" fill-rule="evenodd" opacity=".9"><g fill-rule="nonzero"><path fill="#CCD1D9" d="M18.32 0H1.12C.5 0 0 .5 0 1.1v17.45c0 .63.5 1.14 1.13 1.14h17.2c.6 0 1.1-.52 1.1-1.15V1.1c0-.6-.5-1.1-1.1-1.1z"/><g fill="#FFF"><path d="M17.62 7.38H1.22V18c0 .25.27.46.6.46h15.8c.34 0 .6-.2.6-.46V7.38h-.6z"/><path d="M17.62 12.3H1.22V1.7c0-.24.27-.45.6-.45h15.8c.34 0 .6.2.6.46V12.3h-.6z"/></g></g><g fill-rule="nonzero"><path fill="#CCD1D9" d="M20.45 2.15H3.24c-.62 0-1.12.5-1.12 1.1V20.7c0 .63.5 1.14 1.12 1.14h17.2c.62 0 1.12-.5 1.12-1.14V3.26c0-.6-.5-1.1-1.12-1.1z"/><g fill="#FFF"><path d="M19.75 9.54H3.35v10.61c0 .26.26.47.6.47h15.8c.33 0 .6-.2.6-.47V9.54h-.6z"/><path d="M19.75 14.46H3.35V3.85c0-.26.26-.47.6-.47h15.8c.33 0 .6.2.6.47V14.46h-.6z"/></g></g><path fill="#CCD1D9" fill-rule="nonzero" d="M22.57 4.3H5.37c-.6 0-1.12.5-1.12 1.1v17.45c0 .63.5 1.15 1.13 1.15h17.2c.6 0 1.12-.52 1.12-1.15V5.4c0-.6-.5-1.1-1.13-1.1z"/><path fill="#FFF" fill-rule="nonzero" d="M21.88 8H5.48V22.15c0 .34.26.62.6.62h15.8c.33 0 .6-.28.6-.62V8h-.6z"/><path fill="#FFF" d="M18.23 5.54H6.08c-.34 0-.6.28-.6.62 0 .34.26.62.6.62h12.15c.34 0 .6-.28.6-.62 0-.35-.26-.62-.6-.62zm1.82 0c-.33 0-.6.27-.6.6 0 .35.27.63.6.63.34 0 .6-.28.6-.62 0-.34-.26-.6-.6-.6zm1.83 0c-.34 0-.6.27-.6.6 0 .35.26.63.6.63.33 0 .6-.28.6-.62 0-.34-.27-.6-.6-.6z"/><g><path fill="#E6E9ED" fill-rule="nonzero" d="M18.53 17.85c-.28-.3-2.73-1.54-2.73-1.54h-3.04s-2.45 1.26-2.73 1.55c-.58.57-.6 2.46-.6 2.46h9.7s-.03-1.88-.6-2.45z"/><path fill="#FFF" fill-rule="nonzero" d="M15.5 16h-2.44l-.3.3.3 1.55 1.22-1.23 1.2 1.23.32-1.54"/><path fill="#656D78" d="M14.9 17.23l-.62-.6-.6.6c0 .3.3.3.3.3l-.3 2.78h1.2l-.3-2.76s.3 0 .3-.3z"/><path fill="#DBB59A" fill-rule="nonzero" d="M15.2 15.08h-1.83l-.3.92c0 .17.74.62.9.62h.6c.18 0 .92-.45.92-.62l-.3-.92z"/><path fill="#F6CBAD" fill-rule="nonzero" d="M14.28 10.77c-1.18 0-2.13.6-2.13 1.85 0 .92.3 1.53.6 2.15.3.6.93 1.23 1.53 1.23s1.2-.62 1.52-1.23c.3-.62.6-1.23.6-2.15 0-1.24-.95-1.85-2.12-1.85z"/><path fill="#434A54" fill-rule="nonzero" d="M14.28 10.46c-.7 0-1.52.27-1.52.62-.45 0-.6 1.02-.6 1.84 0 .14 0 .3.02.43.08-.4.32-1.04.88-1.04h1.22c.46 0 1.2-.22 1.2-.6.4 0 .93.56.93 1.22 0-1.2-.2-2.46-2.12-2.46z"/></g></g></svg>
