<?xml version="1.0" encoding="UTF-8" standalone="no"?>
<svg width="120px" height="120px" viewBox="0 0 120 120" version="1.1" xmlns="http://www.w3.org/2000/svg" xmlns:xlink="http://www.w3.org/1999/xlink">
    <g stroke="none" stroke-width="1" fill="none" fill-rule="evenodd">
        <circle id="background" fill="#E6E9ED" cx="60" cy="60" r="60"></circle>
        <g id="clipboard" transform="translate(32.000000, 27.000000)">
            <path d="M52,4 L4,4 C1.791,4 0,5.791 0,8 L0,60 C0,62.209 1.791,64 4,64 L52,64 C54.209,64 56,62.209 56,60 L56,8 C56,5.791 54.209,4 52,4 L52,4 Z" id="Shape" fill="#48A0DC"></path>
            <path d="M50,8 L6,8 C4.896,8 4,8.896 4,10 L4,58 C4,59.104 4.896,60 6,60 L50,60 C51.104,60 52,59.104 52,58 L52,10 C52,8.896 51.104,8 50,8 L50,8 Z" id="Shape" fill="#FFFFFF"></path>
            <path d="M14,24 L42,24 C43.105,24 44,23.104 44,22 C44,20.896 43.105,20 42,20 L14,20 C12.895,20 12,20.896 12,22 C12,23.104 12.895,24 14,24 L14,24 L14,24 Z M42,36 L14,36 C12.895,36 12,36.896 12,38 C12,39.104 12.895,40 14,40 L42,40 C43.105,40 44,39.104 44,38 C44,36.896 43.104,36 42,36 L42,36 L42,36 Z M14,32 L30,32 C31.105,32 32,31.104 32,30 C32,28.896 31.105,28 30,28 L14,28 C12.895,28 12,28.896 12,30 C12,31.104 12.895,32 14,32 L14,32 L14,32 Z M30,44 L14,44 C12.895,44 12,44.896 12,46 C12,47.104 12.895,48 14,48 L30,48 C31.104,48 32,47.104 32,46 C32,44.896 31.104,44 30,44 L30,44 L30,44 Z" id="Shape" fill="#CCD1D9"></path>
            <path d="M36,4 L32,4 C32,1.791 30.209,0 28,0 C25.791,0 24,1.791 24,4 L20,4 C17.791,4 16,5.791 16,8 C16,10.209 17.791,12 20,12 L36,12 C38.209,12 40,10.209 40,8 C40,5.791 38.209,4 36,4 L36,4 Z" id="Shape" fill="#666666"></path>
        </g>
    </g>
</svg>
