<svg xmlns="http://www.w3.org/2000/svg" width="24" height="24" viewBox="0 0 24 24"><g fill="none" fill-rule="evenodd"><path fill="#428BCA" fill-rule="nonzero" d="M20.17 3.5c4.6 4.7 4.6 12.3 0 17-4.6 4.67-12.1 4.67-16.7 0-4.62-4.7-4.62-12.3 0-17 4.6-4.67 12.1-4.67 16.7 0"/><path fill="#FFF" fill-rule="nonzero" d="M18.08 5.64c3.46 3.5 3.46 9.2 0 12.72-3.46 3.52-9.07 3.52-12.53 0-3.46-3.5-3.46-9.2 0-12.72 3.46-3.52 9.07-3.52 12.53 0"/><path fill="#D9534F" fill-rule="nonzero" d="M16 7.76c2.3 2.34 2.3 6.14 0 8.48-2.3 2.35-6.05 2.35-8.36 0-2.3-2.34-2.3-6.14 0-8.48 2.3-2.35 6.05-2.35 8.35 0"/><path fill="#FFF" fill-rule="nonzero" d="M13.9 9.88c1.16 1.17 1.16 3.07 0 4.24-1.15 1.17-3.02 1.17-4.17 0-1.16-1.17-1.16-3.07 0-4.24 1.15-1.17 3.02-1.17 4.17 0"/><path fill="#434A54" d="M22.9 1.5h-.75V.75c0-.4-.33-.75-.73-.75-.4 0-.74.34-.74.75-.4 0-.74.34-.74.75v1.17l-8.67 8.8c-.28.3-.28.76 0 1.06.3.3.76.3 1.04 0l8.65-8.78h1.2c.4 0 .74-.34.74-.75.4 0 .73-.34.73-.75 0-.4-.33-.75-.74-.75z"/></g></svg>
