<?xml version="1.0" encoding="UTF-8" standalone="no"?>
<svg width="64px" height="64px" viewBox="0 0 64 64" version="1.1" xmlns="http://www.w3.org/2000/svg" xmlns:xlink="http://www.w3.org/1999/xlink">
    <g id="Page-1" stroke="none" stroke-width="1" fill="none" fill-rule="evenodd">
        <g id="piechart">
            <path d="M32,64 C14.326888,64 0,49.673112 0,32 C0,14.326888 14.326888,0 32,0 C49.673112,0 64,14.326888 64,32 C64,49.673112 49.673112,64 32,64 L32,64 L32,64 Z M31.3043478,50.0869565 C41.6776962,50.0869565 50.0869565,41.6776962 50.0869565,31.3043478 C50.0869565,20.9309995 41.6776962,12.5217391 31.3043478,12.5217391 C20.9309995,12.5217391 12.5217391,20.9309995 12.5217391,31.3043478 C12.5217391,41.6776962 20.9309995,50.0869565 31.3043478,50.0869565 L31.3043478,50.0869565 L31.3043478,50.0869565 Z" id="Combined-Shape" fill="#FFFFFF"></path>
            <path d="M15.6037713,45.5909646 L9.57569495,51.6609127 C4.976312,46.413931 2.16311512,39.5422637 2.16311512,31.9954265 C2.16311512,15.5588521 15.395115,2.23494112 31.7183066,2.23494112 C39.2140078,2.23494112 46.0373494,5.0676788 51.2472128,9.69993959 L45.5591832,15.427479 C41.8414086,12.2087248 37.0050135,10.2633372 31.717383,10.2633372 C19.9856785,10.2633372 10.475253,19.8398234 10.475253,31.6530177 C10.475253,36.9773766 12.4072208,41.8473659 15.6037713,45.5909646 L15.6037713,45.5909646 Z" id="Combined-Shape" fill="#428BCA"></path>
            <path d="M18.2451318,48.1912583 L12.1875534,54.2909134 C17.3983402,58.9213142 24.2207583,61.7549819 31.717383,61.7549819 C47.4162408,61.7549819 60.2197038,49.4187162 61.1774468,33.8544688 L52.848377,33.8544688 C51.7539353,44.633397 42.7109336,53.0426982 31.717383,53.0426982 C26.6032488,53.0426982 21.911224,51.2228791 18.2451318,48.1912583 L18.2451318,48.1912583 Z" id="Combined-Shape" fill="#8674B5"></path>
            <path d="M48.1418213,18.087532 L53.8636891,12.3262204 C58.0751722,17.1361085 60.7590691,23.3214461 61.1783704,30.1345242 L52.9068115,30.1345242 C52.5893492,25.57687 50.8538846,21.4130494 48.1418213,18.087532 L48.1418213,18.087532 Z" id="Combined-Shape" fill="#CCD1D9"></path>
        </g>
    </g>
</svg>
