<?xml version="1.0" encoding="UTF-8" standalone="no"?>
<svg width="120px" height="120px" viewBox="0 0 120 120" version="1.1" xmlns="http://www.w3.org/2000/svg" xmlns:xlink="http://www.w3.org/1999/xlink" xmlns:sketch="http://www.bohemiancoding.com/sketch/ns">
    <defs>
        <circle id="path-1" cx="60" cy="60" r="60"></circle>
    </defs>
    <g id="Page-1" stroke="none" stroke-width="1" fill="none" fill-rule="evenodd">
        <mask id="mask-2" sketch:name="Mask" fill="white">
            <use xlink:href="#path-1"></use>
        </mask>
        <use id="Mask" fill="#E6E9ED" xlink:href="#path-1"></use>
        <path d="M95,34 L25,34 C22.23875,34 20,36.2288 20,38.9777778 L20,83.7777778 C20,86.5267556 22.23875,88.7555556 25,88.7555556 L95,88.7555556 C97.76125,88.7555556 100,86.5267556 100,83.7777778 L100,38.9777778 C100,36.2288 97.76125,34 95,34 L95,34 Z" id="Shape" fill="#FFFFFF" mask="url(#mask-2)"></path>
        <path d="M25,34 C22.23875,34 20,36.2288 20,38.9777778 L20,53.9111111 L100,53.9111111 L100,38.9777778 C100,36.2288 97.76125,34 95,34 L25,34 Z" id="Shape-Copy-4" fill="#D9534F" mask="url(#mask-2)"></path>
        <rect id="Rectangle-60" fill-opacity="0.5" fill="#FFFFFF" mask="url(#mask-2)" x="48" y="48" width="25" height="2.48888889"></rect>
        <path d="M50.3423852,44 L49.1620296,44 L49.1620296,41.2472889 L46.2089629,41.2472889 L46.2089629,44 L45.0286074,44 L45.0286074,37.7018667 L46.2089629,37.7018667 L46.2089629,40.4110222 L49.1620296,40.4110222 L49.1620296,37.7018667 L50.3423852,37.7018667 L50.3423852,44 L50.3423852,44 Z M56.3642518,37.7018667 L56.3642518,38.6339556 L53.5723407,38.6339556 L53.5723407,40.3805333 L55.7718963,40.3805333 L55.7718963,41.2821333 L53.5723407,41.2821333 L53.5723407,43.0635556 L56.3642518,43.0635556 L56.3642518,44 L52.3919852,44 L52.3919852,37.7018667 L56.3642518,37.7018667 L56.3642518,37.7018667 Z M59.3285185,43.0330667 L61.8503852,43.0330667 L61.8503852,44 L58.1568741,44 L58.1568741,37.7018667 L59.3285185,37.7018667 L59.3285185,43.0330667 L59.3285185,43.0330667 Z M64.6099408,43.0330667 L67.1318074,43.0330667 L67.1318074,44 L63.4382963,44 L63.4382963,37.7018667 L64.6099408,37.7018667 L64.6099408,43.0330667 L64.6099408,43.0330667 Z M74.4124297,40.8509333 C74.4124297,41.3126245 74.3354823,41.7401906 74.1815852,42.1336444 C74.0276881,42.5270983 73.8113644,42.8675541 73.5326074,43.1550222 C73.2538505,43.4424903 72.9184761,43.6667992 72.5264741,43.8279556 C72.1344721,43.9891119 71.7003728,44.0696889 71.224163,44.0696889 C70.7479532,44.0696889 70.3131279,43.9891119 69.9196741,43.8279556 C69.5262203,43.6667992 69.189394,43.4424903 68.9091852,43.1550222 C68.6289764,42.8675541 68.4119267,42.5270983 68.2580297,42.1336444 C68.1041326,41.7401906 68.0271852,41.3126245 68.0271852,40.8509333 C68.0271852,40.3892421 68.1041326,39.961676 68.2580297,39.5682222 C68.4119267,39.1747684 68.6289764,38.8343125 68.9091852,38.5468444 C69.189394,38.2593763 69.5262203,38.0350675 69.9196741,37.8739111 C70.3131279,37.7127547 70.7479532,37.6321778 71.224163,37.6321778 C71.7003728,37.6321778 72.1344721,37.7134807 72.5264741,37.8760889 C72.9184761,38.0386971 73.2538505,38.263006 73.5326074,38.5490222 C73.8113644,38.8350385 74.0276881,39.1747684 74.1815852,39.5682222 C74.3354823,39.961676 74.4124297,40.3892421 74.4124297,40.8509333 L74.4124297,40.8509333 L74.4124297,40.8509333 Z M73.2102963,40.8509333 C73.2102963,40.5053909 73.1645634,40.1954236 73.0730963,39.9210222 C72.9816292,39.6466209 72.8502379,39.413601 72.6789185,39.2219556 C72.5075992,39.0303102 72.2992605,38.8836746 72.0538963,38.7820444 C71.8085321,38.6804143 71.5319571,38.6296 71.224163,38.6296 C70.9163689,38.6296 70.6390679,38.6804143 70.3922519,38.7820444 C70.1454358,38.8836746 69.9356453,39.0303102 69.7628741,39.2219556 C69.5901029,39.413601 69.4572598,39.6466209 69.3643408,39.9210222 C69.2714218,40.1954236 69.224963,40.5053909 69.224963,40.8509333 C69.224963,41.1964758 69.2714218,41.5064431 69.3643408,41.7808444 C69.4572598,42.0552458 69.5901029,42.2875398 69.7628741,42.4777333 C69.9356453,42.6679269 70.1454358,42.8138365 70.3922519,42.9154667 C70.6390679,43.0170968 70.9163689,43.0679111 71.224163,43.0679111 C71.5319571,43.0679111 71.8085321,43.0170968 72.0538963,42.9154667 C72.2992605,42.8138365 72.5075992,42.6679269 72.6789185,42.4777333 C72.8502379,42.2875398 72.9816292,42.0552458 73.0730963,41.7808444 C73.1645634,41.5064431 73.2102963,41.1964758 73.2102963,40.8509333 L73.2102963,40.8509333 L73.2102963,40.8509333 Z" id="HELLO" fill="#FFFFFF" mask="url(#mask-2)"></path>
        <path d="M45.628,80.86 C45.3879988,80.7639995 45.1420013,80.5840013 44.89,80.32 C44.6379987,80.0559987 44.4880002,79.828001 44.44,79.636 C44.3199994,79.1559976 44.1880007,78.5680035 44.044,77.872 C43.8999993,77.1759965 43.7560007,76.432004 43.612,75.64 C43.4679993,74.847996 43.3300007,74.0380041 43.198,73.21 C43.0659993,72.3819959 42.9400006,71.5900038 42.82,70.834 C42.6999994,70.0779962 42.6040004,69.400003 42.532,68.8 C42.4599996,68.199997 42.4120001,67.7200018 42.388,67.36 C42.388,66.9759981 42.5199987,66.7600002 42.784,66.712 C43.4080031,66.6399996 43.8519987,66.8679974 44.116,67.396 C44.2360006,67.8280022 44.3679993,68.3199972 44.512,68.872 C44.6560007,69.4240028 44.7999993,70.0239968 44.944,70.672 C45.5200029,70.4559989 46.0359977,70.1800017 46.492,69.844 C46.9480023,69.5079983 47.3259985,69.142002 47.626,68.746 C47.9260015,68.349998 48.1419993,67.9420021 48.274,67.522 C48.4060007,67.1019979 48.4240005,66.688002 48.328,66.28 C48.2079994,65.8239977 47.8720028,65.4880011 47.32,65.272 C46.7679972,65.0559989 46.1440035,64.948 45.448,64.948 C44.4879952,64.948 43.6300038,65.1219983 42.874,65.47 C42.1179962,65.8180017 41.4280031,66.2439975 40.804,66.748 C40.5159986,66.9640011 40.1980017,67.0300004 39.85,66.946 C39.5019983,66.8619996 39.2680006,66.6400018 39.148,66.28 C39.148,65.9439983 39.2079994,65.6560012 39.328,65.416 C39.4480006,65.1759988 39.603999,64.960001 39.796,64.768 C40.5400037,63.9999962 41.4219949,63.4600016 42.442,63.148 C43.4620051,62.8359984 44.5359944,62.68 45.664,62.68 C46.5760046,62.68 47.4579957,62.8239986 48.31,63.112 C49.1620043,63.4000014 49.887997,63.9159963 50.488,64.66 C50.7760014,65.1400024 50.9259999,65.6439974 50.938,66.172 C50.9500001,66.7000026 50.8720008,67.2159975 50.704,67.72 C50.5359992,68.2240025 50.3020015,68.7039977 50.002,69.16 C49.7019985,69.6160023 49.3960016,70.0119983 49.084,70.348 C49.684003,70.2999998 50.2959969,70.3539992 50.92,70.51 C51.5440031,70.6660008 52.1019975,70.9299981 52.594,71.302 C53.0860025,71.6740019 53.4879984,72.159997 53.8,72.76 C54.1120016,73.360003 54.268,74.0799958 54.268,74.92 C54.268,75.8800048 54.0580021,76.755996 53.638,77.548 C53.2179979,78.340004 52.6660034,79.0119972 51.982,79.564 C51.2979966,80.1160028 50.5180044,80.5479984 49.642,80.86 C48.7659956,81.1720016 47.8600047,81.328 46.924,81.328 C46.515998,81.328 46.1920012,81.2080012 45.952,80.968 C45.8319994,80.968 45.7240005,80.9320004 45.628,80.86 L45.628,80.86 L45.628,80.86 Z M45.484,73.3 C45.676001,74.2360047 45.8559992,75.207995 46.024,76.216 C46.1920008,77.224005 46.371999,78.231995 46.564,79.24 L46.708,79.24 C47.2360026,79.24 47.8179968,79.144001 48.454,78.952 C49.0900032,78.759999 49.6839972,78.4780019 50.236,78.106 C50.7880028,77.7339981 51.2439982,77.2780027 51.604,76.738 C51.9640018,76.1979973 52.1320001,75.5920034 52.108,74.92 C51.9879994,74.319997 51.7120022,73.8640016 51.28,73.552 C50.8479978,73.2399984 50.3260031,73.0360005 49.714,72.94 C49.1019969,72.8439995 48.4300037,72.8379996 47.698,72.922 C46.9659963,73.0060004 46.2280037,73.1319992 45.484,73.3 L45.484,73.3 L45.484,73.3 Z M64.888,67.936 C65.6080036,68.2000013 66.2139975,68.5959974 66.706,69.124 C67.1980025,69.6520026 67.5759987,70.2459967 67.84,70.906 C68.1040013,71.5660033 68.2539998,72.2439965 68.29,72.94 C68.3260002,73.6360035 68.248001,74.283997 68.056,74.884 C67.7919987,75.5560034 67.456002,76.2159968 67.048,76.864 C66.639998,77.5120032 66.1720026,78.0879975 65.644,78.592 C65.1159974,79.0960025 64.5160034,79.5039984 63.844,79.816 C63.1719966,80.1280016 62.4280041,80.284 61.612,80.284 C60.6279951,80.284 59.8000034,80.0560023 59.128,79.6 C58.4559966,79.1439977 57.9280019,78.5560036 57.544,77.836 C57.1599981,77.1159964 56.9140005,76.3000046 56.806,75.388 C56.6979995,74.4759954 56.7159993,73.5640046 56.86,72.652 C56.9560005,71.9799966 57.1179989,71.3260032 57.346,70.69 C57.5740011,70.0539968 57.8679982,69.4900025 58.228,68.998 C58.5880018,68.5059975 59.0019977,68.1040016 59.47,67.792 C59.9380023,67.4799984 60.471997,67.324 61.072,67.324 C61.4080017,67.324 61.8279975,67.3899993 62.332,67.522 C62.8360025,67.6540007 63.3039978,67.8399988 63.736,68.08 C64.0480016,67.7919986 64.4319977,67.743999 64.888,67.936 L64.888,67.936 L64.888,67.936 Z M63.52,70.564 C63.2559987,70.3959992 62.9500017,70.1740014 62.602,69.898 C62.2539983,69.6219986 61.9480013,69.484 61.684,69.484 C61.3959986,69.484 61.1140014,69.6159987 60.838,69.88 C60.5619986,70.1440013 60.322001,70.4499983 60.118,70.798 C59.913999,71.1460017 59.7400007,71.4999982 59.596,71.86 C59.4519993,72.2200018 59.3560002,72.5079989 59.308,72.724 C59.2359996,73.0840018 59.1880001,73.5159975 59.164,74.02 C59.1399999,74.5240025 59.1759995,75.0219975 59.272,75.514 C59.3680005,76.0060025 59.5539986,76.449998 59.83,76.846 C60.1060014,77.242002 60.5199972,77.5239992 61.072,77.692 C61.4080017,77.7880005 61.8039977,77.7820005 62.26,77.674 C62.7160023,77.5659995 63.1659978,77.3680014 63.61,77.08 C64.0540022,76.7919986 64.473998,76.4080024 64.87,75.928 C65.266002,75.4479976 65.5719989,74.8960031 65.788,74.272 C66.0280012,73.5759965 66.0340011,72.8500038 65.806,72.094 C65.5779989,71.3379962 65.1160035,70.7920017 64.42,70.456 C64.2519992,70.5760006 64.0840008,70.636 63.916,70.636 C63.7479992,70.636 63.6160005,70.6120002 63.52,70.564 L63.52,70.564 L63.52,70.564 Z M73.312,62.212 C73.3360001,62.5960019 73.3539999,63.0639972 73.366,63.616 C73.3780001,64.1680028 73.3959999,64.7679968 73.42,65.416 C73.4440001,66.0640032 73.4799998,66.7179967 73.528,67.378 C73.5760002,68.0380033 73.6479995,68.667997 73.744,69.268 C74.1040018,68.667997 74.5179977,68.2120016 74.986,67.9 C75.4540023,67.5879984 75.9279976,67.3960004 76.408,67.324 C77.1520037,67.2279995 77.7999972,67.3119987 78.352,67.576 C78.9040028,67.8400013 79.3599982,68.2059977 79.72,68.674 C80.0800018,69.1420023 80.3439992,69.6579972 80.512,70.222 C80.6800008,70.7860028 80.764,71.3319974 80.764,71.86 C80.764,72.9880056 80.4700029,74.0319952 79.882,74.992 C79.2939971,75.9520048 78.6100039,76.8039963 77.83,77.548 C77.0499961,78.2920037 76.2820038,78.9159975 75.526,79.42 C74.7699962,79.9240025 74.2240017,80.2839989 73.888,80.5 C73.4079976,80.692001 72.9400023,80.7400005 72.484,80.644 C72.0279977,80.5479995 71.7280007,80.404001 71.584,80.212 C71.4639994,79.9239986 71.4279998,79.678001 71.476,79.474 C71.5240002,79.269999 71.6199993,79.0840008 71.764,78.916 C71.9080007,78.7479992 72.081999,78.5980007 72.286,78.466 C72.490001,78.3339993 72.6639993,78.2080006 72.808,78.088 C72.2319971,75.4479868 71.7880016,72.7780135 71.476,70.078 C71.1639984,67.3779865 71.0319998,64.6360139 71.08,61.852 C71.08,61.3719976 71.181999,61.0960004 71.386,61.024 C71.590001,60.9519996 71.7639993,60.916 71.908,60.916 C72.2440017,60.9640002 72.5439987,61.0959989 72.808,61.312 C73.0720013,61.5280011 73.2399996,61.8279981 73.312,62.212 L73.312,62.212 L73.312,62.212 Z M78.568,71.752 C78.568,70.9359959 78.364002,70.3660016 77.956,70.042 C77.547998,69.7179984 77.1280022,69.5799998 76.696,69.628 C76.3359982,69.6760002 76.0120014,69.8079989 75.724,70.024 C75.4359986,70.2400011 75.1840011,70.5039984 74.968,70.816 C74.7519989,71.1280016 74.5900005,71.4759981 74.482,71.86 C74.3739995,72.2440019 74.3319999,72.6159982 74.356,72.976 C74.4040002,73.576003 74.4699996,74.2239965 74.554,74.92 C74.6380004,75.6160035 74.7399994,76.2399972 74.86,76.792 C75.2440019,76.5279987 75.6519978,76.2220017 76.084,75.874 C76.5160022,75.5259983 76.9179981,75.1360022 77.29,74.704 C77.6620019,74.2719978 77.9679988,73.8100025 78.208,73.318 C78.4480012,72.8259975 78.568,72.3040028 78.568,71.752 L78.568,71.752 L78.568,71.752 Z" id="Bob" fill="#444444" mask="url(#mask-2)"></path>
    </g>
</svg>
