<?xml version="1.0" encoding="UTF-8" standalone="no"?>
<svg width="120px" height="120px" viewBox="0 0 120 120" version="1.1" xmlns="http://www.w3.org/2000/svg" xmlns:xlink="http://www.w3.org/1999/xlink" title="Sign Stop">
    <g stroke="none" stroke-width="1" fill="none" fill-rule="evenodd">
        <circle fill="#F6D4D4" cx="60" cy="60" r="60"></circle>
        <path d="M81,57.1089 L81,73.4999 C81,80.4639 74.022,87.4999 67.058,87.4999 L58.649,87.4999 C54.332,87.4999 50.315,84.2879 48,80.6449 C43.658,73.8119 38,61.4999 38,61.4999 C36.775,59.0499 37,57.4999 38,56.4999 C39,55.4999 41,54.4999 43,57.4999 L49,66.3269 L49,41.4999 C49,39.4109 50.911,37.4999 53,37.4999 C55.089,37.4999 57,39.4109 57,41.4999 L57,56.4999" stroke="#D9534F" stroke-width="2" stroke-linecap="round" stroke-linejoin="round"></path>
        <path d="M57,51.5 L57,36.5 C57,34.411 58.911,32.5 61,32.5 C63.089,32.5 65,34.411 65,36.5 L65,51.5" stroke="#D9534F" stroke-width="2" stroke-linecap="round" stroke-linejoin="round"></path>
        <path d="M65,56.5 L65,41.5 C65,39.411 66.911,37.5 69,37.5 C71.089,37.5 73,39.411 73,41.5 L73,56.066" stroke="#D9534F" stroke-width="2" stroke-linecap="round" stroke-linejoin="round"></path>
        <path d="M73,59.8481 L73,48.5001 C73,46.4101 74.911,44.5001 77,44.5001 C79.089,44.5001 81,46.4101 81,48.5001 L81,63.4131" stroke="#D9534F" stroke-width="2" stroke-linecap="round" stroke-linejoin="round"></path>
    </g>
</svg>
