<svg xmlns="http://www.w3.org/2000/svg" width="24" height="24" viewBox="0 0 24 24"><g fill="none" fill-rule="evenodd"><path fill="#656D78" d="M23.25 1.5h-10.5V.75c0-.4-.34-.75-.75-.75-.4 0-.75.34-.75.75v.75H.75c-.4 0-.75.34-.75.75v1.5c0 .4.34.75.75.75h10.5V18c-.18 0-.35.08-.48.2L6.2 22.78c-.27.28-.27.74 0 1.02.3.27.75.27 1.03 0l4.02-4.03v2.73c0 .4.34.75.75.75.4 0 .75-.34.75-.75v-2.73l4.02 4.02c.28.27.74.27 1.02 0 .27-.3.27-.75 0-1.03l-4.57-4.56c-.13-.12-.3-.2-.48-.2V4.5h10.5c.4 0 .75-.34.75-.75v-1.5c0-.4-.34-.75-.75-.75z"/><path fill="#CCD1D9" fill-rule="nonzero" d="M.75 4.5V18c0 .83.67 1.5 1.5 1.5h19.5c.83 0 1.5-.67 1.5-1.5V4.5H.75z"/><path fill="#FFF" fill-rule="nonzero" d="M2.25 4.5v12.75c0 .4.34.75.75.75h18c.4 0 .75-.34.75-.75V4.5H2.25z"/><path fill="#9476A3" d="M17.37 7.5c-.1-.02-.23-.02-.35 0h-2.77c-.4 0-.75.34-.75.75 0 .4.34.75.75.75h1.07l-2.57 2.57-1.6-1.6c-.18-.17-.42-.25-.65-.23-.23-.02-.47.06-.65.23L6.22 13.6c-.3.32-.3.83 0 1.15.32.32.84.32 1.15 0l3.13-3.13 1.63 1.63c.17.17.4.25.62.23.22.02.45-.06.62-.23l3.13-3.13v1.13c0 .4.34.75.75.75.4 0 .75-.34.75-.75v-3c0-.37-.27-.68-.63-.74z"/></g></svg>
