<?xml version="1.0" encoding="UTF-8" standalone="no"?>
<svg width="64px" height="64px" viewBox="0 0 64 64" version="1.1" xmlns="http://www.w3.org/2000/svg" xmlns:xlink="http://www.w3.org/1999/xlink">
    <g id="Page-1" stroke="none" stroke-width="1" fill="none" fill-rule="evenodd">
        <g id="wrench-colourfull">
            <path d="M59.6449704,7.77185704 L59.6449704,5.83311602 L59.6449704,4.8485991 L58.8573096,5.43924624 L57.3062238,6.60236676 L48.2929669,12.5832873 L57.1212319,5.0634775 L58.0153763,4.39298094 L58.4694341,4.05249439 L58.0682243,3.65108405 L57.2781497,2.86061447 C56.8738203,2.45608278 56.2325347,2.01115565 55.4440463,1.61671435 C53.972967,0.880806888 52.2855221,0.492307692 50.4274556,0.492307692 C41.1923126,0.492307692 35.393136,5.72435893 35.393136,13.5876923 C35.393136,16.6217651 34.7745363,19.3278535 33.6085086,21.6600546 C33.2401711,22.3967755 32.8361882,23.0545398 32.4135253,23.6181079 C32.2200618,23.8760674 32.0501849,24.0794861 31.9513233,24.1806309 C31.9063947,24.221223 31.9063947,24.221223 31.6792626,24.4309199 C31.4992587,24.5971197 31.4992587,24.5971197 31.3746413,24.7121857 C31.1876804,24.8848265 31.1876804,24.8848265 30.813848,25.230049 C29.8389865,26.1303468 28.7999646,27.0902022 27.7251179,28.0834636 C24.3823879,31.1724668 21.2184115,34.0991258 18.3522916,36.7535365 C10.1926594,44.3106137 5.60460875,48.5879404 4.79858006,49.393566 C1.47585874,52.7179485 0.492307692,54.6407907 0.492307692,58.1841647 C0.492307692,60.9304157 3.08570163,63.5238097 5.83195266,63.5238097 C9.37742847,63.5238097 11.2991029,62.5400163 14.6213234,59.2177958 C15.4274555,58.4116637 19.7047399,53.823957 27.1990869,45.7322344 C29.9169061,42.7977129 32.843608,39.6337331 35.9326332,36.2910033 C36.9258966,35.2161622 37.8857567,34.1771406 38.7860566,33.2022798 C39.1312884,32.8284385 39.1312884,32.8284385 39.3039064,32.6415028 C39.4189964,32.5168596 39.4189964,32.5168596 39.5851831,32.3368701 C39.8056557,32.0980667 39.8056557,32.0980667 39.8541765,32.0455049 C39.8886004,32.0120071 39.966763,31.9361675 40.0606811,31.8465184 C40.2682311,31.6484024 40.497087,31.4364215 40.7411896,31.2167293 C41.5016035,30.5323566 42.284752,29.8845652 43.0640473,29.3000938 C44.1144701,28.5122766 45.0989439,27.884865 45.9914772,27.4385984 C46.9930664,26.9378038 47.8456655,26.6840464 48.4885207,26.6840464 C50.3464849,26.6840464 52.0338362,26.295762 53.50485,25.5602552 C54.2933284,25.1660161 54.9346145,24.7213096 55.3389566,24.3169675 L55.9524935,23.7034305 L56.2640552,23.3918687 L55.9888221,23.047793 L55.4468246,22.3702283 L54.2964459,20.8455811 C57.952636,18.3902832 59.6449704,13.7506589 59.6449704,7.77185704 Z" id="Combined-Shape" fill="#FFFFFF"></path>
            <path d="M50.4274556,13.5876923 L46.5495858,13.5876923 L40.7327811,11.6497268 L40.7327811,17.4665316 L44.6106509,23.2833364 L48.4885207,23.2833364 L48.4885207,21.3444014 C54.3053255,21.3444014 58.1831953,15.5275967 58.1831953,7.77185704 L50.4274556,13.5876923 L50.4274556,13.5876923 L50.4274556,13.5876923 L50.4274556,13.5876923 L50.4274556,13.5876923 Z" id="Shape" fill="#999999"></path>
            <path d="M48.4885207,9.70982248 L56.2442603,3.89398722 C56.2442603,3.89398722 54.3053255,1.95408284 50.4274556,1.95408284 C40.7327811,1.95408284 36.8549112,7.77185704 36.8549112,13.5876923 C36.8549112,21.3444014 32.9770414,25.2222712 32.9770414,25.2222712 L38.7938462,31.0390759 C38.7938462,31.0390759 44.6106509,25.2222712 48.4885207,25.2222712 C52.3663905,25.2222712 54.3053255,23.2833364 54.3053255,23.2833364 L46.5495858,13.5876923 L48.4885207,9.70982248 L48.4885207,9.70982248 L48.4885207,9.70982248 L48.4885207,9.70982248 L48.4885207,9.70982248 Z M48.4885207,21.3444014 C48.4885207,21.3444014 43.6411834,23.2833364 42.6717159,23.2833364 C41.7022486,23.2833364 40.7327811,22.3138689 40.7327811,21.3444014 C40.7327811,20.374934 44.6106509,15.5275967 44.6106509,15.5275967 L48.4885207,21.3444014 L48.4885207,21.3444014 L48.4885207,21.3444014 L48.4885207,21.3444014 L48.4885207,21.3444014 Z" id="Shape" fill="#CCCCCC"></path>
            <path d="M32.9770414,25.2222712 C32.9770414,25.2222712 7.77088757,48.4894902 5.83195266,50.4274556 C3.89301775,52.36736 1.95408284,54.3053255 1.95408284,58.1841647 C1.95408284,60.1230997 3.89301775,62.0620345 5.83195266,62.0620345 C9.70982248,62.0620345 11.6487574,60.1230997 13.5876923,58.1841647 C15.5266272,56.2452298 38.7938462,31.0390759 38.7938462,31.0390759 L32.9770414,25.2222712 L32.9770414,25.2222712 L32.9770414,25.2222712 L32.9770414,25.2222712 L32.9770414,25.2222712 Z M7.77088757,58.1841647 C6.70059551,58.1841647 5.83195266,57.3155219 5.83195266,56.2452298 C5.83195266,55.1739682 6.70059551,54.3053255 7.77088757,54.3053255 C8.84117965,54.3053255 9.70982248,55.1739682 9.70982248,56.2452298 C9.70982248,57.3155219 8.84117965,58.1841647 7.77088757,58.1841647 L7.77088757,58.1841647 L7.77088757,58.1841647 L7.77088757,58.1841647 L7.77088757,58.1841647 Z" id="Shape" fill="#9476A3"></path>
        </g>
    </g>
</svg>
