<?xml version="1.0" encoding="utf-8"?>
<!-- Generator: Adobe Illustrator 17.0.0, SVG Export Plug-In . SVG Version: 6.00 Build 0)  -->
<!DOCTYPE svg PUBLIC "-//W3C//DTD SVG 1.1//EN" "http://www.w3.org/Graphics/SVG/1.1/DTD/svg11.dtd">
<svg version="1.1" id="Layer_1" xmlns="http://www.w3.org/2000/svg" xmlns:xlink="http://www.w3.org/1999/xlink" x="0px" y="0px"
	 width="48px" height="48px" viewBox="0 0 48 48" enable-background="new 0 0 48 48" xml:space="preserve">
<g>
	<path fill="#231F20" d="M22,18.304v15.305c0,0.552,0.448,1,1,1s1-0.448,1-1V18.304c0-0.552-0.448-1-1-1S22,17.752,22,18.304z"/>
	<circle fill="#231F20" cx="23" cy="40.304" r="1.913"/>
	<path fill="#231F20" d="M45.814,46.392L23.894,2.553c-0.339-0.678-1.45-0.678-1.789,0l-22,44c-0.155,0.31-0.138,0.678,0.044,0.973
		C0.331,47.82,0.653,48,1,48h44c0.006,0,0.013,0,0.02,0c0.552,0,1-0.448,1-1C46.02,46.771,45.943,46.56,45.814,46.392z M2.618,46
		L23,5.236L43.382,46H2.618z"/>
</g>
</svg>
