<?xml version="1.0" encoding="utf-8"?>
<!-- Generator: Adobe Illustrator 17.0.0, SVG Export Plug-In . SVG Version: 6.00 Build 0)  -->
<!DOCTYPE svg PUBLIC "-//W3C//DTD SVG 1.1//EN" "http://www.w3.org/Graphics/SVG/1.1/DTD/svg11.dtd">
<svg version="1.1" id="Layer_1" xmlns="http://www.w3.org/2000/svg" xmlns:xlink="http://www.w3.org/1999/xlink" x="0px" y="0px"
	 width="48px" height="48px" viewBox="0 0 48 48" enable-background="new 0 0 48 48" xml:space="preserve">
<g>
	<path fill="#231F20" d="M23.389,0l-0.407,0.003C10.092,0.228-0.217,10.725,0.003,23.404c0.22,12.675,10.15,22.604,22.607,22.604
		l0.407-0.003c6.163-0.108,11.961-2.598,16.328-7.012c4.396-4.444,6.758-10.265,6.652-16.389C45.777,9.929,35.846,0,23.389,0z
		 M37.923,37.587c-3.997,4.041-9.303,6.32-14.941,6.418l-0.372,0.003c-11.355,0-20.407-9.065-20.607-20.638
		C1.802,11.793,11.229,2.208,23.017,2.003L23.389,2c11.355,0,20.407,9.065,20.608,20.639C44.094,28.22,41.937,33.529,37.923,37.587z
		"/>
	<path fill="#231F20" d="M23,27.001c0.552,0,1-0.448,1-1v-14c0-0.552-0.448-1-1-1s-1,0.448-1,1v14
		C22,26.553,22.448,27.001,23,27.001z"/>
	<path fill="#231F20" d="M23.001,31.001c-0.012,0-0.024,0.001-0.036,0.001c-1.104,0.017-1.984,0.93-1.965,2.033
		c0.019,1.094,0.91,1.966,2,1.966c0.012,0,0.023-0.001,0.035-0.001c1.103-0.02,1.984-0.93,1.965-2.034
		C24.981,31.873,24.09,31.001,23.001,31.001z"/>
</g>
</svg>
