<?xml version="1.0" encoding="utf-8"?>
<!-- Generator: Adobe Illustrator 17.0.0, SVG Export Plug-In . SVG Version: 6.00 Build 0)  -->
<!DOCTYPE svg PUBLIC "-//W3C//DTD SVG 1.1//EN" "http://www.w3.org/Graphics/SVG/1.1/DTD/svg11.dtd">
<svg version="1.1" id="Layer_1" xmlns="http://www.w3.org/2000/svg" xmlns:xlink="http://www.w3.org/1999/xlink" x="0px" y="0px"
	 width="48px" height="48px" viewBox="0 0 48 48" enable-background="new 0 0 48 48" xml:space="preserve">
<g>
	<path fill="#231F20" d="M23,0C10.318,0,0,10.318,0,23s10.318,23,23,23s23-10.318,23-23S35.682,0,23,0z M23,44
		C11.42,44,2,34.58,2,23S11.42,2,23,2s21,9.42,21,21S34.58,44,23,44z"/>
	<path fill="#231F20" d="M29,36h-5V19c0-0.552-0.448-1-1-1h-4c-0.552,0-1,0.448-1,1s0.448,1,1,1h3v16h-5c-0.552,0-1,0.448-1,1
		s0.448,1,1,1h12c0.552,0,1-0.448,1-1S29.552,36,29,36z"/>
	<path fill="#231F20" d="M21,12c1.103,0,2-0.897,2-2s-0.897-2-2-2s-2,0.897-2,2S19.897,12,21,12z M21,10v1l-0.002-0.999L21,10z"/>
</g>
</svg>
