<?xml version="1.0" encoding="utf-8"?>
<!-- Generator: Adobe Illustrator 17.0.0, SVG Export Plug-In . SVG Version: 6.00 Build 0)  -->
<!DOCTYPE svg PUBLIC "-//W3C//DTD SVG 1.1//EN" "http://www.w3.org/Graphics/SVG/1.1/DTD/svg11.dtd">
<svg version="1.1" xmlns="http://www.w3.org/2000/svg" xmlns:xlink="http://www.w3.org/1999/xlink" x="0px" y="0px" width="48px"
	 height="48px" viewBox="0 0 48 48" enable-background="new 0 0 48 48" xml:space="preserve">
<g id="Layer_3">
	<g>
		<path fill="#010101" d="M36,15.999c3.859,0,7-3.141,7-7s-3.141-7-7-7c-3.859,0-7,3.141-7,7S32.141,15.999,36,15.999z M35,5.999
			c0-0.553,0.447-1,1-1c0.553,0,1,0.447,1,1v3h1c0.553,0,1,0.447,1,1c0,0.553-0.447,1-1,1h-2c-0.553,0-1-0.447-1-1V5.999z"/>
		<path fill="#010101" d="M16.5,16.036c1.422,0,2.79,0.308,4.067,0.913c0.5,0.235,1.096,0.024,1.332-0.475
			c0.237-0.499,0.024-1.096-0.475-1.332c-1.547-0.734-3.204-1.106-4.925-1.106c-5.71,0-10.607,4.26-11.391,9.907
			c-0.076,0.547,0.306,1.053,0.852,1.128c0.047,0.007,0.093,0.01,0.139,0.01c0.491,0,0.92-0.362,0.989-0.862
			C7.737,19.554,11.783,16.036,16.5,16.036z"/>
		<path fill="#010101" d="M38.852,16.269c-0.426,0.353-0.486,0.983-0.135,1.408C40.189,19.459,41,21.718,41,24.036
			c0,0.914-0.123,1.821-0.366,2.694c-0.148,0.532,0.162,1.084,0.694,1.232c0.09,0.025,0.181,0.037,0.27,0.037
			c0.438,0,0.839-0.289,0.962-0.731c0.292-1.049,0.44-2.136,0.44-3.232c0-2.782-0.974-5.493-2.74-7.633
			C39.908,15.979,39.278,15.919,38.852,16.269z"/>
		<path fill="#010101" d="M25.024,15.8c0.187,0,0.375-0.052,0.543-0.161c0.844-0.547,1.762-0.962,2.729-1.233
			c0.532-0.149,0.842-0.702,0.692-1.233c-0.149-0.531-0.699-0.838-1.233-0.692c-1.161,0.326-2.264,0.825-3.276,1.481
			c-0.464,0.3-0.596,0.919-0.295,1.383C24.376,15.639,24.696,15.8,25.024,15.8z"/>
		<path fill="#010101" d="M31,16.999c-3.469,0-6.421,2.224-7.527,5.317c-1.455-2.006-3.811-3.317-6.473-3.317c-4.411,0-8,3.589-8,8
			v18c0,0.553,0.447,1,1,1h14h14c0.553,0,1-0.447,1-1v-20C39,20.588,35.411,16.999,31,16.999z M21,29.999c0,0.553-0.447,1-1,1h-6
			c-0.553,0-1-0.447-1-1v-3c0-2.206,1.794-4,4-4c2.206,0,4,1.794,4,4V29.999z M35,27.999c0,0.553-0.447,1-1,1h-6
			c-0.553,0-1-0.447-1-1v-3c0-2.206,1.794-4,4-4c2.206,0,4,1.794,4,4V27.999z"/>
	</g>
</g>
<g id="nyt_x5F_exporter_x5F_info" display="none">
</g>
</svg>
