<?xml version="1.0" encoding="utf-8"?>
<!-- Generator: Adobe Illustrator 17.0.0, SVG Export Plug-In . SVG Version: 6.00 Build 0)  -->
<!DOCTYPE svg PUBLIC "-//W3C//DTD SVG 1.1//EN" "http://www.w3.org/Graphics/SVG/1.1/DTD/svg11.dtd">
<svg version="1.1" xmlns="http://www.w3.org/2000/svg" xmlns:xlink="http://www.w3.org/1999/xlink" x="0px" y="0px" width="48px"
	 height="48px" viewBox="0 0 48 48" enable-background="new 0 0 48 48" xml:space="preserve">
<g id="Layer_3">
	<g>
		<path fill="#010101" d="M30,16c-3.01,0-5.635,1.672-7,4.136C21.635,17.672,19.01,16,16,16c-4.411,0-8,3.589-8,8v9
			c0,0.553,0.447,1,1,1h14h14c0.553,0,1-0.447,1-1v-9C38,19.589,34.411,16,30,16z M20,27c0,0.553-0.447,1-1,1h-6
			c-0.553,0-1-0.447-1-1v-3c0-2.206,1.794-4,4-4c2.206,0,4,1.794,4,4V27z M34,27c0,0.553-0.447,1-1,1h-6c-0.553,0-1-0.447-1-1v-3
			c0-2.206,1.794-4,4-4c2.206,0,4,1.794,4,4V27z"/>
		<path fill="#010101" d="M18.625,5.781L22,3.081V10c0,0.553,0.447,1,1,1c0.553,0,1-0.447,1-1V3.081l3.375,2.701
			C27.56,5.929,27.78,6,27.999,6c0.294,0,0.584-0.129,0.782-0.375c0.345-0.432,0.274-1.06-0.156-1.406l-5-4
			c-0.045-0.036-0.099-0.054-0.148-0.082c-0.04-0.022-0.075-0.048-0.118-0.065c-0.111-0.043-0.227-0.068-0.344-0.069
			C23.009,0.003,23.005,0,23,0s-0.009,0.003-0.014,0.003c-0.117,0.002-0.233,0.026-0.344,0.069
			c-0.043,0.017-0.078,0.043-0.118,0.065c-0.05,0.027-0.103,0.045-0.149,0.082l-5,4c-0.431,0.346-0.501,0.975-0.156,1.406
			C17.564,6.056,18.192,6.127,18.625,5.781z"/>
		<path fill="#010101" d="M27.375,42.219L24,44.919V38c0-0.553-0.447-1-1-1c-0.553,0-1,0.447-1,1v6.919l-3.375-2.701
			c-0.432-0.345-1.06-0.272-1.406,0.156c-0.345,0.432-0.274,1.061,0.156,1.406l5,4c0.046,0.037,0.099,0.055,0.149,0.082
			c0.04,0.022,0.074,0.048,0.117,0.064C22.757,47.972,22.878,48,23,48c0.122,0,0.243-0.028,0.359-0.072
			c0.043-0.017,0.078-0.042,0.117-0.064c0.05-0.027,0.104-0.046,0.149-0.082l5-4c0.431-0.346,0.501-0.975,0.156-1.406
			C28.435,41.944,27.808,41.873,27.375,42.219z"/>
	</g>
</g>
<g id="nyt_x5F_exporter_x5F_info" display="none">
</g>
</svg>
