<?xml version="1.0" encoding="utf-8"?>
<!-- Generator: Adobe Illustrator 17.0.0, SVG Export Plug-In . SVG Version: 6.00 Build 0)  -->
<!DOCTYPE svg PUBLIC "-//W3C//DTD SVG 1.1//EN" "http://www.w3.org/Graphics/SVG/1.1/DTD/svg11.dtd">
<svg version="1.1" xmlns="http://www.w3.org/2000/svg" xmlns:xlink="http://www.w3.org/1999/xlink" x="0px" y="0px" width="48px"
	 height="48px" viewBox="0 0 48 48" enable-background="new 0 0 48 48" xml:space="preserve">
<g id="Layer_3">
	<g>
		<path fill="#010101" d="M29.864,24C32.327,22.635,34,20.01,34,17c0-4.411-3.589-8-8-8H8c-0.553,0-1,0.447-1,1v14v14
			c0,0.553,0.447,1,1,1h18c4.411,0,8-3.589,8-8C34,27.99,32.327,25.365,29.864,24z M22,14c0-0.553,0.447-1,1-1h3
			c2.206,0,4,1.794,4,4s-1.794,4-4,4h-3c-0.553,0-1-0.447-1-1V14z M26,35h-3c-0.553,0-1-0.447-1-1v-6c0-0.553,0.447-1,1-1h3
			c2.206,0,4,1.794,4,4S28.206,35,26,35z"/>
		<path fill="#010101" d="M35.988,2.336l3.851,0.626c0.545,0.095,1.059-0.282,1.147-0.827c0.088-0.545-0.282-1.059-0.827-1.147
			l-6-0.975c-0.114-0.017-0.228-0.014-0.338,0.006c-0.041,0.007-0.078,0.03-0.118,0.042c-0.077,0.024-0.152,0.05-0.221,0.092
			c-0.014,0.009-0.03,0.009-0.044,0.019c-0.032,0.021-0.049,0.054-0.077,0.079c-0.056,0.046-0.107,0.096-0.152,0.154
			c-0.032,0.043-0.058,0.085-0.082,0.132c-0.017,0.031-0.042,0.056-0.056,0.09l-2,4.975c-0.206,0.513,0.042,1.095,0.555,1.301
			C31.749,6.951,31.875,6.975,32,6.975c0.395,0,0.77-0.237,0.928-0.627l1.26-3.134C37.258,8.614,39,16.045,39,23.975
			c0,8.897-2.08,17.087-5.708,22.467c-0.309,0.457-0.188,1.079,0.271,1.388C33.733,47.945,33.928,48,34.12,48
			c0.321,0,0.637-0.154,0.83-0.441C38.795,41.858,41,33.261,41,23.975C41,15.765,39.188,8.029,35.988,2.336z"/>
	</g>
</g>
<g id="nyt_x5F_exporter_x5F_info" display="none">
</g>
</svg>
