<?xml version="1.0" encoding="utf-8"?>
<!-- Generator: Adobe Illustrator 17.0.0, SVG Export Plug-In . SVG Version: 6.00 Build 0)  -->
<!DOCTYPE svg PUBLIC "-//W3C//DTD SVG 1.1//EN" "http://www.w3.org/Graphics/SVG/1.1/DTD/svg11.dtd">
<svg version="1.1" xmlns="http://www.w3.org/2000/svg" xmlns:xlink="http://www.w3.org/1999/xlink" x="0px" y="0px" width="48px"
	 height="48px" viewBox="0 0 48 48" enable-background="new 0 0 48 48" xml:space="preserve">
<g id="Layer_3">
	<g>
		<path fill="#010101" d="M19.63,5.781l3.375-2.701V10c0,0.553,0.447,1,1,1s1-0.447,1-1V3.081l3.375,2.701
			C28.565,5.929,28.785,6,29.004,6c0.294,0,0.584-0.129,0.782-0.375c0.345-0.432,0.274-1.06-0.156-1.406l-5-4
			c-0.045-0.036-0.099-0.054-0.148-0.082c-0.04-0.022-0.075-0.048-0.118-0.065c-0.111-0.043-0.227-0.068-0.344-0.069
			C24.014,0.003,24.01,0,24.005,0C24,0,23.996,0.003,23.991,0.003c-0.117,0.002-0.233,0.026-0.344,0.069
			c-0.043,0.017-0.078,0.043-0.118,0.065c-0.05,0.027-0.103,0.045-0.149,0.082l-5,4c-0.431,0.346-0.501,0.975-0.156,1.406
			C18.57,6.056,19.198,6.127,19.63,5.781z"/>
		<path fill="#010101" d="M28.38,42.219l-3.375,2.701V38c0-0.553-0.447-1-1-1s-1,0.447-1,1v6.919l-3.375-2.701
			c-0.432-0.345-1.06-0.272-1.406,0.156c-0.345,0.432-0.274,1.061,0.156,1.406l5,4c0.046,0.037,0.099,0.055,0.149,0.082
			c0.04,0.022,0.075,0.048,0.117,0.064C23.762,47.972,23.883,48,24.005,48c0.122,0,0.243-0.028,0.359-0.072
			c0.043-0.017,0.078-0.042,0.117-0.064c0.05-0.027,0.104-0.046,0.149-0.082l5-4c0.431-0.346,0.501-0.975,0.156-1.406
			C29.441,41.944,28.813,41.873,28.38,42.219z"/>
		<path fill="#010101" d="M6.005,23H3.086l2.701-3.375c0.345-0.432,0.274-1.06-0.156-1.406c-0.433-0.345-1.06-0.273-1.406,0.156
			l-4,5c-0.037,0.046-0.056,0.101-0.083,0.151c-0.021,0.039-0.047,0.073-0.063,0.114c-0.09,0.233-0.09,0.487,0,0.72
			c0.016,0.042,0.042,0.075,0.063,0.114c0.028,0.051,0.046,0.105,0.083,0.151l4,5C4.422,29.872,4.712,30,5.006,30
			c0.219,0,0.439-0.071,0.624-0.219c0.431-0.346,0.501-0.975,0.156-1.406L3.086,25h2.919c0.553,0,1-0.447,1-1
			C7.005,23.447,6.558,23,6.005,23z"/>
		<path fill="#010101" d="M47.933,23.641c-0.016-0.042-0.042-0.076-0.063-0.115c-0.028-0.05-0.046-0.104-0.083-0.15l-4-5
			c-0.346-0.431-0.974-0.502-1.406-0.156c-0.431,0.346-0.501,0.975-0.156,1.406L44.924,23h-2.919c-0.553,0-1,0.447-1,1
			c0,0.553,0.447,1,1,1h2.919l-2.701,3.375c-0.345,0.432-0.274,1.061,0.156,1.406C42.565,29.929,42.785,30,43.004,30
			c0.294,0,0.584-0.129,0.782-0.375l4-5c0.037-0.046,0.055-0.1,0.083-0.151c0.021-0.039,0.047-0.073,0.063-0.115
			C48.022,24.127,48.022,23.873,47.933,23.641z"/>
		<path fill="#010101" d="M31.005,16c-3.01,0-5.635,1.672-7,4.136c-1.365-2.463-3.99-4.136-7-4.136c-4.411,0-8,3.589-8,8v9
			c0,0.553,0.447,1,1,1h14h14c0.553,0,1-0.447,1-1v-9C39.005,19.589,35.416,16,31.005,16z M21.005,27c0,0.553-0.447,1-1,1h-6
			c-0.553,0-1-0.447-1-1v-3c0-2.206,1.794-4,4-4s4,1.794,4,4V27z M35.005,27c0,0.553-0.447,1-1,1h-6c-0.553,0-1-0.447-1-1v-3
			c0-2.206,1.794-4,4-4s4,1.794,4,4V27z"/>
	</g>
</g>
<g id="nyt_x5F_exporter_x5F_info" display="none">
</g>
</svg>
