<?xml version="1.0" encoding="utf-8"?>
<!-- Generator: Adobe Illustrator 17.0.0, SVG Export Plug-In . SVG Version: 6.00 Build 0)  -->
<!DOCTYPE svg PUBLIC "-//W3C//DTD SVG 1.1//EN" "http://www.w3.org/Graphics/SVG/1.1/DTD/svg11.dtd">
<svg version="1.1" xmlns="http://www.w3.org/2000/svg" xmlns:xlink="http://www.w3.org/1999/xlink" x="0px" y="0px" width="48px"
	 height="48px" viewBox="0 0 48 48" enable-background="new 0 0 48 48" xml:space="preserve">
<g id="Layer_3">
	<g>
		<path fill="#010101" d="M31,19.001c-3.01,0-5.635,1.672-7,4.136c-1.365-2.463-3.99-4.136-7-4.136c-4.411,0-8,3.589-8,8v18
			c0,0.553,0.447,1,1,1h14h14c0.553,0,1-0.447,1-1v-18C39,22.59,35.411,19.001,31,19.001z M21,30.001c0,0.553-0.447,1-1,1h-6
			c-0.553,0-1-0.447-1-1v-3c0-2.206,1.794-4,4-4c2.206,0,4,1.794,4,4V30.001z M35,30.001c0,0.553-0.447,1-1,1h-6
			c-0.553,0-1-0.447-1-1v-3c0-2.206,1.794-4,4-4c2.206,0,4,1.794,4,4V30.001z"/>
		<path fill="#010101" d="M47.559,18.051c-5.701-3.845-14.288-6.05-23.559-6.05c-8.22,0-15.962,1.81-21.654,5.005l0.64-3.841
			c0.091-0.544-0.277-1.06-0.822-1.15c-0.545-0.095-1.06,0.277-1.15,0.822l-1,6c-0.02,0.119-0.016,0.236,0.005,0.35
			c0.004,0.022,0.017,0.042,0.023,0.064c0.026,0.098,0.062,0.191,0.116,0.277c0.007,0.011,0.007,0.024,0.014,0.035
			c0.109,0.161,0.259,0.275,0.425,0.349c0.012,0.005,0.02,0.015,0.032,0.019l5,2C5.75,21.979,5.876,22.001,6,22.001
			c0.397,0,0.773-0.237,0.929-0.629c0.205-0.513-0.045-1.095-0.558-1.3l-3.153-1.262c5.4-3.069,12.839-4.81,20.782-4.81
			c8.882,0,17.061,2.08,22.441,5.708c0.456,0.308,1.078,0.188,1.388-0.271C48.138,18.982,48.017,18.36,47.559,18.051z"/>
	</g>
</g>
<g id="nyt_x5F_exporter_x5F_info" display="none">
</g>
</svg>
