<?xml version="1.0" encoding="utf-8"?>
<!-- Generator: Adobe Illustrator 17.0.0, SVG Export Plug-In . SVG Version: 6.00 Build 0)  -->
<!DOCTYPE svg PUBLIC "-//W3C//DTD SVG 1.1//EN" "http://www.w3.org/Graphics/SVG/1.1/DTD/svg11.dtd">
<svg version="1.1" xmlns="http://www.w3.org/2000/svg" xmlns:xlink="http://www.w3.org/1999/xlink" x="0px" y="0px" width="48px"
	 height="48px" viewBox="0 0 48 48" enable-background="new 0 0 48 48" xml:space="preserve">
<g id="Layer_3">
	<g>
		<path fill="#010101" d="M31.005,16c-3.01,0-5.635,1.672-7,4.136c-1.365-2.463-3.99-4.136-7-4.136c-4.411,0-8,3.589-8,8v9
			c0,0.553,0.447,1,1,1h14h14c0.553,0,1-0.447,1-1v-9C39.005,19.589,35.416,16,31.005,16z M21.005,27c0,0.553-0.447,1-1,1h-6
			c-0.553,0-1-0.447-1-1v-3c0-2.206,1.794-4,4-4c2.206,0,4,1.794,4,4V27z M35.005,27c0,0.553-0.447,1-1,1h-6c-0.553,0-1-0.447-1-1
			v-3c0-2.206,1.794-4,4-4c2.206,0,4,1.794,4,4V27z"/>
		<path fill="#010101" d="M6.005,22H3.086l2.701-3.375c0.345-0.432,0.274-1.06-0.156-1.406c-0.433-0.344-1.06-0.273-1.406,0.156
			l-4,5c-0.037,0.046-0.056,0.101-0.083,0.151c-0.021,0.039-0.047,0.073-0.063,0.114c-0.09,0.233-0.09,0.487,0,0.72
			c0.016,0.042,0.042,0.075,0.063,0.114c0.028,0.051,0.046,0.105,0.083,0.151l4,5C4.422,28.872,4.712,29,5.006,29
			c0.219,0,0.439-0.071,0.624-0.219c0.431-0.346,0.501-0.975,0.156-1.406L3.086,24h2.919c0.553,0,1-0.447,1-1
			C7.005,22.447,6.558,22,6.005,22z"/>
		<path fill="#010101" d="M47.933,22.641c-0.016-0.042-0.042-0.076-0.063-0.115c-0.028-0.05-0.046-0.104-0.083-0.15l-4-5
			c-0.346-0.431-0.974-0.501-1.406-0.156c-0.431,0.346-0.501,0.975-0.156,1.406L44.924,22h-2.919c-0.553,0-1,0.447-1,1
			c0,0.553,0.447,1,1,1h2.919l-2.701,3.375c-0.345,0.432-0.274,1.061,0.156,1.406C42.565,28.929,42.785,29,43.004,29
			c0.294,0,0.584-0.129,0.782-0.375l4-5c0.037-0.046,0.055-0.1,0.083-0.151c0.021-0.039,0.047-0.073,0.063-0.115
			C48.022,23.127,48.022,22.873,47.933,22.641z"/>
	</g>
</g>
<g id="nyt_x5F_exporter_x5F_info" display="none">
</g>
</svg>
