<?xml version="1.0" encoding="utf-8"?>
<!-- Generator: Adobe Illustrator 17.0.0, SVG Export Plug-In . SVG Version: 6.00 Build 0)  -->
<!DOCTYPE svg PUBLIC "-//W3C//DTD SVG 1.1//EN" "http://www.w3.org/Graphics/SVG/1.1/DTD/svg11.dtd">
<svg version="1.1" xmlns="http://www.w3.org/2000/svg" xmlns:xlink="http://www.w3.org/1999/xlink" x="0px" y="0px" width="48px"
	 height="48px" viewBox="0 0 48 48" enable-background="new 0 0 48 48" xml:space="preserve">
<g id="Layer_3">
	<g>
		<path fill="#010101" d="M35,31c0-3.01-1.673-5.635-4.136-7C33.327,22.635,35,20.01,35,17c0-4.411-3.589-8-8-8H9
			c-0.553,0-1,0.447-1,1v14v14c0,0.553,0.447,1,1,1h18C31.411,39,35,35.411,35,31z M23,14c0-0.553,0.447-1,1-1h3
			c2.206,0,4,1.794,4,4c0,2.206-1.794,4-4,4h-3c-0.553,0-1-0.447-1-1V14z M27,35h-3c-0.553,0-1-0.447-1-1v-6c0-0.553,0.447-1,1-1h3
			c2.206,0,4,1.794,4,4C31,33.206,29.206,35,27,35z"/>
		<path fill="#010101" d="M40.836,45.014l-3.842,0.64C40.19,39.959,42,32.218,42,24c0-9.27-2.205-17.857-6.05-23.559
			c-0.309-0.459-0.931-0.579-1.388-0.271c-0.458,0.309-0.579,0.931-0.271,1.388C37.92,6.939,40,15.118,40,24
			c0,7.94-1.741,15.379-4.81,20.781l-1.261-3.152c-0.205-0.514-0.791-0.763-1.3-0.558c-0.513,0.205-0.763,0.787-0.558,1.3l2,5
			c0.016,0.039,0.043,0.071,0.063,0.107c0.019,0.034,0.035,0.066,0.058,0.098c0.068,0.095,0.146,0.18,0.24,0.245
			c0.003,0.002,0.004,0.005,0.007,0.007c0,0,0.001,0,0.001,0c0.083,0.056,0.173,0.099,0.268,0.128
			C34.804,47.985,34.902,48,34.999,48c0.055,0,0.11-0.005,0.165-0.014l6-1c0.545-0.091,0.913-0.606,0.822-1.15
			C41.895,45.291,41.381,44.921,40.836,45.014z"/>
	</g>
</g>
<g id="nyt_x5F_exporter_x5F_info" display="none">
</g>
</svg>
