<?xml version="1.0" encoding="utf-8"?>
<!-- Generator: Adobe Illustrator 17.0.0, SVG Export Plug-In . SVG Version: 6.00 Build 0)  -->
<!DOCTYPE svg PUBLIC "-//W3C//DTD SVG 1.1//EN" "http://www.w3.org/Graphics/SVG/1.1/DTD/svg11.dtd">
<svg version="1.1" xmlns="http://www.w3.org/2000/svg" xmlns:xlink="http://www.w3.org/1999/xlink" x="0px" y="0px" width="48px"
	 height="48px" viewBox="0 0 48 48" enable-background="new 0 0 48 48" xml:space="preserve">
<g id="Layer_3">
	<g>
		<path fill="#010101" d="M31,20.002c-3.01,0-5.635,1.672-7,4.136c-1.365-2.463-3.99-4.136-7-4.136c-4.411,0-8,3.589-8,8v18
			c0,0.553,0.447,1,1,1h14h14c0.553,0,1-0.447,1-1v-18C39,23.591,35.411,20.002,31,20.002z M21,31.002c0,0.553-0.447,1-1,1h-6
			c-0.553,0-1-0.447-1-1v-3c0-2.206,1.794-4,4-4c2.206,0,4,1.794,4,4V31.002z M35,31.002c0,0.553-0.447,1-1,1h-6
			c-0.553,0-1-0.447-1-1v-3c0-2.206,1.794-4,4-4c2.206,0,4,1.794,4,4V31.002z"/>
		<path fill="#010101" d="M47.013,11.842c-0.089-0.545-0.604-0.921-1.147-0.827c-0.545,0.089-0.915,0.602-0.827,1.148l0.626,3.851
			c-5.691-3.199-13.427-5.011-21.638-5.011c-9.286,0-17.883,2.205-23.584,6.05c-0.458,0.309-0.579,0.931-0.271,1.388
			c0.309,0.46,0.931,0.578,1.388,0.27c5.38-3.628,13.569-5.708,22.467-5.708c7.931,0,15.363,1.741,20.762,4.813l-3.135,1.26
			c-0.513,0.206-0.761,0.788-0.555,1.301c0.157,0.391,0.532,0.627,0.928,0.627c0.124,0,0.251-0.023,0.373-0.072l4.975-2
			c0.012-0.005,0.02-0.014,0.031-0.019c0.092-0.041,0.181-0.091,0.259-0.16c0.062-0.055,0.117-0.117,0.166-0.188
			c0.007-0.01,0.007-0.023,0.014-0.033c0.056-0.09,0.096-0.187,0.121-0.29c0.004-0.017,0.015-0.032,0.018-0.049
			c0.022-0.113,0.025-0.23,0.006-0.348L47.013,11.842z"/>
	</g>
</g>
<g id="nyt_x5F_exporter_x5F_info" display="none">
</g>
</svg>
