<?xml version="1.0" encoding="utf-8"?>
<!-- Generator: Adobe Illustrator 17.0.0, SVG Export Plug-In . SVG Version: 6.00 Build 0)  -->
<!DOCTYPE svg PUBLIC "-//W3C//DTD SVG 1.1//EN" "http://www.w3.org/Graphics/SVG/1.1/DTD/svg11.dtd">
<svg version="1.1" xmlns="http://www.w3.org/2000/svg" xmlns:xlink="http://www.w3.org/1999/xlink" x="0px" y="0px" width="48px"
	 height="48px" viewBox="0 0 48 48" enable-background="new 0 0 48 48" xml:space="preserve">
<g id="Layer_3">
	<g>
		<path fill="#010101" d="M31,16.999c-3.469,0-6.421,2.224-7.527,5.317c-1.455-2.006-3.811-3.317-6.473-3.317c-4.411,0-8,3.589-8,8
			v18c0,0.553,0.447,1,1,1h14h14c0.553,0,1-0.447,1-1v-20C39,20.588,35.411,16.999,31,16.999z M21,29.999c0,0.553-0.447,1-1,1h-6
			c-0.553,0-1-0.447-1-1v-3c0-2.206,1.794-4,4-4c2.206,0,4,1.794,4,4V29.999z M35,27.999c0,0.553-0.447,1-1,1h-6
			c-0.553,0-1-0.447-1-1v-3c0-2.206,1.794-4,4-4c2.206,0,4,1.794,4,4V27.999z"/>
		<path fill="#010101" d="M16.4,15.999c1.424,0,2.792,0.307,4.067,0.911c0.503,0.236,1.097,0.025,1.332-0.475
			c0.237-0.499,0.024-1.096-0.475-1.332c-1.545-0.733-3.202-1.105-4.925-1.105c-5.71,0-10.607,4.259-11.391,9.905
			c-0.076,0.547,0.306,1.053,0.852,1.128c0.047,0.007,0.093,0.01,0.139,0.01c0.491,0,0.92-0.362,0.989-0.862
			C7.638,19.516,11.683,15.999,16.4,15.999z"/>
		<path fill="#010101" d="M30.9,11.999c-2.322,0-4.578,0.665-6.521,1.925c-0.463,0.3-0.596,0.919-0.295,1.383
			c0.3,0.462,0.919,0.596,1.383,0.295c1.618-1.048,3.498-1.602,5.434-1.602c5.514,0,10,4.486,10,10c0,0.553,0.447,1,1,1s1-0.447,1-1
			C42.9,17.382,37.518,11.999,30.9,11.999z"/>
		<path fill="#010101" d="M31,6.999c-2.209,0-4.355,0.416-6.377,1.237c-0.512,0.208-0.759,0.791-0.551,1.303
			c0.209,0.513,0.794,0.758,1.303,0.551C27.158,9.367,29.051,8.999,31,8.999c8.271,0,15,6.729,15,15c0,0.95-0.09,1.902-0.267,2.83
			c-0.104,0.543,0.253,1.066,0.795,1.17c0.064,0.012,0.127,0.018,0.189,0.018c0.471,0,0.89-0.334,0.981-0.812
			c0.2-1.051,0.302-2.129,0.302-3.205C48,14.625,40.374,6.999,31,6.999z"/>
		<path fill="#010101" d="M17,10.999c1.273,0,2.538,0.159,3.76,0.475c0.529,0.14,1.08-0.185,1.218-0.72
			c0.138-0.534-0.184-1.08-0.72-1.218C19.874,9.18,18.441,8.999,17,8.999c-9.374,0-17,7.626-17,17c0,0.71,0.044,1.425,0.132,2.124
			c0.064,0.506,0.494,0.876,0.991,0.876c0.041,0,0.083-0.003,0.125-0.008c0.548-0.068,0.937-0.568,0.868-1.116
			C2.039,27.258,2,26.626,2,25.999C2,17.728,8.728,10.999,17,10.999z"/>
	</g>
</g>
<g id="nyt_x5F_exporter_x5F_info" display="none">
</g>
</svg>
