<?xml version="1.0" encoding="utf-8"?>
<!-- Generator: Adobe Illustrator 17.0.0, SVG Export Plug-In . SVG Version: 6.00 Build 0)  -->
<!DOCTYPE svg PUBLIC "-//W3C//DTD SVG 1.1//EN" "http://www.w3.org/Graphics/SVG/1.1/DTD/svg11.dtd">
<svg version="1.1" xmlns="http://www.w3.org/2000/svg" xmlns:xlink="http://www.w3.org/1999/xlink" x="0px" y="0px" width="48px"
	 height="48px" viewBox="0 0 48 48" enable-background="new 0 0 48 48" xml:space="preserve">
<g id="Layer_3">
	<g>
		<path fill="#010101" d="M24,17.999c-4.411,0-8,3.589-8,8v19c0,0.553,0.447,1,1,1h14c0.553,0,1-0.447,1-1v-19
			C32,21.588,28.411,17.999,24,17.999z M28,28.999c0,0.553-0.447,1-1,1h-6c-0.553,0-1-0.447-1-1v-3c0-2.206,1.794-4,4-4s4,1.794,4,4
			V28.999z"/>
		<path fill="#010101" d="M24,11.999c-7.72,0-14,6.28-14,14c0,2.633,0.735,5.199,2.127,7.421c0.292,0.469,0.91,0.608,1.378,0.317
			c0.469-0.293,0.61-0.91,0.317-1.378C12.63,30.455,12,28.256,12,25.999c0-6.617,5.383-12,12-12s12,5.383,12,12
			c0,2.27-0.637,4.477-1.84,6.387c-0.295,0.467-0.155,1.084,0.312,1.379c0.165,0.104,0.35,0.154,0.532,0.154
			c0.332,0,0.656-0.165,0.847-0.467C37.257,31.224,38,28.647,38,25.999C38,18.28,31.72,11.999,24,11.999z"/>
		<path fill="#010101" d="M24,5.999c-11.028,0-20,8.972-20,20c0,5.025,1.871,9.83,5.269,13.528c0.197,0.215,0.467,0.323,0.736,0.323
			c0.242,0,0.484-0.087,0.677-0.264c0.406-0.374,0.434-1.006,0.06-1.413C7.685,34.846,6,30.523,6,25.999c0-9.925,8.075-18,18-18
			s18,8.075,18,18c0,4.495-1.667,8.801-4.694,12.121c-0.372,0.408-0.343,1.041,0.065,1.413c0.408,0.37,1.041,0.342,1.413-0.065
			C42.147,35.778,44,30.994,44,25.999C44,14.971,35.028,5.999,24,5.999z"/>
	</g>
</g>
<g id="nyt_x5F_exporter_x5F_info" display="none">
</g>
</svg>
