<?xml version="1.0" encoding="utf-8"?>
<!-- Generator: Adobe Illustrator 17.0.0, SVG Export Plug-In . SVG Version: 6.00 Build 0)  -->
<!DOCTYPE svg PUBLIC "-//W3C//DTD SVG 1.1//EN" "http://www.w3.org/Graphics/SVG/1.1/DTD/svg11.dtd">
<svg version="1.1" xmlns="http://www.w3.org/2000/svg" xmlns:xlink="http://www.w3.org/1999/xlink" x="0px" y="0px" width="48px"
	 height="48px" viewBox="0 0 48 48" enable-background="new 0 0 48 48" xml:space="preserve">
<g id="Layer_3">
	<g>
		<path fill="#010101" d="M33.995,18c-4.411,0-8,3.589-8,8v19c0,0.553,0.447,1,1,1h14c0.553,0,1-0.447,1-1V26
			C41.995,21.589,38.406,18,33.995,18z M37.995,29c0,0.553-0.447,1-1,1h-6c-0.553,0-1-0.447-1-1v-3c0-2.206,1.794-4,4-4s4,1.794,4,4
			V29z"/>
		<path fill="#010101" d="M16.995,22H3.075l2.701-3.375c0.345-0.432,0.274-1.06-0.156-1.406c-0.432-0.345-1.061-0.273-1.406,0.156
			l-4,5c-0.037,0.046-0.056,0.1-0.083,0.151c-0.021,0.039-0.047,0.073-0.063,0.114c-0.09,0.233-0.09,0.487,0,0.72
			c0.016,0.042,0.042,0.075,0.063,0.114c0.028,0.05,0.046,0.105,0.083,0.151l4,5C4.412,28.872,4.702,29,4.996,29
			c0.219,0,0.439-0.071,0.624-0.219c0.431-0.346,0.501-0.975,0.156-1.406L3.075,24h13.919c0.553,0,1-0.447,1-1
			C17.995,22.447,17.548,22,16.995,22z"/>
		<path fill="#010101" d="M33.995,12c-7.72,0-14,6.28-14,14c0,2.647,0.742,5.224,2.147,7.453c0.189,0.302,0.515,0.467,0.847,0.467
			c0.183,0,0.366-0.05,0.532-0.154c0.467-0.294,0.607-0.911,0.312-1.379c-1.203-1.909-1.839-4.118-1.839-6.387
			c0-6.617,5.383-12,12-12s12,5.383,12,12c0,2.257-0.63,4.456-1.822,6.36c-0.293,0.468-0.151,1.085,0.317,1.378
			c0.469,0.294,1.086,0.153,1.378-0.317c1.392-2.222,2.127-4.788,2.127-7.421C47.995,18.28,41.715,12,33.995,12z"/>
	</g>
</g>
<g id="nyt_x5F_exporter_x5F_info" display="none">
</g>
</svg>
