<?xml version="1.0" encoding="utf-8"?>
<!-- Generator: Adobe Illustrator 17.0.0, SVG Export Plug-In . SVG Version: 6.00 Build 0)  -->
<!DOCTYPE svg PUBLIC "-//W3C//DTD SVG 1.1//EN" "http://www.w3.org/Graphics/SVG/1.1/DTD/svg11.dtd">
<svg version="1.1" xmlns="http://www.w3.org/2000/svg" xmlns:xlink="http://www.w3.org/1999/xlink" x="0px" y="0px" width="48px"
	 height="48px" viewBox="0 0 48 48" enable-background="new 0 0 48 48" xml:space="preserve">
<g id="Layer_3">
	<g>
		<path fill="#010101" d="M14.005,18c-4.411,0-8,3.589-8,8v19c0,0.553,0.447,1,1,1h14c0.553,0,1-0.447,1-1V26
			C22.005,21.589,18.416,18,14.005,18z M18.005,29c0,0.553-0.447,1-1,1h-6c-0.553,0-1-0.447-1-1v-3c0-2.206,1.794-4,4-4
			c2.206,0,4,1.794,4,4V29z"/>
		<path fill="#010101" d="M14.005,12c-7.72,0-14,6.28-14,14c0,2.633,0.735,5.199,2.127,7.421c0.293,0.469,0.91,0.608,1.378,0.317
			c0.469-0.293,0.61-0.91,0.317-1.378C2.635,30.456,2.005,28.257,2.005,26c0-6.617,5.383-12,12-12s12,5.383,12,12
			c0,2.269-0.636,4.478-1.839,6.387c-0.295,0.468-0.154,1.085,0.312,1.379c0.166,0.104,0.35,0.154,0.532,0.154
			c0.332,0,0.657-0.165,0.847-0.467c1.405-2.23,2.147-4.807,2.147-7.453C28.005,18.28,21.725,12,14.005,12z"/>
		<path fill="#010101" d="M47.933,22.64c-0.016-0.042-0.042-0.076-0.063-0.115c-0.028-0.05-0.046-0.104-0.083-0.15l-4-5
			c-0.346-0.432-0.974-0.502-1.406-0.156c-0.431,0.346-0.501,0.975-0.156,1.406L44.924,22H31.005c-0.553,0-1,0.447-1,1
			c0,0.553,0.447,1,1,1h13.919l-2.701,3.375c-0.345,0.432-0.274,1.061,0.156,1.406C42.565,28.929,42.785,29,43.004,29
			c0.294,0,0.584-0.129,0.782-0.375l4-5c0.037-0.046,0.055-0.1,0.083-0.151c0.021-0.039,0.047-0.073,0.063-0.115
			C48.022,23.127,48.022,22.873,47.933,22.64z"/>
	</g>
</g>
<g id="nyt_x5F_exporter_x5F_info" display="none">
</g>
</svg>
