<?xml version="1.0" encoding="utf-8"?>
<!-- Generator: Adobe Illustrator 17.0.0, SVG Export Plug-In . SVG Version: 6.00 Build 0)  -->
<!DOCTYPE svg PUBLIC "-//W3C//DTD SVG 1.1//EN" "http://www.w3.org/Graphics/SVG/1.1/DTD/svg11.dtd">
<svg version="1.1" xmlns="http://www.w3.org/2000/svg" xmlns:xlink="http://www.w3.org/1999/xlink" x="0px" y="0px" width="48px"
	 height="48px" viewBox="0 0 48 48" enable-background="new 0 0 48 48" xml:space="preserve">
<g id="Layer_3">
	<g>
		<path fill="#010101" d="M35,24.001c0-4.411-3.589-8-8-8H8c-0.553,0-1,0.447-1,1v14c0,0.553,0.447,1,1,1h19
			C31.411,32.001,35,28.412,35,24.001z M23,27.001v-6c0-0.553,0.447-1,1-1h3c2.206,0,4,1.794,4,4s-1.794,4-4,4h-3
			C23.447,28.001,23,27.553,23,27.001z"/>
		<path fill="#010101" d="M29.688,44.086l-5.056,1.655l-1.685-5.023c-0.176-0.523-0.742-0.802-1.267-0.63
			c-0.523,0.176-0.806,0.742-0.63,1.267l2,5.965c0.141,0.418,0.53,0.682,0.948,0.682c0.102,0,0.208-0.016,0.311-0.05l6-1.965
			c0.524-0.172,0.811-0.736,0.639-1.262C30.779,44.202,30.219,43.914,29.688,44.086z"/>
		<path fill="#010101" d="M27.847,13.183c0.105,0.464,0.518,0.778,0.975,0.778c0.073,0,0.147-0.008,0.223-0.024
			c0.538-0.123,0.876-0.658,0.754-1.197c-1.262-5.557-3.419-9.985-6.073-12.47c-0.404-0.378-1.036-0.356-1.414,0.047
			c-0.377,0.403-0.356,1.036,0.047,1.414C24.724,3.944,26.673,8.011,27.847,13.183z"/>
		<path fill="#010101" d="M31.684,40.088l-3.798,1.266c0.751-1.787,1.395-3.815,1.91-6.083c0.122-0.539-0.216-1.075-0.754-1.197
			c-0.544-0.121-1.075,0.215-1.197,0.754c-0.464,2.048-1.038,3.872-1.698,5.488l-1.199-3.596c-0.175-0.523-0.735-0.809-1.265-0.632
			c-0.523,0.174-0.807,0.74-0.632,1.265l2,6c0.14,0.419,0.529,0.684,0.948,0.684c0.104,0,0.211-0.017,0.316-0.052l6-2
			c0.523-0.174,0.807-0.74,0.632-1.265C32.774,40.196,32.211,39.913,31.684,40.088z"/>
	</g>
</g>
<g id="nyt_x5F_exporter_x5F_info" display="none">
</g>
</svg>
