<?xml version="1.0" encoding="utf-8"?>
<!-- Generator: Adobe Illustrator 17.0.0, SVG Export Plug-In . SVG Version: 6.00 Build 0)  -->
<!DOCTYPE svg PUBLIC "-//W3C//DTD SVG 1.1//EN" "http://www.w3.org/Graphics/SVG/1.1/DTD/svg11.dtd">
<svg version="1.1" xmlns="http://www.w3.org/2000/svg" xmlns:xlink="http://www.w3.org/1999/xlink" x="0px" y="0px" width="48px"
	 height="48px" viewBox="0 0 48 48" enable-background="new 0 0 48 48" xml:space="preserve">
<g id="Layer_3">
	<g>
		<path fill="#010101" d="M21.682,7.914C21.787,7.949,21.894,7.966,22,7.966c0.418,0,0.808-0.264,0.948-0.682l1.685-5.023
			l5.056,1.655c0.527,0.173,1.09-0.115,1.262-0.639c0.172-0.525-0.114-1.09-0.639-1.262l-6-1.965
			c-0.526-0.173-1.085,0.112-1.26,0.632l-2,5.965C20.876,7.172,21.158,7.738,21.682,7.914z"/>
		<path fill="#010101" d="M29.044,34.064c-0.544-0.12-1.075,0.215-1.197,0.754c-1.174,5.172-3.123,9.239-5.489,11.452
			c-0.403,0.378-0.424,1.011-0.047,1.414c0.197,0.21,0.464,0.316,0.731,0.316c0.245,0,0.49-0.09,0.684-0.27
			c2.654-2.484,4.811-6.913,6.073-12.47C29.92,34.722,29.582,34.187,29.044,34.064z"/>
		<path fill="#010101" d="M25.052,4.649l-2,6c-0.175,0.524,0.108,1.091,0.632,1.265c0.105,0.035,0.212,0.052,0.316,0.052
			c0.419,0,0.809-0.265,0.948-0.684l1.188-3.562c0.676,1.638,1.254,3.452,1.708,5.455c0.105,0.464,0.518,0.778,0.975,0.778
			c0.073,0,0.147-0.008,0.223-0.024c0.538-0.122,0.876-0.658,0.754-1.197c-0.508-2.238-1.162-4.271-1.939-6.093l3.827,1.275
			c0.527,0.177,1.09-0.108,1.265-0.632c0.175-0.524-0.108-1.091-0.632-1.265l-6-2C25.788,3.84,25.227,4.127,25.052,4.649z"/>
		<path fill="#010101" d="M27,16.001H8c-0.553,0-1,0.447-1,1v14c0,0.553,0.447,1,1,1h19c4.411,0,8-3.589,8-8
			S31.411,16.001,27,16.001z M27,28.001h-3c-0.553,0-1-0.447-1-1v-6c0-0.553,0.447-1,1-1h3c2.206,0,4,1.794,4,4
			S29.206,28.001,27,28.001z"/>
	</g>
</g>
<g id="nyt_x5F_exporter_x5F_info" display="none">
</g>
</svg>
