<?xml version="1.0" encoding="utf-8"?>
<!-- Generator: Adobe Illustrator 17.0.0, SVG Export Plug-In . SVG Version: 6.00 Build 0)  -->
<!DOCTYPE svg PUBLIC "-//W3C//DTD SVG 1.1//EN" "http://www.w3.org/Graphics/SVG/1.1/DTD/svg11.dtd">
<svg version="1.1" xmlns="http://www.w3.org/2000/svg" xmlns:xlink="http://www.w3.org/1999/xlink" x="0px" y="0px" width="48px"
	 height="48px" viewBox="0 0 48 48" enable-background="new 0 0 48 48" xml:space="preserve">
<g id="Layer_3">
	<g>
		<path fill="#010101" d="M13,24H8.081l2.701-3.375c0.345-0.432,0.274-1.06-0.156-1.406c-0.432-0.345-1.06-0.271-1.406,0.156l-4,5
			c-0.037,0.046-0.056,0.101-0.083,0.151c-0.021,0.039-0.047,0.073-0.063,0.114c-0.09,0.233-0.09,0.487,0,0.72
			c0.016,0.042,0.042,0.075,0.063,0.114c0.028,0.051,0.046,0.105,0.083,0.151l4,5C9.417,30.872,9.707,31,10.001,31
			c0.219,0,0.439-0.071,0.624-0.219c0.431-0.346,0.501-0.975,0.156-1.406L8.081,26H13c0.553,0,1-0.447,1-1
			C14,24.447,13.553,24,13,24z"/>
		<path fill="#010101" d="M42.864,25.474c0.021-0.039,0.047-0.073,0.063-0.115c0.09-0.232,0.09-0.487,0-0.719
			c-0.016-0.042-0.042-0.076-0.063-0.115c-0.028-0.05-0.046-0.104-0.083-0.15l-4-5c-0.346-0.431-0.974-0.502-1.406-0.156
			c-0.431,0.346-0.501,0.975-0.156,1.406L39.92,24H35c-0.553,0-1,0.447-1,1c0,0.553,0.447,1,1,1h4.919l-2.701,3.375
			c-0.345,0.432-0.275,1.061,0.156,1.406C37.56,30.929,37.78,31,37.999,31c0.294,0,0.584-0.129,0.782-0.375l4-5
			C42.818,25.579,42.837,25.525,42.864,25.474z"/>
		<path fill="#010101" d="M47.781,24.375l-4-5c-0.346-0.431-0.974-0.502-1.406-0.156c-0.431,0.346-0.501,0.975-0.156,1.406L45.72,25
			l-3.501,4.375c-0.345,0.432-0.275,1.061,0.156,1.406C42.56,30.929,42.78,31,42.999,31c0.294,0,0.584-0.129,0.782-0.375l4-5
			C48.073,25.26,48.073,24.74,47.781,24.375z"/>
		<path fill="#010101" d="M2.28,25l3.501-4.375c0.345-0.432,0.274-1.06-0.156-1.406c-0.433-0.345-1.06-0.271-1.406,0.156l-4,5
			c-0.292,0.365-0.292,0.885,0,1.25l4,5C4.417,30.872,4.707,31,5.001,31c0.219,0,0.439-0.071,0.624-0.219
			c0.431-0.346,0.501-0.975,0.156-1.406L2.28,25z"/>
		<path fill="#010101" d="M24,18c-4.411,0-8,3.589-8,8v19c0,0.553,0.447,1,1,1h14c0.553,0,1-0.447,1-1V26C32,21.589,28.411,18,24,18
			z M28,29c0,0.553-0.447,1-1,1h-6c-0.553,0-1-0.447-1-1v-3c0-2.206,1.794-4,4-4s4,1.794,4,4V29z"/>
	</g>
</g>
<g id="nyt_x5F_exporter_x5F_info" display="none">
</g>
</svg>
