<?xml version="1.0" encoding="utf-8"?>
<!-- Generator: Adobe Illustrator 17.0.0, SVG Export Plug-In . SVG Version: 6.00 Build 0)  -->
<!DOCTYPE svg PUBLIC "-//W3C//DTD SVG 1.1//EN" "http://www.w3.org/Graphics/SVG/1.1/DTD/svg11.dtd">
<svg version="1.1" xmlns="http://www.w3.org/2000/svg" xmlns:xlink="http://www.w3.org/1999/xlink" x="0px" y="0px" width="48px"
	 height="48px" viewBox="0 0 48 48" enable-background="new 0 0 48 48" xml:space="preserve">
<g id="Layer_3">
	<g>
		<path fill="#010101" d="M24,19c-4.411,0-8,3.589-8,8v19c0,0.553,0.447,1,1,1h14c0.553,0,1-0.447,1-1V27C32,22.589,28.411,19,24,19
			z M28,30c0,0.553-0.447,1-1,1h-6c-0.553,0-1-0.447-1-1v-3c0-2.206,1.794-4,4-4c2.206,0,4,1.794,4,4V30z"/>
		<path fill="#010101" d="M7.283,31.052L2.26,29.367l1.655-5.056c0.172-0.525-0.114-1.09-0.639-1.262
			c-0.529-0.176-1.091,0.115-1.262,0.639l-1.965,6c-0.171,0.522,0.111,1.085,0.632,1.26l5.965,2C6.752,32.983,6.859,33,6.965,33
			c0.418,0,0.808-0.264,0.948-0.682C8.089,31.794,7.807,31.228,7.283,31.052z"/>
		<path fill="#010101" d="M47.731,30.275c-2.484-2.654-6.913-4.811-12.47-6.073c-0.545-0.123-1.075,0.216-1.197,0.754
			c-0.122,0.539,0.216,1.074,0.754,1.197c5.172,1.174,9.239,3.123,11.452,5.489c0.197,0.21,0.464,0.316,0.73,0.316
			c0.245,0,0.49-0.089,0.684-0.269C48.087,31.312,48.107,30.679,47.731,30.275z"/>
		<path fill="#010101" d="M12.731,24.204c-2.238,0.508-4.271,1.162-6.093,1.939l1.276-3.827c0.175-0.524-0.108-1.091-0.632-1.265
			c-0.529-0.177-1.09,0.108-1.265,0.632l-2,6c-0.153,0.458,0.056,0.932,0.457,1.164c0.03,0.019,0.06,0.036,0.091,0.052
			c0.03,0.014,0.052,0.038,0.084,0.048l6,2C10.754,30.983,10.86,31,10.965,31c0.419,0,0.809-0.265,0.948-0.684
			c0.175-0.524-0.108-1.091-0.632-1.265l-3.562-1.188c1.637-0.676,3.452-1.254,5.455-1.708c0.538-0.122,0.876-0.658,0.754-1.197
			C13.805,24.42,13.275,24.087,12.731,24.204z"/>
	</g>
</g>
<g id="nyt_x5F_exporter_x5F_info" display="none">
</g>
</svg>
