<?xml version="1.0" encoding="utf-8"?>
<!-- Generator: Adobe Illustrator 17.0.0, SVG Export Plug-In . SVG Version: 6.00 Build 0)  -->
<!DOCTYPE svg PUBLIC "-//W3C//DTD SVG 1.1//EN" "http://www.w3.org/Graphics/SVG/1.1/DTD/svg11.dtd">
<svg version="1.1" xmlns="http://www.w3.org/2000/svg" xmlns:xlink="http://www.w3.org/1999/xlink" x="0px" y="0px" width="48px"
	 height="48px" viewBox="0 0 48 48" enable-background="new 0 0 48 48" xml:space="preserve">
<g id="Layer_3">
	<g>
		<path fill="#010101" d="M24,16c-4.411,0-8,3.589-8,8v8c0,0.553,0.447,1,1,1h14c0.553,0,1-0.447,1-1v-8C32,19.588,28.411,16,24,16z
			 M28,27c0,0.553-0.447,1-1,1h-6c-0.553,0-1-0.447-1-1v-3c0-2.206,1.794-4,4-4s4,1.794,4,4V27z"/>
		<path fill="#010101" d="M19.625,10.781L23,8.08V13c0,0.553,0.447,1,1,1s1-0.447,1-1V8.08l3.375,2.701
			C28.559,10.928,28.78,11,28.999,11c0.294,0,0.584-0.129,0.782-0.375c0.345-0.432,0.274-1.061-0.156-1.406l-5-4
			c-0.045-0.036-0.099-0.054-0.148-0.082c-0.04-0.022-0.075-0.048-0.118-0.065c-0.111-0.043-0.227-0.068-0.344-0.069
			C24.009,5.002,24.005,5,24,5s-0.009,0.003-0.014,0.003c-0.117,0.002-0.233,0.026-0.344,0.069
			c-0.043,0.017-0.078,0.043-0.118,0.065c-0.05,0.027-0.103,0.045-0.149,0.082l-5,4c-0.431,0.346-0.501,0.975-0.156,1.406
			C18.564,11.055,19.192,11.127,19.625,10.781z"/>
		<path fill="#010101" d="M28.375,37.218L25,39.919V35c0-0.553-0.447-1-1-1s-1,0.447-1,1v4.919l-3.375-2.701
			c-0.432-0.345-1.06-0.271-1.406,0.156c-0.345,0.432-0.274,1.06,0.156,1.406l5,4c0.046,0.037,0.099,0.055,0.149,0.082
			c0.04,0.022,0.074,0.048,0.117,0.064C23.757,42.972,23.878,43,24,43c0.122,0,0.243-0.028,0.359-0.072
			c0.043-0.017,0.078-0.042,0.117-0.064c0.05-0.027,0.104-0.046,0.149-0.082l5-4c0.431-0.346,0.501-0.975,0.156-1.406
			C29.435,36.944,28.807,36.873,28.375,37.218z"/>
		<path fill="#010101" d="M13,23H8.08l2.701-3.375c0.345-0.432,0.274-1.061-0.156-1.406c-0.433-0.345-1.06-0.273-1.406,0.156l-4,5
			c-0.037,0.046-0.056,0.101-0.083,0.151c-0.021,0.039-0.047,0.073-0.063,0.114c-0.09,0.233-0.09,0.487,0,0.72
			c0.016,0.042,0.042,0.075,0.063,0.114c0.028,0.051,0.046,0.105,0.083,0.151l4,5C9.417,29.872,9.707,30,10.001,30
			c0.219,0,0.439-0.071,0.624-0.219c0.431-0.346,0.501-0.975,0.156-1.406L8.08,25H13c0.553,0,1-0.447,1-1S13.552,23,13,23z"/>
		<path fill="#010101" d="M42.864,24.474c0.021-0.039,0.047-0.073,0.063-0.115c0.09-0.232,0.09-0.487,0-0.719
			c-0.016-0.042-0.042-0.076-0.063-0.115c-0.028-0.05-0.046-0.104-0.083-0.15l-4-5c-0.345-0.431-0.974-0.502-1.406-0.156
			c-0.431,0.346-0.501,0.975-0.156,1.406L39.919,23H35c-0.553,0-1,0.447-1,1s0.447,1,1,1h4.919l-2.701,3.375
			c-0.345,0.432-0.275,1.06,0.156,1.406C37.559,29.928,37.78,30,37.999,30c0.294,0,0.584-0.129,0.782-0.375l4-5
			C42.818,24.578,42.836,24.524,42.864,24.474z"/>
		<path fill="#010101" d="M19.625,5.781L24,2.28l4.375,3.501C28.559,5.928,28.78,6,28.999,6c0.294,0,0.584-0.129,0.782-0.375
			c0.345-0.432,0.274-1.061-0.156-1.406l-5-4c-0.365-0.291-0.885-0.291-1.25,0l-5,4c-0.431,0.346-0.501,0.975-0.156,1.406
			C18.564,6.055,19.192,6.127,19.625,5.781z"/>
		<path fill="#010101" d="M28.375,42.218L24,45.719l-4.375-3.501c-0.432-0.345-1.06-0.273-1.406,0.156
			c-0.345,0.432-0.274,1.06,0.156,1.406l5,4C23.557,47.926,23.779,48,24,48s0.442-0.073,0.625-0.219l5-4
			c0.431-0.346,0.501-0.975,0.156-1.406C29.435,41.944,28.807,41.873,28.375,42.218z"/>
		<path fill="#010101" d="M47.781,23.375l-4-5c-0.346-0.431-0.974-0.502-1.406-0.156c-0.431,0.346-0.501,0.975-0.156,1.406
			L45.719,24l-3.501,4.375c-0.345,0.432-0.274,1.06,0.156,1.406C42.559,29.928,42.78,30,42.999,30c0.294,0,0.584-0.129,0.782-0.375
			l4-5C48.073,24.259,48.073,23.74,47.781,23.375z"/>
		<path fill="#010101" d="M2.28,24l3.501-4.375c0.345-0.432,0.274-1.061-0.156-1.406c-0.433-0.345-1.06-0.273-1.406,0.156l-4,5
			c-0.292,0.365-0.292,0.885,0,1.25l4,5C4.417,29.872,4.707,30,5.001,30c0.219,0,0.439-0.071,0.624-0.219
			c0.431-0.346,0.501-0.975,0.156-1.406L2.28,24z"/>
	</g>
</g>
<g id="nyt_x5F_exporter_x5F_info" display="none">
</g>
</svg>
