<?xml version="1.0" encoding="utf-8"?>
<!-- Generator: Adobe Illustrator 17.0.0, SVG Export Plug-In . SVG Version: 6.00 Build 0)  -->
<!DOCTYPE svg PUBLIC "-//W3C//DTD SVG 1.1//EN" "http://www.w3.org/Graphics/SVG/1.1/DTD/svg11.dtd">
<svg version="1.1" xmlns="http://www.w3.org/2000/svg" xmlns:xlink="http://www.w3.org/1999/xlink" x="0px" y="0px" width="48px"
	 height="48px" viewBox="0 0 48 48" enable-background="new 0 0 48 48" xml:space="preserve">
<g id="Layer_3">
	<g>
		<path fill="#010101" d="M46.242,21.337c-1.336-1.667-3.241-2.715-5.365-2.949c-4.425-0.48-8.349,2.722-8.83,7.079l-2.041,19.428
			c-0.03,0.282,0.061,0.563,0.251,0.773c0.19,0.211,0.46,0.331,0.743,0.331h13.982c0.51,0,0.938-0.384,0.994-0.891l1.975-17.893
			C48.185,25.093,47.578,23.005,46.242,21.337z M43.976,26.779l-0.329,2.982c-0.029,0.264-0.162,0.505-0.369,0.671
			c-0.178,0.143-0.398,0.22-0.625,0.22c-0.036,0-0.073-0.002-0.109-0.006l-5.964-0.658c-0.549-0.061-0.945-0.555-0.885-1.104
			l0.329-2.983c0.24-2.176,2.192-3.781,4.414-3.537c1.063,0.117,2.015,0.641,2.684,1.475C43.789,24.673,44.093,25.717,43.976,26.779
			z"/>
		<path fill="#010101" d="M15.953,25.461c-0.481-4.351-4.399-7.555-8.83-7.073c-2.124,0.234-4.029,1.282-5.365,2.949
			c-1.336,1.668-1.943,3.756-1.709,5.879l1.975,17.893c0.056,0.507,0.484,0.891,0.994,0.891H18c0.007,0.001,0.015,0.001,0.019,0
			c0.553,0,1-0.447,1-1c0-0.122-0.021-0.24-0.061-0.349L15.953,25.461z M11.421,29.988l-5.964,0.658
			c-0.036,0.004-0.073,0.006-0.109,0.006c-0.227,0-0.447-0.077-0.625-0.22c-0.207-0.166-0.34-0.407-0.369-0.671l-0.329-2.982
			c-0.117-1.062,0.187-2.106,0.854-2.94c0.669-0.834,1.621-1.357,2.684-1.475c2.213-0.245,4.173,1.36,4.414,3.537l0.329,2.983
			C12.366,29.433,11.97,29.927,11.421,29.988z"/>
		<path fill="#010101" d="M27.727,9.558c5.945,0.907,11.408,3.425,13.678,6.406c0.197,0.259,0.495,0.395,0.797,0.395
			c0.211,0,0.424-0.066,0.604-0.204c0.439-0.335,0.524-0.962,0.19-1.401c-2.585-3.396-8.392-6.152-14.844-7.153l1.554-1.554
			c0.391-0.391,0.391-1.023,0-1.414c-0.391-0.391-1.023-0.391-1.414,0L25.375,7.55c-0.014,0.012-0.024,0.025-0.037,0.037
			l-0.045,0.045c-0.03,0.03-0.046,0.066-0.072,0.099c-0.038,0.05-0.081,0.094-0.11,0.151c-0.054,0.104-0.084,0.216-0.099,0.331
			c-0.001,0.009-0.007,0.017-0.008,0.026c-0.002,0.023,0.008,0.044,0.007,0.067c-0.003,0.094,0.006,0.185,0.029,0.277
			c0.009,0.034,0.019,0.065,0.031,0.097c0.013,0.035,0.017,0.072,0.034,0.107l2,4c0.176,0.351,0.528,0.553,0.896,0.553
			c0.15,0,0.303-0.034,0.446-0.105c0.494-0.247,0.694-0.848,0.447-1.342L27.727,9.558z"/>
		<path fill="#010101" d="M19.707,4.632c-0.391-0.391-1.023-0.391-1.414,0c-0.391,0.391-0.391,1.023,0,1.414l1.579,1.579
			c-6.449,0.968-12.268,3.716-14.865,7.123c-0.335,0.439-0.251,1.067,0.188,1.401c0.182,0.139,0.395,0.205,0.606,0.205
			c0.302,0,0.6-0.136,0.796-0.394c2.277-2.987,7.734-5.492,13.66-6.371l-1.151,2.302c-0.247,0.494-0.047,1.095,0.447,1.342
			c0.144,0.071,0.296,0.105,0.446,0.105c0.367,0,0.72-0.202,0.895-0.553l2-4c0.192-0.385,0.117-0.85-0.187-1.154L19.707,4.632z"/>
	</g>
</g>
<g id="nyt_x5F_exporter_x5F_info" display="none">
</g>
</svg>
