<?xml version="1.0" encoding="utf-8"?>
<!-- Generator: Adobe Illustrator 17.0.0, SVG Export Plug-In . SVG Version: 6.00 Build 0)  -->
<!DOCTYPE svg PUBLIC "-//W3C//DTD SVG 1.1//EN" "http://www.w3.org/Graphics/SVG/1.1/DTD/svg11.dtd">
<svg version="1.1" xmlns="http://www.w3.org/2000/svg" xmlns:xlink="http://www.w3.org/1999/xlink" x="0px" y="0px" width="48px"
	 height="48px" viewBox="0 0 48 48" enable-background="new 0 0 48 48" xml:space="preserve">
<g id="Layer_3">
	<g>
		<path fill="#010101" d="M24,18c-4.411,0-8,3.589-8,8v19c0,0.553,0.447,1,1,1h14c0.553,0,1-0.447,1-1V26C32,21.589,28.411,18,24,18
			z M28,29c0,0.553-0.447,1-1,1h-6c-0.553,0-1-0.447-1-1v-3c0-2.206,1.794-4,4-4s4,1.794,4,4V29z"/>
		<path fill="#010101" d="M47.948,28.684l-2-6c-0.175-0.523-0.737-0.808-1.265-0.632c-0.523,0.174-0.807,0.74-0.632,1.265
			l1.684,5.051l-5.052,1.685c-0.523,0.174-0.807,0.74-0.632,1.265C40.192,31.735,40.581,32,41,32c0.104,0,0.211-0.017,0.316-0.052
			l6-2C47.84,29.774,48.123,29.208,47.948,28.684z"/>
		<path fill="#010101" d="M12.704,23.202C7.176,24.457,2.76,26.614,0.27,29.275c-0.377,0.403-0.356,1.036,0.047,1.414
			C0.51,30.87,0.755,30.959,1,30.959c0.267,0,0.533-0.106,0.73-0.316c2.22-2.373,6.274-4.322,11.417-5.489
			c0.538-0.123,0.876-0.658,0.754-1.197C13.779,23.418,13.25,23.079,12.704,23.202z"/>
		<path fill="#010101" d="M43.401,27.9c0.031-0.016,0.061-0.033,0.091-0.052c0.401-0.233,0.61-0.706,0.457-1.164l-2-6
			c-0.175-0.523-0.736-0.809-1.265-0.632c-0.523,0.174-0.807,0.74-0.632,1.265l1.276,3.827c-1.822-0.777-3.855-1.431-6.093-1.939
			c-0.545-0.119-1.075,0.215-1.197,0.754c-0.122,0.539,0.216,1.075,0.754,1.197c2.003,0.454,3.818,1.032,5.455,1.708l-3.562,1.188
			c-0.523,0.174-0.807,0.74-0.632,1.265C36.192,29.735,36.581,30,37,30c0.104,0,0.211-0.017,0.316-0.052l6-2
			C43.349,27.938,43.371,27.914,43.401,27.9z"/>
	</g>
</g>
<g id="nyt_x5F_exporter_x5F_info" display="none">
</g>
</svg>
