<?xml version="1.0" encoding="utf-8"?>
<!-- Generator: Adobe Illustrator 17.0.0, SVG Export Plug-In . SVG Version: 6.00 Build 0)  -->
<!DOCTYPE svg PUBLIC "-//W3C//DTD SVG 1.1//EN" "http://www.w3.org/Graphics/SVG/1.1/DTD/svg11.dtd">
<svg version="1.1" xmlns="http://www.w3.org/2000/svg" xmlns:xlink="http://www.w3.org/1999/xlink" x="0px" y="0px" width="48px"
	 height="48px" viewBox="0 0 48 48" enable-background="new 0 0 48 48" xml:space="preserve">
<g id="Layer_3">
	<g>
		<path fill="#010101" d="M24,24c0-4.411-3.589-8-8-8c-4.411,0-8,3.589-8,8v9c0,0.553,0.447,1,1,1h14c0.553,0,1-0.447,1-1V24z
			 M20,27c0,0.553-0.447,1-1,1h-6c-0.553,0-1-0.447-1-1v-3c0-2.206,1.794-4,4-4c2.206,0,4,1.794,4,4V27z"/>
		<path fill="#010101" d="M34,16c-4.411,0-8,3.589-8,8v9c0,0.553,0.447,1,1,1h14c0.553,0,1-0.447,1-1v-9C42,19.589,38.411,16,34,16z
			 M38,27c0,0.553-0.447,1-1,1h-6c-0.553,0-1-0.447-1-1v-3c0-2.206,1.794-4,4-4c2.206,0,4,1.794,4,4V27z"/>
		<path fill="#010101" d="M34.371,35.061c-0.52-0.189-1.092,0.076-1.282,0.597c-1.586,4.34-3.942,7.22-6.504,8.073l1.344-3.359
			c0.205-0.513-0.045-1.095-0.558-1.3c-0.51-0.205-1.096,0.044-1.3,0.558l-1.993,4.982v0l-0.007,0.018
			c-0.019,0.048-0.015,0.101-0.027,0.151C24.028,44.853,24,44.922,24,45l0.003,0.014c0.001,0.058,0.023,0.111,0.034,0.168
			c0.015,0.076,0.022,0.154,0.052,0.223c0.002,0.005,0.001,0.011,0.004,0.016c0.018,0.039,0.053,0.066,0.075,0.102
			c0.045,0.072,0.088,0.144,0.15,0.202c0.038,0.036,0.085,0.057,0.129,0.087c0.066,0.045,0.129,0.09,0.205,0.119
			c0.012,0.004,0.02,0.015,0.032,0.019l6,2C30.789,47.983,30.895,48,31,48c0.419,0,0.809-0.265,0.948-0.684
			c0.175-0.524-0.108-1.091-0.632-1.265l-2.882-0.961c2.65-1.425,4.972-4.473,6.533-8.748C35.157,35.824,34.891,35.25,34.371,35.061
			z"/>
		<path fill="#010101" d="M15.326,13.934c0.102,0.033,0.206,0.049,0.308,0.049c0.422,0,0.814-0.269,0.951-0.692
			c1.557-4.813,4.081-8.085,6.827-9.012l-1.341,3.351c-0.205,0.513,0.045,1.095,0.558,1.3C22.75,8.978,22.876,9,23,9
			c0.396,0,0.772-0.237,0.929-0.629l1.992-4.981c0,0,0-0.001,0.001-0.001l0.007-0.018c0.019-0.048,0.015-0.1,0.027-0.15
			C25.972,3.148,26,3.079,26,3l-0.003-0.014c-0.001-0.057-0.023-0.111-0.034-0.167c-0.015-0.077-0.022-0.155-0.053-0.224
			c-0.002-0.005-0.001-0.011-0.004-0.016c-0.018-0.039-0.052-0.065-0.075-0.101c-0.045-0.072-0.089-0.145-0.15-0.203
			c-0.038-0.036-0.085-0.057-0.128-0.086c-0.066-0.045-0.129-0.091-0.206-0.119c-0.012-0.004-0.02-0.015-0.032-0.018l-6-2
			c-0.527-0.174-1.091,0.108-1.265,0.632c-0.175,0.524,0.108,1.091,0.632,1.265l2.869,0.957c-2.859,1.528-5.308,4.94-6.87,9.77
			C14.513,13.2,14.801,13.764,15.326,13.934z"/>
	</g>
</g>
<g id="nyt_x5F_exporter_x5F_info" display="none">
</g>
</svg>
