<?xml version="1.0" encoding="utf-8"?>
<!-- Generator: Adobe Illustrator 17.0.0, SVG Export Plug-In . SVG Version: 6.00 Build 0)  -->
<!DOCTYPE svg PUBLIC "-//W3C//DTD SVG 1.1//EN" "http://www.w3.org/Graphics/SVG/1.1/DTD/svg11.dtd">
<svg version="1.1" xmlns="http://www.w3.org/2000/svg" xmlns:xlink="http://www.w3.org/1999/xlink" x="0px" y="0px" width="48px"
	 height="48px" viewBox="0 0 48 48" enable-background="new 0 0 48 48" xml:space="preserve">
<g id="Layer_3">
	<g>
		<path fill="#010101" d="M22,33v-9c0-4.411-3.589-8-8-8c-4.411,0-8,3.589-8,8v9c0,0.553,0.447,1,1,1h14C21.553,34,22,33.552,22,33z
			 M18,27c0,0.553-0.447,1-1,1h-6c-0.553,0-1-0.447-1-1v-3c0-2.206,1.794-4,4-4c2.206,0,4,1.794,4,4V27z"/>
		<path fill="#010101" d="M32,16c-4.411,0-8,3.589-8,8v9c0,0.553,0.447,1,1,1h14c0.553,0,1-0.447,1-1v-9C40,19.589,36.411,16,32,16z
			 M36,27c0,0.553-0.447,1-1,1h-6c-0.553,0-1-0.447-1-1v-3c0-2.206,1.794-4,4-4c2.206,0,4,1.794,4,4V27z"/>
		<path fill="#010101" d="M23.929,44.629l-0.007-0.018c0,0,0-0.001,0-0.001l-1.993-4.981c-0.205-0.514-0.791-0.763-1.3-0.558
			c-0.513,0.205-0.763,0.787-0.558,1.3l1.344,3.359c-2.561-0.853-4.918-3.733-6.504-8.073c-0.189-0.52-0.766-0.784-1.283-0.596
			c-0.518,0.189-0.785,0.764-0.596,1.283c1.563,4.274,3.884,7.322,6.534,8.747l-2.882,0.961c-0.523,0.174-0.807,0.74-0.632,1.265
			C16.191,47.735,16.581,48,17,48c0.104,0,0.211-0.017,0.316-0.052l6-2c0.012-0.004,0.02-0.014,0.032-0.018
			c0.076-0.028,0.139-0.074,0.205-0.119c0.043-0.029,0.09-0.051,0.128-0.087c0.062-0.058,0.105-0.13,0.15-0.202
			c0.023-0.036,0.057-0.062,0.075-0.101c0.002-0.005,0.001-0.011,0.004-0.016c0.031-0.069,0.038-0.147,0.053-0.224
			c0.011-0.057,0.033-0.11,0.034-0.167L24,45c0-0.079-0.028-0.148-0.045-0.222C23.944,44.728,23.948,44.677,23.929,44.629z"/>
		<path fill="#010101" d="M22.071,3.371l0.007,0.018v0l1.993,4.981C24.227,8.762,24.603,9,25,9c0.124,0,0.25-0.023,0.371-0.071
			c0.513-0.205,0.763-0.787,0.558-1.3l-1.341-3.351c2.745,0.928,5.27,4.2,6.827,9.012c0.137,0.424,0.529,0.692,0.951,0.692
			c0.102,0,0.205-0.016,0.308-0.049c0.525-0.17,0.813-0.733,0.644-1.259c-1.562-4.83-4.011-8.242-6.87-9.77l2.869-0.957
			c0.523-0.174,0.807-0.74,0.632-1.265c-0.175-0.523-0.735-0.806-1.265-0.632l-6,2c-0.012,0.004-0.02,0.014-0.032,0.018
			c-0.076,0.028-0.14,0.074-0.206,0.119c-0.043,0.03-0.09,0.05-0.128,0.086c-0.062,0.058-0.105,0.13-0.15,0.202
			c-0.023,0.036-0.057,0.062-0.075,0.101c-0.002,0.005-0.001,0.011-0.004,0.016c-0.031,0.069-0.038,0.147-0.053,0.223
			c-0.01,0.057-0.033,0.111-0.034,0.168L22,3c0,0.078,0.028,0.147,0.044,0.22C22.056,3.27,22.052,3.322,22.071,3.371z"/>
	</g>
</g>
<g id="nyt_x5F_exporter_x5F_info" display="none">
</g>
</svg>
