<?xml version="1.0" encoding="utf-8"?>
<!-- Generator: Adobe Illustrator 17.0.0, SVG Export Plug-In . SVG Version: 6.00 Build 0)  -->
<!DOCTYPE svg PUBLIC "-//W3C//DTD SVG 1.1//EN" "http://www.w3.org/Graphics/SVG/1.1/DTD/svg11.dtd">
<svg version="1.1" xmlns="http://www.w3.org/2000/svg" xmlns:xlink="http://www.w3.org/1999/xlink" x="0px" y="0px" width="48px"
	 height="48px" viewBox="0 0 48 48" enable-background="new 0 0 48 48" xml:space="preserve">
<g id="Layer_3">
	<g>
		<path fill="#010101" d="M34.877,18.048c-4.428-0.476-8.349,2.722-8.83,7.074l-1.874,16.99l-0.278-0.003l-1.918-17.008
			c-0.49-4.346-4.386-7.548-8.848-7.052c-4.383,0.495-7.547,4.464-7.053,8.84l1.93,18.215C8.06,45.614,8.488,45.999,9,45.999h30
			c0.511,0,0.939-0.385,0.994-0.894l1.957-18.229c0.234-2.123-0.373-4.211-1.709-5.879C38.906,19.33,37.001,18.283,34.877,18.048z
			 M17.456,29.638l-5.963,0.674c-0.037,0.004-0.075,0.006-0.112,0.006c-0.226,0-0.445-0.076-0.623-0.218
			c-0.208-0.166-0.341-0.406-0.371-0.67l-0.336-2.982c-0.246-2.191,1.335-4.176,3.526-4.423c2.229-0.245,4.179,1.354,4.424,3.526
			l0.337,2.98C18.399,29.08,18.005,29.576,17.456,29.638z M37.976,26.439l-0.329,2.98c-0.057,0.512-0.49,0.891-0.993,0.891
			c-0.036,0-0.073-0.002-0.11-0.006l-5.964-0.658c-0.264-0.029-0.505-0.162-0.671-0.369c-0.166-0.207-0.243-0.471-0.214-0.734
			l0.329-2.98c0.239-2.177,2.204-3.791,4.414-3.539C36.63,22.265,38.217,24.245,37.976,26.439z"/>
		<path fill="#010101" d="M47,8.999c-0.553,0-1,0.447-1,1v2.469c-3.273-2.941-8.268-4.935-13.906-5.465
			c-0.562-0.053-1.038,0.353-1.09,0.902c-0.051,0.55,0.352,1.038,0.902,1.09c5.167,0.484,9.85,2.349,12.798,5.004H42
			c-0.553,0-1,0.447-1,1c0,0.553,0.447,1,1,1h5h0h0c0.12,0,0.239-0.028,0.354-0.071c0.041-0.016,0.075-0.039,0.114-0.06
			c0.046-0.025,0.095-0.04,0.137-0.073c0.018-0.014,0.026-0.034,0.043-0.049c0.053-0.046,0.094-0.099,0.137-0.156
			c0.037-0.05,0.075-0.096,0.101-0.151c0.028-0.056,0.042-0.115,0.059-0.175c0.019-0.067,0.036-0.13,0.04-0.199
			C47.988,15.042,48,15.023,48,14.999v-5C48,9.447,47.553,8.999,47,8.999z"/>
		<path fill="#010101" d="M7,14.999c0-0.553-0.447-1-1-1H3.299c2.961-2.703,7.564-4.533,12.791-5.004
			c0.55-0.05,0.956-0.536,0.906-1.086c-0.05-0.551-0.536-0.958-1.086-0.906C10.289,7.51,5.292,9.511,2,12.481V9.999
			c0-0.553-0.447-1-1-1c-0.553,0-1,0.447-1,1v5c0,0.024,0.012,0.044,0.014,0.068c0.004,0.082,0.024,0.159,0.048,0.237
			c0.013,0.04,0.022,0.08,0.04,0.118c0.039,0.086,0.094,0.161,0.158,0.235c0.02,0.022,0.036,0.045,0.058,0.066
			c0.028,0.027,0.044,0.062,0.076,0.087c0.182,0.139,0.394,0.205,0.605,0.205c0.023,0,0.045-0.014,0.068-0.016H6
			C6.553,15.999,7,15.552,7,14.999z"/>
	</g>
</g>
<g id="nyt_x5F_exporter_x5F_info" display="none">
</g>
</svg>
