<?xml version="1.0" encoding="utf-8"?>
<!-- Generator: Adobe Illustrator 17.0.0, SVG Export Plug-In . SVG Version: 6.00 Build 0)  -->
<!DOCTYPE svg PUBLIC "-//W3C//DTD SVG 1.1//EN" "http://www.w3.org/Graphics/SVG/1.1/DTD/svg11.dtd">
<svg version="1.1" xmlns="http://www.w3.org/2000/svg" xmlns:xlink="http://www.w3.org/1999/xlink" x="0px" y="0px" width="48px"
	 height="48px" viewBox="0 0 48 48" enable-background="new 0 0 48 48" xml:space="preserve">
<g id="Layer_3">
	<g>
		<path fill="#010101" d="M47.92,31.65l-0.969-5.815c-0.091-0.545-0.605-0.917-1.15-0.822c-0.545,0.091-0.913,0.606-0.822,1.15
			l0.544,3.265c-2.555-1.808-6.099-3.273-10.288-4.225c-0.543-0.118-1.075,0.215-1.197,0.754c-0.122,0.539,0.216,1.074,0.754,1.197
			c4.182,0.95,7.618,2.417,9.956,4.2l-3.946,0.658c-0.545,0.091-0.913,0.606-0.822,1.15C40.06,33.653,40.484,34,40.964,34
			c0.055,0,0.109-0.004,0.165-0.014l5.829-0.971c0.014,0,0.028,0.008,0.042,0.008c0.242,0,0.484-0.087,0.677-0.264
			C47.992,32.469,48.072,32.026,47.92,31.65z"/>
		<path fill="#010101" d="M24,20c-4.411,0-8,3.589-8,8v19c0,0.553,0.447,1,1,1h14c0.553,0,1-0.447,1-1V28C32,23.589,28.411,20,24,20
			z M28,31c0,0.553-0.447,1-1,1h-6c-0.553,0-1-0.447-1-1v-3c0-2.206,1.794-4,4-4s4,1.794,4,4V31z"/>
		<path fill="#010101" d="M12.704,25.202C7.176,26.457,2.76,28.614,0.27,31.275c-0.377,0.403-0.356,1.036,0.047,1.414
			C0.51,32.87,0.755,32.959,1,32.959c0.267,0,0.533-0.106,0.73-0.316c2.22-2.373,6.274-4.322,11.417-5.489
			c0.538-0.123,0.876-0.658,0.754-1.197C13.779,25.418,13.25,25.085,12.704,25.202z"/>
	</g>
</g>
<g id="nyt_x5F_exporter_x5F_info" display="none">
</g>
</svg>
