<?xml version="1.0" encoding="utf-8"?>
<!-- Generator: Adobe Illustrator 17.0.0, SVG Export Plug-In . SVG Version: 6.00 Build 0)  -->
<!DOCTYPE svg PUBLIC "-//W3C//DTD SVG 1.1//EN" "http://www.w3.org/Graphics/SVG/1.1/DTD/svg11.dtd">
<svg version="1.1" xmlns="http://www.w3.org/2000/svg" xmlns:xlink="http://www.w3.org/1999/xlink" x="0px" y="0px" width="48px"
	 height="48px" viewBox="0 0 48 48" enable-background="new 0 0 48 48" xml:space="preserve">
<g id="Layer_3">
	<g>
		<path fill="#010101" d="M35,24c0-4.411-3.589-8-8-8H8c-0.553,0-1,0.447-1,1v14c0,0.553,0.447,1,1,1h19C31.411,32,35,28.411,35,24z
			 M23,27v-6c0-0.553,0.447-1,1-1h3c2.206,0,4,1.794,4,4c0,2.206-1.794,4-4,4h-3C23.447,28,23,27.553,23,27z"/>
		<path fill="#010101" d="M22.625,5.781L26,3.081V11c0,0.553,0.447,1,1,1c0.553,0,1-0.447,1-1V3.081l3.375,2.701
			C31.56,5.929,31.78,6,31.999,6c0.294,0,0.584-0.129,0.782-0.375c0.345-0.432,0.274-1.06-0.156-1.406l-5-4
			c-0.045-0.036-0.099-0.054-0.148-0.082c-0.04-0.022-0.075-0.048-0.118-0.065c-0.111-0.043-0.227-0.068-0.344-0.069
			C27.009,0.003,27.005,0,27,0s-0.009,0.003-0.014,0.003c-0.117,0.002-0.233,0.027-0.344,0.069
			c-0.043,0.017-0.078,0.043-0.118,0.065c-0.05,0.027-0.103,0.045-0.149,0.082l-5,4c-0.431,0.346-0.501,0.975-0.156,1.406
			C21.564,6.056,22.192,6.127,22.625,5.781z"/>
		<path fill="#010101" d="M31.375,42.219L28,44.919V37c0-0.553-0.447-1-1-1c-0.553,0-1,0.447-1,1v7.919l-3.375-2.701
			c-0.432-0.345-1.06-0.272-1.406,0.156c-0.345,0.432-0.274,1.061,0.156,1.406l5,4c0.046,0.036,0.099,0.055,0.149,0.082
			c0.04,0.022,0.074,0.048,0.117,0.064C26.757,47.972,26.878,48,27,48c0.122,0,0.243-0.028,0.359-0.072
			c0.043-0.017,0.078-0.042,0.117-0.064c0.05-0.027,0.103-0.046,0.149-0.082l5-4c0.431-0.346,0.501-0.975,0.156-1.406
			C32.435,41.944,31.808,41.874,31.375,42.219z"/>
	</g>
</g>
<g id="nyt_x5F_exporter_x5F_info" display="none">
</g>
</svg>
