<?xml version="1.0" encoding="utf-8"?>
<!-- Generator: Adobe Illustrator 17.0.0, SVG Export Plug-In . SVG Version: 6.00 Build 0)  -->
<!DOCTYPE svg PUBLIC "-//W3C//DTD SVG 1.1//EN" "http://www.w3.org/Graphics/SVG/1.1/DTD/svg11.dtd">
<svg version="1.1" xmlns="http://www.w3.org/2000/svg" xmlns:xlink="http://www.w3.org/1999/xlink" x="0px" y="0px" width="48px"
	 height="48px" viewBox="0 0 48 48" enable-background="new 0 0 48 48" xml:space="preserve">
<g id="Layer_3">
	<g>
		<path fill="#010101" d="M23.25,7.979c0.082,0.021,0.164,0.03,0.245,0.03c0.447,0,0.854-0.302,0.969-0.756l1.05-4.171
			c1.842,2.339,3.357,5.841,4.329,10.125c0.105,0.464,0.518,0.778,0.975,0.778c0.073,0,0.147-0.008,0.223-0.024
			c0.538-0.123,0.876-0.658,0.754-1.197c-0.952-4.19-2.416-7.735-4.224-10.289l3.265,0.544c0.543,0.099,1.061-0.278,1.15-0.822
			c0.091-0.544-0.277-1.06-0.822-1.15l-5.815-0.969c-0.375-0.151-0.818-0.072-1.109,0.244c-0.162,0.176-0.234,0.395-0.247,0.616
			l-1.469,5.828C22.39,7.3,22.714,7.844,23.25,7.979z"/>
		<path fill="#010101" d="M29,15.997H10c-0.553,0-1,0.447-1,1v14c0,0.553,0.447,1,1,1h19c4.411,0,8-3.589,8-8
			S33.411,15.997,29,15.997z M29,27.997h-3c-0.553,0-1-0.447-1-1v-6c0-0.553,0.447-1,1-1h3c2.206,0,4,1.794,4,4
			S31.206,27.997,29,27.997z"/>
		<path fill="#010101" d="M31.042,34.096c-0.537-0.12-1.074,0.215-1.196,0.755c-1.166,5.142-3.115,9.196-5.488,11.416
			c-0.404,0.377-0.425,1.01-0.048,1.413c0.197,0.211,0.464,0.317,0.73,0.317c0.245,0,0.49-0.089,0.683-0.269
			c2.663-2.49,4.82-6.906,6.074-12.436C31.919,34.754,31.581,34.218,31.042,34.096z"/>
	</g>
</g>
<g id="nyt_x5F_exporter_x5F_info" display="none">
</g>
</svg>
