<?xml version="1.0" encoding="utf-8"?>
<!-- Generator: Adobe Illustrator 17.0.0, SVG Export Plug-In . SVG Version: 6.00 Build 0)  -->
<!DOCTYPE svg PUBLIC "-//W3C//DTD SVG 1.1//EN" "http://www.w3.org/Graphics/SVG/1.1/DTD/svg11.dtd">
<svg version="1.1" xmlns="http://www.w3.org/2000/svg" xmlns:xlink="http://www.w3.org/1999/xlink" x="0px" y="0px" width="48px"
	 height="48px" viewBox="0 0 48 48" enable-background="new 0 0 48 48" xml:space="preserve">
<g id="Layer_3">
	<g>
		<path fill="#010101" d="M29,16.018H10c-0.553,0-1,0.447-1,1v14c0,0.553,0.447,1,1,1h19c4.411,0,8-3.589,8-8
			S33.411,16.018,29,16.018z M29,28.018h-3c-0.553,0-1-0.447-1-1v-6c0-0.553,0.447-1,1-1h3c2.206,0,4,1.794,4,4
			S31.206,28.018,29,28.018z"/>
		<path fill="#010101" d="M30.846,13.176c0.105,0.465,0.518,0.779,0.975,0.779c0.073,0,0.147-0.008,0.222-0.024
			c0.539-0.122,0.877-0.658,0.755-1.196c-1.257-5.54-3.414-9.96-6.074-12.447C26.32-0.09,25.687-0.071,25.31,0.336
			c-0.377,0.403-0.356,1.036,0.048,1.413C27.727,3.966,29.678,8.024,30.846,13.176z"/>
		<path fill="#010101" d="M31.838,45.008l-3.283,0.541c1.823-2.526,3.271-6.019,4.24-10.286c0.122-0.539-0.216-1.074-0.754-1.197
			c-0.546-0.119-1.075,0.215-1.197,0.754c-0.949,4.183-2.419,7.611-4.205,9.927l-0.652-3.883c-0.092-0.545-0.603-0.904-1.152-0.82
			c-0.544,0.092-0.912,0.607-0.82,1.152l1,5.953c0.082,0.488,0.506,0.834,0.985,0.834c0.054,0,0.108-0.004,0.163-0.014l6-0.988
			c0.545-0.09,0.914-0.604,0.824-1.148C32.897,45.288,32.386,44.917,31.838,45.008z"/>
	</g>
</g>
<g id="nyt_x5F_exporter_x5F_info" display="none">
</g>
</svg>
