<?xml version="1.0" encoding="utf-8"?>
<!-- Generator: Adobe Illustrator 17.0.0, SVG Export Plug-In . SVG Version: 6.00 Build 0)  -->
<!DOCTYPE svg PUBLIC "-//W3C//DTD SVG 1.1//EN" "http://www.w3.org/Graphics/SVG/1.1/DTD/svg11.dtd">
<svg version="1.1" xmlns="http://www.w3.org/2000/svg" xmlns:xlink="http://www.w3.org/1999/xlink" x="0px" y="0px" width="48px"
	 height="48px" viewBox="0 0 48 48" enable-background="new 0 0 48 48" xml:space="preserve">
<g id="Layer_3">
	<g>
		<path fill="#010101" d="M34,4.999c-3.859,0-7,3.141-7,7s3.141,7,7,7c3.859,0,7-3.141,7-7S37.859,4.999,34,4.999z M36,13.999h-2
			c-0.553,0-1-0.447-1-1v-4c0-0.553,0.447-1,1-1c0.553,0,1,0.447,1,1v3h1c0.553,0,1,0.447,1,1C37,13.552,36.553,13.999,36,13.999z"
			/>
		<path fill="#010101" d="M24,17.999c-4.411,0-8,3.589-8,8v19c0,0.553,0.447,1,1,1h14c0.553,0,1-0.447,1-1v-19
			C32,21.588,28.411,17.999,24,17.999z M28,28.999c0,0.553-0.447,1-1,1h-6c-0.553,0-1-0.447-1-1v-3c0-2.206,1.794-4,4-4
			c2.206,0,4,1.794,4,4V28.999z"/>
		<path fill="#010101" d="M36.04,20.985c-0.524,0.173-0.81,0.738-0.638,1.263C35.799,23.453,36,24.715,36,25.999
			c0,2.27-0.637,4.477-1.84,6.387c-0.295,0.467-0.155,1.085,0.312,1.379c0.165,0.104,0.35,0.154,0.532,0.154
			c0.332,0,0.656-0.165,0.847-0.467C37.257,31.224,38,28.647,38,25.999c0-1.496-0.234-2.969-0.697-4.377
			C37.13,21.098,36.565,20.811,36.04,20.985z"/>
		<path fill="#010101" d="M24,13.999c0.553,0,1-0.447,1-1c0-0.553-0.447-1-1-1c-7.72,0-14,6.28-14,14
			c0,2.633,0.735,5.199,2.127,7.421c0.189,0.304,0.516,0.47,0.849,0.47c0.182,0,0.364-0.049,0.529-0.152
			c0.469-0.293,0.61-0.91,0.317-1.378C12.63,30.455,12,28.256,12,25.999C12,19.382,17.383,13.999,24,13.999z"/>
	</g>
</g>
<g id="nyt_x5F_exporter_x5F_info" display="none">
</g>
</svg>
