<?xml version="1.0" encoding="utf-8"?>
<!-- Generator: Adobe Illustrator 17.0.0, SVG Export Plug-In . SVG Version: 6.00 Build 0)  -->
<!DOCTYPE svg PUBLIC "-//W3C//DTD SVG 1.1//EN" "http://www.w3.org/Graphics/SVG/1.1/DTD/svg11.dtd">
<svg version="1.1" xmlns="http://www.w3.org/2000/svg" xmlns:xlink="http://www.w3.org/1999/xlink" x="0px" y="0px" width="48px"
	 height="48px" viewBox="0 0 48 48" enable-background="new 0 0 48 48" xml:space="preserve">
<g id="Layer_3">
	<g>
		<path fill="#010101" d="M20.625,10.781L24,8.08V13c0,0.553,0.447,1,1,1c0.553,0,1-0.447,1-1V8.08l3.375,2.701
			C29.56,10.928,29.78,11,29.999,11c0.294,0,0.584-0.129,0.782-0.375c0.345-0.432,0.274-1.061-0.156-1.406l-5-4
			c-0.045-0.036-0.099-0.054-0.148-0.082c-0.04-0.022-0.075-0.048-0.118-0.065c-0.111-0.043-0.227-0.068-0.344-0.069
			C25.009,5.002,25.005,5,25,5s-0.009,0.003-0.014,0.003c-0.117,0.002-0.233,0.026-0.344,0.069
			c-0.043,0.017-0.078,0.043-0.118,0.065c-0.05,0.027-0.103,0.045-0.149,0.082l-5,4c-0.431,0.346-0.501,0.975-0.156,1.406
			C19.564,11.055,20.192,11.127,20.625,10.781z"/>
		<path fill="#010101" d="M29.375,37.218L26,39.919V35c0-0.553-0.447-1-1-1c-0.553,0-1,0.447-1,1v4.919l-3.375-2.701
			c-0.432-0.345-1.06-0.271-1.406,0.156c-0.345,0.432-0.274,1.06,0.156,1.406l5,4c0.046,0.037,0.099,0.055,0.149,0.082
			c0.04,0.022,0.074,0.048,0.117,0.064C24.757,42.972,24.878,43,25,43c0.122,0,0.243-0.028,0.359-0.072
			c0.043-0.017,0.078-0.042,0.117-0.064c0.05-0.027,0.103-0.046,0.149-0.082l5-4c0.431-0.346,0.501-0.975,0.156-1.406
			C30.435,36.944,29.808,36.873,29.375,37.218z"/>
		<path fill="#010101" d="M29.375,42.218L25,45.719l-4.375-3.501c-0.432-0.345-1.06-0.273-1.406,0.156
			c-0.345,0.432-0.274,1.06,0.156,1.406l5,4C24.558,47.926,24.779,48,25,48c0.221,0,0.442-0.073,0.625-0.219l5-4
			c0.431-0.346,0.501-0.975,0.156-1.406C30.435,41.944,29.808,41.873,29.375,42.218z"/>
		<path fill="#010101" d="M20.625,5.781L25,2.28l4.375,3.501C29.56,5.928,29.78,6,29.999,6c0.294,0,0.584-0.129,0.782-0.375
			c0.345-0.432,0.274-1.061-0.156-1.406l-5-4c-0.365-0.291-0.885-0.291-1.25,0l-5,4c-0.431,0.346-0.501,0.975-0.156,1.406
			C19.564,6.055,20.192,6.127,20.625,5.781z"/>
		<path fill="#010101" d="M32,24c0-4.411-3.589-8-8-8H5c-0.553,0-1,0.447-1,1v14c0,0.553,0.447,1,1,1h19C28.411,32,32,28.411,32,24z
			 M20,27v-6c0-0.553,0.447-1,1-1h3c2.206,0,4,1.794,4,4s-1.794,4-4,4h-3C20.447,28,20,27.552,20,27z"/>
	</g>
</g>
<g id="nyt_x5F_exporter_x5F_info" display="none">
</g>
</svg>
