<?xml version="1.0" encoding="utf-8"?>
<!-- Generator: Adobe Illustrator 17.0.0, SVG Export Plug-In . SVG Version: 6.00 Build 0)  -->
<!DOCTYPE svg PUBLIC "-//W3C//DTD SVG 1.1//EN" "http://www.w3.org/Graphics/SVG/1.1/DTD/svg11.dtd">
<svg version="1.1" id="Layer_2" xmlns="http://www.w3.org/2000/svg" xmlns:xlink="http://www.w3.org/1999/xlink" x="0px" y="0px"
	 width="48px" height="48px" viewBox="0 0 48 48" enable-background="new 0 0 48 48" xml:space="preserve">
<path fill="#010101" d="M47,6H1C0.448,6,0,6.448,0,7v32c0,0.552,0.448,1,1,1h13l0,7c0,0.404,0.244,0.769,0.617,0.924
	C14.741,47.975,14.871,48,15,48c0.26,0,0.516-0.102,0.707-0.293L23.415,40H47c0.552,0,1-0.448,1-1V7C48,6.448,47.552,6,47,6z M25,34
	c-1.105,0-2-0.894-2-2c0-1.103,0.895-2,2-2c1.104,0,2,0.897,2,2C27,33.106,26.104,34,25,34z M26,25.929V27c0,0.552-0.448,1-1,1
	c-0.552,0-1-0.448-1-1v-2c0-0.552,0.448-1,1-1c2.757,0,5-2.243,5-5c0-2.757-2.243-5-5-5c-2.757,0-5,2.243-5,5c0,0.552-0.448,1-1,1
	c-0.552,0-1-0.448-1-1c0-3.86,3.14-7,7-7c3.86,0,7,3.14,7,7C32,22.521,29.388,25.442,26,25.929z"/>
</svg>
