<?xml version="1.0" encoding="utf-8"?>
<!-- Generator: Adobe Illustrator 17.0.0, SVG Export Plug-In . SVG Version: 6.00 Build 0)  -->
<!DOCTYPE svg PUBLIC "-//W3C//DTD SVG 1.1//EN" "http://www.w3.org/Graphics/SVG/1.1/DTD/svg11.dtd">
<svg version="1.1" id="Layer_2" xmlns="http://www.w3.org/2000/svg" xmlns:xlink="http://www.w3.org/1999/xlink" x="0px" y="0px"
	 width="48px" height="48px" viewBox="0 0 48 48" enable-background="new 0 0 48 48" xml:space="preserve">
<g>
	<path fill="#010101" d="M34.5,21c3.005,0,5.772,0.994,8.015,2.655c1.006-1.99,1.316-3.438,1.328-3.499
		c0.647-4.392-0.715-8.803-3.838-12.42C35.822,2.892,29.03,0,21.835,0C9.795,0,0,8.074,0,17.999c0,4.78,1.995,9.012,5.779,12.286
		l-3.693,8.309c-0.169,0.379-0.085,0.824,0.21,1.116C2.487,39.9,2.742,40,3,40c0.14,0,0.281-0.029,0.413-0.09l10.659-4.845
		c1.857,0.541,3.463,0.804,4.899,0.804c0.719,0,1.415-0.02,2.094-0.053C21.024,35.383,21,34.944,21,34.5
		C21,27.044,27.044,21,34.5,21z"/>
	<path fill="#010101" d="M40.455,29.959L29.958,40.455C31.221,41.42,32.792,42,34.5,42c4.136,0,7.5-3.364,7.5-7.5
		C42,32.792,41.42,31.221,40.455,29.959z"/>
	<path fill="#010101" d="M34.5,23C28.149,23,23,28.148,23,34.5C23,40.851,28.149,46,34.5,46C40.851,46,46,40.851,46,34.5
		C46,28.148,40.851,23,34.5,23z M34.5,44c-5.238,0-9.5-4.262-9.5-9.5c0-5.238,4.262-9.5,9.5-9.5c5.238,0,9.5,4.262,9.5,9.5
		C44,39.738,39.738,44,34.5,44z"/>
	<path fill="#010101" d="M34.5,27c-4.136,0-7.5,3.364-7.5,7.5c0,1.708,0.58,3.279,1.544,4.541l10.497-10.496
		C37.779,27.58,36.208,27,34.5,27z"/>
</g>
</svg>
