<?xml version="1.0" encoding="utf-8"?>
<!-- Generator: Adobe Illustrator 17.0.0, SVG Export Plug-In . SVG Version: 6.00 Build 0)  -->
<!DOCTYPE svg PUBLIC "-//W3C//DTD SVG 1.1//EN" "http://www.w3.org/Graphics/SVG/1.1/DTD/svg11.dtd">
<svg version="1.1" id="Layer_2" xmlns="http://www.w3.org/2000/svg" xmlns:xlink="http://www.w3.org/1999/xlink" x="0px" y="0px"
	 width="48px" height="48px" viewBox="0 0 48 48" enable-background="new 0 0 48 48" xml:space="preserve">
<g>
	<path fill="#010101" d="M34.5,21c3.706,0,7.06,1.495,9.5,3.912V1c0-0.552-0.448-1-1-1H1C0.448,0,0,0.448,0,1v28
		c0,0.552,0.448,1,1,1h7v7c0,0.404,0.244,0.769,0.617,0.924C8.741,37.975,8.871,38,9,38c0.26,0,0.516-0.102,0.707-0.293L17.414,30
		h4.371C23.64,24.76,28.624,21,34.5,21z"/>
	<path fill="#010101" d="M34.5,23C28.149,23,23,28.148,23,34.5C23,40.852,28.149,46,34.5,46C40.851,46,46,40.852,46,34.5
		C46,28.148,40.851,23,34.5,23z M34.5,44c-5.238,0-9.5-4.262-9.5-9.5c0-5.238,4.262-9.5,9.5-9.5c5.238,0,9.5,4.262,9.5,9.5
		C44,39.738,39.738,44,34.5,44z"/>
	<path fill="#010101" d="M40.455,29.959L29.958,40.455C31.221,41.42,32.792,42,34.5,42c4.136,0,7.5-3.364,7.5-7.5
		C42,32.792,41.42,31.221,40.455,29.959z"/>
	<path fill="#010101" d="M34.5,27c-4.136,0-7.5,3.364-7.5,7.5c0,1.708,0.58,3.278,1.544,4.541l10.497-10.496
		C37.779,27.58,36.208,27,34.5,27z"/>
</g>
</svg>
