<?xml version="1.0" encoding="utf-8"?>
<!-- Generator: Adobe Illustrator 17.0.0, SVG Export Plug-In . SVG Version: 6.00 Build 0)  -->
<!DOCTYPE svg PUBLIC "-//W3C//DTD SVG 1.1//EN" "http://www.w3.org/Graphics/SVG/1.1/DTD/svg11.dtd">
<svg version="1.1" id="Layer_2" xmlns="http://www.w3.org/2000/svg" xmlns:xlink="http://www.w3.org/1999/xlink" x="0px" y="0px"
	 width="48px" height="48px" viewBox="0 0 48 48" enable-background="new 0 0 48 48" xml:space="preserve">
<path fill="#010101" d="M47,6H1C0.448,6,0,6.448,0,7v32c0,0.552,0.448,1,1,1h13l0,7c0,0.404,0.244,0.769,0.617,0.924
	C14.741,47.975,14.871,48,15,48c0.26,0,0.516-0.102,0.707-0.293L23.415,40H47c0.552,0,1-0.448,1-1V7C48,6.448,47.552,6,47,6z
	 M24.588,33.809C24.413,33.936,24.206,34,24,34c-0.207,0-0.413-0.064-0.588-0.191C22.946,33.47,12,25.436,12,19.074
	C12,14.646,15.278,12,18.447,12c1.901,0,4.141,0.983,5.553,3.568C25.412,12.983,27.652,12,29.553,12C32.722,12,36,14.646,36,19.074
	C36,25.436,25.054,33.47,24.588,33.809z"/>
</svg>
