<?xml version="1.0" encoding="utf-8"?>
<!-- Generator: Adobe Illustrator 17.0.0, SVG Export Plug-In . SVG Version: 6.00 Build 0)  -->
<!DOCTYPE svg PUBLIC "-//W3C//DTD SVG 1.1//EN" "http://www.w3.org/Graphics/SVG/1.1/DTD/svg11.dtd">
<svg version="1.1" id="Layer_2" xmlns="http://www.w3.org/2000/svg" xmlns:xlink="http://www.w3.org/1999/xlink" x="0px" y="0px"
	 width="48px" height="48px" viewBox="0 0 48 48" enable-background="new 0 0 48 48" xml:space="preserve">
<path fill="#010101" d="M47,8H1C0.448,8,0,8.448,0,9v30c0,0.552,0.448,1,1,1h13l0,7c0,0.404,0.244,0.769,0.617,0.924
	C14.741,47.975,14.871,48,15,48c0.26,0,0.516-0.102,0.707-0.293L23.415,40H47c0.552,0,1-0.448,1-1V9C48,8.448,47.552,8,47,8z M24,14
	c1.104,0,2,0.896,2,2c0,1.105-0.896,2-2,2c-1.105,0-2-0.895-2-2C22,14.896,22.895,14,24,14z M29,34h-8c-0.552,0-1-0.448-1-1
	c0-0.552,0.448-1,1-1h3V22h-3c-0.552,0-1-0.448-1-1c0-0.552,0.448-1,1-1h4c0.552,0,1,0.448,1,1v11h3c0.552,0,1,0.448,1,1
	C30,33.552,29.552,34,29,34z"/>
</svg>
