<?xml version="1.0" encoding="utf-8"?>
<!-- Generator: Adobe Illustrator 17.0.0, SVG Export Plug-In . SVG Version: 6.00 Build 0)  -->
<!DOCTYPE svg PUBLIC "-//W3C//DTD SVG 1.1//EN" "http://www.w3.org/Graphics/SVG/1.1/DTD/svg11.dtd">
<svg version="1.1" id="Layer_2" xmlns="http://www.w3.org/2000/svg" xmlns:xlink="http://www.w3.org/1999/xlink" x="0px" y="0px"
	 width="48px" height="48px" viewBox="0 0 48 48" enable-background="new 0 0 48 48" xml:space="preserve">
<path fill="#010101" d="M24,2C10.767,2,0,10.867,0,21.766c0,5.147,2.355,9.97,6.65,13.663l-4.82,9.622
	c-0.191,0.38-0.12,0.839,0.177,1.145c0.193,0.198,0.453,0.303,0.718,0.303c0.143,0,0.286-0.03,0.421-0.093l12.874-5.992
	c2.557,0.742,5.239,1.117,7.979,1.117c13.233,0,24-8.866,24-19.765C48,10.867,37.233,2,24,2z M15,16h13c0.552,0,1,0.448,1,1
	c0,0.552-0.448,1-1,1H15c-0.552,0-1-0.448-1-1C14,16.448,14.448,16,15,16z M34,30H15c-0.552,0-1-0.448-1-1c0-0.552,0.448-1,1-1h19
	c0.552,0,1,0.448,1,1C35,29.552,34.552,30,34,30z M34,24H15c-0.552,0-1-0.448-1-1c0-0.552,0.448-1,1-1h19c0.552,0,1,0.448,1,1
	C35,23.552,34.552,24,34,24z"/>
</svg>
