<?xml version="1.0" encoding="utf-8"?>
<!-- Generator: Adobe Illustrator 17.0.0, SVG Export Plug-In . SVG Version: 6.00 Build 0)  -->
<!DOCTYPE svg PUBLIC "-//W3C//DTD SVG 1.1//EN" "http://www.w3.org/Graphics/SVG/1.1/DTD/svg11.dtd">
<svg version="1.1" id="Layer_2" xmlns="http://www.w3.org/2000/svg" xmlns:xlink="http://www.w3.org/1999/xlink" x="0px" y="0px"
	 width="48px" height="48px" viewBox="0 0 48 48" enable-background="new 0 0 48 48" xml:space="preserve">
<g>
	<path fill="#010101" d="M32.066,22.158c0.56-1.118,1.684-1.812,2.934-1.812s2.374,0.694,2.934,1.812L41.854,30H43
		c0.552,0,1-0.448,1-1V1c0-0.552-0.448-1-1-1H1C0.448,0,0,0.448,0,1v28c0,0.552,0.448,1,1,1h7v7c0,0.404,0.244,0.769,0.617,0.924
		C8.741,37.975,8.871,38,9,38c0.26,0,0.516-0.102,0.707-0.293L17.414,30h10.731L32.066,22.158z"/>
	<path fill="#010101" d="M47.971,46.707L36.145,23.053c-0.218-0.436-0.657-0.707-1.145-0.707s-0.926,0.271-1.145,0.707
		L22.104,46.556c-0.153,0.31-0.137,0.676,0.045,0.97C22.331,47.82,22.653,48,23,48h24c0.007,0,0.013,0,0.02,0c0.552,0,1-0.448,1-1
		C48.02,46.897,48,46.8,47.971,46.707z M34,32.818c0-0.552,0.448-1,1-1s1,0.448,1,1v6.545c0,0.552-0.448,1-1,1s-1-0.448-1-1V32.818z
		 M35,43.728c-0.602,0-1.091-0.488-1.091-1.091c0-0.603,0.489-1.091,1.091-1.091s1.091,0.488,1.091,1.091
		C36.091,43.239,35.602,43.728,35,43.728z"/>
</g>
</svg>
