<?xml version="1.0" encoding="utf-8"?>
<!-- Generator: Adobe Illustrator 17.0.0, SVG Export Plug-In . SVG Version: 6.00 Build 0)  -->
<!DOCTYPE svg PUBLIC "-//W3C//DTD SVG 1.1//EN" "http://www.w3.org/Graphics/SVG/1.1/DTD/svg11.dtd">
<svg version="1.1" id="Layer_2" xmlns="http://www.w3.org/2000/svg" xmlns:xlink="http://www.w3.org/1999/xlink" x="0px" y="0px"
	 width="48px" height="48px" viewBox="0 0 48 48" enable-background="new 0 0 48 48" xml:space="preserve">
<g>
	<path fill="#010101" d="M34.5,21c3.114,0,5.973,1.065,8.257,2.836c0.095-0.23,0.154-0.406,0.183-0.507
		C43.644,21.634,44,19.842,44,18c0-7.72-6.28-14-14-14H14C6.28,4,0,10.28,0,18c0,7.72,6.28,14,14,14v7
		c0,0.404,0.244,0.769,0.617,0.924C14.741,39.975,14.871,40,15,40c0.26,0,0.516-0.102,0.707-0.293l5.298-5.298
		C21.054,26.996,27.075,21,34.5,21z"/>
	<path fill="#010101" d="M40.455,29.959L29.958,40.455C31.221,41.42,32.792,42,34.5,42c4.136,0,7.5-3.364,7.5-7.5
		C42,32.792,41.42,31.221,40.455,29.959z"/>
	<path fill="#010101" d="M34.5,27c-4.136,0-7.5,3.364-7.5,7.5c0,1.708,0.58,3.279,1.544,4.541l10.497-10.496
		C37.779,27.58,36.208,27,34.5,27z"/>
	<path fill="#010101" d="M34.5,23C28.149,23,23,28.149,23,34.5C23,40.851,28.149,46,34.5,46C40.851,46,46,40.851,46,34.5
		C46,28.149,40.851,23,34.5,23z M34.5,44c-5.238,0-9.5-4.262-9.5-9.5c0-5.238,4.262-9.5,9.5-9.5c5.238,0,9.5,4.262,9.5,9.5
		C44,39.738,39.738,44,34.5,44z"/>
</g>
</svg>
