<?xml version="1.0" encoding="utf-8"?>
<!-- Generator: Adobe Illustrator 17.0.0, SVG Export Plug-In . SVG Version: 6.00 Build 0)  -->
<!DOCTYPE svg PUBLIC "-//W3C//DTD SVG 1.1//EN" "http://www.w3.org/Graphics/SVG/1.1/DTD/svg11.dtd">
<svg version="1.1" id="Layer_2" xmlns="http://www.w3.org/2000/svg" xmlns:xlink="http://www.w3.org/1999/xlink" x="0px" y="0px"
	 width="48px" height="48px" viewBox="0 0 48 48" enable-background="new 0 0 48 48" xml:space="preserve">
<g>
	<path fill="#010101" d="M35,20c2.983,0,5.759,0.886,8.098,2.393c0.547-1.312,0.736-2.19,0.745-2.237
		c0.647-4.392-0.715-8.803-3.838-12.42C35.822,2.892,29.03,0,21.835,0C9.795,0,0,8.074,0,17.999c0,4.78,1.995,9.012,5.779,12.286
		l-3.693,8.309c-0.169,0.379-0.085,0.824,0.21,1.116C2.487,39.9,2.742,40,3,40c0.14,0,0.281-0.029,0.413-0.09l10.659-4.845
		c1.857,0.541,3.463,0.804,4.899,0.804c0.367,0,0.715-0.015,1.071-0.024C20.027,35.564,20,35.285,20,35C20,26.729,26.729,20,35,20z"
		/>
	<path fill="#010101" d="M35,22c-7.169,0-13,5.832-13,13c0,7.169,5.831,13,13,13c7.168,0,13-5.831,13-13C48,27.832,42.168,22,35,22z
		 M42.284,32.401l-8.342,9.143l-6.195-6.195c-0.391-0.391-0.391-1.023,0-1.414c0.391-0.391,1.023-0.391,1.414,0l4.714,4.714
		l6.931-7.596c0.372-0.407,1.005-0.437,1.413-0.065C42.627,31.361,42.656,31.994,42.284,32.401z"/>
</g>
</svg>
