<?xml version="1.0" encoding="utf-8"?>
<!-- Generator: Adobe Illustrator 17.0.0, SVG Export Plug-In . SVG Version: 6.00 Build 0)  -->
<!DOCTYPE svg PUBLIC "-//W3C//DTD SVG 1.1//EN" "http://www.w3.org/Graphics/SVG/1.1/DTD/svg11.dtd">
<svg version="1.1" id="Layer_2" xmlns="http://www.w3.org/2000/svg" xmlns:xlink="http://www.w3.org/1999/xlink" x="0px" y="0px"
	 width="48px" height="48px" viewBox="0 0 48 48" enable-background="new 0 0 48 48" xml:space="preserve">
<g>
	<rect x="14" y="18" fill="#010101" width="6" height="6"/>
	<rect x="28" y="18" fill="#010101" width="6" height="6"/>
	<path fill="#010101" d="M47,8H1C0.448,8,0,8.448,0,9v30c0,0.552,0.448,1,1,1h13v7c0,0.404,0.244,0.769,0.617,0.924
		C14.741,47.975,14.871,48,15,48c0.26,0,0.516-0.102,0.707-0.293L23.414,40H47c0.552,0,1-0.448,1-1V9C48,8.448,47.552,8,47,8z
		 M22,25v3c0,2.757-2.243,5-5,5c-0.552,0-1-0.448-1-1c0-0.552,0.448-1,1-1c1.654,0,3-1.346,3-3v-2h-7c-0.552,0-1-0.448-1-1v-8
		c0-0.552,0.448-1,1-1h8c0.552,0,1,0.448,1,1V25z M36,25v3c0,2.757-2.243,5-5,5c-0.552,0-1-0.448-1-1c0-0.552,0.448-1,1-1
		c1.654,0,3-1.346,3-3v-2h-7c-0.552,0-1-0.448-1-1v-8c0-0.552,0.448-1,1-1h8c0.552,0,1,0.448,1,1V25z"/>
</g>
</svg>
