<?xml version="1.0" encoding="utf-8"?>
<!-- Generator: Adobe Illustrator 17.0.0, SVG Export Plug-In . SVG Version: 6.00 Build 0)  -->
<!DOCTYPE svg PUBLIC "-//W3C//DTD SVG 1.1//EN" "http://www.w3.org/Graphics/SVG/1.1/DTD/svg11.dtd">
<svg version="1.1" id="Layer_2" xmlns="http://www.w3.org/2000/svg" xmlns:xlink="http://www.w3.org/1999/xlink" x="0px" y="0px"
	 width="48px" height="48px" viewBox="0 0 48 48" enable-background="new 0 0 48 48" xml:space="preserve">
<path fill="#010101" d="M24,2C10.767,2,0,10.867,0,21.766c0,5.146,2.355,9.97,6.65,13.663l-4.82,9.622
	c-0.19,0.38-0.12,0.839,0.177,1.145c0.193,0.198,0.453,0.303,0.718,0.303c0.143,0,0.286-0.03,0.421-0.093l12.874-5.992
	c2.556,0.742,5.238,1.118,7.98,1.118c13.233,0,24-8.866,24-19.765C48,10.867,37.233,2,24,2z M31,13c2.757,0,5,2.243,5,5
	c0,0.552-0.448,1-1,1c-0.552,0-1-0.448-1-1c0-1.654-1.346-3-3-3c-1.654,0-3,1.346-3,3c0,0.552-0.448,1-1,1c-0.552,0-1-0.448-1-1
	C26,15.243,28.243,13,31,13z M17,13c2.757,0,5,2.243,5,5c0,0.552-0.448,1-1,1c-0.552,0-1-0.448-1-1c0-1.654-1.346-3-3-3
	c-1.654,0-3,1.346-3,3c0,0.552-0.448,1-1,1c-0.552,0-1-0.448-1-1C12,15.243,14.243,13,17,13z M28,33h-8c-5.514,0-10-4.486-10-10
	c0-0.552,0.448-1,1-1c0.552,0,1,0.448,1,1c0,4.411,3.589,8,8,8h8c4.411,0,8-3.589,8-8c0-0.552,0.448-1,1-1c0.552,0,1,0.448,1,1
	C38,28.514,33.514,33,28,33z"/>
</svg>
