<?xml version="1.0" encoding="utf-8"?>
<!-- Generator: Adobe Illustrator 17.0.0, SVG Export Plug-In . SVG Version: 6.00 Build 0)  -->
<!DOCTYPE svg PUBLIC "-//W3C//DTD SVG 1.1//EN" "http://www.w3.org/Graphics/SVG/1.1/DTD/svg11.dtd">
<svg version="1.1" id="Layer_2" xmlns="http://www.w3.org/2000/svg" xmlns:xlink="http://www.w3.org/1999/xlink" x="0px" y="0px"
	 width="48px" height="48px" viewBox="0 0 48 48" enable-background="new 0 0 48 48" xml:space="preserve">
<g>
	<path fill="#010101" d="M35,20c3.379,0,6.489,1.136,9,3.028V1c0-0.552-0.448-1-1-1H1C0.448,0,0,0.448,0,1v28c0,0.552,0.448,1,1,1h7
		v7c0,0.404,0.244,0.769,0.617,0.924C8.741,37.975,8.871,38,9,38c0.26,0,0.516-0.102,0.707-0.293L17.414,30h3.461
		C22.941,24.184,28.484,20,35,20z"/>
	<path fill="#010101" d="M35,22c-7.169,0-13,5.832-13,13c0,7.169,5.831,13,13,13c7.168,0,13-5.831,13-13C48,27.832,42.168,22,35,22z
		 M42.284,32.401l-8.342,9.142l-6.195-6.195c-0.391-0.391-0.391-1.023,0-1.414c0.391-0.391,1.023-0.391,1.414,0l4.714,4.714
		l6.931-7.596c0.373-0.407,1.005-0.437,1.413-0.065C42.627,31.361,42.656,31.994,42.284,32.401z"/>
</g>
</svg>
