<?xml version="1.0" encoding="utf-8"?>
<!-- Generator: Adobe Illustrator 17.0.0, SVG Export Plug-In . SVG Version: 6.00 Build 0)  -->
<!DOCTYPE svg PUBLIC "-//W3C//DTD SVG 1.1//EN" "http://www.w3.org/Graphics/SVG/1.1/DTD/svg11.dtd">
<svg version="1.1" id="Layer_2" xmlns="http://www.w3.org/2000/svg" xmlns:xlink="http://www.w3.org/1999/xlink" x="0px" y="0px"
	 width="48px" height="48px" viewBox="0 0 48 48" enable-background="new 0 0 48 48" xml:space="preserve">
<g>
	<path fill="#010101" d="M35,20c3.044,0,5.876,0.917,8.244,2.482C43.736,21.04,44,19.539,44,18c0-7.72-6.28-14-14-14H14
		C6.28,4,0,10.28,0,18c0,7.72,6.28,14,14,14v7c0,0.404,0.244,0.769,0.617,0.924C14.741,39.975,14.871,40,15,40
		c0.26,0,0.516-0.102,0.707-0.293l4.313-4.313C20.016,35.262,20,35.133,20,35C20,26.729,26.729,20,35,20z"/>
	<path fill="#010101" d="M35,22c-7.169,0-13,5.832-13,13c0,7.169,5.831,13,13,13c7.168,0,13-5.831,13-13C48,27.832,42.168,22,35,22z
		 M40.455,36H29.545c-0.552,0-1-0.448-1-1c0-0.552,0.448-1,1-1h10.909c0.552,0,1,0.448,1,1C41.455,35.552,41.007,36,40.455,36z"/>
</g>
</svg>
