<?xml version="1.0" encoding="utf-8"?>
<!-- Generator: Adobe Illustrator 17.0.0, SVG Export Plug-In . SVG Version: 6.00 Build 0)  -->
<!DOCTYPE svg PUBLIC "-//W3C//DTD SVG 1.1//EN" "http://www.w3.org/Graphics/SVG/1.1/DTD/svg11.dtd">
<svg version="1.1" id="Layer_2" xmlns="http://www.w3.org/2000/svg" xmlns:xlink="http://www.w3.org/1999/xlink" x="0px" y="0px"
	 width="48px" height="48px" viewBox="0 0 48 48" enable-background="new 0 0 48 48" xml:space="preserve">
<g>
	<path fill="#010101" d="M32.066,22.158c0.56-1.118,1.684-1.812,2.934-1.812s2.374,0.694,2.934,1.812l2.431,4.863
		c2.765-3.521,3.46-6.774,3.478-6.865c0.647-4.392-0.715-8.803-3.838-12.42C35.822,2.892,29.03,0,21.835,0C9.795,0,0,8.074,0,17.999
		c0,4.78,1.995,9.012,5.779,12.286l-3.693,8.309c-0.169,0.379-0.085,0.824,0.209,1.116C2.487,39.9,2.742,40,3,40
		c0.14,0,0.281-0.029,0.413-0.09l10.659-4.845c1.857,0.541,3.463,0.804,4.899,0.804c2.392,0,4.547-0.2,6.509-0.54L32.066,22.158z"/>
	<path fill="#010101" d="M47.971,46.707L36.144,23.053c-0.218-0.436-0.657-0.707-1.144-0.707c-0.488,0-0.926,0.271-1.145,0.707
		L22.104,46.556c-0.153,0.309-0.137,0.676,0.045,0.97C22.331,47.82,22.653,48,23,48h24c0.006,0,0.013,0,0.02,0c0.552,0,1-0.448,1-1
		C48.02,46.898,48,46.8,47.971,46.707z M34,32.818c0-0.552,0.448-1,1-1c0.552,0,1,0.448,1,1v6.545c0,0.552-0.448,1-1,1
		c-0.552,0-1-0.448-1-1V32.818z M35,43.728c-0.602,0-1.091-0.488-1.091-1.091c0-0.603,0.489-1.091,1.091-1.091
		s1.091,0.488,1.091,1.091C36.091,43.239,35.602,43.728,35,43.728z"/>
</g>
</svg>
