<?xml version="1.0" encoding="utf-8"?>
<!-- Generator: Adobe Illustrator 17.0.0, SVG Export Plug-In . SVG Version: 6.00 Build 0)  -->
<!DOCTYPE svg PUBLIC "-//W3C//DTD SVG 1.1//EN" "http://www.w3.org/Graphics/SVG/1.1/DTD/svg11.dtd">
<svg version="1.1" id="Layer_2" xmlns="http://www.w3.org/2000/svg" xmlns:xlink="http://www.w3.org/1999/xlink" x="0px" y="0px"
	 width="48px" height="48px" viewBox="0 0 48 48" enable-background="new 0 0 48 48" xml:space="preserve">
<path fill="#010101" d="M47,6H1C0.448,6,0,6.448,0,7v32c0,0.552,0.448,1,1,1h13v7c0,0.404,0.244,0.769,0.617,0.924
	C14.741,47.975,14.871,48,15,48c0.26,0,0.516-0.102,0.707-0.293L23.414,40H47c0.552,0,1-0.448,1-1V7C48,6.448,47.552,6,47,6z M14,26
	c-2.206,0-4-1.794-4-4s1.794-4,4-4c2.206,0,4,1.794,4,4S16.206,26,14,26z M24,26c-2.206,0-4-1.794-4-4s1.794-4,4-4
	c2.206,0,4,1.794,4,4S26.206,26,24,26z M34,26c-2.206,0-4-1.794-4-4s1.794-4,4-4c2.206,0,4,1.794,4,4S36.206,26,34,26z"/>
</svg>
