<?xml version="1.0" encoding="utf-8"?>
<!-- Generator: Adobe Illustrator 17.0.0, SVG Export Plug-In . SVG Version: 6.00 Build 0)  -->
<!DOCTYPE svg PUBLIC "-//W3C//DTD SVG 1.1//EN" "http://www.w3.org/Graphics/SVG/1.1/DTD/svg11.dtd">
<svg version="1.1" id="Layer_2" xmlns="http://www.w3.org/2000/svg" xmlns:xlink="http://www.w3.org/1999/xlink" x="0px" y="0px"
	 width="48px" height="48px" viewBox="0 0 48 48" enable-background="new 0 0 48 48" xml:space="preserve">
<g>
	<path fill="#010101" d="M30.149,30l2.961-5.899c0.568-1.134,1.681-1.838,2.904-1.838c1.228,0,2.343,0.709,2.91,1.85l1.489,2.989
		c1.833-1.736,2.407-3.364,2.527-3.773C43.644,21.634,44,19.842,44,18c0-7.72-6.28-14-14-14H14C6.28,4,0,10.28,0,18
		c0,7.72,6.28,14,14,14v7c0,0.404,0.244,0.769,0.617,0.924C14.741,39.975,14.871,40,15,40c0.26,0,0.516-0.102,0.707-0.293
		l6.554-6.554c-0.003-0.361,0.05-0.726,0.178-1.08C22.894,30.814,24.096,30,25.5,30H30.149z"/>
	<path fill="#010101" d="M47.681,32.754c-0.039-0.107-0.097-0.204-0.166-0.292c-0.024-0.031-0.059-0.057-0.087-0.086
		c-0.055-0.056-0.11-0.112-0.177-0.156c-0.035-0.024-0.08-0.04-0.119-0.06c-0.071-0.037-0.142-0.075-0.222-0.098
		C46.787,32.025,46.653,32,46.5,32h-5.881h0l-3.485-6.997c-0.228-0.457-0.656-0.741-1.12-0.741c-0.462,0-0.89,0.282-1.117,0.735
		L31.383,32h0H25.5c-0.153,0-0.287,0.025-0.411,0.061c-0.08,0.024-0.15,0.062-0.221,0.098c-0.039,0.021-0.084,0.037-0.12,0.061
		c-0.066,0.044-0.121,0.1-0.176,0.156c-0.028,0.029-0.063,0.056-0.087,0.087c-0.069,0.088-0.127,0.184-0.166,0.291
		c-0.039,0.107-0.055,0.216-0.06,0.325c-0.002,0.055,0.01,0.114,0.016,0.171c0.007,0.059,0.01,0.119,0.027,0.177
		c0.017,0.063,0.052,0.126,0.082,0.189c0.025,0.052,0.044,0.106,0.077,0.156c0.073,0.109,0.162,0.216,0.283,0.317l5.091,4.243l0,0h0
		l-2.626,7.878c0,0.001,0,0.002-0.001,0.004c-0.041,0.125-0.059,0.237-0.068,0.344c-0.005,0.054-0.002,0.107,0,0.16
		c0.002,0.05,0.003,0.1,0.011,0.146c0.009,0.057,0.023,0.112,0.04,0.166c0.011,0.034,0.021,0.069,0.033,0.099
		c0.031,0.075,0.067,0.147,0.114,0.212c0.001,0.001,0.002,0.003,0.003,0.004l0.373,0.449h0.512c0.256,0,0.51-0.085,0.754-0.253
		L36,42.719l7.021,4.822c0.122,0.084,0.247,0.147,0.372,0.19c0.009,0.003,0.019,0.002,0.028,0.005
		c0.116,0.036,0.234,0.059,0.352,0.059l0.018,0l0.569-0.033l0.299-0.415c0.002-0.002,0.004-0.007,0.005-0.009
		c0.045-0.064,0.081-0.134,0.111-0.207c0.013-0.03,0.023-0.066,0.034-0.1c0.017-0.054,0.031-0.109,0.04-0.166
		c0.007-0.045,0.009-0.096,0.011-0.146c0.002-0.053,0.004-0.106,0-0.16c-0.009-0.107-0.027-0.219-0.068-0.344
		c0-0.001,0-0.002-0.001-0.004l-2.626-7.878h0l0,0l5.091-4.243c0.118-0.099,0.205-0.204,0.277-0.311
		c0.044-0.067,0.073-0.139,0.104-0.211c0.018-0.043,0.043-0.086,0.056-0.129c0.022-0.075,0.029-0.153,0.035-0.229
		c0.003-0.042,0.013-0.085,0.012-0.125C47.736,32.972,47.719,32.861,47.681,32.754z"/>
</g>
</svg>
