<?xml version="1.0" encoding="utf-8"?>
<!-- Generator: Adobe Illustrator 17.0.0, SVG Export Plug-In . SVG Version: 6.00 Build 0)  -->
<!DOCTYPE svg PUBLIC "-//W3C//DTD SVG 1.1//EN" "http://www.w3.org/Graphics/SVG/1.1/DTD/svg11.dtd">
<svg version="1.1" id="Layer_2" xmlns="http://www.w3.org/2000/svg" xmlns:xlink="http://www.w3.org/1999/xlink" x="0px" y="0px"
	 width="48px" height="48px" viewBox="0 0 48 48" enable-background="new 0 0 48 48" xml:space="preserve">
<g>
	<rect x="14" y="16" fill="#010101" width="6" height="6"/>
	<rect x="28" y="16" fill="#010101" width="6" height="6"/>
	<path fill="#010101" d="M24,2C10.767,2,0,10.867,0,21.766c0,5.147,2.355,9.97,6.65,13.663l-4.82,9.622
		c-0.191,0.38-0.12,0.839,0.177,1.145c0.193,0.198,0.453,0.303,0.718,0.303c0.143,0,0.286-0.03,0.421-0.093l12.874-5.992
		c2.556,0.742,5.238,1.118,7.98,1.118c13.233,0,24-8.866,24-19.765C48,10.867,37.233,2,24,2z M22,23v3c0,2.757-2.243,5-5,5
		c-0.552,0-1-0.448-1-1c0-0.552,0.448-1,1-1c1.654,0,3-1.346,3-3v-2h-7c-0.552,0-1-0.448-1-1v-8c0-0.552,0.448-1,1-1h8
		c0.552,0,1,0.448,1,1V23z M36,23v3c0,2.757-2.243,5-5,5c-0.552,0-1-0.448-1-1c0-0.552,0.448-1,1-1c1.654,0,3-1.346,3-3v-2h-7
		c-0.552,0-1-0.448-1-1v-8c0-0.552,0.448-1,1-1h8c0.552,0,1,0.448,1,1V23z"/>
</g>
</svg>
