<?xml version="1.0" encoding="utf-8"?>
<!-- Generator: Adobe Illustrator 17.0.0, SVG Export Plug-In . SVG Version: 6.00 Build 0)  -->
<!DOCTYPE svg PUBLIC "-//W3C//DTD SVG 1.1//EN" "http://www.w3.org/Graphics/SVG/1.1/DTD/svg11.dtd">
<svg version="1.1" id="Layer_2" xmlns="http://www.w3.org/2000/svg" xmlns:xlink="http://www.w3.org/1999/xlink" x="0px" y="0px"
	 width="48px" height="48px" viewBox="0 0 48 48" enable-background="new 0 0 48 48" xml:space="preserve">
<g>
	<path fill="#010101" d="M37,24c1.817,0,3.546,0.377,5.118,1.054c0.53-0.84,0.752-1.487,0.821-1.725C43.644,21.634,44,19.842,44,18
		c0-7.72-6.28-14-14-14H14C6.28,4,0,10.28,0,18c0,7.72,6.28,14,14,14v7c0,0.404,0.244,0.769,0.617,0.924
		C14.741,39.975,14.871,40,15,40c0.26,0,0.516-0.102,0.707-0.293L23.414,32H24c0.345,0,0.676-0.008,1.008-0.015
		C26.975,27.3,31.609,24,37,24z"/>
	<path fill="#010101" d="M37,26c-6.065,0-11,4.935-11,11c0,6.065,4.935,11,11,11c6.065,0,11-4.935,11-11C48,30.935,43.065,26,37,26z
		 M42,38h-4v4c0,0.552-0.448,1-1,1c-0.552,0-1-0.448-1-1v-4h-4c-0.552,0-1-0.448-1-1c0-0.552,0.448-1,1-1h4v-4c0-0.552,0.448-1,1-1
		c0.552,0,1,0.448,1,1v4h4c0.552,0,1,0.448,1,1C43,37.552,42.552,38,42,38z"/>
</g>
</svg>
