<?xml version="1.0" encoding="utf-8"?>
<!-- Generator: Adobe Illustrator 17.0.0, SVG Export Plug-In . SVG Version: 6.00 Build 0)  -->
<!DOCTYPE svg PUBLIC "-//W3C//DTD SVG 1.1//EN" "http://www.w3.org/Graphics/SVG/1.1/DTD/svg11.dtd">
<svg version="1.1" id="Layer_2" xmlns="http://www.w3.org/2000/svg" xmlns:xlink="http://www.w3.org/1999/xlink" x="0px" y="0px"
	 width="48px" height="48px" viewBox="0 0 48 48" enable-background="new 0 0 48 48" xml:space="preserve">
<g>
	<path fill="#010101" d="M41.296,21.464c0.391-0.391,1.023-0.391,1.414,0l0.544,0.544c0.427-1.095,0.58-1.809,0.589-1.852
		c0.647-4.392-0.715-8.803-3.838-12.42C35.822,2.892,29.03,0,21.835,0C9.795,0,0,8.074,0,17.999c0,4.78,1.995,9.012,5.779,12.286
		l-3.693,8.309c-0.169,0.379-0.085,0.824,0.21,1.116C2.487,39.9,2.742,40,3,40c0.14,0,0.281-0.029,0.413-0.09l10.659-4.845
		c1.857,0.541,3.463,0.804,4.899,0.804c3.441,0,6.411-0.398,8.981-1.064L41.296,21.464z"/>
	<path fill="#010101" d="M47.71,29.292l-5-5c-0.117-0.117-0.258-0.187-0.405-0.234c0.02-0.036,0.041-0.074,0.06-0.11l-0.362-0.362
		l-4,4l6.414,6.414l3.293-3.293c0.188-0.188,0.293-0.442,0.293-0.707C48.003,29.734,47.898,29.48,47.71,29.292z"/>
	<polygon fill="#010101" points="32.324,33.263 32.324,33.263 27,38.587 33.414,45.001 43.003,35.413 36.589,28.999 	"/>
	<path fill="#010101" d="M24.039,46.726c-0.1,0.35-0.003,0.725,0.254,0.982c0.19,0.19,0.445,0.293,0.707,0.293
		c0.092,0,0.184-0.013,0.275-0.039l6.434-1.838l-5.832-5.832L24.039,46.726z"/>
</g>
</svg>
