<?xml version="1.0" encoding="utf-8"?>
<!-- Generator: Adobe Illustrator 17.0.0, SVG Export Plug-In . SVG Version: 6.00 Build 0)  -->
<!DOCTYPE svg PUBLIC "-//W3C//DTD SVG 1.1//EN" "http://www.w3.org/Graphics/SVG/1.1/DTD/svg11.dtd">
<svg version="1.1" id="Layer_2" xmlns="http://www.w3.org/2000/svg" xmlns:xlink="http://www.w3.org/1999/xlink" x="0px" y="0px"
	 width="48px" height="48px" viewBox="0 0 48 48" enable-background="new 0 0 48 48" xml:space="preserve">
<g>
	<path fill="#010101" d="M22.439,32.072C22.894,30.814,24.096,30,25.5,30h4.649l2.961-5.899c0.568-1.134,1.681-1.838,2.904-1.838
		c1.228,0,2.343,0.709,2.91,1.85l1.446,2.902c2.761-3.518,3.455-6.767,3.473-6.858c0.647-4.392-0.715-8.803-3.838-12.42
		C35.822,2.892,29.03,0,21.835,0C9.795,0,0,8.074,0,17.999c0,4.78,1.995,9.012,5.779,12.286l-3.693,8.309
		c-0.169,0.379-0.085,0.824,0.209,1.116C2.487,39.9,2.742,40,3,40c0.14,0,0.281-0.029,0.413-0.09l10.659-4.845
		c1.857,0.541,3.463,0.804,4.899,0.804c1.597,0,3.081-0.094,4.483-0.252C22.384,34.718,21.984,33.328,22.439,32.072z"/>
	<path fill="#010101" d="M47.681,32.754c-0.039-0.107-0.097-0.204-0.166-0.292c-0.024-0.031-0.059-0.057-0.087-0.086
		c-0.055-0.056-0.11-0.112-0.177-0.156c-0.035-0.024-0.08-0.04-0.119-0.06c-0.071-0.037-0.142-0.075-0.222-0.098
		C46.787,32.025,46.653,32,46.5,32h-5.881h0l-3.485-6.997c-0.227-0.457-0.656-0.741-1.12-0.741c-0.462,0-0.89,0.282-1.117,0.735
		L31.383,32h0H25.5c-0.551,0-1.015,0.296-1.18,0.753c-0.168,0.465-0.006,0.977,0.424,1.335l1.361,1.134h0l3.73,3.108l0,0h0
		l-2.626,7.878c0,0.001,0,0.002-0.001,0.004c-0.041,0.125-0.059,0.237-0.068,0.344c-0.005,0.054-0.002,0.107,0,0.16
		c0.002,0.05,0.003,0.1,0.011,0.146c0.009,0.057,0.023,0.112,0.04,0.166c0.011,0.034,0.021,0.069,0.033,0.099
		c0.031,0.074,0.067,0.147,0.114,0.212c0.001,0.001,0.002,0.003,0.002,0.004l0.373,0.449h0.512c0.256,0,0.51-0.085,0.754-0.253
		L36,42.719l7.021,4.822c0.122,0.084,0.247,0.147,0.372,0.19c0.009,0.003,0.019,0.002,0.028,0.005
		c0.117,0.036,0.234,0.059,0.352,0.059l0.018,0l0.569-0.033l0.299-0.415c0.002-0.002,0.004-0.007,0.005-0.009
		c0.045-0.064,0.08-0.135,0.111-0.207c0.013-0.03,0.023-0.066,0.034-0.1c0.017-0.054,0.031-0.109,0.04-0.166
		c0.007-0.045,0.009-0.095,0.011-0.146c0.002-0.053,0.004-0.105,0-0.16c-0.009-0.107-0.027-0.219-0.068-0.344
		c0-0.001,0-0.002-0.001-0.004l-2.626-7.878h0l0,0l5.091-4.243c0.118-0.099,0.206-0.204,0.277-0.311
		c0.044-0.067,0.073-0.139,0.104-0.211c0.018-0.043,0.043-0.086,0.056-0.129c0.022-0.075,0.029-0.153,0.035-0.229
		c0.003-0.042,0.013-0.085,0.012-0.125C47.736,32.972,47.719,32.861,47.681,32.754z"/>
</g>
</svg>
