<?xml version="1.0" encoding="utf-8"?>
<!-- Generator: Adobe Illustrator 17.0.0, SVG Export Plug-In . SVG Version: 6.00 Build 0)  -->
<!DOCTYPE svg PUBLIC "-//W3C//DTD SVG 1.1//EN" "http://www.w3.org/Graphics/SVG/1.1/DTD/svg11.dtd">
<svg version="1.1" id="Layer_2" xmlns="http://www.w3.org/2000/svg" xmlns:xlink="http://www.w3.org/1999/xlink" x="0px" y="0px"
	 width="48px" height="48px" viewBox="0 0 48 48" enable-background="new 0 0 48 48" xml:space="preserve">
<g>
	<path fill="#010101" d="M31.442,31.317l9.854-9.853c0.391-0.391,1.023-0.391,1.414,0l0.661,0.661C43.787,20.794,44,19.412,44,18
		c0-7.72-6.28-14-14-14H14C6.28,4,0,10.28,0,18c0,7.72,6.28,14,14,14v7c0,0.404,0.244,0.769,0.617,0.924
		C14.741,39.975,14.871,40,15,40c0.26,0,0.516-0.102,0.707-0.293L23.414,32H24C26.897,32,29.353,31.742,31.442,31.317z"/>
	<path fill="#010101" d="M47.71,29.292l-5-5c-0.036-0.036-0.082-0.051-0.122-0.081c0.005-0.01,0.008-0.018,0.013-0.028l-0.598-0.598
		l-4,4l6.414,6.414l3.293-3.293c0.188-0.188,0.293-0.442,0.293-0.707C48.003,29.734,47.898,29.48,47.71,29.292z"/>
	<polygon fill="#010101" points="35.424,30.164 35.424,30.164 27,38.587 33.414,45.001 43.003,35.413 36.589,28.999 	"/>
	<path fill="#010101" d="M24.039,46.726c-0.1,0.35-0.002,0.725,0.254,0.982c0.19,0.19,0.445,0.293,0.707,0.293
		c0.092,0,0.184-0.013,0.275-0.039l6.434-1.838l-5.832-5.832L24.039,46.726z"/>
</g>
</svg>
