<?xml version="1.0" encoding="utf-8"?>
<!-- Generator: Adobe Illustrator 17.0.0, SVG Export Plug-In . SVG Version: 6.00 Build 0)  -->
<!DOCTYPE svg PUBLIC "-//W3C//DTD SVG 1.1//EN" "http://www.w3.org/Graphics/SVG/1.1/DTD/svg11.dtd">
<svg version="1.1" id="Layer_2" xmlns="http://www.w3.org/2000/svg" xmlns:xlink="http://www.w3.org/1999/xlink" x="0px" y="0px"
	 width="48px" height="48px" viewBox="0 0 48 48" enable-background="new 0 0 48 48" xml:space="preserve">
<path fill="#010101" d="M24,2C10.767,2,0,10.867,0,21.766c0,5.148,2.355,9.971,6.65,13.663l-4.82,9.621
	c-0.191,0.38-0.12,0.839,0.177,1.145c0.193,0.198,0.453,0.303,0.718,0.303c0.143,0,0.286-0.03,0.421-0.093l12.874-5.991
	c2.557,0.742,5.239,1.117,7.98,1.117c13.233,0,24-8.866,24-19.765C48,10.867,37.233,2,24,2z M24,11c1.104,0,2,0.896,2,2
	c0,1.105-0.896,2-2,2c-1.105,0-2-0.895-2-2C22,11.896,22.895,11,24,11z M29,32h-8c-0.552,0-1-0.448-1-1c0-0.552,0.448-1,1-1h3V20h-3
	c-0.552,0-1-0.448-1-1c0-0.552,0.448-1,1-1h4c0.552,0,1,0.448,1,1v11h3c0.552,0,1,0.448,1,1C30,31.552,29.552,32,29,32z"/>
</svg>
