<?xml version="1.0" encoding="utf-8"?>
<!-- Generator: Adobe Illustrator 17.0.0, SVG Export Plug-In . SVG Version: 6.00 Build 0)  -->
<!DOCTYPE svg PUBLIC "-//W3C//DTD SVG 1.1//EN" "http://www.w3.org/Graphics/SVG/1.1/DTD/svg11.dtd">
<svg version="1.1" id="Layer_2" xmlns="http://www.w3.org/2000/svg" xmlns:xlink="http://www.w3.org/1999/xlink" x="0px" y="0px"
	 width="48px" height="48px" viewBox="0 0 48 48" enable-background="new 0 0 48 48" xml:space="preserve">
<path fill="#010101" d="M45,8H3c-1.654,0-3,1.346-3,3v26c0,1.654,1.346,3,3,3h3v7c0,0.404,0.244,0.769,0.617,0.924
	C6.741,47.975,6.871,48,7,48c0.26,0,0.516-0.102,0.707-0.293L15.414,40H45c1.654,0,3-1.346,3-3V11C48,9.346,46.654,8,45,8z M17,26
	c-1.103,0-2-0.897-2-2s0.897-2,2-2s2,0.897,2,2S18.103,26,17,26z M25,26c-1.103,0-2-0.897-2-2s0.897-2,2-2s2,0.897,2,2
	S26.103,26,25,26z M33,26c-1.103,0-2-0.897-2-2s0.897-2,2-2s2,0.897,2,2S34.103,26,33,26z"/>
</svg>
