<?xml version="1.0" encoding="utf-8"?>
<!-- Generator: Adobe Illustrator 17.0.0, SVG Export Plug-In . SVG Version: 6.00 Build 0)  -->
<!DOCTYPE svg PUBLIC "-//W3C//DTD SVG 1.1//EN" "http://www.w3.org/Graphics/SVG/1.1/DTD/svg11.dtd">
<svg version="1.1" id="Layer_2" xmlns="http://www.w3.org/2000/svg" xmlns:xlink="http://www.w3.org/1999/xlink" x="0px" y="0px"
	 width="48px" height="48px" viewBox="0 0 48 48" enable-background="new 0 0 48 48" xml:space="preserve">
<path fill="#010101" d="M24,3.502c-13.233,0-24,8.867-24,19.766c0,5.147,2.355,9.971,6.65,13.663l-4.82,9.621
	c-0.191,0.38-0.12,0.839,0.177,1.145C2.2,47.895,2.46,48,2.725,48c0.143,0,0.286-0.03,0.421-0.093l12.874-5.992
	c2.557,0.742,5.239,1.117,7.98,1.117c13.233,0,24-8.866,24-19.765C48,12.369,37.233,3.502,24,3.502z M25,34.502
	c-1.105,0-2-0.895-2-2c0-1.104,0.895-2,2-2c1.104,0,2,0.896,2,2C27,33.607,26.104,34.502,25,34.502z M26,26.431V28
	c0,0.552-0.448,1-1,1c-0.552,0-1-0.448-1-1v-2.498c0-0.552,0.448-1,1-1c2.757,0,5-2.215,5-4.938c0-2.723-2.243-4.937-5-4.937
	c-2.71,0-5,2.347-5,5.124c0,0.552-0.448,1-1,1c-0.552,0-1-0.448-1-1c0-3.929,3.14-7.124,7-7.124c3.86,0,7,3.112,7,6.937
	C32,23.053,29.388,25.949,26,26.431z"/>
</svg>
