<?xml version="1.0" encoding="utf-8"?>
<!-- Generator: Adobe Illustrator 17.0.0, SVG Export Plug-In . SVG Version: 6.00 Build 0)  -->
<!DOCTYPE svg PUBLIC "-//W3C//DTD SVG 1.1//EN" "http://www.w3.org/Graphics/SVG/1.1/DTD/svg11.dtd">
<svg version="1.1" id="Layer_2" xmlns="http://www.w3.org/2000/svg" xmlns:xlink="http://www.w3.org/1999/xlink" x="0px" y="0px"
	 width="48px" height="48px" viewBox="0 0 48 48" enable-background="new 0 0 48 48" xml:space="preserve">
<g>
	<path fill="#010101" d="M34.047,0c-6.857,0-12.662,4.546-13.802,10.809c-0.114,0.625-0.182,1.224-0.217,1.8
		c0.705,0.341,1.369,0.769,1.989,1.265c2.264,1.809,3.905,4.57,4.466,7.778c0.138,0.792,0.213,1.609,0.214,2.446
		c1.125,0.625,1.942,0.898,1.955,0.902c0.774,0.301,1.578,0.536,2.398,0.702c-0.004,1.623-0.004,4.476-0.004,5.298v2.414
		l1.707-1.707c3.628-3.628,6.033-6.008,6.836-6.766c5.144-2.059,8.457-6.726,8.457-11.941C48.047,5.832,41.767,0,34.047,0z
		 M30.214,15h-2.167v-2.166h2.167V15z M35.63,15h-2.167v-2.166h2.167V15z M38.88,12.834h2.167V15H38.88V12.834z"/>
	<path fill="#010101" d="M16.124,19.806l0.847-1.623l0.908,1.589c1.311,2.294,2.625,2.99,4.839,2.561
		c0.23-0.044,1.238-0.196,1.805-0.277c-0.811-4.797-4.412-8.425-8.721-8.425c-4.115,0-7.576,3.312-8.587,7.786
		c1.176,0.413,3.097,0.897,3.85,0.897C13.028,22.315,15.439,21.12,16.124,19.806z"/>
	<path fill="#010101" d="M28.22,38.62L21,36.033v-0.968v-2.478c2.235-1.905,3.697-4.993,3.697-8.483
		c0-0.018-0.002-0.035-0.002-0.052c-0.555,0.081-1.432,0.213-1.6,0.246c-0.534,0.103-1.04,0.155-1.52,0.155
		c-1.878,0-3.37-0.797-4.638-2.474c-1.414,1.363-3.742,2.336-5.871,2.336c-0.917,0-2.747-0.431-4.129-0.883
		c-0.012,0.223-0.029,0.445-0.029,0.672c0,3.692,1.634,6.936,4.092,8.803v2.377v0.749L3.78,38.62C1.519,39.428,0,41.599,0,44.023V48
		h32v-3.977C32,41.599,30.48,39.428,28.22,38.62z"/>
</g>
</svg>
