<?xml version="1.0" encoding="utf-8"?>
<!-- Generator: Adobe Illustrator 17.0.0, SVG Export Plug-In . SVG Version: 6.00 Build 0)  -->
<!DOCTYPE svg PUBLIC "-//W3C//DTD SVG 1.1//EN" "http://www.w3.org/Graphics/SVG/1.1/DTD/svg11.dtd">
<svg version="1.1" id="Layer_2" xmlns="http://www.w3.org/2000/svg" xmlns:xlink="http://www.w3.org/1999/xlink" x="0px" y="0px"
	 width="48px" height="48px" viewBox="0 0 48 48" enable-background="new 0 0 48 48" xml:space="preserve">
<g>
	<path fill="#010101" d="M16,0v11.643c4.663,0.096,8.612,3.561,10.079,8.357H31v9.485L40.107,20H48V0H16z M27.167,10.167H25V8h2.167
		V10.167z M34.083,10.167h-2.167V8h2.167V10.167z M41,10.167h-2.167V8H41V10.167z"/>
	<path fill="#010101" d="M28.22,38.62L21,36.033v-0.968v-2.478c2.235-1.905,3.697-4.993,3.697-8.483
		c0-0.018-0.002-0.035-0.002-0.052c-0.555,0.081-1.432,0.213-1.6,0.246c-0.534,0.103-1.039,0.155-1.52,0.155
		c-1.878,0-3.37-0.797-4.638-2.474c-1.414,1.363-3.742,2.336-5.871,2.336c-0.917,0-2.747-0.431-4.129-0.883
		c-0.012,0.223-0.029,0.445-0.029,0.672c0,3.692,1.634,6.936,4.092,8.803v2.377v0.749L3.78,38.62C1.519,39.428,0,41.599,0,44.023V48
		h32v-3.977C32,41.599,30.48,39.428,28.22,38.62z"/>
	<path fill="#010101" d="M16.124,19.806l0.846-1.624l0.909,1.59c1.312,2.294,2.627,2.99,4.839,2.561
		c0.23-0.044,1.238-0.196,1.805-0.277c-0.811-4.797-4.412-8.425-8.721-8.425c-4.115,0-7.576,3.312-8.587,7.786
		c1.176,0.413,3.097,0.897,3.85,0.897C13.029,22.315,15.44,21.12,16.124,19.806z"/>
</g>
</svg>
