<?xml version="1.0" encoding="utf-8"?>
<!-- Generator: Adobe Illustrator 17.0.0, SVG Export Plug-In . SVG Version: 6.00 Build 0)  -->
<!DOCTYPE svg PUBLIC "-//W3C//DTD SVG 1.1//EN" "http://www.w3.org/Graphics/SVG/1.1/DTD/svg11.dtd">
<svg version="1.1" id="Layer_2" xmlns="http://www.w3.org/2000/svg" xmlns:xlink="http://www.w3.org/1999/xlink" x="0px" y="0px"
	 width="48px" height="48px" viewBox="0 0 48 48" enable-background="new 0 0 48 48" xml:space="preserve">
<g>
	<path fill="#010101" d="M34,0c-6.857,0-12.662,4.546-13.802,10.809c-0.096,0.525-0.154,1.027-0.193,1.518
		c0.703,0.16,1.359,0.376,1.963,0.644c2.04,0.907,3.468,2.403,3.942,4.301c0.311,1.244,0.281,2.572-0.05,3.955
		c-0.067,0.282-0.129,0.562-0.223,0.848c0.301,0.526,0.495,1.13,0.588,1.778c1.339,0.799,2.364,1.142,2.379,1.146
		c0.774,0.301,1.578,0.536,2.398,0.702C31,27.325,31,30.177,31,31v2.414l1.707-1.707c3.628-3.628,6.033-6.008,6.836-6.766
		C44.687,22.883,48,18.216,48,13C48,5.832,41.72,0,34,0z M30.167,15H28v-2.166h2.167V15z M35.583,15h-2.167v-2.166h2.167V15z
		 M38.833,12.834H41V15h-2.167V12.834z"/>
	<path fill="#010101" d="M31.901,41.594c-0.859-1.956-7.399-4.842-10.901-6.269v-0.002v-2.728V32.56
		c0.37-0.285,0.827-0.76,1.21-1.531c0.001-0.002,0.003-0.005,0.004-0.008c0.28-0.566,0.519-1.295,0.657-2.22
		c0.011-0.078,0.019-0.163,0.03-0.243c0.034-0.272,0.066-0.551,0.081-0.857c0.085-0.057,0.164-0.125,0.242-0.195l0.035-0.034
		c0.317-0.304,0.574-0.72,0.752-1.195c0.002-0.005,0.004-0.011,0.006-0.017c0.085-0.231,0.152-0.475,0.198-0.728
		c0.003-0.02,0.005-0.04,0.009-0.059c0.042-0.25,0.068-0.508,0.068-0.768c0-0.667-0.152-1.261-0.44-1.72
		c-0.138-0.218-0.303-0.403-0.491-0.552c0.073-0.17,0.151-0.366,0.228-0.573c0.001,0.001,0.002,0.002,0.003,0.002l0.002-0.005
		c0.01-0.025,0.014-0.048,0.023-0.074c0.115-0.312,0.209-0.618,0.285-0.917c0.02-0.079,0.038-0.157,0.055-0.236
		c0.065-0.29,0.116-0.575,0.144-0.854c0.008-0.075,0.007-0.154,0.012-0.231c0.04-0.618-0.001-1.213-0.144-1.789
		c-0.283-1.132-1.101-2.064-2.299-2.717c-0.032-0.017-0.065-0.032-0.097-0.049c-0.252-0.132-0.522-0.251-0.806-0.358
		c-0.113-0.042-0.229-0.079-0.344-0.116c-0.201-0.066-0.409-0.126-0.623-0.18c-0.17-0.043-0.342-0.081-0.515-0.115
		c-0.254-0.049-0.512-0.094-0.781-0.126c-0.108-0.014-0.215-0.025-0.322-0.036C17.8,14.025,17.408,14,17,14
		c-0.33,0-0.652,0.016-0.968,0.04c-0.95,0.077-1.933,0.269-2.826,0.605c-0.012,0.005-0.027,0.008-0.039,0.013
		c-0.172,0.065-0.33,0.148-0.494,0.225c-0.338,0.161-0.657,0.336-0.941,0.537c-0.018,0.013-0.038,0.024-0.056,0.036
		c-0.173,0.126-0.327,0.262-0.477,0.402c-0.05,0.046-0.101,0.091-0.148,0.139c-0.124,0.126-0.235,0.26-0.34,0.397
		c-0.127,0.167-0.257,0.33-0.356,0.517c-0.194-0.008-0.368,0.002-0.533,0.021c-0.177,0.019-0.336,0.052-0.481,0.095
		c-0.038,0.011-0.08,0.02-0.117,0.033c-0.145,0.051-0.271,0.113-0.385,0.181c-0.034,0.02-0.068,0.04-0.1,0.061
		c-0.107,0.072-0.203,0.149-0.283,0.228c-0.018,0.018-0.033,0.035-0.05,0.053c-0.08,0.086-0.152,0.173-0.206,0.255
		c-0.004,0.006-0.006,0.014-0.01,0.021c-0.093,0.144-0.164,0.297-0.219,0.456c-0.017,0.049-0.025,0.102-0.038,0.152
		c-0.033,0.123-0.062,0.248-0.076,0.378c-0.006,0.054-0.008,0.109-0.011,0.165c-0.008,0.134-0.01,0.269-0.002,0.407
		c0.003,0.05,0.007,0.101,0.012,0.152c0.014,0.149,0.035,0.3,0.063,0.452c0.008,0.041,0.014,0.082,0.023,0.122
		c0.036,0.171,0.078,0.343,0.127,0.514c0.006,0.021,0.011,0.043,0.017,0.064c0.176,0.602,0.417,1.188,0.63,1.691
		c-0.206,0.153-0.386,0.346-0.535,0.577c0,0-0.001,0.001-0.001,0.002c-0.134,0.208-0.234,0.446-0.31,0.703
		c-0.009,0.032-0.023,0.06-0.031,0.092c-0.009,0.036-0.013,0.075-0.021,0.112c-0.06,0.264-0.095,0.544-0.095,0.842
		c0,0.256,0.025,0.51,0.067,0.758c0.003,0.019,0.005,0.04,0.009,0.059c0.046,0.249,0.111,0.49,0.195,0.718
		c0.002,0.006,0.005,0.013,0.007,0.019c0.177,0.469,0.43,0.88,0.743,1.18l0.035,0.033c0.078,0.07,0.157,0.139,0.243,0.195
		c0.015,0.304,0.047,0.581,0.08,0.852c0.01,0.084,0.019,0.171,0.031,0.252c0.138,0.921,0.375,1.647,0.655,2.212
		c0.003,0.007,0.007,0.013,0.01,0.02c0.383,0.766,0.838,1.24,1.207,1.524v0.037v2.727v0.002c-3.502,1.427-10.043,4.313-10.901,6.269
		c-0.004,0.01-0.013,0.021-0.017,0.03C0.028,41.754,0,41.879,0,42v6h32v-6c0-0.121-0.028-0.246-0.082-0.375
		C31.914,41.615,31.906,41.605,31.901,41.594z"/>
</g>
</svg>
