<?xml version="1.0" encoding="utf-8"?>
<!-- Generator: Adobe Illustrator 17.0.0, SVG Export Plug-In . SVG Version: 6.00 Build 0)  -->
<!DOCTYPE svg PUBLIC "-//W3C//DTD SVG 1.1//EN" "http://www.w3.org/Graphics/SVG/1.1/DTD/svg11.dtd">
<svg version="1.1" id="Layer_2" xmlns="http://www.w3.org/2000/svg" xmlns:xlink="http://www.w3.org/1999/xlink" x="0px" y="0px"
	 width="48px" height="48px" viewBox="0 0 48 48" enable-background="new 0 0 48 48" xml:space="preserve">
<path fill="#010101" d="M24,0C10.767,0,0,10.767,0,24c0,13.233,10.767,24,24,24c13.233,0,24-10.767,24-24C48,10.767,37.233,0,24,0z
	 M33,15c2.757,0,5,2.243,5,5c0,0.552-0.448,1-1,1c-0.552,0-1-0.448-1-1c0-1.654-1.346-3-3-3c-1.654,0-3,1.346-3,3
	c0,0.552-0.448,1-1,1c-0.552,0-1-0.448-1-1C28,17.243,30.243,15,33,15z M15,15c2.757,0,5,2.243,5,5c0,0.552-0.448,1-1,1
	c-0.552,0-1-0.448-1-1c0-1.654-1.346-3-3-3c-1.654,0-3,1.346-3,3c0,0.552-0.448,1-1,1c-0.552,0-1-0.448-1-1
	C10,17.243,12.243,15,15,15z M24,42c-8.822,0-16-7.178-16-16c0-0.552,0.448-1,1-1c0.552,0,1,0.448,1,1c0,7.72,6.28,14,14,14
	c7.72,0,14-6.28,14-14c0-0.552,0.448-1,1-1c0.552,0,1,0.448,1,1C40,34.822,32.822,42,24,42z"/>
</svg>
