<?xml version="1.0" encoding="utf-8"?>
<!-- Generator: Adobe Illustrator 17.0.0, SVG Export Plug-In . SVG Version: 6.00 Build 0)  -->
<!DOCTYPE svg PUBLIC "-//W3C//DTD SVG 1.1//EN" "http://www.w3.org/Graphics/SVG/1.1/DTD/svg11.dtd">
<svg version="1.1" id="Layer_2" xmlns="http://www.w3.org/2000/svg" xmlns:xlink="http://www.w3.org/1999/xlink" x="0px" y="0px"
	 width="48px" height="48px" viewBox="0 0 48 48" enable-background="new 0 0 48 48" xml:space="preserve">
<g>
	<path fill="#010101" d="M24,40c7.383,0,13.45-5.746,13.965-13h-27.93C10.55,34.254,16.617,40,24,40z"/>
	<circle fill="#010101" cx="15" cy="15" r="2"/>
	<circle fill="#010101" cx="33" cy="15" r="2"/>
	<path fill="#010101" d="M24,0C10.767,0,0,10.767,0,24c0,13.233,10.767,24,24,24s24-10.767,24-24C48,10.767,37.233,0,24,0z M33,11
		c2.206,0,4,1.794,4,4c0,2.206-1.794,4-4,4s-4-1.794-4-4C29,12.794,30.794,11,33,11z M15,11c2.206,0,4,1.794,4,4
		c0,2.206-1.794,4-4,4s-4-1.794-4-4C11,12.794,12.794,11,15,11z M24,42c-8.822,0-16-7.178-16-16c0-0.552,0.448-1,1-1h30
		c0.552,0,1,0.448,1,1C40,34.822,32.822,42,24,42z"/>
</g>
</svg>
