<?xml version="1.0" encoding="utf-8"?>
<!-- Generator: Adobe Illustrator 17.0.0, SVG Export Plug-In . SVG Version: 6.00 Build 0)  -->
<!DOCTYPE svg PUBLIC "-//W3C//DTD SVG 1.1//EN" "http://www.w3.org/Graphics/SVG/1.1/DTD/svg11.dtd">
<svg version="1.1" id="Layer_2" xmlns="http://www.w3.org/2000/svg" xmlns:xlink="http://www.w3.org/1999/xlink" x="0px" y="0px"
	 width="48px" height="48px" viewBox="0 0 48 48" enable-background="new 0 0 48 48" xml:space="preserve">
<g>
	<path fill="#010101" d="M24,29c-2.757,0-5,2.243-5,5c0,2.757,2.243,5,5,5c2.757,0,5-2.243,5-5C29,31.243,26.757,29,24,29z"/>
	<circle fill="#010101" cx="32.5" cy="15" r="2"/>
	<circle fill="#010101" cx="14.5" cy="15" r="2"/>
	<path fill="#010101" d="M24,0C10.767,0,0,10.767,0,24c0,13.233,10.767,24,24,24c13.233,0,24-10.767,24-24C48,10.767,37.233,0,24,0z
		 M10.5,15c0-2.206,1.794-4,4-4c2.206,0,4,1.794,4,4c0,2.206-1.794,4-4,4C12.294,19,10.5,17.206,10.5,15z M24,41c-3.86,0-7-3.14-7-7
		c0-3.86,3.14-7,7-7c3.86,0,7,3.14,7,7C31,37.86,27.86,41,24,41z M32.5,19c-2.206,0-4-1.794-4-4c0-2.206,1.794-4,4-4
		c2.206,0,4,1.794,4,4C36.5,17.206,34.706,19,32.5,19z"/>
</g>
</svg>
