<?xml version="1.0" encoding="utf-8"?>
<!-- Generator: Adobe Illustrator 17.0.0, SVG Export Plug-In . SVG Version: 6.00 Build 0)  -->
<!DOCTYPE svg PUBLIC "-//W3C//DTD SVG 1.1//EN" "http://www.w3.org/Graphics/SVG/1.1/DTD/svg11.dtd">
<svg version="1.1" id="Layer_2" xmlns="http://www.w3.org/2000/svg" xmlns:xlink="http://www.w3.org/1999/xlink" x="0px" y="0px"
	 width="48px" height="48px" viewBox="0 0 48 48" enable-background="new 0 0 48 48" xml:space="preserve">
<g>
	<circle fill="#010101" cx="15" cy="20" r="2"/>
	<path fill="#010101" d="M24,0C10.767,0,0,10.767,0,24c0,13.233,10.767,24,24,24s24-10.767,24-24C48,10.767,37.233,0,24,0z
		 M33,17.344c3.038,0,5,1.043,5,2.656c0,0.552-0.448,1-1,1c-0.541,0-0.982-0.43-1-0.967c-0.158-0.216-1.185-0.69-3-0.69
		c-1.863,0-2.895,0.498-3.011,0.706c0,0.553-0.442,0.976-0.994,0.976C28.442,21.025,28,20.552,28,20
		C28,18.386,29.962,17.344,33,17.344z M15,16c2.206,0,4,1.794,4,4c0,2.206-1.794,4-4,4c-2.206,0-4-1.794-4-4
		C11,17.794,12.794,16,15,16z M24,42c-8.822,0-16-7.178-16-16c0-0.552,0.448-1,1-1c0.552,0,1,0.448,1,1c0,7.72,6.28,14,14,14
		c7.72,0,14-6.28,14-14c0-0.552,0.448-1,1-1c0.552,0,1,0.448,1,1C40,34.822,32.822,42,24,42z"/>
</g>
</svg>
