<?xml version="1.0" encoding="utf-8"?>
<!-- Generator: Adobe Illustrator 17.0.0, SVG Export Plug-In . SVG Version: 6.00 Build 0)  -->
<!DOCTYPE svg PUBLIC "-//W3C//DTD SVG 1.1//EN" "http://www.w3.org/Graphics/SVG/1.1/DTD/svg11.dtd">
<svg version="1.1" id="Layer_2" xmlns="http://www.w3.org/2000/svg" xmlns:xlink="http://www.w3.org/1999/xlink" x="0px" y="0px"
	 width="48px" height="48px" viewBox="0 0 48 48" enable-background="new 0 0 48 48" xml:space="preserve">
<g>
	<path fill="#010101" d="M36.787,0c-2.715,0-4.96,0.895-7.009,2.805c-1.2-0.498-2.456-0.75-3.745-0.75
		c-4.581,0-8.689,3.211-9.77,7.636c-0.022,0.091-0.23,1.01-0.206,2.348C16.367,12.019,16.678,12,17,12
		c4.612,0,8.109,2.069,8.911,5.273c0.374,1.497,0.282,3.111-0.273,4.803c0.01,0.018,0.017,0.038,0.027,0.055
		c0.3-0.006,0.574-0.021,0.797-0.044C27.649,23.9,29.705,25,31.987,25c2.03,0,4.06-1.116,5.516-3.009
		c3.209-0.109,5.892-1.24,7.78-3.289C47.035,16.803,48,14.21,48,11.403C48,5.876,44.07,0,36.787,0z M26.987,14c-1.104,0-2-0.895-2-2
		c0-1.104,0.896-2,2-2c1.104,0,2,0.896,2,2C28.987,13.105,28.092,14,26.987,14z M32.987,14c-1.104,0-2-0.895-2-2
		c0-1.104,0.896-2,2-2c1.104,0,2,0.896,2,2C34.987,13.105,34.092,14,32.987,14z M38.987,14c-1.104,0-2-0.895-2-2
		c0-1.104,0.896-2,2-2c1.104,0,2,0.896,2,2C40.987,13.105,40.092,14,38.987,14z"/>
	<circle fill="#010101" cx="26.987" cy="33" r="2"/>
	<path fill="#010101" d="M34.5,27c-1.93,0-3.5,1.57-3.5,3.5c0,1.93,1.57,3.5,3.5,3.5s3.5-1.57,3.5-3.5C38,28.57,36.43,27,34.5,27z"
		/>
	<path fill="#010101" d="M31.901,41.594c-0.859-1.956-7.399-4.842-10.901-6.269v-0.002v-2.728V32.56
		c0.37-0.285,0.827-0.76,1.211-1.531c0.001-0.002,0.003-0.005,0.004-0.008c0.28-0.566,0.519-1.295,0.657-2.22
		c0.012-0.078,0.019-0.163,0.03-0.243c0.034-0.272,0.066-0.551,0.081-0.857c0.085-0.057,0.164-0.125,0.242-0.195l0.035-0.034
		c0.317-0.304,0.574-0.72,0.752-1.195c0.002-0.005,0.004-0.011,0.006-0.017c0.085-0.231,0.152-0.475,0.198-0.728
		c0.004-0.02,0.005-0.04,0.009-0.059c0.042-0.25,0.068-0.508,0.068-0.768c0-0.667-0.152-1.261-0.44-1.72
		c-0.138-0.218-0.303-0.403-0.491-0.552c0.063-0.147,0.13-0.312,0.197-0.488c0.001,0,0.002,0,0.003,0l0.033-0.088
		c0.566-1.503,0.689-2.844,0.375-4.101C23.399,15.475,20.663,14,17,14c-0.33,0-0.652,0.016-0.968,0.04
		c-0.95,0.077-1.933,0.269-2.826,0.605c-0.012,0.005-0.027,0.008-0.039,0.013c-0.172,0.065-0.33,0.148-0.494,0.225
		c-0.338,0.161-0.657,0.336-0.941,0.537c-0.018,0.013-0.038,0.024-0.056,0.036c-0.173,0.126-0.327,0.262-0.477,0.402
		c-0.05,0.046-0.101,0.091-0.148,0.139c-0.124,0.126-0.235,0.26-0.34,0.397c-0.127,0.167-0.257,0.33-0.356,0.517
		c-0.195-0.008-0.37,0.002-0.535,0.021c-0.174,0.019-0.331,0.052-0.475,0.094c-0.04,0.012-0.084,0.021-0.122,0.035
		c-0.142,0.05-0.267,0.111-0.379,0.178c-0.037,0.021-0.073,0.043-0.107,0.066c-0.105,0.071-0.199,0.146-0.278,0.224
		c-0.019,0.019-0.036,0.038-0.054,0.057c-0.079,0.085-0.15,0.171-0.204,0.252c-0.004,0.006-0.006,0.014-0.01,0.021
		c-0.093,0.144-0.165,0.297-0.219,0.456c-0.017,0.049-0.025,0.102-0.038,0.152c-0.033,0.123-0.062,0.248-0.076,0.378
		c-0.006,0.054-0.008,0.109-0.011,0.165c-0.007,0.134-0.01,0.269-0.002,0.407c0.003,0.05,0.007,0.101,0.012,0.152
		c0.014,0.149,0.035,0.3,0.063,0.452c0.008,0.041,0.014,0.082,0.023,0.122c0.036,0.171,0.078,0.343,0.127,0.514
		c0.006,0.021,0.011,0.043,0.017,0.064c0.176,0.602,0.417,1.188,0.63,1.691c-0.206,0.153-0.386,0.346-0.535,0.577
		c0,0-0.001,0.001-0.001,0.002c-0.133,0.208-0.234,0.446-0.31,0.703c-0.009,0.032-0.023,0.06-0.031,0.092
		c-0.009,0.036-0.013,0.075-0.021,0.112c-0.06,0.264-0.095,0.544-0.095,0.842c0,0.256,0.025,0.51,0.067,0.758
		c0.003,0.019,0.005,0.04,0.009,0.059c0.046,0.249,0.111,0.49,0.195,0.718c0.002,0.006,0.005,0.013,0.007,0.019
		c0.177,0.469,0.43,0.88,0.743,1.18l0.035,0.033c0.078,0.07,0.157,0.139,0.243,0.195c0.015,0.304,0.047,0.581,0.081,0.852
		c0.01,0.084,0.019,0.171,0.031,0.252c0.138,0.921,0.376,1.647,0.655,2.212c0.003,0.007,0.007,0.013,0.01,0.02
		c0.383,0.766,0.838,1.24,1.207,1.524v0.037v2.727v0.002c-3.502,1.427-10.043,4.313-10.901,6.269
		c-0.004,0.01-0.013,0.021-0.017,0.03C0.028,41.754,0,41.879,0,42v6h32v-6c0-0.121-0.028-0.246-0.082-0.375
		C31.914,41.615,31.906,41.605,31.901,41.594z"/>
</g>
</svg>
