<?xml version="1.0" encoding="utf-8"?>
<!-- Generator: Adobe Illustrator 17.0.0, SVG Export Plug-In . SVG Version: 6.00 Build 0)  -->
<!DOCTYPE svg PUBLIC "-//W3C//DTD SVG 1.1//EN" "http://www.w3.org/Graphics/SVG/1.1/DTD/svg11.dtd">
<svg version="1.1" id="Layer_2" xmlns="http://www.w3.org/2000/svg" xmlns:xlink="http://www.w3.org/1999/xlink" x="0px" y="0px"
	 width="48px" height="48px" viewBox="0 0 48 48" enable-background="new 0 0 48 48" xml:space="preserve">
<g>
	<path fill="#010101" d="M36.732,0c-2.715,0-4.959,0.895-7.009,2.805c-1.2-0.498-2.456-0.75-3.745-0.75
		c-4.581,0-8.689,3.211-9.77,7.636c-0.02,0.082-0.19,0.833-0.208,1.953c5.383,0.111,9.814,4.71,10.57,10.663
		C27.778,23.984,29.747,25,31.933,25c2.03,0,4.06-1.116,5.516-3.009c3.209-0.109,5.892-1.24,7.78-3.289
		c1.752-1.9,2.717-4.492,2.717-7.299C47.945,5.876,44.016,0,36.732,0z M26.987,14c-1.104,0-2-0.895-2-2c0-1.104,0.896-2,2-2
		c1.104,0,2,0.896,2,2C28.987,13.105,28.092,14,26.987,14z M32.987,14c-1.104,0-2-0.895-2-2c0-1.104,0.896-2,2-2
		c1.104,0,2,0.896,2,2C34.987,13.105,34.092,14,32.987,14z M38.987,14c-1.104,0-2-0.895-2-2c0-1.104,0.896-2,2-2
		c1.105,0,2,0.896,2,2C40.987,13.105,40.092,14,38.987,14z"/>
	<path fill="#010101" d="M16.124,19.806l0.847-1.623l0.908,1.589c1.312,2.294,2.625,2.99,4.839,2.561
		c0.23-0.044,1.238-0.196,1.805-0.277c-0.811-4.797-4.412-8.425-8.721-8.425c-4.115,0-7.576,3.312-8.587,7.786
		c1.176,0.413,3.097,0.897,3.85,0.897C13.028,22.315,15.439,21.12,16.124,19.806z"/>
	<path fill="#010101" d="M28.22,38.62L21,36.033v-0.968v-2.478c2.235-1.905,3.697-4.993,3.697-8.483
		c0-0.018-0.002-0.035-0.002-0.052c-0.555,0.081-1.432,0.213-1.6,0.246c-0.534,0.103-1.04,0.155-1.52,0.155
		c-1.878,0-3.37-0.797-4.638-2.474c-1.414,1.363-3.742,2.336-5.871,2.336c-0.917,0-2.747-0.431-4.129-0.883
		c-0.012,0.223-0.029,0.445-0.029,0.672c0,3.692,1.634,6.936,4.092,8.803v2.377v0.749L3.78,38.62C1.519,39.428,0,41.599,0,44.023V48
		h32v-3.977C32,41.599,30.48,39.428,28.22,38.62z"/>
	<circle fill="#010101" cx="26.987" cy="33" r="2"/>
	<path fill="#010101" d="M34.5,27c-1.93,0-3.5,1.57-3.5,3.5c0,1.93,1.57,3.5,3.5,3.5c1.93,0,3.5-1.57,3.5-3.5
		C38,28.57,36.43,27,34.5,27z M34.5,32c-0.827,0-1.5-0.673-1.5-1.5c0-0.827,0.673-1.5,1.5-1.5c0.827,0,1.5,0.673,1.5,1.5
		C36,31.327,35.327,32,34.5,32z"/>
</g>
</svg>
