
<svg width="24px" height="24px" viewBox="0 0 24 24" version="1.1" xmlns="http://www.w3.org/2000/svg" xmlns:xlink="http://www.w3.org/1999/xlink">
    <!-- Generator: Sketch 41 (35326) - http://www.bohemiancoding.com/sketch -->
    <desc>Created with Sketch.</desc>
    <defs></defs>
    <g id="Woorank-Icon" stroke="none" stroke-width="1" fill-rule="evenodd">
        <g>
            <path d="M1.5,1 C1.5,0.723857625 1.27614237,0.5 1,0.5 C0.723857625,0.5 0.5,0.723857625 0.5,1 L0.5,18.5 L14,18.5 C14.2761424,18.5 14.5,18.2761424 14.5,18 C14.5,17.7238576 14.2761424,17.5 14,17.5 L1.5,17.5 L1.5,1 Z" id="Shape"></path>
            <path d="M12.6464466,22.6464466 C12.4511845,22.8417088 12.4511845,23.1582912 12.6464466,23.3535534 C12.8417088,23.5488155 13.1582912,23.5488155 13.3535534,23.3535534 L18.7071068,18 L13.3535534,12.6464466 C13.1582912,12.4511845 12.8417088,12.4511845 12.6464466,12.6464466 C12.4511845,12.8417088 12.4511845,13.1582912 12.6464466,13.3535534 L17.2928932,18 L12.6464466,22.6464466 Z" id="Shape"></path>
            <path d="M23.3535534,13.3535534 C23.5488155,13.1582912 23.5488155,12.8417088 23.3535534,12.6464466 C23.1582912,12.4511845 22.8417088,12.4511845 22.6464466,12.6464466 L17.2928932,18 L22.6464466,23.3535534 C22.8417088,23.5488155 23.1582912,23.5488155 23.3535534,23.3535534 C23.5488155,23.1582912 23.5488155,22.8417088 23.3535534,22.6464466 L18.7071068,18 L23.3535534,13.3535534 Z" id="Shape"></path>
        </g>
    </g>
</svg>
