<svg xmlns="http://www.w3.org/2000/svg" width="24" height="24" viewBox="0 0 24 24"><g ><path fill-rule="evenodd" d="M13 23L19 23C19.553 23 20 22.553 20 22L20 16C20 15.734 19.895 15.48 19.707 15.293L17.707 13.293C17.52 13.105 17.266 13 17 13L13 13C12.447 13 12 13.447 12 14L12 17 12 19 12 22C12 22.553 12.447 23 13 23zM14 15L16.586 15 18 16.414 18 21 14 21 14 15zM13 11L19 11C19.553 11 20 10.553 20 10L20 4C20 3.734 19.895 3.48 19.707 3.293L17.707 1.293C17.52 1.105 17.266 1 17 1L13 1C12.447 1 12 1.447 12 2L12 5 12 7 12 10C12 10.553 12.447 11 13 11zM14 3L16.586 3 18 4.414 18 9 14 9 14 3zM5.70711341 10.2928946C6.0976382 10.6834194 6.0976382 11.3165866 5.70711341 11.7071074 5.31658863 12.0976322 4.68342137 12.0976322 4.29290059 11.7071074 3.9023758 11.3165826 3.9023758 10.6834154 4.29290059 10.2928946 4.68342537 9.9023698 5.31659263 9.9023698 5.70711341 10.2928946M5.70711341 14.2929246C6.0976382 14.6834494 6.0976382 15.3166166 5.70711341 15.7071374 5.31658863 16.0976622 4.68342137 16.0976622 4.29290059 15.7071374 3.9023758 15.3166126 3.9023758 14.6834454 4.29290059 14.2929246 4.68342537 13.9023998 5.31659263 13.9023998 5.70711341 14.2929246M5.70711341 18.2929246C6.0976382 18.6834494 6.0976382 19.3166166 5.70711341 19.7071374 5.31658863 20.0976622 4.68342137 20.0976622 4.29290059 19.7071374 3.9023758 19.3166126 3.9023758 18.6834454 4.29290059 18.2929246 4.68342537 17.9023998 5.31659263 17.9023998 5.70711341 18.2929246M9.70711341 18.2929246C10.0976382 18.6834494 10.0976382 19.3166166 9.70711341 19.7071374 9.31658863 20.0976622 8.68342137 20.0976622 8.29290059 19.7071374 7.9023758 19.3166126 7.9023758 18.6834454 8.29290059 18.2929246 8.68342537 17.9023998 9.31659263 17.9023998 9.70711341 18.2929246"/><path d="M4,0 L6,0 L6,6 L10,6 L10,8 L6,8 C4.8954305,8 4,7.1045695 4,6 L4,0 Z"/></g></svg>