<?xml version="1.0" encoding="utf-8"?>
<svg version="1.1" xmlns="http://www.w3.org/2000/svg" xmlns:xlink="http://www.w3.org/1999/xlink" viewBox="0 0 24 24" xml:space="preserve">
	<g>
		<circle fill="none" stroke-linecap="round" stroke-linejoin="round" stroke-miterlimit="10" cx="12" cy="12" r="11.5"/>
		<path fill="none" stroke-linecap="round" stroke-linejoin="round" stroke-miterlimit="10" d="M20.5,4.255
			C20.5,4.255,20,7,18,8c-2-0.5-4,1-3.5,1s1,2,1,2c0.5,0.5,1.5,0,1.5,0c1.25,1.25-2,3.5-2,4s1.25,0.75,0.5,1.5s-1.5,1-1.5,1
			c0,2.5-2.5,2.5-3,2.5s-1.5-2-1.5-2.5s0.5-1,0.5-1.5s-1-1.5-1-1.5c0-2-1.5-1.5-3-1.5s-1.5-2-1.5-2s0-3.5,2.5-4s2.5,0.5,2.5,0.5
			c1,1,3,0,4,0c0,0,0.5-3.5-0.5-3s-1.896,0.114-2-1C10.854,1.938,15.363,1,15.363,1"/>
	</g>
</svg>
