<?xml version="1.0" encoding="utf-8"?>
<!-- Generator: Adobe Illustrator 16.0.3, SVG Export Plug-In . SVG Version: 6.00 Build 0)  -->
<!DOCTYPE svg PUBLIC "-//W3C//DTD SVG 1.1//EN" "http://www.w3.org/Graphics/SVG/1.1/DTD/svg11.dtd">
<svg version="1.1" xmlns="http://www.w3.org/2000/svg" xmlns:xlink="http://www.w3.org/1999/xlink" x="0px" y="0px" width="24px"
	 height="24px" viewBox="0 0 24 24" enable-background="new 0 0 24 24" xml:space="preserve">
<g id="Outline_Icons">
	<path d="M20.929,4.011c-0.04-0.069-0.091-0.131-0.159-0.175c-1.425-1.529-3.236-2.692-5.286-3.316
		c-0.013-0.002-0.025-0.007-0.039-0.01C14.353,0.182,13.198,0,12,0C5.383,0,0,5.383,0,12c0,6.617,5.383,12,12,12s12-5.383,12-12
		C24,8.931,22.832,6.135,20.929,4.011z M19.947,4.416c-0.16,0.619-0.699,2.294-2.02,3.056c-1.772-0.346-3.476,0.622-3.844,1.071
		c-0.237,0.289-0.155,0.546-0.109,0.643c0.066,0.14,0.239,0.257,0.405,0.298c0.167,0.188,0.46,0.938,0.636,1.638
		c0.022,0.087,0.067,0.168,0.131,0.232c0.485,0.485,1.177,0.399,1.629,0.266c0.064,0.535-0.695,1.383-1.441,2.158
		C14.779,14.356,14.5,14.645,14.5,15c0,0.415,0.304,0.679,0.526,0.873c0.075,0.064,0.205,0.171,0.217,0.15
		c0,0-0.016,0.042-0.097,0.123c-0.648,0.648-1.3,0.878-1.305,0.879C13.638,17.094,13.5,17.285,13.5,17.5c0,1.308-0.817,1.98-2.429,2
		c-0.337-0.25-1.051-1.632-1.071-2c0-0.132,0.1-0.333,0.197-0.526C10.339,16.69,10.5,16.368,10.5,16
		c0-0.562-0.621-1.304-1.005-1.708c-0.031-0.618-0.208-1.071-0.537-1.382c-0.564-0.532-1.407-0.484-2.222-0.438
		C6.496,12.486,6.248,12.5,6,12.5c-0.979,0-1-1.44-1-1.5c0-0.031,0.024-3.095,2.098-3.509C8.545,7.201,8.97,7.471,9,7.5
		c0,0.133,0.053,0.26,0.146,0.354c0.894,0.894,2.25,0.579,3.339,0.325C12.881,8.087,13.254,8,13.5,8c0.249,0,0.46-0.183,0.495-0.429
		c0.189-1.327,0.279-3.007-0.372-3.476c-0.242-0.175-0.55-0.189-0.847-0.042c-0.362,0.182-0.701,0.212-0.926,0.086
		c-0.252-0.14-0.331-0.45-0.353-0.686c-0.06-0.643,1.948-1.519,3.837-1.934C17.112,2.087,18.689,3.098,19.947,4.416z M12,23
		C5.935,23,1,18.066,1,12C1,5.935,5.935,1,12,1c0.425,0,0.842,0.03,1.254,0.077c-1.366,0.493-2.86,1.301-2.752,2.469
		c0.062,0.671,0.369,1.192,0.863,1.467c0.476,0.265,1.085,0.266,1.698,0.008c0.087,0.356,0.084,1.172-0.008,2.018
		c-0.249,0.038-0.518,0.101-0.795,0.166C11.42,7.4,10.477,7.619,9.951,7.23C9.895,7.069,9.786,6.895,9.604,6.746
		C9.093,6.326,8.209,6.249,6.902,6.51C4.033,7.083,4,10.84,4,11c0,0.865,0.418,2.5,2,2.5c0.267,0,0.534-0.015,0.793-0.029
		c0.631-0.037,1.227-0.071,1.478,0.166C8.423,13.78,8.5,14.071,8.5,14.5c0,0.132,0.053,0.26,0.146,0.354
		C9.07,15.278,9.478,15.829,9.5,16c0,0.132-0.1,0.333-0.197,0.526C9.161,16.81,9,17.132,9,17.5c0,0.507,1.025,3,2,3
		c2.09,0,3.343-0.965,3.486-2.665c0.326-0.158,0.849-0.463,1.367-0.981c0.266-0.266,0.396-0.546,0.386-0.833
		c-0.015-0.432-0.328-0.704-0.557-0.902c-0.04-0.035-0.09-0.079-0.128-0.105c0.117-0.144,0.333-0.368,0.5-0.542
		c0.939-0.977,2.512-2.612,1.299-3.825c-0.153-0.153-0.384-0.189-0.577-0.094c-0.209,0.105-0.626,0.219-0.838,0.145
		c-0.246-0.929-0.503-1.464-0.733-1.774c0.547-0.312,1.617-0.703,2.674-0.438c0.114,0.03,0.238,0.015,0.345-0.038
		c1.418-0.709,2.147-2.157,2.494-3.129C22.143,7.172,23,9.486,23,12C23,18.066,18.065,23,12,23z"/>
</g>
</svg>
