<svg xmlns="http://www.w3.org/2000/svg" width="24" height="24" viewBox="0 0 24 24"><g><path fill-rule="evenodd" d="M11.999,1.999 C6.485,1.999 1.999,6.485 1.999,11.999 C1.999,17.513 6.485,21.999 11.999,21.999 C17.513,21.999 21.999,17.513 21.999,11.999 C21.999,6.485 17.513,1.999 11.999,1.999 Z M7.999,5.082 C8.903,4.557 9.917,4.205 10.999,4.069 L10.999,9.999 L13.999,9.999 L13.999,13.499 L11.509,15.366 L9.72,9.999 L7.999,9.999 L7.999,5.082 Z M11.999,19.999 C7.588,19.999 3.999,16.41 3.999,11.999 C3.999,9.978 4.758,8.135 5.999,6.725 L5.999,11.999 L8.278,11.999 L10.489,18.632 L15.999,14.499 L15.999,7.999 L12.999,7.999 L12.999,4.068 C16.939,4.563 19.999,7.927 19.999,11.999 C19.999,16.41 16.41,19.999 11.999,19.999 Z"/></g></svg>
