<svg xmlns="http://www.w3.org/2000/svg" width="24" height="24" viewBox="0 0 24 24"><g ><path fill-rule="evenodd" d="M13,18.941 C17.493,18.442 21,14.624 21,10.001 C21,5.038 16.963,1.001 12,1.001 C7.037,1.001 3,5.038 3,10.001 C3,14.624 6.507,18.442 11,18.941 L11,21.001 L4,21.001 L4,23.001 L20,23.001 L20,21.001 L13,21.001 L13,18.941 Z M10,8.001 L14,8.001 L14,12.001 L10,12.001 L10,8.001 Z M8,8.001 L8,12.001 L5.295,12.001 C5.105,11.366 5,10.696 5,10.001 C5,9.306 5.105,8.636 5.295,8.001 L8,8.001 Z M10,14.001 L14,14.001 L14,16.706 C13.365,16.895 12.695,17.001 12,17.001 C11.305,17.001 10.635,16.896 10,16.706 L10,14.001 Z M16,15.737 L16,14.001 L17.736,14.001 C17.264,14.677 16.676,15.265 16,15.737 Z M18.705,12.001 L16,12.001 L16,8.001 L18.705,8.001 C18.894,8.636 19,9.306 19,10.001 C19,10.696 18.895,11.366 18.705,12.001 Z M17.736,6.001 L16,6.001 L16,4.265 C16.676,4.737 17.264,5.325 17.736,6.001 Z M14,3.296 L14,6.001 L10,6.001 L10,3.296 C10.635,3.107 11.305,3.001 12,3.001 C12.695,3.001 13.365,3.106 14,3.296 Z M8,4.265 L8,6.001 L6.264,6.001 C6.736,5.325 7.324,4.737 8,4.265 Z M6.264,14.001 L8,14.001 L8,15.737 C7.324,15.265 6.736,14.677 6.264,14.001 Z"/></g></svg>