<svg xmlns="http://www.w3.org/2000/svg" width="24" height="24" viewBox="0 0 24 24"><g ><path fill-rule="evenodd" d="M20,2 L4,2 C2.896,2 2,2.896 2,4 L2,20 C2,21.103 2.896,22 4,22 L20,22 C21.104,22 22,21.103 22,20 L22,4 C22,2.896 21.104,2 20,2 Z M20,4 L19.999,8 L4,8 L4,4 L20,4 Z M19.999,10 L19.998,14 L4,14 L4,10 L19.999,10 Z M4,20 L4,16 L19.998,16 L19.997,20 L4,20 Z"/><polygon fill-rule="evenodd" points="5 5 10 5 10 7 5 7"/><polygon fill-rule="evenodd" points="5 11 10 11 10 13 5 13"/><polygon fill-rule="evenodd" points="5 17 10 17 10 19 5 19"/><path fill-rule="evenodd" d="M15.7071434 5.29289459C16.0976682 5.68341937 16.0976682 6.31658663 15.7071434 6.70710741 15.3166186 7.0976322 14.6834514 7.0976322 14.2929306 6.70710741 13.9024058 6.31658263 13.9024058 5.68341537 14.2929306 5.29289459 14.6834554 4.9023698 15.3166226 4.9023698 15.7071434 5.29289459M18.7071434 5.29289459C19.0976682 5.68341937 19.0976682 6.31658663 18.7071434 6.70710741 18.3166186 7.0976322 17.6834514 7.0976322 17.2929306 6.70710741 16.9024058 6.31658263 16.9024058 5.68341537 17.2929306 5.29289459 17.6834554 4.9023698 18.3166226 4.9023698 18.7071434 5.29289459M15.7071434 11.2929246C16.0976682 11.6834494 16.0976682 12.3166166 15.7071434 12.7071374 15.3166186 13.0976622 14.6834514 13.0976622 14.2929306 12.7071374 13.9024058 12.3166126 13.9024058 11.6834454 14.2929306 11.2929246 14.6834554 10.9023998 15.3166226 10.9023998 15.7071434 11.2929246M18.7071434 11.2929246C19.0976682 11.6834494 19.0976682 12.3166166 18.7071434 12.7071374 18.3166186 13.0976622 17.6834514 13.0976622 17.2929306 12.7071374 16.9024058 12.3166126 16.9024058 11.6834454 17.2929306 11.2929246 17.6834554 10.9023998 18.3166226 10.9023998 18.7071434 11.2929246M15.7071434 17.2929246C16.0976682 17.6834494 16.0976682 18.3166166 15.7071434 18.7071374 15.3166186 19.0976622 14.6834514 19.0976622 14.2929306 18.7071374 13.9024058 18.3166126 13.9024058 17.6834454 14.2929306 17.2929246 14.6834554 16.9023998 15.3166226 16.9023998 15.7071434 17.2929246M18.7071434 17.2929246C19.0976682 17.6834494 19.0976682 18.3166166 18.7071434 18.7071374 18.3166186 19.0976622 17.6834514 19.0976622 17.2929306 18.7071374 16.9024058 18.3166126 16.9024058 17.6834454 17.2929306 17.2929246 17.6834554 16.9023998 18.3166226 16.9023998 18.7071434 17.2929246"/></g></svg>