
<svg width="24px" height="24px" viewBox="0 0 24 24" version="1.1" xmlns="http://www.w3.org/2000/svg" xmlns:xlink="http://www.w3.org/1999/xlink">
    <!-- Generator: Sketch 41 (35326) - http://www.bohemiancoding.com/sketch -->
    <desc>Created with Sketch.</desc>
    <defs></defs>
    <g id="Woorank-Icon" stroke="none" fill-rule="evenodd">
        <g>
            <path d="M1.5,1 C1.5,0.723857625 1.27614237,0.5 1,0.5 C0.723857625,0.5 0.5,0.723857625 0.5,1 L0.5,18.5 L19,18.5 C19.2761424,18.5 19.5,18.2761424 19.5,18 C19.5,17.7238576 19.2761424,17.5 19,17.5 L1.5,17.5 L1.5,1 Z" id="Shape"></path>
            <path d="M17.6464466,22.6464466 C17.4511845,22.8417088 17.4511845,23.1582912 17.6464466,23.3535534 C17.8417088,23.5488155 18.1582912,23.5488155 18.3535534,23.3535534 L23.7071068,18 L18.3535534,12.6464466 C18.1582912,12.4511845 17.8417088,12.4511845 17.6464466,12.6464466 C17.4511845,12.8417088 17.4511845,13.1582912 17.6464466,13.3535534 L22.2928932,18 L17.6464466,22.6464466 Z" id="Shape"></path>
            <path d="M6.5,17.5 L6.5,1 C6.5,0.723857625 6.27614237,0.5 6,0.5 C5.72385763,0.5 5.5,0.723857625 5.5,1 L5.5,17.5 C5.5,17.7761424 5.72385763,18 6,18 C6.27614237,18 6.5,17.7761424 6.5,17.5 Z" id="Shape"></path>
        </g>
    </g>
</svg>
