
<svg width="24px" height="24px" viewBox="0 0 24 24" version="1.1" xmlns="http://www.w3.org/2000/svg" xmlns:xlink="http://www.w3.org/1999/xlink">
    <!-- Generator: Sketch 41 (35326) - http://www.bohemiancoding.com/sketch -->
    <desc>Created with Sketch.</desc>
    <defs></defs>
    <g id="Woorank-Icon" stroke="none" fill-rule="evenodd">
        <g>
            <path d="M6.5,6 C6.5,5.72385763 6.27614237,5.5 6,5.5 C5.72385763,5.5 5.5,5.72385763 5.5,6 L5.5,18.5 L19,18.5 C19.2761424,18.5 19.5,18.2761424 19.5,18 C19.5,17.7238576 19.2761424,17.5 19,17.5 L6.5,17.5 L6.5,6 Z" id="Shape"></path>
            <path d="M10.6464466,6.35355339 C10.8417088,6.54881554 11.1582912,6.54881554 11.3535534,6.35355339 C11.5488155,6.15829124 11.5488155,5.84170876 11.3535534,5.64644661 L6.35355339,0.646446609 C6.15829124,0.451184464 5.84170876,0.451184464 5.64644661,0.646446609 L0.646446609,5.64644661 C0.451184464,5.84170876 0.451184464,6.15829124 0.646446609,6.35355339 C0.841708755,6.54881554 1.15829124,6.54881554 1.35355339,6.35355339 L6,1.70710678 L10.6464466,6.35355339 Z" id="Shape"></path>
            <path d="M17.6464466,22.6464466 C17.4511845,22.8417088 17.4511845,23.1582912 17.6464466,23.3535534 C17.8417088,23.5488155 18.1582912,23.5488155 18.3535534,23.3535534 L23.3535534,18.3535534 C23.5488155,18.1582912 23.5488155,17.8417088 23.3535534,17.6464466 L18.3535534,12.6464466 C18.1582912,12.4511845 17.8417088,12.4511845 17.6464466,12.6464466 C17.4511845,12.8417088 17.4511845,13.1582912 17.6464466,13.3535534 L22.2928932,18 L17.6464466,22.6464466 Z" id="Shape"></path>
        </g>
    </g>
</svg>
