<svg xmlns="http://www.w3.org/2000/svg" width="24" height="24" viewBox="0 0 24 24"><g ><path fill-rule="evenodd" d="M16 18L16 16C18.205 16 20 14.205 20 12 20 9.795 18.205 8 16 8L11 8C10.575 8 10.197 7.732 10.057 7.331 9.916 6.93 10.043 6.484 10.375 6.219L15.375 2.219 16.625 3.781 13.851 6 16 6C19.309 6 22 8.691 22 12 22 15.309 19.309 18 16 18zM8.625 21.781L7.375 20.219 10.149 18 8 18C4.691 18 2 15.309 2 12 2 8.691 4.691 6 8 6L8 8C5.795 8 4 9.795 4 12 4 14.205 5.795 16 8 16L13 16C13.425 16 13.803 16.268 13.943 16.669 14.084 17.07 13.957 17.516 13.625 17.781L8.625 21.781z"/></g></svg>