<?xml version="1.0" encoding="utf-8"?>
<!-- Generator: Adobe Illustrator 17.0.0, SVG Export Plug-In . SVG Version: 6.00 Build 0)  -->
<!DOCTYPE svg PUBLIC "-//W3C//DTD SVG 1.1//EN" "http://www.w3.org/Graphics/SVG/1.1/DTD/svg11.dtd">
<svg version="1.1" id="Layer_1" xmlns="http://www.w3.org/2000/svg" xmlns:xlink="http://www.w3.org/1999/xlink" x="0px" y="0px"
	 width="48px" height="48px" viewBox="0 0 48 48" enable-background="new 0 0 48 48" xml:space="preserve">
<g>
	<path fill="none" stroke="#231F20" stroke-width="2" stroke-linejoin="round" stroke-miterlimit="10" d="M15.274,28.586v-23
		c0-1.657,1.342-3,3-3c1.657,0,3,1.343,3,3v9h4c1.104,0,2,0.896,2,2h4c1.104,0,2,0.896,2,2h3c1.657,0,3,1.343,3,3v6.199
		c0,1.858-0.259,3.708-0.769,5.494l-3.231,11.307h-18c-3-4-10.835-17.349-10.835-17.349c-0.674-0.954-0.562-2.254,0.264-3.08
		c0.887-0.886,2.306-0.941,3.257-0.125L15.274,28.586z"/>
	
		<line fill="none" stroke="#231F20" stroke-width="2" stroke-linecap="round" stroke-linejoin="round" stroke-miterlimit="10" x1="27.274" y1="16.586" x2="27.274" y2="20.586"/>
	
		<line fill="none" stroke="#231F20" stroke-width="2" stroke-linecap="round" stroke-linejoin="round" stroke-miterlimit="10" x1="21.274" y1="13.586" x2="21.274" y2="20.586"/>
	
		<line fill="none" stroke="#231F20" stroke-width="2" stroke-linecap="round" stroke-linejoin="round" stroke-miterlimit="10" x1="33.274" y1="18.586" x2="33.274" y2="22.586"/>
</g>
</svg>
