<?xml version="1.0" encoding="utf-8"?>
<!-- Generator: Adobe Illustrator 17.0.0, SVG Export Plug-In . SVG Version: 6.00 Build 0)  -->
<!DOCTYPE svg PUBLIC "-//W3C//DTD SVG 1.1//EN" "http://www.w3.org/Graphics/SVG/1.1/DTD/svg11.dtd">
<svg version="1.1" id="Layer_1" xmlns="http://www.w3.org/2000/svg" xmlns:xlink="http://www.w3.org/1999/xlink" x="0px" y="0px"
	 width="48px" height="48px" viewBox="0 0 48 48" enable-background="new 0 0 48 48" xml:space="preserve">
<g>
	<path fill="none" stroke="#231F20" stroke-width="2" stroke-linecap="round" stroke-linejoin="round" stroke-miterlimit="10" d="
		M37.273,21.586v13c0,5.523-4.477,10-10,10h-6.669c-3.424,0-6.61-1.754-8.446-4.644c-3.443-5.419-7.719-14.356-7.719-14.356
		c-0.674-0.954-0.562-2.254,0.263-3.08c0.887-0.886,2.306-0.941,3.258-0.125l5.313,6.205v-20c0-1.657,1.343-3,3-3
		c1.657,0,3,1.343,3,3v12"/>
	<path fill="none" stroke="#231F20" stroke-width="2" stroke-linecap="round" stroke-linejoin="round" stroke-miterlimit="10" d="
		M19.273,16.586v-12c0-1.657,1.343-3,3-3c1.657,0,3,1.343,3,3v12"/>
	<path fill="none" stroke="#231F20" stroke-width="2" stroke-linecap="round" stroke-linejoin="round" stroke-miterlimit="10" d="
		M25.273,20.586v-12c0-1.657,1.343-3,3-3c1.657,0,3,1.343,3,3v12"/>
	<path fill="none" stroke="#231F20" stroke-width="2" stroke-linecap="round" stroke-linejoin="round" stroke-miterlimit="10" d="
		M31.273,23.586v-9c0-1.657,1.343-3,3-3c1.657,0,3,1.343,3,3v12"/>
</g>
</svg>
