<?xml version="1.0" encoding="utf-8"?>
<!-- Generator: Adobe Illustrator 17.0.0, SVG Export Plug-In . SVG Version: 6.00 Build 0)  -->
<!DOCTYPE svg PUBLIC "-//W3C//DTD SVG 1.1//EN" "http://www.w3.org/Graphics/SVG/1.1/DTD/svg11.dtd">
<svg version="1.1" id="Layer_1" xmlns="http://www.w3.org/2000/svg" xmlns:xlink="http://www.w3.org/1999/xlink" x="0px" y="0px"
	 width="48px" height="48px" viewBox="0 0 48 48" enable-background="new 0 0 48 48" xml:space="preserve">
<g>
	<path fill="none" stroke="#231F20" stroke-width="2" stroke-linecap="round" stroke-linejoin="round" stroke-miterlimit="10" d="
		M31,18c0-3.867-3.135-7-7-7c-3.867,0-7,3.133-7,7c0,2.773,1.615,5.162,3.953,6.296L18,37h12l-2.955-12.704
		C29.383,23.162,31,20.773,31,18z"/>
	<g>
		<path fill="none" stroke="#231F20" stroke-width="2" stroke-linecap="round" stroke-linejoin="round" stroke-miterlimit="10" d="
			M45,42c0,1.65-1.35,3-3,3H6c-1.65,0-3-1.35-3-3V6c0-1.65,1.35-3,3-3h36c1.65,0,3,1.35,3,3V42z"/>
	</g>
</g>
</svg>
