<?xml version="1.0" encoding="utf-8"?>
<!-- Generator: Adobe Illustrator 17.0.0, SVG Export Plug-In . SVG Version: 6.00 Build 0)  -->
<!DOCTYPE svg PUBLIC "-//W3C//DTD SVG 1.1//EN" "http://www.w3.org/Graphics/SVG/1.1/DTD/svg11.dtd">
<svg version="1.1" id="Layer_1" xmlns="http://www.w3.org/2000/svg" xmlns:xlink="http://www.w3.org/1999/xlink" x="0px" y="0px"
	 width="48px" height="48px" viewBox="0 0 48 48" enable-background="new 0 0 48 48" xml:space="preserve">
<g>
	<circle fill="none" stroke="#231F20" stroke-width="2" stroke-miterlimit="10" cx="24" cy="32" r="15"/>
	<path fill="none" stroke="#231F20" stroke-width="2" stroke-miterlimit="10" d="M34,21V11c0-5.522-4.478-10-10-10
		c-5.523,0-10,4.478-10,10v10"/>
	<circle fill="none" stroke="#231F20" stroke-width="2" stroke-miterlimit="10" cx="24" cy="32" r="8"/>
	
		<line fill="none" stroke="#231F20" stroke-width="2" stroke-linecap="round" stroke-miterlimit="10" x1="24" y1="22" x2="24" y2="26"/>
	
		<line fill="none" stroke="#231F20" stroke-width="2" stroke-linecap="round" stroke-miterlimit="10" x1="24" y1="38" x2="24" y2="42"/>
	
		<line fill="none" stroke="#231F20" stroke-width="2" stroke-linecap="round" stroke-miterlimit="10" x1="34" y1="32" x2="30" y2="32"/>
	
		<line fill="none" stroke="#231F20" stroke-width="2" stroke-linecap="round" stroke-miterlimit="10" x1="18" y1="32" x2="14" y2="32"/>
	<g>
		<path fill="#231F20" d="M24,30c-1.106,0-2,0.896-2,2c0,1.105,0.894,2,2,2c1.104,0,2-0.895,2-2C26,30.896,25.104,30,24,30L24,30z"
			/>
	</g>
</g>
</svg>
