<?xml version="1.0" encoding="utf-8"?>
<!-- Generator: Adobe Illustrator 17.1.0, SVG Export Plug-In . SVG Version: 6.00 Build 0)  -->
<!DOCTYPE svg PUBLIC "-//W3C//DTD SVG 1.0//EN" "http://www.w3.org/TR/2001/REC-SVG-20010904/DTD/svg10.dtd">
<svg version="1.0" id="Layer_1" xmlns="http://www.w3.org/2000/svg" xmlns:xlink="http://www.w3.org/1999/xlink" x="0px" y="0px"
	 width="60px" height="60px" viewBox="0 0 60 60" enable-background="new 0 0 60 60" xml:space="preserve">
<path d="M59,8.5H42v-7c0-0.552-0.448-1-1-1H19c-0.552,0-1,0.448-1,1v7H1c-0.552,0-1,0.448-1,1s0.448,1,1,1h8v49h42v-49h8
	c0.552,0,1-0.448,1-1S59.552,8.5,59,8.5z M20,48.5c0,0.552-0.448,1-1,1s-1-0.448-1-1v-28c0-0.552,0.448-1,1-1s1,0.448,1,1V48.5z
	 M20,2.5h20v6H20V2.5z M31,48.5c0,0.552-0.448,1-1,1s-1-0.448-1-1v-28c0-0.552,0.448-1,1-1s1,0.448,1,1V48.5z M42,48.5
	c0,0.552-0.448,1-1,1s-1-0.448-1-1v-28c0-0.552,0.448-1,1-1s1,0.448,1,1V48.5z"/>
</svg>
