<?xml version="1.0" encoding="utf-8"?>
<!-- Generator: Adobe Illustrator 17.0.0, SVG Export Plug-In . SVG Version: 6.00 Build 0)  -->
<!DOCTYPE svg PUBLIC "-//W3C//DTD SVG 1.1//EN" "http://www.w3.org/Graphics/SVG/1.1/DTD/svg11.dtd">
<svg version="1.1" id="Layer_2" xmlns="http://www.w3.org/2000/svg" xmlns:xlink="http://www.w3.org/1999/xlink" x="0px" y="0px"
	 width="60px" height="60px" viewBox="0 0 60 60" enable-background="new 0 0 60 60" xml:space="preserve">
<g>
	<polygon fill="#010101" points="23.868,14 24.568,28 35.766,28 36.465,14 	"/>
	<polygon fill="#010101" points="25.268,42 35.065,42 35.666,30 24.668,30 	"/>
	<path fill="#010101" d="M25.368,44l0.797,15.95c0.001,0.018-0.007,0.032-0.007,0.05h8.018c0-0.018-0.008-0.032-0.007-0.05
		L34.965,44H25.368z"/>
	<path fill="#010101" d="M12.87,44l1.3,15.086c0.005,0.061,0.032,0.112,0.047,0.168c0.015,0.056,0.022,0.112,0.046,0.163
		c0.031,0.067,0.077,0.123,0.122,0.181c0.031,0.041,0.055,0.086,0.092,0.122c0.058,0.056,0.129,0.094,0.199,0.134
		c0.039,0.022,0.07,0.053,0.112,0.07C14.906,59.972,15.033,60,15.166,60h0.001h0h8.999l-0.8-16H12.87z"/>
	<polygon fill="#010101" points="21.866,14 10.284,14 11.491,28 22.565,28 	"/>
	<polygon fill="#010101" points="22.666,30 11.663,30 12.698,42 23.266,42 	"/>
	<path fill="#010101" d="M21.168,0.05C21.167,0.032,21.176,0.018,21.176,0H6.167c-0.552,0-1,0.448-1,1c0,0.552,0.448,1,1,1h3.083
		l0.862,10h11.654L21.168,0.05z"/>
	<polygon fill="#010101" points="37.768,28 48.842,28 50.049,14 38.468,14 	"/>
	<path fill="#010101" d="M36.168,60h8.999h0h0.001c0.133,0,0.26-0.028,0.376-0.076c0.041-0.017,0.073-0.047,0.112-0.07
		c0.07-0.04,0.141-0.079,0.2-0.134c0.037-0.036,0.061-0.08,0.092-0.122c0.045-0.058,0.091-0.114,0.123-0.182
		c0.024-0.051,0.031-0.107,0.046-0.162c0.015-0.057,0.042-0.108,0.047-0.168L47.463,44H36.968L36.168,60z"/>
	<polygon fill="#010101" points="37.068,42 47.636,42 48.67,30 37.668,30 	"/>
	<path fill="#010101" d="M54.167,0H39.158c0,0.018,0.008,0.032,0.007,0.05L38.568,12h11.654l0.862-10h3.083c0.552,0,1-0.448,1-1
		C55.167,0.448,54.719,0,54.167,0z"/>
	<polygon fill="#010101" points="36.565,12 37.166,0 23.168,0 23.768,12 	"/>
</g>
</svg>
