<?xml version="1.0" encoding="utf-8"?>
<!-- Generator: Adobe Illustrator 17.0.0, SVG Export Plug-In . SVG Version: 6.00 Build 0)  -->
<!DOCTYPE svg PUBLIC "-//W3C//DTD SVG 1.1//EN" "http://www.w3.org/Graphics/SVG/1.1/DTD/svg11.dtd">
<svg version="1.1" id="Layer_2" xmlns="http://www.w3.org/2000/svg" xmlns:xlink="http://www.w3.org/1999/xlink" x="0px" y="0px"
	 width="60px" height="60px" viewBox="0 0 60 60" enable-background="new 0 0 60 60" xml:space="preserve">
<path fill="#010101" d="M55.248,9.598C49.2,3.55,38.98,3.55,32.933,9.598l-29.23,29.23C-0.94,43.47-0.96,50.724,3.658,55.344
	c2.301,2.3,5.256,3.449,8.217,3.449c2.981,0,5.968-1.166,8.297-3.495l28.256-28.256c2.706-2.706,2.706-6.944,0-9.649
	c-1.306-1.306-3.019-2.025-4.825-2.025c-1.806,0-3.519,0.719-4.824,2.025L18.318,37.855c-0.781,0.781-0.781,2.047,0,2.828
	c0.78,0.781,2.048,0.781,2.828,0l20.461-20.461c1.101-1.101,2.892-1.1,3.992,0.001c1.138,1.138,1.138,2.853,0,3.992L17.343,52.47
	c-3.055,3.056-7.824,3.076-10.857,0.046c-3.032-3.033-3.012-7.802,0.044-10.858l29.23-29.23c4.515-4.516,12.144-4.515,16.659,0
	c2.174,2.174,3.372,4.959,3.372,7.842c0,2.882-1.198,5.668-3.371,7.841L31.371,49.126c-0.782,0.78-0.783,2.047-0.002,2.829
	c0.781,0.782,2.047,0.783,2.829,0.002L55.248,30.94c2.93-2.93,4.544-6.72,4.544-10.671C59.792,16.317,58.179,12.528,55.248,9.598z"
	/>
</svg>
