<?xml version="1.0" encoding="utf-8"?>
<!-- Generator: Adobe Illustrator 17.0.0, SVG Export Plug-In . SVG Version: 6.00 Build 0)  -->
<!DOCTYPE svg PUBLIC "-//W3C//DTD SVG 1.1//EN" "http://www.w3.org/Graphics/SVG/1.1/DTD/svg11.dtd">
<svg version="1.1" id="Layer_2" xmlns="http://www.w3.org/2000/svg" xmlns:xlink="http://www.w3.org/1999/xlink" x="0px" y="0px"
	 width="60px" height="60px" viewBox="0 0 60 60" enable-background="new 0 0 60 60" xml:space="preserve">
<path fill="#010101" d="M29.864,0c-8.918,0-15.643,7.14-15.643,16.608v30.435C14.221,54.551,19.264,60,26.211,60
	c6.77,0,11.319-5.207,11.319-12.956V22.821c0-5.739-2.938-9.304-7.667-9.304c-4.811,0-7.919,3.652-7.919,9.304v19.352
	c0,1.105,0.896,2,2,2s2-0.895,2-2V22.821c0-1.981,0.509-5.304,3.919-5.304c2.433,0,3.667,1.785,3.667,5.304v24.222
	c0,4.132-1.917,8.956-7.319,8.956c-4.705,0-7.991-3.683-7.991-8.956V16.608C18.221,9.303,23.117,4,29.864,4
	c6.601,0,11.391,5.303,11.391,12.608v21.914c0,1.104,0.896,2,2,2s2-0.896,2-2V16.608C45.255,7.14,38.638,0,29.864,0z"/>
</svg>
