<?xml version="1.0" encoding="utf-8"?>
<!-- Generator: Adobe Illustrator 17.0.0, SVG Export Plug-In . SVG Version: 6.00 Build 0)  -->
<!DOCTYPE svg PUBLIC "-//W3C//DTD SVG 1.1//EN" "http://www.w3.org/Graphics/SVG/1.1/DTD/svg11.dtd">
<svg version="1.1" id="Layer_2" xmlns="http://www.w3.org/2000/svg" xmlns:xlink="http://www.w3.org/1999/xlink" x="0px" y="0px"
	 width="60px" height="60px" viewBox="0 0 60 60" enable-background="new 0 0 60 60" xml:space="preserve">
<path fill="#010101" d="M57.056,28h-4.092C52.003,16.911,43.144,8.053,32.056,7.092V2c0-1.104-0.895-2-2-2s-2,0.896-2,2v5.092
	C16.967,8.053,8.109,16.911,7.148,28H2.056c-1.104,0-2,0.896-2,2c0,1.105,0.896,2,2,2h5.092
	c0.961,11.089,9.819,19.947,20.908,20.908V58c0,1.105,0.896,2,2,2s2-0.895,2-2v-5.092C43.144,51.947,52.003,43.089,52.963,32h4.092
	c1.104,0,2-0.895,2-2C59.056,28.896,58.16,28,57.056,28z M43.056,32h5.893c-0.934,8.882-8.01,15.959-16.893,16.893V44
	c0-1.104-0.895-2-2-2s-2,0.896-2,2v4.893C19.173,47.959,12.097,40.882,11.163,32h4.893c1.104,0,2-0.895,2-2c0-1.104-0.896-2-2-2
	h-4.893c0.934-8.882,8.01-15.959,16.893-16.893V15c0,1.105,0.896,2,2,2s2-0.895,2-2v-3.893C40.938,12.041,48.014,19.118,48.948,28
	h-5.893c-1.104,0-2,0.896-2,2C41.056,31.105,41.951,32,43.056,32z"/>
</svg>
