<?xml version="1.0" encoding="utf-8"?>
<!-- Generator: Adobe Illustrator 17.0.0, SVG Export Plug-In . SVG Version: 6.00 Build 0)  -->
<!DOCTYPE svg PUBLIC "-//W3C//DTD SVG 1.1//EN" "http://www.w3.org/Graphics/SVG/1.1/DTD/svg11.dtd">
<svg version="1.1" id="Layer_2" xmlns="http://www.w3.org/2000/svg" xmlns:xlink="http://www.w3.org/1999/xlink" x="0px" y="0px"
	 width="60px" height="60px" viewBox="0 0 60 60" enable-background="new 0 0 60 60" xml:space="preserve">
<g>
	<path fill="#010101" d="M29.972,24c1.104,0,2-0.895,2-2V2c0-1.104-0.896-2-2-2s-2,0.896-2,2v20C27.972,23.105,28.868,24,29.972,24z
		"/>
	<path fill="#010101" d="M21.972,28h-20c-1.105,0-2,0.896-2,2c0,1.105,0.895,2,2,2h20c1.104,0,2-0.895,2-2
		C23.972,28.896,23.077,28,21.972,28z"/>
	<path fill="#010101" d="M29.972,36c-1.104,0-2,0.896-2,2v20c0,1.105,0.896,2,2,2s2-0.895,2-2V38C31.972,36.896,31.077,36,29.972,36
		z"/>
	<path fill="#010101" d="M57.972,28h-20c-1.104,0-2,0.896-2,2c0,1.105,0.896,2,2,2h20c1.104,0,2-0.895,2-2
		C59.972,28.896,59.077,28,57.972,28z"/>
	<path fill="#010101" d="M29.972,27c-1.654,0-3,1.346-3,3c0,1.654,1.346,3,3,3s3-1.346,3-3C32.972,28.346,31.626,27,29.972,27z
		 M29.972,31c-0.551,0-1-0.449-1-1c0-0.551,0.449-1,1-1s1,0.449,1,1C30.972,30.551,30.523,31,29.972,31z"/>
</g>
</svg>
