<?xml version="1.0" encoding="utf-8"?>
<!-- Generator: Adobe Illustrator 17.0.0, SVG Export Plug-In . SVG Version: 6.00 Build 0)  -->
<!DOCTYPE svg PUBLIC "-//W3C//DTD SVG 1.1//EN" "http://www.w3.org/Graphics/SVG/1.1/DTD/svg11.dtd">
<svg version="1.1" id="Layer_2" xmlns="http://www.w3.org/2000/svg" xmlns:xlink="http://www.w3.org/1999/xlink" x="0px" y="0px"
	 width="60px" height="60px" viewBox="0 0 60 60" enable-background="new 0 0 60 60" xml:space="preserve">
<g>
	
		<rect x="15.136" y="40.672" transform="matrix(-0.7071 -0.7071 0.7071 -0.7071 8.3582 88.462)" fill="#010101" width="14.728" height="3.657"/>
	<path fill="#010101" d="M16.707,48.707C16.512,48.902,16.256,49,16,49c-0.256,0-0.512-0.098-0.707-0.293
		c-0.391-0.391-0.391-1.023,0-1.414L18.586,44l-4-4L1.293,53.293c-0.304,0.304-0.38,0.77-0.188,1.154
		C1.277,54.789,1.625,55,1.999,55c0.047,0,0.094-0.003,0.142-0.01l21-3c0.214-0.031,0.413-0.13,0.565-0.283L25,50.414l-5-5
		L16.707,48.707z"/>
	
		<rect x="19.136" y="36.672" transform="matrix(-0.7071 -0.7071 0.7071 -0.7071 18.015 84.462)" fill="#010101" width="14.728" height="3.657"/>
	<path fill="#010101" d="M55.707,9.293c-1.435-1.435-3.705-2.361-5.783-2.361c-1.485,0-2.741,0.471-3.631,1.361L24,30.586L34.414,41
		l22.293-22.293C59.076,16.339,58.115,11.702,55.707,9.293z"/>
</g>
</svg>
