<?xml version="1.0" encoding="utf-8"?>
<!-- Generator: Adobe Illustrator 17.0.0, SVG Export Plug-In . SVG Version: 6.00 Build 0)  -->
<!DOCTYPE svg PUBLIC "-//W3C//DTD SVG 1.1//EN" "http://www.w3.org/Graphics/SVG/1.1/DTD/svg11.dtd">
<svg version="1.1" id="Layer_2" xmlns="http://www.w3.org/2000/svg" xmlns:xlink="http://www.w3.org/1999/xlink" x="0px" y="0px"
	 width="60px" height="60px" viewBox="0 0 60 60" enable-background="new 0 0 60 60" xml:space="preserve">
<path fill="#010101" d="M30.389,0c-16.568,0-30,13.432-30,30c0,16.568,13.432,30,30,30c16.569,0,30-13.432,30-30
	C60.389,13.432,46.957,0,30.389,0z M10.733,30c0-11.045,8.61-19.655,19.655-19.655c4.167,0,8.176,0.922,11.379,3.103L13.837,41.379
	C11.655,38.177,10.733,34.167,10.733,30z M30.389,49.655c-4.168,0-8.175-0.923-11.379-3.103L46.94,18.621
	c2.181,3.205,3.104,7.211,3.104,11.379C50.044,41.046,41.434,49.655,30.389,49.655z"/>
</svg>
