<?xml version="1.0" encoding="utf-8"?>
<!-- Generator: Adobe Illustrator 17.0.0, SVG Export Plug-In . SVG Version: 6.00 Build 0)  -->
<!DOCTYPE svg PUBLIC "-//W3C//DTD SVG 1.1//EN" "http://www.w3.org/Graphics/SVG/1.1/DTD/svg11.dtd">
<svg version="1.1" id="Layer_2" xmlns="http://www.w3.org/2000/svg" xmlns:xlink="http://www.w3.org/1999/xlink" x="0px" y="0px"
	 width="60px" height="60px" viewBox="0 0 60 60" enable-background="new 0 0 60 60" xml:space="preserve">
<g>
	<path fill="#010101" d="M9.789,51.903C15.152,56.922,22.354,60,30.278,60c7.924,0,15.126-3.078,20.489-8.097L30.278,31.415
		L9.789,51.903z"/>
	<path fill="#010101" d="M8.374,9.511C3.356,14.874,0.278,22.076,0.278,30c0,7.925,3.078,15.127,8.097,20.489l20.489-20.489
		L8.374,9.511z"/>
	<path fill="#010101" d="M52.181,9.511L31.692,30.001l20.489,20.489C57.2,45.126,60.278,37.924,60.278,30
		C60.278,22.076,57.2,14.874,52.181,9.511z"/>
	<path fill="#010101" d="M50.767,8.097C45.404,3.078,38.202,0,30.278,0S15.151,3.078,9.788,8.097l20.489,20.489L50.767,8.097z"/>
</g>
</svg>
