<?xml version="1.0" encoding="utf-8"?>
<!-- Generator: Adobe Illustrator 17.0.0, SVG Export Plug-In . SVG Version: 6.00 Build 0)  -->
<!DOCTYPE svg PUBLIC "-//W3C//DTD SVG 1.1//EN" "http://www.w3.org/Graphics/SVG/1.1/DTD/svg11.dtd">
<svg version="1.1" id="Layer_2" xmlns="http://www.w3.org/2000/svg" xmlns:xlink="http://www.w3.org/1999/xlink" x="0px" y="0px"
	 width="60px" height="60px" viewBox="0 0 60 60" enable-background="new 0 0 60 60" xml:space="preserve">
<g>
	<path fill="#010101" d="M34.247,30.788l-6.515,2.792c-0.127,0.055-0.261,0.081-0.394,0.081c-0.26,0-0.516-0.102-0.707-0.293
		c-0.289-0.289-0.373-0.725-0.212-1.101l2.792-6.515c0.05-0.117,0.122-0.223,0.212-0.313l15.58-15.58H0.14v50h47V17.996
		l-12.58,12.58C34.47,30.666,34.363,30.739,34.247,30.788z M43.14,28.86c0-0.552,0.448-1,1-1s1,0.448,1,1v28c0,0.552-0.448,1-1,1
		h-41c-0.552,0-1-0.448-1-1v-44c0-0.552,0.448-1,1-1h32c0.552,0,1,0.448,1,1c0,0.552-0.448,1-1,1h-31v42h39V28.86z"/>
	<polygon fill="#010101" points="30.973,26.718 29.242,30.758 33.282,29.026 51.983,10.324 49.675,8.016 	"/>
	<path fill="#010101" d="M55.74,5.424c-0.298-0.72-1.055-1.284-1.724-1.284c-0.313,0-0.589,0.123-0.843,0.376l-2.085,2.085
		l2.309,2.309l2.085-2.085C55.875,6.432,55.962,5.96,55.74,5.424z"/>
</g>
</svg>
