<?xml version="1.0" encoding="utf-8"?>
<!-- Generator: Adobe Illustrator 17.0.0, SVG Export Plug-In . SVG Version: 6.00 Build 0)  -->
<!DOCTYPE svg PUBLIC "-//W3C//DTD SVG 1.1//EN" "http://www.w3.org/Graphics/SVG/1.1/DTD/svg11.dtd">
<svg version="1.1" id="Layer_2" xmlns="http://www.w3.org/2000/svg" xmlns:xlink="http://www.w3.org/1999/xlink" x="0px" y="0px"
	 width="60px" height="60px" viewBox="0 0 60 60" enable-background="new 0 0 60 60" xml:space="preserve">
<g>
	<path fill="#010101" d="M58,25.971H41.414l-7.335,7.335l-11.682,5.31l4.215-12.645H2c-1.105,0-2,0.896-2,2v21c0,1.104,0.895,2,2,2
		h56c1.104,0,2-0.896,2-2v-21C60,26.867,59.104,25.971,58,25.971z M58,47.971c0,0.552-0.448,1-1,1H3c-0.552,0-1-0.448-1-1v-19
		c0-0.552,0.448-1,1-1h14.391c0.552,0,1,0.448,1,1s-0.448,1-1,1H4v17h52v-17h-7.087c-0.552,0-1-0.448-1-1s0.448-1,1-1H57
		c0.552,0,1,0.448,1,1V47.971z"/>
	
		<rect x="44.4" y="10.904" transform="matrix(0.7071 0.7071 -0.7071 0.7071 22.6719 -30.0776)" fill="#010101" width="6.486" height="2.848"/>
	
		<rect x="34.972" y="11.847" transform="matrix(0.7071 0.7071 -0.7071 0.7071 26.5782 -20.6493)" fill="#010101" width="6.485" height="19.82"/>
	<polygon fill="#010101" points="31.772,32.158 27.937,28.323 25.745,34.898 	"/>
</g>
</svg>
