<?xml version="1.0" encoding="utf-8"?>
<!-- Generator: Adobe Illustrator 17.0.0, SVG Export Plug-In . SVG Version: 6.00 Build 0)  -->
<!DOCTYPE svg PUBLIC "-//W3C//DTD SVG 1.1//EN" "http://www.w3.org/Graphics/SVG/1.1/DTD/svg11.dtd">
<svg version="1.1" id="Layer_2" xmlns="http://www.w3.org/2000/svg" xmlns:xlink="http://www.w3.org/1999/xlink" x="0px" y="0px"
	 width="60px" height="60px" viewBox="0 0 60 60" enable-background="new 0 0 60 60" xml:space="preserve">
<path fill="#010101" d="M30,0C13.431,0,0,13.432,0,30c0,16.568,13.431,30,30,30c16.569,0,30-13.432,30-30C60,13.432,46.569,0,30,0z
	 M18.812,33.028l8.16,8.161l-13.261,5.1L18.812,33.028z M28.634,40.022l-8.656-8.655l14.879-14.879l8.655,8.655L28.634,40.022z
	 M44.892,25.107L44.892,25.107L44.892,25.107z M44.927,23.729l-8.656-8.656l3.621-3.621l8.656,8.656L44.927,23.729z"/>
<line fill="#010101" x1="30" y1="30" x2="30" y2="30"/>
</svg>
