<?xml version="1.0" encoding="utf-8"?>
<!-- Generator: Adobe Illustrator 17.0.0, SVG Export Plug-In . SVG Version: 6.00 Build 0)  -->
<!DOCTYPE svg PUBLIC "-//W3C//DTD SVG 1.1//EN" "http://www.w3.org/Graphics/SVG/1.1/DTD/svg11.dtd">
<svg version="1.1" id="Layer_2" xmlns="http://www.w3.org/2000/svg" xmlns:xlink="http://www.w3.org/1999/xlink" x="0px" y="0px"
	 width="60px" height="60px" viewBox="0 0 60 60" enable-background="new 0 0 60 60" xml:space="preserve">
<g>
	<path fill="#010101" d="M22.196,44.031V42h1c0.552,0,1-0.448,1-1v-4c0-0.552-0.448-1-1-1h-12c-0.552,0-1,0.448-1,1v4
		c0,0.552,0.448,1,1,1h1v2.031c-7.431,0.461-12,6.108-12,14.969c0,0.552,0.448,1,1,1h32c0.552,0,1-0.448,1-1
		C34.196,50.139,29.627,44.492,22.196,44.031z"/>
	<path fill="#010101" d="M56.196,16c2.786-6.202,4.282-12.208,1.773-14.608c-0.025-0.032-0.036-0.069-0.066-0.099
		C57.86,1.25,57.805,1.23,57.757,1.196c-0.027-0.022-0.048-0.049-0.077-0.071l-0.011,0.013c-0.38-0.208-0.859-0.166-1.18,0.155
		l-7.293,7.293V2.474c0-0.314-0.167-0.605-0.439-0.763c-0.272-0.158-0.608-0.158-0.881-0.001c-2.503,1.442-5.912,3.894-9.104,7.087
		c-6.868,6.867-10.485,14.582-8.188,18.402l-4.094,4.094c-0.391,0.391-0.391,1.023,0,1.414C26.684,32.902,26.94,33,27.196,33
		c0.256,0,0.512-0.098,0.707-0.293l4.091-4.09c3.824,2.396,12.702,0.812,19.202-6.617H38.61l2-2h12.586c0.552,0,1-0.448,1-1
		c0-0.552-0.448-1-1-1H42.61l2-2H56.196z"/>
</g>
</svg>
