<?xml version="1.0" encoding="utf-8"?>
<!-- Generator: Adobe Illustrator 17.0.0, SVG Export Plug-In . SVG Version: 6.00 Build 0)  -->
<!DOCTYPE svg PUBLIC "-//W3C//DTD SVG 1.1//EN" "http://www.w3.org/Graphics/SVG/1.1/DTD/svg11.dtd">
<svg version="1.1" id="Layer_2" xmlns="http://www.w3.org/2000/svg" xmlns:xlink="http://www.w3.org/1999/xlink" x="0px" y="0px"
	 width="60px" height="60px" viewBox="0 0 60 60" enable-background="new 0 0 60 60" xml:space="preserve">
<path fill="#010101" d="M54,21.459l4.414-4.414l-6-6l3.293-3.293c1.798-1.798,1.798-4.615,0-6.414C54.845,0.475,53.706,0,52.5,0
	c-1.206,0-2.345,0.475-3.207,1.337L21.894,28.736c-2.133-1.109-4.501-1.692-6.894-1.692c-8.271,0-15,6.729-15,15s6.729,15,15,15
	s15-6.729,15-15c0-2.394-0.583-4.761-1.691-6.894L41,22.459l5,5l4.414-4.414l-5-5L48,15.459L54,21.459z M15,48.044
	c-3.314,0-6-2.687-6-6s2.686-6,6-6c3.313,0,6,2.687,6,6S18.313,48.044,15,48.044z"/>
</svg>
