<?xml version="1.0" encoding="utf-8"?>
<!-- Generator: Adobe Illustrator 17.0.0, SVG Export Plug-In . SVG Version: 6.00 Build 0)  -->
<!DOCTYPE svg PUBLIC "-//W3C//DTD SVG 1.1//EN" "http://www.w3.org/Graphics/SVG/1.1/DTD/svg11.dtd">
<svg version="1.1" id="Layer_2" xmlns="http://www.w3.org/2000/svg" xmlns:xlink="http://www.w3.org/1999/xlink" x="0px" y="0px"
	 width="60px" height="60px" viewBox="0 0 60 60" enable-background="new 0 0 60 60" xml:space="preserve">
<path fill="#010101" d="M51.586,0L27.81,23.775C25.407,22.612,22.38,22,19,22C8.523,22,0,30.523,0,41c0,10.477,8.523,19,19,19
	c10.477,0,19-8.523,19-19c0-2.606-0.602-5.226-1.791-7.795L43.414,26H48v-4.586L48.414,21H53v-4.586L53.414,16H58v-4.642l2-2.434V0
	H51.586z M13,51c-2.757,0-5-2.243-5-5c0-2.757,2.243-5,5-5c2.757,0,5,2.243,5,5C18,48.757,15.757,51,13,51z"/>
</svg>
