<?xml version="1.0" encoding="utf-8"?>
<!-- Generator: Adobe Illustrator 17.0.0, SVG Export Plug-In . SVG Version: 6.00 Build 0)  -->
<!DOCTYPE svg PUBLIC "-//W3C//DTD SVG 1.1//EN" "http://www.w3.org/Graphics/SVG/1.1/DTD/svg11.dtd">
<svg version="1.1" id="Layer_2" xmlns="http://www.w3.org/2000/svg" xmlns:xlink="http://www.w3.org/1999/xlink" x="0px" y="0px"
	 width="60px" height="60px" viewBox="0 0 60 60" enable-background="new 0 0 60 60" xml:space="preserve">
<g>
	<path fill="#010101" d="M52,19H38.826C34.998,19,32,22.075,32,26c0,1.105,0.895,2,2,2c1.104,0,2-0.895,2-2c0-1.738,1.188-3,2.826-3
		H52c2.206,0,4,1.794,4,4v6c0,2.206-1.794,4-4,4H38.826C36,37,36,36.788,36,36c0-1.104-0.896-2-2-2c-1.105,0-2,0.896-2,2
		c0,5,4.61,5,6.826,5H52c4.411,0,8-3.589,8-8v-6C60,22.589,56.411,19,52,19z"/>
	<path fill="#010101" d="M26,34c-1.105,0-2,0.896-2,2c0,0.788,0,1-2.826,1H8c-2.206,0-4-1.794-4-4v-6c0-2.206,1.794-4,4-4h13.174
		C22.811,23,24,24.262,24,26c0,1.105,0.895,2,2,2c1.104,0,2-0.895,2-2c0-3.925-2.999-7-6.826-7H8c-4.411,0-8,3.589-8,8v6
		c0,4.411,3.589,8,8,8h13.174C23.39,41,28,41,28,36C28,34.896,27.104,34,26,34z"/>
	<path fill="#010101" d="M14,31c0,1.105,0.895,2,2,2h28c1.104,0,2-0.895,2-2c0-1.104-0.896-2-2-2H16C14.895,29,14,29.896,14,31z"/>
</g>
</svg>
