<?xml version="1.0" encoding="utf-8"?>
<!-- Generator: Adobe Illustrator 17.0.0, SVG Export Plug-In . SVG Version: 6.00 Build 0)  -->
<!DOCTYPE svg PUBLIC "-//W3C//DTD SVG 1.1//EN" "http://www.w3.org/Graphics/SVG/1.1/DTD/svg11.dtd">
<svg version="1.1" id="Layer_2" xmlns="http://www.w3.org/2000/svg" xmlns:xlink="http://www.w3.org/1999/xlink" x="0px" y="0px"
	 width="60px" height="60px" viewBox="0 0 60 60" enable-background="new 0 0 60 60" xml:space="preserve">
<g>
	<path fill="#010101" d="M56.108,8.851l-6.514-6.515C48.088,0.83,46.079,0,43.937,0s-4.151,0.83-5.657,2.336L26.523,14.093
		c-2.599,2.599-2.188,6.641,1,9.828c0.78,0.781,2.048,0.781,2.828,0c0.781-0.781,0.781-2.047,0-2.828
		c-0.432-0.432-2.509-2.662-1-4.172L41.108,5.165C41.859,4.414,42.864,4,43.937,4c1.073,0,2.077,0.414,2.828,1.164l6.515,6.515
		c0.751,0.751,1.164,1.755,1.164,2.828c0,1.073-0.413,2.078-1.164,2.829L41.523,29.093c-0.436,0.437-0.949,0.606-1.574,0.518
		c-0.811-0.115-1.733-0.654-2.597-1.518c-0.781-0.781-2.047-0.781-2.829-0.001c-0.781,0.781-0.781,2.047,0,2.829
		c1.495,1.495,3.177,2.412,4.865,2.65c0.294,0.042,0.586,0.062,0.874,0.062c1.542,0,2.97-0.593,4.09-1.713l11.757-11.757
		c1.507-1.507,2.336-3.516,2.336-5.657C58.444,12.366,57.615,10.357,56.108,8.851z"/>
	<path fill="#010101" d="M29.523,33.093c-0.781,0.781-0.781,2.047,0,2.828c0.432,0.432,2.509,2.662,0.994,4.178l-11.644,11.74
		c-0.747,0.753-1.747,1.169-2.816,1.171c-1.072-0.005-2.069-0.409-2.818-1.159l-6.646-6.645c-0.749-0.75-1.161-1.75-1.159-2.819
		c0.002-1.069,0.418-2.069,1.17-2.816l11.746-11.649c1.509-1.509,3.74,0.568,4.172,1c0.781,0.781,2.047,0.781,2.829,0
		c0.781-0.781,0.781-2.047,0-2.828c-3.239-3.238-7.19-3.641-9.822-1.006L3.788,36.731c-1.514,1.502-2.35,3.508-2.353,5.648
		c-0.004,2.14,0.824,4.148,2.331,5.655l6.646,6.646c1.503,1.503,3.505,2.331,5.638,2.331c0.005,0,0.011,0,0.016,0
		c2.14-0.004,4.146-0.84,5.648-2.354l11.639-11.734c2.599-2.599,2.187-6.641-1-9.828C31.571,32.312,30.303,32.312,29.523,33.093z"/>
	<path fill="#010101" d="M18.523,39.921c0.39,0.391,0.902,0.586,1.414,0.586c0.512,0,1.024-0.195,1.414-0.586l20-20
		c0.781-0.781,0.781-2.047,0-2.828c-0.78-0.781-2.048-0.781-2.828,0l-20,20C17.742,37.874,17.742,39.141,18.523,39.921z"/>
</g>
</svg>
