<?xml version="1.0" encoding="utf-8"?>
<!-- Generator: Adobe Illustrator 17.1.0, SVG Export Plug-In . SVG Version: 6.00 Build 0)  -->
<!DOCTYPE svg PUBLIC "-//W3C//DTD SVG 1.0//EN" "http://www.w3.org/TR/2001/REC-SVG-20010904/DTD/svg10.dtd">
<svg version="1.0" id="Layer_1" xmlns="http://www.w3.org/2000/svg" xmlns:xlink="http://www.w3.org/1999/xlink" x="0px" y="0px"
	 width="60px" height="60px" viewBox="0 0 60 60" enable-background="new 0 0 60 60" xml:space="preserve">
<g>
	<path d="M14.596,11.904c0.39,0.391,0.902,0.586,1.414,0.586c0.512,0,1.024-0.195,1.414-0.586c0.781-0.781,0.781-2.047,0-2.828l-5-5
		c-0.78-0.781-2.048-0.781-2.828,0c-0.781,0.781-0.781,2.047,0,2.828L14.596,11.904z"/>
	<path d="M23.01,10.49c1.105,0,2-0.896,2-2v-6c0-1.105-0.895-2-2-2c-1.104,0-2,0.895-2,2v6C21.01,9.594,21.905,10.49,23.01,10.49z"
		/>
	<path d="M7.01,19.49h6c1.104,0,2-0.896,2-2s-0.896-2-2-2h-6c-1.105,0-2,0.896-2,2S5.905,19.49,7.01,19.49z"/>
	<path d="M26.596,45.076l-8,8c-3.232,3.232-6.939,3.232-10.172,0l-2-2c-3.232-3.232-3.232-6.939,0-10.172l8-8
		c0.781-0.781,0.781-2.047,0-2.828c-0.78-0.781-2.048-0.781-2.828,0l-8,8c-4.808,4.808-4.808,11.021,0,15.828l2,2
		C8,58.308,10.755,59.51,13.51,59.51s5.51-1.202,7.914-3.606l8-8c0.781-0.781,0.781-2.047,0-2.828
		C28.644,44.295,27.376,44.295,26.596,45.076z"/>
	<path d="M49.01,15.49h-11c-1.104,0-2,0.896-2,2s0.896,2,2,2h11c3.533,0,7,3.929,7,7.932v5.068c0,3.729-3.271,7-7,7h-11
		c-1.104,0-2,0.896-2,2s0.896,2,2,2h11c5.962,0,11-5.037,11-11v-5.068C60.01,21.79,55.306,15.49,49.01,15.49z"/>
</g>
</svg>
