<?xml version="1.0" encoding="utf-8"?>
<!-- Generator: Adobe Illustrator 17.0.0, SVG Export Plug-In . SVG Version: 6.00 Build 0)  -->
<!DOCTYPE svg PUBLIC "-//W3C//DTD SVG 1.1//EN" "http://www.w3.org/Graphics/SVG/1.1/DTD/svg11.dtd">
<svg version="1.1" id="Layer_2" xmlns="http://www.w3.org/2000/svg" xmlns:xlink="http://www.w3.org/1999/xlink" x="0px" y="0px"
	 width="60px" height="60px" viewBox="0 0 60 60" enable-background="new 0 0 60 60" xml:space="preserve">
<g>
	<path fill="#010101" d="M48.413,16h-9.587c-1.105,0-2,0.896-2,2c0,1.105,0.895,2,2,2h9.587C52.597,20,56,23.589,56,28v2
		c0,4.411-3.364,8-7.5,8H39c-1.105,0-2,0.896-2,2c0,1.105,0.895,2,2,2h9.5C54.841,42,60,36.617,60,30v-2
		C60,21.383,54.802,16,48.413,16z"/>
	<path fill="#010101" d="M23,40c0-1.104-0.896-2-2-2h-9.5C7.364,38,4,34.411,4,30v-2c0-4.411,3.403-8,7.587-8h9.587
		c1.104,0,2-0.895,2-2c0-1.104-0.896-2-2-2h-9.587C5.198,16,0,21.383,0,28v2c0,6.617,5.159,12,11.5,12H21C22.104,42,23,41.105,23,40
		z"/>
	<path fill="#010101" d="M30,2c-1.105,0-2,0.896-2,2v8c0,1.105,0.895,2,2,2c1.104,0,2-0.895,2-2V4C32,2.896,31.104,2,30,2z"/>
	<path fill="#010101" d="M38,13c0.512,0,1.024-0.195,1.414-0.586l4-4c0.781-0.781,0.781-2.047,0-2.828
		c-0.78-0.781-2.048-0.781-2.828,0l-4,4c-0.781,0.781-0.781,2.047,0,2.828C36.976,12.805,37.488,13,38,13z"/>
	<path fill="#010101" d="M20.422,5.55c-0.776-0.785-2.043-0.792-2.829-0.015c-0.785,0.777-0.792,2.043-0.015,2.829l4,4.043
		C21.969,12.802,22.484,13,23,13c0.508,0,1.017-0.192,1.407-0.578c0.785-0.777,0.792-2.043,0.015-2.828L20.422,5.55z"/>
	<path fill="#010101" d="M30,44c-1.105,0-2,0.896-2,2v8c0,1.105,0.895,2,2,2c1.104,0,2-0.895,2-2v-8C32,44.896,31.104,44,30,44z"/>
	<path fill="#010101" d="M38.414,46.586c-0.78-0.781-2.048-0.781-2.828,0c-0.781,0.781-0.781,2.047,0,2.828l4,4
		C39.976,53.805,40.488,54,41,54c0.512,0,1.024-0.195,1.414-0.586c0.781-0.781,0.781-2.047,0-2.828L38.414,46.586z"/>
	<path fill="#010101" d="M21.586,46.586l-4,4c-0.781,0.781-0.781,2.047,0,2.828C17.976,53.805,18.488,54,19,54
		c0.512,0,1.024-0.195,1.414-0.586l4-4c0.781-0.781,0.781-2.047,0-2.828C23.634,45.805,22.366,45.805,21.586,46.586z"/>
</g>
</svg>
