<?xml version="1.0" encoding="utf-8"?>
<!-- Generator: Adobe Illustrator 17.0.0, SVG Export Plug-In . SVG Version: 6.00 Build 0)  -->
<!DOCTYPE svg PUBLIC "-//W3C//DTD SVG 1.1//EN" "http://www.w3.org/Graphics/SVG/1.1/DTD/svg11.dtd">
<svg version="1.1" id="Layer_2" xmlns="http://www.w3.org/2000/svg" xmlns:xlink="http://www.w3.org/1999/xlink" x="0px" y="0px"
	 width="60px" height="60px" viewBox="0 0 60 60" enable-background="new 0 0 60 60" xml:space="preserve">
<g>
	<path fill="#010101" d="M30.092,43.082l-6.282,6.282c-1.553,1.553-3.313,2.426-5.09,2.526c-1.558,0.087-3.011-0.454-4.081-1.526
		l-2-2c-2.176-2.177-2.176-5.996,0-8.172l11-11c1.691-1.691,3.395-2.488,5.068-2.369c1.738,0.124,3.485,1.244,4.918,3.155
		c0.663,0.883,1.917,1.063,2.8,0.4c0.883-0.663,1.062-1.916,0.4-2.8c-2.14-2.853-4.922-4.538-7.834-4.745
		c-1.983-0.141-5.008,0.358-8.18,3.53l-11,11c-3.747,3.748-3.747,10.08,0,13.829l2,1.999c1.756,1.758,4.073,2.708,6.575,2.708
		c0.185,0,0.372-0.005,0.56-0.016c2.774-0.156,5.436-1.432,7.694-3.691l6.282-6.282c0.781-0.781,0.781-2.047,0-2.829
		C32.139,42.301,30.872,42.301,30.092,43.082z"/>
	<path fill="#010101" d="M52.638,13.364l-2-2.001c-3.582-3.58-9.994-4.836-13.828-0.999l-7.218,7.218
		c-0.781,0.781-0.781,2.048,0,2.829c0.781,0.781,2.048,0.781,2.828,0l7.219-7.219c2.111-2.112,6.001-1.168,8.171,1.001l2,2
		c1.066,1.066,1.63,2.306,1.63,3.585c0,1.28-0.563,2.52-1.63,3.586l-12,12c-1.228,1.228-2.739,1.28-3.527,1.202
		c-1.407-0.14-2.708-0.866-3.395-1.897c-0.612-0.919-1.855-1.168-2.773-0.555c-0.919,0.613-1.167,1.854-0.555,2.773
		c1.355,2.033,3.721,3.4,6.329,3.659c0.292,0.029,0.583,0.043,0.871,0.043c2.226,0,4.332-0.85,5.878-2.396l12-12
		c1.807-1.806,2.802-4.085,2.802-6.415C55.44,17.448,54.445,15.17,52.638,13.364z"/>
</g>
</svg>
