<?xml version="1.0" encoding="utf-8"?>
<!-- Generator: Adobe Illustrator 17.0.0, SVG Export Plug-In . SVG Version: 6.00 Build 0)  -->
<!DOCTYPE svg PUBLIC "-//W3C//DTD SVG 1.1//EN" "http://www.w3.org/Graphics/SVG/1.1/DTD/svg11.dtd">
<svg version="1.1" id="Layer_2" xmlns="http://www.w3.org/2000/svg" xmlns:xlink="http://www.w3.org/1999/xlink" x="0px" y="0px"
	 width="60px" height="60px" viewBox="0 0 60 60" enable-background="new 0 0 60 60" xml:space="preserve">
<path fill="#010101" d="M44.889,26.815V14c0-7.327-7.149-14-15-14s-15,6.673-15,14v12.815c-3.102,3.524-5,8.132-5,13.185
	c0,11.028,8.972,20,20,20s20-8.972,20-20C49.889,34.947,47.99,30.34,44.889,26.815z M30.889,41.722V49c0,0.552-0.448,1-1,1
	c-0.552,0-1-0.448-1-1v-7.278c-0.595-0.347-1-0.985-1-1.722c0-1.102,0.897-2,2-2c1.103,0,2,0.898,2,2
	C31.889,40.737,31.484,41.375,30.889,41.722z M42.889,24.832c-3.5-3.004-8.037-4.832-13-4.832c-4.963,0-9.5,1.828-13,4.832V14
	c0-6.168,6.318-12,13-12c6.682,0,13,5.832,13,12V24.832z"/>
</svg>
