<?xml version="1.0" encoding="utf-8"?>
<!-- Generator: Adobe Illustrator 17.0.0, SVG Export Plug-In . SVG Version: 6.00 Build 0)  -->
<!DOCTYPE svg PUBLIC "-//W3C//DTD SVG 1.1//EN" "http://www.w3.org/Graphics/SVG/1.1/DTD/svg11.dtd">
<svg version="1.1" id="Layer_2" xmlns="http://www.w3.org/2000/svg" xmlns:xlink="http://www.w3.org/1999/xlink" x="0px" y="0px"
	 width="60px" height="60px" viewBox="0 0 60 60" enable-background="new 0 0 60 60" xml:space="preserve">
<path fill="#010101" d="M53,2H7C4.794,2,3,3.794,3,6v46c0,2.206,1.794,4,4,4h46c2.206,0,4-1.794,4-4V6C57,3.794,55.206,2,53,2z
	 M38,47H21l4-19c-2.948-1.429-5-4.502-5-8c0-4.876,4.124-9,9-9c4.873,0,9,4.082,9,8.957c0,3.497-2.052,6.614-5,8.043L38,47z"/>
</svg>
