<?xml version="1.0" encoding="utf-8"?>
<!-- Generator: Adobe Illustrator 17.0.0, SVG Export Plug-In . SVG Version: 6.00 Build 0)  -->
<!DOCTYPE svg PUBLIC "-//W3C//DTD SVG 1.1//EN" "http://www.w3.org/Graphics/SVG/1.1/DTD/svg11.dtd">
<svg version="1.1" id="Layer_2" xmlns="http://www.w3.org/2000/svg" xmlns:xlink="http://www.w3.org/1999/xlink" x="0px" y="0px"
	 width="60px" height="60px" viewBox="0 0 60 60" enable-background="new 0 0 60 60" xml:space="preserve">
<g>
	<path fill="#010101" d="M35.676,38h0.941c-0.463-4.165-3.777-7.478-7.941-7.941V31c0,0.552-0.448,1-1,1c-0.552,0-1-0.448-1-1
		v-0.941c-4.164,0.463-7.478,3.776-7.941,7.941h0.941c0.552,0,1,0.448,1,1c0,0.552-0.448,1-1,1h-0.941
		c0.463,4.165,3.777,7.478,7.941,7.941V47c0-0.552,0.448-1,1-1c0.552,0,1,0.448,1,1v0.941c4.164-0.463,7.478-3.776,7.941-7.941
		h-0.941c-0.552,0-1-0.448-1-1C34.676,38.448,35.124,38,35.676,38z M27.676,41c-1.106,0-2-0.895-2-2c0-1.104,0.894-2,2-2
		c1.104,0,2,0.896,2,2C29.676,40.105,28.779,41,27.676,41z"/>
	<path fill="#010101" d="M40.676,23.832V13c0-7.065-5.346-12-13-12c-7.05,0-12.638,5.136-13,12v10.832
		c-4.277,3.671-7,9.103-7,15.168c0,11.028,8.972,20,20,20s20-8.972,20-20C47.676,32.935,44.952,27.503,40.676,23.832z M27.676,3
		c6.58,0,11,4.019,11,10v9.315c-3.159-2.09-6.938-3.315-11-3.315c-4.063,0-7.841,1.225-11,3.315l-0.001-9.262
		C16.939,8.057,20.803,3,27.676,3z M40.676,40h-2.051c-0.478,5.268-4.681,9.472-9.949,9.949V52c0,0.552-0.448,1-1,1
		c-0.552,0-1-0.448-1-1v-2.051c-5.268-0.478-9.472-4.681-9.949-9.949h-2.051c-0.552,0-1-0.448-1-1c0-0.552,0.448-1,1-1h2.051
		c0.478-5.268,4.681-9.472,9.949-9.949V26c0-0.552,0.448-1,1-1c0.552,0,1,0.448,1,1v2.051c5.268,0.477,9.472,4.681,9.949,9.949
		h2.051c0.552,0,1,0.448,1,1C41.676,39.552,41.228,40,40.676,40z"/>
</g>
</svg>
