<?xml version="1.0" encoding="utf-8"?>
<!-- Generator: Adobe Illustrator 17.0.0, SVG Export Plug-In . SVG Version: 6.00 Build 0)  -->
<!DOCTYPE svg PUBLIC "-//W3C//DTD SVG 1.1//EN" "http://www.w3.org/Graphics/SVG/1.1/DTD/svg11.dtd">
<svg version="1.1" id="Layer_2" xmlns="http://www.w3.org/2000/svg" xmlns:xlink="http://www.w3.org/1999/xlink" x="0px" y="0px"
	 width="60px" height="60px" viewBox="0 0 60 60" enable-background="new 0 0 60 60" xml:space="preserve">
<g>
	<path fill="#010101" d="M10.508,42.516L12,44.008L6.008,50l1.293,1.293l-4.5,4.5c-0.391,0.391-0.391,1.023,0,1.414
		C2.996,57.402,3.252,57.5,3.508,57.5s0.512-0.098,0.707-0.293l4.5-4.5L10.008,54L16,48.008l1.492,1.492l24.293-24.293l-6.984-6.984
		L10.508,42.516z"/>
	<path fill="#010101" d="M50.492,2.5l-1.93,1.934c0,0-0.001-0.002-0.002-0.003c-1.236-1.236-2.855-1.917-4.561-1.917
		c-1.706,0-3.325,0.681-4.56,1.917l-14,14c-0.586,0.586-0.586,1.535,0,2.121c0.293,0.293,0.677,0.44,1.061,0.44
		c0.384,0,0.768-0.146,1.06-0.44l14.001-14c1.338-1.339,3.54-1.339,4.878,0c0.001,0.001,0.004,0.002,0.005,0.003l-9.937,9.959
		l-0.293,0.293l6.984,6.984l0.293-0.293l14-14L50.492,2.5z"/>
</g>
</svg>
