<?xml version="1.0" encoding="utf-8"?>
<!-- Generator: Adobe Illustrator 17.0.0, SVG Export Plug-In . SVG Version: 6.00 Build 0)  -->
<!DOCTYPE svg PUBLIC "-//W3C//DTD SVG 1.1//EN" "http://www.w3.org/Graphics/SVG/1.1/DTD/svg11.dtd">
<svg version="1.1" id="Layer_2" xmlns="http://www.w3.org/2000/svg" xmlns:xlink="http://www.w3.org/1999/xlink" x="0px" y="0px"
	 width="60px" height="60px" viewBox="0 0 60 60" enable-background="new 0 0 60 60" xml:space="preserve">
<g>
	<path fill="#010101" d="M52.301,0.699l-1.938,1.942c-0.001,0-0.001-0.001-0.002-0.002c-1.236-1.236-2.855-1.917-4.561-1.917
		c-1.706,0-3.325,0.681-4.56,1.917l-14,14c-0.586,0.586-0.586,1.535,0,2.121c0.293,0.293,0.677,0.44,1.06,0.44
		s0.768-0.147,1.061-0.44l14.001-14c1.338-1.339,3.54-1.339,4.878,0c0.001,0.001,0.004,0.002,0.005,0.003l-9.929,9.952l-0.293,0.293
		l6.984,6.984l0.293-0.293l14-14L52.301,0.699z"/>
	
		<rect x="23.017" y="14.882" transform="matrix(-0.7071 -0.7071 0.7071 -0.7071 25.0531 74.4975)" fill="#010101" width="9.877" height="34.356"/>
	<path fill="#010101" d="M5.658,44.699c-2.223,2.223-4.156,9.707-4.959,13.188l6.895-6.895c0.391-0.391,1.023-0.391,1.414,0
		c0.391,0.391,0.391,1.023,0,1.414l-6.896,6.896c3.482-0.804,10.966-2.737,13.188-4.959c2.929-2.929,2.929-6.714,0-9.643
		C12.372,41.77,8.587,41.77,5.658,44.699z"/>
</g>
</svg>
