<?xml version="1.0" encoding="utf-8"?>
<!-- Generator: Adobe Illustrator 17.0.0, SVG Export Plug-In . SVG Version: 6.00 Build 0)  -->
<!DOCTYPE svg PUBLIC "-//W3C//DTD SVG 1.1//EN" "http://www.w3.org/Graphics/SVG/1.1/DTD/svg11.dtd">
<svg version="1.1" id="Layer_2" xmlns="http://www.w3.org/2000/svg" xmlns:xlink="http://www.w3.org/1999/xlink" x="0px" y="0px"
	 width="60px" height="60px" viewBox="0 0 60 60" enable-background="new 0 0 60 60" xml:space="preserve">
<g>
	<polygon fill="#010101" points="33.779,20.832 10.193,44.418 15.779,50.003 39.364,26.418 36.572,23.624 	"/>
	<polygon fill="#010101" points="5.635,54.56 14.015,51.069 9.127,46.18 	"/>
	<path fill="#010101" d="M48.779,5.832l-1.774,1.774c-0.055-0.083-0.092-0.176-0.165-0.249c-0.415-0.415-0.876-0.762-1.367-1.047
		c-0.97-0.564-2.061-0.87-3.194-0.87c-1.706,0-3.325,0.681-4.56,1.917l-14,14c-0.586,0.586-0.586,1.535,0,2.121
		c0.293,0.293,0.677,0.44,1.06,0.44s0.768-0.147,1.06-0.44l14-14c0.898-0.899,2.182-1.18,3.336-0.872
		c0.565,0.151,1.102,0.432,1.542,0.872c0.073,0.073,0.165,0.11,0.249,0.166l-9.774,9.774l5.586,5.586l13.586-13.586L48.779,5.832z"
		/>
</g>
</svg>
