<?xml version="1.0" encoding="utf-8"?>
<!-- Generator: Adobe Illustrator 17.0.0, SVG Export Plug-In . SVG Version: 6.00 Build 0)  -->
<!DOCTYPE svg PUBLIC "-//W3C//DTD SVG 1.1//EN" "http://www.w3.org/Graphics/SVG/1.1/DTD/svg11.dtd">
<svg version="1.1" id="Layer_2" xmlns="http://www.w3.org/2000/svg" xmlns:xlink="http://www.w3.org/1999/xlink" x="0px" y="0px"
	 width="60px" height="60px" viewBox="0 0 60 60" enable-background="new 0 0 60 60" xml:space="preserve">
<g>
	<path fill="#010101" d="M9.461,46.784c-0.391-0.391-1.023-0.391-1.414,0c-0.391,0.391-0.391,1.023,0,1.414l1.293,1.293
		l-5.293,5.293c-0.391,0.391-0.391,1.023,0,1.414c0.195,0.195,0.451,0.293,0.707,0.293c0.256,0,0.512-0.098,0.707-0.293l5.293-5.293
		l1.293,1.293c0.195,0.195,0.451,0.293,0.707,0.293c0.256,0,0.512-0.098,0.707-0.293c0.391-0.391,0.391-1.023,0-1.414L9.461,46.784z
		"/>
	<path fill="#010101" d="M49.246,3.991l-1.434,1.437c0,0-0.001-0.001-0.001-0.001c-1.236-1.237-2.856-1.917-4.562-1.917
		s-3.325,0.681-4.56,1.917l-14,14c-0.586,0.586-0.586,1.535,0,2.121c0.293,0.293,0.677,0.44,1.061,0.44
		c0.384,0,0.768-0.146,1.06-0.44l14.001-14c1.338-1.339,3.54-1.339,4.878,0c0.002,0.002,0.004,0.002,0.005,0.003L35.262,18.006
		l-0.293,0.293l6.984,6.984l0.293-0.293l14-14L49.246,3.991z"/>
	
		<rect x="19.962" y="18.174" transform="matrix(-0.7071 -0.7071 0.7071 -0.7071 17.51 77.957)" fill="#010101" width="9.877" height="34.355"/>
</g>
</svg>
