<?xml version="1.0" encoding="utf-8"?>
<!-- Generator: Adobe Illustrator 17.0.0, SVG Export Plug-In . SVG Version: 6.00 Build 0)  -->
<!DOCTYPE svg PUBLIC "-//W3C//DTD SVG 1.1//EN" "http://www.w3.org/Graphics/SVG/1.1/DTD/svg11.dtd">
<svg version="1.1" id="Layer_2" xmlns="http://www.w3.org/2000/svg" xmlns:xlink="http://www.w3.org/1999/xlink" x="0px" y="0px"
	 width="60px" height="60px" viewBox="0 0 60 60" enable-background="new 0 0 60 60" xml:space="preserve">
<g>
	<path fill="#010101" d="M56.518,9.828l-6.343-6.342c-1.316-1.316-3.633-1.317-4.95,0l-3.466,3.462L53.052,18.24l3.466-3.462
		C57.882,13.414,57.882,11.192,56.518,9.828z"/>
	<polygon fill="#010101" points="16.7,44.717 16.7,50.768 18.972,52.283 47.642,23.644 42.704,18.713 	"/>
	<polygon fill="#010101" points="15.286,43.303 41.289,17.299 36.342,12.359 7.687,40.982 9.235,43.303 	"/>
	<polygon fill="#010101" points="37.757,10.945 49.057,22.231 51.637,19.654 40.344,8.361 	"/>
	<path fill="#010101" d="M14.7,51.303v-6h-6c-0.334,0-0.646-0.167-0.832-0.445l-1.172-1.758l-1.769,6.016l5.921,5.92l6.001-1.765
		l-1.703-1.135C14.867,51.949,14.7,51.637,14.7,51.303z"/>
	<polygon fill="#010101" points="2.459,57.502 8.661,55.678 4.283,51.3 	"/>
</g>
</svg>
