<?xml version="1.0" encoding="utf-8"?>
<!-- Generator: Adobe Illustrator 17.0.0, SVG Export Plug-In . SVG Version: 6.00 Build 0)  -->
<!DOCTYPE svg PUBLIC "-//W3C//DTD SVG 1.1//EN" "http://www.w3.org/Graphics/SVG/1.1/DTD/svg11.dtd">
<svg version="1.1" id="Layer_2" xmlns="http://www.w3.org/2000/svg" xmlns:xlink="http://www.w3.org/1999/xlink" x="0px" y="0px"
	 width="60px" height="60px" viewBox="0 0 60 60" enable-background="new 0 0 60 60" xml:space="preserve">
<path fill="#010101" d="M59.707,18.293l-18-18c-0.391-0.391-1.023-0.391-1.414,0l-5,5c-0.391,0.391-0.391,1.023,0,1.414L37.586,9
	l-11,11H16c-0.265,0-0.52,0.106-0.707,0.293l-4,4c-0.391,0.391-0.391,1.023,0,1.414L22.086,36.5L0.293,58.293
	c-0.391,0.391-0.391,1.023,0,1.414C0.488,59.902,0.744,60,1,60s0.512-0.098,0.707-0.293L23.5,37.914l10.793,10.793
	C34.488,48.902,34.744,49,35,49c0.256,0,0.512-0.098,0.707-0.293l4-4C39.894,44.52,40,44.265,40,44V33.414l11-11l2.293,2.293
	c0.391,0.391,1.023,0.391,1.414,0l5-5C60.098,19.316,60.098,18.684,59.707,18.293z"/>
</svg>
