<?xml version="1.0" encoding="utf-8"?>
<!-- Generator: Adobe Illustrator 17.0.0, SVG Export Plug-In . SVG Version: 6.00 Build 0)  -->
<!DOCTYPE svg PUBLIC "-//W3C//DTD SVG 1.1//EN" "http://www.w3.org/Graphics/SVG/1.1/DTD/svg11.dtd">
<svg version="1.1" id="Layer_2" xmlns="http://www.w3.org/2000/svg" xmlns:xlink="http://www.w3.org/1999/xlink" x="0px" y="0px"
	 width="60px" height="60px" viewBox="0 0 60 60" enable-background="new 0 0 60 60" xml:space="preserve">
<path fill="#010101" d="M43.788,20H32.631L44.627,1.545c0.2-0.308,0.215-0.7,0.041-1.022C44.492,0.201,44.155,0,43.788,0h-21
	c-0.465,0-0.868,0.32-0.974,0.773l-7,30c-0.069,0.297,0,0.61,0.19,0.849C15.194,31.86,15.483,32,15.788,32h8.674l-7.636,26.725
	c-0.135,0.472,0.092,0.971,0.536,1.18C17.5,59.969,17.645,60,17.788,60c0.321,0,0.634-0.155,0.826-0.435l26-38
	c0.209-0.306,0.232-0.703,0.059-1.031C44.5,20.205,44.159,20,43.788,20z"/>
</svg>
