<?xml version="1.0" encoding="utf-8"?>
<!-- Generator: Adobe Illustrator 17.0.0, SVG Export Plug-In . SVG Version: 6.00 Build 0)  -->
<!DOCTYPE svg PUBLIC "-//W3C//DTD SVG 1.1//EN" "http://www.w3.org/Graphics/SVG/1.1/DTD/svg11.dtd">
<svg version="1.1" id="Layer_2" xmlns="http://www.w3.org/2000/svg" xmlns:xlink="http://www.w3.org/1999/xlink" x="0px" y="0px"
	 width="60px" height="60px" viewBox="0 0 60 60" enable-background="new 0 0 60 60" xml:space="preserve">
<g>
	<path fill="#010101" d="M30.068,25c-4.962,0-9,4.037-9,9c0,4.963,4.038,9,9,9s9-4.037,9-9C39.068,29.037,35.03,25,30.068,25z
		 M30.068,40c-3.309,0-6-2.691-6-6c0-0.552,0.448-1,1-1c0.552,0,1,0.448,1,1c0,2.206,1.794,4,4,4c2.206,0,4-1.794,4-4
		c0-2.206-1.794-4-4-4c-0.552,0-1-0.448-1-1c0-0.552,0.448-1,1-1c3.309,0,6,2.691,6,6C36.068,37.309,33.376,40,30.068,40z"/>
	<path fill="#010101" d="M59.844,33.37c-0.135-0.167-3.382-4.139-8.664-8.166C46.269,21.462,38.62,17,30.068,17
		s-16.202,4.462-21.112,8.205c-5.282,4.026-8.529,7.998-8.664,8.166C0,33.729-0.008,34.24,0.273,34.607
		C0.815,35.317,13.744,52,30.068,52S59.32,35.317,59.863,34.607C60.143,34.24,60.135,33.729,59.844,33.37z M30.068,45
		c-6.065,0-11-4.935-11-11c0-6.065,4.935-11,11-11s11,4.935,11,11C41.068,40.065,36.133,45,30.068,45z"/>
</g>
</svg>
