<?xml version="1.0" encoding="utf-8"?>
<!-- Generator: Adobe Illustrator 17.0.0, SVG Export Plug-In . SVG Version: 6.00 Build 0)  -->
<!DOCTYPE svg PUBLIC "-//W3C//DTD SVG 1.1//EN" "http://www.w3.org/Graphics/SVG/1.1/DTD/svg11.dtd">
<svg version="1.1" id="Layer_2" xmlns="http://www.w3.org/2000/svg" xmlns:xlink="http://www.w3.org/1999/xlink" x="0px" y="0px"
	 width="60px" height="60px" viewBox="0 0 60 60" enable-background="new 0 0 60 60" xml:space="preserve">
<path fill="#010101" d="M49.578,37.241c-3.285,0-6.215,1.531-8.127,3.913c-0.636-2.938-1.707-5.755-3.177-8.361
	c1.47-2.606,2.541-5.422,3.177-8.361c1.912,2.382,4.842,3.913,8.126,3.913C55.325,28.345,60,23.669,60,17.922
	C60,12.175,55.325,7.5,49.578,7.5c-5.747,0-10.422,4.675-10.422,10.422c0,4.388-1.028,8.665-2.983,12.476
	c-5.189-7.239-13.358-11.493-22.285-11.493c-2.685,0-11.089,1.374-13.488,3.174c-0.305,0.228-0.453,0.61-0.383,0.985
	c0.071,0.374,0.348,0.676,0.714,0.778l32.089,8.938L0.73,41.788c-0.366,0.103-0.643,0.404-0.713,0.778s0.078,0.755,0.382,0.984
	c2.407,1.809,10.708,3.131,13.489,3.131c8.925,0,17.095-4.256,22.284-11.494c1.955,3.811,2.984,8.088,2.984,12.477
	c0,5.747,4.675,10.422,10.422,10.422C55.325,58.086,60,53.411,60,47.664C60,41.917,55.325,37.241,49.578,37.241z M49.578,10.5
	C53.67,10.5,57,13.83,57,17.922c0,4.093-3.33,7.422-7.422,7.422c-4.093,0-7.422-3.33-7.422-7.422
	C42.155,13.83,45.485,10.5,49.578,10.5z M49.578,55.086c-4.093,0-7.422-3.33-7.422-7.422c0-4.093,3.33-7.423,7.422-7.423
	c4.093,0,7.422,3.33,7.422,7.423C57,51.756,53.67,55.086,49.578,55.086z"/>
</svg>
