<?xml version="1.0" encoding="utf-8"?>
<!-- Generator: Adobe Illustrator 17.0.0, SVG Export Plug-In . SVG Version: 6.00 Build 0)  -->
<!DOCTYPE svg PUBLIC "-//W3C//DTD SVG 1.1//EN" "http://www.w3.org/Graphics/SVG/1.1/DTD/svg11.dtd">
<svg version="1.1" id="Layer_2" xmlns="http://www.w3.org/2000/svg" xmlns:xlink="http://www.w3.org/1999/xlink" x="0px" y="0px"
	 width="60px" height="60px" viewBox="0 0 60 60" enable-background="new 0 0 60 60" xml:space="preserve">
<g>
	<path fill="#010101" d="M53.879,25.994C46.9,25.928,43.055,22.033,43.055,15c0-0.552,0.448-1,1-1s1,0.448,1,1
		c0,0.356,0.012,0.699,0.034,1.034c0.317,4.952,2.981,7.615,7.933,7.933c0.179,0.011,0.367,0.013,0.551,0.018
		C51.39,12.873,42.007,5,30.055,5S8.721,12.873,6.538,23.984c0.185-0.005,0.373-0.007,0.551-0.018
		c4.952-0.317,7.615-2.981,7.933-7.933c0.021-0.335,0.034-0.678,0.034-1.034c0-0.552,0.448-1,1-1s1,0.448,1,1
		c0,7.033-3.845,10.928-10.823,10.994C6.12,26.976,6.055,27.977,6.055,29v6c0,7.488,5.195,13.428,12,13.961V60h1h1h6V48
		c0-0.552,0.448-1,1-1c0.552,0,1,0.448,1,1v12h4V48c0-0.552,0.448-1,1-1s1,0.448,1,1v12h6h1h1V48.961
		c6.805-0.533,12-6.473,12-13.961v-6C54.055,27.977,53.991,26.976,53.879,25.994z M19.055,43c-4.418,0-8-3.581-8-8
		c0-4.418,3.582-8,8-8c4.419,0,8,3.582,8,8C27.055,39.419,23.474,43,19.055,43z M31.38,43.827c-0.007,0-0.013,0-0.02,0h-2.522
		c-0.347,0-0.668-0.179-0.851-0.474c-0.182-0.295-0.199-0.663-0.044-0.973l1.261-2.522c0.339-0.677,1.45-0.677,1.789,0l1.181,2.362
		c0.129,0.169,0.206,0.379,0.206,0.608C32.38,43.379,31.932,43.827,31.38,43.827z M41.055,43c-4.418,0-8-3.581-8-8
		c0-4.418,3.582-8,8-8c4.419,0,8,3.582,8,8C49.055,39.419,45.474,43,41.055,43z"/>
	<path fill="#010101" d="M41.055,29c-3.308,0-6,2.691-6,6c0,3.309,2.692,6,6,6s6-2.691,6-6C47.055,31.691,44.364,29,41.055,29z"/>
	<path fill="#010101" d="M19.055,29c-3.308,0-6,2.691-6,6c0,3.309,2.692,6,6,6s6-2.691,6-6C25.055,31.691,22.364,29,19.055,29z"/>
</g>
</svg>
