<?xml version="1.0" encoding="utf-8"?>
<!-- Generator: Adobe Illustrator 17.1.0, SVG Export Plug-In . SVG Version: 6.00 Build 0)  -->
<!DOCTYPE svg PUBLIC "-//W3C//DTD SVG 1.0//EN" "http://www.w3.org/TR/2001/REC-SVG-20010904/DTD/svg10.dtd">
<svg version="1.0" id="Layer_1" xmlns="http://www.w3.org/2000/svg" xmlns:xlink="http://www.w3.org/1999/xlink" x="0px" y="0px"
	 width="60px" height="60px" viewBox="0 0 60 60" enable-background="new 0 0 60 60" xml:space="preserve">
<g>
	<path d="M44,18.521c0,3.038,4.2,5.905,7.918,6.396C52.284,24.966,52.647,25,53,25v-3C53,9.869,42.682,0,30,0S7,9.869,7,22v3
		c0.285,0,0.566-0.022,0.844-0.055c3.413-0.4,6.156-3.176,6.156-6.424V17.25V16h2v2.521C16,23.117,11.878,27,7,27v16
		c0,3.714,2.469,6.496,6,6.938v4.018C13,57.289,15.691,60,19,60h2V48.913c0-0.552,0.448-1,1-1s1,0.448,1,1V60h6V49
		c0-0.552,0.448-1,1-1s1,0.448,1,1v11h6V48.913c0-0.552,0.448-1,1-1s1,0.448,1,1V60h2c3.309,0,6-2.711,6-6.043v-4.018
		c3.531-0.442,6-3.224,6-6.938V27c-4.43,0-11-3.56-11-8.479V16h2v1V18.521z M20,43c-4.411,0-8-3.589-8-8s3.589-8,8-8s8,3.589,8,8
		S24.411,43,20,43z M33,45h-6v-1c0-1.157,1.373-3,3-3s3,1.843,3,3V45z M48,35c0,4.411-3.589,8-8,8s-8-3.589-8-8s3.589-8,8-8
		S48,30.589,48,35z"/>
	<path d="M34,35c0,3.309,2.691,6,6,6s6-2.691,6-6s-2.691-6-6-6S34,31.691,34,35z"/>
	<path d="M20,29c-3.309,0-6,2.691-6,6s2.691,6,6,6s6-2.691,6-6S23.309,29,20,29z"/>
</g>
</svg>
