<?xml version="1.0" encoding="utf-8"?>
<!-- Generator: Adobe Illustrator 17.0.0, SVG Export Plug-In . SVG Version: 6.00 Build 0)  -->
<!DOCTYPE svg PUBLIC "-//W3C//DTD SVG 1.1//EN" "http://www.w3.org/Graphics/SVG/1.1/DTD/svg11.dtd">
<svg version="1.1" id="Layer_2" xmlns="http://www.w3.org/2000/svg" xmlns:xlink="http://www.w3.org/1999/xlink" x="0px" y="0px"
	 width="60px" height="60px" viewBox="0 0 60 60" enable-background="new 0 0 60 60" xml:space="preserve">
<path fill="#010101" d="M58.028,20H47.23c0.754-3.701,3.644-6,7.798-6c1.104,0,2-0.895,2-2c0-1.104-0.896-2-2-2
	c-4.369,0-7.923,1.887-10,4.998c-2.077-3.111-5.631-4.998-10-4.998c-1.105,0-2,0.896-2,2c0,1.105,0.895,2,2,2
	c4.154,0,7.044,2.299,7.798,6H2.028c-1.105,0-2,0.896-2,2v22c0,1.105,0.896,2,2,2h40.798c-0.754,3.701-3.644,6-7.798,6
	c-1.105,0-2,0.896-2,2c0,1.105,0.895,2,2,2c4.369,0,7.923-1.887,10-4.998c2.077,3.111,5.631,4.998,10,4.998c1.104,0,2-0.895,2-2
	c0-1.104-0.896-2-2-2c-4.154,0-7.044-2.299-7.798-6h10.798c1.104,0,2-0.895,2-2V22C60.028,20.896,59.132,20,58.028,20z M43.028,42
	h-39V24h39V42z M56.028,42h-9V24h9V42z"/>
</svg>
