<?xml version="1.0" encoding="utf-8"?>
<!-- Generator: Adobe Illustrator 17.0.0, SVG Export Plug-In . SVG Version: 6.00 Build 0)  -->
<!DOCTYPE svg PUBLIC "-//W3C//DTD SVG 1.1//EN" "http://www.w3.org/Graphics/SVG/1.1/DTD/svg11.dtd">
<svg version="1.1" id="Layer_2" xmlns="http://www.w3.org/2000/svg" xmlns:xlink="http://www.w3.org/1999/xlink" x="0px" y="0px"
	 width="60px" height="60px" viewBox="0 0 60 60" enable-background="new 0 0 60 60" xml:space="preserve">
<g>
	<path fill="#010101" d="M58,19H2c-1.105,0-2,0.896-2,2v24c0,1.105,0.895,2,2,2h56c1.104,0,2-0.895,2-2V21
		C60,19.896,59.104,19,58,19z M56,43H4V23h52V43z"/>
	<path fill="#010101" d="M10,41c1.104,0,2-0.895,2-2V26.739c0-1.104-0.896-2-2-2c-1.105,0-2,0.896-2,2V39C8,40.105,8.895,41,10,41z"
		/>
</g>
</svg>
