<?xml version="1.0" encoding="utf-8"?>
<!-- Generator: Adobe Illustrator 17.0.0, SVG Export Plug-In . SVG Version: 6.00 Build 0)  -->
<!DOCTYPE svg PUBLIC "-//W3C//DTD SVG 1.1//EN" "http://www.w3.org/Graphics/SVG/1.1/DTD/svg11.dtd">
<svg version="1.1" id="Layer_2" xmlns="http://www.w3.org/2000/svg" xmlns:xlink="http://www.w3.org/1999/xlink" x="0px" y="0px"
	 width="60px" height="60px" viewBox="0 0 60 60" enable-background="new 0 0 60 60" xml:space="preserve">
<path fill="#010101" d="M59.414,56.586L37.189,34.361C40.193,30.728,42,26.071,42,21C42,9.42,32.58,0,21,0C9.42,0,0,9.42,0,21
	c0,11.58,9.42,21,21,21c5.071,0,9.728-1.807,13.361-4.811l22.225,22.225C56.976,59.805,57.488,60,58,60
	c0.512,0,1.024-0.195,1.414-0.586C60.195,58.633,60.195,57.367,59.414,56.586z M30,23h-7v7c0,1.105-0.896,2-2,2
	c-1.105,0-2-0.895-2-2v-7h-7c-1.105,0-2-0.895-2-2c0-1.104,0.895-2,2-2h7v-7c0-1.104,0.895-2,2-2c1.104,0,2,0.896,2,2v7h7
	c1.104,0,2,0.896,2,2C32,22.105,31.104,23,30,23z"/>
</svg>
