<?xml version="1.0" encoding="utf-8"?>
<!-- Generator: Adobe Illustrator 17.0.0, SVG Export Plug-In . SVG Version: 6.00 Build 0)  -->
<!DOCTYPE svg PUBLIC "-//W3C//DTD SVG 1.1//EN" "http://www.w3.org/Graphics/SVG/1.1/DTD/svg11.dtd">
<svg version="1.1" id="Layer_2" xmlns="http://www.w3.org/2000/svg" xmlns:xlink="http://www.w3.org/1999/xlink" x="0px" y="0px"
	 width="60px" height="60px" viewBox="0 0 60 60" enable-background="new 0 0 60 60" xml:space="preserve">
<g>
	<path fill="#010101" d="M44.995,0c-8.271,0-15,6.729-15,15s6.729,15,15,15s15-6.729,15-15S53.266,0,44.995,0z M50.702,19.019
		c0.391,0.391,0.391,1.023,0,1.414c-0.195,0.195-0.451,0.293-0.707,0.293c-0.256,0-0.512-0.098-0.707-0.293l-4.156-4.156
		l-4.156,4.156c-0.195,0.195-0.451,0.293-0.707,0.293c-0.256,0-0.512-0.098-0.707-0.293c-0.391-0.391-0.391-1.023,0-1.414
		l4.156-4.156l-4.156-4.156c-0.391-0.391-0.391-1.023,0-1.414c0.391-0.391,1.023-0.391,1.414,0l4.156,4.156l4.156-4.156
		c0.391-0.391,1.023-0.391,1.414,0c0.391,0.391,0.391,1.023,0,1.414l-4.156,4.156L50.702,19.019z"/>
	<path fill="#010101" d="M42.848,40.666c-1.142-1.142-2.659-1.77-4.274-1.77c-1.615,0-3.133,0.629-4.274,1.77l-1.14,1.14
		c-5.356-4.463-10.503-9.61-14.967-14.968l1.142-1.14c2.353-2.356,2.353-6.19-0.001-8.547l-5.351-5.348
		c-1.141-1.142-2.659-1.77-4.273-1.77c-1.614,0-3.132,0.628-4.275,1.77l-2.933,2.934c-2.862,2.862-3.317,7.394-1.082,10.777
		c8.611,13.018,20.044,24.452,33.065,33.066C35.892,59.508,37.526,60,39.211,60c2.288,0,4.438-0.889,6.051-2.503l2.934-2.935
		c1.142-1.141,1.771-2.659,1.771-4.273c0-1.614-0.629-3.131-1.771-4.273L42.848,40.666z"/>
</g>
</svg>
