<?xml version="1.0" encoding="utf-8"?>
<!-- Generator: Adobe Illustrator 17.0.0, SVG Export Plug-In . SVG Version: 6.00 Build 0)  -->
<!DOCTYPE svg PUBLIC "-//W3C//DTD SVG 1.1//EN" "http://www.w3.org/Graphics/SVG/1.1/DTD/svg11.dtd">
<svg version="1.1" id="Layer_2" xmlns="http://www.w3.org/2000/svg" xmlns:xlink="http://www.w3.org/1999/xlink" x="0px" y="0px"
	 width="60px" height="60px" viewBox="0 0 60 60" enable-background="new 0 0 60 60" xml:space="preserve">
<g>
	<path fill="#010101" d="M46.091,40.666c-1.142-1.141-2.66-1.77-4.274-1.77c-1.614,0-3.132,0.628-4.274,1.77l-1.139,1.14
		c-5.356-4.464-10.503-9.611-14.968-14.97l1.14-1.139c1.142-1.142,1.771-2.659,1.771-4.274c0-1.614-0.629-3.132-1.771-4.272
		l-5.349-5.35c-1.141-1.142-2.659-1.77-4.273-1.77c-1.615,0-3.132,0.628-4.273,1.77l-2.935,2.934
		c-2.863,2.863-3.318,7.395-1.082,10.777c8.616,13.022,20.049,24.455,33.065,33.065c1.407,0.93,3.041,1.422,4.726,1.422
		c2.288,0,4.437-0.89,6.051-2.504l2.935-2.934c1.142-1.141,1.77-2.659,1.77-4.273c0-1.614-0.628-3.132-1.77-4.273L46.091,40.666z"/>
	<path fill="#010101" d="M43.228,22.051h-7.34c0,0,6.937-4.898,6.937-8.993c0-2.346-1.463-4.768-4.994-4.768
		c-1.892,0-3.506,0.707-4.641,1.665l0.706,1.563c0.757-0.63,1.992-1.413,3.48-1.413c2.446,0,3.254,1.564,3.254,3.229
		c-0.025,2.472-2.258,3.681-6.42,7.665l-1.45,1.505V24h10.468V22.051z"/>
	<path fill="#010101" d="M54.21,18V8h-1.93l-7.07,10.051V20h7v4h2v-4h2.762v-2H54.21z M52.21,18l-5,0.051
		c0-0.063,4.997-7.052,5-7.051C52.21,11,52.21,17.998,52.21,18z"/>
</g>
</svg>
