<?xml version="1.0" encoding="utf-8"?>
<!-- Generator: Adobe Illustrator 17.0.0, SVG Export Plug-In . SVG Version: 6.00 Build 0)  -->
<!DOCTYPE svg PUBLIC "-//W3C//DTD SVG 1.1//EN" "http://www.w3.org/Graphics/SVG/1.1/DTD/svg11.dtd">
<svg version="1.1" id="Layer_2" xmlns="http://www.w3.org/2000/svg" xmlns:xlink="http://www.w3.org/1999/xlink" x="0px" y="0px"
	 width="60px" height="60px" viewBox="0 0 60 60" enable-background="new 0 0 60 60" xml:space="preserve">
<g>
	<path fill="#010101" d="M42.855,40.661c-1.141-1.142-2.658-1.771-4.273-1.771c-1.614,0-3.132,0.629-4.274,1.77l-1.141,1.14
		c-5.36-4.467-10.506-9.614-14.967-14.969l1.141-1.14c2.352-2.356,2.352-6.19,0-8.546l-5.351-5.35
		c-1.141-1.141-2.658-1.769-4.272-1.769c-1.614,0-3.132,0.628-4.274,1.769l-2.934,2.935c-2.863,2.862-3.318,7.395-1.082,10.778
		c8.614,13.021,20.047,24.455,33.065,33.065c1.407,0.93,3.042,1.421,4.728,1.421c2.288,0,4.437-0.889,6.05-2.503l2.935-2.935
		c2.356-2.355,2.356-6.189,0-8.546L42.855,40.661z"/>
	<path fill="#010101" d="M59.707,0.293c-0.391-0.391-1.023-0.391-1.414,0L34,24.586V9.823c0-0.552-0.448-1-1-1c-0.552,0-1,0.448-1,1
		V27c0,0.13,0.027,0.26,0.077,0.382c0.102,0.244,0.296,0.439,0.541,0.541C32.74,27.973,32.87,28,33,28h17.176c0.552,0,1-0.448,1-1
		c0-0.552-0.448-1-1-1H35.414L59.707,1.707C60.098,1.316,60.098,0.684,59.707,0.293z"/>
</g>
</svg>
