<?xml version="1.0" encoding="utf-8"?>
<!-- Generator: Adobe Illustrator 17.0.0, SVG Export Plug-In . SVG Version: 6.00 Build 0)  -->
<!DOCTYPE svg PUBLIC "-//W3C//DTD SVG 1.1//EN" "http://www.w3.org/Graphics/SVG/1.1/DTD/svg11.dtd">
<svg version="1.1" id="Layer_2" xmlns="http://www.w3.org/2000/svg" xmlns:xlink="http://www.w3.org/1999/xlink" x="0px" y="0px"
	 width="60px" height="60px" viewBox="0 0 60 60" enable-background="new 0 0 60 60" xml:space="preserve">
<g>
	<path fill="#010101" d="M51.894,9.521L31.552,29.862c1.751,1.74,3.569,3.41,5.427,4.967l0.686-0.686
		c0.9-0.899,2.096-1.395,3.368-1.395c1.272,0,2.468,0.496,3.367,1.395l3.99,3.99c0.899,0.9,1.395,2.096,1.395,3.368
		c0,1.272-0.496,2.468-1.395,3.367l-2.189,2.189C44.951,48.31,43.284,49,41.509,49c-1.307,0-2.575-0.381-3.667-1.102
		c-4.79-3.168-9.288-6.851-13.395-10.931L9.521,51.894C14.887,56.916,22.088,60,30,60c16.542,0,30-13.458,30-30
		C60,22.088,56.916,14.887,51.894,9.521z"/>
	<path fill="#010101" d="M13.105,23.16c-1.734-2.624-1.381-6.139,0.839-8.36l2.189-2.189c0.9-0.899,2.096-1.395,3.368-1.395
		c1.272,0,2.468,0.495,3.367,1.395l3.992,3.991c1.854,1.857,1.854,4.878,0,6.734l-0.687,0.687c1.258,1.501,2.604,2.967,3.987,4.404
		l20.32-20.32C45.114,3.084,37.912,0,30,0C13.458,0,0,13.458,0,30c0,7.912,3.084,15.114,8.107,20.48l14.952-14.952
		C19.374,31.698,16.015,27.559,13.105,23.16z"/>
</g>
</svg>
