<?xml version="1.0" encoding="utf-8"?>
<!-- Generator: Adobe Illustrator 17.0.0, SVG Export Plug-In . SVG Version: 6.00 Build 0)  -->
<!DOCTYPE svg PUBLIC "-//W3C//DTD SVG 1.1//EN" "http://www.w3.org/Graphics/SVG/1.1/DTD/svg11.dtd">
<svg version="1.1" id="Layer_2" xmlns="http://www.w3.org/2000/svg" xmlns:xlink="http://www.w3.org/1999/xlink" x="0px" y="0px"
	 width="60px" height="60px" viewBox="0 0 60 60" enable-background="new 0 0 60 60" xml:space="preserve">
<g>
	<path fill="#010101" d="M44.056,38.85c0.03-0.574-0.159-1.095-0.533-1.469l-3.236-3.237c-0.77-0.769-2.248-0.654-3.142,0.239
		l-1.199,1.199c-0.36,0.36-0.934,0.392-1.333,0.073c-3.658-2.933-7.14-6.415-10.068-10.07c-0.319-0.398-0.287-0.972,0.073-1.333
		l1.197-1.198c0.932-0.933,1.039-2.342,0.24-3.142l-3.237-3.237c-0.345-0.345-0.825-0.535-1.352-0.535
		c-0.646,0-1.298,0.282-1.79,0.774l-1.973,1.973c-1.371,1.372-1.704,3.421-0.789,4.872c4.941,7.833,11.694,14.585,19.526,19.526
		c1.413,0.892,3.538,0.544,4.871-0.789l1.973-1.974C43.749,40.057,44.023,39.463,44.056,38.85z"/>
	<path fill="#010101" d="M30.213,0c-16.542,0-30,13.458-30,30s13.458,30,30,30s30-13.458,30-30S46.755,0,30.213,0z M49.226,42.984
		c2.635-3.839,4.027-8.34,4.027-13.014c0-12.696-10.33-23.026-23.026-23.026c-12.696,0-23.026,10.33-23.026,23.026
		c0,12.697,10.33,23.026,23.026,23.026c6.09,0,10.109-1.614,11.623-4.667c0.775-1.562,0.725-3.111,0.527-4.104
		c-1.157,1.003-2.625,1.575-4.1,1.575c-1.046,0-2.051-0.285-2.905-0.824c-8.083-5.098-15.051-12.066-20.151-20.15
		c-1.407-2.234-0.958-5.326,1.067-7.353l1.974-1.973c0.865-0.864,2.032-1.36,3.204-1.36c1.061,0,2.043,0.398,2.766,1.121
		l3.237,3.237c1.58,1.579,1.472,4.257-0.239,5.97l-0.56,0.56c2.526,3.059,5.439,5.972,8.5,8.501l0.561-0.561
		c0.865-0.865,2.033-1.361,3.205-1.361c1.06,0,2.043,0.398,2.766,1.122l3.236,3.237c0.78,0.779,1.177,1.841,1.116,2.988
		c-0.058,1.107-0.539,2.167-1.354,2.981l-0.717,0.717c0.562,1.324,0.865,3.707-0.114,6.07c-1.186,2.862-4.515,6.274-13.641,6.274
		c-13.799,0-25.026-11.227-25.026-25.026c0-13.799,11.227-25.026,25.026-25.026c13.8,0,25.026,11.227,25.026,25.026
		c0,5.08-1.514,9.972-4.378,14.146c-0.312,0.455-0.935,0.571-1.391,0.259C49.03,44.063,48.914,43.44,49.226,42.984z"/>
</g>
</svg>
