<?xml version="1.0" encoding="utf-8"?>
<!-- Generator: Adobe Illustrator 17.0.0, SVG Export Plug-In . SVG Version: 6.00 Build 0)  -->
<!DOCTYPE svg PUBLIC "-//W3C//DTD SVG 1.1//EN" "http://www.w3.org/Graphics/SVG/1.1/DTD/svg11.dtd">
<svg version="1.1" id="Layer_2" xmlns="http://www.w3.org/2000/svg" xmlns:xlink="http://www.w3.org/1999/xlink" x="0px" y="0px"
	 width="60px" height="60px" viewBox="0 0 60 60" enable-background="new 0 0 60 60" xml:space="preserve">
<g>
	<path fill="#010101" d="M42.842,40.661c-1.141-1.142-2.659-1.771-4.273-1.771c-1.614,0-3.132,0.629-4.273,1.771l-1.14,1.14
		c-5.361-4.467-10.507-9.615-14.967-14.969l1.14-1.14c2.355-2.357,2.355-6.19,0-8.547l-5.35-5.35
		c-1.141-1.141-2.659-1.769-4.273-1.769c-1.614,0-3.132,0.628-4.274,1.769l-2.934,2.935c-2.862,2.862-3.317,7.394-1.082,10.778
		c8.612,13.02,20.046,24.453,33.065,33.065c1.407,0.93,3.042,1.421,4.727,1.421c2.288,0,4.436-0.889,6.049-2.503l2.936-2.935
		c2.355-2.355,2.355-6.189,0-8.546L42.842,40.661z"/>
	<path fill="#010101" d="M29.988,0c-0.552,0-1,0.448-1,1c0,0.552,0.448,1,1,1c15.44,0,28,12.561,28,28c0,0.552,0.448,1,1,1
		s1-0.448,1-1C59.988,13.458,46.53,0,29.988,0z"/>
	<path fill="#010101" d="M29.988,12.087c9.877,0,17.913,8.036,17.913,17.913c0,0.552,0.448,1,1,1c0.552,0,1-0.448,1-1
		c0-10.98-8.933-19.913-19.913-19.913c-0.552,0-1,0.448-1,1C28.988,11.639,29.435,12.087,29.988,12.087z"/>
	<path fill="#010101" d="M29.988,22.174c4.315,0,7.826,3.511,7.826,7.826c0,0.552,0.448,1,1,1c0.552,0,1-0.448,1-1
		c0-5.418-4.408-9.826-9.826-9.826c-0.552,0-1,0.448-1,1C28.988,21.726,29.435,22.174,29.988,22.174z"/>
</g>
</svg>
