<?xml version="1.0" encoding="utf-8"?>
<!-- Generator: Adobe Illustrator 17.0.0, SVG Export Plug-In . SVG Version: 6.00 Build 0)  -->
<!DOCTYPE svg PUBLIC "-//W3C//DTD SVG 1.1//EN" "http://www.w3.org/Graphics/SVG/1.1/DTD/svg11.dtd">
<svg version="1.1" id="Layer_2" xmlns="http://www.w3.org/2000/svg" xmlns:xlink="http://www.w3.org/1999/xlink" x="0px" y="0px"
	 width="60px" height="60px" viewBox="0 0 60 60" enable-background="new 0 0 60 60" xml:space="preserve">
<g>
	<path fill="#010101" d="M8,7c0-2.61,2.506-3,4-3h43c0.552,0,1-0.448,1-1c0-0.552-0.448-1-1-1H12C8.299,2,6,3.916,6,7v8.5h4
		c1.103,0,2,0.897,2,2s-0.897,2-2,2H6v4.375h4c1.103,0,2,0.897,2,2s-0.897,2-2,2H6v4.375h4c1.103,0,2,0.897,2,2s-0.897,2-2,2H6
		v4.375h4c1.103,0,2,0.897,2,2s-0.897,2-2,2H6V49h4c1.103,0,2,0.897,2,2s-0.897,2-2,2H6v1c0,3.364,2.636,6,6,6h44V10H12
		C10.506,10,8,9.61,8,7z M17.862,21.154l1.851-1.85c0.789-0.79,1.84-1.226,2.958-1.226c1.117,0,2.167,0.435,2.958,1.223l3.374,3.376
		c0.788,0.786,1.223,1.834,1.224,2.95c0,1.119-0.435,2.171-1.227,2.963l-0.48,0.48c2.688,3.191,5.747,6.248,8.922,8.918l0.48-0.479
		c0.788-0.789,1.838-1.225,2.955-1.225c1.118,0,2.168,0.436,2.957,1.226l3.374,3.373c0.791,0.788,1.226,1.838,1.226,2.957
		c0,1.117-0.436,2.167-1.225,2.958l-1.852,1.85c-1.086,1.087-2.534,1.686-4.076,1.686c-1.136,0-2.238-0.331-3.186-0.958
		c-8.258-5.461-15.506-12.709-20.96-20.962C15.627,26.137,15.933,23.084,17.862,21.154z"/>
	<path fill="#010101" d="M12.13,6c-0.552,0-1,0.448-1,1c0,0.552,0.448,1,1,1h40.348c0.552,0,1-0.448,1-1c0-0.552-0.448-1-1-1H12.13z
		"/>
	<path fill="#010101" d="M4,18.5h6c0.551,0,1-0.449,1-1c0-0.551-0.449-1-1-1H4c-0.551,0-1,0.449-1,1C3,18.051,3.449,18.5,4,18.5z"/>
	<path fill="#010101" d="M4,26.875h6c0.551,0,1-0.449,1-1c0-0.551-0.449-1-1-1H4c-0.551,0-1,0.449-1,1
		C3,26.426,3.449,26.875,4,26.875z"/>
	<path fill="#010101" d="M4,35.25h6c0.551,0,1-0.449,1-1c0-0.551-0.449-1-1-1H4c-0.551,0-1,0.449-1,1C3,34.801,3.449,35.25,4,35.25z
		"/>
	<path fill="#010101" d="M4,43.625h6c0.551,0,1-0.449,1-1c0-0.551-0.449-1-1-1H4c-0.551,0-1,0.449-1,1
		C3,43.176,3.449,43.625,4,43.625z"/>
	<path fill="#010101" d="M11,51c0-0.551-0.449-1-1-1H4c-0.551,0-1,0.449-1,1c0,0.551,0.449,1,1,1h6C10.551,52,11,51.551,11,51z"/>
</g>
</svg>
