<?xml version="1.0" encoding="utf-8"?>
<!-- Generator: Adobe Illustrator 17.0.0, SVG Export Plug-In . SVG Version: 6.00 Build 0)  -->
<!DOCTYPE svg PUBLIC "-//W3C//DTD SVG 1.1//EN" "http://www.w3.org/Graphics/SVG/1.1/DTD/svg11.dtd">
<svg version="1.1" id="Layer_2" xmlns="http://www.w3.org/2000/svg" xmlns:xlink="http://www.w3.org/1999/xlink" x="0px" y="0px"
	 width="60px" height="60px" viewBox="0 0 60 60" enable-background="new 0 0 60 60" xml:space="preserve">
<g>
	<path fill="#010101" d="M21,17V8H7c-3.364,0-6,2.636-6,6v4h20.112C21.04,17.675,21,17.34,21,17z M14,15h-2c-0.552,0-1-0.448-1-1
		c0-0.552,0.448-1,1-1h2c0.552,0,1,0.448,1,1C15,14.552,14.552,15,14,15z"/>
	<path fill="#010101" d="M1,51.957C1,55.289,3.691,58,7,58h18c3.154,0,5.675-2.484,6-6v-4L1,48.001V51.957z M15.869,49.696
		c1.247,0,2.261,1.014,2.261,2.261c0,1.247-1.014,2.261-2.261,2.261c-1.247,0-2.261-1.014-2.261-2.261
		C13.608,50.71,14.623,49.696,15.869,49.696z"/>
	<path fill="#010101" d="M22.086,20H3H1v26.001L31,46V22h-5C24.446,22,23.018,21.192,22.086,20z"/>
	<path fill="#010101" d="M56,0H26c-1.542,0-3,1.458-3,3v14c0,1.542,1.458,3,3,3h2h1h5c0.552,0,1,0.448,1,1v5.613l6.429-6.326
		C41.616,20.103,41.868,20,42.13,20H56c1.542,0,3-1.458,3-3V3C59,1.458,57.542,0,56,0z M34.783,11.608
		c-0.697,0-1.261-0.564-1.261-1.26s0.564-1.261,1.261-1.261c0.697,0,1.261,0.565,1.261,1.261S35.479,11.608,34.783,11.608z
		 M41.087,11.608c-0.697,0-1.261-0.564-1.261-1.26s0.564-1.261,1.261-1.261c0.697,0,1.261,0.565,1.261,1.261
		S41.784,11.608,41.087,11.608z M47.391,11.608c-0.697,0-1.261-0.564-1.261-1.26s0.564-1.261,1.261-1.261
		c0.697,0,1.261,0.565,1.261,1.261S48.088,11.608,47.391,11.608z"/>
</g>
</svg>
