<?xml version="1.0" encoding="utf-8"?>
<!-- Generator: Adobe Illustrator 17.0.0, SVG Export Plug-In . SVG Version: 6.00 Build 0)  -->
<!DOCTYPE svg PUBLIC "-//W3C//DTD SVG 1.1//EN" "http://www.w3.org/Graphics/SVG/1.1/DTD/svg11.dtd">
<svg version="1.1" id="Layer_2" xmlns="http://www.w3.org/2000/svg" xmlns:xlink="http://www.w3.org/1999/xlink" x="0px" y="0px"
	 width="60px" height="60px" viewBox="0 0 60 60" enable-background="new 0 0 60 60" xml:space="preserve">
<path fill="#010101" d="M49.218,0H11.392C8.978,0,6.828,1.81,6.04,4.502L6,4.64v46.795l0.011,0.144C6.712,56.38,10.652,60,15.174,60
	h30.261C50.158,60,54,56.158,54,51.435V4.783C54,2.146,51.854,0,49.218,0z M24,4h12.608c0.552,0,1,0.448,1,1c0,0.552-0.448,1-1,1H24
	c-0.552,0-1-0.448-1-1C23,4.448,23.448,4,24,4z M16,54h-2v-2h2V54z M16,48h-2v-2h2V48z M16,42h-2v-2h2V42z M22,54h-2v-2h2V54z
	 M22,48h-2v-2h2V48z M22,42h-2v-2h2V42z M28,54h-2v-2h2V54z M28,48h-2v-2h2V48z M28,42h-2v-2h2V42z M34,54h-2v-2h2V54z M34,48h-2v-2
	h2V48z M34,42h-2v-2h2V42z M40,54h-2v-2h2V54z M40,48h-2v-2h2V48z M40,42h-2v-2h2V42z M46,54h-2v-2h2V54z M46,48h-2v-2h2V48z M46,42
	h-2v-2h2V42z M48,34H12V8h36V34z"/>
</svg>
