<?xml version="1.0" encoding="utf-8"?>
<!-- Generator: Adobe Illustrator 17.0.0, SVG Export Plug-In . SVG Version: 6.00 Build 0)  -->
<!DOCTYPE svg PUBLIC "-//W3C//DTD SVG 1.1//EN" "http://www.w3.org/Graphics/SVG/1.1/DTD/svg11.dtd">
<svg version="1.1" id="Layer_2" xmlns="http://www.w3.org/2000/svg" xmlns:xlink="http://www.w3.org/1999/xlink" x="0px" y="0px"
	 width="60px" height="60px" viewBox="0 0 60 60" enable-background="new 0 0 60 60" xml:space="preserve">
<path fill="#010101" d="M42,8H21V1c0-0.552-0.448-1-1-1s-1,0.448-1,1v7h-1c-2.757,0-5,2.243-5,5v42c0,2.757,2.243,5,5,5h24
	c2.757,0,5-2.243,5-5V13C47,10.243,44.757,8,42,8z M25.5,54.5h-3v-3h3V54.5z M25.5,48.5h-3v-3h3V48.5z M25.5,42.5h-3v-3h3V42.5z
	 M31.5,54.5h-3v-3h3V54.5z M31.5,48.5h-3v-3h3V48.5z M31.5,42.5h-3v-3h3V42.5z M37.5,54.5h-3v-3h3V54.5z M37.5,48.5h-3v-3h3V48.5z
	 M37.5,42.5h-3v-3h3V42.5z M43,35c0,0.552-0.448,1-1,1H18c-0.552,0-1-0.448-1-1V15c0-0.552,0.448-1,1-1h24c0.552,0,1,0.448,1,1V35z"
	/>
</svg>
