<?xml version="1.0" encoding="utf-8"?>
<!-- Generator: Adobe Illustrator 17.0.0, SVG Export Plug-In . SVG Version: 6.00 Build 0)  -->
<!DOCTYPE svg PUBLIC "-//W3C//DTD SVG 1.1//EN" "http://www.w3.org/Graphics/SVG/1.1/DTD/svg11.dtd">
<svg version="1.1" id="Layer_2" xmlns="http://www.w3.org/2000/svg" xmlns:xlink="http://www.w3.org/1999/xlink" x="0px" y="0px"
	 width="60px" height="60px" viewBox="0 0 60 60" enable-background="new 0 0 60 60" xml:space="preserve">
<g>
	<path fill="#010101" d="M52.895,3.314c-15.081-3.072-30.724-3.07-45.791,0C3.12,4.128-0.001,7.882,0,11.859v3.783
		C0,19.029,2.804,22,6,22h8.001c3.251,0,5.57-2.913,5.934-5.729c0.005-0.037,0.007-0.074,0.008-0.11l0.041-2.308
		c2.649-0.408,5.466-0.607,8.582-0.607c3.873,0,7.764,0.308,11.433,0.662V16c0,1.6,0.625,3.106,1.759,4.24
		c1.134,1.135,2.64,1.76,4.239,1.76L46,21v1h8c3.309,0,6-2.691,6-6v-4.141C60,7.882,56.879,4.128,52.895,3.314z"/>
	<path fill="#010101" d="M33,30h-6c-0.552,0-1,0.448-1,1v4c0,0.552,0.448,1,1,1h6c0.552,0,1-0.448,1-1v-4C34,30.448,33.552,30,33,30
		z"/>
	<path fill="#010101" d="M23,30h-6c-0.552,0-1,0.448-1,1v4c0,0.552,0.448,1,1,1h6c0.552,0,1-0.448,1-1v-4C24,30.448,23.552,30,23,30
		z"/>
	<path fill="#010101" d="M43,30h-6c-0.552,0-1,0.448-1,1v4c0,0.552,0.448,1,1,1h6c0.552,0,1-0.448,1-1v-4C44,30.448,43.552,30,43,30
		z"/>
	<path fill="#010101" d="M33,40h-6c-0.552,0-1,0.448-1,1v4c0,0.552,0.448,1,1,1h6c0.552,0,1-0.448,1-1v-4C34,40.448,33.552,40,33,40
		z"/>
	<path fill="#010101" d="M23,40h-6c-0.552,0-1,0.448-1,1v4c0,0.552,0.448,1,1,1h6c0.552,0,1-0.448,1-1v-4C24,40.448,23.552,40,23,40
		z"/>
	<path fill="#010101" d="M43,40h-6c-0.552,0-1,0.448-1,1v4c0,0.552,0.448,1,1,1h6c0.552,0,1-0.448,1-1v-4C44,40.448,43.552,40,43,40
		z"/>
	<path fill="#010101" d="M33,50h-6c-0.552,0-1,0.448-1,1v4c0,0.552,0.448,1,1,1h6c0.552,0,1-0.448,1-1v-4C34,50.448,33.552,50,33,50
		z"/>
	<path fill="#010101" d="M23,50h-6c-0.552,0-1,0.448-1,1v4c0,0.552,0.448,1,1,1h6c0.552,0,1-0.448,1-1v-4C24,50.448,23.552,50,23,50
		z"/>
	<path fill="#010101" d="M43,50h-6c-0.552,0-1,0.448-1,1v4c0,0.552,0.448,1,1,1h6c0.552,0,1-0.448,1-1v-4C44,50.448,43.552,50,43,50
		z"/>
</g>
</svg>
