<?xml version="1.0" encoding="utf-8"?>
<!-- Generator: Adobe Illustrator 17.0.0, SVG Export Plug-In . SVG Version: 6.00 Build 0)  -->
<!DOCTYPE svg PUBLIC "-//W3C//DTD SVG 1.1//EN" "http://www.w3.org/Graphics/SVG/1.1/DTD/svg11.dtd">
<svg version="1.1" id="Layer_2" xmlns="http://www.w3.org/2000/svg" xmlns:xlink="http://www.w3.org/1999/xlink" x="0px" y="0px"
	 width="60px" height="60px" viewBox="0 0 60 60" enable-background="new 0 0 60 60" xml:space="preserve">
<g>
	<path fill="#010101" d="M52.895,9.205c-15.081-3.071-30.725-3.069-45.791,0C3.12,10.019-0.001,13.772,0,17.75v3.348
		c0,3.309,2.691,6,6,6h8.002c3.307,0,5.998-2.691,5.998-6v-1.091c6.832-0.625,13.173-0.625,20,0v1.091c0,1.6,0.625,3.106,1.759,4.24
		c1.134,1.135,2.64,1.76,4.239,1.76l0.002-1v1h8c3.309,0,6-2.691,6-6V17.75C60,13.772,56.879,10.018,52.895,9.205z"/>
	<path fill="#010101" d="M36.043,29.492v-4.176c0-0.552-0.448-1-1-1c-0.552,0-1,0.448-1,1v4.056
		c-0.088-0.001-0.173-0.014-0.261-0.014h-7.565c-0.073,0-0.144,0.01-0.217,0.011v-4.054c0-0.552-0.448-1-1-1c-0.552,0-1,0.448-1,1
		v4.169C13.745,30.608,6,39.446,6,50.533v7.565c0,0.552,0.448,1,1,1h46c0.552,0,1-0.448,1-1v-7.565
		C54,39.462,46.277,30.636,36.043,29.492z M30,54.598c-5.238,0-9.5-4.262-9.5-9.5s4.262-9.5,9.5-9.5c5.238,0,9.5,4.262,9.5,9.5
		S35.238,54.598,30,54.598z"/>
</g>
</svg>
