<?xml version="1.0" encoding="utf-8"?>
<!-- Generator: Adobe Illustrator 17.1.0, SVG Export Plug-In . SVG Version: 6.00 Build 0)  -->
<!DOCTYPE svg PUBLIC "-//W3C//DTD SVG 1.0//EN" "http://www.w3.org/TR/2001/REC-SVG-20010904/DTD/svg10.dtd">
<svg version="1.0" id="Layer_1" xmlns="http://www.w3.org/2000/svg" xmlns:xlink="http://www.w3.org/1999/xlink" x="0px" y="0px"
	 width="60px" height="60px" viewBox="0 0 60 60" enable-background="new 0 0 60 60" xml:space="preserve">
<g>
	<path d="M22.5,10h-6V1c0-0.552-0.448-1-1-1s-1,0.448-1,1v9c-3.364,0-6,2.636-6,6v38c0,3.364,2.636,6,6,6h7.695
		c3.221,0,5.988-2.614,6.305-6.043l-0.004-38.181C28.177,12.375,25.712,10,22.5,10z"/>
	<path d="M55.5,16h-26v40h25.016l0.016,0c2.374-0.074,3.969-1.28,3.969-3V20C58.5,18.702,58.5,16,55.5,16z M36.5,47h-3v-3h3V47z
		 M36.5,41h-3v-3h3V41z M36.5,35h-3v-3h3V35z M42.5,47h-3v-3h3V47z M42.5,41h-3v-3h3V41z M42.5,35h-3v-3h3V35z M48.5,47h-3v-3h3V47z
		 M48.5,41h-3v-3h3V41z M48.5,35h-3v-3h3V35z M50.5,28h-18v-7.826h18V28z"/>
	<path d="M1.5,20v32c0,1.988,1.03,4,3,4h3V16h-3C2.53,16,1.5,18.012,1.5,20z"/>
</g>
</svg>
