<?xml version="1.0" encoding="utf-8"?>
<!-- Generator: Adobe Illustrator 17.0.0, SVG Export Plug-In . SVG Version: 6.00 Build 0)  -->
<!DOCTYPE svg PUBLIC "-//W3C//DTD SVG 1.1//EN" "http://www.w3.org/Graphics/SVG/1.1/DTD/svg11.dtd">
<svg version="1.1" id="Layer_2" xmlns="http://www.w3.org/2000/svg" xmlns:xlink="http://www.w3.org/1999/xlink" x="0px" y="0px"
	 width="60px" height="60px" viewBox="0 0 60 60" enable-background="new 0 0 60 60" xml:space="preserve">
<g>
	<path fill="#010101" d="M16,45.956C16,48.596,18.383,51,21,51h0.002L39,50.956c2.664,0,5-2.336,5-5v-3H16V45.956z"/>
	<path fill="#010101" d="M39,6.956H21c-2.664,0-5,2.336-5,5v3h28v-3.043C44,9.272,41.664,6.956,39,6.956z M36.348,13.174H23.739
		c-0.552,0-1-0.448-1-1c0-0.552,0.448-1,1-1h12.608c0.552,0,1,0.448,1,1C37.348,12.726,36.9,13.174,36.348,13.174z"/>
	<rect x="16" y="16.956" fill="#010101" width="28" height="24"/>
	<path fill="#010101" d="M10,15.739c-1.105,0-2,0.896-2,2V48c0,1.105,0.895,2,2,2c1.104,0,2-0.895,2-2V17.739
		C12,16.635,11.104,15.739,10,15.739z"/>
	<path fill="#010101" d="M2,18.261c-1.105,0-2,0.896-2,2v25.217c0,1.104,0.895,2,2,2c1.104,0,2-0.896,2-2V20.261
		C4,19.157,3.104,18.261,2,18.261z"/>
	<path fill="#010101" d="M50,10.174c-1.105,0-2,0.896-2,2v30.261c0,1.104,0.895,2,2,2c1.104,0,2-0.896,2-2V12.174
		C52,11.069,51.104,10.174,50,10.174z"/>
	<path fill="#010101" d="M58,12.695c-1.105,0-2,0.896-2,2v25.218c0,1.104,0.895,2,2,2c1.104,0,2-0.896,2-2V14.695
		C60,13.591,59.104,12.695,58,12.695z"/>
</g>
</svg>
