<?xml version="1.0" encoding="utf-8"?>
<!-- Generator: Adobe Illustrator 17.0.0, SVG Export Plug-In . SVG Version: 6.00 Build 0)  -->
<!DOCTYPE svg PUBLIC "-//W3C//DTD SVG 1.1//EN" "http://www.w3.org/Graphics/SVG/1.1/DTD/svg11.dtd">
<svg version="1.1" id="Layer_2" xmlns="http://www.w3.org/2000/svg" xmlns:xlink="http://www.w3.org/1999/xlink" x="0px" y="0px"
	 width="60px" height="60px" viewBox="0 0 60 60" enable-background="new 0 0 60 60" xml:space="preserve">
<g>
	<path fill="#010101" d="M33,50h-8c-0.552,0-1,0.448-1,1c0,0.552,0.448,1,1,1h8c0.552,0,1-0.448,1-1C34,50.448,33.552,50,33,50z"/>
	<path fill="#010101" d="M21,50h-8c-0.552,0-1,0.448-1,1c0,0.552,0.448,1,1,1h8c0.552,0,1-0.448,1-1C22,50.448,21.552,50,21,50z"/>
	<path fill="#010101" d="M9,50H1c-0.552,0-1,0.448-1,1c0,0.552,0.448,1,1,1h8c0.552,0,1-0.448,1-1C10,50.448,9.552,50,9,50z"/>
	<path fill="#010101" d="M45,50h-8c-0.552,0-1,0.448-1,1c0,0.552,0.448,1,1,1h8c0.552,0,1-0.448,1-1C46,50.448,45.552,50,45,50z"/>
	<path fill="#010101" d="M57,50h-8c-0.552,0-1,0.448-1,1c0,0.552,0.448,1,1,1h8c0.552,0,1-0.448,1-1C58,50.448,57.552,50,57,50z"/>
</g>
</svg>
