<?xml version="1.0" encoding="utf-8"?>
<!-- Generator: Adobe Illustrator 17.0.0, SVG Export Plug-In . SVG Version: 6.00 Build 0)  -->
<!DOCTYPE svg PUBLIC "-//W3C//DTD SVG 1.1//EN" "http://www.w3.org/Graphics/SVG/1.1/DTD/svg11.dtd">
<svg version="1.1" id="Layer_2" xmlns="http://www.w3.org/2000/svg" xmlns:xlink="http://www.w3.org/1999/xlink" x="0px" y="0px"
	 width="60px" height="60px" viewBox="0 0 60 60" enable-background="new 0 0 60 60" xml:space="preserve">
<g>
	<path fill="#010101" d="M9,38H1c-0.552,0-1,0.448-1,1v14c0,0.552,0.448,1,1,1h8c0.552,0,1-0.448,1-1V39C10,38.448,9.552,38,9,38z"
		/>
	<path fill="#010101" d="M21,30h-8c-0.552,0-1,0.448-1,1v22c0,0.552,0.448,1,1,1h8c0.552,0,1-0.448,1-1V31
		C22,30.448,21.552,30,21,30z"/>
	<path fill="#010101" d="M33,22h-8c-0.552,0-1,0.448-1,1v30c0,0.552,0.448,1,1,1h8c0.552,0,1-0.448,1-1V23
		C34,22.448,33.552,22,33,22z"/>
	<path fill="#010101" d="M45,14h-8c-0.552,0-1,0.448-1,1v38c0,0.552,0.448,1,1,1h8c0.552,0,1-0.448,1-1V15
		C46,14.448,45.552,14,45,14z"/>
	<path fill="#010101" d="M57,6h-8c-0.552,0-1,0.448-1,1v46c0,0.552,0.448,1,1,1h8c0.552,0,1-0.448,1-1V7C58,6.448,57.552,6,57,6z"/>
</g>
</svg>
