<?xml version="1.0" encoding="utf-8"?>
<!-- Generator: Adobe Illustrator 17.0.0, SVG Export Plug-In . SVG Version: 6.00 Build 0)  -->
<!DOCTYPE svg PUBLIC "-//W3C//DTD SVG 1.1//EN" "http://www.w3.org/Graphics/SVG/1.1/DTD/svg11.dtd">
<svg version="1.1" id="Layer_2" xmlns="http://www.w3.org/2000/svg" xmlns:xlink="http://www.w3.org/1999/xlink" x="0px" y="0px"
	 width="60px" height="60px" viewBox="0 0 60 60" enable-background="new 0 0 60 60" xml:space="preserve">
<g>
	<path fill="#010101" d="M9,37H1c-0.552,0-1,0.448-1,1v14c0,0.552,0.448,1,1,1h8c0.552,0,1-0.448,1-1V38C10,37.448,9.552,37,9,37z"
		/>
	<path fill="#010101" d="M33,51h-8c-0.552,0-1,0.448-1,1c0,0.552,0.448,1,1,1h8c0.552,0,1-0.448,1-1C34,51.448,33.552,51,33,51z"/>
	<path fill="#010101" d="M21,51h-8c-0.552,0-1,0.448-1,1c0,0.552,0.448,1,1,1h8c0.552,0,1-0.448,1-1C22,51.448,21.552,51,21,51z"/>
	<path fill="#010101" d="M45,51h-8c-0.552,0-1,0.448-1,1c0,0.552,0.448,1,1,1h8c0.552,0,1-0.448,1-1C46,51.448,45.552,51,45,51z"/>
	<path fill="#010101" d="M57,51h-8c-0.552,0-1,0.448-1,1c0,0.552,0.448,1,1,1h8c0.552,0,1-0.448,1-1C58,51.448,57.552,51,57,51z"/>
</g>
</svg>
