<svg xmlns="http://www.w3.org/2000/svg" width="640" height="480"><g fill="none" fill-rule="evenodd"><path fill="#DA121A" d="M0 480h640V0H0v480z"/><path fill="#FCDD08" d="M0 320h640V0H0v320z"/><path fill="#068930" d="M0 160h640V0H0v160z"/><path fill="#0F47AF" d="M320 80c88.365 0 160 71.635 160 160s-71.635 160-160 160-160-71.635-160-160S231.635 80 320 80"/><path fill="#FCDD08" d="M356.1 193.713l40.755-56.092-3.236-2.35-40.76 56.097 3.236 2.35zm19.077 66.318l65.94 21.43 1.236-3.803-65.94-21.425-1.236 3.804zM318 298.67V368h4v-69.333h-4zm-54.413-42.44l-65.94 21.425 1.236 3.805 65.94-21.426-1.236-3.803zm23.548-64.865L246.38 135.27l-3.235 2.35 40.754 56.093 3.23-2.35zm19.55 9.084l-3.467 10.663H402.1l14.682-10.667h-68.044L320 112l-5.608 17.26 23.13 71.186h-30.838zm46.818 14.663h-11.216l30.558 94.044 14.68 10.665L366.5 255.11l75.235-54.664H423.59l-60.557 43.996-9.53-29.33zm-24.43 67.186l24.95-18.127-3.467-10.667-79.998 58.123-5.607 17.256L320 288.89l75.236 54.664-5.608-17.26-60.554-43.995zm-21.55-2.473l9.074-6.593-80-58.122h-18.145l55.05 39.996-28.738 88.442 14.68-10.667 23.13-71.186 24.95 18.127zm-29.256-39.386l9.073 6.593 30.557-94.044-5.608-17.26-21.03 64.715h-93l14.682 10.666h74.85l-9.53 29.33z"/></g></svg>
