<svg xmlns="http://www.w3.org/2000/svg" width="640" height="480"><g fill="none" fill-rule="evenodd"><path fill="#FFF" d="M0 0h640v480H0z"/><path fill="#0038A8" d="M266.667 53.333H640v53.333H266.667zm0 106.667H640v53.333H266.667zM0 266.667h640V320H0zm0 106.666h640v53.333H0z"/><path fill="#FCD116" d="M266.22 132.413l-67.828-12.332c21.064-9.03 27.932-18.29 32.99-25.12 4.915-6.63 8.162-11.01 22.118-11.01l.78.01 1.395.02.33-1.34-1.247-.63c-6.13-3.11-11.124-4.554-15.718-4.554-6.274 0-11.034 2.77-16.545 5.975-7.558 4.4-16.12 9.354-32.082 9.965l37.314-53.9-.986-.982-56.68 39.24c8.51-21.274 6.82-32.68 5.57-41.06-1.23-8.313-2.05-13.804 8.4-24.006l1-.973-.71-1.18-1.32.435c-16.98 5.55-19.01 13.214-21.81 23.82-2.23 8.452-4.78 18.01-15.64 29.73L133.81 0h-1.395L120.08 67.828c-9.028-21.06-18.29-27.93-25.095-32.972-6.753-5.003-11.214-8.307-11.036-22.914l.01-1.397-1.34-.33-.64 1.247c-8.08 15.932-4.1 22.78 1.42 32.263 4.4 7.56 9.35 16.12 9.96 32.08l-53.89-37.31-.99.986 39.25 56.69c-11.096-4.43-20.795-6.6-29.596-6.6-4.55 0-8.22.55-11.46 1.03-2.586.39-4.82.72-7.026.72-4.85 0-9.6-1.55-16.98-9.114l-.98-1-1.18.717.43 1.328c5.552 16.986 13.213 19.01 23.82 21.81 8.452 2.236 18.01 4.786 29.73 15.64L0 132.416v1.394l67.83 12.33c-21.06 9.02-27.93 18.29-32.976 25.1-4.926 6.64-8.18 11.03-22.173 11.03l-.74-.01-1.39-.02-.33 1.34 1.25.633c6.13 3.11 11.13 4.56 15.72 4.56 6.27 0 11.03-2.77 16.55-5.978 7.56-4.4 16.12-9.36 32.08-9.97l-37.312 53.9.986.986 56.68-39.242c-8.51 21.28-6.817 32.685-5.57 41.06 1.237 8.315 2.055 13.807-8.4 24.01l-1 .98.715 1.18 1.33-.43c16.98-5.55 19.006-13.215 21.81-23.82 2.234-8.454 4.784-18.012 15.64-29.73l11.725 64.494h1.397l12.334-67.826c9.02 21.06 18.282 27.93 25.09 32.97 6.754 5.004 11.215 8.31 11.04 22.915l-.02 1.4 1.34.33.63-1.244c8.083-15.93 4.1-22.78-1.42-32.26-4.397-7.56-9.35-16.12-9.96-32.08l53.895 37.31.99-.986-39.244-56.683c11.096 4.437 20.79 6.6 29.59 6.6 4.55 0 8.23-.546 11.477-1.03 2.59-.384 4.826-.716 7.027-.716 4.85 0 9.594 1.55 16.98 9.117l.98 1 1.18-.71-.438-1.33c-5.553-16.98-13.214-19.007-23.82-21.81-8.453-2.234-18.01-4.784-29.73-15.64l64.495-11.725v-1.397z"/></g></svg>
