<svg xmlns="http://www.w3.org/2000/svg" width="640" height="480"><g fill="none" fill-rule="evenodd"><path fill="#FFF" d="M0 0h640v480H0z"/><path fill="#0038B8" d="M0 45h640v75H0zm0 315h640v75H0z"/><g fill="#0038B8"><path d="M312.855 148.452l-75.71 131.135L230 291.962h180l-7.145-12.375-75.71-131.135L320 136.077l-7.145 12.375zm14.29 8.25h-14.29l75.71 131.135 7.146-12.375H244.29l7.144 12.375 75.71-131.135z"/><path d="M312.855 331.548l-75.71-131.135L230 188.038h180l-7.145 12.375-75.71 131.135L320 343.923l-7.145-12.375zm14.29-8.25h-14.29l75.71-131.135 7.146 12.375H244.29l7.144-12.375 75.71 131.135z"/></g></g></svg>
