<svg xmlns="http://www.w3.org/2000/svg" width="640" height="480"><g fill="none"><path fill="#CE1126" d="M0 0h640v480H0"/><path fill="#FFF" d="M0 0h426.666667v480H0"/><path fill="#006847" d="M0 0h213.333333v480H0"/><path fill="#75A843" d="M407.966667 237.07c-1.011111-3.03-2.022223 1.01-2.022223 2.02 0-3.03-1.011111-5.05-3.033333-8.08-3.033333 3.03-4.044444 7.07-4.044444 11.11-1.011111-3.03-2.022223-6.06-5.055556-7.07 2.022222 3.03 1.011111 5.05 1.011111 8.08 0 4.04 3.033334 7.07 3.033334 11.11 0 4.04-2.022223 7.07-5.055556 10.1v-3.03c-10.111111 4.04-8.088889 9.09-8.088889 18.18s-5.055555 7.07-11.122222 12.12c1.011111-2.02 1.011111-5.05 0-7.07 0 6.06-8.088889 6.06-9.1 11.11-1.011111 2.02 0 6.06-3.033333 7.07-2.022223 1.01-5.055556 3.03-5.055556 5.05-2.022222-1.01-4.044444-1.01-7.077778-1.01 1.011111-1.01 2.022222-1.01 3.033334-2.02-10.111112-5.05-13.144445 6.06-22.244445 7.07-3.0333332 0-10.111111-4.04-10.111111 0 9.1 0 13.144444 8.08 20.222222 8.08 6.066667 0 11.122222-5.05 17.188889-5.05-1.011111 0-4.044444-2.02-7.077778-2.02 5.055556-3.03 8.088889-9.09 14.155556-9.09 10.111111 0 15.166667-2.02 18.2-12.12-1.011111 0-2.022222 0-3.033333 1.01 0-4.04 4.044444-9.09 8.088888-11.11 10.111112-2.02 9.1-10.1 15.166667-17.17-2.022222 0-4.044444 1.01-6.066667 3.03 0-6.06-1.011111-12.12 4.044445-16.16 10.111111-5.05 9.1-7.07 7.077778-14.14m-175.93333367 0C230.0111111 245.15 229 247.17 237.0888889 252.22c6.0666667 4.04 4.0444444 10.1 4.0444444 16.16-2.0222222-2.02-3.0333333-3.03-6.06666663-3.03 6.06666663 6.06 5.05555553 15.15 15.16666663 17.17 3.0333334 2.02 8.0888889 7.07 8.0888889 11.11-1.0111111 0-2.0222222-1.01-3.0333333-1.01 3.0333333 10.1 8.0888889 12.12 18.2 12.12 6.0666667 0 9.1 6.06 14.1555555 9.09-3.0333333 0-6.0666666 1.01-7.0777777 2.02 6.0666666 0 11.1222222 6.06 17.1888889 5.05 7.0777777 0 12.1333333-8.08 20.2222222-8.08 0-4.04-7.0777778 0-10.1111111 0-8.0888889-2.02-11.1222223-12.12-22.2444445-8.08 1.0111111 1.01 2.0222222 2.02 3.0333334 2.02-2.0222223 0-5.0555556-1.01-7.0777778 1.01-1.0111111-2.02-3.0333334-4.04-5.0555556-5.05C274.5 300.7 274.5 297.67 273.4888889 295.65c-2.0222222-5.05-9.1-6.06-9.1-11.11-1.0111111 2.02-1.0111111 5.05 0 7.07-6.0666667-5.05-11.1222222-3.03-11.1222222-12.12 0-8.08 2.0222222-14.14-8.0888889-18.18v3.03c-3.0333334-3.03-5.0555556-5.05-5.0555556-10.1 0-4.04 4.0444445-7.07 3.0333334-11.11 0-3.03-1.0111112-5.05 1.0111111-8.08-3.0333334 1.01-4.0444445 4.04-5.0555556 7.07 0-4.04-1.0111111-8.08-4.04444443-11.11-1.0111111 2.02-2.02222223 5.05-3.03333334 8.08 1.0111111-2.02 0-5.05 0-2.02"/><path fill="#428BC1" d="M346.935897 297.17757c-2.025641 0-3.038461-2.018691-4.051282-3.028037 0-2.018692 8.102564-4.037383 9.115385-4.037383v-2.018692c-13.166667 4.037383-52.6666667 7.065421-60.7692308-7.065421C287.1794872 287.084112 280.0897436 283.046729 273 278c1.0128205 2.018692 5.0641026 12.11215 5.0641026 11.102804 2.025641 1.009346 15.1923077 4.037383 15.1923077 7.06542-1.0128206 1.009346-2.0256411 2.018692-3.0384616 3.028038 21.2692308 7.06542 34.4358975 9.084112 56.7179483-2.018692"/><path fill="#ED4C5C" d="M334.302035 297.696695c1.008883-1.027772 1.008883-2.055544 1.008883-4.111089l-1.008883-3.083316c2.017767-2.055545 0-7.194406-3.02665-6.166634-2.0177669 1.027772-1.008884 1.027772-3.0266503 0-1.0088834 0-1.0088834-1.027772-2.0177668-1.027772h-18.1599008c-2.0177668 0-2.0177668-1.027772-4.0355336-1.027772-2.0177667-1.027773-3.0266501 1.027772-4.0355335 2.055544 0 2.055545 1.0088834 2.055545 1.0088834 3.083317 0 1.027772-1.0088834 2.055544-1.0088834 4.111089 0 2.055544 1.0088834 3.083317 2.0177668 4.111089-4.0355336 3.083316 0 8.222178 4.0355335 5.138861 1.0088834 2.055544 4.0355335 2.055544 7.0621837 2.055544h11.0977172c2.0177667 0 6.0532998 1.027773 7.0621838-2.055544 3.02665 5.138861 7.062184-1.027772 3.02665-3.083317"/><path fill="#428BC1" d="M366.62247 271.622948c-8.116805-10.209474-12.175207 5.104736-21.306612 4.083789 2.029201-12.251368-16.2336093-8.167579-21.3066121-5.104737 1.0146005-1.020947 2.0292011-3.062842 3.0438017-5.104736-4.0584023 0-9.1314051 2.041894-12.1752068-1.020948-6.0876034-4.083789-14.2044079-6.1256838-19.2774107 1.020948-4.0584023-6.125684-15.2190085-12.2513686-21.3066119-6.125684 0-6.1256846-6.0876033-15.3142107-13.1898073-14.2932633-8.1168045 1.0209473-5.0730028 11.2304208-1.0146005 15.3142103 3.0438016 3.062842 7.1022039 4.083789 11.1606062 4.083789 0 2.041895 1.0146005 3.062842 2.0292011 4.08379 5.0730028 4.083789 15.2190084 5.104736 20.2920113 1.020947 0 10.209474 20.2920112 10.209474 25.365014 5.104737C316.9070419 279.790527 314.8778408 290 321.9800447 290c6.0876034 0 4.0584023-6.125684 9.1314053-8.167579 4.058402-2.041894 9.131405-3.062842 13.189807-1.020947 7.102204 4.083789 29.423416 3.062842 22.321213-9.188526"/><g fill="#75A843"><path d="M283 245.95c-1-2.025-3-4.05-3-4.05-4 1.0125-4-2.025-5-5.0625-1-5.0625-8-7.0875-8-11.1375 0-4.05 4-8.1 1-12.15-3-4.05-8-6.075-8-4.05-1 2.025 4 2.025 4 7.0875 0 6.075-6 11.1375 1 16.2 4 6.075 4 17.2125 11 17.2125 3 0 6-1.0125 7-4.05"/><path d="M298 240.8875c-2-4.05 0-10.125-4-13.1625-5-4.05-15 4.05-16-6.075 0-2.025 11-14.175 13-15.1875 3-4.05 2-11.1375-1-13.1625-4-2.025-5 0-8 4.05 1 1.0125 5 3.0375 5 4.05-3 7.0875-12 8.1-14 15.1875-2 5.0625-1 13.1625 4 16.2 3 2.025 5 2.025 8 2.025 9-1.0125 4 1.0125 5 3.0375 0 2.025 3 9.1125 8 3.0375m-30-49.6125c0 6.075 6 5.0625 10 4.05 0-2.025 0-4.05 1-6.075-2 1.0125-5 1.0125-6 0-3-2.025 7-6.075 6-6.075 0 0-10 5.0625-6-1.0125 1-2.025 3-4.05 4-6.075 1-2.025-3 0-3 0-1 0-2 0-3 1.0125-6 5.0625-4 8.1-3 14.175"/></g><path fill="#89664C" d="M376.088398 191.3168317C371.021131 184.2475248 351.765516 161.01980198 324.4022735 159c-3.0403603 0-11.1479877 3.02970297-14.188348 4.03960396-9.1210808 6.05940594 10.1345343 11.10891094 11.1479877 15.14851484 0 2.019802 1.0134535 3.029703 1.0134535 5.049505-3.0403603-5.049505-6.0807206-8.079208-7.094174-10.0990099-5.0672672 2.0198019-13.1748946-1.009901-14.188348-6.05940598-1.0134535 2.01980198-1.0134535 3.02970298-3.0403603 5.04950498 0-3.029703-1.0134534-3.029703-2.0269069-5.04950498 0 3.02970298 0 7.06930698-3.0403603 8.07920788 1.0134535-2.0198019 0-4.0396039-1.0134534-6.0594059 0 3.029703 0 5.049505-2.0269068 7.0693069 1.0134534-2.0198019-1.0134535-3.0297029-1.0134535-5.0495049-1.0134534 8.0792079-12.1614411 11.1089109-1.0134534 14.1386138 4.0538137 1.009901 6.0807206 0 10.1345343 2.019802 1.0134534 1.009901 3.0403603 3.029703 3.0403603 2.019802 0 1.009901-4.0538137 5.049505-1.0134535 6.0594059-1.0134534 1.009901-4.0538137 7.069307-4.0538137 7.069307 3.0403603 0 1.0134535 2.019802-1.0134534 4.0396039-3.0403603 5.049505 0 10.0990099 1.0134534 16.1584159 0-2.019802 3.0403603 1.009901 3.0403603 4.0396039 0 4.039604 4.0538137 6.059406 5.0672672 9.0891089-5.0672672-5.0495049-6.0807206 0 0 3.029703-5.0672672 0-6.0807206 3.029703-1.0134535 5.049505-12.1614411 0-2.0269068 5.0495049 0 6.0594059 8.1076274 2.019802 14.188348-4.039604 14.188348-5.0495049 0 0 16.2152545 16.1584158 17.2287085 16.1584158 1.013453 0 9.121081-4.039604 11.147988-2.019802 2.026906 3.029703 4.053813 0 6.08072 1.009901 2.026907 2.019802 10.134534 0 12.161441-1.009901 1.013454 0 11.147988-2.019802 9.121081-4.0396039-5.067267-4.039604-11.147988-8.079208-16.215255-12.1188119-5.067267-4.039604-10.134534-7.069307-14.188348-11.1089109-2.026907-2.019802-2.026907-6.059406-3.04036-9.0891089 9.121081 9.0891089 18.242162 14.1386138 17.228708-3.029703 6.080721 5.049505 18.242162 33.3267327 19.255615 33.3267327 3.040361 0 0-30.2970297 0-33.3267327 4.053814 4.039604 4.053814 37.3663366 5.067268 37.3663366 5.067267 1.009901 12.161441-43.4257425-5.067268-65.6435643"/><path fill="#FFCE31" d="M302.3666667 242.63c-1.0111111 0-6.0666667-7.07-6.0666667-8.08 3.0333333 12.12-9.1 5.05-6.0666667 0-4.0444444-1.01-14.15555552 5.05-10.11111108 11.11-2.02222222 4.04 14.15555558 1.01 15.16666668-1.01 4.0444444 9.09 14.1555555-1.01 7.0777778-2.02m47.5222222 30.3c5.0555555-7.07-16.1777778-9.09-14.1555556-17.17-3.0333333 2.02-7.0777777 9.09-11.1222222 7.07-2.0222222-1.01-10.1111111 4.04-6.0666667 7.07 0-4.04 2.0222223-1.01 5.0555556-2.02-1.0111111 3.03-4.0444444 6.06 1.0111111 8.08-2.0222222-6.06 6.0666667-3.03 5.0555556-6.06-2.0222223-2.02 7.0777777-2.02 8.0888889-2.02 3.0333333 0 13.1444444 3.03 9.1 6.06 0 0 2.0222222 0 3.0333333-1.01m-67.74444446-86.86c-1.0111111 2.02-5.05555555 5.05-5.05555555 8.08 0 2.02 5.05555552 7.07 7.07777775 4.04-6.06666667-4.04 1.0111111-7.07 4.04444443-7.07 1.0111111 0 1.0111111 2.02 1.0111111 2.02 1.0111111 1.01 9.1-2.02 8.0888889-4.04 1.0111111-4.04-12.13333333-4.04-15.16666667-3.03"/></g></svg>
