<svg xmlns="http://www.w3.org/2000/svg" width="640" height="480"><g fill="none" fill-rule="evenodd"><path fill="#000" d="M0 0h640v480H0z"/><path fill="#FFF" d="M0 0h640v320H0z"/><path fill="#CE1126" d="M0 0h640v160H0z"/><path fill="#BE932D" d="M320.14 316c-16.75 0-31.768-1.414-40.172-3.783-4.136-.757-4.37-2.966-4.382-5.378-1.965-.87-2.39-2.61-2.705-3.9-.24-1.01-.4-1.44-.74-1.59-.18-.01-.37-.04-.56-.1L267 300h4.75c.21 0 .4.022.57.06.616-.055 1.118-.66 1.814-1.558.816-1.054 1.806-2.333 3.413-2.333h.007c.026-.254.07-.5.125-.74l-.096-.19c-.75-1.5-.59-3.563.397-5.136.84-1.337 2.166-2.12 3.66-2.176.87-.655 1.93-.92 2.89-.71 1.08.365 2.18.71 3.295 1.03l4.67-16.557-.01-.037.03-.03 1.013-3.596-2.03 1.642-17.116 15.53-2.063 2.113.01-.255-.51.465-.005.124-7.715 6.944v-.056l-.09.08 3.988-93.93c.192-4.78 1.733-8.004 4.582-9.58 5.606-3.104 14.432 1.27 17.97 3.294 4.544 2.91 9.636 4.39 15.226 4.438 1.87-2.68 4.49-6.9 5.77-11.11 2.093-7.03 1.993-12.367.814-14.005-.942-1.366-1.875-2.24-2.78-2.617-.926-.35-1.845-.16-2.792.585l-1.61 1.27.376-1.204c-.43-.32-.498-.97-.52-1.2-.13-1.305.31-4.095 1.64-5.01 1.274-.89 3.623-1.03 6.973-.42.496.084 1.01.186 1.53.3.06-.204.167-.42.338-.62.384-.44.97-.653 1.747-.65h.205c3.566.17 8.85 1.655 10.58 3.387.46.46.894 1.15 1.33 2.106l.407.9h-.117c.81 2.484 1.137 6.04.967 10.59-.31 6.61 1.544 14.075 3.664 17.764 5.65-.01 10.81-1.507 15.44-4.483 4.45-2.526 12.66-6.287 18.02-3.31 2.836 1.576 4.37 4.8 4.56 9.58l3.988 93.945-.43-.404-.772-.644-6.6-5.94-.01-.273-.513-.474.02.41-4.114-4.22-4.696-4.357.01.274-7.787-7.496.01.26-4.623-3.75 1.04 3.625-.01.032 4.666 16.546c1.08-.315 2.137-.65 3.145-1 1.02-.23 2.09.034 2.96.687 1.51.03 2.858.797 3.716 2.135 1.01 1.58 1.18 3.66.422 5.18l-.095.19c.06.24.1.484.13.74h.004c1.61 0 2.6 1.28 3.415 2.332.694.9 1.196 1.503 1.81 1.56.17-.04.36-.06.57-.06h4.744l-4.58 1.247c-.195.05-.383.08-.563.09-.34.154-.494.59-.74 1.593-.317 1.29-.74 3.027-2.705 3.896-.013 2.41-.24 4.62-4.275 5.39-8.51 2.354-23.586 3.77-40.28 3.77"/></g></svg>
