<?xml version="1.0" encoding="UTF-8" standalone="no"?>
<svg width="640px" height="480px" viewBox="0 0 640 480" version="1.1" xmlns="http://www.w3.org/2000/svg" xmlns:xlink="http://www.w3.org/1999/xlink">
    <g stroke="none" stroke-width="1" fill="none" fill-rule="evenodd">
        <rect fill="#00247D" x="0.7477395" y="0.697527471" width="639.00156" height="479.002079"></rect>
        <g transform="translate(339.469579, 59.875260)">
            <path d="M132.958053,42.7285399 L124.344094,69.0352903 L146.756339,52.7729355 L169.168584,69.0352903 L160.554625,42.7285399 L182.966871,26.4661852 L155.290539,26.4661852 L146.756339,0.239152276 L138.222139,26.4661852 L110.545808,26.4661852 L132.958053,42.7285399 Z" fill="#FFFFFF"></path>
            <path d="M253.872515,124.598336 L273.732476,110.169482 L249.166741,110.169482 L241.509889,86.7325587 L233.932795,110.169482 L209.287301,110.169482 L229.227021,124.598336 L221.649927,148.035259 L241.509889,133.526687 L261.449609,148.035259 L253.872515,124.598336 Z" fill="#FFFFFF"></path>
            <path d="M44.7447317,137.671993 L36.2105315,111.365243 L27.5965725,137.671993 L0,137.671993 L22.3324864,153.934348 L13.7982862,180.241099 L36.2105315,163.978744 L58.5430179,180.241099 L50.0088177,153.934348 L72.421063,137.671993 L44.7447317,137.671993 Z" fill="#FFFFFF"></path>
            <path d="M156.247646,312.173437 L146.756339,282.99686 L137.265032,312.173437 L106.557864,312.173437 L131.362875,330.269293 L121.951327,359.44587 L146.756339,341.350015 L171.561351,359.44587 L162.149803,330.269293 L186.954815,312.173437 L156.247646,312.173437 Z" fill="#FFFFFF"></path>
            <path d="M137.584068,41.2139089 L132.000946,58.5923076 L146.756339,47.8304552 L161.511732,58.5923076 L155.92861,41.2139089 L170.684003,30.5317739 L152.41922,30.5317739 L146.756339,13.1533752 L141.093459,30.5317739 L122.828675,30.5317739 L137.584068,41.2139089 Z" fill="#CC142B"></path>
            <path d="M249.166741,123.083705 L261.449609,114.155353 L246.215662,114.155353 L241.509889,99.6467816 L236.804115,114.155353 L221.570169,114.155353 L233.932795,123.083705 L229.227021,137.592276 L241.509889,128.584207 L253.872515,137.592276 L249.166741,123.083705 Z" fill="#CC142B"></path>
            <path d="M41.7936531,141.657865 L36.2105315,124.279466 L30.547651,141.657865 L12.2828675,141.657865 L27.0382603,152.419717 L21.3753798,169.798116 L36.2105315,159.036263 L50.9659243,169.798116 L45.3030438,152.419717 L60.1381955,141.657865 L41.7936531,141.657865 Z" fill="#CC142B"></path>
            <path d="M153.376326,316.159309 L146.756339,295.911083 L140.136352,316.159309 L118.840731,316.159309 L136.068649,328.674944 L129.528421,349.002888 L146.756339,336.487252 L163.984257,349.002888 L157.444029,328.674944 L174.671947,316.159309 L153.376326,316.159309 Z" fill="#CC142B"></path>
        </g>
        <path d="M133.125325,0 L186.375455,0 L186.375455,79.8336798 L319.50078,79.8336798 L319.50078,159.66736 L186.375455,159.66736 L186.375455,239.50104 L133.125325,239.50104 L133.125325,159.66736 L0,159.66736 L0,79.8336798 L133.125325,79.8336798 L133.125325,0 L133.125325,0 L133.125325,0 Z" fill="#FFFFFF"></path>
        <path d="M0,0 L35.7212733,0 L319.50078,212.724009 L319.50078,239.50104 L283.779516,239.50104 L0,26.7770304 L0,0 L0,0 L0,0 Z" fill="#FFFFFF"></path>
        <g transform="translate(159.750390, 119.750520) scale(-1, 1) translate(-159.750390, -119.750520) " fill="#FFFFFF">
            <path d="M0,0 L35.7212733,0 L319.50078,212.724009 L319.50078,239.50104 L283.779516,239.50104 L0,26.7770304 L0,0 L0,0 L0,0 Z"></path>
        </g>
        <path d="M143.775351,0 L175.725429,0 L175.725429,95.8004158 L319.50078,95.8004158 L319.50078,143.700624 L175.725429,143.700624 L175.725429,239.50104 L143.775351,239.50104 L143.775351,143.700624 L0,143.700624 L0,95.8004158 L143.775351,95.8004158 L143.775351,0 L143.775351,0 L143.775351,0 Z" fill="#CC142B"></path>
        <path d="M0,0 L106.50026,79.8336798 L82.6860771,79.8336798 L0,17.8513535 L0,0 L0,0 L0,0 Z M319.50078,0 L295.686604,0 L189.186337,79.8336798 L213.00052,79.8336798 L319.50078,0 L319.50078,0 L319.50078,0 Z" fill="#CC142B"></path>
        <g transform="translate(159.750390, 199.584200) scale(-1, -1) translate(-159.750390, -199.584200) translate(0.000000, 159.667360)" fill="#CC142B">
            <path d="M0,0 L106.50026,79.8336798 L82.6860771,79.8336798 L0,17.8513535 L0,0 L0,0 L0,0 Z M319.50078,0 L295.686604,0 L189.186337,79.8336798 L213.00052,79.8336798 L319.50078,0 L319.50078,0 L319.50078,0 Z"></path>
        </g>
    </g>
</svg>
