<svg xmlns="http://www.w3.org/2000/svg" width="640" height="480"><g fill="none" fill-rule="evenodd"><path fill="#FFF" d="M0 0h640v480H0z"/><path fill="#435125" d="M305.84 401.56c-.16-.08-.16-.08-.24-.16l-.08-.08c-.24-.24-.72-.64-1.28-1.28-1.04-1.2-2.48-2.96-3.76-4.56-2.48-3.12-4.56-5.76-4.96-6.32l-.64-.8-6.24-1.92-4.56-2.08 2.4-2.72 8.32 3.6 6.24 1.28 11.52 8.48s-1.68 1.36-3.28 2.88c-.72.64-1.68 1.52-2.32 2.24-.32.32-.56.64-.72.88-.08.16-.16.32-.24.4l.72-.48.8.64-1.6.16-.08-.16zm-42.64-12.8c-5.44 0-10.8-1.52-15.92-4.48 0 0 .64-1.28 2.32-2.48 1.52-1.12 4.32-2.48 8.88-2.48h.08c5.36 0 11.92 1.84 19.52 5.44-.32.16-6.24 4-14.88 4zm-23.52-5.2c-1.04 0-1.92-.4-2.56-1.04-.48-.56-.88-1.28-1.12-2.32-.4-1.6-.32-3.2-.32-3.36.4-.16.88-.24 1.28-.32h.08c2 0 3.6 1.76 4.24 3.44.4.96.48 1.84.24 2.48-.24.64-.96 1.12-1.84 1.12zm41.36-4.8c-13.92-2-19.76-7.04-22.24-10.88-2.64-4.08-2.08-7.92-2.08-8 0 0 .88-.24 2.16-.24 3.6.08 13.04 1.92 22.16 19.12zm-28.48-2.72c-5.92 0-10.48-1.04-13.44-3.04-1.68-1.2-2.56-2.4-2.96-3.28-.4-.8-.48-1.52-.48-1.6.16-.08 2.56-1.12 6.24-1.28h.96c4.56 0 11.52 1.52 18.88 8.64-3.36.32-6.48.56-9.2.56zm-28.72-1.12c-6.24 0-14.88-1.92-20.24-7.28.08 0 5.84-1.52 12.4-1.68h1.2c5.84 0 10.32 1.12 13.36 3.36 1.04.8 1.6 1.52 1.76 2.24.08.56-.24 1.2-.88 1.68-1.36 1.04-3.76 1.52-7.12 1.6l-.48.08zm-20.32-10.4c-.8 0-1.52-.32-2-.96-.4-.48-.72-1.12-.88-2-.32-1.44-.24-2.96-.24-2.96.32-.16.64-.24.96-.24.96 0 1.6.48 2.08.96.56.56 1.04 1.28 1.36 2.08.32.8.32 1.52.16 2.08s-.64 1.04-1.44 1.04zm46.88-1.04c-1.04 0-1.92-.4-2.56-1.04-.48-.56-.88-1.28-1.12-2.32-.4-1.6-.32-3.2-.32-3.36.4-.16.88-.24 1.28-.32h.08c2 0 3.6 1.76 4.24 3.44.4.96.48 1.84.24 2.48-.24.64-.96 1.12-1.84 1.12zm-22.8-.96c-12.56-.48-19.12-4-22.4-6.96-1.84-1.68-2.88-3.28-3.36-4.32-.48-1.04-.72-1.76-.72-1.92 0 0 1.2-.4 3.12-.48h.32c4.16-.08 12.8 1.76 23.04 13.68zm13.6-1.28c-10.16-1.52-15.84-5.92-18.88-9.28-3.2-3.52-4.16-6.8-4.16-6.96 0 0 1.28-.32 3.12-.4h.88c5.12.16 14.32 2.48 19.04 16.64zm-52-4.88c-3.28 0-6.56-.4-9.6-1.12-5.28-1.36-7.6-3.36-8.56-4.8-.56-.8-.72-1.6-.8-2-.08-.48 0-.8 0-.88 0 0 3.52-.96 8.4-1.04h.56c2.32 0 4.64.24 6.88.64 8.4 1.68 12.8 8.08 12.88 8.08-.08 0-4.08 1.12-9.76 1.12zm23.52-8.48c-1.04 0-1.92-.4-2.56-1.04-.48-.56-.88-1.28-1.12-2.32-.4-1.6-.32-3.2-.32-3.36.4-.16.88-.24 1.28-.32h.08c2 0 3.6 1.76 4.24 3.44.4.96.4 1.76.16 2.4-.16.72-.88 1.2-1.76 1.2zm-17.68-2.48c-.08 0-4.8-1.2-9.6-4.16-4.4-2.72-9.84-7.6-10.56-15.04 0 0 .4-.08 1.04-.16h.24c1.36 0 4 .4 7.28 2.88 4.32 3.2 8.16 8.72 11.6 16.48zm11.6-.4s-3.36-1.36-7.6-4.88c-3.92-3.28-9.36-9.2-13.36-18.64 0 0 .88-.48 2.32-.56h.64c1.92.08 4.88.88 8.16 4.4 3.68 4 6.96 10.64 9.84 19.68zm-29.92-.88c-3.84 0-5.2-2.08-5.6-2.96-.64-1.44-.48-2.96-.48-2.96.64-.16 1.28-.24 1.92-.24h.16c3.04 0 5.44 1.52 6.48 3.04.24.32.8 1.36.32 2.16-.4.64-1.36.96-2.8.96zm-8.56-10.8c-2.16 0-5.44-.16-8.88-.8-3.44-.64-5.36-3.52-6.4-5.92-1.12-2.56-1.44-4.96-1.44-5.04 10.64.32 15.68 3.44 18 6 2.4 2.64 2.56 5.36 2.56 5.52-.08.16-1.6.24-3.84.24zm11.04-11.04s-1.2-1.52-2.4-3.36c-1.28-1.92-2.4-4-2.4-5.68 0-1.6-.4-5.04-.64-6.88-.32-2.4-.56-4.4-.64-4.64.24.08 6.64 2.48 6.64 8.48.08 6-.56 12-.56 12.08zm-8.24-.56h-.16c-1.92-.32-5.2-1.76-8.88-3.84-4.08-2.32-7.36-4.8-9.28-7.04-1.76-2-2.8-5.2-3.12-9.36-.24-2.96.08-5.52.08-5.76.32-.08.72-.16 1.04-.16 1.44 0 2.88.64 4.96 2.08 1.6 1.12 3.36 2.56 5.2 4.4 3.2 3.2 5.76 6.32 5.76 6.4.24.4 2 3.68 3.44 6.88.88 2 1.44 3.52 1.6 4.56.08.64.16 1.04 0 1.44-.08.16-.16.32-.32.32-.08.08-.16.08-.32.08z"/><path fill="#435125" d="M285.662 401.56c.16-.08.16-.08.24-.16l.08-.08c.24-.24.72-.64 1.28-1.28 1.04-1.2 2.48-2.96 3.76-4.56 2.48-3.12 4.56-5.76 4.96-6.32l.64-.8 6.24-1.92 4.56-2.08-2.4-2.72-8.32 3.6-6.24 1.28-11.52 8.32s1.68 1.36 3.28 2.88c.72.64 1.68 1.52 2.32 2.24.32.32.56.64.72.88.08.16.16.32.24.4l-.72-.48-.8.64 1.6.16h.08zm42.64-12.8c5.44 0 10.8-1.52 15.92-4.48 0 0-.64-1.28-2.32-2.48-1.52-1.12-4.32-2.48-8.88-2.48h-.08c-5.36 0-11.92 1.84-19.52 5.44.32.16 6.24 4 14.88 4zm23.52-5.2c1.04 0 1.92-.4 2.56-1.04.48-.56.88-1.28 1.12-2.32.4-1.6.32-3.2.32-3.36-.4-.16-.88-.24-1.28-.32h-.08c-2 0-3.6 1.76-4.24 3.44-.4.96-.48 1.84-.24 2.48.16.64.96 1.12 1.84 1.12zm-41.36-4.8c13.92-2 19.76-7.04 22.24-10.88 2.64-4.08 2.08-7.92 2.08-8 0 0-.88-.24-2.16-.24-3.6.08-13.04 1.92-22.16 19.12zm28.48-2.72c5.92 0 10.48-1.04 13.44-3.04 1.68-1.2 2.56-2.4 2.96-3.28.4-.8.48-1.52.48-1.6-.16-.08-2.56-1.12-6.24-1.28h-.96c-4.56 0-11.52 1.52-18.88 8.64 3.36.32 6.4.56 9.2.56zm28.72-1.12c6.24 0 14.88-1.92 20.24-7.28-.08 0-5.84-1.52-12.4-1.68h-1.2c-5.84 0-10.32 1.12-13.36 3.36-1.04.8-1.6 1.52-1.76 2.24-.08.56.24 1.2.88 1.68 1.36 1.04 3.76 1.52 7.12 1.6l.48.08zm20.24-10.4c.8 0 1.52-.32 2-.96.4-.48.72-1.12.88-2 .32-1.44.24-2.96.24-2.96-.32-.16-.64-.24-.96-.24-.96 0-1.6.48-2.08.96-.56.56-1.04 1.28-1.36 2.08-.32.8-.32 1.52-.16 2.08s.72 1.04 1.44 1.04zm-46.8-1.04c1.04 0 1.92-.4 2.56-1.04.48-.56.88-1.28 1.12-2.32.4-1.6.32-3.2.32-3.36-.4-.16-.88-.24-1.28-.32h-.08c-2 0-3.6 1.76-4.24 3.44-.4.96-.48 1.84-.24 2.48.24.64.96 1.12 1.84 1.12zm22.8-.96c12.56-.48 19.12-4 22.4-6.96 1.84-1.68 2.88-3.28 3.36-4.32.48-1.04.72-1.76.72-1.92 0 0-1.2-.4-3.12-.48h-.32c-4.16-.08-12.8 1.76-23.04 13.68zm-13.68-1.28c10.16-1.52 15.84-5.92 18.88-9.28 3.2-3.52 4.16-6.8 4.16-6.96 0 0-1.28-.32-3.12-.4h-.88c-5.04.16-14.24 2.48-19.04 16.64zm52-4.88c3.28 0 6.56-.4 9.6-1.12 5.28-1.36 7.6-3.36 8.56-4.8.56-.8.72-1.6.8-2 .08-.48 0-.8 0-.88 0 0-3.52-.96-8.4-1.04h-.56c-2.32 0-4.64.24-6.88.64-8.4 1.68-12.8 8.08-12.88 8.08.16 0 4.16 1.12 9.76 1.12zm-23.52-8.48c1.04 0 1.92-.4 2.56-1.04.48-.56.88-1.28 1.12-2.32.4-1.6.32-3.2.32-3.36-.4-.16-.88-.24-1.28-.32h-.08c-2 0-3.6 1.76-4.24 3.44-.4.96-.4 1.76-.16 2.4.16.72.88 1.2 1.76 1.2zm17.68-2.48c.08 0 4.8-1.2 9.6-4.16 4.4-2.72 9.84-7.6 10.56-15.04 0 0-.4-.08-1.04-.16h-.24c-1.36 0-4 .4-7.28 2.88-4.24 3.2-8.16 8.72-11.6 16.48zm-11.52-.4s3.36-1.36 7.6-4.88c3.92-3.28 9.36-9.2 13.36-18.64 0 0-.88-.48-2.32-.56h-.64c-1.92.08-4.88.88-8.16 4.4-3.68 4-7.04 10.64-9.84 19.68zm29.92-.88c3.84 0 5.2-2.08 5.6-2.96.64-1.44.48-2.96.48-2.96-.64-.16-1.28-.24-1.92-.24h-.16c-3.04 0-5.44 1.52-6.48 3.04-.24.32-.8 1.36-.32 2.16.4.64 1.36.96 2.8.96zm8.56-10.8c2.16 0 5.44-.16 8.88-.8 3.44-.64 5.36-3.52 6.4-5.92 1.12-2.56 1.44-4.96 1.44-5.04-10.64.32-15.68 3.44-18 6-2.4 2.64-2.56 5.36-2.56 5.52.08.16 1.52.24 3.84.24zm-11.12-11.04s1.2-1.52 2.4-3.36c1.28-1.92 2.4-4 2.4-5.68 0-1.6.4-5.04.64-6.88.32-2.4.56-4.4.64-4.64-.24.08-6.64 2.48-6.64 8.48s.56 12 .56 12.08zm8.32-.56h.16c1.92-.32 5.2-1.76 8.88-3.84 4.08-2.32 7.36-4.8 9.28-7.04 1.76-2 2.8-5.2 3.12-9.36.24-2.96-.08-5.52-.08-5.76-.32-.08-.72-.16-1.04-.16-1.44 0-2.88.64-4.96 2.08-1.6 1.12-3.36 2.56-5.2 4.4-3.2 3.2-5.76 6.32-5.76 6.4-.24.4-2 3.68-3.44 6.88-.88 2-1.44 3.52-1.6 4.56-.08.64-.16 1.04 0 1.44.08.16.16.32.32.32.08.08.16.08.32.08z"/><path fill="#D27727" d="M515.92 79.172c-67.812 25.888-133.888 75.565-217.08 68.64-20.465-1.704-47.224.98-65.64-12 4.003 14.486 7.336 41.16-8.88 49.92-12.694 6.857-27.42-9.79-41.84-6.6-20.672 4.574-32.088 48.155-58.48 17.48 4.9 45.665 19.127 67.95 62.72 85.6 18.4 4.854 49.996-11.766 49.2 18.4 2.52.458 14.38.543 16.64.08-18.348-27.706 81.83-37.692 98.48-53.04 9.548-8.802.75-19.71 14.72-26.32 11.644-5.51 19.406 6.604 28.24 6.72 13.69.18 23.15-9.896 38.16-4.08-6.615-12.548-21.864-28.624-33.28-40.08-1.968-24.064 25.85-37.935 43.88-51 18.92-13.71 67.188-32.968 73.16-53.72"/></g></svg>
