<svg xmlns="http://www.w3.org/2000/svg" width="640" height="480"><g fill="none" fill-rule="evenodd"><path fill="#171796" d="M0 0h640v480H0z"/><path fill="#FFF" d="M0 0h640v320H0z"/><path fill="#F00" d="M0 0h640v160H0z"/><path fill="#F00" d="M319.816 395c59.568 0 108.304-48.8 108.304-108.44V157.7H211.51v128.86c0 59.643 48.737 108.44 108.303 108.44h.003z"/><path fill="#FFF" d="M319.816 393.262c58.433 0 106.238-47.87 106.238-106.373V159.78h-212.48v127.11c0 58.506 47.808 106.372 106.242 106.372"/><path fill="#F00" d="M381.076 298.717v44.972H340.19v-44.98h40.886l-.002-44.98h40.85v32.85c0 4.1-.254 8.14-.727 12.11v.003h-40.12zm-81.773 44.972H258.42v-44.98h40.885v44.97h40.883v43.15c-4.348.89-8.795 1.5-13.32 1.82h-.003c-4.758.28-9.52.29-14.28 0-4.51-.32-8.947-.92-13.282-1.81v-43.16zm-40.886-179.91h-40.885v44.97h40.885v-44.97zm0 89.95h40.885v-44.97h-40.885v44.97zm-40.885 32.9c0 4.08.253 8.11.723 12.07h40.162v-44.97h-40.885v32.9zm122.66-32.9H299.3v44.97h40.89v-44.97zm40.884 114.55c9.066-6.85 16.968-15.17 23.344-24.6h-23.344v24.6zm-146.036-24.6c6.383 9.44 14.3 17.77 23.38 24.63v-24.63h-23.38zm105.15-89.96h40.886v-44.97H340.19v44.97zm0-89.95h-40.884v44.97h40.885v-44.97zm81.733 0h-40.847v44.97h40.847v-44.97z"/><path fill="#FFF" d="M424.212 156.38l25.35-57.537-19.313-31.227-32 11.86-22.47-25.713-29.6 16.987-26.4-21.646-26.39 21.646-29.61-16.987-22.47 25.712-32-11.862L190 98.848l25.318 57.55c31.902-14.46 67.276-22.515 104.47-22.515 37.178 0 72.535 8.05 104.43 22.497h-.006z"/><path fill="#0093DD" d="M242.022 82.016l-.046.055-31.732-11.76-17.758 28.71 6.802 15.49 17.232 39.17c12.866-5.69 26.28-10.36 40.14-13.9l-14.635-57.75h-.003z"/><path fill="#171796" d="M293.664 73.374l-.054.044-29.356-16.842-22.232 25.44 14.635 57.744c13.58-3.46 27.59-5.824 41.922-7.01l-4.92-59.376z"/><path fill="#F00" d="M253.027 125.43c14.36-3.66 29.176-6.16 44.334-7.415l-1.24-15.01c-15.99 1.326-31.63 3.965-46.79 7.825l3.7 14.6h.01zm-7.357-29.022c15.944-4.065 32.39-6.838 49.218-8.23l-1.22-14.735c-17.653 1.46-34.907 4.373-51.632 8.634l3.633 14.33z"/><path fill="#0093DD" d="M346.022 73.385l-.063.036-26.18-21.46-26.12 21.42 4.91 59.38c6.99-.58 14.06-.88 21.2-.88 7.17 0 14.27.31 21.3.9L346 73.4h.002z"/><path fill="#171796" d="M397.662 82.046l-.07.026-22.277-25.497-29.293 16.81-4.94 59.375c14.335 1.19 28.34 3.56 41.92 7.026L397.66 82.05v-.005z"/><path fill="#0093DD" d="M423.01 153.646l24.072-54.63-17.757-28.707-31.666 11.74L383 139.78c13.815 3.53 27.18 8.188 40.007 13.864l.003-.004z"/><path fill="#FFF" d="M392.312 103.114c15.862 4.05 31.217 9.402 45.946 15.923l-9.288 21.087c-13.57-6.007-27.714-10.936-42.33-14.667l5.672-22.343z"/><path fill="#F00" d="M430.463 136.737l6.205-14.08c-14.53-6.434-29.677-11.71-45.324-15.71l-3.658 14.406c14.84 3.793 29.21 8.8 42.992 14.9l-.215.484z"/></g></svg>
