<svg xmlns="http://www.w3.org/2000/svg" width="640" height="480" viewBox="0 0 640 480"><g fill="none" fill-rule="evenodd"><g fill-rule="nonzero"><polygon fill="#CE0000" points="320 0 640 0 640 480 320 480"/><polygon fill="#FFF" points="0 0 320 0 320 480 0 480"/></g><g transform="translate(52.564 50.778)"><path fill="#C00" d="M0.1621822,79.898028 L0.1621822,139.380335 L59.6476868,139.380335 C59.6476868,149.291655 69.562204,159.206173 79.4767212,159.206173 L79.4767212,218.685283 L138.95743,218.685283 L138.95743,159.206173 C148.871947,159.206173 158.786464,149.291655 158.786464,139.380335 L218.271969,139.380335 L218.271969,79.898028 L158.786464,79.898028 C158.786464,69.986708 148.871947,60.0721908 138.95743,60.0721908 L138.95743,0.5930806 L79.4767212,0.5930806 L79.4767212,60.0721908 C69.562204,60.0721908 59.6476868,69.986708 59.6476868,79.898028 L0.1621822,79.898028 Z"/><path fill="#A0A0A0" d="M6.11377,85.84482 L6.11377,133.428748 L65.5944788,133.428748 C65.5944788,143.340068 75.508996,153.257782 85.4235132,153.257782 L85.4235132,212.736892 L133.009039,212.736892 L133.009039,153.257782 C142.923557,153.257782 152.838074,143.340068 152.838074,133.428748 L212.318783,133.428748 L212.318783,85.84482 L152.838074,85.84482 C152.838074,75.9335 142.923557,66.0189828 133.009039,66.0189828 L133.009039,6.5398726 L85.4235132,6.5398726 L85.4235132,66.0189828 C75.508996,66.0189828 65.5944788,75.9335 65.5944788,85.84482 L6.11377,85.84482 Z"/></g></g></svg>
