<svg xmlns="http://www.w3.org/2000/svg" width="640" height="480"><g fill="none"><path fill="#F7E017" d="M0 0h640v480H0z"/><path fill="#FFF" d="M0 33.333v213.334l640 100V233.333z"/><path fill="#000" d="M0 146.667v100l640 200v-100z"/><g fill="#CF1126"><path d="M310.896 350.115c-25.72-2.468-50.33-15.865-65.293-37.105-16.247-22.156-21.367-51.411-16.408-78.16 2.636-12.178 7.953-24.364 17.03-33.036-7.234 15.335-9.678 32.913-5.82 49.527 5.993 33.169 34.024 61.247 67.56 66.104 13.267 3.84 26.992-.216 39.664-4.329 27.957-9.853 49.254-36.388 51.852-66.053 2.224-16.052-.24-32.742-7.472-47.277 4.123 2.18 9.325 10.725 12.394 16.471 10.668 20.669 11.155 45.437 4.875 67.494-8.52 28.065-29.977 52.652-58.341 61.588-12.872 4.206-26.562 5.488-40.04 4.778l-.001-.002z"/><path d="M317.116 317.322c-8.996-.857-17.112-7.414-19.886-16 .149-1.48 1.991.827 2.861.982 1.633.907 3.4 1.654 5.28 1.77 2.372 1.019 3.838 3.356 6.101 4.575 1.052.819 4.77 2.427 4.08-.176-.872-1.36-1.47-3.083-.72-4.641 1.26-2.767 3.2-5.176 5.152-7.484 1.436-.48 2.397 2.351 3.423 3.304 1.42 2.186 3.134 4.854 2.298 7.568-.813 1.006-1.347 4.032.828 3.015 2.68-1.18 4.877-3.161 7.1-5.011 1.946-1.36 4.436-1.456 6.476-2.647.944-.24 2.913-2.13 3.324-1.082-1.118 2.992-2.988 5.671-4.988 8.14-3.24 3.7-7.622 6.484-12.525 7.269-2.897.53-5.87.642-8.804.418z"/><path d="M327.69 306.815c.197-1.805-.214-3.649-1.136-5.29-1.416-2.884-3.414-5.444-5.364-7.973-1.838-1.078-2.858 2.438-4.08 3.446-1.905 2.852-4.296 5.772-4.412 9.358-1.07 1.668-3.069-1.36-3.93-2.357-1.646-2.327-2.89-5.08-2.687-7.991-.195-4.691.705-9.361 2.413-13.721 1.29-3.722 3.384-7.337 3.172-11.403.15-3.06-.472-6.44-2.95-8.497-2.36-1.85 1.526-2.246 2.761-1.286 2.112.142 3.255 3.632 5.185 2.768.768-1.823.921-3.998 2.506-5.42 1.556-2.13 3.182.904 3.714 2.326 1.098 1.248-.062 4.338 1.722 4.418 2.137-1.498 3.661-4.014 6.394-4.562 1.109-.633 3.003-.085 1.541 1.19-2.022 1.896-3.75 4.266-4.12 7.087-.618 3.538.268 7.126 1.81 10.313 2.964 6.26 5.256 13.331 3.757 20.297-.695 3.096-2.799 5.763-5.355 7.56-.322.195-.833.182-.942-.263z"/><path d="M324.49 259.755c-.972-1.75-2.15-3.474-3.783-4.664-1.587-.003-2.567 2-3.645 3.05-.756 1.406-1.675 3.758-3.537 1.92-2.963-1.73-3.487-5.518-3.468-8.64-.187-5.06 1.851-9.783 3.661-14.392 1.152-2.885.868-6.132.166-9.089-.885-3.395-3.61-5.749-5.707-8.397.143-1.024 2.823-.464 3.832-.27 2.24.568 3.578 2.55 5.247 3.951 1.188-.36.703-2.76 1.256-3.889.041-1.588 2.155-3.681 3.027-1.408 1.306 1.446-.041 4.31 1.646 5.21 1.607-.595 2.4-2.352 3.91-3.146 1.488-1.014 3.586-1.127 5.186-.332.564 1.476-1.76 2.704-2.433 3.985-2.7 3.337-3.65 7.94-2.493 12.075.918 3.243 2.542 6.27 3.103 9.622.675 3.77.653 7.727-.323 11.44-.582 2.254-2.534 3.76-4.55 4.696-.497-.462-.76-1.142-1.096-1.722z"/><path d="M314.41 217.928c-2.24-1.64-2.98-3.207-2.98-6.307 0-1.586.292-2.446 1.34-3.886 1.54-2.134 1.26-2.807-.92-2.18-3.508 1.006-5.18.086-5.3-2.9-.054-1.46.252-2.08 2.22-4.44 1.572-1.894 2.146-2.887 1.832-3.2-.306-.307-2.166 1.306-5.986 5.193-3.047 3.1-6.474 6.267-7.614 7.04-6.56 4.427-12.826 5.113-15.686 1.707-1.467-1.74-1.387-2.72.306-3.774.78-.48 2.094-1.586 2.927-2.46 1.967-2.046 7.827-6.273 10.733-7.74 2.36-1.193 2.92-2 1.387-2-1.987 0-8.36 4.147-13.193 8.587-1.42 1.313-3.467 2.773-4.54 3.247-2.414 1.066-7.154 1.46-9.26.766-1.487-.493-4.2-3.053-4.2-3.966 0-.24.62-.774 1.373-1.18.753-.4 2.107-1.38 3-2.16 3.867-3.394 11.193-6.887 17.007-8.107 1.846-.387 1.166-1.32-.894-1.227-3.993.173-11.92 3.887-16.653 7.793-5.547 4.574-13.914 4.14-16.607-.86-.467-.86-.74-1.666-.607-1.793.127-.127 1.774-.62 3.66-1.1 2.04-.513 6.08-2.187 9.94-4.113 6.074-3.027 7.874-3.674 12.054-4.347 1.88-.3 1.98-1.22.153-1.433-2.353-.28-5.96.9-12.333 4.033-8.187 4.027-10.48 4.72-14.794 4.467-3.933-.24-6.153-1.247-9.346-4.267-2.087-1.98-5.047-7.007-4.467-7.587.14-.14 1.1 0 2.133.3 1.147.34 4.434.567 8.394.574 5.54.013 7.013-.134 9.966-.987 4.94-1.427 11.507-4.767 16-8.12 8.594-6.427 15.6-9.007 24.534-9.047 8.247-.033 13.493 1.874 18.14 6.587 1.573 1.593 2.913 2.627 3.133 2.407.207-.207.434-2.994.5-6.194 0 0 2.427-.233 2.94.447 0 5.193.06 5.6.814 5.6.493 0 1.02-.507 1.346-1.293.707-1.7 3.32-4.027 6.114-5.44 6.033-3.06 16.473-3.154 24.86-.227 3.533 1.24 7.453 3.453 11.187 6.333 3.746 2.88 11.406 6.734 15.933 8.02 4.58 1.3 12.654 1.627 16.794.687 1.706-.387 3.306-.707 3.56-.707 1.526 0-1.074 5.087-4.127 8.067-5.58 5.453-12.84 5.427-23.054-.08-6.366-3.427-13.98-5.3-13.98-3.433 0 .386.4.646.994.646 2.213 0 6.486 1.487 12.446 4.314 6.447 3.066 10.067 4.36 12.214 4.36 1.56 0 1.606.966.153 3.1-1.54 2.273-4.153 3.4-7.847 3.393-3.526-.013-5.486-.787-8.64-3.407-5.273-4.386-18.413-9.28-17.906-6.666.1.52.733.84 2.086 1.046 4.574.7 9.94 3.26 15.434 7.374 1.693 1.273 3.453 2.527 3.9 2.793.753.44.766.574.173 1.687-.987 1.84-3.473 3.267-6.167 3.547-3.486.36-6.52-.68-9.66-3.307-6.626-5.547-12.873-9.56-14.873-9.56-1.633 0-.9.9 1.98 2.426 3.787 2.007 7.68 4.72 10.547 7.354 1.353 1.253 2.88 2.493 3.386 2.767 1.2.64 1.154 1.58-.166 3.306-1.347 1.76-3.574 2.534-6.46 2.227-5.76-.607-10.254-3.387-17.314-10.713-2.76-2.86-5.22-5.2-5.473-5.2-.94 0-.387 1.273 1.433 3.313 2.254 2.52 2.687 3.94 1.834 5.987-.754 1.813-2.007 2.233-4.58 1.54-2.634-.714-3.047-.067-1.32 2.08 2.573 3.206 2.193 7.133-.96 9.833-.98.833-2.007 1.52-2.287 1.52-.274 0-.967-.713-1.547-1.587-2.027-3.08-3.807-3.06-5.78.054-.687 1.086-1.267 1.966-1.287 1.96-.026-.007-.953-.674-2.053-1.487z"/><path d="M324.449 155.354l-3.42 2.707-3.067-2.313v18.493l6.487.08z"/><path d="M303.262 136.168c-.68 8.74-2.9 14.84-5.986 21.566l7.4-6.86 5.146 6.114 5.574-6.22 5.686 5.253 5.467-5.467 5.68 6.647 4.934-5.467 8.36 6c-3.034-6.726-7.14-12.426-6.627-21.893-8.1 6.02-27.347 7.107-35.634.327z"/><path d="M317.97 131.707c-2.974.054-6.108.094-8.928.647-1.953.387-3.726 1.02-5.206 2.067.24 5.687 27.333 8.06 34.6.107-1.527-1.114-3.393-1.774-5.447-2.174-2.713-.527-5.713-.58-8.56-.627 0 1.56.013 3.127.013 4.694l-6.473-.02v-4.694z"/><path d="M323.269 102.647l-4.207.034v32.92l4.294.02z"/><path d="M323.262 103.494l-1.606 15.76 16.213 7.92-8.206-10.973 11.206-3.634-17.607-9.073zm-1.806-4.107c-2.46 0-4.28.92-4.28 2.014 0 1.093 1.82 2.02 4.28 2.02s4.266-.927 4.266-2.02c0-1.094-1.806-2.014-4.266-2.014z"/></g></g></svg>
