<svg xmlns="http://www.w3.org/2000/svg" width="640" height="480"><g fill="none" fill-rule="evenodd"><path fill="#ED2939" d="M0 0h640v240H0z"/><path fill="#FFF" d="M0 240h640v240H0zm246.946-120c0 49.844-40.406 90.25-90.25 90.25-49.843 0-90.25-40.406-90.25-90.25 0-32.243 17.202-62.037 45.125-78.16 27.93-16.12 62.33-16.12 90.25 0 27.93 16.123 45.13 45.917 45.13 78.16z"/><path fill="#ED2939" d="M275.306 120c0 47.104-38.185 85.29-85.29 85.29-47.103 0-85.29-38.186-85.29-85.29 0-47.104 38.187-85.29 85.29-85.29 47.105 0 85.29 38.186 85.29 85.29z"/><path fill="#FFF" d="M167.866 122.177l-12.26-9.405-12.257 9.41 4.712-15.166-12.3-9.348 15.177.032 4.656-15.188 4.66 15.186 15.177-.038-12.296 9.353 4.724 15.164zm96.198 0l-12.26-9.405-12.257 9.41 4.72-15.166-12.3-9.348 15.176.032 4.656-15.188 4.66 15.186 15.17-.038-12.296 9.353 4.723 15.164zm-48.05-35.7l-12.26-9.406-12.257 9.41 4.72-15.16-12.3-9.35 15.176.03 4.656-15.185L208.41 62l15.173-.038-12.296 9.354 4.723 15.164zM185.866 179.3l-12.26-9.405-12.257 9.41 4.712-15.166-12.3-9.35 15.177.03 4.656-15.187 4.66 15.186 15.177-.038-12.296 9.353 4.724 15.163zm60.198 0l-12.26-9.405-12.257 9.41 4.72-15.166-12.3-9.35 15.176.03 4.656-15.187 4.66 15.186 15.17-.038-12.296 9.353 4.723 15.163z"/></g></svg>
