<svg xmlns="http://www.w3.org/2000/svg" width="640" height="480"><g fill="none" fill-rule="evenodd"><path fill="#F93" d="M0 0h640v480H0z"/><path fill="#FFF" d="M0 160h640v160H0z"/><path fill="#128807" d="M0 320h640v160H0z"/><g fill="#008"><path d="M356.262 282.67c-.95-1.176-2.67-1.39-3.876-.464-1.208.927-1.445 2.644-.553 3.867-2.477 1.716-5.1 3.236-7.844 4.54-.62-1.39-2.23-2.047-3.63-1.463-1.41.584-2.09 2.187-1.54 3.602-2.82 1.007-5.75 1.796-8.76 2.343-.23-1.5-1.62-2.55-3.13-2.35-1.51.198-2.58 1.566-2.41 3.072-1.5.12-3.01.183-4.53.183-1.53 0-3.04-.064-4.53-.183.16-1.506-.91-2.874-2.42-3.072-1.51-.2-2.9.85-3.13 2.35-3.01-.547-5.94-1.335-8.76-2.342.55-1.416-.12-3.02-1.54-3.603-1.41-.584-3.02.073-3.63 1.463-2.74-1.304-5.367-2.824-7.84-4.54.89-1.223.652-2.94-.55-3.867-1.21-.926-2.93-.712-3.88.464-1.15-.98-2.266-2.003-3.335-3.072-1.07-1.07-2.093-2.184-3.073-3.336 1.175-.952 1.39-2.67.463-3.876-.92-1.208-2.64-1.445-3.86-.553-1.713-2.477-3.235-5.1-4.54-7.844 1.39-.62 2.048-2.23 1.464-3.63-.59-1.41-2.19-2.09-3.607-1.54-1.007-2.82-1.795-5.75-2.34-8.76 1.5-.23 2.55-1.62 2.35-3.13-.2-1.51-1.567-2.58-3.07-2.42-.12-1.49-.186-3.01-.186-4.53 0-1.53.06-3.04.18-4.53 1.506.16 2.873-.91 3.07-2.42.2-1.51-.85-2.9-2.35-3.13.55-3.01 1.337-5.94 2.344-8.76 1.418.55 3.02-.12 3.604-1.537.585-1.41-.07-3.016-1.46-3.63 1.304-2.74 2.826-5.363 4.54-7.84 1.224.89 2.94.655 3.867-.55.93-1.208.713-2.926-.46-3.877.98-1.15 2-2.264 3.07-3.333 1.07-1.07 2.183-2.09 3.336-3.072.95 1.177 2.67 1.39 3.876.465 1.206-.925 1.443-2.64.55-3.866 2.48-1.714 5.1-3.235 7.845-4.54.61 1.39 2.22 2.05 3.63 1.463 1.41-.58 2.086-2.184 1.535-3.6 2.82-1.006 5.746-1.794 8.756-2.34.23 1.5 1.62 2.55 3.13 2.35 1.51-.2 2.58-1.57 2.42-3.073 1.49-.12 3-.18 4.53-.18 1.523 0 3.034.068 4.53.188-.16 1.508.9 2.876 2.41 3.075 1.51.2 2.893-.85 3.124-2.35 3.01.54 5.933 1.33 8.754 2.34-.55 1.41.12 3.02 1.53 3.6 1.41.58 3.02-.078 3.63-1.468 2.75 1.304 5.37 2.825 7.847 4.54-.89 1.223-.654 2.94.554 3.866 1.21.93 2.93.716 3.88-.46 1.15.98 2.265 2 3.334 3.07 1.07 1.07 2.09 2.18 3.07 3.335-1.175.95-1.39 2.67-.464 3.875.927 1.207 2.64 1.444 3.866.55 1.716 2.48 3.237 5.1 4.54 7.846-1.39.61-2.047 2.22-1.463 3.63.59 1.41 2.19 2.083 3.61 1.53 1.01 2.82 1.797 5.743 2.343 8.75-1.5.23-2.55 1.617-2.35 3.13.2 1.51 1.566 2.572 3.07 2.412.12 1.492.185 3.003.185 4.53 0 1.53-.06 3.04-.18 4.53-1.51-.16-2.877.902-3.076 2.412-.2 1.51.85 2.896 2.35 3.13-.543 3.01-1.332 5.93-2.34 8.752-1.415-.55-3.02.125-3.602 1.535-.58 1.41.08 3.02 1.47 3.63-1.304 2.743-2.825 5.365-4.54 7.84-1.224-.89-2.94-.65-3.868.56s-.71 2.925.464 3.877c-.98 1.156-2.003 2.27-3.07 3.34-1.07 1.07-2.19 2.094-3.34 3.074M320 176c-35.346 0-64 28.654-64 64 0 35.346 28.654 64 64 64 35.346 0 64-28.654 64-64 0-35.346-28.654-64-64-64"/><path d="M328.305 247.495c.398-.44.764-.91 1.09-1.41l9.044 6.778L368.49 268l-28.138-18.463-10.393-4.445c.27-.526.5-1.073.68-1.643l10.48 4.2 32.95 6.84-31.96-10.55-11.18-1.61c.12-.58.18-1.17.22-1.77l11.22 1.34L376 240l-33.6-1.92-11.23 1.348c-.03-.603-.097-1.195-.22-1.768l11.183-1.603 31.96-10.55-32.953 6.84-10.487 4.204c-.184-.57-.417-1.11-.686-1.64l10.392-4.44L368.49 212l-30.058 15.137-9.046 6.777c-.325-.5-.69-.97-1.09-1.41l8.893-6.986 22.4-25.116-25.12 22.4-6.99 8.893c-.44-.398-.91-.765-1.41-1.09l6.78-9.044L348 191.51l-18.463 28.138-4.445 10.393c-.526-.27-1.073-.5-1.643-.68l4.2-10.48 6.84-32.95-10.55 31.96-1.61 11.19c-.58-.12-1.17-.19-1.77-.22l1.35-11.23L320 184l-1.92 33.6 1.347 11.23c-.602.03-1.194.097-1.767.22l-1.603-11.184-10.55-31.958 6.84 32.952 4.204 10.487c-.57.184-1.11.417-1.64.686l-4.44-10.392L292 191.51l15.137 30.058 6.777 9.046c-.5.324-.968.69-1.41 1.09l-6.985-8.893-25.12-22.4 22.4 25.12 8.89 6.99c-.4.44-.77.91-1.09 1.41l-9.05-6.78L271.5 212l28.14 18.463 10.4 4.445c-.27.526-.504 1.073-.688 1.643l-10.49-4.2-32.95-6.84 31.957 10.55 11.18 1.61c-.13.58-.19 1.17-.22 1.77l-11.23-1.35L264 240l33.6 1.92 11.23-1.347c.03.602.097 1.194.22 1.767l-11.184 1.603-31.958 10.55 32.952-6.84 10.487-4.204c.184.57.417 1.11.686 1.64l-10.392 4.44L271.51 268l30.058-15.137 9.046-6.777c.324.5.69.97 1.09 1.41l-8.893 6.985-22.4 25.12 25.12-22.4 6.99-8.89c.44.4.91.77 1.41 1.09l-6.78 9.05L292 288.5l18.463-28.14 4.445-10.4c.526.27 1.073.504 1.643.688l-4.2 10.49-6.84 32.95 10.55-31.957 1.61-11.18c.58.13 1.17.19 1.77.22l-1.34 11.23L320 296l1.92-33.6-1.348-11.23c.603-.03 1.195-.097 1.768-.22l1.603 11.184 10.55 31.958-6.84-32.952-4.204-10.487c.57-.184 1.11-.417 1.64-.686l4.44 10.392L348 288.49l-15.137-30.058-6.777-9.046c.5-.324.97-.69 1.41-1.09l6.986 8.893 25.116 22.4-22.4-25.12-8.893-6.99z"/></g></g></svg>
