<svg xmlns="http://www.w3.org/2000/svg" width="640" height="480"><g fill="none" fill-rule="evenodd"><path fill="#F00" d="M0 0h640v480H0z"/><path fill="#FFF" d="M160 0h320v480H160z"/><path fill="#F00" d="M319.994 84.25l-25.107 46.828c-2.85 5.09-7.953 4.618-13.058 1.775l-18.18-9.412 13.55 71.93c2.85 13.14-6.294 13.14-10.805 7.46l-31.722-35.512-5.15 18.034c-.594 2.37-3.206 4.857-7.123 4.264l-40.112-8.432 10.534 38.305c2.255 8.523 4.014 12.052-2.277 14.3l-14.298 6.72 69.05 56.09c2.735 2.12 4.115 5.936 3.14 9.392l-6.04 19.833c23.775-2.74 45.08-6.863 68.866-9.402 2.1-.224 5.616 3.24 5.6 5.676l-3.15 72.66h11.56l-1.82-72.506c-.013-2.432 3.176-6.054 5.276-5.83 23.786 2.54 45.09 6.663 68.865 9.404l-6.044-19.832c-.972-3.456.408-7.272 3.14-9.393l69.054-56.09-14.3-6.72c-6.29-2.248-4.53-5.777-2.276-14.3l10.535-38.305-40.112 8.434c-3.916.593-6.53-1.895-7.122-4.263l-5.15-18.035-31.722 35.513c-4.51 5.68-13.652 5.68-10.803-7.46l13.548-71.925-18.176 9.414c-5.103 2.843-10.207 3.315-13.056-1.775l-25.12-46.83z"/></g></svg>
