<svg xmlns="http://www.w3.org/2000/svg" width="640" height="480" viewBox="0 0 640 480"><g fill="none" fill-rule="evenodd"><g fill-rule="nonzero"><polygon fill="#00319C" points="0 0 213.337 0 213.337 480 0 480"/><polygon fill="#FFDE00" points="213.337 0 426.675 0 426.675 480 213.337 480"/><polygon fill="#DE2110" points="426.662 0 640 0 640 480 426.662 480"/></g><path fill="#A77B3B" stroke="#000" stroke-width="1.712" d="M373.018085,304.651551 C373.018085,321.072119 366.578952,334.383915 358.635236,334.383915 C350.692195,334.383915 344.252386,321.072119 344.252386,304.651551 C344.252386,288.230983 350.691519,274.919187 358.635236,274.919187 C366.578276,274.919187 373.018085,288.230983 373.018085,304.651551 Z" transform="rotate(-40.073 358.635 304.652)"/><path fill="#A77B3B" stroke="#000" stroke-width="1.711" d="M331.169,280.577 L311.637,280.577 C310.991,281.194 305.437,316.175 299.429,329.57 C292.105,345.9 270.169,360.311 270.169,360.311 C270.169,360.311 283.311,364.291 287.222,366.897 C288.194,366.624 309.158,362.232 311.599,336.568 C314.041,362.232 296.989,373.897 296.989,373.897 C296.989,373.897 321.404,380.896 321.404,397.227 C321.404,380.896 345.819,373.897 345.819,373.897 C345.819,373.897 333.573,362.232 331.132,336.568 C336.014,362.232 354.612,366.624 355.585,366.898 C359.495,364.291 372.638,360.311 372.638,360.311 C372.638,360.311 350.702,345.901 343.378,329.57 C337.371,316.175 331.816,281.194 331.171,280.577 L331.169,280.577 Z M248.124,163.907 L284.747,175.572 C296.954,175.572 309.162,163.92 309.162,152.254 C309.568,126.304 299.396,117.247 296.954,117.247 L301.838,112.581 L294.513,105.581 C294.513,105.581 296.962,93.479 321.369,93.929 C345.776,94.379 345.785,105.594 345.785,117.259 C345.785,128.924 333.577,128.924 333.577,152.255 C333.577,163.92 345.785,175.585 357.993,175.585 L394.616,163.92 L394.616,280.571 L248.124,280.571 L248.124,163.908 L248.124,163.907 Z"/><g stroke="#000" stroke-width=".5" transform="translate(304 142)"><polyline points=".276 26.588 2.718 33.588 5.159 26.588 7.601 33.588 12.484 26.588 14.862 33.983 17.367 26.588 20.969 33.983 24.692 26.588 27.133 33.588 29.575 26.588"/><path d="M10.038534,0.9295469 L5.1559257,26.5925146 M12.4846615,0.9295469 L12.4846615,26.5925146 M17.3631355,0.9295469 L17.3631355,26.5925146 M22.2485,0.9295469 L24.6898042,26.5925146 M27.1338645,0.9295469 L29.5751687,26.5925146"/></g><g stroke="#000" transform="translate(199 93)"><path fill="#A77B3B" stroke-width="1.712" d="M24.706955,0.9357706 C49.1220637,12.6011749 49.1220637,35.9306667 49.1220637,47.596071 C48.2600621,58.2079873 49.1220637,280.897573 49.1220637,280.897573 C49.1220637,280.897573 47.5331144,267.714487 36.9141648,257.567423 L24.706955,245.902677 L12.4990561,234.237272 C3.5751696,226.484918 0.29184635,210.907122 0.29184635,199.241718 L0.29184635,35.9313251 C0.29184635,35.9313251 0.29184635,24.2659208 24.706955,0.9357706 Z" transform="matrix(-1 0 0 1 49.414 0)"/><path stroke-width="1.712" d="M0.2966697,47.5979886 C0.58400355,47.5979886 12.5038795,35.9325843 12.5038795,35.9325843 L24.7117783,47.5979886 L36.9189881,35.9325843 L49.126887,47.5979886" transform="matrix(-1 0 0 1 49.424 0)"/><path stroke-width="1.712" d="M0.2966697,70.9134157 C0.58400355,70.9134157 12.5038795,59.2480114 12.5038795,59.2480114 L24.7117783,70.9134157 L36.9189881,59.2480114 L49.126887,70.9134157" transform="rotate(-180 24.712 65.08)"/><path stroke-width="1.712" d="M0.2966697,94.2569886 C0.58400355,94.2569886 12.5038795,82.5915843 12.5038795,82.5915843 L24.7117783,94.2569886 L36.9189881,82.5915843 L49.126887,94.2569886" transform="matrix(-1 0 0 1 49.424 0)"/><path stroke-width="2.562" d="M36.3698153,35.9477789 L36.2264929,234.256482" transform="matrix(-1 0 0 1 73.142 0)"/><path stroke-width="2.363" d="M24.3048153,47.5879897 L24.1614929,245.441483" transform="matrix(-1 0 0 1 49.012 0)"/><path stroke-width="2.573" d="M12.0948153,35.938193 L11.9514929,257.579425" transform="matrix(-1 0 0 1 24.592 0)"/></g><g stroke="#000" transform="translate(394 93)"><path fill="#A77B3B" stroke-width="1.712" d="M25.030045,0.9357706 C49.4451537,12.6011749 49.4451537,35.9306667 49.4451537,47.596071 C48.5831521,58.2079873 49.4451537,280.897573 49.4451537,280.897573 C49.4451537,280.897573 47.8562044,267.714487 37.2372548,257.567423 L25.030045,245.902677 L12.8221462,234.237272 C3.8982596,226.484918 0.61493635,210.907122 0.61493635,199.241718 L0.61493635,35.9313251 C0.61493635,35.9313251 0.61493635,24.2659208 25.030045,0.9357706 Z"/><path stroke-width="1.712" d="M0.610113,47.5979886 C0.89744685,47.5979886 12.8173228,35.9325843 12.8173228,35.9325843 L25.0252217,47.5979886 L37.2324315,35.9325843 L49.4403303,47.5979886"/><path stroke-width="1.712" d="M0.610113,70.9134157 C0.89744685,70.9134157 12.8173228,59.2480114 12.8173228,59.2480114 L25.0252217,70.9134157 L37.2324315,59.2480114 L49.4403303,70.9134157" transform="matrix(1 0 0 -1 0 130.161)"/><path stroke-width="1.712" d="M0.610113,94.2569886 C0.89744685,94.2569886 12.8173228,82.5915843 12.8173228,82.5915843 L25.0252217,94.2569886 L37.2324315,82.5915843 L49.4403303,94.2569886"/><path stroke-width="2.562" d="M12.9647795,35.9477789 L12.8214571,234.256482"/><path stroke-width="2.363" d="M25.0307795,47.5879897 L24.8874571,245.441483"/><path stroke-width="2.573" d="M37.2327795,35.938193 L37.0894571,257.579425"/></g><path fill="#A77B3B" stroke="#000" stroke-width="1.712" d="M290.349449,297.442992 C290.349449,313.6618 283.833371,326.810034 275.79473,326.810034 C267.756774,326.810034 261.240012,313.6618 261.240012,297.442992 C261.240012,281.224185 267.75609,268.075951 275.79473,268.075951 C283.832686,268.075951 290.349449,281.224185 290.349449,297.442992 Z" transform="rotate(22.62 275.795 297.443)"/><polygon fill="#F00" points="248.119 175.588 394.612 175.588 394.612 245.579 248.119 245.579"/><path fill="#564DFF" d="M248.119,245.58 L394.612,245.58 L394.612,280.576 C394.612,303.906 357.989,303.906 321.366,327.236 C284.742,303.906 248.119,303.906 248.119,280.576 L248.119,245.58 Z"/><path stroke="#FF0" stroke-width="1.369" d="M248.118121,175.587675 L394.610151,175.587675 L394.610151,280.574338 C394.610151,303.904489 357.987143,303.904489 321.364136,327.234639 C284.741817,303.904489 248.118121,303.904489 248.118121,280.574338 L248.118121,175.587675 Z"/><g fill="#DA4500" fill-rule="nonzero" transform="translate(274 100)"><path d="M23.774,20.38 C11.451,20.38 9.822,22.325 4.241,24.27 C4.241,18.904 17.963,12.604 30.285,12.604 C30.285,16.493 27.029,20.382 23.774,20.381 L23.774,20.38 Z"/><path d="M30.263,12.607 C15.888,12.607 7.476,13.901 0.965,16.494 C0.965,9.339 9.377,0.941 23.752,0.941 C27.007,0.941 30.262,8.717 30.262,12.607 L30.263,12.607 Z"/></g></g></svg>
