<svg xmlns="http://www.w3.org/2000/svg" width="640" height="480"><g fill="none" fill-rule="evenodd"><path fill="#00247D" d="M.748.698H639.75V479.7H.748z"/><path fill="#FFF" d="M266.25 0h106.5v159.667H639v159.666H372.75V479h-106.5V319.333H0V159.667h266.25V0z"/><path fill="#FFF" d="M0 0h71.442L639 425.446V479h-71.442L0 53.554V0z"/><path fill="#FFF" d="M639 0h-71.442L0 425.446V479h71.442L639 53.554V0z"/><path fill="#CC142B" d="M287.55 0h63.9v191.6H639v95.8H351.45V479h-63.9V287.4H0v-95.8h287.55V0z"/><path fill="#CC142B" d="M0 0l213 159.667h-47.628L0 35.703V0zm639 0h-47.628l-213 159.667H426L639 0zm0 479L426 319.333h47.628L639 443.297V479zM0 479h47.628l213-159.667H213L0 479z"/></g></svg>
