<svg xmlns="http://www.w3.org/2000/svg" width="640" height="480"><g fill="none" fill-rule="evenodd"><path fill="#0038A8" d="M0 0h640v480H0z"/><path fill="#CE1126" d="M0 240h640v240H0z"/><path fill="#FFF" d="M415.68 240L0 480V0l415.68 240z"/><path fill="#FCD116" d="M244.48 246.187l6.187-6.187-6.187-6.187-47.253 3.094c-.107-1.067-.214-2.134-.32-3.094L240 228.16l-5.12-5.12-38.507 7.68c-1.28-6.293-3.733-12.16-7.146-17.28l32.64-21.76v-7.147l-34.454 26.454c-.64-.854-1.28-1.6-2.026-2.454l35.626-31.146v-8.854h-8.853l-31.147 35.627c-.746-.64-1.6-1.387-2.453-2.027l26.453-34.453h-7.146L176 200.107c-5.12-3.414-10.987-5.974-17.28-7.147l7.68-38.507-5.12-5.12-5.653 43.094c-1.067-.107-2.027-.214-3.094-.32l3.094-47.254-6.294-6.186-6.186 6.186 3.093 47.254c-1.067.106-2.133.213-3.093.32l-5.76-43.094-5.12 5.12 7.68 38.507c-6.294 1.28-12.16 3.733-17.28 7.147l-21.76-32.64H93.76l26.453 34.453c-.853.64-1.6 1.28-2.453 2.027L86.613 168.32H77.76v8.853l35.627 31.147c-.64.747-1.387 1.6-2.027 2.453L76.8 184.32v7.147l32.64 21.866c-3.413 5.12-5.973 10.987-7.147 17.28l-38.506-7.68-5.12 5.12 43.093 5.654c-.107 1.066-.213 2.026-.32 3.093l-47.253-3.093L48 240l6.187 6.187 47.253-3.094c.107 1.067.213 2.134.32 3.094l-43.093 5.76 5.12 5.12 38.506-7.68c1.28 6.293 3.734 12.16 7.147 17.28l-32.64 21.76v7.146l34.453-26.453c.64.853 1.28 1.6 2.027 2.453L77.653 302.72v8.853h8.854l31.146-35.626c.747.64 1.6 1.386 2.454 2.026l-26.454 34.56h7.147l21.867-32.64c5.12 3.414 10.986 5.974 17.28 7.147l-7.68 38.507 5.12 5.12 5.653-43.094c1.067.107 2.027.214 3.093.32l-3.093 47.254 6.187 6.186 6.186-6.186-3.093-47.254c1.067-.106 2.133-.213 3.093-.32l5.654 43.094 5.12-5.12-7.68-38.507c6.293-1.28 12.16-3.733 17.28-7.147l21.76 32.64h7.146L178.24 278.08c.853-.64 1.6-1.28 2.453-2.027l31.147 35.627h8.853v-8.853l-35.626-31.147c.64-.747 1.386-1.6 2.026-2.453l34.454 26.453v-7.147l-32.32-21.866c3.413-5.12 5.973-10.987 7.146-17.28l38.507 7.68 5.12-5.12-43.093-5.654c.106-1.066.213-2.026.32-3.093l47.253 2.987zm107.307-12.48l-.32-19.094-11.627 15.254-18.24-5.547L332.48 240l-10.88 15.68 18.24-5.547 11.627 15.254.32-19.094L369.813 240l-18.026-6.293zm-257.6 142.506l-19.094 1.6-8.106-17.28-4.374 18.56-18.88 2.454 16.32 9.813-3.626 18.773 14.506-12.48 16.64 9.28-7.36-17.6 13.974-13.12zM79.787 110.4l7.36-17.6-16.64 9.28L56 89.6l3.627 18.773-16.32 9.814 18.88 2.453 4.373 18.56 8.107-17.28 19.093 1.6-13.973-13.12z"/></g></svg>
