<?xml version="1.0" encoding="UTF-8" standalone="no"?>
<svg width="640px" height="480px" viewBox="0 0 640 480" version="1.1" xmlns="http://www.w3.org/2000/svg" xmlns:xlink="http://www.w3.org/1999/xlink">
    <g stroke="none" stroke-width="1" fill="none" fill-rule="evenodd">
        <path d="M0,480 L640,480 L640,0 L0,0 L0,480 L0,480 Z" fill="#00923F"></path>
        <path d="M319.241778,60.3262574 L602.05723,240.343131 L320.31817,419.226754 L37.5011611,240.343131 L319.241778,60.3262574 L319.241778,60.3262574 Z" fill="#F9C300"></path>
        <path d="M319.779195,121.478891 C385.39395,121.478891 438.585799,174.702673 438.585799,240.35715 C438.585799,306.011627 385.39395,359.235409 319.779195,359.235409 C254.16444,359.235409 200.972592,306.011627 200.972592,240.35715 C200.972592,174.702673 254.16444,121.478891 319.779195,121.478891" fill="#28166F"></path>
        <path d="M431.461515,281.010041 C371.717849,223.517297 290.173734,195.136213 206.747102,203.609492 C208.590677,197.849001 211.267638,191.477102 214.260818,185.699477 C293.381882,177.496464 379.55791,210.522703 436.478188,262.758883 C435.283408,269.034982 433.598722,275.128827 431.461515,281.010041" fill="#FFFFFF"></path>
    </g>
</svg>
