<?xml version="1.0" encoding="UTF-8" standalone="no"?>
<svg width="640px" height="480px" viewBox="0 0 640 480" version="1.1" xmlns="http://www.w3.org/2000/svg" xmlns:xlink="http://www.w3.org/1999/xlink">
    <g stroke="none" stroke-width="1" fill="none" fill-rule="evenodd">
        <rect fill="#0038A8" x="0" y="0" width="640" height="480"></rect>
        <rect fill="#CE1126" x="0" y="240" width="640" height="240"></rect>
        <path d="M415.68,240 L0,480 L0,0 L415.68,240 L415.68,240 Z" fill="#FFFFFF"></path>
        <g transform="translate(42.666667, 89.600000)" fill="#FCD116">
            <path d="M201.813333,156.586667 L208,150.4 L201.813333,144.213333 L154.56,147.306667 C154.453333,146.24 154.346667,145.173333 154.24,144.213333 L197.333333,138.56 L192.213333,133.44 L153.706667,141.12 C152.426667,134.826667 149.973333,128.96 146.56,123.84 L179.2,102.08 L179.2,94.9333333 L144.746667,121.386667 C144.106667,120.533333 143.466667,119.786667 142.72,118.933333 L178.346667,87.7866667 L178.346667,78.9333333 L169.493333,78.9333333 L138.346667,114.56 C137.6,113.92 136.746667,113.173333 135.893333,112.533333 L162.346667,78.08 L155.2,78.08 L133.333333,110.506667 C128.213333,107.093333 122.346667,104.533333 116.053333,103.36 L123.733333,64.8533333 L118.613333,59.7333333 L112.96,102.826667 C111.893333,102.72 110.933333,102.613333 109.866667,102.506667 L112.96,55.2533333 L106.666667,49.0666667 L100.48,55.2533333 L103.573333,102.506667 C102.506667,102.613333 101.44,102.72 100.48,102.826667 L94.72,59.7333333 L89.6,64.8533333 L97.28,103.36 C90.9866667,104.64 85.12,107.093333 80,110.506667 L58.24,77.8666667 L51.0933333,77.8666667 L77.5466667,112.32 C76.6933333,112.96 75.9466667,113.6 75.0933333,114.346667 L43.9466667,78.72 L35.0933333,78.72 L35.0933333,87.5733333 L70.72,118.72 C70.08,119.466667 69.3333333,120.32 68.6933333,121.173333 L34.1333333,94.72 L34.1333333,101.866667 L66.7733333,123.733333 C63.36,128.853333 60.8,134.72 59.6266667,141.013333 L21.12,133.333333 L16,138.453333 L59.0933333,144.106667 C58.9866667,145.173333 58.88,146.133333 58.7733333,147.2 L11.52,144.106667 L5.33333333,150.4 L11.52,156.586667 L58.7733333,153.493333 C58.88,154.56 58.9866667,155.626667 59.0933333,156.586667 L16,162.346667 L21.12,167.466667 L59.6266667,159.786667 C60.9066667,166.08 63.36,171.946667 66.7733333,177.066667 L34.1333333,198.826667 L34.1333333,205.973333 L68.5866667,179.52 C69.2266667,180.373333 69.8666667,181.12 70.6133333,181.973333 L34.9866667,213.12 L34.9866667,221.973333 L43.84,221.973333 L74.9866667,186.346667 C75.7333333,186.986667 76.5866667,187.733333 77.44,188.373333 L50.9866667,222.933333 L58.1333333,222.933333 L80,190.293333 C85.12,193.706667 90.9866667,196.266667 97.28,197.44 L89.6,235.946667 L94.72,241.066667 L100.373333,197.973333 C101.44,198.08 102.4,198.186667 103.466667,198.293333 L100.373333,245.546667 L106.56,251.733333 L112.746667,245.546667 L109.653333,198.293333 C110.72,198.186667 111.786667,198.08 112.746667,197.973333 L118.4,241.066667 L123.52,235.946667 L115.84,197.44 C122.133333,196.16 128,193.706667 133.12,190.293333 L154.88,222.933333 L162.026667,222.933333 L135.573333,188.48 C136.426667,187.84 137.173333,187.2 138.026667,186.453333 L169.173333,222.08 L178.026667,222.08 L178.026667,213.226667 L142.4,182.08 C143.04,181.333333 143.786667,180.48 144.426667,179.626667 L178.88,206.08 L178.88,198.933333 L146.56,177.066667 C149.973333,171.946667 152.533333,166.08 153.706667,159.786667 L192.213333,167.466667 L197.333333,162.346667 L154.24,156.693333 C154.346667,155.626667 154.453333,154.666667 154.56,153.6 L201.813333,156.586667 L201.813333,156.586667 Z"></path>
            <path d="M309.12,144.106667 L308.8,125.013333 L297.173333,140.266667 L278.933333,134.72 L289.813333,150.4 L278.933333,166.08 L297.173333,160.533333 L308.8,175.786667 L309.12,156.693333 L327.146667,150.4 L309.12,144.106667 Z"></path>
            <path d="M51.52,286.613333 L32.4266667,288.213333 L24.32,270.933333 L19.9466667,289.493333 L1.06666667,291.946667 L17.3866667,301.76 L13.76,320.533333 L28.2666667,308.053333 L44.9066667,317.333333 L37.5466667,299.733333 L51.52,286.613333 Z"></path>
            <path d="M37.12,20.8 L44.48,3.2 L27.84,12.48 L13.3333333,0 L16.96,18.7733333 L0.64,28.5866667 L19.52,31.04 L23.8933333,49.6 L32,32.32 L51.0933333,33.92 L37.12,20.8 Z"></path>
        </g>
    </g>
</svg>
