<svg xmlns="http://www.w3.org/2000/svg" width="640" height="480"><g fill="none" fill-rule="evenodd"><path fill="#0F47AF" fill-rule="nonzero" d="M0 0h640v480H0z"/><path fill="#FFF" fill-rule="nonzero" d="M0 160h640v160H0z"/><path fill="#00209F" d="M315.174 204.72c-.312-.763-.382-5.9-.312-6.7.104-1.388 2.498-8.191 2.984-8.99.522-.797.382-.972.59-1.458l.694-.936c.522.867.902 2.22 1.008 3.296 0 0-.452 3.264-.834 4.722-.347 1.458-1.284 3.47-1.458 3.888-.451 1.007-.416 1.944-.138 2.013l-2.534 4.165z"/><path fill="#FFF" d="M319.31 197.88l.382.416c1.076-1.146 1.144-3.54 1.144-3.54l-.693-4.824s-.45 3.262-.832 4.72c-.347 1.458-1.285 3.472-1.459 3.888-.693 1.736-.172 1.944-.137 2.014l1.596-2.674h-.001z"/><path fill="#00209F" d="M319.686 198.296c1.076-1.146 1.144-3.54 1.144-3.54s.765 3.922.348 4.756c-.416.832-.416.59-.347 1.006l-1.144-2.222h-.001z"/><path stroke="#000" stroke-width=".5" d="M320.83 200.52c-.069-.416-.069-.174.347-1.006.416-.832-.347-4.756-.347-4.756l-.694-4.824c-.104-1.077-.485-2.432-1.008-3.299l-.692.936c-.208.487-.07.66-.59 1.46-.486.798-2.882 7.601-2.986 8.99-.068.798 0 5.936.312 6.699"/><path fill="#FC0" stroke="#000" stroke-width=".5" d="M319.31 187.288s-.07-.763-.14-1.042c-.034-.138.417.695.8.59.694.208 1.458 1.146 1.666 1.389-.312.452-1.04 1.32-1.563 1.146-.45-.138-.346-.797-.486-1.214-.069-.208-.312-.486-.277-.868v-.001z"/><path stroke="#000" stroke-width=".5" d="M319.342 186.664c.034.034.242.278.278.312.172.104.347 0 .555.14.52.346.696.66 1.25 1.214"/><path stroke="#000" stroke-width=".5" d="M319.83 187.192c.66.312 1.006.832 1.458 1.388 0 0 .035-.07 0-.07"/><path fill="#FC0" stroke="#000" stroke-width=".5" d="M318.574 186.736s.694-.346.936-.486c.14-.07-.52.624-.276.936.034.73-.555 1.772-.763 2.048-.52-.137-1.04-.137-1.456-.936-.175-.277.312-.59.624-.868.173-.139.554-.59.936-.694h-.001z"/><path stroke="#000" stroke-width=".5" d="M319.198 186.528c-.034.07-.208.312-.208.416-.034.174.104.312.07.555-.139.59-.382.867-.694 1.596"/><path stroke="#000" stroke-width=".5" d="M318.854 187.192c-.07.728-.416 1.214-.798 1.84 0-.035.104 0 .104 0"/><path fill="#FC0" stroke="#000" stroke-width=".5" d="M319.654 186.248c.486-.59 1.354-1.112 1.77-.763.035.034.381.242.486.45.208.243.174.347.069.624-.312.624-1.146.312-1.666.035-.104-.07-.416-.347-.59-.277-.277.104-.173.104-.277.104.104.07.208.035.278.07.485.138.832.415 1.422.693.416.174 1.18-.38 1.146-.762 0-.452-.728-1.25-1.076-1.25-.799 0-1.424.486-1.979 1.11.139-.104.312.104.416-.034h.001z"/><path fill="#FC0" stroke="#000" stroke-width=".5" d="M319.198 186.248c-.45-.59-1.32-1.112-1.736-.763-.034.034-.382.242-.485.45-.208.208-.208.347-.07.624.278.624 1.146.312 1.633.035.138-.07.45-.347.624-.277.277.104.173.104.277.104-.104.07-.208.035-.312.07-.451.138-.8.415-1.424.693-.416.174-1.144-.38-1.144-.762.034-.487.763-1.25 1.11-1.25.8 0 1.424.486 1.944 1.11-.104-.104-.277.104-.416-.034h-.001z"/><path fill="#FC0" stroke="#000" stroke-width=".5" d="M319.374 185.904c-.208-.07-.45.138-.52.277-.07.173.069.451.277.485.277.104.659.036.728-.276.07-.278-.242-.348-.485-.486z"/><path fill="#FC0" d="M319.342 181.08s.312 1.875 1.25 3.228c.937 1.354-1.146 1.18-1.285 1.666 0 0-.624-1.353-1.284-1.7 0 0 1.042-1.632 1.32-3.16v-.034h-.001z"/><path stroke="#000" stroke-width=".5" d="M319.342 181.08s.312 1.875 1.25 3.228c0 0-1.146 1.18-1.285 1.666 0 0-.624-1.353-1.284-1.7 0 0 1.042-1.632 1.32-3.16"/><path stroke="#000" stroke-width=".5" d="M319.31 183.056s.242.832.52 1.389c0 0-.45.347-.52.555 0 0-.242-.555-.486-.694 0 0 .452-.728.486-1.25z"/><g fill-rule="nonzero"><path fill="#FFF" d="M297.198 234.848c-1.18-2.95-2.43-8.99-2.36-10.378.242-5.692.173-7.392.694-13.224l5.865 6.699c-.139 2.256-.174 2.952 0 4.373.069.52.382 3.09.798 4.096l-4.998 8.435.001-.001z"/><path fill="#00209F" d="M302.19 226.408c-.416-1.006-.728-3.576-.798-4.096-.174-1.422-.139-2.118 0-4.373l3.61 3.992-2.812 4.477zm-14.92 5.52c-.104-1.32-.208-2.776-.208-3.436.034-4.096-.451-6.387 0-10.726.347-3.4 1.18-7.88 1.006-11.558-.07-1.042.138-2.082.174-3.09l7.29 8.123c-.52 5.832-.452 7.533-.695 13.224-.07 1.389 1.18 7.429 2.36 10.379l-1.526 2.568-8.402-5.483.001-.001zm5.104 11.008c-.486-.798-.902-3.09-1.006-3.54-.243-1.216-.243-1.91-.173-3.992l4.026 2.638-2.848 4.894h.001zm-11.496 19.224c-.452-.277-1.216-1.076-1.458-1.77-.487-1.39-.382-1.354-.728-2.88-.208-.868-.208-1.84-.418-2.743-.173-.904-1.458-3.784-1.492-4.965-.138-3.782-1.389-6.352-1.076-10.482.208-3.192.936-7.531.59-10.864-.104-.902.035-1.944.07-2.846l8.191 5.346c-.313 5.484-.174 7.011-.174 12.322-.035 1.284 1.11 6.49 2.498 8.816l-6.003 10.066zm13.608 3.024c1.528 1.389 4.34 2.118 4.791 2.43 1.006.728 2.498 1.805 5.032 1.944 1.875.139 2.707-.347 4.616-.59 2.187-.278-.277.07 1.84-.382 1.076-.278 1.076-.452 2.534-.798 1.076-.243 2.152-.522 2.811-1.424.244-.347.452-.624.488-1.18h1.456c.14.416-.278 1.216-.416 1.493-.104.139-.278.381-.38.52-.209.452-.174.348-.557.696-.104.069-.556.45-.694.52-.278.208-.555.485-.868.52-1.424.244-2.014.555-3.368.937-1.284.383-.589.312-1.56.556-.487.104-1.46.486-1.944.556-.868.138-1.008.277-1.91.486-2.326.52-4.581.38-6.872.243-.937-.07-3.229-.557-4.027-1.112-1.424-1.008-4.548-1.389-5.936-2.36-.208-.14-1.076-.557-1.248-.73-1.354-1.11-2.43-1.424-3.854-2.326h10.064l.002.001z"/><path fill="#00209F" d="M305.494 265.184h11.108c-.034.556-.243.832-.486 1.18-.66.902-1.736 1.18-2.812 1.424-1.145.277-2.326-.347-3.54-.347-2.916-.902-3.264-1.805-4.27-2.256v-.001z"/><path fill="#FFF" d="M305.494 265.184c1.006.52 1.493 1.389 4.27 2.256 1.076 0 2.256.486 3.264.452-1.216.278-1.25.451-2.258.694-2.117.452.347.104-1.84.382-1.908.243-2.74.728-4.616.59-2.533-.139-4.026-1.215-5.032-1.944-.452-.312-3.264-1.04-4.792-2.43h11.004z"/></g><g stroke="#000" stroke-width=".5"><path fill="#FC0" d="M295.216 238.074l.452-.66-19.126-12.496-.346.52 19.02 12.636zm-18.986-13.362c-.14-.728.07-1.702.59-1.806.035 0 .416-.138.659-.068.313 0 .382.104.521.346.277.66-.52 1.077-1.076 1.285-.139.035-.52.104-.59.277-.104.278-.035.174-.104.278.104-.035.138-.14.242-.208.416-.243.832-.312 1.424-.59.45-.208.52-1.11.208-1.388-.347-.278-1.424-.244-1.666.035-.52.59-.555 1.39-.451 2.187 0-.174.277-.138.243-.347v-.001z"/><path fill="#FC0" d="M275.918 225.056c-.728-.034-1.666.278-1.7.798 0 .07-.07.487 0 .694.034.312.138.382.415.452.695.208 1.008-.624 1.112-1.216.034-.138.034-.52.208-.624.277-.138.208-.07.277-.138-.035.104-.14.173-.174.243-.172.451-.208.904-.416 1.528-.139.45-1.041.624-1.32.346-.347-.277-.45-1.353-.208-1.632.52-.59 1.32-.728 2.118-.728-.138.035-.104.312-.312.278v-.001z"/><path fill="#FC0" d="M275.782 224.744c-.208.104-.208.382-.104.556.07.173.38.208.52.138.277-.173.452-.485.277-.764-.172-.243-.45-.034-.693.07z"/><path fill="#FC0" d="M271.75 222.208s2.014.798 3.644.832c0 0 .07 1.424.416 1.84 0 0-1.456-.277-2.117.07 0 0-.868-1.979-1.944-2.742h.001z"/><path d="M273.382 223.216s.798.347 1.458.347c0 0 .034.555.173.728 0 0-.59-.104-.833.036 0-.001-.348-.8-.799-1.112l.001.001z"/><path fill="#FC0" d="M275.918 226.304s.382-.66.486-.902c.068-.139-.035.798.312.902.45.59.554 1.805.554 2.118-.52.172-.971.485-1.77.104-.276-.174-.07-.694.035-1.112.072-.208.14-.798.384-1.11h-.001z"/><path d="M276.302 225.784c0 .104.07.52.034.45 0-.172.208.175.243.244.278.52.382.902.486 1.91m-.595-1.732c.174.798.312.763.312 1.875l.07-.07m-.414-1.077c.138.555.104.832.138 1.112-.035 0-.208.136-.242.136"/><path fill="#FC0" d="M305.006 221.934l.52-.486-17.078-18.987-.347.416z"/><path fill="#FC0" d="M288.59 202.464c.034-.763.452-1.666.972-1.632.034 0 .451-.034.66.07.311.07.346.208.415.486.139.694-.73.902-1.32.972-.138 0-.554-.035-.658.138-.174.244-.07.173-.174.244.104 0 .208-.104.278-.139.485-.138.902-.138 1.561-.242.452-.069.728-.971.486-1.284-.243-.347-1.285-.59-1.597-.382-.658.451-.867 1.216-.936 2.048.035-.176.278-.105.312-.278l.001-.001z"/><path fill="#FC0" d="M288.206 202.704c-.728-.208-1.7-.104-1.874.382 0 .035-.173.45-.139.66-.034.312.035.416.312.554.59.348 1.112-.38 1.355-.936.07-.14.173-.486.346-.556.278-.069.208 0 .278-.069-.035.104-.138.139-.208.208-.278.416-.416.799-.763 1.388-.243.382-1.145.382-1.389.034-.242-.381-.07-1.423.208-1.632.624-.486 1.458-.45 2.221-.208-.139-.034-.173.245-.347.174v.001z"/><path fill="#FC0" d="M288.134 202.36c-.243.034-.278.346-.243.52.034.174.312.312.485.243.278-.104.556-.346.45-.659-.103-.278-.45-.138-.692-.104z"/><path fill="#FC0" d="M284.838 198.952s1.736 1.25 3.298 1.666c0 0-.244 1.424 0 1.875 0 0-1.39-.59-2.083-.416 0 0-.348-2.119-1.216-3.125h.001z"/><path d="M286.158 200.344s.694.486 1.32.66c0 0-.104.554 0 .727 0 0-.556-.208-.834-.138 0 .001-.139-.867-.486-1.248v-.001z"/><path fill="#FC0" d="M287.894 203.92s.52-.555.694-.763c.104-.14-.242.763.07.972.311.66.103 1.84.034 2.187-.555.035-1.041.208-1.7-.347-.244-.208.068-.66.276-1.042.104-.208.312-.763.626-1.006v-.001z"/><path d="M288.382 203.536c0 .07-.034.346-.034.416.034.208.208.278.242.52.104.592-.035.973-.07 1.736m-.21-1.976c.173.728.034 1.32-.07 2.014-.034 0 .07 0 .07-.036m-.104-.762c-.104.277-.104.45-.138.763-.035-.034-.174.104-.208.07"/></g><g><g fill-rule="nonzero"><path fill="#FFF" d="M341.446 234.848c1.18-2.95 2.43-8.99 2.36-10.378-.242-5.692-.173-7.392-.694-13.224l-5.865 6.699c.139 2.256.174 2.952 0 4.373-.069.52-.382 3.09-.798 4.096l4.998 8.435-.001-.001z"/><path fill="#00209F" d="M336.454 226.408c.416-1.006.728-3.576.798-4.096.174-1.422.139-2.118 0-4.373l-3.61 3.992 2.812 4.477zm14.92 5.52c.104-1.32.208-2.776.208-3.436-.034-4.096.451-6.387 0-10.726-.347-3.4-1.18-7.88-1.006-11.558.07-1.042-.138-2.082-.174-3.09l-7.29 8.123c.52 5.832.452 7.533.695 13.224.07 1.389-1.18 7.429-2.36 10.379l1.526 2.568 8.402-5.483-.001-.001zm-5.104 11.008c.486-.798.902-3.09 1.006-3.54.243-1.216.243-1.91.173-3.992l-4.026 2.638 2.848 4.894h-.001zm11.496 19.224c.452-.277 1.216-1.076 1.458-1.77.487-1.39.382-1.354.728-2.88.208-.868.208-1.84.418-2.743.173-.904 1.458-3.784 1.492-4.965.138-3.782 1.389-6.352 1.076-10.482-.208-3.192-.936-7.531-.59-10.864.104-.902-.035-1.944-.07-2.846l-8.191 5.346c.313 5.484.174 7.011.174 12.322.035 1.284-1.11 6.49-2.498 8.816l6.003 10.066zm-13.608 3.024c-1.528 1.389-4.34 2.118-4.791 2.43-1.006.728-2.498 1.805-5.032 1.944-1.875.139-2.707-.347-4.616-.59-2.187-.278.277.07-1.84-.382-1.076-.278-1.076-.452-2.534-.798-1.076-.243-2.152-.522-2.811-1.424-.244-.347-.452-.624-.488-1.18h-1.456c-.14.416.278 1.216.416 1.493.104.139.278.381.38.52.209.452.174.348.557.696.104.069.556.45.694.52.278.208.555.485.868.52 1.424.244 2.014.555 3.368.937 1.284.383.589.312 1.56.556.487.104 1.46.486 1.944.556.868.138 1.008.277 1.91.486 2.326.52 4.581.38 6.872.243.937-.07 3.229-.557 4.027-1.112 1.424-1.008 4.548-1.389 5.936-2.36.208-.14 1.076-.557 1.248-.73 1.354-1.11 2.43-1.424 3.854-2.326H344.16l-.002.001z"/><path fill="#00209F" d="M333.15 265.184h-11.108c.034.556.243.832.486 1.18.66.902 1.736 1.18 2.812 1.424 1.145.277 2.326-.347 3.54-.347 2.916-.902 3.264-1.805 4.27-2.256v-.001z"/><path fill="#FFF" d="M333.15 265.184c-1.006.52-1.493 1.389-4.27 2.256-1.076 0-2.256.486-3.264.452 1.216.278 1.25.451 2.258.694 2.117.452-.347.104 1.84.382 1.908.243 2.74.728 4.616.59 2.533-.139 4.026-1.215 5.032-1.944.452-.312 3.264-1.04 4.792-2.43H333.15z"/></g><g stroke="#000" stroke-width=".5"><path fill="#FC0" d="M343.428 238.074l-.452-.66 19.126-12.496.346.52-19.02 12.636zm18.986-13.362c.14-.728-.07-1.702-.59-1.806-.035 0-.416-.138-.659-.068-.313 0-.382.104-.521.346-.277.66.52 1.077 1.076 1.285.139.035.52.104.59.277.104.278.035.174.104.278-.104-.035-.138-.14-.242-.208-.416-.243-.832-.312-1.424-.59-.45-.208-.52-1.11-.208-1.388.347-.278 1.424-.244 1.666.035.52.59.555 1.39.451 2.187 0-.174-.277-.138-.243-.347v-.001z"/><path fill="#FC0" d="M362.726 225.056c.728-.034 1.666.278 1.7.798 0 .07.07.487 0 .694-.034.312-.138.382-.415.452-.695.208-1.008-.624-1.112-1.216-.034-.138-.034-.52-.208-.624-.277-.138-.208-.07-.277-.138.035.104.14.173.174.243.172.451.208.904.416 1.528.139.45 1.041.624 1.32.346.347-.277.45-1.353.208-1.632-.52-.59-1.32-.728-2.118-.728.138.035.104.312.312.278v-.001z"/><path fill="#FC0" d="M362.862 224.744c.208.104.208.382.104.556-.07.173-.38.208-.52.138-.277-.173-.452-.485-.277-.764.172-.243.45-.034.693.07z"/><path fill="#FC0" d="M366.894 222.208s-2.014.798-3.644.832c0 0-.07 1.424-.416 1.84 0 0 1.456-.277 2.117.07 0 0 .868-1.979 1.944-2.742h-.001z"/><path d="M365.262 223.216s-.798.347-1.458.347c0 0-.034.555-.173.728 0 0 .59-.104.833.036 0-.001.348-.8.799-1.112l-.001.001z"/><path fill="#FC0" d="M362.726 226.304s-.382-.66-.486-.902c-.068-.139.035.798-.312.902-.45.59-.554 1.805-.554 2.118.52.172.971.485 1.77.104.276-.174.07-.694-.035-1.112-.072-.208-.14-.798-.384-1.11h.001z"/><path d="M362.342 225.784c0 .104-.07.52-.034.45 0-.172-.208.175-.243.244-.278.52-.382.902-.486 1.91m.595-1.732c-.174.798-.312.763-.312 1.875l-.07-.07m.414-1.077c-.138.555-.104.832-.138 1.112.035 0 .208.136.242.136"/><path fill="#FC0" d="M333.638 221.934l-.52-.486 17.078-18.987.347.416z"/><path fill="#FC0" d="M350.054 202.464c-.034-.763-.452-1.666-.972-1.632-.034 0-.451-.034-.66.07-.311.07-.346.208-.415.486-.139.694.73.902 1.32.972.138 0 .554-.035.658.138.174.244.07.173.174.244-.104 0-.208-.104-.278-.139-.485-.138-.902-.138-1.561-.242-.452-.069-.728-.971-.486-1.284.243-.347 1.285-.59 1.597-.382.658.451.867 1.216.936 2.048-.035-.176-.278-.105-.312-.278l-.001-.001z"/><path fill="#FC0" d="M350.438 202.704c.728-.208 1.7-.104 1.874.382 0 .035.173.45.139.66.034.312-.035.416-.312.554-.59.348-1.112-.38-1.355-.936-.07-.14-.173-.486-.346-.556-.278-.069-.208 0-.278-.069.035.104.138.139.208.208.278.416.416.799.763 1.388.243.382 1.145.382 1.389.034.242-.381.07-1.423-.208-1.632-.624-.486-1.458-.45-2.221-.208.139-.034.173.245.347.174v.001z"/><path fill="#FC0" d="M350.51 202.36c.243.034.278.346.243.52-.034.174-.312.312-.485.243-.278-.104-.556-.346-.45-.659.103-.278.45-.138.692-.104z"/><path fill="#FC0" d="M353.806 198.952s-1.736 1.25-3.298 1.666c0 0 .244 1.424 0 1.875 0 0 1.39-.59 2.083-.416 0 0 .348-2.119 1.216-3.125h-.001z"/><path d="M352.486 200.344s-.694.486-1.32.66c0 0 .104.554 0 .727 0 0 .556-.208.834-.138 0 .001.139-.867.486-1.248v-.001z"/><path fill="#FC0" d="M350.75 203.92s-.52-.555-.694-.763c-.104-.14.242.763-.07.972-.311.66-.103 1.84-.034 2.187.555.035 1.041.208 1.7-.347.244-.208-.068-.66-.276-1.042-.104-.208-.312-.763-.626-1.006v-.001z"/><path d="M350.262 203.536c0 .07.034.346.034.416-.034.208-.208.278-.242.52-.104.592.035.973.07 1.736m.21-1.976c-.173.728-.034 1.32.07 2.014.034 0-.07 0-.07-.036m.104-.762c.104.277.104.45.138.763.035-.034.174.104.208.07"/></g></g><path fill="#FC0" fill-rule="nonzero" stroke="#000" stroke-width=".347" d="M319.306 197.878l-40.23 67.305h80.49z"/><path fill="#FFF" fill-rule="nonzero" stroke="#FFF" stroke-width=".104" d="M319.306 202.252L282.998 263h72.648z"/><path fill="#007E93" fill-rule="nonzero" stroke="#007E93" stroke-width=".208" d="M293.758 244.946L282.998 263h72.648l-10.794-18.054z"/><path fill="#FFF" stroke="#FFF" stroke-width=".104" d="M319.31 232.8c2.672 0 4.86-2.187 4.86-4.894a4.875 4.875 0 0 0-4.86-4.86c-2.707 0-4.894 2.187-4.894 4.86a4.89 4.89 0 0 0 4.894 4.894z"/><path stroke="#000" stroke-width=".243" d="M319.306 202.252L282.998 263h72.648z"/><g><path stroke="#000" stroke-width=".104" d="M321.246 255.496c.937.243 2.083.382 3.228.07 1.562-.383 3.02-1.285 4.86-1.11 1.318.137 3.123 1.283 5.31 1.283 2.152 0 2.88-.765 4.755-1.147 1.318-.277 1.98-.138 3.4.173 1.632.313 2.465 1.25 5.207 1.043"/><path stroke="#FFF" stroke-width=".382" d="M293.238 258.104c1.214-.938 3.366-1.32 4.998-.938 2.153.452 3.09 1.007 5.38.972 1.702-.034 3.16-1.18 4.894-1.18 2.88 0 2.985.59 5.52 1.076a5.64 5.64 0 0 0 2.15 0 9.463 9.463 0 0 0 2.535-.868c.798-.416 2.81-.347 3.818-.242 1.805.172 2.533.867 2.915.97.972.244 2.083.384 3.228.07 1.562-.45 3.02-1.457 4.894-1.25 1.32.14 3.123 1.424 5.276 1.424 2.153 0 2.915-.868 4.756-1.284 1.354-.313 2.013-.14 3.436.174 1.597.38 2.464 1.422 5.206 1.18"/><path stroke="#FFF" stroke-width=".278" d="M289.142 256.056c1.215-.798 3.367-1.146 4.998-.833 2.153.417 3.09.937 5.38.902 1.7-.034 3.16-1.076 4.894-1.076 2.88 0 2.985.555 5.52.97.66.105 1.492.105 2.15 0 .938-.137 1.77-.45 2.535-.797.762-.347 2.81-.278 3.817-.208 1.805.173 2.533.764 2.915.868.972.208 2.083.347 3.228.07 1.562-.417 3.02-1.286 4.894-1.112 1.32.14 3.124 1.285 5.276 1.25 2.153 0 2.916-.763 4.756-1.145 1.354-.278 2.013-.104 3.436.174 1.597.346 2.464 1.283 5.206 1.04"/><path stroke="#FFF" stroke-width=".486" d="M285.39 261.992c1.215-1.007 3.367-1.423 5.033-1.04 2.118.52 3.055 1.144 5.346 1.11 1.7-.035 3.192-1.32 4.893-1.32 2.916 0 2.984.66 5.52 1.216a5.822 5.822 0 0 0 2.186 0 8.38 8.38 0 0 0 2.497-1.007c.8-.415 2.812-.346 3.853-.242 1.77.208 2.5.937 2.88 1.076.973.243 2.084.416 3.263.07 1.563-.52 3.02-1.597 4.86-1.39 1.32.174 3.124 1.597 5.31 1.597 2.118 0 2.882-.97 4.72-1.456 1.355-.347 2.015-.14 3.437.208 1.632.416 2.464 1.597 5.207 1.32"/><path stroke="#FFF" stroke-width=".278" d="M286.366 258.584c1.25-.833 3.402-1.146 5.033-.833 2.15.417 3.088.903 5.38.87.763 0 1.458-.21 2.187-.453"/><path stroke="#000" stroke-width=".243" d="M297.366 255.048c.347-.104 1.353-.59 2.81-.59 2.917 0 1.078.035 3.61.486.66.104 2.5.14 3.02-.382m25.416 8.23c.937-.174 1.736-.452 2.534-.8.763-.346 2.776-.31 3.818-.207 1.805.174 2.498.764 2.915.833.97.244 2.082.382 3.227.07 1.562-.382 3.02-1.285 4.894-1.11 1.32.138 3.125 1.284 5.277 1.284"/><path stroke="#FFF" stroke-width=".278" d="M336.694 254.768c2.153 0 2.88-.763 4.756-1.146 1.32-.277 1.978-.104 3.4.174 1.632.313 2.465 1.285 5.207 1.04"/><path stroke="#000" stroke-width=".104" d="M285.494 262.2c1.25-.798 3.4-1.146 5.033-.833 2.152.417 3.09.937 5.38.902 1.7-.035 3.16-1.077 4.894-1.077 2.882 0 2.986.556 5.52.972a7.46 7.46 0 0 0 2.152 0c.937-.14 1.735-.45 2.533-.798.764-.347 2.777-.278 3.818-.174 1.805.14 2.5.73 2.915.833"/><path stroke="#000" stroke-width=".486" d="M290.078 259.56c1.25-.833 3.4-1.146 5.032-.833 2.153.417 3.09.902 5.346.868 1.735-.035 3.193-1.076 4.894-1.042 2.916 0 3.02.52 5.554.972a7.39 7.39 0 0 0 2.152 0c.937-.173 1.735-.45 2.533-.798.763-.347 2.776-.313 3.818-.208 1.77.172 2.498.763 2.915.832.937.243 2.083.382 3.23.07 1.56-.382 3.018-1.285 4.893-1.11 1.422.137 3.227 1.283 5.275 1.283 2.154 0 2.917-.764 4.756-1.146 1.32-.28 1.98-.14 3.437.173 1.596.312 2.464 1.25 5.17 1.006"/></g><g fill="#FC0" stroke="#000" stroke-width=".208"><path d="M291.054 249.456c.347.07 1.18-.59 1.424-.764.346-.21.52-.73.798-1.007.277-.313 1.11-.694 1.492-.937 1.666-1.04 2.43-1.632 3.575-3.16 1.562-2.15 3.402-3.92 5.692-5.205.73-.417 1.84-.278 2.638.07.242.103.555.38.833.59.972.762 2.29 1.318 3.887 1.804 1.527.45 1.875 1.458 3.09 2.534.59.52 1.25.973 1.978 1.32.07.034.243.312.313.347.694.52 1.458.938 2.048 1.458a66.96 66.96 0 0 1 3.194 3.09c.173.172.243.52.417.658.8.764 1.563 1.563 2.534 2.014.972.486 1.84 1.11 2.742 1.666-9.234.348-17.737-.243-27.004.035-.243.035-.313 0-1.7 0-.695-.035-1.112.035-1.806.035-2.812-.035-5.484-.035-8.782-.07l2.64-4.477-.003-.001z"/><path d="M327.326 253.696c-.763-.486-1.528-1.007-2.36-1.424-.973-.45-1.737-1.25-2.534-2.013-.174-.14-.243-.487-.417-.66a67.01 67.01 0 0 0-3.193-3.09c-.59-.52-1.354-.937-2.048-1.458-.07-.034-.242-.312-.312-.347a8.542 8.542 0 0 1-1.978-1.318c-.798-.73-1.215-1.39-1.874-1.91l.034-.035c.39-.295.81-.55 1.25-.764.59-.346 1.527-.242 2.187.07.21.07.487.278.695.45.798.66 1.91 1.112 3.228 1.528 1.285.383 1.598 1.215 2.603 2.083.487.45 1.007.833 1.632 1.11.035.036.173.243.243.313.59.417 1.216.764 1.737 1.215.902.833 1.77 1.666 2.638 2.568.14.14.173.417.347.556.66.624 1.318 1.284 2.117 1.666.798.382 1.492.903 2.256 1.354-2.083.104-4.13.104-6.18.104h-.07l-.001.002z"/><path d="M319.094 242.448c.277.07.59.174.902.278 1.285.382 1.598 1.215 2.603 2.083.486.45 1.006.832 1.63 1.11.036.035.174.243.244.312.59.417 1.215.764 1.736 1.215.902.834 1.77 1.667 2.638 2.568.14.14.173.417.347.556.66.626 1.32 1.286 2.117 1.667.694.313 1.285.764 1.91 1.147 1.7 0 3.4-.035 5.172-.105-.695-.418-1.32-.904-2.083-1.25-.73-.348-1.284-.94-1.91-1.528-.138-.104-.173-.348-.31-.487-.8-.833-1.598-1.56-2.43-2.326-.452-.417-1.008-.73-1.528-1.11-.07-.036-.208-.245-.243-.28a6.237 6.237 0 0 1-1.494-1.006c-.902-.798-1.18-1.562-2.36-1.91-1.18-.346-2.188-.798-2.915-1.353-.208-.173-.45-.38-.625-.45-.625-.28-1.458-.383-2.013-.07-.486.28-.972.59-1.388.938v.001z"/><path d="M327.566 244.424c.243.277.486.555.833.868.45.417.936.73 1.492 1.006.035.035.174.243.243.278.52.382 1.076.694 1.527 1.11.834.765 1.632 1.494 2.43 2.327.138.14.173.382.312.486.625.59 1.18 1.18 1.91 1.527.485.242.902.52 1.354.798h-.035c2.013 0 4.026 0 6.075-.07-.556-.347-1.043-.728-1.667-1.006-.59-.314-1.04-.8-1.562-1.25-.103-.105-.138-.28-.243-.418a93.77 93.77 0 0 0-1.944-1.874c-.38-.347-.832-.59-1.248-.903-.07-.035-.174-.173-.21-.208-.45-.208-.832-.486-1.214-.8-.73-.658-.937-1.283-1.874-1.56-.973-.313-1.806-.626-2.396-1.112-.173-.138-.347-.277-.486-.347-.52-.208-1.18-.312-1.632-.07a9.544 9.544 0 0 0-1.666 1.18v.036h.002l-.001.002z"/><path d="M343.294 252.48a7.36 7.36 0 0 0-1.25-.73c-.59-.31-1.04-.797-1.562-1.248-.104-.105-.138-.278-.243-.417-.66-.66-1.285-1.25-1.945-1.875-.38-.347-.833-.59-1.25-.903-.07-.035-.174-.173-.208-.207-.45-.21-.833-.487-1.215-.8-.625-.555-.868-1.076-1.493-1.423l.033.035c.313-.243.66-.486 1.008-.66.417-.243.973-.138 1.423.035.105.035.278.21.417.313.52.38 1.18.694 2.05.937.797.242.97.763 1.595 1.32.313.277.66.52 1.042.693.035.035.104.174.173.21.348.242.764.45 1.077.763.555.52 1.11 1.04 1.666 1.596.104.104.104.277.21.347.416.382.832.798 1.318 1.04.52.28.973.592 1.458.87-1.457.068-2.88.068-4.303.068v.035l-.001.001z"/></g><path stroke="#00633B" stroke-width=".104" d="M303.166 238.976c.45-.07.242-.173.66.104m-1.492.448c.486-.07.66-.382 1.007.035m-1.463.285c.208 0 .347-.243 1.007.138m-1.487.414c.417-.104.66-.07 1.076.07m-1.636.346c.486-.14.694.208 1.215.104m-1.807.488c.312 0 .417-.104.694 0 .347.104.277.035.624.07m-1.974.554c.347 0 .45-.07.763-.035.416.07.313.105.73.035m-1.877.52c.694-.07.902-.035 1.388.14m-2.324 1.14c.59-.174.868-.174 1.39.035m-11.038 9.893c1.91-.313 4.165.035 6.074-.243m3.854-10.309c.486-.174.38-.104.868-.07.486.07.694.14.833.07m-2.469 1.112c.486-.243 1.076-.104 1.562.035m-.306.485c-.52-.14-1.076-.035-1.63 0m1.214.56c-.556-.174-1.146-.243-1.7-.07m-.772.486c.694 0 1.354-.174 2.048.07m-2.632.482c.73-.243 1.458-.035 2.222.035m-2.918.381c.763-.035 1.492-.035 2.256-.07.105 0 .348-.104.486.07m-.246.416c-1.146.243-2.29.07-3.437.104m2.813.488c-.382.035-.972.174-1.493.14-.105-.036-.21-.105-.313-.105-.59-.035-1.18-.035-1.735.173m-.243.416a.996.996 0 0 1 .763-.104c.73.104 1.424 0 2.12.173.173.07.346.173.554.173m-3.853.038c.52 0 1.04-.07 1.562.035.66.174 1.284.313 1.978.348h-.07m-3.958.001c.555 0 1.076.104 1.632.208.73.14 1.457-.07 2.152.14m-4.44-.004c.73.312 1.493.035 2.256.174.73.138 1.39.103 2.083.242m-4.827.136c1.11.035 2.222 0 3.367.208.312.07.798.21 1.215.14m-4.958.14c1.076.208 2.187.035 3.262.313.487.104 1.007.207 1.528.207h-.07m-5.176.312c.103-.035.242-.104.347-.104.867 0 1.7.14 2.603.035.694-.035 1.457-.105 2.152.138h-.07m-5.416.491c1.735-.174 3.506.07 5.242 0m-5.554.52c1.84.208 3.68.035 5.484.174m-5.756.378c.798.174 1.597-.07 2.395.104.59.104 1.11.208 1.702.104.52-.14 1.006.035 1.492-.034m7.427-7.598h.174m-.35.208c.07.035.174-.104.208.035m-.416.245h.38m-.556.24h.486m-.798.312c.278.035.52.07.798.07h-.07m-1 .346c.312-.104.66 0 .972-.104h-.07m-1.318.592h1.32-.07m-1.466.312c.486 0 .937-.07 1.39.035h-.036m-1.626.413c.52-.07 1.076 0 1.632.07m-1.944.418c.347-.035.624.174.972.243.278.07.52 0 .763-.036m-1.839.177c.52.174 1.076.208 1.596.243m-1.908.173c.45-.035.868.07 1.32.208.207.07.415.034.59.034h-.036m-2.466.414c.556-.243 1.215-.07 1.805.104.208.07.417-.034.66-.034h-.07m-2.467.346c.66-.208 1.354-.208 1.98.07.103.034.242 0 .346 0m-2.742.418c.868.174 1.77-.103 2.638.14m-2.878.244c.694.278 1.458 0 2.222.208.242.07.485.07.728-.034m-3.438.346c.313-.104.625-.174.937-.104.832.208 1.596.14 2.36.243m-3.681.413c.174-.035.347.104.486.07 1.076-.174 2.152 0 3.193-.07m-3.951.416c.833.312 1.7 0 2.603.243.346.105.797.14 1.18 0m-4.095.349c1.285.035 2.5-.035 3.992.14m3.296-7.5c.14-.035.243.104.382.07m-.558.314c.174-.035.313-.104.486-.07m-.622.414c.242.035.45-.035.694.07m-.87.418c.277 0 .59 0 .868.07m-1.108.418c.38-.104.73.035 1.11-.07m-1.15.414c.347.14.694.035 1.076.07v-.07m-1.284.552c.347-.035.66-.07.972.07.104.034.243 0 .382-.07m-1.386.488c.45-.174.902.104 1.39 0m-1.598.592c.52-.035 1.007.07 1.528 0m-1.704.448c.208-.07.45-.208.66-.104.31.14.693.07 1.04.104m-1.804.528c.59-.208 1.215.14 1.805-.174m-1.877.726c.277-.07.555-.07.868.035.312.07.694.034 1.076-.035m-2.112.52c.694-.14 1.424 0 2.152-.035l-.034.035m-2.534.488c.902-.07 1.84-.174 2.742-.174m-2.638.726c1.007-.174 2.048-.104 3.09-.14m-3.266.7c1.007.14 1.215-.07 2.222-.103.173 0 1.04-.175 1.215-.21.14-.034.45 0 .59 0m-4.027.585c1.528-.14 3.09.14 4.65-.243m-11.282.075h1.214m4.69.168c.14.07.312-.07.416.07m5.384-.174c1.25-.14 2.534.243 3.783 0m-4.415-.416c.798-.242 1.528-.07 2.29.07.07 0 .07.173.14.208.694.104 1.354 0 2.048-.035m-8.918-.307h-.798m-4.162-.176c-.555.035-1.11.035-1.666.104m12.114-11.8h.243m-.139.344c.104.035.208 0 .312-.035m-.248.595c.035-.035.035-.104.07-.104.103-.035.242-.035.346-.035m-.272.483c.174-.104.382-.035.59-.035m.066.347c-.208-.035-.382.035-.556.104m.244.488a.77.77 0 0 1 .555-.104m.245.416h-.798m.238.416c.278 0 .555.07.763-.104m.213.592c-.313 0-.59 0-.868.07m.204.514c.312.035.624-.035.937-.174m.071.318c-.277.14-.59.174-.902.243m.174.517c.382-.208.833-.035 1.215-.173m.105.485c-.312 0-.624-.07-.937.035-.104.034-.174.104-.313.104m.242.765c.243-.104.486-.277.763-.242.034-.174.208 0 .277-.105.07-.035.208 0 .347 0m.173.523c-.45-.035-.937.07-1.388.14m.14.588c.52-.208 1.04-.208 1.596-.278m-1.556.934c.59-.14 1.215-.104 1.77-.347m.414.419c-.66.104-1.32 0-1.944.313m.136.591c.104.035.174.104.278.07.625-.244 1.25-.45 1.874-.382m.176.448c-.624.347-1.354.208-2.048.243-.07 0-.138.07-.242.105m.242.42c.763-.104 1.493-.14 2.256-.243m.488.483c-.624.104-1.215-.035-1.805.104-.277.035-.52.14-.798.21m.099.486c.104 0 .242.035.312-.035.763-.45 1.63-.31 2.464-.346m.248.485c-.694 0-1.424-.174-2.117.07-.242.103-.485.242-.763.242m.24.52c.38-.07.73-.243 1.076-.313.798-.105 1.596-.035 2.395-.035m.001.42c-.452-.104-.937-.14-1.354 0-.694.174-1.32.347-2.013.38m.383.348c.556-.07 1.076-.242 1.632-.382.45-.104.902-.034 1.354-.034m-2.954.728c.833-.14 1.667 0 2.5-.278.277-.104.59.07.9.035m0-.317c1.39.103 2.777-.174 4.13.138m-3.85.278c.173.035.312-.104.416-.104 1.146 0 2.29.035 3.436.104m-.412-2.944h.174m-.11.376c.14.07.277-.174.416 0m-.312.416h.73m-.522.592c.243-.277.59 0 .833-.173m-.657.733c.313-.278.763.035 1.076-.243m-1.004.659c.45-.14.937.034 1.388-.243m-1.22.659c.694-.312 1.492.14 2.152-.347m-2.08.691c.868-.278 1.77 0 2.638-.035m.554.003c1.528-.07 3.09-.104 4.616 0m-5.272-.56c1.354.138 3.4 0 5.103.138m-12.599-10.586c.103 0 1.04-.174 1.11-.174m-.798.422c.278.035.937.035 1.18-.174m-.732.622c0-.035.798-.173.833-.173.104-.036.243 0 .38-.036m-.861.449c.138-.104 1.25-.035 1.457-.07m.271.318c-.208 0-1.11.035-1.25.14m.77.484c.14-.103.798-.208 1.04-.208m.52.384c-.278 0-.868.07-1.18.07m.588.45c.312-.035.868-.104 1.04-.243m.56.515c-.313 0-.73.035-1.146.07m.522.418c.38 0 .937 0 1.215-.104m.417.24c-.243.14-.73.174-1.04.243m.512.493c.313-.208.868-.07 1.25-.208m.422.448c-.38 0-.763-.035-1.04.035-.106.034-.14.104-.314.104m2.602.797c-.556-.035-1.007.07-1.493.14m.485.524c.486-.208 1.076-.174 1.632-.278m-.416 1.734c.104.035.624-.07.73-.104.832-.104.97-.278 1.735-.21m.455.346c-1.007.174-1.39.208-2.153.278-.104 0-.347.07-.416.104m.449.314c.764-.138 1.875-.103 2.638-.208m.834.416c-.624.104-1.353 0-1.944.14-.278.034-.798.068-1.076.138m.724.482c.104 0 .243 0 .313-.035.625-.418 1.632-.348 2.533-.348m.562.423c-.868 0-1.216.035-1.875.103-.243.035-.59.174-.903.174m.73.451c.798-.14 2.326-.313 1.424-.243.832-.07.97-.07 1.874-.07m.238.345c-.555-.07-1.146-.07-1.527.035-.347.103-.243.207-1.423.242m.486.243c.556-.07.625-.035 1.146-.174.416-.104.972-.07 1.493-.07m-2.359.452c.868-.104.972-.07 1.875-.035.243 0 .452 0 .765-.034m-16.144-10.931c.208-.104.347-.174.73-.14-.106-.138.172 0 .242-.068 0-.07.207-.035.346-.035m-1.734-.173c.208-.104.416-.104.763-.07-.105-.173.207 0 .242-.104.035-.034.243 0 .382 0m5.517 6.006c.243-.104.208-.174.555-.104-.103-.174.382 0 .417-.104.035-.07.417-.035.555-.035m-.063 1.627c.555-.14 1.25-.14 1.735-.382m.833.63c-.66.103-1.63.034-2.152.312m-7.92-8.368c-.624-.035-.73.174-1.18.174m8.02 1.562c.104 0 .798-.14.902-.14m-.622.42c.416-.103.73 0 .972-.173m-.628.517c0-.035.66-.104.694-.104.104-.035.243-.035.347-.035m-.689.451c.14-.104 1.042-.07 1.25-.104m.238.312c-.208-.035-1.04.104-1.18.174m.452.386c.14-.104 1.04-.208 1.25-.174m.486.342c-.278 0-1.04.07-1.32.104m.448.352c.278 0 1.146-.07 1.285-.208m.491.48c-.278 0-.764.035-1.146.07m.346.386c.347 0 1.11 0 1.354-.14m.382.244c-.208.14-.868.208-1.146.278m.626.378c.278-.174.833-.07 1.18-.174m.38.422c-.313 0-.695-.035-.937.035-.104.033-.14.103-.278.068m2.359.761c-.486-.035-.902.07-1.354.14m.45.484c.45-.208 1.007-.208 1.527-.278m-.311 1.63c.14.035.486-.104.555-.104.8-.104.903-.278 1.632-.243m.381.347c-.903.174-1.25.208-1.945.243-.103 0-.345.07-.415.104m.416.285c.695-.104 1.736-.104 2.43-.174m.77.382c-.556.07-1.215 0-1.77.104-.244.07-.764.07-1.008.14m.69.444c.104 0 .208 0 .278-.035.556-.382 1.493-.312 2.36-.312m.49.387c-.798 0-1.146.035-1.736.104-.382.035-.833.174-.937.174m.585.378c.73-.14 2.327-.278 1.493-.208.764-.07.903-.07 1.736-.07m.211.35c-.52-.07-1.007-.104-1.39 0-.277.07-.38.208-1.526.243m.42.245c.52-.07.833-.07 1.285-.174.38-.104.902-.07 1.388-.07m-2.153.516c.73-.103.834-.173 1.7-.138.245 0 .417-.035.695-.07M320.694 243c.208-.104.138-.174.45-.14.244-.068.418.036.452-.068 0-.035.208-.035.312-.035m-1.702-.029c.208-.104.243-.208.556-.174.312-.034.45 0 .485-.104.035-.035.21 0 .348 0m5.171 5.518c.208-.104.104-.14.417-.104-.07-.14.347 0 .382-.07.035-.07.382-.034.52-.034m-.063 1.488c.52-.14 1.146-.14 1.596-.313m.764.561c-.59.104-1.354-.035-1.806.208m-7.434-7.64c-.59-.035-1.076.242-1.423.486m8.543 2.57c.07 0 .903-.14.938-.14m-.658.348c.313-.07.763-.035.937-.174m-.625.414c-.035 0 .66-.104.694-.104.07-.035.174 0 .278 0m-.7.352c.103-.07.972-.07 1.11-.104m.21.24c-.174-.035-.834.07-.938.138m.49.278c.104-.07.66-.14.833-.14m.343.284c-.174 0-.798.07-1.007.07m.383.274c.208 0 .833-.07.972-.174m.38.382c-.243 0-.624.035-.902.035m.278.309c.278 0 .833 0 1.04-.104m.32.208c-.174.104-.695.14-.903.174m.311.314c.208-.14.834-.035 1.076-.104m.308.28c-.278 0-.555-.035-.763.035-.07.035-.14.035-.244.035m1.879.626c-.38-.035-.868.104-1.18.14m.38.276c.313-.14.868-.104 1.25-.174m-.386 1.214c.07.035.52-.035.59-.035.59-.07.695-.208 1.25-.173m.32.272c-.695.104-.973.14-1.528.174-.07 0-.312.034-.382.034m.278.248c.555-.104 1.458-.07 2.013-.14m.555.316c-.417.07-.937 0-1.354.07a7.31 7.31 0 0 1-.868.104m.446.378c.07 0 .556-.14.59-.14.695-.068.938-.138 1.598-.173m.38.313c-.624 0-.868.035-1.32.07-.312.034-.832.208-.902.208m.526.274c.45-.103 1.805-.242 1.25-.208.59-.034.694-.034 1.318-.07m.176.278c-.38-.034-.763-.07-1.076 0-.174.07-.38.14-1.25.208m.342.176c.416-.07.694-.035 1.04-.14.314-.103.73-.034 1.077-.068m-1.765.416c.555-.07.763-.14 1.423-.104.173 0 .312 0 .555-.035m-11.562-7.701c.174-.07.243-.174.486-.14.174-.034.313.036.313-.034.035-.034.174-.034.278-.034m-1.357-.04c.174-.07.208-.14.45-.14.244 0 .348 0 .383-.034 0-.07.173-.034.242-.034m3.861 4.232c.174-.07.208-.104.486-.07-.105-.104.243 0 .277-.068 0-.036.278 0 .383 0m-.042 1.146c.38-.103.868-.103 1.215-.277m.593.453c-.45.07-1.11-.035-1.493.174m-5.619-5.87c-.452-.035-.555.14-.833.347m7.041.909c.07 0 .798-.104.868-.104m-.62.344c.277-.07.73-.07.868-.174m-.596.382l.66-.104c.07-.035.174 0 .243 0m-.591.448c.104-.07.834-.208.973-.208m.211.208c-.174-.035-.868.104-.972.174m.38.25c.07-.07.763-.174.937-.14m.351.244c-.208 0-.764.035-1.04.104m.344.208c.208 0 .868-.07.972-.174m.38.342c-.208 0-.73.07-1.007.104m.415.248c.242 0 .798 0 .972-.104m.284.168c-.174.104-.764.104-.972.174m.444.314c.174-.14.73-.07.972-.14m.284.284c-.243 0-.486 0-.694.035-.035.034-.208.034-.278.034m1.772.555c-.347-.035-.764.104-1.077.14m.277.308c.313-.14.868-.14 1.25-.208m-.386 1.144c.07 0 .486-.07.555-.07.555-.07.658-.173 1.145-.138m.276.24c-.625.104-.902.14-1.39.174-.068 0-.31 0-.346.034m.216.28c.52-.07 1.39-.14 1.874-.174m.55.278c-.416.035-.902 0-1.285.07-.313.068-.764.068-.8.103m.421.315c.07 0 .52-.104.556-.104.625-.07.868-.14 1.493-.174m.343.278c-.59.035-.8.035-1.215.07-.313.034-.764.208-.87.208m.493.242c.452-.07 1.7-.243 1.18-.174.52-.07.625-.07 1.215-.07m.173.244c-.382-.035-.764-.07-1.007 0-.172.07-.346.14-1.144.174m.311.17c.347-.035.625-.035.972-.138.278-.07.625-.035.973-.035m-1.665.381c.556-.07.73-.104 1.354-.104.174 0 .278 0 .486-.035m-10.624-7.109c.14-.07.174-.14.417-.104.175-.035.28 0 .314-.035 0-.035.138-.035.242-.035m-1.253-.034c.174-.07.174-.14.417-.104.21-.035.314 0 .348-.07 0-.034.138-.034.243-.034m3.544 3.92c.14-.07.208-.07.416-.07-.07-.103.243 0 .278-.034.035-.035.278-.035.347-.035m-.073 1.043c.347-.07.868-.07 1.18-.208m.556.376c-.45.07-1.146-.035-1.492.14m-5.068-5.38c-.417-.035-.556.14-.8.312"/></g></svg>
