<svg xmlns="http://www.w3.org/2000/svg" width="640" height="480"><g fill="none" fill-rule="evenodd"><path fill="#CC0001" d="M0 0h640v478.835H0z"/><path fill="#FFF" d="M0 439.39h640v39.945H0zm0-79.89h640v39.946H0zm0-79.888h640v39.945H0zm0-79.89h640v39.946H0zm0-79.888h640v39.945H0zm0-79.89h640V79.89H0z"/><path fill="#010066" d="M0 0h420v239.377H0z"/><path fill="#FC0" d="M172.8 29.922c-49.844 0-90.3 40.217-90.3 89.766 0 49.55 40.456 89.767 90.3 89.767 18.008 0 34.786-5.256 48.878-14.298-8.206 2.824-17.013 4.37-26.18 4.37-44.2 0-80.07-35.66-80.07-79.597 0-43.936 35.87-79.595 80.07-79.595 9.766 0 19.123 1.74 27.78 4.927-14.413-9.682-31.787-15.34-50.478-15.34z"/><path fill="#FC0" d="M322.55 166.42l-38.037-19.795 11.247 40.51-25.442-33.887-7.937 41.246-7.802-41.27-25.548 33.81 11.374-40.476-38.1 19.68 28.303-31.667-43.105 1.655 39.626-16.587-39.572-16.705 43.1 1.78-28.203-31.75 38.038 19.793-11.245-40.51 25.443 33.887 7.937-41.247 7.805 41.27 25.547-33.812-11.375 40.48 38.1-19.68L294.4 104.81l43.104-1.65-39.625 16.585 39.57 16.707-43.1-1.78 28.203 31.75z"/></g></svg>
