<?xml version="1.0" encoding="UTF-8" standalone="no"?>
<svg width="640px" height="480px" viewBox="0 0 640 480" version="1.1" xmlns="http://www.w3.org/2000/svg" xmlns:xlink="http://www.w3.org/1999/xlink">
    <g stroke="none" stroke-width="1" fill="none" fill-rule="evenodd">
        <path d="M0,480 L640,480 L640,0 L0,0 L0,480 Z" fill="#DA121A"></path>
        <path d="M0,320 L640,320 L640,0 L0,0 L0,320 Z" fill="#FCDD08"></path>
        <path d="M0,160 L640,160 L640,0 L0,0 L0,160 Z" fill="#068930"></path>
        <g transform="translate(160.000000, 80.000000)">
            <path d="M160,0 C248.365333,0 320,71.6346667 320,160 C320,248.365333 248.365333,320 160,320 C71.6346667,320 0,248.365333 0,160 C0,71.6346667 71.6346667,0 160,0" fill="#0F47AF"></path>
            <path d="M196.101366,113.713306 L236.854699,57.6213059 L233.618634,55.2701608 L192.865301,111.362161 L196.101366,113.713306 L196.101366,113.713306 L196.101366,113.713306 L196.101366,113.713306 Z M215.177296,180.031045 L281.117296,201.456379 L282.353371,197.652155 L216.413371,176.226821 L215.177296,180.031045 L215.177296,180.031045 L215.177296,180.031045 L215.177296,180.031045 Z M158,218.666667 L158,288 L162,288 L162,218.666667 L158,218.666667 L158,218.666667 L158,218.666667 L158,218.666667 Z M103.586629,176.226955 L37.6466293,197.652288 L38.882704,201.456512 L104.822704,180.031179 L103.586629,176.226955 L103.586629,176.226955 L103.586629,176.226955 L103.586629,176.226955 Z M127.134699,111.362027 L86.3813658,55.2700274 L83.1453009,57.6211726 L123.898634,113.713173 L127.134699,111.362027 L127.134699,111.362027 L127.134699,111.362027 Z M146.683733,120.445867 L143.2184,131.112533 L242.101067,131.112533 L256.7824,120.445867 L188.7384,120.445867 L159.999733,32.0005333 L154.391733,49.2592 L177.5224,120.445867 L146.683733,120.445867 L146.683733,120.445867 L146.683733,120.445867 Z M193.5032,135.112533 L182.2872,135.112533 L212.844533,229.156533 L227.525867,239.8232 L206.4992,175.108533 L281.7352,120.445867 L263.588533,120.445867 L203.032533,164.441867 L193.5032,135.112533 L193.5032,135.112533 L193.5032,135.112533 L193.5032,135.112533 Z M169.0736,202.299333 L194.022933,184.172667 L190.556267,173.506 L110.5576,231.628667 L104.950933,248.887333 L160.000267,208.891333 L235.236267,263.554 L229.628267,246.295333 L169.0736,202.299333 L169.0736,202.299333 L169.0736,202.299333 L169.0736,202.299333 Z M147.523733,199.8272 L156.597067,193.2352 L76.5984,135.112533 L58.4517333,135.112533 L113.501067,175.108533 L84.7637333,263.553867 L99.4450667,252.8872 L122.5744,181.700533 L147.523733,199.8272 L147.523733,199.8272 L147.523733,199.8272 L147.523733,199.8272 Z M118.2668,160.4416 L127.340133,167.0336 L157.897467,72.9896 L152.289467,55.7309333 L131.2628,120.4456 L38.2641333,120.4456 L52.9468,131.112267 L127.796133,131.112267 L118.2668,160.4416 L118.2668,160.4416 L118.2668,160.4416 L118.2668,160.4416 Z" fill="#FCDD08"></path>
        </g>
    </g>
</svg>
