<svg xmlns="http://www.w3.org/2000/svg" width="640" height="480"><g fill="none" fill-rule="evenodd"><path fill="#FE0000" d="M0 0h640v480H0z"/><path fill="#000095" d="M0 0h360v240H0z"/><g fill="#FFF" transform="translate(89.6 29.6)"><path d="M124.64 52.56l10.8-40.08-29.36 29.44c6.96 2.16 13.2 5.84 18.56 10.64zM74.72 41.84L45.36 12.4l10.8 40.08c5.36-4.72 11.6-8.4 18.56-10.64zm15.68-2.48c3.68 0 7.28.4 10.72 1.12L90.4.4 79.68 40.56c3.44-.8 7.04-1.2 10.72-1.2zm48.56 35.36l29.44-29.36-40.08 10.8c4.72 5.36 8.4 11.6 10.64 18.56zM180.4 90.4l-40.16-10.72c.72 3.44 1.12 7.04 1.12 10.72 0 3.68-.4 7.28-1.12 10.72L180.4 90.4z"/><ellipse cx="90.4" cy="90.4" rx="44.96" ry="44.96"/><path d="M52.56 56.16L12.48 45.44 41.92 74.8c2.16-7.04 5.84-13.28 10.64-18.64zm53.52 82.8l29.36 29.44-10.8-40.08c-5.36 4.72-11.6 8.4-18.56 10.64zm-15.68 2.48c-3.68 0-7.28-.4-10.72-1.12l10.72 40.16 10.72-40.16c-3.44.72-7.04 1.12-10.72 1.12zm37.84-16.8l40.08 10.8-29.44-29.36c-2.16 6.96-5.84 13.2-10.64 18.56zM39.36 90.4c0-3.68.4-7.28 1.12-10.72L.4 90.4l40.16 10.72c-.8-3.44-1.2-7.04-1.2-10.72zm16.8 37.84l-10.8 40.08 29.36-29.44c-6.96-2.16-13.2-5.84-18.56-10.64zm-14.32-22.16L12.4 135.44l40.08-10.8c-4.72-5.36-8.4-11.6-10.64-18.56z"/></g></g></svg>
