<svg xmlns="http://www.w3.org/2000/svg" width="640" height="480"><g fill="none" fill-rule="evenodd"><path fill="#B22234" d="M0 0h640v480H0z"/><path fill="#FFF" d="M0 73.846h640V36.923H0v36.923zm640 36.923H0v36.92h640v-36.92zM0 221.53h640v-36.92H0v36.924zm640 36.924H0v36.923h640v-36.92zM0 369.232h640V332.31H0v36.922zm640 36.922H0v36.923h640v-36.923z"/><path fill="#3C3B6E" d="M0 0h364.8v258.462H0z"/><path fill="#FFF" d="M30.42 11.082l-3.317 10.21H16.365l8.687 6.31-3.32 10.21 8.69-6.31 8.686 6.31-3.32-10.21 8.688-6.31H33.738l-3.317-10.21zm0 51.718l-3.317 10.21H16.365l8.687 6.31-3.32 10.21 8.69-6.31 8.686 6.31-3.32-10.21 8.688-6.31H33.738L30.42 62.8zm0 51.716l-3.317 10.21H16.365l8.687 6.31-3.32 10.21 8.69-6.31 8.686 6.31-3.32-10.21 8.688-6.31H33.738l-3.317-10.21zm0 51.717l-3.317 10.21H16.365l8.687 6.31-3.32 10.21 8.69-6.31 8.686 6.31-3.32-10.21 8.688-6.31H33.738l-3.317-10.21zm3.32 61.927l-3.32-10.21-3.318 10.21H16.365l8.686 6.31-3.31 10.21 8.69-6.31 8.69 6.31-3.32-10.21 8.69-6.31H33.74zm27.1-191.22l-3.317 10.21H46.785l8.687 6.31-3.318 10.21 8.687-6.31 8.69 6.31-3.32-10.21 8.69-6.31H64.16l-3.32-10.21zm0 51.718l-3.317 10.21H46.785l8.687 6.31-3.318 10.21 8.687-6.31 8.69 6.31-3.32-10.21 8.69-6.31H64.16l-3.32-10.21zm0 51.717l-3.317 10.21H46.785l8.687 6.31-3.318 10.21 8.687-6.31 8.69 6.31-3.32-10.21 8.69-6.31H64.16l-3.32-10.21zm3.32 61.927l-3.32-10.21-3.317 10.21H46.785l8.687 6.31-3.318 10.21 8.687-6.31 8.69 6.31-3.32-10.21 8.69-6.31H64.16zm27.102-191.22l-3.318 10.21H77.206l8.687 6.31-3.32 10.21 8.69-6.31 8.686 6.31-3.32-10.21 8.68-6.31H94.58l-3.318-10.21zm0 51.718l-3.318 10.21H77.206l8.687 6.31-3.32 10.21 8.69-6.31 8.686 6.31-3.32-10.21 8.68-6.31H94.58L91.26 62.8zm0 51.716l-3.318 10.21H77.206l8.687 6.31-3.32 10.21 8.69-6.31 8.686 6.31-3.32-10.21 8.68-6.31H94.58l-3.318-10.21zm0 51.717l-3.318 10.21H77.206l8.687 6.31-3.32 10.21 8.69-6.31 8.686 6.31-3.32-10.21 8.68-6.31H94.58l-3.318-10.21zm3.318 61.927l-3.318-10.21-3.32 10.21H77.207l8.686 6.31-3.317 10.21 8.687-6.31 8.686 6.31-3.32-10.21 8.69-6.31H94.58zm27.102-191.22l-3.318 10.21h-10.738l8.688 6.31-3.32 10.21 8.688-6.31 8.687 6.31-3.32-10.21 8.68-6.31H125l-3.318-10.21zm0 51.718l-3.318 10.21h-10.738l8.688 6.31-3.32 10.21 8.688-6.31 8.687 6.31-3.32-10.21 8.68-6.31H125l-3.318-10.21zm0 51.717l-3.318 10.21h-10.738l8.688 6.31-3.32 10.21 8.688-6.31 8.687 6.31-3.32-10.21 8.68-6.31H125l-3.318-10.21zM125 202.302l-3.318-10.21-3.318 10.21h-10.738l8.687 6.31-3.318 10.21 8.687-6.31 8.687 6.31-3.32-10.21 8.68-6.31H125zm27.103-191.22l-3.318 10.21h-10.738l8.687 6.31-3.32 10.21 8.69-6.31 8.686 6.31-3.32-10.21 8.688-6.31H155.42l-3.317-10.21zm0 51.718l-3.318 10.21h-10.738l8.687 6.31-3.32 10.21 8.69-6.31 8.686 6.31-3.32-10.21 8.688-6.31H155.42l-3.317-10.21zm0 51.716l-3.318 10.21h-10.738l8.687 6.31-3.32 10.21 8.69-6.31 8.686 6.31-3.32-10.21 8.688-6.31H155.42l-3.317-10.21zm0 51.717l-3.318 10.21h-10.738l8.687 6.31-3.32 10.21 8.69-6.31 8.686 6.31-3.32-10.21 8.688-6.31H155.42l-3.317-10.21zm3.317 61.927l-3.317-10.21-3.32 10.21h-10.736l8.686 6.31-3.317 10.21 8.687-6.31 8.686 6.31-3.32-10.21 8.69-6.31h-10.74zm27.103-191.22l-3.318 10.21h-10.738l8.688 6.31-3.32 10.21 8.688-6.31 8.687 6.31-3.318-10.21 8.687-6.31h-10.74l-3.32-10.21zm0 51.718l-3.318 10.21h-10.738l8.688 6.31-3.32 10.21 8.688-6.31 8.687 6.31-3.318-10.21 8.687-6.31h-10.74l-3.32-10.21zm0 51.717l-3.318 10.21h-10.738l8.688 6.31-3.32 10.21 8.688-6.31 8.687 6.31-3.318-10.21 8.687-6.31h-10.74l-3.32-10.21zm3.317 61.927l-3.317-10.21-3.318 10.21h-10.737l8.686 6.31-3.318 10.21 8.687-6.31 8.687 6.31-3.318-10.21 8.687-6.31h-10.74zm27.104-191.22l-3.318 10.21h-10.738l8.687 6.31-3.32 10.21 8.69-6.31 8.686 6.31-3.31-10.21 8.69-6.31h-10.74l-3.313-10.21zm0 51.718l-3.318 10.21h-10.738l8.687 6.31-3.32 10.21 8.69-6.31 8.686 6.31-3.31-10.21 8.68-6.31h-10.74l-3.31-10.21zm0 51.716l-3.318 10.21h-10.738l8.687 6.31-3.32 10.21 8.69-6.31 8.686 6.31-3.31-10.21 8.69-6.31h-10.74l-3.313-10.21zm0 51.717l-3.318 10.21h-10.738l8.687 6.31-3.32 10.21 8.69-6.31 8.686 6.31-3.31-10.21 8.69-6.31h-10.74l-3.313-10.21zm3.318 61.927l-3.318-10.21-3.32 10.21H198.89l8.686 6.31-3.317 10.21 8.68-6.31 8.68 6.31-3.32-10.21 8.687-6.31h-10.73zm27.102-191.22l-3.318 10.21h-10.738l8.688 6.31-3.32 10.21 8.688-6.31 8.687 6.31-3.31-10.21 8.69-6.31h-10.74l-3.32-10.21zm0 51.718l-3.318 10.21h-10.738l8.688 6.31-3.32 10.21 8.688-6.31 8.687 6.31-3.31-10.21 8.69-6.31h-10.74l-3.32-10.21zm0 51.717l-3.318 10.21h-10.738l8.688 6.31-3.32 10.21 8.688-6.31 8.687 6.31-3.31-10.21 8.69-6.31h-10.74l-3.32-10.21zm3.318 61.927l-3.318-10.21-3.318 10.21H229.31l8.685 6.31-3.318 10.21 8.687-6.31 8.687 6.31-3.31-10.21 8.69-6.31h-10.74zm27.103-191.22l-3.318 10.21H259.73l8.686 6.31-3.32 10.21 8.69-6.31 8.686 6.31-3.32-10.21 8.688-6.31h-10.737l-3.318-10.21zm0 51.718l-3.318 10.21H259.73l8.686 6.31-3.32 10.21 8.69-6.31 8.686 6.31-3.32-10.21 8.688-6.31h-10.737l-3.318-10.21zm0 51.716l-3.318 10.21H259.73l8.686 6.31-3.32 10.21 8.69-6.31 8.686 6.31-3.32-10.21 8.688-6.31h-10.737l-3.318-10.21zm0 51.717l-3.318 10.21H259.73l8.686 6.31-3.32 10.21 8.69-6.31 8.686 6.31-3.32-10.21 8.688-6.31h-10.737l-3.318-10.21zm3.318 61.927l-3.318-10.21-3.32 10.21H259.73l8.686 6.31-3.318 10.21 8.687-6.31 8.686 6.31-3.31-10.21 8.69-6.31h-10.74zm27.102-191.22l-3.318 10.21H290.15l8.687 6.31-3.32 10.21 8.688-6.31 8.687 6.31-3.318-10.21 8.687-6.31h-10.73l-3.31-10.21zm0 51.718l-3.318 10.21H290.15l8.687 6.31-3.32 10.21 8.688-6.31 8.687 6.31-3.318-10.21 8.687-6.31h-10.73l-3.31-10.21zm0 51.717l-3.318 10.21H290.15l8.687 6.31-3.32 10.21 8.688-6.31 8.687 6.31-3.318-10.21 8.687-6.31h-10.73l-3.31-10.21zm3.318 61.927l-3.318-10.21-3.318 10.21H290.15l8.686 6.31-3.318 10.21 8.687-6.31 8.687 6.31-3.318-10.21 8.687-6.31h-10.73zm21.734-174.7l-3.318 10.21 8.68-6.31 8.69 6.31-3.32-10.21 8.68-6.31h-10.73l-3.32-10.21-3.32 10.21h-10.73l8.686 6.31zm5.37 35.198l-3.32 10.21H320.57l8.687 6.31-3.32 10.21 8.69-6.31 8.686 6.31-3.32-10.21 8.688-6.31h-10.73l-3.32-10.21zm0 51.716l-3.32 10.21H320.57l8.687 6.31-3.32 10.21 8.69-6.31 8.686 6.31-3.32-10.21 8.688-6.31h-10.73l-3.31-10.21zm0 51.717l-3.32 10.21H320.57l8.687 6.31-3.32 10.21 8.69-6.31 8.686 6.31-3.32-10.21 8.688-6.31h-10.73l-3.31-10.21zm3.317 61.927l-3.318-10.21-3.32 10.21H320.57l8.687 6.31-3.318 10.21 8.68-6.31 8.68 6.31-3.32-10.21 8.686-6.31h-10.73z"/></g></svg>
