<svg xmlns="http://www.w3.org/2000/svg" xmlns:xlink="http://www.w3.org/1999/xlink" width="1014" height="480"><defs><path id="a" d="M0 0h1024v480H0z"/></defs><g fill="none" fill-rule="evenodd" transform="translate(-10)"><mask id="b" fill="#fff"><use xlink:href="#a"/></mask><g mask="url(#b)"><path fill="#006" fill-rule="nonzero" d="M10-16h1024v512H10z"/><path fill="#BD1021" d="M10 240l1024 256V-16z"/><path fill="#FFF" d="M1034 11.43v457.14L119.71 240z"/><g stroke="#000"><path fill="#9C3900" stroke-linejoin="round" stroke-width="1.761" d="M862 297.4s-6.392-5.23 1.163-13.658c-4.068-3.486-.29-10.17-.29-10.17s-6.975-2.615.29-13.366c-5.23-3.487-2.906-11.333-2.906-11.333s-17.144-6.393-.87-12.494c-13.368 5.81-25.863-7.848-25.863-7.848l-19.468.582c-3.302-16.172-28.97-2.127-9.888-48.52-4.94-.872-10.46-2.324-15.982 1.744-5.522 4.067-21.212 12.784-30.51 4.067-9.298-8.717 6.1-21.212 6.392-21.502.29-.29 20.63-10.75 23.536-17.725-.29-5.23-6.682-9.298-.872-20.63 6.683-10.753 47.65-20.923 66.26-24.41 9.007-4.068 13.076-11.914 13.076-11.914l2.034 7.555s41.262-12.205 43.296-18.016c2.034-5.811.872 5.23.872 5.23 16.272-1.453 36.903-15.4 39.81-9.008 13.656-2.615 39.81-14.238 39.81-14.238s9.006-.29 2.613 9.59c4.068 6.392-1.162 11.913-1.452 11.913-.29 0 1.743 6.394-3.487 9.88 1.745 5.522-3.197 9.88-3.197 9.88s2.326 6.684-6.973 10.17c.872 5.812-5.23 6.975-5.23 6.975s.872 6.102-3.196 8.717c0 4.65-4.65 6.974-4.65 6.974s2.906 1.743-1.163 4.65c-4.067 2.905-46.2 28.766-46.2 28.476 0-.29 30.8 5.52 32.834 6.683 2.034 1.163 25.28 16.564 25.28 16.564l-23.537 29.056s-26.15-2.905-27.312-1.452c-1.162 1.453 5.52 2.034 6.973 4.358 1.455 2.324 3.78 7.847 8.428 7.265 4.65-.582-8.717 8.427-17.434 9.3 0 3.195 11.04 3.485 13.947.87 2.907-2.615-6.973 7.555-8.136 9.008-1.163 1.453 13.077-2.034 13.077-2.034s-2.324 9.59-14.818 12.496c4.94 8.136 2.905 13.367 2.614 13.367-.291 0-8.136-8.137-15.69-6.684 2.033 7.845 8.136 15.108 9.88 16.272 1.742 1.162-13.658.87-15.692-3.488-2.034-4.358-3.778 10.46 1.743 15.11-6.392.29-11.914-3.487-11.914-3.487s-3.776 8.717-1.162 13.077c2.617 4.36-9.006-8.718-9.006-8.718l-22.084 9.3-4.94-8.428-.006-.006z"/><path fill="#FFC221" stroke-width="1.878" d="M691.325 280.1c.518 0 32.082-.518 46.572-8.797 7.244 11.384 17.076 19.146 17.076 19.146l4.658-16.56s11.385.518 12.42 3.106c-1.553 3.103-2.07 7.243-2.07 7.243s7.76.518 8.28 1.552c.516 1.035-2.07 9.83-2.07 9.83l33.116 7.763s2.587-12.936 5.175-11.384c2.588 1.554 13.972 17.595 30.013 18.63 16.041 1.035 17.076-13.455 17.076-13.455l3.62 2.07s6.728-14.487 7.763-14.487c1.035 0 2.588 2.07 11.384 2.07 2.587 3.104 3.623 10.347 3.623 10.347s-9.833 9.833-6.728 17.595c3.105 7.762 3.623 5.69 3.623 5.69l71.408 17.077s3.624 5.693-2.586 8.798c0 .517-71.927-16.56-71.927-16.56s-6.728 7.762-11.902 6.21c-5.174-1.552-1.552 3.105-1.552 3.105l77.618 6.21s5.692 7.244 1.552 9.314c-5.174.517-83.827-5.174-83.827-5.174s-4.66 9.83-9.833 1.552c-3.62 5.69-7.762-1.552-7.762-1.552s-6.726 5.174-7.762-.52c-5.692 4.14-9.314-2.585-9.314-2.585l-33.118-2.07-2.07 3.104s5.692 1.55-3.105 5.174c-8.796 3.622 52.78 2.07 54.333 2.587 1.552.52-4.14 5.176-4.14 5.176s31.566 2.07 37.257-4.657c5.692-6.73-2.07 8.795-2.07 8.795s24.84-1.034 24.84-2.07c0-1.036-.52 7.763-17.595 6.727 10.35 6.728 23.285 10.867 23.285 10.867s-12.936 3.104-27.942-.518c2.586 6.727 13.972 12.936 13.972 12.936s-8.28 7.245-26.91-10.35c5.176 9.315 1.036 12.938.52 11.902-.52-1.035-9.315-13.97-30.013-18.628 12.936 8.28 7.243 11.902 7.243 11.902s-6.726-11.902-17.593 0c-4.14-10.867-20.18-17.076-39.844-18.112-6.21-7.243-9.83-5.174-24.32-9.314-8.28-9.313-20.18-19.663-20.18-19.663s.517-13.97 14.488-12.42c1.552 4.658 1.552 3.106 1.552 3.106s15.524-5.692 20.18 2.07c6.728-11.902 16.042-1.78 17.595 2.36 4.458.654 26.907 1.262 26.907 1.262s-2.588-4.657-1.035-4.14c1.552.518 13.97-4.656 13.454-6.208-.517-1.553-1.034-6.727 1.035-6.21 2.07.517-17.593-2.588-28.46 5.693-3.622-3.623-1.035-13.455-1.035-13.455l-32.08-6.726-1.554 8.28s-9.314 1.55-8.796-.518c.517-2.07-2.07 7.243-2.07 7.243s-12.42-3.104-12.42-3.62 3.623-18.63 3.623-18.112c0 .518-10.35 1.035-24.838 11.902-4.14-12.936-36.74-30.012-36.74-30.53v.001zm40.363-42.43s-21.734 18.628 0 29.494c1.034-7.244 2.587-8.278 2.587-8.278s18.11 6.726 28.977-9.315c-4.657-6.725-12.937-4.138-12.937-4.138s-17.076 0-18.628-7.76l.001-.003z"/><path stroke-width="1.878" d="M749.8 245.954l-15.006 12.936"/><path fill="#FFF" stroke-linejoin="round" stroke-width="1.878" d="M732.402 237.825s2.905-2.906 3.777-6.392c.87-3.487-1.163-7.265 2.324-10.46 3.487-3.198 49.397-22.666 53.176-26.444 3.777-3.778 10.75-11.914 11.623-13.658.87-1.743 3.487 8.717-4.36 13.367 8.428-2.326 13.95-4.94 17.435-3.78-3.487 4.94-12.785 13.078-17.144 13.078 10.17-3.778 19.47-6.975 22.084-4.94 2.615 2.034-12.495 12.204-18.597 12.785 10.17-2.615 23.83-6.683 25.572-2.325-5.52 1.744-3.78 3.195-15.11 9.59-1.453 1.163-8.717 1.452-8.717 1.452 8.717-.872 20.63-4.36 21.792 2.034-6.973 2.615-9.588 6.102-15.4 7.555-5.81 1.453-19.178 4.067-27.315 7.264-8.136 3.196-20.05 12.495-20.05 12.495s-25.86.87-25.86.58c0-.29-4.94-11.914-5.23-12.205v.004z"/><path fill="#FFF" stroke-width="1.878" d="M954.116 220.104l50.27 9.59s5.52-6.394 2.615-9.88c7.556-1.743 5.522-11.623 5.522-11.623s8.717-3.776 1.452-12.495c4.942-4.94-1.162-8.717-1.162-8.717s2.034-8.717-4.36-9.59c1.745-6.972-11.04-9.297-11.04-9.297s-26.443 7.265-45.04 7.847c6.102 6.102-2.325 9.88-2.325 9.88s4.94 3.486 3.487 6.392c-1.453 2.905.872 6.1-5.52 8.136 8.426 3.778-.873 10.17-.873 10.17s9.3 6.392 6.976 9.588l-.002-.001z"/><path stroke-width="1.878" d="M949.17 209.356s44.46 5.23 46.494 5.23c2.034 0 9.88 2.616 11.333 5.23m-55.502-13.081l61.893 1.453m-61.598-2.903s58.698-3.487 62.766-9.59m-61.032-3.195s58.988-6.394 59.57-5.522m-61.599-1.744s57.244-9.007 57.825-7.555m-221.127-29.347s18.016 19.76 16.272 33.126"/></g></g></g></svg>
