<?xml version="1.0" encoding="UTF-8" standalone="no"?>
<svg width="640px" height="480px" viewBox="0 0 640 480" version="1.1" xmlns="http://www.w3.org/2000/svg" xmlns:xlink="http://www.w3.org/1999/xlink">
    <g stroke="none" stroke-width="1" fill="none" fill-rule="evenodd">
        <rect fill="#171796" x="0" y="0" width="640" height="480"></rect>
        <rect fill="#FFFFFF" x="0" y="0" width="640" height="320"></rect>
        <rect fill="#FF0000" x="0" y="0" width="640" height="160"></rect>
        <g transform="translate(190.000000, 49.000000)">
            <path d="M129.815586,346 L129.815586,346 C189.384371,346 238.119514,297.200401 238.119514,237.55903 L238.119514,108.6999 L21.5088714,108.6999 L21.5088714,237.55903 C21.5088714,297.203191 70.2468,346 129.8128,346 L129.815586,346 L129.815586,346 Z" id="Shape" fill="#FF0000"></path>
            <path d="M129.815586,344.262304 L129.815586,344.262304 C188.248729,344.262304 236.054371,296.393382 236.054371,237.88909 L236.054371,110.787181 L23.5740143,110.787181 L23.5740143,237.88909 C23.5740143,296.396171 71.3824429,344.262304 129.815586,344.262304" id="Shape" fill="#FFFFFF"></path>
            <path d="M191.075857,249.717231 L191.075857,294.689156 L150.190857,294.689156 L150.190857,249.714534 L191.075857,249.714534 L191.073536,204.739819 L231.92325,204.739819 L231.92325,237.597057 C231.92325,241.695379 231.66975,245.737916 231.197107,249.714441 L231.197107,249.717231 L191.075857,249.717231 L191.075857,249.717231 Z M109.303071,294.689156 L68.4199286,294.689156 L68.4199286,249.714534 L109.304929,249.714534 L109.304929,294.689156 L150.188071,294.688506 L150.188071,337.845473 C145.839571,338.73803 141.392643,339.348873 136.867714,339.665917 L136.864929,339.663128 C132.106929,339.941122 127.345214,339.957857 122.584429,339.663128 C118.074357,339.348873 113.637643,338.740819 109.303071,337.851052 L109.303071,294.689156 L109.303071,294.689156 Z M68.4171429,114.78602 L27.5321429,114.78602 L27.5321429,159.763431 L68.4171429,159.763431 L68.4171429,114.78602 L68.4171429,114.78602 Z M68.4171429,204.737123 L109.302143,204.737123 L109.302143,159.762501 L68.4171429,159.762501 L68.4171429,204.737123 L68.4171429,204.737123 Z M27.5319571,237.638431 C27.5319571,241.722806 27.7854571,245.751397 28.2553143,249.713977 L68.4169571,249.713977 L68.4169571,204.737495 L27.5319571,204.737495 L27.5319571,237.638431 L27.5319571,237.638431 Z M150.190857,204.737123 L109.303071,204.737123 L109.303071,249.714534 L150.190857,249.714534 L150.190857,204.737123 L150.190857,204.737123 Z M191.076321,319.292384 C200.141964,312.440153 208.044107,304.120783 214.419679,294.691295 L191.076321,294.691295 L191.076321,319.292384 L191.076321,319.292384 Z M45.0385929,294.688785 C51.4225214,304.132219 59.3385929,312.462746 68.4200214,319.319626 L68.4200214,294.688785 L45.0385929,294.688785 L45.0385929,294.688785 Z M150.190857,204.737123 L191.075857,204.737123 L191.075857,159.762501 L150.190857,159.762501 L150.190857,204.737123 L150.190857,204.737123 Z M150.190857,114.78602 L109.305857,114.78602 L109.305857,159.763431 L150.190857,159.763431 L150.190857,114.78602 L150.190857,114.78602 Z M231.922786,114.78602 L191.075857,114.78602 L191.075857,159.763431 L231.922786,159.763431 L231.922786,114.78602 L231.922786,114.78602 Z" fill="#FF0000"></path>
            <path d="M234.211529,107.380497 L259.562457,49.8431417 L240.2491,18.6157498 L208.250529,30.4774542 L185.784671,4.76345837 L156.180886,21.7499249 L129.785314,0.103569483 L103.388814,21.7499249 L73.7859571,4.76345837 L51.3182429,30.474665 L19.3187429,18.6129606 L-0.000185714286,49.8477904 L25.3182429,107.397232 C57.2202429,92.9387462 92.5941714,84.8834235 129.7881,84.8834235 C166.966243,84.8834235 202.322529,92.9331677 234.2171,107.380497 L234.211529,107.380497 L234.211529,107.380497 Z" fill="#FFFFFF"></path>
            <path d="M52.0220071,33.0161267 L51.9755786,33.0709817 L20.2435071,21.305971 L2.48643571,50.0137501 L9.28822143,65.4986762 L26.5197214,104.665173 C39.3860071,98.9695461 52.80015,94.29943 66.6600071,90.7636045 L52.0247929,33.0189159 L52.0220071,33.0161267 L52.0220071,33.0161267 Z" fill="#0093DD"></path>
            <path d="M103.664321,24.37432 L103.609536,24.4180181 L74.2536786,7.57566227 L52.0218214,33.0163127 L66.6570357,90.7600715 C80.2383214,87.2986257 94.24675,84.9361401 108.57925,83.748854 L103.661536,24.37432 L103.664321,24.37432 L103.664321,24.37432 Z" fill="#171796"></path>
            <path d="M63.0265071,76.4290537 C77.3868643,72.7686421 92.20315,70.2685541 107.36115,69.015256 L106.117793,54.0063601 C90.1212929,55.3312487 74.4822929,57.9698689 59.3242929,61.8301759 L63.0237214,76.4290537 L63.0265071,76.4290537 L63.0265071,76.4290537 Z" fill="#FF0000"></path>
            <path d="M55.6690643,47.4081359 C71.6135643,43.3432847 88.06135,40.5698512 104.887993,39.1770911 L103.666921,24.4434001 C86.0147786,25.903102 68.7609929,28.8159974 52.0355643,33.0770251 L55.6690643,47.4081359 L55.6690643,47.4081359 Z" fill="#FF0000"></path>
            <path d="M156.021821,24.385384 L155.958679,24.4207143 L129.78225,2.95751899 L103.661536,24.3770163 L108.57925,83.7515503 C115.574179,83.173248 122.642464,82.8645722 129.78225,82.8645722 C136.955464,82.8645722 144.057179,83.1760373 151.081821,83.759918 L156.019036,24.385384 L156.021821,24.385384 L156.021821,24.385384 Z" fill="#0093DD"></path>
            <path d="M207.661536,33.0464364 L207.592821,33.0715396 L185.314536,7.57510442 L156.021821,24.3849191 L151.081821,83.7603829 C165.417107,84.9495285 179.42275,87.3203818 193.00125,90.7855466 L207.65875,33.0492257 L207.661536,33.0464364 L207.661536,33.0464364 Z" fill="#171796"></path>
            <path d="M233.009586,104.645834 L257.081871,50.0157956 L239.3248,21.3089462 L207.658657,33.0488538 L193.001157,90.7851747 C206.814586,94.3135622 220.181371,98.9725213 233.0068,104.648623 L233.009586,104.645834 L233.009586,104.645834 Z" fill="#0093DD"></path>
            <path d="M202.31185,54.1140247 C218.173707,58.1649297 233.529493,63.5156202 248.258493,70.0368613 L238.969993,91.1244391 C225.398921,85.1173477 211.25585,80.1878324 196.640136,76.4567601 L202.31185,54.1140247 L202.31185,54.1140247 Z" fill="#FFFFFF"></path>
            <path d="M240.463321,87.7367222 L246.668036,73.6557132 C232.13775,67.2227979 216.990893,61.9464872 201.343536,57.947648 L197.685893,72.3531385 C212.52725,76.145574 226.895036,81.1522583 240.677821,87.2523243 L240.463321,87.7367222 L240.463321,87.7367222 Z" fill="#FF0000"></path>
        </g>
    </g>
</svg>
