<svg xmlns="http://www.w3.org/2000/svg" width="640" height="480"><g fill="none" fill-rule="evenodd"><path fill="#F00" d="M0 0h640v480H0z"/><path fill="#060" d="M0 0h256v480H0z"/><circle cx="256.5" cy="239.5" r="118.5" fill="#FF0"/><path fill="#F00" d="M188.384 253.144v.054c0 18.668 7.73 35.67 20.13 48.01 12.425 12.367 29.537 20.055 48.257 20.055 18.82 0 35.898-7.633 48.27-19.95 12.37-12.32 20.037-29.32 20.04-48.054h-.003v-92.195l-136.608-.022-.085 92.097h.002zm109.224-64.497l.005 58.67-.05 6.205h.002c0 1.633-.1 3.495-.29 5.08-1.11 9.275-5.375 17.36-11.693 23.65-7.397 7.363-17.606 11.93-28.857 11.93-11.192 0-21.167-4.726-28.595-12.12-7.62-7.585-12.036-17.984-12.036-28.737l-.016-64.828 81.528.147.003.003h-.005z"/></g></svg>
