<svg xmlns="http://www.w3.org/2000/svg" width="640" height="480"><g fill="none" fill-rule="evenodd"><path fill="#74ACDF" d="M0 0h640v480H0z"/><path fill="#FFF" d="M0 160.032h640v160.032H0z"/><path fill="#F6B40E" d="M391.086 239.173l-45.27-1.665c8.637-.416 13.84-5.62 22.062-4.89 8.742.83 13.738-4.06 17.172-5.1 3.434-1.146 5.412 1.248 5.932.207.52-1.04-2.186-3.226-7.077-2.497-4.89.728-6.244 4.37-16.963 3.538-9.783-.833-12.697 3.538-20.606 3.33l39.755-18.212s1.25-.52.94-1.353c-.31-.83-1.56-.31-1.56-.31l-42.46 15.72c7.81-3.64 10.72-10.51 18.53-12.9 8.43-2.6 11.14-8.95 13.84-11.34 2.71-2.29 5.52-.93 5.52-2.08.11-1.14-3.22-2.08-7.49.42-4.16 2.5-4.16 6.46-14.36 9.79-9.36 3.02-10.41 8.12-17.79 10.93l29.75-32.07s.94-.93.32-1.56-1.56.31-1.56.31l-33.2 30.81c5.83-6.35 5.83-13.73 12.18-19.04 6.76-5.62 6.86-12.59 8.43-15.71 1.66-3.22 4.68-3.02 4.37-4.06-.42-1.04-3.85-.73-6.77 3.23-2.92 3.96-1.36 7.6-9.47 14.47-7.5 6.35-6.46 11.45-12.28 16.97l15.19-41s.52-1.25-.31-1.56c-.83-.32-1.35.93-1.35.93l-18.94 41.21c2.92-8.117.11-14.986 3.96-22.27 4.06-7.806 1.56-14.26 1.77-17.797.31-3.54 3.23-4.58 2.5-5.41-.72-.83-3.74.835-4.99 5.52-1.14 4.786 1.67 7.49-3.22 17.07-4.476 8.74-1.666 13.11-4.89 20.29l-1.67-43.704s0-1.356-.935-1.356-.94 1.353-.94 1.353l-1.67 45.27c-.42-8.64-5.62-13.84-4.89-22.065.83-8.74-4.06-13.74-5.1-17.17-1.15-3.43 1.246-5.41.205-5.93-1.04-.52-3.23 2.18-2.5 7.07.724 4.896 4.37 6.25 3.534 16.968-.83 9.788 3.54 12.7 3.33 20.61L293.9 174.38s-.52-1.25-1.35-.94c-.83.317-.31 1.56-.31 1.56l15.71 42.46c-3.64-7.8-10.51-10.72-12.9-18.52-2.6-8.43-8.95-11.135-11.34-13.84-2.29-2.7-.935-5.51-2.08-5.51-1.144-.104-2.08 3.227.417 7.494 2.497 4.165 6.45 4.165 9.78 14.36 3.02 9.37 8.118 10.41 10.928 17.8L270.7 189.47s-.936-.934-1.56-.31c-.624.624.31 1.56.31 1.56l30.807 33.2c-6.35-5.83-13.74-5.83-19.05-12.177-5.62-6.762-12.59-6.87-15.713-8.43-3.23-1.662-3.02-4.68-4.06-4.37-1.04.418-.73 3.85 3.228 6.766s7.597 1.35 14.466 9.47c6.35 7.49 11.45 6.45 16.96 12.28l-41-15.19s-1.25-.52-1.56.31c-.314.83.935 1.35.935 1.35l41.21 18.94c-8.116-2.92-14.985-.11-22.27-3.96-7.805-4.06-14.26-1.56-17.796-1.77-3.54-.31-4.58-3.23-5.413-2.5-.83.73.84 3.75 5.52 4.992 4.79 1.142 7.495-1.668 17.07 3.224 8.74 4.48 13.11 1.67 20.29 4.89l-43.71 1.67s-1.35 0-1.35.94 1.35.94 1.35.94l45.27 1.663c-8.64.41-13.84 5.62-22.064 4.89-8.743-.84-13.74 4.06-17.17 5.1-3.44 1.14-5.41-1.25-5.93-.21-.52 1.04 2.18 3.22 7.07 2.5 4.89-.73 6.248-4.37 16.967-3.54 9.783.83 12.697-3.54 20.606-3.33l-39.756 18.21s-1.25.52-.935 1.35c.317.833 1.56.313 1.56.313l42.46-15.72c-7.8 3.64-10.72 10.51-18.52 12.904-8.43 2.6-11.138 8.95-13.84 11.34-2.71 2.29-5.52.936-5.52 2.08-.104 1.146 3.227 2.08 7.494-.415 4.165-2.497 4.165-6.45 14.36-9.78 9.37-3.02 10.41-8.12 17.8-10.93l-29.76 32.053s-.937.933-.31 1.56c.62.622 1.56-.315 1.56-.315l33.2-30.803c-5.83 6.35-5.83 13.74-12.18 19.043-6.76 5.62-6.864 12.59-8.43 15.715-1.66 3.227-4.68 3.02-4.37 4.06.42 1.04 3.85.728 6.77-3.226 2.912-3.95 1.35-7.597 9.47-14.46 7.492-6.35 6.45-11.45 12.28-16.96L292.25 305.4s-.523 1.25.31 1.56c.83.31 1.35-.938 1.35-.938l18.94-41.216c-2.912 8.12-.102 14.986-3.953 22.27-4.06 7.806-1.56 14.26-1.77 17.8-.31 3.54-3.223 4.58-2.495 5.41.73.83 3.745-.83 4.994-5.517 1.144-4.79-1.666-7.5 3.226-17.07 4.472-8.75 1.662-13.12 4.89-20.3l1.663 43.71s0 1.35.94 1.35c.935 0 .935-1.36.935-1.36l1.67-45.27c.416 8.64 5.62 13.84 4.89 22.06-.832 8.74 4.06 13.74 5.1 17.17 1.145 3.434-1.25 5.41-.21 5.93 1.04.52 3.228-2.184 2.5-7.075-.73-4.89-4.37-6.246-3.54-16.96.83-9.788-3.54-12.7-3.33-20.61l18.21 39.754s.52 1.25 1.35.94c.837-.31.317-1.56.317-1.56l-15.72-42.47c3.64 7.81 10.51 10.72 12.904 18.53 2.6 8.43 8.95 11.13 11.35 13.84 2.29 2.704.93 5.514 2.08 5.514 1.14.106 2.08-3.224-.42-7.49-2.5-4.16-6.45-4.16-9.78-14.36-3.02-9.366-8.12-10.407-10.93-17.796L369.75 291s.936.937 1.56.313c.625-.625-.312-1.56-.312-1.56l-30.805-33.2c6.35 5.828 13.738 5.828 19.045 12.176 5.62 6.76 12.593 6.86 15.715 8.43 3.226 1.66 3.018 4.68 4.06 4.37 1.04-.42.727-3.85-3.227-6.77-3.955-2.92-7.598-1.36-14.466-9.47-6.35-7.5-11.448-6.46-16.964-12.28l41.004 15.19s1.25.52 1.56-.32c.313-.84-.935-1.36-.935-1.36l-41.212-18.94c8.117 2.91 14.986.1 22.27 3.95 7.806 4.06 14.258 1.56 17.797 1.77 3.538.31 4.58 3.22 5.41 2.49.834-.73-.83-3.75-5.514-5-4.788-1.15-7.493 1.66-17.068-3.23-8.742-4.48-13.113-1.67-20.294-4.89l43.71-1.67s1.353 0 1.353-.94c-.108-.94-1.357-.94-1.357-.94z"/></g></svg>
