<svg xmlns="http://www.w3.org/2000/svg" width="512" height="512"><g fill="none"><path fill="#D21034" d="M0 0h512v512H0z"/><path fill="#00209F" d="M0 0h512v256H0z"/><path fill="#FFF" d="M175.24 191.63h161.52v128.583H175.24z"/><path fill="#016A16" stroke="#016A16" stroke-width=".312" d="M288.507 284.614l-32.963.957-32.814.374s-16.86 6.235-23.75 7.634c-6.872 1.396-5.978 3.653-11.295 4.84-4.26.953-4.75 1.253-7.25 1.417-1.512.1-3.374 1.263-5.196 2.545v17.833h161.52V303.25c-1.75-.953-3.418-1.61-5.126-2.19-2.373-.807-3.972-1.69-8.23-2.64-5.318-1.19-4.425-3.446-11.296-4.842-6.892-1.4-23.6-8.964-23.6-8.964z"/><g stroke="#000" stroke-width=".5"><path fill="#0A328C" d="M242.773 258.328l-19.519-21.306c-6.093 4.827-4.963 13.688-4.963 13.688l22.114 17.351 2.367-9.733h.001z"/><path fill="#D20014" d="M254.055 270.055l-14.476-14.667c-6.122.215-1.263 9.352-.956 10.5l15.433 13.2v-9.031l-.001-.002z"/><path fill="#F1B517" d="M252.826 267.532l-29.935-32.051-1.169.824 31.675 35.195-.573-3.968z"/><path fill="#0A328C" d="M234.244 263.974l-24.52-19.473c-4.199 4.27-.708 17.46-.708 17.46l23.966 12.983 1.263-10.97h-.001z"/><path fill="#D20014" d="M254.577 279.752l-20.17-16.157c-6.888.966-1.474 11.104-1.063 12.22l21.3 11.554-.069-7.617h.002z"/><path fill="#F1B517" d="M253.776 276.489l-43.612-32.737-1.002 1.007 45.802 35.765-1.188-4.037z"/><path fill="#0A328C" d="M232.489 275.883c-.324-.077-31.602-17.818-31.602-17.818-2.277 3.84-.219 9.42.78 10.288.058 2.56-1.028 3.935 1.206 9.284.66 3.473 2.27 6.677 4.608 8.578 2.854 10.952 14.034 11.687 18.342 2.772l6.668-13.103-.002-.001z"/><path fill="#D20014" d="M253.188 287.594l-21.416-12.553c-6.888.968.145 13.75.557 14.865l20.678 7.346.18-9.656v-.002z"/><path fill="#F1B517" d="M249.588 283.044l-48.384-25.754-.826 1.149 51.036 28.409-1.826-3.806z"/><g><path fill="#0A328C" d="M268.988 258.328l19.519-21.306c6.093 4.827 4.963 13.688 4.963 13.688l-22.114 17.351-2.367-9.733h-.001z"/><path fill="#D20014" d="M257.706 270.055l14.476-14.667c6.122.215 1.263 9.352.956 10.5l-15.433 13.2v-9.031l.001-.002z"/><path fill="#F1B517" d="M258.935 267.532l29.935-32.051 1.169.824-31.675 35.195.573-3.968z"/><path fill="#0A328C" d="M277.517 263.974l24.52-19.473c4.199 4.27.708 17.46.708 17.46l-23.966 12.983-1.263-10.97h.001z"/><path fill="#D20014" d="M257.184 279.752l20.17-16.157c6.888.966 1.474 11.104 1.063 12.22l-21.3 11.554.069-7.617h-.002z"/><path fill="#F1B517" d="M257.985 276.489l43.612-32.737 1.002 1.007-45.802 35.765 1.188-4.037z"/><path fill="#0A328C" d="M279.272 275.883c.324-.077 31.602-17.818 31.602-17.818 2.277 3.84.219 9.42-.78 10.288-.058 2.56 1.028 3.935-1.206 9.284-.66 3.473-2.27 6.677-4.608 8.578-2.854 10.952-14.034 11.687-18.342 2.772l-6.668-13.103.002-.001z"/><path fill="#D20014" d="M258.573 287.594l21.416-12.553c6.888.968-.145 13.75-.557 14.865l-20.678 7.346-.18-9.656v-.002z"/><path fill="#F1B517" d="M262.173 283.044l48.384-25.754.826 1.149-51.036 28.409 1.826-3.806z"/></g></g><g stroke-width=".5"><path fill="#016A16" stroke="#016A16" d="M253.879 214.363l-.794 15.48h4.949l-.725-15.347 5.159-.722-.571-6.113-12.817.495.068 5.552 4.731.657z"/><g fill="#016A16" stroke="#000"><path d="M255.688 208.04c-13.25-13.26-23.685-6.792-26.17-4.952 1.643.319 3.116-.704 3.879-.82-.478.603-1.476 2.1-1.476 2.1s4.096-1.938 4.556-1.758c-.592.469-1.242 1.595-1.242 1.595.304.12 2.608-1.802 3.063-1.836-.7.795-.921 2.608-.921 2.608l1.997-.93c.52.368-.144 1.075.307 1.04 3.32-.272 7.984 3.032 8.625 4.046"/><path d="M252.408 210.467c-1.383-3.162-26.604-8.54-31.676.418 1.986.5 3.884-1.665 3.884-1.665l-.17 1.996 3.365-2.58-1.208 2.662 2.676-2.164-.086 2.168 3.277-3.584-.43 2.082 2.936-1.246-.347 1.746"/><path d="M251.286 210.969c-6.473-4.33-16.486-1.417-16.486-1.417-6.383 3.584-9.79 2.936-10.616 9.575.606-.248 2.332-2.33 2.332-2.33l1.297 2.58.426-3.664 1.038 2.834 1.553-4.665.347 3.164 2.416-3.164 1.123.915 1.036-2.415.949 1.582s1.642-.998 2.594-.416l1.81-2.082.431 1.501 1.553-1.833.606 1.332 1.553-1.417-.085 1 5.35.086"/><path d="M249.822 211.718c-4.51-.085-17.452 4.8-20.801 9.91.699-.4 1.418-.763 2.156-1.086l.66 2.053.807-2.053.171 1.582c.495-1.234 1.055-1.374 1.987-.082l.34-1.915.521 1.831.862-1.997s.543 2.168.864 2.082c0 0 1.43-3.746 2.072-3.915l.17 2.33.864-2.331.778 1.747.17-2.498.864 1.915s.454-1.883 1.123-2.248l1.294 1.166 5.765-4.142"/><path d="M250.689 212.785c-6.008 2.304-11.384 10.547-10.974 14.039 2.671-3.311 2.1-2.857 3.29.956 0 0 .451-3.337.905-3.733l.785 2.468.29-3.229.802.04-.204-2.027 1.19.913c-.277-1.155-.576-1.546.66-2.54 0 0-1.565.2-.33-2.619l1.152 1.11s-.205-1.23.205-1.707l4.241-1.468"/><path d="M251.273 213.403l-2.27 4.324 1.16.337-2.618 1.967 2.212-.225s-3.376 1.237-3.784 4.55l3.436-1.515s-2.912 2.976-3.32 4.773l1.98-1.74s-1.92 2.076-1.63 5.222l1.456-1.628c-.348 3.819-.232 4.157 1.516 7.077 0 0-.466-4.494.058-5.055l3.84 3.988-2.15-5.673s2.383 3.595 3.84 3.26l-3.028-4.608 2.97 2.415-3.377-5.052 3.14.953s-2.27-2.862-2.093-4.66l2.153 2.36s-.814-2.697-.58-3.483l1.104.226-2.153-2.471 1.455-.282-.174-1.627 1.05-.336-.058-1.797m-1.866-.008c-3.727 5.051-1.805 12.86-4.017 16.844"/></g><g fill="#016A16" stroke="#000"><path d="M256.073 208.04c13.25-13.26 23.685-6.792 26.17-4.952-1.643.319-3.116-.704-3.879-.82.478.603 1.476 2.1 1.476 2.1s-4.096-1.938-4.556-1.758c.592.469 1.242 1.595 1.242 1.595-.304.12-2.608-1.802-3.063-1.836.7.795.921 2.608.921 2.608l-1.997-.93c-.52.368.144 1.075-.307 1.04-3.32-.272-7.984 3.032-8.625 4.046"/><path d="M259.353 210.467c1.383-3.162 26.604-8.54 31.676.418-1.986.5-3.884-1.665-3.884-1.665l.17 1.996-3.365-2.58 1.208 2.662-2.676-2.164.086 2.168-3.277-3.584.43 2.082-2.936-1.246.347 1.746"/><path d="M260.475 210.969c6.473-4.33 16.486-1.417 16.486-1.417 6.383 3.584 9.79 2.936 10.616 9.575-.606-.248-2.332-2.33-2.332-2.33l-1.297 2.58-.426-3.664-1.038 2.834-1.553-4.665-.347 3.164-2.416-3.164-1.123.915-1.036-2.415-.949 1.582s-1.642-.998-2.594-.416l-1.81-2.082-.431 1.501-1.553-1.833-.606 1.332-1.553-1.417.085 1-5.35.086"/><path d="M261.94 211.718c4.51-.085 17.451 4.8 20.8 9.91-.699-.4-1.418-.763-2.156-1.086l-.66 2.053-.807-2.053-.171 1.582c-.495-1.234-1.055-1.374-1.987-.082l-.34-1.915-.521 1.831-.862-1.997s-.543 2.168-.864 2.082c0 0-1.43-3.746-2.072-3.915l-.17 2.33-.864-2.331-.778 1.747-.17-2.498-.864 1.915s-.454-1.883-1.123-2.248l-1.294 1.166-5.765-4.142"/><path d="M261.072 212.785c6.008 2.304 11.384 10.547 10.974 14.039-2.671-3.311-2.1-2.857-3.29.956 0 0-.451-3.337-.905-3.733l-.785 2.468-.29-3.229-.802.04.204-2.027-1.19.913c.277-1.155.576-1.546-.66-2.54 0 0 1.565.2.33-2.619l-1.152 1.11s.205-1.23-.205-1.707l-4.241-1.468"/><path d="M260.488 213.403l2.27 4.324-1.16.337 2.618 1.967-2.212-.225s3.376 1.237 3.784 4.55l-3.436-1.515s2.912 2.976 3.32 4.773l-1.98-1.74s1.92 2.076 1.63 5.222l-1.456-1.628c.348 3.819.232 4.157-1.516 7.077 0 0 .466-4.494-.058-5.055l-3.84 3.988 2.15-5.673s-2.383 3.595-3.84 3.26l3.028-4.608-2.97 2.415 3.377-5.052-3.14.953s2.27-2.862 2.093-4.66l-2.153 2.36s.814-2.697.58-3.483l-1.104.226 2.153-2.471-1.455-.282.174-1.627-1.05-.336.058-1.797m1.866-.008c3.727 5.051 1.805 12.86 4.017 16.844"/></g><path fill="#F1B517" stroke="#000" d="M257.613 284.22s2.03-16.972 2.024-24.277c0-5.751-1.388-18.492-1.388-18.492h-5.833s-.887 12.681-.754 18.415c.17 7.305 2.024 24.355 2.024 24.355H257.613z"/><path fill="#F1B517" stroke="#000" d="M252.03 242.267h6.759l-.794-4.55h-4.898l-1.068 4.55z"/><path fill="#F1B517" stroke="#000" d="M252.462 238.62h6.042l-1.14-4.55h-3.721l-1.183 4.55z"/><path fill="#F1B517" stroke="#000" d="M252.851 234.932h5.035l-.853-4.55h-3.202l-.981 4.548z"/><path fill="#F1B517" stroke="#000" d="M257.212 229.843h-3.523l-.358 1.645h4.168l-.29-1.645h.003zm.72 50.678h-4.471 4.471zm.244-3.323h-5.018 5.018zm.664-3.373h-6.36 6.36zm.328-3.676h-6.656 6.656zm.046-3.67h-7.001 7zm.273-3.361h-7.595 7.595zm.017-3.055h-7.936 7.936zm-.048-3.687h-7.936 7.936zm-.264-3.645h-7.672 7.672zm-.352-3.704h-6.936 6.936zm-.336-3.343h-6.267 6.267z"/></g></g></svg>
