<?xml version="1.0" encoding="utf-8"?>
<!-- Generator: Adobe Illustrator 17.0.0, SVG Export Plug-In . SVG Version: 6.00 Build 0)  -->
<!DOCTYPE svg PUBLIC "-//W3C//DTD SVG 1.1//EN" "http://www.w3.org/Graphics/SVG/1.1/DTD/svg11.dtd">
<svg version="1.1" id="Layer_1" xmlns="http://www.w3.org/2000/svg" xmlns:xlink="http://www.w3.org/1999/xlink" x="0px" y="0px"
	 width="60px" height="60px" viewBox="0 0 60 60" enable-background="new 0 0 60 60" xml:space="preserve">
<g>
	<path fill="#010101" d="M45,30c-8.272,0-15,6.729-15,15s6.728,15,15,15c8.271,0,15-6.729,15-15S53.271,30,45,30z M45,58
		c-7.168,0-13-5.831-13-13c0-7.168,5.832-13,13-13s13,5.832,13,13C58,52.169,52.168,58,45,58z"/>
	<path fill="#010101" d="M52,44H38c-0.553,0-1,0.448-1,1c0,0.552,0.447,1,1,1h14c0.553,0,1-0.448,1-1C53,44.448,52.553,44,52,44z"/>
	<path fill="#010101" d="M5,54h19.956c0.553,0,1-0.448,1-1c0-0.552-0.447-1-1-1H5c-2.215,0-3-0.785-3-3V10h8v2H5
		c-0.553,0-1,0.448-1,1v36c0,0.552,0.447,1,1,1h18.695c0.553,0,1-0.448,1-1c0-0.552-0.447-1-1-1H6V14h4v3c0,0.552,0.447,1,1,1h20
		c0.553,0,1-0.448,1-1v-3h4v10c0,0.552,0.447,1,1,1c0.553,0,1-0.448,1-1V13c0-0.552-0.447-1-1-1h-5v-2h8v13.696c0,0.552,0.447,1,1,1
		c0.553,0,1-0.448,1-1V9c0-0.552-0.447-1-1-1h-9V5c0-0.552-0.447-1-1-1h-3.878c-0.3-1.581-1.489-4-5.948-4
		c-4.458,0-5.647,2.419-5.947,4H11c-0.553,0-1,0.448-1,1v3H1C0.447,8,0,8.448,0,9v40C0,52.318,1.683,54,5,54z M16.131,6
		c0.553,0,1-0.448,1-1c0-1.991,1.36-3,4.043-3c2.684,0,4.044,1.009,4.044,3c0,0.552,0.447,1,1,1H30v10H12v-2.598
		c0.054-0.123,0.087-0.258,0.087-0.402S12.054,12.722,12,12.598V9.402C12.054,9.278,12.087,9.143,12.087,9S12.054,8.722,12,8.598V6
		H16.131z"/>
	<path fill="#010101" d="M26.218,22H13.608c-0.553,0-1,0.448-1,1c0,0.552,0.447,1,1,1h12.609c0.553,0,1-0.448,1-1
		C27.218,22.448,26.771,22,26.218,22z"/>
	<path fill="#010101" d="M26.218,28H13.608c-0.553,0-1,0.448-1,1c0,0.552,0.447,1,1,1h12.609c0.553,0,1-0.448,1-1
		C27.218,28.448,26.771,28,26.218,28z"/>
	<path fill="#010101" d="M27.218,35c0-0.552-0.447-1-1-1H13.608c-0.553,0-1,0.448-1,1c0,0.552,0.447,1,1,1h12.609
		C26.771,36,27.218,35.552,27.218,35z"/>
	<path fill="#010101" d="M13.608,40c-0.553,0-1,0.448-1,1c0,0.552,0.447,1,1,1h7.565c0.553,0,1-0.448,1-1c0-0.552-0.447-1-1-1
		H13.608z"/>
</g>
</svg>
