<?xml version="1.0" encoding="utf-8"?>
<!-- Generator: Adobe Illustrator 17.0.0, SVG Export Plug-In . SVG Version: 6.00 Build 0)  -->
<!DOCTYPE svg PUBLIC "-//W3C//DTD SVG 1.1//EN" "http://www.w3.org/Graphics/SVG/1.1/DTD/svg11.dtd">
<svg version="1.1" id="Layer_1" xmlns="http://www.w3.org/2000/svg" xmlns:xlink="http://www.w3.org/1999/xlink" x="0px" y="0px"
	 width="60px" height="60px" viewBox="0 0 60 60" enable-background="new 0 0 60 60" xml:space="preserve">
<g>
	<path fill="#010101" d="M12.652,6H9C8.448,6,8,6.448,8,7v52c0,0.552,0.448,1,1,1h42c0.552,0,1-0.448,1-1V7c0-0.552-0.448-1-1-1
		h-3.044c-0.552,0-1,0.448-1,1c0,0.552,0.448,1,1,1H50v50H10V8h2.652c0.552,0,1-0.448,1-1C13.652,6.448,13.205,6,12.652,6z"/>
	<path fill="#010101" d="M44,11.087V7c0-0.552-0.448-1-1-1h-6.732c-0.465-2.964-2.906-6-5.963-6c-3.057,0-5.498,3.036-5.963,6H17
		c-0.552,0-1,0.448-1,1v4.087c0,0.552,0.448,1,1,1h26C43.552,12.087,44,11.639,44,11.087z M42,10.087H18V8h7.261
		c0.552,0,1-0.448,1-1c0-2.25,1.866-5,4.044-5s4.044,2.75,4.044,5c0,0.552,0.448,1,1,1H42V10.087z"/>
	<path fill="#010101" d="M13,10.087c-0.552,0-1,0.448-1,1V55c0,0.552,0.448,1,1,1h34c0.552,0,1-0.448,1-1V11.087
		c0-0.552-0.448-1-1-1s-1,0.448-1,1V54H14V11.087C14,10.535,13.552,10.087,13,10.087z"/>
	<path fill="#010101" d="M40.391,20h-15.13c-0.552,0-1,0.448-1,1c0,0.552,0.448,1,1,1h15.13c0.552,0,1-0.448,1-1
		C41.391,20.448,40.943,20,40.391,20z"/>
	<path fill="#010101" d="M40.391,28h-15.13c-0.552,0-1,0.448-1,1c0,0.552,0.448,1,1,1h15.13c0.552,0,1-0.448,1-1
		C41.391,28.448,40.943,28,40.391,28z"/>
	<path fill="#010101" d="M40.391,36h-15.13c-0.552,0-1,0.448-1,1c0,0.552,0.448,1,1,1h15.13c0.552,0,1-0.448,1-1
		C41.391,36.448,40.943,36,40.391,36z"/>
	<path fill="#010101" d="M40.391,44h-15.13c-0.552,0-1,0.448-1,1c0,0.552,0.448,1,1,1h15.13c0.552,0,1-0.448,1-1
		C41.391,44.448,40.943,44,40.391,44z"/>
	<path fill="#010101" d="M20.217,20h-1.261c-0.552,0-1,0.448-1,1c0,0.552,0.448,1,1,1h1.261c0.552,0,1-0.448,1-1
		C21.217,20.448,20.769,20,20.217,20z"/>
	<path fill="#010101" d="M20.217,28h-1.261c-0.552,0-1,0.448-1,1c0,0.552,0.448,1,1,1h1.261c0.552,0,1-0.448,1-1
		C21.217,28.448,20.769,28,20.217,28z"/>
	<path fill="#010101" d="M20.217,36h-1.261c-0.552,0-1,0.448-1,1c0,0.552,0.448,1,1,1h1.261c0.552,0,1-0.448,1-1
		C21.217,36.448,20.769,36,20.217,36z"/>
	<path fill="#010101" d="M20.217,44h-1.261c-0.552,0-1,0.448-1,1c0,0.552,0.448,1,1,1h1.261c0.552,0,1-0.448,1-1
		C21.217,44.448,20.769,44,20.217,44z"/>
</g>
</svg>
