<?xml version="1.0" encoding="utf-8"?>
<!-- Generator: Adobe Illustrator 17.0.0, SVG Export Plug-In . SVG Version: 6.00 Build 0)  -->
<!DOCTYPE svg PUBLIC "-//W3C//DTD SVG 1.1//EN" "http://www.w3.org/Graphics/SVG/1.1/DTD/svg11.dtd">
<svg version="1.1" id="Layer_1" xmlns="http://www.w3.org/2000/svg" xmlns:xlink="http://www.w3.org/1999/xlink" x="0px" y="0px"
	 width="60px" height="60px" viewBox="0 0 60 60" enable-background="new 0 0 60 60" xml:space="preserve">
<g>
	<path fill="#010101" d="M9,60h40c0.553,0,1-0.448,1-1V9c0-0.552-0.447-1-1-1h-9V5c0-0.552-0.447-1-1-1h-4.087
		C34.462,1.507,32.282,0,29,0c-3.282,0-5.462,1.507-5.913,4H19c-0.553,0-1,0.448-1,1v3H9C8.447,8,8,8.448,8,9v50
		C8,59.552,8.447,60,9,60z M19,18h20c0.553,0,1-0.448,1-1v-3h4v38H14V14h4v3C18,17.552,18.447,18,19,18z M20,6h4
		c0.553,0,1-0.448,1-1c0-2.61,2.506-3,4-3c1.494,0,4,0.39,4,3c0,0.552,0.447,1,1,1h4v10H20V6z M10,10h8v2h-5c-0.553,0-1,0.448-1,1
		v40c0,0.552,0.447,1,1,1h32c0.553,0,1-0.448,1-1V13c0-0.552-0.447-1-1-1h-5v-2h8v48H10V10z"/>
	<path fill="#010101" d="M20,24h17.652c0.553,0,1-0.448,1-1c0-0.552-0.447-1-1-1H20c-0.553,0-1,0.448-1,1C19,23.552,19.447,24,20,24
		z"/>
	<path fill="#010101" d="M20,30h17.652c0.553,0,1-0.448,1-1c0-0.552-0.447-1-1-1H20c-0.553,0-1,0.448-1,1C19,29.552,19.447,30,20,30
		z"/>
	<path fill="#010101" d="M20,36h17.652c0.553,0,1-0.448,1-1c0-0.552-0.447-1-1-1H20c-0.553,0-1,0.448-1,1C19,35.552,19.447,36,20,36
		z"/>
	<path fill="#010101" d="M20,42h17.652c0.553,0,1-0.448,1-1c0-0.552-0.447-1-1-1H20c-0.553,0-1,0.448-1,1C19,41.552,19.447,42,20,42
		z"/>
</g>
</svg>
