<?xml version="1.0" encoding="utf-8"?>
<!-- Generator: Adobe Illustrator 17.0.0, SVG Export Plug-In . SVG Version: 6.00 Build 0)  -->
<!DOCTYPE svg PUBLIC "-//W3C//DTD SVG 1.1//EN" "http://www.w3.org/Graphics/SVG/1.1/DTD/svg11.dtd">
<svg version="1.1" id="Layer_1" xmlns="http://www.w3.org/2000/svg" xmlns:xlink="http://www.w3.org/1999/xlink" x="0px" y="0px"
	 width="60px" height="60px" viewBox="0 0 60 60" enable-background="new 0 0 60 60" xml:space="preserve">
<g>
	<path fill="#010101" d="M35,28h20c0.552,0,1-0.448,1-1V9c0-0.265-0.106-0.519-0.293-0.707l-7.999-7.999
		c-0.092-0.092-0.201-0.165-0.323-0.216C47.264,0.027,47.133,0,47,0H35c-0.552,0-1,0.448-1,1v26C34,27.552,34.448,28,35,28z
		 M48,3.414L52.586,8H48V3.414z M36,2h10v7c0,0.552,0.448,1,1,1h7v16H36V2z"/>
	<path fill="#010101" d="M7,28h20c0.552,0,1-0.448,1-1V9c0-0.133-0.027-0.264-0.078-0.385c-0.051-0.121-0.124-0.231-0.216-0.323
		l-7.999-7.999c-0.092-0.092-0.201-0.165-0.323-0.216C19.264,0.027,19.133,0,19,0H7C6.448,0,6,0.448,6,1v26C6,27.552,6.448,28,7,28z
		 M20,3.414L24.586,8H20V3.414z M8,2h10v7c0,0.552,0.448,1,1,1h7v16H8V2z"/>
	<path fill="#010101" d="M35,60h20c0.552,0,1-0.448,1-1V41c0-0.265-0.106-0.519-0.293-0.707l-7.999-7.999
		c-0.092-0.092-0.201-0.165-0.323-0.216C47.264,32.027,47.133,32,47,32H35c-0.552,0-1,0.448-1,1v26C34,59.552,34.448,60,35,60z
		 M48,35.414L52.586,40H48V35.414z M36,34h10v7c0,0.552,0.448,1,1,1h7v16H36V34z"/>
	<path fill="#010101" d="M7,60h20c0.552,0,1-0.448,1-1V41c0-0.133-0.027-0.264-0.078-0.385c-0.051-0.121-0.124-0.231-0.216-0.323
		l-7.999-7.999c-0.092-0.092-0.201-0.165-0.323-0.216C19.264,32.027,19.133,32,19,32H7c-0.552,0-1,0.448-1,1v26
		C6,59.552,6.448,60,7,60z M20,35.414L24.586,40H20V35.414z M8,34h10v7c0,0.552,0.448,1,1,1h7v16H8V34z"/>
</g>
</svg>
