<?xml version="1.0" encoding="utf-8"?>
<!-- Generator: Adobe Illustrator 17.0.0, SVG Export Plug-In . SVG Version: 6.00 Build 0)  -->
<!DOCTYPE svg PUBLIC "-//W3C//DTD SVG 1.1//EN" "http://www.w3.org/Graphics/SVG/1.1/DTD/svg11.dtd">
<svg version="1.1" id="Layer_1" xmlns="http://www.w3.org/2000/svg" xmlns:xlink="http://www.w3.org/1999/xlink" x="0px" y="0px"
	 width="60px" height="60px" viewBox="0 0 60 60" enable-background="new 0 0 60 60" xml:space="preserve">
<g>
	<path fill="#010101" d="M5,60h34c0.552,0,1-0.448,1-1v-7h15c0.552,0,1-0.448,1-1V13c0-0.133-0.027-0.264-0.078-0.385
		c-0.051-0.121-0.124-0.231-0.216-0.323L43.708,0.294c-0.092-0.092-0.201-0.165-0.323-0.216C43.264,0.027,43.133,0,43,0H19
		c-0.552,0-1,0.448-1,1v7H5C4.448,8,4,8.448,4,9v50C4,59.552,4.448,60,5,60z M28,11.207L36.479,20H28V11.207z M44,3.414L52.586,12
		H44V3.414z M20,2h22v11c0,0.552,0.448,1,1,1h11v36H40V21.174c0-0.031-0.014-0.058-0.017-0.089C39.985,21.056,40,21.03,40,21
		c0-0.439-0.287-0.801-0.681-0.935L27.98,8.306C27.792,8.11,27.532,8,27.261,8H20V2z M6,10h20v11c0,0.552,0.448,1,1,1h11v36H6V10z"
		/>
</g>
</svg>
