<?xml version="1.0" encoding="utf-8"?>
<!-- Generator: Adobe Illustrator 17.0.0, SVG Export Plug-In . SVG Version: 6.00 Build 0)  -->
<!DOCTYPE svg PUBLIC "-//W3C//DTD SVG 1.1//EN" "http://www.w3.org/Graphics/SVG/1.1/DTD/svg11.dtd">
<svg version="1.1" id="Layer_1" xmlns="http://www.w3.org/2000/svg" xmlns:xlink="http://www.w3.org/1999/xlink" x="0px" y="0px"
	 width="60px" height="60px" viewBox="0 0 60 60" enable-background="new 0 0 60 60" xml:space="preserve">
<g>
	<path fill="#010101" d="M59.853,22.509c-0.05-0.087-0.104-0.169-0.177-0.237c-0.008-0.007-0.01-0.018-0.018-0.025l-16-14
		c-0.049-0.043-0.109-0.066-0.164-0.098c-0.042-0.025-0.079-0.056-0.125-0.075C43.253,8.028,43.128,8,43,8H1C0.447,8,0,8.448,0,9v42
		c0,0.552,0.447,1,1,1h58c0.553,0,1-0.448,1-1V23c0-0.143-0.032-0.278-0.087-0.401C59.899,22.566,59.871,22.541,59.853,22.509z
		 M44,11.204L56.339,22H44V11.204z M2,50V10h40v13c0,0.552,0.447,1,1,1h15v26H2z"/>
	<path fill="#010101" d="M33.427,27.141c-0.145-0.307-0.435-0.521-0.771-0.566c-0.336-0.049-0.673,0.082-0.894,0.34l-7.058,8.233
		l-4.345-2.172c-0.403-0.202-0.896-0.108-1.196,0.232l-6.305,7.13c-0.261,0.295-0.324,0.715-0.163,1.073
		C12.858,41.77,13.215,42,13.608,42h25.218c0.342,0,0.66-0.175,0.844-0.464c0.184-0.289,0.207-0.651,0.062-0.961L33.427,27.141z
		 M15.827,40l4.326-4.892l4.356,2.178c0.409,0.205,0.907,0.105,1.206-0.244l6.559-7.651L37.252,40H15.827z"/>
	<path fill="#010101" d="M19,30c2.757,0,5-2.243,5-5c0-2.757-2.243-5-5-5c-2.757,0-5,2.243-5,5C14,27.757,16.243,30,19,30z M19,22
		c1.654,0,3,1.346,3,3s-1.346,3-3,3s-3-1.346-3-3S17.346,22,19,22z"/>
</g>
</svg>
