<?xml version="1.0" encoding="utf-8"?>
<!-- Generator: Adobe Illustrator 17.0.0, SVG Export Plug-In . SVG Version: 6.00 Build 0)  -->
<!DOCTYPE svg PUBLIC "-//W3C//DTD SVG 1.1//EN" "http://www.w3.org/Graphics/SVG/1.1/DTD/svg11.dtd">
<svg version="1.1" id="Layer_1" xmlns="http://www.w3.org/2000/svg" xmlns:xlink="http://www.w3.org/1999/xlink" x="0px" y="0px"
	 width="60px" height="60px" viewBox="0 0 60 60" enable-background="new 0 0 60 60" xml:space="preserve">
<g>
	<path fill="#010101" d="M11,56h32c0.553,0,1-0.448,1-1v-5h5c0.553,0,1-0.448,1-1V19c0-0.133-0.027-0.264-0.078-0.385
		c-0.051-0.122-0.124-0.231-0.216-0.323L37.708,6.294c-0.092-0.092-0.201-0.166-0.323-0.216C37.264,6.027,37.134,6,37,6H17
		c-0.553,0-1,0.448-1,1v5h-5c-0.553,0-1,0.448-1,1v42C10,55.552,10.447,56,11,56z M38,9.414L46.586,18H38V9.414z M18,8h18v11
		c0,0.552,0.447,1,1,1h11v28H18V8z M12,14h4v35c0,0.552,0.447,1,1,1h25v4H12V14z"/>
</g>
</svg>
