<?xml version="1.0" encoding="utf-8"?>
<!-- Generator: Adobe Illustrator 17.0.0, SVG Export Plug-In . SVG Version: 6.00 Build 0)  -->
<!DOCTYPE svg PUBLIC "-//W3C//DTD SVG 1.1//EN" "http://www.w3.org/Graphics/SVG/1.1/DTD/svg11.dtd">
<svg version="1.1" id="Layer_1" xmlns="http://www.w3.org/2000/svg" xmlns:xlink="http://www.w3.org/1999/xlink" x="0px" y="0px"
	 width="60px" height="60px" viewBox="0 0 60 60" enable-background="new 0 0 60 60" xml:space="preserve">
<g>
	<path fill="#231F20" d="M59.706,18.292L47.708,6.294c-0.001-0.001-0.002-0.002-0.003-0.003C47.518,6.105,47.246,5.962,47,6
		c0,0,0,0,0,0s0,0,0,0c-0.002,0-0.003,0-0.005,0L29.399,6.085C29.276,6.031,29.142,6,29,6H13c-0.266,0-0.52,0.106-0.707,0.293
		L0.294,18.292c-0.092,0.092-0.166,0.201-0.216,0.323C0.027,18.736,0,18.867,0,19v36c0,0.552,0.447,1,1,1h28h30c0.553,0,1-0.448,1-1
		V19c0-0.133-0.027-0.264-0.078-0.385C59.872,18.493,59.798,18.384,59.706,18.292z M48,9.414L56.586,18H48V9.414z M12,9.414V18
		H3.414L12,9.414z M2,20h11c0.553,0,1-0.448,1-1V8h14v46H2V20z M30,54V8.082l16-0.077V19c0,0.552,0.447,1,1,1h11v34H30z"/>
</g>
</svg>
