<?xml version="1.0" encoding="utf-8"?>
<!-- Generator: Adobe Illustrator 17.0.0, SVG Export Plug-In . SVG Version: 6.00 Build 0)  -->
<!DOCTYPE svg PUBLIC "-//W3C//DTD SVG 1.1//EN" "http://www.w3.org/Graphics/SVG/1.1/DTD/svg11.dtd">
<svg version="1.1" id="Layer_1" xmlns="http://www.w3.org/2000/svg" xmlns:xlink="http://www.w3.org/1999/xlink" x="0px" y="0px"
	 width="60px" height="60px" viewBox="0 0 60 60" enable-background="new 0 0 60 60" xml:space="preserve">
<g>
	<path fill="#231F20" d="M41.62,0.293C41.433,0.106,41.178,0,40.913,0H9C8.448,0,8,0.448,8,1v58c0,0.552,0.448,1,1,1h42
		c0.552,0,1-0.448,1-1V11.087c0-0.265-0.106-0.52-0.293-0.707L41.62,0.293z M50,58H10V2h18v4.044c0,0.552,0.448,1,1,1h1V18h-6V6
		c0-0.552-0.448-1-1-1s-1,0.448-1,1v13c0,0.552,0.448,1,1,1h8c0.552,0,1-0.448,1-1V6.044c0-0.552-0.448-1-1-1h-1V2h10.499L50,11.501
		V58z"/>
	<rect x="25.783" y="13.609" fill="#231F20" width="2.522" height="2.522"/>
	<path fill="#231F20" d="M29.304,24c0-0.552-0.448-1-1-1h-2.521c-0.552,0-1,0.448-1,1s0.448,1,1,1h2.521
		C28.856,25,29.304,24.552,29.304,24z"/>
	<path fill="#231F20" d="M24.783,28c0,0.552,0.448,1,1,1h2.521c0.552,0,1-0.448,1-1s-0.448-1-1-1h-2.521
		C25.23,27,24.783,27.448,24.783,28z"/>
	<path fill="#231F20" d="M24.783,32c0,0.552,0.448,1,1,1h2.521c0.552,0,1-0.448,1-1s-0.448-1-1-1h-2.521
		C25.23,31,24.783,31.448,24.783,32z"/>
	<path fill="#231F20" d="M24.783,36c0,0.552,0.448,1,1,1h2.521c0.552,0,1-0.448,1-1s-0.448-1-1-1h-2.521
		C25.23,35,24.783,35.448,24.783,36z"/>
	<path fill="#231F20" d="M31.826,26c0-0.552-0.448-1-1-1h-2.522c-0.552,0-1,0.448-1,1s0.448,1,1,1h2.522
		C31.378,27,31.826,26.552,31.826,26z"/>
	<path fill="#231F20" d="M27.304,30c0,0.552,0.448,1,1,1h2.522c0.552,0,1-0.448,1-1s-0.448-1-1-1h-2.522
		C27.752,29,27.304,29.448,27.304,30z"/>
	<path fill="#231F20" d="M27.304,34c0,0.552,0.448,1,1,1h2.522c0.552,0,1-0.448,1-1s-0.448-1-1-1h-2.522
		C27.752,33,27.304,33.448,27.304,34z"/>
	<path fill="#231F20" d="M27.304,38c0,0.552,0.448,1,1,1h2.522c0.552,0,1-0.448,1-1s-0.448-1-1-1h-2.522
		C27.752,37,27.304,37.448,27.304,38z"/>
	<path fill="#231F20" d="M24.783,40c0,0.552,0.448,1,1,1h2.521c0.552,0,1-0.448,1-1s-0.448-1-1-1h-2.521
		C25.23,39,24.783,39.448,24.783,40z"/>
	<path fill="#231F20" d="M24.783,44c0,0.552,0.448,1,1,1h2.521c0.552,0,1-0.448,1-1s-0.448-1-1-1h-2.521
		C25.23,43,24.783,43.448,24.783,44z"/>
	<path fill="#231F20" d="M24.783,48c0,0.552,0.448,1,1,1h2.521c0.552,0,1-0.448,1-1s-0.448-1-1-1h-2.521
		C25.23,47,24.783,47.448,24.783,48z"/>
	<path fill="#231F20" d="M27.304,42c0,0.552,0.448,1,1,1h2.522c0.552,0,1-0.448,1-1s-0.448-1-1-1h-2.522
		C27.752,41,27.304,41.448,27.304,42z"/>
	<path fill="#231F20" d="M27.304,46c0,0.552,0.448,1,1,1h2.522c0.552,0,1-0.448,1-1s-0.448-1-1-1h-2.522
		C27.752,45,27.304,45.448,27.304,46z"/>
	<path fill="#231F20" d="M27.304,50c0,0.552,0.448,1,1,1h2.522c0.552,0,1-0.448,1-1s-0.448-1-1-1h-2.522
		C27.752,49,27.304,49.448,27.304,50z"/>
	<path fill="#231F20" d="M24.783,52c0,0.552,0.448,1,1,1h2.521c0.552,0,1-0.448,1-1s-0.448-1-1-1h-2.521
		C25.23,51,24.783,51.448,24.783,52z"/>
</g>
</svg>
