<?xml version="1.0" encoding="utf-8"?>
<!-- Generator: Adobe Illustrator 17.0.0, SVG Export Plug-In . SVG Version: 6.00 Build 0)  -->
<!DOCTYPE svg PUBLIC "-//W3C//DTD SVG 1.1//EN" "http://www.w3.org/Graphics/SVG/1.1/DTD/svg11.dtd">
<svg version="1.1" id="Layer_1" xmlns="http://www.w3.org/2000/svg" xmlns:xlink="http://www.w3.org/1999/xlink" x="0px" y="0px"
	 width="60px" height="60px" viewBox="0 0 60 60" enable-background="new 0 0 60 60" xml:space="preserve">
<g>
	<path fill="#010101" d="M0.998,54h25.217v-2H1.998V2h26v11c0,0.552,0.447,1,1,1h11v9.696h2V13c0-0.133-0.027-0.264-0.078-0.385
		c-0.051-0.122-0.124-0.231-0.216-0.323L29.706,0.294c-0.092-0.092-0.201-0.165-0.323-0.216C29.262,0.027,29.132,0,28.998,0h-28
		c-0.553,0-1,0.448-1,1v52C-0.002,53.552,0.445,54,0.998,54z M29.998,3.414L38.584,12h-8.586V3.414z"/>
	<path fill="#010101" d="M48.911,30h-7.565c-0.553,0-1,0.448-1,1v2.766c-0.802,0.343-1.764,0.841-2.692,1.537l-2.171-1.249
		c-0.479-0.274-1.089-0.111-1.365,0.366l-3.787,6.551c-0.276,0.478-0.112,1.09,0.365,1.366l2.155,1.246
		c-0.069,0.532-0.104,1.043-0.104,1.547c0,0.508,0.033,1.019,0.102,1.547l-2.157,1.247c-0.478,0.276-0.641,0.888-0.365,1.366
		l3.782,6.551c0.276,0.478,0.888,0.641,1.363,0.368l2.181-1.25c0.929,0.695,1.891,1.193,2.693,1.537V59c0,0.552,0.447,1,1,1h7.565
		c0.553,0,1-0.448,1-1v-2.506c0.962-0.416,1.864-0.936,2.659-1.534l2.152,1.246c0.229,0.133,0.504,0.169,0.76,0.101
		c0.256-0.068,0.475-0.236,0.607-0.466l3.778-6.551c0.276-0.478,0.112-1.09-0.366-1.366l-2.161-1.247
		c0.068-0.525,0.102-1.036,0.102-1.546c0-0.507-0.034-1.018-0.103-1.547l2.158-1.246c0.229-0.133,0.398-0.351,0.466-0.607
		c0.068-0.256,0.033-0.529-0.1-0.759l-3.782-6.551c-0.133-0.23-0.352-0.398-0.608-0.466c-0.258-0.069-0.532-0.032-0.76,0.102
		L52.57,35.3c-0.797-0.599-1.698-1.119-2.659-1.534V31C49.911,30.448,49.464,30,48.911,30z M51.829,37.269
		c0.323,0.276,0.785,0.319,1.152,0.105l1.869-1.085l2.781,4.816l-1.887,1.089c-0.366,0.211-0.56,0.63-0.483,1.046
		c0.121,0.665,0.181,1.283,0.181,1.89c0,0.614-0.059,1.232-0.179,1.89c-0.076,0.416,0.117,0.835,0.483,1.046l1.889,1.09
		l-2.778,4.817l-1.877-1.087c-0.367-0.212-0.829-0.17-1.151,0.105c-0.909,0.779-2.039,1.432-3.267,1.889
		c-0.392,0.146-0.651,0.519-0.651,0.937V58h-5.565v-2.182c0-0.418-0.26-0.792-0.651-0.937c-1.247-0.464-2.418-1.135-3.299-1.889
		c-0.321-0.275-0.783-0.319-1.148-0.108l-1.906,1.093l-2.783-4.822l1.885-1.09c0.365-0.211,0.559-0.629,0.483-1.044
		c-0.121-0.664-0.18-1.283-0.18-1.891c0-0.601,0.06-1.22,0.182-1.891c0.075-0.415-0.118-0.833-0.483-1.044l-1.883-1.089l2.787-4.821
		l1.896,1.091c0.369,0.21,0.828,0.168,1.149-0.107c0.883-0.756,2.054-1.427,3.299-1.889c0.392-0.146,0.651-0.52,0.651-0.938V32
		h5.565v2.442c0,0.418,0.26,0.792,0.651,0.938C49.788,35.835,50.918,36.488,51.829,37.269z"/>
	<path fill="#010101" d="M39.094,45.13c0,3.309,2.691,6,6,6c3.308,0,6-2.691,6-6s-2.692-6-6-6
		C41.785,39.13,39.094,41.822,39.094,45.13z M49.094,45.13c0,2.206-1.794,4-4,4c-2.206,0-4-1.794-4-4c0-2.206,1.794-4,4-4
		C47.3,41.13,49.094,42.925,49.094,45.13z"/>
</g>
</svg>
