<?xml version="1.0" encoding="utf-8"?>
<!-- Generator: Adobe Illustrator 17.0.0, SVG Export Plug-In . SVG Version: 6.00 Build 0)  -->
<!DOCTYPE svg PUBLIC "-//W3C//DTD SVG 1.1//EN" "http://www.w3.org/Graphics/SVG/1.1/DTD/svg11.dtd">
<svg version="1.1" id="Layer_1" xmlns="http://www.w3.org/2000/svg" xmlns:xlink="http://www.w3.org/1999/xlink" x="0px" y="0px"
	 width="60px" height="60px" viewBox="0 0 60 60" enable-background="new 0 0 60 60" xml:space="preserve">
<g>
	<path fill="#010101" d="M3,54h22.369c0.552,0,1-0.448,1-1c0-0.552-0.448-1-1-1H4V2h26v11c0,0.552,0.448,1,1,1h11v4
		c0,0.552,0.448,1,1,1s1-0.448,1-1v-4.894c0.004-0.037,0.021-0.069,0.021-0.106c0-0.305-0.144-0.569-0.36-0.752L31.708,0.294
		c-0.092-0.092-0.201-0.165-0.323-0.216C31.264,0.027,31.133,0,31,0H3C2.448,0,2,0.448,2,1v52C2,53.552,2.448,54,3,54z M32,3.414
		L40.586,12H32V3.414z"/>
	<path fill="#010101" d="M36,35c0,2.757,2.243,5,5,5c2.757,0,5-2.243,5-5c0-2.757-2.243-5-5-5C38.243,30,36,32.243,36,35z M41,32
		c1.654,0,3,1.346,3,3s-1.346,3-3,3s-3-1.346-3-3S39.346,32,41,32z"/>
	<path fill="#010101" d="M35.196,25.861c-2.199-0.057-4.292,1.106-5.39,3.008c-1.123,1.946-1.071,4.295,0.088,6.174
		c-1.158,1.88-1.21,4.229-0.088,6.173c0.533,0.924,1.296,1.672,2.193,2.194V59c0,0.379,0.214,0.725,0.553,0.895
		c0.339,0.169,0.743,0.132,1.047-0.095l7.4-5.55l7.4,5.55c0.177,0.132,0.388,0.2,0.6,0.2c0.152,0,0.306-0.035,0.447-0.105
		C49.786,59.725,50,59.379,50,59V42.668c0.464-0.416,0.874-0.898,1.194-1.451c1.124-1.946,1.071-4.295-0.089-6.174
		c1.16-1.879,1.212-4.228,0.089-6.173c-1.099-1.902-3.166-3.064-5.391-3.009c-1.047-1.945-3.055-3.165-5.303-3.165
		C38.25,22.696,36.242,23.916,35.196,25.861z M48,57l-6.4-4.8c-0.356-0.267-0.845-0.267-1.2,0L34,57V44.129
		c0.391,0.068,0.79,0.11,1.198,0.098c1.047,1.944,3.055,3.164,5.302,3.164s4.256-1.22,5.304-3.165
		c0.053,0.001,0.106,0.002,0.159,0.002c0.706,0,1.391-0.135,2.037-0.367V57z M44.259,27.279c0.17,0.437,0.615,0.695,1.084,0.626
		c1.651-0.248,3.301,0.547,4.119,1.964c0.837,1.449,0.696,3.233-0.359,4.547c-0.293,0.366-0.293,0.886,0,1.252
		c1.055,1.314,1.196,3.099,0.359,4.548c-0.819,1.417-2.476,2.212-4.118,1.963c-0.465-0.07-0.914,0.189-1.084,0.625
		c-0.611,1.57-2.087,2.585-3.76,2.585c-1.673,0-3.148-1.014-3.758-2.583c-0.151-0.389-0.525-0.638-0.932-0.638
		c-0.05,0-0.101,0.004-0.152,0.012c-1.648,0.252-3.3-0.546-4.119-1.965c-0.836-1.448-0.696-3.234,0.357-4.549
		c0.293-0.365,0.293-0.885,0-1.25c-1.053-1.314-1.193-3.099-0.357-4.549c0.817-1.417,2.473-2.214,4.118-1.963
		c0.467,0.068,0.914-0.189,1.084-0.626c0.609-1.57,2.085-2.584,3.759-2.584C42.173,24.696,43.649,25.71,44.259,27.279z"/>
</g>
</svg>
