<?xml version="1.0" encoding="utf-8"?>
<!-- Generator: Adobe Illustrator 17.0.0, SVG Export Plug-In . SVG Version: 6.00 Build 0)  -->
<!DOCTYPE svg PUBLIC "-//W3C//DTD SVG 1.1//EN" "http://www.w3.org/Graphics/SVG/1.1/DTD/svg11.dtd">
<svg version="1.1" id="Layer_1" xmlns="http://www.w3.org/2000/svg" xmlns:xlink="http://www.w3.org/1999/xlink" x="0px" y="0px"
	 width="60px" height="60px" viewBox="0 0 60 60" enable-background="new 0 0 60 60" xml:space="preserve">
<g>
	<path fill="#010101" d="M1,54h25.217v-2H2V2h26v11c0,0.552,0.448,1,1,1h11v9.696h2V13c0-0.133-0.027-0.264-0.078-0.385
		c-0.051-0.121-0.124-0.231-0.216-0.323L29.708,0.294c-0.092-0.092-0.201-0.165-0.323-0.216C29.264,0.027,29.133,0,29,0H1
		C0.448,0,0,0.448,0,1v52C0,53.552,0.448,54,1,54z M30,3.414L38.586,12H30V3.414z"/>
	<path fill="#010101" d="M51.469,50.055C53.635,48.044,55,45.183,55,42.001C55,35.935,50.066,31,44.002,31
		C37.935,31,33,35.935,33,42.001c0,6.066,4.935,11.001,11.002,11.001c2.16,0,4.17-0.635,5.871-1.715l8.42,8.42
		C58.488,59.902,58.744,60,59,60s0.512-0.098,0.707-0.293c0.391-0.391,0.391-1.023,0-1.414L51.469,50.055z M35,42.001
		C35,37.038,39.038,33,44.002,33C48.963,33,53,37.038,53,42.001c0,4.963-4.037,9.001-8.998,9.001C39.038,51.002,35,46.964,35,42.001
		z"/>
</g>
</svg>
