<?xml version="1.0" encoding="utf-8"?>
<!-- Generator: Adobe Illustrator 17.0.0, SVG Export Plug-In . SVG Version: 6.00 Build 0)  -->
<!DOCTYPE svg PUBLIC "-//W3C//DTD SVG 1.1//EN" "http://www.w3.org/Graphics/SVG/1.1/DTD/svg11.dtd">
<svg version="1.1" id="Layer_1" xmlns="http://www.w3.org/2000/svg" xmlns:xlink="http://www.w3.org/1999/xlink" x="0px" y="0px"
	 width="60px" height="60px" viewBox="0 0 60 60" enable-background="new 0 0 60 60" xml:space="preserve">
<g>
	<path fill="#010101" d="M1,54h25.218v-2H2V2h26v11c0,0.552,0.447,1,1,1h11v9.696h2V13c0-0.133-0.027-0.264-0.078-0.385
		c-0.051-0.122-0.124-0.231-0.216-0.323L29.708,0.294c-0.092-0.092-0.201-0.166-0.323-0.216C29.264,0.027,29.134,0,29,0H1
		C0.447,0,0,0.448,0,1v52C0,53.552,0.447,54,1,54z M30,3.414L38.586,12H30V3.414z"/>
	<path fill="#010101" d="M45,30c-8.272,0-15,6.729-15,15s6.728,15,15,15c8.271,0,15-6.729,15-15S53.271,30,45,30z M45,32
		c3.225,0,6.173,1.187,8.447,3.139L35.139,53.447C33.187,51.173,32,48.225,32,45C32,37.832,37.832,32,45,32z M45,58
		c-3.225,0-6.173-1.187-8.447-3.139l18.309-18.309C56.813,38.827,58,41.775,58,45C58,52.169,52.168,58,45,58z"/>
</g>
</svg>
