<?xml version="1.0" encoding="utf-8"?>
<!-- Generator: Adobe Illustrator 17.0.0, SVG Export Plug-In . SVG Version: 6.00 Build 0)  -->
<!DOCTYPE svg PUBLIC "-//W3C//DTD SVG 1.1//EN" "http://www.w3.org/Graphics/SVG/1.1/DTD/svg11.dtd">
<svg version="1.1" id="Layer_1" xmlns="http://www.w3.org/2000/svg" xmlns:xlink="http://www.w3.org/1999/xlink" x="0px" y="0px"
	 width="60px" height="60px" viewBox="0 0 60 60" enable-background="new 0 0 60 60" xml:space="preserve">
<g>
	<path fill="#010101" d="M7,60h44c0.552,0,1-0.448,1-1V17c0-0.134-0.027-0.265-0.078-0.386c-0.051-0.122-0.125-0.231-0.217-0.322
		c0,0-0.001-0.001-0.001-0.002L35.927,0.641C35.783,0.267,35.425,0,35,0c-0.023,0-0.042,0.012-0.065,0.013
		C34.913,0.012,34.892,0,34.87,0H7C6.448,0,6,0.448,6,1v58C6,59.552,6.448,60,7,60z M36,3.53L48.572,16H36V3.53z M8,2h26v15
		c0,0.552,0.448,1,1,1h15v40H8V2z"/>
	<path fill="#010101" d="M40.913,24H30.826c-0.552,0-1,0.448-1,1c0,0.552,0.448,1,1,1h10.087c0.552,0,1-0.448,1-1
		C41.913,24.448,41.465,24,40.913,24z"/>
	<path fill="#010101" d="M40.913,34H30.826c-0.552,0-1,0.448-1,1c0,0.552,0.448,1,1,1h10.087c0.552,0,1-0.448,1-1
		C41.913,34.448,41.465,34,40.913,34z"/>
	<path fill="#010101" d="M40.913,46H30.826c-0.552,0-1,0.448-1,1c0,0.552,0.448,1,1,1h10.087c0.552,0,1-0.448,1-1
		C41.913,46.448,41.465,46,40.913,46z"/>
	<path fill="#010101" d="M25.076,19.206l-5.597,5.597l-3.076-3.076c-0.391-0.391-1.023-0.391-1.414,0
		c-0.391,0.391-0.391,1.023,0,1.414l3.783,3.783c0.195,0.195,0.451,0.293,0.707,0.293c0.256,0,0.512-0.098,0.707-0.293l6.304-6.304
		c0.391-0.391,0.391-1.023,0-1.414C26.099,18.815,25.466,18.815,25.076,19.206z"/>
	<path fill="#010101" d="M25.076,30.554l-5.597,5.598l-3.076-3.076c-0.391-0.391-1.023-0.391-1.414,0
		c-0.391,0.391-0.391,1.023,0,1.414l3.783,3.783c0.188,0.188,0.442,0.293,0.707,0.293c0.265,0,0.519-0.105,0.707-0.293l6.304-6.305
		c0.391-0.391,0.391-1.023,0-1.414C26.099,30.163,25.466,30.163,25.076,30.554z"/>
	<path fill="#010101" d="M25.076,41.902l-5.597,5.597l-3.076-3.076c-0.391-0.391-1.023-0.391-1.414,0
		c-0.391,0.391-0.391,1.023,0,1.414l3.783,3.783c0.195,0.195,0.451,0.293,0.707,0.293c0.256,0,0.512-0.098,0.707-0.293l6.304-6.304
		c0.391-0.391,0.391-1.023,0-1.414C26.099,41.511,25.466,41.511,25.076,41.902z"/>
</g>
</svg>
