<?xml version="1.0" encoding="utf-8"?>
<!-- Generator: Adobe Illustrator 17.0.0, SVG Export Plug-In . SVG Version: 6.00 Build 0)  -->
<!DOCTYPE svg PUBLIC "-//W3C//DTD SVG 1.1//EN" "http://www.w3.org/Graphics/SVG/1.1/DTD/svg11.dtd">
<svg version="1.1" id="Layer_1" xmlns="http://www.w3.org/2000/svg" xmlns:xlink="http://www.w3.org/1999/xlink" x="0px" y="0px"
	 width="60px" height="60px" viewBox="0 0 60 60" enable-background="new 0 0 60 60" xml:space="preserve">
<g>
	<path fill="#231F20" d="M53.454,16.122L37.709,0.295c0,0,0,0-0.001,0c-0.091-0.092-0.201-0.166-0.322-0.217
		C37.265,0.027,37.134,0,37,0H9C8.447,0,8,0.448,8,1v58c0,0.552,0.447,1,1,1h44c0.553,0,1-0.448,1-1V17.083
		c0-0.015-0.008-0.028-0.008-0.042C53.992,17.027,54,17.015,54,17C54,16.614,53.775,16.289,53.454,16.122z M38,3.423L50.512,16H38
		V3.423z M10,58V2h26v15c0,0.552,0.447,1,1,1h15v40H10z"/>
	<path fill="#231F20" d="M45.435,48H18v-6.556l9.875-8.92l6.918,4.612c0.404,0.27,0.95,0.209,1.284-0.148l9.652-10.304
		c0.378-0.403,0.357-1.036-0.046-1.414c-0.402-0.378-1.037-0.357-1.413,0.046l-9.073,9.686l-6.86-4.573
		c-0.381-0.254-0.886-0.216-1.225,0.09L18,38.749V19.913c0-0.552-0.447-1-1-1c-0.553,0-1,0.448-1,1V49c0,0.552,0.447,1,1,1h28.435
		c0.553,0,1-0.448,1-1S45.987,48,45.435,48z"/>
</g>
</svg>
