<?xml version="1.0" encoding="utf-8"?>
<!-- Generator: Adobe Illustrator 17.0.0, SVG Export Plug-In . SVG Version: 6.00 Build 0)  -->
<!DOCTYPE svg PUBLIC "-//W3C//DTD SVG 1.1//EN" "http://www.w3.org/Graphics/SVG/1.1/DTD/svg11.dtd">
<svg version="1.1" id="Layer_1" xmlns="http://www.w3.org/2000/svg" xmlns:xlink="http://www.w3.org/1999/xlink" x="0px" y="0px"
	 width="60px" height="60px" viewBox="0 0 60 60" enable-background="new 0 0 60 60" xml:space="preserve">
<g>
	<path fill="#010101" d="M1,54h25.217v-2H2V2h26v11c0,0.552,0.448,1,1,1h11v9.696h2V13c0-0.133-0.027-0.264-0.078-0.385
		c-0.051-0.121-0.124-0.231-0.216-0.323L29.708,0.294c-0.092-0.092-0.201-0.165-0.323-0.216C29.264,0.027,29.133,0,29,0H1
		C0.448,0,0,0.448,0,1v52C0,53.552,0.448,54,1,54z M30,3.414L38.586,12H30V3.414z"/>
	<path fill="#010101" d="M34.401,59.8c0.346,0.259,0.818,0.267,1.172,0.019L45,53.221l9.427,6.599C54.599,59.94,54.799,60,55,60
		c0.208,0,0.415-0.065,0.591-0.193c0.346-0.253,0.492-0.698,0.363-1.106l-3.371-10.725l7.077-6.224
		c0.312-0.275,0.422-0.714,0.275-1.104C59.789,40.258,59.416,40,59,40h-8.382l-4.724-9.447c-0.339-0.678-1.45-0.678-1.789,0
		L39.382,40H31c-0.419,0-0.794,0.261-0.938,0.655c-0.145,0.393-0.029,0.835,0.291,1.107l7.31,6.215l-3.61,10.704
		C33.915,59.09,34.055,59.542,34.401,59.8z M39.774,47.973c0.13-0.388,0.012-0.816-0.3-1.081L33.72,42H40
		c0.379,0,0.725-0.214,0.894-0.553L45,33.236l4.106,8.211C49.275,41.786,49.621,42,50,42h6.349l-5.575,4.903
		c-0.297,0.261-0.412,0.673-0.293,1.051l2.684,8.541l-7.591-5.314C45.401,51.06,45.201,51,45,51s-0.401,0.06-0.573,0.181
		l-7.506,5.254L39.774,47.973z"/>
</g>
</svg>
