<?xml version="1.0" encoding="utf-8"?>
<!-- Generator: Adobe Illustrator 17.0.0, SVG Export Plug-In . SVG Version: 6.00 Build 0)  -->
<!DOCTYPE svg PUBLIC "-//W3C//DTD SVG 1.1//EN" "http://www.w3.org/Graphics/SVG/1.1/DTD/svg11.dtd">
<svg version="1.1" id="Layer_1" xmlns="http://www.w3.org/2000/svg" xmlns:xlink="http://www.w3.org/1999/xlink" x="0px" y="0px"
	 width="60px" height="60px" viewBox="0 0 60 60" enable-background="new 0 0 60 60" xml:space="preserve">
<g>
	<path fill="#231F20" d="M51.705,14.291c0,0-0.001-0.001-0.001-0.002L37.927,0.641C37.782,0.267,37.425,0,37,0
		c-0.023,0-0.042,0.011-0.065,0.013C36.913,0.011,36.892,0,36.87,0H17c-0.552,0-1,0.448-1,1v7H9C8.448,8,8,8.448,8,9v50
		c0,0.552,0.448,1,1,1h36c0.552,0,1-0.448,1-1v-7h5c0.552,0,1-0.448,1-1V15c0-0.134-0.027-0.265-0.078-0.386
		C51.871,14.492,51.797,14.383,51.705,14.291z M38,3.528L48.57,14H38V3.528z M44,58H10V10h6v41c0,0.552,0.448,1,1,1h27V58z M18,50V2
		h18v13c0,0.552,0.448,1,1,1h13v34H18z"/>
</g>
</svg>
