<?xml version="1.0" encoding="utf-8"?>
<!-- Generator: Adobe Illustrator 17.0.0, SVG Export Plug-In . SVG Version: 6.00 Build 0)  -->
<!DOCTYPE svg PUBLIC "-//W3C//DTD SVG 1.1//EN" "http://www.w3.org/Graphics/SVG/1.1/DTD/svg11.dtd">
<svg version="1.1" id="Layer_1" xmlns="http://www.w3.org/2000/svg" xmlns:xlink="http://www.w3.org/1999/xlink" x="0px" y="0px"
	 width="60px" height="60px" viewBox="0 0 60 60" enable-background="new 0 0 60 60" xml:space="preserve">
<g>
	<path fill="#010101" d="M1,54h25.217v-2H2V2h26v11c0,0.552,0.448,1,1,1h11v9.696h2V13c0-0.133-0.027-0.264-0.078-0.385
		c-0.051-0.121-0.124-0.231-0.216-0.323L29.708,0.294c-0.092-0.092-0.201-0.165-0.323-0.216C29.264,0.027,29.133,0,29,0H1
		C0.448,0,0,0.448,0,1v52C0,53.552,0.448,54,1,54z M30,3.414L38.586,12H30V3.414z"/>
	<path fill="#010101" d="M45,30c-8.271,0-15,6.729-15,15s6.729,15,15,15s15-6.729,15-15S53.271,30,45,30z M45,58
		c-7.169,0-13-5.831-13-13c0-7.168,5.831-13,13-13s13,5.832,13,13C58,52.169,52.169,58,45,58z"/>
	<path fill="#010101" d="M52,44h-6v-6c0-0.552-0.448-1-1-1s-1,0.448-1,1v6h-6c-0.552,0-1,0.448-1,1c0,0.552,0.448,1,1,1h6v6
		c0,0.552,0.448,1,1,1s1-0.448,1-1v-6h6c0.552,0,1-0.448,1-1C53,44.448,52.552,44,52,44z"/>
</g>
</svg>
