<?xml version="1.0" encoding="utf-8"?>
<!-- Generator: Adobe Illustrator 17.0.0, SVG Export Plug-In . SVG Version: 6.00 Build 0)  -->
<!DOCTYPE svg PUBLIC "-//W3C//DTD SVG 1.1//EN" "http://www.w3.org/Graphics/SVG/1.1/DTD/svg11.dtd">
<svg version="1.1" id="Layer_1" xmlns="http://www.w3.org/2000/svg" xmlns:xlink="http://www.w3.org/1999/xlink" x="0px" y="0px"
	 width="60px" height="60px" viewBox="0 0 60 60" enable-background="new 0 0 60 60" xml:space="preserve">
<g>
	<path fill="#231F20" d="M7,60h44c0.553,0,1-0.448,1-1V17c0-0.134-0.027-0.265-0.078-0.386c-0.051-0.122-0.125-0.231-0.217-0.322
		c0,0-0.001-0.001-0.001-0.001L35.928,0.642C35.783,0.268,35.425,0,35,0c-0.023,0-0.042,0.012-0.065,0.013
		C34.913,0.012,34.892,0,34.869,0H7C6.447,0,6,0.448,6,1v58C6,59.552,6.447,60,7,60z M36,3.53L48.572,16H36V3.53z M8,2h26v15
		c0,0.552,0.447,1,1,1h15v40H8V2z"/>
	<path fill="#231F20" d="M41.448,32.938L21.535,20.329c-0.309-0.196-0.698-0.208-1.018-0.031C20.198,20.474,20,20.809,20,21.174
		v25.217c0,0.365,0.198,0.7,0.518,0.876c0.15,0.083,0.316,0.124,0.482,0.124c0.186,0,0.372-0.052,0.535-0.155l19.913-12.608
		c0.289-0.183,0.465-0.502,0.465-0.845C41.913,33.44,41.737,33.121,41.448,32.938z M22,44.574V22.991l17.044,10.792L22,44.574z"/>
</g>
</svg>
