<?xml version="1.0" encoding="utf-8"?>
<!-- Generator: Adobe Illustrator 17.0.0, SVG Export Plug-In . SVG Version: 6.00 Build 0)  -->
<!DOCTYPE svg PUBLIC "-//W3C//DTD SVG 1.1//EN" "http://www.w3.org/Graphics/SVG/1.1/DTD/svg11.dtd">
<svg version="1.1" id="Layer_1" xmlns="http://www.w3.org/2000/svg" xmlns:xlink="http://www.w3.org/1999/xlink" x="0px" y="0px"
	 width="60px" height="60px" viewBox="0 0 60 60" enable-background="new 0 0 60 60" xml:space="preserve">
<g>
	<path fill="#231F20" d="M51.706,14.292L37.708,0.294c-0.092-0.092-0.201-0.165-0.323-0.216C37.264,0.027,37.133,0,37,0H9
		C8.448,0,8,0.448,8,1v58c0,0.552,0.448,1,1,1h42c0.552,0,1-0.448,1-1V15c0-0.133-0.027-0.264-0.078-0.385
		C51.871,14.494,51.798,14.384,51.706,14.292z M38,3.414L48.586,14H38V3.414z M10,58V2h26v13c0,0.552,0.448,1,1,1h13v42H10z"/>
</g>
</svg>
