<?xml version="1.0" encoding="utf-8"?>
<!-- Generator: Adobe Illustrator 17.0.0, SVG Export Plug-In . SVG Version: 6.00 Build 0)  -->
<!DOCTYPE svg PUBLIC "-//W3C//DTD SVG 1.1//EN" "http://www.w3.org/Graphics/SVG/1.1/DTD/svg11.dtd">
<svg version="1.1" id="Layer_1" xmlns="http://www.w3.org/2000/svg" xmlns:xlink="http://www.w3.org/1999/xlink" x="0px" y="0px"
	 width="60px" height="60px" viewBox="0 0 60 60" enable-background="new 0 0 60 60" xml:space="preserve">
<g>
	<path fill="#231F20" d="M7.304,1c-0.7,0-1.261,0.564-1.261,1.261s0.561,1.261,1.261,1.261c0.694,0,1.261-0.564,1.261-1.261
		S7.998,1,7.304,1z M7.304,2.522c-0.146,0-0.261-0.115-0.261-0.261C7.043,2.115,7.158,2,7.304,2c0.144,0,0.261,0.117,0.261,0.261
		C7.565,2.405,7.448,2.522,7.304,2.522z"/>
	<path fill="#231F20" d="M12.348,1c-0.7,0-1.261,0.564-1.261,1.261s0.561,1.261,1.261,1.261c0.694,0,1.261-0.564,1.261-1.261
		S13.042,1,12.348,1z M12.348,2.522c-0.146,0-0.261-0.115-0.261-0.261C12.087,2.115,12.201,2,12.348,2
		c0.144,0,0.261,0.117,0.261,0.261C12.609,2.405,12.492,2.522,12.348,2.522z"/>
	<path fill="#231F20" d="M17.391,1c-0.7,0-1.261,0.564-1.261,1.261s0.561,1.261,1.261,1.261c0.694,0,1.261-0.564,1.261-1.261
		S18.085,1,17.391,1z M17.391,2.522c-0.146,0-0.261-0.115-0.261-0.261C17.13,2.115,17.245,2,17.391,2
		c0.144,0,0.261,0.117,0.261,0.261C17.652,2.405,17.535,2.522,17.391,2.522z"/>
	<path fill="#231F20" d="M22.435,1c-0.7,0-1.261,0.564-1.261,1.261s0.561,1.261,1.261,1.261c0.694,0,1.261-0.564,1.261-1.261
		S23.129,1,22.435,1z M22.435,2.522c-0.146,0-0.261-0.115-0.261-0.261C22.174,2.115,22.288,2,22.435,2
		c0.144,0,0.261,0.117,0.261,0.261C22.696,2.405,22.579,2.522,22.435,2.522z"/>
	<path fill="#231F20" d="M27.478,1c-0.7,0-1.261,0.564-1.261,1.261s0.561,1.261,1.261,1.261c0.694,0,1.261-0.564,1.261-1.261
		S28.172,1,27.478,1z M27.478,2.522c-0.146,0-0.261-0.115-0.261-0.261C27.217,2.115,27.332,2,27.478,2
		c0.144,0,0.261,0.117,0.261,0.261C27.739,2.405,27.622,2.522,27.478,2.522z"/>
	<path fill="#231F20" d="M32.522,1c-0.7,0-1.261,0.564-1.261,1.261s0.561,1.261,1.261,1.261c0.694,0,1.261-0.564,1.261-1.261
		S33.216,1,32.522,1z M32.522,2.522c-0.146,0-0.261-0.115-0.261-0.261C32.261,2.115,32.375,2,32.522,2
		c0.144,0,0.261,0.117,0.261,0.261C32.783,2.405,32.666,2.522,32.522,2.522z"/>
	<path fill="#231F20" d="M37.565,1c-0.7,0-1.261,0.564-1.261,1.261s0.561,1.261,1.261,1.261c0.694,0,1.261-0.564,1.261-1.261
		S38.259,1,37.565,1z M37.565,2.522c-0.146,0-0.261-0.115-0.261-0.261C37.304,2.115,37.419,2,37.565,2
		c0.144,0,0.261,0.117,0.261,0.261C37.826,2.405,37.709,2.522,37.565,2.522z"/>
	<path fill="#231F20" d="M37.565,6.044c-0.7,0-1.261,0.564-1.261,1.261c0,0.697,0.561,1.261,1.261,1.261
		c0.694,0,1.261-0.564,1.261-1.261C38.826,6.607,38.259,6.044,37.565,6.044z M37.565,7.565c-0.146,0-0.261-0.115-0.261-0.261
		c0-0.146,0.115-0.261,0.261-0.261c0.144,0,0.261,0.117,0.261,0.261C37.826,7.448,37.709,7.565,37.565,7.565z"/>
	<path fill="#231F20" d="M37.565,11.087c-0.7,0-1.261,0.564-1.261,1.261s0.561,1.261,1.261,1.261c0.694,0,1.261-0.564,1.261-1.261
		S38.259,11.087,37.565,11.087z M37.565,12.609c-0.146,0-0.261-0.115-0.261-0.261c0-0.146,0.115-0.261,0.261-0.261
		c0.144,0,0.261,0.117,0.261,0.261C37.826,12.492,37.709,12.609,37.565,12.609z"/>
	<path fill="#231F20" d="M43.87,6.044c-0.7,0-1.261,0.564-1.261,1.261c0,0.697,0.561,1.261,1.261,1.261
		c0.694,0,1.261-0.564,1.261-1.261C45.13,6.607,44.563,6.044,43.87,6.044z M43.87,7.565c-0.146,0-0.261-0.115-0.261-0.261
		c0-0.146,0.115-0.261,0.261-0.261c0.144,0,0.261,0.117,0.261,0.261C44.13,7.448,44.013,7.565,43.87,7.565z"/>
	<path fill="#231F20" d="M37.565,16.13c-0.7,0-1.261,0.564-1.261,1.261s0.561,1.261,1.261,1.261c0.694,0,1.261-0.564,1.261-1.261
		S38.259,16.13,37.565,16.13z M37.565,17.652c-0.146,0-0.261-0.115-0.261-0.261s0.115-0.261,0.261-0.261
		c0.144,0,0.261,0.117,0.261,0.261S37.709,17.652,37.565,17.652z"/>
	<path fill="#231F20" d="M47.652,9.826c-0.7,0-1.261,0.564-1.261,1.261c0,0.697,0.561,1.261,1.261,1.261
		c0.694,0,1.261-0.564,1.261-1.261C48.913,10.39,48.346,9.826,47.652,9.826z M47.652,11.348c-0.146,0-0.261-0.115-0.261-0.261
		c0-0.146,0.115-0.261,0.261-0.261c0.144,0,0.261,0.117,0.261,0.261C47.913,11.231,47.796,11.348,47.652,11.348z"/>
	<path fill="#231F20" d="M12.348,56.478c-0.7,0-1.261,0.564-1.261,1.261S11.648,59,12.348,59c0.694,0,1.261-0.564,1.261-1.261
		S13.042,56.478,12.348,56.478z M12.348,58c-0.146,0-0.261-0.115-0.261-0.261c0-0.146,0.115-0.261,0.261-0.261
		c0.144,0,0.261,0.117,0.261,0.261C12.609,57.883,12.492,58,12.348,58z"/>
	<path fill="#231F20" d="M17.391,56.478c-0.7,0-1.261,0.564-1.261,1.261S16.691,59,17.391,59c0.694,0,1.261-0.564,1.261-1.261
		S18.085,56.478,17.391,56.478z M17.391,58c-0.146,0-0.261-0.115-0.261-0.261c0-0.146,0.115-0.261,0.261-0.261
		c0.144,0,0.261,0.117,0.261,0.261C17.652,57.883,17.535,58,17.391,58z"/>
	<path fill="#231F20" d="M22.435,56.478c-0.7,0-1.261,0.564-1.261,1.261S21.735,59,22.435,59c0.694,0,1.261-0.564,1.261-1.261
		S23.129,56.478,22.435,56.478z M22.435,58c-0.146,0-0.261-0.115-0.261-0.261c0-0.146,0.115-0.261,0.261-0.261
		c0.144,0,0.261,0.117,0.261,0.261C22.696,57.883,22.579,58,22.435,58z"/>
	<path fill="#231F20" d="M27.478,56.478c-0.7,0-1.261,0.564-1.261,1.261S26.778,59,27.478,59c0.694,0,1.261-0.564,1.261-1.261
		S28.172,56.478,27.478,56.478z M27.478,58c-0.146,0-0.261-0.115-0.261-0.261c0-0.146,0.115-0.261,0.261-0.261
		c0.144,0,0.261,0.117,0.261,0.261C27.739,57.883,27.622,58,27.478,58z"/>
	<path fill="#231F20" d="M32.522,56.478c-0.7,0-1.261,0.564-1.261,1.261S31.822,59,32.522,59c0.694,0,1.261-0.564,1.261-1.261
		S33.216,56.478,32.522,56.478z M32.522,58c-0.146,0-0.261-0.115-0.261-0.261c0-0.146,0.115-0.261,0.261-0.261
		c0.144,0,0.261,0.117,0.261,0.261C32.783,57.883,32.666,58,32.522,58z"/>
	<path fill="#231F20" d="M37.565,56.478c-0.7,0-1.261,0.564-1.261,1.261S36.865,59,37.565,59c0.694,0,1.261-0.564,1.261-1.261
		S38.259,56.478,37.565,56.478z M37.565,58c-0.146,0-0.261-0.115-0.261-0.261c0-0.146,0.115-0.261,0.261-0.261
		c0.144,0,0.261,0.117,0.261,0.261C37.826,57.883,37.709,58,37.565,58z"/>
	<path fill="#231F20" d="M42.609,56.478c-0.7,0-1.261,0.564-1.261,1.261S41.909,59,42.609,59c0.694,0,1.261-0.564,1.261-1.261
		S43.302,56.478,42.609,56.478z M42.609,58c-0.146,0-0.261-0.115-0.261-0.261c0-0.146,0.115-0.261,0.261-0.261
		c0.144,0,0.261,0.117,0.261,0.261C42.87,57.883,42.753,58,42.609,58z"/>
	<path fill="#231F20" d="M47.652,56.478c-0.7,0-1.261,0.564-1.261,1.261S46.952,59,47.652,59c0.694,0,1.261-0.564,1.261-1.261
		S48.346,56.478,47.652,56.478z M47.652,58c-0.146,0-0.261-0.115-0.261-0.261c0-0.146,0.115-0.261,0.261-0.261
		c0.144,0,0.261,0.117,0.261,0.261C47.913,57.883,47.796,58,47.652,58z"/>
	<path fill="#231F20" d="M7.304,6.044c-0.7,0-1.261,0.564-1.261,1.261c0,0.697,0.561,1.261,1.261,1.261
		c0.694,0,1.261-0.564,1.261-1.261C8.565,6.607,7.998,6.044,7.304,6.044z M7.304,7.565c-0.146,0-0.261-0.115-0.261-0.261
		c0-0.146,0.115-0.261,0.261-0.261c0.144,0,0.261,0.117,0.261,0.261C7.565,7.448,7.448,7.565,7.304,7.565z"/>
	<path fill="#231F20" d="M7.304,11.087c-0.7,0-1.261,0.564-1.261,1.261s0.561,1.261,1.261,1.261c0.694,0,1.261-0.564,1.261-1.261
		S7.998,11.087,7.304,11.087z M7.304,12.609c-0.146,0-0.261-0.115-0.261-0.261c0-0.146,0.115-0.261,0.261-0.261
		c0.144,0,0.261,0.117,0.261,0.261C7.565,12.492,7.448,12.609,7.304,12.609z"/>
	<path fill="#231F20" d="M7.304,16.13c-0.7,0-1.261,0.564-1.261,1.261s0.561,1.261,1.261,1.261c0.694,0,1.261-0.564,1.261-1.261
		S7.998,16.13,7.304,16.13z M7.304,17.652c-0.146,0-0.261-0.115-0.261-0.261s0.115-0.261,0.261-0.261
		c0.144,0,0.261,0.117,0.261,0.261S7.448,17.652,7.304,17.652z"/>
	<path fill="#231F20" d="M52.696,16.13c-0.7,0-1.261,0.564-1.261,1.261s0.561,1.261,1.261,1.261c0.694,0,1.261-0.564,1.261-1.261
		S53.389,16.13,52.696,16.13z M52.696,17.652c-0.146,0-0.261-0.115-0.261-0.261s0.115-0.261,0.261-0.261
		c0.144,0,0.261,0.117,0.261,0.261S52.839,17.652,52.696,17.652z"/>
	<path fill="#231F20" d="M47.652,16.13c-0.7,0-1.261,0.564-1.261,1.261s0.561,1.261,1.261,1.261c0.694,0,1.261-0.564,1.261-1.261
		S48.346,16.13,47.652,16.13z M47.652,17.652c-0.146,0-0.261-0.115-0.261-0.261s0.115-0.261,0.261-0.261
		c0.144,0,0.261,0.117,0.261,0.261S47.796,17.652,47.652,17.652z"/>
	<path fill="#231F20" d="M42.609,16.13c-0.7,0-1.261,0.564-1.261,1.261s0.561,1.261,1.261,1.261c0.694,0,1.261-0.564,1.261-1.261
		S43.302,16.13,42.609,16.13z M42.609,17.652c-0.146,0-0.261-0.115-0.261-0.261s0.115-0.261,0.261-0.261
		c0.144,0,0.261,0.117,0.261,0.261S42.753,17.652,42.609,17.652z"/>
	<path fill="#231F20" d="M7.304,21.174c-0.7,0-1.261,0.564-1.261,1.261s0.561,1.261,1.261,1.261c0.694,0,1.261-0.564,1.261-1.261
		S7.998,21.174,7.304,21.174z M7.304,22.696c-0.146,0-0.261-0.115-0.261-0.261s0.115-0.261,0.261-0.261
		c0.144,0,0.261,0.117,0.261,0.261C7.565,22.579,7.448,22.696,7.304,22.696z"/>
	<path fill="#231F20" d="M52.696,21.174c-0.7,0-1.261,0.564-1.261,1.261s0.561,1.261,1.261,1.261c0.694,0,1.261-0.564,1.261-1.261
		S53.389,21.174,52.696,21.174z M52.696,22.696c-0.146,0-0.261-0.115-0.261-0.261s0.115-0.261,0.261-0.261
		c0.144,0,0.261,0.117,0.261,0.261C52.956,22.579,52.839,22.696,52.696,22.696z"/>
	<path fill="#231F20" d="M7.304,26.217c-0.7,0-1.261,0.564-1.261,1.261c0,0.697,0.561,1.261,1.261,1.261
		c0.694,0,1.261-0.564,1.261-1.261C8.565,26.781,7.998,26.217,7.304,26.217z M7.304,27.739c-0.146,0-0.261-0.115-0.261-0.261
		c0-0.146,0.115-0.261,0.261-0.261c0.144,0,0.261,0.117,0.261,0.261C7.565,27.622,7.448,27.739,7.304,27.739z"/>
	<path fill="#231F20" d="M52.696,26.217c-0.7,0-1.261,0.564-1.261,1.261c0,0.697,0.561,1.261,1.261,1.261
		c0.694,0,1.261-0.564,1.261-1.261C53.956,26.781,53.389,26.217,52.696,26.217z M52.696,27.739c-0.146,0-0.261-0.115-0.261-0.261
		c0-0.146,0.115-0.261,0.261-0.261c0.144,0,0.261,0.117,0.261,0.261C52.956,27.622,52.839,27.739,52.696,27.739z"/>
	<path fill="#231F20" d="M7.304,31.261c-0.7,0-1.261,0.564-1.261,1.261c0,0.697,0.561,1.261,1.261,1.261
		c0.694,0,1.261-0.564,1.261-1.261C8.565,31.825,7.998,31.261,7.304,31.261z M7.304,32.783c-0.146,0-0.261-0.115-0.261-0.261
		c0-0.146,0.115-0.261,0.261-0.261c0.144,0,0.261,0.117,0.261,0.261C7.565,32.666,7.448,32.783,7.304,32.783z"/>
	<path fill="#231F20" d="M52.696,31.261c-0.7,0-1.261,0.564-1.261,1.261c0,0.697,0.561,1.261,1.261,1.261
		c0.694,0,1.261-0.564,1.261-1.261C53.956,31.825,53.389,31.261,52.696,31.261z M52.696,32.783c-0.146,0-0.261-0.115-0.261-0.261
		c0-0.146,0.115-0.261,0.261-0.261c0.144,0,0.261,0.117,0.261,0.261C52.956,32.666,52.839,32.783,52.696,32.783z"/>
	<path fill="#231F20" d="M7.304,36.304c-0.7,0-1.261,0.564-1.261,1.261s0.561,1.261,1.261,1.261c0.694,0,1.261-0.564,1.261-1.261
		S7.998,36.304,7.304,36.304z M7.304,37.826c-0.146,0-0.261-0.115-0.261-0.261s0.115-0.261,0.261-0.261
		c0.144,0,0.261,0.117,0.261,0.261C7.565,37.709,7.448,37.826,7.304,37.826z"/>
	<path fill="#231F20" d="M52.696,36.304c-0.7,0-1.261,0.564-1.261,1.261s0.561,1.261,1.261,1.261c0.694,0,1.261-0.564,1.261-1.261
		S53.389,36.304,52.696,36.304z M52.696,37.826c-0.146,0-0.261-0.115-0.261-0.261s0.115-0.261,0.261-0.261
		c0.144,0,0.261,0.117,0.261,0.261C52.956,37.709,52.839,37.826,52.696,37.826z"/>
	<path fill="#231F20" d="M7.304,41.348c-0.7,0-1.261,0.564-1.261,1.261s0.561,1.261,1.261,1.261c0.694,0,1.261-0.564,1.261-1.261
		S7.998,41.348,7.304,41.348z M7.304,42.87c-0.146,0-0.261-0.115-0.261-0.261s0.115-0.261,0.261-0.261
		c0.144,0,0.261,0.117,0.261,0.261S7.448,42.87,7.304,42.87z"/>
	<path fill="#231F20" d="M52.696,41.348c-0.7,0-1.261,0.564-1.261,1.261s0.561,1.261,1.261,1.261c0.694,0,1.261-0.564,1.261-1.261
		S53.389,41.348,52.696,41.348z M52.696,42.87c-0.146,0-0.261-0.115-0.261-0.261s0.115-0.261,0.261-0.261
		c0.144,0,0.261,0.117,0.261,0.261S52.839,42.87,52.696,42.87z"/>
	<path fill="#231F20" d="M7.304,46.391c-0.7,0-1.261,0.564-1.261,1.261s0.561,1.261,1.261,1.261c0.694,0,1.261-0.564,1.261-1.261
		S7.998,46.391,7.304,46.391z M7.304,47.913c-0.146,0-0.261-0.115-0.261-0.261c0-0.146,0.115-0.261,0.261-0.261
		c0.144,0,0.261,0.117,0.261,0.261C7.565,47.796,7.448,47.913,7.304,47.913z"/>
	<path fill="#231F20" d="M52.696,46.391c-0.7,0-1.261,0.564-1.261,1.261s0.561,1.261,1.261,1.261c0.694,0,1.261-0.564,1.261-1.261
		S53.389,46.391,52.696,46.391z M52.696,47.913c-0.146,0-0.261-0.115-0.261-0.261c0-0.146,0.115-0.261,0.261-0.261
		c0.144,0,0.261,0.117,0.261,0.261C52.956,47.796,52.839,47.913,52.696,47.913z"/>
	<path fill="#231F20" d="M7.304,51.435c-0.7,0-1.261,0.564-1.261,1.261c0,0.697,0.561,1.261,1.261,1.261
		c0.694,0,1.261-0.564,1.261-1.261C8.565,51.999,7.998,51.435,7.304,51.435z M7.304,52.956c-0.146,0-0.261-0.115-0.261-0.261
		c0-0.146,0.115-0.261,0.261-0.261c0.144,0,0.261,0.117,0.261,0.261C7.565,52.839,7.448,52.956,7.304,52.956z"/>
	<path fill="#231F20" d="M52.696,51.435c-0.7,0-1.261,0.564-1.261,1.261c0,0.697,0.561,1.261,1.261,1.261
		c0.694,0,1.261-0.564,1.261-1.261C53.956,51.999,53.389,51.435,52.696,51.435z M52.696,52.956c-0.146,0-0.261-0.115-0.261-0.261
		c0-0.146,0.115-0.261,0.261-0.261c0.144,0,0.261,0.117,0.261,0.261C52.956,52.839,52.839,52.956,52.696,52.956z"/>
	<path fill="#231F20" d="M7.304,56.478c-0.7,0-1.261,0.564-1.261,1.261S6.604,59,7.304,59c0.694,0,1.261-0.564,1.261-1.261
		S7.998,56.478,7.304,56.478z M7.304,58c-0.146,0-0.261-0.115-0.261-0.261c0-0.146,0.115-0.261,0.261-0.261
		c0.144,0,0.261,0.117,0.261,0.261C7.565,57.883,7.448,58,7.304,58z"/>
	<path fill="#231F20" d="M52.696,56.478c-0.7,0-1.261,0.564-1.261,1.261S51.996,59,52.696,59c0.694,0,1.261-0.564,1.261-1.261
		S53.389,56.478,52.696,56.478z M52.696,58c-0.146,0-0.261-0.115-0.261-0.261c0-0.146,0.115-0.261,0.261-0.261
		c0.144,0,0.261,0.117,0.261,0.261C52.956,57.883,52.839,58,52.696,58z"/>
</g>
</svg>
