<?xml version="1.0" encoding="utf-8"?>
<!-- Generator: Adobe Illustrator 17.0.0, SVG Export Plug-In . SVG Version: 6.00 Build 0)  -->
<!DOCTYPE svg PUBLIC "-//W3C//DTD SVG 1.1//EN" "http://www.w3.org/Graphics/SVG/1.1/DTD/svg11.dtd">
<svg version="1.1" id="Layer_1" xmlns="http://www.w3.org/2000/svg" xmlns:xlink="http://www.w3.org/1999/xlink" x="0px" y="0px"
	 width="60px" height="60px" viewBox="0 0 60 60" enable-background="new 0 0 60 60" xml:space="preserve">
<g>
	<path fill="#010101" d="M9,58h34c0.553,0,1-0.448,1-1v-5h3c0.553,0,1-0.448,1-1v-4.087c0-0.409-0.247-0.758-0.598-0.913H51
		c0.553,0,1-0.448,1-1V16.652c0-0.222-0.074-0.438-0.21-0.614L41.182,2.386C40.992,2.143,40.7,2,40.392,2H21c-0.553,0-1,0.448-1,1
		v5.087h-5c-0.553,0-1,0.448-1,1V14H9c-0.553,0-1,0.448-1,1v42C8,57.552,8.447,58,9,58z M42,6.7l7.227,9.3H42V6.7z M22,4h17.902
		L40,4.126V17c0,0.552,0.447,1,1,1h9v26H22V4z M20,10.087V45c0,0.552,0.447,1,1,1h25.598C46.247,46.155,46,46.504,46,46.913V50H16
		V15.531c0.101-0.156,0.174-0.331,0.174-0.531S16.101,14.625,16,14.469v-4.383H20z M10,16h4v35c0,0.552,0.447,1,1,1h27v4H10V16z"/>
</g>
</svg>
