<?xml version="1.0" encoding="utf-8"?>
<!-- Generator: Adobe Illustrator 17.0.0, SVG Export Plug-In . SVG Version: 6.00 Build 0)  -->
<!DOCTYPE svg PUBLIC "-//W3C//DTD SVG 1.1//EN" "http://www.w3.org/Graphics/SVG/1.1/DTD/svg11.dtd">
<svg version="1.1" id="Layer_1" xmlns="http://www.w3.org/2000/svg" xmlns:xlink="http://www.w3.org/1999/xlink" x="0px" y="0px"
	 width="60px" height="60px" viewBox="0 0 60 60" enable-background="new 0 0 60 60" xml:space="preserve">
<g>
	<path fill="#010101" d="M0.998,53.998h25.218v-2H1.998v-50h26v11c0,0.552,0.447,1,1,1h11v9.696h2V12.998
		c0-0.133-0.027-0.264-0.078-0.385c-0.051-0.122-0.124-0.231-0.216-0.323L29.706,0.292c-0.092-0.092-0.201-0.165-0.323-0.216
		c-0.121-0.051-0.251-0.078-0.385-0.078h-28c-0.553,0-1,0.448-1,1v52C-0.002,53.55,0.445,53.998,0.998,53.998z M29.998,3.412
		l8.586,8.586h-8.586V3.412z"/>
	<path fill="#010101" d="M60.002,37.564c0-0.265-0.106-0.52-0.293-0.707l-6.305-6.304c-0.391-0.391-1.023-0.391-1.414,0
		L33.074,49.469c-0.085,0.085-0.146,0.187-0.196,0.295c-0.011,0.024-0.022,0.047-0.031,0.072c-0.008,0.022-0.022,0.043-0.028,0.066
		l-2.521,8.826c-0.1,0.35-0.002,0.725,0.255,0.982c0.19,0.19,0.445,0.293,0.707,0.293c0.092,0,0.185-0.013,0.274-0.039l8.826-2.522
		c0.022-0.006,0.042-0.019,0.064-0.027c0.026-0.009,0.05-0.021,0.076-0.032c0.108-0.049,0.209-0.111,0.293-0.195l18.916-18.917
		C59.896,38.083,60.002,37.829,60.002,37.564z M40.086,55.066l-4.891-4.89l12.458-12.459l4.89,4.89L40.086,55.066z M34.276,52.085
		l3.901,3.901l-5.462,1.56L34.276,52.085z M53.958,41.193l-4.89-4.89l3.629-3.63l4.891,4.89L53.958,41.193z"/>
</g>
</svg>
