<?xml version="1.0" encoding="utf-8"?>
<!-- Generator: Adobe Illustrator 17.0.0, SVG Export Plug-In . SVG Version: 6.00 Build 0)  -->
<!DOCTYPE svg PUBLIC "-//W3C//DTD SVG 1.1//EN" "http://www.w3.org/Graphics/SVG/1.1/DTD/svg11.dtd">
<svg version="1.1" id="Layer_1" xmlns="http://www.w3.org/2000/svg" xmlns:xlink="http://www.w3.org/1999/xlink" x="0px" y="0px"
	 width="60px" height="60px" viewBox="0 0 60 60" enable-background="new 0 0 60 60" xml:space="preserve">
<g>
	<path fill="#010101" d="M1,54h25.218v-2H2V2h26v11c0,0.552,0.447,1,1,1h11v9.696h2V13c0-0.133-0.027-0.264-0.078-0.385
		c-0.051-0.122-0.124-0.231-0.216-0.323L29.708,0.294c-0.092-0.092-0.201-0.166-0.323-0.216C29.264,0.027,29.134,0,29,0H1
		C0.447,0,0,0.448,0,1v52C0,53.552,0.447,54,1,54z M30,3.414L38.586,12H30V3.414z"/>
	<path fill="#010101" d="M44.707,28.293c-0.391-0.391-1.023-0.391-1.414,0l-15,15c-0.391,0.391-0.391,1.023,0,1.414
		c0.391,0.391,1.023,0.391,1.414,0L32,42.414V59c0,0.552,0.447,1,1,1h6h10h6c0.553,0,1-0.448,1-1V42.414l2.293,2.293
		C58.488,44.902,58.744,45,59,45c0.256,0,0.512-0.098,0.707-0.293c0.391-0.391,0.391-1.023,0-1.414L44.707,28.293z M40,58v-8h8v8H40
		z M54,58h-4v-9c0-0.552-0.447-1-1-1H39c-0.553,0-1,0.448-1,1v9h-4V40.414l10-10l10,10V58z"/>
</g>
</svg>
