<?xml version="1.0" encoding="utf-8"?>
<!-- Generator: Adobe Illustrator 17.0.0, SVG Export Plug-In . SVG Version: 6.00 Build 0)  -->
<!DOCTYPE svg PUBLIC "-//W3C//DTD SVG 1.1//EN" "http://www.w3.org/Graphics/SVG/1.1/DTD/svg11.dtd">
<svg version="1.1" id="Layer_1" xmlns="http://www.w3.org/2000/svg" xmlns:xlink="http://www.w3.org/1999/xlink" x="0px" y="0px"
	 width="60px" height="60px" viewBox="0 0 60 60" enable-background="new 0 0 60 60" xml:space="preserve">
<g>
	<path fill="#231F20" d="M37.573,0.29C37.386,0.104,37.133,0,36.87,0H9C8.448,0,8,0.448,8,1v58c0,0.552,0.448,1,1,1h42
		c0.552,0,1-0.448,1-1V15c0-0.267-0.106-0.523-0.296-0.71L37.573,0.29z M22,2h10v28.36l-4.251-4.806
		c-0.38-0.429-1.118-0.429-1.498,0L22,30.36V2z M50,58H10V2h10v31c0,0.416,0.257,0.788,0.646,0.935
		c0.388,0.147,0.827,0.039,1.104-0.273L27,27.727l5.251,5.936C32.445,33.881,32.719,34,33,34c0.119,0,0.239-0.021,0.354-0.065
		C33.743,33.788,34,33.416,34,33V2h2.458L50,15.417V58z"/>
</g>
</svg>
