<?xml version="1.0" encoding="utf-8"?>
<!-- Generator: Adobe Illustrator 17.0.0, SVG Export Plug-In . SVG Version: 6.00 Build 0)  -->
<!DOCTYPE svg PUBLIC "-//W3C//DTD SVG 1.1//EN" "http://www.w3.org/Graphics/SVG/1.1/DTD/svg11.dtd">
<svg version="1.1" id="Layer_1" xmlns="http://www.w3.org/2000/svg" xmlns:xlink="http://www.w3.org/1999/xlink" x="0px" y="0px"
	 width="60px" height="60px" viewBox="0 0 60 60" enable-background="new 0 0 60 60" xml:space="preserve">
<g>
	<path fill="#010101" d="M1,54h25.217v-2H2V2h26v11c0,0.552,0.448,1,1,1h11v9.696h2V13c0-0.133-0.027-0.264-0.078-0.385
		c-0.051-0.121-0.124-0.231-0.216-0.323L29.708,0.294c-0.092-0.092-0.201-0.165-0.323-0.216C29.264,0.027,29.133,0,29,0H1
		C0.448,0,0,0.448,0,1v52C0,53.552,0.448,54,1,54z M30,3.414L38.586,12H30V3.414z"/>
	<path fill="#010101" d="M30,45c0,8.271,6.729,15,15,15s15-6.729,15-15s-6.729-15-15-15S30,36.729,30,45z M45,32
		c7.169,0,13,5.832,13,13c0,7.169-5.831,13-13,13s-13-5.831-13-13C32,37.832,37.831,32,45,32z"/>
	<path fill="#010101" d="M38.293,51.707C38.488,51.902,38.744,52,39,52c0.256,0,0.512-0.098,0.707-0.293L45,46.414l5.293,5.293
		C50.488,51.902,50.744,52,51,52c0.256,0,0.512-0.098,0.707-0.293c0.391-0.391,0.391-1.023,0-1.414L46.414,45l5.293-5.293
		c0.391-0.391,0.391-1.023,0-1.414c-0.391-0.391-1.023-0.391-1.414,0L45,43.586l-5.293-5.293c-0.391-0.391-1.023-0.391-1.414,0
		c-0.391,0.391-0.391,1.023,0,1.414L43.586,45l-5.293,5.293C37.902,50.684,37.902,51.316,38.293,51.707z"/>
</g>
</svg>
