<?xml version="1.0" encoding="utf-8"?>
<!-- Generator: Adobe Illustrator 17.0.0, SVG Export Plug-In . SVG Version: 6.00 Build 0)  -->
<!DOCTYPE svg PUBLIC "-//W3C//DTD SVG 1.1//EN" "http://www.w3.org/Graphics/SVG/1.1/DTD/svg11.dtd">
<svg version="1.1" id="Layer_1" xmlns="http://www.w3.org/2000/svg" xmlns:xlink="http://www.w3.org/1999/xlink" x="0px" y="0px"
	 width="60px" height="60px" viewBox="0 0 60 60" enable-background="new 0 0 60 60" xml:space="preserve">
<g>
	<path fill="#010101" d="M1,44h25v15c0,0.552,0.448,1,1,1h32c0.552,0,1-0.448,1-1V27c0-0.133-0.027-0.264-0.078-0.385
		c-0.051-0.121-0.124-0.231-0.216-0.323l-9.999-9.999c-0.092-0.092-0.201-0.165-0.323-0.216C49.264,16.027,49.133,16,49,16H34
		v-4.913c0-0.015-0.008-0.029-0.009-0.044C33.992,11.028,34,11.015,34,11c0-0.389-0.228-0.717-0.553-0.882L23.71,0.296
		c0,0-0.001-0.001-0.002-0.001c-0.091-0.092-0.201-0.166-0.322-0.217C23.265,0.027,23.134,0,23,0H1C0.448,0,0,0.448,0,1v42
		C0,43.552,0.448,44,1,44z M28,58V18h20v9c0,0.552,0.448,1,1,1h9v30H28z M50,19.414L56.586,26H50V19.414z M24,3.429L30.514,10H24
		V3.429z M2,2h20v9c0,0.552,0.448,1,1,1h9v4h-5c-0.552,0-1,0.448-1,1v25H2V2z"/>
	<path fill="#010101" d="M39.078,7.43c0.051,0.121,0.125,0.23,0.217,0.322c0,0,0.001,0.001,0.001,0.001l5,4.957
		C44.491,12.903,44.746,13,45,13c0.257,0,0.515-0.099,0.71-0.296c0.389-0.392,0.386-1.025-0.006-1.414l-3.275-3.246h10.18
		C54.257,8.044,56,9.563,56,11v3c0,0.552,0.448,1,1,1s1-0.448,1-1v-3c0-2.792-2.898-4.956-5.391-4.956H42.414l3.336-3.337
		c0.391-0.391,0.391-1.023,0-1.414c-0.391-0.391-1.023-0.391-1.414,0l-5.043,5.043c-0.092,0.092-0.165,0.201-0.216,0.323
		c-0.039,0.094-0.051,0.196-0.06,0.298C39.015,6.987,39,7.013,39,7.044c0,0,0,0.001,0,0.001s0,0.001,0,0.001
		C39,7.179,39.027,7.31,39.078,7.43z"/>
	<path fill="#010101" d="M3,47c-0.552,0-1,0.448-1,1v2c0,2.778,2.794,4.044,5.391,4.044h10.151l-3.249,3.25
		c-0.391,0.391-0.391,1.023,0,1.414C14.488,58.902,14.744,59,15,59s0.512-0.098,0.707-0.293l4.866-4.866
		C20.825,53.66,21,53.378,21,53.044c0-0.008-0.004-0.014-0.004-0.021c0.006-0.263-0.088-0.528-0.289-0.729l-5-5
		c-0.391-0.391-1.023-0.391-1.414,0c-0.391,0.391-0.391,1.023,0,1.414l3.336,3.337H7.391C6.028,52.044,4,51.499,4,50v-2
		C4,47.448,3.552,47,3,47z"/>
</g>
</svg>
