<?xml version="1.0" encoding="utf-8"?>
<!-- Generator: Adobe Illustrator 17.0.0, SVG Export Plug-In . SVG Version: 6.00 Build 0)  -->
<!DOCTYPE svg PUBLIC "-//W3C//DTD SVG 1.1//EN" "http://www.w3.org/Graphics/SVG/1.1/DTD/svg11.dtd">
<svg version="1.1" id="Layer_1" xmlns="http://www.w3.org/2000/svg" xmlns:xlink="http://www.w3.org/1999/xlink" x="0px" y="0px"
	 width="60px" height="60px" viewBox="0 0 60 60" enable-background="new 0 0 60 60" xml:space="preserve">
<g>
	<path fill="#231F20" d="M53.853,14.509c-0.05-0.087-0.104-0.169-0.177-0.237c-0.008-0.007-0.01-0.018-0.018-0.025l-16-14
		c-0.049-0.043-0.109-0.066-0.164-0.098c-0.042-0.025-0.079-0.056-0.125-0.075C37.253,0.028,37.128,0,37,0H9C8.447,0,8,0.448,8,1v58
		c0,0.552,0.447,1,1,1h44c0.553,0,1-0.448,1-1V15c0-0.143-0.032-0.278-0.087-0.401C53.899,14.566,53.871,14.541,53.853,14.509z
		 M38,3.204L50.339,14H38V3.204z M10,58V2h26v13c0,0.552,0.447,1,1,1h15v42H10z"/>
	<path fill="#231F20" d="M16,20v34h30V20H16z M26,22v6h-8v-6H26z M18,38h8v6h-8V38z M28,38h16v6H28V38z M44,36H28v-6h16V36z M26,36
		h-8v-6h8V36z M18,46h8v6h-8V46z M28,52v-6h16v6H28z M44,28H28v-6h16V28z"/>
</g>
</svg>
