<?xml version="1.0" encoding="utf-8"?>
<!-- Generator: Adobe Illustrator 17.0.0, SVG Export Plug-In . SVG Version: 6.00 Build 0)  -->
<!DOCTYPE svg PUBLIC "-//W3C//DTD SVG 1.1//EN" "http://www.w3.org/Graphics/SVG/1.1/DTD/svg11.dtd">
<svg version="1.1" id="Layer_1" xmlns="http://www.w3.org/2000/svg" xmlns:xlink="http://www.w3.org/1999/xlink" x="0px" y="0px"
	 width="60px" height="60px" viewBox="0 0 60 60" enable-background="new 0 0 60 60" xml:space="preserve">
<g>
	<path fill="#231F20" d="M7,60h44c0.553,0,1-0.448,1-1V17c0-0.134-0.027-0.265-0.078-0.386c-0.051-0.122-0.125-0.231-0.217-0.322
		c0,0-0.001-0.001-0.001-0.001L35.928,0.642C35.783,0.268,35.425,0,35,0c-0.023,0-0.042,0.012-0.065,0.013
		C34.913,0.012,34.892,0,34.869,0H7C6.447,0,6,0.448,6,1v58C6,59.552,6.447,60,7,60z M36,3.53L48.572,16H36V3.53z M8,2h26v15
		c0,0.552,0.447,1,1,1h15v40H8V2z"/>
	<path fill="#231F20" d="M34.919,29.606c-0.149-0.349-0.483-0.583-0.862-0.604c-0.381-0.025-0.737,0.173-0.925,0.502l-7.351,12.863
		l-4.074-4.074c-0.22-0.22-0.537-0.326-0.835-0.285c-0.308,0.04-0.58,0.22-0.736,0.488l-7,12c-0.18,0.31-0.182,0.691-0.003,1.002
		C13.311,51.809,13.642,52,14,52h29c0.336,0,0.649-0.169,0.835-0.45c0.184-0.28,0.217-0.635,0.084-0.944L34.919,29.606z M15.741,50
		l5.469-9.375l4.083,4.082c0.22,0.221,0.533,0.325,0.84,0.284c0.309-0.042,0.581-0.225,0.735-0.495l7.004-12.256L41.483,50H15.741z"
		/>
	<path fill="#231F20" d="M18,29c2.757,0,5-2.243,5-5s-2.243-5-5-5c-2.757,0-5,2.243-5,5S15.243,29,18,29z M18,21
		c1.654,0,3,1.346,3,3s-1.346,3-3,3s-3-1.346-3-3S16.346,21,18,21z"/>
</g>
</svg>
