<?xml version="1.0" encoding="utf-8"?>
<!-- Generator: Adobe Illustrator 17.0.0, SVG Export Plug-In . SVG Version: 6.00 Build 0)  -->
<!DOCTYPE svg PUBLIC "-//W3C//DTD SVG 1.1//EN" "http://www.w3.org/Graphics/SVG/1.1/DTD/svg11.dtd">
<svg version="1.1" id="Layer_1" xmlns="http://www.w3.org/2000/svg" xmlns:xlink="http://www.w3.org/1999/xlink" x="0px" y="0px"
	 width="60px" height="60px" viewBox="0 0 60 60" enable-background="new 0 0 60 60" xml:space="preserve">
<g>
	<path fill="#010101" d="M1,54h25.217v-2H2V2h26v11c0,0.552,0.448,1,1,1h11v9.696h2V13c0-0.133-0.027-0.264-0.078-0.385
		c-0.051-0.121-0.124-0.231-0.216-0.323L29.708,0.294c-0.092-0.092-0.201-0.165-0.323-0.216C29.264,0.027,29.133,0,29,0H1
		C0.448,0,0,0.448,0,1v52C0,53.552,0.448,54,1,54z M30,3.414L38.586,12H30V3.414z"/>
	<path fill="#010101" d="M59,40h-4v-1c0-5.047-3.514-9-8-9s-8,3.953-8,9v1h-4c-0.552,0-1,0.448-1,1v18c0,0.552,0.448,1,1,1h24
		c0.552,0,1-0.448,1-1V41C60,40.448,59.552,40,59,40z M41,39c0-3.441,2.244-7,6-7s6,3.559,6,7v1H41V39z M58,58H36V42h22V58z"/>
	<path fill="#010101" d="M47,46c-1.103,0-2,0.897-2,2c0,0.773,0.445,1.437,1.089,1.77C46.033,49.894,46,50.029,46,50.174v3.783
		c0,0.552,0.448,1,1,1s1-0.448,1-1v-3.783c0-0.144-0.033-0.28-0.089-0.404C48.555,49.437,49,48.773,49,48C49,46.897,48.103,46,47,46
		z M47.001,48L47,49l-0.001-1L47.001,48z"/>
</g>
</svg>
