<?xml version="1.0" encoding="utf-8"?>
<!-- Generator: Adobe Illustrator 17.0.0, SVG Export Plug-In . SVG Version: 6.00 Build 0)  -->
<!DOCTYPE svg PUBLIC "-//W3C//DTD SVG 1.1//EN" "http://www.w3.org/Graphics/SVG/1.1/DTD/svg11.dtd">
<svg version="1.1" id="Layer_1" xmlns="http://www.w3.org/2000/svg" xmlns:xlink="http://www.w3.org/1999/xlink" x="0px" y="0px"
	 width="60px" height="60px" viewBox="0 0 60 60" enable-background="new 0 0 60 60" xml:space="preserve">
<g>
	<path fill="#010101" d="M31,40h28c0.552,0,1-0.448,1-1V11.087c0-0.015-0.008-0.029-0.009-0.044C59.992,11.028,60,11.015,60,11
		c0-0.389-0.228-0.717-0.553-0.882L49.71,0.296c0,0-0.001-0.001-0.002-0.001c-0.091-0.092-0.201-0.166-0.322-0.217
		C49.265,0.027,49.134,0,49,0H31c-0.552,0-1,0.448-1,1v38C30,39.552,30.448,40,31,40z M50,3.429L56.514,10H50V3.429z M32,2h16v9
		c0,0.552,0.448,1,1,1h9v26H32V2z"/>
	<path fill="#010101" d="M1,60h10.087c0.552,0,1-0.448,1-1v-1h41.87c0.552,0,1-0.448,1-1c0-1.309-0.599-2.566-1.781-3.738
		c-3.24-3.213-10.512-5.324-18.132-5.262h-4.533c-0.087-0.092-0.166-0.173-0.267-0.281c-1.484-1.585-4.571-4.886-10.186-5.708
		C20.01,42.003,19.961,42,19.913,42h-7.826v-1c0-0.552-0.448-1-1-1H1c-0.552,0-1,0.448-1,1v18C0,59.552,0.448,60,1,60z M19.839,44
		c3.87,0.586,6.319,2.48,7.883,4H17.391c-0.552,0-1,0.448-1,1c0,0.552,0.448,1,1,1h17.661c6.992-0.062,13.873,1.865,16.715,4.683
		c0.445,0.441,0.767,0.882,0.962,1.317H12.087V44H19.839z M2,42h8.087v16H2V42z"/>
	<circle fill="#010101" cx="6.044" cy="53.957" r="1.261"/>
</g>
</svg>
