<?xml version="1.0" encoding="utf-8"?>
<!-- Generator: Adobe Illustrator 17.0.0, SVG Export Plug-In . SVG Version: 6.00 Build 0)  -->
<!DOCTYPE svg PUBLIC "-//W3C//DTD SVG 1.1//EN" "http://www.w3.org/Graphics/SVG/1.1/DTD/svg11.dtd">
<svg version="1.1" id="Layer_1" xmlns="http://www.w3.org/2000/svg" xmlns:xlink="http://www.w3.org/1999/xlink" x="0px" y="0px"
	 width="60px" height="60px" viewBox="0 0 60 60" enable-background="new 0 0 60 60" xml:space="preserve">
<g>
	<path fill="#010101" d="M59.706,12.292L47.708,0.294c-0.092-0.092-0.201-0.165-0.323-0.216C47.264,0.027,47.133,0,47,0H27
		c-0.552,0-1,0.448-1,1v35.304h2V2h18v11c0,0.552,0.448,1,1,1h11v28H35.044v2H59c0.552,0,1-0.448,1-1V13
		c0-0.133-0.027-0.264-0.078-0.385C59.871,12.494,59.798,12.384,59.706,12.292z M48,3.414L56.586,12H48V3.414z"/>
	<path fill="#010101" d="M1,60h10.087c0.552,0,1-0.448,1-1v-1h41.87c0.552,0,1-0.448,1-1c0-1.309-0.599-2.566-1.781-3.738
		C49.935,50.049,42.678,47.939,35.044,48h-4.533c-0.087-0.092-0.166-0.173-0.267-0.281c-1.484-1.585-4.571-4.886-10.186-5.708
		C20.01,42.003,19.961,42,19.913,42h-7.826v-1c0-0.552-0.448-1-1-1H1c-0.552,0-1,0.448-1,1v18C0,59.552,0.448,60,1,60z M19.839,44
		c3.87,0.586,6.319,2.48,7.883,4H17.391c-0.552,0-1,0.448-1,1c0,0.552,0.448,1,1,1h17.661c6.999-0.062,13.873,1.865,16.715,4.683
		c0.445,0.441,0.767,0.882,0.962,1.317H12.087V44H19.839z M2,42h8.087v16H2V42z"/>
</g>
</svg>
