<?xml version="1.0" encoding="utf-8"?>
<!-- Generator: Adobe Illustrator 17.0.0, SVG Export Plug-In . SVG Version: 6.00 Build 0)  -->
<!DOCTYPE svg PUBLIC "-//W3C//DTD SVG 1.1//EN" "http://www.w3.org/Graphics/SVG/1.1/DTD/svg11.dtd">
<svg version="1.1" id="Layer_1" xmlns="http://www.w3.org/2000/svg" xmlns:xlink="http://www.w3.org/1999/xlink" x="0px" y="0px"
	 width="60px" height="60px" viewBox="0 0 60 60" enable-background="new 0 0 60 60" xml:space="preserve">
<g>
	<path fill="#010101" d="M26,4v6h6V4h-2V2h8v2h-2v6h6V4h-2V2h6v21.696c0,0.552,0.447,1,1,1c0.553,0,1-0.448,1-1V1
		c0-0.552-0.447-1-1-1H1C0.447,0,0,0.448,0,1v50c0,0.552,0.447,1,1,1h22.695c0.553,0,1-0.448,1-1s-0.447-1-1-1H2V2h6v2H6v6h6V4h-2V2
		h8v2h-2v6h6V4h-2V2h8v2H26z M40,8h-2V6h2V8z M10,8H8V6h2V8z M20,8h-2V6h2V8z M30,8h-2V6h2V8z"/>
	<path fill="#010101" d="M53.402,30.55c-0.391-0.391-1.023-0.391-1.414,0L33.072,49.467c-0.084,0.084-0.146,0.186-0.195,0.294
		c-0.011,0.025-0.022,0.048-0.032,0.073c-0.008,0.022-0.021,0.042-0.028,0.065l-2.523,8.826c-0.1,0.349-0.002,0.725,0.255,0.982
		C30.74,59.898,30.995,60,31.257,60c0.092,0,0.185-0.013,0.275-0.039l8.826-2.521c0.022-0.006,0.042-0.019,0.064-0.027
		c0.026-0.009,0.05-0.021,0.076-0.032c0.108-0.049,0.209-0.111,0.293-0.195l18.917-18.917C59.894,38.081,60,37.827,60,37.562
		c0-0.265-0.106-0.52-0.293-0.707L53.402,30.55z M40.083,55.065l-4.89-4.891L47.65,37.716l4.89,4.891L40.083,55.065z M34.274,52.083
		l3.901,3.901l-5.462,1.56L34.274,52.083z M53.954,41.193l-4.89-4.891l3.631-3.631l4.891,4.89L53.954,41.193z"/>
</g>
</svg>
