<?xml version="1.0" encoding="utf-8"?>
<!-- Generator: Adobe Illustrator 17.0.0, SVG Export Plug-In . SVG Version: 6.00 Build 0)  -->
<!DOCTYPE svg PUBLIC "-//W3C//DTD SVG 1.1//EN" "http://www.w3.org/Graphics/SVG/1.1/DTD/svg11.dtd">
<svg version="1.1" id="Layer_1" xmlns="http://www.w3.org/2000/svg" xmlns:xlink="http://www.w3.org/1999/xlink" x="0px" y="0px"
	 width="60px" height="60px" viewBox="0 0 60 60" enable-background="new 0 0 60 60" xml:space="preserve">
<g>
	<path fill="#010101" d="M26,4v6h6V4h-2V2h8v2h-2v6h6V4h-2V2h6v21.696c0,0.552,0.447,1,1,1c0.553,0,1-0.448,1-1V1
		c0-0.552-0.447-1-1-1H1C0.447,0,0,0.448,0,1v50c0,0.552,0.447,1,1,1h22.695c0.553,0,1-0.448,1-1s-0.447-1-1-1H2V2h6v2H6v6h6V4h-2V2
		h8v2h-2v6h6V4h-2V2h8v2H26z M40,8h-2V6h2V8z M10,8H8V6h2V8z M20,8h-2V6h2V8z M30,8h-2V6h2V8z"/>
	<path fill="#010101" d="M59,40h-8.382l-4.724-9.447c-0.34-0.678-1.449-0.678-1.789,0L39.382,40h-8.121
		c-0.416,0-0.789,0.258-0.935,0.647c-0.148,0.39-0.037,0.829,0.275,1.104l7.067,6.214l-3.572,10.718
		c-0.137,0.41,0.005,0.861,0.352,1.119C34.624,59.934,34.834,60,35.044,60c0.201,0,0.402-0.06,0.575-0.182l9.389-6.601l9.644,6.608
		c0.354,0.242,0.824,0.232,1.167-0.027c0.344-0.258,0.483-0.707,0.347-1.115l-3.573-10.718l7.067-6.214
		c0.312-0.275,0.422-0.714,0.275-1.104C59.789,40.258,59.416,40,59,40z M50.774,46.901c-0.302,0.266-0.416,0.686-0.288,1.067
		l2.842,8.525l-7.763-5.318C45.394,51.058,45.197,51,45,51c-0.201,0-0.402,0.06-0.575,0.182l-7.472,5.253l2.821-8.467
		c0.128-0.381,0.014-0.802-0.288-1.067L33.912,42H40c0.379,0,0.725-0.214,0.894-0.553L45,33.236l4.105,8.211
		C49.275,41.786,49.621,42,50,42h6.349L50.774,46.901z"/>
</g>
</svg>
