<?xml version="1.0" encoding="utf-8"?>
<!-- Generator: Adobe Illustrator 17.0.0, SVG Export Plug-In . SVG Version: 6.00 Build 0)  -->
<!DOCTYPE svg PUBLIC "-//W3C//DTD SVG 1.1//EN" "http://www.w3.org/Graphics/SVG/1.1/DTD/svg11.dtd">
<svg version="1.1" id="Layer_1" xmlns="http://www.w3.org/2000/svg" xmlns:xlink="http://www.w3.org/1999/xlink" x="0px" y="0px"
	 width="60px" height="60px" viewBox="0 0 60 60" enable-background="new 0 0 60 60" xml:space="preserve">
<g>
	<path fill="#010101" d="M45,30c-8.272,0-15,6.729-15,15s6.728,15,15,15c8.271,0,15-6.729,15-15S53.271,30,45,30z M45,58
		c-7.168,0-13-5.831-13-13c0-7.168,5.832-13,13-13s13,5.832,13,13C58,52.169,52.168,58,45,58z"/>
	<path fill="#010101" d="M51.877,44H46v-5.877c0-0.552-0.447-1-1-1c-0.553,0-1,0.448-1,1V44h-5.877c-0.553,0-1,0.448-1,1
		c0,0.552,0.447,1,1,1H44v5.877c0,0.552,0.447,1,1,1c0.553,0,1-0.448,1-1V46h5.877c0.553,0,1-0.448,1-1
		C52.877,44.448,52.43,44,51.877,44z"/>
	<path fill="#010101" d="M1,52h22.695c0.553,0,1-0.448,1-1c0-0.552-0.447-1-1-1H2V2h6v2H6v6h6V4h-2V2h8v2h-2v6h6V4h-2V2h8v2h-2v6h6
		V4h-2V2h8v2h-2v6h6V4h-2V2h6v21.696c0,0.552,0.447,1,1,1c0.553,0,1-0.448,1-1V1c0-0.552-0.447-1-1-1H1C0.447,0,0,0.448,0,1v50
		C0,51.552,0.447,52,1,52z M10,8H8V6h2V8z M20,8h-2V6h2V8z M30,8h-2V6h2V8z M40,8h-2V6h2V8z"/>
</g>
</svg>
