<?xml version="1.0" encoding="utf-8"?>
<!-- Generator: Adobe Illustrator 17.0.0, SVG Export Plug-In . SVG Version: 6.00 Build 0)  -->
<!DOCTYPE svg PUBLIC "-//W3C//DTD SVG 1.1//EN" "http://www.w3.org/Graphics/SVG/1.1/DTD/svg11.dtd">
<svg version="1.1" id="Layer_1" xmlns="http://www.w3.org/2000/svg" xmlns:xlink="http://www.w3.org/1999/xlink" x="0px" y="0px"
	 width="60px" height="60px" viewBox="0 0 60 60" enable-background="new 0 0 60 60" xml:space="preserve">
<g>
	<path fill="#010101" d="M26,4v6h6V4h-2V2h8v2h-2v6h6V4h-2V2h6v21.696c0,0.552,0.448,1,1,1s1-0.448,1-1V1c0-0.552-0.448-1-1-1H1
		C0.448,0,0,0.448,0,1v50c0,0.552,0.448,1,1,1h22.696c0.552,0,1-0.448,1-1s-0.448-1-1-1H2V2h6v2H6v6h6V4h-2V2h8v2h-2v6h6V4h-2V2h8v2
		H26z M40,8h-2V6h2V8z M10,8H8V6h2V8z M20,8h-2V6h2V8z M30,8h-2V6h2V8z"/>
	<path fill="#010101" d="M45.906,28.577C45.742,28.225,45.389,28,45,28s-0.742,0.225-0.906,0.577l-14,30
		c-0.145,0.31-0.121,0.672,0.063,0.96C30.34,59.826,30.658,60,31,60h28c0.007,0,0.013,0,0.02,0c0.552,0,1-0.448,1-1
		c0-0.219-0.071-0.422-0.19-0.587L45.906,28.577z M32.57,58L45,31.365L57.43,58H32.57z"/>
	<path fill="#010101" d="M44,41.119v8.253c0,0.552,0.448,1,1,1s1-0.448,1-1v-8.253c0-0.552-0.448-1-1-1S44,40.566,44,41.119z"/>
	<circle fill="#010101" cx="45" cy="53" r="1"/>
</g>
</svg>
