<?xml version="1.0" encoding="utf-8"?>
<!-- Generator: Adobe Illustrator 17.0.0, SVG Export Plug-In . SVG Version: 6.00 Build 0)  -->
<!DOCTYPE svg PUBLIC "-//W3C//DTD SVG 1.1//EN" "http://www.w3.org/Graphics/SVG/1.1/DTD/svg11.dtd">
<svg version="1.1" id="Layer_1" xmlns="http://www.w3.org/2000/svg" xmlns:xlink="http://www.w3.org/1999/xlink" x="0px" y="0px"
	 width="60px" height="60px" viewBox="0 0 60 60" enable-background="new 0 0 60 60" xml:space="preserve">
<g>
	<path fill="#010101" d="M6,60h48c0.553,0,1-0.448,1-1V1c0-0.552-0.447-1-1-1H6C5.447,0,5,0.448,5,1v58C5,59.552,5.447,60,6,60z
		 M7,2h6v2h-2v6h6V4h-2V2h8v2h-2v6h6V4h-2V2h10v2h-2v6h6V4h-2V2h8v2h-2v6h6V4h-2V2h6v56H7V2z M15,6v2h-2V6H15z M25,6v2h-2V6H25z
		 M37,6v2h-2V6H37z M47,6v2h-2V6H47z"/>
</g>
</svg>
