<?xml version="1.0" encoding="utf-8"?>
<!-- Generator: Adobe Illustrator 17.0.0, SVG Export Plug-In . SVG Version: 6.00 Build 0)  -->
<!DOCTYPE svg PUBLIC "-//W3C//DTD SVG 1.1//EN" "http://www.w3.org/Graphics/SVG/1.1/DTD/svg11.dtd">
<svg version="1.1" id="Layer_1" xmlns="http://www.w3.org/2000/svg" xmlns:xlink="http://www.w3.org/1999/xlink" x="0px" y="0px"
	 width="60px" height="60px" viewBox="0 0 60 60" enable-background="new 0 0 60 60" xml:space="preserve">
<g>
	<path fill="#010101" d="M30,45c0,8.271,6.729,15,15,15s15-6.729,15-15s-6.729-15-15-15S30,36.729,30,45z M58,45
		c0,7.169-5.831,13-13,13s-13-5.831-13-13c0-7.168,5.831-13,13-13S58,37.832,58,45z"/>
	<path fill="#010101" d="M1,52h22.696c0.552,0,1-0.448,1-1s-0.448-1-1-1H2V2h6v2H6v6h6V4h-2V2h8v2h-2v6h6V4h-2V2h8v2h-2v6h6V4h-2V2
		h8v2h-2v6h6V4h-2V2h6v21.696c0,0.552,0.448,1,1,1s1-0.448,1-1V1c0-0.552-0.448-1-1-1H1C0.448,0,0,0.448,0,1v50
		C0,51.552,0.448,52,1,52z M10,8H8V6h2V8z M20,8h-2V6h2V8z M30,8h-2V6h2V8z M40,8h-2V6h2V8z"/>
	<path fill="#010101" d="M39.707,38.293c-0.391-0.391-1.023-0.391-1.414,0c-0.391,0.391-0.391,1.023,0,1.414L43.586,45l-5.293,5.293
		c-0.391,0.391-0.391,1.023,0,1.414C38.488,51.902,38.744,52,39,52s0.512-0.098,0.707-0.293L45,46.414l5.293,5.293
		C50.488,51.902,50.744,52,51,52s0.512-0.098,0.707-0.293c0.391-0.391,0.391-1.023,0-1.414L46.414,45l5.293-5.293
		c0.391-0.391,0.391-1.023,0-1.414c-0.391-0.391-1.023-0.391-1.414,0L45,43.586L39.707,38.293z"/>
</g>
</svg>
