<?xml version="1.0" encoding="utf-8"?>
<!-- Generator: Adobe Illustrator 17.0.0, SVG Export Plug-In . SVG Version: 6.00 Build 0)  -->
<!DOCTYPE svg PUBLIC "-//W3C//DTD SVG 1.1//EN" "http://www.w3.org/Graphics/SVG/1.1/DTD/svg11.dtd">
<svg version="1.1" id="Layer_1" xmlns="http://www.w3.org/2000/svg" xmlns:xlink="http://www.w3.org/1999/xlink" x="0px" y="0px"
	 width="60px" height="60px" viewBox="0 0 60 60" enable-background="new 0 0 60 60" xml:space="preserve">
<g>
	<path fill="#010101" d="M30,2h8v2h-2v6h6V4h-2V2h6v21.696c0,0.552,0.447,1,1,1c0.553,0,1-0.448,1-1V1c0-0.552-0.447-1-1-1H1
		C0.447,0,0,0.448,0,1v50c0,0.552,0.447,1,1,1h22.695c0.553,0,1-0.448,1-1s-0.447-1-1-1H2V2h6v2H6v6h6V4h-2V2h8v2h-2v6h6V4h-2V2h8v2
		h-2v6h6V4h-2V2z M40,8h-2V6h2V8z M10,8H8V6h2V8z M20,8h-2V6h2V8z M30,8h-2V6h2V8z"/>
	<path fill="#010101" d="M37.305,47.652C37.305,41.679,41.563,37,47,37c3.661,0,6.551,2.453,8.258,5H51c-0.553,0-1,0.448-1,1
		s0.447,1,1,1h7v-7c0-0.552-0.447-1-1-1c-0.553,0-1,0.448-1,1v2.636C53.618,36.75,50.328,35,47,35
		c-6.559,0-11.695,5.558-11.695,12.652c0,0.552,0.447,1,1,1S37.305,48.205,37.305,47.652z"/>
	<path fill="#010101" d="M59,46.652c-0.553,0-1,0.448-1,1C58,53.455,53.607,58,48,58c-3.795,0-7.196-1.535-9.157-4H42
		c0.553,0,1-0.448,1-1s-0.447-1-1-1h-6v6c0,0.552,0.447,1,1,1c0.553,0,1-0.448,1-1v-1.892C40.379,58.56,43.968,60,48,60
		c6.728,0,12-5.424,12-12.348C60,47.1,59.553,46.652,59,46.652z"/>
</g>
</svg>
