<?xml version="1.0" encoding="utf-8"?>
<!-- Generator: Adobe Illustrator 17.0.0, SVG Export Plug-In . SVG Version: 6.00 Build 0)  -->
<!DOCTYPE svg PUBLIC "-//W3C//DTD SVG 1.1//EN" "http://www.w3.org/Graphics/SVG/1.1/DTD/svg11.dtd">
<svg version="1.1" id="Layer_1" xmlns="http://www.w3.org/2000/svg" xmlns:xlink="http://www.w3.org/1999/xlink" x="0px" y="0px"
	 width="60px" height="60px" viewBox="0 0 60 60" enable-background="new 0 0 60 60" xml:space="preserve">
<g>
	<path fill="#010101" d="M49,53c-1.587,0-3-1.581-3-2.826V32h2.913c0.552,0,1-0.448,1-1s-0.448-1-1-1H11.087c-0.552,0-1,0.448-1,1
		s0.448,1,1,1H14v18.174c0,1.482-1.402,2.783-3,2.783c-0.552,0-1,0.448-1,1c0,0.552,0.448,1,1,1c2.71,0,5-2.19,5-4.783V32h6v27
		c0,0.552,0.448,1,1,1s1-0.448,1-1V32h5v27c0,0.552,0.448,1,1,1s1-0.448,1-1V32h5v27c0,0.552,0.448,1,1,1s1-0.448,1-1V32h6v18.174
		C44,52.655,46.43,55,49,55c0.552,0,1-0.448,1-1S49.552,53,49,53z"/>
	<path fill="#010101" d="M55.533,22.051C55.432,22.017,55.325,22,55.217,22H48v-7c0-0.143-0.032-0.278-0.087-0.401
		c-0.015-0.034-0.043-0.059-0.061-0.091c-0.05-0.086-0.102-0.168-0.174-0.235c-0.008-0.007-0.011-0.018-0.019-0.025l-16-14
		c-0.05-0.043-0.111-0.067-0.167-0.1c-0.041-0.024-0.077-0.055-0.122-0.073C31.253,0.028,31.128,0,31,0H13c-0.552,0-1,0.448-1,1v21
		H4.783c-0.107,0-0.214,0.017-0.315,0.051C1.795,22.94,0,25.121,0,27.479v5.043C0,35.107,2.045,38,4.783,38h5.043
		c0.552,0,1-0.448,1-1s-0.448-1-1-1H4.783C3.284,36,2,34.087,2,32.521v-5.043C2,25.807,3.459,24.544,4.952,24H13h34h8.048
		C56.541,24.545,58,25.808,58,27.479v5.043C58,34.087,56.716,36,55.217,36h-5.044c-0.552,0-1,0.448-1,1s0.448,1,1,1h5.044
		C57.955,38,60,35.107,60,32.521v-5.043C60,25.123,58.205,22.941,55.533,22.051z M32,3.204L44.339,14H32V3.204z M14,22V2h16v13
		c0,0.552,0.448,1,1,1h15v6H14z"/>
	<path fill="#010101" d="M55.217,31.261c0-0.697-0.566-1.261-1.261-1.261c-0.7,0-1.261,0.564-1.261,1.261
		c0,0.697,0.56,1.261,1.261,1.261C54.651,32.521,55.217,31.958,55.217,31.261z"/>
</g>
</svg>
