<?xml version="1.0" encoding="utf-8"?>
<!-- Generator: Adobe Illustrator 17.0.0, SVG Export Plug-In . SVG Version: 6.00 Build 0)  -->
<!DOCTYPE svg PUBLIC "-//W3C//DTD SVG 1.1//EN" "http://www.w3.org/Graphics/SVG/1.1/DTD/svg11.dtd">
<svg version="1.1" id="Layer_1" xmlns="http://www.w3.org/2000/svg" xmlns:xlink="http://www.w3.org/1999/xlink" x="0px" y="0px"
	 width="60px" height="60px" viewBox="0 0 60 60" enable-background="new 0 0 60 60" xml:space="preserve">
<g>
	<path fill="#231F20" d="M56,30h-3.025C52.462,17.561,42.439,7.538,30,7.025V2c0-0.552-0.448-1-1-1s-1,0.448-1,1v5.025
		C15.561,7.538,5.538,17.561,5.025,30H1c-0.552,0-1,0.448-1,1s0.448,1,1,1h4.025C5.538,44.439,15.561,54.462,28,54.975V59
		c0,0.552,0.448,1,1,1s1-0.448,1-1v-4.025C42.439,54.462,52.462,44.439,52.975,32H56c0.552,0,1-0.448,1-1S56.552,30,56,30z
		 M50.975,30H40.949C40.466,24.181,35.819,19.534,30,19.051V9.025C41.337,9.535,50.465,18.663,50.975,30z M28,30h-8.949
		c0.471-4.717,4.232-8.479,8.949-8.949V30z M28,32v8.949c-4.717-0.471-8.479-4.232-8.949-8.949H28z M30,32h8.949
		c-0.471,4.717-4.232,8.479-8.949,8.949V32z M30,30v-8.949c4.717,0.471,8.479,4.232,8.949,8.949H30z M28,9.025v10.025
		C22.181,19.534,17.534,24.181,17.051,30H7.025C7.535,18.663,16.663,9.535,28,9.025z M7.025,32h10.025
		c0.483,5.819,5.13,10.466,10.949,10.949v10.025C16.663,52.465,7.535,43.337,7.025,32z M30,52.975V42.949
		c5.819-0.483,10.466-5.13,10.949-10.949h10.025C50.465,43.337,41.337,52.465,30,52.975z"/>
</g>
</svg>
