<?xml version="1.0" encoding="utf-8"?>
<!-- Generator: Adobe Illustrator 17.0.0, SVG Export Plug-In . SVG Version: 6.00 Build 0)  -->
<!DOCTYPE svg PUBLIC "-//W3C//DTD SVG 1.1//EN" "http://www.w3.org/Graphics/SVG/1.1/DTD/svg11.dtd">
<svg version="1.1" id="Layer_1" xmlns="http://www.w3.org/2000/svg" xmlns:xlink="http://www.w3.org/1999/xlink" x="0px" y="0px"
	 width="60px" height="60px" viewBox="0 0 60 60" enable-background="new 0 0 60 60" xml:space="preserve">
<g>
	<path fill="#231F20" d="M30,23V3c0-0.552-0.448-1-1-1s-1,0.448-1,1v20c0,0.552,0.448,1,1,1S30,23.552,30,23z"/>
	<path fill="#231F20" d="M21,32c0.552,0,1-0.448,1-1s-0.448-1-1-1H1c-0.552,0-1,0.448-1,1s0.448,1,1,1H21z"/>
	<path fill="#231F20" d="M28,39v20c0,0.552,0.448,1,1,1s1-0.448,1-1V39c0-0.552-0.448-1-1-1S28,38.448,28,39z"/>
	<path fill="#231F20" d="M57,30H37c-0.552,0-1,0.448-1,1s0.448,1,1,1h20c0.552,0,1-0.448,1-1S57.552,30,57,30z"/>
	<circle fill="#231F20" cx="29" cy="31" r="2"/>
</g>
</svg>
