<?xml version="1.0" encoding="utf-8"?>
<!-- Generator: Adobe Illustrator 17.0.0, SVG Export Plug-In . SVG Version: 6.00 Build 0)  -->
<!DOCTYPE svg PUBLIC "-//W3C//DTD SVG 1.1//EN" "http://www.w3.org/Graphics/SVG/1.1/DTD/svg11.dtd">
<svg version="1.1" id="Layer_1" xmlns="http://www.w3.org/2000/svg" xmlns:xlink="http://www.w3.org/1999/xlink" x="0px" y="0px"
	 width="60px" height="60px" viewBox="0 0 60 60" enable-background="new 0 0 60 60" xml:space="preserve">
<g>
	<path fill="#231F20" d="M56,30h-5.025C50.465,18.663,41.337,9.535,30,9.025V2c0-0.552-0.448-1-1-1s-1,0.448-1,1v7.025
		C16.663,9.535,7.535,18.663,7.025,30H1c-0.552,0-1,0.448-1,1s0.448,1,1,1h6.025C7.535,43.337,16.663,52.465,28,52.975V59
		c0,0.552,0.448,1,1,1s1-0.448,1-1v-6.025C41.337,52.465,50.465,43.337,50.975,32H56c0.552,0,1-0.448,1-1S56.552,30,56,30z
		 M30,50.949V45c0-0.552-0.448-1-1-1s-1,0.448-1,1v5.949C17.771,50.44,9.56,42.229,9.051,32H15c0.552,0,1-0.448,1-1s-0.448-1-1-1
		H9.051C9.56,19.772,17.771,11.56,28,11.051V16c0,0.552,0.448,1,1,1s1-0.448,1-1v-4.949C40.228,11.56,48.44,19.772,48.949,30H42
		c-0.552,0-1,0.448-1,1s0.448,1,1,1h6.949C48.44,42.229,40.228,50.44,30,50.949z"/>
</g>
</svg>
