<?xml version="1.0" encoding="utf-8"?>
<!-- Generator: Adobe Illustrator 17.0.0, SVG Export Plug-In . SVG Version: 6.00 Build 0)  -->
<!DOCTYPE svg PUBLIC "-//W3C//DTD SVG 1.1//EN" "http://www.w3.org/Graphics/SVG/1.1/DTD/svg11.dtd">
<svg version="1.1" id="Layer_1" xmlns="http://www.w3.org/2000/svg" xmlns:xlink="http://www.w3.org/1999/xlink" x="0px" y="0px"
	 width="60px" height="60px" viewBox="0 0 60 60" enable-background="new 0 0 60 60" xml:space="preserve">
<g>
	<path fill="#231F20" d="M59,8h-8h-9V1c0-0.552-0.448-1-1-1H19c-0.552,0-1,0.448-1,1v7H9H1C0.448,8,0,8.448,0,9c0,0.552,0.448,1,1,1
		h7v49c0,0.552,0.448,1,1,1h42c0.552,0,1-0.448,1-1V10h7c0.552,0,1-0.448,1-1C60,8.448,59.552,8,59,8z M20,2h20v6H20V2z M50,58H10
		V10h9h22h9V58z"/>
	<path fill="#231F20" d="M19,19c-0.552,0-1,0.448-1,1v28c0,0.552,0.448,1,1,1s1-0.448,1-1V20C20,19.448,19.552,19,19,19z"/>
	<path fill="#231F20" d="M30,19c-0.552,0-1,0.448-1,1v28c0,0.552,0.448,1,1,1s1-0.448,1-1V20C31,19.448,30.552,19,30,19z"/>
	<path fill="#231F20" d="M40,20v28c0,0.552,0.448,1,1,1s1-0.448,1-1V20c0-0.552-0.448-1-1-1S40,19.448,40,20z"/>
</g>
</svg>
