<?xml version="1.0" encoding="utf-8"?>
<!-- Generator: Adobe Illustrator 17.0.0, SVG Export Plug-In . SVG Version: 6.00 Build 0)  -->
<!DOCTYPE svg PUBLIC "-//W3C//DTD SVG 1.1//EN" "http://www.w3.org/Graphics/SVG/1.1/DTD/svg11.dtd">
<svg version="1.1" id="Layer_1" xmlns="http://www.w3.org/2000/svg" xmlns:xlink="http://www.w3.org/1999/xlink" x="0px" y="0px"
	 width="60px" height="60px" viewBox="0 0 60 60" enable-background="new 0 0 60 60" xml:space="preserve">
<g>
	<path fill="#231F20" d="M57.914,36.303l-8-18c-0.05-0.112-0.12-0.214-0.207-0.301l-3.844-3.844l-3.576-9.792
		c-0.05-0.137-0.129-0.261-0.232-0.364c-2.281-2.281-7.481-2.281-9.762,0C32.105,4.19,32,4.444,32,4.71v10c0,0.552,0.447,1,1,1
		c0.553,0,1-0.448,1-1V5.165c1.605-1.192,5-1.154,6.491,0.114l3.569,9.774c0.05,0.137,0.129,0.261,0.233,0.364l3.868,3.869
		l5.715,12.859C51.631,30.61,48.919,29.71,46,29.71c-5.096,0-9.551,2.745-12,6.826V22.138c3.094,0.704,5,2.172,5,3.572
		c0,0.552,0.447,1,1,1c0.553,0,1-0.448,1-1c0-3.42-4.729-6-11-6s-11,2.58-11,6c0,0.552,0.447,1,1,1c0.553,0,1-0.448,1-1
		c0-1.4,1.906-2.867,5-3.572v14.398c-2.449-4.081-6.904-6.826-12-6.826c-2.919,0-5.631,0.901-7.876,2.435l5.715-12.859l3.868-3.869
		c0.096-0.096,0.171-0.21,0.222-0.335l3.917-9.794C21.327,3.994,24.415,3.954,26,5.161v9.548c0,0.552,0.447,1,1,1
		c0.553,0,1-0.448,1-1v-10c0-0.265-0.106-0.52-0.293-0.707c-2.287-2.288-7.127-2.288-9.414,0c-0.096,0.096-0.171,0.21-0.222,0.335
		l-3.924,9.81l-3.854,3.855c-0.087,0.087-0.157,0.189-0.207,0.301l-8,18c-0.021,0.047-0.019,0.096-0.032,0.143
		C0.76,38.567,0,41.048,0,43.71c0,7.72,6.28,14,14,14c7.72,0,14-6.28,14-14V21.811c0.635-0.065,1.302-0.101,2-0.101
		s1.365,0.036,2,0.101V43.71c0,7.72,6.28,14,14,14c7.72,0,14-6.28,14-14c0-2.661-0.76-5.142-2.054-7.263
		C57.933,36.399,57.935,36.35,57.914,36.303z M14,55.71c-6.617,0-12-5.383-12-12s5.383-12,12-12s12,5.383,12,12
		S20.617,55.71,14,55.71z M46,55.71c-6.617,0-12-5.383-12-12s5.383-12,12-12s12,5.383,12,12S52.617,55.71,46,55.71z"/>
	<path fill="#231F20" d="M13.608,35.535c-4.723,0-8.565,3.842-8.565,8.565c0,0.552,0.447,1,1,1c0.553,0,1-0.448,1-1
		c0-3.62,2.944-6.565,6.565-6.565c0.553,0,1-0.448,1-1C14.608,35.983,14.161,35.535,13.608,35.535z"/>
	<path fill="#231F20" d="M46.392,35.535c-4.723,0-8.565,3.842-8.565,8.565c0,0.552,0.447,1,1,1c0.553,0,1-0.448,1-1
		c0-3.62,2.945-6.565,6.565-6.565c0.553,0,1-0.448,1-1C47.392,35.983,46.944,35.535,46.392,35.535z"/>
</g>
</svg>
