<?xml version="1.0" encoding="utf-8"?>
<!-- Generator: Adobe Illustrator 17.0.0, SVG Export Plug-In . SVG Version: 6.00 Build 0)  -->
<!DOCTYPE svg PUBLIC "-//W3C//DTD SVG 1.1//EN" "http://www.w3.org/Graphics/SVG/1.1/DTD/svg11.dtd">
<svg version="1.1" id="Layer_1" xmlns="http://www.w3.org/2000/svg" xmlns:xlink="http://www.w3.org/1999/xlink" x="0px" y="0px"
	 width="60px" height="60px" viewBox="0 0 60 60" enable-background="new 0 0 60 60" xml:space="preserve">
<g>
	<path fill="#231F20" d="M57.051,12.858c-1.221-0.696-2.65-0.817-4.077-0.379c-0.217-1.029-0.827-1.967-1.813-2.73
		c-2.381-1.844-6.655-2.498-10.545-1.873C39.196,4.848,35.243,1,30,1c-4.914,0-9.987,3.568-11.63,6.924
		c-3.096-0.436-6.349,0.039-8.591,1.446c-1.305,0.82-2.177,1.917-2.558,3.169c-1.477-0.512-2.971-0.422-4.248,0.299
		C1.084,13.906,0,16.151,0,19c0,2.228,0.865,3.918,2.436,4.759c1.665,0.892,3.98,0.741,6.124-0.347
		c0.974,1.666,2.719,2.967,5.117,3.8c1.706,0.593,3.599,0.884,5.384,0.884c1.911,0,3.696-0.336,5.001-0.991
		c0.306,0.135,0.605,0.276,0.93,0.387c1.095,1.384,1.086,2.525,1.034,5.308c-0.008,0.426-0.016,0.899-0.021,1.395
		c-1.316-0.196-2.686,0.018-3.908,0.673C20.158,35.908,19,37.826,19,40c0,1.852,0.859,3.357,2.421,4.238
		c0.907,0.512,1.966,0.765,3.062,0.765c0.486,0,0.979-0.067,1.471-0.166c-0.468,6.2-6.105,7.172-11.578,8.098
		C9.788,53.712,5.044,54.515,5.044,59c0,0.552,0.447,1,1,1H30h23.956c0.553,0,1-0.448,1-1c0-4.485-4.744-5.288-9.332-6.064
		c-5.473-0.926-11.11-1.898-11.578-8.098c0.492,0.099,0.984,0.166,1.471,0.166c1.097,0,2.155-0.253,3.062-0.765
		C40.141,43.357,41,41.852,41,40c0-2.174-1.158-4.092-3.098-5.131c-1.221-0.655-2.591-0.869-3.908-0.673
		c-0.005-0.496-0.012-0.968-0.021-1.395c-0.052-2.783-0.061-3.924,1.034-5.308c0.326-0.111,0.626-0.253,0.933-0.388
		c1.309,0.644,3.194,0.985,5.224,0.985c1.37,0,2.805-0.155,4.166-0.475c1.87-0.439,4.298-1.35,5.893-3.228
		c1.729,1.05,3.752,1.219,5.479,0.413C58.768,23.836,60,21.668,60,19C60,16.164,58.925,13.925,57.051,12.858z M31.975,32.839
		c0.011,0.599,0.023,1.269,0.024,2.013c-0.187,0.099-0.374,0.197-0.553,0.316c-0.46,0.306-0.585,0.926-0.279,1.386
		c0.307,0.46,0.928,0.583,1.387,0.279c1.316-0.874,3.005-0.951,4.404-0.201C38.256,37.327,39,38.555,39,40
		c0,1.408-0.764,2.135-1.404,2.497c-1.387,0.785-3.428,0.643-5.079-0.353c-0.475-0.285-1.089-0.133-1.373,0.34
		c-0.285,0.473-0.133,1.088,0.34,1.373c0.17,0.102,0.349,0.181,0.523,0.269c0.075,8.538,7.392,9.785,13.284,10.782
		c4.09,0.692,6.817,1.254,7.498,3.092H30H7.211c0.681-1.838,3.408-2.4,7.498-3.092c5.892-0.997,13.209-2.244,13.284-10.782
		c0.175-0.089,0.354-0.167,0.523-0.269c0.473-0.285,0.625-0.9,0.34-1.373c-0.285-0.473-0.899-0.625-1.373-0.34
		c-1.65,0.996-3.691,1.138-5.079,0.353C21.764,42.135,21,41.408,21,40c0-1.445,0.744-2.673,2.043-3.369
		c1.402-0.751,3.088-0.673,4.403,0.201c0.457,0.305,1.079,0.181,1.387-0.279c0.306-0.459,0.181-1.081-0.279-1.386
		c-0.178-0.119-0.366-0.217-0.553-0.315c0.002-0.744,0.013-1.414,0.024-2.013c0.038-2.008,0.06-3.428-0.415-4.748
		c0.786,0.113,1.583,0.19,2.389,0.19c0.805,0,1.603-0.077,2.389-0.19C31.914,29.411,31.937,30.831,31.975,32.839z M55.856,22.988
		c-1.308,0.613-2.925,0.325-4.215-0.754c-0.223-0.187-0.521-0.269-0.802-0.22c-0.287,0.046-0.539,0.215-0.691,0.463
		c-0.905,1.471-2.778,2.605-5.276,3.192c-3.415,0.802-6.924,0.369-8.343-0.517c-0.033-0.02-0.07-0.023-0.104-0.039
		c-0.065-0.031-0.128-0.057-0.198-0.074c-0.06-0.014-0.119-0.02-0.18-0.023c-0.065-0.003-0.128-0.003-0.194,0.007
		c-0.068,0.01-0.131,0.03-0.196,0.054c-0.036,0.013-0.073,0.012-0.108,0.03c-0.024,0.012-0.052,0.02-0.076,0.032
		c-0.38-0.209-0.859-0.167-1.181,0.155c-0.151,0.151-0.293,0.3-0.425,0.446c-2.41,0.702-5.325,0.702-7.735,0
		c-0.133-0.146-0.274-0.295-0.425-0.446c-0.322-0.322-0.802-0.363-1.181-0.155c-0.024-0.012-0.052-0.02-0.076-0.032
		c-0.035-0.018-0.072-0.017-0.108-0.03c-0.065-0.024-0.128-0.044-0.196-0.054c-0.065-0.01-0.128-0.01-0.193-0.007
		c-0.061,0.003-0.12,0.008-0.18,0.023c-0.07,0.017-0.133,0.043-0.198,0.074c-0.034,0.016-0.071,0.018-0.103,0.039
		c-1.9,1.185-6.001,1.262-9.137,0.172c-2.269-0.789-3.828-2.089-4.393-3.662c-0.104-0.289-0.335-0.515-0.627-0.611
		c-0.291-0.097-0.611-0.054-0.868,0.117c-1.737,1.156-3.819,1.497-5.065,0.829C2.465,21.505,2,20.497,2,19
		c0-2.106,0.714-3.718,1.958-4.42c1.003-0.568,2.289-0.469,3.524,0.276c0,0,0,0,0,0c1.964,1.186,2.444,2.023,2.556,2.417
		c0.125,0.44,0.525,0.728,0.961,0.728c0.091,0,0.183-0.013,0.273-0.039c0.531-0.15,0.84-0.704,0.689-1.235
		c-0.314-1.107-1.271-2.174-2.919-3.253c0.16-0.951,0.764-1.76,1.8-2.411c2.695-1.691,7.405-1.764,10.723-0.163
		c0.497,0.241,1.097,0.031,1.335-0.466c0.24-0.498,0.031-1.095-0.466-1.336c-0.637-0.307-1.322-0.542-2.022-0.744
		C21.904,5.92,25.944,3,30,3c3.987,0,7.279,2.839,8.615,5.325c-0.718,0.211-1.409,0.465-2.05,0.775
		c-0.497,0.241-0.705,0.839-0.465,1.336c0.24,0.496,0.834,0.706,1.336,0.465c0.885-0.428,1.844-0.734,2.828-0.943
		c0.018-0.005,0.035-0.003,0.053-0.009c0.002-0.001,0.003-0.003,0.006-0.003c3.679-0.764,7.705-0.094,9.615,1.385
		c0.779,0.604,1.152,1.278,1.131,2.051c-1.218,0.791-2.506,2.3-2.954,3.153c-0.257,0.489-0.068,1.093,0.421,1.35
		C48.684,17.963,48.843,18,48.999,18c0.359,0,0.707-0.194,0.887-0.535c0.363-0.692,1.677-2.146,2.546-2.563
		c0.012-0.006,0.019-0.019,0.031-0.025c0.015-0.008,0.032-0.008,0.047-0.016c1.25-0.742,2.544-0.839,3.552-0.265
		C57.293,15.297,58,16.903,58,19C58,20.898,57.219,22.352,55.856,22.988z"/>
</g>
</svg>
