<?xml version="1.0" encoding="utf-8"?>
<!-- Generator: Adobe Illustrator 17.0.0, SVG Export Plug-In . SVG Version: 6.00 Build 0)  -->
<!DOCTYPE svg PUBLIC "-//W3C//DTD SVG 1.1//EN" "http://www.w3.org/Graphics/SVG/1.1/DTD/svg11.dtd">
<svg version="1.1" id="Layer_1" xmlns="http://www.w3.org/2000/svg" xmlns:xlink="http://www.w3.org/1999/xlink" x="0px" y="0px"
	 width="60px" height="60px" viewBox="0 0 60 60" enable-background="new 0 0 60 60" xml:space="preserve">
<g>
	<path fill="#231F20" d="M29.13,2C36.587,2,42,7.943,42,16.13v22.696c0,0.552,0.448,1,1,1s1-0.448,1-1V16.13
		C44,6.784,37.747,0,29.13,0C20.505,0,14,6.935,14,16.13v31.522C14,54.807,18.772,60,25.348,60C31.719,60,36,55.038,36,47.652
		V22.565C36,17.202,33.432,14,29.13,14C24.799,14,22,17.362,22,22.565v20.044c0,0.552,0.448,1,1,1s1-0.448,1-1V22.565
		C24,21.025,24.37,16,29.13,16c4.237,0,4.87,4.113,4.87,6.565v25.087C34,52.426,31.734,58,25.348,58C19.931,58,16,53.648,16,47.652
		V16.13C16,8.075,21.645,2,29.13,2z"/>
</g>
</svg>
