<?xml version="1.0" encoding="utf-8"?>
<!-- Generator: Adobe Illustrator 17.0.0, SVG Export Plug-In . SVG Version: 6.00 Build 0)  -->
<!DOCTYPE svg PUBLIC "-//W3C//DTD SVG 1.1//EN" "http://www.w3.org/Graphics/SVG/1.1/DTD/svg11.dtd">
<svg version="1.1" id="Layer_1" xmlns="http://www.w3.org/2000/svg" xmlns:xlink="http://www.w3.org/1999/xlink" x="0px" y="0px"
	 width="60px" height="60px" viewBox="0 0 60 60" enable-background="new 0 0 60 60" xml:space="preserve">
<g>
	<path fill="#231F20" d="M50.39,5.966c-1.485,0-2.741,0.471-3.631,1.361l-45,45c-0.304,0.304-0.38,0.769-0.188,1.154
		c0.171,0.342,0.52,0.553,0.894,0.553c0.047,0,0.094-0.003,0.142-0.01l21-3c0.214-0.03,0.413-0.13,0.565-0.283l33-33
		c2.369-2.369,1.408-7.005-1-9.414C54.738,6.893,52.468,5.966,50.39,5.966z M17.88,39.034l2.586-2.586l7.586,7.586l-2.586,2.586
		L17.88,39.034z M21.88,35.034l2.586-2.586l7.586,7.586l-2.586,2.586L21.88,35.034z M22.995,49.091l-17.7,2.529l11.172-11.172
		l2.586,2.586l-3.293,3.293c-0.391,0.391-0.391,1.023,0,1.414c0.195,0.195,0.451,0.293,0.707,0.293c0.256,0,0.512-0.098,0.707-0.293
		l3.293-3.293l3.586,3.586L22.995,49.091z M55.759,16.327L33.466,38.62l-7.586-7.586L48.173,8.741
		c0.641-0.641,1.56-0.775,2.217-0.775c1.526,0,3.323,0.73,4.369,1.775C56.43,11.414,57.236,14.85,55.759,16.327z"/>
</g>
</svg>
