<?xml version="1.0" encoding="utf-8"?>
<!-- Generator: Adobe Illustrator 17.0.0, SVG Export Plug-In . SVG Version: 6.00 Build 0)  -->
<!DOCTYPE svg PUBLIC "-//W3C//DTD SVG 1.1//EN" "http://www.w3.org/Graphics/SVG/1.1/DTD/svg11.dtd">
<svg version="1.1" id="Layer_1" xmlns="http://www.w3.org/2000/svg" xmlns:xlink="http://www.w3.org/1999/xlink" x="0px" y="0px"
	 width="60px" height="60px" viewBox="0 0 60 60" enable-background="new 0 0 60 60" xml:space="preserve">
<g>
	<path fill="#231F20" d="M51.213,8.787c-0.019-0.019-0.045-0.026-0.065-0.043C45.72,3.343,38.244,0,30,0
		C21.756,0,14.279,3.344,8.851,8.745c-0.02,0.017-0.045,0.023-0.063,0.042S8.762,8.831,8.745,8.851C3.344,14.279,0,21.756,0,30
		c0,8.245,3.344,15.722,8.747,21.151c0.017,0.019,0.023,0.044,0.041,0.062s0.043,0.025,0.062,0.041C14.278,56.656,21.755,60,30,60
		c8.243,0,15.72-3.343,21.148-8.744c0.02-0.017,0.046-0.024,0.065-0.043s0.026-0.045,0.043-0.065C56.657,45.72,60,38.243,60,30
		s-3.343-15.72-8.744-21.148C51.239,8.832,51.232,8.806,51.213,8.787z M49.066,9.52L30,28.586L10.934,9.52
		C15.937,4.859,22.639,2,30,2C37.361,2,44.063,4.859,49.066,9.52z M9.52,10.934L28.586,30L9.52,49.066C4.859,44.063,2,37.361,2,30
		C2,22.639,4.859,15.937,9.52,10.934z M10.934,50.48L30,31.414L49.066,50.48C44.063,55.141,37.361,58,30,58
		S15.937,55.141,10.934,50.48z M50.48,49.066L31.414,30L50.48,10.934C55.141,15.937,58,22.639,58,30S55.141,44.063,50.48,49.066z"/>
</g>
</svg>
