<?xml version="1.0" encoding="utf-8"?>
<!-- Generator: Adobe Illustrator 17.0.0, SVG Export Plug-In . SVG Version: 6.00 Build 0)  -->
<!DOCTYPE svg PUBLIC "-//W3C//DTD SVG 1.1//EN" "http://www.w3.org/Graphics/SVG/1.1/DTD/svg11.dtd">
<svg version="1.1" id="Layer_1" xmlns="http://www.w3.org/2000/svg" xmlns:xlink="http://www.w3.org/1999/xlink" x="0px" y="0px"
	 width="60px" height="60px" viewBox="0 0 60 60" enable-background="new 0 0 60 60" xml:space="preserve">
<g>
	<path fill="#231F20" d="M41.707,10.293c-0.391-0.391-1.023-0.391-1.414,0l-22,22c-0.1,0.1-0.173,0.217-0.222,0.341
		c-0.001,0.003-0.004,0.005-0.005,0.008l-5,13c-0.142,0.369-0.053,0.787,0.227,1.066C13.484,46.898,13.74,47,14,47
		c0.121,0,0.242-0.022,0.359-0.066l13-5c0.003-0.001,0.005-0.004,0.008-0.005c0.124-0.049,0.24-0.121,0.341-0.222l22-22
		c0.391-0.391,0.391-1.023,0-1.414L41.707,10.293z M27,39.586L20.414,33L37,16.414L43.586,23L27,39.586z M19.381,34.795l5.824,5.824
		l-9.464,3.64L19.381,34.795z M45,21.586L38.414,15L41,12.414L47.586,19L45,21.586z"/>
	<path fill="#231F20" d="M30,0C13.458,0,0,13.458,0,30s13.458,30,30,30s30-13.458,30-30S46.542,0,30,0z M30,58
		C14.56,58,2,45.44,2,30C2,14.561,14.56,2,30,2s28,12.561,28,28C58,45.44,45.44,58,30,58z"/>
</g>
</svg>
