<?xml version="1.0" encoding="utf-8"?>
<!-- Generator: Adobe Illustrator 17.0.0, SVG Export Plug-In . SVG Version: 6.00 Build 0)  -->
<!DOCTYPE svg PUBLIC "-//W3C//DTD SVG 1.1//EN" "http://www.w3.org/Graphics/SVG/1.1/DTD/svg11.dtd">
<svg version="1.1" id="Layer_1" xmlns="http://www.w3.org/2000/svg" xmlns:xlink="http://www.w3.org/1999/xlink" x="0px" y="0px"
	 width="60px" height="60px" viewBox="0 0 60 60" enable-background="new 0 0 60 60" xml:space="preserve">
<g>
	<path fill="#231F20" d="M59,30H48.913c-0.552,0-1,0.448-1,1c0,0.552,0.448,1,1,1H58v20H2V32h15.391c0.552,0,1-0.448,1-1
		c0-0.552-0.448-1-1-1H1c-0.552,0-1,0.448-1,1v22c0,0.552,0.448,1,1,1h58c0.552,0,1-0.448,1-1V31C60,30.448,59.552,30,59,30z"/>
	<path fill="#231F20" d="M22,44c0.14,0,0.281-0.029,0.414-0.09l11-5c0.109-0.049,0.209-0.118,0.293-0.203l22-22
		c0.391-0.391,0.391-1.023,0-1.414l-7-7c-0.391-0.391-1.023-0.391-1.414,0l-22,22c-0.107,0.107-0.178,0.233-0.227,0.366
		c-0.003,0.009-0.012,0.015-0.015,0.024l-4,12c-0.125,0.377-0.016,0.794,0.28,1.06C21.518,43.912,21.758,44,22,44z M44,14.414
		L49.586,20L33,36.586L27.414,31L44,14.414z M48,10.414L53.586,16L51,18.586L45.414,13L48,10.414z M26.437,32.851l4.836,4.836
		l-7.599,3.454L26.437,32.851z"/>
</g>
</svg>
