<?xml version="1.0" encoding="utf-8"?>
<!-- Generator: Adobe Illustrator 17.0.0, SVG Export Plug-In . SVG Version: 6.00 Build 0)  -->
<!DOCTYPE svg PUBLIC "-//W3C//DTD SVG 1.1//EN" "http://www.w3.org/Graphics/SVG/1.1/DTD/svg11.dtd">
<svg version="1.1" id="Layer_1" xmlns="http://www.w3.org/2000/svg" xmlns:xlink="http://www.w3.org/1999/xlink" x="0px" y="0px"
	 width="60px" height="60px" viewBox="0 0 60 60" enable-background="new 0 0 60 60" xml:space="preserve">
<g>
	<path fill="#231F20" d="M1,60h48c0.553,0,1-0.448,1-1V27.338c0-0.552-0.447-1-1-1c-0.553,0-1,0.448-1,1V58H2V8h39.488
		c0.553,0,1-0.448,1-1c0-0.552-0.447-1-1-1H1C0.447,6,0,6.448,0,7v52C0,59.552,0.447,60,1,60z"/>
	<path fill="#231F20" d="M29.221,25.466l-3,7c-0.161,0.376-0.077,0.812,0.212,1.101c0.191,0.191,0.447,0.293,0.707,0.293
		c0.133,0,0.267-0.026,0.394-0.081l7-3c0.117-0.05,0.224-0.122,0.313-0.212l24-24c1.013-1.013,1.284-2.421,0.727-3.767
		c-0.639-1.542-2.223-2.66-3.768-2.66c-0.891,0-1.711,0.35-2.373,1.013l-24,24C29.343,25.243,29.271,25.349,29.221,25.466z
		 M54.847,2.567c0.287-0.287,0.601-0.427,0.959-0.427c0.745,0,1.589,0.626,1.92,1.425c0.252,0.607,0.153,1.141-0.293,1.587
		L55.14,7.446L52.554,4.86L54.847,2.567z M51.14,6.274l2.586,2.586L33.568,29.017l-4.524,1.94l1.94-4.525L51.14,6.274z"/>
</g>
</svg>
