<?xml version="1.0" encoding="utf-8"?>
<!-- Generator: Adobe Illustrator 17.0.0, SVG Export Plug-In . SVG Version: 6.00 Build 0)  -->
<!DOCTYPE svg PUBLIC "-//W3C//DTD SVG 1.1//EN" "http://www.w3.org/Graphics/SVG/1.1/DTD/svg11.dtd">
<svg version="1.1" id="Layer_1" xmlns="http://www.w3.org/2000/svg" xmlns:xlink="http://www.w3.org/1999/xlink" x="0px" y="0px"
	 width="60px" height="60px" viewBox="0 0 60 60" enable-background="new 0 0 60 60" xml:space="preserve">
<g>
	<path fill="#231F20" d="M21.043,45.21c-0.16,0.528,0.138,1.087,0.666,1.247c2.778,0.844,6.042,1.021,8.291,1.021
		c8.553,0,16.202-4.456,21.112-8.193c5.282-4.021,8.528-7.987,8.664-8.154c0.303-0.374,0.298-0.909-0.012-1.276
		c-0.16-0.19-3.999-4.698-10.178-9.165c-0.447-0.323-1.072-0.223-1.396,0.225c-0.323,0.448-0.223,1.073,0.225,1.396
		c4.644,3.357,7.984,6.811,9.256,8.2C55.057,33.451,43.537,45.478,30,45.478c-2.113,0-5.167-0.162-7.71-0.935
		C21.764,44.385,21.205,44.682,21.043,45.21z"/>
	<path fill="#231F20" d="M0.205,29.893c-0.277,0.363-0.273,0.869,0.011,1.227c3.345,4.224,3.913,4.627,7.611,7.254
		c0.724,0.515,1.572,1.117,2.592,1.855c0.177,0.128,0.382,0.19,0.585,0.19c0.31,0,0.615-0.143,0.811-0.414
		c0.324-0.447,0.224-1.072-0.224-1.396c-1.025-0.742-1.878-1.348-2.606-1.866c-3.378-2.399-3.974-2.822-6.704-6.239
		C4.759,27.522,16.36,14.5,30,14.5c1.967,0,3.623,0.424,5.54,0.915l0.212,0.054c0.537,0.14,1.08-0.186,1.216-0.721
		c0.137-0.535-0.186-1.08-0.721-1.216l-0.212-0.054C34.073,12.975,32.219,12.5,30,12.5C13.676,12.5,0.748,29.183,0.205,29.893z"/>
	<path fill="#231F20" d="M21,30.5c0-5.047,3.953-9,9-9c0.552,0,1-0.448,1-1c0-0.552-0.448-1-1-1c-6.169,0-11,4.832-11,11
		c0,0.552,0.448,1,1,1S21,31.052,21,30.5z"/>
	<path fill="#231F20" d="M41,29.5c0-0.552-0.448-1-1-1s-1,0.448-1,1c0,5.047-3.953,9-9,9c-0.552,0-1,0.448-1,1c0,0.552,0.448,1,1,1
		C36.169,40.5,41,35.669,41,29.5z"/>
	<path fill="#231F20" d="M53.286,4.8l-48,49c-0.387,0.395-0.38,1.027,0.015,1.414C5.495,55.405,5.748,55.5,6,55.5
		c0.259,0,0.519-0.1,0.714-0.3l48-49c0.387-0.394,0.38-1.027-0.015-1.414C54.307,4.4,53.672,4.406,53.286,4.8z"/>
</g>
</svg>
