<?xml version="1.0" encoding="utf-8"?>
<!-- Generator: Adobe Illustrator 17.0.0, SVG Export Plug-In . SVG Version: 6.00 Build 0)  -->
<!DOCTYPE svg PUBLIC "-//W3C//DTD SVG 1.1//EN" "http://www.w3.org/Graphics/SVG/1.1/DTD/svg11.dtd">
<svg version="1.1" id="Layer_1" xmlns="http://www.w3.org/2000/svg" xmlns:xlink="http://www.w3.org/1999/xlink" x="0px" y="0px"
	 width="60px" height="60px" viewBox="0 0 60 60" enable-background="new 0 0 60 60" xml:space="preserve">
<g>
	<path fill="#231F20" d="M1.259,60h32c0.553,0,1-0.448,1-1c0-8.861-4.569-14.508-12-14.969V42h1c0.553,0,1-0.448,1-1v-4
		c0-0.552-0.447-1-1-1h-12c-0.553,0-1,0.448-1,1v4c0,0.552,0.447,1,1,1h1v2.031c-7.431,0.461-12,6.108-12,14.969
		C0.259,59.552,0.706,60,1.259,60z M13.259,46c0.553,0,1-0.448,1-1v-4c0-0.552-0.447-1-1-1h-1v-2h10v2h-1c-0.553,0-1,0.448-1,1v4
		c0,0.552,0.447,1,1,1c6.602,0,10.652,4.463,10.979,12H2.28C2.606,50.463,6.657,46,13.259,46z"/>
	<path fill="#231F20" d="M50.259,1c0-0.346-0.179-0.667-0.473-0.85c-0.293-0.183-0.662-0.2-0.971-0.047
		c-2.587,1.28-6.753,4.05-10.688,7.986c-7.649,7.648-10.927,15.738-8.21,19.839l-3.365,3.365c-0.391,0.391-0.391,1.023,0,1.414
		C26.747,32.902,27.003,33,27.259,33c0.256,0,0.512-0.098,0.707-0.293l3.361-3.361c1.327,0.94,3.125,1.453,5.197,1.453
		c0.053,0,0.107,0,0.16-0.001c4.774-0.06,10.12-2.717,14.299-7.108c0.275-0.29,0.352-0.716,0.194-1.083
		C51.021,22.238,50.659,22,50.259,22H38.673l2.126-2.126C40.938,19.948,41.09,20,41.259,20h12c0.553,0,1-0.448,1-1
		c0-0.552-0.447-1-1-1H42.673l2-2h11.586c0.393,0,0.751-0.231,0.912-0.59c3.153-7.019,3.406-11.505,0.795-14.117
		c-0.391-0.391-1.023-0.391-1.414,0l-6.293,6.293V1z M39.541,9.503c3.078-3.078,6.351-5.433,8.718-6.821v6.904l-4.706,4.706
		c-0.001,0.001-0.001,0.001-0.002,0.002l-7.998,7.998c-0.001,0.001-0.001,0.001-0.002,0.002l-4.162,4.162
		C29.705,23.106,33.028,16.016,39.541,9.503z M47.762,24c-3.469,2.992-7.49,4.752-11.102,4.798
		c-1.589,0.019-2.913-0.294-3.895-0.889L36.673,24H47.762z M55.607,14h-8.935l3.292-3.292c0.001-0.001,0.001-0.001,0.002-0.002
		l7.19-7.19C58.289,5.549,57.78,8.998,55.607,14z"/>
</g>
</svg>
