<?xml version="1.0" encoding="utf-8"?>
<!-- Generator: Adobe Illustrator 17.0.0, SVG Export Plug-In . SVG Version: 6.00 Build 0)  -->
<!DOCTYPE svg PUBLIC "-//W3C//DTD SVG 1.1//EN" "http://www.w3.org/Graphics/SVG/1.1/DTD/svg11.dtd">
<svg version="1.1" id="Layer_1" xmlns="http://www.w3.org/2000/svg" xmlns:xlink="http://www.w3.org/1999/xlink" x="0px" y="0px"
	 width="60px" height="60px" viewBox="0 0 60 60" enable-background="new 0 0 60 60" xml:space="preserve">
<g>
	<path fill="#231F20" d="M13,41c-2.757,0-5,2.243-5,5c0,2.757,2.243,5,5,5c2.757,0,5-2.243,5-5C18,43.243,15.757,41,13,41z M13,49
		c-1.654,0-3-1.346-3-3s1.346-3,3-3s3,1.346,3,3S14.654,49,13,49z"/>
	<path fill="#231F20" d="M27.81,23.775C25.407,22.612,22.381,22,19,22C8.523,22,0,30.523,0,41c0,10.477,8.523,19,19,19
		c10.477,0,19-8.523,19-19c0-2.607-0.602-5.227-1.791-7.795L43.414,26H48v-4.586L48.414,21H53v-4.586L53.414,16H58v-4.642l2-2.435V0
		h-8.414L27.81,23.775z M58,2v6.208l-2,2.435V14h-3.414L51,15.586V19h-3.414L46,20.586V24h-3.414l-8.804,8.804l0.325,0.646
		C35.381,35.981,36,38.451,36,41c0,9.374-7.626,17-17,17S2,50.374,2,41s7.626-17,17-17c3.366,0,6.31,0.648,8.514,1.874l0.66,0.367
		L52.414,2H58z"/>
</g>
</svg>
