<?xml version="1.0" encoding="utf-8"?>
<!-- Generator: Adobe Illustrator 17.0.0, SVG Export Plug-In . SVG Version: 6.00 Build 0)  -->
<!DOCTYPE svg PUBLIC "-//W3C//DTD SVG 1.1//EN" "http://www.w3.org/Graphics/SVG/1.1/DTD/svg11.dtd">
<svg version="1.1" id="Layer_1" xmlns="http://www.w3.org/2000/svg" xmlns:xlink="http://www.w3.org/1999/xlink" x="0px" y="0px"
	 width="60px" height="60px" viewBox="0 0 60 60" enable-background="new 0 0 60 60" xml:space="preserve">
<g>
	<path fill="#231F20" d="M48.413,18h-9.587c-0.552,0-1,0.448-1,1c0,0.552,0.448,1,1,1h9.587C53.148,20,57,24.038,57,29v2
		c0,4.962-3.813,9-8.5,9H39c-0.552,0-1,0.448-1,1c0,0.552,0.448,1,1,1h9.5C54.29,42,59,37.065,59,31v-2
		C59,22.935,54.25,18,48.413,18z"/>
	<path fill="#231F20" d="M1,29v2c0,6.065,4.71,11,10.5,11H21c0.552,0,1-0.448,1-1c0-0.552-0.448-1-1-1h-9.5C6.813,40,3,35.962,3,31
		v-2c0-4.962,3.852-9,8.587-9h9.587c0.552,0,1-0.448,1-1c0-0.552-0.448-1-1-1h-9.587C5.75,18,1,22.935,1,29z"/>
	<path fill="#231F20" d="M30,16c0.552,0,1-0.448,1-1V7c0-0.552-0.448-1-1-1s-1,0.448-1,1v8C29,15.552,29.448,16,30,16z"/>
	<path fill="#231F20" d="M38.707,14.707l4-4c0.391-0.391,0.391-1.023,0-1.414c-0.391-0.391-1.023-0.391-1.414,0l-4,4
		c-0.391,0.391-0.391,1.023,0,1.414C37.488,14.902,37.744,15,38,15S38.512,14.902,38.707,14.707z"/>
	<path fill="#231F20" d="M19.711,9.253c-0.389-0.393-1.021-0.396-1.414-0.008c-0.393,0.389-0.396,1.021-0.008,1.414l4,4.043
		C22.485,14.901,22.742,15,23,15c0.254,0,0.508-0.096,0.703-0.289c0.393-0.389,0.396-1.021,0.008-1.414L19.711,9.253z"/>
	<path fill="#231F20" d="M29,53c0,0.552,0.448,1,1,1s1-0.448,1-1v-8c0-0.552-0.448-1-1-1s-1,0.448-1,1V53z"/>
	<path fill="#231F20" d="M36.293,46.293c-0.391,0.391-0.391,1.023,0,1.414l4,4C40.488,51.902,40.744,52,41,52
		s0.512-0.098,0.707-0.293c0.391-0.391,0.391-1.023,0-1.414l-4-4C37.316,45.902,36.684,45.902,36.293,46.293z"/>
	<path fill="#231F20" d="M22.293,46.293l-4,4c-0.391,0.391-0.391,1.023,0,1.414C18.488,51.902,18.744,52,19,52
		s0.512-0.098,0.707-0.293l4-4c0.391-0.391,0.391-1.023,0-1.414C23.316,45.902,22.684,45.902,22.293,46.293z"/>
</g>
</svg>
