<?xml version="1.0" encoding="utf-8"?>
<!-- Generator: Adobe Illustrator 17.0.0, SVG Export Plug-In . SVG Version: 6.00 Build 0)  -->
<!DOCTYPE svg PUBLIC "-//W3C//DTD SVG 1.1//EN" "http://www.w3.org/Graphics/SVG/1.1/DTD/svg11.dtd">
<svg version="1.1" id="Layer_1" xmlns="http://www.w3.org/2000/svg" xmlns:xlink="http://www.w3.org/1999/xlink" x="0px" y="0px"
	 width="60px" height="60px" viewBox="0 0 60 60" enable-background="new 0 0 60 60" xml:space="preserve">
<g>
	<path fill="#231F20" d="M42.293,31.293c-0.665,0.665-1.482,0.935-2.422,0.801c-1.039-0.147-2.133-0.769-3.164-1.801
		c-0.391-0.391-1.023-0.391-1.414,0c-0.391,0.39-0.391,1.023,0,1.414c1.34,1.34,2.826,2.159,4.298,2.367
		c0.244,0.035,0.486,0.052,0.726,0.052c1.278,0,2.463-0.491,3.391-1.419L55.465,20.95c2.729-2.729,2.729-7.17,0-9.899l-6.516-6.515
		C47.632,3.218,45.874,2.493,44,2.493s-3.632,0.726-4.949,2.043L27.293,16.293c-1.111,1.111-1.598,2.582-1.367,4.142
		c0.215,1.461,1.033,2.938,2.367,4.272c0.391,0.391,1.023,0.391,1.414,0c0.391-0.391,0.391-1.023,0-1.414
		c-1.027-1.028-1.651-2.117-1.803-3.149c-0.14-0.945,0.131-1.765,0.803-2.437L40.465,5.95C41.404,5.01,42.66,4.493,44,4.493
		c1.34,0,2.596,0.518,3.535,1.457l6.516,6.515c1.949,1.95,1.949,5.122,0,7.071L42.293,31.293z"/>
	<path fill="#231F20" d="M19.293,40.707C19.488,40.902,19.744,41,20,41c0.256,0,0.512-0.098,0.707-0.293l20-20
		c0.391-0.391,0.391-1.023,0-1.414c-0.391-0.391-1.023-0.391-1.414,0l-20,20C18.902,39.684,18.902,40.316,19.293,40.707z"/>
	<path fill="#231F20" d="M16.296,27.29L4.556,38.935C3.232,40.247,2.502,42,2.498,43.873c-0.005,1.872,0.719,3.629,2.037,4.947
		l6.646,6.645c1.314,1.314,3.065,2.038,4.933,2.038c0.005,0,0.01,0,0.016,0c1.871-0.004,3.625-0.735,4.936-2.058l11.642-11.737
		c1.111-1.111,1.598-2.582,1.368-4.141c-0.215-1.461-1.034-2.938-2.368-4.273c-0.391-0.391-1.023-0.391-1.414,0
		c-0.391,0.39-0.391,1.023,0,1.414c1.028,1.028,1.651,2.117,1.804,3.15c0.139,0.944-0.132,1.764-0.807,2.439l-11.644,11.74
		c-0.935,0.943-2.185,1.463-3.521,1.466c-0.004,0-0.007,0-0.011,0c-1.332,0-2.582-0.516-3.519-1.452l-6.646-6.645
		c-0.938-0.94-1.454-2.192-1.452-3.529c0.003-1.336,0.524-2.587,1.467-3.522l11.743-11.648c1.691-1.69,3.994-0.591,5.586,1
		c0.391,0.391,1.023,0.391,1.414,0c0.391-0.391,0.391-1.024,0-1.414C21.892,25.477,18.511,25.076,16.296,27.29z"/>
</g>
</svg>
