<?xml version="1.0" encoding="utf-8"?>
<!-- Generator: Adobe Illustrator 17.0.0, SVG Export Plug-In . SVG Version: 6.00 Build 0)  -->
<!DOCTYPE svg PUBLIC "-//W3C//DTD SVG 1.1//EN" "http://www.w3.org/Graphics/SVG/1.1/DTD/svg11.dtd">
<svg version="1.1" id="Layer_1" xmlns="http://www.w3.org/2000/svg" xmlns:xlink="http://www.w3.org/1999/xlink" x="0px" y="0px"
	 width="60px" height="60px" viewBox="0 0 60 60" enable-background="new 0 0 60 60" xml:space="preserve">
<g>
	<path fill="#231F20" d="M20.292,25.122l-11,11c-3.364,3.364-3.364,9.049,0,12.414l2,2c1.567,1.567,3.635,2.414,5.871,2.414
		c0.166,0,0.333-0.005,0.501-0.014c2.525-0.142,4.96-1.317,7.043-3.4l8-8c0.391-0.391,0.391-1.023,0-1.414
		c-0.391-0.391-1.023-0.391-1.414,0l-8,8c-1.729,1.729-3.715,2.704-5.741,2.817c-1.846,0.103-3.57-0.542-4.845-1.817l-2-2
		c-2.553-2.554-2.553-7.033,0-9.586l11-11c1.904-1.905,3.87-2.801,5.846-2.659c2.032,0.144,4.038,1.406,5.648,3.552
		c0.331,0.442,0.958,0.533,1.4,0.2c0.442-0.331,0.531-0.958,0.2-1.4c-1.962-2.617-4.486-4.161-7.105-4.347
		C25.153,21.697,22.592,22.821,20.292,25.122z"/>
	<path fill="#231F20" d="M37.292,34.122c-1.125,1.126-2.664,1.656-4.332,1.489c-1.698-0.168-3.279-1.063-4.129-2.337
		c-0.307-0.46-0.928-0.584-1.387-0.277c-0.459,0.306-0.583,0.927-0.277,1.387c1.19,1.786,3.282,2.989,5.595,3.218
		c0.27,0.027,0.537,0.04,0.801,0.04c1.967,0,3.77-0.733,5.142-2.105l12-12c1.618-1.617,2.509-3.644,2.509-5.707
		c0-2.062-0.891-4.089-2.509-5.707l-2-2c-1.63-1.629-3.848-2.723-6.084-3.002c-2.484-0.306-4.731,0.402-6.33,2.002l-9,9
		c-0.391,0.391-0.391,1.023,0,1.414c0.391,0.391,1.023,0.391,1.414,0l9-9c1.153-1.154,2.812-1.659,4.669-1.431
		c1.804,0.224,3.596,1.11,4.917,2.431l2,2c1.258,1.258,1.923,2.743,1.923,4.293c0,1.551-0.665,3.035-1.923,4.293L37.292,34.122z"/>
</g>
</svg>
