<?xml version="1.0" encoding="utf-8"?>
<!-- Generator: Adobe Illustrator 17.0.0, SVG Export Plug-In . SVG Version: 6.00 Build 0)  -->
<!DOCTYPE svg PUBLIC "-//W3C//DTD SVG 1.1//EN" "http://www.w3.org/Graphics/SVG/1.1/DTD/svg11.dtd">
<svg version="1.1" id="Layer_1" xmlns="http://www.w3.org/2000/svg" xmlns:xlink="http://www.w3.org/1999/xlink" x="0px" y="0px"
	 width="60px" height="60px" viewBox="0 0 60 60" enable-background="new 0 0 60 60" xml:space="preserve">
<g>
	<path fill="#231F20" d="M16,13c0.256,0,0.512-0.098,0.707-0.293c0.391-0.391,0.391-1.023,0-1.414l-5-5
		c-0.391-0.391-1.023-0.391-1.414,0c-0.391,0.391-0.391,1.023,0,1.414l5,5C15.488,12.902,15.744,13,16,13z"/>
	<path fill="#231F20" d="M22,4v6c0,0.552,0.447,1,1,1c0.553,0,1-0.448,1-1V4c0-0.552-0.447-1-1-1C22.447,3,22,3.448,22,4z"/>
	<path fill="#231F20" d="M7,18c-0.553,0-1,0.448-1,1c0,0.552,0.447,1,1,1h6c0.553,0,1-0.448,1-1c0-0.552-0.447-1-1-1H7z"/>
	<path fill="#231F20" d="M19.707,56.707l8-8c0.391-0.391,0.391-1.023,0-1.414c-0.391-0.391-1.023-0.391-1.414,0l-8,8
		c-3.627,3.627-7.959,3.627-11.586,0l-2-2c-3.627-3.628-3.627-7.958,0-11.586l8-8c0.391-0.391,0.391-1.023,0-1.414
		c-0.391-0.391-1.023-0.391-1.414,0l-8,8c-4.378,4.378-4.378,10.036,0,14.414l2,2c2.189,2.189,4.698,3.284,7.207,3.284
		C15.009,59.991,17.518,58.896,19.707,56.707z"/>
	<path fill="#231F20" d="M50,18H39c-0.553,0-1,0.448-1,1c0,0.552,0.447,1,1,1h11c4.112,0,8,4.341,8,8.932V34c0,4.336-3.663,8-8,8H39
		c-0.553,0-1,0.448-1,1c0,0.552,0.447,1,1,1h11c5.421,0,10-4.58,10-10v-5.068C60,23.312,55.141,18,50,18z"/>
</g>
</svg>
