<?xml version="1.0" encoding="utf-8"?>
<!-- Generator: Adobe Illustrator 17.0.0, SVG Export Plug-In . SVG Version: 6.00 Build 0)  -->
<!DOCTYPE svg PUBLIC "-//W3C//DTD SVG 1.1//EN" "http://www.w3.org/Graphics/SVG/1.1/DTD/svg11.dtd">
<svg version="1.1" id="Layer_1" xmlns="http://www.w3.org/2000/svg" xmlns:xlink="http://www.w3.org/1999/xlink" x="0px" y="0px"
	 width="60px" height="60px" viewBox="0 0 60 60" enable-background="new 0 0 60 60" xml:space="preserve">
<g>
	<path fill="#231F20" d="M38,20.956C38,15.56,33.42,11,28,11s-10,4.58-10,10c0,3.502,1.887,6.767,4.867,8.526l-3.846,18.267
		c-0.062,0.295,0.012,0.602,0.202,0.836C19.414,48.864,19.699,49,20,49h17c0.31,0,0.602-0.144,0.792-0.39
		c0.189-0.246,0.254-0.565,0.175-0.865l-4.8-18.24C36.127,27.739,38,24.469,38,20.956z M31.563,28.1
		c-0.43,0.208-0.652,0.692-0.531,1.154L35.703,47h-14.47l3.746-17.794c0.095-0.449-0.129-0.905-0.542-1.106
		C21.741,26.793,20,24.006,20,21c0-4.336,3.664-8,8-8c4.336,0,8,3.644,8,7.956C36,23.989,34.259,26.793,31.563,28.1z"/>
	<path fill="#231F20" d="M52,3H6C3.794,3,2,4.794,2,7v46c0,2.206,1.794,4,4,4h46c2.206,0,4-1.794,4-4V7C56,4.794,54.206,3,52,3z
		 M54,53c0,1.103-0.897,2-2,2H6c-1.103,0-2-0.897-2-2V7c0-1.103,0.897-2,2-2h46c1.103,0,2,0.897,2,2V53z"/>
</g>
</svg>
