<?xml version="1.0" encoding="utf-8"?>
<!-- Generator: Adobe Illustrator 17.0.0, SVG Export Plug-In . SVG Version: 6.00 Build 0)  -->
<!DOCTYPE svg PUBLIC "-//W3C//DTD SVG 1.1//EN" "http://www.w3.org/Graphics/SVG/1.1/DTD/svg11.dtd">
<svg version="1.1" id="Layer_1" xmlns="http://www.w3.org/2000/svg" xmlns:xlink="http://www.w3.org/1999/xlink" x="0px" y="0px"
	 width="60px" height="60px" viewBox="0 0 60 60" enable-background="new 0 0 60 60" xml:space="preserve">
<g>
	<path fill="#231F20" d="M42,23.832V13c0-7.065-5.346-12-13-12c-7.05,0-12.638,5.136-13,12v10.832C11.723,27.503,9,32.935,9,39
		c0,11.028,8.972,20,20,20c11.028,0,20-8.972,20-20C49,32.935,46.277,27.503,42,23.832z M17.998,13.053C18.263,8.057,22.127,3,29,3
		c6.58,0,11,4.019,11,10v9.314C36.841,20.225,33.063,19,29,19c-4.063,0-7.841,1.225-11,3.315L17.998,13.053z M29,57
		c-9.925,0-18-8.075-18-18s8.075-18,18-18s18,8.075,18,18S38.925,57,29,57z"/>
	<path fill="#231F20" d="M30,28.051V26c0-0.552-0.448-1-1-1s-1,0.448-1,1v2.051c-5.268,0.478-9.472,4.681-9.949,9.949H16
		c-0.552,0-1,0.448-1,1s0.448,1,1,1h2.051c0.478,5.268,4.681,9.472,9.949,9.949V52c0,0.552,0.448,1,1,1s1-0.448,1-1v-2.051
		c5.268-0.478,9.472-4.681,9.949-9.949H42c0.552,0,1-0.448,1-1s-0.448-1-1-1h-2.051C39.472,32.732,35.268,28.528,30,28.051z
		 M30,47.941V47c0-0.552-0.448-1-1-1s-1,0.448-1,1v0.941c-4.164-0.463-7.478-3.777-7.941-7.941H21c0.552,0,1-0.448,1-1s-0.448-1-1-1
		h-0.941c0.463-4.164,3.777-7.478,7.941-7.941V31c0,0.552,0.448,1,1,1s1-0.448,1-1v-0.941c4.164,0.463,7.478,3.777,7.941,7.941H37
		c-0.552,0-1,0.448-1,1s0.448,1,1,1h0.941C37.478,44.164,34.164,47.478,30,47.941z"/>
	<circle fill="#231F20" cx="29" cy="39" r="2"/>
</g>
</svg>
