<?xml version="1.0" encoding="utf-8"?>
<!-- Generator: Adobe Illustrator 17.0.0, SVG Export Plug-In . SVG Version: 6.00 Build 0)  -->
<!DOCTYPE svg PUBLIC "-//W3C//DTD SVG 1.1//EN" "http://www.w3.org/Graphics/SVG/1.1/DTD/svg11.dtd">
<svg version="1.1" id="Layer_1" xmlns="http://www.w3.org/2000/svg" xmlns:xlink="http://www.w3.org/1999/xlink" x="0px" y="0px"
	 width="60px" height="60px" viewBox="0 0 60 60" enable-background="new 0 0 60 60" xml:space="preserve">
<g>
	<path fill="#231F20" d="M30,0C13.458,0,0,13.458,0,30s13.458,30,30,30s30-13.458,30-30S46.542,0,30,0z M30,58
		C14.56,58,2,45.44,2,30S14.56,2,30,2s28,12.56,28,28S45.44,58,30,58z"/>
	<path fill="#231F20" d="M40,21.956C40,16.56,35.42,12,30,12s-10,4.58-10,10c0,3.502,1.887,6.767,4.867,8.526l-3.846,18.267
		c-0.062,0.295,0.012,0.602,0.202,0.836C21.414,49.864,21.699,50,22,50h17c0.31,0,0.602-0.144,0.792-0.39
		c0.189-0.246,0.254-0.565,0.175-0.865l-4.8-18.24C38.127,28.739,40,25.469,40,21.956z M33.563,29.1
		c-0.43,0.208-0.652,0.692-0.531,1.154L37.703,48h-14.47l3.746-17.794c0.095-0.449-0.129-0.905-0.542-1.106
		C23.741,27.793,22,25.006,22,22c0-4.336,3.664-8,8-8c4.336,0,8,3.644,8,7.956C38,24.989,36.259,27.793,33.563,29.1z"/>
</g>
</svg>
