<?xml version="1.0" encoding="utf-8"?>
<!-- Generator: Adobe Illustrator 17.0.0, SVG Export Plug-In . SVG Version: 6.00 Build 0)  -->
<!DOCTYPE svg PUBLIC "-//W3C//DTD SVG 1.1//EN" "http://www.w3.org/Graphics/SVG/1.1/DTD/svg11.dtd">
<svg version="1.1" id="Layer_1" xmlns="http://www.w3.org/2000/svg" xmlns:xlink="http://www.w3.org/1999/xlink" x="0px" y="0px"
	 width="60px" height="60px" viewBox="0 0 60 60" enable-background="new 0 0 60 60" xml:space="preserve">
<g>
	<path fill="#231F20" d="M28,39.722v6.844c0,0.552,0.447,1,1,1c0.553,0,1-0.448,1-1v-6.844c0.595-0.347,1-0.985,1-1.722
		c0-1.103-0.898-2-2-2c-1.103,0-2,0.897-2,2C27,38.737,27.405,39.375,28,39.722z"/>
	<path fill="#231F20" d="M44,16c0-7.727-6.027-16-15-16c-8.973,0-15,8.273-15,16v8H8v36h42V24h-6V16z M16,16c0-6.761,5.224-14,13-14
		c7.776,0,13,7.239,13,14v8H16V16z M48,58H10V26h38V58z"/>
</g>
</svg>
