<?xml version="1.0" encoding="utf-8"?>
<!-- Generator: Adobe Illustrator 17.0.0, SVG Export Plug-In . SVG Version: 6.00 Build 0)  -->
<!DOCTYPE svg PUBLIC "-//W3C//DTD SVG 1.1//EN" "http://www.w3.org/Graphics/SVG/1.1/DTD/svg11.dtd">
<svg version="1.1" id="Layer_1" xmlns="http://www.w3.org/2000/svg" xmlns:xlink="http://www.w3.org/1999/xlink" x="0px" y="0px"
	 width="60px" height="60px" viewBox="0 0 60 60" enable-background="new 0 0 60 60" xml:space="preserve">
<g>
	<path fill="#231F20" d="M3,58c0.256,0,0.512-0.098,0.707-0.293L8,53.414l1.293,1.293C9.488,54.902,9.744,55,10,55
		c0.256,0,0.512-0.098,0.707-0.293l5.793-5.793l0.793,0.793C17.488,49.902,17.744,50,18,50c0.256,0,0.512-0.098,0.707-0.293l24-24
		l15-15c0.391-0.391,0.391-1.023,0-1.414l-7-7c-0.391-0.391-1.023-0.391-1.414,0l-1.354,1.354C46.93,2.92,45.741,2.522,44.5,2.522
		c-1.571,0-3.065,0.629-4.207,1.771l-14,14c-0.391,0.391-0.391,1.023,0,1.414C26.488,19.902,26.744,20,27,20
		c0.256,0,0.512-0.098,0.707-0.293l14-14c1.282-1.283,3.266-1.474,4.775-0.603L34.293,17.293l-24,24
		c-0.391,0.391-0.391,1.023,0,1.414l0.793,0.793l-5.793,5.793c-0.391,0.391-0.391,1.023,0,1.414L6.586,52l-4.293,4.293
		c-0.391,0.391-0.391,1.023,0,1.414C2.488,57.902,2.744,58,3,58z M48.706,5.708c0,0,0.001,0,0.001-0.001s0-0.001,0.001-0.001
		L50,4.414L55.586,10L42,23.586L36.414,18L48.706,5.708z M35,19.414L40.586,25L18,47.586L12.414,42L35,19.414z M12,45.414L14.586,48
		L10,52.586L7.414,50L12,45.414z"/>
</g>
</svg>
