<?xml version="1.0" encoding="utf-8"?>
<!-- Generator: Adobe Illustrator 17.0.0, SVG Export Plug-In . SVG Version: 6.00 Build 0)  -->
<!DOCTYPE svg PUBLIC "-//W3C//DTD SVG 1.1//EN" "http://www.w3.org/Graphics/SVG/1.1/DTD/svg11.dtd">
<svg version="1.1" id="Layer_1" xmlns="http://www.w3.org/2000/svg" xmlns:xlink="http://www.w3.org/1999/xlink" x="0px" y="0px"
	 width="60px" height="60px" viewBox="0 0 60 60" enable-background="new 0 0 60 60" xml:space="preserve">
<g>
	<path fill="#231F20" d="M4,57c0.13,0,0.261-0.025,0.385-0.077l11.99-4.996c0.001,0,0.002-0.001,0.002-0.001l0.007-0.003
		c0.11-0.046,0.204-0.115,0.289-0.194c0.01-0.009,0.023-0.012,0.033-0.022l25-25l15-15c0.391-0.391,0.391-1.023,0-1.414l-7-7
		c-0.391-0.391-1.023-0.391-1.414,0l-1.354,1.354c-1.009-0.727-2.198-1.125-3.438-1.125H43.5c-1.571,0-3.065,0.629-4.207,1.771
		l-14,14c-0.391,0.391-0.391,1.023,0,1.414C25.488,20.902,25.744,21,26,21c0.256,0,0.512-0.098,0.707-0.293l14-14
		c0.765-0.765,1.756-1.185,2.793-1.185c0,0,0,0,0.001,0c0.705,0,1.383,0.209,1.989,0.574L33.293,18.293l-25,25
		c-0.01,0.01-0.013,0.023-0.022,0.033c-0.079,0.085-0.148,0.179-0.194,0.289l-0.003,0.007c0,0.001-0.001,0.002-0.001,0.002
		l-4.996,11.99c-0.156,0.374-0.07,0.805,0.216,1.092C3.484,56.898,3.74,57,4,57z M47.706,6.708c0,0,0.001,0,0.001-0.001
		s0-0.001,0.001-0.001L49,5.414L54.586,11L41,24.586L35.414,19L47.706,6.708z M34,20.414L39.586,26L16,49.586L10.414,44L34,20.414z
		 M9.349,45.763l4.889,4.888l-8.38,3.492L9.349,45.763z"/>
</g>
</svg>
