<?xml version="1.0" encoding="utf-8"?>
<!-- Generator: Adobe Illustrator 17.0.0, SVG Export Plug-In . SVG Version: 6.00 Build 0)  -->
<!DOCTYPE svg PUBLIC "-//W3C//DTD SVG 1.1//EN" "http://www.w3.org/Graphics/SVG/1.1/DTD/svg11.dtd">
<svg version="1.1" id="Layer_1" xmlns="http://www.w3.org/2000/svg" xmlns:xlink="http://www.w3.org/1999/xlink" x="0px" y="0px"
	 width="60px" height="60px" viewBox="0 0 60 60" enable-background="new 0 0 60 60" xml:space="preserve">
<g>
	<path fill="#231F20" d="M1.466,59.534c0.081,0,0.162-0.01,0.243-0.03l16-4c0.03-0.008,0.056-0.024,0.085-0.034
		c0.03-0.01,0.057-0.021,0.086-0.034c0.108-0.049,0.209-0.11,0.294-0.195l39-39c2.338-2.339,3.432-5.981,1-8.414l-6-6
		c-0.891-0.891-2.035-1.361-3.308-1.361c-1.719,0-3.627,0.883-5.106,2.361l-39,39c-0.085,0.084-0.146,0.186-0.195,0.294
		c-0.013,0.028-0.024,0.056-0.034,0.085c-0.01,0.029-0.027,0.056-0.034,0.086l-4,16c-0.085,0.341,0.015,0.701,0.263,0.95
		C0.949,59.431,1.204,59.534,1.466,59.534z M40.466,8.948l10.586,10.586L17.466,53.12L6.88,42.534L40.466,8.948z M43.466,5.948
		l10.586,10.586l-1.586,1.586L41.88,7.534L43.466,5.948z M48.865,2.466c0.742,0,1.379,0.261,1.894,0.775l6,6
		c1.504,1.505,0.636,3.949-1,5.586l-0.293,0.293L44.88,4.534l0.293-0.293C46.269,3.146,47.683,2.466,48.865,2.466z M6.008,44.49
		l9.503,9.503L2.84,57.16L6.008,44.49z"/>
</g>
</svg>
