<?xml version="1.0" encoding="utf-8"?>
<!-- Generator: Adobe Illustrator 17.0.0, SVG Export Plug-In . SVG Version: 6.00 Build 0)  -->
<!DOCTYPE svg PUBLIC "-//W3C//DTD SVG 1.1//EN" "http://www.w3.org/Graphics/SVG/1.1/DTD/svg11.dtd">
<svg version="1.1" id="Layer_1" xmlns="http://www.w3.org/2000/svg" xmlns:xlink="http://www.w3.org/1999/xlink" x="0px" y="0px"
	 width="60px" height="60px" viewBox="0 0 60 60" enable-background="new 0 0 60 60" xml:space="preserve">
<g>
	<path fill="#231F20" d="M1.762,59.239c0.151,0,0.305-0.035,0.447-0.106l14-7c0.096-0.048,0.184-0.111,0.26-0.188l41-41
		c1.142-1.142,1.77-2.636,1.77-4.207c0-1.572-0.628-3.066-1.77-4.207c-1.141-1.142-2.635-1.77-4.207-1.77
		c-1.572,0-3.066,0.628-4.207,1.77l-41,41c-0.076,0.076-0.139,0.164-0.188,0.26l-7,14c-0.192,0.385-0.117,0.85,0.188,1.154
		C1.246,59.138,1.502,59.239,1.762,59.239z M46.761,7.653l5.586,5.586L15.761,49.825l-5.586-5.586L46.761,7.653z M50.468,3.946
		c1.527-1.527,4.059-1.527,5.586,0c0.764,0.764,1.184,1.755,1.184,2.793c0,1.037-0.42,2.029-1.184,2.793l-2.293,2.293l-5.586-5.586
		L50.468,3.946z M9.035,45.927l5.038,5.038L3.997,56.003L9.035,45.927z"/>
</g>
</svg>
