<?xml version="1.0" encoding="utf-8"?>
<!-- Generator: Adobe Illustrator 17.0.0, SVG Export Plug-In . SVG Version: 6.00 Build 0)  -->
<!DOCTYPE svg PUBLIC "-//W3C//DTD SVG 1.1//EN" "http://www.w3.org/Graphics/SVG/1.1/DTD/svg11.dtd">
<svg version="1.1" id="Layer_1" xmlns="http://www.w3.org/2000/svg" xmlns:xlink="http://www.w3.org/1999/xlink" x="0px" y="0px"
	 width="60px" height="60px" viewBox="0 0 60 60" enable-background="new 0 0 60 60" xml:space="preserve">
<g>
	<path fill="#231F20" d="M1,60c0.094,0,0.19-0.013,0.282-0.04l17-5c0.03-0.009,0.056-0.025,0.084-0.037
		c0.041-0.016,0.082-0.031,0.121-0.053c0.033-0.019,0.062-0.042,0.093-0.065c0.036-0.026,0.072-0.051,0.105-0.082
		c0.007-0.006,0.015-0.01,0.021-0.017l30-30l8.171-8.171c1.95-1.95,1.95-5.122,0-7.071l-6.343-6.343c-1.949-1.95-5.122-1.95-7.071,0
		l-8.171,8.171l-30,30c-0.038,0.038-0.067,0.083-0.099,0.127c-0.012,0.016-0.026,0.03-0.037,0.047
		c-0.05,0.078-0.091,0.161-0.117,0.251l-5,17c-0.103,0.351-0.006,0.73,0.253,0.989C0.483,59.898,0.739,60,1,60z M9.707,55.293l-5-5
		c-0.026-0.026-0.059-0.035-0.087-0.058l1.735-5.9l0.813,1.219C7.354,45.833,7.665,46,8,46h6v6c0,0.335,0.167,0.647,0.445,0.832
		l1.219,0.813l-5.9,1.735C9.742,55.352,9.733,55.319,9.707,55.293z M40,9.414L50.586,20L48,22.586L37.414,12L40,9.414z M36,13.414
		L40.586,18l-26,26H8.535l-1.248-1.873L36,13.414z M17.873,52.713L16,51.465v-6.051l26-26L46.586,24L17.873,52.713z M44.878,4.536
		c1.17-1.17,3.073-1.17,4.243,0l6.343,6.343c1.17,1.17,1.17,3.073,0,4.243L52,18.586L41.414,8L44.878,4.536z M3.984,52.398
		l3.618,3.618l-5.125,1.507L3.984,52.398z"/>
</g>
</svg>
