<?xml version="1.0" encoding="utf-8"?>
<!-- Generator: Adobe Illustrator 17.0.0, SVG Export Plug-In . SVG Version: 6.00 Build 0)  -->
<!DOCTYPE svg PUBLIC "-//W3C//DTD SVG 1.1//EN" "http://www.w3.org/Graphics/SVG/1.1/DTD/svg11.dtd">
<svg version="1.1" id="Layer_1" xmlns="http://www.w3.org/2000/svg" xmlns:xlink="http://www.w3.org/1999/xlink" x="0px" y="0px"
	 width="60px" height="60px" viewBox="0 0 60 60" enable-background="new 0 0 60 60" xml:space="preserve">
<g>
	<path fill="#231F20" d="M41.707,0.293c-0.391-0.391-1.023-0.391-1.414,0l-5,5c-0.391,0.391-0.391,1.023,0,1.414L37.586,9l-11,11H16
		c-0.265,0-0.52,0.106-0.707,0.293l-4,4c-0.391,0.391-0.391,1.023,0,1.414L22.086,36.5L0.293,58.293
		c-0.391,0.391-0.391,1.023,0,1.414C0.488,59.902,0.744,60,1,60s0.512-0.098,0.707-0.293L23.5,37.914l10.793,10.793
		C34.488,48.902,34.744,49,35,49s0.512-0.098,0.707-0.293l4-4C39.894,44.52,40,44.265,40,44V33.414l11-11l2.293,2.293
		c0.391,0.391,1.023,0.391,1.414,0l5-5c0.391-0.391,0.391-1.023,0-1.414L41.707,0.293z M54,22.586l-2.293-2.293
		c-0.391-0.391-1.023-0.391-1.414,0l-12,12C38.105,32.481,38,32.735,38,33v10.586l-3,3L13.414,25l3-3H27
		c0.265,0,0.519-0.105,0.707-0.293l12-12c0.391-0.391,0.391-1.023,0-1.414L37.414,6L41,2.414L57.586,19L54,22.586z"/>
</g>
</svg>
