<?xml version="1.0" encoding="utf-8"?>
<!-- Generator: Adobe Illustrator 17.0.0, SVG Export Plug-In . SVG Version: 6.00 Build 0)  -->
<!DOCTYPE svg PUBLIC "-//W3C//DTD SVG 1.1//EN" "http://www.w3.org/Graphics/SVG/1.1/DTD/svg11.dtd">
<svg version="1.1" id="Layer_1" xmlns="http://www.w3.org/2000/svg" xmlns:xlink="http://www.w3.org/1999/xlink" x="0px" y="0px"
	 width="60px" height="60px" viewBox="0 0 60 60" enable-background="new 0 0 60 60" xml:space="preserve">
<g>
	<path fill="#231F20" d="M35.441,0.083c-0.437-0.189-0.944-0.045-1.217,0.344l-25.218,36c-0.214,0.306-0.24,0.705-0.067,1.035
		C9.111,37.793,9.453,38,9.826,38h18.919l-4.764,20.776c-0.105,0.461,0.126,0.934,0.556,1.132C24.672,59.97,24.815,60,24.956,60
		c0.309,0,0.609-0.143,0.803-0.404l25.218-34c0.226-0.303,0.261-0.708,0.091-1.045S50.552,24,50.174,24H31.232l4.79-22.794
		C36.12,0.741,35.878,0.272,35.441,0.083z M29.021,24.794c-0.062,0.295,0.012,0.602,0.202,0.836C29.413,25.864,29.698,26,30,26
		h18.188l-21.19,28.568l3.977-17.345c0.068-0.297-0.003-0.608-0.192-0.847C30.593,36.139,30.305,36,30,36H11.748L33.06,5.574
		L29.021,24.794z"/>
</g>
</svg>
