<?xml version="1.0" encoding="utf-8"?>
<!-- Generator: Adobe Illustrator 17.0.0, SVG Export Plug-In . SVG Version: 6.00 Build 0)  -->
<!DOCTYPE svg PUBLIC "-//W3C//DTD SVG 1.1//EN" "http://www.w3.org/Graphics/SVG/1.1/DTD/svg11.dtd">
<svg version="1.1" id="Layer_1" xmlns="http://www.w3.org/2000/svg" xmlns:xlink="http://www.w3.org/1999/xlink" x="0px" y="0px"
	 width="60px" height="60px" viewBox="0 0 60 60" enable-background="new 0 0 60 60" xml:space="preserve">
<g>
	<path fill="#231F20" d="M0.244,31.654C0.786,32.281,13.713,47,30,47s29.214-14.719,29.756-15.346
		c0.31-0.358,0.326-0.885,0.039-1.261C59.252,29.683,46.324,13,30,13C13.676,13,0.748,29.683,0.205,30.393
		C-0.083,30.77-0.066,31.296,0.244,31.654z M30,15c13.572,0,25.125,12.892,27.68,15.959C55.05,33.738,43.552,45,30,45
		C16.464,45,4.953,33.737,2.32,30.958C4.873,27.89,16.413,15,30,15z"/>
	<path fill="#231F20" d="M30,41c6.065,0,11-4.935,11-11c0-6.065-4.935-11-11-11c-6.065,0-11,4.935-11,11C19,36.065,23.935,41,30,41z
		 M30,21c4.962,0,9,4.038,9,9s-4.038,9-9,9s-9-4.038-9-9S25.038,21,30,21z"/>
</g>
</svg>
