<?xml version="1.0" encoding="utf-8"?>
<!-- Generator: Adobe Illustrator 17.0.0, SVG Export Plug-In . SVG Version: 6.00 Build 0)  -->
<!DOCTYPE svg PUBLIC "-//W3C//DTD SVG 1.1//EN" "http://www.w3.org/Graphics/SVG/1.1/DTD/svg11.dtd">
<svg version="1.1" id="Layer_1" xmlns="http://www.w3.org/2000/svg" xmlns:xlink="http://www.w3.org/1999/xlink" x="0px" y="0px"
	 width="60px" height="60px" viewBox="0 0 60 60" enable-background="new 0 0 60 60" xml:space="preserve">
<g>
	<path fill="#231F20" d="M11.174,35.034C10.951,35.019,10.728,35,10.5,35c-5.514,0-10,4.486-10,10c0,5.514,4.486,10,10,10
		c5.514,0,10-4.486,10-10c0-4.253-2.674-7.885-6.425-9.328l7.859-4.519l29.057,16.708c0.885,0.522,1.878,0.788,2.9,0.788
		c0.582,0,1.174-0.086,1.761-0.26c1.547-0.458,2.898-1.508,3.708-2.881c0.136-0.229,0.174-0.503,0.107-0.761
		c-0.067-0.257-0.235-0.478-0.466-0.611L35.057,30.232l23.957-14.374c0.471-0.283,0.626-0.892,0.347-1.365
		c-0.809-1.373-2.161-2.423-3.708-2.881c-1.619-0.478-3.272-0.291-4.651,0.522L21.935,28.847l-7.859-4.519
		C17.826,22.885,20.5,19.253,20.5,15c0-5.514-4.486-10-10-10c-5.514,0-10,4.486-10,10c0,5.514,4.486,10,10,10
		c0.228,0,0.451-0.019,0.674-0.034L19.929,30L11.174,35.034z M18.5,45c0,4.411-3.589,8-8,8c-4.411,0-8-3.589-8-8
		c0-4.411,3.589-8,8-8C14.911,37,18.5,40.589,18.5,45z M2.5,15c0-4.411,3.589-8,8-8c4.411,0,8,3.589,8,8c0,4.411-3.589,8-8,8
		C6.089,23,2.5,19.411,2.5,15z M52.008,13.861c0.906-0.534,1.998-0.653,3.077-0.333c0.743,0.22,1.419,0.636,1.948,1.186
		L33.082,29.085l-3.756-2.181L52.008,13.861z M27.324,28.054l29.697,17.244c-0.527,0.543-1.199,0.955-1.936,1.173
		c-1.079,0.32-2.171,0.202-3.087-0.338L23.94,30L27.324,28.054z"/>
</g>
</svg>
