<?xml version="1.0" encoding="utf-8"?>
<!-- Generator: Adobe Illustrator 17.0.0, SVG Export Plug-In . SVG Version: 6.00 Build 0)  -->
<!DOCTYPE svg PUBLIC "-//W3C//DTD SVG 1.1//EN" "http://www.w3.org/Graphics/SVG/1.1/DTD/svg11.dtd">
<svg version="1.1" id="Layer_1" xmlns="http://www.w3.org/2000/svg" xmlns:xlink="http://www.w3.org/1999/xlink" x="0px" y="0px"
	 width="60px" height="60px" viewBox="0 0 60 60" enable-background="new 0 0 60 60" xml:space="preserve">
<g>
	<path fill="#231F20" d="M41.537,20.302C43.308,23.119,46.435,25,50,25c5.514,0,10-4.486,10-10c0-5.514-4.486-10-10-10
		c-5.514,0-10,4.486-10,10c0,4.765-1.132,9.205-3.136,13.052C31.832,20.708,23.545,16,14,16c-2.707,0-11.182,1.385-13.601,3.2
		c-0.305,0.229-0.453,0.611-0.382,0.985c0.07,0.374,0.348,0.676,0.715,0.778l32.539,9.039l-32.54,9.079
		c-0.367,0.102-0.643,0.404-0.714,0.778c-0.07,0.374,0.077,0.756,0.382,0.984C2.827,42.667,11.196,44,14,44
		c9.545,0,17.832-4.707,22.864-12.052C38.868,35.795,40,40.235,40,45c0,5.514,4.486,10,10,10c5.514,0,10-4.486,10-10
		c0-5.514-4.486-10-10-10c-3.565,0-6.692,1.881-8.463,4.698c-0.602-3.504-1.778-6.777-3.451-9.698
		C39.759,27.079,40.935,23.806,41.537,20.302z M50,7c4.411,0,8,3.589,8,8c0,4.411-3.589,8-8,8c-4.411,0-8-3.589-8-8
		C42,10.589,45.589,7,50,7z M14,42c-2.054,0-6.953-0.774-10.056-1.739l30.613-8.541C29.838,38.016,22.449,42,14,42z M3.932,19.776
		C7.041,18.792,11.955,18,14,18c8.451,0,15.841,3.986,20.56,10.285L3.932,19.776z M50,37c4.411,0,8,3.589,8,8c0,4.411-3.589,8-8,8
		c-4.411,0-8-3.589-8-8C42,40.589,45.589,37,50,37z"/>
</g>
</svg>
