<?xml version="1.0" encoding="utf-8"?>
<!-- Generator: Adobe Illustrator 17.0.0, SVG Export Plug-In . SVG Version: 6.00 Build 0)  -->
<!DOCTYPE svg PUBLIC "-//W3C//DTD SVG 1.1//EN" "http://www.w3.org/Graphics/SVG/1.1/DTD/svg11.dtd">
<svg version="1.1" id="Layer_1" xmlns="http://www.w3.org/2000/svg" xmlns:xlink="http://www.w3.org/1999/xlink" x="0px" y="0px"
	 width="60px" height="60px" viewBox="0 0 60 60" enable-background="new 0 0 60 60" xml:space="preserve">
<g>
	<path fill="#231F20" d="M30,2C16.318,2,6,12.318,6,26v6c0,7.488,5.195,13.428,12,13.961V57c0,0.552,0.448,1,1,1s1-0.448,1-1V44h-1
		c-6.169,0-11-5.271-11-12v-6c0-1.03,0.082-2.027,0.199-3.008C16.307,22.901,17,17.519,17,12c0-0.552-0.448-1-1-1s-1,0.448-1,1
		c0,5.91-0.998,8.81-6.479,8.983C10.614,10.9,18.998,4,30,4s19.386,6.9,21.479,16.983C45.998,20.81,45,17.91,45,12
		c0-0.552-0.448-1-1-1s-1,0.448-1,1c0,5.519,0.693,10.901,8.801,10.992C51.918,23.973,52,24.97,52,26v6c0,6.729-4.831,12-11,12h-1
		v13c0,0.552,0.448,1,1,1s1-0.448,1-1V45.961C48.805,45.428,54,39.488,54,32v-6C54,12.318,43.682,2,30,2z"/>
	<path fill="#231F20" d="M27,44c-0.552,0-1,0.448-1,1v12c0,0.552,0.448,1,1,1s1-0.448,1-1V45C28,44.448,27.552,44,27,44z"/>
	<path fill="#231F20" d="M32,45v12c0,0.552,0.448,1,1,1s1-0.448,1-1V45c0-0.552-0.448-1-1-1S32,44.448,32,45z"/>
	<path fill="#231F20" d="M29.149,36.857l-1.261,2.522c-0.155,0.31-0.138,0.678,0.044,0.973c0.182,0.295,0.504,0.474,0.851,0.474
		h2.521c0.007,0,0.013,0,0.02,0c0.552,0,1-0.448,1-1c0-0.229-0.077-0.44-0.206-0.608l-1.18-2.361
		C30.599,36.179,29.488,36.179,29.149,36.857z"/>
	<path fill="#231F20" d="M41,41c4.962,0,9-4.038,9-9s-4.038-9-9-9s-9,4.038-9,9S36.038,41,41,41z M41,25c3.86,0,7,3.14,7,7
		c0,3.86-3.14,7-7,7c-3.86,0-7-3.14-7-7C34,28.14,37.14,25,41,25z"/>
	<path fill="#231F20" d="M19,23c-4.962,0-9,4.038-9,9s4.038,9,9,9s9-4.038,9-9S23.962,23,19,23z M19,39c-3.86,0-7-3.14-7-7
		c0-3.86,3.14-7,7-7c3.86,0,7,3.14,7,7C26,35.86,22.86,39,19,39z"/>
</g>
</svg>
