<?xml version="1.0" encoding="utf-8"?>
<!-- Generator: Adobe Illustrator 17.0.0, SVG Export Plug-In . SVG Version: 6.00 Build 0)  -->
<!DOCTYPE svg PUBLIC "-//W3C//DTD SVG 1.1//EN" "http://www.w3.org/Graphics/SVG/1.1/DTD/svg11.dtd">
<svg version="1.1" id="Layer_1" xmlns="http://www.w3.org/2000/svg" xmlns:xlink="http://www.w3.org/1999/xlink" x="0px" y="0px"
	 width="60px" height="60px" viewBox="0 0 60 60" enable-background="new 0 0 60 60" xml:space="preserve">
<g>
	<path fill="#231F20" d="M39.062,2h4c0.553,0,1-0.448,1-1s-0.447-1-1-1h-4c-4.492,0-8.275,2.563-10,6.338
		C27.338,2.563,23.555,0,19.062,0h-4c-0.553,0-1,0.448-1,1s0.447,1,1,1h4c5.047,0,9,3.953,9,9v27h-5.042c-0.553,0-1,0.448-1,1
		s0.447,1,1,1h5.042v8.913c0,0.015,0.008,0.028,0.009,0.043c-0.001,0.015-0.009,0.028-0.009,0.043c0,5.047-3.953,9-9,9h-4
		c-0.553,0-1,0.448-1,1s0.447,1,1,1h4c4.492,0,8.275-2.563,10-6.338c1.725,3.775,5.508,6.338,10,6.338h4c0.553,0,1-0.448,1-1
		s-0.447-1-1-1h-4c-5.047,0-9-3.953-9-9c0-0.015-0.008-0.028-0.009-0.043c0.001-0.015,0.009-0.028,0.009-0.043V40h5
		c0.553,0,1-0.448,1-1s-0.447-1-1-1h-5V11C30.062,5.953,34.016,2,39.062,2z"/>
</g>
</svg>
