<?xml version="1.0" encoding="utf-8"?>
<!-- Generator: Adobe Illustrator 17.0.0, SVG Export Plug-In . SVG Version: 6.00 Build 0)  -->
<!DOCTYPE svg PUBLIC "-//W3C//DTD SVG 1.1//EN" "http://www.w3.org/Graphics/SVG/1.1/DTD/svg11.dtd">
<svg version="1.1" id="Layer_1" xmlns="http://www.w3.org/2000/svg" xmlns:xlink="http://www.w3.org/1999/xlink" x="0px" y="0px"
	 width="60px" height="60px" viewBox="0 0 60 60" enable-background="new 0 0 60 60" xml:space="preserve">
<g>
	<path fill="#231F20" d="M59,18H46.041c0.407-4.894,3.833-8,8.959-8c0.552,0,1-0.448,1-1s-0.448-1-1-1
		c-4.727,0-8.341,2.282-10,6.008C43.341,10.282,39.727,8,35,8c-0.552,0-1,0.448-1,1s0.448,1,1,1c5.126,0,8.552,3.106,8.959,8H1
		c-0.552,0-1,0.448-1,1v22c0,0.552,0.448,1,1,1h42.959c-0.407,4.894-3.833,8-8.959,8c-0.552,0-1,0.448-1,1s0.448,1,1,1
		c4.727,0,8.341-2.282,10-6.008C46.659,49.718,50.273,52,55,52c0.552,0,1-0.448,1-1s-0.448-1-1-1c-5.126,0-8.552-3.106-8.959-8H59
		c0.552,0,1-0.448,1-1V19C60,18.448,59.552,18,59,18z M2,20h42v20H2V20z M58,40H46V20h12V40z"/>
</g>
</svg>
