<?xml version="1.0" encoding="utf-8"?>
<!-- Generator: Adobe Illustrator 17.0.0, SVG Export Plug-In . SVG Version: 6.00 Build 0)  -->
<!DOCTYPE svg PUBLIC "-//W3C//DTD SVG 1.1//EN" "http://www.w3.org/Graphics/SVG/1.1/DTD/svg11.dtd">
<svg version="1.1" id="Layer_1" xmlns="http://www.w3.org/2000/svg" xmlns:xlink="http://www.w3.org/1999/xlink" x="0px" y="0px"
	 width="60px" height="60px" viewBox="0 0 60 60" enable-background="new 0 0 60 60" xml:space="preserve">
<g>
	<path fill="#231F20" d="M59,18H1c-0.552,0-1,0.448-1,1v24c0,0.552,0.448,1,1,1h58c0.552,0,1-0.448,1-1V19
		C60,18.448,59.552,18,59,18z M58,42H2V20h56V42z"/>
	<path fill="#231F20" d="M9,38.261c0.552,0,1-0.448,1-1V25c0-0.552-0.448-1-1-1s-1,0.448-1,1v12.261C8,37.813,8.448,38.261,9,38.261
		z"/>
</g>
</svg>
