<?xml version="1.0" encoding="utf-8"?>
<!-- Generator: Adobe Illustrator 17.0.0, SVG Export Plug-In . SVG Version: 6.00 Build 0)  -->
<!DOCTYPE svg PUBLIC "-//W3C//DTD SVG 1.1//EN" "http://www.w3.org/Graphics/SVG/1.1/DTD/svg11.dtd">
<svg version="1.1" id="Layer_1" xmlns="http://www.w3.org/2000/svg" xmlns:xlink="http://www.w3.org/1999/xlink" x="0px" y="0px"
	 width="60px" height="60px" viewBox="0 0 60 60" enable-background="new 0 0 60 60" xml:space="preserve">
<g>
	<path fill="#231F20" d="M49.707,48.293c-0.091-0.091-0.197-0.156-0.308-0.205C51.018,46.172,52,43.7,52,41c0-6.065-4.935-11-11-11
		c-6.065,0-11,4.935-11,11c0,6.065,4.935,11,11,11c2.7,0,5.172-0.982,7.088-2.601c0.049,0.111,0.114,0.217,0.205,0.308l10,10
		C58.488,59.902,58.744,60,59,60c0.256,0,0.512-0.098,0.707-0.293c0.391-0.391,0.391-1.023,0-1.414L49.707,48.293z M41,50
		c-4.963,0-9-4.038-9-9s4.037-9,9-9c4.963,0,9,4.038,9,9S45.963,50,41,50z"/>
	<path fill="#231F20" d="M46.392,40H42v-3.696c0-0.552-0.447-1-1-1c-0.553,0-1,0.448-1,1V40h-3.695c-0.553,0-1,0.448-1,1
		c0,0.552,0.447,1,1,1H40v4.391c0,0.552,0.447,1,1,1c0.553,0,1-0.448,1-1V42h4.392c0.553,0,1-0.448,1-1
		C47.392,40.448,46.944,40,46.392,40z"/>
	<path fill="#231F20" d="M42,9c0-0.552-0.447-1-1-1c-0.553,0-1,0.448-1,1v5c0,0.552,0.447,1,1,1c0.553,0,1-0.448,1-1V9z"/>
	<path fill="#231F20" d="M41,19c-0.553,0-1,0.448-1,1v5c0,0.552,0.447,1,1,1c0.553,0,1-0.448,1-1v-5C42,19.448,41.553,19,41,19z"/>
	<path fill="#231F20" d="M1,14c0.553,0,1-0.448,1-1V9c0-0.552-0.447-1-1-1C0.447,8,0,8.448,0,9v4C0,13.552,0.447,14,1,14z"/>
	<path fill="#231F20" d="M1,24c0.553,0,1-0.448,1-1v-4c0-0.552-0.447-1-1-1c-0.553,0-1,0.448-1,1v4C0,23.552,0.447,24,1,24z"/>
	<path fill="#231F20" d="M1,34c0.553,0,1-0.448,1-1v-4c0-0.552-0.447-1-1-1c-0.553,0-1,0.448-1,1v4C0,33.552,0.447,34,1,34z"/>
	<path fill="#231F20" d="M3,0H1C0.447,0,0,0.448,0,1v2c0,0.552,0.447,1,1,1c0.553,0,1-0.448,1-1V2h1c0.553,0,1-0.448,1-1
		C4,0.448,3.553,0,3,0z"/>
	<path fill="#231F20" d="M13,0H9C8.447,0,8,0.448,8,1c0,0.552,0.447,1,1,1h4c0.553,0,1-0.448,1-1C14,0.448,13.553,0,13,0z"/>
	<path fill="#231F20" d="M23,0h-4c-0.553,0-1,0.448-1,1c0,0.552,0.447,1,1,1h4c0.553,0,1-0.448,1-1C24,0.448,23.553,0,23,0z"/>
	<path fill="#231F20" d="M3,40H2v-1c0-0.552-0.447-1-1-1c-0.553,0-1,0.448-1,1v2c0,0.552,0.447,1,1,1h2c0.553,0,1-0.448,1-1
		C4,40.448,3.553,40,3,40z"/>
	<path fill="#231F20" d="M13,40H9c-0.553,0-1,0.448-1,1c0,0.552,0.447,1,1,1h4c0.553,0,1-0.448,1-1C14,40.448,13.553,40,13,40z"/>
	<path fill="#231F20" d="M23,40h-4c-0.553,0-1,0.448-1,1c0,0.552,0.447,1,1,1h4c0.553,0,1-0.448,1-1C24,40.448,23.553,40,23,40z"/>
	<path fill="#231F20" d="M29,0c-0.553,0-1,0.448-1,1c0,0.552,0.447,1,1,1h4c0.553,0,1-0.448,1-1c0-0.552-0.447-1-1-1H29z"/>
	<path fill="#231F20" d="M42,1c0-0.552-0.447-1-1-1h-2c-0.553,0-1,0.448-1,1c0,0.552,0.447,1,1,1h1v1c0,0.552,0.447,1,1,1
		c0.553,0,1-0.448,1-1V1z"/>
</g>
</svg>
