<?xml version="1.0" encoding="utf-8"?>
<!-- Generator: Adobe Illustrator 17.0.0, SVG Export Plug-In . SVG Version: 6.00 Build 0)  -->
<!DOCTYPE svg PUBLIC "-//W3C//DTD SVG 1.1//EN" "http://www.w3.org/Graphics/SVG/1.1/DTD/svg11.dtd">
<svg version="1.1" id="Layer_2" xmlns="http://www.w3.org/2000/svg" xmlns:xlink="http://www.w3.org/1999/xlink" x="0px" y="0px"
	 width="48px" height="48px" viewBox="0 0 48 48" enable-background="new 0 0 48 48" xml:space="preserve">
<g>
	<path fill="#010101" d="M4,7v38c0,1.654,1.346,3,3,3h3V4H7C5.346,4,4,5.346,4,7z"/>
	<path fill="#010101" d="M41,4h-5V1c0-0.552-0.447-1-1-1h-8c-0.553,0-1,0.448-1,1v3H12v44h29c0.553,0,1-0.448,1-1V5
		C42,4.448,41.553,4,41,4z M34,18.585l-2.293-2.293c-0.195-0.195-0.451-0.293-0.707-0.293c-0.256,0-0.512,0.098-0.707,0.293
		L28,18.585V2h6V18.585z"/>
</g>
</svg>
