<?xml version="1.0" encoding="utf-8"?>
<!-- Generator: Adobe Illustrator 17.0.0, SVG Export Plug-In . SVG Version: 6.00 Build 0)  -->
<!DOCTYPE svg PUBLIC "-//W3C//DTD SVG 1.1//EN" "http://www.w3.org/Graphics/SVG/1.1/DTD/svg11.dtd">
<svg version="1.1" id="Layer_2" xmlns="http://www.w3.org/2000/svg" xmlns:xlink="http://www.w3.org/1999/xlink" x="0px" y="0px"
	 width="48px" height="48px" viewBox="0 0 48 48" enable-background="new 0 0 48 48" xml:space="preserve">
<g>
	<path fill="#010101" d="M1,7v33c0,0.552,0.447,1,1,1c11.827,0,21,3.226,21,6V10.658C19.192,7.694,10.495,6,2,6C1.447,6,1,6.448,1,7
		z M6.067,15.002c5.197,0.351,9.918,1.253,13.29,2.543c0.516,0.197,0.774,0.775,0.576,1.291C19.781,19.235,19.402,19.48,19,19.48
		c-0.119,0-0.239-0.021-0.357-0.066c-3.191-1.22-7.705-2.078-12.71-2.416c-0.551-0.037-0.968-0.514-0.931-1.065
		C5.039,15.382,5.511,14.957,6.067,15.002z M6.067,21.002c5.197,0.351,9.918,1.253,13.29,2.543c0.516,0.197,0.774,0.775,0.576,1.291
		C19.781,25.235,19.402,25.48,19,25.48c-0.119,0-0.239-0.021-0.357-0.066c-3.191-1.22-7.705-2.078-12.71-2.416
		c-0.551-0.037-0.968-0.514-0.931-1.065C5.039,21.382,5.511,20.952,6.067,21.002z M6.067,27.002
		c5.197,0.351,9.918,1.253,13.29,2.543c0.516,0.197,0.774,0.775,0.576,1.291C19.781,31.235,19.402,31.48,19,31.48
		c-0.119,0-0.239-0.021-0.357-0.066c-3.191-1.22-7.705-2.078-12.71-2.416c-0.551-0.037-0.968-0.514-0.931-1.065
		C5.039,27.382,5.511,26.959,6.067,27.002z M6.067,33.002c5.197,0.351,9.918,1.254,13.29,2.543c0.516,0.197,0.774,0.775,0.576,1.291
		C19.781,37.235,19.402,37.48,19,37.48c-0.119,0-0.239-0.021-0.357-0.066c-3.191-1.22-7.705-2.078-12.71-2.416
		c-0.551-0.037-0.968-0.514-0.931-1.065C5.039,33.382,5.511,32.954,6.067,33.002z"/>
	<path fill="#010101" d="M46,6c-1.296,0-2.595,0.043-3.883,0.12c-0.059-0.007-0.115-0.029-0.176-0.025
		c-0.432,0.025-1.012,0.084-1.658,0.162C33.829,6.831,27.949,8.362,25,10.658V47c0-2.774,9.173-6,21-6c0.553,0,1-0.448,1-1V7
		C47,6.448,46.553,6,46,6z M35,9.039c1.382-0.22,4.168-0.651,6-0.852V22.01l-2.235-2.655c-0.18-0.214-0.442-0.343-0.722-0.355
		c-0.015,0-0.028-0.001-0.043-0.001c-0.265,0-0.52,0.105-0.707,0.293L35,21.585V9.039z M42.067,34.997
		c-5.003,0.337-9.517,1.196-12.71,2.416C29.239,37.458,29.119,37.48,29,37.48c-0.402,0-0.782-0.245-0.935-0.644
		c-0.196-0.516,0.062-1.094,0.577-1.291c3.375-1.29,8.095-2.193,13.29-2.543c0.569-0.045,1.028,0.379,1.065,0.93
		C43.035,34.484,42.618,34.96,42.067,34.997z M42.067,28.997c-5.003,0.337-9.517,1.196-12.71,2.416
		C29.239,31.458,29.119,31.48,29,31.48c-0.402,0-0.782-0.245-0.935-0.644c-0.196-0.516,0.062-1.094,0.577-1.291
		c3.375-1.289,8.095-2.193,13.29-2.543c0.569-0.041,1.028,0.38,1.065,0.93C43.035,28.484,42.618,28.96,42.067,28.997z"/>
</g>
</svg>
