<?xml version="1.0" encoding="utf-8"?>
<!-- Generator: Adobe Illustrator 17.0.0, SVG Export Plug-In . SVG Version: 6.00 Build 0)  -->
<!DOCTYPE svg PUBLIC "-//W3C//DTD SVG 1.1//EN" "http://www.w3.org/Graphics/SVG/1.1/DTD/svg11.dtd">
<svg version="1.1" id="Layer_2" xmlns="http://www.w3.org/2000/svg" xmlns:xlink="http://www.w3.org/1999/xlink" x="0px" y="0px"
	 width="48px" height="48px" viewBox="0 0 48 48" enable-background="new 0 0 48 48" xml:space="preserve">
<path fill="#010101" d="M47.968,45.25l-10-38.73c-0.138-0.535-0.683-0.856-1.218-0.718l-5.811,1.5
	c-0.257,0.066-0.476,0.232-0.611,0.46c-0.135,0.229-0.173,0.501-0.106,0.758L32.154,16h-9.962V1c0-0.552-0.447-1-1-1h-12
	c-0.553,0-1,0.448-1,1v5h-7c-0.553,0-1,0.448-1,1v40c0,0.552,0.447,1,1,1h8h12h12c0.553,0,1-0.448,1-1V23.892l6.032,23.358
	C40.34,47.701,40.746,48,41.19,48c0.083,0,0.167-0.01,0.251-0.032l5.809-1.5C47.785,46.33,48.106,45.785,47.968,45.25z M6.191,41
	c0,0.552-0.447,1-1,1s-1-0.448-1-1V13c0-0.552,0.447-1,1-1s1,0.448,1,1V41z M14.191,5c0-0.552,0.447-1,1-1s1,0.448,1,1v26
	c0,0.552-0.447,1-1,1s-1-0.448-1-1V5z M18.191,43c0,0.552-0.447,1-1,1h-4c-0.553,0-1-0.448-1-1v-8c0-0.552,0.447-1,1-1h4
	c0.553,0,1,0.448,1,1V43z M26.191,21c0-0.552,0.447-1,1-1s1,0.448,1,1v18c0,0.552-0.447,1-1,1s-1-0.448-1-1V21z M29.191,44h-4
	c-0.553,0-1-0.448-1-1c0-0.552,0.447-1,1-1h4c0.553,0,1,0.448,1,1C30.191,43.552,29.744,44,29.191,44z"/>
</svg>
