<?xml version="1.0" encoding="utf-8"?>
<!-- Generator: Adobe Illustrator 17.0.0, SVG Export Plug-In . SVG Version: 6.00 Build 0)  -->
<!DOCTYPE svg PUBLIC "-//W3C//DTD SVG 1.1//EN" "http://www.w3.org/Graphics/SVG/1.1/DTD/svg11.dtd">
<svg version="1.1" id="Layer_2" xmlns="http://www.w3.org/2000/svg" xmlns:xlink="http://www.w3.org/1999/xlink" x="0px" y="0px"
	 width="48px" height="48px" viewBox="0 0 48 48" enable-background="new 0 0 48 48" xml:space="preserve">
<g>
	<path fill="#010101" d="M2,8C1.447,8,1,8.448,1,9v32c0,0.552,0.447,1,1,1h16c3.458,0,5,1.542,5,5V10.078C21.786,8.75,20.073,8,18,8
		H2z"/>
	<path fill="#010101" d="M46,8h-3V6H33v2h-3c-2.074,0-3.786,0.75-5,2.079V47c0-3.458,1.542-5,5-5h16c0.553,0,1-0.448,1-1V9
		C47,8.448,46.553,8,46,8z M41,21.586l-3-3l-3,3V8h6V21.586z"/>
</g>
</svg>
