<?xml version="1.0" encoding="utf-8"?>
<!-- Generator: Adobe Illustrator 17.0.0, SVG Export Plug-In . SVG Version: 6.00 Build 0)  -->
<!DOCTYPE svg PUBLIC "-//W3C//DTD SVG 1.1//EN" "http://www.w3.org/Graphics/SVG/1.1/DTD/svg11.dtd">
<svg version="1.1" id="Layer_2" xmlns="http://www.w3.org/2000/svg" xmlns:xlink="http://www.w3.org/1999/xlink" x="0px" y="0px"
	 width="48px" height="48px" viewBox="0 0 48 48" enable-background="new 0 0 48 48" xml:space="preserve">
<g>
	<path fill="#010101" d="M43,6h-5V3c0-0.552-0.447-1-1-1H7C6.447,2,6,2.448,6,3v4h3c1.102,0,2,0.897,2,2s-0.898,2-2,2H6v2h3
		c1.102,0,2,0.897,2,2s-0.898,2-2,2H6v2h3c1.102,0,2,0.897,2,2s-0.898,2-2,2H6v2h3c1.102,0,2,0.897,2,2s-0.898,2-2,2H6v2h3
		c1.102,0,2,0.897,2,2s-0.898,2-2,2H6v2h3c1.102,0,2,0.897,2,2s-0.898,2-2,2H6v4c0,0.552,0.447,1,1,1h30c0.553,0,1-0.448,1-1v-5h5
		c0.553,0,1-0.448,1-1v-8v-8v-8V7C44,6.448,43.553,6,43,6z M30,19c0,0.552-0.447,1-1,1H17c-0.553,0-1-0.448-1-1v-8
		c0-0.552,0.447-1,1-1h12c0.553,0,1,0.448,1,1V19z M42,38h-4v-6h4V38z M42,30h-4v-6h4V30z M42,22h-4v-6h4V22z M42,14h-4V8h4V14z"/>
	<path fill="#010101" d="M5,10h4c0.552,0,1-0.449,1-1c0-0.551-0.448-1-1-1H5C4.448,8,4,8.449,4,9C4,9.551,4.448,10,5,10z"/>
	<path fill="#010101" d="M5,16h4c0.552,0,1-0.449,1-1c0-0.551-0.448-1-1-1H5c-0.552,0-1,0.449-1,1C4,15.551,4.448,16,5,16z"/>
	<path fill="#010101" d="M5,22h4c0.552,0,1-0.449,1-1c0-0.551-0.448-1-1-1H5c-0.552,0-1,0.449-1,1C4,21.551,4.448,22,5,22z"/>
	<path fill="#010101" d="M5,28h4c0.552,0,1-0.449,1-1c0-0.551-0.448-1-1-1H5c-0.552,0-1,0.449-1,1C4,27.551,4.448,28,5,28z"/>
	<path fill="#010101" d="M5,34h4c0.552,0,1-0.449,1-1c0-0.551-0.448-1-1-1H5c-0.552,0-1,0.449-1,1C4,33.551,4.448,34,5,34z"/>
	<path fill="#010101" d="M10,39c0-0.551-0.448-1-1-1H5c-0.552,0-1,0.449-1,1c0,0.551,0.448,1,1,1h4C9.552,40,10,39.551,10,39z"/>
</g>
</svg>
