<?xml version="1.0" encoding="utf-8"?>
<!-- Generator: Adobe Illustrator 17.0.0, SVG Export Plug-In . SVG Version: 6.00 Build 0)  -->
<!DOCTYPE svg PUBLIC "-//W3C//DTD SVG 1.1//EN" "http://www.w3.org/Graphics/SVG/1.1/DTD/svg11.dtd">
<svg version="1.1" id="Layer_2" xmlns="http://www.w3.org/2000/svg" xmlns:xlink="http://www.w3.org/1999/xlink" x="0px" y="0px"
	 width="48px" height="48px" viewBox="0 0 48 48" enable-background="new 0 0 48 48" xml:space="preserve">
<g>
	<path fill="#010101" d="M42,8H8C6.346,8,5,6.654,5,5s1.346-3,3-3h34c0.553,0,1-0.448,1-1s-0.447-1-1-1H8C5.243,0,3,2.243,3,5v38
		c0,2.757,2.243,5,5,5h34c0.553,0,1-0.448,1-1V9C43,8.448,42.553,8,42,8z M36.582,25.813l-6.4,4.583l2.768,8.306
		c0.133,0.4,0.001,0.841-0.33,1.102c-0.332,0.261-0.793,0.285-1.148,0.062L24,35.202l-7.47,4.671
		c-0.163,0.101-0.347,0.152-0.53,0.152c-0.22,0-0.438-0.072-0.618-0.214c-0.332-0.261-0.464-0.701-0.331-1.102l2.768-8.313
		l-6.4-4.583c-0.354-0.253-0.503-0.705-0.37-1.119C11.181,24.281,11.565,24,12,24h8.278l2.773-8.341
		c0.136-0.409,0.518-0.685,0.949-0.685s0.813,0.276,0.949,0.685L27.722,24H36c0.435,0,0.819,0.281,0.952,0.694
		C37.085,25.108,36.936,25.56,36.582,25.813z"/>
	<path fill="#010101" d="M8,4C7.447,4,7,4.448,7,5s0.447,1,1,1h32c0.553,0,1-0.448,1-1s-0.447-1-1-1H8z"/>
</g>
</svg>
