<?xml version="1.0" encoding="utf-8"?>
<!-- Generator: Adobe Illustrator 17.0.0, SVG Export Plug-In . SVG Version: 6.00 Build 0)  -->
<!DOCTYPE svg PUBLIC "-//W3C//DTD SVG 1.1//EN" "http://www.w3.org/Graphics/SVG/1.1/DTD/svg11.dtd">
<svg version="1.1" id="Layer_2" xmlns="http://www.w3.org/2000/svg" xmlns:xlink="http://www.w3.org/1999/xlink" x="0px" y="0px"
	 width="48px" height="48px" viewBox="0 0 48 48" enable-background="new 0 0 48 48" xml:space="preserve">
<g>
	<path fill="#010101" d="M4,3v42c0,1.654,1.346,3,3,3h3V0H7C5.346,0,4,1.346,4,3z"/>
	<path fill="#010101" d="M41,0H12v48h29c0.553,0,1-0.448,1-1V1C42,0.448,41.553,0,41,0z M34,17c0,0.552-0.447,1-1,1H21
		c-0.553,0-1-0.448-1-1v-6c0-0.552,0.447-1,1-1h12c0.553,0,1,0.448,1,1V17z"/>
</g>
</svg>
