<?xml version="1.0" encoding="utf-8"?>
<!-- Generator: Adobe Illustrator 17.0.0, SVG Export Plug-In . SVG Version: 6.00 Build 0)  -->
<!DOCTYPE svg PUBLIC "-//W3C//DTD SVG 1.1//EN" "http://www.w3.org/Graphics/SVG/1.1/DTD/svg11.dtd">
<svg version="1.1" id="Layer_2" xmlns="http://www.w3.org/2000/svg" xmlns:xlink="http://www.w3.org/1999/xlink" x="0px" y="0px"
	 width="48px" height="48px" viewBox="0 0 48 48" enable-background="new 0 0 48 48" xml:space="preserve">
<g>
	<path fill="#010101" d="M20,35c0-8.271,6.728-15,15-15c2.943,0,5.681,0.864,8,2.333V9c0-0.552-0.447-1-1-1H8C6.346,8,5,6.654,5,5
		s1.346-3,3-3h34c0.553,0,1-0.448,1-1s-0.447-1-1-1H8C5.243,0,3,2.243,3,5c0,0.235,0.017,0.467,0.048,0.693C3.017,5.79,3,5.893,3,6
		v37c0,2.757,2.243,5,5,5h19.548C23.045,45.409,20,40.558,20,35z"/>
	<path fill="#010101" d="M35,22c-7.168,0-13,5.831-13,13s5.832,13,13,13s13-5.832,13-13S42.168,22,35,22z M39.707,36.707
		l-3.999,3.999c-0.093,0.093-0.203,0.166-0.326,0.217C35.26,40.973,35.13,41,35,41c-0.13,0-0.26-0.027-0.382-0.077
		c-0.123-0.051-0.233-0.124-0.326-0.217l-3.999-3.999c-0.391-0.391-0.391-1.023,0-1.414c0.391-0.391,1.023-0.391,1.414,0L34,37.586
		V30c0-0.552,0.447-1,1-1c0.553,0,1,0.448,1,1v7.586l2.293-2.293c0.391-0.391,1.023-0.391,1.414,0
		C40.098,35.684,40.098,36.316,39.707,36.707z"/>
	<path fill="#010101" d="M8,4C7.447,4,7,4.448,7,5s0.447,1,1,1h32c0.553,0,1-0.448,1-1s-0.447-1-1-1H8z"/>
</g>
</svg>
