<?xml version="1.0" encoding="utf-8"?>
<!-- Generator: Adobe Illustrator 17.0.0, SVG Export Plug-In . SVG Version: 6.00 Build 0)  -->
<!DOCTYPE svg PUBLIC "-//W3C//DTD SVG 1.1//EN" "http://www.w3.org/Graphics/SVG/1.1/DTD/svg11.dtd">
<svg version="1.1" id="Layer_2" xmlns="http://www.w3.org/2000/svg" xmlns:xlink="http://www.w3.org/1999/xlink" x="0px" y="0px"
	 width="48px" height="48px" viewBox="0 0 48 48" enable-background="new 0 0 48 48" xml:space="preserve">
<g>
	<path fill="#010101" d="M1,7v33c0,0.552,0.447,1,1,1c11.827,0,21,3.226,21,6V10.658C19.192,7.694,10.495,6,2,6C1.447,6,1,6.448,1,7
		z"/>
	<path fill="#010101" d="M46,6c-8.495,0-17.192,1.694-21,4.658V47c0-2.774,9.173-6,21-6c0.553,0,1-0.448,1-1V7
		C47,6.448,46.553,6,46,6z"/>
</g>
</svg>
