<?xml version="1.0" encoding="utf-8"?>
<!-- Generator: Adobe Illustrator 17.0.0, SVG Export Plug-In . SVG Version: 6.00 Build 0)  -->
<!DOCTYPE svg PUBLIC "-//W3C//DTD SVG 1.1//EN" "http://www.w3.org/Graphics/SVG/1.1/DTD/svg11.dtd">
<svg version="1.1" id="Layer_2" xmlns="http://www.w3.org/2000/svg" xmlns:xlink="http://www.w3.org/1999/xlink" x="0px" y="0px"
	 width="48px" height="48px" viewBox="0 0 48 48" enable-background="new 0 0 48 48" xml:space="preserve">
<g>
	<path fill="#010101" d="M0,5v33c0,0.552,0.447,1,1,1c13.631,0,22,3.495,22,6V8.662C19.048,5.617,9.823,4,1,4C0.447,4,0,4.448,0,5z
		 M6.067,13.002c5.197,0.351,9.918,1.253,13.29,2.543c0.516,0.197,0.773,0.775,0.576,1.291C19.781,17.235,19.402,17.48,19,17.48
		c-0.119,0-0.239-0.021-0.357-0.066c-3.191-1.22-7.705-2.078-12.71-2.416c-0.551-0.037-0.968-0.514-0.931-1.065
		C5.04,13.382,5.493,12.958,6.067,13.002z M6.067,19.002c5.197,0.351,9.918,1.253,13.29,2.543c0.516,0.197,0.773,0.775,0.576,1.291
		C19.781,23.235,19.402,23.48,19,23.48c-0.119,0-0.239-0.021-0.357-0.066c-3.191-1.22-7.705-2.078-12.71-2.416
		c-0.551-0.037-0.968-0.514-0.931-1.065C5.04,19.382,5.493,18.953,6.067,19.002z M6.067,25.002c5.197,0.351,9.918,1.253,13.29,2.543
		c0.516,0.197,0.773,0.775,0.576,1.291C19.781,29.235,19.402,29.48,19,29.48c-0.119,0-0.239-0.021-0.357-0.066
		c-3.191-1.22-7.705-2.078-12.71-2.416c-0.551-0.037-0.968-0.514-0.931-1.065C5.04,25.382,5.493,24.96,6.067,25.002z M6.067,31.002
		c5.197,0.351,9.918,1.254,13.29,2.543c0.516,0.197,0.773,0.775,0.576,1.291C19.781,35.235,19.402,35.48,19,35.48
		c-0.119,0-0.239-0.021-0.357-0.066c-3.191-1.22-7.705-2.078-12.71-2.416c-0.551-0.037-0.968-0.514-0.931-1.065
		C5.04,31.382,5.493,30.955,6.067,31.002z"/>
	<path fill="#010101" d="M47,4c-8.823,0-18.048,1.617-22,4.662V45c0-2.505,8.369-6,22-6c0.553,0,1-0.448,1-1V5
		C48,4.448,47.553,4,47,4z M42.067,32.998c-5.003,0.337-9.517,1.196-12.71,2.416C29.239,35.459,29.119,35.48,29,35.48
		c-0.402,0-0.782-0.245-0.935-0.644c-0.196-0.516,0.062-1.094,0.577-1.291c3.375-1.289,8.095-2.193,13.29-2.543
		c0.575-0.045,1.027,0.379,1.065,0.93C43.035,32.484,42.618,32.96,42.067,32.998z M42.067,26.998
		c-5.003,0.337-9.517,1.196-12.71,2.416C29.239,29.459,29.119,29.48,29,29.48c-0.402,0-0.782-0.245-0.935-0.644
		c-0.196-0.516,0.062-1.094,0.577-1.291c3.375-1.29,8.095-2.193,13.29-2.543c0.575-0.041,1.027,0.38,1.065,0.93
		C43.035,26.484,42.618,26.96,42.067,26.998z M42.067,20.998c-5.003,0.337-9.517,1.196-12.71,2.416
		C29.239,23.459,29.119,23.48,29,23.48c-0.402,0-0.782-0.245-0.935-0.644c-0.196-0.516,0.062-1.094,0.577-1.291
		c3.375-1.289,8.095-2.193,13.29-2.543c0.575-0.048,1.027,0.38,1.065,0.93C43.035,20.484,42.618,20.96,42.067,20.998z
		 M42.067,14.998c-5.003,0.337-9.517,1.196-12.71,2.416C29.239,17.459,29.119,17.48,29,17.48c-0.402,0-0.782-0.245-0.935-0.644
		c-0.196-0.516,0.062-1.094,0.577-1.291c3.375-1.29,8.095-2.193,13.29-2.543c0.575-0.043,1.027,0.38,1.065,0.93
		C43.035,14.484,42.618,14.96,42.067,14.998z"/>
</g>
</svg>
