<?xml version="1.0" encoding="utf-8"?>
<!-- Generator: Adobe Illustrator 17.0.0, SVG Export Plug-In . SVG Version: 6.00 Build 0)  -->
<!DOCTYPE svg PUBLIC "-//W3C//DTD SVG 1.1//EN" "http://www.w3.org/Graphics/SVG/1.1/DTD/svg11.dtd">
<svg version="1.1" id="Layer_2" xmlns="http://www.w3.org/2000/svg" xmlns:xlink="http://www.w3.org/1999/xlink" x="0px" y="0px"
	 width="48px" height="48px" viewBox="0 0 48 48" enable-background="new 0 0 48 48" xml:space="preserve">
<g>
	<path fill="#010101" d="M43,8H9C7.346,8,6,6.654,6,5c0-1.654,1.346-3,3-3h34c0.553,0,1-0.448,1-1c0-0.552-0.447-1-1-1H9
		C6.243,0,4,2.243,4,5c0,0.235,0.017,0.467,0.048,0.693C4.017,5.79,4,5.893,4,6v37c0,2.757,2.243,5,5,5h34c0.553,0,1-0.448,1-1V9
		C44,8.448,43.553,8,43,8z M35.008,36.949l-1.387,1.387c-0.863,0.862-2.01,1.336-3.231,1.336c-0.899,0-1.773-0.263-2.524-0.759
		c-6.212-4.106-11.668-9.562-15.779-15.776c-1.193-1.808-0.95-4.228,0.575-5.757l1.391-1.387c1.272-1.277,3.507-1.279,4.785-0.003
		l2.528,2.53c0.639,0.637,0.99,1.486,0.991,2.391c0,0.905-0.351,1.756-0.991,2.395l-0.197,0.197c1.917,2.256,4.081,4.42,6.329,6.329
		l0.196-0.196c1.279-1.279,3.508-1.279,4.787,0l2.527,2.528c0.639,0.637,0.991,1.486,0.992,2.39
		C36,35.458,35.647,36.309,35.008,36.949z"/>
	<path fill="#010101" d="M9,4C8.447,4,8,4.448,8,5c0,0.552,0.447,1,1,1h32c0.553,0,1-0.448,1-1c0-0.552-0.447-1-1-1H9z"/>
</g>
</svg>
