<?xml version="1.0" encoding="utf-8"?>
<!-- Generator: Adobe Illustrator 17.0.0, SVG Export Plug-In . SVG Version: 6.00 Build 0)  -->
<!DOCTYPE svg PUBLIC "-//W3C//DTD SVG 1.1//EN" "http://www.w3.org/Graphics/SVG/1.1/DTD/svg11.dtd">
<svg version="1.1" id="Layer_2" xmlns="http://www.w3.org/2000/svg" xmlns:xlink="http://www.w3.org/1999/xlink" x="0px" y="0px"
	 width="48px" height="48px" viewBox="0 0 48 48" enable-background="new 0 0 48 48" xml:space="preserve">
<path fill="#010101" d="M41,8h-1V1c0-0.552-0.447-1-1-1H11C8.243,0,6,2.243,6,5v38c0,2.757,2.243,5,5,5h30c0.553,0,1-0.448,1-1V9
	C42,8.448,41.553,8,41,8z M34,38H14v-1c0-6.099,3.213-9.045,6.326-10.267C18.914,25.635,18,23.924,18,22c0-3.309,2.691-6,6-6
	c3.309,0,6,2.691,6,6c0,1.924-0.914,3.635-2.326,4.733C30.787,27.955,34,30.901,34,37V38z M38,8h-2V5c0-0.552-0.447-1-1-1H11
	c-0.553,0-1,0.448-1,1c0,0.552,0.447,1,1,1h23v2H11C9.346,8,8,6.654,8,5c0-1.654,1.346-3,3-3h27V8z"/>
</svg>
