<?xml version="1.0" encoding="utf-8"?>
<!-- Generator: Adobe Illustrator 17.0.0, SVG Export Plug-In . SVG Version: 6.00 Build 0)  -->
<!DOCTYPE svg PUBLIC "-//W3C//DTD SVG 1.1//EN" "http://www.w3.org/Graphics/SVG/1.1/DTD/svg11.dtd">
<svg version="1.1" id="Layer_2" xmlns="http://www.w3.org/2000/svg" xmlns:xlink="http://www.w3.org/1999/xlink" x="0px" y="0px"
	 width="48px" height="48px" viewBox="0 0 48 48" enable-background="new 0 0 48 48" xml:space="preserve">
<path fill="#010101" d="M24,0C10.767,0,0,10.767,0,24c0,13.233,10.767,24,24,24c13.233,0,24-10.767,24-24C48,10.767,37.233,0,24,0z
	 M24,33c1.966,0,3.833-0.622,5.399-1.799c0.441-0.332,1.067-0.243,1.4,0.199c0.331,0.441,0.242,1.068-0.199,1.4
	C28.685,34.239,26.403,35,24,35c-6.065,0-11-4.935-11-11c0-6.065,4.935-11,11-11c2.403,0,4.686,0.761,6.602,2.201
	c0.441,0.332,0.53,0.958,0.199,1.4c-0.331,0.442-0.959,0.53-1.4,0.199C27.834,15.622,25.967,15,24,15c-4.963,0-9,4.038-9,9
	C15,28.962,19.037,33,24,33z"/>
</svg>
