<?xml version="1.0" encoding="utf-8"?>
<!-- Generator: Adobe Illustrator 17.0.0, SVG Export Plug-In . SVG Version: 6.00 Build 0)  -->
<!DOCTYPE svg PUBLIC "-//W3C//DTD SVG 1.1//EN" "http://www.w3.org/Graphics/SVG/1.1/DTD/svg11.dtd">
<svg version="1.1" id="Layer_2" xmlns="http://www.w3.org/2000/svg" xmlns:xlink="http://www.w3.org/1999/xlink" x="0px" y="0px"
	 width="48px" height="48px" viewBox="0 0 48 48" enable-background="new 0 0 48 48" xml:space="preserve">
<path fill="#010101" d="M23.999,0c-13.233,0-24,10.767-24,24c0,13.233,10.767,24,24,24C37.233,48,48,37.233,48,24
	C48,10.767,37.233,0,23.999,0z M15.999,30c1.689,0,3.211-0.604,4.286-1.7c0.386-0.396,1.021-0.4,1.414-0.014
	c0.395,0.386,0.4,1.02,0.014,1.414c-1.454,1.483-3.483,2.3-5.714,2.3c-4.411,0-8-3.589-8-8c0-4.411,3.589-8,8-8
	c2.231,0,4.261,0.817,5.714,2.3c0.387,0.394,0.381,1.027-0.014,1.414c-0.396,0.386-1.028,0.38-1.414-0.015
	c-1.074-1.096-2.597-1.7-4.286-1.7c-3.309,0-6,2.691-6,6C9.999,27.309,12.69,30,15.999,30z M31.999,30
	c1.689,0,3.211-0.604,4.286-1.7c0.386-0.396,1.02-0.4,1.414-0.014c0.395,0.386,0.4,1.02,0.014,1.414
	c-1.454,1.483-3.483,2.3-5.714,2.3c-4.411,0-8-3.589-8-8c0-4.411,3.589-8,8-8c2.231,0,4.261,0.817,5.714,2.3
	c0.387,0.394,0.381,1.027-0.014,1.414c-0.396,0.386-1.029,0.38-1.414-0.015c-1.074-1.096-2.597-1.7-4.286-1.7c-3.309,0-6,2.691-6,6
	C25.999,27.309,28.69,30,31.999,30z"/>
</svg>
