<?xml version="1.0" encoding="utf-8"?>
<!-- Generator: Adobe Illustrator 17.0.0, SVG Export Plug-In . SVG Version: 6.00 Build 0)  -->
<!DOCTYPE svg PUBLIC "-//W3C//DTD SVG 1.1//EN" "http://www.w3.org/Graphics/SVG/1.1/DTD/svg11.dtd">
<svg version="1.1" id="Layer_2" xmlns="http://www.w3.org/2000/svg" xmlns:xlink="http://www.w3.org/1999/xlink" x="0px" y="0px"
	 width="48px" height="48px" viewBox="0 0 48 48" enable-background="new 0 0 48 48" xml:space="preserve">
<g>
	<path fill="#010101" d="M24,14c0.022,0,0.04,0.011,0.062,0.013L45.583,7.67L24.252,2.106c-0.164-0.043-0.34-0.043-0.504,0
		L1.943,7.794l21.987,6.221C23.955,14.012,23.975,14,24,14z"/>
	<path fill="#010101" d="M25,15.821V45c0,0.552-0.447,1-1,1s-1-0.448-1-1V15.83L0,9.323v27.751c0,0.426,0.269,0.805,0.672,0.944
		l23,8c0.106,0.037,0.217,0.056,0.328,0.056s0.222-0.019,0.328-0.056l23-8C47.73,37.878,48,37.499,48,37.073V9.042L25,15.821z"/>
</g>
</svg>
