<?xml version="1.0" encoding="utf-8"?>
<!-- Generator: Adobe Illustrator 17.0.0, SVG Export Plug-In . SVG Version: 6.00 Build 0)  -->
<!DOCTYPE svg PUBLIC "-//W3C//DTD SVG 1.1//EN" "http://www.w3.org/Graphics/SVG/1.1/DTD/svg11.dtd">
<svg version="1.1" id="Layer_2" xmlns="http://www.w3.org/2000/svg" xmlns:xlink="http://www.w3.org/1999/xlink" x="0px" y="0px"
	 width="48px" height="48px" viewBox="0 0 48 48" enable-background="new 0 0 48 48" xml:space="preserve">
<g>
	<path fill="#010101" d="M47,30H33c-0.553,0-1,0.448-1,1v3H16v-3c0-0.552-0.447-1-1-1H1c-0.553,0-1,0.448-1,1v16
		c0,0.552,0.447,1,1,1h46c0.553,0,1-0.448,1-1V31C48,30.448,47.553,30,47,30z"/>
	<path fill="#010101" d="M19,30c-0.553,0-1,0.448-1,1c0,0.552,0.447,1,1,1h10c0.553,0,1-0.448,1-1c0-0.552-0.447-1-1-1H19z"/>
	<path fill="#010101" d="M5,28h38c0.553,0,1-0.448,1-1c0-0.552-0.447-1-1-1H5c-0.553,0-1,0.448-1,1C4,27.552,4.447,28,5,28z"/>
	<path fill="#010101" d="M5,24h38c0.553,0,1-0.448,1-1c0-0.552-0.447-1-1-1H5c-0.553,0-1,0.448-1,1C4,23.552,4.447,24,5,24z"/>
	<path fill="#010101" d="M5,20h38c0.553,0,1-0.448,1-1c0-0.552-0.447-1-1-1H5c-0.553,0-1,0.448-1,1C4,19.552,4.447,20,5,20z"/>
	<path fill="#010101" d="M5,16h38c0.553,0,1-0.448,1-1c0-0.552-0.447-1-1-1H5c-0.553,0-1,0.448-1,1C4,15.552,4.447,16,5,16z"/>
</g>
</svg>
