<?xml version="1.0" encoding="utf-8"?>
<!-- Generator: Adobe Illustrator 17.0.0, SVG Export Plug-In . SVG Version: 6.00 Build 0)  -->
<!DOCTYPE svg PUBLIC "-//W3C//DTD SVG 1.1//EN" "http://www.w3.org/Graphics/SVG/1.1/DTD/svg11.dtd">
<svg version="1.1" id="Layer_2" xmlns="http://www.w3.org/2000/svg" xmlns:xlink="http://www.w3.org/1999/xlink" x="0px" y="0px"
	 width="48px" height="48px" viewBox="0 0 48 48" enable-background="new 0 0 48 48" xml:space="preserve">
<g>
	<path fill="#010101" d="M8,8h10v21v3h12v-3c0-0.552,0.447-1,1-1h11V3c0-0.552-0.447-1-1-1H19c-0.553,0-1,0.448-1,1v3H7
		C6.447,6,6,6.448,6,7v21h2V8z M27,8h10c0.553,0,1,0.448,1,1c0,0.552-0.447,1-1,1H27c-0.553,0-1-0.448-1-1C26,8.448,26.447,8,27,8z
		 M23,12h14c0.553,0,1,0.448,1,1c0,0.552-0.447,1-1,1H23c-0.553,0-1-0.448-1-1C22,12.448,22.447,12,23,12z M23,16h14
		c0.553,0,1,0.448,1,1c0,0.552-0.447,1-1,1H23c-0.553,0-1-0.448-1-1C22,16.448,22.447,16,23,16z M23,20h14c0.553,0,1,0.448,1,1
		c0,0.552-0.447,1-1,1H23c-0.553,0-1-0.448-1-1C22,20.448,22.447,20,23,20z M23,24h14c0.553,0,1,0.448,1,1c0,0.552-0.447,1-1,1H23
		c-0.553,0-1-0.448-1-1C22,24.448,22.447,24,23,24z"/>
	<path fill="#010101" d="M47,30H33h-1v1v2c0,0.552-0.447,1-1,1H17h-1v-1v-2c0-0.552-0.447-1-1-1H1c-0.553,0-1,0.448-1,1v16
		c0,0.552,0.447,1,1,1h46c0.553,0,1-0.448,1-1V31C48,30.448,47.553,30,47,30z"/>
</g>
</svg>
