<?xml version="1.0" encoding="utf-8"?>
<!-- Generator: Adobe Illustrator 17.0.0, SVG Export Plug-In . SVG Version: 6.00 Build 0)  -->
<!DOCTYPE svg PUBLIC "-//W3C//DTD SVG 1.1//EN" "http://www.w3.org/Graphics/SVG/1.1/DTD/svg11.dtd">
<svg version="1.1" id="Layer_2" xmlns="http://www.w3.org/2000/svg" xmlns:xlink="http://www.w3.org/1999/xlink" x="0px" y="0px"
	 width="48px" height="48px" viewBox="0 0 48 48" enable-background="new 0 0 48 48" xml:space="preserve">
<g>
	<path fill="#010101" d="M47,10H1c-0.553,0-1,0.448-1,1v8c0,0.552,0.447,1,1,1h46c0.553,0,1-0.448,1-1v-8C48,10.448,47.553,10,47,10
		z"/>
	<path fill="#010101" d="M45,22H3c-0.553,0-1,0.448-1,1v24c0,0.552,0.447,1,1,1h42c0.553,0,1-0.448,1-1V23
		C46,22.448,45.553,22,45,22z M32,31c0,0.552-0.447,1-1,1H17c-0.553,0-1-0.448-1-1v-4c0-0.552,0.447-1,1-1h14c0.553,0,1,0.448,1,1
		V31z"/>
</g>
</svg>
