<?xml version="1.0" encoding="utf-8"?>
<!-- Generator: Adobe Illustrator 17.0.0, SVG Export Plug-In . SVG Version: 6.00 Build 0)  -->
<!DOCTYPE svg PUBLIC "-//W3C//DTD SVG 1.1//EN" "http://www.w3.org/Graphics/SVG/1.1/DTD/svg11.dtd">
<svg version="1.1" id="Layer_2" xmlns="http://www.w3.org/2000/svg" xmlns:xlink="http://www.w3.org/1999/xlink" x="0px" y="0px"
	 width="48px" height="48px" viewBox="0 0 48 48" enable-background="new 0 0 48 48" xml:space="preserve">
<g>
	<path fill="#010101" d="M12,28h24v-8H12V28z M21,22h6c0.553,0,1,0.448,1,1c0,0.552-0.447,1-1,1h-6c-0.553,0-1-0.448-1-1
		C20,22.448,20.447,22,21,22z"/>
	<path fill="#010101" d="M12,42h24v-8H12V42z M21,36h6c0.553,0,1,0.448,1,1c0,0.552-0.447,1-1,1h-6c-0.553,0-1-0.448-1-1
		C20,36.448,20.447,36,21,36z"/>
	<path fill="#010101" d="M12,14h24V6H12V14z M21,8h6c0.553,0,1,0.448,1,1c0,0.552-0.447,1-1,1h-6c-0.553,0-1-0.448-1-1
		C20,8.448,20.447,8,21,8z"/>
	<path fill="#010101" d="M41,0H7C6.447,0,6,0.448,6,1v46c0,0.552,0.447,1,1,1h34c0.553,0,1-0.448,1-1V1C42,0.448,41.553,0,41,0z
		 M38,43c0,0.552-0.447,1-1,1H11c-0.553,0-1-0.448-1-1V33c0-0.552,0.447-1,1-1h26c0.553,0,1,0.448,1,1V43z M38,29
		c0,0.552-0.447,1-1,1H11c-0.553,0-1-0.448-1-1V19c0-0.552,0.447-1,1-1h26c0.553,0,1,0.448,1,1V29z M38,15c0,0.552-0.447,1-1,1H11
		c-0.553,0-1-0.448-1-1V5c0-0.552,0.447-1,1-1h26c0.553,0,1,0.448,1,1V15z"/>
</g>
</svg>
