<?xml version="1.0" encoding="utf-8"?>
<!-- Generator: Adobe Illustrator 17.0.0, SVG Export Plug-In . SVG Version: 6.00 Build 0)  -->
<!DOCTYPE svg PUBLIC "-//W3C//DTD SVG 1.1//EN" "http://www.w3.org/Graphics/SVG/1.1/DTD/svg11.dtd">
<svg version="1.1" id="Layer_2" xmlns="http://www.w3.org/2000/svg" xmlns:xlink="http://www.w3.org/1999/xlink" x="0px" y="0px"
	 width="48px" height="48px" viewBox="0 0 48 48" enable-background="new 0 0 48 48" xml:space="preserve">
<g>
	<path fill="#010101" d="M5,42c0,3.309,2.691,6,6,6h26c3.309,0,6-2.691,6-6V32H5V42z M17.149,38.474C17.332,38.18,17.653,38,18,38
		h11c0.347,0,0.668,0.18,0.851,0.474c0.183,0.295,0.199,0.663,0.044,0.973l-2,4C27.725,43.786,27.379,44,27,44h-7
		c-0.379,0-0.725-0.214-0.895-0.553l-2-4C16.95,39.137,16.967,38.769,17.149,38.474z"/>
	<path fill="#010101" d="M5,30h38V16H5V30z M17.149,20.474C17.332,20.18,17.653,20,18,20h11c0.347,0,0.668,0.18,0.851,0.474
		c0.183,0.295,0.199,0.663,0.044,0.973l-2,4C27.725,25.786,27.379,26,27,26h-7c-0.379,0-0.725-0.214-0.895-0.553l-2-4
		C16.95,21.137,16.967,20.769,17.149,20.474z"/>
	<path fill="#010101" d="M37,0H11C7.691,0,5,2.691,5,6v8h38V6C43,2.691,40.309,0,37,0z M29.894,7.447l-2,4
		C27.725,11.786,27.379,12,27,12h-7c-0.379,0-0.725-0.214-0.895-0.553l-2-4c-0.155-0.31-0.139-0.678,0.044-0.973
		C17.332,6.18,17.653,6,18,6h11c0.347,0,0.668,0.18,0.851,0.474C30.033,6.769,30.05,7.137,29.894,7.447z"/>
</g>
</svg>
