<?xml version="1.0" encoding="utf-8"?>
<!-- Generator: Adobe Illustrator 17.0.0, SVG Export Plug-In . SVG Version: 6.00 Build 0)  -->
<!DOCTYPE svg PUBLIC "-//W3C//DTD SVG 1.1//EN" "http://www.w3.org/Graphics/SVG/1.1/DTD/svg11.dtd">
<svg version="1.1" id="Layer_2" xmlns="http://www.w3.org/2000/svg" xmlns:xlink="http://www.w3.org/1999/xlink" x="0px" y="0px"
	 width="48px" height="48px" viewBox="0 0 48 48" enable-background="new 0 0 48 48" xml:space="preserve">
<path fill="#010101" d="M4,0v48h38V0H4z M40.019,47H40H6c-0.385,0-0.734-0.22-0.901-0.567c-0.166-0.346-0.12-0.758,0.12-1.058l4-5
	C9.409,40.138,9.696,40,10,40h12V10h-7.818c-1.107,0-2.78,0-3.889-1.371L5.236,2.646C4.985,2.348,4.929,1.932,5.093,1.579
	C5.257,1.226,5.61,1,6,1h34c0.39,0,0.743,0.226,0.907,0.579c0.164,0.353,0.107,0.769-0.143,1.066l-5.07,6
	C34.599,10,32.926,10,31.818,10H24v30h12c0.304,0,0.591,0.138,0.781,0.376l3.897,4.872c0.209,0.183,0.341,0.453,0.341,0.752
	C41.019,46.552,40.572,47,40.019,47z"/>
</svg>
