<?xml version="1.0" encoding="utf-8"?>
<!-- Generator: Adobe Illustrator 17.0.0, SVG Export Plug-In . SVG Version: 6.00 Build 0)  -->
<!DOCTYPE svg PUBLIC "-//W3C//DTD SVG 1.1//EN" "http://www.w3.org/Graphics/SVG/1.1/DTD/svg11.dtd">
<svg version="1.1" id="Layer_2" xmlns="http://www.w3.org/2000/svg" xmlns:xlink="http://www.w3.org/1999/xlink" x="0px" y="0px"
	 width="48px" height="48px" viewBox="0 0 48 48" enable-background="new 0 0 48 48" xml:space="preserve">
<path fill="#010101" d="M41.609,19.677C42.994,17.836,44,15.117,44,13V8c0-5.196-10.305-8-20-8C14.305,0,4,2.804,4,8v5
	c0,2.476,1.371,5.786,3.121,7.536L20,33.414V45c0,1.654,1.346,3,3,3h2c1.654,0,3-1.346,3-3v-6.095C29.562,39.624,31.262,40,33,40
	c6.617,0,12-5.383,12-12C45,24.886,43.769,21.909,41.609,19.677z M24,14C13.393,14,6,10.838,6,8c0-2.838,7.393-6,18-6
	c10.607,0,18,3.162,18,6C42,10.838,34.607,14,24,14z M33,38c-1.767,0-3.478-0.487-5-1.373v-3.213l12.262-12.262
	C42.009,23.003,43,25.448,43,28C43,33.514,38.514,38,33,38z"/>
</svg>
