<?xml version="1.0" encoding="utf-8"?>
<!-- Generator: Adobe Illustrator 17.0.0, SVG Export Plug-In . SVG Version: 6.00 Build 0)  -->
<!DOCTYPE svg PUBLIC "-//W3C//DTD SVG 1.1//EN" "http://www.w3.org/Graphics/SVG/1.1/DTD/svg11.dtd">
<svg version="1.1" id="Layer_2" xmlns="http://www.w3.org/2000/svg" xmlns:xlink="http://www.w3.org/1999/xlink" x="0px" y="0px"
	 width="48px" height="48px" viewBox="0 0 48 48" enable-background="new 0 0 48 48" xml:space="preserve">
<g>
	<path fill="#010101" d="M0.602,25.917l23,10C23.728,35.972,23.864,36,24,36c0.136,0,0.271-0.028,0.398-0.083l23-10
		c0.507-0.22,0.739-0.809,0.519-1.316c-0.221-0.506-0.808-0.739-1.315-0.518L24,33.91L1.398,24.083
		c-0.509-0.222-1.096,0.012-1.315,0.518C-0.138,25.108,0.095,25.697,0.602,25.917z"/>
	<path fill="#010101" d="M46.602,30.083L24,39.91L1.398,30.083c-0.509-0.222-1.096,0.012-1.315,0.518
		c-0.221,0.507,0.012,1.096,0.519,1.316l23,10C23.728,41.972,23.864,42,24,42c0.136,0,0.271-0.028,0.398-0.083l23-10
		c0.507-0.22,0.739-0.809,0.519-1.316C47.696,30.096,47.109,29.861,46.602,30.083z"/>
	<path fill="#010101" d="M46.602,36.083L24,45.91L1.398,36.083c-0.509-0.223-1.096,0.012-1.315,0.518
		c-0.221,0.507,0.012,1.096,0.519,1.316l23,10C23.728,47.972,23.864,48,24,48c0.136,0,0.271-0.028,0.398-0.083l23-10
		c0.507-0.22,0.739-0.809,0.519-1.316C47.696,36.095,47.109,35.861,46.602,36.083z"/>
	<path fill="#010101" d="M0.602,19.917l23,10C23.728,29.972,23.864,30,24,30c0.136,0,0.271-0.028,0.398-0.083l23-10
		C47.764,19.758,48,19.398,48,19c0-0.398-0.236-0.758-0.602-0.917l-23-10c-0.254-0.11-0.543-0.11-0.797,0l-23,10
		C0.236,18.242,0,18.602,0,19C0,19.398,0.236,19.758,0.602,19.917z"/>
</g>
</svg>
