<?xml version="1.0" encoding="utf-8"?>
<!-- Generator: Adobe Illustrator 17.0.0, SVG Export Plug-In . SVG Version: 6.00 Build 0)  -->
<!DOCTYPE svg PUBLIC "-//W3C//DTD SVG 1.1//EN" "http://www.w3.org/Graphics/SVG/1.1/DTD/svg11.dtd">
<svg version="1.1" id="Layer_2" xmlns="http://www.w3.org/2000/svg" xmlns:xlink="http://www.w3.org/1999/xlink" x="0px" y="0px"
	 width="48px" height="48px" viewBox="0 0 48 48" enable-background="new 0 0 48 48" xml:space="preserve">
<g>
	<path fill="#010101" d="M47,2H17c-0.553,0-1,0.448-1,1v10c0,0.552,0.447,1,1,1h30c0.553,0,1-0.448,1-1V3C48,2.448,47.553,2,47,2z"
		/>
	<path fill="#010101" d="M47,18H17c-0.553,0-1,0.448-1,1v10c0,0.552,0.447,1,1,1h30c0.553,0,1-0.448,1-1V19
		C48,18.448,47.553,18,47,18z"/>
	<path fill="#010101" d="M47,34H17c-0.553,0-1,0.448-1,1v10c0,0.552,0.447,1,1,1h30c0.553,0,1-0.448,1-1V35
		C48,34.448,47.553,34,47,34z"/>
	<path fill="#010101" d="M11,2H1C0.447,2,0,2.448,0,3v10c0,0.552,0.447,1,1,1h10c0.553,0,1-0.448,1-1V3C12,2.448,11.553,2,11,2z"/>
	<path fill="#010101" d="M11,18H1c-0.553,0-1,0.448-1,1v10c0,0.552,0.447,1,1,1h10c0.553,0,1-0.448,1-1V19
		C12,18.448,11.553,18,11,18z"/>
	<path fill="#010101" d="M11,34H1c-0.553,0-1,0.448-1,1v10c0,0.552,0.447,1,1,1h10c0.553,0,1-0.448,1-1V35
		C12,34.448,11.553,34,11,34z"/>
</g>
</svg>
