<?xml version="1.0" encoding="utf-8"?>
<!-- Generator: Adobe Illustrator 17.0.0, SVG Export Plug-In . SVG Version: 6.00 Build 0)  -->
<!DOCTYPE svg PUBLIC "-//W3C//DTD SVG 1.1//EN" "http://www.w3.org/Graphics/SVG/1.1/DTD/svg11.dtd">
<svg version="1.1" id="Layer_2" xmlns="http://www.w3.org/2000/svg" xmlns:xlink="http://www.w3.org/1999/xlink" x="0px" y="0px"
	 width="48px" height="48px" viewBox="0 0 48 48" enable-background="new 0 0 48 48" xml:space="preserve">
<path fill="#010101" d="M47,6H1C0.447,6,0,6.448,0,7v36c0,0.552,0.447,1,1,1h46c0.553,0,1-0.448,1-1V7C48,6.448,47.553,6,47,6z
	 M21,38H7c-0.553,0-1-0.448-1-1s0.447-1,1-1h14c0.553,0,1,0.448,1,1S21.553,38,21,38z M21,34H7c-0.553,0-1-0.448-1-1s0.447-1,1-1h14
	c0.553,0,1,0.448,1,1S21.553,34,21,34z M21,30H7c-0.553,0-1-0.448-1-1s0.447-1,1-1h14c0.553,0,1,0.448,1,1S21.553,30,21,30z M21,26
	H9c-0.553,0-1-0.448-1-1s0.447-1,1-1h12c0.553,0,1,0.448,1,1S21.553,26,21,26z M39,38H27c-0.553,0-1-0.448-1-1s0.447-1,1-1h12
	c0.553,0,1,0.448,1,1S39.553,38,39,38z M41,34H27c-0.553,0-1-0.448-1-1s0.447-1,1-1h14c0.553,0,1,0.448,1,1S41.553,34,41,34z M41,30
	H27c-0.553,0-1-0.448-1-1s0.447-1,1-1h14c0.553,0,1,0.448,1,1S41.553,30,41,30z M41,26H27c-0.553,0-1-0.448-1-1s0.447-1,1-1h14
	c0.553,0,1,0.448,1,1S41.553,26,41,26z M44,19c0,0.552-0.447,1-1,1H5c-0.553,0-1-0.448-1-1v-6c0-0.552,0.447-1,1-1h38
	c0.553,0,1,0.448,1,1V19z"/>
</svg>
