<?xml version="1.0" encoding="utf-8"?>
<!-- Generator: Adobe Illustrator 17.0.0, SVG Export Plug-In . SVG Version: 6.00 Build 0)  -->
<!DOCTYPE svg PUBLIC "-//W3C//DTD SVG 1.1//EN" "http://www.w3.org/Graphics/SVG/1.1/DTD/svg11.dtd">
<svg version="1.1" id="Layer_2" xmlns="http://www.w3.org/2000/svg" xmlns:xlink="http://www.w3.org/1999/xlink" x="0px" y="0px"
	 width="48px" height="48px" viewBox="0 0 48 48" enable-background="new 0 0 48 48" xml:space="preserve">
<g>
	<path fill="#010101" d="M34,4V2V0H1C0.447,0,0,0.448,0,1v40c0,3.86,3.141,7,7,7h29.881C35.19,46.276,34,43.656,34,41V4z M6,13
		c0-0.552,0.447-1,1-1h10c0.553,0,1,0.448,1,1v12c0,0.552-0.447,1-1,1H7c-0.553,0-1-0.448-1-1V13z M29,38H7c-0.553,0-1-0.448-1-1
		s0.447-1,1-1h22c0.553,0,1,0.448,1,1S29.553,38,29,38z M29,34H7c-0.553,0-1-0.448-1-1s0.447-1,1-1h22c0.553,0,1,0.448,1,1
		S29.553,34,29,34z M29,30H7c-0.553,0-1-0.448-1-1s0.447-1,1-1h22c0.553,0,1,0.448,1,1S29.553,30,29,30z M29,26h-8
		c-0.553,0-1-0.448-1-1s0.447-1,1-1h8c0.553,0,1,0.448,1,1S29.553,26,29,26z M29,22h-8c-0.553,0-1-0.448-1-1s0.447-1,1-1h8
		c0.553,0,1,0.448,1,1S29.553,22,29,22z M29,18h-6c-0.553,0-1-0.448-1-1s0.447-1,1-1h6c0.553,0,1,0.448,1,1S29.553,18,29,18z M29,8
		H7C6.447,8,6,7.552,6,7s0.447-1,1-1h22c0.553,0,1,0.448,1,1S29.553,8,29,8z"/>
	<path fill="#010101" d="M47,6h-7V4c0-0.552-0.447-1-1-1h-3v1v1v36c0,3.402,2.57,7,5,7c3.859,0,7-3.14,7-7V7C48,6.448,47.553,6,47,6
		z M42,41c0,0.551-0.448,1-1,1c-0.552,0-1-0.449-1-1V12h2V41z"/>
</g>
</svg>
