<?xml version="1.0" encoding="utf-8"?>
<!-- Generator: Adobe Illustrator 17.0.0, SVG Export Plug-In . SVG Version: 6.00 Build 0)  -->
<!DOCTYPE svg PUBLIC "-//W3C//DTD SVG 1.1//EN" "http://www.w3.org/Graphics/SVG/1.1/DTD/svg11.dtd">
<svg version="1.1" id="Layer_2" xmlns="http://www.w3.org/2000/svg" xmlns:xlink="http://www.w3.org/1999/xlink" x="0px" y="0px"
	 width="48px" height="48px" viewBox="0 0 48 48" enable-background="new 0 0 48 48" xml:space="preserve">
<g>
	<path fill="#010101" d="M21,26H1c-0.553,0-1,0.448-1,1v20c0,0.552,0.447,1,1,1h20c0.553,0,1-0.448,1-1V27
		C22,26.448,21.553,26,21,26z M11,32H6v5c0,0.552-0.447,1-1,1c-0.553,0-1-0.448-1-1v-6c0-0.552,0.447-1,1-1h6c0.553,0,1,0.448,1,1
		C12,31.552,11.553,32,11,32z"/>
	<path fill="#010101" d="M47,26H27c-0.553,0-1,0.448-1,1v20c0,0.552,0.447,1,1,1h20c0.553,0,1-0.448,1-1V27
		C48,26.448,47.553,26,47,26z M37,32h-5v5c0,0.552-0.447,1-1,1c-0.553,0-1-0.448-1-1v-6c0-0.552,0.447-1,1-1h6c0.553,0,1,0.448,1,1
		C38,31.552,37.553,32,37,32z"/>
	<path fill="#010101" d="M15,24h20c0.553,0,1-0.448,1-1V3c0-0.552-0.447-1-1-1H15c-0.553,0-1,0.448-1,1v20
		C14,23.552,14.447,24,15,24z M18,7c0-0.552,0.447-1,1-1h6c0.553,0,1,0.448,1,1c0,0.552-0.447,1-1,1h-5v5c0,0.552-0.447,1-1,1
		c-0.553,0-1-0.448-1-1V7z"/>
</g>
</svg>
