<?xml version="1.0" encoding="utf-8"?>
<!-- Generator: Adobe Illustrator 17.0.0, SVG Export Plug-In . SVG Version: 6.00 Build 0)  -->
<!DOCTYPE svg PUBLIC "-//W3C//DTD SVG 1.1//EN" "http://www.w3.org/Graphics/SVG/1.1/DTD/svg11.dtd">
<svg version="1.1" id="Layer_2" xmlns="http://www.w3.org/2000/svg" xmlns:xlink="http://www.w3.org/1999/xlink" x="0px" y="0px"
	 width="48px" height="48px" viewBox="0 0 48 48" enable-background="new 0 0 48 48" xml:space="preserve">
<g>
	<path fill="#010101" d="M36,17.073V5.038L26,7.832v13.919l9.371-3.749C35.751,17.85,36,17.482,36,17.073z"/>
	<path fill="#010101" d="M25,6c0.026,0,0.048,0.013,0.073,0.015l10.274-2.87c-0.021-0.008-0.038-0.023-0.06-0.029l-10-3
		c-0.188-0.056-0.387-0.056-0.574,0l-10,3c-0.022,0.007-0.039,0.021-0.06,0.029l10.274,2.87C24.952,6.013,24.974,6,25,6z"/>
	<path fill="#010101" d="M14.629,18.002L24,21.751V7.832L14,5.038v12.035C14,17.482,14.249,17.85,14.629,18.002z"/>
	<path fill="#010101" d="M28,34.073c0,0.379,0.214,0.725,0.553,0.895L36,38.691v-9.903l-8-2.732V34.073z"/>
	<path fill="#010101" d="M45.352,24.137l-8-3c-0.227-0.085-0.477-0.085-0.703,0l-8,3c-0.011,0.004-0.02,0.013-0.031,0.018
		l8.352,2.852C36.98,27.006,36.989,27,37,27c0.011,0,0.02,0.006,0.03,0.006l8.352-2.852C45.371,24.149,45.363,24.141,45.352,24.137z
		"/>
	<path fill="#010101" d="M38,28.789v9.903l7.447-3.724C45.786,34.798,46,34.452,46,34.073v-8.017L38,28.789z"/>
	<path fill="#010101" d="M13.316,22.125c-0.205-0.068-0.428-0.068-0.633,0L1.97,25.696L13,30l11.029-4.304L13.316,22.125z"/>
	<path fill="#010101" d="M0,43.073c0,0.431,0.275,0.812,0.684,0.949L12,47.794V31.756L0,27.074V43.073z"/>
	<path fill="#010101" d="M14,47.794l11.316-3.772C25.725,43.886,26,43.504,26,43.073v-16l-12,4.683V47.794z"/>
</g>
</svg>
