<?xml version="1.0" encoding="utf-8"?>
<!-- Generator: Adobe Illustrator 17.1.0, SVG Export Plug-In . SVG Version: 6.00 Build 0)  -->
<!DOCTYPE svg PUBLIC "-//W3C//DTD SVG 1.0//EN" "http://www.w3.org/TR/2001/REC-SVG-20010904/DTD/svg10.dtd">
<svg version="1.0" id="Layer_1" xmlns="http://www.w3.org/2000/svg" xmlns:xlink="http://www.w3.org/1999/xlink" x="0px" y="0px"
	 width="48px" height="48px" viewBox="0 0 48 48" enable-background="new 0 0 48 48" xml:space="preserve">
<g>
	<path d="M38,23.828h-3v19.359c1.235-0.772,2.322-1.566,3.279-2.359H38V23.828z"/>
	<path d="M8,3.099C6.91,2.565,5.779,1.893,4.573,1.05C4.266,0.836,3.868,0.812,3.538,0.983C3.207,1.156,3,1.498,3,1.87v19.958h5
		V3.099z"/>
	<path d="M30,45.784c1.074-0.46,2.07-0.944,3-1.442V23.828h-3V45.784z"/>
	<path d="M3,31.494c0,0.09,0.012,0.179,0.036,0.265C3.158,32.206,6.208,42.595,23,47.573V23.828H3V31.494z"/>
	<path d="M25,47.573c1.053-0.312,2.052-0.645,3-0.996V23.828h-3V47.573z"/>
	<path d="M40,39.276c3.89-3.834,4.895-7.265,4.964-7.517C44.988,31.673,45,31.584,45,31.494v-7.666h-5V39.276z"/>
	<path d="M13,4.572c-0.991-0.084-1.985-0.302-3-0.644v17.901h3V4.572z"/>
	<path d="M20,2.97v18.858h3V0.427C22.132,1.451,21.119,2.305,20,2.97z"/>
	<path d="M18,3.922c-0.959,0.346-1.967,0.557-3,0.643v17.264h3V3.922z"/>
	<path d="M44.462,0.983c-0.33-0.172-0.729-0.147-1.034,0.067c-3.534,2.468-6.45,3.569-9.453,3.569c-3.472,0-6.72-1.53-8.975-4.19
		v21.399h20V1.87C45,1.498,44.793,1.156,44.462,0.983z"/>
</g>
</svg>
