<?xml version="1.0" encoding="utf-8"?>
<!-- Generator: Adobe Illustrator 17.0.0, SVG Export Plug-In . SVG Version: 6.00 Build 0)  -->
<!DOCTYPE svg PUBLIC "-//W3C//DTD SVG 1.1//EN" "http://www.w3.org/Graphics/SVG/1.1/DTD/svg11.dtd">
<svg version="1.1" id="Layer_2" xmlns="http://www.w3.org/2000/svg" xmlns:xlink="http://www.w3.org/1999/xlink" x="0px" y="0px"
	 width="48px" height="48px" viewBox="0 0 48 48" enable-background="new 0 0 48 48" xml:space="preserve">
<path fill="#010101" d="M45.462,1.155c-0.331-0.172-0.729-0.147-1.034,0.067c-3.534,2.468-6.45,3.569-9.453,3.569
	c-3.574,0-6.92-1.61-9.18-4.418c-0.381-0.472-1.213-0.472-1.592,0.001c-2.258,2.807-5.603,4.417-9.178,4.417
	c-3.005,0-5.921-1.101-9.452-3.569C5.267,1.008,4.869,0.983,4.538,1.155C4.207,1.328,4,1.669,4,2.042v29.624
	c0,0.09,0.012,0.179,0.036,0.265C4.16,32.384,7.287,43.075,24.73,47.963C24.818,47.988,24.909,48,25,48
	c0.091,0,0.182-0.012,0.269-0.037c17.443-4.888,20.57-15.579,20.694-16.032C45.988,31.845,46,31.756,46,31.666V2.042
	C46,1.669,45.793,1.328,45.462,1.155z M34,25h-5c-0.553,0-1,0.448-1,1v5h-6v-5c0-0.552-0.447-1-1-1h-5v-6h5c0.553,0,1-0.448,1-1v-5
	h6v5c0,0.552,0.447,1,1,1h5V25z"/>
</svg>
