<?xml version="1.0" encoding="utf-8"?>
<!-- Generator: Adobe Illustrator 17.0.0, SVG Export Plug-In . SVG Version: 6.00 Build 0)  -->
<!DOCTYPE svg PUBLIC "-//W3C//DTD SVG 1.1//EN" "http://www.w3.org/Graphics/SVG/1.1/DTD/svg11.dtd">
<svg version="1.1" id="Layer_2" xmlns="http://www.w3.org/2000/svg" xmlns:xlink="http://www.w3.org/1999/xlink" x="0px" y="0px"
	 width="48px" height="48px" viewBox="0 0 48 48" enable-background="new 0 0 48 48" xml:space="preserve">
<g>
	<path fill="#010101" d="M4,31.665c0,0.09,0.012,0.179,0.036,0.265C4.158,32.377,7.208,42.766,24,47.744V24H4V31.665z"/>
	<path fill="#010101" d="M45.462,1.154c-0.331-0.172-0.729-0.147-1.034,0.067c-3.535,2.468-6.45,3.569-9.453,3.569
		c-3.531,0-6.779-1.527-8.975-4.183V22h20V2.041C46,1.669,45.793,1.327,45.462,1.154z"/>
	<path fill="#010101" d="M15.025,4.791c-3.005,0-5.92-1.101-9.452-3.569C5.267,1.007,4.869,0.982,4.538,1.154
		C4.207,1.327,4,1.669,4,2.041V22h20V0.605C21.804,3.263,18.556,4.791,15.025,4.791z"/>
	<path fill="#010101" d="M26,47.744c16.791-4.979,19.842-15.368,19.964-15.814C45.988,31.844,46,31.755,46,31.665V24H26V47.744z"/>
</g>
</svg>
