<?xml version="1.0" encoding="utf-8"?>
<!-- Generator: Adobe Illustrator 17.0.0, SVG Export Plug-In . SVG Version: 6.00 Build 0)  -->
<!DOCTYPE svg PUBLIC "-//W3C//DTD SVG 1.1//EN" "http://www.w3.org/Graphics/SVG/1.1/DTD/svg11.dtd">
<svg version="1.1" id="Layer_2" xmlns="http://www.w3.org/2000/svg" xmlns:xlink="http://www.w3.org/1999/xlink" x="0px" y="0px"
	 width="48px" height="48px" viewBox="0 0 48 48" enable-background="new 0 0 48 48" xml:space="preserve">
<g>
	<path fill="#010101" d="M47,4h-7v6v1v29H8V11v-1V4H1C0.447,4,0,4.448,0,5v42c0,0.552,0.447,1,1,1h46c0.553,0,1-0.448,1-1V5
		C48,4.448,47.553,4,47,4z"/>
	<rect x="14" y="4" fill="#010101" width="7" height="6"/>
	<rect x="27" y="4" fill="#010101" width="7" height="6"/>
	<path fill="#010101" d="M11,12c0.552,0,1-0.449,1-1V1c0-0.551-0.448-1-1-1s-1,0.449-1,1v10C10,11.551,10.448,12,11,12z"/>
	<path fill="#010101" d="M24,12c0.552,0,1-0.449,1-1V1c0-0.551-0.448-1-1-1s-1,0.449-1,1v10C23,11.551,23.448,12,24,12z"/>
	<path fill="#010101" d="M37,12c0.552,0,1-0.449,1-1V1c0-0.551-0.448-1-1-1s-1,0.449-1,1v10C36,11.551,36.448,12,37,12z"/>
</g>
</svg>
