<?xml version="1.0" encoding="utf-8"?>
<!-- Generator: Adobe Illustrator 17.0.0, SVG Export Plug-In . SVG Version: 6.00 Build 0)  -->
<!DOCTYPE svg PUBLIC "-//W3C//DTD SVG 1.1//EN" "http://www.w3.org/Graphics/SVG/1.1/DTD/svg11.dtd">
<svg version="1.1" id="Layer_2" xmlns="http://www.w3.org/2000/svg" xmlns:xlink="http://www.w3.org/1999/xlink" x="0px" y="0px"
	 width="48px" height="48px" viewBox="0 0 48 48" enable-background="new 0 0 48 48" xml:space="preserve">
<g>
	<path fill="#010101" d="M0.101,12H0v1v1v29c0,2.757,2.243,5,5,5h25V16H5c-1.654,0-3-1.346-3-3s1.346-3,3-3h25V8H5
		C2.585,8,0.566,9.721,0.101,12z M8,29c0-0.552,0.447-1,1-1h4.63l6.72-5.759c0.296-0.254,0.713-0.313,1.068-0.149
		C21.772,22.255,22,22.609,22,23v18c0,0.391-0.228,0.745-0.582,0.909C21.284,41.97,21.142,42,21,42c-0.234,0-0.466-0.083-0.65-0.241
		L13.63,36H9c-0.553,0-1-0.448-1-1V29z"/>
	<path fill="#010101" d="M5,12c-0.553,0-1,0.448-1,1s0.447,1,1,1h22c0.553,0,1-0.448,1-1s-0.447-1-1-1H5z"/>
	<path fill="#010101" d="M38.9,22.121c-0.391-0.391-1.023-0.39-1.414,0c-0.391,0.391-0.391,1.023,0,1.415
		C39.752,25.803,41,28.817,41,32.021c0,3.205-1.248,6.218-3.514,8.484c-0.391,0.391-0.391,1.023,0,1.414
		c0.195,0.195,0.451,0.293,0.707,0.293c0.256,0,0.512-0.098,0.707-0.293c2.644-2.643,4.1-6.159,4.1-9.898
		C43,28.283,41.544,24.767,38.9,22.121z"/>
	<path fill="#010101" d="M42.728,19.293c-0.391-0.391-1.023-0.391-1.414,0c-0.391,0.391-0.391,1.023,0,1.414
		C44.336,23.729,46,27.747,46,32.021c0,4.273-1.664,8.291-4.686,11.312c-0.391,0.391-0.391,1.023,0,1.414
		c0.195,0.195,0.451,0.293,0.707,0.293c0.256,0,0.512-0.098,0.707-0.293C46.128,41.349,48,36.829,48,32.021
		C48,27.213,46.128,22.692,42.728,19.293z"/>
	<path fill="#010101" d="M35.072,24.949c-0.391-0.391-1.024-0.391-1.414,0s-0.391,1.024,0,1.414c1.51,1.51,2.342,3.519,2.342,5.658
		c0,2.137-0.832,4.146-2.342,5.657c-0.391,0.391-0.391,1.024,0,1.415c0.195,0.195,0.451,0.292,0.707,0.292
		c0.256,0,0.512-0.098,0.707-0.293C36.96,37.204,38,34.692,38,32.021C38,29.349,36.96,26.837,35.072,24.949z"/>
</g>
</svg>
