<?xml version="1.0" encoding="utf-8"?>
<!-- Generator: Adobe Illustrator 17.0.0, SVG Export Plug-In . SVG Version: 6.00 Build 0)  -->
<!DOCTYPE svg PUBLIC "-//W3C//DTD SVG 1.1//EN" "http://www.w3.org/Graphics/SVG/1.1/DTD/svg11.dtd">
<svg version="1.1" id="Layer_2" xmlns="http://www.w3.org/2000/svg" xmlns:xlink="http://www.w3.org/1999/xlink" x="0px" y="0px"
	 width="48px" height="48px" viewBox="0 0 48 48" enable-background="new 0 0 48 48" xml:space="preserve">
<g>
	<path fill="#010101" d="M29,0H17c-0.553,0-1,0.448-1,1v12c0,0.552,0.447,1,1,1h12c0.553,0,1-0.448,1-1V1C30,0.448,29.553,0,29,0z"
		/>
	<path fill="#010101" d="M13,0H1C0.447,0,0,0.448,0,1v12c0,0.552,0.447,1,1,1h12c0.553,0,1-0.448,1-1V1C14,0.448,13.553,0,13,0z"/>
	<path fill="#010101" d="M45,0H33c-0.553,0-1,0.448-1,1v12c0,0.552,0.447,1,1,1h12c0.553,0,1-0.448,1-1V1C46,0.448,45.553,0,45,0z"
		/>
	<path fill="#010101" d="M29,16H17c-0.553,0-1,0.448-1,1v12c0,0.552,0.447,1,1,1h12c0.553,0,1-0.448,1-1V17
		C30,16.448,29.553,16,29,16z"/>
	<path fill="#010101" d="M13,16H1c-0.553,0-1,0.448-1,1v12c0,0.552,0.447,1,1,1h12c0.553,0,1-0.448,1-1V17
		C14,16.448,13.553,16,13,16z"/>
	<path fill="#010101" d="M45,16H33c-0.553,0-1,0.448-1,1v12c0,0.552,0.447,1,1,1h12c0.553,0,1-0.448,1-1V17
		C46,16.448,45.553,16,45,16z"/>
	<path fill="#010101" d="M29,32H17c-0.553,0-1,0.448-1,1v12c0,0.552,0.447,1,1,1h12c0.553,0,1-0.448,1-1V33
		C30,32.448,29.553,32,29,32z"/>
	<path fill="#010101" d="M13,32H1c-0.553,0-1,0.448-1,1v12c0,0.552,0.447,1,1,1h12c0.553,0,1-0.448,1-1V33
		C14,32.448,13.553,32,13,32z"/>
	<path fill="#010101" d="M45,32H33c-0.553,0-1,0.448-1,1v12c0,0.552,0.447,1,1,1h12c0.553,0,1-0.448,1-1V33
		C46,32.448,45.553,32,45,32z"/>
</g>
</svg>
