<?xml version="1.0" encoding="utf-8"?>
<!-- Generator: Adobe Illustrator 17.0.0, SVG Export Plug-In . SVG Version: 6.00 Build 0)  -->
<!DOCTYPE svg PUBLIC "-//W3C//DTD SVG 1.1//EN" "http://www.w3.org/Graphics/SVG/1.1/DTD/svg11.dtd">
<svg version="1.1" id="Layer_1" xmlns="http://www.w3.org/2000/svg" xmlns:xlink="http://www.w3.org/1999/xlink" x="0px" y="0px"
	 width="60px" height="60px" viewBox="0 0 60 60" enable-background="new 0 0 60 60" xml:space="preserve">
<g>
	<path fill="#231F20" d="M29.511,11.304c-10.268,0-18.62,8.367-18.62,18.652c0,10.285,8.397,18.652,18.718,18.652
		c3.315,0,6.674-0.886,9.458-2.496c0.477-0.276,0.642-0.888,0.364-1.366c-0.276-0.479-0.887-0.643-1.366-0.365
		c-2.483,1.436-5.486,2.227-8.456,2.227c-9.218,0-16.718-7.47-16.718-16.652c0-9.182,7.456-16.652,16.62-16.652
		c6.103,0,11.075,1.818,14.381,5.259c2.675,2.784,4.209,6.627,4.209,10.546c0,4.31-1.971,8.673-5.736,8.673
		c-1.001,0-1.701-0.194-2.081-0.578c-0.474-0.478-0.466-1.309-0.459-1.976l0.002-12.837c0-0.552-0.447-1-1-1c-0.553,0-1,0.448-1,1
		V24.8c-1.734-2.797-4.823-4.67-8.349-4.67c-5.418,0-9.825,4.408-9.825,9.826c0,5.418,4.407,9.826,9.825,9.826
		c3.525,0,6.614-1.873,8.348-4.669l0,0.094c-0.01,0.873-0.024,2.333,1.036,3.404c0.77,0.777,1.948,1.171,3.503,1.171
		c4.482,0,7.736-4.489,7.736-10.673c0-4.43-1.737-8.779-4.767-11.932C41.643,13.335,36.171,11.304,29.511,11.304z M29.477,37.783
		c-4.314,0-7.825-3.511-7.825-7.826c0-4.315,3.511-7.826,7.825-7.826c4.316,0,7.826,3.511,7.826,7.826
		C37.304,34.272,33.793,37.783,29.477,37.783z"/>
	<path fill="#231F20" d="M56,0h-7c-0.553,0-1,0.448-1,1v1c0,1.542-1.458,3-3,3s-3-1.458-3-3V1c0-0.552-0.447-1-1-1h-7
		c-0.553,0-1,0.448-1,1v1c0,1.542-1.458,3-3,3s-3-1.458-3-3V1c0-0.552-0.447-1-1-1h-7c-0.553,0-1,0.448-1,1v1c0,1.542-1.458,3-3,3
		s-3-1.458-3-3V1c0-0.552-0.447-1-1-1H4C2.056,0,0,2.056,0,4v7.044c0,0.273,0.111,0.534,0.309,0.722
		c0.197,0.188,0.479,0.284,0.734,0.277L2,12c1.542,0,3,1.458,3,3s-1.458,3-3,3H1c-0.553,0-1,0.448-1,1v7c0,0.552,0.447,1,1,1h1
		c1.565,0,3.044,1.437,3.044,2.956C5.044,31.493,3.536,33,2,33H1c-0.553,0-1,0.448-1,1v7c0,0.552,0.447,1,1,1h1c1.542,0,3,1.458,3,3
		s-1.458,3-3,3H1c-0.553,0-1,0.448-1,1v7c0,1.944,2.056,4,4,4h7c0.553,0,1-0.448,1-1v-1c0-1.542,1.458-3,3-3s3,1.458,3,3v1
		c0,0.552,0.447,1,1,1h7c0.553,0,1-0.448,1-1v-1c0-1.542,1.458-3,3-3s3,1.458,3,3v1c0,0.552,0.447,1,1,1h7c0.553,0,1-0.448,1-1v-1
		c0-1.542,1.458-3,3-3s3,1.458,3,3v1c0,0.552,0.447,1,1,1h7c1.944,0,4-2.056,4-4v-7c0-0.552-0.447-1-1-1h-1c-1.542,0-3-1.458-3-3
		s1.458-3,3-3h1c0.553,0,1-0.448,1-1v-7c0-0.552-0.447-1-1-1h-1c-1.542,0-3-1.458-3-3s1.458-3,3-3h1c0.553,0,1-0.448,1-1v-7
		c0-0.552-0.447-1-1-1h-1c-1.542,0-3-1.458-3-3s1.458-3,3-3h1c0.553,0,1-0.448,1-1V4C60,2.056,57.944,0,56,0z M58,10
		c-2.663,0-5,2.336-5,5s2.337,5,5,5v5c-2.663,0-5,2.336-5,5s2.337,5,5,5v5c-2.663,0-5,2.336-5,5s2.337,5,5,5v6c0,0.841-1.159,2-2,2
		h-6c0-2.664-2.337-5-5-5s-5,2.336-5,5h-5c0-2.664-2.337-5-5-5s-5,2.336-5,5h-5c0-2.664-2.337-5-5-5s-5,2.336-5,5H4
		c-0.841,0-2-1.159-2-2v-6c2.663,0,5-2.336,5-5s-2.337-5-5-5v-5c2.64,0,5.044-2.404,5.044-5.044C7.044,27.316,4.686,25,2,25v-5
		c2.663,0,5-2.336,5-5c0-2.649-2.312-4.975-5-4.999V4c0-0.841,1.159-2,2-2h6c0,2.664,2.337,5,5,5s5-2.336,5-5h5c0,2.664,2.337,5,5,5
		s5-2.336,5-5h5c0,2.664,2.337,5,5,5s5-2.336,5-5h6c0.841,0,2,1.159,2,2V10z"/>
</g>
</svg>
