<?xml version="1.0" encoding="utf-8"?>
<!-- Generator: Adobe Illustrator 17.0.0, SVG Export Plug-In . SVG Version: 6.00 Build 0)  -->
<!DOCTYPE svg PUBLIC "-//W3C//DTD SVG 1.1//EN" "http://www.w3.org/Graphics/SVG/1.1/DTD/svg11.dtd">
<svg version="1.1" id="Layer_1" xmlns="http://www.w3.org/2000/svg" xmlns:xlink="http://www.w3.org/1999/xlink" x="0px" y="0px"
	 width="60px" height="60px" viewBox="0 0 60 60" enable-background="new 0 0 60 60" xml:space="preserve">
<g>
	<path fill="#231F20" d="M30,0C13.458,0,0,13.458,0,30s13.458,30,30,30s30-13.458,30-30S46.542,0,30,0z M30,58
		C14.56,58,2,45.44,2,30S14.56,2,30,2s28,12.56,28,28S45.44,58,30,58z"/>
	<path fill="#231F20" d="M30,11.348c-10.285,0-18.652,8.367-18.652,18.652S19.715,48.652,30,48.652c3.279,0,6.504-0.863,9.327-2.496
		c0.479-0.277,0.642-0.888,0.365-1.366c-0.277-0.479-0.89-0.643-1.366-0.365c-2.519,1.457-5.398,2.227-8.326,2.227
		c-9.182,0-16.652-7.47-16.652-16.652c0-9.182,7.47-16.652,16.652-16.652c6.065,0,10.999,1.797,14.271,5.197
		c2.647,2.751,4.165,6.564,4.165,10.462c0,4.275-2.042,8.819-5.827,8.819c-2.783,0-2.783-1.479-2.783-2.783V22.435
		c0-0.552-0.448-1-1-1c-0.552,0-1,0.448-1,1v1.648c-1.796-2.369-4.631-3.909-7.826-3.909c-5.418,0-9.826,4.408-9.826,9.826
		s4.408,9.826,9.826,9.826c3.212,0,6.061-1.557,7.855-3.947c0.126,1.523,0.828,3.947,4.754,3.947c4.535,0,7.827-4.55,7.827-10.819
		c0-4.411-1.722-8.729-4.724-11.849C42.054,13.357,36.621,11.348,30,11.348z M30,37.826c-4.315,0-7.826-3.511-7.826-7.826
		c0-4.315,3.511-7.826,7.826-7.826c4.315,0,7.826,3.511,7.826,7.826C37.826,34.315,34.315,37.826,30,37.826z"/>
</g>
</svg>
