<?xml version="1.0" encoding="utf-8"?>
<!-- Generator: Adobe Illustrator 17.0.0, SVG Export Plug-In . SVG Version: 6.00 Build 0)  -->
<!DOCTYPE svg PUBLIC "-//W3C//DTD SVG 1.1//EN" "http://www.w3.org/Graphics/SVG/1.1/DTD/svg11.dtd">
<svg version="1.1" id="Layer_1" xmlns="http://www.w3.org/2000/svg" xmlns:xlink="http://www.w3.org/1999/xlink" x="0px" y="0px"
	 width="60px" height="60px" viewBox="0 0 60 60" enable-background="new 0 0 60 60" xml:space="preserve">
<g>
	<path fill="#231F20" d="M37.648,12.934c-0.298-0.253-0.715-0.309-1.067-0.146C36.227,12.952,36,13.306,36,13.696V22H5
		c-0.552,0-1,0.448-1,1v16c0,0.552,0.448,1,1,1h31v9c0,0.388,0.224,0.741,0.575,0.905C36.71,49.969,36.855,50,37,50
		c0.229,0,0.456-0.079,0.639-0.231l21-17.445c0.227-0.189,0.359-0.468,0.361-0.763c0.001-0.295-0.127-0.576-0.352-0.767
		L37.648,12.934z M38,46.869V39c0-0.552-0.448-1-1-1H6V24h31c0.552,0,1-0.448,1-1v-7.141l18.446,15.688L38,46.869z"/>
</g>
</svg>
