<?xml version="1.0" encoding="utf-8"?>
<!-- Generator: Adobe Illustrator 17.0.0, SVG Export Plug-In . SVG Version: 6.00 Build 0)  -->
<!DOCTYPE svg PUBLIC "-//W3C//DTD SVG 1.1//EN" "http://www.w3.org/Graphics/SVG/1.1/DTD/svg11.dtd">
<svg version="1.1" id="Layer_1" xmlns="http://www.w3.org/2000/svg" xmlns:xlink="http://www.w3.org/1999/xlink" x="0px" y="0px"
	 width="60px" height="60px" viewBox="0 0 60 60" enable-background="new 0 0 60 60" xml:space="preserve">
<g>
	<path fill="#231F20" d="M60,48V28c0-0.514-0.393-0.922-0.893-0.978l-8.075-13.534C50.852,13.185,50.526,13,50.174,13H9.826
		c-0.353,0-0.679,0.185-0.858,0.488L0.893,27.022C0.393,27.078,0,27.486,0,28v20c0,0.552,0.447,1,1,1h58C59.553,49,60,48.552,60,48z
		 M10.394,15h39.213l7.16,12H40.999c-0.266,0-0.52,0.106-0.707,0.293S39.999,27.735,39.999,28L40,31c0,1.458-2.542,4-4,4H25
		c-1.362,0-3-2.457-3-4v-3c0-0.552-0.447-1-1-1H3.234L10.394,15z M2,47V29.067L2.04,29H20v2c0,2.369,2.24,6,5,6h11
		c2.579,0,6-3.42,6-6l-0.001-2H57.96L58,29.067V47H2z"/>
</g>
</svg>
