<?xml version="1.0" encoding="utf-8"?>
<!-- Generator: Adobe Illustrator 17.0.0, SVG Export Plug-In . SVG Version: 6.00 Build 0)  -->
<!DOCTYPE svg PUBLIC "-//W3C//DTD SVG 1.1//EN" "http://www.w3.org/Graphics/SVG/1.1/DTD/svg11.dtd">
<svg version="1.1" id="Layer_1" xmlns="http://www.w3.org/2000/svg" xmlns:xlink="http://www.w3.org/1999/xlink" x="0px" y="0px"
	 width="60px" height="60px" viewBox="0 0 60 60" enable-background="new 0 0 60 60" xml:space="preserve">
<g>
	<path fill="#231F20" d="M21.174,10h2.522c0.552,0,1-0.448,1-1s-0.448-1-1-1h-2.522c-0.552,0-1,0.448-1,1S20.622,10,21.174,10z"/>
	<path fill="#231F20" d="M26.217,14h12.609c0.552,0,1-0.448,1-1s-0.448-1-1-1H26.217c-0.552,0-1,0.448-1,1S25.665,14,26.217,14z"/>
	<path fill="#231F20" d="M21.174,20h17.652c0.552,0,1-0.448,1-1s-0.448-1-1-1H21.174c-0.552,0-1,0.448-1,1S20.622,20,21.174,20z"/>
	<path fill="#231F20" d="M21.174,26h17.652c0.552,0,1-0.448,1-1s-0.448-1-1-1H21.174c-0.552,0-1,0.448-1,1S20.622,26,21.174,26z"/>
	<path fill="#231F20" d="M21.174,32.261h17.652c0.552,0,1-0.448,1-1c0-0.552-0.448-1-1-1H21.174c-0.552,0-1,0.448-1,1
		C20.174,31.813,20.622,32.261,21.174,32.261z"/>
	<path fill="#231F20" d="M59.384,40.078l-8.536-13.609C50.664,26.177,50.344,26,50,26h-2V3c0-0.552-0.448-1-1-1H13
		c-0.552,0-1,0.448-1,1v23h-2c-0.344,0-0.664,0.177-0.847,0.469L0.616,40.078C0.255,40.228,0,40.584,0,41v18c0,0.552,0.448,1,1,1h58
		c0.552,0,1-0.448,1-1V41C60,40.584,59.745,40.228,59.384,40.078z M10.553,28H12v8c0,0.552,0.448,1,1,1s1-0.448,1-1V4h32v32
		c0,0.552,0.448,1,1,1s1-0.448,1-1v-8h1.447l7.527,12H41c-0.552,0-1,0.448-1,1v3c0,2.206-1.794,4-4,4H25c-2.61,0-3-2.506-3-4v-3
		c0-0.552-0.448-1-1-1H3.026L10.553,28z M58,58H2V42h18v2c0,3.701,1.916,6,5,6h11c3.309,0,6-2.691,6-6v-2h16V58z"/>
</g>
</svg>
