<?xml version="1.0" encoding="utf-8"?>
<!-- Generator: Adobe Illustrator 17.0.0, SVG Export Plug-In . SVG Version: 6.00 Build 0)  -->
<!DOCTYPE svg PUBLIC "-//W3C//DTD SVG 1.1//EN" "http://www.w3.org/Graphics/SVG/1.1/DTD/svg11.dtd">
<svg version="1.1" id="Layer_1" xmlns="http://www.w3.org/2000/svg" xmlns:xlink="http://www.w3.org/1999/xlink" x="0px" y="0px"
	 width="60px" height="60px" viewBox="0 0 60 60" enable-background="new 0 0 60 60" xml:space="preserve">
<g>
	<path fill="#231F20" d="M55.969,16h-30c-3.968,0-5.425,3.64-6.047,5.194l-7.06,17.652c-0.545,1.361-0.472,2.711,0.2,3.704
		C13.695,43.485,14.759,44,16.06,44H46.32c2.5,0,5.234-1.938,6.225-4.411l7.06-17.652c0.636-1.587,0.556-3.213-0.213-4.349
		C58.902,16.864,57.91,16,55.969,16z M57.748,21.194l-7.06,17.652C50.003,40.556,48.003,42,46.32,42H16.06
		c-0.436,0-1.022-0.099-1.341-0.571c-0.294-0.435-0.294-1.105,0-1.84l7.06-17.652C22.725,19.574,23.799,18,25.969,18h30
		c0.854,0,1.448,0.239,1.767,0.71C58.127,19.286,58.131,20.238,57.748,21.194z"/>
	<path fill="#231F20" d="M52.637,21.955l-17.233,9.71l-9.3-9.537c-0.385-0.395-1.019-0.404-1.414-0.018
		c-0.395,0.385-0.403,1.018-0.017,1.414l9.836,10.087c0.193,0.198,0.453,0.302,0.716,0.302c0.167,0,0.336-0.042,0.49-0.129
		l17.903-10.087c0.481-0.271,0.651-0.881,0.38-1.362C53.729,21.854,53.119,21.684,52.637,21.955z"/>
	<path fill="#231F20" d="M26.369,32.2l-8,6c-0.442,0.331-0.531,0.958-0.2,1.4c0.196,0.262,0.497,0.4,0.801,0.4
		c0.208,0,0.419-0.065,0.599-0.2l8-6c0.442-0.331,0.531-0.958,0.2-1.4C27.439,31.958,26.813,31.869,26.369,32.2z"/>
	<path fill="#231F20" d="M43.801,32.445c-0.307-0.46-0.928-0.585-1.387-0.277c-0.46,0.306-0.583,0.927-0.277,1.387l4,6
		C46.33,39.844,46.647,40,46.97,40c0.19,0,0.383-0.054,0.554-0.168c0.459-0.306,0.583-0.927,0.277-1.387L43.801,32.445z"/>
	<path fill="#231F20" d="M0.969,18h13c0.552,0,1-0.448,1-1s-0.448-1-1-1h-13c-0.552,0-1,0.448-1,1S0.417,18,0.969,18z"/>
	<path fill="#231F20" d="M0.969,42h5c0.552,0,1-0.448,1-1s-0.448-1-1-1h-5c-0.552,0-1,0.448-1,1S0.417,42,0.969,42z"/>
	<path fill="#231F20" d="M0.969,30h7.565c0.552,0,1-0.448,1-1s-0.448-1-1-1H0.969c-0.552,0-1,0.448-1,1S0.417,30,0.969,30z"/>
</g>
</svg>
