<?xml version="1.0" encoding="utf-8"?>
<!-- Generator: Adobe Illustrator 17.0.0, SVG Export Plug-In . SVG Version: 6.00 Build 0)  -->
<!DOCTYPE svg PUBLIC "-//W3C//DTD SVG 1.1//EN" "http://www.w3.org/Graphics/SVG/1.1/DTD/svg11.dtd">
<svg version="1.1" id="Layer_1" xmlns="http://www.w3.org/2000/svg" xmlns:xlink="http://www.w3.org/1999/xlink" x="0px" y="0px"
	 width="60px" height="60px" viewBox="0 0 60 60" enable-background="new 0 0 60 60" xml:space="preserve">
<g>
	<path fill="#231F20" d="M55.217,10.027H4.783C2.146,10.027,0,12.172,0,14.809v30.164c0,2.664,2.336,5,5,5h50c2.664,0,5-2.336,5-5
		V14.809C60,12.172,57.854,10.027,55.217,10.027z M58,44.973c0,1.542-1.458,3-3,3H5c-1.542,0-3-1.458-3-3V14.809
		c0-1.534,1.249-2.782,2.783-2.782h50.435c1.534,0,2.783,1.248,2.783,2.782V44.973z"/>
	<path fill="#231F20" d="M51,17.973H41c-0.552,0-1,0.448-1,1v10c0,0.552,0.448,1,1,1h10c0.552,0,1-0.448,1-1v-10
		C52,18.421,51.552,17.973,51,17.973z M50,27.973h-8v-8h8V27.973z"/>
	<path fill="#231F20" d="M11,21.973h5c0.552,0,1-0.448,1-1s-0.448-1-1-1h-5c-0.552,0-1,0.448-1,1S10.448,21.973,11,21.973z"/>
	<path fill="#231F20" d="M11,35.973h22c0.552,0,1-0.448,1-1s-0.448-1-1-1H11c-0.552,0-1,0.448-1,1S10.448,35.973,11,35.973z"/>
	<path fill="#231F20" d="M41,39.973H11c-0.552,0-1,0.448-1,1s0.448,1,1,1h30c0.552,0,1-0.448,1-1S41.552,39.973,41,39.973z"/>
</g>
</svg>
