<?xml version="1.0" encoding="utf-8"?>
<!-- Generator: Adobe Illustrator 17.0.0, SVG Export Plug-In . SVG Version: 6.00 Build 0)  -->
<!DOCTYPE svg PUBLIC "-//W3C//DTD SVG 1.1//EN" "http://www.w3.org/Graphics/SVG/1.1/DTD/svg11.dtd">
<svg version="1.1" id="Layer_1" xmlns="http://www.w3.org/2000/svg" xmlns:xlink="http://www.w3.org/1999/xlink" x="0px" y="0px"
	 width="60px" height="60px" viewBox="0 0 60 60" enable-background="new 0 0 60 60" xml:space="preserve">
<g>
	<path fill="#231F20" d="M12,40.087C12,42.391,14.056,44,17,44h26c2.99,0,5-1.607,5-4V22c0-2.393-2.01-4-5-4H17
		c-3.037,0-5,1.741-5,4.435V40.087z M14,22.435C14,20.316,15.88,20,17,20h26c0.704,0,3,0.144,3,2v18c0,1.856-2.296,2-3,2H17
		c-1.445,0-3-0.599-3-1.913V22.435z"/>
	<path fill="#231F20" d="M18,39c0.234,0,0.469-0.081,0.658-0.248l7.524-6.584l3.185,2.605C29.551,34.925,29.775,35,30,35
		s0.449-0.075,0.633-0.226l3.185-2.605l7.524,6.584C41.531,38.919,41.766,39,42,39c0.278,0,0.555-0.116,0.753-0.341
		c0.363-0.416,0.321-1.047-0.095-1.411l-7.272-6.363l6.247-5.111c0.428-0.35,0.491-0.979,0.142-1.407
		c-0.351-0.427-0.98-0.49-1.407-0.141L30,32.708l-10.367-8.482c-0.428-0.349-1.057-0.287-1.407,0.141
		c-0.35,0.428-0.286,1.058,0.142,1.407l6.247,5.111l-7.272,6.363c-0.416,0.364-0.458,0.995-0.095,1.411
		C17.445,38.884,17.722,39,18,39z"/>
	<path fill="#231F20" d="M14.447,6.53c0.184,0,0.37-0.051,0.536-0.157C19.474,3.512,24.667,2,30,2
		c5.332,0,10.525,1.512,15.017,4.374c0.465,0.298,1.084,0.16,1.381-0.306c0.297-0.466,0.159-1.084-0.307-1.38
		C41.278,1.621,35.714,0,30,0c-5.715,0-11.279,1.621-16.091,4.687c-0.466,0.297-0.603,0.915-0.307,1.381
		C13.794,6.367,14.117,6.53,14.447,6.53z"/>
	<path fill="#231F20" d="M53.933,13.602c-0.466,0.297-0.602,0.915-0.307,1.38C56.487,19.474,58,24.667,58,30
		s-1.513,10.526-4.374,15.017c-0.296,0.465-0.159,1.083,0.307,1.38c0.166,0.106,0.353,0.157,0.536,0.157
		c0.33,0,0.653-0.164,0.845-0.463C58.379,41.279,60,35.715,60,30s-1.621-11.279-4.687-16.091
		C55.016,13.443,54.396,13.306,53.933,13.602z"/>
	<path fill="#231F20" d="M5.531,46.554c0.183,0,0.37-0.051,0.536-0.157c0.466-0.297,0.602-0.915,0.307-1.38
		C3.513,40.526,2,35.333,2,30s1.513-10.526,4.374-15.017c0.296-0.465,0.159-1.083-0.307-1.38c-0.464-0.297-1.083-0.159-1.381,0.306
		C1.621,18.721,0,24.285,0,30s1.621,11.279,4.686,16.091C4.878,46.391,5.201,46.554,5.531,46.554z"/>
	<path fill="#231F20" d="M45.017,53.627C40.525,56.488,35.332,58,30,58c-5.333,0-10.526-1.512-15.017-4.373
		c-0.463-0.297-1.082-0.159-1.381,0.306c-0.296,0.466-0.159,1.084,0.307,1.381C18.721,58.379,24.285,60,30,60
		c5.714,0,11.278-1.621,16.091-4.687c0.466-0.296,0.604-0.915,0.307-1.38C46.1,53.467,45.479,53.328,45.017,53.627z"/>
	<path fill="#231F20" d="M48.359,46.945c-0.391-0.391-1.023-0.391-1.414,0c-0.391,0.391-0.391,1.023,0,1.414l11.348,11.348
		C58.488,59.902,58.744,60,59,60c0.256,0,0.512-0.098,0.707-0.293c0.391-0.391,0.391-1.023,0-1.414L48.359,46.945z"/>
	<path fill="#231F20" d="M13.055,46.945c-0.391-0.391-1.023-0.391-1.414,0L0.293,58.293c-0.391,0.391-0.391,1.023,0,1.414
		C0.488,59.902,0.744,60,1,60c0.256,0,0.512-0.098,0.707-0.293l11.348-11.348C13.445,47.969,13.445,47.336,13.055,46.945z"/>
	<path fill="#231F20" d="M58.293,0.293L46.945,11.641c-0.391,0.391-0.391,1.023,0,1.414c0.195,0.195,0.451,0.293,0.707,0.293
		c0.256,0,0.512-0.098,0.707-0.293L59.707,1.707c0.391-0.391,0.391-1.023,0-1.414C59.316-0.098,58.684-0.098,58.293,0.293z"/>
	<path fill="#231F20" d="M11.641,13.055c0.195,0.195,0.451,0.293,0.707,0.293c0.256,0,0.512-0.098,0.707-0.293
		c0.391-0.391,0.391-1.023,0-1.414L1.707,0.293c-0.391-0.391-1.023-0.391-1.414,0c-0.391,0.391-0.391,1.023,0,1.414L11.641,13.055z"
		/>
</g>
</svg>
