<?xml version="1.0" encoding="utf-8"?>
<!-- Generator: Adobe Illustrator 17.0.0, SVG Export Plug-In . SVG Version: 6.00 Build 0)  -->
<!DOCTYPE svg PUBLIC "-//W3C//DTD SVG 1.1//EN" "http://www.w3.org/Graphics/SVG/1.1/DTD/svg11.dtd">
<svg version="1.1" id="Layer_1" xmlns="http://www.w3.org/2000/svg" xmlns:xlink="http://www.w3.org/1999/xlink" x="0px" y="0px"
	 width="60px" height="60px" viewBox="0 0 60 60" enable-background="new 0 0 60 60" xml:space="preserve">
<g>
	<path fill="#231F20" d="M51.579,12.01C51.531,12.003,51.483,12,51.435,12H12v-2h7c0.552,0,1-0.448,1-1V1c0-0.552-0.448-1-1-1h-8
		c-0.552,0-1,0.448-1,1v5v3v3H8.565c-0.03,0-0.056,0.015-0.085,0.017C8.32,12.012,8.164,12,8,12c-4.941,0-8,4.762-8,9.174V43
		c0,0.552,0.448,1,1,1h15.13H17h15v15c0,0.552,0.448,1,1,1s1-0.448,1-1V44h25c0.552,0,1-0.448,1-1V21.174
		C60,16.649,56.38,12.71,51.579,12.01z M12,2h6v6h-6V6V2z M2,21.174C2,17.724,4.294,14,8,14c4.396,0,6.94,2.313,8,7.278V42H2V21.174
		z M58,42H18V21.174c0-0.068-0.007-0.137-0.021-0.204c-0.657-3.155-1.914-5.476-3.747-6.97H51.36C55.15,14.585,58,17.657,58,21.174
		V42z"/>
	<path fill="#231F20" d="M11.087,38H6.044c-0.552,0-1,0.448-1,1c0,0.552,0.448,1,1,1h5.043c0.552,0,1-0.448,1-1
		C12.087,38.448,11.639,38,11.087,38z"/>
</g>
</svg>
