<?xml version="1.0" encoding="utf-8"?>
<!-- Generator: Adobe Illustrator 17.0.0, SVG Export Plug-In . SVG Version: 6.00 Build 0)  -->
<!DOCTYPE svg PUBLIC "-//W3C//DTD SVG 1.1//EN" "http://www.w3.org/Graphics/SVG/1.1/DTD/svg11.dtd">
<svg version="1.1" id="Layer_1" xmlns="http://www.w3.org/2000/svg" xmlns:xlink="http://www.w3.org/1999/xlink" x="0px" y="0px"
	 width="60px" height="60px" viewBox="0 0 60 60" enable-background="new 0 0 60 60" xml:space="preserve">
<g>
	<path fill="#231F20" d="M4,40h21c0.553,0,1-0.448,1-1c0-0.552-0.447-1-1-1H4c-1.856,0-2-2.296-2-3V9
		c0-0.314,0.038-0.943,0.235-1.545l24.627,19.331C27.042,26.929,27.261,27,27.479,27c0.225,0,0.448-0.075,0.632-0.225L51.772,7.476
		C51.962,8.072,52,8.69,52,9v11c0,0.552,0.447,1,1,1c0.553,0,1-0.448,1-1V9c0-2.991-1.607-5-4-5H4C1.607,4,0,6.009,0,9v26
		C0,37.991,1.607,40,4,40z M50,6c0.131,0,0.235,0.035,0.349,0.056L27.467,24.719L3.684,6.051C3.789,6.033,3.882,6,4,6H50z"/>
	<path fill="#231F20" d="M51.402,46.036C53.02,44.121,54,41.65,54,38.952c0-6.066-4.934-11-10.998-11
		c-6.067,0-11.002,4.935-11.002,11c0,6.065,4.935,11,11.002,11c2.648,0,5.08-0.941,6.981-2.507l8.31,8.31
		c0.195,0.195,0.451,0.293,0.707,0.293c0.256,0,0.512-0.098,0.707-0.293c0.391-0.391,0.391-1.023,0-1.414L51.402,46.036z M34,38.952
		c0-4.963,4.038-9,9.002-9c4.962,0,8.998,4.038,8.998,9c0,4.962-4.036,9-8.998,9C38.038,47.952,34,43.915,34,38.952z"/>
</g>
</svg>
