<?xml version="1.0" encoding="utf-8"?>
<!-- Generator: Adobe Illustrator 17.0.0, SVG Export Plug-In . SVG Version: 6.00 Build 0)  -->
<!DOCTYPE svg PUBLIC "-//W3C//DTD SVG 1.1//EN" "http://www.w3.org/Graphics/SVG/1.1/DTD/svg11.dtd">
<svg version="1.1" id="Layer_1" xmlns="http://www.w3.org/2000/svg" xmlns:xlink="http://www.w3.org/1999/xlink" x="0px" y="0px"
	 width="60px" height="60px" viewBox="0 0 60 60" enable-background="new 0 0 60 60" xml:space="preserve">
<g>
	<path fill="#231F20" d="M51,10h-3.586l-7.707-7.707C39.519,2.106,39.265,2,39,2h-8V1c0-0.552-0.448-1-1-1s-1,0.448-1,1v1h-7
		c-0.265,0-0.52,0.106-0.707,0.293L13.586,10H9c-0.552,0-1,0.448-1,1v6c0,0.552,0.448,1,1,1h1.465L12,20.303V59c0,0.552,0.448,1,1,1
		h34c0.552,0,1-0.448,1-1V20.303L49.535,18H51c0.552,0,1-0.448,1-1v-6C52,10.448,51.552,10,51,10z M22.414,4h16.172l6,6H16.414
		L22.414,4z M14,58v-4h32v4H14z M46.168,19.445C46.059,19.609,46,19.803,46,20v32H14V20c0-0.197-0.059-0.391-0.168-0.555L12.869,18
		h34.263L46.168,19.445z M50,16h-1H11h-1v-4h4h33h3V16z"/>
	<path fill="#231F20" d="M39,30.261H21c-0.552,0-1,0.448-1,1V41c0,0.552,0.448,1,1,1h18c0.552,0,1-0.448,1-1v-9.739
		C40,30.708,39.552,30.261,39,30.261z M35.952,32.261L30,34.906l-5.951-2.645H35.952z M22,40v-6.461l7.594,3.375
		C29.723,36.971,29.862,37,30,37s0.277-0.029,0.406-0.086L38,33.539V40H22z"/>
	<path fill="#231F20" d="M20,24h20c0.552,0,1-0.448,1-1c0-0.552-0.448-1-1-1H20c-0.552,0-1,0.448-1,1C19,23.552,19.448,24,20,24z"/>
</g>
</svg>
