<?xml version="1.0" encoding="utf-8"?>
<!-- Generator: Adobe Illustrator 17.0.0, SVG Export Plug-In . SVG Version: 6.00 Build 0)  -->
<!DOCTYPE svg PUBLIC "-//W3C//DTD SVG 1.1//EN" "http://www.w3.org/Graphics/SVG/1.1/DTD/svg11.dtd">
<svg version="1.1" id="Layer_1" xmlns="http://www.w3.org/2000/svg" xmlns:xlink="http://www.w3.org/1999/xlink" x="0px" y="0px"
	 width="60px" height="60px" viewBox="0 0 60 60" enable-background="new 0 0 60 60" xml:space="preserve">
<g>
	<path fill="#231F20" d="M52,12H8c-3.532,0-6,2.467-6,6v26c0,3.42,2.505,6,5.826,6H52c3.309,0,6-2.691,6-6V18
		C58,14.467,55.532,12,52,12z M52,14c0.783,0,1.464,0.178,2.044,0.481L30.976,32.744L5.972,14.472C6.55,14.175,7.225,14,8,14H52z
		 M56,44c0,2.243-1.757,4-4,4H7.826C5.609,48,4,46.318,4,44V18c0-0.814,0.19-1.521,0.516-2.115L30.41,34.808
		C30.586,34.936,30.793,35,31,35c0.22,0,0.439-0.072,0.621-0.216L55.487,15.89C55.811,16.484,56,17.188,56,18V44z"/>
</g>
</svg>
