<?xml version="1.0" encoding="utf-8"?>
<!-- Generator: Adobe Illustrator 17.0.0, SVG Export Plug-In . SVG Version: 6.00 Build 0)  -->
<!DOCTYPE svg PUBLIC "-//W3C//DTD SVG 1.1//EN" "http://www.w3.org/Graphics/SVG/1.1/DTD/svg11.dtd">
<svg version="1.1" id="Layer_1" xmlns="http://www.w3.org/2000/svg" xmlns:xlink="http://www.w3.org/1999/xlink" x="0px" y="0px"
	 width="60px" height="60px" viewBox="0 0 60 60" enable-background="new 0 0 60 60" xml:space="preserve">
<g>
	<path fill="#231F20" d="M39.646,40.237C39.466,40.084,39.236,40,39,40H21c-0.236,0-0.466,0.084-0.646,0.237l-13,11
		c-0.422,0.357-0.475,0.987-0.118,1.409c0.358,0.421,0.988,0.475,1.409,0.117L21.366,42h17.268l12.721,10.763
		C51.542,52.922,51.771,53,51.999,53c0.284,0,0.566-0.12,0.765-0.354c0.356-0.422,0.304-1.053-0.118-1.409L39.646,40.237z"/>
	<path fill="#231F20" d="M59.974,28.532c-0.024-0.114-0.069-0.22-0.13-0.318c-0.006-0.009-0.006-0.02-0.012-0.029
		c-0.008-0.011-0.02-0.017-0.028-0.028c-0.068-0.094-0.147-0.18-0.245-0.247l-0.005-0.004c-0.002-0.001-0.004-0.003-0.006-0.004
		L50,21.468V1c0-0.552-0.447-1-1-1H11c-0.553,0-1,0.448-1,1v20.468l-9.547,6.434c-0.003,0.002-0.006,0.004-0.009,0.006L0.441,27.91
		c-0.099,0.066-0.177,0.153-0.245,0.246c-0.008,0.011-0.021,0.017-0.028,0.028c-0.006,0.009-0.006,0.02-0.012,0.029
		c-0.061,0.098-0.106,0.204-0.13,0.318c-0.005,0.022-0.005,0.044-0.008,0.066C0.011,28.645,0,28.691,0,28.739v26.478
		C0,57.854,2.146,60,4.782,60h50.436C57.854,60,60,57.854,60,55.217V28.739c0-0.048-0.011-0.095-0.018-0.142
		C59.979,28.575,59.979,28.554,59.974,28.532z M57.204,28.735L50,33.537V23.88L57.204,28.735z M10,33.537l-7.204-4.803L10,23.88
		V33.537z M55.218,58H4.782C3.248,58,2,56.752,2,55.217v-24.61l13.576,9.05c0.171,0.114,0.363,0.168,0.554,0.168
		c0.323,0,0.641-0.156,0.833-0.445c0.307-0.459,0.183-1.081-0.277-1.387L12,34.871V2h36v32.871l-4.686,3.124
		c-0.46,0.306-0.584,0.927-0.277,1.387c0.192,0.289,0.51,0.445,0.833,0.445c0.19,0,0.383-0.054,0.554-0.168L58,30.608v24.61
		C58,56.752,56.752,58,55.218,58z"/>
	<path fill="#231F20" d="M19,10h5c0.553,0,1-0.448,1-1c0-0.552-0.447-1-1-1h-5c-0.553,0-1,0.448-1,1C18,9.552,18.447,10,19,10z"/>
	<path fill="#231F20" d="M23,15c0,0.552,0.447,1,1,1h17c0.553,0,1-0.448,1-1c0-0.552-0.447-1-1-1H24C23.447,14,23,14.448,23,15z"/>
	<path fill="#231F20" d="M19,24h22c0.553,0,1-0.448,1-1c0-0.552-0.447-1-1-1H19c-0.553,0-1,0.448-1,1C18,23.552,18.447,24,19,24z"/>
	<path fill="#231F20" d="M19,32h22c0.553,0,1-0.448,1-1c0-0.552-0.447-1-1-1H19c-0.553,0-1,0.448-1,1C18,31.552,18.447,32,19,32z"/>
</g>
</svg>
