<?xml version="1.0" encoding="utf-8"?>
<!-- Generator: Adobe Illustrator 17.0.0, SVG Export Plug-In . SVG Version: 6.00 Build 0)  -->
<!DOCTYPE svg PUBLIC "-//W3C//DTD SVG 1.1//EN" "http://www.w3.org/Graphics/SVG/1.1/DTD/svg11.dtd">
<svg version="1.1" id="Layer_1" xmlns="http://www.w3.org/2000/svg" xmlns:xlink="http://www.w3.org/1999/xlink" x="0px" y="0px"
	 width="60px" height="60px" viewBox="0 0 60 60" enable-background="new 0 0 60 60" xml:space="preserve">
<g>
	<path fill="#231F20" d="M4,40h21c0.553,0,1-0.448,1-1c0-0.552-0.447-1-1-1H4c-1.856,0-2-2.296-2-3V9
		c0-0.314,0.038-0.943,0.235-1.545l24.627,19.331C27.042,26.929,27.261,27,27.478,27c0.225,0,0.448-0.075,0.632-0.225L51.772,7.476
		C51.962,8.072,52,8.69,52,9v11c0,0.552,0.447,1,1,1c0.553,0,1-0.448,1-1V9c0-2.991-1.607-5-4-5H4C1.607,4,0,6.009,0,9v26
		C0,37.991,1.607,40,4,40z M50,6c0.131,0,0.235,0.035,0.349,0.056L27.467,24.719L3.684,6.051C3.789,6.033,3.882,6,4,6H50z"/>
	<path fill="#231F20" d="M45,26c-8.272,0-15,6.729-15,15s6.728,15,15,15c8.271,0,15-6.729,15-15S53.271,26,45,26z M45,54
		c-7.168,0-13-5.831-13-13c0-7.168,5.832-13,13-13s13,5.832,13,13C58,48.169,52.168,54,45,54z"/>
	<path fill="#231F20" d="M49,42h-5v-8c0-0.552-0.447-1-1-1c-0.553,0-1,0.448-1,1v10h7c0.553,0,1-0.448,1-1
		C50,42.448,49.553,42,49,42z"/>
</g>
</svg>
