<?xml version="1.0" encoding="utf-8"?>
<!-- Generator: Adobe Illustrator 17.0.0, SVG Export Plug-In . SVG Version: 6.00 Build 0)  -->
<!DOCTYPE svg PUBLIC "-//W3C//DTD SVG 1.1//EN" "http://www.w3.org/Graphics/SVG/1.1/DTD/svg11.dtd">
<svg version="1.1" id="Layer_1" xmlns="http://www.w3.org/2000/svg" xmlns:xlink="http://www.w3.org/1999/xlink" x="0px" y="0px"
	 width="60px" height="60px" viewBox="0 0 60 60" enable-background="new 0 0 60 60" xml:space="preserve">
<g>
	<path fill="#231F20" d="M4,40h19c0.552,0,1-0.448,1-1c0-0.552-0.448-1-1-1H4c-1.856,0-2-2.296-2-3V9
		c0-0.314,0.038-0.942,0.234-1.545l24.626,19.331c0.182,0.143,0.4,0.213,0.618,0.213c0.224,0,0.448-0.075,0.632-0.225L51.772,7.476
		C51.962,8.072,52,8.69,52,9v11c0,0.552,0.448,1,1,1s1-0.448,1-1V9c0-2.991-1.607-5-4-5H4C1.607,4,0,6.009,0,9v26
		C0,37.991,1.607,40,4,40z M50,6c0.131,0,0.235,0.035,0.349,0.056L27.467,24.719L3.685,6.051C3.789,6.033,3.882,6,4,6H50z"/>
	<path fill="#231F20" d="M51.858,26.601L32.941,45.517c-0.084,0.084-0.146,0.186-0.195,0.294c-0.012,0.025-0.023,0.049-0.032,0.075
		c-0.008,0.022-0.021,0.041-0.027,0.064l-2.522,8.826c-0.1,0.35-0.002,0.725,0.254,0.982c0.19,0.19,0.445,0.293,0.707,0.293
		c0.092,0,0.184-0.013,0.275-0.039l8.826-2.522c0.022-0.006,0.042-0.019,0.064-0.027c0.026-0.009,0.049-0.021,0.075-0.032
		c0.108-0.049,0.209-0.111,0.294-0.195l18.917-18.917c0.188-0.188,0.293-0.442,0.293-0.707c0-0.265-0.105-0.519-0.293-0.707
		l-6.304-6.304C52.882,26.21,52.249,26.21,51.858,26.601z M39.953,51.114l-4.89-4.89l12.459-12.459l4.89,4.89L39.953,51.114z
		 M34.143,48.133l3.901,3.901l-5.461,1.56L34.143,48.133z M53.826,37.241l-4.89-4.89l3.629-3.629l4.89,4.89L53.826,37.241z"/>
</g>
</svg>
