<?xml version="1.0" encoding="utf-8"?>
<!-- Generator: Adobe Illustrator 17.0.0, SVG Export Plug-In . SVG Version: 6.00 Build 0)  -->
<!DOCTYPE svg PUBLIC "-//W3C//DTD SVG 1.1//EN" "http://www.w3.org/Graphics/SVG/1.1/DTD/svg11.dtd">
<svg version="1.1" id="Layer_1" xmlns="http://www.w3.org/2000/svg" xmlns:xlink="http://www.w3.org/1999/xlink" x="0px" y="0px"
	 width="60px" height="60px" viewBox="0 0 60 60" enable-background="new 0 0 60 60" xml:space="preserve">
<g>
	<path fill="#231F20" d="M49,28H9c-2.663,0-5,2.336-5,5v22c0,3.165,2.321,4.615,4.549,4.948C8.649,59.981,8.757,60,8.869,60
		l0.108,0.001c0.006,0,0.026,0,0.032,0c0.018,0,0.035,0,0.052-0.001H49c2.663,0,5-2.336,5-5V33C54,30.336,51.663,28,49,28z M49,30
		c0.432,0,0.853,0.123,1.242,0.322L29,46.736L7.758,30.322C8.147,30.123,8.568,30,9,30H49z M52,55c0,1.542-1.458,3-3,3L9.083,58.003
		C8.36,57.942,6,57.544,6,55V33c0-0.442,0.13-0.872,0.337-1.268c0.02,0.018,0.03,0.043,0.052,0.06l22,17
		C28.568,48.93,28.784,49,29,49c0.216,0,0.432-0.069,0.611-0.208l22-17c0.022-0.017,0.032-0.041,0.052-0.06
		C51.87,32.127,52,32.557,52,33V55z"/>
	<path fill="#231F20" d="M29,2c-0.553,0-1,0.448-1,1v19.586l-9.293-9.293c-0.391-0.391-1.023-0.391-1.414,0
		c-0.391,0.391-0.391,1.023,0,1.414l10.999,10.999c0.092,0.093,0.203,0.166,0.326,0.217C28.74,25.973,28.87,26,29,26
		c0.13,0,0.26-0.026,0.382-0.077c0.123-0.051,0.234-0.124,0.326-0.217l10.999-10.999c0.391-0.391,0.391-1.023,0-1.414
		c-0.391-0.391-1.023-0.391-1.414,0L30,22.585V3C30,2.447,29.553,2,29,2z"/>
</g>
</svg>
