<?xml version="1.0" encoding="utf-8"?>
<!-- Generator: Adobe Illustrator 17.0.0, SVG Export Plug-In . SVG Version: 6.00 Build 0)  -->
<!DOCTYPE svg PUBLIC "-//W3C//DTD SVG 1.1//EN" "http://www.w3.org/Graphics/SVG/1.1/DTD/svg11.dtd">
<svg version="1.1" id="Layer_1" xmlns="http://www.w3.org/2000/svg" xmlns:xlink="http://www.w3.org/1999/xlink" x="0px" y="0px"
	 width="60px" height="60px" viewBox="0 0 60 60" enable-background="new 0 0 60 60" xml:space="preserve">
<g>
	<path fill="#231F20" d="M55,10H5c-2.664,0-5,2.336-5,5v30.044C0,47.684,2.336,50,5,50h50c2.664,0,5-2.316,5-4.956V15
		C60,12.336,57.664,10,55,10z M58,45.044C58,46.563,56.542,48,55,48H5c-1.542,0-3-1.437-3-2.956V15c0-1.542,1.458-3,3-3h50
		c1.542,0,3,1.458,3,3V45.044z"/>
	<path fill="#231F20" d="M50.445,20.168L30,33.798L9.555,20.168c-0.461-0.307-1.081-0.183-1.387,0.277
		c-0.306,0.46-0.182,1.081,0.277,1.387l21,14C29.613,35.944,29.807,36,30,36c0.193,0,0.387-0.056,0.555-0.168l21-14
		c0.459-0.306,0.583-0.927,0.277-1.387C51.525,19.985,50.904,19.861,50.445,20.168z"/>
	<path fill="#231F20" d="M17.445,33.168l-9,6c-0.46,0.306-0.583,0.927-0.277,1.387C8.361,40.844,8.678,41,9.001,41
		c0.19,0,0.383-0.054,0.554-0.168l9-6c0.459-0.306,0.583-0.927,0.277-1.387C18.526,32.985,17.904,32.861,17.445,33.168z"/>
	<path fill="#231F20" d="M42.555,33.168c-0.461-0.307-1.081-0.183-1.387,0.277c-0.306,0.46-0.182,1.081,0.277,1.387l9,6
		C50.616,40.946,50.809,41,50.999,41c0.323,0,0.64-0.156,0.833-0.445c0.306-0.46,0.182-1.081-0.277-1.387L42.555,33.168z"/>
</g>
</svg>
