<?xml version="1.0" encoding="utf-8"?>
<!-- Generator: Adobe Illustrator 17.0.0, SVG Export Plug-In . SVG Version: 6.00 Build 0)  -->
<!DOCTYPE svg PUBLIC "-//W3C//DTD SVG 1.1//EN" "http://www.w3.org/Graphics/SVG/1.1/DTD/svg11.dtd">
<svg version="1.1" id="Layer_1" xmlns="http://www.w3.org/2000/svg" xmlns:xlink="http://www.w3.org/1999/xlink" x="0px" y="0px"
	 width="60px" height="60px" viewBox="0 0 60 60" enable-background="new 0 0 60 60" xml:space="preserve">
<g>
	<path fill="#231F20" d="M27.479,48H4.782C3.248,48,2,46.752,2,45.217V22.667l13.529,7.216c0.15,0.08,0.311,0.118,0.47,0.118
		c0.357,0,0.703-0.192,0.884-0.529c0.26-0.487,0.075-1.093-0.412-1.353l-13.537-7.22L26.003,2.283L49.19,20.832l-13.66,7.286
		c-0.487,0.26-0.672,0.866-0.412,1.353C35.298,29.808,35.644,30,36.001,30c0.158,0,0.319-0.038,0.47-0.118L50,22.667V31
		c0,0.552,0.447,1,1,1c0.553,0,1-0.448,1-1V21c0-0.014-0.008-0.025-0.009-0.039c-0.004-0.098-0.032-0.194-0.066-0.29
		c-0.014-0.04-0.017-0.082-0.036-0.12c-0.004-0.007-0.003-0.015-0.007-0.022c-0.066-0.123-0.154-0.226-0.256-0.308
		c-0.001,0-0.001-0.001-0.001-0.002l-25-20c-0.367-0.293-0.888-0.292-1.253,0.003L0.823,20.031c-0.29,0.053-0.557,0.218-0.706,0.498
		c-0.094,0.176-0.112,0.366-0.096,0.551C0.018,21.113,0,21.141,0,21.174v24.044C0,47.854,2.146,50,4.782,50h22.696
		c0.553,0,1-0.448,1-1C28.479,48.448,28.031,48,27.479,48z"/>
	<path fill="#231F20" d="M31,30H21c-0.233,0-0.46,0.082-0.64,0.231L7.926,40.579c-0.425,0.353-0.482,0.984-0.129,1.408
		c0.197,0.238,0.482,0.36,0.77,0.36c0.225,0,0.452-0.076,0.639-0.232L21.361,32H31c0.553,0,1-0.448,1-1C32,30.448,31.553,30,31,30z"
		/>
	<path fill="#231F20" d="M52.91,51.496c1.334-1.825,2.132-4.066,2.132-6.495c0-6.089-4.953-11.043-11.041-11.043
		c-6.089,0-11.043,4.954-11.043,11.043c0,6.088,4.954,11.041,11.043,11.041c2.939,0,5.606-1.162,7.587-3.04l6.705,6.705
		C58.488,59.902,58.744,60,59,60c0.256,0,0.512-0.098,0.707-0.293c0.391-0.391,0.391-1.023,0-1.414L52.91,51.496z M44.001,53.958
		c-4.94,0-8.959-4.018-8.959-8.957c0-4.94,4.018-8.959,8.959-8.959c4.939,0,8.957,4.019,8.957,8.959
		C52.958,49.94,48.94,53.958,44.001,53.958z"/>
</g>
</svg>
