<?xml version="1.0" encoding="utf-8"?>
<!-- Generator: Adobe Illustrator 17.0.0, SVG Export Plug-In . SVG Version: 6.00 Build 0)  -->
<!DOCTYPE svg PUBLIC "-//W3C//DTD SVG 1.1//EN" "http://www.w3.org/Graphics/SVG/1.1/DTD/svg11.dtd">
<svg version="1.1" id="Layer_1" xmlns="http://www.w3.org/2000/svg" xmlns:xlink="http://www.w3.org/1999/xlink" x="0px" y="0px"
	 width="60px" height="60px" viewBox="0 0 60 60" enable-background="new 0 0 60 60" xml:space="preserve">
<g>
	<path fill="#231F20" d="M23.136,40c0.553,0,1-0.448,1-1c0-0.552-0.447-1-1-1h-19c-1.855,0-2-2.296-2-3V9
		c0-0.314,0.038-0.943,0.235-1.545l24.626,19.331C27.177,26.929,27.396,27,27.613,27c0.225,0,0.448-0.075,0.632-0.225L51.908,7.476
		C52.098,8.072,52.136,8.69,52.136,9v11c0,0.552,0.447,1,1,1c0.553,0,1-0.448,1-1V9c0-2.991-1.607-5-4-5h-46c-2.393,0-4,2.009-4,5
		v26c0,2.991,1.607,5,4,5H23.136z M50.136,6c0.131,0,0.235,0.035,0.349,0.056L27.602,24.719L3.82,6.051C3.925,6.033,4.017,6,4.136,6
		H50.136z"/>
	<path fill="#231F20" d="M59.364,43.023l-2.401-1.386c0.079-0.586,0.118-1.166,0.118-1.73c0-0.572-0.039-1.143-0.118-1.73
		l2.397-1.385c0.479-0.276,0.643-0.888,0.366-1.366l-4.116-7.128c-0.133-0.23-0.352-0.398-0.608-0.466
		c-0.258-0.068-0.531-0.032-0.76,0.102l-2.362,1.372c-0.843-0.726-1.718-1.454-2.744-1.961V25c0-0.552-0.447-1-1-1h-8
		c-0.553,0-1,0.448-1,1v2.327c-1.097,0.477-2.438,1.212-3.492,1.995l-2.416-1.391c-0.478-0.275-1.089-0.11-1.365,0.366l-4.12,7.128
		c-0.276,0.478-0.112,1.09,0.366,1.366l2.396,1.385c-0.08,0.589-0.119,1.161-0.119,1.731c0,0.565,0.04,1.145,0.118,1.731
		l-2.399,1.385c-0.478,0.276-0.643,0.888-0.366,1.366l4.116,7.129c0.276,0.477,0.886,0.643,1.364,0.367l2.444-1.403
		c1.326,0.892,3.418,1.779,4.474,2.201V55c0,0.552,0.447,1,1,1h7c0.553,0,1-0.448,1-1v-2.354c0.954-0.498,1.763-1.231,2.548-1.945
		c0.068-0.062,0.137-0.124,0.205-0.186l2.363,1.368c0.229,0.134,0.504,0.169,0.76,0.101c0.256-0.068,0.475-0.236,0.607-0.466
		l4.111-7.129C60.007,43.911,59.843,43.3,59.364,43.023z M54.387,49.651l-2.12-1.228c-0.368-0.212-0.828-0.17-1.151,0.105
		c-0.259,0.222-0.517,0.456-0.775,0.691c-0.818,0.743-1.665,1.511-2.554,1.843c-0.391,0.146-0.65,0.52-0.65,0.937v2h-5v-2
		c0-0.417-0.26-0.791-0.65-0.937c-1.526-0.569-4.144-1.713-5.102-2.534c-0.322-0.275-0.782-0.319-1.148-0.107l-2.148,1.233
		l-3.117-5.399l2.129-1.229c0.367-0.212,0.561-0.632,0.483-1.049c-0.131-0.705-0.197-1.401-0.197-2.07
		c0-0.671,0.065-1.348,0.199-2.069c0.077-0.417-0.116-0.836-0.483-1.048l-2.126-1.229l3.12-5.398l2.14,1.231
		c0.366,0.211,0.827,0.167,1.149-0.107c0.971-0.831,2.733-1.841,4.101-2.349c0.392-0.146,0.651-0.519,0.651-0.938v-2h6v2
		c0,0.418,0.26,0.792,0.651,0.938c1.066,0.396,1.999,1.201,2.986,2.054l0.343,0.295c0.323,0.276,0.786,0.319,1.152,0.105
		l2.111-1.226l3.114,5.395l-2.128,1.229c-0.367,0.212-0.56,0.632-0.483,1.048c0.134,0.718,0.198,1.395,0.198,2.069
		c0,0.677-0.064,1.354-0.196,2.071c-0.077,0.416,0.117,0.836,0.483,1.047l2.131,1.229L54.387,49.651z"/>
	<path fill="#231F20" d="M43.731,33.42c-3.577,0-6.487,2.911-6.487,6.488c0,3.578,2.91,6.488,6.487,6.488
		c3.578,0,6.488-2.911,6.488-6.488C50.22,36.331,47.31,33.42,43.731,33.42z M43.731,44.396c-2.475,0-4.487-2.014-4.487-4.488
		s2.013-4.488,4.487-4.488c2.475,0,4.488,2.013,4.488,4.488S46.206,44.396,43.731,44.396z"/>
</g>
</svg>
