<?xml version="1.0" encoding="utf-8"?>
<!-- Generator: Adobe Illustrator 17.0.0, SVG Export Plug-In . SVG Version: 6.00 Build 0)  -->
<!DOCTYPE svg PUBLIC "-//W3C//DTD SVG 1.1//EN" "http://www.w3.org/Graphics/SVG/1.1/DTD/svg11.dtd">
<svg version="1.1" id="Layer_1" xmlns="http://www.w3.org/2000/svg" xmlns:xlink="http://www.w3.org/1999/xlink" x="0px" y="0px"
	 width="60px" height="60px" viewBox="0 0 60 60" enable-background="new 0 0 60 60" xml:space="preserve">
<g>
	<path fill="#231F20" d="M4,40h19c0.552,0,1-0.448,1-1c0-0.552-0.448-1-1-1H4c-1.856,0-2-2.296-2-3V9
		c0-0.314,0.038-0.942,0.234-1.545l24.626,19.331c0.182,0.143,0.4,0.213,0.618,0.213c0.224,0,0.448-0.075,0.632-0.225L51.772,7.476
		C51.962,8.072,52,8.69,52,9v11c0,0.552,0.448,1,1,1s1-0.448,1-1V9c0-2.991-1.607-5-4-5H4C1.607,4,0,6.009,0,9v26
		C0,37.991,1.607,40,4,40z M50,6c0.131,0,0.235,0.035,0.349,0.056L27.467,24.719L3.685,6.051C3.789,6.033,3.882,6,4,6H50z"/>
	<path fill="#231F20" d="M59,36h-3v-1c0-4.542-4.458-9-9-9s-9,4.458-9,9v1h-3c-0.552,0-1,0.448-1,1v18c0,0.552,0.448,1,1,1h24
		c0.552,0,1-0.448,1-1V37C60,36.448,59.552,36,59,36z M40,35c0-3.467,3.533-7,7-7s7,3.533,7,7v1H40V35z M58,54H36V38h22V54z"/>
	<path fill="#231F20" d="M46.965,42.173L46.965,42.173c-1.007,0.02-1.811,0.855-1.792,1.862c0.013,0.661,0.388,1.233,0.927,1.543
		C46.04,45.708,46,45.848,46,46v4c0,0.552,0.448,1,1,1s1-0.448,1-1v-4c0-0.152-0.039-0.292-0.1-0.42
		c0.561-0.321,0.939-0.924,0.927-1.615C48.808,42.977,47.989,42.173,46.965,42.173z M47,43.827c0.095,0,0.171,0.075,0.173,0.169
		c0.002,0.096-0.074,0.175-0.169,0.177L47,45v-0.827c-0.094,0-0.171-0.076-0.173-0.169C46.825,43.908,46.901,43.829,47,43.827z"/>
</g>
</svg>
