<?xml version="1.0" encoding="utf-8"?>
<!-- Generator: Adobe Illustrator 17.0.0, SVG Export Plug-In . SVG Version: 6.00 Build 0)  -->
<!DOCTYPE svg PUBLIC "-//W3C//DTD SVG 1.1//EN" "http://www.w3.org/Graphics/SVG/1.1/DTD/svg11.dtd">
<svg version="1.1" id="Layer_1" xmlns="http://www.w3.org/2000/svg" xmlns:xlink="http://www.w3.org/1999/xlink" x="0px" y="0px"
	 width="60px" height="60px" viewBox="0 0 60 60" enable-background="new 0 0 60 60" xml:space="preserve">
<g>
	<path fill="#231F20" d="M4,40h21c0.552,0,1-0.448,1-1c0-0.552-0.448-1-1-1H4c-1.856,0-2-2.296-2-3V9
		c0-0.314,0.038-0.942,0.234-1.545l24.626,19.331c0.182,0.143,0.4,0.213,0.618,0.213c0.224,0,0.448-0.075,0.632-0.225L51.772,7.476
		C51.962,8.072,52,8.69,52,9v11c0,0.552,0.448,1,1,1s1-0.448,1-1V9c0-2.991-1.607-5-4-5H4C1.607,4,0,6.009,0,9v26
		C0,37.991,1.607,40,4,40z M50,6c0.131,0,0.235,0.035,0.349,0.056L27.467,24.719L3.685,6.051C3.789,6.033,3.882,6,4,6H50z"/>
	<path fill="#231F20" d="M46.046,26.731c-0.167-0.337-0.508-0.553-0.884-0.558c-0.004,0-0.008,0-0.012,0
		c-0.372,0-0.713,0.206-0.886,0.536L39.395,36H31c-0.42,0-0.796,0.263-0.94,0.658c-0.144,0.395-0.025,0.838,0.297,1.108l7.304,6.128
		l-3.61,10.789c-0.137,0.409,0.003,0.858,0.348,1.117C34.577,55.933,34.789,56,35,56c0.199,0,0.398-0.059,0.569-0.178l9.554-6.614
		l9.298,6.607c0.349,0.249,0.818,0.246,1.167-0.005c0.347-0.252,0.495-0.698,0.367-1.107l-3.371-10.81l7.071-6.137
		c0.315-0.273,0.428-0.714,0.282-1.105C59.791,36.259,59.417,36,59,36h-8.378L46.046,26.731z M50.779,42.81
		c-0.3,0.26-0.417,0.674-0.299,1.053l2.683,8.604l-7.454-5.296c-0.173-0.124-0.376-0.185-0.579-0.185
		c-0.199,0-0.398,0.059-0.569,0.178l-7.659,5.303l2.872-8.584c0.13-0.39,0.009-0.819-0.306-1.083L33.748,38H40
		c0.372,0,0.713-0.206,0.886-0.536l4.237-8.086l3.981,8.064C49.272,37.784,49.619,38,50,38h6.322L50.779,42.81z"/>
</g>
</svg>
