<?xml version="1.0" encoding="utf-8"?>
<!-- Generator: Adobe Illustrator 17.0.0, SVG Export Plug-In . SVG Version: 6.00 Build 0)  -->
<!DOCTYPE svg PUBLIC "-//W3C//DTD SVG 1.1//EN" "http://www.w3.org/Graphics/SVG/1.1/DTD/svg11.dtd">
<svg version="1.1" id="Layer_1" xmlns="http://www.w3.org/2000/svg" xmlns:xlink="http://www.w3.org/1999/xlink" x="0px" y="0px"
	 width="60px" height="60px" viewBox="0 0 60 60" enable-background="new 0 0 60 60" xml:space="preserve">
<g>
	<path fill="#231F20" d="M25,40c0.553,0,1-0.448,1-1c0-0.552-0.447-1-1-1H4c-1.856,0-2-2.296-2-3V9c0-0.314,0.038-0.943,0.235-1.545
		l24.627,19.331C27.042,26.929,27.261,27,27.478,27c0.225,0,0.448-0.075,0.632-0.225L51.772,7.476C51.962,8.072,52,8.69,52,9v11
		c0,0.552,0.447,1,1,1c0.553,0,1-0.448,1-1V9c0-2.991-1.607-5-4-5H4C1.607,4,0,6.009,0,9v26c0,2.991,1.607,5,4,5H25z M50,6
		c0.131,0,0.235,0.035,0.349,0.056L27.467,24.719L3.684,6.051C3.789,6.033,3.882,6,4,6H50z"/>
	<path fill="#231F20" d="M43.894,24.553c-0.34-0.678-1.449-0.678-1.789,0l-15,30c-0.155,0.31-0.139,0.678,0.044,0.973
		C27.332,55.82,27.653,56,28,56h30c0.007,0.001,0.015,0.001,0.019,0c0.553,0,1-0.448,1-1c0-0.228-0.076-0.439-0.205-0.608
		L43.894,24.553z M29.618,54L43,27.236L56.382,54H29.618z"/>
	<path fill="#231F20" d="M42,36.747V45c0,0.552,0.447,1,1,1c0.553,0,1-0.448,1-1v-8.253c0-0.552-0.447-1-1-1
		C42.447,35.747,42,36.195,42,36.747z"/>
	<circle fill="#231F20" cx="43" cy="50" r="2"/>
</g>
</svg>
