<?xml version="1.0" encoding="utf-8"?>
<!-- Generator: Adobe Illustrator 17.0.0, SVG Export Plug-In . SVG Version: 6.00 Build 0)  -->
<!DOCTYPE svg PUBLIC "-//W3C//DTD SVG 1.1//EN" "http://www.w3.org/Graphics/SVG/1.1/DTD/svg11.dtd">
<svg version="1.1" id="Layer_1" xmlns="http://www.w3.org/2000/svg" xmlns:xlink="http://www.w3.org/1999/xlink" x="0px" y="0px"
	 width="60px" height="60px" viewBox="0 0 60 60" enable-background="new 0 0 60 60" xml:space="preserve">
<g>
	<path fill="#231F20" d="M59.863,41.869l-9-15.348c-0.18-0.306-0.508-0.494-0.863-0.494H39c-0.552,0-1,0.448-1,1
		c0,0.552,0.448,1,1,1h10.427l8.21,14H41c-0.552,0-1,0.448-1,1v2c0,1.362-2.457,3-4,3H25c-1.486,0-3-1.58-3-3.13v-1.87
		c0-0.552-0.448-1-1-1H2.363l8.21-14H23c0.552,0,1-0.448,1-1c0-0.552-0.448-1-1-1H10c-0.355,0-0.683,0.188-0.863,0.494l-9,15.348
		c-0.154,0.263-0.163,0.562-0.071,0.829C0.03,42.802,0,42.91,0,43.027v15.946c0,0.552,0.448,1,1,1h58c0.552,0,1-0.448,1-1V43.027
		c0-0.117-0.03-0.225-0.066-0.329C60.026,42.431,60.017,42.132,59.863,41.869z M58,57.973H2V44.027h18v0.87
		c0,2.637,2.43,5.13,5,5.13h11c2.369,0,6-2.24,6-5v-1h16V57.973z"/>
	<path fill="#231F20" d="M31,30.027c0.552,0,1-0.448,1-1V3.441l8.293,8.293c0.195,0.195,0.451,0.293,0.707,0.293
		s0.512-0.098,0.707-0.293c0.391-0.391,0.391-1.023,0-1.414l-10-10c-0.092-0.092-0.203-0.165-0.325-0.216
		c-0.244-0.101-0.52-0.101-0.764,0c-0.122,0.051-0.233,0.124-0.325,0.216l-10,10c-0.391,0.391-0.391,1.023,0,1.414
		c0.391,0.391,1.023,0.391,1.414,0L30,3.441v25.586C30,29.579,30.448,30.027,31,30.027z"/>
</g>
</svg>
