<?xml version="1.0" encoding="utf-8"?>
<!-- Generator: Adobe Illustrator 17.0.0, SVG Export Plug-In . SVG Version: 6.00 Build 0)  -->
<!DOCTYPE svg PUBLIC "-//W3C//DTD SVG 1.1//EN" "http://www.w3.org/Graphics/SVG/1.1/DTD/svg11.dtd">
<svg version="1.1" id="Layer_1" xmlns="http://www.w3.org/2000/svg" xmlns:xlink="http://www.w3.org/1999/xlink" x="0px" y="0px"
	 width="60px" height="60px" viewBox="0 0 60 60" enable-background="new 0 0 60 60" xml:space="preserve">
<g>
	<path fill="#231F20" d="M59.863,41.842l-9-15.348C50.683,26.188,50.355,26,50,26H36c-0.552,0-1,0.448-1,1s0.448,1,1,1h13.427
		l8.21,14H41c-0.552,0-1,0.448-1,1v2c0,1.362-2.457,3-4,3H25c-1.486,0-3-1.58-3-3.13V43c0-0.552-0.448-1-1-1H2.363l8.21-14H16
		c0.552,0,1-0.448,1-1s-0.448-1-1-1h-6c-0.355,0-0.683,0.188-0.863,0.494l-9,15.348c-0.154,0.263-0.163,0.563-0.071,0.829
		C0.03,42.775,0,42.883,0,43v15.947c0,0.552,0.448,1,1,1h58c0.552,0,1-0.448,1-1V43c0-0.117-0.03-0.225-0.066-0.329
		C60.026,42.404,60.017,42.105,59.863,41.842z M58,57.947H2V44h18v0.87c0,2.637,2.43,5.13,5,5.13h11c2.369,0,6-2.24,6-5v-1h16
		V57.947z"/>
	<path fill="#231F20" d="M47.644,1.234c-0.298-0.25-0.713-0.304-1.066-0.141C46.226,1.258,46,1.611,46,2v4.015
		C21.081,6.771,20.18,35.726,20.174,36.023c-0.011,0.513,0.368,0.95,0.877,1.013c0.042,0.005,0.083,0.008,0.125,0.008
		c0.459,0,0.868-0.317,0.974-0.775C22.19,36.088,26.452,18.593,46,18.015V22c0,0.387,0.224,0.74,0.574,0.905
		c0.352,0.165,0.765,0.113,1.063-0.134l12-9.913c0.229-0.189,0.362-0.47,0.363-0.767c0.001-0.297-0.129-0.579-0.356-0.77
		L47.644,1.234z M48,19.877V17c0-0.552-0.448-1-1-1c-13.363,0-20.368,7.256-23.816,12.987c0.5-2.159,1.245-4.61,2.356-7.051
		C29.749,12.689,36.969,8,47,8c0.552,0,1-0.448,1-1V4.147l9.438,7.933L48,19.877z"/>
</g>
</svg>
