<?xml version="1.0" encoding="utf-8"?>
<!-- Generator: Adobe Illustrator 17.0.0, SVG Export Plug-In . SVG Version: 6.00 Build 0)  -->
<!DOCTYPE svg PUBLIC "-//W3C//DTD SVG 1.1//EN" "http://www.w3.org/Graphics/SVG/1.1/DTD/svg11.dtd">
<svg version="1.1" id="Layer_1" xmlns="http://www.w3.org/2000/svg" xmlns:xlink="http://www.w3.org/1999/xlink" x="0px" y="0px"
	 width="60px" height="60px" viewBox="0 0 60 60" enable-background="new 0 0 60 60" xml:space="preserve">
<g>
	<path fill="#231F20" d="M60.123,3.528c0.002-0.063,0.003-0.125-0.008-0.186c-0.007-0.046-0.021-0.089-0.035-0.133
		c-0.02-0.064-0.043-0.124-0.075-0.182c-0.011-0.02-0.013-0.043-0.026-0.063c-0.013-0.02-0.033-0.032-0.047-0.052
		c-0.04-0.054-0.085-0.102-0.136-0.147c-0.035-0.031-0.069-0.061-0.107-0.087c-0.019-0.013-0.033-0.032-0.054-0.044
		c-0.037-0.021-0.078-0.028-0.117-0.044c-0.043-0.018-0.084-0.037-0.129-0.049c-0.064-0.017-0.128-0.022-0.194-0.026
		c-0.044-0.003-0.087-0.009-0.131-0.006c-0.077,0.005-0.15,0.026-0.224,0.049c-0.028,0.009-0.058,0.007-0.085,0.019L0.483,26.585
		c-0.376,0.155-0.62,0.522-0.619,0.928c0.001,0.407,0.249,0.772,0.626,0.924l21.646,8.737V56.5c0,0.45,0.3,0.844,0.733,0.964
		c0.088,0.024,0.178,0.036,0.267,0.036c0.345,0,0.674-0.179,0.857-0.485l8.596-14.327l15.716,8.4
		c0.147,0.079,0.31,0.118,0.472,0.118c0.143,0,0.285-0.03,0.418-0.091c0.284-0.131,0.49-0.387,0.559-0.692L60.112,3.716
		c0.003-0.015,0-0.031,0.003-0.046C60.123,3.623,60.122,3.576,60.123,3.528z M54.304,6.573L31.574,27.408l-8.65,7.929L3.513,27.5
		L54.304,6.573z M24.136,52.89V38.168l6.688,3.575L24.136,52.89z M48.086,48.702L24.852,36.283L54.166,9.412l3.306-3.031
		L48.086,48.702z"/>
</g>
</svg>
