<?xml version="1.0" encoding="utf-8"?>
<!-- Generator: Adobe Illustrator 17.0.0, SVG Export Plug-In . SVG Version: 6.00 Build 0)  -->
<!DOCTYPE svg PUBLIC "-//W3C//DTD SVG 1.1//EN" "http://www.w3.org/Graphics/SVG/1.1/DTD/svg11.dtd">
<svg version="1.1" id="Layer_1" xmlns="http://www.w3.org/2000/svg" xmlns:xlink="http://www.w3.org/1999/xlink" x="0px" y="0px"
	 width="60px" height="60px" viewBox="0 0 60 60" enable-background="new 0 0 60 60" xml:space="preserve">
<g>
	<path fill="#231F20" d="M32,20.007V11c0-0.387-0.224-0.74-0.574-0.905c-0.352-0.166-0.766-0.113-1.063,0.135L9.188,27.762
		c-0.229,0.19-0.362,0.473-0.362,0.771c0,0.298,0.134,0.581,0.363,0.771l21.174,17.468c0.299,0.246,0.713,0.299,1.063,0.133
		C31.776,46.739,32,46.387,32,46v-9.238c0.991-0.243,2.981-0.637,5.488-0.637c6.164,0,14.746,2.315,20.629,13.346
		C58.294,49.802,58.637,50,59,50c0.08,0,0.162-0.01,0.242-0.03C59.688,49.859,60,49.459,60,49C60,22.329,36.968,20.163,32,20.007z
		 M37.488,34.125c-3.953,0-6.688,0.888-6.802,0.925C30.276,35.185,30,35.568,30,36v7.878L11.396,28.53L30,13.127V21
		c0,0.271,0.11,0.531,0.306,0.719C30.492,21.899,30.742,22,31.001,22c0.02,0-0.076-0.004,0.334-0.004
		c1.309,0,8.166,0.179,14.533,3.704c7.071,3.914,11.08,10.438,11.951,19.425C51.627,36.132,43.505,34.125,37.488,34.125z"/>
	<path fill="#231F20" d="M2.562,28.53l20.078-16.763c0.424-0.354,0.482-0.984,0.127-1.409c-0.353-0.423-0.984-0.482-1.408-0.126
		l-21,17.532C0.131,27.954,0,28.236,0,28.533c0,0.297,0.133,0.578,0.36,0.768l21,17.468C21.547,46.924,21.774,47,21.999,47
		c0.287,0,0.572-0.123,0.77-0.36c0.353-0.425,0.296-1.055-0.129-1.408L2.562,28.53z"/>
</g>
</svg>
