<?xml version="1.0" encoding="utf-8"?>
<!-- Generator: Adobe Illustrator 17.0.0, SVG Export Plug-In . SVG Version: 6.00 Build 0)  -->
<!DOCTYPE svg PUBLIC "-//W3C//DTD SVG 1.1//EN" "http://www.w3.org/Graphics/SVG/1.1/DTD/svg11.dtd">
<svg version="1.1" id="Layer_1" xmlns="http://www.w3.org/2000/svg" xmlns:xlink="http://www.w3.org/1999/xlink" x="0px" y="0px"
	 width="48px" height="48px" viewBox="0 0 48 48" enable-background="new 0 0 48 48" xml:space="preserve">
<g>
	<circle fill="#231F20" cx="1" cy="5" r="1"/>
	<circle fill="#231F20" cx="1" cy="9" r="1"/>
	<circle fill="#231F20" cx="1" cy="13" r="1"/>
	<circle fill="#231F20" cx="1" cy="17" r="1"/>
	<circle fill="#231F20" cx="1" cy="21" r="1"/>
	<circle fill="#231F20" cx="1" cy="25" r="1"/>
	<circle fill="#231F20" cx="1" cy="29" r="1"/>
	<circle fill="#231F20" cx="1" cy="33" r="1"/>
	<circle fill="#231F20" cx="1" cy="37" r="1"/>
	<circle fill="#231F20" cx="3" cy="41" r="1"/>
	<circle fill="#231F20" cx="19" cy="43" r="1"/>
	<circle fill="#231F20" cx="15" cy="43" r="1"/>
	<circle fill="#231F20" cx="23" cy="43" r="1"/>
	<circle fill="#231F20" cx="27" cy="43" r="1"/>
	<circle fill="#231F20" cx="31" cy="43" r="1"/>
	<circle fill="#231F20" cx="35" cy="43" r="1"/>
	<circle fill="#231F20" cx="39" cy="43" r="1"/>
	<circle fill="#231F20" cx="43" cy="43" r="1"/>
	<circle fill="#231F20" cx="47" cy="41" r="1"/>
	<circle fill="#231F20" cx="47" cy="37" r="1"/>
	<circle fill="#231F20" cx="47" cy="33" r="1"/>
	<circle fill="#231F20" cx="47" cy="29" r="1"/>
	<circle fill="#231F20" cx="47" cy="25" r="1"/>
	<circle fill="#231F20" cx="47" cy="21" r="1"/>
	<circle fill="#231F20" cx="47" cy="17" r="1"/>
	<circle fill="#231F20" cx="47" cy="13" r="1"/>
	<circle fill="#231F20" cx="43" cy="13" r="1"/>
	<circle fill="#231F20" cx="39" cy="13" r="1"/>
	<circle fill="#231F20" cx="35" cy="13" r="1"/>
	<circle fill="#231F20" cx="31" cy="13" r="1"/>
	<circle fill="#231F20" cx="27" cy="13" r="1"/>
	<circle fill="#231F20" cx="23" cy="13" r="1"/>
	<circle fill="#231F20" cx="19" cy="13" r="1"/>
	<circle fill="#231F20" cx="15" cy="13" r="1"/>
	<circle fill="#231F20" cx="11" cy="13" r="1"/>
	<circle fill="#231F20" cx="11" cy="17" r="1"/>
	<circle fill="#231F20" cx="11" cy="21" r="1"/>
	<circle fill="#231F20" cx="11" cy="25" r="1"/>
	<circle fill="#231F20" cx="11" cy="29" r="1"/>
	<circle fill="#231F20" cx="11" cy="33" r="1"/>
	<circle fill="#231F20" cx="11" cy="37" r="1"/>
	<circle fill="#231F20" cx="9" cy="41" r="1"/>
	<circle fill="#231F20" cx="5" cy="5" r="1"/>
	<circle fill="#231F20" cx="9" cy="5" r="1"/>
	<circle fill="#231F20" cx="13" cy="5" r="1"/>
	<circle fill="#231F20" cx="17" cy="5" r="1"/>
	<circle fill="#231F20" cx="17" cy="9" r="1"/>
	<circle fill="#231F20" cx="21" cy="9" r="1"/>
	<circle fill="#231F20" cx="25" cy="9" r="1"/>
	<circle fill="#231F20" cx="29" cy="9" r="1"/>
	<circle fill="#231F20" cx="33" cy="9" r="1"/>
	<circle fill="#231F20" cx="37" cy="9" r="1"/>
	<circle fill="#231F20" cx="41" cy="9" r="1"/>
</g>
</svg>
