<?xml version="1.0" encoding="utf-8"?>
<!-- Generator: Adobe Illustrator 17.0.0, SVG Export Plug-In . SVG Version: 6.00 Build 0)  -->
<!DOCTYPE svg PUBLIC "-//W3C//DTD SVG 1.1//EN" "http://www.w3.org/Graphics/SVG/1.1/DTD/svg11.dtd">
<svg version="1.1" id="Layer_1" xmlns="http://www.w3.org/2000/svg" xmlns:xlink="http://www.w3.org/1999/xlink" x="0px" y="0px"
	 width="48px" height="48px" viewBox="0 0 48 48" enable-background="new 0 0 48 48" xml:space="preserve">
<g>
	<path fill="#231F20" d="M47,8h-5V5c0-0.552-0.447-1-1-1H16V1c0-0.552-0.447-1-1-1H1C0.447,0,0,0.448,0,1v33c0,3.309,2.691,6,6,6h35
		c3.859,0,7-3.14,7-7V9C48,8.448,47.553,8,47,8z M10,9v25c0,2.206-1.794,4-4,4s-4-1.794-4-4V2h12v3c0,0.552,0.447,1,1,1h25v2H11
		C10.447,8,10,8.448,10,9z M46,33c0,2.757-2.243,5-5,5H10.469C11.42,36.938,12,35.535,12,34V10h34V33z"/>
	<path fill="#231F20" d="M32.293,29.707C32.488,29.902,32.744,30,33,30s0.512-0.098,0.707-0.293l6-6
		c0.391-0.391,0.391-1.023,0-1.414l-6-6c-0.391-0.391-1.023-0.391-1.414,0c-0.391,0.391-0.391,1.023,0,1.414L37.586,23l-5.293,5.293
		C31.902,28.684,31.902,29.316,32.293,29.707z"/>
	<path fill="#231F20" d="M24.293,29.707C24.488,29.902,24.744,30,25,30s0.512-0.098,0.707-0.293c0.391-0.391,0.391-1.023,0-1.414
		L20.414,23l5.293-5.293c0.391-0.391,0.391-1.023,0-1.414c-0.391-0.391-1.023-0.391-1.414,0l-6,6c-0.391,0.391-0.391,1.023,0,1.414
		L24.293,29.707z"/>
</g>
</svg>
