<?xml version="1.0" encoding="utf-8"?>
<!-- Generator: Adobe Illustrator 17.0.0, SVG Export Plug-In . SVG Version: 6.00 Build 0)  -->
<!DOCTYPE svg PUBLIC "-//W3C//DTD SVG 1.1//EN" "http://www.w3.org/Graphics/SVG/1.1/DTD/svg11.dtd">
<svg version="1.1" id="Layer_1" xmlns="http://www.w3.org/2000/svg" xmlns:xlink="http://www.w3.org/1999/xlink" x="0px" y="0px"
	 width="48px" height="48px" viewBox="0 0 48 48" enable-background="new 0 0 48 48" xml:space="preserve">
<g>
	<path fill="#231F20" d="M47,8h-5V5c0-0.552-0.447-1-1-1H16V1c0-0.552-0.447-1-1-1H1C0.447,0,0,0.448,0,1v33c0,3.309,2.691,6,6,6h35
		c3.859,0,7-3.14,7-7V9C48,8.448,47.553,8,47,8z M10,9v25c0,2.206-1.794,4-4,4s-4-1.794-4-4V2h12v3c0,0.552,0.447,1,1,1h25v2H11
		C10.447,8,10,8.448,10,9z M46,33c0,2.757-2.243,5-5,5h-4c0.553,0,1-0.448,1-1s-0.447-1-1-1h-2c-0.553,0-1,0.448-1,1s0.447,1,1,1
		H10.469C11.42,36.938,12,35.535,12,34V10h22v3c0,0.552,0.447,1,1,1h1v8h-4v-9c0-0.552-0.447-1-1-1s-1,0.448-1,1v10
		c0,0.552,0.447,1,1,1h6c0.553,0,1-0.448,1-1V13c0-0.552-0.447-1-1-1h-1v-2h10V33z"/>
	<rect x="33" y="19" fill="#231F20" width="2" height="2"/>
	<path fill="#231F20" d="M36,27c0-0.552-0.447-1-1-1h-2c-0.553,0-1,0.448-1,1s0.447,1,1,1h2C35.553,28,36,27.552,36,27z"/>
	<path fill="#231F20" d="M36,31c0-0.552-0.447-1-1-1h-2c-0.553,0-1,0.448-1,1s0.447,1,1,1h2C35.553,32,36,31.552,36,31z"/>
	<path fill="#231F20" d="M36,35c0-0.552-0.447-1-1-1h-2c-0.553,0-1,0.448-1,1s0.447,1,1,1h2C35.553,36,36,35.552,36,35z"/>
	<path fill="#231F20" d="M38,29c0-0.552-0.447-1-1-1h-2c-0.553,0-1,0.448-1,1s0.447,1,1,1h2C37.553,30,38,29.552,38,29z"/>
	<path fill="#231F20" d="M38,33c0-0.552-0.447-1-1-1h-2c-0.553,0-1,0.448-1,1s0.447,1,1,1h2C37.553,34,38,33.552,38,33z"/>
</g>
</svg>
