<?xml version="1.0" encoding="utf-8"?>
<!-- Generator: Adobe Illustrator 17.0.0, SVG Export Plug-In . SVG Version: 6.00 Build 0)  -->
<!DOCTYPE svg PUBLIC "-//W3C//DTD SVG 1.1//EN" "http://www.w3.org/Graphics/SVG/1.1/DTD/svg11.dtd">
<svg version="1.1" id="Layer_1" xmlns="http://www.w3.org/2000/svg" xmlns:xlink="http://www.w3.org/1999/xlink" x="0px" y="0px"
	 width="48px" height="48px" viewBox="0 0 48 48" enable-background="new 0 0 48 48" xml:space="preserve">
<g>
	<path fill="#231F20" d="M19,34H7.444C7.788,33.409,8,32.732,8,32V10h32v9c0,0.552,0.448,1,1,1s1-0.448,1-1V9c0-0.552-0.448-1-1-1
		h-3V5c0-0.552-0.448-1-1-1H12V1c0-0.552-0.448-1-1-1H1C0.448,0,0,0.448,0,1v31c0,2.206,1.794,4,4,4h15c0.552,0,1-0.448,1-1
		S19.552,34,19,34z M2,32V2h8v3c0,0.552,0.448,1,1,1h25v2H7C6.448,8,6,8.448,6,9v23c0,1.103-0.897,2-2,2S2,33.103,2,32z"/>
	<path fill="#231F20" d="M47,32h-2v-1c0-3.86-3.14-7-7-7s-7,3.14-7,7v1h-2c-0.552,0-1,0.448-1,1v14c0,0.552,0.448,1,1,1h18
		c0.552,0,1-0.448,1-1V33C48,32.448,47.552,32,47,32z M33,31c0-2.757,2.243-5,5-5s5,2.243,5,5v1H33V31z M46,46H30V34h16V46z"/>
	<path fill="#231F20" d="M38,36c-1.106,0-2,0.895-2,2c0,0.759,0.427,1.411,1.05,1.75C37.029,39.832,37,39.911,37,40v3
		c0,0.552,0.448,1,1,1s1-0.448,1-1v-3c0-0.089-0.029-0.168-0.051-0.25C39.572,39.41,40,38.758,40,38C40,36.895,39.103,36,38,36z"/>
</g>
</svg>
