<?xml version="1.0" encoding="utf-8"?>
<!-- Generator: Adobe Illustrator 17.0.0, SVG Export Plug-In . SVG Version: 6.00 Build 0)  -->
<!DOCTYPE svg PUBLIC "-//W3C//DTD SVG 1.1//EN" "http://www.w3.org/Graphics/SVG/1.1/DTD/svg11.dtd">
<svg version="1.1" id="Layer_1" xmlns="http://www.w3.org/2000/svg" xmlns:xlink="http://www.w3.org/1999/xlink" x="0px" y="0px"
	 width="48px" height="48px" viewBox="0 0 48 48" enable-background="new 0 0 48 48" xml:space="preserve">
<g>
	<path fill="#231F20" d="M19,34.061H7.444C7.788,33.47,8,32.793,8,32.061v-22h32v8c0,0.552,0.447,1,1,1s1-0.448,1-1v-9
		c0-0.552-0.447-1-1-1h-3v-3c0-0.552-0.447-1-1-1H12v-3c0-0.552-0.447-1-1-1H1c-0.553,0-1,0.448-1,1v31c0,2.206,1.794,4,4,4h15
		c0.553,0,1-0.448,1-1S19.553,34.061,19,34.061z M2,32.061v-30h8v3c0,0.552,0.447,1,1,1h25v2H7c-0.553,0-1,0.448-1,1v23
		c0,1.103-0.898,2-2,2C2.897,34.061,2,33.164,2,32.061z"/>
	<path fill="#231F20" d="M47.5,37.322l-1.785-1.03c0.052-0.425,0.077-0.847,0.077-1.262c0-0.417-0.025-0.835-0.077-1.262l1.782-1.03
		c0.477-0.277,0.64-0.888,0.365-1.366l-3.264-5.653c-0.132-0.23-0.351-0.398-0.608-0.466c-0.259-0.068-0.531-0.031-0.76,0.102
		l-1.772,1.029c-0.655-0.484-1.389-0.907-2.167-1.25v-2.073c0-0.552-0.447-1-1-1h-6.528c-0.553,0-1,0.448-1,1v2.072
		c-0.661,0.289-1.438,0.696-2.197,1.253l-1.795-1.033c-0.478-0.275-1.089-0.111-1.365,0.366l-3.268,5.653
		c-0.133,0.23-0.169,0.503-0.101,0.759c0.069,0.256,0.237,0.475,0.466,0.607l1.783,1.03c-0.054,0.432-0.08,0.849-0.08,1.262
		c0,0.416,0.025,0.833,0.078,1.262l-1.784,1.03c-0.478,0.276-0.642,0.888-0.366,1.366l3.265,5.653
		c0.276,0.477,0.887,0.642,1.363,0.368l1.804-1.034c0.757,0.556,1.535,0.964,2.197,1.253V47c0,0.552,0.447,1,1,1h6.528
		c0.553,0,1-0.448,1-1v-2.073c0.779-0.344,1.513-0.767,2.167-1.25l1.78,1.03c0.23,0.133,0.504,0.169,0.76,0.1
		c0.255-0.068,0.474-0.236,0.607-0.466l3.261-5.653C48.142,38.21,47.978,37.598,47.5,37.322z M43.372,42.475l-1.502-0.869
		c-0.368-0.211-0.829-0.17-1.151,0.106c-0.774,0.662-1.734,1.217-2.777,1.605c-0.391,0.145-0.651,0.519-0.651,0.937V46h-4.528
		v-1.745c0-0.419-0.259-0.792-0.651-0.938c-1.061-0.394-2.058-0.964-2.807-1.605c-0.323-0.276-0.784-0.319-1.148-0.108l-1.525,0.875
		l-2.266-3.924l1.51-0.872c0.366-0.212,0.559-0.631,0.483-1.047c-0.103-0.562-0.153-1.087-0.153-1.605
		c0-0.51,0.05-1.035,0.155-1.605c0.077-0.416-0.117-0.835-0.483-1.046l-1.509-0.872l2.269-3.923l1.518,0.874
		c0.366,0.211,0.827,0.167,1.149-0.107c0.751-0.643,1.747-1.213,2.806-1.606c0.392-0.146,0.652-0.52,0.652-0.938v-1.746h4.528v1.746
		c0,0.419,0.259,0.793,0.652,0.938c1.04,0.387,2.001,0.942,2.776,1.606c0.323,0.276,0.786,0.319,1.152,0.105l1.495-0.868
		l2.264,3.919l-1.509,0.872c-0.365,0.211-0.558,0.63-0.482,1.046c0.102,0.559,0.152,1.084,0.152,1.605
		c0,0.522-0.05,1.062-0.151,1.604c-0.078,0.416,0.116,0.836,0.483,1.048l1.511,0.872L43.372,42.475z"/>
	<path fill="#231F20" d="M34.998,29.677c-2.952,0-5.353,2.402-5.353,5.353c0,2.952,2.402,5.353,5.353,5.353s5.353-2.402,5.353-5.353
		C40.351,32.078,37.949,29.677,34.998,29.677z M34.998,38.384c-1.849,0-3.353-1.504-3.353-3.353s1.504-3.353,3.353-3.353
		s3.353,1.504,3.353,3.353S36.847,38.384,34.998,38.384z"/>
</g>
</svg>
