<?xml version="1.0" encoding="utf-8"?>
<!-- Generator: Adobe Illustrator 17.0.0, SVG Export Plug-In . SVG Version: 6.00 Build 0)  -->
<!DOCTYPE svg PUBLIC "-//W3C//DTD SVG 1.1//EN" "http://www.w3.org/Graphics/SVG/1.1/DTD/svg11.dtd">
<svg version="1.1" id="Layer_1" xmlns="http://www.w3.org/2000/svg" xmlns:xlink="http://www.w3.org/1999/xlink" x="0px" y="0px"
	 width="48px" height="48px" viewBox="0 0 48 48" enable-background="new 0 0 48 48" xml:space="preserve">
<g>
	<path fill="#231F20" d="M19,34H7.444C7.788,33.409,8,32.732,8,32V10h32v9c0,0.552,0.448,1,1,1s1-0.448,1-1V9c0-0.552-0.448-1-1-1
		h-3V5c0-0.552-0.448-1-1-1H12V1c0-0.552-0.448-1-1-1H1C0.448,0,0,0.448,0,1v31c0,2.206,1.794,4,4,4h15c0.552,0,1-0.448,1-1
		S19.552,34,19,34z M2,32V2h8v3c0,0.552,0.448,1,1,1h25v2H7C6.448,8,6,8.448,6,9v23c0,1.103-0.897,2-2,2S2,33.103,2,32z"/>
	<path fill="#231F20" d="M47.94,32.66C47.797,32.264,47.421,32,47,32h-6.381l-3.708-7.446c-0.168-0.339-0.514-0.553-0.893-0.554
		h-0.002c-0.378,0-0.724,0.213-0.894,0.551L31.383,32H25c-0.421,0-0.797,0.264-0.941,0.66c-0.143,0.396-0.023,0.838,0.3,1.108
		l5.476,4.563l-2.784,8.353c-0.136,0.407,0.004,0.857,0.347,1.115c0.344,0.258,0.815,0.268,1.168,0.025L36,42.719l7.434,5.105
		C43.604,47.941,43.802,48,44,48c0.212,0,0.424-0.067,0.602-0.201c0.343-0.258,0.483-0.707,0.347-1.115l-2.784-8.353l5.475-4.563
		C47.963,33.499,48.083,33.056,47.94,32.66z M40.36,37.232c-0.317,0.264-0.439,0.694-0.309,1.085l2.057,6.171l-5.542-3.806
		c-0.17-0.117-0.368-0.176-0.566-0.176s-0.396,0.059-0.565,0.176l-5.543,3.806l2.057-6.171c0.13-0.391,0.007-0.822-0.309-1.085
		L27.762,34H32c0.378,0,0.724-0.213,0.893-0.551l3.119-6.213l3.093,6.21C39.274,33.785,39.621,34,40,34h4.238L40.36,37.232z"/>
</g>
</svg>
