<?xml version="1.0" encoding="utf-8"?>
<!-- Generator: Adobe Illustrator 17.0.0, SVG Export Plug-In . SVG Version: 6.00 Build 0)  -->
<!DOCTYPE svg PUBLIC "-//W3C//DTD SVG 1.1//EN" "http://www.w3.org/Graphics/SVG/1.1/DTD/svg11.dtd">
<svg version="1.1" id="Layer_1" xmlns="http://www.w3.org/2000/svg" xmlns:xlink="http://www.w3.org/1999/xlink" x="0px" y="0px"
	 width="48px" height="48px" viewBox="0 0 48 48" enable-background="new 0 0 48 48" xml:space="preserve">
<path fill="#231F20" d="M47,12h-2c-0.552,0-1,0.448-1,1s0.448,1,1,1h1v23c0,2.757-2.243,5-5,5H10.46c0.954-1.063,1.54-2.462,1.54-4
	V14h15c0.552,0,1-0.448,1-1s-0.448-1-1-1H11c-0.552,0-1,0.448-1,1v25c0,2.206-1.794,4-4,4s-4-1.794-4-4V6h12v3c0,0.552,0.448,1,1,1
	h15v22c0,0.404,0.244,0.769,0.617,0.924c0.374,0.154,0.803,0.069,1.09-0.217L36,28.414l4.293,4.293C40.484,32.898,40.74,33,41,33
	c0.129,0,0.259-0.025,0.383-0.076C41.756,32.769,42,32.404,42,32V7c0-1.654-1.346-3-3-3H28c-2.206,0-4,1.794-4,4h-8V5
	c0-0.552-0.448-1-1-1H1C0.448,4,0,4.448,0,5v33c0,3.309,2.691,6,6,6h35c3.86,0,7-3.14,7-7V13C48,12.448,47.552,12,47,12z M39,6
	c0.551,0,1,0.449,1,1v22.586l-3.293-3.293C36.512,26.098,36.256,26,36,26s-0.512,0.098-0.707,0.293L32,29.586V8
	c0-0.728-0.195-1.411-0.537-2H39z M28,6c1.103,0,2,0.897,2,2h-4C26,6.897,26.897,6,28,6z"/>
</svg>
