<?xml version="1.0" encoding="utf-8"?>
<!-- Generator: Adobe Illustrator 17.0.0, SVG Export Plug-In . SVG Version: 6.00 Build 0)  -->
<!DOCTYPE svg PUBLIC "-//W3C//DTD SVG 1.1//EN" "http://www.w3.org/Graphics/SVG/1.1/DTD/svg11.dtd">
<svg version="1.1" id="Layer_1" xmlns="http://www.w3.org/2000/svg" xmlns:xlink="http://www.w3.org/1999/xlink" x="0px" y="0px"
	 width="48px" height="48px" viewBox="0 0 48 48" enable-background="new 0 0 48 48" xml:space="preserve">
<g>
	<path fill="#231F20" d="M45,10H17.414l-3.707-3.707C13.519,6.106,13.265,6,13,6H3C2.448,6,2,6.448,2,7v32c0,0.552,0.448,1,1,1h20v6
		H11c-0.552,0-1,0.448-1,1s0.448,1,1,1h26c0.552,0,1-0.448,1-1s-0.448-1-1-1H25v-6h20c0.552,0,1-0.448,1-1V11
		C46,10.448,45.552,10,45,10z M44,38H4V8h8.586l3.707,3.707C16.48,11.895,16.735,12,17,12h27V38z"/>
	<circle fill="#231F20" cx="3" cy="47" r="1"/>
	<circle fill="#231F20" cx="7" cy="47" r="1"/>
	<circle fill="#231F20" cx="41" cy="47" r="1"/>
	<circle fill="#231F20" cx="45" cy="47" r="1"/>
</g>
</svg>
