<?xml version="1.0" encoding="utf-8"?>
<!-- Generator: Adobe Illustrator 17.0.0, SVG Export Plug-In . SVG Version: 6.00 Build 0)  -->
<!DOCTYPE svg PUBLIC "-//W3C//DTD SVG 1.1//EN" "http://www.w3.org/Graphics/SVG/1.1/DTD/svg11.dtd">
<svg version="1.1" id="Layer_1" xmlns="http://www.w3.org/2000/svg" xmlns:xlink="http://www.w3.org/1999/xlink" x="0px" y="0px"
	 width="48px" height="48px" viewBox="0 0 48 48" enable-background="new 0 0 48 48" xml:space="preserve">
<g>
	<path fill="#231F20" d="M18,34H7.06C7.659,33.045,8,31.916,8,31V10h32v8c0,0.552,0.448,1,1,1s1-0.448,1-1V9c0-0.552-0.448-1-1-1h-3
		V5c0-0.552-0.448-1-1-1H12V1c0-0.552-0.448-1-1-1H1C0.448,0,0,0.448,0,1v30c0,1.991,1.595,5,4,5h14c0.552,0,1-0.448,1-1
		S18.552,34,18,34z M2,31V2h8v3c0,0.552,0.448,1,1,1h25v2H7C6.448,8,6,8.448,6,9v22c0,1.239-1.034,3-2,3S2,32.239,2,31z"/>
	<path fill="#231F20" d="M35,22c-7.169,0-13,5.832-13,13c0,7.169,5.831,13,13,13c7.168,0,13-5.831,13-13C48,27.832,42.168,22,35,22z
		 M35,46c-6.065,0-11-4.935-11-11s4.935-11,11-11s11,4.935,11,11S41.065,46,35,46z"/>
	<path fill="#231F20" d="M41.106,28.894c-0.391-0.391-1.023-0.391-1.414,0l-4.693,4.692l-4.693-4.692
		c-0.391-0.391-1.023-0.391-1.414,0c-0.391,0.391-0.391,1.024,0,1.414L33.585,35l-4.693,4.692c-0.391,0.39-0.391,1.023,0,1.414
		c0.195,0.195,0.451,0.293,0.707,0.293c0.255,0,0.511-0.098,0.707-0.293l4.693-4.692l4.693,4.692
		c0.195,0.195,0.451,0.293,0.707,0.293c0.256,0,0.512-0.098,0.707-0.293c0.391-0.391,0.391-1.024,0-1.414L36.413,35l4.693-4.692
		C41.497,29.918,41.497,29.285,41.106,28.894z"/>
</g>
</svg>
