<?xml version="1.0" encoding="utf-8"?>
<!-- Generator: Adobe Illustrator 17.0.0, SVG Export Plug-In . SVG Version: 6.00 Build 0)  -->
<!DOCTYPE svg PUBLIC "-//W3C//DTD SVG 1.1//EN" "http://www.w3.org/Graphics/SVG/1.1/DTD/svg11.dtd">
<svg version="1.1" id="Layer_1" xmlns="http://www.w3.org/2000/svg" xmlns:xlink="http://www.w3.org/1999/xlink" x="0px" y="0px"
	 width="48px" height="48px" viewBox="0 0 48 48" enable-background="new 0 0 48 48" xml:space="preserve">
<g>
	<path fill="#231F20" d="M47,8h-5V5c0-0.552-0.447-1-1-1H16V1c0-0.552-0.447-1-1-1H1C0.447,0,0,0.448,0,1v33c0,3.309,2.691,6,6,6h35
		c3.859,0,7-3.14,7-7V9C48,8.448,47.553,8,47,8z M10,9v25c0,2.206-1.794,4-4,4s-4-1.794-4-4V2h12v3c0,0.552,0.447,1,1,1h25v2H11
		C10.447,8,10,8.448,10,9z M46,33c0,2.757-2.243,5-5,5H10.469C11.42,36.938,12,35.535,12,34V10h34V33z"/>
	<path fill="#231F20" d="M19,32h20c0.34,0,0.656-0.173,0.842-0.457c0.183-0.286,0.21-0.646,0.069-0.955l-5-11
		c-0.142-0.311-0.432-0.529-0.77-0.577c-0.337-0.047-0.676,0.08-0.899,0.339l-5.492,6.407l-3.302-1.651
		c-0.416-0.208-0.919-0.103-1.216,0.254l-5,6c-0.248,0.297-0.302,0.713-0.137,1.064C18.259,31.775,18.612,32,19,32z M24.261,26.249
		l3.292,1.646c0.409,0.203,0.907,0.106,1.206-0.244l4.979-5.81L37.447,30H21.135L24.261,26.249z"/>
	<path fill="#231F20" d="M23,22c2.206,0,4-1.794,4-4s-1.794-4-4-4s-4,1.794-4,4S20.794,22,23,22z M23,16c1.102,0,2,0.897,2,2
		s-0.898,2-2,2c-1.103,0-2-0.897-2-2S21.897,16,23,16z"/>
</g>
</svg>
