<?xml version="1.0" encoding="utf-8"?>
<!-- Generator: Adobe Illustrator 17.0.0, SVG Export Plug-In . SVG Version: 6.00 Build 0)  -->
<!DOCTYPE svg PUBLIC "-//W3C//DTD SVG 1.1//EN" "http://www.w3.org/Graphics/SVG/1.1/DTD/svg11.dtd">
<svg version="1.1" id="Layer_1" xmlns="http://www.w3.org/2000/svg" xmlns:xlink="http://www.w3.org/1999/xlink" x="0px" y="0px"
	 width="48px" height="48px" viewBox="0 0 48 48" enable-background="new 0 0 48 48" xml:space="preserve">
<g>
	<path fill="#231F20" d="M18,34H7.444C7.788,33.409,8,32.732,8,32V10h32v8c0,0.552,0.447,1,1,1s1-0.448,1-1V9c0-0.552-0.447-1-1-1
		h-3V5c0-0.552-0.447-1-1-1H12V1c0-0.552-0.447-1-1-1H1C0.447,0,0,0.448,0,1v31c0,2.206,1.794,4,4,4h14c0.553,0,1-0.448,1-1
		S18.553,34,18,34z M2,32V2h8v3c0,0.552,0.447,1,1,1h25v2H7C6.447,8,6,8.448,6,9v23c0,1.103-0.898,2-2,2C2.897,34,2,33.103,2,32z"/>
	<path fill="#231F20" d="M35,22c-7.168,0-13,5.832-13,13c0,7.169,5.832,13,13,13c7.168,0,13-5.831,13-13C48,27.832,42.168,22,35,22z
		 M35,46c-6.065,0-11-4.935-11-11s4.935-11,11-11s11,4.935,11,11S41.065,46,35,46z"/>
	<path fill="#231F20" d="M38.656,35.384L36,38.041v-8.496c0-0.552-0.447-1-1-1s-1,0.448-1,1v8.496l-2.656-2.657
		c-0.391-0.391-1.023-0.391-1.414,0c-0.391,0.39-0.391,1.023,0,1.414l4.362,4.363c0.001,0.001,0.002,0.002,0.002,0.002L35,41.869
		l0.706-0.706c0.001-0.001,0.001-0.001,0.002-0.002l4.362-4.363c0.391-0.391,0.391-1.023,0-1.414
		C39.679,34.993,39.047,34.993,38.656,35.384z"/>
</g>
</svg>
