<?xml version="1.0" encoding="utf-8"?>
<!-- Generator: Adobe Illustrator 17.0.0, SVG Export Plug-In . SVG Version: 6.00 Build 0)  -->
<!DOCTYPE svg PUBLIC "-//W3C//DTD SVG 1.1//EN" "http://www.w3.org/Graphics/SVG/1.1/DTD/svg11.dtd">
<svg version="1.1" id="Layer_1" xmlns="http://www.w3.org/2000/svg" xmlns:xlink="http://www.w3.org/1999/xlink" x="0px" y="0px"
	 width="48px" height="48px" viewBox="0 0 48 48" enable-background="new 0 0 48 48" xml:space="preserve">
<g>
	<path fill="#231F20" d="M18,34H7.444C7.788,33.409,8,32.732,8,32V10h32v8c0,0.552,0.448,1,1,1s1-0.448,1-1V9c0-0.552-0.448-1-1-1
		h-3V5c0-0.552-0.448-1-1-1H12V1c0-0.552-0.448-1-1-1H1C0.448,0,0,0.448,0,1v31c0,2.206,1.794,4,4,4h14c0.552,0,1-0.448,1-1
		S18.552,34,18,34z M2,32V2h8v3c0,0.552,0.448,1,1,1h25v2H7C6.448,8,6,8.448,6,9v23c0,1.103-0.897,2-2,2S2,33.103,2,32z"/>
	<path fill="#231F20" d="M35,22c-7.169,0-13,5.832-13,13c0,7.169,5.831,13,13,13c7.168,0,13-5.831,13-13C48,27.832,42.168,22,35,22z
		 M35,46c-6.065,0-11-4.935-11-11s4.935-11,11-11s11,4.935,11,11S41.065,46,35,46z"/>
	<path fill="#231F20" d="M40.454,34H36v-4.455c0-0.552-0.448-1-1-1s-1,0.448-1,1V34h-4.455c-0.552,0-1,0.448-1,1s0.448,1,1,1H34
		v4.455c0,0.552,0.448,1,1,1s1-0.448,1-1.001V36h4.455c0.552,0,1-0.448,0.999-1C41.454,34.448,41.006,34,40.454,34z"/>
</g>
</svg>
