<?xml version="1.0" encoding="utf-8"?>
<!-- Generator: Adobe Illustrator 17.0.0, SVG Export Plug-In . SVG Version: 6.00 Build 0)  -->
<!DOCTYPE svg PUBLIC "-//W3C//DTD SVG 1.1//EN" "http://www.w3.org/Graphics/SVG/1.1/DTD/svg11.dtd">
<svg version="1.1" id="Layer_1" xmlns="http://www.w3.org/2000/svg" xmlns:xlink="http://www.w3.org/1999/xlink" x="0px" y="0px"
	 width="48px" height="48px" viewBox="0 0 48 48" enable-background="new 0 0 48 48" xml:space="preserve">
<g>
	<path fill="#231F20" d="M18,34H7.444C7.788,33.409,8,32.732,8,32V10h32v8c0,0.552,0.447,1,1,1s1-0.448,1-1V9c0-0.552-0.447-1-1-1
		h-3V5c0-0.552-0.447-1-1-1H12V1c0-0.552-0.447-1-1-1H1C0.447,0,0,0.448,0,1v31c0,2.206,1.794,4,4,4h14c0.553,0,1-0.448,1-1
		S18.553,34,18,34z M2,32V2h8v3c0,0.552,0.447,1,1,1h25v2H7C6.447,8,6,8.448,6,9v23c0,1.103-0.898,2-2,2C2.897,34,2,33.103,2,32z"/>
	<path fill="#231F20" d="M35,22c-7.168,0-13,5.832-13,13c0,7.169,5.832,13,13,13c7.168,0,13-5.831,13-13C48,27.832,42.168,22,35,22z
		 M24,35c0-6.065,4.935-11,11-11c2.673,0,5.125,0.96,7.033,2.552L26.552,42.033C24.96,40.125,24,37.673,24,35z M35,46
		c-2.673,0-5.125-0.961-7.034-2.552l15.481-15.481C45.039,29.875,46,32.327,46,35C46,41.065,41.065,46,35,46z"/>
</g>
</svg>
