<?xml version="1.0" encoding="utf-8"?>
<!-- Generator: Adobe Illustrator 17.0.0, SVG Export Plug-In . SVG Version: 6.00 Build 0)  -->
<!DOCTYPE svg PUBLIC "-//W3C//DTD SVG 1.1//EN" "http://www.w3.org/Graphics/SVG/1.1/DTD/svg11.dtd">
<svg version="1.1" id="Layer_1" xmlns="http://www.w3.org/2000/svg" xmlns:xlink="http://www.w3.org/1999/xlink" x="0px" y="0px"
	 width="48px" height="48px" viewBox="0 0 48 48" enable-background="new 0 0 48 48" xml:space="preserve">
<g>
	<path fill="#231F20" d="M36.077,5.382c0.051,0.123,0.124,0.233,0.217,0.326l3.999,3.999C40.488,9.902,40.744,10,41,10
		s0.512-0.098,0.707-0.293c0.391-0.391,0.391-1.023,0-1.414L39.414,6H42c1.102,0,2,0.897,2,2v9c0,0.552,0.447,1,1,1s1-0.448,1-1V8
		c0-2.206-1.794-4-4-4h-2.586l2.293-2.293c0.391-0.391,0.391-1.023,0-1.414c-0.391-0.391-1.023-0.391-1.414,0l-3.999,3.999
		c-0.093,0.092-0.166,0.203-0.217,0.326C35.976,4.862,35.976,5.138,36.077,5.382z"/>
	<path fill="#231F20" d="M47,28h-3v-3c0-0.552-0.447-1-1-1H32.432c1-1.024,1.568-2.392,1.568-4V9c0-0.552-0.447-1-1-1h-3V5
		c0-0.552-0.447-1-1-1H12V1c0-0.552-0.447-1-1-1H1C0.447,0,0,0.448,0,1v21c0,2.206,1.794,4,4,4h10v18c0,2.206,1.794,4,4,4h23
		c3.859,0,7-3.14,7-7V29C48,28.448,47.553,28,47,28z M2,22V2h8v3c0,0.552,0.447,1,1,1h17v2H7C6.447,8,6,8.448,6,9v13
		c0,1.103-0.898,2-2,2C2.897,24,2,23.103,2,22z M7.444,24C7.788,23.409,8,22.732,8,22V10h24v10c0,2.949-2.583,4-5,4h-3v-1
		c0-0.552-0.447-1-1-1h-8c-0.553,0-1,0.448-1,1v1H7.444z M20,29v15c0,1.103-0.898,2-2,2c-1.103,0-2-0.897-2-2V24h6v1
		c0,0.552,0.447,1,1,1h4h15v2H21C20.447,28,20,28.448,20,29z M46,41c0,2.757-2.243,5-5,5H21.463C21.805,45.411,22,44.728,22,44V30
		h24V41z"/>
	<path fill="#231F20" d="M11.923,42.618c-0.051-0.123-0.124-0.233-0.217-0.326l-3.999-3.999c-0.391-0.391-1.023-0.391-1.414,0
		c-0.391,0.391-0.391,1.023,0,1.414L8.586,42H6c-1.103,0-2-0.897-2-2v-7c0-0.552-0.447-1-1-1s-1,0.448-1,1v7c0,2.206,1.794,4,4,4
		h2.586l-2.293,2.293c-0.391,0.391-0.391,1.023,0,1.414C6.488,47.902,6.744,48,7,48s0.512-0.098,0.707-0.293l3.999-3.999
		c0.093-0.092,0.166-0.203,0.217-0.326C12.024,43.138,12.024,42.862,11.923,42.618z"/>
</g>
</svg>
