<?xml version="1.0" encoding="utf-8"?>
<!-- Generator: Adobe Illustrator 17.0.0, SVG Export Plug-In . SVG Version: 6.00 Build 0)  -->
<!DOCTYPE svg PUBLIC "-//W3C//DTD SVG 1.1//EN" "http://www.w3.org/Graphics/SVG/1.1/DTD/svg11.dtd">
<svg version="1.1" id="Layer_1" xmlns="http://www.w3.org/2000/svg" xmlns:xlink="http://www.w3.org/1999/xlink" x="0px" y="0px"
	 width="48px" height="48px" viewBox="0 0 48 48" enable-background="new 0 0 48 48" xml:space="preserve">
<g>
	<path fill="#231F20" d="M47,12h-5V9c0-0.552-0.448-1-1-1H16V5c0-0.552-0.448-1-1-1H1C0.448,4,0,4.448,0,5v33c0,3.309,2.691,6,6,6
		h35c3.86,0,7-3.14,7-7V13C48,12.448,47.552,12,47,12z M10,13v25c0,2.206-1.794,4-4,4s-4-1.794-4-4V6h12v3c0,0.552,0.448,1,1,1h25v2
		H11C10.448,12,10,12.448,10,13z M46,37c0,2.757-2.243,5-5,5H10.468C11.42,40.938,12,39.535,12,38V14h34V37z"/>
	<path fill="#231F20" d="M19.707,29.707L22,27.414V35c0,0.552,0.448,1,1,1h12c0.552,0,1-0.448,1-1v-7.586l2.293,2.293
		C38.488,29.902,38.744,30,39,30s0.512-0.098,0.707-0.293c0.391-0.391,0.391-1.023,0-1.414l-4-4c0,0,0,0,0,0l-6-6
		c-0.375-0.375-1.039-0.375-1.414,0l-6,6c0,0,0,0,0,0l-4,4c-0.391,0.391-0.391,1.023,0,1.414
		C18.684,30.098,19.316,30.098,19.707,29.707z M29,20.414l5,5V34h-3v-6h-4v6h-3v-8.586L29,20.414z"/>
</g>
</svg>
