<?xml version="1.0" encoding="utf-8"?>
<!-- Generator: Adobe Illustrator 17.0.0, SVG Export Plug-In . SVG Version: 6.00 Build 0)  -->
<!DOCTYPE svg PUBLIC "-//W3C//DTD SVG 1.1//EN" "http://www.w3.org/Graphics/SVG/1.1/DTD/svg11.dtd">
<svg version="1.1" id="Layer_2" xmlns="http://www.w3.org/2000/svg" xmlns:xlink="http://www.w3.org/1999/xlink" x="0px" y="0px"
	 width="60px" height="60px" viewBox="0 0 60 60" enable-background="new 0 0 60 60" xml:space="preserve">
<g>
	<path fill="#010101" d="M56.202,19.657c0.74-2.2,0.507-4.37-0.679-6.178c-1.557-2.375-4.536-3.728-7.88-3.541
		C45.481,5.025,40.448,0,34,0c-8.923,0-14.925,6.022-15.896,12.106C11.464,13.158,6,19.34,6,25.991
		c-0.001,0.14,0.005,2.79,1.574,5.47c0.913-0.435,1.863-0.794,2.85-1.047C12.112,24.146,18.548,18,28,18
		c7.156,0,12.414,5.232,14.895,9.938c3.502,0.177,6.573,1.811,8.3,4.445c0.764,1.165,1.218,2.438,1.371,3.77
		c0.643-0.021,1.245-0.042,1.789-0.061c2.466-0.083,4.57-1.735,5.237-4.111C59.863,31.017,60,30.014,60,29
		C60,25.938,58.987,21.988,56.202,19.657z"/>
	<path fill="#010101" d="M53.932,47.656c-0.027-0.29-0.064-0.585-0.109-0.882c-0.017-0.111-0.034-0.222-0.054-0.337
		c-0.057-0.327-0.126-0.655-0.207-0.983c-0.017-0.07-0.032-0.139-0.051-0.209c-0.101-0.385-0.217-0.769-0.353-1.148
		c-0.008-0.021-0.015-0.043-0.022-0.064c-0.146-0.399-0.311-0.793-0.498-1.178c-0.007-0.014-0.014-0.028-0.021-0.043
		c-0.187-0.379-0.395-0.748-0.625-1.104c-0.019-0.029-0.04-0.059-0.059-0.088c-0.231-0.349-0.482-0.686-0.757-1.003
		c-0.015-0.018-0.033-0.033-0.048-0.051c-0.285-0.322-0.591-0.628-0.925-0.908c0.081-0.243,0.147-0.484,0.205-0.726
		c0.022-0.09,0.039-0.18,0.057-0.27c0.036-0.179,0.069-0.358,0.093-0.536c0.011-0.081,0.019-0.161,0.027-0.241
		c0.019-0.188,0.031-0.375,0.035-0.561c0.002-0.07,0.002-0.141,0.002-0.21c-0.001-0.193-0.012-0.386-0.029-0.576
		c-0.006-0.063-0.011-0.126-0.018-0.189c-0.005-0.043-0.015-0.085-0.021-0.128c0.003,0,0.006,0,0.009,0
		c-0.136-0.97-0.481-1.893-1.037-2.74c-1.458-2.224-4.169-3.554-7.251-3.559l-0.625-0.001l-0.273-0.562
		C39.274,25.041,34.512,20,28,20c-8.707,0-14.525,5.767-15.774,11.462l-0.138,0.631l-0.632,0.134
		c-1.118,0.237-2.19,0.624-3.204,1.121C8.075,33.435,7.9,33.526,7.727,33.62c-0.186,0.101-0.369,0.204-0.55,0.312
		c-0.174,0.104-0.345,0.214-0.515,0.326c-0.172,0.113-0.343,0.228-0.51,0.348c-0.167,0.12-0.33,0.245-0.492,0.372
		c-0.162,0.128-0.324,0.255-0.482,0.389c-0.153,0.13-0.301,0.265-0.449,0.401c-0.156,0.144-0.312,0.288-0.462,0.438
		c-0.135,0.135-0.265,0.276-0.395,0.416c-0.151,0.163-0.302,0.325-0.445,0.494c-0.116,0.136-0.226,0.278-0.337,0.418
		c-0.145,0.183-0.29,0.366-0.425,0.555c-0.097,0.134-0.186,0.273-0.278,0.41c-0.136,0.204-0.273,0.407-0.399,0.617
		c-0.079,0.131-0.15,0.267-0.225,0.401c-0.124,0.221-0.248,0.442-0.36,0.669c-0.065,0.133-0.122,0.269-0.183,0.403
		c-0.106,0.233-0.214,0.467-0.307,0.705c-0.054,0.14-0.099,0.282-0.148,0.424c-0.084,0.237-0.17,0.474-0.241,0.715
		c-0.047,0.161-0.081,0.326-0.122,0.488c-0.057,0.225-0.118,0.449-0.163,0.677c-0.042,0.212-0.066,0.428-0.097,0.643
		c-0.026,0.183-0.061,0.364-0.079,0.547C0.022,45.19,0,45.594,0,46c0,7.458,6.542,14,14,14h28.914C49.027,60,54,55.065,54,49
		c0-0.351-0.017-0.716-0.045-1.086C53.949,47.832,53.94,47.743,53.932,47.656z"/>
</g>
</svg>
