<?xml version="1.0" encoding="utf-8"?>
<!-- Generator: Adobe Illustrator 17.0.0, SVG Export Plug-In . SVG Version: 6.00 Build 0)  -->
<!DOCTYPE svg PUBLIC "-//W3C//DTD SVG 1.1//EN" "http://www.w3.org/Graphics/SVG/1.1/DTD/svg11.dtd">
<svg version="1.1" id="Layer_2" xmlns="http://www.w3.org/2000/svg" xmlns:xlink="http://www.w3.org/1999/xlink" x="0px" y="0px"
	 width="60px" height="60px" viewBox="0 0 60 60" enable-background="new 0 0 60 60" xml:space="preserve">
<g>
	<path fill="#010101" d="M59.422,36.309C53.091,33.361,49,26.96,49,20c0-6.959,4.091-13.361,10.422-16.31
		C59.774,3.525,60,3.172,60,2.783s-0.226-0.742-0.578-0.906C56.747,0.632,53.913,0,51,0c-8.638,0-16.267,5.503-18.987,13.699
		c-0.059,0.182-0.682,2.16-0.922,4.954c4.048,1.317,7.559,4.579,9.85,9.286c3.483,0.189,6.538,1.821,8.256,4.443
		c1.301,1.982,1.726,4.271,1.243,6.649c0.096,0.104,0.18,0.222,0.273,0.33c1.383,0.124,2.827,0.193,4.349,0.193
		c1.41,0,2.663-0.61,3.769-1.148c0.198-0.097,0.396-0.193,0.593-0.285C59.775,37.957,60,37.604,60,37.215
		C60,36.825,59.774,36.473,59.422,36.309z"/>
	<path fill="#010101" d="M51.931,47.653c-0.027-0.289-0.063-0.582-0.108-0.876c-0.017-0.113-0.034-0.226-0.054-0.343
		c-0.057-0.324-0.125-0.649-0.205-0.975c-0.018-0.073-0.034-0.144-0.053-0.218c-0.1-0.381-0.216-0.762-0.35-1.138
		c-0.009-0.025-0.017-0.05-0.026-0.074c-0.144-0.397-0.309-0.789-0.495-1.17c-0.008-0.017-0.016-0.033-0.024-0.05
		c-0.186-0.378-0.394-0.746-0.624-1.101c-0.019-0.029-0.04-0.058-0.059-0.087c-0.231-0.35-0.482-0.688-0.759-1.005
		c-0.013-0.015-0.028-0.029-0.042-0.045c-0.286-0.324-0.594-0.631-0.931-0.913c0.064-0.19,0.111-0.38,0.161-0.57
		c0.004,0,0.007,0.001,0.011,0.001l0-0.002c0.527-2.016,0.233-3.955-0.85-5.606c-1.454-2.218-4.157-3.548-7.231-3.559l-0.641-0.002
		l-0.266-0.584c-1.973-4.338-4.919-7.315-8.382-8.606c0,0,0,0.005,0,0.007c-0.951-0.358-1.938-0.591-2.955-0.685
		c-0.021-0.002-0.041-0.006-0.062-0.008C27.661,20.015,27.332,20,27,20c-6.794,0-12.674,4.213-14.474,10.187
		c-0.009,0.029-0.017,0.058-0.025,0.086c-0.093,0.316-0.168,0.639-0.238,0.964c-0.06,0.288-0.124,0.575-0.167,0.87
		c-0.319,0.051-0.632,0.124-0.945,0.197c-0.202,0.048-0.402,0.101-0.601,0.158c-0.193,0.055-0.384,0.114-0.575,0.178
		c-0.203,0.068-0.404,0.14-0.603,0.217c-0.183,0.071-0.365,0.146-0.544,0.225c-0.197,0.086-0.392,0.176-0.585,0.271
		c-0.175,0.086-0.349,0.177-0.52,0.27c-0.189,0.103-0.376,0.208-0.56,0.319c-0.167,0.101-0.331,0.206-0.494,0.312
		c-0.181,0.119-0.361,0.241-0.537,0.368c-0.154,0.111-0.304,0.227-0.453,0.343c-0.176,0.138-0.352,0.277-0.522,0.422
		c-0.137,0.117-0.269,0.238-0.402,0.36c-0.172,0.158-0.344,0.317-0.509,0.483c-0.117,0.118-0.23,0.24-0.344,0.362
		c-0.168,0.181-0.336,0.362-0.495,0.551c-0.097,0.115-0.189,0.234-0.283,0.351c-0.163,0.204-0.325,0.41-0.477,0.623
		c-0.079,0.11-0.151,0.224-0.227,0.335c-0.153,0.226-0.305,0.454-0.445,0.688c-0.064,0.107-0.122,0.218-0.184,0.327
		c-0.138,0.244-0.275,0.489-0.398,0.74c-0.053,0.108-0.099,0.219-0.149,0.328c-0.118,0.256-0.235,0.513-0.337,0.775
		c-0.046,0.118-0.083,0.239-0.126,0.358c-0.092,0.257-0.185,0.514-0.261,0.775c-0.042,0.145-0.073,0.292-0.11,0.438
		c-0.062,0.24-0.126,0.48-0.174,0.723c-0.039,0.202-0.062,0.407-0.092,0.611c-0.028,0.192-0.064,0.382-0.084,0.575
		C0.022,45.191,0,45.595,0,46c0,7.458,6.542,14,14,14h26.914C47.027,60,52,55.065,52,49c0-0.351-0.017-0.715-0.045-1.085
		C51.949,47.832,51.939,47.741,51.931,47.653z"/>
</g>
</svg>
