<?xml version="1.0" encoding="utf-8"?>
<!-- Generator: Adobe Illustrator 17.0.0, SVG Export Plug-In . SVG Version: 6.00 Build 0)  -->
<!DOCTYPE svg PUBLIC "-//W3C//DTD SVG 1.1//EN" "http://www.w3.org/Graphics/SVG/1.1/DTD/svg11.dtd">
<svg version="1.1" id="Layer_2" xmlns="http://www.w3.org/2000/svg" xmlns:xlink="http://www.w3.org/1999/xlink" x="0px" y="0px"
	 width="60px" height="60px" viewBox="0 0 60 60" enable-background="new 0 0 60 60" xml:space="preserve">
<g>
	<path fill="#010101" d="M53.202,19.657c0.74-2.2,0.507-4.37-0.679-6.178c-1.558-2.375-4.535-3.728-7.88-3.541
		C42.481,5.025,37.448,0,31,0c-8.923,0-14.925,6.022-15.896,12.106C8.464,13.158,3,19.34,3,26c0,7.458,6.542,14,14,14h28.914
		C52.027,40,57,35.065,57,29C57,25.938,55.987,21.988,53.202,19.657z"/>
	<path fill="#010101" d="M18.207,45.293l-13,13c-0.391,0.391-0.391,1.023,0,1.414C5.402,59.902,5.658,60,5.914,60
		c0.256,0,0.512-0.098,0.707-0.293l13-13c0.391-0.391,0.391-1.023,0-1.414C19.23,44.902,18.598,44.902,18.207,45.293z"/>
	<path fill="#010101" d="M29.914,50h-3.586l2.293-2.293c0.391-0.391,0.391-1.023,0-1.414c-0.391-0.391-1.023-0.391-1.414,0l-4,4
		c-0.286,0.286-0.372,0.716-0.217,1.09C23.145,51.757,23.51,52,23.914,52H27.5l-6.293,6.293c-0.391,0.391-0.391,1.023,0,1.414
		C21.402,59.902,21.658,60,21.914,60c0.256,0,0.512-0.098,0.707-0.293l8-8c0.286-0.286,0.372-0.716,0.217-1.09
		C30.684,50.243,30.318,50,29.914,50z"/>
	<path fill="#010101" d="M43.207,46.293l-12,12c-0.391,0.391-0.391,1.023,0,1.414C31.402,59.902,31.658,60,31.914,60
		c0.256,0,0.512-0.098,0.707-0.293l12-12c0.391-0.391,0.391-1.023,0-1.414C44.23,45.902,43.598,45.902,43.207,46.293z"/>
</g>
</svg>
