<?xml version="1.0" encoding="utf-8"?>
<!-- Generator: Adobe Illustrator 17.0.0, SVG Export Plug-In . SVG Version: 6.00 Build 0)  -->
<!DOCTYPE svg PUBLIC "-//W3C//DTD SVG 1.1//EN" "http://www.w3.org/Graphics/SVG/1.1/DTD/svg11.dtd">
<svg version="1.1" id="Layer_2" xmlns="http://www.w3.org/2000/svg" xmlns:xlink="http://www.w3.org/1999/xlink" x="0px" y="0px"
	 width="60px" height="60px" viewBox="0 0 60 60" enable-background="new 0 0 60 60" xml:space="preserve">
<g>
	<path fill="#010101" d="M53.202,19.657c0.74-2.2,0.507-4.37-0.679-6.178c-1.557-2.375-4.538-3.728-7.88-3.541
		C42.481,5.025,37.448,0,31,0c-8.923,0-14.925,6.022-15.896,12.106C8.464,13.158,3,19.34,3,26c0,7.458,6.542,14,14,14h28.914
		C52.027,40,57,35.065,57,29C57,25.938,55.987,21.988,53.202,19.657z"/>
	<path fill="#010101" d="M17.621,46.293c-0.391-0.391-1.023-0.391-1.414,0l-12,12c-0.391,0.391-0.391,1.023,0,1.414
		C4.402,59.902,4.658,60,4.914,60c0.256,0,0.512-0.098,0.707-0.293l12-12C18.012,47.316,18.012,46.684,17.621,46.293z"/>
	<path fill="#010101" d="M29.621,46.293c-0.391-0.391-1.023-0.391-1.414,0l-12,12c-0.391,0.391-0.391,1.023,0,1.414
		C16.402,59.902,16.658,60,16.914,60c0.256,0,0.512-0.098,0.707-0.293l12-12C30.012,47.316,30.012,46.684,29.621,46.293z"/>
	<path fill="#010101" d="M41.207,46.293l-12,12c-0.391,0.391-0.391,1.023,0,1.414C29.402,59.902,29.658,60,29.914,60
		c0.256,0,0.512-0.098,0.707-0.293l12-12c0.391-0.391,0.391-1.023,0-1.414C42.23,45.902,41.598,45.902,41.207,46.293z"/>
</g>
</svg>
