<?xml version="1.0" encoding="utf-8"?>
<!-- Generator: Adobe Illustrator 17.0.0, SVG Export Plug-In . SVG Version: 6.00 Build 0)  -->
<!DOCTYPE svg PUBLIC "-//W3C//DTD SVG 1.1//EN" "http://www.w3.org/Graphics/SVG/1.1/DTD/svg11.dtd">
<svg version="1.1" id="Layer_2" xmlns="http://www.w3.org/2000/svg" xmlns:xlink="http://www.w3.org/1999/xlink" x="0px" y="0px"
	 width="60px" height="60px" viewBox="0 0 60 60" enable-background="new 0 0 60 60" xml:space="preserve">
<g>
	<path fill="#010101" d="M30,10c-11.028,0-20,8.972-20,20s8.972,20,20,20c11.028,0,20-8.972,20-20S41.028,10,30,10z"/>
	<path fill="#010101" d="M58,29h-4c-0.553,0-1,0.447-1,1s0.447,1,1,1h4c0.553,0,1-0.447,1-1S58.553,29,58,29z"/>
	<path fill="#010101" d="M30,7c0.553,0,1-0.447,1-1V2c0-0.553-0.447-1-1-1c-0.553,0-1,0.447-1,1v4C29,6.553,29.447,7,30,7z"/>
	<path fill="#010101" d="M6,29H2c-0.553,0-1,0.447-1,1s0.447,1,1,1h4c0.553,0,1-0.447,1-1S6.553,29,6,29z"/>
	<path fill="#010101" d="M30,53c-0.553,0-1,0.447-1,1v4c0,0.553,0.447,1,1,1c0.553,0,1-0.447,1-1v-4C31,53.447,30.553,53,30,53z"/>
	<path fill="#010101" d="M49.092,9.494l-2.828,2.828c-0.391,0.391-0.391,1.023,0,1.414c0.195,0.195,0.451,0.293,0.707,0.293
		c0.256,0,0.512-0.098,0.707-0.293l2.828-2.828c0.391-0.391,0.391-1.023,0-1.414C50.115,9.104,49.482,9.104,49.092,9.494z"/>
	<path fill="#010101" d="M12.322,13.736c0.195,0.195,0.451,0.293,0.707,0.293c0.256,0,0.512-0.098,0.707-0.293
		c0.391-0.391,0.391-1.023,0-1.414l-2.828-2.828c-0.391-0.391-1.023-0.391-1.414,0c-0.391,0.391-0.391,1.024,0,1.414L12.322,13.736z
		"/>
	<path fill="#010101" d="M12.322,46.264l-2.828,2.828c-0.391,0.391-0.391,1.023,0,1.414c0.195,0.195,0.451,0.293,0.707,0.293
		c0.256,0,0.512-0.098,0.707-0.293l2.828-2.828c0.391-0.391,0.391-1.023,0-1.414C13.346,45.873,12.713,45.873,12.322,46.264z"/>
	<path fill="#010101" d="M47.678,46.264c-0.391-0.391-1.023-0.391-1.414,0c-0.391,0.391-0.391,1.023,0,1.414l2.828,2.828
		c0.195,0.195,0.451,0.293,0.707,0.293c0.256,0,0.512-0.098,0.707-0.293c0.391-0.391,0.391-1.024,0-1.414L47.678,46.264z"/>
</g>
</svg>
