<?xml version="1.0" encoding="utf-8"?>
<!-- Generator: Adobe Illustrator 17.0.0, SVG Export Plug-In . SVG Version: 6.00 Build 0)  -->
<!DOCTYPE svg PUBLIC "-//W3C//DTD SVG 1.1//EN" "http://www.w3.org/Graphics/SVG/1.1/DTD/svg11.dtd">
<svg version="1.1" id="Layer_2" xmlns="http://www.w3.org/2000/svg" xmlns:xlink="http://www.w3.org/1999/xlink" x="0px" y="0px"
	 width="60px" height="60px" viewBox="0 0 60 60" enable-background="new 0 0 60 60" xml:space="preserve">
<path fill="#010101" d="M37,40.528V7c0-3.859-3.141-7-7-7c-3.859,0-7,3.141-7,7v33.528c-2.549,2.101-4,5.16-4,8.472
	c0,6.065,4.935,11,11,11c6.065,0,11-4.935,11-11C41,45.689,39.549,42.629,37,40.528z M30,53c-2.206,0-4-1.794-4-4
	c0-1.859,1.279-3.411,3-3.858V18c0-0.553,0.447-1,1-1c0.553,0,1,0.447,1,1v27.142c1.72,0.447,3,1.999,3,3.858
	C34,51.206,32.206,53,30,53z"/>
</svg>
