<?xml version="1.0" encoding="utf-8"?>
<!-- Generator: Adobe Illustrator 17.0.0, SVG Export Plug-In . SVG Version: 6.00 Build 0)  -->
<!DOCTYPE svg PUBLIC "-//W3C//DTD SVG 1.1//EN" "http://www.w3.org/Graphics/SVG/1.1/DTD/svg11.dtd">
<svg version="1.1" id="Layer_2" xmlns="http://www.w3.org/2000/svg" xmlns:xlink="http://www.w3.org/1999/xlink" x="0px" y="0px"
	 width="60px" height="60px" viewBox="0 0 60 60" enable-background="new 0 0 60 60" xml:space="preserve">
<path fill="#010101" d="M46.435,57.902C36.77,53.222,31,42.79,31,30c0-12.793,5.77-23.223,15.435-27.9
	c0.4-0.194,0.624-0.628,0.551-1.066c-0.074-0.438-0.429-0.775-0.87-0.827C44.952,0.069,44.15,0,43,0C26.458,0,13,13.458,13,30
	s13.458,30,30,30c1.228,0,2.065-0.084,3.113-0.204c0.442-0.05,0.798-0.387,0.872-0.825C47.06,58.532,46.837,58.097,46.435,57.902z"
	/>
</svg>
