<?xml version="1.0" encoding="utf-8"?>
<!-- Generator: Adobe Illustrator 17.0.0, SVG Export Plug-In . SVG Version: 6.00 Build 0)  -->
<!DOCTYPE svg PUBLIC "-//W3C//DTD SVG 1.1//EN" "http://www.w3.org/Graphics/SVG/1.1/DTD/svg11.dtd">
<svg version="1.1" id="Layer_2" xmlns="http://www.w3.org/2000/svg" xmlns:xlink="http://www.w3.org/1999/xlink" x="0px" y="0px"
	 width="60px" height="60px" viewBox="0 0 60 60" enable-background="new 0 0 60 60" xml:space="preserve">
<path fill="#010101" d="M17,0c-1.151,0-1.953,0.069-3.116,0.206c-0.441,0.052-0.796,0.389-0.87,0.827
	c-0.073,0.438,0.15,0.872,0.551,1.066C23.23,6.777,29,17.207,29,30c0,12.79-5.77,23.222-15.435,27.902
	c-0.401,0.194-0.625,0.63-0.55,1.068c0.074,0.438,0.43,0.775,0.872,0.825C14.935,59.916,15.771,60,17,60c16.542,0,30-13.458,30-30
	S33.542,0,17,0z"/>
</svg>
