<?xml version="1.0" encoding="utf-8"?>
<!-- Generator: Adobe Illustrator 17.0.0, SVG Export Plug-In . SVG Version: 6.00 Build 0)  -->
<!DOCTYPE svg PUBLIC "-//W3C//DTD SVG 1.1//EN" "http://www.w3.org/Graphics/SVG/1.1/DTD/svg11.dtd">
<svg version="1.1" xmlns="http://www.w3.org/2000/svg" xmlns:xlink="http://www.w3.org/1999/xlink" x="0px" y="0px" width="48px"
	 height="48px" viewBox="0 0 48 48" enable-background="new 0 0 48 48" xml:space="preserve">
<g id="Layer_3">
	<g>
		<path fill="#010101" d="M41,18h-8v3c0,1.103-0.897,2-2,2s-2-0.897-2-2v-3H15v3c0,1.103-0.897,2-2,2s-2-0.897-2-2v-3H3
			c-0.552,0-1,0.447-1,1v28c0,0.553,0.448,1,1,1h38c0.552,0,1-0.447,1-1V19C42,18.447,41.552,18,41,18z M28,38H16V28h12V38z"/>
		<path fill="#010101" d="M47.021,7.222l-4.242-4.243c-0.188-0.188-0.442-0.293-0.707-0.293c-0.265,0-0.52,0.105-0.707,0.293
			l-7.072,7.072C34.105,10.238,34,10.492,34,10.758V15c0,0.553,0.448,1,1,1h4.244c0.265,0,0.52-0.105,0.707-0.293l7.071-7.071
			C47.412,8.245,47.412,7.612,47.021,7.222z"/>
		<path fill="#010101" d="M13,22c0.551,0,1-0.448,1-1V10c0-0.827,0.126-1.625,0.36-2.376c0.234-0.751,0.576-1.455,1.008-2.093
			c0.288-0.426,0.616-0.822,0.978-1.184c0.362-0.362,0.759-0.69,1.184-0.978C18.807,2.505,20.346,2,22,2
			c0.827,0,1.625,0.126,2.376,0.36c2.503,0.78,4.483,2.76,5.263,5.263C29.874,8.375,30,9.173,30,10v11c0,0.552,0.449,1,1,1
			c0.551,0,1-0.448,1-1V10c0-5.514-4.486-10-10-10c-0.689,0-1.363,0.07-2.013,0.204c-0.65,0.133-1.278,0.33-1.876,0.584
			c-0.598,0.253-1.166,0.563-1.698,0.923c-0.532,0.36-1.028,0.769-1.481,1.222C13.121,4.743,12,7.243,12,10v11
			C12,21.552,12.449,22,13,22z"/>
	</g>
</g>
<g id="nyt_x5F_exporter_x5F_info" display="none">
</g>
</svg>
