<?xml version="1.0" encoding="utf-8"?>
<!-- Generator: Adobe Illustrator 17.0.0, SVG Export Plug-In . SVG Version: 6.00 Build 0)  -->
<!DOCTYPE svg PUBLIC "-//W3C//DTD SVG 1.1//EN" "http://www.w3.org/Graphics/SVG/1.1/DTD/svg11.dtd">
<svg version="1.1" xmlns="http://www.w3.org/2000/svg" xmlns:xlink="http://www.w3.org/1999/xlink" x="0px" y="0px" width="48px"
	 height="48px" viewBox="0 0 48 48" enable-background="new 0 0 48 48" xml:space="preserve">
<g id="Layer_3">
	<g>
		<path fill="#010101" d="M41,16H3c-0.552,0-1,0.447-1,1v30c0,0.553,0.448,1,1,1h38c0.552,0,1-0.447,1-1V17
			C42,16.447,41.552,16,41,16z"/>
		<path fill="#010101" d="M13,14c0.552,0,1-0.447,1-1v-3c0-4.411,3.589-8,8-8c4.411,0,8,3.589,8,8v3c0,0.553,0.448,1,1,1
			c0.552,0,1-0.447,1-1v-3c0-5.514-4.486-10-10-10c-5.514,0-10,4.486-10,10v3C12,13.553,12.448,14,13,14z"/>
		<path fill="#010101" d="M47.021,6.222l-4.242-4.243c-0.188-0.188-0.442-0.293-0.707-0.293c-0.265,0-0.52,0.105-0.707,0.293
			l-7.072,7.072C34.105,9.238,34,9.492,34,9.758V14c0,0.553,0.448,1,1,1h4.244c0.265,0,0.52-0.105,0.707-0.293l7.07-7.071
			C47.412,7.245,47.412,6.612,47.021,6.222z"/>
	</g>
</g>
<g id="nyt_x5F_exporter_x5F_info" display="none">
</g>
</svg>
