<?xml version="1.0" encoding="utf-8"?>
<!-- Generator: Adobe Illustrator 17.0.0, SVG Export Plug-In . SVG Version: 6.00 Build 0)  -->
<!DOCTYPE svg PUBLIC "-//W3C//DTD SVG 1.1//EN" "http://www.w3.org/Graphics/SVG/1.1/DTD/svg11.dtd">
<svg version="1.1" id="Layer_1" xmlns="http://www.w3.org/2000/svg" xmlns:xlink="http://www.w3.org/1999/xlink" x="0px" y="0px"
	 width="48px" height="48px" viewBox="0 0 48 48" enable-background="new 0 0 48 48" xml:space="preserve">
<g>
	<path fill="#010101" d="M48,20H2c-0.552,0-1,0.447-1,1v4c0,0.553,0.448,1,1,1h1.165l3.851,21.179C7.102,47.654,7.517,48,8,48h34
		c0.483,0,0.897-0.346,0.984-0.821L46.834,26H48c0.552,0,1-0.447,1-1v-4C49,20.447,48.552,20,48,20z M47,24h-1H4H3v-2h44V24z"/>
	<path fill="#010101" d="M8,18c0.256,0,0.512-0.098,0.707-0.293l12-12c0.391-0.391,0.391-1.023,0-1.414
		c-0.391-0.391-1.023-0.391-1.414,0l-12,12c-0.391,0.391-0.391,1.023,0,1.414C7.488,17.902,7.744,18,8,18z"/>
	<path fill="#010101" d="M41.293,17.707C41.488,17.902,41.744,18,42,18c0.256,0,0.512-0.098,0.707-0.293
		c0.391-0.391,0.391-1.023,0-1.414l-12-12c-0.391-0.391-1.023-0.391-1.414,0c-0.391,0.391-0.391,1.023,0,1.414L41.293,17.707z"/>
</g>
</svg>
