<?xml version="1.0" encoding="utf-8"?>
<!-- Generator: Adobe Illustrator 17.0.0, SVG Export Plug-In . SVG Version: 6.00 Build 0)  -->
<!DOCTYPE svg PUBLIC "-//W3C//DTD SVG 1.1//EN" "http://www.w3.org/Graphics/SVG/1.1/DTD/svg11.dtd">
<svg version="1.1" id="Layer_1" xmlns="http://www.w3.org/2000/svg" xmlns:xlink="http://www.w3.org/1999/xlink" x="0px" y="0px"
	 width="48px" height="48px" viewBox="0 0 48 48" enable-background="new 0 0 48 48" xml:space="preserve">
<g>
	<path fill="#010101" d="M37,24c0.64,0,1.264,0.062,1.879,0.152L39.802,20H41c0.552,0,1-0.447,1-1v-4c0-0.553-0.448-1-1-1H1
		c-0.552,0-1,0.447-1,1v4c0,0.553,0.448,1,1,1h1.198l3.826,17.217C6.125,37.675,6.531,38,7,38h17.051C24.025,37.669,24,37.338,24,37
		C24,29.832,29.831,24,37,24z M3,18H2v-2h38v2h-1H3z"/>
	<path fill="#010101" d="M7,12c0.226,0,0.453-0.076,0.64-0.231l12-10c0.424-0.354,0.482-0.984,0.128-1.409
		c-0.354-0.425-0.984-0.48-1.408-0.128l-12,10c-0.424,0.354-0.482,0.984-0.128,1.409C6.43,11.878,6.714,12,7,12z"/>
	<path fill="#010101" d="M34.36,11.769C34.547,11.924,34.774,12,34.999,12c0.287,0,0.571-0.122,0.769-0.359
		c0.354-0.425,0.296-1.056-0.128-1.409l-12-10c-0.425-0.352-1.055-0.296-1.408,0.128c-0.354,0.425-0.296,1.056,0.128,1.409
		L34.36,11.769z"/>
	<path fill="#010101" d="M37,26c-6.065,0-11,4.935-11,11s4.935,11,11,11c6.065,0,11-4.935,11-11S43.065,26,37,26z M42,38h-7h-3
		c-0.552,0-1-0.447-1-1s0.448-1,1-1h2.198H42c0.552,0,1,0.447,1,1S42.552,38,42,38z"/>
</g>
</svg>
