<?xml version="1.0" encoding="utf-8"?>
<!-- Generator: Adobe Illustrator 17.0.0, SVG Export Plug-In . SVG Version: 6.00 Build 0)  -->
<!DOCTYPE svg PUBLIC "-//W3C//DTD SVG 1.1//EN" "http://www.w3.org/Graphics/SVG/1.1/DTD/svg11.dtd">
<svg version="1.1" id="Layer_1" xmlns="http://www.w3.org/2000/svg" xmlns:xlink="http://www.w3.org/1999/xlink" x="0px" y="0px"
	 width="48px" height="48px" viewBox="0 0 48 48" enable-background="new 0 0 48 48" xml:space="preserve">
<path fill="#010101" d="M47,20h-1.198l-1.656-7.455c-1.32-5.937-6.323-10.151-12.319-10.51C31.422,0.856,30.315,0,29,0H19
	c-1.315,0-2.422,0.856-2.827,2.035c-5.996,0.358-11,4.572-12.32,10.51L2.198,20H1c-0.552,0-1,0.447-1,1v4c0,0.553,0.448,1,1,1h1.165
	l3.851,21.179C6.102,47.654,6.517,48,7,48h34c0.483,0,0.897-0.346,0.984-0.821L45.834,26H47c0.552,0,1-0.447,1-1v-4
	C48,20.447,47.552,20,47,20z M5.806,12.979c1.116-5.022,5.328-8.598,10.389-8.944C16.618,5.178,17.711,6,19,6h10
	c1.289,0,2.382-0.822,2.805-1.966c5.061,0.346,9.272,3.923,10.389,8.944L43.753,20H4.247L5.806,12.979z M12,41c0,0.553-0.448,1-1,1
	c-0.552,0-1-0.447-1-1V29c0-0.553,0.448-1,1-1c0.552,0,1,0.447,1,1V41z M20,41c0,0.553-0.448,1-1,1c-0.552,0-1-0.447-1-1V29
	c0-0.553,0.448-1,1-1c0.552,0,1,0.447,1,1V41z M30,41c0,0.553-0.448,1-1,1c-0.552,0-1-0.447-1-1V29c0-0.553,0.448-1,1-1
	c0.552,0,1,0.447,1,1V41z M38,41c0,0.553-0.448,1-1,1c-0.552,0-1-0.447-1-1V29c0-0.553,0.448-1,1-1c0.552,0,1,0.447,1,1V41z M46,24
	h-1H3H2v-2h1h42h1V24z"/>
</svg>
