<?xml version="1.0" encoding="utf-8"?>
<!-- Generator: Adobe Illustrator 17.0.0, SVG Export Plug-In . SVG Version: 6.00 Build 0)  -->
<!DOCTYPE svg PUBLIC "-//W3C//DTD SVG 1.1//EN" "http://www.w3.org/Graphics/SVG/1.1/DTD/svg11.dtd">
<svg version="1.1" xmlns="http://www.w3.org/2000/svg" xmlns:xlink="http://www.w3.org/1999/xlink" x="0px" y="0px" width="48px"
	 height="48px" viewBox="0 0 48 48" enable-background="new 0 0 48 48" xml:space="preserve">
<g id="Layer_3">
	<g>
		<path fill="#010101" d="M43,11h-9v-1c0-3.859-3.14-7-7-7h-6c-3.86,0-7,3.141-7,7v1H5c-2.757,0-5,2.243-5,5v14c0,0.553,0.448,1,1,1
			h17v-3c0-0.553,0.448-1,1-1h10c0.552,0,1,0.447,1,1v3h17c0.552,0,1-0.447,1-1V16C48,13.243,45.757,11,43,11z M32,11H16v-1
			c0-2.757,2.243-5,5-5h6c2.757,0,5,2.243,5,5V11z"/>
		<path fill="#010101" d="M45,33H30v1c0,0.553-0.448,1-1,1H19c-0.552,0-1-0.447-1-1v-1H3c-0.552,0-1,0.447-1,1v10
			c0,0.553,0.448,1,1,1h42c0.552,0,1-0.447,1-1V34C46,33.447,45.552,33,45,33z"/>
		<rect x="20" y="29" fill="#010101" width="8" height="4"/>
	</g>
</g>
<g id="nyt_x5F_exporter_x5F_info" display="none">
</g>
</svg>
