<?xml version="1.0" encoding="utf-8"?>
<!-- Generator: Adobe Illustrator 17.0.0, SVG Export Plug-In . SVG Version: 6.00 Build 0)  -->
<!DOCTYPE svg PUBLIC "-//W3C//DTD SVG 1.1//EN" "http://www.w3.org/Graphics/SVG/1.1/DTD/svg11.dtd">
<svg version="1.1" xmlns="http://www.w3.org/2000/svg" xmlns:xlink="http://www.w3.org/1999/xlink" x="0px" y="0px" width="48px"
	 height="48px" viewBox="0 0 48 48" enable-background="new 0 0 48 48" xml:space="preserve">
<g id="Layer_3">
	<g>
		<path fill="#010101" d="M12,40c-2.206,0-4,1.794-4,4c0,2.206,1.794,4,4,4c2.206,0,4-1.794,4-4C16,41.794,14.206,40,12,40z"/>
		<path fill="#010101" d="M34,40c-2.206,0-4,1.794-4,4c0,2.206,1.794,4,4,4c2.206,0,4-1.794,4-4C38,41.794,36.206,40,34,40z"/>
		<path fill="#010101" d="M47,8h-5.117c-1.005,0-1.859,0.753-1.985,1.753l-0.671,5.371C39.164,15.623,38.737,16,38.234,16H4
			c-1.266,0-2.471,0.609-3.224,1.631c-0.751,1.023-0.972,2.354-0.594,3.56l3.125,10C3.831,32.871,5.365,34,7.125,34H36
			c0.551,0,1,0.448,1,1c0,0.552-0.449,1-1,1H8c-0.552,0-1,0.447-1,1c0,0.553,0.448,1,1,1h28c1.61,0,2.917-1.277,2.987-2.869
			c0.001-0.007,0.005-0.012,0.006-0.019h0.001l0.001-0.006c0,0,0-0.001,0-0.001l0.003-0.03l2.214-19.706L41.883,10H47
			c0.552,0,1-0.447,1-1C48,8.447,47.552,8,47,8z"/>
	</g>
</g>
<g id="nyt_x5F_exporter_x5F_info" display="none">
</g>
</svg>
