<?xml version="1.0" encoding="utf-8"?>
<!-- Generator: Adobe Illustrator 17.0.0, SVG Export Plug-In . SVG Version: 6.00 Build 0)  -->
<!DOCTYPE svg PUBLIC "-//W3C//DTD SVG 1.1//EN" "http://www.w3.org/Graphics/SVG/1.1/DTD/svg11.dtd">
<svg version="1.1" xmlns="http://www.w3.org/2000/svg" xmlns:xlink="http://www.w3.org/1999/xlink" x="0px" y="0px" width="48px"
	 height="48px" viewBox="0 0 48 48" enable-background="new 0 0 48 48" xml:space="preserve">
<g id="Layer_3">
	<g>
		<path fill="#010101" d="M47,8h-5.133c-0.99,0-1.841,0.738-1.979,1.717L38.99,16H3c-1.654,0-3,1.346-3,3c0,1.654,1.346,3,3,3h29
			c0.551,0,1,0.448,1,1c0,0.552-0.449,1-1,1H5c-1.654,0-3,1.346-3,3c0,1.654,1.346,3,3,3h26c0.551,0,1,0.448,1,1
			c0,0.552-0.449,1-1,1H7c-1.654,0-3,1.346-3,3c0,1.654,1.346,3,3,3h29.133c0.989,0,1.841-0.738,1.98-1.717l2.756-19.297L41.867,10
			H47c0.552,0,1-0.447,1-1C48,8.447,47.552,8,47,8z"/>
		<path fill="#010101" d="M12,40c-2.206,0-4,1.794-4,4c0,2.206,1.794,4,4,4c2.206,0,4-1.794,4-4C16,41.794,14.206,40,12,40z"/>
		<path fill="#010101" d="M34,40c-2.206,0-4,1.794-4,4c0,2.206,1.794,4,4,4s4-1.794,4-4C38,41.794,36.206,40,34,40z"/>
	</g>
</g>
<g id="nyt_x5F_exporter_x5F_info" display="none">
</g>
</svg>
