<?xml version="1.0" encoding="utf-8"?>
<!-- Generator: Adobe Illustrator 17.0.0, SVG Export Plug-In . SVG Version: 6.00 Build 0)  -->
<!DOCTYPE svg PUBLIC "-//W3C//DTD SVG 1.1//EN" "http://www.w3.org/Graphics/SVG/1.1/DTD/svg11.dtd">
<svg version="1.1" xmlns="http://www.w3.org/2000/svg" xmlns:xlink="http://www.w3.org/1999/xlink" x="0px" y="0px" width="48px"
	 height="48px" viewBox="0 0 48 48" enable-background="new 0 0 48 48" xml:space="preserve">
<g id="Layer_3">
	<g>
		<path fill="#010101" d="M15.707,7.707L20,3.414V15c0,0.553,0.448,1,1,1c0.552,0,1-0.447,1-1V3.414l4.293,4.293
			C26.488,7.902,26.744,8,27,8c0.256,0,0.512-0.098,0.707-0.293c0.391-0.391,0.391-1.023,0-1.414l-5.999-5.999
			c-0.092-0.093-0.203-0.166-0.326-0.217c-0.244-0.101-0.52-0.101-0.764,0c-0.123,0.051-0.234,0.124-0.326,0.217l-5.999,5.999
			c-0.391,0.391-0.391,1.023,0,1.414C14.684,8.098,15.316,8.098,15.707,7.707z"/>
		<path fill="#010101" d="M47,6h-7c-0.464,0-0.867,0.319-0.974,0.771L36.384,18H1c-0.321,0-0.623,0.154-0.811,0.415
			c-0.188,0.261-0.239,0.597-0.138,0.901l6,18C6.187,37.725,6.569,38,7,38h24.679l-0.471,2H10c-2.206,0-4,1.794-4,4
			c0,2.206,1.794,4,4,4c2.206,0,4-1.794,4-4c0-0.732-0.212-1.409-0.556-2h15.113C28.212,42.591,28,43.268,28,44c0,2.206,1.794,4,4,4
			c2.206,0,4-1.794,4-4c0-1.78-1.176-3.274-2.786-3.791L40.792,8H47c0.552,0,1-0.447,1-1C48,6.447,47.552,6,47,6z"/>
	</g>
</g>
<g id="nyt_x5F_exporter_x5F_info" display="none">
</g>
</svg>
