<?xml version="1.0" encoding="utf-8"?>
<!-- Generator: Adobe Illustrator 17.0.0, SVG Export Plug-In . SVG Version: 6.00 Build 0)  -->
<!DOCTYPE svg PUBLIC "-//W3C//DTD SVG 1.1//EN" "http://www.w3.org/Graphics/SVG/1.1/DTD/svg11.dtd">
<svg version="1.1" xmlns="http://www.w3.org/2000/svg" xmlns:xlink="http://www.w3.org/1999/xlink" x="0px" y="0px" width="48px"
	 height="48px" viewBox="0 0 48 48" enable-background="new 0 0 48 48" xml:space="preserve">
<g id="Layer_3">
	<g>
		<path fill="#010101" d="M22,34h-1c-0.552,0-1,0.447-1,1c0,0.553,0.448,1,1,1h1c0.552,0,1-0.447,1-1C23,34.447,22.552,34,22,34z"/>
		<path fill="#010101" d="M35.091,34h-2.182c-0.552,0-1,0.447-1,1c0,0.553,0.448,1,1,1h2.182c0.552,0,1-0.447,1-1
			C36.091,34.447,35.643,34,35.091,34z"/>
		<path fill="#010101" d="M41.637,34h-2.182c-0.552,0-1,0.447-1,1c0,0.553,0.448,1,1,1h2.182c0.552,0,1-0.447,1-1
			C42.637,34.447,42.189,34,41.637,34z"/>
		<path fill="#010101" d="M28.545,34h-2.182c-0.552,0-1,0.447-1,1c0,0.553,0.448,1,1,1h2.182c0.552,0,1-0.447,1-1
			C29.545,34.447,29.098,34,28.545,34z"/>
		<path fill="#010101" d="M47,34h-1c-0.552,0-1,0.447-1,1c0,0.553,0.448,1,1,1h1c0.552,0,1-0.447,1-1C48,34.447,47.552,34,47,34z"/>
		<path fill="#010101" d="M21.838,32c0.252,0,0.505-0.095,0.699-0.285c0.395-0.386,0.402-1.02,0.016-1.414
			c-1.276-1.305-2.433-2.752-3.457-4.293l15.548,5.927C34.761,31.98,34.881,32,35,32c0.403,0,0.782-0.245,0.935-0.644
			c0.197-0.517-0.062-1.094-0.579-1.291l-15.862-6.046l27.87-10.911c0.374-0.147,0.624-0.502,0.635-0.903
			c0.012-0.4-0.218-0.77-0.582-0.938C44.14,9.763,40.635,9,37,9c-7.675,0-15.287,4.888-20.212,12.894C15.004,18.072,14,13.937,14,10
			c0-3.859-3.14-7-7-7c-3.86,0-7,3.141-7,7c0,3.859,3.14,7,7,7c2.162,0,4.098-0.986,5.383-2.532
			c0.542,3.247,1.651,6.502,3.221,9.533c-1.583,3.051-2.675,6.314-3.211,9.542C11.108,31.991,9.168,31,7,31c-3.86,0-7,3.141-7,7
			c0,3.859,3.14,7,7,7c3.86,0,7-3.141,7-7c0-3.878,0.985-8.036,2.79-11.902c1.243,2.029,2.694,3.926,4.333,5.601
			C21.319,31.899,21.578,32,21.838,32z M7,13c-1.654,0-3-1.346-3-3c0-1.654,1.346-3,3-3c1.654,0,3,1.346,3,3
			C10,11.654,8.654,13,7,13z M7,41c-1.654,0-3-1.346-3-3c0-1.654,1.346-3,3-3c1.654,0,3,1.346,3,3C10,39.654,8.654,41,7,41z"/>
	</g>
</g>
<g id="nyt_x5F_exporter_x5F_info" display="none">
</g>
</svg>
