<?xml version="1.0" encoding="utf-8"?>
<!-- Generator: Adobe Illustrator 17.1.0, SVG Export Plug-In . SVG Version: 6.00 Build 0)  -->
<!DOCTYPE svg PUBLIC "-//W3C//DTD SVG 1.0//EN" "http://www.w3.org/TR/2001/REC-SVG-20010904/DTD/svg10.dtd">
<svg version="1.0" id="Layer_1" xmlns="http://www.w3.org/2000/svg" xmlns:xlink="http://www.w3.org/1999/xlink" x="0px" y="0px"
	 width="48px" height="48px" viewBox="0 0 48 48" enable-background="new 0 0 48 48" xml:space="preserve">
<g>
	<path d="M24,16.5c-13.233,0-24,10.767-24,24v1h48v-1C48,27.267,37.233,16.5,24,16.5z"/>
	<path d="M5.093,23.154C9.852,17.654,16.744,14.5,24,14.5c7.256,0,14.148,3.154,18.907,8.654c0.198,0.229,0.477,0.346,0.757,0.346
		c0.232,0,0.465-0.08,0.654-0.244c0.417-0.361,0.463-0.992,0.102-1.41c-3.625-4.19-8.399-7.111-13.647-8.474
		C31.527,12.644,32,11.628,32,10.5c0-2.206-1.795-4-4-4c-2.206,0-4,1.794-4,4c0,0.738,0.215,1.421,0.565,2.015
		C24.376,12.511,24.189,12.5,24,12.5c-0.189,0-0.376,0.011-0.565,0.015C23.785,11.921,24,11.238,24,10.5c0-2.206-1.795-4-4-4
		c-2.206,0-4,1.794-4,4c0,1.128,0.473,2.144,1.227,2.872c-5.248,1.362-10.021,4.284-13.647,8.474
		c-0.361,0.418-0.315,1.049,0.102,1.41C4.1,23.618,4.732,23.572,5.093,23.154z"/>
</g>
</svg>
