<?xml version="1.0" encoding="utf-8"?>
<!-- Generator: Adobe Illustrator 17.0.0, SVG Export Plug-In . SVG Version: 6.00 Build 0)  -->
<!DOCTYPE svg PUBLIC "-//W3C//DTD SVG 1.1//EN" "http://www.w3.org/Graphics/SVG/1.1/DTD/svg11.dtd">
<svg version="1.1" xmlns="http://www.w3.org/2000/svg" xmlns:xlink="http://www.w3.org/1999/xlink" x="0px" y="0px" width="48px"
	 height="48px" viewBox="0 0 48 48" enable-background="new 0 0 48 48" xml:space="preserve">
<g id="Layer_3">
	<g>
		<path fill="#010101" d="M32.826,15.174H43V5H32.826V15.174z M34.304,7.479c0-0.553,0.448-1,1-1h5.217c0.552,0,1,0.447,1,1v5.217
			c0,0.553-0.448,1-1,1h-5.217c-0.552,0-1-0.447-1-1V7.479z"/>
		<path fill="#010101" d="M0,0v48h48V0H0z M23.13,3h5.217c0.552,0,1,0.447,1,1c0,0.553-0.448,1-1,1H23.13c-0.552,0-1-0.447-1-1
			C22.13,3.447,22.578,3,23.13,3z M27.348,13.435V7.479c0-0.553,0.448-1,1-1c0.552,0,1,0.447,1,1v6.956c0,0.553-0.448,1-1,1H24.87
			c-0.552,0-1-0.447-1-1v-3.478c0-0.553,0.448-1,1-1c0.552,0,1,0.447,1,1v2.478H27.348z M34.435,27.348c0.552,0,1,0.447,1,1
			c0,0.553-0.448,1-1,1h-5.217c-0.552,0-1-0.447-1-1c0-0.553,0.448-1,1-1h1.609v-2.479c0-0.553,0.448-1,1-1c0.552,0,1,0.447,1,1
			v2.479H34.435z M28.348,30.826c0.552,0,1,0.447,1,1c0,0.553-0.448,1-1,1H25v4.218c0,0.553-0.448,1-1,1c-0.552,0-1-0.447-1-1
			v-5.218c0-0.553,0.448-1,1-1H28.348z M27.348,36.174c0-0.553,0.448-1,1-1c0.552,0,1,0.447,1,1v3.348h7.696c0.552,0,1,0.447,1,1
			c0,0.553-0.448,1-1,1h-8.696c-0.552,0-1-0.447-1-1V36.174z M37.043,38.044h-5.217c-0.552,0-1-0.447-1-1v-5.218
			c0-0.553,0.448-1,1-1h5.217c0.552,0,1,0.447,1,1v5.218C38.043,37.597,37.596,38.044,37.043,38.044z M37.913,29.348
			c-0.552,0-1-0.447-1-1v-5.217c0-0.553,0.448-1,1-1c0.552,0,1,0.447,1,1v5.217C38.913,28.9,38.465,29.348,37.913,29.348z
			 M37.913,20.652h-7.696v2.479c0,0.553-0.448,1-1,1c-0.552,0-1-0.447-1-1v-3.479c0-0.553,0.448-1,1-1h8.696c0.552,0,1,0.447,1,1
			C38.913,20.205,38.465,20.652,37.913,20.652z M18.652,4c0-0.553,0.448-1,1-1c0.552,0,1,0.447,1,1v2.479h2.478c0.552,0,1,0.447,1,1
			s-0.448,1-1,1h-3.478c-0.552,0-1-0.447-1-1V4z M18.652,10.956c0-0.553,0.448-1,1-1c0.552,0,1,0.447,1,1v5.218c0,0.553-0.448,1-1,1
			c-0.552,0-1-0.447-1-1V10.956z M19.652,18.652h6.087c0.552,0,1,0.447,1,1c0,0.553-0.448,1-1,1h-6.087c-0.552,0-1-0.447-1-1
			C18.652,19.1,19.1,18.652,19.652,18.652z M26.739,23.131c0,0.553-0.448,1-1,1h-3.479c-0.552,0-1-0.447-1-1c0-0.553,0.448-1,1-1
			h3.479C26.291,22.131,26.739,22.578,26.739,23.131z M18.652,23.131c0-0.553,0.448-1,1-1c0.552,0,1,0.447,1,1v4.217h5.087
			c0.552,0,1,0.447,1,1c0,0.553-0.448,1-1,1h-6.087c-0.552,0-1-0.447-1-1V23.131z M3,23.131c0-0.553,0.448-1,1-1
			c0.552,0,1,0.447,1,1v4.217h2.478c0.552,0,1,0.447,1,1c0,0.553-0.448,1-1,1H4c-0.552,0-1-0.447-1-1V23.131z M6.478,24.869
			c0-0.553,0.448-1,1-1h5.217c0.552,0,1,0.447,1,1c0,0.553-0.448,1-1,1H7.478C6.926,25.869,6.478,25.422,6.478,24.869z M17.174,44
			c0,0.553-0.448,1-1,1H4c-0.552,0-1-0.447-1-1V31.826c0-0.553,0.448-1,1-1h12.174c0.552,0,1,0.447,1,1V44z M16.174,29.348h-3.478
			c-0.552,0-1-0.447-1-1c0-0.553,0.448-1,1-1h3.478c0.552,0,1,0.447,1,1C17.174,28.9,16.726,29.348,16.174,29.348z M17.174,23.131
			c0,0.553-0.448,1-1,1c-0.552,0-1-0.447-1-1v-2.479H4c-0.552,0-1-0.447-1-1c0-0.553,0.448-1,1-1h12.174c0.552,0,1,0.447,1,1V23.131
			z M17.174,16.174c0,0.553-0.448,1-1,1H4c-0.552,0-1-0.447-1-1V4c0-0.553,0.448-1,1-1h12.174c0.552,0,1,0.447,1,1V16.174z
			 M18.652,40.522v-6.956c0-0.553,0.448-1,1-1c0.552,0,1,0.447,1,1v5.956h4.217c0.552,0,1,0.447,1,1c0,0.553-0.448,1-1,1h-5.217
			C19.1,41.522,18.652,41.074,18.652,40.522z M45,37.044c0,0.553-0.448,1-1,1c-0.552,0-1-0.447-1-1v-4.218h-1.479V44
			c0,0.553-0.448,1-1,1H24.87c-0.552,0-1-0.447-1-1c0-0.553,0.448-1,1-1h14.652V31.826c0-0.553,0.448-1,1-1H44c0.552,0,1,0.447,1,1
			V37.044z M44,20.652h-1.609v7.695c0,0.553-0.448,1-1,1c-0.552,0-1-0.447-1-1v-8.695c0-0.553,0.448-1,1-1H44c0.552,0,1,0.447,1,1
			C45,20.205,44.552,20.652,44,20.652z M45,16.174c0,0.553-0.448,1-1,1H31.826c-0.552,0-1-0.447-1-1V4c0-0.553,0.448-1,1-1H44
			c0.552,0,1,0.447,1,1V16.174z"/>
		<rect x="36.304" y="8.479" fill="#010101" width="3.217" height="3.217"/>
		<rect x="32.826" y="32.826" fill="#010101" width="3.217" height="3.218"/>
		<rect x="8.479" y="8.479" fill="#010101" width="3.217" height="3.217"/>
		<path fill="#010101" d="M5,15.174h10.174V5H5V15.174z M6.478,7.479c0-0.553,0.448-1,1-1h5.217c0.552,0,1,0.447,1,1v5.217
			c0,0.553-0.448,1-1,1H7.478c-0.552,0-1-0.447-1-1V7.479z"/>
		<path fill="#010101" d="M5,43h10.174V32.826H5V43z M6.478,35.305c0-0.553,0.448-1,1-1h5.217c0.552,0,1,0.447,1,1v5.217
			c0,0.553-0.448,1-1,1H7.478c-0.552,0-1-0.447-1-1V35.305z"/>
		<rect x="8.479" y="36.305" fill="#010101" width="3.217" height="3.217"/>
	</g>
</g>
<g id="nyt_x5F_exporter_x5F_info" display="none">
</g>
</svg>
