<?xml version="1.0" encoding="utf-8"?>
<!-- Generator: Adobe Illustrator 17.0.0, SVG Export Plug-In . SVG Version: 6.00 Build 0)  -->
<!DOCTYPE svg PUBLIC "-//W3C//DTD SVG 1.1//EN" "http://www.w3.org/Graphics/SVG/1.1/DTD/svg11.dtd">
<svg version="1.1" xmlns="http://www.w3.org/2000/svg" xmlns:xlink="http://www.w3.org/1999/xlink" x="0px" y="0px" width="48px"
	 height="48px" viewBox="0 0 48 48" enable-background="new 0 0 48 48" xml:space="preserve">
<g id="Layer_3">
	<path fill="#010101" d="M48,9c0-2.104-0.293-7-3-7H20.051C17.691,2,17.023,4.606,17,6.013c0.002,0.174,0.188,17.07-1.826,27.987H6
		c-0.87,0-1.583,0.274-2.12,0.815c-1.163,1.171-1.149,3.244-1.133,5.438c0.014,1.963,0.029,4.188-0.921,5.146
		C1.424,45.804,0.827,46,0,46v2h24.951c1.368,0,2.459-0.4,3.244-1.191c0.729-0.734,1.102-1.724,1.297-2.809h7.459
		c0.851,0,1.633-0.353,2.324-1.05C43.428,38.769,44.036,20.952,44,10h4V9z M24,10h4c0.552,0,1,0.447,1,1c0,0.553-0.448,1-1,1h-4
		c-0.552,0-1-0.447-1-1C23,10.447,23.448,10,24,10z M23,18h13c0.552,0,1,0.447,1,1c0,0.553-0.448,1-1,1H23c-0.552,0-1-0.447-1-1
		C22,18.447,22.448,18,23,18z M29.687,42c0.018-0.592,0.015-1.186,0.011-1.761c-0.011-1.609-0.024-3.434,0.553-4.015
		C30.346,36.128,30.523,36,30.951,36c0.316,0,0.735,0.042,0.934,0.244c0.339,0.343,0.329,1.309,0.319,2.243
		c-0.012,1.162-0.016,2.444,0.555,3.513H29.687z M36,32H22c-0.552,0-1-0.447-1-1c0-0.553,0.448-1,1-1h14c0.552,0,1,0.447,1,1
		C37,31.553,36.552,32,36,32z M22,27c0-0.553,0.448-1,1-1h12c0.552,0,1,0.447,1,1c0,0.553-0.448,1-1,1H23C22.448,28,22,27.553,22,27
		z M37,24H23c-0.552,0-1-0.447-1-1c0-0.553,0.448-1,1-1h14c0.552,0,1,0.447,1,1C38,23.553,37.552,24,37,24z M37,16H26
		c-0.552,0-1-0.447-1-1c0-0.553,0.448-1,1-1h11c0.552,0,1,0.447,1,1C38,15.553,37.552,16,37,16z M43.986,8
		c-0.014-1.24-0.034-1.972-0.035-1.981c0.002-0.06,0.1-1.997,1.037-2.015C45.385,4.213,45.849,5.93,45.97,8H43.986z"/>
</g>
<g id="nyt_x5F_exporter_x5F_info" display="none">
</g>
</svg>
