<?xml version="1.0" encoding="utf-8"?>
<!-- Generator: Adobe Illustrator 17.0.0, SVG Export Plug-In . SVG Version: 6.00 Build 0)  -->
<!DOCTYPE svg PUBLIC "-//W3C//DTD SVG 1.1//EN" "http://www.w3.org/Graphics/SVG/1.1/DTD/svg11.dtd">
<svg version="1.1" xmlns="http://www.w3.org/2000/svg" xmlns:xlink="http://www.w3.org/1999/xlink" x="0px" y="0px" width="48px"
	 height="48px" viewBox="0 0 48 48" enable-background="new 0 0 48 48" xml:space="preserve">
<g id="Layer_3">
	<path fill="#010101" d="M40.383,0.076c-0.375-0.157-0.804-0.069-1.09,0.217L36,3.586l-3.293-3.293
		c-0.391-0.391-1.023-0.391-1.414,0L28,3.586l-3.293-3.293c-0.391-0.391-1.023-0.391-1.414,0L20,3.586l-3.293-3.293
		c-0.391-0.391-1.023-0.391-1.414,0L12,3.586L8.707,0.293C8.42,0.007,7.991-0.081,7.617,0.076C7.244,0.231,7,0.596,7,1v46
		c0,0.404,0.244,0.77,0.617,0.924c0.374,0.156,0.803,0.069,1.09-0.217L12,44.414l3.293,3.293c0.391,0.391,1.023,0.391,1.414,0
		L20,44.414l3.293,3.293c0.391,0.391,1.023,0.391,1.414,0L28,44.414l3.293,3.293c0.391,0.391,1.023,0.391,1.414,0L36,44.414
		l3.293,3.293C39.484,47.898,39.74,48,40,48c0.129,0,0.259-0.024,0.383-0.076C40.756,47.77,41,47.404,41,47V1
		C41,0.596,40.756,0.231,40.383,0.076z M20,32h-6c-0.552,0-1-0.447-1-1c0-0.553,0.448-1,1-1h6c0.552,0,1,0.447,1,1
		C21,31.553,20.552,32,20,32z M22,26h-8c-0.552,0-1-0.447-1-1c0-0.553,0.448-1,1-1h8c0.552,0,1,0.447,1,1C23,25.553,22.552,26,22,26
		z M22,20h-8c-0.552,0-1-0.447-1-1c0-0.553,0.448-1,1-1h8c0.552,0,1,0.447,1,1C23,19.553,22.552,20,22,20z M14,14
		c-0.552,0-1-0.447-1-1c0-0.553,0.448-1,1-1h16c0.552,0,1,0.447,1,1c0,0.553-0.448,1-1,1H14z M31,28c2.206,0,4,1.794,4,4
		c0,1.859-1.28,3.411-3,3.858V37c0,0.553-0.448,1-1,1c-0.552,0-1-0.447-1-1v-1.142c-1.72-0.447-3-1.999-3-3.858c0-0.553,0.448-1,1-1
		c0.552,0,1,0.447,1,1c0,1.103,0.897,2,2,2s2-0.897,2-2c0-1.102-0.897-2-2-2c-2.206,0-4-1.794-4-4c0-1.859,1.28-3.411,3-3.858V21
		c0-0.553,0.448-1,1-1c0.552,0,1,0.447,1,1v1.142c1.72,0.447,3,1.999,3,3.858c0,0.553-0.448,1-1,1c-0.552,0-1-0.447-1-1
		c0-1.102-0.897-2-2-2s-2,0.898-2,2C29,27.103,29.897,28,31,28z"/>
</g>
<g id="nyt_x5F_exporter_x5F_info" display="none">
</g>
</svg>
