<?xml version="1.0" encoding="utf-8"?>
<!-- Generator: Adobe Illustrator 17.0.0, SVG Export Plug-In . SVG Version: 6.00 Build 0)  -->
<!DOCTYPE svg PUBLIC "-//W3C//DTD SVG 1.1//EN" "http://www.w3.org/Graphics/SVG/1.1/DTD/svg11.dtd">
<svg version="1.1" xmlns="http://www.w3.org/2000/svg" xmlns:xlink="http://www.w3.org/1999/xlink" x="0px" y="0px" width="48px"
	 height="48px" viewBox="0 0 48 48" enable-background="new 0 0 48 48" xml:space="preserve">
<g id="Layer_3">
	<path fill="#010101" d="M47,6h-6c-0.464,0-0.867,0.319-0.974,0.771l-2.42,10.283L30.7,10.287c-0.391-0.385-1.018-0.381-1.407,0.007
		L27.587,12H18c-0.552,0-1,0.447-1,1v5h-4.353L6.913,5.212c-0.11-0.245-0.315-0.437-0.567-0.529C6.092,4.589,5.812,4.603,5.57,4.718
		l-5,2.38c-0.493,0.234-0.706,0.82-0.48,1.317L4.447,18H2c-0.321,0-0.623,0.154-0.811,0.415c-0.188,0.261-0.239,0.597-0.138,0.901
		l6,18C7.187,37.725,7.569,38,8,38h24.679l-0.471,2H11c-2.206,0-4,1.794-4,4c0,2.206,1.794,4,4,4c2.206,0,4-1.794,4-4
		c0-0.732-0.212-1.409-0.556-2h15.113C29.212,42.591,29,43.268,29,44c0,2.206,1.794,4,4,4c2.206,0,4-1.794,4-4
		c0-1.78-1.176-3.274-2.786-3.791L41.792,8H47c0.552,0,1-0.447,1-1C48,6.447,47.552,6,47,6z M6.643,18L2.317,8.481l3.189-1.518
		L10.455,18H6.643z M19,18v-4h6.587l-4,4H19z M24.415,18l5.592-5.592L35.716,18H24.415z"/>
</g>
<g id="nyt_x5F_exporter_x5F_info" display="none">
</g>
</svg>
