<?xml version="1.0" encoding="utf-8"?>
<!-- Generator: Adobe Illustrator 17.0.0, SVG Export Plug-In . SVG Version: 6.00 Build 0)  -->
<!DOCTYPE svg PUBLIC "-//W3C//DTD SVG 1.1//EN" "http://www.w3.org/Graphics/SVG/1.1/DTD/svg11.dtd">
<svg version="1.1" xmlns="http://www.w3.org/2000/svg" xmlns:xlink="http://www.w3.org/1999/xlink" x="0px" y="0px" width="48px"
	 height="48px" viewBox="0 0 48 48" enable-background="new 0 0 48 48" xml:space="preserve">
<g id="Layer_3">
	<g>
		<path fill="#010101" d="M24,0C10.767,0,0,10.767,0,24c0,13.233,10.767,24,24,24c13.233,0,24-10.767,24-24C48,10.767,37.233,0,24,0
			z M24,46C11.869,46,2,36.131,2,24C2,11.869,11.869,2,24,2c12.131,0,22,9.869,22,22C46,36.131,36.131,46,24,46z"/>
		<path fill="#010101" d="M25.063,14.321h-3.04v9.184h3.04c2.912,0,5.056-0.929,5.056-4.704
			C30.119,15.506,28.007,14.321,25.063,14.321z"/>
		<path fill="#010101" d="M24,6C14.075,6,6,14.075,6,24c0,9.925,8.075,18,18,18c9.925,0,18-8.075,18-18C42,14.075,33.925,6,24,6z
			 M24.808,25.904h-2.784V34h-3.04V11.953h5.76c5.344,0,8.607,2.176,8.607,6.816C33.351,23.921,29.799,25.904,24.808,25.904z"/>
	</g>
</g>
<g id="nyt_x5F_exporter_x5F_info" display="none">
</g>
</svg>
