<?xml version="1.0" encoding="utf-8"?>
<!-- Generator: Adobe Illustrator 17.0.0, SVG Export Plug-In . SVG Version: 6.00 Build 0)  -->
<!DOCTYPE svg PUBLIC "-//W3C//DTD SVG 1.1//EN" "http://www.w3.org/Graphics/SVG/1.1/DTD/svg11.dtd">
<svg version="1.1" xmlns="http://www.w3.org/2000/svg" xmlns:xlink="http://www.w3.org/1999/xlink" x="0px" y="0px" width="48px"
	 height="48px" viewBox="0 0 48 48" enable-background="new 0 0 48 48" xml:space="preserve">
<g id="Layer_3">
	<g>
		<path fill="#010101" d="M32,40c-2.206,0-4,1.794-4,4c0,2.206,1.794,4,4,4c2.206,0,4-1.794,4-4C36,41.794,34.206,40,32,40z"/>
		<path fill="#010101" d="M10,40c-2.206,0-4,1.794-4,4c0,2.206,1.794,4,4,4c2.206,0,4-1.794,4-4C14,41.794,12.206,40,10,40z"/>
		<path fill="#010101" d="M46,5h-3c-1.002,0-1.85,0.742-1.982,1.735L37.249,35H2c-1.105,0-2,0.896-2,2c0,1.105,0.895,2,2,2h37
			c1.002,0,1.85-0.742,1.982-1.735L44.751,9H46c1.104,0,2-0.895,2-2C48,5.896,47.104,5,46,5z"/>
		<path fill="#010101" d="M10.414,13.414L17,6.828V29c0,1.105,0.895,2,2,2c1.104,0,2-0.895,2-2V6.828l6.586,6.586
			C27.976,13.805,28.488,14,29,14c0.512,0,1.024-0.195,1.414-0.586c0.781-0.781,0.781-2.047,0-2.828l-9.999-9.999
			c-0.093-0.093-0.196-0.177-0.306-0.25c-0.05-0.034-0.105-0.057-0.158-0.086c-0.062-0.034-0.121-0.071-0.186-0.098
			c-0.067-0.028-0.137-0.044-0.206-0.064c-0.056-0.017-0.11-0.038-0.168-0.05c-0.259-0.051-0.525-0.051-0.784,0
			c-0.058,0.012-0.112,0.033-0.168,0.05c-0.069,0.02-0.138,0.036-0.205,0.063c-0.066,0.027-0.125,0.065-0.187,0.099
			c-0.052,0.029-0.107,0.052-0.157,0.085c-0.11,0.073-0.213,0.157-0.306,0.25l-9.999,9.999c-0.781,0.781-0.781,2.047,0,2.828
			C8.366,14.195,9.634,14.195,10.414,13.414z"/>
	</g>
</g>
<g id="nyt_x5F_exporter_x5F_info" display="none">
</g>
</svg>
