<?xml version="1.0" encoding="utf-8"?>
<!-- Generator: Adobe Illustrator 17.0.0, SVG Export Plug-In . SVG Version: 6.00 Build 0)  -->
<!DOCTYPE svg PUBLIC "-//W3C//DTD SVG 1.1//EN" "http://www.w3.org/Graphics/SVG/1.1/DTD/svg11.dtd">
<svg version="1.1" xmlns="http://www.w3.org/2000/svg" xmlns:xlink="http://www.w3.org/1999/xlink" x="0px" y="0px" width="48px"
	 height="48px" viewBox="0 0 48 48" enable-background="new 0 0 48 48" xml:space="preserve">
<g id="Layer_3">
	<g>
		<path fill="#010101" d="M32,40c-2.206,0-4,1.794-4,4c0,2.206,1.794,4,4,4c2.206,0,4-1.794,4-4C36,41.794,34.206,40,32,40z"/>
		<path fill="#010101" d="M10,40c-2.206,0-4,1.794-4,4c0,2.206,1.794,4,4,4c2.206,0,4-1.794,4-4C14,41.794,12.206,40,10,40z"/>
		<path fill="#010101" d="M46,1h-3c-1.014,0-1.868,0.759-1.986,1.767L37.222,35H2c-1.105,0-2,0.896-2,2c0,1.105,0.895,2,2,2h37
			c1.014,0,1.868-0.759,1.986-1.767L44.778,5H46c1.104,0,2-0.895,2-2C48,1.896,47.104,1,46,1z"/>
		<path fill="#010101" d="M3,33h17c0.552,0,1-0.447,1-1v-6c0-0.553-0.448-1-1-1H3c-0.552,0-1,0.447-1,1v6C2,32.553,2.448,33,3,33z"
			/>
		<path fill="#010101" d="M5,23h12c0.552,0,1-0.447,1-1v-6c0-0.553-0.448-1-1-1H5c-0.552,0-1,0.447-1,1v6C4,22.553,4.448,23,5,23z"
			/>
		<path fill="#010101" d="M24,33h11c0.552,0,1-0.447,1-1V11c0-0.553-0.448-1-1-1H24c-0.552,0-1,0.447-1,1v21
			C23,32.553,23.448,33,24,33z"/>
	</g>
</g>
<g id="nyt_x5F_exporter_x5F_info" display="none">
</g>
</svg>
