<?xml version="1.0" encoding="utf-8"?>
<!-- Generator: Adobe Illustrator 17.0.0, SVG Export Plug-In . SVG Version: 6.00 Build 0)  -->
<!DOCTYPE svg PUBLIC "-//W3C//DTD SVG 1.1//EN" "http://www.w3.org/Graphics/SVG/1.1/DTD/svg11.dtd">
<svg version="1.1" xmlns="http://www.w3.org/2000/svg" xmlns:xlink="http://www.w3.org/1999/xlink" x="0px" y="0px" width="48px"
	 height="48px" viewBox="0 0 48 48" enable-background="new 0 0 48 48" xml:space="preserve">
<g id="Layer_3">
	<g>
		<path fill="#010101" d="M32,40c-2.206,0-4,1.794-4,4c0,2.206,1.794,4,4,4c2.206,0,4-1.794,4-4C36,41.794,34.206,40,32,40z"/>
		<path fill="#010101" d="M10,40c-2.206,0-4,1.794-4,4c0,2.206,1.794,4,4,4c2.206,0,4-1.794,4-4C14,41.794,12.206,40,10,40z"/>
		<path fill="#010101" d="M46,5h-3c-1.002,0-1.85,0.742-1.982,1.735L37.249,35H2c-1.105,0-2,0.896-2,2c0,1.105,0.895,2,2,2h37
			c1.002,0,1.85-0.742,1.982-1.735L44.751,9H46c1.104,0,2-0.895,2-2C48,5.896,47.104,5,46,5z"/>
		<path fill="#010101" d="M17.585,30.413c0.093,0.093,0.196,0.177,0.306,0.25c0.049,0.033,0.103,0.056,0.155,0.084
			c0.063,0.034,0.123,0.072,0.19,0.1c0.066,0.027,0.135,0.043,0.203,0.063c0.057,0.017,0.112,0.039,0.171,0.051
			C18.738,30.986,18.869,31,19,31c0.131,0,0.262-0.014,0.392-0.039c0.059-0.012,0.114-0.034,0.171-0.051
			c0.068-0.02,0.137-0.036,0.203-0.063c0.066-0.027,0.127-0.065,0.189-0.1c0.052-0.028,0.105-0.051,0.155-0.084
			c0.11-0.074,0.213-0.157,0.306-0.25l9.999-9.999c0.781-0.781,0.781-2.047,0-2.828c-0.78-0.781-2.048-0.781-2.828,0L21,24.172V2
			c0-1.104-0.896-2-2-2c-1.105,0-2,0.896-2,2v22.172l-6.586-6.586c-0.78-0.781-2.048-0.781-2.828,0
			c-0.781,0.781-0.781,2.047,0,2.828L17.585,30.413z"/>
	</g>
</g>
<g id="nyt_x5F_exporter_x5F_info" display="none">
</g>
</svg>
