<?xml version="1.0" encoding="utf-8"?>
<!-- Generator: Adobe Illustrator 17.1.0, SVG Export Plug-In . SVG Version: 6.00 Build 0)  -->
<!DOCTYPE svg PUBLIC "-//W3C//DTD SVG 1.0//EN" "http://www.w3.org/TR/2001/REC-SVG-20010904/DTD/svg10.dtd">
<svg version="1.0" id="Layer_1" xmlns="http://www.w3.org/2000/svg" xmlns:xlink="http://www.w3.org/1999/xlink" x="0px" y="0px"
	 width="48px" height="48px" viewBox="0 0 48 48" enable-background="new 0 0 48 48" xml:space="preserve">
<g>
	<path d="M32,39.5c-2.206,0-4,1.794-4,4c0,2.206,1.794,4,4,4c2.206,0,4-1.794,4-4C36,41.294,34.206,39.5,32,39.5z"/>
	<path d="M10,39.5c-2.206,0-4,1.794-4,4c0,2.206,1.794,4,4,4c2.206,0,4-1.794,4-4C14,41.294,12.206,39.5,10,39.5z"/>
	<path d="M46,0.5h-3c-1.014,0-1.868,0.759-1.986,1.767L37.222,34.5H2c-1.105,0-2,0.896-2,2c0,1.105,0.895,2,2,2h37
		c1.014,0,1.868-0.759,1.986-1.767L44.778,4.5H46c1.104,0,2-0.895,2-2C48,1.396,47.104,0.5,46,0.5z"/>
	<path d="M7,32.5h24c2.757,0,5-2.243,5-5v-12c0-2.757-2.243-5-5-5h-6v-2c0-2.206-1.794-4-4-4h-4c-2.206,0-4,1.794-4,4v2H7
		c-2.757,0-5,2.243-5,5v12C2,30.257,4.243,32.5,7,32.5z M15,8.5c0-1.102,0.897-2,2-2h4c1.103,0,2,0.898,2,2v2h-8V8.5z M9,14.5h20
		c0.552,0,1,0.447,1,1c0,0.553-0.448,1-1,1H9c-0.552,0-1-0.447-1-1C8,14.947,8.448,14.5,9,14.5z M9,20.5h20c0.552,0,1,0.447,1,1
		c0,0.553-0.448,1-1,1H9c-0.552,0-1-0.447-1-1C8,20.947,8.448,20.5,9,20.5z M9,26.5h20c0.552,0,1,0.447,1,1c0,0.553-0.448,1-1,1H9
		c-0.552,0-1-0.447-1-1C8,26.947,8.448,26.5,9,26.5z"/>
</g>
</svg>
