<?xml version="1.0" encoding="utf-8"?>
<!-- Generator: Adobe Illustrator 17.0.0, SVG Export Plug-In . SVG Version: 6.00 Build 0)  -->
<!DOCTYPE svg PUBLIC "-//W3C//DTD SVG 1.1//EN" "http://www.w3.org/Graphics/SVG/1.1/DTD/svg11.dtd">
<svg version="1.1" xmlns="http://www.w3.org/2000/svg" xmlns:xlink="http://www.w3.org/1999/xlink" x="0px" y="0px" width="48px"
	 height="48px" viewBox="0 0 48 48" enable-background="new 0 0 48 48" xml:space="preserve">
<g id="Layer_3">
	<g>
		<path fill="#010101" d="M32,39.5c-2.206,0-4,1.794-4,4c0,2.206,1.794,4,4,4c2.206,0,4-1.794,4-4C36,41.294,34.206,39.5,32,39.5z"
			/>
		<path fill="#010101" d="M10,39.5c-2.206,0-4,1.794-4,4c0,2.206,1.794,4,4,4c2.206,0,4-1.794,4-4C14,41.294,12.206,39.5,10,39.5z"
			/>
		<path fill="#010101" d="M46,4.5h-3c-1.002,0-1.85,0.742-1.982,1.735L37.249,34.5H2c-1.105,0-2,0.896-2,2c0,1.105,0.895,2,2,2h37
			c1.002,0,1.85-0.742,1.982-1.735L44.751,8.5H46c1.104,0,2-0.895,2-2C48,5.396,47.104,4.5,46,4.5z"/>
	</g>
</g>
<g id="nyt_x5F_exporter_x5F_info" display="none">
</g>
</svg>
