<?xml version="1.0" encoding="utf-8"?>
<!-- Generator: Adobe Illustrator 17.0.0, SVG Export Plug-In . SVG Version: 6.00 Build 0)  -->
<!DOCTYPE svg PUBLIC "-//W3C//DTD SVG 1.1//EN" "http://www.w3.org/Graphics/SVG/1.1/DTD/svg11.dtd">
<svg version="1.1" xmlns="http://www.w3.org/2000/svg" xmlns:xlink="http://www.w3.org/1999/xlink" x="0px" y="0px" width="48px"
	 height="48px" viewBox="0 0 48 48" enable-background="new 0 0 48 48" xml:space="preserve">
<g id="Layer_3">
	<g>
		<path fill="#010101" d="M43.079,22h-0.998v-5c0-2.498-1.337-4.754-3.428-6H9c-1.654,0-3-1.346-3-3c0-1.654,1.346-3,3-3h24
			c0.552,0,1,0.447,1,1c0,0.553-0.448,1-1,1H9C8.449,7,8,7.448,8,8c0,0.552,0.449,1,1,1h29V7c0-2.804-3.039-5-6.919-5h-24
			c-3.86,0-7,3.141-7,7v30c0,3.859,3.14,7,7,7h28c3.86,0,7-3.141,7-7v-5h0.998c2.757,0,5-2.243,5-5v-2
			C48.079,24.243,45.836,22,43.079,22z M33.081,14h2c0.552,0,1,0.447,1,1c0,0.553-0.448,1-1,1h-2c-0.552,0-1-0.447-1-1
			C32.081,14.447,32.529,14,33.081,14z M27.081,14h2c0.552,0,1,0.447,1,1c0,0.553-0.448,1-1,1h-2c-0.552,0-1-0.447-1-1
			C26.081,14.447,26.529,14,27.081,14z M11.081,42h-2c-0.552,0-1-0.447-1-1c0-0.553,0.448-1,1-1h2c0.552,0,1,0.447,1,1
			C12.081,41.553,11.633,42,11.081,42z M11.081,16h-2c-0.552,0-1-0.447-1-1c0-0.553,0.448-1,1-1h2c0.552,0,1,0.447,1,1
			C12.081,15.553,11.633,16,11.081,16z M17.081,42h-2c-0.552,0-1-0.447-1-1c0-0.553,0.448-1,1-1h2c0.552,0,1,0.447,1,1
			C18.081,41.553,17.633,42,17.081,42z M17.081,16h-2c-0.552,0-1-0.447-1-1c0-0.553,0.448-1,1-1h2c0.552,0,1,0.447,1,1
			C18.081,15.553,17.633,16,17.081,16z M23.081,42h-2c-0.552,0-1-0.447-1-1c0-0.553,0.448-1,1-1h2c0.552,0,1,0.447,1,1
			C24.081,41.553,23.633,42,23.081,42z M23.081,16h-2c-0.552,0-1-0.447-1-1c0-0.553,0.448-1,1-1h2c0.552,0,1,0.447,1,1
			C24.081,15.553,23.633,16,23.081,16z M29.081,42h-2c-0.552,0-1-0.447-1-1c0-0.553,0.448-1,1-1h2c0.552,0,1,0.447,1,1
			C30.081,41.553,29.633,42,29.081,42z M35.081,42h-2c-0.552,0-1-0.447-1-1c0-0.553,0.448-1,1-1h2c0.552,0,1,0.447,1,1
			C36.081,41.553,35.633,42,35.081,42z M46.079,29c0,1.654-1.346,3-3,3h-10c-1.654,0-3-1.346-3-3v-2c0-1.654,1.346-3,3-3h10
			c1.654,0,3,1.346,3,3V29z"/>
		<circle fill="#010101" cx="34.081" cy="28" r="2"/>
	</g>
</g>
<g id="nyt_x5F_exporter_x5F_info" display="none">
</g>
</svg>
