<?xml version="1.0" encoding="utf-8"?>
<!-- Generator: Adobe Illustrator 17.0.0, SVG Export Plug-In . SVG Version: 6.00 Build 0)  -->
<!DOCTYPE svg PUBLIC "-//W3C//DTD SVG 1.1//EN" "http://www.w3.org/Graphics/SVG/1.1/DTD/svg11.dtd">
<svg version="1.1" id="Layer_2" xmlns="http://www.w3.org/2000/svg" xmlns:xlink="http://www.w3.org/1999/xlink" x="0px" y="0px"
	 width="48px" height="48px" viewBox="0 0 48 48" enable-background="new 0 0 48 48" xml:space="preserve">
<g>
	<path fill="#010101" d="M34.962,31.145c0.021-0.409-0.111-0.778-0.375-1.041l-2.615-2.616c-0.312-0.311-0.692-0.376-0.957-0.376
		c-0.471,0-0.949,0.208-1.311,0.57l-0.97,0.969c-0.36,0.359-0.935,0.391-1.332,0.073c-2.967-2.378-5.791-5.203-8.166-8.167
		c-0.319-0.398-0.288-0.972,0.073-1.332l0.968-0.968c0.343-0.343,0.544-0.778,0.568-1.227c0.021-0.409-0.111-0.778-0.375-1.041
		l-2.615-2.616c-0.312-0.312-0.692-0.377-0.957-0.377c-0.471,0-0.948,0.208-1.311,0.569l-1.595,1.595
		c-1.046,1.046-1.303,2.602-0.611,3.699c3.978,6.306,9.414,11.742,15.72,15.72c1.068,0.674,2.682,0.403,3.698-0.612l0.578-0.578
		c0.002-0.002,0.002-0.004,0.004-0.006c0.002-0.002,0.004-0.002,0.006-0.004l1.006-1.006C34.737,32.028,34.938,31.592,34.962,31.145
		z"/>
	<path fill="#010101" d="M24,0C10.767,0,0,10.767,0,24c0,13.233,10.767,24,24,24c13.233,0,24-10.767,24-24C48,10.767,37.233,0,24,0z
		 M40.823,35.519c-0.313,0.455-0.935,0.571-1.391,0.259s-0.571-0.935-0.259-1.391c2.108-3.07,3.221-6.669,3.221-10.408
		c0-10.155-8.262-18.416-18.417-18.416S5.562,13.824,5.562,23.979c0,10.155,8.261,18.416,18.416,18.416
		c4.776,0,7.949-1.235,9.174-3.571c0.572-1.09,0.612-2.197,0.508-2.988c-0.927,0.711-2.044,1.128-3.176,1.128
		c-0.881,0-1.729-0.241-2.449-0.695c-6.557-4.136-12.209-9.788-16.344-16.344c-1.186-1.88-0.812-4.479,0.889-6.18l1.595-1.595
		c1.403-1.404,3.795-1.495,5.096-0.193l2.615,2.616c0.669,0.668,1.009,1.578,0.958,2.561c-0.05,0.942-0.458,1.843-1.151,2.536
		l-0.329,0.329c1.971,2.368,4.228,4.625,6.598,6.598l0.33-0.33c1.402-1.402,3.792-1.495,5.096-0.193l2.615,2.616
		c0.669,0.668,1.009,1.578,0.958,2.56c-0.05,0.942-0.458,1.843-1.151,2.536l-0.484,0.484c0.458,1.19,0.595,3.151-0.145,4.938
		c-0.98,2.367-3.719,5.188-11.201,5.188c-11.257,0-20.416-9.159-20.416-20.416c0-11.258,9.159-20.416,20.416-20.416
		c11.258,0,20.417,9.159,20.417,20.416C44.395,28.124,43.16,32.114,40.823,35.519z"/>
</g>
</svg>
