<?xml version="1.0" encoding="utf-8"?>
<!-- Generator: Adobe Illustrator 17.0.0, SVG Export Plug-In . SVG Version: 6.00 Build 0)  -->
<!DOCTYPE svg PUBLIC "-//W3C//DTD SVG 1.1//EN" "http://www.w3.org/Graphics/SVG/1.1/DTD/svg11.dtd">
<svg version="1.1" id="Layer_2" xmlns="http://www.w3.org/2000/svg" xmlns:xlink="http://www.w3.org/1999/xlink" x="0px" y="0px"
	 width="48px" height="48px" viewBox="0 0 48 48" enable-background="new 0 0 48 48" xml:space="preserve">
<g>
	<path fill="#010101" d="M34.34,32.312c-0.944-0.945-2.2-1.465-3.536-1.465c-1.336,0-2.592,0.52-3.536,1.465l-0.77,0.77
		c-4.139-3.464-8.115-7.44-11.578-11.58l0.771-0.77c1.948-1.949,1.948-5.121-0.001-7.071l-4.243-4.243
		c-0.944-0.944-2.2-1.464-3.535-1.464c-1.336,0-2.592,0.52-3.537,1.464l-2.327,2.327c-2.339,2.339-2.711,6.043-0.884,8.808
		C8.009,30.901,17.097,39.99,27.447,46.836c1.15,0.76,2.486,1.162,3.863,1.162c1.87,0,3.626-0.726,4.945-2.046l2.328-2.327
		c0.945-0.944,1.465-2.2,1.465-3.535c0-1.335-0.52-2.591-1.465-3.536L34.34,32.312z"/>
	<path fill="#010101" d="M35,0c-7.169,0-13,5.832-13,13c0,7.169,5.831,13,13,13c7.168,0,13-5.831,13-13C48,5.832,42.168,0,35,0z
		 M40.455,14H36v4.455c0,0.552-0.448,1-1,1c-0.552,0-1-0.448-1-1V14h-4.454c-0.552,0-1-0.448-1-1c0-0.552,0.448-1,1-1H34V7.545
		c0-0.552,0.448-1,1-1c0.552,0,1,0.448,1,1V12h4.455c0.552,0,1,0.448,1,1C41.455,13.552,41.007,14,40.455,14z"/>
</g>
</svg>
