<?xml version="1.0" encoding="utf-8"?>
<!-- Generator: Adobe Illustrator 17.0.0, SVG Export Plug-In . SVG Version: 6.00 Build 0)  -->
<!DOCTYPE svg PUBLIC "-//W3C//DTD SVG 1.1//EN" "http://www.w3.org/Graphics/SVG/1.1/DTD/svg11.dtd">
<svg version="1.1" id="Layer_2" xmlns="http://www.w3.org/2000/svg" xmlns:xlink="http://www.w3.org/1999/xlink" x="0px" y="0px"
	 width="48px" height="48px" viewBox="0 0 48 48" enable-background="new 0 0 48 48" xml:space="preserve">
<g>
	<path fill="#010101" d="M37.293,32.313c-0.945-0.944-2.201-1.464-3.536-1.464c-1.335,0-2.591,0.52-3.536,1.464l-0.771,0.771
		c-4.138-3.463-8.114-7.439-11.579-11.58l0.77-0.77c0.944-0.944,1.465-2.2,1.465-3.536c0-1.335-0.52-2.591-1.465-3.535L14.4,9.42
		c-0.944-0.944-2.2-1.464-3.536-1.464c-1.336,0-2.591,0.52-3.536,1.464l-2.327,2.328c-2.34,2.34-2.712,6.044-0.884,8.808
		c6.847,10.35,15.935,19.438,26.282,26.282C31.55,47.598,32.885,48,34.263,48c1.87,0,3.626-0.727,4.945-2.046l2.327-2.327
		C42.48,42.682,43,41.427,43,40.091c0-1.335-0.52-2.591-1.465-3.535L37.293,32.313z"/>
	<path fill="#010101" d="M30.344,7.941c1.3,0,2.201,0.82,2.201,2.32c0,2.081-1.161,3.561-5.881,8.282v1.46h7.901l0.22-1.54h-6.022
		c4.101-3.901,5.702-5.881,5.702-8.262c0-2.2-1.561-3.781-4.021-3.781c-1.681,0-2.981,0.68-4.061,2.02l1.24,0.96
		C28.483,8.381,29.224,7.941,30.344,7.941z"/>
	<polygon fill="#010101" points="43.665,15.243 43.665,11.642 42.064,11.642 41.884,15.243 38.264,15.243 41.724,7.061 
		40.184,6.421 36.323,15.383 36.323,16.703 41.884,16.703 41.884,20.004 43.665,20.004 43.665,16.703 45.405,16.703 45.405,15.243 	
		"/>
</g>
</svg>
