<?xml version="1.0" encoding="utf-8"?>
<!-- Generator: Adobe Illustrator 17.0.0, SVG Export Plug-In . SVG Version: 6.00 Build 0)  -->
<!DOCTYPE svg PUBLIC "-//W3C//DTD SVG 1.1//EN" "http://www.w3.org/Graphics/SVG/1.1/DTD/svg11.dtd">
<svg version="1.1" id="Layer_2" xmlns="http://www.w3.org/2000/svg" xmlns:xlink="http://www.w3.org/1999/xlink" x="0px" y="0px"
	 width="48px" height="48px" viewBox="0 0 48 48" enable-background="new 0 0 48 48" xml:space="preserve">
<g>
	<path fill="#010101" d="M34.34,32.313c-0.945-0.944-2.2-1.464-3.536-1.464s-2.591,0.52-3.536,1.464l-0.771,0.77
		c-4.138-3.463-8.114-7.439-11.578-11.579l0.771-0.771c1.948-1.95,1.948-5.121,0-7.071l-4.244-4.242
		c-0.944-0.945-2.199-1.465-3.535-1.465c-1.335,0-2.591,0.52-3.536,1.464l-2.327,2.327c-2.339,2.339-2.711,6.043-0.885,8.808
		c6.845,10.348,15.933,19.436,26.283,26.282C28.597,47.598,29.932,48,31.31,48c1.87,0,3.626-0.727,4.945-2.046l2.327-2.327
		c0.945-0.944,1.465-2.2,1.465-3.535c0-1.335-0.52-2.591-1.465-3.536L34.34,32.313z"/>
	<path fill="#010101" d="M44.192,3.808C41.737,1.353,38.473,0,35,0c-3.472,0-6.737,1.353-9.192,3.808
		c-5.068,5.068-5.068,13.316,0,18.385C28.263,24.648,31.527,26,35,26c3.473,0,6.737-1.352,9.192-3.807
		C46.648,19.737,48,16.473,48,13C48,9.527,46.648,6.263,44.192,3.808z M39.564,16.15c0.391,0.391,0.391,1.023,0,1.414
		c-0.195,0.195-0.451,0.293-0.707,0.293c-0.256,0-0.512-0.098-0.707-0.293L35,14.415l-3.15,3.15
		c-0.195,0.195-0.451,0.293-0.707,0.293c-0.256,0-0.512-0.098-0.707-0.293c-0.391-0.391-0.391-1.024,0-1.414l3.15-3.15l-3.15-3.15
		c-0.391-0.391-0.391-1.023,0-1.414c0.391-0.391,1.024-0.391,1.414,0l3.15,3.15l3.15-3.15c0.391-0.391,1.023-0.391,1.414,0
		c0.391,0.391,0.391,1.023,0,1.414l-3.15,3.15L39.564,16.15z"/>
</g>
</svg>
