<?xml version="1.0" encoding="utf-8"?>
<!-- Generator: Adobe Illustrator 17.0.0, SVG Export Plug-In . SVG Version: 6.00 Build 0)  -->
<!DOCTYPE svg PUBLIC "-//W3C//DTD SVG 1.1//EN" "http://www.w3.org/Graphics/SVG/1.1/DTD/svg11.dtd">
<svg version="1.1" id="Layer_2" xmlns="http://www.w3.org/2000/svg" xmlns:xlink="http://www.w3.org/1999/xlink" x="0px" y="0px"
	 width="48px" height="48px" viewBox="0 0 48 48" enable-background="new 0 0 48 48" xml:space="preserve">
<path fill="#010101" d="M43.998,35.382l-4.907-4.906c-0.968-0.968-2.255-1.501-3.624-1.501c-1.369,0-2.657,0.533-3.625,1.501
	l-1.314,1.314c-5.139-4.251-10.075-9.188-14.318-14.32l1.314-1.314c1.998-1.999,1.998-5.25,0-7.249l-4.907-4.907
	C11.649,3.033,10.362,2.5,8.993,2.5c-1.369,0-2.657,0.533-3.625,1.502l-2.69,2.691c-2.486,2.486-2.881,6.422-0.939,9.36
	c7.868,11.894,18.314,22.34,30.209,30.209c1.223,0.808,2.642,1.235,4.106,1.235c1.987,0,3.853-0.772,5.253-2.174l2.692-2.691
	c0.968-0.968,1.502-2.255,1.502-3.624C45.5,37.638,44.967,36.351,43.998,35.382z"/>
</svg>
