<?xml version="1.0" encoding="utf-8"?>
<!-- Generator: Adobe Illustrator 17.0.0, SVG Export Plug-In . SVG Version: 6.00 Build 0)  -->
<!DOCTYPE svg PUBLIC "-//W3C//DTD SVG 1.1//EN" "http://www.w3.org/Graphics/SVG/1.1/DTD/svg11.dtd">
<svg version="1.1" id="Layer_2" xmlns="http://www.w3.org/2000/svg" xmlns:xlink="http://www.w3.org/1999/xlink" x="0px" y="0px"
	 width="48px" height="48px" viewBox="0 0 48 48" enable-background="new 0 0 48 48" xml:space="preserve">
<g>
	<path fill="#010101" d="M16.531,25.997c-2.22-2.514-4.201-5.156-5.932-7.899c-1.358-2.155-0.926-5.137,1.027-7.092l1.89-1.889
		c0.835-0.835,1.964-1.314,3.097-1.314c1.027,0,1.978,0.386,2.678,1.086l3.099,3.098c1.529,1.529,1.426,4.121-0.228,5.776
		l-0.509,0.509c0.396,0.479,0.812,0.964,1.241,1.449l1.986,1.986L40.239,6.348C35.962,2.41,30.258,0,24,0C10.767,0,0,10.767,0,24
		c0,6.258,2.41,11.962,6.348,16.239l12.213-12.213L16.531,25.997z"/>
	<path fill="#010101" d="M41.653,7.762L26.294,23.121l2.03,2.03c0.448,0.394,0.923,0.8,1.406,1.199l0.508-0.509
		c0.836-0.836,1.965-1.315,3.098-1.315c1.027,0,1.978,0.386,2.678,1.086l3.1,3.099c0.755,0.755,1.138,1.783,1.08,2.893
		c-0.056,1.071-0.521,2.095-1.31,2.883l-1.886,1.888c-1.159,1.159-2.722,1.823-4.289,1.823c-1.01,0-1.979-0.275-2.803-0.795
		c-2.741-1.729-5.383-3.709-7.852-5.887l-2.076-2.075L7.762,41.653C12.039,45.59,17.742,48,24,48c13.233,0,24-10.767,24-24
		C48,17.742,45.59,12.039,41.653,7.762z"/>
</g>
</svg>
