<?xml version="1.0" encoding="utf-8"?>
<!-- Generator: Adobe Illustrator 17.0.0, SVG Export Plug-In . SVG Version: 6.00 Build 0)  -->
<!DOCTYPE svg PUBLIC "-//W3C//DTD SVG 1.1//EN" "http://www.w3.org/Graphics/SVG/1.1/DTD/svg11.dtd">
<svg version="1.1" id="Layer_2" xmlns="http://www.w3.org/2000/svg" xmlns:xlink="http://www.w3.org/1999/xlink" x="0px" y="0px"
	 width="48px" height="48px" viewBox="0 0 48 48" enable-background="new 0 0 48 48" xml:space="preserve">
<g>
	<path fill="#010101" d="M7,5c0-1.654,1.346-3,3-3h34c0.552,0,1-0.448,1-1c0-0.552-0.448-1-1-1H10C7.243,0,5,2.243,5,5
		c0,0.235,0.016,0.467,0.048,0.693C5.017,5.79,5,5.893,5,6v7h3c1.103,0,2,0.897,2,2s-0.897,2-2,2H5v2h3c1.103,0,2,0.897,2,2
		s-0.897,2-2,2H5v2h3c1.103,0,2,0.897,2,2s-0.897,2-2,2H5v2h3c1.103,0,2,0.897,2,2s-0.897,2-2,2H5v2h3c1.103,0,2,0.897,2,2
		s-0.897,2-2,2H5v2c0,2.757,2.243,5,5,5h35V8H10C8.346,8,7,6.654,7,5z M14.399,16.838l1.468-1.468
		c1.331-1.33,3.652-1.332,4.984-0.002l2.677,2.678c0.664,0.663,1.031,1.547,1.031,2.487c0,0.942-0.367,1.829-1.034,2.495
		l-0.245,0.246c2.053,2.421,4.373,4.74,6.783,6.781l0.246-0.246c1.328-1.33,3.651-1.332,4.982,0.001l2.675,2.674
		c0.665,0.662,1.032,1.546,1.033,2.487c0.001,0.942-0.366,1.829-1.032,2.496l-1.468,1.468c-0.901,0.901-2.102,1.398-3.379,1.398
		c-0.941,0-1.854-0.275-2.641-0.794c-6.573-4.346-12.341-10.115-16.683-16.684C12.547,20.969,12.8,18.438,14.399,16.838z"/>
	<path fill="#010101" d="M10,4C9.448,4,9,4.448,9,5c0,0.552,0.448,1,1,1h32c0.552,0,1-0.448,1-1c0-0.552-0.448-1-1-1H10z"/>
	<path fill="#010101" d="M4,16h4c0.551,0,1-0.449,1-1c0-0.551-0.449-1-1-1H4c-0.551,0-1,0.449-1,1C3,15.551,3.449,16,4,16z"/>
	<path fill="#010101" d="M4,22h4c0.551,0,1-0.449,1-1c0-0.551-0.449-1-1-1H4c-0.551,0-1,0.449-1,1C3,21.551,3.449,22,4,22z"/>
	<path fill="#010101" d="M4,28h4c0.551,0,1-0.449,1-1c0-0.551-0.449-1-1-1H4c-0.551,0-1,0.449-1,1C3,27.551,3.449,28,4,28z"/>
	<path fill="#010101" d="M4,34h4c0.551,0,1-0.449,1-1c0-0.551-0.449-1-1-1H4c-0.551,0-1,0.449-1,1C3,33.551,3.449,34,4,34z"/>
	<path fill="#010101" d="M9,39c0-0.551-0.449-1-1-1H4c-0.551,0-1,0.449-1,1c0,0.551,0.449,1,1,1h4C8.551,40,9,39.551,9,39z"/>
</g>
</svg>
