<?xml version="1.0" encoding="utf-8"?>
<!-- Generator: Adobe Illustrator 17.0.0, SVG Export Plug-In . SVG Version: 6.00 Build 0)  -->
<!DOCTYPE svg PUBLIC "-//W3C//DTD SVG 1.1//EN" "http://www.w3.org/Graphics/SVG/1.1/DTD/svg11.dtd">
<svg version="1.1" id="Layer_2" xmlns="http://www.w3.org/2000/svg" xmlns:xlink="http://www.w3.org/1999/xlink" x="0px" y="0px"
	 width="48px" height="48px" viewBox="0 0 48 48" enable-background="new 0 0 48 48" xml:space="preserve">
<g>
	<rect x="27" y="4" fill="#010101" width="9" height="2"/>
	<rect x="27" y="8" fill="#010101" width="14" height="2"/>
	<path fill="#010101" d="M16,7h-5V1c0-0.552-0.448-1-1-1C9.448,0,9,0.448,9,1v6.101C6.721,7.566,5,9.585,5,12v31
		c0,2.757,2.243,5,5,5h6c2.757,0,5-2.243,5-5V12C21,9.243,18.757,7,16,7z"/>
	<path fill="#010101" d="M45,12V4.52L39.351,0H23v12h-1v32h23c1.654,0,3-1.346,3-3V15C48,13.346,46.654,12,45,12z M29,36h-2v-2h2V36
		z M29,32h-2v-2h2V32z M29,28h-2v-2h2V28z M35,36h-2v-2h2V36z M35,32h-2v-2h2V32z M35,28h-2v-2h2V28z M41,36h-2v-2h2V36z M41,32h-2
		v-2h2V32z M41,28h-2v-2h2V28z M41,22H27v-6h14V22z M43,12H25V2h13.649L43,5.481V12z"/>
	<path fill="#010101" d="M0,15v26c0,1.654,1.346,3,3,3h1V12H3C1.346,12,0,13.346,0,15z"/>
</g>
</svg>
