<?xml version="1.0" encoding="utf-8"?>
<!-- Generator: Adobe Illustrator 17.0.0, SVG Export Plug-In . SVG Version: 6.00 Build 0)  -->
<!DOCTYPE svg PUBLIC "-//W3C//DTD SVG 1.1//EN" "http://www.w3.org/Graphics/SVG/1.1/DTD/svg11.dtd">
<svg version="1.1" id="Layer_2" xmlns="http://www.w3.org/2000/svg" xmlns:xlink="http://www.w3.org/1999/xlink" x="0px" y="0px"
	 width="48px" height="48px" viewBox="0 0 48 48" enable-background="new 0 0 48 48" xml:space="preserve">
<g>
	<path fill="#010101" d="M15.092,24.91l1.879,1.878l7.459-7.459l-1.836-1.836c-0.584-0.658-1.152-1.317-1.695-1.966l0.77-0.771
		c1.95-1.949,1.95-5.122,0-7.071l-4.243-4.242c-0.944-0.945-2.199-1.465-3.535-1.465c-1.336,0-2.591,0.52-3.536,1.464L8.025,5.771
		c-2.339,2.339-2.71,6.043-0.883,8.808C9.503,18.148,12.164,21.608,15.092,24.91z"/>
	<path fill="#010101" d="M40.317,26.336c-0.944-0.945-2.199-1.465-3.536-1.465c-1.335,0-2.592,0.52-3.537,1.465l-0.769,0.77
		c-0.663-0.555-1.314-1.115-1.923-1.655l-1.88-1.88l-7.458,7.458l1.92,1.92c3.257,2.888,6.72,5.55,10.292,7.912
		c1.149,0.76,2.485,1.162,3.862,1.162c1.869,0,3.625-0.727,4.945-2.046l2.328-2.328c1.949-1.949,1.949-5.122,0-7.071L40.317,26.336z
		"/>
	<path fill="#010101" d="M47.927,0.624c-0.049-0.12-0.122-0.233-0.22-0.331c-0.098-0.098-0.21-0.171-0.331-0.219
		C47.259,0.026,47.133,0,47,0s-0.259,0.026-0.376,0.074c-0.12,0.049-0.233,0.122-0.331,0.219l-20.45,20.45h0l-7.459,7.459h0
		L0.293,46.293c-0.098,0.098-0.171,0.21-0.22,0.331C0.026,46.741,0,46.867,0,47c0,0.133,0.026,0.259,0.073,0.377
		c0.049,0.12,0.122,0.233,0.22,0.33c0.003,0.003,0.007,0.004,0.01,0.007c0.382,0.371,1.011,0.371,1.393,0
		c0.003-0.003,0.007-0.004,0.011-0.007l18.092-18.092l0,0l7.459-7.458h0l20.45-20.45c0.098-0.098,0.171-0.21,0.22-0.33
		C47.974,1.259,48,1.133,48,1C48,0.867,47.974,0.741,47.927,0.624z"/>
</g>
</svg>
