<?xml version="1.0" encoding="utf-8"?>
<!-- Generator: Adobe Illustrator 17.0.0, SVG Export Plug-In . SVG Version: 6.00 Build 0)  -->
<!DOCTYPE svg PUBLIC "-//W3C//DTD SVG 1.1//EN" "http://www.w3.org/Graphics/SVG/1.1/DTD/svg11.dtd">
<svg version="1.1" id="Layer_2" xmlns="http://www.w3.org/2000/svg" xmlns:xlink="http://www.w3.org/1999/xlink" x="0px" y="0px"
	 width="48px" height="48px" viewBox="0 0 48 48" enable-background="new 0 0 48 48" xml:space="preserve">
<path fill="#010101" d="M38,0H8C5.794,0,4,1.794,4,4v37c0,3.86,3.14,7,7,7h24c3.86,0,7-3.14,7-7V4C42,1.794,40.206,0,38,0z M18,4h10
	c0.552,0,1,0.448,1,1c0,0.552-0.448,1-1,1H18c-0.552,0-1-0.448-1-1C17,4.448,17.448,4,18,4z M14,42h-2v-2h2V42z M14,38h-2v-2h2V38z
	 M14,34h-2v-2h2V34z M18,42h-2v-2h2V42z M18,38h-2v-2h2V38z M18,34h-2v-2h2V34z M22,42h-2v-2h2V42z M22,38h-2v-2h2V38z M22,34h-2v-2
	h2V34z M26,42h-2v-2h2V42z M26,38h-2v-2h2V38z M26,34h-2v-2h2V34z M30,42h-2v-2h2V42z M30,38h-2v-2h2V38z M30,34h-2v-2h2V34z M34,42
	h-2v-2h2V42z M34,38h-2v-2h2V38z M34,34h-2v-2h2V34z M38,28H8V8h30V28z"/>
</svg>
