<?xml version="1.0" encoding="utf-8"?>
<!-- Generator: Adobe Illustrator 17.1.0, SVG Export Plug-In . SVG Version: 6.00 Build 0)  -->
<!DOCTYPE svg PUBLIC "-//W3C//DTD SVG 1.0//EN" "http://www.w3.org/TR/2001/REC-SVG-20010904/DTD/svg10.dtd">
<svg version="1.0" id="Layer_1" xmlns="http://www.w3.org/2000/svg" xmlns:xlink="http://www.w3.org/1999/xlink" x="0px" y="0px"
	 width="48px" height="48px" viewBox="0 0 48 48" enable-background="new 0 0 48 48" xml:space="preserve">
<g>
	<path d="M42.2,4.925c-11.988-2.442-24.421-2.44-36.4,0C2.546,5.59-0.001,8.656,0,11.905v3c0,2.756,2.243,4.999,5,5h6.001
		c2.756,0,4.999-2.243,4.999-5v-1.089c5.268-0.467,10.736-0.467,16,0v1.089c0,1.324,0.523,2.576,1.473,3.526
		c0.95,0.95,2.203,1.474,3.526,1.474l0.001-1v1h6c2.757-0.001,5-2.244,5-5v-3C48,8.656,45.452,5.59,42.2,4.925z"/>
	<path d="M29,21.034v-3.128c0-0.552-0.448-1-1-1s-1,0.448-1,1v3h-5v-3c0-0.552-0.448-1-1-1s-1,0.448-1,1v3.051
		c-8.908,0.522-16,7.913-16,16.949v6c0,0.552,0.448,1,1,1h38c0.552,0,1-0.448,1-1v-6C44,29.209,37.433,22.028,29,21.034z M24,40.905
		c-4.411,0-8-3.589-8-8s3.589-8,8-8s8,3.589,8,8S28.411,40.905,24,40.905z"/>
</g>
</svg>
