<?xml version="1.0" encoding="utf-8"?>
<!-- Generator: Adobe Illustrator 17.0.0, SVG Export Plug-In . SVG Version: 6.00 Build 0)  -->
<!DOCTYPE svg PUBLIC "-//W3C//DTD SVG 1.1//EN" "http://www.w3.org/Graphics/SVG/1.1/DTD/svg11.dtd">
<svg version="1.1" id="Layer_2" xmlns="http://www.w3.org/2000/svg" xmlns:xlink="http://www.w3.org/1999/xlink" x="0px" y="0px"
	 width="48px" height="48px" viewBox="0 0 48 48" enable-background="new 0 0 48 48" xml:space="preserve">
<g>
	<path fill="#010101" d="M42.2,6.02c-11.988-2.442-24.422-2.44-36.4,0C2.546,6.685-0.001,9.751,0,13v3c0,2.756,2.243,5,5,5h6.001
		C13.757,21,16,18.757,16,16v-1.089c5.268-0.467,10.736-0.467,16,0V16c0,1.324,0.523,2.576,1.473,3.526
		c0.95,0.95,2.203,1.474,3.526,1.474L37,20v1h6c2.757,0,5-2.244,5-5v-3C48,9.751,45.452,6.685,42.2,6.02z"/>
	<path fill="#010101" d="M17,26h-6c-0.552,0-1,0.448-1,1v4c0,0.552,0.448,1,1,1h6c0.552,0,1-0.448,1-1v-4C18,26.448,17.552,26,17,26
		z"/>
	<path fill="#010101" d="M27,26h-6c-0.552,0-1,0.448-1,1v4c0,0.552,0.448,1,1,1h6c0.552,0,1-0.448,1-1v-4C28,26.448,27.552,26,27,26
		z"/>
	<path fill="#010101" d="M37,26h-6c-0.552,0-1,0.448-1,1v4c0,0.552,0.448,1,1,1h6c0.552,0,1-0.448,1-1v-4C38,26.448,37.552,26,37,26
		z"/>
	<path fill="#010101" d="M17,34h-6c-0.552,0-1,0.448-1,1v4c0,0.552,0.448,1,1,1h6c0.552,0,1-0.448,1-1v-4C18,34.448,17.552,34,17,34
		z"/>
	<path fill="#010101" d="M27,34h-6c-0.552,0-1,0.448-1,1v4c0,0.552,0.448,1,1,1h6c0.552,0,1-0.448,1-1v-4C28,34.448,27.552,34,27,34
		z"/>
	<path fill="#010101" d="M37,34h-6c-0.552,0-1,0.448-1,1v4c0,0.552,0.448,1,1,1h6c0.552,0,1-0.448,1-1v-4C38,34.448,37.552,34,37,34
		z"/>
	<path fill="#010101" d="M17,42h-6c-0.552,0-1,0.448-1,1v4c0,0.552,0.448,1,1,1h6c0.552,0,1-0.448,1-1v-4C18,42.448,17.552,42,17,42
		z"/>
	<path fill="#010101" d="M27,42h-6c-0.552,0-1,0.448-1,1v4c0,0.552,0.448,1,1,1h6c0.552,0,1-0.448,1-1v-4C28,42.448,27.552,42,27,42
		z"/>
	<path fill="#010101" d="M37,42h-6c-0.552,0-1,0.448-1,1v4c0,0.552,0.448,1,1,1h6c0.552,0,1-0.448,1-1v-4C38,42.448,37.552,42,37,42
		z"/>
</g>
</svg>
