<?xml version="1.0" encoding="utf-8"?>
<!-- Generator: Adobe Illustrator 17.0.0, SVG Export Plug-In . SVG Version: 6.00 Build 0)  -->
<!DOCTYPE svg PUBLIC "-//W3C//DTD SVG 1.1//EN" "http://www.w3.org/Graphics/SVG/1.1/DTD/svg11.dtd">
<svg version="1.1" id="Layer_2" xmlns="http://www.w3.org/2000/svg" xmlns:xlink="http://www.w3.org/1999/xlink" x="0px" y="0px"
	 width="48px" height="48px" viewBox="0 0 48 48" enable-background="new 0 0 48 48" xml:space="preserve">
<g>
	<rect x="12" y="18" fill="#010101" width="24" height="18"/>
	<path fill="#010101" d="M12,40c0,2.206,1.794,4,4,4h16c2.206,0,4-1.794,4-4v-2H12V40z"/>
	<path fill="#010101" d="M32,8H16c-2.206,0-4,1.794-4,4v4h24v-4C36,9.794,34.206,8,32,8z M29,14H19c-0.552,0-1-0.448-1-1
		c0-0.552,0.448-1,1-1h10c0.552,0,1,0.448,1,1C30,13.552,29.552,14,29,14z"/>
	<path fill="#010101" d="M8,15c-1.105,0-2,0.896-2,2v24c0,1.105,0.895,2,2,2c1.104,0,2-0.895,2-2V17C10,15.896,9.104,15,8,15z"/>
	<path fill="#010101" d="M2,17c-1.105,0-2,0.896-2,2v20c0,1.105,0.895,2,2,2c1.104,0,2-0.895,2-2V19C4,17.896,3.104,17,2,17z"/>
	<path fill="#010101" d="M40,11c-1.105,0-2,0.896-2,2v24c0,1.105,0.895,2,2,2c1.104,0,2-0.895,2-2V13C42,11.896,41.104,11,40,11z"/>
	<path fill="#010101" d="M46,13c-1.105,0-2,0.896-2,2v20c0,1.105,0.895,2,2,2c1.104,0,2-0.895,2-2V15C48,13.896,47.104,13,46,13z"/>
</g>
</svg>
