<?xml version="1.0" encoding="utf-8"?>
<!-- Generator: Adobe Illustrator 17.1.0, SVG Export Plug-In . SVG Version: 6.00 Build 0)  -->
<!DOCTYPE svg PUBLIC "-//W3C//DTD SVG 1.0//EN" "http://www.w3.org/TR/2001/REC-SVG-20010904/DTD/svg10.dtd">
<svg version="1.0" id="Layer_1" xmlns="http://www.w3.org/2000/svg" xmlns:xlink="http://www.w3.org/1999/xlink" x="0px" y="0px"
	 width="48px" height="48px" viewBox="0 0 48 48" enable-background="new 0 0 48 48" xml:space="preserve">
<g>
	<path d="M17.5,7h-4V1c0-0.552-0.448-1-1-1c-0.552,0-1,0.448-1,1v6c-2.757,0-5,2.243-5,5v31c0,2.757,2.243,5,5,5h6
		c2.757,0,5-2.243,5-5V12C22.5,9.243,20.257,7,17.5,7z"/>
	<path d="M44.5,12h-21v32h21c1.654,0,3-1.346,3-3V15C47.5,13.346,46.154,12,44.5,12z M29.5,36h-2v-2h2V36z M29.5,32h-2v-2h2V32z
		 M29.5,28h-2v-2h2V28z M35.5,36h-2v-2h2V36z M35.5,32h-2v-2h2V32z M35.5,28h-2v-2h2V28z M41.5,36h-2v-2h2V36z M41.5,32h-2v-2h2V32z
		 M41.5,28h-2v-2h2V28z M41.5,22h-14v-6h14V22z"/>
	<path d="M0.5,15v26c0,1.654,1.122,3,2.5,3h2.5V12H3C1.622,12,0.5,13.346,0.5,15z"/>
</g>
</svg>
