<?xml version="1.0" encoding="utf-8"?>
<!-- Generator: Adobe Illustrator 17.0.0, SVG Export Plug-In . SVG Version: 6.00 Build 0)  -->
<!DOCTYPE svg PUBLIC "-//W3C//DTD SVG 1.1//EN" "http://www.w3.org/Graphics/SVG/1.1/DTD/svg11.dtd">
<svg version="1.1" id="Layer_2" xmlns="http://www.w3.org/2000/svg" xmlns:xlink="http://www.w3.org/1999/xlink" x="0px" y="0px"
	 width="48px" height="48px" viewBox="0 0 48 48" enable-background="new 0 0 48 48" xml:space="preserve">
<path fill="#010101" d="M33,0H15c-3.86,0-7,3.14-7,7v34c0,3.86,3.14,7,7,7h18c3.86,0,7-3.14,7-7V7C40,3.14,36.86,0,33,0z M19,4h10
	c0.552,0,1,0.448,1,1c0,0.552-0.448,1-1,1H19c-0.552,0-1-0.448-1-1C18,4.448,18.448,4,19,4z M18,42h-2v-2h2V42z M28,43
	c0,0.552-0.448,1-1,1h-6c-0.552,0-1-0.448-1-1v-4c0-0.552,0.448-1,1-1h6c0.552,0,1,0.448,1,1V43z M32,42h-2v-2h2V42z M36,33
	c0,1.654-1.346,3-3,3H15c-1.654,0-3-1.346-3-3V11c0-1.654,1.346-3,3-3h18c1.654,0,3,1.346,3,3V33z"/>
</svg>
