<?xml version="1.0" encoding="utf-8"?>
<!-- Generator: Adobe Illustrator 17.0.0, SVG Export Plug-In . SVG Version: 6.00 Build 0)  -->
<!DOCTYPE svg PUBLIC "-//W3C//DTD SVG 1.1//EN" "http://www.w3.org/Graphics/SVG/1.1/DTD/svg11.dtd">
<svg version="1.1" xmlns="http://www.w3.org/2000/svg" xmlns:xlink="http://www.w3.org/1999/xlink" x="0px" y="0px" width="60px"
	 height="60px" viewBox="0 0 60 60" enable-background="new 0 0 60 60" xml:space="preserve">
<g id="Layer_3">
	<g>
		<path fill="#010101" d="M50.001,32C53.309,32,56,29.309,56,26c0-3.309-2.691-6-5.999-6C46.692,20,44,22.691,44,26
			C44,29.309,46.692,32,50.001,32z"/>
		<path fill="#010101" d="M40.348,34v1c0,6.145,0.453,12.785,5.652,14.544V60h8V49.559c5.52-1.731,6-8.393,6-14.559v-1H40.348z"/>
		<path fill="#010101" d="M30.001,12C33.309,12,36,9.309,36,6c0-3.309-2.691-6-5.999-6C26.692,0,24,2.691,24,6
			C24,9.309,26.692,12,30.001,12z"/>
		<path fill="#010101" d="M20.348,15c0,6.244,0.453,12.988,5.652,14.756V40h8V29.771c5.52-1.74,6-8.507,6-14.771v-1H20.348V15z"/>
		<path fill="#010101" d="M10.001,32C13.309,32,16,29.309,16,26c0-3.309-2.691-6-5.999-6C6.692,20,4,22.691,4,26
			C4,29.309,6.692,32,10.001,32z"/>
		<path fill="#010101" d="M0,35c0,5.978,0.703,12.958,6,14.756V60h8V49.77c5.652-1.798,5.652-8.963,5.652-14.77v-1H0V35z"/>
	</g>
</g>
<g id="nyt_x5F_exporter_x5F_info" display="none">
</g>
</svg>
