<?xml version="1.0" encoding="utf-8"?>
<!-- Generator: Adobe Illustrator 17.0.0, SVG Export Plug-In . SVG Version: 6.00 Build 0)  -->
<!DOCTYPE svg PUBLIC "-//W3C//DTD SVG 1.1//EN" "http://www.w3.org/Graphics/SVG/1.1/DTD/svg11.dtd">
<svg version="1.1" xmlns="http://www.w3.org/2000/svg" xmlns:xlink="http://www.w3.org/1999/xlink" x="0px" y="0px" width="60px"
	 height="60px" viewBox="0 0 60 60" enable-background="new 0 0 60 60" xml:space="preserve">
<g id="Layer_3">
	<g>
		<path fill="#010101" d="M27.5,25.5c0-1.928-1.262-3.742-2.96-4.227l-6.04-1.549v-2.048c2.43-1.576,4.077-4.409,4.162-7.665
			c-0.612,0.16-1.294,0.227-1.962,0.227c-0.533,0-1.056-0.042-1.526-0.111c-1.685-0.249-3.069-0.863-3.965-1.737
			c-2.765,1.849-7.173,1.557-9.608,0.323C5.565,9.054,5.543,9.398,5.543,9.749c0,3.268,1.581,6.139,3.957,7.784v2.197l-5.852,1.55
			C1.883,21.786,0.5,23.62,0.5,25.457V27.5h27V25.5z"/>
		<path fill="#010101" d="M14.663,6.266c0.224-0.223,0.538-0.329,0.853-0.282C15.828,6.03,16.101,6.221,16.25,6.5
			c0.429,0.798,1.631,1.415,3.215,1.648c1.358,0.201,2.5,0.038,3.044-0.192C21.734,3.712,18.263,0.5,14.108,0.5
			c-3.764,0-6.961,2.639-8.107,6.29l0.076-0.107C7.715,7.84,12.467,8.46,14.663,6.266z"/>
		<path fill="#010101" d="M56.54,21.273l-6.04-1.549v-2.048c2.43-1.576,4.077-4.409,4.162-7.665
			c-0.612,0.16-1.294,0.227-1.962,0.227c-0.533,0-1.056-0.042-1.526-0.111c-1.685-0.249-3.069-0.863-3.965-1.737
			c-2.764,1.849-7.174,1.557-9.608,0.323c-0.035,0.341-0.057,0.685-0.057,1.036c0,3.268,1.581,6.139,3.957,7.784v2.197l-5.852,1.55
			c-1.765,0.505-3.148,2.339-3.148,4.176V27.5h27v-2C59.5,23.572,58.238,21.758,56.54,21.273z"/>
		<path fill="#010101" d="M46.663,6.266c0.223-0.223,0.54-0.329,0.853-0.282C47.828,6.03,48.101,6.221,48.25,6.5
			c0.429,0.798,1.631,1.415,3.215,1.648c1.358,0.201,2.5,0.038,3.044-0.192C53.734,3.712,50.263,0.5,46.108,0.5
			c-3.764,0-6.961,2.639-8.107,6.29l0.076-0.107C39.715,7.84,44.467,8.46,46.663,6.266z"/>
		<path fill="#010101" d="M21.001,38.79l0.076-0.107c1.639,1.157,6.391,1.776,8.586-0.417c0.224-0.224,0.538-0.331,0.853-0.282
			c0.312,0.046,0.585,0.237,0.735,0.516c0.429,0.798,1.631,1.415,3.215,1.648c1.358,0.202,2.499,0.038,3.044-0.192
			c-0.775-4.245-4.246-7.456-8.401-7.456C25.345,32.5,22.147,35.139,21.001,38.79z"/>
		<path fill="#010101" d="M39.54,53.273l-6.04-1.549v-2.048c2.43-1.576,4.077-4.409,4.162-7.665
			c-0.612,0.16-1.294,0.227-1.962,0.227c-0.533,0-1.056-0.042-1.526-0.111c-1.686-0.249-3.069-0.863-3.965-1.737
			c-2.765,1.848-7.174,1.557-9.608,0.324c-0.035,0.341-0.057,0.685-0.057,1.036c0,3.268,1.581,6.139,3.957,7.784v2.197l-5.852,1.55
			c-1.765,0.505-3.148,2.339-3.148,4.176V59.5h27v-2C42.5,55.572,41.238,53.758,39.54,53.273z"/>
		<path fill="#010101" d="M16.337,37.773c0.391-0.391,0.391-1.024,0-1.414l-6.304-6.305c-0.391-0.391-1.023-0.391-1.414,0
			c-0.391,0.391-0.391,1.023,0,1.414l6.304,6.305c0.195,0.195,0.451,0.293,0.707,0.293C15.886,38.065,16.142,37.968,16.337,37.773z"
			/>
		<path fill="#010101" d="M48.967,30.054l-6.304,6.305c-0.391,0.391-0.391,1.023,0,1.414c0.195,0.195,0.451,0.293,0.707,0.293
			c0.256,0,0.512-0.098,0.707-0.293l6.304-6.305c0.391-0.391,0.391-1.024,0-1.414C49.99,29.663,49.357,29.663,48.967,30.054z"/>
	</g>
</g>
<g id="nyt_x5F_exporter_x5F_info" display="none">
</g>
</svg>
