<?xml version="1.0" encoding="utf-8"?>
<!-- Generator: Adobe Illustrator 17.0.0, SVG Export Plug-In . SVG Version: 6.00 Build 0)  -->
<!DOCTYPE svg PUBLIC "-//W3C//DTD SVG 1.1//EN" "http://www.w3.org/Graphics/SVG/1.1/DTD/svg11.dtd">
<svg version="1.1" xmlns="http://www.w3.org/2000/svg" xmlns:xlink="http://www.w3.org/1999/xlink" x="0px" y="0px" width="60px"
	 height="60px" viewBox="0 0 60 60" enable-background="new 0 0 60 60" xml:space="preserve">
<g id="Layer_3">
	<g>
		<path fill="#010101" d="M0,30.224c-0.002,1.732-0.005,3.886,1.142,5.035C1.39,35.507,1.679,35.695,2,35.82V46h10V35.818
			c0.663-0.258,1.364-0.854,1.717-2.173c0.284-1.062,0.284-2.311,0.283-3.413V22H0V30.224z"/>
		<path fill="#010101" d="M46,22v8c0,2.305,0.798,4.106,2,4.748V46h10V34.734c1.267-0.713,1.998-2.75,2-4.734v-8H46z"/>
		<path fill="#010101" d="M20,36c0,3.283,1.507,5.462,4,5.913V56h12V41.913c2.493-0.451,4-2.63,4-5.913V22H20V36z"/>
		<path fill="#010101" d="M53,20c2.757,0,5-2.243,5-5c0-2.757-2.243-5-5-5c-2.757,0-5,2.243-5,5C48,17.757,50.243,20,53,20z"/>
		<path fill="#010101" d="M7,20c2.757,0,5-2.243,5-5c0-2.757-2.243-5-5-5s-5,2.243-5,5C2,17.757,4.243,20,7,20z"/>
		<path fill="#010101" d="M30,20c4.411,0,8-3.589,8-8c0-4.411-3.589-8-8-8s-8,3.589-8,8C22,16.411,25.589,20,30,20z"/>
	</g>
</g>
<g id="nyt_x5F_exporter_x5F_info" display="none">
</g>
</svg>
