<?xml version="1.0" encoding="utf-8"?>
<!-- Generator: Adobe Illustrator 17.1.0, SVG Export Plug-In . SVG Version: 6.00 Build 0)  -->
<!DOCTYPE svg PUBLIC "-//W3C//DTD SVG 1.0//EN" "http://www.w3.org/TR/2001/REC-SVG-20010904/DTD/svg10.dtd">
<svg version="1.0" id="Layer_1" xmlns="http://www.w3.org/2000/svg" xmlns:xlink="http://www.w3.org/1999/xlink" x="0px" y="0px"
	 width="60px" height="60px" viewBox="0 0 60 60" enable-background="new 0 0 60 60" xml:space="preserve">
<g>
	<path d="M8.5,6c0-2.61,2.506-3,4-3h43c0.552,0,1-0.448,1-1s-0.448-1-1-1h-43c-3.701,0-6,1.916-6,5v8.5h4c1.103,0,2,0.897,2,2
		s-0.897,2-2,2h-4v0.182v4.193h4c1.103,0,2,0.897,2,2s-0.897,2-2,2h-4v4.375h4c1.103,0,2,0.897,2,2s-0.897,2-2,2h-4v4.375h4
		c1.103,0,2,0.897,2,2s-0.897,2-2,2h-4V48h4c1.103,0,2,0.897,2,2s-0.897,2-2,2h-4v1c0,3.364,2.636,6,6,6h44V9h-44
		C11.006,9,8.5,8.61,8.5,6z M33.615,19c3.927,0,7.237,2.872,8.244,6.771c-0.961,0.543-2.363,0.795-3.655,0.606
		c-1.178-0.174-2.07-0.675-2.447-1.377c-0.149-0.279-0.422-0.47-0.735-0.516c-0.312-0.048-0.628,0.059-0.853,0.282
		c-1.033,1.032-2.643,1.599-4.41,1.542c-1.513-0.045-2.966-0.554-4.118-1.412C26.889,21.451,29.989,19,33.615,19z M19.224,43.957
		c0-1.968,1.396-3.451,3.931-4.176l5.677-1.622v-2.24c-2.28-1.664-3.782-4.481-3.782-7.67c0-0.436,0.038-0.861,0.092-1.281
		c2.976,1.801,6.931,1.815,9.578-0.06c0.766,0.75,1.862,1.253,3.192,1.448c0.394,0.058,0.793,0.086,1.19,0.086
		c1.081,0,2.14-0.215,3.058-0.599c0.005,0.135,0.019,0.269,0.019,0.405c0,3.189-1.502,6.006-3.782,7.67v2.24l5.674,1.622
		c1.767,0.504,3.152,2.338,3.152,4.176V49h-28V43.957z"/>
	<path d="M12.63,5c-0.552,0-1,0.448-1,1s0.448,1,1,1h40.348c0.552,0,1-0.448,1-1s-0.448-1-1-1H12.63z"/>
	<path d="M4.5,17.5h6c0.551,0,1-0.449,1-1s-0.449-1-1-1h-6c-0.551,0-1,0.449-1,1S3.949,17.5,4.5,17.5z"/>
	<path d="M4.5,25.875h6c0.551,0,1-0.449,1-1c0-0.551-0.449-1-1-1h-6c-0.551,0-1,0.449-1,1C3.5,25.426,3.949,25.875,4.5,25.875z"/>
	<path d="M4.5,34.25h6c0.551,0,1-0.449,1-1c0-0.551-0.449-1-1-1h-6c-0.551,0-1,0.449-1,1C3.5,33.801,3.949,34.25,4.5,34.25z"/>
	<path d="M4.5,42.625h6c0.551,0,1-0.449,1-1c0-0.551-0.449-1-1-1h-6c-0.551,0-1,0.449-1,1C3.5,42.176,3.949,42.625,4.5,42.625z"/>
	<path d="M10.5,51c0.551,0,1-0.449,1-1c0-0.551-0.449-1-1-1H7.224H4.5c-0.551,0-1,0.449-1,1c0,0.551,0.449,1,1,1h2.724H10.5z"/>
</g>
</svg>
