<?xml version="1.0" encoding="utf-8"?>
<!-- Generator: Adobe Illustrator 17.0.0, SVG Export Plug-In . SVG Version: 6.00 Build 0)  -->
<!DOCTYPE svg PUBLIC "-//W3C//DTD SVG 1.1//EN" "http://www.w3.org/Graphics/SVG/1.1/DTD/svg11.dtd">
<svg version="1.1" xmlns="http://www.w3.org/2000/svg" xmlns:xlink="http://www.w3.org/1999/xlink" x="0px" y="0px" width="60px"
	 height="60px" viewBox="0 0 60 60" enable-background="new 0 0 60 60" xml:space="preserve">
<g id="Layer_3">
	<path fill="#010101" d="M59.96,1.608c-0.012-0.059-0.034-0.114-0.051-0.171c-0.02-0.068-0.035-0.136-0.062-0.202
		c-0.028-0.067-0.066-0.128-0.101-0.191c-0.028-0.051-0.05-0.104-0.083-0.153c-0.147-0.22-0.335-0.408-0.555-0.554
		c-0.046-0.031-0.097-0.052-0.146-0.079c-0.065-0.036-0.129-0.076-0.199-0.105c-0.063-0.026-0.13-0.041-0.195-0.061
		c-0.059-0.017-0.116-0.04-0.178-0.053c-0.127-0.025-0.255-0.038-0.384-0.039C58.005,0.001,58.002,0,58,0H40.956
		c-1.104,0-2,0.896-2,2c0,1.105,0.896,2,2,2h12.215L34.89,22.281c-3.69-3.059-8.424-4.902-13.58-4.902C9.56,17.379,0,26.94,0,38.69
		C0,50.44,9.56,60,21.31,60c11.75,0,21.31-9.56,21.31-21.31c0-5.157-1.843-9.89-4.902-13.58L56,6.828v12.215c0,1.104,0.895,2,2,2
		c1.104,0,2-0.896,2-2V2C60,1.869,59.986,1.738,59.96,1.608z M38.621,38.69c0,9.545-7.766,17.31-17.31,17.31
		C11.765,56,4,48.235,4,38.69c0-9.545,7.765-17.31,17.31-17.31C30.855,21.379,38.621,29.145,38.621,38.69z"/>
</g>
<g id="nyt_x5F_exporter_x5F_info" display="none">
</g>
</svg>
