<?xml version="1.0" encoding="utf-8"?>
<!-- Generator: Adobe Illustrator 17.0.0, SVG Export Plug-In . SVG Version: 6.00 Build 0)  -->
<!DOCTYPE svg PUBLIC "-//W3C//DTD SVG 1.1//EN" "http://www.w3.org/Graphics/SVG/1.1/DTD/svg11.dtd">
<svg version="1.1" xmlns="http://www.w3.org/2000/svg" xmlns:xlink="http://www.w3.org/1999/xlink" x="0px" y="0px" width="60px"
	 height="60px" viewBox="0 0 60 60" enable-background="new 0 0 60 60" xml:space="preserve">
<g id="Layer_3">
	<path fill="#010101" d="M49.044,19.044C49.044,8.543,40.501,0,30,0C19.499,0,10.956,8.543,10.956,19.044
		c0,9.606,7.156,17.552,16.414,18.84v10.392h-4.759c-1.104,0-2,0.896-2,2s0.896,2,2,2h4.759V58c0,1.105,0.896,2,2,2s2-0.895,2-2
		v-5.724h5.724c1.105,0,2-0.896,2-2s-0.895-2-2-2H31.37V38.018C41.231,37.31,49.044,29.082,49.044,19.044z M14.956,19.044
		C14.956,10.749,21.705,4,30,4c8.295,0,15.044,6.749,15.044,15.044c0,8.295-6.749,15.043-15.044,15.043
		C21.705,34.087,14.956,27.338,14.956,19.044z"/>
</g>
<g id="nyt_x5F_exporter_x5F_info" display="none">
</g>
</svg>
