<?xml version="1.0" encoding="utf-8"?>
<!-- Generator: Adobe Illustrator 17.0.0, SVG Export Plug-In . SVG Version: 6.00 Build 0)  -->
<!DOCTYPE svg PUBLIC "-//W3C//DTD SVG 1.1//EN" "http://www.w3.org/Graphics/SVG/1.1/DTD/svg11.dtd">
<svg version="1.1" xmlns="http://www.w3.org/2000/svg" xmlns:xlink="http://www.w3.org/1999/xlink" x="0px" y="0px" width="60px"
	 height="60px" viewBox="0 0 60 60" enable-background="new 0 0 60 60" xml:space="preserve">
<g id="Layer_3">
	<g>
		<path fill="#010101" d="M50,14V8c0-0.552-0.448-1-1-1H1C0.448,7,0,7.448,0,8v34c0,0.552,0.448,1,1,1h7V16c0-0.552,0.448-1,1-1
			h41.004L50,14z"/>
		<path fill="#010101" d="M59,17H11h-1v1v34c0,0.552,0.448,1,1,1h10c0.552,0,1-0.448,1-1v-2c0-1.369,0.52-3,3-3c2.479,0,3,1.631,3,3
			v2c0,0.552,0.448,1,1,1h12c0.552,0,1-0.448,1-1v-2c0-1.369,0.52-3,3-3c2.479,0,3,1.631,3,3v2c0,0.552,0.448,1,1,1h10
			c0.552,0,1-0.448,1-1V18C60,17.448,59.552,17,59,17z M40.087,25H46v2h-5.913V25z M34,41H18v-1c0-3.003,1.277-6.157,4.605-7.421
			c-0.856-0.865-1.387-2.052-1.387-3.362c0-2.637,2.146-4.782,4.783-4.782c2.637,0,4.783,2.145,4.783,4.782
			c0,1.31-0.531,2.497-1.387,3.362C32.723,33.843,34,36.997,34,40V41z M52,39H40.087v-2H52V39z M52,33H40v-2h12V33z"/>
	</g>
</g>
<g id="nyt_x5F_exporter_x5F_info" display="none">
</g>
</svg>
