<?xml version="1.0" encoding="utf-8"?>
<!-- Generator: Adobe Illustrator 17.0.0, SVG Export Plug-In . SVG Version: 6.00 Build 0)  -->
<!DOCTYPE svg PUBLIC "-//W3C//DTD SVG 1.1//EN" "http://www.w3.org/Graphics/SVG/1.1/DTD/svg11.dtd">
<svg version="1.1" xmlns="http://www.w3.org/2000/svg" xmlns:xlink="http://www.w3.org/1999/xlink" x="0px" y="0px" width="60px"
	 height="60px" viewBox="0 0 60 60" enable-background="new 0 0 60 60" xml:space="preserve">
<g id="Layer_3">
	<path fill="#010101" d="M59,7H1C0.448,7,0,7.448,0,8v44c0,0.552,0.448,1,1,1h10c0.552,0,1-0.448,1-1v-3c0-2.43,1.57-4,4-4
		c2.43,0,4,1.57,4,4v3c0,0.552,0.448,1,1,1h18c0.552,0,1-0.448,1-1v-3c0-2.43,1.57-4,4-4c2.43,0,4,1.57,4,4v3c0,0.552,0.448,1,1,1
		h10c0.552,0,1-0.448,1-1V8C60,7.448,59.552,7,59,7z M32.521,17H42v2h-9.479V17z M28,36c0,0.552-0.448,1-1,1H7c-0.552,0-1-0.448-1-1
		v-4.304c0-0.227,0.077-0.447,0.219-0.624c0.125-0.156,2.932-3.596,7.781-4.028V25.62c-0.98-0.584-2.652-2.053-2.652-5.272
		c0-2.55,0-6.043,6.043-6.043c6.044,0,6.044,3.493,6.044,6.043c0,3.176-1.523,4.648-2.435,5.245v1.452
		c4.848,0.443,6.798,4.021,6.884,4.183C27.96,31.372,28,31.533,28,31.696V36z M52,37H32.521v-2H52V37z M52,31H32.521v-2H52V31z
		 M52,25H32.521v-2H52V25z"/>
</g>
<g id="nyt_x5F_exporter_x5F_info" display="none">
</g>
</svg>
