<?xml version="1.0" encoding="utf-8"?>
<!-- Generator: Adobe Illustrator 17.0.0, SVG Export Plug-In . SVG Version: 6.00 Build 0)  -->
<!DOCTYPE svg PUBLIC "-//W3C//DTD SVG 1.1//EN" "http://www.w3.org/Graphics/SVG/1.1/DTD/svg11.dtd">
<svg version="1.1" xmlns="http://www.w3.org/2000/svg" xmlns:xlink="http://www.w3.org/1999/xlink" x="0px" y="0px" width="60px"
	 height="60px" viewBox="0 0 60 60" enable-background="new 0 0 60 60" xml:space="preserve">
<g id="Layer_3">
	<g>
		<path fill="#010101" d="M0,56.391c0,0.552,0.448,1,1,1h58c0.552,0,1-0.448,1-1v-29H0V56.391z M31,33.391h11c0.552,0,1,0.448,1,1
			c0,0.552-0.448,1-1,1H31c-0.552,0-1-0.448-1-1C30,33.839,30.448,33.391,31,33.391z M31,39.391h15c0.552,0,1,0.448,1,1
			c0,0.552-0.448,1-1,1H31c-0.552,0-1-0.448-1-1C30,39.839,30.448,39.391,31,39.391z M31,45.391h13c0.552,0,1,0.448,1,1
			c0,0.552-0.448,1-1,1H31c-0.552,0-1-0.448-1-1C30,45.839,30.448,45.391,31,45.391z M14.285,41.259
			c-1.018-0.878-1.677-2.16-1.677-3.607c0-2.637,2.145-4.782,4.783-4.782s4.783,2.145,4.783,4.782c0,1.447-0.659,2.73-1.678,3.608
			c2.529,1.45,4.147,4.714,4.198,8.926c0.014,0.066,0.022,0.135,0.022,0.206c0,0.552-0.448,1-1,1c-0.007,0-0.013,0-0.02,0H11.087
			c-0.552,0-1-0.448-1-1C10.087,46.08,11.715,42.732,14.285,41.259z"/>
		<path fill="#010101" d="M59,15.391H40v7c0,0.552-0.448,1-1,1H21c-0.552,0-1-0.448-1-1v-7H1c-0.552,0-1,0.448-1,1v9h60v-9
			C60,15.839,59.552,15.391,59,15.391z"/>
		<path fill="#010101" d="M37,21.391h1L37.98,9.717c-0.037-0.183-0.084-0.361-0.13-0.539c-0.997-3.836-4.217-6.57-7.85-6.57
			c-3.238,0-6.148,2.173-7.449,5.362c-0.226,0.555-0.409,1.136-0.531,1.746C22.006,9.781,22,9.847,22,9.913v10.479v1h1H37z"/>
	</g>
</g>
<g id="nyt_x5F_exporter_x5F_info" display="none">
</g>
</svg>
