<?xml version="1.0" encoding="utf-8"?>
<!-- Generator: Adobe Illustrator 17.0.0, SVG Export Plug-In . SVG Version: 6.00 Build 0)  -->
<!DOCTYPE svg PUBLIC "-//W3C//DTD SVG 1.1//EN" "http://www.w3.org/Graphics/SVG/1.1/DTD/svg11.dtd">
<svg version="1.1" xmlns="http://www.w3.org/2000/svg" xmlns:xlink="http://www.w3.org/1999/xlink" x="0px" y="0px" width="60px"
	 height="60px" viewBox="0 0 60 60" enable-background="new 0 0 60 60" xml:space="preserve">
<g id="Layer_3">
	<g>
		<path fill="#010101" d="M14.774,50H8v9c0,0.552,0.448,1,1,1h42c0.552,0,1-0.448,1-1v-9h-7.649H14.774z M45,56H35v-2h10V56z"/>
		<path fill="#010101" d="M51,10.261H36V7c0-3.259-0.795-7-7-7c-6.205,0-7,3.741-7,7v3.261H9c-0.552,0-1,0.448-1,1V48h6.807
			l0.006-0.39c0-1.771,1.316-3.442,3.129-3.96L24,42.21v-3.075c-1.833-1.698-3-4.211-3-7.017c0-0.118,0.012-0.233,0.016-0.35
			c2.783,1.078,7.119,0.682,9.65-1.014c1.243,1.187,3.249,1.628,4.842,1.628c0.042,0,0.083,0,0.125-0.001
			c0.95-0.014,1.791-0.179,2.489-0.459c0.001,0.066,0.009,0.13,0.009,0.196c0,3.346-1.659,6.274-4.13,7.898v2.166l7.113,1.449
			c1.942,0.552,3.229,2.193,3.204,4.008L44.322,48H52V11.261C52,10.709,51.552,10.261,51,10.261z M29,4c1.654,0,3,1.346,3,3
			c0,1.654-1.346,3-3,3c-1.654,0-3-1.346-3-3C26,5.346,27.346,4,29,4z M35.603,30.382c-1.745,0.038-3.411-0.61-3.896-1.513
			c-0.149-0.279-0.422-0.47-0.735-0.516c-0.311-0.048-0.629,0.059-0.853,0.282c-1.913,1.912-6.717,2.194-8.814,1.075
			c0.985-3.934,4.31-6.841,8.261-6.841c3.988,0,7.338,2.963,8.287,6.954C37.454,30.118,36.666,30.367,35.603,30.382z"/>
	</g>
</g>
<g id="nyt_x5F_exporter_x5F_info" display="none">
</g>
</svg>
