<?xml version="1.0" encoding="utf-8"?>
<!-- Generator: Adobe Illustrator 17.0.0, SVG Export Plug-In . SVG Version: 6.00 Build 0)  -->
<!DOCTYPE svg PUBLIC "-//W3C//DTD SVG 1.1//EN" "http://www.w3.org/Graphics/SVG/1.1/DTD/svg11.dtd">
<svg version="1.1" xmlns="http://www.w3.org/2000/svg" xmlns:xlink="http://www.w3.org/1999/xlink" x="0px" y="0px" width="60px"
	 height="60px" viewBox="0 0 60 60" enable-background="new 0 0 60 60" xml:space="preserve">
<g id="Layer_3">
	<g>
		<path fill="#010101" d="M54,0H6C5.448,0,5,0.448,5,1v58c0,0.552,0.448,1,1,1h48c0.552,0,1-0.448,1-1V1C55,0.448,54.552,0,54,0z
			 M53,47.826v9V58H7v-1.174v-9V2h46V47.826z"/>
		<path fill="#010101" d="M25,37.347c-0.896-0.721-2.581-2.598-2.767-6.61c-1.039-0.596-1.634-2.111-1.634-3.587
			c0-0.806,0.186-1.52,0.536-2.065c0.21-0.327,0.475-0.587,0.783-0.776c-0.002-0.003-0.003-0.007-0.004-0.01
			c-0.705-1.661-1.769-4.171-0.751-5.708c0.349-0.528,1.114-1.16,2.657-1.041c1.299-2.696,5.121-3.679,8.224-3.679
			c3.414,0,7.697,1.189,8.535,4.54c0.607,2.43-0.27,4.63-0.838,5.923c0.282,0.185,0.526,0.435,0.721,0.744
			c0.337,0.536,0.515,1.237,0.515,2.028c0,1.494-0.599,3.027-1.643,3.629c-0.154,3.995-1.556,5.845-2.333,6.57v3.829l14,5.25V4.826
			c0-0.552-0.448-1-1-1H10c-0.552,0-1,0.448-1,1v41.612l16-5.333V37.347z"/>
	</g>
</g>
<g id="nyt_x5F_exporter_x5F_info" display="none">
</g>
</svg>
