<?xml version="1.0" encoding="utf-8"?>
<!-- Generator: Adobe Illustrator 17.0.0, SVG Export Plug-In . SVG Version: 6.00 Build 0)  -->
<!DOCTYPE svg PUBLIC "-//W3C//DTD SVG 1.1//EN" "http://www.w3.org/Graphics/SVG/1.1/DTD/svg11.dtd">
<svg version="1.1" xmlns="http://www.w3.org/2000/svg" xmlns:xlink="http://www.w3.org/1999/xlink" x="0px" y="0px" width="60px"
	 height="60px" viewBox="0 0 60 60" enable-background="new 0 0 60 60" xml:space="preserve">
<g id="Layer_3">
	<g>
		<path fill="#010101" d="M41.586,38.584c-0.893-0.126-1.803-0.257-2.717-0.393c2.443-2.157,4.42-5.073,4.704-8.579
			c1.89-0.528,2.872-2.602,2.872-4.654c0-0.657-0.112-1.311-0.312-1.921l1.272-9.327c0.02-0.197,0.442-4.867-3.071-8.749
			C41.357,1.669,36.54,0,30.019,0c-6.52,0-11.337,1.669-14.315,4.96c-3.513,3.881-3.091,8.551-3.067,8.784l1.255,9.209
			c-0.217,0.633-0.338,1.316-0.338,2.003c0,2.052,0.982,4.126,2.872,4.654c0.285,3.509,2.264,6.426,4.709,8.584
			c-0.847,0.126-1.693,0.246-2.524,0.363C9.461,39.842,0,41.171,0,51v9h28V44c0-0.552,0.448-1,1-1c0.552,0,1,0.448,1,1v16h30v-9
			C60,41.179,51.056,39.919,41.586,38.584z M19,50h-3v3c0,0.552-0.448,1-1,1c-0.552,0-1-0.448-1-1v-3h-3c-0.552,0-1-0.448-1-1
			c0-0.552,0.448-1,1-1h3v-3c0-0.552,0.448-1,1-1c0.552,0,1,0.448,1,1v3h3c0.552,0,1,0.448,1,1C20,49.552,19.552,50,19,50z
			 M35.043,55.217c-0.696,0-1.261-0.564-1.261-1.261c0-0.696,0.564-1.261,1.261-1.261c0.696,0,1.261,0.564,1.261,1.261
			C36.304,54.653,35.739,55.217,35.043,55.217z M35.043,50.174c-0.696,0-1.261-0.564-1.261-1.261s0.564-1.261,1.261-1.261
			c0.696,0,1.261,0.564,1.261,1.261S35.739,50.174,35.043,50.174z M30,40.348c-3.348,0-11.609-4.627-11.609-11.608
			c0-0.552-0.448-1-1-1c-1.453,0-1.836-1.82-1.836-2.783s0.384-2.783,1.836-2.783c0.476,0,0.886-0.336,0.981-0.803l1.109-5.51
			c7.527-0.162,9.489-2.564,10.533-4.246c1.04,1.682,2.997,4.083,10.521,4.246l1.093,5.508c0.093,0.468,0.504,0.805,0.981,0.805
			c1.453,0,1.837,1.82,1.837,2.783s-0.384,2.783-1.837,2.783c-0.552,0-1,0.448-1,1C41.609,35.721,33.348,40.348,30,40.348z"/>
		<path fill="#010101" d="M25.283,21.437l-0.327,0.002l-0.326-0.002c-0.95-0.007-1.932-0.015-2.603,0.65
			c-0.393,0.39-0.593,0.933-0.593,1.612c0,0.552,0.448,1,1,1c0.552,0,1-0.448,1-1c0-0.11,0.012-0.173,0.007-0.189
			c0.187-0.081,0.776-0.076,1.172-0.073l0.342,0.002l0.342-0.002c0.416-0.004,1.042-0.008,1.154,0.037c0,0,0.026,0.06,0.026,0.226
			c0,0.552,0.448,1,1,1c0.552,0,1-0.448,1-1c0-0.68-0.199-1.222-0.593-1.612C27.215,21.421,26.231,21.427,25.283,21.437z"/>
		<path fill="#010101" d="M35.37,21.437l-0.327,0.002l-0.327-0.002c-0.946-0.007-1.932-0.015-2.603,0.65
			c-0.394,0.39-0.593,0.933-0.593,1.612c0,0.552,0.448,1,1,1c0.552,0,1-0.448,1-1c0-0.11,0.012-0.173,0.007-0.189
			c0.187-0.081,0.777-0.076,1.173-0.073l0.342,0.002l0.342-0.002c0.414-0.004,1.041-0.008,1.153,0.037c0,0,0.026,0.06,0.026,0.226
			c0,0.552,0.448,1,1,1c0.552,0,1-0.448,1-1c0-0.68-0.199-1.222-0.593-1.612C37.302,21.422,36.318,21.428,35.37,21.437z"/>
	</g>
</g>
<g id="nyt_x5F_exporter_x5F_info" display="none">
</g>
</svg>
