<?xml version="1.0" encoding="utf-8"?>
<!-- Generator: Adobe Illustrator 17.0.0, SVG Export Plug-In . SVG Version: 6.00 Build 0)  -->
<!DOCTYPE svg PUBLIC "-//W3C//DTD SVG 1.1//EN" "http://www.w3.org/Graphics/SVG/1.1/DTD/svg11.dtd">
<svg version="1.1" xmlns="http://www.w3.org/2000/svg" xmlns:xlink="http://www.w3.org/1999/xlink" x="0px" y="0px" width="60px"
	 height="60px" viewBox="0 0 60 60" enable-background="new 0 0 60 60" xml:space="preserve">
<g id="Layer_3">
	<path fill="#010101" d="M59.707,58.293L41.133,39.72c3.882-4.222,6.258-9.85,6.258-16.024C47.391,10.63,36.761,0,23.695,0
		C10.63,0,0,10.63,0,23.696s10.63,23.696,23.695,23.696c6.174,0,11.802-2.375,16.024-6.258l18.574,18.573
		C58.488,59.902,58.744,60,59,60s0.512-0.098,0.707-0.293C60.098,59.316,60.098,58.684,59.707,58.293z M34.61,38.702
		c-0.525-0.25-1.043-0.501-1.56-0.753c-1.501-0.73-2.919-1.419-4.421-2.02C28.249,35.777,28,35.409,28,35v-5
		c0-0.412,0.253-0.782,0.637-0.932c-0.007,0,1.624-0.883,1.624-5.373c0-0.552,0.448-1,1-1c0.245-0.101,0.792-1.292,0.586-2.39
		c-0.122-0.653-0.38-0.653-0.505-0.653c-0.552,0-1-0.448-1-1c0-0.346,0.143-0.668,0.38-1.201c0.489-1.102,1.308-2.945,0.83-4.861
		c-0.52-2.078-3.782-3.024-6.594-3.025h-0.001c-2.812,0-6.076,0.947-6.595,3.025c-0.13,0.52-0.645,0.845-1.17,0.737
		c-0.947-0.193-1.347-0.062-1.436,0.045c-0.312,0.382-0.005,1.675,0.913,3.841c0.329,0.775,0.462,1.104,0.462,1.439
		c0,0.552-0.448,1-1,1c-0.144,0-0.443,0-0.573,0.696c-0.206,1.1,0.326,2.245,0.599,2.351c0.552,0,0.974,0.444,0.974,0.996
		c0,4.515,2.096,5.323,2.185,5.356C19.711,29.194,20,29.579,20,30v5c0,0.409-0.249,0.777-0.629,0.929L18.9,36.117
		c-2.004,0.8-4.274,1.707-6.124,2.587l-0.859-1.806c1.858-0.884,4.091-1.78,6.083-2.575v-3.717
		c-0.984-0.628-2.664-2.263-2.852-6.173c-1.038-0.596-1.634-2.113-1.634-3.589c0-0.805,0.185-1.519,0.535-2.064
		c0.21-0.327,0.475-0.587,0.782-0.775c-0.002-0.003-0.003-0.007-0.004-0.01c-0.739-1.743-1.856-4.377-0.62-5.888
		c0.538-0.657,1.383-0.947,2.524-0.861c1.298-2.697,5.121-3.68,8.225-3.68h0.001c3.414,0.001,7.697,1.19,8.535,4.54
		c0.607,2.43-0.271,4.631-0.838,5.923c0.283,0.185,0.527,0.435,0.721,0.745c0.337,0.536,0.515,1.237,0.515,2.029
		c0,1.493-0.598,3.026-1.642,3.628c-0.147,3.822-1.434,5.455-2.247,6.11v3.789c1.347,0.567,2.655,1.203,3.925,1.821
		c0.512,0.249,1.025,0.499,1.545,0.746L34.61,38.702z"/>
</g>
<g id="nyt_x5F_exporter_x5F_info" display="none">
</g>
</svg>
