<?xml version="1.0" encoding="utf-8"?>
<!-- Generator: Adobe Illustrator 17.0.0, SVG Export Plug-In . SVG Version: 6.00 Build 0)  -->
<!DOCTYPE svg PUBLIC "-//W3C//DTD SVG 1.1//EN" "http://www.w3.org/Graphics/SVG/1.1/DTD/svg11.dtd">
<svg version="1.1" xmlns="http://www.w3.org/2000/svg" xmlns:xlink="http://www.w3.org/1999/xlink" x="0px" y="0px" width="60px"
	 height="60px" viewBox="0 0 60 60" enable-background="new 0 0 60 60" xml:space="preserve">
<g id="Layer_3">
	<g>
		<path fill="#010101" d="M18.284,38.589C9.295,39.807,0,41.066,0,50.793V60h28V44.111c-2.987-0.64-6.648-2.59-9.428-5.562
			C18.477,38.562,18.379,38.576,18.284,38.589z M20,49c0,0.552-0.448,1-1,1h-3v3c0,0.552-0.448,1-1,1c-0.552,0-1-0.448-1-1v-3h-3
			c-0.552,0-1-0.448-1-1c0-0.552,0.448-1,1-1h3v-3c0-0.552,0.448-1,1-1c0.552,0,1,0.448,1,1v3h3C19.552,48,20,48.448,20,49z"/>
		<path fill="#010101" d="M41.926,38.617c-0.168-0.023-0.342-0.048-0.511-0.071C37.966,42.23,33.178,44.348,30,44.348V60h30v-9.207
			C60,41.077,51.221,39.882,41.926,38.617z M35.043,55.218c-0.697,0-1.261-0.565-1.261-1.261c0-0.696,0.565-1.261,1.261-1.261
			c0.697,0,1.261,0.565,1.261,1.261C36.305,54.653,35.74,55.218,35.043,55.218z M35.043,50.174c-0.697,0-1.261-0.565-1.261-1.261
			s0.565-1.261,1.261-1.261c0.697,0,1.261,0.565,1.261,1.261S35.74,50.174,35.043,50.174z"/>
		<path fill="#010101" d="M42.978,32.354c0.003-0.008,0.01-0.015,0.013-0.023c0.003-0.008,0.004-0.016,0.007-0.024
			c0.002-0.006,0.005-0.012,0.008-0.018l0.036-0.111l0.233-0.717c0.027-0.082,0.026-0.164,0.031-0.247
			c0.054-0.23,0.094-0.461,0.133-0.693c0.051-0.303,0.109-0.605,0.135-0.91c0.483-0.135,0.904-0.372,1.267-0.683
			c1.058-0.905,1.605-2.443,1.605-3.971c0-0.657-0.112-1.309-0.311-1.919l1.223-9.262c0.016-0.09,0.36-2.241-0.869-4.71
			c-1.095-2.199-3.701-5.107-9.894-6.502C34.849,0.977,32.54,0,30,0c-2.54,0-4.849,0.977-6.595,2.564
			c-6.192,1.395-8.799,4.303-9.894,6.502c-1.229,2.47-0.884,4.62-0.873,4.679l1.257,9.212c-0.217,0.633-0.34,1.314-0.34,2.001
			c0,1.529,0.547,3.068,1.607,3.973c0.363,0.31,0.784,0.547,1.266,0.681c0.025,0.306,0.083,0.608,0.135,0.912
			c0.024,0.145,0.034,0.291,0.065,0.436c0.098,0.462,0.224,0.92,0.382,1.372c0.001,0.002,0.002,0.004,0.003,0.006l0.001,0.006
			c0.8,2.277,2.314,4.263,4.093,5.853c-0.001,0-0.003,0-0.005,0.001c2.181,1.949,4.755,3.294,6.9,3.854v0
			c0.437,0.114,0.861,0.206,1.255,0.252c0.26,0.031,0.509,0.046,0.745,0.046C33.762,42.348,40.834,38.364,42.978,32.354z M30,2
			c4.315,0,7.826,3.511,7.826,7.826c0,4.315-3.511,7.826-7.826,7.826c-4.315,0-7.826-3.511-7.826-7.826C22.174,5.511,25.685,2,30,2z
			 M18.69,31c-0.199-0.745-0.299-1.502-0.299-2.261c0-0.552-0.448-1-1-1c-1.453,0-1.837-1.82-1.837-2.783s0.384-2.783,1.837-2.783
			c0.155,0,0.307-0.036,0.446-0.105l7.374-3.67c1.419,0.795,3.05,1.254,4.789,1.254c1.734,0,3.363-0.456,4.779-1.248l7.385,3.665
			c0.138,0.068,0.29,0.104,0.444,0.104c1.453,0,1.837,1.82,1.837,2.783s-0.384,2.783-1.837,2.783c-0.552,0-1,0.448-1,1
			c0,0.758-0.1,1.516-0.299,2.261H18.69z"/>
		<path fill="#010101" d="M25.283,21.437l-0.327,0.002l-0.326-0.002c-0.95-0.007-1.932-0.015-2.603,0.65
			c-0.393,0.39-0.593,0.933-0.593,1.612c0,0.552,0.448,1,1,1c0.552,0,1-0.448,1-1c0-0.11,0.012-0.173,0.007-0.189
			c0.187-0.08,0.776-0.074,1.173-0.073l0.342,0.002l0.342-0.002c0.415-0.004,1.041-0.008,1.154,0.037
			c0.001,0,0.026,0.06,0.026,0.226c0,0.552,0.448,1,1,1c0.552,0,1-0.448,1-1c0-0.68-0.199-1.222-0.593-1.612
			C27.215,21.421,26.228,21.427,25.283,21.437z"/>
		<path fill="#010101" d="M35.37,21.437l-0.327,0.002l-0.327-0.002c-0.951-0.007-1.932-0.015-2.603,0.65
			c-0.394,0.39-0.593,0.933-0.593,1.612c0,0.552,0.448,1,1,1c0.552,0,1-0.448,1-1c0-0.11,0.012-0.174,0.007-0.189
			c0.188-0.08,0.776-0.074,1.173-0.073l0.342,0.002l0.342-0.002c0.414-0.004,1.041-0.008,1.153,0.037c0,0,0.026,0.06,0.026,0.226
			c0,0.552,0.448,1,1,1c0.552,0,1-0.448,1-1c0-0.68-0.199-1.222-0.593-1.612C37.302,21.422,36.317,21.428,35.37,21.437z"/>
		<path fill="#010101" d="M30,14.609c2.637,0,4.782-2.146,4.782-4.783c0-2.637-2.146-4.783-4.782-4.783
			c-2.638,0-4.783,2.145-4.783,4.783C25.217,12.463,27.362,14.609,30,14.609z"/>
	</g>
</g>
<g id="nyt_x5F_exporter_x5F_info" display="none">
</g>
</svg>
