<?xml version="1.0" encoding="utf-8"?>
<!-- Generator: Adobe Illustrator 17.0.0, SVG Export Plug-In . SVG Version: 6.00 Build 0)  -->
<!DOCTYPE svg PUBLIC "-//W3C//DTD SVG 1.1//EN" "http://www.w3.org/Graphics/SVG/1.1/DTD/svg11.dtd">
<svg version="1.1" xmlns="http://www.w3.org/2000/svg" xmlns:xlink="http://www.w3.org/1999/xlink" x="0px" y="0px" width="60px"
	 height="60px" viewBox="0 0 60 60" enable-background="new 0 0 60 60" xml:space="preserve">
<g id="Layer_3">
	<path fill="#010101" d="M30,0C13.458,0,0,13.458,0,30c0,7.724,2.926,15.056,8.24,20.651c0.001,0.001,0.001,0.001,0.001,0.002
		l0.001,0c0.002,0.001,0.002,0.003,0.002,0.003c0,0,0,0,0.001,0.001c0.003,0.004,0.007,0.008,0.011,0.013
		c0.001,0.001,0.002,0.002,0.004,0.004c0,0,0,0,0,0c0,0.001,0.001,0.001,0.002,0.003c0.001,0,0.001,0.001,0.003,0.003
		c0.001,0.001,0.002,0.001,0.002,0.002l0,0c0.001,0.001,0.003,0.003,0.004,0.004c0.001,0.001,0.002,0.003,0.003,0.004v0
		c0.003,0.003,0.005,0.005,0.008,0.008c0,0,0,0,0.001,0.001c0.001,0.001,0.003,0.003,0.004,0.005C14.05,56.524,22.166,60,30,60
		c7.851,0,15.968-3.476,21.712-9.298c0.005-0.006,0.007-0.013,0.013-0.019C57.061,45.08,60,37.735,60,30C60,13.458,46.542,0,30,0z
		 M50.821,48.704c-1.401-0.737-4.253-1.778-9.209-3.531c-1.875-0.663-3.803-1.345-5.568-1.999v-4.986
		c1.193-0.691,3.537-2.647,3.765-7.423c0.429-0.218,0.797-0.583,1.066-1.071c0.332-0.602,0.514-1.39,0.514-2.216
		c0-1.459-0.521-2.607-1.355-3.161c0.014-0.044,0.028-0.089,0.042-0.133c0.599-1.873,1.715-5.36,0.981-8.297
		c-0.838-3.351-5.461-4.54-9.166-4.54c-3.369,0-7.498,0.983-8.849,3.682c-1.75-0.139-2.728,0.605-3.197,1.224
		c-1.542,2.036-0.464,5.877,0.115,7.94c0.01,0.036,0.02,0.071,0.03,0.108c-0.848,0.547-1.379,1.704-1.379,3.177
		c0,1.585,0.616,2.805,1.58,3.291c0.229,4.773,2.572,6.728,3.764,7.419v4.986c-1.631,0.597-3.378,1.167-5.075,1.722
		c-3.748,1.225-7.293,2.391-9.7,3.816C4.548,43.566,2,36.955,2,30C2,14.561,14.56,2,30,2c15.439,0,28,12.561,28,28
		C58,36.948,55.453,43.555,50.821,48.704z"/>
</g>
<g id="nyt_x5F_exporter_x5F_info" display="none">
</g>
</svg>
