<?xml version="1.0" encoding="utf-8"?>
<!-- Generator: Adobe Illustrator 17.0.0, SVG Export Plug-In . SVG Version: 6.00 Build 0)  -->
<!DOCTYPE svg PUBLIC "-//W3C//DTD SVG 1.1//EN" "http://www.w3.org/Graphics/SVG/1.1/DTD/svg11.dtd">
<svg version="1.1" xmlns="http://www.w3.org/2000/svg" xmlns:xlink="http://www.w3.org/1999/xlink" x="0px" y="0px" width="60px"
	 height="60px" viewBox="0 0 60 60" enable-background="new 0 0 60 60" xml:space="preserve">
<g id="Layer_3">
	<g>
		<path fill="#010101" d="M52.727,42.289l-14.444-4.101c0.748-0.661,1.455-1.389,2.08-2.188h-2.635
			c-2.688,2.738-6.347,4.348-8.316,4.348c-3.348,0-11.609-4.627-11.609-11.608c0-0.552-0.448-1-1-1c-1.453,0-1.837-1.82-1.837-2.783
			s0.384-2.783,1.837-2.783c0.477,0,0.887-0.336,0.981-0.804l1.102-5.509c7.526-0.163,9.484-2.564,10.526-4.246
			c1.042,1.682,3.001,4.083,10.526,4.246l1.102,5.509c0.093,0.467,0.504,0.804,0.98,0.804c1.453,0,1.837,1.82,1.837,2.783
			s-0.384,2.783-1.837,2.783c-0.552,0-1,0.448-1,1c0,0.43-0.033,0.85-0.092,1.261h1.999c0.015-0.131,0.047-0.256,0.058-0.389
			c0.887-0.248,1.566-0.844,2.045-1.611H46h1c0.34,0,0.675-0.04,1-0.112V29c0,0.229-0.026,0.434-0.064,0.63
			c-0.004,0.018-0.008,0.035-0.012,0.052c-0.139,0.656-0.472,1.128-0.887,1.465c-0.023,0.019-0.045,0.039-0.068,0.058
			c-0.117,0.088-0.238,0.168-0.363,0.238c-0.469,0.276-1.043,0.453-1.703,0.518C44.621,31.994,44.407,32,44.328,32h-8.55h-0.056
			c-0.078-0.134-0.176-0.255-0.282-0.368c-0.041-0.043-0.087-0.079-0.131-0.118c-0.072-0.065-0.147-0.125-0.229-0.179
			c-0.055-0.036-0.112-0.069-0.171-0.099c-0.085-0.045-0.174-0.082-0.266-0.114c-0.056-0.02-0.112-0.042-0.17-0.056
			C34.322,31.027,34.165,31,34,31h-5c-1.103,0-2,0.897-2,2s0.897,2,2,2h5c0.165,0,0.322-0.027,0.474-0.065
			c0.058-0.015,0.114-0.036,0.17-0.056c0.092-0.032,0.181-0.069,0.266-0.114c0.058-0.031,0.116-0.063,0.171-0.099
			c0.081-0.054,0.156-0.115,0.229-0.179c0.044-0.039,0.09-0.075,0.131-0.118c0.106-0.112,0.203-0.234,0.282-0.368h0.056h8.55
			C47.146,34,50,32.283,50,29v-2.086c1.192-0.932,2-2.36,2-3.914c0-0.796-0.228-1.552-0.592-2.236C50.555,19.159,48.867,18,47,18
			h-0.815l0.613-4.291c0.02-0.197,0.442-4.867-3.071-8.749C40.748,1.669,35.932,0,29.411,0S18.074,1.669,15.096,4.96
			c-3.513,3.881-3.091,8.552-3.066,8.791l1.302,9.115c-0.238,0.657-0.367,1.373-0.367,2.091c0,2.052,0.983,4.126,2.872,4.654
			c0.296,3.655,2.434,6.663,5.019,8.844l-13.662,3.86C2.891,43.928,0,48.1,0,52.696V60h60v-7.304
			C60,48.1,57.108,43.928,52.727,42.289z"/>
		<path fill="#010101" d="M27.89,23.696c0-0.68-0.199-1.222-0.593-1.612c-0.671-0.666-1.651-0.664-2.604-0.65l-0.326,0.002
			l-0.325-0.002c-0.951-0.012-1.933-0.016-2.604,0.65c-0.394,0.39-0.593,0.933-0.593,1.612c0,0.552,0.448,1,1,1s1-0.448,1-1
			c0-0.111,0.012-0.174,0.007-0.19c0.188-0.081,0.778-0.076,1.174-0.074l0.341,0.002l0.341-0.002
			c0.417-0.001,1.043-0.008,1.155,0.038c0,0,0.026,0.06,0.026,0.226c0,0.552,0.448,1,1,1C27.442,24.696,27.89,24.248,27.89,23.696z"
			/>
		<path fill="#010101" d="M32.933,23.696c0-0.111,0.012-0.174,0.007-0.19c0.188-0.081,0.778-0.075,1.174-0.073l0.341,0.002
			l0.341-0.002c0.415,0,1.042-0.008,1.154,0.038c0,0,0.026,0.06,0.026,0.226c0,0.552,0.448,1,1,1c0.552,0,1-0.448,1-1
			c0-0.68-0.199-1.222-0.593-1.612c-0.671-0.666-1.653-0.664-2.604-0.65l-0.326,0.002l-0.326-0.002
			c-0.949-0.009-1.933-0.015-2.604,0.65c-0.394,0.391-0.593,0.933-0.593,1.613c0,0.552,0.448,1,1,1
			C32.485,24.696,32.933,24.248,32.933,23.696z"/>
	</g>
</g>
<g id="nyt_x5F_exporter_x5F_info" display="none">
</g>
</svg>
