<?xml version="1.0" encoding="utf-8"?>
<!-- Generator: Adobe Illustrator 17.0.0, SVG Export Plug-In . SVG Version: 6.00 Build 0)  -->
<!DOCTYPE svg PUBLIC "-//W3C//DTD SVG 1.1//EN" "http://www.w3.org/Graphics/SVG/1.1/DTD/svg11.dtd">
<svg version="1.1" xmlns="http://www.w3.org/2000/svg" xmlns:xlink="http://www.w3.org/1999/xlink" x="0px" y="0px" width="60px"
	 height="60px" viewBox="0 0 60 60" enable-background="new 0 0 60 60" xml:space="preserve">
<g id="Layer_3">
	<g>
		<path fill="#010101" d="M53.295,43.674c-1.576-1.182-3.549-1.637-5.587-1.898l0.117,0.08l-11.93,17.435H59
			c0.287,0,0.56-0.123,0.75-0.338c0.19-0.215,0.278-0.501,0.242-0.786C59.938,57.74,58.617,47.664,53.295,43.674z"/>
		<path fill="#010101" d="M45.499,41.544C40.71,41.101,38,40.639,38,36.291v-3.933c1.379,1.26,3.3,2.016,5.406,2.016
			c3.109,0,5.888-1.645,7.623-4.514c0.187-0.309,0.193-0.694,0.016-1.009c-0.177-0.314-0.51-0.509-0.871-0.509
			c-1.93,0-2.691-5.391-3.363-10.146c-1.101-7.791-2.471-17.487-9.717-17.487c-2.054,0-4.379,0.789-7.094,2.411
			c-2.715-1.621-5.04-2.411-7.094-2.411c-7.244,0-8.614,9.696-9.716,17.486c-0.672,4.757-1.435,10.148-3.364,10.148
			c-0.384,0-0.735,0.22-0.901,0.567c-0.167,0.346-0.12,0.758,0.121,1.058c2.701,3.376,5.647,4.085,7.643,4.085
			c2.002,0,3.914-0.732,5.312-1.92v4.159c0,3.873-2.155,4.662-6.009,5.101l12.53,17.899h4.952l12.136-17.737
			C45.572,41.551,45.536,41.547,45.499,41.544z M35.943,28.358c0.103-0.047,2.93-1.462,1.915-9.06
			c-0.855-1.311-1.293-2.891-1.293-3.825c0-0.552,0.448-1,1-1c0.552,0,1,0.448,1,1c0,0.636,0.411,2.006,1.115,2.975
			c0.001,0.002,0.003,0.004,0.005,0.007c0.446,0.611,1.009,1.062,1.662,1.062c0.552,0,1,0.448,1,1c0,0.552-0.448,1-1,1
			c-0.471,0-0.903-0.103-1.305-0.269c0.378,7.367-2.979,8.833-3.401,8.984c-0.111,0.04-0.226,0.059-0.337,0.059
			c-0.41,0-0.795-0.255-0.941-0.663C35.179,29.116,35.439,28.553,35.943,28.358z M19.956,21.248
			c-0.402,0.166-0.834,0.269-1.304,0.269c-0.552,0-1-0.448-1-1c0-0.552,0.448-1,1-1c0.653,0,1.215-0.45,1.661-1.06
			c0.003-0.005,0.007-0.009,0.009-0.014c0.703-0.968,1.112-2.335,1.112-2.97c0-0.552,0.448-1,1-1c0.552,0,1,0.448,1,1
			c0,0.934-0.438,2.514-1.293,3.825c-1.035,7.745,1.927,9.258,1.957,9.272c0.49,0.232,0.718,0.818,0.499,1.314
			c-0.166,0.374-0.526,0.601-0.908,0.601c-0.124,0-0.251-0.024-0.373-0.074C22.898,30.24,19.577,28.614,19.956,21.248z
			 M24.956,45.473c-1.247,0-2.261-1.014-2.261-2.261c0-1.247,1.014-2.261,2.261-2.261c1.247,0,2.261,1.014,2.261,2.261
			C27.217,44.459,26.203,45.473,24.956,45.473z M30,46.734c-1.247,0-2.261-1.014-2.261-2.261c0-1.247,1.014-2.261,2.261-2.261
			c1.247,0,2.261,1.014,2.261,2.261C32.261,45.72,31.247,46.734,30,46.734z M35.043,45.473c-1.247,0-2.261-1.014-2.261-2.261
			c0-1.247,1.014-2.261,2.261-2.261c1.247,0,2.261,1.014,2.261,2.261C37.304,44.459,36.29,45.473,35.043,45.473z"/>
		<path fill="#010101" d="M6.704,43.674C1.383,47.664,0.061,57.74,0.008,58.167c-0.036,0.285,0.052,0.571,0.242,0.786
			c0.19,0.215,0.463,0.338,0.75,0.338h25.079L13.709,41.619C11.183,41.864,8.644,42.218,6.704,43.674z"/>
	</g>
</g>
<g id="nyt_x5F_exporter_x5F_info" display="none">
</g>
</svg>
