<?xml version="1.0" encoding="utf-8"?>
<!-- Generator: Adobe Illustrator 17.0.0, SVG Export Plug-In . SVG Version: 6.00 Build 0)  -->
<!DOCTYPE svg PUBLIC "-//W3C//DTD SVG 1.1//EN" "http://www.w3.org/Graphics/SVG/1.1/DTD/svg11.dtd">
<svg version="1.1" xmlns="http://www.w3.org/2000/svg" xmlns:xlink="http://www.w3.org/1999/xlink" x="0px" y="0px" width="60px"
	 height="60px" viewBox="0 0 60 60" enable-background="new 0 0 60 60" xml:space="preserve">
<g id="Layer_3">
	<g>
		<polygon fill="#010101" points="34.103,47.289 31.164,50.228 34.547,59.131 37.511,50.239 		"/>
		<path fill="#010101" d="M57.419,49.624c-1.029-3.72-6.627-5.871-14.418-8.692l-3.373,9.342c-0.008,0.024-0.031,0.038-0.041,0.061
			l-3.2,9.599H59c0.552,0,1-0.448,1-1C60,58.766,59.971,54.774,57.419,49.624z M51.435,53.804H45.13c-0.552,0-1-0.448-1-1
			c0-0.552,0.448-1,1-1h6.304c0.552,0,1,0.448,1,1C52.435,53.357,51.987,53.804,51.435,53.804z"/>
		<polygon fill="#010101" points="22.549,50.418 25.453,59.131 28.836,50.228 25.968,47.36 		"/>
		<path fill="#010101" d="M25.304,45.187l2.862-2.499l-7.167-3.21c-0.632,0.232-1.255,0.46-1.87,0.683l2.73,8.19l3.248-2.905
			C25.162,45.352,25.221,45.26,25.304,45.187z"/>
		<path fill="#010101" d="M38,33.196c0.795-0.907,2.87-3.652,3.071-7.788c0.956-0.733,1.472-2.462,1.472-3.75
			c0-0.764-0.165-1.405-0.49-1.905c-0.245-0.377-0.575-0.659-0.966-0.833v-1.985c0-0.552-0.448-1-1-1H19.913c-0.552,0-1,0.448-1,1
			v1.985c-0.391,0.174-0.721,0.456-0.966,0.833c-0.325,0.5-0.49,1.141-0.49,1.905c0,1.288,0.516,3.018,1.472,3.75
			c0.201,4.135,2.276,6.881,3.071,7.788v4.538l8,3.583l8-3.583V33.196z"/>
		<path fill="#010101" d="M2.58,49.627c-1.29,2.669-2.509,8.851-2.561,9.115c-0.057,0.293,0.019,0.597,0.209,0.828
			c0.19,0.23,0.473,0.364,0.772,0.364h22.612l-6.364-19.092C9.325,43.708,3.617,45.866,2.58,49.627z"/>
		<path fill="#010101" d="M13.609,14.935h4.701c0.001,0,0.002,0,0.002,0c0.002,0,0.003,0,0.004,0h28.075c0.552,0,1-0.448,1-1
			c0-0.552-0.448-1-1-1h-4.029L37.227,0.679c-0.112-0.268-0.335-0.474-0.611-0.564c-0.275-0.089-0.577-0.057-0.826,0.093
			l-3.062,1.836c-1.479,0.888-3.978,0.888-5.458,0l-3.061-1.836c-0.249-0.149-0.549-0.182-0.826-0.093
			c-0.276,0.091-0.499,0.296-0.61,0.564l-5.125,12.255h-4.039c-0.552,0-1,0.448-1,1C12.609,14.487,13.057,14.935,13.609,14.935z"/>
		<polygon fill="#010101" points="31.841,42.684 38.241,48.226 41.264,39.855 39.934,39.06 		"/>
	</g>
</g>
<g id="nyt_x5F_exporter_x5F_info" display="none">
</g>
</svg>
