<?xml version="1.0" encoding="utf-8"?>
<!-- Generator: Adobe Illustrator 17.0.0, SVG Export Plug-In . SVG Version: 6.00 Build 0)  -->
<!DOCTYPE svg PUBLIC "-//W3C//DTD SVG 1.1//EN" "http://www.w3.org/Graphics/SVG/1.1/DTD/svg11.dtd">
<svg version="1.1" xmlns="http://www.w3.org/2000/svg" xmlns:xlink="http://www.w3.org/1999/xlink" x="0px" y="0px" width="60px"
	 height="60px" viewBox="0 0 60 60" enable-background="new 0 0 60 60" xml:space="preserve">
<g id="Layer_3">
	<g>
		<path fill="#010101" d="M37.425,49c3.729-2.695,7.586-5.481,7.586-8.752c0-0.147,0.035-0.284,0.092-0.409
			c-1.517-0.675-3.077-1.34-4.657-2.009c-0.644-0.273-1.291-0.558-1.938-0.834c1.469-1.307,2.748-2.835,3.679-4.585
			c1.135,2.036,3.357,3.637,6.093,4.199c3.548,0.728,8.143-0.359,10.389-5.598c0.133-0.309,0.101-0.664-0.084-0.944
			c-0.185-0.281-0.499-0.45-0.835-0.45c-3.613,0-4.856-5.374-6.296-11.597c-1.516-6.552-3.234-13.979-8.599-16.504
			c-3.317-1.559-7.522-1.068-12.845,1.508c-5.323-2.577-9.529-3.068-12.846-1.508c-5.365,2.525-7.083,9.952-8.599,16.504
			c-1.44,6.222-2.683,11.596-6.295,11.596c-0.336,0-0.65,0.169-0.835,0.45c-0.185,0.28-0.217,0.635-0.084,0.944
			c1.841,4.297,5.267,5.801,8.401,5.801c0.688,0,1.363-0.073,2.003-0.204c2.73-0.56,4.947-2.153,6.088-4.177
			c0.988,1.849,2.365,3.449,3.943,4.803c-0.717,0.302-1.435,0.603-2.141,0.897c-1.582,0.659-3.144,1.313-4.663,1.978
			c0.007,0.047,0.028,0.089,0.028,0.138c0,3.272,3.856,6.058,7.586,8.752c2.923,2.112,5.91,4.277,7.414,6.879
			C31.516,53.277,34.502,51.111,37.425,49z M18.389,27.93c-0.08-0.482-0.497-0.835-0.986-0.835c-1.453,0-1.837-1.82-1.837-2.783
			c0-0.962,0.384-2.783,1.837-2.783c0.459,0,0.859-0.312,0.97-0.757l1.074-4.294c7.559-0.155,9.521-2.562,10.565-4.247
			c1.044,1.684,3.006,4.092,10.565,4.247l1.073,4.294c0.111,0.445,0.511,0.757,0.97,0.757c1.453,0,1.837,1.82,1.837,2.783
			c0,0.962-0.384,2.783-1.837,2.783c-0.489,0-0.906,0.354-0.986,0.835c-1.252,7.51-9.308,10.892-11.622,11.715
			C27.697,38.822,19.641,35.441,18.389,27.93z"/>
		<path fill="#010101" d="M46.983,40.696c-0.287,4.061-4.396,7.042-8.387,9.925c-3.729,2.694-7.585,5.48-7.585,8.751h29v-5
			C60.011,47.959,54.264,44.1,46.983,40.696z"/>
		<path fill="#010101" d="M21.426,50.621c-3.899-2.817-7.92-5.726-8.369-9.646C5.771,44.334,0.035,48.165,0.094,54.6l-0.105,4.772
			h29.022C29.011,56.101,25.155,53.315,21.426,50.621z"/>
		<path fill="#010101" d="M25.293,19.532l-0.326,0.001l-0.325-0.001c-0.951-0.011-1.933-0.016-2.604,0.65
			c-0.393,0.39-0.593,0.933-0.593,1.612c0,0.552,0.448,1,1,1c0.552,0,1-0.448,1-1c0-0.11,0.012-0.173,0.007-0.189
			c0.187-0.081,0.778-0.076,1.174-0.074l0.341,0.002l0.341-0.002c0.415,0,1.042-0.008,1.155,0.038c0,0,0.026,0.059,0.026,0.225
			c0,0.552,0.448,1,1,1c0.552,0,1-0.448,1-1c0-0.68-0.199-1.222-0.593-1.612C27.227,19.516,26.244,19.523,25.293,19.532z"/>
		<path fill="#010101" d="M38.577,21.794c0-0.68-0.199-1.222-0.593-1.612c-0.671-0.666-1.654-0.66-2.604-0.65l-0.326,0.001
			l-0.326-0.001c-0.952-0.011-1.934-0.016-2.604,0.65c-0.394,0.39-0.593,0.933-0.593,1.612c0,0.552,0.448,1,1,1c0.552,0,1-0.448,1-1
			c0-0.11,0.012-0.173,0.007-0.189c0.188-0.081,0.777-0.075,1.174-0.073l0.341,0.002l0.341-0.002
			c0.413-0.003,1.042-0.008,1.154,0.038c0,0,0.026,0.059,0.026,0.225c0,0.552,0.448,1,1,1
			C38.129,22.794,38.577,22.346,38.577,21.794z"/>
	</g>
</g>
<g id="nyt_x5F_exporter_x5F_info" display="none">
</g>
</svg>
