<?xml version="1.0" encoding="utf-8"?>
<!-- Generator: Adobe Illustrator 17.0.0, SVG Export Plug-In . SVG Version: 6.00 Build 0)  -->
<!DOCTYPE svg PUBLIC "-//W3C//DTD SVG 1.1//EN" "http://www.w3.org/Graphics/SVG/1.1/DTD/svg11.dtd">
<svg version="1.1" xmlns="http://www.w3.org/2000/svg" xmlns:xlink="http://www.w3.org/1999/xlink" x="0px" y="0px" width="60px"
	 height="60px" viewBox="0 0 60 60" enable-background="new 0 0 60 60" xml:space="preserve">
<g id="Layer_3">
	<g>
		<path fill="#010101" d="M38.521,40.5c0-0.854,0.171-1.677,0.459-2.46L33,35.806v-5.628c3.754-2.875,6.25-7.868,6.25-13.548
			c0-0.133-0.014-0.263-0.017-0.395c-0.898,0.099-1.871,0.184-2.88,0.184c-3.005,0-6.315-0.753-8.813-4.132
			c-2.049,2.343-5.931,4.082-9.464,4.082c-1.606,0-4.145-0.816-5.946-1.597c-0.059,0.611-0.098,1.229-0.098,1.858
			c0,6.036,2.815,11.3,6.967,14.066v5.108L6.683,40.374C3.284,41.588,1,44.855,1,48.5v8h34v-14c0-1.267,1-2,2-2H38.521z"/>
		<path fill="#010101" d="M26.685,10.041l0.847-1.623l0.908,1.589c2.743,4.798,6.861,4.661,10.644,4.233
			C38.104,6.478,32.458,0.5,25.641,0.5c-6.367,0-11.71,5.216-13.189,12.227c1.6,0.751,4.213,1.642,5.624,1.642
			C21.459,14.37,25.482,12.347,26.685,10.041z"/>
		<path fill="#010101" d="M58,42.5h-2v-1.25c0-4.038-3.962-8-8-8c-4.038,0-8,3.962-8,8v1.25h-2c-0.552,0-1,0.448-1,1v15
			c0,0.552,0.448,1,1,1h20c0.552,0,1-0.448,1-1v-15C59,42.948,58.552,42.5,58,42.5z M49,50.463V54.3c0,0.552-0.448,1-1,1
			c-0.552,0-1-0.448-1-1v-3.844c-0.409-0.303-0.683-0.781-0.694-1.323c-0.009-0.453,0.16-0.882,0.474-1.208
			c0.314-0.325,0.736-0.51,1.188-0.519h0c0.948,0,1.707,0.745,1.725,1.661C49.704,49.638,49.428,50.148,49,50.463z M54,42.5H42
			v-1.25c0-2.972,3.028-6,6-6c2.972,0,6,3.028,6,6V42.5z"/>
	</g>
</g>
<g id="nyt_x5F_exporter_x5F_info" display="none">
</g>
</svg>
