<?xml version="1.0" encoding="utf-8"?>
<!-- Generator: Adobe Illustrator 17.0.0, SVG Export Plug-In . SVG Version: 6.00 Build 0)  -->
<!DOCTYPE svg PUBLIC "-//W3C//DTD SVG 1.1//EN" "http://www.w3.org/Graphics/SVG/1.1/DTD/svg11.dtd">
<svg version="1.1" xmlns="http://www.w3.org/2000/svg" xmlns:xlink="http://www.w3.org/1999/xlink" x="0px" y="0px" width="60px"
	 height="60px" viewBox="0 0 60 60" enable-background="new 0 0 60 60" xml:space="preserve">
<g id="Layer_3">
	<g>
		<path fill="#010101" d="M39.073,38.575L33,36.306v-5.627c3.754-2.875,6.25-7.868,6.25-13.548c0-0.133-0.014-0.262-0.017-0.395
			c-0.898,0.099-1.871,0.185-2.88,0.185c-3.005,0-6.315-0.753-8.813-4.132c-2.049,2.343-5.931,4.082-9.464,4.082
			c-1.606,0-4.145-0.816-5.946-1.597c-0.059,0.611-0.098,1.228-0.098,1.858c0,6.036,2.815,11.3,6.967,14.066v5.108L6.683,40.874
			C3.284,42.088,1,45.355,1,49v8h37.641C36.392,54.662,35,51.493,35,48C35,44.289,36.571,40.945,39.073,38.575z"/>
		<path fill="#010101" d="M26.685,10.541l0.847-1.623l0.908,1.589c2.743,4.799,6.861,4.661,10.644,4.233
			C38.104,6.978,32.458,1,25.641,1c-6.367,0-11.71,5.216-13.189,12.227c1.6,0.751,4.213,1.642,5.624,1.642
			C21.459,14.87,25.482,12.847,26.685,10.541z"/>
		<path fill="#010101" d="M48,37c-6.065,0-11,4.935-11,11c0,6.065,4.935,11,11,11c6.065,0,11-4.935,11-11C59,41.935,54.065,37,48,37
			z M54.304,49H49v5.304c0,0.552-0.448,1-1,1c-0.552,0-1-0.448-1-1V49h-5.305c-0.552,0-1-0.448-1-1c0-0.552,0.448-1,1-1H47v-5.304
			c0-0.552,0.448-1,1-1c0.552,0,1,0.448,1,1V47h5.304c0.552,0,1,0.448,1,1C55.304,48.552,54.856,49,54.304,49z"/>
	</g>
</g>
<g id="nyt_x5F_exporter_x5F_info" display="none">
</g>
</svg>
