<?xml version="1.0" encoding="utf-8"?>
<!-- Generator: Adobe Illustrator 17.0.0, SVG Export Plug-In . SVG Version: 6.00 Build 0)  -->
<!DOCTYPE svg PUBLIC "-//W3C//DTD SVG 1.1//EN" "http://www.w3.org/Graphics/SVG/1.1/DTD/svg11.dtd">
<svg version="1.1" xmlns="http://www.w3.org/2000/svg" xmlns:xlink="http://www.w3.org/1999/xlink" x="0px" y="0px" width="60px"
	 height="60px" viewBox="0 0 60 60" enable-background="new 0 0 60 60" xml:space="preserve">
<g id="Layer_3">
	<g>
		<path fill="#010101" d="M34,45c0-3.001,1.115-5.741,2.943-7.848L32,35.306v-5.628c3.754-2.875,6.25-7.868,6.25-13.548
			c0-0.133-0.014-0.262-0.017-0.395c-0.898,0.099-1.871,0.185-2.88,0.185c-3.005,0-6.315-0.753-8.813-4.132
			c-2.049,2.343-5.931,4.082-9.464,4.082c-1.607,0-4.145-0.816-5.946-1.597c-0.059,0.611-0.098,1.229-0.098,1.858
			c0,6.036,2.815,11.3,6.967,14.066v5.108L5.683,39.874C2.284,41.088,0,44.355,0,48v8h41.218C36.976,54.148,34,49.917,34,45z"/>
		<path fill="#010101" d="M25.685,9.541l0.847-1.623l0.908,1.589c2.743,4.798,6.86,4.661,10.644,4.233
			C37.104,5.978,31.458,0,24.641,0c-6.367,0-11.71,5.216-13.189,12.227c1.6,0.751,4.213,1.642,5.624,1.642
			C20.459,13.87,24.482,11.847,25.685,9.541z"/>
		<path fill="#010101" d="M59.707,58.293l-5.029-5.029l-1.414-1.414C54.955,50.059,56,47.652,56,45c0-5.514-4.486-10-10-10
			c-5.514,0-10,4.486-10,10c0,5.514,4.486,10,10,10c2.142,0,4.123-0.683,5.752-1.834l1.426,1.426l5.114,5.114
			C58.488,59.902,58.744,60,59,60c0.256,0,0.512-0.098,0.707-0.293C60.098,59.316,60.098,58.684,59.707,58.293z M46,53
			c-4.411,0-8-3.589-8-8c0-4.411,3.589-8,8-8c4.411,0,8,3.589,8,8C54,49.411,50.411,53,46,53z"/>
	</g>
</g>
<g id="nyt_x5F_exporter_x5F_info" display="none">
</g>
</svg>
