<?xml version="1.0" encoding="utf-8"?>
<!-- Generator: Adobe Illustrator 17.0.0, SVG Export Plug-In . SVG Version: 6.00 Build 0)  -->
<!DOCTYPE svg PUBLIC "-//W3C//DTD SVG 1.1//EN" "http://www.w3.org/Graphics/SVG/1.1/DTD/svg11.dtd">
<svg version="1.1" xmlns="http://www.w3.org/2000/svg" xmlns:xlink="http://www.w3.org/1999/xlink" x="0px" y="0px" width="60px"
	 height="60px" viewBox="0 0 60 60" enable-background="new 0 0 60 60" xml:space="preserve">
<g id="Layer_3">
	<g>
		<path fill="#010101" d="M35.176,45.528c-0.331-0.266-0.458-0.711-0.317-1.111c0.141-0.4,0.519-0.668,0.943-0.668h8.279
			l0.879-2.638l-10.859-4.056v-5.628c3.754-2.875,6.25-7.868,6.25-13.548c0-0.133-0.014-0.262-0.017-0.395
			c-0.898,0.099-1.871,0.185-2.88,0.185c-3.005,0-6.315-0.753-8.813-4.132c-2.049,2.343-5.931,4.082-9.464,4.082
			c-1.607,0-4.145-0.816-5.946-1.597c-0.06,0.611-0.098,1.228-0.098,1.858c0,6.036,2.815,11.3,6.967,14.065v5.108L7.786,41.622
			c-3.399,1.215-5.683,4.481-5.683,8.127v8h36.904l2.925-6.789L35.176,45.528z"/>
		<path fill="#010101" d="M27.787,11.29l0.847-1.623l0.908,1.589c2.743,4.799,6.86,4.661,10.644,4.233
			c-0.98-7.762-6.626-13.74-13.442-13.74c-6.367,0-11.71,5.216-13.189,12.227c1.6,0.751,4.213,1.642,5.624,1.642
			C22.562,15.618,26.584,13.595,27.787,11.29z"/>
		<path fill="#010101" d="M52.621,49.869l5.276-4.12h-6.095c-0.395,0-0.753-0.233-0.914-0.594l-2.953-6.644l-2.185,6.554
			c-0.136,0.408-0.518,0.684-0.949,0.684h-6.161l5.135,4.129c0.351,0.282,0.47,0.762,0.292,1.175l-3.012,6.992l6.191-4.127
			c0.168-0.112,0.361-0.168,0.555-0.168s0.387,0.056,0.555,0.168l6.502,4.335l-2.565-7.262
			C52.151,50.585,52.283,50.133,52.621,49.869z"/>
	</g>
</g>
<g id="nyt_x5F_exporter_x5F_info" display="none">
</g>
</svg>
