<?xml version="1.0" encoding="utf-8"?>
<!-- Generator: Adobe Illustrator 17.0.0, SVG Export Plug-In . SVG Version: 6.00 Build 0)  -->
<!DOCTYPE svg PUBLIC "-//W3C//DTD SVG 1.1//EN" "http://www.w3.org/Graphics/SVG/1.1/DTD/svg11.dtd">
<svg version="1.1" xmlns="http://www.w3.org/2000/svg" xmlns:xlink="http://www.w3.org/1999/xlink" x="0px" y="0px" width="60px"
	 height="60px" viewBox="0 0 60 60" enable-background="new 0 0 60 60" xml:space="preserve">
<g id="Layer_3">
	<g>
		<path fill="#010101" d="M34.123,50.411l2.168-1.254c-0.034-0.338-0.051-0.67-0.051-1.004c0-0.332,0.015-0.663,0.044-0.99
			l-2.2-1.257c-0.478-0.273-0.645-0.881-0.374-1.36l3.465-6.131c0.133-0.235,0.355-0.406,0.617-0.475
			c0.26-0.068,0.54-0.029,0.771,0.111l2.062,1.245c0.303-0.225,0.612-0.421,0.924-0.606l-7.718-2.882v-5.628
			c3.754-2.875,6.25-7.868,6.25-13.548c0-0.133-0.014-0.263-0.017-0.395c-0.898,0.099-1.871,0.184-2.88,0.184
			c-3.005,0-6.315-0.753-8.813-4.132c-2.049,2.343-5.931,4.082-9.464,4.082c-1.606,0-4.145-0.816-5.946-1.597
			c-0.06,0.611-0.098,1.229-0.098,1.858c0,6.036,2.815,11.3,6.967,14.066v5.108L7.514,40.374C4.114,41.588,1.83,44.855,1.83,48.5v8
			h34.654l-2.726-4.724C33.482,51.298,33.646,50.687,34.123,50.411z"/>
		<path fill="#010101" d="M27.515,10.041l0.847-1.623l0.908,1.589c2.743,4.799,6.861,4.661,10.644,4.233
			C38.934,6.478,33.288,0.5,26.472,0.5c-6.367,0-11.71,5.216-13.189,12.227c1.6,0.751,4.213,1.642,5.624,1.642
			C22.29,14.37,26.312,12.347,27.515,10.041z"/>
		<path fill="#010101" d="M55.774,49.516c0.088-0.495,0.131-0.94,0.131-1.364c0-0.446-0.038-0.908-0.113-1.374
			c-0.066-0.41,0.128-0.818,0.487-1.025l1.89-1.09l-2.522-4.369l-2.12,1.131c-0.347,0.183-0.77,0.15-1.081-0.09
			c-0.879-0.677-1.91-1.143-2.62-1.414c-0.388-0.148-0.644-0.52-0.644-0.934v-2.183h-5.044V39c0,0.404-0.243,0.768-0.616,0.923
			c-0.758,0.315-1.472,0.758-2.182,1.352c-0.327,0.275-0.793,0.31-1.158,0.089l-1.773-1.07l-2.469,4.369l1.912,1.092
			c0.36,0.205,0.556,0.612,0.492,1.021c-0.069,0.447-0.104,0.91-0.104,1.376c0,0.448,0.038,0.897,0.117,1.371
			c0.068,0.411-0.125,0.821-0.485,1.029l-1.882,1.089l2.521,4.369l1.665-1.049c0.366-0.232,0.84-0.2,1.173,0.077
			c0.709,0.591,1.421,1.031,2.175,1.346c0.372,0.155,0.615,0.519,0.615,0.923V59.5h5.044v-2.182c0-0.415,0.256-0.787,0.645-0.935
			c0.706-0.269,1.732-0.73,2.61-1.406c0.317-0.244,0.747-0.275,1.095-0.082l2.011,1.115l2.574-4.369l-1.862-1.086
			C55.892,50.344,55.701,49.929,55.774,49.516z M47.079,52.804c-2.637,0-4.782-2.146-4.782-4.782c0-2.637,2.146-4.783,4.782-4.783
			c2.637,0,4.783,2.146,4.783,4.783C51.862,50.659,49.717,52.804,47.079,52.804z"/>
	</g>
</g>
<g id="nyt_x5F_exporter_x5F_info" display="none">
</g>
</svg>
