<?xml version="1.0" encoding="utf-8"?>
<!-- Generator: Adobe Illustrator 17.0.0, SVG Export Plug-In . SVG Version: 6.00 Build 0)  -->
<!DOCTYPE svg PUBLIC "-//W3C//DTD SVG 1.1//EN" "http://www.w3.org/Graphics/SVG/1.1/DTD/svg11.dtd">
<svg version="1.1" xmlns="http://www.w3.org/2000/svg" xmlns:xlink="http://www.w3.org/1999/xlink" x="0px" y="0px" width="60px"
	 height="60px" viewBox="0 0 60 60" enable-background="new 0 0 60 60" xml:space="preserve">
<g id="Layer_3">
	<g>
		<path fill="#010101" d="M38.521,40.5c0-2.295,1.173-4.382,2.823-5.971l-5.073-1.745c-1.302-0.43-2.567-0.923-3.907-1.445
			c-0.445-0.173-0.898-0.35-1.364-0.528v-4.77c1.059-0.78,3.285-2.959,3.504-7.583c0.415-0.23,0.767-0.609,1.021-1.113
			c0.307-0.61,0.477-1.408,0.477-2.245c0-1.447-0.472-2.597-1.233-3.184c0.594-1.492,1.683-4.248,0.985-7.054
			c-0.8-3.219-5.438-4.361-9.166-4.361c-3.375,0-7.494,0.936-8.838,3.5c-1.755-0.146-2.707,0.572-3.159,1.173
			c-1.367,1.819-0.422,5.079,0.086,6.83c0.003,0.013,0.007,0.025,0.011,0.038c-0.324,0.225-0.602,0.547-0.814,0.952
			c-0.312,0.598-0.484,1.377-0.484,2.196c0,1.569,0.585,2.78,1.502,3.277c0.263,4.854,3.014,7.612,4.11,8.524v3.816
			c-1.646,0.606-3.379,1.175-5.061,1.727c-5.744,1.885-10.705,3.514-11.628,6.298C1.081,42.54,1.003,49.208,1,49.49
			c-0.002,0.267,0.102,0.524,0.29,0.713C1.477,50.393,1.733,50.5,2,50.5h33v-8c0-1.267,1-2,2-2H38.521z"/>
		<path fill="#010101" d="M58,42.5h-2v-1.25c0-4.038-3.962-8-8-8c-4.038,0-8,3.962-8,8v1.25h-2c-0.552,0-1,0.448-1,1v15
			c0,0.552,0.448,1,1,1h20c0.552,0,1-0.448,1-1v-15C59,42.948,58.552,42.5,58,42.5z M49,50.463V54.3c0,0.552-0.448,1-1,1
			c-0.552,0-1-0.448-1-1v-3.843c-0.409-0.304-0.683-0.781-0.694-1.324c-0.009-0.453,0.16-0.882,0.474-1.208
			c0.314-0.325,0.736-0.51,1.188-0.519h0c0.948,0,1.708,0.745,1.726,1.661C49.704,49.638,49.428,50.148,49,50.463z M54,42.5H42
			v-1.25c0-2.972,3.028-6,6-6c2.972,0,6,3.028,6,6V42.5z"/>
	</g>
</g>
<g id="nyt_x5F_exporter_x5F_info" display="none">
</g>
</svg>
