<?xml version="1.0" encoding="utf-8"?>
<!-- Generator: Adobe Illustrator 17.0.0, SVG Export Plug-In . SVG Version: 6.00 Build 0)  -->
<!DOCTYPE svg PUBLIC "-//W3C//DTD SVG 1.1//EN" "http://www.w3.org/Graphics/SVG/1.1/DTD/svg11.dtd">
<svg version="1.1" xmlns="http://www.w3.org/2000/svg" xmlns:xlink="http://www.w3.org/1999/xlink" x="0px" y="0px" width="60px"
	 height="60px" viewBox="0 0 60 60" enable-background="new 0 0 60 60" xml:space="preserve">
<g id="Layer_3">
	<g>
		<path fill="#010101" d="M38.93,38.432l-6.073-2.268v-5.627c3.754-2.875,6.25-7.868,6.25-13.548c0-0.133-0.014-0.263-0.017-0.395
			c-0.898,0.099-1.871,0.184-2.88,0.184c-3.005,0-6.315-0.753-8.813-4.132c-2.049,2.343-5.931,4.082-9.464,4.082
			c-1.607,0-4.145-0.816-5.946-1.597c-0.06,0.611-0.098,1.229-0.098,1.858c0,6.036,2.815,11.3,6.967,14.066v5.108L6.54,40.731
			c-3.399,1.215-5.683,4.481-5.683,8.127v8h37.641c-2.249-2.338-3.641-5.507-3.641-9C34.857,44.146,36.428,40.803,38.93,38.432z"/>
		<path fill="#010101" d="M26.542,10.398l0.847-1.623l0.908,1.589c2.743,4.799,6.861,4.661,10.644,4.233
			c-0.979-7.762-6.625-13.74-13.442-13.74c-6.367,0-11.71,5.216-13.189,12.227c1.6,0.751,4.213,1.642,5.624,1.642
			C21.317,14.727,25.339,12.704,26.542,10.398z"/>
		<path fill="#010101" d="M56.536,40.654L41.168,56.926c1.875,1.386,4.184,2.217,6.689,2.217c6.223,0,11.286-5.062,11.286-11.286
			C59.143,45.121,58.162,42.609,56.536,40.654z"/>
		<path fill="#010101" d="M47.857,36.572c-6.223,0-11.286,5.062-11.286,11.286c0,2.998,1.183,5.72,3.097,7.743l15.456-16.365
			C53.159,37.577,50.624,36.572,47.857,36.572z"/>
	</g>
</g>
<g id="nyt_x5F_exporter_x5F_info" display="none">
</g>
</svg>
