<?xml version="1.0" encoding="utf-8"?>
<!-- Generator: Adobe Illustrator 17.0.0, SVG Export Plug-In . SVG Version: 6.00 Build 0)  -->
<!DOCTYPE svg PUBLIC "-//W3C//DTD SVG 1.1//EN" "http://www.w3.org/Graphics/SVG/1.1/DTD/svg11.dtd">
<svg version="1.1" xmlns="http://www.w3.org/2000/svg" xmlns:xlink="http://www.w3.org/1999/xlink" x="0px" y="0px" width="60px"
	 height="60px" viewBox="0 0 60 60" enable-background="new 0 0 60 60" xml:space="preserve">
<g id="Layer_3">
	<g>
		<path fill="#010101" d="M36.318,50.651l9.644-9.643c-0.37-0.212-0.773-0.405-1.22-0.565L32.5,35.871v-5.627
			c3.754-2.875,6.25-7.868,6.25-13.548c0-0.133-0.014-0.263-0.017-0.395c-0.898,0.099-1.871,0.184-2.88,0.184
			c-3.005,0-6.315-0.753-8.813-4.132c-2.049,2.343-5.931,4.082-9.464,4.082c-1.607,0-4.145-0.816-5.946-1.597
			c-0.06,0.611-0.098,1.228-0.098,1.858c0,6.036,2.815,11.3,6.967,14.066v5.108L6.183,40.438C2.784,41.653,0.5,44.919,0.5,48.564v8
			h33.997l1.566-5.481C36.11,50.92,36.198,50.771,36.318,50.651z"/>
		<path fill="#010101" d="M26.185,10.105l0.847-1.623l0.908,1.589c2.743,4.799,6.86,4.661,10.644,4.233
			c-0.979-7.762-6.625-13.74-13.442-13.74c-6.367,0-11.71,5.216-13.189,12.227c1.6,0.751,4.213,1.642,5.624,1.642
			C20.959,14.434,24.982,12.411,26.185,10.105z"/>
		<polygon fill="#010101" points="35.757,59.436 42.135,57.614 37.579,53.058 		"/>
		
			<rect x="52.445" y="36.38" transform="matrix(0.7071 -0.7071 0.7071 0.7071 -12.3146 50.6603)" fill="#010101" width="5.104" height="7.631"/>
		
			<rect x="42.71" y="41.238" transform="matrix(-0.7071 -0.7071 0.7071 -0.7071 45.0102 115.9793)" fill="#010101" width="7.631" height="14.86"/>
	</g>
</g>
<g id="nyt_x5F_exporter_x5F_info" display="none">
</g>
</svg>
