<?xml version="1.0" encoding="utf-8"?>
<!-- Generator: Adobe Illustrator 17.0.0, SVG Export Plug-In . SVG Version: 6.00 Build 0)  -->
<!DOCTYPE svg PUBLIC "-//W3C//DTD SVG 1.1//EN" "http://www.w3.org/Graphics/SVG/1.1/DTD/svg11.dtd">
<svg version="1.1" xmlns="http://www.w3.org/2000/svg" xmlns:xlink="http://www.w3.org/1999/xlink" x="0px" y="0px" width="60px"
	 height="60px" viewBox="0 0 60 60" enable-background="new 0 0 60 60" xml:space="preserve">
<g id="Layer_3">
	<path fill="#010101" d="M57.373,48.321c-1.786-3.567-7.661-5.718-15.792-8.696c-1.149-0.42-2.344-0.858-3.581-1.319V31.84
		c0.812-0.89,2.87-3.533,3.071-7.639c0.565-0.432,1.018-1.247,1.279-2.353c0.414-1.757,0.195-3.845-1.098-5.007
		c0.087-0.228,0.194-0.498,0.295-0.752c0.957-2.412,2.738-6.902,2.042-10.386C42.801,1.763,37.066,0,31.732,0
		c-3.897,0-8.642,0.977-9.997,3.669c-1.499,0.138-2.646,0.731-3.417,1.77c-2.113,2.849-0.547,8.014,0.293,10.789
		c0.059,0.195,0.122,0.402,0.175,0.579c-1.327,1.155-1.555,3.267-1.136,5.041c0.261,1.106,0.713,1.922,1.279,2.353
		c0.199,4.028,2.208,6.402,3.071,7.243v6.862c-1.238,0.461-2.435,0.9-3.586,1.321c-8.13,2.977-14.005,5.127-15.787,8.694
		C0.03,53.516,0,58.778,0,59c0,0.552,0.448,1,1,1h58c0.552,0,1-0.448,1-1C60,58.778,59.97,53.516,57.373,48.321z"/>
</g>
<g id="nyt_x5F_exporter_x5F_info" display="none">
</g>
</svg>
