<?xml version="1.0" encoding="utf-8"?>
<!-- Generator: Adobe Illustrator 17.0.0, SVG Export Plug-In . SVG Version: 6.00 Build 0)  -->
<!DOCTYPE svg PUBLIC "-//W3C//DTD SVG 1.1//EN" "http://www.w3.org/Graphics/SVG/1.1/DTD/svg11.dtd">
<svg version="1.1" xmlns="http://www.w3.org/2000/svg" xmlns:xlink="http://www.w3.org/1999/xlink" x="0px" y="0px" width="60px"
	 height="60px" viewBox="0 0 60 60" enable-background="new 0 0 60 60" xml:space="preserve">
<g id="Layer_3">
	<g>
		<path fill="#010101" d="M29.922,48.524l2.399-1.386c-0.079-0.587-0.118-1.167-0.118-1.73c0-0.57,0.039-1.142,0.119-1.731
			l-2.396-1.385c-0.229-0.133-0.397-0.351-0.465-0.607c-0.069-0.256-0.033-0.529,0.1-0.759l4.121-7.128
			c0.276-0.477,0.886-0.641,1.365-0.366l2.416,1.391c0.469-0.348,0.996-0.682,1.531-0.993l-3.039-1.045
			c-1.302-0.43-2.567-0.923-3.907-1.445c-0.445-0.173-0.898-0.35-1.364-0.528v-4.77c1.059-0.78,3.285-2.959,3.504-7.583
			c0.415-0.23,0.767-0.609,1.021-1.113c0.307-0.61,0.477-1.408,0.477-2.245c0-1.447-0.472-2.597-1.233-3.184
			c0.594-1.492,1.683-4.248,0.985-7.054c-0.8-3.219-5.438-4.361-9.166-4.361c-3.374,0-7.494,0.936-8.838,3.5
			c-1.752-0.146-2.707,0.572-3.159,1.173c-1.367,1.819-0.422,5.079,0.086,6.83c0.003,0.013,0.007,0.025,0.011,0.038
			c-0.324,0.225-0.602,0.547-0.814,0.952c-0.312,0.598-0.484,1.377-0.484,2.196c0,1.569,0.585,2.78,1.502,3.277
			c0.263,4.854,3.014,7.612,4.11,8.524v3.816c-1.646,0.606-3.379,1.175-5.061,1.727c-5.744,1.885-10.705,3.514-11.627,6.298
			C0.764,42.54,0.686,49.208,0.683,49.49c-0.002,0.267,0.102,0.524,0.29,0.713C1.16,50.393,1.416,50.5,1.683,50.5h28.225
			l-0.352-0.61C29.28,49.412,29.444,48.8,29.922,48.524z"/>
		<path fill="#010101" d="M57.186,48.526c-0.367-0.212-0.561-0.631-0.483-1.048c0.13-0.704,0.196-1.401,0.196-2.071
			c0-0.666-0.066-1.362-0.198-2.069c-0.077-0.417,0.116-0.836,0.483-1.048l2.128-1.229l-3.115-5.395l-2.111,1.226
			c-0.367,0.214-0.83,0.171-1.152-0.105l-0.343-0.295c-0.987-0.853-1.919-1.658-2.985-2.054c-0.392-0.146-0.652-0.52-0.652-0.938v-2
			h-6v2c0,0.418-0.26,0.792-0.652,0.938c-1.365,0.507-3.128,1.517-4.101,2.349c-0.322,0.276-0.781,0.318-1.149,0.107l-2.139-1.231
			l-3.121,5.398l2.126,1.229c0.366,0.212,0.56,0.631,0.483,1.048c-0.134,0.722-0.199,1.399-0.199,2.07
			c0,0.675,0.065,1.353,0.197,2.071c0.077,0.416-0.117,0.836-0.483,1.047l-2.129,1.229l3.117,5.399l2.149-1.233
			c0.366-0.211,0.826-0.167,1.147,0.107c0.953,0.815,3.635,1.987,5.102,2.534c0.391,0.146,0.65,0.52,0.65,0.937v2h5v-2
			c0-0.417,0.259-0.791,0.65-0.937c0.89-0.332,1.737-1.101,2.556-1.844c0.259-0.235,0.516-0.468,0.774-0.689
			c0.323-0.276,0.785-0.318,1.151-0.105l2.12,1.228l3.111-5.396L57.186,48.526z M45.55,51.896c-3.577,0-6.488-2.911-6.488-6.488
			c0-3.577,2.911-6.488,6.488-6.488c3.578,0,6.488,2.911,6.488,6.488C52.038,48.985,49.128,51.896,45.55,51.896z"/>
	</g>
</g>
<g id="nyt_x5F_exporter_x5F_info" display="none">
</g>
</svg>
