<?xml version="1.0" encoding="utf-8"?>
<!-- Generator: Adobe Illustrator 17.0.0, SVG Export Plug-In . SVG Version: 6.00 Build 0)  -->
<!DOCTYPE svg PUBLIC "-//W3C//DTD SVG 1.1//EN" "http://www.w3.org/Graphics/SVG/1.1/DTD/svg11.dtd">
<svg version="1.1" xmlns="http://www.w3.org/2000/svg" xmlns:xlink="http://www.w3.org/1999/xlink" x="0px" y="0px" width="60px"
	 height="60px" viewBox="0 0 60 60" enable-background="new 0 0 60 60" xml:space="preserve">
<g id="Layer_3">
	<g>
		<path fill="#010101" d="M37.246,37.574l-4.732-1.767v-5.628c3.754-2.875,6.25-7.868,6.25-13.548c0-0.133-0.014-0.263-0.017-0.395
			c-0.898,0.099-1.871,0.184-2.88,0.184c-3.005,0-6.315-0.753-8.813-4.132c-2.049,2.343-5.931,4.082-9.464,4.082
			c-1.607,0-4.145-0.816-5.946-1.597c-0.06,0.611-0.098,1.229-0.098,1.858c0,6.036,2.815,11.3,6.967,14.066v5.108L6.197,40.374
			c-3.399,1.215-5.683,4.481-5.683,8.126v8h40.205c-2.947-2.934-5.872-7.153-5.872-12.355
			C34.847,41.159,35.822,38.992,37.246,37.574z"/>
		<path fill="#010101" d="M54.188,37.434c-0.244,0-0.495,0.019-0.748,0.054c-0.064,0.009-0.128,0.026-0.193,0.037
			c-0.187,0.032-0.375,0.069-0.565,0.12c-0.09,0.024-0.179,0.057-0.269,0.085c-0.16,0.051-0.319,0.105-0.478,0.169
			c-0.109,0.044-0.217,0.094-0.325,0.145c-0.136,0.063-0.272,0.132-0.408,0.206c-0.117,0.064-0.234,0.131-0.349,0.203
			c-0.128,0.079-0.254,0.167-0.38,0.256c-0.111,0.078-0.222,0.155-0.33,0.24c-0.186,0.147-0.367,0.307-0.545,0.476
			c-0.068,0.064-0.135,0.13-0.2,0.197c-0.446,0.455-0.863,0.977-1.231,1.584c-0.309-0.513-0.661-0.974-1.04-1.392
			c-0.063-0.07-0.125-0.143-0.19-0.21c-0.196-0.202-0.398-0.393-0.608-0.568c-0.006-0.005-0.011-0.011-0.017-0.016
			c-0.228-0.188-0.464-0.359-0.707-0.514c-0.036-0.023-0.074-0.042-0.11-0.064c-0.2-0.123-0.405-0.235-0.614-0.335
			c-0.067-0.032-0.135-0.06-0.203-0.089c-0.183-0.08-0.368-0.15-0.556-0.212c-0.079-0.026-0.159-0.051-0.239-0.074
			c-0.188-0.053-0.379-0.094-0.571-0.128c-0.076-0.014-0.152-0.031-0.228-0.042c-0.266-0.037-0.534-0.06-0.806-0.06
			c-1.004,0-2.011,0.285-2.881,0.876c-1.18,0.802-2.107,2.169-2.429,4.165c-0.08,0.495-0.123,1.029-0.123,1.603
			c0,9.095,10.386,14.98,10.834,15.229c0.151,0.084,0.318,0.126,0.485,0.126c0.168,0,0.335-0.042,0.486-0.126
			c0.026-0.014,0.089-0.05,0.181-0.103c1.456-0.854,10.653-6.605,10.653-15.684C59.486,39.336,56.825,37.434,54.188,37.434z"/>
		<path fill="#010101" d="M26.199,10.041l0.847-1.623l0.908,1.589c2.742,4.799,6.86,4.661,10.644,4.233
			C37.618,6.478,31.972,0.5,25.155,0.5c-6.367,0-11.71,5.216-13.189,12.227c1.6,0.751,4.213,1.642,5.624,1.642
			C20.974,14.37,24.996,12.347,26.199,10.041z"/>
	</g>
</g>
<g id="nyt_x5F_exporter_x5F_info" display="none">
</g>
</svg>
