<?xml version="1.0" encoding="utf-8"?>
<!-- Generator: Adobe Illustrator 17.0.0, SVG Export Plug-In . SVG Version: 6.00 Build 0)  -->
<!DOCTYPE svg PUBLIC "-//W3C//DTD SVG 1.1//EN" "http://www.w3.org/Graphics/SVG/1.1/DTD/svg11.dtd">
<svg version="1.1" id="Layer_1" xmlns="http://www.w3.org/2000/svg" xmlns:xlink="http://www.w3.org/1999/xlink" x="0px" y="0px"
	 width="60px" height="60px" viewBox="0 0 60 60" enable-background="new 0 0 60 60" xml:space="preserve">
<g>
	<path fill="#231F20" d="M30,2.208c-16.542,0-30,11.063-30,24.661c0,6.267,3.155,12.484,8.685,17.173l-6.61,12.276
		c-0.204,0.38-0.142,0.849,0.155,1.162c0.193,0.204,0.457,0.312,0.726,0.312c0.145,0,0.289-0.031,0.426-0.095l16.652-7.837
		c2.669,0.8,6.15,1.668,9.966,1.668c16.542,0,30-11.062,30-24.66C60,13.271,46.542,2.208,30,2.208z M30,49.528
		c-3.731,0-7.171-0.904-9.752-1.692c-0.237-0.071-0.493-0.054-0.718,0.052L5.274,54.596l5.562-10.33
		c0.229-0.425,0.121-0.953-0.256-1.255C5.128,38.648,2,32.765,2,26.869C2,14.373,14.56,4.208,30,4.208c15.439,0,28,10.165,28,22.661
		C58,39.363,45.439,49.528,30,49.528z"/>
</g>
</svg>
