<?xml version="1.0" encoding="utf-8"?>
<!-- Generator: Adobe Illustrator 17.0.0, SVG Export Plug-In . SVG Version: 6.00 Build 0)  -->
<!DOCTYPE svg PUBLIC "-//W3C//DTD SVG 1.1//EN" "http://www.w3.org/Graphics/SVG/1.1/DTD/svg11.dtd">
<svg version="1.1" xmlns="http://www.w3.org/2000/svg" xmlns:xlink="http://www.w3.org/1999/xlink" x="0px" y="0px" width="60px"
	 height="60px" viewBox="0 0 60 60" enable-background="new 0 0 60 60" xml:space="preserve">
<g id="Layer_1">
	<g>
		<path fill="#231F20" d="M27.022,2c-14.888,0-27,10.064-27,22.434c0,6.002,2.528,11.31,7.321,15.401L2.123,50.562
			c-0.184,0.377-0.112,0.83,0.18,1.132C2.495,51.894,2.756,52,3.023,52c0.137,0,0.275-0.028,0.405-0.086l14.053-6.241
			c2.438,0.713,5.144,1.193,7.484,1.326l0.113-1.997c-2.27-0.128-5.026-0.632-7.374-1.349c-0.229-0.069-0.478-0.055-0.698,0.042
			L5.12,48.974l4.366-8.971c0.205-0.42,0.091-0.926-0.274-1.218c-4.703-3.762-7.189-8.725-7.189-14.351
			C2.022,13.167,13.237,4,27.022,4c14.07,0,25.956,9.358,25.956,20.435c0,1.222-0.137,2.445-0.406,3.634l1.95,0.441
			c0.302-1.334,0.456-2.705,0.456-4.076C54.978,12.274,42.176,2,27.022,2z"/>
		<path fill="#231F20" d="M44.978,30c-8.271,0-15,6.729-15,15s6.729,15,15,15c8.271,0,15-6.729,15-15S53.249,30,44.978,30z
			 M44.978,58c-7.168,0-13-5.831-13-13c0-7.168,5.832-13,13-13s13,5.832,13,13C57.978,52.169,52.146,58,44.978,58z"/>
		<path fill="#231F20" d="M52.238,39.327l-9.295,10.224l-5.258-5.258c-0.391-0.391-1.023-0.391-1.414,0
			c-0.391,0.391-0.391,1.023,0,1.414l6.742,6.742l10.705-11.776c0.372-0.409,0.342-1.042-0.067-1.413
			C53.242,38.889,52.61,38.92,52.238,39.327z"/>
	</g>
</g>
<g id="nyt_x5F_exporter_x5F_info" display="none">
</g>
</svg>
