<?xml version="1.0" encoding="utf-8"?>
<!-- Generator: Adobe Illustrator 17.0.0, SVG Export Plug-In . SVG Version: 6.00 Build 0)  -->
<!DOCTYPE svg PUBLIC "-//W3C//DTD SVG 1.1//EN" "http://www.w3.org/Graphics/SVG/1.1/DTD/svg11.dtd">
<svg version="1.1" xmlns="http://www.w3.org/2000/svg" xmlns:xlink="http://www.w3.org/1999/xlink" x="0px" y="0px" width="60px"
	 height="60px" viewBox="0 0 60 60" enable-background="new 0 0 60 60" xml:space="preserve">
<g id="Layer_1">
	<g>
		<path fill="#231F20" d="M27,0C12.112,0,0,10.064,0,22.434c0,6.001,2.528,11.31,7.322,15.401L2.101,48.562
			c-0.184,0.377-0.111,0.83,0.18,1.132C2.474,49.894,2.734,50,3,50c0.137,0,0.275-0.028,0.406-0.086l14.054-6.241
			c2.437,0.713,5.143,1.193,7.483,1.326l0.113-1.997c-2.269-0.128-5.025-0.632-7.373-1.349c-0.231-0.069-0.478-0.055-0.698,0.042
			L5.099,46.974l4.366-8.971c0.204-0.42,0.091-0.926-0.274-1.218C4.486,33.023,2,28.06,2,22.434C2,11.167,13.215,2,27,2
			c14.069,0,25.956,9.358,25.956,20.435c0,1.222-0.137,2.445-0.406,3.634l1.951,0.441c0.302-1.334,0.455-2.705,0.455-4.076
			C54.956,10.274,42.153,0,27,0z"/>
		<path fill="#231F20" d="M42.105,28.553l-15,30c-0.155,0.31-0.139,0.678,0.044,0.973C27.332,59.82,27.653,60,28,60h30
			c0.007,0.001,0.015,0.001,0.019,0c0.553,0,1-0.448,1-1c0-0.228-0.076-0.439-0.205-0.608l-14.92-29.839
			C43.555,27.875,42.445,27.875,42.105,28.553z M29.618,58L43,31.236L56.382,58H29.618z"/>
		<path fill="#231F20" d="M42,41v8c0,0.552,0.447,1,1,1c0.553,0,1-0.448,1-1v-8c0-0.552-0.447-1-1-1C42.447,40,42,40.448,42,41z"/>
		<circle fill="#231F20" cx="43" cy="54" r="2"/>
	</g>
</g>
<g id="nyt_x5F_exporter_x5F_info" display="none">
</g>
</svg>
