<?xml version="1.0" encoding="utf-8"?>
<!-- Generator: Adobe Illustrator 17.0.0, SVG Export Plug-In . SVG Version: 6.00 Build 0)  -->
<!DOCTYPE svg PUBLIC "-//W3C//DTD SVG 1.1//EN" "http://www.w3.org/Graphics/SVG/1.1/DTD/svg11.dtd">
<svg version="1.1" id="Layer_1" xmlns="http://www.w3.org/2000/svg" xmlns:xlink="http://www.w3.org/1999/xlink" x="0px" y="0px"
	 width="60px" height="60px" viewBox="0 0 60 60" enable-background="new 0 0 60 60" xml:space="preserve">
<g>
	<path fill="#231F20" d="M59,4H1C0.448,4,0,4.448,0,5v40c0,0.552,0.448,1,1,1h17v9c0,0.407,0.247,0.773,0.623,0.926
		C18.746,55.976,18.873,56,19,56c0.265,0,0.524-0.105,0.716-0.302L29.161,46H59c0.552,0,1-0.448,1-1V5C60,4.448,59.552,4,59,4z
		 M58,44H28.739c-0.27,0-0.528,0.109-0.716,0.302L20,52.54V45c0-0.552-0.448-1-1-1H2V6h56V44z"/>
	<path fill="#231F20" d="M29.412,38.156c0.175,0.128,0.382,0.192,0.588,0.192s0.413-0.064,0.588-0.192
		c0.583-0.424,14.281-10.477,14.281-18.368c0-5.419-4-8.658-7.868-8.658c-2.421,0-5.293,1.315-7.002,4.808
		c-1.709-3.493-4.581-4.808-7.002-4.808c-3.868,0-7.868,3.239-7.868,8.658C15.13,27.679,28.829,37.732,29.412,38.156z M22.998,13.13
		c2.867,0,5.122,2.254,6.03,6.031c0.108,0.449,0.51,0.766,0.972,0.766s0.864-0.317,0.972-0.766c0.908-3.777,3.163-6.031,6.03-6.031
		c2.884,0,5.868,2.49,5.868,6.658c0,5.429-8.79,13.221-12.87,16.313c-4.079-3.092-12.87-10.884-12.87-16.313
		C17.13,15.621,20.114,13.13,22.998,13.13z"/>
</g>
</svg>
