<?xml version="1.0" encoding="utf-8"?>
<!-- Generator: Adobe Illustrator 17.0.0, SVG Export Plug-In . SVG Version: 6.00 Build 0)  -->
<!DOCTYPE svg PUBLIC "-//W3C//DTD SVG 1.1//EN" "http://www.w3.org/Graphics/SVG/1.1/DTD/svg11.dtd">
<svg version="1.1" id="Layer_1" xmlns="http://www.w3.org/2000/svg" xmlns:xlink="http://www.w3.org/1999/xlink" x="0px" y="0px"
	 width="60px" height="60px" viewBox="0 0 60 60" enable-background="new 0 0 60 60" xml:space="preserve">
<g>
	<path fill="#231F20" d="M1,38h9.087v8.391c0,0.398,0.236,0.758,0.601,0.917c0.128,0.056,0.264,0.083,0.399,0.083
		c0.248,0,0.493-0.092,0.682-0.268L21.567,38H25c0.552,0,1-0.448,1-1s-0.448-1-1-1h-3.826c-0.253,0-0.497,0.096-0.682,0.268
		l-8.405,7.826V37c0-0.552-0.448-1-1-1H2V2h50v24c0,0.552,0.448,1,1,1s1-0.448,1-1V1c0-0.552-0.448-1-1-1H1C0.448,0,0,0.448,0,1v36
		C0,37.552,0.448,38,1,38z"/>
	<path fill="#231F20" d="M45,30c-8.271,0-15,6.729-15,15s6.729,15,15,15s15-6.729,15-15S53.271,30,45,30z M45,58
		c-7.169,0-13-5.831-13-13s5.831-13,13-13s13,5.831,13,13S52.169,58,45,58z"/>
	<path fill="#231F20" d="M51.304,44H46v-5.304c0-0.552-0.448-1-1-1s-1,0.448-1,1V44h-5.304c-0.552,0-1,0.448-1,1s0.448,1,1,1H44
		v5.304c0,0.552,0.448,1,1,1s1-0.448,1-1V46h5.304c0.552,0,1-0.448,1-1S51.856,44,51.304,44z"/>
</g>
</svg>
