<?xml version="1.0" encoding="utf-8"?>
<!-- Generator: Adobe Illustrator 17.0.0, SVG Export Plug-In . SVG Version: 6.00 Build 0)  -->
<!DOCTYPE svg PUBLIC "-//W3C//DTD SVG 1.1//EN" "http://www.w3.org/Graphics/SVG/1.1/DTD/svg11.dtd">
<svg version="1.1" xmlns="http://www.w3.org/2000/svg" xmlns:xlink="http://www.w3.org/1999/xlink" x="0px" y="0px" width="60px"
	 height="60px" viewBox="0 0 60 60" enable-background="new 0 0 60 60" xml:space="preserve">
<g id="Layer_1">
	<g>
		<path fill="#231F20" d="M7.343,39.853L2.607,50.507c-0.168,0.379-0.085,0.824,0.21,1.116c0.191,0.19,0.446,0.29,0.704,0.29
			c0.14,0,0.281-0.029,0.414-0.09l13.531-6.15c2.116,0.6,4.487,0.891,6.144,1.031l0.168-1.993c-2.376-0.2-4.483-0.566-6.096-1.059
			c-0.232-0.07-0.484-0.054-0.706,0.046L5.505,48.913l3.975-8.941c0.185-0.416,0.065-0.903-0.289-1.187
			C4.486,35.022,2,30.06,2,24.434C2,13.167,13.336,4,27.271,4c14.163,0,25.686,9.167,25.686,20.435c0,0.801-0.059,1.602-0.173,2.381
			l1.978,0.291c0.129-0.875,0.194-1.774,0.194-2.672C54.956,12.065,42.536,2,27.271,2C12.233,2,0,12.064,0,24.434
			C0,30.444,2.535,35.76,7.343,39.853z"/>
		<path fill="#231F20" d="M30,45c0,8.271,6.728,15,15,15c8.271,0,15-6.729,15-15s-6.729-15-15-15C36.728,30,30,36.729,30,45z M58,45
			c0,7.169-5.832,13-13,13s-13-5.831-13-13c0-7.168,5.832-13,13-13S58,37.832,58,45z"/>
		<path fill="#231F20" d="M44,38.123V44h-5.877c-0.553,0-1,0.448-1,1c0,0.552,0.447,1,1,1H44v5.877c0,0.552,0.447,1,1,1
			c0.553,0,1-0.448,1-1V46h5.877c0.553,0,1-0.448,1-1c0-0.552-0.447-1-1-1H46v-5.877c0-0.552-0.447-1-1-1
			C44.447,37.123,44,37.57,44,38.123z"/>
	</g>
</g>
<g id="nyt_x5F_exporter_x5F_info" display="none">
</g>
</svg>
