<?xml version="1.0" encoding="utf-8"?>
<!-- Generator: Adobe Illustrator 17.0.0, SVG Export Plug-In . SVG Version: 6.00 Build 0)  -->
<!DOCTYPE svg PUBLIC "-//W3C//DTD SVG 1.1//EN" "http://www.w3.org/Graphics/SVG/1.1/DTD/svg11.dtd">
<svg version="1.1" id="Layer_1" xmlns="http://www.w3.org/2000/svg" xmlns:xlink="http://www.w3.org/1999/xlink" x="0px" y="0px"
	 width="60px" height="60px" viewBox="0 0 60 60" enable-background="new 0 0 60 60" xml:space="preserve">
<g>
	<path fill="#231F20" d="M59,4H1C0.448,4,0,4.448,0,5v40c0,0.552,0.448,1,1,1h17v9c0,0.407,0.247,0.773,0.623,0.926
		C18.746,55.976,18.873,56,19,56c0.265,0,0.524-0.105,0.716-0.302L29.161,46H59c0.552,0,1-0.448,1-1V5C60,4.448,59.552,4,59,4z
		 M58,44H28.739c-0.27,0-0.528,0.109-0.716,0.302L20,52.54V45c0-0.552-0.448-1-1-1H2V6h56V44z"/>
	<path fill="#231F20" d="M18,29c2.761,0,5-2.238,5-5c0-2.761-2.239-5-5-5c-2.761,0-5,2.239-5,5C13,26.762,15.239,29,18,29z M18,21
		c1.654,0,3,1.346,3,3s-1.346,3-3,3s-3-1.346-3-3S16.346,21,18,21z"/>
	<path fill="#231F20" d="M30,29c2.761,0,5-2.238,5-5c0-2.761-2.239-5-5-5c-2.761,0-5,2.239-5,5C25,26.762,27.239,29,30,29z M30,21
		c1.654,0,3,1.346,3,3s-1.346,3-3,3s-3-1.346-3-3S28.346,21,30,21z"/>
	<path fill="#231F20" d="M42,29c2.761,0,5-2.238,5-5c0-2.761-2.239-5-5-5c-2.761,0-5,2.239-5,5C37,26.762,39.239,29,42,29z M42,21
		c1.654,0,3,1.346,3,3s-1.346,3-3,3s-3-1.346-3-3S40.346,21,42,21z"/>
</g>
</svg>
