<?xml version="1.0" encoding="utf-8"?>
<!-- Generator: Adobe Illustrator 17.0.0, SVG Export Plug-In . SVG Version: 6.00 Build 0)  -->
<!DOCTYPE svg PUBLIC "-//W3C//DTD SVG 1.1//EN" "http://www.w3.org/Graphics/SVG/1.1/DTD/svg11.dtd">
<svg version="1.1" xmlns="http://www.w3.org/2000/svg" xmlns:xlink="http://www.w3.org/1999/xlink" x="0px" y="0px" width="60px"
	 height="60px" viewBox="0 0 60 60" enable-background="new 0 0 60 60" xml:space="preserve">
<g id="Layer_1">
	<g>
		<path fill="#231F20" d="M33.956,41c0-0.552-0.447-1-1-1H28c-0.283,0-0.554,0.12-0.743,0.331L20,48.394V41c0-0.552-0.447-1-1-1h-2
			C8.729,40,2,32.998,2,24.391C2,16.016,8.469,8.979,17.056,8H37.51c8.666,0.988,15.446,8.178,15.446,16.391
			c0,1.487-0.214,2.96-0.637,4.375c-0.158,0.529,0.143,1.086,0.672,1.244c0.531,0.161,1.087-0.143,1.244-0.672
			c0.478-1.602,0.721-3.266,0.721-4.947c0-9.234-7.591-17.31-17.28-18.385C37.639,6.002,37.602,6,37.565,6H17
			c-0.037,0-0.073,0.002-0.11,0.006C7.261,7.074,0,14.978,0,24.391C0,34.101,7.626,42,17,42h1v9c0,0.414,0.255,0.785,0.642,0.934
			C18.759,51.979,18.88,52,19,52c0.278,0,0.55-0.116,0.743-0.331L28.445,42h4.511C33.509,42,33.956,41.552,33.956,41z"/>
		<path fill="#231F20" d="M45.888,33.539c-0.175-0.336-0.531-0.524-0.903-0.539c-0.379,0.006-0.722,0.226-0.886,0.567l-12,25
			c-0.148,0.31-0.128,0.674,0.055,0.965C32.337,59.823,32.656,60,33,60h25c0.008,0,0.016,0,0.019,0c0.553,0,1-0.448,1-1
			c0-0.234-0.08-0.449-0.215-0.62L45.888,33.539z M34.589,58l10.447-21.764L56.352,58H34.589z"/>
		<path fill="#231F20" d="M44,45v5c0,0.552,0.447,1,1,1c0.553,0,1-0.448,1-1v-5c0-0.552-0.447-1-1-1C44.447,44,44,44.448,44,45z"/>
		<circle fill="#231F20" cx="45" cy="54" r="2"/>
	</g>
</g>
<g id="nyt_x5F_exporter_x5F_info" display="none">
</g>
</svg>
