<?xml version="1.0" encoding="utf-8"?>
<!-- Generator: Adobe Illustrator 17.0.0, SVG Export Plug-In . SVG Version: 6.00 Build 0)  -->
<!DOCTYPE svg PUBLIC "-//W3C//DTD SVG 1.1//EN" "http://www.w3.org/Graphics/SVG/1.1/DTD/svg11.dtd">
<svg version="1.1" xmlns="http://www.w3.org/2000/svg" xmlns:xlink="http://www.w3.org/1999/xlink" x="0px" y="0px" width="60px"
	 height="60px" viewBox="0 0 60 60" enable-background="new 0 0 60 60" xml:space="preserve">
<g id="Layer_1">
	<g>
		<path fill="#231F20" d="M30,2C13.458,2,0,13.25,0,27.077c0,6.473,2.993,12.538,8.449,17.161L2.28,56.552
			c-0.19,0.38-0.119,0.839,0.178,1.145C2.65,57.895,2.91,58,3.175,58c0.143,0,0.287-0.03,0.422-0.093l16.321-7.597
			c3.226,0.947,6.615,1.426,10.082,1.426c16.542,0,30-11.062,30-24.66C60,13.25,46.542,2,30,2z M30,49.736
			c-3.4,0-6.721-0.488-9.867-1.45c-0.233-0.071-0.49-0.055-0.714,0.05L5.353,54.883l5.241-10.462
			c0.211-0.422,0.099-0.934-0.269-1.229C4.956,38.896,2,33.173,2,27.077C2,14.352,14.56,4,30,4c15.439,0,28,10.352,28,23.077
			C58,39.571,45.439,49.736,30,49.736z"/>
		<path fill="#231F20" d="M23,26h-6c-0.553,0-1,0.448-1,1v6c0,0.552,0.447,1,1,1h5v2.171c0,0.84-0.683,1.523-1.522,1.523
			c-0.553,0-1,0.448-1,1c0,0.552,0.447,1,1,1c1.941,0,3.522-1.581,3.522-3.523V33v-1.87V27C24,26.448,23.553,26,23,26z M18,32v-4h4
			v3.13V32H18z"/>
		<path fill="#231F20" d="M23,14c-0.553,0-1,0.448-1,1v6c0,0.552,0.447,1,1,1c0.553,0,1-0.448,1-1v-6C24,14.448,23.553,14,23,14z"/>
		<path fill="#231F20" d="M34,14c-0.553,0-1,0.448-1,1c0,0.552,0.447,1,1,1c3.589,0,6,2.411,6,6v8c0,3.589-2.411,6-6,6
			c-0.553,0-1,0.448-1,1c0,0.552,0.447,1,1,1c4.71,0,8-3.29,8-8v-8C42,17.29,38.71,14,34,14z"/>
	</g>
</g>
<g id="nyt_x5F_exporter_x5F_info" display="none">
</g>
</svg>
