<?xml version="1.0" encoding="utf-8"?>
<!-- Generator: Adobe Illustrator 17.0.0, SVG Export Plug-In . SVG Version: 6.00 Build 0)  -->
<!DOCTYPE svg PUBLIC "-//W3C//DTD SVG 1.1//EN" "http://www.w3.org/Graphics/SVG/1.1/DTD/svg11.dtd">
<svg version="1.1" xmlns="http://www.w3.org/2000/svg" xmlns:xlink="http://www.w3.org/1999/xlink" x="0px" y="0px" width="60px"
	 height="60px" viewBox="0 0 60 60" enable-background="new 0 0 60 60" xml:space="preserve">
<g id="Layer_1">
	<g>
		<path fill="#231F20" d="M54.501,26.511c0.302-1.334,0.455-2.705,0.455-4.076C54.956,10.274,42.153,0,27,0
			C12.112,0,0,10.064,0,22.434c0,6.001,2.528,11.31,7.322,15.401L2.101,48.562c-0.184,0.377-0.111,0.83,0.18,1.132
			C2.474,49.894,2.734,50,3,50c0.137,0,0.275-0.028,0.406-0.086l14.054-6.241c2.437,0.713,5.143,1.193,7.483,1.326l0.113-1.997
			c-2.269-0.128-5.025-0.632-7.373-1.349c-0.229-0.069-0.477-0.055-0.698,0.042L5.099,46.974l4.366-8.971
			c0.204-0.42,0.091-0.926-0.274-1.218C4.486,33.023,2,28.06,2,22.434C2,11.167,13.215,2,27,2c14.069,0,25.956,9.358,25.956,20.435
			c0,1.222-0.137,2.445-0.406,3.634L54.501,26.511z"/>
		<path fill="#231F20" d="M59,40h-8.382l-4.724-9.447c-0.34-0.678-1.449-0.678-1.789,0L39.382,40H31
			c-0.419,0-0.794,0.262-0.939,0.655c-0.144,0.393-0.028,0.835,0.291,1.107l7.312,6.215l-3.568,10.706
			c-0.137,0.408,0.004,0.857,0.347,1.115C34.62,59.933,34.832,60,35.044,60c0.197,0,0.396-0.059,0.567-0.176l9.515-6.534
			l9.301,6.528c0.349,0.246,0.818,0.242,1.165-0.011c0.346-0.253,0.491-0.698,0.363-1.107l-3.37-10.727l7.076-6.223
			c0.312-0.275,0.423-0.714,0.275-1.104C59.789,40.258,59.416,40,59,40z M50.774,46.901c-0.297,0.261-0.412,0.673-0.294,1.051
			l2.683,8.537l-7.458-5.234c-0.172-0.121-0.373-0.182-0.574-0.182c-0.197,0-0.395,0.059-0.566,0.176l-7.629,5.239l2.839-8.519
			c0.13-0.387,0.011-0.814-0.301-1.078L33.721,42H40c0.379,0,0.725-0.214,0.894-0.553L45,33.236l4.105,8.211
			C49.275,41.786,49.621,42,50,42h6.349L50.774,46.901z"/>
	</g>
</g>
<g id="nyt_x5F_exporter_x5F_info" display="none">
</g>
</svg>
