<?xml version="1.0" encoding="utf-8"?>
<!-- Generator: Adobe Illustrator 17.0.0, SVG Export Plug-In . SVG Version: 6.00 Build 0)  -->
<!DOCTYPE svg PUBLIC "-//W3C//DTD SVG 1.1//EN" "http://www.w3.org/Graphics/SVG/1.1/DTD/svg11.dtd">
<svg version="1.1" id="Layer_1" xmlns="http://www.w3.org/2000/svg" xmlns:xlink="http://www.w3.org/1999/xlink" x="0px" y="0px"
	 width="60px" height="60px" viewBox="0 0 60 60" enable-background="new 0 0 60 60" xml:space="preserve">
<g>
	<path fill="#231F20" d="M59,6H1C0.448,6,0,6.448,0,7v38c0,0.552,0.448,1,1,1h15l0,9c0,0.396,0.233,0.754,0.595,0.915
		C16.726,55.972,16.863,56,17,56c0.244,0,0.485-0.089,0.673-0.26L28.387,46H59c0.552,0,1-0.448,1-1V7C60,6.448,59.552,6,59,6z
		 M58,44H28c-0.248,0-0.489,0.093-0.673,0.26L18,52.739L18,45c0-0.265-0.105-0.519-0.293-0.707S17.266,44,17,44H2V8h56V44z"/>
	<path fill="#231F20" d="M17,28h9v3c0,2.253-1.794,4.087-4,4.087c-0.552,0-1,0.448-1,1c0,0.552,0.448,1,1,1c3.309,0,6-2.731,6-6.087
		v-4V17c0-0.552-0.448-1-1-1H17c-0.552,0-1,0.448-1,1v10C16,27.552,16.448,28,17,28z M18,18h8v8h-8V18z"/>
	<path fill="#231F20" d="M33,28h9v3c0,2.253-1.794,4.087-4,4.087c-0.552,0-1,0.448-1,1c0,0.552,0.448,1,1,1c3.309,0,6-2.731,6-6.087
		v-4V17c0-0.552-0.448-1-1-1H33c-0.552,0-1,0.448-1,1v10C32,27.552,32.448,28,33,28z M34,18h8v8h-8V18z"/>
</g>
</svg>
