<?xml version="1.0" encoding="utf-8"?>
<!-- Generator: Adobe Illustrator 17.0.0, SVG Export Plug-In . SVG Version: 6.00 Build 0)  -->
<!DOCTYPE svg PUBLIC "-//W3C//DTD SVG 1.1//EN" "http://www.w3.org/Graphics/SVG/1.1/DTD/svg11.dtd">
<svg version="1.1" xmlns="http://www.w3.org/2000/svg" xmlns:xlink="http://www.w3.org/1999/xlink" x="0px" y="0px" width="60px"
	 height="60px" viewBox="0 0 60 60" enable-background="new 0 0 60 60" xml:space="preserve">
<g id="Layer_1">
	<g>
		<path fill="#231F20" d="M54.5,28.511c0.303-1.335,0.456-2.707,0.456-4.076C54.956,12.274,42.154,2,27,2
			C12.112,2,0,12.064,0,24.434c0,6.002,2.528,11.311,7.322,15.401L2.101,50.562c-0.184,0.377-0.112,0.83,0.18,1.132
			C2.473,51.894,2.734,52,3,52c0.137,0,0.275-0.028,0.405-0.086l14.053-6.241c2.439,0.713,5.145,1.193,7.484,1.326l0.113-1.997
			c-2.269-0.128-5.025-0.632-7.373-1.349c-0.231-0.069-0.477-0.055-0.698,0.042L5.098,48.974l4.366-8.971
			c0.205-0.42,0.091-0.926-0.275-1.218C4.486,35.023,2,30.061,2,24.434C2,13.167,13.215,4,27,4c14.07,0,25.956,9.358,25.956,20.435
			c0,1.221-0.137,2.443-0.406,3.634L54.5,28.511z"/>
		<path fill="#231F20" d="M45,30c-8.271,0-15,6.729-15,15s6.729,15,15,15s15-6.729,15-15S53.271,30,45,30z M45,32
			c3.225,0,6.173,1.187,8.448,3.139L35.138,53.448C33.187,51.173,32,48.225,32,45C32,37.832,37.831,32,45,32z M45,58
			c-3.225,0-6.173-1.187-8.448-3.138l18.309-18.309C56.813,38.827,58,41.775,58,45C58,52.169,52.169,58,45,58z"/>
	</g>
</g>
<g id="nyt_x5F_exporter_x5F_info" display="none">
</g>
</svg>
