<?xml version="1.0" encoding="utf-8"?>
<!-- Generator: Adobe Illustrator 17.0.0, SVG Export Plug-In . SVG Version: 6.00 Build 0)  -->
<!DOCTYPE svg PUBLIC "-//W3C//DTD SVG 1.1//EN" "http://www.w3.org/Graphics/SVG/1.1/DTD/svg11.dtd">
<svg version="1.1" id="Layer_1" xmlns="http://www.w3.org/2000/svg" xmlns:xlink="http://www.w3.org/1999/xlink" x="0px" y="0px"
	 width="60px" height="60px" viewBox="0 0 60 60" enable-background="new 0 0 60 60" xml:space="preserve">
<g>
	<path fill="#231F20" d="M1,38h9.087v8.391c0,0.398,0.236,0.758,0.601,0.917c0.129,0.056,0.265,0.083,0.399,0.083
		c0.248,0,0.492-0.092,0.682-0.268L21.567,38H25c0.553,0,1-0.448,1-1s-0.447-1-1-1h-3.826c-0.253,0-0.496,0.096-0.682,0.268
		l-8.405,7.826V37c0-0.552-0.447-1-1-1H2V2h50v24c0,0.552,0.447,1,1,1c0.553,0,1-0.448,1-1V1c0-0.552-0.447-1-1-1H1
		C0.447,0,0,0.448,0,1v36C0,37.552,0.447,38,1,38z"/>
	<path fill="#231F20" d="M45,30c-8.271,0-15,6.729-15,15s6.729,15,15,15s15-6.729,15-15S53.271,30,45,30z M45,58
		c-7.168,0-13-5.831-13-13s5.832-13,13-13s13,5.831,13,13S52.168,58,45,58z"/>
	<path fill="#231F20" d="M51.707,38.294c-0.391-0.391-1.023-0.391-1.414,0L45,43.587l-5.293-5.292c-0.391-0.391-1.023-0.391-1.414,0
		c-0.391,0.391-0.391,1.024,0,1.414l5.293,5.292l-5.293,5.292c-0.391,0.39-0.391,1.023,0,1.414C38.488,51.902,38.744,52,39,52
		c0.256,0,0.512-0.098,0.707-0.293L45,46.415l5.293,5.292C50.488,51.902,50.744,52,51,52c0.256,0,0.512-0.098,0.707-0.293
		c0.391-0.391,0.391-1.024,0-1.414l-5.293-5.292l5.293-5.292C52.098,39.318,52.098,38.685,51.707,38.294z"/>
</g>
</svg>
