<?xml version="1.0" encoding="utf-8"?>
<!-- Generator: Adobe Illustrator 17.0.0, SVG Export Plug-In . SVG Version: 6.00 Build 0)  -->
<!DOCTYPE svg PUBLIC "-//W3C//DTD SVG 1.1//EN" "http://www.w3.org/Graphics/SVG/1.1/DTD/svg11.dtd">
<svg version="1.1" id="Layer_1" xmlns="http://www.w3.org/2000/svg" xmlns:xlink="http://www.w3.org/1999/xlink" x="0px" y="0px"
	 width="60px" height="60px" viewBox="0 0 60 60" enable-background="new 0 0 60 60" xml:space="preserve">
<g>
	<path fill="#231F20" d="M4,48h2v8.522c0,0.384,0.22,0.733,0.565,0.9c0.138,0.067,0.286,0.1,0.435,0.1
		c0.222,0,0.441-0.074,0.621-0.217L19.349,48H56c1.944,0,4-2.056,4-4V12c0-2.626-2.013-4-4-4H3.521C1.35,8,0,9.533,0,12v32
		C0,45.944,2.056,48,4,48z M2,12c0-2,1.146-2,1.521-2H56c0.923,0,2,0.524,2,2v32c0,0.841-1.159,2-2,2H19
		c-0.226,0-0.444,0.076-0.621,0.217L8,54.452V47c0-0.552-0.447-1-1-1H4c-0.841,0-2-1.159-2-2V12z"/>
	<path fill="#231F20" d="M21.174,29.761c1.246,0,2.261-1.014,2.261-2.261s-1.015-2.261-2.261-2.261s-2.261,1.014-2.261,2.261
		S19.928,29.761,21.174,29.761z M21.174,27.239c0.144,0,0.261,0.117,0.261,0.261c0,0.287-0.521,0.287-0.521,0
		C20.913,27.356,21.03,27.239,21.174,27.239z"/>
	<path fill="#231F20" d="M41.348,29.761c1.246,0,2.261-1.014,2.261-2.261s-1.015-2.261-2.261-2.261
		c-1.246,0-2.261,1.014-2.261,2.261S40.102,29.761,41.348,29.761z M41.348,27.239c0.144,0,0.261,0.117,0.261,0.261
		c0,0.287-0.521,0.287-0.521,0C41.087,27.356,41.204,27.239,41.348,27.239z"/>
	<path fill="#231F20" d="M31.261,29.761c1.246,0,2.261-1.014,2.261-2.261s-1.015-2.261-2.261-2.261S29,26.253,29,27.5
		S30.015,29.761,31.261,29.761z M31.261,27.239c0.144,0,0.261,0.117,0.261,0.261c0,0.287-0.521,0.287-0.521,0
		C31,27.356,31.117,27.239,31.261,27.239z"/>
</g>
</svg>
