<?xml version="1.0" encoding="utf-8"?>
<!-- Generator: Adobe Illustrator 17.0.0, SVG Export Plug-In . SVG Version: 6.00 Build 0)  -->
<!DOCTYPE svg PUBLIC "-//W3C//DTD SVG 1.1//EN" "http://www.w3.org/Graphics/SVG/1.1/DTD/svg11.dtd">
<svg version="1.1" id="Layer_1" xmlns="http://www.w3.org/2000/svg" xmlns:xlink="http://www.w3.org/1999/xlink" x="0px" y="0px"
	 width="60px" height="60px" viewBox="0 0 60 60" enable-background="new 0 0 60 60" xml:space="preserve">
<g>
	<path fill="#231F20" d="M59,6H1C0.448,6,0,6.448,0,7v38c0,0.552,0.448,1,1,1h15l0,9c0,0.396,0.233,0.754,0.595,0.915
		C16.726,55.972,16.863,56,17,56c0.244,0,0.485-0.089,0.673-0.26L28.387,46H59c0.552,0,1-0.448,1-1V7C60,6.448,59.552,6,59,6z
		 M58,44H28c-0.248,0-0.489,0.093-0.673,0.26L18,52.739L18,45c0-0.265-0.105-0.519-0.293-0.707S17.266,44,17,44H2V8h56V44z"/>
	<path fill="#231F20" d="M16.13,20.696c0.552,0,1-0.448,1-1c0-2.229,1.814-4.044,4.043-4.044c2.229,0,4.043,1.814,4.043,4.044
		c0,0.552,0.448,1,1,1c0.552,0,1-0.448,1-1c0-3.333-2.711-6.044-6.043-6.044c-3.333,0-6.043,2.711-6.043,6.044
		C15.13,20.248,15.578,20.696,16.13,20.696z"/>
	<path fill="#231F20" d="M33.783,20.696c0.552,0,1-0.448,1-1c0-2.229,1.814-4.044,4.043-4.044c2.23,0,4.043,1.814,4.043,4.044
		c0,0.552,0.448,1,1,1s1-0.448,1-1c0-3.333-2.711-6.044-6.043-6.044c-3.332,0-6.043,2.711-6.043,6.044
		C32.783,20.248,33.231,20.696,33.783,20.696z"/>
	<path fill="#231F20" d="M24.956,38.348h10.087c6.809,0,12.348-5.539,12.348-12.348c0-0.552-0.448-1-1-1c-0.552,0-1,0.448-1,1
		c0,5.706-4.642,10.348-10.348,10.348H24.956c-5.706,0-10.348-4.642-10.348-10.348c0-0.552-0.448-1-1-1s-1,0.448-1,1
		C12.609,32.809,18.148,38.348,24.956,38.348z"/>
</g>
</svg>
