<?xml version="1.0" encoding="utf-8"?>
<!-- Generator: Adobe Illustrator 17.0.0, SVG Export Plug-In . SVG Version: 6.00 Build 0)  -->
<!DOCTYPE svg PUBLIC "-//W3C//DTD SVG 1.1//EN" "http://www.w3.org/Graphics/SVG/1.1/DTD/svg11.dtd">
<svg version="1.1" id="Layer_1" xmlns="http://www.w3.org/2000/svg" xmlns:xlink="http://www.w3.org/1999/xlink" x="0px" y="0px"
	 width="60px" height="60px" viewBox="0 0 60 60" enable-background="new 0 0 60 60" xml:space="preserve">
<g>
	<path fill="#231F20" d="M59.935,40.646C59.788,40.257,59.416,40,59,40h-8.382l-4.724-9.447c-0.34-0.678-1.449-0.678-1.789,0
		L39.382,40H31c-0.42,0-0.795,0.262-0.94,0.656c-0.143,0.394-0.026,0.836,0.294,1.108l7.352,6.215l-3.567,10.705
		c-0.137,0.41,0.005,0.861,0.352,1.119c0.349,0.258,0.819,0.263,1.174,0.014l9.346-6.6l9.688,6.609
		C54.867,59.942,55.064,60,55.261,60c0.213,0,0.425-0.068,0.603-0.202c0.343-0.259,0.481-0.707,0.346-1.114l-3.572-10.72
		l7.025-6.214C59.974,41.474,60.082,41.035,59.935,40.646z M50.816,46.903c-0.301,0.266-0.413,0.685-0.286,1.065l2.844,8.534
		l-7.811-5.329C45.394,51.058,45.196,51,45,51c-0.202,0-0.404,0.061-0.577,0.183l-7.424,5.243l2.818-8.457
		c0.13-0.388,0.01-0.816-0.303-1.08L33.731,42H40c0.379,0,0.725-0.214,0.894-0.553L45,33.236l4.105,8.212
		C49.275,41.786,49.621,42,50,42h6.36L50.816,46.903z"/>
	<path fill="#231F20" d="M1,38h9.087v8.391c0,0.399,0.238,0.761,0.605,0.919c0.128,0.055,0.262,0.081,0.395,0.081
		c0.251,0,0.498-0.095,0.688-0.274L21.398,38H27c0.553,0,1-0.448,1-1s-0.447-1-1-1h-6c-0.256,0-0.502,0.098-0.688,0.274
		l-8.226,7.792V37c0-0.552-0.447-1-1-1H2V2h50v25c0,0.552,0.447,1,1,1c0.553,0,1-0.448,1-1V1c0-0.552-0.447-1-1-1H1
		C0.447,0,0,0.448,0,1v36C0,37.552,0.447,38,1,38z"/>
</g>
</svg>
