<?xml version="1.0" encoding="utf-8"?>
<!-- Generator: Adobe Illustrator 17.0.0, SVG Export Plug-In . SVG Version: 6.00 Build 0)  -->
<!DOCTYPE svg PUBLIC "-//W3C//DTD SVG 1.1//EN" "http://www.w3.org/Graphics/SVG/1.1/DTD/svg11.dtd">
<svg version="1.1" id="Layer_1" xmlns="http://www.w3.org/2000/svg" xmlns:xlink="http://www.w3.org/1999/xlink" x="0px" y="0px"
	 width="60px" height="60px" viewBox="0 0 60 60" enable-background="new 0 0 60 60" xml:space="preserve">
<g>
	<path fill="#231F20" d="M59,6H1C0.447,6,0,6.448,0,7v38c0,0.552,0.447,1,1,1h15.001L16,55c0,0.396,0.233,0.754,0.596,0.915
		C16.726,55.972,16.863,56,17,56c0.244,0,0.485-0.089,0.673-0.26L28.387,46H59c0.553,0,1-0.448,1-1V7C60,6.448,59.553,6,59,6z
		 M58,44H28c-0.249,0-0.488,0.093-0.673,0.26L18,52.739L18.001,45c0-0.265-0.105-0.519-0.293-0.707S17.267,44,17.001,44H2V8h56V44z"
		/>
	<path fill="#231F20" d="M26,34.044c-0.553,0-1,0.448-1,1c0,0.552,0.447,1,1,1h10c0.553,0,1-0.448,1-1c0-0.552-0.447-1-1-1h-4v-13
		c0-0.552-0.447-1-1-1h-5c-0.553,0-1,0.448-1,1c0,0.552,0.447,1,1,1h4v12H26z"/>
	<path fill="#231F20" d="M30.043,18.044c1.393,0,2.522-1.129,2.522-2.522c0-1.393-1.129-2.521-2.522-2.521
		c-1.393,0-2.522,1.129-2.522,2.521C27.521,16.915,28.65,18.044,30.043,18.044z M30.043,15c0.288,0,0.522,0.234,0.522,0.521
		c0,0.288-0.234,0.522-0.522,0.522c-0.287,0-0.522-0.234-0.522-0.522C29.521,15.234,29.756,15,30.043,15z"/>
</g>
</svg>
