<?xml version="1.0" encoding="utf-8"?>
<!-- Generator: Adobe Illustrator 17.0.0, SVG Export Plug-In . SVG Version: 6.00 Build 0)  -->
<!DOCTYPE svg PUBLIC "-//W3C//DTD SVG 1.1//EN" "http://www.w3.org/Graphics/SVG/1.1/DTD/svg11.dtd">
<svg version="1.1" id="Layer_1" xmlns="http://www.w3.org/2000/svg" xmlns:xlink="http://www.w3.org/1999/xlink" x="0px" y="0px"
	 width="60px" height="60px" viewBox="0 0 60 60" enable-background="new 0 0 60 60" xml:space="preserve">
<g>
	<path fill="#231F20" d="M59,6H1C0.447,6,0,6.448,0,7v38c0,0.552,0.447,1,1,1h15.001L16,55c0,0.396,0.233,0.754,0.596,0.915
		C16.726,55.972,16.863,56,17,56c0.244,0,0.485-0.089,0.673-0.26L28.387,46H59c0.553,0,1-0.448,1-1V7C60,6.448,59.553,6,59,6z
		 M58,44H28c-0.249,0-0.488,0.093-0.673,0.26L18,52.739L18.001,45c0-0.265-0.105-0.519-0.293-0.707S17.267,44,17.001,44H2V8h56V44z"
		/>
	<path fill="#231F20" d="M31.261,34c-1.393,0-2.521,1.13-2.521,2.521c0,1.394,1.129,2.522,2.521,2.522
		c1.393,0,2.521-1.128,2.521-2.522C33.782,35.13,32.653,34,31.261,34z M31.261,37.044c-0.287,0-0.521-0.234-0.521-0.522
		c0-0.288,0.234-0.521,0.521-0.521c0.288,0,0.521,0.234,0.521,0.521C31.782,36.81,31.549,37.044,31.261,37.044z"/>
	<path fill="#231F20" d="M23.695,21.13c0.553,0,1-0.448,1-1c0-3.62,2.945-6.565,6.565-6.565c3.62,0,6.565,2.945,6.565,6.565
		c0,3.62-2.945,6.565-6.565,6.565c-0.553,0-1,0.448-1,1v2.521c0,0.552,0.447,1,1,1c0.553,0,1-0.448,1-1v-1.58
		c4.254-0.497,7.565-4.123,7.565-8.507c0-4.723-3.843-8.565-8.565-8.565c-4.723,0-8.565,3.842-8.565,8.565
		C22.695,20.683,23.143,21.13,23.695,21.13z"/>
</g>
</svg>
