<?xml version="1.0" encoding="utf-8"?>
<!-- Generator: Adobe Illustrator 17.0.0, SVG Export Plug-In . SVG Version: 6.00 Build 0)  -->
<!DOCTYPE svg PUBLIC "-//W3C//DTD SVG 1.1//EN" "http://www.w3.org/Graphics/SVG/1.1/DTD/svg11.dtd">
<svg version="1.1" xmlns="http://www.w3.org/2000/svg" xmlns:xlink="http://www.w3.org/1999/xlink" x="0px" y="0px" width="60px"
	 height="60px" viewBox="0 0 60 60" enable-background="new 0 0 60 60" xml:space="preserve">
<g id="Layer_1">
	<g>
		<path fill="#231F20" d="M37.697,4.006C37.661,4.002,37.623,4,37.587,4H17.022c-0.037,0-0.074,0.002-0.11,0.006
			c-9.628,1.068-16.89,8.972-16.89,18.385c0,9.71,7.626,17.609,17,17.609h1v9c0,0.414,0.255,0.785,0.642,0.934
			C18.78,49.979,18.901,50,19.022,50c0.278,0,0.55-0.116,0.743-0.331L28.467,40h1.555c0.552,0,1-0.448,1-1c0-0.552-0.448-1-1-1h-2
			c-0.284,0-0.554,0.12-0.743,0.331l-7.257,8.063V39c0-0.552-0.448-1-1-1h-2c-8.271,0-15-7.002-15-15.609
			C2.022,14.016,8.49,6.979,17.078,6h20.453c8.667,0.988,15.447,8.178,15.447,16.391c0,2.047-0.4,4.039-1.19,5.917
			c-0.214,0.509,0.025,1.096,0.534,1.31c0.512,0.214,1.096-0.026,1.31-0.534c0.894-2.126,1.347-4.378,1.347-6.693
			C54.978,13.157,47.387,5.081,37.697,4.006z"/>
		<path fill="#231F20" d="M33.978,47c0,7.169,5.832,13,13,13s13-5.831,13-13c0-7.168-5.832-13-13-13S33.978,39.832,33.978,47z
			 M57.978,47c0,6.065-4.935,11-11,11c-6.065,0-11-4.935-11-11c0-6.065,4.935-11,11-11C53.044,36,57.978,40.935,57.978,47z"/>
		<path fill="#231F20" d="M41.685,46.293c-0.391-0.391-1.023-0.391-1.414,0c-0.391,0.391-0.391,1.023,0,1.414l5.707,5.707
			l8.707-8.707c0.391-0.391,0.391-1.023,0-1.414c-0.391-0.391-1.023-0.391-1.414,0l-7.293,7.293L41.685,46.293z"/>
	</g>
</g>
<g id="nyt_x5F_exporter_x5F_info" display="none">
</g>
</svg>
