<?xml version="1.0" encoding="utf-8"?>
<!-- Generator: Adobe Illustrator 17.0.0, SVG Export Plug-In . SVG Version: 6.00 Build 0)  -->
<!DOCTYPE svg PUBLIC "-//W3C//DTD SVG 1.1//EN" "http://www.w3.org/Graphics/SVG/1.1/DTD/svg11.dtd">
<svg version="1.1" xmlns="http://www.w3.org/2000/svg" xmlns:xlink="http://www.w3.org/1999/xlink" x="0px" y="0px" width="60px"
	 height="60px" viewBox="0 0 60 60" enable-background="new 0 0 60 60" xml:space="preserve">
<g id="Layer_1">
	<g>
		<path fill="#231F20" d="M30,3C13.458,3,0,14.063,0,27.661c0,6.475,2.994,12.541,8.451,17.162l-6.346,12.73
			c-0.191,0.383-0.117,0.845,0.184,1.149C2.481,58.898,2.739,59,3,59c0.148,0,0.297-0.033,0.436-0.1l16.49-8.002
			c3.225,0.944,6.612,1.423,10.073,1.423c16.542,0,30-11.062,30-24.66C60,14.063,46.542,3,30,3z M30,50.321
			c-3.399,0-6.719-0.487-9.868-1.449c-0.241-0.072-0.501-0.054-0.728,0.057l-14.199,6.89l5.391-10.815
			c0.21-0.422,0.098-0.933-0.271-1.227C4.956,39.482,2,33.759,2,27.661C2,15.166,14.56,5,30,5s28,10.166,28,22.661
			C58,40.156,45.44,50.321,30,50.321z"/>
		<circle fill="#231F20" cx="31" cy="39" r="2"/>
		<path fill="#231F20" d="M31.261,14.505c-4.723,0-8.565,3.913-8.565,8.722c0,0.552,0.448,1,1,1s1-0.448,1-1
			c0-3.644,3.006-6.722,6.565-6.722c3.62,0,6.565,2.91,6.565,6.487C37.826,26.417,34.892,29,31,29c-0.552,0-1,0.448-1,1v4
			c0,0.552,0.448,1,1,1s1-0.448,1-1v-3.049c4.462-0.437,7.826-3.776,7.826-7.96C39.826,18.312,35.984,14.505,31.261,14.505z"/>
	</g>
</g>
<g id="nyt_x5F_exporter_x5F_info" display="none">
</g>
</svg>
