<?xml version="1.0" encoding="utf-8"?>
<!-- Generator: Adobe Illustrator 17.0.0, SVG Export Plug-In . SVG Version: 6.00 Build 0)  -->
<!DOCTYPE svg PUBLIC "-//W3C//DTD SVG 1.1//EN" "http://www.w3.org/Graphics/SVG/1.1/DTD/svg11.dtd">
<svg version="1.1" xmlns="http://www.w3.org/2000/svg" xmlns:xlink="http://www.w3.org/1999/xlink" x="0px" y="0px" width="60px"
	 height="60px" viewBox="0 0 60 60" enable-background="new 0 0 60 60" xml:space="preserve">
<g id="Layer_1">
	<g>
		<path fill="#231F20" d="M17.022,40h1v9c0,0.414,0.255,0.785,0.642,0.934C18.78,49.979,18.901,50,19.022,50
			c0.278,0,0.55-0.116,0.743-0.331L28.467,40h1.555c0.552,0,1-0.448,1-1c0-0.552-0.448-1-1-1h-2c-0.284,0-0.554,0.12-0.743,0.331
			l-7.257,8.063V39c0-0.552-0.448-1-1-1h-2c-8.271,0-15-7.002-15-15.609C2.022,14.016,8.49,6.979,17.078,6h20.453
			c8.666,0.988,15.447,8.178,15.447,16.391c0,2.047-0.4,4.039-1.19,5.917c-0.214,0.509,0.025,1.096,0.534,1.31
			c0.511,0.214,1.096-0.026,1.31-0.534c0.894-2.126,1.347-4.378,1.347-6.693c0-9.234-7.591-17.31-17.281-18.385
			C37.661,4.002,37.623,4,37.587,4H17.022c-0.037,0-0.074,0.002-0.11,0.006c-9.628,1.068-16.89,8.972-16.89,18.385
			C0.022,32.101,7.648,40,17.022,40z"/>
		<path fill="#231F20" d="M33.978,47c0,7.169,5.832,13,13,13s13-5.831,13-13c0-7.168-5.832-13-13-13S33.978,39.832,33.978,47z
			 M46.978,36c2.673,0,5.126,0.961,7.034,2.552L38.53,54.034c-1.592-1.908-2.552-4.36-2.552-7.034
			C35.978,40.935,40.913,36,46.978,36z M46.978,58c-2.673,0-5.125-0.961-7.034-2.552l15.482-15.482
			c1.592,1.908,2.552,4.36,2.552,7.034C57.978,53.065,53.044,58,46.978,58z"/>
	</g>
</g>
<g id="nyt_x5F_exporter_x5F_info" display="none">
</g>
</svg>
