<?xml version="1.0" encoding="utf-8"?>
<!-- Generator: Adobe Illustrator 17.0.0, SVG Export Plug-In . SVG Version: 6.00 Build 0)  -->
<!DOCTYPE svg PUBLIC "-//W3C//DTD SVG 1.1//EN" "http://www.w3.org/Graphics/SVG/1.1/DTD/svg11.dtd">
<svg version="1.1" xmlns="http://www.w3.org/2000/svg" xmlns:xlink="http://www.w3.org/1999/xlink" x="0px" y="0px" width="60px"
	 height="60px" viewBox="0 0 60 60" enable-background="new 0 0 60 60" xml:space="preserve">
<g id="Layer_1">
	<g>
		<path fill="#231F20" d="M40,6H20C9.346,6,0,15.773,0,26.913c0,10.953,8.89,19.87,19.833,19.913L20,46.853V56
			c0,0.388,0.225,0.741,0.576,0.906C20.711,56.969,20.855,57,21,57c0.229,0,0.457-0.079,0.641-0.232L33.362,47H40
			c10.841,0,20-9.199,20-20.087C60,15.773,50.654,6,40,6z M40,45h-7c-0.234,0-0.461,0.082-0.641,0.232L22,53.865V46
			c0-0.491-0.356-0.91-0.842-0.987l-1.087-0.174c-0.053-0.008-0.106-0.013-0.158-0.013C10.036,44.826,2,36.791,2,26.913
			C2,16.838,10.411,8,20,8h20c9.589,0,18,8.838,18,18.913C58,36.717,49.757,45,40,45z"/>
	</g>
</g>
<g id="nyt_x5F_exporter_x5F_info" display="none">
</g>
</svg>
