<?xml version="1.0" encoding="utf-8"?>
<!-- Generator: Adobe Illustrator 17.0.0, SVG Export Plug-In . SVG Version: 6.00 Build 0)  -->
<!DOCTYPE svg PUBLIC "-//W3C//DTD SVG 1.1//EN" "http://www.w3.org/Graphics/SVG/1.1/DTD/svg11.dtd">
<svg version="1.1" xmlns="http://www.w3.org/2000/svg" xmlns:xlink="http://www.w3.org/1999/xlink" x="0px" y="0px" width="60px"
	 height="60px" viewBox="0 0 60 60" enable-background="new 0 0 60 60" xml:space="preserve">
<g id="Layer_1">
	<g>
		<path fill="#231F20" d="M17.077,6h20.454c8.666,0.988,15.447,8.178,15.447,16.391c0,2.046-0.4,4.038-1.19,5.918
			c-0.214,0.509,0.025,1.095,0.534,1.309c0.508,0.211,1.095-0.025,1.31-0.535c0.894-2.127,1.347-4.378,1.347-6.692
			c0-9.234-7.591-17.31-17.281-18.385C37.66,4.002,37.624,4,37.587,4H17.021c-0.037,0-0.073,0.002-0.11,0.006
			c-9.629,1.068-16.89,8.972-16.89,18.385c0,9.71,7.626,17.609,17,17.609h1v9c0,0.414,0.255,0.785,0.642,0.934
			C18.78,49.979,18.901,50,19.021,50c0.278,0,0.55-0.116,0.743-0.331L28.467,40h1.555c0.553,0,1-0.448,1-1c0-0.552-0.447-1-1-1h-2
			c-0.283,0-0.554,0.12-0.743,0.331l-7.257,8.063V39c0-0.552-0.447-1-1-1h-2c-8.271,0-15-7.002-15-15.609
			C2.021,14.016,8.49,6.979,17.077,6z"/>
		<path fill="#231F20" d="M46.978,60c7.168,0,13-5.831,13-13c0-7.168-5.832-13-13-13c-7.168,0-13,5.832-13,13
			C33.978,54.169,39.81,60,46.978,60z M46.978,36c6.065,0,11,4.935,11,11c0,6.065-4.935,11-11,11c-6.065,0-11-4.935-11-11
			C35.978,40.935,40.913,36,46.978,36z"/>
		<path fill="#231F20" d="M40.978,48h12c0.553,0,1-0.448,1-1c0-0.552-0.447-1-1-1h-12c-0.553,0-1,0.448-1,1
			C39.978,47.552,40.426,48,40.978,48z"/>
	</g>
</g>
<g id="nyt_x5F_exporter_x5F_info" display="none">
</g>
</svg>
