<?xml version="1.0" encoding="utf-8"?>
<!-- Generator: Adobe Illustrator 17.0.0, SVG Export Plug-In . SVG Version: 6.00 Build 0)  -->
<!DOCTYPE svg PUBLIC "-//W3C//DTD SVG 1.1//EN" "http://www.w3.org/Graphics/SVG/1.1/DTD/svg11.dtd">
<svg version="1.1" xmlns="http://www.w3.org/2000/svg" xmlns:xlink="http://www.w3.org/1999/xlink" x="0px" y="0px" width="60px"
	 height="60px" viewBox="0 0 60 60" enable-background="new 0 0 60 60" xml:space="preserve">
<g id="Layer_1">
	<g>
		<path fill="#231F20" d="M30,3C13.458,3,0,14.063,0,27.661c0,6.474,2.994,12.54,8.45,17.163l-6.345,12.73
			c-0.191,0.383-0.117,0.845,0.184,1.149C2.481,58.898,2.739,59,3,59c0.148,0,0.298-0.033,0.436-0.1l16.49-8.002
			c3.224,0.944,6.61,1.423,10.073,1.423c16.542,0,30-11.062,30-24.66C60,14.063,46.542,3,30,3z M30,50.321
			c-3.4,0-6.721-0.488-9.867-1.45c-0.243-0.073-0.503-0.053-0.729,0.057L5.205,55.819l5.39-10.815
			c0.211-0.422,0.098-0.933-0.269-1.227C4.956,39.481,2,33.758,2,27.661C2,15.166,14.56,5,30,5s28,10.166,28,22.661
			C58,40.156,45.44,50.321,30,50.321z"/>
		<path fill="#231F20" d="M16.131,23.913c0.553,0,1-0.448,1-1c0-2.23,1.813-4.044,4.043-4.044s4.044,1.814,4.044,4.044
			c0,0.552,0.447,1,1,1c0.553,0,1-0.448,1-1c0-3.333-2.711-6.044-6.044-6.044c-3.332,0-6.043,2.711-6.043,6.044
			C15.131,23.465,15.578,23.913,16.131,23.913z"/>
		<path fill="#231F20" d="M33.782,23.913c0.553,0,1-0.448,1-1c0-2.23,1.815-4.044,4.044-4.044s4.043,1.814,4.043,4.044
			c0,0.552,0.447,1,1,1c0.553,0,1-0.448,1-1c0-3.333-2.711-6.044-6.043-6.044c-3.333,0-6.044,2.711-6.044,6.044
			C32.782,23.465,33.229,23.913,33.782,23.913z"/>
		<path fill="#231F20" d="M46.392,28.217c-0.553,0-1,0.448-1,1c0,5.577-4.43,9.783-10.305,9.783H25
			c-5.827,0-10.392-4.297-10.392-9.783c0-0.552-0.447-1-1-1c-0.553,0-1,0.448-1,1C12.608,35.824,18.052,41,25,41h10.087
			c6.899,0,12.305-5.176,12.305-11.783C47.392,28.665,46.944,28.217,46.392,28.217z"/>
	</g>
</g>
<g id="nyt_x5F_exporter_x5F_info" display="none">
</g>
</svg>
