<?xml version="1.0" encoding="utf-8"?>
<!-- Generator: Adobe Illustrator 17.0.0, SVG Export Plug-In . SVG Version: 6.00 Build 0)  -->
<!DOCTYPE svg PUBLIC "-//W3C//DTD SVG 1.1//EN" "http://www.w3.org/Graphics/SVG/1.1/DTD/svg11.dtd">
<svg version="1.1" id="Layer_1" xmlns="http://www.w3.org/2000/svg" xmlns:xlink="http://www.w3.org/1999/xlink" x="0px" y="0px"
	 width="60px" height="60px" viewBox="0 0 60 60" enable-background="new 0 0 60 60" xml:space="preserve">
<g>
	<path fill="#231F20" d="M47.652,0h-15.13c-6.798,0-12.329,5.539-12.329,12.348h2C22.193,6.642,26.827,2,32.522,2h15.13
		C53.358,2,58,6.642,58,12.348C58,17.94,53.794,22,48,22h-6.468L38,26.238V22h-4v2h2v7.762L42.468,24H48c6.953,0,12-4.9,12-11.652
		C60,5.539,54.461,0,47.652,0z"/>
	<path fill="#231F20" d="M40,55c0-2.805-1.872-5.286-4.761-6.318L26,45.301V41h-0.405c3.017-2.308,5.023-6.313,5.023-10.868
		c0-7.137-4.914-12.944-10.954-12.944c-6.04,0-10.954,5.807-10.954,12.944c0,4.687,2.125,8.788,5.29,11.06v4.105l-9.405,3.382
		C1.761,49.692,0,52.114,0,55v5h40V55z M19.664,19.188c4.383,0,8.034,3.872,8.8,8.963c-0.01,0.002-0.02,0.002-0.03,0.004
		c-2.891,0.56-4.68-0.384-6.378-3.357l-0.908-1.588l-0.847,1.622c-0.918,1.76-4.007,3.304-6.61,3.304
		c-1.028,0-1.915-0.158-2.741-0.48C11.872,22.812,15.424,19.188,19.664,19.188z M10.71,30.132c0-0.149,0.013-0.294,0.018-0.442
		c0.912,0.292,1.876,0.447,2.962,0.447c2.735,0,5.733-1.299,7.435-3.083c1.587,2.207,3.459,3.254,5.835,3.254
		c0.525,0,1.079-0.059,1.656-0.16c-0.007,6.028-4.02,10.93-8.953,10.93C14.727,41.078,10.71,36.167,10.71,30.132z M38,58H2v-3
		c0-2.047,1.222-3.706,3.269-4.438L16,46.703v-4.386c1.148,0.484,2.378,0.761,3.664,0.761c1.54,0,3.005-0.382,4.336-1.062v4.683
		l10.559,3.864C36.682,51.321,38,53.021,38,55V58z"/>
	<rect x="46" y="12" fill="#231F20" width="2" height="2"/>
	<rect x="40" y="12" fill="#231F20" width="2" height="2"/>
	<rect x="34" y="12" fill="#231F20" width="2" height="2"/>
</g>
</svg>
