<?xml version="1.0" encoding="utf-8"?>
<!-- Generator: Adobe Illustrator 17.0.0, SVG Export Plug-In . SVG Version: 6.00 Build 0)  -->
<!DOCTYPE svg PUBLIC "-//W3C//DTD SVG 1.1//EN" "http://www.w3.org/Graphics/SVG/1.1/DTD/svg11.dtd">
<svg version="1.1" id="Layer_1" xmlns="http://www.w3.org/2000/svg" xmlns:xlink="http://www.w3.org/1999/xlink" x="0px" y="0px"
	 width="60px" height="60px" viewBox="0 0 60 60" enable-background="new 0 0 60 60" xml:space="preserve">
<g>
	<path fill="#231F20" d="M40,55c0-2.79-1.835-5.172-4.768-6.208L26,45.309V41h-0.14c2.861-2.314,4.742-6.173,4.742-10.54
		c0-7.062-4.914-12.808-10.954-12.808c-6.04,0-10.954,5.746-10.954,12.808c0,4.645,2.132,8.709,5.306,10.955v3.888l-9.419,3.482
		C1.755,49.783,0,52.165,0,55v5h40V55z M19.648,19.652c4.379,0,8.028,3.818,8.798,8.839c-0.008,0.002-0.017,0.002-0.026,0.003
		c-2.896,0.551-4.685-0.378-6.383-3.316l-0.906-1.567l-0.844,1.601c-0.917,1.739-4.006,3.265-6.611,3.265
		c-1.011,0-1.879-0.165-2.731-0.509C11.88,23.208,15.422,19.652,19.648,19.652z M10.694,30.46c0-0.154,0.014-0.303,0.019-0.455
		c0.931,0.31,1.896,0.472,2.962,0.472c2.735,0,5.734-1.287,7.435-3.053c1.588,2.185,3.46,3.221,5.837,3.221
		c0.524,0,1.078-0.058,1.654-0.158c-0.013,5.948-4.023,10.783-8.953,10.783C14.711,41.271,10.694,36.421,10.694,30.46z M38,58H2v-3
		c0-1.993,1.214-3.611,3.261-4.334L16,46.696v-4.172c1.143,0.474,2.368,0.746,3.648,0.746c1.546,0,3.017-0.381,4.352-1.06v4.481
		l10.546,3.979C36.677,51.423,38,53.082,38,55V58z"/>
	<path fill="#231F20" d="M33.767,17.391c1.393,0,2.521-1.129,2.521-2.521c0-1.393-1.129-2.522-2.521-2.522s-2.522,1.129-2.522,2.522
		C31.245,16.262,32.374,17.391,33.767,17.391z M33.767,14.348c0.288,0,0.521,0.234,0.521,0.522c0,0.288-0.234,0.521-0.521,0.521
		c-0.288,0-0.522-0.234-0.522-0.521C33.245,14.582,33.479,14.348,33.767,14.348z"/>
	<path fill="#231F20" d="M48.027,38.196c0-2.649-2.155-4.805-4.804-4.805c-2.649,0-4.805,2.155-4.805,4.805
		c0,2.649,2.155,4.804,4.805,4.804C45.872,43,48.027,40.845,48.027,38.196z M40.419,38.196c0-1.546,1.258-2.805,2.805-2.805
		c1.546,0,2.804,1.258,2.804,2.805S44.769,41,43.223,41C41.677,41,40.419,39.742,40.419,38.196z"/>
	<path fill="#231F20" d="M33.767,44c1.462,0,2.652-1.19,2.652-2.652s-1.19-2.652-2.652-2.652s-2.652,1.19-2.652,2.652
		S32.304,44,33.767,44z M33.767,40.696c0.359,0,0.652,0.292,0.652,0.652c0,0.36-0.293,0.652-0.652,0.652
		c-0.36,0-0.652-0.292-0.652-0.652C33.114,40.988,33.407,40.696,33.767,40.696z"/>
	<path fill="#231F20" d="M43.854,14.87c0-1.393-1.129-2.522-2.522-2.522c-1.392,0-2.521,1.129-2.521,2.522
		c0,1.393,1.129,2.521,2.521,2.521C42.724,17.391,43.854,16.262,43.854,14.87z M40.81,14.87c0-0.288,0.234-0.522,0.521-0.522
		s0.522,0.234,0.522,0.522c0,0.288-0.234,0.521-0.522,0.521S40.81,15.157,40.81,14.87z"/>
	<path fill="#231F20" d="M51.419,14.87c0-1.393-1.129-2.522-2.522-2.522c-1.393,0-2.522,1.129-2.522,2.522
		c0,1.393,1.129,2.521,2.522,2.521C50.29,17.391,51.419,16.262,51.419,14.87z M48.375,14.87c0-0.288,0.234-0.522,0.522-0.522
		s0.522,0.234,0.522,0.522c0,0.288-0.234,0.521-0.522,0.521S48.375,15.157,48.375,14.87z"/>
	<path fill="#231F20" d="M46.123,0c-3.407,0-6.216,1.142-8.784,3.583c-3.18-1.364-6.766-1.314-9.945,0.158
		c-3.442,1.595-6.019,4.689-6.895,8.277l1.943,0.474c0.732-3.001,2.897-5.595,5.792-6.936c2.886-1.338,6.036-1.295,8.867,0.121
		l0.655,0.327l0.51-0.525C40.602,3.073,43.025,2,46.123,2C53.92,2,58,8.096,58,14.117c0,2.97-1.004,5.694-2.827,7.671
		c-2.068,2.244-5.11,3.429-8.798,3.429h-0.528l-0.298,0.436C44.444,27.271,42.425,29,40.071,29c-2.341,0-4.414-1.238-5.41-3.23
		l-1.789,0.895C34.209,29.339,36.967,31,40.071,31c2.513,0,5.03-1.407,6.822-3.79c4.031-0.11,7.394-1.511,9.751-4.066
		C58.808,20.796,60,17.591,60,14.117C60,7.273,55.136,0,46.123,0z"/>
</g>
</svg>
