<?xml version="1.0" encoding="utf-8"?>
<!-- Generator: Adobe Illustrator 17.0.0, SVG Export Plug-In . SVG Version: 6.00 Build 0)  -->
<!DOCTYPE svg PUBLIC "-//W3C//DTD SVG 1.1//EN" "http://www.w3.org/Graphics/SVG/1.1/DTD/svg11.dtd">
<svg version="1.1" id="Layer_1" xmlns="http://www.w3.org/2000/svg" xmlns:xlink="http://www.w3.org/1999/xlink" x="0px" y="0px"
	 width="60px" height="60px" viewBox="0 0 60 60" enable-background="new 0 0 60 60" xml:space="preserve">
<g>
	<path fill="#231F20" d="M40,55c0-2.804-1.871-5.286-4.761-6.318L26,45.301V41h-0.404c3.017-2.308,5.022-6.313,5.022-10.868
		c0-7.137-4.913-12.944-10.953-12.944c-6.041,0-10.955,5.807-10.955,12.944c0,4.687,2.125,8.787,5.29,11.06v4.105l-9.406,3.382
		C1.761,49.692,0,52.114,0,55v5h40V55z M19.665,19.188c4.383,0,8.033,3.872,8.799,8.963c-0.01,0.002-0.02,0.002-0.03,0.004
		c-2.89,0.557-4.679-0.384-6.378-3.356l-0.909-1.589l-0.846,1.623c-0.917,1.76-4.006,3.304-6.609,3.304
		c-1.011,0-1.88-0.168-2.734-0.517C11.89,22.794,15.436,19.188,19.665,19.188z M10.71,30.132c0-0.159,0.014-0.314,0.02-0.472
		c0.931,0.313,1.896,0.477,2.962,0.477c2.735,0,5.733-1.299,7.435-3.083c1.588,2.207,3.459,3.254,5.835,3.254
		c0.526,0,1.079-0.059,1.657-0.16c-0.007,6.028-4.02,10.93-8.953,10.93C14.727,41.078,10.71,36.167,10.71,30.132z M38,58H2v-3
		c0-2.047,1.222-3.706,3.269-4.438L16,46.703v-4.386c1.148,0.484,2.378,0.761,3.665,0.761c1.54,0,3.004-0.381,4.335-1.062v4.683
		l10.559,3.863C36.682,51.321,38,53.021,38,55V58z"/>
	<polygon fill="#231F20" points="20,0 20,11 22,11 22,2 58,2 58,22 49.553,22 42.044,30.385 42.044,22 36,22 36,24 40.044,24 
		40.044,35.615 50.447,24 60,24 60,0 	"/>
	<rect x="34" y="12" fill="#231F20" width="2" height="2"/>
	<rect x="40" y="12" fill="#231F20" width="2" height="2"/>
	<rect x="46" y="12" fill="#231F20" width="2" height="2"/>
</g>
</svg>
