<?xml version="1.0" encoding="utf-8"?>
<!-- Generator: Adobe Illustrator 17.0.0, SVG Export Plug-In . SVG Version: 6.00 Build 0)  -->
<!DOCTYPE svg PUBLIC "-//W3C//DTD SVG 1.1//EN" "http://www.w3.org/Graphics/SVG/1.1/DTD/svg11.dtd">
<svg version="1.1" id="Layer_1" xmlns="http://www.w3.org/2000/svg" xmlns:xlink="http://www.w3.org/1999/xlink" x="0px" y="0px"
	 width="60px" height="60px" viewBox="0 0 60 60" enable-background="new 0 0 60 60" xml:space="preserve">
<g>
	<path fill="#231F20" d="M40,55c0-2.804-1.872-5.286-4.761-6.318L26,45.301v-4.628c2.79-2.349,4.618-6.194,4.618-10.542
		c0-7.137-4.914-12.944-10.954-12.944c-6.041,0-10.955,5.807-10.955,12.944c0,4.687,2.126,8.788,5.291,11.06v4.105l-9.406,3.382
		C1.76,49.692,0,52.114,0,55v5h40V55z M19.664,19.188c4.383,0,8.034,3.872,8.8,8.963c-0.01,0.002-0.02,0.002-0.031,0.004
		c-2.893,0.556-4.679-0.383-6.377-3.355l-0.909-1.59l-0.846,1.623c-0.917,1.76-4.006,3.304-6.61,3.304
		c-1.028,0-1.915-0.158-2.742-0.481C11.871,22.812,15.424,19.188,19.664,19.188z M10.709,30.132c0-0.149,0.013-0.295,0.018-0.443
		c0.912,0.293,1.877,0.447,2.963,0.447c2.735,0,5.733-1.299,7.435-3.083c1.587,2.206,3.458,3.254,5.833,3.254
		c0.526,0,1.081-0.059,1.659-0.16c-0.007,6.028-4.02,10.93-8.953,10.93C14.727,41.078,10.709,36.167,10.709,30.132z M38,58H2v-3
		c0-2.048,1.221-3.706,3.269-4.438L16,46.703v-4.386c1.148,0.484,2.378,0.761,3.664,0.761c1.54,0,3.005-0.381,4.336-1.062v4.683
		l10.559,3.863C36.682,51.321,38,53.021,38,55V58z"/>
	<path fill="#231F20" d="M42.609,0c-9.59,0-17.392,7.236-17.392,16.13h2C27.217,8.339,34.122,2,42.609,2S58,8.339,58,16.13
		c0,5.711-3.708,10.829-9.446,13.038l-0.177,0.068l-0.14,0.128c-0.477,0.439-1.872,1.647-3.487,3.046
		c-1.656,1.434-3.449,2.988-4.758,4.148c0-1.97,0.003-4.514,0.009-5.469l0.006-0.874l-0.866-0.123
		c-1.241-0.176-2.456-0.492-3.611-0.94l-0.724,1.864c1.029,0.399,2.099,0.706,3.191,0.913c-0.006,1.999-0.006,5.821-0.006,6.896
		v2.414l1.707-1.707c0.747-0.748,3.86-3.444,6.361-5.61c1.494-1.294,2.8-2.426,3.391-2.958C55.865,28.42,60,22.617,60,16.13
		C60,7.236,52.198,0,42.609,0z"/>
	<rect x="48" y="16" fill="#231F20" width="2" height="2"/>
	<rect x="42" y="16" fill="#231F20" width="2" height="2"/>
	<rect x="36" y="16" fill="#231F20" width="2" height="2"/>
</g>
</svg>
