<?xml version="1.0" encoding="utf-8"?>
<!-- Generator: Adobe Illustrator 17.0.0, SVG Export Plug-In . SVG Version: 6.00 Build 0)  -->
<!DOCTYPE svg PUBLIC "-//W3C//DTD SVG 1.1//EN" "http://www.w3.org/Graphics/SVG/1.1/DTD/svg11.dtd">
<svg version="1.1" id="Layer_1" xmlns="http://www.w3.org/2000/svg" xmlns:xlink="http://www.w3.org/1999/xlink" x="0px" y="0px"
	 width="60px" height="60px" viewBox="0 0 60 60" enable-background="new 0 0 60 60" xml:space="preserve">
<g>
	<polygon fill="#231F20" points="20,11 22,11 22,2 58,2 58,22 49.553,22 42.044,30.385 42.044,22 36,22 36,24 40.044,24 
		40.044,35.615 50.447,24 60,24 60,0 20,0 	"/>
	<rect x="34" y="12" fill="#231F20" width="2" height="2"/>
	<rect x="40" y="12" fill="#231F20" width="2" height="2"/>
	<rect x="46" y="12" fill="#231F20" width="2" height="2"/>
	<path fill="#231F20" d="M1,60h38c0.553,0,1-0.448,1-1v-6c0-0.561,0-1.501-5.146-4.398c-2.638-1.486-5.902-3.06-8.854-4.275v-3.77
		c0.829-0.641,2.117-2.241,2.264-6.046c1.009-0.597,1.586-2.085,1.586-3.536c0-1.322-0.485-2.348-1.288-2.866
		c0.552-1.292,1.403-3.491,0.796-5.918c-0.837-3.351-5.074-4.54-8.447-4.54c-3.066,0-6.847,0.982-8.138,3.679
		c-1.523-0.11-2.282,0.511-2.622,1.035c-0.993,1.53,0.126,4.038,0.867,5.697c0.003,0.007,0.007,0.015,0.01,0.022
		c-0.361,0.208-0.677,0.507-0.93,0.888c-0.414,0.62-0.642,1.433-0.642,2.289c0,1.616,0.763,2.88,1.912,3.337
		c0.191,3.784,1.706,5.373,2.632,5.995v3.733c-2.952,1.215-6.217,2.789-8.854,4.275C0,51.499,0,52.439,0,53v6
		C0,59.552,0.447,60,1,60z M2,53.158c0.776-1.074,6.871-4.629,13.371-7.229C15.751,45.777,16,45.409,16,45v-5
		c0-0.419-0.292-0.804-0.685-0.949c-0.019-0.007-1.968-0.78-1.968-5.269c0-0.552-0.447-1-1-1c-0.653,0-0.892-0.91-0.892-1.521
		c0-0.612,0.238-1.522,0.892-1.522c0.553,0,1-0.448,1-1c0-0.363-0.158-0.716-0.504-1.492c-0.351-0.785-1.417-3.175-1.016-3.794
		c0.101-0.154,0.684-0.188,1.404-0.039c0.522,0.105,1.041-0.218,1.17-0.737c0.52-2.079,3.738-3.025,6.508-3.025
		c2.77,0,5.988,0.947,6.508,3.025c0.48,1.924-0.317,3.772-0.794,4.875c-0.229,0.528-0.366,0.847-0.366,1.188c0,0.552,0.447,1,1,1
		c0.12,0,0.402,0,0.54,0.682c0.222,1.094-0.282,2.254-0.521,2.362c-0.553,0-1,0.448-1,1c0,4.457-1.615,5.273-1.606,5.273
		C24.269,39.196,24,39.575,24,40v5c0,0.409,0.249,0.777,0.629,0.929c6.5,2.6,12.595,6.156,13.371,7.229V58H2V53.158z"/>
</g>
</svg>
