<?xml version="1.0" encoding="utf-8"?>
<!-- Generator: Adobe Illustrator 17.0.0, SVG Export Plug-In . SVG Version: 6.00 Build 0)  -->
<!DOCTYPE svg PUBLIC "-//W3C//DTD SVG 1.1//EN" "http://www.w3.org/Graphics/SVG/1.1/DTD/svg11.dtd">
<svg version="1.1" id="Layer_1" xmlns="http://www.w3.org/2000/svg" xmlns:xlink="http://www.w3.org/1999/xlink" x="0px" y="0px"
	 width="60px" height="60px" viewBox="0 0 60 60" enable-background="new 0 0 60 60" xml:space="preserve">
<g>
	<path fill="#231F20" d="M36.288,14.87c0-1.393-1.129-2.522-2.521-2.522s-2.522,1.129-2.522,2.522c0,1.393,1.129,2.521,2.522,2.521
		S36.288,16.262,36.288,14.87z M33.245,14.87c0-0.288,0.234-0.522,0.522-0.522s0.521,0.234,0.521,0.522
		c0,0.288-0.234,0.521-0.521,0.521S33.245,15.157,33.245,14.87z"/>
	<path fill="#231F20" d="M43.223,43c2.649,0,4.804-2.155,4.804-4.804c0-2.649-2.155-4.805-4.804-4.805
		c-2.649,0-4.805,2.155-4.805,4.805C38.419,40.845,40.574,43,43.223,43z M43.223,35.391c1.546,0,2.804,1.258,2.804,2.805
		S44.769,41,43.223,41c-1.546,0-2.805-1.258-2.805-2.804S41.677,35.391,43.223,35.391z"/>
	<path fill="#231F20" d="M33.767,43.87c1.39,0,2.521-1.131,2.521-2.522c0-1.39-1.131-2.521-2.521-2.521
		c-1.391,0-2.522,1.131-2.522,2.521C31.245,42.738,32.376,43.87,33.767,43.87z M33.767,40.826c0.288,0,0.521,0.234,0.521,0.521
		s-0.234,0.522-0.521,0.522s-0.522-0.234-0.522-0.522S33.479,40.826,33.767,40.826z"/>
	<path fill="#231F20" d="M43.854,14.87c0-1.393-1.129-2.522-2.522-2.522c-1.392,0-2.521,1.129-2.521,2.522
		c0,1.393,1.129,2.521,2.521,2.521C42.724,17.391,43.854,16.262,43.854,14.87z M40.81,14.87c0-0.288,0.234-0.522,0.521-0.522
		c0.288,0,0.522,0.234,0.522,0.522c0,0.288-0.234,0.521-0.522,0.521C41.044,15.391,40.81,15.157,40.81,14.87z"/>
	<path fill="#231F20" d="M51.419,14.87c0-1.393-1.129-2.522-2.522-2.522c-1.393,0-2.522,1.129-2.522,2.522
		c0,1.393,1.129,2.521,2.522,2.521C50.29,17.391,51.419,16.262,51.419,14.87z M48.375,14.87c0-0.288,0.234-0.522,0.522-0.522
		s0.522,0.234,0.522,0.522c0,0.288-0.234,0.521-0.522,0.521S48.375,15.157,48.375,14.87z"/>
	<path fill="#231F20" d="M46.123,0c-3.408,0-6.216,1.142-8.784,3.583c-3.18-1.364-6.766-1.315-9.945,0.158
		c-3.442,1.594-6.02,4.689-6.896,8.276l1.943,0.475c0.733-3.003,2.899-5.595,5.794-6.937c2.886-1.338,6.036-1.295,8.867,0.121
		l0.655,0.327l0.51-0.525C40.602,3.073,43.025,2,46.123,2C53.92,2,58,8.096,58,14.117c0,2.97-1.004,5.694-2.827,7.671
		c-2.069,2.244-5.111,3.429-8.798,3.429h-0.528l-0.298,0.436C44.444,27.271,42.425,29,40.071,29c-2.341,0-4.414-1.238-5.41-3.23
		l-1.789,0.895C34.209,29.339,36.967,31,40.071,31c2.514,0,5.031-1.407,6.823-3.79c4.03-0.11,7.393-1.511,9.75-4.066
		C58.808,20.796,60,17.591,60,14.117C60,7.273,55.137,0,46.123,0z"/>
	<path fill="#231F20" d="M1,60h38c0.552,0,1-0.448,1-1v-6c0-0.562,0-1.501-5.145-4.398c-2.639-1.486-5.902-3.06-8.855-4.275v-3.74
		c0.89-0.625,2.303-2.216,2.463-6.068c1.046-0.602,1.645-2.135,1.645-3.629c0-0.792-0.178-1.494-0.515-2.029
		c-0.195-0.31-0.439-0.56-0.722-0.745c0.568-1.292,1.445-3.493,0.838-5.923c-0.838-3.351-5.122-4.54-8.536-4.54
		c-3.104,0-6.926,0.983-8.225,3.679c-1.54-0.12-2.308,0.513-2.657,1.041c-1.018,1.537,0.047,4.047,0.751,5.708
		c0.001,0.003,0.003,0.007,0.004,0.011c-0.307,0.188-0.572,0.448-0.781,0.775c-0.351,0.545-0.536,1.259-0.536,2.064
		c0,1.476,0.595,2.992,1.632,3.588c0.175,3.842,1.704,5.448,2.636,6.075v3.719c-2.895,1.133-6.167,2.695-8.883,4.245
		C0,51.477,0,52.468,0,53v6C0,59.552,0.448,60,1,60z M2,53.153c0.793-1.148,7.15-4.882,13.353-7.217C15.742,45.789,16,45.417,16,45
		v-5c0-0.419-0.292-0.804-0.685-0.949c-0.02-0.007-1.968-0.78-1.968-5.269c0-0.552-0.422-0.996-0.974-0.996
		c-0.273-0.106-0.805-1.251-0.599-2.351c0.13-0.696,0.43-0.696,0.573-0.696c0.552,0,1-0.448,1-1c0-0.336-0.133-0.664-0.462-1.44
		c-0.334-0.787-1.35-3.182-0.925-3.824c0.099-0.149,0.49-0.161,0.607-0.161c0.237,0,0.521,0.033,0.841,0.099
		c0.524,0.104,1.041-0.218,1.17-0.737c0.52-2.079,3.783-3.025,6.595-3.025c2.812,0,6.076,0.947,6.595,3.025
		c0.479,1.917-0.34,3.76-0.829,4.861c-0.237,0.533-0.38,0.855-0.38,1.201c0,0.552,0.448,1,1,1c0.125,0,0.383,0,0.505,0.654
		c0.205,1.098-0.342,2.289-0.587,2.389c-0.552,0-1,0.448-1,1c0,4.473-1.789,5.265-1.783,5.265C24.281,39.18,24,39.565,24,40v5
		c0,0.409,0.249,0.776,0.628,0.928c6.5,2.601,12.595,6.156,13.372,7.23V58H2V53.153z"/>
</g>
</svg>
