<?xml version="1.0" encoding="utf-8"?>
<!-- Generator: Adobe Illustrator 17.0.0, SVG Export Plug-In . SVG Version: 6.00 Build 0)  -->
<!DOCTYPE svg PUBLIC "-//W3C//DTD SVG 1.1//EN" "http://www.w3.org/Graphics/SVG/1.1/DTD/svg11.dtd">
<svg version="1.1" xmlns="http://www.w3.org/2000/svg" xmlns:xlink="http://www.w3.org/1999/xlink" x="0px" y="0px" width="60px"
	 height="60px" viewBox="0 0 60 60" enable-background="new 0 0 60 60" xml:space="preserve">
<g id="Layer_1">
	<g>
		<path fill="#231F20" d="M30,0C13.458,0,0,13.458,0,30s13.458,30,30,30s30-13.458,30-30S46.542,0,30,0z M30,58
			C14.56,58,2,45.44,2,30C2,14.561,14.56,2,30,2s28,12.561,28,28C58,45.44,45.44,58,30,58z"/>
		<path fill="#231F20" d="M24,19c0-2.757-2.243-5-5-5c-2.757,0-5,2.243-5,5c0,2.757,2.243,5,5,5C21.757,24,24,21.757,24,19z M19,22
			c-1.654,0-3-1.346-3-3s1.346-3,3-3s3,1.346,3,3S20.654,22,19,22z"/>
		<path fill="#231F20" d="M30,33c-4.962,0-9,4.038-9,9s4.038,9,9,9s9-4.038,9-9S34.962,33,30,33z M30,49c-3.86,0-7-3.14-7-7
			c0-3.86,3.14-7,7-7c3.86,0,7,3.14,7,7C37,45.86,33.86,49,30,49z"/>
		<path fill="#231F20" d="M40,14c-2.757,0-5,2.243-5,5c0,2.757,2.243,5,5,5c2.757,0,5-2.243,5-5C45,16.243,42.757,14,40,14z M40,22
			c-1.654,0-3-1.346-3-3s1.346-3,3-3s3,1.346,3,3S41.654,22,40,22z"/>
	</g>
</g>
<g id="nyt_x5F_exporter_x5F_info" display="none">
</g>
</svg>
