<?xml version="1.0" encoding="utf-8"?>
<!-- Generator: Adobe Illustrator 17.0.0, SVG Export Plug-In . SVG Version: 6.00 Build 0)  -->
<!DOCTYPE svg PUBLIC "-//W3C//DTD SVG 1.1//EN" "http://www.w3.org/Graphics/SVG/1.1/DTD/svg11.dtd">
<svg version="1.1" xmlns="http://www.w3.org/2000/svg" xmlns:xlink="http://www.w3.org/1999/xlink" x="0px" y="0px" width="60px"
	 height="60px" viewBox="0 0 60 60" enable-background="new 0 0 60 60" xml:space="preserve">
<g id="Layer_1">
	<g>
		<path fill="#231F20" d="M30,0C13.458,0,0,13.458,0,30s13.458,30,30,30s30-13.458,30-30S46.542,0,30,0z M30,58
			C14.56,58,2,45.44,2,30C2,14.561,14.56,2,30,2s28,12.561,28,28C58,45.44,45.44,58,30,58z"/>
		<path fill="#231F20" d="M48.913,32H11.087c-0.552,0-1,0.448-1,1c0,10.716,8.933,19.435,19.913,19.435S49.913,43.716,49.913,33
			C49.913,32.448,49.465,32,48.913,32z M30,50.435c-9.366,0-17.33-7.428-17.882-16.435h35.765C47.33,43.007,39.366,50.435,30,50.435
			z"/>
		<path fill="#231F20" d="M18.652,25.957C22.093,25.957,25,23.229,25,20c0-0.552-0.448-1-1-1s-1,0.448-1,1
			c0,2.145-1.991,3.957-4.348,3.957C16.502,23.957,15,22.33,15,20c0-0.552-0.448-1-1-1s-1,0.448-1,1
			C13,23.452,15.377,25.957,18.652,25.957z"/>
		<path fill="#231F20" d="M41.348,25.957C44.623,25.957,47,23.452,47,20c0-0.552-0.448-1-1-1s-1,0.448-1,1
			c0,2.33-1.502,3.957-3.652,3.957C38.991,23.957,37,22.145,37,20c0-0.552-0.448-1-1-1s-1,0.448-1,1
			C35,23.229,37.907,25.957,41.348,25.957z"/>
	</g>
</g>
<g id="nyt_x5F_exporter_x5F_info" display="none">
</g>
</svg>
