<?xml version="1.0" encoding="utf-8"?>
<!-- Generator: Adobe Illustrator 17.0.0, SVG Export Plug-In . SVG Version: 6.00 Build 0)  -->
<!DOCTYPE svg PUBLIC "-//W3C//DTD SVG 1.1//EN" "http://www.w3.org/Graphics/SVG/1.1/DTD/svg11.dtd">
<svg version="1.1" xmlns="http://www.w3.org/2000/svg" xmlns:xlink="http://www.w3.org/1999/xlink" x="0px" y="0px" width="60px"
	 height="60px" viewBox="0 0 60 60" enable-background="new 0 0 60 60" xml:space="preserve">
<g id="Layer_1">
	<g>
		<path fill="#231F20" d="M30,0C13.458,0,0,13.458,0,30s13.458,30,30,30s30-13.458,30-30S46.542,0,30,0z M30,58
			C14.56,58,2,45.44,2,30C2,14.561,14.56,2,30,2s28,12.561,28,28C58,45.44,45.44,58,30,58z"/>
		<path fill="#231F20" d="M49,31c-0.552,0-1,0.448-1,1c0,9.993-8.243,18.435-18,18.435S12,41.993,12,32c0-0.552-0.448-1-1-1
			s-1,0.448-1,1c0,11.077,9.159,20.435,20,20.435S50,43.077,50,32C50,31.448,49.552,31,49,31z"/>
		<path fill="#231F20" d="M36,26c0.552,0,1-0.448,1-1c0-0.326,1.361-1.088,4-1.088c1.177,0,2.303,0.167,3.089,0.459
			C44.753,24.617,45,24.888,45,25c0,0.552,0.448,1,1,1s1-0.448,1-1c0-2.28-3.232-3.088-6-3.088c-2.768,0-6,0.809-6,3.088
			C35,25.552,35.448,26,36,26z"/>
		<path fill="#231F20" d="M19,28c2.757,0,5-2.243,5-5c0-2.757-2.243-5-5-5s-5,2.243-5,5C14,25.757,16.243,28,19,28z M19,20
			c1.654,0,3,1.346,3,3s-1.346,3-3,3s-3-1.346-3-3S17.346,20,19,20z"/>
	</g>
</g>
<g id="nyt_x5F_exporter_x5F_info" display="none">
</g>
</svg>
