<?xml version="1.0" encoding="utf-8"?>
<!-- Generator: Adobe Illustrator 17.0.0, SVG Export Plug-In . SVG Version: 6.00 Build 0)  -->
<!DOCTYPE svg PUBLIC "-//W3C//DTD SVG 1.1//EN" "http://www.w3.org/Graphics/SVG/1.1/DTD/svg11.dtd">
<svg version="1.1" xmlns="http://www.w3.org/2000/svg" xmlns:xlink="http://www.w3.org/1999/xlink" x="0px" y="0px" width="60px"
	 height="60px" viewBox="0 0 60 60" enable-background="new 0 0 60 60" xml:space="preserve">
<g id="Layer_1">
	<g>
		<path fill="#231F20" d="M30,0C13.458,0,0,13.458,0,30s13.458,30,30,30s30-13.458,30-30S46.542,0,30,0z M30,58
			C14.56,58,2,45.44,2,30C2,14.561,14.56,2,30,2c15.439,0,28,12.561,28,28C58,45.44,45.439,58,30,58z"/>
		<path fill="#231F20" d="M49,31c-0.553,0-1,0.448-1,1c0,9.993-8.243,18.435-18,18.435c-9.757,0-18-8.442-18-18.435
			c0-0.552-0.447-1-1-1c-0.553,0-1,0.448-1,1c0,11.077,9.159,20.435,20,20.435c10.841,0,20-9.358,20-20.435
			C50,31.448,49.553,31,49,31z"/>
		<path fill="#231F20" d="M41.348,25.957C44.494,25.957,48,23.51,48,20c0-0.552-0.447-1-1-1c-0.553,0-1,0.448-1,1
			c0,2.265-2.456,3.957-4.652,3.957C38.991,23.957,37,22.145,37,20c0-0.552-0.447-1-1-1c-0.553,0-1,0.448-1,1
			C35,23.229,37.907,25.957,41.348,25.957z"/>
		<path fill="#231F20" d="M18.652,25.957C22.093,25.957,25,23.229,25,20c0-0.552-0.447-1-1-1c-0.553,0-1,0.448-1,1
			c0,2.145-1.991,3.957-4.348,3.957C16.456,23.957,14,22.265,14,20c0-0.552-0.447-1-1-1c-0.553,0-1,0.448-1,1
			C12,23.51,15.506,25.957,18.652,25.957z"/>
	</g>
</g>
<g id="nyt_x5F_exporter_x5F_info" display="none">
</g>
</svg>
