<?xml version="1.0" encoding="utf-8"?>
<!-- Generator: Adobe Illustrator 17.0.0, SVG Export Plug-In . SVG Version: 6.00 Build 0)  -->
<!DOCTYPE svg PUBLIC "-//W3C//DTD SVG 1.1//EN" "http://www.w3.org/Graphics/SVG/1.1/DTD/svg11.dtd">
<svg version="1.1" id="Layer_1" xmlns="http://www.w3.org/2000/svg" xmlns:xlink="http://www.w3.org/1999/xlink" x="0px" y="0px"
	 width="48px" height="48px" viewBox="0 0 48 48" enable-background="new 0 0 48 48" xml:space="preserve">
<path fill="#231F20" d="M47.409,0.087c-0.359-0.161-0.779-0.096-1.074,0.165L30,14.773V3c0-0.379-0.214-0.725-0.553-0.895
	C29.108,1.935,28.703,1.972,28.4,2.2l-28,21C0.148,23.389,0,23.685,0,24s0.148,0.611,0.4,0.8l28,21
	c0.303,0.227,0.707,0.264,1.047,0.095C29.786,45.725,30,45.379,30,45V33.227l16.335,14.521C46.522,47.914,46.76,48,47,48
	c0.139,0,0.278-0.029,0.41-0.088C47.769,47.751,48,47.394,48,47V1C48,0.606,47.769,0.249,47.409,0.087z M46,44.773L29.665,30.252
	C29.478,30.086,29.24,30,29,30c-0.139,0-0.278,0.029-0.41,0.088C28.231,30.249,28,30.606,28,31v12L2.667,24L28,5v12
	c0,0.394,0.231,0.751,0.591,0.913c0.359,0.161,0.779,0.097,1.074-0.165L46,3.227V44.773z"/>
</svg>
