<?xml version="1.0" encoding="utf-8"?>
<!-- Generator: Adobe Illustrator 17.0.0, SVG Export Plug-In . SVG Version: 6.00 Build 0)  -->
<!DOCTYPE svg PUBLIC "-//W3C//DTD SVG 1.1//EN" "http://www.w3.org/Graphics/SVG/1.1/DTD/svg11.dtd">
<svg version="1.1" id="Layer_1" xmlns="http://www.w3.org/2000/svg" xmlns:xlink="http://www.w3.org/1999/xlink" x="0px" y="0px"
	 width="48px" height="48px" viewBox="0 0 48 48" enable-background="new 0 0 48 48" xml:space="preserve">
<g>
	<path fill="#231F20" d="M1,34h46c0.007,0,0.015,0,0.02,0c0.552,0,1-0.448,1-0.999c0-0.317-0.147-0.599-0.376-0.782L24.749,6.338
		c-0.379-0.429-1.119-0.429-1.498,0l-23,26c-0.261,0.294-0.324,0.715-0.163,1.073C0.25,33.77,0.606,34,1,34z M24,8.509L44.78,32
		H3.22L24,8.509z"/>
	<path fill="#231F20" d="M47,38H1c-0.553,0-1,0.448-1,1v8c0,0.552,0.447,1,1,1h46c0.553,0,1-0.448,1-1v-8C48,38.448,47.553,38,47,38
		z M46,46H2v-6h44V46z"/>
</g>
</svg>
