<?xml version="1.0" encoding="utf-8"?>
<!-- Generator: Adobe Illustrator 17.0.0, SVG Export Plug-In . SVG Version: 6.00 Build 0)  -->
<!DOCTYPE svg PUBLIC "-//W3C//DTD SVG 1.1//EN" "http://www.w3.org/Graphics/SVG/1.1/DTD/svg11.dtd">
<svg version="1.1" id="Layer_1" xmlns="http://www.w3.org/2000/svg" xmlns:xlink="http://www.w3.org/1999/xlink" x="0px" y="0px"
	 width="48px" height="48px" viewBox="0 0 48 48" enable-background="new 0 0 48 48" xml:space="preserve">
<path fill="#231F20" d="M47.6,23.2l-28-21c-0.302-0.227-0.709-0.264-1.047-0.095C18.214,2.275,18,2.621,18,3v11.773L1.664,0.252
	C1.37-0.009,0.948-0.074,0.591,0.088C0.231,0.249,0,0.606,0,1v46c0,0.394,0.231,0.751,0.591,0.912C0.722,47.971,0.861,48,1,48
	c0.24,0,0.478-0.086,0.664-0.252L18,33.227V45c0,0.379,0.214,0.725,0.553,0.895c0.339,0.17,0.745,0.133,1.047-0.095l28-21
	c0.252-0.189,0.4-0.485,0.4-0.8S47.852,23.388,47.6,23.2z M20,43V31c0-0.394-0.231-0.751-0.591-0.913
	c-0.357-0.161-0.779-0.097-1.073,0.165L2,44.773V3.227l16.336,14.52c0.294,0.262,0.716,0.327,1.073,0.165
	C19.769,17.751,20,17.394,20,17V5l25.333,19L20,43z"/>
</svg>
