<?xml version="1.0" encoding="utf-8"?>
<!-- Generator: Adobe Illustrator 17.0.0, SVG Export Plug-In . SVG Version: 6.00 Build 0)  -->
<!DOCTYPE svg PUBLIC "-//W3C//DTD SVG 1.1//EN" "http://www.w3.org/Graphics/SVG/1.1/DTD/svg11.dtd">
<svg version="1.1" id="Layer_1" xmlns="http://www.w3.org/2000/svg" xmlns:xlink="http://www.w3.org/1999/xlink" x="0px" y="0px"
	 width="48px" height="48px" viewBox="0 0 48 48" enable-background="new 0 0 48 48" xml:space="preserve">
<g>
	<path fill="#231F20" d="M47,0H1C0.447,0,0,0.448,0,1v6v34v6c0,0.552,0.447,1,1,1h46c0.553,0,1-0.448,1-1v-6V7V1
		C48,0.448,47.553,0,47,0z M32,42v4H16v-4H32z M2,40V8h44v32H2z M16,6V2h16v4H16z M46,6H34V2h12V6z M2,2h12v4H2V2z M2,42h12v4H2V42z
		 M46,46H34v-4h12V46z"/>
	<path fill="#231F20" d="M24,12c-6.617,0-12,5.383-12,12s5.383,12,12,12s12-5.383,12-12S30.617,12,24,12z M24,34
		c-5.514,0-10-4.486-10-10s4.486-10,10-10s10,4.486,10,10S29.514,34,24,34z"/>
	<path fill="#231F20" d="M29.448,23.105l-8-4c-0.311-0.154-0.678-0.139-0.973,0.044C20.18,19.332,20,19.653,20,20v8
		c0,0.347,0.18,0.668,0.475,0.851C20.635,28.95,20.817,29,21,29c0.153,0,0.306-0.035,0.447-0.105l8-4C29.786,24.725,30,24.379,30,24
		S29.786,23.275,29.448,23.105z M22,26.382v-4.764L26.764,24L22,26.382z"/>
</g>
</svg>
