<?xml version="1.0" encoding="utf-8"?>
<!-- Generator: Adobe Illustrator 17.0.0, SVG Export Plug-In . SVG Version: 6.00 Build 0)  -->
<!DOCTYPE svg PUBLIC "-//W3C//DTD SVG 1.1//EN" "http://www.w3.org/Graphics/SVG/1.1/DTD/svg11.dtd">
<svg version="1.1" id="Layer_1" xmlns="http://www.w3.org/2000/svg" xmlns:xlink="http://www.w3.org/1999/xlink" x="0px" y="0px"
	 width="48px" height="48px" viewBox="0 0 48 48" enable-background="new 0 0 48 48" xml:space="preserve">
<g>
	<path fill="#231F20" d="M47,10H1c-0.553,0-1,0.448-1,1v6v22v6c0,0.552,0.447,1,1,1h46c0.553,0,1-0.448,1-1v-6V17v-6
		C48,10.448,47.553,10,47,10z M32,40v4H16v-4H32z M2,38V18h44v20H2z M16,16v-4h16v4H16z M46,16H34v-4h12V16z M2,12h12v4H2V12z M2,40
		h12v4H2V40z M46,44H34v-4h12V44z"/>
	<path fill="#231F20" d="M30.414,27.09l-11-5c-0.309-0.141-0.67-0.115-0.955,0.069C18.173,22.343,18,22.66,18,23v10
		c0,0.34,0.173,0.657,0.459,0.841C18.623,33.946,18.811,34,19,34c0.141,0,0.282-0.03,0.414-0.09l11-5C30.771,28.748,31,28.392,31,28
		S30.771,27.252,30.414,27.09z M20,31.447v-6.894L27.583,28L20,31.447z"/>
</g>
</svg>
