<?xml version="1.0" encoding="utf-8"?>
<!-- Generator: Adobe Illustrator 17.0.0, SVG Export Plug-In . SVG Version: 6.00 Build 0)  -->
<!DOCTYPE svg PUBLIC "-//W3C//DTD SVG 1.1//EN" "http://www.w3.org/Graphics/SVG/1.1/DTD/svg11.dtd">
<svg version="1.1" id="Layer_1" xmlns="http://www.w3.org/2000/svg" xmlns:xlink="http://www.w3.org/1999/xlink" x="0px" y="0px"
	 width="48px" height="48px" viewBox="0 0 48 48" enable-background="new 0 0 48 48" xml:space="preserve">
<g>
	<path fill="#231F20" d="M0,44.2C0,46.295,1.738,48,3.875,48h40.25C46.262,48,48,46.295,48,44.2V18H0V44.2z M2,20h44v24.2
		c0,0.992-0.841,1.8-1.875,1.8H3.875C2.841,46,2,45.192,2,44.2V20z"/>
	<path fill="#231F20" d="M16.475,41.851C16.635,41.95,16.817,42,17,42c0.153,0,0.306-0.035,0.447-0.105l16-8
		C33.786,33.725,34,33.379,34,33s-0.214-0.725-0.552-0.895l-16-8c-0.311-0.154-0.678-0.139-0.973,0.044
		C16.18,24.332,16,24.653,16,25v16C16,41.347,16.18,41.668,16.475,41.851z M18,26.618L30.764,33L18,39.382V26.618z"/>
	<path fill="#231F20" d="M45,4H3C1.346,4,0,5.346,0,7.001V16h48V7.001C48,5.346,46.654,4,45,4z M45.93,6.656L38.586,14h-5.171l8-8
		H45C45.43,6,45.789,6.275,45.93,6.656z M17.415,6h5.172l-8,8H9.415L17.415,6z M6.586,14H2.415l8-8h4.171L6.586,14z M25.415,6h5.172
		l-8,8h-5.171L25.415,6z M33.415,6h5.172l-8,8h-5.172L33.415,6z M3,6h4.587L2,11.587V7.001C2,6.449,2.448,6,3,6z M41.415,14
		L46,9.415V14H41.415z"/>
</g>
</svg>
