<?xml version="1.0" encoding="utf-8"?>
<!-- Generator: Adobe Illustrator 17.0.0, SVG Export Plug-In . SVG Version: 6.00 Build 0)  -->
<!DOCTYPE svg PUBLIC "-//W3C//DTD SVG 1.1//EN" "http://www.w3.org/Graphics/SVG/1.1/DTD/svg11.dtd">
<svg version="1.1" id="Layer_1" xmlns="http://www.w3.org/2000/svg" xmlns:xlink="http://www.w3.org/1999/xlink" x="0px" y="0px"
	 width="48px" height="48px" viewBox="0 0 48 48" enable-background="new 0 0 48 48" xml:space="preserve">
<g>
	<path fill="#231F20" d="M41,0H7C3.14,0,0,3.14,0,7v34c0,3.86,3.14,7,7,7h34c3.86,0,7-3.14,7-7V7C48,3.14,44.86,0,41,0z M46,41
		c0,2.757-2.243,5-5,5H7c-2.757,0-5-2.243-5-5V7c0-2.757,2.243-5,5-5h34c2.757,0,5,2.243,5,5V41z"/>
	<path fill="#231F20" d="M41,6H7C6.448,6,6,6.448,6,7v26c0,0.552,0.448,1,1,1h8.059c0.5,4.493,4.317,8,8.941,8s8.441-3.507,8.941-8
		H41c0.552,0,1-0.448,1-1V7C42,6.448,41.552,6,41,6z M24,40c-3.86,0-7-3.14-7-7s3.14-7,7-7s7,3.14,7,7S27.86,40,24,40z M40,32
		h-7.059c-0.5-4.493-4.317-8-8.941-8s-8.441,3.507-8.941,8H8V8h32V32z"/>
	<path fill="#231F20" d="M13,40H7c-0.552,0-1,0.448-1,1s0.448,1,1,1h6c0.552,0,1-0.448,1-1S13.552,40,13,40z"/>
	<path fill="#231F20" d="M41,40h-6c-0.552,0-1,0.448-1,1s0.448,1,1,1h6c0.552,0,1-0.448,1-1S41.552,40,41,40z"/>
	<path fill="#231F20" d="M27.447,32.105l-6-3c-0.309-0.154-0.678-0.138-0.973,0.044C20.18,29.332,20,29.653,20,30v6
		c0,0.347,0.18,0.668,0.474,0.851C20.635,36.95,20.817,37,21,37c0.153,0,0.306-0.035,0.447-0.105l6-3C27.786,33.725,28,33.379,28,33
		S27.786,32.275,27.447,32.105z M22,34.382v-2.764L24.764,33L22,34.382z"/>
</g>
</svg>
