<?xml version="1.0" encoding="utf-8"?>
<!-- Generator: Adobe Illustrator 17.0.0, SVG Export Plug-In . SVG Version: 6.00 Build 0)  -->
<!DOCTYPE svg PUBLIC "-//W3C//DTD SVG 1.1//EN" "http://www.w3.org/Graphics/SVG/1.1/DTD/svg11.dtd">
<svg version="1.1" id="Layer_1" xmlns="http://www.w3.org/2000/svg" xmlns:xlink="http://www.w3.org/1999/xlink" x="0px" y="0px"
	 width="48px" height="48px" viewBox="0 0 48 48" enable-background="new 0 0 48 48" xml:space="preserve">
<g>
	<path fill="#231F20" d="M43.411,0.088c-0.357-0.161-0.779-0.099-1.073,0.163l-26,23C16.123,23.441,16,23.713,16,24
		s0.123,0.559,0.338,0.749l26,23C42.523,47.914,42.761,48,43,48c0.139,0,0.279-0.029,0.411-0.088C43.77,47.75,44,47.394,44,47V1
		C44,0.606,43.77,0.25,43.411,0.088z M42,44.78L18.509,24L42,3.22V44.78z"/>
	<path fill="#231F20" d="M11,0H3C2.447,0,2,0.448,2,1v46c0,0.552,0.447,1,1,1h8c0.553,0,1-0.448,1-1V1C12,0.448,11.553,0,11,0z
		 M10,46H4V2h6V46z"/>
</g>
</svg>
