<?xml version="1.0" encoding="utf-8"?>
<!-- Generator: Adobe Illustrator 17.0.0, SVG Export Plug-In . SVG Version: 6.00 Build 0)  -->
<!DOCTYPE svg PUBLIC "-//W3C//DTD SVG 1.1//EN" "http://www.w3.org/Graphics/SVG/1.1/DTD/svg11.dtd">
<svg version="1.1" id="Layer_1" xmlns="http://www.w3.org/2000/svg" xmlns:xlink="http://www.w3.org/1999/xlink" x="0px" y="0px"
	 width="48px" height="48px" viewBox="0 0 48 48" enable-background="new 0 0 48 48" xml:space="preserve">
<g>
	<path fill="#231F20" d="M47,8H34.002C34,8,33.999,8,33.998,8H22.002C22,8,22,8,21.998,8H10.002C10,8,9.999,8,9.998,8H1
		C0.447,8,0,8.448,0,9v34c0,0.552,0.447,1,1,1h46c0.553,0,1-0.448,1-1V9C48,8.448,47.553,8,47,8z M24.414,20l4-4h9.172l-4,4H24.414z
		 M12.414,20l4-4h9.172l-4,4H12.414z M2,20v-4h11.586l-4,4H2z M21.586,10l4,4h-9.172l-4-4H21.586z M33.586,10l4,4h-9.172l-4-4
		H33.586z M40.414,16H46v4h-9.586L40.414,16z M46,14h-5.586l-4-4H46V14z M9.586,10l4,4H2v-4H9.586z M2,42V22h44v20H2z"/>
	<path fill="#231F20" d="M41,36H7c-0.553,0-1,0.448-1,1s0.447,1,1,1h34c0.553,0,1-0.448,1-1S41.553,36,41,36z"/>
	<path fill="#231F20" d="M25,34c0.553,0,1-0.448,1-1v-4c0-0.552-0.447-1-1-1s-1,0.448-1,1v4C24,33.552,24.447,34,25,34z"/>
</g>
</svg>
