<?xml version="1.0" encoding="utf-8"?>
<!-- Generator: Adobe Illustrator 17.0.0, SVG Export Plug-In . SVG Version: 6.00 Build 0)  -->
<!DOCTYPE svg PUBLIC "-//W3C//DTD SVG 1.1//EN" "http://www.w3.org/Graphics/SVG/1.1/DTD/svg11.dtd">
<svg version="1.1" id="Layer_1" xmlns="http://www.w3.org/2000/svg" xmlns:xlink="http://www.w3.org/1999/xlink" x="0px" y="0px"
	 width="48px" height="48px" viewBox="0 0 48 48" enable-background="new 0 0 48 48" xml:space="preserve">
<g>
	<path fill="#231F20" d="M42,14h-8.946c0-0.15-0.023-0.301-0.095-0.445c-0.779-1.568-1.933-2.847-3.308-3.792l6.056-6.056
		c0.391-0.391,0.391-1.023,0-1.414c-0.391-0.391-1.023-0.391-1.414,0l-6.472,6.472C26.632,8.276,25.343,8,24,8
		c-1.344,0-2.633,0.276-3.822,0.765l-6.471-6.472c-0.391-0.391-1.023-0.391-1.414,0c-0.391,0.39-0.391,1.023,0,1.414l6.055,6.056
		c-1.376,0.945-2.529,2.223-3.309,3.79c-0.072,0.144-0.095,0.296-0.095,0.447H6c-3.3,0-6,2.7-6,6v22c0,3.3,2.7,6,6,6h36
		c3.3,0,6-2.7,6-6V20C48,16.7,45.3,14,42,14z M24,10c2.885,0,5.476,1.527,6.907,4H17.09C18.52,11.528,21.114,10,24,10z M46,42
		c0,2.206-1.794,4-4,4H6c-2.206,0-4-1.794-4-4V20c0-2.206,1.794-4,4-4h36c2.206,0,4,1.794,4,4V42z"/>
	<path fill="#231F20" d="M22,18h-6c-2.968,0-12,0-12,5v16c0,5,9.032,5,12,5h6c2.968,0,12,0,12-5V23C34,18,24.968,18,22,18z M32,39
		c0,1.935-3.551,3-10,3h-6c-6.449,0-10-1.065-10-3V23c0-1.935,3.551-3,10-3h6c6.449,0,10,1.065,10,3V39z"/>
	<path fill="#231F20" d="M40,20c-2.21,0-4,1.791-4,4s1.79,4,4,4c2.209,0,4-1.791,4-4S42.209,20,40,20z M40,26c-1.103,0-2-0.897-2-2
		c0-1.102,0.897-2,2-2s2,0.898,2,2C42,25.103,41.103,26,40,26z"/>
	<path fill="#231F20" d="M40,30c-2.21,0-4,1.791-4,4s1.79,4,4,4c2.209,0,4-1.791,4-4S42.209,30,40,30z M40,36c-1.103,0-2-0.897-2-2
		s0.897-2,2-2s2,0.897,2,2S41.103,36,40,36z"/>
</g>
</svg>
