<?xml version="1.0" encoding="utf-8"?>
<!-- Generator: Adobe Illustrator 17.0.0, SVG Export Plug-In . SVG Version: 6.00 Build 0)  -->
<!DOCTYPE svg PUBLIC "-//W3C//DTD SVG 1.1//EN" "http://www.w3.org/Graphics/SVG/1.1/DTD/svg11.dtd">
<svg version="1.1" id="Layer_1" xmlns="http://www.w3.org/2000/svg" xmlns:xlink="http://www.w3.org/1999/xlink" x="0px" y="0px"
	 width="48px" height="48px" viewBox="0 0 48 48" enable-background="new 0 0 48 48" xml:space="preserve">
<g>
	<path fill="#231F20" d="M26,28H12c-2.206,0-4,1.794-4,4s1.794,4,4,4s4-1.794,4-4c0-0.732-0.212-1.409-0.556-2h7.112
		C22.212,30.591,22,31.268,22,32c0,2.206,1.794,4,4,4s4-1.794,4-4S28.206,28,26,28z M14,32c0,1.103-0.897,2-2,2s-2-0.897-2-2
		s0.897-2,2-2S14,30.897,14,32z M26,34c-1.103,0-2-0.897-2-2s0.897-2,2-2s2,0.897,2,2S27.103,34,26,34z"/>
	<path fill="#231F20" d="M47.074,23.886c-0.579-0.386-1.31-0.457-1.95-0.188L36,27.5V24c0-1.654-1.346-3-3-3h-1v-5
		c0-0.551,0.449-1,1-1h3.184c0.414,1.161,1.514,2,2.816,2h6c1.654,0,3-1.346,3-3s-1.346-3-3-3h-6c-1.302,0-2.401,0.839-2.816,2H33
		c-1.654,0-3,1.346-3,3v5h-6v-3c0-1.654-1.346-3-3-3H1c-0.552,0-1,0.448-1,1s0.448,1,1,1h20c0.551,0,1,0.449,1,1v3H5
		c-1.654,0-3,1.346-3,3v16c0,1.654,1.346,3,3,3h28c1.654,0,3-1.346,3-3v-3.501l9.124,3.802c0.257,0.108,0.529,0.161,0.799,0.161
		c0.404,0,0.805-0.118,1.154-0.349C47.655,39.726,48,39.08,48,38.385v-12.77C48,24.92,47.655,24.274,47.074,23.886z M39,13h6
		c0.551,0,1,0.449,1,1s-0.449,1-1,1h-6c-0.551,0-1-0.449-1-1S38.449,13,39,13z M33,41H5c-0.551,0-1-0.449-1-1V24
		c0-0.551,0.449-1,1-1h28c0.551,0,1,0.449,1,1v4.993c0,0.002,0,0.003,0,0.005v6.003c0,0.002,0,0.003,0,0.005V40
		C34,40.551,33.551,41,33,41z M46,38.385l-0.106,0.07L36,34.332v-4.666l9.894-4.123L46,25.615V38.385z"/>
</g>
</svg>
