<?xml version="1.0" encoding="utf-8"?>
<!-- Generator: Adobe Illustrator 17.0.0, SVG Export Plug-In . SVG Version: 6.00 Build 0)  -->
<!DOCTYPE svg PUBLIC "-//W3C//DTD SVG 1.1//EN" "http://www.w3.org/Graphics/SVG/1.1/DTD/svg11.dtd">
<svg version="1.1" id="Layer_2" xmlns="http://www.w3.org/2000/svg" xmlns:xlink="http://www.w3.org/1999/xlink" x="0px" y="0px"
	 width="60px" height="60px" viewBox="0 0 60 60" enable-background="new 0 0 60 60" xml:space="preserve">
<g>
	<path fill="#010101" d="M54,48H6c-2.663,0-5,2.337-5,5v2c0,2.663,2.337,5,5,5h48c2.663,0,5-2.337,5-5v-2C59,50.336,56.663,48,54,48
		z"/>
	<path fill="#010101" d="M8,46.001h44c0.553,0,1-0.447,1-1c0-20.663-8.598-33-23-33c-14.402,0-23,12.337-23,33
		C7,45.553,7.447,46.001,8,46.001z"/>
	<path fill="#010101" d="M22,10.001h16c0.553,0,1-0.447,1-1s-0.447-1-1-1h-5.586l4.293-4.293c0.391-0.391,0.391-1.023,0-1.414
		c-0.391-0.391-1.023-0.391-1.414,0L31,6.586V1.001c0-0.553-0.447-1-1-1c-0.553,0-1,0.447-1,1v5.586l-4.293-4.293
		c-0.391-0.391-1.023-0.391-1.414,0c-0.391,0.391-0.391,1.023,0,1.414l4.293,4.293H22c-0.553,0-1,0.447-1,1S21.447,10.001,22,10.001
		z"/>
</g>
</svg>
