<?xml version="1.0" encoding="utf-8"?>
<!-- Generator: Adobe Illustrator 17.0.0, SVG Export Plug-In . SVG Version: 6.00 Build 0)  -->
<!DOCTYPE svg PUBLIC "-//W3C//DTD SVG 1.1//EN" "http://www.w3.org/Graphics/SVG/1.1/DTD/svg11.dtd">
<svg version="1.1" id="Layer_2" xmlns="http://www.w3.org/2000/svg" xmlns:xlink="http://www.w3.org/1999/xlink" x="0px" y="0px"
	 width="60px" height="60px" viewBox="0 0 60 60" enable-background="new 0 0 60 60" xml:space="preserve">
<path fill="#010101" d="M57.509,15.904c-5.455-5.366-16.26-8.551-24.007-8.551c-5.656,0-11.108,1.68-15.766,4.856
	c-0.454,0.311-1.078,0.195-1.39-0.263c-0.311-0.456-0.193-1.078,0.263-1.39c4.991-3.404,10.832-5.204,16.893-5.204
	c5.82,0,13.368,1.668,19.377,4.833C47.592,4.895,39.489,0,29,0C17.152,0,6.828,4.351,4.616,6.684C4.178,7.145,3.977,7.593,4,8v3.31
	C1.572,12.729,0,15.171,0,18c0,3.924,3.429,8.766,6.059,9.793C6.343,30.456,7.655,37.998,9.991,38c0,0,0,0,0.001,0
	c0.002,0,0.005,0,0.008,0c0.008,0,0.019,0,0.025,0h16.076c0.399,1.956,1.943,3.5,3.899,3.899V50h-1c-0.553,0-1,0.447-1,1v8
	c0,0.553,0.447,1,1,1h4c0.553,0,1-0.447,1-1v-8c0-0.553-0.447-1-1-1h-1v-8.101c2.279-0.465,4-2.484,4-4.899
	c0-2.414-1.721-4.434-4-4.899V28h23c2.645,0,5-3.355,5-6C60,20.709,59.146,18.47,57.509,15.904z M9.991,35.595
	C9.273,34.162,8.309,30.376,8.061,28h9.525L9.991,35.595z M30,32.101C28.044,32.5,26.5,34.044,26.101,36H12.414l8-8H30V32.101z"/>
</svg>
