<?xml version="1.0" encoding="utf-8"?>
<!-- Generator: Adobe Illustrator 17.0.0, SVG Export Plug-In . SVG Version: 6.00 Build 0)  -->
<!DOCTYPE svg PUBLIC "-//W3C//DTD SVG 1.1//EN" "http://www.w3.org/Graphics/SVG/1.1/DTD/svg11.dtd">
<svg version="1.1" id="Layer_2" xmlns="http://www.w3.org/2000/svg" xmlns:xlink="http://www.w3.org/1999/xlink" x="0px" y="0px"
	 width="60px" height="60px" viewBox="0 0 60 60" enable-background="new 0 0 60 60" xml:space="preserve">
<g>
	<path fill="#010101" d="M22,31h-5c-0.553,0-1-0.447-1-1c0-0.553,0.447-1,1-1h5v-4c0-0.83,0.387-1.671,0.968-2.373l-17.65-5.575
		c-1.321-0.442-2.948-0.205-4.051,0.59C0.449,18.229,0,19.067,0,20v20c0,0.935,0.449,1.772,1.266,2.36
		C2,42.888,2.967,43.17,3.917,43.17c0.477,0,0.948-0.07,1.384-0.217l17.668-5.579C22.388,36.671,22,35.83,22,35V31z"/>
	<path fill="#010101" d="M58.733,17.641c-1.102-0.794-2.731-1.031-4.034-0.595l-17.667,5.58C37.613,23.329,38,24.17,38,25v4h5
		c0.553,0,1,0.447,1,1c0,0.553-0.447,1-1,1h-5v4c0,0.83-0.388,1.672-0.969,2.374l17.651,5.574c0.444,0.148,0.922,0.221,1.403,0.221
		c0.952,0,1.916-0.281,2.649-0.809C59.551,41.772,60,40.934,60,40V20C60,19.067,59.551,18.229,58.733,17.641z"/>
	<path fill="#010101" d="M34,23h-8c-0.841,0-2,1.159-2,2v10c0,0.841,1.159,2,2,2h8c0.841,0,2-1.159,2-2V25
		C36,24.159,34.841,23,34,23z"/>
</g>
</svg>
