<?xml version="1.0" encoding="utf-8"?>
<!-- Generator: Adobe Illustrator 17.0.0, SVG Export Plug-In . SVG Version: 6.00 Build 0)  -->
<!DOCTYPE svg PUBLIC "-//W3C//DTD SVG 1.1//EN" "http://www.w3.org/Graphics/SVG/1.1/DTD/svg11.dtd">
<svg version="1.1" id="Layer_2" xmlns="http://www.w3.org/2000/svg" xmlns:xlink="http://www.w3.org/1999/xlink" x="0px" y="0px"
	 width="60px" height="60px" viewBox="0 0 60 60" enable-background="new 0 0 60 60" xml:space="preserve">
<g>
	<path fill="#010101" d="M59.952,57.533l-1.701-11.908c-8.431-4.149-19.739-6.929-28.261-6.929c-8.528,0-19.837,2.78-28.261,6.929
		L0,57.728c-0.057,0.396,0.129,0.787,0.47,0.996c0.342,0.207,0.773,0.192,1.101-0.04c8.571-6.099,20.187-7.379,28.42-7.379
		c8.233,0,19.848,1.28,28.42,7.379c0.174,0.123,0.377,0.186,0.58,0.186c0.007,0.001,0.015,0.001,0.019,0c0.553,0,1-0.447,1-1
		C60.01,57.751,59.99,57.638,59.952,57.533z"/>
	<path fill="#010101" d="M57.99,43.282v-9.412c0-14.888-12.561-27-28-27s-28,12.112-28,27v9.412c8.629-4.023,19.438-6.585,28-6.585
		C38.547,36.696,49.355,39.258,57.99,43.282z M14.419,30.69c-0.268-0.187-0.429-0.493-0.429-0.82v-10
		c0-0.419,0.261-0.793,0.654-0.938c4.439-1.638,9.746-2.504,15.346-2.504c5.6,0,10.906,0.866,15.346,2.504
		c0.394,0.146,0.654,0.52,0.654,0.938v10c0,0.327-0.16,0.634-0.429,0.82c-0.17,0.118-0.369,0.18-0.571,0.18
		c-0.116,0-0.233-0.021-0.346-0.062c-4.161-1.535-9.365-2.381-14.654-2.381s-10.493,0.846-14.654,2.381
		C15.027,30.92,14.686,30.875,14.419,30.69z"/>
	<path fill="#010101" d="M29.989,1.13c-2.089,0-3.782,1.693-3.782,3.782h7.565C33.772,2.823,32.078,1.13,29.989,1.13z"/>
</g>
</svg>
