<?xml version="1.0" encoding="utf-8"?>
<!-- Generator: Adobe Illustrator 17.0.0, SVG Export Plug-In . SVG Version: 6.00 Build 0)  -->
<!DOCTYPE svg PUBLIC "-//W3C//DTD SVG 1.1//EN" "http://www.w3.org/Graphics/SVG/1.1/DTD/svg11.dtd">
<svg version="1.1" id="Layer_2" xmlns="http://www.w3.org/2000/svg" xmlns:xlink="http://www.w3.org/1999/xlink" x="0px" y="0px"
	 width="60px" height="60px" viewBox="0 0 60 60" enable-background="new 0 0 60 60" xml:space="preserve">
<g>
	<path fill="#010101" d="M59,26c-0.553,0-1,0.447-1,1c0,5.148-2.745,10.353-8,10.941V32H10v5.941C4.745,37.353,2,32.148,2,27
		c0-0.553-0.447-1-1-1c-0.553,0-1,0.447-1,1c0,6.302,3.855,13,11,13h38c7.144,0,11-6.698,11-13C60,26.447,59.553,26,59,26z"/>
	<path fill="#010101" d="M50,20C50,8.972,41.028,0,30,0C18.972,0,10,8.972,10,20v10h40V20z"/>
	<polygon fill="#010101" points="26,54 24,60 36,60 34,54 	"/>
</g>
</svg>
