<?xml version="1.0" encoding="utf-8"?>
<!-- Generator: Adobe Illustrator 17.0.0, SVG Export Plug-In . SVG Version: 6.00 Build 0)  -->
<!DOCTYPE svg PUBLIC "-//W3C//DTD SVG 1.1//EN" "http://www.w3.org/Graphics/SVG/1.1/DTD/svg11.dtd">
<svg version="1.1" id="Layer_2" xmlns="http://www.w3.org/2000/svg" xmlns:xlink="http://www.w3.org/1999/xlink" x="0px" y="0px"
	 width="60px" height="60px" viewBox="0 0 60 60" enable-background="new 0 0 60 60" xml:space="preserve">
<path fill="#010101" d="M57.293,41.358c-0.064-0.045-0.13-0.085-0.198-0.122L32.032,27.819c0.038-0.629,0.104-0.985,0.165-1.179
	c0.16-0.078,0.319-0.154,0.476-0.229C35.046,25.269,38,23.849,38,19c0-4.411-3.589-8-8-8c-4.411,0-8,3.589-8,8c0,1.105,0.896,2,2,2
	s2-0.895,2-2c0-2.206,1.794-4,4-4c2.206,0,4,1.794,4,4c0,2.333-0.834,2.734-3.062,3.805c-0.272,0.132-0.551,0.266-0.834,0.407
	c-1.661,0.832-2.007,2.918-2.081,4.577L2.906,41.236c-0.068,0.037-0.135,0.078-0.199,0.123c-1.475,1.026-2.074,2.962-1.492,4.814
	C1.753,47.891,3.18,49,4.85,49h50.301c1.669,0,3.097-1.11,3.636-2.83C59.368,44.317,58.767,42.384,57.293,41.358z M54.962,45H5.036
	c-0.041-0.113-0.059-0.274-0.048-0.341L30,31.269L54.99,44.647C55.014,44.737,55,44.892,54.962,45z"/>
</svg>
