<?xml version="1.0" encoding="utf-8"?>
<!-- Generator: Adobe Illustrator 17.0.0, SVG Export Plug-In . SVG Version: 6.00 Build 0)  -->
<!DOCTYPE svg PUBLIC "-//W3C//DTD SVG 1.1//EN" "http://www.w3.org/Graphics/SVG/1.1/DTD/svg11.dtd">
<svg version="1.1" id="Layer_2" xmlns="http://www.w3.org/2000/svg" xmlns:xlink="http://www.w3.org/1999/xlink" x="0px" y="0px"
	 width="60px" height="60px" viewBox="0 0 60 60" enable-background="new 0 0 60 60" xml:space="preserve">
<g>
	<path fill="#010101" d="M24.096,51.314l-0.148-0.15c-0.854-0.867-1.767-1.794-2.754-2.781l-0.404-0.404
		C20.86,47.981,20.928,48,21,48c0.768,0,1.487-0.188,2.137-0.498c0.786,0.789,1.536,1.549,2.235,2.259l0.148,0.149
		c0.053,0.054,0.102,0.103,0.154,0.156c0.103-0.036,0.21-0.066,0.325-0.066l14,0V42H25.899c-0.151-0.743-0.482-1.416-0.924-2H30v-1
		c0-5.047,3.953-9,9-9h18c0.007,0,0.015,0,0.02,0c0.553,0,1-0.447,1-1c0-0.069-0.007-0.138-0.021-0.203
		c-0.016-2.342-0.318-4.616-0.861-6.797H36c-7.851,0-14,6.149-14,14v2.101C21.677,38.035,21.342,38,21,38s-0.677,0.035-1,0.101V36
		c0-8.972,7.028-16,16-16h20.564C52.768,8.403,41.849,0.001,29,0.001C13.01,0.001,0,13.009,0,29c0,13.346,12.037,28,23,28h6
		c0.256,0,0.484-0.103,0.661-0.262C27.938,55.215,26.143,53.393,24.096,51.314z M18,43c0-1.654,1.346-3,3-3s3,1.346,3,3
		s-1.346,3-3,3S18,44.654,18,43z"/>
	<rect x="42" y="42" fill="#010101" width="8" height="8"/>
	<path fill="#010101" d="M50,52l-8,0V54c0,1.744-1.551,4.151-3.349,5.651C39.685,59.882,40.786,60,42,60h4.009
		C47.991,59.989,50,56.505,50,54V52z"/>
	<path fill="#010101" d="M59,42h-7v8l8,0v-7C60,42.447,59.553,42,59,42z"/>
	<path fill="#010101" d="M52,54c0,1.893-0.874,4.317-2.297,6H54c3.309,0,6-2.691,6-6v-2l-8,0V54z"/>
	<path fill="#010101" d="M40,52l-12.411,0c3.311,3.318,5.837,5.603,8.676,6.855C37.943,58.099,40,55.33,40,54V52z"/>
</g>
</svg>
