<?xml version="1.0" encoding="utf-8"?>
<!-- Generator: Adobe Illustrator 17.0.0, SVG Export Plug-In . SVG Version: 6.00 Build 0)  -->
<!DOCTYPE svg PUBLIC "-//W3C//DTD SVG 1.1//EN" "http://www.w3.org/Graphics/SVG/1.1/DTD/svg11.dtd">
<svg version="1.1" id="Layer_2" xmlns="http://www.w3.org/2000/svg" xmlns:xlink="http://www.w3.org/1999/xlink" x="0px" y="0px"
	 width="60px" height="60px" viewBox="0 0 60 60" enable-background="new 0 0 60 60" xml:space="preserve">
<path fill="#010101" d="M50,6c-0.553,0-1,0.447-1,1c0,0.553,0.447,1,1,1c1.654,0,3,1.346,3,3v25.695C51.008,33.861,47.72,32,44,32
	c-4.847,0-8.963,3.155-10.425,7.516C32.666,38.584,31.402,38,30,38c-1.402,0-2.666,0.584-3.575,1.516C24.963,35.155,20.847,32,16,32
	c-3.72,0-7.008,1.861-9,4.695V11c0-1.654,1.346-3,3-3c0.553,0,1-0.447,1-1c0-0.553-0.447-1-1-1c-2.757,0-5,2.243-5,5v32
	c0,6.066,4.935,11,11,11s11-4.934,11-11c0-1.654,1.346-3,3-3c1.654,0,3,1.346,3,3c0,6.066,4.935,11,11,11c6.065,0,11-4.934,11-11V11
	C55,8.243,52.757,6,50,6z"/>
</svg>
