<?xml version="1.0" encoding="utf-8"?>
<!-- Generator: Adobe Illustrator 17.0.0, SVG Export Plug-In . SVG Version: 6.00 Build 0)  -->
<!DOCTYPE svg PUBLIC "-//W3C//DTD SVG 1.1//EN" "http://www.w3.org/Graphics/SVG/1.1/DTD/svg11.dtd">
<svg version="1.1" id="Layer_2" xmlns="http://www.w3.org/2000/svg" xmlns:xlink="http://www.w3.org/1999/xlink" x="0px" y="0px"
	 width="60px" height="60px" viewBox="0 0 60 60" enable-background="new 0 0 60 60" xml:space="preserve">
<g>
	<path fill="#010101" d="M44,19c-4.847,0-8.963,3.155-10.425,7.516C32.666,25.584,31.402,25,30,25c-1.402,0-2.666,0.584-3.575,1.516
		C24.963,22.155,20.847,19,16,19C9.935,19,5,23.935,5,30c0,6.066,4.935,11,11,11c6.065,0,11-4.934,11-11c0-1.654,1.346-3,3-3
		c1.654,0,3,1.346,3,3c0,6.066,4.935,11,11,11c6.065,0,11-4.934,11-11C55,23.935,50.065,19,44,19z"/>
	<path fill="#010101" d="M2.839,22.731c-0.497-0.234-1.096-0.019-1.33,0.48C0.508,25.343,0,27.627,0,30c0,0.553,0.447,1,1,1
		c0.553,0,1-0.447,1-1c0-2.077,0.443-4.075,1.319-5.939C3.554,23.561,3.339,22.966,2.839,22.731z"/>
	<path fill="#010101" d="M58.491,23.211c-0.234-0.5-0.829-0.716-1.33-0.48c-0.5,0.235-0.715,0.83-0.48,1.33
		C57.557,25.925,58,27.923,58,30c0,0.553,0.447,1,1,1c0.553,0,1-0.447,1-1C60,27.627,59.492,25.343,58.491,23.211z"/>
</g>
</svg>
