<?xml version="1.0" encoding="utf-8"?>
<!-- Generator: Adobe Illustrator 17.0.0, SVG Export Plug-In . SVG Version: 6.00 Build 0)  -->
<!DOCTYPE svg PUBLIC "-//W3C//DTD SVG 1.1//EN" "http://www.w3.org/Graphics/SVG/1.1/DTD/svg11.dtd">
<svg version="1.1" id="Layer_2" xmlns="http://www.w3.org/2000/svg" xmlns:xlink="http://www.w3.org/1999/xlink" x="0px" y="0px"
	 width="60px" height="60px" viewBox="0 0 60 60" enable-background="new 0 0 60 60" xml:space="preserve">
<path fill="#010101" d="M57,35.81h-3.051c-0.507-5.598-5.221-10-10.949-10c-0.764,0-1.51,0.079-2.231,0.228l-8.731-4.913
	l11.462-6.45c0.701-0.405,1.453-0.562,2.114-0.449c0.648,0.112,1.174,0.487,1.52,1.085c0.276,0.477,0.885,0.642,1.366,0.364
	c0.477-0.276,0.642-0.888,0.364-1.366c-0.642-1.11-1.675-1.84-2.908-2.054c-1.124-0.196-2.353,0.049-3.447,0.684L30,19.979
	l-12.499-7.033c-1.107-0.64-2.337-0.886-3.458-0.689c-1.233,0.214-2.266,0.943-2.908,2.054c-0.277,0.479-0.113,1.09,0.364,1.366
	c0.479,0.277,1.09,0.113,1.366-0.364c0.346-0.598,0.871-0.973,1.52-1.085c0.662-0.117,1.414,0.044,2.125,0.455l11.452,6.444
	l-8.731,4.913C18.51,25.889,17.764,25.81,17,25.81c-5.728,0-10.442,4.402-10.949,10H3c-0.553,0-1,0.447-1,1c0,0.553,0.447,1,1,1
	h3.051c0.507,5.598,5.221,10,10.949,10c6.065,0,11-4.934,11-11c0-1.102,0.897-2,2-2c1.102,0,2,0.898,2,2c0,6.066,4.935,11,11,11
	c5.728,0,10.442-4.402,10.949-10H57c0.553,0,1-0.447,1-1C58,36.258,57.553,35.81,57,35.81z M32.46,33.68
	c-0.681-0.536-1.528-0.87-2.46-0.87c-0.932,0-1.779,0.334-2.46,0.87c-0.889-2.986-3.015-5.436-5.78-6.771L30,22.272l8.24,4.637
	C35.475,28.244,33.349,30.694,32.46,33.68z"/>
</svg>
