<?xml version="1.0" encoding="utf-8"?>
<!-- Generator: Adobe Illustrator 17.0.0, SVG Export Plug-In . SVG Version: 6.00 Build 0)  -->
<!DOCTYPE svg PUBLIC "-//W3C//DTD SVG 1.1//EN" "http://www.w3.org/Graphics/SVG/1.1/DTD/svg11.dtd">
<svg version="1.1" id="Layer_2" xmlns="http://www.w3.org/2000/svg" xmlns:xlink="http://www.w3.org/1999/xlink" x="0px" y="0px"
	 width="60px" height="60px" viewBox="0 0 60 60" enable-background="new 0 0 60 60" xml:space="preserve">
<g>
	<path fill="#010101" d="M12,35.131v3.36C14.099,40.193,21.9,42,30,42c8.101,0,15.901-1.807,18-3.509v-3.36
		C44.239,36.946,36.526,38,30,38C23.475,38,15.762,36.946,12,35.131z"/>
	<path fill="#010101" d="M12,40.832V54c0,4.122,9.331,6,18,6s18-1.878,18-6V40.832C44.164,42.814,36.332,44,30,44
		C23.669,44,15.836,42.815,12,40.832z"/>
	<path fill="#010101" d="M12,29.934v2.905C14.048,34.38,21.588,36,30,36c8.413,0,15.952-1.62,18-3.161v-2.942
		c-4.021,0.729-9.375,1.104-16,1.104C25.728,31.001,17.103,30.882,12,29.934z"/>
	<path fill="#010101" d="M30,8C15.253,8,0,12.114,0,19c0,3.621,4.368,6.831,12,8.87v0.027c5.473,1.101,16.312,1.104,20,1.104
		c6.712,0,12.077-0.381,16.002-1.131C55.633,25.831,60,22.62,60,19C60,12.114,44.747,8,30,8z M30,22c-9.995,0-15.812-1.985-16-2.995
		C14.189,17.985,20.009,16,30,16s15.811,1.985,16,2.995C45.812,20.015,39.995,22,30,22z"/>
</g>
</svg>
