<?xml version="1.0" encoding="utf-8"?>
<!-- Generator: Adobe Illustrator 17.0.0, SVG Export Plug-In . SVG Version: 6.00 Build 0)  -->
<!DOCTYPE svg PUBLIC "-//W3C//DTD SVG 1.1//EN" "http://www.w3.org/Graphics/SVG/1.1/DTD/svg11.dtd">
<svg version="1.1" id="Layer_2" xmlns="http://www.w3.org/2000/svg" xmlns:xlink="http://www.w3.org/1999/xlink" x="0px" y="0px"
	 width="60px" height="60px" viewBox="0 0 60 60" enable-background="new 0 0 60 60" xml:space="preserve">
<g>
	<circle fill="#010101" cx="35" cy="15.999" r="1"/>
	<path fill="#010101" d="M55,19c-2.57,0-5,2.43-5,5v27c0,3.394-2.453,7-7,7c-4.547,0-7-3.606-7-7V20c0-0.553-0.447-1-1-1
		c-0.553,0-1,0.447-1,1v31c0,4.424,3.366,9,9,9c5.634,0,9-4.576,9-9V24c0-1.458,1.542-3,3-3s3,1.542,3,3v3c0,0.553,0.447,1,1,1
		c0.553,0,1-0.447,1-1v-3C60,21.429,57.57,19,55,19z"/>
	<path fill="#010101" d="M16,0.001C7.178,0.001,0,7.177,0,16c0,8.822,7.178,16,16,16c8.822,0,16-7.178,16-16
		C32,7.177,24.822,0.001,16,0.001z M28,16c0,6.617-5.383,12-12,12c-0.553,0-1-0.447-1-1c0-0.553,0.447-1,1-1c5.514,0,10-4.486,10-10
		c0-0.553,0.447-1,1-1C27.553,15,28,15.447,28,16z"/>
</g>
</svg>
