<?xml version="1.0" encoding="utf-8"?>
<!-- Generator: Adobe Illustrator 17.0.0, SVG Export Plug-In . SVG Version: 6.00 Build 0)  -->
<!DOCTYPE svg PUBLIC "-//W3C//DTD SVG 1.1//EN" "http://www.w3.org/Graphics/SVG/1.1/DTD/svg11.dtd">
<svg version="1.1" id="Layer_2" xmlns="http://www.w3.org/2000/svg" xmlns:xlink="http://www.w3.org/1999/xlink" x="0px" y="0px"
	 width="60px" height="60px" viewBox="0 0 60 60" enable-background="new 0 0 60 60" xml:space="preserve">
<g>
	<path fill="#010101" d="M23.557,8.001h12.886l2.494-6.649c0.115-0.308,0.072-0.651-0.114-0.921C38.635,0.161,38.328,0,38,0H22
		c-0.328,0-0.635,0.161-0.822,0.431c-0.187,0.27-0.229,0.613-0.114,0.921L23.557,8.001z"/>
	<path fill="#010101" d="M36.133,10.001H23.867l-4.859,38.875c-0.038,0.307,0.066,0.613,0.285,0.831l10,10
		C29.488,59.902,29.744,60,30,60c0.256,0,0.512-0.098,0.707-0.293l10-10c0.219-0.218,0.323-0.524,0.285-0.831L36.133,10.001z"/>
</g>
</svg>
