<?xml version="1.0" encoding="utf-8"?>
<!-- Generator: Adobe Illustrator 17.0.0, SVG Export Plug-In . SVG Version: 6.00 Build 0)  -->
<!DOCTYPE svg PUBLIC "-//W3C//DTD SVG 1.1//EN" "http://www.w3.org/Graphics/SVG/1.1/DTD/svg11.dtd">
<svg version="1.1" id="Layer_2" xmlns="http://www.w3.org/2000/svg" xmlns:xlink="http://www.w3.org/1999/xlink" x="0px" y="0px"
	 width="60px" height="60px" viewBox="0 0 60 60" enable-background="new 0 0 60 60" xml:space="preserve">
<path fill="#010101" d="M57.001,34.939H52v-2.565C52,18.659,41.766,6.95,28.195,5.137c-2.366-0.315-4.777,0.38-6.617,1.91
	l-1.173,0.978c1.813-0.359,3.585-0.521,5.111-0.521c8.096,0,17.482,5.694,21.366,12.963c0.261,0.487,0.076,1.094-0.41,1.354
	c-0.15,0.08-0.312,0.118-0.471,0.118c-0.357,0-0.703-0.191-0.883-0.528C41.55,14.733,32.939,9.504,25.516,9.504
	c-2.537,0-6.045,0.502-9.05,1.803l-0.147,0.123c-0.007,0.007-0.015,0.014-0.023,0.019c-0.673,0.302-1.322,0.647-1.958,1.011
	c-0.246,0.159-0.502,0.308-0.732,0.483c-0.105,0.081-0.223,0.134-0.344,0.167C7.272,16.996,3.254,23.656,3.025,31.258
	C1.334,31.803,0,33.042,0,34.938v2c0,2.542,1.458,4,4,4v8c0,4.959,2.719,6,5,6c2.281,0,5-1.041,5-6c0-1.439,0.56-2,2-2h28
	c3.532,0,6-2.468,6-6h1h6.001c1.653,0,2.999-1.346,2.999-3C60,36.284,58.654,34.939,57.001,34.939z M57.001,38.938H50H5H4
	c-1.44,0-2-0.56-2-2v-2c0-1.468,1.844-2,3.083-2H28v3.001c0,0.553,0.447,1,1,1h28.001c0.551,0,0.999,0.448,0.999,0.999
	C58,38.489,57.552,38.938,57.001,38.938z"/>
</svg>
