<?xml version="1.0" encoding="utf-8"?>
<!-- Generator: Adobe Illustrator 17.0.0, SVG Export Plug-In . SVG Version: 6.00 Build 0)  -->
<!DOCTYPE svg PUBLIC "-//W3C//DTD SVG 1.1//EN" "http://www.w3.org/Graphics/SVG/1.1/DTD/svg11.dtd">
<svg version="1.1" id="Layer_2" xmlns="http://www.w3.org/2000/svg" xmlns:xlink="http://www.w3.org/1999/xlink" x="0px" y="0px"
	 width="60px" height="60px" viewBox="0 0 60 60" enable-background="new 0 0 60 60" xml:space="preserve">
<g>
	<path fill="#010101" d="M2,10c0.037,0,0.069-0.017,0.105-0.021C2.589,12.21,4.669,14,7,14h4c3.364,0,6-2.636,6-6V1
		c0-0.553-0.447-1-1-1h-6C7.06,0,3.966,1.632,2.654,4.257C2.477,4.102,2.253,4,2,4C1.447,4,1,4.447,1,5v4C1,9.553,1.447,10,2,10z"/>
	<path fill="#010101" d="M24,14h4c2.663,0,5-2.337,5-5c0,0.553,0.447,1,1,1c0.553,0,1-0.447,1-1V5c0-0.553-0.447-1-1-1
		c-0.553,0-1,0.447-1,1v2c0-4.187-4.137-7-8-7h-6c-0.553,0-1,0.447-1,1v7C18,11.364,20.636,14,24,14z"/>
	<path fill="#010101" d="M41,55c0,2.663,2.337,5,5,5h8c2.663,0,5-2.337,5-5v-1H41V55z"/>
	<rect x="41" y="32" fill="#010101" width="18" height="20"/>
	<path fill="#010101" d="M45,14c2.831,0,3.744,1.994,3.949,4H48c-0.553,0-1,0.447-1,1v3.448c-3.527,1.076-6,4.007-6,7.552h18
		c0-3.545-2.473-6.475-6-7.552V19c0-0.553-0.447-1-1-1h-1.046c-0.322-3.775-2.493-6-5.954-6h-3c-5.888,0-9,3.458-9,10v20
		c0,10.916-4.448,16-14,16c-8.822,0-16-7.178-16-16V32c0-4.747,3.498-8.524,8.113-8.957C11.595,25.3,13.601,27,16,27
		c2.757,0,5-2.243,5-5c0-2.757-2.243-5-5-5c-2.43,0-4.456,1.744-4.903,4.044C5.368,21.491,1,26.138,1,32v10c0,9.925,8.075,18,18,18
		c10.617,0,16-6.056,16-18V22c0-7.171,3.995-8,7-8H45z"/>
</g>
</svg>
