<?xml version="1.0" encoding="utf-8"?>
<!-- Generator: Adobe Illustrator 17.0.0, SVG Export Plug-In . SVG Version: 6.00 Build 0)  -->
<!DOCTYPE svg PUBLIC "-//W3C//DTD SVG 1.1//EN" "http://www.w3.org/Graphics/SVG/1.1/DTD/svg11.dtd">
<svg version="1.1" id="Layer_2" xmlns="http://www.w3.org/2000/svg" xmlns:xlink="http://www.w3.org/1999/xlink" x="0px" y="0px"
	 width="60px" height="60px" viewBox="0 0 60 60" enable-background="new 0 0 60 60" xml:space="preserve">
<path fill="#010101" d="M58.618,17.214L48.616,9.355c-2.726-2.141-6.13-3.326-9.594-3.35C39.014,6.004,39.008,6,39,6h-0.084H23
	h-1.916c-3.501,0-6.946,1.191-9.7,3.355L1.382,17.214c-0.225,0.177-0.363,0.441-0.38,0.727c-0.018,0.285,0.089,0.564,0.291,0.767
	l8,8c0.391,0.391,1.023,0.391,1.414,0L15,22.414V53c0,0.553,0.447,1,1,1h28c0.553,0,1-0.447,1-1V22.414l4.293,4.293
	c0.391,0.391,1.023,0.391,1.414,0l8-8c0.202-0.202,0.309-0.482,0.291-0.767C58.981,17.655,58.843,17.391,58.618,17.214z M31,14
	c-3.521,0-6.442-2.612-6.929-6h13.857C37.442,11.388,34.52,14,31,14z"/>
</svg>
