<?xml version="1.0" encoding="utf-8"?>
<!-- Generator: Adobe Illustrator 17.0.0, SVG Export Plug-In . SVG Version: 6.00 Build 0)  -->
<!DOCTYPE svg PUBLIC "-//W3C//DTD SVG 1.1//EN" "http://www.w3.org/Graphics/SVG/1.1/DTD/svg11.dtd">
<svg version="1.1" id="Layer_2" xmlns="http://www.w3.org/2000/svg" xmlns:xlink="http://www.w3.org/1999/xlink" x="0px" y="0px"
	 width="60px" height="60px" viewBox="0 0 60 60" enable-background="new 0 0 60 60" xml:space="preserve">
<g>
	<path fill="#010101" d="M59,46H43.877c-0.822-6.255-1.482-11.625-2.065-16.378C38.804,5.103,38.178,0,30,0
		c-8.257,0-9.002,6.175-11.774,29.151c-0.59,4.883-1.255,10.4-2.103,16.849H1c-0.553,0-1,0.447-1,1c0,1.05,0.103,2.049,0.287,3
		h59.426C59.897,49.049,60,48.05,60,47C60,46.447,59.553,46,59,46z"/>
	<path fill="#010101" d="M13,60h34c5.955,0,10.404-3.072,12.165-8H0.835C2.596,56.928,7.045,60,13,60z"/>
</g>
</svg>
