<?xml version="1.0" encoding="utf-8"?>
<!-- Generator: Adobe Illustrator 17.0.0, SVG Export Plug-In . SVG Version: 6.00 Build 0)  -->
<!DOCTYPE svg PUBLIC "-//W3C//DTD SVG 1.1//EN" "http://www.w3.org/Graphics/SVG/1.1/DTD/svg11.dtd">
<svg version="1.1" id="Layer_2" xmlns="http://www.w3.org/2000/svg" xmlns:xlink="http://www.w3.org/1999/xlink" x="0px" y="0px"
	 width="60px" height="60px" viewBox="0 0 60 60" enable-background="new 0 0 60 60" xml:space="preserve">
<g>
	<path fill="#010101" d="M49,21H37c-1.126,0-2.194,0.458-3.063,1.168C33.644,20.145,32.249,19,30,19
		c-2.249,0-3.645,1.145-3.938,3.168C25.194,21.458,24.125,21,23,21H11c-4.188,0-7,4.137-7,8c0,6.841,5.159,12,12,12
		c6.841,0,12-5.159,12-12v-1v-2v-3c0-1.439,0.56-2,2-2c1.439,0,2,0.561,2,2v3v2v1c0,6.841,5.159,12,12,12c6.841,0,12-5.159,12-12
		C56,25.137,53.187,21,49,21z"/>
	<path fill="#010101" d="M6,20c0-0.553-0.447-1-1-1c-2.57,0-5,2.43-5,5c0,0.553,0.447,1,1,1c0.553,0,1-0.447,1-1
		c0-1.458,1.542-3,3-3C5.553,21,6,20.553,6,20z"/>
	<path fill="#010101" d="M55,19c-0.553,0-1,0.447-1,1c0,0.553,0.447,1,1,1c1.458,0,3,1.542,3,3c0,0.553,0.447,1,1,1
		c0.553,0,1-0.447,1-1C60,21.43,57.57,19,55,19z"/>
</g>
</svg>
