<?xml version="1.0" encoding="utf-8"?>
<!-- Generator: Adobe Illustrator 17.0.0, SVG Export Plug-In . SVG Version: 6.00 Build 0)  -->
<!DOCTYPE svg PUBLIC "-//W3C//DTD SVG 1.1//EN" "http://www.w3.org/Graphics/SVG/1.1/DTD/svg11.dtd">
<svg version="1.1" id="Layer_2" xmlns="http://www.w3.org/2000/svg" xmlns:xlink="http://www.w3.org/1999/xlink" x="0px" y="0px"
	 width="60px" height="60px" viewBox="0 0 60 60" enable-background="new 0 0 60 60" xml:space="preserve">
<g>
	<path fill="#010101" d="M59,51.03c-0.526,0-0.957,0.406-0.997,0.922c-0.569,0.812-4.885,1.865-12.845,2.488l0.52-5.41H14.322
		l0.52,5.41c-7.96-0.623-12.277-1.676-12.845-2.488C1.957,51.437,1.526,51.03,1,51.03c-0.553,0-1,0.447-1,1
		c0,1.359,1.182,2.89,9.942,3.947C15.241,56.617,22.364,56.97,30,56.97c7.636,0,14.759-0.353,20.058-0.992
		C58.818,54.92,60,53.389,60,52.03C60,51.478,59.553,51.03,59,51.03z"/>
	<path fill="#010101" d="M14.231,47.03h31.538c0.035,0,0.065,0.017,0.099,0.02l0.963-10.02H13.169l0.963,10.02
		C14.166,47.047,14.196,47.03,14.231,47.03z"/>
	<path fill="#010101" d="M46.923,35.03c0.035,0,0.065,0.017,0.099,0.02l2.973-30.924c0.027-0.28-0.065-0.559-0.255-0.768
		C49.551,3.15,49.282,3.03,49,3.03H11c-0.282,0-0.551,0.119-0.74,0.327c-0.189,0.209-0.282,0.488-0.255,0.768l2.971,30.904H46.923z"
		/>
</g>
</svg>
