<?xml version="1.0" encoding="utf-8"?>
<!-- Generator: Adobe Illustrator 17.0.0, SVG Export Plug-In . SVG Version: 6.00 Build 0)  -->
<!DOCTYPE svg PUBLIC "-//W3C//DTD SVG 1.1//EN" "http://www.w3.org/Graphics/SVG/1.1/DTD/svg11.dtd">
<svg version="1.1" id="Layer_2" xmlns="http://www.w3.org/2000/svg" xmlns:xlink="http://www.w3.org/1999/xlink" x="0px" y="0px"
	 width="60px" height="60px" viewBox="0 0 60 60" enable-background="new 0 0 60 60" xml:space="preserve">
<g>
	<path fill="#010101" d="M36,51c0,1.105,0.895,2,2,2c1.104,0,2-0.895,2-2V11c0-5.963-5.037-11-11-11c-5.963,0-11,5.037-11,11
		c0,1.105,0.895,2,2,2c1.104,0,2-0.895,2-2c0-3.794,3.206-7,7-7c3.794,0,7,3.206,7,7V51z"/>
	<path fill="#010101" d="M40,56h-4c-1.105,0-2,0.896-2,2c0,1.105,0.895,2,2,2h4c1.104,0,2-0.895,2-2C42,56.896,41.104,56,40,56z"/>
</g>
</svg>
