<?xml version="1.0" encoding="utf-8"?>
<!-- Generator: Adobe Illustrator 17.0.0, SVG Export Plug-In . SVG Version: 6.00 Build 0)  -->
<!DOCTYPE svg PUBLIC "-//W3C//DTD SVG 1.1//EN" "http://www.w3.org/Graphics/SVG/1.1/DTD/svg11.dtd">
<svg version="1.1" id="Layer_2" xmlns="http://www.w3.org/2000/svg" xmlns:xlink="http://www.w3.org/1999/xlink" x="0px" y="0px"
	 width="60px" height="60px" viewBox="0 0 60 60" enable-background="new 0 0 60 60" xml:space="preserve">
<g>
	<path fill="#010101" d="M28.294,41.919C27.215,41.971,26.118,42,25,42c-11.444,0-21.01-2.762-25-6.773V41c0,6.168,10.981,11,25,11
		c1.521,0,3.004-0.06,4.444-0.169C28.521,49.738,28,47.43,28,45C28,43.947,28.11,42.92,28.294,41.919z"/>
	<path fill="#010101" d="M50,28.753v-3.526c-1.025,1.03-2.414,1.979-4.111,2.818C47.31,28.119,48.691,28.349,50,28.753z"/>
	<path fill="#010101" d="M25,20c14.954,0,25-4.654,25-9C50,4.832,39.019,0,25,0C10.981,0,0,4.832,0,11C0,15.346,10.046,20,25,20z"/>
	<path fill="#010101" d="M25,40c1.301,0,2.562-0.037,3.786-0.104c1.111-3.522,3.349-6.541,6.279-8.661
		C31.967,31.728,28.577,32,25,32c-11.444,0-21.01-2.761-25-6.773V31C0,35.346,10.046,40,25,40z"/>
	<path fill="#010101" d="M25,30c14.954,0,25-4.654,25-9v-5.773C46.01,19.239,36.444,22,25,22c-11.444,0-21.01-2.761-25-6.773V21
		C0,25.346,10.046,30,25,30z"/>
	<path fill="#010101" d="M56.275,35.139L35.139,56.275C37.779,58.587,41.224,60,45,60c8.271,0,15-6.729,15-15
		C60,41.224,58.587,37.779,56.275,35.139z"/>
	<path fill="#010101" d="M45,30c-8.272,0-15,6.729-15,15c0,3.776,1.413,7.221,3.725,9.861l21.136-21.136
		C52.221,31.413,48.776,30,45,30z"/>
</g>
</svg>
