<?xml version="1.0" encoding="utf-8"?>
<!-- Generator: Adobe Illustrator 17.0.0, SVG Export Plug-In . SVG Version: 6.00 Build 0)  -->
<!DOCTYPE svg PUBLIC "-//W3C//DTD SVG 1.1//EN" "http://www.w3.org/Graphics/SVG/1.1/DTD/svg11.dtd">
<svg version="1.1" id="Layer_2" xmlns="http://www.w3.org/2000/svg" xmlns:xlink="http://www.w3.org/1999/xlink" x="0px" y="0px"
	 width="60px" height="60px" viewBox="0 0 60 60" enable-background="new 0 0 60 60" xml:space="preserve">
<g>
	<path fill="none" d="M35.119,55.614c2.591,2.659,6.195,4.333,10.191,4.385l0.065,0l-0.064,0
		C41.314,59.947,37.71,58.274,35.119,55.614z"/>
	<path fill="none" d="M32.335,51.535c0.052,0.113,0.103,0.227,0.158,0.339C32.438,51.762,32.387,51.648,32.335,51.535L32.335,51.535
		z"/>
	<path fill="none" d="M59.999,45.688L59.999,45.688c0.075-5.814-3.307-10.87-8.228-13.244l0,0
		C56.692,34.819,60.074,39.875,59.999,45.688z"/>
	<path fill="none" d="M32.921,52.676c-0.084-0.147-0.179-0.287-0.258-0.436C32.743,52.389,32.837,52.529,32.921,52.676z"/>
	<path fill="none" d="M47.103,59.905c-0.046,0.005-0.091,0.016-0.137,0.021C47.013,59.921,47.057,59.91,47.103,59.905z"/>
	<path fill="none" d="M45.503,60h0.002c0.192,0,0.38-0.021,0.571-0.029C45.884,59.979,45.696,60,45.503,60z"/>
	<path fill="#010101" d="M43.249,29.173C43.987,29.071,44.733,29,45.496,29l0.21,0.001c1.49,0.02,2.925,0.254,4.294,0.644v-4.418
		C48.485,26.75,46.17,28.094,43.249,29.173z"/>
	<path fill="#010101" d="M25,20c14.954,0,25-4.654,25-9C50,4.832,39.018,0,25,0C10.981,0,0,4.832,0,11C0,15.346,10.046,20,25,20z"/>
	<path fill="#010101" d="M29.001,45.286c0.015-1.177,0.162-2.322,0.415-3.428C27.981,41.95,26.508,42,25,42
		c-11.444,0-21.01-2.762-25-6.773V41c0,6.168,10.981,11,25,11c1.803,0,3.554-0.081,5.239-0.234
		C29.415,49.769,28.971,47.579,29.001,45.286z"/>
	<path fill="#010101" d="M25,30c14.954,0,25-4.654,25-9v-5.773C46.009,19.239,36.444,22,25,22c-11.444,0-21.01-2.761-25-6.773V21
		C0,25.346,10.046,30,25,30z"/>
	<path fill="#010101" d="M25,40c1.75,0,3.43-0.066,5.038-0.186c1.522-4.098,4.624-7.434,8.557-9.268C34.623,31.472,29.992,32,25,32
		c-11.444,0-21.01-2.761-25-6.773V31C0,35.346,10.046,40,25,40z"/>
	<path fill="#010101" d="M46.966,59.926c0.046-0.005,0.091-0.016,0.137-0.021c7.15-0.799,12.8-6.867,12.895-14.217
		c0.075-5.813-3.307-10.87-8.228-13.243c-0.6-0.29-1.217-0.549-1.86-0.755l0,0c-1.334-0.427-2.751-0.67-4.222-0.689L45.491,31
		c-7.886,0-14.388,6.42-14.49,14.312c-0.029,2.222,0.461,4.327,1.334,6.223l0,0c0.052,0.113,0.103,0.227,0.158,0.339
		c0.06,0.121,0.108,0.247,0.171,0.366c0.079,0.15,0.174,0.29,0.258,0.436c0.612,1.069,1.344,2.061,2.198,2.938
		c2.591,2.659,6.195,4.333,10.192,4.385l0.064,0L45.503,60c0.193,0,0.381-0.021,0.572-0.029
		C46.373,59.959,46.673,59.956,46.966,59.926z M36.058,48.578l5.2,0.067c0.553,0.007,0.994,0.461,0.987,1.013
		c-0.007,0.552-0.476,0.945-1.013,0.987l-2.441-0.032c1.555,2.049,3.95,3.302,6.598,3.336c2.276,0.02,4.391-0.821,6.008-2.397
		c1.616-1.575,2.522-3.686,2.552-5.942l2,0.025c-0.036,2.792-1.157,5.401-3.156,7.349c-1.966,1.915-4.55,2.966-7.289,2.966
		c-0.047,0-0.094,0-0.14-0.001c-2.848-0.037-5.459-1.216-7.359-3.185l-0.014,1.039c-0.007,0.548-0.453,0.987-1,0.987
		c-0.004,0-0.009,0-0.013,0c-0.553-0.007-0.994-0.461-0.987-1.013L36.058,48.578z M55.021,36.172l-0.08,6.25l-6.25-0.082
		c-0.553-0.007-0.994-0.461-0.987-1.013c0.007-0.548,0.453-0.987,1-0.987c0.004,0,0.009,0,0.013,0l3.49,0.045
		c-1.555-2.049-3.951-3.301-6.597-3.336c-2.277-0.037-4.391,0.822-6.008,2.397c-1.616,1.575-2.522,3.686-2.552,5.942l-2-0.025
		c0.036-2.792,1.157-5.401,3.156-7.349c1.966-1.915,4.55-2.966,7.289-2.966c0.047,0,0.094,0,0.14,0.001
		c2.847,0.037,5.458,1.216,7.359,3.186l0.027-2.089c0.007-0.552,0.453-1.035,1.013-0.987C54.587,35.167,55.028,35.62,55.021,36.172z
		"/>
</g>
</svg>
