<?xml version="1.0" encoding="utf-8"?>
<!-- Generator: Adobe Illustrator 17.0.0, SVG Export Plug-In . SVG Version: 6.00 Build 0)  -->
<!DOCTYPE svg PUBLIC "-//W3C//DTD SVG 1.1//EN" "http://www.w3.org/Graphics/SVG/1.1/DTD/svg11.dtd">
<svg version="1.1" id="Layer_2" xmlns="http://www.w3.org/2000/svg" xmlns:xlink="http://www.w3.org/1999/xlink" x="0px" y="0px"
	 width="60px" height="60px" viewBox="0 0 60 60" enable-background="new 0 0 60 60" xml:space="preserve">
<g>
	<path fill="#010101" d="M5,29.227V35c0,4.346,10.046,9,25,9s25-4.654,25-9v-5.773C51.01,33.238,41.444,36,30,36
		S8.99,33.238,5,29.227z"/>
	<path fill="#010101" d="M5,39.227V45c0,6.168,10.981,11,25,11s25-4.832,25-11v-5.773C51.01,43.238,41.444,46,30,46
		S8.99,43.238,5,39.227z"/>
	<path fill="#010101" d="M5,19.227V25c0,4.346,10.046,9,25,9s25-4.654,25-9v-5.773C51.01,23.239,41.444,26,30,26
		S8.99,23.239,5,19.227z"/>
	<path fill="#010101" d="M30,24c14.954,0,25-4.654,25-9C55,8.832,44.019,4,30,4S5,8.832,5,15C5,19.346,15.046,24,30,24z"/>
</g>
</svg>
