<?xml version="1.0" encoding="utf-8"?>
<!-- Generator: Adobe Illustrator 17.0.0, SVG Export Plug-In . SVG Version: 6.00 Build 0)  -->
<!DOCTYPE svg PUBLIC "-//W3C//DTD SVG 1.1//EN" "http://www.w3.org/Graphics/SVG/1.1/DTD/svg11.dtd">
<svg version="1.1" id="Layer_2" xmlns="http://www.w3.org/2000/svg" xmlns:xlink="http://www.w3.org/1999/xlink" x="0px" y="0px"
	 width="60px" height="60px" viewBox="0 0 60 60" enable-background="new 0 0 60 60" xml:space="preserve">
<g>
	<path fill="#010101" d="M25,40c2.182,0,4.257-0.102,6.214-0.284c0.677-3.797,3.004-7.021,6.215-8.913
		C33.727,31.568,29.511,32,25,32c-11.444,0-21.01-2.761-25-6.773V31C0,35.346,10.046,40,25,40z"/>
	<path fill="#010101" d="M44.002,29c2.164,0,4.201,0.539,5.998,1.479v-5.252c-1.444,1.452-3.62,2.739-6.35,3.791
		C43.768,29.015,43.883,29,44.002,29z"/>
	<path fill="#010101" d="M31.014,41.734C29.084,41.906,27.074,42,25,42c-11.444,0-21.01-2.761-25-6.773V41c0,6.169,10.981,11,25,11
		c3.49,0,6.791-0.3,9.782-0.845C32.446,48.804,31,45.569,31,42.001C31,41.911,31.012,41.824,31.014,41.734z"/>
	<path fill="#010101" d="M25,20c14.954,0,25-4.654,25-9C50,4.832,39.019,0,25,0C10.981,0,0,4.832,0,11C0,15.346,10.046,20,25,20z"/>
	<path fill="#010101" d="M25,30c14.954,0,25-4.654,25-9v-5.773C46.01,19.239,36.444,22,25,22c-11.444,0-21.01-2.761-25-6.773V21
		C0,25.346,10.046,30,25,30z"/>
	<path fill="#010101" d="M59.707,58.293l-6.825-6.825l-1.413-1.413C53.634,48.044,55,45.183,55,42.001
		C55,35.935,50.066,31,44.002,31C37.935,31,33,35.935,33,42.001c0,6.065,4.935,11,11.002,11c2.16,0,4.169-0.635,5.871-1.714
		l1.448,1.448l6.972,6.972C58.488,59.902,58.744,60,59,60c0.256,0,0.512-0.098,0.707-0.293
		C60.098,59.316,60.098,58.684,59.707,58.293z M44.002,51.001c-4.964,0-9.002-4.038-9.002-9C35,37.038,39.038,33,44.002,33
		C48.964,33,53,37.038,53,42.001C53,46.963,48.964,51.001,44.002,51.001z"/>
</g>
</svg>
