<?xml version="1.0" encoding="utf-8"?>
<!-- Generator: Adobe Illustrator 17.0.0, SVG Export Plug-In . SVG Version: 6.00 Build 0)  -->
<!DOCTYPE svg PUBLIC "-//W3C//DTD SVG 1.1//EN" "http://www.w3.org/Graphics/SVG/1.1/DTD/svg11.dtd">
<svg version="1.1" id="Layer_2" xmlns="http://www.w3.org/2000/svg" xmlns:xlink="http://www.w3.org/1999/xlink" x="0px" y="0px"
	 width="60px" height="60px" viewBox="0 0 60 60" enable-background="new 0 0 60 60" xml:space="preserve">
<g>
	<path fill="#010101" d="M49.763,32.133C49.91,31.755,49.99,31.376,49.99,31v-5.773c-0.688,0.691-1.537,1.346-2.537,1.956
		L49.763,32.133z"/>
	<path fill="#010101" d="M24.99,20c14.954,0,25-4.654,25-9c0-6.168-10.981-11-25-11S0,4.832,0,11C0,15.346,10.036,20,24.99,20z"/>
	<path fill="#010101" d="M24.99,30c7.111,0,13.109-1.053,17.447-2.625l1.646-3.528c0.164-0.352,0.518-0.577,0.906-0.577
		c0.389,0,0.742,0.225,0.906,0.577l0.724,1.552c2.176-1.368,3.369-2.902,3.369-4.4v-5.773C46,19.239,36.435,22,24.99,22
		S3.99,19.239,0,15.227V21C0,25.346,10.036,30,24.99,30z"/>
	<path fill="#010101" d="M24.99,40c4.529,0,8.604-0.429,12.09-1.145l4.214-9.029C36.793,31.196,31.165,32,24.99,32
		c-11.444,0-21-2.761-24.99-6.773V31C0,35.346,10.036,40,24.99,40z"/>
	<path fill="#010101" d="M36.048,41.067C32.688,41.666,28.954,42,24.99,42c-11.444,0-21-2.762-24.99-6.773V41
		c0,6.168,10.972,11,24.99,11c2.114,0,4.156-0.112,6.105-0.319L36.048,41.067z"/>
	<path fill="#010101" d="M59.966,58.726l-0.142-0.305c-0.002-0.003-0.003-0.006-0.005-0.009L49.99,37.35l-0.693-1.484v0
		l-0.867-1.858l-2.741-5.873c-0.04,0.019-0.081,0.038-0.122,0.057C45.402,28.073,45.203,28,44.99,28
		c-0.389,0-0.742,0.225-0.906,0.577l-4.525,9.697l-1.071,2.295l-5.043,10.807h0l-3.361,7.201c-0.145,0.31-0.121,0.672,0.062,0.96
		C30.33,59.826,30.648,60,30.99,60h28c0.008,0,0.015,0,0.02,0c0.553,0,1-0.448,1-1C60.01,58.904,59.991,58.814,59.966,58.726z
		 M44.99,54c-0.553,0-1-0.447-1-1s0.447-1,1-1c0.553,0,1,0.447,1,1S45.543,54,44.99,54z M45.99,49.371c0,0.552-0.447,1-1,1
		c-0.553,0-1-0.448-1-1v-8.252c0-0.552,0.447-1,1-1c0.553,0,1,0.448,1,1V49.371z"/>
</g>
</svg>
