<?xml version="1.0" encoding="utf-8"?>
<!-- Generator: Adobe Illustrator 17.0.0, SVG Export Plug-In . SVG Version: 6.00 Build 0)  -->
<!DOCTYPE svg PUBLIC "-//W3C//DTD SVG 1.1//EN" "http://www.w3.org/Graphics/SVG/1.1/DTD/svg11.dtd">
<svg version="1.1" id="Layer_2" xmlns="http://www.w3.org/2000/svg" xmlns:xlink="http://www.w3.org/1999/xlink" x="0px" y="0px"
	 width="60px" height="60px" viewBox="0 0 60 60" enable-background="new 0 0 60 60" xml:space="preserve">
<g>
	<path fill="#010101" d="M47,34c-1.825,0-3.106,1.355-3.671,3.04c2.087-0.834,3.739-1.792,4.874-2.806
		C47.831,34.094,47.435,34,47,34z"/>
	<path fill="#010101" d="M47,28c1.05,0,2.056,0.176,3,0.492v-3.265c-1.04,1.046-2.457,2.007-4.19,2.855C46.2,28.033,46.596,28,47,28
		z"/>
	<path fill="#010101" d="M45.977,38H50v-2.318c-0.063-0.091-0.131-0.176-0.199-0.261C48.817,36.358,47.528,37.225,45.977,38z"/>
	<path fill="#010101" d="M25,30c14.954,0,25-4.654,25-9v-5.773C46.01,19.239,36.444,22,25,22c-11.444,0-21.01-2.761-25-6.773V21
		C0,25.346,10.046,30,25,30z"/>
	<path fill="#010101" d="M37.039,38c0.274-3.493,1.975-6.465,4.475-8.241C36.977,31.169,31.272,32,25,32
		c-11.444,0-21.01-2.761-25-6.773V31c0,4.346,10.046,9,25,9c2.615,0,5.077-0.145,7.365-0.403C32.87,38.652,33.855,38,35,38H37.039z"
		/>
	<path fill="#010101" d="M25,20c14.954,0,25-4.654,25-9C50,4.832,39.019,0,25,0C10.981,0,0,4.832,0,11C0,15.346,10.046,20,25,20z"/>
	<path fill="#010101" d="M0,35.227V41c0,6.168,10.981,11,25,11c2.44,0,4.786-0.149,7-0.424V41.64C29.774,41.874,27.43,42,25,42
		C13.556,42,3.99,39.238,0,35.227z"/>
	<path fill="#010101" d="M59,40h-4v-1c0-2.943-1.2-5.507-3.086-7.139c-0.56-0.485-1.177-0.89-1.846-1.194
		c-0.022-0.01-0.045-0.018-0.067-0.027C49.077,30.23,48.067,30,47,30c-4.31,0-7.713,3.652-7.975,8.413h0
		C39.015,38.608,39,38.801,39,39v1h-4c-0.552,0-1,0.449-1,1v18c0,0.551,0.448,1,1,1h24c0.552,0,1-0.449,1-1V41
		C60,40.449,59.552,40,59,40z M48,49.722v4.235c0,0.552-0.447,1-1,1c-0.553,0-1-0.448-1-1v-4.235c-0.595-0.347-1-0.985-1-1.722
		c0-1.103,0.897-2,2-2c1.102,0,2,0.897,2,2C49,48.737,48.595,49.375,48,49.722z M53,40H41v-1c0-3.011,1.718-6.112,4.664-6.84
		C46.085,32.056,46.53,32,47,32c0.469,0,0.915,0.056,1.336,0.16C51.282,32.888,53,35.989,53,39V40z"/>
	<polygon fill="#010101" points="47.001,48 47.001,48 47,48 	"/>
</g>
</svg>
