<?xml version="1.0" encoding="utf-8"?>
<!-- Generator: Adobe Illustrator 17.0.0, SVG Export Plug-In . SVG Version: 6.00 Build 0)  -->
<!DOCTYPE svg PUBLIC "-//W3C//DTD SVG 1.1//EN" "http://www.w3.org/Graphics/SVG/1.1/DTD/svg11.dtd">
<svg version="1.1" id="Layer_2" xmlns="http://www.w3.org/2000/svg" xmlns:xlink="http://www.w3.org/1999/xlink" x="0px" y="0px"
	 width="60px" height="60px" viewBox="0 0 60 60" enable-background="new 0 0 60 60" xml:space="preserve">
<g>
	<path fill="#010101" d="M50,25.227c-0.031,0.031-0.058,0.063-0.089,0.093c0.029,0.012,0.06,0.021,0.089,0.033V25.227z"/>
	<path fill="#010101" d="M25,20c14.954,0,25-4.654,25-9C50,4.832,39.019,0,25,0C10.981,0,0,4.832,0,11C0,15.346,10.046,20,25,20z"/>
	<path fill="#010101" d="M24.262,39.993c0.475-2.965,1.63-5.7,3.312-8.042C26.727,31.982,25.87,32,25,32
		c-11.444,0-21.01-2.761-25-6.773V31C0,35.274,9.718,39.842,24.262,39.993z"/>
	<path fill="#010101" d="M24.051,41.991C13.029,41.842,3.879,39.127,0,35.227V41c0,6.168,10.981,11,25,11
		c0.425,0,0.847-0.005,1.266-0.014C24.823,49.309,24,46.249,24,43C24,42.659,24.033,42.327,24.051,41.991z"/>
	<path fill="#010101" d="M25,30c1.486,0,2.92-0.048,4.304-0.135C32.764,26.258,37.619,24,43,24c1.639,0,3.221,0.23,4.739,0.623
		C49.208,23.464,50,22.22,50,21v-5.773C46.01,19.239,36.444,22,25,22c-11.444,0-21.01-2.761-25-6.773V21C0,25.346,10.046,30,25,30z"
		/>
	<path fill="#010101" d="M43,26c-9.374,0-17,7.626-17,17s7.626,17,17,17s17-7.626,17-17S52.374,26,43,26z M49,44h-7V33
		c0-0.552,0.447-1,1-1c0.553,0,1,0.448,1,1v9h5c0.553,0,1,0.448,1,1S49.553,44,49,44z"/>
</g>
</svg>
