<?xml version="1.0" encoding="utf-8"?>
<!-- Generator: Adobe Illustrator 17.0.0, SVG Export Plug-In . SVG Version: 6.00 Build 0)  -->
<!DOCTYPE svg PUBLIC "-//W3C//DTD SVG 1.1//EN" "http://www.w3.org/Graphics/SVG/1.1/DTD/svg11.dtd">
<svg version="1.1" id="Layer_2" xmlns="http://www.w3.org/2000/svg" xmlns:xlink="http://www.w3.org/1999/xlink" x="0px" y="0px"
	 width="60px" height="60px" viewBox="0 0 60 60" enable-background="new 0 0 60 60" xml:space="preserve">
<g>
	<path fill="#010101" d="M45.889,28.045c1.422,0.074,2.802,0.304,4.111,0.708v-3.526C48.975,26.257,47.586,27.206,45.889,28.045z"/>
	<path fill="#010101" d="M28,45c0-1.053,0.11-2.08,0.294-3.081C27.215,41.971,26.118,42,25,42c-11.444,0-21.01-2.761-25-6.773V41
		c0,6.169,10.981,11,25,11c1.521,0,3.004-0.06,4.444-0.169C28.521,49.738,28,47.43,28,45z"/>
	<path fill="#010101" d="M25,20c14.954,0,25-4.654,25-9C50,4.832,39.019,0,25,0C10.981,0,0,4.832,0,11C0,15.346,10.046,20,25,20z"/>
	<path fill="#010101" d="M25,30c14.954,0,25-4.654,25-9v-5.773C46.01,19.239,36.444,22,25,22c-11.444,0-21.01-2.761-25-6.773V21
		C0,25.346,10.046,30,25,30z"/>
	<path fill="#010101" d="M25,40c1.301,0,2.562-0.037,3.786-0.104c1.111-3.523,3.349-6.541,6.279-8.661
		C31.967,31.728,28.577,32,25,32c-11.444,0-21.01-2.761-25-6.773V31C0,35.346,10.046,40,25,40z"/>
	<path fill="#010101" d="M45,30c-8.272,0-15,6.729-15,15s6.728,15,15,15c8.271,0,15-6.729,15-15S53.271,30,45,30z M46.414,45
		l5.293,5.293c0.391,0.391,0.391,1.023,0,1.414C51.512,51.902,51.256,52,51,52c-0.256,0-0.512-0.098-0.707-0.293L45,46.414
		l-5.293,5.293C39.512,51.902,39.256,52,39,52c-0.256,0-0.512-0.098-0.707-0.293c-0.391-0.391-0.391-1.023,0-1.414L43.586,45
		l-5.293-5.293c-0.391-0.391-0.391-1.023,0-1.414c0.391-0.391,1.023-0.391,1.414,0L45,43.586l5.293-5.293
		c0.391-0.391,1.023-0.391,1.414,0c0.391,0.391,0.391,1.023,0,1.414L46.414,45z"/>
</g>
</svg>
