<?xml version="1.0" encoding="utf-8"?>
<!-- Generator: Adobe Illustrator 17.0.0, SVG Export Plug-In . SVG Version: 6.00 Build 0)  -->
<!DOCTYPE svg PUBLIC "-//W3C//DTD SVG 1.1//EN" "http://www.w3.org/Graphics/SVG/1.1/DTD/svg11.dtd">
<svg version="1.1" id="Layer_2" xmlns="http://www.w3.org/2000/svg" xmlns:xlink="http://www.w3.org/1999/xlink" x="0px" y="0px"
	 width="60px" height="60px" viewBox="0 0 60 60" enable-background="new 0 0 60 60" xml:space="preserve">
<g>
	<path fill="#010101" d="M50,28.753v-3.526c-1.025,1.03-2.414,1.979-4.111,2.818C47.31,28.119,48.691,28.349,50,28.753z"/>
	<path fill="#010101" d="M28.294,41.919C27.215,41.971,26.118,42,25,42c-11.444,0-21.01-2.761-25-6.773V41c0,6.169,10.981,11,25,11
		c1.521,0,3.004-0.06,4.444-0.169C28.521,49.738,28,47.43,28,45C28,43.947,28.11,42.92,28.294,41.919z"/>
	<path fill="#010101" d="M25,40c1.301,0,2.562-0.037,3.786-0.104c1.111-3.523,3.349-6.541,6.279-8.661
		C31.967,31.728,28.577,32,25,32c-11.444,0-21.01-2.761-25-6.773V31C0,35.346,10.046,40,25,40z"/>
	<path fill="#010101" d="M25,30c14.954,0,25-4.654,25-9v-5.773C46.01,19.239,36.444,22,25,22c-11.444,0-21.01-2.761-25-6.773V21
		C0,25.346,10.046,30,25,30z"/>
	<path fill="#010101" d="M25,20c14.954,0,25-4.654,25-9C50,4.832,39.019,0,25,0C10.981,0,0,4.832,0,11C0,15.346,10.046,20,25,20z"/>
	<path fill="#010101" d="M45,30c-8.272,0-15,6.729-15,15s6.728,15,15,15c8.271,0,15-6.729,15-15S53.271,30,45,30z M51.707,44.707
		c-0.391,0.391-1.023,0.391-1.414,0L46,40.414v11.341c0,0.552-0.447,1-1,1c-0.553,0-1-0.448-1-1V40.762l-3.231,3.878
		C40.57,44.877,40.286,45,39.999,45c-0.226,0-0.452-0.076-0.64-0.232c-0.424-0.354-0.482-0.984-0.128-1.408l5.701-6.841l0.774,0.774
		c0.001,0.001,0.001,0.001,0.002,0.002l5.999,5.999C52.098,43.684,52.098,44.316,51.707,44.707z"/>
</g>
</svg>
