<?xml version="1.0" encoding="utf-8"?>
<!-- Generator: Adobe Illustrator 17.0.0, SVG Export Plug-In . SVG Version: 6.00 Build 0)  -->
<!DOCTYPE svg PUBLIC "-//W3C//DTD SVG 1.1//EN" "http://www.w3.org/Graphics/SVG/1.1/DTD/svg11.dtd">
<svg version="1.1" id="Layer_2" xmlns="http://www.w3.org/2000/svg" xmlns:xlink="http://www.w3.org/1999/xlink" x="0px" y="0px"
	 width="60px" height="60px" viewBox="0 0 60 60" enable-background="new 0 0 60 60" xml:space="preserve">
<g>
	<path fill="#010101" d="M45.5,29c1.561,0,3.067,0.232,4.5,0.64v-4.413c-1.514,1.522-3.827,2.865-6.744,3.944
		C43.991,29.07,44.737,29,45.5,29z"/>
	<path fill="#010101" d="M29.419,41.857C27.983,41.95,26.509,42,25,42c-11.444,0-21.01-2.762-25-6.773V41c0,6.168,10.981,11,25,11
		c1.804,0,3.557-0.082,5.244-0.234C29.446,49.832,29,47.718,29,45.5C29,44.247,29.153,43.031,29.419,41.857z"/>
	<path fill="#010101" d="M25,40c1.748,0,3.425-0.066,5.03-0.185c1.51-4.094,4.59-7.422,8.516-9.257C34.586,31.476,29.972,32,25,32
		c-11.444,0-21.01-2.761-25-6.773V31C0,35.346,10.046,40,25,40z"/>
	<path fill="#010101" d="M25,30c14.954,0,25-4.654,25-9v-5.773C46.01,19.239,36.444,22,25,22c-11.444,0-21.01-2.761-25-6.773V21
		C0,25.346,10.046,30,25,30z"/>
	<path fill="#010101" d="M25,20c14.954,0,25-4.654,25-9C50,4.832,39.019,0,25,0C10.981,0,0,4.832,0,11C0,15.346,10.046,20,25,20z"/>
	<path fill="#010101" d="M45.5,31C37.505,31,31,37.505,31,45.5S37.505,60,45.5,60C53.495,60,60,53.495,60,45.5S53.495,31,45.5,31z
		 M54.563,43.259c-0.013,0.051-0.042,0.092-0.062,0.139c-0.018,0.043-0.032,0.086-0.056,0.126c-0.047,0.078-0.106,0.143-0.17,0.205
		c-0.022,0.021-0.038,0.047-0.062,0.066c-0.095,0.076-0.204,0.131-0.32,0.168c-0.007,0.002-0.012,0.008-0.019,0.01
		c-0.028,0.008-0.054,0.001-0.082,0.007c-0.066,0.014-0.129,0.033-0.197,0.033c-0.025,0-0.051-0.008-0.076-0.009
		c-0.031-0.002-0.06-0.006-0.09-0.011c-0.027-0.005-0.054-0.003-0.082-0.01l-4.873-1.241c-0.535-0.136-0.858-0.681-0.722-1.216
		c0.137-0.536,0.681-0.859,1.216-0.723l2.91,0.741c-0.713-1.234-1.743-2.259-3.024-2.962c-1.848-1.015-3.981-1.247-6.001-0.659
		c-2.025,0.59-3.699,1.933-4.714,3.78c-1.014,1.848-1.248,3.98-0.658,6.004c0.59,2.023,1.932,3.696,3.78,4.71
		c1.849,1.015,3.98,1.248,6.005,0.658c0.531-0.157,1.085,0.15,1.239,0.68c0.154,0.53-0.15,1.085-0.681,1.24
		c-0.917,0.267-1.852,0.399-2.78,0.399c-1.642,0-3.267-0.413-4.745-1.224c-2.317-1.271-4-3.368-4.738-5.904
		c-0.739-2.537-0.446-5.21,0.825-7.526c1.271-2.316,3.369-3.999,5.907-4.738c2.533-0.74,5.206-0.447,7.522,0.825
		c1.435,0.788,2.625,1.893,3.5,3.223l0.55-2.16c0.136-0.536,0.68-0.858,1.216-0.723c0.535,0.136,0.858,0.681,0.722,1.216
		L54.563,43.259z"/>
</g>
</svg>
