<?xml version="1.0" encoding="utf-8"?>
<!-- Generator: Adobe Illustrator 17.0.0, SVG Export Plug-In . SVG Version: 6.00 Build 0)  -->
<!DOCTYPE svg PUBLIC "-//W3C//DTD SVG 1.1//EN" "http://www.w3.org/Graphics/SVG/1.1/DTD/svg11.dtd">
<svg version="1.1" id="Layer_1" xmlns="http://www.w3.org/2000/svg" xmlns:xlink="http://www.w3.org/1999/xlink" x="0px" y="0px"
	 width="60px" height="60px" viewBox="0 0 60 60" enable-background="new 0 0 60 60" xml:space="preserve">
<g>
	<path fill="#231F20" d="M59,58H1c-0.552,0-1,0.448-1,1c0,0.552,0.448,1,1,1h58c0.552,0,1-0.448,1-1C60,58.448,59.552,58,59,58z"/>
	<path fill="#231F20" d="M26,5c-2.205,0-10,1.156-10,4.826c0,0.552,0.448,1,1,1s1-0.448,1-1C18,8.543,22.914,7,26,7
		c0.552,0,1-0.448,1-1C27,5.448,26.552,5,26,5z"/>
	<path fill="#231F20" d="M59,52h-3v-5c0-0.552-0.448-1-1-1h-3V22h5c0.552,0,1-0.448,1-1v-6c0-0.552-0.448-1-1-1h-3.039
		C53.149,1.394,37.034,0,30,0S6.851,1.394,6.039,14H3c-0.552,0-1,0.448-1,1v6c0,0.552,0.448,1,1,1h5v24H5c-0.552,0-1,0.448-1,1v5H1
		c-0.552,0-1,0.448-1,1c0,0.552,0.448,1,1,1h4h50h4c0.552,0,1-0.448,1-1C60,52.448,59.552,52,59,52z M50,46h-2V22h2V46z M40,46V22h6
		v24H40z M36,46V22h2v24H36z M26,46V22h8v24H26z M22,46V22h2v24H22z M14,46V22h6v24H14z M30,2c17.88,0,21.552,7.106,21.959,12H8.041
		C8.448,9.106,12.12,2,30,2z M4,16h3h46h3v4h-5H9H4V16z M10,22h2v24h-2V22z M6,52v-4h3h42h3v4H6z"/>
</g>
</svg>
