<?xml version="1.0" encoding="utf-8"?>
<!-- Generator: Adobe Illustrator 17.0.0, SVG Export Plug-In . SVG Version: 6.00 Build 0)  -->
<!DOCTYPE svg PUBLIC "-//W3C//DTD SVG 1.1//EN" "http://www.w3.org/Graphics/SVG/1.1/DTD/svg11.dtd">
<svg version="1.1" id="Layer_1" xmlns="http://www.w3.org/2000/svg" xmlns:xlink="http://www.w3.org/1999/xlink" x="0px" y="0px"
	 width="60px" height="60px" viewBox="0 0 60 60" enable-background="new 0 0 60 60" xml:space="preserve">
<g>
	<path fill="#231F20" d="M59,41H44.677l-7.46-18.65l10.616-4.208c0.247-0.098,0.444-0.29,0.549-0.533l1.018-2.354l2.355,1.018
		c0.244,0.105,0.519,0.109,0.766,0.012l5.859-2.324c0.513-0.204,0.764-0.784,0.561-1.298l-0.928-2.344
		C55.778,4.677,50.389,1.57,42.84,1.57c-4.001,0-8.488,0.903-13.033,2.597l-0.569-1.434c-0.204-0.514-0.785-0.766-1.298-0.561
		c-0.513,0.204-0.765,0.785-0.561,1.298l0.571,1.439c-5.935,2.496-10.823,5.947-13.809,9.801c-3.495,4.51-4.369,9.351-2.527,13.997
		l0.928,2.345c0.098,0.247,0.289,0.444,0.533,0.55c0.126,0.055,0.262,0.082,0.397,0.082c0.125,0,0.25-0.023,0.369-0.07l5.861-2.323
		c0.247-0.098,0.444-0.29,0.549-0.533l1.018-2.356l2.357,1.019c0.244,0.105,0.519,0.109,0.766,0.012l10.967-4.347l7.186,17.965
		c-7.03,0.495-12.219,4.439-14.207,6.2c-0.414,0.366-0.452,0.998-0.085,1.412C28.449,48.886,28.724,49,29,49
		c0.235,0,0.472-0.083,0.663-0.251c1.951-1.728,7.253-5.748,14.335-5.748C43.999,43,44,43,44,43c0.001,0,0.002,0,0.003,0H59
		c0.552,0,1-0.448,1-1S59.552,41,59,41z M24.038,25.422l-2.895-1.252c-0.243-0.105-0.519-0.109-0.766-0.012
		c-0.246,0.098-0.444,0.29-0.549,0.533l-1.25,2.894l-4.546,1.802l-0.56-1.415c-1.979-4.995,0.13-9.302,2.249-12.036
		c2.926-3.775,7.857-7.17,13.886-9.559C34.238,4.541,38.814,3.57,42.84,3.57c6.673,0,11.402,2.658,13.315,7.484l0.56,1.415
		l-4.546,1.802l-2.893-1.25c-0.243-0.105-0.519-0.109-0.766-0.012c-0.247,0.098-0.444,0.289-0.549,0.533l-1.249,2.892L24.038,25.422
		z"/>
	<path fill="#231F20" d="M59,57c-1.654,0-3-1.346-3-3c0-0.552-0.448-1-1-1s-1,0.448-1,1c0,1.654-1.346,3-3,3s-3-1.346-3-3
		c0-0.552-0.448-1-1-1s-1,0.448-1,1c0,1.654-1.346,3-3,3s-3-1.346-3-3c0-0.552-0.448-1-1-1s-1,0.448-1,1c0,1.654-1.346,3-3,3
		s-3-1.346-3-3c0-0.552-0.448-1-1-1s-1,0.448-1,1c0,1.654-1.346,3-3,3s-3-1.346-3-3c0-0.552-0.448-1-1-1s-1,0.448-1,1
		c0,1.654-1.346,3-3,3s-3-1.346-3-3c0-0.552-0.448-1-1-1s-1,0.448-1,1c0,1.654-1.346,3-3,3s-3-1.346-3-3c0-0.552-0.448-1-1-1
		s-1,0.448-1,1c0,1.654-1.346,3-3,3c-0.509,0-1.012-0.129-1.454-0.375c-0.482-0.269-1.092-0.094-1.359,0.39
		c-0.268,0.483-0.093,1.092,0.39,1.359C1.314,58.784,2.153,59,3,59c1.634,0,3.087-0.788,4-2.003C7.913,58.212,9.366,59,11,59
		s3.087-0.788,4-2.003C15.913,58.212,17.366,59,19,59s3.087-0.788,4-2.003C23.913,58.212,25.366,59,27,59s3.087-0.788,4-2.003
		C31.913,58.212,33.366,59,35,59s3.087-0.788,4-2.003C39.913,58.212,41.366,59,43,59s3.087-0.788,4-2.003
		C47.913,58.212,49.366,59,51,59s3.087-0.788,4-2.003C55.913,58.212,57.366,59,59,59c0.552,0,1-0.448,1-1S59.552,57,59,57z"/>
</g>
</svg>
