<?xml version="1.0" encoding="utf-8"?>
<!-- Generator: Adobe Illustrator 17.0.0, SVG Export Plug-In . SVG Version: 6.00 Build 0)  -->
<!DOCTYPE svg PUBLIC "-//W3C//DTD SVG 1.1//EN" "http://www.w3.org/Graphics/SVG/1.1/DTD/svg11.dtd">
<svg version="1.1" id="Layer_1" xmlns="http://www.w3.org/2000/svg" xmlns:xlink="http://www.w3.org/1999/xlink" x="0px" y="0px"
	 width="60px" height="60px" viewBox="0 0 60 60" enable-background="new 0 0 60 60" xml:space="preserve">
<g>
	<path fill="#231F20" d="M59,58h-1V35c0-0.552-0.448-1-1-1h-7v-3c0-0.552-0.448-1-1-1s-1,0.448-1,1v3h-1c-0.552,0-1,0.448-1,1v23h-4
		V13c0-0.552-0.448-1-1-1h-5V7c0-0.552-0.448-1-1-1H25c-0.552,0-1,0.448-1,1v5h-5c-0.552,0-1,0.448-1,1v45h-4V35
		c0-0.552-0.448-1-1-1h-1v-3c0-0.552-0.448-1-1-1s-1,0.448-1,1v3H3c-0.552,0-1,0.448-1,1v23H1c-0.552,0-1,0.448-1,1
		c0,0.552,0.448,1,1,1h2h10h6h22h6h10h2c0.552,0,1-0.448,1-1C60,58.448,59.552,58,59,58z M26,8h8v4h-8V8z M4,58V36h8v22H4z M20,58
		V14h5h10h5v44H20z M48,58V36h8v22H48z"/>
	<path fill="#231F20" d="M37,18H23c-0.552,0-1,0.448-1,1c0,0.552,0.448,1,1,1h14c0.552,0,1-0.448,1-1C38,18.448,37.552,18,37,18z"/>
	<path fill="#231F20" d="M37,24H23c-0.552,0-1,0.448-1,1c0,0.552,0.448,1,1,1h14c0.552,0,1-0.448,1-1C38,24.448,37.552,24,37,24z"/>
	<path fill="#231F20" d="M37,30H23c-0.552,0-1,0.448-1,1c0,0.552,0.448,1,1,1h14c0.552,0,1-0.448,1-1C38,30.448,37.552,30,37,30z"/>
	<path fill="#231F20" d="M37,36H23c-0.552,0-1,0.448-1,1c0,0.552,0.448,1,1,1h14c0.552,0,1-0.448,1-1C38,36.448,37.552,36,37,36z"/>
	<path fill="#231F20" d="M37,42H23c-0.552,0-1,0.448-1,1c0,0.552,0.448,1,1,1h14c0.552,0,1-0.448,1-1C38,42.448,37.552,42,37,42z"/>
	<path fill="#231F20" d="M37,48H23c-0.552,0-1,0.448-1,1c0,0.552,0.448,1,1,1h14c0.552,0,1-0.448,1-1C38,48.448,37.552,48,37,48z"/>
</g>
</svg>
