<?xml version="1.0" encoding="utf-8"?>
<!-- Generator: Adobe Illustrator 17.0.0, SVG Export Plug-In . SVG Version: 6.00 Build 0)  -->
<!DOCTYPE svg PUBLIC "-//W3C//DTD SVG 1.1//EN" "http://www.w3.org/Graphics/SVG/1.1/DTD/svg11.dtd">
<svg version="1.1" id="Layer_1" xmlns="http://www.w3.org/2000/svg" xmlns:xlink="http://www.w3.org/1999/xlink" x="0px" y="0px"
	 width="60px" height="60px" viewBox="0 0 60 60" enable-background="new 0 0 60 60" xml:space="preserve">
<g>
	<path fill="#231F20" d="M13,60h8h12h6h8h6c0.552,0,1-0.448,1-1V1c0-0.552-0.448-1-1-1H27c-0.552,0-1,0.448-1,1v21H7
		c-0.552,0-1,0.448-1,1v36c0,0.552,0.448,1,1,1H13z M14,58v-6h6v6H14z M40,58v-6h6v6H40z M28,20h7c0.552,0,1-0.448,1-1
		c0-0.552-0.448-1-1-1h-7v-4h11c0.552,0,1-0.448,1-1c0-0.552-0.448-1-1-1H28V8h15c0.552,0,1-0.448,1-1c0-0.552-0.448-1-1-1H28V2h24
		v56h-4v-7c0-0.552-0.448-1-1-1h-8c-0.552,0-1,0.448-1,1v7h-4V23c0-0.552-0.448-1-1-1h-5V20z M32,24v34H22v-7c0-0.552-0.448-1-1-1
		h-8c-0.552,0-1,0.448-1,1v7H8V42h5c0.552,0,1-0.448,1-1c0-0.552-0.448-1-1-1H8v-4h9c0.552,0,1-0.448,1-1c0-0.552-0.448-1-1-1H8v-4
		h11c0.552,0,1-0.448,1-1c0-0.552-0.448-1-1-1H8v-4H32z"/>
</g>
</svg>
