<?xml version="1.0" encoding="utf-8"?>
<!-- Generator: Adobe Illustrator 17.0.0, SVG Export Plug-In . SVG Version: 6.00 Build 0)  -->
<!DOCTYPE svg PUBLIC "-//W3C//DTD SVG 1.1//EN" "http://www.w3.org/Graphics/SVG/1.1/DTD/svg11.dtd">
<svg version="1.1" id="Layer_1" xmlns="http://www.w3.org/2000/svg" xmlns:xlink="http://www.w3.org/1999/xlink" x="0px" y="0px"
	 width="60px" height="60px" viewBox="0 0 60 60" enable-background="new 0 0 60 60" xml:space="preserve">
<g>
	<path fill="#231F20" d="M1,60h12h4h12c0.552,0,1-0.448,1-1V23c0-0.552-0.448-1-1-1h-5V9c0-0.552-0.448-1-1-1h-7V1
		c0-0.552-0.448-1-1-1s-1,0.448-1,1v7H7C6.448,8,6,8.448,6,9v13H1c-0.552,0-1,0.448-1,1v36C0,59.552,0.448,60,1,60z M14,58v-4h2v4
		H14z M8,10h14v12H8V10z M2,24h5h16h5v34H18v-5c0-0.552-0.448-1-1-1h-4c-0.552,0-1,0.448-1,1v5H2V24z"/>
	<path fill="#231F20" d="M59,12H35c-0.552,0-1,0.448-1,1v46c0,0.552,0.448,1,1,1h10h4h10c0.552,0,1-0.448,1-1V13
		C60,12.448,59.552,12,59,12z M46,58v-2h2v2H46z M58,58h-8v-3c0-0.552-0.448-1-1-1h-4c-0.552,0-1,0.448-1,1v3h-8V14h22V58z"/>
	<path fill="#231F20" d="M39,20h16c0.552,0,1-0.448,1-1c0-0.552-0.448-1-1-1H39c-0.552,0-1,0.448-1,1C38,19.552,38.448,20,39,20z"/>
	<path fill="#231F20" d="M39,38h16c0.552,0,1-0.448,1-1c0-0.552-0.448-1-1-1H39c-0.552,0-1,0.448-1,1C38,37.552,38.448,38,39,38z"/>
	<path fill="#231F20" d="M39,32h16c0.552,0,1-0.448,1-1c0-0.552-0.448-1-1-1H39c-0.552,0-1,0.448-1,1C38,31.552,38.448,32,39,32z"/>
	<path fill="#231F20" d="M39,26h16c0.552,0,1-0.448,1-1c0-0.552-0.448-1-1-1H39c-0.552,0-1,0.448-1,1C38,25.552,38.448,26,39,26z"/>
	<path fill="#231F20" d="M39,44h16c0.552,0,1-0.448,1-1c0-0.552-0.448-1-1-1H39c-0.552,0-1,0.448-1,1C38,43.552,38.448,44,39,44z"/>
	<path fill="#231F20" d="M39,50h16c0.552,0,1-0.448,1-1c0-0.552-0.448-1-1-1H39c-0.552,0-1,0.448-1,1C38,49.552,38.448,50,39,50z"/>
	<path fill="#231F20" d="M7,32h16c0.552,0,1-0.448,1-1c0-0.552-0.448-1-1-1H7c-0.552,0-1,0.448-1,1C6,31.552,6.448,32,7,32z"/>
	<path fill="#231F20" d="M7,40h16c0.552,0,1-0.448,1-1c0-0.552-0.448-1-1-1H7c-0.552,0-1,0.448-1,1C6,39.552,6.448,40,7,40z"/>
	<path fill="#231F20" d="M23,48c0.552,0,1-0.448,1-1c0-0.552-0.448-1-1-1H7c-0.552,0-1,0.448-1,1c0,0.552,0.448,1,1,1H23z"/>
	<path fill="#231F20" d="M19,12h-8c-0.552,0-1,0.448-1,1c0,0.552,0.448,1,1,1h8c0.552,0,1-0.448,1-1C20,12.448,19.552,12,19,12z"/>
	<path fill="#231F20" d="M19,18h-8c-0.552,0-1,0.448-1,1c0,0.552,0.448,1,1,1h8c0.552,0,1-0.448,1-1C20,18.448,19.552,18,19,18z"/>
</g>
</svg>
