<?xml version="1.0" encoding="utf-8"?>
<!-- Generator: Adobe Illustrator 17.0.0, SVG Export Plug-In . SVG Version: 6.00 Build 0)  -->
<!DOCTYPE svg PUBLIC "-//W3C//DTD SVG 1.1//EN" "http://www.w3.org/Graphics/SVG/1.1/DTD/svg11.dtd">
<svg version="1.1" id="Layer_1" xmlns="http://www.w3.org/2000/svg" xmlns:xlink="http://www.w3.org/1999/xlink" x="0px" y="0px"
	 width="60px" height="60px" viewBox="0 0 60 60" enable-background="new 0 0 60 60" xml:space="preserve">
<g>
	<path fill="#231F20" d="M33,32h-2v-2c0-0.552-0.447-1-1-1c-0.553,0-1,0.448-1,1v2h-2c-0.553,0-1,0.448-1,1c0,0.552,0.447,1,1,1h2v2
		c0,0.552,0.447,1,1,1c0.553,0,1-0.448,1-1v-2h2c0.553,0,1-0.448,1-1C34,32.448,33.553,32,33,32z"/>
	<path fill="#231F20" d="M59,32h-8c-0.553,0-1,0.448-1,1v5h-3.078l-1.765-12H47c2.663,0,5-2.336,5-5V11c0-0.552-0.447-1-1-1h-4
		c-0.553,0-1,0.448-1,1v1.261C46,13.72,44.598,15,43,15c-1.598,0-3-1.28-3-2.739V11c0-0.552-0.447-1-1-1h-5c-0.553,0-1,0.448-1,1
		v1.261c0,1.141-0.862,2.163-2,2.559V6c0.093,0,0.185-0.013,0.274-0.039l7-2C38.704,3.839,39,3.446,39,3s-0.296-0.839-0.726-0.961
		l-7-2C31.185,0.013,31.093,0,31,0h-1c-0.553,0-1,0.448-1,1v4v9.82c-1.138-0.395-2-1.418-2-2.559V11c0-0.552-0.447-1-1-1h-5
		c-0.553,0-1,0.448-1,1v1c0,1.542-1.458,3-3,3s-3-1.458-3-3v-1c0-0.552-0.447-1-1-1H9c-0.553,0-1,0.448-1,1v10c0,2.664,2.337,5,5,5
		h1.842l-1.765,12H10v-5c0-0.552-0.447-1-1-1H1c-0.553,0-1,0.448-1,1v26c0,0.552,0.447,1,1,1h10h14c0.553,0,1-0.448,1-1V49
		c0-1.558,0.484-3,4-3c3.516,0,4,1.442,4,3v10c0,0.552,0.447,1,1,1h14h10c0.553,0,1-0.448,1-1V33C60,32.448,59.553,32,59,32z
		 M34.36,3L31,3.96V2.04L34.36,3z M10,21v-9h2c0,2.664,2.337,5,5,5c2.663,0,5-2.336,5-5h3v0.261C25,14.83,27.29,17,30,17
		s5-2.17,5-4.739V12h3v0.261C38,14.83,40.29,17,43,17s5-2.17,5-4.739V12h2v9c0,1.542-1.458,3-3,3h-3H16h-3
		C11.458,24,10,22.542,10,21z M2,34h6v5c0,0.552,0.447,1,1,1h3.783l-2.647,18H2V34z M36,58v-9c0-2.281-1.041-5-6-5s-6,2.719-6,5v9
		H12.158l4.705-32h26.273l4.705,32H36z M58,58h-8.136l-2.647-18H51c0.553,0,1-0.448,1-1v-5h6V58z"/>
</g>
</svg>
