<?xml version="1.0" encoding="utf-8"?>
<!-- Generator: Adobe Illustrator 17.0.0, SVG Export Plug-In . SVG Version: 6.00 Build 0)  -->
<!DOCTYPE svg PUBLIC "-//W3C//DTD SVG 1.1//EN" "http://www.w3.org/Graphics/SVG/1.1/DTD/svg11.dtd">
<svg version="1.1" id="Layer_1" xmlns="http://www.w3.org/2000/svg" xmlns:xlink="http://www.w3.org/1999/xlink" x="0px" y="0px"
	 width="60px" height="60px" viewBox="0 0 60 60" enable-background="new 0 0 60 60" xml:space="preserve">
<g>
	<path fill="#231F20" d="M49,0H11C4.831,0,0,4.832,0,11c0,6.169,4.831,11,11,11c1.865,0,3.578-0.482,5-1.313V59c0,0.552,0.448,1,1,1
		s1-0.448,1-1V20h6v39c0,0.552,0.448,1,1,1s1-0.448,1-1V20h8v39c0,0.552,0.448,1,1,1s1-0.448,1-1V20h6v39c0,0.552,0.448,1,1,1
		s1-0.448,1-1V20.687C45.422,21.518,47.135,22,49,22c6.169,0,11-4.831,11-11C60,4.832,55.169,0,49,0z M20,14h20
		c0,1.469,0.43,2.829,1.177,4H18.823C19.57,16.829,20,15.469,20,14z M49,20c-3.441,0-7-2.244-7-6c0-2.25,1.846-5,4-5
		c0.841,0,2,1.159,2,2c0,0.552,0.448,1,1,1s1-0.448,1-1c0-1.944-2.056-4-4-4c-2.746,0-4.932,2.364-5.7,5H19.7
		c-0.768-2.636-2.954-5-5.7-5c-1.944,0-4,2.056-4,4c0,0.552,0.448,1,1,1s1-0.448,1-1c0-0.841,1.159-2,2-2c2.154,0,4,2.75,4,5
		c0,3.756-3.559,6-7,6c-5.047,0-9-3.953-9-9c0-5.047,3.953-9,9-9h38c5.047,0,9,3.953,9,9C58,16.047,54.047,20,49,20z"/>
</g>
</svg>
