<?xml version="1.0" encoding="utf-8"?>
<!-- Generator: Adobe Illustrator 17.0.0, SVG Export Plug-In . SVG Version: 6.00 Build 0)  -->
<!DOCTYPE svg PUBLIC "-//W3C//DTD SVG 1.1//EN" "http://www.w3.org/Graphics/SVG/1.1/DTD/svg11.dtd">
<svg version="1.1" id="Layer_1" xmlns="http://www.w3.org/2000/svg" xmlns:xlink="http://www.w3.org/1999/xlink" x="0px" y="0px"
	 width="60px" height="60px" viewBox="0 0 60 60" enable-background="new 0 0 60 60" xml:space="preserve">
<g>
	<path fill="#231F20" d="M51.707,9.293c-0.391-0.391-1.023-0.391-1.414,0l-8,8C42.105,17.481,42,17.735,42,18v4h-2v-4
		c0-0.265-0.106-0.519-0.293-0.707l-9-9c-0.391-0.391-1.023-0.391-1.414,0l-9,9C20.105,17.481,20,17.735,20,18v4h-2v-4
		c0-0.265-0.106-0.519-0.293-0.707l-8-8c-0.391-0.391-1.023-0.391-1.414,0l-8,8C0.105,17.481,0,17.735,0,18v35c0,0.552,0.447,1,1,1
		h16c0.553,0,1-0.448,1-1v-7h2v7c0,0.552,0.447,1,1,1h18c0.553,0,1-0.448,1-1v-7h2v7c0,0.552,0.447,1,1,1h16c0.553,0,1-0.448,1-1V18
		c0-0.265-0.106-0.519-0.293-0.707L51.707,9.293z M16,52H2V18.414l7-7l7,7V52z M18,44V24h2v20H18z M38,52H22V18.414l8-8l8,8V52z
		 M40,44V24h2v20H40z M58,52H44V18.414l7-7l7,7V52z"/>
</g>
</svg>
