<?xml version="1.0" encoding="utf-8"?>
<!-- Generator: Adobe Illustrator 17.0.0, SVG Export Plug-In . SVG Version: 6.00 Build 0)  -->
<!DOCTYPE svg PUBLIC "-//W3C//DTD SVG 1.1//EN" "http://www.w3.org/Graphics/SVG/1.1/DTD/svg11.dtd">
<svg version="1.1" id="Layer_1" xmlns="http://www.w3.org/2000/svg" xmlns:xlink="http://www.w3.org/1999/xlink" x="0px" y="0px"
	 width="60px" height="60px" viewBox="0 0 60 60" enable-background="new 0 0 60 60" xml:space="preserve">
<g>
	<path fill="#231F20" d="M59.409,19.087l-29-13c-0.261-0.116-0.558-0.116-0.818,0l-29,13C0.231,19.249,0,19.606,0,20v5
		c0,0.552,0.448,1,1,1h3v28H1c-0.552,0-1,0.448-1,1c0,0.552,0.448,1,1,1h4h6h38h6h4c0.552,0,1-0.448,1-1c0-0.552-0.448-1-1-1h-3V26
		h3c0.552,0,1-0.448,1-1v-5C60,19.606,59.769,19.249,59.409,19.087z M12,54V32h36v22H12z M54,54h-4V31c0-0.552-0.448-1-1-1H11
		c-0.552,0-1,0.448-1,1v23H6V26h48V54z M58,24h-3H5H2v-3.352L30,8.096l28,12.552V24z"/>
	<path fill="#231F20" d="M43,36H17c-0.552,0-1,0.448-1,1c0,0.552,0.448,1,1,1h26c0.552,0,1-0.448,1-1C44,36.448,43.552,36,43,36z"/>
	<path fill="#231F20" d="M43,42H17c-0.552,0-1,0.448-1,1c0,0.552,0.448,1,1,1h26c0.552,0,1-0.448,1-1C44,42.448,43.552,42,43,42z"/>
	<path fill="#231F20" d="M43,48H17c-0.552,0-1,0.448-1,1c0,0.552,0.448,1,1,1h26c0.552,0,1-0.448,1-1C44,48.448,43.552,48,43,48z"/>
</g>
</svg>
