<?xml version="1.0" encoding="utf-8"?>
<!-- Generator: Adobe Illustrator 17.0.0, SVG Export Plug-In . SVG Version: 6.00 Build 0)  -->
<!DOCTYPE svg PUBLIC "-//W3C//DTD SVG 1.1//EN" "http://www.w3.org/Graphics/SVG/1.1/DTD/svg11.dtd">
<svg version="1.1" id="Layer_1" xmlns="http://www.w3.org/2000/svg" xmlns:xlink="http://www.w3.org/1999/xlink" x="0px" y="0px"
	 width="60px" height="60px" viewBox="0 0 60 60" enable-background="new 0 0 60 60" xml:space="preserve">
<g>
	<path fill="#231F20" d="M52.146,9.851c-3.598-3.962-8.241-6.957-13.487-8.554c-0.022-0.005-0.041-0.014-0.063-0.018
		C35.853,0.45,32.948,0,29.938,0c-16.542,0-30,13.458-30,30s13.458,30,30,30s30-13.458,30-30c0-7.716-2.93-14.76-7.734-20.081
		C52.188,9.894,52.165,9.875,52.146,9.851z M50.276,10.785c-0.376,1.501-1.781,6.076-5.347,8.071
		c-4.392-0.902-8.627,1.483-9.535,2.59c-0.485,0.591-0.36,1.096-0.243,1.345c0.17,0.358,0.511,0.589,0.931,0.635
		c0.447,0.412,1.227,2.36,1.711,4.295c0.044,0.176,0.135,0.336,0.263,0.465c1.229,1.229,3.057,0.88,4.12,0.521
		c0.518,1.448-1.495,3.725-3.642,5.958c-1.444,1.502-2.03,2.141-2.03,2.9c0,0.927,0.685,1.523,1.236,2.003
		c0.207,0.181,0.594,0.517,0.628,0.644c0,0.002-0.025,0.142-0.311,0.428c-1.682,1.683-3.379,2.276-3.393,2.28
		c-0.408,0.136-0.684,0.518-0.684,0.949c0,3.493-2.176,5.277-6.468,5.303c-0.851-0.492-2.869-4.371-2.879-5.303
		c0-0.395,0.255-0.904,0.525-1.444c0.345-0.69,0.736-1.472,0.736-2.339c0-1.373-1.683-3.31-2.53-4.198
		c-0.062-1.537-0.482-2.654-1.278-3.405c-1.34-1.265-3.316-1.152-5.408-1.033c-0.611,0.035-1.241,0.072-1.872,0.072
		c-2.73,0-2.78-3.881-2.781-4.044c0-0.08,0.063-8.019,5.499-9.106c4.021-0.805,5.056,0.077,5.108,0.28
		c0,0.265,0.106,0.52,0.293,0.707c2.15,2.15,5.492,1.374,8.177,0.75c1.013-0.235,1.969-0.458,2.618-0.458
		c0.497,0,0.919-0.366,0.99-0.859c0.383-2.681,0.784-7.354-0.833-8.519c-0.311-0.223-0.967-0.533-1.866-0.082
		c-0.99,0.495-1.93,0.571-2.577,0.212c-0.734-0.408-0.962-1.276-1.023-1.932c-0.19-2.037,5.73-4.257,9.951-5.175
		C42.959,4.751,47.041,7.363,50.276,10.785z M29.938,58c-15.439,0-28-12.56-28-28s12.561-28,28-28c1.465,0,2.904,0.114,4.309,0.332
		c-3.606,1.158-8.114,3.234-7.826,6.326c0.149,1.605,0.875,2.846,2.043,3.495c1.189,0.661,2.738,0.627,4.317-0.108
		c0.323,0.762,0.344,3.169,0.053,5.675c-0.672,0.091-1.413,0.263-2.183,0.442c-2.206,0.514-4.692,1.09-6.105-0.033
		c-0.104-0.337-0.328-0.778-0.814-1.176c-1.211-0.993-3.432-1.176-6.6-0.542c-7.026,1.405-7.106,10.673-7.106,11.067
		c0,2.09,1,6.044,4.781,6.044c0.668,0,1.337-0.038,1.986-0.075c1.648-0.094,3.207-0.184,3.921,0.49
		c0.438,0.413,0.66,1.21,0.66,2.367c0,0.265,0.105,0.52,0.292,0.707c1.154,1.156,2.217,2.622,2.229,3.075
		c0,0.394-0.255,0.904-0.525,1.444c-0.345,0.69-0.736,1.472-0.736,2.339c0,1.426,2.613,7.304,4.783,7.304
		c5.173,0,8.25-2.405,8.542-6.628c0.784-0.366,2.153-1.129,3.513-2.49c0.617-0.617,0.918-1.258,0.896-1.906
		c-0.034-0.976-0.773-1.62-1.313-2.09c-0.153-0.133-0.388-0.338-0.496-0.44c0.245-0.348,0.887-1.016,1.419-1.568
		c2.303-2.394,6.157-6.401,3.278-9.28c-0.303-0.304-0.769-0.379-1.152-0.188c-0.559,0.275-1.809,0.667-2.453,0.319
		c-0.599-2.297-1.278-3.877-2.029-4.728c1.33-0.838,4.272-2.026,7.206-1.292c0.232,0.058,0.476,0.03,0.69-0.076
		c3.734-1.867,5.542-5.83,6.325-8.221c3.811,4.784,6.097,10.835,6.097,17.413C57.938,45.44,45.378,58,29.938,58z"/>
</g>
</svg>
