<?xml version="1.0" encoding="utf-8"?>
<!-- Generator: Adobe Illustrator 17.0.0, SVG Export Plug-In . SVG Version: 6.00 Build 0)  -->
<!DOCTYPE svg PUBLIC "-//W3C//DTD SVG 1.1//EN" "http://www.w3.org/Graphics/SVG/1.1/DTD/svg11.dtd">
<svg version="1.1" id="Layer_1" xmlns="http://www.w3.org/2000/svg" xmlns:xlink="http://www.w3.org/1999/xlink" x="0px" y="0px"
	 width="60px" height="60px" viewBox="0 0 60 60" enable-background="new 0 0 60 60" xml:space="preserve">
<g>
	<path fill="#231F20" d="M30.014,0c-0.437,0-0.868,0.009-1.3,0.026C12.344,0.688,0,13.302,0,29.368C0,46.259,13.422,60,29.92,60
		C46.506,60,60,46.494,60,29.892C60,13.409,46.548,0,30.014,0z M54.266,16H41.484c-1.634-4.84-4.24-9.463-7.819-13.755
		C42.475,3.395,50.006,8.641,54.266,16z M30.819,2.02c3.965,4.367,6.844,9.061,8.637,13.98H20.569
		c1.793-4.92,4.674-9.616,8.641-13.984C29.477,2.009,29.743,2,30.014,2C30.284,2,30.55,2.013,30.819,2.02z M41.646,30H18.378
		c-0.153-4.095,0.348-8.112,1.52-12h20.229C41.298,21.888,41.799,25.905,41.646,30z M38.627,44H21.395
		c-1.572-4.036-2.539-8.05-2.892-12h23.019C41.167,35.95,40.2,39.964,38.627,44z M43.401,32h14.512
		c-0.324,4.349-1.639,8.423-3.722,12H40.702C42.175,39.979,43.071,35.962,43.401,32z M2.123,32h14.5
		c0.33,3.962,1.225,7.979,2.698,12H5.933C3.853,40.427,2.512,36.353,2.123,32z M26.377,2.224C22.789,6.522,20.178,11.153,18.541,16
		H5.427C9.579,8.55,17.175,3.331,26.377,2.224z M4.419,18h13.507c-1.088,3.893-1.563,7.911-1.421,12H2.016
		C2.011,29.789,2,29.58,2,29.368C2,25.285,2.862,21.444,4.419,18z M7.215,46h12.884c1.635,3.954,3.825,7.903,6.565,11.799
		C18.663,56.841,11.688,52.402,7.215,46z M29.267,57.983c-2.944-3.98-5.29-7.988-7.043-11.983h15.574
		c-1.753,3.994-4.098,8.001-7.042,11.979C30.478,57.987,30.2,58,29.92,58C29.701,58,29.485,57.988,29.267,57.983z M33.369,57.78
		c2.735-3.89,4.921-7.832,6.554-11.78h12.988C48.452,52.357,41.436,56.786,33.369,57.78z M57.997,30H43.518
		c0.142-4.089-0.332-8.107-1.42-12h13.224C57.037,21.61,58,25.64,58,29.892C58,29.928,57.997,29.964,57.997,30z"/>
</g>
</svg>
