<?xml version="1.0" encoding="utf-8"?>
<!-- Generator: Adobe Illustrator 17.0.0, SVG Export Plug-In . SVG Version: 6.00 Build 0)  -->
<!DOCTYPE svg PUBLIC "-//W3C//DTD SVG 1.1//EN" "http://www.w3.org/Graphics/SVG/1.1/DTD/svg11.dtd">
<svg version="1.1" id="Layer_1" xmlns="http://www.w3.org/2000/svg" xmlns:xlink="http://www.w3.org/1999/xlink" x="0px" y="0px"
	 width="60px" height="60px" viewBox="0 0 60 60" enable-background="new 0 0 60 60" xml:space="preserve">
<g>
	<path fill="#231F20" d="M41,11c0.553,0,1-0.448,1-1c0-1.842,0.732-2.324,1.841-3.054C45.248,6.02,47,4.867,47,1
		c0-0.552-0.447-1-1-1c-0.553,0-1,0.448-1,1c0,2.789-0.997,3.445-2.259,4.275C41.521,6.079,40,7.08,40,10C40,10.552,40.447,11,41,11
		z"/>
	<path fill="#231F20" d="M47,11c0.553,0,1-0.448,1-1c0-1.842,0.732-2.324,1.841-3.054C51.248,6.02,53,4.867,53,1
		c0-0.552-0.447-1-1-1c-0.553,0-1,0.448-1,1c0,2.789-0.997,3.445-2.259,4.275C47.521,6.079,46,7.08,46,10C46,10.552,46.447,11,47,11
		z"/>
	<path fill="#231F20" d="M9,34c-0.553,0-1,0.448-1,1v25h16V42h12v18h16V35c0-0.552-0.447-1-1-1c-0.553,0-1,0.448-1,1v23H38V40H22v18
		H10V35C10,34.448,9.553,34,9,34z"/>
	<path fill="#231F20" d="M50,23.586V13H39.414l-8.707-8.707c-0.391-0.391-1.023-0.391-1.414,0l-29,29
		c-0.391,0.391-0.391,1.023,0,1.414c0.391,0.391,1.023,0.391,1.414,0L30,6.414l8.292,8.292c0.001,0,0.001,0.001,0.002,0.002
		l9.998,9.998c0.001,0.001,0.001,0.001,0.002,0.002l9.999,9.999C58.488,34.902,58.744,35,59,35c0.256,0,0.512-0.098,0.707-0.293
		c0.391-0.391,0.391-1.023,0-1.414L50,23.586z M48,15v6.586L41.414,15H48z"/>
</g>
</svg>
