<?xml version="1.0" encoding="utf-8"?>
<!-- Generator: Adobe Illustrator 17.0.0, SVG Export Plug-In . SVG Version: 6.00 Build 0)  -->
<!DOCTYPE svg PUBLIC "-//W3C//DTD SVG 1.1//EN" "http://www.w3.org/Graphics/SVG/1.1/DTD/svg11.dtd">
<svg version="1.1" id="Layer_1" xmlns="http://www.w3.org/2000/svg" xmlns:xlink="http://www.w3.org/1999/xlink" x="0px" y="0px"
	 width="60px" height="60px" viewBox="0 0 60 60" enable-background="new 0 0 60 60" xml:space="preserve">
<g>
	<path fill="#231F20" d="M59,54h-3V29.312l2.472,1.537C58.636,30.952,58.819,31,58.999,31c0.334,0,0.661-0.167,0.85-0.472
		c0.292-0.469,0.148-1.085-0.321-1.377L54,25.715V13c0-0.552-0.448-1-1-1h-6c-0.552,0-1,0.448-1,1v7.742L22.528,6.151
		c-0.469-0.294-1.086-0.148-1.377,0.321c-0.292,0.469-0.148,1.085,0.321,1.377L26,10.664v11.207L4.732,32.096
		c-0.109,0.031-0.206,0.079-0.296,0.143l-3.869,1.86c-0.498,0.239-0.708,0.837-0.468,1.334C0.271,35.792,0.628,36,1,36
		c0.146,0,0.293-0.032,0.433-0.099L4,34.667V54H1c-0.552,0-1,0.448-1,1c0,0.552,0.448,1,1,1h10h10h12h16h10c0.552,0,1-0.448,1-1
		C60,54.448,59.552,54,59,54z M48,14h4v10.471l-4-2.486V14z M54,28.069V54h-4v-9c0-0.552-0.448-1-1-1H33c-0.552,0-1,0.448-1,1v9h-4
		V11.907L54,28.069z M6,33.706l20-9.615V54h-4V41c0-0.552-0.448-1-1-1H11c-0.552,0-1,0.448-1,1v13H6V33.706z M12,54V42h8v12H12z
		 M34,46h6v8h-6V46z M42,54v-8h6v8H42z"/>
	<path fill="#231F20" d="M11,38h10c0.552,0,1-0.448,1-1c0-0.552-0.448-1-1-1H11c-0.552,0-1,0.448-1,1C10,37.552,10.448,38,11,38z"/>
	<path fill="#231F20" d="M35,32c2.757,0,5-2.243,5-5c0-2.757-2.243-5-5-5s-5,2.243-5,5C30,29.757,32.243,32,35,32z M35,24
		c1.654,0,3,1.346,3,3s-1.346,3-3,3s-3-1.346-3-3S33.346,24,35,24z"/>
</g>
</svg>
