<?xml version="1.0" encoding="utf-8"?>
<!-- Generator: Adobe Illustrator 17.0.0, SVG Export Plug-In . SVG Version: 6.00 Build 0)  -->
<!DOCTYPE svg PUBLIC "-//W3C//DTD SVG 1.1//EN" "http://www.w3.org/Graphics/SVG/1.1/DTD/svg11.dtd">
<svg version="1.1" id="Layer_1" xmlns="http://www.w3.org/2000/svg" xmlns:xlink="http://www.w3.org/1999/xlink" x="0px" y="0px"
	 width="60px" height="60px" viewBox="0 0 60 60" enable-background="new 0 0 60 60" xml:space="preserve">
<g>
	<path fill="#231F20" d="M11,48h19v11c0,0.552,0.448,1,1,1s1-0.448,1-1V48h19c0.386,0,0.737-0.222,0.903-0.57
		c0.166-0.348,0.117-0.761-0.127-1.06L40.101,32H47c0.383,0,0.732-0.219,0.899-0.563c0.167-0.344,0.123-0.754-0.113-1.055L38.058,18
		H42c0.372,0,0.712-0.206,0.885-0.535c0.173-0.329,0.149-0.726-0.061-1.032l-11-16c-0.373-0.543-1.275-0.543-1.648,0l-11,16
		c-0.211,0.306-0.234,0.703-0.061,1.032C19.288,17.794,19.628,18,20,18h3.942l-9.729,12.382c-0.237,0.301-0.281,0.711-0.113,1.055
		C14.268,31.781,14.617,32,15,32h6.899L10.224,46.37c-0.244,0.299-0.293,0.712-0.127,1.06C10.263,47.778,10.614,48,11,48z
		 M24.776,31.63c0.244-0.299,0.293-0.712,0.127-1.06C24.737,30.222,24.386,30,24,30h-6.942l9.728-12.382
		c0.237-0.301,0.281-0.711,0.113-1.055C26.732,16.219,26.383,16,26,16h-4.099L31,2.765L40.099,16H36
		c-0.383,0-0.732,0.219-0.899,0.563s-0.123,0.754,0.113,1.055L44.942,30H38c-0.386,0-0.737,0.222-0.903,0.57
		c-0.166,0.348-0.117,0.761,0.127,1.06L48.899,46H13.101L24.776,31.63z"/>
</g>
</svg>
