<?xml version="1.0" encoding="utf-8"?>
<!-- Generator: Adobe Illustrator 17.0.0, SVG Export Plug-In . SVG Version: 6.00 Build 0)  -->
<!DOCTYPE svg PUBLIC "-//W3C//DTD SVG 1.1//EN" "http://www.w3.org/Graphics/SVG/1.1/DTD/svg11.dtd">
<svg version="1.1" id="Layer_1" xmlns="http://www.w3.org/2000/svg" xmlns:xlink="http://www.w3.org/1999/xlink" x="0px" y="0px"
	 width="60px" height="60px" viewBox="0 0 60 60" enable-background="new 0 0 60 60" xml:space="preserve">
<g>
	<path fill="#231F20" d="M59,58H37.654l1.808-10.235l1.5,0.264c0.06,0.01,0.117,0.015,0.175,0.015c0.477,0,0.898-0.341,0.983-0.827
		c0.097-0.544-0.268-1.062-0.81-1.158l-1.5-0.264l1.404-7.946l1.5,0.264c0.06,0.01,0.117,0.015,0.175,0.015
		c0.477,0,0.898-0.341,0.983-0.827c0.097-0.544-0.267-1.062-0.811-1.158l-1.5-0.264l1.404-7.946l1.499,0.264
		c0.059,0.01,0.116,0.015,0.174,0.015c0.477,0,0.898-0.341,0.984-0.827c0.096-0.544-0.269-1.062-0.812-1.158l-1.497-0.263
		l1.404-7.946l1.502,0.264c0.06,0.01,0.117,0.015,0.175,0.015c0.477,0,0.898-0.341,0.983-0.827c0.097-0.544-0.268-1.062-0.811-1.158
		l-6.468-1.139l0.966-5.466l1.498,0.264c0.06,0.01,0.117,0.015,0.175,0.015c0.477,0,0.898-0.341,0.984-0.827
		c0.096-0.544-0.269-1.062-0.812-1.158l-7.704-1.356l0.699-3.973c0.095-0.544-0.269-1.062-0.812-1.158
		c-0.543-0.096-1.062,0.268-1.158,0.812l-0.699,3.972l-7.708-1.357c-0.552-0.096-1.063,0.268-1.159,0.811
		c-0.096,0.544,0.268,1.062,0.812,1.158l1.498,0.264l-0.965,5.467l-6.465-1.138c-0.552-0.094-1.063,0.268-1.158,0.812
		c-0.097,0.544,0.268,1.062,0.811,1.158l1.477,0.26l-1.556,7.921l-1.33-0.234c-0.543-0.097-1.062,0.267-1.158,0.812
		c-0.096,0.544,0.269,1.062,0.812,1.158l1.29,0.227l-1.555,7.918l-1.138-0.2c-0.552-0.097-1.063,0.267-1.158,0.812
		c-0.097,0.544,0.267,1.062,0.81,1.158l1.1,0.194l-1.555,7.92l-0.946-0.167c-0.554-0.095-1.062,0.267-1.158,0.811
		c-0.097,0.544,0.267,1.062,0.81,1.158l0.909,0.16L11.683,58H1c-0.553,0-1,0.448-1,1c0,0.552,0.447,1,1,1h11.506h8.825h6.305h8.826
		H59c0.553,0,1-0.448,1-1C60,58.448,59.553,58,59,58z M28.646,7.523l10.447,1.839l-0.966,5.466l-2.992-0.526l-7.455-1.312
		L28.646,7.523z M22.347,14.082l20.399,3.591l-1.403,7.945l-20.551-3.616L22.347,14.082z M20.406,23.964l20.589,3.623l-1.403,7.946
		l-20.74-3.651L20.406,23.964z M18.465,33.845l20.778,3.658l-1.404,7.946l-20.93-3.684L18.465,33.845z M22.657,58l1.892-6.606
		l3.21,0.802L26.789,58H22.657z M28.817,58l1.067-6.386c0.086-0.515-0.238-1.009-0.744-1.135l-5.044-1.259
		c-0.519-0.129-1.055,0.177-1.203,0.695L20.578,58h-6.856l2.803-14.272l20.967,3.691L35.623,58H28.817z"/>
</g>
</svg>
