<?xml version="1.0" encoding="utf-8"?>
<!-- Generator: Adobe Illustrator 17.0.0, SVG Export Plug-In . SVG Version: 6.00 Build 0)  -->
<!DOCTYPE svg PUBLIC "-//W3C//DTD SVG 1.1//EN" "http://www.w3.org/Graphics/SVG/1.1/DTD/svg11.dtd">
<svg version="1.1" id="Layer_1" xmlns="http://www.w3.org/2000/svg" xmlns:xlink="http://www.w3.org/1999/xlink" x="0px" y="0px"
	 width="60px" height="60px" viewBox="0 0 60 60" enable-background="new 0 0 60 60" xml:space="preserve">
<g>
	<path fill="#231F20" d="M45,58H34v-8h3c0.553,0,1-0.448,1-1c0-0.552-0.447-1-1-1h-3v-6h3c0.553,0,1-0.448,1-1c0-0.552-0.447-1-1-1
		h-3v-7.112c2.89-1.336,5.21-3.791,6.306-6.888H41h2c0.553,0,1-0.448,1-1v-6c0-0.552-0.447-1-1-1h-2h-0.694
		C38.738,13.567,34.67,10.439,30,10.044V1c0-0.552-0.447-1-1-1c-0.553,0-1,0.448-1,1v9.044c-4.67,0.395-8.738,3.523-10.306,7.956H17
		h-2c-0.553,0-1,0.448-1,1v6c0,0.552,0.447,1,1,1h2h0.694c1.096,3.098,3.416,5.552,6.306,6.888V40h-3c-0.553,0-1,0.448-1,1
		c0,0.552,0.447,1,1,1h3v6h-3c-0.553,0-1,0.448-1,1c0,0.552,0.447,1,1,1h3v8H13c-0.553,0-1,0.448-1,1c0,0.552,0.447,1,1,1h32
		c0.553,0,1-0.448,1-1C46,58.448,45.553,58,45,58z M29,12c3.991,0,7.576,2.412,9.149,6H19.851C21.424,14.412,25.009,12,29,12z
		 M17,24h-1v-4h1h1.425h21.15H41h1v4h-1h-1.425h-21.15H17z M19.851,26h18.297c-1.572,3.588-5.158,6-9.149,6
		C25.009,32,21.423,29.588,19.851,26z M26,33.608C26.966,33.86,27.971,34,29,34s2.034-0.14,3-0.392V40h-6V33.608z M26,42h6v6h-6V42z
		 M26,50h6v8h-6V50z"/>
</g>
</svg>
