<?xml version="1.0" encoding="utf-8"?>
<!-- Generator: Adobe Illustrator 17.0.0, SVG Export Plug-In . SVG Version: 6.00 Build 0)  -->
<!DOCTYPE svg PUBLIC "-//W3C//DTD SVG 1.1//EN" "http://www.w3.org/Graphics/SVG/1.1/DTD/svg11.dtd">
<svg version="1.1" id="Layer_1" xmlns="http://www.w3.org/2000/svg" xmlns:xlink="http://www.w3.org/1999/xlink" x="0px" y="0px"
	 width="60px" height="60px" viewBox="0 0 60 60" enable-background="new 0 0 60 60" xml:space="preserve">
<g>
	<path fill="#231F20" d="M59,58H1c-0.552,0-1,0.448-1,1c0,0.552,0.448,1,1,1h58c0.552,0,1-0.448,1-1C60,58.448,59.552,58,59,58z"/>
	<path fill="#231F20" d="M59,52h-3v-5c0-0.552-0.448-1-1-1h-3V22h5c0.552,0,1-0.448,1-1v-5.901c0.004-0.034,0.02-0.064,0.02-0.099
		c0-0.435-0.278-0.805-0.666-0.943L30.46,0.112c-0.289-0.149-0.632-0.149-0.921,0l-27,14c-0.067,0.035-0.12,0.086-0.176,0.133
		c-0.025,0.021-0.055,0.035-0.078,0.059c-0.084,0.087-0.151,0.186-0.199,0.295c-0.011,0.024-0.012,0.052-0.021,0.078
		c-0.031,0.091-0.052,0.183-0.057,0.28C2.008,14.972,2,14.985,2,15v6c0,0.552,0.448,1,1,1h5v24H5c-0.552,0-1,0.448-1,1v5H1
		c-0.552,0-1,0.448-1,1c0,0.552,0.448,1,1,1h4h50h4c0.552,0,1-0.448,1-1C60,52.448,59.552,52,59,52z M50,46h-2V22h2V46z M40,46V22h6
		v24H40z M36,46V22h2v24H36z M26,46V22h8v24H26z M22,46V22h2v24H22z M14,46V22h6v24H14z M30,2.127L52.899,14H7.101L30,2.127z M4,16
		h52v4h-5H9H4V16z M10,22h2v24h-2V22z M6,52v-4h3h42h3v4H6z"/>
</g>
</svg>
