<?xml version="1.0" encoding="utf-8"?>
<!-- Generator: Adobe Illustrator 17.0.0, SVG Export Plug-In . SVG Version: 6.00 Build 0)  -->
<!DOCTYPE svg PUBLIC "-//W3C//DTD SVG 1.1//EN" "http://www.w3.org/Graphics/SVG/1.1/DTD/svg11.dtd">
<svg version="1.1" id="Layer_1" xmlns="http://www.w3.org/2000/svg" xmlns:xlink="http://www.w3.org/1999/xlink" x="0px" y="0px"
	 width="60px" height="60px" viewBox="0 0 60 60" enable-background="new 0 0 60 60" xml:space="preserve">
<g>
	<path fill="#231F20" d="M56.577,3.183c-0.248-0.175-0.561-0.229-0.852-0.144L42.021,6.954L30.183,3.05
		c-0.198-0.066-0.411-0.067-0.61-0.005L16.998,6.953L4.294,3.044c-0.292-0.09-0.61-0.041-0.863,0.133
		c-0.252,0.174-0.41,0.455-0.429,0.76l-3,48c-0.03,0.476,0.28,0.906,0.74,1.029l15,4c0.174,0.046,0.358,0.045,0.533-0.005L30,53.04
		l13.725,3.921C43.815,56.987,43.908,57,44,57c0.086,0,0.173-0.011,0.258-0.034l15-4c0.46-0.123,0.77-0.553,0.74-1.029l-3-48
		C56.979,3.635,56.824,3.358,56.577,3.183z M44.009,54.962l-13.734-3.924C30.185,51.013,30.092,51,30,51s-0.185,0.013-0.275,0.039
		l-13.734,3.924L2.049,51.245l2.87-45.916l11.787,3.627c0.192,0.06,0.398,0.058,0.591,0L29.861,5.05l11.826,3.9
		c0.189,0.062,0.394,0.067,0.588,0.012L55.08,5.303l2.871,45.941L44.009,54.962z"/>
	<path fill="#231F20" d="M50.707,17.293c-0.391-0.391-1.023-0.391-1.414,0L47,19.586l-2.293-2.293c-0.391-0.391-1.023-0.391-1.414,0
		c-0.391,0.391-0.391,1.023,0,1.414L45.586,21l-2.293,2.293c-0.391,0.391-0.391,1.023,0,1.414C43.488,24.902,43.744,25,44,25
		s0.512-0.098,0.707-0.293L47,22.414l2.293,2.293C49.488,24.902,49.744,25,50,25s0.512-0.098,0.707-0.293
		c0.391-0.391,0.391-1.023,0-1.414L48.414,21l2.293-2.293C51.098,18.316,51.098,17.684,50.707,17.293z"/>
	<path fill="#231F20" d="M12.293,38.293l-2,2c-0.391,0.391-0.391,1.023,0,1.414C10.488,41.902,10.744,42,11,42
		s0.512-0.098,0.707-0.293l2-2c0.391-0.391,0.391-1.023,0-1.414C13.316,37.902,12.684,37.902,12.293,38.293z"/>
	<path fill="#231F20" d="M19.293,31.293l-2,2c-0.391,0.391-0.391,1.023,0,1.414C17.488,34.902,17.744,35,18,35
		s0.512-0.098,0.707-0.293l2-2c0.391-0.391,0.391-1.023,0-1.414C20.316,30.902,19.684,30.902,19.293,31.293z"/>
	<path fill="#231F20" d="M47,27c-0.552,0-1,0.448-1,1v2c0,0.552,0.448,1,1,1s1-0.448,1-1v-2C48,27.448,47.552,27,47,27z"/>
	<path fill="#231F20" d="M34.707,32.293c-0.391-0.391-1.023-0.391-1.414,0c-0.391,0.391-0.391,1.023,0,1.414l2,2
		C35.488,35.902,35.744,36,36,36s0.512-0.098,0.707-0.293c0.391-0.391,0.391-1.023,0-1.414L34.707,32.293z"/>
	<path fill="#231F20" d="M28,27h-2c-0.552,0-1,0.448-1,1s0.448,1,1,1h2c0.552,0,1-0.448,1-1S28.552,27,28,27z"/>
	<path fill="#231F20" d="M44.293,34.293l-2,2c-0.391,0.391-0.391,1.023,0,1.414C42.488,37.902,42.744,38,43,38
		s0.512-0.098,0.707-0.293l2-2c0.391-0.391,0.391-1.023,0-1.414C45.316,33.902,44.684,33.902,44.293,34.293z"/>
</g>
</svg>
