<?xml version="1.0" encoding="utf-8"?>
<!-- Generator: Adobe Illustrator 17.0.0, SVG Export Plug-In . SVG Version: 6.00 Build 0)  -->
<!DOCTYPE svg PUBLIC "-//W3C//DTD SVG 1.1//EN" "http://www.w3.org/Graphics/SVG/1.1/DTD/svg11.dtd">
<svg version="1.1" id="Layer_1" xmlns="http://www.w3.org/2000/svg" xmlns:xlink="http://www.w3.org/1999/xlink" x="0px" y="0px"
	 width="60px" height="60px" viewBox="0 0 60 60" enable-background="new 0 0 60 60" xml:space="preserve">
<g>
	<path fill="#231F20" d="M49,13c-0.55,0-1.112,0.045-1.678,0.136C45.167,5.468,38.035,0,30,0c-5.611,0-10.917,2.648-14.318,7.113
		C15.09,7.037,14.535,7,14,7C6.28,7,0,13.28,0,21c0,7.72,6.28,14,14,14c2.293,0,4.558-0.572,6.589-1.661
		c2.263,1.392,4.787,2.247,7.411,2.54V59c0,0.552,0.448,1,1,1s1-0.448,1-1v-8.586l5.247-5.247C36.038,45.691,36.983,46,38,46
		c2.757,0,5-2.243,5-5c0-2.757-2.243-5-5-5c-2.757,0-5,2.243-5,5c0,1.017,0.309,1.962,0.833,2.753L30,47.586V36
		c4.158,0,8.163-1.442,11.38-4.078C43.424,33.889,46.149,35,49,35c6.065,0,11-4.935,11-11C60,17.935,55.065,13,49,13z M38,38
		c1.654,0,3,1.346,3,3s-1.346,3-3,3s-3-1.346-3-3S36.346,38,38,38z M49,33c-2.604,0-5.081-1.135-6.797-3.114
		c-0.176-0.204-0.428-0.327-0.697-0.343c-0.268-0.012-0.534,0.078-0.733,0.26C37.81,32.509,33.984,34,30,34
		c-3.15,0-6.202-0.92-8.826-2.66c-0.167-0.111-0.36-0.167-0.553-0.167c-0.176,0-0.353,0.046-0.511,0.14
		C18.253,32.417,16.14,33,14,33C7.383,33,2,27.617,2,21S7.383,9,14,9c0.605,0,1.249,0.058,1.969,0.177
		c0.375,0.06,0.757-0.097,0.979-0.409C19.951,4.53,24.831,2,30,2c7.435,0,14,5.267,15.609,12.523c0.058,0.263,0.22,0.491,0.45,0.633
		c0.229,0.142,0.507,0.185,0.767,0.121C47.565,15.093,48.296,15,49,15c4.962,0,9,4.038,9,9S53.962,33,49,33z"/>
</g>
</svg>
