<?xml version="1.0" encoding="utf-8"?>
<!-- Generator: Adobe Illustrator 17.0.0, SVG Export Plug-In . SVG Version: 6.00 Build 0)  -->
<!DOCTYPE svg PUBLIC "-//W3C//DTD SVG 1.1//EN" "http://www.w3.org/Graphics/SVG/1.1/DTD/svg11.dtd">
<svg version="1.1" id="Layer_2" xmlns="http://www.w3.org/2000/svg" xmlns:xlink="http://www.w3.org/1999/xlink" x="0px" y="0px"
	 width="48px" height="48px" viewBox="0 0 48 48" enable-background="new 0 0 48 48" xml:space="preserve">
<g>
	<path fill="#010101" d="M24,18c-3.309,0-6,2.691-6,6c0,3.309,2.664,6,5.937,6C27.28,30,30,27.336,30,24.063
		C30,20.72,27.309,18,24,18z"/>
	<path fill="#010101" d="M46,10h1c0.552,0,1-0.448,1-1V3c0-1.654-1.346-3-3-3h-6c-0.552,0-1,0.448-1,1v1c0,1.103-0.897,2-2,2
		s-2-0.897-2-2V1c0-0.552-0.448-1-1-1h-6c-0.552,0-1,0.448-1,1v1c0,1.103-0.897,2-2,2s-2-0.897-2-2V1c0-0.552-0.448-1-1-1h-6
		c-0.552,0-1,0.448-1,1v1c0,1.103-0.897,2-2,2s-2-0.897-2-2V1c0-0.552-0.448-1-1-1H3C1.346,0,0,1.346,0,3v6c0,0.552,0.448,1,1,1h1
		c1.103,0,2,0.897,2,2s-0.897,2-2,2H1c-0.552,0-1,0.448-1,1v6c0,0.552,0.448,1,1,1h1c1.103,0,2,0.897,2,2s-0.897,2-2,2H1
		c-0.552,0-1,0.448-1,1v6c0,0.552,0.448,1,1,1h1c1.103,0,2,0.897,2,2s-0.897,2-2,2H1c-0.552,0-1,0.448-1,1v6c0,1.654,1.346,3,3,3h6
		c0.552,0,1-0.448,1-1v-1c0-1.103,0.897-2,2-2s2,0.897,2,2v1c0,0.552,0.448,1,1,1h6c0.552,0,1-0.448,1-1v-1c0-1.103,0.897-2,2-2
		s2,0.897,2,2v1c0,0.552,0.448,1,1,1h6c0.552,0,1-0.448,1-1v-1c0-1.103,0.897-2,2-2s2,0.897,2,2v1c0,0.552,0.448,1,1,1h6
		c1.654,0,3-1.346,3-3v-6c0-0.552-0.448-1-1-1h-1c-1.103,0-2-0.897-2-2s0.897-2,2-2h1c0.552,0,1-0.448,1-1v-6c0-0.552-0.448-1-1-1
		h-1c-1.103,0-2-0.897-2-2s0.897-2,2-2h1c0.552,0,1-0.448,1-1v-6c0-0.552-0.448-1-1-1h-1c-1.103,0-2-0.897-2-2S44.897,10,46,10z
		 M33.806,32c-1.291,0-2.274-0.333-2.925-0.99c-0.539-0.545-0.748-1.196-0.83-1.787C28.571,30.92,26.382,32,23.937,32
		C19.56,32,16,28.411,16,24c0-4.411,3.589-8,8-8c2.39,0,4.533,1.067,6,2.748V18c0-0.552,0.448-1,1-1c0.552,0,1,0.448,1,1
		l-0.001,6.045c0,0.006,0.001,0.011,0.001,0.017c0,0.006-0.001,0.011-0.001,0.017l-0.001,4.103c-0.005,0.491-0.011,1.102,0.304,1.42
		C32.56,29.863,33.079,30,33.806,30c2.851,0,4.343-3.356,4.343-6.672c0-3.055-1.195-6.051-3.28-8.221
		C32.287,12.42,28.394,11,23.612,11c-7.154,0-12.974,5.832-12.974,13c0,7.169,5.855,13,13.052,13c2.319,0,4.665-0.617,6.603-1.738
		c0.478-0.277,1.089-0.114,1.366,0.365c0.276,0.478,0.113,1.09-0.365,1.366C29.056,38.287,26.355,39,23.689,39
		c-8.3,0-15.052-6.729-15.052-15S15.355,9,23.612,9c5.339,0,9.73,1.633,12.699,4.722c2.439,2.539,3.838,6.039,3.838,9.606
		C40.148,28.353,37.481,32,33.806,32z"/>
</g>
</svg>
