<?xml version="1.0" encoding="utf-8"?>
<!-- Generator: Adobe Illustrator 17.0.0, SVG Export Plug-In . SVG Version: 6.00 Build 0)  -->
<!DOCTYPE svg PUBLIC "-//W3C//DTD SVG 1.1//EN" "http://www.w3.org/Graphics/SVG/1.1/DTD/svg11.dtd">
<svg version="1.1" id="Layer_2" xmlns="http://www.w3.org/2000/svg" xmlns:xlink="http://www.w3.org/1999/xlink" x="0px" y="0px"
	 width="48px" height="48px" viewBox="0 0 48 48" enable-background="new 0 0 48 48" xml:space="preserve">
<path fill="#010101" d="M46.636,22.228l-17-14c-0.299-0.246-0.711-0.297-1.062-0.132C28.223,8.261,28,8.613,28,9v7H5
	c-0.552,0-1,0.448-1,1v12c0,0.552,0.448,1,1,1h23v7c0,0.387,0.223,0.739,0.573,0.904C28.709,37.969,28.855,38,29,38
	c0.227,0,0.453-0.078,0.636-0.228l17-14C46.866,23.582,47,23.299,47,23S46.866,22.418,46.636,22.228z"/>
</svg>
