<?xml version="1.0" encoding="utf-8"?>
<!-- Generator: Adobe Illustrator 17.0.0, SVG Export Plug-In . SVG Version: 6.00 Build 0)  -->
<!DOCTYPE svg PUBLIC "-//W3C//DTD SVG 1.1//EN" "http://www.w3.org/Graphics/SVG/1.1/DTD/svg11.dtd">
<svg version="1.1" id="Layer_2" xmlns="http://www.w3.org/2000/svg" xmlns:xlink="http://www.w3.org/1999/xlink" x="0px" y="0px"
	 width="48px" height="48px" viewBox="0 0 48 48" enable-background="new 0 0 48 48" xml:space="preserve">
<path fill="#010101" d="M47.988,22.939c-0.004-0.067-0.022-0.13-0.04-0.196c-0.018-0.066-0.034-0.128-0.064-0.188
	c-0.01-0.019-0.009-0.04-0.02-0.059l-7-12C40.685,10.189,40.355,10,40,10H8c-0.356,0-0.685,0.189-0.864,0.496l-7,12
	c-0.011,0.019-0.011,0.04-0.02,0.059c-0.03,0.059-0.046,0.122-0.064,0.188c-0.018,0.066-0.036,0.129-0.04,0.196
	C0.011,22.96,0,22.979,0,23v14c0,0.552,0.448,1,1,1h46c0.552,0,1-0.448,1-1V23C48,22.979,47.989,22.96,47.988,22.939z M32.999,22
	c-0.265,0-0.52,0.106-0.708,0.293c-0.187,0.188-0.292,0.442-0.292,0.708L32,25c0,1.654-1.346,3-3,3h-9c-1.654,0-3-1.346-3-3v-2
	c0-0.552-0.448-1-1-1H2.741l5.833-10h30.852l5.833,10H32.999z"/>
</svg>
