<?xml version="1.0" encoding="utf-8"?>
<!-- Generator: Adobe Illustrator 17.0.0, SVG Export Plug-In . SVG Version: 6.00 Build 0)  -->
<!DOCTYPE svg PUBLIC "-//W3C//DTD SVG 1.1//EN" "http://www.w3.org/Graphics/SVG/1.1/DTD/svg11.dtd">
<svg version="1.1" id="Layer_2" xmlns="http://www.w3.org/2000/svg" xmlns:xlink="http://www.w3.org/1999/xlink" x="0px" y="0px"
	 width="48px" height="48px" viewBox="0 0 48 48" enable-background="new 0 0 48 48" xml:space="preserve">
<g>
	<path fill="#010101" d="M47.988,32.939c-0.004-0.067-0.022-0.13-0.04-0.196c-0.018-0.065-0.034-0.128-0.064-0.188
		c-0.01-0.019-0.009-0.04-0.02-0.059l-7-12C40.685,20.189,40.356,20,40,20h-6c-0.552,0-1,0.448-1,1s0.448,1,1,1h5.426l5.833,10H33
		c-0.552,0-1,0.448-1,1v2c0,1.654-1.346,3-3,3h-9c-1.654,0-3-1.346-3-3v-2c0-0.552-0.448-1-1-1H2.741l5.833-10H13
		c0.552,0,1-0.448,1-1s-0.448-1-1-1H8c-0.355,0-0.685,0.189-0.864,0.496l-7,12c-0.011,0.019-0.011,0.04-0.02,0.059
		c-0.03,0.06-0.046,0.123-0.064,0.188c-0.018,0.066-0.036,0.129-0.04,0.196C0.011,32.96,0,32.979,0,33v14c0,0.552,0.448,1,1,1h46
		c0.552,0,1-0.448,1-1V33C48,32.979,47.989,32.96,47.988,32.939z"/>
	<path fill="#010101" d="M22.293,23.707c0.092,0.092,0.203,0.165,0.325,0.216C22.74,23.973,22.87,24,23,24s0.26-0.027,0.382-0.077
		c0.122-0.051,0.233-0.124,0.325-0.216l8-8c0.391-0.391,0.391-1.023,0-1.414c-0.391-0.391-1.023-0.391-1.414,0L24,20.586V1
		c0-0.552-0.448-1-1-1s-1,0.448-1,1v19.586l-6.293-6.293c-0.391-0.391-1.023-0.391-1.414,0c-0.391,0.391-0.391,1.023,0,1.414
		L22.293,23.707z"/>
</g>
</svg>
