<?xml version="1.0" encoding="utf-8"?>
<!-- Generator: Adobe Illustrator 17.0.0, SVG Export Plug-In . SVG Version: 6.00 Build 0)  -->
<!DOCTYPE svg PUBLIC "-//W3C//DTD SVG 1.1//EN" "http://www.w3.org/Graphics/SVG/1.1/DTD/svg11.dtd">
<svg version="1.1" id="Layer_2" xmlns="http://www.w3.org/2000/svg" xmlns:xlink="http://www.w3.org/1999/xlink" x="0px" y="0px"
	 width="48px" height="48px" viewBox="0 0 48 48" enable-background="new 0 0 48 48" xml:space="preserve">
<g>
	<path fill="#010101" d="M44.56,16.172c-0.066-0.045-0.137-0.08-0.21-0.107l0-0.001l-8-3l-0.702,1.873l5.583,2.093L24,23.923
		L6.768,17.03l5.583-2.093l-0.702-1.873l-8,3l0.001,0.001c-0.073,0.027-0.144,0.062-0.21,0.107C3.165,16.358,3,16.668,3,17v20
		c0,0.379,0.214,0.725,0.553,0.895l20,10C23.693,47.965,23.847,48,24,48c0.153,0,0.307-0.035,0.447-0.105l20-10
		C44.786,37.725,45,37.379,45,37V17C45,16.668,44.835,16.358,44.56,16.172z"/>
	<path fill="#010101" d="M23.293,17.707c0.092,0.092,0.203,0.165,0.325,0.216C23.74,17.973,23.87,18,24,18
		c0.13,0,0.26-0.027,0.382-0.077c0.122-0.051,0.233-0.124,0.325-0.216l8-8c0.391-0.391,0.391-1.023,0-1.414
		c-0.391-0.391-1.023-0.391-1.414,0L25,14.586V1c0-0.552-0.448-1-1-1c-0.552,0-1,0.448-1,1v13.586l-6.293-6.293
		c-0.391-0.391-1.023-0.391-1.414,0c-0.391,0.391-0.391,1.023,0,1.414L23.293,17.707z"/>
</g>
</svg>
