<?xml version="1.0" encoding="utf-8"?>
<!-- Generator: Adobe Illustrator 17.0.0, SVG Export Plug-In . SVG Version: 6.00 Build 0)  -->
<!DOCTYPE svg PUBLIC "-//W3C//DTD SVG 1.1//EN" "http://www.w3.org/Graphics/SVG/1.1/DTD/svg11.dtd">
<svg version="1.1" id="Layer_2" xmlns="http://www.w3.org/2000/svg" xmlns:xlink="http://www.w3.org/1999/xlink" x="0px" y="0px"
	 width="48px" height="48px" viewBox="0 0 48 48" enable-background="new 0 0 48 48" xml:space="preserve">
<path fill="#010101" d="M47.988,32.939c-0.004-0.067-0.022-0.13-0.04-0.196c-0.018-0.065-0.034-0.128-0.064-0.188
	c-0.01-0.019-0.009-0.04-0.02-0.059l-7-12C40.685,20.189,40.356,20,40,20h-2V3c0-0.552-0.448-1-1-1H11c-0.552,0-1,0.448-1,1v17H8
	c-0.356,0-0.685,0.189-0.864,0.496l-7,12c-0.011,0.019-0.011,0.04-0.02,0.059c-0.03,0.06-0.046,0.123-0.064,0.188
	c-0.018,0.066-0.036,0.129-0.04,0.196C0.011,32.96,0,32.979,0,33v14c0,0.552,0.448,1,1,1h46c0.552,0,1-0.448,1-1V33
	C48,32.979,47.989,32.96,47.988,32.939z M21,12h10c0.552,0,1,0.448,1,1s-0.448,1-1,1H21c-0.552,0-1-0.448-1-1S20.448,12,21,12z
	 M17,8h2c0.552,0,1,0.448,1,1s-0.448,1-1,1h-2c-0.552,0-1-0.448-1-1S16.448,8,17,8z M17,16h14c0.552,0,1,0.448,1,1s-0.448,1-1,1H17
	c-0.552,0-1-0.448-1-1S16.448,16,17,16z M17,20h14c0.552,0,1,0.448,1,1s-0.448,1-1,1H17c-0.552,0-1-0.448-1-1S16.448,20,17,20z
	 M17,24h14c0.552,0,1,0.448,1,1s-0.448,1-1,1H17c-0.552,0-1-0.448-1-1S16.448,24,17,24z M33,32c-0.552,0-1,0.448-1,1v2
	c0,1.654-1.346,3-3,3h-9c-1.654,0-3-1.346-3-3v-2c0-0.552-0.448-1-1-1H2.741l5.833-10H10v7c0,0.552,0.448,1,1,1h26
	c0.552,0,1-0.448,1-1v-7h1.426l5.833,10H33z"/>
</svg>
