<?xml version="1.0" encoding="utf-8"?>
<!-- Generator: Adobe Illustrator 17.0.0, SVG Export Plug-In . SVG Version: 6.00 Build 0)  -->
<!DOCTYPE svg PUBLIC "-//W3C//DTD SVG 1.1//EN" "http://www.w3.org/Graphics/SVG/1.1/DTD/svg11.dtd">
<svg version="1.1" id="Layer_2" xmlns="http://www.w3.org/2000/svg" xmlns:xlink="http://www.w3.org/1999/xlink" x="0px" y="0px"
	 width="48px" height="48px" viewBox="0 0 48 48" enable-background="new 0 0 48 48" xml:space="preserve">
<g>
	<path fill="#010101" d="M44,16H4c-2.206,0-4,1.794-4,4v24c0,2.206,1.794,4,4,4h40c2.206,0,4-1.794,4-4V20
		C48,17.794,46.206,16,44,16z M9,24h4c0.552,0,1,0.448,1,1c0,0.552-0.448,1-1,1H9c-0.552,0-1-0.448-1-1C8,24.448,8.448,24,9,24z
		 M9,36h18c0.552,0,1,0.448,1,1c0,0.552-0.448,1-1,1H9c-0.552,0-1-0.448-1-1C8,36.448,8.448,36,9,36z M33,42H9c-0.552,0-1-0.448-1-1
		c0-0.552,0.448-1,1-1h24c0.552,0,1,0.448,1,1C34,41.552,33.552,42,33,42z M42,31c0,0.552-0.448,1-1,1h-8c-0.552,0-1-0.448-1-1v-8
		c0-0.552,0.448-1,1-1h8c0.552,0,1,0.448,1,1V31z"/>
	<path fill="#010101" d="M5,14h38c0.552,0,1-0.448,1-1c0-0.552-0.448-1-1-1H5c-0.552,0-1,0.448-1,1C4,13.552,4.448,14,5,14z"/>
	<path fill="#010101" d="M9,10h30c0.552,0,1-0.448,1-1c0-0.552-0.448-1-1-1H9C8.448,8,8,8.448,8,9C8,9.552,8.448,10,9,10z"/>
	<path fill="#010101" d="M13,6h22c0.552,0,1-0.448,1-1c0-0.552-0.448-1-1-1H13c-0.552,0-1,0.448-1,1C12,5.552,12.448,6,13,6z"/>
</g>
</svg>
