<?xml version="1.0" encoding="utf-8"?>
<!-- Generator: Adobe Illustrator 17.0.0, SVG Export Plug-In . SVG Version: 6.00 Build 0)  -->
<!DOCTYPE svg PUBLIC "-//W3C//DTD SVG 1.1//EN" "http://www.w3.org/Graphics/SVG/1.1/DTD/svg11.dtd">
<svg version="1.1" id="Layer_2" xmlns="http://www.w3.org/2000/svg" xmlns:xlink="http://www.w3.org/1999/xlink" x="0px" y="0px"
	 width="48px" height="48px" viewBox="0 0 48 48" enable-background="new 0 0 48 48" xml:space="preserve">
<path fill="#010101" d="M44,11.258H4c-2.206,0-4,1.794-4,4v24c0,2.206,1.794,4,4,4h40c2.206,0,4-1.794,4-4v-24
	C48,13.053,46.206,11.258,44,11.258z M9,19.258h4c0.552,0,1,0.448,1,1c0,0.552-0.448,1-1,1H9c-0.552,0-1-0.448-1-1
	C8,19.706,8.448,19.258,9,19.258z M9,31.258h18c0.552,0,1,0.448,1,1s-0.448,1-1,1H9c-0.552,0-1-0.448-1-1S8.448,31.258,9,31.258z
	 M33,37.258H9c-0.552,0-1-0.448-1-1s0.448-1,1-1h24c0.552,0,1,0.448,1,1S33.552,37.258,33,37.258z M42,26.258c0,0.552-0.448,1-1,1
	h-8c-0.552,0-1-0.448-1-1v-8c0-0.552,0.448-1,1-1h8c0.552,0,1,0.448,1,1V26.258z"/>
</svg>
