<?xml version="1.0" encoding="utf-8"?>
<!-- Generator: Adobe Illustrator 17.0.0, SVG Export Plug-In . SVG Version: 6.00 Build 0)  -->
<!DOCTYPE svg PUBLIC "-//W3C//DTD SVG 1.1//EN" "http://www.w3.org/Graphics/SVG/1.1/DTD/svg11.dtd">
<svg version="1.1" id="Layer_2" xmlns="http://www.w3.org/2000/svg" xmlns:xlink="http://www.w3.org/1999/xlink" x="0px" y="0px"
	 width="48px" height="48px" viewBox="0 0 48 48" enable-background="new 0 0 48 48" xml:space="preserve">
<g>
	<path fill="#010101" d="M47.707,46.293l-6.054-6.054h0l-2.946-2.946C38.518,37.104,38.267,37,38,37
		c-0.267,0-0.518,0.104-0.707,0.293C37.104,37.482,37,37.733,37,38c0,0.267,0.104,0.518,0.293,0.707l2.946,2.946l0,0l6.054,6.054
		c0.002,0.002,0.005,0.003,0.007,0.004c0.377,0.37,1.023,0.37,1.4,0c0.002-0.002,0.005-0.002,0.007-0.004
		c0.097-0.097,0.169-0.209,0.218-0.329C47.974,47.26,48,47.132,48,47c0-0.132-0.026-0.26-0.075-0.378
		C47.876,46.502,47.804,46.39,47.707,46.293z"/>
	<path fill="#010101" d="M39.414,11.414C39.036,11.792,38.534,12,38,12c-0.534,0-1.036-0.208-1.414-0.586
		C36.208,11.036,36,10.534,36,10c0-0.534,0.208-1.036,0.586-1.414l2.9-2.9C35.303,2.143,29.898,0,24,0
		C18.102,0,12.697,2.143,8.514,5.686l2.9,2.9C11.792,8.964,12,9.466,12,10c0,0.534-0.208,1.036-0.586,1.414
		C11.036,11.792,10.534,12,10,12c-0.534,0-1.036-0.208-1.414-0.586l-2.9-2.9C2.143,12.697,0,18.102,0,24
		c0,5.898,2.143,11.303,5.686,15.486l2.9-2.9c0.756-0.756,2.072-0.756,2.828,0C11.792,36.964,12,37.466,12,38
		c0,0.534-0.208,1.036-0.586,1.414l-2.9,2.9C12.697,45.857,18.102,48,24,48c5.898,0,11.303-2.143,15.486-5.685l-2.9-2.9
		C36.208,39.036,36,38.534,36,38c0-0.534,0.208-1.036,0.586-1.414c0.756-0.756,2.072-0.756,2.828,0l2.9,2.9
		C45.857,35.303,48,29.898,48,24c0-5.898-2.143-11.303-5.686-15.486L39.414,11.414z M38,32c0,2.206-1.794,4-4,4H14
		c-2.206,0-4-1.794-4-4V18c0-2.206,1.794-4,4-4h20c2.206,0,4,1.794,4,4V32z"/>
	<path fill="#010101" d="M37,10c0,0.267,0.104,0.518,0.293,0.707c0.378,0.378,1.036,0.378,1.414,0l2.946-2.946h0l6.054-6.054
		c0.097-0.097,0.169-0.209,0.218-0.329C47.974,1.26,48,1.132,48,1c0-0.132-0.026-0.26-0.075-0.378
		c-0.049-0.12-0.121-0.232-0.218-0.329c-0.097-0.097-0.209-0.169-0.329-0.218C47.26,0.026,47.132,0,47,0
		c-0.132,0-0.26,0.026-0.379,0.075c-0.119,0.049-0.231,0.121-0.328,0.218l-6.054,6.054l0,0l-2.946,2.946
		C37.104,9.482,37,9.733,37,10z"/>
	<path fill="#010101" d="M0.293,1.707l6.054,6.054h0l2.946,2.946c0.378,0.378,1.036,0.378,1.414,0C10.896,10.518,11,10.267,11,10
		c0-0.267-0.104-0.518-0.293-0.707L7.761,6.347l0,0L1.707,0.293C1.61,0.196,1.498,0.124,1.378,0.075C1.26,0.026,1.132,0,1,0
		C0.868,0,0.74,0.026,0.621,0.075C0.502,0.124,0.39,0.196,0.293,0.293C0.196,0.39,0.124,0.502,0.075,0.622C0.026,0.74,0,0.868,0,1
		c0,0.132,0.026,0.26,0.075,0.378C0.124,1.498,0.196,1.61,0.293,1.707z"/>
	<path fill="#010101" d="M28.387,24.855l5.226-4.065c0.436-0.339,0.515-0.968,0.176-1.403c-0.34-0.436-0.969-0.514-1.403-0.176
		L24,25.733l-8.386-6.523c-0.435-0.338-1.064-0.261-1.403,0.176c-0.339,0.436-0.26,1.064,0.176,1.403l5.226,4.065l-5.253,4.377
		c-0.424,0.353-0.481,0.984-0.128,1.408C14.43,30.877,14.714,31,15,31c0.226,0,0.453-0.076,0.64-0.232l5.588-4.657l2.158,1.678
		C23.566,27.93,23.783,28,24,28c0.217,0,0.434-0.07,0.614-0.21l2.158-1.678l5.588,4.657C32.547,30.924,32.774,31,32.999,31
		c0.287,0,0.571-0.123,0.769-0.36c0.354-0.424,0.296-1.055-0.128-1.408L28.387,24.855z"/>
	<path fill="#010101" d="M11,38c0-0.267-0.104-0.518-0.293-0.707C10.518,37.104,10.267,37,10,37c-0.267,0-0.518,0.104-0.707,0.293
		l-2.946,2.946h0l-6.054,6.054c-0.097,0.097-0.169,0.209-0.218,0.329C0.026,46.74,0,46.868,0,47c0,0.132,0.026,0.26,0.075,0.378
		c0.049,0.12,0.121,0.232,0.218,0.329c0.002,0.002,0.005,0.003,0.007,0.004c0.377,0.37,1.023,0.37,1.4,0
		c0.002-0.002,0.005-0.002,0.007-0.004l6.054-6.054l0,0l2.946-2.946C10.896,38.518,11,38.267,11,38z"/>
</g>
</svg>
