<?xml version="1.0" encoding="utf-8"?>
<!-- Generator: Adobe Illustrator 17.0.0, SVG Export Plug-In . SVG Version: 6.00 Build 0)  -->
<!DOCTYPE svg PUBLIC "-//W3C//DTD SVG 1.1//EN" "http://www.w3.org/Graphics/SVG/1.1/DTD/svg11.dtd">
<svg version="1.1" id="Layer_2" xmlns="http://www.w3.org/2000/svg" xmlns:xlink="http://www.w3.org/1999/xlink" x="0px" y="0px"
	 width="48px" height="48px" viewBox="0 0 48 48" enable-background="new 0 0 48 48" xml:space="preserve">
<g>
	<path fill="#010101" d="M47.517,13.241C46.983,12.452,46.054,12,44.968,12h-24c-2.061,0-4.314,1.594-5.129,3.628l-5.599,14
		c-0.458,1.144-0.393,2.285,0.179,3.13C10.953,33.548,11.882,34,12.968,34h24c2.061,0,4.313-1.594,5.129-3.628l5.599-14
		C48.154,15.228,48.089,14.086,47.517,13.241z M22.749,25.814l-7,5C15.574,30.94,15.371,31,15.169,31
		c-0.312,0-0.62-0.145-0.815-0.419c-0.321-0.449-0.217-1.074,0.233-1.395l7-5c0.448-0.32,1.074-0.217,1.395,0.233
		C23.303,24.868,23.199,25.493,22.749,25.814z M37.683,30.857C37.522,30.954,37.345,31,37.169,31c-0.34,0-0.671-0.173-0.858-0.485
		l-3-5c-0.284-0.474-0.131-1.088,0.343-1.372c0.473-0.284,1.087-0.131,1.372,0.343l3,5C38.31,29.959,38.157,30.573,37.683,30.857z
		 M42.858,17.871l-14.199,8C28.505,25.958,28.336,26,28.169,26c-0.263,0-0.523-0.103-0.716-0.302l-7.801-8
		c-0.386-0.396-0.378-1.029,0.017-1.414c0.395-0.386,1.029-0.377,1.414,0.018l7.265,7.45l13.529-7.623
		c0.48-0.273,1.091-0.101,1.362,0.38C43.509,16.99,43.339,17.6,42.858,17.871z"/>
	<path fill="#010101" d="M1,14h10c0.552,0,1-0.448,1-1c0-0.552-0.448-1-1-1H1c-0.552,0-1,0.448-1,1C0,13.552,0.448,14,1,14z"/>
	<path fill="#010101" d="M5,30H1c-0.552,0-1,0.448-1,1c0,0.552,0.448,1,1,1h4c0.552,0,1-0.448,1-1C6,30.448,5.552,30,5,30z"/>
	<path fill="#010101" d="M7,20H1c-0.552,0-1,0.448-1,1c0,0.552,0.448,1,1,1h6c0.552,0,1-0.448,1-1C8,20.448,7.552,20,7,20z"/>
</g>
</svg>
