<?xml version="1.0" encoding="utf-8"?>
<!-- Generator: Adobe Illustrator 17.0.0, SVG Export Plug-In . SVG Version: 6.00 Build 0)  -->
<!DOCTYPE svg PUBLIC "-//W3C//DTD SVG 1.1//EN" "http://www.w3.org/Graphics/SVG/1.1/DTD/svg11.dtd">
<svg version="1.1" id="Layer_2" xmlns="http://www.w3.org/2000/svg" xmlns:xlink="http://www.w3.org/1999/xlink" x="0px" y="0px"
	 width="48px" height="48px" viewBox="0 0 48 48" enable-background="new 0 0 48 48" xml:space="preserve">
<g>
	<path fill="#010101" d="M35.612,25.258c2.4,0,4.609,0.81,6.388,2.159V17.394l-12.526,6.745c-0.151,0.081-0.313,0.12-0.473,0.12
		c-0.356,0-0.701-0.19-0.881-0.526c-0.262-0.486-0.08-1.093,0.406-1.354l12.237-6.589L21.624,0.478
		c-0.365-0.292-0.884-0.292-1.249,0L1.237,15.789l12.237,6.589c0.486,0.262,0.668,0.868,0.406,1.354
		c-0.181,0.335-0.525,0.526-0.881,0.526c-0.16,0-0.322-0.038-0.473-0.12L0,17.394v18.864c0,2.206,1.794,4,4,4h21.962
		C25.35,38.919,25,37.436,25,35.87C25,30.019,29.76,25.258,35.612,25.258z M7.624,34.039C7.44,34.187,7.22,34.258,7,34.258
		c-0.293,0-0.584-0.128-0.781-0.375c-0.345-0.431-0.275-1.06,0.156-1.405l10-8c0.177-0.142,0.397-0.219,0.625-0.219h8
		c0.552,0,1,0.448,1,1s-0.448,1-1,1h-7.649L7.624,34.039z"/>
	<path fill="#010101" d="M47.707,46.551l-3.923-3.923l-1.425-1.426c1.163-1.468,1.863-3.319,1.863-5.333
		c0-4.749-3.862-8.611-8.61-8.611c-4.748,0-8.612,3.863-8.612,8.611c0,4.748,3.863,8.61,8.612,8.61c2.014,0,3.865-0.7,5.333-1.863
		l1.425,1.425l3.923,3.923c0.195,0.195,0.451,0.293,0.707,0.293c0.256,0,0.512-0.098,0.707-0.293
		C48.098,47.575,48.098,46.942,47.707,46.551z M35.612,42.48c-3.646,0-6.612-2.965-6.612-6.61c0-3.646,2.966-6.611,6.612-6.611
		c3.645,0,6.61,2.966,6.61,6.611C42.222,39.515,39.256,42.48,35.612,42.48z"/>
</g>
</svg>
