<?xml version="1.0" encoding="utf-8"?>
<!-- Generator: Adobe Illustrator 17.0.0, SVG Export Plug-In . SVG Version: 6.00 Build 0)  -->
<!DOCTYPE svg PUBLIC "-//W3C//DTD SVG 1.1//EN" "http://www.w3.org/Graphics/SVG/1.1/DTD/svg11.dtd">
<svg version="1.1" id="Layer_2" xmlns="http://www.w3.org/2000/svg" xmlns:xlink="http://www.w3.org/1999/xlink" x="0px" y="0px"
	 width="48px" height="48px" viewBox="0 0 48 48" enable-background="new 0 0 48 48" xml:space="preserve">
<g>
	<path fill="#010101" d="M43.415,23.946L24.62,38.784c-0.182,0.144-0.4,0.215-0.62,0.215c-0.219,0-0.438-0.072-0.62-0.215
		L4.585,23.946C4.222,24.548,4,25.246,4,25.999v18c0,2.206,1.794,4,4,4h32c2.206,0,4-1.794,4-4v-18
		C44,25.246,43.778,24.548,43.415,23.946z"/>
	<path fill="#010101" d="M41.969,22.539c-0.584-0.334-1.25-0.54-1.969-0.54H8c-0.719,0-1.386,0.206-1.969,0.54L24,36.725
		L41.969,22.539z"/>
	<path fill="#010101" d="M15.707,10.706L23,3.413v14.586c0,0.552,0.448,1,1,1c0.552,0,1-0.448,1-1V3.413l7.293,7.293
		c0.195,0.195,0.451,0.293,0.707,0.293c0.256,0,0.512-0.098,0.707-0.293c0.391-0.391,0.391-1.023,0-1.414l-9-9
		c-0.092-0.092-0.203-0.165-0.325-0.216c-0.244-0.101-0.52-0.101-0.764,0c-0.122,0.051-0.233,0.124-0.325,0.216l-9,9
		c-0.391,0.391-0.391,1.023,0,1.414C14.684,11.097,15.316,11.097,15.707,10.706z"/>
</g>
</svg>
