<?xml version="1.0" encoding="utf-8"?>
<!-- Generator: Adobe Illustrator 17.0.0, SVG Export Plug-In . SVG Version: 6.00 Build 0)  -->
<!DOCTYPE svg PUBLIC "-//W3C//DTD SVG 1.1//EN" "http://www.w3.org/Graphics/SVG/1.1/DTD/svg11.dtd">
<svg version="1.1" id="Layer_2" xmlns="http://www.w3.org/2000/svg" xmlns:xlink="http://www.w3.org/1999/xlink" x="0px" y="0px"
	 width="48px" height="48px" viewBox="0 0 48 48" enable-background="new 0 0 48 48" xml:space="preserve">
<g>
	<path fill="#010101" d="M30.446,24c2.057,0,4.028,0.819,5.554,2.279C37.526,24.819,39.497,24,41.554,24
		c0.822,0,1.648,0.138,2.446,0.396V10c0-0.762-0.226-1.467-0.597-2.074L22.526,20.85C22.365,20.95,22.183,21,22,21
		c-0.183,0-0.365-0.05-0.526-0.15L0.597,7.926C0.225,8.533,0,9.238,0,10v22c0,2.206,1.794,4,4,4h18.529
		C22.195,35.024,22,34.043,22,33.074C22,27.394,26.294,24,30.446,24z"/>
	<path fill="#010101" d="M41.902,6.503C41.334,6.193,40.692,6,40,6H4C3.308,6,2.666,6.193,2.097,6.503L22,18.824L41.902,6.503z"/>
	<path fill="#010101" d="M47.677,30.777c-0.612-2.055-2.027-3.515-3.677-4.245C43.217,26.185,42.382,26,41.554,26
		c-1.818,0-3.558,0.868-4.774,2.382c-0.38,0.473-1.18,0.473-1.56,0C34.004,26.868,32.264,26,30.446,26
		c-2.575,0-5.221,1.747-6.123,4.777C24.115,31.476,24,32.244,24,33.074c0,2.183,1.329,4.641,3.176,6.98
		c0.077,0.097,0.153,0.193,0.232,0.289c0.116,0.143,0.237,0.285,0.357,0.427c2.693,3.171,6.038,5.823,7.221,6.721
		c0.139,0.104,0.284,0.215,0.418,0.312c0.002,0.001,0.007,0.005,0.008,0.006C35.587,47.936,35.793,48,36,48
		c0.206,0,0.413-0.064,0.588-0.191c0.002-0.001,0.007-0.005,0.008-0.006c0.134-0.098,0.278-0.208,0.418-0.312
		c1.183-0.898,4.526-3.548,7.219-6.718c0.121-0.143,0.243-0.286,0.36-0.431c0.078-0.095,0.154-0.191,0.23-0.286
		c1.563-1.979,2.751-4.041,3.081-5.952c0.008-0.046,0.014-0.092,0.021-0.138C47.97,33.664,48,33.366,48,33.074
		C48,32.244,47.885,31.476,47.677,30.777z"/>
</g>
</svg>
