<?xml version="1.0" encoding="utf-8"?>
<!-- Generator: Adobe Illustrator 17.0.0, SVG Export Plug-In . SVG Version: 6.00 Build 0)  -->
<!DOCTYPE svg PUBLIC "-//W3C//DTD SVG 1.1//EN" "http://www.w3.org/Graphics/SVG/1.1/DTD/svg11.dtd">
<svg version="1.1" id="Layer_2" xmlns="http://www.w3.org/2000/svg" xmlns:xlink="http://www.w3.org/1999/xlink" x="0px" y="0px"
	 width="48px" height="48px" viewBox="0 0 48 48" enable-background="new 0 0 48 48" xml:space="preserve">
<g>
	<path fill="none" d="M26.256,38.252c-0.007-0.066-0.021-0.13-0.026-0.196C26.236,38.122,26.249,38.186,26.256,38.252z"/>
	<path fill="none" d="M47.787,34.961c0.006,0.028,0.014,0.055,0.02,0.083C47.801,35.016,47.793,34.989,47.787,34.961z"/>
	<path fill="none" d="M26.386,39.165c-0.001-0.005-0.003-0.011-0.004-0.016C26.383,39.154,26.385,39.16,26.386,39.165z"/>
	<path fill="none" d="M34.765,47.75c-0.024-0.005-0.046-0.013-0.07-0.019C34.719,47.737,34.742,47.745,34.765,47.75z"/>
	<path fill="none" d="M47.92,35.851c0.011,0.096,0.03,0.19,0.038,0.286C47.95,36.041,47.931,35.947,47.92,35.851z"/>
	<path fill="none" d="M37.099,48c0.238,0,0.472-0.02,0.706-0.036C37.57,47.98,37.336,48,37.097,48H37.099z"/>
	<path fill="none" d="M35.853,47.929c-0.083-0.009-0.163-0.028-0.245-0.039C35.69,47.901,35.77,47.92,35.853,47.929z"/>
	<path fill="none" d="M47.983,36.789c0.004,0.149,0.018,0.296,0.016,0.446c-0.072,5.564-4.374,10.156-9.802,10.709
		c5.427-0.553,9.73-5.144,9.803-10.708C48.002,37.085,47.987,36.939,47.983,36.789z"/>
	<path fill="none" d="M26.249,36.01L26.249,36.01c-0.031,0.311-0.056,0.624-0.06,0.942c-0.001,0.074,0.008,0.146,0.008,0.22
		c0-0.074-0.009-0.146-0.008-0.219C26.193,36.635,26.217,36.322,26.249,36.01z"/>
	<path fill="none" d="M36.695,47.983c0.086,0.003,0.17,0.015,0.257,0.016l0.143,0l-0.142-0.001
		C36.866,47.998,36.781,47.986,36.695,47.983z"/>
	<path fill="#010101" d="M37.091,24.205l0.164,0.001c2.524,0.033,4.864,0.802,6.838,2.086l0.001-16.28
		c0-0.762-0.226-1.467-0.597-2.074L22.62,20.861c-0.161,0.1-0.344,0.15-0.526,0.15c-0.183,0-0.365-0.05-0.526-0.15L0.695,7.94
		c-0.374,0.605-0.601,1.309-0.601,2.069l-0.001,22c0,2.206,1.794,4,4,4l20.172,0.001C24.823,29.423,30.387,24.205,37.091,24.205z"/>
	<path fill="#010101" d="M22.094,18.835l19.902-12.32c-0.568-0.311-1.21-0.503-1.903-0.503L4.093,6.036
		c-0.684,0-1.319,0.188-1.883,0.49L22.094,18.835z"/>
	<path fill="#010101" d="M47.999,37.235c0.002-0.15-0.012-0.297-0.016-0.446c-0.006-0.218-0.006-0.437-0.025-0.652
		c-0.008-0.096-0.028-0.19-0.038-0.286c-0.031-0.271-0.062-0.542-0.113-0.807c-0.005-0.028-0.014-0.055-0.02-0.083
		c-0.985-4.94-5.318-8.705-10.551-8.772l-0.151-0.001c-5.61,0-10.285,4.327-10.836,9.822h0c-0.031,0.311-0.056,0.624-0.06,0.942
		c-0.001,0.074,0.007,0.146,0.008,0.219c0.002,0.297,0.008,0.593,0.033,0.884c0.006,0.066,0.019,0.13,0.026,0.196
		c0.032,0.302,0.069,0.603,0.126,0.897c0.001,0.005,0.003,0.011,0.004,0.016c0.819,4.238,4.103,7.619,8.31,8.566
		c0.023,0.005,0.046,0.013,0.07,0.019c0.276,0.06,0.559,0.101,0.842,0.14c0.082,0.011,0.162,0.03,0.245,0.039
		c0.277,0.031,0.56,0.043,0.842,0.054c0.086,0.003,0.171,0.015,0.257,0.016L37.095,48h0.002c0.239,0,0.473-0.02,0.709-0.036
		c0.13-0.008,0.263-0.007,0.392-0.02C43.624,47.392,47.927,42.8,47.999,37.235z M44.405,30.273l-0.063,4.888l-4.888-0.063
		c-0.552-0.007-0.994-0.46-0.987-1.013c0.007-0.548,0.454-0.987,1-0.987c0.004,0,0.009,0,0.013,0l2.036,0.026
		c-1.099-1.204-2.652-1.923-4.344-1.945c-3.292-0.078-6.034,2.613-6.077,5.922l-2-0.026c0.058-4.411,3.731-7.962,8.103-7.895
		c1.967,0.025,3.789,0.76,5.196,2.01l0.012-0.942c0.007-0.552,0.464-0.993,1.013-0.987C43.97,29.268,44.412,29.722,44.405,30.273z
		 M29.583,43.307l0.054-4.11l4.11,0.053c0.552,0.007,0.994,0.46,0.987,1.013c-0.008,0.552-0.486,0.977-1.013,0.987l-1.048-0.014
		c1.099,1.203,2.65,1.921,4.342,1.943c3.276,0.017,6.034-2.613,6.077-5.922l2,0.026c-0.057,4.375-3.635,7.896-7.998,7.896
		c-0.036,0-0.07,0-0.106,0c-2.067-0.027-3.968-0.842-5.401-2.21l-0.005,0.365c-0.007,0.548-0.454,0.987-1,0.987
		c-0.005,0-0.009,0-0.014,0C30.017,44.313,29.575,43.859,29.583,43.307z"/>
</g>
</svg>
