<?xml version="1.0" encoding="utf-8"?>
<!-- Generator: Adobe Illustrator 17.0.0, SVG Export Plug-In . SVG Version: 6.00 Build 0)  -->
<!DOCTYPE svg PUBLIC "-//W3C//DTD SVG 1.1//EN" "http://www.w3.org/Graphics/SVG/1.1/DTD/svg11.dtd">
<svg version="1.1" id="Layer_2" xmlns="http://www.w3.org/2000/svg" xmlns:xlink="http://www.w3.org/1999/xlink" x="0px" y="0px"
	 width="48px" height="48px" viewBox="0 0 48 48" enable-background="new 0 0 48 48" xml:space="preserve">
<g>
	<path fill="#010101" d="M35,20c3.379,0,6.489,1.136,9,3.029V10c0-0.762-0.226-1.467-0.597-2.074L22.526,20.85
		C22.365,20.95,22.183,21,22,21c-0.183,0-0.365-0.05-0.526-0.15L0.597,7.926C0.226,8.533,0,9.238,0,10v22c0,2.206,1.794,4,4,4
		h16.051C20.029,35.668,20,35.337,20,35C20,26.729,26.729,20,35,20z"/>
	<path fill="#010101" d="M41.902,6.503C41.334,6.193,40.692,6,40,6H4C3.308,6,2.666,6.193,2.098,6.503L22,18.824L41.902,6.503z"/>
	<path fill="#010101" d="M35,22c-7.169,0-13,5.832-13,13c0,7.169,5.831,13,13,13c7.168,0,13-5.831,13-13C48,27.832,42.168,22,35,22z
		 M41.107,39.693c0.391,0.39,0.391,1.023,0,1.414C40.912,41.302,40.656,41.4,40.4,41.4c-0.256,0-0.512-0.098-0.707-0.293L35,36.414
		l-4.694,4.693c-0.195,0.195-0.451,0.293-0.707,0.293c-0.256,0-0.512-0.098-0.707-0.293c-0.391-0.391-0.391-1.024,0-1.414L33.586,35
		l-4.694-4.693c-0.391-0.39-0.391-1.023,0-1.414c0.391-0.391,1.023-0.391,1.414,0L35,33.586l4.694-4.693
		c0.391-0.391,1.023-0.391,1.414,0c0.391,0.391,0.391,1.024,0,1.414L36.414,35L41.107,39.693z"/>
</g>
</svg>
