<?xml version="1.0" encoding="utf-8"?>
<!-- Generator: Adobe Illustrator 17.0.0, SVG Export Plug-In . SVG Version: 6.00 Build 0)  -->
<!DOCTYPE svg PUBLIC "-//W3C//DTD SVG 1.1//EN" "http://www.w3.org/Graphics/SVG/1.1/DTD/svg11.dtd">
<svg version="1.1" id="Layer_2" xmlns="http://www.w3.org/2000/svg" xmlns:xlink="http://www.w3.org/1999/xlink" x="0px" y="0px"
	 width="48px" height="48px" viewBox="0 0 48 48" enable-background="new 0 0 48 48" xml:space="preserve">
<path fill="#010101" d="M35.569,29.081c-0.174,0.12-0.372,0.178-0.568,0.178c-0.317,0-0.629-0.15-0.823-0.431
	c-0.314-0.454-0.201-1.077,0.253-1.392l12.349-8.549L24.571,3.438c-0.344-0.239-0.799-0.239-1.143,0L1.22,18.887l12.349,8.549
	c0.454,0.315,0.567,0.938,0.253,1.392c-0.194,0.28-0.506,0.431-0.823,0.431c-0.196,0-0.395-0.058-0.568-0.178L0,20.475v21.784
	c0,2.206,1.794,4,4,4h40c2.206,0,4-1.794,4-4V20.475L35.569,29.081z M41.819,38.832c-0.195,0.278-0.505,0.427-0.82,0.427
	c-0.198,0-0.398-0.059-0.572-0.181l-9.742-6.819H17.315l-9.742,6.819c-0.452,0.317-1.075,0.207-1.392-0.246
	c-0.316-0.452-0.207-1.076,0.246-1.393l10-7c0.168-0.118,0.368-0.181,0.573-0.181h14c0.205,0,0.405,0.063,0.573,0.181l10,7
	C42.026,37.756,42.136,38.379,41.819,38.832z"/>
</svg>
