<?xml version="1.0" encoding="utf-8"?>
<!-- Generator: Adobe Illustrator 17.0.0, SVG Export Plug-In . SVG Version: 6.00 Build 0)  -->
<!DOCTYPE svg PUBLIC "-//W3C//DTD SVG 1.1//EN" "http://www.w3.org/Graphics/SVG/1.1/DTD/svg11.dtd">
<svg version="1.1" id="Layer_2" xmlns="http://www.w3.org/2000/svg" xmlns:xlink="http://www.w3.org/1999/xlink" x="0px" y="0px"
	 width="48px" height="48px" viewBox="0 0 48 48" enable-background="new 0 0 48 48" xml:space="preserve">
<g>
	<path fill="#010101" d="M22.439,32.175c0.455-1.259,1.657-2.072,3.061-2.072h4.649l2.961-5.899
		c0.568-1.134,1.681-1.838,2.904-1.838c1.228,0,2.343,0.709,2.91,1.85l2.933,5.887H44v-20c0-0.762-0.226-1.467-0.597-2.074
		L22.526,20.953c-0.161,0.1-0.344,0.15-0.526,0.15c-0.183,0-0.365-0.05-0.526-0.15L0.597,8.029C0.225,8.636,0,9.341,0,10.103v22
		c0,2.206,1.794,4,4,4h19.914l-0.45-0.375C22.385,34.829,21.983,33.434,22.439,32.175z"/>
	<path fill="#010101" d="M41.902,6.606C41.334,6.295,40.692,6.103,40,6.103H4c-0.692,0-1.334,0.193-1.903,0.503L22,18.927
		L41.902,6.606z"/>
	<path fill="#010101" d="M47.681,32.857c-0.039-0.107-0.097-0.204-0.166-0.292c-0.024-0.031-0.059-0.057-0.087-0.086
		c-0.055-0.056-0.11-0.112-0.177-0.156c-0.035-0.024-0.08-0.04-0.119-0.06c-0.071-0.037-0.142-0.075-0.222-0.098
		c-0.123-0.036-0.257-0.061-0.41-0.061h-5.881h0l-3.485-6.997c-0.228-0.457-0.656-0.741-1.12-0.741c-0.462,0-0.89,0.282-1.117,0.735
		l-3.514,7.002h0H25.5c-0.551,0-1.015,0.296-1.18,0.753c-0.168,0.465-0.006,0.977,0.424,1.335l2.293,1.911h0.001l2.797,2.331l0,0h0
		l-2.626,7.879c0,0.001,0,0.002-0.001,0.004c-0.041,0.125-0.059,0.237-0.068,0.344c-0.005,0.054-0.002,0.107,0,0.16
		c0.002,0.05,0.003,0.1,0.011,0.146c0.009,0.057,0.023,0.112,0.04,0.166c0.011,0.034,0.021,0.069,0.033,0.099
		c0.031,0.074,0.067,0.147,0.114,0.212c0.001,0.001,0.002,0.003,0.003,0.004l0.373,0.449h0.512c0.256,0,0.51-0.085,0.754-0.253
		L36,42.822l7.021,4.822c0.122,0.084,0.247,0.147,0.372,0.19c0.009,0.003,0.019,0.002,0.028,0.005
		c0.116,0.036,0.234,0.059,0.352,0.059l0.018,0l0.569-0.033l0.299-0.415c0.002-0.002,0.004-0.007,0.005-0.009
		c0.045-0.064,0.081-0.135,0.111-0.207c0.013-0.03,0.023-0.066,0.034-0.1c0.017-0.054,0.031-0.109,0.04-0.166
		c0.007-0.045,0.009-0.095,0.011-0.146c0.002-0.053,0.004-0.105,0-0.16c-0.009-0.107-0.027-0.219-0.068-0.344
		c0-0.001,0-0.002-0.001-0.004l-2.626-7.879h0l0,0l5.091-4.243c0.118-0.099,0.205-0.204,0.277-0.311
		c0.044-0.067,0.073-0.139,0.104-0.211c0.018-0.043,0.043-0.086,0.056-0.129c0.022-0.075,0.029-0.153,0.035-0.229
		c0.003-0.042,0.013-0.085,0.012-0.125C47.736,33.075,47.719,32.964,47.681,32.857z"/>
</g>
</svg>
