<?xml version="1.0" encoding="utf-8"?>
<!-- Generator: Adobe Illustrator 17.0.0, SVG Export Plug-In . SVG Version: 6.00 Build 0)  -->
<!DOCTYPE svg PUBLIC "-//W3C//DTD SVG 1.1//EN" "http://www.w3.org/Graphics/SVG/1.1/DTD/svg11.dtd">
<svg version="1.1" id="Layer_2" xmlns="http://www.w3.org/2000/svg" xmlns:xlink="http://www.w3.org/1999/xlink" x="0px" y="0px"
	 width="48px" height="48px" viewBox="0 0 48 48" enable-background="new 0 0 48 48" xml:space="preserve">
<g>
	<path fill="#010101" d="M24,30c-0.171,0-0.342-0.044-0.496-0.132L18,26.723V32h12v-5.277l-5.504,3.145
		C24.342,29.956,24.171,30,24,30z"/>
	<polygon fill="#010101" points="27.234,26 20.766,26 24,27.848 	"/>
	<path fill="#010101" d="M10,47c0,0.552,0.448,1,1,1h26c0.552,0,1-0.448,1-1v-3H10V47z"/>
	<path fill="#010101" d="M41,8h-3.586l-5.707-5.707C31.519,2.106,31.265,2,31,2h-6V1c0-0.552-0.448-1-1-1c-0.552,0-1,0.448-1,1v1h-6
		c-0.265,0-0.52,0.106-0.707,0.293L10.586,8H7C6.448,8,6,8.448,6,9v4c0,0.552,0.448,1,1,1h1.586L10,15.414V42h28V15.414L39.414,14
		H41c0.552,0,1-0.448,1-1V9C42,8.448,41.552,8,41,8z M32,33c0,0.552-0.448,1-1,1H17c-0.552,0-1-0.448-1-1v-8
		c0-0.02,0.01-0.037,0.011-0.057c0.004-0.066,0.022-0.129,0.039-0.194c0.018-0.066,0.033-0.13,0.063-0.19
		c0.009-0.018,0.008-0.037,0.018-0.055c0.022-0.037,0.057-0.06,0.082-0.093c0.042-0.057,0.084-0.11,0.137-0.157
		c0.048-0.042,0.099-0.072,0.153-0.103c0.056-0.033,0.111-0.064,0.173-0.086c0.065-0.022,0.13-0.031,0.198-0.04
		C16.918,24.02,16.956,24,17,24h14c0.044,0,0.082,0.02,0.125,0.025c0.068,0.009,0.134,0.018,0.199,0.04
		c0.062,0.021,0.115,0.052,0.171,0.084c0.055,0.032,0.107,0.063,0.156,0.105c0.053,0.046,0.093,0.099,0.135,0.155
		c0.025,0.034,0.061,0.056,0.082,0.094c0.01,0.018,0.009,0.037,0.018,0.055c0.03,0.06,0.045,0.124,0.063,0.19
		c0.017,0.065,0.036,0.128,0.039,0.194C31.99,24.963,32,24.98,32,25V33z M32,20H16c-0.552,0-1-0.448-1-1c0-0.552,0.448-1,1-1h16
		c0.552,0,1,0.448,1,1C33,19.552,32.552,20,32,20z M40,12h-1H9H8v-2h3h26h3V12z"/>
</g>
</svg>
