<?xml version="1.0" encoding="utf-8"?>
<!-- Generator: Adobe Illustrator 17.0.0, SVG Export Plug-In . SVG Version: 6.00 Build 0)  -->
<!DOCTYPE svg PUBLIC "-//W3C//DTD SVG 1.1//EN" "http://www.w3.org/Graphics/SVG/1.1/DTD/svg11.dtd">
<svg version="1.1" id="Layer_2" xmlns="http://www.w3.org/2000/svg" xmlns:xlink="http://www.w3.org/1999/xlink" x="0px" y="0px"
	 width="48px" height="48px" viewBox="0 0 48 48" enable-background="new 0 0 48 48" xml:space="preserve">
<g>
	<path fill="#010101" d="M35.569,31.822C35.395,31.942,35.197,32,35.001,32c-0.317,0-0.629-0.15-0.823-0.431
		c-0.314-0.454-0.201-1.077,0.253-1.392l12.344-8.546L40,16.974V1c0-0.552-0.448-1-1-1H9C8.448,0,8,0.448,8,1v15.974l-6.674,4.588
		l12.249,8.62c0.452,0.318,0.56,0.942,0.242,1.394C13.623,31.852,13.313,32,12.999,32c-0.199,0-0.399-0.059-0.575-0.182L0,23.075V44
		c0,2.206,1.794,4,4,4h40c2.206,0,4-1.794,4-4V23.216L35.569,31.822z M10,26V2h28v24H10z M41.781,41.625
		C41.583,41.872,41.292,42,40.999,42c-0.219,0-0.44-0.072-0.624-0.219L30.649,34H17.351l-9.726,7.781
		c-0.43,0.345-1.06,0.275-1.405-0.156c-0.345-0.431-0.275-1.061,0.156-1.405l10-8C16.553,32.077,16.773,32,17,32h14
		c0.227,0,0.447,0.077,0.624,0.219l10,8C42.056,40.564,42.126,41.193,41.781,41.625z"/>
	<path fill="#010101" d="M15,6h4c0.552,0,1-0.448,1-1c0-0.552-0.448-1-1-1h-4c-0.552,0-1,0.448-1,1C14,5.552,14.448,6,15,6z"/>
	<path fill="#010101" d="M33,10H19c-0.552,0-1,0.448-1,1c0,0.552,0.448,1,1,1h14c0.552,0,1-0.448,1-1C34,10.448,33.552,10,33,10z"/>
	<path fill="#010101" d="M33,16H15c-0.552,0-1,0.448-1,1c0,0.552,0.448,1,1,1h18c0.552,0,1-0.448,1-1C34,16.448,33.552,16,33,16z"/>
	<path fill="#010101" d="M33,22H15c-0.552,0-1,0.448-1,1c0,0.552,0.448,1,1,1h18c0.552,0,1-0.448,1-1C34,22.448,33.552,22,33,22z"/>
</g>
</svg>
