<?xml version="1.0" encoding="utf-8"?>
<!-- Generator: Adobe Illustrator 17.0.0, SVG Export Plug-In . SVG Version: 6.00 Build 0)  -->
<!DOCTYPE svg PUBLIC "-//W3C//DTD SVG 1.1//EN" "http://www.w3.org/Graphics/SVG/1.1/DTD/svg11.dtd">
<svg version="1.1" id="Layer_2" xmlns="http://www.w3.org/2000/svg" xmlns:xlink="http://www.w3.org/1999/xlink" x="0px" y="0px"
	 width="48px" height="48px" viewBox="0 0 48 48" enable-background="new 0 0 48 48" xml:space="preserve">
<g>
	<path fill="#010101" d="M36,22c2.974,0,5.73,0.94,8,2.527V10c0-0.762-0.226-1.467-0.597-2.074L22.526,20.85
		C22.365,20.95,22.183,21,22,21c-0.183,0-0.365-0.05-0.526-0.15L0.597,7.926C0.225,8.533,0,9.238,0,10v22c0,2.206,1.794,4,4,4h18
		C22,28.28,28.28,22,36,22z"/>
	<path fill="#010101" d="M41.902,6.503C41.334,6.193,40.692,6,40,6H4C3.308,6,2.666,6.193,2.097,6.503L22,18.824L41.902,6.503z"/>
	<path fill="#010101" d="M36,24c-6.617,0-12,5.383-12,12c0,6.617,5.383,12,12,12c6.617,0,12-5.383,12-12C48,29.383,42.617,24,36,24z
		 M39,38h-5v-8c0-0.552,0.448-1,1-1c0.552,0,1,0.448,1,1v6h3c0.552,0,1,0.448,1,1C40,37.552,39.552,38,39,38z"/>
</g>
</svg>
