<?xml version="1.0" encoding="utf-8"?>
<!-- Generator: Adobe Illustrator 17.0.0, SVG Export Plug-In . SVG Version: 6.00 Build 0)  -->
<!DOCTYPE svg PUBLIC "-//W3C//DTD SVG 1.1//EN" "http://www.w3.org/Graphics/SVG/1.1/DTD/svg11.dtd">
<svg version="1.1" id="Layer_2" xmlns="http://www.w3.org/2000/svg" xmlns:xlink="http://www.w3.org/1999/xlink" x="0px" y="0px"
	 width="48px" height="48px" viewBox="0 0 48 48" enable-background="new 0 0 48 48" xml:space="preserve">
<g>
	<path fill="#010101" d="M43.415,23.947L24.62,38.785C24.438,38.928,24.219,39,24,39c-0.219,0-0.438-0.072-0.62-0.215L4.585,23.947
		C4.222,24.549,4,25.247,4,26v18c0,2.206,1.794,4,4,4h32c2.206,0,4-1.794,4-4V26C44,25.247,43.778,24.549,43.415,23.947z"/>
	<path fill="#010101" d="M41.969,22.54C41.385,22.206,40.719,22,40,22H8c-0.719,0-1.386,0.206-1.969,0.54L24,36.726L41.969,22.54z"
		/>
	<path fill="#010101" d="M22.293,18.707c0.092,0.092,0.203,0.165,0.325,0.216C22.74,18.973,22.87,19,23,19
		c0.13,0,0.26-0.027,0.382-0.077c0.122-0.051,0.233-0.124,0.325-0.216l9-9c0.391-0.391,0.391-1.023,0-1.414
		c-0.391-0.391-1.023-0.391-1.414,0L24,15.586V1c0-0.552-0.448-1-1-1c-0.552,0-1,0.448-1,1v14.586l-7.293-7.293
		c-0.391-0.391-1.023-0.391-1.414,0c-0.391,0.391-0.391,1.023,0,1.414L22.293,18.707z"/>
</g>
</svg>
