<?xml version="1.0" encoding="utf-8"?>
<!-- Generator: Adobe Illustrator 17.0.0, SVG Export Plug-In . SVG Version: 6.00 Build 0)  -->
<!DOCTYPE svg PUBLIC "-//W3C//DTD SVG 1.1//EN" "http://www.w3.org/Graphics/SVG/1.1/DTD/svg11.dtd">
<svg version="1.1" id="Layer_2" xmlns="http://www.w3.org/2000/svg" xmlns:xlink="http://www.w3.org/1999/xlink" x="0px" y="0px"
	 width="48px" height="48px" viewBox="0 0 48 48" enable-background="new 0 0 48 48" xml:space="preserve">
<g>
	<path fill="#010101" d="M47.763,18.354C47.573,18.129,47.294,18,47,18h-5v-5c0-0.552-0.448-1-1-1h-5v7c0,1.654-1.346,3-3,3
		c-1.654,0-3-1.346-3-3v-7H9c-4.962,0-9,4.038-9,9v12c0,0.552,0.448,1,1,1h21v13c0,0.552,0.448,1,1,1c0.552,0,1-0.448,1-1V34h17
		c0.552,0,1-0.448,1-1v-1h3c0.489,0,0.906-0.353,0.986-0.835l2-12C48.035,18.875,47.953,18.578,47.763,18.354z M44.153,30H42V20
		h3.819L44.153,30z"/>
	<path fill="#010101" d="M23,8h7h2v11c0,0.551,0.449,1,1,1c0.551,0,1-0.449,1-1V7V1c0-0.552-0.448-1-1-1h-2.816H23
		c-0.552,0-1,0.448-1,1v6C22,7.552,22.448,8,23,8z"/>
</g>
</svg>
