<?xml version="1.0" encoding="utf-8"?>
<!-- Generator: Adobe Illustrator 17.0.0, SVG Export Plug-In . SVG Version: 6.00 Build 0)  -->
<!DOCTYPE svg PUBLIC "-//W3C//DTD SVG 1.1//EN" "http://www.w3.org/Graphics/SVG/1.1/DTD/svg11.dtd">
<svg version="1.1" id="Layer_2" xmlns="http://www.w3.org/2000/svg" xmlns:xlink="http://www.w3.org/1999/xlink" x="0px" y="0px"
	 width="48px" height="48px" viewBox="0 0 48 48" enable-background="new 0 0 48 48" xml:space="preserve">
<path fill="#010101" d="M44,11.258H4c-2.206,0-4,1.794-4,4v24c0,2.206,1.794,4,4,4h40c2.206,0,4-1.794,4-4v-24
	C48,13.053,46.206,11.258,44,11.258z M14.496,32.127l-7,4c-0.156,0.089-0.327,0.132-0.495,0.132c-0.347,0-0.685-0.181-0.869-0.504
	c-0.274-0.479-0.107-1.09,0.372-1.364l7-4c0.481-0.273,1.091-0.107,1.364,0.372C15.142,31.242,14.976,31.853,14.496,32.127z
	 M24,32.258c-0.189,0-0.378-0.054-0.544-0.161l-17-11c-0.463-0.3-0.596-0.919-0.296-1.383c0.3-0.462,0.919-0.596,1.383-0.296
	L24,30.067l16.456-10.649c0.464-0.301,1.084-0.167,1.383,0.296c0.3,0.464,0.167,1.083-0.296,1.383l-17,11
	C24.378,32.205,24.189,32.258,24,32.258z M41.868,35.754c-0.185,0.323-0.522,0.504-0.869,0.504c-0.168,0-0.339-0.042-0.495-0.132
	l-7-4c-0.479-0.274-0.646-0.885-0.372-1.364c0.273-0.479,0.886-0.645,1.364-0.372l7,4C41.976,34.664,42.142,35.275,41.868,35.754z"
	/>
</svg>
