<?xml version="1.0" encoding="utf-8"?>
<!-- Generator: Adobe Illustrator 17.0.0, SVG Export Plug-In . SVG Version: 6.00 Build 0)  -->
<!DOCTYPE svg PUBLIC "-//W3C//DTD SVG 1.1//EN" "http://www.w3.org/Graphics/SVG/1.1/DTD/svg11.dtd">
<svg version="1.1" id="Layer_2" xmlns="http://www.w3.org/2000/svg" xmlns:xlink="http://www.w3.org/1999/xlink" x="0px" y="0px"
	 width="48px" height="48px" viewBox="0 0 48 48" enable-background="new 0 0 48 48" xml:space="preserve">
<g>
	<path fill="#010101" d="M41.902,6.503C41.334,6.193,40.692,6,40,6H4C3.308,6,2.666,6.193,2.097,6.503L22,18.824L41.902,6.503z"/>
	<path fill="#010101" d="M36.5,23c2.776,0,5.355,0.84,7.5,2.276V10c0-0.762-0.226-1.467-0.597-2.074L22.526,20.85
		C22.365,20.95,22.183,21,22,21c-0.183,0-0.365-0.05-0.526-0.15L0.597,7.926C0.225,8.533,0,9.238,0,10v22c0,2.206,1.794,4,4,4
		h19.025C23.29,28.778,29.213,23,36.5,23z"/>
	<path fill="#010101" d="M36.5,29c-4.136,0-7.5,3.364-7.5,7.5c0,1.708,0.58,3.279,1.544,4.541l10.497-10.496
		C39.779,29.58,38.208,29,36.5,29z"/>
	<path fill="#010101" d="M36.5,25C30.149,25,25,30.149,25,36.5C25,42.851,30.149,48,36.5,48C42.851,48,48,42.851,48,36.5
		C48,30.149,42.851,25,36.5,25z M36.5,46c-5.238,0-9.5-4.262-9.5-9.5c0-5.238,4.262-9.5,9.5-9.5c5.238,0,9.5,4.262,9.5,9.5
		C46,41.738,41.738,46,36.5,46z"/>
	<path fill="#010101" d="M42.455,31.959L31.958,42.455C33.221,43.42,34.792,44,36.5,44c4.136,0,7.5-3.364,7.5-7.5
		C44,34.792,43.42,33.221,42.455,31.959z"/>
</g>
</svg>
