<?xml version="1.0" encoding="utf-8"?>
<!-- Generator: Adobe Illustrator 17.0.0, SVG Export Plug-In . SVG Version: 6.00 Build 0)  -->
<!DOCTYPE svg PUBLIC "-//W3C//DTD SVG 1.1//EN" "http://www.w3.org/Graphics/SVG/1.1/DTD/svg11.dtd">
<svg version="1.1" id="Layer_2" xmlns="http://www.w3.org/2000/svg" xmlns:xlink="http://www.w3.org/1999/xlink" x="0px" y="0px"
	 width="48px" height="48px" viewBox="0 0 48 48" enable-background="new 0 0 48 48" xml:space="preserve">
<g>
	<path fill="#010101" d="M45.416,11.95L24.629,28.777C24.446,28.926,24.223,29,24,29c-0.223,0-0.446-0.074-0.629-0.223L2.584,11.95
		C2.221,12.552,2,13.248,2,14v22c0,2.206,1.794,4,4,4h36c2.206,0,4-1.794,4-4V14C46,13.248,45.779,12.552,45.416,11.95z"/>
	<path fill="#010101" d="M43.975,10.543C43.39,10.207,42.722,10,42,10H6c-0.722,0-1.39,0.207-1.975,0.543L24,26.713L43.975,10.543z"
		/>
</g>
</svg>
