<?xml version="1.0" encoding="utf-8"?>
<!-- Generator: Adobe Illustrator 17.0.0, SVG Export Plug-In . SVG Version: 6.00 Build 0)  -->
<!DOCTYPE svg PUBLIC "-//W3C//DTD SVG 1.1//EN" "http://www.w3.org/Graphics/SVG/1.1/DTD/svg11.dtd">
<svg version="1.1" id="Layer_2" xmlns="http://www.w3.org/2000/svg" xmlns:xlink="http://www.w3.org/1999/xlink" x="0px" y="0px"
	 width="48px" height="48px" viewBox="0 0 48 48" enable-background="new 0 0 48 48" xml:space="preserve">
<g>
	<path fill="#010101" d="M41.903,6.503C41.334,6.193,40.692,6,40,6H4C3.308,6,2.666,6.193,2.097,6.503L22,18.824L41.903,6.503z"/>
	<path fill="#010101" d="M32.063,21.993c0.561-1.124,1.686-1.82,2.937-1.82c1.25,0,2.374,0.694,2.934,1.812L44,34.208V10
		c0-0.762-0.226-1.467-0.597-2.074L22.526,20.85C22.365,20.95,22.183,21,22,21c-0.183,0-0.365-0.05-0.526-0.15L0.597,7.926
		C0.225,8.533,0,9.238,0,10v22c0,2.206,1.794,4,4,4h21.111L32.063,21.993z"/>
	<path fill="#010101" d="M47.971,46.708l-0.155-0.313l0,0L42.657,36h0l-6.513-13.123c-0.163-0.325-0.45-0.559-0.79-0.656
		c-0.113-0.032-0.232-0.049-0.354-0.049c-0.488,0-0.927,0.273-1.147,0.712L27.343,36l-5.239,10.555
		c-0.154,0.31-0.137,0.678,0.045,0.972C22.332,47.821,22.654,48,23,48h24c0.006,0,0.013,0,0.02,0c0.552,0,1-0.448,1-1
		C48.02,46.898,48,46.801,47.971,46.708z M34,31.818c0-0.552,0.448-1,1-1c0.552,0,1,0.448,1,1v6.545c0,0.552-0.448,1-1,1
		c-0.552,0-1-0.448-1-1V31.818z M35,43.555c-0.602,0-1.091-0.488-1.091-1.091c0-0.602,0.489-1.091,1.091-1.091
		c0.602,0,1.091,0.489,1.091,1.091C36.091,43.066,35.602,43.555,35,43.555z"/>
</g>
</svg>
