<?xml version="1.0" encoding="utf-8"?>
<!-- Generator: Adobe Illustrator 17.0.0, SVG Export Plug-In . SVG Version: 6.00 Build 0)  -->
<!DOCTYPE svg PUBLIC "-//W3C//DTD SVG 1.1//EN" "http://www.w3.org/Graphics/SVG/1.1/DTD/svg11.dtd">
<svg version="1.1" id="Layer_2" xmlns="http://www.w3.org/2000/svg" xmlns:xlink="http://www.w3.org/1999/xlink" x="0px" y="0px"
	 width="48px" height="48px" viewBox="0 0 48 48" enable-background="new 0 0 48 48" xml:space="preserve">
<g>
	<path fill="#010101" d="M22.206,34.97c0-0.051,0-0.102,0.001-0.153l-1.676-0.968l-0.375-1.237c-0.221-0.835-0.112-1.668,0.296-2.38
		l4.026-6.964l1.79-0.072c0.001,0,0.003,0,0.005,0c0.585,0,1.122,0.145,1.594,0.419l0.635,0.365c0.086-0.05,0.173-0.1,0.261-0.149
		V23.1c0-1.71,1.391-3.1,3.1-3.1h6.329c1.709,0,3.1,1.391,3.1,3.1v0.739c0.078,0.043,0.155,0.088,0.231,0.133l1.305-0.757L44,23.196
		V10c0-0.762-0.226-1.467-0.597-2.074L22.526,20.85C22.365,20.95,22.183,21,22,21c-0.183,0-0.365-0.05-0.526-0.15L0.597,7.926
		C0.225,8.533,0,9.238,0,10v22c0,2.206,1.794,4,4,4h16.937c0.19-0.194,0.397-0.373,0.642-0.516l0.628-0.362
		C22.206,35.071,22.206,35.02,22.206,34.97z"/>
	<path fill="#010101" d="M47.945,38.17c0-0.381-0.182-0.755-0.535-0.96l-1.554-0.896l-0.142-0.082
		c0.052-0.427,0.078-0.849,0.078-1.262c0-0.412-0.026-0.835-0.079-1.262l0.889-0.513l0.799-0.462
		c0.051-0.029,0.084-0.076,0.129-0.112c0.07-0.056,0.147-0.106,0.2-0.175c0.086-0.112,0.151-0.241,0.189-0.381
		c0.039-0.142,0.048-0.287,0.03-0.429c-0.009-0.068-0.044-0.133-0.066-0.199c-0.023-0.072-0.034-0.148-0.073-0.215l-2.942-5.094
		l-0.21-0.363c-0.118-0.21-0.309-0.356-0.517-0.452c-0.048-0.022-0.091-0.056-0.142-0.07v-0.001
		c-0.005-0.001-0.009-0.005-0.013-0.007l-0.291-0.04l-0.309,0.007l-1.913,1.11l-0.516-0.337c-0.353-0.231-0.729-0.447-1.118-0.643
		l-0.55-0.277V23.1c0-0.606-0.493-1.1-1.1-1.1h-6.329c-0.606,0-1.1,0.494-1.1,1.1v1.955l-0.555,0.275
		c-0.396,0.196-0.781,0.416-1.145,0.652l-0.513,0.333l-1.685-0.97c-0.171-0.1-0.362-0.151-0.556-0.151l-0.65,0.027l-3.474,6.008
		c-0.146,0.254-0.183,0.544-0.106,0.836l0.136,0.446l2.054,1.187l-0.042,0.621c-0.014,0.219-0.021,0.437-0.021,0.651
		c0,0.214,0.007,0.432,0.021,0.652L24.251,36h0.018c0.008,0.078,0.005,0.153,0.014,0.231l-0.017,0.01l0,0l-1.255,0.724l-0.428,0.247
		c-0.1,0.058-0.176,0.14-0.25,0.222c-0.022,0.025-0.055,0.041-0.075,0.067c-0.015,0.021-0.019,0.047-0.033,0.068
		c-0.216,0.336-0.252,0.776-0.04,1.148l3.164,5.48c0.147,0.253,0.389,0.434,0.665,0.508c0.092,0.025,0.188,0.038,0.286,0.038
		c0.174,0,0.396-0.059,0.547-0.146l1.717-0.985c0.24,0.176,0.503,0.335,0.765,0.495c0.194,0.118,0.393,0.231,0.596,0.34
		c0.274,0.146,0.546,0.293,0.836,0.419v0.017v1.954c0,0.606,0.494,1.1,1.1,1.1h6.329c0.607,0,1.1-0.494,1.1-1.1v-1.956v-0.017
		c0.284-0.125,0.553-0.272,0.822-0.417c0.197-0.106,0.389-0.216,0.576-0.331c0.263-0.162,0.527-0.324,0.769-0.502l0.017,0.01h0
		l0.557,0.322l1.123,0.65c0.115,0.066,0.25,0.105,0.386,0.125c0.019,0.003,0.039,0.006,0.058,0.007
		c0.138,0.014,0.279,0.008,0.407-0.029c0.249-0.072,0.52-0.284,0.649-0.508l3.164-5.484c0.06-0.106,0.088-0.22,0.11-0.333
		c0.005-0.027,0.023-0.052,0.026-0.079C47.96,38.255,47.945,38.213,47.945,38.17z M34.998,40.322c-2.951,0-5.353-2.401-5.353-5.353
		c0-2.951,2.401-5.352,5.353-5.352c2.951,0,5.353,2.401,5.353,5.352C40.351,37.921,37.949,40.322,34.998,40.322z"/>
	<path fill="#010101" d="M41.902,6.503C41.334,6.193,40.692,6,40,6H4C3.308,6,2.666,6.193,2.097,6.503L22,18.824L41.902,6.503z"/>
</g>
</svg>
