<?xml version="1.0" encoding="utf-8"?>
<!-- Generator: Adobe Illustrator 17.0.0, SVG Export Plug-In . SVG Version: 6.00 Build 0)  -->
<!DOCTYPE svg PUBLIC "-//W3C//DTD SVG 1.1//EN" "http://www.w3.org/Graphics/SVG/1.1/DTD/svg11.dtd">
<svg version="1.1" id="Layer_2" xmlns="http://www.w3.org/2000/svg" xmlns:xlink="http://www.w3.org/1999/xlink" x="0px" y="0px"
	 width="48px" height="48px" viewBox="0 0 48 48" enable-background="new 0 0 48 48" xml:space="preserve">
<g>
	<path fill="#010101" d="M37.81,18.192c-4.696-2.668-9.693-3.123-11.81-3.189V8c0-0.387-0.223-0.739-0.573-0.904
		c-0.35-0.165-0.764-0.114-1.062,0.132l-17,14C7.134,21.418,7,21.701,7,22s0.134,0.582,0.364,0.772l17,14
		c0.299,0.247,0.713,0.299,1.062,0.132C25.777,36.739,26,36.387,26,36v-7.251c0.851-0.22,2.455-0.548,4.44-0.548
		c4.653,0,11.15,1.782,15.678,10.271C46.294,38.802,46.637,39,47,39c0.08,0,0.161-0.01,0.243-0.03C47.687,38.859,48,38.459,48,38
		C48,26.413,42.459,20.833,37.81,18.192z"/>
	<path fill="#010101" d="M2.573,22L18.636,8.772c0.426-0.351,0.487-0.982,0.136-1.408c-0.351-0.426-0.982-0.487-1.408-0.136l-17,14
		C0.134,21.418,0,21.701,0,22s0.134,0.582,0.364,0.772l17,14C17.55,36.925,17.776,37,17.999,37c0.289,0,0.575-0.124,0.773-0.364
		c0.351-0.426,0.29-1.057-0.136-1.408L2.573,22z"/>
</g>
</svg>
