<?xml version="1.0" encoding="utf-8"?>
<!-- Generator: Adobe Illustrator 17.0.0, SVG Export Plug-In . SVG Version: 6.00 Build 0)  -->
<!DOCTYPE svg PUBLIC "-//W3C//DTD SVG 1.1//EN" "http://www.w3.org/Graphics/SVG/1.1/DTD/svg11.dtd">
<svg version="1.1" id="Layer_2" xmlns="http://www.w3.org/2000/svg" xmlns:xlink="http://www.w3.org/1999/xlink" x="0px" y="0px"
	 width="60px" height="60px" viewBox="0 0 60 60" enable-background="new 0 0 60 60" xml:space="preserve">
<g>
	<rect x="45" y="42" fill="#010101" width="12" height="4"/>
	<path fill="#010101" d="M56,0c-0.553,0-1,0.448-1,1v13c0,2.206-1.794,4-4,4c-2.206,0-4-1.794-4-4V1c0-0.552-0.447-1-1-1
		c-0.553,0-1,0.448-1,1v13v26h12V14V1C57,0.448,56.553,0,56,0z"/>
	<path fill="#010101" d="M45,54c0,3.309,2.691,6,6,6c3.309,0,6-2.691,6-6v-6H45V54z"/>
	<path fill="#010101" d="M51,14c0.553,0,1-0.448,1-1V3c0-0.552-0.447-1-1-1c-0.553,0-1,0.448-1,1v10C50,13.552,50.447,14,51,14z"/>
	<path fill="#010101" d="M42,0c-0.553,0-1,0.448-1,1v13c0,2.206-1.794,4-4,4c-2.206,0-4-1.794-4-4V1c0-0.552-0.447-1-1-1
		c-0.553,0-1,0.448-1,1v13v26h12V14V1C43,0.448,42.553,0,42,0z"/>
	<path fill="#010101" d="M31,54c0,3.309,2.691,6,6,6c3.309,0,6-2.691,6-6v-6H31V54z"/>
	<rect x="31" y="42" fill="#010101" width="12" height="4"/>
	<path fill="#010101" d="M37,14c0.553,0,1-0.448,1-1V3c0-0.552-0.447-1-1-1c-0.553,0-1,0.448-1,1v10C36,13.552,36.447,14,37,14z"/>
	<path fill="#010101" d="M17,54c0,3.309,2.691,6,6,6c3.309,0,6-2.691,6-6v-6H17V54z"/>
	<path fill="#010101" d="M28,0c-0.553,0-1,0.448-1,1v13c0,2.206-1.794,4-4,4c-2.206,0-4-1.794-4-4V1c0-0.552-0.447-1-1-1
		c-0.553,0-1,0.448-1,1v13v26h12V14V1C29,0.448,28.553,0,28,0z"/>
	<rect x="17" y="42" fill="#010101" width="12" height="4"/>
	<path fill="#010101" d="M23,14c0.553,0,1-0.448,1-1V3c0-0.552-0.447-1-1-1c-0.553,0-1,0.448-1,1v10C22,13.552,22.447,14,23,14z"/>
	<path fill="#010101" d="M14,0c-0.553,0-1,0.448-1,1v13c0,2.206-1.794,4-4,4c-2.206,0-4-1.794-4-4V1c0-0.552-0.447-1-1-1
		C3.447,0,3,0.448,3,1v13v26h12V14V1C15,0.448,14.553,0,14,0z"/>
	<rect x="3" y="42" fill="#010101" width="12" height="4"/>
	<path fill="#010101" d="M3,54c0,3.309,2.691,6,6,6c3.309,0,6-2.691,6-6v-6H3V54z"/>
	<path fill="#010101" d="M9,14c0.553,0,1-0.448,1-1V3c0-0.552-0.447-1-1-1C8.447,2,8,2.448,8,3v10C8,13.552,8.447,14,9,14z"/>
</g>
</svg>
