<?xml version="1.0" encoding="utf-8"?>
<!-- Generator: Adobe Illustrator 17.0.0, SVG Export Plug-In . SVG Version: 6.00 Build 0)  -->
<!DOCTYPE svg PUBLIC "-//W3C//DTD SVG 1.1//EN" "http://www.w3.org/Graphics/SVG/1.1/DTD/svg11.dtd">
<svg version="1.1" id="Layer_2" xmlns="http://www.w3.org/2000/svg" xmlns:xlink="http://www.w3.org/1999/xlink" x="0px" y="0px"
	 width="60px" height="60px" viewBox="0 0 60 60" enable-background="new 0 0 60 60" xml:space="preserve">
<g>
	<path fill="#010101" d="M17,6.002c-0.553,0-1,0.448-1,1s0.447,1,1,1h28c0.553,0,1-0.448,1-1s-0.447-1-1-1H17z"/>
	<path fill="#010101" d="M49,12.002H17c-2.757,0-5-2.243-5-5s2.243-5,5-5h32c0.553,0,1-0.448,1-1s-0.447-1-1-1H17
		c-3.859,0-7,3.14-7,7v35c0,3.364,2.636,6,6,6h12v-17c0-1.654,1.346-3,3-3c1.654,0,3,1.346,3,3v17h15c0.553,0,1-0.448,1-1v-34
		C50,12.449,49.553,12.002,49,12.002z"/>
	<path fill="#010101" d="M37.707,52.295c-0.003-0.003-0.008-0.004-0.011-0.007c-0.381-0.37-1.012-0.37-1.393,0
		c-0.003,0.003-0.007,0.004-0.011,0.007l-2.862,2.862L32,56.588V31.002c0-0.551-0.448-1-1-1c-0.552,0-1,0.449-1,1v25.586
		l-1.431-1.431l-2.862-2.862c-0.098-0.098-0.21-0.171-0.331-0.22c-0.117-0.048-0.244-0.074-0.376-0.074
		c-0.133,0-0.259,0.026-0.377,0.074c-0.12,0.049-0.233,0.122-0.33,0.22c-0.098,0.098-0.171,0.21-0.22,0.33
		C24.026,52.742,24,52.868,24,53.002c0,0.133,0.026,0.259,0.073,0.377c0.049,0.12,0.122,0.233,0.22,0.33l2.999,3l3,3
		c0.019,0.019,0.047,0.027,0.068,0.045c0.078,0.066,0.16,0.13,0.256,0.17c0.131,0.055,0.266,0.077,0.4,0.075
		c0.125-0.002,0.248-0.026,0.364-0.073c0.125-0.052,0.235-0.125,0.327-0.217l2.999-3l3-3c0.098-0.098,0.171-0.21,0.22-0.33
		C37.974,53.261,38,53.135,38,53.002c0-0.133-0.026-0.259-0.073-0.376C37.878,52.505,37.805,52.392,37.707,52.295z"/>
</g>
</svg>
