<?xml version="1.0" encoding="utf-8"?>
<!-- Generator: Adobe Illustrator 17.0.0, SVG Export Plug-In . SVG Version: 6.00 Build 0)  -->
<!DOCTYPE svg PUBLIC "-//W3C//DTD SVG 1.1//EN" "http://www.w3.org/Graphics/SVG/1.1/DTD/svg11.dtd">
<svg version="1.1" id="Layer_2" xmlns="http://www.w3.org/2000/svg" xmlns:xlink="http://www.w3.org/1999/xlink" x="0px" y="0px"
	 width="60px" height="60px" viewBox="0 0 60 60" enable-background="new 0 0 60 60" xml:space="preserve">
<path fill="#010101" d="M52,10h-1V1c0-0.552-0.447-1-1-1H13C9.636,0,7,2.636,7,6v48c0,3.364,2.636,6,6,6h39c0.553,0,1-0.448,1-1V11
	C53,10.448,52.553,10,52,10z M43,35.586l-6-6l-6,6V8h12V35.586z M49,10h-4V6H29v4H13c-2.243,0-4-1.757-4-4c0-2.243,1.757-4,4-4h36
	V10z"/>
</svg>
