<?xml version="1.0" encoding="utf-8"?>
<!-- Generator: Adobe Illustrator 17.0.0, SVG Export Plug-In . SVG Version: 6.00 Build 0)  -->
<!DOCTYPE svg PUBLIC "-//W3C//DTD SVG 1.1//EN" "http://www.w3.org/Graphics/SVG/1.1/DTD/svg11.dtd">
<svg version="1.1" id="Layer_2" xmlns="http://www.w3.org/2000/svg" xmlns:xlink="http://www.w3.org/1999/xlink" x="0px" y="0px"
	 width="60px" height="60px" viewBox="0 0 60 60" enable-background="new 0 0 60 60" xml:space="preserve">
<g>
	<rect x="41" y="30" fill="#010101" width="18" height="4"/>
	<rect x="41" y="44" fill="#010101" width="18" height="4"/>
	<path fill="#010101" d="M41,55c0,2.757,2.243,5,5,5h8c2.757,0,5-2.243,5-5v-5H41V55z"/>
	<rect x="41" y="36" fill="#010101" width="18" height="6"/>
	<path fill="#010101" d="M58,0c-0.553,0-1,0.448-1,1v14c0,1.654-1.346,3-3,3h-8c-1.654,0-3-1.346-3-3V1c0-0.552-0.447-1-1-1
		c-0.553,0-1,0.448-1,1v14c0,0.235,0.017,0.467,0.048,0.693C41.017,15.79,41,15.893,41,16v12h18V15V1C59,0.448,58.553,0,58,0z"/>
	<path fill="#010101" d="M48,14c0.553,0,1-0.448,1-1V3c0-0.552-0.447-1-1-1c-0.553,0-1,0.448-1,1v10C47,13.552,47.447,14,48,14z"/>
	<path fill="#010101" d="M52,14c0.553,0,1-0.448,1-1V3c0-0.552-0.447-1-1-1c-0.553,0-1,0.448-1,1v10C51,13.552,51.447,14,52,14z"/>
	<rect x="21" y="36" fill="#010101" width="18" height="6"/>
	<rect x="21" y="44" fill="#010101" width="18" height="4"/>
	<rect x="21" y="30" fill="#010101" width="18" height="4"/>
	<path fill="#010101" d="M21,55c0,2.757,2.243,5,5,5h8c2.757,0,5-2.243,5-5v-5H21V55z"/>
	<path fill="#010101" d="M38,0c-0.553,0-1,0.448-1,1v14c0,1.654-1.346,3-3,3h-8c-1.654,0-3-1.346-3-3V1c0-0.552-0.447-1-1-1
		c-0.553,0-1,0.448-1,1v14c0,0.235,0.017,0.467,0.048,0.693C21.017,15.79,21,15.893,21,16v12h18V15V1C39,0.448,38.553,0,38,0z"/>
	<path fill="#010101" d="M28,14c0.553,0,1-0.448,1-1V3c0-0.552-0.447-1-1-1c-0.553,0-1,0.448-1,1v10C27,13.552,27.447,14,28,14z"/>
	<path fill="#010101" d="M32,14c0.553,0,1-0.448,1-1V3c0-0.552-0.447-1-1-1c-0.553,0-1,0.448-1,1v10C31,13.552,31.447,14,32,14z"/>
	<path fill="#010101" d="M1,55c0,2.757,2.243,5,5,5h8c2.757,0,5-2.243,5-5v-5H1V55z"/>
	<path fill="#010101" d="M18,0c-0.553,0-1,0.448-1,1v14c0,1.654-1.346,3-3,3H6c-1.654,0-3-1.346-3-3V1c0-0.552-0.447-1-1-1
		C1.447,0,1,0.448,1,1v14c0,0.235,0.017,0.467,0.048,0.693C1.017,15.79,1,15.893,1,16v12h18V15V1C19,0.448,18.553,0,18,0z"/>
	<rect x="1" y="36" fill="#010101" width="18" height="6"/>
	<rect x="1" y="30" fill="#010101" width="18" height="4"/>
	<rect x="1" y="44" fill="#010101" width="18" height="4"/>
	<path fill="#010101" d="M8,14c0.553,0,1-0.448,1-1V3c0-0.552-0.447-1-1-1C7.447,2,7,2.448,7,3v10C7,13.552,7.447,14,8,14z"/>
	<path fill="#010101" d="M12,14c0.553,0,1-0.448,1-1V3c0-0.552-0.447-1-1-1c-0.553,0-1,0.448-1,1v10C11,13.552,11.447,14,12,14z"/>
</g>
</svg>
