<?xml version="1.0" encoding="utf-8"?>
<!-- Generator: Adobe Illustrator 17.0.0, SVG Export Plug-In . SVG Version: 6.00 Build 0)  -->
<!DOCTYPE svg PUBLIC "-//W3C//DTD SVG 1.1//EN" "http://www.w3.org/Graphics/SVG/1.1/DTD/svg11.dtd">
<svg version="1.1" id="Layer_2" xmlns="http://www.w3.org/2000/svg" xmlns:xlink="http://www.w3.org/1999/xlink" x="0px" y="0px"
	 width="60px" height="60px" viewBox="0 0 60 60" enable-background="new 0 0 60 60" xml:space="preserve">
<g>
	<path fill="#010101" d="M12,6c-0.553,0-1,0.448-1,1s0.447,1,1,1h40c0.553,0,1-0.448,1-1s-0.447-1-1-1H12z"/>
	<path fill="#010101" d="M54,12H12c-2.757,0-5-2.243-5-5s2.243-5,5-5h42c0.553,0,1-0.448,1-1c0-0.552-0.447-1-1-1H12
		C8.141,0,5,3.14,5,7v46.957C5,57.289,7.711,60,11.043,60H54c0.553,0,1-0.448,1-1V13C55,12.448,54.553,12,54,12z M45.602,31.798
		l-8.25,6.219l3.596,10.664c0.134,0.397,0.006,0.835-0.32,1.098c-0.326,0.263-0.784,0.293-1.142,0.079L30,44.166l-9.485,5.691
		C20.355,49.953,20.178,50,20,50c-0.22,0-0.438-0.072-0.619-0.214c-0.326-0.257-0.459-0.689-0.335-1.085l3.356-10.685l-8.016-6.226
		c-0.338-0.262-0.472-0.71-0.333-1.114C14.192,30.271,14.572,30,15,30l10.3,0l3.761-10.341C29.204,19.263,29.579,19,30,19
		s0.796,0.263,0.94,0.658L34.7,30H45c0.43,0,0.812,0.275,0.948,0.683C46.085,31.09,45.945,31.539,45.602,31.798z"/>
</g>
</svg>
