<?xml version="1.0" encoding="utf-8"?>
<!-- Generator: Adobe Illustrator 17.0.0, SVG Export Plug-In . SVG Version: 6.00 Build 0)  -->
<!DOCTYPE svg PUBLIC "-//W3C//DTD SVG 1.1//EN" "http://www.w3.org/Graphics/SVG/1.1/DTD/svg11.dtd">
<svg version="1.1" id="Layer_2" xmlns="http://www.w3.org/2000/svg" xmlns:xlink="http://www.w3.org/1999/xlink" x="0px" y="0px"
	 width="60px" height="60px" viewBox="0 0 60 60" enable-background="new 0 0 60 60" xml:space="preserve">
<g>
	<path fill="#010101" d="M58,4.282c-2.074,0-4.067,0.07-5.986,0.191c-0.005,0-0.009-0.003-0.014-0.003
		c-0.01,0-0.017,0.005-0.027,0.005C42.072,5.105,34.433,7.279,31,10.338v45.379c0-3.779,10.85-7.826,27-7.826c0.553,0,1-0.448,1-1
		V5.282C59,4.73,58.553,4.282,58,4.282z M51,5.615v18.254l-4-4l-4,4V6.905c0-0.049-0.021-0.092-0.028-0.139L51,5.615z
		 M52.763,40.324c-6.335,0.428-12.054,1.516-16.102,3.063c-0.118,0.045-0.238,0.066-0.357,0.066c-0.402,0-0.782-0.245-0.935-0.644
		c-0.196-0.516,0.062-1.094,0.577-1.291c4.229-1.616,10.153-2.749,16.682-3.19c0.558-0.04,1.028,0.379,1.065,0.93
		C53.73,39.809,53.313,40.286,52.763,40.324z M52.763,32.759c-6.33,0.427-12.049,1.514-16.103,3.063
		c-0.117,0.045-0.237,0.066-0.356,0.066c-0.402,0-0.782-0.245-0.935-0.643c-0.196-0.516,0.062-1.094,0.578-1.291
		c4.233-1.618,10.158-2.75,16.681-3.19c0.581-0.043,1.028,0.38,1.065,0.93C53.73,32.245,53.313,32.722,52.763,32.759z"/>
	<path fill="#010101" d="M1,5.282v41.609c0,0.552,0.447,1,1,1c16.15,0,27,4.047,27,7.826V10.338C24.897,6.682,14.794,4.282,2,4.282
		C1.447,4.282,1,4.73,1,5.282z M7.371,15.633c6.527,0.44,12.452,1.573,16.682,3.189c0.516,0.197,0.773,0.775,0.576,1.291
		c-0.151,0.398-0.531,0.644-0.934,0.644c-0.119,0-0.239-0.022-0.357-0.067c-4.048-1.548-9.767-2.635-16.102-3.062
		c-0.551-0.037-0.968-0.514-0.931-1.065C6.344,16.013,6.805,15.582,7.371,15.633z M7.371,23.198
		c6.53,0.441,12.455,1.574,16.682,3.19c0.516,0.197,0.773,0.775,0.576,1.291c-0.152,0.398-0.531,0.644-0.934,0.644
		c-0.119,0-0.239-0.021-0.357-0.066c-4.046-1.547-9.765-2.635-16.102-3.064c-0.551-0.037-0.968-0.514-0.931-1.065
		C6.344,23.576,6.828,23.151,7.371,23.198z M7.371,30.764c6.526,0.44,12.45,1.572,16.682,3.19c0.516,0.197,0.773,0.775,0.576,1.291
		c-0.151,0.398-0.531,0.643-0.934,0.643c-0.119,0-0.239-0.021-0.357-0.066c-4.05-1.548-9.769-2.636-16.102-3.063
		c-0.551-0.037-0.968-0.514-0.931-1.065C6.344,31.143,6.805,30.719,7.371,30.764z M7.371,38.328
		c6.531,0.441,12.456,1.574,16.682,3.19c0.516,0.197,0.773,0.775,0.576,1.291c-0.152,0.398-0.531,0.644-0.934,0.644
		c-0.119,0-0.239-0.021-0.357-0.066c-4.045-1.547-9.764-2.635-16.102-3.063c-0.551-0.037-0.968-0.514-0.931-1.065
		C6.344,38.708,6.828,38.286,7.371,38.328z"/>
</g>
</svg>
