<?xml version="1.0" encoding="utf-8"?>
<!-- Generator: Adobe Illustrator 17.0.0, SVG Export Plug-In . SVG Version: 6.00 Build 0)  -->
<!DOCTYPE svg PUBLIC "-//W3C//DTD SVG 1.1//EN" "http://www.w3.org/Graphics/SVG/1.1/DTD/svg11.dtd">
<svg version="1.1" id="Layer_2" xmlns="http://www.w3.org/2000/svg" xmlns:xlink="http://www.w3.org/1999/xlink" x="0px" y="0px"
	 width="60px" height="60px" viewBox="0 0 60 60" enable-background="new 0 0 60 60" xml:space="preserve">
<g>
	<path fill="#010101" d="M6,3v54c0,1.654,1.346,3,3,3h5V0H9C7.346,0,6,1.346,6,3z"/>
	<path fill="#010101" d="M53,0H16v60h37c0.553,0,1-0.448,1-1V1C54,0.448,53.553,0,53,0z M44,21c0,0.552-0.447,1-1,1H27
		c-0.553,0-1-0.448-1-1v-8c0-0.552,0.447-1,1-1h16c0.553,0,1,0.448,1,1V21z"/>
</g>
</svg>
