<?xml version="1.0" encoding="utf-8"?>
<!-- Generator: Adobe Illustrator 17.0.0, SVG Export Plug-In . SVG Version: 6.00 Build 0)  -->
<!DOCTYPE svg PUBLIC "-//W3C//DTD SVG 1.1//EN" "http://www.w3.org/Graphics/SVG/1.1/DTD/svg11.dtd">
<svg version="1.1" id="Layer_2" xmlns="http://www.w3.org/2000/svg" xmlns:xlink="http://www.w3.org/1999/xlink" x="0px" y="0px"
	 width="60px" height="60px" viewBox="0 0 60 60" enable-background="new 0 0 60 60" xml:space="preserve">
<g>
	<path fill="#010101" d="M56.539,5.349c-0.287-0.184-0.647-0.208-0.958-0.066L31,16.628V58.81l25.447-12.724
		C56.786,45.916,57,45.57,57,45.191v-39C57,5.851,56.826,5.533,56.539,5.349z"/>
	<path fill="#010101" d="M3.461,5.349C3.174,5.533,3,5.851,3,6.191v39c0,0.379,0.214,0.725,0.553,0.895L29,58.81V16.628L4.419,5.283
		C4.108,5.141,3.748,5.166,3.461,5.349z"/>
	<path fill="#010101" d="M50.894,1.744c-0.247-0.495-0.848-0.695-1.342-0.447L30,11.073L10.447,1.297
		C9.953,1.049,9.353,1.249,9.105,1.744C8.858,2.238,9.059,2.839,9.553,3.086l20,10c0.141,0.07,0.294,0.106,0.447,0.106
		c0.153,0,0.307-0.035,0.447-0.106l20-10C50.941,2.839,51.142,2.238,50.894,1.744z"/>
</g>
</svg>
