<?xml version="1.0" encoding="utf-8"?>
<!-- Generator: Adobe Illustrator 17.0.0, SVG Export Plug-In . SVG Version: 6.00 Build 0)  -->
<!DOCTYPE svg PUBLIC "-//W3C//DTD SVG 1.1//EN" "http://www.w3.org/Graphics/SVG/1.1/DTD/svg11.dtd">
<svg version="1.1" id="Layer_2" xmlns="http://www.w3.org/2000/svg" xmlns:xlink="http://www.w3.org/1999/xlink" x="0px" y="0px"
	 width="60px" height="60px" viewBox="0 0 60 60" enable-background="new 0 0 60 60" xml:space="preserve">
<g>
	<path fill="#010101" d="M55,7h-7V4c0-0.552-0.447-1-1-1H9C8.447,3,8,3.448,8,4v3h5c1.654,0,3,1.346,3,3c0,1.654-1.346,3-3,3H8v2h5
		c1.654,0,3,1.346,3,3c0,1.654-1.346,3-3,3H8v2h5c1.654,0,3,1.346,3,3c0,1.654-1.346,3-3,3H8v2h5c1.654,0,3,1.346,3,3
		c0,1.654-1.346,3-3,3H8v2h5c1.654,0,3,1.346,3,3c0,1.654-1.346,3-3,3H8v2h5c1.654,0,3,1.346,3,3c0,1.654-1.346,3-3,3H8v3
		c0,0.552,0.447,1,1,1h38c0.553,0,1-0.448,1-1v-7h7c0.553,0,1-0.448,1-1V38V28V18V8C56,7.448,55.553,7,55,7z M38,26
		c0,0.552-0.447,1-1,1H21c-0.553,0-1-0.448-1-1V14c0-0.552,0.447-1,1-1h16c0.553,0,1,0.448,1,1V26z M54,47h-6v-8h6V47z M54,37h-6v-8
		h6V37z M54,27h-6v-8h6V27z M54,17h-6V9h6V17z"/>
	<path fill="#010101" d="M14,50c0-0.551-0.448-1-1-1H5c-0.552,0-1,0.449-1,1c0,0.551,0.448,1,1,1h8C13.552,51,14,50.551,14,50z"/>
	<path fill="#010101" d="M5,43h8c0.552,0,1-0.449,1-1c0-0.551-0.448-1-1-1H5c-0.552,0-1,0.449-1,1C4,42.551,4.448,43,5,43z"/>
	<path fill="#010101" d="M5,35h8c0.552,0,1-0.449,1-1c0-0.551-0.448-1-1-1H5c-0.552,0-1,0.449-1,1C4,34.551,4.448,35,5,35z"/>
	<path fill="#010101" d="M5,27h8c0.552,0,1-0.449,1-1c0-0.551-0.448-1-1-1H5c-0.552,0-1,0.449-1,1C4,26.551,4.448,27,5,27z"/>
	<path fill="#010101" d="M5,19h8c0.552,0,1-0.449,1-1c0-0.551-0.448-1-1-1H5c-0.552,0-1,0.449-1,1C4,18.551,4.448,19,5,19z"/>
	<path fill="#010101" d="M5,11h8c0.552,0,1-0.449,1-1c0-0.551-0.448-1-1-1H5c-0.552,0-1,0.449-1,1C4,10.551,4.448,11,5,11z"/>
</g>
</svg>
