<?xml version="1.0" encoding="utf-8"?>
<!-- Generator: Adobe Illustrator 17.0.0, SVG Export Plug-In . SVG Version: 6.00 Build 0)  -->
<!DOCTYPE svg PUBLIC "-//W3C//DTD SVG 1.1//EN" "http://www.w3.org/Graphics/SVG/1.1/DTD/svg11.dtd">
<svg version="1.1" id="Layer_2" xmlns="http://www.w3.org/2000/svg" xmlns:xlink="http://www.w3.org/1999/xlink" x="0px" y="0px"
	 width="60px" height="60px" viewBox="0 0 60 60" enable-background="new 0 0 60 60" xml:space="preserve">
<g>
	<path fill="#010101" d="M49.663,10.235c-0.214-0.19-0.5-0.279-0.783-0.244l-32.938,3.992C13.727,13.953,12,12.207,12,9.984
		c0-3.063,0.58-3.294,12.41-4.957c4.695-0.66,11.126-1.563,19.718-3.058c0.544-0.095,0.908-0.613,0.814-1.157
		c-0.096-0.544-0.606-0.908-1.157-0.814c-8.559,1.489-14.971,2.39-19.652,3.048C12.435,4.69,10,5.032,10,9.984v41
		c0,8.382,6.355,9.033,8.303,9.033c0.51,0,0.821-0.041,0.829-0.042l30-4C49.629,55.908,50,55.485,50,54.984v-44
		C50,10.697,49.877,10.425,49.663,10.235z"/>
	<path fill="#010101" d="M16.01,10.12c0.068,0.501,0.497,0.863,0.989,0.863c0.045,0,0.091-0.003,0.138-0.009l29-4
		c0.547-0.076,0.93-0.58,0.854-1.127c-0.075-0.546-0.567-0.93-1.127-0.854l-29,4C16.316,9.069,15.934,9.573,16.01,10.12z"/>
</g>
</svg>
