<?xml version="1.0" encoding="utf-8"?>
<!-- Generator: Adobe Illustrator 17.0.0, SVG Export Plug-In . SVG Version: 6.00 Build 0)  -->
<!DOCTYPE svg PUBLIC "-//W3C//DTD SVG 1.1//EN" "http://www.w3.org/Graphics/SVG/1.1/DTD/svg11.dtd">
<svg version="1.1" id="Layer_2" xmlns="http://www.w3.org/2000/svg" xmlns:xlink="http://www.w3.org/1999/xlink" x="0px" y="0px"
	 width="60px" height="60px" viewBox="0 0 60 60" enable-background="new 0 0 60 60" xml:space="preserve">
<g>
	<path fill="#010101" d="M6,9v48c0,1.654,1.346,3,3,3h5V6H9C7.346,6,6,7.346,6,9z"/>
	<path fill="#010101" d="M53,6h-7V1c0-0.552-0.447-1-1-1H35c-0.553,0-1,0.448-1,1v5H16v54h37c0.553,0,1-0.448,1-1V7
		C54,6.448,53.553,6,53,6z M44,26.586l-3.293-3.293C40.512,23.098,40.256,23,40,23c-0.256,0-0.512,0.098-0.707,0.293L36,26.586V2h8
		V26.586z"/>
</g>
</svg>
