<?xml version="1.0" encoding="utf-8"?>
<!-- Generator: Adobe Illustrator 17.0.0, SVG Export Plug-In . SVG Version: 6.00 Build 0)  -->
<!DOCTYPE svg PUBLIC "-//W3C//DTD SVG 1.1//EN" "http://www.w3.org/Graphics/SVG/1.1/DTD/svg11.dtd">
<svg version="1.1" id="Layer_2" xmlns="http://www.w3.org/2000/svg" xmlns:xlink="http://www.w3.org/1999/xlink" x="0px" y="0px"
	 width="60px" height="60px" viewBox="0 0 60 60" enable-background="new 0 0 60 60" xml:space="preserve">
<g>
	<path fill="#010101" d="M22,7.5H2c-0.553,0-1,0.448-1,1v40c0,0.552,0.447,1,1,1h19c3.982,0,8,2.165,8,7V10.337
		C27.455,8.515,25.072,7.5,22,7.5z"/>
	<path fill="#010101" d="M58,7.5h-5v-4H41v4h-3c-3.073,0-5.455,1.015-7,2.837V56.5c0-4.835,4.018-7,8-7h19c0.553,0,1-0.448,1-1v-40
		C59,7.948,58.553,7.5,58,7.5z M51,24.086l-4-4l-4,4V5.5h8V24.086z"/>
</g>
</svg>
