<?xml version="1.0" encoding="utf-8"?>
<!-- Generator: Adobe Illustrator 17.0.0, SVG Export Plug-In . SVG Version: 6.00 Build 0)  -->
<!DOCTYPE svg PUBLIC "-//W3C//DTD SVG 1.1//EN" "http://www.w3.org/Graphics/SVG/1.1/DTD/svg11.dtd">
<svg version="1.1" id="Layer_2" xmlns="http://www.w3.org/2000/svg" xmlns:xlink="http://www.w3.org/1999/xlink" x="0px" y="0px"
	 width="60px" height="60px" viewBox="0 0 60 60" enable-background="new 0 0 60 60" xml:space="preserve">
<g>
	<path fill="#010101" d="M1,5.283v41.609c0,0.552,0.447,1,1,1c16.15,0,27,4.047,27,7.826v-45.38C24.897,6.682,14.794,4.283,2,4.283
		C1.447,4.283,1,4.73,1,5.283z"/>
	<path fill="#010101" d="M58,4.283c-12.794,0-22.897,2.399-27,6.055v45.38c0-3.779,10.85-7.826,27-7.826c0.553,0,1-0.448,1-1V5.283
		C59,4.73,58.553,4.283,58,4.283z"/>
</g>
</svg>
