<?xml version="1.0" encoding="utf-8"?>
<!-- Generator: Adobe Illustrator 17.0.0, SVG Export Plug-In . SVG Version: 6.00 Build 0)  -->
<!DOCTYPE svg PUBLIC "-//W3C//DTD SVG 1.1//EN" "http://www.w3.org/Graphics/SVG/1.1/DTD/svg11.dtd">
<svg version="1.1" id="Layer_2" xmlns="http://www.w3.org/2000/svg" xmlns:xlink="http://www.w3.org/1999/xlink" x="0px" y="0px"
	 width="60px" height="60px" viewBox="0 0 60 60" enable-background="new 0 0 60 60" xml:space="preserve">
<path fill="#010101" d="M57,16H40v-4v-1V8c0-1.103-0.898-2-2-2H22c-1.103,0-2,0.897-2,2v3v1v4H3c-1.654,0-3,1.346-3,3v38
	c0,1.654,1.346,3,3,3h54c1.654,0,3-1.346,3-3V19C60,17.346,58.654,16,57,16z M22,12h16v4H22V12z M51,50H8c-0.553,0-1-0.448-1-1
	c0-0.552,0.447-1,1-1h43c0.553,0,1,0.448,1,1C52,49.552,51.553,50,51,50z M51,40H8c-0.553,0-1-0.448-1-1c0-0.552,0.447-1,1-1h43
	c0.553,0,1,0.448,1,1C52,39.552,51.553,40,51,40z M51,30H8c-0.553,0-1-0.448-1-1c0-0.552,0.447-1,1-1h43c0.553,0,1,0.448,1,1
	C52,29.552,51.553,30,51,30z"/>
</svg>
