<?xml version="1.0" encoding="utf-8"?>
<!-- Generator: Adobe Illustrator 17.0.0, SVG Export Plug-In . SVG Version: 6.00 Build 0)  -->
<!DOCTYPE svg PUBLIC "-//W3C//DTD SVG 1.1//EN" "http://www.w3.org/Graphics/SVG/1.1/DTD/svg11.dtd">
<svg version="1.1" id="Layer_2" xmlns="http://www.w3.org/2000/svg" xmlns:xlink="http://www.w3.org/1999/xlink" x="0px" y="0px"
	 width="60px" height="60px" viewBox="0 0 60 60" enable-background="new 0 0 60 60" xml:space="preserve">
<g>
	<path fill="#010101" d="M12,6c-0.553,0-1,0.448-1,1c0,0.552,0.447,1,1,1h40c0.553,0,1-0.448,1-1c0-0.552-0.447-1-1-1H12z"/>
	<path fill="#010101" d="M54,12H12c-2.757,0-5-2.243-5-5c0-2.757,2.243-5,5-5h42c0.553,0,1-0.448,1-1c0-0.552-0.447-1-1-1H12
		C8.141,0,5,3.14,5,7v46.957C5,57.289,7.711,60,11.043,60H54c0.553,0,1-0.448,1-1V13C55,12.448,54.553,12,54,12z M42.019,48
		c-0.005,0-0.012,0.001-0.019,0H18c-0.553,0-1-0.448-1-1c0-5.739,3.742-10.612,8.91-12.331C24.151,33.396,23,31.332,23,29
		c0-3.86,3.141-7,7-7c3.859,0,7,3.14,7,7c0,2.333-1.152,4.397-2.911,5.67c5.106,1.698,8.82,6.474,8.909,12.122
		c0.015,0.067,0.021,0.137,0.021,0.208C43.019,47.552,42.572,48,42.019,48z"/>
</g>
</svg>
