<?xml version="1.0" encoding="utf-8"?>
<!-- Generator: Adobe Illustrator 17.0.0, SVG Export Plug-In . SVG Version: 6.00 Build 0)  -->
<!DOCTYPE svg PUBLIC "-//W3C//DTD SVG 1.1//EN" "http://www.w3.org/Graphics/SVG/1.1/DTD/svg11.dtd">
<svg version="1.1" id="Layer_2" xmlns="http://www.w3.org/2000/svg" xmlns:xlink="http://www.w3.org/1999/xlink" x="0px" y="0px"
	 width="60px" height="60px" viewBox="0 0 60 60" enable-background="new 0 0 60 60" xml:space="preserve">
<path fill="#010101" d="M51,8h-1V1c0-0.552-0.447-1-1-1H13c-2.757,0-5,2.243-5,5v49c0,3.364,2.636,6,6,6h37c0.553,0,1-0.448,1-1V9
	C52,8.448,51.553,8,51,8z M42.019,48c-0.004,0-0.012,0.001-0.019,0H18c-0.553,0-1-0.448-1-1c0-5.739,3.742-10.612,8.91-12.331
	C24.151,33.396,23,31.332,23,29c0-3.86,3.141-7,7-7c3.859,0,7,3.14,7,7c0,2.333-1.152,4.397-2.911,5.67
	c5.106,1.698,8.82,6.474,8.909,12.122c0.015,0.067,0.021,0.137,0.021,0.208C43.019,47.552,42.572,48,42.019,48z M48,8h-2V5.044
	c0-0.552-0.447-0.999-0.999-1L15.001,4H15c-0.552,0-0.999,0.447-1,0.999c-0.001,0.552,0.446,1,0.999,1.001L44,6.043V8H13
	c-1.654,0-3-1.346-3-3c0-1.654,1.346-3,3-3h35V8z"/>
</svg>
