<?xml version="1.0" encoding="utf-8"?>
<!-- Generator: Adobe Illustrator 17.0.0, SVG Export Plug-In . SVG Version: 6.00 Build 0)  -->
<!DOCTYPE svg PUBLIC "-//W3C//DTD SVG 1.1//EN" "http://www.w3.org/Graphics/SVG/1.1/DTD/svg11.dtd">
<svg version="1.1" id="Layer_2" xmlns="http://www.w3.org/2000/svg" xmlns:xlink="http://www.w3.org/1999/xlink" x="0px" y="0px"
	 width="60px" height="60px" viewBox="0 0 60 60" enable-background="new 0 0 60 60" xml:space="preserve">
<path fill="#010101" d="M30,0C13.458,0,0,13.458,0,30s13.458,30,30,30s30-13.458,30-30S46.542,0,30,0z M20,38
	c2.607,0,4.432-1.303,5.504-2.396c0.386-0.395,1.021-0.4,1.414-0.014c0.394,0.387,0.4,1.02,0.014,1.414
	C25.037,38.936,22.576,40,20,40c-5.421,0-10-4.58-10-10c0-5.42,4.579-10,10-10c2.577,0,5.039,1.064,6.932,2.996
	c0.387,0.395,0.381,1.027-0.014,1.414c-0.397,0.386-1.028,0.381-1.414-0.015C24.433,23.303,22.608,22,20,22c-4.337,0-8,3.664-8,8
	C12,34.336,15.663,38,20,38z M47.105,37.004C45.24,38.908,42.65,40,40,40c-5.421,0-10-4.58-10-10c0-5.42,4.579-10,10-10
	c2.651,0,5.242,1.092,7.106,2.996c0.386,0.395,0.379,1.028-0.016,1.414c-0.395,0.388-1.027,0.38-1.414-0.015
	C44.186,22.873,42.117,22,40,22c-4.337,0-8,3.664-8,8c0,4.336,3.663,8,8,8c2.116,0,4.185-0.873,5.678-2.395
	c0.386-0.396,1.019-0.4,1.414-0.015C47.486,35.977,47.492,36.61,47.105,37.004z"/>
</svg>
