<?xml version="1.0" encoding="utf-8"?>
<!-- Generator: Adobe Illustrator 17.0.0, SVG Export Plug-In . SVG Version: 6.00 Build 0)  -->
<!DOCTYPE svg PUBLIC "-//W3C//DTD SVG 1.1//EN" "http://www.w3.org/Graphics/SVG/1.1/DTD/svg11.dtd">
<svg version="1.1" id="Layer_2" xmlns="http://www.w3.org/2000/svg" xmlns:xlink="http://www.w3.org/1999/xlink" x="0px" y="0px"
	 width="60px" height="60px" viewBox="0 0 60 60" enable-background="new 0 0 60 60" xml:space="preserve">
<g>
	<path fill="#010101" d="M59,10H1c-0.553,0-1,0.448-1,1v14c0,0.552,0.447,1,1,1h58c0.553,0,1-0.448,1-1V11
		C60,10.448,59.553,10,59,10z"/>
	<path fill="#010101" d="M57,28H3c-0.553,0-1,0.448-1,1v30c0,0.552,0.447,1,1,1h54c0.553,0,1-0.448,1-1V29
		C58,28.448,57.553,28,57,28z M42,39c0,0.552-0.447,1-1,1H19c-0.553,0-1-0.448-1-1v-6c0-0.552,0.447-1,1-1h22c0.553,0,1,0.448,1,1
		V39z"/>
</g>
</svg>
