<?xml version="1.0" encoding="utf-8"?>
<!-- Generator: Adobe Illustrator 17.0.0, SVG Export Plug-In . SVG Version: 6.00 Build 0)  -->
<!DOCTYPE svg PUBLIC "-//W3C//DTD SVG 1.1//EN" "http://www.w3.org/Graphics/SVG/1.1/DTD/svg11.dtd">
<svg version="1.1" id="Layer_2" xmlns="http://www.w3.org/2000/svg" xmlns:xlink="http://www.w3.org/1999/xlink" x="0px" y="0px"
	 width="60px" height="60px" viewBox="0 0 60 60" enable-background="new 0 0 60 60" xml:space="preserve">
<g>
	<path fill="#010101" d="M8,12h14.5v28H38v-3c0-0.552,0.447-1,1-1h15V5c0-0.552-0.447-1-1-1H23.5c-0.553,0-1,0.448-1,1v5H7
		c-0.553,0-1,0.448-1,1v25h2V12z M35,10h12c0.553,0,1,0.448,1,1c0,0.552-0.447,1-1,1H35c-0.553,0-1-0.448-1-1
		C34,10.448,34.447,10,35,10z M29,14h18c0.553,0,1,0.448,1,1c0,0.552-0.447,1-1,1H29c-0.553,0-1-0.448-1-1
		C28,14.448,28.447,14,29,14z M29,18h18c0.553,0,1,0.448,1,1c0,0.552-0.447,1-1,1H29c-0.553,0-1-0.448-1-1
		C28,18.448,28.447,18,29,18z M29,22h18c0.553,0,1,0.448,1,1c0,0.552-0.447,1-1,1H29c-0.553,0-1-0.448-1-1
		C28,22.448,28.447,22,29,22z M29,26h18c0.553,0,1,0.448,1,1c0,0.552-0.447,1-1,1H29c-0.553,0-1-0.448-1-1
		C28,26.448,28.447,26,29,26z M29,30h18c0.553,0,1,0.448,1,1c0,0.552-0.447,1-1,1H29c-0.553,0-1-0.448-1-1
		C28,30.448,28.447,30,29,30z"/>
	<path fill="#010101" d="M59,38H41h-1v1v2c0,0.552-0.447,1-1,1H21h-1v-1v-2c0-0.552-0.447-1-1-1H1c-0.553,0-1,0.448-1,1v20
		c0,0.552,0.447,1,1,1h58c0.553,0,1-0.448,1-1V39C60,38.448,59.553,38,59,38z"/>
</g>
</svg>
