<?xml version="1.0" encoding="utf-8"?>
<!-- Generator: Adobe Illustrator 17.0.0, SVG Export Plug-In . SVG Version: 6.00 Build 0)  -->
<!DOCTYPE svg PUBLIC "-//W3C//DTD SVG 1.1//EN" "http://www.w3.org/Graphics/SVG/1.1/DTD/svg11.dtd">
<svg version="1.1" id="Layer_2" xmlns="http://www.w3.org/2000/svg" xmlns:xlink="http://www.w3.org/1999/xlink" x="0px" y="0px"
	 width="60px" height="60px" viewBox="0 0 60 60" enable-background="new 0 0 60 60" xml:space="preserve">
<g>
	<path fill="#010101" d="M7,38h46V22H7V38z M21.076,26.617C21.23,26.244,21.596,26,22,26h16c0.404,0,0.769,0.244,0.924,0.617
		c0.155,0.374,0.069,0.804-0.217,1.09l-4,4C34.519,31.895,34.266,32,34,32h-8c-0.266,0-0.52-0.105-0.707-0.293l-4-4
		C21.007,27.421,20.921,26.991,21.076,26.617z"/>
	<path fill="#010101" d="M47,0H13C9.691,0,7,2.691,7,6v14h46V6C53,2.691,50.309,0,47,0z M38.707,7.707l-4,4
		C34.519,11.895,34.266,12,34,12h-8c-0.266,0-0.52-0.105-0.707-0.293l-4-4c-0.286-0.286-0.372-0.716-0.217-1.09
		C21.23,6.244,21.596,6,22,6h16c0.404,0,0.769,0.244,0.924,0.617C39.079,6.991,38.993,7.421,38.707,7.707z"/>
	<path fill="#010101" d="M7,54c0,3.309,2.691,6,6,6h34c3.309,0,6-2.691,6-6V40H7V54z M21.076,44.617C21.23,44.244,21.596,44,22,44
		h16c0.404,0,0.769,0.244,0.924,0.617c0.155,0.374,0.069,0.804-0.217,1.09l-4,4C34.519,49.895,34.266,50,34,50h-8
		c-0.266,0-0.52-0.105-0.707-0.293l-4-4C21.007,45.421,20.921,44.991,21.076,44.617z"/>
</g>
</svg>
