<?xml version="1.0" encoding="utf-8"?>
<!-- Generator: Adobe Illustrator 17.0.0, SVG Export Plug-In . SVG Version: 6.00 Build 0)  -->
<!DOCTYPE svg PUBLIC "-//W3C//DTD SVG 1.1//EN" "http://www.w3.org/Graphics/SVG/1.1/DTD/svg11.dtd">
<svg version="1.1" id="Layer_2" xmlns="http://www.w3.org/2000/svg" xmlns:xlink="http://www.w3.org/1999/xlink" x="0px" y="0px"
	 width="60px" height="60px" viewBox="0 0 60 60" enable-background="new 0 0 60 60" xml:space="preserve">
<g>
	<path fill="#010101" d="M59,2h-2H3H1C0.447,2,0,2.448,0,3c0,0.552,0.447,1,1,1h1v47c0,3.86,3.141,7,7,7h1v1c0,0.552,0.447,1,1,1
		c0.553,0,1-0.448,1-1v-1h36v1c0,0.552,0.447,1,1,1c0.553,0,1-0.448,1-1v-1h1c3.859,0,7-3.14,7-7V4h1c0.553,0,1-0.448,1-1
		C60,2.448,59.553,2,59,2z M50,49c0,0.552-0.447,1-1,1H11c-0.553,0-1-0.448-1-1V33.087c0-0.551,0.446-0.998,0.998-1l38-0.087
		c0,0,0.001,0,0.002,0c0.265,0,0.519,0.105,0.706,0.292C49.894,32.48,50,32.734,50,33V49z M50,27c0,0.552-0.447,1-1,1H11
		c-0.553,0-1-0.448-1-1V11.087c0-0.551,0.446-0.999,0.998-1l38-0.087c0,0,0.001,0,0.002,0c0.265,0,0.519,0.105,0.706,0.292
		C49.894,10.48,50,10.734,50,11V27z"/>
	<path fill="#010101" d="M12,48h36V34.002l-36,0.082V48z M26,40h8c0.553,0,1,0.448,1,1c0,0.552-0.447,1-1,1h-8c-0.553,0-1-0.448-1-1
		C25,40.448,25.447,40,26,40z"/>
	<path fill="#010101" d="M12,26h36V12.002l-36,0.082V26z M26,18h8c0.553,0,1,0.448,1,1c0,0.552-0.447,1-1,1h-8c-0.553,0-1-0.448-1-1
		C25,18.448,25.447,18,26,18z"/>
</g>
</svg>
