<?xml version="1.0" encoding="utf-8"?>
<!-- Generator: Adobe Illustrator 17.0.0, SVG Export Plug-In . SVG Version: 6.00 Build 0)  -->
<!DOCTYPE svg PUBLIC "-//W3C//DTD SVG 1.1//EN" "http://www.w3.org/Graphics/SVG/1.1/DTD/svg11.dtd">
<svg version="1.1" id="Layer_2" xmlns="http://www.w3.org/2000/svg" xmlns:xlink="http://www.w3.org/1999/xlink" x="0px" y="0px"
	 width="60px" height="60px" viewBox="0 0 60 60" enable-background="new 0 0 60 60" xml:space="preserve">
<g>
	<path fill="#010101" d="M15,51h30V41H15V51z M26,45h8c0.553,0,1,0.448,1,1c0,0.552-0.447,1-1,1h-8c-0.553,0-1-0.448-1-1
		C25,45.448,25.447,45,26,45z"/>
	<path fill="#010101" d="M15,19h30V9H15V19z M26,13h8c0.553,0,1,0.448,1,1c0,0.552-0.447,1-1,1h-8c-0.553,0-1-0.448-1-1
		C25,13.448,25.447,13,26,13z"/>
	<path fill="#010101" d="M15,35h30V25H15V35z M26,29h8c0.553,0,1,0.448,1,1c0,0.552-0.447,1-1,1h-8c-0.553,0-1-0.448-1-1
		C25,29.448,25.447,29,26,29z"/>
	<path fill="#010101" d="M52,1H8C7.447,1,7,1.448,7,2v56c0,0.552,0.447,1,1,1h44c0.553,0,1-0.448,1-1V2C53,1.448,52.553,1,52,1z
		 M47,52c0,0.552-0.447,1-1,1H14c-0.553,0-1-0.448-1-1V40c0-0.552,0.447-1,1-1h32c0.553,0,1,0.448,1,1V52z M47,36
		c0,0.552-0.447,1-1,1H14c-0.553,0-1-0.448-1-1V24c0-0.552,0.447-1,1-1h32c0.553,0,1,0.448,1,1V36z M47,20c0,0.552-0.447,1-1,1H14
		c-0.553,0-1-0.448-1-1V8c0-0.552,0.447-1,1-1h32c0.553,0,1,0.448,1,1V20z"/>
</g>
</svg>
