<?xml version="1.0" encoding="utf-8"?>
<!-- Generator: Adobe Illustrator 17.0.0, SVG Export Plug-In . SVG Version: 6.00 Build 0)  -->
<!DOCTYPE svg PUBLIC "-//W3C//DTD SVG 1.1//EN" "http://www.w3.org/Graphics/SVG/1.1/DTD/svg11.dtd">
<svg version="1.1" id="Layer_2" xmlns="http://www.w3.org/2000/svg" xmlns:xlink="http://www.w3.org/1999/xlink" x="0px" y="0px"
	 width="60px" height="60px" viewBox="0 0 60 60" enable-background="new 0 0 60 60" xml:space="preserve">
<path fill="#010101" d="M52.99,58.908V0h-1h-44h-1v60h1h1h42h1h0.02h0.98v-0.903c0.004-0.033,0.02-0.062,0.02-0.097
	C53.01,58.967,52.993,58.94,52.99,58.908z M45.49,52l4.5,6h-40l4.5-6h14.5V12h-8c-2.191,0-4.285-1.047-5.6-2.8L9.99,2h40l-5.399,7.2
	c-1.315,1.753-3.409,2.8-5.601,2.8h-8v40H45.49z"/>
</svg>
