<?xml version="1.0" encoding="utf-8"?>
<!-- Generator: Adobe Illustrator 17.0.0, SVG Export Plug-In . SVG Version: 6.00 Build 0)  -->
<!DOCTYPE svg PUBLIC "-//W3C//DTD SVG 1.1//EN" "http://www.w3.org/Graphics/SVG/1.1/DTD/svg11.dtd">
<svg version="1.1" id="Layer_2" xmlns="http://www.w3.org/2000/svg" xmlns:xlink="http://www.w3.org/1999/xlink" x="0px" y="0px"
	 width="60px" height="60px" viewBox="0 0 60 60" enable-background="new 0 0 60 60" xml:space="preserve">
<path fill="#010101" d="M51,8h-1V1c0-0.552-0.447-1-1-1H13c-2.757,0-5,2.243-5,5v49c0,3.364,2.636,6,6,6h37c0.553,0,1-0.448,1-1V9
	C52,8.448,51.553,8,51,8z M45.602,31.798l-8.25,6.218l3.596,10.665c0.134,0.397,0.006,0.835-0.32,1.098
	c-0.328,0.263-0.783,0.293-1.142,0.079L30,44.167l-9.485,5.691c-0.159,0.096-0.337,0.143-0.515,0.143
	c-0.22,0-0.439-0.072-0.619-0.214c-0.326-0.257-0.459-0.689-0.335-1.085l3.356-10.685l-8.016-6.226
	c-0.338-0.262-0.472-0.709-0.333-1.114c0.139-0.404,0.519-0.676,0.946-0.676L25.3,30l3.761-10.341
	c0.144-0.395,0.519-0.658,0.94-0.658c0.421,0,0.796,0.263,0.939,0.658L34.7,30H45c0.43,0,0.811,0.275,0.948,0.683
	C46.085,31.09,45.945,31.54,45.602,31.798z M48,8h-2V5.044c0-0.552-0.447-0.999-0.999-1L15.001,4H15c-0.552,0-0.999,0.447-1,0.999
	c-0.001,0.552,0.446,1,0.999,1.001L44,6.043V8H13c-1.654,0-3-1.346-3-3c0-1.654,1.346-3,3-3h35V8z"/>
</svg>
