<?xml version="1.0" encoding="utf-8"?>
<!-- Generator: Adobe Illustrator 17.0.0, SVG Export Plug-In . SVG Version: 6.00 Build 0)  -->
<!DOCTYPE svg PUBLIC "-//W3C//DTD SVG 1.1//EN" "http://www.w3.org/Graphics/SVG/1.1/DTD/svg11.dtd">
<svg version="1.1" id="Layer_2" xmlns="http://www.w3.org/2000/svg" xmlns:xlink="http://www.w3.org/1999/xlink" x="0px" y="0px"
	 width="60px" height="60px" viewBox="0 0 60 60" enable-background="new 0 0 60 60" xml:space="preserve">
<g>
	<circle fill="#010101" cx="10" cy="48" r="2"/>
	<path fill="#010101" d="M18,0H2C1.447,0,1,0.448,1,1v58c0,0.552,0.447,1,1,1h16c0.553,0,1-0.448,1-1V1C19,0.448,18.553,0,18,0z
		 M10,52c-2.206,0-4-1.794-4-4c0-2.206,1.794-4,4-4c2.206,0,4,1.794,4,4C14,50.206,12.206,52,10,52z M16,37c0,0.552-0.447,1-1,1H5
		c-0.553,0-1-0.448-1-1V14h12V37z M16,12H4V5c0-0.552,0.447-1,1-1h10c0.553,0,1,0.448,1,1V12z"/>
	<circle fill="#010101" cx="30" cy="48" r="2"/>
	<path fill="#010101" d="M38,0H22c-0.553,0-1,0.448-1,1v58c0,0.552,0.447,1,1,1h16c0.553,0,1-0.448,1-1V1C39,0.448,38.553,0,38,0z
		 M30,52c-2.206,0-4-1.794-4-4c0-2.206,1.794-4,4-4c2.206,0,4,1.794,4,4C34,50.206,32.206,52,30,52z M36,37c0,0.552-0.447,1-1,1H25
		c-0.553,0-1-0.448-1-1V14h12V37z M36,12H24V5c0-0.552,0.447-1,1-1h10c0.553,0,1,0.448,1,1V12z"/>
	<circle fill="#010101" cx="50" cy="48" r="2"/>
	<path fill="#010101" d="M58,0H42c-0.553,0-1,0.448-1,1v58c0,0.552,0.447,1,1,1h16c0.553,0,1-0.448,1-1V1C59,0.448,58.553,0,58,0z
		 M50,52c-2.206,0-4-1.794-4-4c0-2.206,1.794-4,4-4c2.206,0,4,1.794,4,4C54,50.206,52.206,52,50,52z M56,37c0,0.552-0.447,1-1,1H45
		c-0.553,0-1-0.448-1-1V14h12V37z M56,12H44V5c0-0.552,0.447-1,1-1h10c0.553,0,1,0.448,1,1V12z"/>
</g>
</svg>
