<?xml version="1.0" encoding="utf-8"?>
<!-- Generator: Adobe Illustrator 17.0.0, SVG Export Plug-In . SVG Version: 6.00 Build 0)  -->
<!DOCTYPE svg PUBLIC "-//W3C//DTD SVG 1.1//EN" "http://www.w3.org/Graphics/SVG/1.1/DTD/svg11.dtd">
<svg version="1.1" id="Layer_2" xmlns="http://www.w3.org/2000/svg" xmlns:xlink="http://www.w3.org/1999/xlink" x="0px" y="0px"
	 width="60px" height="60px" viewBox="0 0 60 60" enable-background="new 0 0 60 60" xml:space="preserve">
<path fill="#010101" d="M51.703,23.543C53.038,21.705,54,19.067,54,17v-7C54,4.393,43.019,0,29,0C14.981,0,4,4.393,4,10v7
	c0,2.476,1.371,5.786,3.121,7.536L24,41.414V57c0,1.654,1.346,3,3,3h4c1.654,0,3-1.346,3-3v-9.75c2.152,1.143,4.537,1.75,7,1.75
	c8.271,0,15-6.729,15-15C56,30.091,54.435,26.339,51.703,23.543z M29,18c-13.555,0-23-4.216-23-8c0-3.784,9.445-8,23-8
	c13.555,0,23,4.216,23,8C52,13.784,42.555,18,29,18z M41,47c-2.497,0-4.903-0.718-7-2.065v-3.521L50.375,25.04
	C52.682,27.453,54,30.662,54,34C54,41.169,48.168,47,41,47z"/>
</svg>
