<?xml version="1.0" encoding="utf-8"?>
<!-- Generator: Adobe Illustrator 17.0.0, SVG Export Plug-In . SVG Version: 6.00 Build 0)  -->
<!DOCTYPE svg PUBLIC "-//W3C//DTD SVG 1.1//EN" "http://www.w3.org/Graphics/SVG/1.1/DTD/svg11.dtd">
<svg version="1.1" id="Layer_2" xmlns="http://www.w3.org/2000/svg" xmlns:xlink="http://www.w3.org/1999/xlink" x="0px" y="0px"
	 width="60px" height="60px" viewBox="0 0 60 60" enable-background="new 0 0 60 60" xml:space="preserve">
<g>
	<path fill="#010101" d="M58.591,41.087L30,53.904L1.409,41.087c-0.506-0.227-1.096,0-1.321,0.503
		c-0.227,0.504-0.001,1.096,0.503,1.322l29,13C29.721,55.971,29.86,56,30,56c0.14,0,0.279-0.029,0.409-0.087l29-13
		c0.504-0.226,0.729-0.818,0.503-1.322C59.687,41.087,59.095,40.861,58.591,41.087z"/>
	<path fill="#010101" d="M58.591,33.087L30,45.904L1.409,33.087c-0.506-0.227-1.096,0-1.321,0.503
		c-0.227,0.504-0.001,1.096,0.503,1.322l29,13C29.721,47.971,29.86,48,30,48c0.14,0,0.279-0.029,0.409-0.087l29-13
		c0.504-0.226,0.729-0.818,0.503-1.322C59.687,33.087,59.095,32.86,58.591,33.087z"/>
	<path fill="#010101" d="M58.591,25.087L30,37.904L1.409,25.087c-0.506-0.226-1.096,0-1.321,0.503
		c-0.227,0.504-0.001,1.096,0.503,1.322l29,13C29.721,39.971,29.86,40,30,40c0.14,0,0.279-0.029,0.409-0.087l29-13
		c0.504-0.226,0.729-0.818,0.503-1.322C59.687,25.087,59.095,24.861,58.591,25.087z"/>
	<path fill="#010101" d="M0.591,18.913l29,13C29.721,31.971,29.86,32,30,32c0.14,0,0.279-0.029,0.409-0.087l29-13
		C59.769,18.751,60,18.394,60,18c0-0.394-0.231-0.751-0.591-0.913l-29-13c-0.26-0.116-0.559-0.116-0.818,0l-29,13
		C0.231,17.248,0,17.606,0,18C0,18.394,0.231,18.751,0.591,18.913z"/>
</g>
</svg>
