<?xml version="1.0" encoding="utf-8"?>
<!-- Generator: Adobe Illustrator 17.0.0, SVG Export Plug-In . SVG Version: 6.00 Build 0)  -->
<!DOCTYPE svg PUBLIC "-//W3C//DTD SVG 1.1//EN" "http://www.w3.org/Graphics/SVG/1.1/DTD/svg11.dtd">
<svg version="1.1" id="Layer_2" xmlns="http://www.w3.org/2000/svg" xmlns:xlink="http://www.w3.org/1999/xlink" x="0px" y="0px"
	 width="60px" height="60px" viewBox="0 0 60 60" enable-background="new 0 0 60 60" xml:space="preserve">
<path fill="#010101" d="M59,6H1C0.447,6,0,6.448,0,7v46c0,0.552,0.447,1,1,1h58c0.553,0,1-0.448,1-1V7C60,6.448,59.553,6,59,6z
	 M27,48H9c-0.553,0-1-0.448-1-1s0.447-1,1-1h18c0.553,0,1,0.448,1,1S27.553,48,27,48z M27,44H9c-0.553,0-1-0.448-1-1s0.447-1,1-1h18
	c0.553,0,1,0.448,1,1S27.553,44,27,44z M27,40H9c-0.553,0-1-0.448-1-1s0.447-1,1-1h18c0.553,0,1,0.448,1,1S27.553,40,27,40z M27,36
	H9c-0.553,0-1-0.448-1-1s0.447-1,1-1h18c0.553,0,1,0.448,1,1S27.553,36,27,36z M27,32H11c-0.553,0-1-0.448-1-1s0.447-1,1-1h16
	c0.553,0,1,0.448,1,1S27.553,32,27,32z M47,48H33c-0.553,0-1-0.448-1-1s0.447-1,1-1h14c0.553,0,1,0.448,1,1S47.553,48,47,48z M51,44
	H33c-0.553,0-1-0.448-1-1s0.447-1,1-1h18c0.553,0,1,0.448,1,1S51.553,44,51,44z M51,40H33c-0.553,0-1-0.448-1-1s0.447-1,1-1h18
	c0.553,0,1,0.448,1,1S51.553,40,51,40z M51,36H33c-0.553,0-1-0.448-1-1s0.447-1,1-1h18c0.553,0,1,0.448,1,1S51.553,36,51,36z M51,32
	H33c-0.553,0-1-0.448-1-1s0.447-1,1-1h18c0.553,0,1,0.448,1,1S51.553,32,51,32z M54,23c0,0.552-0.447,1-1,1H7c-0.553,0-1-0.448-1-1
	V13c0-0.552,0.447-1,1-1h46c0.553,0,1,0.448,1,1V23z"/>
</svg>
