<?xml version="1.0" encoding="utf-8"?>
<!-- Generator: Adobe Illustrator 17.0.0, SVG Export Plug-In . SVG Version: 6.00 Build 0)  -->
<!DOCTYPE svg PUBLIC "-//W3C//DTD SVG 1.1//EN" "http://www.w3.org/Graphics/SVG/1.1/DTD/svg11.dtd">
<svg version="1.1" id="Layer_2" xmlns="http://www.w3.org/2000/svg" xmlns:xlink="http://www.w3.org/1999/xlink" x="0px" y="0px"
	 width="60px" height="60px" viewBox="0 0 60 60" enable-background="new 0 0 60 60" xml:space="preserve">
<g>
	<path fill="#010101" d="M43,51V1V0H1C0.447,0,0,0.448,0,1v50c0,5.551,3.448,9,9,9h37.645C44.713,58.47,43,55.768,43,51z M8,15
		c0-0.552,0.447-1,1-1h14c0.553,0,1,0.448,1,1v16c0,0.552-0.447,1-1,1H9c-0.553,0-1-0.448-1-1V15z M35,48H9c-0.553,0-1-0.448-1-1
		s0.447-1,1-1h26c0.553,0,1,0.448,1,1S35.553,48,35,48z M35,44H9c-0.553,0-1-0.448-1-1s0.447-1,1-1h26c0.553,0,1,0.448,1,1
		S35.553,44,35,44z M35,40H9c-0.553,0-1-0.448-1-1s0.447-1,1-1h26c0.553,0,1,0.448,1,1S35.553,40,35,40z M35,36H9
		c-0.553,0-1-0.448-1-1s0.447-1,1-1h26c0.553,0,1,0.448,1,1S35.553,36,35,36z M35,32h-8c-0.553,0-1-0.448-1-1s0.447-1,1-1h8
		c0.553,0,1,0.448,1,1S35.553,32,35,32z M35,28h-8c-0.553,0-1-0.448-1-1s0.447-1,1-1h8c0.553,0,1,0.448,1,1S35.553,28,35,28z M35,24
		h-8c-0.553,0-1-0.448-1-1s0.447-1,1-1h8c0.553,0,1,0.448,1,1S35.553,24,35,24z M35,20h-6c-0.553,0-1-0.448-1-1s0.447-1,1-1h6
		c0.553,0,1,0.448,1,1S35.553,20,35,20z M35,10H9c-0.553,0-1-0.448-1-1s0.447-1,1-1h26c0.553,0,1,0.448,1,1S35.553,10,35,10z"/>
	<path fill="#010101" d="M59,8h-8V5c0-0.552-0.447-1-1-1h-4c-0.553,0-1,0.448-1,1v46c0,0.506,0.028,0.974,0.069,1.425
		c0.008,0.087,0.016,0.173,0.025,0.258c0.643,5.856,4.602,7.026,6.222,7.257c0.021-0.007,0.045-0.005,0.065-0.013
		C51.742,59.97,52.111,60,52.5,60c5.153,0,7.5-4.666,7.5-9V9C60,8.448,59.553,8,59,8z M53,50.95c0,0.579-0.448,1.05-1,1.05
		c-0.552,0-1-0.471-1-1.05V15v-2h2V50.95z"/>
</g>
</svg>
