<?xml version="1.0" encoding="utf-8"?>
<!-- Generator: Adobe Illustrator 17.0.0, SVG Export Plug-In . SVG Version: 6.00 Build 0)  -->
<!DOCTYPE svg PUBLIC "-//W3C//DTD SVG 1.1//EN" "http://www.w3.org/Graphics/SVG/1.1/DTD/svg11.dtd">
<svg version="1.1" id="Layer_2" xmlns="http://www.w3.org/2000/svg" xmlns:xlink="http://www.w3.org/1999/xlink" x="0px" y="0px"
	 width="60px" height="60px" viewBox="0 0 60 60" enable-background="new 0 0 60 60" xml:space="preserve">
<g>
	<path fill="#010101" d="M45.453,4.276c-0.046-0.024-0.087-0.054-0.137-0.071l-12-4c-0.205-0.068-0.428-0.068-0.633,0l-12,4
		c-0.05,0.017-0.091,0.047-0.137,0.071L33,8.107L45.453,4.276z"/>
	<path fill="#010101" d="M46,20.153V6.199L34,9.892V25.82l11.385-4.744C45.757,20.921,46,20.557,46,20.153z"/>
	<path fill="#010101" d="M20.615,21.076L32,25.82V9.892L20,6.199v13.954C20,20.557,20.243,20.921,20.615,21.076z"/>
	<path fill="#010101" d="M50,35.797v11.974l9.447-4.724C59.786,42.878,60,42.532,60,42.153V31.252L50,35.797z"/>
	<path fill="#010101" d="M49.371,26.225c-0.238-0.095-0.504-0.095-0.742,0l-8.966,3.586L49,34.055l9.337-4.244L49.371,26.225z"/>
	<path fill="#010101" d="M38,42.153c0,0.379,0.214,0.725,0.553,0.894L48,47.772V35.797l-10-4.545V42.153z"/>
	<path fill="#010101" d="M17.298,28.199c-0.193-0.061-0.402-0.061-0.596,0l-14.71,4.597L17,38.093l15.008-5.297L17.298,28.199z"/>
	<path fill="#010101" d="M0,53.153c0,0.417,0.259,0.79,0.648,0.937L16,59.847V39.861L0,34.214V53.153z"/>
	<path fill="#010101" d="M18,59.847l15.352-5.757C33.741,53.943,34,53.57,34,53.153v-18.94l-16,5.647V59.847z"/>
</g>
</svg>
