<?xml version="1.0" encoding="utf-8"?>
<!-- Generator: Adobe Illustrator 17.0.0, SVG Export Plug-In . SVG Version: 6.00 Build 0)  -->
<!DOCTYPE svg PUBLIC "-//W3C//DTD SVG 1.1//EN" "http://www.w3.org/Graphics/SVG/1.1/DTD/svg11.dtd">
<svg version="1.1" id="Layer_2" xmlns="http://www.w3.org/2000/svg" xmlns:xlink="http://www.w3.org/1999/xlink" x="0px" y="0px"
	 width="60px" height="60px" viewBox="0 0 60 60" enable-background="new 0 0 60 60" xml:space="preserve">
<g>
	<path fill="#010101" d="M27,32H1c-0.553,0-1,0.448-1,1v26c0,0.552,0.447,1,1,1h26c0.553,0,1-0.448,1-1V33
		C28,32.448,27.553,32,27,32z M13,38H6v7c0,0.552-0.447,1-1,1c-0.553,0-1-0.448-1-1v-8c0-0.552,0.447-1,1-1h8c0.553,0,1,0.448,1,1
		C14,37.552,13.553,38,13,38z"/>
	<path fill="#010101" d="M59,32H33c-0.553,0-1,0.448-1,1v26c0,0.552,0.447,1,1,1h26c0.553,0,1-0.448,1-1V33
		C60,32.448,59.553,32,59,32z M45,38h-7v7c0,0.552-0.447,1-1,1c-0.553,0-1-0.448-1-1v-8c0-0.552,0.447-1,1-1h8c0.553,0,1,0.448,1,1
		C46,37.552,45.553,38,45,38z"/>
	<path fill="#010101" d="M17,30h26c0.553,0,1-0.448,1-1V3c0-0.552-0.447-1-1-1H17c-0.553,0-1,0.448-1,1v26
		C16,29.552,16.447,30,17,30z M20,7c0-0.552,0.447-1,1-1h8c0.553,0,1,0.448,1,1c0,0.552-0.447,1-1,1h-7v7c0,0.552-0.447,1-1,1
		c-0.553,0-1-0.448-1-1V7z"/>
</g>
</svg>
