<?xml version="1.0" encoding="utf-8"?>
<!-- Generator: Adobe Illustrator 17.0.0, SVG Export Plug-In . SVG Version: 6.00 Build 0)  -->
<!DOCTYPE svg PUBLIC "-//W3C//DTD SVG 1.1//EN" "http://www.w3.org/Graphics/SVG/1.1/DTD/svg11.dtd">
<svg version="1.1" id="Layer_2" xmlns="http://www.w3.org/2000/svg" xmlns:xlink="http://www.w3.org/1999/xlink" x="0px" y="0px"
	 width="60px" height="60px" viewBox="0 0 60 60" enable-background="new 0 0 60 60" xml:space="preserve">
<g>
	<path fill="#010101" d="M49,49.393c4.992-5.205,5.925-10.038,5.985-10.382C54.995,38.954,55,38.897,55,38.839v-9h-6V49.393z"/>
	<path fill="#010101" d="M5,38.839c0,0.058,0.005,0.115,0.015,0.172C5.118,39.6,7.766,53.336,29,59.583V29.839H5V38.839z"/>
	<path fill="#010101" d="M31,59.583c1.414-0.416,2.746-0.865,4-1.341V29.839h-4V59.583z"/>
	<path fill="#010101" d="M37,57.433c1.444-0.622,2.776-1.279,4-1.963V29.839h-4V57.433z"/>
	<path fill="#010101" d="M54.383,1.915c-0.374-0.154-0.803-0.069-1.09,0.216C50.554,4.869,48.122,5.839,44,5.839
		c-4.905,0-10.297-2.247-13-5.375v27.375h24v-25C55,2.435,54.757,2.07,54.383,1.915z"/>
	<path fill="#010101" d="M23,4.442c-1.279,0.506-2.632,0.893-4,1.129v22.268h4V4.442z"/>
	<path fill="#010101" d="M25,3.518v24.321h4V0.417C27.992,1.6,26.605,2.658,25,3.518z"/>
	<path fill="#010101" d="M17,5.807c-0.335,0.02-0.669,0.032-1,0.032c-1.112,0-2.095-0.078-3-0.234v22.234h4V5.807z"/>
	<path fill="#010101" d="M11,5.067c-1.533-0.58-2.875-1.516-4.293-2.935c-0.286-0.286-0.715-0.371-1.09-0.217
		C5.244,2.07,5,2.435,5,2.839v25h6V5.067z"/>
	<path fill="#010101" d="M43,54.274c1.513-0.969,2.84-1.971,4-2.979V29.839h-4V54.274z"/>
</g>
</svg>
