<?xml version="1.0" encoding="utf-8"?>
<!-- Generator: Adobe Illustrator 17.0.0, SVG Export Plug-In . SVG Version: 6.00 Build 0)  -->
<!DOCTYPE svg PUBLIC "-//W3C//DTD SVG 1.1//EN" "http://www.w3.org/Graphics/SVG/1.1/DTD/svg11.dtd">
<svg version="1.1" id="Layer_2" xmlns="http://www.w3.org/2000/svg" xmlns:xlink="http://www.w3.org/1999/xlink" x="0px" y="0px"
	 width="60px" height="60px" viewBox="0 0 60 60" enable-background="new 0 0 60 60" xml:space="preserve">
<path fill="#010101" d="M54.383,2.067c-0.374-0.154-0.804-0.069-1.09,0.216C50.554,5.02,48.122,5.99,44,5.99
	c-5.037,0-10.597-2.367-13.221-5.627c-0.381-0.472-1.222-0.472-1.601,0C26.558,3.624,21.015,5.99,16,5.99
	c-4.126,0-6.558-0.97-9.293-3.707c-0.285-0.286-0.715-0.371-1.09-0.217C5.244,2.221,5,2.586,5,2.99v36
	c0,0.058,0.005,0.115,0.015,0.172c0.104,0.595,2.8,14.649,24.716,20.79c0.088,0.025,0.179,0.037,0.27,0.037
	c0.091,0,0.182-0.012,0.269-0.037c21.915-6.141,24.611-20.195,24.716-20.79C54.995,39.106,55,39.048,55,38.99v-36
	C55,2.586,54.757,2.221,54.383,2.067z M45,32.99c0,0.552-0.447,1-1,1h-9v9c0,0.552-0.447,1-1,1h-8c-0.553,0-1-0.448-1-1v-9h-9
	c-0.553,0-1-0.448-1-1v-8c0-0.552,0.447-1,1-1h9v-9c0-0.552,0.447-1,1-1h8c0.553,0,1,0.448,1,1v9h9c0.553,0,1,0.448,1,1V32.99z"/>
</svg>
