<?xml version="1.0" encoding="utf-8"?>
<!-- Generator: Adobe Illustrator 17.0.0, SVG Export Plug-In . SVG Version: 6.00 Build 0)  -->
<!DOCTYPE svg PUBLIC "-//W3C//DTD SVG 1.1//EN" "http://www.w3.org/Graphics/SVG/1.1/DTD/svg11.dtd">
<svg version="1.1" id="Layer_2" xmlns="http://www.w3.org/2000/svg" xmlns:xlink="http://www.w3.org/1999/xlink" x="0px" y="0px"
	 width="60px" height="60px" viewBox="0 0 60 60" enable-background="new 0 0 60 60" xml:space="preserve">
<g>
	<path fill="#010101" d="M7,10c-0.553,0-1,0.448-1,1s0.447,1,1,1h26c0.553,0,1-0.448,1-1s-0.447-1-1-1H7z"/>
	<path fill="#010101" d="M48.603,22.816c-0.391-0.392-1.023-0.391-1.414-0.001c-0.391,0.391-0.391,1.024,0,1.414
		c2.907,2.91,4.508,6.776,4.508,10.885c0,4.11-1.601,7.975-4.508,10.882c-0.391,0.391-0.391,1.023,0,1.414
		c0.195,0.195,0.451,0.293,0.707,0.293c0.256,0,0.512-0.098,0.707-0.293c3.285-3.285,5.094-7.651,5.094-12.296
		C53.697,30.471,51.889,26.104,48.603,22.816z"/>
	<path fill="#010101" d="M53.43,19.25c-0.391-0.391-1.023-0.391-1.414,0c-0.391,0.391-0.391,1.023,0,1.414
		C55.875,24.523,58,29.655,58,35.114c0,5.458-2.125,10.589-5.984,14.448c-0.391,0.391-0.391,1.023,0,1.414
		c0.195,0.195,0.451,0.293,0.707,0.293c0.256,0,0.512-0.098,0.707-0.293C57.667,46.74,60,41.106,60,35.114
		C60,29.121,57.667,23.486,53.43,19.25z"/>
	<path fill="#010101" d="M43.777,26.381c-0.391-0.391-1.023-0.39-1.414,0c-0.391,0.391-0.391,1.024,0,1.415
		c1.953,1.955,3.029,4.554,3.029,7.319c0,2.763-1.076,5.362-3.03,7.318c-0.39,0.391-0.39,1.024,0.001,1.414
		c0.195,0.195,0.451,0.292,0.707,0.292c0.256,0,0.513-0.098,0.708-0.293c2.33-2.333,3.614-5.435,3.614-8.731
		C47.393,31.815,46.108,28.714,43.777,26.381z"/>
	<path fill="#010101" d="M38,5c0-0.552-0.447-1-1-1H7c-3.859,0-7,3.14-7,7v39c0,3.364,2.636,6,6,6h32V16H7c-2.757,0-5-2.243-5-5
		s2.243-5,5-5h30C37.553,6,38,5.552,38,5z M10,31c0-0.552,0.447-1,1-1h5.649l9.726-7.781c0.301-0.24,0.711-0.286,1.059-0.121
		C27.779,22.265,28,22.616,28,23v24c0,0.384-0.221,0.735-0.566,0.901C27.296,47.967,27.147,48,27,48
		c-0.223,0-0.444-0.075-0.625-0.219L16.649,40H11c-0.553,0-1-0.448-1-1V31z"/>
</g>
</svg>
