<?xml version="1.0" encoding="utf-8"?>
<!-- Generator: Adobe Illustrator 17.0.0, SVG Export Plug-In . SVG Version: 6.00 Build 0)  -->
<!DOCTYPE svg PUBLIC "-//W3C//DTD SVG 1.1//EN" "http://www.w3.org/Graphics/SVG/1.1/DTD/svg11.dtd">
<svg version="1.1" id="Layer_2" xmlns="http://www.w3.org/2000/svg" xmlns:xlink="http://www.w3.org/1999/xlink" x="0px" y="0px"
	 width="60px" height="60px" viewBox="0 0 60 60" enable-background="new 0 0 60 60" xml:space="preserve">
<g>
	<path fill="#010101" d="M18,1H2C1.447,1,1,1.448,1,2v16c0,0.552,0.447,1,1,1h16c0.553,0,1-0.448,1-1V2C19,1.448,18.553,1,18,1z"/>
	<path fill="#010101" d="M38,1H22c-0.553,0-1,0.448-1,1v16c0,0.552,0.447,1,1,1h16c0.553,0,1-0.448,1-1V2C39,1.448,38.553,1,38,1z"
		/>
	<path fill="#010101" d="M58,1H42c-0.553,0-1,0.448-1,1v16c0,0.552,0.447,1,1,1h16c0.553,0,1-0.448,1-1V2C59,1.448,58.553,1,58,1z"
		/>
	<path fill="#010101" d="M18,21H2c-0.553,0-1,0.448-1,1v16c0,0.552,0.447,1,1,1h16c0.553,0,1-0.448,1-1V22
		C19,21.448,18.553,21,18,21z"/>
	<path fill="#010101" d="M38,21H22c-0.553,0-1,0.448-1,1v16c0,0.552,0.447,1,1,1h16c0.553,0,1-0.448,1-1V22
		C39,21.448,38.553,21,38,21z"/>
	<path fill="#010101" d="M58,21H42c-0.553,0-1,0.448-1,1v16c0,0.552,0.447,1,1,1h16c0.553,0,1-0.448,1-1V22
		C59,21.448,58.553,21,58,21z"/>
	<path fill="#010101" d="M18,41H2c-0.553,0-1,0.448-1,1v16c0,0.552,0.447,1,1,1h16c0.553,0,1-0.448,1-1V42
		C19,41.448,18.553,41,18,41z"/>
	<path fill="#010101" d="M38,41H22c-0.553,0-1,0.448-1,1v16c0,0.552,0.447,1,1,1h16c0.553,0,1-0.448,1-1V42
		C39,41.448,38.553,41,38,41z"/>
	<path fill="#010101" d="M58,41H42c-0.553,0-1,0.448-1,1v16c0,0.552,0.447,1,1,1h16c0.553,0,1-0.448,1-1V42
		C59,41.448,58.553,41,58,41z"/>
</g>
</svg>
