<?xml version="1.0" encoding="utf-8"?>
<!-- Generator: Adobe Illustrator 17.0.0, SVG Export Plug-In . SVG Version: 6.00 Build 0)  -->
<!DOCTYPE svg PUBLIC "-//W3C//DTD SVG 1.1//EN" "http://www.w3.org/Graphics/SVG/1.1/DTD/svg11.dtd">
<svg version="1.1" id="Layer_1" xmlns="http://www.w3.org/2000/svg" xmlns:xlink="http://www.w3.org/1999/xlink" x="0px" y="0px"
	 width="48px" height="48px" viewBox="0 0 48 48" enable-background="new 0 0 48 48" xml:space="preserve">
<g>
	<path fill="#231F20" d="M18,10h12c0.552,0,1-0.448,1-1V5c0-0.552-0.448-1-1-1H18c-0.552,0-1,0.448-1,1v4C17,9.552,17.448,10,18,10z
		 M19,6h10v2H19V6z"/>
	<path fill="#231F20" d="M19,38h-6c-0.552,0-1,0.448-1,1s0.448,1,1,1h6c0.552,0,1-0.448,1-1S19.552,38,19,38z"/>
	<path fill="#231F20" d="M35,38h-6c-0.552,0-1,0.448-1,1s0.448,1,1,1h6c0.552,0,1-0.448,1-1S35.552,38,35,38z"/>
	<path fill="#231F20" d="M47,14h-4h-3v-1V8c0-4.411-3.589-8-8-8H16c-4.411,0-8,3.589-8,8v5v1H5H1c-0.552,0-1,0.448-1,1v14
		c0,0.552,0.448,1,1,1h4c0.552,0,1-0.448,1-1V16h2v15v12c0,1.302,0.839,2.401,2,2.816V47c0,0.552,0.448,1,1,1h4c0.552,0,1-0.448,1-1
		v-1h16v1c0,0.552,0.448,1,1,1h4c0.552,0,1-0.448,1-1v-1.184c1.161-0.414,2-1.514,2-2.816V31V16h2v13c0,0.552,0.448,1,1,1h4
		c0.552,0,1-0.448,1-1V15C48,14.448,47.552,14,47,14z M4,28H2V16h2V28z M10,14h28v16H10V14z M16,2h16c3.309,0,6,2.691,6,6v4H10V8
		C10,4.691,12.691,2,16,2z M37,44h-4H15h-4c-0.551,0-1-0.449-1-1V32h28v11C38,43.551,37.551,44,37,44z M46,28h-2V16h2V28z"/>
</g>
<g id="nyt_x5F_exporter_x5F_info" display="none">
</g>
</svg>
