<?xml version="1.0" encoding="utf-8"?>
<!-- Generator: Adobe Illustrator 17.0.0, SVG Export Plug-In . SVG Version: 6.00 Build 0)  -->
<!DOCTYPE svg PUBLIC "-//W3C//DTD SVG 1.1//EN" "http://www.w3.org/Graphics/SVG/1.1/DTD/svg11.dtd">
<svg version="1.1" id="Layer_1" xmlns="http://www.w3.org/2000/svg" xmlns:xlink="http://www.w3.org/1999/xlink" x="0px" y="0px"
	 width="48px" height="48px" viewBox="0 0 48 48" enable-background="new 0 0 48 48" xml:space="preserve">
<g>
	<path fill="#231F20" d="M48,21v-4c0-0.552-0.447-1-1-1h-6c-0.208,0-0.391,0.079-0.551,0.187l-2.501-7.503
		C37.812,8.275,37.431,8,37,8H11c-0.431,0-0.813,0.275-0.949,0.684L7.55,16.187C7.39,16.078,7.208,16,7,16H1c-0.553,0-1,0.448-1,1v4
		c0,0.552,0.447,1,1,1h3.586l-4.292,4.292c-0.092,0.092-0.165,0.201-0.216,0.323C0.027,26.736,0,26.867,0,27v4v4
		c0,0.552,0.447,1,1,1h1v3c0,0.552,0.447,1,1,1h6c0.553,0,1-0.448,1-1v-3h6v1c0,0.552,0.447,1,1,1h14c0.553,0,1-0.448,1-1v-1h6v3
		c0,0.552,0.447,1,1,1h6c0.553,0,1-0.448,1-1v-3h1c0.553,0,1-0.448,1-1v-4v-4c0-0.133-0.027-0.263-0.077-0.384
		c-0.051-0.122-0.124-0.232-0.216-0.324L43.414,22H47C47.553,22,48,21.552,48,21z M11.721,10H36.28l3.333,10H8.388L11.721,10z M2,18
		h4v2H2V18z M8,28v2H2v-2H8z M8,38H4v-2h4V38z M30,36H18v-4h12V36z M44,38h-4v-2h4V38z M45,34h-6h-7v-3c0-0.552-0.447-1-1-1H17
		c-0.553,0-1,0.448-1,1v3H9H3H2v-2h7c0.553,0,1-0.448,1-1v-4c0-0.552-0.447-1-1-1H3.414l4-4h33.172l4,4H39c-0.553,0-1,0.448-1,1v4
		c0,0.552,0.447,1,1,1h7v2H45z M46,30h-6v-2h6V30z M46,20h-4v-2h4V20z"/>
	<path fill="#231F20" d="M24,24c-0.553,0-1,0.448-1,1v2c0,0.552,0.447,1,1,1s1-0.448,1-1v-2C25,24.448,24.553,24,24,24z"/>
</g>
<g id="nyt_x5F_exporter_x5F_info" display="none">
</g>
</svg>
