<?xml version="1.0" encoding="utf-8"?>
<!-- Generator: Adobe Illustrator 17.0.0, SVG Export Plug-In . SVG Version: 6.00 Build 0)  -->
<!DOCTYPE svg PUBLIC "-//W3C//DTD SVG 1.1//EN" "http://www.w3.org/Graphics/SVG/1.1/DTD/svg11.dtd">
<svg version="1.1" id="Layer_1" xmlns="http://www.w3.org/2000/svg" xmlns:xlink="http://www.w3.org/1999/xlink" x="0px" y="0px"
	 width="48px" height="48px" viewBox="0 0 48 48" enable-background="new 0 0 48 48" xml:space="preserve">
<g>
	<path fill="#231F20" d="M48,34.938c-0.02-3.005-1.604-5.671-4.237-7.13c-1.551-0.86-3.265-1.174-4.936-0.975l-1.574-9.96
		C37.037,15.491,35.844,14,34.294,14H13.71c-1.55,0-2.746,1.49-2.966,2.871l-1.573,9.964c-1.67-0.197-3.383,0.118-4.934,0.979
		C1.604,29.274,0.02,31.938,0,35c0,3.909,2.51,7.235,6,8.475V47c0,0.552,0.448,1,1,1h6c0.552,0,1-0.448,1-1v-3h4v1
		c0,0.552,0.448,1,1,1h10c0.552,0,1-0.448,1-1v-1h4v3c0,0.552,0.448,1,1,1h6c0.552,0,1-0.448,1-1v-3.526
		C45.49,42.232,48,38.896,48,34.938z M12.72,17.184C12.811,16.608,13.32,16,13.71,16h20.584c0.388,0,0.894,0.607,0.984,1.183
		l1.579,9.995C33.627,24.524,29.005,23,24,23s-9.627,1.524-12.857,4.177L12.72,17.184z M35.03,28.267l-7.815,4.809
		c-1.982,1.222-4.417,1.24-6.355,0.047l-7.891-4.855C15.804,26.205,19.813,25,24,25C28.187,25,32.196,26.205,35.03,28.267z M12,46H8
		v-2.059C8.329,43.978,8.662,44,9,44h3V46z M28,44h-8v-4h8V44z M40,46h-4v-2h3c0.338,0,0.671-0.022,1-0.059V46z M39,42h-9v-3
		c0-0.552-0.448-1-1-1H19c-0.552,0-1,0.448-1,1v3H9c-3.86,0-7-3.14-7-7.048c0.015-2.269,1.214-4.283,3.208-5.389
		c1.753-0.971,3.778-1.047,5.558-0.24c0.008,0.004,0.015,0.009,0.024,0.013c0.235,0.108,0.467,0.227,0.692,0.366l8.33,5.125
		c2.584,1.592,5.823,1.573,8.452-0.047l8.252-5.078c0.219-0.135,0.445-0.25,0.673-0.356c0.012-0.005,0.022-0.013,0.034-0.018
		c1.786-0.813,3.815-0.742,5.571,0.23C44.786,30.662,45.984,32.679,46,35C46,38.86,42.86,42,39,42z"/>
	<path fill="#231F20" d="M8,31c-2.206,0-4,1.794-4,4s1.794,4,4,4s4-1.794,4-4S10.206,31,8,31z M8,37c-1.103,0-2-0.897-2-2
		s0.897-2,2-2s2,0.897,2,2S9.103,37,8,37z"/>
	<path fill="#231F20" d="M40,31c-2.206,0-4,1.794-4,4s1.794,4,4,4s4-1.794,4-4S42.206,31,40,31z M40,37c-1.103,0-2-0.897-2-2
		s0.897-2,2-2s2,0.897,2,2S41.103,37,40,37z"/>
	<circle fill="#231F20" cx="24" cy="31" r="1"/>
</g>
<g id="nyt_x5F_exporter_x5F_info" display="none">
</g>
</svg>
