<?xml version="1.0" encoding="utf-8"?>
<!-- Generator: Adobe Illustrator 17.0.0, SVG Export Plug-In . SVG Version: 6.00 Build 0)  -->
<!DOCTYPE svg PUBLIC "-//W3C//DTD SVG 1.1//EN" "http://www.w3.org/Graphics/SVG/1.1/DTD/svg11.dtd">
<svg version="1.1" id="Layer_1" xmlns="http://www.w3.org/2000/svg" xmlns:xlink="http://www.w3.org/1999/xlink" x="0px" y="0px"
	 width="48px" height="48px" viewBox="0 0 48 48" enable-background="new 0 0 48 48" xml:space="preserve">
<g>
	<path fill="#231F20" d="M47.083,42h-1v-9c0-0.552-0.447-1-1-1h-1v-2.226l3.123-0.806c0.535-0.138,0.857-0.683,0.718-1.218
		c-0.138-0.535-0.685-0.856-1.218-0.718l-5.81,1.5c-0.535,0.138-0.857,0.683-0.718,1.218c0.116,0.451,0.523,0.751,0.967,0.751
		c0.083,0,0.167-0.011,0.251-0.033l0.687-0.177V32h-0.734l-13.77-7.868C27.428,24.045,27.257,24,27.083,24h-11
		c-0.379,0-0.725,0.214-0.894,0.553L11.465,32H4.083c-2.206,0-4,1.794-4,4v7c0,0.552,0.447,1,1,1h3.101c0.465,2.279,2.484,4,4.899,4
		s4.434-1.721,4.899-4h14.202c0.465,2.279,2.484,4,4.899,4s4.434-1.721,4.899-4h9.101c0.553,0,1-0.448,1-1S47.636,42,47.083,42z
		 M2.083,36c0-1.103,0.897-2,2-2h8c0.379,0,0.725-0.214,0.894-0.553L16.701,26h10.116l13.77,7.868
		C40.738,33.955,40.909,34,41.083,34h3v8h-6.101c-0.465-2.279-2.484-4-4.899-4s-4.434,1.721-4.899,4H13.982
		c-0.465-2.279-2.484-4-4.899-4s-4.434,1.721-4.899,4H2.083V36z M9.083,46c-1.654,0-3-1.346-3-3s1.346-3,3-3s3,1.346,3,3
		S10.737,46,9.083,46z M33.083,46c-1.654,0-3-1.346-3-3s1.346-3,3-3s3,1.346,3,3S34.737,46,33.083,46z"/>
	<path fill="#231F20" d="M16.636,33.895C16.779,33.966,16.932,34,17.082,34c0.367,0,0.72-0.202,0.895-0.553L19.701,30h1.382
		c0.553,0,1-0.448,1-1s-0.447-1-1-1h-2c-0.379,0-0.725,0.214-0.894,0.553l-2,4C15.942,33.047,16.142,33.648,16.636,33.895z"/>
</g>
<g id="nyt_x5F_exporter_x5F_info" display="none">
</g>
</svg>
