<?xml version="1.0" encoding="utf-8"?>
<!-- Generator: Adobe Illustrator 17.0.0, SVG Export Plug-In . SVG Version: 6.00 Build 0)  -->
<!DOCTYPE svg PUBLIC "-//W3C//DTD SVG 1.1//EN" "http://www.w3.org/Graphics/SVG/1.1/DTD/svg11.dtd">
<svg version="1.1" id="Layer_1" xmlns="http://www.w3.org/2000/svg" xmlns:xlink="http://www.w3.org/1999/xlink" x="0px" y="0px"
	 width="48px" height="48px" viewBox="0 0 48 48" enable-background="new 0 0 48 48" xml:space="preserve">
<g>
	<path fill="#231F20" d="M47,20h-4.423l-2.211-3.832c-0.277-0.478-0.889-0.642-1.366-0.366c-0.478,0.276-0.642,0.888-0.366,1.366
		L40.845,21l-2.211,3.83c-0.277,0.478-0.113,1.09,0.366,1.366c0.157,0.091,0.329,0.134,0.499,0.134c0.346,0,0.682-0.179,0.867-0.5
		L42.577,22H47c0.553,0,1-0.448,1-1S47.553,20,47,20z"/>
	<path fill="#231F20" d="M21,24c-0.553,0-1,0.448-1,1s0.447,1,1,1h2c0.553,0,1-0.448,1-1s-0.447-1-1-1H21z"/>
	<path fill="#231F20" d="M37,10H20V9c0-0.552-0.447-1-1-1s-1,0.448-1,1v1H1c-0.553,0-1,0.448-1,1s0.447,1,1,1h17v2h-1
		c-0.553,0-1,0.448-1,1v3C9.659,18,2,23.353,2,30c0,4.402,1.415,7.309,3.748,7.887L5.22,40.002l-3.22,0V40c0-0.552-0.447-1-1-1
		s-1,0.448-1,1c0,1.103,0.897,2,2,2h23c0.553,0,1-0.448,1-1s-0.447-1-1-1l-3.218,0l-0.595-2.409
		c4.905-2.339,6.365-9.448,6.713-11.767l8.316-1.848c0.539-0.12,0.879-0.654,0.76-1.193c-0.12-0.539-0.656-0.878-1.193-0.759l-9,2
		c-0.422,0.093-0.735,0.447-0.778,0.876c-0.009,0.093-0.978,9.207-6.162,11.1H6.633C4.814,36,4,32.986,4,30c0-5.386,6.599-10,12-10
		h1h4h15c0.553,0,1-0.448,1-1s-0.447-1-1-1H22v-3c0-0.552-0.447-1-1-1h-1v-2h17c0.553,0,1-0.448,1-1S37.553,10,37,10z M7.28,40.002
		L7.78,38h11.448l0.494,2L7.28,40.002z M18,18v-2h2v2H18z"/>
	<path fill="#231F20" d="M7,30c0,0.552,0.447,1,1,1h6c0.553,0,1-0.448,1-1v-6c0-0.552-0.447-1-1-1C10.141,23,7,26.14,7,30z M13,29
		H9.101c0.398-1.956,1.943-3.501,3.899-3.899V29z"/>
</g>
<g id="nyt_x5F_exporter_x5F_info" display="none">
</g>
</svg>
