<?xml version="1.0" encoding="utf-8"?>
<!-- Generator: Adobe Illustrator 17.0.0, SVG Export Plug-In . SVG Version: 6.00 Build 0)  -->
<!DOCTYPE svg PUBLIC "-//W3C//DTD SVG 1.1//EN" "http://www.w3.org/Graphics/SVG/1.1/DTD/svg11.dtd">
<svg version="1.1" id="Layer_1" xmlns="http://www.w3.org/2000/svg" xmlns:xlink="http://www.w3.org/1999/xlink" x="0px" y="0px"
	 width="48px" height="48px" viewBox="0 0 48 48" enable-background="new 0 0 48 48" xml:space="preserve">
<path fill="#231F20" d="M39,26c-0.742,0-1.46,0.1-2.15,0.271l-3.526-9.57l2.919-0.73c0.536-0.134,0.862-0.677,0.728-1.213
	c-0.134-0.535-0.678-0.859-1.213-0.727l-4,1c-0.275,0.069-0.509,0.252-0.641,0.503c-0.133,0.251-0.153,0.546-0.055,0.813
	l1.014,2.752l-13.561,4.666L16.986,20H19c0.552,0,1-0.448,1-1s-0.448-1-1-1h-3.478c-0.006,0-0.011,0-0.017,0H13
	c-0.552,0-1,0.448-1,1s0.448,1,1,1h1.827l1.967,4.843l-2.563,2.848C12.755,26.631,10.952,26,9,26c-4.962,0-9,4.038-9,9s4.038,9,9,9
	c4.624,0,8.441-3.507,8.941-8h3.994c0.022,0.002,0.043,0.002,0.064,0.002c0.306,0,0.607-0.14,0.804-0.403l10.265-13.808l1.906,5.172
	C32.03,28.444,30,31.486,30,35c0,4.962,4.038,9,9,9s9-4.038,9-9S43.962,26,39,26z M14.375,30.522
	c0.811,0.972,1.357,2.167,1.545,3.478h-4.675L14.375,30.522z M9,42c-3.86,0-7-3.14-7-7s3.14-7,7-7c1.438,0,2.775,0.437,3.888,1.183
	l-4.632,5.148c-0.264,0.294-0.331,0.715-0.17,1.076C8.247,35.768,8.605,36,9,36h6.92C15.432,39.387,12.52,42,9,42z M17.941,34
	c-0.211-1.897-1.018-3.613-2.224-4.969l1.915-2.128L20.515,34H17.941z M22.258,32.978l-2.989-7.358l11.367-3.913L22.258,32.978z
	 M39,42c-3.86,0-7-3.14-7-7c0-2.654,1.485-4.968,3.667-6.154l2.395,6.5c0.148,0.404,0.531,0.655,0.938,0.655
	c0.115,0,0.232-0.02,0.346-0.062c0.518-0.191,0.784-0.766,0.593-1.284l-2.395-6.5C38.014,28.055,38.501,28,39,28c3.86,0,7,3.14,7,7
	S42.86,42,39,42z"/>
<g id="nyt_x5F_exporter_x5F_info" display="none">
</g>
</svg>
