<?xml version="1.0" encoding="utf-8"?>
<!-- Generator: Adobe Illustrator 17.0.0, SVG Export Plug-In . SVG Version: 6.00 Build 0)  -->
<!DOCTYPE svg PUBLIC "-//W3C//DTD SVG 1.1//EN" "http://www.w3.org/Graphics/SVG/1.1/DTD/svg11.dtd">
<svg version="1.1" id="Layer_1" xmlns="http://www.w3.org/2000/svg" xmlns:xlink="http://www.w3.org/1999/xlink" x="0px" y="0px"
	 width="48px" height="48px" viewBox="0 0 48 48" enable-background="new 0 0 48 48" xml:space="preserve">
<g>
	<path fill="#231F20" d="M47,42h-1v-9c0-0.552-0.448-1-1-1H28v-7c0-0.552-0.448-1-1-1H16c-0.379,0-0.725,0.214-0.894,0.553
		L11.382,32H4c-2.206,0-4,1.794-4,4v7c0,0.552,0.448,1,1,1h3.101C4.566,46.279,6.585,48,9,48s4.434-1.721,4.899-4h14.202
		c0.465,2.279,2.484,4,4.899,4s4.434-1.721,4.899-4H47c0.552,0,1-0.448,1-1S47.552,42,47,42z M2,36c0-1.103,0.897-2,2-2h8
		c0.379,0,0.725-0.214,0.894-0.553L16.618,26H26v7c0,0.552,0.448,1,1,1h17v8h-6.101c-0.465-2.279-2.484-4-4.899-4
		s-4.434,1.721-4.899,4H13.899c-0.465-2.279-2.484-4-4.899-4s-4.434,1.721-4.899,4H2V36z M9,46c-1.654,0-3-1.346-3-3s1.346-3,3-3
		s3,1.346,3,3S10.654,46,9,46z M33,46c-1.654,0-3-1.346-3-3s1.346-3,3-3s3,1.346,3,3S34.654,46,33,46z"/>
	<path fill="#231F20" d="M16.553,33.895C16.696,33.966,16.849,34,16.999,34c0.367,0,0.72-0.202,0.895-0.553L19.618,30H21
		c0.552,0,1-0.448,1-1s-0.448-1-1-1h-2c-0.379,0-0.725,0.214-0.894,0.553l-2,4C15.859,33.047,16.059,33.648,16.553,33.895z"/>
</g>
<g id="nyt_x5F_exporter_x5F_info" display="none">
</g>
</svg>
