<?xml version="1.0" encoding="utf-8"?>
<!-- Generator: Adobe Illustrator 17.0.0, SVG Export Plug-In . SVG Version: 6.00 Build 0)  -->
<!DOCTYPE svg PUBLIC "-//W3C//DTD SVG 1.1//EN" "http://www.w3.org/Graphics/SVG/1.1/DTD/svg11.dtd">
<svg version="1.1" id="Layer_1" xmlns="http://www.w3.org/2000/svg" xmlns:xlink="http://www.w3.org/1999/xlink" x="0px" y="0px"
	 width="48px" height="48px" viewBox="0 0 48 48" enable-background="new 0 0 48 48" xml:space="preserve">
<path fill="#231F20" d="M46.243,1.757C45.111,0.624,43.617,0,42.037,0c-1.581,0-3.075,0.624-4.207,1.758l-5.707,5.707
	c-3.131-0.002-5.968-0.02-8.535-0.036c-2.201-0.014-4.203-0.027-6.02-0.027c-11.191,0-17.031,0.269-17.031,6.062
	c0,4.652,4.157,4.819,10.449,5.071c2.613,0.104,5.768,0.231,9.407,0.658L10.122,29.464H5.536c-2.757,0-5,2.243-5,5
	c0,3.739,2.747,4.517,5.656,5.34c0.495,0.141,1.014,0.287,1.549,0.455c0.157,0.5,0.295,0.991,0.428,1.464
	c0.797,2.822,1.62,5.741,5.367,5.741c2.757,0,5-2.243,5-5v-4.586l10.271-10.27c0.429,3.653,0.557,6.814,0.662,9.432
	c0.252,6.277,0.419,10.424,5.067,10.424c1.861,0,3.168-0.447,4.112-1.406c2.26-2.296,2.181-7.259,2.009-18.133
	c-0.055-3.475-0.117-7.401-0.121-12.047l5.707-5.707C48.601,7.811,48.601,4.115,46.243,1.757z M44.829,8.756l-6,6
	c-0.187,0.187-0.293,0.442-0.293,0.707c0,4.844,0.064,8.908,0.121,12.493c0.153,9.672,0.238,14.999-1.435,16.698
	c-0.551,0.559-1.379,0.809-2.687,0.809c-2.475,0-2.792-1.611-3.069-8.504c-0.126-3.13-0.282-7.026-0.94-11.637
	c-0.054-0.374-0.315-0.687-0.674-0.807c-0.103-0.034-0.211-0.051-0.316-0.051c-0.261,0-0.517,0.102-0.708,0.293l-12,12
	c-0.188,0.187-0.293,0.442-0.293,0.707v5c0,1.654-1.346,3-3,3c-2.142,0-2.603-1.314-3.442-4.285
	c-0.183-0.652-0.377-1.335-0.609-2.032c-0.099-0.298-0.333-0.532-0.632-0.632c-0.736-0.245-1.446-0.447-2.115-0.636
	c-2.988-0.846-4.201-1.274-4.201-3.416c0-1.654,1.346-3,3-3h5c0.266,0,0.519-0.105,0.707-0.293l12-12
	c0.267-0.267,0.361-0.664,0.241-1.023c-0.119-0.359-0.432-0.62-0.807-0.673c-4.593-0.657-8.485-0.813-11.612-0.938
	c-6.913-0.277-8.529-0.594-8.529-3.073c0-3.341,2.669-4.062,15.031-4.062c1.815,0,3.812,0.012,6.007,0.026
	c2.684,0.017,5.662,0.036,8.962,0.036c0.266,0,0.519-0.105,0.707-0.293l6-6c1.509-1.509,4.075-1.512,5.586,0
	C46.394,4.735,46.394,7.189,44.829,8.756z"/>
<g id="nyt_x5F_exporter_x5F_info" display="none">
</g>
</svg>
