<?xml version="1.0" encoding="utf-8"?>
<!-- Generator: Adobe Illustrator 17.0.0, SVG Export Plug-In . SVG Version: 6.00 Build 0)  -->
<!DOCTYPE svg PUBLIC "-//W3C//DTD SVG 1.1//EN" "http://www.w3.org/Graphics/SVG/1.1/DTD/svg11.dtd">
<svg version="1.1" id="Layer_1" xmlns="http://www.w3.org/2000/svg" xmlns:xlink="http://www.w3.org/1999/xlink" x="0px" y="0px"
	 width="48px" height="48px" viewBox="0 0 48 48" enable-background="new 0 0 48 48" xml:space="preserve">
<path fill="#231F20" d="M47.619,13.367c-0.777-1.876-2.591-3.087-4.621-3.087c-0.658,0-1.301,0.129-1.929,0.389l-8.602,3.742
	L19.544,9.076c-0.244-0.101-0.519-0.102-0.764,0l-7.391,3.062c-0.373,0.155-0.617,0.52-0.617,0.924c0,0.405,0.244,0.769,0.618,0.924
	l11.301,4.677l-8.528,3.71l-5.582-2.791c-0.262-0.131-0.57-0.14-0.841-0.024l-7,3c-0.305,0.13-0.526,0.404-0.588,0.73
	c-0.063,0.326,0.04,0.662,0.275,0.896l9,9c0.283,0.284,0.707,0.369,1.079,0.222l12.897-5.159l-5.205,13.879
	c-0.145,0.385-0.039,0.819,0.267,1.094c0.187,0.169,0.427,0.257,0.669,0.257c0.153,0,0.305-0.035,0.448-0.107l8-4
	c0.193-0.096,0.35-0.254,0.447-0.447l7.824-15.648l9.059-3.375C47.459,18.845,48.673,15.915,47.619,13.367z M14.384,13.063
	l4.778-1.98l10.752,4.438l-4.677,2.034L14.384,13.063z M44.179,18.04l-9.395,3.5c-0.237,0.089-0.432,0.263-0.545,0.49l-7.851,15.702
	l-5.424,2.712l5.106-13.616c0.139-0.371,0.046-0.789-0.237-1.066c-0.19-0.186-0.443-0.285-0.699-0.285
	c-0.125,0-0.251,0.023-0.371,0.072l-14.388,5.755l-7.489-7.489l5.216-2.235l5.585,2.792c0.265,0.132,0.575,0.14,0.846,0.022
	L41.85,12.511c0.368-0.153,0.753-0.23,1.147-0.23c1.218,0,2.307,0.727,2.773,1.852C46.403,15.662,45.674,17.42,44.179,18.04z"/>
<g id="nyt_x5F_exporter_x5F_info" display="none">
</g>
</svg>
