<?xml version="1.0" encoding="utf-8"?>
<!-- Generator: Adobe Illustrator 17.0.0, SVG Export Plug-In . SVG Version: 6.00 Build 0)  -->
<!DOCTYPE svg PUBLIC "-//W3C//DTD SVG 1.1//EN" "http://www.w3.org/Graphics/SVG/1.1/DTD/svg11.dtd">
<svg version="1.1" id="Layer_1" xmlns="http://www.w3.org/2000/svg" xmlns:xlink="http://www.w3.org/1999/xlink" x="0px" y="0px"
	 width="48px" height="48px" viewBox="0 0 48 48" enable-background="new 0 0 48 48" xml:space="preserve">
<g>
	<path fill="#231F20" d="M45.707,2.294c-0.229-0.228-0.555-0.334-0.871-0.279c-0.901,0.15-8.868,1.532-11.15,3.814
		C32.97,6.545,27,12.53,21.282,18.263c-3.045-0.011-7.278,0.063-9.186,0.699c-1.593,0.533-3.608,2.164-4.574,3.13l-7.07,7.07
		c-0.301,0.301-0.379,0.761-0.191,1.145c0.168,0.347,0.519,0.562,0.898,0.562c0.04,0,0.081-0.002,0.123-0.006l8.829-1.084
		c-0.036,0.295,0.043,0.601,0.27,0.827l7.041,7.041c0.187,0.187,0.441,0.293,0.707,0.293c0.012,0,0.022-0.006,0.034-0.007
		l-1.028,8.791c-0.05,0.423,0.174,0.83,0.558,1.016c0.139,0.067,0.288,0.1,0.436,0.1c0.26,0,0.515-0.101,0.707-0.294l7.07-7.07
		c0.95-0.951,2.532-3.017,3.071-4.635c0.489-1.464,0.741-4.531,0.756-9.09l12.438-12.437c2.283-2.282,3.665-10.248,3.815-11.148
		C46.039,2.847,45.935,2.523,45.707,2.294z M8.937,23.506c0.996-0.996,2.73-2.291,3.794-2.647c1.015-0.339,3.243-0.54,6.545-0.585
		c-2.25,2.256-4.347,4.359-5.943,5.959c-0.051,0.035-0.108,0.056-0.153,0.101c-0.046,0.046-0.068,0.103-0.103,0.155
		c-0.382,0.383-0.723,0.724-1.035,1.037L3.92,28.523L8.937,23.506z M12.501,29.898c0.356-0.357,0.836-0.838,1.413-1.417l5.631,5.629
		l-1.415,1.415L12.501,29.898z M27.081,35.208c-0.373,1.119-1.664,2.929-2.589,3.854l-5.036,5.036l0.935-8.006l1.272-1.272
		c0.001-0.001,0.002-0.001,0.002-0.002s0.001-0.002,0.002-0.002l6.042-6.041C27.616,32.941,27.288,34.584,27.081,35.208z
		 M40.757,12.899L20.958,32.697l-5.633-5.631C21.577,20.798,34.044,8.298,35.1,7.242c1.19-1.19,5.472-2.359,8.654-2.995
		C43.118,7.427,41.949,11.707,40.757,12.899z"/>
	<path fill="#231F20" d="M13.179,36.232c-0.391,0.39-0.391,1.023,0,1.414c1.346,1.346-0.354,3.183-0.707,3.537
		c-1.097,1.096-5.706,2.619-9.214,3.581c0.951-3.518,2.461-8.142,3.557-9.238c0.355-0.354,2.191-2.053,3.536-0.708
		c0.391,0.391,1.023,0.391,1.414,0s0.391-1.023,0-1.414c-1.69-1.691-4.248-1.407-6.364,0.707c-2.09,2.091-4.267,10.825-4.508,11.814
		c-0.083,0.34,0.018,0.698,0.266,0.945c0.19,0.189,0.444,0.292,0.706,0.292c0.08,0,0.161-0.01,0.24-0.029
		c0.986-0.245,9.691-2.448,11.782-4.536c2.113-2.116,2.397-4.674,0.706-6.365C14.202,35.841,13.57,35.841,13.179,36.232z"/>
</g>
<g id="nyt_x5F_exporter_x5F_info" display="none">
</g>
</svg>
