<?xml version="1.0" encoding="utf-8"?>
<!-- Generator: Adobe Illustrator 17.0.0, SVG Export Plug-In . SVG Version: 6.00 Build 0)  -->
<!DOCTYPE svg PUBLIC "-//W3C//DTD SVG 1.1//EN" "http://www.w3.org/Graphics/SVG/1.1/DTD/svg11.dtd">
<svg version="1.1" id="Layer_1" xmlns="http://www.w3.org/2000/svg" xmlns:xlink="http://www.w3.org/1999/xlink" x="0px" y="0px"
	 width="48px" height="48px" viewBox="0 0 48 48" enable-background="new 0 0 48 48" xml:space="preserve">
<path fill="#231F20" d="M39,25h-3.161C35.94,24.347,36,23.681,36,23v-3.025C36.838,20.609,37.87,21,39,21c0.552,0,1-0.448,1-1v-8
	c0-0.552-0.448-1-1-1c-1.13,0-2.162,0.391-3,1.025V12c0-2.206-1.794-4-4-4h-3c-0.552,0-1,0.448-1,1s0.448,1,1,1h3
	c1.103,0,2,0.897,2,2v11c0,4.705-2.969,8.729-7.131,10.298c-0.488-3.164-2.303-5.836-4.833-7.494C23.179,25.38,24,24.288,24,23v-4
	c0-0.552-0.448-1-1-1H3c-0.552,0-1,0.448-1,1v1.998c0,0.265,0.105,0.52,0.292,0.707l3.573,3.575C2.381,27.128,0,30.789,0,35
	c0,0.552,0.448,1,1,1h3.08c0.488,3.387,3.401,6,6.92,6s6.432-2.613,6.92-6H23c1.101,0,2.171-0.138,3.193-0.396
	c0.029-0.006,0.057-0.014,0.085-0.022c1.31-0.342,2.536-0.89,3.652-1.596C29.954,33.988,29.975,34,30,34h2.087
	C32.037,34.333,32,34.666,32,35c0,3.86,3.14,7,7,7s7-3.14,7-7c0-0.337-0.038-0.67-0.087-1H47c0.552,0,1-0.448,1-1
	C48,28.589,43.962,25,39,25z M7.415,24L4,20.584V20h18v3c0,0.551-0.449,1-1,1h-5h-5H7.415z M11,40c-2.415,0-4.434-1.721-4.899-4
	h9.798C15.434,38.279,13.415,40,11,40z M23,34H2.055c0.499-4.494,4.32-8,8.945-8h5c4.562,0,8.372,3.373,8.926,7.831
	C24.301,33.942,23.657,34,23,34z M39,27c3.463,0,6.346,2.166,6.903,5H32.361c1.35-1.403,2.385-3.106,3-5H39z M38,13.171v5.658
	c-1.164-0.413-2-1.525-2-2.829S36.836,13.584,38,13.171z M44,35c0,2.757-2.243,5-5,5s-5-2.243-5-5c0-0.333,0.046-0.667,0.116-1h9.77
	C43.954,34.328,44,34.661,44,35z"/>
<g id="nyt_x5F_exporter_x5F_info" display="none">
</g>
</svg>
