<?xml version="1.0" encoding="utf-8"?>
<!-- Generator: Adobe Illustrator 17.0.0, SVG Export Plug-In . SVG Version: 6.00 Build 0)  -->
<!DOCTYPE svg PUBLIC "-//W3C//DTD SVG 1.1//EN" "http://www.w3.org/Graphics/SVG/1.1/DTD/svg11.dtd">
<svg version="1.1" id="Layer_1" xmlns="http://www.w3.org/2000/svg" xmlns:xlink="http://www.w3.org/1999/xlink" x="0px" y="0px"
	 width="48px" height="48px" viewBox="0 0 48 48" enable-background="new 0 0 48 48" xml:space="preserve">
<g>
	<path fill="#231F20" d="M41.861,46.17c-0.298-0.466-0.916-0.603-1.381-0.308c-0.526,0.335-1.354,0.351-1.925,0.038
		C38,45.595,38,45.148,38,45c0-1.833-1.301-2.909-2.769-3.178l4.504-18.092l1.035,0.244C40.848,23.992,40.925,24,41.001,24
		c0.453,0,0.864-0.31,0.972-0.77c0.126-0.538-0.207-1.076-0.744-1.203L36,20.797V15c0-2.757-2.243-5-5-5h-3V1c0-0.552-0.447-1-1-1
		h-6c-0.553,0-1,0.448-1,1v9h-3c-2.757,0-5,2.243-5,5v5.796l-5.23,1.23c-0.537,0.127-0.87,0.665-0.744,1.203s0.666,0.87,1.203,0.745
		l1.04-0.245l4.602,18.38C11.812,42.591,11,43.557,11,45c0,0.411-0.197,0.729-0.587,0.944c-0.569,0.313-1.381,0.305-1.889-0.017
		c-0.468-0.296-1.084-0.156-1.38,0.31c-0.296,0.467-0.157,1.085,0.309,1.38c1.133,0.716,2.71,0.747,3.924,0.078
		C12.408,47.127,13,46.145,13,45c0-1.215,1.347-1.25,1.5-1.25c0.423,0,0.821,0.125,1.094,0.343C15.867,44.312,16,44.608,16,45
		c0,0.995,0.411,1.872,1.156,2.468c0.63,0.504,1.463,0.782,2.344,0.782c1.739,0,3.5-1.116,3.5-3.25c0-0.594,0.322-0.903,0.669-1.067
		C23.774,43.97,23.883,44,24,44c0.237,0,0.446-0.095,0.618-0.232c0.376,0.022,0.73,0.129,0.976,0.326C25.867,44.312,26,44.608,26,45
		c0,0.995,0.411,1.872,1.156,2.468c0.63,0.504,1.463,0.782,2.344,0.782c1.739,0,3.5-1.116,3.5-3.25c0-1.215,1.347-1.25,1.5-1.25
		c0.423,0,0.822,0.125,1.094,0.343C35.867,44.312,36,44.608,36,45c0,1.13,0.58,2.097,1.591,2.651
		c1.198,0.659,2.827,0.618,3.961-0.101C42.018,47.254,42.157,46.636,41.861,46.17z M36.649,27.844L25,24.26v-3.998l12.787,3.01
		L36.649,27.844z M26,2v2h-4V2H26z M22,6h4v4h-4V6z M14,15c0-1.654,1.346-3,3-3h14c1.654,0,3,1.346,3,3v5.326l-10-2.353l-10,2.352
		V15z M23,20.262v3.998l-11.641,3.582l-1.144-4.571L23,20.262z M21,45c0,1.215-1.347,1.25-1.5,1.25S18,46.215,18,45
		c0-1.991-1.534-3.083-3.151-3.222l-3.003-11.993L23,26.354v15.7C21.878,42.513,21,43.499,21,45z M31,45
		c0,1.215-1.347,1.25-1.5,1.25S28,46.215,28,45c0-1.929-1.439-3.017-3-3.21V26.354l11.165,3.436l-3.04,12.21
		C31.942,42.434,31,43.442,31,45z"/>
	<path fill="#231F20" d="M30,15c0-0.552-0.447-1-1-1H19c-0.553,0-1,0.448-1,1s0.447,1,1,1h10C29.553,16,30,15.552,30,15z"/>
</g>
<g id="nyt_x5F_exporter_x5F_info" display="none">
</g>
</svg>
