<?xml version="1.0" encoding="utf-8"?>
<!-- Generator: Adobe Illustrator 17.0.0, SVG Export Plug-In . SVG Version: 6.00 Build 0)  -->
<!DOCTYPE svg PUBLIC "-//W3C//DTD SVG 1.1//EN" "http://www.w3.org/Graphics/SVG/1.1/DTD/svg11.dtd">
<svg version="1.1" id="Layer_1" xmlns="http://www.w3.org/2000/svg" xmlns:xlink="http://www.w3.org/1999/xlink" x="0px" y="0px"
	 width="48px" height="48px" viewBox="0 0 48 48" enable-background="new 0 0 48 48" xml:space="preserve">
<g>
	<path fill="#231F20" d="M47,26h-3V14h2.769c0.553,0,1-0.448,1-1s-0.447-1-1-1h-24c-0.553,0-1,0.448-1,1s0.447,1,1,1H24v10H14v-6
		h0.769c0.553,0,1-0.448,1-1s-0.447-1-1-1h-8c-0.553,0-1,0.448-1,1s0.447,1,1,1H8v6H5.769c-0.829,0-1.96,0.505-2.649,2.913
		C2.733,28.269,2.519,30.076,2.519,32c0,1.301,0.114,4.64,1.188,6.567l-3.33,2.651c-0.431,0.344-0.503,0.973-0.159,1.405
		C0.415,42.871,0.706,43,1.001,43c0.218,0,0.437-0.071,0.622-0.218L5.119,40H7.87c-0.066,0.323-0.101,0.658-0.101,1
		c0,2.757,2.243,5,5,5c2.757,0,5-2.243,5-5c0-0.342-0.035-0.677-0.101-1h2.202c-0.066,0.323-0.101,0.658-0.101,1
		c0,2.757,2.243,5,5,5c2.757,0,5-2.243,5-5c0-0.342-0.035-0.677-0.101-1h2.202c-0.066,0.323-0.101,0.658-0.101,1
		c0,2.757,2.243,5,5,5c2.757,0,5-2.243,5-5c0-0.342-0.035-0.677-0.101-1h5.101v-0.047C46.845,39.972,46.918,40,47,40
		c0.553,0,1-0.448,1-1V27C48,26.448,47.553,26,47,26z M10,18h2v6h-2V18z M12.769,44c-1.654,0-3-1.346-3-3
		c0-0.367,0.076-0.714,0.197-1.04c0.455-0.094,0.803-0.478,0.803-0.96c0-0.067-0.026-0.125-0.038-0.188
		C11.267,38.312,11.98,38,12.769,38c1.655,0,3,1.346,3,3S14.423,44,12.769,44z M24.769,44c-1.654,0-3-1.346-3-3s1.346-3,3-3
		c1.655,0,3,1.346,3,3S26.423,44,24.769,44z M36.769,44c-1.654,0-3-1.346-3-3s1.346-3,3-3c1.655,0,3,1.346,3,3S38.423,44,36.769,44z
		 M36.769,36c-1.627,0-3.061,0.793-3.975,2h-4.051c-0.914-1.207-2.347-2-3.975-2c-1.627,0-3.061,0.793-3.975,2h-4.051
		c-0.914-1.207-2.347-2-3.975-2c-1.627,0-3.061,0.793-3.975,2H5.783c-0.456-0.182-1.264-2.333-1.264-6c0-3.676,0.813-5.83,1.25-6H25
		c0.553,0,1-0.448,1-1V14h16v13c0,0.552,0.447,1,1,1h3v10h-5.256C39.83,36.793,38.396,36,36.769,36z"/>
	<path fill="#231F20" d="M39,16H29c-0.553,0-1,0.448-1,1v6c0,0.552,0.447,1,1,1h10c0.553,0,1-0.448,1-1v-6
		C40,16.448,39.553,16,39,16z M38,22h-8v-4h8V22z"/>
</g>
<g id="nyt_x5F_exporter_x5F_info" display="none">
</g>
</svg>
