<?xml version="1.0" encoding="utf-8"?>
<!-- Generator: Adobe Illustrator 17.0.0, SVG Export Plug-In . SVG Version: 6.00 Build 0)  -->
<!DOCTYPE svg PUBLIC "-//W3C//DTD SVG 1.1//EN" "http://www.w3.org/Graphics/SVG/1.1/DTD/svg11.dtd">
<svg version="1.1" id="Layer_1" xmlns="http://www.w3.org/2000/svg" xmlns:xlink="http://www.w3.org/1999/xlink" x="0px" y="0px"
	 width="48px" height="48px" viewBox="0 0 48 48" enable-background="new 0 0 48 48" xml:space="preserve">
<g>
	<path fill="#231F20" d="M46,20h1c0.552,0,1-0.448,1-1s-0.448-1-1-1h-7v-2h3c0.552,0,1-0.448,1-1s-0.448-1-1-1H29v-2.586
		l3.707-3.707c0.391-0.391,0.391-1.023,0-1.414L28.414,2H47c0.552,0,1-0.448,1-1s-0.448-1-1-1H26.001C26,0,26,0,25.999,0h-3.997
		C22,0,22,0,21.999,0H1C0.448,0,0,0.448,0,1s0.448,1,1,1h18.586l-4.293,4.293c-0.391,0.391-0.391,1.023,0,1.414L19,11.414V14H5
		c-0.552,0-1,0.448-1,1s0.448,1,1,1h3v2H1c-0.552,0-1,0.448-1,1s0.448,1,1,1h1v18H1c-0.552,0-1,0.448-1,1s0.448,1,1,1h6.025
		C6.391,40.838,6,41.87,6,43s0.391,2.162,1.025,3H1c-0.552,0-1,0.448-1,1s0.448,1,1,1h46c0.552,0,1-0.448,1-1s-0.448-1-1-1h-6.025
		C41.609,45.162,42,44.13,42,43s-0.391-2.162-1.025-3H47c0.552,0,1-0.448,1-1s-0.448-1-1-1h-1V20z M44,34h-8V20h8V34z M28,42h-8v-2
		h8V42z M18,42h-2.101c-0.152-0.743-0.482-1.416-0.924-2H18V42z M19,44h10h3.101c0.152,0.743,0.482,1.416,0.924,2H14.975
		c0.442-0.584,0.773-1.257,0.924-2H19z M30,42v-2h3.025c-0.442,0.584-0.773,1.257-0.924,2H30z M29,38H19h-5V20h20v18H29z M22.414,2
		h3.172l5,5l-3,3h-7.172l-3-3L22.414,2z M21,12h6v2h-6V12z M10,16h10h8h10v2H10V16z M12,20v14H4V20H12z M4,36h8v2H4V36z M8,43
		c0-1.654,1.346-3,3-3c1.302,0,2.401,0.839,2.816,2H11c-0.552,0-1,0.448-1,1s0.448,1,1,1h2.816c-0.414,1.161-1.514,2-2.816,2
		C9.346,46,8,44.654,8,43z M40,43c0,1.654-1.346,3-3,3c-1.302,0-2.401-0.839-2.816-2H37c0.552,0,1-0.448,1-1s-0.448-1-1-1h-2.816
		c0.414-1.161,1.514-2,2.816-2C38.654,40,40,41.346,40,43z M36,38v-2h8v2H36z"/>
	<path fill="#231F20" d="M31,22H17c-0.552,0-1,0.448-1,1v8c0,0.552,0.448,1,1,1h14c0.552,0,1-0.448,1-1v-8
		C32,22.448,31.552,22,31,22z M30,30H18v-6h12V30z"/>
</g>
<g id="nyt_x5F_exporter_x5F_info" display="none">
</g>
</svg>
