<?xml version="1.0" encoding="utf-8"?>
<!-- Generator: Adobe Illustrator 17.0.0, SVG Export Plug-In . SVG Version: 6.00 Build 0)  -->
<!DOCTYPE svg PUBLIC "-//W3C//DTD SVG 1.1//EN" "http://www.w3.org/Graphics/SVG/1.1/DTD/svg11.dtd">
<svg version="1.1" id="Layer_1" xmlns="http://www.w3.org/2000/svg" xmlns:xlink="http://www.w3.org/1999/xlink" x="0px" y="0px"
	 width="48px" height="48px" viewBox="0 0 48 48" enable-background="new 0 0 48 48" xml:space="preserve">
<g>
	<path fill="#010101" d="M47,18h-5v-5c0-0.552-0.447-1-1-1H30c-0.553,0-1,0.448-1,1s0.447,1,1,1h10v5c0,0.552,0.447,1,1,1h5v8h-5
		c-0.553,0-1,0.448-1,1v5h-9c-0.553,0-1,0.448-1,1s0.447,1,1,1h10c0.553,0,1-0.448,1-1v-5h5c0.553,0,1-0.448,1-1V19
		C48,18.448,47.553,18,47,18z"/>
	<path fill="#010101" d="M18,34H2V14h15c0.553,0,1-0.448,1-1s-0.447-1-1-1H1c-0.553,0-1,0.448-1,1v22c0,0.552,0.447,1,1,1h17
		c0.553,0,1-0.448,1-1S18.553,34,18,34z"/>
	<path fill="#010101" d="M31.844,20.463C31.66,20.174,31.342,20,31,20h-6v-8c0-0.469-0.326-0.874-0.783-0.976
		c-0.46-0.103-0.925,0.129-1.123,0.553l-7,15c-0.145,0.31-0.122,0.672,0.062,0.96C16.34,27.826,16.658,28,17,28h6v8
		c0,0.469,0.326,0.875,0.783,0.976C23.855,36.992,23.929,37,24,37c0.382,0,0.739-0.22,0.906-0.577l7-15
		C32.051,21.113,32.027,20.751,31.844,20.463z M25,31.493V27c0-0.552-0.447-1-1-1h-5.43L23,16.507V21c0,0.552,0.447,1,1,1h5.43
		L25,31.493z"/>
</g>
<g id="nyt_x5F_exporter_x5F_info" display="none">
</g>
</svg>
