<?xml version="1.0" encoding="utf-8"?>
<!-- Generator: Adobe Illustrator 17.0.0, SVG Export Plug-In . SVG Version: 6.00 Build 0)  -->
<!DOCTYPE svg PUBLIC "-//W3C//DTD SVG 1.1//EN" "http://www.w3.org/Graphics/SVG/1.1/DTD/svg11.dtd">
<svg version="1.1" id="Layer_1" xmlns="http://www.w3.org/2000/svg" xmlns:xlink="http://www.w3.org/1999/xlink" x="0px" y="0px"
	 width="48px" height="48px" viewBox="0 0 48 48" enable-background="new 0 0 48 48" xml:space="preserve">
<g>
	<path fill="#010101" d="M24,0C10.767,0,0,10.767,0,24s10.767,24,24,24c13.233,0,24-10.767,24-24S37.233,0,24,0z M24,46
		C11.869,46,2,36.131,2,24S11.869,2,24,2s22,9.869,22,22S36.131,46,24,46z"/>
	<path fill="#010101" d="M24,16c-4.411,0-8,3.589-8,8s3.589,8,8,8s8-3.589,8-8S28.411,16,24,16z M24,30c-3.309,0-6-2.691-6-6
		s2.691-6,6-6s6,2.691,6,6S27.309,30,24,30z"/>
	<path fill="#010101" d="M24,21c-1.654,0-3,1.346-3,3s1.346,3,3,3s3-1.346,3-3S25.654,21,24,21z M24,25c-0.551,0-1-0.449-1-1
		s0.449-1,1-1s1,0.449,1,1S24.551,25,24,25z"/>
</g>
<g id="nyt_x5F_exporter_x5F_info" display="none">
</g>
</svg>
