<?xml version="1.0" encoding="utf-8"?>
<!-- Generator: Adobe Illustrator 17.0.0, SVG Export Plug-In . SVG Version: 6.00 Build 0)  -->
<!DOCTYPE svg PUBLIC "-//W3C//DTD SVG 1.1//EN" "http://www.w3.org/Graphics/SVG/1.1/DTD/svg11.dtd">
<svg version="1.1" id="Layer_1" xmlns="http://www.w3.org/2000/svg" xmlns:xlink="http://www.w3.org/1999/xlink" x="0px" y="0px"
	 width="48px" height="48px" viewBox="0 0 48 48" enable-background="new 0 0 48 48" xml:space="preserve">
<g>
	<path fill="#010101" d="M47,0H1C0.448,0,0,0.448,0,1v46c0,0.552,0.448,1,1,1h46c0.552,0,1-0.448,1-1V1C48,0.448,47.552,0,47,0z
		 M46,46H2V2h44V46z"/>
	<path fill="#010101" d="M24,44c11.028,0,20-8.972,20-20S35.028,4,24,4S4,12.972,4,24S12.972,44,24,44z M24,6
		c9.925,0,18,8.075,18,18s-8.075,18-18,18S6,33.925,6,24S14.075,6,24,6z"/>
	<path fill="#010101" d="M24,30c3.309,0,6-2.691,6-6s-2.691-6-6-6s-6,2.691-6,6S20.691,30,24,30z M24,20c2.206,0,4,1.794,4,4
		s-1.794,4-4,4s-4-1.794-4-4S21.794,20,24,20z"/>
	<circle fill="#010101" cx="24" cy="24" r="2"/>
	<path fill="#010101" d="M24,14c5.514,0,10,4.486,10,10c0,0.552,0.448,1,1,1s1-0.448,1-1c0-6.617-5.383-12-12-12
		c-0.552,0-1,0.448-1,1S23.448,14,24,14z"/>
	<path fill="#010101" d="M24,36c0.552,0,1-0.448,1-1s-0.448-1-1-1c-5.514,0-10-4.486-10-10c0-0.552-0.448-1-1-1s-1,0.448-1,1
		C12,30.617,17.383,36,24,36z"/>
	<path fill="#010101" d="M24,10c7.72,0,14,6.28,14,14c0,0.552,0.448,1,1,1s1-0.448,1-1c0-8.822-7.178-16-16-16c-0.552,0-1,0.448-1,1
		S23.448,10,24,10z"/>
	<path fill="#010101" d="M24,40c0.552,0,1-0.448,1-1s-0.448-1-1-1c-7.72,0-14-6.28-14-14c0-0.552-0.448-1-1-1s-1,0.448-1,1
		C8,32.822,15.178,40,24,40z"/>
</g>
<g id="nyt_x5F_exporter_x5F_info" display="none">
</g>
</svg>
