<?xml version="1.0" encoding="utf-8"?>
<!-- Generator: Adobe Illustrator 17.0.0, SVG Export Plug-In . SVG Version: 6.00 Build 0)  -->
<!DOCTYPE svg PUBLIC "-//W3C//DTD SVG 1.1//EN" "http://www.w3.org/Graphics/SVG/1.1/DTD/svg11.dtd">
<svg version="1.1" id="Layer_1" xmlns="http://www.w3.org/2000/svg" xmlns:xlink="http://www.w3.org/1999/xlink" x="0px" y="0px"
	 width="48px" height="48px" viewBox="0 0 48 48" enable-background="new 0 0 48 48" xml:space="preserve">
<path fill="#010101" d="M47.905,0.574C47.74,0.224,47.388,0,47,0H1C0.612,0,0.26,0.224,0.094,0.574
	C-0.07,0.925-0.018,1.339,0.229,1.637L20,25.542V47c0,0.552,0.447,1,1,1h6c0.553,0,1-0.448,1-1V25.542L47.77,1.637
	C48.017,1.339,48.069,0.925,47.905,0.574z M26.229,24.545C26.081,24.724,26,24.95,26,25.182V46h-4V25.181
	c0-0.232-0.082-0.458-0.23-0.637L3.125,2h41.75L26.229,24.545z"/>
<g id="nyt_x5F_exporter_x5F_info" display="none">
</g>
</svg>
