<?xml version="1.0" encoding="utf-8"?>
<!-- Generator: Adobe Illustrator 17.1.0, SVG Export Plug-In . SVG Version: 6.00 Build 0)  -->
<!DOCTYPE svg PUBLIC "-//W3C//DTD SVG 1.0//EN" "http://www.w3.org/TR/2001/REC-SVG-20010904/DTD/svg10.dtd">
<svg version="1.0" id="Layer_1" xmlns="http://www.w3.org/2000/svg" xmlns:xlink="http://www.w3.org/1999/xlink" x="0px" y="0px"
	 width="48px" height="48px" viewBox="0 0 48 48" enable-background="new 0 0 48 48" xml:space="preserve">
<g>
	<path d="M47,0h-8H9H7c-0.266,0-0.52,0.106-0.707,0.293l-6,6C0.106,6.481,0,6.735,0,7v40c0,0.552,0.447,1,1,1h8h30h8
		c0.553,0,1-0.448,1-1V1C48,0.448,47.553,0,47,0z M38,2v8H10V2H38z M10,46v-4h28v4H10z M46,46h-6v-5c0-0.552-0.447-1-1-1H9
		c-0.553,0-1,0.448-1,1v5H2V7.414L7.414,2H8v9c0,0.552,0.447,1,1,1h30c0.553,0,1-0.448,1-1V2h6V46z"/>
	<path d="M33,23c0-4.962-4.037-9-9-9s-9,4.038-9,9c0,4.962,4.037,9,9,9S33,27.962,33,23z M24,30c-3.859,0-7-3.14-7-7
		c0-3.86,3.141-7,7-7s7,3.14,7,7C31,26.86,27.859,30,24,30z"/>
	<path d="M39,36H29c-0.553,0-1,0.448-1,1c0,0.552,0.447,1,1,1h10c0.553,0,1-0.448,1-1C40,36.448,39.553,36,39,36z"/>
	<path d="M20,20c-0.553,0-1,0.448-1,1v4c0,0.552,0.447,1,1,1s1-0.448,1-1v-4C21,20.448,20.553,20,20,20z"/>
	<circle cx="24" cy="23" r="1"/>
</g>
</svg>
