<?xml version="1.0" encoding="utf-8"?>
<!-- Generator: Adobe Illustrator 17.0.0, SVG Export Plug-In . SVG Version: 6.00 Build 0)  -->
<!DOCTYPE svg PUBLIC "-//W3C//DTD SVG 1.1//EN" "http://www.w3.org/Graphics/SVG/1.1/DTD/svg11.dtd">
<svg version="1.1" id="Layer_1" xmlns="http://www.w3.org/2000/svg" xmlns:xlink="http://www.w3.org/1999/xlink" x="0px" y="0px"
	 width="48px" height="48px" viewBox="0 0 48 48" enable-background="new 0 0 48 48" xml:space="preserve">
<g>
	<path fill="#010101" d="M37,0H11C8.243,0,6,2.243,6,5v38c0,2.757,2.243,5,5,5h20c2.475,0,5.785-1.371,7.535-3.121l0.343-0.343
		C40.629,42.785,42,39.475,42,37V5C42,2.243,39.757,0,37,0z M40,37c0,1.944-1.161,4.747-2.535,6.121l-0.343,0.343
		C35.747,44.839,32.944,46,31,46H11c-1.654,0-3-1.346-3-3V5c0-1.654,1.346-3,3-3h26c1.654,0,3,1.346,3,3V37z"/>
	<path fill="#010101" d="M36,21V9c0-1.654-1.346-3-3-3H15c-1.654,0-3,1.346-3,3v12c0,1.654,1.346,3,3,3h18
		C34.654,24,36,22.654,36,21z M34,21c0,0.551-0.449,1-1,1H15c-0.551,0-1-0.449-1-1V9c0-0.551,0.449-1,1-1h18c0.551,0,1,0.449,1,1V21
		z"/>
	<circle fill="#010101" cx="36" cy="30" r="2"/>
	<circle fill="#010101" cx="30" cy="33" r="2"/>
	<path fill="#010101" d="M19,34c0.552,0,1-0.448,1-1s-0.448-1-1-1h-3v-3c0-0.552-0.448-1-1-1s-1,0.448-1,1v3h-3
		c-0.552,0-1,0.448-1,1s0.448,1,1,1h3v3c0,0.552,0.448,1,1,1s1-0.448,1-1v-3H19z"/>
	<path fill="#010101" d="M26.552,40.105l-2,1c-0.494,0.247-0.694,0.848-0.447,1.342C24.281,42.798,24.634,43,25.001,43
		c0.15,0,0.303-0.034,0.446-0.106l2-1c0.494-0.247,0.694-0.848,0.447-1.342C27.647,40.059,27.046,39.857,26.552,40.105z"/>
	<path fill="#010101" d="M20.552,40.105l-2,1c-0.494,0.247-0.694,0.848-0.447,1.342C18.281,42.798,18.634,43,19.001,43
		c0.15,0,0.303-0.034,0.446-0.106l2-1c0.494-0.247,0.694-0.848,0.447-1.342C21.647,40.059,21.047,39.857,20.552,40.105z"/>
</g>
<g id="nyt_x5F_exporter_x5F_info" display="none">
</g>
</svg>
