<?xml version="1.0" encoding="utf-8"?>
<!-- Generator: Adobe Illustrator 17.0.0, SVG Export Plug-In . SVG Version: 6.00 Build 0)  -->
<!DOCTYPE svg PUBLIC "-//W3C//DTD SVG 1.1//EN" "http://www.w3.org/Graphics/SVG/1.1/DTD/svg11.dtd">
<svg version="1.1" id="Layer_1" xmlns="http://www.w3.org/2000/svg" xmlns:xlink="http://www.w3.org/1999/xlink" x="0px" y="0px"
	 width="48px" height="48px" viewBox="0 0 48 48" enable-background="new 0 0 48 48" xml:space="preserve">
<g>
	<path fill="#010101" d="M37,2H11C8.243,2,6,4.243,6,7v34c0,2.757,2.243,5,5,5h26c2.757,0,5-2.243,5-5V7C42,4.243,39.757,2,37,2z
		 M40,41c0,1.654-1.346,3-3,3H11c-1.654,0-3-1.346-3-3V7c0-1.654,1.346-3,3-3h26c1.654,0,3,1.346,3,3V41z"/>
	<path fill="#010101" d="M24,6c-7.72,0-14,6.28-14,14c0,3.501,1.3,6.697,3.432,9.154l-3.139,3.139
		c-0.002,0.002-0.003,0.005-0.005,0.007c-0.082,0.084-0.144,0.183-0.192,0.289c-0.012,0.026-0.022,0.051-0.031,0.078
		c-0.037,0.105-0.064,0.214-0.064,0.329C10,32.998,10,33,10,33.001V41c0,0.552,0.448,1,1,1h12c0.552,0,1-0.448,1-1v-2
		c0-0.379-0.214-0.725-0.553-0.895l-10.759-5.379l2.157-2.157C17.303,32.7,20.499,34,24,34c7.72,0,14-6.28,14-14S31.72,6,24,6z
		 M22,40H12v-5.382l10,5V40z M24,32c-2.949,0-5.649-1.074-7.741-2.845l2.448-2.448c0.391-0.391,0.391-1.023,0-1.414
		c-0.391-0.391-1.023-0.391-1.414,0l-2.448,2.448C13.074,25.649,12,22.949,12,20c0-6.617,5.383-12,12-12s12,5.383,12,12
		S30.617,32,24,32z"/>
	<circle fill="#010101" cx="24" cy="20" r="2"/>
	<circle fill="#010101" cx="35" cy="39" r="1"/>
</g>
<g id="nyt_x5F_exporter_x5F_info" display="none">
</g>
</svg>
