<?xml version="1.0" encoding="utf-8"?>
<!-- Generator: Adobe Illustrator 17.0.0, SVG Export Plug-In . SVG Version: 6.00 Build 0)  -->
<!DOCTYPE svg PUBLIC "-//W3C//DTD SVG 1.1//EN" "http://www.w3.org/Graphics/SVG/1.1/DTD/svg11.dtd">
<svg version="1.1" id="Layer_1" xmlns="http://www.w3.org/2000/svg" xmlns:xlink="http://www.w3.org/1999/xlink" x="0px" y="0px"
	 width="48px" height="48px" viewBox="0 0 48 48" enable-background="new 0 0 48 48" xml:space="preserve">
<g>
	<path fill="#010101" d="M47.93,28.311c0.06-0.178,0.088-0.369,0.037-0.564l-4.99-19.129C42.302,6.028,39.676,4,37,4H11
		C8.324,4,5.698,6.028,5.022,8.618l-4.99,19.129c-0.051,0.196-0.023,0.387,0.038,0.565C0.038,28.539,0,28.765,0,29v8
		c0,2.757,2.243,5,5,5h38c2.757,0,5-2.243,5-5v-8C48,28.764,47.962,28.538,47.93,28.311z M6.958,9.123C7.399,7.43,9.251,6,11,6h26
		c1.749,0,3.601,1.43,4.042,3.124l3.997,15.321C44.414,24.164,43.727,24,43,24H5c-0.728,0-1.415,0.164-2.039,0.445L6.958,9.123z
		 M46,37c0,1.654-1.346,3-3,3H5c-1.654,0-3-1.346-3-3v-8c0-1.654,1.346-3,3-3h38c1.654,0,3,1.346,3,3V37z"/>
	<path fill="#010101" d="M41,34H7c-0.553,0-1,0.448-1,1s0.447,1,1,1h34c0.553,0,1-0.448,1-1S41.553,34,41,34z"/>
	<circle fill="#010101" cx="41" cy="31" r="1"/>
	<circle fill="#010101" cx="37" cy="31" r="1"/>
</g>
<g id="nyt_x5F_exporter_x5F_info" display="none">
</g>
</svg>
