<?xml version="1.0" encoding="utf-8"?>
<!-- Generator: Adobe Illustrator 17.0.0, SVG Export Plug-In . SVG Version: 6.00 Build 0)  -->
<!DOCTYPE svg PUBLIC "-//W3C//DTD SVG 1.1//EN" "http://www.w3.org/Graphics/SVG/1.1/DTD/svg11.dtd">
<svg version="1.1" id="Layer_1" xmlns="http://www.w3.org/2000/svg" xmlns:xlink="http://www.w3.org/1999/xlink" x="0px" y="0px"
	 width="48px" height="48px" viewBox="0 0 48 48" enable-background="new 0 0 48 48" xml:space="preserve">
<g>
	<path fill="#010101" d="M44,2H4C1.794,2,0,3.874,0,6.177v29.646C0,38.127,1.794,40,4,40h19v2H10c-0.552,0-1,0.448-1,1s0.448,1,1,1
		h28c0.552,0,1-0.448,1-1s-0.448-1-1-1H25v-2h19c2.206,0,4-1.873,4-4.177V6.177C48,3.874,46.206,2,44,2z M4,4h40
		c1.103,0,2,0.977,2,2.177V30H2V6.177C2,4.977,2.897,4,4,4z M44,38H4c-1.103,0-2-0.977-2-2.177V32h44v3.823
		C46,37.023,45.103,38,44,38z"/>
	<circle fill="#010101" cx="24" cy="35" r="2"/>
</g>
<g id="nyt_x5F_exporter_x5F_info" display="none">
</g>
</svg>
