<?xml version="1.0" encoding="utf-8"?>
<!-- Generator: Adobe Illustrator 17.0.0, SVG Export Plug-In . SVG Version: 6.00 Build 0)  -->
<!DOCTYPE svg PUBLIC "-//W3C//DTD SVG 1.1//EN" "http://www.w3.org/Graphics/SVG/1.1/DTD/svg11.dtd">
<svg version="1.1" id="Layer_1" xmlns="http://www.w3.org/2000/svg" xmlns:xlink="http://www.w3.org/1999/xlink" x="0px" y="0px"
	 width="48px" height="48px" viewBox="0 0 48 48" enable-background="new 0 0 48 48" xml:space="preserve">
<g>
	<path fill="#010101" d="M35,0H13c-2.757,0-5,2.243-5,5v38c0,2.757,2.243,5,5,5h22c2.757,0,5-2.243,5-5V5C40,2.243,37.757,0,35,0z
		 M38,43c0,1.654-1.346,3-3,3H13c-1.654,0-3-1.346-3-3V5c0-1.654,1.346-3,3-3h22c1.654,0,3,1.346,3,3V43z"/>
	<path fill="#010101" d="M12,22h24V4H12V22z M14,6h20v14H14V6z"/>
	<path fill="#010101" d="M24,24c-5.514,0-10,4.486-10,10s4.486,10,10,10s10-4.486,10-10S29.514,24,24,24z M24,42
		c-4.411,0-8-3.589-8-8s3.589-8,8-8s8,3.589,8,8S28.411,42,24,42z"/>
	<path fill="#010101" d="M24,28c-3.309,0-6,2.691-6,6s2.691,6,6,6s6-2.691,6-6S27.309,28,24,28z M24,38c-2.206,0-4-1.794-4-4
		s1.794-4,4-4s4,1.794,4,4S26.206,38,24,38z"/>
</g>
<g id="nyt_x5F_exporter_x5F_info" display="none">
</g>
</svg>
