<?xml version="1.0" encoding="utf-8"?>
<!-- Generator: Adobe Illustrator 17.0.0, SVG Export Plug-In . SVG Version: 6.00 Build 0)  -->
<!DOCTYPE svg PUBLIC "-//W3C//DTD SVG 1.1//EN" "http://www.w3.org/Graphics/SVG/1.1/DTD/svg11.dtd">
<svg version="1.1" id="Layer_1" xmlns="http://www.w3.org/2000/svg" xmlns:xlink="http://www.w3.org/1999/xlink" x="0px" y="0px"
	 width="48px" height="48px" viewBox="0 0 48 48" enable-background="new 0 0 48 48" xml:space="preserve">
<g>
	<path fill="#010101" d="M39,14H28v-3c0-0.552-0.448-1-1-1h-2V6c0-3.309-2.691-6-6-6h-9C9.448,0,9,0.448,9,1s0.448,1,1,1h9
		c2.206,0,4,1.794,4,4v4h-2c-0.552,0-1,0.448-1,1v3H9c-4.962,0-9,4.038-9,9v20c0,2.757,2.243,5,5,5c2.626,0,2.894-0.482,5.453-5.098
		c1.074-1.935,2.675-4.822,5.114-8.902h16.866c2.45,4.103,4.039,6.997,5.104,8.937C39.947,47.325,40.317,48,43,48
		c2.757,0,5-2.243,5-5V23C48,18.038,43.962,14,39,14z M22,12h4v2h-4V12z M46,43c0,1.654-1.346,3-3,3c-1.499,0-1.499,0-3.71-4.026
		c-1.114-2.03-2.797-5.096-5.433-9.489C33.677,32.184,33.351,32,33,32H15c-0.351,0-0.677,0.184-0.858,0.486
		c-2.62,4.366-4.315,7.424-5.438,9.447C6.448,46,6.448,46,5,46c-1.654,0-3-1.346-3-3V23c0-3.86,3.14-7,7-7h12h6h12
		c3.86,0,7,3.14,7,7V43z"/>
	<path fill="#010101" d="M37,23c0.534,0,1.036-0.208,1.414-0.586S39,21.534,39,21s-0.208-1.036-0.586-1.414
		c-0.756-0.756-2.072-0.756-2.828,0C35.208,19.964,35,20.466,35,21s0.208,1.036,0.586,1.414S36.466,23,37,23z M37.001,21L37,22
		l-0.001-0.999C36.999,21.001,37,21,37.001,21z"/>
	<path fill="#010101" d="M39.586,23.586C39.208,23.964,39,24.466,39,25s0.208,1.036,0.586,1.414S40.466,27,41,27
		s1.036-0.208,1.414-0.586S43,25.534,43,25s-0.208-1.036-0.586-1.414C41.658,22.83,40.342,22.83,39.586,23.586z M41,26l-0.001-0.999
		c0,0,0.001-0.001,0.002-0.001L41,26z"/>
	<path fill="#010101" d="M31.586,23.585c-0.378,0.379-0.587,0.883-0.586,1.418c0,0.534,0.209,1.036,0.586,1.411
		C31.964,26.792,32.466,27,33,27s1.036-0.208,1.415-0.587c0.779-0.78,0.779-2.048-0.002-2.83
		C33.654,22.829,32.336,22.832,31.586,23.585z M33,26l-0.001-0.999c0,0,0.001-0.001,0.002-0.001L33,26z"/>
	<path fill="#010101" d="M35.586,27.586C35.208,27.964,35,28.466,35,29s0.208,1.036,0.586,1.414S36.466,31,37,31
		s1.036-0.208,1.414-0.586S39,29.534,39,29s-0.208-1.036-0.586-1.414C37.658,26.83,36.342,26.83,35.586,27.586z M37,30l-0.001-0.999
		c0,0,0.001-0.001,0.002-0.001L37,30z"/>
	<path fill="#010101" d="M15,24h-3v-3c0-0.552-0.448-1-1-1s-1,0.448-1,1v3H7c-0.552,0-1,0.448-1,1s0.448,1,1,1h3v3
		c0,0.552,0.448,1,1,1s1-0.448,1-1v-3h3c0.552,0,1-0.448,1-1S15.552,24,15,24z"/>
	<path fill="#010101" d="M22,28h-2c-0.552,0-1,0.448-1,1s0.448,1,1,1h2c0.552,0,1-0.448,1-1S22.552,28,22,28z"/>
	<path fill="#010101" d="M28,28h-2c-0.552,0-1,0.448-1,1s0.448,1,1,1h2c0.552,0,1-0.448,1-1S28.552,28,28,28z"/>
</g>
<g id="nyt_x5F_exporter_x5F_info" display="none">
</g>
</svg>
