<?xml version="1.0" encoding="utf-8"?>
<!-- Generator: Adobe Illustrator 17.0.0, SVG Export Plug-In . SVG Version: 6.00 Build 0)  -->
<!DOCTYPE svg PUBLIC "-//W3C//DTD SVG 1.1//EN" "http://www.w3.org/Graphics/SVG/1.1/DTD/svg11.dtd">
<svg version="1.1" id="Layer_1" xmlns="http://www.w3.org/2000/svg" xmlns:xlink="http://www.w3.org/1999/xlink" x="0px" y="0px"
	 width="48px" height="48px" viewBox="0 0 48 48" enable-background="new 0 0 48 48" xml:space="preserve">
<g>
	<path fill="#010101" d="M39,34h-1v-1c0-1.654-1.346-3-3-3h-4c-1.654,0-3,1.346-3,3v1h-8V17.92c3.387-0.488,6-3.401,6-6.92
		c0-3.86-3.14-7-7-7s-7,3.14-7,7c0,3.52,2.613,6.432,6,6.92V34H9c-0.552,0-1,0.448-1,1v12c0,0.552,0.448,1,1,1h30
		c0.552,0,1-0.448,1-1V35C40,34.448,39.552,34,39,34z M14,11c0-2.757,2.243-5,5-5s5,2.243,5,5s-2.243,5-5,5S14,13.757,14,11z M30,33
		c0-0.551,0.449-1,1-1h4c0.551,0,1,0.449,1,1v1h-6V33z M38,46H10V36h28V46z"/>
	<path fill="#010101" d="M35,38H13c-0.552,0-1,0.448-1,1s0.448,1,1,1h22c0.552,0,1-0.448,1-1S35.552,38,35,38z"/>
</g>
<g id="nyt_x5F_exporter_x5F_info" display="none">
</g>
</svg>
