<?xml version="1.0" encoding="utf-8"?>
<!-- Generator: Adobe Illustrator 17.0.0, SVG Export Plug-In . SVG Version: 6.00 Build 0)  -->
<!DOCTYPE svg PUBLIC "-//W3C//DTD SVG 1.1//EN" "http://www.w3.org/Graphics/SVG/1.1/DTD/svg11.dtd">
<svg version="1.1" id="Layer_1" xmlns="http://www.w3.org/2000/svg" xmlns:xlink="http://www.w3.org/1999/xlink" x="0px" y="0px"
	 width="48px" height="48px" viewBox="0 0 48 48" enable-background="new 0 0 48 48" xml:space="preserve">
<g>
	<path fill="#010101" d="M43,26H8v-1c0-2.757,2.243-5,5-5h27c4.411,0,8-3.589,8-8s-3.589-8-8-8H27c-1.103,0-2-0.897-2-2V1
		c0-0.552-0.447-1-1-1s-1,0.448-1,1v1c0,2.206,1.794,4,4,4h13c3.309,0,6,2.691,6,6s-2.691,6-6,6H13c-3.859,0-7,3.14-7,7v1H5
		c-2.757,0-5,2.243-5,5v12c0,2.757,2.243,5,5,5h38c2.757,0,5-2.243,5-5V31C48,28.243,45.757,26,43,26z M46,43c0,1.654-1.346,3-3,3H5
		c-1.654,0-3-1.346-3-3V31c0-1.654,1.346-3,3-3h38c1.654,0,3,1.346,3,3V43z"/>
	<rect x="10" y="42" fill="#010101" width="26" height="2"/>
	<rect x="20" y="30" fill="#010101" width="2" height="2"/>
	<rect x="26" y="30" fill="#010101" width="2" height="2"/>
	<rect x="32" y="30" fill="#010101" width="2" height="2"/>
	<rect x="38" y="30" fill="#010101" width="2" height="2"/>
	<rect x="14" y="30" fill="#010101" width="2" height="2"/>
	<rect x="8" y="30" fill="#010101" width="2" height="2"/>
	<rect x="20" y="34" fill="#010101" width="2" height="2"/>
	<rect x="26" y="34" fill="#010101" width="2" height="2"/>
	<rect x="32" y="34" fill="#010101" width="2" height="2"/>
	<rect x="38" y="34" fill="#010101" width="2" height="2"/>
	<rect x="14" y="34" fill="#010101" width="2" height="2"/>
	<rect x="8" y="34" fill="#010101" width="2" height="2"/>
	<rect x="20" y="38" fill="#010101" width="2" height="2"/>
	<rect x="26" y="38" fill="#010101" width="2" height="2"/>
	<rect x="32" y="38" fill="#010101" width="2" height="2"/>
	<rect x="38" y="38" fill="#010101" width="2" height="2"/>
	<rect x="14" y="38" fill="#010101" width="2" height="2"/>
	<rect x="8" y="38" fill="#010101" width="2" height="2"/>
</g>
<g id="nyt_x5F_exporter_x5F_info" display="none">
</g>
</svg>
