<?xml version="1.0" encoding="utf-8"?>
<!-- Generator: Adobe Illustrator 17.0.0, SVG Export Plug-In . SVG Version: 6.00 Build 0)  -->
<!DOCTYPE svg PUBLIC "-//W3C//DTD SVG 1.1//EN" "http://www.w3.org/Graphics/SVG/1.1/DTD/svg11.dtd">
<svg version="1.1" id="Layer_1" xmlns="http://www.w3.org/2000/svg" xmlns:xlink="http://www.w3.org/1999/xlink" x="0px" y="0px"
	 width="48px" height="48px" viewBox="0 0 48 48" enable-background="new 0 0 48 48" xml:space="preserve">
<g>
	<path fill="#010101" d="M13,18h27c4.785,0,8-2.813,8-7s-3.215-7-8-7H27c-0.966,0-2-1.761-2-3c0-0.552-0.447-1-1-1s-1,0.448-1,1
		c0,1.991,1.596,5,4,5h13c2.768,0,6,1.31,6,5s-3.232,5-6,5H13c-4.007,0-7,4.224-7,8v2H1c-0.553,0-1,0.448-1,1v20
		c0,0.552,0.447,1,1,1h8h28h8c0.553,0,1-0.448,1-1V27c0-0.552-0.447-1-1-1H8v-2C8,21.282,10.23,18,13,18z M10,46v-2h26v2H10z M44,46
		h-6v-3c0-0.552-0.447-1-1-1H9c-0.553,0-1,0.448-1,1v3H2V28h42V46z"/>
	<path fill="#010101" d="M4,31c0,0.552,0.447,1,1,1h36c0.553,0,1-0.448,1-1s-0.447-1-1-1H5C4.447,30,4,30.448,4,31z"/>
	<path fill="#010101" d="M41,34H5c-0.553,0-1,0.448-1,1s0.447,1,1,1h36c0.553,0,1-0.448,1-1S41.553,34,41,34z"/>
	<path fill="#010101" d="M41,38H5c-0.553,0-1,0.448-1,1s0.447,1,1,1h36c0.553,0,1-0.448,1-1S41.553,38,41,38z"/>
	<path fill="#010101" d="M4.29,42.29C4.109,42.48,4,42.74,4,43s0.109,0.52,0.29,0.71C4.479,43.9,4.74,44,5,44s0.519-0.11,0.71-0.29
		C5.89,43.52,6,43.26,6,43s-0.11-0.52-0.29-0.71C5.33,41.92,4.67,41.92,4.29,42.29z"/>
	<path fill="#010101" d="M40.29,42.29C40.109,42.48,40,42.74,40,43s0.109,0.52,0.29,0.71C40.479,43.89,40.74,44,41,44
		s0.519-0.11,0.71-0.29C41.89,43.52,42,43.26,42,43s-0.11-0.52-0.29-0.71C41.33,41.92,40.66,41.92,40.29,42.29z"/>
</g>
<g id="nyt_x5F_exporter_x5F_info" display="none">
</g>
</svg>
