<?xml version="1.0" encoding="utf-8"?>
<!-- Generator: Adobe Illustrator 17.0.0, SVG Export Plug-In . SVG Version: 6.00 Build 0)  -->
<!DOCTYPE svg PUBLIC "-//W3C//DTD SVG 1.1//EN" "http://www.w3.org/Graphics/SVG/1.1/DTD/svg11.dtd">
<svg version="1.1" id="Layer_1" xmlns="http://www.w3.org/2000/svg" xmlns:xlink="http://www.w3.org/1999/xlink" x="0px" y="0px"
	 width="48px" height="48px" viewBox="0 0 48 48" enable-background="new 0 0 48 48" xml:space="preserve">
<g>
	<circle fill="#010101" cx="17" cy="41" r="1"/>
	<circle fill="#010101" cx="13" cy="41" r="1"/>
	<circle fill="#010101" cx="35" cy="41" r="1"/>
	<circle fill="#010101" cx="31" cy="41" r="1"/>
	<rect x="16" y="26" fill="#010101" width="16" height="2"/>
	<rect x="16" y="22" fill="#010101" width="16" height="2"/>
	<rect x="16" y="18" fill="#010101" width="16" height="2"/>
	<rect x="16" y="14" fill="#010101" width="16" height="2"/>
	<rect x="16" y="10" fill="#010101" width="10" height="2"/>
	<path fill="#010101" d="M39,0H9C6.243,0,4,2.243,4,5v38c0,2.757,2.243,5,5,5h30c2.757,0,5-2.243,5-5V5C44,2.243,41.757,0,39,0z
		 M9,2h30c1.654,0,3,1.346,3,3v13h-4V4H10v14H6V5C6,3.346,7.346,2,9,2z M38,26h4v4h-4V26z M38,24v-4h4v4H38z M36,6v28H12V6H36z
		 M10,30H6v-4h4V30z M10,24H6v-4h4V24z M39,46H9c-1.654,0-3-1.346-3-3V32h4v4h28v-4h4v11C42,44.654,40.654,46,39,46z"/>
	<path fill="#010101" d="M26,38h-4c-1.103,0-2,0.897-2,2v2c0,1.103,0.897,2,2,2h4c1.102,0,2-0.897,2-2v-2C28,38.897,27.102,38,26,38
		z M25.996,42H22v-2h4L25.996,42z"/>
</g>
<g id="nyt_x5F_exporter_x5F_info" display="none">
</g>
</svg>
