<?xml version="1.0" encoding="utf-8"?>
<!-- Generator: Adobe Illustrator 17.0.0, SVG Export Plug-In . SVG Version: 6.00 Build 0)  -->
<!DOCTYPE svg PUBLIC "-//W3C//DTD SVG 1.1//EN" "http://www.w3.org/Graphics/SVG/1.1/DTD/svg11.dtd">
<svg version="1.1" id="Layer_1" xmlns="http://www.w3.org/2000/svg" xmlns:xlink="http://www.w3.org/1999/xlink" x="0px" y="0px"
	 width="48px" height="48px" viewBox="0 0 48 48" enable-background="new 0 0 48 48" xml:space="preserve">
<g>
	<path fill="#010101" d="M42,10H6v22h36V10z M40,30H8V12h32V30z"/>
	<path fill="#010101" d="M47,34h-1V10c0-2.206-1.794-4-4-4H6c-2.206,0-4,1.794-4,4v24H1c-0.553,0-1,0.448-1,1v4c0,1.654,1.346,3,3,3
		h42c1.654,0,3-1.346,3-3v-4C48,34.448,47.553,34,47,34z M4,10c0-1.103,0.897-2,2-2h36c1.102,0,2,0.897,2,2v24H29
		c-0.553,0-1,0.448-1,1v1h-8v-1c0-0.552-0.447-1-1-1H4V10z M46,39c0,0.551-0.448,1-1,1H3c-0.552,0-1-0.449-1-1v-3h16v1
		c0,0.552,0.447,1,1,1h10c0.553,0,1-0.448,1-1v-1h16V39z"/>
</g>
<g id="nyt_x5F_exporter_x5F_info" display="none">
</g>
</svg>
