<?xml version="1.0" encoding="utf-8"?>
<!-- Generator: Adobe Illustrator 17.0.0, SVG Export Plug-In . SVG Version: 6.00 Build 0)  -->
<!DOCTYPE svg PUBLIC "-//W3C//DTD SVG 1.1//EN" "http://www.w3.org/Graphics/SVG/1.1/DTD/svg11.dtd">
<svg version="1.1" id="Layer_1" xmlns="http://www.w3.org/2000/svg" xmlns:xlink="http://www.w3.org/1999/xlink" x="0px" y="0px"
	 width="48px" height="48px" viewBox="0 0 48 48" enable-background="new 0 0 48 48" xml:space="preserve">
<g>
	<path fill="#010101" d="M40,26V6H8v20h16H40z M10,8h28v16H24H10V8z"/>
	<path fill="#010101" d="M33.281,40l-1.5-6H16.219l-1.5,6H33.281z M17.781,36h12.437l0.5,2H17.281L17.781,36z"/>
	<path fill="#010101" d="M44,27.869V6c0-2.206-1.794-4-4-4H8C5.794,2,4,3.794,4,6v22.86L0.038,42.725L0,44c0,2.206,1.794,4,4,4h40
		c2.206,0,4-1.794,4-4v-1L44,27.869z M8,4h32c1.102,0,2,0.897,2,2v22H5.964L6,6C6,4.897,6.897,4,8,4z M5.755,30h36.774l3.172,12
		H2.326L5.755,30z M44,46H4c-1.103,0-2-0.897-2-2h44C46,45.103,45.102,46,44,46z"/>
</g>
<g id="nyt_x5F_exporter_x5F_info" display="none">
</g>
</svg>
