<?xml version="1.0" encoding="utf-8"?>
<!-- Generator: Adobe Illustrator 17.0.0, SVG Export Plug-In . SVG Version: 6.00 Build 0)  -->
<!DOCTYPE svg PUBLIC "-//W3C//DTD SVG 1.1//EN" "http://www.w3.org/Graphics/SVG/1.1/DTD/svg11.dtd">
<svg version="1.1" id="Layer_1" xmlns="http://www.w3.org/2000/svg" xmlns:xlink="http://www.w3.org/1999/xlink" x="0px" y="0px"
	 width="48px" height="48px" viewBox="0 0 48 48" enable-background="new 0 0 48 48" xml:space="preserve">
<g>
	<path fill="#010101" d="M41.707,10.293l-10-10C31.519,0.106,31.266,0,31,0H7C6.447,0,6,0.448,6,1v18c0,0.552,0.447,1,1,1h1v4H7
		c-0.553,0-1,0.448-1,1v22c0,0.552,0.447,1,1,1h34c0.553,0,1-0.448,1-1V11C42,10.735,41.894,10.481,41.707,10.293z M40,46H8V26h1
		c0.553,0,1-0.448,1-1v-6c0-0.552-0.447-1-1-1H8V2h22.586L40,11.414V46z"/>
	<path fill="#010101" d="M15,6c-0.553,0-1,0.448-1,1v10c0,0.552,0.447,1,1,1s1-0.448,1-1V7C16,6.448,15.553,6,15,6z"/>
	<path fill="#010101" d="M21,18c0.553,0,1-0.448,1-1V7c0-0.552-0.447-1-1-1s-1,0.448-1,1v10C20,17.552,20.447,18,21,18z"/>
	<path fill="#010101" d="M27,18c0.553,0,1-0.448,1-1V7c0-0.552-0.447-1-1-1s-1,0.448-1,1v10C26,17.552,26.447,18,27,18z"/>
	<path fill="#010101" d="M33,20c0.553,0,1-0.448,1-1v-8c0-0.552-0.447-1-1-1s-1,0.448-1,1v8C32,19.552,32.447,20,33,20z"/>
	<path fill="#010101" d="M24.832,34.446c-0.371-0.557-1.293-0.557-1.664,0l-4,6c-0.204,0.306-0.224,0.701-0.05,1.026
		C19.292,41.797,19.631,42,20,42h8c0.007,0.001,0.014,0,0.019,0c0.553,0,1-0.448,1-0.999c0-0.271-0.107-0.517-0.282-0.697
		L24.832,34.446z M21.868,40L24,36.803L26.132,40H21.868z"/>
</g>
<g id="nyt_x5F_exporter_x5F_info" display="none">
</g>
</svg>
