<?xml version="1.0" encoding="utf-8"?>
<!-- Generator: Adobe Illustrator 17.0.0, SVG Export Plug-In . SVG Version: 6.00 Build 0)  -->
<!DOCTYPE svg PUBLIC "-//W3C//DTD SVG 1.1//EN" "http://www.w3.org/Graphics/SVG/1.1/DTD/svg11.dtd">
<svg version="1.1" id="Layer_1" xmlns="http://www.w3.org/2000/svg" xmlns:xlink="http://www.w3.org/1999/xlink" x="0px" y="0px"
	 width="48px" height="48px" viewBox="0 0 48 48" enable-background="new 0 0 48 48" xml:space="preserve">
<g>
	<path fill="#010101" d="M31,0H17c-4.962,0-9,4.038-9,9v32c0,3.86,3.14,7,7,7h18c3.86,0,7-3.141,7-7V9C40,4.038,35.962,0,31,0z
		 M38,41c0,2.757-2.243,5-5,5H15c-2.757,0-5-2.243-5-5V9c0-3.86,3.14-7,7-7h14c3.86,0,7,3.14,7,7V41z"/>
	<path fill="#010101" d="M12,28h24V8H12V28z M14,10h20v16H14V10z"/>
	<path fill="#010101" d="M19,6h10c0.552,0,1-0.448,1-1s-0.448-1-1-1H19c-0.552,0-1,0.448-1,1S18.448,6,19,6z"/>
	<rect x="17" y="32" fill="#010101" width="2" height="2"/>
	<rect x="23" y="32" fill="#010101" width="2" height="2"/>
	<rect x="29" y="32" fill="#010101" width="2" height="2"/>
	<rect x="17" y="36" fill="#010101" width="2" height="2"/>
	<rect x="23" y="36" fill="#010101" width="2" height="2"/>
	<rect x="29" y="36" fill="#010101" width="2" height="2"/>
	<rect x="17" y="40" fill="#010101" width="2" height="2"/>
	<rect x="23" y="40" fill="#010101" width="2" height="2"/>
	<rect x="29" y="40" fill="#010101" width="2" height="2"/>
</g>
<g id="nyt_x5F_exporter_x5F_info" display="none">
</g>
</svg>
