<?xml version="1.0" encoding="utf-8"?>
<!-- Generator: Adobe Illustrator 17.0.0, SVG Export Plug-In . SVG Version: 6.00 Build 0)  -->
<!DOCTYPE svg PUBLIC "-//W3C//DTD SVG 1.1//EN" "http://www.w3.org/Graphics/SVG/1.1/DTD/svg11.dtd">
<svg version="1.1" id="Layer_1" xmlns="http://www.w3.org/2000/svg" xmlns:xlink="http://www.w3.org/1999/xlink" x="0px" y="0px"
	 width="48px" height="48px" viewBox="0 0 48 48" enable-background="new 0 0 48 48" xml:space="preserve">
<path fill="#010101" d="M47,3c-0.553,0-1,0.448-1,1v12c0,5.139-3.11,7.479-6,7.479S34,21.138,34,16v-5c0-7.058-5.534-10.75-11-10.75
	S12,3.942,12,11H7c-3.859,0-7,3.14-7,7v17c0,7.169,5.832,13,13,13s13-5.831,13-13V18c0-3.86-3.141-7-7-7h-5
	c0-6.012,4.665-8.75,9-8.75c2.379,0,4.588,0.779,6.22,2.193C31.039,6.02,32,8.287,32,11v5c0,6.223,4.024,9.479,8,9.479
	s8-3.256,8-9.479V4C48,3.448,47.553,3,47,3z M7,13h5v8H2v-3C2,15.243,4.243,13,7,13z M13,46C6.935,46,2,41.065,2,35V23h22v12
	C24,41.065,19.065,46,13,46z M19,13c2.757,0,5,2.243,5,5v3H14v-8H19z"/>
<g id="nyt_x5F_exporter_x5F_info" display="none">
</g>
</svg>
