<?xml version="1.0" encoding="utf-8"?>
<!-- Generator: Adobe Illustrator 17.0.0, SVG Export Plug-In . SVG Version: 6.00 Build 0)  -->
<!DOCTYPE svg PUBLIC "-//W3C//DTD SVG 1.1//EN" "http://www.w3.org/Graphics/SVG/1.1/DTD/svg11.dtd">
<svg version="1.1" id="Layer_1" xmlns="http://www.w3.org/2000/svg" xmlns:xlink="http://www.w3.org/1999/xlink" x="0px" y="0px"
	 width="48px" height="48px" viewBox="0 0 48 48" enable-background="new 0 0 48 48" xml:space="preserve">
<g>
	<path fill="#010101" d="M27,0h-6C13.832,0,8,5.832,8,13v22c0,7.169,5.832,13,13,13h6c7.168,0,13-5.831,13-13V13
		C40,5.832,34.168,0,27,0z M38,35c0,6.065-4.935,11-11,11h-6c-6.065,0-11-4.935-11-11V13c0-6.065,4.935-11,11-11h6
		c6.065,0,11,4.935,11,11V35z"/>
	<path fill="#010101" d="M24,8c-1.654,0-3,1.346-3,3v4c0,1.654,1.346,3,3,3s3-1.346,3-3v-4C27,9.346,25.654,8,24,8z M25,15
		c0,0.551-0.448,1-1,1s-1-0.449-1-1v-4c0-0.551,0.448-1,1-1s1,0.449,1,1V15z"/>
</g>
<g id="nyt_x5F_exporter_x5F_info" display="none">
</g>
</svg>
