<?xml version="1.0" encoding="utf-8"?>
<!-- Generator: Adobe Illustrator 17.0.0, SVG Export Plug-In . SVG Version: 6.00 Build 0)  -->
<!DOCTYPE svg PUBLIC "-//W3C//DTD SVG 1.1//EN" "http://www.w3.org/Graphics/SVG/1.1/DTD/svg11.dtd">
<svg version="1.1" id="Layer_1" xmlns="http://www.w3.org/2000/svg" xmlns:xlink="http://www.w3.org/1999/xlink" x="0px" y="0px"
	 width="48px" height="48px" viewBox="0 0 48 48" enable-background="new 0 0 48 48" xml:space="preserve">
<g>
	<path fill="#010101" d="M14,32c-3.309,0-6,2.691-6,6s2.691,6,6,6s6-2.692,6-6C20,34.691,17.309,32,14,32z M14,42
		c-2.206,0-4-1.794-4-4s1.794-4,4-4s4,1.794,4,4S16.206,42,14,42z"/>
	<polygon fill="#010101" points="13,40 16,38 13,36 	"/>
	<path fill="#010101" d="M45,12c-1.302,0-2.401,0.839-2.816,2H42c-2.206,0-4,1.794-4,4s1.794,4,4,4h0.184
		c0.302,0.847,0.969,1.514,1.816,1.816V38c0,2.206-1.794,4-4,4s-4-1.794-4-4V10c0-2.206-1.794-4-4-4h-4V4c0-2.206-1.794-4-4-4H4
		C1.794,0,0,1.794,0,4v40c0,2.206,1.794,4,4,4h20c2.206,0,4-1.795,4-4V8h4c1.102,0,2,0.897,2,2v28c0,3.309,2.691,6,6,6s6-2.692,6-6
		V23.816c1.161-0.414,2-1.514,2-2.816v-6C48,13.346,46.654,12,45,12z M4,2h20c1.102,0,2,0.897,2,2v24H2V4C2,2.897,2.897,2,4,2z
		 M24,46H4c-1.103,0-2-0.897-2-2V30h24v14C26,45.103,25.102,46,24,46z M40,18c0-1.103,0.897-2,2-2v4C40.897,20,40,19.103,40,18z
		 M46,21c0,0.551-0.448,1-1,1s-1-0.449-1-1v-6c0-0.551,0.448-1,1-1s1,0.448,1,1V21z"/>
	<rect x="6" y="10" fill="#010101" width="4" height="2"/>
	<rect x="6" y="14" fill="#010101" width="4" height="2"/>
	<rect x="6" y="18" fill="#010101" width="4" height="2"/>
	<rect x="6" y="22" fill="#010101" width="4" height="2"/>
	<rect x="18" y="14" fill="#010101" width="4" height="2"/>
	<rect x="18" y="18" fill="#010101" width="4" height="2"/>
	<rect x="18" y="22" fill="#010101" width="4" height="2"/>
	<rect x="12" y="18" fill="#010101" width="4" height="2"/>
	<rect x="12" y="22" fill="#010101" width="4" height="2"/>
</g>
<g id="nyt_x5F_exporter_x5F_info" display="none">
</g>
</svg>
