<?xml version="1.0" encoding="utf-8"?>
<!-- Generator: Adobe Illustrator 17.0.0, SVG Export Plug-In . SVG Version: 6.00 Build 0)  -->
<!DOCTYPE svg PUBLIC "-//W3C//DTD SVG 1.1//EN" "http://www.w3.org/Graphics/SVG/1.1/DTD/svg11.dtd">
<svg version="1.1" id="Layer_1" xmlns="http://www.w3.org/2000/svg" xmlns:xlink="http://www.w3.org/1999/xlink" x="0px" y="0px"
	 width="48px" height="48px" viewBox="0 0 48 48" enable-background="new 0 0 48 48" xml:space="preserve">
<g>
	<path fill="#010101" d="M44.77,8.778c-0.391-0.391-1.023-0.391-1.414,0l-4.95,4.95l-7.071-7.072l4.949-4.949
		c0.391-0.391,0.391-1.023,0-1.414c-0.391-0.391-1.023-0.391-1.414,0l-4.949,4.949l-3.536-3.536c-0.391-0.391-1.023-0.391-1.414,0
		l-7.778,7.778c-3.767,3.768-4.289,9.642-1.706,14.433l-3.952,3.952c-0.187,0.188-0.293,0.442-0.293,0.707
		c0,0.265,0.105,0.519,0.293,0.707l1.414,1.414l-8.484,8.485c-1.949,1.949-1.949,5.121,0,7.071c1.949,1.95,5.121,1.949,7.07,0
		L17.9,39.89c0.754-0.756,2.072-0.756,2.828,0c0.779,0.78,0.779,2.048,0,2.828l-3.365,3.365c-0.391,0.39-0.391,1.023,0,1.414
		c0.195,0.195,0.451,0.293,0.707,0.293s0.512-0.098,0.707-0.293l3.365-3.365c1.559-1.559,1.559-4.097,0-5.656
		c-0.756-0.755-1.76-1.172-2.829-1.172c-1.068,0-2.073,0.416-2.828,1.172l-6.364,6.364c-1.17,1.169-3.072,1.169-4.242,0
		c-1.17-1.17-1.17-3.073,0-4.243l8.484-8.485l1.415,1.415c0.195,0.195,0.451,0.293,0.707,0.293c0.256,0,0.512-0.098,0.707-0.293
		l3.948-3.948c1.974,1.065,4.13,1.604,6.248,1.604c3.025,0,5.971-1.096,8.189-3.311l7.778-7.778
		c0.196-0.196,0.293-0.452,0.293-0.708c0-0.256-0.098-0.512-0.293-0.708l-3.536-3.536l4.95-4.95
		C45.161,9.801,45.161,9.169,44.77,8.778z M16.485,31.406l-1.415-1.415c0,0,0,0,0,0s0,0,0,0l-1.414-1.414l2.94-2.94
		c0.396,0.529,0.821,1.044,1.304,1.526c0.482,0.482,0.997,0.906,1.526,1.302L16.485,31.406z M34.164,26.457
		c-3.9,3.899-10.562,3.581-14.85-0.708c-4.288-4.289-4.605-10.951-0.707-14.85l7.071-7.071l15.557,15.558L34.164,26.457z"/>
	<path fill="#010101" d="M37.698,18.678L26.385,7.363c-0.391-0.391-1.023-0.391-1.414,0c-0.391,0.39-0.391,1.023,0,1.414
		l11.313,11.315c0.195,0.195,0.451,0.293,0.707,0.293c0.256,0,0.512-0.098,0.707-0.293C38.089,19.702,38.089,19.069,37.698,18.678z"
		/>
	<path fill="#010101" d="M24.971,16.093c-1.068,0-2.072,0.416-2.828,1.171s-1.172,1.76-1.172,2.828s0.416,2.073,1.172,2.828
		s1.76,1.172,2.828,1.172c1.069,0,2.073-0.417,2.828-1.172c0.756-0.755,1.172-1.76,1.172-2.828s-0.416-2.073-1.172-2.828
		C27.044,16.509,26.039,16.093,24.971,16.093z M26.384,21.505c-0.754,0.756-2.071,0.756-2.827,0
		c-0.378-0.378-0.586-0.88-0.586-1.414s0.208-1.036,0.586-1.414c0.378-0.377,0.88-0.585,1.414-0.585s1.036,0.208,1.414,0.584
		c0.378,0.378,0.586,0.88,0.586,1.414C26.971,20.624,26.763,21.127,26.384,21.505z"/>
</g>
<g id="nyt_x5F_exporter_x5F_info" display="none">
</g>
</svg>
