<?xml version="1.0" encoding="utf-8"?>
<!-- Generator: Adobe Illustrator 17.0.0, SVG Export Plug-In . SVG Version: 6.00 Build 0)  -->
<!DOCTYPE svg PUBLIC "-//W3C//DTD SVG 1.1//EN" "http://www.w3.org/Graphics/SVG/1.1/DTD/svg11.dtd">
<svg version="1.1" id="Layer_1" xmlns="http://www.w3.org/2000/svg" xmlns:xlink="http://www.w3.org/1999/xlink" x="0px" y="0px"
	 width="48px" height="48px" viewBox="0 0 48 48" enable-background="new 0 0 48 48" xml:space="preserve">
<g>
	<path fill="#010101" d="M24,26c-2.757,0-5,2.243-5,5v6c0,0.552,0.447,1,1,1h8c0.553,0,1-0.448,1-1v-6C29,28.243,26.757,26,24,26z
		 M27,36h-6v-5c0-1.654,1.346-3,3-3s3,1.346,3,3V36z"/>
	<path fill="#010101" d="M15,12c-0.553,0-1,0.448-1,1v10c0,0.552,0.447,1,1,1s1-0.448,1-1V13C16,12.448,15.553,12,15,12z"/>
	<path fill="#010101" d="M33,12c-0.553,0-1,0.448-1,1v10c0,0.552,0.447,1,1,1s1-0.448,1-1V13C34,12.448,33.553,12,33,12z"/>
	<path fill="#010101" d="M41,4H7C2.453,4,0,14.305,0,24s2.453,20,7,20h34c4.547,0,7-10.305,7-20S45.547,4,41,4z M41,42H7
		c-2.088,0-5-6.848-5-18S4.912,6,7,6h34c2.088,0,5,6.848,5,18S43.088,42,41,42z"/>
</g>
<g id="nyt_x5F_exporter_x5F_info" display="none">
</g>
</svg>
