<?xml version="1.0" encoding="utf-8"?>
<!-- Generator: Adobe Illustrator 17.0.0, SVG Export Plug-In . SVG Version: 6.00 Build 0)  -->
<!DOCTYPE svg PUBLIC "-//W3C//DTD SVG 1.1//EN" "http://www.w3.org/Graphics/SVG/1.1/DTD/svg11.dtd">
<svg version="1.1" id="Layer_1" xmlns="http://www.w3.org/2000/svg" xmlns:xlink="http://www.w3.org/1999/xlink" x="0px" y="0px"
	 width="48px" height="48px" viewBox="0 0 48 48" enable-background="new 0 0 48 48" xml:space="preserve">
<g>
	<path fill="#010101" d="M43,16H5c-2.757,0-5,2.243-5,5v12c0,2.757,2.243,5,5,5h5v9c0,0.552,0.447,1,1,1h26c0.553,0,1-0.448,1-1v-9
		h5c2.757,0,5-2.244,5-5V21C48,18.243,45.757,16,43,16z M36,46H12V32h24V46z M46,33c0,1.654-1.346,3-3,3h-5v-5c0-0.552-0.447-1-1-1
		H11c-0.553,0-1,0.448-1,1v5H5c-1.654,0-3-1.346-3-3V21c0-1.654,1.346-3,3-3h38c1.654,0,3,1.346,3,3V33z"/>
	<path fill="#010101" d="M11,14c0.553,0,1-0.448,1-1V6h18v5c0,0.552,0.447,1,1,1h5v1c0,0.552,0.447,1,1,1s1-0.448,1-1v-2
		c0-0.134-0.027-0.264-0.078-0.385c-0.051-0.122-0.124-0.231-0.216-0.323l-5.998-5.998c-0.092-0.092-0.201-0.166-0.323-0.216
		C31.265,4.027,31.134,4,31,4H11c-0.553,0-1,0.448-1,1v8C10,13.552,10.447,14,11,14z M32,7.414L34.586,10H32V7.414z"/>
	<path fill="#010101" d="M7,20c-1.654,0-3,1.346-3,3s1.346,3,3,3s3-1.346,3-3S8.654,20,7,20z M7,24c-0.552,0-1-0.449-1-1
		s0.448-1,1-1s1,0.449,1,1S7.552,24,7,24z"/>
	<path fill="#010101" d="M33,34H15c-0.553,0-1,0.448-1,1s0.447,1,1,1h18c0.553,0,1-0.448,1-1S33.553,34,33,34z"/>
	<path fill="#010101" d="M33,38H15c-0.553,0-1,0.448-1,1s0.447,1,1,1h18c0.553,0,1-0.448,1-1S33.553,38,33,38z"/>
	<path fill="#010101" d="M33,42H15c-0.553,0-1,0.448-1,1s0.447,1,1,1h18c0.553,0,1-0.448,1-1S33.553,42,33,42z"/>
</g>
<g id="nyt_x5F_exporter_x5F_info" display="none">
</g>
</svg>
