<?xml version="1.0" encoding="utf-8"?>
<!-- Generator: Adobe Illustrator 17.0.0, SVG Export Plug-In . SVG Version: 6.00 Build 0)  -->
<!DOCTYPE svg PUBLIC "-//W3C//DTD SVG 1.1//EN" "http://www.w3.org/Graphics/SVG/1.1/DTD/svg11.dtd">
<svg version="1.1" id="Layer_1" xmlns="http://www.w3.org/2000/svg" xmlns:xlink="http://www.w3.org/1999/xlink" x="0px" y="0px"
	 width="48px" height="48px" viewBox="0 0 48 48" enable-background="new 0 0 48 48" xml:space="preserve">
<g>
	<path fill="#010101" d="M43,30H23.475c-1.239-3.49-4.565-6-8.475-6s-7.235,2.51-8.475,6H4.127C1.852,30,0,32.243,0,35v6
		c0,2.415,1.721,4.434,4,4.899V47c0,0.552,0.447,1,1,1s1-0.448,1-1v-1h36v1c0,0.552,0.447,1,1,1s1-0.448,1-1v-1.101
		c2.279-0.465,4-2.485,4-4.899v-6C48,32.243,45.757,30,43,30z M15,26c3.859,0,7,3.14,7,7s-3.141,7-7,7s-7-3.14-7-7S11.141,26,15,26z
		 M46,41c0,1.654-1.346,3-3,3H5c-1.654,0-3-1.346-3-3v-6c0-1.626,0.974-3,2.127-3h1.932C6.022,32.329,6,32.662,6,33
		c0,4.962,4.037,9,9,9s9-4.038,9-9c0-0.338-0.022-0.671-0.059-1H43c1.654,0,3,1.346,3,3V41z"/>
	<path fill="#010101" d="M15,38c2.757,0,5-2.244,5-5c0-2.757-2.243-5-5-5s-5,2.243-5,5S12.243,38,15,38z M15,30c1.654,0,3,1.346,3,3
		s-1.346,3-3,3s-3-1.346-3-3S13.346,30,15,30z"/>
	<path fill="#010101" d="M41,34c-0.553,0-1,0.448-1,1v6c0,0.552,0.447,1,1,1s1-0.448,1-1v-6C42,34.448,41.553,34,41,34z"/>
	<path fill="#010101" d="M37,34c-0.553,0-1,0.448-1,1v6c0,0.552,0.447,1,1,1s1-0.448,1-1v-6C38,34.448,37.553,34,37,34z"/>
	<path fill="#010101" d="M33,34c-0.553,0-1,0.448-1,1v6c0,0.552,0.447,1,1,1s1-0.448,1-1v-6C34,34.448,33.553,34,33,34z"/>
	<path fill="#010101" d="M29,34c-0.553,0-1,0.448-1,1v6c0,0.552,0.447,1,1,1s1-0.448,1-1v-6C30,34.448,29.553,34,29,34z"/>
</g>
<g id="nyt_x5F_exporter_x5F_info" display="none">
</g>
</svg>
