<?xml version="1.0" encoding="utf-8"?>
<!-- Generator: Adobe Illustrator 17.0.0, SVG Export Plug-In . SVG Version: 6.00 Build 0)  -->
<!DOCTYPE svg PUBLIC "-//W3C//DTD SVG 1.1//EN" "http://www.w3.org/Graphics/SVG/1.1/DTD/svg11.dtd">
<svg version="1.1" id="Layer_1" xmlns="http://www.w3.org/2000/svg" xmlns:xlink="http://www.w3.org/1999/xlink" x="0px" y="0px"
	 width="48px" height="48px" viewBox="0 0 48 48" enable-background="new 0 0 48 48" xml:space="preserve">
<g>
	<path fill="#010101" d="M43.814,46.383L39,39.644v-8.796c0-3.198-2.291-5.029-5.191-7.347c-0.573-0.458-1.183-0.95-1.809-1.474
		v-4.062c0-2.206-1.794-4-4-4H14c-2.206,0-4,1.794-4,4v22c0,2.206,1.794,4,4,4h11c0.552,0,1-0.448,1-1c0-0.552-0.448-1-1-1H14
		c-1.103,0-2-0.897-2-2v-22c0-1.103,0.897-2,2-2h14c1.103,0,2,0.897,2,2v9.996c0,0.552,0.448,1,1,1s1-0.448,1-1v-3.347
		c0.187,0.15,0.379,0.306,0.56,0.45c2.674,2.137,4.44,3.548,4.44,5.784v9.117c0,0.208,0.065,0.412,0.186,0.581l5,7
		c0.195,0.273,0.503,0.419,0.815,0.419c0.201,0,0.404-0.061,0.58-0.187C44.031,47.457,44.135,46.832,43.814,46.383z"/>
	<path fill="#010101" d="M29.207,28.757c-1.179-1.179-3.235-1.179-4.414,0c-0.589,0.589-0.914,1.373-0.914,2.207
		c0,0.801,0.299,1.556,0.845,2.137L29,39.277v2.765c0,1.466,0.45,2.873,1.302,4.069l1.053,1.471C31.55,47.855,31.857,48,32.169,48
		c0.201,0,0.405-0.06,0.581-0.187c0.449-0.321,0.553-0.946,0.231-1.395l-1.051-1.469C31.321,44.095,31,43.09,31,42.042v-3.39
		l-4.678-6.758l-0.115-0.138c-0.212-0.212-0.329-0.493-0.329-0.793c0-0.299,0.117-0.581,0.329-0.792
		c0.423-0.424,1.162-0.424,1.586,0l5.5,5.5c0.391,0.391,1.023,0.391,1.414,0c0.391-0.391,0.391-1.023,0-1.414L29.207,28.757z"/>
	<circle fill="#010101" cx="17" cy="20.965" r="1"/>
	<circle fill="#010101" cx="21" cy="20.965" r="1"/>
	<circle fill="#010101" cx="25" cy="20.965" r="1"/>
	<circle fill="#010101" cx="17" cy="24.965" r="1"/>
	<circle fill="#010101" cx="17" cy="28.965" r="1"/>
	<circle fill="#010101" cx="17" cy="32.965" r="1"/>
	<circle fill="#010101" cx="17" cy="36.965" r="1"/>
	<circle fill="#010101" cx="21" cy="24.965" r="1"/>
	<circle fill="#010101" cx="21" cy="28.965" r="1"/>
	<circle fill="#010101" cx="21" cy="32.965" r="1"/>
	<circle fill="#010101" cx="21" cy="36.965" r="1"/>
	<circle fill="#010101" cx="25" cy="24.965" r="1"/>
	<path fill="#010101" d="M12.25,4.652c2.634-1.758,5.703-2.688,8.875-2.688c3.171,0,6.239,0.929,8.873,2.688
		c0.17,0.114,0.363,0.168,0.554,0.168c0.322,0,0.639-0.155,0.831-0.444c0.307-0.459,0.184-1.08-0.276-1.387
		c-2.964-1.979-6.416-3.025-9.983-3.025c-3.569,0-7.022,1.046-9.985,3.025c-0.459,0.307-0.583,0.928-0.276,1.387
		C11.17,4.835,11.792,4.957,12.25,4.652z"/>
	<path fill="#010101" d="M28.333,8.148c0.323,0,0.64-0.156,0.832-0.445c0.307-0.459,0.183-1.08-0.276-1.387
		c-2.304-1.539-4.989-2.353-7.765-2.353c-2.775,0-5.46,0.814-7.766,2.353c-0.459,0.307-0.583,0.928-0.276,1.387
		c0.307,0.458,0.928,0.583,1.387,0.276c1.976-1.319,4.278-2.016,6.656-2.016c2.379,0,4.679,0.697,6.653,2.016
		C27.949,8.093,28.142,8.148,28.333,8.148z"/>
	<path fill="#010101" d="M15.577,9.645c-0.459,0.307-0.583,0.928-0.276,1.387c0.306,0.46,0.927,0.581,1.387,0.276
		c2.631-1.757,6.239-1.759,8.874,0c0.171,0.114,0.363,0.168,0.554,0.168c0.323,0,0.64-0.157,0.833-0.444
		c0.306-0.459,0.182-1.08-0.277-1.387C23.376,7.446,18.867,7.447,15.577,9.645z"/>
</g>
<g id="nyt_x5F_exporter_x5F_info" display="none">
</g>
</svg>
