<?xml version="1.0" encoding="utf-8"?>
<!-- Generator: Adobe Illustrator 17.0.0, SVG Export Plug-In . SVG Version: 6.00 Build 0)  -->
<!DOCTYPE svg PUBLIC "-//W3C//DTD SVG 1.1//EN" "http://www.w3.org/Graphics/SVG/1.1/DTD/svg11.dtd">
<svg version="1.1" id="Layer_1" xmlns="http://www.w3.org/2000/svg" xmlns:xlink="http://www.w3.org/1999/xlink" x="0px" y="0px"
	 width="48px" height="48px" viewBox="0 0 48 48" enable-background="new 0 0 48 48" xml:space="preserve">
<g>
	<path fill="#010101" d="M47.923,32.618c-0.051-0.123-0.124-0.233-0.217-0.326L35.707,20.293C35.519,20.105,35.266,20,35,20H13
		c-0.266,0-0.52,0.105-0.707,0.293L0.294,32.292c-0.093,0.092-0.166,0.203-0.217,0.326C0.026,32.741,0,32.871,0,33.001V41
		c0,2.415,1.721,4.434,4,4.899V47c0,0.552,0.447,1,1,1s1-0.448,1-1v-1h36v1c0,0.552,0.447,1,1,1s1-0.448,1-1v-1.101
		c2.279-0.465,4-2.485,4-4.899v-7.998C48,32.871,47.974,32.741,47.923,32.618z M13.414,22h21.172l10,10H3.414L13.414,22z M46,41
		c0,1.654-1.346,3-3,3H5c-1.654,0-3-1.346-3-3v-7h44V41z"/>
	<circle fill="#010101" cx="28" cy="39" r="2"/>
	<circle fill="#010101" cx="34" cy="39" r="2"/>
	<circle fill="#010101" cx="40" cy="39" r="2"/>
	<path fill="#010101" d="M7,42c1.654,0,3-1.346,3-3s-1.346-3-3-3s-3,1.346-3,3S5.346,42,7,42z M7,38c0.552,0,1,0.449,1,1
		s-0.448,1-1,1s-1-0.449-1-1S6.448,38,7,38z"/>
</g>
<g id="nyt_x5F_exporter_x5F_info" display="none">
</g>
</svg>
