<?xml version="1.0" encoding="utf-8"?>
<!-- Generator: Adobe Illustrator 17.0.0, SVG Export Plug-In . SVG Version: 6.00 Build 0)  -->
<!DOCTYPE svg PUBLIC "-//W3C//DTD SVG 1.1//EN" "http://www.w3.org/Graphics/SVG/1.1/DTD/svg11.dtd">
<svg version="1.1" id="Layer_1" xmlns="http://www.w3.org/2000/svg" xmlns:xlink="http://www.w3.org/1999/xlink" x="0px" y="0px"
	 width="48px" height="48px" viewBox="0 0 48 48" enable-background="new 0 0 48 48" xml:space="preserve">
<g>
	<path fill="#010101" d="M45,4.002H3c-1.654,0-3,1.346-3,3v26c0,1.654,1.346,3,3,3h18v3.095c-4.857,0.299-9.297,1.356-12.466,3.018
		c-0.489,0.256-0.677,0.861-0.421,1.35c0.257,0.488,0.86,0.678,1.351,0.421C12.959,42.052,18.191,41,23.818,41
		c5.629,0,10.861,1.052,14.356,2.886C38.323,43.963,38.482,44,38.638,44c0.36,0,0.707-0.195,0.886-0.536
		c0.256-0.489,0.068-1.093-0.421-1.35c-3.088-1.62-7.388-2.662-12.103-2.991v-3.121h18c1.654,0,3-1.346,3-3v-26
		C48,5.348,46.654,4.002,45,4.002z M25,39.028C24.606,39.018,24.216,39,23.818,39c-0.275,0-0.545,0.015-0.818,0.019v-3.017h2V39.028
		z M46,33.002c0,0.551-0.449,1-1,1H3c-0.551,0-1-0.449-1-1v-26c0-0.551,0.449-1,1-1h42c0.551,0,1,0.449,1,1V33.002z"/>
	<path fill="#010101" d="M4,32.002h40v-24H4V32.002z M6,10.002h36v20H6V10.002z"/>
</g>
<g id="nyt_x5F_exporter_x5F_info" display="none">
</g>
</svg>
