<?xml version="1.0" encoding="utf-8"?>
<!-- Generator: Adobe Illustrator 17.0.0, SVG Export Plug-In . SVG Version: 6.00 Build 0)  -->
<!DOCTYPE svg PUBLIC "-//W3C//DTD SVG 1.1//EN" "http://www.w3.org/Graphics/SVG/1.1/DTD/svg11.dtd">
<svg version="1.1" id="Layer_1" xmlns="http://www.w3.org/2000/svg" xmlns:xlink="http://www.w3.org/1999/xlink" x="0px" y="0px"
	 width="48px" height="48px" viewBox="0 0 48 48" enable-background="new 0 0 48 48" xml:space="preserve">
<g>
	<path fill="#010101" d="M45,4H3C1.346,4,0,5.346,0,7v23.999c0,1.593,1.229,3.055,2.798,3.328L19,37.144v4.14
		c-3.993,0.448-7.598,1.419-10.284,2.828c-0.489,0.257-0.677,0.862-0.421,1.351c0.258,0.488,0.861,0.677,1.351,0.421
		c3.495-1.834,8.727-2.885,14.354-2.885s10.859,1.051,14.353,2.886c0.149,0.077,0.308,0.114,0.464,0.114
		c0.36,0,0.708-0.195,0.886-0.536c0.256-0.49,0.068-1.094-0.421-1.351c-2.685-1.409-6.29-2.379-10.282-2.828v-4.14l16.201-2.817
		C46.77,34.054,48,32.592,48,30.999V7C48,5.346,46.654,4,45,4z M27,41.108c-0.987-0.065-1.985-0.11-3.001-0.11
		c-1.015,0-2.013,0.045-2.999,0.11v-3.616l0.858,0.149c0.579,0.101,1.34,0.156,2.142,0.156s1.562-0.055,2.141-0.156L27,37.492
		V41.108z M46,30.999c0,0.617-0.534,1.252-1.14,1.357L25.8,35.67c-0.925,0.161-2.673,0.161-3.598,0l-19.06-3.314
		C2.534,32.251,2,31.616,2,30.999V7c0-0.551,0.449-1,1-1h42c0.551,0,1,0.449,1,1V30.999z"/>
	<path fill="#010101" d="M4,30h40V8H4V30z M6,10h36v18H6V10z"/>
	<circle fill="#010101" cx="24" cy="32.999" r="1"/>
</g>
<g id="nyt_x5F_exporter_x5F_info" display="none">
</g>
</svg>
