<?xml version="1.0" encoding="utf-8"?>
<!-- Generator: Adobe Illustrator 17.0.0, SVG Export Plug-In . SVG Version: 6.00 Build 0)  -->
<!DOCTYPE svg PUBLIC "-//W3C//DTD SVG 1.1//EN" "http://www.w3.org/Graphics/SVG/1.1/DTD/svg11.dtd">
<svg version="1.1" id="Layer_1" xmlns="http://www.w3.org/2000/svg" xmlns:xlink="http://www.w3.org/1999/xlink" x="0px" y="0px"
	 width="48px" height="48px" viewBox="0 0 48 48" enable-background="new 0 0 48 48" xml:space="preserve">
<g>
	<path fill="#010101" d="M44,2H4C1.794,2,0,3.794,0,6v30c0,2.206,1.794,4,4,4h13.612l-1.333,4H10c-0.553,0-1,0.448-1,1s0.447,1,1,1
		h7h14h0.019H38c0.553,0,1-0.448,1-1s-0.447-1-1-1h-6.279l-1.334-4H44c2.206,0,4-1.794,4-4V6C48,3.794,46.206,2,44,2z M29.613,44
		H18.388l1.333-4h8.559L29.613,44z M46,36c0,1.103-0.898,2-2,2H29H19H4c-1.103,0-2-0.897-2-2V6c0-1.103,0.897-2,2-2h40
		c1.102,0,2,0.897,2,2V36z"/>
	<path fill="#010101" d="M4,32h40V6H4V32z M6,8h36v22H6V8z"/>
	<path fill="#010101" d="M24,33c-1.103,0-2,0.897-2,2s0.897,2,2,2c1.102,0,2-0.897,2-2S25.102,33,24,33z M24,36l-0.001-0.999
		c0,0,0.001-0.001,0.002-0.001L24,36z"/>
</g>
<g id="nyt_x5F_exporter_x5F_info" display="none">
</g>
</svg>
