<?xml version="1.0" encoding="utf-8"?>
<!-- Generator: Adobe Illustrator 17.0.0, SVG Export Plug-In . SVG Version: 6.00 Build 0)  -->
<!DOCTYPE svg PUBLIC "-//W3C//DTD SVG 1.1//EN" "http://www.w3.org/Graphics/SVG/1.1/DTD/svg11.dtd">
<svg version="1.1" id="Layer_1" xmlns="http://www.w3.org/2000/svg" xmlns:xlink="http://www.w3.org/1999/xlink" x="0px" y="0px"
	 width="48px" height="48px" viewBox="0 0 48 48" enable-background="new 0 0 48 48" xml:space="preserve">
<g>
	<path fill="#010101" d="M17,39c0-0.552-0.448-1-1-1h-2c-0.552,0-1,0.448-1,1s0.448,1,1,1h2C16.552,40,17,39.552,17,39z"/>
	<path fill="#010101" d="M23,39c0-0.552-0.448-1-1-1h-2c-0.552,0-1,0.448-1,1s0.448,1,1,1h2C22.552,40,23,39.552,23,39z"/>
	<path fill="#010101" d="M29,39c0-0.552-0.448-1-1-1h-2c-0.552,0-1,0.448-1,1s0.448,1,1,1h2C28.552,40,29,39.552,29,39z"/>
	<path fill="#010101" d="M35,39c0-0.552-0.448-1-1-1h-2c-0.552,0-1,0.448-1,1s0.448,1,1,1h2C34.552,40,35,39.552,35,39z"/>
	<path fill="#010101" d="M13,42h-2c-0.552,0-1,0.448-1,1s0.448,1,1,1h2c0.552,0,1-0.448,1-1S13.552,42,13,42z"/>
	<path fill="#010101" d="M19,42h-2c-0.552,0-1,0.448-1,1s0.448,1,1,1h2c0.552,0,1-0.448,1-1S19.552,42,19,42z"/>
	<path fill="#010101" d="M25,42h-2c-0.552,0-1,0.448-1,1s0.448,1,1,1h2c0.552,0,1-0.448,1-1S25.552,42,25,42z"/>
	<path fill="#010101" d="M31,42h-2c-0.552,0-1,0.448-1,1s0.448,1,1,1h2c0.552,0,1-0.448,1-1S31.552,42,31,42z"/>
	<path fill="#010101" d="M37,42h-2c-0.552,0-1,0.448-1,1s0.448,1,1,1h2c0.552,0,1-0.448,1-1S37.552,42,37,42z"/>
	<path fill="#010101" d="M47,28h-1v-3v-2c0-0.552-0.448-1-1-1s-1,0.448-1,1v1h-6V9c0-0.265-0.105-0.519-0.293-0.707l-4-4
		C33.52,4.106,33.265,4,33,4H11c-0.552,0-1,0.448-1,1v19H4v-1c0-0.552-0.448-1-1-1s-1,0.448-1,1v2v3H1c-0.552,0-1,0.448-1,1
		s0.448,1,1,1h1v3v2c0,0.552,0.448,1,1,1s1-0.448,1-1v-1h2.101C6.035,34.323,6,34.658,6,35v11H5c-0.552,0-1,0.448-1,1s0.448,1,1,1
		h38c0.552,0,1-0.448,1-1s-0.448-1-1-1h-1V35c0-0.342-0.035-0.677-0.101-1H44v1c0,0.552,0.448,1,1,1s1-0.448,1-1v-2v-3h1
		c0.552,0,1-0.448,1-1S47.552,28,47,28z M12,6h20.586L36,9.414V24H12V6z M8,46V35c0-1.654,1.346-3,3-3h7.381l1.724,3.447
		C20.275,35.786,20.621,36,21,36h6c0.379,0,0.725-0.214,0.895-0.553L29.619,32H37c1.654,0,3,1.346,3,3v11H8z M20.618,32h6.764l-1,2
		h-4.764L20.618,32z M41,32c-0.008,0-0.014,0.004-0.022,0.004C40.065,30.795,38.629,30,37,30h-8H19h-8
		c-1.629,0-3.065,0.795-3.978,2.004C7.014,32.004,7.008,32,7,32H4v-6h7h26h7v6H41z"/>
</g>
<g id="nyt_x5F_exporter_x5F_info" display="none">
</g>
</svg>
