<?xml version="1.0" encoding="utf-8"?>
<!-- Generator: Adobe Illustrator 17.0.0, SVG Export Plug-In . SVG Version: 6.00 Build 0)  -->
<!DOCTYPE svg PUBLIC "-//W3C//DTD SVG 1.1//EN" "http://www.w3.org/Graphics/SVG/1.1/DTD/svg11.dtd">
<svg version="1.1" id="Layer_1" xmlns="http://www.w3.org/2000/svg" xmlns:xlink="http://www.w3.org/1999/xlink" x="0px" y="0px"
	 width="48px" height="48px" viewBox="0 0 48 48" enable-background="new 0 0 48 48" xml:space="preserve">
<g>
	<path fill="#010101" d="M47.706,46.293l-9.694-9.695C42.29,32.751,45,27.193,45,21C45,9.42,35.58,0,24,0S3,9.42,3,21
		c0,6.193,2.71,11.751,6.988,15.598l-9.695,9.695c-0.391,0.391-0.391,1.023,0,1.414C0.488,47.902,0.744,48,1,48
		s0.512-0.098,0.707-0.293l9.838-9.838C15.035,40.452,19.335,42,24,42s8.965-1.548,12.455-4.131l9.838,9.838
		C46.488,47.902,46.744,48,47,48s0.512-0.098,0.706-0.293C48.097,47.316,48.097,46.684,47.706,46.293z M5,21C5,10.523,13.523,2,24,2
		s19,8.523,19,19s-8.523,19-19,19S5,31.477,5,21z"/>
	<path fill="#010101" d="M24,12c-4.962,0-9,4.038-9,9s4.038,9,9,9s9-4.038,9-9S28.962,12,24,12z M24,28c-3.86,0-7-3.14-7-7
		s3.14-7,7-7s7,3.14,7,7S27.86,28,24,28z"/>
	<path fill="#010101" d="M23,16c-2.206,0-4,1.794-4,4c0,0.552,0.448,1,1,1s1-0.448,1-1c0-1.103,0.897-2,2-2c0.552,0,1-0.448,1-1
		S23.552,16,23,16z"/>
	<circle fill="#010101" cx="24" cy="8" r="2"/>
</g>
<g id="nyt_x5F_exporter_x5F_info" display="none">
</g>
</svg>
