<?xml version="1.0" encoding="utf-8"?>
<!-- Generator: Adobe Illustrator 17.0.0, SVG Export Plug-In . SVG Version: 6.00 Build 0)  -->
<!DOCTYPE svg PUBLIC "-//W3C//DTD SVG 1.1//EN" "http://www.w3.org/Graphics/SVG/1.1/DTD/svg11.dtd">
<svg version="1.1" id="Layer_1" xmlns="http://www.w3.org/2000/svg" xmlns:xlink="http://www.w3.org/1999/xlink" x="0px" y="0px"
	 width="48px" height="48px" viewBox="0 0 48 48" enable-background="new 0 0 48 48" xml:space="preserve">
<g>
	<path fill="#010101" d="M43,32h-5V15c0-0.552-0.448-1-1-1s-1,0.448-1,1v17H5c-2.757,0-5,2.243-5,5v4c0,2.415,1.721,4.434,4,4.899
		V47c0,0.552,0.448,1,1,1s1-0.448,1-1v-1h36v1c0,0.552,0.448,1,1,1s1-0.448,1-1v-1.101c2.279-0.465,4-2.484,4-4.899v-4
		C48,34.243,45.757,32,43,32z M2,41v-4c0-1.654,1.346-3,3-3h15v10H5C3.346,44,2,42.654,2,41z M46,41c0,1.654-1.346,3-3,3H22V34h21
		c1.654,0,3,1.346,3,3V41z"/>
	<circle fill="#010101" cx="28" cy="39" r="2"/>
	<circle fill="#010101" cx="34" cy="39" r="2"/>
	<circle fill="#010101" cx="40" cy="39" r="2"/>
	<path fill="#010101" d="M32,15c0,0.552,0.448,1,1,1s1-0.448,1-1c0-1.654,1.346-3,3-3s3,1.346,3,3c0,0.552,0.448,1,1,1s1-0.448,1-1
		c0-2.757-2.243-5-5-5S32,12.243,32,15z"/>
	<path fill="#010101" d="M27,16c0.552,0,1-0.448,1-1c0-4.962,4.038-9,9-9s9,4.038,9,9c0,0.552,0.448,1,1,1s1-0.448,1-1
		c0-6.065-4.935-11-11-11S26,8.935,26,15C26,15.552,26.448,16,27,16z"/>
	<path fill="#010101" d="M17,40c0.552,0,1-0.448,1-1s-0.448-1-1-1H5c-0.552,0-1,0.448-1,1s0.448,1,1,1H17z"/>
</g>
<g id="nyt_x5F_exporter_x5F_info" display="none">
</g>
</svg>
