<?xml version="1.0" encoding="utf-8"?>
<!-- Generator: Adobe Illustrator 17.0.0, SVG Export Plug-In . SVG Version: 6.00 Build 0)  -->
<!DOCTYPE svg PUBLIC "-//W3C//DTD SVG 1.1//EN" "http://www.w3.org/Graphics/SVG/1.1/DTD/svg11.dtd">
<svg version="1.1" id="Layer_1" xmlns="http://www.w3.org/2000/svg" xmlns:xlink="http://www.w3.org/1999/xlink" x="0px" y="0px"
	 width="48px" height="48px" viewBox="0 0 48 48" enable-background="new 0 0 48 48" xml:space="preserve">
<g>
	<path fill="#010101" d="M43,32H24V17c0-0.552-0.448-1-1-1s-1,0.448-1,1v15H5c-2.757,0-5,2.243-5,5v4c0,2.415,1.721,4.434,4,4.899
		V47c0,0.552,0.448,1,1,1s1-0.448,1-1v-1h36v1c0,0.552,0.448,1,1,1s1-0.448,1-1v-1.101c2.279-0.465,4-2.484,4-4.899v-4
		C48,34.243,45.757,32,43,32z M46,41c0,1.654-1.346,3-3,3H5c-1.654,0-3-1.346-3-3v-4c0-1.654,1.346-3,3-3h38c1.654,0,3,1.346,3,3V41
		z"/>
	<circle fill="#010101" cx="28" cy="39" r="2"/>
	<circle fill="#010101" cx="34" cy="39" r="2"/>
	<circle fill="#010101" cx="40" cy="39" r="2"/>
	<path fill="#010101" d="M17,38H5c-0.552,0-1,0.448-1,1s0.448,1,1,1h12c0.552,0,1-0.448,1-1S17.552,38,17,38z"/>
	<path fill="#010101" d="M19,20c0.552,0,1-0.448,1-1v-4c0-0.552-0.448-1-1-1s-1,0.448-1,1v4C18,19.552,18.448,20,19,20z"/>
	<path fill="#010101" d="M13,22c0.552,0,1-0.448,1-1v-8c0-0.552-0.448-1-1-1s-1,0.448-1,1v8C12,21.552,12.448,22,13,22z"/>
	<path fill="#010101" d="M7,24c0.552,0,1-0.448,1-1V11c0-0.552-0.448-1-1-1s-1,0.448-1,1v12C6,23.552,6.448,24,7,24z"/>
	<path fill="#010101" d="M1,26c0.552,0,1-0.448,1-1V9c0-0.552-0.448-1-1-1S0,8.448,0,9v16C0,25.552,0.448,26,1,26z"/>
	<path fill="#010101" d="M27,20c0.552,0,1-0.448,1-1v-4c0-0.552-0.448-1-1-1s-1,0.448-1,1v4C26,19.552,26.448,20,27,20z"/>
	<path fill="#010101" d="M33,22c0.552,0,1-0.448,1-1v-8c0-0.552-0.448-1-1-1s-1,0.448-1,1v8C32,21.552,32.448,22,33,22z"/>
	<path fill="#010101" d="M39,24c0.552,0,1-0.448,1-1V11c0-0.552-0.448-1-1-1s-1,0.448-1,1v12C38,23.552,38.448,24,39,24z"/>
	<path fill="#010101" d="M45,26c0.552,0,1-0.448,1-1V9c0-0.552-0.448-1-1-1s-1,0.448-1,1v16C44,25.552,44.448,26,45,26z"/>
</g>
<g id="nyt_x5F_exporter_x5F_info" display="none">
</g>
</svg>
