<?xml version="1.0" encoding="utf-8"?>
<!-- Generator: Adobe Illustrator 17.0.0, SVG Export Plug-In . SVG Version: 6.00 Build 0)  -->
<!DOCTYPE svg PUBLIC "-//W3C//DTD SVG 1.1//EN" "http://www.w3.org/Graphics/SVG/1.1/DTD/svg11.dtd">
<svg version="1.1" id="Layer_2" xmlns="http://www.w3.org/2000/svg" xmlns:xlink="http://www.w3.org/1999/xlink" x="0px" y="0px"
	 width="48px" height="48px" viewBox="0 0 48 48" enable-background="new 0 0 48 48" xml:space="preserve">
<g>
	<path fill="#010101" d="M35.706,11.883C33.226,7.206,28.307,4.218,23,4.218c-7.235,0-13.295,5.39-14.244,12.455
		C8.558,16.658,8.36,16.65,8.163,16.65C3.662,16.65,0,20.318,0,24.826c0,6.943,6.107,7.988,8.061,8.146l1.466,0.001
		C9.806,25.775,15.734,20,23,20c7.274,0,13.207,5.787,13.474,12.997l0.046-0.006C36.615,32.98,46,31.65,46,22.435
		C46,16.699,41.405,12.018,35.706,11.883z"/>
	<path fill="#010101" d="M23,22c-6.341,0-11.5,5.159-11.5,11.5C11.5,39.841,16.659,45,23,45c6.341,0,11.5-5.159,11.5-11.5
		C34.5,27.159,29.341,22,23,22z M28.97,37.486c-1.425,1.896-3.601,2.984-5.97,2.984c-3.858,0-7.041-2.942-7.423-6.701l-0.755,0.755
		c-0.391,0.391-1.023,0.391-1.414,0c-0.391-0.391-0.391-1.023,0-1.414l2.423-2.423l0.001-0.001l0.706-0.706l0.706,0.706l0.001,0.002
		l2.422,2.422c0.391,0.391,0.391,1.023,0,1.414c-0.195,0.195-0.451,0.293-0.707,0.293c-0.256,0-0.512-0.098-0.707-0.293
		l-0.639-0.639c0.421,2.595,2.672,4.585,5.385,4.585c1.734,0,3.327-0.797,4.371-2.185c0.331-0.441,0.959-0.529,1.4-0.199
		C29.213,36.418,29.302,37.045,28.97,37.486z M32.592,31.495c0.391,0.391,0.391,1.023,0,1.414l-2.423,2.422l-0.001,0.001
		l-0.707,0.706l-0.706-0.706l-0.001-0.002l-2.422-2.422c-0.391-0.391-0.391-1.024,0-1.414c0.391-0.391,1.024-0.391,1.414,0
		l0.639,0.639c-0.421-2.596-2.672-4.586-5.384-4.586c-1.733,0-3.326,0.796-4.37,2.184c-0.332,0.441-0.959,0.529-1.4,0.199
		c-0.442-0.332-0.531-0.959-0.199-1.4c1.424-1.896,3.6-2.983,5.968-2.983c3.858,0,7.041,2.943,7.423,6.702l0.755-0.755
		C31.568,31.105,32.201,31.105,32.592,31.495z"/>
</g>
</svg>
