<?xml version="1.0" encoding="utf-8"?>
<!-- Generator: Adobe Illustrator 17.0.0, SVG Export Plug-In . SVG Version: 6.00 Build 0)  -->
<!DOCTYPE svg PUBLIC "-//W3C//DTD SVG 1.1//EN" "http://www.w3.org/Graphics/SVG/1.1/DTD/svg11.dtd">
<svg version="1.1" id="Layer_2" xmlns="http://www.w3.org/2000/svg" xmlns:xlink="http://www.w3.org/1999/xlink" x="0px" y="0px"
	 width="48px" height="48px" viewBox="0 0 48 48" enable-background="new 0 0 48 48" xml:space="preserve">
<g>
	<path fill="#010101" d="M35.706,11.883C33.226,7.206,28.307,4.218,23,4.218c-7.235,0-13.295,5.39-14.244,12.455
		C8.558,16.658,8.36,16.65,8.163,16.65C3.662,16.65,0,20.318,0,24.826c0,6.943,6.107,7.988,8.061,8.146l0.96,0.001
		C9.245,26,14.973,20.392,22,20.392c7.036,0,12.77,5.622,12.98,12.607L36.456,33l0.064-0.009C36.615,32.98,46,31.65,46,22.435
		C46,16.699,41.405,12.018,35.706,11.883z"/>
	<path fill="#010101" d="M22,22.392c-6.065,0-11,4.935-11,11c0,6.065,4.935,11,11,11c6.065,0,11-4.935,11-11
		C33,27.326,28.065,22.392,22,22.392z M27,34H17c-0.552,0-1-0.447-1-1c0-0.553,0.448-1,1-1h10c0.552,0,1,0.447,1,1
		C28,33.553,27.552,34,27,34z"/>
</g>
</svg>
