<?xml version="1.0" encoding="utf-8"?>
<!-- Generator: Adobe Illustrator 17.0.0, SVG Export Plug-In . SVG Version: 6.00 Build 0)  -->
<!DOCTYPE svg PUBLIC "-//W3C//DTD SVG 1.1//EN" "http://www.w3.org/Graphics/SVG/1.1/DTD/svg11.dtd">
<svg version="1.1" id="Layer_2" xmlns="http://www.w3.org/2000/svg" xmlns:xlink="http://www.w3.org/1999/xlink" x="0px" y="0px"
	 width="48px" height="48px" viewBox="0 0 48 48" enable-background="new 0 0 48 48" xml:space="preserve">
<g>
	<path fill="#010101" d="M35.706,11.883C33.226,7.206,28.307,4.218,23,4.218c-7.235,0-13.295,5.39-14.244,12.455
		C8.558,16.658,8.36,16.65,8.163,16.65C3.662,16.65,0,20.318,0,24.826c0,6.943,6.107,7.988,8.061,8.146l1.94,0.002
		C10.015,25.818,15.84,20,23,20c7.168,0,13,5.832,13,13l0.456,0l0.064-0.009C36.615,32.98,46,31.65,46,22.435
		C46,16.699,41.405,12.018,35.706,11.883z"/>
	<path fill="#010101" d="M23,22c-6.065,0-11,4.935-11,11c0,6.065,4.935,11,11,11s11-4.935,11-11C34,26.935,29.065,22,23,22z M27,34
		h-3v3c0,0.553-0.448,1-1,1c-0.552,0-1-0.447-1-1v-3h-3c-0.552,0-1-0.447-1-1c0-0.553,0.448-1,1-1h3v-3c0-0.553,0.448-1,1-1
		c0.552,0,1,0.447,1,1v3h3c0.552,0,1,0.447,1,1C28,33.553,27.552,34,27,34z"/>
</g>
</svg>
