<?xml version="1.0" encoding="utf-8"?>
<!-- Generator: Adobe Illustrator 17.0.0, SVG Export Plug-In . SVG Version: 6.00 Build 0)  -->
<!DOCTYPE svg PUBLIC "-//W3C//DTD SVG 1.1//EN" "http://www.w3.org/Graphics/SVG/1.1/DTD/svg11.dtd">
<svg version="1.1" id="Layer_2" xmlns="http://www.w3.org/2000/svg" xmlns:xlink="http://www.w3.org/1999/xlink" x="0px" y="0px"
	 width="48px" height="48px" viewBox="0 0 48 48" enable-background="new 0 0 48 48" xml:space="preserve">
<g>
	<path fill="#010101" d="M35.705,14.665C33.224,9.988,28.306,7,23,7C15.765,7,9.704,12.39,8.755,19.455
		C4.032,19.095,0,22.903,0,27.608C0,34.153,5.651,35.96,8.652,36H20v-5.366l-0.879,0.879c-1.133,1.133-3.109,1.133-4.242,0
		C14.312,30.946,14,30.192,14,29.392s0.312-1.555,0.879-2.121l6-5.999c0.276-0.277,0.604-0.497,0.974-0.65
		c0.737-0.303,1.562-0.301,2.291-0.002c0.374,0.155,0.704,0.376,0.983,0.656l5.996,5.995C31.688,27.837,32,28.591,32,29.392
		s-0.312,1.555-0.879,2.121c-1.133,1.133-3.109,1.133-4.242,0L26,30.634V36h10.468l0.076-0.012C36.639,35.974,46,34.412,46,25.218
		C46,19.482,41.405,14.8,35.705,14.665z"/>
	<path fill="#010101" d="M29.707,30.099C29.898,29.907,30,29.662,30,29.392s-0.102-0.516-0.293-0.707l-5.998-5.997
		c-0.095-0.096-0.203-0.167-0.331-0.22c-0.236-0.098-0.517-0.101-0.763,0.002c-0.122,0.051-0.23,0.123-0.321,0.214l-6.001,6.001
		C16.102,28.876,16,29.121,16,29.392s0.102,0.516,0.293,0.707c0.384,0.383,1.03,0.383,1.414,0L22,25.806v19.586c0,0.552,0.449,1,1,1
		c0.551,0,1-0.448,1-1V25.806l4.293,4.293C28.677,30.481,29.323,30.481,29.707,30.099z"/>
</g>
</svg>
