<?xml version="1.0" encoding="utf-8"?>
<!-- Generator: Adobe Illustrator 17.0.0, SVG Export Plug-In . SVG Version: 6.00 Build 0)  -->
<!DOCTYPE svg PUBLIC "-//W3C//DTD SVG 1.1//EN" "http://www.w3.org/Graphics/SVG/1.1/DTD/svg11.dtd">
<svg version="1.1" id="Layer_2" xmlns="http://www.w3.org/2000/svg" xmlns:xlink="http://www.w3.org/1999/xlink" x="0px" y="0px"
	 width="48px" height="48px" viewBox="0 0 48 48" enable-background="new 0 0 48 48" xml:space="preserve">
<g>
	<path fill="#010101" d="M35.706,11.883C33.226,7.206,28.307,4.218,23,4.218c-7.235,0-13.295,5.39-14.244,12.455
		C8.558,16.658,8.36,16.65,8.163,16.65C3.662,16.65,0,20.318,0,24.826c0,6.943,6.107,7.988,8.061,8.146l1.045,0.001
		C9.043,32.454,9,31.928,9,31.392c0-7.168,5.831-13,13-13c7.168,0,13,5.832,13,13c0,0.545-0.045,1.079-0.11,1.607L36.456,33
		l0.064-0.009C36.615,32.98,46,31.65,46,22.435C46,16.699,41.405,12.018,35.706,11.883z"/>
	<path fill="#010101" d="M22,20.392c-6.065,0-11,4.935-11,11c0,6.065,4.935,11,11,11c6.065,0,11-4.935,11-11
		C33,25.326,28.065,20.392,22,20.392z M26.241,34.22c0.391,0.391,0.391,1.024,0,1.414c-0.195,0.195-0.451,0.293-0.707,0.293
		c-0.256,0-0.512-0.098-0.707-0.293l-2.828-2.828l-2.828,2.828c-0.195,0.195-0.451,0.293-0.707,0.293
		c-0.256,0-0.512-0.098-0.707-0.293c-0.391-0.391-0.391-1.023,0-1.414l2.828-2.828l-2.828-2.828c-0.391-0.391-0.391-1.024,0-1.414
		c0.391-0.391,1.023-0.391,1.414,0l2.828,2.828l2.828-2.828c0.391-0.391,1.024-0.391,1.414,0c0.391,0.391,0.391,1.024,0,1.414
		l-2.828,2.828L26.241,34.22z"/>
</g>
</svg>
