<?xml version="1.0" encoding="utf-8"?>
<!-- Generator: Adobe Illustrator 17.1.0, SVG Export Plug-In . SVG Version: 6.00 Build 0)  -->
<!DOCTYPE svg PUBLIC "-//W3C//DTD SVG 1.0//EN" "http://www.w3.org/TR/2001/REC-SVG-20010904/DTD/svg10.dtd">
<svg version="1.0" id="Layer_1" xmlns="http://www.w3.org/2000/svg" xmlns:xlink="http://www.w3.org/1999/xlink" x="0px" y="0px"
	 width="48px" height="48px" viewBox="0 0 48 48" enable-background="new 0 0 48 48" xml:space="preserve">
<g>
	<path d="M47.991,34.955c-0.005-0.111-0.024-0.219-0.065-0.323c-0.003-0.008-0.004-0.017-0.007-0.025
		c-0.038-0.088-0.088-0.171-0.151-0.247l-10-12C37.578,22.132,37.297,22,37,22h-3c-0.552,0-1,0.447-1,1s0.448,1,1,1h2.532l8.333,10
		H3.135l8.333-10H13c0.552,0,1-0.447,1-1s-0.448-1-1-1h-2c-0.297,0-0.578,0.132-0.768,0.359l-10,12
		c-0.063,0.076-0.113,0.159-0.15,0.247c-0.004,0.008-0.004,0.018-0.007,0.026c-0.041,0.104-0.06,0.212-0.065,0.322
		C0.008,34.971,0,34.984,0,35v8c0,2.757,2.243,5,5,5h38c2.757,0,5-2.243,5-5v-8C48,34.984,47.992,34.971,47.991,34.955z M40,42h-8
		c-0.552,0-1-0.447-1-1s0.448-1,1-1h8c0.552,0,1,0.447,1,1S40.552,42,40,42z"/>
	<path d="M22.292,25.706c0.092,0.092,0.203,0.166,0.326,0.217C22.74,25.973,22.87,26,23,26c0.13,0,0.26-0.027,0.382-0.077
		c0.123-0.051,0.233-0.124,0.326-0.217l7.999-7.999c0.391-0.391,0.391-1.023,0-1.414c-0.391-0.391-1.023-0.391-1.414,0L24,22.586V1
		c0-0.553-0.448-1-1-1c-0.552,0-1,0.447-1,1v21.586l-6.293-6.293c-0.391-0.391-1.023-0.391-1.414,0
		c-0.391,0.391-0.391,1.023,0,1.414L22.292,25.706z"/>
</g>
</svg>
