<?xml version="1.0" encoding="utf-8"?>
<!-- Generator: Adobe Illustrator 17.0.0, SVG Export Plug-In . SVG Version: 6.00 Build 0)  -->
<!DOCTYPE svg PUBLIC "-//W3C//DTD SVG 1.1//EN" "http://www.w3.org/Graphics/SVG/1.1/DTD/svg11.dtd">
<svg version="1.1" id="Layer_2" xmlns="http://www.w3.org/2000/svg" xmlns:xlink="http://www.w3.org/1999/xlink" x="0px" y="0px"
	 width="48px" height="48px" viewBox="0 0 48 48" enable-background="new 0 0 48 48" xml:space="preserve">
<g>
	<path fill="#010101" d="M47.707,6.293l-6-6C41.519,0.106,41.265,0,41,0h-8c-0.552,0-1,0.447-1,1v18c0,0.553,0.448,1,1,1h14
		c0.552,0,1-0.447,1-1V7C48,6.734,47.894,6.481,47.707,6.293z M41,7V1l6,6H41z"/>
	<path fill="#010101" d="M28,22h-6.758l-2.12,2.12c-0.276,0.277-0.604,0.497-0.974,0.65C17.782,24.923,17.395,25,17,25
		c-0.396,0-0.784-0.078-1.151-0.231c-0.366-0.151-0.694-0.371-0.974-0.652L12.758,22H4c-2.206,0-4,1.794-4,4v12h32V26
		C32,23.794,30.206,22,28,22z"/>
	<path fill="#010101" d="M4,44h11v2h-5c-0.552,0-1,0.447-1,1c0,0.553,0.448,1,1,1h12c0.552,0,1-0.447,1-1c0-0.553-0.448-1-1-1h-5v-2
		h11c2.206,0,4-1.794,4-4H0C0,42.206,1.794,44,4,44z"/>
	<path fill="#010101" d="M12.293,18.707l0.888,0.888l3.109,3.109c0.094,0.094,0.203,0.167,0.326,0.218
		c0.251,0.104,0.52,0.104,0.764,0.002c0.125-0.053,0.234-0.125,0.325-0.216l3.112-3.112l0.889-0.889
		c0.097-0.097,0.168-0.208,0.217-0.327c0.049-0.119,0.075-0.247,0.075-0.38c0-0.133-0.026-0.261-0.075-0.38
		c-0.049-0.119-0.121-0.231-0.217-0.327c-0.001-0.001-0.003-0.001-0.004-0.003c-0.383-0.378-1.023-0.378-1.406,0
		c-0.001,0.001-0.003,0.001-0.004,0.003l-0.254,0.254l-2.35,2.351l0.47-3.026c0.538-3.464,2.422-5.984,5.16-7.148
		c0.003-0.001,0.006-0.002,0.009-0.004c0.251-0.106,0.509-0.201,0.774-0.284c0.044-0.014,0.088-0.028,0.132-0.041
		c0.228-0.067,0.46-0.125,0.698-0.176c0.07-0.015,0.138-0.031,0.209-0.045c0.225-0.042,0.455-0.074,0.688-0.1
		c0.078-0.009,0.153-0.022,0.232-0.029C26.368,9.017,26.68,9,27,9c0.551,0,1-0.448,1-1c0-0.552-0.449-1-1-1
		c-0.397,0-0.786,0.02-1.168,0.056c-0.049,0.005-0.096,0.014-0.145,0.019c-0.345,0.037-0.685,0.084-1.016,0.15
		c-0.004,0.001-0.008,0.002-0.012,0.003c-4.438,0.892-7.606,4.337-8.44,9.169c-0.016,0.097-0.027,0.197-0.042,0.295
		C16.066,17.433,16,18.201,16,19v0.586l-0.133-0.133l-1.014-1.014l-1.146-1.147c-0.098-0.098-0.21-0.171-0.33-0.219
		C13.259,17.026,13.133,17,13,17c-0.133,0-0.259,0.026-0.377,0.074c-0.12,0.049-0.233,0.122-0.33,0.219
		c-0.098,0.098-0.171,0.21-0.22,0.331C12.026,17.741,12,17.867,12,18c0,0.133,0.026,0.259,0.073,0.377
		C12.122,18.497,12.195,18.609,12.293,18.707z"/>
</g>
</svg>
