<?xml version="1.0" encoding="utf-8"?>
<!-- Generator: Adobe Illustrator 17.0.0, SVG Export Plug-In . SVG Version: 6.00 Build 0)  -->
<!DOCTYPE svg PUBLIC "-//W3C//DTD SVG 1.1//EN" "http://www.w3.org/Graphics/SVG/1.1/DTD/svg11.dtd">
<svg version="1.1" id="Layer_2" xmlns="http://www.w3.org/2000/svg" xmlns:xlink="http://www.w3.org/1999/xlink" x="0px" y="0px"
	 width="48px" height="48px" viewBox="0 0 48 48" enable-background="new 0 0 48 48" xml:space="preserve">
<g>
	<path fill="#010101" d="M25.415,38.413l10.999-10.999c0.781-0.781,0.781-2.047,0-2.828c-0.78-0.781-2.048-0.781-2.828,0L26,32.172
		V11c0-1.104-0.896-2-2-2c-1.105,0-2,0.896-2,2v21.172l-7.586-7.586c-0.78-0.781-2.048-0.781-2.828,0
		c-0.781,0.781-0.781,2.047,0,2.828l10.999,10.999c0.093,0.093,0.196,0.177,0.306,0.25c0.049,0.033,0.103,0.056,0.155,0.084
		c0.063,0.034,0.123,0.072,0.19,0.1c0.066,0.027,0.135,0.043,0.203,0.063c0.057,0.017,0.112,0.039,0.171,0.051
		C23.738,38.986,23.869,39,24,39c0.131,0,0.262-0.014,0.392-0.04c0.059-0.012,0.114-0.034,0.171-0.051
		c0.068-0.02,0.137-0.036,0.203-0.063c0.066-0.027,0.127-0.065,0.189-0.1c0.052-0.028,0.105-0.051,0.155-0.084
		C25.219,38.59,25.322,38.506,25.415,38.413z"/>
	<path fill="#010101" d="M46,41c-1.105,0-2,0.896-2,2v1h-1c-1.105,0-2,0.896-2,2c0,1.105,0.895,2,2,2h5v-5
		C48,41.896,47.104,41,46,41z"/>
	<path fill="#010101" d="M5,44H4v-1c0-1.104-0.896-2-2-2c-1.105,0-2,0.896-2,2v5h5c1.104,0,2-0.895,2-2C7,44.896,6.104,44,5,44z"/>
	<path fill="#010101" d="M36.913,44H35c-1.105,0-2,0.896-2,2c0,1.105,0.895,2,2,2h1.913c1.104,0,2-0.895,2-2
		C38.913,44.896,38.018,44,36.913,44z"/>
	<path fill="#010101" d="M29,44h-1.913c-1.104,0-2,0.896-2,2c0,1.105,0.896,2,2,2H29c1.104,0,2-0.895,2-2C31,44.896,30.104,44,29,44
		z"/>
	<path fill="#010101" d="M21,44h-1.913c-1.105,0-2,0.896-2,2c0,1.105,0.895,2,2,2H21c1.104,0,2-0.895,2-2C23,44.896,22.104,44,21,44
		z"/>
	<path fill="#010101" d="M12.913,44H11c-1.105,0-2,0.896-2,2c0,1.105,0.895,2,2,2h1.913c1.104,0,2-0.895,2-2
		C14.913,44.896,14.018,44,12.913,44z"/>
	<path fill="#010101" d="M43,0c-1.105,0-2,0.896-2,2c0,1.105,0.895,2,2,2h1v1c0,1.105,0.895,2,2,2c1.104,0,2-0.895,2-2V0H43z"/>
	<path fill="#010101" d="M5,0H0v5c0,1.105,0.895,2,2,2c1.104,0,2-0.895,2-2V4h1c1.104,0,2-0.895,2-2C7,0.896,6.104,0,5,0z"/>
	<path fill="#010101" d="M36.913,0H35c-1.105,0-2,0.896-2,2c0,1.105,0.895,2,2,2h1.913c1.104,0,2-0.895,2-2
		C38.913,0.896,38.018,0,36.913,0z"/>
	<path fill="#010101" d="M27.087,4H29c1.104,0,2-0.895,2-2c0-1.104-0.896-2-2-2h-1.913c-1.104,0-2,0.896-2,2
		C25.087,3.105,25.982,4,27.087,4z"/>
	<path fill="#010101" d="M19.087,4H21c1.104,0,2-0.895,2-2c0-1.104-0.896-2-2-2h-1.913c-1.105,0-2,0.896-2,2
		C17.087,3.105,17.982,4,19.087,4z"/>
	<path fill="#010101" d="M11,4h1.913c1.104,0,2-0.895,2-2c0-1.104-0.896-2-2-2H11C9.895,0,9,0.896,9,2C9,3.105,9.895,4,11,4z"/>
	<path fill="#010101" d="M2,38.913c1.104,0,2-0.896,2-2V35c0-1.104-0.896-2-2-2c-1.105,0-2,0.896-2,2v1.913
		C0,38.018,0.895,38.913,2,38.913z"/>
	<path fill="#010101" d="M2,31c1.104,0,2-0.895,2-2v-1.913c0-1.104-0.896-2-2-2c-1.105,0-2,0.896-2,2V29C0,30.105,0.895,31,2,31z"/>
	<path fill="#010101" d="M2,23c1.104,0,2-0.895,2-2v-1.913c0-1.104-0.896-2-2-2c-1.105,0-2,0.896-2,2V21C0,22.105,0.895,23,2,23z"/>
	<path fill="#010101" d="M2,14.913c1.104,0,2-0.896,2-2V11c0-1.104-0.896-2-2-2c-1.105,0-2,0.896-2,2v1.913
		C0,14.018,0.895,14.913,2,14.913z"/>
	<path fill="#010101" d="M46,33c-1.105,0-2,0.896-2,2v1.913c0,1.104,0.895,2,2,2c1.104,0,2-0.896,2-2V35C48,33.896,47.104,33,46,33z
		"/>
	<path fill="#010101" d="M46,25.087c-1.105,0-2,0.896-2,2V29c0,1.105,0.895,2,2,2c1.104,0,2-0.895,2-2v-1.913
		C48,25.982,47.104,25.087,46,25.087z"/>
	<path fill="#010101" d="M46,17.087c-1.105,0-2,0.896-2,2V21c0,1.105,0.895,2,2,2c1.104,0,2-0.895,2-2v-1.913
		C48,17.982,47.104,17.087,46,17.087z"/>
	<path fill="#010101" d="M46,9c-1.105,0-2,0.896-2,2v1.913c0,1.104,0.895,2,2,2c1.104,0,2-0.896,2-2V11C48,9.896,47.104,9,46,9z"/>
</g>
</svg>
