<?xml version="1.0" encoding="utf-8"?>
<!-- Generator: Adobe Illustrator 17.0.0, SVG Export Plug-In . SVG Version: 6.00 Build 0)  -->
<!DOCTYPE svg PUBLIC "-//W3C//DTD SVG 1.1//EN" "http://www.w3.org/Graphics/SVG/1.1/DTD/svg11.dtd">
<svg version="1.1" id="Layer_2" xmlns="http://www.w3.org/2000/svg" xmlns:xlink="http://www.w3.org/1999/xlink" x="0px" y="0px"
	 width="48px" height="48px" viewBox="0 0 48 48" enable-background="new 0 0 48 48" xml:space="preserve">
<g>
	<path fill="#010101" d="M20.585,27.413c0.093,0.093,0.196,0.177,0.306,0.25c0.049,0.033,0.103,0.056,0.155,0.084
		c0.063,0.034,0.123,0.072,0.19,0.1c0.066,0.027,0.135,0.043,0.203,0.063c0.057,0.017,0.112,0.039,0.171,0.05
		C21.738,27.986,21.869,28,22,28c0.131,0,0.262-0.014,0.392-0.04c0.059-0.012,0.114-0.034,0.171-0.05
		c0.068-0.02,0.137-0.036,0.203-0.063c0.066-0.027,0.127-0.065,0.189-0.1c0.052-0.028,0.105-0.051,0.155-0.084
		c0.11-0.074,0.213-0.157,0.306-0.25l10.999-10.999c0.781-0.781,0.781-2.047,0-2.828c-0.78-0.781-2.048-0.781-2.828,0L24,21.172V2
		c0-1.104-0.896-2-2-2c-1.105,0-2,0.896-2,2v19.172l-7.586-7.586c-0.78-0.781-2.048-0.781-2.828,0c-0.781,0.781-0.781,2.047,0,2.828
		L20.585,27.413z"/>
	<path fill="#010101" d="M35,44H9c-1.105,0-2,0.896-2,2c0,1.105,0.895,2,2,2h26c1.104,0,2-0.895,2-2C37,44.896,36.104,44,35,44z"/>
	<path fill="#010101" d="M35,38H9c-1.105,0-2,0.896-2,2c0,1.105,0.895,2,2,2h26c1.104,0,2-0.895,2-2C37,38.896,36.104,38,35,38z"/>
	<path fill="#010101" d="M9,36h26c1.104,0,2-0.895,2-2c0-1.104-0.896-2-2-2H9c-1.105,0-2,0.896-2,2C7,35.105,7.895,36,9,36z"/>
</g>
</svg>
