<?xml version="1.0" encoding="utf-8"?>
<!-- Generator: Adobe Illustrator 17.0.0, SVG Export Plug-In . SVG Version: 6.00 Build 0)  -->
<!DOCTYPE svg PUBLIC "-//W3C//DTD SVG 1.1//EN" "http://www.w3.org/Graphics/SVG/1.1/DTD/svg11.dtd">
<svg version="1.1" id="Layer_2" xmlns="http://www.w3.org/2000/svg" xmlns:xlink="http://www.w3.org/1999/xlink" x="0px" y="0px"
	 width="48px" height="48px" viewBox="0 0 48 48" enable-background="new 0 0 48 48" xml:space="preserve">
<g>
	<path fill="#010101" d="M23.293,33.707C23.488,33.902,23.744,34,24,34c0.256,0,0.512-0.098,0.707-0.293l16-16
		c0.286-0.286,0.372-0.716,0.217-1.09C40.769,16.243,40.404,16,40,16H8c-0.404,0-0.769,0.243-0.924,0.617
		c-0.155,0.374-0.069,0.804,0.217,1.09L23.293,33.707z"/>
	<path fill="#010101" d="M46,40H2c-1.105,0-2,0.896-2,2c0,1.105,0.895,2,2,2h44c1.104,0,2-0.895,2-2C48,40.896,47.104,40,46,40z"/>
</g>
</svg>
