<?xml version="1.0" encoding="utf-8"?>
<!-- Generator: Adobe Illustrator 17.0.0, SVG Export Plug-In . SVG Version: 6.00 Build 0)  -->
<!DOCTYPE svg PUBLIC "-//W3C//DTD SVG 1.1//EN" "http://www.w3.org/Graphics/SVG/1.1/DTD/svg11.dtd">
<svg version="1.1" id="Layer_2" xmlns="http://www.w3.org/2000/svg" xmlns:xlink="http://www.w3.org/1999/xlink" x="0px" y="0px"
	 width="48px" height="48px" viewBox="0 0 48 48" enable-background="new 0 0 48 48" xml:space="preserve">
<g>
	<path fill="#010101" d="M28,22h-8.758l-1.12,1.12c-0.276,0.277-0.604,0.497-0.974,0.65C16.782,23.923,16.395,24,16,24
		c-0.396,0-0.784-0.078-1.151-0.231c-0.366-0.151-0.694-0.371-0.974-0.652L12.758,22H4c-2.206,0-4,1.794-4,4v12h32V26
		C32,23.794,30.206,22,28,22z"/>
	<path fill="#010101" d="M4,44h11v2h-5c-0.552,0-1,0.447-1,1c0,0.553,0.448,1,1,1h12c0.552,0,1-0.447,1-1c0-0.553-0.448-1-1-1h-5v-2
		h11c2.206,0,4-1.794,4-4H0C0,42.206,1.794,44,4,44z"/>
	<path fill="#010101" d="M47,6h-1V3c0-0.553-0.448-1-1-1H32V1c0-0.553-0.448-1-1-1h-4c-0.552,0-1,0.447-1,1v7v7c0,1.654,1.346,3,3,3
		h15c2.206,0,4-1.794,4-4V7C48,6.447,47.552,6,47,6z M44,6H31c-0.552,0-1,0.447-1,1v8c0,0.552-0.449,1-1,1c-0.551,0-1-0.448-1-1V2h2
		v1c0,0.553,0.448,1,1,1h13V6z"/>
	<path fill="#010101" d="M11.293,17.707l0.888,0.888l3.109,3.109c0.083,0.083,0.181,0.142,0.287,0.191
		c0.014,0.007,0.025,0.02,0.039,0.026c0.139,0.057,0.283,0.076,0.426,0.07c0.115-0.005,0.231-0.024,0.339-0.069
		c0.048-0.02,0.081-0.056,0.124-0.082c0.069-0.042,0.144-0.076,0.201-0.134l3.111-3.111l0.889-0.889
		c0.098-0.098,0.171-0.21,0.22-0.33C20.974,17.259,21,17.133,21,17c0-0.133-0.026-0.259-0.073-0.376
		c-0.049-0.12-0.122-0.233-0.22-0.331c-0.001-0.001-0.003-0.001-0.004-0.003c-0.383-0.378-1.023-0.378-1.406,0
		c-0.001,0.001-0.003,0.001-0.004,0.003l-0.058,0.058l-2.375,2.378l0.213-2.704c0.011-0.139,0.031-0.257,0.044-0.39
		c0.018-0.182,0.038-0.362,0.061-0.534c0.029-0.22,0.062-0.432,0.097-0.637c0.029-0.165,0.059-0.326,0.092-0.481
		c0.038-0.18,0.079-0.353,0.122-0.52c0.042-0.161,0.086-0.316,0.133-0.466c0.044-0.141,0.089-0.279,0.137-0.41
		c0.054-0.148,0.11-0.29,0.169-0.426c0.051-0.119,0.103-0.236,0.158-0.346c0.058-0.118,0.119-0.231,0.181-0.34
		c0.067-0.118,0.135-0.232,0.206-0.34c0.049-0.073,0.098-0.143,0.149-0.212c0.098-0.135,0.199-0.262,0.302-0.378
		c0.02-0.022,0.04-0.044,0.06-0.066C20.336,9.012,22.046,9,23,9c0.551,0,1-0.448,1-1c0-0.552-0.449-1-1-1
		c-0.318,0-0.625,0.015-0.924,0.042c-0.112,0.01-0.217,0.029-0.326,0.043c-0.181,0.023-0.363,0.044-0.537,0.077
		c-0.131,0.025-0.256,0.059-0.384,0.09c-0.142,0.034-0.284,0.067-0.421,0.108c-0.136,0.041-0.267,0.091-0.399,0.139
		c-0.117,0.043-0.234,0.086-0.347,0.135c-0.137,0.059-0.268,0.125-0.399,0.193c-0.098,0.05-0.195,0.101-0.289,0.156
		c-0.134,0.078-0.264,0.162-0.391,0.25c-0.081,0.056-0.16,0.113-0.239,0.173c-0.13,0.099-0.256,0.202-0.379,0.312
		c-0.066,0.059-0.13,0.121-0.194,0.183c-0.125,0.121-0.247,0.245-0.363,0.378c-0.052,0.059-0.101,0.122-0.151,0.184
		c-0.119,0.146-0.236,0.295-0.346,0.454c-0.037,0.054-0.071,0.112-0.107,0.167c-0.115,0.176-0.228,0.355-0.332,0.546
		c-0.018,0.033-0.034,0.07-0.052,0.104c-0.473,0.899-0.827,1.961-1.063,3.181c-0.016,0.081-0.035,0.158-0.049,0.24
		c-0.038,0.216-0.068,0.443-0.099,0.669c-0.021,0.149-0.044,0.295-0.061,0.448c-0.023,0.201-0.039,0.41-0.057,0.618
		C15.035,16.559,15,17.256,15,18v0.586l-2.293-2.293c-0.098-0.098-0.21-0.171-0.33-0.219C12.259,16.026,12.133,16,12,16
		c-0.133,0-0.259,0.026-0.377,0.074c-0.12,0.049-0.233,0.122-0.33,0.219c-0.098,0.098-0.171,0.21-0.22,0.331
		C11.026,16.741,11,16.867,11,17c0,0.133,0.026,0.259,0.073,0.377C11.122,17.497,11.195,17.609,11.293,17.707z"/>
</g>
</svg>
