<?xml version="1.0" encoding="utf-8"?>
<!-- Generator: Adobe Illustrator 17.0.0, SVG Export Plug-In . SVG Version: 6.00 Build 0)  -->
<!DOCTYPE svg PUBLIC "-//W3C//DTD SVG 1.1//EN" "http://www.w3.org/Graphics/SVG/1.1/DTD/svg11.dtd">
<svg version="1.1" id="Layer_2" xmlns="http://www.w3.org/2000/svg" xmlns:xlink="http://www.w3.org/1999/xlink" x="0px" y="0px"
	 width="48px" height="48px" viewBox="0 0 48 48" enable-background="new 0 0 48 48" xml:space="preserve">
<g>
	<path fill="#010101" d="M22.297,34.048C22.661,34.64,23.306,35,24,35c0.694,0,1.339-0.36,1.703-0.952l16-26
		c0.579-0.94,0.286-2.172-0.655-2.751c-0.942-0.579-2.173-0.287-2.751,0.655L24,29.184L9.703,5.952
		C9.125,5.011,7.893,4.717,6.952,5.297c-0.94,0.579-1.234,1.81-0.655,2.751L22.297,34.048z"/>
	<path fill="#010101" d="M46,40H2c-1.105,0-2,0.896-2,2c0,1.105,0.895,2,2,2h44c1.104,0,2-0.895,2-2C48,40.896,47.104,40,46,40z"/>
</g>
</svg>
