<?xml version="1.0" encoding="utf-8"?>
<!-- Generator: Adobe Illustrator 17.0.0, SVG Export Plug-In . SVG Version: 6.00 Build 0)  -->
<!DOCTYPE svg PUBLIC "-//W3C//DTD SVG 1.1//EN" "http://www.w3.org/Graphics/SVG/1.1/DTD/svg11.dtd">
<svg version="1.1" id="Layer_2" xmlns="http://www.w3.org/2000/svg" xmlns:xlink="http://www.w3.org/1999/xlink" x="0px" y="0px"
	 width="48px" height="48px" viewBox="0 0 48 48" enable-background="new 0 0 48 48" xml:space="preserve">
<g>
	<path fill="#010101" d="M22.586,34.414C22.976,34.805,23.488,35,24,35c0.512,0,1.024-0.195,1.414-0.586l16-16
		c0.781-0.781,0.781-2.047,0-2.828c-0.78-0.781-2.048-0.781-2.828,0L24,30.172L9.414,15.586c-0.78-0.781-2.048-0.781-2.828,0
		c-0.781,0.781-0.781,2.047,0,2.828L22.586,34.414z"/>
	<path fill="#010101" d="M46,40H2c-1.105,0-2,0.896-2,2c0,1.105,0.895,2,2,2h44c1.104,0,2-0.895,2-2C48,40.896,47.104,40,46,40z"/>
</g>
</svg>
