<?xml version="1.0" encoding="utf-8"?>
<!-- Generator: Adobe Illustrator 17.0.0, SVG Export Plug-In . SVG Version: 6.00 Build 0)  -->
<!DOCTYPE svg PUBLIC "-//W3C//DTD SVG 1.1//EN" "http://www.w3.org/Graphics/SVG/1.1/DTD/svg11.dtd">
<svg version="1.1" id="Layer_2" xmlns="http://www.w3.org/2000/svg" xmlns:xlink="http://www.w3.org/1999/xlink" x="0px" y="0px"
	 width="48px" height="48px" viewBox="0 0 48 48" enable-background="new 0 0 48 48" xml:space="preserve">
<g>
	<path fill="#010101" d="M36,22h-7.758l-3.12,3.12c-0.276,0.278-0.605,0.497-0.975,0.651C23.78,25.923,23.394,26,23,26
		c-0.396,0-0.784-0.078-1.151-0.231c-0.364-0.15-0.693-0.37-0.974-0.652L17.758,22H10c-2.206,0-4,1.794-4,4v12h34V26
		C40,23.794,38.206,22,36,22z"/>
	<path fill="#010101" d="M10,44h12v2h-5c-0.552,0-1,0.447-1,1c0,0.553,0.448,1,1,1h12c0.552,0,1-0.447,1-1c0-0.553-0.448-1-1-1h-5
		v-2h12c2.206,0,4-1.794,4-4H6C6,42.206,7.794,44,10,44z"/>
	<path fill="#010101" d="M14.293,15.707l1.777,1.777l6.22,6.22c0.094,0.095,0.203,0.167,0.324,0.217
		c0.254,0.106,0.521,0.104,0.766,0.003c0.125-0.052,0.234-0.124,0.325-0.216l6.223-6.223l1.778-1.778
		c0.098-0.098,0.171-0.21,0.22-0.33C31.974,15.259,32,15.133,32,15c0-0.133-0.026-0.259-0.073-0.376
		c-0.049-0.12-0.122-0.233-0.22-0.331c-0.001-0.001-0.003-0.001-0.004-0.003c-0.383-0.378-1.023-0.378-1.406,0
		c-0.001,0.001-0.003,0.001-0.004,0.003l-3.147,3.147L24,20.586V1c0-0.552-0.449-1-1-1c-0.551,0-1,0.448-1,1v19.586l-3.147-3.146
		l-3.146-3.147c-0.098-0.098-0.21-0.171-0.331-0.219C15.259,14.026,15.133,14,15,14c-0.133,0-0.259,0.026-0.377,0.074
		c-0.12,0.049-0.233,0.122-0.33,0.219c-0.098,0.098-0.171,0.21-0.22,0.331C14.026,14.741,14,14.867,14,15
		c0,0.133,0.026,0.259,0.073,0.377C14.122,15.497,14.195,15.609,14.293,15.707z"/>
</g>
</svg>
