<?xml version="1.0" encoding="utf-8"?>
<!-- Generator: Adobe Illustrator 17.0.0, SVG Export Plug-In . SVG Version: 6.00 Build 0)  -->
<!DOCTYPE svg PUBLIC "-//W3C//DTD SVG 1.1//EN" "http://www.w3.org/Graphics/SVG/1.1/DTD/svg11.dtd">
<svg version="1.1" id="Layer_2" xmlns="http://www.w3.org/2000/svg" xmlns:xlink="http://www.w3.org/1999/xlink" x="0px" y="0px"
	 width="48px" height="48px" viewBox="0 0 48 48" enable-background="new 0 0 48 48" xml:space="preserve">
<g>
	<path fill="#010101" d="M47,0c-0.552,0-1,0.447-1,1v1H2V1c0-0.553-0.448-1-1-1S0,0.447,0,1v2v26v18c0,0.553,0.448,1,1,1
		s1-0.447,1-1V30h44v17c0,0.553,0.448,1,1,1c0.552,0,1-0.447,1-1V29V3V1C48,0.447,47.552,0,47,0z M46,12h-4v4h4v4h-4v4h4v4h-4v-4h-4
		v4h-4v-4h-4v4h-4v-4h-4v4h-4v-4h-4v4h-4v-4H6v4H2v-4h4v-4H2v-4h4v-4H2V8h4V4h4v4h4V4h4v4h4V4h4v4h4V4h4v4h4V4h4v4h4V12z"/>
	<rect x="6" y="8" fill="#010101" width="4" height="4"/>
	<rect x="14" y="8" fill="#010101" width="4" height="4"/>
	<rect x="22" y="8" fill="#010101" width="4" height="4"/>
	<rect x="30" y="8" fill="#010101" width="4" height="4"/>
	<rect x="38" y="8" fill="#010101" width="4" height="4"/>
	<rect x="10" y="12" fill="#010101" width="4" height="4"/>
	<rect x="18" y="12" fill="#010101" width="4" height="4"/>
	<rect x="26" y="12" fill="#010101" width="4" height="4"/>
	<rect x="34" y="12" fill="#010101" width="4" height="4"/>
	<rect x="6" y="16" fill="#010101" width="4" height="4"/>
	<rect x="14" y="16" fill="#010101" width="4" height="4"/>
	<rect x="22" y="16" fill="#010101" width="4" height="4"/>
	<rect x="30" y="16" fill="#010101" width="4" height="4"/>
	<rect x="38" y="16" fill="#010101" width="4" height="4"/>
	<rect x="10" y="20" fill="#010101" width="4" height="4"/>
	<rect x="18" y="20" fill="#010101" width="4" height="4"/>
	<rect x="26" y="20" fill="#010101" width="4" height="4"/>
	<rect x="34" y="20" fill="#010101" width="4" height="4"/>
</g>
</svg>
