<?xml version="1.0" encoding="utf-8"?>
<!-- Generator: Adobe Illustrator 17.0.0, SVG Export Plug-In . SVG Version: 6.00 Build 0)  -->
<!DOCTYPE svg PUBLIC "-//W3C//DTD SVG 1.1//EN" "http://www.w3.org/Graphics/SVG/1.1/DTD/svg11.dtd">
<svg version="1.1" id="Layer_2" xmlns="http://www.w3.org/2000/svg" xmlns:xlink="http://www.w3.org/1999/xlink" x="0px" y="0px"
	 width="48px" height="48px" viewBox="0 0 48 48" enable-background="new 0 0 48 48" xml:space="preserve">
<g>
	<path fill="#010101" d="M6.342,25.94C6.737,25.796,7,25.421,7,25v-5c0-0.983,0-2,4-2h19v5c0,0.413,0.254,0.784,0.639,0.933
		c0.385,0.15,0.823,0.047,1.101-0.26l10-11c0.347-0.382,0.347-0.964,0-1.346l-10-11c-0.278-0.306-0.715-0.411-1.101-0.26
		C30.254,0.216,30,0.587,30,1v5H11c-6.217,0-9,5.524-9,11c0,4.729,3.102,8.484,3.233,8.643C5.427,25.873,5.71,26,6,26
		C6.114,26,6.23,25.981,6.342,25.94z"/>
	<path fill="#010101" d="M42.767,22.358c-0.271-0.322-0.713-0.442-1.108-0.298C41.263,22.204,41,22.579,41,23v5c0,0.983,0,2-4,2H18
		v-5c0-0.413-0.254-0.784-0.639-0.933c-0.387-0.151-0.823-0.047-1.101,0.26l-10,11c-0.347,0.382-0.347,0.964,0,1.346l10,11
		C16.454,47.886,16.724,48,17,48c0.121,0,0.243-0.021,0.361-0.067C17.746,47.784,18,47.413,18,47v-5h19c6.217,0,9-5.524,9-11
		C46,26.273,42.898,22.516,42.767,22.358z"/>
</g>
</svg>
