<?xml version="1.0" encoding="utf-8"?>
<!-- Generator: Adobe Illustrator 17.0.0, SVG Export Plug-In . SVG Version: 6.00 Build 0)  -->
<!DOCTYPE svg PUBLIC "-//W3C//DTD SVG 1.1//EN" "http://www.w3.org/Graphics/SVG/1.1/DTD/svg11.dtd">
<svg version="1.1" id="Layer_2" xmlns="http://www.w3.org/2000/svg" xmlns:xlink="http://www.w3.org/1999/xlink" x="0px" y="0px"
	 width="48px" height="48px" viewBox="0 0 48 48" enable-background="new 0 0 48 48" xml:space="preserve">
<path fill="#010101" d="M47,0H1C0.448,0,0,0.447,0,1v46c0,0.553,0.448,1,1,1h46c0.552,0,1-0.447,1-1V1C48,0.447,47.552,0,47,0z
	 M29.849,25.565L17.414,38H23c0.552,0,1,0.447,1,1c0,0.553-0.448,1-1,1h-8c-0.13,0-0.26-0.027-0.382-0.077
	c-0.245-0.101-0.439-0.296-0.541-0.541C14.027,39.26,14,39.13,14,39v-8c0-0.553,0.448-1,1-1s1,0.447,1,1v5.586L28.435,24.15
	c0.391-0.391,1.023-0.391,1.414,0C30.239,24.541,30.239,25.174,29.849,25.565z M33,17c0,0.553-0.448,1-1,1s-1-0.447-1-1v-5.586
	L18.565,23.85c-0.195,0.195-0.451,0.293-0.707,0.293c-0.256,0-0.512-0.098-0.707-0.293c-0.391-0.391-0.391-1.023,0-1.414L29.586,10
	H24c-0.552,0-1-0.447-1-1c0-0.553,0.448-1,1-1h8c0.13,0,0.26,0.027,0.382,0.077c0.245,0.101,0.44,0.296,0.541,0.541
	C32.973,8.74,33,8.87,33,9V17z"/>
</svg>
