<?xml version="1.0" encoding="utf-8"?>
<!-- Generator: Adobe Illustrator 17.0.0, SVG Export Plug-In . SVG Version: 6.00 Build 0)  -->
<!DOCTYPE svg PUBLIC "-//W3C//DTD SVG 1.1//EN" "http://www.w3.org/Graphics/SVG/1.1/DTD/svg11.dtd">
<svg version="1.1" id="Layer_2" xmlns="http://www.w3.org/2000/svg" xmlns:xlink="http://www.w3.org/1999/xlink" x="0px" y="0px"
	 width="48px" height="48px" viewBox="0 0 48 48" enable-background="new 0 0 48 48" xml:space="preserve">
<path fill="#010101" d="M45.707,22.293l-22-22c-0.391-0.391-1.023-0.391-1.414,0l-22,22c-0.391,0.391-0.391,1.023,0,1.414l22,22
	C22.488,45.902,22.744,46,23,46c0.256,0,0.512-0.098,0.707-0.293l22-22C46.098,23.316,46.098,22.684,45.707,22.293z M28.293,26.293
	c0.391-0.391,1.023-0.391,1.414,0c0.391,0.391,0.391,1.023,0,1.414l-5.999,5.999c-0.092,0.093-0.203,0.166-0.326,0.217
	C23.26,33.973,23.13,34,23,34c-0.13,0-0.26-0.027-0.382-0.077c-0.123-0.051-0.233-0.124-0.326-0.217l-5.999-5.999
	c-0.391-0.391-0.391-1.023,0-1.414c0.391-0.391,1.023-0.391,1.414,0L22,30.586V15.414l-4.293,4.293
	c-0.391,0.391-1.023,0.391-1.414,0c-0.391-0.391-0.391-1.023,0-1.414l5.999-5.999c0.092-0.093,0.203-0.166,0.326-0.217
	c0.244-0.101,0.519-0.101,0.764,0c0.123,0.051,0.233,0.124,0.326,0.217l5.999,5.999c0.391,0.391,0.391,1.023,0,1.414
	C29.512,19.902,29.256,20,29,20c-0.256,0-0.512-0.098-0.707-0.293L24,15.414v15.172L28.293,26.293z"/>
</svg>
