<?xml version="1.0" encoding="utf-8"?>
<!-- Generator: Adobe Illustrator 17.0.0, SVG Export Plug-In . SVG Version: 6.00 Build 0)  -->
<!DOCTYPE svg PUBLIC "-//W3C//DTD SVG 1.1//EN" "http://www.w3.org/Graphics/SVG/1.1/DTD/svg11.dtd">
<svg version="1.1" id="Layer_2" xmlns="http://www.w3.org/2000/svg" xmlns:xlink="http://www.w3.org/1999/xlink" x="0px" y="0px"
	 width="48px" height="48px" viewBox="0 0 48 48" enable-background="new 0 0 48 48" xml:space="preserve">
<g>
	<path fill="#010101" d="M24.586,36.586L20,41.172V19c0-1.104-0.896-2-2-2c-1.105,0-2,0.896-2,2v22.172l-4.586-4.586
		c-0.78-0.781-2.048-0.781-2.828,0c-0.781,0.781-0.781,2.047,0,2.828l7.999,7.999c0.093,0.093,0.196,0.177,0.306,0.25
		c0.049,0.033,0.103,0.056,0.155,0.084c0.063,0.034,0.123,0.072,0.19,0.1c0.066,0.027,0.135,0.043,0.203,0.063
		c0.057,0.017,0.112,0.039,0.171,0.051C17.738,47.986,17.869,48,18,48c0.131,0,0.262-0.014,0.392-0.04
		c0.059-0.012,0.114-0.034,0.171-0.051c0.068-0.02,0.137-0.036,0.203-0.063c0.066-0.027,0.127-0.065,0.189-0.1
		c0.052-0.028,0.105-0.051,0.155-0.084c0.11-0.074,0.213-0.157,0.306-0.25l7.999-7.999c0.781-0.781,0.781-2.047,0-2.828
		C26.634,35.805,25.366,35.805,24.586,36.586z"/>
	<path fill="#010101" d="M39.414,8.586l-7.999-7.999c-0.093-0.093-0.196-0.177-0.306-0.25c-0.05-0.034-0.105-0.057-0.158-0.086
		c-0.062-0.034-0.121-0.071-0.186-0.098c-0.067-0.028-0.137-0.044-0.206-0.064c-0.056-0.017-0.11-0.038-0.168-0.05
		c-0.259-0.052-0.525-0.052-0.784,0c-0.058,0.011-0.112,0.033-0.169,0.05c-0.069,0.02-0.138,0.036-0.205,0.064
		c-0.066,0.027-0.125,0.065-0.187,0.099c-0.052,0.029-0.107,0.052-0.157,0.085c-0.11,0.074-0.213,0.157-0.306,0.25l-7.999,7.999
		c-0.781,0.781-0.781,2.047,0,2.828c0.78,0.781,2.048,0.781,2.828,0L28,6.828V29c0,1.105,0.895,2,2,2c1.104,0,2-0.895,2-2V6.828
		l4.586,4.586C36.976,11.805,37.488,12,38,12c0.512,0,1.024-0.195,1.414-0.586C40.195,10.633,40.195,9.367,39.414,8.586z"/>
</g>
</svg>
