<?xml version="1.0" encoding="utf-8"?>
<!-- Generator: Adobe Illustrator 17.0.0, SVG Export Plug-In . SVG Version: 6.00 Build 0)  -->
<!DOCTYPE svg PUBLIC "-//W3C//DTD SVG 1.1//EN" "http://www.w3.org/Graphics/SVG/1.1/DTD/svg11.dtd">
<svg version="1.1" id="Layer_2" xmlns="http://www.w3.org/2000/svg" xmlns:xlink="http://www.w3.org/1999/xlink" x="0px" y="0px"
	 width="48px" height="48px" viewBox="0 0 48 48" enable-background="new 0 0 48 48" xml:space="preserve">
<path fill="#010101" d="M24,0C10.767,0,0,10.767,0,24s10.767,24,24,24s24-10.767,24-24S37.233,0,24,0z M27,32H13.414l4.293,4.293
	c0.391,0.391,0.391,1.023,0,1.414C17.512,37.902,17.256,38,17,38c-0.256,0-0.512-0.098-0.707-0.293l-5.999-5.999
	c-0.093-0.092-0.166-0.203-0.217-0.326c-0.101-0.244-0.101-0.52,0-0.764c0.051-0.123,0.124-0.233,0.217-0.326l5.999-5.999
	c0.391-0.391,1.023-0.391,1.414,0c0.391,0.391,0.391,1.023,0,1.414L13.414,30H27c0.552,0,1,0.447,1,1C28,31.553,27.552,32,27,32z
	 M37.923,17.382c-0.051,0.123-0.124,0.233-0.217,0.326l-5.999,5.999C31.512,23.902,31.256,24,31,24
	c-0.256,0-0.512-0.098-0.707-0.293c-0.391-0.391-0.391-1.023,0-1.414L34.586,18H21c-0.552,0-1-0.447-1-1c0-0.553,0.448-1,1-1h13.586
	l-4.293-4.293c-0.391-0.391-0.391-1.023,0-1.414c0.391-0.391,1.023-0.391,1.414,0l5.999,5.999c0.093,0.092,0.166,0.203,0.217,0.326
	C38.024,16.862,38.024,17.138,37.923,17.382z"/>
</svg>
