<?xml version="1.0" encoding="utf-8"?>
<!-- Generator: Adobe Illustrator 17.0.0, SVG Export Plug-In . SVG Version: 6.00 Build 0)  -->
<!DOCTYPE svg PUBLIC "-//W3C//DTD SVG 1.1//EN" "http://www.w3.org/Graphics/SVG/1.1/DTD/svg11.dtd">
<svg version="1.1" id="Layer_2" xmlns="http://www.w3.org/2000/svg" xmlns:xlink="http://www.w3.org/1999/xlink" x="0px" y="0px"
	 width="48px" height="48px" viewBox="0 0 48 48" enable-background="new 0 0 48 48" xml:space="preserve">
<g>
	<path fill="#010101" d="M6.828,24H29c1.104,0,2-0.895,2-2c0-1.104-0.896-2-2-2H6.828l4.586-4.586c0.781-0.781,0.781-2.047,0-2.828
		c-0.78-0.781-2.048-0.781-2.828,0l-7.999,7.999c-0.094,0.093-0.177,0.196-0.251,0.307c-0.032,0.047-0.053,0.099-0.081,0.148
		c-0.036,0.065-0.075,0.127-0.103,0.196c-0.027,0.065-0.042,0.133-0.062,0.2c-0.017,0.058-0.039,0.113-0.051,0.173
		c-0.051,0.259-0.051,0.525,0,0.783c0.012,0.06,0.034,0.115,0.051,0.173c0.02,0.067,0.035,0.135,0.062,0.2
		c0.028,0.069,0.067,0.131,0.103,0.196c0.027,0.05,0.049,0.101,0.081,0.148c0.074,0.11,0.157,0.213,0.251,0.307l7.999,7.999
		C8.976,31.805,9.488,32,10,32c0.512,0,1.024-0.195,1.414-0.586c0.781-0.781,0.781-2.047,0-2.828L6.828,24z"/>
	<path fill="#010101" d="M47.96,29.608c-0.012-0.06-0.034-0.115-0.051-0.173c-0.02-0.067-0.035-0.135-0.062-0.2
		c-0.028-0.069-0.067-0.131-0.103-0.196c-0.027-0.05-0.049-0.101-0.081-0.148c-0.074-0.11-0.157-0.213-0.251-0.307l-7.999-7.999
		c-0.78-0.781-2.048-0.781-2.828,0c-0.781,0.781-0.781,2.047,0,2.828L41.171,28H19c-1.105,0-2,0.896-2,2c0,1.105,0.895,2,2,2h22.171
		l-4.586,4.586c-0.781,0.781-0.781,2.047,0,2.828C36.976,39.805,37.488,40,38,40c0.512,0,1.024-0.195,1.414-0.586l7.999-7.999
		c0.093-0.093,0.177-0.196,0.251-0.307c0.032-0.047,0.053-0.099,0.081-0.148c0.036-0.065,0.075-0.127,0.103-0.196
		c0.027-0.065,0.042-0.133,0.062-0.2c0.017-0.058,0.04-0.113,0.051-0.173C48.012,30.133,48.012,29.867,47.96,29.608z"/>
</g>
</svg>
