<?xml version="1.0" encoding="utf-8"?>
<!-- Generator: Adobe Illustrator 17.0.0, SVG Export Plug-In . SVG Version: 6.00 Build 0)  -->
<!DOCTYPE svg PUBLIC "-//W3C//DTD SVG 1.1//EN" "http://www.w3.org/Graphics/SVG/1.1/DTD/svg11.dtd">
<svg version="1.1" id="Layer_2" xmlns="http://www.w3.org/2000/svg" xmlns:xlink="http://www.w3.org/1999/xlink" x="0px" y="0px"
	 width="48px" height="48px" viewBox="0 0 48 48" enable-background="new 0 0 48 48" xml:space="preserve">
<g>
	<path fill="#010101" d="M39.96,1.608c-0.012-0.06-0.034-0.115-0.051-0.173c-0.02-0.067-0.035-0.135-0.062-0.2
		c-0.028-0.069-0.067-0.131-0.103-0.196c-0.027-0.05-0.049-0.101-0.081-0.148c-0.146-0.219-0.335-0.408-0.554-0.554
		c-0.05-0.034-0.105-0.057-0.158-0.086c-0.062-0.034-0.121-0.071-0.186-0.098c-0.067-0.028-0.137-0.044-0.206-0.064
		c-0.056-0.017-0.11-0.038-0.168-0.05C38.263,0.014,38.131,0,38,0H26c-1.105,0-2,0.896-2,2c0,1.105,0.895,2,2,2h7.172L18.586,18.586
		c-0.781,0.781-0.781,2.047,0,2.828C18.976,21.805,19.488,22,20,22c0.512,0,1.024-0.195,1.414-0.586L36,6.828V14
		c0,1.105,0.895,2,2,2c1.104,0,2-0.895,2-2V2C40,1.869,39.986,1.738,39.96,1.608z"/>
	<path fill="#010101" d="M27.586,25.586L12,41.172V34c0-1.104-0.896-2-2-2c-1.105,0-2,0.896-2,2v12c0,0.131,0.014,0.262,0.039,0.392
		c0.012,0.06,0.034,0.116,0.051,0.173c0.02,0.067,0.035,0.135,0.062,0.2c0.029,0.069,0.067,0.131,0.103,0.196
		c0.027,0.05,0.049,0.101,0.081,0.148c0.147,0.22,0.335,0.408,0.554,0.555c0.049,0.033,0.103,0.056,0.155,0.084
		c0.063,0.034,0.123,0.072,0.19,0.1c0.066,0.027,0.135,0.043,0.203,0.063c0.057,0.017,0.112,0.039,0.171,0.051
		C9.738,47.986,9.869,48,10,48h12c1.104,0,2-0.895,2-2c0-1.104-0.896-2-2-2h-7.172l15.586-15.586c0.781-0.781,0.781-2.047,0-2.828
		C29.634,24.805,28.366,24.805,27.586,25.586z"/>
</g>
</svg>
