<?xml version="1.0" encoding="utf-8"?>
<!-- Generator: Adobe Illustrator 17.0.0, SVG Export Plug-In . SVG Version: 6.00 Build 0)  -->
<!DOCTYPE svg PUBLIC "-//W3C//DTD SVG 1.1//EN" "http://www.w3.org/Graphics/SVG/1.1/DTD/svg11.dtd">
<svg version="1.1" id="Layer_2" xmlns="http://www.w3.org/2000/svg" xmlns:xlink="http://www.w3.org/1999/xlink" x="0px" y="0px"
	 width="48px" height="48px" viewBox="0 0 48 48" enable-background="new 0 0 48 48" xml:space="preserve">
<path fill="#010101" d="M47,0H1C0.448,0,0,0.447,0,1v46c0,0.553,0.448,1,1,1h46c0.552,0,1-0.447,1-1V1C48,0.447,47.552,0,47,0z
	 M27,30H9.414l4.293,4.293c0.391,0.391,0.391,1.023,0,1.414C13.512,35.902,13.256,36,13,36c-0.256,0-0.512-0.098-0.707-0.293
	l-5.999-5.999c-0.093-0.092-0.166-0.203-0.217-0.326c-0.101-0.244-0.101-0.52,0-0.764c0.051-0.123,0.124-0.233,0.217-0.326
	l5.999-5.999c0.391-0.391,1.023-0.391,1.414,0c0.391,0.391,0.391,1.023,0,1.414L9.414,28H27c0.552,0,1,0.447,1,1
	C28,29.553,27.552,30,27,30z M41.923,21.382c-0.051,0.123-0.124,0.233-0.217,0.326l-5.999,5.999C35.512,27.902,35.256,28,35,28
	c-0.256,0-0.512-0.098-0.707-0.293c-0.391-0.391-0.391-1.023,0-1.414L38.586,22H21c-0.552,0-1-0.447-1-1c0-0.553,0.448-1,1-1h17.586
	l-4.293-4.293c-0.391-0.391-0.391-1.023,0-1.414c0.391-0.391,1.023-0.391,1.414,0l5.999,5.999c0.093,0.092,0.166,0.203,0.217,0.326
	C42.024,20.862,42.024,21.138,41.923,21.382z"/>
</svg>
