<?xml version="1.0" encoding="utf-8"?>
<!-- Generator: Adobe Illustrator 17.0.0, SVG Export Plug-In . SVG Version: 6.00 Build 0)  -->
<!DOCTYPE svg PUBLIC "-//W3C//DTD SVG 1.1//EN" "http://www.w3.org/Graphics/SVG/1.1/DTD/svg11.dtd">
<svg version="1.1" id="Layer_2" xmlns="http://www.w3.org/2000/svg" xmlns:xlink="http://www.w3.org/1999/xlink" x="0px" y="0px"
	 width="48px" height="48px" viewBox="0 0 48 48" enable-background="new 0 0 48 48" xml:space="preserve">
<path fill="#010101" d="M47,0H1C0.448,0,0,0.447,0,1v46c0,0.553,0.448,1,1,1h46c0.552,0,1-0.447,1-1V1C48,0.447,47.552,0,47,0z
	 M20,27c0,0.553-0.448,1-1,1c-0.552,0-1-0.447-1-1V9.414l-4.293,4.293c-0.391,0.391-1.023,0.391-1.414,0
	c-0.391-0.391-0.391-1.023,0-1.414l5.999-5.999c0.092-0.092,0.203-0.166,0.326-0.217c0.244-0.101,0.519-0.101,0.764,0
	c0.123,0.051,0.233,0.124,0.326,0.217l5.999,5.999c0.391,0.391,0.391,1.023,0,1.414C25.512,13.902,25.256,14,25,14
	c-0.256,0-0.512-0.098-0.707-0.293L20,9.414V27z M35.707,35.707l-5.999,5.999c-0.092,0.092-0.203,0.166-0.326,0.217
	C29.26,41.973,29.13,42,29,42c-0.13,0-0.26-0.027-0.382-0.077c-0.123-0.051-0.233-0.124-0.326-0.217l-5.999-5.999
	c-0.391-0.391-0.391-1.023,0-1.414c0.391-0.391,1.023-0.391,1.414,0L28,38.586V21c0-0.553,0.448-1,1-1c0.552,0,1,0.447,1,1v17.586
	l4.293-4.293c0.391-0.391,1.023-0.391,1.414,0C36.098,34.684,36.098,35.316,35.707,35.707z"/>
</svg>
