<?xml version="1.0" encoding="utf-8"?>
<!-- Generator: Adobe Illustrator 17.0.0, SVG Export Plug-In . SVG Version: 6.00 Build 0)  -->
<!DOCTYPE svg PUBLIC "-//W3C//DTD SVG 1.1//EN" "http://www.w3.org/Graphics/SVG/1.1/DTD/svg11.dtd">
<svg version="1.1" id="Layer_2" xmlns="http://www.w3.org/2000/svg" xmlns:xlink="http://www.w3.org/1999/xlink" x="0px" y="0px"
	 width="48px" height="48px" viewBox="0 0 48 48" enable-background="new 0 0 48 48" xml:space="preserve">
<g>
	<path fill="#010101" d="M36,22H26v2.999c0,1.654-1.346,3-3,3s-3-1.346-3-3V22H10c-2.206,0-4,1.794-4,4v12h34V26
		C40,23.794,38.206,22,36,22z"/>
	<path fill="#010101" d="M10,44h12v2h-5c-0.552,0-1,0.447-1,1c0,0.553,0.448,1,1,1h12c0.552,0,1-0.447,1-1c0-0.553-0.448-1-1-1h-5
		v-2h12c2.206,0,4-1.794,4-4H6C6,42.206,7.794,44,10,44z"/>
	<path fill="#010101" d="M14.293,9.706c0.012,0.012,0.029,0.016,0.042,0.028c0.374,0.335,0.955,0.335,1.329,0
		c0.013-0.012,0.03-0.016,0.043-0.028L22,3.413v0v21.586v0c0,0.052,0.022,0.097,0.03,0.147c0.053,0.347,0.268,0.641,0.581,0.774
		c0.12,0.051,0.251,0.079,0.389,0.079s0.269-0.028,0.389-0.079c0.313-0.133,0.528-0.427,0.581-0.774
		c0.008-0.05,0.03-0.095,0.03-0.147v0V3.413v0l6.293,6.293c0.012,0.012,0.029,0.016,0.042,0.028c0.374,0.335,0.955,0.335,1.329,0
		c0.013-0.012,0.03-0.016,0.043-0.028c0.097-0.097,0.169-0.208,0.217-0.327c0.049-0.119,0.075-0.247,0.075-0.379
		c0-0.133-0.026-0.261-0.075-0.38c-0.044-0.108-0.113-0.206-0.197-0.296c-0.008-0.009-0.012-0.022-0.02-0.03l-2.463-2.463
		l-5.537-5.537c-0.091-0.092-0.201-0.164-0.323-0.214c-0.107-0.045-0.218-0.06-0.328-0.067c-0.096-0.006-0.189,0.011-0.283,0.033
		c-0.052,0.012-0.106,0.011-0.157,0.031c-0.125,0.052-0.232,0.123-0.329,0.22l-1.601,1.601l-6.395,6.395
		c-0.009,0.009-0.012,0.021-0.02,0.03c-0.083,0.09-0.153,0.189-0.197,0.296c-0.049,0.119-0.075,0.247-0.075,0.38
		c0,0.133,0.026,0.261,0.075,0.379C14.124,9.497,14.196,9.609,14.293,9.706z"/>
</g>
</svg>
