<?xml version="1.0" encoding="utf-8"?>
<!-- Generator: Adobe Illustrator 17.0.0, SVG Export Plug-In . SVG Version: 6.00 Build 0)  -->
<!DOCTYPE svg PUBLIC "-//W3C//DTD SVG 1.1//EN" "http://www.w3.org/Graphics/SVG/1.1/DTD/svg11.dtd">
<svg version="1.1" id="Layer_2" xmlns="http://www.w3.org/2000/svg" xmlns:xlink="http://www.w3.org/1999/xlink" x="0px" y="0px"
	 width="48px" height="48px" viewBox="0 0 48 48" enable-background="new 0 0 48 48" xml:space="preserve">
<g>
	<path fill="#010101" d="M47.923,32.618c-0.051-0.123-0.124-0.233-0.217-0.326l-7.999-7.999C39.519,24.106,39.265,24,39,24h-5
		c-0.552,0-1,0.447-1,1c0,0.553,0.448,1,1,1h4.586l6,6H33c-0.552,0-1,0.447-1,1v3H16v-3c0-0.553-0.448-1-1-1H3.414l6-6H16
		c0.552,0,1-0.447,1-1c0-0.553-0.448-1-1-1H9c-0.265,0-0.52,0.106-0.707,0.293l-7.999,7.999c-0.093,0.092-0.166,0.203-0.217,0.326
		C0.027,32.74,0,32.87,0,33v14c0,0.553,0.448,1,1,1h46c0.552,0,1-0.447,1-1V33C48,32.87,47.973,32.74,47.923,32.618z"/>
	<path fill="#010101" d="M15.707,11.707L24,3.414V26c0,0.553,0.448,1,1,1c0.552,0,1-0.447,1-1V3.414l8.293,8.293
		C34.488,11.902,34.744,12,35,12c0.256,0,0.512-0.098,0.707-0.293c0.391-0.391,0.391-1.023,0-1.414l-9.999-9.999
		c-0.092-0.093-0.203-0.166-0.326-0.217c-0.244-0.101-0.52-0.101-0.764,0c-0.123,0.051-0.234,0.124-0.326,0.217l-9.999,9.999
		c-0.391,0.391-0.391,1.023,0,1.414C14.684,12.098,15.316,12.098,15.707,11.707z"/>
</g>
</svg>
