<?xml version="1.0" encoding="utf-8"?>
<!-- Generator: Adobe Illustrator 17.0.0, SVG Export Plug-In . SVG Version: 6.00 Build 0)  -->
<!DOCTYPE svg PUBLIC "-//W3C//DTD SVG 1.1//EN" "http://www.w3.org/Graphics/SVG/1.1/DTD/svg11.dtd">
<svg version="1.1" id="Layer_2" xmlns="http://www.w3.org/2000/svg" xmlns:xlink="http://www.w3.org/1999/xlink" x="0px" y="0px"
	 width="48px" height="48px" viewBox="0 0 48 48" enable-background="new 0 0 48 48" xml:space="preserve">
<g>
	<path fill="#010101" d="M23.415,20.587c-0.093-0.093-0.196-0.177-0.306-0.25c-0.05-0.034-0.105-0.057-0.158-0.086
		c-0.062-0.034-0.121-0.071-0.186-0.098c-0.067-0.028-0.137-0.044-0.206-0.064c-0.056-0.017-0.11-0.038-0.168-0.05
		c-0.259-0.052-0.525-0.052-0.784,0c-0.058,0.011-0.112,0.033-0.168,0.05c-0.069,0.02-0.138,0.036-0.205,0.064
		c-0.066,0.027-0.125,0.065-0.187,0.099c-0.052,0.028-0.107,0.051-0.157,0.085c-0.11,0.073-0.213,0.157-0.306,0.25L9.586,31.586
		c-0.781,0.781-0.781,2.047,0,2.828c0.78,0.781,2.048,0.781,2.828,0L20,26.828V46c0,1.105,0.895,2,2,2c1.104,0,2-0.895,2-2V26.828
		l7.586,7.586C31.976,34.805,32.488,35,33,35c0.512,0,1.024-0.195,1.414-0.586c0.781-0.781,0.781-2.047,0-2.828L23.415,20.587z"/>
	<path fill="#010101" d="M9,4h26c1.104,0,2-0.895,2-2c0-1.104-0.896-2-2-2H9C7.895,0,7,0.896,7,2C7,3.105,7.895,4,9,4z"/>
	<path fill="#010101" d="M35,6H9C7.895,6,7,6.896,7,8c0,1.105,0.895,2,2,2h26c1.104,0,2-0.895,2-2C37,6.896,36.104,6,35,6z"/>
	<path fill="#010101" d="M35,12H9c-1.105,0-2,0.896-2,2c0,1.105,0.895,2,2,2h26c1.104,0,2-0.895,2-2C37,12.896,36.104,12,35,12z"/>
</g>
</svg>
