<?xml version="1.0" encoding="utf-8"?>
<!-- Generator: Adobe Illustrator 17.0.0, SVG Export Plug-In . SVG Version: 6.00 Build 0)  -->
<!DOCTYPE svg PUBLIC "-//W3C//DTD SVG 1.1//EN" "http://www.w3.org/Graphics/SVG/1.1/DTD/svg11.dtd">
<svg version="1.1" id="Layer_2" xmlns="http://www.w3.org/2000/svg" xmlns:xlink="http://www.w3.org/1999/xlink" x="0px" y="0px"
	 width="48px" height="48px" viewBox="0 0 48 48" enable-background="new 0 0 48 48" xml:space="preserve">
<g>
	<path fill="#010101" d="M26,37V15.828l7.586,7.586C33.976,23.805,34.488,24,35,24c0.512,0,1.024-0.195,1.414-0.586
		c0.781-0.781,0.781-2.047,0-2.828L25.415,9.587c-0.093-0.093-0.196-0.177-0.306-0.25c-0.05-0.034-0.105-0.057-0.158-0.086
		c-0.062-0.034-0.121-0.071-0.186-0.098c-0.067-0.028-0.137-0.044-0.206-0.064c-0.056-0.017-0.11-0.038-0.168-0.05
		c-0.259-0.052-0.525-0.052-0.784,0c-0.058,0.011-0.112,0.033-0.169,0.05c-0.069,0.02-0.138,0.036-0.205,0.064
		c-0.066,0.027-0.125,0.065-0.187,0.099c-0.052,0.028-0.107,0.051-0.157,0.085c-0.11,0.074-0.213,0.157-0.306,0.25L11.586,20.586
		c-0.781,0.781-0.781,2.047,0,2.828c0.78,0.781,2.048,0.781,2.828,0L22,15.828V37c0,1.105,0.895,2,2,2C25.104,39,26,38.105,26,37z"
		/>
	<path fill="#010101" d="M5,0H0v5c0,1.105,0.895,2,2,2c1.104,0,2-0.895,2-2V4h1c1.104,0,2-0.895,2-2C7,0.896,6.104,0,5,0z"/>
	<path fill="#010101" d="M43,0c-1.105,0-2,0.896-2,2c0,1.105,0.895,2,2,2h1v1c0,1.105,0.895,2,2,2c1.104,0,2-0.895,2-2V0H43z"/>
	<path fill="#010101" d="M11.087,4H13c1.104,0,2-0.895,2-2c0-1.104-0.896-2-2-2h-1.913c-1.104,0-2,0.896-2,2
		C9.087,3.105,9.982,4,11.087,4z"/>
	<path fill="#010101" d="M19,4h1.913c1.104,0,2-0.895,2-2c0-1.104-0.896-2-2-2H19c-1.105,0-2,0.896-2,2C17,3.105,17.895,4,19,4z"/>
	<path fill="#010101" d="M27,4h1.913c1.104,0,2-0.895,2-2c0-1.104-0.896-2-2-2H27c-1.105,0-2,0.896-2,2C25,3.105,25.895,4,27,4z"/>
	<path fill="#010101" d="M37,0h-1.913c-1.105,0-2,0.896-2,2c0,1.105,0.895,2,2,2H37c1.104,0,2-0.895,2-2C39,0.896,38.104,0,37,0z"/>
	<path fill="#010101" d="M5,44H4v-1c0-1.104-0.896-2-2-2c-1.105,0-2,0.896-2,2v5h5c1.104,0,2-0.895,2-2C7,44.896,6.104,44,5,44z"/>
	<path fill="#010101" d="M46,41c-1.105,0-2,0.896-2,2v1h-1c-1.105,0-2,0.896-2,2c0,1.105,0.895,2,2,2h5v-5
		C48,41.896,47.104,41,46,41z"/>
	<path fill="#010101" d="M13,44h-1.913c-1.104,0-2,0.896-2,2c0,1.105,0.896,2,2,2H13c1.104,0,2-0.895,2-2C15,44.896,14.104,44,13,44
		z"/>
	<path fill="#010101" d="M20.913,44H19c-1.105,0-2,0.896-2,2c0,1.105,0.895,2,2,2h1.913c1.104,0,2-0.895,2-2
		C22.913,44.896,22.018,44,20.913,44z"/>
	<path fill="#010101" d="M28.913,44H27c-1.105,0-2,0.896-2,2c0,1.105,0.895,2,2,2h1.913c1.104,0,2-0.895,2-2
		C30.913,44.896,30.018,44,28.913,44z"/>
	<path fill="#010101" d="M37,44h-1.913c-1.105,0-2,0.896-2,2c0,1.105,0.895,2,2,2H37c1.104,0,2-0.895,2-2C39,44.896,38.104,44,37,44
		z"/>
	<path fill="#010101" d="M46,9.087c-1.105,0-2,0.896-2,2V13c0,1.105,0.895,2,2,2c1.104,0,2-0.895,2-2v-1.913
		C48,9.982,47.104,9.087,46,9.087z"/>
	<path fill="#010101" d="M46,17c-1.105,0-2,0.896-2,2v1.913c0,1.104,0.895,2,2,2c1.104,0,2-0.896,2-2V19C48,17.896,47.104,17,46,17z
		"/>
	<path fill="#010101" d="M46,25c-1.105,0-2,0.896-2,2v1.913c0,1.104,0.895,2,2,2c1.104,0,2-0.896,2-2V27C48,25.896,47.104,25,46,25z
		"/>
	<path fill="#010101" d="M46,33.087c-1.105,0-2,0.896-2,2V37c0,1.105,0.895,2,2,2c1.104,0,2-0.895,2-2v-1.913
		C48,33.982,47.104,33.087,46,33.087z"/>
	<path fill="#010101" d="M2,15c1.104,0,2-0.895,2-2v-1.913c0-1.104-0.896-2-2-2c-1.105,0-2,0.896-2,2V13C0,14.105,0.895,15,2,15z"/>
	<path fill="#010101" d="M2,22.913c1.104,0,2-0.896,2-2V19c0-1.104-0.896-2-2-2c-1.105,0-2,0.896-2,2v1.913
		C0,22.018,0.895,22.913,2,22.913z"/>
	<path fill="#010101" d="M2,30.913c1.104,0,2-0.896,2-2V27c0-1.104-0.896-2-2-2c-1.105,0-2,0.896-2,2v1.913
		C0,30.018,0.895,30.913,2,30.913z"/>
	<path fill="#010101" d="M2,39c1.104,0,2-0.895,2-2v-1.913c0-1.104-0.896-2-2-2c-1.105,0-2,0.896-2,2V37C0,38.105,0.895,39,2,39z"/>
</g>
</svg>
