<?xml version="1.0" encoding="utf-8"?>
<!-- Generator: Adobe Illustrator 17.0.0, SVG Export Plug-In . SVG Version: 6.00 Build 0)  -->
<!DOCTYPE svg PUBLIC "-//W3C//DTD SVG 1.1//EN" "http://www.w3.org/Graphics/SVG/1.1/DTD/svg11.dtd">
<svg version="1.1" id="Layer_2" xmlns="http://www.w3.org/2000/svg" xmlns:xlink="http://www.w3.org/1999/xlink" x="0px" y="0px"
	 width="48px" height="48px" viewBox="0 0 48 48" enable-background="new 0 0 48 48" xml:space="preserve">
<path fill="#010101" d="M47,0H1C0.448,0,0,0.447,0,1v46c0,0.553,0.448,1,1,1h46c0.552,0,1-0.447,1-1V1C48,0.447,47.552,0,47,0z
	 M20,43c0,0.553-0.448,1-1,1c-0.552,0-1-0.447-1-1v-4c0-0.553,0.448-1,1-1c0.552,0,1,0.447,1,1V43z M20,35c0,0.553-0.448,1-1,1
	c-0.552,0-1-0.447-1-1v-4c0-0.553,0.448-1,1-1c0.552,0,1,0.447,1,1V35z M30,43c0,0.553-0.448,1-1,1c-0.552,0-1-0.447-1-1v-4
	c0-0.553,0.448-1,1-1c0.552,0,1,0.447,1,1V43z M30,35c0,0.553-0.448,1-1,1c-0.552,0-1-0.447-1-1v-4c0-0.553,0.448-1,1-1
	c0.552,0,1,0.447,1,1V35z M36.924,21.383C36.769,21.757,36.404,22,36,22h-6v5c0,0.553-0.448,1-1,1c-0.552,0-1-0.447-1-1v-6
	c0-0.553,0.448-1,1-1h4.586L24,10.414L14.414,20H19c0.552,0,1,0.447,1,1v6c0,0.553-0.448,1-1,1c-0.552,0-1-0.447-1-1v-5h-6
	c-0.404,0-0.769-0.243-0.924-0.617c-0.155-0.374-0.069-0.804,0.217-1.09l12-12c0.391-0.391,1.023-0.391,1.414,0l12,12
	C36.993,20.579,37.079,21.009,36.924,21.383z"/>
</svg>
