<?xml version="1.0" encoding="utf-8"?>
<!-- Generator: Adobe Illustrator 17.1.0, SVG Export Plug-In . SVG Version: 6.00 Build 0)  -->
<!DOCTYPE svg PUBLIC "-//W3C//DTD SVG 1.0//EN" "http://www.w3.org/TR/2001/REC-SVG-20010904/DTD/svg10.dtd">
<svg version="1.0" id="Layer_1" xmlns="http://www.w3.org/2000/svg" xmlns:xlink="http://www.w3.org/1999/xlink" x="0px" y="0px"
	 width="48px" height="48px" viewBox="0 0 48 48" enable-background="new 0 0 48 48" xml:space="preserve">
<g>
	<path d="M47.991,34.954c-0.005-0.111-0.024-0.219-0.065-0.323c-0.003-0.008-0.004-0.017-0.007-0.025
		c-0.038-0.088-0.088-0.171-0.151-0.247l-10-12c-0.19-0.228-0.471-0.359-0.768-0.359h-2c-0.552,0-1,0.447-1,1s0.448,1,1,1h1.532
		l8.333,10H3.135l8.333-10H14c0.552,0,1-0.447,1-1s-0.448-1-1-1h-3c-0.297,0-0.578,0.132-0.768,0.359l-10,12
		c-0.063,0.076-0.113,0.159-0.151,0.247c-0.003,0.008-0.004,0.018-0.007,0.026c-0.041,0.104-0.06,0.212-0.065,0.322
		C0.008,34.97,0,34.983,0,34.999v8c0,2.757,2.243,5,5,5h38c2.757,0,5-2.243,5-5v-8C48,34.983,47.992,34.97,47.991,34.954z
		 M40,41.999h-8c-0.552,0-1-0.447-1-1s0.448-1,1-1h8c0.552,0,1,0.447,1,1S40.552,41.999,40,41.999z"/>
	<path d="M17.707,9.706L24,3.413v21.586c0,0.553,0.448,1,1,1s1-0.447,1-1V3.413l6.293,6.293C32.488,9.902,32.744,9.999,33,9.999
		s0.512-0.098,0.707-0.293c0.391-0.391,0.391-1.023,0-1.414l-7.999-7.999c-0.092-0.093-0.203-0.166-0.326-0.217
		c-0.244-0.101-0.519-0.101-0.764,0c-0.123,0.051-0.234,0.124-0.326,0.217l-7.999,7.999c-0.391,0.391-0.391,1.023,0,1.414
		C16.684,10.097,17.316,10.097,17.707,9.706z"/>
</g>
</svg>
