<?xml version="1.0" encoding="utf-8"?>
<!-- Generator: Adobe Illustrator 17.0.0, SVG Export Plug-In . SVG Version: 6.00 Build 0)  -->
<!DOCTYPE svg PUBLIC "-//W3C//DTD SVG 1.1//EN" "http://www.w3.org/Graphics/SVG/1.1/DTD/svg11.dtd">
<svg version="1.1" id="Layer_2" xmlns="http://www.w3.org/2000/svg" xmlns:xlink="http://www.w3.org/1999/xlink" x="0px" y="0px"
	 width="48px" height="48px" viewBox="0 0 48 48" enable-background="new 0 0 48 48" xml:space="preserve">
<g>
	<path fill="#010101" d="M43,30H5c-2.757,0-5,2.243-5,5v8c0,2.757,2.243,5,5,5h38c2.757,0,5-2.243,5-5v-8C48,32.243,45.757,30,43,30
		z M37,36c0.551,0,1,0.447,1,1c0,0.553-0.449,1-1,1c-0.555,0-1-0.447-1-1C36,36.447,36.445,36,37,36z M41,42H7c-0.552,0-1-0.447-1-1
		c0-0.553,0.448-1,1-1h34c0.552,0,1,0.447,1,1C42,41.553,41.552,42,41,42z M41,38c-0.555,0-1-0.447-1-1c0-0.553,0.445-1,1-1
		c0.551,0,1,0.447,1,1C42,37.553,41.551,38,41,38z"/>
	<path fill="#010101" d="M12.707,12.707L22,3.414V25c0,0.553,0.448,1,1,1c0.552,0,1-0.447,1-1V3.414l9.293,9.293
		C33.488,12.902,33.744,13,34,13c0.256,0,0.512-0.098,0.707-0.293c0.391-0.391,0.391-1.023,0-1.414L23.708,0.294
		c-0.092-0.093-0.203-0.166-0.326-0.217c-0.244-0.101-0.52-0.101-0.764,0c-0.123,0.051-0.233,0.124-0.326,0.217L11.293,11.293
		c-0.391,0.391-0.391,1.023,0,1.414C11.684,13.098,12.316,13.098,12.707,12.707z"/>
</g>
</svg>
