<?xml version="1.0" encoding="utf-8"?>
<!-- Generator: Adobe Illustrator 17.1.0, SVG Export Plug-In . SVG Version: 6.00 Build 0)  -->
<!DOCTYPE svg PUBLIC "-//W3C//DTD SVG 1.0//EN" "http://www.w3.org/TR/2001/REC-SVG-20010904/DTD/svg10.dtd">
<svg version="1.0" id="Layer_1" xmlns="http://www.w3.org/2000/svg" xmlns:xlink="http://www.w3.org/1999/xlink" x="0px" y="0px"
	 width="48px" height="48px" viewBox="0 0 48 48" enable-background="new 0 0 48 48" xml:space="preserve">
<g>
	<path d="M36,22c0.512,0,1.024-0.195,1.414-0.586c0.781-0.781,0.781-2.047,0-2.828L26.415,7.587
		c-0.093-0.093-0.196-0.177-0.306-0.25c-0.05-0.034-0.105-0.057-0.158-0.086c-0.062-0.034-0.121-0.071-0.186-0.098
		c-0.067-0.028-0.137-0.044-0.206-0.064c-0.056-0.017-0.11-0.038-0.168-0.05c-0.259-0.052-0.525-0.052-0.784,0
		c-0.058,0.011-0.112,0.033-0.168,0.05c-0.069,0.02-0.138,0.036-0.205,0.064c-0.066,0.027-0.125,0.065-0.187,0.099
		c-0.052,0.029-0.107,0.051-0.157,0.085c-0.11,0.073-0.213,0.157-0.306,0.25L12.586,18.586c-0.781,0.781-0.781,2.047,0,2.828
		c0.78,0.781,2.048,0.781,2.828,0L23,13.828V39c0,1.104,0.895,2,2,2c1.104,0,2-0.896,2-2V13.828l7.586,7.586
		C34.976,21.805,35.488,22,36,22z"/>
	<path d="M46,0H34c-1.105,0-2,0.896-2,2s0.895,2,2,2h10v40H34c-1.105,0-2,0.896-2,2s0.895,2,2,2h12c1.104,0,2-0.896,2-2V2
		C48,0.896,47.104,0,46,0z"/>
	<path d="M14,44H4V4h10c1.104,0,2-0.895,2-2s-0.896-2-2-2H2C0.895,0,0,0.896,0,2v44c0,1.104,0.895,2,2,2h12c1.104,0,2-0.896,2-2
		S15.104,44,14,44z"/>
</g>
</svg>
