<?xml version="1.0" encoding="utf-8"?>
<!-- Generator: Adobe Illustrator 17.0.0, SVG Export Plug-In . SVG Version: 6.00 Build 0)  -->
<!DOCTYPE svg PUBLIC "-//W3C//DTD SVG 1.1//EN" "http://www.w3.org/Graphics/SVG/1.1/DTD/svg11.dtd">
<svg version="1.1" id="Layer_2" xmlns="http://www.w3.org/2000/svg" xmlns:xlink="http://www.w3.org/1999/xlink" x="0px" y="0px"
	 width="48px" height="48px" viewBox="0 0 48 48" enable-background="new 0 0 48 48" xml:space="preserve">
<g>
	<path fill="#010101" d="M40.361,13.534l-14-13c-0.767-0.713-1.954-0.713-2.722,0l-14,13c-0.603,0.56-0.801,1.432-0.501,2.197
		C9.439,16.496,10.178,17,11,17h7v4c0,1.105,0.895,2,2,2c1.104,0,2-0.895,2-2v-6c0-1.104-0.896-2-2-2h-3.907L25,4.73L33.907,13H30
		c-1.105,0-2,0.896-2,2v6c0,1.105,0.895,2,2,2c1.104,0,2-0.895,2-2v-4h7c0.822,0,1.561-0.504,1.862-1.269
		C41.162,14.966,40.963,14.094,40.361,13.534z"/>
	<path fill="#010101" d="M20,25c-1.105,0-2,0.896-2,2v4c0,1.105,0.895,2,2,2c1.104,0,2-0.895,2-2v-4C22,25.896,21.104,25,20,25z"/>
	<path fill="#010101" d="M30,25c-1.105,0-2,0.896-2,2v4c0,1.105,0.895,2,2,2c1.104,0,2-0.895,2-2v-4C32,25.896,31.104,25,30,25z"/>
	<path fill="#010101" d="M20,35c-1.105,0-2,0.896-2,2v2c0,1.105,0.895,2,2,2c1.104,0,2-0.895,2-2v-2C22,35.896,21.104,35,20,35z"/>
	<path fill="#010101" d="M30,35c-1.105,0-2,0.896-2,2v2c0,1.105,0.895,2,2,2c1.104,0,2-0.895,2-2v-2C32,35.896,31.104,35,30,35z"/>
	<path fill="#010101" d="M20,43c-1.105,0-2,0.896-2,2v1c0,1.105,0.895,2,2,2c1.104,0,2-0.895,2-2v-1C22,43.896,21.104,43,20,43z"/>
	<path fill="#010101" d="M30,43c-1.105,0-2,0.896-2,2v1c0,1.105,0.895,2,2,2c1.104,0,2-0.895,2-2v-1C32,43.896,31.104,43,30,43z"/>
</g>
</svg>
