<?xml version="1.0" encoding="UTF-8" standalone="no"?>
<svg width="18px" height="18px" viewBox="0 0 18 18" version="1.1" xmlns="http://www.w3.org/2000/svg" xmlns:xlink="http://www.w3.org/1999/xlink">
    <g stroke="none" stroke-width="1" fill-rule="evenodd">
        <g transform="translate(2.000000, 0.000000)">
            <path d="M11.6526316,13.7557895 L11.6526316,11.8610526 L9.75789474,11.8610526 L9.75789474,13.7557895 L7.86315789,13.7557895 L7.86315789,15.6505263 L9.75789474,15.6505263 L9.75789474,17.5452632 L11.6526316,17.5452632 L11.6526316,15.6505263 L13.5473684,15.6505263 L13.5473684,13.7557895 L11.6526316,13.7557895"></path>
            <path d="M8.97347368,6.17684211 L9.75789474,6.96126316 L9.75789474,9.91136842 L11.6526316,9.91136842 L11.6526316,6.17684211 L5.96842105,0.492631579 L2.17894737,0.492631579 C1.13684211,0.492631579 0.284210526,1.34526316 0.284210526,2.38736842 L0.284210526,13.7557895 C0.284210526,14.7978947 1.13684211,15.6505263 2.17894737,15.6505263 L5.69747368,15.6505263 L5.69747368,13.7557895 L2.17894737,13.7557895 L2.17894737,2.38736842 L5.184,2.38736842 L5.96842105,3.17178947 L5.96842105,6.17684211 L8.97347368,6.17684211"></path>
        </g>
    </g>
</svg>
