<?xml version="1.0" encoding="UTF-8" standalone="no"?>
<svg width="13px" height="13px" viewBox="0 0 13 13" version="1.1" xmlns="http://www.w3.org/2000/svg" xmlns:xlink="http://www.w3.org/1999/xlink">
    <g stroke="none" stroke-width="1" fill-rule="evenodd">
          <path d="M3.41750157,2 C2.37277434,2 1.52659255,2.895 1.52659255,4 L1.52659255,10 C1.52659255,11.105 2.37277434,12 3.41750157,12 L9.56363609,12 C10.6083633,12 11.4545451,11.105 11.4545451,10 L11.4545451,4 C11.4545451,2.895 10.6083633,2 9.56363609,2 L3.41750157,2 Z M10.5090906,10 C10.5090906,10.551 10.0845815,11 9.56363609,11 L3.4259984,11 C2.90505296,11 2.48054388,10.551 2.48054388,10 L2.48054388,4 C2.48054388,3.449 2.90505296,3 3.4259984,3 L9.56363609,3 C10.0845815,3 10.5090906,3.449 10.5090906,4 L10.5090906,6.058 L10.5090906,10 Z"></path>
    </g>
</svg>
