<?xml version="1.0" encoding="UTF-8" standalone="no"?>
<svg width="17px" height="17px" viewBox="0 0 17 17" version="1.1" xmlns="http://www.w3.org/2000/svg" xmlns:xlink="http://www.w3.org/1999/xlink">
    <g stroke="none" stroke-width="1" fill-rule="evenodd">
        <g id="bullet-arrow-down" transform="translate(8.500000, 8.500000) scale(1, -1) translate(-8.500000, -8.500000) translate(1.000000, 1.000000)" fill="#000000">
            <path d="M14,7.5 C14,11.0897752 11.0894401,14 7.5,14 C3.90980906,14 1,11.0901909 1,7.5 C1,3.90980904 3.90980904,1 7.5,1 C11.0894401,1 14,3.91022482 14,7.5 L14,7.5 M15,7.5 C15,3.3579143 11.6416991,0 7.5,0 C3.3575243,0 0,3.3575243 0,7.5 C0,11.6424757 3.35752431,15 7.5,15 C11.6416991,15 15,11.6420857 15,7.5 L15,7.5" id="Shape"></path>
            <path d="M7,5.70650678 L5.68645339,7.02005339 L4.97934661,6.31294661 L7.16134661,4.13094661 L7.5149,3.77739322 L7.86845339,4.13094661 L10.0504534,6.31294661 L9.34334661,7.02005339 L8,5.67670678 L8,10.2273 L7,10.2273 L7,5.70650678 L7,5.70650678 Z" id="Shape"></path>
        </g>
    </g>
</svg>
