<?xml version="1.0" encoding="UTF-8" standalone="no"?>
<svg width="22px" height="22px" viewBox="0 0 22 22" version="1.1" xmlns="http://www.w3.org/2000/svg" xmlns:xlink="http://www.w3.org/1999/xlink">
    <g stroke="none" stroke-width="1" fill-rule="evenodd">
        <path d="M12,1 L12,4.03 C15.39,4.52 18,7.42 18,10.95 C18,11.85 17.82,12.7 17.52,13.49 L20.12,15.02 C20.68,13.78 21,12.4 21,10.95 C21,5.77 17.05,1.5 12,1 L12,1 Z M11,17.95 C7.13,17.95 4,14.82 4,10.95 C4,7.42 6.61,4.52 10,4.03 L10,1 C4.94,1.5 1,5.76 1,10.95 C1,16.47 5.47,20.95 10.99,20.95 C14.3,20.95 17.23,19.34 19.05,16.86 L16.45,15.33 C15.17,16.93 13.21,17.95 11,17.95 L11,17.95 Z"></path>
    </g>
</svg>
