<?xml version="1.0" encoding="UTF-8" standalone="no"?>
<svg width="20px" height="20px" viewBox="0 0 20 20" version="1.1" xmlns="http://www.w3.org/2000/svg" xmlns:xlink="http://www.w3.org/1999/xlink">
    <g stroke="none" stroke-width="1" fill-rule="evenodd">
        <g transform="translate(1.000000, 3.000000)">
            <path d="M8.88663978,0.00907955801 L3.75385525,5.08338895 L1.02750166,2.38488066 L9.94475138e-06,3.39795249 L3.75296022,7.10943315 L9.91413149,1.02215138 L8.88663978,0.00907955801 Z"></path>
            <path d="M7.14539337,13.4092044 L5.32729392,12.9067956 L4.82478564,11.0885967 L6.14047624,9.77290608 L7.95867514,10.2754144 L8.46108398,12.0935138 L7.14539337,13.4092044 Z M17.8973602,2.79785635 L16.0356033,4.65961326 L13.7445315,4.48836464 L13.5744762,2.19838674 L15.4391171,0.333646409 C14.3599127,0.0801546961 13.1781779,0.376707182 12.3346641,1.22012155 C11.4384431,2.11644199 11.1360232,3.37097238 11.5152166,4.53888398 L7.47645414,8.57764641 C7.21092928,8.50405525 6.93158122,8.4639779 6.64298453,8.4639779 C4.91866409,8.4639779 3.51575801,9.86678453 3.51575801,11.591105 C3.51575801,13.3154254 4.91866409,14.718232 6.64298453,14.718232 C8.36730497,14.718232 9.7701116,13.3154254 9.7701116,11.591105 C9.7701116,11.3024088 9.72993481,11.0230608 9.65644309,10.7575359 L13.6951061,6.71877348 C14.8630177,7.09796685 16.1161558,6.7941547 17.0123768,5.8979337 C17.8539017,5.05640884 18.1490619,3.87636464 17.8973602,2.79785635 L17.8973602,2.79785635 Z"></path>
        </g>
    </g>
</svg>
