<?xml version="1.0" encoding="UTF-8" standalone="no"?>
<svg viewBox="0 0 300 300" version="1.1" xmlns="http://www.w3.org/2000/svg" xmlns:xlink="http://www.w3.org/1999/xlink">
    <g fill-rule="evenodd">
        <path d="M299.257,35.934c2.761,0,5-2.238,5-5V5c0-2.762-2.239-5-5-5H7.859c-2.761,0-5,2.238-5,5v25.934c0,2.762,2.239,5,5,5h9.451    v155.804H7.859c-2.761,0-5,2.238-5,5v25.934c0,2.762,2.239,5,5,5h140.699v15.399l-54.567,55.541 c-1.935,1.97-1.907,5.136,0.063,7.07c1.969,1.938,5.136,1.907,7.071-0.063l19.347-19.692h66.172l19.347,19.692    c1.934,1.97,5.102,1.998,7.071,0.063c1.97-1.935,1.998-5.101,0.063-7.07l-54.567-55.541v-15.399h140.699c2.761,0,5-2.238,5-5    v-25.934c0-2.762-2.239-5-5-5h-9.451V35.934H299.257z M176.819,275.927h-46.523l23.261-23.677L176.819,275.927z M294.257,201.737    v15.934H12.859v-15.934h9.451h262.496H294.257z M27.31,191.737V35.934h252.496v155.803H27.31z M12.859,25.934V10h281.398v15.934    C279.275,25.934,26.773,25.934,12.859,25.934z"></path>
    </g>
</svg>
