<?xml version="1.0" encoding="UTF-8" standalone="no"?>
<svg width="16px" height="16px" viewBox="0 0 16 16" version="1.1" xmlns="http://www.w3.org/2000/svg" xmlns:xlink="http://www.w3.org/1999/xlink">
  <g>
      <path d="M15.266,6.646 L11.959,9.87 L12.742,14.425 C12.75,14.489 12.75,14.544 12.75,14.608 C12.75,14.844 12.641,15.063 12.377,15.063 C12.25,15.063 12.123,15.018 12.014,14.954 L7.923,12.805 L3.833,14.954 C3.715,15.018 3.596,15.063 3.469,15.063 C3.205,15.063 3.087,14.844 3.087,14.608 C3.087,14.545 3.096,14.49 3.105,14.425 L3.887,9.87 L0.571,6.646 C0.462,6.527 0.344,6.372 0.344,6.208 C0.344,5.935 0.626,5.826 0.854,5.789 L5.427,5.124 L7.477,0.979 C7.559,0.806 7.714,0.605 7.923,0.605 C8.132,0.605 8.287,0.806 8.369,0.979 L10.418,5.124 L14.992,5.789 C15.211,5.826 15.502,5.935 15.502,6.208 C15.502,6.372 15.383,6.527 15.266,6.646 L15.266,6.646 Z"></path>
  </g>
</svg>
