<?xml version="1.0" encoding="UTF-8" standalone="no"?>
<svg width="20px" height="20px" viewBox="0 0 20 20" version="1.1" xmlns="http://www.w3.org/2000/svg" xmlns:xlink="http://www.w3.org/1999/xlink">
    <g stroke="none" stroke-width="1" fill-rule="evenodd">
        <g transform="translate(4.000000, 1.000000)">
            <path d="M10.6,8.93333333 L9.53333333,8.93333333 L9.53333333,4.8 C9.53333333,2.72 7.88,1.06666667 5.8,1.06666667 C3.72,1.06666667 2.06666666,2.72 2.06666666,4.8 L2.06666666,6.93333333 L1,6.93333333 L1,4.8 C1,2.13333333 3.13333333,0 5.8,0 C8.46666666,0 10.6,2.13333333 10.6,4.8 L10.6,6.93333333 L10.6,8.93333333 Z"></path>
            <path d="M10.1333333,18 L1.6,18 C0.693333333,18 0,17.3066667 0,16.4 L0,10 C0,9.09333333 0.693333333,8.4 1.6,8.4 L10.1333333,8.4 C11.04,8.4 11.7333333,9.09333333 11.7333333,10 L11.7333333,16.4 C11.7333333,17.3066667 11.04,18 10.1333333,18 L10.1333333,18 L10.1333333,18 Z M1.6,9.46666667 C1.28,9.46666667 1.06666667,9.68 1.06666667,10 L1.06666667,16.4 C1.06666667,16.72 1.28,16.9333333 1.6,16.9333333 L10.1333333,16.9333333 C10.4533333,16.9333333 10.6666667,16.72 10.6666667,16.4 L10.6666667,10 C10.6666667,9.68 10.4533333,9.46666667 10.1333333,9.46666667 L1.6,9.46666667 L1.6,9.46666667 L1.6,9.46666667 Z"></path>
            <circle cx="5.86666667" cy="11.6" r="1.06666667"></circle>
            <polygon points="6.13333333 11.6 5.6 11.6 5.06666667 14.8 6.66666667 14.8"></polygon>
        </g>
    </g>
</svg>
