<?xml version="1.0" encoding="utf-8"?>
<!-- Generator: Adobe Illustrator 17.0.0, SVG Export Plug-In . SVG Version: 6.00 Build 0)  -->
<!DOCTYPE svg PUBLIC "-//W3C//DTD SVG 1.1//EN" "http://www.w3.org/Graphics/SVG/1.1/DTD/svg11.dtd">
<svg version="1.1" id="Layer_2" xmlns="http://www.w3.org/2000/svg" xmlns:xlink="http://www.w3.org/1999/xlink" x="0px" y="0px"
	 width="60px" height="60px" viewBox="0 0 60 60" enable-background="new 0 0 60 60" xml:space="preserve">
<path fill="#010101" d="M30,1C14.009,1,1,14.01,1,30c0,15.99,13.009,29,29,29s29-13.01,29-29C59,14.01,45.991,1,30,1z M45.87,31.261
	H31v13.87c0,0.553-0.448,1-1,1c-0.552,0-1-0.447-1-1v-13.87H15.609c-0.552,0-1-0.447-1-1c0-0.553,0.448-1,1-1H29V14.869
	c0-0.553,0.448-1,1-1c0.552,0,1,0.447,1,1v14.392h14.87c0.552,0,1,0.447,1,1C46.87,30.814,46.422,31.261,45.87,31.261z"/>
</svg>
