<?xml version="1.0" encoding="utf-8"?>
<!-- Generator: Adobe Illustrator 17.0.0, SVG Export Plug-In . SVG Version: 6.00 Build 0)  -->
<!DOCTYPE svg PUBLIC "-//W3C//DTD SVG 1.1//EN" "http://www.w3.org/Graphics/SVG/1.1/DTD/svg11.dtd">
<svg version="1.1" id="Layer_2" xmlns="http://www.w3.org/2000/svg" xmlns:xlink="http://www.w3.org/1999/xlink" x="0px" y="0px"
	 width="60px" height="60px" viewBox="0 0 60 60" enable-background="new 0 0 60 60" xml:space="preserve">
<path fill="#010101" d="M59,20H39.87V1c0-0.553-0.448-1-1-1h-18c-0.552,0-1,0.447-1,1v19H1c-0.552,0-1,0.447-1,1v18
	c0,0.553,0.448,1,1,1h18.87v19c0,0.553,0.448,1,1,1h18c0.552,0,1-0.447,1-1V40H59c0.552,0,1-0.447,1-1V21C60,20.447,59.552,20,59,20
	z"/>
</svg>
