<?xml version="1.0" encoding="utf-8"?>
<!-- Generator: Adobe Illustrator 17.0.0, SVG Export Plug-In . SVG Version: 6.00 Build 0)  -->
<!DOCTYPE svg PUBLIC "-//W3C//DTD SVG 1.1//EN" "http://www.w3.org/Graphics/SVG/1.1/DTD/svg11.dtd">
<svg version="1.1" id="Layer_2" xmlns="http://www.w3.org/2000/svg" xmlns:xlink="http://www.w3.org/1999/xlink" x="0px" y="0px"
	 width="60px" height="60px" viewBox="0 0 60 60" enable-background="new 0 0 60 60" xml:space="preserve">
<path fill="#010101" d="M59.948,36.682C59.811,36.274,59.429,36,59,36h-9V17c0-0.266-0.106-0.519-0.293-0.707l-16-16
	C33.519,0.106,33.265,0,33,0H11c-0.552,0-1,0.447-1,1v35H1c-0.429,0-0.811,0.274-0.948,0.682c-0.137,0.406,0.001,0.855,0.343,1.115
	l29,22C29.574,59.933,29.787,60,30,60c0.213,0,0.426-0.067,0.604-0.203l29-22C59.946,37.537,60.085,37.088,59.948,36.682z M33,17V1
	l16,16H33z"/>
</svg>
