<?xml version="1.0" encoding="utf-8"?>
<!-- Generator: Adobe Illustrator 17.0.0, SVG Export Plug-In . SVG Version: 6.00 Build 0)  -->
<!DOCTYPE svg PUBLIC "-//W3C//DTD SVG 1.1//EN" "http://www.w3.org/Graphics/SVG/1.1/DTD/svg11.dtd">
<svg version="1.1" id="Layer_2" xmlns="http://www.w3.org/2000/svg" xmlns:xlink="http://www.w3.org/1999/xlink" x="0px" y="0px"
	 width="60px" height="60px" viewBox="0 0 60 60" enable-background="new 0 0 60 60" xml:space="preserve">
<path fill="#010101" d="M59.797,29.396l-22-29c-0.26-0.343-0.708-0.48-1.116-0.344C36.274,0.19,36,0.571,36,1v9H17
	c-0.265,0-0.519,0.106-0.707,0.293l-16,16C0.105,26.481,0,26.735,0,27v22c0,0.553,0.448,1,1,1h35v9c0,0.43,0.274,0.811,0.681,0.948
	C36.786,59.984,36.893,60,37,60c0.307,0,0.604-0.142,0.797-0.396l22-29C60.068,30.247,60.068,29.753,59.797,29.396z M17,27H1l16-16
	V27z"/>
</svg>
