<?xml version="1.0" encoding="utf-8"?>
<!-- Generator: Adobe Illustrator 17.0.0, SVG Export Plug-In . SVG Version: 6.00 Build 0)  -->
<!DOCTYPE svg PUBLIC "-//W3C//DTD SVG 1.1//EN" "http://www.w3.org/Graphics/SVG/1.1/DTD/svg11.dtd">
<svg version="1.1" id="Layer_2" xmlns="http://www.w3.org/2000/svg" xmlns:xlink="http://www.w3.org/1999/xlink" x="0px" y="0px"
	 width="60px" height="60px" viewBox="0 0 60 60" enable-background="new 0 0 60 60" xml:space="preserve">
<path fill="#010101" d="M59,10H24V1c0-0.43-0.274-0.811-0.681-0.948c-0.407-0.137-0.856,0.001-1.116,0.344l-22,29
	c-0.271,0.357-0.271,0.852,0,1.209l22,29C22.396,59.859,22.693,60,23,60c0.106,0,0.214-0.017,0.319-0.052
	C23.726,59.811,24,59.43,24,59v-9h19c0.265,0,0.52-0.105,0.707-0.293l16-16C59.895,33.52,60,33.266,60,33V11
	C60,10.448,59.552,10,59,10z M43,49V33h16L43,49z"/>
</svg>
