<?xml version="1.0" encoding="utf-8"?>
<!-- Generator: Adobe Illustrator 17.0.0, SVG Export Plug-In . SVG Version: 6.00 Build 0)  -->
<!DOCTYPE svg PUBLIC "-//W3C//DTD SVG 1.1//EN" "http://www.w3.org/Graphics/SVG/1.1/DTD/svg11.dtd">
<svg version="1.1" id="Layer_2" xmlns="http://www.w3.org/2000/svg" xmlns:xlink="http://www.w3.org/1999/xlink" x="0px" y="0px"
	 width="60px" height="60px" viewBox="0 0 60 60" enable-background="new 0 0 60 60" xml:space="preserve">
<path fill="#010101" d="M59.998,13.98c0-0.007,0.001-0.013,0.001-0.019c-0.001-0.058-0.015-0.114-0.021-0.171
	c-0.008-0.071-0.011-0.144-0.026-0.213c-0.011-0.051-0.031-0.099-0.046-0.149c-0.023-0.078-0.044-0.156-0.076-0.229
	c-0.021-0.047-0.049-0.09-0.073-0.135c-0.038-0.07-0.073-0.141-0.118-0.206c-0.032-0.045-0.07-0.085-0.105-0.127
	c-0.049-0.059-0.096-0.118-0.151-0.17c-0.009-0.009-0.016-0.021-0.026-0.029l-13-12c-0.811-0.749-2.076-0.699-2.826,0.113
	c-0.749,0.811-0.698,2.077,0.113,2.826L52.885,12H14c-1.105,0-2,0.896-2,2v38.885l-8.53-9.242c-0.75-0.811-2.015-0.861-2.826-0.113
	c-0.812,0.749-0.862,2.015-0.113,2.826l12,13c0.009,0.01,0.02,0.017,0.029,0.026c0.052,0.055,0.111,0.102,0.169,0.15
	c0.044,0.036,0.084,0.075,0.129,0.106c0.064,0.044,0.134,0.08,0.203,0.117c0.046,0.025,0.09,0.054,0.138,0.075
	c0.072,0.032,0.149,0.053,0.225,0.076c0.051,0.015,0.1,0.036,0.152,0.047c0.064,0.014,0.132,0.017,0.199,0.024
	c0.062,0.007,0.122,0.021,0.185,0.023c0.014,0,0.027,0,0.04,0c0.134,0,0.266-0.014,0.395-0.04c0.079-0.016,0.152-0.044,0.227-0.069
	c0.049-0.016,0.1-0.026,0.147-0.045c0.082-0.034,0.156-0.08,0.232-0.124c0.037-0.021,0.076-0.037,0.111-0.061
	c0.109-0.073,0.21-0.156,0.302-0.249l12.999-12.998c0.781-0.781,0.781-2.047,0-2.828c-0.78-0.781-2.048-0.781-2.828,0L16,53.172V16
	h37.171l-9.585,9.586c-0.781,0.781-0.781,2.047,0,2.828C43.976,28.805,44.488,29,45,29c0.512,0,1.024-0.195,1.414-0.586
	l12.999-12.999c0.094-0.094,0.177-0.197,0.251-0.308c0.022-0.034,0.037-0.071,0.057-0.106c0.046-0.079,0.093-0.158,0.127-0.243
	c0.019-0.045,0.028-0.094,0.044-0.14c0.026-0.079,0.053-0.156,0.069-0.239c0.012-0.061,0.013-0.124,0.019-0.187
	C59.987,14.129,60,14.066,60,14C60,13.993,59.998,13.986,59.998,13.98z"/>
</svg>
