<?xml version="1.0" encoding="utf-8"?>
<!-- Generator: Adobe Illustrator 17.0.0, SVG Export Plug-In . SVG Version: 6.00 Build 0)  -->
<!DOCTYPE svg PUBLIC "-//W3C//DTD SVG 1.1//EN" "http://www.w3.org/Graphics/SVG/1.1/DTD/svg11.dtd">
<svg version="1.1" id="Layer_2" xmlns="http://www.w3.org/2000/svg" xmlns:xlink="http://www.w3.org/1999/xlink" x="0px" y="0px"
	 width="60px" height="60px" viewBox="0 0 60 60" enable-background="new 0 0 60 60" xml:space="preserve">
<g>
	<path fill="#010101" d="M59.868,29.978c-0.001-0.095-0.014-0.188-0.029-0.282c-0.005-0.035-0.005-0.072-0.013-0.107
		c-0.026-0.124-0.063-0.246-0.113-0.364c-0.021-0.048-0.05-0.091-0.074-0.137c-0.035-0.068-0.066-0.137-0.11-0.202
		c-0.073-0.108-0.156-0.209-0.248-0.301l-9.999-9.999c-0.78-0.781-2.048-0.781-2.828,0c-0.781,0.781-0.781,2.047,0,2.828L53.042,28
		H30.13c-1.104,0-2,0.896-2,2c0,1.105,0.896,2,2,2h23.218l-6.958,7.654c-0.743,0.817-0.683,2.083,0.135,2.825
		c0.383,0.349,0.865,0.52,1.345,0.52c0.544,0,1.086-0.221,1.48-0.654l10-11c0.033-0.037,0.057-0.079,0.087-0.117
		c0.04-0.051,0.08-0.1,0.115-0.154c0.037-0.058,0.067-0.119,0.097-0.179c0.027-0.054,0.055-0.106,0.078-0.162
		c0.026-0.067,0.044-0.136,0.063-0.205c0.015-0.055,0.032-0.107,0.043-0.164c0.015-0.081,0.02-0.163,0.025-0.245
		c0.002-0.041,0.012-0.079,0.012-0.12C59.87,29.992,59.868,29.985,59.868,29.978z"/>
	<path fill="#010101" d="M19.13,0h-18c-0.552,0-1,0.447-1,1v58c0,0.553,0.448,1,1,1h18c0.552,0,1-0.447,1-1V1
		C20.13,0.447,19.683,0,19.13,0z"/>
</g>
</svg>
