<?xml version="1.0" encoding="utf-8"?>
<!-- Generator: Adobe Illustrator 17.0.0, SVG Export Plug-In . SVG Version: 6.00 Build 0)  -->
<!DOCTYPE svg PUBLIC "-//W3C//DTD SVG 1.1//EN" "http://www.w3.org/Graphics/SVG/1.1/DTD/svg11.dtd">
<svg version="1.1" id="Layer_2" xmlns="http://www.w3.org/2000/svg" xmlns:xlink="http://www.w3.org/1999/xlink" x="0px" y="0px"
	 width="60px" height="60px" viewBox="0 0 60 60" enable-background="new 0 0 60 60" xml:space="preserve">
<path fill="#010101" d="M58,24H6.547l7.927-8.648c0.747-0.815,0.691-2.079-0.123-2.826c-0.815-0.746-2.081-0.69-2.826,0.123l-11,12
	c-0.031,0.034-0.053,0.073-0.081,0.108c-0.045,0.056-0.09,0.111-0.128,0.171c-0.031,0.049-0.056,0.102-0.083,0.154
	c-0.033,0.063-0.066,0.126-0.092,0.193c-0.022,0.057-0.037,0.116-0.054,0.174c-0.019,0.066-0.039,0.131-0.051,0.2
	c-0.012,0.067-0.016,0.136-0.021,0.206C0.011,25.903,0,25.95,0,26c0,0.015,0.004,0.029,0.004,0.044
	c0.001,0.016-0.003,0.031-0.002,0.046c0.002,0.055,0.017,0.107,0.023,0.161c0.008,0.065,0.014,0.13,0.028,0.193
	c0.014,0.06,0.035,0.116,0.054,0.174c0.022,0.067,0.042,0.135,0.071,0.199c0.023,0.053,0.054,0.101,0.082,0.152
	c0.035,0.062,0.069,0.126,0.11,0.184c0.033,0.047,0.072,0.088,0.109,0.133c0.047,0.055,0.093,0.111,0.146,0.161
	c0.011,0.011,0.019,0.023,0.03,0.033l11,10C12.038,37.828,12.519,38,12.999,38c0.544,0,1.086-0.221,1.481-0.654
	c0.743-0.817,0.683-2.083-0.135-2.825L7.173,28H56v14.369c0,1.105,0.895,2,2,2c1.104,0,2-0.895,2-2V26C60,24.895,59.104,24,58,24z"
	/>
</svg>
