<?xml version="1.0" encoding="utf-8"?>
<!-- Generator: Adobe Illustrator 17.0.0, SVG Export Plug-In . SVG Version: 6.00 Build 0)  -->
<!DOCTYPE svg PUBLIC "-//W3C//DTD SVG 1.1//EN" "http://www.w3.org/Graphics/SVG/1.1/DTD/svg11.dtd">
<svg version="1.1" id="Layer_2" xmlns="http://www.w3.org/2000/svg" xmlns:xlink="http://www.w3.org/1999/xlink" x="0px" y="0px"
	 width="60px" height="60px" viewBox="0 0 60 60" enable-background="new 0 0 60 60" xml:space="preserve">
<g>
	<path fill="#010101" d="M29.87,28H6.959l6.586-6.586c0.781-0.781,0.781-2.047,0-2.828c-0.78-0.781-2.048-0.781-2.828,0
		l-9.999,9.999c-0.092,0.092-0.175,0.193-0.248,0.301c-0.043,0.064-0.074,0.134-0.11,0.202c-0.024,0.046-0.053,0.088-0.074,0.137
		c-0.05,0.118-0.087,0.24-0.113,0.364c-0.007,0.035-0.007,0.072-0.013,0.107c-0.014,0.094-0.027,0.188-0.029,0.282
		c0,0.008-0.002,0.015-0.002,0.022c0,0.041,0.01,0.079,0.012,0.12c0.005,0.082,0.01,0.164,0.025,0.245
		c0.01,0.057,0.028,0.109,0.043,0.164c0.019,0.069,0.037,0.138,0.063,0.205c0.023,0.056,0.051,0.108,0.078,0.162
		c0.031,0.061,0.06,0.121,0.097,0.179c0.035,0.054,0.075,0.104,0.115,0.154c0.03,0.038,0.054,0.08,0.087,0.117l10,11
		C11.045,42.779,11.587,43,12.131,43c0.48,0,0.962-0.172,1.345-0.52c0.817-0.742,0.877-2.008,0.135-2.825L6.652,32H29.87
		c1.104,0,2-0.895,2-2C31.87,28.896,30.974,28,29.87,28z"/>
	<path fill="#010101" d="M58.87,0h-18c-0.552,0-1,0.447-1,1v58c0,0.553,0.448,1,1,1h18c0.552,0,1-0.447,1-1V1
		C59.87,0.447,59.422,0,58.87,0z"/>
</g>
</svg>
