<?xml version="1.0" encoding="utf-8"?>
<!-- Generator: Adobe Illustrator 17.0.0, SVG Export Plug-In . SVG Version: 6.00 Build 0)  -->
<!DOCTYPE svg PUBLIC "-//W3C//DTD SVG 1.1//EN" "http://www.w3.org/Graphics/SVG/1.1/DTD/svg11.dtd">
<svg version="1.1" id="Layer_2" xmlns="http://www.w3.org/2000/svg" xmlns:xlink="http://www.w3.org/1999/xlink" x="0px" y="0px"
	 width="60px" height="60px" viewBox="0 0 60 60" enable-background="new 0 0 60 60" xml:space="preserve">
<g>
	<path fill="#010101" d="M31.414,13.586c-0.78-0.781-2.048-0.781-2.828,0l-10,10c-0.781,0.781-0.781,2.047,0,2.828
		c0.78,0.781,2.048,0.781,2.828,0L28,19.828V58c0,1.105,0.895,2,2,2c1.104,0,2-0.895,2-2V19.828l6.586,6.586
		C38.976,26.805,39.488,27,40,27c0.512,0,1.024-0.195,1.414-0.586c0.781-0.781,0.781-2.047,0-2.828L31.414,13.586z"/>
	<path fill="#010101" d="M58,0H2C0.895,0,0,0.896,0,2c0,1.105,0.895,2,2,2h56c1.104,0,2-0.895,2-2C60,0.896,59.104,0,58,0z"/>
</g>
</svg>
