<?xml version="1.0" encoding="utf-8"?>
<!-- Generator: Adobe Illustrator 17.0.0, SVG Export Plug-In . SVG Version: 6.00 Build 0)  -->
<!DOCTYPE svg PUBLIC "-//W3C//DTD SVG 1.1//EN" "http://www.w3.org/Graphics/SVG/1.1/DTD/svg11.dtd">
<svg version="1.1" id="Layer_2" xmlns="http://www.w3.org/2000/svg" xmlns:xlink="http://www.w3.org/1999/xlink" x="0px" y="0px"
	 width="60px" height="60px" viewBox="0 0 60 60" enable-background="new 0 0 60 60" xml:space="preserve">
<g>
	<path fill="#010101" d="M28.586,46.414C28.976,46.805,29.488,47,30,47c0.512,0,1.024-0.195,1.414-0.586l10-10
		c0.781-0.781,0.781-2.047,0-2.828c-0.78-0.781-2.048-0.781-2.828,0L32,40.172V2c0-1.104-0.896-2-2-2c-1.105,0-2,0.896-2,2v38.172
		l-6.586-6.586c-0.78-0.781-2.048-0.781-2.828,0c-0.781,0.781-0.781,2.047,0,2.828L28.586,46.414z"/>
	<path fill="#010101" d="M58,56H2c-1.105,0-2,0.896-2,2c0,1.105,0.895,2,2,2h56c1.104,0,2-0.895,2-2C60,56.896,59.104,56,58,56z"/>
</g>
</svg>
