<?xml version="1.0" encoding="utf-8"?>
<!-- Generator: Adobe Illustrator 17.0.0, SVG Export Plug-In . SVG Version: 6.00 Build 0)  -->
<!DOCTYPE svg PUBLIC "-//W3C//DTD SVG 1.1//EN" "http://www.w3.org/Graphics/SVG/1.1/DTD/svg11.dtd">
<svg version="1.1" id="Layer_2" xmlns="http://www.w3.org/2000/svg" xmlns:xlink="http://www.w3.org/1999/xlink" x="0px" y="0px"
	 width="60px" height="60px" viewBox="0 0 60 60" enable-background="new 0 0 60 60" xml:space="preserve">
<path fill="#010101" d="M59.604,22.203l-29-22c-0.357-0.271-0.852-0.271-1.209,0l-29,22c-0.342,0.26-0.481,0.709-0.343,1.115
	C0.189,23.726,0.571,24,1,24h9v19c0,0.266,0.105,0.52,0.293,0.707l16,16C26.48,59.895,26.735,60,27,60h22c0.552,0,1-0.447,1-1V24h9
	c0.429,0,0.811-0.274,0.948-0.682C60.085,22.912,59.946,22.463,59.604,22.203z M27,59L11,43h16V59z"/>
</svg>
