<?xml version="1.0" encoding="utf-8"?>
<!-- Generator: Adobe Illustrator 17.0.0, SVG Export Plug-In . SVG Version: 6.00 Build 0)  -->
<!DOCTYPE svg PUBLIC "-//W3C//DTD SVG 1.1//EN" "http://www.w3.org/Graphics/SVG/1.1/DTD/svg11.dtd">
<svg version="1.1" id="Layer_2" xmlns="http://www.w3.org/2000/svg" xmlns:xlink="http://www.w3.org/1999/xlink" x="0px" y="0px"
	 width="60px" height="60px" viewBox="0 0 60 60" enable-background="new 0 0 60 60" xml:space="preserve">
<path fill="#010101" d="M58,16.217c1.104,0,2-0.896,2-2V1.826c0-1.105-0.896-2-2-2H46c-1.105,0-2,0.895-2,2s0.895,2,2,2h7.541
	L30,27.203L6.459,3.826H14c1.104,0,2-0.895,2-2s-0.896-2-2-2H2c-1.105,0-2,0.895-2,2v13c0,1.104,0.895,2,2,2c1.104,0,2-0.895,2-2
	V7.021l23.162,23.001L4,53.022v-7.196c0-1.104-0.896-2-2-2c-1.105,0-2,0.896-2,2v12c0,0.034,0.008,0.065,0.01,0.099
	c0.005,0.097,0.01,0.193,0.029,0.289c0.013,0.065,0.036,0.125,0.055,0.188c0.019,0.062,0.033,0.125,0.057,0.185
	c0.029,0.07,0.068,0.134,0.104,0.2c0.027,0.048,0.048,0.099,0.079,0.145c0.062,0.093,0.134,0.178,0.21,0.26
	c0.013,0.014,0.023,0.031,0.036,0.044c0.001,0,0.001,0.001,0.002,0.001c0.093,0.094,0.196,0.178,0.306,0.251
	c0.045,0.03,0.095,0.051,0.142,0.077c0.067,0.038,0.132,0.078,0.203,0.108c0.063,0.026,0.129,0.041,0.195,0.061
	c0.06,0.018,0.117,0.041,0.179,0.053c0.129,0.026,0.261,0.04,0.392,0.04h12c1.104,0,2-0.896,2-2s-0.896-2-2-2H6.852L30,32.84
	l23.148,22.986H46c-1.105,0-2,0.896-2,2s0.895,2,2,2h12c0.132,0,0.263-0.014,0.392-0.04c0.062-0.012,0.12-0.036,0.18-0.053
	c0.065-0.02,0.131-0.035,0.195-0.061c0.071-0.03,0.136-0.07,0.203-0.108c0.047-0.026,0.097-0.046,0.142-0.077
	c0.11-0.074,0.213-0.158,0.306-0.251c0.001,0,0.001-0.001,0.002-0.001c0.014-0.014,0.023-0.03,0.036-0.044
	c0.076-0.082,0.148-0.167,0.21-0.26c0.031-0.046,0.052-0.097,0.079-0.145c0.036-0.066,0.075-0.13,0.104-0.2
	c0.025-0.06,0.039-0.123,0.058-0.185c0.019-0.062,0.042-0.123,0.055-0.188c0.019-0.095,0.024-0.192,0.029-0.289
	C59.992,57.891,60,57.86,60,57.826v-12c0-1.104-0.896-2-2-2c-1.105,0-2,0.896-2,2v7.196l-23.162-23L56,7.021v7.196
	C56,15.321,56.895,16.217,58,16.217z"/>
</svg>
