<?xml version="1.0" encoding="utf-8"?>
<!-- Generator: Adobe Illustrator 17.0.0, SVG Export Plug-In . SVG Version: 6.00 Build 0)  -->
<!DOCTYPE svg PUBLIC "-//W3C//DTD SVG 1.1//EN" "http://www.w3.org/Graphics/SVG/1.1/DTD/svg11.dtd">
<svg version="1.1" id="Layer_2" xmlns="http://www.w3.org/2000/svg" xmlns:xlink="http://www.w3.org/1999/xlink" x="0px" y="0px"
	 width="60px" height="60px" viewBox="0 0 60 60" enable-background="new 0 0 60 60" xml:space="preserve">
<g>
	<path fill="#010101" d="M19,14.13c0.48,0,0.962-0.172,1.345-0.52L28,6.651V29.87c0,1.104,0.895,2,2,2c1.104,0,2-0.896,2-2V6.959
		l6.586,6.585c0.78,0.781,2.048,0.781,2.828,0c0.781-0.781,0.781-2.047,0-2.828l-9.999-9.999c-0.092-0.092-0.193-0.175-0.301-0.247
		c-0.068-0.046-0.142-0.08-0.214-0.116c-0.042-0.021-0.08-0.049-0.125-0.067c-0.118-0.05-0.24-0.087-0.365-0.113
		c-0.035-0.007-0.072-0.007-0.108-0.013c-0.093-0.015-0.186-0.027-0.281-0.028c-0.008,0-0.015-0.003-0.023-0.003
		c-0.042,0-0.082,0.01-0.124,0.013c-0.08,0.005-0.16,0.009-0.24,0.024c-0.059,0.011-0.115,0.029-0.172,0.045
		c-0.066,0.019-0.131,0.036-0.195,0.061c-0.06,0.024-0.117,0.054-0.174,0.083c-0.056,0.029-0.112,0.056-0.166,0.09
		c-0.06,0.038-0.114,0.082-0.169,0.125c-0.035,0.028-0.072,0.049-0.106,0.079l-11,10c-0.817,0.742-0.878,2.008-0.135,2.825
		C17.915,13.91,18.456,14.13,19,14.13z"/>
	<path fill="#010101" d="M59,39.87H1c-0.552,0-1,0.447-1,1v18c0,0.553,0.448,1,1,1h58c0.552,0,1-0.447,1-1v-18
		C60,40.317,59.552,39.87,59,39.87z"/>
</g>
</svg>
