<?xml version="1.0" encoding="utf-8"?>
<!-- Generator: Adobe Illustrator 17.0.0, SVG Export Plug-In . SVG Version: 6.00 Build 0)  -->
<!DOCTYPE svg PUBLIC "-//W3C//DTD SVG 1.1//EN" "http://www.w3.org/Graphics/SVG/1.1/DTD/svg11.dtd">
<svg version="1.1" id="Layer_2" xmlns="http://www.w3.org/2000/svg" xmlns:xlink="http://www.w3.org/1999/xlink" x="0px" y="0px"
	 width="60px" height="60px" viewBox="0 0 60 60" enable-background="new 0 0 60 60" xml:space="preserve">
<path fill="#010101" d="M59.989,44.798c-0.081-18.322-11.12-28.826-30.317-28.826c-6.234,0-13.021,1.104-20.18,3.279l-7.798-7.744
	c-0.287-0.285-0.717-0.37-1.089-0.213c-0.373,0.155-0.616,0.519-0.616,0.923v31.652c0,0.553,0.448,1,1,1h32.782
	c0.416,0,0.788-0.257,0.935-0.646c0.147-0.389,0.039-0.828-0.272-1.104l-8.771-7.766c5.996-2.944,12.172-4.554,17.529-4.554
	c5.526,0,14.796,1.845,14.796,14.199c0,0.553,0.448,1,1,1c0.007-0.001,0.014-0.001,0.02,0c0.552,0,1-0.447,1-1
	C60.01,44.931,60.003,44.863,59.989,44.798z"/>
</svg>
