<?xml version="1.0" encoding="utf-8"?>
<!-- Generator: Adobe Illustrator 17.0.0, SVG Export Plug-In . SVG Version: 6.00 Build 0)  -->
<!DOCTYPE svg PUBLIC "-//W3C//DTD SVG 1.1//EN" "http://www.w3.org/Graphics/SVG/1.1/DTD/svg11.dtd">
<svg version="1.1" id="Layer_2" xmlns="http://www.w3.org/2000/svg" xmlns:xlink="http://www.w3.org/1999/xlink" x="0px" y="0px"
	 width="60px" height="60px" viewBox="0 0 60 60" enable-background="new 0 0 60 60" xml:space="preserve">
<g>
	<path fill="#010101" d="M58,0H40c-1.105,0-2,0.896-2,2c0,1.105,0.895,2,2,2h16v11c0,1.105,0.895,2,2,2c1.104,0,2-0.895,2-2V2
		C60,0.896,59.104,0,58,0z"/>
	<path fill="#010101" d="M2,17c1.104,0,2-0.895,2-2V4h16c1.104,0,2-0.895,2-2c0-1.104-0.896-2-2-2H2C0.895,0,0,0.896,0,2v13
		C0,16.105,0.895,17,2,17z"/>
	<path fill="#010101" d="M58,43c-1.105,0-2,0.896-2,2v11H40c-1.105,0-2,0.896-2,2c0,1.105,0.895,2,2,2h18c1.104,0,2-0.895,2-2V45
		C60,43.896,59.104,43,58,43z"/>
	<path fill="#010101" d="M20,56H4V45c0-1.104-0.896-2-2-2c-1.105,0-2,0.896-2,2v13c0,1.105,0.895,2,2,2h18c1.104,0,2-0.895,2-2
		C22,56.896,21.104,56,20,56z"/>
	<path fill="#010101" d="M12,21v18c0,0.553,0.448,1,1,1h34c0.552,0,1-0.447,1-1V21c0-0.553-0.448-1-1-1H13
		C12.448,20,12,20.447,12,21z"/>
</g>
</svg>
