<?xml version="1.0" encoding="utf-8"?>
<!-- Generator: Adobe Illustrator 17.0.0, SVG Export Plug-In . SVG Version: 6.00 Build 0)  -->
<!DOCTYPE svg PUBLIC "-//W3C//DTD SVG 1.1//EN" "http://www.w3.org/Graphics/SVG/1.1/DTD/svg11.dtd">
<svg version="1.1" id="Layer_2" xmlns="http://www.w3.org/2000/svg" xmlns:xlink="http://www.w3.org/1999/xlink" x="0px" y="0px"
	 width="60px" height="60px" viewBox="0 0 60 60" enable-background="new 0 0 60 60" xml:space="preserve">
<path fill="#010101" d="M59.694,28.976L43.302,13.192c-0.187-0.179-0.435-0.279-0.694-0.279H1c-0.552,0-1,0.447-1,1v32.174
	c0,0.553,0.448,1,1,1h41.608c0.265,0,0.52-0.105,0.707-0.293l16.392-16.391c0.19-0.189,0.295-0.448,0.293-0.717
	C59.998,29.418,59.887,29.162,59.694,28.976z M26.707,35.206c0.391,0.391,0.391,1.023,0,1.414c-0.195,0.195-0.451,0.293-0.707,0.293
	c-0.256,0-0.512-0.098-0.707-0.293L20,31.327l-5.293,5.293c-0.195,0.195-0.451,0.293-0.707,0.293c-0.256,0-0.512-0.098-0.707-0.293
	c-0.391-0.391-0.391-1.023,0-1.414l5.293-5.293l-5.293-5.293c-0.391-0.391-0.391-1.023,0-1.414c0.391-0.391,1.023-0.391,1.414,0
	L20,28.499l5.293-5.293c0.391-0.391,1.023-0.391,1.414,0c0.391,0.391,0.391,1.023,0,1.414l-5.293,5.293L26.707,35.206z"/>
</svg>
