<?xml version="1.0" encoding="utf-8"?>
<!-- Generator: Adobe Illustrator 17.0.0, SVG Export Plug-In . SVG Version: 6.00 Build 0)  -->
<!DOCTYPE svg PUBLIC "-//W3C//DTD SVG 1.1//EN" "http://www.w3.org/Graphics/SVG/1.1/DTD/svg11.dtd">
<svg version="1.1" id="Layer_2" xmlns="http://www.w3.org/2000/svg" xmlns:xlink="http://www.w3.org/1999/xlink" x="0px" y="0px"
	 width="60px" height="60px" viewBox="0 0 60 60" enable-background="new 0 0 60 60" xml:space="preserve">
<path fill="#010101" d="M30,1C14.009,1,1,14.01,1,30c0,15.99,13.009,29,29,29c15.991,0,29-13.01,29-29C59,14.01,45.991,1,30,1z
	 M41.707,41.707C41.512,41.902,41.256,42,41,42c-0.256,0-0.512-0.098-0.707-0.293L30,31.414L19.707,41.707
	C19.512,41.902,19.256,42,19,42c-0.256,0-0.512-0.098-0.707-0.293c-0.391-0.391-0.391-1.023,0-1.414L28.586,30l-9.293-9.293
	c-0.391-0.391-0.391-1.023,0-1.414c0.391-0.391,1.023-0.391,1.414,0L30,28.586l9.293-9.293c0.391-0.391,1.023-0.391,1.414,0
	c0.391,0.391,0.391,1.023,0,1.414L31.414,30l10.293,10.293C42.098,40.684,42.098,41.316,41.707,41.707z"/>
</svg>
