<?xml version="1.0" encoding="utf-8"?>
<!-- Generator: Adobe Illustrator 17.0.0, SVG Export Plug-In . SVG Version: 6.00 Build 0)  -->
<!DOCTYPE svg PUBLIC "-//W3C//DTD SVG 1.1//EN" "http://www.w3.org/Graphics/SVG/1.1/DTD/svg11.dtd">
<svg version="1.1" id="Layer_2" xmlns="http://www.w3.org/2000/svg" xmlns:xlink="http://www.w3.org/1999/xlink" x="0px" y="0px"
	 width="60px" height="60px" viewBox="0 0 60 60" enable-background="new 0 0 60 60" xml:space="preserve">
<path fill="#010101" d="M42.762,30l16.945-16.945c0.391-0.391,0.391-1.023,0-1.414L48.359,0.293c-0.391-0.391-1.023-0.391-1.414,0
	L30,17.238L13.055,0.293c-0.391-0.391-1.023-0.391-1.414,0L0.293,11.641c-0.391,0.391-0.391,1.023,0,1.414L17.238,30L0.293,46.945
	c-0.391,0.391-0.391,1.024,0,1.414l11.348,11.348c0.391,0.391,1.024,0.391,1.414,0L30,42.762l16.945,16.945
	C47.141,59.902,47.396,60,47.652,60c0.256,0,0.512-0.098,0.707-0.293l11.348-11.348c0.391-0.391,0.391-1.023,0-1.414L42.762,30z"/>
</svg>
