<?xml version="1.0" encoding="utf-8"?>
<!-- Generator: Adobe Illustrator 17.0.0, SVG Export Plug-In . SVG Version: 6.00 Build 0)  -->
<!DOCTYPE svg PUBLIC "-//W3C//DTD SVG 1.1//EN" "http://www.w3.org/Graphics/SVG/1.1/DTD/svg11.dtd">
<svg version="1.1" id="Layer_2" xmlns="http://www.w3.org/2000/svg" xmlns:xlink="http://www.w3.org/1999/xlink" x="0px" y="0px"
	 width="60px" height="60px" viewBox="0 0 60 60" enable-background="new 0 0 60 60" xml:space="preserve">
<g>
	<path fill="#010101" d="M52.999,34.066c0.018-0.553-0.193-1.089-0.585-1.48l-8-8c-0.78-0.781-2.048-0.781-2.828,0
		c-0.781,0.781-0.781,2.047,0,2.828l4.803,4.803H13.611l4.803-4.803c0.781-0.781,0.781-2.047,0-2.828
		c-0.78-0.781-2.048-0.781-2.828,0l-8,8c-0.392,0.392-0.603,0.928-0.585,1.48c0.001,0.021,0.007,0.04,0.008,0.06
		C7.008,34.157,7,34.186,7,34.217c0,0.883,0.576,1.624,1.37,1.889l7.314,6.399C16.062,42.837,16.532,43,16.999,43
		c0.557,0,1.111-0.231,1.506-0.683c0.727-0.832,0.643-2.095-0.188-2.822l-3.746-3.278h30.859l-3.746,3.278
		c-0.832,0.728-0.916,1.99-0.189,2.822C41.89,42.769,42.444,43,43.001,43c0.467,0,0.937-0.163,1.316-0.495l7.314-6.399
		C52.424,35.84,53,35.1,53,34.217c0-0.031-0.008-0.06-0.009-0.091C52.992,34.106,52.998,34.087,52.999,34.066z"/>
	<path fill="#010101" d="M2,15.217c-1.105,0-2,0.896-2,2V50c0,1.105,0.896,2,2,2s2-0.895,2-2V17.217C4,16.112,3.105,15.217,2,15.217
		z"/>
	<path fill="#010101" d="M58,15.217c-1.104,0-2,0.896-2,2V50c0,1.105,0.896,2,2,2s2-0.895,2-2V17.217
		C60,16.112,59.104,15.217,58,15.217z"/>
</g>
</svg>
