<?xml version="1.0" encoding="utf-8"?>
<!-- Generator: Adobe Illustrator 17.0.0, SVG Export Plug-In . SVG Version: 6.00 Build 0)  -->
<!DOCTYPE svg PUBLIC "-//W3C//DTD SVG 1.1//EN" "http://www.w3.org/Graphics/SVG/1.1/DTD/svg11.dtd">
<svg version="1.1" id="Layer_2" xmlns="http://www.w3.org/2000/svg" xmlns:xlink="http://www.w3.org/1999/xlink" x="0px" y="0px"
	 width="60px" height="60px" viewBox="0 0 60 60" enable-background="new 0 0 60 60" xml:space="preserve">
<g>
	<path fill="#010101" d="M35.195,17.414C35.585,17.805,36.097,18,36.609,18c0.512,0,1.024-0.195,1.414-0.586
		c0.781-0.781,0.781-2.047,0-2.828l-7.999-7.998c-0.093-0.093-0.196-0.177-0.306-0.25c-0.05-0.034-0.105-0.057-0.158-0.086
		c-0.062-0.033-0.121-0.071-0.186-0.098c-0.067-0.028-0.137-0.044-0.206-0.064C29.112,6.073,29.059,6.051,29,6.04
		c-0.258-0.051-0.525-0.051-0.784,0c-0.058,0.012-0.112,0.033-0.169,0.05c-0.069,0.02-0.138,0.036-0.205,0.063
		c-0.066,0.027-0.125,0.065-0.187,0.099c-0.052,0.029-0.107,0.052-0.157,0.085c-0.11,0.073-0.213,0.157-0.306,0.25l-7.999,7.998
		c-0.781,0.781-0.781,2.047,0,2.828c0.78,0.781,2.048,0.781,2.828,0l4.586-4.586v34.344l-4.586-4.586
		c-0.78-0.781-2.048-0.781-2.828,0c-0.781,0.781-0.781,2.047,0,2.828l7.999,7.998c0.093,0.093,0.196,0.177,0.306,0.251
		c0.05,0.033,0.103,0.056,0.155,0.084c0.063,0.035,0.123,0.072,0.19,0.1c0.066,0.027,0.135,0.043,0.203,0.063
		c0.057,0.017,0.112,0.039,0.171,0.05c0.129,0.026,0.26,0.04,0.392,0.04c0.131,0,0.262-0.014,0.392-0.04
		c0.059-0.012,0.114-0.034,0.171-0.05c0.068-0.02,0.137-0.036,0.203-0.063c0.067-0.028,0.127-0.065,0.19-0.1
		c0.052-0.028,0.105-0.051,0.155-0.084c0.11-0.073,0.213-0.157,0.306-0.251l7.999-7.998c0.781-0.781,0.781-2.047,0-2.828
		c-0.78-0.781-2.048-0.781-2.828,0l-4.586,4.586V12.828L35.195,17.414z"/>
	<path fill="#010101" d="M46.391,56H13.609c-1.104,0-2,0.896-2,2c0,1.105,0.895,2,2,2h32.783c1.104,0,2-0.895,2-2
		C48.391,56.896,47.496,56,46.391,56z"/>
	<path fill="#010101" d="M13.609,4h32.783c1.104,0,2-0.895,2-2c0-1.104-0.896-2-2-2H13.609c-1.104,0-2,0.896-2,2
		C11.609,3.105,12.504,4,13.609,4z"/>
</g>
</svg>
