<?xml version="1.0" encoding="utf-8"?>
<!-- Generator: Adobe Illustrator 17.0.0, SVG Export Plug-In . SVG Version: 6.00 Build 0)  -->
<!DOCTYPE svg PUBLIC "-//W3C//DTD SVG 1.1//EN" "http://www.w3.org/Graphics/SVG/1.1/DTD/svg11.dtd">
<svg version="1.1" id="Layer_2" xmlns="http://www.w3.org/2000/svg" xmlns:xlink="http://www.w3.org/1999/xlink" x="0px" y="0px"
	 width="60px" height="60px" viewBox="0 0 60 60" enable-background="new 0 0 60 60" xml:space="preserve">
<path fill="#010101" d="M59.384,10.294c-0.371-0.154-0.801-0.071-1.089,0.213l-7.801,7.744c-7.16-2.176-13.945-3.279-20.18-3.279
	C11.049,14.972,0,25.553,0,44c0,0.553,0.448,1,1,1c0.552,0,1-0.447,1-1c0-12.354,9.269-14.199,14.795-14.199
	c5.357,0,11.532,1.609,17.528,4.554l-8.769,7.766c-0.311,0.275-0.419,0.715-0.272,1.104c0.148,0.389,0.52,0.645,0.935,0.645H59
	c0.552,0,1-0.447,1-1V11.217C60,10.813,59.757,10.449,59.384,10.294z"/>
</svg>
