<?xml version="1.0" encoding="utf-8"?>
<!-- Generator: Adobe Illustrator 17.0.0, SVG Export Plug-In . SVG Version: 6.00 Build 0)  -->
<!DOCTYPE svg PUBLIC "-//W3C//DTD SVG 1.1//EN" "http://www.w3.org/Graphics/SVG/1.1/DTD/svg11.dtd">
<svg version="1.1" id="Layer_2" xmlns="http://www.w3.org/2000/svg" xmlns:xlink="http://www.w3.org/1999/xlink" x="0px" y="0px"
	 width="60px" height="60px" viewBox="0 0 60 60" enable-background="new 0 0 60 60" xml:space="preserve">
<g>
	<path fill="#010101" d="M30,49.435c-1.105,0-2,0.895-2,2v5.043c0,1.104,0.895,2,2,2c1.104,0,2-0.896,2-2v-5.043
		C32,50.331,31.104,49.435,30,49.435z"/>
	<path fill="#010101" d="M53.957,30.522h-5.044c-1.104,0-2,0.896-2,2c0,1.105,0.896,2,2,2h5.044c1.104,0,2-0.895,2-2
		C55.957,31.418,55.061,30.522,53.957,30.522z"/>
	<path fill="#010101" d="M30,1.522c-1.105,0-2,0.896-2,2v10.087c0,1.104,0.895,2,2,2c1.104,0,2-0.896,2-2V3.522
		C32,2.418,31.104,1.522,30,1.522z"/>
	<path fill="#010101" d="M23.047,48.05c-1.019-0.423-2.19,0.062-2.614,1.081l-1.933,4.66c-0.423,1.021,0.061,2.19,1.082,2.614
		c0.25,0.103,0.51,0.153,0.765,0.153c0.785,0,1.529-0.465,1.849-1.234l1.933-4.66C24.551,49.644,24.067,48.474,23.047,48.05z"/>
	<path fill="#010101" d="M39.573,49.134c-0.421-1.018-1.59-1.51-2.612-1.085c-1.021,0.422-1.507,1.591-1.085,2.612l1.924,4.66
		c0.318,0.771,1.064,1.237,1.85,1.237c0.254,0,0.513-0.049,0.762-0.152c1.021-0.422,1.507-1.591,1.085-2.612L39.573,49.134z"/>
	<path fill="#010101" d="M11.087,34.522c1.104,0,2-0.895,2-2c0-1.104-0.896-2-2-2H6.043c-1.104,0-2,0.896-2,2c0,1.105,0.896,2,2,2
		H11.087z"/>
	<path fill="#010101" d="M45.625,26.05c0.319,0.77,1.064,1.235,1.849,1.235c0.255,0,0.515-0.05,0.765-0.153l4.66-1.932
		c1.02-0.423,1.504-1.593,1.081-2.613c-0.423-1.02-1.591-1.501-2.614-1.082l-4.66,1.932C45.686,23.86,45.202,25.03,45.625,26.05z"/>
	<path fill="#010101" d="M14.373,38.994c-0.423-1.021-1.591-1.501-2.614-1.082l-4.66,1.932c-1.02,0.423-1.504,1.593-1.082,2.613
		c0.319,0.771,1.064,1.235,1.849,1.235c0.255,0,0.515-0.05,0.765-0.153l4.66-1.932C14.311,41.184,14.795,40.014,14.373,38.994z"/>
	<path fill="#010101" d="M44.787,44.482c-0.781-0.781-2.047-0.781-2.829,0c-0.781,0.78-0.781,2.047,0,2.828l3.566,3.566
		c0.391,0.391,0.903,0.586,1.415,0.586c0.512,0,1.023-0.195,1.414-0.586c0.781-0.78,0.781-2.047,0-2.828L44.787,44.482z"/>
	<path fill="#010101" d="M43.372,21.148c0.512,0,1.024-0.195,1.415-0.586l3.566-3.566c0.781-0.781,0.781-2.048,0-2.828
		c-0.781-0.781-2.047-0.781-2.829,0l-3.566,3.566c-0.781,0.781-0.781,2.048,0,2.828C42.349,20.953,42.86,21.148,43.372,21.148z"/>
	<path fill="#010101" d="M36.472,16.898c0.25,0.104,0.509,0.153,0.764,0.153c0.785,0,1.53-0.466,1.849-1.236l1.93-4.662
		c0.422-1.02-0.062-2.19-1.083-2.612c-1.021-0.425-2.19,0.062-2.613,1.083l-1.93,4.662C34.966,15.306,35.451,16.476,36.472,16.898z"
		/>
	<path fill="#010101" d="M22.679,9.625c-0.423-1.021-1.591-1.505-2.613-1.082c-1.02,0.423-1.505,1.593-1.082,2.613l1.931,4.66
		c0.319,0.77,1.063,1.235,1.849,1.235c0.255,0,0.514-0.05,0.765-0.153c1.021-0.423,1.505-1.593,1.082-2.613L22.679,9.625z"/>
	<path fill="#010101" d="M15.211,20.562c0.391,0.391,0.903,0.586,1.414,0.586c0.512,0,1.024-0.195,1.414-0.586
		c0.781-0.78,0.781-2.047,0-2.828l-3.566-3.566c-0.781-0.781-2.047-0.781-2.829,0c-0.781,0.78-0.781,2.047,0,2.828L15.211,20.562z"
		/>
	<path fill="#010101" d="M18.04,44.482c-0.781-0.781-2.047-0.781-2.829,0l-3.566,3.566c-0.781,0.781-0.781,2.048,0,2.828
		c0.391,0.391,0.902,0.586,1.414,0.586s1.024-0.195,1.415-0.586l3.566-3.566C18.821,46.529,18.821,45.262,18.04,44.482z"/>
	<path fill="#010101" d="M52.898,39.843l-4.66-1.932c-1.02-0.419-2.19,0.062-2.614,1.082c-0.423,1.02,0.061,2.19,1.081,2.613
		l4.66,1.932c0.25,0.104,0.51,0.153,0.765,0.153c0.785,0,1.529-0.465,1.849-1.235C54.402,41.436,53.918,40.266,52.898,39.843z"/>
	<path fill="#010101" d="M7.099,25.201l4.66,1.932c0.251,0.103,0.51,0.153,0.765,0.153c0.785,0,1.529-0.465,1.849-1.235
		c0.423-1.021-0.061-2.191-1.082-2.613l-4.66-1.932c-1.022-0.419-2.19,0.062-2.614,1.082C5.595,23.608,6.079,24.778,7.099,25.201z"
		/>
</g>
</svg>
