<?xml version="1.0" encoding="utf-8"?>
<!-- Generator: Adobe Illustrator 17.0.0, SVG Export Plug-In . SVG Version: 6.00 Build 0)  -->
<!DOCTYPE svg PUBLIC "-//W3C//DTD SVG 1.1//EN" "http://www.w3.org/Graphics/SVG/1.1/DTD/svg11.dtd">
<svg version="1.1" id="Layer_2" xmlns="http://www.w3.org/2000/svg" xmlns:xlink="http://www.w3.org/1999/xlink" x="0px" y="0px"
	 width="60px" height="60px" viewBox="0 0 60 60" enable-background="new 0 0 60 60" xml:space="preserve">
<path fill="#010101" d="M59.72,29.047c-0.254-6.929-3.192-13.343-8.272-18.062c-5.08-4.72-11.696-7.187-18.622-6.924
	c-7.314,0.27-14.243,3.625-19.009,9.205c-3.419,4.003-5.475,8.877-6.043,14.13l-3.877-5.504c-0.636-0.903-1.883-1.121-2.787-0.483
	c-0.903,0.636-1.119,1.884-0.483,2.786l7.565,10.741c0.364,0.518,0.951,0.831,1.583,0.848c0.018,0.001,0.035,0.001,0.052,0.001
	c0.613,0,1.193-0.281,1.573-0.765l8.435-10.741c0.683-0.869,0.531-2.126-0.337-2.809c-0.87-0.683-2.127-0.531-2.808,0.338
	l-4.969,6.328c0.437-4.578,2.188-8.816,5.139-12.272c4.042-4.731,9.915-7.576,16.114-7.805c5.865-0.227,11.456,1.864,15.752,5.855
	c4.297,3.992,6.782,9.418,6.997,15.278c0.216,5.861-1.863,11.456-5.855,15.753c-3.992,4.297-9.418,6.781-15.278,6.996
	c-8.435,0.297-16.403-4.331-20.301-11.825c-0.51-0.98-1.718-1.36-2.697-0.852c-0.98,0.51-1.361,1.718-0.852,2.697
	c4.462,8.578,13.437,13.994,23.053,13.994c0.314,0,0.629-0.005,0.944-0.017c6.929-0.255,13.343-3.192,18.062-8.271
	C57.517,42.589,59.975,35.976,59.72,29.047z"/>
</svg>
