<?xml version="1.0" encoding="utf-8"?>
<!-- Generator: Adobe Illustrator 17.0.0, SVG Export Plug-In . SVG Version: 6.00 Build 0)  -->
<!DOCTYPE svg PUBLIC "-//W3C//DTD SVG 1.1//EN" "http://www.w3.org/Graphics/SVG/1.1/DTD/svg11.dtd">
<svg version="1.1" id="Layer_2" xmlns="http://www.w3.org/2000/svg" xmlns:xlink="http://www.w3.org/1999/xlink" x="0px" y="0px"
	 width="60px" height="60px" viewBox="0 0 60 60" enable-background="new 0 0 60 60" xml:space="preserve">
<g>
	<path fill="#010101" d="M59.446,33.761l-8.11-9.004c-0.32-0.475-0.828-0.79-1.396-0.864c-0.022-0.003-0.044-0.001-0.066-0.004
		c-0.106-0.01-0.213-0.016-0.321-0.009c-0.029,0.001-0.057-0.005-0.086-0.003c-0.08,0.007-0.155,0.032-0.232,0.049
		c-0.014,0.003-0.027,0.002-0.041,0.006c-0.006,0.001-0.011,0.005-0.017,0.006c-0.506,0.124-0.953,0.43-1.231,0.879l-6.533,10.565
		c-0.581,0.939-0.29,2.172,0.649,2.753c0.328,0.202,0.691,0.299,1.05,0.299c0.67,0,1.325-0.336,1.703-0.948l3.625-5.862
		c0.162,10.147-6.483,19.423-16.539,21.967c-1.071,0.271-1.72,1.358-1.449,2.429c0.229,0.906,1.043,1.51,1.938,1.51
		c0.162,0,0.327-0.02,0.492-0.062c11.752-2.972,19.575-13.699,19.567-25.5l4.026,4.47c0.738,0.82,2.003,0.885,2.824,0.147
		C60.12,35.847,60.186,34.583,59.446,33.761z"/>
	<path fill="#010101" d="M43.186,17.988c0.396,0.468,0.96,0.708,1.528,0.708c0.457,0,0.916-0.155,1.291-0.474
		c0.843-0.713,0.948-1.976,0.235-2.818c-4.498-5.314-10.86-8.507-17.914-8.989c-4.763-0.332-9.429,0.602-13.61,2.661l2.268-5.631
		c0.413-1.024-0.084-2.189-1.108-2.602c-1.024-0.413-2.188,0.084-2.602,1.108L8.632,13.474c-0.015,0.039-0.019,0.08-0.032,0.119
		c-0.02,0.061-0.036,0.121-0.05,0.182c-0.018,0.081-0.035,0.16-0.043,0.242c-0.005,0.047-0.003,0.094-0.005,0.142
		c-0.011,0.336,0.061,0.669,0.218,0.974c0.008,0.016,0.013,0.032,0.022,0.048c0.014,0.025,0.02,0.053,0.035,0.077
		c0.044,0.072,0.101,0.131,0.153,0.196c0.014,0.018,0.023,0.038,0.037,0.055c0.006,0.007,0.014,0.012,0.02,0.019
		c0.069,0.079,0.144,0.149,0.224,0.216c0.031,0.026,0.061,0.051,0.093,0.075c0.077,0.057,0.156,0.108,0.24,0.153
		c0.04,0.022,0.082,0.04,0.124,0.059c0.084,0.038,0.167,0.073,0.256,0.1c0.045,0.013,0.091,0.02,0.136,0.03
		c0.076,0.017,0.15,0.042,0.229,0.05l12.361,1.229c0.067,0.007,0.134,0.01,0.2,0.01c1.016,0,1.885-0.771,1.988-1.802
		c0.109-1.1-0.693-2.079-1.792-2.188l-6.755-0.671c3.609-1.818,7.642-2.669,11.76-2.383C34.018,10.813,39.393,13.506,43.186,17.988z
		"/>
	<path fill="#010101" d="M15.168,43.375c-0.46-1.004-1.645-1.448-2.651-0.985c-1.004,0.46-1.445,1.646-0.985,2.651l2.89,6.309
		c-3.446-2.205-6.253-5.301-8.099-9.065c-2.629-5.362-2.997-11.371-1.036-16.918c0.368-1.042-0.178-2.184-1.219-2.553
		c-1.039-0.369-2.184,0.179-2.552,1.219c-2.323,6.569-1.891,13.677,1.216,20.013c2.102,4.287,5.265,7.833,9.141,10.411l-5.931,0.87
		c-1.093,0.16-1.849,1.176-1.689,2.269c0.146,0.995,1.001,1.71,1.977,1.71c0.097,0,0.194-0.007,0.292-0.021l12.292-1.803
		c0.019-0.003,0.037-0.012,0.056-0.015c0.074-0.018,0.147-0.032,0.218-0.058c0.504-0.149,0.938-0.481,1.193-0.95
		c0.301-0.553,0.323-1.216,0.061-1.788L15.168,43.375z"/>
</g>
</svg>
