<?xml version="1.0" encoding="utf-8"?>
<!-- Generator: Adobe Illustrator 17.0.0, SVG Export Plug-In . SVG Version: 6.00 Build 0)  -->
<!DOCTYPE svg PUBLIC "-//W3C//DTD SVG 1.1//EN" "http://www.w3.org/Graphics/SVG/1.1/DTD/svg11.dtd">
<svg version="1.1" id="Layer_2" xmlns="http://www.w3.org/2000/svg" xmlns:xlink="http://www.w3.org/1999/xlink" x="0px" y="0px"
	 width="60px" height="60px" viewBox="0 0 60 60" enable-background="new 0 0 60 60" xml:space="preserve">
<path fill="#010101" d="M59.694,28.976L43.302,13.192c-0.187-0.179-0.435-0.279-0.694-0.279H1c-0.552,0-1,0.447-1,1v32.174
	c0,0.553,0.448,1,1,1h41.608c0.265,0,0.52-0.105,0.707-0.293l16.392-16.391c0.19-0.189,0.295-0.448,0.293-0.717
	C59.998,29.418,59.887,29.162,59.694,28.976z M27.478,30.913H9.826c-0.552,0-1-0.447-1-1c0-0.553,0.448-1,1-1h17.652
	c0.552,0,1,0.447,1,1C28.478,30.466,28.031,30.913,27.478,30.913z"/>
</svg>
