<?xml version="1.0" encoding="utf-8"?>
<!-- Generator: Adobe Illustrator 17.0.0, SVG Export Plug-In . SVG Version: 6.00 Build 0)  -->
<!DOCTYPE svg PUBLIC "-//W3C//DTD SVG 1.1//EN" "http://www.w3.org/Graphics/SVG/1.1/DTD/svg11.dtd">
<svg version="1.1" id="Layer_2" xmlns="http://www.w3.org/2000/svg" xmlns:xlink="http://www.w3.org/1999/xlink" x="0px" y="0px"
	 width="60px" height="60px" viewBox="0 0 60 60" enable-background="new 0 0 60 60" xml:space="preserve">
<path fill="#010101" d="M41.586,43.585L32,53.171V6.828l9.586,9.586c0.39,0.391,0.902,0.586,1.414,0.586
	c0.512,0,1.024-0.195,1.414-0.586c0.781-0.781,0.781-2.047,0-2.828L31.415,0.587c-0.093-0.093-0.196-0.177-0.306-0.25
	c-0.05-0.034-0.105-0.057-0.158-0.086c-0.062-0.033-0.121-0.071-0.187-0.098c-0.067-0.028-0.136-0.044-0.206-0.064
	c-0.056-0.017-0.11-0.039-0.168-0.05c-0.259-0.051-0.525-0.051-0.784,0c-0.058,0.012-0.112,0.033-0.169,0.05
	c-0.069,0.02-0.138,0.036-0.205,0.063c-0.066,0.027-0.125,0.065-0.188,0.099c-0.052,0.029-0.107,0.052-0.157,0.085
	c-0.11,0.073-0.213,0.157-0.306,0.25L15.586,13.585c-0.781,0.781-0.781,2.047,0,2.828c0.78,0.781,2.048,0.781,2.828,0L28,6.828
	v46.344l-9.586-9.586c-0.78-0.781-2.048-0.781-2.828,0c-0.781,0.781-0.781,2.047,0,2.828l12.999,12.998
	c0.093,0.093,0.196,0.177,0.306,0.251c0.05,0.033,0.103,0.056,0.155,0.084c0.063,0.035,0.123,0.072,0.19,0.1
	c0.066,0.027,0.135,0.043,0.203,0.063c0.057,0.017,0.112,0.039,0.171,0.05c0.129,0.026,0.26,0.04,0.392,0.04
	c0.131,0,0.262-0.014,0.392-0.04c0.059-0.012,0.114-0.034,0.171-0.05c0.068-0.02,0.137-0.036,0.203-0.063
	c0.067-0.028,0.127-0.065,0.19-0.1c0.052-0.028,0.105-0.051,0.155-0.084c0.11-0.073,0.213-0.157,0.306-0.251l12.999-12.998
	c0.781-0.781,0.781-2.047,0-2.828C43.634,42.804,42.366,42.804,41.586,43.585z"/>
</svg>
