<?xml version="1.0" encoding="utf-8"?>
<!-- Generator: Adobe Illustrator 17.0.0, SVG Export Plug-In . SVG Version: 6.00 Build 0)  -->
<!DOCTYPE svg PUBLIC "-//W3C//DTD SVG 1.1//EN" "http://www.w3.org/Graphics/SVG/1.1/DTD/svg11.dtd">
<svg version="1.1" id="Layer_2" xmlns="http://www.w3.org/2000/svg" xmlns:xlink="http://www.w3.org/1999/xlink" x="0px" y="0px"
	 width="60px" height="60px" viewBox="0 0 60 60" enable-background="new 0 0 60 60" xml:space="preserve">
<path fill="#010101" d="M59.997,29.467c0-0.011,0.003-0.022,0.002-0.033c-0.002-0.054-0.016-0.104-0.022-0.158
	c-0.008-0.073-0.014-0.146-0.03-0.216c-0.013-0.056-0.033-0.108-0.05-0.161c-0.024-0.074-0.046-0.148-0.078-0.219
	c-0.023-0.05-0.052-0.097-0.079-0.145c-0.037-0.067-0.074-0.134-0.119-0.197c-0.033-0.046-0.071-0.087-0.107-0.13
	c-0.05-0.059-0.1-0.116-0.156-0.168c-0.015-0.014-0.026-0.031-0.042-0.045l-8-7c-0.831-0.726-2.094-0.642-2.822,0.188
	c-0.727,0.832-0.643,2.095,0.188,2.822l3.994,3.495H7.323l3.994-3.495c0.832-0.728,0.915-1.99,0.189-2.822
	c-0.728-0.83-1.991-0.917-2.822-0.188l-8,7c-0.016,0.014-0.027,0.031-0.042,0.045c-0.056,0.052-0.106,0.109-0.156,0.168
	c-0.037,0.043-0.074,0.084-0.107,0.13c-0.045,0.062-0.082,0.129-0.119,0.197C0.232,28.583,0.203,28.63,0.18,28.68
	c-0.032,0.07-0.054,0.145-0.078,0.219c-0.017,0.054-0.038,0.106-0.05,0.161c-0.016,0.07-0.021,0.144-0.03,0.216
	c-0.006,0.053-0.02,0.104-0.022,0.158c0,0.011,0.002,0.022,0.002,0.033C0.003,29.479,0,29.489,0,29.5
	c0,0.062,0.013,0.122,0.018,0.183c0.006,0.063,0.007,0.126,0.019,0.188c0.015,0.083,0.042,0.16,0.067,0.239
	c0.015,0.047,0.025,0.097,0.044,0.143c0.035,0.087,0.082,0.167,0.128,0.248c0.02,0.035,0.035,0.071,0.057,0.104
	c0.074,0.112,0.159,0.217,0.253,0.312l7.999,7.999C8.976,39.305,9.488,39.5,10,39.5c0.512,0,1.024-0.195,1.414-0.586
	c0.781-0.781,0.781-2.047,0-2.828L6.828,31.5h46.344l-4.586,4.586c-0.781,0.781-0.781,2.047,0,2.828
	C48.976,39.305,49.488,39.5,50,39.5c0.512,0,1.024-0.195,1.414-0.586l7.999-7.999c0.095-0.095,0.179-0.2,0.253-0.312
	c0.022-0.033,0.037-0.07,0.057-0.104c0.047-0.081,0.093-0.161,0.128-0.248c0.019-0.046,0.029-0.096,0.044-0.143
	c0.025-0.079,0.052-0.156,0.067-0.239c0.012-0.062,0.013-0.125,0.019-0.188C59.987,29.622,60,29.563,60,29.5
	C60,29.489,59.997,29.479,59.997,29.467z"/>
</svg>
