<?xml version="1.0" encoding="utf-8"?>
<!-- Generator: Adobe Illustrator 17.0.0, SVG Export Plug-In . SVG Version: 6.00 Build 0)  -->
<!DOCTYPE svg PUBLIC "-//W3C//DTD SVG 1.1//EN" "http://www.w3.org/Graphics/SVG/1.1/DTD/svg11.dtd">
<svg version="1.1" id="Layer_2" xmlns="http://www.w3.org/2000/svg" xmlns:xlink="http://www.w3.org/1999/xlink" x="0px" y="0px"
	 width="60px" height="60px" viewBox="0 0 60 60" enable-background="new 0 0 60 60" xml:space="preserve">
<path fill="#010101" d="M53.998,7.978c-0.001-0.085-0.014-0.169-0.026-0.253c-0.006-0.046-0.007-0.095-0.017-0.14
	c-0.015-0.07-0.042-0.137-0.064-0.205c-0.018-0.056-0.031-0.113-0.053-0.166c-0.021-0.05-0.053-0.096-0.078-0.145
	c-0.035-0.066-0.067-0.135-0.109-0.196c-0.025-0.037-0.058-0.069-0.086-0.104c-0.054-0.069-0.108-0.138-0.171-0.199
	c-0.005-0.005-0.008-0.011-0.013-0.016c-0.032-0.031-0.07-0.053-0.104-0.081c-0.061-0.051-0.121-0.104-0.188-0.147
	c-0.056-0.037-0.115-0.064-0.173-0.094c-0.056-0.029-0.111-0.061-0.17-0.084C52.675,6.119,52.602,6.1,52.529,6.08
	c-0.051-0.015-0.101-0.032-0.154-0.042C52.284,6.021,52.192,6.015,52.1,6.01C52.066,6.008,52.034,6,52,6h-0.039
	c-0.004,0-0.009,0-0.013,0H35.217c-1.105,0-2,0.896-2,2c0,1.105,0.895,2,2,2h12.109L12,47.008V33.652c0-1.104-0.896-2-2-2
	c-1.105,0-2,0.896-2,2V52c0,0.007,0.002,0.014,0.002,0.022c0.001,0.085,0.014,0.169,0.026,0.253c0.006,0.046,0.007,0.095,0.017,0.14
	c0.015,0.07,0.042,0.137,0.064,0.205c0.018,0.056,0.031,0.113,0.053,0.166c0.022,0.05,0.053,0.096,0.078,0.145
	c0.035,0.066,0.067,0.135,0.109,0.196c0.025,0.037,0.058,0.069,0.086,0.104c0.054,0.069,0.108,0.138,0.171,0.199
	c0.005,0.005,0.008,0.011,0.013,0.016c0.036,0.034,0.077,0.059,0.115,0.09c0.057,0.047,0.111,0.095,0.173,0.136
	c0.057,0.037,0.117,0.064,0.176,0.096c0.054,0.028,0.106,0.059,0.163,0.083c0.071,0.029,0.146,0.048,0.219,0.068
	c0.05,0.014,0.097,0.033,0.148,0.042C9.741,53.986,9.87,54,9.999,54h0h0h17.652c1.104,0,2-0.895,2-2c0-1.104-0.896-2-2-2H14.674
	L50,12.992v13.096c0,1.104,0.895,2,2,2c1.104,0,2-0.896,2-2V8C54,7.993,53.998,7.986,53.998,7.978z"/>
</svg>
