<?xml version="1.0" encoding="utf-8"?>
<!-- Generator: Adobe Illustrator 17.0.0, SVG Export Plug-In . SVG Version: 6.00 Build 0)  -->
<!DOCTYPE svg PUBLIC "-//W3C//DTD SVG 1.1//EN" "http://www.w3.org/Graphics/SVG/1.1/DTD/svg11.dtd">
<svg version="1.1" id="Layer_2" xmlns="http://www.w3.org/2000/svg" xmlns:xlink="http://www.w3.org/1999/xlink" x="0px" y="0px"
	 width="60px" height="60px" viewBox="0 0 60 60" enable-background="new 0 0 60 60" xml:space="preserve">
<path fill="#010101" d="M59.96,29.608c-0.012-0.06-0.034-0.115-0.051-0.173c-0.02-0.067-0.035-0.135-0.062-0.2
	c-0.028-0.068-0.067-0.131-0.103-0.196c-0.027-0.049-0.049-0.101-0.08-0.148c-0.074-0.11-0.157-0.213-0.251-0.307L46.414,15.586
	c-0.78-0.781-2.048-0.781-2.828,0c-0.781,0.781-0.781,2.047,0,2.828L53.171,28H6.829l9.585-9.586c0.781-0.781,0.781-2.047,0-2.828
	c-0.78-0.781-2.048-0.781-2.828,0L0.587,28.585c-0.093,0.093-0.177,0.197-0.251,0.307c-0.032,0.048-0.053,0.099-0.08,0.148
	c-0.036,0.065-0.075,0.127-0.103,0.196c-0.027,0.065-0.042,0.133-0.062,0.2c-0.017,0.058-0.04,0.113-0.051,0.173
	c-0.052,0.259-0.052,0.524,0,0.783c0.012,0.06,0.034,0.115,0.051,0.173c0.02,0.067,0.035,0.135,0.062,0.2
	c0.028,0.068,0.067,0.131,0.103,0.196c0.027,0.049,0.049,0.101,0.08,0.149c0.074,0.11,0.157,0.213,0.251,0.307l12.999,12.999
	C13.976,44.805,14.488,45,15,45c0.512,0,1.024-0.195,1.414-0.586c0.781-0.781,0.781-2.047,0-2.828L6.829,32h46.343l-9.585,9.586
	c-0.781,0.781-0.781,2.047,0,2.828C43.976,44.805,44.488,45,45,45c0.512,0,1.024-0.195,1.414-0.586l12.999-12.999
	c0.093-0.093,0.177-0.197,0.251-0.307c0.032-0.048,0.053-0.099,0.08-0.149c0.036-0.065,0.075-0.127,0.103-0.196
	c0.027-0.065,0.042-0.133,0.062-0.2c0.017-0.058,0.04-0.113,0.051-0.173C60.012,30.133,60.012,29.867,59.96,29.608z"/>
</svg>
