<?xml version="1.0" encoding="utf-8"?>
<!-- Generator: Adobe Illustrator 17.0.0, SVG Export Plug-In . SVG Version: 6.00 Build 0)  -->
<!DOCTYPE svg PUBLIC "-//W3C//DTD SVG 1.1//EN" "http://www.w3.org/Graphics/SVG/1.1/DTD/svg11.dtd">
<svg version="1.1" id="Layer_2" xmlns="http://www.w3.org/2000/svg" xmlns:xlink="http://www.w3.org/1999/xlink" x="0px" y="0px"
	 width="60px" height="60px" viewBox="0 0 60 60" enable-background="new 0 0 60 60" xml:space="preserve">
<g>
	<path fill="#010101" d="M30,0C13.458,0,0,13.458,0,30s13.458,30,30,30s30-13.458,30-30S46.542,0,30,0z M30,56
		C15.664,56,4,44.337,4,30S15.664,4,30,4c14.336,0,26,11.663,26,26S44.336,56,30,56z"/>
	<path fill="#010101" d="M47.101,25.706c-0.006-0.041-0.007-0.083-0.015-0.124c-0.02-0.094-0.052-0.186-0.086-0.277
		c-0.011-0.028-0.016-0.059-0.028-0.087c-0.049-0.116-0.11-0.228-0.182-0.335c-0.072-0.107-0.155-0.207-0.246-0.298l-6.999-6.999
		c-0.78-0.781-2.048-0.781-2.828,0c-0.781,0.781-0.781,2.047,0,2.828L40.302,24H21.174c-0.057,0-0.115,0.003-0.172,0.008
		c-5.171,0.445-8.104,4.275-7.847,10.247c0.152,3.541,1.975,10.484,5.498,10.484c1.104,0,2-0.896,2-2
		c0-0.923-0.625-1.699-1.475-1.931c-0.985-1.065-2.797-6.224-1.698-9.816c0.564-1.844,1.768-2.797,3.785-2.992h19.457l-4.097,4.683
		c-0.727,0.832-0.643,2.095,0.188,2.822C37.193,35.837,37.662,36,38.129,36c0.557,0,1.111-0.231,1.506-0.683l7-8
		c0.029-0.033,0.049-0.071,0.076-0.105c0.038-0.049,0.076-0.099,0.109-0.151c0.036-0.058,0.067-0.118,0.097-0.179
		c0.026-0.053,0.052-0.105,0.074-0.161c0.026-0.067,0.044-0.135,0.063-0.203c0.015-0.054,0.03-0.107,0.041-0.163
		c0.014-0.079,0.02-0.159,0.024-0.239C47.121,26.077,47.13,26.04,47.13,26c0-0.011-0.003-0.021-0.003-0.031
		C47.126,25.881,47.114,25.794,47.101,25.706z"/>
</g>
</svg>
