<?xml version="1.0" encoding="utf-8"?>
<!-- Generator: Adobe Illustrator 17.0.0, SVG Export Plug-In . SVG Version: 6.00 Build 0)  -->
<!DOCTYPE svg PUBLIC "-//W3C//DTD SVG 1.1//EN" "http://www.w3.org/Graphics/SVG/1.1/DTD/svg11.dtd">
<svg version="1.1" id="Layer_2" xmlns="http://www.w3.org/2000/svg" xmlns:xlink="http://www.w3.org/1999/xlink" x="0px" y="0px"
	 width="60px" height="60px" viewBox="0 0 60 60" enable-background="new 0 0 60 60" xml:space="preserve">
<g>
	<path fill="#010101" d="M30,0C13.458,0,0,13.458,0,30s13.458,30,30,30s30-13.458,30-30S46.542,0,30,0z M30,56
		C15.664,56,4,44.337,4,30S15.664,4,30,4c14.336,0,26,11.663,26,26S44.336,56,30,56z"/>
	<path fill="#010101" d="M51.078,25.206L37.425,11.337c-0.569-0.578-1.431-0.755-2.184-0.447C34.491,11.197,34,11.929,34,12.74
		v5.391H21.913c-5.759,0-11.913,3.678-11.913,14c0,6.171,4.224,11.836,4.404,12.074C14.789,44.716,15.385,45,16,45
		c0.212,0,0.426-0.033,0.635-0.104C17.451,44.623,18,43.859,18,43v-4.869c0-1.204,0-2,3.913-2H34v4.348
		c0,0.812,0.491,1.543,1.242,1.851c0.752,0.309,1.614,0.132,2.184-0.447l13.652-13.869C51.844,27.234,51.844,25.984,51.078,25.206z
		 M38,35.596v-1.465c0-1.104-0.896-2-2-2H21.913c-2.935,0-6.215,0.433-7.428,3.297C14.191,34.371,14,33.253,14,32.131
		c0-3.007,0.771-10,7.913-10H36c1.104,0,2-0.896,2-2v-2.508l8.846,8.986L38,35.596z"/>
</g>
</svg>
