<?xml version="1.0" encoding="utf-8"?>
<!-- Generator: Adobe Illustrator 17.0.0, SVG Export Plug-In . SVG Version: 6.00 Build 0)  -->
<!DOCTYPE svg PUBLIC "-//W3C//DTD SVG 1.1//EN" "http://www.w3.org/Graphics/SVG/1.1/DTD/svg11.dtd">
<svg version="1.1" id="Layer_2" xmlns="http://www.w3.org/2000/svg" xmlns:xlink="http://www.w3.org/1999/xlink" x="0px" y="0px"
	 width="60px" height="60px" viewBox="0 0 60 60" enable-background="new 0 0 60 60" xml:space="preserve">
<g>
	<path fill="#010101" d="M26.805,15.413l1.586-1.586v16.998c0,1.104,0.895,2,2,2c1.104,0,2-0.896,2-2V13.828l1.586,1.586
		c0.39,0.391,0.902,0.586,1.414,0.586s1.024-0.195,1.414-0.586c0.781-0.781,0.781-2.047,0-2.828l-4.999-4.999
		C31.713,7.494,31.611,7.41,31.5,7.336c-0.05-0.034-0.105-0.057-0.158-0.086c-0.062-0.033-0.121-0.071-0.187-0.098
		c-0.067-0.028-0.136-0.044-0.205-0.064c-0.056-0.017-0.11-0.039-0.168-0.05c-0.259-0.051-0.525-0.051-0.784,0
		c-0.058,0.012-0.112,0.033-0.169,0.05c-0.069,0.02-0.138,0.036-0.205,0.063c-0.066,0.027-0.125,0.065-0.188,0.099
		c-0.052,0.029-0.107,0.052-0.157,0.085c-0.11,0.073-0.213,0.157-0.306,0.251l-4.999,4.999c-0.781,0.781-0.781,2.047,0,2.828
		C24.757,16.195,26.025,16.195,26.805,15.413z"/>
	<path fill="#010101" d="M37.075,17.628c-1.02-0.429-2.191,0.056-2.616,1.075c-0.425,1.019,0.056,2.19,1.075,2.616
		c5.381,2.246,8.857,7.462,8.857,13.289c0,7.935-6.456,14.391-14.391,14.391c-7.935,0-14.391-6.456-14.391-14.391
		c0-5.799,3.449-11.004,8.786-13.262c1.018-0.43,1.494-1.604,1.064-2.621c-0.43-1.017-1.605-1.493-2.621-1.062
		c-6.821,2.884-11.228,9.536-11.228,16.945c0,10.141,8.25,18.391,18.391,18.391c10.141,0,18.391-8.25,18.391-18.391
		C48.391,27.163,43.949,20.497,37.075,17.628z"/>
</g>
</svg>
