<?xml version="1.0" encoding="utf-8"?>
<!-- Generator: Adobe Illustrator 17.0.0, SVG Export Plug-In . SVG Version: 6.00 Build 0)  -->
<!DOCTYPE svg PUBLIC "-//W3C//DTD SVG 1.1//EN" "http://www.w3.org/Graphics/SVG/1.1/DTD/svg11.dtd">
<svg version="1.1" id="Layer_2" xmlns="http://www.w3.org/2000/svg" xmlns:xlink="http://www.w3.org/1999/xlink" x="0px" y="0px"
	 width="60px" height="60px" viewBox="0 0 60 60" enable-background="new 0 0 60 60" xml:space="preserve">
<g>
	<path fill="#010101" d="M24.07,11.317l3.495-3.994v17.894c0,1.104,0.896,2,2,2s2-0.896,2-2V7.323l3.495,3.994
		C35.455,11.769,36.009,12,36.566,12c0.467,0,0.937-0.163,1.316-0.495c0.832-0.728,0.916-1.99,0.188-2.822l-7-8
		c-0.013-0.015-0.03-0.025-0.044-0.039c-0.075-0.081-0.158-0.153-0.246-0.221c-0.012-0.009-0.022-0.02-0.034-0.028
		C30.415,0.149,30.009,0,29.565,0c-0.444,0-0.85,0.149-1.182,0.394c-0.012,0.008-0.022,0.02-0.034,0.028
		c-0.088,0.067-0.17,0.14-0.246,0.221c-0.014,0.015-0.031,0.024-0.044,0.039l-7,8c-0.727,0.832-0.643,2.095,0.188,2.822
		C22.08,12.233,23.343,12.148,24.07,11.317z"/>
	<path fill="#010101" d="M38.274,14.635c-1.035-0.392-2.188,0.131-2.578,1.165c-0.39,1.033,0.131,2.188,1.165,2.577
		c7.521,2.84,12.574,10.148,12.574,18.188C49.435,47.281,40.716,56,30,56c-10.716,0-19.434-8.719-19.434-19.435
		c0-8.043,5.054-15.352,12.576-18.19c1.033-0.39,1.555-1.544,1.165-2.577c-0.39-1.033-1.542-1.558-2.577-1.165
		c-9.07,3.421-15.163,12.235-15.163,21.933C6.565,49.487,17.078,60,30,60c12.922,0,23.435-10.513,23.435-23.435
		C53.435,26.872,47.342,18.059,38.274,14.635z"/>
</g>
</svg>
