<?xml version="1.0" encoding="utf-8"?>
<!-- Generator: Adobe Illustrator 17.0.0, SVG Export Plug-In . SVG Version: 6.00 Build 0)  -->
<!DOCTYPE svg PUBLIC "-//W3C//DTD SVG 1.1//EN" "http://www.w3.org/Graphics/SVG/1.1/DTD/svg11.dtd">
<svg version="1.1" id="Layer_2" xmlns="http://www.w3.org/2000/svg" xmlns:xlink="http://www.w3.org/1999/xlink" x="0px" y="0px"
	 width="60px" height="60px" viewBox="0 0 60 60" enable-background="new 0 0 60 60" xml:space="preserve">
<g>
	<path fill="#010101" d="M37.074,14.911c-1.021-0.426-2.191,0.057-2.616,1.076c-0.425,1.019,0.056,2.19,1.076,2.615
		c5.38,2.244,8.857,7.461,8.857,13.289c0,7.935-6.456,14.392-14.391,14.392s-14.391-6.456-14.391-14.392
		c0-5.798,3.45-11.003,8.79-13.262c1.017-0.43,1.493-1.603,1.062-2.621c-0.431-1.018-1.603-1.491-2.621-1.062
		c-6.822,2.886-11.231,9.537-11.231,16.945c0,10.142,8.25,18.392,18.391,18.392s18.391-8.25,18.391-18.392
		C48.391,24.444,43.949,17.778,37.074,14.911z"/>
	<path fill="#010101" d="M29.916,30.109c1.105,0,2-0.896,2-2V11.717c0-1.104-0.895-2-2-2c-1.104,0-2,0.896-2,2v16.392
		C27.916,29.213,28.812,30.109,29.916,30.109z"/>
</g>
</svg>
