<?xml version="1.0" encoding="utf-8"?>
<!-- Generator: Adobe Illustrator 17.0.0, SVG Export Plug-In . SVG Version: 6.00 Build 0)  -->
<!DOCTYPE svg PUBLIC "-//W3C//DTD SVG 1.1//EN" "http://www.w3.org/Graphics/SVG/1.1/DTD/svg11.dtd">
<svg version="1.1" id="Layer_2" xmlns="http://www.w3.org/2000/svg" xmlns:xlink="http://www.w3.org/1999/xlink" x="0px" y="0px"
	 width="60px" height="60px" viewBox="0 0 60 60" enable-background="new 0 0 60 60" xml:space="preserve">
<g>
	<path fill="#010101" d="M30,0C13.458,0,0,13.458,0,30s13.458,30,30,30s30-13.458,30-30S46.542,0,30,0z M30,56
		C15.664,56,4,44.337,4,30S15.664,4,30,4c14.336,0,26,11.663,26,26S44.336,56,30,56z"/>
	<path fill="#010101" d="M30,15.392c-1.105,0-2,0.896-2,2v23.957c0,1.104,0.895,2,2,2c1.104,0,2-0.896,2-2V17.392
		C32,16.287,31.104,15.392,30,15.392z"/>
</g>
</svg>
