<?xml version="1.0" encoding="utf-8"?>
<!-- Generator: Adobe Illustrator 17.0.0, SVG Export Plug-In . SVG Version: 6.00 Build 0)  -->
<!DOCTYPE svg PUBLIC "-//W3C//DTD SVG 1.1//EN" "http://www.w3.org/Graphics/SVG/1.1/DTD/svg11.dtd">
<svg version="1.1" id="Layer_2" xmlns="http://www.w3.org/2000/svg" xmlns:xlink="http://www.w3.org/1999/xlink" x="0px" y="0px"
	 width="60px" height="60px" viewBox="0 0 60 60" enable-background="new 0 0 60 60" xml:space="preserve">
<g>
	<path fill="#010101" d="M28.786,39.811H17.152L8.857,50.203c0.234,0.437,0.466,0.869,0.696,1.293
		c0.156,0.349,0.298,0.546,0.339,0.6c0.034,0.044,0.085,0.064,0.124,0.101c1.029,1.502,3.136,3.613,4.77,3.613h14
		c0.552,0,1-0.447,1-1v-14C29.786,40.258,29.338,39.811,28.786,39.811z"/>
	<path fill="#010101" d="M17.763,35.854h4.589c0.371,0,0.711-0.205,0.884-0.533c0.173-0.327,0.151-0.724-0.058-1.03l-7.565-11.086
		c-0.187-0.273-0.496-0.437-0.826-0.437H0.916c-0.411,0-0.78,0.251-0.931,0.634s-0.052,0.818,0.25,1.098l2.96,2.756
		c-0.876,0.897-2.018,2.549-2.018,5.077c0,2.604,3.311,9.567,6.659,15.943l7.732-9.687C16.214,37.723,16.927,36.82,17.763,35.854z"
		/>
	<path fill="#010101" d="M59.455,29.9l-8.036-11.618c-0.314-0.456-0.938-0.569-1.391-0.254l-10.936,7.563
		c-0.223,0.154-0.374,0.392-0.418,0.659c-0.044,0.268,0.022,0.541,0.184,0.759c2.236,3.016,5.359,7.257,7.443,10.134h12.162
		c0.254-0.455,0.504-0.905,0.75-1.35c0.162-0.232,0.296-0.468,0.406-0.707c0.078-0.153,0.12-0.254,0.132-0.285
		c0.002-0.004,0.001-0.009,0.002-0.013c0.003-0.01,0.01-0.02,0.013-0.029C60.027,34.005,60.453,31.344,59.455,29.9z"/>
	<path fill="#010101" d="M45.842,39.206c-0.001,0-0.001,0-0.001,0c-1.129,0-2.329-0.067-3.576-0.201v-4.151
		c0-0.44-0.289-0.829-0.71-0.957c-0.421-0.127-0.876,0.036-1.122,0.402l-7.565,11.348c-0.209,0.313-0.224,0.717-0.04,1.045
		l7.098,12.609c0.18,0.319,0.516,0.51,0.872,0.51c0.071,0,0.144-0.008,0.215-0.023c0.43-0.095,0.747-0.459,0.782-0.898l0.353-4.465
		c0.557,0.191,1.244,0.346,2.009,0.346c1.182,0,2.299-0.358,3.321-1.065c2.082-1.44,6.198-8.118,9.859-14.562h-9.748
		C47.032,39.18,46.457,39.206,45.842,39.206z"/>
	<path fill="#010101" d="M9.957,17.156l12.024,5.673c0.135,0.063,0.281,0.096,0.427,0.096c0.115,0,0.23-0.02,0.34-0.06
		c0.25-0.091,0.454-0.278,0.566-0.519c0.033-0.07,2.417-5.191,4.286-9.119L19.518,0.307c-1.352,0.184-3.38,1.404-4.012,2.743
		L9.479,15.825C9.243,16.325,9.457,16.921,9.957,17.156z"/>
	<path fill="#010101" d="M44.67,17.277l6.305-11.951c0.193-0.366,0.141-0.814-0.132-1.126c-0.273-0.312-0.711-0.419-1.098-0.279
		L45.71,5.409c-0.384-1.181-1.321-2.898-3.601-3.973c-0.654-0.309-2.645-1.247-15.517-1.247c-1.511,0-3.13,0.014-4.763,0.041
		l7.831,12.52l-0.015,0.01c0.459,0.751,0.906,1.53,1.322,2.363l-1.518,0.804c-0.406,0.215-0.613,0.679-0.503,1.125
		c0.111,0.445,0.511,0.759,0.971,0.759h13.87C44.157,17.811,44.497,17.606,44.67,17.277z"/>
</g>
</svg>
