<?xml version="1.0" encoding="utf-8"?>
<!-- Generator: Adobe Illustrator 17.0.0, SVG Export Plug-In . SVG Version: 6.00 Build 0)  -->
<!DOCTYPE svg PUBLIC "-//W3C//DTD SVG 1.1//EN" "http://www.w3.org/Graphics/SVG/1.1/DTD/svg11.dtd">
<svg version="1.1" id="Layer_2" xmlns="http://www.w3.org/2000/svg" xmlns:xlink="http://www.w3.org/1999/xlink" x="0px" y="0px"
	 width="60px" height="60px" viewBox="0 0 60 60" enable-background="new 0 0 60 60" xml:space="preserve">
<path fill="#010101" d="M59.482,29.054c-0.254-6.928-3.192-13.342-8.272-18.062S39.513,3.824,32.588,4.068
	c-7.047,0.26-13.521,3.307-18.23,8.578c-3.731,4.176-6.029,9.452-6.722,15.254l-3.497-4.997c-0.634-0.906-1.88-1.125-2.786-0.492
	c-0.905,0.634-1.125,1.881-0.492,2.785l7,10c0.011,0.017,0.027,0.028,0.04,0.044c0.05,0.067,0.108,0.128,0.166,0.188
	c0.04,0.042,0.077,0.088,0.121,0.126c0.076,0.066,0.159,0.121,0.244,0.175c0.075,0.048,0.153,0.088,0.234,0.125
	c0.074,0.035,0.148,0.07,0.227,0.096c0.058,0.018,0.119,0.028,0.179,0.041c0.08,0.018,0.159,0.034,0.241,0.043
	c0.022,0.002,0.043,0.01,0.065,0.011c0.041,0.003,0.082,0.004,0.122,0.004c0.026,0,0.05-0.007,0.076-0.008
	c0.025-0.001,0.05,0.004,0.076,0.002c0.048-0.004,0.093-0.018,0.14-0.025c0.063-0.009,0.126-0.018,0.187-0.033
	c0.077-0.019,0.149-0.045,0.222-0.072c0.053-0.02,0.105-0.037,0.156-0.062c0.076-0.036,0.145-0.079,0.215-0.123
	c0.043-0.028,0.088-0.053,0.13-0.084c0.072-0.054,0.136-0.116,0.199-0.179c0.028-0.027,0.06-0.048,0.086-0.078l9-10
	c0.739-0.821,0.672-2.086-0.149-2.824c-0.82-0.739-2.085-0.672-2.825,0.148l-5.451,6.057c0.54-5.148,2.52-9.81,5.779-13.459
	c3.978-4.452,9.445-7.025,15.394-7.244c5.869-0.213,11.455,1.865,15.751,5.857c4.297,3.992,6.783,9.418,6.998,15.278
	c0.218,5.86-1.86,11.454-5.853,15.752c-3.992,4.297-9.419,6.781-15.28,6.996c-1.104,0.041-1.966,0.969-1.925,2.072
	c0.04,1.079,0.926,1.927,1.997,1.927c0.025,0,0.05,0,0.075-0.001c6.93-0.255,13.345-3.192,18.064-8.271
	C57.283,42.595,59.74,35.982,59.482,29.054z"/>
</svg>
