<?xml version="1.0" encoding="utf-8"?>
<!-- Generator: Adobe Illustrator 17.0.0, SVG Export Plug-In . SVG Version: 6.00 Build 0)  -->
<!DOCTYPE svg PUBLIC "-//W3C//DTD SVG 1.1//EN" "http://www.w3.org/Graphics/SVG/1.1/DTD/svg11.dtd">
<svg version="1.1" id="Layer_2" xmlns="http://www.w3.org/2000/svg" xmlns:xlink="http://www.w3.org/1999/xlink" x="0px" y="0px"
	 width="60px" height="60px" viewBox="0 0 60 60" enable-background="new 0 0 60 60" xml:space="preserve">
<path fill="#010101" d="M44.585,14.63c-7.175,0-11.8,7.268-16.273,14.296C24.42,35.043,20.394,41.37,15.415,41.37
	c-6.269,0-11.37-5.101-11.37-11.37c0-6.269,5.101-11.369,11.37-11.369c2.968,0,5.251,1.851,6.79,3.689l-3.927-0.741
	c-1.084-0.21-2.132,0.508-2.336,1.594c-0.205,1.085,0.509,2.132,1.594,2.336l8.446,1.595c0.123,0.023,0.248,0.035,0.371,0.035
	c0.002,0,0.004-0.001,0.005-0.001c0.171,0,0.344-0.031,0.514-0.077c0.046-0.013,0.09-0.027,0.135-0.042
	c0.044-0.015,0.089-0.023,0.133-0.042c0.111-0.047,0.212-0.107,0.309-0.171c0.01-0.006,0.021-0.008,0.031-0.015
	c0.003-0.002,0.005-0.004,0.008-0.006c0.063-0.043,0.116-0.096,0.173-0.145c0.041-0.036,0.087-0.067,0.125-0.107
	c0.064-0.066,0.116-0.139,0.17-0.212c0.023-0.032,0.052-0.059,0.073-0.092c0.051-0.078,0.09-0.163,0.129-0.247
	c0.016-0.033,0.037-0.064,0.05-0.098c0.049-0.121,0.086-0.246,0.11-0.374l0,0l1.593-8.445c0.205-1.086-0.509-2.132-1.595-2.337
	c-1.082-0.205-2.131,0.509-2.336,1.595l-0.658,3.488c-2.101-2.533-5.371-5.18-9.907-5.18c-8.475,0-15.37,6.895-15.37,15.369
	c0,8.476,6.895,15.37,15.37,15.37c7.175,0,11.8-7.268,16.272-14.296c3.893-6.117,7.919-12.443,12.898-12.443
	c6.269,0,11.37,5.101,11.37,11.369c0,6.27-5.101,11.37-11.37,11.37c-6.023,0-9.101-4.905-9.224-5.107
	c-0.568-0.947-1.797-1.255-2.744-0.686c-0.947,0.568-1.254,1.797-0.686,2.744c0.172,0.287,4.325,7.048,12.654,7.048
	c8.475,0,15.37-6.895,15.37-15.37C59.955,21.525,53.06,14.63,44.585,14.63z"/>
</svg>
