<?xml version="1.0" encoding="utf-8"?>
<!-- Generator: Adobe Illustrator 17.0.0, SVG Export Plug-In . SVG Version: 6.00 Build 0)  -->
<!DOCTYPE svg PUBLIC "-//W3C//DTD SVG 1.1//EN" "http://www.w3.org/Graphics/SVG/1.1/DTD/svg11.dtd">
<svg version="1.1" id="Layer_2" xmlns="http://www.w3.org/2000/svg" xmlns:xlink="http://www.w3.org/1999/xlink" x="0px" y="0px"
	 width="60px" height="60px" viewBox="0 0 60 60" enable-background="new 0 0 60 60" xml:space="preserve">
<g>
	<path fill="#010101" d="M59.721,29.054c-0.254-6.928-3.191-13.343-8.271-18.062c-5.08-4.719-11.7-7.171-18.622-6.924
		c-7.217,0.267-14.107,3.65-18.903,9.285c-3.386,3.978-5.455,8.75-6.081,13.857l-3.918-5.877c-0.613-0.919-1.855-1.17-2.773-0.555
		c-0.919,0.612-1.168,1.854-0.555,2.773l7.566,11.349c0.041,0.062,0.095,0.111,0.142,0.167c0.018,0.022,0.036,0.043,0.055,0.064
		c0.067,0.074,0.137,0.141,0.214,0.203c0.036,0.03,0.075,0.057,0.113,0.084c0.069,0.048,0.137,0.096,0.212,0.135
		c0.067,0.036,0.137,0.062,0.208,0.09c0.055,0.021,0.108,0.048,0.166,0.065c0.136,0.04,0.276,0.067,0.421,0.077
		c0.001,0,0.002,0,0.003,0c0.044,0.003,0.087,0.004,0.131,0.004c0.036,0,0.07-0.009,0.105-0.011
		c0.052-0.002,0.103,0.002,0.155-0.004c0.035-0.004,0.067-0.017,0.102-0.023c0.046-0.009,0.09-0.019,0.135-0.031
		c0.102-0.025,0.199-0.057,0.293-0.097c0.022-0.01,0.044-0.02,0.067-0.03c0.114-0.054,0.221-0.117,0.322-0.19
		c0.006-0.004,0.012-0.008,0.018-0.013c0.159-0.118,0.301-0.252,0.418-0.41l8.716-9.961c0.727-0.832,0.643-2.095-0.188-2.822
		c-0.831-0.727-2.094-0.643-2.822,0.188l-5.424,6.199c0.392-4.673,2.185-9.043,5.247-12.641c4.071-4.783,9.905-7.655,16.004-7.88
		c5.869-0.232,11.456,1.865,15.752,5.856c4.297,3.991,6.782,9.417,6.997,15.278c0.218,5.86-1.86,11.454-5.853,15.752
		c-3.992,4.297-9.418,6.782-15.28,6.997c-1.104,0.041-1.965,0.969-1.925,2.072c0.039,1.079,0.927,1.927,1.997,1.927
		c0.025,0,0.05,0,0.075-0.001c6.929-0.255,13.344-3.193,18.063-8.272C57.521,42.595,59.978,35.981,59.721,29.054z"/>
	<path fill="#010101" d="M33.827,15.383c-1.104,0-2,0.896-2,2V33.34h14.565c1.104,0,2-0.896,2-2s-0.896-2-2-2H35.827V17.383
		C35.827,16.278,34.931,15.383,33.827,15.383z"/>
</g>
</svg>
