<?xml version="1.0" encoding="utf-8"?>
<!-- Generator: Adobe Illustrator 17.0.0, SVG Export Plug-In . SVG Version: 6.00 Build 0)  -->
<!DOCTYPE svg PUBLIC "-//W3C//DTD SVG 1.1//EN" "http://www.w3.org/Graphics/SVG/1.1/DTD/svg11.dtd">
<svg version="1.1" id="Layer_2" xmlns="http://www.w3.org/2000/svg" xmlns:xlink="http://www.w3.org/1999/xlink" x="0px" y="0px"
	 width="60px" height="60px" viewBox="0 0 60 60" enable-background="new 0 0 60 60" xml:space="preserve">
<path fill="#010101" d="M59,30.522c0-0.053-0.012-0.103-0.016-0.155c-0.005-0.07-0.008-0.14-0.021-0.208
	c-0.013-0.068-0.034-0.133-0.054-0.199c-0.017-0.059-0.032-0.118-0.054-0.175c-0.026-0.066-0.061-0.127-0.094-0.189
	c-0.028-0.053-0.053-0.107-0.085-0.157c-0.039-0.059-0.084-0.112-0.129-0.167c-0.031-0.038-0.056-0.081-0.09-0.117l-8-8.521
	c-0.756-0.805-2.022-0.846-2.827-0.089c-0.806,0.756-0.846,2.022-0.089,2.827l4.837,5.152H31v-26c0-1.105-0.896-2-2-2
	c-1.105,0-2,0.895-2,2v26H6.621l4.837-5.152c0.756-0.806,0.716-2.071-0.089-2.827c-0.805-0.757-2.071-0.716-2.827,0.089l-8,8.521
	c-0.034,0.036-0.059,0.079-0.09,0.117c-0.044,0.055-0.09,0.108-0.129,0.167c-0.032,0.05-0.057,0.104-0.085,0.157
	c-0.033,0.062-0.067,0.123-0.094,0.189C0.122,29.84,0.108,29.9,0.09,29.959c-0.019,0.066-0.041,0.131-0.054,0.199
	c-0.013,0.069-0.016,0.139-0.021,0.208C0.011,30.419,0,30.468,0,30.522c0,0.011,0.003,0.021,0.003,0.032
	c0,0.011-0.003,0.023-0.002,0.034c0.002,0.061,0.016,0.119,0.023,0.178c0.008,0.063,0.011,0.127,0.025,0.188
	c0.013,0.059,0.035,0.115,0.054,0.172c0.021,0.068,0.04,0.137,0.068,0.201c0.023,0.053,0.054,0.101,0.082,0.151
	c0.034,0.063,0.066,0.127,0.107,0.185c0.033,0.048,0.073,0.09,0.111,0.135c0.046,0.055,0.09,0.111,0.142,0.161
	c0.008,0.007,0.013,0.017,0.021,0.024l8,7.479C9.02,39.821,9.51,40,9.999,40c0.535,0,1.068-0.213,1.461-0.634
	c0.754-0.808,0.712-2.073-0.095-2.827l-4.297-4.018H27V58c0,1.105,0.895,2,2,2c1.104,0,2-0.895,2-2V32.522h20.931l-4.297,4.018
	c-0.807,0.754-0.85,2.02-0.095,2.827C47.933,39.787,48.466,40,49,40c0.489,0,0.98-0.179,1.365-0.539l8-7.479
	c0.008-0.007,0.014-0.017,0.021-0.024c0.052-0.05,0.095-0.106,0.142-0.161c0.037-0.045,0.078-0.087,0.111-0.135
	c0.041-0.059,0.073-0.122,0.107-0.185c0.028-0.05,0.059-0.098,0.082-0.151c0.028-0.064,0.047-0.133,0.068-0.201
	c0.018-0.057,0.04-0.113,0.054-0.172c0.013-0.062,0.017-0.125,0.025-0.188c0.007-0.059,0.021-0.117,0.023-0.178
	c0-0.011-0.002-0.022-0.002-0.034C58.997,30.543,59,30.532,59,30.522z"/>
</svg>
