<?xml version="1.0" encoding="utf-8"?>
<!-- Generator: Adobe Illustrator 17.0.0, SVG Export Plug-In . SVG Version: 6.00 Build 0)  -->
<!DOCTYPE svg PUBLIC "-//W3C//DTD SVG 1.1//EN" "http://www.w3.org/Graphics/SVG/1.1/DTD/svg11.dtd">
<svg version="1.1" id="Layer_2" xmlns="http://www.w3.org/2000/svg" xmlns:xlink="http://www.w3.org/1999/xlink" x="0px" y="0px"
	 width="60px" height="60px" viewBox="0 0 60 60" enable-background="new 0 0 60 60" xml:space="preserve">
<g>
	<path fill="#010101" d="M23,36H1c-0.552,0-1,0.447-1,1v22c0,0.553,0.448,1,1,1h22c0.552,0,1-0.447,1-1V37
		C24,36.447,23.552,36,23,36z"/>
	<path fill="#010101" d="M59.96,1.608c-0.012-0.06-0.034-0.115-0.051-0.173c-0.02-0.067-0.035-0.135-0.062-0.2
		c-0.028-0.068-0.067-0.131-0.103-0.196c-0.027-0.049-0.049-0.101-0.08-0.149c-0.147-0.219-0.336-0.408-0.555-0.555
		c-0.046-0.031-0.097-0.052-0.146-0.079c-0.065-0.036-0.129-0.076-0.199-0.104c-0.063-0.026-0.13-0.042-0.195-0.061
		c-0.059-0.018-0.116-0.04-0.178-0.053c-0.127-0.025-0.255-0.039-0.384-0.039C58.005,0.001,58.002,0,58,0H43c-1.105,0-2,0.896-2,2
		c0,1.105,0.895,2,2,2h10.172L26.456,30.716c-0.781,0.781-0.781,2.047,0,2.828c0.391,0.391,0.902,0.586,1.414,0.586
		s1.024-0.195,1.414-0.586L56,6.828v10.173c0,1.105,0.895,2,2,2c1.104,0,2-0.895,2-2V2C60,1.869,59.986,1.738,59.96,1.608z"/>
</g>
</svg>
