<?xml version="1.0" encoding="utf-8"?>
<!-- Generator: Adobe Illustrator 17.0.0, SVG Export Plug-In . SVG Version: 6.00 Build 0)  -->
<!DOCTYPE svg PUBLIC "-//W3C//DTD SVG 1.1//EN" "http://www.w3.org/Graphics/SVG/1.1/DTD/svg11.dtd">
<svg version="1.1" id="Layer_2" xmlns="http://www.w3.org/2000/svg" xmlns:xlink="http://www.w3.org/1999/xlink" x="0px" y="0px"
	 width="60px" height="60px" viewBox="0 0 60 60" enable-background="new 0 0 60 60" xml:space="preserve">
<g>
	<path fill="#010101" d="M59.414,0.586c-0.78-0.781-2.048-0.781-2.828,0L35,22.172V8.565c0-1.105-0.896-2-2-2c-1.105,0-2,0.896-2,2
		V27c0,0.131,0.014,0.262,0.04,0.392c0.012,0.06,0.034,0.115,0.051,0.173c0.02,0.067,0.035,0.135,0.062,0.2
		c0.028,0.068,0.067,0.131,0.103,0.196c0.027,0.049,0.049,0.101,0.08,0.149c0.146,0.219,0.335,0.408,0.554,0.554
		c0.05,0.033,0.103,0.056,0.155,0.084c0.063,0.035,0.123,0.072,0.19,0.1c0.066,0.027,0.135,0.043,0.203,0.063
		c0.057,0.017,0.112,0.038,0.171,0.05C32.737,28.986,32.869,29,33,29h18.435c1.104,0,2-0.895,2-2c0-1.104-0.896-2-2-2H37.828
		L59.414,3.414C60.195,2.633,60.195,1.367,59.414,0.586z"/>
	<path fill="#010101" d="M28.909,32.435c-0.02-0.067-0.035-0.135-0.062-0.2c-0.028-0.068-0.067-0.131-0.103-0.196
		c-0.027-0.049-0.049-0.101-0.08-0.148c-0.146-0.219-0.335-0.408-0.554-0.554c-0.05-0.034-0.105-0.057-0.158-0.086
		c-0.062-0.033-0.121-0.071-0.187-0.098c-0.067-0.028-0.136-0.044-0.205-0.064c-0.056-0.017-0.11-0.039-0.168-0.05
		C27.263,31.014,27.131,31,27,31H8.565c-1.104,0-2,0.896-2,2c0,1.105,0.896,2,2,2h13.606L0.586,56.586
		c-0.781,0.781-0.781,2.047,0,2.828C0.976,59.805,1.488,60,2,60c0.512,0,1.024-0.195,1.414-0.586L25,37.828v13.606
		c0,1.104,0.895,2,2,2c1.104,0,2-0.896,2-2V33c0-0.131-0.014-0.262-0.04-0.392C28.949,32.548,28.926,32.493,28.909,32.435z"/>
</g>
</svg>
