<?xml version="1.0" encoding="utf-8"?>
<!-- Generator: Adobe Illustrator 17.0.0, SVG Export Plug-In . SVG Version: 6.00 Build 0)  -->
<!DOCTYPE svg PUBLIC "-//W3C//DTD SVG 1.1//EN" "http://www.w3.org/Graphics/SVG/1.1/DTD/svg11.dtd">
<svg version="1.1" id="Layer_2" xmlns="http://www.w3.org/2000/svg" xmlns:xlink="http://www.w3.org/1999/xlink" x="0px" y="0px"
	 width="60px" height="60px" viewBox="0 0 60 60" enable-background="new 0 0 60 60" xml:space="preserve">
<g>
	<path fill="#010101" d="M59.955,30.584c-0.007-0.032-0.021-0.062-0.029-0.094c-0.027-0.101-0.056-0.201-0.098-0.295
		c-0.018-0.041-0.043-0.078-0.064-0.118c-0.042-0.08-0.085-0.159-0.137-0.233c-0.03-0.042-0.065-0.079-0.098-0.118
		c-0.054-0.065-0.11-0.129-0.172-0.186c-0.015-0.014-0.025-0.031-0.04-0.044l-8-7c-0.831-0.726-2.095-0.642-2.822,0.188
		c-0.727,0.832-0.643,2.095,0.188,2.822L52.677,29H39V2c0-1.104-0.896-2-2-2c-1.105,0-2,0.896-2,2v56c0,1.105,0.895,2,2,2
		c1.104,0,2-0.895,2-2V33h13.677l-3.994,3.495c-0.832,0.728-0.916,1.99-0.188,2.822C48.89,39.769,49.444,40,50.001,40
		c0.467,0,0.936-0.163,1.316-0.495l8-7c0.015-0.013,0.026-0.03,0.04-0.044c0.062-0.058,0.118-0.122,0.173-0.188
		c0.033-0.039,0.068-0.076,0.097-0.118c0.052-0.074,0.095-0.153,0.137-0.233c0.021-0.04,0.046-0.077,0.064-0.117
		c0.042-0.095,0.071-0.195,0.098-0.296c0.008-0.032,0.022-0.062,0.029-0.093C59.984,31.282,60,31.143,60,31
		C60,30.857,59.984,30.718,59.955,30.584z"/>
	<path fill="#010101" d="M25,0c-1.105,0-2,0.896-2,2v27H7.323l3.994-3.495c0.831-0.728,0.915-1.99,0.188-2.822
		c-0.728-0.83-1.991-0.916-2.822-0.188l-8,7c-0.015,0.013-0.026,0.03-0.04,0.044c-0.062,0.058-0.118,0.121-0.172,0.186
		c-0.033,0.04-0.068,0.077-0.098,0.118c-0.052,0.074-0.095,0.153-0.137,0.233c-0.021,0.04-0.046,0.077-0.064,0.118
		c-0.042,0.094-0.071,0.194-0.098,0.295c-0.008,0.032-0.023,0.062-0.029,0.094C0.016,30.718,0,30.857,0,31
		c0,0.143,0.016,0.282,0.045,0.417c0.007,0.032,0.021,0.061,0.029,0.093c0.027,0.101,0.056,0.201,0.098,0.296
		c0.018,0.041,0.043,0.078,0.064,0.117c0.042,0.08,0.085,0.16,0.137,0.233c0.03,0.042,0.064,0.079,0.097,0.118
		c0.055,0.066,0.11,0.129,0.173,0.188c0.015,0.013,0.025,0.03,0.04,0.044l8,7C9.062,39.837,9.532,40,9.999,40
		c0.557,0,1.111-0.231,1.506-0.683c0.727-0.832,0.643-2.095-0.188-2.822L7.323,33H23v25c0,1.105,0.895,2,2,2c1.104,0,2-0.895,2-2V2
		C27,0.896,26.104,0,25,0z"/>
</g>
</svg>
