<?xml version="1.0" encoding="utf-8"?>
<!-- Generator: Adobe Illustrator 17.0.0, SVG Export Plug-In . SVG Version: 6.00 Build 0)  -->
<!DOCTYPE svg PUBLIC "-//W3C//DTD SVG 1.1//EN" "http://www.w3.org/Graphics/SVG/1.1/DTD/svg11.dtd">
<svg version="1.1" id="Layer_2" xmlns="http://www.w3.org/2000/svg" xmlns:xlink="http://www.w3.org/1999/xlink" x="0px" y="0px"
	 width="60px" height="60px" viewBox="0 0 60 60" enable-background="new 0 0 60 60" xml:space="preserve">
<g>
	<path fill="#010101" d="M37.091,21.565c0.02,0.067,0.035,0.135,0.062,0.2c0.028,0.068,0.067,0.131,0.103,0.196
		c0.027,0.049,0.049,0.101,0.08,0.149c0.146,0.219,0.335,0.408,0.554,0.554c0.05,0.033,0.103,0.056,0.155,0.084
		c0.063,0.035,0.123,0.072,0.19,0.1c0.066,0.027,0.134,0.043,0.203,0.063c0.057,0.017,0.112,0.038,0.171,0.05
		C38.737,22.986,38.869,23,39,23h12.435c1.104,0,2-0.895,2-2c0-1.104-0.896-2-2-2h-7.607L59.414,3.414
		c0.781-0.781,0.781-2.047,0-2.828c-0.78-0.781-2.048-0.781-2.828,0L41,16.172V8.565c0-1.104-0.896-2-2-2s-2,0.896-2,2V21
		c0,0.131,0.014,0.262,0.04,0.392C37.051,21.452,37.074,21.507,37.091,21.565z"/>
	<path fill="#010101" d="M22.909,38.435c-0.02-0.067-0.035-0.135-0.062-0.2c-0.028-0.068-0.067-0.131-0.103-0.196
		c-0.027-0.049-0.049-0.101-0.08-0.149c-0.147-0.219-0.335-0.408-0.554-0.554c-0.05-0.034-0.105-0.057-0.158-0.086
		c-0.062-0.033-0.121-0.071-0.187-0.098c-0.067-0.028-0.136-0.044-0.205-0.064c-0.056-0.017-0.11-0.039-0.168-0.05
		C21.263,37.014,21.131,37,21,37H8.565c-1.104,0-2,0.896-2,2c0,1.105,0.895,2,2,2h7.606L0.586,56.586
		c-0.781,0.781-0.781,2.047,0,2.828C0.976,59.805,1.488,60,2,60s1.024-0.195,1.414-0.586L19,43.828v7.607c0,1.104,0.896,2,2,2
		s2-0.896,2-2V39c0-0.131-0.014-0.262-0.04-0.392C22.949,38.548,22.926,38.493,22.909,38.435z"/>
	<path fill="#010101" d="M43.828,41h7.607c1.104,0,2-0.895,2-2c0-1.104-0.896-2-2-2H39c-0.131,0-0.263,0.014-0.392,0.04
		c-0.058,0.012-0.112,0.033-0.168,0.05c-0.069,0.02-0.138,0.036-0.205,0.063c-0.066,0.027-0.125,0.065-0.188,0.099
		c-0.052,0.029-0.107,0.052-0.157,0.085c-0.219,0.146-0.408,0.335-0.554,0.554c-0.032,0.048-0.053,0.099-0.08,0.149
		c-0.036,0.065-0.075,0.127-0.103,0.196c-0.027,0.065-0.042,0.133-0.062,0.2c-0.017,0.058-0.04,0.113-0.051,0.173
		C37.014,38.738,37,38.869,37,39v12.435c0,1.104,0.896,2,2,2s2-0.896,2-2v-7.607l15.586,15.586C56.976,59.805,57.488,60,58,60
		s1.024-0.195,1.414-0.586c0.781-0.781,0.781-2.047,0-2.828L43.828,41z"/>
	<path fill="#010101" d="M16.172,19H8.565c-1.104,0-2,0.896-2,2c0,1.105,0.895,2,2,2H21c0.131,0,0.263-0.014,0.392-0.04
		c0.059-0.012,0.114-0.034,0.171-0.05c0.068-0.02,0.137-0.036,0.203-0.063c0.067-0.028,0.127-0.066,0.19-0.1
		c0.052-0.028,0.105-0.051,0.155-0.084c0.219-0.146,0.408-0.335,0.554-0.554c0.032-0.048,0.053-0.099,0.08-0.149
		c0.036-0.065,0.075-0.127,0.103-0.196c0.027-0.065,0.042-0.133,0.062-0.2c0.017-0.058,0.039-0.113,0.051-0.173
		C22.986,21.262,23,21.131,23,21V8.565c0-1.104-0.896-2-2-2s-2,0.896-2,2v7.606L3.414,0.586c-0.78-0.781-2.048-0.781-2.828,0
		c-0.781,0.781-0.781,2.047,0,2.828L16.172,19z"/>
	<path fill="#010101" d="M30,23c-3.86,0-7,3.141-7,7c0,3.859,3.14,7,7,7s7-3.141,7-7C37,26.141,33.86,23,30,23z"/>
</g>
</svg>
