<?xml version="1.0" encoding="utf-8"?>
<!-- Generator: Adobe Illustrator 17.0.0, SVG Export Plug-In . SVG Version: 6.00 Build 0)  -->
<!DOCTYPE svg PUBLIC "-//W3C//DTD SVG 1.1//EN" "http://www.w3.org/Graphics/SVG/1.1/DTD/svg11.dtd">
<svg version="1.1" id="Layer_2" xmlns="http://www.w3.org/2000/svg" xmlns:xlink="http://www.w3.org/1999/xlink" x="0px" y="0px"
	 width="60px" height="60px" viewBox="0 0 60 60" enable-background="new 0 0 60 60" xml:space="preserve">
<g>
	<path fill="#010101" d="M36.043,29.993c0-3.332-2.711-6.043-6.043-6.043s-6.044,2.711-6.044,6.043c0,3.332,2.711,6.043,6.044,6.043
		S36.043,33.325,36.043,29.993z"/>
	<path fill="#010101" d="M59.687,29.267l-12-11.348c-0.291-0.274-0.716-0.351-1.083-0.191C46.238,17.885,46,18.246,46,18.645v22.695
		c0,0.399,0.238,0.761,0.604,0.918c0.127,0.056,0.262,0.082,0.396,0.082c0.25,0,0.498-0.095,0.687-0.274l12-11.348
		c0.2-0.189,0.313-0.451,0.313-0.727C60,29.718,59.887,29.455,59.687,29.267z"/>
	<path fill="#010101" d="M13.396,17.728c-0.366-0.159-0.792-0.082-1.082,0.191l-12,11.348C0.113,29.455,0,29.718,0,29.993
		c0,0.275,0.113,0.538,0.313,0.727l12,11.348c0.189,0.179,0.436,0.274,0.687,0.274c0.134,0,0.268-0.027,0.396-0.082
		C13.762,42.102,14,41.74,14,41.341V18.645C14,18.246,13.762,17.885,13.396,17.728z"/>
	<path fill="#010101" d="M30.727,0.306c-0.378-0.398-1.075-0.398-1.453,0l-11.348,12c-0.274,0.291-0.35,0.716-0.192,1.083
		c0.158,0.367,0.519,0.605,0.918,0.605h22.695c0.399,0,0.76-0.237,0.918-0.605c0.158-0.367,0.082-0.792-0.192-1.083L30.727,0.306z"
		/>
	<path fill="#010101" d="M41.348,45.993H18.652c-0.399,0-0.76,0.237-0.918,0.604c-0.158,0.367-0.083,0.792,0.192,1.083l11.348,12
		c0.189,0.199,0.452,0.312,0.727,0.312s0.538-0.113,0.727-0.312l11.348-12c0.274-0.291,0.35-0.716,0.192-1.083
		C42.108,46.231,41.747,45.993,41.348,45.993z"/>
</g>
</svg>
