<?xml version="1.0" encoding="utf-8"?>
<!-- Generator: Adobe Illustrator 17.0.0, SVG Export Plug-In . SVG Version: 6.00 Build 0)  -->
<!DOCTYPE svg PUBLIC "-//W3C//DTD SVG 1.1//EN" "http://www.w3.org/Graphics/SVG/1.1/DTD/svg11.dtd">
<svg version="1.1" id="Layer_2" xmlns="http://www.w3.org/2000/svg" xmlns:xlink="http://www.w3.org/1999/xlink" x="0px" y="0px"
	 width="60px" height="60px" viewBox="0 0 60 60" enable-background="new 0 0 60 60" xml:space="preserve">
<g>
	<path fill="#010101" d="M30,22.999c-3.86,0-7,3.141-7,7c0,3.859,3.14,7,7,7c3.86,0,7-3.141,7-7C37,26.14,33.86,22.999,30,22.999z"
		/>
	<path fill="#010101" d="M59.284,28.585l-13.87-13.869c-0.781-0.781-2.048-0.781-2.828,0c-0.781,0.781-0.781,2.047,0,2.828
		l12.455,12.455L42.586,42.456c-0.781,0.781-0.781,2.047,0,2.828c0.391,0.391,0.902,0.586,1.414,0.586
		c0.512,0,1.024-0.195,1.414-0.586l13.87-13.87c0.375-0.375,0.586-0.884,0.586-1.414C59.87,29.469,59.659,28.96,59.284,28.585z"/>
	<path fill="#010101" d="M17.414,14.716c-0.781-0.781-2.048-0.781-2.828,0L0.716,28.585C0.341,28.96,0.13,29.469,0.13,29.999
		c0,0.53,0.211,1.039,0.586,1.414l13.87,13.87c0.391,0.391,0.902,0.586,1.414,0.586c0.512,0,1.024-0.195,1.414-0.586
		c0.781-0.781,0.781-2.047,0-2.828L4.959,29.999l12.455-12.455C18.195,16.763,18.195,15.498,17.414,14.716z"/>
</g>
</svg>
