<?xml version="1.0" encoding="utf-8"?>
<!-- Generator: Adobe Illustrator 17.0.0, SVG Export Plug-In . SVG Version: 6.00 Build 0)  -->
<!DOCTYPE svg PUBLIC "-//W3C//DTD SVG 1.1//EN" "http://www.w3.org/Graphics/SVG/1.1/DTD/svg11.dtd">
<svg version="1.1" id="Layer_2" xmlns="http://www.w3.org/2000/svg" xmlns:xlink="http://www.w3.org/1999/xlink" x="0px" y="0px"
	 width="60px" height="60px" viewBox="0 0 60 60" enable-background="new 0 0 60 60" xml:space="preserve">
<g>
	<path fill="#010101" d="M23.956,30c0,3.332,2.712,6.043,6.044,6.043c3.332,0,6.043-2.711,6.043-6.043S33.332,23.957,30,23.957
		C26.668,23.957,23.956,26.668,23.956,30z"/>
	<path fill="#010101" d="M16.13,18H43.87c0.392,0,0.747-0.228,0.91-0.585c0.163-0.355,0.103-0.774-0.154-1.07l-13.869-16
		C30.566,0.126,30.29,0,30,0c-0.29,0-0.565,0.126-0.755,0.345l-13.87,16c-0.257,0.296-0.317,0.715-0.154,1.07
		C15.383,17.772,15.739,18,16.13,18z"/>
	<path fill="#010101" d="M43.87,42H16.13c-0.392,0-0.747,0.229-0.91,0.585c-0.163,0.355-0.102,0.774,0.154,1.07l13.87,16
		C29.435,59.874,29.71,60,30,60c0.29,0,0.566-0.126,0.756-0.345l13.869-16c0.256-0.296,0.316-0.715,0.154-1.07
		C44.617,42.229,44.261,42,43.87,42z"/>
</g>
</svg>
