<?xml version="1.0" encoding="utf-8"?>
<!-- Generator: Adobe Illustrator 17.0.0, SVG Export Plug-In . SVG Version: 6.00 Build 0)  -->
<!DOCTYPE svg PUBLIC "-//W3C//DTD SVG 1.1//EN" "http://www.w3.org/Graphics/SVG/1.1/DTD/svg11.dtd">
<svg version="1.1" id="Layer_2" xmlns="http://www.w3.org/2000/svg" xmlns:xlink="http://www.w3.org/1999/xlink" x="0px" y="0px"
	 width="60px" height="60px" viewBox="0 0 60 60" enable-background="new 0 0 60 60" xml:space="preserve">
<g>
	<path fill="#010101" d="M37,30c0-3.859-3.14-7-7-7c-3.86,0-7,3.141-7,7c0,3.859,3.14,7,7,7C33.86,37,37,33.859,37,30z"/>
	<path fill="#010101" d="M58.762,28.586L47.414,17.238c-0.78-0.781-2.048-0.781-2.828,0c-0.781,0.781-0.781,2.047,0,2.828L54.519,30
		l-9.933,9.934c-0.781,0.781-0.781,2.047,0,2.828c0.39,0.391,0.902,0.586,1.414,0.586c0.512,0,1.024-0.195,1.414-0.586
		l11.348-11.348C59.543,30.633,59.543,29.367,58.762,28.586z"/>
	<path fill="#010101" d="M15.414,17.238c-0.78-0.781-2.048-0.781-2.828,0L1.238,28.586c-0.781,0.781-0.781,2.047,0,2.828
		l11.348,11.348c0.39,0.391,0.902,0.586,1.414,0.586c0.512,0,1.024-0.195,1.414-0.586c0.781-0.781,0.781-2.047,0-2.828L5.481,30
		l9.933-9.934C16.195,19.285,16.195,18.02,15.414,17.238z"/>
	<path fill="#010101" d="M31.414,1.238c-0.78-0.781-2.048-0.781-2.828,0L17.238,12.586c-0.781,0.781-0.781,2.047,0,2.828
		c0.78,0.781,2.048,0.781,2.828,0L30,5.481l9.934,9.934C40.324,15.805,40.836,16,41.348,16c0.512,0,1.024-0.195,1.414-0.586
		c0.781-0.781,0.781-2.047,0-2.828L31.414,1.238z"/>
	<path fill="#010101" d="M39.934,44.586L30,54.52l-9.934-9.934c-0.78-0.781-2.048-0.781-2.828,0c-0.781,0.781-0.781,2.047,0,2.828
		l11.348,11.348c0.39,0.391,0.902,0.586,1.414,0.586c0.512,0,1.024-0.195,1.414-0.586l11.348-11.348
		c0.781-0.781,0.781-2.047,0-2.828C41.981,43.805,40.714,43.805,39.934,44.586z"/>
</g>
</svg>
