<?xml version="1.0" encoding="utf-8"?>
<!-- Generator: Adobe Illustrator 17.0.0, SVG Export Plug-In . SVG Version: 6.00 Build 0)  -->
<!DOCTYPE svg PUBLIC "-//W3C//DTD SVG 1.1//EN" "http://www.w3.org/Graphics/SVG/1.1/DTD/svg11.dtd">
<svg version="1.1" id="Layer_2" xmlns="http://www.w3.org/2000/svg" xmlns:xlink="http://www.w3.org/1999/xlink" x="0px" y="0px"
	 width="60px" height="60px" viewBox="0 0 60 60" enable-background="new 0 0 60 60" xml:space="preserve">
<g>
	<path fill="#010101" d="M30,23.956c-3.333,0-6.044,2.712-6.044,6.045c0,3.332,2.711,6.043,6.044,6.043
		c3.332,0,6.043-2.711,6.043-6.043C36.043,26.668,33.332,23.956,30,23.956z"/>
	<path fill="#010101" d="M59.655,29.245l-16-13.871c-0.296-0.255-0.713-0.316-1.071-0.154C42.228,15.383,42,15.738,42,16.13v27.74
		c0,0.392,0.228,0.747,0.584,0.91c0.133,0.06,0.275,0.09,0.416,0.09c0.236,0,0.47-0.084,0.655-0.244l16-13.869
		C59.874,30.566,60,30.291,60,30.001C60,29.711,59.874,29.436,59.655,29.245z"/>
	<path fill="#010101" d="M15.385,15.207c-0.372-0.153-0.801-0.072-1.088,0.213l-14,13.871C0.106,29.478,0,29.734,0,30.001
		s0.106,0.522,0.296,0.71l14,13.869c0.191,0.189,0.445,0.29,0.704,0.29c0.13,0,0.261-0.025,0.385-0.077
		C15.757,44.638,16,44.273,16,43.87V16.13C16,15.727,15.757,15.362,15.385,15.207z"/>
</g>
</svg>
