<?xml version="1.0" encoding="utf-8"?>
<!-- Generator: Adobe Illustrator 17.0.0, SVG Export Plug-In . SVG Version: 6.00 Build 0)  -->
<!DOCTYPE svg PUBLIC "-//W3C//DTD SVG 1.1//EN" "http://www.w3.org/Graphics/SVG/1.1/DTD/svg11.dtd">
<svg version="1.1" id="Layer_2" xmlns="http://www.w3.org/2000/svg" xmlns:xlink="http://www.w3.org/1999/xlink" x="0px" y="0px"
	 width="60px" height="60px" viewBox="0 0 60 60" enable-background="new 0 0 60 60" xml:space="preserve">
<path fill="#010101" d="M59.979,44.293c-0.018-0.17-0.053-0.333-0.11-0.488c-0.007-0.018-0.01-0.037-0.017-0.055
	c-0.071-0.175-0.17-0.333-0.284-0.479c-0.013-0.016-0.018-0.036-0.031-0.052l-5-6c-0.707-0.849-1.969-0.963-2.817-0.256
	c-0.849,0.707-0.963,1.968-0.256,2.816l2.267,2.72h-8.737c-0.017,0-0.033,0-0.049,0c-4.977,0-7.018-2.692-9.599-6.098
	c-1.622-2.14-3.375-4.44-5.979-6.005c2.611-1.729,4.337-4.267,5.932-6.628c2.51-3.713,4.678-6.922,9.897-7.27h9.197l-3.087,4.94
	c-0.585,0.937-0.301,2.17,0.636,2.756c0.33,0.206,0.696,0.304,1.058,0.304c0.667,0,1.318-0.333,1.698-0.94l5-8
	c0.01-0.017,0.013-0.035,0.022-0.052c0.079-0.134,0.14-0.277,0.186-0.428c0.011-0.036,0.024-0.069,0.033-0.106
	C59.975,14.822,60,14.665,60,14.5c0-0.013-0.003-0.024-0.004-0.037c-0.001-0.031-0.007-0.062-0.009-0.093
	c-0.01-0.15-0.036-0.294-0.077-0.434c-0.012-0.039-0.022-0.078-0.036-0.117c-0.06-0.166-0.137-0.323-0.237-0.465
	c-0.004-0.005-0.005-0.011-0.009-0.017l-5-7c-0.642-0.9-1.891-1.106-2.79-0.466c-0.899,0.642-1.107,1.892-0.465,2.79l2.741,3.838
	H45.13c-0.042,0-0.083,0.001-0.124,0.004C37.78,12.953,34.7,17.51,31.983,21.529C29.365,25.403,27.297,28.464,22,28.5H2
	c-1.105,0-2,0.896-2,2c0,1.105,0.896,2,2,2h20c5.367,0,7.587,2.929,10.157,6.318c2.729,3.601,5.822,7.682,12.779,7.682
	c0.021,0,0.042,0,0.063,0h9.392l-3.087,4.94c-0.585,0.937-0.301,2.17,0.636,2.756c0.33,0.206,0.696,0.304,1.058,0.304
	c0.667,0,1.318-0.333,1.698-0.94l5-8c0.009-0.015,0.011-0.032,0.02-0.047c0.089-0.149,0.157-0.311,0.204-0.482
	c0.007-0.027,0.018-0.052,0.024-0.079C59.978,44.806,60,44.656,60,44.5c0-0.03-0.008-0.059-0.009-0.088
	C59.989,44.372,59.983,44.333,59.979,44.293z"/>
</svg>
