<?xml version="1.0" encoding="utf-8"?>
<!-- Generator: Adobe Illustrator 17.0.0, SVG Export Plug-In . SVG Version: 6.00 Build 0)  -->
<!DOCTYPE svg PUBLIC "-//W3C//DTD SVG 1.1//EN" "http://www.w3.org/Graphics/SVG/1.1/DTD/svg11.dtd">
<svg version="1.1" id="Layer_2" xmlns="http://www.w3.org/2000/svg" xmlns:xlink="http://www.w3.org/1999/xlink" x="0px" y="0px"
	 width="60px" height="60px" viewBox="0 0 60 60" enable-background="new 0 0 60 60" xml:space="preserve">
<g>
	<path fill="#010101" d="M59.717,35.41l-6.102-10.207c-0.333-0.556-0.914-0.917-1.56-0.968c-0.649-0.047-1.277,0.215-1.692,0.712
		l-8.085,9.679c-0.708,0.848-0.595,2.109,0.252,2.817c0.847,0.708,2.109,0.595,2.817-0.253l4.764-5.702
		c-0.738,8.038-6.871,15.459-15.182,17.422c-6.549,1.549-13.328-0.35-18.133-5.086c-0.787-0.775-2.053-0.766-2.828,0.021
		c-0.775,0.787-0.766,2.054,0.02,2.829c4.463,4.398,10.339,6.769,16.415,6.768c1.808,0,3.635-0.21,5.446-0.639
		c9.407-2.222,16.506-10.294,18.039-19.343l2.393,4.004c0.375,0.626,1.038,0.974,1.719,0.974c0.349,0,0.703-0.091,1.024-0.283
		C59.974,37.587,60.283,36.358,59.717,35.41z"/>
	<path fill="#010101" d="M18.392,25.106c-0.848-0.708-2.109-0.596-2.817,0.253l-5.273,6.314c-0.199-3.808,0.74-7.618,2.776-11.03
		c2.873-4.815,7.578-8.3,12.909-9.559c6.979-1.652,14.274,0.663,19.036,6.04c0.732,0.825,1.996,0.902,2.823,0.171
		c0.827-0.732,0.904-1.996,0.172-2.823C42.279,7.99,33.483,5.2,25.067,7.191c-6.378,1.508-12,5.663-15.424,11.402
		c-1.89,3.168-2.996,6.625-3.292,10.149l-2.691-4.007c-0.616-0.916-1.859-1.163-2.775-0.545c-0.917,0.615-1.162,1.858-0.546,2.775
		l7.029,10.469c0.351,0.522,0.928,0.85,1.556,0.882c0.035,0.002,0.07,0.003,0.105,0.003c0.591,0,1.154-0.262,1.535-0.718
		l8.081-9.678C19.353,27.075,19.24,25.814,18.392,25.106z"/>
</g>
</svg>
