<?xml version="1.0" encoding="utf-8"?>
<!-- Generator: Adobe Illustrator 17.0.0, SVG Export Plug-In . SVG Version: 6.00 Build 0)  -->
<!DOCTYPE svg PUBLIC "-//W3C//DTD SVG 1.1//EN" "http://www.w3.org/Graphics/SVG/1.1/DTD/svg11.dtd">
<svg version="1.1" id="Layer_2" xmlns="http://www.w3.org/2000/svg" xmlns:xlink="http://www.w3.org/1999/xlink" x="0px" y="0px"
	 width="60px" height="60px" viewBox="0 0 60 60" enable-background="new 0 0 60 60" xml:space="preserve">
<g>
	<path fill="#010101" d="M18.391,25.105c-0.847-0.707-2.109-0.595-2.817,0.253l-5.16,6.18c-0.088-3.926,0.952-7.818,3.082-11.275
		c2.852-4.632,7.406-7.978,12.494-9.18c6.983-1.653,14.275,0.663,19.036,6.041c0.732,0.825,1.996,0.902,2.823,0.171
		c0.827-0.732,0.904-1.996,0.172-2.823C42.281,7.99,33.485,5.202,25.069,7.19c-6.114,1.444-11.574,5.444-14.979,10.975
		c-2.057,3.339-3.263,7.022-3.595,10.792l-2.835-4.223c-0.616-0.916-1.859-1.162-2.775-0.545c-0.917,0.615-1.162,1.858-0.546,2.775
		l6.978,10.393c0.09,0.145,0.198,0.273,0.319,0.389c0.027,0.026,0.054,0.051,0.082,0.075c0.075,0.064,0.155,0.122,0.239,0.174
		c0.076,0.048,0.154,0.088,0.236,0.126c0.062,0.028,0.123,0.058,0.188,0.08c0.081,0.028,0.165,0.046,0.249,0.064
		c0.034,0.007,0.069,0.013,0.104,0.018c0.065,0.01,0.127,0.029,0.192,0.033c0.035,0.002,0.07,0.003,0.104,0.003
		c0.591,0,1.154-0.262,1.535-0.718l8.08-9.678C19.352,27.074,19.239,25.813,18.391,25.105z"/>
	<path fill="#010101" d="M59.722,35.539L53.62,25.212c-0.33-0.56-0.912-0.923-1.56-0.976c-0.649-0.049-1.281,0.213-1.697,0.711
		l-8.085,9.678c-0.708,0.848-0.595,2.109,0.253,2.817c0.848,0.708,2.109,0.595,2.817-0.253l4.709-5.637
		c-0.795,8.119-6.824,15.395-15.126,17.356c-6.551,1.549-13.331-0.352-18.134-5.085c-0.787-0.777-2.053-0.767-2.829,0.02
		c-0.775,0.787-0.767,2.053,0.02,2.828c4.462,4.399,10.339,6.77,16.416,6.769c1.809,0,3.636-0.21,5.448-0.639
		C45.299,50.57,52.313,42.6,53.846,33.457l2.433,4.117c0.373,0.632,1.04,0.982,1.724,0.982c0.346,0,0.696-0.09,1.016-0.278
		C59.968,37.717,60.284,36.49,59.722,35.539z"/>
	<path fill="#010101" d="M26.465,26.02c-1.953,1.955-1.953,5.121,0,7.074c1.952,1.951,5.118,1.951,7.071,0
		c1.953-1.953,1.953-5.119,0-7.074C31.583,24.069,28.417,24.069,26.465,26.02z"/>
</g>
</svg>
