<?xml version="1.0" encoding="utf-8"?>
<!-- Generator: Adobe Illustrator 17.0.0, SVG Export Plug-In . SVG Version: 6.00 Build 0)  -->
<!DOCTYPE svg PUBLIC "-//W3C//DTD SVG 1.1//EN" "http://www.w3.org/Graphics/SVG/1.1/DTD/svg11.dtd">
<svg version="1.1" id="Layer_2" xmlns="http://www.w3.org/2000/svg" xmlns:xlink="http://www.w3.org/1999/xlink" x="0px" y="0px"
	 width="60px" height="60px" viewBox="0 0 60 60" enable-background="new 0 0 60 60" xml:space="preserve">
<g>
	<path fill="#010101" d="M48.782,28.13c0-1.104-0.896-2-2-2H8.115l12.632-11.661c0.812-0.749,0.862-2.015,0.113-2.826
		c-0.75-0.811-2.015-0.86-2.826-0.113L1.644,26.66c-0.605,0.559-0.806,1.431-0.506,2.198C1.437,29.625,2.176,30.13,3,30.13h43.782
		C47.887,30.13,48.782,29.234,48.782,28.13z"/>
	<path fill="#010101" d="M59.647,39.405c-0.299-0.769-1.039-1.275-1.864-1.275H14c-1.104,0-2,0.896-2,2s0.896,2,2,2h38.635
		L40.041,53.654c-0.815,0.746-0.871,2.011-0.125,2.826c0.395,0.431,0.935,0.649,1.476,0.649c0.482,0,0.966-0.174,1.35-0.524
		l16.392-15C59.742,41.048,59.946,40.175,59.647,39.405z"/>
</g>
</svg>
