<?xml version="1.0" encoding="utf-8"?>
<!-- Generator: Adobe Illustrator 17.0.0, SVG Export Plug-In . SVG Version: 6.00 Build 0)  -->
<!DOCTYPE svg PUBLIC "-//W3C//DTD SVG 1.1//EN" "http://www.w3.org/Graphics/SVG/1.1/DTD/svg11.dtd">
<svg version="1.1" id="Layer_1" xmlns="http://www.w3.org/2000/svg" xmlns:xlink="http://www.w3.org/1999/xlink" x="0px" y="0px"
	 width="60px" height="60px" viewBox="0 0 60 60" enable-background="new 0 0 60 60" xml:space="preserve">
<g>
	<path fill="#010101" d="M30,30.261c-1.105,0-2,0.896-2,2V58c0,1.105,0.895,2,2,2c1.104,0,2-0.895,2-2V32.261
		C32,31.156,31.104,30.261,30,30.261z"/>
	<path fill="#010101" d="M29.8,0C13.368,0,0,13.368,0,29.8V37c0,1.105,0.895,2,2,2c1.104,0,2-0.895,2-2v-7.2
		C4,15.574,15.574,4,29.8,4C44.002,4,56,15.907,56,30v7c0,1.105,0.895,2,2,2c1.104,0,2-0.895,2-2v-7C60,13.458,46.452,0,29.8,0z"/>
	<path fill="#010101" d="M29.857,8.19C17.805,8.19,8,18.886,8,32.033V37c0,1.105,0.895,2,2,2c1.104,0,2-0.895,2-2v-4.967
		c0-10.941,8.011-19.843,17.857-19.843c9.834,0,18.143,9.159,18.143,20v4.81c0,1.104,0.895,2,2,2c1.104,0,2-0.896,2-2v-4.81
		C52,18.957,42.067,8.19,29.857,8.19z"/>
	<path fill="#010101" d="M29.914,16.674C22.242,16.674,16,23.94,16,32.872V37c0,1.105,0.895,2,2,2c1.104,0,2-0.895,2-2v-4.128
		c0-6.726,4.447-12.198,9.914-12.198c5.467,0,10.086,5.633,10.086,12.3v4.027c0,1.104,0.895,2,2,2c1.104,0,2-0.896,2-2v-4.027
		C44,23.986,37.681,16.674,29.914,16.674z"/>
</g>
</svg>
