<?xml version="1.0" encoding="utf-8"?>
<!-- Generator: Adobe Illustrator 17.0.0, SVG Export Plug-In . SVG Version: 6.00 Build 0)  -->
<!DOCTYPE svg PUBLIC "-//W3C//DTD SVG 1.1//EN" "http://www.w3.org/Graphics/SVG/1.1/DTD/svg11.dtd">
<svg version="1.1" id="Layer_1" xmlns="http://www.w3.org/2000/svg" xmlns:xlink="http://www.w3.org/1999/xlink" x="0px" y="0px"
	 width="60px" height="60px" viewBox="0 0 60 60" enable-background="new 0 0 60 60" xml:space="preserve">
<path fill="#010101" d="M30,0C13.458,0,0,13.458,0,30s13.458,30,30,30s30-13.458,30-30S46.542,0,30,0z M39.134,53.372
	c-0.007,0-0.013,0-0.02,0H20.886c-0.552,0-1-0.448-1-1c0-5.346,4.034-13.429,10.114-13.429c6.001,0,10.009,7.874,10.112,13.219
	c0.014,0.068,0.022,0.138,0.022,0.21C40.134,52.924,39.686,53.372,39.134,53.372z M22.372,29.171c0-4.207,3.422-7.628,7.628-7.628
	c4.206,0,7.628,3.422,7.628,7.628c0,4.207-3.422,7.628-7.628,7.628C25.793,36.8,22.372,33.378,22.372,29.171z M41.081,40.423
	c-0.256,0-0.512-0.098-0.707-0.293c-0.391-0.391-0.391-1.023,0-1.414c2.771-2.771,4.297-6.455,4.297-10.374
	c0-3.919-1.526-7.603-4.297-10.374c-5.721-5.719-15.028-5.72-20.748,0c-2.771,2.771-4.297,6.455-4.297,10.374
	c0,3.919,1.526,7.603,4.297,10.374c0.391,0.391,0.391,1.023,0,1.414c-0.391,0.391-1.024,0.391-1.414,0
	c-3.149-3.148-4.883-7.335-4.883-11.788s1.734-8.639,4.883-11.788c6.5-6.5,17.077-6.5,23.577,0
	c3.148,3.148,4.883,7.334,4.883,11.788s-1.734,8.64-4.883,11.788C41.593,40.326,41.337,40.423,41.081,40.423z M47.698,46.041
	c-0.195,0.195-0.451,0.293-0.707,0.293c-0.256,0-0.512-0.098-0.707-0.293c-0.391-0.391-0.391-1.023,0-1.414
	c8.979-8.979,8.979-23.588,0-32.567C41.934,7.71,36.151,5.314,30,5.314c-6.151,0-11.934,2.396-16.284,6.745
	c-8.978,8.979-8.978,23.588,0,32.567c0.391,0.391,0.391,1.023,0,1.414c-0.391,0.391-1.023,0.391-1.414,0
	c-9.759-9.758-9.759-25.637,0-35.396C17.029,5.918,23.315,3.314,30,3.314c6.685,0,12.971,2.604,17.698,7.331
	C57.456,20.403,57.456,36.282,47.698,46.041z"/>
</svg>
