<?xml version="1.0" encoding="utf-8"?>
<!-- Generator: Adobe Illustrator 17.0.0, SVG Export Plug-In . SVG Version: 6.00 Build 0)  -->
<!DOCTYPE svg PUBLIC "-//W3C//DTD SVG 1.1//EN" "http://www.w3.org/Graphics/SVG/1.1/DTD/svg11.dtd">
<svg version="1.1" id="Layer_1" xmlns="http://www.w3.org/2000/svg" xmlns:xlink="http://www.w3.org/1999/xlink" x="0px" y="0px"
	 width="60px" height="60px" viewBox="0 0 60 60" enable-background="new 0 0 60 60" xml:space="preserve">
<g>
	<path fill="#010101" d="M30,14.475c-5.514,0-10,4.486-10,10c0,4.829,3.441,8.869,8,9.798v20.202c0,1.104,0.895,2,2,2
		c1.104,0,2-0.896,2-2V34.274c4.559-0.929,8-4.969,8-9.798C40,18.961,35.514,14.475,30,14.475z"/>
	<path fill="#010101" d="M52.084,4.17c-0.748-0.813-2.013-0.865-2.826-0.118C48.445,4.8,48.393,6.065,49.14,6.878
		C53.564,11.687,56,17.936,56,24.475c0,8.012-3.612,15.456-9.91,20.424c-0.867,0.684-1.016,1.942-0.331,2.809
		c0.395,0.5,0.98,0.761,1.572,0.761c0.434,0,0.871-0.14,1.237-0.43C55.833,42.308,60,33.72,60,24.475
		C60,16.93,57.189,9.719,52.084,4.17z"/>
	<path fill="#010101" d="M13.913,44.902C7.613,39.934,4,32.489,4,24.475c0-6.535,2.434-12.782,6.853-17.59
		c0.748-0.813,0.694-2.079-0.119-2.826C9.921,3.313,8.656,3.366,7.908,4.179C2.809,9.727,0,16.935,0,24.475
		c0,9.246,4.168,17.836,11.436,23.567c0.367,0.29,0.803,0.43,1.237,0.43c0.591,0,1.177-0.261,1.572-0.762
		C14.929,46.844,14.78,45.586,13.913,44.902z"/>
	<path fill="#010101" d="M20.047,37.004C16.204,33.946,14,29.38,14,24.475c0-3.943,1.447-7.731,4.074-10.666
		c0.737-0.823,0.667-2.088-0.156-2.824c-0.823-0.737-2.087-0.667-2.824,0.156C11.809,14.811,10,19.547,10,24.475
		c0,6.13,2.754,11.838,7.557,15.659c0.368,0.293,0.807,0.435,1.244,0.435c0.589,0,1.172-0.258,1.566-0.755
		C21.055,38.95,20.912,37.692,20.047,37.004z"/>
	<path fill="#010101" d="M44.863,11.093c-0.74-0.82-2.005-0.886-2.825-0.147c-0.82,0.739-0.886,2.004-0.147,2.825
		C44.541,16.711,46,20.513,46,24.475c0,4.877-2.184,9.428-5.992,12.484c-0.861,0.692-0.999,1.95-0.308,2.812
		c0.395,0.492,0.975,0.748,1.561,0.748c0.439,0,0.881-0.144,1.25-0.44C47.271,36.259,50,30.572,50,24.475
		C50,19.522,48.176,14.769,44.863,11.093z"/>
</g>
</svg>
