<?xml version="1.0" encoding="utf-8"?>
<!-- Generator: Adobe Illustrator 17.0.0, SVG Export Plug-In . SVG Version: 6.00 Build 0)  -->
<!DOCTYPE svg PUBLIC "-//W3C//DTD SVG 1.1//EN" "http://www.w3.org/Graphics/SVG/1.1/DTD/svg11.dtd">
<svg version="1.1" id="Layer_1" xmlns="http://www.w3.org/2000/svg" xmlns:xlink="http://www.w3.org/1999/xlink" x="0px" y="0px"
	 width="60px" height="60px" viewBox="0 0 60 60" enable-background="new 0 0 60 60" xml:space="preserve">
<path fill="#010101" d="M49,38c-3.792,0-7.142,1.929-9.121,4.857l-18.798-8.469C21.669,33.042,22,31.56,22,30
	c0-1.536-0.319-2.998-0.89-4.327l18.319-9.269C41.321,19.74,44.899,22,49,22c6.065,0,11-4.935,11-11c0-6.065-4.935-11-11-11
	c-6.065,0-11,4.935-11,11c0,1.254,0.221,2.454,0.609,3.578l-18.453,9.337C18.182,20.955,14.816,19,11,19C4.935,19,0,23.935,0,30
	c0,6.065,4.935,11,11,11c3.79,0,7.139-1.927,9.118-4.853l18.799,8.47C38.33,45.961,38,47.442,38,49c0,6.065,4.935,11,11,11
	c6.065,0,11-4.935,11-11C60,42.935,55.065,38,49,38z"/>
</svg>
