<?xml version="1.0" encoding="utf-8"?>
<!-- Generator: Adobe Illustrator 17.0.0, SVG Export Plug-In . SVG Version: 6.00 Build 0)  -->
<!DOCTYPE svg PUBLIC "-//W3C//DTD SVG 1.1//EN" "http://www.w3.org/Graphics/SVG/1.1/DTD/svg11.dtd">
<svg version="1.1" id="Layer_1" xmlns="http://www.w3.org/2000/svg" xmlns:xlink="http://www.w3.org/1999/xlink" x="0px" y="0px"
	 width="60px" height="60px" viewBox="0 0 60 60" enable-background="new 0 0 60 60" xml:space="preserve">
<g>
	<path fill="#010101" d="M0,22v4c19.065,0,34,14.935,34,34h4C38,38.691,21.309,22,0,22z"/>
	<path fill="#010101" d="M42.479,17.521C31.181,6.222,16.095,0,0,0v4c15.026,0,29.108,5.806,39.651,16.35
		C50.194,30.893,56,44.974,56,60h4C60,43.905,53.778,28.819,42.479,17.521z"/>
	<path fill="#010101" d="M7,46c-3.86,0-7,3.14-7,7c0,3.86,3.14,7,7,7c3.86,0,7-3.14,7-7C14,49.14,10.86,46,7,46z"/>
</g>
</svg>
