<?xml version="1.0" encoding="utf-8"?>
<!-- Generator: Adobe Illustrator 17.0.0, SVG Export Plug-In . SVG Version: 6.00 Build 0)  -->
<!DOCTYPE svg PUBLIC "-//W3C//DTD SVG 1.1//EN" "http://www.w3.org/Graphics/SVG/1.1/DTD/svg11.dtd">
<svg version="1.1" id="Layer_1" xmlns="http://www.w3.org/2000/svg" xmlns:xlink="http://www.w3.org/1999/xlink" x="0px" y="0px"
	 width="60px" height="60px" viewBox="0 0 60 60" enable-background="new 0 0 60 60" xml:space="preserve">
<path fill="#010101" d="M53,0H7C3.14,0,0,3.14,0,7v46c0,3.86,3.14,7,7,7h46c3.86,0,7-3.14,7-7V7C60,3.14,56.86,0,53,0z
	 M15.882,49.824c-3.146,0-5.706-2.56-5.706-5.706s2.559-5.706,5.706-5.706s5.706,2.56,5.706,5.706S19.029,49.824,15.882,49.824z
	 M34.882,50c0-13.072-11.162-23.706-24.882-23.706v-2c14.823,0,26.882,11.532,26.882,25.706H34.882z M49,50
	c0-21.209-17.131-37.824-39-37.824v-2c22.991,0,41,17.493,41,39.824H49z"/>
</svg>
