<?xml version="1.0" encoding="utf-8"?>
<!-- Generator: Adobe Illustrator 17.0.0, SVG Export Plug-In . SVG Version: 6.00 Build 0)  -->
<!DOCTYPE svg PUBLIC "-//W3C//DTD SVG 1.1//EN" "http://www.w3.org/Graphics/SVG/1.1/DTD/svg11.dtd">
<svg version="1.1" xmlns="http://www.w3.org/2000/svg" xmlns:xlink="http://www.w3.org/1999/xlink" x="0px" y="0px" width="60px"
	 height="60px" viewBox="0 0 60 60" enable-background="new 0 0 60 60" xml:space="preserve">
<g id="Layer_1">
	<g>
		<path fill="#231F20" d="M47.483,20.298c-0.319-0.176-0.708-0.165-1.016,0.03L38,25.666V19c0-0.552-0.448-1-1-1H13
			c-0.552,0-1,0.448-1,1v22c0,0.552,0.448,1,1,1h24c0.552,0,1-0.448,1-1v-6.666l8.467,5.338c0.309,0.194,0.697,0.205,1.016,0.03
			C47.802,39.526,48,39.19,48,38.826V21.174C48,20.81,47.802,20.474,47.483,20.298z M46,37.014l-8.467-5.338
			c-0.308-0.194-0.698-0.206-1.016-0.03C36.198,31.822,36,32.157,36,32.521V40H14V20h22v7.479c0,0.364,0.198,0.7,0.517,0.875
			c0.318,0.175,0.707,0.164,1.016-0.03L46,22.986V37.014z"/>
		<path fill="#231F20" d="M30,0C13.458,0,0,13.458,0,30s13.458,30,30,30s30-13.458,30-30S46.542,0,30,0z M30,58
			C14.56,58,2,45.44,2,30S14.56,2,30,2s28,12.56,28,28S45.44,58,30,58z"/>
	</g>
</g>
<g id="nyt_x5F_exporter_x5F_info" display="none">
</g>
</svg>
