<?xml version="1.0" encoding="utf-8"?>
<!-- Generator: Adobe Illustrator 17.0.0, SVG Export Plug-In . SVG Version: 6.00 Build 0)  -->
<!DOCTYPE svg PUBLIC "-//W3C//DTD SVG 1.1//EN" "http://www.w3.org/Graphics/SVG/1.1/DTD/svg11.dtd">
<svg version="1.1" xmlns="http://www.w3.org/2000/svg" xmlns:xlink="http://www.w3.org/1999/xlink" x="0px" y="0px" width="60px"
	 height="60px" viewBox="0 0 60 60" enable-background="new 0 0 60 60" xml:space="preserve">
<g id="Layer_1">
	<g>
		<path fill="#231F20" d="M60,31c0-3.349-2.324-5.604-6-5.949v-1.356c0-2.995-2.317-5.381-5.379-5.667C48.288,8.034,40.075,0,30,0
			c-9.987,0-18.447,8.188-18.951,18.075C8.153,18.497,6,20.811,6,23.696v1.356C2.324,25.396,0,27.651,0,31s2.324,5.604,6,5.949
			v1.878C6,42.259,8.019,44,12,44h5c0.553,0,1-0.448,1-1V19c0-0.552-0.447-1-1-1h-3.948C13.593,9.231,21.122,2,30,2
			c8.962,0,16.273,7.121,16.619,16H43c-0.553,0-1,0.448-1,1v24c0,0.552,0.447,1,1,1h5c0.417,0,0.8-0.03,1.174-0.068v2.459
			c0,4.315-3.511,7.826-7.826,7.826h-4.152c-0.462-2.158-2.38-3.783-4.674-3.783c-2.637,0-4.782,2.145-4.782,4.783
			S29.885,60,32.521,60c2.294,0,4.213-1.625,4.674-3.783h4.152c5.418,0,9.826-4.408,9.826-9.826V43.87
			c0-0.136-0.028-0.266-0.077-0.384C53.01,42.747,54,41.202,54,38.826v-1.878C57.676,36.604,60,34.349,60,31z M2,31
			c0-2.224,1.479-3.645,4-3.938v7.876C3.479,34.645,2,33.224,2,31z M16,42h-4c-3.331,0-4-1.214-4-3.174v-15.13
			C8,21.589,9.72,20,12,20h4V42z M32.521,58c-1.534,0-2.782-1.248-2.782-2.783c0-1.534,1.248-2.783,2.782-2.783
			s2.783,1.248,2.783,2.783C35.305,56.752,34.056,58,32.521,58z M52,38.826C52,40.786,51.331,42,48,42h-4V20h4
			c2.28,0,4,1.589,4,3.696V38.826z M54,34.938v-7.876c2.521,0.292,4,1.714,4,3.938S56.521,34.645,54,34.938z"/>
	</g>
</g>
<g id="nyt_x5F_exporter_x5F_info" display="none">
</g>
</svg>
