<?xml version="1.0" encoding="utf-8"?>
<!-- Generator: Adobe Illustrator 17.0.0, SVG Export Plug-In . SVG Version: 6.00 Build 0)  -->
<!DOCTYPE svg PUBLIC "-//W3C//DTD SVG 1.1//EN" "http://www.w3.org/Graphics/SVG/1.1/DTD/svg11.dtd">
<svg version="1.1" id="Layer_1" xmlns="http://www.w3.org/2000/svg" xmlns:xlink="http://www.w3.org/1999/xlink" x="0px" y="0px"
	 width="60px" height="60px" viewBox="0 0 60 60" enable-background="new 0 0 60 60" xml:space="preserve">
<g>
	<path fill="#010101" d="M38,36c3.309,0,6-2.691,6-6s-2.691-6-6-6h-5c-0.553,0-1,0.448-1,1v10c0,0.552,0.447,1,1,1H38z M34,26h4
		c2.206,0,4,1.794,4,4s-1.794,4-4,4h-4V26z"/>
	<path fill="#010101" d="M38,20H13c-0.553,0-1,0.448-1,1s0.447,1,1,1h25c4.411,0,8,3.589,8,8s-3.589,8-8,8H13c-0.553,0-1,0.448-1,1
		s0.447,1,1,1h25c5.514,0,10-4.486,10-10S43.514,20,38,20z"/>
	<path fill="#010101" d="M30.758,9.97C30.839,9.991,30.921,10,31.001,10c0.448,0,0.855-0.303,0.969-0.757l1.785-7.141l7.121,0.89
		c0.552,0.069,1.048-0.321,1.116-0.868c0.068-0.548-0.32-1.048-0.868-1.116l-8-1c-0.509-0.067-0.972,0.259-1.094,0.75l-2,8
		C29.896,9.293,30.222,9.836,30.758,9.97z"/>
	<path fill="#010101" d="M45.992,8.124c0.068-0.548-0.32-1.048-0.868-1.116l-8-1c-0.031-0.004-0.058,0.006-0.088,0.005
		c-0.056-0.002-0.11,0.001-0.166,0.009c-0.081,0.01-0.156,0.03-0.23,0.059c-0.024,0.009-0.049,0.007-0.072,0.018
		c-0.018,0.009-0.029,0.025-0.046,0.035c-0.075,0.041-0.139,0.093-0.201,0.152c-0.032,0.031-0.066,0.058-0.093,0.093
		c-0.045,0.057-0.077,0.121-0.11,0.187c-0.024,0.05-0.051,0.096-0.067,0.148c-0.005,0.016-0.016,0.027-0.02,0.043l-2,8
		c-0.135,0.536,0.191,1.079,0.728,1.213c0.081,0.021,0.163,0.03,0.243,0.03c0.448,0,0.855-0.303,0.969-0.757l1.305-5.222
		c0.686,1.595,1.317,3.296,1.749,5.201C39.13,15.686,39.542,16,39.999,16c0.073,0,0.147-0.008,0.223-0.025
		c0.538-0.122,0.876-0.658,0.754-1.197c-0.561-2.467-1.408-4.598-2.302-6.561l6.203,0.775C45.425,9.063,45.923,8.672,45.992,8.124z"
		/>
	<path fill="#010101" d="M40.222,44.025c-0.546-0.125-1.075,0.215-1.197,0.754c-1.418,6.25-3.55,10.536-6.708,13.491
		c-0.403,0.377-0.424,1.01-0.047,1.413C32.467,59.894,32.733,60,33,60c0.245,0,0.49-0.089,0.684-0.27
		c3.463-3.24,5.78-7.851,7.292-14.509C41.098,44.683,40.76,44.147,40.222,44.025z"/>
</g>
</svg>
