<?xml version="1.0" encoding="utf-8"?>
<!-- Generator: Adobe Illustrator 17.0.0, SVG Export Plug-In . SVG Version: 6.00 Build 0)  -->
<!DOCTYPE svg PUBLIC "-//W3C//DTD SVG 1.1//EN" "http://www.w3.org/Graphics/SVG/1.1/DTD/svg11.dtd">
<svg version="1.1" id="Layer_1" xmlns="http://www.w3.org/2000/svg" xmlns:xlink="http://www.w3.org/1999/xlink" x="0px" y="0px"
	 width="60px" height="60px" viewBox="0 0 60 60" enable-background="new 0 0 60 60" xml:space="preserve">
<g>
	<path fill="#010101" d="M26,35v-5c0-3.309-2.691-6-6-6s-6,2.691-6,6v5c0,0.552,0.448,1,1,1h10C25.552,36,26,35.552,26,35z M24,34
		h-8v-4c0-2.206,1.794-4,4-4s4,1.794,4,4V34z"/>
	<path fill="#010101" d="M38,24c-3.309,0-6,2.691-6,6v5c0,0.552,0.448,1,1,1h10c0.552,0,1-0.448,1-1v-5C44,26.691,41.309,24,38,24z
		 M42,34h-8v-4c0-2.206,1.794-4,4-4s4,1.794,4,4V34z"/>
	<path fill="#010101" d="M38,20c-3.962,0-7.382,2.321-9,5.67C27.382,22.321,23.962,20,20,20c-5.514,0-10,4.486-10,10v11
		c0,0.552,0.448,1,1,1s1-0.448,1-1V30c0-4.411,3.589-8,8-8s8,3.589,8,8v11c0,0.552,0.448,1,1,1s1-0.448,1-1V30c0-4.411,3.589-8,8-8
		s8,3.589,8,8v11c0,0.552,0.448,1,1,1s1-0.448,1-1V30C48,24.486,43.514,20,38,20z"/>
	<path fill="#010101" d="M33.293,53.293L30,56.586V46c0-0.552-0.448-1-1-1s-1,0.448-1,1v10.586l-3.293-3.293
		c-0.391-0.391-1.023-0.391-1.414,0s-0.391,1.023,0,1.414l5,5c0.092,0.092,0.203,0.165,0.325,0.216C28.74,59.973,28.87,60,29,60
		s0.26-0.027,0.382-0.077c0.122-0.051,0.233-0.124,0.325-0.216l5-5c0.391-0.391,0.391-1.023,0-1.414S33.684,52.902,33.293,53.293z"
		/>
	<path fill="#010101" d="M29.382,0.077c-0.245-0.101-0.52-0.101-0.764,0c-0.122,0.051-0.233,0.124-0.325,0.216l-5,5
		c-0.391,0.391-0.391,1.023,0,1.414s1.023,0.391,1.414,0L28,3.414V14c0,0.552,0.448,1,1,1s1-0.448,1-1V3.414l3.293,3.293
		C33.488,6.902,33.744,7,34,7s0.512-0.098,0.707-0.293c0.391-0.391,0.391-1.023,0-1.414l-5-5
		C29.615,0.201,29.505,0.128,29.382,0.077z"/>
</g>
</svg>
