<?xml version="1.0" encoding="utf-8"?>
<!-- Generator: Adobe Illustrator 17.0.0, SVG Export Plug-In . SVG Version: 6.00 Build 0)  -->
<!DOCTYPE svg PUBLIC "-//W3C//DTD SVG 1.1//EN" "http://www.w3.org/Graphics/SVG/1.1/DTD/svg11.dtd">
<svg version="1.1" id="Layer_1" xmlns="http://www.w3.org/2000/svg" xmlns:xlink="http://www.w3.org/1999/xlink" x="0px" y="0px"
	 width="60px" height="60px" viewBox="0 0 60 60" enable-background="new 0 0 60 60" xml:space="preserve">
<g>
	<path fill="#010101" d="M40,22c-3.309,0-6,2.691-6,6v5c0,0.552,0.448,1,1,1h10c0.552,0,1-0.448,1-1v-5C46,24.691,43.309,22,40,22z
		 M44,32h-8v-4c0-2.206,1.794-4,4-4s4,1.794,4,4V32z"/>
	<path fill="#010101" d="M40,18c-3.962,0-7.382,2.321-9,5.67C29.382,20.321,25.962,18,22,18c-5.514,0-10,4.486-10,10v23
		c0,0.552,0.448,1,1,1s1-0.448,1-1V28c0-4.411,3.589-8,8-8s8,3.589,8,8v23c0,0.552,0.448,1,1,1s1-0.448,1-1V28c0-4.411,3.589-8,8-8
		s8,3.589,8,8v23c0,0.552,0.448,1,1,1s1-0.448,1-1V28C50,22.486,45.514,18,40,18z"/>
	<path fill="#010101" d="M22,22c-3.309,0-6,2.691-6,6v5c0,0.552,0.448,1,1,1h10c0.552,0,1-0.448,1-1v-5C28,24.691,25.309,22,22,22z
		 M26,32h-8v-4c0-2.206,1.794-4,4-4s4,1.794,4,4V32z"/>
	<path fill="#010101" d="M30,8C19.913,8,9.746,10.598,2.295,15.007l0.695-4.866C3.068,9.595,2.688,9.088,2.142,9.01
		C1.592,8.93,1.088,9.312,1.01,9.858l-1,7c-0.016,0.11-0.011,0.22,0.008,0.325c0.004,0.02,0.014,0.037,0.019,0.057
		c0.025,0.099,0.063,0.191,0.116,0.278c0.008,0.014,0.009,0.029,0.018,0.043c0.025,0.037,0.057,0.066,0.087,0.099
		c0.02,0.022,0.036,0.046,0.058,0.066c0.07,0.066,0.147,0.123,0.231,0.165c0.002,0.001,0.003,0.003,0.005,0.004l6,3
		C6.696,20.966,6.849,21,6.999,21c0.367,0,0.72-0.202,0.896-0.553c0.247-0.494,0.047-1.095-0.447-1.342l-4.423-2.211
		C10.194,12.557,20.125,10,30,10c10.54,0,21.172,2.927,28.441,7.829c0.458,0.309,1.079,0.189,1.388-0.27
		c0.309-0.458,0.188-1.079-0.27-1.388C51.973,11.055,40.923,8,30,8z"/>
</g>
</svg>
