<?xml version="1.0" encoding="utf-8"?>
<!-- Generator: Adobe Illustrator 17.0.0, SVG Export Plug-In . SVG Version: 6.00 Build 0)  -->
<!DOCTYPE svg PUBLIC "-//W3C//DTD SVG 1.1//EN" "http://www.w3.org/Graphics/SVG/1.1/DTD/svg11.dtd">
<svg version="1.1" id="Layer_1" xmlns="http://www.w3.org/2000/svg" xmlns:xlink="http://www.w3.org/1999/xlink" x="0px" y="0px"
	 width="60px" height="60px" viewBox="0 0 60 60" enable-background="new 0 0 60 60" xml:space="preserve">
<g>
	<path fill="#010101" d="M20,22c-3.309,0-6,2.691-6,6v5c0,0.552,0.448,1,1,1h10c0.552,0,1-0.448,1-1v-5C26,24.691,23.309,22,20,22z
		 M24,32h-8v-4c0-2.206,1.794-4,4-4s4,1.794,4,4V32z"/>
	<path fill="#010101" d="M38,22c-3.309,0-6,2.691-6,6v5c0,0.552,0.448,1,1,1h10c0.552,0,1-0.448,1-1v-5C44,24.691,41.309,22,38,22z
		 M42,32h-8v-4c0-2.206,1.794-4,4-4s4,1.794,4,4V32z"/>
	<path fill="#010101" d="M38,18c-3.962,0-7.382,2.321-9,5.67C27.382,20.321,23.962,18,20,18c-5.514,0-10,4.486-10,10v11
		c0,0.552,0.448,1,1,1s1-0.448,1-1V28c0-4.411,3.589-8,8-8s8,3.589,8,8v11c0,0.552,0.448,1,1,1s1-0.448,1-1V28c0-4.411,3.589-8,8-8
		s8,3.589,8,8v11c0,0.552,0.448,1,1,1s1-0.448,1-1V28C48,22.486,43.514,18,38,18z"/>
	<path fill="#010101" d="M7,28H3.414l3.293-3.293c0.391-0.391,0.391-1.023,0-1.414s-1.023-0.391-1.414,0l-5,5
		c-0.092,0.092-0.165,0.203-0.216,0.325c-0.101,0.245-0.101,0.52,0,0.764c0.051,0.122,0.124,0.233,0.216,0.325l5,5
		C5.488,34.902,5.744,35,6,35s0.512-0.098,0.707-0.293c0.391-0.391,0.391-1.023,0-1.414L3.414,30H7c0.552,0,1-0.448,1-1
		S7.552,28,7,28z"/>
	<path fill="#010101" d="M57.923,28.618c-0.051-0.122-0.124-0.233-0.216-0.325l-5-5c-0.391-0.391-1.023-0.391-1.414,0
		s-0.391,1.023,0,1.414L54.586,28H51c-0.552,0-1,0.448-1,1s0.448,1,1,1h3.586l-3.293,3.293c-0.391,0.391-0.391,1.023,0,1.414
		C51.488,34.902,51.744,35,52,35s0.512-0.098,0.707-0.293l5-5c0.092-0.092,0.165-0.203,0.216-0.325
		C58.024,29.138,58.024,28.862,57.923,28.618z"/>
</g>
</svg>
