<?xml version="1.0" encoding="utf-8"?>
<!-- Generator: Adobe Illustrator 17.0.0, SVG Export Plug-In . SVG Version: 6.00 Build 0)  -->
<!DOCTYPE svg PUBLIC "-//W3C//DTD SVG 1.1//EN" "http://www.w3.org/Graphics/SVG/1.1/DTD/svg11.dtd">
<svg version="1.1" id="Layer_1" xmlns="http://www.w3.org/2000/svg" xmlns:xlink="http://www.w3.org/1999/xlink" x="0px" y="0px"
	 width="60px" height="60px" viewBox="0 0 60 60" enable-background="new 0 0 60 60" xml:space="preserve">
<g>
	<path fill="#010101" d="M32,46c3.309,0,6-2.691,6-6s-2.691-6-6-6h-5c-0.553,0-1,0.448-1,1v10c0,0.552,0.447,1,1,1H32z M28,36h4
		c2.206,0,4,1.794,4,4s-1.794,4-4,4h-4V36z"/>
	<path fill="#010101" d="M32,28c3.309,0,6-2.691,6-6s-2.691-6-6-6h-5c-0.553,0-1,0.448-1,1v10c0,0.552,0.447,1,1,1H32z M28,18h4
		c2.206,0,4,1.794,4,4s-1.794,4-4,4h-4V18z"/>
	<path fill="#010101" d="M42,22c0-5.514-4.486-10-10-10H9c-0.553,0-1,0.448-1,1s0.447,1,1,1h23c4.411,0,8,3.589,8,8s-3.589,8-8,8H9
		c-0.553,0-1,0.448-1,1s0.447,1,1,1h23c4.411,0,8,3.589,8,8s-3.589,8-8,8H9c-0.553,0-1,0.448-1,1s0.447,1,1,1h23
		c5.514,0,10-4.486,10-10c0-3.962-2.321-7.382-5.67-9C39.679,29.382,42,25.962,42,22z"/>
	<path fill="#010101" d="M49.858,2.99c0.551,0.079,1.054-0.302,1.132-0.848c0.078-0.547-0.302-1.053-0.849-1.131l-7-1
		c-0.111-0.015-0.22-0.011-0.325,0.008c-0.017,0.003-0.033,0.013-0.05,0.017c-0.102,0.025-0.198,0.065-0.286,0.119
		c-0.013,0.008-0.028,0.008-0.04,0.017C42.42,0.185,42.41,0.206,42.392,0.22c-0.068,0.053-0.127,0.113-0.18,0.183
		c-0.024,0.032-0.049,0.062-0.069,0.096c-0.011,0.019-0.028,0.033-0.038,0.053l-3,6c-0.247,0.494-0.047,1.095,0.447,1.342
		C39.696,7.966,39.849,8,39.999,8c0.367,0,0.72-0.202,0.896-0.553l2.211-4.423C47.442,10.195,50,20.126,50,30
		c0,10.54-2.927,21.172-7.829,28.441c-0.309,0.458-0.188,1.079,0.27,1.388C42.612,59.945,42.807,60,42.999,60
		c0.321,0,0.637-0.154,0.83-0.441C48.945,51.973,52,40.923,52,30c0-10.087-2.598-20.253-7.008-27.705L49.858,2.99z"/>
</g>
</svg>
