<?xml version="1.0" encoding="utf-8"?>
<!-- Generator: Adobe Illustrator 17.0.0, SVG Export Plug-In . SVG Version: 6.00 Build 0)  -->
<!DOCTYPE svg PUBLIC "-//W3C//DTD SVG 1.1//EN" "http://www.w3.org/Graphics/SVG/1.1/DTD/svg11.dtd">
<svg version="1.1" id="Layer_1" xmlns="http://www.w3.org/2000/svg" xmlns:xlink="http://www.w3.org/1999/xlink" x="0px" y="0px"
	 width="60px" height="60px" viewBox="0 0 60 60" enable-background="new 0 0 60 60" xml:space="preserve">
<g>
	<path fill="#010101" d="M27,33v-5c0-3.309-2.691-6-6-6s-6,2.691-6,6v5c0,0.552,0.448,1,1,1h10C26.552,34,27,33.552,27,33z M25,32
		h-8v-4c0-2.206,1.794-4,4-4s4,1.794,4,4V32z"/>
	<path fill="#010101" d="M21,18c-5.514,0-10,4.486-10,10v23c0,0.552,0.448,1,1,1s1-0.448,1-1V28c0-4.411,3.589-8,8-8s8,3.589,8,8v19
		v4c0,0.552,0.448,1,1,1s1-0.448,1-1v-4V28v-4c0-4.411,3.589-8,8-8s8,3.589,8,8v27c0,0.552,0.448,1,1,1s1-0.448,1-1V24
		c0-5.514-4.486-10-10-10c-4.914,0-9.003,3.566-9.836,8.245C27.352,19.681,24.371,18,21,18z"/>
	<path fill="#010101" d="M45,29v-5c0-3.309-2.691-6-6-6s-6,2.691-6,6v5c0,0.552,0.448,1,1,1h10C44.552,30,45,29.552,45,29z M43,28
		h-8v-4c0-2.206,1.794-4,4-4s4,1.794,4,4V28z"/>
	<path fill="#010101" d="M6.921,33.004c0.119,0,0.24-0.021,0.357-0.066c0.516-0.198,0.774-0.776,0.577-1.292
		C7.288,30.165,7,28.601,7,27c0-7.168,5.832-13,13-13c1.593,0,3.154,0.292,4.639,0.866c0.516,0.2,1.094-0.057,1.293-0.572
		s-0.057-1.094-0.572-1.293C23.645,12.337,21.841,12,20,12c-8.271,0-15,6.729-15,15c0,1.847,0.332,3.65,0.987,5.361
		C6.139,32.76,6.519,33.004,6.921,33.004z"/>
	<path fill="#010101" d="M33.501,11.737c1.963-1.136,4.211-1.737,6.5-1.737C47.168,10,53,15.83,53,22.996
		c0,1.603-0.287,3.167-0.854,4.646c-0.197,0.516,0.061,1.094,0.577,1.292C52.84,28.979,52.961,29,53.08,29
		c0.402,0,0.782-0.245,0.934-0.643C54.668,26.648,55,24.844,55,22.996C55,14.727,48.271,8,40.001,8c-2.64,0-5.234,0.693-7.502,2.005
		c-0.478,0.277-0.641,0.889-0.365,1.367S33.023,12.013,33.501,11.737z"/>
</g>
</svg>
