<?xml version="1.0" encoding="utf-8"?>
<!-- Generator: Adobe Illustrator 17.0.0, SVG Export Plug-In . SVG Version: 6.00 Build 0)  -->
<!DOCTYPE svg PUBLIC "-//W3C//DTD SVG 1.1//EN" "http://www.w3.org/Graphics/SVG/1.1/DTD/svg11.dtd">
<svg version="1.1" id="Layer_1" xmlns="http://www.w3.org/2000/svg" xmlns:xlink="http://www.w3.org/1999/xlink" x="0px" y="0px"
	 width="60px" height="60px" viewBox="0 0 60 60" enable-background="new 0 0 60 60" xml:space="preserve">
<g>
	<path fill="#010101" d="M32,26c3.309,0,6-2.691,6-6s-2.691-6-6-6h-5c-0.553,0-1,0.448-1,1v10c0,0.552,0.447,1,1,1H32z M28,16h4
		c2.206,0,4,1.794,4,4s-1.794,4-4,4h-4V16z"/>
	<path fill="#010101" d="M32,44c3.309,0,6-2.691,6-6s-2.691-6-6-6h-5c-0.553,0-1,0.448-1,1v10c0,0.552,0.447,1,1,1H32z M28,34h4
		c2.206,0,4,1.794,4,4s-1.794,4-4,4h-4V34z"/>
	<path fill="#010101" d="M42,38c0-3.962-2.321-7.382-5.67-9c3.349-1.618,5.67-5.038,5.67-9c0-5.514-4.486-10-10-10H9
		c-0.553,0-1,0.448-1,1s0.447,1,1,1h23c4.411,0,8,3.589,8,8s-3.589,8-8,8H9c-0.553,0-1,0.448-1,1s0.447,1,1,1h23
		c4.411,0,8,3.589,8,8s-3.589,8-8,8H9c-0.553,0-1,0.448-1,1s0.447,1,1,1h23C37.514,48,42,43.514,42,38z"/>
	<path fill="#010101" d="M43.829,0.441c-0.31-0.458-0.93-0.58-1.389-0.27c-0.457,0.309-0.578,0.93-0.27,1.388
		C47.073,8.828,50,19.46,50,30c0,9.874-2.558,19.805-6.894,26.976l-2.211-4.423c-0.248-0.495-0.847-0.695-1.342-0.447
		c-0.494,0.247-0.694,0.848-0.447,1.342l3,6c0.011,0.021,0.028,0.037,0.04,0.058c0.016,0.028,0.035,0.053,0.055,0.079
		c0.06,0.081,0.128,0.152,0.207,0.211c0.013,0.01,0.019,0.024,0.032,0.033c0.006,0.004,0.012,0.005,0.018,0.009
		c0.06,0.039,0.126,0.067,0.193,0.092c0.023,0.009,0.045,0.023,0.069,0.03c0.084,0.025,0.173,0.037,0.263,0.039
		c0.006,0,0.012,0.003,0.017,0.003c0,0,0,0,0.001,0s0,0,0,0c0.047,0,0.094-0.003,0.142-0.01l7-1
		c0.547-0.078,0.927-0.584,0.849-1.131c-0.078-0.546-0.588-0.926-1.132-0.848l-4.866,0.695C49.402,50.253,52,40.087,52,30
		C52,19.077,48.945,8.027,43.829,0.441z"/>
</g>
</svg>
