<?xml version="1.0" encoding="utf-8"?>
<!-- Generator: Adobe Illustrator 17.0.0, SVG Export Plug-In . SVG Version: 6.00 Build 0)  -->
<!DOCTYPE svg PUBLIC "-//W3C//DTD SVG 1.1//EN" "http://www.w3.org/Graphics/SVG/1.1/DTD/svg11.dtd">
<svg version="1.1" id="Layer_1" xmlns="http://www.w3.org/2000/svg" xmlns:xlink="http://www.w3.org/1999/xlink" x="0px" y="0px"
	 width="60px" height="60px" viewBox="0 0 60 60" enable-background="new 0 0 60 60" xml:space="preserve">
<g>
	<path fill="#010101" d="M47,20c4.962,0,9-4.038,9-9s-4.038-9-9-9s-9,4.038-9,9S42.038,20,47,20z M47,4c3.86,0,7,3.14,7,7
		s-3.14,7-7,7s-7-3.14-7-7S43.14,4,47,4z"/>
	<path fill="#010101" d="M47,12h3c0.552,0,1-0.448,1-1s-0.448-1-1-1h-2V7c0-0.552-0.448-1-1-1s-1,0.448-1,1v4
		C46,11.552,46.448,12,47,12z"/>
	<path fill="#010101" d="M25,40c0.552,0,1-0.448,1-1v-5c0-3.309-2.691-6-6-6s-6,2.691-6,6v5c0,0.552,0.448,1,1,1H25z M16,34
		c0-2.206,1.794-4,4-4s4,1.794,4,4v4h-8V34z"/>
	<path fill="#010101" d="M20,24c-5.514,0-10,4.486-10,10v23c0,0.552,0.448,1,1,1s1-0.448,1-1V34c0-4.411,3.589-8,8-8s8,3.589,8,8v19
		v4c0,0.552,0.448,1,1,1s1-0.448,1-1v-4V34v-4c0-4.411,3.589-8,8-8s8,3.589,8,8v27c0,0.552,0.448,1,1,1s1-0.448,1-1V30
		c0-5.514-4.486-10-10-10c-4.914,0-9.003,3.566-9.836,8.245C26.352,25.681,23.371,24,20,24z"/>
	<path fill="#010101" d="M33,36h10c0.552,0,1-0.448,1-1v-5c0-3.309-2.691-6-6-6s-6,2.691-6,6v5C32,35.552,32.448,36,33,36z M34,30
		c0-2.206,1.794-4,4-4s4,1.794,4,4v4h-8V30z"/>
	<path fill="#010101" d="M5.921,39.004c0.119,0,0.24-0.021,0.357-0.066c0.516-0.198,0.774-0.776,0.577-1.292
		C6.288,36.165,6,34.601,6,33c0-7.168,5.832-13,13-13c1.593,0,3.154,0.292,4.639,0.866c0.514,0.2,1.094-0.057,1.293-0.572
		s-0.057-1.094-0.572-1.293C22.645,18.337,20.841,18,19,18c-8.271,0-15,6.729-15,15c0,1.847,0.332,3.65,0.987,5.361
		C5.139,38.76,5.519,39.004,5.921,39.004z"/>
	<path fill="#010101" d="M32.001,17.871c0.17,0,0.342-0.043,0.5-0.134c0.868-0.503,1.797-0.904,2.761-1.192
		c0.529-0.158,0.83-0.715,0.672-1.244c-0.158-0.53-0.718-0.831-1.244-0.672c-1.113,0.333-2.187,0.796-3.19,1.376
		c-0.478,0.277-0.641,0.889-0.365,1.367C31.32,17.692,31.656,17.871,32.001,17.871z"/>
	<path fill="#010101" d="M54,28.996c0-2.663-0.706-5.277-2.041-7.56c-0.278-0.476-0.891-0.637-1.368-0.358
		c-0.477,0.279-0.637,0.892-0.358,1.368C51.389,24.423,52,26.688,52,28.996c0,1.603-0.287,3.167-0.854,4.646
		c-0.197,0.516,0.061,1.094,0.577,1.292C51.84,34.979,51.961,35,52.08,35c0.402,0,0.782-0.245,0.934-0.643
		C53.668,32.648,54,30.844,54,28.996z"/>
</g>
</svg>
