<?xml version="1.0" encoding="utf-8"?>
<!-- Generator: Adobe Illustrator 17.0.0, SVG Export Plug-In . SVG Version: 6.00 Build 0)  -->
<!DOCTYPE svg PUBLIC "-//W3C//DTD SVG 1.1//EN" "http://www.w3.org/Graphics/SVG/1.1/DTD/svg11.dtd">
<svg version="1.1" id="Layer_1" xmlns="http://www.w3.org/2000/svg" xmlns:xlink="http://www.w3.org/1999/xlink" x="0px" y="0px"
	 width="60px" height="60px" viewBox="0 0 60 60" enable-background="new 0 0 60 60" xml:space="preserve">
<g>
	<path fill="#010101" d="M26,36v-5c0-3.309-2.691-6-6-6s-6,2.691-6,6v5c0,0.552,0.448,1,1,1h10C25.552,37,26,36.552,26,36z M24,35
		h-8v-4c0-2.206,1.794-4,4-4s4,1.794,4,4V35z"/>
	<path fill="#010101" d="M44,32v-5c0-3.309-2.691-6-6-6s-6,2.691-6,6v5c0,0.552,0.448,1,1,1h10C43.552,33,44,32.552,44,32z M42,31
		h-8v-4c0-2.206,1.794-4,4-4s4,1.794,4,4V31z"/>
	<path fill="#010101" d="M47,55c0.552,0,1-0.448,1-1V27c0-5.514-4.486-10-10-10c-4.914,0-9.003,3.566-9.836,8.245
		C26.352,22.681,23.371,21,20,21c-5.514,0-10,4.486-10,10v23c0,0.552,0.448,1,1,1s1-0.448,1-1V31c0-4.411,3.589-8,8-8s8,3.589,8,8
		v19v4c0,0.552,0.448,1,1,1s1-0.448,1-1v-4V31v-4c0-4.411,3.589-8,8-8s8,3.589,8,8v27C46,54.552,46.448,55,47,55z"/>
	<path fill="#010101" d="M1.869,36c0.095,0,0.19-0.014,0.286-0.042c0.529-0.158,0.831-0.714,0.673-1.244C2.484,33.561,2,29.597,2,29
		C2,17.972,10.972,9,22,9c1.282,0,2.591,0.133,3.891,0.396c0.543,0.109,1.069-0.24,1.178-0.782c0.11-0.542-0.24-1.069-0.782-1.178
		C24.857,7.146,23.415,7,22,7C9.869,7,0,16.869,0,29c0,0.764,0.495,4.888,0.911,6.285C1.04,35.719,1.438,36,1.869,36z"/>
	<path fill="#010101" d="M38,5c-2.469,0-4.902,0.413-7.23,1.228c-0.521,0.182-0.796,0.753-0.614,1.274s0.756,0.797,1.274,0.614
		C33.546,7.375,35.756,7,38,7c11.028,0,20,8.972,20,20c0,1.948-0.279,3.872-0.829,5.72c-0.158,0.529,0.144,1.086,0.673,1.244
		c0.095,0.028,0.191,0.042,0.286,0.042c0.431,0,0.829-0.281,0.958-0.715C59.693,31.257,60,29.141,60,27C60,14.869,50.131,5,38,5z"/>
	<path fill="#010101" d="M37,11c-2.166,0-4.276,0.402-6.271,1.195c-0.513,0.204-0.764,0.785-0.56,1.298s0.786,0.767,1.298,0.56
		C33.227,13.354,35.088,13,37,13c8.271,0,15,6.729,15,15c0,0.552,0.448,1,1,1s1-0.448,1-1C54,18.626,46.374,11,37,11z"/>
	<path fill="#010101" d="M6,29c0,0.552,0.448,1,1,1s1-0.448,1-1c0-6.617,5.383-12,12-12c2.298,0,4.532,0.652,6.46,1.884
		c0.464,0.298,1.084,0.162,1.381-0.304c0.298-0.465,0.162-1.083-0.304-1.381C25.288,15.761,22.681,15,20,15C12.28,15,6,21.28,6,29z"
		/>
</g>
</svg>
