<?xml version="1.0" encoding="utf-8"?>
<!-- Generator: Adobe Illustrator 17.0.0, SVG Export Plug-In . SVG Version: 6.00 Build 0)  -->
<!DOCTYPE svg PUBLIC "-//W3C//DTD SVG 1.1//EN" "http://www.w3.org/Graphics/SVG/1.1/DTD/svg11.dtd">
<svg version="1.1" id="Layer_1" xmlns="http://www.w3.org/2000/svg" xmlns:xlink="http://www.w3.org/1999/xlink" x="0px" y="0px"
	 width="60px" height="60px" viewBox="0 0 60 60" enable-background="new 0 0 60 60" xml:space="preserve">
<g>
	<path fill="#010101" d="M18,20c-3.309,0-6,2.691-6,6v5c0,0.552,0.447,1,1,1h10c0.553,0,1-0.448,1-1v-5C24,22.691,21.309,20,18,20z
		 M22,30h-8v-4c0-2.206,1.794-4,4-4s4,1.794,4,4V30z"/>
	<path fill="#010101" d="M18,18c4.411,0,8,3.589,8,8v25c0,0.552,0.447,1,1,1s1-0.448,1-1V26c0-5.514-4.486-10-10-10S8,20.486,8,26
		v25c0,0.552,0.447,1,1,1s1-0.448,1-1V26C10,21.589,13.589,18,18,18z"/>
	<path fill="#010101" d="M59.923,22.618c-0.051-0.123-0.124-0.233-0.217-0.326l-4.999-4.999c-0.391-0.391-1.023-0.391-1.414,0
		s-0.391,1.023,0,1.414L56.586,22H40c-0.553,0-1,0.448-1,1s0.447,1,1,1h16.586l-3.293,3.293c-0.391,0.391-0.391,1.023,0,1.414
		C53.488,28.902,53.744,29,54,29s0.512-0.098,0.707-0.293l4.999-4.999c0.093-0.092,0.166-0.203,0.217-0.326
		C60.024,23.138,60.024,22.862,59.923,22.618z"/>
	<path fill="#010101" d="M18,10c8.822,0,16,7.178,16,16c0,3.206-0.944,6.299-2.731,8.944c-0.31,0.458-0.189,1.08,0.269,1.389
		c0.456,0.309,1.08,0.188,1.388-0.269C34.937,33.087,36,29.607,36,26c0-9.925-8.075-18-18-18S0,16.075,0,26
		c0,3.645,1.084,7.156,3.136,10.154c0.193,0.283,0.507,0.436,0.826,0.436c0.194,0,0.391-0.057,0.563-0.175
		c0.456-0.312,0.572-0.934,0.261-1.39C2.964,32.361,2,29.24,2,26C2,17.178,9.178,10,18,10z"/>
</g>
</svg>
