<?xml version="1.0" encoding="utf-8"?>
<!-- Generator: Adobe Illustrator 17.0.0, SVG Export Plug-In . SVG Version: 6.00 Build 0)  -->
<!DOCTYPE svg PUBLIC "-//W3C//DTD SVG 1.1//EN" "http://www.w3.org/Graphics/SVG/1.1/DTD/svg11.dtd">
<svg version="1.1" id="Layer_1" xmlns="http://www.w3.org/2000/svg" xmlns:xlink="http://www.w3.org/1999/xlink" x="0px" y="0px"
	 width="60px" height="60px" viewBox="0 0 60 60" enable-background="new 0 0 60 60" xml:space="preserve">
<g>
	<path fill="#010101" d="M34,36c3.309,0,6-2.691,6-6s-2.691-6-6-6h-5c-0.553,0-1,0.448-1,1v10c0,0.552,0.447,1,1,1H34z M30,26h4
		c2.206,0,4,1.794,4,4s-1.794,4-4,4h-4V26z"/>
	<path fill="#010101" d="M44,30c0-5.514-4.486-10-10-10H9c-0.553,0-1,0.448-1,1s0.447,1,1,1h25c4.411,0,8,3.589,8,8s-3.589,8-8,8H9
		c-0.553,0-1,0.448-1,1s0.447,1,1,1h25C39.514,40,44,35.514,44,30z"/>
	<path fill="#010101" d="M31.293,6.707c0.391,0.391,1.023,0.391,1.414,0L36,3.414V8c0,0.552,0.447,1,1,1s1-0.448,1-1V3.414
		l3.293,3.293C41.488,6.902,41.744,7,42,7s0.512-0.098,0.707-0.293c0.391-0.391,0.391-1.023,0-1.414l-4.999-4.999
		c-0.092-0.093-0.203-0.166-0.326-0.217c-0.244-0.101-0.52-0.101-0.764,0c-0.123,0.051-0.233,0.124-0.326,0.217l-4.999,4.999
		C30.902,5.684,30.902,6.316,31.293,6.707z"/>
	<path fill="#010101" d="M37,51c-0.553,0-1,0.448-1,1v4.586l-3.293-3.293c-0.391-0.391-1.023-0.391-1.414,0s-0.391,1.023,0,1.414
		l4.999,4.999c0.092,0.093,0.203,0.166,0.326,0.217C36.74,59.973,36.87,60,37,60s0.26-0.027,0.382-0.077
		c0.123-0.051,0.233-0.124,0.326-0.217l4.999-4.999c0.391-0.391,0.391-1.023,0-1.414s-1.023-0.391-1.414,0L38,56.586V52
		C38,51.448,37.553,51,37,51z"/>
	<path fill="#010101" d="M34,12c-3.645,0-7.156,1.084-10.154,3.136c-0.456,0.312-0.572,0.934-0.261,1.39
		c0.312,0.457,0.934,0.573,1.39,0.261C27.639,14.963,30.76,14,34,14c8.822,0,16,7.178,16,16s-7.178,16-16,16
		c-3.206,0-6.299-0.945-8.944-2.732c-0.457-0.309-1.08-0.188-1.388,0.269c-0.31,0.458-0.189,1.08,0.269,1.389
		C26.913,46.937,30.394,48,34,48c9.925,0,18-8.075,18-18S43.925,12,34,12z"/>
</g>
</svg>
