<?xml version="1.0" encoding="utf-8"?>
<!-- Generator: Adobe Illustrator 17.0.0, SVG Export Plug-In . SVG Version: 6.00 Build 0)  -->
<!DOCTYPE svg PUBLIC "-//W3C//DTD SVG 1.1//EN" "http://www.w3.org/Graphics/SVG/1.1/DTD/svg11.dtd">
<svg version="1.1" id="Layer_1" xmlns="http://www.w3.org/2000/svg" xmlns:xlink="http://www.w3.org/1999/xlink" x="0px" y="0px"
	 width="60px" height="60px" viewBox="0 0 60 60" enable-background="new 0 0 60 60" xml:space="preserve">
<g>
	<path fill="#010101" d="M34,48c3.309,0,6-2.691,6-6s-2.691-6-6-6h-5c-0.552,0-1,0.448-1,1v10c0,0.552,0.448,1,1,1H34z M30,38h4
		c2.206,0,4,1.794,4,4s-1.794,4-4,4h-4V38z"/>
	<path fill="#010101" d="M44,42c0-5.514-4.486-10-10-10H9c-0.552,0-1,0.448-1,1s0.448,1,1,1h25c4.411,0,8,3.589,8,8s-3.589,8-8,8H9
		c-0.552,0-1,0.448-1,1s0.448,1,1,1h25C39.514,52,44,47.514,44,42z"/>
	<path fill="#010101" d="M37,21c0.552,0,1-0.448,1-1V3.414l3.293,3.293C41.488,6.902,41.744,7,42,7s0.512-0.098,0.707-0.293
		c0.391-0.391,0.391-1.023,0-1.414l-5-5c-0.092-0.092-0.203-0.165-0.325-0.216c-0.245-0.101-0.52-0.101-0.764,0
		c-0.122,0.051-0.233,0.124-0.325,0.216l-5,5c-0.391,0.391-0.391,1.023,0,1.414s1.023,0.391,1.414,0L36,3.414V20
		C36,20.552,36.448,21,37,21z"/>
	<path fill="#010101" d="M34,58c-3.24,0-6.361-0.963-9.025-2.786c-0.455-0.312-1.079-0.194-1.39,0.261
		c-0.312,0.456-0.195,1.078,0.261,1.39C26.844,58.916,30.355,60,34,60c9.925,0,18-8.075,18-18s-8.075-18-18-18
		c-3.607,0-7.087,1.063-10.064,3.075c-0.458,0.309-0.578,0.931-0.269,1.389c0.309,0.457,0.93,0.578,1.389,0.269
		C27.701,26.945,30.794,26,34,26c8.822,0,16,7.178,16,16S42.822,58,34,58z"/>
</g>
</svg>
