<?xml version="1.0" encoding="utf-8"?>
<!-- Generator: Adobe Illustrator 17.0.0, SVG Export Plug-In . SVG Version: 6.00 Build 0)  -->
<!DOCTYPE svg PUBLIC "-//W3C//DTD SVG 1.1//EN" "http://www.w3.org/Graphics/SVG/1.1/DTD/svg11.dtd">
<svg version="1.1" id="Layer_1" xmlns="http://www.w3.org/2000/svg" xmlns:xlink="http://www.w3.org/1999/xlink" x="0px" y="0px"
	 width="60px" height="60px" viewBox="0 0 60 60" enable-background="new 0 0 60 60" xml:space="preserve">
<g>
	<path fill="#010101" d="M34,24c3.309,0,6-2.691,6-6s-2.691-6-6-6h-5c-0.552,0-1,0.448-1,1v10c0,0.552,0.448,1,1,1H34z M30,14h4
		c2.206,0,4,1.794,4,4s-1.794,4-4,4h-4V14z"/>
	<path fill="#010101" d="M44,18c0-5.514-4.486-10-10-10H9C8.448,8,8,8.448,8,9s0.448,1,1,1h25c4.411,0,8,3.589,8,8s-3.589,8-8,8H9
		c-0.552,0-1,0.448-1,1s0.448,1,1,1h25C39.514,28,44,23.514,44,18z"/>
	<path fill="#010101" d="M37,39c-0.552,0-1,0.448-1,1v16.586l-3.293-3.293c-0.391-0.391-1.023-0.391-1.414,0s-0.391,1.023,0,1.414
		l5,5c0.092,0.092,0.203,0.165,0.325,0.216C36.74,59.973,36.87,60,37,60s0.26-0.027,0.382-0.077
		c0.122-0.051,0.233-0.124,0.325-0.216l5-5c0.391-0.391,0.391-1.023,0-1.414s-1.023-0.391-1.414,0L38,56.586V40
		C38,39.448,37.552,39,37,39z"/>
	<path fill="#010101" d="M34,0c-3.645,0-7.156,1.084-10.154,3.136c-0.456,0.312-0.573,0.934-0.261,1.39s0.935,0.573,1.39,0.261
		C27.639,2.963,30.76,2,34,2c8.822,0,16,7.178,16,16s-7.178,16-16,16c-3.206,0-6.299-0.945-8.944-2.732
		c-0.459-0.31-1.079-0.188-1.389,0.269c-0.309,0.458-0.189,1.08,0.269,1.389C26.913,34.937,30.393,36,34,36c9.925,0,18-8.075,18-18
		S43.925,0,34,0z"/>
</g>
</svg>
