<?xml version="1.0" encoding="utf-8"?>
<!-- Generator: Adobe Illustrator 17.0.0, SVG Export Plug-In . SVG Version: 6.00 Build 0)  -->
<!DOCTYPE svg PUBLIC "-//W3C//DTD SVG 1.1//EN" "http://www.w3.org/Graphics/SVG/1.1/DTD/svg11.dtd">
<svg version="1.1" id="Layer_1" xmlns="http://www.w3.org/2000/svg" xmlns:xlink="http://www.w3.org/1999/xlink" x="0px" y="0px"
	 width="60px" height="60px" viewBox="0 0 60 60" enable-background="new 0 0 60 60" xml:space="preserve">
<g>
	<path fill="#010101" d="M38,36c3.309,0,6-2.691,6-6s-2.691-6-6-6h-5c-0.553,0-1,0.448-1,1v10c0,0.552,0.447,1,1,1H38z M34,26h4
		c2.206,0,4,1.794,4,4s-1.794,4-4,4h-4V26z"/>
	<path fill="#010101" d="M38,20H13c-0.553,0-1,0.448-1,1s0.447,1,1,1h25c4.411,0,8,3.589,8,8s-3.589,8-8,8H13c-0.553,0-1,0.448-1,1
		s0.447,1,1,1h25c5.514,0,10-4.486,10-10S43.514,20,38,20z"/>
	<path fill="#010101" d="M40.876,57.008l-7.121,0.89l-1.785-7.141c-0.134-0.535-0.677-0.865-1.212-0.728
		c-0.536,0.134-0.862,0.677-0.728,1.213l2,8C32.143,59.692,32.546,60,32.999,60c0.041,0,0.083-0.002,0.125-0.008l8-1
		c0.548-0.068,0.937-0.568,0.868-1.116C41.923,57.329,41.425,56.94,40.876,57.008z"/>
	<path fill="#010101" d="M44.876,51.008l-6.203,0.775c0.894-1.964,1.742-4.094,2.302-6.561c0.122-0.539-0.216-1.075-0.754-1.197
		c-0.546-0.125-1.075,0.215-1.197,0.753c-0.432,1.905-1.064,3.606-1.749,5.201l-1.305-5.222c-0.134-0.536-0.679-0.863-1.212-0.728
		c-0.536,0.134-0.862,0.677-0.728,1.213l2,8c0.004,0.017,0.015,0.029,0.02,0.045c0.014,0.045,0.036,0.085,0.056,0.128
		c0.032,0.069,0.067,0.134,0.113,0.193c0.028,0.035,0.058,0.066,0.09,0.098c0.059,0.058,0.123,0.105,0.194,0.147
		c0.023,0.014,0.038,0.036,0.063,0.048c0.014,0.007,0.029,0.004,0.043,0.01C36.732,53.964,36.861,54,36.999,54
		c0.041,0,0.083-0.002,0.125-0.008l8-1c0.548-0.068,0.937-0.568,0.868-1.116C45.924,51.329,45.429,50.938,44.876,51.008z"/>
	<path fill="#010101" d="M32.27,0.317c-0.377,0.403-0.356,1.036,0.047,1.413c3.158,2.955,5.29,7.242,6.708,13.491
		C39.13,15.686,39.542,16,39.999,16c0.073,0,0.147-0.008,0.223-0.025c0.538-0.122,0.876-0.658,0.754-1.196
		C39.464,8.121,37.146,3.51,33.684,0.27C33.279-0.108,32.647-0.087,32.27,0.317z"/>
</g>
</svg>
