<?xml version="1.0" encoding="utf-8"?>
<!-- Generator: Adobe Illustrator 17.0.0, SVG Export Plug-In . SVG Version: 6.00 Build 0)  -->
<!DOCTYPE svg PUBLIC "-//W3C//DTD SVG 1.1//EN" "http://www.w3.org/Graphics/SVG/1.1/DTD/svg11.dtd">
<svg version="1.1" id="Layer_1" xmlns="http://www.w3.org/2000/svg" xmlns:xlink="http://www.w3.org/1999/xlink" x="0px" y="0px"
	 width="60px" height="60px" viewBox="0 0 60 60" enable-background="new 0 0 60 60" xml:space="preserve">
<g>
	<path fill="#010101" d="M30,16c-3.309,0-6,2.691-6,6v5c0,0.552,0.448,1,1,1h10c0.552,0,1-0.448,1-1v-5C36,18.691,33.309,16,30,16z
		 M34,26h-8v-4c0-2.206,1.794-4,4-4s4,1.794,4,4V26z"/>
	<path fill="#010101" d="M39,48c0.552,0,1-0.448,1-1V22c0-5.514-4.486-10-10-10s-10,4.486-10,10v25c0,0.552,0.448,1,1,1s1-0.448,1-1
		V22c0-4.411,3.589-8,8-8s8,3.589,8,8v25C38,47.552,38.448,48,39,48z"/>
	<path fill="#010101" d="M17,23c0-0.552-0.448-1-1-1H9.414l3.293-3.293c0.391-0.391,0.391-1.023,0-1.414s-1.023-0.391-1.414,0l-5,5
		c-0.092,0.092-0.165,0.203-0.216,0.325c-0.101,0.245-0.101,0.52,0,0.764c0.051,0.122,0.124,0.233,0.216,0.325l5,5
		C11.488,28.902,11.744,29,12,29s0.512-0.098,0.707-0.293c0.391-0.391,0.391-1.023,0-1.414L9.414,24H16C16.552,24,17,23.552,17,23z"
		/>
	<path fill="#010101" d="M5.293,28.707C5.488,28.902,5.744,29,6,29s0.512-0.098,0.707-0.293c0.391-0.391,0.391-1.023,0-1.414
		L2.414,23l4.293-4.293c0.391-0.391,0.391-1.023,0-1.414s-1.023-0.391-1.414,0l-5,5c-0.391,0.391-0.391,1.023,0,1.414L5.293,28.707z
		"/>
	<path fill="#010101" d="M47.293,28.707C47.488,28.902,47.744,29,48,29s0.512-0.098,0.707-0.293l5-5
		c0.092-0.092,0.165-0.203,0.216-0.325c0.101-0.245,0.101-0.52,0-0.764c-0.051-0.122-0.124-0.233-0.216-0.325l-5-5
		c-0.391-0.391-1.023-0.391-1.414,0s-0.391,1.023,0,1.414L50.586,22H44c-0.552,0-1,0.448-1,1s0.448,1,1,1h6.586l-3.293,3.293
		C46.902,27.684,46.902,28.316,47.293,28.707z"/>
	<path fill="#010101" d="M54.707,17.293c-0.391-0.391-1.023-0.391-1.414,0s-0.391,1.023,0,1.414L57.586,23l-4.293,4.293
		c-0.391,0.391-0.391,1.023,0,1.414C53.488,28.902,53.744,29,54,29s0.512-0.098,0.707-0.293l5-5c0.391-0.391,0.391-1.023,0-1.414
		L54.707,17.293z"/>
</g>
</svg>
