<?xml version="1.0" encoding="utf-8"?>
<!-- Generator: Adobe Illustrator 17.0.0, SVG Export Plug-In . SVG Version: 6.00 Build 0)  -->
<!DOCTYPE svg PUBLIC "-//W3C//DTD SVG 1.1//EN" "http://www.w3.org/Graphics/SVG/1.1/DTD/svg11.dtd">
<svg version="1.1" id="Layer_1" xmlns="http://www.w3.org/2000/svg" xmlns:xlink="http://www.w3.org/1999/xlink" x="0px" y="0px"
	 width="60px" height="60px" viewBox="0 0 60 60" enable-background="new 0 0 60 60" xml:space="preserve">
<g>
	<path fill="#010101" d="M30,16c-3.309,0-6,2.691-6,6v5c0,0.552,0.447,1,1,1h10c0.553,0,1-0.448,1-1v-5C36,18.691,33.309,16,30,16z
		 M34,26h-8v-4c0-2.206,1.794-4,4-4s4,1.794,4,4V26z"/>
	<path fill="#010101" d="M30,12c-5.514,0-10,4.486-10,10v25c0,0.552,0.447,1,1,1s1-0.448,1-1V22c0-4.411,3.589-8,8-8s8,3.589,8,8v25
		c0,0.552,0.447,1,1,1s1-0.448,1-1V22C40,16.486,35.514,12,30,12z"/>
	<path fill="#010101" d="M9.242,28.03l-7.14-1.785l0.89-7.121c0.068-0.548-0.32-1.048-0.868-1.116
		c-0.55-0.072-1.048,0.32-1.116,0.868l-1,8c-0.062,0.502,0.259,0.972,0.75,1.094l8,2C8.839,29.991,8.921,30,9.001,30
		c0.448,0,0.855-0.303,0.969-0.757C10.104,28.707,9.778,28.164,9.242,28.03z"/>
	<path fill="#010101" d="M15.242,24.03l-5.221-1.305c1.595-0.685,3.295-1.317,5.2-1.749c0.538-0.122,0.876-0.658,0.754-1.197
		c-0.122-0.539-0.654-0.875-1.197-0.753c-2.467,0.56-4.598,1.407-6.561,2.302l0.775-6.203c0.068-0.548-0.32-1.048-0.868-1.116
		c-0.548-0.069-1.047,0.321-1.116,0.868l-1,8c-0.004,0.031,0.006,0.059,0.005,0.089c-0.002,0.058,0.002,0.113,0.01,0.171
		c0.01,0.073,0.028,0.142,0.053,0.21c0.011,0.029,0.009,0.059,0.022,0.087c0.014,0.029,0.035,0.05,0.052,0.077
		c0.02,0.033,0.04,0.064,0.064,0.095c0.048,0.063,0.103,0.117,0.164,0.166c0.024,0.019,0.044,0.041,0.07,0.058
		c0.092,0.061,0.191,0.107,0.297,0.136c0.005,0.001,0.008,0.005,0.013,0.006l8,2c0.081,0.021,0.163,0.03,0.243,0.03
		c0.448,0,0.855-0.303,0.969-0.757C16.104,24.707,15.778,24.164,15.242,24.03z"/>
	<path fill="#010101" d="M45.222,19.025c-0.543-0.125-1.075,0.215-1.197,0.754c-0.122,0.539,0.216,1.074,0.754,1.196
		c6.25,1.419,10.537,3.55,13.491,6.708C58.467,27.894,58.733,28,59,28c0.245,0,0.49-0.089,0.684-0.27
		c0.403-0.377,0.424-1.01,0.047-1.413C56.489,22.854,51.879,20.536,45.222,19.025z"/>
</g>
</svg>
