<?xml version="1.0" encoding="utf-8"?>
<!-- Generator: Adobe Illustrator 17.0.0, SVG Export Plug-In . SVG Version: 6.00 Build 0)  -->
<!DOCTYPE svg PUBLIC "-//W3C//DTD SVG 1.1//EN" "http://www.w3.org/Graphics/SVG/1.1/DTD/svg11.dtd">
<svg version="1.1" id="Layer_1" xmlns="http://www.w3.org/2000/svg" xmlns:xlink="http://www.w3.org/1999/xlink" x="0px" y="0px"
	 width="60px" height="60px" viewBox="0 0 60 60" enable-background="new 0 0 60 60" xml:space="preserve">
<g>
	<path fill="#010101" d="M36,35v-5c0-3.309-2.691-6-6-6s-6,2.691-6,6v5c0,0.552,0.447,1,1,1h10C35.553,36,36,35.552,36,35z M34,34
		h-8v-4c0-2.206,1.794-4,4-4s4,1.794,4,4V34z"/>
	<path fill="#010101" d="M40,41V30c0-5.514-4.486-10-10-10s-10,4.486-10,10v11c0,0.552,0.447,1,1,1s1-0.448,1-1V30
		c0-4.411,3.589-8,8-8s8,3.589,8,8v11c0,0.552,0.447,1,1,1S40,41.552,40,41z"/>
	<path fill="#010101" d="M0.077,31.382c0.051,0.123,0.124,0.233,0.217,0.326l4.999,4.999C5.488,36.902,5.744,37,6,37
		s0.512-0.098,0.707-0.293c0.391-0.391,0.391-1.023,0-1.414L3.414,32H14c0.553,0,1-0.448,1-1s-0.447-1-1-1H3.414l3.293-3.293
		c0.391-0.391,0.391-1.023,0-1.414s-1.023-0.391-1.414,0l-4.999,4.999c-0.093,0.092-0.166,0.203-0.217,0.326
		C-0.024,30.862-0.024,31.138,0.077,31.382z"/>
	<path fill="#010101" d="M56.586,30H46c-0.553,0-1,0.448-1,1s0.447,1,1,1h10.586l-3.293,3.293c-0.391,0.391-0.391,1.023,0,1.414
		C53.488,36.902,53.744,37,54,37s0.512-0.098,0.707-0.293l4.999-4.999c0.093-0.092,0.166-0.203,0.217-0.326
		c0.101-0.244,0.101-0.52,0-0.764c-0.051-0.123-0.124-0.233-0.217-0.326l-4.999-4.999c-0.391-0.391-1.023-0.391-1.414,0
		s-0.391,1.023,0,1.414L56.586,30z"/>
	<path fill="#010101" d="M30.292,59.706c0.092,0.093,0.203,0.166,0.326,0.217C30.74,59.973,30.87,60,31,60s0.26-0.027,0.382-0.077
		c0.123-0.051,0.233-0.124,0.326-0.217l4.999-4.999c0.391-0.391,0.391-1.023,0-1.414s-1.023-0.391-1.414,0L32,56.586V46
		c0-0.552-0.447-1-1-1s-1,0.448-1,1v10.586l-3.293-3.293c-0.391-0.391-1.023-0.391-1.414,0s-0.391,1.023,0,1.414L30.292,59.706z"/>
	<path fill="#010101" d="M31,15c0.553,0,1-0.448,1-1V3.414l3.293,3.293C35.488,6.902,35.744,7,36,7s0.512-0.098,0.707-0.293
		c0.391-0.391,0.391-1.023,0-1.414l-4.999-4.999c-0.092-0.093-0.203-0.166-0.326-0.217c-0.244-0.101-0.52-0.101-0.764,0
		c-0.123,0.051-0.233,0.124-0.326,0.217l-4.999,4.999c-0.391,0.391-0.391,1.023,0,1.414s1.023,0.391,1.414,0L30,3.414V14
		C30,14.552,30.447,15,31,15z"/>
</g>
</svg>
