<?xml version="1.0" encoding="utf-8"?>
<!-- Generator: Adobe Illustrator 17.0.0, SVG Export Plug-In . SVG Version: 6.00 Build 0)  -->
<!DOCTYPE svg PUBLIC "-//W3C//DTD SVG 1.1//EN" "http://www.w3.org/Graphics/SVG/1.1/DTD/svg11.dtd">
<svg version="1.1" id="Layer_1" xmlns="http://www.w3.org/2000/svg" xmlns:xlink="http://www.w3.org/1999/xlink" x="0px" y="0px"
	 width="60px" height="60px" viewBox="0 0 60 60" enable-background="new 0 0 60 60" xml:space="preserve">
<g>
	<path fill="#010101" d="M30,28c-3.309,0-6,2.691-6,6v5c0,0.552,0.447,1,1,1h10c0.553,0,1-0.448,1-1v-5C36,30.691,33.309,28,30,28z
		 M34,38h-8v-4c0-2.206,1.794-4,4-4s4,1.794,4,4V38z"/>
	<path fill="#010101" d="M40,34c0-5.514-4.486-10-10-10s-10,4.486-10,10v11c0,0.552,0.447,1,1,1s1-0.448,1-1V34c0-4.411,3.589-8,8-8
		s8,3.589,8,8v11c0,0.552,0.447,1,1,1s1-0.448,1-1V34z"/>
	<path fill="#010101" d="M0.294,31.708l4.999,4.999C5.488,36.902,5.744,37,6,37s0.512-0.098,0.707-0.293
		c0.391-0.391,0.391-1.023,0-1.414L3.414,32H8c0.553,0,1-0.448,1-1s-0.447-1-1-1H3.414l3.293-3.293c0.391-0.391,0.391-1.023,0-1.414
		s-1.023-0.391-1.414,0l-4.999,4.999c-0.093,0.092-0.166,0.203-0.217,0.326c-0.101,0.244-0.101,0.52,0,0.764
		C0.128,31.505,0.201,31.615,0.294,31.708z"/>
	<path fill="#010101" d="M59.706,30.292l-4.999-4.999c-0.391-0.391-1.023-0.391-1.414,0s-0.391,1.023,0,1.414L56.586,30H52
		c-0.553,0-1,0.448-1,1s0.447,1,1,1h4.586l-3.293,3.293c-0.391,0.391-0.391,1.023,0,1.414C53.488,36.902,53.744,37,54,37
		s0.512-0.098,0.707-0.293l4.999-4.999c0.093-0.092,0.166-0.203,0.217-0.326c0.101-0.244,0.101-0.52,0-0.764
		C59.872,30.495,59.799,30.385,59.706,30.292z"/>
	<path fill="#010101" d="M31,47c-0.553,0-1,0.448-1,1v8.586l-3.293-3.293c-0.391-0.391-1.023-0.391-1.414,0s-0.391,1.023,0,1.414
		l4.999,4.999c0.092,0.093,0.203,0.166,0.326,0.217C30.74,59.973,30.87,60,31,60s0.26-0.027,0.382-0.077
		c0.123-0.051,0.233-0.124,0.326-0.217l4.999-4.999c0.391-0.391,0.391-1.023,0-1.414s-1.023-0.391-1.414,0L32,56.586V48
		C32,47.448,31.553,47,31,47z"/>
	<path fill="#010101" d="M31,13c0.553,0,1-0.448,1-1V3.414l3.293,3.293C35.488,6.902,35.744,7,36,7s0.512-0.098,0.707-0.293
		c0.391-0.391,0.391-1.023,0-1.414l-4.999-4.999c-0.092-0.093-0.203-0.166-0.326-0.217c-0.244-0.101-0.52-0.101-0.764,0
		c-0.123,0.051-0.233,0.124-0.326,0.217l-4.999,4.999c-0.391,0.391-0.391,1.023,0,1.414s1.023,0.391,1.414,0L30,3.414V12
		C30,12.552,30.447,13,31,13z"/>
	<path fill="#010101" d="M43.537,44.333c0.456,0.308,1.08,0.188,1.388-0.269C46.937,41.087,48,37.607,48,34c0-9.925-8.075-18-18-18
		s-18,8.075-18,18c0,3.645,1.084,7.156,3.136,10.154c0.193,0.283,0.507,0.436,0.826,0.436c0.194,0,0.391-0.057,0.563-0.175
		c0.456-0.312,0.572-0.934,0.261-1.39C14.964,40.361,14,37.24,14,34c0-8.822,7.178-16,16-16s16,7.178,16,16
		c0,3.206-0.944,6.299-2.731,8.944C42.959,43.402,43.079,44.023,43.537,44.333z"/>
</g>
</svg>
