<?xml version="1.0" encoding="utf-8"?>
<!-- Generator: Adobe Illustrator 17.0.0, SVG Export Plug-In . SVG Version: 6.00 Build 0)  -->
<!DOCTYPE svg PUBLIC "-//W3C//DTD SVG 1.1//EN" "http://www.w3.org/Graphics/SVG/1.1/DTD/svg11.dtd">
<svg version="1.1" id="Layer_1" xmlns="http://www.w3.org/2000/svg" xmlns:xlink="http://www.w3.org/1999/xlink" x="0px" y="0px"
	 width="60px" height="60px" viewBox="0 0 60 60" enable-background="new 0 0 60 60" xml:space="preserve">
<g>
	<path fill="#010101" d="M51.197,21.06c-5.381-0.589-10.25,3.304-10.846,8.689l-2.488,22.56c-0.061,0.549,0.336,1.043,0.885,1.104
		c0.56,0.062,1.043-0.336,1.104-0.884l2.488-22.56c0.475-4.289,4.343-7.396,8.639-6.92c4.318,0.477,7.447,4.351,6.975,8.634
		l-2.545,22.56c-0.062,0.549,0.333,1.044,0.882,1.106c0.038,0.004,0.076,0.006,0.113,0.006c0.502,0,0.936-0.377,0.993-0.888
		l2.545-22.562C60.535,26.522,56.612,21.658,51.197,21.06z"/>
	<path fill="#010101" d="M50.646,26.074c-2.673-0.294-4.991,1.627-5.278,4.228l-0.416,3.761c-0.029,0.264,0.048,0.528,0.214,0.735
		s0.407,0.34,0.671,0.369l7.52,0.83c0.037,0.004,0.074,0.006,0.11,0.006c0.503,0,0.937-0.378,0.993-0.89l0.416-3.761
		C55.163,28.73,53.266,26.363,50.646,26.074z M52.887,31.132l-0.306,2.767l-5.532-0.611l0.307-2.767
		c0.166-1.514,1.519-2.636,3.07-2.459C51.951,28.23,53.055,29.607,52.887,31.132z"/>
	<path fill="#010101" d="M9.021,23.694c4.278-0.474,8.166,2.63,8.639,6.92l2.489,22.56c0.061,0.549,0.552,0.946,1.104,0.884
		c0.549-0.061,0.945-0.555,0.885-1.104l-2.489-22.559c-0.594-5.386-5.474-9.275-10.846-8.689c-5.413,0.598-9.335,5.463-8.743,10.847
		l2.545,22.56C2.661,55.623,3.095,56,3.597,56c0.037,0,0.075-0.002,0.113-0.006c0.549-0.062,0.943-0.557,0.882-1.106L2.047,32.331
		C1.575,28.046,4.704,24.171,9.021,23.694z"/>
	<path fill="#010101" d="M15.049,34.709l-0.415-3.76c-0.287-2.601-2.612-4.521-5.277-4.229c-1.27,0.14-2.409,0.766-3.208,1.763
		c-0.8,0.997-1.163,2.246-1.022,3.515l0.416,3.761c0.057,0.512,0.49,0.89,0.993,0.89c0.036,0,0.073-0.002,0.11-0.006l7.519-0.83
		C14.713,35.753,15.109,35.259,15.049,34.709z M7.42,34.546l-0.306-2.767c-0.082-0.738,0.129-1.464,0.595-2.044
		c0.465-0.58,1.128-0.944,1.867-1.025c0.104-0.012,0.207-0.018,0.31-0.018c1.418,0,2.604,1.065,2.76,2.477l0.306,2.767L7.42,34.546z
		"/>
	<path fill="#010101" d="M6.999,19c0.302,0,0.6-0.136,0.796-0.394c3.088-4.05,9.877-7.292,17.296-8.368l-1.949,3.247
		c-0.284,0.474-0.131,1.088,0.343,1.372C23.646,14.954,23.824,15,23.999,15c0.34,0,0.671-0.173,0.858-0.485l3-5
		c0.024-0.04,0.032-0.085,0.05-0.127c0.019-0.043,0.039-0.084,0.051-0.13c0.024-0.091,0.032-0.183,0.03-0.276
		c0-0.025,0.01-0.047,0.008-0.072c0-0.005-0.004-0.009-0.004-0.015c-0.013-0.122-0.049-0.24-0.106-0.351
		c-0.012-0.023-0.03-0.04-0.044-0.062c-0.04-0.066-0.078-0.133-0.135-0.19l-4-4c-0.391-0.391-1.023-0.391-1.414,0
		s-0.391,1.023,0,1.414l2.548,2.547c-7.928,1.15-15.247,4.694-18.635,9.139c-0.335,0.439-0.251,1.067,0.188,1.402
		C6.575,18.933,6.788,19,6.999,19z"/>
	<path fill="#010101" d="M32.012,8.982c-0.002,0.093,0.006,0.184,0.03,0.275c0.012,0.046,0.032,0.087,0.051,0.131
		c0.018,0.042,0.025,0.087,0.049,0.127l3,5C35.33,14.827,35.661,15,36.001,15c0.175,0,0.353-0.046,0.514-0.143
		c0.474-0.284,0.627-0.898,0.343-1.372l-1.949-3.247c7.421,1.076,14.21,4.318,17.295,8.368C52.401,18.864,52.699,19,53.001,19
		c0.211,0,0.424-0.066,0.605-0.205c0.438-0.334,0.523-0.962,0.189-1.401c-3.387-4.446-10.707-7.99-18.636-9.14l2.548-2.547
		c0.391-0.391,0.391-1.023,0-1.414s-1.023-0.391-1.414,0l-4,4c-0.055,0.055-0.091,0.12-0.131,0.184
		c-0.015,0.024-0.035,0.043-0.049,0.069c-0.057,0.11-0.092,0.228-0.105,0.35c-0.001,0.005-0.004,0.009-0.004,0.015
		C32.002,8.935,32.012,8.957,32.012,8.982z"/>
</g>
</svg>
