<?xml version="1.0" encoding="utf-8"?>
<!-- Generator: Adobe Illustrator 17.0.0, SVG Export Plug-In . SVG Version: 6.00 Build 0)  -->
<!DOCTYPE svg PUBLIC "-//W3C//DTD SVG 1.1//EN" "http://www.w3.org/Graphics/SVG/1.1/DTD/svg11.dtd">
<svg version="1.1" id="Layer_1" xmlns="http://www.w3.org/2000/svg" xmlns:xlink="http://www.w3.org/1999/xlink" x="0px" y="0px"
	 width="60px" height="60px" viewBox="0 0 60 60" enable-background="new 0 0 60 60" xml:space="preserve">
<g>
	<path fill="#010101" d="M30,16c-3.309,0-6,2.691-6,6v5c0,0.552,0.447,1,1,1h10c0.553,0,1-0.448,1-1v-5C36,18.691,33.309,16,30,16z
		 M34,26h-8v-4c0-2.206,1.794-4,4-4s4,1.794,4,4V26z"/>
	<path fill="#010101" d="M39,48c0.553,0,1-0.448,1-1V22c0-5.514-4.486-10-10-10s-10,4.486-10,10v25c0,0.552,0.447,1,1,1s1-0.448,1-1
		V22c0-4.411,3.589-8,8-8s8,3.589,8,8v25C38,47.552,38.447,48,39,48z"/>
	<path fill="#010101" d="M57.876,18.008c-0.548,0.068-0.937,0.568-0.868,1.116l0.89,7.121l-7.14,1.785
		c-0.536,0.134-0.862,0.677-0.728,1.213C50.144,29.697,50.551,30,50.999,30c0.08,0,0.162-0.009,0.243-0.03l8-2
		c0.491-0.123,0.812-0.592,0.75-1.094l-1-8C58.924,18.328,58.428,17.936,57.876,18.008z"/>
	<path fill="#010101" d="M15.976,19.779c-0.122-0.539-0.651-0.876-1.197-0.754C8.121,20.536,3.511,22.854,0.27,26.317
		c-0.377,0.403-0.356,1.036,0.047,1.413C0.51,27.911,0.755,28,1,28c0.267,0,0.533-0.106,0.73-0.317
		c2.954-3.158,7.241-5.289,13.491-6.708C15.76,20.853,16.098,20.317,15.976,19.779z"/>
	<path fill="#010101" d="M44.024,19.778c-0.122,0.539,0.216,1.075,0.754,1.197c1.905,0.432,3.605,1.064,5.2,1.749l-5.221,1.305
		c-0.536,0.134-0.862,0.677-0.728,1.213C44.144,25.697,44.551,26,44.999,26c0.08,0,0.162-0.009,0.243-0.03l8-2
		c0.005-0.001,0.008-0.005,0.013-0.006c0.106-0.028,0.205-0.075,0.297-0.136c0.026-0.017,0.046-0.039,0.07-0.058
		c0.061-0.049,0.115-0.103,0.164-0.166c0.024-0.031,0.044-0.062,0.064-0.095c0.016-0.027,0.038-0.048,0.052-0.077
		c0.014-0.028,0.011-0.058,0.022-0.087c0.026-0.068,0.043-0.136,0.053-0.21c0.008-0.058,0.012-0.113,0.01-0.171
		c-0.001-0.03,0.009-0.058,0.005-0.089l-1-8c-0.068-0.547-0.566-0.938-1.116-0.868c-0.548,0.068-0.937,0.568-0.868,1.116
		l0.775,6.203c-1.964-0.894-4.094-1.742-6.561-2.302C44.679,18.9,44.147,19.24,44.024,19.778z"/>
</g>
</svg>
