<?xml version="1.0" encoding="utf-8"?>
<!-- Generator: Adobe Illustrator 17.0.0, SVG Export Plug-In . SVG Version: 6.00 Build 0)  -->
<!DOCTYPE svg PUBLIC "-//W3C//DTD SVG 1.1//EN" "http://www.w3.org/Graphics/SVG/1.1/DTD/svg11.dtd">
<svg version="1.1" id="Layer_1" xmlns="http://www.w3.org/2000/svg" xmlns:xlink="http://www.w3.org/1999/xlink" x="0px" y="0px"
	 width="60px" height="60px" viewBox="0 0 60 60" enable-background="new 0 0 60 60" xml:space="preserve">
<g>
	<path fill="#010101" d="M18,24c-3.309,0-6,2.691-6,6v5c0,0.552,0.447,1,1,1h10c0.553,0,1-0.448,1-1v-5C24,26.691,21.309,24,18,24z
		 M22,34h-8v-4c0-2.206,1.794-4,4-4s4,1.794,4,4V34z"/>
	<path fill="#010101" d="M9,42c0.553,0,1-0.448,1-1V30c0-4.411,3.589-8,8-8s8,3.589,8,8v11c0,0.552,0.447,1,1,1s1-0.448,1-1V30
		c0-5.514-4.486-10-10-10S8,24.486,8,30v11C8,41.552,8.447,42,9,42z"/>
	<path fill="#010101" d="M42,24c-3.309,0-6,2.691-6,6v5c0,0.552,0.447,1,1,1h10c0.553,0,1-0.448,1-1v-5C48,26.691,45.309,24,42,24z
		 M46,34h-8v-4c0-2.206,1.794-4,4-4s4,1.794,4,4V34z"/>
	<path fill="#010101" d="M33,42c0.553,0,1-0.448,1-1V30c0-4.411,3.589-8,8-8s8,3.589,8,8v11c0,0.552,0.447,1,1,1s1-0.448,1-1V30
		c0-5.514-4.486-10-10-10s-10,4.486-10,10v11C32,41.552,32.447,42,33,42z"/>
	<path fill="#010101" d="M17.692,15.952C17.795,15.984,17.898,16,18,16c0.422,0,0.814-0.27,0.951-0.693
		c2.035-6.292,5.681-10.422,9.722-11.173l-1.641,6.351c-0.139,0.535,0.183,1.081,0.718,1.219c0.084,0.021,0.168,0.032,0.251,0.032
		c0.444,0,0.851-0.299,0.967-0.75l2-7.736c0.011-0.042,0.001-0.082,0.007-0.124C30.98,3.083,31,3.045,31,3
		c0-0.026-0.013-0.047-0.015-0.073c-0.005-0.069-0.021-0.132-0.04-0.198c-0.018-0.061-0.034-0.12-0.062-0.176
		c-0.029-0.057-0.066-0.105-0.105-0.156c-0.04-0.051-0.078-0.1-0.126-0.143c-0.046-0.041-0.098-0.071-0.152-0.103
		c-0.059-0.035-0.117-0.067-0.184-0.089c-0.024-0.008-0.041-0.026-0.066-0.032l-7.736-2c-0.533-0.137-1.08,0.183-1.218,0.718
		c-0.139,0.535,0.183,1.081,0.718,1.219l3.813,0.986c-3.742,1.755-6.88,5.87-8.777,11.739
		C16.879,15.218,17.167,15.782,17.692,15.952z"/>
	<path fill="#010101" d="M29.025,56.874C29.02,56.917,29,56.955,29,57c0,0.026,0.013,0.047,0.015,0.073
		c0.005,0.069,0.021,0.132,0.04,0.198c0.017,0.061,0.034,0.12,0.062,0.175c0.029,0.057,0.066,0.105,0.105,0.156
		c0.04,0.051,0.078,0.1,0.126,0.143c0.046,0.041,0.098,0.071,0.152,0.103c0.059,0.035,0.117,0.067,0.184,0.089
		c0.024,0.008,0.041,0.026,0.066,0.032l7.736,2C37.57,59.99,37.654,60,37.737,60c0.444,0,0.851-0.299,0.967-0.75
		c0.139-0.535-0.183-1.081-0.718-1.219l-3.813-0.986c3.742-1.755,6.88-5.87,8.777-11.739c0.17-0.525-0.118-1.089-0.644-1.259
		c-0.529-0.168-1.089,0.119-1.259,0.644c-2.035,6.292-5.681,10.422-9.722,11.173l1.641-6.351c0.139-0.535-0.183-1.081-0.718-1.219
		c-0.535-0.136-1.08,0.183-1.218,0.718l-2,7.736C29.021,56.791,29.031,56.832,29.025,56.874z"/>
</g>
</svg>
