<?xml version="1.0" encoding="utf-8"?>
<!-- Generator: Adobe Illustrator 17.0.0, SVG Export Plug-In . SVG Version: 6.00 Build 0)  -->
<!DOCTYPE svg PUBLIC "-//W3C//DTD SVG 1.1//EN" "http://www.w3.org/Graphics/SVG/1.1/DTD/svg11.dtd">
<svg version="1.1" id="Layer_1" xmlns="http://www.w3.org/2000/svg" xmlns:xlink="http://www.w3.org/1999/xlink" x="0px" y="0px"
	 width="60px" height="60px" viewBox="0 0 60 60" enable-background="new 0 0 60 60" xml:space="preserve">
<g>
	<path fill="#010101" d="M37,36h10c0.553,0,1-0.448,1-1v-5c0-3.309-2.691-6-6-6s-6,2.691-6,6v5C36,35.552,36.447,36,37,36z M38,30
		c0-2.206,1.794-4,4-4s4,1.794,4,4v4h-8V30z"/>
	<path fill="#010101" d="M42,20c-5.514,0-10,4.486-10,10v11c0,0.552,0.447,1,1,1s1-0.448,1-1V30c0-4.411,3.589-8,8-8s8,3.589,8,8v11
		c0,0.552,0.447,1,1,1s1-0.448,1-1V30C52,24.486,47.514,20,42,20z"/>
	<path fill="#010101" d="M24,35v-5c0-3.309-2.691-6-6-6s-6,2.691-6,6v5c0,0.552,0.447,1,1,1h10C23.553,36,24,35.552,24,35z M22,34
		h-8v-4c0-2.206,1.794-4,4-4s4,1.794,4,4V34z"/>
	<path fill="#010101" d="M9,42c0.553,0,1-0.448,1-1V30c0-4.411,3.589-8,8-8s8,3.589,8,8v11c0,0.552,0.447,1,1,1s1-0.448,1-1V30
		c0-5.514-4.486-10-10-10S8,24.486,8,30v11C8,41.552,8.447,42,9,42z"/>
	<path fill="#010101" d="M29.025,3.126c0.005,0.042-0.004,0.082,0.007,0.124l2,7.736c0.116,0.451,0.522,0.75,0.967,0.75
		c0.083,0,0.167-0.01,0.251-0.032c0.535-0.138,0.856-0.684,0.718-1.219l-1.641-6.351c4.041,0.751,7.687,4.881,9.722,11.173
		C41.186,15.731,41.578,16,42,16c0.102,0,0.205-0.016,0.308-0.049c0.525-0.17,0.813-0.734,0.644-1.259
		c-1.897-5.869-5.036-9.984-8.777-11.739l3.813-0.986c0.535-0.138,0.856-0.684,0.718-1.219c-0.138-0.535-0.685-0.854-1.218-0.718
		l-7.736,2c-0.025,0.006-0.042,0.024-0.066,0.032C29.618,2.086,29.56,2.118,29.5,2.153c-0.054,0.032-0.106,0.062-0.152,0.103
		c-0.049,0.043-0.087,0.091-0.126,0.143c-0.039,0.051-0.076,0.099-0.105,0.156c-0.028,0.056-0.044,0.114-0.062,0.175
		c-0.019,0.065-0.035,0.129-0.04,0.198C29.013,2.953,29,2.974,29,3C29,3.045,29.02,3.083,29.025,3.126z"/>
	<path fill="#010101" d="M27.032,49.514l1.641,6.351c-4.041-0.751-7.687-4.881-9.722-11.173c-0.17-0.525-0.729-0.812-1.259-0.644
		c-0.525,0.17-0.813,0.734-0.644,1.259c1.897,5.869,5.036,9.984,8.777,11.739l-3.813,0.986c-0.535,0.138-0.856,0.684-0.718,1.219
		c0.116,0.451,0.522,0.75,0.967,0.75c0.083,0,0.167-0.01,0.251-0.032l7.736-2c0.025-0.006,0.042-0.024,0.066-0.032
		c0.066-0.022,0.124-0.054,0.184-0.089c0.054-0.032,0.106-0.062,0.152-0.103c0.049-0.043,0.087-0.092,0.126-0.143
		c0.039-0.051,0.076-0.099,0.105-0.156c0.028-0.056,0.045-0.114,0.062-0.176c0.019-0.065,0.035-0.129,0.04-0.198
		C30.987,57.047,31,57.026,31,57c0-0.045-0.02-0.083-0.025-0.126c-0.005-0.042,0.004-0.082-0.007-0.124l-2-7.736
		c-0.138-0.535-0.685-0.853-1.218-0.718C27.215,48.434,26.894,48.979,27.032,49.514z"/>
</g>
</svg>
