<?xml version="1.0" encoding="utf-8"?>
<!-- Generator: Adobe Illustrator 17.0.0, SVG Export Plug-In . SVG Version: 6.00 Build 0)  -->
<!DOCTYPE svg PUBLIC "-//W3C//DTD SVG 1.1//EN" "http://www.w3.org/Graphics/SVG/1.1/DTD/svg11.dtd">
<svg version="1.1" id="Layer_1" xmlns="http://www.w3.org/2000/svg" xmlns:xlink="http://www.w3.org/1999/xlink" x="0px" y="0px"
	 width="60px" height="60px" viewBox="0 0 60 60" enable-background="new 0 0 60 60" xml:space="preserve">
<g>
	<path fill="#010101" d="M13.466,34.661c0.178,0.142,0.397,0.218,0.623,0.218c0.037,0,0.075-0.002,0.112-0.006l7.519-0.85
		c0.549-0.062,0.943-0.557,0.882-1.106l-0.425-3.758c-0.293-2.598-2.651-4.516-5.288-4.215c-2.62,0.294-4.512,2.666-4.218,5.287
		l0.424,3.76C13.125,34.254,13.258,34.496,13.466,34.661z M17.112,26.931c0.106-0.012,0.212-0.018,0.316-0.018
		c1.415,0,2.602,1.062,2.761,2.471l0.312,2.764l-5.531,0.625l-0.312-2.766C14.487,28.482,15.588,27.103,17.112,26.931z"/>
	<path fill="#010101" d="M16.322,19.932c-5.383,0.608-9.27,5.482-8.663,10.862l2.544,23.314C10.259,54.621,10.692,55,11.196,55
		c0.036,0,0.072-0.002,0.109-0.006c0.549-0.06,0.945-0.554,0.886-1.103L9.647,30.574c-0.483-4.288,2.611-8.17,6.899-8.654
		c4.286-0.49,8.171,2.61,8.654,6.894l2.544,23.295C27.801,52.616,28.229,53,28.739,53h2.606c0.511,0,0.94-0.385,0.994-0.894
		l2.488-23.269c0.475-4.29,4.346-7.393,8.639-6.919c2.077,0.229,3.94,1.253,5.248,2.885s1.901,3.674,1.672,5.754l-2.49,23.337
		c-0.059,0.549,0.339,1.042,0.888,1.1c0.55,0.06,1.042-0.34,1.101-0.888l2.49-23.333c0.287-2.608-0.458-5.172-2.1-7.22
		c-1.642-2.048-3.981-3.335-6.59-3.623c-5.381-0.593-10.25,3.303-10.846,8.691L30.447,51h-0.812l-2.446-22.407
		c-0.295-2.608-1.588-4.945-3.64-6.581C21.496,20.375,18.929,19.637,16.322,19.932z"/>
	<path fill="#010101" d="M45.844,34.863c0.037,0.004,0.074,0.006,0.11,0.006c0.503,0,0.937-0.378,0.993-0.89l0.415-3.758
		c0.288-2.622-1.609-4.99-4.23-5.28c-2.662-0.292-4.991,1.628-5.278,4.231l-0.415,3.758c-0.029,0.264,0.048,0.528,0.214,0.735
		c0.166,0.207,0.407,0.34,0.671,0.369L45.844,34.863z M39.842,29.391c0.167-1.516,1.547-2.643,3.07-2.462
		c1.525,0.168,2.63,1.547,2.462,3.073l-0.305,2.764l-5.533-0.611L39.842,29.391z"/>
	<path fill="#010101" d="M0.053,16.265c0.017,0.061,0.032,0.12,0.059,0.175c0.027,0.055,0.065,0.102,0.102,0.152
		c0.042,0.056,0.083,0.108,0.135,0.154c0.017,0.015,0.025,0.036,0.044,0.05c0.043,0.033,0.093,0.049,0.139,0.074
		c0.038,0.02,0.072,0.044,0.112,0.059C0.76,16.972,0.879,17,0.999,17c0,0,0,0,0,0S1,17,1,17h6c0.553,0,1-0.448,1-1s-0.447-1-1-1
		H3.217c3.728-3.707,10.501-7.339,17.873-8.004c0.55-0.05,0.956-0.536,0.906-1.086s-0.54-0.944-1.086-0.906
		C12.874,5.728,5.954,9.559,2,13.402V10c0-0.552-0.447-1-1-1s-1,0.448-1,1v6c0,0.023,0.012,0.042,0.013,0.065
		C0.018,16.134,0.035,16.198,0.053,16.265z"/>
	<path fill="#010101" d="M59,9c-0.553,0-1,0.448-1,1v3.402c-3.954-3.843-10.874-7.674-18.91-8.398
		c-0.545-0.039-1.036,0.356-1.086,0.906s0.356,1.036,0.906,1.086C46.282,7.661,53.055,11.293,56.783,15H53c-0.553,0-1,0.448-1,1
		s0.447,1,1,1h6c0,0,0,0,0.001,0s0,0,0,0c0.12,0,0.238-0.028,0.353-0.071c0.041-0.016,0.075-0.039,0.114-0.06
		c0.046-0.025,0.095-0.04,0.139-0.073c0.018-0.014,0.027-0.035,0.044-0.05c0.052-0.046,0.093-0.098,0.135-0.154
		c0.037-0.05,0.075-0.097,0.102-0.152c0.028-0.056,0.042-0.115,0.059-0.175c0.019-0.067,0.036-0.131,0.04-0.2
		C59.988,16.042,60,16.023,60,16v-6C60,9.448,59.553,9,59,9z"/>
</g>
</svg>
