<?xml version="1.0" encoding="utf-8"?>
<!-- Generator: Adobe Illustrator 17.0.0, SVG Export Plug-In . SVG Version: 6.00 Build 0)  -->
<!DOCTYPE svg PUBLIC "-//W3C//DTD SVG 1.1//EN" "http://www.w3.org/Graphics/SVG/1.1/DTD/svg11.dtd">
<svg version="1.1" id="Layer_1" xmlns="http://www.w3.org/2000/svg" xmlns:xlink="http://www.w3.org/1999/xlink" x="0px" y="0px"
	 width="60px" height="60px" viewBox="0 0 60 60" enable-background="new 0 0 60 60" xml:space="preserve">
<g>
	<path fill="#010101" d="M30,16c-3.309,0-6,2.691-6,6v5c0,0.552,0.448,1,1,1h10c0.552,0,1-0.448,1-1v-5C36,18.691,33.309,16,30,16z
		 M34,26h-8v-4c0-2.206,1.794-4,4-4s4,1.794,4,4V26z"/>
	<path fill="#010101" d="M40,22c0-5.514-4.486-10-10-10s-10,4.486-10,10v25c0,0.552,0.448,1,1,1s1-0.448,1-1V22c0-4.411,3.589-8,8-8
		s8,3.589,8,8v25c0,0.552,0.448,1,1,1s1-0.448,1-1V22z"/>
	<path fill="#010101" d="M59,28c0.245,0,0.49-0.089,0.683-0.27c0.403-0.377,0.424-1.01,0.047-1.413
		c-3.241-3.464-7.851-5.781-14.509-7.292c-0.535-0.122-1.074,0.215-1.196,0.754c-0.123,0.539,0.215,1.074,0.754,1.196
		c6.25,1.419,10.536,3.55,13.491,6.708C58.467,27.894,58.733,28,59,28z"/>
	<path fill="#010101" d="M0.023,27.135c0.01,0.069,0.024,0.133,0.047,0.198c0.018,0.051,0.039,0.097,0.065,0.145
		c0.037,0.067,0.081,0.125,0.132,0.182c0.022,0.024,0.031,0.054,0.056,0.076c0.015,0.014,0.035,0.019,0.051,0.032
		c0.051,0.042,0.109,0.073,0.169,0.105c0.053,0.028,0.104,0.055,0.16,0.073c0.02,0.006,0.034,0.02,0.055,0.025l8,2
		C8.839,29.991,8.92,30,9.001,30c0.448,0,0.855-0.303,0.969-0.757c0.134-0.536-0.192-1.079-0.728-1.213l-6.257-1.564
		c2.833-2.485,6.772-4.249,12.236-5.49c0.539-0.122,0.876-0.658,0.753-1.197c-0.122-0.539-0.657-0.875-1.197-0.753
		c-5.404,1.228-9.424,2.977-12.449,5.401l0.663-5.302c0.068-0.548-0.32-1.048-0.868-1.116c-0.549-0.072-1.048,0.319-1.116,0.868
		l-1,8c-0.004,0.03,0.006,0.057,0.005,0.087C0.011,27.021,0.015,27.077,0.023,27.135z"/>
</g>
</svg>
