<?xml version="1.0" encoding="utf-8"?>
<!-- Generator: Adobe Illustrator 17.0.0, SVG Export Plug-In . SVG Version: 6.00 Build 0)  -->
<!DOCTYPE svg PUBLIC "-//W3C//DTD SVG 1.1//EN" "http://www.w3.org/Graphics/SVG/1.1/DTD/svg11.dtd">
<svg version="1.1" id="Layer_1" xmlns="http://www.w3.org/2000/svg" xmlns:xlink="http://www.w3.org/1999/xlink" x="0px" y="0px"
	 width="60px" height="60px" viewBox="0 0 60 60" enable-background="new 0 0 60 60" xml:space="preserve">
<g>
	<path fill="#010101" d="M38,36c3.309,0,6-2.691,6-6s-2.691-6-6-6h-5c-0.553,0-1,0.448-1,1v10c0,0.552,0.447,1,1,1H38z M34,26h4
		c2.206,0,4,1.794,4,4s-1.794,4-4,4h-4V26z"/>
	<path fill="#010101" d="M38,20H13c-0.553,0-1,0.448-1,1s0.447,1,1,1h25c4.411,0,8,3.589,8,8s-3.589,8-8,8H13c-0.553,0-1,0.448-1,1
		s0.447,1,1,1h25c5.514,0,10-4.486,10-10S43.514,20,38,20z"/>
	<path fill="#010101" d="M39.024,15.221C39.13,15.686,39.542,16,39.999,16c0.073,0,0.147-0.008,0.223-0.025
		c0.538-0.122,0.876-0.658,0.754-1.196C39.464,8.121,37.146,3.51,33.684,0.27c-0.404-0.377-1.036-0.357-1.414,0.047
		c-0.377,0.403-0.356,1.036,0.047,1.413C35.475,4.685,37.606,8.972,39.024,15.221z"/>
	<path fill="#010101" d="M40.222,44.025c-0.543-0.125-1.075,0.215-1.197,0.753c-1.241,5.464-3.006,9.403-5.49,12.237l-1.564-6.258
		c-0.134-0.535-0.679-0.864-1.212-0.728c-0.536,0.134-0.862,0.677-0.728,1.213l2,8c0.004,0.017,0.016,0.03,0.021,0.047
		c0.014,0.045,0.036,0.086,0.057,0.129c0.034,0.073,0.072,0.14,0.122,0.201c0.014,0.018,0.019,0.04,0.035,0.057
		c0.015,0.017,0.037,0.022,0.053,0.038c0.067,0.064,0.142,0.116,0.224,0.159c0.032,0.017,0.061,0.038,0.094,0.051
		C32.75,59.97,32.871,60,32.999,60c0,0,0,0,0.001,0c0,0,0,0,0,0c0,0,0,0,0,0c0.041,0,0.082-0.002,0.124-0.008l8-1
		c0.548-0.068,0.937-0.568,0.868-1.116s-0.562-0.939-1.116-0.868l-5.302,0.663c2.424-3.024,4.174-7.045,5.402-12.449
		C41.098,44.683,40.76,44.147,40.222,44.025z"/>
</g>
</svg>
