<?xml version="1.0" encoding="utf-8"?>
<!-- Generator: Adobe Illustrator 17.0.0, SVG Export Plug-In . SVG Version: 6.00 Build 0)  -->
<!DOCTYPE svg PUBLIC "-//W3C//DTD SVG 1.1//EN" "http://www.w3.org/Graphics/SVG/1.1/DTD/svg11.dtd">
<svg version="1.1" id="Layer_1" xmlns="http://www.w3.org/2000/svg" xmlns:xlink="http://www.w3.org/1999/xlink" x="0px" y="0px"
	 width="60px" height="60px" viewBox="0 0 60 60" enable-background="new 0 0 60 60" xml:space="preserve">
<g>
	<path fill="#010101" d="M30,16c-3.309,0-6,2.691-6,6v5c0,0.552,0.448,1,1,1h10c0.552,0,1-0.448,1-1v-5C36,18.691,33.309,16,30,16z
		 M34,26h-8v-4c0-2.206,1.794-4,4-4s4,1.794,4,4V26z"/>
	<path fill="#010101" d="M39,48c0.552,0,1-0.448,1-1V22c0-5.514-4.486-10-10-10s-10,4.486-10,10v25c0,0.552,0.448,1,1,1s1-0.448,1-1
		V22c0-4.411,3.589-8,8-8s8,3.589,8,8v25C38,47.552,38.448,48,39,48z"/>
	<path fill="#010101" d="M15.975,19.779c-0.122-0.539-0.657-0.875-1.196-0.754C8.121,20.536,3.511,22.853,0.27,26.317
		c-0.377,0.403-0.356,1.036,0.047,1.413C0.51,27.911,0.755,28,1,28c0.267,0,0.533-0.106,0.73-0.317
		c2.955-3.158,7.242-5.289,13.491-6.708C15.76,20.853,16.098,20.317,15.975,19.779z"/>
	<path fill="#010101" d="M59.93,27.332c0.023-0.064,0.038-0.129,0.047-0.198c0.008-0.058,0.012-0.113,0.01-0.172
		c-0.001-0.029,0.009-0.057,0.005-0.087l-1-8c-0.068-0.549-0.571-0.94-1.116-0.868c-0.548,0.068-0.937,0.568-0.868,1.116
		l0.663,5.302c-3.025-2.424-7.045-4.173-12.449-5.401c-0.54-0.122-1.074,0.215-1.197,0.753s0.215,1.075,0.753,1.197
		c5.464,1.241,9.403,3.006,12.236,5.49l-6.257,1.564c-0.536,0.134-0.861,0.677-0.728,1.213C50.144,29.697,50.551,30,50.999,30
		c0.081,0,0.162-0.009,0.244-0.03l8-2c0.02-0.005,0.035-0.019,0.055-0.025c0.056-0.018,0.107-0.045,0.16-0.073
		c0.06-0.031,0.117-0.063,0.169-0.105c0.016-0.013,0.036-0.018,0.051-0.032c0.024-0.022,0.034-0.052,0.056-0.076
		c0.051-0.057,0.095-0.115,0.132-0.182C59.891,27.43,59.912,27.383,59.93,27.332z"/>
</g>
</svg>
