<?xml version="1.0" encoding="utf-8"?>
<!-- Generator: Adobe Illustrator 17.0.0, SVG Export Plug-In . SVG Version: 6.00 Build 0)  -->
<!DOCTYPE svg PUBLIC "-//W3C//DTD SVG 1.1//EN" "http://www.w3.org/Graphics/SVG/1.1/DTD/svg11.dtd">
<svg version="1.1" id="Layer_1" xmlns="http://www.w3.org/2000/svg" xmlns:xlink="http://www.w3.org/1999/xlink" x="0px" y="0px"
	 width="60px" height="60px" viewBox="0 0 60 60" enable-background="new 0 0 60 60" xml:space="preserve">
<g>
	<path fill="#010101" d="M42.533,40.882c0.15,0.081,0.312,0.118,0.47,0.118c0.357,0,0.703-0.192,0.883-0.529
		C45.269,37.882,46,34.953,46,32c0-2.188-0.389-4.327-1.155-6.357c-0.195-0.517-0.772-0.777-1.289-0.583
		c-0.517,0.195-0.777,0.772-0.583,1.289C43.655,28.153,44,30.054,44,32c0,2.625-0.649,5.229-1.878,7.529
		C41.862,40.016,42.045,40.622,42.533,40.882z"/>
	<path fill="#010101" d="M12.997,41c0.159,0,0.32-0.038,0.47-0.118c0.487-0.26,0.671-0.866,0.411-1.353
		C12.649,37.229,12,34.625,12,32c0-8.822,7.178-16,16-16c0.552,0,1-0.448,1-1s-0.448-1-1-1c-9.925,0-18,8.075-18,18
		c0,2.953,0.731,5.882,2.114,8.471C12.294,40.808,12.64,41,12.997,41z"/>
	<path fill="#010101" d="M34,37v-5c0-3.309-2.691-6-6-6s-6,2.691-6,6v5c0,0.552,0.448,1,1,1h10C33.552,38,34,37.552,34,37z M32,36
		h-8v-4c0-2.206,1.794-4,4-4s4,1.794,4,4V36z"/>
	<path fill="#010101" d="M28,22c-5.514,0-10,4.486-10,10v23c0,0.552,0.448,1,1,1s1-0.448,1-1V32c0-4.411,3.589-8,8-8s8,3.589,8,8v23
		c0,0.552,0.448,1,1,1s1-0.448,1-1V32C38,26.486,33.514,22,28,22z"/>
	<path fill="#010101" d="M41,22c4.962,0,9-4.038,9-9s-4.038-9-9-9s-9,4.038-9,9S36.038,22,41,22z M41,6c3.86,0,7,3.14,7,7
		s-3.14,7-7,7s-7-3.14-7-7S37.14,6,41,6z"/>
	<path fill="#010101" d="M41,14h3c0.552,0,1-0.448,1-1s-0.448-1-1-1h-2V9c0-0.552-0.448-1-1-1s-1,0.448-1,1v4
		C40,13.552,40.448,14,41,14z"/>
</g>
</svg>
