<?xml version="1.0" encoding="utf-8"?>
<!-- Generator: Adobe Illustrator 17.0.0, SVG Export Plug-In . SVG Version: 6.00 Build 0)  -->
<!DOCTYPE svg PUBLIC "-//W3C//DTD SVG 1.1//EN" "http://www.w3.org/Graphics/SVG/1.1/DTD/svg11.dtd">
<svg version="1.1" id="Layer_1" xmlns="http://www.w3.org/2000/svg" xmlns:xlink="http://www.w3.org/1999/xlink" x="0px" y="0px"
	 width="60px" height="60px" viewBox="0 0 60 60" enable-background="new 0 0 60 60" xml:space="preserve">
<g>
	<path fill="#010101" d="M15.467,35.882c0.487-0.26,0.672-0.866,0.411-1.353C14.649,32.229,14,29.625,14,27c0-8.822,7.178-16,16-16
		s16,7.178,16,16c0,2.625-0.649,5.229-1.878,7.529c-0.261,0.487-0.076,1.093,0.411,1.353C44.683,35.962,44.844,36,45.003,36
		c0.357,0,0.703-0.192,0.883-0.529C47.269,32.882,48,29.953,48,27c0-9.925-8.075-18-18-18s-18,8.075-18,18
		c0,2.953,0.731,5.882,2.114,8.471C14.374,35.958,14.981,36.143,15.467,35.882z"/>
	<path fill="#010101" d="M30,21c-3.309,0-6,2.691-6,6v5c0,0.552,0.447,1,1,1h10c0.553,0,1-0.448,1-1v-5C36,23.691,33.309,21,30,21z
		 M34,31h-8v-4c0-2.206,1.794-4,4-4s4,1.794,4,4V31z"/>
	<path fill="#010101" d="M40,27c0-5.514-4.486-10-10-10s-10,4.486-10,10v23c0,0.552,0.447,1,1,1s1-0.448,1-1V27c0-4.411,3.589-8,8-8
		s8,3.589,8,8v23c0,0.552,0.447,1,1,1s1-0.448,1-1V27z"/>
</g>
</svg>
