<?xml version="1.0" encoding="utf-8"?>
<!-- Generator: Adobe Illustrator 17.0.0, SVG Export Plug-In . SVG Version: 6.00 Build 0)  -->
<!DOCTYPE svg PUBLIC "-//W3C//DTD SVG 1.1//EN" "http://www.w3.org/Graphics/SVG/1.1/DTD/svg11.dtd">
<svg version="1.1" id="Layer_1" xmlns="http://www.w3.org/2000/svg" xmlns:xlink="http://www.w3.org/1999/xlink" x="0px" y="0px"
	 width="60px" height="60px" viewBox="0 0 60 60" enable-background="new 0 0 60 60" xml:space="preserve">
<g>
	<path fill="#010101" d="M38,35.5c3.309,0,6-2.691,6-6s-2.691-6-6-6h-5c-0.553,0-1,0.448-1,1v10c0,0.552,0.447,1,1,1H38z M34,25.5h4
		c2.206,0,4,1.794,4,4s-1.794,4-4,4h-4V25.5z"/>
	<path fill="#010101" d="M48,30c0-5.691-4.579-10.5-10-10.5H13c-0.553,0-1,0.448-1,1s0.447,1,1,1h25c4.337,0,8,3.893,8,8.5
		c0,4.276-3.439,7.5-8,7.5H13c-0.553,0-1,0.448-1,1s0.447,1,1,1h25C43.701,39.5,48,35.416,48,30z"/>
	<path fill="#010101" d="M37,17c0.553,0,1-0.448,1-1V9.414l3.293,3.293C41.488,12.902,41.744,13,42,13s0.512-0.098,0.707-0.293
		c0.391-0.391,0.391-1.023,0-1.414l-4.999-4.999c-0.092-0.093-0.203-0.166-0.326-0.217c-0.244-0.101-0.52-0.101-0.764,0
		c-0.123,0.051-0.233,0.124-0.326,0.217l-4.999,4.999c-0.391,0.391-0.391,1.023,0,1.414s1.023,0.391,1.414,0L36,9.414V16
		C36,16.552,36.447,17,37,17z"/>
	<path fill="#010101" d="M42.707,5.293l-5-5c-0.391-0.391-1.023-0.391-1.414,0l-5,5c-0.391,0.391-0.391,1.023,0,1.414
		s1.023,0.391,1.414,0L37,2.414l4.293,4.293C41.488,6.902,41.744,7,42,7s0.512-0.098,0.707-0.293
		C43.098,6.316,43.098,5.684,42.707,5.293z"/>
	<path fill="#010101" d="M42.707,47.293c-0.391-0.391-1.023-0.391-1.414,0L38,50.586V44c0-0.552-0.447-1-1-1s-1,0.448-1,1v6.586
		l-3.293-3.293c-0.391-0.391-1.023-0.391-1.414,0s-0.391,1.023,0,1.414l4.999,4.999c0.092,0.093,0.203,0.166,0.326,0.217
		C36.74,53.973,36.87,54,37,54s0.26-0.027,0.382-0.077c0.123-0.051,0.233-0.124,0.326-0.217l4.999-4.999
		C43.098,48.316,43.098,47.684,42.707,47.293z"/>
	<path fill="#010101" d="M41.293,53.293L37,57.586l-4.293-4.293c-0.391-0.391-1.023-0.391-1.414,0s-0.391,1.023,0,1.414l5,5
		C36.488,59.902,36.744,60,37,60s0.512-0.098,0.707-0.293l5-5c0.391-0.391,0.391-1.023,0-1.414S41.684,52.902,41.293,53.293z"/>
</g>
</svg>
