<?xml version="1.0" encoding="utf-8"?>
<!-- Generator: Adobe Illustrator 17.0.0, SVG Export Plug-In . SVG Version: 6.00 Build 0)  -->
<!DOCTYPE svg PUBLIC "-//W3C//DTD SVG 1.1//EN" "http://www.w3.org/Graphics/SVG/1.1/DTD/svg11.dtd">
<svg version="1.1" id="Layer_2" xmlns="http://www.w3.org/2000/svg" xmlns:xlink="http://www.w3.org/1999/xlink" x="0px" y="0px"
	 width="48px" height="48px" viewBox="0 0 48 48" enable-background="new 0 0 48 48" xml:space="preserve">
<g>
	<path fill="#010101" d="M41.943,16.667c-0.001-0.002-0.003-0.004-0.004-0.006c0-0.001,0-0.002,0-0.004L39,8.818V4.001
		C39,1.795,37.206,0,35,0H13c-2.206,0-4,1.795-4,4.001v4.817l-2.937,7.831L0.307,32h47.386L41.943,16.667z M15.721,8h16.559l1.333,4
		H14.388L15.721,8z M8.443,16l2.25-6h2.253l-0.894,2.684c-0.103,0.305-0.051,0.64,0.137,0.901C12.377,13.846,12.679,14,13,14h22
		c0.008,0,0.015,0.001,0.02,0c0.553,0,1-0.448,1-1c0-0.18-0.047-0.349-0.131-0.495L35.054,10h2.253l2.25,6H8.443z"/>
	<path fill="#010101" d="M0,34v8.001C0,44.206,1.794,46,4,46h2v1c0,0.552,0.447,1,1,1s1-0.448,1-1v-1h32v1c0,0.552,0.447,1,1,1
		s1-0.448,1-1v-1h2c2.206,0,4-1.794,4-3.999V34H0z"/>
</g>
</svg>
