<?xml version="1.0" encoding="utf-8"?>
<!-- Generator: Adobe Illustrator 17.0.0, SVG Export Plug-In . SVG Version: 6.00 Build 0)  -->
<!DOCTYPE svg PUBLIC "-//W3C//DTD SVG 1.1//EN" "http://www.w3.org/Graphics/SVG/1.1/DTD/svg11.dtd">
<svg version="1.1" id="Layer_2" xmlns="http://www.w3.org/2000/svg" xmlns:xlink="http://www.w3.org/1999/xlink" x="0px" y="0px"
	 width="48px" height="48px" viewBox="0 0 48 48" enable-background="new 0 0 48 48" xml:space="preserve">
<g>
	<path fill="#010101" d="M1,16c0.553,0,1-0.448,1-1v-1l28,0.001L30,14V2H2V1c0-0.552-0.447-1-1-1C0.447,0,0,0.448,0,1v2v10v2
		C0,15.552,0.447,16,1,16z"/>
	<path fill="#010101" d="M44,8.001c0-3.509-6.05-5.749-12-5.978v11.955C37.95,13.75,44,11.51,44,8.001z"/>
	<path fill="#010101" d="M12,29.978V18.024c-5.95,0.229-12,2.468-12,5.977C0,27.51,6.05,29.75,12,29.978z"/>
	<path fill="#010101" d="M43,16c-0.553,0-1,0.448-1,1v1l-28,0.001V30l0,0.001L42,30v1c0,0.552,0.447,1,1,1c0.553,0,1-0.448,1-1v-2
		V19v-2C44,16.448,43.553,16,43,16z"/>
	<path fill="#010101" d="M30,34H2v-1c0-0.552-0.447-1-1-1c-0.553,0-1,0.448-1,1v2v10v2c0,0.552,0.447,1,1,1c0.553,0,1-0.448,1-1v-1
		l28,0.001L30,46V34z"/>
	<path fill="#010101" d="M32,34.023v11.955c5.95-0.228,12-2.468,12-5.977C44,36.492,37.95,34.252,32,34.023z"/>
</g>
</svg>
