<?xml version="1.0" encoding="utf-8"?>
<!-- Generator: Adobe Illustrator 17.0.0, SVG Export Plug-In . SVG Version: 6.00 Build 0)  -->
<!DOCTYPE svg PUBLIC "-//W3C//DTD SVG 1.1//EN" "http://www.w3.org/Graphics/SVG/1.1/DTD/svg11.dtd">
<svg version="1.1" id="Layer_2" xmlns="http://www.w3.org/2000/svg" xmlns:xlink="http://www.w3.org/1999/xlink" x="0px" y="0px"
	 width="48px" height="48px" viewBox="0 0 48 48" enable-background="new 0 0 48 48" xml:space="preserve">
<path fill="#010101" d="M47,18h-1.839C43.085,10.686,37.314,4.915,30,2.839V1c0-0.552-0.447-1-1-1H19c-0.553,0-1,0.448-1,1v1.839
	C10.686,4.915,4.915,10.686,2.838,18H1c-0.553,0-1,0.448-1,1v10c0,0.552,0.447,1,1,1h1.838C4.915,37.314,10.686,43.085,18,45.162V47
	c0,0.552,0.447,1,1,1h10c0.553,0,1-0.448,1-1v-1.838C37.314,43.085,43.085,37.314,45.161,30H47c0.553,0,1-0.448,1-1V19
	C48,18.448,47.553,18,47,18z M20,2h8v11.764C26.758,13.277,25.412,13,24,13c-1.412,0-2.758,0.277-4,0.764V2z M13.764,28H2v-8h11.764
	C13.277,21.242,13,22.588,13,24C13,25.412,13.277,26.758,13.764,28z M28,46h-8V34.236C21.242,34.723,22.588,35,24,35
	c1.412,0,2.758-0.277,4-0.764V46z M24,33c-4.963,0-9-4.038-9-9c0-4.962,4.037-9,9-9c4.963,0,9,4.038,9,9C33,28.962,28.963,33,24,33z
	 M46,28H34.236C34.723,26.758,35,25.412,35,24c0-1.412-0.277-2.758-0.764-4H46V28z"/>
</svg>
