<?xml version="1.0" encoding="utf-8"?>
<!-- Generator: Adobe Illustrator 17.0.0, SVG Export Plug-In . SVG Version: 6.00 Build 0)  -->
<!DOCTYPE svg PUBLIC "-//W3C//DTD SVG 1.1//EN" "http://www.w3.org/Graphics/SVG/1.1/DTD/svg11.dtd">
<svg version="1.1" id="Layer_2" xmlns="http://www.w3.org/2000/svg" xmlns:xlink="http://www.w3.org/1999/xlink" x="0px" y="0px"
	 width="48px" height="48px" viewBox="0 0 48 48" enable-background="new 0 0 48 48" xml:space="preserve">
<path fill="#010101" d="M24,0C11.477,0,4,2.991,4,8v32c0,5.009,7.477,8,20,8s20-2.991,20-8V8C44,2.991,36.523,0,24,0z M34,37.037
	c0,0.479-0.34,0.891-0.811,0.982c-3.47,0.67-6.392,0.982-9.193,0.982c-0.001,0-0.001,0-0.001,0
	c-2.839-0.001-5.672-0.303-9.185-0.982C14.34,37.928,14,37.516,14,37.037V26c0-0.298,0.133-0.581,0.363-0.771
	c0.23-0.189,0.537-0.267,0.826-0.21c6.769,1.308,10.849,1.306,17.621,0c0.295-0.057,0.596,0.021,0.826,0.211
	C33.867,25.419,34,25.702,34,26V37.037z M24,14C11.565,14,6,10.986,6,8c0-2.986,5.565-6,18-6s18,3.014,18,6
	C42,10.986,36.435,14,24,14z"/>
</svg>
