<?xml version="1.0" encoding="utf-8"?>
<!-- Generator: Adobe Illustrator 17.0.0, SVG Export Plug-In . SVG Version: 6.00 Build 0)  -->
<!DOCTYPE svg PUBLIC "-//W3C//DTD SVG 1.1//EN" "http://www.w3.org/Graphics/SVG/1.1/DTD/svg11.dtd">
<svg version="1.1" id="Layer_2" xmlns="http://www.w3.org/2000/svg" xmlns:xlink="http://www.w3.org/1999/xlink" x="0px" y="0px"
	 width="48px" height="48px" viewBox="0 0 48 48" enable-background="new 0 0 48 48" xml:space="preserve">
<g>
	<path fill="#010101" d="M32.815,26.017l-16,3C16.343,29.106,16,29.519,16,30v17c0,0.552,0.447,1,1,1h16c0.553,0,1-0.448,1-1V27
		c0-0.297-0.133-0.58-0.361-0.769C33.41,26.04,33.106,25.963,32.815,26.017z"/>
	<path fill="#010101" d="M25,24c4.963,0,9-4.038,9-9c0-6.993-5.063-13.43-11.775-14.975c-0.464-0.105-0.936,0.126-1.134,0.558
		c-0.197,0.431-0.065,0.941,0.316,1.223c2.678,1.97,2.89,5.419,2.262,7.513c-0.378-0.438-0.614-0.89-0.676-1.431
		c-0.035-0.31-0.212-0.585-0.479-0.745c-0.268-0.161-0.596-0.186-0.883-0.072C18.053,8.488,16,11.378,16,15
		C16,19.962,20.037,24,25,24z"/>
</g>
</svg>
