<?xml version="1.0" encoding="utf-8"?>
<!-- Generator: Adobe Illustrator 17.0.0, SVG Export Plug-In . SVG Version: 6.00 Build 0)  -->
<!DOCTYPE svg PUBLIC "-//W3C//DTD SVG 1.1//EN" "http://www.w3.org/Graphics/SVG/1.1/DTD/svg11.dtd">
<svg version="1.1" id="Layer_2" xmlns="http://www.w3.org/2000/svg" xmlns:xlink="http://www.w3.org/1999/xlink" x="0px" y="0px"
	 width="48px" height="48px" viewBox="0 0 48 48" enable-background="new 0 0 48 48" xml:space="preserve">
<g>
	<path fill="#010101" d="M47.895,24.553l-5-10c-0.24-0.481-0.817-0.687-1.311-0.462L11.36,27.907
		c-3.13,1.431-4.594,5.032-3.375,8.237C7.909,37.73,6.605,39,5,39c-1.654,0-3-1.346-3-3c0-0.552-0.447-1-1-1s-1,0.448-1,1
		c0,2.757,2.243,5,5,5c1.714,0,3.229-0.869,4.13-2.188c0.481,0.774,1.195,1.39,2.052,1.727c0.498,0.196,1.026,0.293,1.555,0.293
		c0.222,0,0.441-0.038,0.66-0.072c0.066,0.228,0.142,0.45,0.223,0.671L2,45.581V45c0-0.552-0.447-1-1-1s-1,0.448-1,1v2
		c0,0.061,0.024,0.113,0.034,0.171c0.01,0.055,0.004,0.111,0.024,0.166c0.003,0.01,0.011,0.017,0.015,0.027
		c0.014,0.034,0.035,0.062,0.052,0.095c0.04,0.075,0.084,0.145,0.139,0.206c0.026,0.029,0.054,0.054,0.084,0.08
		c0.062,0.055,0.129,0.099,0.202,0.137c0.033,0.017,0.063,0.035,0.098,0.048C0.761,47.972,0.878,48.001,1,48.001
		c0.111,0,0.226-0.019,0.336-0.059L14.5,43.241C16.263,46.091,19.409,48,23,48c5.514,0,10-4.486,10-10
		c0-1.776-0.471-3.442-1.285-4.889l15.702-7.202c0.246-0.113,0.437-0.321,0.526-0.577C48.033,25.077,48.016,24.795,47.895,24.553z
		 M23,46c-4.411,0-8-3.589-8-8c0-4.411,3.589-8,8-8s8,3.589,8,8C31,42.411,27.411,46,23,46z"/>
	<circle fill="#010101" cx="23" cy="38" r="3"/>
</g>
</svg>
