<?xml version="1.0" encoding="utf-8"?>
<!-- Generator: Adobe Illustrator 17.0.0, SVG Export Plug-In . SVG Version: 6.00 Build 0)  -->
<!DOCTYPE svg PUBLIC "-//W3C//DTD SVG 1.1//EN" "http://www.w3.org/Graphics/SVG/1.1/DTD/svg11.dtd">
<svg version="1.1" id="Layer_2" xmlns="http://www.w3.org/2000/svg" xmlns:xlink="http://www.w3.org/1999/xlink" x="0px" y="0px"
	 width="48px" height="48px" viewBox="0 0 48 48" enable-background="new 0 0 48 48" xml:space="preserve">
<g>
	<path fill="#010101" d="M34,23c0,0.552-0.447,1-1,1H15h-3.974c0.914,1.207,2.347,2,3.974,2h24c0.553,0,1-0.448,1-1v-7.451l-6,1.715
		V23z"/>
	<path fill="#010101" d="M43,17c-0.553,0-1,0.448-1,1v4c0,0.552,0.447,1,1,1c0.553,0,1-0.448,1-1v-4C44,17.448,43.553,17,43,17z"/>
	<path fill="#010101" d="M25,28h-8c-0.553,0-1,0.448-1,1c0,0.552,0.447,1,1,1h3v8.18l-18,3.6V39c0-0.552-0.447-1-1-1
		c-0.553,0-1,0.448-1,1v8c0,0.552,0.447,1,1,1c0.553,0,1-0.448,1-1v-3.18l19.196-3.839C21.663,39.887,22,39.477,22,39v-9h3
		c0.553,0,1-0.448,1-1C26,28.448,25.553,28,25,28z"/>
	<path fill="#010101" d="M47.811,6.416C47.623,6.154,47.321,6,47,6H14c-3.309,0-6,2.691-6,6v9c0,0.552,0.447,1,1,1h22h1v-1v-2.491
		c0-0.446,0.296-0.839,0.726-0.961L40,15.469v0l5.274-1.507c0.317-0.091,0.57-0.332,0.673-0.644l2.001-6.003
		C48.05,7.01,47.998,6.676,47.811,6.416z"/>
</g>
</svg>
