<?xml version="1.0" encoding="utf-8"?>
<!-- Generator: Adobe Illustrator 17.0.0, SVG Export Plug-In . SVG Version: 6.00 Build 0)  -->
<!DOCTYPE svg PUBLIC "-//W3C//DTD SVG 1.1//EN" "http://www.w3.org/Graphics/SVG/1.1/DTD/svg11.dtd">
<svg version="1.1" id="Layer_2" xmlns="http://www.w3.org/2000/svg" xmlns:xlink="http://www.w3.org/1999/xlink" x="0px" y="0px"
	 width="48px" height="48px" viewBox="0 0 48 48" enable-background="new 0 0 48 48" xml:space="preserve">
<path fill="#010101" d="M45,18h-7v-5V3V1c0-0.552-0.447-1-1-1c-0.553,0-1,0.448-1,1v1H12V1c0-0.552-0.447-1-1-1
	c-0.553,0-1,0.448-1,1v2v10v5H3c-0.553,0-1,0.448-1,1c0,0.552,0.447,1,1,1h3v9c0,0.017,0.009,0.03,0.009,0.047
	c0.005,0.098,0.024,0.194,0.058,0.289c0.01,0.029,0.018,0.056,0.031,0.084c0.008,0.017,0.01,0.036,0.02,0.052
	c0.046,0.085,0.104,0.161,0.169,0.228c0.01,0.01,0.023,0.017,0.033,0.026c0.074,0.069,0.158,0.124,0.249,0.168
	c0.028,0.014,0.055,0.025,0.084,0.036C6.764,29.971,6.879,30,7,30h2.713l12.39,7.691L8.473,46.151
	c-0.47,0.291-0.613,0.908-0.322,1.377c0.189,0.305,0.516,0.473,0.851,0.473c0.18,0,0.362-0.048,0.526-0.15L24,38.868l14.473,8.983
	c0.164,0.102,0.347,0.15,0.526,0.15c0.334,0,0.661-0.167,0.851-0.473c0.291-0.469,0.147-1.086-0.322-1.377l-13.631-8.461L38.287,30
	H41c0.121,0,0.236-0.029,0.346-0.07c0.029-0.011,0.057-0.023,0.085-0.036c0.091-0.044,0.175-0.099,0.249-0.168
	c0.01-0.01,0.023-0.016,0.033-0.026c0.066-0.067,0.124-0.143,0.17-0.228c0.009-0.017,0.011-0.035,0.019-0.052
	c0.013-0.028,0.021-0.056,0.031-0.084c0.034-0.094,0.054-0.19,0.058-0.288C41.991,29.03,42,29.017,42,29v-9h3c0.553,0,1-0.448,1-1
	C46,18.448,45.553,18,45,18z M10,22.697l-2,3V20h2V22.697z M24,36.514L13.506,30h20.989L24,36.514z M36,22H12v-8h24V22z M40,25.697
	l-2-3V20h2V25.697z"/>
</svg>
