<?xml version="1.0" encoding="utf-8"?>
<!-- Generator: Adobe Illustrator 17.0.0, SVG Export Plug-In . SVG Version: 6.00 Build 0)  -->
<!DOCTYPE svg PUBLIC "-//W3C//DTD SVG 1.1//EN" "http://www.w3.org/Graphics/SVG/1.1/DTD/svg11.dtd">
<svg version="1.1" id="Layer_2" xmlns="http://www.w3.org/2000/svg" xmlns:xlink="http://www.w3.org/1999/xlink" x="0px" y="0px"
	 width="48px" height="48px" viewBox="0 0 48 48" enable-background="new 0 0 48 48" xml:space="preserve">
<path fill="#010101" d="M39.996,30.981c-0.002-0.115-0.026-0.229-0.068-0.338c-0.011-0.029-0.026-0.054-0.039-0.081
	c-0.019-0.039-0.032-0.08-0.057-0.117L36,24.697V19v-6V9V3V1c0-0.552-0.447-1-1-1c-0.553,0-1,0.448-1,1v1H14V1c0-0.552-0.447-1-1-1
	c-0.553,0-1,0.448-1,1v2v6v4v6v5.697l-3.832,5.748c-0.024,0.037-0.038,0.078-0.057,0.117c-0.014,0.027-0.028,0.052-0.039,0.081
	c-0.042,0.109-0.066,0.222-0.068,0.338C8.004,30.988,8,30.993,8,31v4v12c0,0.552,0.447,1,1,1c0.553,0,1-0.448,1-1V36h2v3
	c0,0.552,0.447,1,1,1c0.553,0,1-0.448,1-1v-3h20v3c0,0.552,0.447,1,1,1c0.553,0,1-0.448,1-1v-3h2v11c0,0.552,0.447,1,1,1
	c0.553,0,1-0.448,1-1V35v-4C40,30.993,39.996,30.988,39.996,30.981z M14,10h20v2H14V10z M14,20h20v4H14V20z M38,34H10v-2h28V34z"/>
</svg>
