<?xml version="1.0" encoding="utf-8"?>
<!-- Generator: Adobe Illustrator 17.0.0, SVG Export Plug-In . SVG Version: 6.00 Build 0)  -->
<!DOCTYPE svg PUBLIC "-//W3C//DTD SVG 1.1//EN" "http://www.w3.org/Graphics/SVG/1.1/DTD/svg11.dtd">
<svg version="1.1" id="Layer_2" xmlns="http://www.w3.org/2000/svg" xmlns:xlink="http://www.w3.org/1999/xlink" x="0px" y="0px"
	 width="48px" height="48px" viewBox="0 0 48 48" enable-background="new 0 0 48 48" xml:space="preserve">
<g>
	<path fill="#010101" d="M47,25.932h-9v10h9c0.553,0,1-0.448,1-1v-8C48,26.38,47.553,25.932,47,25.932z"/>
	<path fill="#010101" d="M6,26.932v8c0,0.552,0.447,1,1,1h29v-10H7C6.447,25.932,6,26.38,6,26.932z"/>
	<path fill="#010101" d="M3,25.932c-0.553,0-1,0.448-1,1v8c0,0.552,0.447,1,1,1s1-0.448,1-1v-8C4,26.38,3.553,25.932,3,25.932z"/>
	<path fill="#010101" d="M2,16.932c0-2.757,2.243-5,5-5c3.859,0,7-3.14,7-7c0-0.552-0.447-1-1-1s-1,0.448-1,1c0,2.757-2.243,5-5,5
		c-3.859,0-7,3.14-7,7v4c0,0.552,0.447,1,1,1s1-0.448,1-1V16.932z"/>
	<path fill="#010101" d="M11,15.932c3.859,0,7-3.14,7-7c0-0.552-0.447-1-1-1s-1,0.448-1,1c0,2.757-2.243,5-5,5c-3.859,0-7,3.14-7,7
		c0,0.552,0.447,1,1,1s1-0.448,1-1C6,18.175,8.243,15.932,11,15.932z"/>
</g>
</svg>
