<?xml version="1.0" encoding="utf-8"?>
<!-- Generator: Adobe Illustrator 17.0.0, SVG Export Plug-In . SVG Version: 6.00 Build 0)  -->
<!DOCTYPE svg PUBLIC "-//W3C//DTD SVG 1.1//EN" "http://www.w3.org/Graphics/SVG/1.1/DTD/svg11.dtd">
<svg version="1.1" id="Layer_2" xmlns="http://www.w3.org/2000/svg" xmlns:xlink="http://www.w3.org/1999/xlink" x="0px" y="0px"
	 width="48px" height="48px" viewBox="0 0 48 48" enable-background="new 0 0 48 48" xml:space="preserve">
<g>
	<path fill="#010101" d="M9,39.932h28c0.553,0,1-0.448,1-1v-38c0-0.552-0.447-1-1-1H9c-0.553,0-1,0.448-1,1v38
		C8,39.484,8.447,39.932,9,39.932z M31.819,18.916c-0.534-0.11-0.892-0.629-0.792-1.165c0.1-0.535,0.593-0.896,1.138-0.805
		C33.049,17.093,34,17.778,34,18.932v6c0,1.299-1.03,2-2,2c-0.553,0-1-0.448-1-1c0-0.552,0.447-1,1-1v-5.997
		C31.997,18.978,31.893,18.931,31.819,18.916z"/>
	<path fill="#010101" d="M41,41.932H5c-0.553,0-1,0.448-1,1v4c0,0.552,0.447,1,1,1h36c0.553,0,1-0.448,1-1v-4
		C42,42.38,41.553,41.932,41,41.932z"/>
</g>
</svg>
