<?xml version="1.0" encoding="utf-8"?>
<!-- Generator: Adobe Illustrator 17.0.0, SVG Export Plug-In . SVG Version: 6.00 Build 0)  -->
<!DOCTYPE svg PUBLIC "-//W3C//DTD SVG 1.1//EN" "http://www.w3.org/Graphics/SVG/1.1/DTD/svg11.dtd">
<svg version="1.1" id="Layer_2" xmlns="http://www.w3.org/2000/svg" xmlns:xlink="http://www.w3.org/1999/xlink" x="0px" y="0px"
	 width="48px" height="48px" viewBox="0 0 48 48" enable-background="new 0 0 48 48" xml:space="preserve">
<g>
	<path fill="#010101" d="M45,15.932H3c-0.553,0-1,0.448-1,1v26v4c0,0.552,0.447,1,1,1s1-0.448,1-1v-3h40v3c0,0.552,0.447,1,1,1
		s1-0.448,1-1v-4v-26C46,16.38,45.553,15.932,45,15.932z M6,18.932c0-0.552,0.447-1,1-1h14c0.553,0,1,0.448,1,1v8
		c0,0.552-0.447,1-1,1H7c-0.553,0-1-0.448-1-1V18.932z M42,38.932c0,0.552-0.447,1-1,1H7c-0.553,0-1-0.448-1-1v-8
		c0-0.552,0.447-1,1-1h34c0.553,0,1,0.448,1,1V38.932z M42,26.932c0,0.552-0.447,1-1,1H27c-0.553,0-1-0.448-1-1v-8
		c0-0.552,0.447-1,1-1h14c0.553,0,1,0.448,1,1V26.932z"/>
	<path fill="#010101" d="M47,5.932H1c-0.553,0-1,0.448-1,1v6c0,0.552,0.447,1,1,1h46c0.553,0,1-0.448,1-1v-6
		C48,6.38,47.553,5.932,47,5.932z"/>
	<path fill="#010101" d="M8,37.932h32v-6H8V37.932z M24,33.932c0.551,0,1,0.447,1,1c0,0.552-0.449,1-1,1c-0.555,0-1-0.448-1-1
		C23,34.38,23.445,33.932,24,33.932z"/>
	<path fill="#010101" d="M28,25.932h12v-6H28V25.932z M34,21.932c0.551,0,1,0.447,1,1c0,0.552-0.449,1-1,1c-0.555,0-1-0.448-1-1
		C33,22.38,33.445,21.932,34,21.932z"/>
	<path fill="#010101" d="M20,19.932H8v6h12V19.932z M14,23.932c-0.555,0-1-0.448-1-1c0-0.553,0.445-1,1-1c0.551,0,1,0.447,1,1
		C15,23.484,14.551,23.932,14,23.932z"/>
</g>
</svg>
