<?xml version="1.0" encoding="utf-8"?>
<!-- Generator: Adobe Illustrator 17.0.0, SVG Export Plug-In . SVG Version: 6.00 Build 0)  -->
<!DOCTYPE svg PUBLIC "-//W3C//DTD SVG 1.1//EN" "http://www.w3.org/Graphics/SVG/1.1/DTD/svg11.dtd">
<svg version="1.1" id="Layer_2" xmlns="http://www.w3.org/2000/svg" xmlns:xlink="http://www.w3.org/1999/xlink" x="0px" y="0px"
	 width="48px" height="48px" viewBox="0 0 48 48" enable-background="new 0 0 48 48" xml:space="preserve">
<g>
	<path fill="#010101" d="M48,20c0-5.514-4.486-10-10-10H21c-2.206,0-4,1.794-4,4.009l0.102,11.089C17.102,27.801,19.299,30,22,30h4
		v4c0,0.552,0.447,1,1,1h4.309l2.444,11H29c-0.553,0-1,0.448-1,1c0,0.552,0.447,1,1,1h6h2h4c0.007,0,0.015,0.001,0.019,0
		c0.553,0,1-0.448,1-1c0-0.144-0.03-0.282-0.085-0.406l-3.69-16.607C43.644,29.856,48,25.432,48,20z M28,33v-3h2.197l0.667,3H28z"/>
	<path fill="#010101" d="M15,14h-5c-0.553,0-1,0.448-1,1v4H1c-0.553,0-1,0.448-1,1c0,0.552,0.447,1,1,1h8v4c0,0.552,0.447,1,1,1h5
		c0.553,0,1-0.448,1-1V15C16,14.448,15.553,14,15,14z"/>
</g>
</svg>
