<?xml version="1.0" encoding="utf-8"?>
<!-- Generator: Adobe Illustrator 17.0.0, SVG Export Plug-In . SVG Version: 6.00 Build 0)  -->
<!DOCTYPE svg PUBLIC "-//W3C//DTD SVG 1.1//EN" "http://www.w3.org/Graphics/SVG/1.1/DTD/svg11.dtd">
<svg version="1.1" id="Layer_2" xmlns="http://www.w3.org/2000/svg" xmlns:xlink="http://www.w3.org/1999/xlink" x="0px" y="0px"
	 width="48px" height="48px" viewBox="0 0 48 48" enable-background="new 0 0 48 48" xml:space="preserve">
<g>
	<path fill="#010101" d="M7,26H5c-1.654,0-3,1.346-3,3v4H1c-0.553,0-1,0.448-1,1c0,0.552,0.447,1,1,1h1v4c0,1.654,1.346,3,3,3h2
		c0.553,0,1-0.448,1-1V27C8,26.448,7.553,26,7,26z"/>
	<path fill="#010101" d="M35,20h-4c-1.654,0-3,1.346-3,3v11h-8V23c0-1.654-1.346-3-3-3h-4c-1.654,0-3,1.346-3,3v22
		c0,1.654,1.346,3,3,3h4c1.654,0,3-1.346,3-3v-9h8v9c0,1.654,1.346,3,3,3h4c1.654,0,3-1.346,3-3V23C38,21.346,36.654,20,35,20z"/>
	<path fill="#010101" d="M47,33h-1v-4c0-1.654-1.346-3-3-3h-2c-0.553,0-1,0.448-1,1v14c0,0.552,0.447,1,1,1h2c1.654,0,3-1.346,3-3
		v-4h1c0.553,0,1-0.448,1-1C48,33.448,47.553,33,47,33z"/>
</g>
</svg>
