<?xml version="1.0" encoding="utf-8"?>
<!-- Generator: Adobe Illustrator 17.0.0, SVG Export Plug-In . SVG Version: 6.00 Build 0)  -->
<!DOCTYPE svg PUBLIC "-//W3C//DTD SVG 1.1//EN" "http://www.w3.org/Graphics/SVG/1.1/DTD/svg11.dtd">
<svg version="1.1" id="Layer_2" xmlns="http://www.w3.org/2000/svg" xmlns:xlink="http://www.w3.org/1999/xlink" x="0px" y="0px"
	 width="48px" height="48px" viewBox="0 0 48 48" enable-background="new 0 0 48 48" xml:space="preserve">
<g>
	<path fill="#010101" d="M28,20H4c-2.206,0-4,1.794-4,4v6c0,2.206,1.794,4,4,4h24c0.553,0,1-0.448,1-1V21C29,20.448,28.553,20,28,20
		z"/>
	<path fill="#010101" d="M19,19h6c0.553,0,1-0.448,1-1v-2c0-0.552-0.447-1-1-1h-6c-0.553,0-1,0.448-1,1v2C18,18.552,18.447,19,19,19
		z"/>
	<path fill="#010101" d="M47,16h-4h-8c-2.757,0-5,2.243-5,5v12c0,2.757,2.243,5,5,5h8h4c0.553,0,1-0.448,1-1V17
		C48,16.448,47.553,16,47,16z M46,36h-2V18h2V36z"/>
</g>
</svg>
