<?xml version="1.0" encoding="utf-8"?>
<!-- Generator: Adobe Illustrator 17.0.0, SVG Export Plug-In . SVG Version: 6.00 Build 0)  -->
<!DOCTYPE svg PUBLIC "-//W3C//DTD SVG 1.1//EN" "http://www.w3.org/Graphics/SVG/1.1/DTD/svg11.dtd">
<svg version="1.1" id="Layer_2" xmlns="http://www.w3.org/2000/svg" xmlns:xlink="http://www.w3.org/1999/xlink" x="0px" y="0px"
	 width="48px" height="48px" viewBox="0 0 48 48" enable-background="new 0 0 48 48" xml:space="preserve">
<path fill="#010101" d="M25,2.018V1c0-0.552-0.447-1-1-1c-0.553,0-1,0.448-1,1v1.03C10.506,2.629,1.233,12.302,1.233,25
	c0,0.552,0.447,1,1,1H23v20h-5c-0.553,0-1,0.448-1,1c0,0.552,0.447,1,1,1h12c0.553,0,1-0.448,1-1c0-0.552-0.447-1-1-1h-5V26h2v5
	c0,0.552,0.447,1,1,1c0.553,0,1-0.448,1-1v-5h17.233c0.553,0,1-0.448,1-1C47.233,12.145,37.728,2.396,25,2.018z"/>
</svg>
