<?xml version="1.0" encoding="utf-8"?>
<!-- Generator: Adobe Illustrator 17.0.0, SVG Export Plug-In . SVG Version: 6.00 Build 0)  -->
<!DOCTYPE svg PUBLIC "-//W3C//DTD SVG 1.1//EN" "http://www.w3.org/Graphics/SVG/1.1/DTD/svg11.dtd">
<svg version="1.1" id="Layer_2" xmlns="http://www.w3.org/2000/svg" xmlns:xlink="http://www.w3.org/1999/xlink" x="0px" y="0px"
	 width="48px" height="48px" viewBox="0 0 48 48" enable-background="new 0 0 48 48" xml:space="preserve">
<path fill="#010101" d="M36.988,2.78C36.913,2.293,36.493,1.932,36,1.932H24v-1c0-0.552-0.447-1-1-1s-1,0.448-1,1v1H10
	c-0.493,0-0.913,0.36-0.988,0.848l-4,26c-0.045,0.288,0.039,0.582,0.23,0.803C5.431,29.805,5.708,29.932,6,29.932h16v16h-5
	c-0.553,0-1,0.448-1,1c0,0.552,0.447,1,1,1h12c0.553,0,1-0.448,1-1c0-0.552-0.447-1-1-1h-5v-16h2v5c0,0.552,0.447,1,1,1s1-0.448,1-1
	v-5h12c0.292,0,0.569-0.127,0.759-0.349c0.19-0.222,0.274-0.515,0.229-0.803L36.988,2.78z"/>
</svg>
