<?xml version="1.0" encoding="utf-8"?>
<!-- Generator: Adobe Illustrator 17.0.0, SVG Export Plug-In . SVG Version: 6.00 Build 0)  -->
<!DOCTYPE svg PUBLIC "-//W3C//DTD SVG 1.1//EN" "http://www.w3.org/Graphics/SVG/1.1/DTD/svg11.dtd">
<svg version="1.1" id="Layer_2" xmlns="http://www.w3.org/2000/svg" xmlns:xlink="http://www.w3.org/1999/xlink" x="0px" y="0px"
	 width="48px" height="48px" viewBox="0 0 48 48" enable-background="new 0 0 48 48" xml:space="preserve">
<g>
	<path fill="#010101" d="M25,0C15.626,0,8,7.626,8,17c0,9.037,7.092,16.428,16,16.95v-8.536l-1.293,1.293
		c-0.391,0.391-1.023,0.391-1.414,0l-3-3c-0.391-0.391-0.391-1.023,0-1.414c0.391-0.391,1.023-0.391,1.414,0L22,24.586l2.292-2.292
		c0.092-0.093,0.203-0.166,0.326-0.217c0.244-0.101,0.52-0.101,0.764,0c0.123,0.051,0.233,0.124,0.326,0.217L28,24.586l2.293-2.293
		c0.391-0.391,1.023-0.391,1.414,0c0.391,0.391,0.391,1.023,0,1.414l-3,3C28.512,26.902,28.256,27,28,27
		c-0.256,0-0.512-0.098-0.707-0.293L26,25.414v8.536c8.908-0.522,16-7.913,16-16.95C42,7.626,34.374,0,25,0z"/>
	<path fill="#010101" d="M30,36H20c-0.553,0-1,0.448-1,1c0,0.552,0.447,1,1,1h10c0.553,0,1-0.448,1-1C31,36.448,30.553,36,30,36z"/>
	<path fill="#010101" d="M30,40H20c-0.553,0-1,0.448-1,1c0,0.552,0.447,1,1,1h10c0.553,0,1-0.448,1-1C31,40.448,30.553,40,30,40z"/>
	<path fill="#010101" d="M30,44H20c-0.553,0-1,0.448-1,1c0,0.552,0.447,1,1,1h4v1c0,0.552,0.447,1,1,1c0.553,0,1-0.448,1-1v-1h4
		c0.553,0,1-0.448,1-1C31,44.448,30.553,44,30,44z"/>
</g>
</svg>
