<?xml version="1.0" encoding="utf-8"?>
<!-- Generator: Adobe Illustrator 17.0.0, SVG Export Plug-In . SVG Version: 6.00 Build 0)  -->
<!DOCTYPE svg PUBLIC "-//W3C//DTD SVG 1.1//EN" "http://www.w3.org/Graphics/SVG/1.1/DTD/svg11.dtd">
<svg version="1.1" id="Layer_2" xmlns="http://www.w3.org/2000/svg" xmlns:xlink="http://www.w3.org/1999/xlink" x="0px" y="0px"
	 width="48px" height="48px" viewBox="0 0 48 48" enable-background="new 0 0 48 48" xml:space="preserve">
<g>
	<path fill="#010101" d="M24,10c-7.168,0-13,5.832-13,13c0,5.663,3.663,10.638,9,12.358V37c0,0.552,0.447,1,1,1h6
		c0.553,0,1-0.448,1-1v-1.642c5.337-1.722,9-6.697,9-12.358C37,15.832,31.168,10,24,10z"/>
	<path fill="#010101" d="M25,44h-2c-0.553,0-1,0.448-1,1c0,0.552,0.447,1,1,1h2c0.553,0,1-0.448,1-1C26,44.448,25.553,44,25,44z"/>
	<path fill="#010101" d="M27,40h-6c-0.553,0-1,0.448-1,1c0,0.552,0.447,1,1,1h6c0.553,0,1-0.448,1-1C28,40.448,27.553,40,27,40z"/>
	<path fill="#010101" d="M24,8c0.553,0,1-0.448,1-1V3c0-0.552-0.447-1-1-1c-0.553,0-1,0.448-1,1v4C23,7.552,23.447,8,24,8z"/>
	<path fill="#010101" d="M44,22h-4c-0.553,0-1,0.448-1,1c0,0.552,0.447,1,1,1h4c0.553,0,1-0.448,1-1C45,22.448,44.553,22,44,22z"/>
	<path fill="#010101" d="M8,22H4c-0.553,0-1,0.448-1,1c0,0.552,0.447,1,1,1h4c0.553,0,1-0.448,1-1C9,22.448,8.553,22,8,22z"/>
	<path fill="#010101" d="M11.977,12.396c0.195,0.195,0.451,0.293,0.707,0.293c0.256,0,0.512-0.098,0.707-0.293
		c0.391-0.39,0.391-1.023,0-1.414L9.148,6.737c-0.391-0.391-1.023-0.391-1.414,0c-0.391,0.39-0.391,1.023,0,1.414L11.977,12.396z"/>
	<path fill="#010101" d="M35.311,12.689c0.256,0,0.512-0.098,0.707-0.293l4.243-4.244c0.391-0.391,0.391-1.024,0-1.414
		c-0.391-0.391-1.023-0.391-1.414,0l-4.243,4.244c-0.391,0.391-0.391,1.024,0,1.414C34.8,12.591,35.056,12.689,35.311,12.689z"/>
</g>
</svg>
