<?xml version="1.0" encoding="utf-8"?>
<!-- Generator: Adobe Illustrator 17.0.0, SVG Export Plug-In . SVG Version: 6.00 Build 0)  -->
<!DOCTYPE svg PUBLIC "-//W3C//DTD SVG 1.1//EN" "http://www.w3.org/Graphics/SVG/1.1/DTD/svg11.dtd">
<svg version="1.1" id="Layer_2" xmlns="http://www.w3.org/2000/svg" xmlns:xlink="http://www.w3.org/1999/xlink" x="0px" y="0px"
	 width="48px" height="48px" viewBox="0 0 48 48" enable-background="new 0 0 48 48" xml:space="preserve">
<path fill="#010101" d="M47,44H7c-1.654,0-3-1.346-3-3c0-1.654,1.346-3,3-3h35c3.309,0,6-2.691,6-6c0-3.309-2.691-6-6-6H32V16
	c0-8.822-7.178-16-16-16H8C3.589,0,0,3.589,0,8v23c0,0.552,0.447,1,1,1h30c0.553,0,1-0.448,1-1v-3h10c2.206,0,4,1.794,4,4
	c0,2.206-1.794,4-4,4H7c-2.757,0-5,2.243-5,5c0,2.757,2.243,5,5,5h39v1c0,0.552,0.447,1,1,1c0.553,0,1-0.448,1-1v-2
	C48,44.448,47.553,44,47,44z M16,8c4.411,0,8,3.589,8,8c0,4.411-3.589,8-8,8c-4.411,0-8-3.589-8-8C8,11.589,11.589,8,16,8z M25,28H7
	c-0.553,0-1-0.448-1-1c0-0.552,0.447-1,1-1h18c0.553,0,1,0.448,1,1C26,27.552,25.553,28,25,28z"/>
</svg>
