<?xml version="1.0" encoding="utf-8"?>
<!-- Generator: Adobe Illustrator 17.1.0, SVG Export Plug-In . SVG Version: 6.00 Build 0)  -->
<!DOCTYPE svg PUBLIC "-//W3C//DTD SVG 1.0//EN" "http://www.w3.org/TR/2001/REC-SVG-20010904/DTD/svg10.dtd">
<svg version="1.0" id="Layer_1" xmlns="http://www.w3.org/2000/svg" xmlns:xlink="http://www.w3.org/1999/xlink" x="0px" y="0px"
	 width="48px" height="48px" viewBox="0 0 48 48" enable-background="new 0 0 48 48" xml:space="preserve">
<g>
	<path d="M47.766,17.356C47.575,17.13,47.295,17,47,17h-1.063C45.474,13.046,42.235,9,38,9c-0.878,0-1.73,0.139-2.547,0.415
		C33.908,4.474,29.271,1,24,1c-5.271,0-9.91,3.474-11.457,8.415C11.729,9.139,10.877,9,10,9c-4.235,0-7.474,4.046-7.937,8H1
		c-0.295,0-0.575,0.13-0.766,0.356c-0.19,0.226-0.271,0.524-0.22,0.815l3.312,19.06c0.295,1.687,1.305,3.085,2.681,3.923
		C6.007,41.103,6,41.052,6,41c0-4.411,3.589-8,8-8s8,3.589,8,8h4c0-4.411,3.589-8,8-8s8,3.589,8,8c0,0.052-0.007,0.102-0.008,0.154
		c1.375-0.838,2.383-2.236,2.677-3.924l3.316-19.059C48.036,17.88,47.955,17.583,47.766,17.356z M4.081,17
		c0.448-2.958,2.872-6,5.919-6c0.97,0,1.898,0.227,2.759,0.676c0.277,0.145,0.608,0.151,0.892,0.016
		c0.284-0.135,0.487-0.396,0.55-0.703C15.145,6.36,19.267,3,24,3c4.732,0,8.852,3.36,9.796,7.989
		c0.062,0.308,0.266,0.568,0.549,0.703c0.283,0.134,0.613,0.129,0.893-0.016C36.1,11.227,37.029,11,38,11
		c3.047,0,5.471,3.042,5.919,6H4.081z"/>
	<path d="M14,35c-3.309,0-6,2.691-6,6s2.691,6,6,6s6-2.691,6-6S17.309,35,14,35z"/>
	<path d="M34,35c-3.309,0-6,2.691-6,6s2.691,6,6,6c3.309,0,6-2.691,6-6S37.309,35,34,35z"/>
</g>
</svg>
