<?xml version="1.0" encoding="utf-8"?>
<!-- Generator: Adobe Illustrator 17.0.0, SVG Export Plug-In . SVG Version: 6.00 Build 0)  -->
<!DOCTYPE svg PUBLIC "-//W3C//DTD SVG 1.1//EN" "http://www.w3.org/Graphics/SVG/1.1/DTD/svg11.dtd">
<svg version="1.1" id="Layer_2" xmlns="http://www.w3.org/2000/svg" xmlns:xlink="http://www.w3.org/1999/xlink" x="0px" y="0px"
	 width="48px" height="48px" viewBox="0 0 48 48" enable-background="new 0 0 48 48" xml:space="preserve">
<g>
	<path fill="#010101" d="M9.707,0.225c-0.285-0.286-0.715-0.371-1.09-0.217C8.243,0.163,8,0.528,8,0.932v13
		c0,0.265,0.106,0.519,0.293,0.707l5,5c0.191,0.191,0.447,0.293,0.707,0.293c0.129,0,0.259-0.025,0.383-0.076
		C14.757,19.701,15,19.337,15,18.932v-13c0-0.265-0.106-0.519-0.293-0.707L9.707,0.225z"/>
	<path fill="#010101" d="M39.383,0.008c-0.374-0.155-0.804-0.07-1.09,0.217l-5,5C33.106,5.413,33,5.667,33,5.932v13
		c0,0.404,0.243,0.769,0.617,0.924c0.124,0.051,0.254,0.076,0.383,0.076c0.26,0,0.516-0.102,0.707-0.293l5-5
		C39.895,14.452,40,14.197,40,13.932v-13C40,0.528,39.757,0.163,39.383,0.008z"/>
	<path fill="#010101" d="M25,7.974V0.932c0-0.552-0.447-1-1-1s-1,0.448-1,1v7.041c-3.997,0.299-7,2.367-7,4.959v25.001
		c0,1.69,1.056,3.495,2.37,5.095c1.507-2.3,4.58-2.301,5.631-2.301c1.05,0,4.122,0.002,5.629,2.301
		c1.314-1.601,2.37-3.405,2.37-5.095V12.932C32,10.341,28.997,8.273,25,7.974z"/>
	<path fill="#010101" d="M24.001,42.727c-2.238,0-3.543,0.525-4.107,1.652c-0.036,0.071-0.092,0.122-0.141,0.181
		c1.652,1.677,3.3,2.918,3.655,3.179c0.177,0.129,0.384,0.193,0.592,0.193s0.415-0.064,0.592-0.193
		c0.354-0.26,1.997-1.497,3.646-3.169c-0.049-0.058-0.096-0.119-0.132-0.19C27.542,43.252,26.237,42.727,24.001,42.727z"/>
</g>
</svg>
