<?xml version="1.0" encoding="utf-8"?>
<!-- Generator: Adobe Illustrator 17.1.0, SVG Export Plug-In . SVG Version: 6.00 Build 0)  -->
<!DOCTYPE svg PUBLIC "-//W3C//DTD SVG 1.0//EN" "http://www.w3.org/TR/2001/REC-SVG-20010904/DTD/svg10.dtd">
<svg version="1.0" id="Layer_1" xmlns="http://www.w3.org/2000/svg" xmlns:xlink="http://www.w3.org/1999/xlink" x="0px" y="0px"
	 width="48px" height="48px" viewBox="0 0 48 48" enable-background="new 0 0 48 48" xml:space="preserve">
<g>
	<path d="M30.516,13.239l-1.673,2.342C28.655,15.844,28.353,16,28.029,16h-8.059c-0.323,0-0.626-0.156-0.813-0.419l-1.673-2.342
		C10.775,15.857,6,22.374,6,30c0,9.925,8.075,18,18,18s18-8.075,18-18C42,22.374,37.225,15.857,30.516,13.239z M24,42.001
		c-6.617,0-12-5.383-12-12s5.383-12,12-12s12,5.383,12,12S30.617,42.001,24,42.001z"/>
	<polygon points="15.485,7 19.483,12.597 19.483,12.597 20.485,14 21,14 27,14 27.515,14 28.517,12.597 28.517,12.597 32.515,7 	"/>
	<path d="M29.857,0.485C29.677,0.184,29.352,0,29,0H19c-0.352,0-0.677,0.184-0.857,0.485L15.434,5h17.132L29.857,0.485z"/>
</g>
</svg>
