<?xml version="1.0" encoding="utf-8"?>
<!-- Generator: Adobe Illustrator 17.0.0, SVG Export Plug-In . SVG Version: 6.00 Build 0)  -->
<!DOCTYPE svg PUBLIC "-//W3C//DTD SVG 1.1//EN" "http://www.w3.org/Graphics/SVG/1.1/DTD/svg11.dtd">
<svg version="1.1" id="Layer_2" xmlns="http://www.w3.org/2000/svg" xmlns:xlink="http://www.w3.org/1999/xlink" x="0px" y="0px"
	 width="48px" height="48px" viewBox="0 0 48 48" enable-background="new 0 0 48 48" xml:space="preserve">
<path fill="#010101" d="M24,0C10.767,0,0,10.767,0,24c0,13.233,10.767,24,24,24c13.233,0,24-10.767,24-24C48,10.767,37.233,0,24,0z
	 M37.475,17.336l3.695-1.529c0.509-0.209,1.096,0.031,1.307,0.542c0.211,0.51-0.031,1.095-0.541,1.306l-3.695,1.529
	c-0.125,0.052-0.255,0.077-0.383,0.077c-0.393,0-0.765-0.233-0.924-0.618C36.723,18.132,36.965,17.547,37.475,17.336z M28.816,9.759
	l1.531-3.694c0.212-0.511,0.8-0.751,1.307-0.541c0.511,0.212,0.753,0.796,0.541,1.307l-1.531,3.694
	c-0.159,0.385-0.532,0.618-0.924,0.618c-0.128,0-0.258-0.025-0.383-0.077C28.847,10.854,28.604,10.269,28.816,9.759z M22.888,5.37
	c0-0.552,0.447-1,1-1c0.553,0,1,0.448,1,1v4c0,0.552-0.447,1-1,1c-0.553,0-1-0.448-1-1V5.37z M16.348,5.523
	c0.51-0.211,1.096,0.031,1.307,0.541l1.529,3.695c0.211,0.51-0.031,1.095-0.541,1.306c-0.125,0.052-0.255,0.077-0.383,0.077
	c-0.393,0-0.765-0.233-0.924-0.618l-1.529-3.695C15.596,6.318,15.838,5.733,16.348,5.523z M3.888,24.37c0-0.552,0.447-1,1-1h4
	c0.553,0,1,0.448,1,1c0,0.552-0.447,1-1,1h-4C4.335,25.37,3.888,24.922,3.888,24.37z M10.524,30.664l-3.697,1.53
	c-0.125,0.052-0.255,0.077-0.383,0.077c-0.392,0-0.765-0.233-0.924-0.618c-0.211-0.51,0.031-1.095,0.541-1.306l3.697-1.53
	c0.509-0.21,1.096,0.031,1.307,0.542C11.276,29.868,11.034,30.453,10.524,30.664z M11.065,18.643
	c-0.16,0.385-0.532,0.617-0.924,0.617c-0.128,0-0.258-0.025-0.383-0.077l-3.694-1.532c-0.511-0.212-0.753-0.797-0.541-1.307
	c0.212-0.51,0.8-0.75,1.307-0.54l3.694,1.532C11.035,17.548,11.277,18.133,11.065,18.643z M12.686,14.1l-2.826-2.829
	c-0.391-0.391-0.391-1.024,0-1.414c0.391-0.39,1.023-0.391,1.414,0.001l2.826,2.829c0.391,0.391,0.391,1.024,0,1.414
	c-0.195,0.195-0.451,0.293-0.707,0.293C13.137,14.394,12.881,14.296,12.686,14.1z M33.888,39.037c0,0.552-0.447,1-1,1h-18
	c-0.553,0-1-0.448-1-1v-6c0-0.552,0.447-1,1-1h18c0.553,0,1,0.448,1,1V39.037z M27.433,21.981C27.785,22.576,28,23.261,28,24
	c0,2.206-1.794,4-4,4c-2.206,0-4-1.794-4-4c0-2.206,1.794-4,4-4c0.74,0,1.424,0.216,2.019,0.567l9.293-9.294
	c0.391-0.391,1.023-0.391,1.414,0c0.391,0.391,0.391,1.023,0,1.414L27.433,21.981z M42.476,31.654
	c-0.159,0.385-0.532,0.618-0.924,0.618c-0.128,0-0.258-0.025-0.383-0.077l-3.694-1.531c-0.511-0.212-0.753-0.796-0.541-1.307
	c0.211-0.511,0.8-0.752,1.307-0.541l3.694,1.531C42.445,30.559,42.687,31.144,42.476,31.654z M42.998,25.002
	C42.998,25.002,42.998,25.002,42.998,25.002L39,25c-0.553,0-1-0.448-1-1c0-0.552,0.448-1,1-1c0,0,0,0,0.001,0l3.997,0.002
	c0.553,0,1,0.448,1,1C43.998,24.555,43.55,25.002,42.998,25.002z"/>
</svg>
