<?xml version="1.0" encoding="utf-8"?>
<!-- Generator: Adobe Illustrator 17.0.0, SVG Export Plug-In . SVG Version: 6.00 Build 0)  -->
<!DOCTYPE svg PUBLIC "-//W3C//DTD SVG 1.1//EN" "http://www.w3.org/Graphics/SVG/1.1/DTD/svg11.dtd">
<svg version="1.1" id="Layer_2" xmlns="http://www.w3.org/2000/svg" xmlns:xlink="http://www.w3.org/1999/xlink" x="0px" y="0px"
	 width="48px" height="48px" viewBox="0 0 48 48" enable-background="new 0 0 48 48" xml:space="preserve">
<path fill="#010101" d="M46.874,39.088c-0.407-7.003-9.852-14.554-10.254-14.872c-0.396-0.314-0.967-0.283-1.327,0.077L30.5,29.086
	L10,8.586V1c0-0.404-0.243-0.769-0.617-0.924C9.01-0.078,8.579,0.007,8.293,0.293l-8,8c-0.286,0.286-0.372,0.716-0.217,1.09
	C0.23,9.756,0.596,10,1,10h7.586l20.5,20.5l-4.793,4.793c-0.358,0.358-0.392,0.929-0.077,1.327
	c0.331,0.42,8.199,10.271,15.336,10.271c1.971,0,3.706-0.735,5.155-2.184C46.27,43.143,47,41.252,46.874,39.088z"/>
</svg>
