<?xml version="1.0" encoding="utf-8"?>
<!-- Generator: Adobe Illustrator 17.0.0, SVG Export Plug-In . SVG Version: 6.00 Build 0)  -->
<!DOCTYPE svg PUBLIC "-//W3C//DTD SVG 1.1//EN" "http://www.w3.org/Graphics/SVG/1.1/DTD/svg11.dtd">
<svg version="1.1" id="Layer_2" xmlns="http://www.w3.org/2000/svg" xmlns:xlink="http://www.w3.org/1999/xlink" x="0px" y="0px"
	 width="48px" height="48px" viewBox="0 0 48 48" enable-background="new 0 0 48 48" xml:space="preserve">
<g>
	<polygon fill="#010101" points="20.242,32 36,32 36,22 30.242,22 	"/>
	<path fill="#010101" d="M27.414,22L47.707,1.707c0.098-0.098,0.171-0.21,0.219-0.331C47.974,1.259,48,1.133,48,1
		s-0.026-0.259-0.074-0.377c-0.049-0.12-0.122-0.233-0.219-0.33s-0.21-0.171-0.331-0.22C47.259,0.026,47.133,0,47,0
		s-0.259,0.026-0.376,0.073c-0.12,0.049-0.233,0.122-0.331,0.22L24.586,22h0l-10,10h0L0.293,46.293
		c-0.098,0.098-0.171,0.21-0.22,0.331C0.026,46.741,0,46.867,0,47s0.026,0.259,0.073,0.376c0.049,0.12,0.122,0.233,0.22,0.331
		c0.003,0.003,0.008,0.004,0.011,0.007c0.381,0.37,1.011,0.37,1.392,0c0.003-0.003,0.008-0.004,0.011-0.007L17.414,32h0L27.414,22
		L27.414,22z"/>
	<path fill="#010101" d="M6,23v8c0,0.552,0.447,1,1,1h4.758l10-10H7C6.447,22,6,22.448,6,23z"/>
	<path fill="#010101" d="M47,22h-9v10h9c0.553,0,1-0.448,1-1v-8C48,22.448,47.553,22,47,22z"/>
	<path fill="#010101" d="M2,23v8c0,0.552,0.447,1,1,1s1-0.448,1-1v-8c0-0.552-0.447-1-1-1S2,22.448,2,23z"/>
	<path fill="#010101" d="M1,18c0.553,0,1-0.448,1-1v-4c0-2.757,2.243-5,5-5c3.859,0,7-3.14,7-7c0-0.552-0.447-1-1-1s-1,0.448-1,1
		c0,2.757-2.243,5-5,5c-3.859,0-7,3.14-7,7v4C0,17.552,0.447,18,1,18z"/>
	<path fill="#010101" d="M4,17c0,0.552,0.447,1,1,1s1-0.448,1-1c0-2.757,2.243-5,5-5c3.859,0,7-3.14,7-7c0-0.552-0.447-1-1-1
		s-1,0.448-1,1c0,2.757-2.243,5-5,5C7.141,10,4,13.14,4,17z"/>
</g>
</svg>
