<?xml version="1.0" encoding="utf-8"?>
<!-- Generator: Adobe Illustrator 17.0.0, SVG Export Plug-In . SVG Version: 6.00 Build 0)  -->
<!DOCTYPE svg PUBLIC "-//W3C//DTD SVG 1.1//EN" "http://www.w3.org/Graphics/SVG/1.1/DTD/svg11.dtd">
<svg version="1.1" id="Layer_2" xmlns="http://www.w3.org/2000/svg" xmlns:xlink="http://www.w3.org/1999/xlink" x="0px" y="0px"
	 width="48px" height="48px" viewBox="0 0 48 48" enable-background="new 0 0 48 48" xml:space="preserve">
<g>
	<path fill="#010101" d="M7,19.932c4.276,0,7.857,3,8.769,7.003c2.736-0.539,5.618-0.929,8.231-0.929
		c2.613,0,5.495,0.39,8.231,0.929c0.912-4.003,4.493-7.003,8.769-7.003c0.612,0,1.21,0.062,1.788,0.18
		C42.928,19.541,43,19.131,43,18.877C43,8.431,34.503-0.068,24.058-0.068c-10.445,0-18.942,8.498-18.942,18.944
		c0,0.248,0.087,0.644,0.263,1.21C5.906,19.99,6.446,19.932,7,19.932z M22,16.932c0-0.198,0.038-0.385,0.091-0.565
		c-0.073-0.043-0.149-0.078-0.212-0.141l-1.586-1.587c-0.391-0.391-0.391-1.024,0-1.415c0.391-0.39,1.023-0.39,1.414,0.001
		l1.586,1.587c0.062,0.062,0.098,0.139,0.14,0.211c0.181-0.054,0.368-0.091,0.567-0.091s0.386,0.038,0.567,0.091
		c0.042-0.073,0.078-0.15,0.141-0.213l1.585-1.586c0.391-0.391,1.023-0.39,1.414-0.001c0.391,0.391,0.391,1.024,0,1.415
		l-1.585,1.586c-0.063,0.063-0.14,0.099-0.213,0.141C25.962,16.547,26,16.734,26,16.932c0,0.198-0.038,0.386-0.091,0.566
		c0.073,0.043,0.15,0.079,0.213,0.142l1.585,1.585c0.391,0.391,0.391,1.023,0,1.414c-0.195,0.195-0.451,0.293-0.707,0.293
		c-0.256,0-0.512-0.098-0.707-0.293l-1.585-1.585c-0.063-0.063-0.099-0.14-0.142-0.213c-0.181,0.054-0.368,0.091-0.566,0.091
		c-0.198,0-0.385-0.038-0.566-0.091c-0.042,0.073-0.078,0.15-0.141,0.212l-1.586,1.586c-0.195,0.195-0.451,0.293-0.707,0.293
		c-0.256,0-0.512-0.098-0.707-0.293c-0.391-0.391-0.391-1.023,0-1.414l1.586-1.586c0.063-0.063,0.139-0.098,0.212-0.141
		C22.038,17.318,22,17.13,22,16.932z"/>
	<path fill="#010101" d="M13.813,27.351c-0.72-3.099-3.498-5.418-6.813-5.418c-3.859,0-7,3.14-7,7c0,2.03,0.874,3.855,2.259,5.135
		c0.61-2.275,2.32-4.129,4.66-4.857C8.653,28.669,11.104,27.963,13.813,27.351z"/>
	<path fill="#010101" d="M41,21.932c-3.315,0-6.093,2.319-6.813,5.418c2.71,0.613,5.161,1.319,6.896,1.86
		c2.338,0.728,4.048,2.582,4.658,4.857C47.126,32.788,48,30.962,48,28.932C48,25.072,44.859,21.932,41,21.932z"/>
	<path fill="#010101" d="M40.488,31.121C36.761,29.957,29.664,28.006,24,28.006c-5.663,0-12.76,1.951-16.486,3.113
		c-1.576,0.491-2.765,1.692-3.26,3.19C4.088,34.809,4,35.341,4,35.891v3.115c0,2.716,2.243,4.926,5,4.926v2v1c0,0.552,0.447,1,1,1
		s1-0.448,1-1v-1v-2h26v2v1c0,0.552,0.447,1,1,1c0.553,0,1-0.448,1-1v-1v-2c2.757,0,5-2.209,5-4.926v-3.115
		c0-0.275-0.022-0.546-0.065-0.81C43.637,33.232,42.326,31.692,40.488,31.121z"/>
</g>
</svg>
