<?xml version="1.0" encoding="utf-8"?>
<!-- Generator: Adobe Illustrator 17.0.0, SVG Export Plug-In . SVG Version: 6.00 Build 0)  -->
<!DOCTYPE svg PUBLIC "-//W3C//DTD SVG 1.1//EN" "http://www.w3.org/Graphics/SVG/1.1/DTD/svg11.dtd">
<svg version="1.1" id="Layer_2" xmlns="http://www.w3.org/2000/svg" xmlns:xlink="http://www.w3.org/1999/xlink" x="0px" y="0px"
	 width="48px" height="48px" viewBox="0 0 48 48" enable-background="new 0 0 48 48" xml:space="preserve">
<g>
	<path fill="#010101" d="M19.548,24.21l3.071-3.071C21.235,20.415,19.666,20,18,20c-5.514,0-10,4.486-10,10c0,5.514,4.486,10,10,10
		c5.514,0,10-4.486,10-10c0-1.666-0.415-3.235-1.139-4.619l-3.071,3.071C23.923,28.947,24,29.464,24,30c0,3.309-2.691,6-6,6
		c-3.309,0-6-2.691-6-6c0-3.309,2.691-6,6-6C18.536,24,19.053,24.077,19.548,24.21z"/>
	<path fill="#010101" d="M17.73,26.027C15.652,26.169,14,27.887,14,30c0,2.206,1.794,4,4,4c2.114,0,3.831-1.653,3.973-3.731
		l-1.852,1.852C19.555,32.688,18.801,33,18,33c-0.801,0-1.555-0.312-2.121-0.879C15.312,31.554,15,30.801,15,30
		c0-0.801,0.312-1.554,0.879-2.121L17.73,26.027z"/>
	<path fill="#010101" d="M47.806,5.408C47.617,5.151,47.318,5,47,5h-2.182H43V3.201V1c0-0.318-0.151-0.617-0.407-0.806
		c-0.256-0.188-0.586-0.243-0.891-0.149C41.544,0.095,39.934,0.613,38,1.555V9c0,0.552-0.447,1-1,1c-0.553,0-1-0.448-1-1V2.641
		c-2.276,1.376-4.496,3.276-5.085,5.669c-0.327,1.328-0.141,2.66,0.549,3.983c0.292,0.561,0.678,1.12,1.152,1.677v0l-2.634,2.634
		l-4.24,4.24v0l-1.417,1.416l-2.853,2.853v0l-1.452,1.452v0l-2.726,2.726C17.102,29.485,17,29.729,17,30s0.102,0.515,0.293,0.707
		c0.383,0.383,1.031,0.383,1.414,0l2.726-2.726v0l1.452-1.452l0,0l2.853-2.853l1.417-1.417v0l4.24-4.241l2.635-2.635l0,0
		c0.556,0.473,1.117,0.855,1.68,1.148c0.9,0.467,1.807,0.709,2.713,0.709c6.042,0,9.391-10.495,9.53-10.942
		C48.05,5.995,47.994,5.664,47.806,5.408z"/>
	<path fill="#010101" d="M32.655,19.587l-4.33,4.33C29.382,25.703,30,27.778,30,30c0,6.617-5.383,12-12,12c-6.617,0-12-5.383-12-12
		c0-6.617,5.383-12,12-12c2.222,0,4.297,0.618,6.083,1.674l4.33-4.33C25.47,13.247,21.881,12,18,12C8.075,12,0,20.075,0,30
		c0,4.603,1.752,8.795,4.605,11.981l-4.312,4.312c-0.391,0.391-0.391,1.023,0,1.414C0.488,47.902,0.744,48,1,48
		c0.256,0,0.512-0.098,0.707-0.293l4.312-4.312C9.205,46.248,13.397,48,18,48c4.603,0,8.795-1.752,11.981-4.605l4.312,4.312
		C34.488,47.902,34.744,48,35,48c0.256,0,0.512-0.098,0.707-0.293c0.391-0.391,0.391-1.023,0-1.414l-4.312-4.312
		C34.248,38.795,36,34.603,36,30C36,26.119,34.753,22.53,32.655,19.587z"/>
</g>
</svg>
