<?xml version="1.0" encoding="utf-8"?>
<!-- Generator: Adobe Illustrator 17.0.0, SVG Export Plug-In . SVG Version: 6.00 Build 0)  -->
<!DOCTYPE svg PUBLIC "-//W3C//DTD SVG 1.1//EN" "http://www.w3.org/Graphics/SVG/1.1/DTD/svg11.dtd">
<svg version="1.1" id="Layer_2" xmlns="http://www.w3.org/2000/svg" xmlns:xlink="http://www.w3.org/1999/xlink" x="0px" y="0px"
	 width="48px" height="48px" viewBox="0 0 48 48" enable-background="new 0 0 48 48" xml:space="preserve">
<g>
	<path fill="#010101" d="M20.317,0.052c-0.356-0.118-0.747-0.029-1.016,0.232c-0.268,0.261-0.367,0.651-0.258,1.009l0.072,0.236
		c0.9,2.931,2.346,7.637,0.705,11.633c-0.71-0.943-1.593-2.165-2.008-2.745C17.625,10.156,17.322,10,17,10h-0.001
		c-0.323,0.001-0.627,0.157-0.814,0.42C15.859,10.879,13,14.985,13,18c0,5.514,4.486,10,10,10c5.514,0,10-4.486,10-10
		C33,10.186,27.548,2.47,20.317,0.052z"/>
	<path fill="#010101" d="M29,30H17c-0.308,0-0.599,0.142-0.788,0.385c-0.189,0.243-0.257,0.559-0.182,0.858l4,16
		C20.142,47.688,20.541,48,21,48h4c0.459,0,0.858-0.312,0.97-0.757l4-16c0.075-0.299,0.008-0.615-0.182-0.858
		C29.599,30.142,29.308,30,29,30z"/>
</g>
</svg>
