<?xml version="1.0" encoding="utf-8"?>
<!-- Generator: Adobe Illustrator 17.0.0, SVG Export Plug-In . SVG Version: 6.00 Build 0)  -->
<!DOCTYPE svg PUBLIC "-//W3C//DTD SVG 1.1//EN" "http://www.w3.org/Graphics/SVG/1.1/DTD/svg11.dtd">
<svg version="1.1" id="Layer_2" xmlns="http://www.w3.org/2000/svg" xmlns:xlink="http://www.w3.org/1999/xlink" x="0px" y="0px"
	 width="48px" height="48px" viewBox="0 0 48 48" enable-background="new 0 0 48 48" xml:space="preserve">
<path fill="#010101" d="M47,46h-7.244l-9.37-33.038l-0.609-2.226c-0.013-0.047-0.04-0.084-0.059-0.128l-2.802-9.882
	C26.794,0.297,26.401,0,25.954,0H22c-0.447,0-0.841,0.297-0.962,0.728l-2.8,9.908c-0.014,0.036-0.038,0.066-0.048,0.104
	l-0.376,1.396L8.244,46H1c-0.553,0-1,0.448-1,1c0,0.552,0.447,1,1,1h37.996c0.001,0,0.002,0.001,0.003,0.001
	C39,48.001,39.001,48,39.002,48H47c0.553,0,1-0.448,1-1C48,46.448,47.553,46,47,46z M19.923,12h8.126l1.641,6H18.306L19.923,12z
	 M13.164,36l1.688-6h18.24l1.734,6H13.164z"/>
</svg>
