<?xml version="1.0" encoding="utf-8"?>
<!-- Generator: Adobe Illustrator 17.0.0, SVG Export Plug-In . SVG Version: 6.00 Build 0)  -->
<!DOCTYPE svg PUBLIC "-//W3C//DTD SVG 1.1//EN" "http://www.w3.org/Graphics/SVG/1.1/DTD/svg11.dtd">
<svg version="1.1" id="Layer_2" xmlns="http://www.w3.org/2000/svg" xmlns:xlink="http://www.w3.org/1999/xlink" x="0px" y="0px"
	 width="48px" height="48px" viewBox="0 0 48 48" enable-background="new 0 0 48 48" xml:space="preserve">
<g>
	<path fill="#010101" d="M26,0h-6c-2.757,0-5,2.243-5,5v28c0,1.654,1.346,3,3,3h4v11c0,0.552,0.447,1,1,1c0.553,0,1-0.448,1-1V36h4
		c1.654,0,3-1.346,3-3V5C31,2.243,28.757,0,26,0z M23,32c-2.206,0-4-1.794-4-4c0-2.206,1.794-4,4-4c2.206,0,4,1.794,4,4
		C27,30.206,25.206,32,23,32z M23,22c-2.206,0-4-1.794-4-4c0-2.206,1.794-4,4-4c2.206,0,4,1.794,4,4C27,20.206,25.206,22,23,22z
		 M23,12c-2.206,0-4-1.794-4-4c0-2.206,1.794-4,4-4c2.206,0,4,1.794,4,4C27,10.206,25.206,12,23,12z"/>
	<path fill="#010101" d="M39.924,4.617C39.769,4.244,39.404,4,39,4h-6v8.414l6.707-6.707C39.993,5.421,40.079,4.991,39.924,4.617z"
		/>
	<path fill="#010101" d="M39,14h-6v8.414l6.707-6.707c0.286-0.286,0.372-0.716,0.217-1.09C39.769,14.244,39.404,14,39,14z"/>
	<path fill="#010101" d="M39,24h-6v8.414l6.707-6.707c0.286-0.286,0.372-0.716,0.217-1.09C39.769,24.244,39.404,24,39,24z"/>
	<path fill="#010101" d="M6.076,4.617c-0.155,0.374-0.069,0.804,0.217,1.09L13,12.414V4H7C6.596,4,6.23,4.244,6.076,4.617z"/>
	<path fill="#010101" d="M6.076,14.617c-0.155,0.374-0.069,0.804,0.217,1.09L13,22.414V14H7C6.596,14,6.23,14.244,6.076,14.617z"/>
	<path fill="#010101" d="M6.076,24.617c-0.155,0.374-0.069,0.804,0.217,1.09L13,32.414V24H7C6.596,24,6.23,24.244,6.076,24.617z"/>
</g>
</svg>
