<?xml version="1.0" encoding="utf-8"?>
<!-- Generator: Adobe Illustrator 17.0.0, SVG Export Plug-In . SVG Version: 6.00 Build 0)  -->
<!DOCTYPE svg PUBLIC "-//W3C//DTD SVG 1.1//EN" "http://www.w3.org/Graphics/SVG/1.1/DTD/svg11.dtd">
<svg version="1.1" id="Layer_2" xmlns="http://www.w3.org/2000/svg" xmlns:xlink="http://www.w3.org/1999/xlink" x="0px" y="0px"
	 width="48px" height="48px" viewBox="0 0 48 48" enable-background="new 0 0 48 48" xml:space="preserve">
<g>
	<path fill="#010101" d="M29,35c0,0.552-0.447,1-1,1h-8c-0.553,0-1-0.448-1-1v-5h-9v12h28V30h-9V35z"/>
	<path fill="#010101" d="M43,24h-1.076c-0.162-1.322-0.639-2.403-1.456-3.198c-1.604-1.559-4.201-1.835-6.716-1.816
		C32.053,14,26.041,14,24,14s-8.053,0-9.752,4.986c-2.497-0.026-5.112,0.257-6.716,1.816C6.715,21.598,6.238,22.678,6.076,24H5
		c-0.553,0-1,0.448-1,1v22c0,0.552,0.447,1,1,1h38c0.553,0,1-0.448,1-1V25C44,24.448,43.553,24,43,24z M8.927,22.236
		c1.244-1.211,3.883-1.298,6.045-1.237c0.01,0,0.019,0,0.028,0c0.466,0,0.872-0.323,0.976-0.78C16.635,17.302,19.109,16,24,16
		c4.891,0,7.365,1.302,8.024,4.22C32.128,20.677,32.534,21,33,21c0.009,0,0.019,0,0.028,0c2.16-0.063,4.8,0.026,6.045,1.237
		c0.442,0.43,0.715,1.017,0.841,1.764H8.086C8.212,23.253,8.485,22.666,8.927,22.236z M25,29v2c0,0.552-0.447,1-1,1
		c-0.553,0-1-0.448-1-1v-2c0-0.552,0.447-1,1-1C24.553,28,25,28.448,25,29z M40,43c0,0.552-0.447,1-1,1H9c-0.553,0-1-0.448-1-1V29
		c0-0.552,0.447-1,1-1h11c0.553,0,1,0.448,1,1v5h6v-5c0-0.552,0.447-1,1-1h11c0.553,0,1,0.448,1,1V43z"/>
	<path fill="#010101" d="M3,20H1c-0.553,0-1,0.448-1,1c0,0.552,0.447,1,1,1h2c0.553,0,1-0.448,1-1C4,20.448,3.553,20,3,20z"/>
	<path fill="#010101" d="M10.293,8.707C10.488,8.902,10.744,9,11,9c0.256,0,0.512-0.098,0.707-0.293
		c0.391-0.391,0.391-1.023,0-1.414l-2-2c-0.391-0.391-1.023-0.391-1.414,0c-0.391,0.391-0.391,1.023,0,1.414L10.293,8.707z"/>
	<path fill="#010101" d="M24,7c0.553,0,1-0.448,1-1V3c0-0.552-0.447-1-1-1c-0.553,0-1,0.448-1,1v3C23,6.552,23.447,7,24,7z"/>
	<path fill="#010101" d="M37,9c0.256,0,0.512-0.098,0.707-0.293l2-2c0.391-0.391,0.391-1.023,0-1.414
		c-0.391-0.391-1.023-0.391-1.414,0l-2,2c-0.391,0.391-0.391,1.023,0,1.414C36.488,8.902,36.744,9,37,9z"/>
	<path fill="#010101" d="M47,20h-2c-0.553,0-1,0.448-1,1c0,0.552,0.447,1,1,1h2c0.553,0,1-0.448,1-1C48,20.448,47.553,20,47,20z"/>
</g>
</svg>
