<?xml version="1.0" encoding="utf-8"?>
<!-- Generator: Adobe Illustrator 17.0.0, SVG Export Plug-In . SVG Version: 6.00 Build 0)  -->
<!DOCTYPE svg PUBLIC "-//W3C//DTD SVG 1.1//EN" "http://www.w3.org/Graphics/SVG/1.1/DTD/svg11.dtd">
<svg version="1.1" id="Layer_2" xmlns="http://www.w3.org/2000/svg" xmlns:xlink="http://www.w3.org/1999/xlink" x="0px" y="0px"
	 width="48px" height="48px" viewBox="0 0 48 48" enable-background="new 0 0 48 48" xml:space="preserve">
<path fill="#010101" d="M39.864,45.464l-6.911-17.773c-0.443-1.642-1.842-2.699-3.58-2.699c-1.131,0-2.253,0.474-3.08,1.301
	L23.5,29.085l-3.157-3.158l9.192-9.191c0.188-0.188,0.293-0.442,0.293-0.707c0-0.265-0.105-0.519-0.293-0.707l-3.637-3.637
	c0.358-0.611,0.567-1.307,0.567-2.02c0-1.052-0.427-2.082-1.171-2.828l-5.659-5.659c-1.511-1.51-4.145-1.509-5.655,0
	c-0.745,0.745-1.172,1.775-1.172,2.828c0,1.068,0.416,2.073,1.172,2.828l5.658,5.658c0.755,0.756,1.76,1.173,2.828,1.173
	c0.724,0,1.412-0.206,2.02-0.565l2.927,2.927l-9.192,9.191c-0.391,0.39-0.391,1.023,0,1.414l3.864,3.865l-2.794,2.794
	c-1.097,1.099-1.539,2.67-1.152,4.1c0.343,1.27,1.27,2.2,2.547,2.558l17.951,6.981C38.755,46.978,38.878,47,39,47
	c0.007,0,0.012,0,0.019,0c0.553,0,1-0.448,1-1C40.019,45.803,39.963,45.619,39.864,45.464z"/>
</svg>
