<?xml version="1.0" encoding="utf-8"?>
<!-- Generator: Adobe Illustrator 17.0.0, SVG Export Plug-In . SVG Version: 6.00 Build 0)  -->
<!DOCTYPE svg PUBLIC "-//W3C//DTD SVG 1.1//EN" "http://www.w3.org/Graphics/SVG/1.1/DTD/svg11.dtd">
<svg version="1.1" id="Layer_2" xmlns="http://www.w3.org/2000/svg" xmlns:xlink="http://www.w3.org/1999/xlink" x="0px" y="0px"
	 width="48px" height="48px" viewBox="0 0 48 48" enable-background="new 0 0 48 48" xml:space="preserve">
<path fill="#010101" d="M43.779,29.767c0.544-2.246,0.101-4.572-1.263-6.485c-1.501-2.107-3.926-3.366-6.488-3.366
	c-0.014,0-0.026,0-0.04,0.001c-2.007-4.815-6.732-8-11.988-8c-6.845,0-12.471,5.317-12.965,12.038C4.868,24.448,0,29.638,0,35.945
	c0,6.633,5.383,12.029,12,12.029h26c5.514,0,10-4.499,10-10.029C48,34.699,46.4,31.634,43.779,29.767z"/>
</svg>
