<?xml version="1.0" encoding="utf-8"?>
<!-- Generator: Adobe Illustrator 17.0.0, SVG Export Plug-In . SVG Version: 6.00 Build 0)  -->
<!DOCTYPE svg PUBLIC "-//W3C//DTD SVG 1.1//EN" "http://www.w3.org/Graphics/SVG/1.1/DTD/svg11.dtd">
<svg version="1.1" id="Layer_2" xmlns="http://www.w3.org/2000/svg" xmlns:xlink="http://www.w3.org/1999/xlink" x="0px" y="0px"
	 width="48px" height="48px" viewBox="0 0 48 48" enable-background="new 0 0 48 48" xml:space="preserve">
<g>
	<path fill="#010101" d="M18.706,36.252c-0.391-0.389-1.024-0.39-1.414,0.002l-5,5.015c-0.285,0.286-0.37,0.716-0.216,1.09
		c0.155,0.373,0.52,0.616,0.924,0.616h2.576l-3.281,3.262c-0.392,0.39-0.394,1.022-0.004,1.414c0.195,0.196,0.452,0.295,0.709,0.295
		c0.255,0,0.51-0.097,0.705-0.291l5-4.971c0.287-0.285,0.374-0.716,0.22-1.09c-0.155-0.375-0.52-0.619-0.925-0.619h-2.591
		l3.299-3.309C19.098,37.275,19.098,36.642,18.706,36.252z"/>
	<path fill="#010101" d="M28.706,36.252c-0.391-0.389-1.024-0.39-1.414,0.002l-5,5.015c-0.285,0.286-0.37,0.716-0.216,1.09
		c0.155,0.373,0.52,0.616,0.924,0.616h2.576l-3.281,3.262c-0.392,0.39-0.393,1.022-0.004,1.414c0.195,0.196,0.452,0.295,0.709,0.295
		c0.255,0,0.51-0.097,0.705-0.291l5-4.971c0.287-0.285,0.374-0.716,0.22-1.09c-0.155-0.375-0.52-0.619-0.925-0.619h-2.591
		l3.299-3.309C29.098,37.275,29.098,36.642,28.706,36.252z"/>
	<path fill="#010101" d="M38.706,36.252c-0.391-0.389-1.023-0.39-1.414,0.002l-5,5.015c-0.285,0.286-0.37,0.716-0.216,1.09
		c0.155,0.373,0.52,0.616,0.924,0.616h2.576l-3.281,3.262c-0.392,0.39-0.394,1.022-0.004,1.414c0.195,0.196,0.452,0.295,0.709,0.295
		c0.255,0,0.51-0.097,0.705-0.291l5-4.971c0.287-0.285,0.374-0.716,0.22-1.09c-0.155-0.375-0.519-0.619-0.925-0.619h-2.591
		l3.299-3.309C39.098,37.275,39.098,36.642,38.706,36.252z"/>
	<path fill="#010101" d="M44.698,16.01c0.602-1.974,0.303-4.116-0.848-5.87c-1.322-2.017-3.542-3.237-5.95-3.161
		C35.962,2.76,31.672-0.025,27-0.025c-5.899,0-10.956,4.4-11.853,10.158C9.879,11.017,6,15.542,6,20.975c0,6.065,4.935,11,11,11h22
		c4.963,0,9-4.037,9-9C48,20.264,46.778,17.714,44.698,16.01z"/>
</g>
</svg>
