<?xml version="1.0" encoding="utf-8"?>
<!-- Generator: Adobe Illustrator 17.0.0, SVG Export Plug-In . SVG Version: 6.00 Build 0)  -->
<!DOCTYPE svg PUBLIC "-//W3C//DTD SVG 1.1//EN" "http://www.w3.org/Graphics/SVG/1.1/DTD/svg11.dtd">
<svg version="1.1" id="Layer_2" xmlns="http://www.w3.org/2000/svg" xmlns:xlink="http://www.w3.org/1999/xlink" x="0px" y="0px"
	 width="48px" height="48px" viewBox="0 0 48 48" enable-background="new 0 0 48 48" xml:space="preserve">
<g>
	<path fill="#010101" d="M44.698,16.01c0.602-1.974,0.303-4.116-0.848-5.87c-1.299-1.98-3.475-3.162-5.819-3.162
		c-0.043,0-0.087,0-0.131,0.001C35.962,2.76,31.672-0.025,27-0.025c-5.899,0-10.956,4.4-11.853,10.158
		C9.879,11.017,6,15.542,6,20.975c0,6.065,4.935,11,11,11h22c4.963,0,9-4.037,9-9C48,20.264,46.778,17.714,44.698,16.01z"/>
	<path fill="#010101" d="M34.293,36.272l-7.779,7.778c-0.165-0.044-0.335-0.075-0.514-0.075c-1.103,0-2,0.897-2,2
		c0,1.102,0.897,2,2,2c1.102,0,2-0.898,2-2c0-0.177-0.03-0.345-0.074-0.508l7.781-7.781c0.391-0.391,0.391-1.023,0-1.414
		C35.316,35.881,34.684,35.881,34.293,36.272z"/>
	<path fill="#010101" d="M25.707,37.686c0.391-0.391,0.391-1.023,0-1.414c-0.391-0.391-1.023-0.391-1.414,0l-5.779,5.778
		c-0.165-0.044-0.335-0.075-0.514-0.075c-1.103,0-2,0.897-2,2c0,1.102,0.897,2,2,2c1.102,0,2-0.898,2-2
		c0-0.177-0.03-0.345-0.074-0.508L25.707,37.686z"/>
	<path fill="#010101" d="M15.707,36.272c-0.391-0.391-1.023-0.391-1.414,0L6.514,44.05C6.349,44.006,6.179,43.975,6,43.975
		c-1.103,0-2,0.897-2,2c0,1.102,0.897,2,2,2c1.102,0,2-0.898,2-2c0-0.177-0.03-0.345-0.074-0.508l7.781-7.781
		C16.098,37.295,16.098,36.662,15.707,36.272z"/>
</g>
</svg>
