<?xml version="1.0" encoding="utf-8"?>
<!-- Generator: Adobe Illustrator 17.0.0, SVG Export Plug-In . SVG Version: 6.00 Build 0)  -->
<!DOCTYPE svg PUBLIC "-//W3C//DTD SVG 1.1//EN" "http://www.w3.org/Graphics/SVG/1.1/DTD/svg11.dtd">
<svg version="1.1" id="Layer_2" xmlns="http://www.w3.org/2000/svg" xmlns:xlink="http://www.w3.org/1999/xlink" x="0px" y="0px"
	 width="48px" height="48px" viewBox="0 0 48 48" enable-background="new 0 0 48 48" xml:space="preserve">
<g>
	<path fill="#010101" d="M26,40.975h-2.591l3.299-3.309c0.39-0.391,0.39-1.024-0.002-1.414c-0.391-0.389-1.024-0.39-1.414,0.002
		l-5,5.015c-0.285,0.286-0.37,0.716-0.216,1.09c0.155,0.373,0.519,0.616,0.924,0.616h2.576l-3.281,3.262
		c-0.392,0.39-0.394,1.022-0.004,1.414c0.195,0.196,0.452,0.295,0.709,0.295c0.255,0,0.51-0.097,0.705-0.291l5-4.971
		c0.287-0.285,0.374-0.716,0.22-1.09C26.769,41.219,26.405,40.975,26,40.975z"/>
	<path fill="#010101" d="M37.293,36.209l-10,10c-0.391,0.391-0.391,1.023,0,1.414c0.195,0.195,0.451,0.293,0.707,0.293
		c0.256,0,0.512-0.098,0.707-0.293l10-10c0.391-0.391,0.391-1.023,0-1.414C38.316,35.818,37.684,35.818,37.293,36.209z"/>
	<path fill="#010101" d="M17.293,36.209l-10,10c-0.391,0.391-0.391,1.023,0,1.414C7.488,47.818,7.744,47.916,8,47.916
		c0.256,0,0.512-0.098,0.707-0.293l10-10c0.391-0.391,0.391-1.023,0-1.414C18.316,35.818,17.684,35.818,17.293,36.209z"/>
	<path fill="#010101" d="M44.698,16.01c0.602-1.974,0.303-4.116-0.848-5.87c-1.299-1.98-3.475-3.162-5.819-3.162
		c-0.043,0-0.087,0-0.131,0.001C35.962,2.76,31.672-0.025,27-0.025c-5.899,0-10.956,4.4-11.853,10.158
		C9.879,11.017,6,15.542,6,20.975c0,6.065,4.935,11,11,11h22c4.963,0,9-4.037,9-9C48,20.264,46.778,17.714,44.698,16.01z"/>
</g>
</svg>
