<?xml version="1.0" encoding="utf-8"?>
<!-- Generator: Adobe Illustrator 17.0.0, SVG Export Plug-In . SVG Version: 6.00 Build 0)  -->
<!DOCTYPE svg PUBLIC "-//W3C//DTD SVG 1.1//EN" "http://www.w3.org/Graphics/SVG/1.1/DTD/svg11.dtd">
<svg version="1.1" id="Layer_2" xmlns="http://www.w3.org/2000/svg" xmlns:xlink="http://www.w3.org/1999/xlink" x="0px" y="0px"
	 width="48px" height="48px" viewBox="0 0 48 48" enable-background="new 0 0 48 48" xml:space="preserve">
<g>
	<path fill="#010101" d="M44.698,16.01c0.602-1.974,0.303-4.116-0.848-5.87c-1.299-1.98-3.475-3.162-5.819-3.162
		c-0.043,0-0.087,0-0.131,0.001C35.962,2.76,31.672-0.025,27-0.025c-5.899,0-10.956,4.4-11.853,10.158
		C9.879,11.017,6,15.542,6,20.975c0,6.065,4.935,11,11,11h22c4.963,0,9-4.037,9-9C48,20.264,46.778,17.714,44.698,16.01z"/>
	<circle fill="#010101" cx="27" cy="36.975" r="1"/>
	<circle fill="#010101" cx="39" cy="39.975" r="1"/>
	<circle fill="#010101" cx="39" cy="45.975" r="1"/>
	<circle fill="#010101" cx="27" cy="42.975" r="1"/>
	<circle fill="#010101" cx="35" cy="42.975" r="1"/>
	<circle fill="#010101" cx="31" cy="45.975" r="1"/>
	<circle fill="#010101" cx="35" cy="36.975" r="1"/>
	<circle fill="#010101" cx="31" cy="39.975" r="1"/>
	<circle fill="#010101" cx="23" cy="39.975" r="1"/>
	<circle fill="#010101" cx="23" cy="45.975" r="1"/>
	<circle fill="#010101" cx="19" cy="42.975" r="1"/>
	<circle fill="#010101" cx="15" cy="45.975" r="1"/>
	<circle fill="#010101" cx="19" cy="36.975" r="1"/>
	<circle fill="#010101" cx="15" cy="39.975" r="1"/>
</g>
</svg>
