<?xml version="1.0" encoding="utf-8"?>
<!-- Generator: Adobe Illustrator 17.0.0, SVG Export Plug-In . SVG Version: 6.00 Build 0)  -->
<!DOCTYPE svg PUBLIC "-//W3C//DTD SVG 1.1//EN" "http://www.w3.org/Graphics/SVG/1.1/DTD/svg11.dtd">
<svg version="1.1" id="Layer_2" xmlns="http://www.w3.org/2000/svg" xmlns:xlink="http://www.w3.org/1999/xlink" x="0px" y="0px"
	 width="48px" height="48px" viewBox="0 0 48 48" enable-background="new 0 0 48 48" xml:space="preserve">
<g>
	<path fill="#010101" d="M19,3.975c0.553,0,1-0.447,1-1v-2c0-0.553-0.447-1-1-1s-1,0.447-1,1v2C18,3.527,18.447,3.975,19,3.975z"/>
	<path fill="#010101" d="M7.001,7.92c0.256,0,0.512-0.098,0.707-0.293c0.391-0.391,0.391-1.023,0-1.414l-2-2
		c-0.391-0.391-1.023-0.391-1.414,0c-0.391,0.391-0.391,1.023,0,1.414l2,2C6.489,7.822,6.745,7.92,7.001,7.92z"/>
	<path fill="#010101" d="M31.001,7.92c0.256,0,0.512-0.098,0.707-0.293l2-2c0.391-0.391,0.391-1.023,0-1.414s-1.023-0.391-1.414,0
		l-2,2c-0.391,0.391-0.391,1.023,0,1.414C30.489,7.822,30.745,7.92,31.001,7.92z"/>
	<path fill="#010101" d="M3,17.975H1c-0.553,0-1,0.447-1,1s0.447,1,1,1h2c0.553,0,1-0.447,1-1S3.553,17.975,3,17.975z"/>
	<path fill="#010101" d="M13.456,24.405c1.594-6.114,7.192-10.489,13.545-10.489c1.447,0,2.869,0.24,4.223,0.679
		C29.421,9.578,24.629,5.975,19,5.975c-7.168,0-13,5.832-13,13c0,2.977,1.016,5.714,2.706,7.908
		C10.068,25.759,11.672,24.903,13.456,24.405z"/>
	<path fill="#010101" d="M47.947,37.977c-0.015-0.141-0.044-0.279-0.065-0.418c-0.027-0.175-0.051-0.351-0.088-0.523
		c-0.037-0.17-0.086-0.336-0.132-0.503c-0.038-0.138-0.073-0.276-0.117-0.412c-0.057-0.173-0.124-0.341-0.191-0.51
		c-0.05-0.126-0.098-0.253-0.154-0.377c-0.073-0.163-0.155-0.322-0.238-0.48c-0.066-0.126-0.131-0.252-0.203-0.374
		c-0.085-0.146-0.176-0.288-0.269-0.428c-0.086-0.13-0.174-0.259-0.267-0.385c-0.092-0.125-0.188-0.247-0.287-0.368
		c-0.109-0.133-0.223-0.263-0.34-0.39c-0.098-0.106-0.197-0.21-0.3-0.311c-0.192-0.189-0.388-0.376-0.598-0.548
		c0.067-0.219,0.118-0.441,0.163-0.663c0.019-0.094,0.031-0.187,0.046-0.281c0.024-0.153,0.047-0.306,0.061-0.46
		c0.008-0.084,0.012-0.169,0.016-0.253c0.009-0.167,0.014-0.334,0.011-0.5c-0.001-0.072-0.004-0.144-0.008-0.216
		c-0.009-0.179-0.024-0.358-0.047-0.536c-0.008-0.062-0.016-0.125-0.025-0.187c-0.028-0.184-0.066-0.367-0.109-0.549
		c-0.014-0.058-0.026-0.117-0.042-0.175c-0.048-0.182-0.107-0.362-0.17-0.54c-0.02-0.057-0.037-0.114-0.059-0.171
		c-0.069-0.181-0.15-0.358-0.235-0.533c-0.024-0.05-0.045-0.102-0.07-0.152c-0.114-0.222-0.239-0.44-0.377-0.651
		c-0.163-0.248-0.34-0.482-0.528-0.705c-0.026-0.031-0.056-0.058-0.083-0.089c-0.165-0.188-0.336-0.368-0.517-0.535
		c-0.041-0.038-0.086-0.071-0.128-0.109c-0.171-0.15-0.347-0.294-0.53-0.427c-0.062-0.044-0.126-0.084-0.189-0.126
		c-0.165-0.111-0.334-0.217-0.507-0.313c-0.093-0.051-0.188-0.098-0.283-0.144c-0.144-0.071-0.29-0.139-0.439-0.2
		c-0.13-0.053-0.261-0.101-0.394-0.146c-0.117-0.04-0.235-0.076-0.354-0.109c-0.161-0.045-0.323-0.085-0.488-0.118
		c-0.1-0.02-0.201-0.036-0.303-0.052c-0.172-0.027-0.345-0.049-0.521-0.063c-0.227-0.017-0.454-0.033-0.684-0.027
		c-0.091-0.199-0.192-0.392-0.292-0.584c-2.063-3.901-6.218-6.42-10.609-6.42c-5.625,0-10.56,4.003-11.733,9.518
		c-0.081,0.381-0.376,0.681-0.756,0.767c-1.686,0.385-3.195,1.147-4.463,2.178c0.001,0.001,0.002,0.001,0.003,0.002
		c-0.023,0.019-0.048,0.035-0.071,0.054c-0.025,0.021-0.05,0.041-0.074,0.061c-0.22,0.185-0.432,0.378-0.636,0.58
		c-0.017,0.017-0.034,0.033-0.051,0.05c-0.206,0.206-0.403,0.42-0.592,0.642c-0.015,0.018-0.03,0.035-0.045,0.052
		c-0.185,0.22-0.36,0.448-0.527,0.682c-0.017,0.024-0.035,0.048-0.052,0.072c-0.16,0.227-0.309,0.462-0.452,0.701
		c-0.021,0.035-0.043,0.068-0.063,0.104c-0.133,0.229-0.255,0.465-0.371,0.704c-0.024,0.049-0.05,0.096-0.073,0.146
		c-0.106,0.226-0.201,0.459-0.292,0.694c-0.025,0.065-0.054,0.129-0.078,0.196c-0.081,0.221-0.15,0.449-0.217,0.677
		c-0.024,0.082-0.052,0.162-0.074,0.244c-0.059,0.219-0.105,0.443-0.151,0.667c-0.019,0.094-0.043,0.186-0.06,0.281
		c-0.041,0.229-0.067,0.463-0.094,0.696c-0.01,0.091-0.027,0.181-0.035,0.273c-0.029,0.326-0.044,0.656-0.044,0.989
		c0,6.082,4.935,11.029,11,11.029h22c4.963,0,9-4.051,9-9.029C48.001,38.62,47.981,38.297,47.947,37.977z"/>
</g>
</svg>
