<?xml version="1.0" encoding="utf-8"?>
<!-- Generator: Adobe Illustrator 17.0.0, SVG Export Plug-In . SVG Version: 6.00 Build 0)  -->
<!DOCTYPE svg PUBLIC "-//W3C//DTD SVG 1.1//EN" "http://www.w3.org/Graphics/SVG/1.1/DTD/svg11.dtd">
<svg version="1.1" id="Layer_2" xmlns="http://www.w3.org/2000/svg" xmlns:xlink="http://www.w3.org/1999/xlink" x="0px" y="0px"
	 width="48px" height="48px" viewBox="0 0 48 48" enable-background="new 0 0 48 48" xml:space="preserve">
<g>
	<path fill="#010101" d="M24.001,7.941c-8.822,0-16,7.178-16,16s7.178,16,16,16c8.822,0,16-7.178,16-16S32.823,7.941,24.001,7.941z"
		/>
	<path fill="#010101" d="M24,42c-0.553,0-1,0.447-1,1v4c0,0.553,0.447,1,1,1c0.553,0,1-0.447,1-1v-4C25,42.447,24.553,42,24,42z"/>
	<path fill="#010101" d="M38.708,37.234c-0.391-0.391-1.023-0.391-1.414,0c-0.391,0.391-0.391,1.023,0,1.414l3,3
		c0.195,0.195,0.451,0.293,0.707,0.293c0.256,0,0.512-0.098,0.707-0.293c0.391-0.391,0.391-1.023,0-1.414L38.708,37.234z"/>
	<path fill="#010101" d="M47,23h-4c-0.553,0-1,0.447-1,1s0.447,1,1,1h4c0.553,0,1-0.447,1-1S47.553,23,47,23z"/>
	<path fill="#010101" d="M38.001,10.941c0.256,0,0.512-0.098,0.707-0.293l3-3c0.391-0.391,0.391-1.023,0-1.414
		c-0.391-0.391-1.023-0.391-1.414,0l-3,3c-0.391,0.391-0.391,1.023,0,1.414C37.489,10.844,37.745,10.941,38.001,10.941z"/>
	<path fill="#010101" d="M24,6c0.552,0,1-0.447,1-1l0.001-4c0-0.552-0.447-1-1-1c-0.552,0-1,0.447-1,1L23,5C23,5.552,23.447,6,24,6z
		"/>
	<path fill="#010101" d="M9.294,10.648c0.195,0.195,0.451,0.293,0.707,0.293c0.256,0,0.512-0.098,0.707-0.293
		c0.391-0.391,0.391-1.023,0-1.414l-3-3c-0.391-0.391-1.023-0.391-1.414,0c-0.391,0.391-0.391,1.023,0,1.414L9.294,10.648z"/>
	<path fill="#010101" d="M5,23H1c-0.553,0-1,0.447-1,1s0.447,1,1,1h4c0.553,0,1-0.447,1-1S5.553,23,5,23z"/>
	<path fill="#010101" d="M9.294,37.234l-3,3c-0.391,0.391-0.391,1.023,0,1.414c0.195,0.195,0.451,0.293,0.707,0.293
		c0.256,0,0.512-0.098,0.707-0.293l3-3c0.391-0.391,0.391-1.023,0-1.414C10.317,36.844,9.685,36.844,9.294,37.234z"/>
</g>
</svg>
