<?xml version="1.0" encoding="utf-8"?>
<!-- Generator: Adobe Illustrator 17.0.0, SVG Export Plug-In . SVG Version: 6.00 Build 0)  -->
<!DOCTYPE svg PUBLIC "-//W3C//DTD SVG 1.1//EN" "http://www.w3.org/Graphics/SVG/1.1/DTD/svg11.dtd">
<svg version="1.1" id="Layer_2" xmlns="http://www.w3.org/2000/svg" xmlns:xlink="http://www.w3.org/1999/xlink" x="0px" y="0px"
	 width="48px" height="48px" viewBox="0 0 48 48" enable-background="new 0 0 48 48" xml:space="preserve">
<path fill="#010101" d="M28,31.502V4.975c0-2.757-2.243-5-5-5c-2.757,0-5,2.243-5,5v26.527c-2.481,1.663-4,4.475-4,7.473
	c0,4.963,4.037,9,9,9c4.963,0,9-4.037,9-9C32,35.977,30.481,33.165,28,31.502z M23,41.975c-1.654,0-3-1.346-3-3
	c0-1.302,0.838-2.402,2-2.816V14.975c0-0.553,0.447-1,1-1c0.553,0,1,0.447,1,1v21.184c1.161,0.414,2,1.514,2,2.816
	C26,40.629,24.654,41.975,23,41.975z"/>
</svg>
