<?xml version="1.0" encoding="utf-8"?>
<!-- Generator: Adobe Illustrator 17.0.0, SVG Export Plug-In . SVG Version: 6.00 Build 0)  -->
<!DOCTYPE svg PUBLIC "-//W3C//DTD SVG 1.1//EN" "http://www.w3.org/Graphics/SVG/1.1/DTD/svg11.dtd">
<svg version="1.1" id="Layer_2" xmlns="http://www.w3.org/2000/svg" xmlns:xlink="http://www.w3.org/1999/xlink" x="0px" y="0px"
	 width="48px" height="48px" viewBox="0 0 48 48" enable-background="new 0 0 48 48" xml:space="preserve">
<path fill="#010101" d="M41.341,12.162c-4.342-4.539-10.116-7.136-16.348-7.387V1.75c0-0.553-0.447-1-1-1s-1,0.447-1,1v3.025
	c-6.229,0.253-12,2.85-16.34,7.387c-4.566,4.772-6.921,11.034-6.629,17.632c0.023,0.535,0.465,0.951,0.999,0.951
	c0.005,0,0.011,0,0.017,0c0.541-0.009,0.978-0.452,0.983-0.993c0.004-0.308,0.145-3.002,3.973-3.002c4.119,0,4.996,3.117,5.03,3.242
	c0.111,0.445,0.511,0.758,0.97,0.758c0.459,0,0.858-0.312,0.97-0.758c0.009-0.032,0.859-3.242,5.03-3.242
	c3.757,0,4.814,2.586,4.997,3.137V44.75c0,2.134,1.761,3.25,3.5,3.25s3.5-1.116,3.5-3.25c0-0.553-0.447-1-1-1s-1,0.447-1,1
	c0,1.215-1.347,1.25-1.5,1.25c-0.153,0-1.5-0.035-1.5-1.25V30.016c0.421-0.711,2.133-3.266,5.003-3.266
	c3.316,0,5.09,3.415,5.105,3.447c0.169,0.338,0.515,0.55,0.893,0.552c0.376-0.006,0.725-0.213,0.895-0.549
	c0.018-0.035,1.791-3.45,5.107-3.45c3.135,0,3.965,3.089,4.004,3.24c0.111,0.449,0.515,0.76,0.97,0.76
	c0.032,0,0.065-0.002,0.099-0.005c0.495-0.048,0.879-0.454,0.901-0.951C48.261,23.197,45.907,16.935,41.341,12.162z"/>
</svg>
