<?xml version="1.0" encoding="utf-8"?>
<!-- Generator: Adobe Illustrator 17.0.0, SVG Export Plug-In . SVG Version: 6.00 Build 0)  -->
<!DOCTYPE svg PUBLIC "-//W3C//DTD SVG 1.1//EN" "http://www.w3.org/Graphics/SVG/1.1/DTD/svg11.dtd">
<svg version="1.1" id="Layer_2" xmlns="http://www.w3.org/2000/svg" xmlns:xlink="http://www.w3.org/1999/xlink" x="0px" y="0px"
	 width="48px" height="48px" viewBox="0 0 48 48" enable-background="new 0 0 48 48" xml:space="preserve">
<path fill="#010101" d="M27.09,45.969C19.138,42.118,14,33.505,14,24.025c0-9.48,5.138-18.093,13.09-21.941
	c0.4-0.194,0.625-0.629,0.551-1.067c-0.074-0.438-0.429-0.774-0.87-0.826C25.831,0.081,24.899,0.025,24,0.025
	c-13.233,0-24,10.767-24,24c0,13.233,10.767,24,24,24c0.893,0,1.823-0.055,2.768-0.163c0.442-0.05,0.798-0.387,0.872-0.825
	C27.715,46.599,27.49,46.163,27.09,45.969z"/>
</svg>
