<?xml version="1.0" encoding="utf-8"?>
<!-- Generator: Adobe Illustrator 17.0.0, SVG Export Plug-In . SVG Version: 6.00 Build 0)  -->
<!DOCTYPE svg PUBLIC "-//W3C//DTD SVG 1.1//EN" "http://www.w3.org/Graphics/SVG/1.1/DTD/svg11.dtd">
<svg version="1.1" id="Layer_2" xmlns="http://www.w3.org/2000/svg" xmlns:xlink="http://www.w3.org/1999/xlink" x="0px" y="0px"
	 width="48px" height="48px" viewBox="0 0 48 48" enable-background="new 0 0 48 48" xml:space="preserve">
<path fill="#010101" d="M24,0.025c-0.898,0-1.831,0.056-2.772,0.165c-0.442,0.051-0.797,0.388-0.871,0.826
	c-0.074,0.438,0.15,0.873,0.551,1.067C28.861,5.932,34,14.545,34,24.025s-5.139,18.094-13.092,21.943
	c-0.4,0.194-0.625,0.63-0.55,1.068c0.074,0.438,0.43,0.775,0.872,0.825c0.946,0.108,1.878,0.163,2.77,0.163
	c13.233,0,24-10.767,24-24C48,10.792,37.233,0.025,24,0.025z"/>
</svg>
