<?xml version="1.0" encoding="utf-8"?>
<!-- Generator: Adobe Illustrator 17.0.0, SVG Export Plug-In . SVG Version: 6.00 Build 0)  -->
<!DOCTYPE svg PUBLIC "-//W3C//DTD SVG 1.1//EN" "http://www.w3.org/Graphics/SVG/1.1/DTD/svg11.dtd">
<svg version="1.1" id="Layer_1" xmlns="http://www.w3.org/2000/svg" xmlns:xlink="http://www.w3.org/1999/xlink" x="0px" y="0px"
	 width="60px" height="60px" viewBox="0 0 60 60" enable-background="new 0 0 60 60" xml:space="preserve">
<g>
	<path fill="#010101" d="M29,4C14.981,4,4,8.831,4,15v30c0,6.169,10.981,11,25,11s25-4.831,25-11V15C54,8.831,43.019,4,29,4z M29,6
		c13.758,0,23,4.654,23,9s-9.242,9-23,9S6,19.346,6,15S15.242,6,29,6z M6,29.385C9.78,33.311,18.544,36,29,36s19.22-2.689,23-6.615
		V35c0,4.346-9.242,9-23,9S6,39.346,6,35V29.385z M29,34c-13.758,0-23-4.654-23-9v-5.615C9.78,23.311,18.544,26,29,26
		s19.22-2.689,23-6.615V25C52,29.346,42.758,34,29,34z M29,54c-13.758,0-23-4.654-23-9v-5.615C9.78,43.311,18.544,46,29,46
		s19.22-2.689,23-6.615V45C52,49.346,42.758,54,29,54z"/>
</g>
</svg>
