<?xml version="1.0" encoding="utf-8"?>
<!-- Generator: Adobe Illustrator 17.0.0, SVG Export Plug-In . SVG Version: 6.00 Build 0)  -->
<!DOCTYPE svg PUBLIC "-//W3C//DTD SVG 1.1//EN" "http://www.w3.org/Graphics/SVG/1.1/DTD/svg11.dtd">
<svg version="1.1" id="Layer_1" xmlns="http://www.w3.org/2000/svg" xmlns:xlink="http://www.w3.org/1999/xlink" x="0px" y="0px"
	 width="60px" height="60px" viewBox="0 0 60 60" enable-background="new 0 0 60 60" xml:space="preserve">
<g>
	<path fill="#010101" d="M59,38h-3v-1c0-4.962-4.037-9-9-9s-9,4.038-9,9v1h-3c-0.553,0-1,0.448-1,1v20c0,0.552,0.447,1,1,1h24
		c0.553,0,1-0.448,1-1V39C60,38.448,59.553,38,59,38z M40,37c0-3.86,3.141-7,7-7c3.859,0,7,3.14,7,7v1H40V37z M58,58H36V40h22V58z"
		/>
	<path fill="#010101" d="M47,44c-1.654,0-3,1.346-3,3c0,1.302,0.839,2.402,2,2.816V53c0,0.552,0.447,1,1,1c0.553,0,1-0.448,1-1
		v-3.184c1.161-0.414,2-1.514,2-2.816C50,45.346,48.654,44,47,44z M47,48c-0.552,0-1-0.449-1-1s0.448-1,1-1c0.552,0,1,0.449,1,1
		S47.552,48,47,48z"/>
	<path fill="#010101" d="M31.789,29.587C29.602,29.861,27.318,30,25,30c-13.758,0-23-4.654-23-9v-5.615C5.78,19.311,14.544,22,25,22
		c10.456,0,19.22-2.689,23-6.615V21c0,0.552,0.447,1,1,1c0.553,0,1-0.448,1-1V11C50,4.831,39.019,0,25,0C10.981,0,0,4.831,0,11v30
		c0,6.169,10.981,11,25,11c0.553,0,1-0.448,1-1s-0.447-1-1-1c-13.758,0-23-4.654-23-9v-5.615C5.78,39.311,14.544,42,25,42
		c0.553,0,1-0.448,1-1s-0.447-1-1-1c-13.758,0-23-4.654-23-9v-5.615C5.78,29.311,14.544,32,25,32c2.401,0,4.769-0.144,7.037-0.429
		c0.549-0.069,0.936-0.569,0.868-1.117C32.836,29.907,32.338,29.518,31.789,29.587z M25,2c13.758,0,23,4.654,23,9s-9.242,9-23,9
		c-13.758,0-23-4.654-23-9S11.242,2,25,2z"/>
</g>
</svg>
