<?xml version="1.0" encoding="utf-8"?>
<!-- Generator: Adobe Illustrator 17.0.0, SVG Export Plug-In . SVG Version: 6.00 Build 0)  -->
<!DOCTYPE svg PUBLIC "-//W3C//DTD SVG 1.1//EN" "http://www.w3.org/Graphics/SVG/1.1/DTD/svg11.dtd">
<svg version="1.1" id="Layer_1" xmlns="http://www.w3.org/2000/svg" xmlns:xlink="http://www.w3.org/1999/xlink" x="0px" y="0px"
	 width="60px" height="60px" viewBox="0 0 60 60" enable-background="new 0 0 60 60" xml:space="preserve">
<g>
	<path fill="#010101" d="M59,36c-0.553,0-1,0.448-1,1v3.612C55.724,36.585,51.419,34,46.683,34c-5.5,0-10.427,3.482-12.26,8.665
		c-0.185,0.521,0.088,1.092,0.609,1.276c0.518,0.184,1.092-0.089,1.275-0.609C37.859,38.946,42.028,36,46.683,36
		c4.165,0,7.934,2.362,9.794,6H53c-0.553,0-1,0.448-1,1c0,0.552,0.447,1,1,1h4.997c0.001,0,0.002,0,0.003,0c0.001,0,0.002,0,0.003,0
		H60v-7C60,36.447,59.553,36,59,36z"/>
	<path fill="#010101" d="M58.165,48.013c-0.545-0.09-1.06,0.277-1.151,0.821C56.124,54.146,51.561,58,46.166,58
		c-4.991,0-9.263-3.302-10.581-8.001H39c0.553,0,1-0.448,1-1c0-0.552-0.447-1-1-1h-7v7c0,0.552,0.447,1,1,1c0.553,0,1-0.448,1-1
		v-3.414C35.867,56.58,40.645,60,46.166,60c6.376,0,11.769-4.557,12.82-10.836C59.077,48.62,58.71,48.104,58.165,48.013z"/>
	<path fill="#010101" d="M25,42c0.553,0,1-0.448,1-1c0-0.552-0.447-1-1-1c-13.758,0-23-4.654-23-9v-5.615
		C5.78,29.311,14.544,32,25,32c2.4,0,4.768-0.144,7.037-0.429c0.548-0.069,0.936-0.568,0.868-1.117
		c-0.068-0.547-0.565-0.937-1.116-0.868C29.602,29.86,27.317,30,25,30c-13.758,0-23-4.654-23-9v-5.615C5.78,19.311,14.544,22,25,22
		s19.22-2.689,23-6.615V21c0,0.552,0.447,1,1,1c0.553,0,1-0.448,1-1V11C50,4.831,39.019,0,25,0S0,4.831,0,11v30
		c0,6.169,10.981,11,25,11c0.553,0,1-0.448,1-1c0-0.552-0.447-1-1-1c-13.758,0-23-4.654-23-9v-5.615C5.78,39.311,14.544,42,25,42z
		 M25,2c13.758,0,23,4.654,23,9s-9.242,9-23,9S2,15.346,2,11S11.242,2,25,2z"/>
</g>
</svg>
