<?xml version="1.0" encoding="utf-8"?>
<!-- Generator: Adobe Illustrator 17.0.0, SVG Export Plug-In . SVG Version: 6.00 Build 0)  -->
<!DOCTYPE svg PUBLIC "-//W3C//DTD SVG 1.1//EN" "http://www.w3.org/Graphics/SVG/1.1/DTD/svg11.dtd">
<svg version="1.1" id="Layer_1" xmlns="http://www.w3.org/2000/svg" xmlns:xlink="http://www.w3.org/1999/xlink" x="0px" y="0px"
	 width="60px" height="60px" viewBox="0 0 60 60" enable-background="new 0 0 60 60" xml:space="preserve">
<g>
	<path fill="#010101" d="M51.448,50.034C53.039,48.126,54,45.673,54,43c0-6.065-4.935-11-11-11c-6.065,0-11,4.935-11,11
		c0,6.065,4.935,11,11,11c2.673,0,5.125-0.961,7.034-2.552l8.259,8.259C58.488,59.902,58.744,60,59,60
		c0.256,0,0.512-0.098,0.707-0.293c0.391-0.391,0.391-1.023,0-1.414L51.448,50.034z M34,43c0-4.962,4.037-9,9-9s9,4.038,9,9
		s-4.037,9-9,9S34,47.962,34,43z"/>
	<path fill="#010101" d="M25,42c0.553,0,1-0.448,1-1c0-0.552-0.447-1-1-1c-13.758,0-23-4.654-23-9v-5.615
		C5.78,29.311,14.544,32,25,32c2.4,0,4.768-0.144,7.037-0.429c0.548-0.069,0.936-0.568,0.868-1.117
		c-0.069-0.547-0.568-0.936-1.116-0.868C29.602,29.861,27.317,30,25,30c-13.758,0-23-4.654-23-9v-5.615C5.78,19.311,14.544,22,25,22
		c10.456,0,19.22-2.689,23-6.615V21c0,0.552,0.447,1,1,1c0.553,0,1-0.448,1-1V11C50,4.832,39.019,0,25,0C10.981,0,0,4.832,0,11v30
		c0,6.169,10.981,11,25,11c0.553,0,1-0.448,1-1c0-0.552-0.447-1-1-1c-13.758,0-23-4.654-23-9v-5.615C5.78,39.311,14.544,42,25,42z
		 M25,2c13.758,0,23,4.654,23,9c0,4.346-9.242,9-23,9S2,15.346,2,11C2,6.654,11.242,2,25,2z"/>
</g>
</svg>
