<?xml version="1.0" encoding="utf-8"?>
<!-- Generator: Adobe Illustrator 17.0.0, SVG Export Plug-In . SVG Version: 6.00 Build 0)  -->
<!DOCTYPE svg PUBLIC "-//W3C//DTD SVG 1.1//EN" "http://www.w3.org/Graphics/SVG/1.1/DTD/svg11.dtd">
<svg version="1.1" id="Layer_1" xmlns="http://www.w3.org/2000/svg" xmlns:xlink="http://www.w3.org/1999/xlink" x="0px" y="0px"
	 width="60px" height="60px" viewBox="0 0 60 60" enable-background="new 0 0 60 60" xml:space="preserve">
<g>
	<path fill="#010101" d="M43.708,35.294c-0.092-0.092-0.203-0.166-0.325-0.216c-0.244-0.101-0.52-0.101-0.764,0
		c-0.123,0.051-0.233,0.124-0.325,0.216l-5.999,5.999c-0.391,0.391-0.391,1.023,0,1.414c0.391,0.391,1.023,0.391,1.414,0L42,38.414
		V50c0,0.552,0.448,1,1,1s1-0.448,1-1V38.414l4.293,4.293C48.488,42.902,48.744,43,49,43c0.256,0,0.512-0.098,0.707-0.293
		c0.391-0.391,0.391-1.023,0-1.414L43.708,35.294z"/>
	<path fill="#010101" d="M43,26c-9.374,0-17,7.626-17,17s7.626,17,17,17s17-7.626,17-17S52.374,26,43,26z M43,58
		c-8.271,0-15-6.729-15-15s6.729-15,15-15s15,6.729,15,15S51.271,58,43,58z"/>
	<path fill="#010101" d="M25,22c10.456,0,19.22-2.689,23-6.615V21c0,0.552,0.448,1,1,1s1-0.448,1-1V11C50,4.832,39.019,0,25,0
		S0,4.832,0,11v30c0,4.985,7.234,9.233,18.002,10.572c0.042,0.005,0.083,0.008,0.125,0.008c0.497,0,0.928-0.371,0.991-0.877
		c0.068-0.548-0.321-1.048-0.869-1.116C8.833,48.417,2,44.805,2,41v-5.603c2.704,2.816,8.004,5.018,14.983,6.029
		c0.048,0.007,0.097,0.01,0.144,0.01c0.489,0,0.916-0.359,0.988-0.857c0.079-0.546-0.3-1.054-0.847-1.133
		C8.279,38.144,2,34.671,2,31v-5.634c3.112,3.249,9.638,5.688,17.958,6.416c0.03,0.003,0.06,0.004,0.088,0.004
		c0.513,0,0.95-0.392,0.995-0.913c0.048-0.55-0.359-1.035-0.909-1.083C9.795,28.885,2,25.106,2,21v-5.615
		C5.78,19.311,14.544,22,25,22z M25,2c13.758,0,23,4.654,23,9c0,4.346-9.242,9-23,9S2,15.346,2,11C2,6.654,11.242,2,25,2z"/>
</g>
</svg>
