<?xml version="1.0" encoding="utf-8"?>
<!-- Generator: Adobe Illustrator 17.0.0, SVG Export Plug-In . SVG Version: 6.00 Build 0)  -->
<!DOCTYPE svg PUBLIC "-//W3C//DTD SVG 1.1//EN" "http://www.w3.org/Graphics/SVG/1.1/DTD/svg11.dtd">
<svg version="1.1" id="Layer_1" xmlns="http://www.w3.org/2000/svg" xmlns:xlink="http://www.w3.org/1999/xlink" x="0px" y="0px"
	 width="60px" height="60px" viewBox="0 0 60 60" enable-background="new 0 0 60 60" xml:space="preserve">
<g>
	<path fill="#010101" d="M45.894,30.553c-0.339-0.678-1.45-0.678-1.789,0l-14,28c-0.155,0.31-0.138,0.678,0.044,0.973
		C30.331,59.82,30.653,60,31,60h28c0.006,0,0.013-0.001,0.02,0c0.552,0,1-0.448,1-1c0-0.229-0.077-0.44-0.206-0.608L45.894,30.553z
		 M32.618,58L45,33.236L57.382,58H32.618z"/>
	<path fill="#010101" d="M44,43v6c0,0.552,0.448,1,1,1s1-0.448,1-1v-6c0-0.552-0.448-1-1-1S44,42.448,44,43z"/>
	<circle fill="#010101" cx="45" cy="53" r="1"/>
	<path fill="#010101" d="M25,42c0.552,0,1-0.448,1-1s-0.448-1-1-1c-13.758,0-23-4.654-23-9v-5.615C5.78,29.311,14.544,32,25,32
		c2.401,0,4.769-0.144,7.038-0.429c0.548-0.069,0.937-0.568,0.868-1.117c-0.069-0.548-0.571-0.938-1.117-0.868
		C29.602,29.861,27.318,30,25,30c-13.758,0-23-4.654-23-9v-5.615C5.78,19.311,14.544,22,25,22s19.22-2.689,23-6.615V25
		c0,0.552,0.448,1,1,1s1-0.448,1-1V11C50,4.831,39.019,0,25,0S0,4.831,0,11v30c0,6.169,10.981,11,25,11c0.552,0,1-0.448,1-1
		s-0.448-1-1-1c-13.758,0-23-4.654-23-9v-5.615C5.78,39.311,14.544,42,25,42z M25,2c13.758,0,23,4.654,23,9s-9.242,9-23,9
		S2,15.346,2,11S11.242,2,25,2z"/>
</g>
</svg>
