<?xml version="1.0" encoding="utf-8"?>
<!-- Generator: Adobe Illustrator 17.0.0, SVG Export Plug-In . SVG Version: 6.00 Build 0)  -->
<!DOCTYPE svg PUBLIC "-//W3C//DTD SVG 1.1//EN" "http://www.w3.org/Graphics/SVG/1.1/DTD/svg11.dtd">
<svg version="1.1" id="Layer_1" xmlns="http://www.w3.org/2000/svg" xmlns:xlink="http://www.w3.org/1999/xlink" x="0px" y="0px"
	 width="60px" height="60px" viewBox="0 0 60 60" enable-background="new 0 0 60 60" xml:space="preserve">
<g>
	<path fill="#010101" d="M43,26c-9.374,0-17,7.626-17,17s7.626,17,17,17s17-7.626,17-17S52.374,26,43,26z M43,28
		c3.776,0,7.221,1.413,9.861,3.725L31.725,52.861C29.413,50.221,28,46.776,28,43C28,34.729,34.728,28,43,28z M43,58
		c-3.776,0-7.221-1.413-9.861-3.725l21.136-21.136C56.587,35.779,58,39.224,58,43C58,51.271,51.271,58,43,58z"/>
	<path fill="#010101" d="M25,22c10.456,0,19.22-2.689,23-6.615V21c0,0.552,0.447,1,1,1c0.553,0,1-0.448,1-1V11
		C50,4.831,39.019,0,25,0C10.981,0,0,4.831,0,11v30c0,4.985,7.234,9.233,18.002,10.572c0.042,0.005,0.083,0.008,0.124,0.008
		c0.497,0,0.929-0.371,0.991-0.876c0.068-0.548-0.32-1.048-0.869-1.116C8.833,48.417,2,44.805,2,41v-5.603
		c2.704,2.816,8.003,5.018,14.983,6.029c0.049,0.007,0.097,0.01,0.144,0.01c0.489,0,0.917-0.359,0.988-0.857
		c0.079-0.546-0.3-1.054-0.846-1.133C8.279,38.144,2,34.671,2,31v-5.634c3.112,3.249,9.638,5.688,17.959,6.416
		c0.029,0.003,0.059,0.004,0.088,0.004c0.513,0,0.949-0.392,0.995-0.913c0.048-0.55-0.358-1.035-0.909-1.083
		C9.796,28.885,2,25.106,2,21v-5.615C5.78,19.311,14.544,22,25,22z M25,2c13.758,0,23,4.654,23,9s-9.242,9-23,9S2,15.346,2,11
		S11.242,2,25,2z"/>
</g>
</svg>
