<?xml version="1.0" encoding="utf-8"?>
<!-- Generator: Adobe Illustrator 16.0.3, SVG Export Plug-In . SVG Version: 6.00 Build 0)  -->
<!DOCTYPE svg PUBLIC "-//W3C//DTD SVG 1.1//EN" "http://www.w3.org/Graphics/SVG/1.1/DTD/svg11.dtd">
<svg version="1.1" xmlns="http://www.w3.org/2000/svg" xmlns:xlink="http://www.w3.org/1999/xlink" x="0px" y="0px" width="24px"
	 height="24px" viewBox="0 0 24 24" enable-background="new 0 0 24 24" xml:space="preserve">
<g id="Outline_Icons">
	<g>
		<path d="M13.5,11h10c0.276,0,0.5-0.224,0.5-0.5C24,4.71,19.29,0,13.5,0C13.224,0,13,0.224,13,0.5v10C13,10.776,13.224,11,13.5,11z
			 M14,1.013c4.841,0.252,8.734,4.146,8.987,8.987H14V1.013z"/>
		<path d="M23.5,12h-10c-0.202,0-0.385,0.122-0.462,0.309c-0.077,0.187-0.034,0.401,0.108,0.544l7.071,7.071
			c0.098,0.098,0.226,0.146,0.354,0.146s0.256-0.049,0.354-0.146C22.908,17.942,24,15.305,24,12.5C24,12.224,23.776,12,23.5,12z
			 M20.562,18.855L14.707,13h8.28C22.875,15.184,22.026,17.231,20.562,18.855z"/>
		<path d="M11,13.293V3.5C11,3.224,10.776,3,10.5,3C4.71,3,0,7.71,0,13.5C0,20.073,5.383,24,10.588,24
			c2.748,0,5.354-1.092,7.337-3.076c0.195-0.195,0.195-0.512,0-0.707L11,13.293z M10.588,23C5.875,23,1,19.447,1,13.5
			c0-5.07,3.993-9.226,9-9.487V13.5c0,0.133,0.053,0.26,0.146,0.354l6.709,6.709C15.112,22.139,12.905,23,10.588,23z"/>
	</g>
</g>
</svg>
