<svg xmlns="http://www.w3.org/2000/svg" viewBox="0 0 20 20"><path d="M7.9 2.5H3.8c-.7 0-1.3.6-1.3 1.3v4.1c0 .7.6 1.3 1.3 1.3h4.1c.7 0 1.3-.6 1.3-1.3V3.8c0-.7-.6-1.3-1.3-1.3Zm-.2 5.2H4V4h3.7v3.7ZM16.2 2.5h-4.1c-.7 0-1.3.6-1.3 1.3v4.1c0 .7.6 1.3 1.3 1.3h4.1c.7 0 1.3-.6 1.3-1.3V3.8c0-.7-.6-1.3-1.3-1.3ZM16 7.7h-3.7V4H16v3.7ZM7.9 10.8H3.8c-.7 0-1.3.6-1.3 1.3v4.1c0 .7.6 1.3 1.3 1.3h4.1c.7 0 1.3-.6 1.3-1.3v-4.1c0-.7-.6-1.3-1.3-1.3ZM7.7 16H4v-3.7h3.7V16ZM16.2 10.8h-4.1c-.7 0-1.3.6-1.3 1.3v4.1c0 .7.6 1.3 1.3 1.3h4.1c.7 0 1.3-.6 1.3-1.3v-4.1c0-.7-.6-1.3-1.3-1.3ZM16 16h-3.7v-3.7H16V16Z"/></svg>