<svg xmlns="http://www.w3.org/2000/svg" width="24" height="24" viewBox="0 0 24 24"><g><path fill-rule="evenodd" d="M18,14.184 L18,12 C18,10.346 16.654,9 15,9 L11,9 L11,6.837 C12.44,6.403 13.5,5.08 13.5,3.5 C13.5,1.57 11.93,0 10,0 C8.07,0 6.5,1.57 6.5,3.5 C6.5,5.08 7.56,6.403 9,6.837 L9,9 L5,9 C3.346,9 2,10.346 2,12 L2,14.184 C0.838,14.599 0,15.698 0,17 C0,18.654 1.346,20 3,20 C4.654,20 6,18.654 6,17 C6,15.698 5.162,14.599 4,14.184 L4,12 C4,11.449 4.449,11 5,11 L9,11 L9,14.184 C7.838,14.599 7,15.698 7,17 C7,18.654 8.346,20 10,20 C11.654,20 13,18.654 13,17 C13,15.698 12.162,14.599 11,14.184 L11,11 L15,11 C15.551,11 16,11.449 16,12 L16,14.184 C14.838,14.599 14,15.699 14,17 C14,18.654 15.346,20 17,20 C18.654,20 20,18.654 20,17 C20,15.698 19.162,14.599 18,14.184 L18,14.184 Z M8.5,3.5 C8.5,2.673 9.173,2 10,2 C10.827,2 11.5,2.673 11.5,3.5 C11.5,4.327 10.827,5 10,5 C9.173,5 8.5,4.327 8.5,3.5 Z M3,18 C2.449,18 2,17.551 2,17 C2,16.449 2.449,16 3,16 C3.551,16 4,16.449 4,17 C4,17.551 3.551,18 3,18 Z M10,18 C9.449,18 9,17.551 9,17 C9,16.449 9.449,16 10,16 C10.551,16 11,16.449 11,17 C11,17.551 10.551,18 10,18 Z M17,18 C16.449,18 16,17.551 16,17 C16,16.449 16.449,16 17,16 C17.551,16 18,16.449 18,17 C18,17.551 17.551,18 17,18 Z" transform="translate(2 2)"/></g></svg>
