<svg xmlns="http://www.w3.org/2000/svg" width="24" height="24" viewBox="0 0 24 24"><g ><path  fill-rule="evenodd" d="M20,4 L4,4 C2.896,4 2,4.898 2,6 L2,18 C2,19.103 2.896,20 4,20 L20,20 C21.104,20 22,19.103 22,18 L22,6 C22,4.898 21.104,4 20,4 Z M20,6 L19.999,8 L4,8 L4,6 L20,6 Z M4,10 L19.999,10 L19.997,18 L4,18 L4,10 Z"/><polygon  fill-rule="evenodd" points="15 12 19 12 19 14 15 14"/><polygon  fill-rule="evenodd" points="5 12 12 12 12 14 5 14"/><polygon  fill-rule="evenodd" points="5 15 10 15 10 17 5 17"/></g></svg>