<svg xmlns="http://www.w3.org/2000/svg" width="24" height="24" viewBox="0 0 24 24"><g ><polygon  fill-rule="evenodd" points="2 2 4 2 4 4 2 4"/><polygon  fill-rule="evenodd" points="10 2 12 2 12 4 10 4"/><polygon  fill-rule="evenodd" points="6 2 8 2 8 4 6 4"/><polygon  fill-rule="evenodd" points="2 6 4 6 4 8 2 8"/><polygon  fill-rule="evenodd" points="16 20 18 20 18 22 16 22"/><polygon  fill-rule="evenodd" points="20 20 22 20 22 22 20 22"/><polygon  fill-rule="evenodd" points="20 12 22 12 22 14 20 14"/><polygon  fill-rule="evenodd" points="20 16 22 16 22 18 20 18"/><path  fill-rule="evenodd" d="M11.6,10 L4.4,10 C3.0752,10 2,11.0752 2,12.4 L2,19.6 C2,20.9248 3.0752,22 4.4,22 L11.6,22 C12.9248,22 14,20.9248 14,19.6 L14,12.4 C14,11.0764 12.9248,10 11.6,10 Z M11.996,20 L4,20 L4,12 L12,12 L11.996,20 Z"/><polygon  fill-rule="evenodd" points="15 2 15 4 18.586 4 14.293 8.294 15.707 9.707 20 5.414 20 9 22 9 22 2"/></g></svg>