<svg version="1.1" xmlns="http://www.w3.org/2000/svg" xmlns:xlink="http://www.w3.org/1999/xlink" x="0px" y="0px" width="24px"
	 height="24px" viewBox="0 0 24 24" enable-background="new 0 0 24 24" xml:space="preserve">
<g id="Outline_Icons">
	<g>
		<path d="M20.691,3.039C20.63,3.013,20.565,3,20.5,3h-5C15.224,3,15,3.224,15,3.5S15.224,4,15.5,4h3.793l-7.146,7.146
			c-0.195,0.195-0.195,0.512,0,0.707C12.244,11.951,12.372,12,12.5,12s0.256-0.049,0.354-0.146L20,4.707V8.5
			C20,8.776,20.224,9,20.5,9S21,8.776,21,8.5v-5c0-0.064-0.013-0.13-0.039-0.191C20.911,3.187,20.813,3.089,20.691,3.039z"/>
		<path d="M4.5,2C4.776,2,5,1.776,5,1.5V1h0.5C5.776,1,6,0.776,6,0.5S5.776,0,5.5,0h-1C4.224,0,4,0.224,4,0.5v1
			C4,1.776,4.224,2,4.5,2z"/>
		<path d="M23.5,0h-1C22.224,0,22,0.224,22,0.5S22.224,1,22.5,1H23v0.5C23,1.776,23.224,2,23.5,2S24,1.776,24,1.5v-1
			C24,0.224,23.776,0,23.5,0z"/>
		<path d="M4.5,5C4.776,5,5,4.776,5,4.5v-1C5,3.224,4.776,3,4.5,3S4,3.224,4,3.5v1C4,4.776,4.224,5,4.5,5z"/>
		<path d="M7.5,1h1C8.776,1,9,0.776,9,0.5S8.776,0,8.5,0h-1C7.224,0,7,0.224,7,0.5S7.224,1,7.5,1z"/>
		<path d="M10.5,1h1C11.776,1,12,0.776,12,0.5S11.776,0,11.5,0h-1C10.224,0,10,0.224,10,0.5S10.224,1,10.5,1z"/>
		<path d="M13.5,1h1C14.776,1,15,0.776,15,0.5S14.776,0,14.5,0h-1C13.224,0,13,0.224,13,0.5S13.224,1,13.5,1z"/>
		<path d="M16.5,1h1C17.776,1,18,0.776,18,0.5S17.776,0,17.5,0h-1C16.224,0,16,0.224,16,0.5S16.224,1,16.5,1z"/>
		<path d="M20.5,0h-1C19.224,0,19,0.224,19,0.5S19.224,1,19.5,1h1C20.776,1,21,0.776,21,0.5S20.776,0,20.5,0z"/>
		<path d="M11.5,19H11v-5.5c0-0.276-0.224-0.5-0.5-0.5H5v-0.5C5,12.224,4.776,12,4.5,12S4,12.224,4,12.5V13H0.5
			C0.224,13,0,13.224,0,13.5v10C0,23.776,0.224,24,0.5,24h10c0.276,0,0.5-0.224,0.5-0.5V20h0.5c0.276,0,0.5-0.224,0.5-0.5
			S11.776,19,11.5,19z M10,23H1v-9h9V23z"/>
		<path d="M14.5,19h-1c-0.276,0-0.5,0.224-0.5,0.5s0.224,0.5,0.5,0.5h1c0.276,0,0.5-0.224,0.5-0.5S14.776,19,14.5,19z"/>
		<path d="M17.5,19h-1c-0.276,0-0.5,0.224-0.5,0.5s0.224,0.5,0.5,0.5h1c0.276,0,0.5-0.224,0.5-0.5S17.776,19,17.5,19z"/>
		<path d="M20.5,19h-1c-0.276,0-0.5,0.224-0.5,0.5s0.224,0.5,0.5,0.5h1c0.276,0,0.5-0.224,0.5-0.5S20.776,19,20.5,19z"/>
		<path d="M23.5,18c-0.276,0-0.5,0.224-0.5,0.5V19h-0.5c-0.276,0-0.5,0.224-0.5,0.5s0.224,0.5,0.5,0.5h1c0.276,0,0.5-0.224,0.5-0.5
			v-1C24,18.224,23.776,18,23.5,18z"/>
		<path d="M23.5,15c-0.276,0-0.5,0.224-0.5,0.5v1c0,0.276,0.224,0.5,0.5,0.5s0.5-0.224,0.5-0.5v-1C24,15.224,23.776,15,23.5,15z"/>
		<path d="M23.5,12c-0.276,0-0.5,0.224-0.5,0.5v1c0,0.276,0.224,0.5,0.5,0.5s0.5-0.224,0.5-0.5v-1C24,12.224,23.776,12,23.5,12z"/>
		<path d="M23.5,9C23.224,9,23,9.224,23,9.5v1c0,0.276,0.224,0.5,0.5,0.5s0.5-0.224,0.5-0.5v-1C24,9.224,23.776,9,23.5,9z"/>
		<path d="M23.5,6C23.224,6,23,6.224,23,6.5v1C23,7.776,23.224,8,23.5,8S24,7.776,24,7.5v-1C24,6.224,23.776,6,23.5,6z"/>
		<path d="M4.5,11C4.776,11,5,10.776,5,10.5v-1C5,9.224,4.776,9,4.5,9S4,9.224,4,9.5v1C4,10.776,4.224,11,4.5,11z"/>
		<path d="M4.5,8C4.776,8,5,7.776,5,7.5v-1C5,6.224,4.776,6,4.5,6S4,6.224,4,6.5v1C4,7.776,4.224,8,4.5,8z"/>
		<path d="M23.5,3C23.224,3,23,3.224,23,3.5v1C23,4.776,23.224,5,23.5,5S24,4.776,24,4.5v-1C24,3.224,23.776,3,23.5,3z"/>
	</g>
</g>
</svg>
