<svg xmlns="http://www.w3.org/2000/svg" width="24" height="24" viewBox="0 0 24 24"><g ><path  fill-rule="evenodd" d="M22,13.82 L22,10.182 L19.016,10.182 C18.854,9.56 18.61,8.978 18.3,8.428 L20.182,6.546 L17.456,3.82 L15.572,5.704 C15.028,5.39 14.444,5.148 13.818,4.984 L13.818,2 L10.182,2 L10.182,4.984 C9.558,5.148 8.974,5.39 8.43,5.704 L6.546,3.82 L3.818,6.546 L5.702,8.428 C5.392,8.978 5.148,9.562 4.986,10.182 L2,10.182 L2,13.818 L4.984,13.818 C5.146,14.442 5.39,15.026 5.7,15.572 L3.816,17.454 L6.544,20.18 L8.428,18.298 C8.972,18.608 9.556,18.852 10.18,19.016 L10.18,21.998 L13.814,21.998 L13.814,19.016 C14.44,18.852 15.022,18.608 15.568,18.298 L17.452,20.18 L20.178,17.454 L18.296,15.572 C18.606,15.026 18.85,14.442 19.012,13.818 L22,13.818 L22,13.82 Z M12,16 C9.79,16 8,14.208 8,12 C8,9.792 9.79,8 12,8 C14.21,8 16,9.792 16,12 C16,14.208 14.212,16 12,16 Z"/></g></svg>