<?xml version="1.0" encoding="utf-8"?>
<svg version="1.1" xmlns="http://www.w3.org/2000/svg" xmlns:xlink="http://www.w3.org/1999/xlink" x="0px" y="0px" width="24px"
	 height="24px" viewBox="0 0 24 24" enable-background="new 0 0 24 24" xml:space="preserve">
<g id="Outline_Icons_1_">
	<g id="Outline_Icons">
		<g>
			<path fill="none" stroke-linecap="round" stroke-linejoin="round" stroke-miterlimit="10" d="M20.254,13.5H23.5
				v-3h-3.247c-0.209-0.867-0.551-2.181-1.003-2.922l2.296-2.295l-2.829-2.829L16.42,4.75c-0.74-0.452-2.053-0.793-2.92-1.002V0.5
				h-3v3.248C9.633,3.957,8.319,4.298,7.579,4.75L5.282,2.454L2.453,5.283L4.75,7.579C4.298,8.319,3.956,9.633,3.746,10.5H0.5v3
				h3.246c0.21,0.867,0.552,2.181,1.004,2.921l-2.297,2.297l2.829,2.828l2.296-2.297c0.741,0.454,2.055,0.795,2.922,1.005V23.5h3
				v-3.246c0.867-0.21,2.181-0.552,2.92-1.004l2.298,2.296l2.828-2.828l-2.296-2.297C19.702,15.681,20.044,14.367,20.254,13.5z"/>

				<circle fill="none" stroke-linecap="round" stroke-linejoin="round" stroke-miterlimit="10" cx="12" cy="12" r="4.5"/>
		</g>
	</g>
</g>
</svg>
