<?xml version="1.0" encoding="utf-8"?>
<!-- Generator: Adobe Illustrator 16.0.3, SVG Export Plug-In . SVG Version: 6.00 Build 0)  -->
<!DOCTYPE svg PUBLIC "-//W3C//DTD SVG 1.1//EN" "http://www.w3.org/Graphics/SVG/1.1/DTD/svg11.dtd">
<svg version="1.1" xmlns="http://www.w3.org/2000/svg" xmlns:xlink="http://www.w3.org/1999/xlink" x="0px" y="0px" width="24px"
	 height="24px" viewBox="0 0 24 24" enable-background="new 0 0 24 24" xml:space="preserve">
<g id="Outline_Icons_1_">
	<g id="Outline_Icons">
		<g>
			<path d="M23.5,10h-2.855c-0.199-0.79-0.454-1.667-0.777-2.332l2.032-2.032c0.094-0.094,0.146-0.221,0.146-0.354
				s-0.053-0.26-0.146-0.354L19.07,2.101c-0.195-0.196-0.512-0.196-0.707,0L16.33,4.133C15.666,3.81,14.789,3.555,14,3.356V0.5
				C14,0.224,13.776,0,13.5,0h-3C10.224,0,10,0.224,10,0.5v2.856C9.21,3.555,8.333,3.81,7.669,4.133L5.636,2.101
				c-0.195-0.196-0.512-0.196-0.707,0L2.1,4.929C2.006,5.023,1.953,5.15,1.953,5.283S2.006,5.542,2.1,5.636L4.133,7.67
				C3.811,8.332,3.555,9.21,3.354,10H0.5C0.224,10,0,10.224,0,10.5v3C0,13.776,0.224,14,0.5,14h2.854
				c0.201,0.791,0.456,1.668,0.778,2.332L2.1,18.365c-0.094,0.093-0.146,0.22-0.146,0.353s0.053,0.26,0.146,0.354l2.829,2.828
				c0.188,0.188,0.52,0.188,0.707,0l2.032-2.034c0.664,0.324,1.541,0.579,2.332,0.78V23.5c0,0.276,0.224,0.5,0.5,0.5h3
				c0.276,0,0.5-0.224,0.5-0.5v-2.854c0.791-0.201,1.668-0.456,2.33-0.778l2.034,2.032c0.195,0.195,0.512,0.195,0.707,0l2.828-2.828
				c0.195-0.195,0.195-0.512,0-0.707l-2.032-2.033c0.322-0.663,0.578-1.541,0.778-2.332H23.5c0.276,0,0.5-0.224,0.5-0.5v-3
				C24,10.224,23.776,10,23.5,10z M23,13h-2.746c-0.231,0-0.432,0.159-0.486,0.382c-0.135,0.558-0.494,2.041-0.945,2.778
				c-0.12,0.197-0.09,0.451,0.073,0.614l1.942,1.943l-2.121,2.121l-1.944-1.942c-0.165-0.165-0.419-0.194-0.614-0.073
				c-0.737,0.451-2.219,0.81-2.777,0.945C13.158,19.823,13,20.023,13,20.254V23h-2v-2.746c0-0.231-0.158-0.431-0.382-0.486
				c-0.558-0.135-2.04-0.494-2.778-0.945c-0.198-0.122-0.451-0.091-0.615,0.072l-1.942,1.944L3.16,18.718l1.943-1.943
				c0.164-0.163,0.193-0.417,0.073-0.614c-0.451-0.737-0.81-2.22-0.945-2.778C4.178,13.159,3.977,13,3.746,13H1v-2h2.746
				c0.231,0,0.432-0.158,0.486-0.382c0.135-0.558,0.494-2.04,0.945-2.777c0.12-0.198,0.09-0.451-0.073-0.615L3.16,5.283l2.122-2.122
				l1.943,1.942C7.39,5.267,7.642,5.297,7.839,5.177c0.742-0.453,2.221-0.809,2.778-0.943C10.842,4.18,11,3.979,11,3.748V1h2v2.748
				c0,0.231,0.158,0.432,0.383,0.486c0.874,0.21,2.111,0.537,2.777,0.943c0.196,0.12,0.449,0.09,0.614-0.073l1.943-1.942
				l2.122,2.122l-1.942,1.942c-0.163,0.163-0.193,0.417-0.073,0.613c0.453,0.743,0.81,2.222,0.944,2.779
				C19.821,10.842,20.022,11,20.253,11H23V13z"/>
			<path d="M12,7c-2.757,0-5,2.243-5,5s2.243,5,5,5s5-2.243,5-5S14.757,7,12,7z M12,16c-2.206,0-4-1.794-4-4s1.794-4,4-4
				s4,1.794,4,4S14.206,16,12,16z"/>
		</g>
	</g>
</g>
</svg>
