<svg xmlns="http://www.w3.org/2000/svg" width="24" height="24"><path fill-rule="evenodd" d="M22 14v-4h-2.264c-.232-.901-.611-1.743-1.122-2.493l1.518-1.518-2.121-2.121-1.518 1.518c-.749-.511-1.592-.888-2.493-1.123V2h-4v2.263c-.901.235-1.744.612-2.493 1.122L5.989 3.868 3.868 5.989l1.518 1.518c-.511.749-.89 1.591-1.122 2.493H2v4h2.264c.232.903.611 1.744 1.122 2.493l-1.518 1.518 2.121 2.122 1.518-1.518c.749.51 1.592.888 2.493 1.122V22h4v-2.263c.901-.233 1.744-.612 2.493-1.122l1.518 1.518 2.121-2.122-1.518-1.518c.511-.749.89-1.59 1.122-2.493H22zm-10 4c-3.309 0-6-2.69-6-6 0-3.309 2.691-6 6-6s6 2.691 6 6-2.691 6-6 6z"/></svg>
