<?xml version="1.0" encoding="utf-8"?>
<svg version="1.1" xmlns="http://www.w3.org/2000/svg" xmlns:xlink="http://www.w3.org/1999/xlink" x="0px" y="0px" width="24px"
	 height="24px" viewBox="0 0 24 24" enable-background="new 0 0 24 24" xml:space="preserve">
			<g>
				<circle fill="none" stroke-miterlimit="10" cx="12" cy="12.5" r="2.5"/>
				<path fill="none" stroke-linecap="round" stroke-linejoin="round" stroke-miterlimit="10" d="M17.386,11.411
					l1.551-0.896l-1.75-3.031l-1.55,0.895c-0.551-0.486-1.192-0.859-1.888-1.093V5.5h-3.5v1.794C9.534,7.533,8.9,7.907,8.364,8.38
					L6.813,7.484l-1.75,3.031l1.549,0.895c-0.143,0.702-0.148,1.439,0.002,2.178l-1.551,0.896l1.75,3.031l1.55-0.895
					c0.551,0.485,1.191,0.857,1.886,1.092V19.5h3.5v-1.793c0.715-0.24,1.351-0.613,1.886-1.086l1.551,0.896l1.75-3.031l-1.549-0.895
					C17.531,12.888,17.536,12.15,17.386,11.411z"/>
			</g>
</svg>
