<?xml version="1.0" encoding="utf-8"?>
<!-- Generator: Adobe Illustrator 16.0.3, SVG Export Plug-In . SVG Version: 6.00 Build 0)  -->
<!DOCTYPE svg PUBLIC "-//W3C//DTD SVG 1.1//EN" "http://www.w3.org/Graphics/SVG/1.1/DTD/svg11.dtd">
<svg version="1.1" xmlns="http://www.w3.org/2000/svg" xmlns:xlink="http://www.w3.org/1999/xlink" x="0px" y="0px" width="24px"
	 height="24px" viewBox="0 0 24 24" enable-background="new 0 0 24 24" xml:space="preserve">
<g id="Outline_Icons_1_">
	<g id="Outline_Icons">
		<g>
			<path d="M11.5,1C5.159,1,0,6.159,0,12.5C0,18.841,5.159,24,11.5,24S23,18.841,23,12.5C23,6.159,17.841,1,11.5,1z M11.5,23
				C5.71,23,1,18.29,1,12.5C1,6.71,5.71,2,11.5,2S22,6.71,22,12.5C22,18.29,17.29,23,11.5,23z"/>
			<path d="M11.5,6.5C9.57,6.5,8,8.07,8,10c0,0.276,0.224,0.5,0.5,0.5S9,10.276,9,10c0-1.378,1.121-2.5,2.5-2.5S14,8.622,14,10
				s-1.121,2.5-2.5,2.5c-0.276,0-0.5,0.224-0.5,0.5v3c0,0.276,0.224,0.5,0.5,0.5S12,16.276,12,16v-2.535
				c1.694-0.244,3-1.704,3-3.465C15,8.07,13.43,6.5,11.5,6.5z"/>
			<circle cx="11.5" cy="18.5" r="1"/>
		</g>
	</g>
</g>
</svg>
