<svg width="24" height="24" viewBox="0 0 24 24" xmlns="http://www.w3.org/2000/svg">
  <g fill-rule="evenodd" stroke="none">
    <g transform="translate(8 5)">
      <path d="M4 .74C1.986.74.348 2.376.348 4.39c0 .29.234.523.522.523.288 0 .52-.234.52-.522 0-1.437 1.17-2.607 2.61-2.607s2.61 1.17 2.61 2.608C6.61 5.83 5.44 7 4 7c-.288 0-.522.234-.522.522v3.13c0 .288.234.522.522.522.288 0 .522-.234.522-.522V8.007c1.767-.255 3.13-1.778 3.13-3.616C7.652 2.378 6.014.74 4 .74z"/><circle cx="4" cy="13.261" r="1.043"/>
    </g>
    <path d="M1.5 12c0 5.8 4.7 10.5 10.5 10.5S22.5 17.8 22.5 12 17.8 1.5 12 1.5 1.5 6.2 1.5 12zM0 12C0 5.373 5.37 0 12 0c6.627 0 12 5.37 12 12 0 6.627-5.37 12-12 12-6.627 0-12-5.37-12-12z"/>
    </g>
  </svg>
