<svg xmlns="http://www.w3.org/2000/svg" width="24" height="24" viewBox="0 0 24 24"><g ><path  fill-rule="evenodd" d="M12,22 C6.486,22 2,17.515 2,12 C2,6.487 6.486,2 12,2 C17.514,2 22,6.486 22,12 C22,17.515 17.514,22 12,22 Z M12,4 C7.589,4 4,7.589 4,12 C4,16.411 7.589,20 12,20 C16.411,20 20,16.411 20,12 C20,7.589 16.411,4 12,4 Z"/><path  fill-rule="evenodd" d="M13 15L11 15 11 12 12 12C13.104 12 14 11.103 14 10 14 8.896 13.104 8 12 8 10.896 8 10 8.896 10 10L8 10C8 7.795 9.795 6 12 6 14.205 6 16 7.795 16 10 16 11.86 14.723 13.428 13 13.875L13 15zM12.88392 16.116155C13.372075 16.60431 13.372075 17.395765 12.88392 17.883925 12.395765 18.37208 11.60431 18.37208 11.11615 17.883925 10.627995 17.39577 10.627995 16.604315 11.11615 16.116155 11.604305 15.628 12.39576 15.628 12.88392 16.116155"/></g></svg>