<svg xmlns="http://www.w3.org/2000/svg" width="24" height="24" viewBox="0 0 24 24"><g ><path  fill-rule="evenodd" d="M21.707,12.292 L19,9.585 L19,4.999 C19,4.448 18.552,3.999 18,3.999 L15,3.999 C14.57,3.999 14.211,4.274 14.07,4.655 L12.707,3.293 C12.316,2.903 11.684,2.903 11.293,3.293 L2.293,12.293 C2.007,12.579 1.921,13.009 2.076,13.383 C2.231,13.757 2.595,13.999 3,13.999 L5,13.999 L5,19.999 C5,21.102 5.897,21.999 7,21.999 L9,21.999 C10.103,21.999 11,21.102 11,19.999 L11,16.999 L13,16.999 L13,19.999 C13,21.102 13.897,21.999 15,21.999 L17,21.999 C18.103,21.999 19,21.102 19,19.999 L19,13.999 L21,13.999 C21.404,13.999 21.769,13.756 21.924,13.382 C22.079,13.008 21.993,12.578 21.707,12.292 Z M17,5.999 L17,7.585 L16,6.585 L16,5.999 L17,5.999 Z M17,12.999 L17.001,19.999 L15,19.999 L15,15.999 C15,15.448 14.552,14.999 14,14.999 L10,14.999 C9.448,14.999 9,15.448 9,15.999 L9,19.999 L7,19.999 L7,12.999 C7,12.448 6.552,11.999 6,11.999 L5.414,11.999 L12,5.413 L18.586,11.998 L18,11.998 C17.448,11.999 17,12.448 17,12.999 Z"/></g></svg>
