<svg xmlns="http://www.w3.org/2000/svg" width="24" height="24" viewBox="0 0 24 24"><g stroke="none" fill-rule="evenodd"><path d="M0,11 C0,4.92525 4.9225,0 11,0 C17.07475,0 22,4.9225 22,11 C22,17.07475 17.0775,22 11,22 C4.92525,22 0,17.0775 0,11 Z M1.375,11 C1.375,16.3166667 5.68333333,20.625 11,20.625 C16.3166667,20.625 20.625,16.3166667 20.625,11 C20.625,5.68333333 16.3166667,1.375 11,1.375 C5.68333333,1.375 1.375,5.68333333 1.375,11 Z M10,16 L10,10 L12,10 L12,16 L10,16 Z M10.9289773,7.95022624 C9.86363254,7.95022624 9,7.06593798 9,5.97511312 C9,4.88428827 9.86363254,4 10.9289773,4 C11.994322,4 12.8579545,4.88428827 12.8579545,5.97511312 C12.8579545,7.06593798 11.994322,7.95022624 10.9289773,7.95022624 Z" transform="translate(1 1)"/></g></svg>
