<?xml version="1.0" encoding="utf-8"?>
<!-- Generator: Adobe Illustrator 16.0.3, SVG Export Plug-In . SVG Version: 6.00 Build 0)  -->
<!DOCTYPE svg PUBLIC "-//W3C//DTD SVG 1.1//EN" "http://www.w3.org/Graphics/SVG/1.1/DTD/svg11.dtd">
<svg version="1.1" xmlns="http://www.w3.org/2000/svg" xmlns:xlink="http://www.w3.org/1999/xlink" x="0px" y="0px" width="24px"
	 height="24px" viewBox="0 0 24 24" enable-background="new 0 0 24 24" xml:space="preserve">
<g id="Outline_Icons_1_">
	<g id="Outline_Icons">
		<g>
			<path d="M4.043,6H19c0.276,0,0.5-0.224,0.5-0.5S19.276,5,19,5H4.043c-0.276,0-0.5,0.224-0.5,0.5S3.767,6,4.043,6z"/>
			<path d="M19,9H4.043c-0.276,0-0.5,0.224-0.5,0.5s0.224,0.5,0.5,0.5H19c0.276,0,0.5-0.224,0.5-0.5S19.276,9,19,9z"/>
			<path d="M19,13H4.043c-0.276,0-0.5,0.224-0.5,0.5s0.224,0.5,0.5,0.5H19c0.276,0,0.5-0.224,0.5-0.5S19.276,13,19,13z"/>
			<path d="M19,17H4.043c-0.276,0-0.5,0.224-0.5,0.5s0.224,0.5,0.5,0.5H19c0.276,0,0.5-0.224,0.5-0.5S19.276,17,19,17z"/>
		</g>
	</g>
</g>
</svg>
