<svg xmlns="http://www.w3.org/2000/svg" width="24" height="24" viewBox="0 0 24 24"><g ><path  fill-rule="evenodd" d="M13.7677672 3.23323505C14.7440776 4.20954544 14.7440776 5.79245781 13.7677672 6.76876945 12.7914568 7.74507985 11.2085444 7.74507985 10.2322328 6.76876945 9.2559224 5.79245906 9.2559224 4.20954669 10.2322328 3.23323505 11.2085432 2.25692465 12.7914556 2.25692465 13.7677672 3.23323505zM12.7071069 4.29289312C12.3165822 3.90236896 11.6834173 3.90236896 11.2928931 4.29289312 10.902369 4.68341778 10.902369 5.31658272 11.2928931 5.70710688 11.6834178 6.09763104 12.3165827 6.09763104 12.7071069 5.70710688 13.097631 5.31658222 13.097631 4.68341728 12.7071069 4.29289312zM13.7677672 10.2322328C14.7440776 11.2085432 14.7440776 12.7914556 13.7677672 13.7677672 12.7914568 14.7440776 11.2085444 14.7440776 10.2322328 13.7677672 9.2559224 12.7914568 9.2559224 11.2085444 10.2322328 10.2322328 11.2085432 9.2559224 12.7914556 9.2559224 13.7677672 10.2322328zM12.7071069 11.2918909C12.3165822 10.9013667 11.6834173 10.9013667 11.2928931 11.2918909 10.902369 11.6824155 10.902369 12.3155805 11.2928931 12.7061046 11.6834178 13.0966288 12.3165827 13.0966288 12.7071069 12.7061046 13.097631 12.31558 13.097631 11.682415 12.7071069 11.2918909zM13.7677672 17.2322328C14.7440776 18.2085432 14.7440776 19.7914556 13.7677672 20.7677672 12.7914568 21.7440776 11.2085444 21.7440776 10.2322328 20.7677672 9.2559224 19.7914568 9.2559224 18.2085444 10.2322328 17.2322328 11.2085432 16.2559224 12.7914556 16.2559224 13.7677672 17.2322328zM12.7071069 18.2918909C12.3165822 17.9013667 11.6834173 17.9013667 11.2928931 18.2918909 10.902369 18.6824155 10.902369 19.3155805 11.2928931 19.7061046 11.6834178 20.0966288 12.3165827 20.0966288 12.7071069 19.7061046 13.097631 19.31558 13.097631 18.682415 12.7071069 18.2918909z"/></g></svg>