<?xml version="1.0" encoding="utf-8"?>
<!-- Generator: Adobe Illustrator 16.0.3, SVG Export Plug-In . SVG Version: 6.00 Build 0)  -->
<!DOCTYPE svg PUBLIC "-//W3C//DTD SVG 1.1//EN" "http://www.w3.org/Graphics/SVG/1.1/DTD/svg11.dtd">
<svg version="1.1" xmlns="http://www.w3.org/2000/svg" xmlns:xlink="http://www.w3.org/1999/xlink" x="0px" y="0px" width="24px"
	 height="24px" viewBox="0 0 24 24" enable-background="new 0 0 24 24" xml:space="preserve">
<g id="Outline_Icons_1_">
	<g>
		<g>
			<path d="M10.5,24h-10C0.224,24,0,23.776,0,23.5v-10C0,13.224,0.224,13,0.5,13h10c0.276,0,0.5,0.224,0.5,0.5v10
				C11,23.776,10.776,24,10.5,24z M1,23h9v-9H1V23z"/>
		</g>
		<g>
			<path d="M0.5,11C0.224,11,0,10.776,0,10.5v-10C0,0.224,0.224,0,0.5,0h10C10.776,0,11,0.224,11,0.5S10.776,1,10.5,1H1v9.5
				C1,10.776,0.776,11,0.5,11z"/>
		</g>
		<g>
			<path d="M23.5,11c-0.276,0-0.5-0.224-0.5-0.5V1h-9.5C13.224,1,13,0.776,13,0.5S13.224,0,13.5,0h10C23.776,0,24,0.224,24,0.5v10
				C24,10.776,23.776,11,23.5,11z"/>
		</g>
		<g>
			<path d="M23.5,24h-10c-0.276,0-0.5-0.224-0.5-0.5s0.224-0.5,0.5-0.5H23v-9.5c0-0.276,0.224-0.5,0.5-0.5s0.5,0.224,0.5,0.5v10
				C24,23.776,23.776,24,23.5,24z"/>
		</g>
	</g>
</g>
</svg>
