<svg xmlns="http://www.w3.org/2000/svg" width="24" height="24" viewBox="0 0 24 24"><g><path fill-rule="evenodd" d="M11 10.999L5 10.999C3.896 10.999 3 11.895 3 12.999L3 18.999C3 20.103 3.896 20.999 5 20.999L11 20.999C12.104 20.999 13 20.103 13 18.999L13 12.999C13 11.896 12.104 10.999 11 10.999zM10.997 18.999L5 18.999 5 12.999 11 12.999 10.997 18.999zM5 4.999L10 4.999 10 2.999 5 2.999C3.896 2.999 3 3.895 3 4.999L3 8.999 5 8.999 5 4.999zM19 2.999L14 2.999 14 4.999 19 4.999 19 9.999 21 9.999 21 4.999C21 3.896 20.104 2.999 19 2.999zM19 18.999L15 18.999 15 20.999 19 20.999C20.104 20.999 21 20.103 21 18.999L21 13.999 19 13.999 19 18.999z"/></g></svg>
