<?xml version="1.0" encoding="utf-8"?>
<!-- Generator: Adobe Illustrator 16.0.3, SVG Export Plug-In . SVG Version: 6.00 Build 0)  -->
<!DOCTYPE svg PUBLIC "-//W3C//DTD SVG 1.1//EN" "http://www.w3.org/Graphics/SVG/1.1/DTD/svg11.dtd">
<svg version="1.1" xmlns="http://www.w3.org/2000/svg" xmlns:xlink="http://www.w3.org/1999/xlink" x="0px" y="0px" width="24px"
	 height="24px" viewBox="0 0 24 24" enable-background="new 0 0 24 24" xml:space="preserve">
<g id="Outline_Icons_1_">
	<g id="Outline_Icons">
		<g>
			<path d="M22.5,0h-21C0.673,0,0,0.673,0,1.5v20C0,22.327,0.673,23,1.5,23h21c0.827,0,1.5-0.673,1.5-1.5v-20
				C24,0.673,23.327,0,22.5,0z M23,21.5c0,0.276-0.224,0.5-0.5,0.5h-21C1.224,22,1,21.776,1,21.5v-20C1,1.224,1.224,1,1.5,1h21
				C22.776,1,23,1.224,23,1.5V21.5z"/>
			<path d="M20.521,5h-6.071C14.217,3.86,13.207,3,12,3S9.783,3.86,9.551,5h-6.03c-0.276,0-0.5,0.224-0.5,0.5S3.244,6,3.521,6h6.03
				C9.783,7.14,10.793,8,12,8s2.217-0.86,2.449-2h6.071c0.276,0,0.5-0.224,0.5-0.5S20.797,5,20.521,5z M12,7
				c-0.827,0-1.5-0.673-1.5-1.5S11.173,4,12,4c0.825,0,1.496,0.67,1.499,1.494c0,0.002-0.001,0.004-0.001,0.006
				s0.001,0.004,0.001,0.006C13.496,6.331,12.825,7,12,7z"/>
			<path d="M20.521,11H10.449C10.217,9.86,9.207,9,8,9s-2.217,0.86-2.449,2h-2.03c-0.276,0-0.5,0.224-0.5,0.5s0.224,0.5,0.5,0.5
				h2.03C5.783,13.14,6.793,14,8,14s2.217-0.86,2.449-2h10.071c0.276,0,0.5-0.224,0.5-0.5S20.797,11,20.521,11z M8,13
				c-0.827,0-1.5-0.673-1.5-1.5S7.173,10,8,10c0.823,0,1.492,0.666,1.499,1.487c0,0.004-0.003,0.008-0.003,0.013
				s0.002,0.008,0.003,0.013C9.492,12.334,8.823,13,8,13z"/>
			<path d="M20.521,17h-8.071c-0.232-1.14-1.242-2-2.449-2s-2.217,0.86-2.449,2h-4.03c-0.276,0-0.5,0.224-0.5,0.5s0.224,0.5,0.5,0.5
				h4.03c0.232,1.14,1.242,2,2.449,2s2.217-0.86,2.449-2h8.071c0.276,0,0.5-0.224,0.5-0.5S20.797,17,20.521,17z M10,19
				c-0.827,0-1.5-0.673-1.5-1.5S9.173,16,10,16c0.823,0,1.492,0.666,1.499,1.487c0,0.004-0.003,0.008-0.003,0.013
				s0.002,0.008,0.003,0.013C11.492,18.334,10.823,19,10,19z"/>
		</g>
	</g>
</g>
</svg>
