<svg xmlns="http://www.w3.org/2000/svg" width="24" height="24" viewBox="0 0 24 24"><g ><path  fill-rule="evenodd" d="M12.7692308 15.3846154L10.4615385 15.3846154 10.4615385 11.9230769 11.6153846 11.9230769C12.8892308 11.9230769 13.9230769 10.8880769 13.9230769 9.61538462 13.9230769 8.34153846 12.8892308 7.30769231 11.6153846 7.30769231 10.3415385 7.30769231 9.30769231 8.34153846 9.30769231 9.61538462L7 9.61538462C7 7.07115385 9.07115385 5 11.6153846 5 14.1596154 5 16.2307692 7.07115385 16.2307692 9.61538462 16.2307692 11.7615385 14.7573077 13.5707692 12.7692308 14.0865385L12.7692308 15.3846154zM12.6352923 16.6724865C13.1985481 17.2357423 13.1985481 18.1489596 12.6352923 18.7122212 12.0720365 19.2754769 11.1588192 19.2754769 10.5955577 18.7122212 10.0323019 18.1489654 10.0323019 17.2357481 10.5955577 16.6724865 11.1588135 16.1092308 12.0720308 16.1092308 12.6352923 16.6724865"/></g></svg>