<svg xmlns="http://www.w3.org/2000/svg" width="24" height="24"><path fill-rule="evenodd" d="M18.3524195 5.64758052L15 9h8V1l-.0186862.01868617-.0000642-.02744732-3.2266055 3.22795163C17.7563487 2.23840198 15.0247339.99123885 11.9814583.99123885 5.9132401.99123885 1 5.92486947 1 11.9956194 1 18.0663694 5.9132401 23 11.9814583 23 17.426355 23 22.1383497 19.2087401 23 14h-2.2649027C19.89178 17.6681269 15.9232589 21.0077546 12 21.0077546c-4.63255257 0-8.99586116-3.7278999-8.99586116-9.0077546 0-5.27985472 4.3557084-9 8.99586116-9 3.0189412 0 5.0792049 1.43877124 6.3524195 2.64758052z"/></svg>
