<?xml version="1.0" encoding="utf-8"?>
<!-- Generator: Adobe Illustrator 16.0.3, SVG Export Plug-In . SVG Version: 6.00 Build 0)  -->
<!DOCTYPE svg PUBLIC "-//W3C//DTD SVG 1.1//EN" "http://www.w3.org/Graphics/SVG/1.1/DTD/svg11.dtd">
<svg version="1.1" xmlns="http://www.w3.org/2000/svg" xmlns:xlink="http://www.w3.org/1999/xlink" x="0px" y="0px" width="24px"
	 height="24px" viewBox="0 0 24 24" enable-background="new 0 0 24 24" xml:space="preserve">
<g id="Outline_Icons_1_">
	<g id="Outline_Icons">
		<path d="M14,2c-5.465,0-9.914,4.408-9.992,9.854L1.916,8.717c-0.154-0.23-0.467-0.291-0.693-0.139
			C0.993,8.731,0.931,9.042,1.084,9.271l3,4.5c0.17,0.258,0.589,0.297,0.792,0.052l3.5-4C8.559,9.615,8.537,9.3,8.329,9.118
			C8.123,8.938,7.806,8.956,7.624,9.165L5,12.164C5,6.777,9.236,3,14,3c4.963,0,9,4.037,9,9s-4.037,9-9,9
			c-0.276,0-0.5,0.224-0.5,0.5S13.724,22,14,22c5.514,0,10-4.486,10-10S19.514,2,14,2z"/>
	</g>
</g>
</svg>
