<svg xmlns="http://www.w3.org/2000/svg" width="24" height="24" viewBox="0 0 24 24"><g><g fill-rule="evenodd" transform="translate(3)"><polygon points="8 15.586 5.707 13.293 4.293 14.707 8 18.415 13.707 12.707 12.293 11.293"/><path d="M16,5 L14,5 L14,3 L12.858,3 C12.411,1.281 10.858,0 9,0 C7.142,0 5.589,1.281 5.142,3 L4,3 L4,5 L2,5 C0.897,5 0,5.898 0,7 L0,21 C0,22.103 0.897,23 2,23 L16,23 C17.103,23 18,22.103 18,21 L18,7 C18,5.898 17.103,5 16,5 Z M9,2 C9.739,2 10.385,2.402 10.731,3 L7.268,3 C7.615,2.402 8.261,2 9,2 Z M6,5 L12,5 L12,7 L6,7 L6,5 Z M16,21 L2,21 L2,7 L4,7 L4,9 L14,9 L14,7 L16,7 L16,21 Z"/></g></g></svg>
