<svg xmlns="http://www.w3.org/2000/svg" width="24" height="24"><path fill="#656D78" fill-rule="evenodd" d="M23 21.4214746l-6.0205003-6.0205003c1.2157101-1.558431 1.8821738-3.4618156 1.8821738-5.47013754 0-2.38564977-.9299234-4.62840615-2.6167352-6.3141016C14.5592429 1.92880703 12.3164865 1 9.93083676 1 7.545187 1 5.3024306 1.92880702 3.61673516 3.61673517 1.9299234 5.3024306 1 7.545187 1 9.93083677c0 2.38564973.92992338 4.62840613 2.61673517 6.31410153 1.68569544 1.6879282 3.92845182 2.6167352 6.3141016 2.6167352 2.00832193 0 3.91170653-.6653473 5.47013753-1.8821738l6.0205003 6.0193839L23 21.4214746zM9.93083676 16.6289643c-1.78951642 0-3.47074644-.6966052-4.7355762-1.961435-1.2659461-1.2648298-1.96255137-2.9471761-1.96255137-4.73669254 0-1.78840006.69660524-3.47074644 1.96255135-4.7355762C6.4600903 3.92931446 8.14132033 3.2327092 9.93083675 3.2327092c1.78951644 0 3.47074644.69660525 4.73557614 1.96255136 1.2659462 1.26482975 1.9625514 2.94717613 1.9625514 4.7355762 0 1.78951643-.6966052 3.47186273-1.9625514 4.73669253-1.2648297 1.2648298-2.9460597 1.961435-4.73557616 1.961435z"/></svg>
