<svg xmlns="http://www.w3.org/2000/svg" width="24" height="24" viewBox="0 0 24 24"><g><path fill-rule="evenodd" d="M21,7 L16,7 L16,4 C16,3.449 15.553,3 15,3 L9,3 C8.447,3 8,3.448 8,4 L8,7 L3,7 C2.447,7 2,7.448 2,8 L2,20 C2,20.553 2.447,21 3,21 L21,21 C21.553,21 22,20.553 22,20 L22,8 C22,7.448 21.553,7 21,7 Z M10,5 L14,5 L14,7 L10,7 L10,5 Z M20,19 L4,19 L4,9 L20,9 L20,19 Z"/><path  fill-rule="evenodd" d="M13.184,13 L10.817,13 C10.402,11.838 9.304,11 8,11 C6.696,11 5.598,11.838 5.184,13 L8,13 L8,15 L5.184,15 C5.597,16.163 6.695,17 8,17 C9.305,17 10.404,16.164 10.816,15 L13.183,15 C13.596,16.164 14.695,17 15.999,17 C17.303,17 18.403,16.164 18.815,15 L16,15 L16,13 L18.816,13 C18.402,11.838 17.303,11 16,11 C14.697,11 13.598,11.838 13.184,13 Z"/></g></svg>
