<svg xmlns="http://www.w3.org/2000/svg" width="24" height="24" viewBox="0 0 24 24"><g ><g  fill-rule="evenodd" transform="translate(4 2)"><path d="M1 18C1 19.103 1.897 20 3 20L13 20C14.103 20 15 19.103 15 18L15 6 1 6 1 18zM3 8L13 8 13.001 18 3 18 3 8zM0 3L5 3 5 2C5 .8954305 5.8954305-5.46763595e-13 7-4.54747351e-13L9.03020462-1.17683641e-13C10.1229076-2.66559372e-14 11.0133461.87699085 11.0299731 1.96956733L11.0456543 3 16 3 16 5 0 5 0 3zM7 2L7 3 9 3 9 2 7 2z"/><polygon points="0 0 2 0 2 6 0 6" transform="translate(5 10)"/><polygon points="0 0 2 0 2 6 0 6" transform="translate(9 10)"/></g></g></svg>