<?xml version="1.0" encoding="utf-8"?>
<!-- Generator: Adobe Illustrator 17.0.0, SVG Export Plug-In . SVG Version: 6.00 Build 0)  -->
<!DOCTYPE svg PUBLIC "-//W3C//DTD SVG 1.1//EN" "http://www.w3.org/Graphics/SVG/1.1/DTD/svg11.dtd">
<svg version="1.1" id="Layer_1" xmlns="http://www.w3.org/2000/svg" xmlns:xlink="http://www.w3.org/1999/xlink" x="0px" y="0px"
	 width="48px" height="48px" viewBox="0 0 48 48" enable-background="new 0 0 48 48" xml:space="preserve">
<path fill="#010101" d="M40.383,29.076c-0.374-0.155-0.804-0.069-1.09,0.217l-4,4c-0.391,0.391-0.391,1.023,0,1.414
	c0.391,0.391,1.023,0.391,1.414,0l2.077-2.077C37.579,39.884,31.475,45.49,24,45.954V20h8c0.553,0,1-0.448,1-1s-0.447-1-1-1h-8
	V9.899C26.279,9.434,28,7.415,28,5c0-2.757-2.243-5-5-5s-5,2.243-5,5c0,2.415,1.721,4.434,4,4.899V18h-8c-0.553,0-1,0.448-1,1
	s0.447,1,1,1h8v25.954C14.525,45.49,8.421,39.884,7.216,32.63l2.077,2.077c0.391,0.391,1.023,0.391,1.414,0
	c0.391-0.391,0.391-1.023,0-1.414l-4-4c-0.286-0.286-0.715-0.371-1.09-0.217C5.243,29.231,5,29.596,5,30c0,9.925,8.075,18,18,18
	s18-8.075,18-18C41,29.596,40.757,29.231,40.383,29.076z M20,5c0-1.654,1.346-3,3-3s3,1.346,3,3s-1.346,3-3,3S20,6.654,20,5z"/>
</svg>
