<?xml version="1.0" encoding="utf-8"?>
<!-- Generator: Adobe Illustrator 17.0.0, SVG Export Plug-In . SVG Version: 6.00 Build 0)  -->
<!DOCTYPE svg PUBLIC "-//W3C//DTD SVG 1.1//EN" "http://www.w3.org/Graphics/SVG/1.1/DTD/svg11.dtd">
<svg version="1.1" id="Layer_1" xmlns="http://www.w3.org/2000/svg" xmlns:xlink="http://www.w3.org/1999/xlink" x="0px" y="0px"
	 width="48px" height="48px" viewBox="0 0 48 48" enable-background="new 0 0 48 48" xml:space="preserve">
<g>
	<path fill="#010101" d="M47,46H1c-0.552,0-1,0.448-1,1s0.448,1,1,1h46c0.552,0,1-0.448,1-1S47.552,46,47,46z"/>
	<path fill="#010101" d="M21,4c-2.05,0-8,0.985-8,4c0,0.552,0.448,1,1,1s1-0.448,1-1c0-0.822,3.533-2,6-2c0.552,0,1-0.448,1-1
		S21.552,4,21,4z"/>
	<path fill="#010101" d="M1,44h4h38h4c0.552,0,1-0.448,1-1s-0.448-1-1-1h-3v-3c0-0.552-0.448-1-1-1h-1V18h3c0.552,0,1-0.448,1-1v-4
		c0-0.552-0.448-1-1-1h-2.046C42.612,8.209,40.015,0,24,0S5.388,8.209,5.046,12H3c-0.552,0-1,0.448-1,1v4c0,0.552,0.448,1,1,1h3v20
		H5c-0.552,0-1,0.448-1,1v3H1c-0.552,0-1,0.448-1,1S0.448,44,1,44z M40,38h-2V18h2V38z M32,38V18h4v20H32z M28,38V18h2v20H28z
		 M22,38V18h4v20H22z M18,38V18h2v20H18z M12,38V18h4v20H12z M24,2c13.951,0,16.586,6.359,16.95,10H7.05C7.414,8.359,10.049,2,24,2z
		 M4,14h2h36h2v2h-3H7H4V14z M8,18h2v20H8V18z M6,40h1h34h1v2H6V40z"/>
</g>
</svg>
