<?xml version="1.0" encoding="utf-8"?>
<!-- Generator: Adobe Illustrator 17.0.0, SVG Export Plug-In . SVG Version: 6.00 Build 0)  -->
<!DOCTYPE svg PUBLIC "-//W3C//DTD SVG 1.1//EN" "http://www.w3.org/Graphics/SVG/1.1/DTD/svg11.dtd">
<svg version="1.1" id="Layer_1" xmlns="http://www.w3.org/2000/svg" xmlns:xlink="http://www.w3.org/1999/xlink" x="0px" y="0px"
	 width="48px" height="48px" viewBox="0 0 48 48" enable-background="new 0 0 48 48" xml:space="preserve">
<g>
	<path fill="#231F20" d="M9.775,25.58c0.098,0.247,0.289,0.445,0.533,0.55c0.126,0.055,0.262,0.082,0.397,0.082
		c0.125,0,0.25-0.023,0.368-0.07l4.649-1.843c0.246-0.097,0.444-0.289,0.549-0.533l0.725-1.679l1.679,0.727
		c0.244,0.105,0.519,0.11,0.766,0.012l8.366-3.316l5.744,14.491c-4.42,0.27-8.442,1.757-11.193,4.195
		c-0.413,0.367-0.451,0.998-0.085,1.412c0.198,0.223,0.473,0.337,0.749,0.337c0.236,0,0.472-0.083,0.663-0.251
		c2.649-2.348,6.88-3.749,11.316-3.749h12c0.552,0,1-0.448,1-1s-0.448-1-1-1H35.68l-6.014-15.172l8.368-3.317
		c0.246-0.098,0.444-0.29,0.549-0.533l0.725-1.678l1.679,0.726c0.243,0.106,0.518,0.11,0.765,0.012l4.647-1.843
		c0.513-0.204,0.764-0.785,0.561-1.298l-0.736-1.86c-1.806-4.558-6.149-7.068-12.227-7.068c-3.142,0-6.656,0.695-10.219,2.002
		l-0.376-0.948c-0.203-0.513-0.782-0.762-1.298-0.561c-0.513,0.203-0.765,0.785-0.561,1.298l0.379,0.955
		C11.429,9.128,6.256,16.698,9.039,23.72L9.775,25.58z M23.579,6.125c3.649-1.446,7.252-2.211,10.419-2.211
		c5.202,0,8.884,2.062,10.369,5.806l0.368,0.93l-3.333,1.322l-2.217-0.958c-0.507-0.218-1.095,0.015-1.315,0.521l-0.958,2.215
		l-8.91,3.531c-0.001,0-0.002,0-0.003,0s-0.002,0.001-0.002,0.002l-8.908,3.53l-2.216-0.959c-0.244-0.105-0.519-0.11-0.766-0.012
		c-0.246,0.097-0.444,0.289-0.549,0.533L14.6,22.593l-3.333,1.321l-0.368-0.93C8.099,15.92,15.25,9.426,23.579,6.125z"/>
	<path fill="#231F20" d="M47,45.945c-1.387,0-3-1.311-3-3c0-0.552-0.448-1-1-1s-1,0.448-1,1c0,1.689-1.613,3-3,3s-3-1.311-3-3
		c0-0.552-0.448-1-1-1s-1,0.448-1,1c0,1.689-1.613,3-3,3s-3-1.311-3-3c0-0.552-0.448-1-1-1s-1,0.448-1,1c0,1.689-1.613,3-3,3
		s-3-1.311-3-3c0-0.552-0.448-1-1-1s-1,0.448-1,1c0,1.689-1.613,3-3,3s-3-1.311-3-3c0-0.552-0.448-1-1-1s-1,0.448-1,1
		c0,1.689-1.613,3-3,3s-3-1.311-3-3c0-0.552-0.448-1-1-1s-1,0.448-1,1c0,1.065-0.804,1.982-1.555,2.486
		c-0.459,0.307-0.582,0.928-0.275,1.387c0.306,0.458,0.927,0.582,1.387,0.275c0.551-0.369,1.022-0.807,1.399-1.288
		c0.926,1.276,2.424,2.14,4.044,2.14c1.594,0,3.071-0.837,4-2.08c0.929,1.243,2.406,2.08,4,2.08s3.071-0.837,4-2.08
		c0.929,1.243,2.406,2.08,4,2.08s3.071-0.837,4-2.08c0.929,1.243,2.406,2.08,4,2.08s3.071-0.837,4-2.08
		c0.929,1.243,2.406,2.08,4,2.08s3.071-0.837,4-2.08c0.929,1.243,2.406,2.08,4,2.08c0.552,0,1-0.448,1-1S47.552,45.945,47,45.945z"
		/>
</g>
</svg>
