<?xml version="1.0" encoding="utf-8"?>
<!-- Generator: Adobe Illustrator 17.0.0, SVG Export Plug-In . SVG Version: 6.00 Build 0)  -->
<!DOCTYPE svg PUBLIC "-//W3C//DTD SVG 1.1//EN" "http://www.w3.org/Graphics/SVG/1.1/DTD/svg11.dtd">
<svg version="1.1" id="Layer_1" xmlns="http://www.w3.org/2000/svg" xmlns:xlink="http://www.w3.org/1999/xlink" x="0px" y="0px"
	 width="48px" height="48px" viewBox="0 0 48 48" enable-background="new 0 0 48 48" xml:space="preserve">
<g>
	<path fill="#010101" d="M23,18h-3V7c0-0.552-0.448-1-1-1h-7V1c0-0.552-0.448-1-1-1s-1,0.448-1,1v5H5C4.448,6,4,6.448,4,7v11H1
		c-0.552,0-1,0.448-1,1v28c0,0.552,0.448,1,1,1h8h4h10c0.552,0,1-0.448,1-1V19C24,18.448,23.552,18,23,18z M6,8h12v10H6V8z M10,46
		v-2h2v2H10z M22,46h-8v-3c0-0.552-0.448-1-1-1H9c-0.552,0-1,0.448-1,1v3H2V20h3h14h3V46z"/>
	<path fill="#010101" d="M47,10H29c-0.552,0-1,0.448-1,1v36c0,0.552,0.448,1,1,1h8h4h6c0.552,0,1-0.448,1-1V11
		C48,10.448,47.552,10,47,10z M38,46v-2h2v2H38z M46,46h-4v-3c0-0.552-0.448-1-1-1h-4c-0.552,0-1,0.448-1,1v3h-6V12h16V46z"/>
	<path fill="#010101" d="M33,16h10c0.552,0,1-0.448,1-1s-0.448-1-1-1H33c-0.552,0-1,0.448-1,1S32.448,16,33,16z"/>
	<path fill="#010101" d="M33,20h10c0.552,0,1-0.448,1-1s-0.448-1-1-1H33c-0.552,0-1,0.448-1,1S32.448,20,33,20z"/>
	<path fill="#010101" d="M33,24h10c0.552,0,1-0.448,1-1s-0.448-1-1-1H33c-0.552,0-1,0.448-1,1S32.448,24,33,24z"/>
	<path fill="#010101" d="M33,28h10c0.552,0,1-0.448,1-1s-0.448-1-1-1H33c-0.552,0-1,0.448-1,1S32.448,28,33,28z"/>
	<path fill="#010101" d="M33,32h10c0.552,0,1-0.448,1-1s-0.448-1-1-1H33c-0.552,0-1,0.448-1,1S32.448,32,33,32z"/>
	<path fill="#010101" d="M33,36h10c0.552,0,1-0.448,1-1s-0.448-1-1-1H33c-0.552,0-1,0.448-1,1S32.448,36,33,36z"/>
	<path fill="#010101" d="M33,40h10c0.552,0,1-0.448,1-1s-0.448-1-1-1H33c-0.552,0-1,0.448-1,1S32.448,40,33,40z"/>
	<path fill="#010101" d="M5,24c-0.552,0-1,0.448-1,1s0.448,1,1,1h14c0.552,0,1-0.448,1-1s-0.448-1-1-1H5z"/>
	<path fill="#010101" d="M19,30H5c-0.552,0-1,0.448-1,1s0.448,1,1,1h14c0.552,0,1-0.448,1-1S19.552,30,19,30z"/>
	<path fill="#010101" d="M19,36H5c-0.552,0-1,0.448-1,1s0.448,1,1,1h14c0.552,0,1-0.448,1-1S19.552,36,19,36z"/>
	<path fill="#010101" d="M15,10H9c-0.552,0-1,0.448-1,1s0.448,1,1,1h6c0.552,0,1-0.448,1-1S15.552,10,15,10z"/>
	<path fill="#010101" d="M15,14H9c-0.552,0-1,0.448-1,1s0.448,1,1,1h6c0.552,0,1-0.448,1-1S15.552,14,15,14z"/>
</g>
</svg>
