<?xml version="1.0" encoding="utf-8"?>
<!-- Generator: Adobe Illustrator 17.0.0, SVG Export Plug-In . SVG Version: 6.00 Build 0)  -->
<!DOCTYPE svg PUBLIC "-//W3C//DTD SVG 1.1//EN" "http://www.w3.org/Graphics/SVG/1.1/DTD/svg11.dtd">
<svg version="1.1" id="Layer_1" xmlns="http://www.w3.org/2000/svg" xmlns:xlink="http://www.w3.org/1999/xlink" x="0px" y="0px"
	 width="48px" height="48px" viewBox="0 0 48 48" enable-background="new 0 0 48 48" xml:space="preserve">
<g>
	<path fill="#010101" d="M41.988,4.939c-0.006-0.091-0.023-0.179-0.054-0.265c-0.011-0.032-0.019-0.064-0.034-0.094
		c-0.047-0.102-0.108-0.198-0.189-0.281c-0.002-0.002-0.003-0.005-0.005-0.007l-3.999-3.999C37.519,0.106,37.266,0,37,0H11
		c-0.266,0-0.52,0.106-0.707,0.293L6.294,4.292C6.292,4.294,6.291,4.297,6.289,4.299C6.207,4.382,6.147,4.478,6.099,4.58
		C6.085,4.611,6.077,4.642,6.066,4.674C6.036,4.76,6.018,4.848,6.012,4.939C6.011,4.96,6,4.978,6,5v42c0,0.552,0.447,1,1,1h14h6h14
		c0.553,0,1-0.448,1-1V5C42,4.979,41.989,4.961,41.988,4.939z M11.414,2h25.172l2,2H9.414L11.414,2z M22,46v-6h4v6H22z M40,46H28v-7
		c0-0.552-0.447-1-1-1h-6c-0.553,0-1,0.448-1,1v7H8V6h32V46z"/>
	<path fill="#010101" d="M21,36h6c0.553,0,1-0.448,1-1v-6c0-0.552-0.447-1-1-1h-6c-0.553,0-1,0.448-1,1v6C20,35.552,20.447,36,21,36
		z M22,30h4v4h-4V30z"/>
	<path fill="#010101" d="M31,36h6c0.553,0,1-0.448,1-1v-6c0-0.552-0.447-1-1-1h-6c-0.553,0-1,0.448-1,1v6C30,35.552,30.447,36,31,36
		z M32,30h4v4h-4V30z"/>
	<path fill="#010101" d="M11,36h6c0.553,0,1-0.448,1-1v-6c0-0.552-0.447-1-1-1h-6c-0.553,0-1,0.448-1,1v6C10,35.552,10.447,36,11,36
		z M12,30h4v4h-4V30z"/>
	<path fill="#010101" d="M21,26h6c0.553,0,1-0.448,1-1v-6c0-0.552-0.447-1-1-1h-6c-0.553,0-1,0.448-1,1v6C20,25.552,20.447,26,21,26
		z M22,20h4v4h-4V20z"/>
	<path fill="#010101" d="M31,26h6c0.553,0,1-0.448,1-1v-6c0-0.552-0.447-1-1-1h-6c-0.553,0-1,0.448-1,1v6C30,25.552,30.447,26,31,26
		z M32,20h4v4h-4V20z"/>
	<path fill="#010101" d="M11,26h6c0.553,0,1-0.448,1-1v-6c0-0.552-0.447-1-1-1h-6c-0.553,0-1,0.448-1,1v6C10,25.552,10.447,26,11,26
		z M12,20h4v4h-4V20z"/>
	<path fill="#010101" d="M21,16h6c0.553,0,1-0.448,1-1V9c0-0.552-0.447-1-1-1h-6c-0.553,0-1,0.448-1,1v6C20,15.552,20.447,16,21,16z
		 M22,10h4v4h-4V10z"/>
	<path fill="#010101" d="M31,16h6c0.553,0,1-0.448,1-1V9c0-0.552-0.447-1-1-1h-6c-0.553,0-1,0.448-1,1v6C30,15.552,30.447,16,31,16z
		 M32,10h4v4h-4V10z"/>
	<path fill="#010101" d="M11,16h6c0.553,0,1-0.448,1-1V9c0-0.552-0.447-1-1-1h-6c-0.553,0-1,0.448-1,1v6C10,15.552,10.447,16,11,16z
		 M12,10h4v4h-4V10z"/>
</g>
</svg>
