<?xml version="1.0" encoding="utf-8"?>
<!-- Generator: Adobe Illustrator 17.0.0, SVG Export Plug-In . SVG Version: 6.00 Build 0)  -->
<!DOCTYPE svg PUBLIC "-//W3C//DTD SVG 1.1//EN" "http://www.w3.org/Graphics/SVG/1.1/DTD/svg11.dtd">
<svg version="1.1" id="Layer_1" xmlns="http://www.w3.org/2000/svg" xmlns:xlink="http://www.w3.org/1999/xlink" x="0px" y="0px"
	 width="48px" height="48px" viewBox="0 0 48 48" enable-background="new 0 0 48 48" xml:space="preserve">
<g>
	<path fill="#010101" d="M47,46h-7V10h1c0.553,0,1-0.448,1-1V7c0-0.424-0.268-0.802-0.667-0.943l-17-6
		c-0.215-0.076-0.451-0.076-0.666,0l-17,6C6.268,6.198,6,6.576,6,7v2c0,0.552,0.447,1,1,1h1v36H1c-0.553,0-1,0.448-1,1s0.447,1,1,1
		h8h12h6h12h8c0.553,0,1-0.448,1-1S47.553,46,47,46z M8,7.708l16-5.647l16,5.647V8h-1H9H8V7.708z M22,46v-8h4v8H22z M28,46v-9
		c0-0.552-0.447-1-1-1h-6c-0.553,0-1,0.448-1,1v9H10V10h28v36H28z"/>
	<path fill="#010101" d="M17,12h-4c-0.553,0-1,0.448-1,1v4c0,0.552,0.447,1,1,1h4c0.553,0,1-0.448,1-1v-4C18,12.448,17.553,12,17,12
		z M16,16h-2v-2h2V16z"/>
	<path fill="#010101" d="M27,12h-6c-0.553,0-1,0.448-1,1v4c0,0.552,0.447,1,1,1h6c0.553,0,1-0.448,1-1v-4C28,12.448,27.553,12,27,12
		z M26,16h-4v-2h4V16z"/>
	<path fill="#010101" d="M35,12h-4c-0.553,0-1,0.448-1,1v4c0,0.552,0.447,1,1,1h4c0.553,0,1-0.448,1-1v-4C36,12.448,35.553,12,35,12
		z M34,16h-2v-2h2V16z"/>
	<path fill="#010101" d="M17,20h-4c-0.553,0-1,0.448-1,1v4c0,0.552,0.447,1,1,1h4c0.553,0,1-0.448,1-1v-4C18,20.448,17.553,20,17,20
		z M16,24h-2v-2h2V24z"/>
	<path fill="#010101" d="M27,20h-6c-0.553,0-1,0.448-1,1v4c0,0.552,0.447,1,1,1h6c0.553,0,1-0.448,1-1v-4C28,20.448,27.553,20,27,20
		z M26,24h-4v-2h4V24z"/>
	<path fill="#010101" d="M35,20h-4c-0.553,0-1,0.448-1,1v4c0,0.552,0.447,1,1,1h4c0.553,0,1-0.448,1-1v-4C36,20.448,35.553,20,35,20
		z M34,24h-2v-2h2V24z"/>
	<path fill="#010101" d="M17,28h-4c-0.553,0-1,0.448-1,1v4c0,0.552,0.447,1,1,1h4c0.553,0,1-0.448,1-1v-4C18,28.448,17.553,28,17,28
		z M16,32h-2v-2h2V32z"/>
	<path fill="#010101" d="M27,28h-6c-0.553,0-1,0.448-1,1v4c0,0.552,0.447,1,1,1h6c0.553,0,1-0.448,1-1v-4C28,28.448,27.553,28,27,28
		z M26,32h-4v-2h4V32z"/>
	<path fill="#010101" d="M35,28h-4c-0.553,0-1,0.448-1,1v4c0,0.552,0.447,1,1,1h4c0.553,0,1-0.448,1-1v-4C36,28.448,35.553,28,35,28
		z M34,32h-2v-2h2V32z"/>
	<path fill="#010101" d="M17,36h-4c-0.553,0-1,0.448-1,1v4c0,0.552,0.447,1,1,1h4c0.553,0,1-0.448,1-1v-4C18,36.448,17.553,36,17,36
		z M16,40h-2v-2h2V40z"/>
	<path fill="#010101" d="M35,36h-4c-0.553,0-1,0.448-1,1v4c0,0.552,0.447,1,1,1h4c0.553,0,1-0.448,1-1v-4C36,36.448,35.553,36,35,36
		z M34,40h-2v-2h2V40z"/>
</g>
</svg>
