<?xml version="1.0" encoding="utf-8"?>
<!-- Generator: Adobe Illustrator 17.0.0, SVG Export Plug-In . SVG Version: 6.00 Build 0)  -->
<!DOCTYPE svg PUBLIC "-//W3C//DTD SVG 1.1//EN" "http://www.w3.org/Graphics/SVG/1.1/DTD/svg11.dtd">
<svg version="1.1" id="Layer_1" xmlns="http://www.w3.org/2000/svg" xmlns:xlink="http://www.w3.org/1999/xlink" x="0px" y="0px"
	 width="48px" height="48px" viewBox="0 0 48 48" enable-background="new 0 0 48 48" xml:space="preserve">
<g>
	<path fill="#010101" d="M26,26h-1v-1c0-0.552-0.447-1-1-1s-1,0.448-1,1v1h-1c-0.553,0-1,0.448-1,1s0.447,1,1,1h1v1
		c0,0.552,0.447,1,1,1s1-0.448,1-1v-1h1c0.553,0,1-0.448,1-1S26.553,26,26,26z"/>
	<path fill="#010101" d="M47,26h-6c-0.553,0-1,0.448-1,1v3h-2.418l-1.429-10H38c2.206,0,4-1.794,4-4V9c0-0.552-0.447-1-1-1h-4
		c-0.553,0-1,0.448-1,1v1c0,1.103-0.898,2-2,2c-1.103,0-2-0.897-2-2V9c0-0.552-0.447-1-1-1h-4c-0.553,0-1,0.448-1,1v1
		c0,0.737-0.405,1.375-1,1.722V4c0.082,0,0.163-0.01,0.242-0.03l4-1C29.687,2.859,30,2.459,30,2s-0.313-0.859-0.758-0.97l-4-1
		C25.163,0.01,25.082,0,25,0h-1c-0.553,0-1,0.448-1,1v2v8.722c-0.595-0.347-1-0.985-1-1.722V9c0-0.552-0.447-1-1-1h-4
		c-0.553,0-1,0.448-1,1v1c0,1.103-0.898,2-2,2c-1.103,0-2-0.897-2-2V9c0-0.552-0.447-1-1-1H7C6.447,8,6,8.448,6,9v7
		c0,2.206,1.794,4,4,4h1.847l-1.429,10H8v-3c0-0.552-0.447-1-1-1H1c-0.553,0-1,0.448-1,1v20c0,0.552,0.447,1,1,1h8h12
		c0.553,0,1-0.448,1-1v-8c0-1.103,0.897-2,2-2c1.102,0,2,0.897,2,2v8c0,0.552,0.447,1,1,1h12h8c0.553,0,1-0.448,1-1V27
		C48,26.448,47.553,26,47,26z M8,16v-6h2c0,2.206,1.794,4,4,4s4-1.794,4-4h2c0,2.206,1.794,4,4,4s4-1.794,4-4h2c0,2.206,1.794,4,4,4
		s4-1.794,4-4h2v6c0,1.103-0.898,2-2,2h-3H13h-3C8.897,18,8,17.103,8,16z M2,28h4v3c0,0.552,0.447,1,1,1h3.133l-2,14H2V28z M28,46
		v-7c0-2.206-1.794-4-4-4s-4,1.794-4,4v7h-9.847l3.714-26h20.266l3.714,26H28z M46,46h-6.133l-2-14H41c0.553,0,1-0.448,1-1v-3h4V46z
		"/>
</g>
</svg>
