<?xml version="1.0" encoding="utf-8"?>
<!-- Generator: Adobe Illustrator 17.0.0, SVG Export Plug-In . SVG Version: 6.00 Build 0)  -->
<!DOCTYPE svg PUBLIC "-//W3C//DTD SVG 1.1//EN" "http://www.w3.org/Graphics/SVG/1.1/DTD/svg11.dtd">
<svg version="1.1" id="Layer_1" xmlns="http://www.w3.org/2000/svg" xmlns:xlink="http://www.w3.org/1999/xlink" x="0px" y="0px"
	 width="48px" height="48px" viewBox="0 0 48 48" enable-background="new 0 0 48 48" xml:space="preserve">
<path fill="#010101" d="M39,0H9C4.038,0,0,4.038,0,9s4.038,9,9,9c1.902,0,3.627-0.765,4.89-2H14v31c0,0.552,0.448,1,1,1s1-0.448,1-1
	V16h4v31c0,0.552,0.448,1,1,1s1-0.448,1-1V16h4v31c0,0.552,0.448,1,1,1s1-0.448,1-1V16h4v31c0,0.552,0.448,1,1,1s1-0.448,1-1V16
	h0.11c1.263,1.235,2.988,2,4.89,2c4.962,0,9-4.038,9-9S43.962,0,39,0z M15.92,12h16.16c0.102,0.706,0.308,1.378,0.605,2h-17.37
	C15.612,13.378,15.818,12.706,15.92,12z M39,16c-2.757,0-5-2.243-5-5c0-1.654,1.346-3,3-3c0.551,0,1,0.449,1,1c0,0.552,0.448,1,1,1
	s1-0.448,1-1c0-1.654-1.346-3-3-3c-2.415,0-4.434,1.721-4.899,4H15.899C15.434,7.721,13.415,6,11,6C9.346,6,8,7.346,8,9
	c0,0.552,0.448,1,1,1s1-0.448,1-1c0-0.551,0.449-1,1-1c1.654,0,3,1.346,3,3c0,2.757-2.243,5-5,5c-3.86,0-7-3.14-7-7s3.14-7,7-7h30
	c3.86,0,7,3.14,7,7S42.86,16,39,16z"/>
</svg>
