<?xml version="1.0" encoding="utf-8"?>
<!-- Generator: Adobe Illustrator 17.0.0, SVG Export Plug-In . SVG Version: 6.00 Build 0)  -->
<!DOCTYPE svg PUBLIC "-//W3C//DTD SVG 1.1//EN" "http://www.w3.org/Graphics/SVG/1.1/DTD/svg11.dtd">
<svg version="1.1" id="Layer_1" xmlns="http://www.w3.org/2000/svg" xmlns:xlink="http://www.w3.org/1999/xlink" x="0px" y="0px"
	 width="48px" height="48px" viewBox="0 0 48 48" enable-background="new 0 0 48 48" xml:space="preserve">
<path fill="#010101" d="M41.062,18c0.266,0,0.52-0.105,0.707-0.293l6-6c0.391-0.391,0.391-1.023,0-1.414l-6-6
	C41.582,4.106,41.328,4,41.062,4h-17V1c0-0.552-0.447-1-1-1c-0.553,0-1,0.448-1,1v3h-15c-0.553,0-1,0.448-1,1v12
	c0,0.552,0.447,1,1,1h15v2h-15c-0.265,0-0.519,0.106-0.707,0.293l-6,6c-0.391,0.391-0.391,1.023,0,1.414l6,6
	C6.543,33.895,6.796,34,7.062,34h15v13c0,0.552,0.447,1,1,1c0.553,0,1-0.448,1-1V34h17c0.553,0,1-0.448,1-1V21c0-0.552-0.447-1-1-1
	h-17v-2H41.062z M40.063,32H7.477l-5-5l5-5h32.586V32z M8.062,6h32.586l5,5l-5,5H8.062V6z"/>
</svg>
