<?xml version="1.0" encoding="utf-8"?>
<!-- Generator: Adobe Illustrator 17.0.0, SVG Export Plug-In . SVG Version: 6.00 Build 0)  -->
<!DOCTYPE svg PUBLIC "-//W3C//DTD SVG 1.1//EN" "http://www.w3.org/Graphics/SVG/1.1/DTD/svg11.dtd">
<svg version="1.1" id="Layer_1" xmlns="http://www.w3.org/2000/svg" xmlns:xlink="http://www.w3.org/1999/xlink" x="0px" y="0px"
	 width="48px" height="48px" viewBox="0 0 48 48" enable-background="new 0 0 48 48" xml:space="preserve">
<path fill="#010101" d="M47.769,12.293l-6-6c-0.391-0.391-1.023-0.391-1.414,0l-6,6c-0.187,0.188-0.293,0.442-0.293,0.707v3h-2v-3
	c0-0.265-0.105-0.519-0.293-0.707l-7-7c-0.391-0.391-1.023-0.391-1.414,0l-7,7c-0.187,0.188-0.293,0.442-0.293,0.707v3h-2v-3
	c0-0.265-0.105-0.519-0.293-0.707l-6-6c-0.391-0.391-1.023-0.391-1.414,0l-6,6C0.168,12.481,0.062,12.735,0.062,13v28
	c0,0.552,0.447,1,1,1h12c0.553,0,1-0.448,1-1v-5h2v5c0,0.552,0.447,1,1,1h14c0.553,0,1-0.448,1-1v-5h2v5c0,0.552,0.447,1,1,1h12
	c0.553,0,1-0.448,1-1V13C48.062,12.735,47.957,12.481,47.769,12.293z M12.062,40h-10V13.414l5-5l5,5V40z M14.062,34V18h2v16H14.062z
	 M30.062,40h-12V13.414l6-6l6,6V40z M32.062,34V18h2v16H32.062z M46.062,40h-10V13.414l5-5l5,5V40z"/>
</svg>
