<?xml version="1.0" encoding="utf-8"?>
<!-- Generator: Adobe Illustrator 17.1.0, SVG Export Plug-In . SVG Version: 6.00 Build 0)  -->
<!DOCTYPE svg PUBLIC "-//W3C//DTD SVG 1.0//EN" "http://www.w3.org/TR/2001/REC-SVG-20010904/DTD/svg10.dtd">
<svg version="1.0" id="Layer_1" xmlns="http://www.w3.org/2000/svg" xmlns:xlink="http://www.w3.org/1999/xlink" x="0px" y="0px"
	 width="48px" height="48px" viewBox="0 0 48 48" enable-background="new 0 0 48 48" xml:space="preserve">
<path d="M24.01,0c-0.349,0-0.694,0.007-1.039,0.021C9.875,0.55,0,10.643,0,23.499C0,37.009,10.737,48,23.936,48
	C37.205,48,48,37.195,48,23.914C48,10.728,37.238,0,24.01,0z M2.048,24.914h11.085c0.206,3.298,0.907,6.646,2.111,10h-10.2
	C3.333,31.947,2.269,28.547,2.048,24.914z M13.063,22.914H2.028c0.095-3.657,1.064-7.051,2.727-10h9.931
	C13.604,16.146,13.059,19.496,13.063,22.914z M16.738,12.914h14.543c1.182,3.227,1.776,6.575,1.771,10H14.966
	C14.962,19.489,15.556,16.141,16.738,12.914z M15.044,24.914h17.931c-0.224,3.287-0.983,6.634-2.282,10H17.324
	C16.026,31.548,15.267,28.201,15.044,24.914z M34.885,24.914h11.09c-0.162,3.629-1.206,7.03-2.918,10H32.773
	C33.977,31.561,34.679,28.212,34.885,24.914z M34.955,22.914c0.004-3.418-0.541-6.768-1.622-10h9.684
	c1.735,2.965,2.793,6.367,2.958,10H34.955z M41.699,10.914h-9.106c-1.241-3.019-2.978-5.918-5.199-8.654
	C33.238,3.164,38.327,6.369,41.699,10.914z M24.555,2.014c2.539,2.81,4.508,5.791,5.909,8.9H17.556
	c1.401-3.11,3.371-6.093,5.911-8.903C23.648,2.007,23.828,2,24.01,2C24.192,2,24.373,2.009,24.555,2.014z M20.635,2.248
	c-2.225,2.741-3.966,5.643-5.209,8.667H6.043C9.376,6.318,14.528,3.12,20.635,2.248z M6.336,36.914h9.682
	c1.242,2.971,2.877,5.938,4.901,8.868C14.967,44.938,9.769,41.641,6.336,36.914z M23.526,45.989
	c-2.222-3.015-4.009-6.049-5.365-9.075h11.696c-1.356,3.025-3.143,6.059-5.365,9.072C24.307,45.99,24.122,46,23.936,46
	C23.798,46,23.663,45.992,23.526,45.989z M27.105,45.769c2.021-2.926,3.653-5.888,4.893-8.854h9.759
	C38.332,41.607,33.106,44.901,27.105,45.769z"/>
</svg>
