<?xml version="1.0" encoding="utf-8"?>
<!-- Generator: Adobe Illustrator 17.0.0, SVG Export Plug-In . SVG Version: 6.00 Build 0)  -->
<!DOCTYPE svg PUBLIC "-//W3C//DTD SVG 1.1//EN" "http://www.w3.org/Graphics/SVG/1.1/DTD/svg11.dtd">
<svg version="1.1" id="Layer_1" xmlns="http://www.w3.org/2000/svg" xmlns:xlink="http://www.w3.org/1999/xlink" x="0px" y="0px"
	 width="48px" height="48px" viewBox="0 0 48 48" enable-background="new 0 0 48 48" xml:space="preserve">
<g>
	<path fill="#010101" d="M47,46h-3V26.315l2.473,1.535c0.164,0.102,0.346,0.15,0.526,0.15c0.334,0,0.661-0.167,0.851-0.472
		c0.292-0.469,0.147-1.086-0.322-1.377L42,22.72V14c0-0.552-0.448-1-1-1h-4c-0.552,0-1,0.448-1,1v4.996L18.528,8.151
		c-0.469-0.293-1.086-0.148-1.377,0.322c-0.292,0.469-0.147,1.086,0.322,1.377L20,11.418v10.905L0.628,30.072
		c-0.513,0.205-0.762,0.787-0.557,1.3C0.228,31.763,0.603,32.001,1,32.001c0.124,0,0.25-0.024,0.371-0.072L4,30.877V46H1
		c-0.552,0-1,0.448-1,1s0.448,1,1,1h8h8h8h14h8c0.552,0,1-0.448,1-1S47.552,46,47,46z M38,15h2v6.478l-2-1.241V15z M42,25.074V46h-2
		v-7c0-0.552-0.448-1-1-1H25c-0.552,0-1,0.448-1,1v7h-2V12.66L42,25.074z M6,30.077l14-5.6V46h-2v-9c0-0.552-0.448-1-1-1H9
		c-0.552,0-1,0.448-1,1v9H6V30.077z M10,46v-8h6v8H10z M26,40h5v6h-5V40z M33,46v-6h5v6H33z"/>
	<path fill="#010101" d="M28,29c2.206,0,4-1.794,4-4s-1.794-4-4-4s-4,1.794-4,4S25.794,29,28,29z M28,23c1.103,0,2,0.897,2,2
		s-0.897,2-2,2s-2-0.897-2-2S26.897,23,28,23z"/>
	<path fill="#010101" d="M9,34h8c0.552,0,1-0.448,1-1s-0.448-1-1-1H9c-0.552,0-1,0.448-1,1S8.448,34,9,34z"/>
</g>
</svg>
