<?xml version="1.0" encoding="utf-8"?>
<!-- Generator: Adobe Illustrator 17.0.0, SVG Export Plug-In . SVG Version: 6.00 Build 0)  -->
<!DOCTYPE svg PUBLIC "-//W3C//DTD SVG 1.1//EN" "http://www.w3.org/Graphics/SVG/1.1/DTD/svg11.dtd">
<svg version="1.1" id="Layer_1" xmlns="http://www.w3.org/2000/svg" xmlns:xlink="http://www.w3.org/1999/xlink" x="0px" y="0px"
	 width="48px" height="48px" viewBox="0 0 48 48" enable-background="new 0 0 48 48" xml:space="preserve">
<g>
	<path fill="#010101" d="M34.062,9c0.553,0,1-0.448,1-1c0-1.331,0.483-1.629,1.358-2.171C37.536,5.14,39.062,4.197,39.062,1
		c0-0.552-0.447-1-1-1c-0.553,0-1,0.448-1,1c0,2.082-0.71,2.521-1.692,3.128C34.396,4.73,33.062,5.554,33.062,8
		C33.062,8.552,33.509,9,34.062,9z"/>
	<path fill="#010101" d="M39.062,9c0.553,0,1-0.448,1-1c0-1.331,0.483-1.629,1.358-2.171C42.536,5.14,44.062,4.197,44.062,1
		c0-0.552-0.447-1-1-1c-0.553,0-1,0.448-1,1c0,2.082-0.71,2.521-1.692,3.128C39.396,4.73,38.062,5.554,38.062,8
		C38.062,8.552,38.509,9,39.062,9z"/>
	<path fill="#010101" d="M41.062,27c-0.553,0-1,0.448-1,1v18h-10V32h-12v14h-10V27c0-0.552-0.447-1-1-1c-0.553,0-1,0.448-1,1v21h14
		V34h8v14h14V28C42.062,27.448,41.615,27,41.062,27z"/>
	<path fill="#010101" d="M47.753,25.277l-7.691-7.357V10h-8c-0.082,0-0.155,0.028-0.232,0.047l-7.768-7.431L0.371,25.278
		c-0.398,0.382-0.413,1.015-0.031,1.414c0.382,0.399,1.015,0.412,1.414,0.031L24.062,5.384l22.309,21.339
		C46.565,26.908,46.813,27,47.062,27c0.264,0,0.527-0.103,0.722-0.309C48.166,26.292,48.151,25.659,47.753,25.277z M38.062,12v4.007
		L33.872,12H38.062z"/>
</g>
</svg>
