<?xml version="1.0" encoding="utf-8"?>
<!-- Generator: Adobe Illustrator 17.0.0, SVG Export Plug-In . SVG Version: 6.00 Build 0)  -->
<!DOCTYPE svg PUBLIC "-//W3C//DTD SVG 1.1//EN" "http://www.w3.org/Graphics/SVG/1.1/DTD/svg11.dtd">
<svg version="1.1" id="Layer_1" xmlns="http://www.w3.org/2000/svg" xmlns:xlink="http://www.w3.org/1999/xlink" x="0px" y="0px"
	 width="48px" height="48px" viewBox="0 0 48 48" enable-background="new 0 0 48 48" xml:space="preserve">
<g>
	<path fill="#010101" d="M47.062,46h-5V28h5c0.432,0,0.815-0.277,0.95-0.687c0.135-0.41-0.008-0.86-0.355-1.117l-5.595-4.135V14
		c0-0.552-0.447-1-1-1h-6c-0.553,0-1,0.448-1,1v2.148l-9.405-6.952c-0.353-0.261-0.835-0.261-1.189,0l-23,17
		c-0.347,0.257-0.491,0.707-0.356,1.117C0.248,27.723,0.63,28,1.062,28h5v18h-5c-0.553,0-1,0.448-1,1s0.447,1,1,1h6h4h10h20h6
		c0.553,0,1-0.448,1-1S47.615,46,47.062,46z M36.062,15h4v5.582l-4-2.957V15z M24.062,11.244L44.028,26h-2.966h-34H4.098
		L24.062,11.244z M12.062,46v-2h1h6h1v2H12.062z M18.062,42h-4v-8h4V42z M22.062,46v-3c0-0.552-0.447-1-1-1h-1v-9
		c0-0.552-0.447-1-1-1h-6c-0.553,0-1,0.448-1,1v9h-1c-0.553,0-1,0.448-1,1v3h-2V28h32v18H22.062z"/>
	<path fill="#010101" d="M35.062,32h-10c-0.553,0-1,0.448-1,1v6c0,0.552,0.447,1,1,1h10c0.553,0,1-0.448,1-1v-6
		C36.062,32.448,35.615,32,35.062,32z M34.062,38h-8v-4h8V38z"/>
</g>
</svg>
