<?xml version="1.0" encoding="utf-8"?>
<!-- Generator: Adobe Illustrator 17.0.0, SVG Export Plug-In . SVG Version: 6.00 Build 0)  -->
<!DOCTYPE svg PUBLIC "-//W3C//DTD SVG 1.1//EN" "http://www.w3.org/Graphics/SVG/1.1/DTD/svg11.dtd">
<svg version="1.1" id="Layer_1" xmlns="http://www.w3.org/2000/svg" xmlns:xlink="http://www.w3.org/1999/xlink" x="0px" y="0px"
	 width="48px" height="48px" viewBox="0 0 48 48" enable-background="new 0 0 48 48" xml:space="preserve">
<path fill="#010101" d="M47,24h-7.806L38,23.523V17c0-7.382-5.747-13.433-13-13.949V1c0-0.552-0.447-1-1-1s-1,0.448-1,1v2.051
	C15.747,3.567,10,9.618,10,17v6.523L8.807,24H1c-0.553,0-1,0.448-1,1v16c0,0.552,0.447,1,1,1h7v5c0,0.552,0.447,1,1,1h30
	c0.553,0,1-0.448,1-1v-5h7c0.553,0,1-0.448,1-1V25C48,24.448,47.553,24,47,24z M28,42V30h4v12H28z M22,42V30h4v12H22z M16,42V30h4
	v12H16z M10,42V30h4v12H10z M24,20.077l14,5.6V28H10v-2.323L24,20.077z M34,30h4v12h-4V30z M24.371,18.071
	C24.252,18.024,24.127,18,24.001,18H36v4.723L24.371,18.071z M24,5c6.279,0,11.438,4.85,11.949,11H12.051C12.562,9.85,17.721,5,24,5
	z M12,18h11.999c-0.126,0-0.251,0.024-0.37,0.071L12,22.723V18z M2,40V26h6v14H2z M10,46v-2h28v2H10z M46,40h-6V26h6V40z"/>
</svg>
