<?xml version="1.0" encoding="utf-8"?>
<!-- Generator: Adobe Illustrator 17.0.0, SVG Export Plug-In . SVG Version: 6.00 Build 0)  -->
<!DOCTYPE svg PUBLIC "-//W3C//DTD SVG 1.1//EN" "http://www.w3.org/Graphics/SVG/1.1/DTD/svg11.dtd">
<svg version="1.1" id="Layer_1" xmlns="http://www.w3.org/2000/svg" xmlns:xlink="http://www.w3.org/1999/xlink" x="0px" y="0px"
	 width="48px" height="48px" viewBox="0 0 48 48" enable-background="new 0 0 48 48" xml:space="preserve">
<g>
	<path fill="#010101" d="M37,46h-5V22h1c0.553,0,1-0.448,1-1s-0.447-1-1-1h-2h-1v-8h1c0.553,0,1-0.448,1-1s-0.447-1-1-1h-1.091
		C29.486,7.493,27.507,5.514,25,5.09V1c0-0.552-0.447-1-1-1s-1,0.448-1,1v4.09c-2.508,0.423-4.487,2.402-4.911,4.91H17
		c-0.553,0-1,0.448-1,1s0.447,1,1,1h1v8h-1h-2c-0.553,0-1,0.448-1,1s0.447,1,1,1h1v24h-5c-0.553,0-1,0.448-1,1s0.447,1,1,1h6h4h6h4
		h6c0.553,0,1-0.448,1-1S37.553,46,37,46z M23.999,7c1.859,0,3.411,1.279,3.858,3h-7.716C20.588,8.279,22.14,7,23.999,7z M20,12h8v8
		h-8V12z M22,46v-4h4v4H22z M28,46v-5c0-0.552-0.447-1-1-1h-6c-0.553,0-1,0.448-1,1v5h-2V22h1h10h1v24H28z"/>
	<path fill="#010101" d="M0.683,9.949l12,4c0.105,0.035,0.211,0.052,0.316,0.052c0.419,0,0.809-0.266,0.948-0.685
		c0.175-0.524-0.109-1.09-0.632-1.265l-12-4C0.787,7.875,0.226,8.16,0.051,8.684C-0.124,9.208,0.159,9.774,0.683,9.949z"/>
	<path fill="#010101" d="M13.948,16.684c-0.175-0.523-0.738-0.807-1.265-0.632l-12,4c-0.524,0.175-0.807,0.741-0.632,1.265
		c0.139,0.419,0.529,0.684,0.948,0.684c0.104,0,0.211-0.017,0.317-0.052l12-4C13.84,17.774,14.123,17.208,13.948,16.684z"/>
	<path fill="#010101" d="M34.999,14.001c0.104,0,0.211-0.017,0.317-0.052l12-4c0.524-0.175,0.807-0.741,0.632-1.265
		c-0.175-0.524-0.737-0.808-1.265-0.632l-12,4c-0.524,0.175-0.807,0.741-0.632,1.265C34.19,13.736,34.58,14.001,34.999,14.001z"/>
	<path fill="#010101" d="M47.316,20.052l-12-4c-0.528-0.176-1.09,0.109-1.265,0.632c-0.175,0.524,0.109,1.09,0.632,1.265l12,4
		c0.105,0.035,0.211,0.052,0.316,0.052c0.419,0,0.809-0.266,0.949-0.684C48.123,20.793,47.84,20.227,47.316,20.052z"/>
	<path fill="#010101" d="M5,14c-0.553,0-1,0.448-1,1s0.447,1,1,1h4c0.553,0,1-0.448,1-1s-0.447-1-1-1H5z"/>
	<path fill="#010101" d="M39,14c-0.553,0-1,0.448-1,1s0.447,1,1,1h4c0.553,0,1-0.448,1-1s-0.447-1-1-1H39z"/>
</g>
</svg>
