<?xml version="1.0" encoding="utf-8"?>
<!-- Generator: Adobe Illustrator 17.0.0, SVG Export Plug-In . SVG Version: 6.00 Build 0)  -->
<!DOCTYPE svg PUBLIC "-//W3C//DTD SVG 1.1//EN" "http://www.w3.org/Graphics/SVG/1.1/DTD/svg11.dtd">
<svg version="1.1" id="Layer_1" xmlns="http://www.w3.org/2000/svg" xmlns:xlink="http://www.w3.org/1999/xlink" x="0px" y="0px"
	 width="48px" height="48px" viewBox="0 0 48 48" enable-background="new 0 0 48 48" xml:space="preserve">
<path fill="#010101" d="M47,46H30.316l1.356-7.689l0.987,0.174c0.059,0.01,0.117,0.015,0.175,0.015c0.477,0,0.898-0.341,0.982-0.826
	c0.097-0.544-0.266-1.063-0.81-1.159l-0.986-0.174l1.042-5.909l0.987,0.174c0.059,0.01,0.117,0.015,0.175,0.015
	c0.476,0,0.898-0.341,0.983-0.826c0.096-0.544-0.267-1.063-0.811-1.159l-0.986-0.174l1.042-5.908l0.985,0.174
	c0.059,0.01,0.117,0.015,0.175,0.015c0.477,0,0.899-0.341,0.983-0.826c0.096-0.544-0.267-1.063-0.811-1.159l-0.984-0.174
	l1.042-5.909l0.988,0.174c0.059,0.01,0.117,0.015,0.175,0.015c0.476,0,0.898-0.342,0.983-0.826c0.096-0.544-0.267-1.063-0.811-1.159
	l-1.971-0.348c0,0-0.001,0-0.001,0l-2.954-0.521l0.695-3.939l0.985,0.174c0.059,0.01,0.117,0.015,0.175,0.015
	c0.476,0,0.898-0.342,0.983-0.826c0.096-0.544-0.267-1.063-0.811-1.159l-5.907-1.042l0.519-2.953
	c0.095-0.544-0.268-1.062-0.812-1.158c-0.544-0.094-1.061,0.267-1.158,0.811l-0.519,2.953l-5.91-1.042
	c-0.544-0.097-1.062,0.268-1.158,0.811C19.233,5.2,19.596,5.719,20.14,5.815l0.985,0.174l-0.694,3.939l-2.956-0.521c0,0,0,0,0,0
	l-1.968-0.347c-0.544-0.095-1.062,0.268-1.158,0.811c-0.096,0.544,0.267,1.063,0.811,1.159l0.964,0.17l-1.155,5.89l-0.854-0.151
	c-0.542-0.097-1.063,0.267-1.158,0.811c-0.096,0.544,0.267,1.063,0.811,1.159l0.816,0.144L13.43,24.94l-0.702-0.124
	c-0.545-0.094-1.062,0.268-1.158,0.811c-0.096,0.544,0.267,1.063,0.811,1.159l0.664,0.117l-1.155,5.889l-0.551-0.097
	c-0.542-0.096-1.063,0.268-1.158,0.811c-0.096,0.544,0.267,1.063,0.811,1.159l0.513,0.09L9.301,46H1c-0.553,0-1,0.448-1,1
	s0.447,1,1,1h9.125h7h5h7H47c0.553,0,1-0.448,1-1S47.553,46,47,46z M23.094,6.336l3.94,0.694l0.002,0c0,0,0,0,0,0
	c0,0,0.001,0,0.001,0l3.936,0.694l-0.695,3.939L22.4,10.275L23.094,6.336z M18.095,11.547l9.924,1.75l2.896,0.511
	c0,0,0.001,0,0.001,0l2.954,0.521l-1.042,5.908L16.94,17.436L18.095,11.547z M16.555,19.399l15.926,2.808l-1.042,5.908
	l-16.038-2.828L16.555,19.399z M15.016,27.251l16.076,2.834l-1.042,5.909L13.861,33.14L15.016,27.251z M18.451,46l1.37-4.796
	l2.166,0.542L21.278,46H18.451z M23.305,46l0.806-4.835c0.086-0.515-0.238-1.009-0.744-1.135l-4-1
	c-0.518-0.127-1.055,0.175-1.204,0.695L16.37,46h-5.03l2.137-10.897l16.226,2.861L28.286,46H23.305z"/>
</svg>
