<?xml version="1.0" encoding="utf-8"?>
<!-- Generator: Adobe Illustrator 17.0.0, SVG Export Plug-In . SVG Version: 6.00 Build 0)  -->
<!DOCTYPE svg PUBLIC "-//W3C//DTD SVG 1.1//EN" "http://www.w3.org/Graphics/SVG/1.1/DTD/svg11.dtd">
<svg version="1.1" id="Layer_1" xmlns="http://www.w3.org/2000/svg" xmlns:xlink="http://www.w3.org/1999/xlink" x="0px" y="0px"
	 width="48px" height="48px" viewBox="0 0 48 48" enable-background="new 0 0 48 48" xml:space="preserve">
<g>
	<path fill="#010101" d="M47,46H1c-0.552,0-1,0.448-1,1s0.448,1,1,1h46c0.552,0,1-0.448,1-1S47.552,46,47,46z"/>
	<path fill="#010101" d="M1,44h4h38h4c0.552,0,1-0.448,1-1s-0.448-1-1-1h-3v-3c0-0.552-0.448-1-1-1h-1V18h3c0.552,0,1-0.448,1-1
		v-3.901c0.004-0.034,0.02-0.064,0.02-0.099c0-0.422-0.262-0.784-0.632-0.93L24.496,0.132c-0.307-0.176-0.684-0.176-0.992,0l-21,12
		c-0.05,0.029-0.087,0.071-0.13,0.106c-0.033,0.027-0.069,0.049-0.098,0.08c-0.074,0.078-0.133,0.167-0.177,0.263
		c-0.005,0.012-0.015,0.021-0.02,0.032c-0.047,0.111-0.067,0.231-0.071,0.353C2.006,12.979,2,12.989,2,13v4c0,0.552,0.448,1,1,1h3
		v20H5c-0.552,0-1,0.448-1,1v3H1c-0.552,0-1,0.448-1,1S0.448,44,1,44z M40,38h-2V18h2V38z M32,38V18h4v20H32z M28,38V18h2v20H28z
		 M22,38V18h4v20H22z M18,38V18h2v20H18z M12,38V18h4v20H12z M24,2.152L41.235,12H6.766L24,2.152z M4,14h40v2h-3H7H4V14z M8,18h2v20
		H8V18z M6,40h1h34h1v2H6V40z"/>
</g>
</svg>
