<?xml version="1.0" encoding="utf-8"?>
<!-- Generator: Adobe Illustrator 17.0.0, SVG Export Plug-In . SVG Version: 6.00 Build 0)  -->
<!DOCTYPE svg PUBLIC "-//W3C//DTD SVG 1.1//EN" "http://www.w3.org/Graphics/SVG/1.1/DTD/svg11.dtd">
<svg version="1.1" id="Layer_1" xmlns="http://www.w3.org/2000/svg" xmlns:xlink="http://www.w3.org/1999/xlink" x="0px" y="0px"
	 width="48px" height="48px" viewBox="0 0 48 48" enable-background="new 0 0 48 48" xml:space="preserve">
<path fill="#010101" d="M40.8,36.4L33,26h4c0.369,0,0.707-0.203,0.882-0.529c0.174-0.325,0.155-0.719-0.05-1.026L30.869,14H33
	c0.369,0,0.707-0.203,0.882-0.528c0.174-0.325,0.155-0.719-0.05-1.026l-8-12c-0.371-0.557-1.293-0.557-1.664,0l-8,12
	c-0.205,0.306-0.224,0.701-0.05,1.026C16.292,13.797,16.631,14,17,14h2.131l-6.963,10.446c-0.205,0.306-0.224,0.701-0.05,1.026
	C12.292,25.797,12.631,26,13,26h4L9.2,36.4c-0.227,0.303-0.264,0.708-0.095,1.047C9.275,37.786,9.621,38,10,38h14v9
	c0,0.552,0.448,1,1,1s1-0.448,1-1v-9h14c0.379,0,0.725-0.214,0.895-0.553C41.064,37.108,41.028,36.703,40.8,36.4z M12,36l7.799-10.4
	c0.228-0.303,0.265-0.708,0.095-1.047C19.725,24.214,19.379,24,19,24h-4.131l6.963-10.446c0.205-0.306,0.224-0.701,0.05-1.026
	C21.707,12.203,21.369,12,21,12h-2.131L25,2.803L31.131,12H29c-0.369,0-0.708,0.203-0.882,0.529
	c-0.174,0.325-0.155,0.719,0.05,1.026L35.131,24H31c-0.379,0-0.725,0.214-0.895,0.553c-0.169,0.339-0.133,0.744,0.095,1.047L38,36
	H12z"/>
</svg>
