<?xml version="1.0" encoding="utf-8"?>
<!-- Generator: Adobe Illustrator 17.0.0, SVG Export Plug-In . SVG Version: 6.00 Build 0)  -->
<!DOCTYPE svg PUBLIC "-//W3C//DTD SVG 1.1//EN" "http://www.w3.org/Graphics/SVG/1.1/DTD/svg11.dtd">
<svg version="1.1" id="Layer_1" xmlns="http://www.w3.org/2000/svg" xmlns:xlink="http://www.w3.org/1999/xlink" x="0px" y="0px"
	 width="48px" height="48px" viewBox="0 0 48 48" enable-background="new 0 0 48 48" xml:space="preserve">
<path fill="#010101" d="M39.062,10c-0.515,0-1.031,0.045-1.544,0.136C35.815,4.205,30.312,0,24.062,0
	c-4.655,0-8.921,2.268-11.542,6.1C5.852,5.196,0.062,10.454,0.062,17c0,6.065,4.935,11,11,11c2.182,0,4.269-0.635,6.076-1.842
	c1.528,0.873,3.197,1.442,4.924,1.693V47c0,0.552,0.448,1,1,1c0.553,0,1-0.448,1-1v-6.586l3.981-3.981
	C28.638,36.785,29.322,37,30.062,37c2.206,0,4-1.794,4-4s-1.794-4-4-4s-4,1.794-4,4c0,0.74,0.215,1.424,0.567,2.019l-2.567,2.567V28
	c3.053,0,6.014-1.004,8.441-2.846C34.2,26.975,36.539,28,39.062,28c4.963,0,9-4.038,9-9S44.024,10,39.062,10z M30.062,31
	c1.103,0,2,0.897,2,2s-0.897,2-2,2c-1.103,0-2-0.897-2-2S28.959,31,30.062,31z M39.062,26c-2.233,0-4.282-1.036-5.621-2.842
	c-0.167-0.225-0.42-0.369-0.698-0.399c-0.035-0.003-0.07-0.005-0.105-0.005c-0.242,0-0.477,0.088-0.661,0.249
	C29.78,24.936,26.97,26,24.062,26c-2.278,0-4.501-0.65-6.431-1.88c-0.353-0.226-0.808-0.207-1.142,0.047
	C14.908,25.366,13.032,26,11.062,26c-4.962,0-9-4.038-9-9c0-5.535,5.062-9.941,10.748-8.826c0.408,0.083,0.824-0.101,1.043-0.456
	C16.063,4.138,19.879,2,24.062,2c5.652,0,10.591,4.011,11.743,9.538c0.057,0.274,0.226,0.51,0.466,0.654
	c0.24,0.145,0.53,0.181,0.797,0.101C37.725,12.099,38.396,12,39.062,12c3.86,0,7,3.14,7,7S42.922,26,39.062,26z"/>
</svg>
