<?xml version="1.0" encoding="utf-8"?>
<!-- Generator: Adobe Illustrator 17.0.0, SVG Export Plug-In . SVG Version: 6.00 Build 0)  -->
<!DOCTYPE svg PUBLIC "-//W3C//DTD SVG 1.1//EN" "http://www.w3.org/Graphics/SVG/1.1/DTD/svg11.dtd">
<svg version="1.1" id="Layer_1" xmlns="http://www.w3.org/2000/svg" xmlns:xlink="http://www.w3.org/1999/xlink" x="0px" y="0px"
	 width="48px" height="48px" viewBox="0 0 48 48" enable-background="new 0 0 48 48" xml:space="preserve">
<g>
	<path fill="#231F20" d="M24,0C10.767,0,0,10.767,0,24c0,13.233,10.767,24,24,24c13.233,0,24-10.767,24-24S37.233,0,24,0z M24,46
		C11.869,46,2,36.131,2,24S11.869,2,24,2s22,9.869,22,22S36.131,46,24,46z"/>
	<path fill="#231F20" d="M31.471,14.118c-0.325-0.174-0.719-0.155-1.026,0.05L23,19.131V15c0-0.386-0.223-0.738-0.571-0.904
		c-0.35-0.165-0.764-0.116-1.062,0.13l-11,9C10.135,23.416,10,23.7,10,24s0.135,0.584,0.367,0.774l11,9
		C21.549,33.923,21.773,34,22,34c0.146,0,0.292-0.032,0.428-0.096C22.777,33.738,23,33.386,23,33v-4.131l7.446,4.963
		c0.306,0.205,0.701,0.224,1.026,0.05C31.797,33.708,32,33.369,32,33V15C32,14.631,31.797,14.293,31.471,14.118z M30,31.131
		l-7.445-4.963C22.387,26.056,22.194,26,22,26c-0.162,0-0.324,0.039-0.472,0.118C21.203,26.293,21,26.631,21,27v3.89L12.579,24
		L21,17.11V21c0,0.369,0.203,0.708,0.529,0.882c0.323,0.174,0.719,0.154,1.026-0.05L30,16.869V31.131z"/>
</g>
</svg>
