<?xml version="1.0" encoding="utf-8"?>
<!-- Generator: Adobe Illustrator 17.0.0, SVG Export Plug-In . SVG Version: 6.00 Build 0)  -->
<!DOCTYPE svg PUBLIC "-//W3C//DTD SVG 1.1//EN" "http://www.w3.org/Graphics/SVG/1.1/DTD/svg11.dtd">
<svg version="1.1" id="Layer_1" xmlns="http://www.w3.org/2000/svg" xmlns:xlink="http://www.w3.org/1999/xlink" x="0px" y="0px"
	 width="48px" height="48px" viewBox="0 0 48 48" enable-background="new 0 0 48 48" xml:space="preserve">
<g>
	<path fill="#231F20" d="M47,4H1C0.447,4,0,4.448,0,5v40c0,0.552,0.447,1,1,1h46c0.553,0,1-0.448,1-1V5C48,4.448,47.553,4,47,4z
		 M2,6h4v38H2V6z M46,44H8V6h38V44z"/>
	<path fill="#231F20" d="M27,42c9.374,0,17-7.626,17-17S36.374,8,27,8s-17,7.626-17,17S17.626,42,27,42z M27,10
		c8.271,0,15,6.729,15,15s-6.729,15-15,15c-8.272,0-15-6.729-15-15S18.728,10,27,10z"/>
	<path fill="#231F20" d="M27,30c2.757,0,5-2.243,5-5s-2.243-5-5-5s-5,2.243-5,5S24.243,30,27,30z M27,22c1.654,0,3,1.346,3,3
		s-1.346,3-3,3s-3-1.346-3-3S25.346,22,27,22z"/>
	<circle fill="#231F20" cx="27" cy="25" r="1"/>
</g>
</svg>
