<?xml version="1.0" encoding="utf-8"?>
<!-- Generator: Adobe Illustrator 17.0.0, SVG Export Plug-In . SVG Version: 6.00 Build 0)  -->
<!DOCTYPE svg PUBLIC "-//W3C//DTD SVG 1.1//EN" "http://www.w3.org/Graphics/SVG/1.1/DTD/svg11.dtd">
<svg version="1.1" id="Layer_1" xmlns="http://www.w3.org/2000/svg" xmlns:xlink="http://www.w3.org/1999/xlink" x="0px" y="0px"
	 width="48px" height="48px" viewBox="0 0 48 48" enable-background="new 0 0 48 48" xml:space="preserve">
<g>
	<path fill="#231F20" d="M24,0C10.767,0,0,10.767,0,24c0,13.233,10.767,24,24,24c13.233,0,24-10.767,24-24S37.233,0,24,0z M24,46
		C11.869,46,2,36.131,2,24S11.869,2,24,2s22,9.869,22,22S36.131,46,24,46z"/>
	<path fill="#231F20" d="M33,28H15c-0.553,0-1,0.448-1,1v4c0,0.552,0.447,1,1,1h18c0.553,0,1-0.448,1-1v-4
		C34,28.448,33.553,28,33,28z M32,32H16v-2h16V32z"/>
	<path fill="#231F20" d="M15,26h18c0.394,0,0.753-0.232,0.913-0.593c0.161-0.361,0.095-0.783-0.17-1.076l-9-10
		c-0.378-0.422-1.107-0.422-1.486,0l-9,10c-0.265,0.294-0.331,0.715-0.17,1.076C14.247,25.768,14.605,26,15,26z M24,16.495
		L30.755,24h-13.51L24,16.495z"/>
</g>
</svg>
