<?xml version="1.0" encoding="utf-8"?>
<!-- Generator: Adobe Illustrator 17.0.0, SVG Export Plug-In . SVG Version: 6.00 Build 0)  -->
<!DOCTYPE svg PUBLIC "-//W3C//DTD SVG 1.1//EN" "http://www.w3.org/Graphics/SVG/1.1/DTD/svg11.dtd">
<svg version="1.1" id="Layer_1" xmlns="http://www.w3.org/2000/svg" xmlns:xlink="http://www.w3.org/1999/xlink" x="0px" y="0px"
	 width="48px" height="48px" viewBox="0 0 48 48" enable-background="new 0 0 48 48" xml:space="preserve">
<g>
	<path fill="#231F20" d="M24,0C10.767,0,0,10.767,0,24c0,13.233,10.767,24,24,24c13.233,0,24-10.767,24-24S37.233,0,24,0z M24,46
		C11.869,46,2,36.131,2,24S11.869,2,24,2s22,9.869,22,22S36.131,46,24,46z"/>
	<path fill="#231F20" d="M26.633,14.226c-0.299-0.246-0.713-0.296-1.062-0.13C25.223,14.262,25,14.614,25,15v4.131l-7.446-4.963
		c-0.306-0.206-0.702-0.224-1.026-0.05C16.203,14.293,16,14.631,16,15v18c0,0.369,0.203,0.708,0.529,0.882
		c0.324,0.173,0.719,0.154,1.026-0.05L25,28.869V33c0,0.386,0.223,0.738,0.571,0.904C25.708,33.968,25.854,34,26,34
		c0.227,0,0.451-0.077,0.633-0.226l11-9C37.865,24.584,38,24.3,38,24s-0.135-0.584-0.367-0.774L26.633,14.226z M27,30.89V27
		c0-0.369-0.203-0.707-0.529-0.881c-0.324-0.174-0.719-0.155-1.026,0.05L18,31.132V16.869l7.446,4.963
		c0.306,0.205,0.702,0.223,1.026,0.05C26.797,21.708,27,21.369,27,21v-3.89L35.421,24L27,30.89z"/>
</g>
</svg>
