<?xml version="1.0" encoding="utf-8"?>
<!-- Generator: Adobe Illustrator 17.0.0, SVG Export Plug-In . SVG Version: 6.00 Build 0)  -->
<!DOCTYPE svg PUBLIC "-//W3C//DTD SVG 1.1//EN" "http://www.w3.org/Graphics/SVG/1.1/DTD/svg11.dtd">
<svg version="1.1" id="Layer_1" xmlns="http://www.w3.org/2000/svg" xmlns:xlink="http://www.w3.org/1999/xlink" x="0px" y="0px"
	 width="48px" height="48px" viewBox="0 0 48 48" enable-background="new 0 0 48 48" xml:space="preserve">
<g>
	<path fill="#231F20" d="M24,0C10.767,0,0,10.767,0,24s10.767,24,24,24c13.233,0,24-10.767,24-24S37.233,0,24,0z M24,46
		C11.869,46,2,36.131,2,24S11.869,2,24,2s22,9.869,22,22S36.131,46,24,46z"/>
	<path fill="#231F20" d="M24,18c-3.309,0-6,2.691-6,6s2.691,6,6,6s6-2.691,6-6S27.309,18,24,18z M24,28c-2.206,0-4-1.794-4-4
		s1.794-4,4-4s4,1.794,4,4S26.206,28,24,28z"/>
	<circle fill="#231F20" cx="24" cy="24" r="1"/>
	<path fill="#231F20" d="M27.554,5.344l-0.373,1.965c7.006,1.326,12.465,6.955,13.586,14.007l1.975-0.313
		C41.49,13.119,35.385,6.827,27.554,5.344z"/>
	<path fill="#231F20" d="M26.805,9.272l-0.373,1.965c5.358,1.014,9.532,5.319,10.389,10.711l1.974-0.313
		C37.807,15.412,32.989,10.443,26.805,9.272z"/>
	<path fill="#231F20" d="M26.057,13.198l-0.373,1.965c3.708,0.703,6.597,3.683,7.192,7.416l1.975-0.315
		C34.124,17.701,30.59,14.057,26.057,13.198z"/>
	<path fill="#231F20" d="M7.233,26.683l-1.975,0.314c1.252,7.884,7.357,14.176,15.188,15.659l0.373-1.966
		C13.813,39.364,8.354,33.735,7.233,26.683z"/>
	<path fill="#231F20" d="M11.178,26.053l-1.975,0.313c0.988,6.223,5.807,11.192,11.991,12.363l0.374-1.965
		C16.21,35.749,12.035,31.445,11.178,26.053z"/>
	<path fill="#231F20" d="M15.124,25.422l-1.975,0.313c0.725,4.564,4.259,8.208,8.794,9.067l0.373-1.965
		C18.607,32.135,15.717,29.154,15.124,25.422z"/>
</g>
<g id="nyt_x5F_exporter_x5F_info" display="none">
</g>
</svg>
