<?xml version="1.0" encoding="utf-8"?>
<!-- Generator: Adobe Illustrator 17.0.0, SVG Export Plug-In . SVG Version: 6.00 Build 0)  -->
<!DOCTYPE svg PUBLIC "-//W3C//DTD SVG 1.1//EN" "http://www.w3.org/Graphics/SVG/1.1/DTD/svg11.dtd">
<svg version="1.1" id="Layer_1" xmlns="http://www.w3.org/2000/svg" xmlns:xlink="http://www.w3.org/1999/xlink" x="0px" y="0px"
	 width="48px" height="48px" viewBox="0 0 48 48" enable-background="new 0 0 48 48" xml:space="preserve">
<g>
	<path fill="#231F20" d="M44,8V7c0-2.757-2.243-5-5-5s-5,2.243-5,5v1H0v40h48V8H44z M36,7c0-1.654,1.346-3,3-3s3,1.346,3,3v5h-6V7z
		 M46,46H2V10h32v4h4v11.638l-4.522,5.426L31.414,29l-4.242,4.243c-1.562,1.562-1.562,4.095,0,5.656
		c0.781,0.781,1.805,1.172,2.828,1.172s2.047-0.39,2.828-1.171l4.243-4.243l-2.172-2.172L40,26.362V14h4v-4h2V46z M34.243,34.658
		l-2.829,2.829c-0.378,0.378-0.88,0.586-1.414,0.586c-0.533,0-1.036-0.208-1.414-0.586C28.208,37.107,28,36.606,28,36.071
		c0-0.534,0.208-1.036,0.586-1.414l2.828-2.828L34.243,34.658z"/>
	<path fill="#231F20" d="M24.663,41.205C23.168,41.732,21.6,42,20,42c-7.72,0-14-6.28-14-14s6.28-14,14-14
		c5.977,0,11.299,3.795,13.243,9.443c0.18,0.522,0.75,0.798,1.271,0.621c0.522-0.18,0.8-0.749,0.62-1.271
		C32.912,16.337,26.83,12,20,12c-8.822,0-16,7.178-16,16s7.178,16,16,16c1.827,0,3.62-0.306,5.329-0.909
		c0.52-0.184,0.794-0.755,0.61-1.276C25.755,41.294,25.185,41.02,24.663,41.205z"/>
	<path fill="#231F20" d="M20,22c-3.309,0-6,2.691-6,6s2.691,6,6,6s6-2.691,6-6S23.309,22,20,22z M20,32c-2.206,0-4-1.794-4-4
		s1.794-4,4-4s4,1.794,4,4S22.206,32,20,32z"/>
	<circle fill="#231F20" cx="20" cy="28" r="2"/>
</g>
<g id="nyt_x5F_exporter_x5F_info" display="none">
</g>
</svg>
