<?xml version="1.0" encoding="utf-8"?>
<!-- Generator: Adobe Illustrator 17.0.0, SVG Export Plug-In . SVG Version: 6.00 Build 0)  -->
<!DOCTYPE svg PUBLIC "-//W3C//DTD SVG 1.1//EN" "http://www.w3.org/Graphics/SVG/1.1/DTD/svg11.dtd">
<svg version="1.1" id="Layer_1" xmlns="http://www.w3.org/2000/svg" xmlns:xlink="http://www.w3.org/1999/xlink" x="0px" y="0px"
	 width="48px" height="48px" viewBox="0 0 48 48" enable-background="new 0 0 48 48" xml:space="preserve">
<g>
	<path fill="#231F20" d="M21.195,21.444c-1.335,0-2.591,0.52-3.535,1.464c-1.949,1.95-1.949,5.122,0,7.072
		c0.944,0.944,2.2,1.464,3.535,1.464s2.591-0.52,3.535-1.464c0.945-0.945,1.466-2.201,1.466-3.536c0-1.335-0.521-2.591-1.466-3.536
		C23.786,21.964,22.53,21.444,21.195,21.444z M23.316,28.566c-1.133,1.133-3.109,1.133-4.242,0c-1.17-1.17-1.17-3.074,0-4.243
		c0.566-0.567,1.32-0.879,2.121-0.879c0.801,0,1.555,0.312,2.121,0.88c0.568,0.566,0.88,1.32,0.88,2.121
		C24.196,27.246,23.883,28,23.316,28.566z"/>
	<path fill="#231F20" d="M7.76,34.223c-0.391-0.391-1.023-0.391-1.414,0c-0.391,0.391-0.391,1.023,0,1.414l5.656,5.656
		c0.195,0.195,0.451,0.293,0.707,0.293c0.256,0,0.512-0.098,0.707-0.293c0.391-0.391,0.391-1.023,0-1.414L7.76,34.223z"/>
	<path fill="#231F20" d="M46.053,8l1.293-1.293c0.391-0.391,0.391-1.023,0-1.414l-5-5c-0.391-0.391-1.023-0.391-1.414,0
		l-1.293,1.293l-1.293-1.293c-0.391-0.391-1.023-0.391-1.414,0c-0.391,0.391-0.391,1.023,0,1.414L38.225,3l-1.586,1.586
		l-1.293-1.293c-0.391-0.391-1.023-0.391-1.414,0c-0.391,0.391-0.391,1.023,0,1.414L35.225,6l-2.293,2.293
		c-0.391,0.391-0.391,1.023,0,1.414L33.225,10l-6.723,6.723c-1.686-1.01-3.51-1.539-5.322-1.539c-4.161,0-7.466,2.685-8.359,6.65
		c-5.426-0.82-9.759,1.406-11.596,5.841c-1.984,4.79-0.495,10.831,3.706,15.032c2.906,2.906,6.739,4.573,10.515,4.573
		c3.402,0,6.446-1.353,8.351-3.711c1.312-1.623,2.665-4.425,2.007-8.754c2.635-0.603,4.79-2.314,5.882-4.72
		c1.256-2.768,0.96-6.063-0.77-8.959l6.723-6.722l0.293,0.293c0.391,0.391,1.023,0.391,1.414,0l2.293-2.293l1.293,1.293
		C43.127,13.902,43.383,14,43.639,14c0.255,0,0.511-0.098,0.707-0.293c0.391-0.391,0.391-1.023,0-1.414L43.053,11l1.586-1.586
		l1.293,1.293C46.127,10.902,46.383,11,46.639,11c0.255,0,0.511-0.098,0.707-0.293c0.391-0.391,0.391-1.023,0-1.414L46.053,8z
		 M38.638,12.587l-0.293-0.293c-0.391-0.391-1.023-0.391-1.414,0l-8,8c-0.342,0.342-0.39,0.88-0.113,1.278
		c1.721,2.473,2.112,5.35,1.047,7.698c-0.954,2.103-2.9,3.465-5.338,3.737c-0.28,0.031-0.535,0.179-0.7,0.409
		c-0.165,0.229-0.225,0.518-0.166,0.794c0.704,3.281,0.213,6.083-1.419,8.102c-1.525,1.886-4.001,2.968-6.796,2.968
		c-3.25,0-6.568-1.453-9.101-3.987c-3.635-3.636-4.951-8.801-3.272-12.852c1.258-3.036,4.013-4.778,7.558-4.778
		c0.885,0,1.826,0.106,2.798,0.315c0.273,0.06,0.565-0.001,0.794-0.166c0.229-0.166,0.379-0.42,0.41-0.701
		c0.389-3.489,3.081-5.927,6.548-5.927c1.659,0,3.348,0.566,4.887,1.637c0.395,0.275,0.934,0.228,1.278-0.114l8-8
		c0.391-0.391,0.391-1.023,0-1.414L35.053,9l6.586-6.586L45.225,6L38.638,12.587z"/>
</g>
<g id="nyt_x5F_exporter_x5F_info" display="none">
</g>
</svg>
