<?xml version="1.0" encoding="utf-8"?>
<!-- Generator: Adobe Illustrator 17.0.0, SVG Export Plug-In . SVG Version: 6.00 Build 0)  -->
<!DOCTYPE svg PUBLIC "-//W3C//DTD SVG 1.1//EN" "http://www.w3.org/Graphics/SVG/1.1/DTD/svg11.dtd">
<svg version="1.1" id="Layer_1" xmlns="http://www.w3.org/2000/svg" xmlns:xlink="http://www.w3.org/1999/xlink" x="0px" y="0px"
	 width="48px" height="48px" viewBox="0 0 48 48" enable-background="new 0 0 48 48" xml:space="preserve">
<path fill="#231F20" d="M48,30c0-2.415-1.721-4.434-4-4.899V24c0-2.757-2.243-5-5-5h-0.051C38.431,11.195,31.933,5,24,5
	C16.066,5,9.569,11.195,9.051,19H9c-2.757,0-5,2.243-5,5v1.101C1.721,25.566,0,27.585,0,30s1.721,4.434,4,4.899V36
	c0,2.757,2.243,5,5,5h4c0.553,0,1-0.448,1-1V20c0-0.552-0.447-1-1-1h-1.949C11.565,12.299,17.17,7,24,7
	c6.831,0,12.435,5.299,12.949,12H35c-0.553,0-1,0.448-1,1v20c0,0.552,0.447,1,1,1h4c2.757,0,5-2.243,5-5v-1.101
	C46.279,34.434,48,32.415,48,30z M2,30c0-1.302,0.839-2.401,2-2.816v5.631C2.839,32.401,2,31.302,2,30z M12,39H9
	c-1.654,0-3-1.346-3-3V24c0-1.654,1.346-3,3-3h3V39z M42,36c0,1.654-1.346,3-3,3h-3V21h3c1.654,0,3,1.346,3,3V36z M44,32.816v-5.631
	c1.161,0.414,2,1.514,2,2.816S45.161,32.401,44,32.816z"/>
<g id="nyt_x5F_exporter_x5F_info" display="none">
</g>
</svg>
