<?xml version="1.0" encoding="utf-8"?>
<!-- Generator: Adobe Illustrator 17.0.0, SVG Export Plug-In . SVG Version: 6.00 Build 0)  -->
<!DOCTYPE svg PUBLIC "-//W3C//DTD SVG 1.1//EN" "http://www.w3.org/Graphics/SVG/1.1/DTD/svg11.dtd">
<svg version="1.1" id="Layer_1" xmlns="http://www.w3.org/2000/svg" xmlns:xlink="http://www.w3.org/1999/xlink" x="0px" y="0px"
	 width="48px" height="48px" viewBox="0 0 48 48" enable-background="new 0 0 48 48" xml:space="preserve">
<g>
	<path fill="#231F20" d="M24,36c6.617,0,12-5.383,12-12s-5.383-12-12-12s-12,5.383-12,12S17.383,36,24,36z M24,14
		c5.514,0,10,4.486,10,10s-4.486,10-10,10s-10-4.486-10-10S18.486,14,24,14z"/>
	<path fill="#231F20" d="M39.952,15.052C39.457,6.672,32.502,0,24,0S8.543,6.672,8.048,15.052C3.531,15.529,0,19.36,0,24
		c0,4.962,4.037,9,9,9c0.553,0,1-0.448,1-1V16c0-7.72,6.28-14,14-14s14,6.28,14,14v16c0,0.552,0.447,1,1,1c4.963,0,9-4.038,9-9
		C48,19.36,44.469,15.529,39.952,15.052z M8,30.929C4.612,30.442,2,27.521,2,24c0-3.52,2.612-6.442,6-6.929V30.929z M40,30.928
		V17.071c3.388,0.487,6,3.409,6,6.928C46,27.52,43.388,30.441,40,30.928z"/>
	<path fill="#231F20" d="M34,40H14c-3.859,0-7,3.14-7,7c0,0.552,0.447,1,1,1h32c0.553,0,1-0.448,1-1C41,43.14,37.859,40,34,40z
		 M9.101,46c0.464-2.279,2.484-4,4.899-4h20.001c2.415,0,4.434,1.721,4.899,4H9.101z"/>
</g>
<g id="nyt_x5F_exporter_x5F_info" display="none">
</g>
</svg>
