<?xml version="1.0" encoding="utf-8"?>
<!-- Generator: Adobe Illustrator 17.0.0, SVG Export Plug-In . SVG Version: 6.00 Build 0)  -->
<!DOCTYPE svg PUBLIC "-//W3C//DTD SVG 1.1//EN" "http://www.w3.org/Graphics/SVG/1.1/DTD/svg11.dtd">
<svg version="1.1" id="Layer_1" xmlns="http://www.w3.org/2000/svg" xmlns:xlink="http://www.w3.org/1999/xlink" x="0px" y="0px"
	 width="48px" height="48px" viewBox="0 0 48 48" enable-background="new 0 0 48 48" xml:space="preserve">
<g>
	<path fill="#231F20" d="M37,10h-1.05C35.443,4.402,30.728,0,25.001,0c-5.728,0-10.442,4.402-10.949,10H13c-0.552,0-1,0.448-1,1
		s0.448,1,1,1h1.052c0.313,3.453,2.228,6.445,4.994,8.235l1.696,19.838c0.164,1.885,1.501,3.366,3.258,3.791V47c0,0.552,0.448,1,1,1
		s1-0.448,1-1v-3.123c1.753-0.408,3.09-1.879,3.254-3.756l1.701-19.886c2.767-1.79,4.682-4.782,4.995-8.235H37c0.552,0,1-0.448,1-1
		S37.552,10,37,10z M25.001,2c4.624,0,8.441,3.507,8.941,8H16.06C16.56,5.507,20.377,2,25.001,2z M27.261,39.949
		C27.159,41.118,26.198,42,25.025,42c-1.201,0-2.186-0.903-2.291-2.099l-1.591-18.613C22.346,21.741,23.642,22,25.001,22
		c1.358,0,2.654-0.259,3.856-0.711L27.261,39.949z M25.001,20c-4.624,0-8.441-3.507-8.941-8h17.882
		C33.442,16.493,29.625,20,25.001,20z"/>
	<path fill="#231F20" d="M24,27v4c0,0.552,0.448,1,1,1s1-0.448,1-1v-4c0-0.552-0.448-1-1-1S24,26.448,24,27z"/>
</g>
<g id="nyt_x5F_exporter_x5F_info" display="none">
</g>
</svg>
