<?xml version="1.0" encoding="utf-8"?>
<!-- Generator: Adobe Illustrator 17.1.0, SVG Export Plug-In . SVG Version: 6.00 Build 0)  -->
<!DOCTYPE svg PUBLIC "-//W3C//DTD SVG 1.0//EN" "http://www.w3.org/TR/2001/REC-SVG-20010904/DTD/svg10.dtd">
<svg version="1.0" id="Layer_1" xmlns="http://www.w3.org/2000/svg" xmlns:xlink="http://www.w3.org/1999/xlink" x="0px" y="0px"
	 width="48px" height="48px" viewBox="0 0 48 48" enable-background="new 0 0 48 48" xml:space="preserve">
<path d="M40,20c-0.552,0-1,0.447-1,1v3h-2V13c0-7.168-5.832-13-13-13c-7.169,0-13,5.832-13,13v11H9v-3c0-0.553-0.448-1-1-1
	c-0.552,0-1,0.447-1,1v4c0,9.194,6.953,16.447,16,16.951V48h2v-6.049C34.047,41.447,41,34.194,41,25v-4C41,20.447,40.552,20,40,20z
	 M13,22h7c0.552,0,1-0.447,1-1c0-0.553-0.448-1-1-1h-7v-2h7c0.552,0,1-0.447,1-1c0-0.553-0.448-1-1-1h-7v-2h7c0.552,0,1-0.447,1-1
	c0-0.553-0.448-1-1-1h-6.949C13.399,8.163,15.725,4.895,19,3.214V7c0,0.553,0.448,1,1,1c0.552,0,1-0.447,1-1V2.427
	c0.645-0.184,1.312-0.314,2-0.376V7c0,0.553,0.448,1,1,1c0.552,0,1-0.447,1-1V2.051c0.687,0.062,1.355,0.192,2,0.376V7
	c0,0.553,0.448,1,1,1c0.552,0,1-0.447,1-1V3.214c3.275,1.68,5.601,4.948,5.949,8.786H28c-0.552,0-1,0.447-1,1c0,0.553,0.448,1,1,1h7
	v2h-7c-0.552,0-1,0.447-1,1c0,0.553,0.448,1,1,1h7v2h-7c-0.552,0-1,0.447-1,1c0,0.553,0.448,1,1,1h7v2H13V22z M34.949,26
	C34.442,31.598,29.728,36,24,36c-5.728,0-10.442-4.402-10.949-10H34.949z M24,40c-8.073,0-14.45-6.075-14.951-14h2.002
	C11.565,32.701,17.169,38,24,38c6.831,0,12.435-5.299,12.949-12h2.002C38.45,33.925,32.073,40,24,40z"/>
</svg>
