<?xml version="1.0" encoding="utf-8"?>
<!-- Generator: Adobe Illustrator 17.0.0, SVG Export Plug-In . SVG Version: 6.00 Build 0)  -->
<!DOCTYPE svg PUBLIC "-//W3C//DTD SVG 1.1//EN" "http://www.w3.org/Graphics/SVG/1.1/DTD/svg11.dtd">
<svg version="1.1" id="Layer_1" xmlns="http://www.w3.org/2000/svg" xmlns:xlink="http://www.w3.org/1999/xlink" x="0px" y="0px"
	 width="48px" height="48px" viewBox="0 0 48 48" enable-background="new 0 0 48 48" xml:space="preserve">
<g>
	<path fill="#231F20" d="M35.448,25.105l-18-9c-0.311-0.154-0.678-0.138-0.973,0.044C16.18,16.332,16,16.653,16,17v18
		c0,0.347,0.18,0.669,0.475,0.851C16.635,35.95,16.817,36,17,36c0.153,0,0.306-0.035,0.447-0.105l18-9
		C35.786,26.725,36,26.379,36,26S35.786,25.275,35.448,25.105z M18,33.382V18.618L32.764,26L18,33.382z"/>
	<path fill="#231F20" d="M39,10H9c-4.963,0-9,4.038-9,9v14c0,4.962,4.037,9,9,9h30c4.963,0,9-4.038,9-9V19
		C48,14.038,43.963,10,39,10z M46,33c0,3.86-3.141,7-7,7H9c-3.859,0-7-3.14-7-7V19c0-3.86,3.141-7,7-7h30c3.859,0,7,3.14,7,7V33z"/>
</g>
</svg>
