<?xml version="1.0" encoding="utf-8"?>
<!-- Generator: Adobe Illustrator 17.0.0, SVG Export Plug-In . SVG Version: 6.00 Build 0)  -->
<!DOCTYPE svg PUBLIC "-//W3C//DTD SVG 1.1//EN" "http://www.w3.org/Graphics/SVG/1.1/DTD/svg11.dtd">
<svg version="1.1" id="Layer_1" xmlns="http://www.w3.org/2000/svg" xmlns:xlink="http://www.w3.org/1999/xlink" x="0px" y="0px"
	 width="48px" height="48px" viewBox="0 0 48 48" enable-background="new 0 0 48 48" xml:space="preserve">
<path fill="#231F20" d="M32.621,10.986L24,14.509V9.671l9.378-3.836l-0.756-1.852L22,8.329V32h-5c-3.86,0-7,3.14-7,7s3.14,7,7,7
	c3.729,0,7-3.271,7-7v-4v-3V16.669l9.378-3.832L32.621,10.986z M22,39c0,2.36-2.138,5-5,5c-2.757,0-5-2.243-5-5s2.243-5,5-5h5v1V39z
	"/>
<g id="nyt_x5F_exporter_x5F_info" display="none">
</g>
</svg>
