<?xml version="1.0" encoding="utf-8"?>
<!-- Generator: Adobe Illustrator 17.0.0, SVG Export Plug-In . SVG Version: 6.00 Build 0)  -->
<!DOCTYPE svg PUBLIC "-//W3C//DTD SVG 1.1//EN" "http://www.w3.org/Graphics/SVG/1.1/DTD/svg11.dtd">
<svg version="1.1" id="Layer_1" xmlns="http://www.w3.org/2000/svg" xmlns:xlink="http://www.w3.org/1999/xlink" x="0px" y="0px"
	 width="48px" height="48px" viewBox="0 0 48 48" enable-background="new 0 0 48 48" xml:space="preserve">
<path fill="#231F20" d="M28.555,9.168C26.066,7.509,26.001,5.095,26,5V4h-2v27h-5c-3.86,0-7,3.14-7,7s3.14,7,7,7
	c3.729,0,7-3.271,7-7v-4v-3V9.605c0.399,0.427,0.872,0.845,1.447,1.228c8.323,5.548,5.46,12.987,4.237,16.163
	c-0.1,0.259-0.186,0.484-0.244,0.648l-1.147,3c-0.197,0.516,0.061,1.094,0.577,1.291c0.118,0.044,0.238,0.066,0.357,0.066
	c0.402,0,0.781-0.246,0.935-0.645l1.155-3.023c0.061-0.173,0.141-0.381,0.233-0.62C34.702,24.719,38.21,15.605,28.555,9.168z M24,38
	c0,2.36-2.138,5-5,5c-2.757,0-5-2.243-5-5s2.243-5,5-5h5v1V38z"/>
<g id="nyt_x5F_exporter_x5F_info" display="none">
</g>
</svg>
