<?xml version="1.0" encoding="utf-8"?>
<!-- Generator: Adobe Illustrator 17.0.0, SVG Export Plug-In . SVG Version: 6.00 Build 0)  -->
<!DOCTYPE svg PUBLIC "-//W3C//DTD SVG 1.1//EN" "http://www.w3.org/Graphics/SVG/1.1/DTD/svg11.dtd">
<svg version="1.1" id="Layer_1" xmlns="http://www.w3.org/2000/svg" xmlns:xlink="http://www.w3.org/1999/xlink" x="0px" y="0px"
	 width="48px" height="48px" viewBox="0 0 48 48" enable-background="new 0 0 48 48" xml:space="preserve">
<g>
	<path fill="#231F20" d="M24,0C10.767,0,0,10.767,0,24c0,13.233,10.767,24,24,24c13.233,0,24-10.767,24-24S37.233,0,24,0z M24,46
		C11.869,46,2,36.131,2,24S11.869,2,24,2s22,9.869,22,22S36.131,46,24,46z"/>
	<path fill="#231F20" d="M33,14h-4c-0.553,0-1,0.448-1,1v18c0,0.552,0.447,1,1,1h4c0.553,0,1-0.448,1-1V15
		C34,14.448,33.553,14,33,14z M32,32h-2V16h2V32z"/>
	<path fill="#231F20" d="M15.669,14.256c-0.294-0.264-0.716-0.331-1.076-0.17C14.232,14.247,14,14.605,14,15v18
		c0,0.395,0.232,0.753,0.593,0.914C14.724,33.972,14.862,34,15,34c0.242,0,0.481-0.088,0.669-0.257l10-9
		C25.88,24.554,26,24.284,26,24s-0.12-0.554-0.331-0.744L15.669,14.256z M16,30.755v-13.51L23.505,24L16,30.755z"/>
</g>
</svg>
