<?xml version="1.0" encoding="utf-8"?>
<!-- Generator: Adobe Illustrator 17.0.0, SVG Export Plug-In . SVG Version: 6.00 Build 0)  -->
<!DOCTYPE svg PUBLIC "-//W3C//DTD SVG 1.1//EN" "http://www.w3.org/Graphics/SVG/1.1/DTD/svg11.dtd">
<svg version="1.1" id="Layer_1" xmlns="http://www.w3.org/2000/svg" xmlns:xlink="http://www.w3.org/1999/xlink" x="0px" y="0px"
	 width="48px" height="48px" viewBox="0 0 48 48" enable-background="new 0 0 48 48" xml:space="preserve">
<g>
	<path fill="#231F20" d="M13,34c1.991,0,5,0,5-3v-4v-2v-9.464l10-6.667V20h-3c-2.417,0-5,1.313-5,5s2.583,5,5,5c1.991,0,5,0,5-3v-5
		v-1V7c0-0.369-0.203-0.707-0.529-0.882c-0.324-0.174-0.719-0.155-1.026,0.05l-12,8C16.167,14.354,16,14.665,16,15v9h-3
		c-2.417,0-5,1.313-5,5S10.583,34,13,34z M28,27c0,0.763-0.414,1-3,1c-1.368,0-3-0.521-3-3s1.632-3,3-3h3V27z M13,26h3v1v4
		c0,0.763-0.414,1-3,1c-1.368,0-3-0.521-3-3S11.632,26,13,26z"/>
	<path fill="#231F20" d="M42,41V1c0-0.552-0.447-1-1-1H1C0.447,0,0,0.448,0,1v40c0,0.552,0.447,1,1,1h40C41.553,42,42,41.552,42,41z
		 M40,40H2V2h38V40z"/>
	<path fill="#231F20" d="M47,6h-2c-0.553,0-1,0.448-1,1s0.447,1,1,1h1v38H8v-1c0-0.552-0.447-1-1-1s-1,0.448-1,1v2
		c0,0.552,0.447,1,1,1h40c0.553,0,1-0.448,1-1V7C48,6.448,47.553,6,47,6z"/>
</g>
</svg>
