<?xml version="1.0" encoding="utf-8"?>
<!-- Generator: Adobe Illustrator 17.0.0, SVG Export Plug-In . SVG Version: 6.00 Build 0)  -->
<!DOCTYPE svg PUBLIC "-//W3C//DTD SVG 1.1//EN" "http://www.w3.org/Graphics/SVG/1.1/DTD/svg11.dtd">
<svg version="1.1" id="Layer_1" xmlns="http://www.w3.org/2000/svg" xmlns:xlink="http://www.w3.org/1999/xlink" x="0px" y="0px"
	 width="48px" height="48px" viewBox="0 0 48 48" enable-background="new 0 0 48 48" xml:space="preserve">
<path fill="#231F20" d="M43,10h-5V9c0-0.552-0.447-1-1-1h-4c-0.553,0-1,0.448-1,1v1h-2V9c0-0.552-0.447-1-1-1h-4
	c-0.553,0-1,0.448-1,1v1h-2V9c0-0.552-0.447-1-1-1h-4c-0.553,0-1,0.448-1,1v1h-2V9c0-0.552-0.447-1-1-1H9C8.447,8,8,8.448,8,9v1H3
	c-0.553,0-1,0.448-1,1v30c0,0.552,0.447,1,1,1h40c0.553,0,1-0.448,1-1V11C44,10.448,43.553,10,43,10z M34,10h2v18h-2V10z M26,10h2
	v18h-2V10z M24,12v17c0,0.552,0.447,1,1,1h1v10h-6V30h1c0.553,0,1-0.448,1-1V12H24z M18,10h2v18h-2V10z M16,12v17
	c0,0.552,0.447,1,1,1h1v10h-6V30h1c0.553,0,1-0.448,1-1V12H16z M10,10h2v18h-2V10z M4,12h4v17c0,0.552,0.447,1,1,1h1v10H4V12z
	 M28,40V30h1c0.553,0,1-0.448,1-1V12h2v17c0,0.552,0.447,1,1,1h1v10H28z M42,40h-6V30h1c0.553,0,1-0.448,1-1V12h4V40z"/>
<g id="nyt_x5F_exporter_x5F_info" display="none">
</g>
</svg>
