<?xml version="1.0" encoding="utf-8"?>
<!-- Generator: Adobe Illustrator 17.0.0, SVG Export Plug-In . SVG Version: 6.00 Build 0)  -->
<!DOCTYPE svg PUBLIC "-//W3C//DTD SVG 1.1//EN" "http://www.w3.org/Graphics/SVG/1.1/DTD/svg11.dtd">
<svg version="1.1" id="Layer_1" xmlns="http://www.w3.org/2000/svg" xmlns:xlink="http://www.w3.org/1999/xlink" x="0px" y="0px"
	 width="48px" height="48px" viewBox="0 0 48 48" enable-background="new 0 0 48 48" xml:space="preserve">
<g>
	<path fill="#231F20" d="M40.555,6.168C38.066,4.509,38.002,2.095,38,2V1c0-0.552-0.447-1-1-1s-1,0.448-1,1v33h-5
		c-3.859,0-7,3.14-7,7s3.141,7,7,7c3.728,0,7-3.271,7-7v-4v-2V6.606c0.399,0.427,0.871,0.844,1.446,1.227
		c8.321,5.549,5.459,12.987,4.236,16.164c-0.099,0.258-0.185,0.483-0.244,0.647l-1.146,3c-0.196,0.516,0.061,1.094,0.577,1.291
		c0.118,0.044,0.238,0.066,0.357,0.066c0.402,0,0.782-0.246,0.935-0.644l1.154-3.023c0.061-0.174,0.141-0.382,0.233-0.62
		C46.701,21.719,50.208,12.605,40.555,6.168z M36,41c0,2.36-2.139,5-5,5c-2.757,0-5-2.243-5-5s2.243-5,5-5h5v1V41z"/>
	<path fill="#231F20" d="M1,8h24c0.553,0,1-0.448,1-1s-0.447-1-1-1H1C0.447,6,0,6.448,0,7S0.447,8,1,8z"/>
	<path fill="#231F20" d="M1,14h24c0.553,0,1-0.448,1-1s-0.447-1-1-1H1c-0.553,0-1,0.448-1,1S0.447,14,1,14z"/>
	<path fill="#231F20" d="M1,20h24c0.553,0,1-0.448,1-1s-0.447-1-1-1H1c-0.553,0-1,0.448-1,1S0.447,20,1,20z"/>
	<path fill="#231F20" d="M1,26h24c0.553,0,1-0.448,1-1s-0.447-1-1-1H1c-0.553,0-1,0.448-1,1S0.447,26,1,26z"/>
	<path fill="#231F20" d="M21,30H1c-0.553,0-1,0.448-1,1s0.447,1,1,1h20c0.553,0,1-0.448,1-1S21.553,30,21,30z"/>
	<path fill="#231F20" d="M15,36H1c-0.553,0-1,0.448-1,1s0.447,1,1,1h14c0.553,0,1-0.448,1-1S15.553,36,15,36z"/>
</g>
<g id="nyt_x5F_exporter_x5F_info" display="none">
</g>
</svg>
