<?xml version="1.0" encoding="utf-8"?>
<!-- Generator: Adobe Illustrator 17.0.0, SVG Export Plug-In . SVG Version: 6.00 Build 0)  -->
<!DOCTYPE svg PUBLIC "-//W3C//DTD SVG 1.1//EN" "http://www.w3.org/Graphics/SVG/1.1/DTD/svg11.dtd">
<svg version="1.1" id="Layer_1" xmlns="http://www.w3.org/2000/svg" xmlns:xlink="http://www.w3.org/1999/xlink" x="0px" y="0px"
	 width="48px" height="48px" viewBox="0 0 48 48" enable-background="new 0 0 48 48" xml:space="preserve">
<g>
	<path fill="#231F20" d="M24,0C10.767,0,0,10.767,0,24c0,13.233,10.767,24,24,24c13.233,0,24-10.767,24-24S37.233,0,24,0z M24,46
		C11.869,46,2,36.131,2,24S11.869,2,24,2s22,9.869,22,22S36.131,46,24,46z"/>
	<path fill="#231F20" d="M35.447,23.105l-18-9c-0.309-0.154-0.677-0.138-0.973,0.044C16.18,14.332,16,14.653,16,15v18
		c0,0.347,0.18,0.669,0.474,0.851C16.635,33.95,16.817,34,17,34c0.153,0,0.306-0.035,0.447-0.105l18-9
		C35.786,24.725,36,24.379,36,24S35.786,23.275,35.447,23.105z M18,31.382V16.618L32.764,24L18,31.382z"/>
</g>
</svg>
