<?xml version="1.0" encoding="utf-8"?>
<!-- Generator: Adobe Illustrator 17.0.0, SVG Export Plug-In . SVG Version: 6.00 Build 0)  -->
<!DOCTYPE svg PUBLIC "-//W3C//DTD SVG 1.1//EN" "http://www.w3.org/Graphics/SVG/1.1/DTD/svg11.dtd">
<svg version="1.1" id="Layer_1" xmlns="http://www.w3.org/2000/svg" xmlns:xlink="http://www.w3.org/1999/xlink" x="0px" y="0px"
	 width="48px" height="48px" viewBox="0 0 48 48" enable-background="new 0 0 48 48" xml:space="preserve">
<g>
	<path fill="#231F20" d="M24,0C10.767,0,0,10.767,0,24s10.767,24,24,24c13.233,0,24-10.767,24-24S37.233,0,24,0z M24,46
		C11.869,46,2,36.131,2,24S11.869,2,24,2s22,9.869,22,22S36.131,46,24,46z"/>
	<path fill="#231F20" d="M19,14h-4c-0.553,0-1,0.448-1,1v18c0,0.552,0.447,1,1,1h4c0.553,0,1-0.448,1-1V15
		C20,14.448,19.553,14,19,14z M18,32h-2V16h2V32z"/>
	<path fill="#231F20" d="M33.407,14.087c-0.36-0.161-0.781-0.094-1.076,0.17l-10,9C22.12,23.446,22,23.716,22,24
		s0.12,0.554,0.331,0.743l10,9C32.519,33.912,32.758,34,33,34c0.138,0,0.276-0.028,0.407-0.086C33.768,33.753,34,33.395,34,33V15
		C34,14.605,33.768,14.247,33.407,14.087z M32,30.755L24.495,24L32,17.245V30.755z"/>
</g>
</svg>
