<?xml version="1.0" encoding="utf-8"?>
<!-- Generator: Adobe Illustrator 17.0.0, SVG Export Plug-In . SVG Version: 6.00 Build 0)  -->
<!DOCTYPE svg PUBLIC "-//W3C//DTD SVG 1.1//EN" "http://www.w3.org/Graphics/SVG/1.1/DTD/svg11.dtd">
<svg version="1.1" id="Layer_1" xmlns="http://www.w3.org/2000/svg" xmlns:xlink="http://www.w3.org/1999/xlink" x="0px" y="0px"
	 width="48px" height="48px" viewBox="0 0 48 48" enable-background="new 0 0 48 48" xml:space="preserve">
<g>
	<path fill="#231F20" d="M43,16H9.235L37.447,1.894c0.494-0.247,0.694-0.848,0.447-1.342c-0.247-0.493-0.847-0.695-1.342-0.447
		L4.702,16.03C2.086,16.188,0,18.345,0,21v20c0,2.757,2.243,5,5,5h5v1c0,0.552,0.448,1,1,1s1-0.448,1-1v-1h24v1c0,0.552,0.448,1,1,1
		s1-0.448,1-1v-1h5c2.757,0,5-2.243,5-5V21C48,18.243,45.757,16,43,16z M46,41c0,1.654-1.346,3-3,3H5c-1.654,0-3-1.346-3-3V21
		c0-1.654,1.346-3,3-3h38c1.654,0,3,1.346,3,3V41z"/>
	<path fill="#231F20" d="M40,20H8c-2.206,0-4,1.794-4,4v6c0,2.206,1.794,4,4,4h32c2.206,0,4-1.794,4-4v-6C44,21.794,42.206,20,40,20
		z M6,26h36v2H6V26z M8,22h32c1.103,0,2,0.897,2,2H6C6,22.897,6.897,22,8,22z M40,32H8c-1.103,0-2-0.897-2-2h36
		C42,31.103,41.103,32,40,32z"/>
	<path fill="#231F20" d="M9,36c-1.654,0-3,1.346-3,3s1.346,3,3,3s3-1.346,3-3S10.654,36,9,36z M9,40c-0.551,0-1-0.449-1-1
		s0.449-1,1-1s1,0.449,1,1S9.551,40,9,40z"/>
	<path fill="#231F20" d="M39,36c-1.654,0-3,1.346-3,3s1.346,3,3,3s3-1.346,3-3S40.654,36,39,36z M39,40c-0.551,0-1-0.449-1-1
		s0.449-1,1-1s1,0.449,1,1S39.551,40,39,40z"/>
	<path fill="#231F20" d="M31,36H17c-1.654,0-3,1.346-3,3s1.346,3,3,3h14c1.654,0,3-1.346,3-3S32.654,36,31,36z M16,39
		c0-0.551,0.449-1,1-1h9v2h-9C16.449,40,16,39.551,16,39z M31,40h-3v-2h3c0.551,0,1,0.449,1,1S31.551,40,31,40z"/>
</g>
<g id="nyt_x5F_exporter_x5F_info" display="none">
</g>
</svg>
