<?xml version="1.0" encoding="utf-8"?>
<!-- Generator: Adobe Illustrator 17.0.0, SVG Export Plug-In . SVG Version: 6.00 Build 0)  -->
<!DOCTYPE svg PUBLIC "-//W3C//DTD SVG 1.1//EN" "http://www.w3.org/Graphics/SVG/1.1/DTD/svg11.dtd">
<svg version="1.1" id="Layer_1" xmlns="http://www.w3.org/2000/svg" xmlns:xlink="http://www.w3.org/1999/xlink" x="0px" y="0px"
	 width="48px" height="48px" viewBox="0 0 48 48" enable-background="new 0 0 48 48" xml:space="preserve">
<g>
	<path fill="#231F20" d="M48,15c0-6.065-4.935-11-11-11S26,8.935,26,15c0,1.041,0.155,2.045,0.427,3h-4.853
		C21.845,17.045,22,16.041,22,15c0-6.065-4.935-11-11-11S0,8.935,0,15c0,4.264,2.444,7.961,6,9.786V39c0,2.757,2.243,5,5,5h6h14h6
		c2.757,0,5-2.243,5-5V24.786C45.556,22.961,48,19.264,48,15z M2,15c0-4.962,4.038-9,9-9s9,4.038,9,9s-4.038,9-9,9S2,19.962,2,15z
		 M18,42v-2h12v2H18z M40,39c0,1.654-1.346,3-3,3h-5v-3c0-0.552-0.448-1-1-1H17c-0.552,0-1,0.448-1,1v3h-5c-1.654,0-3-1.346-3-3
		V25.573C8.955,25.845,9.959,26,11,26c4.264,0,7.961-2.444,9.786-6h6.429c1.825,3.556,5.522,6,9.786,6c1.041,0,2.045-0.155,3-0.427
		V39z M37,24c-4.962,0-9-4.038-9-9s4.038-9,9-9s9,4.038,9,9S41.962,24,37,24z"/>
	<circle fill="#231F20" cx="12" cy="35" r="2"/>
	<circle fill="#231F20" cx="36" cy="35" r="2"/>
	<path fill="#231F20" d="M28,26c-1.654,0-3,1.346-3,3s1.346,3,3,3s3-1.346,3-3S29.654,26,28,26z M28,30c-0.551,0-1-0.449-1-1
		s0.449-1,1-1s1,0.449,1,1S28.551,30,28,30z"/>
	<path fill="#231F20" d="M20,26c-1.654,0-3,1.346-3,3s1.346,3,3,3s3-1.346,3-3S21.654,26,20,26z M20,30c-0.551,0-1-0.449-1-1
		s0.449-1,1-1s1,0.449,1,1S20.551,30,20,30z"/>
	<path fill="#231F20" d="M12,12V9c0-0.552-0.448-1-1-1s-1,0.448-1,1v3c0,0.552,0.448,1,1,1S12,12.552,12,12z"/>
	<path fill="#231F20" d="M37,8c-0.552,0-1,0.448-1,1v3c0,0.552,0.448,1,1,1s1-0.448,1-1V9C38,8.448,37.552,8,37,8z"/>
	<path fill="#231F20" d="M33.902,15.634l-2.598,1.5c-0.478,0.276-0.642,0.888-0.366,1.366c0.185,0.321,0.521,0.5,0.867,0.5
		c0.169,0,0.341-0.043,0.499-0.134l2.598-1.5c0.478-0.276,0.642-0.888,0.366-1.366C34.991,15.522,34.379,15.357,33.902,15.634z"/>
	<path fill="#231F20" d="M42.693,17.134l-2.597-1.5c-0.479-0.277-1.09-0.112-1.366,0.366s-0.113,1.09,0.366,1.366l2.597,1.5
		C41.85,18.957,42.022,19,42.192,19c0.346,0,0.682-0.179,0.867-0.5C43.335,18.022,43.172,17.41,42.693,17.134z"/>
	<path fill="#231F20" d="M7.902,15.634l-2.598,1.5C4.826,17.41,4.662,18.022,4.938,18.5C5.123,18.821,5.459,19,5.805,19
		c0.169,0,0.341-0.043,0.499-0.134l2.598-1.5C9.38,17.09,9.544,16.478,9.268,16C8.991,15.522,8.378,15.356,7.902,15.634z"/>
	<path fill="#231F20" d="M13.096,17.366l2.597,1.5C15.85,18.957,16.022,19,16.192,19c0.346,0,0.682-0.179,0.867-0.5
		c0.276-0.478,0.113-1.09-0.366-1.366l-2.597-1.5c-0.478-0.277-1.09-0.112-1.366,0.366S12.618,17.09,13.096,17.366z"/>
</g>
<g id="nyt_x5F_exporter_x5F_info" display="none">
</g>
</svg>
