<?xml version="1.0" encoding="utf-8"?>
<!-- Generator: Adobe Illustrator 17.0.0, SVG Export Plug-In . SVG Version: 6.00 Build 0)  -->
<!DOCTYPE svg PUBLIC "-//W3C//DTD SVG 1.1//EN" "http://www.w3.org/Graphics/SVG/1.1/DTD/svg11.dtd">
<svg version="1.1" id="Layer_1" xmlns="http://www.w3.org/2000/svg" xmlns:xlink="http://www.w3.org/1999/xlink" x="0px" y="0px"
	 width="48px" height="48px" viewBox="0 0 48 48" enable-background="new 0 0 48 48" xml:space="preserve">
<g>
	<circle fill="#231F20" cx="42.001" cy="6" r="2"/>
	<circle fill="#231F20" cx="6.001" cy="6" r="2"/>
	<circle fill="#231F20" cx="42.001" cy="42" r="2"/>
	<circle fill="#231F20" cx="6.001" cy="42" r="2"/>
	<path fill="#231F20" d="M24.001,19c-2.757,0-5,2.243-5,5s2.243,5,5,5c2.757,0,5-2.243,5-5S26.758,19,24.001,19z M24.001,27
		c-1.654,0-3-1.346-3-3s1.346-3,3-3c1.654,0,3,1.346,3,3S25.655,27,24.001,27z"/>
	<path fill="#231F20" d="M24.001,6c-9.925,0-18,8.075-18,18s8.075,18,18,18c9.925,0,18-8.075,18-18S33.926,6,24.001,6z M24.001,40
		c-8.822,0-16-7.178-16-16s7.178-16,16-16c8.822,0,16,7.178,16,16S32.823,40,24.001,40z"/>
	<path fill="#231F20" d="M43.193,34.71c1.839-3.286,2.808-6.972,2.808-10.71c0-3.739-0.969-7.424-2.808-10.709l3.049-3.048
		C47.376,9.109,48,7.603,48,6s-0.624-3.109-1.758-4.243C45.108,0.624,43.602,0,41.999,0c-1.603,0-3.108,0.624-4.241,1.758
		l-3.049,3.049C31.425,2.968,27.739,2,24.001,2c-3.74,0-7.426,0.968-10.709,2.806l-3.05-3.049C9.109,0.624,7.603,0,6.001,0
		C4.398,0,2.892,0.624,1.758,1.757C0.624,2.891,0,4.397,0,6s0.624,3.109,1.758,4.243l3.048,3.048
		C2.969,16.573,2.001,20.258,2.001,24c0,3.741,0.968,7.427,2.805,10.71l-3.048,3.048c-2.339,2.339-2.339,6.146,0,8.485
		C2.891,47.376,4.397,48,6,48c1.602,0,3.109-0.624,4.242-1.757l3.05-3.048C16.574,45.032,20.26,46,24.001,46
		c3.739,0,7.425-0.968,10.708-2.805l3.049,3.048C38.891,47.376,40.397,48,42,48c1.602,0,3.109-0.624,4.242-1.757
		c2.339-2.339,2.339-6.145,0-8.485L43.193,34.71z M44.828,44.828c-1.51,1.511-4.146,1.511-5.656,0l-4.149-4.148l-0.671,0.408
		C31.215,42.993,27.636,44,24.001,44c-3.636,0-7.216-1.007-10.352-2.911l-0.671-0.408l-4.15,4.148c-1.51,1.511-4.146,1.511-5.656,0
		c-1.56-1.559-1.56-4.097,0-5.657l4.148-4.148l-0.408-0.671C5.008,31.216,4.001,27.636,4.001,24c0-3.637,1.007-7.217,2.911-10.352
		l0.408-0.671L3.172,8.829C2.416,8.073,2,7.068,2,6s0.416-2.073,1.172-2.829c1.511-1.511,4.146-1.511,5.656,0l4.15,4.149
		l0.671-0.407C16.787,5.007,20.366,4,24.001,4c3.633,0,7.212,1.007,10.351,2.913l0.671,0.407l4.149-4.149
		c1.51-1.511,4.144-1.511,5.656,0C45.584,3.927,46,4.932,46,6s-0.416,2.073-1.172,2.829l-4.149,4.148l0.408,0.671
		c1.906,3.139,2.914,6.719,2.914,10.352s-1.008,7.213-2.914,10.353l-0.408,0.671l4.149,4.147
		C46.388,40.731,46.388,43.268,44.828,44.828z"/>
</g>
<g id="nyt_x5F_exporter_x5F_info" display="none">
</g>
</svg>
