<?xml version="1.0" encoding="utf-8"?>
<!-- Generator: Adobe Illustrator 17.0.0, SVG Export Plug-In . SVG Version: 6.00 Build 0)  -->
<!DOCTYPE svg PUBLIC "-//W3C//DTD SVG 1.1//EN" "http://www.w3.org/Graphics/SVG/1.1/DTD/svg11.dtd">
<svg version="1.1" id="Layer_1" xmlns="http://www.w3.org/2000/svg" xmlns:xlink="http://www.w3.org/1999/xlink" x="0px" y="0px"
	 width="48px" height="48px" viewBox="0 0 48 48" enable-background="new 0 0 48 48" xml:space="preserve">
<g>
	<circle fill="#231F20" cx="7.277" cy="8" r="2"/>
	<circle fill="#231F20" cx="41.277" cy="8" r="2"/>
	<circle fill="#231F20" cx="7.277" cy="41" r="2"/>
	<circle fill="#231F20" cx="41.277" cy="41" r="2"/>
	<path fill="#231F20" d="M39.55,0H9.005c-4.82,0-8.728,3.907-8.728,8.728v30.545c0,4.82,3.907,8.727,8.728,8.727H39.55
		c4.82,0,8.727-3.907,8.727-8.727V8.728C48.277,3.907,44.37,0,39.55,0z M46.278,39.273c0,3.709-3.018,6.727-6.728,6.727H9.005
		c-3.71,0-6.728-3.018-6.728-6.727V8.728C2.277,5.018,5.295,2,9.005,2H39.55c3.71,0,6.728,3.018,6.728,6.728V39.273z"/>
	<path fill="#231F20" d="M24.277,10c-7.731,0-14,6.269-14,14c0,7.732,6.269,14,14,14c7.73,0,14-6.268,14-14
		C38.277,16.269,32.007,10,24.277,10z M24.277,36c-6.617,0-12-5.383-12-12s5.383-12,12-12s12,5.383,12,12S30.894,36,24.277,36z"/>
	<path fill="#231F20" d="M24.277,4.5c-10.769,0-19.5,8.731-19.5,19.5c0,10.77,8.731,19.5,19.5,19.5c10.766,0,19.5-8.73,19.5-19.5
		C43.777,13.231,35.043,4.5,24.277,4.5z M24.277,41.5c-9.649,0-17.5-7.851-17.5-17.5s7.851-17.5,17.5-17.5
		c9.649,0,17.5,7.851,17.5,17.5S33.926,41.5,24.277,41.5z"/>
	<path fill="#231F20" d="M24.277,19c-2.763,0-5,2.239-5,5c0,2.762,2.237,5,5,5c2.761,0,5-2.238,5-5
		C29.277,21.239,27.038,19,24.277,19z M24.277,27c-1.654,0-3-1.346-3-3s1.346-3,3-3c1.654,0,3,1.346,3,3S25.931,27,24.277,27z"/>
</g>
<g id="nyt_x5F_exporter_x5F_info" display="none">
</g>
</svg>
