<?xml version="1.0" encoding="utf-8"?>
<!-- Generator: Adobe Illustrator 17.0.0, SVG Export Plug-In . SVG Version: 6.00 Build 0)  -->
<!DOCTYPE svg PUBLIC "-//W3C//DTD SVG 1.1//EN" "http://www.w3.org/Graphics/SVG/1.1/DTD/svg11.dtd">
<svg version="1.1" id="Layer_1" xmlns="http://www.w3.org/2000/svg" xmlns:xlink="http://www.w3.org/1999/xlink" x="0px" y="0px"
	 width="48px" height="48px" viewBox="0 0 48 48" enable-background="new 0 0 48 48" xml:space="preserve">
<g>
	<path fill="#231F20" d="M44,8H4c-2.206,0-4,1.794-4,4v24c0,2.206,1.794,4,4,4h4h32h0.02H44c2.206,0,4-1.794,4-4V12
		C48,9.794,46.206,8,44,8z M10.414,38l4-4h19.172l4,4H10.414z M46,36c0,1.103-0.897,2-2,2h-3.586l-5.707-5.707
		C34.519,32.106,34.265,32,34,32H14c-0.265,0-0.52,0.106-0.707,0.293L7.586,38H4c-1.103,0-2-0.897-2-2V12c0-1.103,0.897-2,2-2h40
		c1.103,0,2,0.897,2,2V36z"/>
	<path fill="#231F20" d="M11,19c-2.757,0-5,2.243-5,5s2.243,5,5,5s5-2.243,5-5S13.757,19,11,19z M12,26.816V26c0-0.552-0.448-1-1-1
		s-1,0.448-1,1v0.816C9.153,26.514,8.486,25.847,8.184,25H9c0.552,0,1-0.448,1-1s-0.448-1-1-1H8.184
		c0.302-0.847,0.969-1.514,1.816-1.816V22c0,0.552,0.448,1,1,1s1-0.448,1-1v-0.816c0.847,0.302,1.514,0.969,1.816,1.816H13
		c-0.552,0-1,0.448-1,1s0.448,1,1,1h0.816C13.514,25.847,12.847,26.514,12,26.816z"/>
	<path fill="#231F20" d="M29,20H19c-0.552,0-1,0.448-1,1v4c0,0.552,0.448,1,1,1h10c0.552,0,1-0.448,1-1v-4
		C30,20.448,29.552,20,29,20z M28,24h-8v-2h8V24z"/>
	<path fill="#231F20" d="M37,19c-2.757,0-5,2.243-5,5s2.243,5,5,5s5-2.243,5-5S39.757,19,37,19z M38,26.816V26c0-0.552-0.448-1-1-1
		s-1,0.448-1,1v0.816c-0.847-0.302-1.514-0.969-1.816-1.816H35c0.552,0,1-0.448,1-1s-0.448-1-1-1h-0.816
		c0.302-0.847,0.969-1.514,1.816-1.816V22c0,0.552,0.448,1,1,1s1-0.448,1-1v-0.816c0.847,0.302,1.514,0.969,1.816,1.816H39
		c-0.552,0-1,0.448-1,1s0.448,1,1,1h0.816C39.514,25.847,38.847,26.514,38,26.816z"/>
	<path fill="#231F20" d="M41,12H7c-0.552,0-1,0.448-1,1s0.448,1,1,1h34c0.552,0,1-0.448,1-1S41.552,12,41,12z"/>
</g>
<g id="nyt_x5F_exporter_x5F_info" display="none">
</g>
</svg>
