<?xml version="1.0" encoding="utf-8"?>
<!-- Generator: Adobe Illustrator 17.0.0, SVG Export Plug-In . SVG Version: 6.00 Build 0)  -->
<!DOCTYPE svg PUBLIC "-//W3C//DTD SVG 1.1//EN" "http://www.w3.org/Graphics/SVG/1.1/DTD/svg11.dtd">
<svg version="1.1" id="Layer_1" xmlns="http://www.w3.org/2000/svg" xmlns:xlink="http://www.w3.org/1999/xlink" x="0px" y="0px"
	 width="48px" height="48px" viewBox="0 0 48 48" enable-background="new 0 0 48 48" xml:space="preserve">
<path fill="#231F20" d="M47.383,12.076c-0.374-0.154-0.804-0.07-1.09,0.217L38.586,20H24v-3c0-0.552-0.447-1-1-1s-1,0.448-1,1v3h-2
	v-3c0-0.552-0.447-1-1-1s-1,0.448-1,1v3h-2v-3c0-0.552-0.447-1-1-1s-1,0.448-1,1v3H2v-1c0-0.552-0.447-1-1-1s-1,0.448-1,1v4
	c0,0.552,0.447,1,1,1s1-0.448,1-1v-1h4.111C4.81,23.272,4,25.042,4,27c0,3.86,3.141,7,7,7h3v1c0,0.552,0.447,1,1,1s1-0.448,1-1v-1h2
	v1c0,0.552,0.447,1,1,1s1-0.448,1-1v-1h2v1c0,0.552,0.447,1,1,1s1-0.448,1-1v-1h5c3.859,0,7-3.14,7-7c0-1.958-0.81-3.728-2.111-5
	h4.697l7.707,7.707C46.484,29.898,46.74,30,47,30c0.129,0,0.259-0.025,0.383-0.076C47.757,29.769,48,29.404,48,29V13
	C48,12.596,47.757,12.231,47.383,12.076z M11,32c-2.757,0-5-2.243-5-5s2.243-5,5-5h3v10H11z M16,32V22h2v10H16z M20,32V22h2v10H20z
	 M34,27c0,2.757-2.243,5-5,5h-5V22h5C31.757,22,34,24.243,34,27z M46,26.586L40.414,21L46,15.414V26.586z"/>
<g id="nyt_x5F_exporter_x5F_info" display="none">
</g>
</svg>
