<?xml version="1.0" encoding="utf-8"?>
<!-- Generator: Adobe Illustrator 17.0.0, SVG Export Plug-In . SVG Version: 6.00 Build 0)  -->
<!DOCTYPE svg PUBLIC "-//W3C//DTD SVG 1.1//EN" "http://www.w3.org/Graphics/SVG/1.1/DTD/svg11.dtd">
<svg version="1.1" id="Layer_1" xmlns="http://www.w3.org/2000/svg" xmlns:xlink="http://www.w3.org/1999/xlink" x="0px" y="0px"
	 width="48px" height="48px" viewBox="0 0 48 48" enable-background="new 0 0 48 48" xml:space="preserve">
<g>
	<path fill="#231F20" d="M27,4C19.82,4,12.887,8.082,9.891,14H6c-3.309,0-6,2.691-6,6v4c0,3.309,2.691,6,6,6h3.891
		C12.887,35.918,19.82,40,27,40c0.552,0,1-0.448,1-1V5C28,4.448,27.552,4,27,4z M25.999,37.969
		c-6.207-0.376-12.224-4.206-14.568-9.382C11.269,28.23,10.913,28,10.52,28H6c-2.206,0-4-1.794-4-4v-4c0-2.206,1.794-4,4-4h4.52
		c0.393,0,0.749-0.23,0.911-0.588c2.344-5.176,8.361-9.006,14.568-9.382V37.969z"/>
	<path fill="#231F20" d="M34.322,13.053c-0.523-0.179-1.091,0.102-1.269,0.625c-0.178,0.523,0.102,1.091,0.625,1.269
		C36.263,15.826,38,18.66,38,22s-1.737,6.175-4.322,7.053c-0.523,0.178-0.803,0.746-0.625,1.269c0.142,0.417,0.53,0.679,0.947,0.679
		c0.106,0,0.215-0.018,0.322-0.054C37.718,29.793,40,26.197,40,22S37.718,14.208,34.322,13.053z"/>
</g>
<g id="nyt_x5F_exporter_x5F_info" display="none">
</g>
</svg>
