<?xml version="1.0" encoding="utf-8"?>
<!-- Generator: Adobe Illustrator 17.0.0, SVG Export Plug-In . SVG Version: 6.00 Build 0)  -->
<!DOCTYPE svg PUBLIC "-//W3C//DTD SVG 1.1//EN" "http://www.w3.org/Graphics/SVG/1.1/DTD/svg11.dtd">
<svg version="1.1" id="Layer_1" xmlns="http://www.w3.org/2000/svg" xmlns:xlink="http://www.w3.org/1999/xlink" x="0px" y="0px"
	 width="48px" height="48px" viewBox="0 0 48 48" enable-background="new 0 0 48 48" xml:space="preserve">
<g>
	<path fill="#231F20" d="M11,30c0.552,0,1-0.448,1-1s-0.448-1-1-1H6c-1.103,0-2-0.897-2-2v-6c0-1.103,0.897-2,2-2h7
		c0.265,0,0.519-0.105,0.707-0.293L26,5.414V14c0,0.552,0.448,1,1,1s1-0.448,1-1V3c0-0.404-0.244-0.769-0.617-0.924
		c-0.376-0.156-0.804-0.07-1.09,0.217L12.586,16H6c-2.206,0-4,1.794-4,4v6c0,2.206,1.794,4,4,4H11z"/>
	<path fill="#231F20" d="M33,22c-0.552,0-1,0.448-1,1c0,2.206-1.794,4-4,4v-1c0-0.552-0.448-1-1-1s-1,0.448-1,1v14.586l-5.293-5.293
		c-0.391-0.391-1.023-0.391-1.414,0c-0.391,0.391-0.391,1.023,0,1.414l7,7C26.484,43.898,26.74,44,27,44
		c0.129,0,0.259-0.025,0.383-0.076C27.756,43.769,28,43.404,28,43V29c3.309,0,6-2.691,6-6C34,22.448,33.552,22,33,22z"/>
	<path fill="#231F20" d="M45.707,2.293c-0.391-0.391-1.023-0.391-1.414,0l-40,40c-0.391,0.391-0.391,1.023,0,1.414
		C4.488,43.902,4.744,44,5,44s0.512-0.098,0.707-0.293l40-40C46.098,3.316,46.098,2.684,45.707,2.293z"/>
</g>
</svg>
