<?xml version="1.0" encoding="utf-8"?>
<!-- Generator: Adobe Illustrator 17.0.0, SVG Export Plug-In . SVG Version: 6.00 Build 0)  -->
<!DOCTYPE svg PUBLIC "-//W3C//DTD SVG 1.1//EN" "http://www.w3.org/Graphics/SVG/1.1/DTD/svg11.dtd">
<svg version="1.1" id="Layer_1" xmlns="http://www.w3.org/2000/svg" xmlns:xlink="http://www.w3.org/1999/xlink" x="0px" y="0px"
	 width="48px" height="48px" viewBox="0 0 48 48" enable-background="new 0 0 48 48" xml:space="preserve">
<g>
	<path fill="#231F20" d="M27,4C19.819,4,12.886,8.082,9.891,14H6c-3.309,0-6,2.691-6,6v4c0,3.309,2.691,6,6,6h3.891
		C12.886,35.918,19.818,40,27,40c0.552,0,1-0.448,1-1V5C28,4.448,27.552,4,27,4z M25.999,37.969
		c-6.208-0.376-12.225-4.206-14.568-9.382C11.269,28.23,10.913,28,10.52,28H6c-2.206,0-4-1.794-4-4v-4c0-2.206,1.794-4,4-4h4.52
		c0.393,0,0.749-0.23,0.911-0.588c2.343-5.176,8.36-9.006,14.568-9.382V37.969z"/>
	<path fill="#231F20" d="M37.469,10.117c-0.49-0.259-1.093-0.073-1.352,0.415c-0.259,0.488-0.073,1.093,0.415,1.352
		C39.853,13.643,42,17.614,42,22c0,4.385-2.147,8.356-5.469,10.116c-0.487,0.259-0.673,0.864-0.415,1.352
		C36.296,33.807,36.643,34,37.001,34c0.158,0,0.318-0.037,0.467-0.116C41.436,31.781,44,27.116,44,22
		C44,16.883,41.436,12.218,37.469,10.117z"/>
	<path fill="#231F20" d="M40,22c0-4.195-2.282-7.791-5.677-8.947c-0.523-0.176-1.091,0.102-1.269,0.625
		c-0.178,0.523,0.101,1.091,0.624,1.269C36.263,15.827,38,18.661,38,22c0,3.341-1.737,6.175-4.322,7.054
		c-0.522,0.177-0.803,0.745-0.625,1.268c0.141,0.416,0.53,0.679,0.947,0.679c0.106,0,0.215-0.018,0.321-0.054
		C37.718,29.794,40,26.198,40,22z"/>
</g>
<g id="nyt_x5F_exporter_x5F_info" display="none">
</g>
</svg>
