<?xml version="1.0" encoding="utf-8"?>
<!-- Generator: Adobe Illustrator 17.0.0, SVG Export Plug-In . SVG Version: 6.00 Build 0)  -->
<!DOCTYPE svg PUBLIC "-//W3C//DTD SVG 1.1//EN" "http://www.w3.org/Graphics/SVG/1.1/DTD/svg11.dtd">
<svg version="1.1" id="Layer_1" xmlns="http://www.w3.org/2000/svg" xmlns:xlink="http://www.w3.org/1999/xlink" x="0px" y="0px"
	 width="48px" height="48px" viewBox="0 0 48 48" enable-background="new 0 0 48 48" xml:space="preserve">
<g>
	<path fill="#231F20" d="M7,29c0-0.552-0.448-1-1-1c-2.206,0-4-1.794-4-4v-4c0-2.206,1.794-4,4-4h4.52
		c0.393,0,0.749-0.23,0.912-0.588C13.776,10.236,19.793,6.406,26,6.03V10c0,0.552,0.448,1,1,1s1-0.448,1-1V5c0-0.552-0.448-1-1-1
		C19.82,4,12.887,8.082,9.891,14H6c-3.309,0-6,2.691-6,6v4c0,3.309,2.691,6,6,6C6.552,30,7,29.552,7,29z"/>
	<path fill="#231F20" d="M32,21c-0.552,0-1,0.448-1,1c0,1.654-1.345,2.999-2.999,3v-2c0-0.552-0.448-1-1-1s-1,0.448-1,1v2.995
		C26.001,25.997,26,25.998,26,26s0.001,0.003,0.001,0.005V37.97c-3.837-0.222-7.893-1.686-10.353-3.783
		c-0.421-0.358-1.052-0.308-1.41,0.113c-0.358,0.42-0.308,1.052,0.112,1.41C17.408,38.316,22.373,40,27,40c0.552,0,1-0.448,1.001-1
		V27c2.757,0,4.999-2.243,4.999-5C33,21.448,32.552,21,32,21z"/>
	<path fill="#231F20" d="M38.717,4.303c-0.386-0.395-1.018-0.405-1.414-0.02l-35,34c-0.396,0.385-0.405,1.018-0.02,1.414
		C2.479,39.898,2.739,40,3,40c0.251,0,0.502-0.094,0.696-0.283l35-34C39.092,5.332,39.102,4.699,38.717,4.303z"/>
</g>
<g id="nyt_x5F_exporter_x5F_info" display="none">
</g>
</svg>
