<?xml version="1.0" encoding="utf-8"?>
<!-- Generator: Adobe Illustrator 17.0.0, SVG Export Plug-In . SVG Version: 6.00 Build 0)  -->
<!DOCTYPE svg PUBLIC "-//W3C//DTD SVG 1.1//EN" "http://www.w3.org/Graphics/SVG/1.1/DTD/svg11.dtd">
<svg version="1.1" id="Layer_1" xmlns="http://www.w3.org/2000/svg" xmlns:xlink="http://www.w3.org/1999/xlink" x="0px" y="0px"
	 width="48px" height="48px" viewBox="0 0 48 48" enable-background="new 0 0 48 48" xml:space="preserve">
<g>
	<path fill="#231F20" d="M12,31c0.553,0,1-0.448,1-1s-0.447-1-1-1c-1.103,0-2-0.897-2-2v-6c0-1.103,0.897-2,2-2h5
		c0.266,0,0.519-0.105,0.707-0.293L26,10.414V15c0,0.552,0.447,1,1,1s1-0.448,1-1V8c0-0.404-0.243-0.769-0.617-0.924
		c-0.374-0.155-0.804-0.07-1.09,0.217L16.586,17H12c-2.206,0-4,1.794-4,4v6C8,29.206,9.794,31,12,31z"/>
	<path fill="#231F20" d="M27,28c-0.553,0-1,0.448-1,1v8.586l-3.293-3.293c-0.391-0.391-1.023-0.391-1.414,0
		c-0.391,0.391-0.391,1.023,0,1.414l5,5C26.484,40.898,26.74,41,27,41c0.129,0,0.259-0.025,0.383-0.076
		C27.757,40.769,28,40.404,28,40V29C28,28.448,27.553,28,27,28z"/>
	<path fill="#231F20" d="M24,0C10.767,0,0,10.767,0,24s10.767,24,24,24c13.233,0,24-10.767,24-24S37.233,0,24,0z M2,24
		C2,11.869,11.869,2,24,2c5.96,0,11.371,2.386,15.337,6.248L8.248,39.337C4.386,35.371,2,29.96,2,24z M24,46
		c-5.452,0-10.444-1.998-14.292-5.295L40.705,9.708C44.002,13.556,46,18.548,46,24C46,36.131,36.131,46,24,46z"/>
</g>
<g id="nyt_x5F_exporter_x5F_info" display="none">
</g>
</svg>
