<?xml version="1.0" encoding="utf-8"?>
<!-- Generator: Adobe Illustrator 17.0.0, SVG Export Plug-In . SVG Version: 6.00 Build 0)  -->
<!DOCTYPE svg PUBLIC "-//W3C//DTD SVG 1.1//EN" "http://www.w3.org/Graphics/SVG/1.1/DTD/svg11.dtd">
<svg version="1.1" id="Layer_1" xmlns="http://www.w3.org/2000/svg" xmlns:xlink="http://www.w3.org/1999/xlink" x="0px" y="0px"
	 width="48px" height="48px" viewBox="0 0 48 48" enable-background="new 0 0 48 48" xml:space="preserve">
<g>
	<path fill="#231F20" d="M47,22H31c-0.552,0-1,0.448-1,1s0.448,1,1,1h16c0.552,0,1-0.448,1-1S47.552,22,47,22z"/>
	<path fill="#231F20" d="M25.383,2.076c-0.376-0.155-0.804-0.069-1.09,0.217L10.586,16H4c-2.206,0-4,1.794-4,4v6
		c0,2.206,1.794,4,4,4h6.586l13.707,13.707C24.484,43.898,24.74,44,25,44c0.129,0,0.259-0.025,0.383-0.076
		C25.756,43.769,26,43.404,26,43V3C26,2.596,25.756,2.231,25.383,2.076z M24,40.586L11.707,28.293C11.519,28.106,11.265,28,11,28H4
		c-1.103,0-2-0.897-2-2v-6c0-1.103,0.897-2,2-2h7c0.265,0,0.519-0.105,0.707-0.293L24,5.414V40.586z"/>
</g>
<g id="nyt_x5F_exporter_x5F_info" display="none">
</g>
</svg>
