<?xml version="1.0" encoding="utf-8"?>
<!-- Generator: Adobe Illustrator 17.0.0, SVG Export Plug-In . SVG Version: 6.00 Build 0)  -->
<!DOCTYPE svg PUBLIC "-//W3C//DTD SVG 1.1//EN" "http://www.w3.org/Graphics/SVG/1.1/DTD/svg11.dtd">
<svg version="1.1" id="Layer_1" xmlns="http://www.w3.org/2000/svg" xmlns:xlink="http://www.w3.org/1999/xlink" x="0px" y="0px"
	 width="48px" height="48px" viewBox="0 0 48 48" enable-background="new 0 0 48 48" xml:space="preserve">
<g>
	<path fill="#231F20" d="M35,16H17c-1.654,0-3,1.346-3,3v1h-3c-0.552,0-1,0.448-1,1v12c0,0.552,0.448,1,1,1h3v11
		c0,1.654,1.346,3,3,3h18c1.654,0,3-1.346,3-3V19C38,17.346,36.654,16,35,16z M14,22v4h-2v-4H14z M12,32v-4h2v4H12z M36,45
		c0,0.551-0.449,1-1,1H17c-0.551,0-1-0.449-1-1V33V21v-2c0-0.551,0.449-1,1-1h18c0.551,0,1,0.449,1,1V45z"/>
	<path fill="#231F20" d="M33,42H19c-0.552,0-1,0.448-1,1s0.448,1,1,1h14c0.552,0,1-0.448,1-1S33.552,42,33,42z"/>
	<path fill="#231F20" d="M33,20H19c-0.552,0-1,0.448-1,1v18c0,0.552,0.448,1,1,1h14c0.552,0,1-0.448,1-1V21
		C34,20.448,33.552,20,33,20z M32,38H20V22h12V38z"/>
	<circle fill="#231F20" cx="27" cy="27" r="1"/>
	<circle fill="#231F20" cx="27" cy="33" r="1"/>
	<path fill="#231F20" d="M24,0C10.767,0,0,10.767,0,24v6c0,0.552,0.448,1,1,1h1v2c0,1.654,1.346,3,3,3s3-1.346,3-3v-6
		c0-1.654-1.346-3-3-3s-3,1.346-3,3v-3C2,11.869,11.869,2,24,2s22,9.869,22,22v3c0-1.654-1.346-3-3-3s-3,1.346-3,3v6
		c0,1.654,1.346,3,3,3s3-1.346,3-3v-2h1c0.552,0,1-0.448,1-1v-6C48,10.767,37.233,0,24,0z M4,27c0-0.551,0.449-1,1-1s1,0.449,1,1v6
		c0,0.551-0.449,1-1,1s-1-0.449-1-1V27z M44,33c0,0.551-0.449,1-1,1s-1-0.449-1-1v-6c0-0.551,0.449-1,1-1s1,0.449,1,1V33z"/>
</g>
<g id="nyt_x5F_exporter_x5F_info" display="none">
</g>
</svg>
