<?xml version="1.0" encoding="utf-8"?>
<!-- Generator: Adobe Illustrator 17.0.0, SVG Export Plug-In . SVG Version: 6.00 Build 0)  -->
<!DOCTYPE svg PUBLIC "-//W3C//DTD SVG 1.1//EN" "http://www.w3.org/Graphics/SVG/1.1/DTD/svg11.dtd">
<svg version="1.1" id="Layer_1" xmlns="http://www.w3.org/2000/svg" xmlns:xlink="http://www.w3.org/1999/xlink" x="0px" y="0px"
	 width="48px" height="48px" viewBox="0 0 48 48" enable-background="new 0 0 48 48" xml:space="preserve">
<path fill="#231F20" d="M45,18H32.941c-0.5-4.493-4.317-8-8.941-8s-8.441,3.507-8.941,8H3c-0.552,0-1,0.448-1,1v28
	c0,0.552,0.448,1,1,1h42c0.552,0,1-0.448,1-1V19C46,18.448,45.552,18,45,18z M24,12c3.52,0,6.432,2.613,6.92,6H17.08
	C17.568,14.613,20.48,12,24,12z M44,20v8H28v-1c0-0.552-0.448-1-1-1h-6c-0.552,0-1,0.448-1,1v1H4v-8H44z M22,28h4v6h-4V28z M4,46V30
	h16v5c0,0.552,0.448,1,1,1h6c0.552,0,1-0.448,1-1v-5h16v16H4z"/>
</svg>
