<?xml version="1.0" encoding="utf-8"?>
<!-- Generator: Adobe Illustrator 17.0.0, SVG Export Plug-In . SVG Version: 6.00 Build 0)  -->
<!DOCTYPE svg PUBLIC "-//W3C//DTD SVG 1.1//EN" "http://www.w3.org/Graphics/SVG/1.1/DTD/svg11.dtd">
<svg version="1.1" id="Layer_1" xmlns="http://www.w3.org/2000/svg" xmlns:xlink="http://www.w3.org/1999/xlink" x="0px" y="0px"
	 width="48px" height="48px" viewBox="0 0 48 48" enable-background="new 0 0 48 48" xml:space="preserve">
<g>
	<path fill="#231F20" d="M23,20c-2.757,0-5,2.243-5,5s2.243,5,5,5s5-2.243,5-5S25.757,20,23,20z M23,28c-1.654,0-3-1.346-3-3
		s1.346-3,3-3s3,1.346,3,3S24.654,28,23,28z"/>
	<path fill="#231F20" d="M15,25c0-0.552-0.448-1-1-1h-4c-0.552,0-1,0.448-1,1s0.448,1,1,1h4C14.552,26,15,25.552,15,25z"/>
	<path fill="#231F20" d="M15.928,30.657l-2.829,2.828c-0.391,0.39-0.391,1.023,0,1.414c0.195,0.195,0.451,0.293,0.707,0.293
		c0.256,0,0.512-0.097,0.707-0.293l2.829-2.828c0.391-0.39,0.391-1.023,0-1.414S16.319,30.266,15.928,30.657z"/>
	<path fill="#231F20" d="M23,33c-0.552,0-1,0.448-1,1v4c0,0.552,0.448,1,1,1s1-0.448,1-1v-4C24,33.448,23.552,33,23,33z"/>
	<path fill="#231F20" d="M30.069,30.655c-0.391-0.39-1.024-0.39-1.415,0c-0.39,0.391-0.39,1.024,0,1.415l2.828,2.829
		c0.196,0.195,0.452,0.293,0.708,0.293s0.512-0.097,0.707-0.294c0.39-0.39,0.39-1.023,0-1.414L30.069,30.655z"/>
	<path fill="#231F20" d="M36,24l-4-0.001c-0.552,0-1,0.448-1,1s0.447,1,1,1L36,26c0.552,0,1-0.448,1-1S36.553,24,36,24z"/>
	<path fill="#231F20" d="M29.363,19.636c0.256,0,0.511-0.098,0.707-0.293l2.828-2.828c0.391-0.391,0.391-1.024,0-1.414
		c-0.391-0.391-1.023-0.391-1.414,0l-2.828,2.828c-0.391,0.39-0.391,1.024,0,1.414C28.851,19.538,29.107,19.636,29.363,19.636z"/>
	<path fill="#231F20" d="M23,17c0.552,0,1-0.448,1-1v-4c0-0.552-0.448-1-1-1s-1,0.448-1,1v4C22,16.552,22.448,17,23,17z"/>
	<path fill="#231F20" d="M15.927,19.343c0.195,0.195,0.451,0.293,0.707,0.293c0.256,0,0.512-0.098,0.707-0.293
		c0.391-0.391,0.391-1.023,0-1.414l-2.828-2.828c-0.39-0.391-1.023-0.391-1.414,0s-0.391,1.023,0,1.414L15.927,19.343z"/>
</g>
</svg>
