<?xml version="1.0" encoding="utf-8"?>
<!-- Generator: Adobe Illustrator 17.0.0, SVG Export Plug-In . SVG Version: 6.00 Build 0)  -->
<!DOCTYPE svg PUBLIC "-//W3C//DTD SVG 1.1//EN" "http://www.w3.org/Graphics/SVG/1.1/DTD/svg11.dtd">
<svg version="1.1" id="Layer_1" xmlns="http://www.w3.org/2000/svg" xmlns:xlink="http://www.w3.org/1999/xlink" x="0px" y="0px"
	 width="48px" height="48px" viewBox="0 0 48 48" enable-background="new 0 0 48 48" xml:space="preserve">
<g>
	<path fill="#231F20" d="M24,15c-4.962,0-9,4.038-9,9s4.038,9,9,9s9-4.038,9-9S28.962,15,24,15z M24,31c-3.86,0-7-3.14-7-7
		s3.14-7,7-7s7,3.14,7,7S27.86,31,24,31z"/>
	<path fill="#231F20" d="M25,10c0.552,0,1-0.448,1-1V1c0-0.552-0.448-1-1-1s-1,0.448-1,1v8C24,9.552,24.448,10,25,10z"/>
	<path fill="#231F20" d="M25,38c-0.552,0-1,0.448-1,1v8c0,0.552,0.448,1,1,1s1-0.448,1-1v-8C26,38.448,25.552,38,25,38z"/>
	<path fill="#231F20" d="M8.443,7.029c-0.391-0.391-1.023-0.391-1.414,0c-0.391,0.39-0.391,1.023,0,1.414l5.656,5.658
		c0.195,0.195,0.451,0.293,0.707,0.293c0.256,0,0.512-0.098,0.707-0.294c0.391-0.39,0.391-1.023,0-1.414L8.443,7.029z"/>
	<path fill="#231F20" d="M35.312,33.9c-0.39-0.391-1.023-0.391-1.414,0c-0.391,0.391-0.391,1.023,0,1.414l5.658,5.657
		c0.195,0.195,0.451,0.293,0.707,0.293s0.512-0.098,0.707-0.293c0.391-0.39,0.391-1.023,0-1.414L35.312,33.9z"/>
	<path fill="#231F20" d="M10,25c0-0.552-0.448-1-1-1H1c-0.552,0-1,0.448-1,1s0.448,1,1,1h8C9.552,26,10,25.552,10,25z"/>
	<path fill="#231F20" d="M47,24h-8c-0.552,0-1,0.448-1,1s0.448,1,1,1h8c0.552,0,1-0.448,1-1S47.552,24,47,24z"/>
	<path fill="#231F20" d="M12.685,33.9l-5.656,5.657c-0.391,0.391-0.391,1.024,0,1.414c0.195,0.195,0.451,0.293,0.707,0.293
		c0.256,0,0.512-0.098,0.707-0.293l5.656-5.657c0.391-0.39,0.391-1.024,0-1.414C13.708,33.509,13.076,33.509,12.685,33.9z"/>
	<path fill="#231F20" d="M34.605,14.394c0.256,0,0.512-0.098,0.707-0.293l5.658-5.657c0.391-0.391,0.391-1.023,0-1.414
		c-0.391-0.391-1.023-0.391-1.414,0l-5.658,5.657c-0.391,0.39-0.391,1.023,0,1.414C34.093,14.296,34.349,14.394,34.605,14.394z"/>
</g>
</svg>
