<?xml version="1.0" encoding="utf-8"?>
<!-- Generator: Adobe Illustrator 17.0.0, SVG Export Plug-In . SVG Version: 6.00 Build 0)  -->
<!DOCTYPE svg PUBLIC "-//W3C//DTD SVG 1.1//EN" "http://www.w3.org/Graphics/SVG/1.1/DTD/svg11.dtd">
<svg version="1.1" id="Layer_1" xmlns="http://www.w3.org/2000/svg" xmlns:xlink="http://www.w3.org/1999/xlink" x="0px" y="0px"
	 width="48px" height="48px" viewBox="0 0 48 48" enable-background="new 0 0 48 48" xml:space="preserve">
<path fill="#231F20" d="M47,26H35.677l-3.75-9.371c-0.163-0.408-0.577-0.662-1.013-0.625c-0.438,0.037-0.801,0.357-0.893,0.787
	l-4.873,22.742L19.987,6.845c-0.072-0.461-0.454-0.811-0.92-0.842c-0.464-0.028-0.89,0.263-1.025,0.71L12.256,26H1
	c-0.552,0-1,0.448-1,1s0.448,1,1,1h12c0.441,0,0.831-0.29,0.957-0.713l4.739-15.796l5.315,33.665
	c0.076,0.476,0.479,0.831,0.961,0.844c0.009,0,0.019,0,0.028,0c0.47,0,0.879-0.329,0.978-0.79l5.312-24.792l2.781,6.954
	C34.224,27.751,34.591,28,35,28h12c0.552,0,1-0.448,1-1S47.552,26,47,26z"/>
</svg>
