<?xml version="1.0" encoding="utf-8"?>
<!-- Generator: Adobe Illustrator 17.0.0, SVG Export Plug-In . SVG Version: 6.00 Build 0)  -->
<!DOCTYPE svg PUBLIC "-//W3C//DTD SVG 1.1//EN" "http://www.w3.org/Graphics/SVG/1.1/DTD/svg11.dtd">
<svg version="1.1" id="Layer_1" xmlns="http://www.w3.org/2000/svg" xmlns:xlink="http://www.w3.org/1999/xlink" x="0px" y="0px"
	 width="48px" height="48px" viewBox="0 0 48 48" enable-background="new 0 0 48 48" xml:space="preserve">
<g>
	<path fill="#231F20" d="M36.728,25.273c-0.391-0.391-1.023-0.391-1.414,0l-9.295,9.293C25.424,34.215,24.739,34,24,34
		c-2.206,0-4,1.794-4,4s1.794,4,4,4s4-1.794,4-4c0-0.74-0.216-1.425-0.567-2.02l9.295-9.293
		C37.119,26.297,37.119,25.664,36.728,25.273z M24,40c-1.103,0-2-0.897-2-2s0.897-2,2-2c0.551,0,1.051,0.224,1.413,0.586
		c0,0,0,0,0,0c0,0,0,0,0.001,0C25.776,36.949,26,37.449,26,38C26,39.103,25.103,40,24,40z"/>
	<path fill="#231F20" d="M9,38H5c-0.552,0-1,0.448-1,1s0.448,1,1,1h4c0.552,0,1-0.448,1-1S9.552,38,9,38z"/>
	<path fill="#231F20" d="M38,39c0,0.552,0.448,1,1,1l4,0.002c0.552,0,1-0.447,1-1c0-0.552-0.448-1-1-1L39,38
		C38.448,38,38,38.448,38,39z"/>
	<path fill="#231F20" d="M36.933,32.642c0.159,0.385,0.531,0.618,0.924,0.618c0.128,0,0.257-0.025,0.382-0.076l3.696-1.529
		c0.511-0.211,0.753-0.796,0.542-1.306c-0.21-0.511-0.796-0.753-1.306-0.542l-3.696,1.529
		C36.964,31.547,36.722,32.132,36.933,32.642z"/>
	<path fill="#231F20" d="M29.357,25.066c0.125,0.052,0.254,0.077,0.382,0.077c0.393,0,0.765-0.233,0.925-0.618l1.531-3.695
		c0.212-0.511-0.031-1.095-0.541-1.307c-0.513-0.212-1.096,0.031-1.307,0.541l-1.531,3.695
		C28.605,24.27,28.847,24.855,29.357,25.066z"/>
	<path fill="#231F20" d="M24,24c0.552,0,1-0.448,1-1v-4c0-0.552-0.448-1-1-1s-1,0.448-1,1v4C23,23.552,23.448,24,24,24z"/>
	<path fill="#231F20" d="M17.655,20.066c-0.211-0.511-0.797-0.754-1.306-0.542c-0.511,0.211-0.753,0.796-0.542,1.306l1.529,3.695
		c0.159,0.385,0.531,0.618,0.924,0.618c0.128,0,0.257-0.025,0.382-0.076c0.511-0.211,0.753-0.796,0.542-1.306L17.655,20.066z"/>
	<path fill="#231F20" d="M11.273,23.859c-0.39-0.391-1.023-0.391-1.414-0.001c-0.391,0.39-0.391,1.023-0.001,1.414l2.826,2.83
		c0.196,0.195,0.452,0.293,0.708,0.293c0.256,0,0.511-0.098,0.706-0.292c0.391-0.39,0.391-1.023,0.001-1.414L11.273,23.859z"/>
	<path fill="#231F20" d="M10.526,31.335l-3.695-1.531c-0.511-0.211-1.096,0.031-1.307,0.541c-0.211,0.511,0.031,1.096,0.541,1.307
		l3.695,1.531c0.125,0.052,0.255,0.077,0.382,0.077c0.392,0,0.764-0.232,0.925-0.618C11.278,32.131,11.036,31.547,10.526,31.335z"/>
	<path fill="#231F20" d="M24,14C10.767,14,0,24.767,0,38v9c0,0.552,0.448,1,1,1h46c0.552,0,1-0.448,1-1v-9
		C48,24.767,37.233,14,24,14z M46,46H2v-8c0-12.131,9.869-22,22-22s22,9.869,22,22V46z"/>
</g>
</svg>
