<?xml version="1.0" encoding="utf-8"?>
<!-- Generator: Adobe Illustrator 17.0.0, SVG Export Plug-In . SVG Version: 6.00 Build 0)  -->
<!DOCTYPE svg PUBLIC "-//W3C//DTD SVG 1.1//EN" "http://www.w3.org/Graphics/SVG/1.1/DTD/svg11.dtd">
<svg version="1.1" id="Layer_1" xmlns="http://www.w3.org/2000/svg" xmlns:xlink="http://www.w3.org/1999/xlink" x="0px" y="0px"
	 width="48px" height="48px" viewBox="0 0 48 48" enable-background="new 0 0 48 48" xml:space="preserve">
<path fill="#231F20" d="M47.708,3.293l-3-3c-0.39-0.391-1.023-0.391-1.414,0l-6,6c-0.391,0.391-0.391,1.023,0,1.414l0.792,0.792
	L17.142,29.443l-1.414-1.414c0,0-0.001,0-0.001-0.001l-2.119-2.119c-0.391-0.391-1.023-0.391-1.414,0
	c-0.391,0.391-0.391,1.023,0,1.414l1.413,1.413L1.173,41.171C0.416,41.927,0,42.933,0,44.002c0.001,1.069,0.417,2.073,1.171,2.825
	C1.925,47.584,2.93,48.001,4,48.001c1.068,0,2.073-0.416,2.828-1.171l12.435-12.437l1.414,1.414
	c0.195,0.195,0.451,0.293,0.707,0.293c0.256,0,0.511-0.098,0.707-0.293c0.391-0.391,0.391-1.023,0-1.414l-2.116-2.117
	c-0.002-0.002-0.002-0.004-0.004-0.005l-1.414-1.414L39.5,9.913l0.794,0.794C40.489,10.902,40.745,11,41.001,11
	c0.256,0,0.512-0.098,0.707-0.293l6-6C48.099,4.316,48.099,3.684,47.708,3.293z M5.414,45.417c-0.754,0.754-2.072,0.757-2.828-0.003
	C2.209,45.037,2,44.536,2,44.002c0-0.535,0.208-1.038,0.587-1.416L15.02,30.15l1.48,1.48l1.349,1.349L5.414,45.417z M41.001,8.586
	L39.415,7l4.586-4.586L45.587,4L41.001,8.586z"/>
</svg>
