<?xml version="1.0" encoding="utf-8"?>
<!-- Generator: Adobe Illustrator 17.0.0, SVG Export Plug-In . SVG Version: 6.00 Build 0)  -->
<!DOCTYPE svg PUBLIC "-//W3C//DTD SVG 1.1//EN" "http://www.w3.org/Graphics/SVG/1.1/DTD/svg11.dtd">
<svg version="1.1" id="Layer_1" xmlns="http://www.w3.org/2000/svg" xmlns:xlink="http://www.w3.org/1999/xlink" x="0px" y="0px"
	 width="48px" height="48px" viewBox="0 0 48 48" enable-background="new 0 0 48 48" xml:space="preserve">
<g>
	<path fill="#231F20" d="M47,20h-5.711c-0.399-1.581-0.908-3.334-1.555-4.664l4.064-4.065c0.188-0.188,0.293-0.442,0.293-0.707
		c0-0.265-0.105-0.519-0.293-0.707L38.14,4.201c-0.391-0.391-1.023-0.391-1.414,0l-4.065,4.065C31.331,7.618,29.578,7.108,28,6.71V1
		c0-0.552-0.447-1-1-1h-6c-0.553,0-1,0.448-1,1v5.71c-1.58,0.399-3.334,0.909-4.663,1.557l-4.066-4.065
		c-0.39-0.391-1.023-0.391-1.414,0L4.2,9.858c-0.391,0.39-0.391,1.023,0,1.414l4.066,4.066C7.62,16.664,7.109,18.419,6.708,20H1
		c-0.553,0-1,0.448-1,1v6c0,0.552,0.447,1,1,1h5.708c0.401,1.582,0.912,3.336,1.558,4.662L4.2,36.729
		c-0.188,0.187-0.293,0.442-0.293,0.707c0,0.265,0.105,0.519,0.293,0.707l5.658,5.656c0.376,0.375,1.04,0.375,1.414,0l4.064-4.066
		c1.327,0.646,3.082,1.157,4.664,1.558V47c0,0.552,0.447,1,1,1h6c0.553,0,1-0.448,1-1v-5.709c1.581-0.401,3.335-0.911,4.661-1.557
		l4.067,4.065c0.391,0.39,1.023,0.391,1.414,0l5.656-5.656c0.391-0.391,0.391-1.023,0-1.414l-4.064-4.067
		c0.645-1.326,1.156-3.08,1.557-4.662H47c0.553,0,1-0.448,1-1v-6C48,20.448,47.553,20,47,20z M46,26h-5.492
		c-0.462,0-0.864,0.316-0.971,0.763c-0.271,1.116-0.989,4.08-1.89,5.556c-0.24,0.395-0.179,0.902,0.147,1.229l3.885,3.887
		l-4.242,4.242l-3.888-3.885c-0.329-0.327-0.837-0.387-1.229-0.146c-1.477,0.902-4.44,1.619-5.555,1.89
		C26.316,39.645,26,40.047,26,40.508V46h-4v-5.492c0-0.462-0.316-0.863-0.764-0.972c-1.117-0.27-4.08-0.988-5.558-1.891
		c-0.393-0.24-0.903-0.182-1.229,0.146l-3.885,3.887L6.32,37.436l3.888-3.886c0.327-0.327,0.386-0.835,0.146-1.229
		c-0.903-1.476-1.62-4.44-1.891-5.556C8.354,26.316,7.953,26,7.491,26H2v-4h5.491c0.462,0,0.863-0.316,0.97-0.765
		c0.271-1.116,0.989-4.08,1.891-5.556c0.241-0.395,0.181-0.902-0.146-1.229L6.32,10.563l4.243-4.242l3.887,3.885
		c0.328,0.327,0.836,0.387,1.229,0.147c1.483-0.906,4.442-1.618,5.555-1.887C21.684,8.358,22,7.956,22,7.494V2h4v5.494
		c0,0.462,0.316,0.864,0.765,0.973c1.746,0.421,4.222,1.074,5.555,1.887c0.392,0.24,0.901,0.18,1.228-0.147l3.886-3.885l4.244,4.242
		l-3.885,3.885c-0.327,0.326-0.387,0.834-0.147,1.228c0.907,1.485,1.619,4.443,1.887,5.557C39.642,21.684,40.044,22,40.506,22H46V26
		z"/>
	<path fill="#231F20" d="M24,14c-5.514,0-10,4.486-10,10s4.486,10,10,10s10-4.486,10-10S29.514,14,24,14z M24,32
		c-4.411,0-8-3.589-8-8s3.589-8,8-8s8,3.589,8,8S28.411,32,24,32z"/>
</g>
</svg>
