<?xml version="1.0" encoding="utf-8"?>
<!-- Generator: Adobe Illustrator 17.1.0, SVG Export Plug-In . SVG Version: 6.00 Build 0)  -->
<!DOCTYPE svg PUBLIC "-//W3C//DTD SVG 1.0//EN" "http://www.w3.org/TR/2001/REC-SVG-20010904/DTD/svg10.dtd">
<svg version="1.0" id="Layer_1" xmlns="http://www.w3.org/2000/svg" xmlns:xlink="http://www.w3.org/1999/xlink" x="0px" y="0px"
	 width="48px" height="48px" viewBox="0 0 48 48" enable-background="new 0 0 48 48" xml:space="preserve">
<g>
	<path d="M47,0H1C0.448,0,0,0.447,0,1v46c0,0.553,0.448,1,1,1h46c0.552,0,1-0.447,1-1V1C48,0.447,47.552,0,47,0z M46,46H2V2h44V46z"
		/>
	<path d="M31,26h2v3c0,0.553,0.448,1,1,1s1-0.447,1-1v-3h2c0.552,0,1-0.447,1-1v-4c0-0.553-0.448-1-1-1h-2V7c0-0.553-0.448-1-1-1
		s-1,0.447-1,1v13h-2c-0.552,0-1,0.447-1,1v4C30,25.553,30.448,26,31,26z M32,22h4v2h-4V22z"/>
	<path d="M21,16h2v13c0,0.553,0.448,1,1,1c0.552,0,1-0.447,1-1V16h2c0.552,0,1-0.447,1-1v-4c0-0.553-0.448-1-1-1h-2V7
		c0-0.553-0.448-1-1-1c-0.552,0-1,0.447-1,1v3h-2c-0.552,0-1,0.447-1,1v4C20,15.553,20.448,16,21,16z M22,12h4v2h-4V12z"/>
	<path d="M11,22h2v7c0,0.553,0.448,1,1,1c0.552,0,1-0.447,1-1v-7h2c0.552,0,1-0.447,1-1v-4c0-0.553-0.448-1-1-1h-2V7
		c0-0.553-0.448-1-1-1c-0.552,0-1,0.447-1,1v9h-2c-0.552,0-1,0.447-1,1v4C10,21.553,10.448,22,11,22z M12,18h4v2h-4V18z"/>
	<path d="M34,42c2.206,0,4-1.794,4-4s-1.794-4-4-4s-4,1.794-4,4S31.794,42,34,42z M34,36c1.103,0,2,0.897,2,2s-0.897,2-2,2
		s-2-0.897-2-2S32.897,36,34,36z"/>
	<path d="M24,42c2.206,0,4-1.794,4-4s-1.794-4-4-4s-4,1.794-4,4S21.794,42,24,42z M24,36c1.103,0,2,0.897,2,2s-0.897,2-2,2
		c-1.103,0-2-0.897-2-2S22.897,36,24,36z"/>
	<path d="M14,42c2.206,0,4-1.794,4-4s-1.794-4-4-4s-4,1.794-4,4S11.794,42,14,42z M14,36c1.103,0,2,0.897,2,2s-0.897,2-2,2
		s-2-0.897-2-2S12.897,36,14,36z"/>
</g>
</svg>
