<?xml version="1.0" encoding="utf-8"?>
<!-- Generator: Adobe Illustrator 17.0.0, SVG Export Plug-In . SVG Version: 6.00 Build 0)  -->
<!DOCTYPE svg PUBLIC "-//W3C//DTD SVG 1.1//EN" "http://www.w3.org/Graphics/SVG/1.1/DTD/svg11.dtd">
<svg version="1.1" id="Layer_1" xmlns="http://www.w3.org/2000/svg" xmlns:xlink="http://www.w3.org/1999/xlink" x="0px" y="0px"
	 width="48px" height="48px" viewBox="0 0 48 48" enable-background="new 0 0 48 48" xml:space="preserve">
<g>
	<path fill="#231F20" d="M17.188,24c-3.859,0-7,3.14-7,7s3.141,7,7,7c3.86,0,7-3.14,7-7S21.047,24,17.188,24z M17.188,36
		c-2.757,0-5-2.243-5-5s2.243-5,5-5c2.757,0,5,2.243,5,5S19.945,36,17.188,36z"/>
	<path fill="#231F20" d="M38.188,6c-2.206,0-4,1.794-4,4s1.794,4,4,4s4-1.794,4-4S40.394,6,38.188,6z M38.188,12
		c-1.103,0-2-0.897-2-2s0.897-2,2-2c1.103,0,2,0.897,2,2S39.291,12,38.188,12z"/>
	<path fill="#231F20" d="M33.56,34.669l-2.541-1.464c0.113-0.722,0.17-1.461,0.17-2.205c0-0.73-0.06-1.469-0.178-2.206l2.532-1.463
		c0.478-0.276,0.642-0.887,0.366-1.366l-4-6.93c-0.133-0.231-0.354-0.399-0.612-0.467c-0.261-0.068-0.534-0.03-0.763,0.106
		l-2.463,1.456c-1.11-0.942-2.246-1.696-3.741-2.226V15c0-0.552-0.447-1-1-1h-8c-0.553,0-1,0.448-1,1v2.903
		c-1.402,0.488-2.642,1.202-3.89,2.237l-2.577-1.474c-0.475-0.272-1.085-0.109-1.361,0.367l-4.019,6.93
		c-0.133,0.23-0.169,0.503-0.102,0.759c0.069,0.256,0.237,0.475,0.466,0.608l2.526,1.463C3.253,29.535,3.192,30.274,3.192,31
		c0,0.737,0.059,1.476,0.174,2.204l-2.535,1.463c-0.23,0.133-0.398,0.352-0.466,0.608c-0.068,0.256-0.033,0.529,0.1,0.759l4,6.93
		c0.275,0.476,0.882,0.641,1.358,0.371l2.615-1.477c1.247,1.036,2.488,1.751,3.892,2.241V47c0,0.552,0.447,1,1,1h8
		c0.553,0,1-0.448,1.001-1v-2.903c1.496-0.53,2.633-1.285,3.745-2.229l2.498,1.46c0.231,0.135,0.507,0.172,0.762,0.103
		c0.257-0.068,0.477-0.237,0.61-0.468l3.982-6.93C34.202,35.555,34.039,34.944,33.56,34.669z M28.713,41.093l-2.25-1.316
		c-0.375-0.219-0.851-0.172-1.175,0.121c-1.3,1.174-2.461,2.003-4.232,2.507c-0.43,0.123-0.726,0.515-0.726,0.962V46h-6v-2.634
		c0-0.447-0.296-0.839-0.726-0.962c-1.639-0.466-2.946-1.216-4.373-2.506c-0.32-0.289-0.788-0.341-1.163-0.129l-2.366,1.337
		l-3.005-5.205l2.281-1.316c0.375-0.217,0.569-0.65,0.479-1.074C5.281,32.687,5.192,31.842,5.192,31c0-0.82,0.091-1.665,0.271-2.511
		c0.089-0.423-0.103-0.856-0.478-1.073l-2.271-1.315l3.018-5.204l2.331,1.331c0.377,0.214,0.845,0.163,1.166-0.126
		c1.431-1.291,2.738-2.04,4.374-2.505c0.43-0.122,0.727-0.515,0.727-0.962V16h6v2.635c0,0.447,0.296,0.84,0.726,0.962
		c1.772,0.503,2.932,1.331,4.229,2.504c0.326,0.294,0.803,0.342,1.18,0.119l2.217-1.31l2.995,5.189l-2.278,1.316
		c-0.375,0.216-0.569,0.65-0.479,1.074c0.179,0.837,0.269,1.681,0.269,2.511c0,0.856-0.087,1.701-0.259,2.512
		c-0.09,0.424,0.103,0.857,0.479,1.073l2.287,1.318L28.713,41.093z"/>
	<path fill="#231F20" d="M47.499,11.9l-1.385-0.796c0.05-0.364,0.075-0.733,0.075-1.105c0-0.364-0.027-0.735-0.081-1.108
		l1.375-0.793c0.478-0.276,0.642-0.888,0.366-1.366l-2-3.465c-0.134-0.232-0.355-0.401-0.615-0.468
		c-0.261-0.068-0.536-0.028-0.765,0.11l-1.302,0.78c-0.566-0.444-1.186-0.812-1.837-1.09V1c0-0.552-0.447-1-1-1h-4
		c-0.553,0-1,0.448-1,1v1.594c-0.724,0.295-1.407,0.677-1.984,1.112l-1.425-0.808c-0.476-0.272-1.083-0.107-1.357,0.366
		l-2.018,3.465c-0.134,0.23-0.171,0.503-0.103,0.76c0.068,0.257,0.235,0.476,0.466,0.609l1.367,0.792
		C30.22,9.267,30.192,9.639,30.192,10c0,0.367,0.026,0.737,0.079,1.107l-1.377,0.794c-0.231,0.132-0.399,0.351-0.467,0.607
		c-0.068,0.257-0.033,0.53,0.1,0.759l1.999,3.465c0.273,0.474,0.876,0.639,1.354,0.374l1.461-0.815
		c0.578,0.436,1.262,0.821,1.989,1.117V19c0,0.552,0.447,1,1,1h4c0.553,0,1-0.448,1.001-1v-1.598
		c0.652-0.278,1.275-0.648,1.843-1.095l1.338,0.788c0.229,0.135,0.503,0.173,0.764,0.104c0.257-0.069,0.478-0.238,0.611-0.47
		l1.982-3.465C48.143,12.785,47.978,12.175,47.499,11.9z M44.652,14.857L43.57,14.22c-0.381-0.225-0.869-0.172-1.193,0.135
		c-0.682,0.644-1.495,1.128-2.349,1.398c-0.416,0.132-0.698,0.518-0.698,0.954V18h-2h-0.001v-1.291c0-0.436-0.282-0.822-0.698-0.954
		c-0.953-0.301-1.884-0.824-2.489-1.397c-0.318-0.301-0.794-0.359-1.175-0.148l-1.201,0.67l-1.007-1.745l1.125-0.649
		c0.384-0.221,0.577-0.668,0.474-1.098c-0.11-0.464-0.166-0.931-0.166-1.388c0-0.446,0.057-0.9,0.173-1.386
		c0.102-0.43-0.089-0.876-0.472-1.098L30.778,6.87l1.015-1.745l1.169,0.663c0.383,0.218,0.863,0.159,1.181-0.144
		c0.612-0.58,1.519-1.089,2.488-1.395c0.416-0.132,0.698-0.518,0.698-0.954V2h2v1.292c0,0.435,0.281,0.821,0.696,0.953
		c0.86,0.273,1.671,0.757,2.349,1.398c0.326,0.309,0.818,0.361,1.201,0.132l1.048-0.628l0.992,1.718l-1.123,0.648
		c-0.383,0.222-0.575,0.667-0.473,1.097c0.111,0.472,0.168,0.939,0.168,1.389c0,0.474-0.054,0.942-0.159,1.389
		c-0.102,0.431,0.091,0.877,0.475,1.098l1.133,0.651L44.652,14.857z"/>
</g>
</svg>
