<?xml version="1.0" encoding="utf-8"?>
<!-- Generator: Adobe Illustrator 17.0.0, SVG Export Plug-In . SVG Version: 6.00 Build 0)  -->
<!DOCTYPE svg PUBLIC "-//W3C//DTD SVG 1.1//EN" "http://www.w3.org/Graphics/SVG/1.1/DTD/svg11.dtd">
<svg version="1.1" id="Layer_1" xmlns="http://www.w3.org/2000/svg" xmlns:xlink="http://www.w3.org/1999/xlink" x="0px" y="0px"
	 width="48px" height="48px" viewBox="0 0 48 48" enable-background="new 0 0 48 48" xml:space="preserve">
<g>
	<path fill="#231F20" d="M47,0H1C0.448,0,0,0.448,0,1v46c0,0.552,0.448,1,1,1h46c0.552,0,1-0.448,1-1V1C48,0.448,47.552,0,47,0z
		 M46,46H2V2h44V46z"/>
	<path fill="#231F20" d="M17,36h14c0.552,0,1-0.448,1-1V13c0-0.552-0.448-1-1-1H17c-0.552,0-1,0.448-1,1v22
		C16,35.552,16.448,36,17,36z M18,34V18h12v16H18z M30,14v2H18v-2H30z"/>
	<path fill="#231F20" d="M7,10c1.654,0,3-1.346,3-3S8.654,4,7,4S4,5.346,4,7S5.346,10,7,10z M7,6c0.551,0,1,0.449,1,1S7.551,8,7,8
		S6,7.551,6,7S6.449,6,7,6z"/>
	<path fill="#231F20" d="M41,10c1.654,0,3-1.346,3-3s-1.346-3-3-3s-3,1.346-3,3S39.346,10,41,10z M41,6c0.551,0,1,0.449,1,1
		s-0.449,1-1,1s-1-0.449-1-1S40.449,6,41,6z"/>
	<path fill="#231F20" d="M7,44c1.654,0,3-1.346,3-3s-1.346-3-3-3s-3,1.346-3,3S5.346,44,7,44z M7,40c0.551,0,1,0.449,1,1
		s-0.449,1-1,1s-1-0.449-1-1S6.449,40,7,40z"/>
	<path fill="#231F20" d="M41,44c1.654,0,3-1.346,3-3s-1.346-3-3-3s-3,1.346-3,3S39.346,44,41,44z M41,40c0.551,0,1,0.449,1,1
		s-0.449,1-1,1s-1-0.449-1-1S40.449,40,41,40z"/>
</g>
</svg>
