<?xml version="1.0" encoding="utf-8"?>
<!-- Generator: Adobe Illustrator 17.0.0, SVG Export Plug-In . SVG Version: 6.00 Build 0)  -->
<!DOCTYPE svg PUBLIC "-//W3C//DTD SVG 1.1//EN" "http://www.w3.org/Graphics/SVG/1.1/DTD/svg11.dtd">
<svg version="1.1" id="Layer_1" xmlns="http://www.w3.org/2000/svg" xmlns:xlink="http://www.w3.org/1999/xlink" x="0px" y="0px"
	 width="48px" height="48px" viewBox="0 0 48 48" enable-background="new 0 0 48 48" xml:space="preserve">
<path fill="#231F20" d="M45.841,7.941c-0.145-0.284-0.419-0.482-0.734-0.532c-0.314-0.051-0.636,0.054-0.862,0.28L37.915,14H34V9.79
	l6.174-6.332c0.222-0.228,0.323-0.547,0.272-0.86c-0.052-0.314-0.249-0.584-0.532-0.729c-1.96-1.004-4.176-1.534-6.405-1.534
	c-3.772,0-7.305,1.455-9.948,4.098c-4.15,4.149-5.281,10.336-2.922,15.607L1.486,39.175c-0.945,0.945-1.467,2.2-1.47,3.533
	c-0.004,1.337,0.515,2.594,1.46,3.538c0.944,0.945,2.199,1.465,3.533,1.465c1.333,0,2.588-0.52,3.532-1.464l19.131-19.136
	c1.789,0.798,3.75,1.217,5.717,1.217c3.737,0,7.248-1.454,9.889-4.095C47.59,19.919,48.619,13.372,45.841,7.941z M41.864,22.82
	c-2.263,2.263-5.273,3.509-8.475,3.509c-1.898,0-3.788-0.454-5.468-1.314c-0.386-0.197-0.855-0.125-1.163,0.183L7.126,44.833
	c-1.134,1.135-3.103,1.133-4.237-0.001c-0.566-0.565-0.876-1.317-0.874-2.118c0.002-0.801,0.316-1.555,0.884-2.123l19.655-19.635
	c0.307-0.307,0.381-0.777,0.184-1.163c-2.371-4.632-1.472-10.236,2.237-13.945c2.265-2.265,5.296-3.512,8.534-3.512
	c1.447,0,2.885,0.26,4.227,0.758l-5.452,5.591C32.102,8.872,32,9.122,32,9.383V15c0,0.552,0.447,1,1,1h5.328
	c0.265,0,0.519-0.105,0.706-0.291l5.592-5.575C46.261,14.506,45.227,19.456,41.864,22.82z"/>
</svg>
