<?xml version="1.0" encoding="utf-8"?>
<!-- Generator: Adobe Illustrator 17.0.0, SVG Export Plug-In . SVG Version: 6.00 Build 0)  -->
<!DOCTYPE svg PUBLIC "-//W3C//DTD SVG 1.1//EN" "http://www.w3.org/Graphics/SVG/1.1/DTD/svg11.dtd">
<svg version="1.1" xmlns="http://www.w3.org/2000/svg" xmlns:xlink="http://www.w3.org/1999/xlink" x="0px" y="0px" width="60px"
	 height="60px" viewBox="0 0 60 60" enable-background="new 0 0 60 60" xml:space="preserve">
<g id="Layer_1">
	<g>
		<path fill="#010101" d="M41,22H30V11c0-0.552-0.447-1-1-1c-0.553,0-1,0.448-1,1v11H17c-0.553,0-1,0.448-1,1s0.447,1,1,1h11v11
			c0,0.552,0.447,1,1,1c0.553,0,1-0.448,1-1V24h11c0.553,0,1-0.448,1-1S41.553,22,41,22z"/>
		<path fill="#010101" d="M29,0C16.532,0,6,10.533,6,23c0,8.417,3.886,17.458,11.236,26.146
			c5.515,6.517,10.947,10.497,11.176,10.663C28.587,59.936,28.794,60,29,60c0.206,0,0.413-0.064,0.588-0.191
			c0.229-0.166,5.661-4.146,11.176-10.663C48.114,40.458,52,31.417,52,23C52,10.533,41.468,0,29,0z M29,57.742
			C25.536,55.034,8,40.453,8,23C8,11.617,17.617,2,29,2s21,9.617,21,21C50,40.437,32.463,55.031,29,57.742z"/>
	</g>
</g>
<g id="nyt_x5F_exporter_x5F_info" display="none">
</g>
</svg>
