<?xml version="1.0" encoding="utf-8"?>
<!-- Generator: Adobe Illustrator 17.0.0, SVG Export Plug-In . SVG Version: 6.00 Build 0)  -->
<!DOCTYPE svg PUBLIC "-//W3C//DTD SVG 1.1//EN" "http://www.w3.org/Graphics/SVG/1.1/DTD/svg11.dtd">
<svg version="1.1" xmlns="http://www.w3.org/2000/svg" xmlns:xlink="http://www.w3.org/1999/xlink" x="0px" y="0px" width="60px"
	 height="60px" viewBox="0 0 60 60" enable-background="new 0 0 60 60" xml:space="preserve">
<g id="Layer_1">
	<g>
		<path fill="#010101" d="M30,31v-9h9c0.553,0,1-0.448,1-1s-0.447-1-1-1h-9v-9c0-0.552-0.447-1-1-1c-0.553,0-1,0.448-1,1v9h-9
			c-0.553,0-1,0.448-1,1s0.447,1,1,1h9v9c0,0.552,0.447,1,1,1C29.553,32,30,31.552,30,31z"/>
		<path fill="#010101" d="M29,60c0.316,0,0.614-0.15,0.803-0.404C30.628,58.484,50,32.247,50,21C50,9.42,40.579,0,29,0S8,9.42,8,21
			c0,11.247,19.372,37.484,20.197,38.596C28.386,59.85,28.684,60,29,60z M29,2c10.477,0,19,8.523,19,19
			c0,9.352-15.288,31.147-19,36.3C25.288,52.147,10,30.352,10,21C10,10.523,18.523,2,29,2z"/>
	</g>
</g>
<g id="nyt_x5F_exporter_x5F_info" display="none">
</g>
</svg>
