<?xml version="1.0" encoding="utf-8"?>
<!-- Generator: Adobe Illustrator 17.0.0, SVG Export Plug-In . SVG Version: 6.00 Build 0)  -->
<!DOCTYPE svg PUBLIC "-//W3C//DTD SVG 1.1//EN" "http://www.w3.org/Graphics/SVG/1.1/DTD/svg11.dtd">
<svg version="1.1" xmlns="http://www.w3.org/2000/svg" xmlns:xlink="http://www.w3.org/1999/xlink" x="0px" y="0px" width="60px"
	 height="60px" viewBox="0 0 60 60" enable-background="new 0 0 60 60" xml:space="preserve">
<g id="Layer_1">
	<g>
		<path fill="#010101" d="M29,0C16.869,0,7,9.869,7,22c0,10.1,6.741,18.766,16.468,21.279l4.57,15.996
			C28.161,59.704,28.554,60,29,60c0.446,0,0.839-0.296,0.962-0.725l4.57-15.996C44.259,40.766,51,32.1,51,22C51,9.869,41.131,0,29,0
			z M33.506,41.471c-0.354,0.082-0.637,0.35-0.737,0.7L29,55.36l-3.769-13.19c-0.101-0.35-0.383-0.618-0.737-0.7
			C15.371,39.368,9,31.361,9,22C9,10.972,17.972,2,29,2c11.028,0,20,8.972,20,20C49,31.361,42.629,39.368,33.506,41.471z"/>
		<path fill="#010101" d="M29,7c-8.272,0-15,6.729-15,15s6.728,15,15,15c8.271,0,15-6.729,15-15S37.271,7,29,7z M29,35
			c-7.168,0-13-5.831-13-13c0-7.168,5.832-13,13-13s13,5.832,13,13C42,29.169,36.168,35,29,35z"/>
		<path fill="#010101" d="M35,22h-5v-5c0-0.552-0.447-1-1-1c-0.553,0-1,0.448-1,1v5h-5c-0.553,0-1,0.448-1,1c0,0.552,0.447,1,1,1h5
			v5c0,0.552,0.447,1,1,1c0.553,0,1-0.448,1-1v-5h5c0.553,0,1-0.448,1-1C36,22.448,35.553,22,35,22z"/>
	</g>
</g>
<g id="nyt_x5F_exporter_x5F_info" display="none">
</g>
</svg>
