<?xml version="1.0" encoding="utf-8"?>
<!-- Generator: Adobe Illustrator 17.0.0, SVG Export Plug-In . SVG Version: 6.00 Build 0)  -->
<!DOCTYPE svg PUBLIC "-//W3C//DTD SVG 1.1//EN" "http://www.w3.org/Graphics/SVG/1.1/DTD/svg11.dtd">
<svg version="1.1" xmlns="http://www.w3.org/2000/svg" xmlns:xlink="http://www.w3.org/1999/xlink" x="0px" y="0px" width="60px"
	 height="60px" viewBox="0 0 60 60" enable-background="new 0 0 60 60" xml:space="preserve">
<g id="Layer_1">
	<g>
		<path fill="#010101" d="M30,0C13.458,0,0,13.458,0,30s13.458,30,30,30s30-13.458,30-30S46.542,0,30,0z M30,58
			C14.561,58,2,45.44,2,30S14.561,2,30,2c15.44,0,28,12.56,28,28S45.44,58,30,58z"/>
		<path fill="#010101" d="M44.606,14.081l-21,9c-0.005,0.002-0.008,0.005-0.013,0.007c-0.041,0.018-0.078,0.044-0.116,0.068
			c-0.031,0.019-0.064,0.035-0.093,0.058c-0.032,0.025-0.058,0.056-0.087,0.084s-0.059,0.055-0.084,0.087
			c-0.022,0.029-0.039,0.062-0.058,0.093c-0.024,0.038-0.049,0.075-0.068,0.116c-0.002,0.004-0.005,0.008-0.007,0.013l-9,21
			c-0.161,0.376-0.077,0.812,0.212,1.101C14.484,45.898,14.74,46,15,46c0.133,0,0.267-0.026,0.394-0.081l21-9
			c0.004-0.002,0.008-0.005,0.012-0.007c0.042-0.019,0.079-0.044,0.118-0.069c0.031-0.019,0.063-0.035,0.091-0.057
			c0.032-0.025,0.059-0.056,0.088-0.086c0.028-0.028,0.058-0.054,0.083-0.085c0.023-0.029,0.039-0.062,0.058-0.094
			c0.024-0.038,0.049-0.074,0.067-0.115c0.002-0.004,0.005-0.008,0.007-0.013l9-21c0.161-0.376,0.077-0.812-0.212-1.101
			C45.417,14.003,44.981,13.92,44.606,14.081z M16.904,43.096l7.434-17.345l9.911,9.911L16.904,43.096z M35.663,34.248l-9.911-9.911
			l17.345-7.434L35.663,34.248z"/>
	</g>
</g>
<g id="nyt_x5F_exporter_x5F_info" display="none">
</g>
</svg>
