<?xml version="1.0" encoding="utf-8"?>
<!-- Generator: Adobe Illustrator 17.0.0, SVG Export Plug-In . SVG Version: 6.00 Build 0)  -->
<!DOCTYPE svg PUBLIC "-//W3C//DTD SVG 1.1//EN" "http://www.w3.org/Graphics/SVG/1.1/DTD/svg11.dtd">
<svg version="1.1" xmlns="http://www.w3.org/2000/svg" xmlns:xlink="http://www.w3.org/1999/xlink" x="0px" y="0px" width="60px"
	 height="60px" viewBox="0 0 60 60" enable-background="new 0 0 60 60" xml:space="preserve">
<g id="Layer_1">
	<g>
		<path fill="#010101" d="M12,34h14v14c0,0.464,0.319,0.867,0.771,0.973C26.847,48.991,26.924,49,27,49
			c0.372,0,0.723-0.208,0.894-0.553l15-30c0.192-0.385,0.117-0.85-0.188-1.154c-0.306-0.304-0.769-0.378-1.154-0.188l-30,15
			c-0.415,0.207-0.633,0.673-0.526,1.124C11.134,33.681,11.536,34,12,34z M39.764,20.236L28,43.764V33c0-0.552-0.447-1-1-1H16.236
			L39.764,20.236z"/>
		<path fill="#010101" d="M30,60c16.542,0,30-13.458,30-30S46.542,0,30,0S0,13.458,0,30S13.458,60,30,60z M30,2
			c15.439,0,28,12.56,28,28S45.439,58,30,58C14.56,58,2,45.44,2,30S14.56,2,30,2z"/>
	</g>
</g>
<g id="nyt_x5F_exporter_x5F_info" display="none">
</g>
</svg>
