<?xml version="1.0" encoding="utf-8"?>
<!-- Generator: Adobe Illustrator 17.0.0, SVG Export Plug-In . SVG Version: 6.00 Build 0)  -->
<!DOCTYPE svg PUBLIC "-//W3C//DTD SVG 1.1//EN" "http://www.w3.org/Graphics/SVG/1.1/DTD/svg11.dtd">
<svg version="1.1" xmlns="http://www.w3.org/2000/svg" xmlns:xlink="http://www.w3.org/1999/xlink" x="0px" y="0px" width="60px"
	 height="60px" viewBox="0 0 60 60" enable-background="new 0 0 60 60" xml:space="preserve">
<g id="Layer_1">
	<g>
		<path fill="#010101" d="M1,32h27v27c0,0.461,0.315,0.863,0.764,0.972C28.842,59.991,28.922,60,29,60
			c0.367,0,0.713-0.203,0.888-0.54l30-58c0.2-0.387,0.127-0.859-0.181-1.167c-0.308-0.309-0.78-0.382-1.167-0.181l-58,30
			c-0.41,0.212-0.621,0.676-0.512,1.125C0.137,31.685,0.539,32,1,32z M56.668,3.332L30,54.89V31c0-0.552-0.448-1-1-1H5.11
			L56.668,3.332z"/>
	</g>
</g>
<g id="nyt_x5F_exporter_x5F_info" display="none">
</g>
</svg>
