<?xml version="1.0" encoding="utf-8"?>
<!-- Generator: Adobe Illustrator 17.0.0, SVG Export Plug-In . SVG Version: 6.00 Build 0)  -->
<!DOCTYPE svg PUBLIC "-//W3C//DTD SVG 1.1//EN" "http://www.w3.org/Graphics/SVG/1.1/DTD/svg11.dtd">
<svg version="1.1" xmlns="http://www.w3.org/2000/svg" xmlns:xlink="http://www.w3.org/1999/xlink" x="0px" y="0px" width="60px"
	 height="60px" viewBox="0 0 60 60" enable-background="new 0 0 60 60" xml:space="preserve">
<g id="Layer_1">
	<g>
		<path fill="#010101" d="M34.707,12.293c-0.391-0.391-1.023-0.391-1.414,0L29,16.586l-4.293-4.293
			c-0.391-0.391-1.023-0.391-1.414,0c-0.391,0.391-0.391,1.023,0,1.414L27.586,18l-4.293,4.293c-0.391,0.391-0.391,1.023,0,1.414
			C23.488,23.902,23.744,24,24,24c0.256,0,0.512-0.098,0.707-0.293L29,19.414l4.293,4.293C33.488,23.902,33.744,24,34,24
			c0.256,0,0.512-0.098,0.707-0.293c0.391-0.391,0.391-1.023,0-1.414L30.414,18l4.293-4.293
			C35.098,13.316,35.098,12.684,34.707,12.293z"/>
		<path fill="#010101" d="M29,0c-7.842,0-17,4.452-17,17c0,6.131,4.325,12.961,8.509,19.566C24.361,42.649,28,48.395,28,53v6
			c0,0.552,0.447,1,1,1c0.553,0,1-0.448,1-1v-6c0-4.605,3.639-10.351,7.491-16.434C41.675,29.961,46,23.131,46,17
			C46,4.452,36.842,0,29,0z M35.802,35.496c-2.759,4.357-5.413,8.548-6.802,12.427c-1.389-3.879-4.043-8.069-6.802-12.427
			C18.168,29.132,14,22.551,14,17C14,5.94,21.749,2,29,2s15,3.94,15,15C44,22.551,39.832,29.132,35.802,35.496z"/>
	</g>
</g>
<g id="nyt_x5F_exporter_x5F_info" display="none">
</g>
</svg>
