<?xml version="1.0" encoding="utf-8"?>
<!-- Generator: Adobe Illustrator 17.0.0, SVG Export Plug-In . SVG Version: 6.00 Build 0)  -->
<!DOCTYPE svg PUBLIC "-//W3C//DTD SVG 1.1//EN" "http://www.w3.org/Graphics/SVG/1.1/DTD/svg11.dtd">
<svg version="1.1" xmlns="http://www.w3.org/2000/svg" xmlns:xlink="http://www.w3.org/1999/xlink" x="0px" y="0px" width="60px"
	 height="60px" viewBox="0 0 60 60" enable-background="new 0 0 60 60" xml:space="preserve">
<g id="Layer_1">
	<g>
		<path fill="#010101" d="M51,44H39c-0.552,0-1,0.448-1,1s0.448,1,1,1h12c0.552,0,1-0.448,1-1S51.552,44,51,44z"/>
		<path fill="#010101" d="M17,0C7.626,0,0,7.626,0,17c0,9.045,15.517,31.612,16.177,32.568C16.364,49.839,16.671,50,17,50
			s0.636-0.161,0.823-0.432C18.483,48.612,34,26.045,34,17C34,7.626,26.374,0,17,0z M17,47.215C13.75,42.36,2,24.299,2,17
			C2,8.729,8.729,2,17,2s15,6.729,15,15C32,24.297,20.25,42.36,17,47.215z"/>
		<path fill="#010101" d="M45,30c-8.271,0-15,6.729-15,15s6.729,15,15,15s15-6.729,15-15S53.271,30,45,30z M45,58
			c-7.169,0-13-5.831-13-13s5.831-13,13-13s13,5.831,13,13S52.169,58,45,58z"/>
	</g>
</g>
<g id="nyt_x5F_exporter_x5F_info" display="none">
</g>
</svg>
