<?xml version="1.0" encoding="utf-8"?>
<!-- Generator: Adobe Illustrator 17.0.0, SVG Export Plug-In . SVG Version: 6.00 Build 0)  -->
<!DOCTYPE svg PUBLIC "-//W3C//DTD SVG 1.1//EN" "http://www.w3.org/Graphics/SVG/1.1/DTD/svg11.dtd">
<svg version="1.1" xmlns="http://www.w3.org/2000/svg" xmlns:xlink="http://www.w3.org/1999/xlink" x="0px" y="0px" width="60px"
	 height="60px" viewBox="0 0 60 60" enable-background="new 0 0 60 60" xml:space="preserve">
<g id="Layer_1">
	<g>
		<path fill="#010101" d="M43,18h-9.279l-2.773-8.316C30.812,9.275,30.431,9,30,9c-0.431,0-0.812,0.275-0.948,0.684L26.279,18H17
			c-0.431,0-0.812,0.275-0.948,0.684c-0.137,0.409,0.004,0.858,0.349,1.116l7.456,5.593l-2.821,10.344
			c-0.116,0.426,0.061,0.877,0.435,1.111c0.373,0.233,0.857,0.197,1.189-0.095L30,30.329l7.342,6.424C37.528,36.917,37.764,37,38,37
			c0.184,0,0.367-0.05,0.53-0.152c0.374-0.234,0.551-0.685,0.435-1.111l-2.821-10.344L43.6,19.8
			c0.345-0.258,0.485-0.708,0.349-1.116C43.812,18.275,43.431,18,43,18z M34.4,24.2c-0.328,0.246-0.473,0.667-0.365,1.063l2.128,7.8
			l-5.505-4.816C30.47,28.083,30.235,28,30,28s-0.47,0.083-0.658,0.248l-5.505,4.816l2.128-7.8c0.107-0.396-0.037-0.817-0.365-1.063
			L20,20h7c0.431,0,0.812-0.275,0.948-0.684L30,13.162l2.052,6.154C32.188,19.725,32.569,20,33,20h7L34.4,24.2z"/>
		<path fill="#010101" d="M30,0C17.532,0,7,10.533,7,23c0,8.417,3.886,17.458,11.236,26.146
			c5.515,6.517,10.947,10.497,11.176,10.663C29.587,59.936,29.794,60,30,60c0.206,0,0.413-0.064,0.588-0.191
			c0.229-0.166,5.661-4.146,11.176-10.663C49.114,40.458,53,31.417,53,23C53,10.533,42.468,0,30,0z M30,57.742
			C26.536,55.034,9,40.453,9,23C9,11.617,18.617,2,30,2s21,9.617,21,21C51,40.437,33.463,55.031,30,57.742z"/>
	</g>
</g>
<g id="nyt_x5F_exporter_x5F_info" display="none">
</g>
</svg>
