<?xml version="1.0" encoding="utf-8"?>
<!-- Generator: Adobe Illustrator 17.0.0, SVG Export Plug-In . SVG Version: 6.00 Build 0)  -->
<!DOCTYPE svg PUBLIC "-//W3C//DTD SVG 1.1//EN" "http://www.w3.org/Graphics/SVG/1.1/DTD/svg11.dtd">
<svg version="1.1" xmlns="http://www.w3.org/2000/svg" xmlns:xlink="http://www.w3.org/1999/xlink" x="0px" y="0px" width="60px"
	 height="60px" viewBox="0 0 60 60" enable-background="new 0 0 60 60" xml:space="preserve">
<g id="Layer_1">
	<g>
		<path fill="#010101" d="M43,16h-9.279l-2.773-8.316C30.812,7.275,30.431,7,30,7c-0.431,0-0.812,0.275-0.948,0.684L26.279,16H17
			c-0.431,0-0.812,0.275-0.948,0.684c-0.137,0.409,0.004,0.858,0.349,1.116l7.406,5.555L20.06,33.658
			c-0.152,0.419-0.01,0.888,0.351,1.15c0.36,0.262,0.851,0.254,1.203-0.019L30,28.267l8.386,6.522C38.566,34.93,38.783,35,39,35
			c0.206,0,0.413-0.063,0.589-0.191c0.36-0.262,0.503-0.731,0.351-1.15l-3.746-10.303L43.6,17.8
			c0.345-0.258,0.485-0.707,0.349-1.116C43.812,16.275,43.431,16,43,16z M34.4,22.2c-0.353,0.264-0.49,0.728-0.34,1.142l2.814,7.738
			l-6.26-4.869C30.434,26.07,30.217,26,30,26s-0.434,0.07-0.614,0.21l-6.26,4.869l2.813-7.738c0.15-0.414,0.013-0.877-0.34-1.142
			L20,18h7c0.431,0,0.812-0.275,0.948-0.684L30,11.162l2.052,6.154C32.188,17.725,32.569,18,33,18h7L34.4,22.2z"/>
		<path fill="#010101" d="M30,0C17.869,0,8,9.869,8,22c0,10.1,6.741,18.766,16.468,21.279l4.57,15.996
			C29.161,59.704,29.554,60,30,60c0.446,0,0.839-0.296,0.962-0.725l4.57-15.996C45.259,40.766,52,32.1,52,22C52,9.869,42.131,0,30,0
			z M34.506,41.471c-0.354,0.082-0.637,0.35-0.737,0.7L30,55.36l-3.769-13.19c-0.101-0.35-0.383-0.618-0.737-0.7
			C16.371,39.368,10,31.361,10,22c0-11.028,8.972-20,20-20c11.028,0,20,8.972,20,20C50,31.361,43.629,39.368,34.506,41.471z"/>
	</g>
</g>
<g id="nyt_x5F_exporter_x5F_info" display="none">
</g>
</svg>
