<?xml version="1.0" encoding="utf-8"?>
<!-- Generator: Adobe Illustrator 17.0.0, SVG Export Plug-In . SVG Version: 6.00 Build 0)  -->
<!DOCTYPE svg PUBLIC "-//W3C//DTD SVG 1.1//EN" "http://www.w3.org/Graphics/SVG/1.1/DTD/svg11.dtd">
<svg version="1.1" xmlns="http://www.w3.org/2000/svg" xmlns:xlink="http://www.w3.org/1999/xlink" x="0px" y="0px" width="60px"
	 height="60px" viewBox="0 0 60 60" enable-background="new 0 0 60 60" xml:space="preserve">
<g id="Layer_1">
	<g>
		<path fill="#010101" d="M23.039,23.725c-0.12,0.418,0.045,0.866,0.407,1.107c0.362,0.24,0.839,0.22,1.179-0.052l4.375-3.5
			l4.375,3.5C33.557,24.926,33.778,25,34,25c0.192,0,0.386-0.056,0.554-0.168c0.362-0.241,0.527-0.689,0.407-1.107l-1.817-6.36
			l4.48-3.584c0.332-0.265,0.459-0.711,0.319-1.112C37.803,12.268,37.425,12,37,12h-5.279l-1.772-5.316C29.813,6.275,29.431,6,29,6
			c-0.431,0-0.812,0.275-0.949,0.684L26.279,12H21c-0.425,0-0.803,0.268-0.944,0.669c-0.14,0.401-0.013,0.847,0.319,1.112
			l4.48,3.584L23.039,23.725z M23.851,14H27c0.431,0,0.812-0.275,0.949-0.684L29,10.162l1.051,3.154C30.188,13.725,30.569,14,31,14
			h3.149l-2.774,2.219c-0.315,0.252-0.448,0.668-0.337,1.056l1.139,3.986l-2.553-2.042C29.442,19.073,29.221,19,29,19
			s-0.442,0.073-0.625,0.219l-2.553,2.042l1.139-3.986c0.111-0.388-0.022-0.804-0.337-1.056L23.851,14z"/>
		<path fill="#010101" d="M28,53v6c0,0.552,0.448,1,1,1c0.552,0,1-0.448,1-1v-6c0-4.605,3.639-10.351,7.492-16.434
			C41.675,29.961,46,23.131,46,17C46,4.452,36.842,0,29,0S12,4.452,12,17c0,6.131,4.325,12.961,8.508,19.566
			C24.361,42.649,28,48.395,28,53z M29,2c7.251,0,15,3.94,15,15c0,5.551-4.168,12.132-8.198,18.496
			c-2.759,4.357-5.413,8.548-6.802,12.427c-1.389-3.879-4.043-8.069-6.802-12.427C18.167,29.132,14,22.551,14,17
			C14,5.94,21.748,2,29,2z"/>
	</g>
</g>
<g id="nyt_x5F_exporter_x5F_info" display="none">
</g>
</svg>
