<?xml version="1.0" encoding="utf-8"?>
<!-- Generator: Adobe Illustrator 17.0.0, SVG Export Plug-In . SVG Version: 6.00 Build 0)  -->
<!DOCTYPE svg PUBLIC "-//W3C//DTD SVG 1.1//EN" "http://www.w3.org/Graphics/SVG/1.1/DTD/svg11.dtd">
<svg version="1.1" xmlns="http://www.w3.org/2000/svg" xmlns:xlink="http://www.w3.org/1999/xlink" x="0px" y="0px" width="60px"
	 height="60px" viewBox="0 0 60 60" enable-background="new 0 0 60 60" xml:space="preserve">
<g id="Layer_1">
	<g>
		<path fill="#010101" d="M29,42c11.028,0,20-8.972,20-20c0-11.028-8.972-20-20-20C17.972,2,9,10.972,9,22C9,33.028,17.972,42,29,42
			z M29,4c9.925,0,18,8.075,18,18s-8.075,18-18,18s-18-8.075-18-18S19.075,4,29,4z"/>
		<path fill="#010101" d="M50.707,1.707c0.391-0.391,0.391-1.023,0-1.414c-0.391-0.391-1.023-0.391-1.414,0l-1.908,1.908
			c0,0,0,0,0,0s0,0,0,0l-2.092,2.092c-0.391,0.391-0.391,1.023,0,1.414C45.488,5.902,45.744,6,46,6c0.256,0,0.512-0.098,0.707-0.293
			l1.367-1.367c9.437,10.184,9.211,26.145-0.689,36.045c-9.901,9.901-25.86,10.125-36.045,0.689l1.367-1.367
			c0.391-0.391,0.391-1.023,0-1.414c-0.391-0.391-1.023-0.391-1.414,0l-2.092,2.092c0,0,0,0,0,0s0,0,0,0l-1.908,1.908
			c-0.391,0.391-0.391,1.023,0,1.414C7.488,43.902,7.744,44,8,44c0.256,0,0.512-0.098,0.707-0.293l1.219-1.219
			c4.578,4.266,10.243,6.711,16.074,7.334v3.369c-4.568,0.522-8.879,2.214-12.602,5.01c-0.344,0.259-0.484,0.708-0.348,1.116
			C13.186,59.725,13.568,60,13.999,60h30.002c0.431,0,0.812-0.275,0.948-0.684c0.137-0.408-0.004-0.857-0.348-1.116
			c-3.722-2.796-8.034-4.488-12.602-5.01v-3.369c6.139-0.656,12.103-3.327,16.799-8.022c10.68-10.68,10.905-27.908,0.689-38.873
			L50.707,1.707z M17.368,58c3.54-1.971,7.505-3,11.632-3s8.092,1.029,11.632,3H17.368z M30,53.04C29.667,53.027,29.336,53,29,53
			s-0.667,0.027-1,0.04v-3.077c0.333,0.012,0.667,0.024,1,0.024s0.667-0.012,1-0.024V53.04z"/>
	</g>
</g>
<g id="nyt_x5F_exporter_x5F_info" display="none">
</g>
</svg>
