<?xml version="1.0" encoding="utf-8"?>
<!-- Generator: Adobe Illustrator 17.0.0, SVG Export Plug-In . SVG Version: 6.00 Build 0)  -->
<!DOCTYPE svg PUBLIC "-//W3C//DTD SVG 1.1//EN" "http://www.w3.org/Graphics/SVG/1.1/DTD/svg11.dtd">
<svg version="1.1" xmlns="http://www.w3.org/2000/svg" xmlns:xlink="http://www.w3.org/1999/xlink" x="0px" y="0px" width="60px"
	 height="60px" viewBox="0 0 60 60" enable-background="new 0 0 60 60" xml:space="preserve">
<g id="Layer_1">
	<g>
		<path fill="#010101" d="M17,21c0,4.472,0,12.682,7,15.681V47c0,0.552,0.448,1,1,1h8c0.552,0,1-0.448,1-1V36.681
			c7-2.999,7-11.209,7-15.681c0-0.552-0.448-1-1-1H18C17.448,20,17,20.448,17,21z M38.995,22
			c-0.066,5.619-0.811,11.074-6.333,13.059C32.265,35.202,32,35.578,32,36v10h-6V36c0-0.422-0.265-0.798-0.662-0.941
			C19.816,33.075,19.071,27.62,19.005,22H38.995z"/>
		<path fill="#010101" d="M38,9c0-4.962-4.038-9-9-9s-9,4.038-9,9s4.038,9,9,9S38,13.962,38,9z M22,9c0-3.86,3.14-7,7-7
			c3.86,0,7,3.14,7,7s-3.14,7-7,7C25.14,16,22,12.86,22,9z"/>
		<path fill="#010101" d="M39.151,38.502c-0.547-0.064-1.044,0.332-1.106,0.881s0.332,1.044,0.881,1.106
			C49.979,41.738,58,45.317,58,49c0,5.304-14.756,9-28,9S2,54.304,2,49c0-3.683,8.024-7.263,19.08-8.512
			c0.549-0.062,0.943-0.557,0.881-1.106c-0.062-0.549-0.56-0.945-1.106-0.881C8.186,39.932,0,44.053,0,49c0,6.885,15.253,11,30,11
			s30-4.115,30-11C60,44.054,51.816,39.933,39.151,38.502z"/>
		<path fill="#010101" d="M30,52c-11,0-17-2.643-17-4c0-0.786,2.214-2.388,8.156-3.343c0.545-0.088,0.916-0.6,0.829-1.146
			c-0.088-0.546-0.604-0.92-1.146-0.829C17.164,43.273,11,44.75,11,48c0,3.939,9.558,6,19,6s19-2.061,19-6
			c0-3.238-6.124-4.716-9.774-5.308c-0.543-0.089-1.059,0.282-1.148,0.827c-0.088,0.545,0.282,1.059,0.827,1.148
			C44.802,45.623,47,47.219,47,48C47,49.357,41,52,30,52z"/>
	</g>
</g>
<g id="nyt_x5F_exporter_x5F_info" display="none">
</g>
</svg>
