<?xml version="1.0" encoding="utf-8"?>
<!-- Generator: Adobe Illustrator 17.0.0, SVG Export Plug-In . SVG Version: 6.00 Build 0)  -->
<!DOCTYPE svg PUBLIC "-//W3C//DTD SVG 1.1//EN" "http://www.w3.org/Graphics/SVG/1.1/DTD/svg11.dtd">
<svg version="1.1" xmlns="http://www.w3.org/2000/svg" xmlns:xlink="http://www.w3.org/1999/xlink" x="0px" y="0px" width="60px"
	 height="60px" viewBox="0 0 60 60" enable-background="new 0 0 60 60" xml:space="preserve">
<g id="Layer_1">
	<g>
		<path fill="#010101" d="M17.051,59.316c0.14,0.419,0.53,0.684,0.949,0.684c0.104,0,0.211-0.017,0.316-0.052L30,56.054
			l11.684,3.895c0.105,0.035,0.212,0.052,0.316,0.052c0.419,0,0.809-0.265,0.949-0.684c0.175-0.524-0.108-1.09-0.632-1.265
			L33.163,55l9.154-3.051c0.524-0.175,0.807-0.741,0.632-1.265c-0.175-0.523-0.74-0.809-1.265-0.632L30,53.946l-11.684-3.895
			c-0.526-0.177-1.091,0.109-1.265,0.632c-0.175,0.524,0.108,1.09,0.632,1.265L26.838,55l-9.154,3.051
			C17.16,58.226,16.877,58.793,17.051,59.316z"/>
		<path fill="#010101" d="M30,0C16.841,0,8,8.841,8,22c0,7.506,3.744,14.892,10.826,21.358c5.294,4.834,10.513,7.431,10.732,7.539
			C29.697,50.966,29.849,51,30,51s0.303-0.034,0.442-0.103c0.22-0.108,5.438-2.705,10.732-7.539C48.256,36.892,52,29.506,52,22
			C52,8.841,43.159,0,30,0z M30,48.871C27.016,47.264,10,37.418,10,22C10,9.851,17.851,2,30,2s20,7.851,20,20
			C50,37.418,32.984,47.264,30,48.871z"/>
		<path fill="#010101" d="M30,10c-6.617,0-12,5.383-12,12s5.383,12,12,12s12-5.383,12-12S36.617,10,30,10z M30,32
			c-5.514,0-10-4.486-10-10c0-5.514,4.486-10,10-10s10,4.486,10,10C40,27.514,35.514,32,30,32z"/>
	</g>
</g>
<g id="nyt_x5F_exporter_x5F_info" display="none">
</g>
</svg>
