<?xml version="1.0" encoding="utf-8"?>
<!-- Generator: Adobe Illustrator 17.0.0, SVG Export Plug-In . SVG Version: 6.00 Build 0)  -->
<!DOCTYPE svg PUBLIC "-//W3C//DTD SVG 1.1//EN" "http://www.w3.org/Graphics/SVG/1.1/DTD/svg11.dtd">
<svg version="1.1" xmlns="http://www.w3.org/2000/svg" xmlns:xlink="http://www.w3.org/1999/xlink" x="0px" y="0px" width="60px"
	 height="60px" viewBox="0 0 60 60" enable-background="new 0 0 60 60" xml:space="preserve">
<g id="Layer_1">
	<g>
		<path fill="#010101" d="M58.055,14.168l-18-12c-0.034-0.023-0.072-0.033-0.108-0.051C39.913,2.1,39.882,2.083,39.846,2.07
			c-0.111-0.041-0.225-0.068-0.341-0.069C39.503,2.001,39.502,2,39.5,2c-0.002,0-0.003,0.001-0.005,0.001
			c-0.116,0-0.23,0.028-0.341,0.069c-0.036,0.013-0.068,0.03-0.101,0.048c-0.036,0.018-0.074,0.028-0.108,0.051L21.5,13.798
			L4.055,2.168c-0.307-0.205-0.702-0.224-1.026-0.05C2.703,2.292,2.5,2.631,2.5,3v42c0,0.335,0.167,0.646,0.445,0.832l18,12
			c0.034,0.023,0.072,0.033,0.108,0.051c0.034,0.017,0.065,0.034,0.101,0.048c0.111,0.041,0.225,0.068,0.341,0.069
			c0.002,0,0.003,0.001,0.005,0.001c0.002,0,0.003-0.001,0.004-0.001c0.117,0,0.231-0.028,0.341-0.069
			c0.036-0.013,0.067-0.03,0.101-0.048c0.036-0.018,0.074-0.028,0.108-0.051L39.5,46.202l17.445,11.63
			C57.112,57.944,57.306,58,57.5,58c0.162,0,0.324-0.039,0.472-0.118C58.297,57.708,58.5,57.369,58.5,57V15
			C58.5,14.666,58.333,14.354,58.055,14.168z M22.5,15.535l16-10.667v39.596l-16,10.667V15.535z M4.5,4.869l16,10.666v39.596
			l-16-10.667V4.869z M56.5,55.131l-16-10.666V4.868l16,10.667V55.131z"/>
	</g>
</g>
<g id="nyt_x5F_exporter_x5F_info" display="none">
</g>
</svg>
