<?xml version="1.0" encoding="utf-8"?>
<!-- Generator: Adobe Illustrator 17.0.0, SVG Export Plug-In . SVG Version: 6.00 Build 0)  -->
<!DOCTYPE svg PUBLIC "-//W3C//DTD SVG 1.1//EN" "http://www.w3.org/Graphics/SVG/1.1/DTD/svg11.dtd">
<svg version="1.1" xmlns="http://www.w3.org/2000/svg" xmlns:xlink="http://www.w3.org/1999/xlink" x="0px" y="0px" width="60px"
	 height="60px" viewBox="0 0 60 60" enable-background="new 0 0 60 60" xml:space="preserve">
<g id="Layer_1">
	<g>
		<path fill="#010101" d="M46.97,50.757c-0.134-0.536-0.676-0.86-1.213-0.728L31,53.719v-31.77C36.598,21.442,41,16.728,41,11
			c0-6.065-4.935-11-11-11c-6.065,0-11,4.935-11,11c0,5.728,4.402,10.442,10,10.949v31.77L14.243,50.03
			c-0.535-0.133-1.078,0.192-1.213,0.728c-0.134,0.536,0.192,1.079,0.727,1.213L25.876,55l-12.119,3.03
			c-0.536,0.134-0.861,0.677-0.727,1.213C13.144,59.697,13.551,60,13.999,60c0.081,0,0.162-0.009,0.244-0.03L30,56.031l15.757,3.939
			C45.839,59.991,45.92,60,46.001,60c0.448,0,0.855-0.303,0.969-0.757c0.134-0.536-0.192-1.079-0.728-1.213L34.124,55l12.119-3.03
			C46.778,51.836,47.104,51.294,46.97,50.757z M21,11c0-4.962,4.038-9,9-9s9,4.038,9,9s-4.038,9-9,9S21,15.962,21,11z"/>
		<path fill="#010101" d="M34,11c0,0.552,0.448,1,1,1s1-0.448,1-1c0-3.309-2.691-6-6-6c-0.552,0-1,0.448-1,1s0.448,1,1,1
			C32.206,7,34,8.794,34,11z"/>
	</g>
</g>
<g id="nyt_x5F_exporter_x5F_info" display="none">
</g>
</svg>
