<?xml version="1.0" encoding="utf-8"?>
<!-- Generator: Adobe Illustrator 17.0.0, SVG Export Plug-In . SVG Version: 6.00 Build 0)  -->
<!DOCTYPE svg PUBLIC "-//W3C//DTD SVG 1.1//EN" "http://www.w3.org/Graphics/SVG/1.1/DTD/svg11.dtd">
<svg version="1.1" xmlns="http://www.w3.org/2000/svg" xmlns:xlink="http://www.w3.org/1999/xlink" x="0px" y="0px" width="60px"
	 height="60px" viewBox="0 0 60 60" enable-background="new 0 0 60 60" xml:space="preserve">
<g id="Layer_1">
	<g>
		<path fill="#010101" d="M41.949,50.684c-0.175-0.523-0.738-0.81-1.265-0.632L29,53.946l-11.684-3.895
			c-0.526-0.177-1.091,0.109-1.265,0.632c-0.175,0.524,0.108,1.09,0.632,1.265L25.837,55l-9.154,3.051
			c-0.524,0.175-0.807,0.741-0.632,1.265C16.191,59.735,16.581,60,17,60c0.104,0,0.211-0.017,0.316-0.052L29,56.054l11.684,3.895
			C40.789,59.984,40.896,60,41,60c0.419,0,0.809-0.265,0.949-0.684c0.175-0.524-0.108-1.09-0.632-1.265L32.163,55l9.154-3.051
			C41.84,51.774,42.123,51.208,41.949,50.684z"/>
		<path fill="#010101" d="M29,0c-9.374,0-17,7.626-17,17c0,9.045,15.517,31.612,16.177,32.568C28.364,49.839,28.671,50,29,50
			s0.636-0.161,0.823-0.432C30.483,48.612,46,26.045,46,17C46,7.626,38.374,0,29,0z M29,47.215C25.75,42.36,14,24.299,14,17
			c0-8.271,6.729-15,15-15s15,6.729,15,15C44,24.297,32.25,42.36,29,47.215z"/>
		<path fill="#010101" d="M29,10c-3.86,0-7,3.14-7,7s3.14,7,7,7s7-3.14,7-7S32.86,10,29,10z M29,22c-2.757,0-5-2.243-5-5
			s2.243-5,5-5s5,2.243,5,5S31.757,22,29,22z"/>
	</g>
</g>
<g id="nyt_x5F_exporter_x5F_info" display="none">
</g>
</svg>
