<?xml version="1.0" encoding="utf-8"?>
<!-- Generator: Adobe Illustrator 17.0.0, SVG Export Plug-In . SVG Version: 6.00 Build 0)  -->
<!DOCTYPE svg PUBLIC "-//W3C//DTD SVG 1.1//EN" "http://www.w3.org/Graphics/SVG/1.1/DTD/svg11.dtd">
<svg version="1.1" xmlns="http://www.w3.org/2000/svg" xmlns:xlink="http://www.w3.org/1999/xlink" x="0px" y="0px" width="60px"
	 height="60px" viewBox="0 0 60 60" enable-background="new 0 0 60 60" xml:space="preserve">
<g id="Layer_1">
	<g>
		<path fill="#010101" d="M59.268,29.037l-18-5c-0.085-0.024-0.172-0.034-0.259-0.035C41.005,24.002,41.003,24,41,24
			c-0.009,0-0.016,0.005-0.025,0.005c-0.066,0.002-0.132,0.005-0.196,0.02l-5.006,1.138c-0.538,0.123-0.876,0.658-0.754,1.197
			c0.122,0.538,0.658,0.874,1.197,0.753L40,26.253v26.949l-20,4.545V30.798l2.161-0.491c0.538-0.122,0.876-0.658,0.754-1.197
			c-0.122-0.539-0.661-0.878-1.197-0.753l-2.693,0.612L1.268,24.037c-0.301-0.084-0.623-0.022-0.873,0.167
			C0.146,24.393,0,24.688,0,25v29c0,0.449,0.3,0.843,0.732,0.963l18,5c0.085,0.024,0.172,0.034,0.259,0.035
			C18.995,59.998,18.997,60,19,60c0.009,0,0.016-0.005,0.025-0.005c0.066-0.002,0.131-0.005,0.196-0.02l21.754-4.944l17.757,4.932
			C58.82,59.988,58.91,60,59,60c0.216,0,0.429-0.07,0.605-0.204C59.853,59.607,60,59.312,60,59V30
			C60,29.551,59.7,29.157,59.268,29.037z M2,26.315l16,4.445v26.924L2,53.24V26.315z M58,57.685L42,53.24V26.316l16,4.445V57.685z"
			/>
		<path fill="#010101" d="M28.564,7.044c0.84,0,1.522,0.683,1.522,1.522c0,0.552,0.447,1,1,1c0.553,0,1-0.448,1-1
			c0-1.942-1.58-3.522-3.522-3.522c-0.553,0-1,0.448-1,1C27.564,6.596,28.012,7.044,28.564,7.044z"/>
		<path fill="#010101" d="M28,17.941V43c0,0.552,0.447,1,1,1c0.553,0,1-0.448,1-1V17.941c4.493-0.5,8-4.317,8-8.941
			c0-4.962-4.037-9-9-9s-9,4.038-9,9C20,13.624,23.507,17.442,28,17.941z M29,2c3.859,0,7,3.14,7,7c0,3.86-3.141,7-7,7
			c-3.859,0-7-3.14-7-7C22,5.14,25.141,2,29,2z"/>
	</g>
</g>
<g id="nyt_x5F_exporter_x5F_info" display="none">
</g>
</svg>
