<?xml version="1.0" encoding="utf-8"?>
<!-- Generator: Adobe Illustrator 17.0.0, SVG Export Plug-In . SVG Version: 6.00 Build 0)  -->
<!DOCTYPE svg PUBLIC "-//W3C//DTD SVG 1.1//EN" "http://www.w3.org/Graphics/SVG/1.1/DTD/svg11.dtd">
<svg version="1.1" xmlns="http://www.w3.org/2000/svg" xmlns:xlink="http://www.w3.org/1999/xlink" x="0px" y="0px" width="60px"
	 height="60px" viewBox="0 0 60 60" enable-background="new 0 0 60 60" xml:space="preserve">
<g id="Layer_1">
	<g>
		<path fill="#010101" d="M42.949,50.684c-0.174-0.523-0.739-0.808-1.265-0.632L30,53.946l-11.684-3.895
			c-0.525-0.175-1.09,0.109-1.265,0.632c-0.175,0.524,0.108,1.09,0.632,1.265L26.838,55l-9.154,3.051
			c-0.524,0.175-0.807,0.741-0.632,1.265c0.14,0.419,0.53,0.684,0.949,0.684c0.104,0,0.211-0.017,0.316-0.052L30,56.054
			l11.684,3.895c0.105,0.035,0.212,0.052,0.316,0.052c0.419,0,0.809-0.265,0.949-0.684c0.175-0.524-0.108-1.09-0.632-1.265
			L33.163,55l9.154-3.051C42.84,51.774,43.123,51.208,42.949,50.684z"/>
		<path fill="#010101" d="M30,7c-7.169,0-13,5.832-13,13c0,7.169,5.831,13,13,13s13-5.831,13-13C43,12.832,37.169,7,30,7z M30,31
			c-6.065,0-11-4.935-11-11c0-6.065,4.935-11,11-11c6.065,0,11,4.935,11,11C41,26.065,36.065,31,30,31z"/>
		<path fill="#010101" d="M30,0C18.972,0,10,8.972,10,20c0,9.548,6.684,17.682,15.981,19.575l3.057,10.7
			C29.161,50.704,29.554,51,30,51s0.839-0.296,0.961-0.725l3.057-10.7C43.316,37.682,50,29.548,50,20C50,8.972,41.028,0,30,0z
			 M33.058,37.72c-0.379,0.065-0.687,0.341-0.793,0.711L30,46.36l-2.265-7.929c-0.106-0.37-0.414-0.646-0.793-0.711
			C18.284,36.236,12,28.783,12,20c0-9.925,8.075-18,18-18s18,8.075,18,18C48,28.783,41.716,36.236,33.058,37.72z"/>
	</g>
</g>
<g id="nyt_x5F_exporter_x5F_info" display="none">
</g>
</svg>
