<?xml version="1.0" encoding="utf-8"?>
<!-- Generator: Adobe Illustrator 17.0.0, SVG Export Plug-In . SVG Version: 6.00 Build 0)  -->
<!DOCTYPE svg PUBLIC "-//W3C//DTD SVG 1.1//EN" "http://www.w3.org/Graphics/SVG/1.1/DTD/svg11.dtd">
<svg version="1.1" xmlns="http://www.w3.org/2000/svg" xmlns:xlink="http://www.w3.org/1999/xlink" x="0px" y="0px" width="60px"
	 height="60px" viewBox="0 0 60 60" enable-background="new 0 0 60 60" xml:space="preserve">
<g id="Layer_1">
	<g>
		<path fill="#010101" d="M29,0c-9.532,0-15,6.196-15,17c0,4.081,3.479,9.407,7.163,15.047C24.524,37.194,28,42.515,28,46v4
			c0,0.552,0.447,1,1,1c0.553,0,1-0.448,1-1v-4c0-3.485,3.476-8.806,6.837-13.953C40.521,26.407,44,21.081,44,17
			C44,6.196,38.532,0,29,0z M35.162,30.954c-2.48,3.797-4.867,7.452-6.162,10.681c-1.295-3.229-3.683-6.884-6.162-10.681
			C19.476,25.807,16,20.485,16,17c0-9.673,4.617-15,13-15s13,5.327,13,15C42,20.485,38.524,25.807,35.162,30.954z"/>
		<path fill="#010101" d="M41.948,50.684c-0.175-0.523-0.736-0.809-1.265-0.632L29,53.946l-11.684-3.895
			c-0.527-0.177-1.091,0.109-1.265,0.632c-0.175,0.524,0.108,1.09,0.632,1.265L25.838,55l-9.154,3.051
			c-0.523,0.175-0.807,0.741-0.632,1.265c0.14,0.419,0.529,0.684,0.948,0.684c0.104,0,0.211-0.017,0.316-0.052L29,56.054
			l11.684,3.895c0.105,0.035,0.212,0.052,0.316,0.052c0.419,0,0.809-0.265,0.948-0.684c0.175-0.524-0.108-1.09-0.632-1.265
			L32.163,55l9.154-3.051C41.84,51.774,42.123,51.208,41.948,50.684z"/>
		<path fill="#010101" d="M29,8c-3.859,0-7,3.14-7,7c0,3.86,3.141,7,7,7c3.859,0,7-3.14,7-7C36,11.14,32.859,8,29,8z M29,20
			c-2.757,0-5-2.243-5-5c0-2.757,2.243-5,5-5c2.757,0,5,2.243,5,5C34,17.757,31.757,20,29,20z"/>
	</g>
</g>
<g id="nyt_x5F_exporter_x5F_info" display="none">
</g>
</svg>
