<?xml version="1.0" encoding="utf-8"?>
<!-- Generator: Adobe Illustrator 17.0.0, SVG Export Plug-In . SVG Version: 6.00 Build 0)  -->
<!DOCTYPE svg PUBLIC "-//W3C//DTD SVG 1.1//EN" "http://www.w3.org/Graphics/SVG/1.1/DTD/svg11.dtd">
<svg version="1.1" xmlns="http://www.w3.org/2000/svg" xmlns:xlink="http://www.w3.org/1999/xlink" x="0px" y="0px" width="60px"
	 height="60px" viewBox="0 0 60 60" enable-background="new 0 0 60 60" xml:space="preserve">
<g id="Layer_1">
	<g>
		<path fill="#010101" d="M28,53v6c0,0.552,0.448,1,1,1s1-0.448,1-1v-6c0-4.605,3.639-10.351,7.492-16.434
			C41.675,29.961,46,23.131,46,17C46,4.452,36.842,0,29,0S12,4.452,12,17c0,6.131,4.325,12.961,8.508,19.566
			C24.361,42.649,28,48.395,28,53z M29,2c7.252,0,15,3.94,15,15c0,5.551-4.167,12.132-8.198,18.496
			c-2.759,4.357-5.413,8.548-6.802,12.427c-1.389-3.879-4.042-8.069-6.802-12.427C18.167,29.132,14,22.551,14,17
			C14,5.94,21.749,2,29,2z"/>
		<path fill="#010101" d="M39,18c0-5.514-4.486-10-10-10c-5.514,0-10,4.486-10,10c0,5.514,4.486,10,10,10C34.514,28,39,23.514,39,18
			z M21,18c0-4.411,3.589-8,8-8c4.411,0,8,3.589,8,8c0,4.411-3.589,8-8,8C24.589,26,21,22.411,21,18z"/>
	</g>
</g>
<g id="nyt_x5F_exporter_x5F_info" display="none">
</g>
</svg>
