<?xml version="1.0" encoding="utf-8"?>
<!-- Generator: Adobe Illustrator 17.0.0, SVG Export Plug-In . SVG Version: 6.00 Build 0)  -->
<!DOCTYPE svg PUBLIC "-//W3C//DTD SVG 1.1//EN" "http://www.w3.org/Graphics/SVG/1.1/DTD/svg11.dtd">
<svg version="1.1" xmlns="http://www.w3.org/2000/svg" xmlns:xlink="http://www.w3.org/1999/xlink" x="0px" y="0px" width="60px"
	 height="60px" viewBox="0 0 60 60" enable-background="new 0 0 60 60" xml:space="preserve">
<g id="Layer_1">
	<g>
		<path fill="#010101" d="M30,0C17.532,0,7,10.533,7,23c0,8.417,3.886,17.458,11.236,26.146
			c5.515,6.517,10.947,10.497,11.176,10.663C29.587,59.936,29.794,60,30,60s0.413-0.064,0.588-0.191
			c0.229-0.166,5.661-4.146,11.176-10.663C49.114,40.458,53,31.417,53,23C53,10.533,42.468,0,30,0z M30,57.742
			C26.536,55.034,9,40.453,9,23C9,11.617,18.617,2,30,2s21,9.617,21,21C51,40.437,33.463,55.031,30,57.742z"/>
		<path fill="#010101" d="M30,9c-7.72,0-14,6.28-14,14s6.28,14,14,14c7.72,0,14-6.28,14-14S37.72,9,30,9z M30,35
			c-6.617,0-12-5.383-12-12s5.383-12,12-12s12,5.383,12,12S36.617,35,30,35z"/>
	</g>
</g>
<g id="nyt_x5F_exporter_x5F_info" display="none">
</g>
</svg>
