<?xml version="1.0" encoding="utf-8"?>
<!-- Generator: Adobe Illustrator 17.0.0, SVG Export Plug-In . SVG Version: 6.00 Build 0)  -->
<!DOCTYPE svg PUBLIC "-//W3C//DTD SVG 1.1//EN" "http://www.w3.org/Graphics/SVG/1.1/DTD/svg11.dtd">
<svg version="1.1" xmlns="http://www.w3.org/2000/svg" xmlns:xlink="http://www.w3.org/1999/xlink" x="0px" y="0px" width="60px"
	 height="60px" viewBox="0 0 60 60" enable-background="new 0 0 60 60" xml:space="preserve">
<g id="Layer_1">
	<g>
		<path fill="#010101" d="M29,0c-7.842,0-17,4.452-17,17c0,6.131,4.325,12.961,8.508,19.566C24.361,42.649,28,48.395,28,53v6
			c0,0.552,0.448,1,1,1s1-0.448,1-1v-6c0-4.605,3.639-10.351,7.492-16.434C41.675,29.961,46,23.131,46,17C46,4.452,36.842,0,29,0z
			 M35.802,35.496c-2.759,4.357-5.413,8.548-6.802,12.427c-1.389-3.879-4.042-8.069-6.802-12.427C18.167,29.132,14,22.551,14,17
			C14,5.94,21.748,2,29,2s15,3.94,15,15C44,22.551,39.833,29.132,35.802,35.496z"/>
		<path fill="#010101" d="M36,16H22c-0.552,0-1,0.448-1,1c0,0.552,0.448,1,1,1h14c0.552,0,1-0.448,1-1C37,16.448,36.552,16,36,16z"
			/>
	</g>
</g>
<g id="nyt_x5F_exporter_x5F_info" display="none">
</g>
</svg>
