<?xml version="1.0" encoding="utf-8"?>
<!-- Generator: Adobe Illustrator 17.0.0, SVG Export Plug-In . SVG Version: 6.00 Build 0)  -->
<!DOCTYPE svg PUBLIC "-//W3C//DTD SVG 1.1//EN" "http://www.w3.org/Graphics/SVG/1.1/DTD/svg11.dtd">
<svg version="1.1" xmlns="http://www.w3.org/2000/svg" xmlns:xlink="http://www.w3.org/1999/xlink" x="0px" y="0px" width="60px"
	 height="60px" viewBox="0 0 60 60" enable-background="new 0 0 60 60" xml:space="preserve">
<g id="Layer_1">
	<g>
		<path fill="#010101" d="M30,0C17.869,0,8,9.869,8,22c0,10.1,6.741,18.766,16.468,21.279l4.571,15.996
			C29.161,59.704,29.554,60,30,60s0.839-0.296,0.961-0.725l4.571-15.996C45.259,40.766,52,32.1,52,22C52,9.869,42.131,0,30,0z
			 M34.506,41.471c-0.354,0.082-0.637,0.35-0.737,0.7L30,55.36l-3.769-13.19c-0.1-0.35-0.382-0.618-0.737-0.7
			C16.372,39.368,10,31.361,10,22c0-11.028,8.972-20,20-20s20,8.972,20,20C50,31.361,43.628,39.368,34.506,41.471z"/>
		<path fill="#010101" d="M30,7c-8.271,0-15,6.729-15,15s6.729,15,15,15s15-6.729,15-15S38.271,7,30,7z M30,35
			c-7.169,0-13-5.831-13-13c0-7.168,5.831-13,13-13s13,5.832,13,13C43,29.169,37.169,35,30,35z"/>
		<path fill="#010101" d="M36,22H24c-0.552,0-1,0.448-1,1c0,0.552,0.448,1,1,1h12c0.552,0,1-0.448,1-1C37,22.448,36.552,22,36,22z"
			/>
	</g>
</g>
<g id="nyt_x5F_exporter_x5F_info" display="none">
</g>
</svg>
