<?xml version="1.0" encoding="utf-8"?>
<!-- Generator: Adobe Illustrator 17.0.0, SVG Export Plug-In . SVG Version: 6.00 Build 0)  -->
<!DOCTYPE svg PUBLIC "-//W3C//DTD SVG 1.1//EN" "http://www.w3.org/Graphics/SVG/1.1/DTD/svg11.dtd">
<svg version="1.1" xmlns="http://www.w3.org/2000/svg" xmlns:xlink="http://www.w3.org/1999/xlink" x="0px" y="0px" width="60px"
	 height="60px" viewBox="0 0 60 60" enable-background="new 0 0 60 60" xml:space="preserve">
<g id="Layer_1">
	<g>
		<path fill="#010101" d="M26,35.949V59c0,0.552,0.448,1,1,1s1-0.448,1-1V35.949C33.598,35.442,38,30.728,38,25
			c0-6.065-4.935-11-11-11c-6.065,0-11,4.935-11,11C16,30.728,20.402,35.442,26,35.949z M27,16c4.962,0,9,4.038,9,9s-4.038,9-9,9
			s-9-4.038-9-9S22.038,16,27,16z"/>
		<path fill="#010101" d="M27,21c2.206,0,4,1.794,4,4c0,0.552,0.448,1,1,1s1-0.448,1-1c0-3.309-2.691-6-6-6c-0.552,0-1,0.448-1,1
			S26.448,21,27,21z"/>
	</g>
</g>
<g id="nyt_x5F_exporter_x5F_info" display="none">
</g>
</svg>
