<?xml version="1.0" encoding="utf-8"?>
<!-- Generator: Adobe Illustrator 17.0.0, SVG Export Plug-In . SVG Version: 6.00 Build 0)  -->
<!DOCTYPE svg PUBLIC "-//W3C//DTD SVG 1.1//EN" "http://www.w3.org/Graphics/SVG/1.1/DTD/svg11.dtd">
<svg version="1.1" id="Layer_1" xmlns="http://www.w3.org/2000/svg" xmlns:xlink="http://www.w3.org/1999/xlink" x="0px" y="0px"
	 width="48px" height="48px" viewBox="0 0 48 48" enable-background="new 0 0 48 48" xml:space="preserve">
<path fill="#231F20" d="M48,9.999v-10H38v4H10v-4H0v10h4v28H0v10h10v-4h28v4h10v-10h-4v-28H48z M40,1.999h6v6h-6V1.999z M2,1.999h6
	v6H2V1.999z M8,45.999H2v-6h6V45.999z M46,45.999h-6v-6h6V45.999z M42,37.999h-4v4H10v-4H6v-28h4v-4h28v4h4V37.999z"/>
</svg>
