<?xml version="1.0" encoding="utf-8"?>
<!-- Generator: Adobe Illustrator 17.0.0, SVG Export Plug-In . SVG Version: 6.00 Build 0)  -->
<!DOCTYPE svg PUBLIC "-//W3C//DTD SVG 1.1//EN" "http://www.w3.org/Graphics/SVG/1.1/DTD/svg11.dtd">
<svg version="1.1" id="Layer_1" xmlns="http://www.w3.org/2000/svg" xmlns:xlink="http://www.w3.org/1999/xlink" x="0px" y="0px"
	 width="48px" height="48px" viewBox="0 0 48 48" enable-background="new 0 0 48 48" xml:space="preserve">
<g>
	<path fill="#231F20" d="M42,12v24c0,0.552,0.447,1,1,1s1-0.448,1-1V12c0-0.552-0.447-1-1-1S42,11.448,42,12z"/>
	<path fill="#231F20" d="M35,4H13c-0.553,0-1,0.448-1,1s0.447,1,1,1h22c0.553,0,1-0.448,1-1S35.553,4,35,4z"/>
	<path fill="#231F20" d="M6,36V12c0-0.552-0.447-1-1-1s-1,0.448-1,1v24c0,0.552,0.447,1,1,1S6,36.552,6,36z"/>
	<path fill="#231F20" d="M35,42H13c-0.553,0-1,0.448-1,1s0.447,1,1,1h22c0.553,0,1-0.448,1-1S35.553,42,35,42z"/>
	<path fill="#231F20" d="M43,10c2.757,0,5-2.243,5-5s-2.243-5-5-5s-5,2.243-5,5S40.243,10,43,10z M43,2c1.654,0,3,1.346,3,3
		s-1.346,3-3,3s-3-1.346-3-3S41.346,2,43,2z"/>
	<path fill="#231F20" d="M5,0C2.243,0,0,2.243,0,5s2.243,5,5,5s5-2.243,5-5S7.757,0,5,0z M5,8C3.346,8,2,6.654,2,5s1.346-3,3-3
		s3,1.346,3,3S6.654,8,5,8z"/>
	<path fill="#231F20" d="M43,38c-2.757,0-5,2.243-5,5s2.243,5,5,5s5-2.243,5-5S45.757,38,43,38z M43,46c-1.654,0-3-1.346-3-3
		s1.346-3,3-3s3,1.346,3,3S44.654,46,43,46z"/>
	<path fill="#231F20" d="M5,38c-2.757,0-5,2.243-5,5s2.243,5,5,5s5-2.243,5-5S7.757,38,5,38z M5,46c-1.654,0-3-1.346-3-3
		s1.346-3,3-3s3,1.346,3,3S6.654,46,5,46z"/>
</g>
</svg>
