<?xml version="1.0" encoding="utf-8"?>
<!-- Generator: Adobe Illustrator 17.1.0, SVG Export Plug-In . SVG Version: 6.00 Build 0)  -->
<!DOCTYPE svg PUBLIC "-//W3C//DTD SVG 1.0//EN" "http://www.w3.org/TR/2001/REC-SVG-20010904/DTD/svg10.dtd">
<svg version="1.0" id="Layer_1" xmlns="http://www.w3.org/2000/svg" xmlns:xlink="http://www.w3.org/1999/xlink" x="0px" y="0px"
	 width="48px" height="48px" viewBox="0 0 48 48" enable-background="new 0 0 48 48" xml:space="preserve">
<path d="M46,30.184V7c0-0.552-0.448-1-1-1H30V5c0-0.552-0.448-1-1-1h-4V1c0-0.552-0.448-1-1-1c-0.552,0-1,0.448-1,1v3h-4
	c-0.552,0-1,0.448-1,1v1H3C2.448,6,2,6.448,2,7v23.184C0.839,30.599,0,31.698,0,33c0,1.654,1.346,3,3,3h9.382L7.106,46.553
	c-0.247,0.494-0.047,1.095,0.447,1.342C7.696,47.966,7.849,48,7.999,48c0.367,0,0.72-0.202,0.896-0.553L14.618,36H23v11
	c0,0.552,0.448,1,1,1c0.552,0,1-0.448,1-1V36h8.382l5.724,11.447C39.281,47.798,39.634,48,40.001,48c0.15,0,0.303-0.034,0.446-0.105
	c0.494-0.247,0.694-0.848,0.447-1.342L35.618,36H45c1.654,0,3-1.346,3-3C48,31.698,47.162,30.599,46,30.184z M20,6h8v2h-8V6z M4,8
	h14v1c0,0.552,0.448,1,1,1h10c0.552,0,1-0.448,1-1V8h14v22H4V8z M45,34H3c-0.551,0-1-0.448-1-1c0-0.552,0.449-1,1-1h42
	c0.551,0,1,0.448,1,1C46,33.552,45.551,34,45,34z"/>
</svg>
