<?xml version="1.0" encoding="utf-8"?>
<!-- Generator: Adobe Illustrator 17.0.0, SVG Export Plug-In . SVG Version: 6.00 Build 0)  -->
<!DOCTYPE svg PUBLIC "-//W3C//DTD SVG 1.1//EN" "http://www.w3.org/Graphics/SVG/1.1/DTD/svg11.dtd">
<svg version="1.1" id="Layer_1" xmlns="http://www.w3.org/2000/svg" xmlns:xlink="http://www.w3.org/1999/xlink" x="0px" y="0px"
	 width="48px" height="48px" viewBox="0 0 48 48" enable-background="new 0 0 48 48" xml:space="preserve">
<g>
	<path fill="#231F20" d="M44,24c0-2.206-1.794-4-4-4H29.954c-0.332,0-0.642-0.164-0.828-0.44c-0.186-0.275-0.224-0.624-0.101-0.932
		C29.672,17.013,30,15.311,30,13.569V6c0-3.309-2.691-6-6-6s-6,2.691-6,6v7.569c0,1.74,0.328,3.442,0.975,5.06
		c0.123,0.308,0.086,0.656-0.1,0.931C18.688,19.835,18.379,20,18.046,20H8c-2.206,0-4,1.794-4,4v8h2v15c0,0.552,0.448,1,1,1h5
		c0.379,0,0.725-0.214,0.894-0.553L15,43.236V47c0,0.552,0.448,1,1,1h25c0.552,0,1-0.448,1-1V32h2V24z M40,46h-2v-9
		c0-0.552-0.448-1-1-1s-1,0.448-1,1v9h-2v-7c0-0.552-0.448-1-1-1s-1,0.448-1,1v7h-2v-4c0-0.552-0.448-1-1-1s-1,0.448-1,1v4H17v-7
		c0-0.464-0.319-0.867-0.769-0.973c-0.455-0.105-0.917,0.111-1.125,0.526L11.382,46H8V32h32V46z M42,30h-1H7H6v-6
		c0-1.103,0.897-2,2-2h10.046c0.996,0,1.925-0.493,2.484-1.319c0.559-0.826,0.672-1.872,0.301-2.796
		C20.28,16.506,20,15.053,20,13.569V6c0-2.206,1.794-4,4-4s4,1.794,4,4v7.569c0,1.487-0.28,2.939-0.831,4.317
		c-0.371,0.925-0.258,1.971,0.301,2.796C28.029,21.507,28.957,22,29.954,22H40c1.103,0,2,0.897,2,2V30z"/>
	<circle fill="#231F20" cx="24" cy="6" r="2"/>
</g>
</svg>
