<?xml version="1.0" encoding="utf-8"?>
<!-- Generator: Adobe Illustrator 17.0.0, SVG Export Plug-In . SVG Version: 6.00 Build 0)  -->
<!DOCTYPE svg PUBLIC "-//W3C//DTD SVG 1.1//EN" "http://www.w3.org/Graphics/SVG/1.1/DTD/svg11.dtd">
<svg version="1.1" id="Layer_1" xmlns="http://www.w3.org/2000/svg" xmlns:xlink="http://www.w3.org/1999/xlink" x="0px" y="0px"
	 width="48px" height="48px" viewBox="0 0 48 48" enable-background="new 0 0 48 48" xml:space="preserve">
<path d="M47.023,2.183C46.139,1.292,44.637,0.912,42,0.912c-0.305,0-0.594,0.14-0.784,0.379L20.948,26.852
	c-0.001,0.001-0.003,0.002-0.005,0.003c-0.005,0.005-0.007,0.013-0.012,0.018l-2.678,3.378c-0.891-0.332-1.835-0.521-2.816-0.521
	c-2.56,0-4.989,1.206-6.497,3.227c-0.729,0.98-1.123,2.22-1.541,3.532c-0.965,3.039-1.821,5.644-6.35,5.425
	c-0.407-0.029-0.791,0.212-0.96,0.585c-0.169,0.374-0.094,0.813,0.192,1.108C3.059,46.481,6.52,48,10.29,48
	c5.7,0,11.373-3.642,12.914-8.29c0.615-1.853,0.475-3.669-0.326-5.3l2.651-2.861c0.02-0.017,0.045-0.024,0.064-0.043
	c0.028-0.028,0.039-0.064,0.063-0.095L47.733,7.592C47.905,7.407,48,7.164,48,6.912l0.003-0.639
	C48.016,4.621,48.027,3.195,47.023,2.183z M21.307,39.08C20.041,42.896,15.099,46,10.29,46c-2.469,0-4.79-0.771-6.817-2.25
	c3.971-0.798,5.031-4.134,5.831-6.655c0.365-1.148,0.71-2.233,1.239-2.942c1.132-1.517,2.961-2.423,4.894-2.423
	c1.317,0,2.563,0.409,3.603,1.185C21.302,34.601,22.085,36.733,21.307,39.08z M20.235,31.312c-0.058-0.043-0.122-0.072-0.181-0.114
	l1.689-2.13l1.742,1.742l-1.758,1.896C21.296,32.215,20.812,31.742,20.235,31.312z M46.002,6.518L24.845,29.343l-1.852-1.852
	L42.479,2.917c1.685,0.034,2.708,0.256,3.124,0.675c0.398,0.402,0.411,1.232,0.4,2.666L46.002,6.518z"/>
</svg>
