<?xml version="1.0" encoding="utf-8"?>
<!-- Generator: Adobe Illustrator 17.0.0, SVG Export Plug-In . SVG Version: 6.00 Build 0)  -->
<!DOCTYPE svg PUBLIC "-//W3C//DTD SVG 1.1//EN" "http://www.w3.org/Graphics/SVG/1.1/DTD/svg11.dtd">
<svg version="1.1" id="Layer_1" xmlns="http://www.w3.org/2000/svg" xmlns:xlink="http://www.w3.org/1999/xlink" x="0px" y="0px"
	 width="48px" height="48px" viewBox="0 0 48 48" enable-background="new 0 0 48 48" xml:space="preserve">
<g>
	<path fill="#231F20" d="M39.096,25.383c0.155-0.374,0.069-0.804-0.217-1.09l-18-18C20.684,6.097,20.428,6,20.172,6V5
		c0-2.757-2.243-5-5-5s-5,2.243-5,5v10c0,0.169,0.052,0.32,0.126,0.46l-7.833,7.833C1.52,24.238,1,25.493,1,26.829
		c0,1.335,0.52,2.59,1.465,3.535l9.343,9.343c0.944,0.944,2.2,1.464,3.536,1.464c1.335,0,2.591-0.52,3.535-1.464L32.586,26h5.586
		C38.576,26,38.941,25.756,39.096,25.383z M12.172,5c0-1.654,1.346-3,3-3s3,1.346,3,3v2.586l-6,6V5z M32.172,24
		c-0.266,0-0.52,0.106-0.707,0.293l-14,14c-1.133,1.134-3.111,1.132-4.243,0L3.879,28.95C3.312,28.383,3,27.63,3,26.829
		c0-0.802,0.312-1.555,0.879-2.122l14.293-14.293V21c0,0.552,0.447,1,1,1s1-0.448,1-1V8.414L35.758,24H32.172z"/>
	<path fill="#231F20" d="M41.027,30.481c-0.361-0.597-1.348-0.597-1.709,0C38.79,31.349,34.172,39.044,34.172,42
		c0,3.309,2.691,6,6,6c3.308,0,6-2.691,6.001-6C46.173,39.044,41.554,31.349,41.027,30.481z M40.172,46c-2.206,0-4-1.794-4-4
		c0-1.55,2.192-5.878,4-9.03c1.807,3.152,4,7.48,4,9.03C44.172,44.206,42.378,46,40.172,46z"/>
</g>
</svg>
