<?xml version="1.0" encoding="utf-8"?>
<!-- Generator: Adobe Illustrator 17.0.0, SVG Export Plug-In . SVG Version: 6.00 Build 0)  -->
<!DOCTYPE svg PUBLIC "-//W3C//DTD SVG 1.1//EN" "http://www.w3.org/Graphics/SVG/1.1/DTD/svg11.dtd">
<svg version="1.1" id="Layer_1" xmlns="http://www.w3.org/2000/svg" xmlns:xlink="http://www.w3.org/1999/xlink" x="0px" y="0px"
	 width="48px" height="48px" viewBox="0 0 48 48" enable-background="new 0 0 48 48" xml:space="preserve">
<path fill="#231F20" d="M47.707,1.706c0.391-0.391,0.391-1.023,0-1.414c-0.391-0.391-1.023-0.391-1.414,0L32.586,13.999H14h-2v-3
	c0-0.552-0.447-1-1-1H5c-0.553,0-1,0.448-1,1v3H1c-0.553,0-1,0.448-1,1v6c0,0.552,0.447,1,1,1h3v21c0,0.552,0.447,1,1,1h21v3
	c0,0.552,0.447,1,1,1h6c0.553,0,1-0.448,1-1v-3h3c0.553,0,1-0.448,1-1v-6c0-0.552-0.447-1-1-1h-3V15.413L47.707,1.706z M6,11.999h4
	v2H6V11.999z M2,19.999v-4h2h1h6h3h18v20h-4V21c0-0.131-0.026-0.261-0.077-0.383c-0.101-0.244-0.296-0.439-0.541-0.541
	c-0.123-0.051-0.253-0.077-0.384-0.077H11H5H2z M12,21.999h12.586L12,34.585V21.999z M26,23.413v12.586H13.414L26,23.413z
	 M28,45.999v-2h4v2H28z M36,37.999v4h-3h-6H6v-20h4v14.999c0,0.131,0.026,0.261,0.077,0.383c0.101,0.245,0.296,0.439,0.541,0.541
	c0.122,0.051,0.252,0.077,0.382,0.077h16h6H36z"/>
</svg>
