<?xml version="1.0" encoding="utf-8"?>
<!-- Generator: Adobe Illustrator 17.1.0, SVG Export Plug-In . SVG Version: 6.00 Build 0)  -->
<!DOCTYPE svg PUBLIC "-//W3C//DTD SVG 1.0//EN" "http://www.w3.org/TR/2001/REC-SVG-20010904/DTD/svg10.dtd">
<svg version="1.0" id="Layer_1" xmlns="http://www.w3.org/2000/svg" xmlns:xlink="http://www.w3.org/1999/xlink" x="0px" y="0px"
	 width="48px" height="48px" viewBox="0 0 48 48" enable-background="new 0 0 48 48" xml:space="preserve">
<path d="M33,17h-3v-6c0-3.308-2.691-6-6-6c-3.309,0-6,2.692-6,6v6h-3c-0.552,0-1,0.448-1,1c0,0.552,0.448,1,1,1h3v14
	c0,2.155,1.158,4.127,3,5.191V42c0,0.552,0.448,1,1,1h4c0.552,0,1-0.448,1-1v-3.809c1.842-1.064,3-3.036,3-5.191V19h3
	c0.552,0,1-0.448,1-1C34,17.448,33.552,17,33,17z M20,11c0-2.206,1.794-4,4-4c2.206,0,4,1.794,4,4v6h-8V11z M28,33
	c0,1.586-0.942,3.023-2.401,3.662C25.235,36.821,25,37.181,25,37.578V41h-2v-3.422c0-0.397-0.235-0.757-0.599-0.916
	C20.942,36.023,20,34.586,20,33V19h8V33z"/>
</svg>
