<?xml version="1.0" encoding="utf-8"?>
<!-- Generator: Adobe Illustrator 17.1.0, SVG Export Plug-In . SVG Version: 6.00 Build 0)  -->
<!DOCTYPE svg PUBLIC "-//W3C//DTD SVG 1.0//EN" "http://www.w3.org/TR/2001/REC-SVG-20010904/DTD/svg10.dtd">
<svg version="1.0" id="Layer_1" xmlns="http://www.w3.org/2000/svg" xmlns:xlink="http://www.w3.org/1999/xlink" x="0px" y="0px"
	 width="48px" height="48px" viewBox="0 0 48 48" enable-background="new 0 0 48 48" xml:space="preserve">
<path d="M35,16h-3V9c0-4.962-3.589-9-8-9c-4.411,0-8,4.038-8,9v7h-3c-0.552,0-1,0.448-1,1c0,0.552,0.448,1,1,1h3v17
	c0,3.723,1.981,6.981,5,8.343V47c0,0.552,0.448,1,1,1h4c0.552,0,1-0.448,1-1v-3.657c3.019-1.362,5-4.621,5-8.343V18h3
	c0.552,0,1-0.448,1-1C36,16.448,35.552,16,35,16z M18,9c0-3.86,2.691-7,6-7c3.309,0,6,3.14,6,7v7H18V9z M30,35
	c0,3.089-1.777,5.852-4.322,6.717C25.273,41.856,25,42.236,25,42.664V46h-2v-3.336c0-0.428-0.273-0.809-0.678-0.947
	C19.777,40.852,18,38.089,18,35v-3h3c0.552,0,1-0.448,1-1c0-0.552-0.448-1-1-1h-3v-2h3c0.552,0,1-0.448,1-1c0-0.552-0.448-1-1-1h-3
	v-2h3c0.552,0,1-0.448,1-1c0-0.552-0.448-1-1-1h-3v-4h12V35z"/>
</svg>
