<?xml version="1.0" encoding="utf-8"?>
<!-- Generator: Adobe Illustrator 17.0.0, SVG Export Plug-In . SVG Version: 6.00 Build 0)  -->
<!DOCTYPE svg PUBLIC "-//W3C//DTD SVG 1.1//EN" "http://www.w3.org/Graphics/SVG/1.1/DTD/svg11.dtd">
<svg version="1.1" id="Layer_1" xmlns="http://www.w3.org/2000/svg" xmlns:xlink="http://www.w3.org/1999/xlink" x="0px" y="0px"
	 width="48px" height="48px" viewBox="0 0 48 48" enable-background="new 0 0 48 48" xml:space="preserve">
<g>
	<path fill="#231F20" d="M33,12h-3V6c0-3.309-2.691-6-6-6s-6,2.691-6,6v6h-3c-0.553,0-1,0.448-1,1s0.447,1,1,1h3v14
		c0,2.155,1.158,4.127,3,5.191V37c0,0.552,0.447,1,1,1h4c0.553,0,1-0.448,1-1v-3.809c1.842-1.064,3-3.036,3-5.191V14h3
		c0.553,0,1-0.448,1-1S33.553,12,33,12z M20,6c0-2.206,1.794-4,4-4s4,1.794,4,4v6h-8V6z M28,28c0,1.586-0.942,3.023-2.401,3.662
		C25.235,31.821,25,32.181,25,32.578V36h-2v-3.422c0-0.397-0.235-0.757-0.599-0.916C20.942,31.023,20,29.586,20,28V14h8V28z"/>
	<path fill="#231F20" d="M24,30c1.102,0,2-0.897,2-2V17c0-0.552-0.447-1-1-1h-2c-0.553,0-1,0.448-1,1v11C22,29.103,22.897,30,24,30z
		"/>
	<path fill="#231F20" d="M23.177,40.432C22.522,41.379,21,43.722,21,45c0,1.654,1.346,3,3,3s3-1.346,3-3
		c0-1.278-1.523-3.621-2.177-4.568C24.448,39.891,23.552,39.891,23.177,40.432z M24,46c-0.552,0-1-0.449-1-0.999
		c0.008-0.305,0.424-1.176,1-2.147c0.576,0.969,0.992,1.84,1,2.146C25,45.551,24.552,46,24,46z"/>
</g>
</svg>
