<?xml version="1.0" encoding="utf-8"?>
<!-- Generator: Adobe Illustrator 17.0.0, SVG Export Plug-In . SVG Version: 6.00 Build 0)  -->
<!DOCTYPE svg PUBLIC "-//W3C//DTD SVG 1.1//EN" "http://www.w3.org/Graphics/SVG/1.1/DTD/svg11.dtd">
<svg version="1.1" id="Layer_1" xmlns="http://www.w3.org/2000/svg" xmlns:xlink="http://www.w3.org/1999/xlink" x="0px" y="0px"
	 width="48px" height="48px" viewBox="0 0 48 48" enable-background="new 0 0 48 48" xml:space="preserve">
<path fill="#231F20" d="M46,24c0.552,0,1-0.448,1-1s-0.448-1-1-1H34v-8h12c0.552,0,1-0.448,1-1s-0.448-1-1-1H34V1
	c0-0.552-0.448-1-1-1s-1,0.448-1,1v11h-8V1c0-0.552-0.448-1-1-1s-1,0.448-1,1v11h-8V1c0-0.552-0.448-1-1-1s-1,0.448-1,1v11H1
	c-0.552,0-1,0.448-1,1s0.448,1,1,1h11v8H1c-0.552,0-1,0.448-1,1s0.448,1,1,1h11v8H1c-0.552,0-1,0.448-1,1s0.448,1,1,1h11v13
	c0,0.552,0.448,1,1,1s1-0.448,1-1V34h8v13c0,0.552,0.448,1,1,1s1-0.448,1-1V34h8v13c0,0.552,0.448,1,1,1s1-0.448,1-1V34h12
	c0.552,0,1-0.448,1-1s-0.448-1-1-1H34v-8H46z M32,14v8h-8v-8H32z M14,14h8v8h-8V14z M14,32v-8h8v8H14z M32,32h-8v-8h8V32z"/>
</svg>
