<?xml version="1.0" encoding="utf-8"?>
<!-- Generator: Adobe Illustrator 17.0.0, SVG Export Plug-In . SVG Version: 6.00 Build 0)  -->
<!DOCTYPE svg PUBLIC "-//W3C//DTD SVG 1.1//EN" "http://www.w3.org/Graphics/SVG/1.1/DTD/svg11.dtd">
<svg version="1.1" id="Layer_1" xmlns="http://www.w3.org/2000/svg" xmlns:xlink="http://www.w3.org/1999/xlink" x="0px" y="0px"
	 width="48px" height="48px" viewBox="0 0 48 48" enable-background="new 0 0 48 48" xml:space="preserve">
<g>
	<path fill="#231F20" d="M26.293,20.293l-26,26c-0.391,0.391-0.391,1.023,0,1.414C0.488,47.902,0.744,48,1,48
		s0.512-0.098,0.707-0.293l26-26c0.391-0.391,0.391-1.023,0-1.414C27.316,19.902,26.684,19.902,26.293,20.293z"/>
	<path fill="#231F20" d="M47,13h-6c-0.553,0-1,0.448-1,1s0.447,1,1,1h6c0.553,0,1-0.448,1-1S47.553,13,47,13z"/>
	<path fill="#231F20" d="M39,10c0.256,0,0.512-0.098,0.707-0.293l4-4c0.391-0.391,0.391-1.023,0-1.414
		c-0.391-0.391-1.023-0.391-1.414,0l-4,4c-0.391,0.391-0.391,1.023,0,1.414C38.488,9.902,38.744,10,39,10z"/>
	<path fill="#231F20" d="M34,0c-0.553,0-1,0.448-1,1v6c0,0.552,0.447,1,1,1s1-0.448,1-1V1C35,0.448,34.553,0,34,0z"/>
	<path fill="#231F20" d="M25.707,4.293c-0.391-0.391-1.023-0.391-1.414,0c-0.391,0.391-0.391,1.023,0,1.414l4,4
		C28.488,9.902,28.744,10,29,10s0.512-0.098,0.707-0.293c0.391-0.391,0.391-1.023,0-1.414L25.707,4.293z"/>
	<path fill="#231F20" d="M21,15h6c0.553,0,1-0.448,1-1s-0.447-1-1-1h-6c-0.553,0-1,0.448-1,1S20.447,15,21,15z"/>
	<path fill="#231F20" d="M34,20c-0.553,0-1,0.448-1,1v6c0,0.552,0.447,1,1,1s1-0.448,1-1v-6C35,20.448,34.553,20,34,20z"/>
	<path fill="#231F20" d="M39.707,18.293c-0.391-0.391-1.023-0.391-1.414,0c-0.391,0.391-0.391,1.023,0,1.414l4,4
		C42.488,23.902,42.744,24,43,24s0.512-0.098,0.707-0.293c0.391-0.391,0.391-1.023,0-1.414L39.707,18.293z"/>
</g>
</svg>
