<?xml version="1.0" encoding="utf-8"?>
<!-- Generator: Adobe Illustrator 17.0.0, SVG Export Plug-In . SVG Version: 6.00 Build 0)  -->
<!DOCTYPE svg PUBLIC "-//W3C//DTD SVG 1.1//EN" "http://www.w3.org/Graphics/SVG/1.1/DTD/svg11.dtd">
<svg version="1.1" id="Layer_1" xmlns="http://www.w3.org/2000/svg" xmlns:xlink="http://www.w3.org/1999/xlink" x="0px" y="0px"
	 width="48px" height="48px" viewBox="0 0 48 48" enable-background="new 0 0 48 48" xml:space="preserve">
<path fill="#231F20" d="M41.543,18.523l-3.786-3.787l3.003-5.68c0.349-0.659,0.226-1.469-0.301-1.997
	c-0.326-0.327-0.762-0.498-1.203-0.498c-0.27,0-0.542,0.064-0.793,0.197l-5.681,3.001l-3.966-3.965
	C28.489,5.471,28.054,5.3,27.613,5.3c-0.287,0-0.578,0.073-0.841,0.223c-0.666,0.379-0.995,1.157-0.805,1.899l1.278,4.992
	l-5.996,2.799c-0.687,0.32-1.078,1.057-0.96,1.805s0.717,1.328,1.469,1.422l5.094,0.637L0.293,45.635
	c-0.391,0.391-0.391,1.023,0,1.414C0.488,47.244,0.744,47.342,1,47.342s0.512-0.098,0.707-0.293l26.698-26.697l0.676,5.411
	c0.094,0.752,0.674,1.351,1.422,1.468c0.089,0.014,0.178,0.021,0.266,0.021c0.652,0,1.257-0.376,1.539-0.982l2.811-6.023
	l4.833,1.134c0.13,0.031,0.26,0.045,0.389,0.045c0.607,0,1.181-0.326,1.485-0.874C42.195,19.888,42.08,19.06,41.543,18.523z
	 M34.162,18.277l-3.393,7.274l-0.978-7.821l-7.821-0.978l7.273-3.395L27.614,7l4.853,4.852l6.79-3.588l-3.59,6.789l4.674,4.674
	L34.162,18.277z"/>
</svg>
