<?xml version="1.0" encoding="utf-8"?>
<!-- Generator: Adobe Illustrator 17.0.0, SVG Export Plug-In . SVG Version: 6.00 Build 0)  -->
<!DOCTYPE svg PUBLIC "-//W3C//DTD SVG 1.1//EN" "http://www.w3.org/Graphics/SVG/1.1/DTD/svg11.dtd">
<svg version="1.1" id="Layer_1" xmlns="http://www.w3.org/2000/svg" xmlns:xlink="http://www.w3.org/1999/xlink" x="0px" y="0px"
	 width="48px" height="48px" viewBox="0 0 48 48" enable-background="new 0 0 48 48" xml:space="preserve">
<path fill="#231F20" d="M46.991,25.049l-5.657-5.657c-0.375-0.375-1.039-0.375-1.414,0l-14.849,14.85
	c-1.512,1.51-3.521,2.343-5.658,2.343c-2.137,0-4.146-0.832-5.657-2.343c-3.119-3.119-3.119-8.194,0-11.314l14.85-14.849
	c0.188-0.188,0.293-0.442,0.293-0.707s-0.105-0.519-0.293-0.707l-5.657-5.657c-0.391-0.391-1.023-0.391-1.414,0L5.271,17.272
	c-7.018,7.018-7.018,18.438,0,25.456C8.671,46.127,13.192,48,18,48c4.809,0,9.328-1.873,12.727-5.272l16.264-16.265
	c0.188-0.187,0.293-0.442,0.293-0.707C47.284,25.491,47.179,25.237,46.991,25.049z M22.242,3.129l4.243,4.244l-2.829,2.829
	l-4.243-4.243L22.242,3.129z M29.313,41.313C26.291,44.335,22.274,46,18,46s-8.292-1.665-11.315-4.687
	c-6.237-6.238-6.237-16.389,0-22.628L17.998,7.373l4.244,4.243l-9.9,9.899c-3.899,3.899-3.899,10.243,0,14.142
	c1.889,1.888,4.4,2.929,7.071,2.929c2.671,0,5.182-1.04,7.072-2.929l9.898-9.899l4.243,4.243L29.313,41.313z M42.04,28.587
	l-4.243-4.243l2.83-2.83l4.243,4.243L42.04,28.587z"/>
</svg>
