<?xml version="1.0" encoding="utf-8"?>
<!-- Generator: Adobe Illustrator 17.0.0, SVG Export Plug-In . SVG Version: 6.00 Build 0)  -->
<!DOCTYPE svg PUBLIC "-//W3C//DTD SVG 1.1//EN" "http://www.w3.org/Graphics/SVG/1.1/DTD/svg11.dtd">
<svg version="1.1" id="Layer_1" xmlns="http://www.w3.org/2000/svg" xmlns:xlink="http://www.w3.org/1999/xlink" x="0px" y="0px"
	 width="48px" height="48px" viewBox="0 0 48 48" enable-background="new 0 0 48 48" xml:space="preserve">
<g>
	<path fill="#231F20" d="M40.97,9.029C36.437,4.496,30.41,2,24,2S11.563,4.496,7.029,9.029c-9.358,9.359-9.357,24.585,0,33.942
		c0.945,0.944,2.201,1.464,3.536,1.464c1.336,0,2.592-0.52,3.536-1.465c1.948-1.949,1.948-5.121,0-7.071
		c-0.189-0.188-0.293-0.439-0.293-0.706c0-0.268,0.105-0.519,0.294-0.708c0.377-0.379,1.036-0.378,1.413,0l8.486,8.486
		c2.266,2.266,5.279,3.515,8.485,3.515c3.205,0,6.218-1.249,8.484-3.515C50.328,33.614,50.328,18.387,40.97,9.029z M39.557,41.556
		c-1.889,1.888-4.4,2.929-7.071,2.929c-2.671,0-5.182-1.04-7.071-2.929L16.93,33.07c-0.567-0.566-1.32-0.878-2.122-0.878
		s-1.555,0.312-2.123,0.878c-0.567,0.567-0.879,1.321-0.879,2.122c0,0.802,0.313,1.555,0.879,2.121
		c1.169,1.171,1.169,3.074,0.001,4.244c-1.133,1.133-3.11,1.133-4.243,0c-8.578-8.578-8.578-22.535,0-31.114
		C12.599,6.288,18.124,4,24,4s11.401,2.288,15.557,6.442C48.135,19.021,48.135,32.978,39.557,41.556z"/>
	<path fill="#231F20" d="M32.485,20.1c1.069,0,2.074-0.416,2.829-1.172c0.755-0.755,1.171-1.759,1.171-2.828
		c0-1.069-0.416-2.073-1.171-2.828c-1.511-1.511-4.147-1.511-5.657,0c-0.755,0.756-1.172,1.76-1.172,2.829
		c0,1.069,0.417,2.073,1.172,2.828S31.416,20.1,32.485,20.1z M31.071,14.687c0.378-0.378,0.88-0.586,1.414-0.586
		c0.535,0,1.036,0.208,1.414,0.586c0.378,0.377,0.586,0.88,0.586,1.414s-0.208,1.037-0.586,1.414c-0.755,0.755-2.073,0.756-2.828,0
		c-0.378-0.378-0.586-0.88-0.586-1.414S30.693,15.065,31.071,14.687z"/>
	<path fill="#231F20" d="M40.121,23.879c-1.134-1.134-3.108-1.134-4.242,0c-1.17,1.17-1.17,3.073,0,4.243
		C36.446,28.688,37.199,29,38,29s1.554-0.312,2.121-0.878C40.688,27.555,41,26.801,41,26S40.688,24.445,40.121,23.879z
		 M38.707,26.706c-0.378,0.378-1.036,0.378-1.414,0.001c-0.39-0.39-0.39-1.024,0-1.414C37.482,25.104,37.733,25,38,25
		c0.267,0,0.518,0.104,0.707,0.294C38.896,25.482,39,25.733,39,26S38.896,26.518,38.707,26.706z"/>
	<path fill="#231F20" d="M32.484,30.9c-1.336,0-2.591,0.52-3.534,1.464c-0.944,0.944-1.464,2.2-1.464,3.536s0.52,2.591,1.464,3.534
		c0.944,0.944,2.198,1.465,3.535,1.465c1.336,0,2.592-0.52,3.535-1.464c0.944-0.944,1.464-2.199,1.464-3.535
		s-0.52-2.592-1.464-3.536C35.075,31.42,33.82,30.9,32.484,30.9z M34.606,38.02c-1.132,1.133-3.109,1.134-4.242,0
		c-0.566-0.566-0.878-1.319-0.878-2.12c0-0.802,0.312-1.556,0.879-2.123c0.566-0.565,1.318-0.877,2.12-0.877
		s1.555,0.312,2.121,0.877c0.567,0.566,0.879,1.32,0.879,2.122S35.173,37.454,34.606,38.02z"/>
	<path fill="#231F20" d="M17.636,11.15c-0.755,0.755-1.172,1.759-1.172,2.828c0,1.069,0.416,2.074,1.172,2.829
		c0.755,0.755,1.759,1.171,2.828,1.171c1.068,0,2.073-0.416,2.827-1.171c0.756-0.756,1.172-1.761,1.172-2.83
		c0-1.068-0.417-2.072-1.172-2.827C21.781,9.639,19.147,9.639,17.636,11.15z M21.878,15.393c-0.755,0.755-2.073,0.755-2.828,0
		c-0.378-0.378-0.586-0.881-0.586-1.415c0-0.534,0.208-1.036,0.586-1.413c0.378-0.378,0.88-0.586,1.414-0.586
		s1.036,0.207,1.414,0.586c0.378,0.377,0.586,0.879,0.586,1.413C22.465,14.513,22.256,15.015,21.878,15.393z"/>
</g>
</svg>
