<?xml version="1.0" encoding="utf-8"?>
<!-- Generator: Adobe Illustrator 17.0.0, SVG Export Plug-In . SVG Version: 6.00 Build 0)  -->
<!DOCTYPE svg PUBLIC "-//W3C//DTD SVG 1.1//EN" "http://www.w3.org/Graphics/SVG/1.1/DTD/svg11.dtd">
<svg version="1.1" id="Layer_1" xmlns="http://www.w3.org/2000/svg" xmlns:xlink="http://www.w3.org/1999/xlink" x="0px" y="0px"
	 width="48px" height="48px" viewBox="0 0 48 48" enable-background="new 0 0 48 48" xml:space="preserve">
<path fill="#231F20" d="M38.85,21.386L31.144,8.948l3.751-7.501c0.155-0.31,0.138-0.678-0.044-0.973C34.668,0.18,34.347,0,34,0H11
	c-0.364,0-0.698,0.197-0.874,0.515C9.949,0.833,9.96,1.222,10.152,1.53l4.67,7.472L7.15,21.386c-0.179,0.29-0.199,0.651-0.051,0.959
	l12,25c0.166,0.346,0.516,0.567,0.901,0.567h6c0.385,0,0.735-0.221,0.901-0.567l12-25C39.049,22.038,39.03,21.676,38.85,21.386z
	 M32.382,2l-3,6H16.554l-3.75-6H32.382z M23,23.912c-1.654,0-3-1.346-3-3s1.346-3,3-3s3,1.346,3,3S24.654,23.912,23,23.912z
	 M25.37,45.912H24V25.811c2.279-0.465,4-2.484,4-4.899c0-2.757-2.243-5-5-5s-5,2.243-5,5c0,2.415,1.721,4.434,4,4.899v20.101h-1.371
	L9.139,21.974L16.557,10h12.886l7.418,11.973L25.37,45.912z"/>
</svg>
