<?xml version="1.0" encoding="utf-8"?>
<!-- Generator: Adobe Illustrator 17.0.0, SVG Export Plug-In . SVG Version: 6.00 Build 0)  -->
<!DOCTYPE svg PUBLIC "-//W3C//DTD SVG 1.1//EN" "http://www.w3.org/Graphics/SVG/1.1/DTD/svg11.dtd">
<svg version="1.1" id="Layer_1" xmlns="http://www.w3.org/2000/svg" xmlns:xlink="http://www.w3.org/1999/xlink" x="0px" y="0px"
	 width="48px" height="48px" viewBox="0 0 48 48" enable-background="new 0 0 48 48" xml:space="preserve">
<path fill="#231F20" d="M46.763,1.35c-0.175-0.187-0.411-0.293-0.662-0.311c-0.145-0.017-0.29-0.008-0.43,0.038
	c-1.374,0.224-9.205,1.596-17.056,5.039c-0.365,0.16-0.599,0.519-0.599,0.916c0,1.872-1.037,3.8-2.016,5.202V9.032
	c0-0.343-0.176-0.662-0.465-0.845c-0.289-0.184-0.653-0.205-0.964-0.058c-2.795,1.328-4.9,2.834-7.262,5.196
	c-5.553,5.552-7.448,10.513-8.059,13.698c-0.67,3.49-0.124,6.709,1.456,8.857L0.293,46.293c-0.391,0.391-0.391,1.023,0,1.414
	C0.488,47.902,0.744,48,1,48s0.512-0.098,0.707-0.293l10.401-10.401c1.396,1.071,3.166,1.638,5.186,1.638
	c4.237-0.001,9.258-2.503,14.304-7.079c0.09-0.046,0.18-0.094,0.255-0.17c0.048-0.048,0.072-0.108,0.108-0.163
	c0.448-0.415,0.895-0.84,1.343-1.287c0.394-0.394,0.775-0.807,1.151-1.228c0.079-0.044,0.16-0.084,0.227-0.151
	c0.107-0.106,0.178-0.232,0.227-0.365c8.325-9.748,11.94-25.542,12.098-26.25C47.079,1.929,46.988,1.592,46.763,1.35z M11.214,27.4
	c0.56-2.91,2.316-7.468,7.509-12.661c1.765-1.765,3.371-3.012,5.277-4.07v4.363c0,0.404,0.243,0.768,0.617,0.924
	c0.371,0.155,0.802,0.07,1.09-0.215c0.167-0.167,3.895-3.926,4.278-8.038c4.911-2.089,9.84-3.368,12.949-4.051L12.145,34.441
	C11.03,32.742,10.675,30.205,11.214,27.4z M17.294,36.944c-1.462,0-2.731-0.379-3.746-1.078L44.123,5.291
	c-1.494,5.079-4.832,14.635-10.271,21.331l-3.412-3.413c-0.391-0.391-1.023-0.391-1.414,0s-0.391,1.023,0,1.414l3.51,3.511
	c-0.216,0.232-0.425,0.475-0.646,0.697c-0.252,0.251-0.503,0.492-0.754,0.733l-3.525-3.526c-0.391-0.391-1.023-0.391-1.414,0
	c-0.391,0.39-0.391,1.023,0,1.414l3.463,3.464C25.202,34.819,20.88,36.944,17.294,36.944L17.294,36.944z"/>
</svg>
