<?xml version="1.0" encoding="utf-8"?>
<!-- Generator: Adobe Illustrator 17.0.0, SVG Export Plug-In . SVG Version: 6.00 Build 0)  -->
<!DOCTYPE svg PUBLIC "-//W3C//DTD SVG 1.1//EN" "http://www.w3.org/Graphics/SVG/1.1/DTD/svg11.dtd">
<svg version="1.1" id="Layer_1" xmlns="http://www.w3.org/2000/svg" xmlns:xlink="http://www.w3.org/1999/xlink" x="0px" y="0px"
	 width="48px" height="48px" viewBox="0 0 48 48" enable-background="new 0 0 48 48" xml:space="preserve">
<g>
	<path fill="#231F20" d="M23,16c-0.552,0-1,0.448-1,1v30c0,0.552,0.448,1,1,1s1-0.448,1-1V17C24,16.448,23.552,16,23,16z"/>
	<path fill="#231F20" d="M1.707,16.293c-0.287-0.287-0.717-0.372-1.09-0.217C0.244,16.231,0,16.596,0,17v28
		c0,0.404,0.244,0.769,0.617,0.924C0.741,45.975,0.871,46,1,46c0.26,0,0.516-0.102,0.707-0.293l14-14
		c0.391-0.391,0.391-1.023,0-1.414L1.707,16.293z M2,42.586V19.414L13.586,31L2,42.586z"/>
	<path fill="#231F20" d="M45.383,16.076c-0.376-0.155-0.804-0.07-1.09,0.217l-14,14c-0.391,0.391-0.391,1.023,0,1.414l14,14
		C44.484,45.898,44.74,46,45,46c0.129,0,0.259-0.025,0.383-0.076C45.756,45.769,46,45.404,46,45V17
		C46,16.596,45.756,16.231,45.383,16.076z M44,42.586L32.414,31L44,19.414V42.586z"/>
	<path fill="#231F20" d="M33.518,13.859c0.04,0.023,0.074,0.051,0.117,0.067C33.752,13.972,33.874,14,34,14
		c0.048,0,0.096-0.003,0.144-0.009c0.043-0.006,0.078-0.033,0.12-0.044c0.068-0.019,0.133-0.04,0.195-0.072
		c0.055-0.029,0.103-0.064,0.152-0.103c0.057-0.045,0.107-0.093,0.154-0.15c0.02-0.025,0.05-0.039,0.068-0.066l4-6
		c0.306-0.46,0.183-1.081-0.277-1.387c-0.46-0.307-1.081-0.183-1.387,0.277l-2.486,3.729C33.387,4.362,28.197,0,22,0
		C14.831,0,9,5.832,9,13c0,0.552,0.448,1,1,1s1-0.448,1-1c0-6.065,4.935-11,11-11c5.258,0,9.661,3.711,10.741,8.65L28.64,7.232
		c-0.425-0.353-1.054-0.296-1.408,0.128s-0.296,1.054,0.128,1.408l6,5C33.407,13.808,33.465,13.829,33.518,13.859z"/>
</g>
</svg>
