<?xml version="1.0" encoding="utf-8"?>
<!-- Generator: Adobe Illustrator 17.0.0, SVG Export Plug-In . SVG Version: 6.00 Build 0)  -->
<!DOCTYPE svg PUBLIC "-//W3C//DTD SVG 1.1//EN" "http://www.w3.org/Graphics/SVG/1.1/DTD/svg11.dtd">
<svg version="1.1" id="Layer_1" xmlns="http://www.w3.org/2000/svg" xmlns:xlink="http://www.w3.org/1999/xlink" x="0px" y="0px"
	 width="48px" height="48px" viewBox="0 0 48 48" enable-background="new 0 0 48 48" xml:space="preserve">
<path fill="#231F20" d="M39,6h-1V1c0-0.552-0.447-1-1-1H7C6.447,0,6,0.448,6,1v5H5C3.346,6,2,7.346,2,9v8c0,1.654,1.346,3,3,3h16
	c0.552,0,1,0.449,1,1v5c0,0.011,0.006,0.02,0.006,0.03C20.141,26.435,18,27.883,18,29.912v15C18,46.797,20.836,48,22.318,48h2
	C25.986,48,28,46.623,28,44.912v-15c0-2.029-2.141-3.477-4.006-3.882C23.994,26.02,24,26.011,24,26v-5c0-1.654-1.346-3-3-3H5
	c-0.552,0-1-0.449-1-1V9c0-0.551,0.448-1,1-1h1v5c0,0.552,0.447,1,1,1h30c0.553,0,1-0.448,1-1V8h1c0.553,0,1-0.448,1-1
	S39.553,6,39,6z M26,29.912v15C26,45.306,25.028,46,24.318,46h-2c-0.794,0-2.202-0.734-2.318-1.088v-15c0-0.966,1.761-2,3-2
	S26,28.946,26,29.912z M36,12H8V2h28V12z"/>
</svg>
