<?xml version="1.0" encoding="utf-8"?>
<!-- Generator: Adobe Illustrator 17.0.0, SVG Export Plug-In . SVG Version: 6.00 Build 0)  -->
<!DOCTYPE svg PUBLIC "-//W3C//DTD SVG 1.1//EN" "http://www.w3.org/Graphics/SVG/1.1/DTD/svg11.dtd">
<svg version="1.1" id="Layer_1" xmlns="http://www.w3.org/2000/svg" xmlns:xlink="http://www.w3.org/1999/xlink" x="0px" y="0px"
	 width="48px" height="48px" viewBox="0 0 48 48" enable-background="new 0 0 48 48" xml:space="preserve">
<g>
	<path fill="#231F20" d="M47.599,46.183L1.707,0.292c-0.286-0.286-0.716-0.37-1.09-0.217C0.243,0.23,0,0.594,0,0.999v46
		c0,0.552,0.447,1,1,1h46c0.007,0,0.015,0,0.019,0c0.553,0,1-0.448,1.001-1C48.02,46.662,47.854,46.364,47.599,46.183z M2,45.999
		V3.413l5.586,5.586l-1.293,1.293c-0.391,0.391-0.391,1.023,0,1.414C6.488,11.901,6.744,11.999,7,11.999s0.512-0.098,0.707-0.293
		L9,10.413l3.586,3.586l-1.293,1.293c-0.391,0.391-0.391,1.023,0,1.414c0.195,0.195,0.451,0.293,0.707,0.293
		s0.512-0.098,0.707-0.293L14,15.413l3.586,3.586l-1.293,1.293c-0.391,0.39-0.391,1.023,0,1.414
		c0.195,0.195,0.451,0.293,0.707,0.293s0.512-0.098,0.707-0.293L19,20.413l3.586,3.586l-1.293,1.293
		c-0.391,0.39-0.391,1.023,0,1.414c0.195,0.195,0.451,0.293,0.707,0.293s0.512-0.098,0.707-0.293L24,25.413l3.586,3.586
		l-1.293,1.293c-0.391,0.39-0.391,1.023,0,1.414c0.195,0.195,0.451,0.293,0.707,0.293s0.512-0.098,0.707-0.293L29,30.413
		l3.586,3.586l-1.293,1.293c-0.391,0.391-0.391,1.023,0,1.414c0.195,0.195,0.451,0.293,0.707,0.293s0.512-0.098,0.707-0.293
		L34,35.413l3.586,3.586l-1.293,1.293c-0.391,0.391-0.391,1.023,0,1.414c0.195,0.195,0.451,0.293,0.707,0.293
		s0.512-0.098,0.707-0.293L39,40.413l5.586,5.586H2z"/>
	<path fill="#231F20" d="M7.707,19.292c-0.286-0.286-0.715-0.371-1.09-0.217C6.243,19.23,6,19.595,6,19.999v21c0,0.552,0.447,1,1,1
		h21c0.404,0,0.769-0.244,0.924-0.617c0.155-0.374,0.069-0.804-0.217-1.09L7.707,19.292z M8,39.999V22.413l17.586,17.586H8z"/>
</g>
</svg>
