<?xml version="1.0" encoding="utf-8"?>
<!-- Generator: Adobe Illustrator 17.0.0, SVG Export Plug-In . SVG Version: 6.00 Build 0)  -->
<!DOCTYPE svg PUBLIC "-//W3C//DTD SVG 1.1//EN" "http://www.w3.org/Graphics/SVG/1.1/DTD/svg11.dtd">
<svg version="1.1" id="Layer_1" xmlns="http://www.w3.org/2000/svg" xmlns:xlink="http://www.w3.org/1999/xlink" x="0px" y="0px"
	 width="48px" height="48px" viewBox="0 0 48 48" enable-background="new 0 0 48 48" xml:space="preserve">
<path fill="#231F20" d="M47.707,11.293l-11-11.001c-0.375-0.375-1.039-0.375-1.414,0l-15.47,15.47c0,0-0.001,0-0.001,0.001
	s0,0.001-0.001,0.001L7.324,28.261c-0.001,0.001-0.002,0.001-0.002,0.002s-0.001,0.002-0.002,0.002l-7.027,7.028
	c-0.391,0.391-0.391,1.023,0,1.414l11,11C11.48,47.895,11.734,48,12,48s0.519-0.105,0.707-0.293l35-35
	C48.098,12.316,48.098,11.684,47.707,11.293z M12,45.586L2.414,36l5.615-5.616l4.293,4.293c0.195,0.195,0.451,0.293,0.707,0.293
	s0.512-0.098,0.707-0.293c0.391-0.391,0.391-1.023,0-1.414L9.443,28.97l2.592-2.592l3.323,3.273
	c0.195,0.192,0.448,0.288,0.702,0.288c0.258,0,0.516-0.1,0.712-0.299c0.387-0.394,0.384-1.026-0.01-1.414l-3.312-3.263l3.065-3.065
	l4.293,4.293c0.195,0.195,0.451,0.293,0.707,0.293c0.255,0,0.511-0.098,0.707-0.293c0.391-0.391,0.391-1.023,0-1.414l-4.293-4.293
	l2.6-2.601l2.793,2.793c0.195,0.195,0.451,0.293,0.707,0.293s0.512-0.098,0.707-0.293c0.391-0.391,0.391-1.023,0-1.414l-2.793-2.793
	L25,13.414l4.293,4.293C29.488,17.902,29.744,18,30,18s0.512-0.098,0.707-0.293c0.391-0.391,0.391-1.023,0-1.414L26.414,12
	l2.591-2.591l3.322,3.274c0.195,0.192,0.448,0.288,0.702,0.288c0.259,0,0.517-0.1,0.712-0.299c0.387-0.393,0.384-1.026-0.01-1.414
	l-3.312-3.263L36,2.413L45.586,12L12,45.586z"/>
</svg>
