<?xml version="1.0" encoding="utf-8"?>
<!-- Generator: Adobe Illustrator 17.0.0, SVG Export Plug-In . SVG Version: 6.00 Build 0)  -->
<!DOCTYPE svg PUBLIC "-//W3C//DTD SVG 1.1//EN" "http://www.w3.org/Graphics/SVG/1.1/DTD/svg11.dtd">
<svg version="1.1" id="Layer_1" xmlns="http://www.w3.org/2000/svg" xmlns:xlink="http://www.w3.org/1999/xlink" x="0px" y="0px"
	 width="48px" height="48px" viewBox="0 0 48 48" enable-background="new 0 0 48 48" xml:space="preserve">
<g>
	<path fill="#231F20" d="M23,13c-0.553,0-1,0.448-1,1v18c0,0.552,0.447,1,1,1s1-0.448,1-1V14C24,13.448,23.553,13,23,13z"/>
	<path fill="#231F20" d="M47.923,23.382c0.101-0.245,0.101-0.52,0-0.764c-0.051-0.123-0.124-0.233-0.217-0.326l-5.999-5.999
		c-0.391-0.391-1.023-0.391-1.414,0c-0.391,0.391-0.391,1.023,0,1.414L44.586,22H29c-0.553,0-1,0.448-1,1s0.447,1,1,1h15.586
		l-4.293,4.293c-0.391,0.391-0.391,1.023,0,1.414C40.488,29.902,40.744,30,41,30s0.512-0.098,0.707-0.293l5.999-5.999
		C47.799,23.615,47.872,23.505,47.923,23.382z"/>
	<path fill="#231F20" d="M17,22H3.414l4.293-4.293c0.391-0.391,0.391-1.023,0-1.414c-0.391-0.391-1.023-0.391-1.414,0l-5.999,5.999
		c-0.093,0.092-0.166,0.203-0.217,0.326c-0.101,0.245-0.101,0.52,0,0.764c0.051,0.123,0.124,0.233,0.217,0.326l5.999,5.999
		C6.488,29.902,6.744,30,7,30s0.512-0.098,0.707-0.293c0.391-0.391,0.391-1.023,0-1.414L3.414,24H17c0.553,0,1-0.448,1-1
		S17.553,22,17,22z"/>
</g>
</svg>
