<?xml version="1.0" encoding="utf-8"?>
<!-- Generator: Adobe Illustrator 17.0.0, SVG Export Plug-In . SVG Version: 6.00 Build 0)  -->
<!DOCTYPE svg PUBLIC "-//W3C//DTD SVG 1.1//EN" "http://www.w3.org/Graphics/SVG/1.1/DTD/svg11.dtd">
<svg version="1.1" id="Layer_1" xmlns="http://www.w3.org/2000/svg" xmlns:xlink="http://www.w3.org/1999/xlink" x="0px" y="0px"
	 width="48px" height="48px" viewBox="0 0 48 48" enable-background="new 0 0 48 48" xml:space="preserve">
<g>
	<path fill="#231F20" d="M18.707,16.293c-0.391-0.391-1.023-0.391-1.414,0c-0.391,0.391-0.391,1.023,0,1.414l13,13
		C30.488,30.902,30.744,31,31,31s0.512-0.098,0.707-0.293c0.391-0.391,0.391-1.023,0-1.414L18.707,16.293z"/>
	<path fill="#231F20" d="M17.293,29.293L2,44.586V39c0-0.552-0.447-1-1-1s-1,0.448-1,1v7.999c0,0.131,0.026,0.261,0.077,0.383
		c0.101,0.245,0.296,0.439,0.541,0.541C0.74,47.973,0.87,48,1,48h8c0.553,0,1-0.448,1-1s-0.447-1-1-1H3.414l15.293-15.293
		c0.391-0.391,0.391-1.023,0-1.414C18.316,28.902,17.684,28.902,17.293,29.293z"/>
	<path fill="#231F20" d="M47.923,0.618c-0.101-0.244-0.296-0.439-0.541-0.541C47.26,0.026,47.129,0,46.999,0H39
		c-0.553,0-1,0.448-1,1s0.447,1,1,1h5.586L30.293,16.293c-0.391,0.391-0.391,1.023,0,1.414C30.488,17.902,30.744,18,31,18
		s0.512-0.098,0.707-0.293L46,3.414V9c0,0.552,0.447,1,1,1s1-0.448,1-1V1.002C48,0.871,47.974,0.741,47.923,0.618z"/>
</g>
</svg>
