<?xml version="1.0" encoding="utf-8"?>
<!-- Generator: Adobe Illustrator 17.0.0, SVG Export Plug-In . SVG Version: 6.00 Build 0)  -->
<!DOCTYPE svg PUBLIC "-//W3C//DTD SVG 1.1//EN" "http://www.w3.org/Graphics/SVG/1.1/DTD/svg11.dtd">
<svg version="1.1" id="Layer_1" xmlns="http://www.w3.org/2000/svg" xmlns:xlink="http://www.w3.org/1999/xlink" x="0px" y="0px"
	 width="48px" height="48px" viewBox="0 0 48 48" enable-background="new 0 0 48 48" xml:space="preserve">
<g>
	<path fill="#010101" d="M47,0H7C6.448,0,6,0.448,6,1v26c0,0.552,0.448,1,1,1h2c0.552,0,1-0.448,1-1s-0.448-1-1-1H8V2h38v38H22v-1
		c0-0.552-0.448-1-1-1s-1,0.448-1,1v2c0,0.552,0.448,1,1,1h26c0.552,0,1-0.448,1-1V1C48,0.448,47.552,0,47,0z"/>
	<path fill="#010101" d="M25,12c-0.552,0-1,0.448-1,1v9.999c0,0.131,0.026,0.261,0.077,0.384c0.101,0.244,0.296,0.439,0.541,0.54
		C24.74,23.973,24.87,24,25,24h10c0.552,0,1-0.448,1-1s-0.448-1-1-1h-7.586L41.707,7.707c0.391-0.391,0.391-1.023,0-1.414
		c-0.391-0.391-1.023-0.391-1.414,0L26,20.586V13C26,12.448,25.552,12,25,12z"/>
	<path fill="#010101" d="M3,26H1c-0.552,0-1,0.448-1,1v2c0,0.552,0.448,1,1,1s1-0.448,1-1v-1h1c0.552,0,1-0.448,1-1S3.552,26,3,26z"
		/>
	<path fill="#010101" d="M1,36c0.552,0,1-0.448,1-1v-2c0-0.552-0.448-1-1-1s-1,0.448-1,1v2C0,35.552,0.448,36,1,36z"/>
	<path fill="#010101" d="M15,26h-2c-0.552,0-1,0.448-1,1s0.448,1,1,1h2c0.552,0,1-0.448,1-1S15.552,26,15,26z"/>
	<path fill="#010101" d="M9,46H7c-0.552,0-1,0.448-1,1s0.448,1,1,1h2c0.552,0,1-0.448,1-1S9.552,46,9,46z"/>
	<path fill="#010101" d="M15,46h-2c-0.552,0-1,0.448-1,1s0.448,1,1,1h2c0.552,0,1-0.448,1-1S15.552,46,15,46z"/>
	<path fill="#010101" d="M3,46H2v-1c0-0.552-0.448-1-1-1s-1,0.448-1,1v2c0,0.552,0.448,1,1,1h2c0.552,0,1-0.448,1-1S3.552,46,3,46z"
		/>
	<path fill="#010101" d="M1,42c0.552,0,1-0.448,1-1v-2c0-0.552-0.448-1-1-1s-1,0.448-1,1v2C0,41.552,0.448,42,1,42z"/>
	<path fill="#010101" d="M22,27c0-0.552-0.448-1-1-1h-2c-0.552,0-1,0.448-1,1s0.448,1,1,1h1v1c0,0.552,0.448,1,1,1s1-0.448,1-1V27z"
		/>
	<path fill="#010101" d="M21,32c-0.552,0-1,0.448-1,1v2c0,0.552,0.448,1,1,1s1-0.448,1-1v-2C22,32.448,21.552,32,21,32z"/>
	<path fill="#010101" d="M21,44c-0.552,0-1,0.448-1,1v1h-1c-0.552,0-1,0.448-1,1s0.448,1,1,1h2c0.552,0,1-0.448,1-1v-2
		C22,44.448,21.552,44,21,44z"/>
</g>
</svg>
