<?xml version="1.0" encoding="utf-8"?>
<!-- Generator: Adobe Illustrator 17.0.0, SVG Export Plug-In . SVG Version: 6.00 Build 0)  -->
<!DOCTYPE svg PUBLIC "-//W3C//DTD SVG 1.1//EN" "http://www.w3.org/Graphics/SVG/1.1/DTD/svg11.dtd">
<svg version="1.1" id="Layer_1" xmlns="http://www.w3.org/2000/svg" xmlns:xlink="http://www.w3.org/1999/xlink" x="0px" y="0px"
	 width="48px" height="48px" viewBox="0 0 48 48" enable-background="new 0 0 48 48" xml:space="preserve">
<g>
	<path fill="#231F20" d="M33,24H14c-0.553,0-1,0.448-1,1s0.447,1,1,1h19c0.553,0,1-0.448,1-1S33.553,24,33,24z"/>
	<path fill="#231F20" d="M28.293,40.293L24,44.586V31c0-0.552-0.447-1-1-1s-1,0.448-1,1v13.586l-4.293-4.293
		c-0.391-0.391-1.023-0.391-1.414,0c-0.391,0.391-0.391,1.023,0,1.414l5.999,5.999c0.092,0.093,0.203,0.166,0.326,0.217
		C22.74,47.973,22.87,48,23,48c0.13,0,0.26-0.026,0.382-0.077c0.123-0.051,0.234-0.124,0.326-0.217l5.999-5.999
		c0.391-0.391,0.391-1.023,0-1.414C29.316,39.902,28.684,39.902,28.293,40.293z"/>
	<path fill="#231F20" d="M17.707,7.707L22,3.414V17c0,0.552,0.447,1,1,1s1-0.448,1-1V3.414l4.293,4.293C28.488,7.902,28.744,8,29,8
		s0.512-0.098,0.707-0.293c0.391-0.391,0.391-1.023,0-1.414l-5.999-5.999c-0.092-0.093-0.203-0.166-0.326-0.217
		c-0.245-0.101-0.52-0.101-0.765,0c-0.123,0.051-0.234,0.124-0.326,0.217l-5.999,5.999c-0.391,0.391-0.391,1.023,0,1.414
		C16.684,8.098,17.316,8.098,17.707,7.707z"/>
</g>
</svg>
