<?xml version="1.0" encoding="utf-8"?>
<!-- Generator: Adobe Illustrator 17.0.0, SVG Export Plug-In . SVG Version: 6.00 Build 0)  -->
<!DOCTYPE svg PUBLIC "-//W3C//DTD SVG 1.1//EN" "http://www.w3.org/Graphics/SVG/1.1/DTD/svg11.dtd">
<svg version="1.1" id="Layer_1" xmlns="http://www.w3.org/2000/svg" xmlns:xlink="http://www.w3.org/1999/xlink" x="0px" y="0px"
	 width="48px" height="48px" viewBox="0 0 48 48" enable-background="new 0 0 48 48" xml:space="preserve">
<g>
	<path fill="#010101" d="M41.923,6.618c-0.101-0.244-0.296-0.439-0.54-0.54C41.26,6.026,41.129,6,40.999,6H31c-0.552,0-1,0.448-1,1
		s0.448,1,1,1h7.586L24.293,22.293c-0.391,0.391-0.391,1.023,0,1.414C24.488,23.902,24.744,24,25,24s0.512-0.098,0.707-0.293
		L40,9.414V17c0,0.552,0.448,1,1,1s1-0.448,1-1V7.002C42,6.871,41.974,6.74,41.923,6.618z"/>
	<path fill="#010101" d="M9,4c0.552,0,1-0.448,1-1V2h1c0.552,0,1-0.448,1-1s-0.448-1-1-1H9C8.448,0,8,0.448,8,1v2
		C8,3.552,8.448,4,9,4z"/>
	<path fill="#010101" d="M47,0h-2c-0.552,0-1,0.448-1,1s0.448,1,1,1h1v1c0,0.552,0.448,1,1,1s1-0.448,1-1V1C48,0.448,47.552,0,47,0z
		"/>
	<path fill="#010101" d="M9,10c0.552,0,1-0.448,1-1V7c0-0.552-0.448-1-1-1S8,6.448,8,7v2C8,9.552,8.448,10,9,10z"/>
	<path fill="#010101" d="M15,2h2c0.552,0,1-0.448,1-1s-0.448-1-1-1h-2c-0.552,0-1,0.448-1,1S14.448,2,15,2z"/>
	<path fill="#010101" d="M21,2h2c0.552,0,1-0.448,1-1s-0.448-1-1-1h-2c-0.552,0-1,0.448-1,1S20.448,2,21,2z"/>
	<path fill="#010101" d="M27,2h2c0.552,0,1-0.448,1-1s-0.448-1-1-1h-2c-0.552,0-1,0.448-1,1S26.448,2,27,2z"/>
	<path fill="#010101" d="M33,2h2c0.552,0,1-0.448,1-1s-0.448-1-1-1h-2c-0.552,0-1,0.448-1,1S32.448,2,33,2z"/>
	<path fill="#010101" d="M39,2h2c0.552,0,1-0.448,1-1s-0.448-1-1-1h-2c-0.552,0-1,0.448-1,1S38.448,2,39,2z"/>
	<path fill="#010101" d="M23,38h-1V27c0-0.552-0.448-1-1-1H10v-1c0-0.552-0.448-1-1-1s-1,0.448-1,1v1H1c-0.552,0-1,0.448-1,1v20
		c0,0.552,0.448,1,1,1h20c0.552,0,1-0.448,1-1v-7h1c0.552,0,1-0.448,1-1S23.552,38,23,38z M20,46H2V28h18V46z"/>
	<path fill="#010101" d="M29,38h-2c-0.552,0-1,0.448-1,1s0.448,1,1,1h2c0.552,0,1-0.448,1-1S29.552,38,29,38z"/>
	<path fill="#010101" d="M35,38h-2c-0.552,0-1,0.448-1,1s0.448,1,1,1h2c0.552,0,1-0.448,1-1S35.552,38,35,38z"/>
	<path fill="#010101" d="M41,38h-2c-0.552,0-1,0.448-1,1s0.448,1,1,1h2c0.552,0,1-0.448,1-1S41.552,38,41,38z"/>
	<path fill="#010101" d="M47,36c-0.552,0-1,0.448-1,1v1h-1c-0.552,0-1,0.448-1,1s0.448,1,1,1h2c0.552,0,1-0.448,1-1v-2
		C48,36.448,47.552,36,47,36z"/>
	<path fill="#010101" d="M47,30c-0.552,0-1,0.448-1,1v2c0,0.552,0.448,1,1,1s1-0.448,1-1v-2C48,30.448,47.552,30,47,30z"/>
	<path fill="#010101" d="M47,24c-0.552,0-1,0.448-1,1v2c0,0.552,0.448,1,1,1s1-0.448,1-1v-2C48,24.448,47.552,24,47,24z"/>
	<path fill="#010101" d="M47,18c-0.552,0-1,0.448-1,1v2c0,0.552,0.448,1,1,1s1-0.448,1-1v-2C48,18.448,47.552,18,47,18z"/>
	<path fill="#010101" d="M47,12c-0.552,0-1,0.448-1,1v2c0,0.552,0.448,1,1,1s1-0.448,1-1v-2C48,12.448,47.552,12,47,12z"/>
	<path fill="#010101" d="M9,22c0.552,0,1-0.448,1-1v-2c0-0.552-0.448-1-1-1s-1,0.448-1,1v2C8,21.552,8.448,22,9,22z"/>
	<path fill="#010101" d="M9,16c0.552,0,1-0.448,1-1v-2c0-0.552-0.448-1-1-1s-1,0.448-1,1v2C8,15.552,8.448,16,9,16z"/>
	<path fill="#010101" d="M47,6c-0.552,0-1,0.448-1,1v2c0,0.552,0.448,1,1,1s1-0.448,1-1V7C48,6.448,47.552,6,47,6z"/>
</g>
</svg>
