<?xml version="1.0" encoding="utf-8"?>
<!-- Generator: Adobe Illustrator 17.0.0, SVG Export Plug-In . SVG Version: 6.00 Build 0)  -->
<!DOCTYPE svg PUBLIC "-//W3C//DTD SVG 1.1//EN" "http://www.w3.org/Graphics/SVG/1.1/DTD/svg11.dtd">
<svg version="1.1" id="Layer_1" xmlns="http://www.w3.org/2000/svg" xmlns:xlink="http://www.w3.org/1999/xlink" x="0px" y="0px"
	 width="48px" height="48px" viewBox="0 0 48 48" enable-background="new 0 0 48 48" xml:space="preserve">
<g>
	<path fill="#010101" d="M47.897,20.558C47.728,20.216,47.381,20,47,20H27h-2h-4h-2c-0.553,0-1,0.448-1,1
		c0,0.542,0.433,0.979,0.973,0.995L1.76,44.371C1.577,44.15,1.31,44,1,44c-0.553,0-1,0.448-1,1v2c0,0.017,0.009,0.032,0.01,0.049
		c0.005,0.099,0.024,0.196,0.059,0.291c0.008,0.022,0.012,0.045,0.022,0.067c0.005,0.011,0.006,0.024,0.011,0.035
		c0.047,0.095,0.11,0.177,0.181,0.25c0.015,0.016,0.034,0.027,0.05,0.042c0.07,0.063,0.147,0.115,0.232,0.156
		c0.029,0.014,0.057,0.028,0.088,0.039C0.763,47.971,0.878,48,1,48h2h22h2c0.15,0,0.289-0.038,0.417-0.097
		c0.038-0.017,0.066-0.047,0.102-0.069c0.086-0.053,0.164-0.112,0.229-0.188c0.013-0.015,0.033-0.021,0.045-0.037l20-26
		C48.025,21.308,48.065,20.9,47.897,20.558z M27.76,44.371C27.577,44.15,27.31,44,27,44c-0.553,0-1,0.448-1,1v1h-1H3.031l18.461-24
		H25h1v1c0,0.552,0.447,1,1,1s1-0.448,1-1v-1h16.968L27.76,44.371z"/>
	<path fill="#010101" d="M11,12h23.586l-3.293,3.293c-0.391,0.391-0.391,1.023,0,1.414C31.488,16.902,31.744,17,32,17
		s0.512-0.098,0.707-0.293l4.999-4.999c0.093-0.092,0.166-0.203,0.217-0.326c0.101-0.245,0.101-0.52,0-0.764
		c-0.051-0.123-0.124-0.233-0.217-0.326l-4.999-4.999c-0.391-0.391-1.023-0.391-1.414,0c-0.391,0.391-0.391,1.023,0,1.414L34.586,10
		H11c-0.553,0-1,0.448-1,1S10.447,12,11,12z"/>
	<path fill="#010101" d="M1,24c0.553,0,1-0.448,1-1v-1h1c0.553,0,1-0.448,1-1s-0.447-1-1-1H1c-0.553,0-1,0.448-1,1v2
		C0,23.552,0.447,24,1,24z"/>
	<path fill="#010101" d="M1,30c0.553,0,1-0.448,1-1v-2c0-0.552-0.447-1-1-1s-1,0.448-1,1v2C0,29.552,0.447,30,1,30z"/>
	<path fill="#010101" d="M1,36c0.553,0,1-0.448,1-1v-2c0-0.552-0.447-1-1-1s-1,0.448-1,1v2C0,35.552,0.447,36,1,36z"/>
	<path fill="#010101" d="M1,42c0.553,0,1-0.448,1-1v-2c0-0.552-0.447-1-1-1s-1,0.448-1,1v2C0,41.552,0.447,42,1,42z"/>
	<path fill="#010101" d="M27,26c-0.553,0-1,0.448-1,1v2c0,0.552,0.447,1,1,1s1-0.448,1-1v-2C28,26.448,27.553,26,27,26z"/>
	<path fill="#010101" d="M27,32c-0.553,0-1,0.448-1,1v2c0,0.552,0.447,1,1,1s1-0.448,1-1v-2C28,32.448,27.553,32,27,32z"/>
	<path fill="#010101" d="M27,38c-0.553,0-1,0.448-1,1v2c0,0.552,0.447,1,1,1s1-0.448,1-1v-2C28,38.448,27.553,38,27,38z"/>
	<path fill="#010101" d="M7,22h2c0.553,0,1-0.448,1-1s-0.447-1-1-1H7c-0.553,0-1,0.448-1,1S6.447,22,7,22z"/>
	<path fill="#010101" d="M13,20c-0.553,0-1,0.448-1,1s0.447,1,1,1h2c0.553,0,1-0.448,1-1s-0.447-1-1-1H13z"/>
</g>
</svg>
