<?xml version="1.0" encoding="utf-8"?>
<!-- Generator: Adobe Illustrator 17.0.0, SVG Export Plug-In . SVG Version: 6.00 Build 0)  -->
<!DOCTYPE svg PUBLIC "-//W3C//DTD SVG 1.1//EN" "http://www.w3.org/Graphics/SVG/1.1/DTD/svg11.dtd">
<svg version="1.1" id="Layer_1" xmlns="http://www.w3.org/2000/svg" xmlns:xlink="http://www.w3.org/1999/xlink" x="0px" y="0px"
	 width="48px" height="48px" viewBox="0 0 48 48" enable-background="new 0 0 48 48" xml:space="preserve">
<path fill="#231F20" d="M43,31.933h-9.693c-6.569-4.573-3.55-11.233-1.119-16.598C33.201,13.101,34,11.337,34,9.933
	C34,3.412,28.968,0,23.997,0C19.029,0,14,3.412,14,9.933c0,1.411,0.803,3.178,1.819,5.415c2.434,5.355,5.456,12.003-1.127,16.585H5
	c-2.757,0-5,2.243-5,5v6c0,0.552,0.448,1,1,1h1v3c0,0.552,0.448,1,1,1h42c0.552,0,1-0.448,1-1v-3h1c0.552,0,1-0.448,1-1v-6
	C48,34.176,45.757,31.933,43,31.933z M44,45.933H4v-2h40V45.933z M46,41.933H2v-5c0-1.654,1.346-3,3-3h10.001
	c0.197,0,0.389-0.058,0.553-0.167c8.321-5.53,4.569-13.784,2.087-19.246C16.797,12.665,16,10.911,16,9.933
	C16,4.482,20.145,2,23.997,2C27.852,2,32,4.482,32,9.933c0,0.973-0.794,2.723-1.633,4.576c-2.479,5.471-6.226,13.739,2.08,19.257
	c0.164,0.109,0.356,0.167,0.553,0.167h10c1.654,0,3,1.346,3,3V41.933z"/>
</svg>
