<?xml version="1.0" encoding="utf-8"?>
<!-- Generator: Adobe Illustrator 17.0.0, SVG Export Plug-In . SVG Version: 6.00 Build 0)  -->
<!DOCTYPE svg PUBLIC "-//W3C//DTD SVG 1.1//EN" "http://www.w3.org/Graphics/SVG/1.1/DTD/svg11.dtd">
<svg version="1.1" id="Layer_1" xmlns="http://www.w3.org/2000/svg" xmlns:xlink="http://www.w3.org/1999/xlink" x="0px" y="0px"
	 width="48px" height="48px" viewBox="0 0 48 48" enable-background="new 0 0 48 48" xml:space="preserve">
<path fill="#231F20" d="M37,23.999h-1v-3c0-0.552-0.448-1-1-1h-0.557l2.494-6.65c0.015-0.04,0.01-0.08,0.019-0.12
	c2.008-0.294,3.516-2.086,3.824-4.67c0.391-3.279-1.252-7.307-5.783-8.404c-0.402-0.095-0.817,0.06-1.053,0.396
	c-0.236,0.336-0.243,0.782-0.018,1.125c1.056,1.611,0.419,2.564-0.709,3.987c-0.43,0.543-0.836,1.056-1.082,1.639
	c-0.469,1.112-0.494,2.281-0.07,3.292c0.198,0.472,0.497,0.897,0.867,1.268l-4.521,8.138H28v-19c0-0.552-0.448-1-1-1h-8
	c-0.552,0-1,0.448-1,1v19h-0.411l-4.715-8.486c-0.015-0.028-0.038-0.049-0.055-0.075c-0.008-0.012-0.01-0.027-0.019-0.039
	c-0.008-0.011-0.021-0.016-0.03-0.027c-0.073-0.09-0.155-0.171-0.255-0.231l-5-3C7.181,7.942,6.76,7.953,6.437,8.172
	C6.115,8.392,5.95,8.778,6.013,9.163l1,6c0.003,0.015,0.011,0.029,0.014,0.044c0.007,0.032,0.02,0.061,0.03,0.093
	c0.016,0.049,0.025,0.1,0.047,0.146l2.277,4.553H9c-0.552,0-1,0.448-1,1v22c0,2.757,2.243,5,5,5h18c2.757,0,5-2.244,5-5v-5h1
	c3.86,0,7-3.141,7-7C44,27.139,40.86,23.999,37,23.999z M33.978,8.078c0.14-0.331,0.464-0.74,0.808-1.174
	c0.76-0.96,1.794-2.264,1.679-3.963c1.876,1.278,2.554,3.496,2.331,5.381c-0.164,1.368-0.895,2.967-2.417,2.967
	c-0.358,0-0.75-0.089-1.164-0.263c-0.636-0.268-1.087-0.685-1.305-1.206C33.692,9.302,33.716,8.7,33.978,8.078z M34.627,12.93
	c0.099,0.038,0.197,0.063,0.296,0.095l-2.615,6.975H30.7L34.627,12.93z M20,1.999h6v2h-3c-0.552,0-1,0.448-1,1s0.448,1,1,1h3v2h-1
	c-0.552,0-1,0.448-1,1s0.448,1,1,1h1v2h-3c-0.552,0-1,0.448-1,1s0.448,1,1,1h3v2h-1c-0.552,0-1,0.448-1,1s0.448,1,1,1h1v2h-6V1.999z
	 M10.21,12.091l-1.495,1.121L8.342,10.97L10.21,12.091z M9.267,15.299l2.415-1.812l3.617,6.512h-3.682L9.267,15.299z M34,42.999
	c0,1.654-1.346,3-3,3H13c-1.654,0-3-1.346-3-3v-21h1h6h0.02H19h8h7V42.999z M37,35.999h-1v-10h1c2.757,0,5,2.243,5,5
	C42,33.756,39.757,35.999,37,35.999z"/>
</svg>
