<?xml version="1.0" encoding="utf-8"?>
<!-- Generator: Adobe Illustrator 17.0.0, SVG Export Plug-In . SVG Version: 6.00 Build 0)  -->
<!DOCTYPE svg PUBLIC "-//W3C//DTD SVG 1.1//EN" "http://www.w3.org/Graphics/SVG/1.1/DTD/svg11.dtd">
<svg version="1.1" id="Layer_1" xmlns="http://www.w3.org/2000/svg" xmlns:xlink="http://www.w3.org/1999/xlink" x="0px" y="0px"
	 width="48px" height="48px" viewBox="0 0 48 48" enable-background="new 0 0 48 48" xml:space="preserve">
<g>
	<path fill="#231F20" d="M38,6.999c0-3.86-3.14-7-7-7H7c-3.86,0-7,3.14-7,7v26c0,0.552,0.448,1,1,1h5v13c0,0.552,0.448,1,1,1h24
		c0.552,0,1-0.448,1-1v-33.08C35.387,13.431,38,10.518,38,6.999z M2,31.999v-25c0-2.757,2.243-5,5-5s5,2.243,5,5
		c0,0.342-0.035,0.676-0.101,1H7c-0.552,0-1,0.448-1,1v4v19H2z M8,11.898V9.999h2.998C10.276,10.958,9.218,11.65,8,11.898z
		 M30,45.999H8v-32h22V45.999z M31,11.999H11.89c1.3-1.272,2.11-3.042,2.11-5s-0.81-3.728-2.11-5H31c2.757,0,5,2.243,5,5
		C36,9.756,33.757,11.999,31,11.999z"/>
	<path fill="#231F20" d="M19,21.999h8c0.552,0,1-0.448,1-1s-0.448-1-1-1h-8c-0.552,0-1,0.448-1,1S18.448,21.999,19,21.999z"/>
	<path fill="#231F20" d="M19,29.999h8c0.552,0,1-0.448,1-1s-0.448-1-1-1h-8c-0.552,0-1,0.448-1,1S18.448,29.999,19,29.999z"/>
	<path fill="#231F20" d="M19,37.999h8c0.552,0,1-0.448,1-1s-0.448-1-1-1h-8c-0.552,0-1,0.448-1,1S18.448,37.999,19,37.999z"/>
	<path fill="#231F20" d="M11.293,21.706c0.195,0.195,0.451,0.293,0.707,0.293s0.512-0.098,0.707-0.293l4-4
		c0.391-0.391,0.391-1.023,0-1.414c-0.391-0.391-1.023-0.391-1.414,0L12,19.585l-0.293-0.293c-0.391-0.391-1.023-0.391-1.414,0
		c-0.391,0.39-0.391,1.023,0,1.414L11.293,21.706z"/>
	<path fill="#231F20" d="M11.293,29.706c0.195,0.195,0.451,0.293,0.707,0.293s0.512-0.098,0.707-0.293l4-4
		c0.391-0.391,0.391-1.023,0-1.414c-0.391-0.391-1.023-0.391-1.414,0L12,27.585l-0.293-0.293c-0.391-0.391-1.023-0.391-1.414,0
		c-0.391,0.39-0.391,1.023,0,1.414L11.293,29.706z"/>
	<path fill="#231F20" d="M44,10.999c-1.474,0-2.75,0.81-3.444,2H40c-2.206,0-4,1.794-4,4v15c0,0.552,0.448,1,1,1s1-0.448,1-1v-15
		c0-1.103,0.897-2,2-2v29c0,2.206,1.794,4,4,4s4-1.795,4-4v-29C48,12.793,46.206,10.999,44,10.999z M42,29.999h4v12h-4V29.999z
		 M44,12.999c1.103,0,2,0.897,2,2v13h-4v-13C42,13.896,42.897,12.999,44,12.999z M44,45.999c-1.103,0-2-0.897-2-2h4
		C46,45.102,45.103,45.999,44,45.999z"/>
</g>
</svg>
