<?xml version="1.0" encoding="utf-8"?>
<!-- Generator: Adobe Illustrator 17.0.0, SVG Export Plug-In . SVG Version: 6.00 Build 0)  -->
<!DOCTYPE svg PUBLIC "-//W3C//DTD SVG 1.1//EN" "http://www.w3.org/Graphics/SVG/1.1/DTD/svg11.dtd">
<svg version="1.1" id="Layer_1" xmlns="http://www.w3.org/2000/svg" xmlns:xlink="http://www.w3.org/1999/xlink" x="0px" y="0px"
	 width="48px" height="48px" viewBox="0 0 48 48" enable-background="new 0 0 48 48" xml:space="preserve">
<g>
	<path fill="#231F20" d="M19.914,15.593l-4-9C15.753,6.232,15.395,5.999,15,5.999s-0.754,0.233-0.914,0.594l-4,9
		c-0.001,0.003-0.001,0.006-0.002,0.009C10.031,15.724,10,15.857,10,15.999v27c0,2.757,2.243,5,5,5s5-2.244,5-5v-27
		c0-0.142-0.031-0.275-0.084-0.397C19.915,15.599,19.915,15.596,19.914,15.593z M13.975,16.999v19H12v-19H13.975z M18,16.999v19
		h-1.975v-19H18z M12,37.999h2.881c0.041,0.005,0.077,0.024,0.119,0.024c0.042,0,0.078-0.019,0.119-0.024H18v2h-6V37.999z M15,9.461
		l2.461,5.538h-2.333c-0.044-0.006-0.083-0.026-0.129-0.026s-0.085,0.02-0.129,0.026h-2.333L15,9.461z M15,45.999
		c-1.654,0-3-1.346-3-3v-1h6v1C18,44.653,16.654,45.999,15,45.999z"/>
	<path fill="#231F20" d="M37-0.001H25c-0.552,0-1,0.448-1,1v46c0,0.552,0.448,1,1,1h12c0.552,0,1-0.448,1-1v-46
		C38,0.447,37.552-0.001,37-0.001z M36,45.999H26v-6h3c0.552,0,1-0.448,1-1s-0.448-1-1-1h-3v-6h3c0.552,0,1-0.448,1-1s-0.448-1-1-1
		h-3v-6h3c0.552,0,1-0.448,1-1s-0.448-1-1-1h-3v-6h3c0.552,0,1-0.448,1-1s-0.448-1-1-1h-3v-6h3c0.552,0,1-0.448,1-1s-0.448-1-1-1h-3
		v-4h10V45.999z"/>
</g>
</svg>
