<?xml version="1.0" encoding="utf-8"?>
<!-- Generator: Adobe Illustrator 17.1.0, SVG Export Plug-In . SVG Version: 6.00 Build 0)  -->
<!DOCTYPE svg PUBLIC "-//W3C//DTD SVG 1.0//EN" "http://www.w3.org/TR/2001/REC-SVG-20010904/DTD/svg10.dtd">
<svg version="1.0" id="Layer_1" xmlns="http://www.w3.org/2000/svg" xmlns:xlink="http://www.w3.org/1999/xlink" x="0px" y="0px"
	 width="48px" height="48px" viewBox="0 0 48 48" enable-background="new 0 0 48 48" xml:space="preserve">
<path d="M42,12v2h-7c-4.464,0-8.835,1.474-12.471,4.156c-0.035-0.066-0.069-0.134-0.108-0.198l8.691-8.891
	C31.929,9.649,32.922,10,34,10c2.757,0,5-2.243,5-5c0-2.757-2.243-5-5-5c-2.757,0-5,2.243-5,5c0,0.955,0.283,1.839,0.749,2.599
	l-8.754,8.955C20.406,16.211,19.73,16,19,16c-2.206,0-4,1.794-4,4c0,0.766,0.227,1.476,0.602,2.085l-7.665,7.889
	C7.11,29.369,6.101,29,5,29c-2.757,0-5,2.243-5,5c0,2.757,2.243,5,5,5c2.757,0,5-2.243,5-5c0-0.931-0.273-1.793-0.718-2.541
	l7.764-7.99c0.103,0.058,0.203,0.12,0.312,0.17C15.188,27.046,14,31.025,14,35v7h-2v6h6v-6h-2v-7c0-3.901,1.271-7.806,3.568-11.058
	c1.82-0.262,3.234-1.744,3.397-3.594C26.398,17.549,30.652,16,35,16h7v2h6v-6H42z M16,46h-2v-2h2V46z M34,2c1.654,0,3,1.346,3,3
	c0,1.654-1.346,3-3,3c-1.654,0-3-1.346-3-3C31,3.346,32.346,2,34,2z M5,37c-1.654,0-3-1.346-3-3c0-1.654,1.346-3,3-3
	c1.654,0,3,1.346,3,3C8,35.654,6.654,37,5,37z M19,22c-1.103,0-2-0.897-2-2c0-1.102,0.897-2,2-2c1.103,0,2,0.898,2,2
	C21,21.103,20.103,22,19,22z M46,16h-2v-2h2V16z"/>
</svg>
