<?xml version="1.0" encoding="utf-8"?>
<!-- Generator: Adobe Illustrator 17.0.0, SVG Export Plug-In . SVG Version: 6.00 Build 0)  -->
<!DOCTYPE svg PUBLIC "-//W3C//DTD SVG 1.1//EN" "http://www.w3.org/Graphics/SVG/1.1/DTD/svg11.dtd">
<svg version="1.1" id="Layer_2" xmlns="http://www.w3.org/2000/svg" xmlns:xlink="http://www.w3.org/1999/xlink" x="0px" y="0px"
	 width="60px" height="60px" viewBox="0 0 60 60" enable-background="new 0 0 60 60" xml:space="preserve">
<g>
	<path fill="#010101" d="M49,31c-1.294,0-2.532,0.236-3.686,0.649L41,16.857C41.002,15.546,41.068,15,43,15c2.504,0,4-2.034,4-4
		c0-1.939-1.402-4-4-4h-6c-0.553,0-1,0.447-1,1c0,0.553,0.447,1,1,1h6c1.468,0,2,1.196,2,2c0,0.804-0.532,2-2,2c-4,0-4,2.701-4,4
		c0,0.095,0.014,0.19,0.04,0.28l2.404,8.243c-1.659-0.399-4.338-0.888-7.526-0.888c-3.7,0-7.991,0.658-12.07,2.825L17.618,19H21
		c0.553,0,1-0.447,1-1c0-0.553-0.447-1-1-1h-8c-0.553,0-1,0.447-1,1c0,0.553,0.447,1,1,1h2.382l4.741,9.481
		c-1.492,0.975-2.939,2.175-4.298,3.648C14.365,31.414,12.732,31,11,31C4.935,31,0,35.935,0,42c0,6.065,4.935,11,11,11
		c5.728,0,10.442-4.402,10.949-10H30c0.48,0,0.893-0.342,0.982-0.813c0.018-0.091,1.824-8.911,11.302-13.781l1.195,4.095
		C40.208,34.409,38,37.948,38,42c0,6.065,4.935,11,11,11c6.065,0,11-4.935,11-11C60,35.935,55.065,31,49,31z M11,49
		c-3.859,0-7-3.141-7-7c0-3.859,3.141-7,7-7s7,3.141,7,7C18,45.859,14.859,49,11,49z M21.949,41c-0.288-3.177-1.935-5.96-4.351-7.78
		c1.099-1.141,2.25-2.113,3.438-2.91L26.382,41H21.949z M29.216,41h-0.598l-5.861-11.721c3.772-2.024,7.741-2.644,11.16-2.644
		c2.479,0,4.657,0.323,6.208,0.646C32.373,31.786,29.871,38.646,29.216,41z M49,49c-3.859,0-7-3.141-7-7c0-3.859,3.141-7,7-7
		s7,3.141,7,7C56,45.859,52.859,49,49,49z"/>
	<circle fill="#010101" cx="11" cy="42" r="3"/>
	<circle fill="#010101" cx="49" cy="42" r="3"/>
</g>
</svg>
