<?xml version="1.0" encoding="utf-8"?>
<!-- Generator: Adobe Illustrator 17.0.0, SVG Export Plug-In . SVG Version: 6.00 Build 0)  -->
<!DOCTYPE svg PUBLIC "-//W3C//DTD SVG 1.1//EN" "http://www.w3.org/Graphics/SVG/1.1/DTD/svg11.dtd">
<svg version="1.1" id="Layer_2" xmlns="http://www.w3.org/2000/svg" xmlns:xlink="http://www.w3.org/1999/xlink" x="0px" y="0px"
	 width="60px" height="60px" viewBox="0 0 60 60" enable-background="new 0 0 60 60" xml:space="preserve">
<path fill="#010101" d="M51,26c0.553,0,1-0.447,1-1V8c0-4.71-3.29-8-8-8H16c-4.71,0-8,3.29-8,8v37v5.998V55c0,0.553,0.447,1,1,1h1v3
	c0,0.553,0.447,1,1,1h6c0.553,0,1-0.447,1-1v-3h24v3c0,0.553,0.447,1,1,1h6c0.553,0,1-0.447,1-1v-3h1c0.553,0,1-0.447,1-1v-4v-6v-4
	c0-0.553-0.447-1-1-1h-1V26H51z M16,58h-4v-2h4V58z M16,49.998h-6V46h6V49.998z M9,40V24h25v16H9z M20.202,55l3.333-5h12.93l3.333,5
	H20.202z M14,18v-6h32v6H14z M42,40V26h7v14H42z M48,58h-4v-2h4V58z M50,50h-6v-4h6V50z"/>
</svg>
