<?xml version="1.0" encoding="utf-8"?>
<!-- Generator: Adobe Illustrator 17.0.0, SVG Export Plug-In . SVG Version: 6.00 Build 0)  -->
<!DOCTYPE svg PUBLIC "-//W3C//DTD SVG 1.1//EN" "http://www.w3.org/Graphics/SVG/1.1/DTD/svg11.dtd">
<svg version="1.1" id="Layer_2" xmlns="http://www.w3.org/2000/svg" xmlns:xlink="http://www.w3.org/1999/xlink" x="0px" y="0px"
	 width="60px" height="60px" viewBox="0 0 60 60" enable-background="new 0 0 60 60" xml:space="preserve">
<g>
	<path fill="#010101" d="M59,38h-1V25c0-0.553-0.447-1-1-1h-1v-3.102l3.274-0.936c0.531-0.152,0.839-0.706,0.688-1.236
		c-0.152-0.532-0.709-0.833-1.236-0.688l-7,2c-0.531,0.152-0.839,0.706-0.688,1.236C51.164,21.714,51.564,22,51.999,22
		c0.092,0,0.184-0.013,0.275-0.038L54,21.469V24h-2.741l-17.773-9.874C33.337,14.043,33.17,14,33,14H21
		c-0.352,0-0.677,0.185-0.857,0.485L14.433,24H5c-2.663,0-5,2.337-5,5v10c0,0.553,0.447,1,1,1h1.525
		C2.515,39.834,2.5,39.669,2.5,39.5c0-4.686,3.813-8.5,8.5-8.5s8.5,3.814,8.5,8.5c0,0.169-0.016,0.334-0.025,0.5h13.051
		c-0.01-0.166-0.025-0.331-0.025-0.5c0-4.686,3.813-8.5,8.5-8.5s8.5,3.814,8.5,8.5c0,0.169-0.016,0.334-0.025,0.5H57h2
		c0.553,0,1-0.447,1-1C60,38.447,59.552,38,59,38z M27,20h-2.382l-2.724,5.447C21.719,25.798,21.366,26,20.999,26
		c-0.15,0-0.303-0.034-0.446-0.105c-0.494-0.247-0.694-0.848-0.447-1.342l3-6C23.275,18.214,23.621,18,24,18h3c0.553,0,1,0.447,1,1
		C28,19.553,27.552,20,27,20z"/>
	<path fill="#010101" d="M41,33c-3.584,0-6.5,2.916-6.5,6.5S37.416,46,41,46c3.584,0,6.5-2.916,6.5-6.5S44.584,33,41,33z"/>
	<path fill="#010101" d="M11,33c-3.584,0-6.5,2.916-6.5,6.5S7.416,46,11,46s6.5-2.916,6.5-6.5S14.584,33,11,33z"/>
</g>
</svg>
