<?xml version="1.0" encoding="utf-8"?>
<!-- Generator: Adobe Illustrator 17.0.0, SVG Export Plug-In . SVG Version: 6.00 Build 0)  -->
<!DOCTYPE svg PUBLIC "-//W3C//DTD SVG 1.1//EN" "http://www.w3.org/Graphics/SVG/1.1/DTD/svg11.dtd">
<svg version="1.1" id="Layer_2" xmlns="http://www.w3.org/2000/svg" xmlns:xlink="http://www.w3.org/1999/xlink" x="0px" y="0px"
	 width="60px" height="60px" viewBox="0 0 60 60" enable-background="new 0 0 60 60" xml:space="preserve">
<path fill="#010101" d="M59,26v-4c0-0.553-0.447-1-1-1h-8c-0.175,0-0.33,0.057-0.473,0.135L45.954,9.702C45.824,9.284,45.437,9,45,9
	H15c-0.438,0-0.824,0.284-0.954,0.702l-3.573,11.433C10.33,21.057,10.175,21,10,21H2c-0.553,0-1,0.447-1,1v4c0,0.553,0.447,1,1,1
	h5.586l-6.292,6.292c-0.092,0.092-0.166,0.202-0.217,0.324C1.027,33.736,1,33.866,1,34v6v4c0,0.553,0.447,1,1,1h1v5
	c0,0.553,0.447,1,1,1h8c0.553,0,1-0.447,1-1v-5h8v1c0,0.553,0.447,1,1,1h16c0.553,0,1-0.447,1-1v-1h8v5c0,0.553,0.447,1,1,1h8
	c0.553,0,1-0.447,1-1v-5h1c0.553,0,1-0.447,1-1v-4v-6c0-0.134-0.027-0.264-0.078-0.385c-0.051-0.122-0.125-0.232-0.217-0.324
	L52.414,27H58C58.553,27,59,26.553,59,26z M11,49H5v-4h6V49z M11,39H3v-4h8V39z M37,45H23v-6h14V45z M29,34v-2c0-0.553,0.447-1,1-1
	c0.553,0,1,0.447,1,1v2c0,0.553-0.447,1-1,1C29.447,35,29,34.553,29,34z M11.36,25l4.375-14h28.529l4.375,14H11.36z M55,49h-6v-4h6
	V49z M57,35v4h-8v-4H57z"/>
</svg>
