<?xml version="1.0" encoding="utf-8"?>
<!-- Generator: Adobe Illustrator 17.0.0, SVG Export Plug-In . SVG Version: 6.00 Build 0)  -->
<!DOCTYPE svg PUBLIC "-//W3C//DTD SVG 1.1//EN" "http://www.w3.org/Graphics/SVG/1.1/DTD/svg11.dtd">
<svg version="1.1" id="Layer_2" xmlns="http://www.w3.org/2000/svg" xmlns:xlink="http://www.w3.org/1999/xlink" x="0px" y="0px"
	 width="60px" height="60px" viewBox="0 0 60 60" enable-background="new 0 0 60 60" xml:space="preserve">
<g>
	<path fill="#010101" d="M54.587,25.989c-1.824-1.01-3.815-1.412-5.757-1.254l-1.841-12.891C46.722,10.15,44.791,8,43,8H17
		c-1.786,0-3.718,2.148-3.99,3.858l-1.84,12.881c-1.941-0.157-3.931,0.247-5.756,1.258C2.1,27.836,0.024,31.282,0,35
		c0,5.123,3.337,9.313,8,10.59V51c0,0.553,0.447,1,1,1h8c0.553,0,1-0.447,1-1v-5h4v1c0,0.553,0.447,1,1,1h14c0.553,0,1-0.447,1-1v-1
		h4v5c0,0.553,0.447,1,1,1h8c0.553,0,1-0.447,1-1v-5.41c4.663-1.277,8-5.469,8-10.597C59.975,31.276,57.9,27.827,54.587,25.989z
		 M14.987,12.157C15.122,11.311,16.345,10,17,10h26c0.642,0,1.883,1.329,2.01,2.142l1.849,12.943
		c-0.225,0.066-0.444,0.16-0.665,0.243C42.159,21.944,36.326,20,30,20c-6.327,0-12.161,1.945-16.195,5.329
		c-0.221-0.083-0.439-0.176-0.665-0.243L14.987,12.157z M7,35c0-1.654,1.346-3,3-3s3,1.346,3,3c0,1.654-1.346,3-3,3S7,36.654,7,35z
		 M16,50h-6v-4.049C10.33,45.98,10.662,46,11,46h5V50z M36,46H24v-6h12V46z M34.476,32.148c-2.554,1.572-6.401,1.57-8.961-0.006
		l-9.736-5.842C19.406,23.592,24.584,22,30,22c5.415,0,10.594,1.592,14.222,4.301L34.476,32.148z M50,50h-6v-4h5
		c0.338,0,0.67-0.02,1-0.049V50z M50,38c-1.654,0-3-1.346-3-3c0-1.654,1.346-3,3-3s3,1.346,3,3C53,36.654,51.654,38,50,38z"/>
	<circle fill="#010101" cx="30" cy="30" r="1"/>
</g>
</svg>
