<?xml version="1.0" encoding="utf-8"?>
<!-- Generator: Adobe Illustrator 17.0.0, SVG Export Plug-In . SVG Version: 6.00 Build 0)  -->
<!DOCTYPE svg PUBLIC "-//W3C//DTD SVG 1.1//EN" "http://www.w3.org/Graphics/SVG/1.1/DTD/svg11.dtd">
<svg version="1.1" id="Layer_2" xmlns="http://www.w3.org/2000/svg" xmlns:xlink="http://www.w3.org/1999/xlink" x="0px" y="0px"
	 width="60px" height="60px" viewBox="0 0 60 60" enable-background="new 0 0 60 60" xml:space="preserve">
<g>
	<path fill="#010101" d="M59,37.5h-1v-11c0-0.553-0.447-1-1-1H35v-9c0-0.553-0.447-1-1-1H20c-0.379,0-0.725,0.214-0.895,0.553
		L14.382,25.5H5c-2.663,0-5,2.337-5,5v8c0,0.553,0.447,1,1,1h3.069C4.028,39.172,4,38.839,4,38.5c0-4.411,3.589-8,8-8
		c4.411,0,8,3.589,8,8c0,0.339-0.028,0.672-0.069,1h12.139C32.028,39.172,32,38.839,32,38.5c0-4.411,3.589-8,8-8
		c4.411,0,8,3.589,8,8c0,0.339-0.028,0.672-0.069,1H57h2c0.553,0,1-0.447,1-1C60,37.947,59.553,37.5,59,37.5z M27,21.5h-2.382
		l-2.724,5.447c-0.176,0.351-0.528,0.553-0.895,0.553c-0.15,0-0.303-0.034-0.446-0.105c-0.494-0.247-0.694-0.848-0.447-1.342l3-6
		C23.275,19.714,23.621,19.5,24,19.5h3c0.553,0,1,0.447,1,1C28,21.053,27.553,21.5,27,21.5z"/>
	<path fill="#010101" d="M40,32.5c-3.309,0-6,2.691-6,6c0,3.309,2.691,6,6,6c3.309,0,6-2.691,6-6C46,35.191,43.309,32.5,40,32.5z"/>
	<path fill="#010101" d="M12,32.5c-3.309,0-6,2.691-6,6c0,3.309,2.691,6,6,6c3.309,0,6-2.691,6-6C18,35.191,15.309,32.5,12,32.5z"/>
</g>
</svg>
