<?xml version="1.0" encoding="utf-8"?>
<!-- Generator: Adobe Illustrator 17.0.0, SVG Export Plug-In . SVG Version: 6.00 Build 0)  -->
<!DOCTYPE svg PUBLIC "-//W3C//DTD SVG 1.1//EN" "http://www.w3.org/Graphics/SVG/1.1/DTD/svg11.dtd">
<svg version="1.1" id="Layer_2" xmlns="http://www.w3.org/2000/svg" xmlns:xlink="http://www.w3.org/1999/xlink" x="0px" y="0px"
	 width="60px" height="60px" viewBox="0 0 60 60" enable-background="new 0 0 60 60" xml:space="preserve">
<g>
	<path fill="#010101" d="M51.821,38.328l-33.801-14l-3.088-7.457c-0.102-0.245-0.296-0.439-0.541-0.541l-8.314-3.445
		c-0.311-0.13-0.669-0.094-0.946,0.098c-0.279,0.19-0.443,0.509-0.437,0.846l0.344,17.461c0.008,0.398,0.25,0.752,0.617,0.904
		l17.171,7.113L4.151,47.041c-0.373,0.154-0.617,0.52-0.617,0.924s0.243,0.769,0.617,0.924l9.238,3.828
		c0.122,0.051,0.252,0.076,0.383,0.076c0.102,0,0.204-0.016,0.303-0.047l23.329-7.401l9.825,4.069
		c1.15,0.477,2.284,0.718,3.37,0.718c2.485,0,4.451-1.306,5.393-3.581C57.366,43.234,55.689,39.929,51.821,38.328z"/>
	<path fill="#010101" d="M28.19,26.884c0.102,0.245,0.296,0.44,0.541,0.541l9.238,3.826c0.124,0.052,0.254,0.076,0.383,0.076
		c0.26,0,0.516-0.102,0.707-0.293c0.286-0.286,0.372-0.716,0.217-1.09l-7.577-18.293c-0.102-0.245-0.296-0.439-0.541-0.541
		l-9.239-3.826c-0.374-0.157-0.804-0.069-1.09,0.217c-0.286,0.286-0.372,0.716-0.217,1.09L28.19,26.884z"/>
</g>
</svg>
