<?xml version="1.0" encoding="utf-8"?>
<!-- Generator: Adobe Illustrator 17.0.0, SVG Export Plug-In . SVG Version: 6.00 Build 0)  -->
<!DOCTYPE svg PUBLIC "-//W3C//DTD SVG 1.1//EN" "http://www.w3.org/Graphics/SVG/1.1/DTD/svg11.dtd">
<svg version="1.1" id="Layer_2" xmlns="http://www.w3.org/2000/svg" xmlns:xlink="http://www.w3.org/1999/xlink" x="0px" y="0px"
	 width="60px" height="60px" viewBox="0 0 60 60" enable-background="new 0 0 60 60" xml:space="preserve">
<path fill="#010101" d="M57.777,2.043C56.654,0.92,54.708,0.25,52.57,0.25s-4.084,0.67-5.207,1.793L39.656,9.75
	c-6.496-0.005-12.054-0.113-16.537-0.2c-3.354-0.065-6.252-0.122-8.727-0.122C4.656,9.428,0.07,10.15,0.07,16.75
	c0,6.312,6.431,6.433,17.085,6.633c2.568,0.049,5.412,0.103,8.511,0.243L12.676,35.75H6.07c-3.364,0-6,2.636-6,6
	c0,4.678,4.34,5.998,8.537,7.274c0.552,0.168,1.111,0.339,1.67,0.519c0.168,0.522,0.328,1.052,0.488,1.578
	c1.228,4.045,2.62,8.629,7.305,8.629c3.434,0,6-3.695,6-7v-5.605l12.124-12.99c0.141,3.097,0.194,5.938,0.243,8.505
	C36.64,53.317,36.761,59.75,43.07,59.75c2.258,0,3.827-0.529,4.94-1.665c2.647-2.701,2.528-8.524,2.27-21.281
	c-0.092-4.51-0.205-10.099-0.21-16.64l7.708-7.707C60.647,9.583,60.647,4.912,57.777,2.043z"/>
</svg>
