<?xml version="1.0" encoding="utf-8"?>
<!-- Generator: Adobe Illustrator 17.0.0, SVG Export Plug-In . SVG Version: 6.00 Build 0)  -->
<!DOCTYPE svg PUBLIC "-//W3C//DTD SVG 1.1//EN" "http://www.w3.org/Graphics/SVG/1.1/DTD/svg11.dtd">
<svg version="1.1" id="Layer_2" xmlns="http://www.w3.org/2000/svg" xmlns:xlink="http://www.w3.org/1999/xlink" x="0px" y="0px"
	 width="60px" height="60px" viewBox="0 0 60 60" enable-background="new 0 0 60 60" xml:space="preserve">
<g>
	<path fill="#010101" d="M53,24.5H16.414l-5.707-5.707C10.52,18.606,10.266,18.5,10,18.5H1c-0.338,0-0.652,0.17-0.837,0.453
		c-0.185,0.282-0.215,0.639-0.079,0.947l7,16C7.243,36.265,7.603,36.5,8,36.5h18.586L12.293,50.793
		c-0.286,0.286-0.372,0.716-0.217,1.09C12.231,52.257,12.596,52.5,13,52.5h10c0.235,0,0.464-0.083,0.644-0.235L42.365,36.5H53
		c4.187,0,7-2.411,7-6C60,26.911,57.187,24.5,53,24.5z"/>
	<path fill="#010101" d="M27.293,23.207C27.481,23.395,27.734,23.5,28,23.5h10c0.404,0,0.77-0.243,0.924-0.617
		c0.155-0.374,0.069-0.804-0.217-1.09l-14-14C24.52,7.606,24.266,7.5,24,7.5H14c-0.404,0-0.769,0.243-0.924,0.617
		c-0.155,0.374-0.069,0.804,0.217,1.09L27.293,23.207z"/>
</g>
</svg>
