<?xml version="1.0" encoding="utf-8"?>
<!-- Generator: Adobe Illustrator 17.0.0, SVG Export Plug-In . SVG Version: 6.00 Build 0)  -->
<!DOCTYPE svg PUBLIC "-//W3C//DTD SVG 1.1//EN" "http://www.w3.org/Graphics/SVG/1.1/DTD/svg11.dtd">
<svg version="1.1" id="Layer_2" xmlns="http://www.w3.org/2000/svg" xmlns:xlink="http://www.w3.org/1999/xlink" x="0px" y="0px"
	 width="60px" height="60px" viewBox="0 0 60 60" enable-background="new 0 0 60 60" xml:space="preserve">
<g>
	<path fill="#010101" d="M19.05,0.077c-1.062-0.304-2.169,0.312-2.473,1.373l-16,56c-0.304,1.063,0.312,2.169,1.373,2.473
		c0.184,0.053,0.369,0.078,0.551,0.078c0.87,0,1.671-0.573,1.922-1.451l16-56C20.726,1.487,20.111,0.381,19.05,0.077z"/>
	<path fill="#010101" d="M59.414,57.419l-17-56c-0.321-1.058-1.441-1.653-2.495-1.333c-1.057,0.321-1.653,1.439-1.333,2.495l17,56
		c0.263,0.863,1.056,1.42,1.913,1.42c0.192,0,0.389-0.028,0.582-0.087C59.138,59.593,59.734,58.475,59.414,57.419z"/>
	<path fill="#010101" d="M29.5,47c-1.104,0-2,0.896-2,2v9c0,1.104,0.896,2,2,2s2-0.896,2-2v-9C31.5,47.895,30.604,47,29.5,47z"/>
	<path fill="#010101" d="M29.5,27c-1.104,0-2,0.896-2,2v10c0,1.104,0.896,2,2,2s2-0.896,2-2V29C31.5,27.895,30.604,27,29.5,27z"/>
	<path fill="#010101" d="M29.5,10c-1.104,0-2,0.896-2,2v8c0,1.104,0.896,2,2,2s2-0.896,2-2v-8C31.5,10.895,30.604,10,29.5,10z"/>
	<path fill="#010101" d="M29.5,0c-1.104,0-2,0.895-2,2v2c0,1.105,0.896,2,2,2s2-0.895,2-2V2C31.5,0.895,30.604,0,29.5,0z"/>
</g>
</svg>
