<?xml version="1.0" encoding="utf-8"?>
<!-- Generator: Adobe Illustrator 17.0.0, SVG Export Plug-In . SVG Version: 6.00 Build 0)  -->
<!DOCTYPE svg PUBLIC "-//W3C//DTD SVG 1.1//EN" "http://www.w3.org/Graphics/SVG/1.1/DTD/svg11.dtd">
<svg version="1.1" id="Layer_2" xmlns="http://www.w3.org/2000/svg" xmlns:xlink="http://www.w3.org/1999/xlink" x="0px" y="0px"
	 width="60px" height="60px" viewBox="0 0 60 60" enable-background="new 0 0 60 60" xml:space="preserve">
<g>
	<path fill="#010101" d="M49,27c-1.254,0-2.456,0.221-3.58,0.61l-2.176-11.422l5.613,0.802c0.83,0.12,1.409,0.896,1.292,1.724
		c-0.112,0.769-1.113,1.419-2.007,1.298c-0.543-0.089-1.053,0.301-1.132,0.847c-0.079,0.546,0.3,1.054,0.847,1.132
		c1.986,0.293,3.997-1.106,4.271-2.991c0.273-1.922-1.067-3.711-2.987-3.988l-7-1c-0.323-0.044-0.643,0.066-0.865,0.3
		c-0.223,0.233-0.319,0.561-0.259,0.878L42.125,21H21.321l-2.758-6.941l3.162,0.903C21.817,14.987,21.909,15,22.001,15
		c0.434,0,0.835-0.286,0.961-0.726c0.151-0.53-0.156-1.084-0.688-1.236l-7-2c-0.525-0.148-1.084,0.155-1.236,0.688
		c-0.151,0.53,0.156,1.084,0.688,1.236l1.41,0.403l3.396,8.546l-3.739,6.203C14.341,27.407,12.719,27,11,27C4.935,27,0,31.934,0,38
		c0,6.065,4.935,11,11,11c5.728,0,10.443-4.403,10.949-10.001l4.988,0c0.268,0.004,0.552-0.078,0.763-0.284l14.998-14.701
		l0.847,4.447C40.238,30.359,38,33.92,38,38c0,6.065,4.935,11,11,11c6.065,0,11-4.935,11-11C60,31.934,55.065,27,49,27z M11,45
		c-3.859,0-7-3.141-7-7c0-3.859,3.141-7,7-7c3.859,0,7,3.141,7,7C18,41.859,14.859,45,11,45z M21.949,36.998
		c-0.292-3.218-1.979-6.032-4.446-7.85l2.956-4.903l5.067,12.752L21.949,36.998z M27.375,36.232L22.116,23h18.759L27.375,36.232z
		 M49,45c-3.859,0-7-3.141-7-7c0-3.859,3.141-7,7-7c3.859,0,7,3.141,7,7C56,41.859,52.859,45,49,45z"/>
	<circle fill="#010101" cx="49" cy="38" r="3"/>
	<circle fill="#010101" cx="11" cy="38" r="3"/>
</g>
</svg>
