<?xml version="1.0" encoding="utf-8"?>
<!-- Generator: Adobe Illustrator 17.0.0, SVG Export Plug-In . SVG Version: 6.00 Build 0)  -->
<!DOCTYPE svg PUBLIC "-//W3C//DTD SVG 1.1//EN" "http://www.w3.org/Graphics/SVG/1.1/DTD/svg11.dtd">
<svg version="1.1" id="Layer_2" xmlns="http://www.w3.org/2000/svg" xmlns:xlink="http://www.w3.org/1999/xlink" x="0px" y="0px"
	 width="60px" height="60px" viewBox="0 0 60 60" enable-background="new 0 0 60 60" xml:space="preserve">
<g>
	<path fill="#010101" d="M59.707,0.293c-0.219-0.219-0.529-0.321-0.834-0.285c-1.092,0.141-10.747,1.45-13.58,4.285L20,29.586
		l10.414,10.414c7.765-7.766,22.676-22.678,25.293-25.293c2.835-2.835,4.145-12.488,4.285-13.58
		C60.031,0.82,59.926,0.511,59.707,0.293z"/>
	<path fill="#010101" d="M29,41.414L18.586,31l-3.293,3.293c-0.391,0.391-0.391,1.023,0,1.414l9,9C24.48,44.894,24.734,45,25,45
		c0.266,0,0.52-0.106,0.707-0.293C25.707,44.707,26.978,43.435,29,41.414z"/>
	<path fill="#010101" d="M41.383,32.076c-0.373-0.157-0.803-0.069-1.09,0.217l-12,12c-0.153,0.153-0.252,0.351-0.283,0.565l-2,14
		c-0.06,0.42,0.151,0.831,0.526,1.027C26.682,59.963,26.842,60,27,60c0.247,0,0.491-0.092,0.681-0.267
		c0.055-0.052,5.577-5.181,9.063-8.666c1.18-1.182,3.142-3.744,3.809-5.741C41.534,42.377,42,34.579,42,33
		C42,32.595,41.757,32.23,41.383,32.076z"/>
	<path fill="#010101" d="M15.707,31.707l12-12c0.286-0.286,0.372-0.716,0.217-1.09C27.769,18.243,27.404,18,27,18
		c-1.406,0-9.408,0.374-12.403,1.374c-1.966,0.657-4.465,2.682-5.665,3.882c-3.488,3.488-8.613,9.009-8.665,9.064
		c-0.288,0.31-0.349,0.769-0.152,1.144C0.288,33.797,0.632,34,1,34c0.047,0,0.094-0.003,0.142-0.01l14-2
		C15.355,31.959,15.554,31.86,15.707,31.707z"/>
	<path fill="#010101" d="M16.912,39.519c-1.99-1.988-5.154-1.61-7.656,0.893c-2.554,2.556-6.735,14.874-7.204,16.27
		c-0.12,0.36-0.027,0.757,0.241,1.025C2.483,57.897,2.739,58,3,58c0.106,0,0.214-0.017,0.318-0.052
		c1.396-0.469,13.712-4.652,16.267-7.206c2.557-2.557,2.915-5.634,0.893-7.656L16.912,39.519z"/>
</g>
</svg>
