<?xml version="1.0" encoding="utf-8"?>
<!-- Generator: Adobe Illustrator 17.0.0, SVG Export Plug-In . SVG Version: 6.00 Build 0)  -->
<!DOCTYPE svg PUBLIC "-//W3C//DTD SVG 1.1//EN" "http://www.w3.org/Graphics/SVG/1.1/DTD/svg11.dtd">
<svg version="1.1" id="Layer_2" xmlns="http://www.w3.org/2000/svg" xmlns:xlink="http://www.w3.org/1999/xlink" x="0px" y="0px"
	 width="60px" height="60px" viewBox="0 0 60 60" enable-background="new 0 0 60 60" xml:space="preserve">
<g>
	<path fill="#010101" d="M54,55c-0.553,0-1,0.447-1,1c0,1.103-0.898,2-2,2c-1.103,0-2-0.897-2-2c0-2.753-2.237-4.993-4.989-4.999
		l5.543-21.302l1.151,0.274C50.784,29.991,50.861,30,50.938,30c0.452,0,0.862-0.309,0.972-0.769
		c0.128-0.537-0.204-1.076-0.741-1.204l-1.111-0.265l0-0.001l-5.121-1.219V17c0-2.757-2.243-5-5-5h-5V6h-10v6h-5
		c-2.757,0-5,2.243-5,5v9.544l-5.354,1.275l-0.877,0.209c-0.537,0.128-0.869,0.667-0.741,1.204c0.129,0.538,0.669,0.873,1.204,0.741
		l0.868-0.207l4.967,21.334C12.723,51.565,11,53.585,11,56c0,1.103-0.898,2-2,2c-1.103,0-2-0.897-2-2c0-0.553-0.447-1-1-1
		c-0.553,0-1,0.447-1,1c0,2.206,1.794,4,4,4c2.206,0,4-1.794,4-4c0-1.654,1.346-3,3-3c1.654,0,3,1.346,3,3c0,2.206,1.794,4,4,4
		c2.206,0,4-1.794,4-4c0-1.654,1.346-3,3-3c1.654,0,3,1.346,3,3c0,2.206,1.794,4,4,4c2.206,0,4-1.794,4-4c0-1.654,1.346-3,3-3
		c1.654,0,3,1.346,3,3c0,2.206,1.794,4,4,4c2.206,0,4-1.794,4-4C55,55.447,54.553,55,54,55z M23,58
		c-0.011,0-0.021-0.003-0.031-0.003c0.159-0.002,0.31-0.028,0.464-0.047C23.293,57.981,23.149,58,23,58z M37,58
		c-0.011,0-0.021-0.003-0.031-0.003c0.159-0.002,0.31-0.028,0.464-0.047C37.293,57.981,37.149,58,37,58z M30.937,32.365V50
		c0,0.553-0.447,1-1,1c-0.553,0-1-0.447-1-1V32.354l-15.956,4.907c-0.531,0.163-1.088-0.135-1.25-0.662
		c-0.162-0.528,0.134-1.088,0.662-1.25l16.544-5.087V23.21l-12,2.857V17c0-1.654,1.346-3,3-3h20c1.654,0,3,1.346,3,3v9.066
		l-12-2.856v7.058l16.091,5.084c0.526,0.166,0.818,0.727,0.651,1.255c-0.135,0.426-0.528,0.698-0.953,0.698
		c-0.1,0-0.201-0.015-0.302-0.047L30.937,32.365z"/>
	<path fill="#010101" d="M37.937,19c0-0.553-0.447-1-1-1h-14c-0.553,0-1,0.447-1,1c0,0.553,0.447,1,1,1h14
		C37.49,20,37.937,19.553,37.937,19z"/>
	<path fill="#010101" d="M34.937,1c0-0.553-0.447-1-1-1h-8c-0.553,0-1,0.447-1,1v3h10V1z"/>
</g>
</svg>
