<?xml version="1.0" encoding="utf-8"?>
<!-- Generator: Adobe Illustrator 17.0.0, SVG Export Plug-In . SVG Version: 6.00 Build 0)  -->
<!DOCTYPE svg PUBLIC "-//W3C//DTD SVG 1.1//EN" "http://www.w3.org/Graphics/SVG/1.1/DTD/svg11.dtd">
<svg version="1.1" id="Layer_2" xmlns="http://www.w3.org/2000/svg" xmlns:xlink="http://www.w3.org/1999/xlink" x="0px" y="0px"
	 width="60px" height="60px" viewBox="0 0 60 60" enable-background="new 0 0 60 60" xml:space="preserve">
<g>
	<path fill="#010101" d="M59.263,0.449c-0.856-0.698-2.116-0.567-2.814,0.288L22.848,42.02L12.414,31.586
		c-0.78-0.781-2.048-0.781-2.828,0c-0.781,0.781-0.781,2.047,0,2.828l12,12C21.962,46.79,22.471,47,23,47
		c0.034,0,0.068-0.001,0.102-0.003c0.565-0.028,1.092-0.296,1.449-0.734l35-43C60.248,2.406,60.119,1.147,59.263,0.449z"/>
	<path fill="#010101" d="M46.373,28.297c-1.077,0.246-1.75,1.319-1.503,2.396c0.346,1.511,0.522,3.062,0.522,4.612
		C45.391,46.716,36.107,56,24.695,56S4,46.716,4,35.305s9.284-20.695,20.695-20.695c3.228,0,6.323,0.725,9.197,2.152
		c0.989,0.492,2.189,0.088,2.681-0.901c0.492-0.988,0.088-2.189-0.901-2.681c-3.432-1.705-7.125-2.57-10.977-2.57
		C11.078,10.609,0,21.688,0,35.305S11.078,60,24.695,60c13.617,0,24.696-11.078,24.696-24.695c0-1.85-0.21-3.702-0.622-5.505
		C48.522,28.723,47.447,28.049,46.373,28.297z"/>
</g>
</svg>
