<?xml version="1.0" encoding="utf-8"?>
<!-- Generator: Adobe Illustrator 17.0.0, SVG Export Plug-In . SVG Version: 6.00 Build 0)  -->
<!DOCTYPE svg PUBLIC "-//W3C//DTD SVG 1.1//EN" "http://www.w3.org/Graphics/SVG/1.1/DTD/svg11.dtd">
<svg version="1.1" id="Layer_2" xmlns="http://www.w3.org/2000/svg" xmlns:xlink="http://www.w3.org/1999/xlink" x="0px" y="0px"
	 width="60px" height="60px" viewBox="0 0 60 60" enable-background="new 0 0 60 60" xml:space="preserve">
<path fill="#010101" d="M30,0C13.458,0,0,13.458,0,30s13.458,30,30,30s30-13.458,30-30S46.542,0,30,0z M43.29,21.905L24.377,39.558
	c-0.192,0.179-0.438,0.269-0.682,0.269c-0.256,0-0.512-0.098-0.707-0.293l-6.304-6.305c-0.391-0.391-0.391-1.023,0-1.414
	c0.391-0.391,1.023-0.391,1.414,0l5.621,5.621l18.207-16.993c0.403-0.375,1.037-0.354,1.413,0.049
	C43.716,20.896,43.694,21.528,43.29,21.905z"/>
</svg>
