<?xml version="1.0" encoding="utf-8"?>
<!-- Generator: Adobe Illustrator 17.0.0, SVG Export Plug-In . SVG Version: 6.00 Build 0)  -->
<!DOCTYPE svg PUBLIC "-//W3C//DTD SVG 1.1//EN" "http://www.w3.org/Graphics/SVG/1.1/DTD/svg11.dtd">
<svg version="1.1" id="Layer_2" xmlns="http://www.w3.org/2000/svg" xmlns:xlink="http://www.w3.org/1999/xlink" x="0px" y="0px"
	 width="60px" height="60px" viewBox="0 0 60 60" enable-background="new 0 0 60 60" xml:space="preserve">
<path fill="#010101" d="M59,0H1C0.448,0,0,0.447,0,1v58c0,0.553,0.448,1,1,1h58c0.552,0,1-0.447,1-1V1C60,0.447,59.552,0,59,0z
	 M26.924,34.49L14.315,47.098c-0.195,0.195-0.451,0.293-0.707,0.293c-0.256,0-0.512-0.098-0.707-0.293l-5.043-5.043
	c-0.391-0.391-0.391-1.023,0-1.414c0.391-0.391,1.023-0.391,1.414,0l4.336,4.336l11.901-11.9c0.391-0.391,1.023-0.391,1.414,0
	C27.314,33.467,27.314,34.1,26.924,34.49z M26.924,10.533L14.315,23.142c-0.188,0.188-0.442,0.293-0.707,0.293
	c-0.265,0-0.519-0.105-0.707-0.293l-5.043-5.044c-0.391-0.391-0.391-1.024,0-1.414c0.391-0.391,1.023-0.391,1.414,0l4.336,4.337
	L25.51,9.119c0.391-0.391,1.023-0.391,1.414,0C27.314,9.51,27.314,10.143,26.924,10.533z M51.435,44H31.261c-0.552,0-1-0.447-1-1
	c0-0.553,0.448-1,1-1h20.174c0.552,0,1,0.447,1,1C52.435,43.553,51.987,44,51.435,44z M51.435,22.174H31.261c-0.552,0-1-0.447-1-1
	c0-0.553,0.448-1,1-1h20.174c0.552,0,1,0.447,1,1C52.435,21.727,51.987,22.174,51.435,22.174z"/>
</svg>
