<?xml version="1.0" encoding="utf-8"?>
<!-- Generator: Adobe Illustrator 17.0.0, SVG Export Plug-In . SVG Version: 6.00 Build 0)  -->
<!DOCTYPE svg PUBLIC "-//W3C//DTD SVG 1.1//EN" "http://www.w3.org/Graphics/SVG/1.1/DTD/svg11.dtd">
<svg version="1.1" id="Layer_2" xmlns="http://www.w3.org/2000/svg" xmlns:xlink="http://www.w3.org/1999/xlink" x="0px" y="0px"
	 width="60px" height="60px" viewBox="0 0 60 60" enable-background="new 0 0 60 60" xml:space="preserve">
<path fill="#010101" d="M53.956,0H6.043c-0.552,0-1,0.447-1,1v18.32c0,17.075,9.384,32.618,24.491,40.564
	C29.68,59.962,29.84,60,30,60c0.16,0,0.32-0.038,0.466-0.115c15.106-7.95,24.491-23.493,24.491-40.564V1
	C54.956,0.447,54.509,0,53.956,0z M44.555,18.122L25.642,35.774c-0.192,0.18-0.438,0.269-0.682,0.269
	c-0.256,0-0.512-0.098-0.707-0.293l-6.304-6.304c-0.391-0.391-0.391-1.023,0-1.414c0.391-0.391,1.023-0.391,1.414,0l5.621,5.62
	L43.19,16.659c0.403-0.375,1.037-0.354,1.413,0.049C44.98,17.112,44.959,17.745,44.555,18.122z"/>
</svg>
