<?xml version="1.0" encoding="utf-8"?>
<!-- Generator: Adobe Illustrator 17.0.0, SVG Export Plug-In . SVG Version: 6.00 Build 0)  -->
<!DOCTYPE svg PUBLIC "-//W3C//DTD SVG 1.1//EN" "http://www.w3.org/Graphics/SVG/1.1/DTD/svg11.dtd">
<svg version="1.1" id="Layer_2" xmlns="http://www.w3.org/2000/svg" xmlns:xlink="http://www.w3.org/1999/xlink" x="0px" y="0px"
	 width="60px" height="60px" viewBox="0 0 60 60" enable-background="new 0 0 60 60" xml:space="preserve">
<path fill="#010101" d="M60,30c0-2.28-1.277-4.306-3.21-5.329c1.388-1.685,1.794-4.045,0.927-6.15
	c-0.863-2.083-2.79-3.488-5.006-3.696c0.64-2.09,0.11-4.425-1.502-6.037c-1.138-1.139-2.652-1.766-4.262-1.766
	c-0.607,0-1.204,0.09-1.773,0.264c-0.209-2.173-1.593-4.127-3.699-5c-2.066-0.857-4.493-0.455-6.15,0.919C34.3,1.275,32.276,0,30,0
	c-2.279,0-4.307,1.275-5.333,3.204c-1.659-1.371-4.084-1.776-6.153-0.919c-2.104,0.87-3.488,2.824-3.697,5.001
	c-0.569-0.175-1.165-0.264-1.771-0.264c-1.61,0-3.125,0.627-4.263,1.766c-1.612,1.61-2.143,3.946-1.502,6.036
	c-2.209,0.21-4.132,1.614-4.996,3.696c-0.873,2.104-0.471,4.465,0.917,6.15C1.274,25.695,0,27.721,0,30
	c0,2.279,1.275,4.306,3.202,5.33c-1.388,1.686-1.791,4.047-0.919,6.153c0.864,2.081,2.788,3.483,4.999,3.693
	c-0.639,2.089-0.109,4.424,1.5,6.036c1.139,1.14,2.654,1.768,4.264,1.768c0.606,0,1.202-0.09,1.772-0.264
	c0.21,2.174,1.595,4.128,3.699,5c2.067,0.857,4.493,0.453,6.151-0.919C25.694,58.726,27.721,60,30,60c2.276,0,4.3-1.274,5.325-3.202
	c1.657,1.371,4.079,1.777,6.152,0.919c2.104-0.872,3.487-2.826,3.696-5.001c0.569,0.175,1.165,0.264,1.772,0.264
	c1.611,0,3.125-0.627,4.264-1.767c1.611-1.611,2.142-3.945,1.502-6.034c2.215-0.209,4.141-1.612,5.006-3.696
	c0.872-2.104,0.467-4.465-0.925-6.151C58.723,34.307,60,32.28,60,30z M43.29,21.905L24.377,39.558
	c-0.192,0.179-0.438,0.269-0.682,0.269c-0.256,0-0.512-0.098-0.707-0.293l-6.304-6.305c-0.391-0.391-0.391-1.023,0-1.414
	c0.391-0.391,1.023-0.391,1.414,0l5.621,5.621l18.207-16.993c0.403-0.375,1.037-0.354,1.413,0.049
	C43.716,20.896,43.694,21.528,43.29,21.905z"/>
</svg>
