<?xml version="1.0" encoding="utf-8"?>
<!-- Generator: Adobe Illustrator 17.0.0, SVG Export Plug-In . SVG Version: 6.00 Build 0)  -->
<!DOCTYPE svg PUBLIC "-//W3C//DTD SVG 1.1//EN" "http://www.w3.org/Graphics/SVG/1.1/DTD/svg11.dtd">
<svg version="1.1" id="Layer_2" xmlns="http://www.w3.org/2000/svg" xmlns:xlink="http://www.w3.org/1999/xlink" x="0px" y="0px"
	 width="60px" height="60px" viewBox="0 0 60 60" enable-background="new 0 0 60 60" xml:space="preserve">
<g>
	<path fill="#010101" d="M56.269,4.454c-0.854-0.702-2.114-0.578-2.815,0.277l-30.6,37.294l-10.439-10.44
		c-0.78-0.781-2.048-0.781-2.828,0c-0.781,0.781-0.781,2.047,0,2.828l12,12C21.962,46.79,22.471,47,23,47
		c0.033,0,0.065-0.001,0.098-0.002c0.564-0.028,1.09-0.293,1.448-0.729l32-39C57.247,6.415,57.123,5.154,56.269,4.454z"/>
	<path fill="#010101" d="M48,28.261c-1.105,0-2,0.896-2,2V56H4V14h30.783c1.104,0,2-0.895,2-2c0-1.104-0.896-2-2-2H2
		c-1.105,0-2,0.896-2,2v46c0,1.105,0.895,2,2,2h46c1.104,0,2-0.895,2-2V30.261C50,29.156,49.104,28.261,48,28.261z"/>
</g>
</svg>
