<?xml version="1.0" encoding="utf-8"?>
<!-- Generator: Adobe Illustrator 17.0.0, SVG Export Plug-In . SVG Version: 6.00 Build 0)  -->
<!DOCTYPE svg PUBLIC "-//W3C//DTD SVG 1.1//EN" "http://www.w3.org/Graphics/SVG/1.1/DTD/svg11.dtd">
<svg version="1.1" id="Layer_2" xmlns="http://www.w3.org/2000/svg" xmlns:xlink="http://www.w3.org/1999/xlink" x="0px" y="0px"
	 width="60px" height="60px" viewBox="0 0 60 60" enable-background="new 0 0 60 60" xml:space="preserve">
<path fill="#010101" d="M59.707,13.532l-8.826-8.826c-0.391-0.391-1.023-0.391-1.414,0L18.652,35.521l-8.119-8.119
	c-0.391-0.391-1.023-0.391-1.414,0l-8.826,8.826c-0.391,0.391-0.391,1.023,0,1.414l17.652,17.652
	c0.195,0.195,0.451,0.293,0.707,0.293c0.256,0,0.512-0.098,0.707-0.293l40.348-40.348C59.894,14.759,60,14.505,60,14.239
	C60,13.974,59.894,13.72,59.707,13.532z"/>
</svg>
