<?xml version="1.0" encoding="utf-8"?>
<!-- Generator: Adobe Illustrator 17.0.0, SVG Export Plug-In . SVG Version: 6.00 Build 0)  -->
<!DOCTYPE svg PUBLIC "-//W3C//DTD SVG 1.1//EN" "http://www.w3.org/Graphics/SVG/1.1/DTD/svg11.dtd">
<svg version="1.1" id="Layer_2" xmlns="http://www.w3.org/2000/svg" xmlns:xlink="http://www.w3.org/1999/xlink" x="0px" y="0px"
	 width="60px" height="60px" viewBox="0 0 60 60" enable-background="new 0 0 60 60" xml:space="preserve">
<path fill="#010101" d="M60,30c0-2.28-1.277-4.306-3.209-5.329c1.388-1.685,1.793-4.046,0.926-6.15
	c-0.863-2.083-2.79-3.487-5.005-3.696c0.641-2.09,0.11-4.425-1.502-6.037c-1.138-1.139-2.651-1.766-4.262-1.766
	c-0.607,0-1.204,0.09-1.773,0.264c-0.208-2.173-1.593-4.127-3.699-5c-2.07-0.856-4.494-0.454-6.151,0.919C34.3,1.275,32.276,0,30,0
	c-2.278,0-4.305,1.275-5.332,3.204c-1.657-1.373-4.084-1.775-6.154-0.919c-2.105,0.87-3.488,2.825-3.697,5
	c-0.569-0.174-1.164-0.263-1.771-0.263c-1.611,0-3.125,0.627-4.264,1.767c-1.612,1.609-2.143,3.944-1.503,6.035
	c-2.209,0.21-4.131,1.613-4.995,3.696c-0.873,2.104-0.472,4.465,0.916,6.149C1.274,25.695,0,27.721,0,30
	c0,2.279,1.275,4.306,3.203,5.33c-1.388,1.686-1.79,4.046-0.92,6.153c0.864,2.081,2.788,3.484,4.999,3.693
	c-0.639,2.09-0.108,4.425,1.501,6.036c1.14,1.14,2.654,1.768,4.264,1.768c0.606,0,1.202-0.09,1.771-0.264
	c0.209,2.174,1.593,4.127,3.698,5c2.068,0.86,4.495,0.454,6.153-0.919C25.696,58.726,27.722,60,30,60c2.276,0,4.3-1.274,5.325-3.202
	c1.658,1.372,4.081,1.774,6.153,0.919c2.103-0.872,3.486-2.826,3.696-5.001c0.569,0.175,1.166,0.264,1.772,0.264
	c1.611,0,3.125-0.627,4.263-1.767c1.611-1.611,2.142-3.945,1.502-6.034c2.214-0.209,4.141-1.613,5.005-3.696
	c0.872-2.104,0.468-4.465-0.924-6.151C58.724,34.307,60,32.28,60,30z M42.055,40.641c0.391,0.391,0.391,1.024,0,1.414
	c-0.195,0.195-0.451,0.293-0.707,0.293c-0.256,0-0.512-0.098-0.707-0.293L30,31.414L19.359,42.055
	c-0.195,0.195-0.451,0.293-0.707,0.293c-0.256,0-0.512-0.098-0.707-0.293c-0.391-0.391-0.391-1.023,0-1.414L28.586,30L17.945,19.359
	c-0.391-0.391-0.391-1.024,0-1.414s1.023-0.391,1.414,0L30,28.586l10.641-10.641c0.391-0.391,1.024-0.391,1.414,0
	c0.391,0.391,0.391,1.024,0,1.414L31.414,30L42.055,40.641z"/>
</svg>
