<?xml version="1.0" encoding="UTF-8" standalone="no"?>
<svg width="20px" height="20px" viewBox="0 0 20 20" version="1.1" xmlns="http://www.w3.org/2000/svg" xmlns:xlink="http://www.w3.org/1999/xlink">
    <g stroke="none" stroke-width="1" fill-rule="evenodd">
        <g transform="translate(3.000000, 0.000000)">
            <path d="M12.4968749,17.9121874 C12.4968749,18.6023128 11.9373129,19.1618749 11.2471874,19.1618749 L2.08281249,19.1618749 C1.39268705,19.1618749 0.833124995,18.6023128 0.833124995,17.9121874 L0.833124995,2.08281249 C0.833124995,1.39243045 1.39252705,0.833124995 2.08281249,0.833124995 L11.2471874,0.833124995 C11.9374729,0.833124995 12.4968749,1.39243045 12.4968749,2.08281249 L12.4968749,17.9121874 L12.4968749,17.9121874 Z M13.3299999,17.9121874 L13.3299999,2.08281249 C13.3299999,0.932276013 12.3975629,0 11.2471874,0 L2.08281249,0 C0.932437028,0 0,0.932276013 0,2.08281249 L0,17.9121874 C0,19.0624351 0.932564816,19.9949999 2.08281249,19.9949999 L11.2471874,19.9949999 C12.3974351,19.9949999 13.3299999,19.0624351 13.3299999,17.9121874 L13.3299999,17.9121874 Z"></path>
            <path d="M12.9134374,3.33249998 L0.416562498,3.33249998 L0.416562498,4.16562498 L12.9134374,4.16562498 L12.9134374,3.33249998 L12.9134374,3.33249998 Z"></path>
            <path d="M12.9134374,15.8293749 L0.416562498,15.8293749 L0.416562498,16.6624999 L12.9134374,16.6624999 L12.9134374,15.8293749 L12.9134374,15.8293749 Z"></path>
            <path d="M6.66499996,17.0790624 C6.20511496,17.0790624 5.83187497,17.4518858 5.83187497,17.9121874 C5.83187497,18.3720724 6.20511496,18.7453124 6.66499996,18.7453124 C7.12530152,18.7453124 7.49812496,18.3720724 7.49812496,17.9121874 C7.49812496,17.4518858 7.12530152,17.0790624 6.66499996,17.0790624"></path>
            <path d="M4.58218747,2.49937499 L8.74781245,2.49937499 L8.74781245,1.66624999 L4.58218747,1.66624999 L4.58218747,2.49937499 L4.58218747,2.49937499 Z"></path>
        </g>
    </g>
</svg>
