<?xml version="1.0" encoding="UTF-8" standalone="no"?>
<svg width="20px" height="20px" viewBox="0 0 20 20" version="1.1" xmlns="http://www.w3.org/2000/svg" xmlns:xlink="http://www.w3.org/1999/xlink">
    <g stroke="none" stroke-width="1" fill-rule="evenodd">
        <path d="M12.244898,2.85714286 C12.244898,3.9842221 11.3310557,4.89795918 10.2040816,4.89795918 C9.07710759,4.89795918 8.16326531,3.9842221 8.16326531,2.85714286 C8.16326531,1.73032031 9.07725908,0.816326531 10.2040816,0.816326531 C11.3309042,0.816326531 12.244898,1.73032031 12.244898,2.85714286 L12.244898,2.85714286 Z M13.0612245,2.85714286 C13.0612245,1.27947561 11.7817489,0 10.2040816,0 C8.62641439,0 7.34693878,1.27947561 7.34693878,2.85714286 C7.34693878,4.43508783 8.62628393,5.71428571 10.2040816,5.71428571 C11.7818793,5.71428571 13.0612245,4.43508783 13.0612245,2.85714286 L13.0612245,2.85714286 Z"></path>
        <path d="M6.53061224,6.53061224 L6.12244898,6.53061224 L6.12244898,6.93877551 C6.12244898,8.02785676 6.39132338,9.1485783 6.86945271,10.0676273 C7.34238688,10.9766903 8.05590826,11.4443357 8.57142857,11.8536987 L8.57142857,15.5102041 L11.8367347,15.5102041 C11.8367347,15.5102041 11.7614555,11.9007761 11.8571262,11.8536741 C12.5608372,11.5072131 13.1417492,10.8453051 13.5587944,10.0286633 C14.0243627,9.11700559 14.2857143,8.01251304 14.2857143,6.93877551 L14.2857143,6.53061224 L13.877551,6.53061224 L6.53061224,6.53061224 Z M12.9410613,9.42101877 C12.5517847,10.2884332 11.973265,10.9687527 11.2937345,11.2065884 L11.0204082,11.3022527 L11.0204082,11.5918367 L11.0332102,14.6938776 L9.3877551,14.7056479 L9.3877551,11.5918367 L9.3877551,11.3022527 L9.11442874,11.2065884 C8.43621685,10.9692143 7.85862416,10.2910718 7.46937029,9.42606625 C7.13429201,8.68145047 6.82410464,7.34693878 6.97085084,7.34693878 L13.4594463,7.34693878 C13.5988145,7.34693878 13.2747534,8.67746152 12.9410613,9.42101877 Z"></path>
        <path d="M13.4149978,14.9463988 C14.119897,15.0704015 14.6941634,15.2328958 15.0798574,15.4144261 C15.3855154,15.5582868 15.5102041,15.6818369 15.5102041,15.7142041 C15.5102041,16.1292523 13.0886447,16.7346122 10.2040816,16.7346122 C7.31951857,16.7346122 4.89795918,16.1292523 4.89795918,15.7142041 C4.89795918,15.681623 5.02347,15.5575982 5.33083012,15.41343 C5.71840959,15.2316347 6.29534651,15.0690863 7.00338551,14.9452431 L6.86273694,14.1411243 C5.13350796,14.4435841 4.08163265,14.9369694 4.08163265,15.7142041 C4.08163265,16.8770446 6.77734235,17.5509388 10.2040816,17.5509388 C13.6308209,17.5509388 16.3265306,16.8770446 16.3265306,15.7142041 C16.3265306,14.9385483 15.2787483,14.4454002 13.5564307,14.1424176 L13.4149978,14.9463988 L13.4149978,14.9463988 Z"></path>
        <path d="M13.4195026,13.2611261 C16.8732114,13.7072876 19.1836327,14.84264 19.1836327,15.9183673 C19.1836327,17.3790537 15.1687297,18.7755102 10.2040408,18.7755102 C5.23908145,18.7755102 1.22444898,17.3791058 1.22444898,15.9183673 C1.22444898,14.8422696 3.53566439,13.7069013 6.9905568,13.2611342 L6.88609626,12.4515189 C3.04077602,12.9476609 0.408122449,14.2409334 0.408122449,15.9183673 C0.408122449,18.064184 4.80009107,19.5918367 10.2040408,19.5918367 C15.6077266,19.5918367 19.9999592,18.0641381 19.9999592,15.9183673 C19.9999592,14.2413907 17.3681742,12.9481187 13.5240893,12.451527 L13.4195026,13.2611261 L13.4195026,13.2611261 Z"></path>
    </g>
</svg>
