<?xml version="1.0" encoding="UTF-8" standalone="no"?>
<svg width="20px" height="20px" viewBox="0 0 20 20" version="1.1" xmlns="http://www.w3.org/2000/svg" xmlns:xlink="http://www.w3.org/1999/xlink">
    <g stroke="none" stroke-width="1" fill-rule="evenodd">
        <g transform="translate(0.000000, 2.000000)">
            <path d="M0.454545455,7.72727273 L4.54545455,7.72727273 L4.54545455,6.81818182 L0.454545455,6.81818182 L0.454545455,7.72727273 L0.454545455,7.72727273 Z"></path>
            <path d="M15.4545455,7.72727273 L19.5454545,7.72727273 L19.5454545,6.81818182 L15.4545455,6.81818182 L15.4545455,7.72727273 L15.4545455,7.72727273 Z"></path>
            <path d="M8.18181818,7.72727273 L12.2727273,7.72727273 L12.2727273,6.81818182 L8.18181818,6.81818182 L8.18181818,7.72727273 L8.18181818,7.72727273 Z"></path>
            <path d="M19.5454545,2.27272727 L0.454545455,2.27272727 L0,2.27272727 L0,2.72727273 L0,15.4545455 L0,15.9090909 L0.454545455,15.9090909 L19.5454545,15.9090909 L20,15.9090909 L20,15.4545455 L20,2.72727273 L20,2.27272727 L19.5454545,2.27272727 Z M0.909090909,3.18181818 L19.0909091,3.18181818 L19.0909091,15 L0.909090909,15 L0.909090909,3.18181818 Z"></path>
            <path d="M13.4090909,0.227272727 L7.04545455,0.227272727 L7.04545455,2.95454545 L7.95454545,2.95454545 L7.9699707,1.13636364 L12.5,1.15356445 L12.5,2.95454545 L13.4090909,2.95454545 L13.4090909,0.227272727 Z"></path>
            <path d="M7.72727273,8.63636364 L8.18181818,8.63636364 L8.18181818,8.18181818 L8.18181818,6.36363636 L8.18181818,5.90909091 L7.72727273,5.90909091 L5,5.90909091 L4.54545455,5.90909091 L4.54545455,6.36363636 L4.54545455,8.18181818 L4.54545455,8.63636364 L5,8.63636364 L7.72727273,8.63636364 Z M5.45454545,6.81818182 L7.27272727,6.81818182 L7.27272727,7.72727273 L5.45454545,7.72727273 L5.45454545,6.81818182 Z"></path>
            <path d="M15.4545455,8.63636364 L15.9090909,8.63636364 L15.9090909,8.18181818 L15.9090909,6.36363636 L15.9090909,5.90909091 L15.4545455,5.90909091 L12.7272727,5.90909091 L12.2727273,5.90909091 L12.2727273,6.36363636 L12.2727273,8.18181818 L12.2727273,8.63636364 L12.7272727,8.63636364 L15.4545455,8.63636364 Z M13.1818182,6.81818182 L15,6.81818182 L15,7.72727273 L13.1818182,7.72727273 L13.1818182,6.81818182 Z"></path>
        </g>
    </g>
</svg>
