<?xml version="1.0" encoding="utf-8"?>
<!-- Generator: Adobe Illustrator 17.0.0, SVG Export Plug-In . SVG Version: 6.00 Build 0)  -->
<!DOCTYPE svg PUBLIC "-//W3C//DTD SVG 1.1//EN" "http://www.w3.org/Graphics/SVG/1.1/DTD/svg11.dtd">
<svg version="1.1" id="Layer_2" xmlns="http://www.w3.org/2000/svg" xmlns:xlink="http://www.w3.org/1999/xlink" x="0px" y="0px"
	 width="48px" height="48px" viewBox="0 0 48 48" enable-background="new 0 0 48 48" xml:space="preserve">
<path fill="#010101" d="M40.266,27.152c-0.75-0.31-1.607-0.139-2.18,0.434l-4,4c-0.781,0.781-0.781,2.047,0,2.828
	c0.605,0.605,1.503,0.742,2.237,0.409c-2.028,4.798-6.487,8.321-11.823,9.036V20h7c1.104,0,2-0.895,2-2c0-1.104-0.896-2-2-2h-7
	V9.576c1.763-0.773,3-2.531,3-4.576c0-2.757-2.243-5-5-5c-2.757,0-5,2.243-5,5c0,2.045,1.237,3.803,3,4.576V16h-7
	c-1.105,0-2,0.896-2,2c0,1.105,0.895,2,2,2h7v23.859c-5.336-0.715-9.795-4.237-11.823-9.036c0.736,0.333,1.633,0.196,2.237-0.409
	c0.781-0.781,0.781-2.047,0-2.828l-4-4c-0.572-0.572-1.431-0.743-2.18-0.434C3.987,27.462,3.5,28.191,3.5,29
	c0,10.477,8.523,19,19,19c10.477,0,19-8.523,19-19C41.5,28.191,41.013,27.462,40.266,27.152z"/>
</svg>
