<?xml version="1.0" encoding="utf-8"?>
<!-- Generator: Adobe Illustrator 17.0.0, SVG Export Plug-In . SVG Version: 6.00 Build 0)  -->
<!DOCTYPE svg PUBLIC "-//W3C//DTD SVG 1.1//EN" "http://www.w3.org/Graphics/SVG/1.1/DTD/svg11.dtd">
<svg version="1.1" id="Layer_2" xmlns="http://www.w3.org/2000/svg" xmlns:xlink="http://www.w3.org/1999/xlink" x="0px" y="0px"
	 width="48px" height="48px" viewBox="0 0 48 48" enable-background="new 0 0 48 48" xml:space="preserve">
<g>
	<path fill="#010101" d="M4,40v2c0,0.552,0.447,1,1,1h38c0.553,0,1-0.448,1-1v-2c0-0.552-0.447-1-1-1H5C4.447,39,4,39.448,4,40z"/>
	<path fill="#010101" d="M11,38c0.553,0,1-0.448,1-1V20c0-0.552-0.447-1-1-1H7c-0.553,0-1,0.448-1,1v17c0,0.552,0.447,1,1,1H11z"/>
	<path fill="#010101" d="M21,38c0.553,0,1-0.448,1-1V20c0-0.552-0.447-1-1-1h-4c-0.553,0-1,0.448-1,1v17c0,0.552,0.447,1,1,1H21z"/>
	<path fill="#010101" d="M31,38c0.553,0,1-0.448,1-1V20c0-0.552-0.447-1-1-1h-4c-0.553,0-1,0.448-1,1v17c0,0.552,0.447,1,1,1H31z"/>
	<path fill="#010101" d="M41,38c0.553,0,1-0.448,1-1V20c0-0.552-0.447-1-1-1h-4c-0.553,0-1,0.448-1,1v17c0,0.552,0.447,1,1,1H41z"/>
	<path fill="#010101" d="M6,12h36c0.553,0,1-0.448,1-1c0-6.477-7.814-11-19-11C12.813,0,5,4.523,5,11C5,11.552,5.447,12,6,12z M21,4
		c0.553,0,1,0.448,1,1c0,0.552-0.447,1-1,1c-2.468,0-6,1.178-6,2c0,0.552-0.447,1-1,1c-0.553,0-1-0.448-1-1C13,4.985,18.949,4,21,4z
		"/>
	<path fill="#010101" d="M3,18h42c0.553,0,1-0.448,1-1v-3c0-0.552-0.447-1-1-1H3c-0.553,0-1,0.448-1,1v3C2,17.552,2.447,18,3,18z"/>
	<path fill="#010101" d="M47,44H1c-0.553,0-1,0.448-1,1v2c0,0.552,0.447,1,1,1h46c0.553,0,1-0.448,1-1v-2C48,44.448,47.553,44,47,44
		z"/>
</g>
</svg>
