<?xml version="1.0" encoding="utf-8"?>
<!-- Generator: Adobe Illustrator 17.0.0, SVG Export Plug-In . SVG Version: 6.00 Build 0)  -->
<!DOCTYPE svg PUBLIC "-//W3C//DTD SVG 1.1//EN" "http://www.w3.org/Graphics/SVG/1.1/DTD/svg11.dtd">
<svg version="1.1" id="Layer_2" xmlns="http://www.w3.org/2000/svg" xmlns:xlink="http://www.w3.org/1999/xlink" x="0px" y="0px"
	 width="48px" height="48px" viewBox="0 0 48 48" enable-background="new 0 0 48 48" xml:space="preserve">
<g>
	<path fill="#010101" d="M9.775,25.167c0.098,0.247,0.289,0.444,0.533,0.549c0.126,0.055,0.261,0.082,0.396,0.082
		c0.125,0,0.25-0.023,0.368-0.07l4.648-1.843c0.247-0.098,0.444-0.29,0.55-0.533l0.726-1.678l1.678,0.726
		c0.244,0.105,0.519,0.11,0.766,0.012l8.366-3.316l5.744,14.491c-4.419,0.271-8.442,1.758-11.193,4.195
		c-0.413,0.366-0.452,0.998-0.086,1.412c0.198,0.223,0.473,0.337,0.749,0.337c0.236,0,0.473-0.083,0.663-0.252
		c2.649-2.347,6.879-3.748,11.315-3.748l0.001,0l0.001,0H47c0.553,0,1-0.448,1-1c0-0.552-0.447-1-1-1H35.679l-6.014-15.172
		l8.368-3.316c0.247-0.098,0.444-0.289,0.55-0.533l0.726-1.678l1.679,0.726c0.243,0.105,0.519,0.109,0.766,0.011l4.647-1.843
		c0.513-0.204,0.764-0.785,0.561-1.298l-0.736-1.859C44.418,4.01,40.076,1.5,33.997,1.5c-3.141,0-6.656,0.695-10.219,2.002
		l-0.376-0.948c-0.205-0.514-0.787-0.764-1.299-0.561c-0.513,0.203-0.764,0.784-0.561,1.298l0.379,0.955
		C11.428,8.714,6.255,16.284,9.039,23.307L9.775,25.167z"/>
	<path fill="#010101" d="M47,45.531c-1.388,0-3-1.311-3-3c0-0.552-0.447-1-1-1s-1,0.448-1,1c0,1.689-1.612,3-3,3s-3-1.311-3-3
		c0-0.552-0.447-1-1-1s-1,0.448-1,1c0,1.689-1.612,3-3,3s-3-1.311-3-3c0-0.552-0.447-1-1-1s-1,0.448-1,1c0,1.689-1.612,3-3,3
		s-3-1.311-3-3c0-0.552-0.447-1-1-1s-1,0.448-1,1c0,1.689-1.612,3-3,3s-3-1.311-3-3c0-0.552-0.447-1-1-1s-1,0.448-1,1
		c0,1.689-1.612,3-3,3s-3-1.311-3-3c0-0.552-0.447-1-1-1s-1,0.448-1,1c0,1.065-0.804,1.982-1.556,2.486
		c-0.459,0.307-0.583,0.928-0.275,1.387c0.307,0.459,0.93,0.582,1.387,0.275c0.552-0.369,1.022-0.806,1.4-1.288
		c0.926,1.276,2.425,2.14,4.044,2.14c1.594,0,3.071-0.837,4-2.08c0.929,1.243,2.406,2.08,4,2.08c1.594,0,3.071-0.837,4-2.08
		c0.929,1.243,2.406,2.08,4,2.08c1.594,0,3.071-0.837,4-2.08c0.929,1.243,2.406,2.08,4,2.08c1.594,0,3.071-0.837,4-2.08
		c0.929,1.243,2.406,2.08,4,2.08c1.594,0,3.071-0.837,4-2.08c0.929,1.243,2.406,2.08,4,2.08c0.553,0,1-0.448,1-1
		C48,45.979,47.553,45.531,47,45.531z"/>
</g>
</svg>
