<?xml version="1.0" encoding="utf-8"?>
<!-- Generator: Adobe Illustrator 17.0.0, SVG Export Plug-In . SVG Version: 6.00 Build 0)  -->
<!DOCTYPE svg PUBLIC "-//W3C//DTD SVG 1.1//EN" "http://www.w3.org/Graphics/SVG/1.1/DTD/svg11.dtd">
<svg version="1.1" id="Layer_2" xmlns="http://www.w3.org/2000/svg" xmlns:xlink="http://www.w3.org/1999/xlink" x="0px" y="0px"
	 width="48px" height="48px" viewBox="0 0 48 48" enable-background="new 0 0 48 48" xml:space="preserve">
<g>
	<path fill="#010101" d="M23,18h-3V7c0-0.552-0.447-1-1-1h-7V1c0-0.552-0.447-1-1-1c-0.553,0-1,0.448-1,1v5H5C4.447,6,4,6.448,4,7
		v11H1c-0.553,0-1,0.448-1,1v28c0,0.552,0.447,1,1,1h7v-5c0-0.552,0.447-1,1-1h4c0.553,0,1,0.448,1,1v5h9c0.553,0,1-0.448,1-1V19
		C24,18.448,23.553,18,23,18z M9,10h6c0.553,0,1,0.448,1,1c0,0.552-0.447,1-1,1H9c-0.553,0-1-0.448-1-1C8,10.448,8.447,10,9,10z
		 M9,14h6c0.553,0,1,0.448,1,1c0,0.552-0.447,1-1,1H9c-0.553,0-1-0.448-1-1C8,14.448,8.447,14,9,14z M19,38H5c-0.553,0-1-0.448-1-1
		c0-0.552,0.447-1,1-1h14c0.553,0,1,0.448,1,1C20,37.552,19.553,38,19,38z M19,32H5c-0.553,0-1-0.448-1-1c0-0.552,0.447-1,1-1h14
		c0.553,0,1,0.448,1,1C20,31.552,19.553,32,19,32z M19,26H5c-0.553,0-1-0.448-1-1c0-0.552,0.447-1,1-1h14c0.553,0,1,0.448,1,1
		C20,25.552,19.553,26,19,26z"/>
	<path fill="#010101" d="M47,10H29c-0.553,0-1,0.448-1,1v36c0,0.552,0.447,1,1,1h7v-5c0-0.552,0.447-1,1-1h4c0.553,0,1,0.448,1,1v5
		h5c0.553,0,1-0.448,1-1V11C48,10.448,47.553,10,47,10z M43,40H33c-0.553,0-1-0.448-1-1c0-0.552,0.447-1,1-1h10c0.553,0,1,0.448,1,1
		C44,39.552,43.553,40,43,40z M43,36H33c-0.553,0-1-0.448-1-1c0-0.552,0.447-1,1-1h10c0.553,0,1,0.448,1,1
		C44,35.552,43.553,36,43,36z M43,32H33c-0.553,0-1-0.448-1-1c0-0.552,0.447-1,1-1h10c0.553,0,1,0.448,1,1
		C44,31.552,43.553,32,43,32z M43,28H33c-0.553,0-1-0.448-1-1c0-0.552,0.447-1,1-1h10c0.553,0,1,0.448,1,1
		C44,27.552,43.553,28,43,28z M43,24H33c-0.553,0-1-0.448-1-1c0-0.552,0.447-1,1-1h10c0.553,0,1,0.448,1,1
		C44,23.552,43.553,24,43,24z M43,20H33c-0.553,0-1-0.448-1-1c0-0.552,0.447-1,1-1h10c0.553,0,1,0.448,1,1
		C44,19.552,43.553,20,43,20z M43,16H33c-0.553,0-1-0.448-1-1c0-0.552,0.447-1,1-1h10c0.553,0,1,0.448,1,1
		C44,15.552,43.553,16,43,16z"/>
</g>
</svg>
