<?xml version="1.0" encoding="utf-8"?>
<!-- Generator: Adobe Illustrator 17.0.0, SVG Export Plug-In . SVG Version: 6.00 Build 0)  -->
<!DOCTYPE svg PUBLIC "-//W3C//DTD SVG 1.1//EN" "http://www.w3.org/Graphics/SVG/1.1/DTD/svg11.dtd">
<svg version="1.1" id="Layer_2" xmlns="http://www.w3.org/2000/svg" xmlns:xlink="http://www.w3.org/1999/xlink" x="0px" y="0px"
	 width="48px" height="48px" viewBox="0 0 48 48" enable-background="new 0 0 48 48" xml:space="preserve">
<g>
	<path fill="#010101" d="M7,9h34c0.553,0,1-0.448,1-1V6c0-0.443-0.292-0.834-0.718-0.959l-17-5c-0.184-0.054-0.381-0.054-0.564,0
		l-17,5C6.292,5.166,6,5.557,6,6v2C6,8.552,6.447,9,7,9z"/>
	<path fill="#010101" d="M47,46h-7V11c0-0.552-0.447-1-1-1H9c-0.553,0-1,0.448-1,1v35H1c-0.553,0-1,0.448-1,1c0,0.552,0.447,1,1,1h8
		h11h1h6h1h11h8c0.553,0,1-0.448,1-1C48,46.448,47.553,46,47,46z M17,41h-4v-4h4V41z M17,33h-4v-4h4V33z M17,25h-4v-4h4V25z M17,17
		h-4v-4h4V17z M21,13h6v4h-6V13z M21,21h6v4h-6V21z M21,29h6v4h-6V29z M28,46h-8v-9c0-0.552,0.447-1,1-1h6c0.553,0,1,0.448,1,1V46z
		 M35,41h-4v-4h4V41z M35,33h-4v-4h4V33z M35,25h-4v-4h4V25z M35,17h-4v-4h4V17z"/>
</g>
</svg>
