<?xml version="1.0" encoding="utf-8"?>
<!-- Generator: Adobe Illustrator 17.0.0, SVG Export Plug-In . SVG Version: 6.00 Build 0)  -->
<!DOCTYPE svg PUBLIC "-//W3C//DTD SVG 1.1//EN" "http://www.w3.org/Graphics/SVG/1.1/DTD/svg11.dtd">
<svg version="1.1" id="Layer_2" xmlns="http://www.w3.org/2000/svg" xmlns:xlink="http://www.w3.org/1999/xlink" x="0px" y="0px"
	 width="48px" height="48px" viewBox="0 0 48 48" enable-background="new 0 0 48 48" xml:space="preserve">
<path fill="#010101" d="M47,46h-1V27c0-0.552-0.447-1-1-1h-5v-1c0-0.552-0.447-1-1-1c-0.553,0-1,0.448-1,1v1h-1
	c-0.553,0-1,0.448-1,1v19h-2V9c0-0.552-0.447-1-1-1h-5V5c0-0.552-0.447-1-1-1h-1V1c0-0.552-0.447-1-1-1c-0.553,0-1,0.448-1,1v3h-3
	c-0.553,0-1,0.448-1,1v3h-5c-0.553,0-1,0.448-1,1v37h-2V27c0-0.552-0.447-1-1-1h-1v-1c0-0.552-0.447-1-1-1c-0.553,0-1,0.448-1,1v1H3
	c-0.553,0-1,0.448-1,1v19H1c-0.553,0-1,0.448-1,1c0,0.552,0.447,1,1,1h2h8h4h18h4h8h2c0.553,0,1-0.448,1-1
	C48,46.448,47.553,46,47,46z M29,40H19c-0.553,0-1-0.448-1-1c0-0.552,0.447-1,1-1h10c0.553,0,1,0.448,1,1C30,39.552,29.553,40,29,40
	z M29,34H19c-0.553,0-1-0.448-1-1c0-0.552,0.447-1,1-1h10c0.553,0,1,0.448,1,1C30,33.552,29.553,34,29,34z M29,28H19
	c-0.553,0-1-0.448-1-1c0-0.552,0.447-1,1-1h10c0.553,0,1,0.448,1,1C30,27.552,29.553,28,29,28z M29,22H19c-0.553,0-1-0.448-1-1
	c0-0.552,0.447-1,1-1h10c0.553,0,1,0.448,1,1C30,21.552,29.553,22,29,22z M29,16H19c-0.553,0-1-0.448-1-1c0-0.552,0.447-1,1-1h10
	c0.553,0,1,0.448,1,1C30,15.552,29.553,16,29,16z"/>
</svg>
