<?xml version="1.0" encoding="utf-8"?>
<!-- Generator: Adobe Illustrator 17.0.0, SVG Export Plug-In . SVG Version: 6.00 Build 0)  -->
<!DOCTYPE svg PUBLIC "-//W3C//DTD SVG 1.1//EN" "http://www.w3.org/Graphics/SVG/1.1/DTD/svg11.dtd">
<svg version="1.1" id="Layer_2" xmlns="http://www.w3.org/2000/svg" xmlns:xlink="http://www.w3.org/1999/xlink" x="0px" y="0px"
	 width="48px" height="48px" viewBox="0 0 48 48" enable-background="new 0 0 48 48" xml:space="preserve">
<g>
	<path fill="#010101" d="M39,0H9C4.037,0,0,4.037,0,9c0,2.353,0.915,4.491,2.398,6.096c0.144,0.062,0.278,0.148,0.382,0.278
		C3.979,16.871,6.654,18,9,18c3.468,0,7-3.533,7-7c0-1.794-1.671-5-5-5C8.56,6,8,8.606,8,9c0,0.552-0.447,1-1,1
		c-0.553,0-1-0.448-1-1c0-1.689,1.51-5,5-5c3.523,0,5.809,2.529,6.642,5h12.717C31.191,6.529,33.477,4,37,4c3.49,0,5,3.311,5,5
		c0,0.552-0.447,1-1,1c-0.553,0-1-0.448-1-1c0-0.394-0.56-3-3-3c-3.329,0-5,3.206-5,5c0,3.467,3.532,7,7,7
		c2.346,0,5.02-1.129,6.22-2.625c0.105-0.13,0.239-0.216,0.382-0.278C47.085,13.491,48,11.353,48,9C48,4.037,43.963,0,39,0z"/>
	<path fill="#010101" d="M21,18h-6c-0.553,0-1,0.448-1,1v28c0,0.552,0.447,1,1,1h6c0.553,0,1-0.448,1-1V19
		C22,18.448,21.553,18,21,18z"/>
	<path fill="#010101" d="M33,18h-6c-0.553,0-1,0.448-1,1v28c0,0.552,0.447,1,1,1h6c0.553,0,1-0.448,1-1V19
		C34,18.448,33.553,18,33,18z"/>
	<path fill="#010101" d="M31.771,16C30.68,14.516,30,12.767,30,11c0-0.319,0.036-0.656,0.097-1H17.903
		C17.964,10.344,18,10.681,18,11c0,1.767-0.68,3.516-1.771,5H31.771z"/>
</g>
</svg>
