<?xml version="1.0" encoding="utf-8"?>
<!-- Generator: Adobe Illustrator 17.0.0, SVG Export Plug-In . SVG Version: 6.00 Build 0)  -->
<!DOCTYPE svg PUBLIC "-//W3C//DTD SVG 1.1//EN" "http://www.w3.org/Graphics/SVG/1.1/DTD/svg11.dtd">
<svg version="1.1" id="Layer_2" xmlns="http://www.w3.org/2000/svg" xmlns:xlink="http://www.w3.org/1999/xlink" x="0px" y="0px"
	 width="48px" height="48px" viewBox="0 0 48 48" enable-background="new 0 0 48 48" xml:space="preserve">
<path fill="#010101" d="M41,18c0.266,0,0.519-0.105,0.707-0.293l6-6c0.391-0.391,0.391-1.023,0-1.414l-6-6
	C41.519,4.106,41.266,4,41,4H24V1c0-0.552-0.447-1-1-1c-0.553,0-1,0.448-1,1v3H7C6.447,4,6,4.448,6,5v12c0,0.552,0.447,1,1,1h15v2H7
	c-0.266,0-0.52,0.106-0.707,0.293l-6,6c-0.391,0.391-0.391,1.023,0,1.414l6,6C6.48,33.895,6.734,34,7,34h15v13c0,0.552,0.447,1,1,1
	c0.553,0,1-0.448,1-1V34h17c0.553,0,1-0.448,1-1V21c0-0.552-0.447-1-1-1H24v-2H41z"/>
</svg>
