<?xml version="1.0" encoding="utf-8"?>
<!-- Generator: Adobe Illustrator 17.0.0, SVG Export Plug-In . SVG Version: 6.00 Build 0)  -->
<!DOCTYPE svg PUBLIC "-//W3C//DTD SVG 1.1//EN" "http://www.w3.org/Graphics/SVG/1.1/DTD/svg11.dtd">
<svg version="1.1" id="Layer_2" xmlns="http://www.w3.org/2000/svg" xmlns:xlink="http://www.w3.org/1999/xlink" x="0px" y="0px"
	 width="48px" height="48px" viewBox="0 0 48 48" enable-background="new 0 0 48 48" xml:space="preserve">
<g>
	<path fill="#010101" d="M36,27.712v-6.835l-12,6.8v-6.981l-10.776,7.058L9.509,10H3.018L0.01,31.209L0,48h48V20.818L36,27.712z
		 M18.066,42.981h-3.012c-0.553,0-1-0.448-1-1c0-0.552,0.447-1,1-1h3.012c0.553,0,1,0.448,1,1
		C19.066,42.533,18.619,42.981,18.066,42.981z M18.066,37.961h-3.012c-0.553,0-1-0.447-1-1c0-0.552,0.447-1,1-1h3.012
		c0.553,0,1,0.448,1,1C19.066,37.514,18.619,37.961,18.066,37.961z M30.113,42.981h-3.012c-0.553,0-1-0.448-1-1c0-0.552,0.447-1,1-1
		h3.012c0.553,0,1,0.448,1,1C31.113,42.533,30.666,42.981,30.113,42.981z M30.113,37.961h-3.012c-0.553,0-1-0.447-1-1
		c0-0.552,0.447-1,1-1h3.012c0.553,0,1,0.448,1,1C31.113,37.514,30.666,37.961,30.113,37.961z M42.159,42.981h-3.012
		c-0.553,0-1-0.448-1-1c0-0.552,0.447-1,1-1h3.012c0.553,0,1,0.448,1,1C43.159,42.533,42.712,42.981,42.159,42.981z M42.159,37.961
		h-3.012c-0.553,0-1-0.447-1-1c0-0.552,0.447-1,1-1h3.012c0.553,0,1,0.448,1,1C43.159,37.514,42.712,37.961,42.159,37.961z"/>
	<path fill="#010101" d="M5.546,6.689c0.927-0.579,1.9-0.861,2.976-0.861c1.821,0,3.756,0.795,5.805,1.635
		c2.372,0.974,4.824,1.981,7.529,1.981c3.982,0,7.604-2.299,11.071-7.028c0.302-0.412,0.245-0.986-0.134-1.331
		c-0.378-0.345-0.955-0.348-1.337-0.008c-1.616,1.436-3.285,2.105-5.252,2.105c-2.031,0-4.09-0.704-6.27-1.449
		c-2.238-0.766-4.553-1.557-6.917-1.557c-3.367,0-6.247,1.656-8.802,5.062C3.927,5.626,3.953,6.162,4.279,6.517
		S5.137,6.943,5.546,6.689z"/>
</g>
</svg>
