<?xml version="1.0" encoding="utf-8"?>
<!-- Generator: Adobe Illustrator 17.0.0, SVG Export Plug-In . SVG Version: 6.00 Build 0)  -->
<!DOCTYPE svg PUBLIC "-//W3C//DTD SVG 1.1//EN" "http://www.w3.org/Graphics/SVG/1.1/DTD/svg11.dtd">
<svg version="1.1" id="Layer_2" xmlns="http://www.w3.org/2000/svg" xmlns:xlink="http://www.w3.org/1999/xlink" x="0px" y="0px"
	 width="48px" height="48px" viewBox="0 0 48 48" enable-background="new 0 0 48 48" xml:space="preserve">
<path fill="#010101" d="M47.707,12.293l-6-6c-0.391-0.391-1.023-0.391-1.414,0l-6,6C34.105,12.481,34,12.735,34,13v3h-2v-3
	c0-0.265-0.106-0.519-0.293-0.707l-7-7c-0.391-0.391-1.023-0.391-1.414,0l-7,7C16.105,12.481,16,12.735,16,13v3h-2v-3
	c0-0.265-0.106-0.519-0.293-0.707l-6-6c-0.391-0.391-1.023-0.391-1.414,0l-6,6C0.105,12.481,0,12.735,0,13v28c0,0.552,0.447,1,1,1
	h12c0.553,0,1-0.448,1-1v-5h2v5c0,0.552,0.447,1,1,1h14c0.553,0,1-0.448,1-1v-5h2v5c0,0.552,0.447,1,1,1h12c0.553,0,1-0.448,1-1V13
	C48,12.735,47.894,12.481,47.707,12.293z M16,34h-2V18h2V34z M34,34h-2V18h2V34z"/>
</svg>
