<?xml version="1.0" encoding="utf-8"?>
<!-- Generator: Adobe Illustrator 17.1.0, SVG Export Plug-In . SVG Version: 6.00 Build 0)  -->
<!DOCTYPE svg PUBLIC "-//W3C//DTD SVG 1.0//EN" "http://www.w3.org/TR/2001/REC-SVG-20010904/DTD/svg10.dtd">
<svg version="1.0" id="Layer_1" xmlns="http://www.w3.org/2000/svg" xmlns:xlink="http://www.w3.org/1999/xlink" x="0px" y="0px"
	 width="48px" height="48px" viewBox="0 0 48 48" enable-background="new 0 0 48 48" xml:space="preserve">
<g>
	<path d="M30.103,34.902c1.037-3.31,1.647-6.672,1.83-10H16.078c0.182,3.328,0.793,6.69,1.829,10H30.103z"/>
	<path d="M30.652,12.902H17.359c-0.903,3.211-1.355,6.576-1.344,10h15.981C32.007,19.478,31.556,16.113,30.652,12.902z"/>
	<path d="M18.589,36.902c1.307,3.551,3.112,7.018,5.417,10.289c2.305-3.271,4.11-6.737,5.417-10.289H18.589z"/>
	<path d="M30.022,10.902c-1.331-3.815-3.335-7.368-6.016-10.485c-2.681,3.117-4.685,6.669-6.016,10.485H30.022z"/>
	<path d="M44.135,10.902C40.252,4.95,33.79,0.819,26.337,0.102c2.588,3.25,4.524,6.902,5.798,10.8H44.135z"/>
	<path d="M15.283,12.902H2.472c-1.5,3.001-2.367,6.385-2.452,10h13.999C14.008,19.487,14.43,16.125,15.283,12.902z"/>
	<path d="M21.68,0.095C13.91,0.794,7.399,4.896,3.6,10.902h12.276C17.152,7.002,19.089,3.346,21.68,0.095z"/>
	<path d="M32.199,34.902h13.14c1.556-3.021,2.494-6.409,2.642-10H33.933C33.76,28.23,33.185,31.59,32.199,34.902z"/>
	<path d="M33.992,22.902H47.98c-0.149-3.594-1.099-6.983-2.674-10H32.728C33.581,16.125,34.003,19.487,33.992,22.902z"/>
	<path d="M14.078,24.902H0.049c0.201,3.594,1.163,6.982,2.723,10h13.041C14.826,31.59,14.251,28.23,14.078,24.902z"/>
	<path d="M3.927,36.902c3.957,6.165,10.553,10.396,18.132,11.003c-2.408-3.499-4.269-7.208-5.596-11.003H3.927z"/>
	<path d="M25.957,47.897c7.646-0.638,14.284-4.867,18.226-10.995H31.548C30.222,40.694,28.362,44.4,25.957,47.897z"/>
</g>
</svg>
