<?xml version="1.0" encoding="utf-8"?>
<!-- Generator: Adobe Illustrator 17.0.0, SVG Export Plug-In . SVG Version: 6.00 Build 0)  -->
<!DOCTYPE svg PUBLIC "-//W3C//DTD SVG 1.1//EN" "http://www.w3.org/Graphics/SVG/1.1/DTD/svg11.dtd">
<svg version="1.1" id="Layer_2" xmlns="http://www.w3.org/2000/svg" xmlns:xlink="http://www.w3.org/1999/xlink" x="0px" y="0px"
	 width="48px" height="48px" viewBox="0 0 48 48" enable-background="new 0 0 48 48" xml:space="preserve">
<path fill="#010101" d="M42.28,8.473c-0.94,2.663-2.851,6.93-5.833,8.42c-0.214,0.107-0.46,0.133-0.689,0.076
	c-2.113-0.529-4.253,0.253-5.348,0.877c0.461,0.619,0.975,1.692,1.467,3.548c0.427,0.151,1.256-0.079,1.676-0.289
	c0.385-0.191,0.849-0.118,1.154,0.188c2.426,2.426-0.719,5.696-2.598,7.649c-0.332,0.345-0.755,0.785-0.991,1.073
	c0.079,0.075,0.173,0.157,0.247,0.221c0.457,0.398,1.083,0.942,1.113,1.806c0.02,0.573-0.24,1.134-0.771,1.665
	c-1.037,1.037-2.083,1.647-2.734,1.963c-0.286,3.398-2.792,5.33-6.973,5.33c-1.95,0-4-4.985-4-6c0-0.736,0.321-1.38,0.605-1.947
	C18.8,32.664,19,32.262,19,31.999c-0.045-0.342-0.859-1.443-1.707-2.293C17.105,29.518,17,29.263,17,28.999
	c0-0.858-0.154-1.44-0.459-1.727c-0.501-0.474-1.697-0.405-2.955-0.333c-0.517,0.029-1.052,0.06-1.586,0.06c-3.164,0-4-3.271-4-5
	c0-0.319,0.066-7.833,5.804-8.981c2.614-0.523,4.38-0.368,5.405,0.473c0.362,0.297,0.58,0.646,0.692,0.968
	c1.053,0.777,2.939,0.339,4.616-0.051c0.556-0.129,1.093-0.254,1.591-0.331c0.186-1.691,0.191-3.323,0.017-4.035
	c-1.227,0.517-2.442,0.513-3.396-0.017c-0.987-0.549-1.601-1.59-1.726-2.933c-0.267-2.875,5.282-5.113,9.094-6.306
	C28.149,0.274,26.106-0.001,24-0.001c-13.233,0-24,10.767-24,24c0,13.233,10.767,24,24,24s24-10.767,24-24
	C48,18.082,45.843,12.661,42.28,8.473z"/>
</svg>
