<?xml version="1.0" encoding="utf-8"?>
<!-- Generator: Adobe Illustrator 17.0.0, SVG Export Plug-In . SVG Version: 6.00 Build 0)  -->
<!DOCTYPE svg PUBLIC "-//W3C//DTD SVG 1.1//EN" "http://www.w3.org/Graphics/SVG/1.1/DTD/svg11.dtd">
<svg version="1.1" id="Layer_2" xmlns="http://www.w3.org/2000/svg" xmlns:xlink="http://www.w3.org/1999/xlink" x="0px" y="0px"
	 width="48px" height="48px" viewBox="0 0 48 48" enable-background="new 0 0 48 48" xml:space="preserve">
<g>
	<path fill="#010101" d="M40.293,14.707C40.484,14.898,40.74,15,41,15c0.129,0,0.259-0.025,0.383-0.076
		C41.757,14.769,42,14.404,42,14V5c0-0.552-0.447-1-1-1h-9c-0.404,0-0.77,0.244-0.924,0.617c-0.155,0.374-0.069,0.804,0.217,1.09
		L40.293,14.707z"/>
	<polygon fill="#010101" points="6,25.242 6,48 20,48 20,34 28,34 28,48 42,48 42,25.242 24,7.243 	"/>
	<path fill="#010101" d="M47.925,25.622c-0.044-0.108-0.114-0.207-0.198-0.297c-0.009-0.009-0.012-0.022-0.021-0.031l-23-23.001
		c-0.383-0.383-1.031-0.383-1.414,0L6,19.586l-5.707,5.707c-0.098,0.098-0.171,0.21-0.22,0.331C0.026,25.741,0,25.867,0,26
		c0,0.132,0.026,0.26,0.074,0.378c0.044,0.108,0.114,0.207,0.198,0.297c0.009,0.009,0.012,0.022,0.021,0.031
		c0.379,0.381,1.018,0.381,1.402,0.008c0.004-0.003,0.009-0.004,0.012-0.008L6,22.414l18-18l18,18l4.293,4.293
		c0.004,0.003,0.008,0.004,0.012,0.008c0.38,0.369,1.009,0.369,1.39,0c0.004-0.003,0.009-0.004,0.012-0.008
		c0.098-0.098,0.171-0.21,0.22-0.33C47.974,26.259,48,26.133,48,26C48,25.868,47.974,25.74,47.925,25.622z"/>
</g>
</svg>
