<?xml version="1.0" encoding="utf-8"?>
<!-- Generator: Adobe Illustrator 17.0.0, SVG Export Plug-In . SVG Version: 6.00 Build 0)  -->
<!DOCTYPE svg PUBLIC "-//W3C//DTD SVG 1.1//EN" "http://www.w3.org/Graphics/SVG/1.1/DTD/svg11.dtd">
<svg version="1.1" id="Layer_2" xmlns="http://www.w3.org/2000/svg" xmlns:xlink="http://www.w3.org/1999/xlink" x="0px" y="0px"
	 width="48px" height="48px" viewBox="0 0 48 48" enable-background="new 0 0 48 48" xml:space="preserve">
<g>
	<polygon fill="#010101" points="5.997,27.369 5.997,48 19.997,48 19.997,34 27.997,34 27.997,48 41.997,48 41.997,27.369 
		23.997,10.151 	"/>
	<path fill="#010101" d="M47.918,27.621c-0.051-0.126-0.126-0.244-0.23-0.344l-22.99-21.99l0,0l-0.701-0.671l-0.702,0.671v0
		l-22.99,21.99c-0.151,0.145-0.229,0.33-0.269,0.521c-0.065,0.312,0.002,0.646,0.238,0.892c0.363,0.383,1.02,0.396,1.404,0.039
		c0.003-0.003,0.007-0.004,0.01-0.007l4.309-4.121l18-17.218l22.309,21.339c0.003,0.003,0.008,0.004,0.011,0.007
		c0.374,0.346,0.998,0.335,1.366-0.014c0.011-0.01,0.026-0.014,0.037-0.025c0.054-0.057,0.083-0.127,0.121-0.191
		C48,28.229,48.035,27.907,47.918,27.621z"/>
	<path fill="#010101" d="M33.986,11.403l6.304,6.304c0.155,0.155,0.356,0.234,0.563,0.265C40.901,17.979,40.947,18,40.997,18
		c0.129,0,0.259-0.025,0.383-0.076c0.374-0.155,0.617-0.519,0.617-0.924V9c0-0.306-0.145-0.57-0.362-0.754
		c0.021-0.081,0.05-0.159,0.05-0.246c0-1.331,0.482-1.629,1.358-2.171C44.158,5.141,45.684,4.197,45.684,1c0-0.552-0.447-1-1-1
		s-1,0.448-1,1c0,2.082-0.71,2.521-1.692,3.128C41.018,4.73,39.684,5.554,39.684,8h-3c0-1.331,0.482-1.629,1.358-2.171
		C39.158,5.141,40.684,4.197,40.684,1c0-0.552-0.447-1-1-1s-1,0.448-1,1c0,2.082-0.71,2.521-1.692,3.128
		C36.018,4.73,34.684,5.554,34.684,8h-1.688c-0.404,0-0.769,0.244-0.924,0.617c-0.155,0.374-0.069,0.804,0.217,1.09L33.986,11.403z"
		/>
</g>
</svg>
