<?xml version="1.0" encoding="utf-8"?>
<!-- Generator: Adobe Illustrator 17.0.0, SVG Export Plug-In . SVG Version: 6.00 Build 0)  -->
<!DOCTYPE svg PUBLIC "-//W3C//DTD SVG 1.1//EN" "http://www.w3.org/Graphics/SVG/1.1/DTD/svg11.dtd">
<svg version="1.1" id="Layer_2" xmlns="http://www.w3.org/2000/svg" xmlns:xlink="http://www.w3.org/1999/xlink" x="0px" y="0px"
	 width="48px" height="48px" viewBox="0 0 48 48" enable-background="new 0 0 48 48" xml:space="preserve">
<g>
	<path fill="#010101" d="M17.001,12H19h10h0.02h1.981c0.553,0,1-0.448,1-1c0-0.552-0.447-1-1-1H29.91
		c-0.423-2.507-2.403-4.487-4.909-4.91V1c0-0.552-0.447-1-1-1c-0.553,0-1,0.448-1,1v4.09C20.493,5.513,18.514,7.493,18.09,10h-1.089
		c-0.553,0-1,0.448-1,1C16.001,11.552,16.448,12,17.001,12z"/>
	<path fill="#010101" d="M37.001,46h-5V22h1c0.553,0,1-0.448,1-1c0-0.552-0.447-1-1-1h-2h-1v-5c0-0.552-0.447-1-1-1h-10
		c-0.553,0-1,0.448-1,1v5h-1h-2c-0.553,0-1,0.448-1,1c0,0.552,0.447,1,1,1h1v24h-5c-0.553,0-1,0.448-1,1c0,0.552,0.447,1,1,1h6h3v-7
		c0-0.552,0.447-1,1-1h6c0.553,0,1,0.448,1,1v7h3h6c0.553,0,1-0.448,1-1C38.001,46.448,37.554,46,37.001,46z"/>
	<path fill="#010101" d="M0.684,9.949l12,4C12.789,13.983,12.895,14,13,14c0.419,0,0.809-0.265,0.948-0.684
		c0.175-0.524-0.108-1.09-0.632-1.265l-12-4C0.787,7.877,0.227,8.16,0.052,8.684C-0.123,9.208,0.16,9.774,0.684,9.949z"/>
	<path fill="#010101" d="M13.948,16.684c-0.174-0.523-0.735-0.807-1.265-0.632l-12,4c-0.523,0.175-0.807,0.741-0.632,1.265
		C0.191,21.735,0.581,22,1,22c0.104,0,0.211-0.017,0.316-0.051l12-4C13.84,17.774,14.123,17.208,13.948,16.684z"/>
	<path fill="#010101" d="M35,14c0.104,0,0.211-0.017,0.316-0.051l12-4c0.523-0.175,0.807-0.741,0.632-1.265
		c-0.175-0.523-0.736-0.807-1.265-0.632l-12,4c-0.523,0.175-0.807,0.741-0.632,1.265C34.191,13.735,34.581,14,35,14z"/>
	<path fill="#010101" d="M47.316,20.051l-12-4c-0.527-0.175-1.091,0.109-1.265,0.632c-0.175,0.524,0.108,1.09,0.632,1.265l12,4
		C46.789,21.983,46.895,22,47,22c0.419,0,0.809-0.265,0.948-0.684C48.123,20.792,47.84,20.226,47.316,20.051z"/>
	<path fill="#010101" d="M5.001,14c-0.553,0-1,0.448-1,1c0,0.552,0.447,1,1,1h4c0.553,0,1-0.448,1-1c0-0.552-0.447-1-1-1H5.001z"/>
	<path fill="#010101" d="M39.001,14c-0.553,0-1,0.448-1,1c0,0.552,0.447,1,1,1h4c0.553,0,1-0.448,1-1c0-0.552-0.447-1-1-1H39.001z"
		/>
</g>
</svg>
