<?xml version="1.0" encoding="utf-8"?>
<!-- Generator: Adobe Illustrator 17.0.0, SVG Export Plug-In . SVG Version: 6.00 Build 0)  -->
<!DOCTYPE svg PUBLIC "-//W3C//DTD SVG 1.1//EN" "http://www.w3.org/Graphics/SVG/1.1/DTD/svg11.dtd">
<svg version="1.1" id="Layer_2" xmlns="http://www.w3.org/2000/svg" xmlns:xlink="http://www.w3.org/1999/xlink" x="0px" y="0px"
	 width="48px" height="48px" viewBox="0 0 48 48" enable-background="new 0 0 48 48" xml:space="preserve">
<path fill="#010101" d="M47,46H30.316l1.008-5.719l0.99,0.174c0.174,0.03,0.348,0.045,0.519,0.045c1.46,0,2.702-1.042,2.952-2.476
	c0.141-0.789-0.034-1.586-0.494-2.244c-0.46-0.657-1.147-1.096-1.938-1.235l-0.987-0.174l0.347-1.97l0.989,0.174
	c0.174,0.03,0.348,0.045,0.519,0.045c1.46,0,2.702-1.042,2.952-2.476c0.141-0.789-0.034-1.585-0.494-2.244
	c-0.46-0.657-1.147-1.095-1.938-1.235l-0.987-0.174l0.347-1.969l0.988,0.174c0.174,0.03,0.348,0.045,0.519,0.045
	c1.46,0,2.702-1.042,2.952-2.476c0.141-0.789-0.034-1.586-0.494-2.244c-0.46-0.657-1.147-1.095-1.938-1.235l-0.985-0.174
	l0.695-3.939l0.987,0.174c0.059,0.01,0.117,0.016,0.175,0.016c0.476,0,0.898-0.342,0.983-0.827c0.097-0.543-0.267-1.062-0.811-1.158
	l-4.927-0.869l0.695-3.939l0.984,0.173c0.059,0.01,0.117,0.015,0.175,0.015c0.476,0,0.898-0.341,0.983-0.826
	c0.097-0.544-0.267-1.062-0.811-1.159l-5.907-1.042l0.519-2.955c0.095-0.544-0.268-1.062-0.812-1.158
	c-0.545-0.096-1.062,0.268-1.158,0.812l-0.519,2.954l-5.91-1.042c-0.546-0.094-1.064,0.268-1.158,0.811
	C19.232,5.2,19.596,5.719,20.14,5.815l0.986,0.174l-0.694,3.938l-4.924-0.868c-0.546-0.096-1.063,0.267-1.158,0.811
	c-0.097,0.544,0.267,1.062,0.811,1.159l0.964,0.17l-0.77,3.927l-0.892-0.157c-1.66-0.292-3.192,0.828-3.474,2.43
	c-0.141,0.789,0.034,1.586,0.494,2.244c0.46,0.657,1.148,1.095,1.938,1.235l0.779,0.137l-0.385,1.962l-0.746-0.131
	c-1.663-0.286-3.189,0.833-3.468,2.431c-0.141,0.789,0.034,1.585,0.494,2.244c0.46,0.657,1.148,1.095,1.938,1.235l0.628,0.111
	l-0.385,1.963l-0.588-0.104c-1.675-0.294-3.192,0.827-3.475,2.43c-0.141,0.789,0.034,1.586,0.494,2.244
	c0.46,0.657,1.147,1.096,1.937,1.235l0.476,0.084L9.302,46H1c-0.553,0-1,0.448-1,1c0,0.552,0.447,1,1,1h9.125h7h5h7H47
	c0.553,0,1-0.448,1-1C48,46.448,47.553,46,47,46z M13.769,18.908c-0.133-0.024-0.257-0.074-0.368-0.145
	c-0.084-0.054-0.152-0.13-0.217-0.208c-0.018-0.022-0.044-0.035-0.061-0.058c-0.007-0.01-0.008-0.023-0.014-0.033
	c-0.065-0.1-0.116-0.207-0.141-0.321c-0.018-0.08-0.008-0.164-0.006-0.247c0.002-0.05-0.011-0.099-0.002-0.149
	c0-0.002,0.002-0.004,0.002-0.006c0.023-0.126,0.071-0.24,0.135-0.344c0.019-0.031,0.047-0.054,0.069-0.082
	c0.054-0.068,0.109-0.132,0.178-0.184c0.035-0.026,0.075-0.044,0.113-0.065c0.067-0.038,0.134-0.071,0.209-0.093
	c0.048-0.014,0.099-0.02,0.149-0.026c0.043-0.006,0.083-0.023,0.128-0.023c0.057,0,0.115,0.005,0.173,0.015h0l8.961,1.58
	l11.721,2.066l0.985,0.173c0.133,0.024,0.257,0.074,0.368,0.145c0.085,0.055,0.154,0.132,0.219,0.211
	c0.017,0.021,0.043,0.033,0.058,0.056c0.007,0.01,0.007,0.021,0.014,0.031c0.065,0.101,0.117,0.208,0.142,0.323
	c0.017,0.078,0.008,0.16,0.006,0.241c-0.001,0.052,0.012,0.103,0.003,0.155c0,0,0,0,0,0c0,0.002-0.001,0.003-0.002,0.004
	c-0.023,0.127-0.071,0.244-0.138,0.348c-0.014,0.022-0.035,0.039-0.051,0.061c-0.059,0.078-0.125,0.15-0.203,0.208
	c-0.027,0.02-0.057,0.032-0.085,0.049c-0.074,0.044-0.153,0.082-0.236,0.106c-0.044,0.013-0.088,0.017-0.134,0.024
	c-0.1,0.015-0.201,0.027-0.305,0.009c0-0.001,0,0,0,0l-0.001-0.001L29.32,21.65l-14.735-2.598h0L13.769,18.908z M12.381,26.786
	c-0.134-0.024-0.258-0.074-0.368-0.145c-0.079-0.051-0.142-0.124-0.204-0.196c-0.023-0.026-0.054-0.042-0.073-0.07
	c-0.008-0.011-0.009-0.024-0.016-0.036c-0.064-0.1-0.115-0.206-0.14-0.319c-0.017-0.077-0.007-0.159-0.006-0.239
	c0.001-0.053-0.012-0.103-0.003-0.157c0-0.001,0-0.001,0-0.002c0.022-0.128,0.072-0.244,0.137-0.349
	c0.018-0.03,0.045-0.052,0.066-0.079c0.054-0.07,0.111-0.135,0.181-0.188c0.034-0.026,0.073-0.043,0.111-0.064
	c0.068-0.038,0.135-0.072,0.212-0.094c0.048-0.014,0.098-0.02,0.148-0.026c0.044-0.006,0.084-0.023,0.13-0.023
	c0.057,0,0.115,0.005,0.17,0.015l0.003,0l20.563,3.625l0.118,0.021l0.986,0.174c0.133,0.023,0.258,0.073,0.368,0.144
	c0.084,0.054,0.152,0.13,0.217,0.208c0.018,0.022,0.044,0.035,0.061,0.058c0.007,0.01,0.007,0.021,0.014,0.031
	c0.065,0.101,0.117,0.208,0.142,0.323c0.017,0.078,0.008,0.16,0.006,0.242c-0.001,0.052,0.012,0.102,0.003,0.155c0,0,0,0,0,0
	c0,0.001-0.001,0.002-0.001,0.003c-0.023,0.127-0.072,0.244-0.138,0.349c-0.014,0.023-0.035,0.04-0.052,0.061
	c-0.059,0.078-0.124,0.15-0.203,0.208c-0.027,0.02-0.057,0.032-0.085,0.049c-0.074,0.044-0.152,0.082-0.236,0.106
	c-0.044,0.013-0.089,0.017-0.135,0.024c-0.1,0.015-0.202,0.027-0.305,0.009h0h0l-7.323-1.292l-13.68-2.412v0L12.381,26.786z
	 M23.305,46h-2.027h-2.827H16.37l1.793-6.274c0.149-0.52,0.687-0.825,1.204-0.696l4,1c0.506,0.126,0.83,0.621,0.744,1.134L23.305,46
	z M22.82,36.75l-11.314-1.995v0l-0.513-0.09c-0.133-0.024-0.257-0.074-0.368-0.144c-0.108-0.07-0.203-0.159-0.278-0.268
	c-0.076-0.108-0.128-0.228-0.156-0.353c-0.018-0.079-0.008-0.162-0.006-0.243c0.001-0.051-0.012-0.101-0.003-0.153
	c0-0.002,0.002-0.005,0.003-0.007c0.023-0.125,0.071-0.239,0.134-0.342c0.019-0.031,0.047-0.055,0.07-0.083
	c0.054-0.068,0.109-0.132,0.178-0.185c0.034-0.026,0.074-0.043,0.111-0.064c0.067-0.038,0.135-0.072,0.211-0.094
	c0.048-0.014,0.097-0.02,0.147-0.026c0.043-0.006,0.083-0.022,0.128-0.022c0.058,0,0.116,0.005,0.173,0.015c0.001,0,0.002,0,0.002,0
	l6.38,1.125l14.297,2.521v0l0.987,0.174c0.133,0.024,0.257,0.074,0.368,0.145c0.108,0.07,0.203,0.159,0.278,0.268
	c0.076,0.108,0.128,0.228,0.156,0.354c0.017,0.078,0.008,0.16,0.006,0.241c-0.001,0.052,0.012,0.102,0.003,0.155c0,0,0,0,0,0
	c0,0.001-0.001,0.002-0.001,0.003c-0.023,0.127-0.072,0.244-0.138,0.349c-0.015,0.023-0.036,0.04-0.053,0.062
	c-0.059,0.077-0.123,0.149-0.201,0.207c-0.027,0.02-0.057,0.032-0.086,0.049c-0.074,0.044-0.153,0.081-0.236,0.106
	c-0.044,0.013-0.088,0.017-0.133,0.024c-0.101,0.015-0.202,0.027-0.307,0.009h0h0L22.82,36.75z"/>
</svg>
