<?xml version="1.0" encoding="utf-8"?>
<!-- Generator: Adobe Illustrator 17.0.0, SVG Export Plug-In . SVG Version: 6.00 Build 0)  -->
<!DOCTYPE svg PUBLIC "-//W3C//DTD SVG 1.1//EN" "http://www.w3.org/Graphics/SVG/1.1/DTD/svg11.dtd">
<svg version="1.1" id="Layer_2" xmlns="http://www.w3.org/2000/svg" xmlns:xlink="http://www.w3.org/1999/xlink" x="0px" y="0px"
	 width="48px" height="48px" viewBox="0 0 48 48" enable-background="new 0 0 48 48" xml:space="preserve">
<path fill="#010101" d="M36.5,46h-10v-4h3c1.654,0,3-1.346,3-3c0-1.654-1.346-3-3-3h-3v-2h3c1.654,0,3-1.346,3-3
	c0-1.654-1.346-3-3-3h-3v-2.525c2.206-0.784,4.015-2.4,5.05-4.475h2.95c0.553,0,1-0.448,1-1v-6c0-0.552-0.447-1-1-1h-2.95
	c-1.334-2.674-3.954-4.597-7.05-4.941V1c0-0.552-0.447-1-1-1c-0.553,0-1,0.448-1,1v7.059c-3.096,0.344-5.716,2.267-7.05,4.941H12.5
	c-0.553,0-1,0.448-1,1v6c0,0.552,0.447,1,1,1h2.95c1.035,2.075,2.844,3.691,5.05,4.475V28h-3c-1.654,0-3,1.346-3,3
	c0,1.654,1.346,3,3,3h3v2h-3c-1.654,0-3,1.346-3,3c0,1.654,1.346,3,3,3h3v4h-10c-0.553,0-1,0.448-1,1c0,0.552,0.447,1,1,1h11h4h11
	c0.553,0,1-0.448,1-1C37.5,46.448,37.053,46,36.5,46z M13.5,19v-4h20v4H13.5z M17.5,32c-0.552,0-1-0.448-1-1c0-0.552,0.448-1,1-1h12
	c0.552,0,1,0.448,1,1c0,0.552-0.448,1-1,1H17.5z M17.5,40c-0.552,0-1-0.448-1-1c0-0.552,0.448-1,1-1h12c0.552,0,1,0.448,1,1
	c0,0.552-0.448,1-1,1H17.5z"/>
</svg>
