<?xml version="1.0" encoding="utf-8"?>
<!-- Generator: Adobe Illustrator 17.0.0, SVG Export Plug-In . SVG Version: 6.00 Build 0)  -->
<!DOCTYPE svg PUBLIC "-//W3C//DTD SVG 1.1//EN" "http://www.w3.org/Graphics/SVG/1.1/DTD/svg11.dtd">
<svg version="1.1" id="Layer_2" xmlns="http://www.w3.org/2000/svg" xmlns:xlink="http://www.w3.org/1999/xlink" x="0px" y="0px"
	 width="48px" height="48px" viewBox="0 0 48 48" enable-background="new 0 0 48 48" xml:space="preserve">
<g>
	<path fill="#010101" d="M4,39v3c0,0.552,0.447,1,1,1h38c0.553,0,1-0.448,1-1v-3c0-0.552-0.447-1-1-1H5C4.447,38,4,38.448,4,39z"/>
	<path fill="#010101" d="M47,44H1c-0.553,0-1,0.448-1,1v2c0,0.552,0.447,1,1,1h46c0.553,0,1-0.448,1-1v-2C48,44.448,47.553,44,47,44
		z"/>
	<path fill="#010101" d="M11,37c0.553,0,1-0.448,1-1V20c0-0.552-0.447-1-1-1H7c-0.553,0-1,0.448-1,1v16c0,0.552,0.447,1,1,1H11z"/>
	<path fill="#010101" d="M21,37c0.553,0,1-0.448,1-1V20c0-0.552-0.447-1-1-1h-4c-0.553,0-1,0.448-1,1v16c0,0.552,0.447,1,1,1H21z"/>
	<path fill="#010101" d="M31,37c0.553,0,1-0.448,1-1V20c0-0.552-0.447-1-1-1h-4c-0.553,0-1,0.448-1,1v16c0,0.552,0.447,1,1,1H31z"/>
	<path fill="#010101" d="M41,37c0.553,0,1-0.448,1-1V20c0-0.552-0.447-1-1-1h-4c-0.553,0-1,0.448-1,1v16c0,0.552,0.447,1,1,1H41z"/>
	<path fill="#010101" d="M3,18h42c0.553,0,1-0.448,1-1v-4c0-0.552-0.447-1-1-1H3c-0.553,0-1,0.448-1,1v4C2,17.552,2.447,18,3,18z"/>
	<path fill="#010101" d="M3,11h42c0.008,0,0.015,0,0.019,0c0.553,0,1-0.448,1-1c0-0.457-0.307-0.843-0.726-0.962l-20.9-8.957
		c-0.25-0.108-0.537-0.108-0.787,0l-21,9C2.17,9.268,1.925,9.736,2.02,10.201C2.116,10.666,2.525,11,3,11z"/>
</g>
</svg>
