<?xml version="1.0" encoding="utf-8"?>
<!-- Generator: Adobe Illustrator 17.0.0, SVG Export Plug-In . SVG Version: 6.00 Build 0)  -->
<!DOCTYPE svg PUBLIC "-//W3C//DTD SVG 1.1//EN" "http://www.w3.org/Graphics/SVG/1.1/DTD/svg11.dtd">
<svg version="1.1" id="Layer_2" xmlns="http://www.w3.org/2000/svg" xmlns:xlink="http://www.w3.org/1999/xlink" x="0px" y="0px"
	 width="48px" height="48px" viewBox="0 0 48 48" enable-background="new 0 0 48 48" xml:space="preserve">
<path fill="#010101" d="M45.999,6.946c-0.017-0.302-0.169-0.58-0.414-0.757c-0.244-0.177-0.558-0.233-0.848-0.154L34.013,8.96
	l-9.726-2.918c-0.188-0.056-0.387-0.056-0.574,0L13.987,8.96L3.263,6.035C2.974,5.956,2.659,6.012,2.415,6.19
	C2.17,6.366,2.018,6.645,2.001,6.946l-2,37c-0.025,0.478,0.292,0.908,0.757,1.024l12,3c0.166,0.042,0.341,0.04,0.505-0.005
	L24,45.037l10.737,2.928C34.823,47.988,34.911,48,35,48c0.081,0,0.163-0.01,0.242-0.03l12-3c0.465-0.116,0.782-0.546,0.757-1.024
	L45.999,6.946z M10.707,34.707l-1,1C9.512,35.902,9.256,36,9,36c-0.256,0-0.512-0.098-0.707-0.293c-0.391-0.391-0.391-1.023,0-1.414
	l1-1c0.391-0.391,1.023-0.391,1.414,0C11.098,33.684,11.098,34.316,10.707,34.707z M16.707,28.707l-1,1
	C15.512,29.902,15.256,30,15,30c-0.256,0-0.512-0.098-0.707-0.293c-0.391-0.391-0.391-1.023,0-1.414l1-1
	c0.391-0.391,1.023-0.391,1.414,0C17.098,27.684,17.098,28.316,16.707,28.707z M24,26h-2c-0.553,0-1-0.448-1-1c0-0.552,0.447-1,1-1
	h2c0.553,0,1,0.448,1,1C25,25.552,24.553,26,24,26z M29.707,30.707C29.512,30.902,29.256,31,29,31c-0.256,0-0.512-0.098-0.707-0.293
	l-1-1c-0.391-0.391-0.391-1.023,0-1.414c0.391-0.391,1.023-0.391,1.414,0l1,1C30.098,29.684,30.098,30.316,29.707,30.707z
	 M36.707,31.707l-1,1C35.512,32.902,35.256,33,35,33c-0.256,0-0.512-0.098-0.707-0.293c-0.391-0.391-0.391-1.023,0-1.414l1-1
	c0.391-0.391,1.023-0.391,1.414,0C37.098,30.684,37.098,31.316,36.707,31.707z M38,26c0,0.552-0.447,1-1,1c-0.553,0-1-0.448-1-1v-2
	c0-0.552,0.447-1,1-1c0.553,0,1,0.448,1,1V26z M38.707,20.293c0.391,0.391,0.391,1.023,0,1.414C38.512,21.902,38.256,22,38,22
	c-0.256,0-0.512-0.098-0.707-0.293L36,20.414l-1.293,1.293C34.512,21.902,34.256,22,34,22c-0.256,0-0.512-0.098-0.707-0.293
	c-0.391-0.391-0.391-1.023,0-1.414L34.586,19l-1.293-1.293c-0.391-0.391-0.391-1.023,0-1.414c0.391-0.391,1.023-0.391,1.414,0
	L36,17.586l1.293-1.293c0.391-0.391,1.023-0.391,1.414,0c0.391,0.391,0.391,1.023,0,1.414L37.414,19L38.707,20.293z"/>
</svg>
