<?xml version="1.0" encoding="utf-8"?>
<!-- Generator: Adobe Illustrator 17.0.0, SVG Export Plug-In . SVG Version: 6.00 Build 0)  -->
<!DOCTYPE svg PUBLIC "-//W3C//DTD SVG 1.1//EN" "http://www.w3.org/Graphics/SVG/1.1/DTD/svg11.dtd">
<svg version="1.1" id="Layer_2" xmlns="http://www.w3.org/2000/svg" xmlns:xlink="http://www.w3.org/1999/xlink" x="0px" y="0px"
	 width="48px" height="48px" viewBox="0 0 48 48" enable-background="new 0 0 48 48" xml:space="preserve">
<path fill="#010101" d="M39.8,36.4L32,26h4c0.369,0,0.708-0.203,0.882-0.528c0.174-0.325,0.154-0.72-0.05-1.026L29.868,14H32
	c0.369,0,0.708-0.203,0.882-0.528c0.174-0.325,0.154-0.72-0.05-1.026l-8-12c-0.371-0.557-1.293-0.557-1.664,0l-8,12
	c-0.204,0.307-0.224,0.701-0.05,1.026C15.292,13.797,15.631,14,16,14h2.132l-6.964,10.445c-0.204,0.307-0.224,0.701-0.05,1.026
	C11.292,25.797,11.631,26,12,26h4L8.2,36.4c-0.228,0.303-0.264,0.708-0.095,1.047C8.275,37.786,8.621,38,9,38h14v9
	c0,0.552,0.447,1,1,1c0.553,0,1-0.448,1-1v-9h14c0.379,0,0.725-0.214,0.894-0.553C40.063,37.108,40.027,36.703,39.8,36.4z"/>
</svg>
