<?xml version="1.0" encoding="utf-8"?>
<!-- Generator: Adobe Illustrator 17.0.0, SVG Export Plug-In . SVG Version: 6.00 Build 0)  -->
<!DOCTYPE svg PUBLIC "-//W3C//DTD SVG 1.1//EN" "http://www.w3.org/Graphics/SVG/1.1/DTD/svg11.dtd">
<svg version="1.1" id="Layer_2" xmlns="http://www.w3.org/2000/svg" xmlns:xlink="http://www.w3.org/1999/xlink" x="0px" y="0px"
	 width="48px" height="48px" viewBox="0 0 48 48" enable-background="new 0 0 48 48" xml:space="preserve">
<path fill="#010101" d="M39,10c-0.516,0-1.032,0.045-1.544,0.136C35.754,4.205,30.251,0,24,0c-4.655,0-8.921,2.268-11.542,6.1
	C5.793,5.2,0,10.454,0,17c0,6.065,4.935,11,11,11c2.182,0,4.268-0.635,6.076-1.842c1.528,0.873,3.197,1.442,4.924,1.693V47
	c0,0.552,0.447,1,1,1c0.553,0,1-0.448,1-1v-6.586l3.981-3.981C28.576,36.785,29.26,37,30,37c2.206,0,4-1.794,4-4
	c0-2.206-1.794-4-4-4c-2.206,0-4,1.794-4,4c0,0.74,0.215,1.424,0.567,2.019L24,37.586V28c3.053,0,6.013-1.004,8.442-2.846
	C34.139,26.975,36.477,28,39,28c4.963,0,9-4.037,9-9C48,14.037,43.963,10,39,10z"/>
</svg>
