<?xml version="1.0" encoding="utf-8"?>
<!-- Generator: Adobe Illustrator 17.0.0, SVG Export Plug-In . SVG Version: 6.00 Build 0)  -->
<!DOCTYPE svg PUBLIC "-//W3C//DTD SVG 1.1//EN" "http://www.w3.org/Graphics/SVG/1.1/DTD/svg11.dtd">
<svg version="1.1" id="Layer_1" xmlns="http://www.w3.org/2000/svg" xmlns:xlink="http://www.w3.org/1999/xlink" x="0px" y="0px"
	 width="48px" height="48px" viewBox="0 0 48 48" enable-background="new 0 0 48 48" xml:space="preserve">
<path fill="#231F20" d="M47.707,14.293l-7-7c-0.391-0.391-1.023-0.391-1.414,0L15,31.586l-6.293-6.293
	c-0.391-0.391-1.023-0.391-1.414,0l-7,7c-0.391,0.391-0.391,1.023,0,1.414l14,14C14.488,47.902,14.744,48,15,48
	s0.512-0.098,0.707-0.293l32-32C48.098,15.316,48.098,14.684,47.707,14.293z M15,45.586L2.414,33L8,27.414l6.293,6.293
	c0.391,0.391,1.023,0.391,1.414,0L40,9.414L45.586,15L15,45.586z"/>
</svg>
