<?xml version="1.0" encoding="utf-8"?>
<!-- Generator: Adobe Illustrator 17.0.0, SVG Export Plug-In . SVG Version: 6.00 Build 0)  -->
<!DOCTYPE svg PUBLIC "-//W3C//DTD SVG 1.1//EN" "http://www.w3.org/Graphics/SVG/1.1/DTD/svg11.dtd">
<svg version="1.1" id="Layer_1" xmlns="http://www.w3.org/2000/svg" xmlns:xlink="http://www.w3.org/1999/xlink" x="0px" y="0px"
	 width="48px" height="48px" viewBox="0 0 48 48" enable-background="new 0 0 48 48" xml:space="preserve">
<g>
	<path fill="#231F20" d="M33.318,16.269L19.024,29.61l-4.317-4.317c-0.391-0.391-1.023-0.391-1.414,0
		c-0.391,0.391-0.391,1.023,0,1.414l5,5C18.488,31.902,18.744,32,19,32c0.245,0,0.49-0.089,0.682-0.269l15-14
		c0.404-0.377,0.426-1.01,0.049-1.413C34.354,15.913,33.721,15.893,33.318,16.269z"/>
	<path fill="#231F20" d="M48,24c0-1.801-0.963-3.41-2.439-4.289c1.025-1.377,1.299-3.231,0.614-4.894
		c-0.682-1.647-2.168-2.781-3.897-3.03c0.421-1.666-0.037-3.484-1.31-4.757c-1.238-1.239-3.09-1.731-4.756-1.309
		c-0.249-1.699-1.368-3.203-3.031-3.892c-1.632-0.676-3.539-0.407-4.896,0.607C27.405,0.961,25.797,0,24,0
		c-1.8,0-3.41,0.961-4.291,2.437c-1.357-1.015-3.267-1.285-4.897-0.609c-1.662,0.687-2.781,2.192-3.03,3.893
		c-1.667-0.42-3.518,0.072-4.756,1.31c-1.274,1.271-1.732,3.089-1.31,4.756c-1.724,0.25-3.206,1.384-3.889,3.029
		c-0.689,1.663-0.417,3.518,0.607,4.895C0.96,20.591,0,22.2,0,24s0.961,3.409,2.434,4.29c-1.025,1.378-1.297,3.233-0.609,4.896
		c0.683,1.646,2.166,2.779,3.892,3.029c-0.421,1.665,0.036,3.483,1.308,4.756c1.239,1.239,3.089,1.729,4.757,1.31
		c0.249,1.699,1.368,3.204,3.03,3.893c1.632,0.677,3.54,0.406,4.897-0.609C20.591,47.04,22.2,48,24,48
		c1.797,0,3.405-0.96,4.284-2.434c1.357,1.012,3.262,1.285,4.897,0.608c1.661-0.688,2.78-2.193,3.029-3.893
		c1.666,0.421,3.519-0.071,4.757-1.31c1.272-1.272,1.73-3.089,1.309-4.755c1.729-0.249,3.214-1.384,3.897-3.03
		c0.689-1.662,0.415-3.517-0.613-4.896C47.038,27.411,48,25.801,48,24z M43.552,26.94c-0.402,0.075-0.718,0.387-0.798,0.788
		c-0.08,0.402,0.092,0.811,0.435,1.034c1.211,0.789,1.69,2.327,1.139,3.656c-0.545,1.314-1.998,2.077-3.391,1.782
		c-0.403-0.086-0.813,0.082-1.04,0.422c-0.227,0.341-0.225,0.785,0.007,1.122c0.816,1.19,0.669,2.792-0.35,3.811
		c-0.997,0.997-2.657,1.143-3.81,0.35c-0.338-0.232-0.782-0.235-1.122-0.008c-0.341,0.228-0.509,0.639-0.424,1.039
		c0.298,1.412-0.452,2.838-1.781,3.389c-1.322,0.546-2.889,0.048-3.656-1.134c-0.223-0.342-0.63-0.512-1.034-0.436
		c-0.401,0.08-0.713,0.396-0.788,0.798C26.675,44.971,25.439,46,24,46c-1.442,0-2.682-1.029-2.946-2.448
		c-0.075-0.401-0.388-0.717-0.789-0.797c-0.065-0.013-0.13-0.019-0.194-0.019c-0.335,0-0.652,0.168-0.839,0.456
		c-0.768,1.182-2.336,1.681-3.653,1.135c-1.332-0.552-2.082-1.976-1.784-3.387c0.084-0.4-0.083-0.811-0.423-1.038
		c-0.341-0.227-0.784-0.224-1.121,0.007c-1.156,0.791-2.816,0.645-3.811-0.351c-1.018-1.02-1.165-2.623-0.349-3.812
		c0.231-0.337,0.234-0.781,0.007-1.121c-0.226-0.34-0.638-0.508-1.038-0.423c-1.397,0.296-2.841-0.469-3.386-1.781
		c-0.552-1.332-0.075-2.87,1.132-3.657c0.342-0.223,0.514-0.632,0.434-1.033c-0.079-0.401-0.395-0.713-0.797-0.788
		C3.028,26.679,2,25.441,2,24s1.027-2.679,2.442-2.943c0.402-0.075,0.718-0.387,0.798-0.788c0.079-0.402-0.093-0.811-0.436-1.034
		c-1.207-0.785-1.682-2.321-1.13-3.653c0.546-1.314,1.988-2.075,3.383-1.782c0.399,0.083,0.811-0.082,1.039-0.422
		c0.228-0.34,0.226-0.785-0.006-1.122c-0.817-1.191-0.671-2.793,0.349-3.811c0.997-0.995,2.657-1.144,3.812-0.351
		c0.337,0.232,0.781,0.234,1.121,0.007c0.34-0.227,0.507-0.638,0.423-1.038c-0.298-1.413,0.451-2.837,1.782-3.387
		c1.322-0.546,2.888-0.049,3.655,1.134c0.223,0.343,0.631,0.515,1.033,0.436c0.402-0.079,0.714-0.395,0.789-0.797
		C21.319,3.03,22.558,2,24,2c1.439,0,2.675,1.03,2.938,2.447c0.075,0.402,0.387,0.718,0.788,0.798
		c0.405,0.079,0.811-0.093,1.034-0.436c0.766-1.183,2.332-1.683,3.653-1.134c1.333,0.553,2.083,1.976,1.784,3.386
		c-0.085,0.4,0.082,0.811,0.422,1.039c0.34,0.226,0.784,0.225,1.122-0.007c1.155-0.793,2.816-0.646,3.811,0.35
		c1.02,1.02,1.167,2.623,0.35,3.813c-0.232,0.337-0.234,0.782-0.007,1.122c0.227,0.339,0.638,0.505,1.039,0.422
		c1.397-0.291,2.848,0.469,3.391,1.78c0.549,1.332,0.07,2.87-1.139,3.658c-0.342,0.223-0.514,0.633-0.434,1.034
		c0.08,0.402,0.396,0.713,0.798,0.788C44.97,21.322,46,22.559,46,24C46,25.442,44.97,26.68,43.552,26.94z"/>
</g>
</svg>
