<?xml version="1.0" encoding="utf-8"?>
<!-- Generator: Adobe Illustrator 17.0.0, SVG Export Plug-In . SVG Version: 6.00 Build 0)  -->
<!DOCTYPE svg PUBLIC "-//W3C//DTD SVG 1.1//EN" "http://www.w3.org/Graphics/SVG/1.1/DTD/svg11.dtd">
<svg version="1.1" id="Layer_1" xmlns="http://www.w3.org/2000/svg" xmlns:xlink="http://www.w3.org/1999/xlink" x="0px" y="0px"
	 width="48px" height="48px" viewBox="0 0 48 48" enable-background="new 0 0 48 48" xml:space="preserve">
<g>
	<path fill="#231F20" d="M47.627,0.222c-0.43-0.348-1.059-0.277-1.405,0.151L17.92,35.505l-9.213-9.212
		c-0.391-0.391-1.023-0.391-1.414,0c-0.391,0.391-0.391,1.023,0,1.414l10,10C17.48,37.895,17.735,38,18,38
		c0.018,0,0.036,0,0.053-0.001c0.284-0.015,0.547-0.15,0.725-0.371l29-36C48.125,1.198,48.058,0.569,47.627,0.222z"/>
	<path fill="#231F20" d="M36.324,24.013c-0.539,0.123-0.875,0.66-0.752,1.198C35.856,26.453,36,27.727,36,29c0,9.374-7.626,17-17,17
		S2,38.374,2,29s7.626-17,17-17c2.651,0,5.193,0.595,7.554,1.769c0.498,0.246,1.095,0.043,1.341-0.451
		c0.246-0.494,0.044-1.094-0.45-1.34C24.805,10.666,21.963,10,19,10C8.523,10,0,18.523,0,29s8.523,19,19,19s19-8.523,19-19
		c0-1.423-0.161-2.848-0.479-4.236C37.398,24.225,36.853,23.885,36.324,24.013z"/>
</g>
</svg>
