<?xml version="1.0" encoding="utf-8"?>
<!-- Generator: Adobe Illustrator 17.0.0, SVG Export Plug-In . SVG Version: 6.00 Build 0)  -->
<!DOCTYPE svg PUBLIC "-//W3C//DTD SVG 1.1//EN" "http://www.w3.org/Graphics/SVG/1.1/DTD/svg11.dtd">
<svg version="1.1" id="Layer_1" xmlns="http://www.w3.org/2000/svg" xmlns:xlink="http://www.w3.org/1999/xlink" x="0px" y="0px"
	 width="48px" height="48px" viewBox="0 0 48 48" enable-background="new 0 0 48 48" xml:space="preserve">
<g>
	<path fill="#231F20" d="M43.628,5.222c-0.431-0.349-1.06-0.279-1.406,0.15L17.92,35.506l-9.213-9.213
		c-0.391-0.391-1.023-0.391-1.414,0c-0.391,0.391-0.391,1.023,0,1.414l10,10C17.48,37.895,17.735,38,18,38
		c0.018,0,0.035,0,0.053-0.001c0.284-0.016,0.547-0.15,0.725-0.371l25-31C44.125,6.198,44.058,5.569,43.628,5.222z"/>
	<path fill="#231F20" d="M37,24c-0.553,0-1,0.448-1,1v21H2V12h25c0.553,0,1-0.448,1-1s-0.447-1-1-1H1c-0.553,0-1,0.448-1,1v36
		c0,0.552,0.447,1,1,1h36c0.553,0,1-0.448,1-1V25C38,24.448,37.553,24,37,24z"/>
</g>
</svg>
