<?xml version="1.0" encoding="utf-8"?>
<!-- Generator: Adobe Illustrator 17.0.0, SVG Export Plug-In . SVG Version: 6.00 Build 0)  -->
<!DOCTYPE svg PUBLIC "-//W3C//DTD SVG 1.1//EN" "http://www.w3.org/Graphics/SVG/1.1/DTD/svg11.dtd">
<svg version="1.1" id="Layer_1" xmlns="http://www.w3.org/2000/svg" xmlns:xlink="http://www.w3.org/1999/xlink" x="0px" y="0px"
	 width="48px" height="48px" viewBox="0 0 48 48" enable-background="new 0 0 48 48" xml:space="preserve">
<g>
	<path fill="#231F20" d="M47,0H1C0.448,0,0,0.448,0,1v46c0,0.552,0.448,1,1,1h46c0.552,0,1-0.448,1-1V1C48,0.448,47.552,0,47,0z
		 M46,46H2V2h44V46z"/>
	<path fill="#231F20" d="M10.293,18.707C10.488,18.902,10.744,19,11,19s0.512-0.098,0.707-0.293l10-10
		c0.391-0.391,0.391-1.023,0-1.414c-0.391-0.391-1.023-0.391-1.414,0L11,16.586l-3.293-3.293c-0.391-0.391-1.023-0.391-1.414,0
		c-0.391,0.391-0.391,1.023,0,1.414L10.293,18.707z"/>
	<path fill="#231F20" d="M10.293,37.707C10.488,37.902,10.744,38,11,38s0.512-0.098,0.707-0.293l10-10
		c0.391-0.391,0.391-1.023,0-1.414c-0.391-0.391-1.023-0.391-1.414,0L11,35.586l-3.293-3.293c-0.391-0.391-1.023-0.391-1.414,0
		c-0.391,0.391-0.391,1.023,0,1.414L10.293,37.707z"/>
	<path fill="#231F20" d="M25,18h16c0.552,0,1-0.448,1-1s-0.448-1-1-1H25c-0.552,0-1,0.448-1,1S24.448,18,25,18z"/>
	<path fill="#231F20" d="M25,36h16c0.552,0,1-0.448,1-1s-0.448-1-1-1H25c-0.552,0-1,0.448-1,1S24.448,36,25,36z"/>
</g>
</svg>
