<?xml version="1.0" encoding="utf-8"?>
<!-- Generator: Adobe Illustrator 17.0.0, SVG Export Plug-In . SVG Version: 6.00 Build 0)  -->
<!DOCTYPE svg PUBLIC "-//W3C//DTD SVG 1.1//EN" "http://www.w3.org/Graphics/SVG/1.1/DTD/svg11.dtd">
<svg version="1.1" id="Layer_1" xmlns="http://www.w3.org/2000/svg" xmlns:xlink="http://www.w3.org/1999/xlink" x="0px" y="0px"
	 width="48px" height="48px" viewBox="0 0 48 48" enable-background="new 0 0 48 48" xml:space="preserve">
<g>
	<path fill="#231F20" d="M18.295,28.707C18.49,28.902,18.746,29,19.002,29c0.245,0,0.49-0.089,0.682-0.269l15-14
		c0.404-0.377,0.426-1.01,0.049-1.413c-0.376-0.405-1.01-0.425-1.413-0.049L19.026,26.61l-4.317-4.317
		c-0.391-0.391-1.023-0.391-1.414,0c-0.391,0.391-0.391,1.023,0,1.414L18.295,28.707z"/>
	<path fill="#231F20" d="M42,0H4C3.448,0,3,0.448,3,1v14.529c0,13.619,7.485,26.017,19.535,32.356C22.68,47.962,22.84,48,23,48
		s0.32-0.039,0.466-0.116C35.515,41.543,43,29.145,43,15.529V1C43,0.448,42.552,0,42,0z M41,15.529c0,12.695-6.883,24.27-18,30.336
		C11.882,39.802,5,28.227,5,15.529V2h36V15.529z"/>
</g>
</svg>
