<?xml version="1.0" encoding="utf-8"?>
<!-- Generator: Adobe Illustrator 17.0.0, SVG Export Plug-In . SVG Version: 6.00 Build 0)  -->
<!DOCTYPE svg PUBLIC "-//W3C//DTD SVG 1.1//EN" "http://www.w3.org/Graphics/SVG/1.1/DTD/svg11.dtd">
<svg version="1.1" id="Layer_1" xmlns="http://www.w3.org/2000/svg" xmlns:xlink="http://www.w3.org/1999/xlink" x="0px" y="0px"
	 width="48px" height="48px" viewBox="0 0 48 48" enable-background="new 0 0 48 48" xml:space="preserve">
<g>
	<path fill="#231F20" d="M48,24c0-1.801-0.963-3.41-2.441-4.289c1.025-1.377,1.299-3.231,0.614-4.894
		c-0.683-1.647-2.168-2.781-3.897-3.03c0.421-1.666-0.036-3.484-1.309-4.757c-1.237-1.238-3.091-1.73-4.756-1.309
		c-0.249-1.699-1.368-3.203-3.031-3.892c-1.628-0.676-3.538-0.408-4.895,0.607C27.405,0.961,25.798,0,24,0
		c-1.8,0-3.409,0.961-4.29,2.436c-1.359-1.014-3.268-1.284-4.898-0.608c-1.663,0.688-2.781,2.192-3.03,3.893
		c-1.666-0.42-3.518,0.072-4.756,1.31c-1.272,1.271-1.73,3.089-1.307,4.756c-1.725,0.249-3.207,1.383-3.89,3.029
		c-0.69,1.663-0.418,3.518,0.606,4.895C0.961,20.591,0,22.2,0,24s0.961,3.409,2.434,4.29c-1.024,1.378-1.296,3.233-0.609,4.896
		c0.683,1.646,2.165,2.779,3.892,3.029c-0.419,1.666,0.037,3.484,1.309,4.756c1.239,1.239,3.092,1.731,4.757,1.31
		c0.249,1.699,1.368,3.204,3.03,3.893c1.632,0.676,3.539,0.405,4.897-0.609C20.591,47.039,22.2,48,24,48
		c1.798,0,3.405-0.96,4.285-2.434c1.356,1.013,3.261,1.284,4.897,0.608c1.661-0.689,2.779-2.193,3.028-3.894
		c1.666,0.424,3.521-0.07,4.757-1.309c1.272-1.272,1.73-3.09,1.309-4.755c1.729-0.25,3.214-1.384,3.897-3.03
		c0.69-1.662,0.416-3.517-0.612-4.896C47.038,27.41,48,25.801,48,24z M43.55,26.942c-0.402,0.075-0.718,0.387-0.798,0.788
		c-0.08,0.402,0.092,0.811,0.435,1.034c1.212,0.789,1.691,2.326,1.139,3.656c-0.544,1.314-1.998,2.077-3.391,1.782
		c-0.398-0.085-0.812,0.082-1.039,0.422c-0.227,0.341-0.224,0.785,0.007,1.122c0.816,1.19,0.669,2.792-0.35,3.811
		c-0.998,0.997-2.656,1.143-3.811,0.35c-0.335-0.232-0.78-0.235-1.121-0.008c-0.34,0.227-0.508,0.638-0.424,1.038
		c0.298,1.412-0.451,2.838-1.78,3.389c-1.32,0.546-2.888,0.048-3.656-1.134c-0.222-0.344-0.635-0.516-1.033-0.437
		c-0.401,0.08-0.714,0.396-0.789,0.798C26.676,44.971,25.439,46,24,46c-1.442,0-2.681-1.029-2.946-2.448
		c-0.075-0.401-0.388-0.717-0.789-0.797c-0.064-0.013-0.13-0.019-0.194-0.019c-0.334,0-0.652,0.168-0.838,0.457
		c-0.766,1.181-2.333,1.68-3.653,1.134c-1.331-0.553-2.081-1.977-1.783-3.387c0.084-0.401-0.083-0.812-0.423-1.039
		c-0.34-0.226-0.785-0.224-1.121,0.007c-1.157,0.793-2.814,0.646-3.812-0.351c-1.018-1.019-1.165-2.621-0.35-3.812
		c0.231-0.337,0.233-0.781,0.006-1.121c-0.226-0.34-0.637-0.507-1.038-0.423c-1.394,0.296-2.841-0.469-3.385-1.781
		c-0.551-1.332-0.074-2.87,1.132-3.656c0.343-0.223,0.515-0.632,0.435-1.033c-0.08-0.401-0.396-0.713-0.797-0.788
		C3.027,26.679,2,25.441,2,24c0-1.442,1.027-2.679,2.442-2.943c0.403-0.075,0.719-0.387,0.798-0.788
		c0.081-0.402-0.092-0.811-0.435-1.034c-1.207-0.785-1.683-2.321-1.13-3.653c0.545-1.313,1.989-2.074,3.382-1.782
		c0.398,0.086,0.81-0.082,1.039-0.422c0.227-0.34,0.225-0.784-0.006-1.121c-0.816-1.191-0.668-2.794,0.35-3.812
		c0.998-0.997,2.656-1.145,3.813-0.352c0.336,0.231,0.781,0.234,1.121,0.007c0.34-0.228,0.507-0.639,0.423-1.039
		c-0.299-1.412,0.45-2.836,1.781-3.386c1.32-0.546,2.888-0.048,3.655,1.134c0.223,0.343,0.635,0.514,1.033,0.437
		c0.401-0.079,0.714-0.395,0.789-0.797C21.319,3.03,22.558,2,24,2c1.439,0,2.676,1.03,2.94,2.449
		c0.075,0.402,0.388,0.718,0.789,0.798c0.399,0.079,0.81-0.094,1.033-0.437c0.766-1.183,2.332-1.683,3.653-1.134
		c1.332,0.552,2.082,1.976,1.783,3.386c-0.085,0.4,0.083,0.811,0.423,1.039c0.341,0.227,0.786,0.224,1.121-0.007
		c1.157-0.795,2.817-0.647,3.812,0.349c1.02,1.02,1.166,2.623,0.35,3.813c-0.232,0.337-0.235,0.782-0.007,1.122
		c0.227,0.339,0.635,0.507,1.039,0.422c1.401-0.294,2.847,0.469,3.39,1.78c0.549,1.332,0.07,2.871-1.138,3.659
		c-0.343,0.223-0.515,0.633-0.435,1.034s0.397,0.712,0.799,0.787C44.971,21.322,46,22.559,46,24C46,25.442,44.97,26.68,43.55,26.942
		z"/>
	<path fill="#231F20" d="M33.707,14.293c-0.391-0.391-1.023-0.391-1.414,0L24,22.586l-8.293-8.293c-0.391-0.391-1.023-0.391-1.414,0
		c-0.391,0.391-0.391,1.023,0,1.414L22.586,24l-8.293,8.293c-0.391,0.391-0.391,1.023,0,1.414C14.488,33.902,14.744,34,15,34
		s0.512-0.098,0.707-0.293L24,25.414l8.293,8.293C32.488,33.902,32.744,34,33,34s0.512-0.098,0.707-0.293
		c0.391-0.391,0.391-1.023,0-1.414L25.414,24l8.293-8.293C34.098,15.316,34.098,14.684,33.707,14.293z"/>
</g>
</svg>
