<?xml version="1.0" encoding="utf-8"?>
<!-- Generator: Adobe Illustrator 17.0.0, SVG Export Plug-In . SVG Version: 6.00 Build 0)  -->
<!DOCTYPE svg PUBLIC "-//W3C//DTD SVG 1.1//EN" "http://www.w3.org/Graphics/SVG/1.1/DTD/svg11.dtd">
<svg version="1.1" id="Layer_1" xmlns="http://www.w3.org/2000/svg" xmlns:xlink="http://www.w3.org/1999/xlink" x="0px" y="0px"
	 width="48px" height="48px" viewBox="0 0 48 48" enable-background="new 0 0 48 48" xml:space="preserve">
<g>
	<path fill="#010101" d="M19.625,5.781L23,3.081V10c0,0.552,0.448,1,1,1s1-0.448,1-1V3.081l3.376,2.7C28.56,5.928,28.781,6,29,6
		c0.292,0,0.583-0.128,0.781-0.375c0.345-0.431,0.276-1.06-0.156-1.405l-5-4c-0.044-0.035-0.096-0.053-0.144-0.08
		c-0.042-0.023-0.079-0.051-0.124-0.068c-0.107-0.041-0.218-0.064-0.331-0.067C24.017,0.005,24.009,0,24,0
		c-0.011,0-0.02,0.006-0.031,0.006c-0.111,0.004-0.22,0.025-0.325,0.066c-0.047,0.018-0.086,0.047-0.13,0.072
		c-0.046,0.026-0.096,0.043-0.139,0.077l-5,4c-0.431,0.344-0.501,0.974-0.156,1.405C18.565,6.057,19.194,6.125,19.625,5.781z"/>
	<path fill="#010101" d="M28.374,42.22L25,44.919V38c0-0.552-0.448-1-1-1s-1,0.448-1,1v6.921l-3.376-2.701
		c-0.429-0.345-1.06-0.276-1.405,0.156c-0.345,0.431-0.276,1.06,0.156,1.405l5,4c0.046,0.037,0.101,0.056,0.151,0.083
		c0.039,0.021,0.073,0.047,0.114,0.063C23.757,47.972,23.878,48,24,48c0.122,0,0.243-0.028,0.358-0.072
		c0.044-0.017,0.08-0.044,0.12-0.067c0.048-0.027,0.1-0.044,0.144-0.08l5-4c0.431-0.345,0.501-0.974,0.156-1.405
		C29.435,41.945,28.804,41.875,28.374,42.22z"/>
	<path fill="#010101" d="M6,23H3.081l2.699-3.375c0.345-0.431,0.276-1.06-0.156-1.405c-0.43-0.345-1.06-0.276-1.405,0.156l-4,5
		c-0.036,0.045-0.054,0.098-0.081,0.147c-0.022,0.04-0.049,0.076-0.066,0.119C0.028,23.757,0.001,23.876,0,23.998
		C0,23.998,0,23.999,0,24c0,0,0,0,0,0c0,0.123,0.028,0.243,0.073,0.359c0.016,0.041,0.041,0.075,0.062,0.113
		c0.028,0.051,0.047,0.106,0.084,0.152l4,5C4.416,29.872,4.707,30,5,30c0.22,0,0.44-0.072,0.625-0.219
		c0.431-0.345,0.501-0.974,0.156-1.405L3.081,25H6c0.552,0,1-0.448,1-1S6.552,23,6,23z"/>
	<path fill="#010101" d="M48,24C48,24,48,24,48,24c0-0.001,0-0.002,0-0.003c0-0.121-0.027-0.241-0.072-0.356
		c-0.017-0.043-0.043-0.079-0.066-0.119c-0.027-0.049-0.045-0.102-0.081-0.147l-4-5c-0.344-0.432-0.974-0.5-1.405-0.156
		c-0.431,0.344-0.501,0.974-0.156,1.405L44.92,23H42c-0.552,0-1,0.448-1,1s0.448,1,1,1h2.92l-2.7,3.376
		c-0.345,0.431-0.276,1.06,0.156,1.405C42.56,29.928,42.781,30,43,30c0.292,0,0.583-0.128,0.781-0.375l4-5
		c0.037-0.047,0.056-0.101,0.084-0.152c0.021-0.038,0.046-0.072,0.062-0.113C47.972,24.244,48,24.123,48,24z"/>
	<path fill="#010101" d="M21,27v-3c0-2.206-1.794-4-4-4s-4,1.794-4,4v3c0,0.552,0.448,1,1,1h6C20.552,28,21,27.552,21,27z M19,26h-4
		v-2c0-1.103,0.897-2,2-2s2,0.897,2,2V26z"/>
	<path fill="#010101" d="M31,16c-3.01,0-5.635,1.673-7,4.136C22.635,17.673,20.01,16,17,16c-4.411,0-8,3.589-8,8v9
		c0,0.552,0.448,1,1,1s1-0.448,1-1v-9c0-3.309,2.691-6,6-6s6,2.691,6,6v9c0,0.552,0.448,1,1,1s1-0.448,1-1v-9c0-3.309,2.691-6,6-6
		s6,2.691,6,6v9c0,0.552,0.448,1,1,1s1-0.448,1-1v-9C39,19.589,35.411,16,31,16z"/>
	<path fill="#010101" d="M31,20c-2.206,0-4,1.794-4,4v3c0,0.552,0.448,1,1,1h6c0.552,0,1-0.448,1-1v-3C35,21.794,33.206,20,31,20z
		 M33,26h-4v-2c0-1.103,0.897-2,2-2s2,0.897,2,2V26z"/>
</g>
<g id="nyt_x5F_exporter_x5F_info" display="none">
</g>
</svg>
