<?xml version="1.0" encoding="utf-8"?>
<!-- Generator: Adobe Illustrator 17.0.0, SVG Export Plug-In . SVG Version: 6.00 Build 0)  -->
<!DOCTYPE svg PUBLIC "-//W3C//DTD SVG 1.1//EN" "http://www.w3.org/Graphics/SVG/1.1/DTD/svg11.dtd">
<svg version="1.1" id="Layer_1" xmlns="http://www.w3.org/2000/svg" xmlns:xlink="http://www.w3.org/1999/xlink" x="0px" y="0px"
	 width="48px" height="48px" viewBox="0 0 48 48" enable-background="new 0 0 48 48" xml:space="preserve">
<g>
	<path fill="#010101" d="M17,24c-2.206,0-4,1.794-4,4v3c0,0.552,0.448,1,1,1h6c0.552,0,1-0.448,1-1v-3C21,25.794,19.206,24,17,24z
		 M19,30h-4v-2c0-1.103,0.897-2,2-2s2,0.897,2,2V30z"/>
	<path fill="#010101" d="M31,18c-3.469,0-6.421,2.224-7.527,5.318C22.017,21.312,19.662,20,17,20c-4.411,0-8,3.589-8,8v18
		c0,0.552,0.448,1,1,1s1-0.448,1-1V28c0-3.309,2.691-6,6-6s6,2.691,6,6v18c0,0.552,0.448,1,1,1s1-0.448,1-1V28v-2
		c0-3.309,2.691-6,6-6s6,2.691,6,6v20c0,0.552,0.448,1,1,1s1-0.448,1-1V26C39,21.589,35.411,18,31,18z"/>
	<path fill="#010101" d="M31,22c-2.206,0-4,1.794-4,4v3c0,0.552,0.448,1,1,1h6c0.552,0,1-0.448,1-1v-3C35,23.794,33.206,22,31,22z
		 M33,28h-4v-2c0-1.103,0.897-2,2-2s2,0.897,2,2V28z"/>
	<path fill="#010101" d="M16.4,17c1.424,0,2.793,0.307,4.068,0.912c0.5,0.238,1.096,0.024,1.332-0.475
		c0.236-0.499,0.024-1.096-0.475-1.332C19.779,15.372,18.123,15,16.4,15c-5.71,0-10.607,4.258-11.391,9.906
		c-0.076,0.547,0.306,1.052,0.853,1.128c0.047,0.006,0.093,0.009,0.139,0.009c0.492,0,0.92-0.362,0.989-0.863
		C7.637,20.517,11.683,17,16.4,17z"/>
	<path fill="#010101" d="M30.9,13c-2.322,0-4.577,0.666-6.521,1.924c-0.464,0.3-0.596,0.92-0.296,1.383
		c0.3,0.464,0.92,0.596,1.383,0.296C27.085,15.554,28.964,15,30.9,15c5.514,0,10,4.486,10,10c0,0.552,0.448,1,1,1
		c0.553,0,1-0.448,1-1C42.9,18.383,37.517,13,30.9,13z"/>
	<path fill="#010101" d="M31,8c-2.209,0-4.354,0.417-6.377,1.237c-0.512,0.208-0.759,0.791-0.551,1.303
		c0.208,0.512,0.791,0.759,1.303,0.551C27.158,10.367,29.05,10,31,10c8.271,0,15,6.729,15,15c0,0.95-0.09,1.903-0.266,2.831
		c-0.104,0.542,0.252,1.066,0.795,1.169c0.063,0.012,0.126,0.018,0.188,0.018c0.47,0,0.89-0.334,0.981-0.813
		C47.898,27.154,48,26.076,48,25C48,15.626,40.374,8,31,8z"/>
	<path fill="#010101" d="M17,12c1.273,0,2.538,0.16,3.759,0.475c0.536,0.136,1.08-0.184,1.218-0.719
		c0.137-0.535-0.184-1.08-0.719-1.218C19.874,10.181,18.441,10,17,10C7.626,10,0,17.626,0,27c0,0.71,0.044,1.425,0.132,2.124
		C0.195,29.63,0.626,30,1.123,30c0.041,0,0.083-0.002,0.125-0.008c0.548-0.068,0.936-0.568,0.868-1.116C2.039,28.259,2,27.627,2,27
		C2,18.729,8.729,12,17,12z"/>
</g>
<g id="nyt_x5F_exporter_x5F_info" display="none">
</g>
</svg>
