<?xml version="1.0" encoding="utf-8"?>
<!-- Generator: Adobe Illustrator 17.0.0, SVG Export Plug-In . SVG Version: 6.00 Build 0)  -->
<!DOCTYPE svg PUBLIC "-//W3C//DTD SVG 1.1//EN" "http://www.w3.org/Graphics/SVG/1.1/DTD/svg11.dtd">
<svg version="1.1" id="Layer_1" xmlns="http://www.w3.org/2000/svg" xmlns:xlink="http://www.w3.org/1999/xlink" x="0px" y="0px"
	 width="48px" height="48px" viewBox="0 0 48 48" enable-background="new 0 0 48 48" xml:space="preserve">
<g>
	<path fill="#010101" d="M16,23c-2.206,0-4,1.794-4,4v3c0,0.552,0.448,1,1,1h6c0.552,0,1-0.448,1-1v-3C20,24.794,18.206,23,16,23z
		 M18,29h-4v-2c0-1.103,0.897-2,2-2s2,0.897,2,2V29z"/>
	<path fill="#010101" d="M30,19c-3.01,0-5.635,1.673-7,4.136C21.635,20.673,19.01,19,16,19c-4.411,0-8,3.589-8,8v18
		c0,0.552,0.448,1,1,1s1-0.448,1-1V27c0-3.309,2.691-6,6-6s6,2.691,6,6v18c0,0.552,0.448,1,1,1s1-0.448,1-1V27c0-3.309,2.691-6,6-6
		s6,2.691,6,6v18c0,0.552,0.448,1,1,1s1-0.448,1-1V27C38,22.589,34.411,19,30,19z"/>
	<path fill="#010101" d="M30,23c-2.206,0-4,1.794-4,4v3c0,0.552,0.448,1,1,1h6c0.552,0,1-0.448,1-1v-3C34,24.794,32.206,23,30,23z
		 M32,29h-4v-2c0-1.103,0.897-2,2-2s2,0.897,2,2V29z"/>
	<path fill="#010101" d="M47.841,19.531c0.061-0.097,0.106-0.202,0.131-0.314c0.002-0.009,0.007-0.016,0.009-0.025
		c0.022-0.113,0.026-0.232,0.007-0.351l-0.975-6c-0.088-0.546-0.604-0.921-1.147-0.827c-0.545,0.088-0.915,0.602-0.827,1.147
		l0.626,3.852C39.974,13.813,32.237,12,24.025,12c-9.286,0-17.882,2.205-23.584,6.05c-0.458,0.308-0.578,0.93-0.27,1.388
		c0.308,0.458,0.93,0.579,1.388,0.27C6.939,16.081,15.127,14,24.025,14c7.931,0,15.363,1.742,20.761,4.812l-3.133,1.26
		c-0.513,0.206-0.761,0.789-0.555,1.301c0.157,0.391,0.532,0.628,0.928,0.628c0.124,0,0.25-0.024,0.373-0.073l4.975-2
		c0.012-0.005,0.021-0.015,0.032-0.02c0.088-0.039,0.173-0.088,0.248-0.153c0.008-0.007,0.015-0.015,0.023-0.022
		c0.055-0.051,0.107-0.107,0.151-0.172C47.834,19.552,47.835,19.54,47.841,19.531z"/>
</g>
<g id="nyt_x5F_exporter_x5F_info" display="none">
</g>
</svg>
