<?xml version="1.0" encoding="utf-8"?>
<!-- Generator: Adobe Illustrator 17.0.0, SVG Export Plug-In . SVG Version: 6.00 Build 0)  -->
<!DOCTYPE svg PUBLIC "-//W3C//DTD SVG 1.1//EN" "http://www.w3.org/Graphics/SVG/1.1/DTD/svg11.dtd">
<svg version="1.1" id="Layer_1" xmlns="http://www.w3.org/2000/svg" xmlns:xlink="http://www.w3.org/1999/xlink" x="0px" y="0px"
	 width="48px" height="48px" viewBox="0 0 48 48" enable-background="new 0 0 48 48" xml:space="preserve">
<g>
	<path fill="#010101" d="M18.624,5.781L22,3.081V10c0,0.552,0.448,1,1,1s1-0.448,1-1V3.081l3.375,2.7C27.559,5.928,27.78,6,27.999,6
		c0.293,0,0.584-0.128,0.781-0.375c0.346-0.431,0.276-1.06-0.156-1.405l-5-4c-0.042-0.034-0.093-0.05-0.139-0.076
		c-0.044-0.025-0.083-0.054-0.13-0.072c-0.105-0.04-0.214-0.062-0.325-0.066C23.02,0.006,23.011,0,23,0
		c-0.009,0-0.017,0.005-0.026,0.005c-0.113,0.003-0.224,0.026-0.331,0.067c-0.045,0.017-0.082,0.045-0.124,0.068
		c-0.048,0.027-0.1,0.044-0.144,0.08l-5,4c-0.431,0.344-0.501,0.974-0.156,1.405C17.563,6.057,18.193,6.125,18.624,5.781z"/>
	<path fill="#010101" d="M27.375,42.22L24,44.92V38c0-0.552-0.448-1-1-1s-1,0.448-1,1v6.92l-3.376-2.7
		c-0.43-0.345-1.06-0.276-1.405,0.156c-0.345,0.431-0.276,1.06,0.156,1.405l5,4c0.046,0.037,0.101,0.056,0.151,0.083
		c0.039,0.021,0.073,0.047,0.114,0.063C22.757,47.972,22.878,48,23,48c0.122,0,0.243-0.028,0.359-0.073
		c0.043-0.017,0.078-0.043,0.117-0.065c0.049-0.027,0.103-0.045,0.148-0.082l5-4c0.431-0.345,0.501-0.974,0.156-1.405
		C28.436,41.945,27.806,41.875,27.375,42.22z"/>
	<path fill="#010101" d="M20,27v-3c0-2.206-1.794-4-4-4s-4,1.794-4,4v3c0,0.552,0.448,1,1,1h6C19.552,28,20,27.552,20,27z M18,26h-4
		v-2c0-1.103,0.897-2,2-2s2,0.897,2,2V26z"/>
	<path fill="#010101" d="M30,16c-3.01,0-5.635,1.673-7,4.136C21.635,17.673,19.01,16,16,16c-4.411,0-8,3.589-8,8v9
		c0,0.552,0.448,1,1,1s1-0.448,1-1v-9c0-3.309,2.691-6,6-6s6,2.691,6,6v9c0,0.552,0.448,1,1,1s1-0.448,1-1v-9c0-3.309,2.691-6,6-6
		s6,2.691,6,6v9c0,0.552,0.448,1,1,1s1-0.448,1-1v-9C38,19.589,34.411,16,30,16z"/>
	<path fill="#010101" d="M30,20c-2.206,0-4,1.794-4,4v3c0,0.552,0.448,1,1,1h6c0.552,0,1-0.448,1-1v-3C34,21.794,32.206,20,30,20z
		 M32,26h-4v-2c0-1.103,0.897-2,2-2s2,0.897,2,2V26z"/>
</g>
<g id="nyt_x5F_exporter_x5F_info" display="none">
</g>
</svg>
