<?xml version="1.0" encoding="utf-8"?>
<!-- Generator: Adobe Illustrator 17.0.0, SVG Export Plug-In . SVG Version: 6.00 Build 0)  -->
<!DOCTYPE svg PUBLIC "-//W3C//DTD SVG 1.1//EN" "http://www.w3.org/Graphics/SVG/1.1/DTD/svg11.dtd">
<svg version="1.1" id="Layer_1" xmlns="http://www.w3.org/2000/svg" xmlns:xlink="http://www.w3.org/1999/xlink" x="0px" y="0px"
	 width="48px" height="48px" viewBox="0 0 48 48" enable-background="new 0 0 48 48" xml:space="preserve">
<g>
	<path fill="#010101" d="M32,19c-3.01,0-5.635,1.673-7,4.136C23.635,20.673,21.01,19,18,19c-4.411,0-8,3.589-8,8v18
		c0,0.552,0.448,1,1,1s1-0.448,1-1V27c0-3.309,2.691-6,6-6s6,2.691,6,6v18c0,0.552,0.448,1,1,1s1-0.448,1-1V27c0-3.309,2.691-6,6-6
		s6,2.691,6,6v18c0,0.552,0.448,1,1,1s1-0.448,1-1V27C40,22.589,36.411,19,32,19z"/>
	<path fill="#010101" d="M32,23c-2.206,0-4,1.794-4,4v3c0,0.552,0.448,1,1,1h6c0.552,0,1-0.448,1-1v-3C36,24.794,34.206,23,32,23z
		 M34,29h-4v-2c0-1.103,0.897-2,2-2s2,0.897,2,2V29z"/>
	<path fill="#010101" d="M18,23c-2.206,0-4,1.794-4,4v3c0,0.552,0.448,1,1,1h6c0.552,0,1-0.448,1-1v-3C22,24.794,20.206,23,18,23z
		 M20,29h-4v-2c0-1.103,0.897-2,2-2s2,0.897,2,2V29z"/>
	<path fill="#010101" d="M47.559,18.05C41.857,14.205,33.27,12,24,12c-8.221,0-15.963,1.81-21.654,5.006l0.641-3.841
		c0.09-0.545-0.278-1.06-0.822-1.151c-0.546-0.089-1.06,0.279-1.151,0.822l-1,6c-0.02,0.12-0.016,0.238,0.006,0.351
		c0.003,0.017,0.014,0.033,0.018,0.05c0.026,0.103,0.065,0.201,0.121,0.291c0.006,0.01,0.007,0.022,0.014,0.033
		c0.046,0.068,0.101,0.128,0.159,0.181c0.003,0.003,0.006,0.007,0.01,0.01c0.076,0.067,0.163,0.116,0.253,0.156
		c0.012,0.005,0.021,0.016,0.034,0.021l5,2c0.122,0.049,0.248,0.072,0.371,0.072c0.397,0,0.773-0.239,0.929-0.629
		c0.205-0.513-0.044-1.094-0.557-1.3L3.217,18.81C8.617,15.741,16.056,14,24,14c8.882,0,17.061,2.081,22.441,5.708
		c0.457,0.309,1.079,0.188,1.388-0.27C48.138,18.98,48.017,18.359,47.559,18.05z"/>
</g>
<g id="nyt_x5F_exporter_x5F_info" display="none">
</g>
</svg>
