<?xml version="1.0" encoding="utf-8"?>
<!-- Generator: Adobe Illustrator 17.0.0, SVG Export Plug-In . SVG Version: 6.00 Build 0)  -->
<!DOCTYPE svg PUBLIC "-//W3C//DTD SVG 1.1//EN" "http://www.w3.org/Graphics/SVG/1.1/DTD/svg11.dtd">
<svg version="1.1" id="Layer_1" xmlns="http://www.w3.org/2000/svg" xmlns:xlink="http://www.w3.org/1999/xlink" x="0px" y="0px"
	 width="48px" height="48px" viewBox="0 0 48 48" enable-background="new 0 0 48 48" xml:space="preserve">
<g>
	<path fill="#010101" d="M24,18c-4.411,0-8,3.589-8,8v19c0,0.552,0.448,1,1,1s1-0.448,1-1V26c0-3.309,2.691-6,6-6s6,2.691,6,6v19
		c0,0.552,0.448,1,1,1s1-0.448,1-1V26C32,21.589,28.411,18,24,18z"/>
	<path fill="#010101" d="M24,12c-7.72,0-14,6.28-14,14c0,2.632,0.735,5.199,2.127,7.421c0.293,0.468,0.909,0.61,1.378,0.317
		c0.468-0.293,0.61-0.91,0.317-1.378C12.63,30.456,12,28.257,12,26c0-6.617,5.383-12,12-12s12,5.383,12,12
		c0,2.269-0.636,4.478-1.84,6.387c-0.294,0.467-0.154,1.084,0.313,1.379c0.165,0.104,0.35,0.154,0.532,0.154
		c0.332,0,0.657-0.165,0.848-0.467C37.257,31.224,38,28.647,38,26C38,18.28,31.72,12,24,12z"/>
	<path fill="#010101" d="M24,6C12.972,6,4,14.972,4,26c0,5.025,1.871,9.83,5.269,13.529c0.197,0.214,0.466,0.323,0.737,0.323
		c0.242,0,0.484-0.087,0.676-0.264c0.407-0.373,0.433-1.006,0.06-1.413C7.684,34.847,6,30.523,6,26c0-9.925,8.075-18,18-18
		s18,8.075,18,18c0,4.496-1.667,8.8-4.693,12.121c-0.373,0.408-0.343,1.041,0.065,1.413c0.409,0.373,1.041,0.343,1.413-0.065
		C42.148,35.778,44,30.995,44,26C44,14.972,35.028,6,24,6z"/>
	<path fill="#010101" d="M24,22c-2.206,0-4,1.794-4,4v3c0,0.552,0.448,1,1,1h6c0.552,0,1-0.448,1-1v-3C28,23.794,26.206,22,24,22z
		 M26,28h-4v-2c0-1.103,0.897-2,2-2s2,0.897,2,2V28z"/>
</g>
<g id="nyt_x5F_exporter_x5F_info" display="none">
</g>
</svg>
