<?xml version="1.0" encoding="utf-8"?>
<!-- Generator: Adobe Illustrator 17.0.0, SVG Export Plug-In . SVG Version: 6.00 Build 0)  -->
<!DOCTYPE svg PUBLIC "-//W3C//DTD SVG 1.1//EN" "http://www.w3.org/Graphics/SVG/1.1/DTD/svg11.dtd">
<svg version="1.1" id="Layer_1" xmlns="http://www.w3.org/2000/svg" xmlns:xlink="http://www.w3.org/1999/xlink" x="0px" y="0px"
	 width="48px" height="48px" viewBox="0 0 48 48" enable-background="new 0 0 48 48" xml:space="preserve">
<g>
	<path fill="#010101" d="M22.625,5.781L26,3.081V7c0,0.552,0.447,1,1,1s1-0.448,1-1V3.081l3.375,2.7C31.56,5.928,31.78,6,31.999,6
		c0.294,0,0.584-0.128,0.782-0.375c0.345-0.431,0.275-1.06-0.156-1.405l-5-4c-0.043-0.035-0.094-0.052-0.142-0.078
		c-0.043-0.024-0.081-0.052-0.127-0.07c-0.106-0.041-0.216-0.063-0.328-0.066C27.018,0.005,27.01,0,27,0s-0.018,0.005-0.028,0.006
		c-0.112,0.003-0.222,0.026-0.328,0.066c-0.046,0.018-0.084,0.046-0.127,0.07c-0.047,0.026-0.098,0.043-0.142,0.078l-5,4
		c-0.43,0.344-0.501,0.974-0.156,1.405C21.564,6.055,22.192,6.126,22.625,5.781z"/>
	<path fill="#010101" d="M31.375,42.22L28,44.92V41c0-0.552-0.447-1-1-1s-1,0.448-1,1v3.92l-3.375-2.7
		c-0.431-0.346-1.059-0.275-1.406,0.156c-0.345,0.431-0.275,1.06,0.156,1.405l5,4c0.046,0.036,0.099,0.055,0.149,0.082
		c0.039,0.022,0.074,0.048,0.117,0.064C26.757,47.972,26.878,48,27,48s0.243-0.028,0.359-0.072c0.043-0.016,0.078-0.043,0.117-0.064
		c0.05-0.027,0.103-0.046,0.149-0.082l5-4c0.43-0.345,0.501-0.974,0.156-1.405C32.435,41.945,31.808,41.874,31.375,42.22z"/>
	<path fill="#010101" d="M26,10c-2.636,0-5.202,0.736-7.422,2.128c-0.467,0.293-0.609,0.91-0.316,1.378
		c0.293,0.468,0.911,0.608,1.379,0.316C21.542,12.63,23.741,12,26,12c6.617,0,12,5.383,12,12s-5.383,12-12,12
		c-2.27,0-4.479-0.636-6.387-1.839c-0.465-0.295-1.084-0.155-1.379,0.312c-0.295,0.467-0.156,1.085,0.312,1.379
		C20.774,37.257,23.352,38,26,38c7.72,0,14-6.28,14-14S33.72,10,26,10z"/>
	<path fill="#010101" d="M34,24c0-4.411-3.589-8-8-8H7c-0.553,0-1,0.448-1,1s0.447,1,1,1h19c3.309,0,6,2.691,6,6s-2.691,6-6,6H7
		c-0.553,0-1,0.448-1,1s0.447,1,1,1h19C30.411,32,34,28.411,34,24z"/>
	<path fill="#010101" d="M26,28c2.206,0,4-1.794,4-4s-1.794-4-4-4h-3c-0.553,0-1,0.448-1,1v6c0,0.552,0.447,1,1,1H26z M24,22h2
		c1.102,0,2,0.897,2,2s-0.898,2-2,2h-2V22z"/>
</g>
<g id="nyt_x5F_exporter_x5F_info" display="none">
</g>
</svg>
