<?xml version="1.0" encoding="utf-8"?>
<!-- Generator: Adobe Illustrator 17.0.0, SVG Export Plug-In . SVG Version: 6.00 Build 0)  -->
<!DOCTYPE svg PUBLIC "-//W3C//DTD SVG 1.1//EN" "http://www.w3.org/Graphics/SVG/1.1/DTD/svg11.dtd">
<svg version="1.1" id="Layer_1" xmlns="http://www.w3.org/2000/svg" xmlns:xlink="http://www.w3.org/1999/xlink" x="0px" y="0px"
	 width="48px" height="48px" viewBox="0 0 48 48" enable-background="new 0 0 48 48" xml:space="preserve">
<g>
	<path fill="#010101" d="M48,23C48,23,48,23,48,23c0-0.001,0-0.002,0-0.003c0-0.121-0.027-0.241-0.072-0.355
		c-0.017-0.044-0.044-0.08-0.067-0.121c-0.027-0.048-0.044-0.101-0.08-0.145l-4-5c-0.346-0.43-0.973-0.501-1.406-0.156
		c-0.43,0.344-0.501,0.974-0.156,1.405L44.92,22H31c-0.553,0-1,0.448-1,1s0.447,1,1,1h13.92l-2.701,3.376
		c-0.345,0.431-0.275,1.06,0.156,1.405C42.56,28.928,42.78,29,42.999,29c0.294,0,0.584-0.128,0.782-0.375l4-5
		c0.037-0.046,0.056-0.1,0.083-0.151c0.021-0.039,0.047-0.073,0.063-0.115C47.972,23.243,48,23.123,48,23z"/>
	<path fill="#010101" d="M14,12C6.28,12,0,18.28,0,26c0,2.632,0.735,5.199,2.127,7.421c0.292,0.469,0.909,0.608,1.378,0.317
		c0.468-0.293,0.61-0.91,0.317-1.378C2.63,30.456,2,28.257,2,26c0-6.617,5.383-12,12-12s12,5.383,12,12
		c0,2.269-0.636,4.477-1.838,6.387c-0.295,0.467-0.155,1.085,0.312,1.379c0.166,0.104,0.349,0.154,0.532,0.154
		c0.332,0,0.657-0.165,0.846-0.467C27.258,31.224,28,28.647,28,26C28,18.28,21.72,12,14,12z"/>
	<path fill="#010101" d="M14,18c-4.411,0-8,3.589-8,8v19c0,0.552,0.447,1,1,1s1-0.448,1-1V26c0-3.309,2.691-6,6-6s6,2.691,6,6v19
		c0,0.552,0.447,1,1,1s1-0.448,1-1V26C22,21.589,18.411,18,14,18z"/>
	<path fill="#010101" d="M14,22c-2.206,0-4,1.794-4,4v3c0,0.552,0.447,1,1,1h6c0.553,0,1-0.448,1-1v-3C18,23.794,16.206,22,14,22z
		 M16,28h-4v-2c0-1.103,0.897-2,2-2c1.102,0,2,0.897,2,2V28z"/>
</g>
<g id="nyt_x5F_exporter_x5F_info" display="none">
</g>
</svg>
