<?xml version="1.0" encoding="utf-8"?>
<!-- Generator: Adobe Illustrator 17.0.0, SVG Export Plug-In . SVG Version: 6.00 Build 0)  -->
<!DOCTYPE svg PUBLIC "-//W3C//DTD SVG 1.1//EN" "http://www.w3.org/Graphics/SVG/1.1/DTD/svg11.dtd">
<svg version="1.1" id="Layer_1" xmlns="http://www.w3.org/2000/svg" xmlns:xlink="http://www.w3.org/1999/xlink" x="0px" y="0px"
	 width="48px" height="48px" viewBox="0 0 48 48" enable-background="new 0 0 48 48" xml:space="preserve">
<g>
	<path fill="#010101" d="M7,24H3.08l2.701-3.375c0.345-0.431,0.275-1.06-0.156-1.405c-0.431-0.346-1.06-0.275-1.406,0.156l-4,5
		c-0.036,0.044-0.053,0.097-0.08,0.145c-0.023,0.041-0.05,0.077-0.067,0.121C0.028,24.757,0.001,24.876,0,24.998
		C0,24.998,0,24.999,0,25c0,0,0,0,0,0c0,0.122,0.028,0.243,0.072,0.359c0.016,0.042,0.042,0.076,0.063,0.115
		c0.028,0.051,0.046,0.105,0.083,0.151l4,5C4.417,30.872,4.707,31,5.001,31c0.219,0,0.439-0.072,0.624-0.219
		c0.43-0.345,0.501-0.974,0.156-1.405L3.08,26H7c0.553,0,1-0.448,1-1S7.553,24,7,24z"/>
	<path fill="#010101" d="M48,25C48,25,48,25,48,25c0-0.001,0-0.002,0-0.003c0-0.121-0.027-0.241-0.072-0.355
		c-0.017-0.044-0.044-0.08-0.067-0.121c-0.027-0.048-0.044-0.101-0.08-0.145l-4-5c-0.346-0.431-0.974-0.502-1.406-0.156
		c-0.43,0.344-0.501,0.974-0.156,1.405L44.92,24H41c-0.553,0-1,0.448-1,1s0.447,1,1,1h3.92l-2.701,3.376
		c-0.345,0.431-0.275,1.06,0.156,1.405C42.56,30.928,42.78,31,42.999,31c0.294,0,0.584-0.128,0.782-0.375l4-5
		c0.037-0.046,0.056-0.1,0.083-0.151c0.021-0.039,0.047-0.073,0.063-0.115C47.972,25.243,48,25.123,48,25z"/>
	<path fill="#010101" d="M24,12c-7.72,0-14,6.28-14,14c0,2.632,0.735,5.199,2.127,7.421c0.292,0.469,0.909,0.608,1.378,0.317
		c0.468-0.293,0.61-0.91,0.317-1.378C12.63,30.456,12,28.257,12,26c0-6.617,5.383-12,12-12s12,5.383,12,12
		c0,2.269-0.637,4.478-1.839,6.387c-0.296,0.467-0.156,1.085,0.312,1.379c0.165,0.104,0.349,0.154,0.532,0.154
		c0.332,0,0.656-0.165,0.847-0.467C37.257,31.225,38,28.648,38,26C38,18.28,31.72,12,24,12z"/>
	<path fill="#010101" d="M24,18c-4.411,0-8,3.589-8,8v19c0,0.552,0.447,1,1,1s1-0.448,1-1V26c0-3.309,2.691-6,6-6s6,2.691,6,6v19
		c0,0.552,0.447,1,1,1s1-0.448,1-1V26C32,21.589,28.411,18,24,18z"/>
	<path fill="#010101" d="M24,22c-2.206,0-4,1.794-4,4v3c0,0.552,0.447,1,1,1h6c0.553,0,1-0.448,1-1v-3C28,23.794,26.206,22,24,22z
		 M26,28h-4v-2c0-1.103,0.897-2,2-2c1.102,0,2,0.897,2,2V28z"/>
</g>
<g id="nyt_x5F_exporter_x5F_info" display="none">
</g>
</svg>
