<?xml version="1.0" encoding="utf-8"?>
<!-- Generator: Adobe Illustrator 17.0.0, SVG Export Plug-In . SVG Version: 6.00 Build 0)  -->
<!DOCTYPE svg PUBLIC "-//W3C//DTD SVG 1.1//EN" "http://www.w3.org/Graphics/SVG/1.1/DTD/svg11.dtd">
<svg version="1.1" id="Layer_1" xmlns="http://www.w3.org/2000/svg" xmlns:xlink="http://www.w3.org/1999/xlink" x="0px" y="0px"
	 width="48px" height="48px" viewBox="0 0 48 48" enable-background="new 0 0 48 48" xml:space="preserve">
<g>
	<path fill="#010101" d="M22.624,5.781L26,3.081V17c0,0.552,0.448,1,1,1s1-0.448,1-1V3.081l3.375,2.7C31.559,5.928,31.78,6,31.999,6
		c0.293,0,0.584-0.128,0.781-0.375c0.346-0.431,0.276-1.06-0.156-1.405l-5-4c-0.042-0.034-0.093-0.05-0.139-0.076
		c-0.044-0.025-0.083-0.054-0.13-0.072c-0.105-0.04-0.214-0.062-0.325-0.066C27.02,0.006,27.011,0,27,0
		c-0.009,0-0.017,0.005-0.026,0.005c-0.113,0.003-0.224,0.026-0.331,0.067c-0.045,0.017-0.082,0.045-0.124,0.068
		c-0.048,0.027-0.1,0.044-0.144,0.08l-5,4c-0.431,0.344-0.501,0.974-0.156,1.405C21.564,6.056,22.194,6.126,22.624,5.781z"/>
	<path fill="#010101" d="M24,20c-2.647,0-5.224,0.742-7.454,2.145c-0.467,0.295-0.607,0.912-0.313,1.379
		c0.295,0.468,0.912,0.608,1.379,0.314C19.522,22.636,21.731,22,24,22c6.617,0,12,5.383,12,12s-5.383,12-12,12
		c-2.256,0-4.456-0.63-6.36-1.822c-0.468-0.292-1.085-0.152-1.378,0.317c-0.293,0.468-0.151,1.085,0.317,1.378
		C18.802,47.265,21.368,48,24,48c7.72,0,14-6.28,14-14S31.72,20,24,20z"/>
	<path fill="#010101" d="M32,34c0-4.411-3.589-8-8-8H5c-0.552,0-1,0.448-1,1s0.448,1,1,1h19c3.309,0,6,2.691,6,6s-2.691,6-6,6H5
		c-0.552,0-1,0.448-1,1s0.448,1,1,1h19C28.411,42,32,38.411,32,34z"/>
	<path fill="#010101" d="M24,38c2.206,0,4-1.794,4-4s-1.794-4-4-4h-3c-0.552,0-1,0.448-1,1v6c0,0.552,0.448,1,1,1H24z M22,32h2
		c1.103,0,2,0.897,2,2s-0.897,2-2,2h-2V32z"/>
</g>
<g id="nyt_x5F_exporter_x5F_info" display="none">
</g>
</svg>
