<?xml version="1.0" encoding="utf-8"?>
<!-- Generator: Adobe Illustrator 17.0.0, SVG Export Plug-In . SVG Version: 6.00 Build 0)  -->
<!DOCTYPE svg PUBLIC "-//W3C//DTD SVG 1.1//EN" "http://www.w3.org/Graphics/SVG/1.1/DTD/svg11.dtd">
<svg version="1.1" id="Layer_1" xmlns="http://www.w3.org/2000/svg" xmlns:xlink="http://www.w3.org/1999/xlink" x="0px" y="0px"
	 width="48px" height="48px" viewBox="0 0 48 48" enable-background="new 0 0 48 48" xml:space="preserve">
<g>
	<path fill="#010101" d="M33.375,42.22L30,44.92V31c0-0.552-0.448-1-1-1s-1,0.448-1,1v13.92l-3.376-2.7
		c-0.429-0.345-1.06-0.276-1.405,0.156c-0.345,0.431-0.276,1.06,0.156,1.405l5,4c0.046,0.037,0.101,0.056,0.151,0.083
		c0.039,0.021,0.073,0.047,0.114,0.063C28.757,47.972,28.878,48,29,48c0.122,0,0.243-0.028,0.359-0.073
		c0.043-0.017,0.078-0.043,0.117-0.065c0.049-0.027,0.103-0.045,0.148-0.082l5-4c0.431-0.345,0.501-0.974,0.156-1.405
		C34.435,41.945,33.806,41.876,33.375,42.22z"/>
	<path fill="#010101" d="M26,0c-2.635,0-5.202,0.736-7.421,2.128c-0.468,0.293-0.609,0.91-0.316,1.378
		c0.292,0.467,0.909,0.609,1.378,0.316C21.542,2.63,23.741,2,26,2c6.617,0,12,5.383,12,12s-5.383,12-12,12
		c-2.27,0-4.479-0.636-6.387-1.839c-0.469-0.296-1.085-0.156-1.379,0.312c-0.295,0.467-0.155,1.084,0.312,1.379
		C20.774,27.257,23.352,28,26,28c7.72,0,14-6.28,14-14S33.72,0,26,0z"/>
	<path fill="#010101" d="M34,14c0-4.411-3.589-8-8-8H7C6.448,6,6,6.448,6,7s0.448,1,1,1h19c3.309,0,6,2.691,6,6s-2.691,6-6,6H7
		c-0.552,0-1,0.448-1,1s0.448,1,1,1h19C30.411,22,34,18.411,34,14z"/>
	<path fill="#010101" d="M26,18c2.206,0,4-1.794,4-4s-1.794-4-4-4h-3c-0.552,0-1,0.448-1,1v6c0,0.552,0.448,1,1,1H26z M24,12h2
		c1.103,0,2,0.897,2,2s-0.897,2-2,2h-2V12z"/>
</g>
<g id="nyt_x5F_exporter_x5F_info" display="none">
</g>
</svg>
