<?xml version="1.0" encoding="utf-8"?>
<!-- Generator: Adobe Illustrator 17.0.0, SVG Export Plug-In . SVG Version: 6.00 Build 0)  -->
<!DOCTYPE svg PUBLIC "-//W3C//DTD SVG 1.1//EN" "http://www.w3.org/Graphics/SVG/1.1/DTD/svg11.dtd">
<svg version="1.1" id="Layer_1" xmlns="http://www.w3.org/2000/svg" xmlns:xlink="http://www.w3.org/1999/xlink" x="0px" y="0px"
	 width="48px" height="48px" viewBox="0 0 48 48" enable-background="new 0 0 48 48" xml:space="preserve">
<g>
	<path fill="#010101" d="M13,24H8.081l2.699-3.375c0.346-0.431,0.276-1.06-0.156-1.405c-0.43-0.345-1.06-0.276-1.405,0.156l-4,5
		c-0.036,0.045-0.054,0.098-0.081,0.147c-0.022,0.04-0.049,0.076-0.066,0.119C5.028,24.757,5.001,24.876,5,24.998
		C5,24.998,5,24.999,5,25c0,0,0,0,0,0c0,0.123,0.028,0.243,0.073,0.359c0.016,0.041,0.041,0.075,0.062,0.113
		c0.028,0.051,0.047,0.106,0.084,0.152l4,5C9.416,30.872,9.707,31,10,31c0.22,0,0.44-0.072,0.625-0.219
		c0.431-0.345,0.501-0.974,0.156-1.405L8.081,26H13c0.552,0,1-0.448,1-1S13.552,24,13,24z"/>
	<path fill="#010101" d="M42.86,25.481c0.023-0.042,0.051-0.079,0.068-0.124c0.041-0.107,0.064-0.218,0.067-0.331
		C42.995,25.017,43,25.009,43,25c0-0.011-0.006-0.02-0.006-0.031c-0.004-0.111-0.025-0.22-0.066-0.325
		c-0.018-0.047-0.047-0.086-0.072-0.13c-0.026-0.046-0.042-0.096-0.076-0.139l-4-5c-0.344-0.431-0.975-0.501-1.405-0.156
		c-0.431,0.344-0.501,0.974-0.156,1.405l2.7,3.375H35c-0.552,0-1,0.448-1,1s0.448,1,1,1h4.919l-2.7,3.376
		c-0.345,0.431-0.276,1.06,0.156,1.405C37.559,30.928,37.78,31,37.999,31c0.293,0,0.584-0.128,0.781-0.375l4-5
		C42.815,25.581,42.833,25.529,42.86,25.481z"/>
	<path fill="#010101" d="M47.78,24.376l-4-5c-0.344-0.431-0.975-0.501-1.405-0.156c-0.431,0.344-0.501,0.974-0.156,1.405l3.5,4.375
		l-3.5,4.376c-0.345,0.431-0.276,1.06,0.156,1.405C42.559,30.928,42.78,31,42.999,31c0.293,0,0.584-0.128,0.781-0.375l4-5
		C48.072,25.26,48.072,24.741,47.78,24.376z"/>
	<path fill="#010101" d="M2.281,25l3.499-4.375c0.346-0.431,0.276-1.06-0.156-1.405c-0.43-0.345-1.061-0.276-1.405,0.156l-4,5
		c-0.292,0.365-0.292,0.884,0,1.249l4,5C4.416,30.872,4.707,31,5,31c0.22,0,0.44-0.072,0.625-0.219
		c0.431-0.345,0.501-0.974,0.156-1.405L2.281,25z"/>
	<path fill="#010101" d="M24,18c-4.411,0-8,3.589-8,8v19c0,0.552,0.448,1,1,1s1-0.448,1-1V26c0-3.309,2.691-6,6-6s6,2.691,6,6v19
		c0,0.552,0.448,1,1,1s1-0.448,1-1V26C32,21.589,28.411,18,24,18z"/>
	<path fill="#010101" d="M24,22c-2.206,0-4,1.794-4,4v3c0,0.552,0.448,1,1,1h6c0.552,0,1-0.448,1-1v-3C28,23.794,26.206,22,24,22z
		 M26,28h-4v-2c0-1.103,0.897-2,2-2s2,0.897,2,2V28z"/>
</g>
<g id="nyt_x5F_exporter_x5F_info" display="none">
</g>
</svg>
