<?xml version="1.0" encoding="utf-8"?>
<!-- Generator: Adobe Illustrator 17.0.0, SVG Export Plug-In . SVG Version: 6.00 Build 0)  -->
<!DOCTYPE svg PUBLIC "-//W3C//DTD SVG 1.1//EN" "http://www.w3.org/Graphics/SVG/1.1/DTD/svg11.dtd">
<svg version="1.1" id="Layer_1" xmlns="http://www.w3.org/2000/svg" xmlns:xlink="http://www.w3.org/1999/xlink" x="0px" y="0px"
	 width="48px" height="48px" viewBox="0 0 48 48" enable-background="new 0 0 48 48" xml:space="preserve">
<g>
	<path fill="#010101" d="M24,18c-4.411,0-8,3.589-8,8v19c0,0.552,0.447,1,1,1s1-0.448,1-1V26c0-3.309,2.691-6,6-6s6,2.691,6,6v19
		c0,0.552,0.447,1,1,1s1-0.448,1-1V26C32,21.589,28.411,18,24,18z"/>
	<path fill="#010101" d="M24,22c-2.206,0-4,1.794-4,4v3c0,0.552,0.447,1,1,1h6c0.553,0,1-0.448,1-1v-3C28,23.794,26.206,22,24,22z
		 M26,28h-4v-2c0-1.103,0.897-2,2-2c1.102,0,2,0.897,2,2V28z"/>
	<path fill="#010101" d="M7.283,31.052L2.26,29.368l1.656-5.056c0.172-0.525-0.115-1.089-0.639-1.261
		c-0.53-0.174-1.091,0.115-1.262,0.639l-1.965,6c-0.171,0.522,0.112,1.084,0.632,1.259l5.965,2c0.105,0.035,0.213,0.052,0.318,0.052
		c0.418,0,0.807-0.265,0.948-0.683C8.089,31.795,7.806,31.228,7.283,31.052z"/>
	<path fill="#010101" d="M47.73,29.276c-2.485-2.655-6.913-4.812-12.47-6.073c-0.544-0.126-1.075,0.215-1.197,0.754
		c-0.122,0.538,0.216,1.074,0.754,1.196c5.172,1.174,9.239,3.123,11.452,5.489c0.198,0.211,0.464,0.317,0.731,0.317
		c0.245,0,0.49-0.089,0.683-0.269C48.086,30.312,48.107,29.679,47.73,29.276z"/>
	<path fill="#010101" d="M12.731,23.205c-2.238,0.507-4.271,1.161-6.093,1.938l1.276-3.826c0.175-0.524-0.109-1.09-0.632-1.265
		c-0.529-0.176-1.09,0.109-1.265,0.632l-2,6c-0.153,0.457,0.056,0.93,0.455,1.163c0.03,0.02,0.061,0.037,0.093,0.053
		c0.03,0.013,0.052,0.037,0.084,0.048l6,2c0.105,0.035,0.212,0.052,0.316,0.052c0.419,0,0.808-0.266,0.949-0.684
		c0.175-0.524-0.109-1.09-0.632-1.265l-3.564-1.188c1.638-0.677,3.453-1.255,5.456-1.709c0.538-0.122,0.876-0.657,0.754-1.196
		C13.806,23.42,13.274,23.081,12.731,23.205z"/>
</g>
<g id="nyt_x5F_exporter_x5F_info" display="none">
</g>
</svg>
