<?xml version="1.0" encoding="utf-8"?>
<!-- Generator: Adobe Illustrator 17.0.0, SVG Export Plug-In . SVG Version: 6.00 Build 0)  -->
<!DOCTYPE svg PUBLIC "-//W3C//DTD SVG 1.1//EN" "http://www.w3.org/Graphics/SVG/1.1/DTD/svg11.dtd">
<svg version="1.1" id="Layer_1" xmlns="http://www.w3.org/2000/svg" xmlns:xlink="http://www.w3.org/1999/xlink" x="0px" y="0px"
	 width="48px" height="48px" viewBox="0 0 48 48" enable-background="new 0 0 48 48" xml:space="preserve">
<g>
	<path fill="#010101" d="M24,16c-4.411,0-8,3.589-8,8v9c0,0.552,0.448,1,1,1s1-0.448,1-1v-9c0-3.309,2.691-6,6-6s6,2.691,6,6v9
		c0,0.552,0.448,1,1,1s1-0.448,1-1v-9C32,19.589,28.411,16,24,16z"/>
	<path fill="#010101" d="M19.624,10.781L23,8.081V13c0,0.552,0.448,1,1,1s1-0.448,1-1V8.081l3.375,2.7
		C28.559,10.928,28.78,11,28.999,11c0.293,0,0.584-0.128,0.781-0.375c0.346-0.431,0.276-1.06-0.156-1.405l-5-4
		c-0.042-0.034-0.093-0.05-0.139-0.076c-0.044-0.025-0.083-0.054-0.13-0.072c-0.105-0.04-0.214-0.062-0.325-0.066
		C24.02,5.006,24.011,5,24,5c-0.009,0-0.017,0.005-0.026,0.005c-0.113,0.003-0.224,0.026-0.331,0.067
		c-0.045,0.017-0.082,0.045-0.124,0.068c-0.048,0.027-0.1,0.044-0.144,0.08l-5,4c-0.431,0.344-0.501,0.974-0.156,1.405
		C18.564,11.056,19.193,11.126,19.624,10.781z"/>
	<path fill="#010101" d="M28.375,37.22L25,39.92V35c0-0.552-0.448-1-1-1s-1,0.448-1,1v4.92l-3.376-2.7
		c-0.43-0.345-1.06-0.276-1.405,0.156c-0.345,0.431-0.276,1.06,0.156,1.405l5,4c0.046,0.037,0.101,0.056,0.151,0.083
		c0.039,0.021,0.073,0.047,0.114,0.063C23.757,42.972,23.878,43,24,43c0.122,0,0.243-0.028,0.359-0.073
		c0.043-0.017,0.078-0.043,0.117-0.065c0.049-0.027,0.103-0.045,0.148-0.082l5-4c0.431-0.345,0.501-0.974,0.156-1.405
		C29.436,36.944,28.805,36.875,28.375,37.22z"/>
	<path fill="#010101" d="M13,23H8.081l2.699-3.375c0.346-0.431,0.276-1.06-0.156-1.405c-0.429-0.345-1.06-0.276-1.405,0.156l-4,5
		c-0.036,0.045-0.054,0.098-0.081,0.147c-0.022,0.04-0.049,0.076-0.066,0.119C5.028,23.757,5.001,23.876,5,23.998
		C5,23.998,5,23.999,5,24c0,0,0,0,0,0c0,0.123,0.028,0.243,0.073,0.359c0.016,0.041,0.041,0.075,0.062,0.113
		c0.028,0.051,0.047,0.106,0.084,0.152l4,5C9.416,29.872,9.707,30,10,30c0.22,0,0.44-0.072,0.625-0.219
		c0.431-0.345,0.501-0.974,0.156-1.405L8.081,25H13c0.552,0,1-0.448,1-1S13.552,23,13,23z"/>
	<path fill="#010101" d="M42.86,24.481c0.023-0.042,0.051-0.079,0.068-0.124c0.041-0.107,0.064-0.218,0.067-0.331
		C42.995,24.017,43,24.009,43,24c0-0.011-0.006-0.02-0.006-0.031c-0.004-0.111-0.025-0.22-0.066-0.325
		c-0.018-0.047-0.047-0.086-0.072-0.13c-0.026-0.046-0.042-0.096-0.076-0.139l-4-5c-0.344-0.431-0.974-0.501-1.405-0.156
		c-0.431,0.344-0.501,0.974-0.156,1.405l2.7,3.375H35c-0.552,0-1,0.448-1,1s0.448,1,1,1h4.919l-2.7,3.376
		c-0.345,0.431-0.276,1.06,0.156,1.405C37.559,29.928,37.78,30,37.999,30c0.293,0,0.584-0.128,0.781-0.375l4-5
		C42.815,24.581,42.833,24.529,42.86,24.481z"/>
	<path fill="#010101" d="M19.624,5.781L24,2.281l4.375,3.5C28.559,5.928,28.78,6,28.999,6c0.293,0,0.584-0.128,0.781-0.375
		c0.346-0.431,0.276-1.06-0.156-1.405l-5-4c-0.365-0.292-0.884-0.292-1.249,0l-5,4c-0.431,0.344-0.501,0.974-0.156,1.405
		C18.564,6.056,19.193,6.126,19.624,5.781z"/>
	<path fill="#010101" d="M28.375,42.22L24,45.72l-4.376-3.5c-0.43-0.345-1.06-0.276-1.405,0.156
		c-0.345,0.431-0.276,1.06,0.156,1.405l5,4C23.558,47.927,23.779,48,24,48s0.442-0.073,0.624-0.219l5-4
		c0.431-0.345,0.501-0.974,0.156-1.405C29.436,41.945,28.805,41.876,28.375,42.22z"/>
	<path fill="#010101" d="M47.78,23.376l-4-5c-0.344-0.431-0.974-0.501-1.405-0.156c-0.431,0.344-0.501,0.974-0.156,1.405l3.5,4.375
		l-3.5,4.376c-0.345,0.431-0.276,1.06,0.156,1.405C42.559,29.928,42.78,30,42.999,30c0.293,0,0.584-0.128,0.781-0.375l4-5
		C48.072,24.26,48.072,23.741,47.78,23.376z"/>
	<path fill="#010101" d="M2.281,24l3.499-4.375c0.346-0.431,0.276-1.06-0.156-1.405c-0.429-0.345-1.06-0.276-1.405,0.156l-4,5
		c-0.292,0.365-0.292,0.884,0,1.249l4,5C4.416,29.872,4.707,30,5,30c0.22,0,0.44-0.072,0.625-0.219
		c0.431-0.345,0.501-0.974,0.156-1.405L2.281,24z"/>
	<path fill="#010101" d="M27,28c0.552,0,1-0.448,1-1v-3c0-2.206-1.794-4-4-4s-4,1.794-4,4v3c0,0.552,0.448,1,1,1H27z M22,24
		c0-1.103,0.897-2,2-2s2,0.897,2,2v2h-4V24z"/>
</g>
<g id="nyt_x5F_exporter_x5F_info" display="none">
</g>
</svg>
