<?xml version="1.0" encoding="utf-8"?>
<!-- Generator: Adobe Illustrator 17.0.0, SVG Export Plug-In . SVG Version: 6.00 Build 0)  -->
<!DOCTYPE svg PUBLIC "-//W3C//DTD SVG 1.1//EN" "http://www.w3.org/Graphics/SVG/1.1/DTD/svg11.dtd">
<svg version="1.1" id="Layer_1" xmlns="http://www.w3.org/2000/svg" xmlns:xlink="http://www.w3.org/1999/xlink" x="0px" y="0px"
	 width="48px" height="48px" viewBox="0 0 48 48" enable-background="new 0 0 48 48" xml:space="preserve">
<g>
	<path fill="#010101" d="M24,16c-4.411,0-8,3.589-8,8v9c0,0.552,0.447,1,1,1s1-0.448,1-1v-9c0-3.309,2.691-6,6-6s6,2.691,6,6v9
		c0,0.552,0.447,1,1,1s1-0.448,1-1v-9C32,19.589,28.411,16,24,16z"/>
	<path fill="#010101" d="M19.625,5.781L23,3.081V11c0,0.552,0.447,1,1,1s1-0.448,1-1V3.081l3.375,2.7C28.56,5.928,28.78,6,28.999,6
		c0.294,0,0.584-0.128,0.782-0.375c0.345-0.431,0.275-1.06-0.156-1.405l-5-4c-0.043-0.035-0.094-0.052-0.142-0.078
		c-0.043-0.024-0.081-0.052-0.127-0.07c-0.106-0.041-0.216-0.063-0.328-0.066C24.018,0.005,24.01,0,24,0s-0.018,0.005-0.028,0.006
		c-0.112,0.003-0.222,0.026-0.328,0.066c-0.046,0.018-0.084,0.046-0.127,0.07c-0.047,0.026-0.098,0.043-0.142,0.078l-5,4
		c-0.431,0.344-0.501,0.974-0.156,1.405C18.564,6.055,19.192,6.126,19.625,5.781z"/>
	<path fill="#010101" d="M28.375,42.22L25,44.92V37c0-0.552-0.447-1-1-1s-1,0.448-1,1v7.92l-3.375-2.7
		c-0.432-0.345-1.059-0.275-1.406,0.156c-0.345,0.431-0.275,1.06,0.156,1.405l5,4c0.046,0.036,0.099,0.055,0.149,0.082
		c0.039,0.022,0.074,0.048,0.117,0.064C23.757,47.972,23.878,48,24,48s0.243-0.028,0.359-0.072c0.043-0.016,0.078-0.043,0.117-0.064
		c0.05-0.027,0.103-0.046,0.149-0.082l5-4c0.43-0.345,0.501-0.974,0.156-1.405C29.435,41.945,28.808,41.875,28.375,42.22z"/>
	<path fill="#010101" d="M11,23H3.08l2.701-3.375c0.345-0.431,0.275-1.06-0.156-1.405c-0.431-0.346-1.06-0.275-1.406,0.156l-4,5
		c-0.036,0.044-0.053,0.097-0.08,0.145c-0.023,0.041-0.05,0.077-0.067,0.121C0.028,23.757,0.001,23.876,0,23.998
		C0,23.998,0,23.999,0,24c0,0,0,0,0,0c0,0.122,0.028,0.243,0.072,0.359c0.016,0.042,0.042,0.076,0.063,0.115
		c0.028,0.051,0.046,0.105,0.083,0.151l4,5C4.417,29.872,4.707,30,5.001,30c0.219,0,0.439-0.072,0.624-0.219
		c0.43-0.345,0.501-0.974,0.156-1.405L3.08,25H11c0.553,0,1-0.448,1-1S11.553,23,11,23z"/>
	<path fill="#010101" d="M48,24C48,24,48,24,48,24c0-0.001,0-0.002,0-0.003c0-0.121-0.027-0.241-0.072-0.355
		c-0.017-0.044-0.044-0.08-0.067-0.121c-0.027-0.048-0.044-0.101-0.08-0.145l-4-5c-0.346-0.431-0.973-0.502-1.406-0.156
		c-0.43,0.344-0.501,0.974-0.156,1.405L44.92,23H37c-0.553,0-1,0.448-1,1s0.447,1,1,1h7.92l-2.701,3.376
		c-0.345,0.431-0.275,1.06,0.156,1.405C42.56,29.928,42.78,30,42.999,30c0.294,0,0.584-0.128,0.782-0.375l4-5
		c0.037-0.046,0.056-0.1,0.083-0.151c0.021-0.039,0.047-0.073,0.063-0.115C47.972,24.243,48,24.123,48,24z"/>
	<path fill="#010101" d="M27,28c0.553,0,1-0.448,1-1v-3c0-2.206-1.794-4-4-4s-4,1.794-4,4v3c0,0.552,0.447,1,1,1H27z M22,24
		c0-1.103,0.897-2,2-2c1.102,0,2,0.897,2,2v2h-4V24z"/>
</g>
<g id="nyt_x5F_exporter_x5F_info" display="none">
</g>
</svg>
