<?xml version="1.0" encoding="utf-8"?>
<!-- Generator: Adobe Illustrator 17.0.0, SVG Export Plug-In . SVG Version: 6.00 Build 0)  -->
<!DOCTYPE svg PUBLIC "-//W3C//DTD SVG 1.1//EN" "http://www.w3.org/Graphics/SVG/1.1/DTD/svg11.dtd">
<svg version="1.1" id="Layer_1" xmlns="http://www.w3.org/2000/svg" xmlns:xlink="http://www.w3.org/1999/xlink" x="0px" y="0px"
	 width="48px" height="48px" viewBox="0 0 48 48" enable-background="new 0 0 48 48" xml:space="preserve">
<g>
	<path fill="#010101" d="M46.243,21.337c-1.336-1.667-3.241-2.715-5.365-2.949c-4.383-0.481-8.345,2.69-8.83,7.074l-1.974,17.893
		c-0.06,0.549,0.336,1.043,0.885,1.104c0.557,0.065,1.043-0.335,1.103-0.884l1.974-17.893c0.363-3.287,3.327-5.68,6.623-5.305
		c1.591,0.175,3.021,0.961,4.023,2.212c1.002,1.251,1.457,2.817,1.281,4.409L43.988,44.89c-0.06,0.549,0.336,1.044,0.885,1.104
		C44.91,45.998,44.947,46,44.983,46c0.503,0,0.937-0.378,0.994-0.89l1.975-17.894C48.186,25.093,47.579,23.005,46.243,21.337z"/>
	<path fill="#010101" d="M40.437,22.365c-2.215-0.236-4.173,1.361-4.414,3.537l-0.329,2.982c-0.06,0.549,0.336,1.043,0.885,1.104
		l5.964,0.658c0.036,0.004,0.073,0.006,0.109,0.006c0.227,0,0.448-0.076,0.625-0.22c0.207-0.165,0.34-0.406,0.369-0.67l0.329-2.982
		c0.118-1.062-0.186-2.106-0.854-2.94C42.452,23.006,41.5,22.482,40.437,22.365z M41.988,26.56l-0.22,1.989l-3.976-0.439l0.22-1.988
		c0.119-1.089,1.097-1.895,2.207-1.768c0.53,0.058,1.007,0.32,1.341,0.737C41.895,25.508,42.047,26.03,41.988,26.56z"/>
	<path fill="#010101" d="M7.123,18.389c-2.124,0.234-4.029,1.282-5.365,2.949c-1.336,1.668-1.943,3.755-1.709,5.879L2.024,45.11
		C2.081,45.622,2.514,46,3.017,46c0.036,0,0.073-0.002,0.11-0.006c0.549-0.06,0.946-0.555,0.885-1.104L2.037,26.999
		c-0.176-1.593,0.279-3.159,1.281-4.409c1.001-1.251,2.431-2.037,4.023-2.212c3.3-0.367,6.26,2.018,6.623,5.305l1.974,17.893
		c0.061,0.548,0.549,0.944,1.104,0.884c0.549-0.061,0.945-0.555,0.885-1.104l-1.974-17.893
		C15.468,21.078,11.495,17.906,7.123,18.389z"/>
	<path fill="#010101" d="M7.562,22.365c-1.063,0.118-2.015,0.642-2.684,1.475c-0.667,0.834-0.971,1.878-0.854,2.94l0.33,2.982
		c0.029,0.263,0.162,0.504,0.369,0.67c0.178,0.143,0.398,0.22,0.625,0.22c0.036,0,0.073-0.002,0.108-0.006l5.964-0.658
		c0.549-0.061,0.945-0.555,0.885-1.104l-0.329-2.982C11.736,23.726,9.774,22.127,7.562,22.365z M6.232,28.549l-0.22-1.989
		c-0.058-0.53,0.093-1.052,0.428-1.469c0.334-0.417,0.811-0.678,1.341-0.737c0.076-0.009,0.15-0.013,0.224-0.013
		c1.018,0,1.872,0.765,1.983,1.781l0.22,1.988L6.232,28.549z"/>
	<path fill="#010101" d="M19.708,4.634c-0.391-0.391-1.023-0.391-1.414,0c-0.391,0.391-0.391,1.023,0,1.414l1.548,1.548
		C13.339,8.394,7.843,11.028,5.007,14.75c-0.335,0.439-0.251,1.066,0.188,1.401c0.182,0.138,0.395,0.205,0.606,0.205
		c0.301,0,0.599-0.136,0.796-0.394c2.503-3.284,7.696-5.698,13.675-6.401l-1.166,2.332c-0.247,0.494-0.047,1.095,0.447,1.342
		c0.143,0.071,0.296,0.105,0.446,0.105c0.367,0,0.72-0.202,0.896-0.552l2-4c0.193-0.385,0.118-0.85-0.187-1.154L19.708,4.634z"/>
	<path fill="#010101" d="M27.728,9.559c5.979,0.705,11.179,3.123,13.677,6.405c0.197,0.259,0.495,0.395,0.797,0.395
		c0.211,0,0.424-0.066,0.605-0.205c0.439-0.334,0.524-0.962,0.19-1.401c-2.831-3.72-8.334-6.358-14.838-7.158l1.548-1.548
		c0.391-0.391,0.391-1.023,0-1.414c-0.391-0.391-1.023-0.391-1.414,0l-3,3c-0.305,0.304-0.38,0.769-0.188,1.154l2,4
		c0.176,0.351,0.529,0.554,0.896,0.553c0.15,0,0.303-0.034,0.447-0.106c0.494-0.247,0.694-0.848,0.447-1.342L27.728,9.559z"/>
</g>
<g id="nyt_x5F_exporter_x5F_info" display="none">
</g>
</svg>
