<?xml version="1.0" encoding="utf-8"?>
<!-- Generator: Adobe Illustrator 17.0.0, SVG Export Plug-In . SVG Version: 6.00 Build 0)  -->
<!DOCTYPE svg PUBLIC "-//W3C//DTD SVG 1.1//EN" "http://www.w3.org/Graphics/SVG/1.1/DTD/svg11.dtd">
<svg version="1.1" id="Layer_1" xmlns="http://www.w3.org/2000/svg" xmlns:xlink="http://www.w3.org/1999/xlink" x="0px" y="0px"
	 width="48px" height="48px" viewBox="0 0 48 48" enable-background="new 0 0 48 48" xml:space="preserve">
<g>
	<path fill="#010101" d="M47.949,29.684l-2-6c-0.174-0.523-0.738-0.809-1.265-0.632c-0.524,0.175-0.807,0.741-0.632,1.265
		l1.684,5.051l-5.052,1.684c-0.524,0.175-0.807,0.741-0.632,1.265c0.139,0.419,0.529,0.684,0.948,0.684
		c0.104,0,0.211-0.017,0.317-0.052l6-2C47.841,30.774,48.124,30.208,47.949,29.684z"/>
	<path fill="#010101" d="M12.704,23.203c-5.529,1.255-9.945,3.411-12.435,6.073c-0.377,0.404-0.356,1.036,0.047,1.414
		C0.51,30.87,0.755,30.959,1,30.959c0.267,0,0.533-0.106,0.73-0.317c2.22-2.372,6.275-4.322,11.417-5.489
		c0.538-0.122,0.876-0.657,0.754-1.196C13.779,23.418,13.248,23.081,12.704,23.203z"/>
	<path fill="#010101" d="M43.404,27.899c0.029-0.015,0.056-0.03,0.084-0.048c0.404-0.232,0.614-0.708,0.461-1.167l-2-6
		c-0.175-0.523-0.737-0.808-1.265-0.632c-0.524,0.175-0.807,0.741-0.632,1.265l1.276,3.828c-1.822-0.778-3.857-1.432-6.095-1.94
		c-0.546-0.125-1.075,0.215-1.197,0.754c-0.122,0.538,0.216,1.074,0.754,1.196c2.003,0.455,3.819,1.033,5.456,1.71l-3.562,1.187
		c-0.524,0.175-0.807,0.741-0.632,1.265c0.139,0.419,0.529,0.684,0.948,0.684c0.104,0,0.211-0.017,0.317-0.052l6-2
		C43.35,27.938,43.373,27.913,43.404,27.899z"/>
	<path fill="#010101" d="M24,18c-4.411,0-8,3.589-8,8v19c0,0.552,0.447,1,1,1s1-0.448,1-1V26c0-3.309,2.691-6,6-6s6,2.691,6,6v19
		c0,0.552,0.447,1,1,1s1-0.448,1-1V26C32,21.589,28.411,18,24,18z"/>
	<path fill="#010101" d="M24,22c-2.206,0-4,1.794-4,4v3c0,0.552,0.447,1,1,1h6c0.553,0,1-0.448,1-1v-3C28,23.794,26.206,22,24,22z
		 M26,28h-4v-2c0-1.103,0.897-2,2-2c1.102,0,2,0.897,2,2V28z"/>
</g>
<g id="nyt_x5F_exporter_x5F_info" display="none">
</g>
</svg>
