<?xml version="1.0" encoding="utf-8"?>
<!-- Generator: Adobe Illustrator 17.0.0, SVG Export Plug-In . SVG Version: 6.00 Build 0)  -->
<!DOCTYPE svg PUBLIC "-//W3C//DTD SVG 1.1//EN" "http://www.w3.org/Graphics/SVG/1.1/DTD/svg11.dtd">
<svg version="1.1" id="Layer_1" xmlns="http://www.w3.org/2000/svg" xmlns:xlink="http://www.w3.org/1999/xlink" x="0px" y="0px"
	 width="48px" height="48px" viewBox="0 0 48 48" enable-background="new 0 0 48 48" xml:space="preserve">
<g>
	<path fill="#010101" d="M24,24c0-4.411-3.589-8-8-8s-8,3.589-8,8v9c0,0.552,0.447,1,1,1s1-0.448,1-1v-9c0-3.309,2.691-6,6-6
		s6,2.691,6,6v9c0,0.552,0.447,1,1,1s1-0.448,1-1V24z"/>
	<path fill="#010101" d="M16,20c-2.206,0-4,1.794-4,4v3c0,0.552,0.447,1,1,1h6c0.553,0,1-0.448,1-1v-3C20,21.794,18.206,20,16,20z
		 M18,26h-4v-2c0-1.103,0.897-2,2-2c1.102,0,2,0.897,2,2V26z"/>
	<path fill="#010101" d="M34,16c-4.411,0-8,3.589-8,8v9c0,0.552,0.447,1,1,1s1-0.448,1-1v-9c0-3.309,2.691-6,6-6s6,2.691,6,6v9
		c0,0.552,0.447,1,1,1s1-0.448,1-1v-9C42,19.589,38.411,16,34,16z"/>
	<path fill="#010101" d="M34,20c-2.206,0-4,1.794-4,4v3c0,0.552,0.447,1,1,1h6c0.553,0,1-0.448,1-1v-3C38,21.794,36.206,20,34,20z
		 M36,26h-4v-2c0-1.103,0.897-2,2-2c1.102,0,2,0.897,2,2V26z"/>
	<path fill="#010101" d="M34.371,35.061c-0.518-0.189-1.093,0.077-1.282,0.596c-1.585,4.339-3.941,7.219-6.502,8.072l1.343-3.357
		c0.205-0.513-0.045-1.094-0.558-1.3c-0.508-0.204-1.095,0.044-1.3,0.557l-1.992,4.979c-0.001,0.002-0.002,0.005-0.003,0.007
		l-0.006,0.014c-0.016,0.04-0.012,0.083-0.022,0.124C24.029,44.834,24,44.912,24,45c0,0.005,0.003,0.01,0.003,0.015
		c0.001,0.053,0.022,0.103,0.031,0.156c0.014,0.081,0.023,0.162,0.055,0.235c0.002,0.005,0.001,0.011,0.004,0.016
		c0.018,0.04,0.053,0.067,0.076,0.103c0.045,0.071,0.087,0.142,0.148,0.2c0.04,0.038,0.089,0.06,0.135,0.091
		c0.064,0.043,0.125,0.087,0.198,0.115c0.012,0.005,0.021,0.015,0.034,0.02l6,2c0.105,0.035,0.211,0.052,0.316,0.052
		c0.419,0,0.809-0.266,0.95-0.684c0.175-0.524-0.109-1.09-0.632-1.265l-2.883-0.961c2.65-1.425,4.972-4.473,6.533-8.747
		C35.157,35.825,34.891,35.251,34.371,35.061z"/>
	<path fill="#010101" d="M15.326,13.934c0.103,0.033,0.206,0.049,0.308,0.049c0.422,0,0.814-0.27,0.951-0.693
		c1.556-4.812,4.081-8.084,6.826-9.012l-1.34,3.351c-0.205,0.513,0.045,1.094,0.558,1.3C22.75,8.978,22.876,9.001,23,9.001
		C23.396,9,23.772,8.762,23.928,8.373l2-5c0.018-0.045,0.014-0.094,0.025-0.14C25.972,3.156,26,3.083,26,3
		c0-0.005-0.003-0.009-0.003-0.014c-0.001-0.051-0.022-0.099-0.03-0.15c-0.014-0.083-0.023-0.167-0.057-0.242
		c-0.002-0.005-0.001-0.01-0.003-0.014c-0.016-0.035-0.048-0.059-0.068-0.092c-0.047-0.076-0.093-0.152-0.158-0.213
		c-0.036-0.034-0.081-0.054-0.122-0.082c-0.068-0.047-0.133-0.094-0.212-0.123c-0.011-0.004-0.02-0.014-0.031-0.018l-6-2
		c-0.528-0.176-1.091,0.109-1.265,0.632c-0.175,0.524,0.109,1.09,0.632,1.265l2.868,0.956c-2.858,1.528-5.307,4.941-6.869,9.77
		C14.513,13.2,14.801,13.764,15.326,13.934z"/>
</g>
<g id="nyt_x5F_exporter_x5F_info" display="none">
</g>
</svg>
