<?xml version="1.0" encoding="utf-8"?>
<!-- Generator: Adobe Illustrator 17.0.0, SVG Export Plug-In . SVG Version: 6.00 Build 0)  -->
<!DOCTYPE svg PUBLIC "-//W3C//DTD SVG 1.1//EN" "http://www.w3.org/Graphics/SVG/1.1/DTD/svg11.dtd">
<svg version="1.1" id="Layer_1" xmlns="http://www.w3.org/2000/svg" xmlns:xlink="http://www.w3.org/1999/xlink" x="0px" y="0px"
	 width="48px" height="48px" viewBox="0 0 48 48" enable-background="new 0 0 48 48" xml:space="preserve">
<g>
	<path fill="#010101" d="M13.577,22.026c-2.191,0.247-3.772,2.231-3.526,4.422l0.336,2.982c0.03,0.264,0.163,0.505,0.371,0.67
		c0.178,0.142,0.397,0.218,0.623,0.218c0.037,0,0.075-0.002,0.112-0.006l5.963-0.674c0.549-0.062,0.944-0.558,0.882-1.106
		l-0.337-2.981C17.756,23.379,15.806,21.776,13.577,22.026z M12.263,28.213l-0.224-1.988c-0.124-1.096,0.667-2.088,1.763-2.211
		c0.076-0.009,0.152-0.013,0.227-0.013c1.017,0,1.87,0.763,1.985,1.776l0.225,1.987L12.263,28.213z"/>
	<path fill="#010101" d="M34.877,18.049c-4.384-0.48-8.345,2.691-8.83,7.074l-1.874,16.991l-0.278-0.003l-1.918-17.008
		c-0.496-4.382-4.451-7.547-8.848-7.051c-4.383,0.494-7.547,4.463-7.053,8.846l2.018,17.886c0.057,0.511,0.491,0.888,0.993,0.888
		c0.037,0,0.075-0.002,0.114-0.007c0.549-0.062,0.944-0.557,0.882-1.106L8.065,26.672c-0.371-3.287,2.001-6.263,5.289-6.634
		c3.277-0.372,6.264,2,6.635,5.288l2.018,17.887c0.056,0.502,0.478,0.883,0.983,0.888l2.067,0.021c0.004,0,0.008,0,0.011,0
		c0.51,0,0.938-0.383,0.994-0.89l1.974-17.891c0.363-3.287,3.325-5.679,6.623-5.305c1.591,0.175,3.021,0.961,4.023,2.212
		c1.002,1.251,1.457,2.817,1.281,4.409L37.988,44.55c-0.06,0.549,0.336,1.043,0.885,1.104c0.558,0.064,1.043-0.335,1.104-0.884
		l1.974-17.893c0.234-2.124-0.373-4.211-1.709-5.879C38.906,19.331,37.001,18.283,34.877,18.049z"/>
	<path fill="#010101" d="M34.437,22.023c-2.218-0.237-4.175,1.363-4.414,3.539l-0.329,2.981c-0.029,0.263,0.048,0.528,0.214,0.735
		c0.166,0.207,0.407,0.34,0.671,0.369l5.964,0.658c0.037,0.004,0.074,0.006,0.11,0.006c0.503,0,0.937-0.379,0.993-0.891l0.329-2.981
		C38.216,24.246,36.629,22.265,34.437,22.023z M35.988,26.22l-0.219,1.987l-3.977-0.439l0.22-1.986c0.119-1.09,1.1-1.893,2.207-1.77
		C35.315,24.132,36.109,25.123,35.988,26.22z"/>
	<path fill="#010101" d="M48,10c0-0.552-0.447-1-1-1s-1,0.448-1,1v2.469c-3.273-2.941-8.268-4.935-13.906-5.464
		c-0.563-0.049-1.038,0.352-1.09,0.902c-0.051,0.55,0.352,1.037,0.902,1.089C37.073,9.48,41.755,11.345,44.703,14H42
		c-0.553,0-1,0.448-1,1s0.447,1,1,1h5c0,0,0,0,0,0s0,0,0,0c0.12,0,0.239-0.028,0.355-0.072c0.04-0.015,0.073-0.038,0.11-0.058
		c0.047-0.025,0.097-0.041,0.141-0.074c0.019-0.014,0.027-0.035,0.045-0.051c0.052-0.045,0.092-0.097,0.133-0.151
		c0.038-0.051,0.077-0.099,0.104-0.155c0.027-0.055,0.042-0.113,0.058-0.172c0.019-0.067,0.036-0.132,0.041-0.202
		C47.988,15.042,48,15.023,48,15V10z"/>
	<path fill="#010101" d="M7,15c0-0.552-0.447-1-1-1H3.299c2.961-2.702,7.564-4.532,12.791-5.004c0.55-0.05,0.956-0.536,0.906-1.086
		c-0.05-0.55-0.543-0.945-1.086-0.906C10.289,7.512,5.292,9.511,2,12.482V10c0-0.552-0.447-1-1-1s-1,0.448-1,1v5
		c0,0.025,0.012,0.045,0.014,0.069c0.004,0.081,0.024,0.156,0.047,0.234c0.013,0.041,0.022,0.082,0.041,0.12
		c0.039,0.086,0.094,0.161,0.158,0.234c0.02,0.022,0.036,0.045,0.057,0.065c0.028,0.028,0.045,0.063,0.077,0.088
		c0.181,0.138,0.394,0.205,0.605,0.205c0.024,0,0.046-0.014,0.07-0.016H6C6.553,16,7,15.552,7,15z"/>
</g>
<g id="nyt_x5F_exporter_x5F_info" display="none">
</g>
</svg>
