<?xml version="1.0" encoding="utf-8"?>
<!-- Generator: Adobe Illustrator 17.0.0, SVG Export Plug-In . SVG Version: 6.00 Build 0)  -->
<!DOCTYPE svg PUBLIC "-//W3C//DTD SVG 1.1//EN" "http://www.w3.org/Graphics/SVG/1.1/DTD/svg11.dtd">
<svg version="1.1" id="Layer_1" xmlns="http://www.w3.org/2000/svg" xmlns:xlink="http://www.w3.org/1999/xlink" x="0px" y="0px"
	 width="48px" height="48px" viewBox="0 0 48 48" enable-background="new 0 0 48 48" xml:space="preserve">
<g>
	<path fill="#010101" d="M35,24c0-4.411-3.589-8-8-8H8c-0.552,0-1,0.448-1,1s0.448,1,1,1h19c3.309,0,6,2.691,6,6s-2.691,6-6,6H8
		c-0.552,0-1,0.448-1,1s0.448,1,1,1h19C31.411,32,35,28.411,35,24z"/>
	<path fill="#010101" d="M22.624,5.781L26,3.081V11c0,0.552,0.448,1,1,1s1-0.448,1-1V3.081l3.375,2.7C31.559,5.928,31.78,6,31.999,6
		c0.293,0,0.584-0.128,0.781-0.375c0.346-0.431,0.276-1.06-0.156-1.405l-5-4c-0.042-0.034-0.093-0.05-0.139-0.076
		c-0.044-0.025-0.083-0.054-0.13-0.072c-0.105-0.04-0.214-0.062-0.325-0.066C27.02,0.006,27.011,0,27,0
		c-0.009,0-0.017,0.005-0.026,0.005c-0.113,0.003-0.224,0.026-0.331,0.067c-0.045,0.017-0.082,0.045-0.124,0.068
		c-0.048,0.027-0.1,0.044-0.144,0.08l-5,4c-0.431,0.344-0.501,0.974-0.156,1.405C21.563,6.056,22.194,6.126,22.624,5.781z"/>
	<path fill="#010101" d="M31.375,42.22L28,44.92V37c0-0.552-0.448-1-1-1s-1,0.448-1,1v7.92l-3.376-2.7
		c-0.43-0.345-1.061-0.276-1.405,0.156c-0.345,0.431-0.276,1.06,0.156,1.405l5,4c0.046,0.037,0.101,0.056,0.151,0.083
		c0.039,0.021,0.073,0.047,0.114,0.063C26.757,47.972,26.878,48,27,48c0.122,0,0.243-0.028,0.359-0.073
		c0.043-0.017,0.078-0.043,0.117-0.065c0.049-0.027,0.103-0.045,0.148-0.082l5-4c0.431-0.345,0.501-0.974,0.156-1.405
		C32.436,41.945,31.806,41.875,31.375,42.22z"/>
	<path fill="#010101" d="M27,28c2.206,0,4-1.794,4-4s-1.794-4-4-4h-3c-0.552,0-1,0.448-1,1v6c0,0.552,0.448,1,1,1H27z M25,22h2
		c1.103,0,2,0.897,2,2s-0.897,2-2,2h-2V22z"/>
</g>
<g id="nyt_x5F_exporter_x5F_info" display="none">
</g>
</svg>
