<?xml version="1.0" encoding="utf-8"?>
<!-- Generator: Adobe Illustrator 17.0.0, SVG Export Plug-In . SVG Version: 6.00 Build 0)  -->
<!DOCTYPE svg PUBLIC "-//W3C//DTD SVG 1.1//EN" "http://www.w3.org/Graphics/SVG/1.1/DTD/svg11.dtd">
<svg version="1.1" id="Layer_1" xmlns="http://www.w3.org/2000/svg" xmlns:xlink="http://www.w3.org/1999/xlink" x="0px" y="0px"
	 width="48px" height="48px" viewBox="0 0 48 48" enable-background="new 0 0 48 48" xml:space="preserve">
<g>
	<path fill="#010101" d="M24,19c-4.411,0-8,3.589-8,8v19c0,0.552,0.448,1,1,1s1-0.448,1-1V27c0-3.309,2.691-6,6-6s6,2.691,6,6v19
		c0,0.552,0.448,1,1,1s1-0.448,1-1V27C32,22.589,28.411,19,24,19z"/>
	<path fill="#010101" d="M11,26H3.081l2.699-3.375c0.345-0.431,0.276-1.06-0.156-1.405c-0.429-0.345-1.06-0.276-1.405,0.156l-4,5
		c-0.036,0.045-0.054,0.098-0.081,0.147c-0.022,0.04-0.049,0.076-0.066,0.119C0.028,26.757,0.001,26.876,0,26.998
		C0,26.998,0,26.999,0,27c0,0,0,0,0,0c0,0.123,0.028,0.243,0.073,0.359c0.016,0.041,0.041,0.075,0.062,0.113
		c0.028,0.051,0.047,0.106,0.084,0.152l4,5C4.416,32.872,4.707,33,5,33c0.22,0,0.44-0.072,0.625-0.219
		c0.431-0.345,0.501-0.974,0.156-1.405L3.081,28H11c0.552,0,1-0.448,1-1S11.552,26,11,26z"/>
	<path fill="#010101" d="M48,27C48,27,48,27,48,27c0-0.001,0-0.002,0-0.003c0-0.121-0.027-0.241-0.072-0.356
		c-0.017-0.043-0.043-0.079-0.066-0.119c-0.027-0.049-0.045-0.102-0.081-0.147l-4-5c-0.344-0.432-0.975-0.501-1.405-0.156
		c-0.431,0.344-0.501,0.974-0.156,1.405L44.92,26H37c-0.552,0-1,0.448-1,1s0.448,1,1,1h7.92l-2.7,3.376
		c-0.345,0.431-0.276,1.06,0.156,1.405C42.56,32.928,42.781,33,43,33c0.292,0,0.583-0.128,0.781-0.375l4-5
		c0.037-0.047,0.056-0.101,0.084-0.152c0.021-0.038,0.046-0.072,0.062-0.113C47.972,27.244,48,27.123,48,27z"/>
	<path fill="#010101" d="M24,23c-2.206,0-4,1.794-4,4v3c0,0.552,0.448,1,1,1h6c0.552,0,1-0.448,1-1v-3C28,24.794,26.206,23,24,23z
		 M26,29h-4v-2c0-1.103,0.897-2,2-2s2,0.897,2,2V29z"/>
</g>
<g id="nyt_x5F_exporter_x5F_info" display="none">
</g>
</svg>
