<?xml version="1.0" encoding="utf-8"?>
<!-- Generator: Adobe Illustrator 17.0.0, SVG Export Plug-In . SVG Version: 6.00 Build 0)  -->
<!DOCTYPE svg PUBLIC "-//W3C//DTD SVG 1.1//EN" "http://www.w3.org/Graphics/SVG/1.1/DTD/svg11.dtd">
<svg version="1.1" id="Layer_1" xmlns="http://www.w3.org/2000/svg" xmlns:xlink="http://www.w3.org/1999/xlink" x="0px" y="0px"
	 width="48px" height="48px" viewBox="0 0 48 48" enable-background="new 0 0 48 48" xml:space="preserve">
<g>
	<path fill="#010101" d="M31.838,44.991l-3.269,0.538c1.811-2.554,3.276-6.097,4.227-10.283c0.122-0.539-0.216-1.075-0.754-1.197
		c-0.543-0.125-1.075,0.214-1.197,0.753c-0.949,4.179-2.417,7.612-4.203,9.95l-0.656-3.905c-0.091-0.545-0.598-0.912-1.152-0.821
		c-0.544,0.092-0.912,0.608-0.82,1.152l0.968,5.764c-0.016,0.261,0.068,0.528,0.259,0.735C25.438,47.891,25.707,48,25.977,48
		c0.13,0,0.258-0.03,0.381-0.08l5.804-0.956c0.545-0.089,0.914-0.604,0.824-1.149C32.898,45.271,32.386,44.903,31.838,44.991z"/>
	<path fill="#010101" d="M30,16H11c-0.553,0-1,0.448-1,1s0.447,1,1,1h19c3.309,0,6,2.691,6,6s-2.691,6-6,6H11c-0.553,0-1,0.448-1,1
		s0.447,1,1,1h19c4.411,0,8-3.589,8-8S34.411,16,30,16z"/>
	<path fill="#010101" d="M30,28c2.206,0,4-1.794,4-4s-1.794-4-4-4h-3c-0.553,0-1,0.448-1,1v6c0,0.552,0.447,1,1,1H30z M28,22h2
		c1.102,0,2,0.897,2,2s-0.898,2-2,2h-2V22z"/>
	<path fill="#010101" d="M30.845,13.159c0.106,0.464,0.518,0.779,0.975,0.779c0.074,0,0.148-0.008,0.221-0.025
		c0.539-0.122,0.877-0.657,0.755-1.196c-1.257-5.54-3.414-9.96-6.074-12.447c-0.402-0.377-1.034-0.357-1.413,0.047
		c-0.377,0.404-0.355,1.037,0.048,1.414C27.727,3.947,29.677,8.006,30.845,13.159z"/>
</g>
<g id="nyt_x5F_exporter_x5F_info" display="none">
</g>
</svg>
