<?xml version="1.0" encoding="utf-8"?>
<!-- Generator: Adobe Illustrator 17.0.0, SVG Export Plug-In . SVG Version: 6.00 Build 0)  -->
<!DOCTYPE svg PUBLIC "-//W3C//DTD SVG 1.1//EN" "http://www.w3.org/Graphics/SVG/1.1/DTD/svg11.dtd">
<svg version="1.1" id="Layer_1" xmlns="http://www.w3.org/2000/svg" xmlns:xlink="http://www.w3.org/1999/xlink" x="0px" y="0px"
	 width="48px" height="48px" viewBox="0 0 48 48" enable-background="new 0 0 48 48" xml:space="preserve">
<g>
	<path fill="#010101" d="M24,18c-4.411,0-8,3.589-8,8v19c0,0.552,0.448,1,1,1s1-0.448,1-1V26c0-3.309,2.691-6,6-6s6,2.691,6,6v19
		c0,0.552,0.448,1,1,1s1-0.448,1-1V26C32,21.589,28.411,18,24,18z"/>
	<path fill="#010101" d="M36.039,20.986c-0.525,0.172-0.81,0.738-0.637,1.262C35.799,23.454,36,24.716,36,26
		c0,2.269-0.636,4.478-1.84,6.387c-0.294,0.467-0.154,1.084,0.313,1.379c0.165,0.104,0.35,0.154,0.532,0.154
		c0.332,0,0.657-0.165,0.847-0.467C37.257,31.224,38,28.647,38,26c0-1.497-0.235-2.97-0.699-4.377
		C37.129,21.098,36.562,20.814,36.039,20.986z"/>
	<path fill="#010101" d="M24,14c0.552,0,1-0.448,1-1s-0.448-1-1-1c-7.72,0-14,6.28-14,14c0,2.632,0.735,5.199,2.127,7.422
		c0.19,0.303,0.516,0.469,0.849,0.469c0.181,0,0.364-0.05,0.529-0.153c0.468-0.293,0.61-0.91,0.317-1.378
		C12.63,30.456,12,28.257,12,26C12,19.383,17.383,14,24,14z"/>
	<path fill="#010101" d="M36,12h-1V9c0-0.552-0.448-1-1-1s-1,0.448-1,1v4c0,0.552,0.448,1,1,1h2c0.552,0,1-0.448,1-1
		S36.552,12,36,12z"/>
	<path fill="#010101" d="M24,22c-2.206,0-4,1.794-4,4v3c0,0.552,0.448,1,1,1h6c0.552,0,1-0.448,1-1v-3C28,23.794,26.206,22,24,22z
		 M26,28h-4v-2c0-1.103,0.897-2,2-2s2,0.897,2,2V28z"/>
	<path fill="#010101" d="M34,5c-3.86,0-7,3.14-7,7s3.14,7,7,7s7-3.14,7-7S37.86,5,34,5z M34,17c-2.757,0-5-2.243-5-5s2.243-5,5-5
		s5,2.243,5,5S36.757,17,34,17z"/>
</g>
<g id="nyt_x5F_exporter_x5F_info" display="none">
</g>
</svg>
