<?xml version="1.0" encoding="utf-8"?>
<!-- Generator: Adobe Illustrator 17.0.0, SVG Export Plug-In . SVG Version: 6.00 Build 0)  -->
<!DOCTYPE svg PUBLIC "-//W3C//DTD SVG 1.1//EN" "http://www.w3.org/Graphics/SVG/1.1/DTD/svg11.dtd">
<svg version="1.1" id="Layer_1" xmlns="http://www.w3.org/2000/svg" xmlns:xlink="http://www.w3.org/1999/xlink" x="0px" y="0px"
	 width="48px" height="48px" viewBox="0 0 48 48" enable-background="new 0 0 48 48" xml:space="preserve">
<g>
	<path fill="#010101" d="M24,14c-4.411,0-8,3.589-8,8v19c0,0.552,0.447,1,1,1s1-0.448,1-1V22c0-3.309,2.691-6,6-6s6,2.691,6,6v19
		c0,0.552,0.447,1,1,1s1-0.448,1-1V22C32,17.589,28.411,14,24,14z"/>
	<path fill="#010101" d="M24,8c-7.72,0-14,6.28-14,14c0,2.632,0.735,5.199,2.127,7.421c0.292,0.468,0.91,0.609,1.378,0.317
		c0.468-0.293,0.61-0.91,0.317-1.378C12.63,26.456,12,24.257,12,22c0-6.617,5.383-12,12-12s12,5.383,12,12
		c0,2.269-0.637,4.478-1.839,6.387c-0.296,0.467-0.156,1.085,0.312,1.379c0.165,0.104,0.349,0.154,0.532,0.154
		c0.332,0,0.656-0.165,0.847-0.467C37.257,27.225,38,24.648,38,22C38,14.28,31.72,8,24,8z"/>
	<path fill="#010101" d="M24,18c-2.206,0-4,1.794-4,4v3c0,0.552,0.447,1,1,1h6c0.553,0,1-0.448,1-1v-3C28,19.794,26.206,18,24,18z
		 M26,24h-4v-2c0-1.103,0.897-2,2-2c1.102,0,2,0.897,2,2V24z"/>
</g>
<g id="nyt_x5F_exporter_x5F_info" display="none">
</g>
</svg>
