<?xml version="1.0" encoding="utf-8"?>
<!-- Generator: Adobe Illustrator 17.0.0, SVG Export Plug-In . SVG Version: 6.00 Build 0)  -->
<!DOCTYPE svg PUBLIC "-//W3C//DTD SVG 1.1//EN" "http://www.w3.org/Graphics/SVG/1.1/DTD/svg11.dtd">
<svg version="1.1" id="Layer_1" xmlns="http://www.w3.org/2000/svg" xmlns:xlink="http://www.w3.org/1999/xlink" x="0px" y="0px"
	 width="48px" height="48px" viewBox="0 0 48 48" enable-background="new 0 0 48 48" xml:space="preserve">
<path fill="#010101" d="M24,0C10.767,0,0,10.767,0,24c0,13.233,10.767,24,24,24s24-10.767,24-24C48,10.767,37.233,0,24,0z
	 M18.019,15.804l2-10c0.078-0.391,0.381-0.698,0.771-0.781c2.74-0.587,3.625-0.599,6.419,0c0.391,0.083,0.693,0.391,0.771,0.781
	l1.962,9.81c0.05,0.119,0.077,0.25,0.077,0.387c0,0.552-0.447,1-1,1c-0.005,0-0.013,0-0.019,0c-0.151,0-0.305-0.034-0.445-0.104
	c-1.061-0.527-2.764-0.842-4.556-0.842s-3.494,0.315-4.554,0.842c-0.34,0.169-0.749,0.131-1.053-0.102
	C18.089,16.563,17.944,16.178,18.019,15.804z M19.891,33.277l-9.66,3.268c-0.104,0.036-0.213,0.053-0.32,0.053
	c-0.278,0-0.549-0.116-0.742-0.33c-1.93-2.137-2.319-2.812-3.209-5.557c-0.123-0.38-0.009-0.796,0.291-1.059l7.66-6.733
	c0.286-0.253,0.691-0.318,1.044-0.172c0.352,0.146,0.591,0.481,0.614,0.861c0.156,2.515,2.455,6.497,4.555,7.889
	c0.318,0.211,0.488,0.585,0.438,0.963C20.513,32.838,20.252,33.155,19.891,33.277z M18,24c0-3.309,2.691-6,6-6c3.309,0,6,2.691,6,6
	c0,3.309-2.691,6-6,6C20.691,30,18,27.309,18,24z M38.83,36.268c-0.192,0.214-0.464,0.33-0.742,0.33
	c-0.107,0-0.216-0.017-0.32-0.053l-9.66-3.268c-0.361-0.122-0.622-0.439-0.671-0.818c-0.05-0.378,0.12-0.752,0.439-0.962
	c2.101-1.394,4.399-5.375,4.555-7.889c0.023-0.381,0.262-0.715,0.614-0.862c0.352-0.145,0.758-0.08,1.044,0.172l7.66,6.733
	c0.3,0.263,0.414,0.679,0.291,1.059C41.153,33.451,40.764,34.126,38.83,36.268z"/>
</svg>
