<?xml version="1.0" encoding="utf-8"?>
<!-- Generator: Adobe Illustrator 17.1.0, SVG Export Plug-In . SVG Version: 6.00 Build 0)  -->
<!DOCTYPE svg PUBLIC "-//W3C//DTD SVG 1.0//EN" "http://www.w3.org/TR/2001/REC-SVG-20010904/DTD/svg10.dtd">
<svg version="1.0" id="Layer_1" xmlns="http://www.w3.org/2000/svg" xmlns:xlink="http://www.w3.org/1999/xlink" x="0px" y="0px"
	 width="48px" height="48px" viewBox="0 0 48 48" enable-background="new 0 0 48 48" xml:space="preserve">
<g>
	<path d="M8.54,18.021h30.92c-1.735-2.43-4.02-4.436-6.682-5.83c1.119-1.205,1.978-2.626,2.527-4.197
		C37.367,7.835,39,6.127,39,4.025c0-2.206-1.794-4-4-4s-4,1.794-4,4c0,1.591,0.94,2.956,2.288,3.6
		c-0.542,1.408-1.382,2.657-2.478,3.683c-2.117-0.817-4.407-1.283-6.809-1.283s-4.692,0.466-6.809,1.283
		c-1.096-1.026-1.936-2.276-2.478-3.683C16.06,6.982,17,5.616,17,4.025c0-2.206-1.794-4-4-4s-4,1.794-4,4
		c0,2.101,1.633,3.81,3.695,3.969c0.549,1.571,1.408,2.991,2.527,4.197C12.56,13.585,10.275,15.591,8.54,18.021z"/>
	<path d="M7.091,20.403l-3.695-1.646c-0.508-0.225-1.097,0.003-1.32,0.507c-0.226,0.504,0.002,1.096,0.506,1.32l3.697,1.646
		c-0.698,1.814-1.12,3.759-1.227,5.79H1c-0.553,0-1,0.448-1,1s0.447,1,1,1h4.05c0.118,2.266,0.613,4.434,1.46,6.423l-3.62,1.765
		c-0.496,0.242-0.702,0.841-0.46,1.337c0.173,0.355,0.528,0.561,0.899,0.561c0.147,0,0.296-0.032,0.438-0.101l3.629-1.77
		c3.094,5.555,8.893,9.385,15.604,9.737V20.021H7.275C7.208,20.146,7.155,20.277,7.091,20.403z"/>
	<path d="M47,28.021h-4.051c-0.107-2.031-0.529-3.977-1.227-5.791l3.696-1.646c0.505-0.225,0.731-0.815,0.507-1.32
		c-0.224-0.504-0.814-0.732-1.319-0.507l-3.696,1.646c-0.064-0.126-0.117-0.258-0.184-0.382H25v27.953
		c6.711-0.352,12.51-4.182,15.604-9.737l3.629,1.77c0.142,0.069,0.291,0.101,0.438,0.101c0.371,0,0.727-0.206,0.899-0.561
		c0.242-0.497,0.036-1.095-0.46-1.337l-3.621-1.765c0.847-1.989,1.341-4.157,1.46-6.423H47c0.553,0,1-0.448,1-1
		S47.553,28.021,47,28.021z"/>
</g>
</svg>
