<?xml version="1.0" encoding="utf-8"?>
<!-- Generator: Adobe Illustrator 17.0.0, SVG Export Plug-In . SVG Version: 6.00 Build 0)  -->
<!DOCTYPE svg PUBLIC "-//W3C//DTD SVG 1.1//EN" "http://www.w3.org/Graphics/SVG/1.1/DTD/svg11.dtd">
<svg version="1.1" id="Layer_1" xmlns="http://www.w3.org/2000/svg" xmlns:xlink="http://www.w3.org/1999/xlink" x="0px" y="0px"
	 width="48px" height="48px" viewBox="0 0 48 48" enable-background="new 0 0 48 48" xml:space="preserve">
<path fill="#010101" d="M47.758,0.348C47.567,0.127,47.291,0,47,0H1C0.709,0,0.433,0.127,0.242,0.348
	C0.053,0.568-0.032,0.86,0.011,1.148l6,40c0.056,0.366,0.308,0.671,0.656,0.794l17,6C23.774,47.981,23.888,48,24,48
	c0.112,0,0.226-0.019,0.333-0.057l17-6c0.349-0.123,0.601-0.429,0.656-0.794l6-40C48.032,0.86,47.947,0.568,47.758,0.348z
	 M35.515,9.857L18.61,20H33c0.29,0,0.565,0.126,0.756,0.345c0.189,0.219,0.275,0.51,0.234,0.797l-2,14
	c-0.056,0.391-0.336,0.712-0.716,0.82l-7,2C24.185,37.987,24.093,38,24,38c-0.093,0-0.185-0.013-0.274-0.039l-7-2
	c-0.376-0.107-0.654-0.423-0.714-0.809l-0.923-6c-0.084-0.546,0.29-1.057,0.836-1.141c0.555-0.087,1.057,0.291,1.141,0.836
	l0.825,5.367L24,35.96l6.102-1.743L31.847,22H15c-0.449,0-0.844-0.3-0.964-0.733c-0.12-0.433,0.063-0.893,0.449-1.124L31.39,10H13
	c-0.553,0-1-0.448-1-1c0-0.552,0.447-1,1-1h22c0.449,0,0.844,0.3,0.964,0.733C36.084,9.166,35.9,9.626,35.515,9.857z"/>
</svg>
