<?xml version="1.0" encoding="utf-8"?>
<!-- Generator: Adobe Illustrator 17.0.0, SVG Export Plug-In . SVG Version: 6.00 Build 0)  -->
<!DOCTYPE svg PUBLIC "-//W3C//DTD SVG 1.1//EN" "http://www.w3.org/Graphics/SVG/1.1/DTD/svg11.dtd">
<svg version="1.1" id="Layer_1" xmlns="http://www.w3.org/2000/svg" xmlns:xlink="http://www.w3.org/1999/xlink" x="0px" y="0px"
	 width="48px" height="48px" viewBox="0 0 48 48" enable-background="new 0 0 48 48" xml:space="preserve">
<g>
	<path fill="#010101" d="M10.361,21.961h5.793c-0.201,0-0.404-0.061-0.58-0.187c-0.405-0.289-2.432-1.816-2.568-3.476
		c-0.053-0.639,0.163-1.22,0.625-1.682c0.391-0.39,1.023-0.391,1.414,0c0.391,0.391,0.391,1.024,0,1.415
		c-0.051,0.05-0.05,0.063-0.046,0.102c0.039,0.479,0.947,1.446,1.738,2.015c0.448,0.322,0.552,0.946,0.23,1.395
		c-0.195,0.273-0.502,0.418-0.813,0.418h6.025c-0.379,0-0.725-0.214-0.895-0.553c-2.116-4.233,2.709-9.13,2.915-9.336
		c0.311-0.312,0.792-0.382,1.179-0.175c0.389,0.208,0.596,0.646,0.509,1.078c-0.35,1.748,0.436,2.534,1.431,3.529
		c1.03,1.03,2.441,2.441,1.211,4.904c-0.169,0.339-0.516,0.553-0.895,0.553h4.546c-0.312,0-0.618-0.146-0.813-0.418
		c-0.321-0.449-0.218-1.073,0.23-1.395c0.791-0.568,1.7-1.536,1.739-2.015c0.003-0.038,0.004-0.051-0.046-0.102
		c-0.391-0.391-0.391-1.023,0-1.414c0.391-0.39,1.023-0.391,1.414,0c0.462,0.462,0.678,1.043,0.625,1.681
		c-0.138,1.661-2.164,3.187-2.569,3.476c-0.176,0.126-0.379,0.187-0.58,0.187h5.454c0.304,0,0.591-0.138,0.781-0.375
		c1.895-2.371,2.553-5.186,1.804-7.724c-0.771-2.608-2.923-4.673-5.905-5.667c-0.359-0.119-0.756-0.026-1.023,0.241
		C33.023,8.704,32.93,9.1,33.05,9.459c0.326,0.981,0.051,1.243-0.768,2.021c-0.021,0.02-0.042,0.039-0.062,0.059
		c-0.433-2.839-1.92-4.327-3.082-5.489c-1.424-1.424-2.073-2.074-0.634-4.592c0.191-0.335,0.173-0.751-0.048-1.068
		c-0.221-0.317-0.607-0.478-0.985-0.414c-3.832,0.641-6.806,2.425-8.601,5.157c-1.306,1.988-1.927,4.431-1.833,7.086
		c-0.372-0.285-0.741-0.539-1.085-0.775c-1.599-1.097-2.234-1.597-1.892-2.967c0.094-0.374-0.036-0.768-0.333-1.014
		c-0.297-0.246-0.71-0.297-1.059-0.135c-2.59,1.207-4.539,3.887-5.088,6.995c-0.503,2.847,0.254,5.524,2.075,7.346
		C9.842,21.856,10.096,21.961,10.361,21.961z"/>
	<rect x="9.348" y="30.961" fill="#010101" width="18.87" height="4"/>
	<rect x="17.695" y="36.961" fill="#010101" width="18.87" height="4"/>
	<path fill="#010101" d="M47,23.884h-8.45c0.002,0.027,0.015,0.05,0.015,0.077v5H48v-4.077C48,24.333,47.553,23.884,47,23.884z"/>
	<path fill="#010101" d="M7.348,42.961H0v4.077c0,0.552,0.447,1,1,1h6.363c-0.002-0.027-0.016-0.05-0.016-0.077V42.961z"/>
	<path fill="#010101" d="M36.565,23.961c0-0.027,0.014-0.05,0.015-0.077H17.68c0.002,0.027,0.016,0.05,0.016,0.077v5h18.87V23.961z"
		/>
	<path fill="#010101" d="M28.218,42.961H9.348v5c0,0.027-0.014,0.05-0.016,0.077h18.901c-0.002-0.027-0.016-0.05-0.016-0.077V42.961
		z"/>
	<rect x="30.218" y="30.961" fill="#010101" width="17.782" height="4"/>
	<path fill="#010101" d="M15.695,23.961c0-0.027,0.013-0.05,0.016-0.077H1c-0.553,0-1,0.448-1,1v4.077h15.695V23.961z"/>
	<rect x="0" y="30.961" fill="#010101" width="7.348" height="4"/>
	<rect x="38.565" y="36.961" fill="#010101" width="9.435" height="4"/>
	<path fill="#010101" d="M30.218,47.961c0,0.027-0.014,0.05-0.015,0.077H47c0.553,0,1-0.448,1-1v-4.077H30.218V47.961z"/>
	<rect x="0" y="36.961" fill="#010101" width="15.695" height="4"/>
</g>
</svg>
