<?xml version="1.0" encoding="utf-8"?>
<!-- Generator: Adobe Illustrator 17.0.0, SVG Export Plug-In . SVG Version: 6.00 Build 0)  -->
<!DOCTYPE svg PUBLIC "-//W3C//DTD SVG 1.1//EN" "http://www.w3.org/Graphics/SVG/1.1/DTD/svg11.dtd">
<svg version="1.1" id="Layer_1" xmlns="http://www.w3.org/2000/svg" xmlns:xlink="http://www.w3.org/1999/xlink" x="0px" y="0px"
	 width="48px" height="48px" viewBox="0 0 48 48" enable-background="new 0 0 48 48" xml:space="preserve">
<path fill="#010101" d="M47.334,24.708l-6.363-6.363c-0.391-0.391-1.023-0.39-1.414-0.001c-1.321,1.322-3.079,2.05-4.949,2.05
	c-1.87,0-3.629-0.729-4.951-2.049c-2.728-2.731-2.728-7.172,0-9.901c0.391-0.391,0.391-1.023,0-1.414l-6.362-6.364
	c-0.188-0.187-0.441-0.293-0.707-0.293c-0.266,0-0.52,0.105-0.707,0.293L17.595,4.95c-0.21-0.266-0.432-0.516-0.665-0.749
	c-1.7-1.7-3.961-2.636-6.364-2.636S5.901,2.501,4.201,4.201C0.692,7.71,0.692,13.42,4.202,16.931
	c0.233,0.232,0.483,0.454,0.748,0.664l-4.284,4.285c-0.188,0.188-0.293,0.442-0.293,0.707c0,0.265,0.105,0.52,0.293,0.707
	l6.363,6.363c0.391,0.391,1.023,0.39,1.414,0c1.322-1.321,3.08-2.05,4.95-2.05s3.628,0.729,4.95,2.049
	c2.729,2.731,2.729,7.172,0,9.902c-0.391,0.39-0.391,1.024,0,1.414l6.362,6.363c0.195,0.195,0.451,0.293,0.707,0.293
	c0.256,0,0.512-0.098,0.707-0.293l4.286-4.285c0.21,0.267,0.433,0.518,0.666,0.75c1.699,1.7,3.959,2.636,6.363,2.636
	s4.664-0.935,6.363-2.636c1.7-1.7,2.637-3.96,2.637-6.364c0-2.404-0.936-4.664-2.636-6.363c-0.233-0.234-0.483-0.456-0.75-0.667
	l4.284-4.284C47.725,25.731,47.725,25.098,47.334,24.708z"/>
</svg>
