<?xml version="1.0" encoding="utf-8"?>
<!-- Generator: Adobe Illustrator 17.0.0, SVG Export Plug-In . SVG Version: 6.00 Build 0)  -->
<!DOCTYPE svg PUBLIC "-//W3C//DTD SVG 1.1//EN" "http://www.w3.org/Graphics/SVG/1.1/DTD/svg11.dtd">
<svg version="1.1" id="Layer_1" xmlns="http://www.w3.org/2000/svg" xmlns:xlink="http://www.w3.org/1999/xlink" x="0px" y="0px"
	 width="48px" height="48px" viewBox="0 0 48 48" enable-background="new 0 0 48 48" xml:space="preserve">
<g>
	<path fill="#010101" d="M44.334,18.751C44.758,18.227,45,17.636,45,17c0-2.28-3.01-4-7-4c-1.825,0-3.439,0.362-4.66,0.971
		l-2.954-1.284C30.779,12.179,31,11.61,31,11c0-2.28-3.01-4-7-4c-3.99,0-7,1.72-7,4c0,0.611,0.222,1.179,0.614,1.687L15.17,13.75
		C14.02,13.276,12.59,13,11,13c-3.99,0-7,1.72-7,4c0,0.505,0.155,0.981,0.429,1.419l-3.29,1.43L24,29.908l22.861-10.059
		L44.334,18.751z M11,19c-3.052,0-5-1.185-5-2c0-0.815,1.948-2,5-2c3.052,0,5,1.185,5,2C16,17.815,14.052,19,11,19z M24,24
		c-3.052,0-5-1.185-5-2c0-0.815,1.948-2,5-2c3.052,0,5,1.185,5,2C29,22.815,27.052,24,24,24z M24,13c-3.052,0-5-1.185-5-2
		c0-0.815,1.948-2,5-2c3.052,0,5,1.185,5,2C29,11.815,27.052,13,24,13z M38,19c-3.052,0-5-1.185-5-2c0-0.815,1.948-2,5-2
		c3.052,0,5,1.185,5,2C43,17.815,41.052,19,38,19z"/>
	<path fill="#010101" d="M25,31.652v16.003l22.398-9.738C47.764,37.758,48,37.398,48,37V21.532L25,31.652z"/>
	<path fill="#010101" d="M0,37c0,0.398,0.236,0.758,0.602,0.917L23,47.655V31.652L0,21.532V37z"/>
</g>
</svg>
