<?xml version="1.0" encoding="utf-8"?>
<!-- Generator: Adobe Illustrator 17.1.0, SVG Export Plug-In . SVG Version: 6.00 Build 0)  -->
<!DOCTYPE svg PUBLIC "-//W3C//DTD SVG 1.0//EN" "http://www.w3.org/TR/2001/REC-SVG-20010904/DTD/svg10.dtd">
<svg version="1.0" id="Layer_1" xmlns="http://www.w3.org/2000/svg" xmlns:xlink="http://www.w3.org/1999/xlink" x="0px" y="0px"
	 width="48px" height="48px" viewBox="0 0 48 48" enable-background="new 0 0 48 48" xml:space="preserve">
<g>
	<path d="M22,41c0-3.043,1.562-5.445,3.591-7H11h-1H7c-3.859,0-7,3.14-7,7s3.141,7,7,7h18.603C23.569,46.446,22,44.047,22,41z"/>
	<path d="M42,0H17c-3.859,0-7,3.14-7,7v25h21c0.553,0,1,0.448,1,1s-0.447,1-1,1c-2.923,0-7,2.663-7,7s4.077,7,7,7
		c3.859,0,7-3.14,7-7V8h9c0.553,0,1-0.448,1-1C48,2.878,45.532,0,42,0z M29,28H18c-0.553,0-1-0.448-1-1s0.447-1,1-1h11
		c0.553,0,1,0.448,1,1S29.553,28,29,28z M29,22H18c-0.553,0-1-0.448-1-1s0.447-1,1-1h11c0.553,0,1,0.448,1,1S29.553,22,29,22z
		 M29,16H18c-0.553,0-1-0.448-1-1s0.447-1,1-1h11c0.553,0,1,0.448,1,1S29.553,16,29,16z M29,10H18c-0.553,0-1-0.448-1-1s0.447-1,1-1
		h11c0.553,0,1,0.448,1,1S29.553,10,29,10z M38.176,6c0.6-3.169,2.598-3.828,3.458-3.963C41.756,2.026,41.874,2,42,2
		c2.115,0,3.616,1.57,3.937,4H38.176z"/>
</g>
</svg>
