<?xml version="1.0" encoding="utf-8"?>
<!-- Generator: Adobe Illustrator 17.0.0, SVG Export Plug-In . SVG Version: 6.00 Build 0)  -->
<!DOCTYPE svg PUBLIC "-//W3C//DTD SVG 1.1//EN" "http://www.w3.org/Graphics/SVG/1.1/DTD/svg11.dtd">
<svg version="1.1" id="Layer_1" xmlns="http://www.w3.org/2000/svg" xmlns:xlink="http://www.w3.org/1999/xlink" x="0px" y="0px"
	 width="48px" height="48px" viewBox="0 0 48 48" enable-background="new 0 0 48 48" xml:space="preserve">
<g>
	<path fill="#010101" d="M20,25c4.111,0,8.005-0.51,11.3-1.309l0.767-1.533c0.554-1.117,1.679-1.812,2.934-1.812
		c0.988,0,1.89,0.437,2.503,1.168c1.054-0.536,1.902-1.1,2.497-1.67l0-6.505C35.728,16.211,27.566,18,20.001,18
		C12.071,18,3.725,15.985,0,12.725V18C0,21.17,8.921,25,20,25z"/>
	<path fill="#010101" d="M20,34c2.197,0,4.332-0.147,6.347-0.404l3.808-7.616C26.921,26.639,23.4,27,20,27
		c-7.929,0-16.275-2.015-20-5.275V27C0,30.17,8.921,34,20,34z"/>
	<path fill="#010101" d="M20.001,16c9.157,0,17.25-2.523,20-5.157V9c0-5.047-8.785-9-20-9C8.786,0,0.001,3.953,0,9
		C0,12.17,8.922,16,20.001,16z"/>
	<path fill="#010101" d="M40,22.337c-0.465,0.313-0.975,0.613-1.527,0.9L40,26.292L40,22.337z"/>
	<path fill="#010101" d="M20,36c-7.929,0-16.275-2.015-20-5.275V35c0,5.047,8.785,9,20,9c0.392,0,0.773-0.016,1.158-0.025
		l4.127-8.253C23.528,35.903,21.748,36,20,36z"/>
	<path fill="#010101" d="M47.97,46.705L36.148,23.06c-0.018-0.037-0.047-0.065-0.068-0.1c-0.153-0.248-0.383-0.434-0.654-0.532
		l0.003-0.001c-0.136-0.048-0.278-0.082-0.429-0.082c-0.452,0-0.851,0.236-1.08,0.612l0.001,0c-0.02,0.033-0.048,0.06-0.065,0.094
		L22.105,46.553c-0.155,0.311-0.139,0.678,0.044,0.973C22.332,47.82,22.653,48,23,48h24c0.007,0,0.015,0,0.019,0
		c0.553,0,1-0.448,1-1C48.019,46.896,47.999,46.798,47.97,46.705z M34,32.818c0-0.552,0.447-1,1-1c0.553,0,1,0.448,1,1v6.545
		c0,0.552-0.447,1-1,1c-0.553,0-1-0.448-1-1V32.818z M35,43.728c-0.602,0-1.091-0.488-1.091-1.091c0-0.603,0.489-1.091,1.091-1.091
		c0.602,0,1.091,0.488,1.091,1.091C36.091,43.239,35.602,43.728,35,43.728z"/>
</g>
</svg>
