<?xml version="1.0" encoding="utf-8"?>
<!-- Generator: Adobe Illustrator 17.0.0, SVG Export Plug-In . SVG Version: 6.00 Build 0)  -->
<!DOCTYPE svg PUBLIC "-//W3C//DTD SVG 1.1//EN" "http://www.w3.org/Graphics/SVG/1.1/DTD/svg11.dtd">
<svg version="1.1" id="Layer_1" xmlns="http://www.w3.org/2000/svg" xmlns:xlink="http://www.w3.org/1999/xlink" x="0px" y="0px"
	 width="48px" height="48px" viewBox="0 0 48 48" enable-background="new 0 0 48 48" xml:space="preserve">
<g>
	<path fill="#010101" d="M20,34c1.507,0,2.984-0.07,4.414-0.196c0.834-3.282,2.914-6.064,5.712-7.817C26.9,26.641,23.39,27,20,27
		c-7.929,0-16.275-2.015-20-5.275V27C0,30.17,8.921,34,20,34z"/>
	<path fill="#010101" d="M20,25c9.158,0,17.252-2.524,20-5.157l0-6.505C35.728,16.211,27.566,18,20.001,18
		C12.071,18,3.725,15.985,0,12.725V18C0,21.17,8.921,25,20,25z"/>
	<path fill="#010101" d="M20.001,16c9.157,0,17.25-2.523,20-5.157V9c0-5.047-8.785-9-20-9C8.786,0,0.001,3.953,0,9
		C0,12.17,8.922,16,20.001,16z"/>
	<path fill="#010101" d="M40,24.363v-2.026c-0.905,0.609-1.984,1.168-3.196,1.672C36.87,24.009,36.934,24,37,24
		C38.034,24,39.035,24.134,40,24.363z"/>
	<path fill="#010101" d="M24.059,35.835C22.704,35.943,21.342,36,20,36c-7.929,0-16.275-2.015-20-5.275V35c0,5.047,8.785,9,20,9
		c2.039,0,3.993-0.134,5.833-0.378C24.677,41.68,24,39.42,24,37C24,36.606,24.025,36.219,24.059,35.835z"/>
	<path fill="#010101" d="M37,26c-6.065,0-11,4.935-11,11c0,6.065,4.935,11,11,11c6.065,0,11-4.935,11-11C48,30.935,43.065,26,37,26z
		 M42,38h-4v4c0,0.552-0.447,1-1,1c-0.553,0-1-0.448-1-1v-4h-4c-0.553,0-1-0.448-1-1c0-0.552,0.447-1,1-1h4v-4c0-0.552,0.447-1,1-1
		c0.553,0,1,0.448,1,1v3v1h4c0.553,0,1,0.448,1,1C43,37.552,42.553,38,42,38z"/>
</g>
</svg>
