<?xml version="1.0" encoding="utf-8"?>
<!-- Generator: Adobe Illustrator 17.0.0, SVG Export Plug-In . SVG Version: 6.00 Build 0)  -->
<!DOCTYPE svg PUBLIC "-//W3C//DTD SVG 1.1//EN" "http://www.w3.org/Graphics/SVG/1.1/DTD/svg11.dtd">
<svg version="1.1" id="Layer_1" xmlns="http://www.w3.org/2000/svg" xmlns:xlink="http://www.w3.org/1999/xlink" x="0px" y="0px"
	 width="48px" height="48px" viewBox="0 0 48 48" enable-background="new 0 0 48 48" xml:space="preserve">
<g>
	<path fill="#010101" d="M20.001,16c9.157,0,17.25-2.523,20-5.157V9c0-5.047-8.785-9-20-9C8.786,0,0.001,3.953,0,9
		C0,12.17,8.922,16,20.001,16z"/>
	<path fill="#010101" d="M20,34c0.73,0,1.453-0.017,2.167-0.047c0.408-2.767,1.624-5.269,3.407-7.264C23.724,26.892,21.844,27,20,27
		c-7.93,0-16.275-2.015-20-5.275V27C0,30.17,8.921,34,20,34z"/>
	<path fill="#010101" d="M40,22.59v-0.252c-0.09,0.061-0.182,0.122-0.276,0.181C39.816,22.544,39.91,22.562,40,22.59z"/>
	<path fill="#010101" d="M20,25c2.934,0,5.757-0.261,8.332-0.699C30.537,22.851,33.169,22,36,22c0.142,0,0.279,0.017,0.42,0.021
		c1.564-0.68,2.793-1.424,3.58-2.179l0-6.505C35.728,16.211,27.566,18,20.001,18C12.071,18,3.725,15.985,0,12.725V18
		C0,21.17,8.921,25,20,25z"/>
	<path fill="#010101" d="M22.002,35.959C21.332,35.986,20.664,36,20,36c-7.93,0-16.275-2.015-20-5.275V35c0,5.047,8.785,9,20,9
		c1.508,0,2.968-0.077,4.373-0.213C22.876,41.559,22,38.88,22,36C22,35.986,22.002,35.973,22.002,35.959z"/>
	<path fill="#010101" d="M36,24c-6.617,0-12,5.383-12,12s5.383,12,12,12c6.617,0,12-5.383,12-12S42.617,24,36,24z M39,38h-5v-8
		c0-0.552,0.447-1,1-1c0.553,0,1,0.448,1,1v6h3c0.553,0,1,0.448,1,1S39.553,38,39,38z"/>
</g>
</svg>
