<?xml version="1.0" encoding="utf-8"?>
<!-- Generator: Adobe Illustrator 17.0.0, SVG Export Plug-In . SVG Version: 6.00 Build 0)  -->
<!DOCTYPE svg PUBLIC "-//W3C//DTD SVG 1.1//EN" "http://www.w3.org/Graphics/SVG/1.1/DTD/svg11.dtd">
<svg version="1.1" id="Layer_1" xmlns="http://www.w3.org/2000/svg" xmlns:xlink="http://www.w3.org/1999/xlink" x="0px" y="0px"
	 width="48px" height="48px" viewBox="0 0 48 48" enable-background="new 0 0 48 48" xml:space="preserve">
<g>
	<path fill="#010101" d="M20,34.061c1.375,0,2.726-0.058,4.039-0.164c0.218-3.004,1.684-5.665,3.891-7.458
		c-2.59,0.404-5.296,0.622-7.93,0.622c-7.929,0-16.275-2.015-20-5.275v5.275C0,30.231,8.921,34.061,20,34.061z"/>
	<path fill="#010101" d="M20.001,16.061c9.157,0,17.25-2.523,20-5.157V9.061c0-5.047-8.785-9-20-9c-11.215,0-20,3.953-20.001,9
		C0,12.231,8.922,16.061,20.001,16.061z"/>
	<path fill="#010101" d="M20,25.061c9.158,0,17.252-2.524,20-5.157l0-6.505c-4.272,2.873-12.434,4.662-20,4.662
		c-7.93,0-16.276-2.015-20.001-5.275v5.275C0,21.231,8.921,25.061,20,25.061z"/>
	<path fill="#010101" d="M24.076,35.894c-1.361,0.109-2.728,0.167-4.076,0.167c-7.929,0-16.275-2.015-20-5.275v4.275
		c0,5.047,8.785,9,20,9c3.018,0,5.849-0.294,8.391-0.811C26.048,41.546,24.425,38.915,24.076,35.894z"/>
	<path fill="#010101" d="M40,22.398c-0.999,0.672-2.207,1.285-3.575,1.83c1.286,0.223,2.491,0.677,3.575,1.32L40,22.398z"/>
	<path fill="#010101" d="M47.707,46.354l-4.924-4.924l-1.425-1.425c1.163-1.468,1.863-3.319,1.863-5.333
		c0-4.748-3.862-8.611-8.609-8.611c-4.748,0-8.611,3.863-8.611,8.611c0,4.748,3.863,8.61,8.611,8.61c2.014,0,3.865-0.7,5.333-1.864
		l1.425,1.425l4.924,4.924c0.195,0.195,0.451,0.293,0.707,0.293c0.256,0,0.512-0.098,0.707-0.293
		C48.098,47.377,48.098,46.744,47.707,46.354z M34.611,41.282c-3.646,0-6.611-2.965-6.611-6.61c0-3.645,2.966-6.611,6.611-6.611
		c3.645,0,6.609,2.966,6.609,6.611C41.221,38.317,38.256,41.282,34.611,41.282z"/>
</g>
</svg>
