<?xml version="1.0" encoding="utf-8"?>
<!-- Generator: Adobe Illustrator 17.0.0, SVG Export Plug-In . SVG Version: 6.00 Build 0)  -->
<!DOCTYPE svg PUBLIC "-//W3C//DTD SVG 1.1//EN" "http://www.w3.org/Graphics/SVG/1.1/DTD/svg11.dtd">
<svg version="1.1" id="Layer_1" xmlns="http://www.w3.org/2000/svg" xmlns:xlink="http://www.w3.org/1999/xlink" x="0px" y="0px"
	 width="48px" height="48px" viewBox="0 0 48 48" enable-background="new 0 0 48 48" xml:space="preserve">
<g>
	<path fill="#010101" d="M30.765,25.85C27.366,26.59,23.615,27,20,27c-7.929,0-16.275-2.015-20-5.275V27c0,3.17,8.921,7,20,7
		c1.997,0,3.942-0.122,5.793-0.337v-1.422c0-1.179,0.931-1.862,1.862-1.862h1.416C29.071,28.708,29.741,27.156,30.765,25.85z"/>
	<path fill="#010101" d="M20,25c9.158,0,17.252-2.524,20-5.157l0-6.505C35.728,16.211,27.566,18,20.001,18
		C12.071,18,3.725,15.985,0,12.725V18C0,21.17,8.921,25,20,25z"/>
	<path fill="#010101" d="M20.001,16c9.157,0,17.25-2.523,20-5.157V9c0-5.047-8.785-9-20-9C8.786,0,0.001,3.953,0,9
		C0,12.17,8.922,16,20.001,16z"/>
	<polygon fill="#010101" points="40,22.337 39.989,22.345 40,22.349 	"/>
	<path fill="#010101" d="M0,30.725V35c0,5.047,8.785,9,20,9c2.024,0,3.965-0.133,5.793-0.374v-7.962C23.872,35.883,21.917,36,20,36
		C12.071,36,3.725,33.985,0,30.725z"/>
	<path fill="#010101" d="M46.896,32h-1.482v-0.922c0-3.794-3.724-7.517-7.518-7.517c-3.793,0-7.517,3.724-7.517,7.517V32h-1.483
		c-0.553,0-1,0.448-1,1v14c0,0.552,0.447,1,1,1h18c0.553,0,1-0.448,1-1V33C47.896,32.448,47.449,32,46.896,32z M39.074,39.52
		c-0.055,0.057-0.117,0.104-0.178,0.151v3.557c0,0.552-0.447,1-1,1s-1-0.448-1-1v-3.562c-0.374-0.294-0.624-0.741-0.634-1.248
		c-0.009-0.437,0.153-0.851,0.457-1.165c0.303-0.314,0.709-0.492,1.146-0.5h0.001c0.914,0,1.646,0.719,1.664,1.603
		C39.539,38.791,39.377,39.205,39.074,39.52z M43.414,32.241H32.38v-1.164c0-2.682,2.836-5.517,5.517-5.517
		c2.682,0,5.518,2.836,5.518,5.517V32.241z"/>
</g>
</svg>
