<?xml version="1.0" encoding="utf-8"?>
<!-- Generator: Adobe Illustrator 17.0.0, SVG Export Plug-In . SVG Version: 6.00 Build 0)  -->
<!DOCTYPE svg PUBLIC "-//W3C//DTD SVG 1.1//EN" "http://www.w3.org/Graphics/SVG/1.1/DTD/svg11.dtd">
<svg version="1.1" id="Layer_1" xmlns="http://www.w3.org/2000/svg" xmlns:xlink="http://www.w3.org/1999/xlink" x="0px" y="0px"
	 width="48px" height="48px" viewBox="0 0 48 48" enable-background="new 0 0 48 48" xml:space="preserve">
<g>
	<path fill="#010101" d="M6,10.175v4.886c0,1.967,7.729,5,18,5c10.27,0,18-3.033,18-5v-4.886c-3.739,2.636-11.956,3.886-18,3.886
		C17.956,14.061,9.739,12.811,6,10.175z"/>
	<path fill="#010101" d="M24,0.061c-8.726,0-18,2.453-18,7c0,1.967,7.729,5,18,5c10.27,0,18-3.033,18-5
		C42,2.514,32.726,0.061,24,0.061z"/>
	<path fill="#010101" d="M6,18.175v4.886c0,1.967,7.729,5,18,5c10.27,0,18-3.033,18-5v-4.886c-3.739,2.636-11.956,3.886-18,3.886
		C17.956,22.061,9.739,20.811,6,18.175z"/>
	<path fill="#010101" d="M6,26.175v4.886c0,4.373,8.58,6.803,17,6.982v8.018H11c-0.553,0-1,0.448-1,1s0.447,1,1,1h26
		c0.553,0,1-0.448,1-1s-0.447-1-1-1H25v-8.018c8.42-0.179,17-2.609,17-6.982v-4.886c-3.739,2.636-11.956,3.886-18,3.886
		C17.956,30.061,9.739,28.811,6,26.175z"/>
	<circle fill="#010101" cx="3" cy="47.061" r="1"/>
	<circle fill="#010101" cx="7" cy="47.061" r="1"/>
	<circle fill="#010101" cx="41" cy="47.061" r="1"/>
	<circle fill="#010101" cx="45" cy="47.061" r="1"/>
</g>
</svg>
