<?xml version="1.0" encoding="utf-8"?>
<!-- Generator: Adobe Illustrator 17.0.0, SVG Export Plug-In . SVG Version: 6.00 Build 0)  -->
<!DOCTYPE svg PUBLIC "-//W3C//DTD SVG 1.1//EN" "http://www.w3.org/Graphics/SVG/1.1/DTD/svg11.dtd">
<svg version="1.1" id="Layer_1" xmlns="http://www.w3.org/2000/svg" xmlns:xlink="http://www.w3.org/1999/xlink" x="0px" y="0px"
	 width="48px" height="48px" viewBox="0 0 48 48" enable-background="new 0 0 48 48" xml:space="preserve">
<g>
	<path fill="#010101" d="M24.001,0C12.786,0,4.001,3.953,4,9c0,3.17,8.922,7,20.001,7c9.157,0,17.25-2.523,20-5.157V9
		C44.001,3.953,35.216,0,24.001,0z"/>
	<path fill="#010101" d="M4,12.725V18c0,3.17,8.921,7,20,7c9.158,0,17.252-2.524,20-5.157l0-6.505
		C39.728,16.211,31.566,18,24.001,18C16.071,18,7.725,15.985,4,12.725z"/>
	<path fill="#010101" d="M4,21.725V27c0,3.17,8.921,7,20,7c9.158,0,17.251-2.523,20-5.157l0-6.506C39.728,25.211,31.566,27,24,27
		C16.071,27,7.725,24.985,4,21.725z"/>
	<path fill="#010101" d="M4,30.725V35c0,5.047,8.785,9,20,9c11.215,0,20-3.953,20-9l0-3.662C39.728,34.211,31.566,36,24,36
		C16.071,36,7.725,33.985,4,30.725z"/>
</g>
</svg>
