<?xml version="1.0" encoding="utf-8"?>
<!-- Generator: Adobe Illustrator 17.0.0, SVG Export Plug-In . SVG Version: 6.00 Build 0)  -->
<!DOCTYPE svg PUBLIC "-//W3C//DTD SVG 1.1//EN" "http://www.w3.org/Graphics/SVG/1.1/DTD/svg11.dtd">
<svg version="1.1" id="Layer_1" xmlns="http://www.w3.org/2000/svg" xmlns:xlink="http://www.w3.org/1999/xlink" x="0px" y="0px"
	 width="48px" height="48px" viewBox="0 0 48 48" enable-background="new 0 0 48 48" xml:space="preserve">
<g>
	<path fill="#010101" d="M20,25c9.158,0,17.252-2.524,20-5.157l0-6.505C35.728,16.211,27.566,18,20.001,18
		C12.071,18,3.725,15.985,0,12.725V18C0,21.17,8.921,25,20,25z"/>
	<path fill="#010101" d="M20.001,16c9.157,0,17.25-2.523,20-5.157V9c0-5.047-8.785-9-20-9C8.786,0,0.001,3.953,0,9
		C0,12.17,8.922,16,20.001,16z"/>
	<path fill="#010101" d="M20,34c3.469,0,6.784-0.363,9.715-0.956L40,22.759v-0.421C35.728,25.211,27.566,27,20,27
		c-7.929,0-16.275-2.015-20-5.275V27C0,30.17,8.921,34,20,34z"/>
	<path fill="#010101" d="M24.513,38.246l2.771-2.771C24.892,35.817,22.415,36,20,36c-7.929,0-16.275-2.015-20-5.275V35
		c0,5.047,8.785,9,20,9c0.942,0,1.859-0.038,2.763-0.092l1.495-5.23C24.305,38.515,24.393,38.366,24.513,38.246z"/>
	
		<rect x="30.466" y="30.219" transform="matrix(-0.7071 -0.7071 0.7071 -0.7071 33.588 87.9124)" fill="#010101" width="9.071" height="13.561"/>
	<path fill="#010101" d="M24.038,46.73c-0.098,0.349,0,0.722,0.255,0.978c0.19,0.19,0.445,0.293,0.707,0.293
		c0.092,0,0.185-0.013,0.274-0.039l6.435-1.838l-5.832-5.832L24.038,46.73z"/>
	<path fill="#010101" d="M47.71,29.292l-5-5c-0.391-0.391-1.024-0.391-1.414,0L40,25.587v0l-1.997,1.997l6.414,6.415l3.293-3.292
		c0.187-0.188,0.293-0.442,0.293-0.707C48.003,29.734,47.897,29.479,47.71,29.292z"/>
</g>
</svg>
