<?xml version="1.0" encoding="utf-8"?>
<!-- Generator: Adobe Illustrator 17.0.0, SVG Export Plug-In . SVG Version: 6.00 Build 0)  -->
<!DOCTYPE svg PUBLIC "-//W3C//DTD SVG 1.1//EN" "http://www.w3.org/Graphics/SVG/1.1/DTD/svg11.dtd">
<svg version="1.1" id="Layer_1" xmlns="http://www.w3.org/2000/svg" xmlns:xlink="http://www.w3.org/1999/xlink" x="0px" y="0px"
	 width="48px" height="48px" viewBox="0 0 48 48" enable-background="new 0 0 48 48" xml:space="preserve">
<g>
	<path fill="#010101" d="M20,25c1.361,0,2.697-0.057,3.997-0.161C26.74,21.872,30.65,20,35,20c1.417,0,2.784,0.211,4.084,0.58
		c0.349-0.243,0.658-0.489,0.916-0.737l0-6.505C35.729,16.211,27.566,18,20.001,18C12.071,18,3.725,15.985,0,12.725V18
		C0,21.17,8.921,25,20,25z"/>
	<path fill="#010101" d="M20,34c0.017,0,0.034,0,0.051,0c0.172-2.587,0.996-4.993,2.319-7.059C21.577,26.979,20.785,27,20,27
		c-7.929,0-16.275-2.015-20-5.275V27C0,30.17,8.921,34,20,34z"/>
	<path fill="#010101" d="M20.001,16c9.157,0,17.25-2.523,20-5.157V9c0-5.047-8.785-9-20-9C8.786,0,0.001,3.953,0,9
		C0,12.17,8.922,16,20.001,16z"/>
	<path fill="#010101" d="M20,36c-7.929,0-16.275-2.015-20-5.275V35c0,5.047,8.785,9,20,9c1.008,0,1.987-0.042,2.95-0.104
		c-1.658-2.24-2.704-4.95-2.9-7.896C20.034,36,20.017,36,20,36z"/>
	<path fill="#010101" d="M35,22c-7.168,0-13,5.832-13,13c0,7.169,5.832,13,13,13s13-5.831,13-13C48,27.832,42.168,22,35,22z
		 M42.284,32.401l-8.342,9.142l-6.195-6.195c-0.391-0.391-0.391-1.023,0-1.414c0.391-0.391,1.023-0.391,1.414,0l4.715,4.714
		l6.932-7.596c0.373-0.409,1.006-0.436,1.412-0.065C42.628,31.361,42.657,31.994,42.284,32.401z"/>
</g>
</svg>
