<?xml version="1.0" encoding="utf-8"?>
<!-- Generator: Adobe Illustrator 17.0.0, SVG Export Plug-In . SVG Version: 6.00 Build 0)  -->
<!DOCTYPE svg PUBLIC "-//W3C//DTD SVG 1.1//EN" "http://www.w3.org/Graphics/SVG/1.1/DTD/svg11.dtd">
<svg version="1.1" id="Layer_1" xmlns="http://www.w3.org/2000/svg" xmlns:xlink="http://www.w3.org/1999/xlink" x="0px" y="0px"
	 width="48px" height="48px" viewBox="0 0 48 48" enable-background="new 0 0 48 48" xml:space="preserve">
<path fill="#231F20" d="M45.471,11.655c-1.118-0.637-2.388-0.801-3.593-0.513c-0.269-1.187-1.017-2.263-2.214-3.117
	c-1.48-1.057-3.421-1.607-5.39-1.658C32.108,3.052,28.239,1,24,1c-4.226,0-8.085,2.04-10.253,5.337
	c-1.539,0.036-3.069,0.391-4.401,1.076c-1.37,0.704-2.367,1.678-2.9,2.814C5.153,9.825,3.76,9.96,2.542,10.648
	C0.95,11.546,0,13.173,0,15c0,1.872,0.984,3.516,2.635,4.401c1.294,0.692,2.796,0.78,4.128,0.277
	c0.748,1.186,1.993,2.102,3.66,2.681c1.26,0.438,2.703,0.651,4.109,0.651c1.567,0,3.082-0.269,4.255-0.782
	c1.087,1.22,1.2,2.056,1.211,4.785c-0.809,0.001-1.621,0.189-2.364,0.588C15.984,28.484,15,30.129,15,32
	c0,1.827,0.95,3.454,2.542,4.353c0.754,0.426,1.577,0.639,2.4,0.646c-0.449,4.046-3.735,4.765-8.573,5.344
	C7.915,42.757,4,43.226,4,47c0,0.552,0.447,1,1,1h19h19c0.553,0,1-0.448,1-1c0-3.774-3.915-4.243-7.369-4.657
	c-4.838-0.579-8.124-1.297-8.573-5.344c0.823-0.007,1.645-0.221,2.4-0.646C32.05,35.454,33,33.827,33,32
	c0-1.871-0.984-3.515-2.634-4.398c-0.743-0.399-1.555-0.587-2.364-0.588c0.011-2.732,0.124-3.567,1.214-4.789
	c1.175,0.503,2.74,0.777,4.344,0.777c1.003,0,2.019-0.105,2.958-0.326c1.769-0.415,3.185-1.191,4.155-2.266
	c1.369,0.736,2.999,0.793,4.446,0.116C46.896,19.696,48,17.962,48,16C48,14.181,47.055,12.557,45.471,11.655z M31,32
	c0,1.096-0.57,2.072-1.525,2.611c-0.947,0.534-2.073,0.515-3.014-0.052c-0.476-0.285-1.089-0.133-1.373,0.34
	c-0.285,0.473-0.133,1.088,0.34,1.373c0.197,0.118,0.399,0.221,0.604,0.311c0.332,6.525,6.102,7.235,10.361,7.746
	c3.045,0.365,4.754,0.685,5.357,1.671H24H6.25c0.602-0.986,2.311-1.306,5.357-1.671c4.259-0.511,10.029-1.221,10.361-7.746
	c0.205-0.09,0.407-0.193,0.604-0.311c0.473-0.285,0.625-0.9,0.34-1.373c-0.285-0.473-0.899-0.625-1.373-0.34
	c-0.941,0.568-2.068,0.587-3.014,0.052C17.57,34.072,17,33.096,17,32c0-1.121,0.59-2.106,1.579-2.636
	c0.996-0.534,2.147-0.481,3.079,0.139c0.457,0.305,1.079,0.18,1.387-0.278c0.306-0.46,0.181-1.081-0.279-1.387
	c-0.245-0.163-0.503-0.293-0.766-0.409c-0.003-2.109-0.044-3.447-0.51-4.627c0.813,0.141,1.658,0.225,2.51,0.225
	c0.851,0,1.696-0.085,2.51-0.226c-0.466,1.18-0.507,2.518-0.51,4.627c-0.264,0.115-0.523,0.246-0.767,0.409
	c-0.46,0.306-0.585,0.927-0.279,1.386c0.307,0.46,0.929,0.584,1.387,0.279c0.934-0.622,2.085-0.672,3.081-0.139
	C30.41,29.894,31,30.879,31,32z M44.273,18.713c-1.078,0.503-2.267,0.343-3.187-0.426c-0.222-0.187-0.521-0.268-0.802-0.22
	c-0.287,0.046-0.539,0.215-0.691,0.463c-0.813,1.322-2.371,1.926-3.534,2.199c-2.512,0.59-5.346,0.16-6.53-0.578
	c-0.026-0.016-0.055-0.017-0.082-0.031c-0.035-0.018-0.067-0.04-0.103-0.054c-0.037-0.014-0.075-0.018-0.113-0.028
	c-0.053-0.013-0.103-0.021-0.156-0.025c-0.036-0.003-0.07-0.01-0.107-0.008c-0.037,0.001-0.072,0.011-0.109,0.016
	c-0.055,0.008-0.107,0.019-0.161,0.036c-0.038,0.012-0.074,0.022-0.111,0.039c-0.012,0.005-0.024,0.004-0.036,0.01
	c-2.426,1.22-6.678,1.22-9.102,0c-0.013-0.006-0.026-0.005-0.039-0.011c-0.036-0.017-0.073-0.026-0.111-0.038
	c-0.052-0.016-0.102-0.028-0.155-0.036c-0.038-0.006-0.075-0.016-0.114-0.017c-0.037-0.001-0.071,0.006-0.108,0.009
	c-0.052,0.004-0.101,0.012-0.152,0.024c-0.039,0.009-0.077,0.014-0.115,0.028c-0.037,0.013-0.069,0.036-0.104,0.054
	c-0.026,0.013-0.056,0.014-0.081,0.03c-1.435,0.896-4.749,1.237-7.392,0.318c-1.062-0.369-2.431-1.098-2.926-2.477
	c-0.105-0.289-0.335-0.515-0.627-0.611c-0.292-0.098-0.612-0.053-0.868,0.117c-0.932,0.621-2.085,0.672-3.079,0.139
	C2.59,17.107,2,16.122,2,15c0-1.096,0.57-2.072,1.525-2.611c0.947-0.535,2.073-0.516,3.014,0.052c0.001,0,0.002,0,0.003,0.001
	c0.649,0.394,1.121,1.013,1.328,1.745c0.124,0.44,0.525,0.728,0.961,0.728c0.091,0,0.183-0.013,0.274-0.039
	c0.531-0.15,0.839-0.703,0.689-1.234c-0.275-0.968-0.826-1.819-1.584-2.457c0.328-0.779,1.037-1.472,2.051-1.993
	c2.169-1.114,5.109-1.146,7.313-0.082c0.498,0.24,1.096,0.031,1.335-0.467c0.24-0.497,0.031-1.095-0.466-1.335
	c-0.742-0.357-1.54-0.609-2.362-0.771C17.955,4.331,20.852,3,24,3c3.152,0,6.053,1.334,7.927,3.545
	c-0.831,0.159-1.638,0.408-2.38,0.768c-0.497,0.241-0.705,0.839-0.465,1.336c0.24,0.496,0.836,0.706,1.336,0.465
	c2.837-1.373,6.282-0.748,8.084,0.539c0.678,0.484,1.443,1.271,1.493,2.372c-0.584,0.441-1.066,1.01-1.411,1.667
	c-0.257,0.489-0.067,1.093,0.421,1.35c0.149,0.077,0.308,0.114,0.464,0.114c0.36,0,0.708-0.195,0.887-0.536
	c0.26-0.496,0.649-0.907,1.125-1.189c0,0,0-0.001,0.001-0.001c0.943-0.558,2.062-0.571,2.999-0.037C45.433,13.935,46,14.909,46,16
	C46,17.194,45.354,18.209,44.273,18.713z"/>
</svg>
