<?xml version="1.0" encoding="utf-8"?>
<!-- Generator: Adobe Illustrator 17.0.0, SVG Export Plug-In . SVG Version: 6.00 Build 0)  -->
<!DOCTYPE svg PUBLIC "-//W3C//DTD SVG 1.1//EN" "http://www.w3.org/Graphics/SVG/1.1/DTD/svg11.dtd">
<svg version="1.1" id="Layer_1" xmlns="http://www.w3.org/2000/svg" xmlns:xlink="http://www.w3.org/1999/xlink" x="0px" y="0px"
	 width="48px" height="48px" viewBox="0 0 48 48" enable-background="new 0 0 48 48" xml:space="preserve">
<path fill="#231F20" d="M43.607,8.515C41.341,6.248,38.327,5,35.122,5c-3.206,0-6.22,1.248-8.487,3.516l-24,23.999
	c-3.508,3.509-3.508,9.219,0,12.729c1.755,1.753,4.059,2.63,6.364,2.63c2.306,0,4.612-0.878,6.367-2.633l22.962-23.034
	c0.944-0.944,1.464-2.2,1.465-3.535c0-1.336-0.521-2.592-1.465-3.536c-0.944-0.944-2.199-1.464-3.535-1.464s-2.592,0.52-3.535,1.464
	l-17.001,17c-0.391,0.391-0.391,1.023,0,1.414s1.023,0.391,1.414,0l17.002-17c1.132-1.133,3.108-1.133,4.241,0
	c0.567,0.567,0.879,1.319,0.879,2.121s-0.313,1.555-0.88,2.123L13.951,43.829c-2.729,2.729-7.171,2.729-9.901,0
	c-2.729-2.73-2.729-7.171,0-9.9l24-24C29.939,8.04,32.451,7,35.122,7c2.67,0,5.182,1.04,7.071,2.929
	c3.899,3.899,3.899,10.243,0,14.142l-17,17c-0.391,0.391-0.391,1.023,0,1.414s1.023,0.391,1.414,0l17-17
	C48.286,20.806,48.286,13.194,43.607,8.515z"/>
</svg>
