<?xml version="1.0" encoding="utf-8"?>
<!-- Generator: Adobe Illustrator 17.0.0, SVG Export Plug-In . SVG Version: 6.00 Build 0)  -->
<!DOCTYPE svg PUBLIC "-//W3C//DTD SVG 1.1//EN" "http://www.w3.org/Graphics/SVG/1.1/DTD/svg11.dtd">
<svg version="1.1" id="Layer_1" xmlns="http://www.w3.org/2000/svg" xmlns:xlink="http://www.w3.org/1999/xlink" x="0px" y="0px"
	 width="48px" height="48px" viewBox="0 0 48 48" enable-background="new 0 0 48 48" xml:space="preserve">
<path fill="#231F20" d="M24,0c-6.953,0-12,5.467-12,13v25c0,5.794,3.785,10,9,10s9-4.206,9-10V19c0-4.187-2.411-7-6-7s-6,2.813-6,7
	v15c0,0.552,0.448,1,1,1s1-0.448,1-1V19c0-2.417,1.051-5,4-5s4,2.583,4,5v19c0,4.71-2.878,8-7,8s-7-3.29-7-8V13
	c0-6.374,4.206-11,10-11s10,4.626,10,11v18c0,0.552,0.448,1,1,1s1-0.448,1-1V13C36,5.467,30.953,0,24,0z"/>
</svg>
