<?xml version="1.0" encoding="utf-8"?>
<!-- Generator: Adobe Illustrator 17.0.0, SVG Export Plug-In . SVG Version: 6.00 Build 0)  -->
<!DOCTYPE svg PUBLIC "-//W3C//DTD SVG 1.1//EN" "http://www.w3.org/Graphics/SVG/1.1/DTD/svg11.dtd">
<svg version="1.1" id="Layer_1" xmlns="http://www.w3.org/2000/svg" xmlns:xlink="http://www.w3.org/1999/xlink" x="0px" y="0px"
	 width="48px" height="48px" viewBox="0 0 48 48" enable-background="new 0 0 48 48" xml:space="preserve">
<g>
	<path fill="#231F20" d="M23,19.304c0.552,0,1-0.448,1-1V3c0-0.552-0.448-1-1-1s-1,0.448-1,1v15.304
		C22,18.856,22.448,19.304,23,19.304z"/>
	<path fill="#231F20" d="M16.304,24H1c-0.552,0-1,0.448-1,1s0.448,1,1,1h15.304c0.552,0,1-0.448,1-1S16.856,24,16.304,24z"/>
	<path fill="#231F20" d="M23,30.696c-0.552,0-1,0.448-1,1V47c0,0.552,0.448,1,1,1s1-0.448,1-1V31.696
		C24,31.144,23.552,30.696,23,30.696z"/>
	<path fill="#231F20" d="M45,24H29.696c-0.552,0-1,0.448-1,1s0.448,1,1,1H45c0.552,0,1-0.448,1-1S45.552,24,45,24z"/>
	<circle fill="#231F20" cx="23" cy="25" r="1.956"/>
</g>
</svg>
