<?xml version="1.0" encoding="utf-8"?>
<!-- Generator: Adobe Illustrator 17.0.0, SVG Export Plug-In . SVG Version: 6.00 Build 0)  -->
<!DOCTYPE svg PUBLIC "-//W3C//DTD SVG 1.1//EN" "http://www.w3.org/Graphics/SVG/1.1/DTD/svg11.dtd">
<svg version="1.1" id="Layer_1" xmlns="http://www.w3.org/2000/svg" xmlns:xlink="http://www.w3.org/1999/xlink" x="0px" y="0px"
	 width="48px" height="48px" viewBox="0 0 48 48" enable-background="new 0 0 48 48" xml:space="preserve">
<path fill="#231F20" d="M46.104,9.968c-1.14-1.14-2.97-1.876-4.662-1.876c-1.274,0-2.351,0.404-3.116,1.169L0.204,47.382
	l18.252-2.434l28.355-27.202C48.802,15.755,48.066,11.93,46.104,9.968z M15.414,35l2.086-2.086l5.196,5.196l-2.129,2.042L15.414,35z
	 M18.914,31.5l2.085-2.085l5.268,5.268l-2.128,2.042L18.914,31.5z M17.544,43.052L5.796,44.618L14,36.414l1.565,1.565l-2.294,2.294
	c-0.391,0.391-0.391,1.023,0,1.414c0.195,0.195,0.451,0.293,0.707,0.293s0.512-0.098,0.707-0.293l2.294-2.294l2.144,2.144
	L17.544,43.052z M45.412,16.317L27.711,33.298l-5.298-5.298l17.326-17.326c0.482-0.482,1.192-0.583,1.702-0.583
	c1.171,0,2.476,0.518,3.249,1.29C45.925,12.617,46.49,15.239,45.412,16.317z"/>
</svg>
