<?xml version="1.0" encoding="utf-8"?>
<!-- Generator: Adobe Illustrator 17.0.0, SVG Export Plug-In . SVG Version: 6.00 Build 0)  -->
<!DOCTYPE svg PUBLIC "-//W3C//DTD SVG 1.1//EN" "http://www.w3.org/Graphics/SVG/1.1/DTD/svg11.dtd">
<svg version="1.1" id="Layer_1" xmlns="http://www.w3.org/2000/svg" xmlns:xlink="http://www.w3.org/1999/xlink" x="0px" y="0px"
	 width="48px" height="48px" viewBox="0 0 48 48" enable-background="new 0 0 48 48" xml:space="preserve">
<path fill="#231F20" d="M41.004,40.918C45.325,36.576,48,30.595,48,24s-2.675-12.576-6.996-16.918
	C40.99,7.066,40.985,7.045,40.97,7.03s-0.036-0.02-0.052-0.034C36.576,2.675,30.595,0,24,0C17.405,0,11.424,2.675,7.082,6.996
	C7.066,7.01,7.045,7.015,7.03,7.03S7.01,7.066,6.996,7.082C2.675,11.424,0,17.405,0,24s2.675,12.576,6.996,16.918
	c0.014,0.016,0.019,0.036,0.034,0.052c0.015,0.015,0.036,0.02,0.052,0.034C11.424,45.325,17.405,48,24,48
	c6.595,0,12.576-2.675,16.918-6.996c0.016-0.014,0.036-0.019,0.052-0.034C40.985,40.955,40.99,40.934,41.004,40.918z M40.239,38.825
	L25.414,24L40.239,9.175C43.815,13.088,46,18.293,46,24S43.815,34.912,40.239,38.825z M38.825,7.761L24,22.586L9.175,7.761
	C13.088,4.185,18.293,2,24,2S34.912,4.185,38.825,7.761z M7.761,9.175L22.586,24L7.761,38.825C4.185,34.912,2,29.707,2,24
	S4.185,13.088,7.761,9.175z M9.175,40.239L24,25.414l14.825,14.825C34.912,43.815,29.707,46,24,46S13.088,43.815,9.175,40.239z"/>
</svg>
