<?xml version="1.0" encoding="utf-8"?>
<!-- Generator: Adobe Illustrator 17.0.0, SVG Export Plug-In . SVG Version: 6.00 Build 0)  -->
<!DOCTYPE svg PUBLIC "-//W3C//DTD SVG 1.1//EN" "http://www.w3.org/Graphics/SVG/1.1/DTD/svg11.dtd">
<svg version="1.1" id="Layer_1" xmlns="http://www.w3.org/2000/svg" xmlns:xlink="http://www.w3.org/1999/xlink" x="0px" y="0px"
	 width="48px" height="48px" viewBox="0 0 48 48" enable-background="new 0 0 48 48" xml:space="preserve">
<g>
	<path fill="#231F20" d="M24,0C10.767,0,0,10.767,0,24s10.767,24,24,24c13.233,0,24-10.767,24-24S37.233,0,24,0z M24,46
		C11.869,46,2,36.131,2,24S11.869,2,24,2s22,9.869,22,22S36.131,46,24,46z"/>
	<path fill="#231F20" d="M33.179,10.491C30.465,8.644,27.291,7.667,24,7.667C14.993,7.667,7.666,14.994,7.666,24
		c0,3.293,0.978,6.467,2.826,9.179l0.68,0.998l23.006-23.006L33.179,10.491z M11.502,31.019C10.297,28.883,9.666,26.48,9.666,24
		c0-7.903,6.431-14.333,14.334-14.333c2.479,0,4.882,0.631,7.019,1.835L11.502,31.019z"/>
	<path fill="#231F20" d="M37.509,14.82l-0.68-0.998L13.822,36.829l0.999,0.68c2.716,1.848,5.89,2.825,9.179,2.825
		c9.006,0,16.333-7.328,16.334-16.334C40.334,20.709,39.357,17.535,37.509,14.82z M24,38.334c-2.478,0-4.881-0.632-7.019-1.836
		l19.517-19.517c1.204,2.138,1.835,4.541,1.835,7.019C38.333,31.904,31.903,38.334,24,38.334z"/>
</g>
</svg>
