<?xml version="1.0" encoding="utf-8"?>
<!-- Generator: Adobe Illustrator 17.0.0, SVG Export Plug-In . SVG Version: 6.00 Build 0)  -->
<!DOCTYPE svg PUBLIC "-//W3C//DTD SVG 1.1//EN" "http://www.w3.org/Graphics/SVG/1.1/DTD/svg11.dtd">
<svg version="1.1" id="Layer_1" xmlns="http://www.w3.org/2000/svg" xmlns:xlink="http://www.w3.org/1999/xlink" x="0px" y="0px"
	 width="48px" height="48px" viewBox="0 0 48 48" enable-background="new 0 0 48 48" xml:space="preserve">
<g>
	<path fill="#231F20" d="M39.707,13.95L34.05,8.293C33.863,8.106,33.608,8,33.343,8c-0.265,0-0.519,0.106-0.707,0.293L14.961,25.969
		c-0.001,0.001-0.002,0.001-0.003,0.002c-0.023,0.023-0.031,0.052-0.051,0.077c-0.061,0.074-0.122,0.148-0.16,0.236l-0.005,0.013
		c-0.001,0.004-0.003,0.007-0.004,0.01l-4.233,9.877c-0.161,0.376-0.077,0.812,0.212,1.101c0.191,0.192,0.447,0.293,0.707,0.293
		c0.133,0,0.267-0.027,0.394-0.081l9.881-4.235c0,0,0,0,0.001,0l0.017-0.007c0.117-0.05,0.223-0.122,0.313-0.212l14.004-14.004
		c0.001-0.001,0.002-0.001,0.003-0.002s0.001-0.002,0.002-0.003l3.669-3.669C40.098,14.973,40.098,14.341,39.707,13.95z
		 M21.323,30.922l-4.243-4.243l12.592-12.592l4.243,4.243L21.323,30.922z M16.003,28.43l3.568,3.568l-6.244,2.676L16.003,28.43z
		 M35.329,16.915l-4.243-4.243l2.257-2.257l4.243,4.243L35.329,16.915z"/>
	<path fill="#231F20" d="M24,0C10.767,0,0,10.767,0,24s10.767,24,24,24c13.233,0,24-10.767,24-24S37.233,0,24,0z M24,46
		C11.869,46,2,36.131,2,24S11.869,2,24,2s22,9.869,22,22S36.131,46,24,46z"/>
</g>
</svg>
