<?xml version="1.0" encoding="utf-8"?>
<!-- Generator: Adobe Illustrator 17.0.0, SVG Export Plug-In . SVG Version: 6.00 Build 0)  -->
<!DOCTYPE svg PUBLIC "-//W3C//DTD SVG 1.1//EN" "http://www.w3.org/Graphics/SVG/1.1/DTD/svg11.dtd">
<svg version="1.1" id="Layer_1" xmlns="http://www.w3.org/2000/svg" xmlns:xlink="http://www.w3.org/1999/xlink" x="0px" y="0px"
	 width="48px" height="48px" viewBox="0 0 48 48" enable-background="new 0 0 48 48" xml:space="preserve">
<g>
	<path fill="#231F20" d="M47,20h-8c-0.552,0-1,0.448-1,1s0.448,1,1,1h7v16H2V22h12c0.552,0,1-0.448,1-1s-0.448-1-1-1H1
		c-0.552,0-1,0.448-1,1v18c0,0.552,0.448,1,1,1h46c0.552,0,1-0.448,1-1V21C48,20.448,47.552,20,47,20z"/>
	<path fill="#231F20" d="M16.423,32c0.133,0,0.267-0.026,0.394-0.081l9.881-4.234c0,0,0,0,0.001,0l0.017-0.007
		c0.117-0.05,0.223-0.122,0.313-0.212l14.004-14.004c0.001-0.001,0.002-0.001,0.003-0.002s0.001-0.002,0.002-0.003l3.669-3.669
		C44.894,9.599,45,9.345,45,9.08c0-0.265-0.106-0.519-0.293-0.707L39.05,2.716c-0.391-0.391-1.023-0.391-1.414,0L19.961,20.392
		c-0.001,0.001-0.002,0.001-0.003,0.002c-0.023,0.023-0.031,0.052-0.051,0.077c-0.061,0.074-0.122,0.148-0.16,0.236l-0.005,0.013
		c-0.001,0.004-0.003,0.007-0.004,0.01l-4.233,9.876c-0.161,0.376-0.077,0.812,0.212,1.101C15.907,31.898,16.163,32,16.423,32z
		 M34.672,8.508l4.243,4.243L26.322,25.344l-4.243-4.243L34.672,8.508z M38.343,4.837l4.243,4.243l-2.257,2.257l-4.243-4.243
		L38.343,4.837z M21.003,22.853l3.568,3.568l-6.243,2.676L21.003,22.853z"/>
</g>
</svg>
