<?xml version="1.0" encoding="utf-8"?>
<!-- Generator: Adobe Illustrator 17.0.0, SVG Export Plug-In . SVG Version: 6.00 Build 0)  -->
<!DOCTYPE svg PUBLIC "-//W3C//DTD SVG 1.1//EN" "http://www.w3.org/Graphics/SVG/1.1/DTD/svg11.dtd">
<svg version="1.1" id="Layer_1" xmlns="http://www.w3.org/2000/svg" xmlns:xlink="http://www.w3.org/1999/xlink" x="0px" y="0px"
	 width="48px" height="48px" viewBox="0 0 48 48" enable-background="new 0 0 48 48" xml:space="preserve">
<g>
	<path fill="#231F20" d="M47.782,23.879c-0.129-0.163-3.229-4.046-8.163-7.613c-0.447-0.322-1.072-0.223-1.396,0.225
		C37.9,16.938,38,17.563,38.448,17.887c3.569,2.579,6.18,5.392,7.243,6.612C43.472,27.039,34.496,36.5,24,36.5
		c-1.857,0-3.779-0.298-5.712-0.886c-0.528-0.161-1.088,0.138-1.248,0.666c-0.16,0.529,0.138,1.088,0.666,1.248
		C19.828,38.173,21.945,38.5,24,38.5c13.037,0,23.351-12.833,23.782-13.379C48.071,24.757,48.071,24.243,47.782,23.879z"/>
	<path fill="#231F20" d="M8.934,32.902c0.31,0,0.615-0.144,0.812-0.414c0.323-0.447,0.223-1.072-0.224-1.396
		c-3.554-2.574-6.153-5.374-7.213-6.591C4.528,21.961,13.504,12.5,24,12.5c1.552,0,3.154,0.209,4.761,0.619
		c0.538,0.141,1.079-0.186,1.216-0.721c0.137-0.535-0.186-1.079-0.721-1.216C27.487,10.73,25.719,10.5,24,10.5
		c-13.037,0-23.351,12.833-23.783,13.379c-0.289,0.364-0.289,0.878-0.001,1.242c0.13,0.163,3.216,4.03,8.133,7.591
		C8.526,32.84,8.731,32.902,8.934,32.902z"/>
	<path fill="#231F20" d="M15,24.5c0,0.552,0.448,1,1,1s1-0.448,1-1c0-3.86,3.14-7,7-7c0.552,0,1-0.448,1-1s-0.448-1-1-1
		C19.038,15.5,15,19.538,15,24.5z"/>
	<path fill="#231F20" d="M31,24.5c0,3.86-3.14,7-7,7c-0.552,0-1,0.448-1,1s0.448,1,1,1c4.962,0,9-4.038,9-9c0-0.552-0.448-1-1-1
		S31,23.948,31,24.5z"/>
	<path fill="#231F20" d="M44.207,4.293c-0.391-0.391-1.023-0.391-1.414,0l-39,39c-0.391,0.391-0.391,1.023,0,1.414
		C3.988,44.902,4.244,45,4.5,45s0.512-0.098,0.707-0.293l39-39C44.598,5.316,44.598,4.684,44.207,4.293z"/>
</g>
</svg>
