<?xml version="1.0" encoding="utf-8"?>
<!-- Generator: Adobe Illustrator 17.0.0, SVG Export Plug-In . SVG Version: 6.00 Build 0)  -->
<!DOCTYPE svg PUBLIC "-//W3C//DTD SVG 1.1//EN" "http://www.w3.org/Graphics/SVG/1.1/DTD/svg11.dtd">
<svg version="1.1" id="Layer_1" xmlns="http://www.w3.org/2000/svg" xmlns:xlink="http://www.w3.org/1999/xlink" x="0px" y="0px"
	 width="48px" height="48px" viewBox="0 0 48 48" enable-background="new 0 0 48 48" xml:space="preserve">
<g>
	<path fill="#231F20" d="M40.586,0L21.225,19.36C19.261,18.457,17.17,18,15,18C6.729,18,0,24.729,0,33s6.729,15,15,15
		s15-6.729,15-15c0-2.17-0.458-4.261-1.361-6.226L34.414,21H38v-3.586L38.414,17H42v-3.586L42.414,13H46V9.414l2-2V0H40.586z
		 M46,6.586l-2,2V11h-2.414L40,12.586V15h-2.414L36,16.586V19h-2.414l-7.383,7.382l0.337,0.65C27.509,28.9,28,30.908,28,33
		c0,7.169-5.832,13-13,13C7.831,46,2,40.169,2,33c0-7.168,5.831-13,13-13c2.092,0,4.1,0.491,5.967,1.459l0.65,0.337L41.414,2H46
		V6.586z"/>
	<path fill="#231F20" d="M11,33c-2.206,0-4,1.794-4,4s1.794,4,4,4s4-1.794,4-4S13.206,33,11,33z M11,39c-1.103,0-2-0.897-2-2
		s0.897-2,2-2s2,0.897,2,2S12.103,39,11,39z"/>
</g>
</svg>
