<?xml version="1.0" encoding="utf-8"?>
<!-- Generator: Adobe Illustrator 17.0.0, SVG Export Plug-In . SVG Version: 6.00 Build 0)  -->
<!DOCTYPE svg PUBLIC "-//W3C//DTD SVG 1.1//EN" "http://www.w3.org/Graphics/SVG/1.1/DTD/svg11.dtd">
<svg version="1.1" id="Layer_1" xmlns="http://www.w3.org/2000/svg" xmlns:xlink="http://www.w3.org/1999/xlink" x="0px" y="0px"
	 width="48px" height="48px" viewBox="0 0 48 48" enable-background="new 0 0 48 48" xml:space="preserve">
<g>
	<path fill="#231F20" d="M41,16H31c-2.757,0-5,2.243-5,5c0,0.552,0.447,1,1,1s1-0.448,1-1c0-1.654,1.346-3,3-3h10
		c2.757,0,5,2.243,5,5v4c0,2.757-2.243,5-5,5H31c-1.654,0-3-1.346-3-3c0-0.552-0.447-1-1-1s-1,0.448-1,1c0,2.757,2.243,5,5,5h10
		c3.859,0,7-3.14,7-7v-4C48,19.14,44.859,16,41,16z"/>
	<path fill="#231F20" d="M21,28c-0.553,0-1,0.448-1,1c0,1.654-1.346,3-3,3H7c-2.757,0-5-2.243-5-5v-4c0-2.757,2.243-5,5-5h10
		c1.654,0,3,1.346,3,3c0,0.552,0.447,1,1,1s1-0.448,1-1c0-2.757-2.243-5-5-5H7c-3.859,0-7,3.14-7,7v4c0,3.86,3.141,7,7,7h10
		c2.757,0,5-2.243,5-5C22,28.448,21.553,28,21,28z"/>
	<path fill="#231F20" d="M12,25c0,0.552,0.447,1,1,1h22c0.553,0,1-0.448,1-1s-0.447-1-1-1H13C12.447,24,12,24.448,12,25z"/>
</g>
</svg>
