<?xml version="1.0" encoding="utf-8"?>
<!-- Generator: Adobe Illustrator 17.0.0, SVG Export Plug-In . SVG Version: 6.00 Build 0)  -->
<!DOCTYPE svg PUBLIC "-//W3C//DTD SVG 1.1//EN" "http://www.w3.org/Graphics/SVG/1.1/DTD/svg11.dtd">
<svg version="1.1" id="Layer_1" xmlns="http://www.w3.org/2000/svg" xmlns:xlink="http://www.w3.org/1999/xlink" x="0px" y="0px"
	 width="48px" height="48px" viewBox="0 0 48 48" enable-background="new 0 0 48 48" xml:space="preserve">
<g>
	<g>
		<g>
			<path fill="#231F20" d="M32,28.757c-1.336,0-2.591-0.52-3.535-1.464l-0.172-0.172c-0.391-0.391-0.391-1.023,0-1.414
				c0.391-0.391,1.023-0.391,1.414,0l0.172,0.172c1.133,1.133,3.109,1.133,4.242,0l7.93-7.929C44,16,44,12.828,42.051,10.878
				l-3.516-3.515C37.596,6.424,36.34,5.907,35,5.907s-2.596,0.518-3.535,1.457l-7.93,7.929c-1.169,1.169-1.169,3.073,0,4.243
				l0.171,0.17c0.392,0.39,0.392,1.023,0.002,1.414c-0.389,0.391-1.022,0.393-1.414,0.002l-0.172-0.171
				c-1.95-1.951-1.949-5.123-0.001-7.072l7.93-7.929C31.368,4.632,33.126,3.907,35,3.907s3.632,0.726,4.949,2.043l3.516,3.515
				c2.729,2.729,2.729,7.17,0,9.899l-7.93,7.929C34.591,28.237,33.336,28.757,32,28.757z"/>
		</g>
	</g>
	<g>
		<g>
			<path fill="#231F20" d="M13,46.921c-1.874,0-3.632-0.726-4.949-2.043l-3.516-3.515c-2.729-2.729-2.729-7.17,0-9.899l7.93-7.929
				c0.943-0.944,2.199-1.465,3.535-1.465s2.592,0.521,3.535,1.465l0.171,0.17c0.392,0.39,0.392,1.023,0.002,1.414
				c-0.389,0.391-1.022,0.393-1.414,0.002l-0.172-0.171c-1.135-1.136-3.11-1.135-4.243-0.001l-7.93,7.929C4,34.828,4,38,5.949,39.95
				l3.516,3.515c0.939,0.939,2.195,1.457,3.535,1.457s2.596-0.518,3.535-1.457l7.93-7.929c1.169-1.17,1.169-3.073,0-4.243
				l-0.172-0.172c-0.391-0.391-0.391-1.023,0-1.414c0.391-0.391,1.023-0.391,1.414,0l0.172,0.172c1.948,1.949,1.949,5.121,0,7.071
				l-7.93,7.929C16.632,46.196,14.874,46.921,13,46.921z"/>
		</g>
	</g>
	<g>
		<g>
			<path fill="#231F20" d="M16.222,34.192c-0.256,0-0.512-0.098-0.707-0.293c-0.391-0.391-0.391-1.023,0-1.414l15.557-15.557
				c0.391-0.391,1.023-0.391,1.414,0s0.391,1.023,0,1.414L16.929,33.899C16.733,34.095,16.477,34.192,16.222,34.192z"/>
		</g>
	</g>
</g>
</svg>
