<?xml version="1.0" encoding="utf-8"?>
<!-- Generator: Adobe Illustrator 17.0.0, SVG Export Plug-In . SVG Version: 6.00 Build 0)  -->
<!DOCTYPE svg PUBLIC "-//W3C//DTD SVG 1.1//EN" "http://www.w3.org/Graphics/SVG/1.1/DTD/svg11.dtd">
<svg version="1.1" id="Layer_1" xmlns="http://www.w3.org/2000/svg" xmlns:xlink="http://www.w3.org/1999/xlink" x="0px" y="0px"
	 width="48px" height="48px" viewBox="0 0 48 48" enable-background="new 0 0 48 48" xml:space="preserve">
<g>
	<path fill="#231F20" d="M24,0C10.767,0,0,10.767,0,24c0,13.233,10.767,24,24,24c13.233,0,24-10.767,24-24S37.233,0,24,0z M24,46
		C11.869,46,2,36.131,2,24S11.869,2,24,2s22,9.869,22,22S36.131,46,24,46z"/>
	<path fill="#231F20" d="M32,18c0-4.411-3.589-8-8-8s-8,3.589-8,8c0,2.836,1.46,5.394,3.858,6.838l-1.846,12.01
		c-0.045,0.288,0.039,0.581,0.229,0.803S18.708,38,19,38h10c0.292,0,0.569-0.127,0.76-0.35c0.189-0.221,0.273-0.514,0.229-0.803
		L28.14,24.838C30.539,23.393,32,20.836,32,18z M26.609,23.396c-0.395,0.191-0.619,0.618-0.552,1.052L27.835,36h-7.669l1.776-11.552
		c0.067-0.434-0.157-0.861-0.552-1.052C19.299,22.382,18,20.314,18,18c0-3.309,2.691-6,6-6s6,2.691,6,6
		C30,20.314,28.7,22.382,26.609,23.396z"/>
</g>
</svg>
