<?xml version="1.0" encoding="utf-8"?>
<!-- Generator: Adobe Illustrator 17.0.0, SVG Export Plug-In . SVG Version: 6.00 Build 0)  -->
<!DOCTYPE svg PUBLIC "-//W3C//DTD SVG 1.1//EN" "http://www.w3.org/Graphics/SVG/1.1/DTD/svg11.dtd">
<svg version="1.1" id="Layer_1" xmlns="http://www.w3.org/2000/svg" xmlns:xlink="http://www.w3.org/1999/xlink" x="0px" y="0px"
	 width="48px" height="48px" viewBox="0 0 48 48" enable-background="new 0 0 48 48" xml:space="preserve">
<g>
	<path fill="#231F20" d="M23,31.723V37c0,0.552,0.448,1,1,1s1-0.448,1-1v-5.277c0.595-0.346,1-0.984,1-1.723c0-1.105-0.895-2-2-2
		s-2,0.895-2,2C22,30.738,22.405,31.376,23,31.723z"/>
	<path fill="#231F20" d="M36,18v-6c0-6.617-5.383-12-12-12S12,5.383,12,12h2c0-5.514,4.486-10,10-10s10,4.486,10,10v6H6v30h36V18H36
		z M40,46H8V20h32V46z"/>
</g>
</svg>
