<?xml version="1.0" encoding="utf-8"?>
<!-- Generator: Adobe Illustrator 17.0.0, SVG Export Plug-In . SVG Version: 6.00 Build 0)  -->
<!DOCTYPE svg PUBLIC "-//W3C//DTD SVG 1.1//EN" "http://www.w3.org/Graphics/SVG/1.1/DTD/svg11.dtd">
<svg version="1.1" id="Layer_1" xmlns="http://www.w3.org/2000/svg" xmlns:xlink="http://www.w3.org/1999/xlink" x="0px" y="0px"
	 width="48px" height="48px" viewBox="0 0 48 48" enable-background="new 0 0 48 48" xml:space="preserve">
<g>
	<path fill="#231F20" d="M34,20.332V11c0-6.065-4.935-11-11-11S12,4.935,12,11h2c0-4.962,4.037-9,9-9s9,4.038,9,9v7.72
		C29.451,17.004,26.384,16,23.087,16c-8.822,0-16,7.178-16,16s7.178,16,16,16c8.822,0,16-7.178,16-16
		C39.087,27.397,37.122,23.254,34,20.332z M23.087,46c-7.72,0-14-6.28-14-14s6.28-14,14-14c7.72,0,14,6.28,14,14
		S30.807,46,23.087,46z"/>
	<path fill="#231F20" d="M23.087,30c-1.105,0-2,0.895-2,2c0,0.738,0.405,1.376,1,1.723V39c0,0.552,0.447,1,1,1c0.553,0,1-0.448,1-1
		v-5.277c0.595-0.346,1-0.984,1-1.723C25.087,30.895,24.192,30,23.087,30z"/>
</g>
</svg>
