<?xml version="1.0" encoding="utf-8"?>
<!-- Generator: Adobe Illustrator 17.0.0, SVG Export Plug-In . SVG Version: 6.00 Build 0)  -->
<!DOCTYPE svg PUBLIC "-//W3C//DTD SVG 1.1//EN" "http://www.w3.org/Graphics/SVG/1.1/DTD/svg11.dtd">
<svg version="1.1" id="Layer_1" xmlns="http://www.w3.org/2000/svg" xmlns:xlink="http://www.w3.org/1999/xlink" x="0px" y="0px"
	 width="48px" height="48px" viewBox="0 0 48 48" enable-background="new 0 0 48 48" xml:space="preserve">
<g>
	<path fill="#231F20" d="M35.087,21.453V11l-0.016-0.178C33.936,4.551,28.896,0,23.087,0c-5.809,0-10.849,4.551-11.984,10.822
		l-0.015,10.63C8.606,24.271,7.087,27.958,7.087,32c0,8.822,7.178,16,16,16c8.822,0,16-7.178,16-16
		C39.087,27.958,37.568,24.272,35.087,21.453z M23.087,2c4.814,0,9.007,3.818,10,9.091v8.439c-2.742-2.203-6.217-3.53-10-3.53
		s-7.258,1.327-10,3.53v-8.439C14.08,5.818,18.273,2,23.087,2z M23.087,46c-7.72,0-14-6.28-14-14s6.28-14,14-14
		c7.72,0,14,6.28,14,14S30.807,46,23.087,46z"/>
	<path fill="#231F20" d="M23.087,30c-1.105,0-2,0.895-2,2c0,0.738,0.405,1.376,1,1.723V39c0,0.552,0.447,1,1,1c0.553,0,1-0.448,1-1
		v-5.277c0.595-0.346,1-0.984,1-1.723C25.087,30.895,24.192,30,23.087,30z"/>
</g>
</svg>
