<?xml version="1.0" encoding="utf-8"?>
<!-- Generator: Adobe Illustrator 17.0.0, SVG Export Plug-In . SVG Version: 6.00 Build 0)  -->
<!DOCTYPE svg PUBLIC "-//W3C//DTD SVG 1.1//EN" "http://www.w3.org/Graphics/SVG/1.1/DTD/svg11.dtd">
<svg version="1.1" id="Layer_1" xmlns="http://www.w3.org/2000/svg" xmlns:xlink="http://www.w3.org/1999/xlink" x="0px" y="0px"
	 width="48px" height="48px" viewBox="0 0 48 48" enable-background="new 0 0 48 48" xml:space="preserve">
<path fill="#231F20" d="M48,6.656c0-0.265-0.106-0.519-0.293-0.707l-5.658-5.656c-0.391-0.391-1.023-0.391-1.414,0l-0.779,0.779
	c-0.811-0.538-1.761-0.829-2.757-0.829c-1.336,0-2.592,0.521-3.535,1.465L22.251,13.021c-0.391,0.391-0.391,1.023,0,1.414
	c0.195,0.195,0.451,0.293,0.707,0.293s0.512-0.098,0.707-0.293L34.978,3.122c0.887-0.888,2.285-1.07,3.396-0.568l-9.052,9.053
	c-0.002,0.002-0.002,0.004-0.004,0.006L9.524,31.406c-0.391,0.391-0.391,1.023,0,1.414l0.346,0.346
	c-0.297-0.045-0.599-0.075-0.905-0.075c-1.588,0-3.08,0.619-4.202,1.741c-2.09,2.089-3.606,10.104-3.772,11.011L0.73,47.267
	l1.423-0.26c0.907-0.166,8.924-1.679,11.014-3.771c1.122-1.122,1.74-2.615,1.74-4.202c0-0.307-0.03-0.608-0.075-0.905l0.348,0.348
	c0.187,0.188,0.441,0.293,0.707,0.293c0.265,0,0.519-0.106,0.707-0.293l19.799-19.798c0.001-0.001,0.001-0.002,0.002-0.003
	L47.707,7.363C47.894,7.176,48,6.921,48,6.656z M11.753,41.821c-0.875,0.876-3.864,1.821-6.67,2.509l3.257-3.255
	c0.391-0.39,0.391-1.023,0-1.414c-0.391-0.391-1.023-0.391-1.414,0l-3.259,3.257c0.689-2.807,1.635-5.797,2.51-6.672
	c0.745-0.745,1.734-1.155,2.788-1.155c1.053,0,2.043,0.41,2.788,1.154c0.744,0.745,1.154,1.735,1.154,2.788
	C12.908,40.087,12.498,41.076,11.753,41.821z M15.886,36.355l-4.242-4.243l18.384-18.384l4.242,4.243L15.886,36.355z M35.685,16.557
	l-2.778-2.778l-1.464-1.465l9.189-9.19c0.001-0.001,0.002-0.001,0.003-0.002s0.001-0.002,0.002-0.003l0.704-0.704l4.244,4.242
	L35.685,16.557z"/>
</svg>
