<?xml version="1.0" encoding="utf-8"?>
<!-- Generator: Adobe Illustrator 17.0.0, SVG Export Plug-In . SVG Version: 6.00 Build 0)  -->
<!DOCTYPE svg PUBLIC "-//W3C//DTD SVG 1.1//EN" "http://www.w3.org/Graphics/SVG/1.1/DTD/svg11.dtd">
<svg version="1.1" id="Layer_1" xmlns="http://www.w3.org/2000/svg" xmlns:xlink="http://www.w3.org/1999/xlink" x="0px" y="0px"
	 width="48px" height="48px" viewBox="0 0 48 48" enable-background="new 0 0 48 48" xml:space="preserve">
<g>
	<path fill="#231F20" d="M42.718,10.937l-5.656-5.656c-0.39-0.391-1.023-0.391-1.414,0L34.869,6.06
		c-0.811-0.539-1.761-0.83-2.757-0.83c-1.336,0-2.592,0.521-3.536,1.466L17.263,18.008c-0.391,0.39-0.391,1.023,0,1.414
		c0.195,0.195,0.451,0.293,0.707,0.293c0.256,0,0.511-0.097,0.707-0.293L29.99,8.109c0.888-0.888,2.286-1.07,3.398-0.568
		l-9.054,9.054L4.535,36.394c-0.391,0.391-0.391,1.023,0,1.414l5.656,5.657c0.187,0.188,0.441,0.293,0.707,0.293
		s0.52-0.106,0.707-0.293l19.799-19.799l11.314-11.315c0.188-0.187,0.293-0.442,0.293-0.707
		C43.011,11.379,42.906,11.125,42.718,10.937z M10.898,41.344l-4.242-4.243l18.385-18.385l2.774,2.774l1.468,1.469L10.898,41.344z
		 M30.697,21.545l-1.468-1.469l-2.774-2.774l9.19-9.19c0.001-0.001,0.002-0.001,0.003-0.002s0.001-0.002,0.002-0.003l0.705-0.705
		l4.242,4.242L30.697,21.545z"/>
	<path fill="#231F20" d="M4.535,40.636c-0.391-0.391-1.023-0.391-1.414,0c-0.391,0.39-0.391,1.023,0,1.414l0.707,0.708l-3.535,3.535
		c-0.391,0.391-0.391,1.023,0,1.414C0.488,47.902,0.744,48,1,48s0.512-0.098,0.707-0.293l3.535-3.535l0.707,0.707
		c0.195,0.195,0.451,0.293,0.707,0.293s0.512-0.098,0.707-0.293c0.391-0.39,0.391-1.023,0-1.414L4.535,40.636z"/>
</g>
</svg>
