<?xml version="1.0" encoding="utf-8"?>
<!-- Generator: Adobe Illustrator 17.0.0, SVG Export Plug-In . SVG Version: 6.00 Build 0)  -->
<!DOCTYPE svg PUBLIC "-//W3C//DTD SVG 1.1//EN" "http://www.w3.org/Graphics/SVG/1.1/DTD/svg11.dtd">
<svg version="1.1" id="Layer_1" xmlns="http://www.w3.org/2000/svg" xmlns:xlink="http://www.w3.org/1999/xlink" x="0px" y="0px"
	 width="48px" height="48px" viewBox="0 0 48 48" enable-background="new 0 0 48 48" xml:space="preserve">
<path fill="#231F20" d="M45.365,2.636c-0.945-0.944-2.2-1.464-3.536-1.464s-2.592,0.52-3.536,1.464l-2.829,2.829c0,0,0,0,0,0
	s0,0,0,0L5.95,34.98c-0.077,0.076-0.14,0.164-0.188,0.26L0.105,46.553c-0.193,0.385-0.118,0.85,0.187,1.154
	C0.484,47.899,0.74,48,1,48c0.152,0,0.305-0.035,0.447-0.105l11.314-5.657c0.094-0.048,0.179-0.11,0.254-0.183
	c0.002-0.002,0.004-0.002,0.005-0.004c0,0,0,0,0-0.001s0,0,0.001,0l29.515-29.514c0,0,0,0,0,0s0,0,0,0l2.829-2.829
	C47.315,7.758,47.315,4.585,45.365,2.636z M12.313,39.93l-4.242-4.243l28.1-28.101l4.243,4.243L12.313,39.93z M6.931,37.375
	l3.695,3.695l-7.39,3.695L6.931,37.375z M43.95,8.293l-2.122,2.122l-4.243-4.243l2.122-2.122c1.134-1.133,3.109-1.133,4.243,0
	C45.119,5.22,45.119,7.123,43.95,8.293z"/>
</svg>
