<?xml version="1.0" encoding="utf-8"?>
<!-- Generator: Adobe Illustrator 17.0.0, SVG Export Plug-In . SVG Version: 6.00 Build 0)  -->
<!DOCTYPE svg PUBLIC "-//W3C//DTD SVG 1.1//EN" "http://www.w3.org/Graphics/SVG/1.1/DTD/svg11.dtd">
<svg version="1.1" id="Layer_1" xmlns="http://www.w3.org/2000/svg" xmlns:xlink="http://www.w3.org/1999/xlink" x="0px" y="0px"
	 width="48px" height="48px" viewBox="0 0 48 48" enable-background="new 0 0 48 48" xml:space="preserve">
<path fill="#231F20" d="M44.878,6.465l-3.343-3.343c-1.949-1.95-5.122-1.95-7.071,0l-6.171,6.171l-24,24c0,0,0,0,0,0
	c-0.111,0.111-0.182,0.243-0.23,0.381c-0.004,0.012-0.016,0.02-0.019,0.032l-4,13c-0.109,0.354-0.013,0.739,0.249,1.001
	C0.483,47.898,0.739,48,1,48c0.098,0,0.197-0.015,0.294-0.044l13-4c0.018-0.006,0.034-0.017,0.053-0.024
	c0.022-0.008,0.043-0.019,0.065-0.029c0.109-0.05,0.211-0.112,0.296-0.197l24-24c0,0,0,0,0,0l6.171-6.171
	C46.828,11.587,46.828,8.415,44.878,6.465z M38,17.586l-3.793-3.793c0,0,0,0,0,0s0,0,0,0L30.414,10L32,8.414L39.586,16L38,17.586z
	 M7.399,43.985l-3.384-3.384l1.452-4.72l0.826,0.826C6.48,36.895,6.735,37,7,37h4v4c0,0.265,0.105,0.52,0.293,0.707l0.826,0.826
	L7.399,43.985z M11.587,35H7.414l-1-1L29,11.414l3.086,3.086L11.587,35z M3.35,42.764l1.887,1.887l-2.725,0.839L3.35,42.764z
	 M14,41.586l-1-1v-4.171l20.5-20.501L36.586,19L14,41.586z M43.464,12.122L41,14.586L33.414,7l2.464-2.464
	c1.17-1.17,3.073-1.17,4.243,0l3.343,3.343C44.634,9.049,44.634,10.952,43.464,12.122z"/>
</svg>
