<?xml version="1.0" encoding="utf-8"?>
<!-- Generator: Adobe Illustrator 17.0.0, SVG Export Plug-In . SVG Version: 6.00 Build 0)  -->
<!DOCTYPE svg PUBLIC "-//W3C//DTD SVG 1.1//EN" "http://www.w3.org/Graphics/SVG/1.1/DTD/svg11.dtd">
<svg version="1.1" id="Layer_1" xmlns="http://www.w3.org/2000/svg" xmlns:xlink="http://www.w3.org/1999/xlink" x="0px" y="0px"
	 width="48px" height="48px" viewBox="0 0 48 48" enable-background="new 0 0 48 48" xml:space="preserve">
<path fill="#231F20" d="M47.707,14.293l-14-14c-0.391-0.391-1.023-0.391-1.414,0l-4,4c-0.391,0.391-0.391,1.023,0,1.414L29.586,7
	l-9,9H13c-0.265,0-0.52,0.106-0.707,0.293l-3,3c-0.391,0.391-0.391,1.023,0,1.414L17.586,29L0.293,46.293
	c-0.391,0.391-0.391,1.023,0,1.414C0.488,47.902,0.744,48,1,48s0.512-0.098,0.707-0.293L19,30.414l8.293,8.293
	C27.488,38.902,27.744,39,28,39s0.512-0.098,0.707-0.293l3-3C31.894,35.52,32,35.265,32,35v-7.586l9-9l1.293,1.293
	c0.391,0.391,1.023,0.391,1.414,0l4-4C48.098,15.316,48.098,14.684,47.707,14.293z M43,17.586l-1.293-1.293
	c-0.391-0.391-1.023-0.391-1.414,0l-10,10C30.105,26.481,30,26.735,30,27v7.586l-2,2L11.414,20l2-2H21
	c0.265,0,0.519-0.105,0.707-0.293l10-10c0.391-0.391,0.391-1.023,0-1.414L30.414,5L33,2.414L45.586,15L43,17.586z"/>
</svg>
