<?xml version="1.0" encoding="utf-8"?>
<!-- Generator: Adobe Illustrator 17.0.0, SVG Export Plug-In . SVG Version: 6.00 Build 0)  -->
<!DOCTYPE svg PUBLIC "-//W3C//DTD SVG 1.1//EN" "http://www.w3.org/Graphics/SVG/1.1/DTD/svg11.dtd">
<svg version="1.1" id="Layer_1" xmlns="http://www.w3.org/2000/svg" xmlns:xlink="http://www.w3.org/1999/xlink" x="0px" y="0px"
	 width="48px" height="48px" viewBox="0 0 48 48" enable-background="new 0 0 48 48" xml:space="preserve">
<path fill="#231F20" d="M38,0c-5.514,0-10,4.486-10,10c0,2.398,0.85,4.6,2.262,6.324L0.293,46.293c-0.391,0.391-0.391,1.023,0,1.414
	C0.488,47.902,0.744,48,1,48s0.512-0.098,0.707-0.293l29.969-29.969C33.4,19.15,35.602,20,38,20c5.514,0,10-4.486,10-10
	S43.514,0,38,0z M38,18c-4.411,0-8-3.589-8-8s3.589-8,8-8s8,3.589,8,8S42.411,18,38,18z"/>
</svg>
