<?xml version="1.0" encoding="utf-8"?>
<!-- Generator: Adobe Illustrator 17.0.0, SVG Export Plug-In . SVG Version: 6.00 Build 0)  -->
<!DOCTYPE svg PUBLIC "-//W3C//DTD SVG 1.1//EN" "http://www.w3.org/Graphics/SVG/1.1/DTD/svg11.dtd">
<svg version="1.1" id="Layer_1" xmlns="http://www.w3.org/2000/svg" xmlns:xlink="http://www.w3.org/1999/xlink" x="0px" y="0px"
	 width="48px" height="48px" viewBox="0 0 48 48" enable-background="new 0 0 48 48" xml:space="preserve">
<path fill="#231F20" d="M41.89,18.543C41.718,18.21,41.375,18,41,18H26.247l3.729-16.783c0.103-0.464-0.134-0.937-0.569-1.13
	c-0.434-0.193-0.945-0.057-1.221,0.332l-20,28c-0.218,0.305-0.247,0.706-0.076,1.039C8.282,29.791,8.625,30,9,30h14.753
	l-3.729,16.783c-0.103,0.464,0.134,0.937,0.569,1.13C20.725,47.972,20.862,48,21,48c0.314,0,0.621-0.149,0.814-0.418l20-28
	C42.032,19.277,42.061,18.876,41.89,18.543z M23.041,42.421l2.935-13.204c0.066-0.296-0.007-0.606-0.196-0.842
	C25.59,28.138,25.304,28,25,28H10.943L26.959,5.58l-2.935,13.204c-0.066,0.296,0.007,0.606,0.196,0.842
	C24.41,19.862,24.696,20,25,20h14.057L23.041,42.421z"/>
</svg>
