<?xml version="1.0" encoding="utf-8"?>
<!-- Generator: Adobe Illustrator 17.0.0, SVG Export Plug-In . SVG Version: 6.00 Build 0)  -->
<!DOCTYPE svg PUBLIC "-//W3C//DTD SVG 1.1//EN" "http://www.w3.org/Graphics/SVG/1.1/DTD/svg11.dtd">
<svg version="1.1" id="Layer_1" xmlns="http://www.w3.org/2000/svg" xmlns:xlink="http://www.w3.org/1999/xlink" x="0px" y="0px"
	 width="48px" height="48px" viewBox="0 0 48 48" enable-background="new 0 0 48 48" xml:space="preserve">
<path fill="#231F20" d="M36,16h-8.195l9.043-14.47c0.193-0.308,0.203-0.697,0.027-1.015C36.698,0.197,36.363,0,36,0H20
	c-0.459,0-0.858,0.313-0.97,0.757l-6,24c-0.075,0.299-0.007,0.615,0.182,0.858C13.401,25.858,13.692,26,14,26h6.69l-5.655,20.737
	c-0.129,0.473,0.105,0.97,0.551,1.173C15.72,47.971,15.86,48,16,48c0.325,0,0.642-0.159,0.832-0.446l20-30
	c0.204-0.306,0.224-0.701,0.05-1.026S36.369,16,36,16z M18.586,41.318l4.379-16.055c0.082-0.301,0.019-0.622-0.17-0.87
	C22.605,24.146,22.311,24,22,24h-6.719l5.5-22h13.414l-9.043,14.47c-0.193,0.308-0.203,0.697-0.027,1.015
	C25.302,17.803,25.637,18,26,18h8.132L18.586,41.318z"/>
</svg>
