<?xml version="1.0" encoding="utf-8"?>
<!-- Generator: Adobe Illustrator 17.0.0, SVG Export Plug-In . SVG Version: 6.00 Build 0)  -->
<!DOCTYPE svg PUBLIC "-//W3C//DTD SVG 1.1//EN" "http://www.w3.org/Graphics/SVG/1.1/DTD/svg11.dtd">
<svg version="1.1" id="Layer_1" xmlns="http://www.w3.org/2000/svg" xmlns:xlink="http://www.w3.org/1999/xlink" x="0px" y="0px"
	 width="48px" height="48px" viewBox="0 0 48 48" enable-background="new 0 0 48 48" xml:space="preserve">
<g>
	<path fill="#231F20" d="M47.784,25.379C47.351,24.833,37.037,12,24,12S0.649,24.833,0.216,25.379c-0.289,0.364-0.289,0.878,0,1.242
		C0.649,27.167,10.963,40,24,40s23.351-12.833,23.784-13.379C48.073,26.257,48.073,25.743,47.784,25.379z M24,38
		C13.506,38,4.531,28.542,2.31,26C4.531,23.459,13.506,14,24,14s19.469,9.459,21.69,12C43.469,28.542,34.494,38,24,38z"/>
	<path fill="#231F20" d="M24,17c-4.962,0-9,4.038-9,9s4.038,9,9,9s9-4.038,9-9S28.962,17,24,17z M24,33c-3.86,0-7-3.14-7-7
		s3.14-7,7-7s7,3.14,7,7S27.86,33,24,33z"/>
</g>
</svg>
