<?xml version="1.0" encoding="utf-8"?>
<!-- Generator: Adobe Illustrator 17.0.0, SVG Export Plug-In . SVG Version: 6.00 Build 0)  -->
<!DOCTYPE svg PUBLIC "-//W3C//DTD SVG 1.1//EN" "http://www.w3.org/Graphics/SVG/1.1/DTD/svg11.dtd">
<svg version="1.1" id="Layer_1" xmlns="http://www.w3.org/2000/svg" xmlns:xlink="http://www.w3.org/1999/xlink" x="0px" y="0px"
	 width="48px" height="48px" viewBox="0 0 48 48" enable-background="new 0 0 48 48" xml:space="preserve">
<path fill="#231F20" d="M40,29.414c-2.667,0-5.027,1.317-6.481,3.329c-0.546-2.634-1.539-5.106-2.904-7.329
	c1.365-2.223,2.358-4.695,2.904-7.329c1.454,2.012,3.814,3.329,6.481,3.329c4.411,0,8-3.589,8-8s-3.589-8-8-8s-8,3.589-8,8
	c0,3.688-0.955,7.157-2.632,10.172C25.166,18.019,18.496,14.414,11,14.414c-2.112,0-8.571,0.676-10.601,2.2
	c-0.304,0.228-0.452,0.608-0.383,0.981c0.069,0.374,0.344,0.676,0.709,0.78l24.635,7.04L0.725,32.454
	c-0.365,0.104-0.64,0.406-0.709,0.779c-0.069,0.373,0.079,0.753,0.383,0.981c2.028,1.524,8.488,2.2,10.601,2.2
	c7.496,0,14.166-3.605,18.368-9.172C31.045,30.257,32,33.726,32,37.414c0,4.411,3.589,8,8,8s8-3.589,8-8S44.411,29.414,40,29.414z
	 M40,7.414c3.309,0,6,2.691,6,6s-2.691,6-6,6s-6-2.691-6-6S36.691,7.414,40,7.414z M11,34.414c-1.546,0-4.565-0.341-6.825-0.867
	l22.798-6.514C23.118,31.548,17.388,34.414,11,34.414z M4.176,17.28c2.259-0.526,5.279-0.866,6.824-0.866
	c6.388,0,12.118,2.866,15.973,7.381L4.176,17.28z M40,43.414c-3.309,0-6-2.691-6-6s2.691-6,6-6s6,2.692,6,6
	C46,40.723,43.309,43.414,40,43.414z"/>
</svg>
