<?xml version="1.0" encoding="utf-8"?>
<!-- Generator: Adobe Illustrator 17.0.0, SVG Export Plug-In . SVG Version: 6.00 Build 0)  -->
<!DOCTYPE svg PUBLIC "-//W3C//DTD SVG 1.1//EN" "http://www.w3.org/Graphics/SVG/1.1/DTD/svg11.dtd">
<svg version="1.1" id="Layer_1" xmlns="http://www.w3.org/2000/svg" xmlns:xlink="http://www.w3.org/1999/xlink" x="0px" y="0px"
	 width="48px" height="48px" viewBox="0 0 48 48" enable-background="new 0 0 48 48" xml:space="preserve">
<g>
	<path fill="#231F20" d="M24,2C12.972,2,4,10.972,4,22v5c0,5.729,4.401,10.448,10,10.955V47c0,0.552,0.448,1,1,1s1-0.448,1-1V36h-1
		c-4.962,0-9-4.038-9-9v-5c0-0.679,0.045-1.346,0.119-2.005C10.062,19.94,14,17.155,14,11c0-0.552-0.448-1-1-1s-1,0.448-1,1
		c0,4.878-2.88,6.782-5.531,6.98C8.302,9.987,15.458,4,24,4c8.544,0,15.702,5.989,17.533,13.986C38.796,17.839,36,15.95,36,11
		c0-0.552-0.448-1-1-1s-1,0.448-1,1c0,6.217,3.959,9,7.882,9l0,0C41.955,20.658,42,21.323,42,22v5c0,4.962-4.038,9-9,9h-1v11
		c0,0.552,0.448,1,1,1s1-0.448,1-1v-9.045C39.599,37.448,44,32.729,44,27v-5C44,10.972,35.028,2,24,2z"/>
	<path fill="#231F20" d="M21,36c-0.552,0-1,0.448-1,1v10c0,0.552,0.448,1,1,1s1-0.448,1-1V37C22,36.448,21.552,36,21,36z"/>
	<path fill="#231F20" d="M27,36c-0.552,0-1,0.448-1,1v10c0,0.552,0.448,1,1,1s1-0.448,1-1V37C28,36.448,27.552,36,27,36z"/>
	<path fill="#231F20" d="M40,27c0-3.86-3.14-7-7-7s-7,3.14-7,7s3.14,7,7,7S40,30.86,40,27z M28,27c0-2.757,2.243-5,5-5s5,2.243,5,5
		s-2.243,5-5,5S28,29.757,28,27z"/>
	<path fill="#231F20" d="M15,20c-3.86,0-7,3.14-7,7s3.14,7,7,7s7-3.14,7-7S18.86,20,15,20z M15,32c-2.757,0-5-2.243-5-5s2.243-5,5-5
		s5,2.243,5,5S17.757,32,15,32z"/>
	<path fill="#231F20" d="M25.814,32.392l-0.92-1.839c-0.339-0.678-1.45-0.678-1.789,0l-1,2c-0.155,0.31-0.138,0.678,0.044,0.973
		C22.331,33.82,22.653,34,23,34h2c0.007,0,0.013,0,0.02,0c0.552,0,1-0.448,1-1C26.02,32.771,25.943,32.56,25.814,32.392z"/>
</g>
</svg>
