<?xml version="1.0" encoding="utf-8"?>
<!-- Generator: Adobe Illustrator 17.0.0, SVG Export Plug-In . SVG Version: 6.00 Build 0)  -->
<!DOCTYPE svg PUBLIC "-//W3C//DTD SVG 1.1//EN" "http://www.w3.org/Graphics/SVG/1.1/DTD/svg11.dtd">
<svg version="1.1" id="Layer_1" xmlns="http://www.w3.org/2000/svg" xmlns:xlink="http://www.w3.org/1999/xlink" x="0px" y="0px"
	 width="48px" height="48px" viewBox="0 0 48 48" enable-background="new 0 0 48 48" xml:space="preserve">
<g>
	<path fill="#231F20" d="M47,16H1c-0.552,0-1,0.448-1,1v18c0,0.552,0.448,1,1,1h46c0.552,0,1-0.448,1-1V17
		C48,16.448,47.552,16,47,16z M46,34H2V18h44V34z"/>
	<path fill="#231F20" d="M7,32c0.552,0,1-0.448,1-1V21c0-0.552-0.448-1-1-1s-1,0.448-1,1v10C6,31.552,6.448,32,7,32z"/>
</g>
</svg>
