<?xml version="1.0" encoding="utf-8"?>
<!-- Generator: Adobe Illustrator 17.1.0, SVG Export Plug-In . SVG Version: 6.00 Build 0)  -->
<!DOCTYPE svg PUBLIC "-//W3C//DTD SVG 1.0//EN" "http://www.w3.org/TR/2001/REC-SVG-20010904/DTD/svg10.dtd">
<svg version="1.0" id="Layer_1" xmlns="http://www.w3.org/2000/svg" xmlns:xlink="http://www.w3.org/1999/xlink" x="0px" y="0px"
	 width="48px" height="48px" viewBox="0 0 48 48" enable-background="new 0 0 48 48" xml:space="preserve">
<g>
	<path d="M35,46h-3c-3.86,0-7-3.14-7-7v-7h4c0.552,0,1-0.448,1-1c0-0.552-0.448-1-1-1h-4V9c0-3.86,3.14-7,7-7h3c0.552,0,1-0.448,1-1
		c0-0.552-0.448-1-1-1h-3c-3.479,0-6.502,1.984-8,4.879C22.502,1.984,19.479,0,16,0h-3c-0.552,0-1,0.448-1,1c0,0.552,0.448,1,1,1h3
		c3.86,0,7,3.14,7,7v21h-4c-0.552,0-1,0.448-1,1c0,0.552,0.448,1,1,1h4v7c0,3.86-3.14,7-7,7h-3c-0.552,0-1,0.448-1,1
		c0,0.552,0.448,1,1,1h3c3.478,0,6.502-1.984,8-4.879C25.498,46.016,28.522,48,32,48h3c0.552,0,1-0.448,1-1
		C36,46.448,35.552,46,35,46z"/>
	<path d="M1,30c0.552,0,1-0.448,1-1v-4c0-0.552-0.448-1-1-1c-0.552,0-1,0.448-1,1v4C0,29.552,0.448,30,1,30z"/>
	<path d="M3,16H1c-0.552,0-1,0.448-1,1v2c0,0.552,0.448,1,1,1c0.552,0,1-0.448,1-1v-1h1c0.552,0,1-0.448,1-1C4,16.448,3.552,16,3,16
		z"/>
	<path d="M7,18h4c0.552,0,1-0.448,1-1c0-0.552-0.448-1-1-1H7c-0.552,0-1,0.448-1,1C6,17.552,6.448,18,7,18z"/>
	<path d="M15,18h4c0.552,0,1-0.448,1-1c0-0.552-0.448-1-1-1h-4c-0.552,0-1,0.448-1,1C14,17.552,14.448,18,15,18z"/>
	<path d="M3,36H2v-1c0-0.552-0.448-1-1-1c-0.552,0-1,0.448-1,1v2c0,0.552,0.448,1,1,1h2c0.552,0,1-0.448,1-1C4,36.448,3.552,36,3,36
		z"/>
	<path d="M11,36H7c-0.552,0-1,0.448-1,1c0,0.552,0.448,1,1,1h4c0.552,0,1-0.448,1-1C12,36.448,11.552,36,11,36z"/>
	<path d="M15,38h4c0.552,0,1-0.448,1-1c0-0.552-0.448-1-1-1h-4c-0.552,0-1,0.448-1,1C14,37.552,14.448,38,15,38z"/>
	<path d="M47,24c-0.552,0-1,0.448-1,1v4c0,0.552,0.448,1,1,1c0.552,0,1-0.448,1-1v-4C48,24.448,47.552,24,47,24z"/>
	<path d="M47,16h-2c-0.552,0-1,0.448-1,1c0,0.552,0.448,1,1,1h1v1c0,0.552,0.448,1,1,1c0.552,0,1-0.448,1-1v-2
		C48,16.448,47.552,16,47,16z"/>
	<path d="M41,16h-4c-0.552,0-1,0.448-1,1c0,0.552,0.448,1,1,1h4c0.552,0,1-0.448,1-1C42,16.448,41.552,16,41,16z"/>
	<path d="M33,16h-4c-0.552,0-1,0.448-1,1c0,0.552,0.448,1,1,1h4c0.552,0,1-0.448,1-1C34,16.448,33.552,16,33,16z"/>
	<path d="M47,34c-0.552,0-1,0.448-1,1v1h-1c-0.552,0-1,0.448-1,1c0,0.552,0.448,1,1,1h2c0.552,0,1-0.448,1-1v-2
		C48,34.448,47.552,34,47,34z"/>
	<path d="M41,36h-4c-0.552,0-1,0.448-1,1c0,0.552,0.448,1,1,1h4c0.552,0,1-0.448,1-1C42,36.448,41.552,36,41,36z"/>
	<path d="M33,36h-4c-0.552,0-1,0.448-1,1c0,0.552,0.448,1,1,1h4c0.552,0,1-0.448,1-1C34,36.448,33.552,36,33,36z"/>
</g>
</svg>
