<?xml version="1.0" encoding="utf-8"?>
<!-- Generator: Adobe Illustrator 17.0.0, SVG Export Plug-In . SVG Version: 6.00 Build 0)  -->
<!DOCTYPE svg PUBLIC "-//W3C//DTD SVG 1.1//EN" "http://www.w3.org/Graphics/SVG/1.1/DTD/svg11.dtd">
<svg version="1.1" id="Layer_1" xmlns="http://www.w3.org/2000/svg" xmlns:xlink="http://www.w3.org/1999/xlink" x="0px" y="0px"
	 width="48px" height="48px" viewBox="0 0 48 48" enable-background="new 0 0 48 48" xml:space="preserve">
<path fill="#231F20" d="M47,16H36.08c0.488-3.387,3.401-6,6.92-6c0.552,0,1-0.448,1-1s-0.448-1-1-1c-3.479,0-6.502,1.984-8,4.879
	C33.502,9.984,30.478,8,27,8c-0.552,0-1,0.448-1,1s0.448,1,1,1c3.52,0,6.432,2.613,6.92,6H1c-0.552,0-1,0.448-1,1v18
	c0,0.552,0.448,1,1,1h33c0,3.86-3.14,7-7,7c-0.552,0-1,0.448-1,1s0.448,1,1,1c3.478,0,6.502-1.984,8-4.879
	C36.498,43.016,39.521,45,43,45c0.552,0,1-0.448,1-1s-0.448-1-1-1c-3.86,0-7-3.14-7-7h11c0.552,0,1-0.448,1-1V17
	C48,16.448,47.552,16,47,16z M2,34V18h32v16H2z M46,34H36V18h10V34z"/>
</svg>
