<?xml version="1.0" encoding="utf-8"?>
<!-- Generator: Adobe Illustrator 17.0.0, SVG Export Plug-In . SVG Version: 6.00 Build 0)  -->
<!DOCTYPE svg PUBLIC "-//W3C//DTD SVG 1.1//EN" "http://www.w3.org/Graphics/SVG/1.1/DTD/svg11.dtd">
<svg version="1.1" id="Layer_1" xmlns="http://www.w3.org/2000/svg" xmlns:xlink="http://www.w3.org/1999/xlink" x="0px" y="0px"
	 width="48px" height="48px" viewBox="0 0 48 48" enable-background="new 0 0 48 48" xml:space="preserve">
<g>
	<path fill="#231F20" d="M47.707,46.293l-18-18c-0.006-0.006-0.015-0.008-0.022-0.015C32.36,25.274,34,21.33,34,17
		c0-9.374-7.626-17-17-17S0,7.626,0,17s7.626,17,17,17c4.33,0,8.274-1.64,11.278-4.315c0.006,0.007,0.008,0.015,0.015,0.022l18,18
		C46.488,47.902,46.744,48,47,48s0.512-0.098,0.707-0.293C48.098,47.316,48.098,46.684,47.707,46.293z M17,32
		C8.728,32,2,25.271,2,17S8.728,2,17,2c8.271,0,15,6.729,15,15S25.271,32,17,32z"/>
	<path fill="#231F20" d="M24,16H10c-0.553,0-1,0.448-1,1s0.447,1,1,1h14c0.553,0,1-0.448,1-1S24.553,16,24,16z"/>
</g>
</svg>
