<?xml version="1.0" encoding="utf-8"?>
<!-- Generator: Adobe Illustrator 17.0.0, SVG Export Plug-In . SVG Version: 6.00 Build 0)  -->
<!DOCTYPE svg PUBLIC "-//W3C//DTD SVG 1.1//EN" "http://www.w3.org/Graphics/SVG/1.1/DTD/svg11.dtd">
<svg version="1.1" id="Layer_1" xmlns="http://www.w3.org/2000/svg" xmlns:xlink="http://www.w3.org/1999/xlink" x="0px" y="0px"
	 width="60px" height="60px" viewBox="0 0 60 60" enable-background="new 0 0 60 60" xml:space="preserve">
<g>
	<path fill="#010101" d="M52,15v28c0,0.552,0.447,1,1,1c0.553,0,1-0.448,1-1V15c0-0.552-0.447-1-1-1C52.447,14,52,14.448,52,15z"/>
	<path fill="#010101" d="M15,6h28c0.553,0,1-0.448,1-1c0-0.552-0.447-1-1-1H15c-0.553,0-1,0.448-1,1C14,5.552,14.447,6,15,6z"/>
	<path fill="#010101" d="M4,16v27c0,0.552,0.447,1,1,1c0.553,0,1-0.448,1-1V16c0-0.552-0.447-1-1-1C4.447,15,4,15.448,4,16z"/>
	<path fill="#010101" d="M15,54h28c0.553,0,1-0.448,1-1c0-0.552-0.447-1-1-1H15c-0.553,0-1,0.448-1,1C14,53.552,14.447,54,15,54z"/>
	<path fill="#010101" d="M53,10c2.757,0,5-2.243,5-5c0-2.757-2.243-5-5-5c-2.757,0-5,2.243-5,5C48,7.757,50.243,10,53,10z M53,2
		c1.654,0,3,1.346,3,3s-1.346,3-3,3s-3-1.346-3-3S51.346,2,53,2z"/>
	<path fill="#010101" d="M5,11c2.757,0,5-2.243,5-5c0-2.757-2.243-5-5-5C2.243,1,0,3.243,0,6C0,8.757,2.243,11,5,11z M5,3
		c1.654,0,3,1.346,3,3S6.654,9,5,9S2,7.654,2,6S3.346,3,5,3z"/>
	<path fill="#010101" d="M53,58c2.757,0,5-2.243,5-5c0-2.757-2.243-5-5-5c-2.757,0-5,2.243-5,5C48,55.757,50.243,58,53,58z M53,50
		c1.654,0,3,1.346,3,3s-1.346,3-3,3s-3-1.346-3-3S51.346,50,53,50z"/>
	<path fill="#010101" d="M5,58c2.757,0,5-2.243,5-5c0-2.757-2.243-5-5-5c-2.757,0-5,2.243-5,5C0,55.757,2.243,58,5,58z M5,50
		c1.654,0,3,1.346,3,3s-1.346,3-3,3s-3-1.346-3-3S3.346,50,5,50z"/>
</g>
</svg>
