<?xml version="1.0" encoding="utf-8"?>
<!-- Generator: Adobe Illustrator 17.0.0, SVG Export Plug-In . SVG Version: 6.00 Build 0)  -->
<!DOCTYPE svg PUBLIC "-//W3C//DTD SVG 1.1//EN" "http://www.w3.org/Graphics/SVG/1.1/DTD/svg11.dtd">
<svg version="1.1" id="Layer_1" xmlns="http://www.w3.org/2000/svg" xmlns:xlink="http://www.w3.org/1999/xlink" x="0px" y="0px"
	 width="60px" height="60px" viewBox="0 0 60 60" enable-background="new 0 0 60 60" xml:space="preserve">
<g>
	<path fill="#231F20" d="M52,0.475c-0.309,0-0.6,0.143-0.79,0.386l-28,36c-0.111,0.143-0.161,0.308-0.185,0.475
		c-1.024-0.344-2.125-0.526-3.273-0.526c-3.369,0-6.638,1.577-8.531,4.115c-0.898,1.204-1.39,2.769-1.91,4.425
		c-1.2,3.821-2.353,7.429-8.262,7.126c-0.403-0.006-0.796,0.216-0.963,0.594c-0.167,0.378-0.085,0.82,0.207,1.112
		c3.496,3.496,7.815,5.344,12.491,5.344c7.263,0,14.485-4.622,16.443-10.523c0.795-2.397,0.593-4.747-0.522-6.827
		c0.007-0.007,0.016-0.009,0.023-0.016l31-33C59.903,8.974,60,8.729,60,8.475C60,3.791,59.426,0.475,52,0.475z M27.329,48.373
		c-1.674,5.046-8.199,9.152-14.545,9.152c-3.357,0-6.514-1.085-9.248-3.159c5.283-0.776,6.603-4.977,7.683-8.417
		c0.468-1.49,0.91-2.897,1.606-3.829c1.523-2.042,4.178-3.31,6.928-3.31c1.756,0,3.363,0.507,4.65,1.467
		C28.122,43.05,28.047,46.21,27.329,48.373z M27.549,40.494c-0.551-0.648-1.198-1.259-1.951-1.821
		c-0.271-0.202-0.555-0.382-0.846-0.552c0.011-0.013,0.027-0.019,0.038-0.033l1.929-2.481l2.574,2.574
		c0.078,0.078,0.17,0.128,0.264,0.175L27.549,40.494z M30.849,36.981c-0.043-0.074-0.079-0.151-0.142-0.214l-2.751-2.751
		L52.485,2.479c5.325,0.104,5.508,1.975,5.515,5.6L30.849,36.981z"/>
</g>
</svg>
