<?xml version="1.0" encoding="utf-8"?>
<!-- Generator: Adobe Illustrator 17.0.0, SVG Export Plug-In . SVG Version: 6.00 Build 0)  -->
<!DOCTYPE svg PUBLIC "-//W3C//DTD SVG 1.1//EN" "http://www.w3.org/Graphics/SVG/1.1/DTD/svg11.dtd">
<svg version="1.1" id="Layer_1" xmlns="http://www.w3.org/2000/svg" xmlns:xlink="http://www.w3.org/1999/xlink" x="0px" y="0px"
	 width="60px" height="60px" viewBox="0 0 60 60" enable-background="new 0 0 60 60" xml:space="preserve">
<g>
	<path fill="#010101" d="M42,59v-5h5c0.553,0,1-0.448,1-1v-8c0-0.552-0.447-1-1-1h-5V17.449L59.664,1.748
		c0.413-0.367,0.45-0.999,0.083-1.412c-0.367-0.413-0.999-0.449-1.411-0.083L40.62,16H14v-5c0-0.552-0.447-1-1-1H5
		c-0.553,0-1,0.448-1,1v5H1c-0.553,0-1,0.448-1,1v8c0,0.552,0.447,1,1,1h3v27c0,0.552,0.447,1,1,1h27v5c0,0.552,0.447,1,1,1h8
		C41.553,60,42,59.552,42,59z M12,12v4H6v-4H12z M2,24v-6h2.782H5h8h27v26h-6V25c0-0.13-0.026-0.26-0.077-0.382
		c-0.101-0.245-0.296-0.439-0.541-0.541C33.26,24.027,33.13,24,33,24H13H5H2z M14,26h16.586L14,42.586V26z M32,27.414V44H15.414
		L32,27.414z M6,52V26h6v19c0,0.13,0.026,0.26,0.077,0.382c0.101,0.245,0.296,0.439,0.541,0.541C12.74,45.973,12.87,46,13,46h20h8h5
		v6h-5h-8H6z M34,58v-4h6v4H34z"/>
</g>
</svg>
