<?xml version="1.0" encoding="utf-8"?>
<!-- Generator: Adobe Illustrator 17.0.0, SVG Export Plug-In . SVG Version: 6.00 Build 0)  -->
<!DOCTYPE svg PUBLIC "-//W3C//DTD SVG 1.1//EN" "http://www.w3.org/Graphics/SVG/1.1/DTD/svg11.dtd">
<svg version="1.1" id="Layer_1" xmlns="http://www.w3.org/2000/svg" xmlns:xlink="http://www.w3.org/1999/xlink" x="0px" y="0px"
	 width="60px" height="60px" viewBox="0 0 60 60" enable-background="new 0 0 60 60" xml:space="preserve">
<g>
	<path fill="#231F20" d="M44,20h-4v-9c0-6.065-4.486-11-10-11c-5.514,0-10,4.935-10,11v9h-4c-0.553,0-1,0.448-1,1s0.447,1,1,1h4v22
		c0,5.05,2.28,9.071,6,10.685V59c0,0.552,0.447,1,1,1h6c0.553,0,1-0.448,1-1v-4.315c3.72-1.614,6-5.635,6-10.685V22h4
		c0.553,0,1-0.448,1-1S44.553,20,44,20z M22,11c0-4.962,3.589-9,8-9c4.411,0,8,4.038,8,9v9H22V11z M38,44
		c0,4.467-2.039,7.935-5.322,9.053C32.272,53.191,32,53.572,32,54v4h-4v-4c0-0.428-0.273-0.809-0.678-0.947
		C24.039,51.935,22,48.467,22,44v-6h4c0.553,0,1-0.448,1-1s-0.447-1-1-1h-4v-2h4c0.553,0,1-0.448,1-1s-0.447-1-1-1h-4v-2h4
		c0.553,0,1-0.448,1-1s-0.447-1-1-1h-4v-6h16V44z"/>
</g>
</svg>
