<?xml version="1.0" encoding="utf-8"?>
<!-- Generator: Adobe Illustrator 17.0.0, SVG Export Plug-In . SVG Version: 6.00 Build 0)  -->
<!DOCTYPE svg PUBLIC "-//W3C//DTD SVG 1.1//EN" "http://www.w3.org/Graphics/SVG/1.1/DTD/svg11.dtd">
<svg version="1.1" id="Layer_1" xmlns="http://www.w3.org/2000/svg" xmlns:xlink="http://www.w3.org/1999/xlink" x="0px" y="0px"
	 width="60px" height="60px" viewBox="0 0 60 60" enable-background="new 0 0 60 60" xml:space="preserve">
<g>
	<path fill="#231F20" d="M40,22h-4v-8c0-4.056-2.944-7-7-7c-4.056,0-7,2.944-7,7v8h-4c-0.553,0-1,0.448-1,1s0.447,1,1,1h4v18
		c0,2.451,1.31,4.299,4,5.637V53c0,0.552,0.447,1,1,1h4c0.553,0,1-0.448,1-1v-5.363c2.69-1.337,4-3.186,4-5.637V24h4
		c0.553,0,1-0.448,1-1S40.553,22,40,22z M24,14c0-2.944,2.056-5,5-5c2.944,0,5,2.056,5,5v8H24V14z M34,42
		c0,1.794-1.049,3.054-3.401,4.084C30.235,46.243,30,46.603,30,47v5h-2v-5c0-0.397-0.235-0.757-0.599-0.916
		C25.049,45.054,24,43.794,24,42V24h10V42z"/>
</g>
</svg>
