<?xml version="1.0" encoding="utf-8"?>
<!-- Generator: Adobe Illustrator 17.0.0, SVG Export Plug-In . SVG Version: 6.00 Build 0)  -->
<!DOCTYPE svg PUBLIC "-//W3C//DTD SVG 1.1//EN" "http://www.w3.org/Graphics/SVG/1.1/DTD/svg11.dtd">
<svg version="1.1" id="Layer_1" xmlns="http://www.w3.org/2000/svg" xmlns:xlink="http://www.w3.org/1999/xlink" x="0px" y="0px"
	 width="60px" height="60px" viewBox="0 0 60 60" enable-background="new 0 0 60 60" xml:space="preserve">
<g>
	<path fill="#231F20" d="M33.38,25.445L0.598,58.227c-0.391,0.391-0.391,1.023,0,1.414c0.195,0.195,0.451,0.293,0.707,0.293
		c0.256,0,0.512-0.098,0.707-0.293l32.782-32.782c0.391-0.391,0.391-1.023,0-1.414C34.403,25.055,33.771,25.055,33.38,25.445z"/>
	<path fill="#231F20" d="M59,16.065h-8c-0.553,0-1,0.448-1,1s0.447,1,1,1h8c0.553,0,1-0.448,1-1S59.553,16.065,59,16.065z"/>
	<path fill="#231F20" d="M48.293,11.773c0.195,0.195,0.451,0.293,0.707,0.293c0.256,0,0.512-0.098,0.707-0.293l6-6
		c0.391-0.391,0.391-1.023,0-1.414c-0.391-0.391-1.023-0.391-1.414,0l-6,6C47.902,10.749,47.902,11.382,48.293,11.773z"/>
	<path fill="#231F20" d="M43,0.065c-0.553,0-1,0.448-1,1v8c0,0.552,0.447,1,1,1c0.553,0,1-0.448,1-1v-8
		C44,0.513,43.553,0.065,43,0.065z"/>
	<path fill="#231F20" d="M31.707,4.358c-0.391-0.391-1.023-0.391-1.414,0c-0.391,0.391-0.391,1.023,0,1.414l6,6
		c0.195,0.195,0.451,0.293,0.707,0.293c0.256,0,0.512-0.098,0.707-0.293c0.391-0.391,0.391-1.023,0-1.414L31.707,4.358z"/>
	<path fill="#231F20" d="M35,16.065h-8c-0.553,0-1,0.448-1,1s0.447,1,1,1h8c0.553,0,1-0.448,1-1S35.553,16.065,35,16.065z"/>
	<path fill="#231F20" d="M43,25.065c-0.553,0-1,0.448-1,1v8c0,0.552,0.447,1,1,1c0.553,0,1-0.448,1-1v-8
		C44,25.513,43.553,25.065,43,25.065z"/>
	<path fill="#231F20" d="M49.707,22.358c-0.391-0.391-1.023-0.391-1.414,0c-0.391,0.391-0.391,1.023,0,1.414l6,6
		c0.195,0.195,0.451,0.293,0.707,0.293c0.256,0,0.512-0.098,0.707-0.293c0.391-0.391,0.391-1.023,0-1.414L49.707,22.358z"/>
</g>
</svg>
