<?xml version="1.0" encoding="utf-8"?>
<!-- Generator: Adobe Illustrator 17.0.0, SVG Export Plug-In . SVG Version: 6.00 Build 0)  -->
<!DOCTYPE svg PUBLIC "-//W3C//DTD SVG 1.1//EN" "http://www.w3.org/Graphics/SVG/1.1/DTD/svg11.dtd">
<svg version="1.1" id="Layer_1" xmlns="http://www.w3.org/2000/svg" xmlns:xlink="http://www.w3.org/1999/xlink" x="0px" y="0px"
	 width="60px" height="60px" viewBox="0 0 60 60" enable-background="new 0 0 60 60" xml:space="preserve">
<g>
	<path fill="#231F20" d="M49.018,16.815l4.756-10.464c0.148-0.322,0.078-0.702-0.173-0.953c-0.249-0.251-0.632-0.319-0.952-0.173
		L42.185,9.982l-6.584-6.583c-0.265-0.265-0.671-0.324-1.002-0.148c-0.33,0.177-0.506,0.549-0.432,0.916l1.863,9.317l-11.357,4.732
		c-0.352,0.147-0.562,0.509-0.517,0.887c0.046,0.379,0.338,0.68,0.715,0.738l11.158,1.716L2.293,55.293
		c-0.391,0.391-0.391,1.023,0,1.414C2.488,56.902,2.744,57,3,57c0.256,0,0.512-0.098,0.707-0.293l33.736-33.736l1.717,11.159
		c0.057,0.372,0.352,0.661,0.724,0.712c0.039,0.006,0.078,0.008,0.116,0.008c0.33,0,0.635-0.192,0.773-0.498l4.748-10.445
		l9.393,0.94c0.033,0.003,0.073,0.006,0.096,0.004c0.469,0.008,0.86-0.378,0.859-0.85c0-0.291-0.146-0.547-0.368-0.701
		L49.018,16.815z M45.085,22.154c-0.381-0.033-0.708,0.164-0.858,0.494l-3.82,8.403L38.84,20.871
		c-0.056-0.367-0.344-0.654-0.711-0.711l-10.008-1.54l9.206-3.835c0.374-0.156,0.586-0.554,0.506-0.951l-1.449-7.248l5.016,5.015
		c0.25,0.251,0.633,0.319,0.952,0.173l8.937-4.062l-4.062,8.936c-0.147,0.322-0.078,0.702,0.173,0.953l5.315,5.316L45.085,22.154z"
		/>
</g>
</svg>
