<?xml version="1.0" encoding="utf-8"?>
<!-- Generator: Adobe Illustrator 17.0.0, SVG Export Plug-In . SVG Version: 6.00 Build 0)  -->
<!DOCTYPE svg PUBLIC "-//W3C//DTD SVG 1.1//EN" "http://www.w3.org/Graphics/SVG/1.1/DTD/svg11.dtd">
<svg version="1.1" id="Layer_1" xmlns="http://www.w3.org/2000/svg" xmlns:xlink="http://www.w3.org/1999/xlink" x="0px" y="0px"
	 width="60px" height="60px" viewBox="0 0 60 60" enable-background="new 0 0 60 60" xml:space="preserve">
<g>
	<path fill="#231F20" d="M18.293,53.707C18.48,53.895,18.734,54,19,54c0.266,0,0.519-0.105,0.707-0.293
		c1.941-1.942,3.527-2.846,4.991-2.846c1.177,0,2.353,0.604,3.595,1.846c0.391,0.391,1.023,0.391,1.414,0l3-3
		c0.013-0.013,0.017-0.031,0.029-0.044c0.011-0.012,0.026-0.016,0.036-0.028l27-32.87c0.327-0.397,0.299-0.978-0.065-1.342
		L44.576,0.293c-0.372-0.373-0.97-0.391-1.367-0.044l-31.869,28c-0.009,0.008-0.012,0.019-0.021,0.027
		c-0.008,0.007-0.018,0.01-0.026,0.017l-3,3C8.105,31.481,8,31.735,8,32s0.105,0.52,0.293,0.707
		c1.422,1.422,2.013,2.777,1.804,4.142c-0.198,1.303-1.115,2.756-2.804,4.444C7.105,41.481,7,41.735,7,42s0.105,0.52,0.293,0.707
		L9.586,45l-9.293,9.293c-0.286,0.286-0.372,0.716-0.217,1.09C0.23,55.756,0.596,56,1,56h10c0.266,0,0.519-0.105,0.707-0.293
		L16,51.414L18.293,53.707z M10.586,54H3.414L11,46.414L14.586,50L10.586,54z M43.825,2.37l13.826,13.826L31.927,47.513
		L13.461,29.047L43.825,2.37z M12.074,37.151c0.271-1.776-0.282-3.459-1.688-5.123L12,30.414L30.586,49l-1.614,1.614
		c-1.394-1.178-2.799-1.754-4.273-1.754c-1.817,0-3.641,0.875-5.683,2.74l-9.616-9.616C10.981,40.254,11.837,38.702,12.074,37.151z"
		/>
	<path fill="#231F20" d="M59,58H16c-0.553,0-1,0.448-1,1s0.447,1,1,1h43c0.553,0,1-0.448,1-1S59.553,58,59,58z"/>
</g>
</svg>
