<?xml version="1.0" encoding="utf-8"?>
<!-- Generator: Adobe Illustrator 17.0.0, SVG Export Plug-In . SVG Version: 6.00 Build 0)  -->
<!DOCTYPE svg PUBLIC "-//W3C//DTD SVG 1.1//EN" "http://www.w3.org/Graphics/SVG/1.1/DTD/svg11.dtd">
<svg version="1.1" id="Layer_1" xmlns="http://www.w3.org/2000/svg" xmlns:xlink="http://www.w3.org/1999/xlink" x="0px" y="0px"
	 width="60px" height="60px" viewBox="0 0 60 60" enable-background="new 0 0 60 60" xml:space="preserve">
<g>
	<path fill="#231F20" d="M24.008,59.426C24.173,59.776,24.526,60,24.913,60h8c0.386,0,0.737-0.222,0.903-0.57l15-31.521
		c0.145-0.304,0.127-0.661-0.048-0.948l-9.713-16.007l4.753-9.506c0.155-0.31,0.138-0.678-0.044-0.973C43.581,0.18,43.26,0,42.913,0
		h-29c-0.36,0-0.693,0.194-0.87,0.507c-0.178,0.313-0.173,0.698,0.013,1.007l5.692,9.487l-9.52,15.965
		c-0.17,0.286-0.188,0.637-0.046,0.938L24.008,59.426z M28.913,30c-2.206,0-4-1.794-4-4c0-2.206,1.794-4,4-4c2.206,0,4,1.794,4,4
		C32.913,28.206,31.119,30,28.913,30z M41.295,2l-4,8H20.479l-4.8-8H41.295z M20.481,12H37.35l9.428,15.536L32.282,58h-2.369V31.91
		c2.833-0.478,5-2.942,5-5.91c0-3.309-2.691-6-6-6s-6,2.691-6,6c0,2.967,2.167,5.431,5,5.91V58h-2.365l-14.33-30.466L20.481,12z"/>
</g>
</svg>
