<?xml version="1.0" encoding="utf-8"?>
<!-- Generator: Adobe Illustrator 17.0.0, SVG Export Plug-In . SVG Version: 6.00 Build 0)  -->
<!DOCTYPE svg PUBLIC "-//W3C//DTD SVG 1.1//EN" "http://www.w3.org/Graphics/SVG/1.1/DTD/svg11.dtd">
<svg version="1.1" id="Layer_1" xmlns="http://www.w3.org/2000/svg" xmlns:xlink="http://www.w3.org/1999/xlink" x="0px" y="0px"
	 width="60px" height="60px" viewBox="0 0 60 60" enable-background="new 0 0 60 60" xml:space="preserve">
<g>
	<path fill="#231F20" d="M28,60h2c0.356,0,0.685-0.189,0.864-0.497C31.4,58.582,44,36.868,44,30c0-6.516-4.184-12.059-10-14.125V12
		h1c0.441,0,0.831-0.29,0.958-0.713l3-10c0.091-0.303,0.033-0.63-0.156-0.884C38.614,0.149,38.316,0,38,0H20
		c-0.316,0-0.614,0.149-0.802,0.403c-0.189,0.254-0.247,0.582-0.156,0.884l3,10C22.169,11.71,22.559,12,23,12h1v3.875
		C18.184,17.941,14,23.484,14,30c0,7.85,12.609,28.639,13.146,29.52C27.328,59.818,27.651,60,28,60z M29,35c-1.654,0-3-1.346-3-3
		s1.346-3,3-3s3,1.346,3,3S30.654,35,29,35z M21.344,2h15.312l-2.4,8H23.744L21.344,2z M26,12h6v3.302C31.03,15.105,30.027,15,29,15
		s-2.03,0.105-3,0.302V12z M29,17c7.169,0,13,5.831,13,13c0,4.874-7.987,19.933-12,26.993V36.899c2.279-0.465,4-2.485,4-4.899
		c0-2.757-2.243-5-5-5c-2.757,0-5,2.243-5,5c0,2.414,1.721,4.434,4,4.899v20.147C25.133,52.177,16,36.18,16,30
		C16,22.831,21.831,17,29,17z"/>
</g>
</svg>
