<?xml version="1.0" encoding="utf-8"?>
<!-- Generator: Adobe Illustrator 17.0.0, SVG Export Plug-In . SVG Version: 6.00 Build 0)  -->
<!DOCTYPE svg PUBLIC "-//W3C//DTD SVG 1.1//EN" "http://www.w3.org/Graphics/SVG/1.1/DTD/svg11.dtd">
<svg version="1.1" id="Layer_1" xmlns="http://www.w3.org/2000/svg" xmlns:xlink="http://www.w3.org/1999/xlink" x="0px" y="0px"
	 width="60px" height="60px" viewBox="0 0 60 60" enable-background="new 0 0 60 60" xml:space="preserve">
<g>
	<path fill="#231F20" d="M59.498,1.488c-0.001-0.113-0.025-0.222-0.064-0.327c-0.009-0.025-0.02-0.048-0.031-0.072
		c-0.048-0.105-0.107-0.205-0.19-0.29c-0.001-0.001-0.003-0.002-0.004-0.003c-0.001-0.001-0.001-0.002-0.002-0.002
		c-0.003-0.003-0.006-0.003-0.009-0.006c-0.083-0.082-0.181-0.142-0.285-0.19c-0.023-0.011-0.045-0.022-0.068-0.03
		c-0.105-0.039-0.215-0.062-0.327-0.064c-0.02,0-0.038,0.004-0.058,0.005c-0.054,0.002-0.107,0.002-0.161,0.013
		c-0.115,0.023-11.589,2.41-22.2,7.063C35.734,7.744,35.5,8.103,35.5,8.5c0,2.717-1.653,5.477-3,7.275V10.5
		c0-0.343-0.176-0.662-0.466-0.845c-0.29-0.184-0.653-0.205-0.964-0.058c-4.17,1.982-6.857,3.777-9.277,6.196
		c-6.926,6.925-9.189,13.272-9.866,17.377c-0.746,4.516,0.07,8.645,2.164,11.325L0.793,57.793c-0.391,0.391-0.391,1.023,0,1.414
		C0.988,59.402,1.244,59.5,1.5,59.5c0.256,0,0.512-0.098,0.707-0.293L15.48,45.934c1.747,1.411,4.017,2.153,6.625,2.153
		c5.36,0,11.689-3.149,18.023-8.906c0.01-0.009,0.023-0.012,0.032-0.021c0.006-0.006,0.008-0.014,0.013-0.02
		c0.678-0.618,1.356-1.256,2.033-1.933C54.093,25.32,59.262,2.676,59.476,1.718c0.014-0.061,0.015-0.122,0.017-0.182
		C59.494,1.52,59.498,1.504,59.498,1.488z M13.9,33.496c0.63-3.816,2.756-9.739,9.307-16.289c1.991-1.99,4.113-3.485,7.293-5.102
		V18.5c0,0.404,0.243,0.768,0.615,0.923c0.372,0.155,0.802,0.072,1.089-0.213c0.207-0.205,4.885-4.899,5.271-10.043
		c6.774-2.91,13.807-4.881,17.837-5.892L15.508,43.078C13.867,40.834,13.263,37.352,13.9,33.496z M39.48,37.066l-5.273-5.273
		c-0.391-0.391-1.023-0.391-1.414,0c-0.391,0.391-0.391,1.023,0,1.414l5.202,5.202c-5.683,4.971-11.239,7.678-15.889,7.678
		c-2.054,0-3.826-0.548-5.195-1.583L56.6,4.814c-1.791,6.32-6.231,19.731-13.705,28.666l-4.688-4.688
		c-0.391-0.391-1.023-0.391-1.414,0c-0.391,0.391-0.391,1.023,0,1.414l4.777,4.777c-0.256,0.274-0.514,0.546-0.777,0.809
		C40.355,36.231,39.917,36.654,39.48,37.066z"/>
</g>
</svg>
