<?xml version="1.0" encoding="utf-8"?>
<!-- Generator: Adobe Illustrator 17.0.0, SVG Export Plug-In . SVG Version: 6.00 Build 0)  -->
<!DOCTYPE svg PUBLIC "-//W3C//DTD SVG 1.1//EN" "http://www.w3.org/Graphics/SVG/1.1/DTD/svg11.dtd">
<svg version="1.1" id="Layer_1" xmlns="http://www.w3.org/2000/svg" xmlns:xlink="http://www.w3.org/1999/xlink" x="0px" y="0px"
	 width="60px" height="60px" viewBox="0 0 60 60" enable-background="new 0 0 60 60" xml:space="preserve">
<g>
	<path fill="#010101" d="M29,20c-0.552,0-1,0.448-1,1v38c0,0.552,0.448,1,1,1s1-0.448,1-1V21C30,20.448,29.552,20,29,20z"/>
	<path fill="#010101" d="M1.707,20.293c-0.287-0.286-0.716-0.373-1.09-0.217C0.244,20.231,0,20.596,0,21v36
		c0,0.404,0.244,0.769,0.617,0.924C0.741,57.975,0.871,58,1,58c0.26,0,0.516-0.102,0.707-0.293l18-18
		c0.391-0.391,0.391-1.023,0-1.414L1.707,20.293z M2,54.586V23.414L17.586,39L2,54.586z"/>
	<path fill="#010101" d="M57.383,20.076c-0.375-0.156-0.804-0.069-1.09,0.217l-18,18c-0.391,0.391-0.391,1.023,0,1.414l18,18
		C56.484,57.898,56.74,58,57,58c0.129,0,0.259-0.025,0.383-0.076C57.756,57.769,58,57.404,58,57V21
		C58,20.596,57.756,20.231,57.383,20.076z M56,54.586L40.414,39L56,23.414V54.586z"/>
	<path fill="#010101" d="M43.13,17.13c0.078,0,0.155-0.009,0.232-0.027c0.262-0.062,0.488-0.228,0.626-0.459l4.87-8.13
		c0.284-0.474,0.13-1.088-0.344-1.372c-0.472-0.283-1.087-0.13-1.372,0.344l-3.399,5.674C42.437,5.591,35.999,0,28,0
		c-8.972,0-16,7.028-16,16c0,0.552,0.448,1,1,1s1-0.448,1-1c0-7.851,6.149-14,14-14c7.221,0,12.99,5.208,13.87,12.153l-6.336-3.998
		c-0.465-0.294-1.085-0.155-1.379,0.312c-0.295,0.467-0.155,1.085,0.312,1.379l8.13,5.13C42.758,17.078,42.943,17.13,43.13,17.13z"
		/>
</g>
</svg>
