<?xml version="1.0" encoding="utf-8"?>
<!-- Generator: Adobe Illustrator 17.0.0, SVG Export Plug-In . SVG Version: 6.00 Build 0)  -->
<!DOCTYPE svg PUBLIC "-//W3C//DTD SVG 1.1//EN" "http://www.w3.org/Graphics/SVG/1.1/DTD/svg11.dtd">
<svg version="1.1" id="Layer_1" xmlns="http://www.w3.org/2000/svg" xmlns:xlink="http://www.w3.org/1999/xlink" x="0px" y="0px"
	 width="60px" height="60px" viewBox="0 0 60 60" enable-background="new 0 0 60 60" xml:space="preserve">
<g>
	<path fill="#010101" d="M59,0H9C8.448,0,8,0.448,8,1v33c-0.552,0-1,0.448-1,1c0,0.552,0.448,1,1,1h2c0.552,0,1-0.448,1-1
		c0-0.552-0.448-1-1-1V2h48v48H26c0-0.552-0.448-1-1-1s-1,0.448-1,1v2c0,0.552,0.448,1,1,1s1-0.448,1-1h33c0.552,0,1-0.448,1-1V1
		C60,0.448,59.552,0,59,0z"/>
	<path fill="#010101" d="M31,15c-0.552,0-1,0.448-1,1v13c0,0.552,0.448,1,1,1h13c0.552,0,1-0.448,1-1c0-0.552-0.448-1-1-1H33.414
		L52.142,9.273c0.391-0.391,0.391-1.023,0-1.414c-0.391-0.391-1.023-0.391-1.414,0L32,26.586V16C32,15.448,31.552,15,31,15z"/>
	<path fill="#010101" d="M1,45c0.552,0,1-0.448,1-1v-2c0-0.552-0.448-1-1-1s-1,0.448-1,1v2C0,44.552,0.448,45,1,45z"/>
	<path fill="#010101" d="M18,34h-2c-0.552,0-1,0.448-1,1c0,0.552,0.448,1,1,1h2c0.552,0,1-0.448,1-1C19,34.448,18.552,34,18,34z"/>
	<path fill="#010101" d="M1,53c0.552,0,1-0.448,1-1v-2c0-0.552-0.448-1-1-1s-1,0.448-1,1v2C0,52.552,0.448,53,1,53z"/>
	<path fill="#010101" d="M26,35c0-0.552-0.448-1-1-1h-3c-0.552,0-1,0.448-1,1c0,0.552,0.448,1,1,1h2v2c0,0.552,0.448,1,1,1
		s1-0.448,1-1V35z"/>
	<path fill="#010101" d="M18,58h-2c-0.552,0-1,0.448-1,1c0,0.552,0.448,1,1,1h2c0.552,0,1-0.448,1-1C19,58.448,18.552,58,18,58z"/>
	<path fill="#010101" d="M10,58H8c-0.552,0-1,0.448-1,1c0,0.552,0.448,1,1,1h2c0.552,0,1-0.448,1-1C11,58.448,10.552,58,10,58z"/>
	<path fill="#010101" d="M4,34H1c-0.552,0-1,0.448-1,1v3c0,0.552,0.448,1,1,1s1-0.448,1-1v-2h2c0.552,0,1-0.448,1-1
		C5,34.448,4.552,34,4,34z"/>
	<path fill="#010101" d="M25,55c-0.552,0-1,0.448-1,1v2h-2c-0.552,0-1,0.448-1,1c0,0.552,0.448,1,1,1h3c0.552,0,1-0.448,1-1v-3
		C26,55.448,25.552,55,25,55z"/>
	<path fill="#010101" d="M4,58H2v-2c0-0.552-0.448-1-1-1s-1,0.448-1,1v3c0,0.552,0.448,1,1,1h3c0.552,0,1-0.448,1-1
		C5,58.448,4.552,58,4,58z"/>
	<path fill="#010101" d="M25,41c-0.552,0-1,0.448-1,1v2c0,0.552,0.448,1,1,1s1-0.448,1-1v-2C26,41.448,25.552,41,25,41z"/>
</g>
</svg>
