<?xml version="1.0" encoding="utf-8"?>
<!-- Generator: Adobe Illustrator 17.0.0, SVG Export Plug-In . SVG Version: 6.00 Build 0)  -->
<!DOCTYPE svg PUBLIC "-//W3C//DTD SVG 1.1//EN" "http://www.w3.org/Graphics/SVG/1.1/DTD/svg11.dtd">
<svg version="1.1" id="Layer_1" xmlns="http://www.w3.org/2000/svg" xmlns:xlink="http://www.w3.org/1999/xlink" x="0px" y="0px"
	 width="60px" height="60px" viewBox="0 0 60 60" enable-background="new 0 0 60 60" xml:space="preserve">
<g>
	<path fill="#010101" d="M31,17c-0.553,0-1,0.448-1,1v23c0,0.552,0.447,1,1,1c0.553,0,1-0.448,1-1V18C32,17.448,31.553,17,31,17z"/>
	<path fill="#010101" d="M22,28H3.661l5.997-5.248c0.416-0.364,0.458-0.995,0.095-1.411c-0.365-0.416-0.997-0.457-1.411-0.094l-8,7
		c-0.008,0.007-0.011,0.017-0.018,0.025c-0.073,0.068-0.127,0.151-0.177,0.237c-0.018,0.031-0.046,0.056-0.06,0.089
		C0.032,28.722,0,28.857,0,29c0,0.143,0.032,0.278,0.087,0.401c0.015,0.033,0.042,0.058,0.06,0.089
		c0.05,0.087,0.104,0.169,0.177,0.237c0.008,0.007,0.01,0.018,0.018,0.025l8,7C8.531,36.919,8.766,37,9,37
		c0.278,0,0.555-0.116,0.753-0.341c0.363-0.416,0.321-1.047-0.095-1.411L3.661,30H22c0.553,0,1-0.448,1-1C23,28.448,22.553,28,22,28
		z"/>
	<path fill="#010101" d="M60,29c0-0.143-0.032-0.278-0.087-0.401c-0.015-0.033-0.042-0.058-0.06-0.089
		c-0.05-0.087-0.104-0.169-0.177-0.237c-0.008-0.007-0.01-0.018-0.018-0.025l-8-7c-0.415-0.363-1.046-0.322-1.411,0.094
		c-0.363,0.416-0.321,1.047,0.095,1.411L56.339,28H40c-0.553,0-1,0.448-1,1c0,0.552,0.447,1,1,1h16.339l-5.997,5.248
		c-0.416,0.364-0.458,0.995-0.095,1.411C50.445,36.884,50.722,37,51,37c0.234,0,0.469-0.081,0.658-0.248l8-7
		c0.008-0.007,0.011-0.018,0.018-0.025c0.073-0.068,0.126-0.15,0.177-0.237c0.018-0.031,0.046-0.056,0.06-0.089
		C59.968,29.278,60,29.143,60,29z"/>
</g>
</svg>
