<?xml version="1.0" encoding="utf-8"?>
<!-- Generator: Adobe Illustrator 17.0.0, SVG Export Plug-In . SVG Version: 6.00 Build 0)  -->
<!DOCTYPE svg PUBLIC "-//W3C//DTD SVG 1.1//EN" "http://www.w3.org/Graphics/SVG/1.1/DTD/svg11.dtd">
<svg version="1.1" id="Layer_1" xmlns="http://www.w3.org/2000/svg" xmlns:xlink="http://www.w3.org/1999/xlink" x="0px" y="0px"
	 width="60px" height="60px" viewBox="0 0 60 60" enable-background="new 0 0 60 60" xml:space="preserve">
<g>
	<path fill="#010101" d="M38.707,20.293c-0.391-0.391-1.023-0.391-1.414,0l-17,17c-0.391,0.391-0.391,1.023,0,1.414
		C20.488,38.902,20.744,39,21,39s0.512-0.098,0.707-0.293l17-17C39.098,21.316,39.098,20.684,38.707,20.293z"/>
	<path fill="#010101" d="M60,59V49c0-0.552-0.448-1-1-1s-1,0.448-1,1v7.586L38.707,37.293c-0.391-0.391-1.023-0.391-1.414,0
		c-0.391,0.391-0.391,1.023,0,1.414L56.586,58H49c-0.552,0-1,0.448-1,1c0,0.552,0.448,1,1,1h10c0.13,0,0.26-0.027,0.382-0.077
		c0.245-0.101,0.439-0.296,0.541-0.541C59.973,59.26,60,59.13,60,59z"/>
	<path fill="#010101" d="M20.293,21.707C20.488,21.902,20.744,22,21,22s0.512-0.098,0.707-0.293c0.391-0.391,0.391-1.023,0-1.414
		L3.414,2H11c0.552,0,1-0.448,1-1c0-0.552-0.448-1-1-1H1C0.87,0,0.74,0.027,0.618,0.077C0.373,0.179,0.179,0.373,0.077,0.618
		C0.027,0.74,0,0.87,0,1v10c0,0.552,0.448,1,1,1s1-0.448,1-1V3.414L20.293,21.707z"/>
</g>
</svg>
