<?xml version="1.0" encoding="utf-8"?>
<!-- Generator: Adobe Illustrator 17.0.0, SVG Export Plug-In . SVG Version: 6.00 Build 0)  -->
<!DOCTYPE svg PUBLIC "-//W3C//DTD SVG 1.1//EN" "http://www.w3.org/Graphics/SVG/1.1/DTD/svg11.dtd">
<svg version="1.1" id="Layer_1" xmlns="http://www.w3.org/2000/svg" xmlns:xlink="http://www.w3.org/1999/xlink" x="0px" y="0px"
	 width="60px" height="60px" viewBox="0 0 60 60" enable-background="new 0 0 60 60" xml:space="preserve">
<g>
	<path fill="#010101" d="M22.707,20.293c-0.391-0.391-1.023-0.391-1.414,0c-0.391,0.391-0.391,1.023,0,1.414l17,17
		C38.488,38.902,38.744,39,39,39c0.256,0,0.512-0.098,0.707-0.293c0.391-0.391,0.391-1.023,0-1.414L22.707,20.293z"/>
	<path fill="#010101" d="M22.293,36.293L2,56.586V49c0-0.552-0.447-1-1-1c-0.553,0-1,0.448-1,1v10c0,0.13,0.026,0.26,0.077,0.382
		c0.101,0.245,0.296,0.439,0.541,0.541C0.74,59.973,0.87,60,1,60h10c0.553,0,1-0.448,1-1c0-0.552-0.447-1-1-1H3.414l20.293-20.293
		c0.391-0.391,0.391-1.023,0-1.414C23.316,35.902,22.684,35.902,22.293,36.293z"/>
	<path fill="#010101" d="M59.923,0.618c-0.101-0.245-0.296-0.439-0.541-0.541C59.26,0.027,59.13,0,59,0H49c-0.553,0-1,0.448-1,1
		c0,0.552,0.447,1,1,1h7.586L38.293,20.293c-0.391,0.391-0.391,1.023,0,1.414C38.488,21.902,38.744,22,39,22
		c0.256,0,0.512-0.098,0.707-0.293L58,3.414V11c0,0.552,0.447,1,1,1c0.553,0,1-0.448,1-1V1C60,0.87,59.974,0.74,59.923,0.618z"/>
</g>
</svg>
