<?xml version="1.0" encoding="utf-8"?>
<!-- Generator: Adobe Illustrator 17.0.0, SVG Export Plug-In . SVG Version: 6.00 Build 0)  -->
<!DOCTYPE svg PUBLIC "-//W3C//DTD SVG 1.1//EN" "http://www.w3.org/Graphics/SVG/1.1/DTD/svg11.dtd">
<svg version="1.1" id="Layer_1" xmlns="http://www.w3.org/2000/svg" xmlns:xlink="http://www.w3.org/1999/xlink" x="0px" y="0px"
	 width="60px" height="60px" viewBox="0 0 60 60" enable-background="new 0 0 60 60" xml:space="preserve">
<g>
	<path fill="#010101" d="M59,22H33h-3h-3h-1h-1c-0.553,0-1,0.448-1,1c0,0.242,0.097,0.456,0.24,0.629L2,52.096V52
		c0-0.552-0.447-1-1-1c-0.553,0-1,0.448-1,1v3c0,0.019,0.01,0.035,0.011,0.054c0.005,0.095,0.024,0.187,0.056,0.278
		c0.009,0.026,0.014,0.053,0.025,0.077c0.004,0.01,0.005,0.02,0.009,0.029c0.046,0.095,0.109,0.178,0.18,0.252
		c0.017,0.018,0.038,0.031,0.057,0.048c0.069,0.061,0.143,0.112,0.226,0.152c0.03,0.015,0.058,0.028,0.089,0.04
		C0.764,55.971,0.879,56,1,56h2.521H30h3h0.782c0.307,0,0.596-0.141,0.785-0.381l25.218-32c0.237-0.301,0.282-0.711,0.114-1.056
		C59.732,22.219,59.383,22,59,22z M34,53.108V52c0-0.552-0.447-1-1-1c-0.553,0-1,0.448-1,1v2h-2H3.521H3.05l23.438-30H27h3h2v2
		c0,0.552,0.447,1,1,1c0.553,0,1-0.448,1-1v-2h22.938L34,53.108z"/>
	<path fill="#010101" d="M12,9c0,0.552,0.447,1,1,1h30.586l-4.293,4.293c-0.391,0.391-0.391,1.023,0,1.414
		C39.488,15.902,39.744,16,40,16c0.256,0,0.512-0.098,0.707-0.293l5.999-5.999c0.093-0.092,0.166-0.203,0.217-0.326
		c0.101-0.244,0.101-0.52,0-0.764c-0.051-0.123-0.124-0.234-0.217-0.326l-5.999-5.999c-0.391-0.391-1.023-0.391-1.414,0
		c-0.391,0.391-0.391,1.023,0,1.414L43.586,8H13C12.447,8,12,8.448,12,9z"/>
	<path fill="#010101" d="M1,27c0.553,0,1-0.448,1-1v-2h2c0.553,0,1-0.448,1-1c0-0.552-0.447-1-1-1H1c-0.553,0-1,0.448-1,1v3
		C0,26.552,0.447,27,1,27z"/>
	<path fill="#010101" d="M33,30c-0.553,0-1,0.448-1,1v2c0,0.552,0.447,1,1,1c0.553,0,1-0.448,1-1v-2C34,30.448,33.553,30,33,30z"/>
	<path fill="#010101" d="M33,37c-0.553,0-1,0.448-1,1v2c0,0.552,0.447,1,1,1c0.553,0,1-0.448,1-1v-2C34,37.448,33.553,37,33,37z"/>
	<path fill="#010101" d="M33,44c-0.553,0-1,0.448-1,1v2c0,0.552,0.447,1,1,1c0.553,0,1-0.448,1-1v-2C34,44.448,33.553,44,33,44z"/>
	<path fill="#010101" d="M1,34c0.553,0,1-0.448,1-1v-2c0-0.552-0.447-1-1-1c-0.553,0-1,0.448-1,1v2C0,33.552,0.447,34,1,34z"/>
	<path fill="#010101" d="M1,41c0.553,0,1-0.448,1-1v-2c0-0.552-0.447-1-1-1c-0.553,0-1,0.448-1,1v2C0,40.552,0.447,41,1,41z"/>
	<path fill="#010101" d="M1,48c0.553,0,1-0.448,1-1v-2c0-0.552-0.447-1-1-1c-0.553,0-1,0.448-1,1v2C0,47.552,0.447,48,1,48z"/>
	<path fill="#010101" d="M9,22c-0.553,0-1,0.448-1,1c0,0.552,0.447,1,1,1h3c0.553,0,1-0.448,1-1c0-0.552-0.447-1-1-1H9z"/>
	<path fill="#010101" d="M17,22c-0.553,0-1,0.448-1,1c0,0.552,0.447,1,1,1h3c0.553,0,1-0.448,1-1c0-0.552-0.447-1-1-1H17z"/>
</g>
</svg>
