<?xml version="1.0" encoding="utf-8"?>
<!-- Generator: Adobe Illustrator 17.0.0, SVG Export Plug-In . SVG Version: 6.00 Build 0)  -->
<!DOCTYPE svg PUBLIC "-//W3C//DTD SVG 1.1//EN" "http://www.w3.org/Graphics/SVG/1.1/DTD/svg11.dtd">
<svg version="1.1" id="Layer_1" xmlns="http://www.w3.org/2000/svg" xmlns:xlink="http://www.w3.org/1999/xlink" x="0px" y="0px"
	 width="60px" height="60px" viewBox="0 0 60 60" enable-background="new 0 0 60 60" xml:space="preserve">
<g>
	<path fill="#231F20" d="M28.062,59V27c0-0.552-0.447-1-1-1h-2.28l-1.772-5.316C22.875,20.275,22.493,20,22.062,20h-4v-4h1
		c0.553,0,1-0.448,1-1v-4c0-0.552-0.447-1-1-1h-4c-0.553,0-1,0.448-1,1v4c0,0.552,0.447,1,1,1h1v4h-3
		c-0.431,0-0.812,0.275-0.948,0.684L10.342,26h-3.28c-0.553,0-1,0.448-1,1v32c0,0.552,0.447,1,1,1h20
		C27.615,60,28.062,59.552,28.062,59z M16.062,12h2v2h-2V12z M13.783,22h7.559l1.333,4H12.45L13.783,22z M26.062,58h-18V28h3h13
		h0.019h1.981V58z"/>
	<path fill="#231F20" d="M31.367,12c-0.553,0-1,0.448-1,1s0.447,1,1,1h7.564c0.553,0,1-0.448,1-1s-0.447-1-1-1H31.367z"/>
	<path fill="#231F20" d="M29.711,18.937l8,3C37.827,21.979,37.945,22,38.062,22c0.404,0,0.786-0.248,0.937-0.649
		c0.193-0.517-0.068-1.093-0.585-1.288l-8-3c-0.519-0.192-1.095,0.067-1.288,0.585C28.933,18.166,29.194,18.742,29.711,18.937z"/>
	<path fill="#231F20" d="M30.062,10c0.117,0,0.235-0.021,0.352-0.064l8-3c0.517-0.194,0.778-0.771,0.585-1.288
		c-0.194-0.518-0.771-0.776-1.288-0.585l-8,3c-0.517,0.194-0.778,0.771-0.585,1.288C29.276,9.752,29.658,10,30.062,10z"/>
	<path fill="#231F20" d="M50.18,6.583c0.165-1.449-0.221-2.865-1.126-4.067C47.868,0.94,45.97,0,43.976,0c-0.553,0-1,0.448-1,1
		s0.447,1,1,1c1.37,0,2.671,0.642,3.48,1.718c0.725,0.964,0.938,2.139,0.602,3.309c-0.077,0.269-0.039,0.558,0.107,0.796
		c0.146,0.239,0.384,0.406,0.658,0.461c2.536,0.509,4.24,2.648,4.24,5.324c0,2.867-1.609,4.904-4.201,5.316
		c-0.31,0.049-0.579,0.242-0.726,0.518c-0.147,0.277-0.156,0.608-0.023,0.892c0.487,1.045,0.449,2.063-0.112,2.943
		c-0.749,1.177-2.329,1.938-4.024,1.938c-0.553,0-1,0.448-1,1c0,0.552,0.447,1,1,1c2.398,0,4.587-1.097,5.712-2.863
		c0.722-1.134,0.935-2.426,0.634-3.727c2.916-0.945,4.741-3.587,4.741-7.018C55.062,10.3,53.138,7.588,50.18,6.583z"/>
</g>
</svg>
