<?xml version="1.0" encoding="utf-8"?>
<!-- Generator: Adobe Illustrator 17.0.0, SVG Export Plug-In . SVG Version: 6.00 Build 0)  -->
<!DOCTYPE svg PUBLIC "-//W3C//DTD SVG 1.1//EN" "http://www.w3.org/Graphics/SVG/1.1/DTD/svg11.dtd">
<svg version="1.1" id="Layer_1" xmlns="http://www.w3.org/2000/svg" xmlns:xlink="http://www.w3.org/1999/xlink" x="0px" y="0px"
	 width="60px" height="60px" viewBox="0 0 60 60" enable-background="new 0 0 60 60" xml:space="preserve">
<g>
	<path fill="#231F20" d="M54,40H41.306c-8.433-5.807-4.693-14.113-1.684-20.8C40.898,16.366,42,13.919,42,12
		c0-7.55-6.037-11.5-12-11.5S18,4.45,18,12c0,1.919,1.104,4.365,2.383,7.197c3.018,6.681,6.765,14.981-1.69,20.803H6
		c-3.252,0-6,2.888-6,6.307V55c0,0.552,0.448,1,1,1h1v3c0,0.552,0.448,1,1,1h54c0.552,0,1-0.448,1-1v-3h1c0.552,0,1-0.448,1-1
		v-8.693C60,42.888,57.252,40,54,40z M56,58H4v-2h52V58z M58,54H2v-7.693C2,43.973,3.831,42,6,42h13
		c0.197,0,0.389-0.058,0.553-0.167c10.19-6.77,5.654-16.813,2.653-23.459C21.072,15.862,20,13.489,20,12c0-6.527,5.184-9.5,10-9.5
		S40,5.473,40,12c0,1.489-1.069,3.865-2.201,6.379c-2.994,6.65-7.517,16.7,2.648,23.454C40.611,41.942,40.803,42,41,42h13
		c2.169,0,4,1.973,4,4.307V54z"/>
</g>
</svg>
