<?xml version="1.0" encoding="utf-8"?>
<!-- Generator: Adobe Illustrator 17.0.0, SVG Export Plug-In . SVG Version: 6.00 Build 0)  -->
<!DOCTYPE svg PUBLIC "-//W3C//DTD SVG 1.1//EN" "http://www.w3.org/Graphics/SVG/1.1/DTD/svg11.dtd">
<svg version="1.1" id="Layer_1" xmlns="http://www.w3.org/2000/svg" xmlns:xlink="http://www.w3.org/1999/xlink" x="0px" y="0px"
	 width="60px" height="60px" viewBox="0 0 60 60" enable-background="new 0 0 60 60" xml:space="preserve">
<g>
	<path fill="#010101" d="M6,48c3.309,0,6-2.691,6-6c0-1.549-0.595-2.958-1.562-4.024l9.809-9.809
		c0.437,0.289,0.927,0.496,1.445,0.638C19.248,32.885,18,37.981,18,44v6h-3c-0.552,0-1,0.448-1,1v8c0,0.552,0.448,1,1,1h8
		c0.552,0,1-0.448,1-1v-8c0-0.552-0.448-1-1-1h-3v-6c0-6.128,1.353-11.201,4.002-15.101c2.052-0.419,3.63-2.105,3.927-4.197
		C31.94,21.586,37.341,20,44,20h6v3c0,0.552,0.448,1,1,1h8c0.552,0,1-0.448,1-1v-8c0-0.552-0.448-1-1-1h-8c-0.552,0-1,0.448-1,1v3
		h-6c-6.583,0-12.043,1.491-16.286,4.4c-0.139-0.408-0.313-0.8-0.547-1.153l10.362-10.362C38.51,11.584,39.706,12,41,12
		c3.309,0,6-2.691,6-6s-2.691-6-6-6s-6,2.691-6,6c0,1.294,0.416,2.49,1.115,3.471L25.753,19.833C24.962,19.309,24.017,19,23,19
		c-2.757,0-5,2.243-5,5c0,1.017,0.309,1.962,0.833,2.753L8.86,36.726C8.009,36.263,7.035,36,6,36c-3.309,0-6,2.691-6,6
		S2.691,48,6,48z M41,2c2.206,0,4,1.794,4,4c0,2.206-1.794,4-4,4s-4-1.794-4-4C37,3.794,38.794,2,41,2z M23,21c1.654,0,3,1.346,3,3
		s-1.346,3-3,3s-3-1.346-3-3S21.346,21,23,21z M6,38c2.206,0,4,1.794,4,4c0,2.206-1.794,4-4,4s-4-1.794-4-4C2,39.794,3.794,38,6,38z
		"/>
</g>
</svg>
