<?xml version="1.0" encoding="UTF-8" standalone="no"?>
<svg width="20px" height="20px" viewBox="0 0 20 20" version="1.1" xmlns="http://www.w3.org/2000/svg" xmlns:xlink="http://www.w3.org/1999/xlink">
    <g stroke="none" stroke-width="1" fill-rule="evenodd">
        <path d="M2.37421875,5.71059375 L4.55515625,6.93715625 L5.64390625,7.54965625 C5.65546875,7.52871875 5.66921875,7.50903125 5.68140625,7.48840625 C5.77796875,7.32278125 5.88421875,7.16371875 5.99859375,7.01090625 C5.99890625,7.01059375 5.99890625,7.01028125 5.99921875,7.00996875 C6.02421875,6.97684375 6.04828125,6.94278125 6.07421875,6.90996875 C6.13265625,6.83559375 6.19421875,6.76371875 6.25703125,6.69278125 C6.28359375,6.66278125 6.31046875,6.63309375 6.33796875,6.60371875 C6.40640625,6.52996875 6.47578125,6.45778125 6.54859375,6.38809375 C6.55703125,6.37996875 6.56609375,6.37246875 6.57484375,6.36434375 C6.69109375,6.25465625 6.81421875,6.15246875 6.94046875,6.05465625 C6.96640625,6.03465625 6.99203125,6.01496875 7.01828125,5.99559375 C7.14671875,5.90028125 7.27859375,5.80871875 7.41609375,5.72528125 C7.42890625,5.71778125 7.44109375,5.70996875 7.45390625,5.70246875 C7.55390625,5.64309375 7.65578125,5.58684375 7.76015625,5.53465625 C7.76203125,5.53371875 7.76390625,5.53246875 7.76578125,5.53153125 L7.20703125,4.41465625 L7.20703125,4.41465625 L6.08671875,2.17403125 L5.53171875,1.06340625 C5.08515625,1.28715625 4.65796875,1.54278125 4.25296875,1.82778125 C3.84765625,2.11246875 3.46484375,2.42653125 3.10703125,2.76653125 C2.39171875,3.44715625 1.77703125,4.23246875 1.28828125,5.09965625 L2.37421875,5.71059375 Z"></path>
        <path d="M5.7104375,17.625625 L7.5498125,14.35625 C7.528875,14.344375 7.5095,14.3309375 7.488875,14.31875 C7.32075,14.2209375 7.1598125,14.113125 7.0048125,13.996875 L7.0048125,13.996875 C6.973875,13.9734375 6.942,13.95125 6.9116875,13.9271875 C6.8591875,13.885625 6.8091875,13.8415625 6.75825,13.7978125 C6.73575,13.7784375 6.7123125,13.7603125 6.690125,13.740625 C6.662,13.715625 6.633875,13.69 6.606375,13.664375 C6.5473125,13.6096875 6.4904375,13.553125 6.433875,13.4959375 C6.4185625,13.4803125 6.4016875,13.465625 6.3866875,13.4496875 C6.38075,13.44375 6.3754375,13.4371875 6.3698125,13.43125 C6.258875,13.3140625 6.1560625,13.19 6.0573125,13.0625 C6.03575,13.035 6.0145,13.0071875 5.993875,12.9790625 C5.897625,12.849375 5.8054375,12.71625 5.721375,12.5775 C5.7160625,12.5684375 5.7104375,12.559375 5.7048125,12.5503125 C5.6435625,12.4471875 5.58575,12.3421875 5.532,12.2346875 C5.5316875,12.234375 5.5316875,12.234375 5.5316875,12.2340625 L1.06325,14.4684375 C1.733875,15.8071875 2.69325,16.9746875 3.8629375,17.8871875 C4.252625,18.1915625 4.66575,18.4675 5.0995,18.711875 L5.7104375,17.625625 Z"></path>
        <path d="M19.1439687,5.95225 L18.0252188,6.511625 C18.4905313,7.5806875 18.7499062,8.75975 18.7499062,10.0000625 C18.7499062,11.3919375 18.4233438,12.7069375 17.8452188,13.875375 L18.9355313,14.4885 C19.6149063,13.1385 19.9999062,11.61475 19.9999062,10.0000625 C19.9999062,8.5588125 19.6927188,7.1900625 19.1439687,5.95225"></path>
        <path d="M14.2894688,2.37425 L13.0625938,4.5551875 L12.4500938,5.6439375 C12.4600938,5.649875 12.4697813,5.65675 12.4800938,5.662375 C12.6622813,5.7670625 12.8360313,5.8833125 13.0029063,6.00925 C13.0304063,6.029875 13.0588438,6.049875 13.0860313,6.071125 C13.0913438,6.0755 13.0960313,6.0801875 13.1013438,6.08425 C13.1738438,6.14175 13.2444688,6.2014375 13.3132188,6.2626875 C13.3391563,6.2855 13.3644688,6.308625 13.3897813,6.3320625 C13.4488438,6.38675 13.5054063,6.4433125 13.5619688,6.5005 C13.5794688,6.5183125 13.5985313,6.5345625 13.6157188,6.5526875 C13.6172813,6.5545625 13.6185313,6.556125 13.6200938,6.5576875 C13.7322813,6.6755 13.8363438,6.8008125 13.9363438,6.9295625 C13.9600938,6.959875 13.9835313,6.9908125 14.0066563,7.0220625 C14.1035313,7.1526875 14.1963438,7.2864375 14.2807188,7.4264375 C14.2850938,7.4333125 14.2894688,7.4401875 14.2935313,7.447375 C14.3188438,7.489875 14.3410313,7.5345625 14.3650937,7.578 C14.4000938,7.6405 14.4363438,7.70175 14.4685313,7.7658125 L15.5854063,7.207375 L18.9366563,5.53175 C18.0422813,3.7464375 16.6347813,2.266125 14.9004063,1.2883125 L14.2894688,2.37425 Z"></path>
        <path d="M1.25,10 C1.25,8.608125 1.5765625,7.293125 2.1546875,6.125 L1.064375,5.5115625 C0.385,6.8615625 0,8.3853125 0,10 C0,11.44125 0.3071875,12.81 0.85625,14.0478125 L1.975,13.4884375 C1.5096875,12.419375 1.25,11.2403125 1.25,10"></path>
        <path d="M10,18.75 C8.608125,18.75 7.293125,18.4234375 6.1246875,17.8453125 L5.51125,18.935625 C6.8615625,19.615 8.3853125,20 10,20 C11.44125,20 12.81,19.6928125 14.0478125,19.1440625 L13.4884375,18.025 C12.419375,18.4903125 11.2403125,18.75 10,18.75"></path>
        <path d="M17.6255938,14.289625 L15.4446563,13.0630625 L14.3555938,12.45025 L14.3555938,12.45025 C14.3009063,12.5474375 14.2418438,12.642125 14.1809062,12.7349375 C14.1205938,12.825875 14.0574688,12.914625 13.9918438,13.0015 C13.9915313,13.0018125 13.9915313,13.0024375 13.9912187,13.00275 C13.9699688,13.0305625 13.9496563,13.0593125 13.9280938,13.0868125 C13.9237188,13.0924375 13.9190313,13.0974375 13.9146563,13.1030625 C13.8580938,13.174 13.7999688,13.2430625 13.7396563,13.3105625 C13.7149688,13.338375 13.6899688,13.365875 13.6646563,13.393375 C13.6130938,13.4486875 13.5599688,13.50275 13.5062188,13.555875 C13.4871562,13.574625 13.4693438,13.594625 13.4499688,13.6130625 C13.4434063,13.6193125 13.4362188,13.62525 13.4296563,13.6318125 C13.3124688,13.742125 13.1887188,13.8449375 13.0612188,13.9436875 C13.0343438,13.964625 13.0071562,13.98525 12.9799688,14.0055625 C12.8505938,14.1015 12.7177813,14.1936875 12.5790313,14.2774375 C12.5790313,14.2774375 12.5790313,14.2774375 12.5790313,14.27775 C12.5690313,14.2836875 12.5593438,14.289625 12.5493438,14.2955625 C12.4468438,14.3565 12.3424688,14.414 12.2355938,14.46775 C12.2349688,14.46775 12.2346563,14.4680625 12.2340313,14.468375 L12.7927813,15.5855625 L14.4680938,18.9365 L14.4680938,18.9365 C14.9143438,18.7130625 15.3418438,18.4574375 15.7468438,18.1724375 C15.9493438,18.03025 16.1462187,17.8805625 16.3374688,17.7236875 C16.9105938,17.254 17.4305937,16.7218125 17.8868438,16.137125 C18.0390313,15.942125 18.1840313,15.7415 18.3215312,15.53525 C18.4590313,15.329 18.5890313,15.117125 18.7112188,14.90025 L17.6255938,14.289625 Z"></path>
        <path d="M10,1.25 C11.391875,1.25 12.706875,1.5765625 13.8753125,2.1546875 L14.4884375,1.064375 C13.1384375,0.385 11.6146875,0 10,0 C8.55875,0 7.19,0.3071875 5.951875,0.85625 L6.51125,1.975 C7.5803125,1.5096875 8.7596875,1.25 10,1.25"></path>
        <path d="M14.5854375,12.04175 L15.657,12.6445625 C16.0335625,11.8405 16.250125,10.9464375 16.250125,9.999875 C16.250125,9.16175 16.0823125,8.3633125 15.7829375,7.6326875 L14.6779375,8.1851875 L14.6585625,8.194875 C14.8760625,8.7555 15.000125,9.3626875 15.000125,9.999875 C15.000125,10.7239375 14.8429375,11.409875 14.5660625,12.0308125 L14.5854375,12.04175 Z"></path>
        <path d="M10,3.75 C9.1615625,3.75 8.363125,3.9178125 7.6325,4.2171875 L8.185,5.321875 L8.1946875,5.3415625 C8.7553125,5.1240625 9.3625,5.0003125 10,5.0003125 C10.72375,5.0003125 11.409375,5.1571875 12.0303125,5.43375 L12.0415625,5.414375 L12.6440625,4.343125 C11.84,3.9665625 10.94625,3.75 10,3.75"></path>
        <path d="M11.805125,14.6586875 C11.2445,14.8761875 10.6373125,14.9999375 10.000125,14.9999375 C9.276375,14.9999375 8.5904375,14.8430625 7.9691875,14.5665 L7.95825,14.5861875 L7.35575,15.657125 C8.1595,16.0336875 9.0535625,16.25025 10.000125,16.25025 C10.83825,16.25025 11.6366875,16.0824375 12.3673125,15.7830625 L11.8148125,14.6780625 L11.805125,14.6586875 Z"></path>
        <path d="M5.4139375,7.95825 L4.343,7.35575 C3.9664375,8.1598125 3.749875,9.0535625 3.749875,10.000125 C3.749875,10.83825 3.9176875,11.6366875 4.2170625,12.3673125 L5.3220625,11.8148125 L5.3414375,11.805125 C5.1239375,11.2445 4.999875,10.6373125 4.999875,10.000125 C4.999875,9.276375 5.1570625,8.5904375 5.433625,7.9691875 L5.4139375,7.95825 Z"></path>
    </g>
</svg>
