<?xml version="1.0" encoding="UTF-8" standalone="no"?>
<svg width="64px" height="64px" viewBox="0 0 64 64" version="1.1" xmlns="http://www.w3.org/2000/svg" xmlns:xlink="http://www.w3.org/1999/xlink">
    <g stroke="none" stroke-width="1" fill-rule="evenodd">
        <g fill="#CCD1D9">
            <path d="M32,0 C14.326,0 0,14.326 0,32 C0,49.673 14.326,64 32,64 C49.673,64 64,49.673 64,32 C64,14.326 49.673,0 32,0 L32,0 Z M32,48 C23.163,48 16,40.836 16,32 C16,23.163 23.163,16.001 32,16.001 C40.836,16.001 48,23.163 48,32 C48,40.836 40.836,48 32,48 L32,48 Z"></path>
        </g>
        <g transform="translate(4.000000, 4.000000)" fill="#FFFFFF">
            <path d="M28,0 C12.536,0 0,12.535 0,28 C0,43.464 12.536,56 28,56 C43.464,56 56,43.464 56,28 C56,12.535 43.464,0 28,0 L28,0 Z M28,44 C19.163,44 12,36.836 12,28 C12,19.163 19.163,12.001 28,12.001 C36.836,12.001 44,19.163 44,28 C44,36.836 36.836,44 28,44 L28,44 Z"></path>
        </g>
        <g transform="translate(12.000000, 12.000000)" fill="#CCD1D9">
            <path d="M20,0 C8.954,0 0,8.954 0,20 C0,31.046 8.954,40.001 20,40.001 C31.045,40.001 40,31.046 40,20 C40,8.954 31.045,0 20,0 L20,0 Z M20,36 C11.163,36 4,28.836 4,20 C4,11.163 11.163,4.001 20,4.001 C28.836,4.001 36,11.163 36,20 C36,28.836 28.836,36 20,36 L20,36 Z"></path>
        </g>
        <g transform="translate(3.000000, 3.000000)" fill="#D9534F">
            <path d="M14.701,36.149 L0.402,43.299 C3.264,49.011 7.768,53.749 13.318,56.878 L21.159,42.94 C18.384,41.374 16.132,39.006 14.701,36.149 L14.701,36.149 Z M36.149,43.299 L43.298,57.597 C49.011,54.735 53.747,50.232 56.876,44.681 L42.938,36.841 C41.374,39.616 39.006,41.868 36.149,43.299 L36.149,43.299 Z M43.299,21.851 L57.597,14.702 C54.735,8.989 50.231,4.252 44.681,1.123 L36.84,15.061 C39.615,16.626 41.867,18.995 43.299,21.851 L43.299,21.851 Z M1.122,13.319 L15.06,21.159 C16.624,18.385 18.994,16.132 21.85,14.701 L14.701,0.403 C8.988,3.266 4.251,7.769 1.122,13.319 L1.122,13.319 Z"></path>
        </g>
    </g>
</svg>
