<?xml version="1.0" encoding="UTF-8" standalone="no"?>
<svg width="20px" height="20px" viewBox="0 0 20 20" version="1.1" xmlns="http://www.w3.org/2000/svg" xmlns:xlink="http://www.w3.org/1999/xlink">
  <g stroke="none" stroke-width="1" fill-rule="evenodd">
    <path d="M1.4493,9.8547 L1.4493,3.4777 L14.2033,3.4777 L14.2033,1.0427 C14.2033,0.3887 13.8033,-0.0003 13.1313,-0.0003 L1.3633,-0.0003 L1.3633,-0.0003 C0.6883,-0.0003 0.0003,0.3877 0.0003,1.0437 L0.0003,10.5157 C0.0003,11.1897 0.6893,11.5937 1.3633,11.5937 L2.6083,11.5937 L2.6083,10.4347 L2.0293,10.4347 C1.7093,10.4347 1.4493,10.1747 1.4493,9.8547 M12.4633,1.1597 C12.7833,1.1597 13.0433,1.4187 13.0433,1.7397 C13.0433,2.0597 12.7833,2.3187 12.4633,2.3187 C12.1433,2.3187 11.8843,2.0597 11.8843,1.7397 C11.8843,1.4187 12.1433,1.1597 12.4633,1.1597 M10.7243,1.1597 C11.0443,1.1597 11.3043,1.4187 11.3043,1.7397 C11.3043,2.0597 11.0443,2.3187 10.7243,2.3187 C10.4043,2.3187 10.1453,2.0597 10.1453,1.7397 C10.1453,1.4187 10.4043,1.1597 10.7243,1.1597 M2.0293,1.1597 L8.9853,1.1597 C9.3053,1.1597 9.5653,1.4187 9.5653,1.7397 C9.5653,2.0197 9.3663,2.2527 9.1023,2.3067 C9.0643,2.3147 9.0253,2.3187 8.9853,2.3187 L2.0293,2.3187 C1.7093,2.3187 1.4493,2.0587 1.4493,1.7387 C1.4493,1.4187 1.7093,1.1597 2.0293,1.1597"></path>
    <path d="M4.3478,13.9127 L4.3478,7.5357 L17.1018,7.5357 L17.1018,5.1007 C17.1018,4.4467 16.7018,4.0577 16.0298,4.0577 L4.2618,4.0577 L4.2618,4.0577 C3.5868,4.0577 2.8988,4.4457 2.8988,5.1017 L2.8988,14.5737 C2.8988,15.2477 3.5878,15.6517 4.2618,15.6517 L5.5068,15.6517 L5.5068,14.4927 L4.9278,14.4927 C4.6078,14.4927 4.3478,14.2327 4.3478,13.9127 M15.3618,5.2177 C15.6818,5.2177 15.9418,5.4767 15.9418,5.7977 C15.9418,6.1177 15.6818,6.3767 15.3618,6.3767 C15.0418,6.3767 14.7828,6.1177 14.7828,5.7977 C14.7828,5.4767 15.0418,5.2177 15.3618,5.2177 M13.6228,5.2177 C13.9428,5.2177 14.2028,5.4767 14.2028,5.7977 C14.2028,6.1177 13.9428,6.3767 13.6228,6.3767 C13.3028,6.3767 13.0438,6.1177 13.0438,5.7977 C13.0438,5.4767 13.3028,5.2177 13.6228,5.2177 M4.9278,5.2177 L11.8838,5.2177 C12.2038,5.2177 12.4638,5.4767 12.4638,5.7977 C12.4638,6.0777 12.2648,6.3107 12.0008,6.3647 C11.9628,6.3727 11.9238,6.3767 11.8838,6.3767 L4.9278,6.3767 C4.6078,6.3767 4.3478,6.1167 4.3478,5.7967 C4.3478,5.4767 4.6078,5.2177 4.9278,5.2177"></path>
    <path d="M15.0725,17.3913 L15.0725,16.9293 C15.0725,16.2333 13.6235,16.2333 13.6235,16.0013 L13.6235,15.7643 C13.9135,15.5523 14.2025,15.2203 14.2025,14.8423 L14.2025,13.9143 C14.2025,13.2743 13.6845,12.7553 13.0435,12.7553 C12.4025,12.7553 11.8845,13.2743 11.8845,13.9143 L11.8845,14.8423 C11.8845,15.2203 12.1735,15.5523 12.4635,15.7643 L12.4635,16.0013 C12.4635,16.2333 11.0145,16.2333 11.0145,16.9293 L11.0145,17.3913 L15.0725,17.3913 Z"></path>
    <path d="M18.9281,8.1159 L7.1601,8.1159 L7.1601,8.1159 C6.4851,8.1159 5.7971,8.5039 5.7971,9.1589 L5.7971,18.6319 C5.7971,19.3059 6.4871,19.7099 7.1601,19.7099 L18.9251,19.7099 C19.5981,19.7099 20.0001,19.3059 20.0001,18.6319 L20.0001,9.1589 C20.0001,8.5039 19.6001,8.1159 18.9281,8.1159 L18.9281,8.1159 Z M16.5221,9.2749 C16.8421,9.2749 17.1011,9.5349 17.1011,9.8549 C17.1011,10.1749 16.8421,10.4349 16.5221,10.4349 C16.2021,10.4349 15.9421,10.1749 15.9421,9.8549 C15.9421,9.5349 16.2021,9.2749 16.5221,9.2749 L16.5221,9.2749 Z M7.8261,9.2749 L14.7821,9.2749 C15.1021,9.2749 15.3621,9.5349 15.3621,9.8549 C15.3621,10.1349 15.1631,10.3689 14.8991,10.4229 C14.8621,10.4309 14.8231,10.4349 14.7821,10.4349 L7.8261,10.4349 C7.5061,10.4349 7.2461,10.1749 7.2461,9.8549 C7.2461,9.5349 7.5061,9.2749 7.8261,9.2749 L7.8261,9.2749 Z M18.8401,17.9729 C18.8401,18.2929 18.5791,18.5509 18.2591,18.5509 L7.8241,18.5509 C7.5041,18.5509 7.2461,18.2929 7.2461,17.9729 L7.2461,11.5939 L18.8401,11.5939 L18.8401,17.9729 Z M18.2611,10.4349 C17.9411,10.4349 17.6811,10.1749 17.6811,9.8549 C17.6811,9.5349 17.9411,9.2749 18.2611,9.2749 C18.5811,9.2749 18.8401,9.5349 18.8401,9.8549 C18.8401,10.1749 18.5811,10.4349 18.2611,10.4349 L18.2611,10.4349 Z"></path>
  </g>
</svg>
