<?xml version="1.0" encoding="UTF-8" standalone="no"?>
<svg width="73px" height="72px" viewBox="0 0 73 72" version="1.1" xmlns="http://www.w3.org/2000/svg" xmlns:xlink="http://www.w3.org/1999/xlink">
    <g stroke="none" stroke-width="1" fill="none" fill-rule="evenodd">
        <g transform="translate(2.000000, 2.000000)">
            <g stroke="#FFFFFF" stroke-width="2" fill="#CCD1D9">
                <path d="M3.71,0 C1.655,0.009 0,1.612 0,3.594 L0,9.984 L0,36.275 C0,38.324 1.661,39.984 3.71,39.984 L44.296,39.984 C46.345,39.984 48.007,38.324 48.007,36.275 L48.007,11 L48.007,9.983 L48.007,3.593 C48.007,1.612 46.351,0.009 44.307,0.003 C44.303,0.003 3.71,0 3.71,0 Z"></path>
            </g>
            <g transform="translate(4.000000, 11.000000)" fill="#FFFFFF">
                <path d="M2.006,0.994 L0.006,0.994 L0.006,2.994 L0.006,14.993 L0.006,22.993 C0.006,24.097 0.902,24.993 2.006,24.993 L38.006,24.993 C39.11,24.993 40.006,24.097 40.006,22.993 L40.006,14.993 L40.006,2.994 L40.006,0.994 L38,0.994 L34.006,0.994 L2.006,0.994 Z"></path>
            </g>
            <g transform="translate(4.000000, 3.000000)" fill="#FFFFFF">
                <path d="M2.006,0.995 C0.902,0.995 0.006,1.891 0.006,2.995 C0.006,4.099 0.902,4.995 2.006,4.995 L26.006,4.995 C26.144,4.995 26.279,4.981 26.409,4.954 C27.32,4.767 28.006,3.961 28.006,2.995 C28.006,1.89 27.11,0.994 26.006,0.994 C26.003,0.994 2.006,0.995 2.006,0.995 Z M32.006,0.994 C30.902,0.994 30.006,1.89 30.006,2.995 C30.006,4.099 30.902,4.995 32.006,4.995 C33.11,4.995 34.006,4.099 34.006,2.995 C34.006,1.89 33.11,0.994 32.006,0.994 L32.006,0.994 Z M38.006,0.994 C36.902,0.994 36.006,1.89 36.006,2.995 C36.006,4.099 36.902,4.995 38.006,4.995 C39.11,4.995 40.006,4.099 40.006,2.995 C40.006,1.89 39.11,0.994 38.006,0.994 L38.006,0.994 Z"></path>
            </g>
        </g>
    </g>
    <g transform="translate(10.000000, 14.000000)">
        <g stroke="#FFFFFF" stroke-width="2" fill="#CCD1D9">
            <path d="M3.71,0 C1.655,0.009 0,1.612 0,3.594 L0,9.984 L0,36.275 C0,38.324 1.661,39.984 3.71,39.984 L44.296,39.984 C46.345,39.984 48.007,38.324 48.007,36.275 L48.007,11 L48.007,9.983 L48.007,3.593 C48.007,1.612 46.351,0.009 44.307,0.003 C44.303,0.003 3.71,0 3.71,0 Z"></path>
        </g>
        <g transform="translate(4.000000, 11.000000)" fill="#FFFFFF">
            <path d="M2.006,0.994 L0.006,0.994 L0.006,2.994 L0.006,14.993 L0.006,22.993 C0.006,24.097 0.902,24.993 2.006,24.993 L38.006,24.993 C39.11,24.993 40.006,24.097 40.006,22.993 L40.006,14.993 L40.006,2.994 L40.006,0.994 L38,0.994 L34.006,0.994 L2.006,0.994 Z"></path>
        </g>
        <g transform="translate(4.000000, 3.000000)" fill="#FFFFFF">
            <path d="M2.006,0.995 C0.902,0.995 0.006,1.891 0.006,2.995 C0.006,4.099 0.902,4.995 2.006,4.995 L26.006,4.995 C26.144,4.995 26.279,4.981 26.409,4.954 C27.32,4.767 28.006,3.961 28.006,2.995 C28.006,1.89 27.11,0.994 26.006,0.994 C26.003,0.994 2.006,0.995 2.006,0.995 Z M32.006,0.994 C30.902,0.994 30.006,1.89 30.006,2.995 C30.006,4.099 30.902,4.995 32.006,4.995 C33.11,4.995 34.006,4.099 34.006,2.995 C34.006,1.89 33.11,0.994 32.006,0.994 L32.006,0.994 Z M38.006,0.994 C36.902,0.994 36.006,1.89 36.006,2.995 C36.006,4.099 36.902,4.995 38.006,4.995 C39.11,4.995 40.006,4.099 40.006,2.995 C40.006,1.89 39.11,0.994 38.006,0.994 L38.006,0.994 Z"></path>
        </g>
    </g>
    <g transform="translate(20.000000, 28.000000)">
        <g stroke="#FFFFFF" stroke-width="2" fill="#CCD1D9">
            <path d="M3.71,0 C1.655,0.009 0,1.612 0,3.594 L0,9.984 L0,36.275 C0,38.324 1.661,39.984 3.71,39.984 L44.296,39.984 C46.345,39.984 48.007,38.324 48.007,36.275 L48.007,11 L48.007,9.983 L48.007,3.593 C48.007,1.612 46.351,0.009 44.307,0.003 C44.303,0.003 3.71,0 3.71,0 Z"></path>
        </g>
        <g transform="translate(4.000000, 12.000000)">
            <path d="M2,-3.19744231e-14 L2.84217094e-14,-3.19744231e-14 L2.84217094e-14,2 L2.84217094e-14,13.999 L2.84217094e-14,21.999 C2.84217094e-14,23.103 0.896,23.999 2,23.999 L38,23.999 C39.104,23.999 40,23.103 40,21.999 L40,13.999 L40,2 L40,-3.19744231e-14 L37.994,-3.19744231e-14 L34,-3.19744231e-14 L2,-3.19744231e-14 Z" fill="#FFFFFF"></path>
            <path d="M22.6,15.2 L22.6,14.3816 C23.5656,13.652 24.2,12.504 24.2,11.1992 L24.2,7.9992 C24.2,5.7904 22.4096,4 20.2,4 C17.9904,4 16.2,5.7904 16.2,7.9992 L16.2,11.1992 C16.2,12.504 16.8336,13.6512 17.8,14.3816 L17.8,15.2 C17.8,16 13,16 13,18.4 L13,20 L27.4,20 L27.4,18.4 C27.4,16 22.6,16 22.6,15.2 L22.6,15.2 Z" fill="#428BCA"></path>
        </g>
        <g transform="translate(4.000000, 3.000000)" fill="#FFFFFF">
            <path d="M2.006,0.995 C0.902,0.995 0.006,1.891 0.006,2.995 C0.006,4.099 0.902,4.995 2.006,4.995 L26.006,4.995 C26.144,4.995 26.279,4.981 26.409,4.954 C27.32,4.767 28.006,3.961 28.006,2.995 C28.006,1.89 27.11,0.994 26.006,0.994 C26.003,0.994 2.006,0.995 2.006,0.995 Z M32.006,0.994 C30.902,0.994 30.006,1.89 30.006,2.995 C30.006,4.099 30.902,4.995 32.006,4.995 C33.11,4.995 34.006,4.099 34.006,2.995 C34.006,1.89 33.11,0.994 32.006,0.994 L32.006,0.994 Z M38.006,0.994 C36.902,0.994 36.006,1.89 36.006,2.995 C36.006,4.099 36.902,4.995 38.006,4.995 C39.11,4.995 40.006,4.099 40.006,2.995 C40.006,1.89 39.11,0.994 38.006,0.994 L38.006,0.994 Z"></path>
        </g>
    </g>
</svg>
