<?xml version="1.0" encoding="UTF-8" standalone="no"?>
<svg width="65px" height="64px" viewBox="0 0 65 64" version="1.1" xmlns="http://www.w3.org/2000/svg" xmlns:xlink="http://www.w3.org/1999/xlink">
    <g stroke="none" stroke-width="1" fill="none" fill-rule="evenodd">
        <g fill="#CCD1D9">
            <path d="M60.307,0.003 C60.303,0.003 60.3,0 60.296,0 L3.71,0 C3.706,0 3.703,0.003 3.699,0.003 C1.655,0.009 0,1.612 0,3.594 L0,9.984 L0,60.275 C0,62.324 1.661,63.984 3.71,63.984 L60.296,63.984 C62.345,63.984 64.007,62.324 64.007,60.275 L64.007,9.983 L64.007,3.593 C64.007,1.612 62.351,0.009 60.307,0.003 L60.307,0.003 Z"></path>
        </g>
        <g transform="translate(4.000000, 11.000000)" fill="#FFFFFF">
            <path d="M54.006,0.994 L2.006,0.994 L0.006,0.994 L0.006,2.994 L0.006,14.993 L0.006,46.993 C0.006,48.097 0.902,48.993 2.006,48.993 L54.006,48.993 C55.11,48.993 56.006,48.097 56.006,46.993 L56.006,14.993 L56.006,2.994 L56.006,0.994 L54.006,0.994 L54.006,0.994 Z"></path>
        </g>
        <g transform="translate(4.000000, 3.000000)" fill="#FFFFFF">
            <path d="M42.006,0.994 C42.003,0.994 42,0.995 41.996,0.995 L2.006,0.995 C0.902,0.995 0.006,1.891 0.006,2.995 C0.006,4.099 0.902,4.995 2.006,4.995 L42.006,4.995 C42.144,4.995 42.279,4.981 42.409,4.954 C43.32,4.767 44.006,3.961 44.006,2.995 C44.006,1.89 43.11,0.994 42.006,0.994 L42.006,0.994 Z M48.006,0.994 C46.902,0.994 46.006,1.89 46.006,2.995 C46.006,4.099 46.902,4.995 48.006,4.995 C49.11,4.995 50.006,4.099 50.006,2.995 C50.006,1.89 49.11,0.994 48.006,0.994 L48.006,0.994 Z M54.006,0.994 C52.902,0.994 52.006,1.89 52.006,2.995 C52.006,4.099 52.902,4.995 54.006,4.995 C55.11,4.995 56.006,4.099 56.006,2.995 C56.006,1.89 55.11,0.994 54.006,0.994 L54.006,0.994 Z"></path>
        </g>
    </g>
    <g transform="translate(21.000000, 25.000000)" fill="#D9534F">
        <path d="M24,6.375 C24,2.8545 21.1455,0 17.625,0 C15.18825,0 13.07325,1.368 12,3.3765 C10.92675,1.368 8.81175,0 6.375,0 C2.8545,0 0,2.8545 0,6.375 C0,8.328 0.8805,10.074 2.26425,11.24325 L2.25,11.25 C2.25,11.25 10.35375,19.9185 10.93875,20.5365 C11.5245,21.1545 12.474,21.1545 13.0605,20.5365 C13.647,19.9185 21.75,11.25 21.75,11.25 L21.73575,11.24325 C23.1195,10.074 24,8.328 24,6.375 L24,6.375 Z"></path>
    </g>
</svg>
