<?xml version="1.0" encoding="UTF-8" standalone="no"?>
<svg width="20px" height="20px" viewBox="0 0 20 20" version="1.1" xmlns="http://www.w3.org/2000/svg" xmlns:xlink="http://www.w3.org/1999/xlink">
    <g stroke="none" stroke-width="1" fill-rule="evenodd">
        <path d="M17.848,2.4984375 C17.5083077,2.4984375 17.2326154,2.2184375 17.2326154,1.8734375 C17.2326154,1.528125 17.5083077,1.248125 17.848,1.248125 C18.1876923,1.248125 18.4633846,1.528125 18.4633846,1.8734375 C18.4633846,2.2184375 18.1876923,2.4984375 17.848,2.4984375 L17.848,2.4984375 Z M18.4633846,4.373125 L18.4633846,8.1228125 L18.4633846,18.1228125 C18.4633846,18.4678125 18.1876923,18.7478125 17.848,18.7478125 L1.848,18.7478125 C1.50830769,18.7478125 1.23261538,18.4678125 1.23261538,18.1228125 L1.23261538,8.1228125 L1.23261538,4.373125 L1.23261538,3.748125 L1.848,3.748125 L17.848,3.748125 L18.4633846,3.748125 L18.4633846,4.373125 Z M1.848,1.2484375 L14.1526154,1.2484375 C14.1538462,1.2484375 14.1547692,1.248125 14.1556923,1.248125 C14.4953846,1.248125 14.7710769,1.528125 14.7710769,1.8734375 C14.7710769,2.1753125 14.56,2.4271875 14.2796923,2.485625 C14.2396923,2.4940625 14.1981538,2.4984375 14.1556923,2.4984375 L1.848,2.4984375 C1.50830769,2.4984375 1.23261538,2.2184375 1.23261538,1.8734375 C1.23261538,1.5284375 1.50830769,1.2484375 1.848,1.2484375 L1.848,1.2484375 Z M16.0018462,1.248125 C16.3415385,1.248125 16.6172308,1.528125 16.6172308,1.8734375 C16.6172308,2.2184375 16.3415385,2.4984375 16.0018462,2.4984375 C15.6621538,2.4984375 15.3864615,2.2184375 15.3864615,1.8734375 C15.3864615,1.528125 15.6621538,1.248125 16.0018462,1.248125 L16.0018462,1.248125 Z M18.556,0.0009375 C18.5547692,0.0009375 18.5538462,0 18.5526154,0 L1.14153846,0 C1.14030769,0 1.13938462,0.0009375 1.13815385,0.0009375 C0.509230769,0.0028125 0,0.50375 0,1.123125 L0,3.12 L0,18.8359375 C0,19.47625 0.511076923,19.995 1.14153846,19.995 L18.5526154,19.995 C19.1830769,19.995 19.6944615,19.47625 19.6944615,18.8359375 L19.6944615,3.1196875 L19.6944615,1.1228125 C19.6944615,0.50375 19.1849231,0.0028125 18.556,0.0009375 L18.556,0.0009375 Z"></path>
        <path d="M11.8846154,7.8125 C11.1347692,7.8125 10.484,8.24 10.1538462,8.8675 C9.82369231,8.24 9.17292308,7.8125 8.42307692,7.8125 C7.33969231,7.8125 6.46153846,8.704375 6.46153846,9.8046875 C6.46153846,10.415 6.73230769,10.960625 7.15815385,11.3259375 L7.15384615,11.328125 C7.15384615,11.328125 9.64738462,14.036875 9.82738462,14.23 C10.0073846,14.423125 10.2996923,14.423125 10.48,14.23 C10.6606154,14.036875 13.1538462,11.328125 13.1538462,11.328125 L13.1495385,11.3259375 C13.5753846,10.960625 13.8461538,10.415 13.8461538,9.8046875 C13.8461538,8.704375 12.968,7.8125 11.8846154,7.8125"></path>
    </g>
</svg>
