<?xml version="1.0" encoding="UTF-8" standalone="no"?>
<svg width="20px" height="20px" viewBox="0 0 20 20" version="1.1" xmlns="http://www.w3.org/2000/svg" xmlns:xlink="http://www.w3.org/1999/xlink">
    <g stroke="none" stroke-width="1" fill-rule="evenodd">
        <path d="M17.1429688,10.4615385 C16.8260937,14.0815385 13.7429687,16.9230769 9.98421875,16.9230769 C8.22859375,16.9230769 6.62046875,16.3027692 5.37234375,15.2732308 L3.39203125,17.2230769 C5.15484375,18.7550769 7.46359375,19.6926154 10.0001562,19.6926154 C15.3120312,19.6926154 19.6442188,15.6110769 19.9682812,10.4615385 L17.1429688,10.4615385 L17.1429688,10.4615385 Z"></path>
        <path d="M2.79671875,9.84630769 C2.79671875,5.93769231 6.01453125,2.76938462 9.98421875,2.76938462 C11.7479688,2.76938462 13.3626563,3.39584615 14.6132812,4.434 L16.6082813,2.46969231 C14.8454687,0.937076923 12.5367187,0.000153846154 10.0004687,0.000153846154 C4.47734375,0.000153846154 0.00015625,4.40815385 0.00015625,9.84630769 C0.00015625,12.3432308 0.95203125,14.6170769 2.50828125,16.3527692 L4.48734375,14.4041538 C3.43296875,13.1727692 2.79671875,11.5829231 2.79671875,9.84630769"></path>
        <path d="M17.1429375,9.23076946 L19.9685625,9.23076946 C19.8266875,6.97661562 18.9185625,4.93015408 17.4935625,3.33876946 L15.49575,5.30553869 C16.41575,6.38707715 17.012625,7.74307715 17.1429375,9.23076946"></path>
    </g>
</svg>
