<?xml version="1.0" encoding="UTF-8" standalone="no"?>
<svg width="20px" height="20px" viewBox="0 0 20 20" version="1.1" xmlns="http://www.w3.org/2000/svg" xmlns:xlink="http://www.w3.org/1999/xlink">
    <g stroke="none" stroke-width="1" fill-rule="evenodd">
        <path d="M14.1587692,6.774 C13.4790769,6.774 12.928,6.22323077 12.928,5.54323077 C12.928,4.86384615 13.4790769,4.31276923 14.1587692,4.31276923 C14.8384615,4.31276923 15.3895385,4.86384615 15.3895385,5.54323077 C15.3895385,6.22323077 14.8384615,6.774 14.1587692,6.774 M12.1372308,2.90630769 C11.9064615,3.13707692 11.5323077,3.13707692 11.3015385,2.90630769 L10.688,2.29276923 L11.5233846,1.45707692 L12.1372308,2.07092308 C12.3676923,2.30169231 12.3676923,2.67584615 12.1372308,2.90630769 M10.2907692,4.75246154 C10.0603077,4.98323077 9.68615385,4.98323077 9.45538462,4.75246154 L8.84184615,4.13892308 L9.67723077,3.30323077 L10.2907692,3.91707692 C10.5215385,4.14784615 10.5215385,4.52169231 10.2907692,4.75246154 M9.67569231,7.82969231 C9.44492308,8.06015385 9.07076923,8.06015385 8.84,7.82969231 L6.99569231,5.98507692 L7.83107692,5.14938462 L9.67569231,6.994 C9.90646154,7.22476923 9.90646154,7.59892308 9.67569231,7.82969231 M6.59876923,8.44476923 C6.368,8.67553846 5.99384615,8.67553846 5.76307692,8.44476923 L5.14953846,7.83123077 L5.98492308,6.99553846 L6.59876923,7.60938462 C6.82923077,7.84015385 6.82923077,8.21430769 6.59876923,8.44476923 M4.75230769,10.2909231 C4.52184615,10.5216923 4.14769231,10.5216923 3.91692308,10.2909231 L3.30338462,9.67738462 L4.13876923,8.842 L4.75230769,9.45553846 C4.98307692,9.68630769 4.98307692,10.0601538 4.75230769,10.2909231 M4.13723077,13.3678462 C3.90646154,13.5986154 3.53230769,13.5986154 3.30153846,13.3678462 L1.45723077,11.5235385 L2.29261538,10.6878462 L4.13723077,12.5324615 C4.368,12.7632308 4.368,13.1370769 4.13723077,13.3678462 M19.3313846,5.75215385 L13.9446154,0.365076923 C13.4572308,-0.121692308 12.6673846,-0.121692308 12.1803077,0.365076923 L0.365538462,12.1801538 C-0.121846154,12.6675385 -0.121846154,13.4573846 0.365538462,13.9444615 L5.75230769,19.3312308 C6.23938462,19.8186154 7.02923077,19.8186154 7.51630769,19.3312308 L19.3313846,7.51646154 C19.8184615,7.02938462 19.8184615,6.23923077 19.3313846,5.75215385"></path>
    </g>
</svg>
