<?xml version="1.0" encoding="UTF-8" standalone="no"?>
<svg width="66px" height="65px" viewBox="0 0 66 65" version="1.1" xmlns="http://www.w3.org/2000/svg" xmlns:xlink="http://www.w3.org/1999/xlink">
    <g stroke="none" stroke-width="1" fill="none" fill-rule="evenodd">
        <g fill="#FBCE86">
            <path d="M63.827,18.695 L46.32,1.187 C44.736,-0.395 42.169,-0.395 40.586,1.187 L2.188,39.586 C0.604,41.17 0.604,43.737 2.188,45.32 L19.695,62.827 C21.278,64.411 23.845,64.411 25.428,62.827 L63.827,24.429 C65.41,22.846 65.41,20.278 63.827,18.695 L63.827,18.695 Z M47.016,22.016 C44.807,22.016 43.016,20.226 43.016,18.016 C43.016,15.808 44.807,14.017 47.016,14.017 C49.225,14.017 51.016,15.808 51.016,18.016 C51.016,20.226 49.225,22.016 47.016,22.016 L47.016,22.016 Z"></path>
        </g>
        <g transform="translate(5.000000, 4.000000)" fill="#D3860C">
            <path d="M2.744,30.029 L0.029,32.745 L6.73,39.446 C7.48,40.196 8.696,40.196 9.446,39.446 C10.196,38.696 10.196,37.481 9.446,36.731 L2.744,30.029 L2.744,30.029 Z M14.744,18.029 L12.029,20.745 L14.73,23.446 C15.48,24.196 16.696,24.196 17.446,23.446 C18.195,22.697 18.195,21.481 17.446,20.731 L14.744,18.029 L14.744,18.029 Z M8.744,24.029 L6.029,26.745 L8.73,29.446 C9.48,30.196 10.696,30.196 11.445,29.446 C12.195,28.696 12.195,27.481 11.445,26.731 L8.744,24.029 L8.744,24.029 Z M20.744,12.029 L18.029,14.745 L24.73,21.447 C25.48,22.196 26.696,22.196 27.446,21.447 C28.196,20.697 28.196,19.481 27.446,18.731 L20.744,12.029 L20.744,12.029 Z M35.446,2.731 L32.744,0.029 L30.029,2.745 L32.73,5.446 C33.48,6.196 34.696,6.196 35.446,5.446 C36.195,4.697 36.195,3.481 35.446,2.731 L35.446,2.731 Z M26.744,6.029 L24.029,8.745 L26.73,11.446 C27.48,12.196 28.696,12.196 29.445,11.446 C30.195,10.696 30.195,9.481 29.445,8.731 L26.744,6.029 L26.744,6.029 Z"></path>
        </g>
    </g>
</svg>
