<?xml version="1.0" encoding="UTF-8" standalone="no"?>
<svg width="58px" height="63px" viewBox="0 0 58 63" version="1.1" xmlns="http://www.w3.org/2000/svg" xmlns:xlink="http://www.w3.org/1999/xlink">
    <g stroke="none" stroke-width="1" fill="none" fill-rule="evenodd">
        <g transform="translate(40.000000, 6.000000)" fill="#999999">
            <path d="M10,6 L6,6 L0,4.001 L0,10.001 L4,16.001 L8,16.001 L8,14.001 C14,14.001 18,8.001 18,0.001 L10,6 L10,6 Z"></path>
        </g>
        <g transform="translate(32.000000, 0.000000)" fill="#CCCCCC">
            <path d="M16,8 L24,2.001 C24,2.001 22,0 18,0 C8,0 4,6.001 4,12 C4,20.001 0,24.001 0,24.001 L6,30.001 C6,30.001 12,24.001 16,24.001 C20,24.001 22,22.001 22,22.001 L14,12 L16,8 L16,8 Z M16,20.001 C16,20.001 11,22.001 10,22.001 C9,22.001 8,21.001 8,20.001 C8,19.001 12,14.001 12,14.001 L16,20.001 L16,20.001 Z"></path>
        </g>
        <g transform="translate(0.000000, 24.000000)" fill="#5CB85C">
            <path d="M32,0.001 C32,0.001 6,24.001 4,26 C2,28.001 0,30 0,34.001 C0,36.001 2,38.001 4,38.001 C8,38.001 10,36.001 12,34.001 C14,32.001 38,6.001 38,6.001 L32,0.001 L32,0.001 Z M6,34.001 C4.896,34.001 4,33.105 4,32.001 C4,30.896 4.896,30 6,30 C7.104,30 8,30.896 8,32.001 C8,33.105 7.104,34.001 6,34.001 L6,34.001 Z"></path>
        </g>
    </g>
</svg>
