<?xml version="1.0" encoding="utf-8"?>
<!-- Generator: Adobe Illustrator 17.0.0, SVG Export Plug-In . SVG Version: 6.00 Build 0)  -->
<!DOCTYPE svg PUBLIC "-//W3C//DTD SVG 1.1//EN" "http://www.w3.org/Graphics/SVG/1.1/DTD/svg11.dtd">
<svg version="1.1" id="Layer_1" xmlns="http://www.w3.org/2000/svg" xmlns:xlink="http://www.w3.org/1999/xlink" x="0px" y="0px"
	 width="48px" height="48px" viewBox="0 0 48 48" enable-background="new 0 0 48 48" xml:space="preserve">
<path fill="#231F20" d="M45,22H24.022l0.02-20.999c0.001-0.552-0.446-1-0.999-1.001c0,0,0,0-0.001,0c-0.551,0-0.999,0.447-1,0.999
	L22.022,22H1c-0.552,0-1,0.448-1,1s0.448,1,1,1h21.02L22,44.999C21.999,45.551,22.447,46,23,46c0.552,0,0.999-0.447,1-0.999
	L24.02,24H45c0.552,0,1-0.448,1-1S45.552,22,45,22z"/>
<g id="nyt_x5F_exporter_x5F_info" display="none">
</g>
</svg>
