<?xml version="1.0" encoding="utf-8"?>
<!-- Generator: Adobe Illustrator 17.1.0, SVG Export Plug-In . SVG Version: 6.00 Build 0)  -->
<!DOCTYPE svg PUBLIC "-//W3C//DTD SVG 1.0//EN" "http://www.w3.org/TR/2001/REC-SVG-20010904/DTD/svg10.dtd">
<svg version="1.0" id="Layer_1" xmlns="http://www.w3.org/2000/svg" xmlns:xlink="http://www.w3.org/1999/xlink" x="0px" y="0px"
	 width="48px" height="48px" viewBox="0 0 48 48" enable-background="new 0 0 48 48" xml:space="preserve">
<g>
	<path d="M11.999,26L23,26.011V37c0,0.553,0.448,1,1,1c0.552,0,1-0.447,1-1V26.013l11.186,0.011h0c0.552,0,1-0.447,1-0.999
		c0.001-0.553-0.447-1-0.999-1.001L25,24.013V13c0-0.553-0.448-1-1-1c-0.552,0-1,0.447-1,1v11.011L12.001,24H12
		c-0.552,0-1,0.447-1,0.999C11,25.552,11.447,25.999,11.999,26z"/>
	<path d="M46,2H2C1.448,2,1,2.447,1,3v44c0,0.553,0.448,1,1,1h44c0.552,0,1-0.447,1-1V3C47,2.447,46.552,2,46,2z M45,46H3V4h42V46z"
		/>
</g>
</svg>
