<?xml version="1.0" encoding="utf-8"?>
<!-- Generator: Adobe Illustrator 17.0.0, SVG Export Plug-In . SVG Version: 6.00 Build 0)  -->
<!DOCTYPE svg PUBLIC "-//W3C//DTD SVG 1.1//EN" "http://www.w3.org/Graphics/SVG/1.1/DTD/svg11.dtd">
<svg version="1.1" id="Layer_1" xmlns="http://www.w3.org/2000/svg" xmlns:xlink="http://www.w3.org/1999/xlink" x="0px" y="0px"
	 width="48px" height="48px" viewBox="0 0 48 48" enable-background="new 0 0 48 48" xml:space="preserve">
<g>
	<path fill="#231F20" d="M47,22H15.414l6.293-6.293c0.391-0.391,0.391-1.023,0-1.414c-0.391-0.391-1.023-0.391-1.414,0l-7.999,7.999
		c-0.093,0.092-0.166,0.203-0.217,0.326c-0.101,0.245-0.101,0.52,0,0.764c0.051,0.123,0.124,0.233,0.217,0.326l7.999,7.999
		C20.488,31.902,20.744,32,21,32s0.512-0.098,0.707-0.293c0.391-0.391,0.391-1.023,0-1.414L15.414,24H47c0.553,0,1-0.448,1-1
		S47.553,22,47,22z"/>
	<path fill="#231F20" d="M1,0C0.447,0,0,0.448,0,1v46c0,0.552,0.447,1,1,1s1-0.448,1-1V1C2,0.448,1.553,0,1,0z"/>
</g>
<g id="nyt_x5F_exporter_x5F_info" display="none">
</g>
</svg>
