<?xml version="1.0" encoding="utf-8"?>
<!-- Generator: Adobe Illustrator 17.0.0, SVG Export Plug-In . SVG Version: 6.00 Build 0)  -->
<!DOCTYPE svg PUBLIC "-//W3C//DTD SVG 1.1//EN" "http://www.w3.org/Graphics/SVG/1.1/DTD/svg11.dtd">
<svg version="1.1" id="Layer_1" xmlns="http://www.w3.org/2000/svg" xmlns:xlink="http://www.w3.org/1999/xlink" x="0px" y="0px"
	 width="48px" height="48px" viewBox="0 0 48 48" enable-background="new 0 0 48 48" xml:space="preserve">
<g>
	<path fill="#231F20" d="M15.707,9.707L22,3.414V23c0,0.552,0.447,1,1,1s1-0.448,1-1V3.414l6.293,6.293
		C30.488,9.902,30.744,10,31,10s0.512-0.098,0.707-0.293c0.391-0.391,0.391-1.023,0-1.414l-7.999-7.999
		c-0.092-0.093-0.203-0.166-0.326-0.217c-0.245-0.101-0.52-0.101-0.765,0c-0.123,0.051-0.234,0.124-0.326,0.217l-7.999,7.999
		c-0.391,0.391-0.391,1.023,0,1.414C14.684,10.098,15.316,10.098,15.707,9.707z"/>
	<path fill="#231F20" d="M47,32H1c-0.553,0-1,0.448-1,1v14c0,0.552,0.447,1,1,1h46c0.553,0,1-0.448,1-1V33
		C48,32.448,47.553,32,47,32z M46,46H2V34h44V46z"/>
</g>
<g id="nyt_x5F_exporter_x5F_info" display="none">
</g>
</svg>
