<?xml version="1.0" encoding="utf-8"?>
<!-- Generator: Adobe Illustrator 17.0.0, SVG Export Plug-In . SVG Version: 6.00 Build 0)  -->
<!DOCTYPE svg PUBLIC "-//W3C//DTD SVG 1.1//EN" "http://www.w3.org/Graphics/SVG/1.1/DTD/svg11.dtd">
<svg version="1.1" id="Layer_1" xmlns="http://www.w3.org/2000/svg" xmlns:xlink="http://www.w3.org/1999/xlink" x="0px" y="0px"
	 width="48px" height="48px" viewBox="0 0 48 48" enable-background="new 0 0 48 48" xml:space="preserve">
<g>
	<path fill="#231F20" d="M25.708,12.294c-0.092-0.093-0.203-0.166-0.326-0.217c-0.245-0.101-0.52-0.101-0.765,0
		c-0.123,0.051-0.234,0.124-0.326,0.217l-7.999,7.999c-0.391,0.391-0.391,1.023,0,1.414c0.391,0.391,1.023,0.391,1.414,0L24,15.414
		V47c0,0.552,0.447,1,1,1s1-0.448,1-1V15.414l6.293,6.293C32.488,21.902,32.744,22,33,22s0.512-0.098,0.707-0.293
		c0.391-0.391,0.391-1.023,0-1.414L25.708,12.294z"/>
	<path fill="#231F20" d="M47,0H1C0.447,0,0,0.448,0,1s0.447,1,1,1h46c0.553,0,1-0.448,1-1S47.553,0,47,0z"/>
</g>
<g id="nyt_x5F_exporter_x5F_info" display="none">
</g>
</svg>
