<?xml version="1.0" encoding="utf-8"?>
<!-- Generator: Adobe Illustrator 17.0.0, SVG Export Plug-In . SVG Version: 6.00 Build 0)  -->
<!DOCTYPE svg PUBLIC "-//W3C//DTD SVG 1.1//EN" "http://www.w3.org/Graphics/SVG/1.1/DTD/svg11.dtd">
<svg version="1.1" id="Layer_1" xmlns="http://www.w3.org/2000/svg" xmlns:xlink="http://www.w3.org/1999/xlink" x="0px" y="0px"
	 width="48px" height="48px" viewBox="0 0 48 48" enable-background="new 0 0 48 48" xml:space="preserve">
<path fill="#231F20" d="M47,12c0.552,0,1-0.448,1-1V1c0-0.552-0.448-1-1-1H37c-0.552,0-1,0.448-1,1s0.448,1,1,1h7.669L24.003,22.586
	L3.501,2.005l7.566,0.015c0.001,0,0.002,0,0.002,0c0.551,0,0.999-0.446,1-0.998c0.001-0.552-0.446-1.001-0.998-1.002L1.002,0
	C1.001,0,1,0,1,0C0.735,0,0.481,0.105,0.293,0.292C0.105,0.48,0,0.734,0,1v10c0,0.552,0.448,1,1,1s1-0.448,1-1V3.331l20.586,20.666
	L2,44.505v-7.574c0-0.552-0.448-1-1-1s-1,0.448-1,1v9.976c0,0.003,0,0.005,0,0.008V47c0,0.552,0.448,1,1,1h10c0.552,0,1-0.448,1-1
	s-0.448-1-1-1H3.332l20.665-20.586L44.505,46H37c-0.552,0-1,0.448-1,1s0.448,1,1,1h10c0.552,0,1-0.448,1-1V37c0-0.552-0.448-1-1-1
	s-1,0.448-1,1v7.668L25.414,24.003L46,3.496V11C46,11.552,46.448,12,47,12z"/>
<g id="nyt_x5F_exporter_x5F_info" display="none">
</g>
</svg>
