<?xml version="1.0" encoding="utf-8"?>
<!-- Generator: Adobe Illustrator 17.0.0, SVG Export Plug-In . SVG Version: 6.00 Build 0)  -->
<!DOCTYPE svg PUBLIC "-//W3C//DTD SVG 1.1//EN" "http://www.w3.org/Graphics/SVG/1.1/DTD/svg11.dtd">
<svg version="1.1" id="Layer_1" xmlns="http://www.w3.org/2000/svg" xmlns:xlink="http://www.w3.org/1999/xlink" x="0px" y="0px"
	 width="48px" height="48px" viewBox="0 0 48 48" enable-background="new 0 0 48 48" xml:space="preserve">
<path fill="#231F20" d="M47.615,18.255L24.491,0.211c-0.361-0.283-0.87-0.283-1.231,0.001l-23,18
	c-0.336,0.263-0.468,0.711-0.329,1.114C0.07,19.73,0.449,20,0.876,20H8v15c0,0.133,0.027,0.263,0.078,0.384
	c0.028,0.067,0.077,0.12,0.118,0.178c0.033,0.047,0.053,0.101,0.094,0.142l11.875,12C20.352,47.893,20.608,48,20.875,48H39
	c0.552,0,1-0.448,1-1V20.005l6.995,0.039c0.001,0,0.003,0,0.005,0c0.426,0,0.805-0.27,0.945-0.672
	C48.085,18.967,47.952,18.519,47.615,18.255z M20,44.693L11.396,36H20V44.693z M39.005,18c-0.001,0-0.003,0-0.005,0
	c-0.264,0-0.518,0.105-0.705,0.291C38.106,18.479,38,18.734,38,19v27H22V35c0-0.552-0.448-1-1-1H10V19c0-0.552-0.448-1-1-1H3.776
	l20.1-15.731l20.196,15.759L39.005,18z"/>
<g id="nyt_x5F_exporter_x5F_info" display="none">
</g>
</svg>
