<?xml version="1.0" encoding="utf-8"?>
<!-- Generator: Adobe Illustrator 17.0.0, SVG Export Plug-In . SVG Version: 6.00 Build 0)  -->
<!DOCTYPE svg PUBLIC "-//W3C//DTD SVG 1.1//EN" "http://www.w3.org/Graphics/SVG/1.1/DTD/svg11.dtd">
<svg version="1.1" id="Layer_1" xmlns="http://www.w3.org/2000/svg" xmlns:xlink="http://www.w3.org/1999/xlink" x="0px" y="0px"
	 width="48px" height="48px" viewBox="0 0 48 48" enable-background="new 0 0 48 48" xml:space="preserve">
<g>
	<path fill="#231F20" d="M47.923,24.618c-0.051-0.122-0.124-0.233-0.216-0.325l-8-8c-0.391-0.391-1.023-0.391-1.414,0
		c-0.391,0.391-0.391,1.023,0,1.414L44.586,24H25c-0.552,0-1,0.448-1,1s0.448,1,1,1h19.586l-6.293,6.293
		c-0.391,0.391-0.391,1.023,0,1.414C38.488,33.902,38.744,34,39,34s0.512-0.098,0.707-0.293l8-8
		c0.092-0.092,0.165-0.202,0.216-0.325C48.024,25.138,48.024,24.862,47.923,24.618z"/>
	<path fill="#231F20" d="M15,0H1C0.448,0,0,0.448,0,1v46c0,0.552,0.448,1,1,1h14c0.552,0,1-0.448,1-1V1C16,0.448,15.552,0,15,0z
		 M14,46H2V2h12V46z"/>
</g>
<g id="nyt_x5F_exporter_x5F_info" display="none">
</g>
</svg>
