<?xml version="1.0" encoding="utf-8"?>
<!-- Generator: Adobe Illustrator 17.0.0, SVG Export Plug-In . SVG Version: 6.00 Build 0)  -->
<!DOCTYPE svg PUBLIC "-//W3C//DTD SVG 1.1//EN" "http://www.w3.org/Graphics/SVG/1.1/DTD/svg11.dtd">
<svg version="1.1" id="Layer_1" xmlns="http://www.w3.org/2000/svg" xmlns:xlink="http://www.w3.org/1999/xlink" x="0px" y="0px"
	 width="48px" height="48px" viewBox="0 0 48 48" enable-background="new 0 0 48 48" xml:space="preserve">
<path fill="#231F20" d="M48.028,9.055c0.001-0.552-0.446-1-0.998-1.001l-27-0.052l0.014-7c0.001-0.427-0.269-0.807-0.672-0.947
	c-0.402-0.138-0.85-0.009-1.114,0.327L0.214,23.348c-0.285,0.361-0.285,0.87-0.002,1.233l18,23.035C18.405,47.863,18.698,48,19,48
	c0.109,0,0.219-0.018,0.326-0.055C19.729,47.807,20,47.427,20,47v-6.998l14.969,0.029c0.001,0,0.002,0,0.002,0
	c0.265,0,0.519-0.105,0.707-0.293l11.891-11.893c0.25-0.18,0.423-0.455,0.425-0.787c0-0.005-0.003-0.009-0.003-0.013
	C47.992,27.03,48,27.017,48,27.002L48.028,9.055z M19.002,38C19.001,38,19,38,19,38c-0.265,0-0.519,0.105-0.707,0.292
	C18.105,38.48,18,38.734,18,39v5.096L2.27,23.967L18.038,3.898l-0.01,5.1c0,0.266,0.105,0.52,0.292,0.708S18.762,10,19.027,10
	l27,0.052l-0.026,15.997L35.004,26c-0.001,0-0.003,0-0.004,0c-0.264,0-0.518,0.105-0.706,0.292S34,26.734,34,27v11.029L19.002,38z
	 M44.543,28.043L36,36.588v-8.584L44.543,28.043z"/>
<g id="nyt_x5F_exporter_x5F_info" display="none">
</g>
</svg>
