<?xml version="1.0" encoding="utf-8"?>
<!-- Generator: Adobe Illustrator 17.0.0, SVG Export Plug-In . SVG Version: 6.00 Build 0)  -->
<!DOCTYPE svg PUBLIC "-//W3C//DTD SVG 1.1//EN" "http://www.w3.org/Graphics/SVG/1.1/DTD/svg11.dtd">
<svg version="1.1" id="Layer_1" xmlns="http://www.w3.org/2000/svg" xmlns:xlink="http://www.w3.org/1999/xlink" x="0px" y="0px"
	 width="48px" height="48px" viewBox="0 0 48 48" enable-background="new 0 0 48 48" xml:space="preserve">
<path fill="#231F20" d="M47.946,11.421c0.051-0.122,0.079-0.253,0.08-0.387c0-0.135-0.027-0.266-0.078-0.388
	c-0.051-0.122-0.124-0.231-0.216-0.323L37.753,0.307c-0.39-0.392-1.021-0.394-1.414-0.003c-0.391,0.389-0.393,1.023-0.002,1.414
	l8.278,8.31L11.001,9.987H11c-0.265,0-0.52,0.105-0.707,0.293C10.105,10.467,10,10.721,10,10.987v33.599l-8.317-8.348
	c-0.39-0.391-1.022-0.394-1.414-0.003c-0.391,0.39-0.393,1.023-0.002,1.414l9.981,10.019c0.098,0.099,0.212,0.172,0.334,0.221
	c0.128,0.06,0.267,0.098,0.418,0.098c0.366,0,0.672-0.206,0.846-0.498l9.835-9.798c0.391-0.39,0.393-1.023,0.002-1.414
	c-0.39-0.392-1.022-0.394-1.414-0.003L12,44.512V11.989l32.609,0.039L36.3,20.304c-0.391,0.39-0.393,1.023-0.002,1.414
	c0.195,0.196,0.451,0.294,0.708,0.294c0.255,0,0.511-0.097,0.706-0.29l10.02-9.981c0.073-0.073,0.122-0.162,0.169-0.252
	C47.914,11.464,47.935,11.446,47.946,11.421z"/>
<g id="nyt_x5F_exporter_x5F_info" display="none">
</g>
</svg>
