<?xml version="1.0" encoding="utf-8"?>
<!-- Generator: Adobe Illustrator 17.0.0, SVG Export Plug-In . SVG Version: 6.00 Build 0)  -->
<!DOCTYPE svg PUBLIC "-//W3C//DTD SVG 1.1//EN" "http://www.w3.org/Graphics/SVG/1.1/DTD/svg11.dtd">
<svg version="1.1" id="Layer_1" xmlns="http://www.w3.org/2000/svg" xmlns:xlink="http://www.w3.org/1999/xlink" x="0px" y="0px"
	 width="48px" height="48px" viewBox="0 0 48 48" enable-background="new 0 0 48 48" xml:space="preserve">
<g>
	<path fill="#231F20" d="M23,22H3.414l6.293-6.293c0.391-0.391,0.391-1.023,0-1.414c-0.391-0.391-1.023-0.391-1.414,0l-8,8
		c-0.092,0.092-0.165,0.203-0.216,0.325c-0.102,0.245-0.102,0.52,0,0.765c0.051,0.122,0.124,0.232,0.216,0.325l8,8
		C8.488,31.902,8.744,32,9,32s0.512-0.098,0.707-0.293c0.391-0.391,0.391-1.023,0-1.414L3.414,24H23c0.552,0,1-0.448,1-1
		S23.552,22,23,22z"/>
	<path fill="#231F20" d="M47,0H33c-0.552,0-1,0.448-1,1v46c0,0.552,0.448,1,1,1h14c0.552,0,1-0.448,1-1V1C48,0.448,47.552,0,47,0z
		 M46,46H34V2h12V46z"/>
</g>
<g id="nyt_x5F_exporter_x5F_info" display="none">
</g>
</svg>
