<?xml version="1.0" encoding="utf-8"?>
<!-- Generator: Adobe Illustrator 17.0.0, SVG Export Plug-In . SVG Version: 6.00 Build 0)  -->
<!DOCTYPE svg PUBLIC "-//W3C//DTD SVG 1.1//EN" "http://www.w3.org/Graphics/SVG/1.1/DTD/svg11.dtd">
<svg version="1.1" id="Layer_1" xmlns="http://www.w3.org/2000/svg" xmlns:xlink="http://www.w3.org/1999/xlink" x="0px" y="0px"
	 width="48px" height="48px" viewBox="0 0 48 48" enable-background="new 0 0 48 48" xml:space="preserve">
<path fill="#231F20" d="M42.153,22.176c-4.182-4.19-10.503-6.405-18.281-6.405c-4.912,0-10.253,0.856-15.884,2.546l-6.296-6.039
	C1.402,12,0.975,11.923,0.608,12.08C0.239,12.237,0,12.599,0,13v26c0,0.552,0.448,1,1,1l26.16,0.005
	c0.403,0,0.768-0.243,0.923-0.616c0.155-0.373,0.07-0.803-0.215-1.089l-6.839-6.865c4.654-2.244,9.433-3.47,13.583-3.47
	c3.763,0,6.786,1.037,8.744,2.998c1.866,1.87,2.81,4.588,2.803,8.079c-0.001,0.552,0.446,1.001,0.998,1.002c0.001,0,0.002,0,0.002,0
	c0.551,0,0.999-0.446,0.999-0.997C48.172,31.859,46.152,26.182,42.153,22.176z M34.612,25.965c-4.832,0-10.418,1.531-15.731,4.311
	c-0.281,0.147-0.476,0.42-0.524,0.734c-0.048,0.314,0.056,0.633,0.28,0.858l6.114,6.137L2,38V15.345l5.026,4.821
	c0.262,0.251,0.64,0.34,0.988,0.234c5.646-1.744,10.982-2.629,15.858-2.629c7.235,0,13.067,2.012,16.866,5.818
	c1.582,1.584,2.82,3.473,3.712,5.653C42.115,27.096,38.725,25.965,34.612,25.965z"/>
<g id="nyt_x5F_exporter_x5F_info" display="none">
</g>
</svg>
