<?xml version="1.0" encoding="utf-8"?>
<!-- Generator: Adobe Illustrator 17.0.0, SVG Export Plug-In . SVG Version: 6.00 Build 0)  -->
<!DOCTYPE svg PUBLIC "-//W3C//DTD SVG 1.1//EN" "http://www.w3.org/Graphics/SVG/1.1/DTD/svg11.dtd">
<svg version="1.1" id="Layer_1" xmlns="http://www.w3.org/2000/svg" xmlns:xlink="http://www.w3.org/1999/xlink" x="0px" y="0px"
	 width="48px" height="48px" viewBox="0 0 48 48" enable-background="new 0 0 48 48" xml:space="preserve">
<g>
	<path fill="#231F20" d="M47,0H33c-0.552,0-1,0.448-1,1s0.448,1,1,1h13v9c0,0.552,0.448,1,1,1s1-0.448,1-1V1C48,0.448,47.552,0,47,0
		z"/>
	<path fill="#231F20" d="M1,12c0.552,0,1-0.448,1-1V2h13c0.552,0,1-0.448,1-1s-0.448-1-1-1H1C0.448,0,0,0.448,0,1v10
		C0,11.552,0.448,12,1,12z"/>
	<path fill="#231F20" d="M47,36c-0.552,0-1,0.448-1,1v9H33c-0.552,0-1,0.448-1,1s0.448,1,1,1h14c0.552,0,1-0.448,1-1V37
		C48,36.448,47.552,36,47,36z"/>
	<path fill="#231F20" d="M15,46H2v-9c0-0.552-0.448-1-1-1s-1,0.448-1,1v10c0,0.552,0.448,1,1,1h14c0.552,0,1-0.448,1-1
		S15.552,46,15,46z"/>
	<path fill="#231F20" d="M10,17v14c0,0.552,0.448,1,1,1h26c0.552,0,1-0.448,1-1V17c0-0.552-0.448-1-1-1H11
		C10.448,16,10,16.448,10,17z M12,18h24v12H12V18z"/>
</g>
<g id="nyt_x5F_exporter_x5F_info" display="none">
</g>
</svg>
