<?xml version="1.0" encoding="utf-8"?>
<!-- Generator: Adobe Illustrator 17.0.0, SVG Export Plug-In . SVG Version: 6.00 Build 0)  -->
<!DOCTYPE svg PUBLIC "-//W3C//DTD SVG 1.1//EN" "http://www.w3.org/Graphics/SVG/1.1/DTD/svg11.dtd">
<svg version="1.1" id="Layer_1" xmlns="http://www.w3.org/2000/svg" xmlns:xlink="http://www.w3.org/1999/xlink" x="0px" y="0px"
	 width="48px" height="48px" viewBox="0 0 48 48" enable-background="new 0 0 48 48" xml:space="preserve">
<path fill="#231F20" d="M25.414,24.003l22.336-22.25c0.392-0.39,0.393-1.023,0.003-1.414c-0.39-0.392-1.024-0.393-1.414-0.003
	l-22.335,22.25L1.753,0.251C1.363-0.141,0.73-0.141,0.339,0.248c-0.392,0.39-0.393,1.023-0.003,1.414l22.25,22.336L0.251,46.248
	c-0.392,0.39-0.393,1.023-0.003,1.414c0.195,0.196,0.452,0.294,0.708,0.294c0.255,0,0.51-0.098,0.705-0.292l22.336-22.25
	L46.248,47.75c0.195,0.196,0.452,0.294,0.708,0.294c0.255,0,0.51-0.097,0.705-0.291c0.392-0.39,0.393-1.023,0.003-1.414
	L25.414,24.003z"/>
<g id="nyt_x5F_exporter_x5F_info" display="none">
</g>
</svg>
