<?xml version="1.0" encoding="utf-8"?>
<!-- Generator: Adobe Illustrator 17.0.0, SVG Export Plug-In . SVG Version: 6.00 Build 0)  -->
<!DOCTYPE svg PUBLIC "-//W3C//DTD SVG 1.1//EN" "http://www.w3.org/Graphics/SVG/1.1/DTD/svg11.dtd">
<svg version="1.1" id="Layer_1" xmlns="http://www.w3.org/2000/svg" xmlns:xlink="http://www.w3.org/1999/xlink" x="0px" y="0px"
	 width="48px" height="48px" viewBox="0 0 48 48" enable-background="new 0 0 48 48" xml:space="preserve">
<g>
	<path fill="#231F20" d="M30.293,13.707C30.488,13.902,30.744,14,31,14s0.512-0.098,0.707-0.293c0.391-0.391,0.391-1.023,0-1.414
		l-6-6c-0.092-0.092-0.203-0.165-0.325-0.216c-0.245-0.102-0.52-0.102-0.765,0c-0.122,0.051-0.232,0.124-0.325,0.216l-6,6
		c-0.391,0.391-0.391,1.023,0,1.414c0.391,0.391,1.023,0.391,1.414,0L24,9.414v29.172l-4.293-4.293
		c-0.391-0.391-1.023-0.391-1.414,0c-0.391,0.391-0.391,1.023,0,1.414l6,6c0.092,0.092,0.203,0.165,0.325,0.216
		C24.74,41.973,24.87,42,25,42s0.26-0.027,0.382-0.077c0.122-0.051,0.233-0.124,0.325-0.216l6-6c0.391-0.391,0.391-1.023,0-1.414
		c-0.391-0.391-1.023-0.391-1.414,0L26,38.586V9.414L30.293,13.707z"/>
	<path fill="#231F20" d="M39,46H13c-0.552,0-1,0.448-1,1s0.448,1,1,1h26c0.552,0,1-0.448,1-1S39.552,46,39,46z"/>
	<path fill="#231F20" d="M13,2h26c0.552,0,1-0.448,1-1s-0.448-1-1-1H13c-0.552,0-1,0.448-1,1S12.448,2,13,2z"/>
</g>
<g id="nyt_x5F_exporter_x5F_info" display="none">
</g>
</svg>
