<?xml version="1.0" encoding="utf-8"?>
<!-- Generator: Adobe Illustrator 17.0.0, SVG Export Plug-In . SVG Version: 6.00 Build 0)  -->
<!DOCTYPE svg PUBLIC "-//W3C//DTD SVG 1.1//EN" "http://www.w3.org/Graphics/SVG/1.1/DTD/svg11.dtd">
<svg version="1.1" id="Layer_1" xmlns="http://www.w3.org/2000/svg" xmlns:xlink="http://www.w3.org/1999/xlink" x="0px" y="0px"
	 width="48px" height="48px" viewBox="0 0 48 48" enable-background="new 0 0 48 48" xml:space="preserve">
<path fill="#231F20" d="M47.385,12.077c-0.374-0.156-0.804-0.07-1.09,0.215l-6.061,6.04c-5.681-1.729-11.068-2.604-16.019-2.604
	C8.854,15.728,0.028,24.178,0,38.91c-0.001,0.552,0.445,1.001,0.998,1.002c0.001,0,0.001,0,0.002,0c0.552,0,0.999-0.446,1-0.998
	c0-0.004,0-0.006,0-0.009c0.022-9.591,7.22-11.024,11.509-11.024c4.166,0,8.965,1.243,13.64,3.518l-7.009,6.888
	c-0.289,0.284-0.378,0.716-0.225,1.092C20.069,39.754,20.435,40,20.841,40H47c0.553,0,1-0.448,1-1V13
	C48,12.596,47.757,12.231,47.385,12.077z M46,38H23.285l6.259-6.15c0.227-0.223,0.335-0.542,0.288-0.858
	c-0.046-0.315-0.241-0.59-0.523-0.739c-5.337-2.819-10.948-4.372-15.8-4.372c-4.171,0-7.477,1.125-9.775,3.234
	c3.988-9.685,13.97-11.387,20.481-11.387c4.916,0,10.299,0.905,16,2.69c0.357,0.111,0.741,0.016,1.005-0.246L46,15.408V38z"/>
<g id="nyt_x5F_exporter_x5F_info" display="none">
</g>
</svg>
