<?xml version="1.0" encoding="utf-8"?>
<!-- Generator: Adobe Illustrator 17.0.0, SVG Export Plug-In . SVG Version: 6.00 Build 0)  -->
<!DOCTYPE svg PUBLIC "-//W3C//DTD SVG 1.1//EN" "http://www.w3.org/Graphics/SVG/1.1/DTD/svg11.dtd">
<svg version="1.1" id="Layer_1" xmlns="http://www.w3.org/2000/svg" xmlns:xlink="http://www.w3.org/1999/xlink" x="0px" y="0px"
	 width="48px" height="48px" viewBox="0 0 48 48" enable-background="new 0 0 48 48" xml:space="preserve">
<g>
	<path fill="#231F20" d="M30.41,21.083c-0.506-0.213-1.096,0.026-1.309,0.536c-0.214,0.509,0.025,1.095,0.535,1.309
		c4.482,1.881,7.373,6.235,7.363,11.094c-0.006,3.206-1.261,6.216-3.532,8.479C31.201,44.758,28.194,46,24.999,46
		c-0.007,0-0.015,0-0.023,0c-3.206-0.007-6.217-1.26-8.479-3.531c-2.261-2.27-3.503-5.287-3.497-8.492
		c0.01-4.835,2.894-9.17,7.347-11.043c0.509-0.215,0.748-0.801,0.534-1.31c-0.214-0.509-0.801-0.747-1.309-0.534
		c-5.196,2.186-8.56,7.242-8.572,12.883c-0.007,3.739,1.442,7.258,4.08,9.907c2.639,2.65,6.153,4.113,9.893,4.12
		c0.009,0,0.018,0,0.027,0c3.728,0,7.236-1.449,9.879-4.083c2.65-2.64,4.114-6.153,4.121-9.892
		C39.012,28.357,35.639,23.277,30.41,21.083z"/>
	<path fill="#231F20" d="M21.729,18.702l2.305-2.292l-0.028,14.588c-0.001,0.552,0.446,1.001,0.998,1.002c0.001,0,0.001,0,0.002,0
		c0.552,0,0.999-0.446,1-0.998l0.027-14.586l2.29,2.298c0.195,0.196,0.451,0.294,0.708,0.294c0.255,0,0.511-0.097,0.706-0.291
		c0.391-0.39,0.393-1.023,0.002-1.414l-3.99-4.005c-0.093-0.094-0.204-0.169-0.328-0.22c-0.095-0.039-0.196-0.052-0.296-0.06
		C25.095,13.014,25.07,13,25.04,13c-0.001,0-0.001,0-0.002,0c-0.041,0-0.076,0.018-0.116,0.023c-0.089,0.01-0.179,0.018-0.263,0.053
		c-0.125,0.051-0.237,0.126-0.331,0.221l-4.009,3.987c-0.392,0.39-0.394,1.022-0.004,1.414
		C20.704,19.09,21.336,19.091,21.729,18.702z"/>
</g>
<g id="nyt_x5F_exporter_x5F_info" display="none">
</g>
</svg>
