<?xml version="1.0" encoding="utf-8"?>
<!-- Generator: Adobe Illustrator 17.0.0, SVG Export Plug-In . SVG Version: 6.00 Build 0)  -->
<!DOCTYPE svg PUBLIC "-//W3C//DTD SVG 1.1//EN" "http://www.w3.org/Graphics/SVG/1.1/DTD/svg11.dtd">
<svg version="1.1" id="Layer_1" xmlns="http://www.w3.org/2000/svg" xmlns:xlink="http://www.w3.org/1999/xlink" x="0px" y="0px"
	 width="48px" height="48px" viewBox="0 0 48 48" enable-background="new 0 0 48 48" xml:space="preserve">
<g>
	<path fill="#231F20" d="M47.745,27.09l-6.821-7.601c-0.21-0.235-0.52-0.358-0.832-0.328c-0.314,0.028-0.596,0.201-0.762,0.469
		l-5.388,8.676c-0.292,0.469-0.147,1.085,0.322,1.377c0.164,0.102,0.346,0.15,0.526,0.15c0.335,0,0.662-0.167,0.852-0.473
		l4.14-6.667c1.301,9.399-4.673,18.493-14.08,20.852c-0.535,0.134-0.861,0.677-0.726,1.213c0.114,0.454,0.521,0.757,0.969,0.757
		c0.08,0,0.162-0.01,0.244-0.03c10.032-2.517,16.514-11.959,15.679-21.95l4.389,4.891c0.368,0.41,1,0.444,1.412,0.076
		C48.08,28.134,48.114,27.501,47.745,27.09z"/>
	<path fill="#231F20" d="M35.373,13.251c0.198,0.234,0.48,0.355,0.765,0.355c0.227,0,0.456-0.077,0.643-0.234
		c0.422-0.356,0.476-0.987,0.12-1.409c-3.589-4.257-8.622-6.862-14.17-7.334c-4.407-0.374-8.709,0.652-12.43,2.879l2.462-6.082
		c0.208-0.512-0.039-1.095-0.551-1.302c-0.512-0.206-1.095,0.039-1.302,0.551l-3.834,9.467c-0.119,0.292-0.093,0.622,0.07,0.892
		c0.163,0.27,0.443,0.447,0.756,0.479l10.16,1.029c0.035,0.003,0.068,0.005,0.102,0.005c0.507,0,0.942-0.383,0.995-0.898
		c0.055-0.55-0.345-1.04-0.895-1.096l-7.809-0.791c3.551-2.396,7.775-3.508,12.106-3.141C27.579,7.047,32.128,9.402,35.373,13.251z"
		/>
	<path fill="#231F20" d="M11.221,34.76c-0.23-0.503-0.824-0.724-1.325-0.496c-0.503,0.229-0.725,0.823-0.496,1.325l3.256,7.144
		c-3.861-1.859-6.953-4.947-8.819-8.871c-2.161-4.547-2.422-9.663-0.734-14.406c0.185-0.52-0.088-1.091-0.608-1.277
		c-0.521-0.186-1.092,0.086-1.277,0.607C-0.649,24.033-0.36,29.692,2.03,34.721c1.898,3.993,4.953,7.191,8.753,9.281l-6.49,0.94
		c-0.547,0.079-0.926,0.587-0.847,1.133c0.072,0.498,0.499,0.857,0.988,0.857c0.047,0,0.096-0.003,0.144-0.01l10.111-1.464
		c0.312-0.045,0.584-0.235,0.735-0.511c0.15-0.276,0.162-0.608,0.032-0.894L11.221,34.76z"/>
</g>
<g id="nyt_x5F_exporter_x5F_info" display="none">
</g>
</svg>
