<?xml version="1.0" encoding="utf-8"?>
<!-- Generator: Adobe Illustrator 17.0.0, SVG Export Plug-In . SVG Version: 6.00 Build 0)  -->
<!DOCTYPE svg PUBLIC "-//W3C//DTD SVG 1.1//EN" "http://www.w3.org/Graphics/SVG/1.1/DTD/svg11.dtd">
<svg version="1.1" id="Layer_1" xmlns="http://www.w3.org/2000/svg" xmlns:xlink="http://www.w3.org/1999/xlink" x="0px" y="0px"
	 width="48px" height="48px" viewBox="0 0 48 48" enable-background="new 0 0 48 48" xml:space="preserve">
<path fill="#231F20" d="M25.302,4.181c-5.6,0.196-10.83,2.661-14.347,6.763c-3.109,3.627-4.705,8.321-4.607,13.405l-4.502-6.78
	c-0.305-0.46-0.925-0.586-1.386-0.28C0,17.594-0.126,18.214,0.18,18.675l5.983,9.012c0.172,0.259,0.455,0.423,0.766,0.444
	c0.022,0.002,0.044,0.003,0.067,0.003c0.287,0,0.561-0.123,0.752-0.339l7.015-7.986c0.365-0.415,0.324-1.047-0.091-1.412
	c-0.415-0.364-1.048-0.323-1.412,0.091l-4.907,5.586c-0.034-4.5,1.384-8.637,4.12-11.828c3.154-3.679,7.856-5.89,12.899-6.066
	c9.909-0.354,18.272,7.444,18.617,17.362c0.167,4.805-1.546,9.388-4.825,12.904c-3.28,3.517-7.732,5.545-12.537,5.712
	c-7.255,0.262-13.932-3.849-16.98-10.456c-0.231-0.501-0.825-0.72-1.327-0.489c-0.502,0.231-0.72,0.826-0.49,1.327
	c3.288,7.124,10.362,11.629,18.158,11.629c0.236,0,0.473-0.003,0.71-0.011c5.339-0.186,10.286-2.44,13.929-6.347
	c3.643-3.907,5.547-8.999,5.361-14.338C45.603,12.453,36.356,3.83,25.302,4.181z"/>
<g id="nyt_x5F_exporter_x5F_info" display="none">
</g>
</svg>
