<?xml version="1.0" encoding="utf-8"?>
<!-- Generator: Adobe Illustrator 17.0.0, SVG Export Plug-In . SVG Version: 6.00 Build 0)  -->
<!DOCTYPE svg PUBLIC "-//W3C//DTD SVG 1.1//EN" "http://www.w3.org/Graphics/SVG/1.1/DTD/svg11.dtd">
<svg version="1.1" id="Layer_1" xmlns="http://www.w3.org/2000/svg" xmlns:xlink="http://www.w3.org/1999/xlink" x="0px" y="0px"
	 width="48px" height="48px" viewBox="0 0 48 48" enable-background="new 0 0 48 48" xml:space="preserve">
<g>
	<path fill="#010101" d="M47.708,24.313l-12-12.019C35.52,12.106,35.266,12,35,12H3c-0.553,0-1,0.448-1,1v24c0,0.552,0.447,1,1,1h32
		c0.265,0,0.519-0.105,0.706-0.292l12-11.98C47.894,25.54,48,25.287,48,25.021S47.895,24.501,47.708,24.313z M34.586,36H4V14h30.585
		l11.001,11.019L34.586,36z"/>
	<path fill="#010101" d="M24,24H10c-0.553,0-1,0.448-1,1s0.447,1,1,1h14c0.553,0,1-0.448,1-1S24.553,24,24,24z"/>
</g>
<g id="nyt_x5F_exporter_x5F_info" display="none">
</g>
</svg>
