<?xml version="1.0" encoding="utf-8"?>
<!-- Generator: Adobe Illustrator 17.1.0, SVG Export Plug-In . SVG Version: 6.00 Build 0)  -->
<!DOCTYPE svg PUBLIC "-//W3C//DTD SVG 1.0//EN" "http://www.w3.org/TR/2001/REC-SVG-20010904/DTD/svg10.dtd">
<svg version="1.0" id="Layer_1" xmlns="http://www.w3.org/2000/svg" xmlns:xlink="http://www.w3.org/1999/xlink" x="0px" y="0px"
	 width="48px" height="48px" viewBox="0 0 48 48" enable-background="new 0 0 48 48" xml:space="preserve">
<g>
	<path d="M12.957,26l24,0.023h0.001c0.552,0,0.999-0.447,1-0.999c0-0.553-0.447-1-0.999-1.001l-24-0.023c-0.001,0-0.001,0-0.001,0
		c-0.552,0-1,0.447-1,0.999C11.957,25.552,12.404,25.999,12.957,26z"/>
	<path d="M47.708,2.336c-0.187-0.188-0.442-0.294-0.707-0.294L2.959,2C2.958,2,2.958,2,2.958,2C2.692,2,2.439,2.106,2.251,2.293
		C2.063,2.481,1.958,2.734,1.958,3v44c0,0.553,0.448,1,1,1h44c0.552,0,0.999-0.447,1-0.999L48,3.043
		C48.001,2.777,47.895,2.523,47.708,2.336z M45.959,46H3.958V4.001l42.041,0.04L45.959,46z"/>
</g>
</svg>
