<?xml version="1.0" encoding="utf-8"?>
<!-- Generator: Adobe Illustrator 17.0.0, SVG Export Plug-In . SVG Version: 6.00 Build 0)  -->
<!DOCTYPE svg PUBLIC "-//W3C//DTD SVG 1.1//EN" "http://www.w3.org/Graphics/SVG/1.1/DTD/svg11.dtd">
<svg version="1.1" id="Layer_1" xmlns="http://www.w3.org/2000/svg" xmlns:xlink="http://www.w3.org/1999/xlink" x="0px" y="0px"
	 width="48px" height="48px" viewBox="0 0 48 48" enable-background="new 0 0 48 48" xml:space="preserve">
<path fill="#231F20" d="M30.295,40.303l-4.261,4.245l0.04-41.128l4.282,4.299c0.195,0.196,0.451,0.294,0.708,0.294
	c0.256,0,0.511-0.097,0.706-0.29c0.392-0.39,0.393-1.023,0.003-1.414l-5.988-6.012c0,0,0,0,0,0
	c-0.093-0.093-0.204-0.167-0.327-0.218c-0.066-0.027-0.137-0.029-0.206-0.042C25.193,0.025,25.139,0,25.077,0
	c-0.081,0-0.153,0.028-0.228,0.046c-0.05,0.012-0.101,0.011-0.149,0.03c-0.127,0.052-0.24,0.128-0.335,0.224L18.36,6.281
	c-0.392,0.39-0.393,1.023-0.003,1.414c0.39,0.392,1.023,0.393,1.414,0.003l4.304-4.287l-0.04,41.214l-4.325-4.342
	c-0.389-0.391-1.023-0.393-1.414-0.003c-0.392,0.39-0.393,1.023-0.003,1.414l5.988,6.012C24.475,47.902,24.732,48,24.988,48
	c0.256,0,0.511-0.097,0.706-0.292l6.012-5.988c0.392-0.39,0.393-1.023,0.003-1.414C31.319,39.914,30.686,39.914,30.295,40.303z"/>
<g id="nyt_x5F_exporter_x5F_info" display="none">
</g>
</svg>
