<?xml version="1.0" encoding="utf-8"?>
<!-- Generator: Adobe Illustrator 17.0.0, SVG Export Plug-In . SVG Version: 6.00 Build 0)  -->
<!DOCTYPE svg PUBLIC "-//W3C//DTD SVG 1.1//EN" "http://www.w3.org/Graphics/SVG/1.1/DTD/svg11.dtd">
<svg version="1.1" id="Layer_1" xmlns="http://www.w3.org/2000/svg" xmlns:xlink="http://www.w3.org/1999/xlink" x="0px" y="0px"
	 width="48px" height="48px" viewBox="0 0 48 48" enable-background="new 0 0 48 48" xml:space="preserve">
<path fill="#231F20" d="M32.244,36.311l-8.243,8.211L24.018,3.42l8.274,8.306c0.195,0.196,0.451,0.294,0.708,0.294
	c0.255,0,0.511-0.098,0.706-0.292c0.391-0.39,0.393-1.023,0.002-1.414l-9.981-10.02c-0.091-0.092-0.2-0.165-0.321-0.216
	C23.285,0.028,23.154,0,23.02,0c0,0,0,0-0.001,0c-0.133,0-0.263,0.027-0.384,0.078c-0.123,0.051-0.233,0.126-0.325,0.219
	l-10.016,9.977c-0.391,0.39-0.393,1.023-0.002,1.414c0.389,0.391,1.021,0.393,1.414,0.003l8.312-8.28l-0.017,41.24l-8.343-8.375
	c-0.39-0.391-1.022-0.394-1.414-0.003c-0.391,0.39-0.393,1.023-0.002,1.414l9.981,10.02c0.187,0.188,0.468,0.308,0.708,0.294
	c0.012,0,0.023-0.006,0.035-0.007C22.978,47.994,22.988,48,23,48c0.368,0,0.676-0.208,0.85-0.504l9.806-9.768
	c0.391-0.39,0.393-1.023,0.002-1.414C33.268,35.922,32.636,35.92,32.244,36.311z"/>
<g id="nyt_x5F_exporter_x5F_info" display="none">
</g>
</svg>
