<?xml version="1.0" encoding="utf-8"?>
<!-- Generator: Adobe Illustrator 17.0.0, SVG Export Plug-In . SVG Version: 6.00 Build 0)  -->
<!DOCTYPE svg PUBLIC "-//W3C//DTD SVG 1.1//EN" "http://www.w3.org/Graphics/SVG/1.1/DTD/svg11.dtd">
<svg version="1.1" id="Layer_1" xmlns="http://www.w3.org/2000/svg" xmlns:xlink="http://www.w3.org/1999/xlink" x="0px" y="0px"
	 width="48px" height="48px" viewBox="0 0 48 48" enable-background="new 0 0 48 48" xml:space="preserve">
<path fill="#231F20" d="M39.923,8.645c-0.101-0.245-0.297-0.44-0.542-0.541c-0.089-0.037-0.184-0.047-0.278-0.057
	c-0.035-0.004-0.065-0.02-0.101-0.021L25.002,8C25.001,8,25.001,8,25,8c-0.552,0-0.999,0.446-1,0.998S24.445,9.999,24.998,10
	l11.591,0.022L6,40.587V28.961c0-0.552-0.447-1-1-1s-1,0.448-1,1v14.037c0,0.131,0.026,0.261,0.077,0.384
	c0.101,0.245,0.296,0.44,0.541,0.541C4.74,43.973,4.87,44,5,44h14c0.553,0,1-0.448,1-1s-0.447-1-1-1H7.416L38,11.441V23
	c0,0.552,0.447,1,1,1s1-0.448,1-1V9.029C40,8.898,39.974,8.768,39.923,8.645z"/>
<g id="nyt_x5F_exporter_x5F_info" display="none">
</g>
</svg>
