<?xml version="1.0" encoding="utf-8"?>
<!-- Generator: Adobe Illustrator 17.0.0, SVG Export Plug-In . SVG Version: 6.00 Build 0)  -->
<!DOCTYPE svg PUBLIC "-//W3C//DTD SVG 1.1//EN" "http://www.w3.org/Graphics/SVG/1.1/DTD/svg11.dtd">
<svg version="1.1" id="Layer_1" xmlns="http://www.w3.org/2000/svg" xmlns:xlink="http://www.w3.org/1999/xlink" x="0px" y="0px"
	 width="48px" height="48px" viewBox="0 0 48 48" enable-background="new 0 0 48 48" xml:space="preserve">
<path fill="#231F20" d="M37.706,8.292C37.518,8.105,37.265,8,37,8c-0.002,0-0.002,0-0.004,0l-8,0.031
	C28.444,8.033,27.998,8.483,28,9.035c0.002,0.551,0.449,0.996,1,0.996c0.001,0,0.002,0,0.004,0l5.616-0.022L6,38.588V33
	c0-0.552-0.448-1-1-1s-1,0.448-1,1v7.998c0,0.131,0.026,0.262,0.077,0.385c0.037,0.089,0.097,0.163,0.157,0.237
	c0.022,0.028,0.032,0.061,0.058,0.087c0.017,0.017,0.041,0.023,0.059,0.039c0.081,0.07,0.166,0.135,0.267,0.177
	C4.74,41.973,4.87,42,5,42h7.938c0.553,0,1-0.448,1-1s-0.448-1-1-1H7.416L36,11.458V17c0,0.552,0.448,1,1,1s1-0.448,1-1V9
	C38,8.734,37.894,8.479,37.706,8.292z"/>
<g id="nyt_x5F_exporter_x5F_info" display="none">
</g>
</svg>
