<?xml version="1.0" encoding="utf-8"?>
<!-- Generator: Adobe Illustrator 17.0.0, SVG Export Plug-In . SVG Version: 6.00 Build 0)  -->
<!DOCTYPE svg PUBLIC "-//W3C//DTD SVG 1.1//EN" "http://www.w3.org/Graphics/SVG/1.1/DTD/svg11.dtd">
<svg version="1.1" id="Layer_1" xmlns="http://www.w3.org/2000/svg" xmlns:xlink="http://www.w3.org/1999/xlink" x="0px" y="0px"
	 width="48px" height="48px" viewBox="0 0 48 48" enable-background="new 0 0 48 48" xml:space="preserve">
<path fill="#231F20" d="M47.921,25.457c0.103-0.246,0.104-0.523,0.002-0.769c-0.051-0.125-0.126-0.236-0.221-0.33l-9.975-10.014
	c-0.39-0.392-1.022-0.394-1.414-0.003c-0.391,0.39-0.393,1.023-0.002,1.414l8.278,8.311L3.375,24.027l8.351-8.318
	c0.391-0.39,0.393-1.023,0.002-1.414c-0.39-0.392-1.022-0.394-1.414-0.003l-10.02,9.98c-0.202,0.201-0.296,0.467-0.29,0.731
	C0.004,25.01,0,25.016,0,25.024c-0.001,0.337,0.176,0.62,0.431,0.802l9.841,9.88C10.467,35.902,10.723,36,10.98,36
	c0.255,0,0.511-0.097,0.707-0.291c0.391-0.39,0.393-1.023,0.002-1.414l-8.235-8.268l41.128,0.039l-8.308,8.275
	c-0.391,0.39-0.393,1.023-0.002,1.414c0.195,0.196,0.451,0.294,0.708,0.294c0.255,0,0.511-0.097,0.707-0.291l10.02-9.98
	c0.07-0.07,0.112-0.154,0.157-0.236C47.881,25.513,47.908,25.49,47.921,25.457z"/>
<g id="nyt_x5F_exporter_x5F_info" display="none">
</g>
</svg>
