<?xml version="1.0" encoding="utf-8"?>
<!-- Generator: Adobe Illustrator 17.0.0, SVG Export Plug-In . SVG Version: 6.00 Build 0)  -->
<!DOCTYPE svg PUBLIC "-//W3C//DTD SVG 1.1//EN" "http://www.w3.org/Graphics/SVG/1.1/DTD/svg11.dtd">
<svg version="1.1" id="Layer_1" xmlns="http://www.w3.org/2000/svg" xmlns:xlink="http://www.w3.org/1999/xlink" x="0px" y="0px"
	 width="48px" height="48px" viewBox="0 0 48 48" enable-background="new 0 0 48 48" xml:space="preserve">
<path fill="#231F20" d="M48,25.079c0,0,0-0.001,0-0.001c0-0.02-0.01-0.037-0.012-0.057c-0.006-0.11-0.023-0.22-0.065-0.324
	c-0.051-0.124-0.125-0.236-0.219-0.329L41.72,18.36c-0.39-0.392-1.024-0.393-1.414-0.003c-0.392,0.39-0.393,1.023-0.003,1.414
	l4.288,4.304L3.375,24.035l4.343-4.326c0.392-0.39,0.393-1.023,0.003-1.414c-0.389-0.391-1.023-0.392-1.414-0.003L0.295,24.28
	c-0.202,0.201-0.296,0.466-0.29,0.729C0.004,25.017,0,25.024,0,25.032c-0.001,0.336,0.176,0.619,0.43,0.801l5.85,5.873
	C6.475,31.902,6.732,32,6.988,32c0.256,0,0.511-0.097,0.707-0.291c0.392-0.39,0.393-1.023,0.003-1.414l-4.244-4.26l41.127,0.039
	l-4.298,4.282c-0.392,0.39-0.393,1.023-0.003,1.414c0.195,0.196,0.451,0.294,0.708,0.294c0.256,0,0.511-0.097,0.705-0.291
	l6.012-5.988c0,0,0,0,0-0.001c0.092-0.092,0.166-0.202,0.217-0.325C47.973,25.339,48,25.209,48,25.079z"/>
<g id="nyt_x5F_exporter_x5F_info" display="none">
</g>
</svg>
