<?xml version="1.0" encoding="utf-8"?>
<!-- Generator: Adobe Illustrator 17.0.0, SVG Export Plug-In . SVG Version: 6.00 Build 0)  -->
<!DOCTYPE svg PUBLIC "-//W3C//DTD SVG 1.1//EN" "http://www.w3.org/Graphics/SVG/1.1/DTD/svg11.dtd">
<svg version="1.1" id="Layer_1" xmlns="http://www.w3.org/2000/svg" xmlns:xlink="http://www.w3.org/1999/xlink" x="0px" y="0px"
	 width="48px" height="48px" viewBox="0 0 48 48" enable-background="new 0 0 48 48" xml:space="preserve">
<g>
	<path fill="#231F20" d="M22.999,0C10.342,0,0.024,10.298,0,22.956C-0.012,29.1,2.369,34.88,6.704,39.232
		C11.039,43.584,16.81,45.988,22.956,46c0.001,0,0.045,0,0.045,0C35.658,46,45.976,35.702,46,23.044
		C46.024,10.362,35.727,0.024,22.999,0z M23.001,43.999v1l-0.041-1c-5.612-0.011-10.881-2.205-14.839-6.179
		C4.163,33.847,1.989,28.569,2,22.959C2.022,11.402,11.442,2,23.04,2C34.62,2.023,44.022,11.461,44,23.041
		C43.977,34.598,34.558,44,23.001,43.999z"/>
	<path fill="#231F20" d="M25.02,12.004L21.001,12H21c-0.265,0-0.52,0.106-0.707,0.292C20.105,12.48,20,12.734,20,13v22
		c0,0.552,0.447,1,1,1h4c0.552,0,0.999-0.447,1-0.999l0.019-21.996C26.02,12.453,25.573,12.005,25.02,12.004z M24.001,34H22V14.001
		l2.019,0.002L24.001,34z"/>
</g>
<g id="nyt_x5F_exporter_x5F_info" display="none">
</g>
</svg>
