<?xml version="1.0" encoding="utf-8"?>
<!-- Generator: Adobe Illustrator 17.0.0, SVG Export Plug-In . SVG Version: 6.00 Build 0)  -->
<!DOCTYPE svg PUBLIC "-//W3C//DTD SVG 1.1//EN" "http://www.w3.org/Graphics/SVG/1.1/DTD/svg11.dtd">
<svg version="1.1" id="Layer_1" xmlns="http://www.w3.org/2000/svg" xmlns:xlink="http://www.w3.org/1999/xlink" x="0px" y="0px"
	 width="48px" height="48px" viewBox="0 0 48 48" enable-background="new 0 0 48 48" xml:space="preserve">
<g>
	<path fill="#231F20" d="M30.41,13.837c-0.512-0.213-1.096,0.027-1.309,0.536c-0.213,0.509,0.027,1.095,0.536,1.309
		c4.483,1.879,7.373,6.234,7.364,11.094c-0.006,3.205-1.261,6.216-3.532,8.478c-2.266,2.257-5.272,3.499-8.468,3.499
		c-0.007,0-0.015,0-0.023,0c-6.617-0.013-11.99-5.407-11.977-12.023c0.009-4.834,2.894-9.169,7.35-11.044
		c0.509-0.214,0.748-0.8,0.534-1.309c-0.216-0.51-0.802-0.748-1.31-0.534C14.376,16.03,11.011,21.087,11,26.726
		c-0.015,7.719,6.253,14.011,13.973,14.026c0.009,0,0.018,0,0.027,0c3.729,0,7.237-1.449,9.879-4.08
		c2.651-2.64,4.114-6.153,4.121-9.892C39.011,21.111,35.639,16.03,30.41,13.837z"/>
	<path fill="#231F20" d="M25.004,24.752h0.002c0.551,0,0.999-0.446,1-0.998l0.025-13c0.001-0.552-0.446-1.001-0.998-1.002
		c-0.001,0-0.002,0-0.002,0c-0.551,0-0.999,0.446-1,0.998l-0.025,13C24.004,24.302,24.451,24.751,25.004,24.752z"/>
</g>
<g id="nyt_x5F_exporter_x5F_info" display="none">
</g>
</svg>
