<?xml version="1.0" encoding="utf-8"?>
<!-- Generator: Adobe Illustrator 17.0.0, SVG Export Plug-In . SVG Version: 6.00 Build 0)  -->
<!DOCTYPE svg PUBLIC "-//W3C//DTD SVG 1.1//EN" "http://www.w3.org/Graphics/SVG/1.1/DTD/svg11.dtd">
<svg version="1.1" id="Layer_1" xmlns="http://www.w3.org/2000/svg" xmlns:xlink="http://www.w3.org/1999/xlink" x="0px" y="0px"
	 width="48px" height="48px" viewBox="0 0 48 48" enable-background="new 0 0 48 48" xml:space="preserve">
<g>
	<path fill="#010101" d="M22.999,0C10.342,0,0.024,10.298,0,22.956c-0.012,6.143,2.369,11.923,6.705,16.276
		c4.336,4.352,10.107,6.756,16.251,6.768c0.001,0,0.045,0,0.045,0C35.658,46,45.976,35.702,46,23.044
		C46.024,10.362,35.727,0.024,22.999,0z M23.001,44v1l-0.041-1c-5.609-0.011-10.879-2.206-14.838-6.18
		C4.163,33.847,1.989,28.569,2,22.959C2.022,11.402,11.442,2,23.04,2C34.62,2.023,44.022,11.461,44,23.041
		C43.977,34.598,34.558,44,23.001,44z"/>
	<path fill="#010101" d="M23.02,12c0,0,0,0-0.001,0c-0.552,0-0.999,0.446-1,0.998l-0.037,19C21.981,32.55,22.427,32.999,22.98,33
		c0.001,0,0.001,0,0.002,0c0.552,0,0.999-0.446,1-0.998l0.037-19C24.02,12.45,23.574,12.001,23.02,12z"/>
</g>
<g id="nyt_x5F_exporter_x5F_info" display="none">
</g>
</svg>
