<?xml version="1.0" encoding="utf-8"?>
<!-- Generator: Adobe Illustrator 17.0.0, SVG Export Plug-In . SVG Version: 6.00 Build 0)  -->
<!DOCTYPE svg PUBLIC "-//W3C//DTD SVG 1.1//EN" "http://www.w3.org/Graphics/SVG/1.1/DTD/svg11.dtd">
<svg version="1.1" id="Layer_1" xmlns="http://www.w3.org/2000/svg" xmlns:xlink="http://www.w3.org/1999/xlink" x="0px" y="0px"
	 width="48px" height="48px" viewBox="0 0 48 48" enable-background="new 0 0 48 48" xml:space="preserve">
<g>
	<path fill="#010101" d="M23,30.698H12.807c0.488-0.63,1.029-1.293,1.646-1.999h3.548c0.378,0,0.725-0.214,0.894-0.553
		s0.133-0.744-0.095-1.047l-6-8c-0.189-0.252-0.485-0.4-0.8-0.4H1c-0.44,0-0.83,0.289-0.956,0.711
		c-0.128,0.422,0.035,0.877,0.402,1.122l1.943,1.295C1.723,22.61,1,23.88,1,25.699c0,2.033,2.252,6.605,5.434,12.841l0.755,1.482
		c0.276,1.031,0.794,1.529,0.898,1.621c0.086,0.076,0.185,0.131,0.288,0.172c0.908,0.939,2.508,1.884,3.625,1.884h11
		c0.552,0,1-0.447,1-1.001v-11C24,31.146,23.552,30.698,23,30.698z M3,25.699c0-2.147,1.468-3.112,1.522-3.148
		C4.813,22.373,4.993,22.059,5,21.718s-0.161-0.662-0.445-0.851l-0.252-0.168v-0.001H11.5l4.5,6h-2
		c-0.286,0-0.558,0.123-0.748,0.336c-3.445,3.876-5.115,6.842-5.813,9.072C5.369,32.028,3,27.214,3,25.699z M21.999,41.698h-10
		c-0.552,0-1.955-0.879-2.375-1.477l-0.523-1.132l-0.052,0.024c-0.124-0.994,0.088-3.021,2.32-6.415h10.631V41.698z"/>
	<path fill="#010101" d="M47.597,23.653l-6.373-9.215c-0.315-0.454-0.937-0.569-1.391-0.253l-8.673,5.998
		c-0.454,0.314-0.567,0.937-0.253,1.391l5.821,8.417c-0.866-0.031-1.765-0.084-2.728-0.185v-2.107c0-0.44-0.289-0.829-0.71-0.956
		c-0.42-0.129-0.877,0.036-1.122,0.402l-6,9c-0.209,0.313-0.225,0.717-0.04,1.045l5.629,10c0.18,0.319,0.516,0.509,0.872,0.509
		c0.072,0,0.144-0.008,0.215-0.024c0.43-0.095,0.747-0.459,0.782-0.898l0.259-3.279c0.408,0.118,0.884,0.203,1.408,0.203
		c0.98,0,1.905-0.296,2.751-0.881c1.537-1.063,4.566-5.642,9.001-13.607c0.604-0.703,0.786-1.307,0.843-1.578
		C48.323,26.504,48.372,24.773,47.597,23.653z M36.906,41.175c-0.505,0.349-1.048,0.526-1.613,0.526
		c-0.965,0-1.71-0.507-1.711-0.508c-0.294-0.21-0.678-0.245-1.004-0.093c-0.327,0.152-0.546,0.469-0.575,0.828l-0.112,1.42
		l-3.719-6.605l3.86-5.79c0.101,0.388,0.431,0.688,0.846,0.739c1.81,0.221,3.493,0.333,5.002,0.333c2.443,0,4.291-0.293,5.687-0.729
		C40.368,36.846,37.938,40.461,36.906,41.175z M39.161,29.991l-6.041-8.734l7.028-4.86l5.804,8.393
		c0.307,0.444,0.332,1.525,0.096,2.094l-0.124,0.227l-0.516,0.932C44.729,28.745,43.062,29.799,39.161,29.991z"/>
	<path fill="#010101" d="M35.89,14.155l5-9.789c0.187-0.367,0.13-0.811-0.143-1.119c-0.274-0.309-0.707-0.417-1.094-0.275
		L36.65,4.08c-0.356-0.962-1.146-2.248-2.892-3.071C33.229,0.759,31.621,0,21.378,0c-1.458,0-2.874,0.016-4.16,0.039l0-0.003
		l-0.403,0.01c-0.116,0.002-0.239,0.004-0.352,0.006c-0.382-0.026-0.596,0.016-0.667,0.031c-0.004,0.001-0.007,0.004-0.011,0.005
		c-1.242,0.185-2.824,1.074-3.401,2.297l-4.78,10.133c-0.113,0.24-0.126,0.515-0.037,0.765c0.09,0.249,0.275,0.453,0.515,0.566
		l9.537,4.499c0.138,0.065,0.283,0.096,0.426,0.096c0.375,0,0.734-0.212,0.905-0.573l4.189-8.879
		c0.493,0.909,0.999,1.933,1.514,3.096c-0.517,0.402-0.769,0.571-0.865,0.633c-0.451,0.097-0.789,0.497-0.789,0.977
		c0,0.266,0.107,0.525,0.295,0.713s0.46,0.298,0.725,0.298c0.04-0.001,0.086-0.004,0.133-0.01h10.847
		C35.375,14.7,35.719,14.49,35.89,14.155z M17.568,16.114l-7.729-3.646l4.354-9.228c0.235-0.498,1.208-1.096,1.83-1.177l0.014,0
		l0.366-0.008c0.59,0.063,2.739,0.607,5.504,4.861L17.568,16.114z M26.831,12.699c0.071-0.223,0.063-0.47-0.033-0.697
		c-2.3-5.387-4.543-8.364-6.395-10C20.725,2.001,21.051,2,21.378,2c8.84,0,11.006,0.572,11.527,0.817
		c1.902,0.897,2.036,2.573,2.04,2.633c0.014,0.319,0.179,0.612,0.445,0.789c0.267,0.176,0.6,0.214,0.9,0.105l1.656-0.611
		l-3.558,6.966H26.831z"/>
</g>
<g id="nyt_x5F_exporter_x5F_info" display="none">
</g>
</svg>
