<?xml version="1.0" encoding="utf-8"?>
<!-- Generator: Adobe Illustrator 17.0.0, SVG Export Plug-In . SVG Version: 6.00 Build 0)  -->
<!DOCTYPE svg PUBLIC "-//W3C//DTD SVG 1.1//EN" "http://www.w3.org/Graphics/SVG/1.1/DTD/svg11.dtd">
<svg version="1.1" id="Layer_1" xmlns="http://www.w3.org/2000/svg" xmlns:xlink="http://www.w3.org/1999/xlink" x="0px" y="0px"
	 width="48px" height="48px" viewBox="0 0 48 48" enable-background="new 0 0 48 48" xml:space="preserve">
<path fill="#231F20" d="M25.289,4.75c-5.462,0.191-10.456,2.512-14.062,6.533c-3.15,3.513-4.941,8.09-5.234,13.122l-4.16-6.266
	c-0.305-0.46-0.925-0.585-1.386-0.28c-0.46,0.305-0.586,0.926-0.28,1.386l5.982,9.011c0.029,0.044,0.078,0.068,0.113,0.106
	c0.045,0.05,0.09,0.096,0.144,0.135c0.056,0.041,0.113,0.073,0.177,0.101c0.07,0.032,0.141,0.051,0.219,0.067
	c0.04,0.008,0.073,0.032,0.114,0.035c0.022,0.001,0.045,0.002,0.067,0.002c0.014,0,0.026-0.008,0.041-0.009
	c0.016,0,0.029,0.007,0.044,0.006c0.084-0.006,0.156-0.04,0.233-0.065c0.036-0.012,0.073-0.014,0.107-0.03
	c0.143-0.065,0.265-0.159,0.361-0.279l6.981-7.946c0.365-0.415,0.324-1.047-0.091-1.412c-0.415-0.365-1.048-0.323-1.412,0.091
	l-5.294,6.027c0.161-4.804,1.804-9.165,4.764-12.466c3.24-3.613,7.73-5.697,12.643-5.869c9.906-0.351,18.271,7.444,18.616,17.363
	c0.17,4.805-1.543,9.387-4.823,12.904c-3.28,3.516-7.732,5.545-12.538,5.712c-0.552,0.019-0.984,0.482-0.965,1.034
	c0.019,0.54,0.462,0.965,0.999,0.965c0.012,0,0.024,0,0.036,0c5.34-0.186,10.287-2.44,13.931-6.347
	c3.644-3.908,5.547-9,5.359-14.338C45.59,13.022,36.324,4.385,25.289,4.75z"/>
<g id="nyt_x5F_exporter_x5F_info" display="none">
</g>
</svg>
