<?xml version="1.0" encoding="utf-8"?>
<!-- Generator: Adobe Illustrator 17.0.0, SVG Export Plug-In . SVG Version: 6.00 Build 0)  -->
<!DOCTYPE svg PUBLIC "-//W3C//DTD SVG 1.1//EN" "http://www.w3.org/Graphics/SVG/1.1/DTD/svg11.dtd">
<svg version="1.1" id="Layer_1" xmlns="http://www.w3.org/2000/svg" xmlns:xlink="http://www.w3.org/1999/xlink" x="0px" y="0px"
	 width="48px" height="48px" viewBox="0 0 48 48" enable-background="new 0 0 48 48" xml:space="preserve">
<path fill="#231F20" d="M44.451,19.01c-2.271-2.27-5.271-3.523-8.448-3.529c-0.006,0-0.01,0-0.016,0
	c-5.54,0-9.257,5.815-12.85,11.439c-3.304,5.169-6.72,10.515-11.166,10.515c-0.004,0-0.007,0-0.011,0
	c-2.672-0.005-5.18-1.05-7.066-2.943c-1.885-1.892-2.92-4.405-2.915-7.076c0.011-5.508,4.495-9.981,10.001-9.981
	c0.006,0,0.013,0,0.019,0c3.454,0.007,5.832,2.739,7.071,4.634l-4.843-0.925c-0.544-0.101-1.066,0.252-1.17,0.795
	c-0.103,0.543,0.252,1.067,0.795,1.17l6.946,1.326c0.063,0.012,0.126,0.018,0.188,0.018c0.001,0,0.002,0,0.003,0
	c0.001,0,0.003-0.001,0.004-0.001c0.121-0.001,0.238-0.03,0.352-0.074c0.012-0.005,0.024-0.003,0.035-0.007
	c0.017-0.007,0.028-0.022,0.044-0.031c0.042-0.02,0.086-0.033,0.125-0.059c0.033-0.022,0.052-0.057,0.082-0.083
	c0.045-0.039,0.085-0.078,0.122-0.124c0.043-0.053,0.078-0.108,0.11-0.169c0.029-0.056,0.051-0.111,0.069-0.171
	c0.01-0.032,0.031-0.059,0.037-0.092l1.324-6.947c0.103-0.543-0.253-1.067-0.795-1.17c-0.55-0.102-1.066,0.253-1.17,0.795
	l-0.817,4.287c-1.531-2.228-4.335-5.163-8.509-5.171c-0.008,0-0.016,0-0.023,0c-6.606,0-11.988,5.368-12.001,11.977
	c-0.006,3.205,1.236,6.221,3.498,8.492c2.262,2.271,5.273,3.525,8.479,3.531c0.006,0,0.01,0,0.016,0
	c5.54,0,9.257-5.814,12.85-11.438c3.304-5.169,6.72-10.515,11.166-10.515c0.004,0,0.007,0,0.011,0
	c2.644,0.005,5.143,1.05,7.039,2.943c1.901,1.901,2.946,4.414,2.941,7.076c-0.011,5.508-4.494,9.981-10,9.981
	c-0.005,0-0.012,0-0.018,0c-5.337-0.01-8.025-4.348-8.135-4.531c-0.283-0.473-0.899-0.63-1.371-0.345
	c-0.475,0.283-0.629,0.897-0.346,1.371c0.134,0.225,3.357,5.492,9.848,5.505c0.007,0,0.015,0,0.022,0
	c6.607,0,11.988-5.368,12.001-11.978C47.985,24.306,46.732,21.289,44.451,19.01z"/>
<g id="nyt_x5F_exporter_x5F_info" display="none">
</g>
</svg>
