<?xml version="1.0" encoding="utf-8"?>
<!-- Generator: Adobe Illustrator 17.0.0, SVG Export Plug-In . SVG Version: 6.00 Build 0)  -->
<!DOCTYPE svg PUBLIC "-//W3C//DTD SVG 1.1//EN" "http://www.w3.org/Graphics/SVG/1.1/DTD/svg11.dtd">
<svg version="1.1" id="Layer_1" xmlns="http://www.w3.org/2000/svg" xmlns:xlink="http://www.w3.org/1999/xlink" x="0px" y="0px"
	 width="48px" height="48px" viewBox="0 0 48 48" enable-background="new 0 0 48 48" xml:space="preserve">
<g>
	<path fill="#231F20" d="M47,28H1c-0.552,0-1,0.448-1,1s0.448,1,1,1h21v14.586l-4.293-4.293c-0.391-0.391-1.023-0.391-1.414,0
		c-0.391,0.391-0.391,1.023,0,1.414l6,6c0.092,0.092,0.203,0.165,0.325,0.216C22.74,47.973,22.87,48,23,48s0.26-0.027,0.382-0.077
		c0.122-0.051,0.233-0.124,0.325-0.216l6-6c0.391-0.391,0.391-1.023,0-1.414c-0.391-0.391-1.023-0.391-1.414,0L24,44.586V30h23
		c0.552,0,1-0.448,1-1S47.552,28,47,28z"/>
	<path fill="#231F20" d="M1,22h46c0.552,0,1-0.448,1-1s-0.448-1-1-1H24V3.414l4.293,4.293C28.488,7.902,28.744,8,29,8
		s0.512-0.098,0.707-0.293c0.391-0.391,0.391-1.023,0-1.414l-6-6c-0.391-0.391-1.023-0.391-1.414,0l-6,6
		c-0.391,0.391-0.391,1.023,0,1.414c0.391,0.391,1.023,0.391,1.414,0L22,3.414V20H1c-0.552,0-1,0.448-1,1S0.448,22,1,22z"/>
</g>
<g id="nyt_x5F_exporter_x5F_info" display="none">
</g>
</svg>
