<?xml version="1.0" encoding="utf-8"?>
<!-- Generator: Adobe Illustrator 17.0.0, SVG Export Plug-In . SVG Version: 6.00 Build 0)  -->
<!DOCTYPE svg PUBLIC "-//W3C//DTD SVG 1.1//EN" "http://www.w3.org/Graphics/SVG/1.1/DTD/svg11.dtd">
<svg version="1.1" id="Layer_1" xmlns="http://www.w3.org/2000/svg" xmlns:xlink="http://www.w3.org/1999/xlink" x="0px" y="0px"
	 width="48px" height="48px" viewBox="0 0 48 48" enable-background="new 0 0 48 48" xml:space="preserve">
<g>
	<path fill="#231F20" d="M16.278,30.28L2,44.583V37c0-0.552-0.447-1-1-1s-1,0.448-1,1v10v0c0,0.131,0.026,0.261,0.077,0.383
		c0.051,0.122,0.124,0.232,0.216,0.325c0,0,0,0,0,0c0.004,0.004,0.009,0.005,0.013,0.009c0.089,0.086,0.194,0.158,0.31,0.206
		C0.74,47.973,0.869,48,1,48h10c0.553,0,1-0.448,1-1s-0.447-1-1-1H3.412l14.282-14.307c0.39-0.391,0.39-1.024-0.002-1.414
		C17.303,29.888,16.669,29.888,16.278,30.28z"/>
	<path fill="#231F20" d="M48,1.001C48,1,48,0.999,48,0.998v0c0-0.005-0.003-0.009-0.003-0.013c-0.002-0.125-0.025-0.249-0.074-0.366
		c-0.05-0.122-0.123-0.233-0.218-0.328c-0.016-0.016-0.038-0.021-0.055-0.035C47.462,0.092,47.233,0,46.998,0c0,0-0.001,0-0.001,0
		l-9.956,0.025c-0.552,0.001-0.998,0.45-0.997,1.002s0.449,0.998,1,0.998c0.001,0,0.002,0,0.003,0l7.536-0.019L30.306,16.308
		c-0.39,0.391-0.39,1.024,0.002,1.414c0.194,0.195,0.45,0.292,0.706,0.292c0.255,0,0.512-0.098,0.708-0.294L46.006,3.411
		l0.019,7.636c0.001,0.551,0.449,0.997,1,0.997c0.001,0,0.002,0,0.003,0c0.552-0.001,0.998-0.45,0.997-1.002L48,1.001z"/>
</g>
<g id="nyt_x5F_exporter_x5F_info" display="none">
</g>
</svg>
