<?xml version="1.0" encoding="utf-8"?>
<!-- Generator: Adobe Illustrator 17.0.0, SVG Export Plug-In . SVG Version: 6.00 Build 0)  -->
<!DOCTYPE svg PUBLIC "-//W3C//DTD SVG 1.1//EN" "http://www.w3.org/Graphics/SVG/1.1/DTD/svg11.dtd">
<svg version="1.1" id="Layer_1" xmlns="http://www.w3.org/2000/svg" xmlns:xlink="http://www.w3.org/1999/xlink" x="0px" y="0px"
	 width="48px" height="48px" viewBox="0 0 48 48" enable-background="new 0 0 48 48" xml:space="preserve">
<g>
	<path fill="#231F20" d="M16.294,30.266L2,44.505V37c0-0.552-0.448-1-1-1s-1,0.448-1,1v9.907c0,0.003,0,0.005,0,0.008V47
		c0,0.552,0.448,1,1,1h10c0.552,0,1-0.448,1-1s-0.448-1-1-1H3.332l14.373-14.317c0.392-0.39,0.393-1.023,0.003-1.414
		C17.318,29.877,16.685,29.877,16.294,30.266z"/>
	<path fill="#231F20" d="M47,0H37c-0.552,0-1,0.448-1,1s0.448,1,1,1h7.667L30.294,16.318c-0.392,0.39-0.393,1.023-0.003,1.414
		c0.196,0.197,0.453,0.295,0.709,0.295c0.255,0,0.511-0.097,0.705-0.292L46,3.495V11c0,0.552,0.448,1,1,1s1-0.448,1-1V1
		C48,0.448,47.552,0,47,0z"/>
	<path fill="#231F20" d="M3.416,2H11c0.552,0,1-0.448,1-1s-0.448-1-1-1H1c0,0,0,0-0.001,0C0.869,0,0.739,0.027,0.616,0.078
		C0.495,0.128,0.384,0.202,0.293,0.294c0,0,0,0-0.001,0c-0.008,0.008-0.011,0.02-0.019,0.029c-0.081,0.087-0.15,0.185-0.196,0.296
		C0.026,0.741,0,0.872,0,1.003V11c0,0.552,0.448,1,1,1s1-0.448,1-1V3.412l14.32,14.296C16.516,17.902,16.771,18,17.027,18
		c0.256,0,0.512-0.098,0.707-0.293c0.39-0.391,0.39-1.024-0.001-1.414L3.416,2z"/>
	<path fill="#231F20" d="M47,36c-0.552,0-1,0.448-1,1v7.668L31.682,30.295c-0.39-0.392-1.024-0.393-1.414-0.003
		c-0.392,0.39-0.393,1.023-0.003,1.414L44.505,46H37c-0.552,0-1,0.448-1,1s0.448,1,1,1h10c0.552,0,1-0.448,1-1V37
		C48,36.448,47.552,36,47,36z"/>
</g>
<g id="nyt_x5F_exporter_x5F_info" display="none">
</g>
</svg>
