<?xml version="1.0" encoding="utf-8"?>
<!-- Generator: Adobe Illustrator 17.0.0, SVG Export Plug-In . SVG Version: 6.00 Build 0)  -->
<!DOCTYPE svg PUBLIC "-//W3C//DTD SVG 1.1//EN" "http://www.w3.org/Graphics/SVG/1.1/DTD/svg11.dtd">
<svg version="1.1" id="Layer_1" xmlns="http://www.w3.org/2000/svg" xmlns:xlink="http://www.w3.org/1999/xlink" x="0px" y="0px"
	 width="48px" height="48px" viewBox="0 0 48 48" enable-background="new 0 0 48 48" xml:space="preserve">
<g>
	<path fill="#231F20" d="M17.7,30.288c-0.002-0.002-0.002-0.004-0.004-0.006c-0.212-0.213-0.494-0.3-0.771-0.282H6.956
		c-0.552,0-1,0.448-1,1s0.448,1,1,1h7.598L0.251,46.248c-0.392,0.39-0.393,1.023-0.003,1.414c0.195,0.196,0.452,0.294,0.708,0.294
		c0.255,0,0.51-0.098,0.705-0.292L16.003,33.38l0.009,7.607c0,0.552,0.448,0.999,1,0.999c0.553,0,1-0.448,1-1.001L18,30.999
		C18,30.72,17.884,30.469,17.7,30.288z"/>
	<path fill="#231F20" d="M47.752,0.339c-0.39-0.392-1.023-0.392-1.414-0.003L32,14.62V7c0-0.552-0.448-1-1-1s-1,0.448-1,1v10
		c0,0.279,0.115,0.53,0.299,0.711c0.003,0.003,0.003,0.006,0.006,0.009c0.195,0.196,0.452,0.294,0.708,0.294
		c0.025,0,0.048-0.012,0.072-0.014H41c0.552,0,1-0.448,1-1s-0.448-1-1-1h-7.552L47.749,1.753C48.141,1.363,48.142,0.73,47.752,0.339
		z"/>
</g>
<g id="nyt_x5F_exporter_x5F_info" display="none">
</g>
</svg>
