<?xml version="1.0" encoding="utf-8"?>
<!-- Generator: Adobe Illustrator 17.0.0, SVG Export Plug-In . SVG Version: 6.00 Build 0)  -->
<!DOCTYPE svg PUBLIC "-//W3C//DTD SVG 1.1//EN" "http://www.w3.org/Graphics/SVG/1.1/DTD/svg11.dtd">
<svg version="1.1" id="Layer_1" xmlns="http://www.w3.org/2000/svg" xmlns:xlink="http://www.w3.org/1999/xlink" x="0px" y="0px"
	 width="48px" height="48px" viewBox="0 0 48 48" enable-background="new 0 0 48 48" xml:space="preserve">
<g>
	<path fill="#231F20" d="M30.046,17.439c0.042,0.101,0.107,0.187,0.177,0.268c0.015,0.018,0.021,0.04,0.038,0.057
		c0.029,0.029,0.066,0.04,0.097,0.064c0.071,0.056,0.141,0.115,0.226,0.15c0.123,0.052,0.254,0.079,0.386,0.079
		c0.002,0,0.003-0.001,0.005-0.001l9.993,0.02c0.001,0,0.002,0,0.002,0c0.552,0,0.999-0.446,1-0.999
		c0.001-0.552-0.446-1.001-0.998-1.002l-7.585-0.014L47.705,1.797c0.392-0.39,0.393-1.023,0.003-1.414
		c-0.39-0.392-1.023-0.392-1.414-0.003l-14.32,14.267l0.014-7.588c0.001-0.552-0.446-1.001-0.999-1.002h-0.001
		c-0.551,0-0.999,0.446-1,0.998l-0.019,10c0,0,0,0.001,0,0.001C29.969,17.187,29.995,17.317,30.046,17.439z"/>
	<path fill="#231F20" d="M17.863,30.645c-0.013-0.031-0.039-0.053-0.054-0.082c-0.045-0.083-0.087-0.167-0.157-0.237
		c-0.033-0.033-0.075-0.047-0.111-0.074c-0.068-0.053-0.133-0.109-0.214-0.143c-0.114-0.047-0.235-0.069-0.356-0.073
		c-0.01,0-0.018-0.006-0.028-0.006l-10-0.019H6.942c-0.551,0-0.999,0.446-1,0.998c-0.001,0.552,0.446,1.001,0.998,1.002l7.588,0.014
		L0.207,46.292c-0.392,0.39-0.393,1.023-0.003,1.414C0.399,47.902,0.656,48,0.912,48c0.255,0,0.51-0.097,0.705-0.291l14.32-14.264
		l-0.014,7.584c-0.001,0.552,0.446,1.001,0.998,1.002c0.001,0,0.002,0,0.002,0c0.552,0,0.999-0.446,0.999-0.998l0.019-9.986
		C17.943,30.91,17.917,30.774,17.863,30.645z"/>
	<path fill="#231F20" d="M33.354,32.062l7.586,0.014h0.002c0.551,0,0.999-0.446,1-0.998c0.001-0.552-0.446-1.001-0.998-1.002
		l-10.001-0.019h-0.001c-0.066,0-0.126,0.025-0.189,0.038c-0.063,0.012-0.127,0.013-0.187,0.037c-0.122,0.05-0.234,0.122-0.33,0.217
		c-0.095,0.095-0.168,0.207-0.218,0.328c-0.042,0.103-0.058,0.212-0.064,0.321c-0.001,0.02-0.011,0.038-0.011,0.058l-0.019,10
		c-0.001,0.552,0.446,1.001,0.998,1.002c0.001,0,0.002,0,0.002,0c0.552,0,0.999-0.447,1-0.999l0.014-7.586l14.267,14.321
		c0.195,0.196,0.452,0.294,0.708,0.294c0.255,0,0.51-0.097,0.705-0.291c0.392-0.39,0.393-1.023,0.003-1.414L33.354,32.062z"/>
	<path fill="#231F20" d="M16.988,6.031L16.988,6.031c-0.552,0-1,0.446-1.001,0.998l-0.014,7.585L1.709,0.295
		c-0.39-0.392-1.023-0.393-1.414-0.003c-0.392,0.39-0.393,1.023-0.003,1.414l14.266,14.32L6.97,16.012H6.969
		c-0.551,0-0.999,0.446-1,0.998s0.446,1.001,0.998,1.002l10,0.019c0.001,0,0.002,0,0.002,0c0.13,0,0.26-0.027,0.382-0.077
		c0.102-0.042,0.19-0.108,0.272-0.18c0.016-0.014,0.036-0.019,0.052-0.034c0.005-0.005,0.006-0.011,0.011-0.016
		c0.086-0.089,0.157-0.191,0.205-0.307c0.053-0.126,0.079-0.259,0.078-0.393l0.019-9.992C17.988,6.481,17.541,6.032,16.988,6.031z"
		/>
	<path fill="#231F20" d="M23.955,19.044c-2.752,0-4.995,2.239-5,4.991c-0.005,2.757,2.234,5.004,4.991,5.009c0,0,0.009,0,0.01,0
		c2.752,0,4.995-2.239,4.998-4.99c0.002-1.335-0.515-2.592-1.457-3.538C26.555,19.569,25.3,19.047,23.955,19.044z M23.956,27.044v1
		l-0.006-1c-1.655-0.003-2.998-1.351-2.995-3.005c0.004-1.652,1.349-2.995,3.006-2.995c0.802,0.001,1.555,0.315,2.119,0.883
		c0.566,0.568,0.876,1.322,0.875,2.123C26.952,25.701,25.607,27.044,23.956,27.044z"/>
</g>
<g id="nyt_x5F_exporter_x5F_info" display="none">
</g>
</svg>
