<?xml version="1.0" encoding="utf-8"?>
<!-- Generator: Adobe Illustrator 17.0.0, SVG Export Plug-In . SVG Version: 6.00 Build 0)  -->
<!DOCTYPE svg PUBLIC "-//W3C//DTD SVG 1.1//EN" "http://www.w3.org/Graphics/SVG/1.1/DTD/svg11.dtd">
<svg version="1.1" id="Layer_1" xmlns="http://www.w3.org/2000/svg" xmlns:xlink="http://www.w3.org/1999/xlink" x="0px" y="0px"
	 width="48px" height="48px" viewBox="0 0 48 48" enable-background="new 0 0 48 48" xml:space="preserve">
<g>
	<path fill="#231F20" d="M30.038,17.137c0.011,0.086,0.018,0.173,0.051,0.255c0.05,0.122,0.123,0.235,0.218,0.33
		c0.094,0.094,0.206,0.167,0.327,0.217c0.121,0.05,0.25,0.075,0.379,0.075h0.001L41.001,18c0.553-0.001,1-0.449,0.999-1.001
		S41.552,16,41,16h-0.002l-7.561,0.011L47.75,1.753c0.392-0.39,0.393-1.023,0.003-1.414c-0.39-0.392-1.024-0.392-1.414-0.003
		L32.01,14.61L32,6.999C31.999,6.447,31.552,6,31,6h-0.002C30.446,6.001,29.999,6.449,30,7.002l0.014,10.013
		C30.014,17.057,30.033,17.096,30.038,17.137z"/>
	<path fill="#231F20" d="M17.698,30.287c-0.002-0.002-0.002-0.004-0.003-0.005c-0.212-0.213-0.494-0.3-0.771-0.282H7
		c-0.552,0-1,0.448-1,1s0.448,1,1,1h7.553L0.25,46.248c-0.392,0.39-0.393,1.023-0.003,1.414c0.196,0.196,0.453,0.294,0.709,0.294
		c0.255,0,0.51-0.098,0.705-0.292L16,33.381V41c0,0.552,0.448,1,1,1s1-0.448,1-1V31C18,30.72,17.884,30.469,17.698,30.287z"/>
	<path fill="#231F20" d="M33.38,32H41c0.552,0,1-0.448,1-1s-0.448-1-1-1H31c-0.279,0-0.53,0.116-0.712,0.3
		c-0.002,0.002-0.005,0.003-0.007,0.005c-0.215,0.213-0.301,0.498-0.281,0.778V41c0,0.552,0.448,1,1,1s1-0.448,1-1v-7.552
		L46.248,47.75c0.195,0.196,0.452,0.294,0.708,0.294c0.255,0,0.51-0.097,0.705-0.291c0.392-0.39,0.393-1.023,0.003-1.414L33.38,32z"
		/>
	<path fill="#231F20" d="M18,7c0-0.552-0.448-1-1-1s-1,0.448-1,1v7.552L1.753,0.25c-0.39-0.392-1.024-0.392-1.414-0.003
		c-0.392,0.39-0.393,1.023-0.003,1.414L14.62,16H7c-0.552,0-1,0.448-1,1s0.448,1,1,1h10c0.279,0,0.531-0.116,0.712-0.3
		c0.002-0.002,0.005-0.003,0.007-0.005c0.215-0.213,0.301-0.498,0.281-0.778V7z"/>
</g>
<g id="nyt_x5F_exporter_x5F_info" display="none">
</g>
</svg>
