<?xml version="1.0" encoding="utf-8"?>
<!-- Generator: Adobe Illustrator 17.0.0, SVG Export Plug-In . SVG Version: 6.00 Build 0)  -->
<!DOCTYPE svg PUBLIC "-//W3C//DTD SVG 1.1//EN" "http://www.w3.org/Graphics/SVG/1.1/DTD/svg11.dtd">
<svg version="1.1" id="Layer_1" xmlns="http://www.w3.org/2000/svg" xmlns:xlink="http://www.w3.org/1999/xlink" x="0px" y="0px"
	 width="48px" height="48px" viewBox="0 0 48 48" enable-background="new 0 0 48 48" xml:space="preserve">
<path fill="#231F20" d="M45.553,22.095h-0.086l-5.747-5.77c-0.39-0.392-1.022-0.394-1.414-0.003
	c-0.391,0.39-0.393,1.023-0.002,1.414l4.342,4.359H24.002l0.04-21.093C24.043,0.45,23.596,0.001,23.044,0c-0.001,0-0.001,0-0.002,0
	c-0.552,0-0.999,0.446-1,0.998l-0.04,21.097H3.283l4.435-4.417c0.391-0.39,0.393-1.023,0.002-1.414
	c-0.39-0.392-1.022-0.394-1.414-0.003l-6.012,5.988c-0.391,0.39-0.393,1.023-0.002,1.414l5.988,6.012
	c0.195,0.196,0.451,0.294,0.708,0.294c0.255,0,0.511-0.097,0.706-0.292c0.391-0.39,0.393-1.023,0.002-1.414l-4.152-4.168h18.453
	l-0.04,20.903c-0.001,0.552,0.446,1.001,0.998,1.002c0.001,0,0.001,0,0.002,0c0.552,0,0.999-0.446,1-0.998l0.04-20.907h18.528
	l-4.244,4.227c-0.391,0.39-0.393,1.023-0.002,1.414c0.195,0.197,0.451,0.295,0.708,0.295c0.255,0,0.511-0.097,0.706-0.292
	l5.667-5.644h0.192c0.552,0,1-0.448,1-1S46.106,22.095,45.553,22.095z"/>
<g id="nyt_x5F_exporter_x5F_info" display="none">
</g>
</svg>
