<?xml version="1.0" encoding="utf-8"?>
<!-- Generator: Adobe Illustrator 17.0.0, SVG Export Plug-In . SVG Version: 6.00 Build 0)  -->
<!DOCTYPE svg PUBLIC "-//W3C//DTD SVG 1.1//EN" "http://www.w3.org/Graphics/SVG/1.1/DTD/svg11.dtd">
<svg version="1.1" id="Layer_1" xmlns="http://www.w3.org/2000/svg" xmlns:xlink="http://www.w3.org/1999/xlink" x="0px" y="0px"
	 width="48px" height="48px" viewBox="0 0 48 48" enable-background="new 0 0 48 48" xml:space="preserve">
<g>
	<path fill="#231F20" d="M23.999,29.044c2.753,0,4.996-2.238,5.001-4.991c0.005-2.756-2.233-5.004-5-5.009
		c-2.752,0-4.995,2.238-5,4.99c-0.005,2.757,2.233,5.005,4.99,5.01C23.991,29.044,23.999,29.044,23.999,29.044z M21,24.038
		c0.003-1.651,1.349-2.994,3.006-2.994c1.654,0.004,2.997,1.352,2.994,3.005c-0.003,1.652-1.349,2.995-3.001,2.995v1l-0.005-1
		C22.34,27.04,20.997,25.692,21,24.038z"/>
	<path fill="#231F20" d="M47.707,23.384l-8.982-9.018c-0.39-0.392-1.022-0.394-1.414-0.003c-0.391,0.39-0.393,1.023-0.002,1.414
		l8.276,8.309l-8.309,8.277c-0.391,0.389-0.393,1.023-0.002,1.414c0.195,0.196,0.451,0.294,0.708,0.294
		c0.255,0,0.511-0.097,0.705-0.291l9.018-8.982C48.096,24.408,48.098,23.775,47.707,23.384z"/>
	<path fill="#231F20" d="M10.726,14.313c-0.39-0.392-1.022-0.394-1.414-0.003l-9.018,8.982c-0.391,0.39-0.393,1.023-0.002,1.414
		l8.982,9.017c0.195,0.197,0.451,0.295,0.708,0.295c0.255,0,0.511-0.098,0.707-0.291c0.391-0.39,0.393-1.023,0.002-1.414
		l-8.276-8.309l8.309-8.277C11.115,15.337,11.117,14.704,10.726,14.313z"/>
	<path fill="#231F20" d="M24.752,0.339c-0.39-0.392-1.022-0.394-1.414-0.003l-9.017,8.983c-0.391,0.39-0.393,1.023-0.002,1.414
		c0.389,0.391,1.021,0.393,1.414,0.003l8.308-8.277l8.278,8.309c0.195,0.196,0.451,0.294,0.708,0.294
		c0.255,0,0.511-0.098,0.706-0.292c0.391-0.39,0.393-1.023,0.002-1.414L24.752,0.339z"/>
	<path fill="#231F20" d="M32.267,37.353l-8.308,8.277l-8.278-8.309c-0.39-0.392-1.022-0.394-1.414-0.003
		c-0.391,0.39-0.393,1.023-0.002,1.414l8.983,9.018c0.186,0.188,0.44,0.294,0.706,0.294c0.001,0,0.001,0,0.002,0
		c0.265,0,0.519-0.104,0.706-0.291l9.017-8.983c0.391-0.39,0.393-1.023,0.002-1.414C33.291,36.965,32.659,36.962,32.267,37.353z"/>
</g>
<g id="nyt_x5F_exporter_x5F_info" display="none">
</g>
</svg>
