<?xml version="1.0" encoding="utf-8"?>
<!-- Generator: Adobe Illustrator 17.0.0, SVG Export Plug-In . SVG Version: 6.00 Build 0)  -->
<!DOCTYPE svg PUBLIC "-//W3C//DTD SVG 1.1//EN" "http://www.w3.org/Graphics/SVG/1.1/DTD/svg11.dtd">
<svg version="1.1" id="Layer_1" xmlns="http://www.w3.org/2000/svg" xmlns:xlink="http://www.w3.org/1999/xlink" x="0px" y="0px"
	 width="48px" height="48px" viewBox="0 0 48 48" enable-background="new 0 0 48 48" xml:space="preserve">
<g>
	<path fill="#231F20" d="M24,21.647c-2.752,0-4.995,2.239-5,4.99c-0.005,2.757,2.233,5.005,4.99,5.01c0.001,0,0.009,0,0.009,0
		c2.753,0,4.996-2.239,5.001-4.991c0.002-1.335-0.516-2.592-1.458-3.538C26.599,22.172,25.345,21.649,24,21.647z M23.999,29.647v1
		l-0.005-1c-1.654-0.003-2.997-1.352-2.994-3.006c0.003-1.651,1.349-2.994,3.006-2.994c0.801,0.001,1.554,0.315,2.119,0.883
		c0.565,0.567,0.876,1.321,0.875,2.122C26.997,28.304,25.651,29.647,23.999,29.647z"/>
	<path fill="#231F20" d="M47.677,25.955L35.698,14.932c-0.291-0.269-0.718-0.339-1.077-0.18c-0.365,0.159-0.599,0.518-0.6,0.914
		l-0.043,22c-0.001,0.397,0.233,0.757,0.596,0.917c0.13,0.057,0.267,0.085,0.404,0.085c0.246,0,0.487-0.09,0.674-0.262
		l12.022-10.977c0.207-0.189,0.325-0.456,0.326-0.736C48.001,26.413,47.884,26.145,47.677,25.955z M35.984,35.397l0.033-17.454
		l9.504,8.745L35.984,35.397z"/>
	<path fill="#231F20" d="M13.425,14.712c-0.363-0.161-0.787-0.092-1.078,0.176L0.326,25.865C0.119,26.054,0.001,26.321,0,26.601
		c-0.001,0.28,0.116,0.547,0.323,0.737l11.978,11.024c0.188,0.173,0.431,0.264,0.677,0.264c0.136,0,0.273-0.028,0.4-0.083
		c0.365-0.159,0.599-0.518,0.6-0.914l0.043-22C14.022,15.232,13.788,14.872,13.425,14.712z M11.983,35.351l-9.504-8.745l9.537-8.709
		L11.983,35.351z"/>
</g>
<g id="nyt_x5F_exporter_x5F_info" display="none">
</g>
</svg>
