<?xml version="1.0" encoding="utf-8"?>
<!-- Generator: Adobe Illustrator 17.0.0, SVG Export Plug-In . SVG Version: 6.00 Build 0)  -->
<!DOCTYPE svg PUBLIC "-//W3C//DTD SVG 1.1//EN" "http://www.w3.org/Graphics/SVG/1.1/DTD/svg11.dtd">
<svg version="1.1" id="Layer_1" xmlns="http://www.w3.org/2000/svg" xmlns:xlink="http://www.w3.org/1999/xlink" x="0px" y="0px"
	 width="48px" height="48px" viewBox="0 0 48 48" enable-background="new 0 0 48 48" xml:space="preserve">
<g>
	<path fill="#231F20" d="M19.955,23.99c-0.003,1.336,0.515,2.593,1.457,3.539c0.943,0.946,2.197,1.469,3.533,1.471
		c0.001,0,0.01,0,0.01,0c2.751,0,4.994-2.238,5-4.99c0.005-2.757-2.234-5.005-5.001-5.01C22.202,19,19.96,21.239,19.955,23.99z
		 M27.955,24.005c-0.004,1.652-1.35,2.995-3,2.995v1l-0.006-1c-0.802-0.002-1.555-0.315-2.12-0.883s-0.876-1.322-0.874-2.123
		C21.958,22.343,23.304,21,24.96,21C26.614,21.003,27.958,22.352,27.955,24.005z"/>
	<path fill="#231F20" d="M13.974,13.979l22,0.043c0.001,0,0.001,0,0.002,0c0.395,0,0.754-0.234,0.915-0.596
		c0.16-0.363,0.091-0.786-0.177-1.079L25.737,0.326C25.549,0.119,25.281,0.001,25.001,0C25,0,25,0,24.999,0
		c-0.279,0-0.547,0.117-0.736,0.323L13.24,12.302c-0.268,0.292-0.339,0.715-0.18,1.078S13.578,13.978,13.974,13.979z M24.996,2.48
		l8.708,9.537l-17.453-0.034L24.996,2.48z"/>
	<path fill="#231F20" d="M35.935,34.021l-22-0.043c-0.001,0-0.001,0-0.002,0c-0.396,0-0.755,0.234-0.915,0.596
		c-0.16,0.363-0.091,0.786,0.177,1.079l10.977,12.021C24.36,47.881,24.628,48,24.908,48c0.001,0,0.001,0,0.002,0
		c0.279,0,0.547-0.117,0.735-0.323l11.023-11.979c0.269-0.292,0.34-0.715,0.181-1.078S36.332,34.022,35.935,34.021z M24.913,45.52
		l-8.708-9.537l17.453,0.034L24.913,45.52z"/>
</g>
<g id="nyt_x5F_exporter_x5F_info" display="none">
</g>
</svg>
