<?xml version="1.0" encoding="utf-8"?>
<!-- Generator: Adobe Illustrator 17.0.0, SVG Export Plug-In . SVG Version: 6.00 Build 0)  -->
<!DOCTYPE svg PUBLIC "-//W3C//DTD SVG 1.1//EN" "http://www.w3.org/Graphics/SVG/1.1/DTD/svg11.dtd">
<svg version="1.1" id="Layer_1" xmlns="http://www.w3.org/2000/svg" xmlns:xlink="http://www.w3.org/1999/xlink" x="0px" y="0px"
	 width="48px" height="48px" viewBox="0 0 48 48" enable-background="new 0 0 48 48" xml:space="preserve">
<g>
	<path fill="#231F20" d="M24,29c2.751,0,4.995-2.239,5-4.99c0.006-2.757-2.232-5.005-5-5.01c-2.751,0-4.995,2.239-5,4.99
		c-0.006,2.757,2.233,5.005,4.99,5.01H24z M21,23.994C21.004,22.343,22.349,21,24.006,21c1.654,0.003,2.997,1.352,2.994,3.006
		C26.996,25.657,25.65,27,24,27v1l-0.006-1C22.34,26.997,20.997,25.648,21,23.994z"/>
	<path fill="#231F20" d="M47.671,23.302l-9.983-9.019c-0.294-0.265-0.716-0.332-1.076-0.172c-0.361,0.16-0.594,0.517-0.595,0.912
		l-0.035,18c-0.001,0.395,0.231,0.754,0.591,0.915c0.132,0.058,0.271,0.087,0.409,0.087c0.242,0,0.481-0.088,0.668-0.255
		l10.018-8.981c0.211-0.19,0.333-0.459,0.333-0.743C48.001,23.763,47.882,23.493,47.671,23.302z M37.987,30.782l0.026-13.51
		l7.493,6.77L37.987,30.782z"/>
	<path fill="#231F20" d="M11.426,14.063c-0.361-0.162-0.783-0.095-1.076,0.168l-10.017,8.98C0.122,23.401,0,23.67,0,23.954
		c0,0.283,0.119,0.553,0.33,0.744l9.982,9.019c0.187,0.17,0.427,0.258,0.67,0.258c0.138,0,0.275-0.028,0.405-0.085
		c0.361-0.16,0.594-0.517,0.595-0.912l0.035-18C12.018,14.582,11.786,14.224,11.426,14.063z M9.987,30.728l-7.492-6.769l7.518-6.74
		L9.987,30.728z"/>
	<path fill="#231F20" d="M24.789,0.333C24.6,0.122,24.33,0.001,24.046,0c0,0-0.001,0-0.002,0c-0.282,0-0.552,0.12-0.74,0.329
		l-9.02,9.983c-0.265,0.293-0.332,0.715-0.172,1.076s0.517,0.594,0.912,0.595l18,0.035h0.001c0.394,0,0.751-0.232,0.912-0.591
		c0.162-0.36,0.096-0.782-0.168-1.076L24.789,0.333z M17.272,9.987l6.77-7.493l6.74,7.519L17.272,9.987z"/>
	<path fill="#231F20" d="M32.978,36.018l-18-0.035c0,0-0.001,0-0.002,0c-0.394,0-0.752,0.231-0.913,0.591
		c-0.162,0.36-0.096,0.782,0.168,1.076l8.98,10.018C23.4,47.878,23.67,48,23.954,48c0,0,0.001,0,0.002,0
		c0.282,0,0.552-0.12,0.742-0.329l9.02-9.982c0.265-0.293,0.332-0.715,0.172-1.076C33.73,36.252,33.373,36.019,32.978,36.018z
		 M23.958,45.506l-6.74-7.519l13.509,0.027L23.958,45.506z"/>
</g>
<g id="nyt_x5F_exporter_x5F_info" display="none">
</g>
</svg>
