<?xml version="1.0" encoding="utf-8"?>
<!-- Generator: Adobe Illustrator 17.0.0, SVG Export Plug-In . SVG Version: 6.00 Build 0)  -->
<!DOCTYPE svg PUBLIC "-//W3C//DTD SVG 1.1//EN" "http://www.w3.org/Graphics/SVG/1.1/DTD/svg11.dtd">
<svg version="1.1" id="Layer_1" xmlns="http://www.w3.org/2000/svg" xmlns:xlink="http://www.w3.org/1999/xlink" x="0px" y="0px"
	 width="48px" height="48px" viewBox="0 0 48 48" enable-background="new 0 0 48 48" xml:space="preserve">
<g>
	<path fill="#231F20" d="M19.955,23.99c-0.005,2.757,2.233,5.005,4.99,5.01c0.001,0,0.01,0,0.01,0c2.752,0,4.995-2.239,5-4.99
		c0.005-2.757-2.233-5.005-5-5.01C22.203,19,19.96,21.239,19.955,23.99z M27.955,24.006c-0.003,1.651-1.349,2.994-3,2.994v1
		l-0.006-1c-1.654-0.004-2.997-1.352-2.994-3.006C21.958,22.343,23.304,21,24.961,21C26.615,21.003,27.958,22.352,27.955,24.006z"/>
	<path fill="#231F20" d="M14.685,12.688L24.996,2.414L35.27,12.728c0.195,0.196,0.451,0.294,0.708,0.294
		c0.255,0,0.511-0.098,0.706-0.293c0.391-0.39,0.393-1.023,0.002-1.414L25.707,0.294C25.52,0.106,25.267,0.001,25.001,0
		c-0.29,0.015-0.52,0.105-0.708,0.292l-11.02,10.979c-0.391,0.39-0.393,1.023-0.002,1.414C13.66,13.076,14.292,13.078,14.685,12.688
		z"/>
	<path fill="#231F20" d="M35.225,35.313L24.914,45.586L14.64,35.274c-0.39-0.392-1.022-0.394-1.414-0.003
		c-0.391,0.39-0.393,1.023-0.002,1.414l10.979,11.021C24.398,47.902,24.654,48,24.911,48c0.255,0,0.511-0.097,0.706-0.291
		l11.02-10.979c0.391-0.39,0.393-1.023,0.002-1.414C36.249,34.925,35.617,34.923,35.225,35.313z"/>
</g>
<g id="nyt_x5F_exporter_x5F_info" display="none">
</g>
</svg>
