<?xml version="1.0" encoding="utf-8"?>
<!-- Generator: Adobe Illustrator 17.0.0, SVG Export Plug-In . SVG Version: 6.00 Build 0)  -->
<!DOCTYPE svg PUBLIC "-//W3C//DTD SVG 1.1//EN" "http://www.w3.org/Graphics/SVG/1.1/DTD/svg11.dtd">
<svg version="1.1" id="Layer_1" xmlns="http://www.w3.org/2000/svg" xmlns:xlink="http://www.w3.org/1999/xlink" x="0px" y="0px"
	 width="48px" height="48px" viewBox="0 0 48 48" enable-background="new 0 0 48 48" xml:space="preserve">
<g>
	<path fill="#231F20" d="M0.978,14h10.998c5.262,0.01,8.066,6.293,8.093,6.356c0.164,0.376,0.532,0.601,0.918,0.601
		c0.133,0,0.268-0.027,0.397-0.083c0.506-0.22,0.739-0.808,0.52-1.314c-0.134-0.308-3.344-7.547-9.926-7.56h-11
		c-0.553,0-1,0.448-1,1S0.425,14,0.978,14z"/>
	<path fill="#231F20" d="M35.987,13.987c0.004,0,0.008,0,0.011,0l9.131,0.018l-2.972,4.439c-0.308,0.459-0.185,1.08,0.274,1.387
		C42.602,19.945,42.796,20,42.987,20c0.323,0,0.639-0.156,0.832-0.443l4.012-5.992c0.023-0.034,0.033-0.072,0.051-0.107
		c0.017-0.034,0.034-0.065,0.048-0.101c0.084-0.225,0.085-0.468,0.001-0.693c-0.013-0.035-0.03-0.066-0.046-0.099
		c-0.018-0.036-0.028-0.075-0.051-0.109l-3.988-6.008c-0.306-0.46-0.925-0.588-1.386-0.28c-0.461,0.305-0.586,0.926-0.28,1.386
		l2.955,4.451l-9.132-0.018c-0.005,0-0.01,0-0.015,0c-5.542,0-9.253,5.831-12.842,11.47C19.846,28.64,16.435,34,11.989,34
		c-0.004,0-0.007,0-0.011,0h-11c-0.553,0-1,0.448-1,1s0.447,1,1,1h10.998c0.006,0,0.01,0,0.016,0c5.541,0,9.252-5.831,12.841-11.469
		C28.131,19.347,31.543,13.987,35.987,13.987z"/>
	<path fill="#231F20" d="M47.889,34.666c-0.014-0.038-0.032-0.072-0.05-0.107c-0.017-0.034-0.027-0.07-0.048-0.102l-3.989-6.008
		c-0.305-0.46-0.926-0.586-1.386-0.28c-0.461,0.306-0.586,0.926-0.28,1.386l2.954,4.449l-9.13-0.017
		c-5.38-0.01-9.121-5.517-9.158-5.573c-0.306-0.458-0.929-0.584-1.386-0.277c-0.459,0.306-0.585,0.925-0.279,1.385
		c0.174,0.263,4.358,6.454,10.819,6.466l9.131,0.017l-2.972,4.44c-0.308,0.459-0.185,1.08,0.274,1.387
		C42.56,41.945,42.754,42,42.945,42c0.323,0,0.639-0.156,0.832-0.443l4.012-5.992c0.024-0.035,0.034-0.075,0.053-0.112
		c0.016-0.032,0.032-0.062,0.045-0.095C47.972,35.133,47.972,34.89,47.889,34.666z"/>
</g>
<g id="nyt_x5F_exporter_x5F_info" display="none">
</g>
</svg>
