<?xml version="1.0" encoding="utf-8"?>
<!-- Generator: Adobe Illustrator 17.0.0, SVG Export Plug-In . SVG Version: 6.00 Build 0)  -->
<!DOCTYPE svg PUBLIC "-//W3C//DTD SVG 1.1//EN" "http://www.w3.org/Graphics/SVG/1.1/DTD/svg11.dtd">
<svg version="1.1" id="Layer_1" xmlns="http://www.w3.org/2000/svg" xmlns:xlink="http://www.w3.org/1999/xlink" x="0px" y="0px"
	 width="48px" height="48px" viewBox="0 0 48 48" enable-background="new 0 0 48 48" xml:space="preserve">
<g>
	<path fill="#231F20" d="M13.626,21.091c-0.425-0.357-1.055-0.3-1.409,0.123l-4.665,5.564c-0.509-3.611,0.188-7.22,2.056-10.336
		c2.244-3.745,6-6.471,10.304-7.48c5.749-1.348,11.751,0.568,15.662,5.002c0.366,0.413,0.996,0.453,1.412,0.088
		c0.414-0.366,0.453-0.998,0.088-1.412c-4.399-4.988-11.152-7.144-17.618-5.627c-4.828,1.131-9.043,4.193-11.563,8.4
		c-1.938,3.234-2.757,6.932-2.432,10.666l-3.629-5.428c-0.307-0.459-0.929-0.583-1.387-0.276c-0.46,0.307-0.583,0.928-0.276,1.387
		l5.559,8.313c0.175,0.262,0.463,0.426,0.777,0.443c0.018,0.001,0.036,0.001,0.054,0.001c0.294,0,0.575-0.13,0.767-0.355L13.75,22.5
		C14.105,22.076,14.049,21.445,13.626,21.091z"/>
	<path fill="#231F20" d="M46.96,29.339l-5.556-8.313c-0.174-0.262-0.463-0.426-0.777-0.443c-0.307-0.012-0.617,0.115-0.82,0.356
		l-6.428,7.664c-0.355,0.424-0.299,1.054,0.124,1.409c0.423,0.356,1.054,0.301,1.409-0.123l4.49-5.353
		c0.249,7.236-4.742,13.835-12.186,15.579c-5.396,1.264-10.973-0.31-14.92-4.215c-0.394-0.389-1.026-0.385-1.415,0.007
		c-0.389,0.393-0.386,1.026,0.007,1.415c3.43,3.393,7.954,5.223,12.634,5.223c1.378,0,2.769-0.159,4.151-0.483
		c8.334-1.952,13.937-9.322,13.732-17.436l3.893,5.826c0.193,0.288,0.51,0.444,0.833,0.444c0.191,0,0.384-0.055,0.553-0.17
		C47.143,30.419,47.267,29.798,46.96,29.339z"/>
</g>
<g id="nyt_x5F_exporter_x5F_info" display="none">
</g>
</svg>
