<?xml version="1.0" encoding="utf-8"?>
<!-- Generator: Adobe Illustrator 17.0.0, SVG Export Plug-In . SVG Version: 6.00 Build 0)  -->
<!DOCTYPE svg PUBLIC "-//W3C//DTD SVG 1.1//EN" "http://www.w3.org/Graphics/SVG/1.1/DTD/svg11.dtd">
<svg version="1.1" id="Layer_1" xmlns="http://www.w3.org/2000/svg" xmlns:xlink="http://www.w3.org/1999/xlink" x="0px" y="0px"
	 width="48px" height="48px" viewBox="0 0 48 48" enable-background="new 0 0 48 48" xml:space="preserve">
<g>
	<path fill="#231F20" d="M13.495,20.907c-0.425-0.355-1.055-0.299-1.409,0.124l-4.615,5.506c-0.43-3.736,0.351-7.426,2.297-10.572
		c2.259-3.651,5.816-6.204,10.017-7.188c5.75-1.35,11.751,0.568,15.662,5.002c0.365,0.414,0.996,0.453,1.412,0.088
		c0.414-0.366,0.453-0.997,0.088-1.412c-4.399-4.987-11.149-7.14-17.618-5.626c-4.722,1.106-8.721,3.977-11.261,8.084
		c-2.057,3.326-2.95,7.187-2.649,11.115l-3.717-5.56c-0.306-0.46-0.929-0.583-1.387-0.276c-0.46,0.307-0.583,0.928-0.276,1.387
		l5.559,8.313c0.175,0.262,0.463,0.426,0.777,0.443c0.018,0.001,0.036,0.001,0.054,0.001c0.295,0,0.575-0.13,0.766-0.356
		l6.424-7.664C13.973,21.893,13.918,21.262,13.495,20.907z"/>
	<path fill="#231F20" d="M46.831,29.156l-5.556-8.313c-0.174-0.262-0.462-0.426-0.777-0.443c-0.307-0.015-0.617,0.115-0.82,0.356
		l-6.427,7.664c-0.355,0.424-0.299,1.054,0.124,1.409c0.424,0.355,1.054,0.299,1.409-0.123l4.46-5.318
		c0.173,7.339-4.724,13.802-12.157,15.543c-5.396,1.265-10.974-0.31-14.921-4.215c-0.392-0.388-1.025-0.385-1.414,0.008
		c-0.388,0.393-0.385,1.025,0.008,1.414c3.429,3.394,7.954,5.223,12.634,5.223c1.377,0,2.769-0.158,4.149-0.483
		c8.363-1.959,13.876-9.226,13.699-17.485l3.926,5.876c0.193,0.288,0.51,0.444,0.833,0.444c0.191,0,0.384-0.055,0.554-0.17
		C47.014,30.236,47.138,29.615,46.831,29.156z"/>
	<path fill="#231F20" d="M19.908,20.824c-1.953,1.947-1.959,5.119-0.013,7.073c0.945,0.948,2.202,1.47,3.541,1.47
		c1.332,0,2.585-0.517,3.529-1.457c1.953-1.946,1.959-5.119,0.013-7.073c-0.946-0.948-2.203-1.469-3.542-1.469
		C22.105,19.368,20.852,19.885,19.908,20.824z M25.553,26.494c-1.136,1.13-3.112,1.126-4.242-0.007
		c-1.168-1.173-1.164-3.077,0.008-4.244c0.566-0.564,1.318-0.874,2.117-0.874c0.804,0,1.559,0.313,2.125,0.881
		C26.728,23.423,26.724,25.327,25.553,26.494z"/>
</g>
<g id="nyt_x5F_exporter_x5F_info" display="none">
</g>
</svg>
