<?xml version="1.0" encoding="utf-8"?>
<!-- Generator: Adobe Illustrator 17.0.0, SVG Export Plug-In . SVG Version: 6.00 Build 0)  -->
<!DOCTYPE svg PUBLIC "-//W3C//DTD SVG 1.1//EN" "http://www.w3.org/Graphics/SVG/1.1/DTD/svg11.dtd">
<svg version="1.1" id="Layer_1" xmlns="http://www.w3.org/2000/svg" xmlns:xlink="http://www.w3.org/1999/xlink" x="0px" y="0px"
	 width="48px" height="48px" viewBox="0 0 48 48" enable-background="new 0 0 48 48" xml:space="preserve">
<g>
	<path fill="#231F20" d="M24.196,26.052c0.197,0.265,0.499,0.405,0.805,0.405c0.207,0,0.415-0.064,0.595-0.197
		c0.443-0.329,0.537-0.955,0.208-1.399L10.653,4.404c-0.329-0.443-0.955-0.538-1.399-0.208C8.81,4.525,8.717,5.151,9.045,5.595
		L24.196,26.052z"/>
	<path fill="#231F20" d="M31.353,6.489c-0.526-0.174-1.09,0.108-1.266,0.63c-0.176,0.524,0.106,1.091,0.63,1.266
		c7.362,2.466,12.297,9.341,12.282,17.107c-0.009,4.808-1.89,9.324-5.297,12.718c-3.398,3.384-7.908,5.247-12.702,5.247
		c-0.011,0-0.023,0-0.035,0C15.04,43.437,6.981,35.347,7,25.422c0.007-3.355,0.943-6.629,2.707-9.468
		c0.292-0.469,0.148-1.085-0.321-1.377c-0.469-0.294-1.085-0.148-1.377,0.321C6.048,18.053,5.007,21.691,5,25.419
		c-0.021,11.027,8.934,20.017,19.961,20.038c0.013,0,0.026,0,0.039,0c5.327,0,10.338-2.07,14.114-5.83
		c3.785-3.771,5.876-8.789,5.886-14.131C45.017,16.867,39.533,9.228,31.353,6.489z"/>
	<path fill="#231F20" d="M24.035,8.455h0.002c1.1,0,1.998-0.895,1.999-1.996c0.002-1.103-0.895-2.002-2-2.004
		c-1.101,0-1.998,0.895-2,1.996c0,0.534,0.207,1.037,0.583,1.415C22.997,8.245,23.499,8.454,24.035,8.455z M24.035,6.456
		l0.002-0.001l-0.002,1V6.456z"/>
</g>
<g id="nyt_x5F_exporter_x5F_info" display="none">
</g>
</svg>
