<?xml version="1.0" encoding="utf-8"?>
<!-- Generator: Adobe Illustrator 17.0.0, SVG Export Plug-In . SVG Version: 6.00 Build 0)  -->
<!DOCTYPE svg PUBLIC "-//W3C//DTD SVG 1.1//EN" "http://www.w3.org/Graphics/SVG/1.1/DTD/svg11.dtd">
<svg version="1.1" id="Layer_1" xmlns="http://www.w3.org/2000/svg" xmlns:xlink="http://www.w3.org/1999/xlink" x="0px" y="0px"
	 width="48px" height="48px" viewBox="0 0 48 48" enable-background="new 0 0 48 48" xml:space="preserve">
<g>
	<path fill="#231F20" d="M38.014,19.025c0-0.552-0.447-1-0.999-1L3.562,18.002L14.714,7.716c0.407-0.374,0.432-1.007,0.058-1.413
		c-0.374-0.405-1.006-0.432-1.413-0.057L0.327,18.265c-0.303,0.279-0.403,0.715-0.254,1.099C0.223,19.747,0.593,20,1.004,20
		l36.011,0.025C37.566,20.025,38.015,19.578,38.014,19.025z"/>
	<path fill="#231F20" d="M47.927,28.681c-0.15-0.384-0.519-0.637-0.931-0.637L11.006,28h-0.001c-0.552,0-0.999,0.447-1,0.999
		S10.451,30,11.004,30l33.431,0.042L33.296,40.283c-0.407,0.374-0.434,1.007-0.06,1.413c0.197,0.214,0.466,0.323,0.736,0.323
		c0.242,0,0.484-0.087,0.676-0.264L47.672,29.78C47.976,29.501,48.076,29.065,47.927,28.681z"/>
</g>
<g id="nyt_x5F_exporter_x5F_info" display="none">
</g>
</svg>
