<?xml version="1.0" encoding="utf-8"?>
<!-- Generator: Adobe Illustrator 17.0.0, SVG Export Plug-In . SVG Version: 6.00 Build 0)  -->
<!DOCTYPE svg PUBLIC "-//W3C//DTD SVG 1.1//EN" "http://www.w3.org/Graphics/SVG/1.1/DTD/svg11.dtd">
<svg version="1.1" id="Layer_2" xmlns="http://www.w3.org/2000/svg" xmlns:xlink="http://www.w3.org/1999/xlink" x="0px" y="0px"
	 width="60px" height="60px" viewBox="0 0 60 60" enable-background="new 0 0 60 60" xml:space="preserve">
<g>
	<path fill="#010101" d="M44.002,29c3.017,0,5.79,1.043,7.998,2.774V13c0-0.553-0.448-1-1-1h-3V7c0-0.553-0.448-1-1-1H14V1
		c0-0.553-0.448-1-1-1H1C0.448,0,0,0.447,0,1v40c0,2.663,2.336,5,5,5h26.636C31.227,44.739,31,43.397,31,42.001
		C31,34.832,36.832,29,44.002,29z M8,13v28c0,1.322-1.413,3-3,3c-1.542,0-3-1.458-3-3V2h10v5c0,0.553,0.448,1,1,1h33v4H9
		C8.448,12,8,12.447,8,13z"/>
	<path fill="#010101" d="M59.707,58.293l-6.825-6.825l-1.413-1.413C53.634,48.044,55,45.183,55,42.001
		C55,35.935,50.066,31,44.002,31C37.935,31,33,35.935,33,42.001c0,6.065,4.935,11,11.002,11c2.159,0,4.169-0.635,5.871-1.714
		l1.448,1.448l6.972,6.972C58.488,59.902,58.744,60,59,60c0.256,0,0.512-0.098,0.707-0.293
		C60.098,59.316,60.098,58.684,59.707,58.293z M44.002,51.001c-4.964,0-9.002-4.037-9.002-9C35,37.038,39.038,33,44.002,33
		C48.963,33,53,37.038,53,42.001C53,46.964,48.963,51.001,44.002,51.001z"/>
</g>
</svg>
