<?xml version="1.0" encoding="utf-8"?>
<!-- Generator: Adobe Illustrator 17.0.0, SVG Export Plug-In . SVG Version: 6.00 Build 0)  -->
<!DOCTYPE svg PUBLIC "-//W3C//DTD SVG 1.1//EN" "http://www.w3.org/Graphics/SVG/1.1/DTD/svg11.dtd">
<svg version="1.1" id="Layer_2" xmlns="http://www.w3.org/2000/svg" xmlns:xlink="http://www.w3.org/1999/xlink" x="0px" y="0px"
	 width="60px" height="60px" viewBox="0 0 60 60" enable-background="new 0 0 60 60" xml:space="preserve">
<path fill="#010101" d="M59,15h-7v-5c0-0.553-0.448-1-1-1H20V6c0-0.553-0.448-1-1-1H1C0.448,5,0,5.447,0,6v42c0,4.056,2.944,7,7,7
	h44c4.71,0,9-4.248,9-8.913V16C60,15.447,59.552,15,59,15z M49.752,44.543C49.568,44.828,49.252,45,48.913,45H23.695
	c-0.386,0-0.737-0.222-0.903-0.571c-0.166-0.349-0.116-0.761,0.128-1.06l6.305-7.739c0.295-0.362,0.803-0.471,1.223-0.263
	l4.345,2.173l7.057-8.233c0.223-0.26,0.564-0.398,0.902-0.339c0.339,0.049,0.629,0.268,0.769,0.58l6.305,14.043
	C49.964,43.899,49.937,44.259,49.752,44.543z M24,28c0-2.757,2.243-5,5-5c2.757,0,5,2.243,5,5c0,2.757-2.243,5-5,5
	C26.243,33,24,30.757,24,28z M12,48c0,3.037-1.962,5-5,5c-2.944,0-5-2.056-5-5V7h16v3c0,0.553,0.448,1,1,1h31v4H13
	c-0.552,0-1,0.447-1,1V48z"/>
</svg>
