<?xml version="1.0" encoding="utf-8"?>
<!-- Generator: Adobe Illustrator 17.0.0, SVG Export Plug-In . SVG Version: 6.00 Build 0)  -->
<!DOCTYPE svg PUBLIC "-//W3C//DTD SVG 1.1//EN" "http://www.w3.org/Graphics/SVG/1.1/DTD/svg11.dtd">
<svg version="1.1" id="Layer_2" xmlns="http://www.w3.org/2000/svg" xmlns:xlink="http://www.w3.org/1999/xlink" x="0px" y="0px"
	 width="60px" height="60px" viewBox="0 0 60 60" enable-background="new 0 0 60 60" xml:space="preserve">
<g>
	<path fill="#010101" d="M28.211,39.935c0.451-1.209,1.634-2.026,2.941-2.026h6.494l4.039-8.078
		c0.537-1.073,1.616-1.739,2.815-1.739s2.278,0.666,2.815,1.739l4.039,8.078H52.5V13.091c0-0.553-0.448-1-1-1h-3v-5
		c0-0.553-0.448-1-1-1h-33v-5c0-0.553-0.448-1-1-1h-12c-0.552,0-1,0.447-1,1v40c0,2.663,2.336,5,5,5h26.611l-3.038-2.671
		C28.094,42.544,27.75,41.146,28.211,39.935z M8.5,13.091v28c0,1.322-1.413,3-3,3c-1.542,0-3-1.458-3-3v-39h10v5
		c0,0.553,0.448,1,1,1h33v4h-37C8.948,12.091,8.5,12.539,8.5,13.091z"/>
	<path fill="#010101" d="M59.436,40.556c-0.146-0.39-0.52-0.647-0.936-0.647h-7.764c-0.379,0-0.725-0.214-0.895-0.553l-4.315-8.631
		c-0.195-0.391-0.589-0.634-1.026-0.634s-0.831,0.243-1.027,0.634l-4.314,8.631c-0.169,0.339-0.516,0.553-0.895,0.553h-7.112
		c-0.469,0-0.909,0.301-1.07,0.732c-0.171,0.448-0.042,0.961,0.318,1.283l4.74,4.167h0l0.739,0.65l0.791,0.695l0,0.001l0.498,0.438
		l-1.787,5.359l-1.787,5.361c-0.136,0.41,0.006,0.859,0.352,1.116c0.347,0.259,0.817,0.264,1.171,0.017l6.346-4.462l3.044-2.141
		l2.221,1.522l7.426,5.088c0.17,0.115,0.367,0.174,0.563,0.174c0.212,0,0.424-0.067,0.602-0.201
		c0.343-0.259,0.482-0.708,0.347-1.115l-0.756-2.268l-2.817-8.451l0.498-0.438l0,0l5.98-5.258l0.589-0.518
		C59.473,41.385,59.583,40.945,59.436,40.556z"/>
</g>
</svg>
