<?xml version="1.0" encoding="utf-8"?>
<!-- Generator: Adobe Illustrator 17.0.0, SVG Export Plug-In . SVG Version: 6.00 Build 0)  -->
<!DOCTYPE svg PUBLIC "-//W3C//DTD SVG 1.1//EN" "http://www.w3.org/Graphics/SVG/1.1/DTD/svg11.dtd">
<svg version="1.1" id="Layer_2" xmlns="http://www.w3.org/2000/svg" xmlns:xlink="http://www.w3.org/1999/xlink" x="0px" y="0px"
	 width="60px" height="60px" viewBox="0 0 60 60" enable-background="new 0 0 60 60" xml:space="preserve">
<path fill="#010101" d="M59,15h-7v-5c0-0.553-0.448-1-1-1H20V6c0-0.553-0.448-1-1-1H1C0.448,5,0,5.447,0,6v42c0,4.056,2.944,7,7,7
	h44c4.71,0,9-4.248,9-8.913V16C60,15.447,59.552,15,59,15z M12,48c0,3.037-1.962,5-5,5c-2.944,0-5-2.056-5-5V7h16v3
	c0,0.553,0.448,1,1,1h31v4H13c-0.552,0-1,0.447-1,1V48z"/>
</svg>
