<?xml version="1.0" encoding="utf-8"?>
<!-- Generator: Adobe Illustrator 17.0.0, SVG Export Plug-In . SVG Version: 6.00 Build 0)  -->
<!DOCTYPE svg PUBLIC "-//W3C//DTD SVG 1.1//EN" "http://www.w3.org/Graphics/SVG/1.1/DTD/svg11.dtd">
<svg version="1.1" id="Layer_2" xmlns="http://www.w3.org/2000/svg" xmlns:xlink="http://www.w3.org/1999/xlink" x="0px" y="0px"
	 width="60px" height="60px" viewBox="0 0 60 60" enable-background="new 0 0 60 60" xml:space="preserve">
<g>
	<path fill="#010101" d="M59,36h-3h-2v-5c0-0.553-0.448-1-1-1H33.435h-2.695c-0.552,0-1-0.447-1-1v-1h-1H19h-1v1v26
		c0,0.225,0.029,0.456,0.073,0.688c0.006,0.033,0.011,0.066,0.018,0.1c0.048,0.221,0.116,0.443,0.201,0.664
		c0.015,0.04,0.031,0.081,0.048,0.121c0.091,0.22,0.196,0.439,0.319,0.652c0.018,0.031,0.037,0.06,0.056,0.091
		c0.268,0.445,0.602,0.865,0.988,1.236c0.026,0.025,0.051,0.051,0.078,0.076c0.188,0.174,0.388,0.335,0.598,0.482
		c0.036,0.025,0.072,0.05,0.108,0.074c0.214,0.143,0.436,0.272,0.667,0.382c0.03,0.014,0.061,0.026,0.091,0.039
		c0.243,0.109,0.493,0.202,0.75,0.267c0.002,0,0.003,0.001,0.005,0.001V59v-1.235c-0.022-0.01-0.042-0.025-0.064-0.036
		c-0.048-0.024-0.094-0.052-0.141-0.079c-0.114-0.064-0.225-0.133-0.332-0.211c-0.048-0.035-0.096-0.07-0.143-0.108
		c-0.11-0.088-0.215-0.183-0.315-0.283c-0.031-0.031-0.064-0.06-0.095-0.092c-0.126-0.134-0.241-0.276-0.345-0.423
		c-0.023-0.033-0.042-0.067-0.064-0.101c-0.077-0.117-0.147-0.235-0.208-0.356c-0.026-0.051-0.048-0.1-0.07-0.151
		c-0.049-0.111-0.089-0.221-0.122-0.332c-0.014-0.048-0.03-0.094-0.042-0.141C20.024,55.298,20,55.146,20,55V31c0-0.553,0.448-1,1-1
		h5.739c0.552,0,1,0.447,1,1v1h1h4.695H51h1v1v3h-2H27c-0.552,0-1,0.447-1,1v18c0,0.969-0.904,2.222-2,2.746
		C23.677,57.901,23.339,58,23,58c-0.552,0-1,0.447-1,1c0,0.553,0.448,1,1,1h1h27.435C56.318,60,60,56.561,60,52V37
		C60,36.447,59.552,36,59,36z"/>
	<path fill="#010101" d="M45.294,6.708l4.999,4.999C50.488,11.902,50.744,12,51,12c0.256,0,0.512-0.098,0.707-0.293
		c0.391-0.391,0.391-1.023,0-1.414L48.414,7H53c1.486,0,3,1.514,3,3v11c0,0.553,0.448,1,1,1c0.552,0,1-0.447,1-1V10
		c0-2.617-2.383-5-5-5h-4.586l3.293-3.293c0.391-0.391,0.391-1.023,0-1.414c-0.391-0.391-1.023-0.391-1.414,0l-4.999,4.999
		c-0.093,0.093-0.166,0.203-0.217,0.326c-0.101,0.244-0.101,0.52,0,0.764C45.128,6.505,45.201,6.616,45.294,6.708z"/>
	<path fill="#010101" d="M31.739,27v1h9.179C41.608,26.836,42,25.479,42,24V9c0-0.553-0.448-1-1-1h-5V3c0-0.553-0.448-1-1-1H11.739
		V1c0-0.553-0.448-1-1-1H1C0.448,0,0,0.447,0,1v26c0,2.251,2.307,5,5,5h11v-5c0-0.553,0.448-1,1-1h13.739
		C31.291,26,31.739,26.447,31.739,27z M9,8C8.448,8,8,8.447,8,9v18c0,1.255-1.512,3-3,3c-1.517,0-3-1.718-3-3V2h7.739v1
		c0,0.553,0.448,1,1,1H34v4H9z"/>
	<path fill="#010101" d="M14.706,53.292l-4.999-4.999c-0.391-0.391-1.023-0.391-1.414,0c-0.391,0.391-0.391,1.023,0,1.414L11.586,53
		H7c-1.587,0-3-1.58-3-2.826V41c0-0.553-0.448-1-1-1c-0.552,0-1,0.447-1,1v9.174C2,52.654,4.43,55,7,55h4.586l-3.293,3.293
		c-0.391,0.391-0.391,1.023,0,1.414C8.488,59.902,8.744,60,9,60c0.256,0,0.512-0.098,0.707-0.293l4.999-4.999
		c0.093-0.092,0.166-0.203,0.217-0.326c0.101-0.244,0.101-0.52,0-0.764C14.872,53.495,14.799,53.385,14.706,53.292z"/>
</g>
</svg>
