<?xml version="1.0" encoding="utf-8"?>
<!-- Generator: Adobe Illustrator 17.0.0, SVG Export Plug-In . SVG Version: 6.00 Build 0)  -->
<!DOCTYPE svg PUBLIC "-//W3C//DTD SVG 1.1//EN" "http://www.w3.org/Graphics/SVG/1.1/DTD/svg11.dtd">
<svg version="1.1" id="Layer_2" xmlns="http://www.w3.org/2000/svg" xmlns:xlink="http://www.w3.org/1999/xlink" x="0px" y="0px"
	 width="60px" height="60px" viewBox="0 0 60 60" enable-background="new 0 0 60 60" xml:space="preserve">
<g>
	<path fill="#010101" d="M51.86,26.658l0.562,0.562V12.9c0-0.553-0.448-1-1-1h-3v-5c0-0.553-0.448-1-1-1h-33v-5c0-0.553-0.448-1-1-1
		h-12c-0.552,0-1,0.447-1,1v40c0,2.663,2.336,5,5,5h27.196L51.86,26.658z M8.422,12.9v28c0,1.322-1.413,3-3,3c-1.542,0-3-1.458-3-3
		v-39h10v5c0,0.553,0.448,1,1,1h33v4h-37C8.87,11.9,8.422,12.348,8.422,12.9z"/>
	<polygon fill="#010101" points="35.445,45.9 35.447,45.9 32.683,48.664 40.808,55.976 52.945,43.838 45.227,36.119 	"/>
	<polygon fill="#010101" points="28.966,60.1 39.162,57.186 31.714,50.482 	"/>
	
		<rect x="49.419" y="30.497" transform="matrix(0.7071 -0.7071 0.7071 0.7071 -9.8686 48.0852)" fill="#010101" width="7.381" height="10.916"/>
</g>
</svg>
