<?xml version="1.0" encoding="utf-8"?>
<!-- Generator: Adobe Illustrator 17.0.0, SVG Export Plug-In . SVG Version: 6.00 Build 0)  -->
<!DOCTYPE svg PUBLIC "-//W3C//DTD SVG 1.1//EN" "http://www.w3.org/Graphics/SVG/1.1/DTD/svg11.dtd">
<svg version="1.1" id="Layer_2" xmlns="http://www.w3.org/2000/svg" xmlns:xlink="http://www.w3.org/1999/xlink" x="0px" y="0px"
	 width="60px" height="60px" viewBox="0 0 60 60" enable-background="new 0 0 60 60" xml:space="preserve">
<g>
	<path fill="#010101" d="M46.917,32.796c2.15,0,4.179,0.499,6,1.365V13.796c0-0.553-0.448-1-1-1h-3v-5c0-0.553-0.448-1-1-1h-33v-5
		c0-0.553-0.448-1-1-1h-12c-0.552,0-1,0.447-1,1v40c0,2.663,2.336,5,5,5h27C32.917,39.064,39.186,32.796,46.917,32.796z
		 M9.917,12.796c-0.552,0-1,0.447-1,1v28c0,1.322-1.413,3-3,3c-1.542,0-3-1.458-3-3v-39h10v5c0,0.553,0.448,1,1,1h33v4H9.917z"/>
	<path fill="#010101" d="M46.395,38.592c2.703,0,4.872,1.724,6.229,3.603h-2.68c-0.552,0-1,0.447-1,1c0,0.553,0.448,1,1,1h5.455
		v-6.358c0-0.553-0.448-1-1-1c-0.552,0-1,0.447-1,1v2.147c-1.911-2.114-4.439-3.391-7.004-3.391c-5.361,0-9.56,4.536-9.56,10.326h2
		C38.835,42.249,42.156,38.592,46.395,38.592z"/>
	<path fill="#010101" d="M55,46.918C55,51.45,51.572,55,47.196,55c-2.704,0-5.288-1.105-6.871-2.802h2.556c0.552,0,1-0.447,1-1
		c0-0.553-0.448-1-1-1h-5.489v4.793c0,0.553,0.448,1,1,1c0.552,0,1-0.447,1-1v-0.904C41.367,55.875,44.239,57,47.196,57
		C52.693,57,57,52.571,57,46.918H55z"/>
</g>
</svg>
