<?xml version="1.0" encoding="utf-8"?>
<!-- Generator: Adobe Illustrator 17.0.0, SVG Export Plug-In . SVG Version: 6.00 Build 0)  -->
<!DOCTYPE svg PUBLIC "-//W3C//DTD SVG 1.1//EN" "http://www.w3.org/Graphics/SVG/1.1/DTD/svg11.dtd">
<svg version="1.1" id="Layer_2" xmlns="http://www.w3.org/2000/svg" xmlns:xlink="http://www.w3.org/1999/xlink" x="0px" y="0px"
	 width="60px" height="60px" viewBox="0 0 60 60" enable-background="new 0 0 60 60" xml:space="preserve">
<g>
	<path fill="#010101" d="M44.084,23.848c0.165-0.353,0.517-0.577,0.906-0.577c0.389,0,0.742,0.225,0.906,0.577l6.094,13.058V13
		c0-0.553-0.448-1-1-1h-3V7c0-0.553-0.448-1-1-1h-33V1c0-0.553-0.448-1-1-1h-12c-0.552,0-1,0.447-1,1v40c0,2.663,2.336,5,5,5h28.756
		L44.084,23.848z M7.99,13v28c0,1.322-1.413,3-3,3c-1.542,0-3-1.458-3-3V2h10v5c0,0.553,0.448,1,1,1h33v4h-37
		C8.438,12,7.99,12.447,7.99,13z"/>
	<path fill="#010101" d="M59.966,58.727l-0.145-0.31l-0.002-0.004l-7.83-16.778v0l-7-15L35.953,46h0l-5.869,12.577
		c-0.145,0.31-0.121,0.672,0.063,0.96C30.33,59.825,30.648,60,30.99,60h28c0.007,0,0.013,0,0.02,0c0.552,0,1-0.447,1-1
		C60.01,58.905,59.991,58.815,59.966,58.727z M44.99,54c-0.553,0-1-0.447-1-1c0-0.553,0.447-1,1-1c0.553,0,1,0.447,1,1
		C45.99,53.553,45.543,54,44.99,54z M45.99,49.371c0,0.553-0.448,1-1,1c-0.552,0-1-0.447-1-1v-8.252c0-0.553,0.448-1,1-1
		c0.552,0,1,0.447,1,1V49.371z"/>
</g>
</svg>
