<?xml version="1.0" encoding="utf-8"?>
<!-- Generator: Adobe Illustrator 17.0.0, SVG Export Plug-In . SVG Version: 6.00 Build 0)  -->
<!DOCTYPE svg PUBLIC "-//W3C//DTD SVG 1.1//EN" "http://www.w3.org/Graphics/SVG/1.1/DTD/svg11.dtd">
<svg version="1.1" id="Layer_2" xmlns="http://www.w3.org/2000/svg" xmlns:xlink="http://www.w3.org/1999/xlink" x="0px" y="0px"
	 width="60px" height="60px" viewBox="0 0 60 60" enable-background="new 0 0 60 60" xml:space="preserve">
<g>
	<path fill="#010101" d="M59,10h-7V5c0-0.553-0.448-1-1-1H20V1c0-0.553-0.448-1-1-1H1C0.448,0,0,0.447,0,1v42c0,4.056,2.944,7,7,7
		h21v8H14c-0.552,0-1,0.447-1,1c0,0.553,0.448,1,1,1h32.391c0.552,0,1-0.447,1-1c0-0.553-0.448-1-1-1H30v-8h21
		c4.71,0,9-4.248,9-8.913V11C60,10.447,59.552,10,59,10z M12,43c0,3.037-1.962,5-5,5c-2.944,0-5-2.056-5-5V2h16v3
		c0,0.553,0.448,1,1,1h31v4H13c-0.552,0-1,0.447-1,1V43z"/>
	<circle fill="#010101" cx="3.521" cy="59" r="1"/>
	<path fill="#010101" d="M8.565,58c-0.556,0-1,0.447-1,1c0,0.553,0.444,1,1,1c0.55,0,1-0.447,1-1C9.565,58.447,9.115,58,8.565,58z"
		/>
	<circle fill="#010101" cx="51.435" cy="59" r="1"/>
	<path fill="#010101" d="M56.478,58c-0.556,0-1,0.447-1,1c0,0.553,0.444,1,1,1c0.55,0,1-0.447,1-1
		C57.478,58.447,57.028,58,56.478,58z"/>
</g>
</svg>
