<?xml version="1.0" encoding="utf-8"?>
<!-- Generator: Adobe Illustrator 17.0.0, SVG Export Plug-In . SVG Version: 6.00 Build 0)  -->
<!DOCTYPE svg PUBLIC "-//W3C//DTD SVG 1.1//EN" "http://www.w3.org/Graphics/SVG/1.1/DTD/svg11.dtd">
<svg version="1.1" id="Layer_2" xmlns="http://www.w3.org/2000/svg" xmlns:xlink="http://www.w3.org/1999/xlink" x="0px" y="0px"
	 width="60px" height="60px" viewBox="0 0 60 60" enable-background="new 0 0 60 60" xml:space="preserve">
<g>
	<path fill="#010101" d="M45,28c2.497,0,4.862,0.555,7,1.526V13c0-0.553-0.448-1-1-1h-3V7c0-0.553-0.448-1-1-1H14V1
		c0-0.553-0.448-1-1-1H1C0.448,0,0,0.447,0,1v40c0,2.663,2.336,5,5,5h23.051C28.031,45.667,28,45.337,28,45
		C28,35.626,35.626,28,45,28z M8,13v28c0,1.322-1.413,3-3,3c-1.542,0-3-1.458-3-3V2h10v5c0,0.553,0.448,1,1,1h33v4H9
		C8.448,12,8,12.447,8,13z"/>
	<path fill="#010101" d="M45,30c-8.271,0-15,6.729-15,15c0,8.272,6.729,15,15,15s15-6.728,15-15C60,36.729,53.271,30,45,30z
		 M51.707,44.707c-0.391,0.391-1.023,0.391-1.414,0L46,40.414v11.341c0,0.553-0.448,1-1,1c-0.552,0-1-0.447-1-1V40.762l-3.232,3.878
		C40.57,44.878,40.286,45,39.999,45c-0.226,0-0.453-0.076-0.64-0.231c-0.424-0.354-0.482-0.984-0.128-1.409l5.701-6.841l0.774,0.773
		c0.001,0.001,0.001,0.001,0.002,0.002l5.999,5.999C52.098,43.684,52.098,44.316,51.707,44.707z"/>
</g>
</svg>
