<?xml version="1.0" encoding="utf-8"?>
<!-- Generator: Adobe Illustrator 17.0.0, SVG Export Plug-In . SVG Version: 6.00 Build 0)  -->
<!DOCTYPE svg PUBLIC "-//W3C//DTD SVG 1.1//EN" "http://www.w3.org/Graphics/SVG/1.1/DTD/svg11.dtd">
<svg version="1.1" id="Layer_2" xmlns="http://www.w3.org/2000/svg" xmlns:xlink="http://www.w3.org/1999/xlink" x="0px" y="0px"
	 width="60px" height="60px" viewBox="0 0 60 60" enable-background="new 0 0 60 60" xml:space="preserve">
<path fill="#010101" d="M59,15h-7v-5V8.261C52,6.493,50.586,5,48.913,5h-13.87C35.031,5.003,35.015,5.001,35,5c-2.944,0-5,1.645-5,4
	H20V6c0-0.553-0.448-1-1-1H1C0.448,5,0,5.447,0,6v42c0,4.056,2.944,7,7,7h44c4.71,0,9-4.248,9-8.913V16C60,15.447,59.552,15,59,15z
	 M48.913,7C49.426,7,50,7.539,50,8.261V11v5v21.241l-4.138-4.444c-0.187-0.2-0.447-0.315-0.721-0.318
	c-0.298-0.011-0.537,0.106-0.728,0.303L40,37.32V9c0-0.748-0.208-1.425-0.585-2H48.913z M32,9c0-1.097,0.893-1.666,1.919-1.887
	C34.274,7.036,34.644,7,35,7c1.114,0,3,0.421,3,2h-5.989L32,9.011V9z M12,48c0,3.037-1.962,5-5,5c-2.944,0-5-2.056-5-5V7h16v3
	c0,0.553,0.448,1,1,1h12h7v4H13c-0.552,0-1,0.447-1,1V48z"/>
</svg>
