<?xml version="1.0" encoding="utf-8"?>
<!-- Generator: Adobe Illustrator 17.0.0, SVG Export Plug-In . SVG Version: 6.00 Build 0)  -->
<!DOCTYPE svg PUBLIC "-//W3C//DTD SVG 1.1//EN" "http://www.w3.org/Graphics/SVG/1.1/DTD/svg11.dtd">
<svg version="1.1" id="Layer_2" xmlns="http://www.w3.org/2000/svg" xmlns:xlink="http://www.w3.org/1999/xlink" x="0px" y="0px"
	 width="60px" height="60px" viewBox="0 0 60 60" enable-background="new 0 0 60 60" xml:space="preserve">
<g>
	<path fill="#010101" d="M47,34c-2.164,0-3.575,1.898-3.919,4h7.837C50.575,35.898,49.164,34,47,34z"/>
	<path fill="#010101" d="M37.039,38C37.484,32.317,41.7,28,47,28c1.836,0,3.536,0.528,5,1.441V13c0-0.553-0.448-1-1-1h-3V7
		c0-0.553-0.448-1-1-1H14V1c0-0.553-0.448-1-1-1H1C0.448,0,0,0.447,0,1v40c0,2.663,2.336,5,5,5h27v-5c0-1.654,1.346-3,3-3H37.039z
		 M9,12c-0.552,0-1,0.447-1,1v28c0,1.322-1.413,3-3,3c-1.542,0-3-1.458-3-3V2h10v5c0,0.553,0.448,1,1,1h33v4H9z"/>
	<polygon fill="#010101" points="47.001,48 47.001,48 47.001,48 	"/>
	<path fill="#010101" d="M59,40h-4v-1c0-0.631-0.055-1.245-0.16-1.836c-0.21-1.182-0.619-2.274-1.189-3.23
		c-0.285-0.478-0.61-0.922-0.97-1.327c-0.214-0.241-0.444-0.463-0.682-0.675c-0.162-0.144-0.325-0.286-0.498-0.416
		c-0.425-0.32-0.88-0.595-1.36-0.82c-0.48-0.225-0.986-0.399-1.511-0.517C48.106,30.062,47.561,30,47,30
		c-0.561,0-1.106,0.062-1.632,0.18c-0.525,0.118-1.031,0.292-1.511,0.517c-0.48,0.225-0.935,0.5-1.36,0.82
		c-0.425,0.321-0.82,0.686-1.18,1.091c-0.36,0.405-0.685,0.849-0.97,1.327c-0.57,0.956-0.979,2.047-1.189,3.23
		C39.055,37.755,39,38.369,39,39v1h-4c-0.551,0-1,0.448-1,1v18c0,0.552,0.449,1,1,1h24c0.551,0,1-0.448,1-1V41
		C60,40.448,59.551,40,59,40z M48,49.722v4.235c0,0.553-0.448,1-1,1c-0.552,0-1-0.447-1-1v-4.235c-0.595-0.347-1-0.985-1-1.722
		c0-1.102,0.897-2,2-2s2,0.898,2,2C49,48.737,48.595,49.375,48,49.722z M53,40H41v-1c0-0.645,0.079-1.294,0.232-1.924
		c0.204-0.839,0.54-1.642,0.995-2.352c0.228-0.355,0.486-0.687,0.773-0.988c0.573-0.603,1.261-1.083,2.052-1.385
		C45.645,32.125,46.296,32,47,32c1.174,0,2.2,0.348,3.056,0.931c0.342,0.233,0.658,0.504,0.944,0.805
		c0.286,0.301,0.545,0.633,0.773,0.988c0.081,0.126,0.154,0.259,0.227,0.391c0.236,0.424,0.437,0.872,0.591,1.34
		C52.86,37.273,53,38.14,53,39V40z"/>
</g>
</svg>
