<?xml version="1.0" encoding="utf-8"?>
<!-- Generator: Adobe Illustrator 17.0.0, SVG Export Plug-In . SVG Version: 6.00 Build 0)  -->
<!DOCTYPE svg PUBLIC "-//W3C//DTD SVG 1.1//EN" "http://www.w3.org/Graphics/SVG/1.1/DTD/svg11.dtd">
<svg version="1.1" id="Layer_2" xmlns="http://www.w3.org/2000/svg" xmlns:xlink="http://www.w3.org/1999/xlink" x="0px" y="0px"
	 width="60px" height="60px" viewBox="0 0 60 60" enable-background="new 0 0 60 60" xml:space="preserve">
<path fill="#010101" d="M59,15h-7v-5c0-0.553-0.448-1-1-1H20V6c0-0.553-0.448-1-1-1H1C0.448,5,0,5.447,0,6v42c0,4.056,2.944,7,7,7
	h44c4.71,0,9-4.248,9-8.913V16C60,15.447,59.552,15,59,15z M44.896,30.285c-0.134,0.537-0.676,0.86-1.213,0.728
	c-0.536-0.134-0.861-0.677-0.728-1.212c0.236-0.943,0.128-1.715-0.33-2.36c-0.783-1.104-2.465-1.684-3.644-1.94l-1.688,12.911
	c-0.001,0.009-0.006,0.016-0.008,0.024c-0.085,0.983-0.562,1.955-1.405,2.815c-1.042,1.065-2.542,1.845-4.223,2.198
	c-0.641,0.135-1.288,0.203-1.922,0.203c-2.917,0-5.176-1.414-5.622-3.519c-0.551-2.636,1.895-5.304,5.569-6.075
	c0.642-0.136,1.291-0.205,1.928-0.205c1.653,0,3.08,0.467,4.098,1.245l1.422-10.877c0.07-0.533,0.551-0.921,1.083-0.866
	c0.173,0.017,4.261,0.42,6.042,2.93C45.061,27.417,45.276,28.764,44.896,30.285z M12,48c0,3.037-1.962,5-5,5c-2.944,0-5-2.056-5-5V7
	h16v3c0,0.553,0.448,1,1,1h31v4H13c-0.552,0-1,0.447-1,1V48z"/>
</svg>
