<?xml version="1.0" encoding="utf-8"?>
<!-- Generator: Adobe Illustrator 17.0.0, SVG Export Plug-In . SVG Version: 6.00 Build 0)  -->
<!DOCTYPE svg PUBLIC "-//W3C//DTD SVG 1.1//EN" "http://www.w3.org/Graphics/SVG/1.1/DTD/svg11.dtd">
<svg version="1.1" id="Layer_2" xmlns="http://www.w3.org/2000/svg" xmlns:xlink="http://www.w3.org/1999/xlink" x="0px" y="0px"
	 width="60px" height="60px" viewBox="0 0 60 60" enable-background="new 0 0 60 60" xml:space="preserve">
<g>
	<polygon fill="#010101" points="30,31.545 30,44 32,44 32,36 40,36 40,44 42,44 42,30.762 36.391,25.153 	"/>
	<path fill="#010101" d="M59,15h-7v-5c0-0.553-0.448-1-1-1H20V6c0-0.553-0.448-1-1-1H1C0.448,5,0,5.447,0,6v42c0,4.056,2.944,7,7,7
		h44c4.71,0,9-4.248,9-8.913V16C60,15.447,59.552,15,59,15z M49.707,37.055c-0.195,0.195-0.451,0.293-0.707,0.293
		c-0.256,0-0.512-0.098-0.707-0.293L44,32.762V45c0,0.553-0.448,1-1,1h-3h-8h-3c-0.552,0-1-0.447-1-1V33.545l-3.51,3.51
		c-0.391,0.391-1.023,0.391-1.414,0c-0.391-0.391-0.391-1.023,0-1.414l5.216-5.217l0,0l7.391-7.391c0.375-0.375,1.039-0.375,1.414,0
		l6.607,6.607c0.001,0.001,0.002,0.002,0.003,0.003l5.999,5.998C50.098,36.031,50.098,36.664,49.707,37.055z M12,48
		c0,3.037-1.962,5-5,5c-2.944,0-5-2.056-5-5V7h16v3c0,0.553,0.448,1,1,1h31v4H13c-0.552,0-1,0.447-1,1V48z"/>
</g>
</svg>
