<?xml version="1.0" encoding="utf-8"?>
<!-- Generator: Adobe Illustrator 17.0.0, SVG Export Plug-In . SVG Version: 6.00 Build 0)  -->
<!DOCTYPE svg PUBLIC "-//W3C//DTD SVG 1.1//EN" "http://www.w3.org/Graphics/SVG/1.1/DTD/svg11.dtd">
<svg version="1.1" id="Layer_2" xmlns="http://www.w3.org/2000/svg" xmlns:xlink="http://www.w3.org/1999/xlink" x="0px" y="0px"
	 width="60px" height="60px" viewBox="0 0 60 60" enable-background="new 0 0 60 60" xml:space="preserve">
<g>
	<circle fill="#010101" cx="1.87" cy="6.76" r="1.761"/>
	<circle fill="#010101" cx="1.87" cy="11.94" r="1.761"/>
	<circle fill="#010101" cx="1.87" cy="17.119" r="1.761"/>
	<circle fill="#010101" cx="1.87" cy="22.298" r="1.761"/>
	<circle fill="#010101" cx="1.87" cy="27.478" r="1.761"/>
	<circle fill="#010101" cx="1.87" cy="32.657" r="1.761"/>
	<circle fill="#010101" cx="1.87" cy="37.836" r="1.761"/>
	<circle fill="#010101" cx="1.87" cy="43.016" r="1.761"/>
	<circle fill="#010101" cx="1.87" cy="48.196" r="1.761"/>
	<circle fill="#010101" cx="4.13" cy="53.239" r="1.761"/>
	<circle fill="#010101" cx="23.174" cy="53.239" r="1.761"/>
	<circle fill="#010101" cx="18.13" cy="53.239" r="1.761"/>
	<circle fill="#010101" cx="28.218" cy="53.239" r="1.761"/>
	<circle fill="#010101" cx="33.261" cy="53.239" r="1.761"/>
	<circle fill="#010101" cx="38.305" cy="53.239" r="1.761"/>
	<circle fill="#010101" cx="43.348" cy="53.239" r="1.761"/>
	<circle fill="#010101" cx="48.392" cy="53.239" r="1.761"/>
	<circle fill="#010101" cx="53.435" cy="53.239" r="1.761"/>
	<circle fill="#010101" cx="58.13" cy="53.239" r="1.761"/>
	<circle fill="#010101" cx="58.13" cy="48.195" r="1.761"/>
	<circle fill="#010101" cx="58.13" cy="43.152" r="1.761"/>
	<circle fill="#010101" cx="58.13" cy="38.109" r="1.761"/>
	<circle fill="#010101" cx="58.13" cy="33.065" r="1.761"/>
	<circle fill="#010101" cx="58.13" cy="28.021" r="1.761"/>
	<circle fill="#010101" cx="58.13" cy="22.978" r="1.761"/>
	<circle fill="#010101" cx="58.13" cy="17.935" r="1.761"/>
	<circle fill="#010101" cx="53.435" cy="17.935" r="1.761"/>
	<circle fill="#010101" cx="49.522" cy="17.935" r="1.761"/>
	<circle fill="#010101" cx="44.479" cy="17.935" r="1.761"/>
	<circle fill="#010101" cx="39.435" cy="17.935" r="1.761"/>
	<circle fill="#010101" cx="34.391" cy="17.935" r="1.761"/>
	<circle fill="#010101" cx="29.348" cy="17.935" r="1.761"/>
	<circle fill="#010101" cx="24.305" cy="17.935" r="1.761"/>
	<circle fill="#010101" cx="19.261" cy="17.935" r="1.761"/>
	<circle fill="#010101" cx="14.218" cy="17.935" r="1.761"/>
	<circle fill="#010101" cx="14.218" cy="22.978" r="1.761"/>
	<circle fill="#010101" cx="14.218" cy="28.021" r="1.761"/>
	<circle fill="#010101" cx="14.218" cy="33.065" r="1.761"/>
	<circle fill="#010101" cx="14.218" cy="38.109" r="1.761"/>
	<circle fill="#010101" cx="14.218" cy="43.152" r="1.761"/>
	<circle fill="#010101" cx="14.218" cy="48.195" r="1.761"/>
	<circle fill="#010101" cx="9.13" cy="53.239" r="1.761"/>
	<circle fill="#010101" cx="13.609" cy="53.239" r="1.761"/>
	<circle fill="#010101" cx="6.652" cy="6.761" r="1.761"/>
	<circle fill="#010101" cx="11.696" cy="6.761" r="1.761"/>
	<circle fill="#010101" cx="16.74" cy="6.76" r="1.761"/>
	<circle fill="#010101" cx="21.783" cy="6.76" r="1.761"/>
	<circle fill="#010101" cx="21.783" cy="11.804" r="1.761"/>
	<circle fill="#010101" cx="26.826" cy="11.804" r="1.761"/>
	<circle fill="#010101" cx="31.87" cy="11.804" r="1.761"/>
	<circle fill="#010101" cx="36.913" cy="11.804" r="1.761"/>
	<circle fill="#010101" cx="41.957" cy="11.804" r="1.761"/>
	<circle fill="#010101" cx="47" cy="11.804" r="1.761"/>
	<circle fill="#010101" cx="52.044" cy="11.804" r="1.761"/>
</g>
</svg>
