<?xml version="1.0" encoding="utf-8"?>
<!-- Generator: Adobe Illustrator 17.0.0, SVG Export Plug-In . SVG Version: 6.00 Build 0)  -->
<!DOCTYPE svg PUBLIC "-//W3C//DTD SVG 1.1//EN" "http://www.w3.org/Graphics/SVG/1.1/DTD/svg11.dtd">
<svg version="1.1" id="Layer_2" xmlns="http://www.w3.org/2000/svg" xmlns:xlink="http://www.w3.org/1999/xlink" x="0px" y="0px"
	 width="60px" height="60px" viewBox="0 0 60 60" enable-background="new 0 0 60 60" xml:space="preserve">
<g>
	<path fill="#010101" d="M45,28c2.497,0,4.862,0.555,7,1.526V13c0-0.553-0.448-1-1-1h-3V7c0-0.553-0.448-1-1-1H14V1
		c0-0.553-0.448-1-1-1H1C0.448,0,0,0.447,0,1v40c0,2.663,2.336,5,5,5h23.051C28.031,45.667,28,45.337,28,45
		C28,35.626,35.626,28,45,28z M8,13v28c0,1.322-1.413,3-3,3c-1.542,0-3-1.458-3-3V2h10v5c0,0.553,0.448,1,1,1h33v4H9
		C8.448,12,8,12.447,8,13z"/>
	<path fill="#010101" d="M56.275,35.139L35.139,56.275C37.779,58.587,41.224,60,45,60c8.271,0,15-6.728,15-15
		C60,41.224,58.587,37.779,56.275,35.139z"/>
	<path fill="#010101" d="M45,30c-8.271,0-15,6.729-15,15c0,3.776,1.413,7.221,3.725,9.861l21.136-21.136
		C52.221,31.413,48.776,30,45,30z"/>
</g>
</svg>
