<?xml version="1.0" encoding="utf-8"?>
<!-- Generator: Adobe Illustrator 17.0.0, SVG Export Plug-In . SVG Version: 6.00 Build 0)  -->
<!DOCTYPE svg PUBLIC "-//W3C//DTD SVG 1.1//EN" "http://www.w3.org/Graphics/SVG/1.1/DTD/svg11.dtd">
<svg version="1.1" id="Layer_2" xmlns="http://www.w3.org/2000/svg" xmlns:xlink="http://www.w3.org/1999/xlink" x="0px" y="0px"
	 width="60px" height="60px" viewBox="0 0 60 60" enable-background="new 0 0 60 60" xml:space="preserve">
<g>
	<path fill="#010101" d="M32.334,44.907c0-0.56,0.04-1.141,0.12-1.729l-2.397-1.385c-0.229-0.133-0.397-0.352-0.465-0.607
		c-0.069-0.257-0.033-0.529,0.1-0.759l4.121-7.129c0.275-0.479,0.886-0.644,1.365-0.366l2.416,1.391
		c1.055-0.784,2.396-1.519,3.492-1.995V30c0-0.553,0.448-1,1-1h8c0.552,0,1,0.447,1,1v2.345c0.524,0.258,1.007,0.575,1.468,0.919V13
		c0-0.553-0.448-1-1-1h-3V7c0-0.553-0.448-1-1-1h-33V1c0-0.553-0.448-1-1-1h-12c-0.552,0-1,0.447-1,1v40c0,2.663,2.336,5,5,5h26.835
		C32.355,45.631,32.334,45.265,32.334,44.907z M8.552,13v28c0,1.322-1.413,3-3,3c-1.542,0-3-1.458-3-3V2h10v5c0,0.553,0.448,1,1,1
		h33v4h-37C9,12,8.552,12.447,8.552,13z"/>
	<path fill="#010101" d="M57.317,48.026c-0.367-0.212-0.561-0.632-0.483-1.048c0.13-0.704,0.196-1.401,0.196-2.071
		c0-0.665-0.067-1.361-0.198-2.068c-0.077-0.416,0.116-0.837,0.483-1.049l2.128-1.229l-3.115-5.395l-2.111,1.227
		c-0.367,0.213-0.83,0.171-1.153-0.105l-0.341-0.294c-0.988-0.854-1.92-1.659-2.987-2.056c-0.392-0.146-0.652-0.52-0.652-0.938v-2
		h-6v2c0,0.418-0.26,0.792-0.652,0.938c-1.365,0.507-3.128,1.518-4.1,2.35c-0.321,0.276-0.782,0.319-1.149,0.106l-2.139-1.231
		l-3.121,5.399l2.126,1.228c0.367,0.212,0.56,0.632,0.483,1.048c-0.134,0.723-0.199,1.399-0.199,2.069
		c0,0.675,0.064,1.353,0.197,2.071c0.077,0.417-0.117,0.836-0.483,1.048l-2.129,1.229l3.117,5.398l2.149-1.232
		c0.366-0.21,0.826-0.169,1.148,0.107c0.958,0.82,3.576,1.965,5.102,2.534c0.391,0.145,0.65,0.518,0.65,0.936v2h5v-2
		c0-0.418,0.259-0.791,0.65-0.936c0.891-0.332,1.738-1.102,2.558-1.846c0.258-0.235,0.515-0.468,0.772-0.688
		c0.323-0.274,0.786-0.318,1.151-0.105l2.12,1.228l3.111-5.396L57.317,48.026z M45.68,51.397c-3.577,0-6.488-2.911-6.488-6.489
		c0-3.577,2.911-6.487,6.488-6.487c3.578,0,6.488,2.91,6.488,6.487C52.169,48.485,49.258,51.397,45.68,51.397z"/>
</g>
</svg>
