<?xml version="1.0" encoding="utf-8"?>
<!-- Generator: Adobe Illustrator 17.0.0, SVG Export Plug-In . SVG Version: 6.00 Build 0)  -->
<!DOCTYPE svg PUBLIC "-//W3C//DTD SVG 1.1//EN" "http://www.w3.org/Graphics/SVG/1.1/DTD/svg11.dtd">
<svg version="1.1" id="Layer_1" xmlns="http://www.w3.org/2000/svg" xmlns:xlink="http://www.w3.org/1999/xlink" x="0px" y="0px"
	 width="48px" height="48px" viewBox="0 0 48 48" enable-background="new 0 0 48 48" xml:space="preserve">
<g>
	<path fill="#231F20" d="M24,3.502c-13.233,0-24,8.867-24,19.766c0,5.147,2.355,9.97,6.65,13.663l-4.82,9.621
		c-0.19,0.381-0.119,0.84,0.177,1.145C2.2,47.895,2.46,48,2.725,48c0.143,0,0.286-0.03,0.421-0.093l12.874-5.991
		c2.557,0.742,5.239,1.117,7.98,1.117c13.233,0,24-8.867,24-19.765C48,12.369,37.233,3.502,24,3.502z M24,41.033
		c-2.676,0-5.288-0.384-7.766-1.14c-0.235-0.071-0.49-0.054-0.714,0.05L4.903,44.884l3.891-7.767c0.212-0.422,0.1-0.935-0.269-1.229
		C4.317,32.522,2,28.04,2,23.268c0-9.796,9.869-17.766,22-17.766s22,7.97,22,17.766S36.131,41.033,24,41.033z"/>
	<path fill="#231F20" d="M30.553,13.502c-1.901,0-4.141,0.983-5.553,3.568c-1.412-2.585-3.652-3.568-5.553-3.568
		c-3.169,0-6.447,2.646-6.447,7.074c0,6.362,10.946,14.396,11.412,14.735c0.175,0.127,0.381,0.191,0.588,0.191
		c0.206,0,0.413-0.064,0.588-0.192C26.054,34.971,37,26.938,37,20.576C37,16.148,33.722,13.502,30.553,13.502z M25,33.254
		c-3.26-2.494-10-8.51-10-12.678c0-3.176,2.261-5.074,4.447-5.074c2.172,0,3.884,1.729,4.581,4.625
		c0.108,0.449,0.51,0.766,0.972,0.766s0.864-0.317,0.972-0.766c0.696-2.896,2.409-4.625,4.581-4.625
		c2.186,0,4.447,1.898,4.447,5.074C35,24.744,28.26,30.761,25,33.254z"/>
</g>
</svg>
