<?xml version="1.0" encoding="utf-8"?>
<!-- Generator: Adobe Illustrator 17.0.0, SVG Export Plug-In . SVG Version: 6.00 Build 0)  -->
<!DOCTYPE svg PUBLIC "-//W3C//DTD SVG 1.1//EN" "http://www.w3.org/Graphics/SVG/1.1/DTD/svg11.dtd">
<svg version="1.1" id="Layer_1" xmlns="http://www.w3.org/2000/svg" xmlns:xlink="http://www.w3.org/1999/xlink" x="0px" y="0px"
	 width="48px" height="48px" viewBox="0 0 48 48" enable-background="new 0 0 48 48" xml:space="preserve">
<path fill="#231F20" d="M32,8H16C7.178,8,0,15.178,0,24s7.178,16,16,16h1v7c0,0.404,0.243,0.769,0.617,0.924
	C17.741,47.975,17.871,48,18,48c0.26,0,0.516-0.102,0.707-0.293L26.414,40H32c8.822,0,16-7.178,16-16S40.822,8,32,8z M32,38h-6
	c-0.266,0-0.52,0.106-0.707,0.293L19,44.586V39c0-0.552-0.447-1-1-1h-2C8.28,38,2,31.72,2,24s6.28-14,14-14h16c7.72,0,14,6.28,14,14
	S39.72,38,32,38z"/>
</svg>
