<?xml version="1.0" encoding="utf-8"?>
<!-- Generator: Adobe Illustrator 17.0.0, SVG Export Plug-In . SVG Version: 6.00 Build 0)  -->
<!DOCTYPE svg PUBLIC "-//W3C//DTD SVG 1.1//EN" "http://www.w3.org/Graphics/SVG/1.1/DTD/svg11.dtd">
<svg version="1.1" id="Layer_1" xmlns="http://www.w3.org/2000/svg" xmlns:xlink="http://www.w3.org/1999/xlink" x="0px" y="0px"
	 width="48px" height="48px" viewBox="0 0 48 48" enable-background="new 0 0 48 48" xml:space="preserve">
<g>
	<path fill="#231F20" d="M47,6H1C0.448,6,0,6.448,0,7v32c0,0.552,0.448,1,1,1h13v7c0,0.404,0.244,0.769,0.617,0.924
		C14.741,47.975,14.871,48,15,48c0.26,0,0.516-0.102,0.707-0.293L23.414,40H47c0.552,0,1-0.448,1-1V7C48,6.448,47.552,6,47,6z
		 M46,38H23c-0.265,0-0.52,0.105-0.707,0.293L16,44.586V39c0-0.552-0.448-1-1-1H2V8h44V38z"/>
	<path fill="#231F20" d="M14,26c2.209,0,4-1.791,4-4c0-2.208-1.791-4-4-4s-4,1.792-4,4C10,24.209,11.791,26,14,26z M14,20
		c1.103,0,2,0.897,2,2s-0.897,2-2,2s-2-0.897-2-2S12.897,20,14,20z"/>
	<path fill="#231F20" d="M24,26c2.209,0,4-1.791,4-4c0-2.208-1.791-4-4-4s-4,1.792-4,4C20,24.209,21.791,26,24,26z M24,20
		c1.103,0,2,0.897,2,2s-0.897,2-2,2s-2-0.897-2-2S22.897,20,24,20z"/>
	<path fill="#231F20" d="M34,26c2.209,0,4-1.791,4-4c0-2.208-1.791-4-4-4s-4,1.792-4,4C30,24.209,31.791,26,34,26z M34,20
		c1.103,0,2,0.897,2,2s-0.897,2-2,2s-2-0.897-2-2S32.897,20,34,20z"/>
</g>
</svg>
