<?xml version="1.0" encoding="utf-8"?>
<!-- Generator: Adobe Illustrator 17.0.0, SVG Export Plug-In . SVG Version: 6.00 Build 0)  -->
<!DOCTYPE svg PUBLIC "-//W3C//DTD SVG 1.1//EN" "http://www.w3.org/Graphics/SVG/1.1/DTD/svg11.dtd">
<svg version="1.1" id="Layer_1" xmlns="http://www.w3.org/2000/svg" xmlns:xlink="http://www.w3.org/1999/xlink" x="0px" y="0px"
	 width="48px" height="48px" viewBox="0 0 48 48" enable-background="new 0 0 48 48" xml:space="preserve">
<g>
	<path fill="#231F20" d="M21.835,2C32.954,2,42,9.178,42,18c0,0.622-0.045,1.247-0.135,1.859l1.979,0.29
		C43.947,19.441,44,18.718,44,18c0-9.925-9.943-18-22.165-18C9.795,0,0,8.075,0,18c0,4.78,1.995,9.012,5.777,12.286l-3.692,8.308
		C1.917,38.973,2,39.418,2.295,39.71C2.487,39.9,2.741,40,3,40c0.14,0,0.281-0.029,0.414-0.09l10.662-4.846
		c1.677,0.466,3.536,0.694,4.84,0.804l0.168-1.993c-1.869-0.157-3.526-0.444-4.792-0.831c-0.233-0.071-0.484-0.055-0.706,0.046
		L4.983,37l2.93-6.593c0.185-0.416,0.066-0.903-0.289-1.187C3.945,26.276,2,22.396,2,18C2,9.177,10.898,2,21.835,2z"/>
	<path fill="#231F20" d="M35,22c-7.169,0-13,5.832-13,13c0,7.169,5.831,13,13,13c7.168,0,13-5.831,13-13C48,27.832,42.168,22,35,22z
		 M35,46c-6.065,0-11-4.935-11-11s4.935-11,11-11s11,4.935,11,11S41.065,46,35,46z"/>
	<path fill="#231F20" d="M41.107,28.894c-0.391-0.391-1.023-0.391-1.414,0L35,33.587l-4.693-4.693c-0.391-0.391-1.023-0.391-1.414,0
		c-0.391,0.391-0.391,1.024,0,1.414L33.585,35l-4.693,4.693c-0.391,0.39-0.391,1.023,0,1.414c0.195,0.195,0.451,0.293,0.707,0.293
		s0.512-0.098,0.707-0.293L35,36.414l4.693,4.693c0.195,0.195,0.451,0.293,0.707,0.293c0.256,0,0.512-0.098,0.707-0.293
		c0.391-0.391,0.391-1.024,0-1.414L36.414,35l4.693-4.693C41.498,29.918,41.498,29.285,41.107,28.894z"/>
</g>
</svg>
