<?xml version="1.0" encoding="utf-8"?>
<!-- Generator: Adobe Illustrator 17.1.0, SVG Export Plug-In . SVG Version: 6.00 Build 0)  -->
<!DOCTYPE svg PUBLIC "-//W3C//DTD SVG 1.0//EN" "http://www.w3.org/TR/2001/REC-SVG-20010904/DTD/svg10.dtd">
<svg version="1.0" id="Layer_1" xmlns="http://www.w3.org/2000/svg" xmlns:xlink="http://www.w3.org/1999/xlink" x="0px" y="0px"
	 width="48px" height="48px" viewBox="0 0 48 48" enable-background="new 0 0 48 48" xml:space="preserve">
<g>
	<path d="M47,4H1C0.448,4,0,4.448,0,5v30c0,0.552,0.448,1,1,1h13l0,7c0,0.404,0.244,0.769,0.617,0.924
		C14.741,43.975,14.871,44,15,44c0.26,0,0.516-0.102,0.707-0.293L23.415,36H47c0.552,0,1-0.448,1-1V5C48,4.448,47.552,4,47,4z
		 M46,34h-23c-0.265,0-0.519,0.106-0.707,0.293L16,40.586l0-5.586c0-0.265-0.105-0.519-0.293-0.707
		C15.52,34.106,15.266,34,15.001,34H2V6h44V34z"/>
	<path d="M15,25h3v2c0,0.551-0.449,1-1,1c-0.552,0-1,0.448-1,1c0,0.552,0.448,1,1,1c1.654,0,3-1.346,3-3v-3v-1v-3
		c0-0.552-0.448-1-1-1h-4c-0.552,0-1,0.448-1,1v4C14,24.552,14.448,25,15,25z M16,21h2v2h-2V21z"/>
	<path d="M19,17c0.552,0,1-0.448,1-1v-5c0-0.552-0.448-1-1-1c-0.552,0-1,0.448-1,1v5C18,16.552,18.448,17,19,17z"/>
	<path d="M27,28c-0.552,0-1,0.448-1,1c0,0.552,0.448,1,1,1c3.86,0,7-3.14,7-7v-6c0-3.86-3.14-7-7-7c-0.552,0-1,0.448-1,1
		c0,0.552,0.448,1,1,1c2.757,0,5,2.243,5,5v6C32,25.757,29.757,28,27,28z"/>
</g>
</svg>
