<?xml version="1.0" encoding="utf-8"?>
<!-- Generator: Adobe Illustrator 17.0.0, SVG Export Plug-In . SVG Version: 6.00 Build 0)  -->
<!DOCTYPE svg PUBLIC "-//W3C//DTD SVG 1.1//EN" "http://www.w3.org/Graphics/SVG/1.1/DTD/svg11.dtd">
<svg version="1.1" id="Layer_1" xmlns="http://www.w3.org/2000/svg" xmlns:xlink="http://www.w3.org/1999/xlink" x="0px" y="0px"
	 width="48px" height="48px" viewBox="0 0 48 48" enable-background="new 0 0 48 48" xml:space="preserve">
<g>
	<path fill="#231F20" d="M21.835,2C32.954,2,42,9.178,42,18c0,0.953-0.106,1.908-0.317,2.837l1.951,0.441
		C43.877,20.205,44,19.102,44,18c0-9.925-9.943-18-22.165-18C9.795,0,0,8.075,0,18c0,4.78,1.994,9.012,5.779,12.286l-3.693,8.308
		c-0.168,0.379-0.085,0.824,0.21,1.116C2.487,39.9,2.742,40,3,40c0.14,0,0.281-0.029,0.414-0.09l10.662-4.846
		c1.594,0.443,3.658,0.752,5.867,0.877l0.113-1.997c-2.23-0.126-4.277-0.446-5.765-0.9c-0.232-0.07-0.484-0.055-0.706,0.046
		L4.983,37l2.931-6.593c0.185-0.416,0.065-0.903-0.289-1.187C3.945,26.276,2,22.396,2,18C2,9.177,10.897,2,21.835,2z"/>
	<path fill="#231F20" d="M47.814,46.392l-11.92-23.839c-0.34-0.678-1.449-0.678-1.789,0l-12,24c-0.155,0.31-0.139,0.678,0.044,0.973
		C22.332,47.82,22.653,48,23,48h24c0.007,0.001,0.015,0.001,0.019,0c0.553,0,1-0.448,1-1C48.019,46.771,47.943,46.56,47.814,46.392z
		 M24.618,46L35,25.236L45.382,46H24.618z"/>
	<path fill="#231F20" d="M34,32.819v6.545c0,0.552,0.447,1,1,1s1-0.448,1-1v-6.545c0-0.552-0.447-1-1-1S34,32.267,34,32.819z"/>
	<circle fill="#231F20" cx="35" cy="42.636" r="1.091"/>
</g>
</svg>
