<?xml version="1.0" encoding="utf-8"?>
<!-- Generator: Adobe Illustrator 17.0.0, SVG Export Plug-In . SVG Version: 6.00 Build 0)  -->
<!DOCTYPE svg PUBLIC "-//W3C//DTD SVG 1.1//EN" "http://www.w3.org/Graphics/SVG/1.1/DTD/svg11.dtd">
<svg version="1.1" id="Layer_1" xmlns="http://www.w3.org/2000/svg" xmlns:xlink="http://www.w3.org/1999/xlink" x="0px" y="0px"
	 width="48px" height="48px" viewBox="0 0 48 48" enable-background="new 0 0 48 48" xml:space="preserve">
<g>
	<path fill="#231F20" d="M19,28h-2c-0.265,0-0.52,0.106-0.707,0.293L10,34.586V29c0-0.552-0.448-1-1-1H2V2h40v17
		c0,0.552,0.448,1,1,1s1-0.448,1-1V1c0-0.552-0.448-1-1-1H1C0.448,0,0,0.448,0,1v28c0,0.552,0.448,1,1,1h7v7
		c0,0.404,0.244,0.769,0.617,0.924C8.741,37.975,8.871,38,9,38c0.26,0,0.516-0.102,0.707-0.293L17.414,30H19c0.552,0,1-0.448,1-1
		S19.552,28,19,28z"/>
	<path fill="#231F20" d="M35,22c-7.169,0-13,5.832-13,13c0,7.169,5.831,13,13,13c7.168,0,13-5.831,13-13C48,27.832,42.168,22,35,22z
		 M35,46c-6.065,0-11-4.935-11-11s4.935-11,11-11s11,4.935,11,11S41.065,46,35,46z"/>
	<path fill="#231F20" d="M40.454,34H29.545c-0.552,0-1,0.448-1,1s0.448,1,1,1h10.91c0.552,0,1-0.448,0.999-1
		C41.454,34.448,41.006,34,40.454,34z"/>
</g>
</svg>
