<?xml version="1.0" encoding="utf-8"?>
<!-- Generator: Adobe Illustrator 17.0.0, SVG Export Plug-In . SVG Version: 6.00 Build 0)  -->
<!DOCTYPE svg PUBLIC "-//W3C//DTD SVG 1.1//EN" "http://www.w3.org/Graphics/SVG/1.1/DTD/svg11.dtd">
<svg version="1.1" id="Layer_1" xmlns="http://www.w3.org/2000/svg" xmlns:xlink="http://www.w3.org/1999/xlink" x="0px" y="0px"
	 width="48px" height="48px" viewBox="0 0 48 48" enable-background="new 0 0 48 48" xml:space="preserve">
<g>
	<path fill="#231F20" d="M24,3.502c-13.233,0-24,8.867-24,19.766c0,5.147,2.355,9.97,6.65,13.662l-4.82,9.622
		c-0.19,0.381-0.119,0.84,0.177,1.145C2.2,47.895,2.46,48,2.725,48c0.143,0,0.286-0.03,0.421-0.093l12.875-5.991
		c2.556,0.742,5.238,1.117,7.979,1.117c13.233,0,24-8.867,24-19.765C48,12.369,37.233,3.502,24,3.502z M24.001,41.033
		c-2.676,0-5.288-0.384-7.766-1.14c-0.236-0.071-0.49-0.054-0.714,0.05L4.904,44.884l3.891-7.767
		c0.211-0.422,0.099-0.935-0.27-1.229C4.317,32.521,2,28.039,2,23.268c0-9.796,9.869-17.766,22-17.766s22,7.97,22.001,17.766
		C46.001,33.064,36.132,41.033,24.001,41.033z"/>
	<path fill="#231F20" d="M15,20h13c0.552,0,1-0.448,1-1s-0.448-1-1-1H15c-0.552,0-1,0.448-1,1S14.448,20,15,20z"/>
	<path fill="#231F20" d="M34,24H15c-0.552,0-1,0.448-1,1s0.448,1,1,1h19c0.552,0,1-0.448,1-1S34.552,24,34,24z"/>
	<path fill="#231F20" d="M34,30H15c-0.552,0-1,0.448-1,1s0.448,1,1,1h19c0.552,0,1-0.448,1-1S34.552,30,34,30z"/>
</g>
</svg>
