<?xml version="1.0" encoding="utf-8"?>
<!-- Generator: Adobe Illustrator 17.0.0, SVG Export Plug-In . SVG Version: 6.00 Build 0)  -->
<!DOCTYPE svg PUBLIC "-//W3C//DTD SVG 1.1//EN" "http://www.w3.org/Graphics/SVG/1.1/DTD/svg11.dtd">
<svg version="1.1" id="Layer_1" xmlns="http://www.w3.org/2000/svg" xmlns:xlink="http://www.w3.org/1999/xlink" x="0px" y="0px"
	 width="48px" height="48px" viewBox="0 0 48 48" enable-background="new 0 0 48 48" xml:space="preserve">
<g>
	<path fill="#231F20" d="M21.835,2C32.954,2,42,9.178,42,18c0,0.953-0.107,1.908-0.317,2.837l1.95,0.441
		C43.876,20.205,44,19.102,44,18c0-9.925-9.943-18-22.165-18C9.795,0,0,8.075,0,18c0,4.78,1.995,9.012,5.777,12.286l-3.692,8.308
		C1.917,38.973,2,39.418,2.295,39.71C2.487,39.9,2.741,40,3,40c0.14,0,0.281-0.029,0.414-0.09l10.663-4.846
		c1.592,0.442,3.655,0.752,5.867,0.877l0.113-1.997c-2.232-0.127-4.279-0.446-5.765-0.9c-0.233-0.071-0.484-0.055-0.706,0.046
		L4.983,37l2.93-6.593c0.185-0.416,0.066-0.903-0.289-1.187C3.945,26.276,2,22.396,2,18C2,9.177,10.898,2,21.835,2z"/>
	<path fill="#231F20" d="M47.707,29.293l-5-5c-0.391-0.391-1.023-0.391-1.414,0L26.29,39.295c-0.084,0.084-0.145,0.185-0.194,0.291
		c-0.012,0.027-0.024,0.052-0.034,0.079c-0.008,0.021-0.02,0.04-0.026,0.061l-2,7c-0.101,0.35-0.003,0.725,0.254,0.982
		c0.19,0.19,0.445,0.293,0.707,0.293c0.092,0,0.184-0.012,0.275-0.038l7-2c0.023-0.006,0.043-0.02,0.066-0.028
		c0.025-0.009,0.047-0.02,0.071-0.03c0.108-0.049,0.211-0.111,0.295-0.196l15.003-15.003C47.894,30.52,48,30.265,48,30
		S47.894,29.481,47.707,29.293z M31.997,43.588l-3.586-3.586L38,30.414L41.586,34L31.997,43.588z M27.492,41.911l2.597,2.597
		l-3.635,1.039L27.492,41.911z M43,32.586L39.414,29L42,26.414L45.586,30L43,32.586z"/>
</g>
</svg>
