<?xml version="1.0" encoding="utf-8"?>
<!-- Generator: Adobe Illustrator 17.0.0, SVG Export Plug-In . SVG Version: 6.00 Build 0)  -->
<!DOCTYPE svg PUBLIC "-//W3C//DTD SVG 1.1//EN" "http://www.w3.org/Graphics/SVG/1.1/DTD/svg11.dtd">
<svg version="1.1" id="Layer_1" xmlns="http://www.w3.org/2000/svg" xmlns:xlink="http://www.w3.org/1999/xlink" x="0px" y="0px"
	 width="48px" height="48px" viewBox="0 0 48 48" enable-background="new 0 0 48 48" xml:space="preserve">
<g>
	<path fill="#231F20" d="M24,3.502c-13.233,0-24,8.867-24,19.766c0,5.147,2.355,9.97,6.65,13.663l-4.82,9.621
		c-0.19,0.381-0.119,0.84,0.177,1.145C2.2,47.895,2.46,48,2.725,48c0.143,0,0.286-0.03,0.421-0.093l12.874-5.991
		c2.557,0.742,5.239,1.117,7.98,1.117c13.233,0,24-8.867,24-19.765C48,12.369,37.233,3.502,24,3.502z M24,41.033
		c-2.676,0-5.288-0.384-7.766-1.14c-0.235-0.071-0.49-0.054-0.714,0.05L4.903,44.884l3.891-7.767c0.212-0.422,0.1-0.935-0.269-1.229
		C4.317,32.522,2,28.04,2,23.268c0-9.796,9.869-17.766,22-17.766s22,7.97,22,17.766S36.131,41.033,24,41.033z"/>
	<circle fill="#231F20" cx="25" cy="32.502" r="2"/>
	<path fill="#231F20" d="M25,12.627c-3.86,0-7,3.195-7,7.124c0,0.552,0.448,1,1,1s1-0.448,1-1c0-2.777,2.29-5.124,5-5.124
		c2.757,0,5,2.215,5,4.938c0,2.722-2.243,4.937-5,4.937c-0.552,0-1,0.448-1,1V28c0,0.552,0.448,1,1,1s1-0.448,1-1v-1.568
		c3.388-0.482,6-3.378,6-6.867C32,15.739,28.86,12.627,25,12.627z"/>
</g>
</svg>
