<?xml version="1.0" encoding="utf-8"?>
<!-- Generator: Adobe Illustrator 17.0.0, SVG Export Plug-In . SVG Version: 6.00 Build 0)  -->
<!DOCTYPE svg PUBLIC "-//W3C//DTD SVG 1.1//EN" "http://www.w3.org/Graphics/SVG/1.1/DTD/svg11.dtd">
<svg version="1.1" id="Layer_1" xmlns="http://www.w3.org/2000/svg" xmlns:xlink="http://www.w3.org/1999/xlink" x="0px" y="0px"
	 width="48px" height="48px" viewBox="0 0 48 48" enable-background="new 0 0 48 48" xml:space="preserve">
<g>
	<path fill="#231F20" d="M45,8H3c-1.654,0-3,1.346-3,3v26c0,1.654,1.346,3,3,3h3v7c0,0.404,0.243,0.769,0.617,0.924
		C6.741,47.975,6.871,48,7,48c0.26,0,0.516-0.102,0.707-0.293L15.414,40H45c1.654,0,3-1.346,3-3V11C48,9.346,46.654,8,45,8z M46,37
		c0,0.551-0.448,1-1,1H15c-0.266,0-0.52,0.106-0.707,0.293L8,44.586V39c0-0.552-0.447-1-1-1H3c-0.552,0-1-0.449-1-1V11
		c0-0.551,0.448-1,1-1h42c0.552,0,1,0.449,1,1V37z"/>
	<circle fill="#231F20" cx="17" cy="24" r="2"/>
	<circle fill="#231F20" cx="33" cy="24" r="2"/>
	<circle fill="#231F20" cx="25" cy="24" r="2"/>
</g>
</svg>
