<?xml version="1.0" encoding="utf-8"?>
<!-- Generator: Adobe Illustrator 17.0.0, SVG Export Plug-In . SVG Version: 6.00 Build 0)  -->
<!DOCTYPE svg PUBLIC "-//W3C//DTD SVG 1.1//EN" "http://www.w3.org/Graphics/SVG/1.1/DTD/svg11.dtd">
<svg version="1.1" id="Layer_1" xmlns="http://www.w3.org/2000/svg" xmlns:xlink="http://www.w3.org/1999/xlink" x="0px" y="0px"
	 width="48px" height="48px" viewBox="0 0 48 48" enable-background="new 0 0 48 48" xml:space="preserve">
<g>
	<path fill="#231F20" d="M24,30h-1c-0.266,0-0.52,0.106-0.707,0.293L16,36.586V31c0-0.552-0.447-1-1-1h-1C7.383,30,2,24.617,2,18
		S7.383,6,14,6h16c6.617,0,12,5.383,12,12c0,1.595-0.313,3.148-0.928,4.614c-0.214,0.509,0.025,1.095,0.534,1.309
		c0.509,0.211,1.096-0.025,1.31-0.535C43.636,21.675,44,19.863,44,18c0-7.72-6.28-14-14-14H14C6.28,4,0,10.28,0,18s6.28,14,14,14v7
		c0,0.404,0.243,0.769,0.617,0.924C14.741,39.975,14.871,40,15,40c0.26,0,0.516-0.102,0.707-0.293L23.414,32H24c0.553,0,1-0.448,1-1
		S24.553,30,24,30z"/>
	<path fill="#231F20" d="M37,26c-6.065,0-11,4.935-11,11s4.935,11,11,11s11-4.935,11-11S43.065,26,37,26z M37,46
		c-4.963,0-9-4.038-9-9s4.037-9,9-9s9,4.038,9,9S41.963,46,37,46z"/>
	<path fill="#231F20" d="M42,36h-4v-4c0-0.552-0.447-1-1-1s-1,0.448-1,1v4h-4c-0.553,0-1,0.448-1,1s0.447,1,1,1h4v4
		c0,0.552,0.447,1,1,1s1-0.448,1-1v-4h4c0.553,0,1-0.448,1-1S42.553,36,42,36z"/>
</g>
</svg>
