<?xml version="1.0" encoding="utf-8"?>
<!-- Generator: Adobe Illustrator 17.0.0, SVG Export Plug-In . SVG Version: 6.00 Build 0)  -->
<!DOCTYPE svg PUBLIC "-//W3C//DTD SVG 1.1//EN" "http://www.w3.org/Graphics/SVG/1.1/DTD/svg11.dtd">
<svg version="1.1" id="Layer_1" xmlns="http://www.w3.org/2000/svg" xmlns:xlink="http://www.w3.org/1999/xlink" x="0px" y="0px"
	 width="48px" height="48px" viewBox="0 0 48 48" enable-background="new 0 0 48 48" xml:space="preserve">
<g>
	<path fill="#231F20" d="M24,31h-1c-0.265,0-0.52,0.106-0.707,0.293L16,37.586V32c0-0.552-0.448-1-1-1h-1C7.383,31,2,25.617,2,19
		C2,12.075,7.607,6,14,6h16c6.393,0,12,6.075,12,13c0,1.596-0.313,3.148-0.928,4.612c-0.214,0.51,0.025,1.096,0.534,1.31
		c0.511,0.215,1.096-0.025,1.309-0.534C43.635,22.676,44,20.863,44,19c0-7.991-6.542-15-14-15H14C6.542,4,0,11.009,0,19
		c0,7.72,6.28,14,14,14v7c0,0.404,0.244,0.769,0.617,0.924C14.741,40.975,14.871,41,15,41c0.26,0,0.516-0.102,0.707-0.293L23.414,33
		H24c0.552,0,1-0.448,1-1S24.552,31,24,31z"/>
	<path fill="#231F20" d="M44.778,29.222C42.701,27.144,39.938,26,37,26c-2.939,0-5.701,1.144-7.778,3.222
		c-2.078,2.077-3.223,4.84-3.223,7.778c0,2.939,1.145,5.701,3.223,7.778C31.299,46.856,34.061,48,37,48
		c2.938,0,5.701-1.144,7.778-3.222C49.067,40.49,49.067,33.511,44.778,29.222z M27.999,37c0-2.404,0.937-4.664,2.637-6.364
		C32.335,28.936,34.596,28,37,28c2.067,0,4.025,0.696,5.615,1.97L29.971,42.615C28.695,41.026,27.999,39.067,27.999,37z
		 M43.364,43.364C41.664,45.064,39.404,46,37,46c-2.067,0-4.026-0.696-5.615-1.971l12.644-12.644
		C46.853,34.915,46.634,40.094,43.364,43.364z"/>
</g>
</svg>
