<?xml version="1.0" encoding="utf-8"?>
<!-- Generator: Adobe Illustrator 17.0.0, SVG Export Plug-In . SVG Version: 6.00 Build 0)  -->
<!DOCTYPE svg PUBLIC "-//W3C//DTD SVG 1.1//EN" "http://www.w3.org/Graphics/SVG/1.1/DTD/svg11.dtd">
<svg version="1.1" id="Layer_1" xmlns="http://www.w3.org/2000/svg" xmlns:xlink="http://www.w3.org/1999/xlink" x="0px" y="0px"
	 width="48px" height="48px" viewBox="0 0 48 48" enable-background="new 0 0 48 48" xml:space="preserve">
<g>
	<path fill="#231F20" d="M24,3.502c-13.233,0-24,8.867-24,19.766c0,5.146,2.355,9.969,6.65,13.663l-4.82,9.621
		c-0.19,0.381-0.119,0.84,0.178,1.145C2.2,47.895,2.46,48,2.725,48c0.142,0,0.287-0.03,0.421-0.093l12.874-5.992
		c2.556,0.742,5.239,1.118,7.98,1.118c13.233,0,24-8.867,24-19.765C48,12.369,37.233,3.502,24,3.502z M24,41.034
		c-2.676,0-5.288-0.384-7.766-1.141c-0.236-0.07-0.491-0.054-0.714,0.05L4.903,44.884l3.892-7.767
		c0.211-0.422,0.098-0.934-0.27-1.229C4.317,32.521,2,28.039,2,23.268c0-9.796,9.869-17.766,22-17.766s22,7.97,22,17.767
		C46,33.065,36.131,41.034,24,41.034z"/>
	<path fill="#231F20" d="M13,20.502c0.553,0,1-0.448,1-1c0-1.654,1.346-3,3-3s3,1.346,3,3c0,0.552,0.447,1,1,1s1-0.448,1-1
		c0-2.757-2.243-5-5-5s-5,2.243-5,5C12,20.054,12.447,20.502,13,20.502z"/>
	<path fill="#231F20" d="M27,20.502c0.553,0,1-0.448,1-1c0-1.654,1.346-3,3-3s3,1.346,3,3c0,0.552,0.447,1,1,1s1-0.448,1-1
		c0-2.757-2.243-5-5-5s-5,2.243-5,5C26,20.054,26.447,20.502,27,20.502z"/>
	<path fill="#231F20" d="M37,23.502c-0.553,0-1,0.448-1,1c0,4.411-3.589,8-8,8h-8c-4.411,0-8-3.589-8-8c0-0.552-0.447-1-1-1
		s-1,0.448-1,1c0,5.514,4.486,10,10,10h8c5.514,0,10-4.486,10-10C38,23.95,37.553,23.502,37,23.502z"/>
</g>
</svg>
