<?xml version="1.0" encoding="utf-8"?>
<!-- Generator: Adobe Illustrator 17.0.0, SVG Export Plug-In . SVG Version: 6.00 Build 0)  -->
<!DOCTYPE svg PUBLIC "-//W3C//DTD SVG 1.1//EN" "http://www.w3.org/Graphics/SVG/1.1/DTD/svg11.dtd">
<svg version="1.1" id="Layer_1" xmlns="http://www.w3.org/2000/svg" xmlns:xlink="http://www.w3.org/1999/xlink" x="0px" y="0px"
	 width="48px" height="48px" viewBox="0 0 48 48" enable-background="new 0 0 48 48" xml:space="preserve">
<g>
	<path fill="#231F20" d="M25,34h-1c-0.266,0-0.52,0.106-0.707,0.293L17,40.586V35c0-0.552-0.447-1-1-1h-1C8.383,34,3,28.617,3,22
		s5.383-12,12-12h16c6.617,0,12,5.383,12,12c0,1.595-0.313,3.148-0.928,4.614c-0.214,0.509,0.025,1.095,0.534,1.309
		c0.507,0.212,1.096-0.026,1.31-0.535C44.636,25.675,45,23.863,45,22c0-7.72-6.28-14-14-14H15C7.28,8,1,14.28,1,22s6.28,14,14,14v7
		c0,0.404,0.243,0.769,0.617,0.924C15.741,43.975,15.871,44,16,44c0.26,0,0.516-0.102,0.707-0.293L24.414,36H25c0.553,0,1-0.448,1-1
		S25.553,34,25,34z"/>
	<path fill="#231F20" d="M47.814,46.392l-9.92-19.839c-0.34-0.678-1.449-0.678-1.789,0l-10,20c-0.155,0.31-0.139,0.678,0.044,0.973
		C26.332,47.82,26.653,48,27,48h20c0.006,0.001,0.014,0.001,0.019,0c0.553,0,1-0.448,1-1C48.019,46.771,47.943,46.56,47.814,46.392z
		 M28.618,46L37,29.236L45.382,46H28.618z"/>
	<path fill="#231F20" d="M36,36v4c0,0.552,0.447,1,1,1s1-0.448,1-1v-4c0-0.552-0.447-1-1-1S36,35.448,36,36z"/>
	<circle fill="#231F20" cx="37" cy="43" r="1"/>
</g>
</svg>
