<?xml version="1.0" encoding="utf-8"?>
<!-- Generator: Adobe Illustrator 17.0.0, SVG Export Plug-In . SVG Version: 6.00 Build 0)  -->
<!DOCTYPE svg PUBLIC "-//W3C//DTD SVG 1.1//EN" "http://www.w3.org/Graphics/SVG/1.1/DTD/svg11.dtd">
<svg version="1.1" id="Layer_1" xmlns="http://www.w3.org/2000/svg" xmlns:xlink="http://www.w3.org/1999/xlink" x="0px" y="0px"
	 width="48px" height="48px" viewBox="0 0 48 48" enable-background="new 0 0 48 48" xml:space="preserve">
<g>
	<path fill="#231F20" d="M25,29c0-0.552-0.448-1-1-1h-7c-0.265,0-0.52,0.105-0.707,0.293L10,34.586V29c0-0.552-0.448-1-1-1H2V2h40
		v19c0,0.552,0.448,1,1,1s1-0.448,1-1V1c0-0.552-0.448-1-1-1H1C0.448,0,0,0.448,0,1v28c0,0.552,0.448,1,1,1h7v7
		c0,0.404,0.244,0.769,0.617,0.924C8.741,37.975,8.871,38,9,38c0.26,0,0.516-0.102,0.707-0.293L17.414,30H24
		C24.552,30,25,29.552,25,29z"/>
	<path fill="#231F20" d="M47.813,46.392L35.894,22.553c-0.339-0.678-1.45-0.678-1.789,0l-12,24c-0.155,0.31-0.138,0.678,0.044,0.973
		C22.331,47.82,22.653,48,23,48h24c0.006,0,0.013,0,0.02,0c0.552,0,1-0.448,0.999-1C48.019,46.771,47.942,46.56,47.813,46.392z
		 M24.618,46L35,25.236L45.382,46H24.618z"/>
	<path fill="#231F20" d="M34,32.819v6.545c0,0.552,0.448,1,1,1s1-0.448,1-1v-6.545c0-0.552-0.448-1-1-1S34,32.267,34,32.819z"/>
	<circle fill="#231F20" cx="35" cy="42.637" r="1.091"/>
</g>
</svg>
