<?xml version="1.0" encoding="utf-8"?>
<!-- Generator: Adobe Illustrator 17.0.0, SVG Export Plug-In . SVG Version: 6.00 Build 0)  -->
<!DOCTYPE svg PUBLIC "-//W3C//DTD SVG 1.1//EN" "http://www.w3.org/Graphics/SVG/1.1/DTD/svg11.dtd">
<svg version="1.1" id="Layer_1" xmlns="http://www.w3.org/2000/svg" xmlns:xlink="http://www.w3.org/1999/xlink" x="0px" y="0px"
	 width="48px" height="48px" viewBox="0 0 48 48" enable-background="new 0 0 48 48" xml:space="preserve">
<g>
	<path fill="#231F20" d="M28,33c0-0.552-0.448-1-1-1h-4c-0.265,0-0.52,0.106-0.707,0.293L16,38.586V33c0-0.552-0.448-1-1-1h-1
		C7.383,32,2,26.617,2,20S7.383,8,14,8h16c6.617,0,12,5.383,12,12c0,0.618-0.048,1.239-0.142,1.847
		c-0.085,0.546,0.288,1.057,0.834,1.142c0.544,0.084,1.056-0.289,1.142-0.835C43.944,21.445,44,20.721,44,20c0-7.72-6.28-14-14-14
		H14C6.28,6,0,12.28,0,20s6.28,14,14,14v7c0,0.404,0.244,0.769,0.617,0.924C14.741,41.975,14.871,42,15,42
		c0.26,0,0.516-0.102,0.707-0.293L23.414,34H27C27.552,34,28,33.552,28,33z"/>
	<path fill="#231F20" d="M46.707,31.293l-5-5c-0.391-0.391-1.023-0.391-1.414,0l-13,13c0,0,0,0,0,0c0,0,0,0,0,0
		c-0.084,0.084-0.145,0.185-0.194,0.292c-0.012,0.026-0.024,0.051-0.033,0.078c-0.008,0.021-0.02,0.04-0.026,0.062l-2,7
		c-0.101,0.35-0.003,0.725,0.254,0.982C25.483,47.898,25.738,48,26,48c0.092,0,0.184-0.013,0.275-0.039l7-2
		c0.022-0.006,0.041-0.019,0.063-0.027c0.026-0.01,0.051-0.021,0.077-0.033c0.107-0.049,0.209-0.11,0.293-0.194l13-13
		C47.098,32.316,47.098,31.684,46.707,31.293z M33,43.586L29.414,40L37,32.414L40.586,36L33,43.586z M28.495,41.908l2.597,2.597
		l-3.636,1.039L28.495,41.908z M42,34.586L38.414,31L41,28.414L44.586,32L42,34.586z"/>
</g>
</svg>
