<?xml version="1.0" encoding="utf-8"?>
<!-- Generator: Adobe Illustrator 17.0.0, SVG Export Plug-In . SVG Version: 6.00 Build 0)  -->
<!DOCTYPE svg PUBLIC "-//W3C//DTD SVG 1.1//EN" "http://www.w3.org/Graphics/SVG/1.1/DTD/svg11.dtd">
<svg version="1.1" id="Layer_1" xmlns="http://www.w3.org/2000/svg" xmlns:xlink="http://www.w3.org/1999/xlink" x="0px" y="0px"
	 width="48px" height="48px" viewBox="0 0 48 48" enable-background="new 0 0 48 48" xml:space="preserve">
<g>
	<path fill="#231F20" d="M24,3.502c-13.233,0-24,8.867-24,19.766c0,5.147,2.355,9.97,6.65,13.663l-4.82,9.621
		c-0.19,0.381-0.119,0.84,0.177,1.145C2.2,47.895,2.46,48,2.725,48c0.143,0,0.286-0.03,0.421-0.093l12.874-5.991
		c2.557,0.742,5.239,1.117,7.98,1.117c13.233,0,24-8.867,24-19.765C48,12.369,37.233,3.502,24,3.502z M24,41.033
		c-2.676,0-5.288-0.384-7.766-1.14c-0.236-0.071-0.49-0.054-0.714,0.05L4.903,44.884l3.891-7.767c0.212-0.422,0.1-0.935-0.269-1.229
		C4.317,32.522,2,28.04,2,23.268c0-9.796,9.869-17.766,22-17.766s22,7.97,22,17.766S36.131,41.033,24,41.033z"/>
	<path fill="#231F20" d="M22.999,27c0.553,0,1-0.448,1-1V14c0-0.552-0.448-1-1-1s-1,0.448-1,1v12C21.999,26.552,22.447,27,22.999,27
		z"/>
	<path fill="#231F20" d="M23,28.503c-0.012,0-0.024,0-0.036,0c-1.104,0.018-1.983,0.93-1.965,2.033
		c0.02,1.094,0.911,1.965,1.999,1.965c0.012,0,0.024,0,0.036,0c1.103-0.02,1.985-0.93,1.965-2.034
		C24.98,29.375,24.09,28.503,23,28.503z"/>
</g>
</svg>
