<?xml version="1.0" encoding="utf-8"?>
<!-- Generator: Adobe Illustrator 17.0.0, SVG Export Plug-In . SVG Version: 6.00 Build 0)  -->
<!DOCTYPE svg PUBLIC "-//W3C//DTD SVG 1.1//EN" "http://www.w3.org/Graphics/SVG/1.1/DTD/svg11.dtd">
<svg version="1.1" id="Layer_1" xmlns="http://www.w3.org/2000/svg" xmlns:xlink="http://www.w3.org/1999/xlink" x="0px" y="0px"
	 width="48px" height="48px" viewBox="0 0 48 48" enable-background="new 0 0 48 48" xml:space="preserve">
<g>
	<path fill="#231F20" d="M24,31h-1c-0.265,0-0.52,0.106-0.707,0.293L16,37.586V32c0-0.552-0.448-1-1-1h-1C7.383,31,2,25.617,2,19
		C2,12.075,7.607,6,14,6h16c6.393,0,12,6.075,12,13c0,1.595-0.312,3.148-0.928,4.614c-0.214,0.509,0.026,1.095,0.535,1.309
		c0.509,0.215,1.095-0.026,1.309-0.535C43.635,22.675,44,20.863,44,19c0-7.991-6.542-15-14-15H14C6.542,4,0,11.009,0,19
		c0,7.72,6.28,14,14,14v7c0,0.404,0.244,0.769,0.617,0.924C14.741,40.975,14.871,41,15,41c0.26,0,0.516-0.102,0.707-0.293L23.414,33
		H24c0.552,0,1-0.448,1-1S24.552,31,24,31z"/>
	<path fill="#231F20" d="M41.242,32.757c-0.39-0.391-1.023-0.391-1.414,0L37,35.586l-2.828-2.828c-0.391-0.391-1.023-0.391-1.414,0
		c-0.391,0.39-0.391,1.023,0,1.414L35.586,37l-2.828,2.828c-0.391,0.391-0.391,1.023,0,1.414c0.195,0.195,0.451,0.293,0.707,0.293
		c0.256,0,0.512-0.097,0.707-0.293L37,38.414l2.828,2.829c0.195,0.195,0.451,0.293,0.707,0.293c0.256,0,0.512-0.098,0.707-0.293
		c0.391-0.39,0.391-1.023,0-1.414L38.413,37l2.829-2.829C41.633,33.78,41.633,33.148,41.242,32.757z"/>
	<path fill="#231F20" d="M37,26c-6.065,0-11,4.935-11,11s4.935,11,11,11s11-4.935,11-11S43.065,26,37,26z M37,46
		c-4.962,0-9-4.038-9-9s4.038-9,9-9s9,4.038,9,9S41.962,46,37,46z"/>
</g>
</svg>
