<?xml version="1.0" encoding="utf-8"?>
<!-- Generator: Adobe Illustrator 17.0.0, SVG Export Plug-In . SVG Version: 6.00 Build 0)  -->
<!DOCTYPE svg PUBLIC "-//W3C//DTD SVG 1.1//EN" "http://www.w3.org/Graphics/SVG/1.1/DTD/svg11.dtd">
<svg version="1.1" id="Layer_1" xmlns="http://www.w3.org/2000/svg" xmlns:xlink="http://www.w3.org/1999/xlink" x="0px" y="0px"
	 width="48px" height="48px" viewBox="0 0 48 48" enable-background="new 0 0 48 48" xml:space="preserve">
<g>
	<path fill="#231F20" d="M47,6H1C0.448,6,0,6.448,0,7v32c0,0.552,0.448,1,1,1h13v7c0,0.404,0.244,0.769,0.617,0.924
		C14.741,47.975,14.871,48,15,48c0.26,0,0.516-0.102,0.707-0.293L23.415,40H47c0.552,0,1-0.448,1-1V7C48,6.448,47.552,6,47,6z
		 M46,38H23c-0.265,0-0.519,0.105-0.707,0.293L16,44.586V39c0-0.265-0.105-0.52-0.293-0.707C15.52,38.105,15.265,38,15,38H2V8h44V38
		z"/>
	<path fill="#231F20" d="M23.412,33.809C23.587,33.936,23.793,34,24,34c0.206,0,0.413-0.064,0.588-0.191
		C25.054,33.47,36,25.436,36,19.074C36,14.646,32.722,12,29.553,12c-1.901,0-4.141,0.983-5.553,3.568
		C22.588,12.983,20.348,12,18.447,12C15.278,12,12,14.646,12,19.074C12,25.436,22.946,33.47,23.412,33.809z M18.447,14
		c2.172,0,3.884,1.729,4.581,4.625c0.108,0.449,0.51,0.766,0.972,0.766s0.864-0.317,0.972-0.766C25.668,15.729,27.381,14,29.553,14
		C31.739,14,34,15.898,34,19.074c0,4.168-6.74,10.185-10,12.678c-3.26-2.493-10-8.51-10-12.678C14,15.898,16.261,14,18.447,14z"/>
</g>
</svg>
