<?xml version="1.0" encoding="utf-8"?>
<!-- Generator: Adobe Illustrator 17.0.0, SVG Export Plug-In . SVG Version: 6.00 Build 0)  -->
<!DOCTYPE svg PUBLIC "-//W3C//DTD SVG 1.1//EN" "http://www.w3.org/Graphics/SVG/1.1/DTD/svg11.dtd">
<svg version="1.1" id="Layer_1" xmlns="http://www.w3.org/2000/svg" xmlns:xlink="http://www.w3.org/1999/xlink" x="0px" y="0px"
	 width="48px" height="48px" viewBox="0 0 48 48" enable-background="new 0 0 48 48" xml:space="preserve">
<g>
	<path fill="#231F20" d="M24,3.502c-13.233,0-24,8.867-24,19.766c0,5.146,2.354,9.969,6.65,13.662l-4.82,9.622
		c-0.19,0.381-0.119,0.84,0.178,1.145C2.2,47.895,2.46,48,2.725,48c0.142,0,0.287-0.03,0.421-0.093l12.874-5.992
		c2.556,0.742,5.239,1.118,7.98,1.118c13.233,0,24-8.867,24-19.765C48,12.369,37.233,3.502,24,3.502z M23.999,41.034
		c-2.676,0-5.289-0.384-7.766-1.141c-0.236-0.07-0.49-0.054-0.714,0.05L4.902,44.884l3.892-7.767
		c0.212-0.422,0.099-0.934-0.269-1.229C4.317,32.521,2,28.039,2,23.268c0-9.796,9.869-17.766,22-17.766s22,7.97,21.999,17.767
		C45.999,33.065,36.13,41.034,23.999,41.034z"/>
	<path fill="#231F20" d="M21,14h-8c-0.553,0-1,0.448-1,1v8c0,0.552,0.447,1,1,1h7v3.502c0,1.654-1.346,3-3,3c-0.553,0-1,0.448-1,1
		s0.447,1,1,1c2.757,0,5-2.243,5-5V23v-8C22,14.448,21.553,14,21,14z M14,16h6v6h-6V16z"/>
	<path fill="#231F20" d="M35,14h-8c-0.553,0-1,0.448-1,1v8c0,0.552,0.447,1,1,1h7v3.502c0,1.654-1.346,3-3,3c-0.553,0-1,0.448-1,1
		s0.447,1,1,1c2.757,0,5-2.243,5-5V23v-8C36,14.448,35.553,14,35,14z M28,16h6v6h-6V16z"/>
</g>
</svg>
