<?xml version="1.0" encoding="utf-8"?>
<!-- Generator: Adobe Illustrator 17.0.0, SVG Export Plug-In . SVG Version: 6.00 Build 0)  -->
<!DOCTYPE svg PUBLIC "-//W3C//DTD SVG 1.1//EN" "http://www.w3.org/Graphics/SVG/1.1/DTD/svg11.dtd">
<svg version="1.1" id="Layer_1" xmlns="http://www.w3.org/2000/svg" xmlns:xlink="http://www.w3.org/1999/xlink" x="0px" y="0px"
	 width="48px" height="48px" viewBox="0 0 48 48" enable-background="new 0 0 48 48" xml:space="preserve">
<g>
	<polygon fill="#231F20" points="16,0 16,9 18,9 18,2 46,2 46,18 39.256,18 33,24.515 33,18 28,18 28,20 31,20 31,29.485 40.107,20 
		48,20 48,0 	"/>
	<rect x="35.682" y="10" fill="#231F20" width="2" height="2"/>
	<rect x="30.682" y="10" fill="#231F20" width="2" height="2"/>
	<rect x="25.682" y="10" fill="#231F20" width="2" height="2"/>
	<path fill="#231F20" d="M21,35.325v-2.794c0.69-0.582,1.684-1.917,1.824-4.826c0.826-0.547,1.264-1.767,1.264-2.932
		c0-1.048-0.364-1.879-0.973-2.349c0.429-1.027,1.047-2.784,0.575-4.667C22.997,14.984,19.54,14,16.791,14
		c-2.449,0-5.459,0.78-6.578,2.91c-1.227-0.058-1.841,0.479-2.129,0.923c-0.82,1.262,0.005,3.216,0.607,4.57
		C7.96,22.908,7.5,23.85,7.5,25c0,1.315,0.602,2.357,1.522,2.788c0.166,2.894,1.243,4.206,1.978,4.772v2.765
		C7.247,36.855,0,40.06,0,42v5c0,0.552,0.447,1,1,1h30c0.553,0,1-0.448,1-1v-5C32,40.06,24.753,36.855,21,35.325z M30,46H2v-3.79
		c0.773-0.856,5.211-3.217,10.371-5.281C12.751,36.776,13,36.409,13,36v-4c0-0.392-0.274-0.767-0.631-0.929
		C12.355,31.065,11,30.409,11,27c0-0.552-0.447-1-1-1c-0.345,0-0.5-0.585-0.5-1s0.155-1,0.5-1c0.553,0,1-0.448,1-1
		c0-0.331-0.14-0.644-0.418-1.267c-0.87-1.949-0.925-2.607-0.848-2.784c0.001-0.001,0.367-0.083,0.926,0.031
		c0.522,0.106,1.041-0.218,1.17-0.737C12.198,16.771,14.604,16,16.791,16c2.186,0,4.592,0.771,4.96,2.243
		c0.364,1.459-0.251,2.883-0.619,3.734C20.94,22.42,20.825,22.688,20.825,23c0,0.552,0.447,1,1,1c0.054,0,0.114,0,0.188,0.231
		c0.205,0.632-0.051,1.549-0.269,1.773C21.236,26.053,20.84,26.48,20.84,27c0,3.373-1.207,4.065-1.196,4.065
		C19.257,31.212,19,31.585,19,32v4c0,0.409,0.249,0.776,0.629,0.929c5.16,2.064,9.598,4.425,10.371,5.281V46z"/>
</g>
</svg>
