<?xml version="1.0" encoding="utf-8"?>
<!-- Generator: Adobe Illustrator 17.0.0, SVG Export Plug-In . SVG Version: 6.00 Build 0)  -->
<!DOCTYPE svg PUBLIC "-//W3C//DTD SVG 1.1//EN" "http://www.w3.org/Graphics/SVG/1.1/DTD/svg11.dtd">
<svg version="1.1" id="Layer_1" xmlns="http://www.w3.org/2000/svg" xmlns:xlink="http://www.w3.org/1999/xlink" x="0px" y="0px"
	 width="48px" height="48px" viewBox="0 0 48 48" enable-background="new 0 0 48 48" xml:space="preserve">
<path fill="#231F20" d="M24,1C10.767,1,0,9.867,0,20.766c0,5.147,2.354,9.97,6.65,13.662L1.83,44.05
	c-0.19,0.381-0.119,0.84,0.178,1.145c0.193,0.198,0.452,0.303,0.717,0.303c0.142,0,0.287-0.03,0.421-0.093l12.874-5.992
	c2.557,0.742,5.24,1.117,7.98,1.117c13.233,0,24-8.866,24-19.764C48,9.867,37.233,1,24,1z M24,38.53
	c-2.675,0-5.288-0.384-7.766-1.14c-0.236-0.071-0.49-0.054-0.714,0.05L4.902,42.382l3.892-7.767
	c0.211-0.422,0.099-0.935-0.269-1.229C4.317,30.019,2,25.537,2,20.766C2,10.97,11.869,3,24,3s22,7.97,22,17.765
	C46,30.561,36.131,38.53,24,38.53z"/>
</svg>
