<?xml version="1.0" encoding="utf-8"?>
<!-- Generator: Adobe Illustrator 17.0.0, SVG Export Plug-In . SVG Version: 6.00 Build 0)  -->
<!DOCTYPE svg PUBLIC "-//W3C//DTD SVG 1.1//EN" "http://www.w3.org/Graphics/SVG/1.1/DTD/svg11.dtd">
<svg version="1.1" id="Layer_1" xmlns="http://www.w3.org/2000/svg" xmlns:xlink="http://www.w3.org/1999/xlink" x="0px" y="0px"
	 width="48px" height="48px" viewBox="0 0 48 48" enable-background="new 0 0 48 48" xml:space="preserve">
<g>
	<path fill="#231F20" d="M34.041,0C27.19,0,21.385,4.545,20.239,10.809l1.968,0.36c0.972-5.312,5.948-9.168,11.834-9.168
		c6.617,0,12,4.935,12,11c0,4.444-2.888,8.427-7.358,10.147l-0.178,0.068l-0.14,0.128c-0.686,0.631-3.187,3.114-5.323,5.244
		c0.001-1.44,0.003-3.06,0.007-3.721l0.005-0.874l-0.865-0.123c-0.968-0.137-1.917-0.384-2.818-0.734L28.647,25
		c0.774,0.301,1.578,0.536,2.398,0.702c-0.004,1.623-0.004,4.475-0.004,5.298v2.414l1.707-1.707
		c3.628-3.628,6.034-6.009,6.837-6.766c5.144-2.058,8.456-6.725,8.456-11.941C48.041,5.832,41.761,0,34.041,0z"/>
	<rect x="38.041" y="13" fill="#231F20" width="2" height="2"/>
	<rect x="33.041" y="13" fill="#231F20" width="2" height="2"/>
	<rect x="28.041" y="13" fill="#231F20" width="2" height="2"/>
	<path fill="#231F20" d="M21.041,35.325v-2.766c0.742-0.57,1.832-1.905,1.982-4.859c0.835-0.553,1.31-1.79,1.31-2.995
		c0-0.667-0.152-1.262-0.44-1.72c-0.138-0.219-0.303-0.404-0.491-0.552c0.441-1.027,1.081-2.788,0.609-4.676
		C23.318,14.984,19.823,14,17.041,14c-2.477,0-5.52,0.78-6.645,2.911c-1.238-0.051-1.86,0.479-2.156,0.926
		c-0.838,1.265-0.058,3.218,0.515,4.573c-0.207,0.154-0.388,0.348-0.537,0.58c-0.3,0.466-0.458,1.07-0.458,1.749
		c0,1.191,0.471,2.413,1.299,2.962c0.15,2.954,1.24,4.288,1.982,4.859v2.765c-3.753,1.53-11,4.735-11,6.675v5c0,0.552,0.448,1,1,1
		h30c0.553,0,1-0.448,1-1v-5C32.041,40.06,24.794,36.854,21.041,35.325z M30.041,46H2.042v-3.789
		c0.774-0.856,5.211-3.217,10.372-5.281c0.379-0.153,0.628-0.52,0.628-0.929v-4c0-0.392-0.274-0.766-0.631-0.929
		c-0.013-0.006-1.369-0.662-1.369-4.071c0-0.522-0.401-0.951-0.911-0.996c-0.225-0.216-0.503-1.128-0.306-1.764
		c0.074-0.24,0.136-0.24,0.216-0.24c0.552,0,1-0.448,1-1c0-0.32-0.128-0.621-0.383-1.223c-0.841-1.982-0.873-2.638-0.766-2.823
		c0.002-0.001,0.374-0.093,0.949,0.025c0.524,0.107,1.04-0.218,1.17-0.737c0.325-1.3,2.44-2.243,5.03-2.243
		c2.59,0,4.706,0.943,5.03,2.242c0.362,1.451-0.27,2.872-0.647,3.722c-0.199,0.448-0.319,0.718-0.319,1.036
		c0,0.552,0.507,1.007,1.059,1.007c0.043,0.027,0.163,0.238,0.168,0.671c0.007,0.643-0.233,1.18-0.382,1.326
		c-0.51,0.045-0.91,0.474-0.91,0.996c0,3.386-1.338,4.056-1.33,4.056c0,0,0,0,0.001,0c-0.401,0.14-0.67,0.519-0.67,0.944v4
		c0,0.409,0.249,0.777,0.628,0.929c5.161,2.064,9.599,4.425,10.372,5.281V46z"/>
</g>
</svg>
