<?xml version="1.0" encoding="utf-8"?>
<!-- Generator: Adobe Illustrator 17.0.0, SVG Export Plug-In . SVG Version: 6.00 Build 0)  -->
<!DOCTYPE svg PUBLIC "-//W3C//DTD SVG 1.1//EN" "http://www.w3.org/Graphics/SVG/1.1/DTD/svg11.dtd">
<svg version="1.1" id="Layer_1" xmlns="http://www.w3.org/2000/svg" xmlns:xlink="http://www.w3.org/1999/xlink" x="0px" y="0px"
	 width="48px" height="48px" viewBox="0 0 48 48" enable-background="new 0 0 48 48" xml:space="preserve">
<g>
	<path fill="#231F20" d="M24,0C10.767,0,0,10.767,0,24s10.767,24,24,24c13.233,0,24-10.767,24-24S37.233,0,24,0z M24,46
		C11.869,46,2,36.131,2,24S11.869,2,24,2s22,9.869,22,22S36.131,46,24,46z"/>
	<path fill="#231F20" d="M39,25H9c-0.552,0-1,0.448-1,1c0,8.822,7.178,16,16,16s16-7.178,16-16C40,25.448,39.552,25,39,25z M24,40
		c-7.383,0-13.45-5.746-13.965-13h27.93C37.45,34.254,31.383,40,24,40z"/>
	<path fill="#231F20" d="M15,19c2.206,0,4-1.794,4-4s-1.794-4-4-4s-4,1.794-4,4S12.794,19,15,19z M15,13c1.103,0,2,0.897,2,2
		s-0.897,2-2,2s-2-0.897-2-2S13.897,13,15,13z"/>
	<path fill="#231F20" d="M33,19c2.206,0,4-1.794,4-4s-1.794-4-4-4s-4,1.794-4,4S30.794,19,33,19z M33,13c1.103,0,2,0.897,2,2
		s-0.897,2-2,2s-2-0.897-2-2S31.897,13,33,13z"/>
</g>
</svg>
