<?xml version="1.0" encoding="utf-8"?>
<!-- Generator: Adobe Illustrator 17.0.0, SVG Export Plug-In . SVG Version: 6.00 Build 0)  -->
<!DOCTYPE svg PUBLIC "-//W3C//DTD SVG 1.1//EN" "http://www.w3.org/Graphics/SVG/1.1/DTD/svg11.dtd">
<svg version="1.1" id="Layer_1" xmlns="http://www.w3.org/2000/svg" xmlns:xlink="http://www.w3.org/1999/xlink" x="0px" y="0px"
	 width="48px" height="48px" viewBox="0 0 48 48" enable-background="new 0 0 48 48" xml:space="preserve">
<g>
	<path fill="#231F20" d="M24,0C10.767,0,0,10.767,0,24s10.767,24,24,24c13.233,0,24-10.767,24-24S37.233,0,24,0z M24,46
		C11.869,46,2,36.131,2,24S11.869,2,24,2s22,9.869,22,22S36.131,46,24,46z"/>
	<path fill="#231F20" d="M39,25c-0.553,0-1,0.448-1,1c0,7.72-6.28,14-14,14s-14-6.28-14-14c0-0.552-0.447-1-1-1s-1,0.448-1,1
		c0,8.822,7.178,16,16,16s16-7.178,16-16C40,25.448,39.553,25,39,25z"/>
	<path fill="#231F20" d="M33,21c2.757,0,5-2.243,5-5c0-0.552-0.447-1-1-1s-1,0.448-1,1c0,1.654-1.346,3-3,3s-3-1.346-3-3
		c0-0.552-0.447-1-1-1s-1,0.448-1,1C28,18.757,30.243,21,33,21z"/>
	<path fill="#231F20" d="M15,21c2.757,0,5-2.243,5-5c0-0.552-0.447-1-1-1s-1,0.448-1,1c0,1.654-1.346,3-3,3s-3-1.346-3-3
		c0-0.552-0.447-1-1-1s-1,0.448-1,1C10,18.757,12.243,21,15,21z"/>
</g>
</svg>
