<?xml version="1.0" encoding="utf-8"?>
<!-- Generator: Adobe Illustrator 17.0.0, SVG Export Plug-In . SVG Version: 6.00 Build 0)  -->
<!DOCTYPE svg PUBLIC "-//W3C//DTD SVG 1.1//EN" "http://www.w3.org/Graphics/SVG/1.1/DTD/svg11.dtd">
<svg version="1.1" id="Layer_1" xmlns="http://www.w3.org/2000/svg" xmlns:xlink="http://www.w3.org/1999/xlink" x="0px" y="0px"
	 width="48px" height="48px" viewBox="0 0 48 48" enable-background="new 0 0 48 48" xml:space="preserve">
<g>
	<path fill="#231F20" d="M24,0C10.767,0,0,10.767,0,24s10.767,24,24,24c13.233,0,24-10.767,24-24S37.233,0,24,0z M10.002,40.96
		C10.024,33.258,16.294,27,24,27s13.976,6.258,13.998,13.96C34.192,44.107,29.313,46,24,46S13.808,44.107,10.002,40.96z
		 M39.89,39.191C38.988,31.219,32.21,25,24,25S9.012,31.219,8.11,39.191C4.329,35.239,2,29.888,2,24C2,11.869,11.869,2,24,2
		s22,9.869,22,22C46,29.888,43.671,35.239,39.89,39.191z"/>
	<path fill="#231F20" d="M19,15c-0.553,0-1,0.448-1,1c0,1.654-1.346,3-3,3s-3-1.346-3-3c0-0.552-0.447-1-1-1s-1,0.448-1,1
		c0,2.757,2.243,5,5,5s5-2.243,5-5C20,15.448,19.553,15,19,15z"/>
	<path fill="#231F20" d="M37,15c-0.553,0-1,0.448-1,1c0,1.654-1.346,3-3,3s-3-1.346-3-3c0-0.552-0.447-1-1-1s-1,0.448-1,1
		c0,2.757,2.243,5,5,5s5-2.243,5-5C38,15.448,37.553,15,37,15z"/>
</g>
</svg>
