<?xml version="1.0" encoding="utf-8"?>
<!-- Generator: Adobe Illustrator 17.0.0, SVG Export Plug-In . SVG Version: 6.00 Build 0)  -->
<!DOCTYPE svg PUBLIC "-//W3C//DTD SVG 1.1//EN" "http://www.w3.org/Graphics/SVG/1.1/DTD/svg11.dtd">
<svg version="1.1" id="Layer_1" xmlns="http://www.w3.org/2000/svg" xmlns:xlink="http://www.w3.org/1999/xlink" x="0px" y="0px"
	 width="48px" height="48px" viewBox="0 0 48 48" enable-background="new 0 0 48 48" xml:space="preserve">
<g>
	<path fill="#231F20" d="M28.217,38.704L21,36.148v-3.387c2.235-1.885,3.697-4.941,3.698-8.396c0-5.715-3.99-10.365-8.895-10.365
		c-4.905,0-8.895,4.65-8.894,10.365c0,3.654,1.634,6.865,4.091,8.712v3.071l-7.216,2.555C1.52,39.503,0,41.655,0,44.057V48h32
		v-3.943C32,41.654,30.479,39.503,28.217,38.704z M15.803,16c3.309,0,6.08,2.845,6.743,6.625c-2.109,0.352-3.394-0.349-4.67-2.553
		l-0.906-1.567l-0.844,1.601c-0.684,1.298-3.096,2.479-5.061,2.479c-0.709,0-1.326-0.104-1.927-0.323
		C9.91,18.666,12.601,16,15.803,16z M8.909,24.365c0-0.029,0.003-0.056,0.004-0.085c0.679,0.197,1.383,0.305,2.152,0.305
		c2.13,0,4.459-0.964,5.872-2.314c1.269,1.661,2.762,2.45,4.64,2.45c0.354,0,0.727-0.038,1.11-0.093
		c-0.116,4.492-3.155,8.104-6.884,8.104C12.002,32.732,8.909,28.978,8.909,24.365z M30,46H2v-1.943c0-1.556,0.985-2.95,2.451-3.468
		L13,37.561v-3.365c0.882,0.343,1.823,0.536,2.803,0.536c1.128,0,2.203-0.256,3.197-0.704v3.533l8.55,3.028
		c1.465,0.518,2.45,1.912,2.45,3.468V46z"/>
	<circle fill="#231F20" cx="27" cy="12" r="2"/>
	<path fill="#231F20" d="M34.5,27c-1.934,0-3.5,1.567-3.5,3.5s1.566,3.5,3.5,3.5c1.933,0,3.5-1.567,3.5-3.5S36.433,27,34.5,27z
		 M34.5,32c-0.827,0-1.5-0.673-1.5-1.5s0.673-1.5,1.5-1.5s1.5,0.673,1.5,1.5S35.327,32,34.5,32z"/>
	<circle fill="#231F20" cx="27" cy="33" r="2"/>
	<circle fill="#231F20" cx="33" cy="12" r="2"/>
	<circle fill="#231F20" cx="39" cy="12" r="2"/>
	<path fill="#231F20" d="M36.8,0c-2.716,0-4.96,0.895-7.011,2.806c-2.545-1.051-5.397-0.992-7.931,0.181
		c-2.786,1.291-4.873,3.797-5.582,6.703l1.945,0.473c0.565-2.32,2.24-4.325,4.479-5.362c2.232-1.035,4.665-1,6.853,0.093
		l0.655,0.327l0.51-0.525C32.528,2.832,34.404,2,36.8,2c6.048,0,9.213,4.731,9.213,9.403c0,2.303-0.777,4.414-2.187,5.944
		C42.226,19.083,39.865,20,37,20h-0.528l-0.298,0.436C35.328,21.675,33.786,23,32,23c-1.778,0-3.351-0.937-4.106-2.448l-1.789,0.895
		C27.201,23.639,29.46,25,32,25c2.03,0,4.059-1.115,5.516-3.009c3.21-0.109,5.891-1.241,7.78-3.289
		c1.752-1.9,2.717-4.492,2.717-7.299C48.013,5.876,44.083,0,36.8,0z"/>
</g>
</svg>
