<?xml version="1.0" encoding="utf-8"?>
<!-- Generator: Adobe Illustrator 17.0.0, SVG Export Plug-In . SVG Version: 6.00 Build 0)  -->
<!DOCTYPE svg PUBLIC "-//W3C//DTD SVG 1.1//EN" "http://www.w3.org/Graphics/SVG/1.1/DTD/svg11.dtd">
<svg version="1.1" id="Layer_2" xmlns="http://www.w3.org/2000/svg" xmlns:xlink="http://www.w3.org/1999/xlink" x="0px" y="0px"
	 width="60px" height="60px" viewBox="0 0 60 60" enable-background="new 0 0 60 60" xml:space="preserve">
<g>
	<path fill="#010101" d="M34,37c0,0.553-0.448,1-1,1h-8c-0.552,0-1-0.447-1-1v-5H2v21c0,0.553,0.448,1,1,1h54c0.552,0,1-0.447,1-1
		V32H34V37z"/>
	<path fill="#010101" d="M57,16H39.951C39.46,10.318,34.83,6,29,6c-5.83,0-10.46,4.318-10.951,10H3c-0.552,0-1,0.447-1,1v13h22v-3
		c0-0.553,0.448-1,1-1h8c0.552,0,1,0.447,1,1v3h24V17C58,16.447,57.552,16,57,16z M20.056,16c0.483-4.559,4.236-8,8.944-8
		s8.461,3.441,8.944,8H20.056z"/>
</g>
</svg>
