<?xml version="1.0" encoding="utf-8"?>
<!-- Generator: Adobe Illustrator 17.0.0, SVG Export Plug-In . SVG Version: 6.00 Build 0)  -->
<!DOCTYPE svg PUBLIC "-//W3C//DTD SVG 1.1//EN" "http://www.w3.org/Graphics/SVG/1.1/DTD/svg11.dtd">
<svg version="1.1" id="Layer_2" xmlns="http://www.w3.org/2000/svg" xmlns:xlink="http://www.w3.org/1999/xlink" x="0px" y="0px"
	 width="60px" height="60px" viewBox="0 0 60 60" enable-background="new 0 0 60 60" xml:space="preserve">
<g>
	<path fill="#010101" d="M30,23.696c-3.309,0-6,2.691-6,6c0,3.309,2.691,6,6,6c3.309,0,6-2.691,6-6
		C36,26.387,33.309,23.696,30,23.696z"/>
	<path fill="#010101" d="M21,29.696c0-1.105-0.896-2-2-2h-5c-1.105,0-2,0.895-2,2c0,1.104,0.895,2,2,2h5
		C20.104,31.696,21,30.8,21,29.696z"/>
	<path fill="#010101" d="M20.169,36.611l-3.567,3.565c-0.781,0.78-0.781,2.047,0,2.828c0.391,0.391,0.902,0.586,1.414,0.586
		c0.512,0,1.023-0.195,1.414-0.586l3.567-3.565c0.781-0.78,0.781-2.047,0-2.828C22.217,35.831,20.951,35.829,20.169,36.611z"/>
	<path fill="#010101" d="M30,39.348c-1.105,0-2,0.896-2,2v5.043c0,1.104,0.895,2,2,2c1.104,0,2-0.896,2-2v-5.043
		C32,40.244,31.104,39.348,30,39.348z"/>
	<path fill="#010101" d="M39.045,36.61c-0.781-0.78-2.047-0.782-2.829,0c-0.781,0.78-0.781,2.047,0,2.828l3.565,3.566
		c0.391,0.391,0.902,0.586,1.415,0.586c0.512,0,1.023-0.195,1.414-0.586c0.781-0.78,0.781-2.047,0-2.828L39.045,36.61z"/>
	<path fill="#010101" d="M46,27.696h-5c-1.105,0-2,0.895-2,2c0,1.104,0.895,2,2,2h5c1.104,0,2-0.896,2-2
		C48,28.591,47.104,27.696,46,27.696z"/>
	<path fill="#010101" d="M37.631,23.975c0.512,0,1.024-0.195,1.414-0.586l3.565-3.566c0.781-0.781,0.781-2.047,0-2.828
		c-0.78-0.781-2.048-0.781-2.828,0l-3.565,3.565c-0.781,0.781-0.781,2.047,0,2.828C36.607,23.78,37.119,23.975,37.631,23.975z"/>
	<path fill="#010101" d="M30,20.653c1.104,0,2-0.896,2-2v-5.044c0-1.104-0.896-2-2-2c-1.105,0-2,0.896-2,2v5.044
		C28,19.757,28.895,20.653,30,20.653z"/>
	<path fill="#010101" d="M20.168,23.389c0.39,0.391,0.902,0.586,1.414,0.586c0.512,0,1.024-0.195,1.414-0.586
		c0.781-0.781,0.781-2.047,0-2.828l-3.565-3.565c-0.78-0.781-2.048-0.781-2.828,0c-0.781,0.781-0.781,2.047,0,2.828L20.168,23.389z"
		/>
</g>
</svg>
