<?xml version="1.0" encoding="utf-8"?>
<!-- Generator: Adobe Illustrator 17.0.0, SVG Export Plug-In . SVG Version: 6.00 Build 0)  -->
<!DOCTYPE svg PUBLIC "-//W3C//DTD SVG 1.1//EN" "http://www.w3.org/Graphics/SVG/1.1/DTD/svg11.dtd">
<svg version="1.1" id="Layer_2" xmlns="http://www.w3.org/2000/svg" xmlns:xlink="http://www.w3.org/1999/xlink" x="0px" y="0px"
	 width="60px" height="60px" viewBox="0 0 60 60" enable-background="new 0 0 60 60" xml:space="preserve">
<g>
	<path fill="#010101" d="M59.664,19.293l-18-18c-0.391-0.391-1.024-0.391-1.414,0c-1.48,1.479-3.361,2.293-5.296,2.293
		c-1.935,0-3.813-0.814-5.29-2.293C29.477,1.106,29.222,1,28.957,1h0c-0.265,0-0.519,0.106-0.707,0.293l-3,3
		c-0.391,0.391-0.391,1.023,0,1.414l24,24C49.445,29.902,49.701,30,49.957,30s0.512-0.098,0.707-0.293l9-9
		C60.054,20.316,60.054,19.684,59.664,19.293z"/>
	<path fill="#010101" d="M34.747,18.21c-0.39-0.39-1.021-0.39-1.412-0.002L0.339,50.986c-0.189,0.187-0.295,0.441-0.295,0.707
		c0,0.266,0.105,0.521,0.293,0.709l6.305,6.305C6.829,58.895,7.083,59,7.348,59c0.001,0,0.002,0,0.003,0
		c0.266-0.001,0.521-0.107,0.708-0.297L40.751,25.62c0.386-0.392,0.385-1.022-0.004-1.41L34.747,18.21z"/>
</g>
</svg>
