<?xml version="1.0" encoding="utf-8"?>
<!-- Generator: Adobe Illustrator 17.0.0, SVG Export Plug-In . SVG Version: 6.00 Build 0)  -->
<!DOCTYPE svg PUBLIC "-//W3C//DTD SVG 1.1//EN" "http://www.w3.org/Graphics/SVG/1.1/DTD/svg11.dtd">
<svg version="1.1" id="Layer_2" xmlns="http://www.w3.org/2000/svg" xmlns:xlink="http://www.w3.org/1999/xlink" x="0px" y="0px"
	 width="60px" height="60px" viewBox="0 0 60 60" enable-background="new 0 0 60 60" xml:space="preserve">
<g>
	<path fill="#010101" d="M14,0H8C6.122,0,5,1.316,5,3.522V16c0,1.782,0,4,3,4h6.261C17,20,17,17.944,17,16.131V3.522
		C17,1.316,15.878,0,14,0z"/>
	<path fill="#010101" d="M54,2H20c-0.552,0-1,0.447-1,1v14c0,0.553,0.448,1,1,1h5v18h-1c-0.552,0-1,0.447-1,1v22
		c0,0.553,0.448,1,1,1h9.913c0.552,0,1-0.447,1-1V37c0-0.553-0.448-1-1-1H33V18h12c0.552,0,1-0.447,1-1c0-5.047,3.514-9,8-9
		c0.552,0,1-0.447,1-1V3C55,2.447,54.552,2,54,2z M31,36h-4V18h4V36z"/>
</g>
</svg>
