<?xml version="1.0" encoding="utf-8"?>
<!-- Generator: Adobe Illustrator 17.0.0, SVG Export Plug-In . SVG Version: 6.00 Build 0)  -->
<!DOCTYPE svg PUBLIC "-//W3C//DTD SVG 1.1//EN" "http://www.w3.org/Graphics/SVG/1.1/DTD/svg11.dtd">
<svg version="1.1" id="Layer_2" xmlns="http://www.w3.org/2000/svg" xmlns:xlink="http://www.w3.org/1999/xlink" x="0px" y="0px"
	 width="60px" height="60px" viewBox="0 0 60 60" enable-background="new 0 0 60 60" xml:space="preserve">
<path fill="#010101" d="M58,30H45.28l-5.464-11.838c-0.363-0.787-1.197-1.246-2.05-1.148c-0.86,0.101-1.557,0.745-1.727,1.594
	l-4.73,23.65l-5.33-36.547c-0.135-0.925-0.893-1.633-1.826-1.705c-0.928-0.073-1.79,0.513-2.065,1.406L14.523,30H2
	c-1.105,0-2,0.896-2,2c0,1.104,0.895,2,2,2h14c0.878,0,1.653-0.572,1.912-1.412l5.39-17.518l5.719,39.219
	c0.14,0.963,0.954,1.685,1.926,1.71C30.965,56,30.983,56,31,56c0.951,0,1.773-0.671,1.96-1.607l5.796-28.979l3.427,7.425
	C42.511,33.547,43.22,34,44,34h14c1.104,0,2-0.896,2-2C60,30.896,59.104,30,58,30z"/>
</svg>
