<?xml version="1.0" encoding="utf-8"?>
<!-- Generator: Adobe Illustrator 17.0.0, SVG Export Plug-In . SVG Version: 6.00 Build 0)  -->
<!DOCTYPE svg PUBLIC "-//W3C//DTD SVG 1.1//EN" "http://www.w3.org/Graphics/SVG/1.1/DTD/svg11.dtd">
<svg version="1.1" id="Layer_2" xmlns="http://www.w3.org/2000/svg" xmlns:xlink="http://www.w3.org/1999/xlink" x="0px" y="0px"
	 width="60px" height="60px" viewBox="0 0 60 60" enable-background="new 0 0 60 60" xml:space="preserve">
<path fill="#010101" d="M30,9C13.458,9,0,22.458,0,39v11c0,0.553,0.448,1,1,1h58c0.552,0,1-0.447,1-1V39C60,22.458,46.542,9,30,9z
	 M36.313,21.145l1.93-4.659c0.212-0.511,0.794-0.752,1.307-0.541c0.51,0.211,0.752,0.796,0.541,1.307l-1.93,4.659
	c-0.16,0.385-0.532,0.617-0.924,0.617c-0.127,0-0.257-0.024-0.382-0.076C36.344,22.24,36.102,21.655,36.313,21.145z M29,15.043
	c0-0.553,0.448-1,1-1s1,0.447,1,1v5.045c0,0.553-0.448,1-1,1s-1-0.447-1-1V15.043z M11.087,41.261H6.043c-0.552,0-1-0.447-1-1
	c0-0.553,0.448-1,1-1h5.043c0.552,0,1,0.447,1,1C12.087,40.813,11.639,41.261,11.087,41.261z M13.451,32.145
	c-0.16,0.385-0.532,0.617-0.924,0.617c-0.128,0-0.257-0.024-0.382-0.076l-4.659-1.93c-0.51-0.211-0.753-0.796-0.541-1.307
	c0.211-0.51,0.794-0.753,1.307-0.541l4.659,1.93C13.42,31.049,13.663,31.634,13.451,32.145z M17.331,26.336
	c-0.195,0.194-0.451,0.292-0.706,0.292c-0.256,0-0.512-0.098-0.708-0.293l-3.563-3.568c-0.39-0.392-0.39-1.024,0.001-1.415
	c0.391-0.39,1.024-0.389,1.414,0.001l3.563,3.568C17.723,25.312,17.722,25.945,17.331,26.336z M23.145,22.451
	c-0.125,0.052-0.254,0.076-0.382,0.076c-0.393,0-0.765-0.232-0.924-0.617l-1.929-4.659c-0.212-0.511,0.031-1.096,0.542-1.307
	c0.51-0.211,1.095,0.03,1.306,0.541l1.929,4.659C23.898,21.655,23.655,22.24,23.145,22.451z M45.707,24.707l-11.54,11.54
	C34.691,37.038,35,37.982,35,39c0,2.757-2.243,5-5,5s-5-2.243-5-5s2.243-5,5-5c1.017,0,1.962,0.309,2.753,0.833l11.54-11.54
	c0.391-0.391,1.023-0.391,1.414,0C46.098,23.684,46.098,24.316,45.707,24.707z M47.472,32.762c-0.393,0-0.765-0.232-0.924-0.618
	c-0.212-0.51,0.031-1.095,0.542-1.306l4.66-1.928c0.509-0.214,1.095,0.03,1.306,0.542c0.211,0.51-0.031,1.095-0.542,1.306
	l-4.66,1.928C47.729,32.737,47.6,32.762,47.472,32.762z M53.956,41.264L53.956,41.264l-5.043-0.003c-0.552,0-1-0.448-1-1.001
	c0-0.552,0.448-0.999,1-0.999h0l5.043,0.003c0.552,0,1,0.448,1,1.001C54.956,40.816,54.508,41.264,53.956,41.264z"/>
</svg>
