<?xml version="1.0" encoding="utf-8"?>
<!-- Generator: Adobe Illustrator 17.0.0, SVG Export Plug-In . SVG Version: 6.00 Build 0)  -->
<!DOCTYPE svg PUBLIC "-//W3C//DTD SVG 1.1//EN" "http://www.w3.org/Graphics/SVG/1.1/DTD/svg11.dtd">
<svg version="1.1" id="Layer_2" xmlns="http://www.w3.org/2000/svg" xmlns:xlink="http://www.w3.org/1999/xlink" x="0px" y="0px"
	 width="60px" height="60px" viewBox="0 0 60 60" enable-background="new 0 0 60 60" xml:space="preserve">
<path fill="#010101" d="M59.708,4.074l-3.783-3.781c-0.39-0.391-1.023-0.391-1.414,0l-7.565,7.564c-0.391,0.391-0.391,1.023,0,1.414
	l1.184,1.184L21.352,37.231l-1.967-1.968l-0.001,0l-2.673-2.673c-0.39-0.391-1.023-0.391-1.414,0c-0.391,0.391-0.391,1.024,0,1.414
	l1.967,1.967L1.402,51.835c-0.905,0.903-1.403,2.105-1.403,3.384c0,1.278,0.499,2.479,1.401,3.377C2.302,59.501,3.503,60,4.782,60
	c1.278,0,2.478-0.497,3.38-1.399l15.864-15.866l1.967,1.967c0.195,0.195,0.451,0.293,0.707,0.293c0.256,0,0.512-0.098,0.707-0.293
	c0.391-0.391,0.391-1.023,0-1.414l-2.673-2.673l0-0.001l-1.968-1.968L49.543,11.87l1.185,1.185c0.188,0.188,0.442,0.293,0.707,0.293
	c0.265,0,0.52-0.105,0.707-0.293l7.565-7.566c0.188-0.188,0.293-0.442,0.293-0.707C60.001,4.516,59.895,4.262,59.708,4.074z"/>
</svg>
