<?xml version="1.0" encoding="utf-8"?>
<!-- Generator: Adobe Illustrator 17.0.0, SVG Export Plug-In . SVG Version: 6.00 Build 0)  -->
<!DOCTYPE svg PUBLIC "-//W3C//DTD SVG 1.1//EN" "http://www.w3.org/Graphics/SVG/1.1/DTD/svg11.dtd">
<svg version="1.1" id="Layer_2" xmlns="http://www.w3.org/2000/svg" xmlns:xlink="http://www.w3.org/1999/xlink" x="0px" y="0px"
	 width="60px" height="60px" viewBox="0 0 60 60" enable-background="new 0 0 60 60" xml:space="preserve">
<g>
	<path fill="#010101" d="M41.715,43.679l-3.36-1.937c0.159-0.953,0.239-1.931,0.239-2.916c0-0.965-0.084-1.943-0.25-2.917
		l3.349-1.934c0.479-0.276,0.642-0.888,0.366-1.366l-5.043-8.737c-0.134-0.232-0.354-0.399-0.612-0.467
		c-0.259-0.07-0.533-0.03-0.763,0.106l-3.266,1.93c-1.463-1.262-2.947-2.26-4.95-2.94v-3.543c0-0.553-0.448-1-1-1H16.338
		c-0.552,0-1,0.447-1,1v3.541c-1.861,0.625-3.49,1.561-5.137,2.952l-3.409-1.947c-0.48-0.274-1.086-0.109-1.361,0.366l-5.066,8.737
		c-0.133,0.229-0.169,0.503-0.101,0.76c0.068,0.256,0.236,0.475,0.465,0.607l3.34,1.935c-0.167,0.979-0.252,1.958-0.252,2.918
		c0,0.977,0.082,1.955,0.245,2.917l-3.353,1.936c-0.478,0.276-0.642,0.888-0.366,1.366l5.042,8.737
		c0.274,0.475,0.879,0.638,1.358,0.371l3.455-1.952c1.646,1.392,3.274,2.329,5.139,2.955V59c0,0.553,0.448,1,1,1h10.087
		c0.552,0,1-0.447,1-1v-3.845c2.001-0.683,3.487-1.682,4.955-2.944l3.309,1.935c0.231,0.135,0.504,0.173,0.762,0.103
		c0.257-0.069,0.477-0.237,0.61-0.469l5.021-8.737C42.357,44.564,42.193,43.954,41.715,43.679z M21.202,47.392
		c-4.723,0-8.565-3.843-8.565-8.566c0-4.723,3.842-8.564,8.565-8.564c4.723,0,8.566,3.842,8.566,8.564
		C29.768,43.549,25.925,47.392,21.202,47.392z"/>
	<path fill="#010101" d="M59.289,14.971l-1.9-1.092c0.078-0.501,0.117-1.014,0.117-1.531c0-0.503-0.042-1.017-0.126-1.533
		l1.888-1.089c0.23-0.133,0.397-0.351,0.466-0.608c0.069-0.256,0.033-0.529-0.1-0.759L57.113,3.99
		c-0.134-0.232-0.355-0.4-0.615-0.468c-0.26-0.068-0.535-0.03-0.765,0.11l-1.796,1.075c-0.777-0.632-1.643-1.146-2.556-1.518V1
		c0-0.553-0.448-1-1-1h-5.043c-0.552,0-1,0.447-1,1v2.188c-1.011,0.393-1.962,0.927-2.741,1.537L39.65,3.62
		c-0.478-0.272-1.082-0.107-1.357,0.367l-2.544,4.369c-0.134,0.229-0.17,0.503-0.102,0.76c0.068,0.256,0.236,0.476,0.466,0.608
		l1.878,1.088c-0.086,0.522-0.13,1.037-0.13,1.535c0,0.508,0.042,1.021,0.123,1.533l-1.892,1.091
		c-0.23,0.133-0.397,0.351-0.466,0.608c-0.069,0.256-0.033,0.529,0.1,0.759l2.521,4.369c0.273,0.473,0.875,0.638,1.354,0.373
		l1.991-1.111c0.78,0.613,1.734,1.149,2.747,1.543v2.185c0,0.553,0.448,1,1,1h5.043c0.552,0,1-0.447,1-1v-2.19
		c0.913-0.37,1.781-0.886,2.562-1.522l1.841,1.084c0.23,0.137,0.505,0.174,0.764,0.106c0.259-0.068,0.479-0.238,0.612-0.471
		l2.5-4.369C59.933,15.855,59.768,15.246,59.289,14.971z M47.681,17.131c-2.637,0-4.783-2.145-4.783-4.783
		c0-2.637,2.146-4.781,4.783-4.781c2.637,0,4.783,2.145,4.783,4.781C52.463,14.985,50.318,17.131,47.681,17.131z"/>
</g>
</svg>
