<?xml version="1.0" encoding="utf-8"?>
<!-- Generator: Adobe Illustrator 17.0.0, SVG Export Plug-In . SVG Version: 6.00 Build 0)  -->
<!DOCTYPE svg PUBLIC "-//W3C//DTD SVG 1.1//EN" "http://www.w3.org/Graphics/SVG/1.1/DTD/svg11.dtd">
<svg version="1.1" id="Layer_2" xmlns="http://www.w3.org/2000/svg" xmlns:xlink="http://www.w3.org/1999/xlink" x="0px" y="0px"
	 width="60px" height="60px" viewBox="0 0 60 60" enable-background="new 0 0 60 60" xml:space="preserve">
<path fill="#010101" d="M59,24h-7.418c-0.489-1.735-1.198-3.462-2.048-4.988l5.245-5.245c0.188-0.188,0.293-0.441,0.293-0.707
	c0-0.266-0.106-0.52-0.293-0.707l-7.134-7.132c-0.391-0.391-1.023-0.391-1.414,0L40.98,10.47C39.399,9.619,37.327,8.809,36,8.413V1
	c0-0.553-0.448-1-1-1H25c-0.552,0-1,0.447-1,1v7.418c-1.354,0.402-3.388,1.189-4.982,2.052l-5.252-5.249
	c-0.391-0.391-1.023-0.391-1.414,0l-7.133,7.132c-0.391,0.391-0.391,1.023,0,1.414l5.251,5.253C9.628,20.588,8.845,22.628,8.426,24
	H1c-0.552,0-1,0.447-1,1v8c0,0.553,0.448,1,1,1h7.324c0.433,2.603,1.232,5.187,2.152,6.976l-5.258,5.258
	c-0.188,0.188-0.293,0.441-0.293,0.707c0,0.266,0.105,0.52,0.293,0.707l7.135,7.132c0.376,0.377,1.04,0.375,1.414,0l5.257-5.26
	c1.15,0.586,2.545,1.076,3.707,1.484c0.468,0.165,0.92,0.324,1.27,0.46V59c0,0.553,0.448,1,1,1h10c0.552,0,1-0.447,1-1v-7.536
	c0.35-0.137,0.804-0.296,1.273-0.461c1.159-0.407,2.552-0.897,3.7-1.48l5.261,5.257c0.391,0.391,1.023,0.391,1.414,0l7.132-7.132
	c0.391-0.391,0.391-1.024,0-1.414l-5.234-5.236c0.923-1.544,1.668-3.086,2.16-6.997H59c0.552,0,1-0.447,1-1v-8
	C60,24.447,59.552,24,59,24z M30,40c-5.514,0-10-4.486-10-10c0-5.514,4.486-10,10-10c5.514,0,10,4.486,10,10
	C40,35.514,35.514,40,30,40z"/>
</svg>
