<?xml version="1.0" encoding="utf-8"?>
<!-- Generator: Adobe Illustrator 17.0.0, SVG Export Plug-In . SVG Version: 6.00 Build 0)  -->
<!DOCTYPE svg PUBLIC "-//W3C//DTD SVG 1.1//EN" "http://www.w3.org/Graphics/SVG/1.1/DTD/svg11.dtd">
<svg version="1.1" id="Layer_2" xmlns="http://www.w3.org/2000/svg" xmlns:xlink="http://www.w3.org/1999/xlink" x="0px" y="0px"
	 width="60px" height="60px" viewBox="0 0 60 60" enable-background="new 0 0 60 60" xml:space="preserve">
<g>
	<path fill="#010101" d="M58.563,21.446l-3.165-1.828c0.25-1.494,0.25-2.963,0-4.453l3.166-1.828
		c0.479-0.276,0.642-0.888,0.366-1.366l-3.783-6.55c-0.134-0.232-0.355-0.401-0.615-0.468c-0.26-0.068-0.535-0.027-0.765,0.11
		l-3.027,1.818c-0.936-0.737-2.149-1.451-3.676-2.164V1c0-0.553-0.448-1-1-1h-7.565c-0.552,0-1,0.447-1,1v3.584
		c-1.894,0.543-2.957,1.349-4.018,2.299l-3.238-1.832c-0.476-0.269-1.081-0.106-1.356,0.366l-3.82,6.55
		c-0.134,0.229-0.171,0.503-0.103,0.76c0.068,0.256,0.235,0.476,0.464,0.608l3.148,1.829c-0.253,1.5-0.256,2.969-0.009,4.453
		l-3.172,1.829c-0.229,0.132-0.397,0.351-0.466,0.607c-0.069,0.256-0.033,0.529,0.1,0.759l3.781,6.551
		c0.273,0.473,0.876,0.64,1.352,0.374l3.312-1.84c1.048,0.941,2.111,1.756,4.026,2.303v2.757c0,0.553,0.448,1,1,1h7.565
		c0.552,0,1-0.447,1-1v-2.892c1.527-0.711,2.741-1.426,3.679-2.165l3.023,1.819c0.229,0.138,0.505,0.178,0.766,0.112
		c0.26-0.067,0.482-0.236,0.616-0.469l3.783-6.551C59.205,22.334,59.041,21.723,58.563,21.446z M41.978,23.436
		c-3.333,0-6.044-2.711-6.044-6.044s2.711-6.044,6.044-6.044c3.332,0,6.043,2.711,6.043,6.044S45.31,23.436,41.978,23.436z"/>
	<path fill="#010101" d="M35.072,37.948c0.069-0.256,0.033-0.529-0.1-0.759l-3.783-6.551c-0.134-0.232-0.356-0.401-0.616-0.468
		c-0.259-0.068-0.535-0.026-0.765,0.11l-3.027,1.817c-0.935-0.736-2.148-1.45-3.676-2.163v-2.979c0-0.553-0.448-1-1-1h-7.565
		c-0.552,0-1,0.447-1,1v2.845c-1.893,0.543-2.957,1.349-4.018,2.299l-3.238-1.832C5.809,30,5.205,30.163,4.929,30.635l-3.82,6.551
		c-0.134,0.229-0.171,0.503-0.103,0.76c0.068,0.257,0.235,0.476,0.465,0.609l3.148,1.826c-0.253,1.5-0.256,2.969-0.009,4.454
		l-3.171,1.828c-0.23,0.132-0.398,0.35-0.467,0.606c-0.069,0.257-0.033,0.529,0.1,0.76l3.78,6.551
		c0.272,0.473,0.874,0.642,1.352,0.374l3.312-1.84c1.048,0.94,2.112,1.756,4.026,2.303V59c0,0.553,0.448,1,1,1h7.565
		c0.552,0,1-0.447,1-1v-3.717c1.528-0.713,2.742-1.427,3.68-2.166l3.022,1.819c0.229,0.14,0.505,0.181,0.766,0.111
		c0.26-0.066,0.482-0.235,0.616-0.468l3.783-6.551c0.132-0.229,0.168-0.503,0.1-0.759c-0.068-0.256-0.236-0.475-0.466-0.607
		l-3.166-1.827c0.251-1.495,0.251-2.964,0-4.453l3.166-1.827C34.836,38.423,35.004,38.204,35.072,37.948z M18.021,48.652
		c-3.332,0-6.043-2.711-6.043-6.043c0-3.332,2.711-6.043,6.043-6.043c3.333,0,6.044,2.711,6.044,6.043
		C24.064,45.941,21.353,48.652,18.021,48.652z"/>
</g>
</svg>
