<?xml version="1.0" encoding="utf-8"?>
<!-- Generator: Adobe Illustrator 17.1.0, SVG Export Plug-In . SVG Version: 6.00 Build 0)  -->
<!DOCTYPE svg PUBLIC "-//W3C//DTD SVG 1.0//EN" "http://www.w3.org/TR/2001/REC-SVG-20010904/DTD/svg10.dtd">
<svg version="1.0" id="Layer_1" xmlns="http://www.w3.org/2000/svg" xmlns:xlink="http://www.w3.org/1999/xlink" x="0px" y="0px"
	 width="60px" height="60px" viewBox="0 0 60 60" enable-background="new 0 0 60 60" xml:space="preserve">
<path d="M59,0H1C0.448,0,0,0.447,0,1v58c0,0.553,0.448,1,1,1h58c0.552,0,1-0.447,1-1V1C60,0.447,59.552,0,59,0z M17,51
	c-2.208,0-4-1.789-4-4c0-2.209,1.792-4,4-4c2.208,0,4,1.791,4,4C21,49.211,19.208,51,17,51z M22,27c0,0.553-0.448,1-1,1h-3v8.305
	c0,0.553-0.448,1-1,1s-1-0.447-1-1V28h-3c-0.552,0-1-0.447-1-1v-4c0-0.553,0.448-1,1-1h3V8.565c0-0.553,0.448-1,1-1s1,0.447,1,1V22
	h3c0.552,0,1,0.447,1,1V27z M31,51c-2.208,0-4-1.789-4-4c0-2.209,1.792-4,4-4c2.208,0,4,1.791,4,4C35,49.211,33.208,51,31,51z
	 M36,19c0,0.553-0.448,1-1,1h-3v16.305c0,0.553-0.448,1-1,1s-1-0.447-1-1V20h-3c-0.552,0-1-0.447-1-1v-4c0-0.553,0.448-1,1-1h3
	V8.565c0-0.553,0.448-1,1-1s1,0.447,1,1V14h3c0.552,0,1,0.447,1,1V19z M43,51c-2.208,0-4-1.789-4-4c0-2.209,1.792-4,4-4
	c2.208,0,4,1.791,4,4C47,49.211,45.208,51,43,51z M48,31c0,0.553-0.448,1-1,1h-3v4.305c0,0.553-0.448,1-1,1s-1-0.447-1-1V32h-3
	c-0.552,0-1-0.447-1-1v-4c0-0.553,0.448-1,1-1h3V8.565c0-0.553,0.448-1,1-1s1,0.447,1,1V26h3c0.552,0,1,0.447,1,1V31z"/>
</svg>
