<?xml version="1.0" encoding="utf-8"?>
<!-- Generator: Adobe Illustrator 17.0.0, SVG Export Plug-In . SVG Version: 6.00 Build 0)  -->
<!DOCTYPE svg PUBLIC "-//W3C//DTD SVG 1.1//EN" "http://www.w3.org/Graphics/SVG/1.1/DTD/svg11.dtd">
<svg version="1.1" id="Layer_2" xmlns="http://www.w3.org/2000/svg" xmlns:xlink="http://www.w3.org/1999/xlink" x="0px" y="0px"
	 width="60px" height="60px" viewBox="0 0 60 60" enable-background="new 0 0 60 60" xml:space="preserve">
<path fill="#010101" d="M59,0H1C0.448,0,0,0.447,0,1v58c0,0.553,0.448,1,1,1h58c0.552,0,1-0.447,1-1V1C60,0.447,59.552,0,59,0z
	 M8.565,54.957c-1.942,0-3.522-1.58-3.522-3.522c0-1.941,1.58-3.521,3.522-3.521s3.521,1.58,3.521,3.521
	C12.087,53.377,10.507,54.957,8.565,54.957z M8.565,12.088c-1.942,0-3.522-1.58-3.522-3.523c0-1.942,1.58-3.522,3.522-3.522
	s3.521,1.58,3.521,3.522C12.087,10.508,10.507,12.088,8.565,12.088z M40,45c0,0.553-0.448,1-1,1H21c-0.552,0-1-0.447-1-1v-5h20V45z
	 M40,38H20V15c0-0.553,0.448-1,1-1h18c0.552,0,1,0.447,1,1V38z M51.435,54.957c-1.942,0-3.521-1.58-3.521-3.522
	c0-1.941,1.58-3.521,3.521-3.521s3.521,1.58,3.521,3.521C54.956,53.377,53.376,54.957,51.435,54.957z M51.435,12.088
	c-1.942,0-3.521-1.58-3.521-3.523c0-1.942,1.58-3.522,3.521-3.522s3.521,1.58,3.521,3.522
	C54.956,10.508,53.376,12.088,51.435,12.088z"/>
</svg>
