<?xml version="1.0" encoding="utf-8"?>
<!-- Generator: Adobe Illustrator 17.0.0, SVG Export Plug-In . SVG Version: 6.00 Build 0)  -->
<!DOCTYPE svg PUBLIC "-//W3C//DTD SVG 1.1//EN" "http://www.w3.org/Graphics/SVG/1.1/DTD/svg11.dtd">
<svg version="1.1" id="Layer_2" xmlns="http://www.w3.org/2000/svg" xmlns:xlink="http://www.w3.org/1999/xlink" x="0px" y="0px"
	 width="60px" height="60px" viewBox="0 0 60 60" enable-background="new 0 0 60 60" xml:space="preserve">
<path fill="#010101" d="M57.683,9.84c-0.145-0.285-0.418-0.482-0.734-0.532c-0.316-0.051-0.636,0.054-0.862,0.279l-8.058,8.034
	h-4.441v-5.707l7.034-8.067c0.202-0.233,0.286-0.544,0.228-0.847c-0.058-0.302-0.252-0.561-0.526-0.701
	c-2.436-1.246-5.188-1.905-7.958-1.905c-4.687,0-9.076,1.809-12.358,5.091c-5.198,5.198-6.584,12.97-3.556,19.551L2.173,49.29
	c-1.142,1.141-1.773,2.659-1.777,4.27c-0.004,1.616,0.623,3.134,1.765,4.276c1.142,1.142,2.658,1.77,4.269,1.77
	s3.128-0.629,4.269-1.77L34.95,33.582c2.265,1.039,4.761,1.585,7.265,1.586c0.001,0,0,0,0.001,0c4.64,0,9.003-1.808,12.284-5.088
	C59.855,24.721,61.135,16.587,57.683,9.84z"/>
</svg>
