<?xml version="1.0" encoding="utf-8"?>
<!-- Generator: Adobe Illustrator 16.0.3, SVG Export Plug-In . SVG Version: 6.00 Build 0)  -->
<!DOCTYPE svg PUBLIC "-//W3C//DTD SVG 1.1//EN" "http://www.w3.org/Graphics/SVG/1.1/DTD/svg11.dtd">
<svg version="1.1" xmlns="http://www.w3.org/2000/svg" xmlns:xlink="http://www.w3.org/1999/xlink" x="0px" y="0px" width="24px"
	 height="24px" viewBox="0 0 24 24" enable-background="new 0 0 24 24" xml:space="preserve">
<g id="Outline_Icons_1_">
	<g id="Outline_Icons">
		<g>
			<g>
				<circle fill="none"  stroke-linejoin="round" stroke-miterlimit="10" cx="18.5" cy="18.5" r="5"/>

					<line fill="none"  stroke-linecap="round" stroke-linejoin="round" stroke-miterlimit="10" x1="18.5" y1="16" x2="18.5" y2="21"/>

					<line fill="none"  stroke-linecap="round" stroke-linejoin="round" stroke-miterlimit="10" x1="21" y1="18.5" x2="16" y2="18.5"/>
			</g>
			<path fill="none"  stroke-linecap="round" stroke-linejoin="round" stroke-miterlimit="10" d="M13.966,13.282
				c-0.777-0.257-1.615-0.533-2.466-0.854v-2.5c0,0,1.5-0.619,1.5-3c0.782,0,0.782-2.071,0-2.071c0-0.233,0.829-1.607,0.5-2.929
				c-0.474-1.904-6.026-1.904-6.5,0c-2.369-0.477-1,2.681-1,3c-0.783,0-0.783,2,0,2c0,2.381,1.5,3,1.5,3v2.5
				c-2.778,1.056-6.088,1.756-6.5,3C0.526,16.857,0.5,19.5,0.5,19.5H11"/>
		</g>
	</g>
</g>
</svg>
