<?xml version="1.0" encoding="utf-8"?>
<!-- Generator: Adobe Illustrator 16.0.3, SVG Export Plug-In . SVG Version: 6.00 Build 0)  -->
<!DOCTYPE svg PUBLIC "-//W3C//DTD SVG 1.1//EN" "http://www.w3.org/Graphics/SVG/1.1/DTD/svg11.dtd">
<svg version="1.1" xmlns="http://www.w3.org/2000/svg" xmlns:xlink="http://www.w3.org/1999/xlink" x="0px" y="0px" width="24px"
	 height="24px" viewBox="0 0 24 24" enable-background="new 0 0 24 24" xml:space="preserve">
<g id="Outline_Icons">
	<g>
		<g>
			<path fill="none"  stroke-linejoin="round" stroke-miterlimit="10" d="M21.277,11.908
				c2.045-2.046,2.44-5.123,1.19-7.565L19.156,7.5H16.5V5l3.222-3.476c-2.442-1.249-5.551-0.854-7.596,1.19
				c-2.044,2.044-2.46,5.111-1.21,7.554l-9.827,9.819c-0.781,0.78-0.787,2.046-0.005,2.827c0.781,0.782,2.044,0.782,2.825,0
				l9.816-9.817C16.168,14.347,19.234,13.951,21.277,11.908z"/>
		</g>
		<line fill="none"  stroke-linejoin="round" stroke-miterlimit="10" x1="16.5" y1="7.5" x2="21" y2="12.313"/>

			<line fill="none"  stroke-linecap="round" stroke-linejoin="round" stroke-miterlimit="10" x1="12.5" y1="9" x2="14" y2="7.5"/>

			<line fill="none"  stroke-linecap="round" stroke-linejoin="round" stroke-miterlimit="10" x1="13.75" y1="10.25" x2="15.25" y2="8.75"/>

			<line fill="none"  stroke-linecap="round" stroke-linejoin="round" stroke-miterlimit="10" x1="15" y1="11.5" x2="16.5" y2="10"/>
	</g>
</g>
</svg>
