<?xml version="1.0" encoding="utf-8"?>
<!-- Generator: Adobe Illustrator 17.0.0, SVG Export Plug-In . SVG Version: 6.00 Build 0)  -->
<!DOCTYPE svg PUBLIC "-//W3C//DTD SVG 1.1//EN" "http://www.w3.org/Graphics/SVG/1.1/DTD/svg11.dtd">
<svg version="1.1" xmlns="http://www.w3.org/2000/svg" xmlns:xlink="http://www.w3.org/1999/xlink" x="0px" y="0px" width="48px"
	 height="48px" viewBox="0 0 48 48" enable-background="new 0 0 48 48" xml:space="preserve">
<g id="Layer_3">
	<g>
		<path fill="#010101" d="M43,14H32v-2c0-2.206-1.794-4-4-4h-8c-2.206,0-4,1.794-4,4v2H5c-2.757,0-5,2.243-5,5v24
			c0,2.757,2.243,5,5,5h38c2.757,0,5-2.243,5-5V19C48,16.243,45.757,14,43,14z M30,39c-2.287,0-4.435-1.136-5.738-3H13
			c-0.266,0-0.52-0.105-0.707-0.293l-3-3c-0.391-0.391-0.391-1.023,0-1.414l3-3C12.48,28.106,12.734,28,13,28h11.262
			c1.304-1.864,3.451-3,5.738-3c3.859,0,7,3.141,7,7C37,35.859,33.859,39,30,39z M18,12c0-1.102,0.897-2,2-2h8c1.102,0,2,0.898,2,2
			v2H18V12z"/>
		<circle fill="#010101" cx="30" cy="32" r="2"/>
	</g>
</g>
<g id="nyt_x5F_exporter_x5F_info" display="none">
</g>
</svg>
