<?xml version="1.0" encoding="utf-8"?>
<!-- Generator: Adobe Illustrator 17.0.0, SVG Export Plug-In . SVG Version: 6.00 Build 0)  -->
<!DOCTYPE svg PUBLIC "-//W3C//DTD SVG 1.1//EN" "http://www.w3.org/Graphics/SVG/1.1/DTD/svg11.dtd">
<svg version="1.1" xmlns="http://www.w3.org/2000/svg" xmlns:xlink="http://www.w3.org/1999/xlink" x="0px" y="0px" width="48px"
	 height="48px" viewBox="0 0 48 48" enable-background="new 0 0 48 48" xml:space="preserve">
<g id="Layer_3">
	<g>
		<path fill="#010101" d="M24.435,6.21l-1.023-4.434c-0.124-0.539-0.662-0.875-1.199-0.75L0.775,5.963
			c-0.258,0.06-0.482,0.22-0.623,0.444C0.012,6.632-0.034,6.903,0.025,7.162l6.735,29.234c0.06,0.259,0.22,0.482,0.444,0.623
			c0.16,0.101,0.345,0.152,0.53,0.152c0.075,0,0.15-0.009,0.225-0.025l5.694-1.313L24.145,6.61
			C24.205,6.446,24.311,6.318,24.435,6.21z M6.019,10.912c-0.076,0.018-0.152,0.026-0.227,0.026c-0.455,0-0.865-0.313-0.972-0.776
			C4.698,9.623,5.032,9.088,5.57,8.963c0.076-0.017,0.151-0.025,0.225-0.025c0.456,0,0.868,0.312,0.974,0.775
			C6.894,10.252,6.558,10.789,6.019,10.912z M17.942,20.135c-0.531,0.563-1.244,1.02-2.057,1.337l0.242,1.05
			c0.124,0.538-0.212,1.074-0.75,1.199c-0.075,0.018-0.151,0.025-0.226,0.025c-0.455,0-0.866-0.312-0.974-0.775l-0.243-1.054
			c-0.176,0.014-0.352,0.031-0.526,0.031c-2.203,0-3.833-1.131-4.253-2.951c-0.533-2.317,2.394-5.939,2.985-6.641
			c0.286-0.34,0.763-0.448,1.17-0.27c0.84,0.372,5.057,2.345,5.591,4.664C19.185,17.977,18.844,19.179,17.942,20.135z"/>
		<path fill="#010101" d="M47.904,16.511c-0.113-0.24-0.316-0.424-0.566-0.515L26.627,8.564c-0.516-0.184-1.088,0.085-1.274,0.603
			L15.217,37.403c-0.186,0.52,0.084,1.093,0.604,1.279l10.353,3.717l10.353,3.717c0.109,0.039,0.223,0.059,0.338,0.059
			c0.146,0,0.292-0.032,0.427-0.096c0.239-0.113,0.425-0.316,0.515-0.566l5.068-14.118l5.068-14.118
			C48.031,17.025,48.018,16.751,47.904,16.511z M29.044,13.68l0.604,1.279l-1.279,0.604l-0.604-1.279L29.044,13.68z M34.114,40.998
			l-0.606-1.277l1.282-0.605l0.603,1.281L34.114,40.998z M35.939,29.494l-5.791,4.295c-0.175,0.13-0.384,0.197-0.596,0.197
			c-0.113,0-0.227-0.02-0.338-0.059c-0.314-0.113-0.552-0.376-0.633-0.7l-1.738-6.998c-0.097-0.392,0.051-0.804,0.375-1.045
			l5.792-4.295c0.269-0.197,0.618-0.249,0.934-0.138c0.314,0.113,0.552,0.376,0.633,0.7l1.737,6.998
			C36.411,28.842,36.264,29.254,35.939,29.494z"/>
	</g>
</g>
<g id="nyt_x5F_exporter_x5F_info" display="none">
</g>
</svg>
