<?xml version="1.0" encoding="utf-8"?>
<!-- Generator: Adobe Illustrator 17.0.0, SVG Export Plug-In . SVG Version: 6.00 Build 0)  -->
<!DOCTYPE svg PUBLIC "-//W3C//DTD SVG 1.1//EN" "http://www.w3.org/Graphics/SVG/1.1/DTD/svg11.dtd">
<svg version="1.1" xmlns="http://www.w3.org/2000/svg" xmlns:xlink="http://www.w3.org/1999/xlink" x="0px" y="0px" width="48px"
	 height="48px" viewBox="0 0 48 48" enable-background="new 0 0 48 48" xml:space="preserve">
<g id="Layer_3">
	<g>
		<path fill="#010101" d="M11.045,40.092c-0.015,0.001-0.03,0.001-0.045,0.001c-0.257,0-0.505-0.099-0.69-0.277
			C10.111,39.627,10,39.366,10,39.093V12.19l-9.383,3.887c-0.245,0.101-0.44,0.296-0.541,0.541c-0.102,0.245-0.102,0.52,0,0.766
			L11.558,45.1c0.102,0.245,0.296,0.439,0.541,0.541c0.123,0.051,0.253,0.076,0.383,0.076c0.13,0,0.26-0.025,0.383-0.076
			l8.016-3.321l-5.82-2.41L11.045,40.092z M6.606,20.09l-1.304-0.541l0.538-1.307l1.31,0.541L6.606,20.09z"/>
		<path fill="#010101" d="M36,7c0-0.553-0.447-1-1-1h-7.73L36,9.615V7z"/>
		<path fill="#010101" d="M24.669,6H13c-0.553,0-1,0.447-1,1v29.587L24.666,6.004C24.667,6.002,24.668,6.002,24.669,6z M18,12h-2v-2
			h2V12z"/>
		<path fill="#010101" d="M47.925,17.035c-0.102-0.245-0.296-0.44-0.541-0.541L38,12.608l-2-0.828v0l-9.869-4.086L13.887,37.259
			l1.526,0.632l0.002,0l4.357,1.805H19.77l3.723,1.542l0.001,0l11.643,4.822c0.125,0.052,0.255,0.076,0.383,0.076
			c0.391,0,0.764-0.232,0.923-0.617L47.925,17.8C48.026,17.555,48.026,17.28,47.925,17.035z M29.221,13.303l0.541,1.307
			l-1.305,0.541l-0.541-1.305L29.221,13.303z M32.967,40.832l-0.538-1.303l1.305-0.545l0.542,1.309L32.967,40.832z M35.351,29.431
			l-5.992,4.012c-0.167,0.111-0.361,0.169-0.557,0.169c-0.13,0-0.26-0.025-0.383-0.076c-0.309-0.128-0.533-0.401-0.598-0.729
			l-1.401-7.074c-0.079-0.396,0.089-0.801,0.424-1.025l5.993-4.012c0.278-0.185,0.632-0.22,0.94-0.093
			c0.309,0.128,0.533,0.401,0.599,0.729l1.4,7.074C35.854,28.802,35.686,29.206,35.351,29.431z"/>
	</g>
</g>
<g id="nyt_x5F_exporter_x5F_info" display="none">
</g>
</svg>
