<?xml version="1.0" encoding="utf-8"?>
<!-- Generator: Adobe Illustrator 17.1.0, SVG Export Plug-In . SVG Version: 6.00 Build 0)  -->
<!DOCTYPE svg PUBLIC "-//W3C//DTD SVG 1.0//EN" "http://www.w3.org/TR/2001/REC-SVG-20010904/DTD/svg10.dtd">
<svg version="1.0" id="Layer_1" xmlns="http://www.w3.org/2000/svg" xmlns:xlink="http://www.w3.org/1999/xlink" x="0px" y="0px"
	 width="48px" height="48px" viewBox="0 0 48 48" enable-background="new 0 0 48 48" xml:space="preserve">
<path d="M47,0H24H1C0.447,0,0,0.447,0,1v23v2.999V28v19c0,0.553,0.447,1,1,1h16c0.553,0,1-0.447,1-1c0-3.261-0.419-6.306-1.15-9
	h14.3C30.419,40.694,30,43.739,30,47c0,0.553,0.447,1,1,1h16c0.553,0,1-0.447,1-1V28v-1.001V24V1C48,0.447,47.553,0,47,0z
	 M30.804,5.019c0.547-0.112,1.068,0.243,1.177,0.784c0.896,4.478,4.535,9.336,8.467,11.302c0.494,0.247,0.694,0.848,0.447,1.342
	C40.719,18.798,40.366,19,39.999,19c-0.15,0-0.303-0.034-0.446-0.105c-4.503-2.251-8.512-7.592-9.533-12.698
	C29.911,5.654,30.263,5.128,30.804,5.019z M7.553,17.105c3.932-1.966,7.571-6.824,8.467-11.302c0.108-0.543,0.637-0.897,1.177-0.784
	c0.541,0.108,0.893,0.635,0.784,1.177c-1.021,5.106-5.03,10.447-9.533,12.698C8.304,18.966,8.151,19,8.001,19
	c-0.367,0-0.72-0.202-0.895-0.553C6.858,17.953,7.059,17.353,7.553,17.105z M2,26.999V25h4v2L2,26.999L2,26.999z M10,39
	c-0.553,0-1-0.447-1-1c0-1.598-1.542-4.559-2.166-5.014C6.36,32.907,6,32.496,6,32c0-0.553,0.447-1,1-1c2.055,0,4,5.094,4,7
	C11,38.553,10.553,39,10,39z M31.769,36H16.231c-1.777-4.982-4.745-8.364-8.231-8.911v-0.09v-2.046
	c8.387-0.373,13.881-5.412,16-14.487c2.119,9.074,7.612,14.114,16,14.487v2.046v0.09C36.514,27.636,33.546,31.018,31.769,36z
	 M41.166,32.986C40.542,33.441,39,36.402,39,38c0,0.553-0.447,1-1,1s-1-0.447-1-1c0-1.906,1.945-7,4-7c0.553,0,1,0.447,1,1
	C42,32.496,41.64,32.907,41.166,32.986z M46,26.999L46,26.999L46,26.999L42,27v-0.001V25h4V26.999z"/>
</svg>
