<?xml version="1.0" encoding="utf-8"?>
<!-- Generator: Adobe Illustrator 17.0.0, SVG Export Plug-In . SVG Version: 6.00 Build 0)  -->
<!DOCTYPE svg PUBLIC "-//W3C//DTD SVG 1.1//EN" "http://www.w3.org/Graphics/SVG/1.1/DTD/svg11.dtd">
<svg version="1.1" xmlns="http://www.w3.org/2000/svg" xmlns:xlink="http://www.w3.org/1999/xlink" x="0px" y="0px" width="48px"
	 height="48px" viewBox="0 0 48 48" enable-background="new 0 0 48 48" xml:space="preserve">
<g id="Layer_3">
	<g>
		<path fill="#010101" d="M42.642,4.845L27.299,0.046c-0.195-0.06-0.402-0.06-0.598,0l-16,5.004
			c-0.185,0.058-0.337,0.171-0.456,0.312l16.729,5.576L42.642,4.845z M25,6.004c0-1.107,0.894-2,2-2c1.103,0,2,0.893,2,2
			c0,1.102-0.897,2-2,2C25.894,8.004,25,7.106,25,6.004z"/>
		<path fill="#010101" d="M28,12.684v2.614l7.299,2.283C35.716,17.71,36,18.097,36,18.534v11.343l7.371-2.948
			C43.751,26.776,44,26.409,44,26V6.461L28,12.684z M39,25c-1.106,0-2-0.895-2-2c0-1.104,0.894-2,2-2c1.103,0,2,0.896,2,2
			C41,24.105,40.103,25,39,25z M39,15c-1.106,0-2-0.894-2-2c0-1.104,0.894-2,2-2c1.103,0,2,0.896,2,2C41,14.106,40.103,15,39,15z"/>
		<path fill="#010101" d="M17.299,11.95L26,14.672v-1.951L10,7.387v6.659l6.701-2.096C16.896,11.89,17.103,11.89,17.299,11.95z"/>
		<path fill="#010101" d="M0,40c0,0.397,0.235,0.755,0.598,0.915L16,47.653V27c0-0.104,0.03-0.199,0.059-0.294L0,20.461V40z M12,37
			c1.103,0,2,0.896,2,2c0,1.105-0.897,2-2,2c-1.106,0-2-0.895-2-2C10,37.896,10.894,37,12,37z M6,27c1.103,0,2,0.896,2,2
			c0,1.105-0.897,2-2,2c-1.106,0-2-0.895-2-2C4,27.896,4.894,27,6,27z"/>
		<path fill="#010101" d="M18,27v20.653l15.402-6.739C33.765,40.755,34,40.397,34,40V20.461l-16.059,6.245
			C17.97,26.801,18,26.896,18,27z M28,27c1.103,0,2,0.896,2,2c0,1.105-0.897,2-2,2c-1.106,0-2-0.895-2-2C26,27.896,26.894,27,28,27z
			 M25,32c1.103,0,2,0.896,2,2c0,1.105-0.897,2-2,2c-1.106,0-2-0.895-2-2C23,32.896,23.894,32,25,32z M22,37c1.103,0,2,0.896,2,2
			c0,1.105-0.897,2-2,2c-1.106,0-2-0.895-2-2C20,37.896,20.894,37,22,37z"/>
		<path fill="#010101" d="M17,13.952L1.358,18.845L17,24.927l15.642-6.083L17,13.952z M17,22.004c-1.106,0-2-0.898-2-2
			c0-1.107,0.894-2,2-2c1.103,0,2,0.893,2,2C19,21.105,18.103,22.004,17,22.004z"/>
	</g>
</g>
<g id="nyt_x5F_exporter_x5F_info" display="none">
</g>
</svg>
