<?xml version="1.0" encoding="utf-8"?>
<!-- Generator: Adobe Illustrator 17.0.0, SVG Export Plug-In . SVG Version: 6.00 Build 0)  -->
<!DOCTYPE svg PUBLIC "-//W3C//DTD SVG 1.1//EN" "http://www.w3.org/Graphics/SVG/1.1/DTD/svg11.dtd">
<svg version="1.1" xmlns="http://www.w3.org/2000/svg" xmlns:xlink="http://www.w3.org/1999/xlink" x="0px" y="0px" width="48px"
	 height="48px" viewBox="0 0 48 48" enable-background="new 0 0 48 48" xml:space="preserve">
<g id="Layer_3">
	<path fill="#010101" d="M45.383,0.076c-0.374-0.157-0.804-0.069-1.09,0.217C42.257,2.327,33.91,3.748,23.994,3.748
		c-9.91,0.001-18.252-1.42-20.287-3.455c-0.286-0.286-0.715-0.372-1.09-0.217C2.243,0.231,2,0.596,2,1v23c0,13.506,17.548,24,22,24
		c4.452,0,22-10.494,22-24V1C46,0.596,45.757,0.231,45.383,0.076z M12,17.996c0,0.553-0.447,1-1,1c-0.553,0-1-0.447-1-1
		c0-2.757,2.243-5,5-5c2.757,0,5,2.243,5,5c0,0.553-0.447,1-1,1c-0.553,0-1-0.447-1-1c0-1.654-1.346-3-3-3
		C13.346,14.996,12,16.342,12,17.996z M24,36.996c-4.963,0-9-4.037-9-9c0-0.553,0.447-1,1-1c0.553,0,1,0.447,1,1
		c0,3.859,3.141,7,7,7c3.859,0,7-3.141,7-7c0-0.553,0.447-1,1-1c0.553,0,1,0.447,1,1C33,32.959,28.963,36.996,24,36.996z M37,18.996
		c-0.553,0-1-0.447-1-1c0-1.654-1.346-3-3-3c-1.654,0-3,1.346-3,3c0,0.553-0.447,1-1,1c-0.553,0-1-0.447-1-1c0-2.757,2.243-5,5-5
		c2.757,0,5,2.243,5,5C38,18.549,37.553,18.996,37,18.996z"/>
</g>
<g id="nyt_x5F_exporter_x5F_info" display="none">
</g>
</svg>
