<?xml version="1.0" encoding="utf-8"?>
<!-- Generator: Adobe Illustrator 17.0.0, SVG Export Plug-In . SVG Version: 6.00 Build 0)  -->
<!DOCTYPE svg PUBLIC "-//W3C//DTD SVG 1.1//EN" "http://www.w3.org/Graphics/SVG/1.1/DTD/svg11.dtd">
<svg version="1.1" xmlns="http://www.w3.org/2000/svg" xmlns:xlink="http://www.w3.org/1999/xlink" x="0px" y="0px" width="48px"
	 height="48px" viewBox="0 0 48 48" enable-background="new 0 0 48 48" xml:space="preserve">
<g id="Layer_3">
	<path fill="#010101" d="M25.732,24l17.62-12.459c0.217-0.153,0.363-0.386,0.408-0.647c0.045-0.262-0.016-0.53-0.169-0.747
		C39.091,3.793,31.767,0,24,0C10.767,0,0,10.767,0,24s10.767,24,24,24c7.768,0,15.092-3.792,19.592-10.145
		c0.153-0.217,0.214-0.485,0.169-0.747c-0.044-0.262-0.191-0.494-0.408-0.647L25.732,24z M19,18c-2.757,0-5-2.243-5-5s2.243-5,5-5
		c2.757,0,5,2.243,5,5S21.757,18,19,18z"/>
</g>
<g id="nyt_x5F_exporter_x5F_info" display="none">
</g>
</svg>
