<?xml version="1.0" encoding="utf-8"?>
<!-- Generator: Adobe Illustrator 17.0.0, SVG Export Plug-In . SVG Version: 6.00 Build 0)  -->
<!DOCTYPE svg PUBLIC "-//W3C//DTD SVG 1.1//EN" "http://www.w3.org/Graphics/SVG/1.1/DTD/svg11.dtd">
<svg version="1.1" xmlns="http://www.w3.org/2000/svg" xmlns:xlink="http://www.w3.org/1999/xlink" x="0px" y="0px" width="48px"
	 height="48px" viewBox="0 0 48 48" enable-background="new 0 0 48 48" xml:space="preserve">
<g id="Layer_3">
	<g>
		<path fill="#010101" d="M24,0C14.075,0,6,8.075,6,18v27c0,1.654,1.346,3,3,3h1c1.654,0,3-1.346,3-3c0-0.552,0.448-1,1-1
			c0.552,0,1,0.448,1,1c0,1.654,1.346,3,3,3h2c1.654,0,3-1.346,3-3c0-0.552,0.448-1,1-1c0.552,0,1,0.448,1,1c0,1.654,1.346,3,3,3h2
			c1.654,0,3-1.346,3-3c0-0.552,0.448-1,1-1c0.552,0,1,0.448,1,1c0,1.654,1.346,3,3,3h1c1.654,0,3-1.346,3-3V18
			C42,8.075,33.925,0,24,0z M22,24c0,2.206-1.794,4-4,4c-2.206,0-4-1.794-4-4v-2v-4c0-2.206,1.794-4,4-4c2.206,0,4,1.794,4,4V24z
			 M34,24c0,2.206-1.794,4-4,4c-2.206,0-4-1.794-4-4v-2v-4c0-2.206,1.794-4,4-4c2.206,0,4,1.794,4,4V24z"/>
		<circle fill="#010101" cx="28" cy="22" r="2"/>
		<circle fill="#010101" cx="16" cy="22" r="2"/>
	</g>
</g>
<g id="nyt_x5F_exporter_x5F_info" display="none">
</g>
</svg>
