<?xml version="1.0" encoding="utf-8"?>
<!-- Generator: Adobe Illustrator 17.0.0, SVG Export Plug-In . SVG Version: 6.00 Build 0)  -->
<!DOCTYPE svg PUBLIC "-//W3C//DTD SVG 1.1//EN" "http://www.w3.org/Graphics/SVG/1.1/DTD/svg11.dtd">
<svg version="1.1" xmlns="http://www.w3.org/2000/svg" xmlns:xlink="http://www.w3.org/1999/xlink" x="0px" y="0px" width="48px"
	 height="48px" viewBox="0 0 48 48" enable-background="new 0 0 48 48" xml:space="preserve">
<g id="Layer_3">
	<path fill="#010101" d="M24,0c-6.617,0-12,5.383-12,12c0,0.553,0.447,1,1,1c0.553,0,1-0.447,1-1c0-5.514,4.486-10,10-10
		c5.514,0,10,4.486,10,10c0,5.514-4.486,10-10,10c-6.953,0-12,5.888-12,14v11c0,0.553,0.447,1,1,1h22c0.553,0,1-0.447,1-1V12
		C36,5.383,30.617,0,24,0z M19,40h10c0.553,0,1,0.447,1,1c0,0.553-0.447,1-1,1H19c-0.553,0-1-0.447-1-1C18,40.447,18.447,40,19,40z"
		/>
</g>
<g id="nyt_x5F_exporter_x5F_info" display="none">
</g>
</svg>
