<?xml version="1.0" encoding="utf-8"?>
<!-- Generator: Adobe Illustrator 17.0.0, SVG Export Plug-In . SVG Version: 6.00 Build 0)  -->
<!DOCTYPE svg PUBLIC "-//W3C//DTD SVG 1.1//EN" "http://www.w3.org/Graphics/SVG/1.1/DTD/svg11.dtd">
<svg version="1.1" xmlns="http://www.w3.org/2000/svg" xmlns:xlink="http://www.w3.org/1999/xlink" x="0px" y="0px" width="48px"
	 height="48px" viewBox="0 0 48 48" enable-background="new 0 0 48 48" xml:space="preserve">
<g id="Layer_3">
	<g>
		<path fill="#010101" d="M10,5.165c0-0.404,0.244-0.769,0.617-0.924c0.375-0.154,0.804-0.069,1.09,0.217l3.415,3.417
			c1.392,1.393,7.073,2.872,14.866,2.872c2.196,0,4.217-0.12,6.03-0.319L36,8V1c0-0.404-0.243-0.769-0.617-0.924
			c-0.374-0.157-0.804-0.069-1.09,0.217c-2.068,2.068-8.618,3.458-16.297,3.459c-7.676,0-14.222-1.39-16.289-3.459
			c-0.286-0.286-0.716-0.372-1.09-0.217C0.244,0.231,0,0.596,0,1v17c0,5.836,3.352,10.662,6.164,13.684
			c0.036,0.038,0.074,0.073,0.115,0.106l6.582,5.165C11.123,33.95,10,30.577,10,27V5.165z"/>
		<path fill="#010101" d="M47.383,9.072c-0.374-0.156-0.804-0.069-1.09,0.217c-0.135,0.135-0.292,0.267-0.464,0.396
			c-0.122,0.093-0.262,0.18-0.4,0.269c-0.047,0.03-0.089,0.061-0.138,0.09c-0.993,0.6-2.348,1.094-3.92,1.488
			c-0.075,0.019-0.151,0.037-0.226,0.056c-0.223,0.054-0.447,0.106-0.678,0.156c-0.205,0.045-0.415,0.088-0.627,0.13
			c-0.104,0.02-0.207,0.041-0.312,0.061c-1.083,0.205-2.254,0.375-3.495,0.506v-0.005c-1.998,0.21-4.07,0.312-6.036,0.312
			c-6.393,0-13.902-1.069-16.288-3.458L12,7.58v2.416V27c0,11.552,13.59,21,18,21c4.41,0,18-9.448,18-21V9.996
			C48,9.592,47.757,9.227,47.383,9.072z M21,23.996c0,0.553-0.447,1-1,1c-0.553,0-1-0.447-1-1c0-2.206,1.794-4,4-4
			c2.206,0,4,1.794,4,4c0,0.553-0.447,1-1,1c-0.553,0-1-0.447-1-1c0-1.103-0.898-2-2-2C21.897,21.996,21,22.894,21,23.996z
			 M30,39.996c-3.859,0-7-3.141-7-7c0-0.553,0.447-1,1-1c0.553,0,1,0.447,1,1c0,2.757,2.243,5,5,5c2.757,0,5-2.243,5-5
			c0-0.553,0.447-1,1-1c0.553,0,1,0.447,1,1C37,36.856,33.859,39.996,30,39.996z M40,24.996c-0.553,0-1-0.447-1-1
			c0-1.103-0.898-2-2-2c-1.103,0-2,0.897-2,2c0,0.553-0.447,1-1,1c-0.553,0-1-0.447-1-1c0-2.206,1.794-4,4-4c2.206,0,4,1.794,4,4
			C41,24.549,40.553,24.996,40,24.996z"/>
	</g>
</g>
<g id="nyt_x5F_exporter_x5F_info" display="none">
</g>
</svg>
