<?xml version="1.0" encoding="utf-8"?>
<!-- Generator: Adobe Illustrator 17.0.0, SVG Export Plug-In . SVG Version: 6.00 Build 0)  -->
<!DOCTYPE svg PUBLIC "-//W3C//DTD SVG 1.1//EN" "http://www.w3.org/Graphics/SVG/1.1/DTD/svg11.dtd">
<svg version="1.1" xmlns="http://www.w3.org/2000/svg" xmlns:xlink="http://www.w3.org/1999/xlink" x="0px" y="0px" width="48px"
	 height="48px" viewBox="0 0 48 48" enable-background="new 0 0 48 48" xml:space="preserve">
<g id="Layer_3">
	<g>
		<rect x="15" y="34" fill="#010101" width="20" height="4"/>
		<rect x="15" y="10" fill="#010101" width="20" height="4"/>
		<path fill="#010101" d="M15,32h20V16H15V32z M19,19c0-0.553,0.447-1,1-1c0.553,0,1,0.447,1,1v10c0,0.553-0.447,1-1,1
			c-0.553,0-1-0.447-1-1V19z"/>
		<path fill="#010101" d="M36,0h-7c-0.553,0-1,0.447-1,1c0,1.654-1.346,3-3,3c-1.654,0-3-1.346-3-3c0-0.553-0.447-1-1-1h-7
			c-2.757,0-5,2.243-5,5v38c0,2.757,2.243,5,5,5h7c0.553,0,1-0.447,1-1c0-1.654,1.346-3,3-3c1.654,0,3,1.346,3,3
			c0,0.553,0.447,1,1,1h7c2.757,0,5-2.243,5-5V5C41,2.243,38.757,0,36,0z M37,39c0,0.553-0.447,1-1,1H14c-0.553,0-1-0.447-1-1V9
			c0-0.553,0.447-1,1-1h22c0.553,0,1,0.447,1,1V39z"/>
	</g>
</g>
<g id="nyt_x5F_exporter_x5F_info" display="none">
</g>
</svg>
