<?xml version="1.0" encoding="utf-8"?>
<!-- Generator: Adobe Illustrator 17.1.0, SVG Export Plug-In . SVG Version: 6.00 Build 0)  -->
<!DOCTYPE svg PUBLIC "-//W3C//DTD SVG 1.0//EN" "http://www.w3.org/TR/2001/REC-SVG-20010904/DTD/svg10.dtd">
<svg version="1.0" id="Layer_1" xmlns="http://www.w3.org/2000/svg" xmlns:xlink="http://www.w3.org/1999/xlink" x="0px" y="0px"
	 width="48px" height="48px" viewBox="0 0 48 48" enable-background="new 0 0 48 48" xml:space="preserve">
<g>
	<path d="M14,32h16V16H14V32z M19,20h6c0.553,0,1,0.447,1,1s-0.447,1-1,1h-6c-0.553,0-1-0.447-1-1S18.447,20,19,20z M19,26h6
		c0.553,0,1,0.447,1,1s-0.447,1-1,1h-6c-0.553,0-1-0.447-1-1S18.447,26,19,26z"/>
	<path d="M47,19c0.553,0,1-0.447,1-1V9c0-0.553-0.447-1-1-1H1C0.447,8,0,8.447,0,9v9c0,0.553,0.447,1,1,1c2.757,0,5,2.243,5,5
		s-2.243,5-5,5c-0.553,0-1,0.447-1,1v9c0,0.553,0.447,1,1,1h46c0.553,0,1-0.447,1-1v-9c0-0.553-0.447-1-1-1c-2.757,0-5-2.243-5-5
		S44.243,19,47,19z M32,33c0,0.553-0.447,1-1,1H13c-0.553,0-1-0.447-1-1V15c0-0.553,0.447-1,1-1h18c0.553,0,1,0.447,1,1V33z M38,37
		h-2v-2h2V37z M38,33h-2v-2h2V33z M38,29h-2v-2h2V29z M38,25h-2v-2h2V25z M38,21h-2v-2h2V21z M38,17h-2v-2h2V17z M38,13h-2v-2h2V13z
		"/>
</g>
</svg>
