<?xml version="1.0" encoding="utf-8"?>
<!-- Generator: Adobe Illustrator 17.0.0, SVG Export Plug-In . SVG Version: 6.00 Build 0)  -->
<!DOCTYPE svg PUBLIC "-//W3C//DTD SVG 1.1//EN" "http://www.w3.org/Graphics/SVG/1.1/DTD/svg11.dtd">
<svg version="1.1" xmlns="http://www.w3.org/2000/svg" xmlns:xlink="http://www.w3.org/1999/xlink" x="0px" y="0px" width="48px"
	 height="48px" viewBox="0 0 48 48" enable-background="new 0 0 48 48" xml:space="preserve">
<g id="Layer_3">
	<g>
		<path fill="#010101" d="M30.736,10.559c-0.563-0.563-1.316-0.874-2.121-0.874c-0.805,0-1.558,0.311-2.121,0.874L10.937,26.115
			c-1.17,1.17-1.17,3.072,0,4.242l7.072,7.072c1.127,1.127,3.115,1.127,4.242,0l15.557-15.557c1.17-1.17,1.17-3.072,0-4.242
			L30.736,10.559z M16.596,28.943c-0.195,0.195-0.451,0.293-0.707,0.293c-0.256,0-0.512-0.098-0.707-0.293
			c-0.391-0.391-0.391-1.023,0-1.414l12.727-12.727c0.391-0.391,1.023-0.391,1.414,0c0.391,0.391,0.391,1.023,0,1.414L16.596,28.943
			z M30.029,23.994l-5.656,5.656c-0.195,0.195-0.451,0.293-0.707,0.293c-0.256,0-0.512-0.098-0.707-0.293
			c-0.391-0.391-0.391-1.023,0-1.414l5.656-5.656c0.391-0.391,1.024-0.391,1.414,0S30.42,23.604,30.029,23.994z"/>
		<path fill="#010101" d="M47.707,14.801c0.391-0.391,0.391-1.023,0-1.414L34.98,0.66c-0.375-0.375-1.039-0.375-1.414,0
			c-0.944,0.944-2.2,1.465-3.536,1.465c-1.336,0-2.592-0.52-3.536-1.465c-0.375-0.375-1.039-0.375-1.414,0L1.039,24.701
			c-0.188,0.188-0.293,0.441-0.293,0.707c0,0.266,0.105,0.519,0.293,0.707c0.944,0.944,1.465,2.2,1.465,3.536
			c0,1.336-0.521,2.592-1.465,3.536c-0.188,0.187-0.293,0.441-0.293,0.707c0,0.266,0.105,0.52,0.293,0.707l12.728,12.726
			c0.391,0.391,1.023,0.391,1.414,0c0.944-0.944,2.2-1.465,3.535-1.465s2.591,0.521,3.535,1.465
			c0.187,0.188,0.441,0.293,0.707,0.293c0.266,0,0.519-0.106,0.707-0.293l24.041-24.041c0.391-0.391,0.391-1.023,0-1.414
			C45.758,19.924,45.758,16.751,47.707,14.801z M39.223,23.287L23.666,38.844c-0.941,0.941-2.196,1.46-3.535,1.46
			c-1.339,0-2.594-0.519-3.535-1.46l-7.072-7.072c-1.949-1.949-1.949-5.121,0-7.07L25.08,9.145c0.941-0.941,2.196-1.46,3.535-1.46
			c1.339,0,2.594,0.519,3.535,1.46l7.072,7.072C41.172,18.166,41.172,21.338,39.223,23.287z"/>
	</g>
</g>
<g id="nyt_x5F_exporter_x5F_info" display="none">
</g>
</svg>
