<?xml version="1.0" encoding="utf-8"?>
<!-- Generator: Adobe Illustrator 17.0.0, SVG Export Plug-In . SVG Version: 6.00 Build 0)  -->
<!DOCTYPE svg PUBLIC "-//W3C//DTD SVG 1.1//EN" "http://www.w3.org/Graphics/SVG/1.1/DTD/svg11.dtd">
<svg version="1.1" xmlns="http://www.w3.org/2000/svg" xmlns:xlink="http://www.w3.org/1999/xlink" x="0px" y="0px" width="48px"
	 height="48px" viewBox="0 0 48 48" enable-background="new 0 0 48 48" xml:space="preserve">
<g id="Layer_3">
	<g>
		<path fill="#010101" d="M32,12c-4.072,0-5.6,0.882-6.716,1.526c-0.107,0.062-0.195,0.111-0.284,0.16V11c0-2.757-2.243-5-5-5h-4
			c-0.553,0-1,0.447-1,1c0,0.553,0.447,1,1,1h4c1.654,0,3,1.346,3,3v2.686c-0.089-0.049-0.177-0.098-0.284-0.16
			C21.6,12.882,20.072,12,16,12C9.271,12,4,18.589,4,27c0,7.911,6.076,21,13,21c3.602,0,4.662-0.684,5.587-1.509
			C22.966,46.154,23.139,46,24,46c0.861,0,1.034,0.154,1.413,0.491C26.338,47.316,27.397,48,31,48c6.924,0,13-13.089,13-21
			C44,18.589,38.728,12,32,12z"/>
		<path fill="#010101" d="M28,11c5.514,0,10-4.486,10-10c0-0.553-0.447-1-1-1c-5.514,0-10,4.486-10,10C27,10.553,27.447,11,28,11z"
			/>
	</g>
</g>
<g id="nyt_x5F_exporter_x5F_info" display="none">
</g>
</svg>
