<?xml version="1.0" encoding="utf-8"?>
<!-- Generator: Adobe Illustrator 17.0.0, SVG Export Plug-In . SVG Version: 6.00 Build 0)  -->
<!DOCTYPE svg PUBLIC "-//W3C//DTD SVG 1.1//EN" "http://www.w3.org/Graphics/SVG/1.1/DTD/svg11.dtd">
<svg version="1.1" xmlns="http://www.w3.org/2000/svg" xmlns:xlink="http://www.w3.org/1999/xlink" x="0px" y="0px" width="48px"
	 height="48px" viewBox="0 0 48 48" enable-background="new 0 0 48 48" xml:space="preserve">
<g id="Layer_3">
	<g>
		<path fill="#010101" d="M38,42H8c-2.243,0-4,1.317-4,3c0,1.683,1.757,3,4,3h30c2.243,0,4-1.317,4-3C42,43.317,40.243,42,38,42z"/>
		<path fill="#010101" d="M40.913,22.092C43.918,20.633,46,17.559,46,14c0-4.963-4.037-9-9-9c-1.288,0-2.559,0.279-3.728,0.815
			C31.106,2.203,27.258,0,23,0c-4.26,0-8.108,2.203-10.273,5.815C11.559,5.279,10.288,5,9,5c-4.963,0-9,4.037-9,9
			c0,4.963,4.037,9,9,9c0,1.146,0.328,2.214,0.888,3.125L8.009,39.864C7.97,40.15,8.057,40.44,8.246,40.657
			C8.436,40.875,8.711,41,9,41h28c0.284,0,0.556-0.121,0.745-0.333c0.19-0.212,0.28-0.494,0.249-0.777L37.785,38h2.504
			C42.887,38,45,35.757,45,33v-6C45,24.556,43.234,22.524,40.913,22.092z M16.994,37.11c-0.057,0.512-0.49,0.89-0.993,0.89
			c-0.037,0-0.074-0.002-0.111-0.006c-0.549-0.061-0.944-0.556-0.884-1.104l0.886-7.972c0.753-0.113,1.459-0.36,2.094-0.726
			L16.994,37.11z M24,37c0,0.553-0.447,1-1,1c-0.553,0-1-0.447-1-1V27c0-0.553,0.447-1,1-1c0.553,0,1,0.447,1,1V37z M30.1,37.995
			C30.065,37.998,30.032,38,29.999,38c-0.508,0-0.942-0.385-0.994-0.9l-1-10c-0.055-0.55,0.346-1.04,0.896-1.095
			c0.555-0.05,1.04,0.347,1.095,0.896l1,10C31.05,37.45,30.649,37.94,30.1,37.995z M31.115,18.406c-0.001,0-0.001,0-0.002,0
			c-0.28,0-0.548,0.118-0.736,0.326c-2.521,2.759-6.435,3.933-10.145,2.871c-0.316-0.092-0.656-0.021-0.909,0.187
			c-0.254,0.208-0.39,0.527-0.363,0.855c0.006,0.072,0.016,0.144,0.025,0.216C18.991,22.907,19,22.952,19,23c0,2.206-1.794,4-4,4
			c-2.206,0-4-1.794-4-4c0-0.277,0.034-0.56,0.103-0.864c0.073-0.32-0.015-0.656-0.236-0.898c-0.191-0.209-0.46-0.325-0.738-0.325
			c-0.045,0-0.09,0.003-0.136,0.009C9.596,20.976,9.289,21,9,21c-3.859,0-7-3.141-7-7c0-3.859,3.141-7,7-7
			c1.269,0,2.519,0.351,3.614,1.015c0.24,0.147,0.53,0.185,0.799,0.106c0.269-0.079,0.493-0.268,0.617-0.519
			C15.727,4.147,19.164,2,23,2c3.834,0,7.27,2.147,8.97,5.602c0.124,0.252,0.348,0.439,0.617,0.518
			c0.27,0.077,0.559,0.041,0.799-0.106C34.48,7.351,35.73,7,37,7c3.859,0,7,3.141,7,7c0,3.859-3.141,7-7,7
			c-1.975,0-3.803-0.807-5.148-2.27C31.662,18.523,31.395,18.406,31.115,18.406z M43,33c0,1.654-1.216,3-2.711,3h-2.725l-1.328-12
			H40c1.654,0,3,1.346,3,3V33z"/>
	</g>
</g>
<g id="nyt_x5F_exporter_x5F_info" display="none">
</g>
</svg>
