<?xml version="1.0" encoding="utf-8"?>
<!-- Generator: Adobe Illustrator 17.0.0, SVG Export Plug-In . SVG Version: 6.00 Build 0)  -->
<!DOCTYPE svg PUBLIC "-//W3C//DTD SVG 1.1//EN" "http://www.w3.org/Graphics/SVG/1.1/DTD/svg11.dtd">
<svg version="1.1" xmlns="http://www.w3.org/2000/svg" xmlns:xlink="http://www.w3.org/1999/xlink" x="0px" y="0px" width="48px"
	 height="48px" viewBox="0 0 48 48" enable-background="new 0 0 48 48" xml:space="preserve">
<g id="Layer_3">
	<g>
		<path fill="#010101" d="M29.038,36.001c-0.338-0.028-0.678,0.154-0.87,0.444l-1.123,1.686l-2.188-3.646
			c-0.361-0.602-1.354-0.602-1.715,0l-2.188,3.646l-1.123-1.686c-0.192-0.29-0.516-0.469-0.87-0.444
			c-0.348,0.013-0.663,0.206-0.834,0.51C17.605,37.44,15,42.175,15,44c0,2.206,1.794,4,4,4h10c2.206,0,4-1.794,4-4
			c0-1.825-2.606-6.56-3.128-7.489C29.701,36.207,29.386,36.014,29.038,36.001z"/>
		<path fill="#010101" d="M39,10h-3V6h1c0.553,0,1-0.447,1-1c0-0.553-0.447-1-1-1h-2h-6.101C28.434,1.721,26.414,0,24,0
			c-2.414,0-4.434,1.721-4.899,4H13h-2c-0.553,0-1,0.447-1,1c0,0.553,0.447,1,1,1h1v4H9c-0.553,0-1,0.447-1,1c0,0.553,0.447,1,1,1h3
			v15c0,2.757,2.243,5,5,5h14c2.757,0,5-2.243,5-5V12h3c0.553,0,1-0.447,1-1C40,10.447,39.553,10,39,10z M21.184,4
			C21.598,2.839,22.698,2,24,2s2.402,0.839,2.816,2H21.184z"/>
	</g>
</g>
<g id="nyt_x5F_exporter_x5F_info" display="none">
</g>
</svg>
