<?xml version="1.0" encoding="utf-8"?>
<!-- Generator: Adobe Illustrator 17.0.0, SVG Export Plug-In . SVG Version: 6.00 Build 0)  -->
<!DOCTYPE svg PUBLIC "-//W3C//DTD SVG 1.1//EN" "http://www.w3.org/Graphics/SVG/1.1/DTD/svg11.dtd">
<svg version="1.1" xmlns="http://www.w3.org/2000/svg" xmlns:xlink="http://www.w3.org/1999/xlink" x="0px" y="0px" width="48px"
	 height="48px" viewBox="0 0 48 48" enable-background="new 0 0 48 48" xml:space="preserve">
<g id="Layer_3">
	<g>
		<rect x="12" y="30" fill="#010101" width="20" height="8"/>
		<path fill="#010101" d="M27.707,18.293C26.294,16.88,26,16.586,26,14V8h-8v6c0,2.586-0.294,2.88-1.707,4.293
			C14.793,19.793,12,22.586,12,27v1h20v-1C32,22.586,29.207,19.793,27.707,18.293z"/>
		<path fill="#010101" d="M12,45c0,1.654,1.346,3,3,3h14c1.654,0,3-1.346,3-3v-5H12V45z"/>
		<path fill="#010101" d="M26,1c0-0.553-0.447-1-1-1h-6c-0.553,0-1,0.447-1,1v5h8V1z"/>
	</g>
</g>
<g id="nyt_x5F_exporter_x5F_info" display="none">
</g>
</svg>
