<?xml version="1.0" encoding="utf-8"?>
<!-- Generator: Adobe Illustrator 17.0.0, SVG Export Plug-In . SVG Version: 6.00 Build 0)  -->
<!DOCTYPE svg PUBLIC "-//W3C//DTD SVG 1.1//EN" "http://www.w3.org/Graphics/SVG/1.1/DTD/svg11.dtd">
<svg version="1.1" xmlns="http://www.w3.org/2000/svg" xmlns:xlink="http://www.w3.org/1999/xlink" x="0px" y="0px" width="48px"
	 height="48px" viewBox="0 0 48 48" enable-background="new 0 0 48 48" xml:space="preserve">
<g id="Layer_3">
	<g>
		<path fill="#010101" d="M22.013,25.065C22.011,25.042,22,25.023,22,25c0-0.058,0.023-0.108,0.033-0.163
			c0.01-0.06,0.015-0.118,0.035-0.174c0.029-0.08,0.074-0.148,0.122-0.218c0.023-0.035,0.032-0.076,0.06-0.108
			c0.007-0.008,0.017-0.01,0.024-0.018c0.068-0.072,0.151-0.125,0.237-0.175c0.031-0.018,0.055-0.045,0.088-0.059
			C22.722,24.032,22.857,24,23,24c3.859,0,7-3.141,7-7c0-3.764-4.031-9-8-9H9c-4.963,0-9,4.037-9,9c0,5.209,2.122,8.385,5.859,8.913
			L4.01,38.858c-0.041,0.287,0.045,0.578,0.234,0.797C4.435,39.874,4.71,40,5,40h18.867l-1.859-14.876
			C22.005,25.104,22.014,25.085,22.013,25.065z"/>
		<path fill="#010101" d="M39,8H27.147C29.97,10.22,32,13.896,32,17c0,2.826-1.312,5.349-3.356,7h16C46.688,22.349,48,19.826,48,17
			C48,12.037,43.963,8,39,8z"/>
		<path fill="#010101" d="M24.133,26l1.75,14H41c0.29,0,0.565-0.126,0.756-0.345c0.189-0.219,0.275-0.51,0.234-0.797L40.153,26
			H24.133z"/>
	</g>
</g>
<g id="nyt_x5F_exporter_x5F_info" display="none">
</g>
</svg>
