<?xml version="1.0" encoding="utf-8"?>
<!-- Generator: Adobe Illustrator 17.0.0, SVG Export Plug-In . SVG Version: 6.00 Build 0)  -->
<!DOCTYPE svg PUBLIC "-//W3C//DTD SVG 1.1//EN" "http://www.w3.org/Graphics/SVG/1.1/DTD/svg11.dtd">
<svg version="1.1" xmlns="http://www.w3.org/2000/svg" xmlns:xlink="http://www.w3.org/1999/xlink" x="0px" y="0px" width="48px"
	 height="48px" viewBox="0 0 48 48" enable-background="new 0 0 48 48" xml:space="preserve">
<g id="Layer_3">
	<g>
		<path fill="#010101" d="M4.144,42.999c-0.712,0-1.387-0.154-2-0.424v0.424c0,2.757,2.243,5,5,5h34c2.757,0,5-2.243,5-5v-0.424
			c-0.614,0.269-1.288,0.424-2,0.424H4.144z"/>
		<path fill="#010101" d="M44.144,30.999c0.712,0,1.386,0.155,2,0.424v-1.424c0-7.72-6.28-14-14-14h-16c-7.72,0-14,6.28-14,14v1.424
			c0.613-0.269,1.288-0.424,2-0.424H44.144z M34.144,21.999c0.553,0,1,0.447,1,1c0,0.551-0.447,1-1,1s-1-0.449-1-1
			C33.144,22.447,33.591,21.999,34.144,21.999z M29.144,19.999c0.553,0,1,0.447,1,1c0,0.551-0.447,1-1,1s-1-0.449-1-1
			C28.144,20.447,28.591,19.999,29.144,19.999z M24.144,21.999c0.553,0,1,0.447,1,1c0,0.551-0.447,1-1,1s-1-0.449-1-1
			C23.144,22.447,23.591,21.999,24.144,21.999z M19.144,19.999c0.553,0,1,0.447,1,1c0,0.551-0.447,1-1,1c-0.553,0-1-0.449-1-1
			C18.144,20.447,18.591,19.999,19.144,19.999z M14.144,21.999c0.553,0,1,0.447,1,1c0,0.551-0.447,1-1,1s-1-0.449-1-1
			C13.144,22.447,13.591,21.999,14.144,21.999z"/>
		<path fill="#010101" d="M44.144,32.999h-40c-1.654,0-3,1.346-3,3v2c0,1.654,1.346,3,3,3h40c1.654,0,3-1.346,3-3v-2
			C47.144,34.345,45.798,32.999,44.144,32.999z"/>
	</g>
</g>
<g id="nyt_x5F_exporter_x5F_info" display="none">
</g>
</svg>
