<?xml version="1.0" encoding="utf-8"?>
<!-- Generator: Adobe Illustrator 17.0.0, SVG Export Plug-In . SVG Version: 6.00 Build 0)  -->
<!DOCTYPE svg PUBLIC "-//W3C//DTD SVG 1.1//EN" "http://www.w3.org/Graphics/SVG/1.1/DTD/svg11.dtd">
<svg version="1.1" xmlns="http://www.w3.org/2000/svg" xmlns:xlink="http://www.w3.org/1999/xlink" x="0px" y="0px" width="48px"
	 height="48px" viewBox="0 0 48 48" enable-background="new 0 0 48 48" xml:space="preserve">
<g id="Layer_3">
	<g>
		<path fill="#010101" d="M47,46H1c-0.553,0-1,0.447-1,1c0,0.553,0.447,1,1,1h46c0.553,0,1-0.447,1-1C48,46.447,47.553,46,47,46z"/>
		<path fill="#010101" d="M7,44h34c2.757,0,5-2.243,5-5V26v-5c0-0.553-0.447-1-1-1h-5v-7c0-0.553-0.447-1-1-1h-4
			c-0.553,0-1,0.447-1,1v7h-7v-7c0-0.553-0.447-1-1-1h-4c-0.553,0-1,0.447-1,1v7h-7v-7c0-0.553-0.447-1-1-1H9c-0.553,0-1,0.447-1,1
			v7H3c-0.553,0-1,0.447-1,1v5v13C2,41.757,4.243,44,7,44z M4,22h5h4h9h4h9h4h5v4c0,2.131-2.493,4-4,4c-1.507,0-4-1.869-4-4
			c0-0.553-0.447-1-1-1c-0.553,0-1,0.447-1,1c0,2.424-2.475,4.5-4.5,4.5c-2.025,0-4.5-2.076-4.5-4.5c0-0.553-0.447-1-1-1
			c-0.553,0-1,0.447-1,1c0,2.424-2.475,4.5-4.5,4.5c-2.025,0-4.5-2.076-4.5-4.5c0-0.553-0.447-1-1-1c-0.553,0-1,0.447-1,1
			c0,2.131-2.493,4-4,4c-1.507,0-4-1.869-4-4V22z"/>
		<path fill="#010101" d="M11,10c2.206,0,4-1.794,4-4c0-1.94-2.712-5.061-3.256-5.668c-0.379-0.422-1.109-0.422-1.488,0
			C9.712,0.939,7,4.06,7,6C7,8.206,8.794,10,11,10z"/>
		<path fill="#010101" d="M37,10c2.206,0,4-1.794,4-4c0-1.94-2.712-5.061-3.256-5.668c-0.379-0.422-1.109-0.422-1.488,0
			C35.712,0.939,33,4.06,33,6C33,8.206,34.794,10,37,10z"/>
		<path fill="#010101" d="M24,10c2.206,0,4-1.794,4-4c0-1.94-2.712-5.061-3.256-5.668c-0.379-0.422-1.109-0.422-1.488,0
			C22.712,0.939,20,4.06,20,6C20,8.206,21.794,10,24,10z"/>
	</g>
</g>
<g id="nyt_x5F_exporter_x5F_info" display="none">
</g>
</svg>
