<?xml version="1.0" encoding="utf-8"?>
<!-- Generator: Adobe Illustrator 17.0.0, SVG Export Plug-In . SVG Version: 6.00 Build 0)  -->
<!DOCTYPE svg PUBLIC "-//W3C//DTD SVG 1.1//EN" "http://www.w3.org/Graphics/SVG/1.1/DTD/svg11.dtd">
<svg version="1.1" xmlns="http://www.w3.org/2000/svg" xmlns:xlink="http://www.w3.org/1999/xlink" x="0px" y="0px" width="48px"
	 height="48px" viewBox="0 0 48 48" enable-background="new 0 0 48 48" xml:space="preserve">
<g id="Layer_3">
	<g>
		<path fill="#010101" d="M0.144,43.999c0,2.206,1.794,4,4,4h43c0.553,0,1-0.447,1-1v-7h-48V43.999z"/>
		<path fill="#010101" d="M33.851,16.292c-0.004-0.004-0.008-0.004-0.012-0.008c0.192-0.731,0.305-1.494,0.305-2.285
			c0-3.379-1.874-6.326-4.635-7.864c1.793-3.173,5.617-4.26,9.642-2.616c0.507,0.21,1.096-0.035,1.304-0.548
			c0.209-0.511-0.036-1.095-0.548-1.304c-5.032-2.058-10.034-0.499-12.26,3.693c-0.796-0.231-1.633-0.361-2.502-0.361
			c-2.462,0-4.694,0.995-6.321,2.602C8.31,9.985,0.642,19.263,0.188,29.999h47.37L33.851,16.292z M25.144,20.999
			c-3.859,0-7-3.141-7-7s3.141-7,7-7s7,3.141,7,7S29.003,20.999,25.144,20.999z"/>
		<rect x="0.144" y="31.999" fill="#010101" width="48" height="6"/>
	</g>
</g>
<g id="nyt_x5F_exporter_x5F_info" display="none">
</g>
</svg>
