<?xml version="1.0" encoding="utf-8"?>
<!-- Generator: Adobe Illustrator 17.0.0, SVG Export Plug-In . SVG Version: 6.00 Build 0)  -->
<!DOCTYPE svg PUBLIC "-//W3C//DTD SVG 1.1//EN" "http://www.w3.org/Graphics/SVG/1.1/DTD/svg11.dtd">
<svg version="1.1" xmlns="http://www.w3.org/2000/svg" xmlns:xlink="http://www.w3.org/1999/xlink" x="0px" y="0px" width="48px"
	 height="48px" viewBox="0 0 48 48" enable-background="new 0 0 48 48" xml:space="preserve">
<g id="Layer_3">
	<path fill="#010101" d="M32,24.917l-1-12l-1-12C29.957,0.398,29.524,0,29.004,0h-12c-0.521,0-0.953,0.398-0.996,0.917l-1,12
		L14.004,25c0,4.625,3.507,8.442,8,8.941V46h-4c-0.553,0-1,0.447-1,1c0,0.553,0.447,1,1,1h10c0.553,0,1-0.447,1-1
		c0-0.553-0.447-1-1-1h-4V33.941C28.497,33.441,32.004,29.619,32,24.917z M25.004,25c-0.552,0-1-0.447-1-1c0-0.553,0.448-1,1-1
		s1,0.447,1,1C26.004,24.553,25.556,25,25.004,25z M27.004,20c-0.552,0-1-0.447-1-1c0-0.553,0.448-1,1-1s1,0.447,1,1
		C28.004,19.553,27.556,20,27.004,20z M17.924,2h10.16l0.833,10H17.09L17.924,2z M19.004,24c-0.552,0-1-0.447-1-1
		c0-0.553,0.448-1,1-1s1,0.447,1,1C20.004,23.553,19.556,24,19.004,24z M21.004,18c-0.552,0-1-0.447-1-1c0-0.553,0.448-1,1-1
		s1,0.447,1,1C22.004,17.553,21.556,18,21.004,18z M23.004,29c-0.552,0-1-0.447-1-1c0-0.553,0.448-1,1-1s1,0.447,1,1
		C24.004,28.553,23.556,29,23.004,29z"/>
</g>
<g id="nyt_x5F_exporter_x5F_info" display="none">
</g>
</svg>
