<?xml version="1.0" encoding="utf-8"?>
<!-- Generator: Adobe Illustrator 17.0.0, SVG Export Plug-In . SVG Version: 6.00 Build 0)  -->
<!DOCTYPE svg PUBLIC "-//W3C//DTD SVG 1.1//EN" "http://www.w3.org/Graphics/SVG/1.1/DTD/svg11.dtd">
<svg version="1.1" xmlns="http://www.w3.org/2000/svg" xmlns:xlink="http://www.w3.org/1999/xlink" x="0px" y="0px" width="48px"
	 height="48px" viewBox="0 0 48 48" enable-background="new 0 0 48 48" xml:space="preserve">
<g id="Layer_3">
	<g>
		<path fill="#010101" d="M0.124,23.992C0.082,23.997,0.041,24,0,24v11c0,0.553,0.447,1,1,1c1.654,0,3,1.346,3,3
			c0,1.654-1.346,3-3,3c-0.553,0-1,0.447-1,1v4c0,0.288,0.124,0.562,0.34,0.751C0.523,47.912,0.759,48,1,48
			c0.043,0,0.086-0.003,0.129-0.009l46-6C47.627,41.927,48,41.502,48,41V18.008L0.124,23.992z M12,31c-1.654,0-3-1.346-3-3
			c0-1.654,1.346-3,3-3c1.654,0,3,1.346,3,3C15,29.654,13.654,31,12,31z M22,41c-2.757,0-5-2.243-5-5c0-2.757,2.243-5,5-5
			c2.757,0,5,2.243,5,5C27,38.757,24.757,41,22,41z M28,29c-1.103,0-2-0.897-2-2c0-1.102,0.897-2,2-2c1.102,0,2,0.898,2,2
			C30,28.103,29.102,29,28,29z M36,36c-1.103,0-2-0.897-2-2c0-1.102,0.897-2,2-2c1.102,0,2,0.898,2,2C38,35.103,37.102,36,36,36z
			 M40,29c-2.206,0-4-1.794-4-4c0-2.206,1.794-4,4-4c2.206,0,4,1.794,4,4C44,27.206,42.206,29,40,29z"/>
		<path fill="#010101" d="M47.963,16.014C47.211,5.691,34.717,0,26,0c-0.243,0-0.479,0.089-0.66,0.249L0.736,21.9l47.14-5.892
			C47.906,16.004,47.934,16.015,47.963,16.014z"/>
	</g>
</g>
<g id="nyt_x5F_exporter_x5F_info" display="none">
</g>
</svg>
