<?xml version="1.0" encoding="utf-8"?>
<!-- Generator: Adobe Illustrator 17.0.0, SVG Export Plug-In . SVG Version: 6.00 Build 0)  -->
<!DOCTYPE svg PUBLIC "-//W3C//DTD SVG 1.1//EN" "http://www.w3.org/Graphics/SVG/1.1/DTD/svg11.dtd">
<svg version="1.1" xmlns="http://www.w3.org/2000/svg" xmlns:xlink="http://www.w3.org/1999/xlink" x="0px" y="0px" width="48px"
	 height="48px" viewBox="0 0 48 48" enable-background="new 0 0 48 48" xml:space="preserve">
<g id="Layer_3">
	<path fill="#010101" d="M38,21.001c0-0.043-0.019-0.08-0.024-0.121c-0.008-0.067-0.018-0.131-0.039-0.194
		c-0.021-0.062-0.049-0.117-0.081-0.173c-0.031-0.055-0.063-0.107-0.104-0.155c-0.042-0.049-0.09-0.09-0.141-0.13
		c-0.049-0.039-0.098-0.075-0.155-0.104c-0.06-0.031-0.123-0.051-0.189-0.069c-0.04-0.011-0.073-0.036-0.115-0.042
		c-0.026-0.004-0.051,0.005-0.077,0.003c-0.026-0.002-0.049-0.015-0.075-0.015h-5.471l0.787-6.032C34.923,13.802,37,11.649,37,9.001
		c0-2.201-1.44-4.054-3.42-4.72l0.411-3.151c0.072-0.547-0.314-1.049-0.862-1.12c-0.558-0.08-1.049,0.314-1.12,0.862l-0.414,3.17
		C29.03,4.252,27,6.383,27,9.001c0,2.17,1.399,4.004,3.336,4.694l-0.823,6.306H9c-0.027,0-0.049,0.013-0.076,0.015
		c-0.026,0.002-0.05-0.008-0.077-0.003c-0.042,0.006-0.075,0.031-0.115,0.042c-0.066,0.019-0.129,0.038-0.189,0.069
		c-0.057,0.03-0.105,0.065-0.155,0.104c-0.051,0.04-0.098,0.081-0.141,0.13c-0.042,0.048-0.073,0.1-0.104,0.155
		c-0.032,0.056-0.06,0.11-0.081,0.172c-0.021,0.063-0.031,0.127-0.039,0.194C8.019,20.921,8,20.958,8,21.001
		c0,0.027,0.013,0.049,0.015,0.076c0.002,0.026-0.007,0.05-0.003,0.077l1.579,10.265L11.403,43.2
		c0.408,2.647,2.919,4.801,5.597,4.801h12c2.678,0,5.188-2.153,5.597-4.801l1.815-11.799l1.576-10.248
		c0.004-0.026-0.005-0.05-0.003-0.076C37.987,21.05,38,21.028,38,21.001z M28.209,30.001H11.396l-1.231-8h19.087L28.209,30.001z
		 M34.604,30.001h-4.379l1.043-8h4.566L34.604,30.001z"/>
</g>
<g id="nyt_x5F_exporter_x5F_info" display="none">
</g>
</svg>
