<?xml version="1.0" encoding="utf-8"?>
<!-- Generator: Adobe Illustrator 17.0.0, SVG Export Plug-In . SVG Version: 6.00 Build 0)  -->
<!DOCTYPE svg PUBLIC "-//W3C//DTD SVG 1.1//EN" "http://www.w3.org/Graphics/SVG/1.1/DTD/svg11.dtd">
<svg version="1.1" xmlns="http://www.w3.org/2000/svg" xmlns:xlink="http://www.w3.org/1999/xlink" x="0px" y="0px" width="48px"
	 height="48px" viewBox="0 0 48 48" enable-background="new 0 0 48 48" xml:space="preserve">
<g id="Layer_3">
	<path fill="#010101" d="M47,46H27.729C32.655,43.27,36,38.02,36,32h4c3.99,0,7-3.439,7-8c0-4.56-3.01-8-7-8h-4v-1
		c0-0.553-0.447-1-1-1H5c-0.553,0-1,0.447-1,1v17c0,6.02,3.345,11.27,8.271,14H1c-0.553,0-1,0.447-1,1c0,0.553,0.447,1,1,1h46
		c0.553,0,1-0.447,1-1C48,46.447,47.553,46,47,46z M36,18h4c3.248,0,5,3.092,5,6c0,2.908-1.752,6-5,6h-4V18z"/>
</g>
<g id="nyt_x5F_exporter_x5F_info" display="none">
</g>
</svg>
