<?xml version="1.0" encoding="utf-8"?>
<!-- Generator: Adobe Illustrator 17.0.0, SVG Export Plug-In . SVG Version: 6.00 Build 0)  -->
<!DOCTYPE svg PUBLIC "-//W3C//DTD SVG 1.1//EN" "http://www.w3.org/Graphics/SVG/1.1/DTD/svg11.dtd">
<svg version="1.1" xmlns="http://www.w3.org/2000/svg" xmlns:xlink="http://www.w3.org/1999/xlink" x="0px" y="0px" width="48px"
	 height="48px" viewBox="0 0 48 48" enable-background="new 0 0 48 48" xml:space="preserve">
<g id="Layer_3">
	<g>
		<path fill="#010101" d="M43,24H11c-0.553,0-1,0.447-1,1v16c0,2.414,1.721,4.434,4,4.899V47c0,0.553,0.447,1,1,1
			c0.553,0,1-0.447,1-1v-1h22v1c0,0.553,0.447,1,1,1c0.553,0,1-0.447,1-1v-1.101c2.279-0.465,4-2.484,4-4.899V25
			C44,24.447,43.553,24,43,24z M34,33c0,0.553-0.447,1-1,1c-0.553,0-1-0.447-1-1v-1H22v1c0,0.553-0.447,1-1,1c-0.553,0-1-0.447-1-1
			v-2c0-0.553,0.447-1,1-1h12c0.553,0,1,0.447,1,1V33z"/>
		<rect x="22" y="8" fill="#010101" width="4" height="14"/>
		<path fill="#010101" d="M40,17V9c0-0.553-0.447-1-1-1h-5v14h1C37.757,22,40,19.757,40,17z"/>
		<rect x="28" y="8" fill="#010101" width="4" height="14"/>
		<path fill="#010101" d="M14,5v4v8c0,2.757,2.243,5,5,5h1V8h-4V5c0-2.757-2.243-5-5-5H3C2.447,0,2,0.447,2,1c0,0.553,0.447,1,1,1h8
			C12.654,2,14,3.346,14,5z"/>
	</g>
</g>
<g id="nyt_x5F_exporter_x5F_info" display="none">
</g>
</svg>
