<?xml version="1.0" encoding="utf-8"?>
<!-- Generator: Adobe Illustrator 17.0.0, SVG Export Plug-In . SVG Version: 6.00 Build 0)  -->
<!DOCTYPE svg PUBLIC "-//W3C//DTD SVG 1.1//EN" "http://www.w3.org/Graphics/SVG/1.1/DTD/svg11.dtd">
<svg version="1.1" xmlns="http://www.w3.org/2000/svg" xmlns:xlink="http://www.w3.org/1999/xlink" x="0px" y="0px" width="48px"
	 height="48px" viewBox="0 0 48 48" enable-background="new 0 0 48 48" xml:space="preserve">
<g id="Layer_3">
	<g>
		<path fill="#010101" d="M37.707,16.293L33.414,12H34c0.553,0,1-0.447,1-1c0-0.553-0.447-1-1-1h-3h-8.586l-3.707-3.707
			c-0.391-0.391-1.023-0.391-1.414,0c-0.391,0.391-0.391,1.023,0,1.414L19.586,10H19h-3c-0.553,0-1,0.447-1,1c0,0.553,0.447,1,1,1
			h0.586l-4.293,4.293C12.105,16.481,12,16.734,12,17v27c0,0.266,0.105,0.52,0.293,0.707l3,3C15.48,47.895,15.734,48,16,48h18
			c0.266,0,0.519-0.105,0.707-0.293l3-3C37.894,44.52,38,44.266,38,44V17C38,16.734,37.894,16.481,37.707,16.293z M31.881,27.474
			l-7,13C24.703,40.804,24.361,41,24,41c-0.081,0-0.163-0.01-0.244-0.03C23.311,40.857,23,40.458,23,40v-8h-4
			c-0.365,0-0.701-0.199-0.877-0.519c-0.175-0.32-0.163-0.71,0.033-1.018l7-11c0.238-0.375,0.696-0.55,1.123-0.423
			C26.706,19.164,27,19.556,27,20v6h4c0.352,0,0.678,0.185,0.858,0.487C32.039,26.789,32.047,27.164,31.881,27.474z"/>
		<circle fill="#010101" cx="30" cy="3" r="1"/>
		<circle fill="#010101" cx="28" cy="7" r="1"/>
		<circle fill="#010101" cx="26" cy="1" r="1"/>
	</g>
</g>
<g id="nyt_x5F_exporter_x5F_info" display="none">
</g>
</svg>
