<?xml version="1.0" encoding="utf-8"?>
<!-- Generator: Adobe Illustrator 17.1.0, SVG Export Plug-In . SVG Version: 6.00 Build 0)  -->
<!DOCTYPE svg PUBLIC "-//W3C//DTD SVG 1.0//EN" "http://www.w3.org/TR/2001/REC-SVG-20010904/DTD/svg10.dtd">
<svg version="1.0" id="Layer_1" xmlns="http://www.w3.org/2000/svg" xmlns:xlink="http://www.w3.org/1999/xlink" x="0px" y="0px"
	 width="48px" height="48px" viewBox="0 0 48 48" enable-background="new 0 0 48 48" xml:space="preserve">
<g>
	<path d="M35,10h13V4c0-2.206-1.794-4-4-4H7C6.447,0,6,0.447,6,1v20c0,0.553,0.447,1,1,1h3v5H9c-0.553,0-1,0.447-1,1v1H1
		c-0.553,0-1,0.447-1,1s0.447,1,1,1h7v1c0,0.553,0.447,1,1,1h3v1c0,0.553,0.447,1,1,1s1-0.447,1-1v-1h3c0.553,0,1-0.447,1-1v-4
		c0-0.553-0.447-1-1-1h-1v-5h4v18H1c-0.553,0-1,0.447-1,1v6c0,0.553,0.447,1,1,1h35V25c0-0.553,0.447-1,1-1h11v-4H35
		c-0.553,0-1-0.447-1-1s0.447-1,1-1h13v-2H35c-0.553,0-1-0.447-1-1s0.447-1,1-1h13v-2H35c-0.553,0-1-0.447-1-1S34.447,10,35,10z
		 M14,27h-2v-5h2V27z M14,12c-2.206,0-4-1.794-4-4s1.794-4,4-4s4,1.794,4,4S16.206,12,14,12z"/>
	<path d="M38,48h9c0.553,0,1-0.447,1-1V26H38V48z"/>
</g>
</svg>
