<?xml version="1.0" encoding="utf-8"?>
<!-- Generator: Adobe Illustrator 17.0.0, SVG Export Plug-In . SVG Version: 6.00 Build 0)  -->
<!DOCTYPE svg PUBLIC "-//W3C//DTD SVG 1.1//EN" "http://www.w3.org/Graphics/SVG/1.1/DTD/svg11.dtd">
<svg version="1.1" xmlns="http://www.w3.org/2000/svg" xmlns:xlink="http://www.w3.org/1999/xlink" x="0px" y="0px" width="48px"
	 height="48px" viewBox="0 0 48 48" enable-background="new 0 0 48 48" xml:space="preserve">
<g id="Layer_3">
	<g>
		<path fill="#010101" d="M47,42h-2H3H1c-0.553,0-1,0.447-1,1c0,0.553,0.447,1,1,1h1.586l3.707,3.707C6.48,47.895,6.734,48,7,48h34
			c0.266,0,0.519-0.105,0.707-0.293L45.414,44H47c0.553,0,1-0.447,1-1C48,42.447,47.553,42,47,42z"/>
		<path fill="#010101" d="M6,41h36c0.008,0,0.015,0,0.019,0c0.553,0,1-0.447,1-1c0-0.07-0.007-0.139-0.02-0.205
			C42.9,30.524,36.122,22.842,27.262,21.3C27.723,20.648,28,19.857,28,19c0-2.206-1.794-4-4-4c-2.206,0-4,1.794-4,4
			c0,0.858,0.277,1.649,0.738,2.301C11.813,22.854,5,30.638,5,40C5,40.553,5.447,41,6,41z M24,17c1.102,0,2,0.898,2,2
			c0,1.103-0.898,2-2,2c-1.103,0-2-0.897-2-2C22,17.898,22.897,17,24,17z M12.202,32.461C14.79,28.415,19.2,26,24,26
			c0.553,0,1,0.447,1,1c0,0.553-0.447,1-1,1c-4.114,0-7.895,2.07-10.112,5.539C13.696,33.837,13.374,34,13.044,34
			c-0.185,0-0.371-0.051-0.538-0.157C12.041,33.545,11.905,32.927,12.202,32.461z"/>
	</g>
</g>
<g id="nyt_x5F_exporter_x5F_info" display="none">
</g>
</svg>
