<?xml version="1.0" encoding="utf-8"?>
<!-- Generator: Adobe Illustrator 17.0.0, SVG Export Plug-In . SVG Version: 6.00 Build 0)  -->
<!DOCTYPE svg PUBLIC "-//W3C//DTD SVG 1.1//EN" "http://www.w3.org/Graphics/SVG/1.1/DTD/svg11.dtd">
<svg version="1.1" xmlns="http://www.w3.org/2000/svg" xmlns:xlink="http://www.w3.org/1999/xlink" x="0px" y="0px" width="48px"
	 height="48px" viewBox="0 0 48 48" enable-background="new 0 0 48 48" xml:space="preserve">
<g id="Layer_3">
	<g>
		<path fill="#010101" d="M37.98,29.799C37.958,17.2,35.816,3.888,32.498,0.712C32.132,0.28,31.591,0,30.98,0c-1.104,0-2,0.896-2,2
			v44c0,1.105,0.896,2,2,2s2-0.895,2-2V31h4c0.007,0.001,0.015,0.001,0.02,0c0.553,0,1-0.447,1-1
			C38,29.932,37.993,29.864,37.98,29.799z"/>
		<path fill="#010101" d="M22.98,0c-1.104,0-2,0.896-2,2v9c0,1.474-0.81,2.75-2,3.444V2c0-1.104-0.896-2-2-2s-2,0.896-2,2v12.444
			c-1.19-0.694-2-1.97-2-3.444V2c0-1.104-0.896-2-2-2s-2,0.896-2,2v9c0,3.72,2.555,6.845,6,7.737V46c0,1.105,0.896,2,2,2
			s2-0.895,2-2V18.737c3.445-0.892,6-4.017,6-7.737V2C24.98,0.896,24.085,0,22.98,0z"/>
	</g>
</g>
<g id="nyt_x5F_exporter_x5F_info" display="none">
</g>
</svg>
