<?xml version="1.0" encoding="utf-8"?>
<!-- Generator: Adobe Illustrator 17.0.0, SVG Export Plug-In . SVG Version: 6.00 Build 0)  -->
<!DOCTYPE svg PUBLIC "-//W3C//DTD SVG 1.1//EN" "http://www.w3.org/Graphics/SVG/1.1/DTD/svg11.dtd">
<svg version="1.1" xmlns="http://www.w3.org/2000/svg" xmlns:xlink="http://www.w3.org/1999/xlink" x="0px" y="0px" width="48px"
	 height="48px" viewBox="0 0 48 48" enable-background="new 0 0 48 48" xml:space="preserve">
<g id="Layer_3">
	<g>
		<path fill="#010101" d="M21,0c-1.104,0-2,0.896-2,2v9c0,1.474-0.81,2.75-2,3.444V2c0-1.104-0.896-2-2-2s-2,0.896-2,2v12.444
			c-1.19-0.694-2-1.97-2-3.444V2c0-1.104-0.896-2-2-2S7,0.896,7,2v9c0,3.72,2.555,6.845,6,7.737V46c0,1.105,0.896,2,2,2s2-0.895,2-2
			V18.737c3.445-0.892,6-4.017,6-7.737V2C23,0.896,22.104,0,21,0z"/>
		<path fill="#010101" d="M33,0c-3.589,0-6,2.814-6,7v4c0,3.349,1.546,5.815,4,6.669V46c0,1.105,0.896,2,2,2s2-0.895,2-2V17.705
			c2.888-0.863,5-3.541,5-6.705V7C40,3.141,36.859,0,33,0z"/>
	</g>
</g>
<g id="nyt_x5F_exporter_x5F_info" display="none">
</g>
</svg>
