<?xml version="1.0" encoding="utf-8"?>
<!-- Generator: Adobe Illustrator 17.0.0, SVG Export Plug-In . SVG Version: 6.00 Build 0)  -->
<!DOCTYPE svg PUBLIC "-//W3C//DTD SVG 1.1//EN" "http://www.w3.org/Graphics/SVG/1.1/DTD/svg11.dtd">
<svg version="1.1" xmlns="http://www.w3.org/2000/svg" xmlns:xlink="http://www.w3.org/1999/xlink" x="0px" y="0px" width="48px"
	 height="48px" viewBox="0 0 48 48" enable-background="new 0 0 48 48" xml:space="preserve">
<g id="Layer_3">
	<g>
		<path fill="#010101" d="M25,38c-2.757,0-5,2.243-5,5c0,2.757,2.243,5,5,5c2.757,0,5-2.243,5-5C30,40.243,27.757,38,25,38z"/>
		<path fill="#010101" d="M20,21c0,2.757,2.243,5,5,5c2.757,0,5-2.243,5-5c0-2.757-2.243-5-5-5C22.243,16,20,18.243,20,21z"/>
		<path fill="#010101" d="M18,22c0-2.757-2.243-5-5-5c-2.757,0-5,2.243-5,5c0,2.757,2.243,5,5,5C15.757,27,18,24.757,18,22z"/>
		<path fill="#010101" d="M37,17c-2.757,0-5,2.243-5,5c0,2.757,2.243,5,5,5c2.757,0,5-2.243,5-5C42,19.243,39.757,17,37,17z"/>
		<path fill="#010101" d="M31,28c-2.757,0-5,2.243-5,5c0,2.757,2.243,5,5,5c2.757,0,5-2.243,5-5C36,30.243,33.757,28,31,28z"/>
		<path fill="#010101" d="M24,33c0-2.757-2.243-5-5-5c-2.757,0-5,2.243-5,5c0,2.757,2.243,5,5,5C21.757,38,24,35.757,24,33z"/>
		<path fill="#010101" d="M25,14c0.553,0,1-0.447,1-1V1c0-0.553-0.447-1-1-1c-0.553,0-1,0.447-1,1v12C24,13.553,24.447,14,25,14z"/>
		<path fill="#010101" d="M45.842,2.461c-0.143-0.224-0.368-0.381-0.628-0.438c-1.172-0.258-2.353-0.388-3.507-0.388
			c-6.827,0-12.198,4.377-13.684,11.15c-0.118,0.539,0.223,1.072,0.763,1.191c1.172,0.258,2.352,0.388,3.507,0.388h0.001
			c6.824,0,12.194-4.376,13.683-11.149C46.033,2.955,45.985,2.685,45.842,2.461z"/>
		<path fill="#010101" d="M17.707,14.364c1.154,0,2.335-0.13,3.507-0.388c0.26-0.057,0.485-0.214,0.628-0.438
			c0.144-0.224,0.191-0.494,0.135-0.754C20.489,6.012,15.117,1.636,8.293,1.636c-1.154,0-2.334,0.13-3.507,0.388
			c-0.54,0.118-0.881,0.651-0.763,1.191C5.509,9.987,10.88,14.364,17.707,14.364z"/>
	</g>
</g>
<g id="nyt_x5F_exporter_x5F_info" display="none">
</g>
</svg>
