<?xml version="1.0" encoding="utf-8"?>
<!-- Generator: Adobe Illustrator 17.0.0, SVG Export Plug-In . SVG Version: 6.00 Build 0)  -->
<!DOCTYPE svg PUBLIC "-//W3C//DTD SVG 1.1//EN" "http://www.w3.org/Graphics/SVG/1.1/DTD/svg11.dtd">
<svg version="1.1" xmlns="http://www.w3.org/2000/svg" xmlns:xlink="http://www.w3.org/1999/xlink" x="0px" y="0px" width="48px"
	 height="48px" viewBox="0 0 48 48" enable-background="new 0 0 48 48" xml:space="preserve">
<g id="Layer_3">
	<g>
		<path fill="#010101" d="M32,2.051V1c0-0.553-0.447-1-1-1c-0.553,0-1,0.447-1,1v2v19H7c-0.553,0-1,0.447-1,1
			c0,4.964,2.8,9.284,6.901,11.473L11.012,46.85c-0.084,0.546,0.291,1.056,0.838,1.139C11.9,47.996,11.951,48,12.001,48
			c0.486,0,0.912-0.354,0.987-0.85L14.08,40h9.182l0.018,0.405C21.936,41.051,21,42.413,21,44c0,2.206,1.794,4,4,4
			c2.206,0,4-1.794,4-4c0-2.116-1.655-3.834-3.736-3.973l-0.236-5.519c3.873-2.037,6.589-5.968,6.924-10.556
			C37.572,23.467,42,18.744,42,13C42,7.272,37.598,2.558,32,2.051z M17,26h4c0.553,0,1,0.447,1,1c0,0.553-0.447,1-1,1h-4
			c-0.553,0-1-0.447-1-1C16,26.447,16.447,26,17,26z M14.385,38l0.413-2.71C16.119,35.743,17.528,36,19,36
			c1.419,0,2.782-0.237,4.062-0.659L23.176,38H14.385z"/>
		<path fill="#010101" d="M9,20h18c0.553,0,1-0.447,1-1c0-0.553-0.447-1-1-1H9c-0.553,0-1,0.447-1,1C8,19.553,8.447,20,9,20z"/>
	</g>
</g>
<g id="nyt_x5F_exporter_x5F_info" display="none">
</g>
</svg>
