<?xml version="1.0" encoding="utf-8"?>
<!-- Generator: Adobe Illustrator 17.0.0, SVG Export Plug-In . SVG Version: 6.00 Build 0)  -->
<!DOCTYPE svg PUBLIC "-//W3C//DTD SVG 1.1//EN" "http://www.w3.org/Graphics/SVG/1.1/DTD/svg11.dtd">
<svg version="1.1" xmlns="http://www.w3.org/2000/svg" xmlns:xlink="http://www.w3.org/1999/xlink" x="0px" y="0px" width="48px"
	 height="48px" viewBox="0 0 48 48" enable-background="new 0 0 48 48" xml:space="preserve">
<g id="Layer_3">
	<g>
		<path fill="#010101" d="M36.144,15.999h-28c-0.276,0-0.541,0.114-0.73,0.316c-0.188,0.202-0.286,0.474-0.268,0.75l0.329,4.934
			h29.338l0.329-4.934c0.019-0.276-0.079-0.548-0.267-0.75C36.685,16.114,36.42,15.999,36.144,15.999z"/>
		<path fill="#010101" d="M9.146,47.066c0.035,0.525,0.472,0.934,0.998,0.934h24c0.526,0,0.963-0.408,0.998-0.934l0.738-11.066
			H8.408L9.146,47.066z"/>
		<path fill="#010101" d="M8.275,33.999h27.738l0.667-10H7.608L8.275,33.999z M17.144,27.999h10c0.553,0,1,0.447,1,1s-0.447,1-1,1
			h-10c-0.553,0-1-0.447-1-1S16.591,27.999,17.144,27.999z"/>
		<path fill="#010101" d="M38.144,7.999h-32c-0.553,0-1,0.447-1,1v5c0,0.553,0.447,1,1,1h32c0.553,0,1-0.447,1-1v-5
			C39.144,8.447,38.697,7.999,38.144,7.999z"/>
		<path fill="#010101" d="M8.144,6.999h28C36.152,7,36.16,7,36.164,6.999c0.553,0,1-0.447,1-1c0-0.2-0.059-0.387-0.16-0.543
			l-1.931-4.828c-0.152-0.38-0.52-0.629-0.929-0.629h-24c-0.409,0-0.776,0.249-0.929,0.629l-2,5C7.092,5.936,7.13,6.285,7.316,6.56
			C7.502,6.834,7.812,6.999,8.144,6.999z"/>
	</g>
</g>
<g id="nyt_x5F_exporter_x5F_info" display="none">
</g>
</svg>
