<?xml version="1.0" encoding="utf-8"?>
<!-- Generator: Adobe Illustrator 17.0.0, SVG Export Plug-In . SVG Version: 6.00 Build 0)  -->
<!DOCTYPE svg PUBLIC "-//W3C//DTD SVG 1.1//EN" "http://www.w3.org/Graphics/SVG/1.1/DTD/svg11.dtd">
<svg version="1.1" xmlns="http://www.w3.org/2000/svg" xmlns:xlink="http://www.w3.org/1999/xlink" x="0px" y="0px" width="48px"
	 height="48px" viewBox="0 0 48 48" enable-background="new 0 0 48 48" xml:space="preserve">
<g id="Layer_3">
	<g>
		<path fill="#010101" d="M32.628,4.349c0.962-0.962,2.127-1.645,3.397-2.017c-1.936-1.344-3.892-2.035-5.834-2.035
			c-2.232,0-4.322,0.912-6.046,2.639L2.931,24.149c-2.744,2.741-3.905,7.466-0.609,11.915c0.362-1.257,1.035-2.443,2.023-3.432
			L32.628,4.349z"/>
		<path fill="#010101" d="M45.964,12.236c-0.362,1.256-1.034,2.44-2.021,3.428L15.658,43.948c-0.975,0.974-2.158,1.662-3.447,2.03
			c1.733,1.321,3.664,2.021,5.671,2.021c2.338,0,4.562-0.936,6.265-2.637L45.357,24.15C48.172,21.335,49.271,16.709,45.964,12.236z"
			/>
		<path fill="#010101" d="M42.529,14.249c2.338-2.34,2.338-6.146,0-8.486c-1.133-1.133-2.64-1.757-4.242-1.757
			c-1.603,0-3.11,0.624-4.244,1.757L5.759,34.046c-2.34,2.342-2.34,6.149,0,8.488c1.134,1.133,2.641,1.757,4.243,1.757
			c1.602,0,3.108-0.624,4.241-1.757L42.529,14.249z M10.709,37.584c-0.19-0.191-0.44-0.295-0.707-0.296
			c-0.268,0-0.519,0.104-0.707,0.294c-0.19,0.189-0.294,0.44-0.294,0.706c0,0.267,0.105,0.52,0.294,0.71
			c0.39,0.391,0.39,1.024-0.002,1.414c-0.195,0.194-0.45,0.292-0.706,0.292c-0.257,0-0.513-0.098-0.708-0.294
			c-0.566-0.567-0.878-1.321-0.878-2.122c0-0.801,0.313-1.555,0.88-2.12c0.564-0.566,1.318-0.88,2.121-0.88c0,0,0.001,0,0.002,0
			c0.802,0.001,1.555,0.314,2.12,0.883c0.388,0.388,1.023,0.387,1.415-0.003c0.387-0.389,0.387-1.025-0.003-1.417
			c-0.564-0.562-0.878-1.314-0.878-2.116c-0.001-0.803,0.312-1.558,0.881-2.125c1.166-1.168,3.07-1.168,4.24,0
			c0.381,0.383,1.037,0.381,1.414,0.002c0.19-0.19,0.294-0.44,0.294-0.707s-0.104-0.518-0.292-0.705
			c-1.17-1.173-1.17-3.076-0.001-4.245c0.564-0.566,1.317-0.878,2.118-0.879c0.001,0,0.002,0,0.002,0
			c0.802,0,1.556,0.312,2.122,0.879c0.379,0.377,1.035,0.377,1.414,0c0.189-0.19,0.293-0.441,0.293-0.708
			c0-0.267-0.104-0.518-0.292-0.705c-1.17-1.173-1.169-3.075-0.001-4.243c1.17-1.17,3.072-1.17,4.242,0
			c0.19,0.188,0.44,0.293,0.709,0.293c0.268,0,0.519-0.104,0.706-0.292c0.391-0.391,0.39-1.026-0.001-1.419
			c-1.166-1.166-1.166-3.067,0.001-4.237c1.13-1.134,3.106-1.136,4.242-0.002c0.391,0.391,1.025,0.39,1.415,0.001
			c0.189-0.189,0.293-0.441,0.293-0.708c-0.001-0.267-0.104-0.517-0.293-0.704c-1.17-1.176-1.169-3.079-0.002-4.246
			c1.171-1.17,3.075-1.166,4.244,0.002c0.391,0.391,0.391,1.023,0,1.414c-0.391,0.391-1.023,0.391-1.414,0
			c-0.391-0.391-1.026-0.39-1.417-0.001c-0.389,0.389-0.388,1.024,0.003,1.417c0.564,0.562,0.878,1.315,0.879,2.115
			c0.001,0.803-0.312,1.558-0.879,2.125c-1.17,1.17-3.072,1.17-4.242,0c-0.379-0.377-1.038-0.378-1.413-0.001
			c-0.39,0.391-0.39,1.024-0.001,1.413c1.168,1.174,1.167,3.077,0,4.244c-0.565,0.566-1.317,0.878-2.119,0.879
			c-0.001,0-0.002,0-0.002,0c-0.803,0-1.557-0.312-2.123-0.879c-0.391-0.391-1.024-0.391-1.414,0
			c-0.39,0.39-0.389,1.024,0.001,1.415c0.565,0.563,0.877,1.316,0.878,2.117c0.001,0.803-0.312,1.557-0.879,2.124
			c-1.17,1.17-3.072,1.17-4.242,0c-0.189-0.188-0.44-0.293-0.708-0.293c-0.267,0-0.518,0.104-0.705,0.292
			c-0.391,0.391-0.391,1.026,0,1.418c0.565,0.563,0.878,1.317,0.878,2.119c0,0.802-0.312,1.556-0.88,2.121
			c-1.129,1.133-3.109,1.135-4.242-0.002c-0.389-0.387-1.024-0.388-1.413,0.001c-0.19,0.19-0.295,0.441-0.294,0.708
			c0,0.267,0.104,0.517,0.292,0.704c1.167,1.173,1.167,3.075,0.004,4.244C13.781,38.751,11.877,38.75,10.709,37.584z"/>
	</g>
</g>
<g id="nyt_x5F_exporter_x5F_info" display="none">
</g>
</svg>
