<?xml version="1.0" encoding="utf-8"?>
<!-- Generator: Adobe Illustrator 17.0.0, SVG Export Plug-In . SVG Version: 6.00 Build 0)  -->
<!DOCTYPE svg PUBLIC "-//W3C//DTD SVG 1.1//EN" "http://www.w3.org/Graphics/SVG/1.1/DTD/svg11.dtd">
<svg version="1.1" xmlns="http://www.w3.org/2000/svg" xmlns:xlink="http://www.w3.org/1999/xlink" x="0px" y="0px" width="48px"
	 height="48px" viewBox="0 0 48 48" enable-background="new 0 0 48 48" xml:space="preserve">
<g id="Layer_3">
	<g>
		<path fill="#010101" d="M13.146,47.066c0.035,0.525,0.472,0.934,0.998,0.934h20c0.526,0,0.963-0.408,0.998-0.934l1.804-27.066
			H11.342L13.146,47.066z M13.414,24.316c0.189-0.202,0.454-0.316,0.731-0.316c3.445,0,6.467,2.804,6.467,6c0,3.364-2.548,6-5.801,6
			c-0.526,0-0.963-0.408-0.998-0.934l-0.666-10C13.127,24.789,13.225,24.518,13.414,24.316z"/>
		<path fill="#010101" d="M39.144,9.999H13.665L6.963,0.426L5.325,1.572l5.899,8.427H9.144c-0.553,0-1,0.447-1,1v6
			c0,0.553,0.447,1,1,1h1h3.069h21.861h3.069h1c0.553,0,1-0.447,1-1v-6C40.144,10.447,39.697,9.999,39.144,9.999z"/>
	</g>
</g>
<g id="nyt_x5F_exporter_x5F_info" display="none">
</g>
</svg>
