<?xml version="1.0" encoding="utf-8"?>
<!-- Generator: Adobe Illustrator 17.0.0, SVG Export Plug-In . SVG Version: 6.00 Build 0)  -->
<!DOCTYPE svg PUBLIC "-//W3C//DTD SVG 1.1//EN" "http://www.w3.org/Graphics/SVG/1.1/DTD/svg11.dtd">
<svg version="1.1" xmlns="http://www.w3.org/2000/svg" xmlns:xlink="http://www.w3.org/1999/xlink" x="0px" y="0px" width="48px"
	 height="48px" viewBox="0 0 48 48" enable-background="new 0 0 48 48" xml:space="preserve">
<g id="Layer_3">
	<path fill="#010101" d="M24,0c-7.72,0-14,6.28-14,14v4c0,2.206,1.794,4,4,4c0.365,0,0.712-0.065,1.048-0.157L23.046,47.3
		C23.177,47.717,23.563,48,24,48c0.001,0,0.002,0,0.003,0c0.438-0.001,0.823-0.287,0.952-0.705l7.867-25.492
		C33.197,21.919,33.587,22,34,22c2.206,0,4-1.794,4-4v-4C38,6.28,31.72,0,24,0z M36,18c0,1.103-0.898,2-2,2c-1.103,0-2-0.897-2-2
		c0-1.654-1.346-3-3-3c-1.654,0-3,1.346-3,3v2c0,1.103-0.898,2-2,2c-1.103,0-2-0.897-2-2v-2c0-1.654-1.346-3-3-3
		c-1.654,0-3,1.346-3,3c0,1.103-0.898,2-2,2c-1.103,0-2-0.897-2-2v-4c0-6.617,5.383-12,12-12s12,5.383,12,12V18z"/>
</g>
<g id="nyt_x5F_exporter_x5F_info" display="none">
</g>
</svg>
