<?xml version="1.0" encoding="utf-8"?>
<!-- Generator: Adobe Illustrator 17.0.0, SVG Export Plug-In . SVG Version: 6.00 Build 0)  -->
<!DOCTYPE svg PUBLIC "-//W3C//DTD SVG 1.1//EN" "http://www.w3.org/Graphics/SVG/1.1/DTD/svg11.dtd">
<svg version="1.1" xmlns="http://www.w3.org/2000/svg" xmlns:xlink="http://www.w3.org/1999/xlink" x="0px" y="0px" width="48px"
	 height="48px" viewBox="0 0 48 48" enable-background="new 0 0 48 48" xml:space="preserve">
<g id="Layer_3">
	<g>
		<path fill="#010101" d="M43,26h-2H24H1c-0.336,0-0.649,0.169-0.835,0.449c-0.185,0.281-0.217,0.636-0.084,0.944L6,41.205V43
			c0,2.757,2.243,5,5,5h26c2.757,0,5-2.243,5-5V28h1c1.654,0,3,1.346,3,3v14c0,0.553,0.447,1,1,1c0.553,0,1-0.447,1-1V31
			C48,28.243,45.757,26,43,26z"/>
		<path fill="#010101" d="M16,25h7V9.24c-3.097,1.261-8,7.678-8,14.76C15,24.553,15.447,25,16,25z"/>
		<path fill="#010101" d="M32.019,25c0.553,0,1-0.447,1-1c0-0.071-0.007-0.14-0.02-0.207C32.904,16.794,28.067,10.488,25,9.239V25h7
			C32.008,25.001,32.015,25.001,32.019,25z"/>
	</g>
</g>
<g id="nyt_x5F_exporter_x5F_info" display="none">
</g>
</svg>
