<?xml version="1.0" encoding="utf-8"?>
<!-- Generator: Adobe Illustrator 17.0.0, SVG Export Plug-In . SVG Version: 6.00 Build 0)  -->
<!DOCTYPE svg PUBLIC "-//W3C//DTD SVG 1.1//EN" "http://www.w3.org/Graphics/SVG/1.1/DTD/svg11.dtd">
<svg version="1.1" xmlns="http://www.w3.org/2000/svg" xmlns:xlink="http://www.w3.org/1999/xlink" x="0px" y="0px" width="48px"
	 height="48px" viewBox="0 0 48 48" enable-background="new 0 0 48 48" xml:space="preserve">
<g id="Layer_3">
	<path fill="#010101" d="M23.837,0C13.242,0,1.84,7.511,1.84,24c0,9.101,5.833,22.815,6.081,23.394C8.078,47.762,8.439,48,8.84,48
		h30c0.4,0,0.762-0.238,0.919-0.606C40.007,46.815,45.84,33.101,45.84,24C45.84,7.511,34.435,0,23.837,0z M23,7c0-0.553,0.447-1,1-1
		c0.553,0,1,0.447,1,1v2c0,0.553-0.447,1-1,1c-0.553,0-1-0.447-1-1V7z M23,12.043V18c0,0.553,0.447,1,1,1c0.553,0,1-0.447,1-1
		v-5.927c4.968,0.578,8.84,4.806,8.84,9.927c0,5.514-4.486,10-10,10c-5.514,0-10-4.486-10-10C13.84,16.77,17.879,12.472,23,12.043z
		 M25,35v2c0,0.553-0.447,1-1,1c-0.553,0-1-0.447-1-1v-2c0-0.553,0.447-1,1-1C24.553,34,25,34.447,25,35z M11,23H9
		c-0.553,0-1-0.447-1-1c0-0.553,0.447-1,1-1h2c0.553,0,1,0.447,1,1C12,22.553,11.553,23,11,23z M12.525,10.687
		c0.391-0.389,1.024-0.39,1.415,0.001l1.414,1.416c0.39,0.392,0.39,1.024-0.001,1.415c-0.195,0.194-0.451,0.292-0.707,0.292
		c-0.256,0-0.513-0.098-0.708-0.293l-1.414-1.416C12.135,11.71,12.135,11.077,12.525,10.687z M13.232,33.607
		c-0.256,0-0.512-0.098-0.707-0.293c-0.391-0.391-0.391-1.024,0-1.414l1.414-1.414c0.391-0.391,1.023-0.391,1.414,0
		c0.391,0.391,0.391,1.024,0,1.414l-1.414,1.414C13.744,33.51,13.488,33.607,13.232,33.607z M33,44H15c-0.553,0-1-0.447-1-1
		c0-0.553,0.447-1,1-1h18c0.553,0,1,0.447,1,1C34,43.553,33.553,44,33,44z M35.152,33.315c-0.195,0.195-0.451,0.293-0.707,0.293
		c-0.256,0-0.512-0.098-0.707-0.293L32.324,31.9c-0.391-0.391-0.391-1.023,0-1.414c0.391-0.391,1.024-0.391,1.414,0l1.414,1.414
		C35.543,32.291,35.543,32.924,35.152,33.315z M35.153,12.102l-1.414,1.416c-0.195,0.195-0.452,0.293-0.708,0.293
		c-0.256,0-0.512-0.098-0.707-0.292c-0.391-0.391-0.391-1.023-0.001-1.415l1.414-1.416c0.391-0.391,1.024-0.39,1.415-0.001
		C35.543,11.077,35.543,11.71,35.153,12.102z M39,23h-2c-0.553,0-1-0.447-1-1c0-0.553,0.447-1,1-1h2c0.553,0,1,0.447,1,1
		C40,22.553,39.553,23,39,23z"/>
</g>
<g id="nyt_x5F_exporter_x5F_info" display="none">
</g>
</svg>
