<?xml version="1.0" encoding="utf-8"?>
<!-- Generator: Adobe Illustrator 17.0.0, SVG Export Plug-In . SVG Version: 6.00 Build 0)  -->
<!DOCTYPE svg PUBLIC "-//W3C//DTD SVG 1.1//EN" "http://www.w3.org/Graphics/SVG/1.1/DTD/svg11.dtd">
<svg version="1.1" xmlns="http://www.w3.org/2000/svg" xmlns:xlink="http://www.w3.org/1999/xlink" x="0px" y="0px" width="48px"
	 height="48px" viewBox="0 0 48 48" enable-background="new 0 0 48 48" xml:space="preserve">
<g id="Layer_3">
	<g>
		<path fill="#010101" d="M47.414,20l-8.537-8.537c-0.014,0.026-0.037,0.048-0.054,0.073c-0.042,0.065-0.08,0.132-0.136,0.186
			c-0.006,0.006-0.008,0.014-0.014,0.019L29.587,20H47.414z"/>
		<path fill="#010101" d="M38,6c0-3.309-3.141-6-7-6H17c-3.859,0-7,2.691-7,6v4h28V6z"/>
		<path fill="#010101" d="M0,47c0,0.553,0.447,1,1,1h25v-4V22H0V47z M4,27c0-0.553,0.447-1,1-1h16c0.553,0,1,0.447,1,1v8
			c0,0.553-0.447,1-1,1H5c-0.553,0-1-0.447-1-1V27z"/>
		<path fill="#010101" d="M9,12c-0.122,0-0.236-0.029-0.345-0.069L0.586,20h26.027l8.8-8H9z"/>
		<path fill="#010101" d="M28,22v22v4h19c0.553,0,1-0.447,1-1V22H28z"/>
	</g>
</g>
<g id="nyt_x5F_exporter_x5F_info" display="none">
</g>
</svg>
