<?xml version="1.0" encoding="utf-8"?>
<!-- Generator: Adobe Illustrator 17.0.0, SVG Export Plug-In . SVG Version: 6.00 Build 0)  -->
<!DOCTYPE svg PUBLIC "-//W3C//DTD SVG 1.1//EN" "http://www.w3.org/Graphics/SVG/1.1/DTD/svg11.dtd">
<svg version="1.1" xmlns="http://www.w3.org/2000/svg" xmlns:xlink="http://www.w3.org/1999/xlink" x="0px" y="0px" width="48px"
	 height="48px" viewBox="0 0 48 48" enable-background="new 0 0 48 48" xml:space="preserve">
<g id="Layer_3">
	<g>
		<path fill="#010101" d="M21.99,14.169c0.003,0.001,0.007,0.001,0.01,0.002v-0.024C21.997,14.155,21.994,14.162,21.99,14.169z"/>
		<path fill="#010101" d="M28,10.261v3.911c1.413-0.497,3.02,0.163,3.684,1.486c0.357,0.716,0.415,1.529,0.162,2.29
			c-0.254,0.761-0.788,1.377-1.504,1.735l-4.39,2.156C25.644,21.946,25.324,22,25,22c-0.308,0-0.616-0.05-0.917-0.148l-0.326-0.122
			l-4.099-2.046c-0.299-0.15-0.557-0.353-0.786-0.585c-3.187,3.808-7.636,6.522-12.698,7.499C6.07,27.396,6,28.197,6,29
			c0,10.477,8.523,19,19,19c10.477,0,19-8.523,19-19C44,19.547,37.053,11.706,28,10.261z"/>
		<path fill="#010101" d="M17,2h4h2h1v1v2v12.381l-2.554-1.275c-0.131-0.065-0.272-0.091-0.413-0.094
			c-0.285,0.491-0.586,0.97-0.907,1.436c0.096,0.188,0.234,0.351,0.426,0.447l4.033,2.016l0.077,0.025
			c0.234,0.088,0.46,0.084,0.678-0.001l0.109-0.041l3.997-1.999c0.238-0.119,0.416-0.324,0.501-0.578
			c0.084-0.255,0.065-0.525-0.054-0.764c-0.238-0.478-0.854-0.689-1.345-0.446L26,17.382l0,0V2h7c0.552,0,1-0.448,1-1
			c0-0.552-0.448-1-1-1H17c-0.552,0-1,0.448-1,1C16,1.552,16.448,2,17,2z"/>
		<path fill="#010101" d="M22,5c0-0.553-0.447-1-1-1C9.972,4,1,12.972,1,24c0,0.553,0.447,1,1,1C13.028,25,22,16.028,22,5z"/>
	</g>
</g>
<g id="nyt_x5F_exporter_x5F_info" display="none">
</g>
</svg>
