<?xml version="1.0" encoding="utf-8"?>
<!-- Generator: Adobe Illustrator 17.0.0, SVG Export Plug-In . SVG Version: 6.00 Build 0)  -->
<!DOCTYPE svg PUBLIC "-//W3C//DTD SVG 1.1//EN" "http://www.w3.org/Graphics/SVG/1.1/DTD/svg11.dtd">
<svg version="1.1" xmlns="http://www.w3.org/2000/svg" xmlns:xlink="http://www.w3.org/1999/xlink" x="0px" y="0px" width="48px"
	 height="48px" viewBox="0 0 48 48" enable-background="new 0 0 48 48" xml:space="preserve">
<g id="Layer_3">
	<g>
		<path fill="#010101" d="M47,16H17H1c-0.553,0-1,0.447-1,1c0,0.553,0.447,1,1,1h15v6c0,2.206,1.794,4,4,4h24c2.206,0,4-1.794,4-4
			v-7C48,16.447,47.553,16,47,16z"/>
		<path fill="#010101" d="M37.038,36.001c-0.342-0.028-0.678,0.154-0.87,0.444l-1.123,1.686l-2.188-3.646
			c-0.361-0.602-1.354-0.602-1.715,0l-2.188,3.646l-1.123-1.686c-0.192-0.29-0.519-0.469-0.87-0.444
			c-0.348,0.013-0.663,0.206-0.834,0.51C25.605,37.44,23,42.175,23,44c0,2.206,1.794,4,4,4h10c2.206,0,4-1.794,4-4
			c0-1.825-2.606-6.56-3.128-7.489C37.701,36.207,37.386,36.014,37.038,36.001z"/>
	</g>
</g>
<g id="nyt_x5F_exporter_x5F_info" display="none">
</g>
</svg>
