<?xml version="1.0" encoding="utf-8"?>
<!-- Generator: Adobe Illustrator 17.0.0, SVG Export Plug-In . SVG Version: 6.00 Build 0)  -->
<!DOCTYPE svg PUBLIC "-//W3C//DTD SVG 1.1//EN" "http://www.w3.org/Graphics/SVG/1.1/DTD/svg11.dtd">
<svg version="1.1" xmlns="http://www.w3.org/2000/svg" xmlns:xlink="http://www.w3.org/1999/xlink" x="0px" y="0px" width="48px"
	 height="48px" viewBox="0 0 48 48" enable-background="new 0 0 48 48" xml:space="preserve">
<g id="Layer_3">
	<g>
		<path fill="#010101" d="M12.144,25.999c-9.066,0-12,14.148-12,21c0,0.553,0.447,1,1,1h22c0.008,0.001,0.016,0.001,0.02,0
			c0.553,0,1-0.447,1-1c0-0.07-0.007-0.139-0.021-0.204C24.085,39.87,21.122,25.999,12.144,25.999z M10.144,31.999
			c-0.553,0-1-0.447-1-1s0.447-1,1-1s1,0.447,1,1S10.697,31.999,10.144,31.999z M14.144,31.999c-0.553,0-1-0.447-1-1s0.447-1,1-1
			s1,0.447,1,1S14.697,31.999,14.144,31.999z"/>
		<path fill="#010101" d="M42.144,26.999h-12c-2.206,0-4,1.794-4,4v16c0,0.553,0.447,1,1,1h18c0.553,0,1-0.447,1-1v-16
			C46.144,28.793,44.35,26.999,42.144,26.999z"/>
		<path fill="#010101" d="M41.144,25.999c0.553,0,1-0.447,1-1v-7c0-0.553-0.447-1-1-1h-10c-0.553,0-1,0.447-1,1v7
			c0,0.553,0.447,1,1,1H41.144z"/>
		<path fill="#010101" d="M45.144,10.999h-18c-0.553,0-1,0.447-1,1v1c0,1.99,1.346,3,4,3h12c2.654,0,4-1.01,4-3v-1
			C46.144,11.447,45.697,10.999,45.144,10.999z"/>
		<path fill="#010101" d="M44.144,3.999h-7v-2h1c0.553,0,1-0.447,1-1s-0.447-1-1-1h-4c-0.553,0-1,0.447-1,1s0.447,1,1,1h1v2h-7
			c-2.243,0-4,1.317-4,3s1.757,3,4,3h16c2.243,0,4-1.317,4-3S46.387,3.999,44.144,3.999z"/>
	</g>
</g>
<g id="nyt_x5F_exporter_x5F_info" display="none">
</g>
</svg>
