<?xml version="1.0" encoding="utf-8"?>
<!-- Generator: Adobe Illustrator 17.0.0, SVG Export Plug-In . SVG Version: 6.00 Build 0)  -->
<!DOCTYPE svg PUBLIC "-//W3C//DTD SVG 1.1//EN" "http://www.w3.org/Graphics/SVG/1.1/DTD/svg11.dtd">
<svg version="1.1" xmlns="http://www.w3.org/2000/svg" xmlns:xlink="http://www.w3.org/1999/xlink" x="0px" y="0px" width="48px"
	 height="48px" viewBox="0 0 48 48" enable-background="new 0 0 48 48" xml:space="preserve">
<g id="Layer_3">
	<g>
		<path fill="#010101" d="M41.144,13.999h-7v10h7.439l0.558-8.937c0.018-0.275-0.08-0.546-0.27-0.747
			C41.684,14.114,41.42,13.999,41.144,13.999z"/>
		<rect x="22.144" y="33.999" fill="#010101" width="4" height="14"/>
		<rect x="22.144" y="13.999" fill="#010101" width="4" height="10"/>
		<rect x="28.144" y="33.999" fill="#010101" width="4" height="14"/>
		<rect x="16.144" y="13.999" fill="#010101" width="4" height="10"/>
		<path fill="#010101" d="M14.144,13.999h-7c-0.276,0-0.54,0.114-0.728,0.315c-0.19,0.201-0.287,0.472-0.27,0.747l0.559,8.937h7.439
			V13.999z"/>
		<path fill="#010101" d="M34.144,47.999h5c0.528,0,0.965-0.41,0.998-0.938l0.817-13.062h-6.814V47.999z"/>
		<rect x="16.144" y="33.999" fill="#010101" width="4" height="14"/>
		<polygon fill="#010101" points="7.205,31.999 41.084,31.999 41.459,25.999 6.83,25.999 		"/>
		<rect x="28.144" y="13.999" fill="#010101" width="4" height="10"/>
		<path fill="#010101" d="M8.146,47.062c0.033,0.527,0.47,0.938,0.998,0.938h5v-14H7.33L8.146,47.062z"/>
		<path fill="#010101" d="M7.144,11.999c0.553,0,1-0.447,1-1c0-2.555,1.03-4.325,2.827-4.858c1.671-0.494,3.567,0.216,4.524,1.686
			c0.22,0.337,0.623,0.512,1.017,0.437c0.396-0.072,0.711-0.376,0.797-0.769c0.884-4.041,4.229-5.476,6.825-5.476
			c2.604,0,5.958,1.435,6.843,5.476c0.086,0.394,0.4,0.697,0.797,0.769c0.402,0.078,0.799-0.1,1.018-0.438
			c0.955-1.471,2.855-2.178,4.527-1.685c1.794,0.532,2.823,2.303,2.823,4.858c0,0.553,0.447,1,1,1c0.553,0,1-0.447,1-1
			c0-3.453-1.591-5.985-4.255-6.775C36,3.661,33.91,4.13,32.386,5.344c-1.557-3.664-5.098-5.325-8.251-5.325
			c-3.143,0-6.673,1.659-8.229,5.316c-1.519-1.225-3.584-1.68-5.503-1.111c-2.667,0.792-4.259,3.324-4.259,6.776
			C6.144,11.552,6.591,11.999,7.144,11.999z"/>
	</g>
</g>
<g id="nyt_x5F_exporter_x5F_info" display="none">
</g>
</svg>
