<?xml version="1.0" encoding="utf-8"?>
<!-- Generator: Adobe Illustrator 17.0.0, SVG Export Plug-In . SVG Version: 6.00 Build 0)  -->
<!DOCTYPE svg PUBLIC "-//W3C//DTD SVG 1.1//EN" "http://www.w3.org/Graphics/SVG/1.1/DTD/svg11.dtd">
<svg version="1.1" xmlns="http://www.w3.org/2000/svg" xmlns:xlink="http://www.w3.org/1999/xlink" x="0px" y="0px" width="48px"
	 height="48px" viewBox="0 0 48 48" enable-background="new 0 0 48 48" xml:space="preserve">
<g id="Layer_3">
	<g>
		<path fill="#010101" d="M9,34H1c-0.553,0-1,0.447-1,1v12c0,0.553,0.447,1,1,1h8c0.553,0,1-0.447,1-1V35C10,34.447,9.553,34,9,34z
			 M5,44c-0.552,0-1-0.447-1-1c0-0.553,0.448-1,1-1c0.553,0,1,0.447,1,1C6,43.553,5.553,44,5,44z"/>
		<path fill="#010101" d="M27,40h-1.574c-0.013-0.015-0.027-0.029-0.041-0.044C24.177,38.672,21.663,36,17,36h-5
			c-0.553,0-1,0.447-1,1v8c0,0.553,0.447,1,1,1h30c0.553,0,1-0.447,1-1C43,41.636,37.767,40,27,40z"/>
		<path fill="#010101" d="M47,26h-1.999H3H1c-0.553,0-1,0.447-1,1c0,0.553,0.447,1,1,1h1.586l3.707,3.707C6.48,31.895,6.734,32,7,32
			h34.001c0.266,0,0.519-0.105,0.707-0.293L45.415,28H47c0.553,0,1-0.447,1-1C48,26.447,47.553,26,47,26z"/>
		<path fill="#010101" d="M6,25h36.001c0.007,0.001,0.015,0.001,0.019,0c0.553,0,1-0.447,1-1c0-0.07-0.007-0.14-0.02-0.206
			c-0.109-8.616-6.998-15.992-15.735-17.497C27.725,5.646,28,4.856,28,4c0-2.206-1.794-4-4-4c-2.206,0-4,1.794-4,4
			c0,0.856,0.276,1.646,0.735,2.297C11.929,7.815,5,15.296,5,24C5,24.553,5.447,25,6,25z M24,2c1.102,0,2,0.898,2,2
			c0,1.103-0.898,2-2,2c-1.103,0-2-0.897-2-2C22,2.898,22.897,2,24,2z M12.201,17.461C14.79,13.415,19.201,11,24,11
			c0.553,0,1,0.447,1,1c0,0.553-0.447,1-1,1c-4.113,0-7.895,2.07-10.113,5.539C13.695,18.837,13.373,19,13.043,19
			c-0.185,0-0.371-0.051-0.538-0.157C12.04,18.545,11.904,17.926,12.201,17.461z"/>
	</g>
</g>
<g id="nyt_x5F_exporter_x5F_info" display="none">
</g>
</svg>
