<?xml version="1.0" encoding="utf-8"?>
<!-- Generator: Adobe Illustrator 17.0.0, SVG Export Plug-In . SVG Version: 6.00 Build 0)  -->
<!DOCTYPE svg PUBLIC "-//W3C//DTD SVG 1.1//EN" "http://www.w3.org/Graphics/SVG/1.1/DTD/svg11.dtd">
<svg version="1.1" xmlns="http://www.w3.org/2000/svg" xmlns:xlink="http://www.w3.org/1999/xlink" x="0px" y="0px" width="48px"
	 height="48px" viewBox="0 0 48 48" enable-background="new 0 0 48 48" xml:space="preserve">
<g id="Layer_3">
	<g>
		<path fill="#010101" d="M38.747,12.336C38.558,12.122,38.285,12,38,12H18.059l0.191,2h18.626l-0.705,6H18.82l2.171,22.81
			c0.051,0.531-0.109,1.052-0.449,1.464c-0.342,0.413-0.821,0.667-1.353,0.718L19.011,45h-0.012c-1.037,0-1.893-0.778-1.99-1.811
			L14.802,20H13.83l-0.705-6h1.105l-0.19-2H12c-0.285,0-0.558,0.122-0.747,0.336c-0.19,0.213-0.279,0.497-0.246,0.781l1.059,9
			l2.941,25C15.066,47.62,15.493,48,16,48h18c0.507,0,0.934-0.38,0.993-0.883l2.938-24.99c0-0.004,0.003-0.007,0.003-0.01l1.059-9
			C39.026,12.833,38.937,12.549,38.747,12.336z M22,26c-0.553,0-1-0.447-1-1c0-0.553,0.447-1,1-1c0.553,0,1,0.447,1,1
			C23,25.553,22.553,26,22,26z M24,42c-0.553,0-1-0.447-1-1c0-0.553,0.447-1,1-1c0.553,0,1,0.447,1,1C25,41.553,24.553,42,24,42z
			 M25,32c-0.553,0-1-0.447-1-1c0-0.553,0.447-1,1-1c0.553,0,1,0.447,1,1C26,31.553,25.553,32,25,32z M29,37c-0.553,0-1-0.447-1-1
			c0-0.553,0.447-1,1-1c0.553,0,1,0.447,1,1C30,36.553,29.553,37,29,37z M31,28c-0.553,0-1-0.447-1-1c0-0.553,0.447-1,1-1
			c0.553,0,1,0.447,1,1C32,27.553,31.553,28,31,28z"/>
		<circle fill="#010101" cx="23" cy="6" r="1"/>
		<circle fill="#010101" cx="29" cy="9" r="1"/>
		<circle fill="#010101" cx="32" cy="4" r="1"/>
		<path fill="#010101" d="M14.505,6.321l3.5,36.772c0.048,0.514,0.47,0.9,0.983,0.906l0.129-0.006
			c0.243-0.024,0.483-0.151,0.654-0.357c0.169-0.206,0.249-0.466,0.224-0.731l-3.5-36.774c-0.042-0.437-0.124-0.86-0.242-1.267
			c-0.296-1.016-0.818-1.927-1.507-2.678C13.505,0.834,11.724,0,9.75,0H6C5.448,0,5,0.448,5,1c0,0.552,0.448,1,1,1h3.75
			C12.224,2,14.268,3.857,14.505,6.321z"/>
	</g>
</g>
<g id="nyt_x5F_exporter_x5F_info" display="none">
</g>
</svg>
