<?xml version="1.0" encoding="utf-8"?>
<!-- Generator: Adobe Illustrator 17.0.0, SVG Export Plug-In . SVG Version: 6.00 Build 0)  -->
<!DOCTYPE svg PUBLIC "-//W3C//DTD SVG 1.1//EN" "http://www.w3.org/Graphics/SVG/1.1/DTD/svg11.dtd">
<svg version="1.1" xmlns="http://www.w3.org/2000/svg" xmlns:xlink="http://www.w3.org/1999/xlink" x="0px" y="0px" width="48px"
	 height="48px" viewBox="0 0 48 48" enable-background="new 0 0 48 48" xml:space="preserve">
<g id="Layer_3">
	<g>
		<path fill="#010101" d="M27.238,14.33C27.712,13.672,28,12.872,28,12c0-2.206-1.794-4-4-4c-2.206,0-4,1.794-4,4
			c0,0.872,0.288,1.672,0.762,2.33c-3.707,0.765-6.943,2.821-9.232,5.67h24.94C34.181,17.151,30.945,15.095,27.238,14.33z M24,14
			c-1.103,0-2-0.897-2-2c0-1.102,0.897-2,2-2c1.102,0,2,0.898,2,2C26,13.103,25.102,14,24,14z"/>
		<path fill="#010101" d="M41,21c-1.159,0-2.273,0.281-3.276,0.818c-0.017-0.029-0.035-0.058-0.053-0.087
			C37.494,21.895,37.261,22,37,22H10.165c-1.195,2.058-1.939,4.401-2.11,6.905C5.749,28.461,4,26.433,4,24v-3c0-1.654-1.346-3-3-3
			c-0.553,0-1,0.447-1,1c0,0.553,0.447,1,1,1c0.552,0,1,0.448,1,1v3c0,3.532,2.633,6.454,6.037,6.926
			c0.18,3.143,1.266,6.127,3.187,8.676C11.413,39.853,11.708,40,12.022,40h23.959c0.315,0,0.61-0.147,0.799-0.399
			c1.114-1.482,1.942-3.111,2.482-4.83C39.828,34.917,40.408,35,41,35c3.859,0,7-3.141,7-7C48,24.141,44.859,21,41,21z M41,33
			c-0.43,0-0.847-0.073-1.257-0.181C39.908,31.896,40,30.955,40,30c0-2.279-0.487-4.444-1.349-6.408C39.37,23.204,40.169,23,41,23
			c2.757,0,5,2.243,5,5C46,30.757,43.757,33,41,33z"/>
	</g>
</g>
<g id="nyt_x5F_exporter_x5F_info" display="none">
</g>
</svg>
