<?xml version="1.0" encoding="utf-8"?>
<!-- Generator: Adobe Illustrator 17.0.0, SVG Export Plug-In . SVG Version: 6.00 Build 0)  -->
<!DOCTYPE svg PUBLIC "-//W3C//DTD SVG 1.1//EN" "http://www.w3.org/Graphics/SVG/1.1/DTD/svg11.dtd">
<svg version="1.1" xmlns="http://www.w3.org/2000/svg" xmlns:xlink="http://www.w3.org/1999/xlink" x="0px" y="0px" width="48px"
	 height="48px" viewBox="0 0 48 48" enable-background="new 0 0 48 48" xml:space="preserve">
<g id="Layer_3">
	<g>
		<path fill="#010101" d="M26,31.528V5c0-2.757-2.243-5-5-5c-2.757,0-5,2.243-5,5v26.527C13.519,33.189,12,36,12,39
			c0,4.963,4.037,9,9,9c4.963,0,9-4.037,9-9C30,36.003,28.481,33.191,26,31.528z M21,42c-1.654,0-3-1.346-3-3
			c0-1.302,0.838-2.402,2-2.816V5c0-0.553,0.447-1,1-1c0.553,0,1,0.447,1,1v31.184c1.162,0.414,2,1.514,2,2.816
			C24,40.654,22.654,42,21,42z"/>
		<path fill="#010101" d="M35,4h-6c-0.553,0-1,0.447-1,1c0,0.553,0.447,1,1,1h6c0.553,0,1-0.447,1-1C36,4.447,35.553,4,35,4z"/>
		<path fill="#010101" d="M31,14h-2c-0.553,0-1,0.447-1,1c0,0.553,0.447,1,1,1h2c0.553,0,1-0.447,1-1C32,14.447,31.553,14,31,14z"/>
		<path fill="#010101" d="M31,24h-2c-0.553,0-1,0.447-1,1c0,0.553,0.447,1,1,1h2c0.553,0,1-0.447,1-1C32,24.447,31.553,24,31,24z"/>
	</g>
</g>
<g id="nyt_x5F_exporter_x5F_info" display="none">
</g>
</svg>
