<?xml version="1.0" encoding="utf-8"?>
<!-- Generator: Adobe Illustrator 17.0.0, SVG Export Plug-In . SVG Version: 6.00 Build 0)  -->
<!DOCTYPE svg PUBLIC "-//W3C//DTD SVG 1.1//EN" "http://www.w3.org/Graphics/SVG/1.1/DTD/svg11.dtd">
<svg version="1.1" xmlns="http://www.w3.org/2000/svg" xmlns:xlink="http://www.w3.org/1999/xlink" x="0px" y="0px" width="48px"
	 height="48px" viewBox="0 0 48 48" enable-background="new 0 0 48 48" xml:space="preserve">
<g id="Layer_3">
	<g>
		<path fill="#010101" d="M28,31.528V5c0-2.757-2.243-5-5-5c-2.757,0-5,2.243-5,5v26.527C15.519,33.189,14,36,14,39
			c0,4.963,4.037,9,9,9c4.963,0,9-4.037,9-9C32,36.003,30.481,33.191,28,31.528z M23,42c-1.654,0-3-1.346-3-3
			c0-1.302,0.838-2.402,2-2.816V25c0-0.553,0.447-1,1-1c0.553,0,1,0.447,1,1v11.184c1.162,0.414,2,1.514,2,2.816
			C26,40.654,24.654,42,23,42z"/>
		<path fill="#010101" d="M31,6h2c0.553,0,1-0.447,1-1c0-0.553-0.447-1-1-1h-2c-0.553,0-1,0.447-1,1C30,5.553,30.447,6,31,6z"/>
		<path fill="#010101" d="M31,16h2c0.553,0,1-0.447,1-1c0-0.553-0.447-1-1-1h-2c-0.553,0-1,0.447-1,1C30,15.553,30.447,16,31,16z"/>
		<path fill="#010101" d="M37,24h-6c-0.553,0-1,0.447-1,1c0,0.553,0.447,1,1,1h6c0.553,0,1-0.447,1-1C38,24.447,37.553,24,37,24z"/>
	</g>
</g>
<g id="nyt_x5F_exporter_x5F_info" display="none">
</g>
</svg>
