<?xml version="1.0" encoding="utf-8"?>
<!-- Generator: Adobe Illustrator 17.0.0, SVG Export Plug-In . SVG Version: 6.00 Build 0)  -->
<!DOCTYPE svg PUBLIC "-//W3C//DTD SVG 1.1//EN" "http://www.w3.org/Graphics/SVG/1.1/DTD/svg11.dtd">
<svg version="1.1" xmlns="http://www.w3.org/2000/svg" xmlns:xlink="http://www.w3.org/1999/xlink" x="0px" y="0px" width="48px"
	 height="48px" viewBox="0 0 48 48" enable-background="new 0 0 48 48" xml:space="preserve">
<g id="Layer_3">
	<path fill="#010101" d="M39.737,0.324C39.548,0.117,39.28,0,39,0H9C8.72,0,8.452,0.117,8.263,0.324
		C8.073,0.531,7.979,0.808,8.004,1.087l1.39,15.989c0.002,0.032-0.01,0.063-0.004,0.095l2.614,29.916C12.049,47.604,12.481,48,13,48
		h22c0.519,0,0.951-0.396,0.996-0.913l2.598-29.875l1.402-16.125C40.02,0.808,39.927,0.531,39.737,0.324z M36.692,16H11.308
		L10.091,2h27.818L36.692,16z"/>
</g>
<g id="nyt_x5F_exporter_x5F_info" display="none">
</g>
</svg>
