<?xml version="1.0" encoding="utf-8"?>
<!-- Generator: Adobe Illustrator 17.0.0, SVG Export Plug-In . SVG Version: 6.00 Build 0)  -->
<!DOCTYPE svg PUBLIC "-//W3C//DTD SVG 1.1//EN" "http://www.w3.org/Graphics/SVG/1.1/DTD/svg11.dtd">
<svg version="1.1" xmlns="http://www.w3.org/2000/svg" xmlns:xlink="http://www.w3.org/1999/xlink" x="0px" y="0px" width="48px"
	 height="48px" viewBox="0 0 48 48" enable-background="new 0 0 48 48" xml:space="preserve">
<g id="Layer_3">
	<path fill="#010101" d="M39.001,16c0-0.042-0.003-0.084-0.008-0.126L38.625,13c0-0.027-0.013-0.049-0.015-0.076
		c-0.001-0.034,0.011-0.066,0.007-0.101L36.991,0.865C36.924,0.37,36.5,0,36,0H14c-0.501,0-0.925,0.371-0.991,0.867l-1.606,11.982
		c-0.005,0.023-0.017,0.044-0.02,0.067l-0.375,2.958C11.003,15.916,11,15.958,11,16c0,7.382,5.747,13.433,13,13.949V46h-5
		c-0.553,0-1,0.447-1,1c0,0.553,0.447,1,1,1h12c0.553,0,1-0.447,1-1c0-0.553-0.447-1-1-1h-5V29.949
		C33.253,29.433,39.001,23.382,39.001,16z M13.535,12l1.34-10h20.252l1.358,10H13.535z"/>
</g>
<g id="nyt_x5F_exporter_x5F_info" display="none">
</g>
</svg>
