<?xml version="1.0" encoding="utf-8"?>
<!-- Generator: Adobe Illustrator 17.0.0, SVG Export Plug-In . SVG Version: 6.00 Build 0)  -->
<!DOCTYPE svg PUBLIC "-//W3C//DTD SVG 1.1//EN" "http://www.w3.org/Graphics/SVG/1.1/DTD/svg11.dtd">
<svg version="1.1" id="Layer_1" xmlns="http://www.w3.org/2000/svg" xmlns:xlink="http://www.w3.org/1999/xlink" x="0px" y="0px"
	 width="60px" height="60px" viewBox="0 0 60 60" enable-background="new 0 0 60 60" xml:space="preserve">
<g>
	<path fill="#231F20" d="M20.725,32.288c0.198,0.224,0.473,0.338,0.75,0.338c0.235,0,0.471-0.083,0.661-0.25
		c0.414-0.365,0.454-0.997,0.088-1.412c-2.664-3.02-5.089-6.254-7.208-9.612c-1.154-1.832-0.742-4.412,0.982-6.137l2.383-2.382
		c0.632-0.632,1.473-0.995,2.307-0.995h0.001c0.69,0,1.321,0.251,1.776,0.707l3.908,3.907c1.046,1.047,0.918,2.88-0.288,4.085
		l-1.448,1.446c-0.361,0.36-0.393,0.935-0.074,1.333c0.733,0.916,1.524,1.854,2.349,2.787c0.366,0.414,0.997,0.453,1.412,0.086
		c0.414-0.366,0.452-0.998,0.086-1.412c-0.596-0.673-1.173-1.349-1.722-2.017l0.81-0.809c1.985-1.985,2.115-5.086,0.288-6.913
		l-3.908-3.906c-0.832-0.833-1.965-1.293-3.19-1.293h-0.001c-1.36,0-2.716,0.576-3.721,1.581l-2.383,2.382
		c-2.377,2.379-2.907,6.003-1.258,8.618C15.501,25.868,17.991,29.189,20.725,32.288z"/>
	<path fill="#231F20" d="M48.872,36.123l-3.908-3.907c-0.898-0.899-2.12-1.354-3.449-1.286c-1.286,0.067-2.516,0.626-3.464,1.575
		l-0.808,0.809c-0.676-0.556-1.352-1.133-2.018-1.721c-0.414-0.367-1.047-0.327-1.412,0.086c-0.366,0.414-0.327,1.046,0.086,1.412
		c0.918,0.812,1.856,1.602,2.788,2.348c0.398,0.319,0.972,0.287,1.333-0.073l1.445-1.447c0.598-0.598,1.363-0.95,2.155-0.992
		c0.758-0.034,1.438,0.211,1.93,0.703l3.908,3.907c1.046,1.047,0.917,2.879-0.29,4.086l-2.378,2.381
		c-1.725,1.726-4.305,2.138-6.137,0.982c-3.356-2.117-6.591-4.542-9.613-7.206c-0.414-0.365-1.046-0.326-1.411,0.089
		c-0.365,0.414-0.326,1.046,0.089,1.411c3.102,2.735,6.422,5.224,9.868,7.398c1.02,0.643,2.193,0.956,3.386,0.956
		c1.866,0,3.781-0.763,5.233-2.215l2.379-2.38C50.567,41.051,50.698,37.95,48.872,36.123z"/>
	<path fill="#231F20" d="M51.213,8.788c-0.019-0.019-0.044-0.025-0.063-0.042C45.722,3.344,38.245,0,30,0C13.458,0,0,13.458,0,30
		c0,8.249,3.347,15.729,8.754,21.158c0.014,0.016,0.02,0.038,0.035,0.053c0.016,0.016,0.037,0.021,0.053,0.036
		C14.271,56.653,21.752,60,30,60c16.542,0,30-13.458,30-30c0-8.244-3.344-15.72-8.744-21.148
		C51.239,8.832,51.232,8.807,51.213,8.788z M30,2c7.361,0,14.064,2.86,19.067,7.521L9.52,49.066C4.859,44.063,2,37.361,2,30
		C2,14.56,14.56,2,30,2z M30,58c-7.361,0-14.063-2.859-19.066-7.52l39.546-39.545C55.141,15.938,58,22.64,58,30
		C58,45.44,45.44,58,30,58z"/>
</g>
</svg>
