<?xml version="1.0" encoding="utf-8"?>
<!-- Generator: Adobe Illustrator 17.0.0, SVG Export Plug-In . SVG Version: 6.00 Build 0)  -->
<!DOCTYPE svg PUBLIC "-//W3C//DTD SVG 1.1//EN" "http://www.w3.org/Graphics/SVG/1.1/DTD/svg11.dtd">
<svg version="1.1" id="Layer_1" xmlns="http://www.w3.org/2000/svg" xmlns:xlink="http://www.w3.org/1999/xlink" x="0px" y="0px"
	 width="60px" height="60px" viewBox="0 0 60 60" enable-background="new 0 0 60 60" xml:space="preserve">
<g>
	<path fill="#231F20" d="M34.49,58.576c1.408,0.93,3.042,1.421,4.728,1.421c2.288,0,4.438-0.889,6.051-2.504l2.935-2.935
		c1.142-1.141,1.771-2.659,1.771-4.273c0-1.614-0.629-3.132-1.771-4.273l-5.351-5.349c-1.141-1.142-2.657-1.771-4.271-1.771
		c-1.614,0-3.133,0.629-4.274,1.771l-1.14,1.14c-5.36-4.467-10.507-9.614-14.968-14.969l1.142-1.14
		c2.353-2.356,2.353-6.19-0.001-8.546l-5.352-5.349c-1.141-1.142-2.657-1.771-4.273-1.771c-1.614,0-3.132,0.628-4.273,1.77
		l-2.935,2.934c-2.862,2.863-3.317,7.395-1.082,10.778C10.039,38.53,21.473,49.964,34.49,58.576z M3.922,16.147l2.935-2.934
		c0.764-0.764,1.779-1.184,2.859-1.184c1.08,0,2.095,0.42,2.858,1.184l5.351,5.349c1.575,1.577,1.575,4.142,0.001,5.718
		l-1.784,1.782c-0.363,0.363-0.393,0.943-0.066,1.341c4.864,5.938,10.577,11.651,16.521,16.523c0.396,0.326,0.977,0.298,1.341-0.066
		l1.783-1.782c0.765-0.764,1.78-1.185,2.86-1.185c1.079,0,2.094,0.421,2.857,1.185l5.351,5.349c0.764,0.764,1.185,1.779,1.185,2.859
		c0,1.08-0.421,2.095-1.185,2.859l-2.935,2.935c-1.236,1.237-2.883,1.918-4.637,1.918c-1.292,0-2.545-0.377-3.624-1.09
		c-12.796-8.465-24.034-19.703-32.5-32.5C1.381,21.815,1.728,18.341,3.922,16.147z"/>
	<path fill="#231F20" d="M32.076,27.384c0.101,0.245,0.296,0.44,0.541,0.541c0.122,0.051,0.252,0.077,0.382,0.077h17.176
		c0.553,0,1-0.448,1-1s-0.447-1-1-1H35.413L59.706,1.71c0.391-0.391,0.391-1.024,0-1.414c-0.391-0.391-1.023-0.391-1.414,0
		L33.999,24.588V9.826c0-0.552-0.447-1-1-1s-1,0.448-1,1v17.177c0,0.001,0,0.001,0,0.002C32,27.134,32.026,27.263,32.076,27.384z"/>
</g>
</svg>
