<?xml version="1.0" encoding="utf-8"?>
<!-- Generator: Adobe Illustrator 17.0.0, SVG Export Plug-In . SVG Version: 6.00 Build 0)  -->
<!DOCTYPE svg PUBLIC "-//W3C//DTD SVG 1.1//EN" "http://www.w3.org/Graphics/SVG/1.1/DTD/svg11.dtd">
<svg version="1.1" id="Layer_1" xmlns="http://www.w3.org/2000/svg" xmlns:xlink="http://www.w3.org/1999/xlink" x="0px" y="0px"
	 width="60px" height="60px" viewBox="0 0 60 60" enable-background="new 0 0 60 60" xml:space="preserve">
<g>
	<path fill="#231F20" d="M37.123,56.578C38.53,57.508,40.164,58,41.85,58c2.288,0,4.436-0.889,6.051-2.504l2.935-2.934
		c1.142-1.142,1.77-2.659,1.77-4.273c0-1.614-0.629-3.132-1.77-4.273l-5.349-5.35c-1.142-1.141-2.66-1.77-4.274-1.77
		c-1.614,0-3.132,0.629-4.273,1.771l-1.14,1.14c-5.355-4.462-10.502-9.61-14.968-14.969l1.14-1.139
		c1.142-1.141,1.771-2.659,1.771-4.273c0-1.614-0.629-3.132-1.771-4.273l-5.35-5.35c-1.142-1.142-2.659-1.77-4.273-1.77
		c-1.614,0-3.132,0.629-4.273,1.77L5.14,12.736C2.276,15.6,1.821,20.132,4.058,23.513C12.672,36.534,24.105,47.967,37.123,56.578z
		 M6.554,14.15l2.935-2.935c0.764-0.763,1.779-1.184,2.859-1.184c1.08,0,2.096,0.421,2.859,1.184l5.35,5.35
		c0.764,0.764,1.185,1.779,1.185,2.859c0,1.08-0.421,2.095-1.185,2.858l-1.783,1.783c-0.363,0.363-0.393,0.943-0.066,1.341
		c4.87,5.943,10.583,11.657,16.523,16.523c0.398,0.326,0.977,0.296,1.341-0.066l1.782-1.783c0.764-0.764,1.779-1.185,2.859-1.185
		c1.08,0,2.096,0.421,2.86,1.185l5.349,5.35c0.764,0.764,1.185,1.779,1.185,2.859c0,1.08-0.421,2.096-1.185,2.859l-2.935,2.934
		C45.25,55.319,43.603,56,41.85,56c-1.292,0-2.545-0.377-3.623-1.09c-12.795-8.464-24.034-19.702-32.501-32.5
		C4.012,19.818,4.36,16.344,6.554,14.15z"/>
	<path fill="#231F20" d="M42.623,20.051h-7.34c0,0,6.936-4.898,6.936-8.994c0-2.346-1.463-4.767-4.994-4.767
		c-1.892,0-3.506,0.707-4.641,1.665l0.706,1.563c0.757-0.63,1.992-1.413,3.48-1.413c2.446,0,3.254,1.564,3.254,3.229
		C40,13.807,37.768,15.015,33.605,19l-1.45,1.505V22h10.468V20.051z"/>
	<path fill="#231F20" d="M51.605,22h2v-4h2.762v-2h-2.762V6h-1.93l-7.07,10.05V18h7V22z M46.605,16.05c0-0.062,4.996-7.051,5-7.05
		c0,0,0,6.998,0,7L46.605,16.05z"/>
</g>
</svg>
