<?xml version="1.0" encoding="utf-8"?>
<!-- Generator: Adobe Illustrator 17.0.0, SVG Export Plug-In . SVG Version: 6.00 Build 0)  -->
<!DOCTYPE svg PUBLIC "-//W3C//DTD SVG 1.1//EN" "http://www.w3.org/Graphics/SVG/1.1/DTD/svg11.dtd">
<svg version="1.1" id="Layer_1" xmlns="http://www.w3.org/2000/svg" xmlns:xlink="http://www.w3.org/1999/xlink" x="0px" y="0px"
	 width="60px" height="60px" viewBox="0 0 60 60" enable-background="new 0 0 60 60" xml:space="preserve">
<g>
	<path fill="#231F20" d="M34.491,58.576c1.407,0.93,3.042,1.421,4.727,1.421c2.288,0,4.437-0.889,6.05-2.504l2.935-2.935
		c2.356-2.356,2.356-6.19,0-8.546l-5.35-5.349c-1.142-1.142-2.659-1.771-4.273-1.771c-1.614,0-3.133,0.629-4.274,1.771l-1.14,1.14
		c-5.36-4.467-10.507-9.614-14.967-14.969l1.14-1.14c2.355-2.356,2.355-6.19,0-8.546l-5.351-5.35
		c-1.141-1.142-2.658-1.77-4.273-1.77c-1.614,0-3.132,0.628-4.273,1.77l-2.935,2.934c-2.862,2.862-3.316,7.395-1.081,10.778
		C10.037,38.529,21.471,49.963,34.491,58.576z M3.921,16.147l2.935-2.934c0.764-0.764,1.779-1.184,2.859-1.184
		c1.081,0,2.096,0.42,2.859,1.184l5.351,5.35c1.576,1.576,1.576,4.142,0,5.718l-1.783,1.782c-0.363,0.364-0.393,0.943-0.066,1.341
		c4.863,5.938,10.576,11.651,16.521,16.523c0.398,0.326,0.977,0.297,1.341-0.066l1.782-1.782c0.765-0.764,1.78-1.185,2.86-1.185
		s2.096,0.421,2.859,1.185l5.35,5.349c1.575,1.577,1.575,4.142,0,5.718l-2.936,2.935c-1.236,1.237-2.883,1.918-4.636,1.918
		c-1.292,0-2.545-0.377-3.623-1.09c-12.798-8.465-24.036-19.704-32.501-32.5C1.381,21.815,1.729,18.34,3.921,16.147z"/>
	<path fill="#231F20" d="M29.999,2.002c15.439,0,28,12.561,28,28c0,0.552,0.447,1,1,1s1-0.448,1-1c0-16.542-13.458-30-30-30
		c-0.553,0-1,0.448-1,1S29.446,2.002,29.999,2.002z"/>
	<path fill="#231F20" d="M29.999,12.089c9.877,0,17.913,8.036,17.913,17.913c0,0.552,0.447,1,1,1c0.553,0,1-0.448,1-1
		c0-10.98-8.933-19.913-19.913-19.913c-0.553,0-1,0.448-1,1C28.999,11.642,29.446,12.089,29.999,12.089z"/>
	<path fill="#231F20" d="M29.999,22.176c4.315,0,7.826,3.511,7.826,7.826c0,0.552,0.447,1,1,1c0.553,0,1-0.448,1-1
		c0-5.418-4.408-9.826-9.826-9.826c-0.553,0-1,0.448-1,1C28.999,21.729,29.446,22.176,29.999,22.176z"/>
</g>
</svg>
