<?xml version="1.0" encoding="utf-8"?>
<!-- Generator: Adobe Illustrator 17.0.0, SVG Export Plug-In . SVG Version: 6.00 Build 0)  -->
<!DOCTYPE svg PUBLIC "-//W3C//DTD SVG 1.1//EN" "http://www.w3.org/Graphics/SVG/1.1/DTD/svg11.dtd">
<svg version="1.1" id="Layer_1" xmlns="http://www.w3.org/2000/svg" xmlns:xlink="http://www.w3.org/1999/xlink" x="0px" y="0px"
	 width="60px" height="60px" viewBox="0 0 60 60" enable-background="new 0 0 60 60" xml:space="preserve">
<g>
	<path fill="#231F20" d="M42.874,40.666c-1.142-1.142-2.659-1.771-4.273-1.771c-1.614,0-3.133,0.628-4.274,1.771l-1.14,1.139
		c-5.355-4.463-10.503-9.61-14.967-14.969l1.141-1.14c2.354-2.356,2.354-6.19,0-8.546L14.01,11.8
		c-1.141-1.142-2.658-1.77-4.273-1.77c-1.614,0-3.133,0.628-4.274,1.77l-2.934,2.934c-2.862,2.861-3.317,7.393-1.082,10.777
		c8.61,13.018,20.045,24.452,33.065,33.065c1.407,0.93,3.041,1.422,4.727,1.422c2.288,0,4.437-0.889,6.051-2.504l2.935-2.935
		c1.142-1.141,1.771-2.659,1.771-4.273c0-1.614-0.629-3.132-1.771-4.273L42.874,40.666z M46.81,53.146l-2.935,2.935
		c-1.236,1.237-2.884,1.918-4.637,1.918c-1.292,0-2.545-0.377-3.623-1.09c-12.799-8.466-24.037-19.705-32.501-32.5
		c-1.713-2.594-1.365-6.067,0.828-8.26l2.934-2.934c0.765-0.764,1.78-1.184,2.86-1.184c1.08,0,2.096,0.42,2.859,1.184l5.351,5.349
		c1.574,1.577,1.574,4.143,0,5.718l-1.784,1.782c-0.363,0.363-0.393,0.943-0.066,1.341c4.868,5.942,10.581,11.656,16.521,16.523
		c0.398,0.326,0.977,0.297,1.341-0.066l1.782-1.782c0.765-0.764,1.78-1.185,2.86-1.185s2.096,0.42,2.859,1.185l5.35,5.349
		c0.764,0.764,1.185,1.779,1.185,2.859C47.994,51.368,47.573,52.383,46.81,53.146z"/>
	<path fill="#231F20" d="M56.207,5.057c-2.656-3-6.321-4.785-10.32-5.028c-8.294-0.512-15.383,5.856-15.88,14.063
		c-0.243,3.999,1.086,7.854,3.742,10.853c2.655,3,6.321,4.785,10.32,5.028c0.309,0.019,0.616,0.028,0.922,0.028
		c7.908,0,14.479-6.19,14.959-14.091C60.193,11.911,58.864,8.057,56.207,5.057z M57.954,15.789
		c-0.433,7.113-6.565,12.619-13.764,12.188c-3.466-0.211-6.642-1.758-8.944-4.357c-2.302-2.6-3.453-5.94-3.243-9.406
		c0.415-6.848,6.108-12.212,12.962-12.212c0.266,0,0.532,0.008,0.801,0.024c3.466,0.21,6.642,1.758,8.944,4.357
		C57.013,8.983,58.164,12.323,57.954,15.789z"/>
	<path fill="#231F20" d="M51.856,14.001H38.101c-0.553,0-1,0.448-1,1s0.447,1,1,1h13.756c0.553,0,1-0.448,1-1
		S52.409,14.001,51.856,14.001z"/>
</g>
</svg>
