<?xml version="1.0" encoding="utf-8"?>
<!-- Generator: Adobe Illustrator 17.0.0, SVG Export Plug-In . SVG Version: 6.00 Build 0)  -->
<!DOCTYPE svg PUBLIC "-//W3C//DTD SVG 1.1//EN" "http://www.w3.org/Graphics/SVG/1.1/DTD/svg11.dtd">
<svg version="1.1" id="Layer_1" xmlns="http://www.w3.org/2000/svg" xmlns:xlink="http://www.w3.org/1999/xlink" x="0px" y="0px"
	 width="60px" height="60px" viewBox="0 0 60 60" enable-background="new 0 0 60 60" xml:space="preserve">
<g>
	<path fill="#231F20" d="M41.188,57.366c1.615,1.068,3.491,1.632,5.425,1.632c2.627,0,5.092-1.02,6.944-2.873l3.426-3.425
		c2.685-2.685,2.685-7.055,0-9.74l-6.245-6.245c-1.3-1.301-3.03-2.017-4.87-2.017c-1.84,0-3.57,0.716-4.872,2.017l-1.438,1.438
		c-6.346-5.276-12.44-11.371-17.709-17.71l1.439-1.439c2.685-2.685,2.685-7.055,0-9.74L17.042,3.02
		c-1.3-1.301-3.03-2.018-4.87-2.018c-1.84,0-3.57,0.716-4.872,2.018L3.877,6.445c-3.286,3.286-3.808,8.488-1.241,12.37
		C12.675,33.993,26.006,47.324,41.188,57.366z M5.291,7.859l3.424-3.425c0.924-0.923,2.152-1.432,3.458-1.432
		c1.306,0,2.533,0.508,3.456,1.432l6.246,6.245c1.905,1.906,1.905,5.006,0,6.912l-2.082,2.081c-0.363,0.363-0.392,0.943-0.066,1.341
		c5.671,6.923,12.332,13.585,19.263,19.265c0.397,0.327,0.978,0.298,1.341-0.066l2.081-2.081c0.924-0.923,2.152-1.432,3.458-1.432
		c1.306,0,2.533,0.508,3.456,1.431l6.245,6.245c1.905,1.906,1.905,5.007,0,6.912l-3.427,3.425c-1.474,1.475-3.438,2.288-5.529,2.288
		c-1.541,0-3.036-0.45-4.322-1.3c-14.958-9.895-28.094-23.03-37.987-37.986C2.259,14.619,2.675,10.476,5.291,7.859z"/>
</g>
</svg>
