<?xml version="1.0" encoding="utf-8"?>
<!-- Generator: Adobe Illustrator 17.0.0, SVG Export Plug-In . SVG Version: 6.00 Build 0)  -->
<!DOCTYPE svg PUBLIC "-//W3C//DTD SVG 1.1//EN" "http://www.w3.org/Graphics/SVG/1.1/DTD/svg11.dtd">
<svg version="1.1" id="Layer_1" xmlns="http://www.w3.org/2000/svg" xmlns:xlink="http://www.w3.org/1999/xlink" x="0px" y="0px"
	 width="60px" height="60px" viewBox="0 0 60 60" enable-background="new 0 0 60 60" xml:space="preserve">
<g>
	<path fill="#231F20" d="M45,0c-8.272,0-15,6.729-15,15s6.728,15,15,15c8.271,0,15-6.729,15-15S53.271,0,45,0z M45,28
		c-7.168,0-13-5.831-13-13c0-7.168,5.832-13,13-13s13,5.832,13,13C58,22.169,52.168,28,45,28z"/>
	<path fill="#231F20" d="M45.268,57.496l2.935-2.935c2.355-2.355,2.355-6.189,0-8.546l-5.349-5.35
		c-1.142-1.141-2.66-1.77-4.274-1.77c-1.615,0-3.133,0.629-4.274,1.77l-1.14,1.14c-5.357-4.464-10.504-9.611-14.967-14.968
		l1.142-1.14c2.353-2.357,2.353-6.19-0.001-8.546l-5.352-5.35c-1.141-1.142-2.658-1.77-4.273-1.77c-1.614,0-3.133,0.629-4.274,1.77
		l-2.934,2.934c-2.862,2.861-3.317,7.394-1.082,10.778c8.611,13.019,20.045,24.452,33.064,33.065C35.896,59.508,37.531,60,39.216,60
		C41.504,60,43.653,59.111,45.268,57.496z M3.093,24.41c-1.713-2.594-1.365-6.068,0.828-8.261l2.934-2.934
		c0.764-0.764,1.78-1.184,2.86-1.184c1.08,0,2.095,0.421,2.858,1.184l5.351,5.349c1.575,1.577,1.575,4.142,0.001,5.718l-1.784,1.782
		c-0.363,0.363-0.393,0.943-0.066,1.341c4.867,5.942,10.58,11.655,16.521,16.523c0.398,0.326,0.977,0.296,1.341-0.066l1.783-1.783
		c0.764-0.764,1.779-1.185,2.86-1.185c1.08,0,2.096,0.421,2.86,1.185l5.349,5.349c1.575,1.577,1.575,4.142,0,5.718l-2.935,2.934
		C42.617,57.319,40.97,58,39.216,58c-1.292,0-2.545-0.377-3.623-1.09C22.796,48.444,11.558,37.206,3.093,24.41z"/>
	<path fill="#231F20" d="M50.707,9.293c-0.391-0.391-1.023-0.391-1.414,0l-4.156,4.156l-4.156-4.156
		c-0.391-0.391-1.023-0.391-1.414,0c-0.391,0.391-0.391,1.023,0,1.414l4.156,4.156l-4.156,4.156c-0.391,0.391-0.391,1.023,0,1.414
		c0.195,0.195,0.451,0.293,0.707,0.293s0.512-0.098,0.707-0.293l4.156-4.156l4.156,4.156c0.195,0.195,0.451,0.293,0.707,0.293
		c0.256,0,0.512-0.098,0.707-0.293c0.391-0.391,0.391-1.023,0-1.414l-4.156-4.156l4.156-4.156
		C51.098,10.316,51.098,9.684,50.707,9.293z"/>
</g>
</svg>
