<?xml version="1.0" encoding="utf-8"?>
<!-- Generator: Adobe Illustrator 17.0.0, SVG Export Plug-In . SVG Version: 6.00 Build 0)  -->
<!DOCTYPE svg PUBLIC "-//W3C//DTD SVG 1.1//EN" "http://www.w3.org/Graphics/SVG/1.1/DTD/svg11.dtd">
<svg version="1.1" id="Layer_1" xmlns="http://www.w3.org/2000/svg" xmlns:xlink="http://www.w3.org/1999/xlink" x="0px" y="0px"
	 width="60px" height="60px" viewBox="0 0 60 60" enable-background="new 0 0 60 60" xml:space="preserve">
<g>
	<path fill="#231F20" d="M38.596,49.377c0.948,0.626,2.05,0.958,3.186,0.958c1.542,0,2.989-0.599,4.077-1.686l1.851-1.851
		c0.792-0.792,1.227-1.844,1.226-2.963c-0.001-1.116-0.437-2.165-1.226-2.952l-3.373-3.373c-0.79-0.79-1.84-1.225-2.958-1.225
		c-1.118,0-2.167,0.435-2.956,1.225l-0.479,0.478c-3.175-2.669-6.234-5.727-8.922-8.917l0.479-0.48
		c0.792-0.791,1.228-1.842,1.228-2.961c-0.001-1.116-0.435-2.165-1.224-2.952l-3.375-3.376c-0.791-0.789-1.841-1.223-2.958-1.223
		c-1.118,0-2.169,0.435-2.958,1.225l-1.851,1.851c-1.929,1.93-2.235,4.983-0.728,7.261C23.089,36.668,30.337,43.916,38.596,49.377z
		 M19.776,22.568l1.851-1.851c0.412-0.412,0.96-0.639,1.544-0.639c0.583,0,1.132,0.227,1.543,0.638l3.375,3.377
		c0.411,0.41,0.638,0.956,0.638,1.538c0,0.584-0.228,1.133-0.642,1.546l-1.125,1.125c-0.363,0.364-0.392,0.944-0.065,1.341
		c3.098,3.776,6.72,7.396,10.476,10.47c0.396,0.324,0.975,0.296,1.34-0.066l1.125-1.123c0.824-0.824,2.26-0.823,3.085,0.001
		l3.375,3.374c0.412,0.411,0.639,0.957,0.639,1.539c0.001,0.583-0.227,1.133-0.64,1.546l-1.851,1.851
		c-1.233,1.232-3.286,1.438-4.745,0.474c-8.036-5.313-15.088-12.366-20.395-20.396C18.318,25.823,18.517,23.828,19.776,22.568z"/>
	<path fill="#231F20" d="M56.5,3c0-0.552-0.448-1-1-1h-43c-3.701,0-6,1.916-6,5v11h-2c-0.552,0-1,0.448-1,1s0.448,1,1,1h2v6h-2
		c-0.552,0-1,0.448-1,1s0.448,1,1,1h2v6h-2c-0.552,0-1,0.448-1,1s0.448,1,1,1h2v6h-2c-0.552,0-1,0.448-1,1s0.448,1,1,1h2v6h-2
		c-0.552,0-1,0.448-1,1s0.448,1,1,1h2v2c0,3.364,2.636,6,6,6h44V10h-44c-1.494,0-4-0.39-4-3s2.506-3,4-3h43
		C56.052,4,56.5,3.552,56.5,3z M12.5,12h42v46h-42c-2.243,0-4-1.757-4-4v-2h2c0.552,0,1-0.448,1-1s-0.448-1-1-1h-2v-6h2
		c0.552,0,1-0.448,1-1s-0.448-1-1-1h-2v-6h2c0.552,0,1-0.448,1-1s-0.448-1-1-1h-2v-6h2c0.552,0,1-0.448,1-1s-0.448-1-1-1h-2v-6h2
		c0.552,0,1-0.448,1-1s-0.448-1-1-1h-2v-7.053C9.51,11.628,10.869,12,12.5,12z"/>
	<path fill="#231F20" d="M12.63,6c-0.552,0-1,0.448-1,1s0.448,1,1,1h40.348c0.552,0,1-0.448,1-1s-0.448-1-1-1H12.63z"/>
</g>
</svg>
