<?xml version="1.0" encoding="utf-8"?>
<!-- Generator: Adobe Illustrator 17.0.0, SVG Export Plug-In . SVG Version: 6.00 Build 0)  -->
<!DOCTYPE svg PUBLIC "-//W3C//DTD SVG 1.1//EN" "http://www.w3.org/Graphics/SVG/1.1/DTD/svg11.dtd">
<svg version="1.1" id="Layer_1" xmlns="http://www.w3.org/2000/svg" xmlns:xlink="http://www.w3.org/1999/xlink" x="0px" y="0px"
	 width="60px" height="60px" viewBox="0 0 60 60" enable-background="new 0 0 60 60" xml:space="preserve">
<g>
	<path fill="#231F20" d="M55.74,47.025c2.356-2.356,2.356-6.19,0-8.547l-5.351-5.348c-1.14-1.142-2.658-1.771-4.273-1.771
		c-1.615,0-3.133,0.628-4.275,1.77l-1.138,1.139c-0.905-0.754-1.8-1.524-2.668-2.296c-0.413-0.367-1.045-0.33-1.412,0.083
		c-0.367,0.413-0.33,1.045,0.082,1.412c1.111,0.988,2.264,1.973,3.428,2.926c0.397,0.326,0.978,0.298,1.341-0.066l1.781-1.782
		c0.764-0.764,1.78-1.184,2.861-1.184c1.081,0,2.095,0.42,2.858,1.184l5.351,5.348c1.576,1.577,1.576,4.143,0,5.719l-2.936,2.935
		c-2.193,2.193-5.666,2.541-8.259,0.827c-4.416-2.92-8.697-6.211-12.724-9.781c-0.413-0.367-1.045-0.328-1.412,0.085
		c-0.367,0.414-0.329,1.045,0.084,1.412c4.097,3.632,8.453,6.981,12.948,9.953c1.437,0.951,3.082,1.415,4.718,1.415
		c2.214,0,4.412-0.85,6.058-2.496L55.74,47.025z"/>
	<path fill="#231F20" d="M18.911,30.919c0.198,0.223,0.473,0.337,0.749,0.337c0.236,0,0.473-0.083,0.663-0.252
		c0.414-0.366,0.452-0.998,0.085-1.412c-3.568-4.026-6.857-8.305-9.777-12.719c-1.714-2.593-1.367-6.067,0.826-8.26l2.936-2.935
		c0.764-0.764,1.78-1.184,2.86-1.184c1.08,0,2.095,0.42,2.858,1.184l5.35,5.35c0.764,0.764,1.185,1.779,1.185,2.859
		s-0.421,2.096-1.185,2.859l-1.782,1.783c-0.363,0.363-0.392,0.943-0.067,1.34c0.922,1.127,1.906,2.28,2.923,3.426
		c0.367,0.414,0.999,0.451,1.412,0.084c0.413-0.367,0.45-0.999,0.084-1.412c-0.791-0.891-1.561-1.785-2.296-2.668l1.14-1.14
		c1.142-1.142,1.771-2.659,1.771-4.273s-0.629-3.132-1.771-4.273l-5.35-5.349c-1.141-1.142-2.658-1.771-4.272-1.771
		c-1.614,0-3.132,0.628-4.274,1.77l-2.936,2.935c-2.861,2.862-3.315,7.394-1.08,10.777C11.934,22.469,15.282,26.823,18.911,30.919z"
		/>
	<path fill="#231F20" d="M58.293,0.293l-58,58c-0.391,0.391-0.391,1.023,0,1.414C0.488,59.902,0.744,60,1,60
		s0.512-0.098,0.707-0.293l58-58c0.391-0.391,0.391-1.023,0-1.414C59.316-0.098,58.684-0.098,58.293,0.293z"/>
</g>
</svg>
