<?xml version="1.0" encoding="utf-8"?>
<!-- Generator: Adobe Illustrator 17.0.0, SVG Export Plug-In . SVG Version: 6.00 Build 0)  -->
<!DOCTYPE svg PUBLIC "-//W3C//DTD SVG 1.1//EN" "http://www.w3.org/Graphics/SVG/1.1/DTD/svg11.dtd">
<svg version="1.1" id="Layer_1" xmlns="http://www.w3.org/2000/svg" xmlns:xlink="http://www.w3.org/1999/xlink" x="0px" y="0px"
	 width="60px" height="60px" viewBox="0 0 60 60" enable-background="new 0 0 60 60" xml:space="preserve">
<g>
	<rect x="22" y="40" fill="#231F20" width="2" height="2"/>
	<rect x="28" y="40" fill="#231F20" width="2" height="2"/>
	<rect x="34" y="40" fill="#231F20" width="2" height="2"/>
	<rect x="22" y="46" fill="#231F20" width="2" height="2"/>
	<rect x="28" y="46" fill="#231F20" width="2" height="2"/>
	<rect x="34" y="46" fill="#231F20" width="2" height="2"/>
	<rect x="22" y="52" fill="#231F20" width="2" height="2"/>
	<rect x="28" y="52" fill="#231F20" width="2" height="2"/>
	<rect x="34" y="52" fill="#231F20" width="2" height="2"/>
	<path fill="#231F20" d="M41,8H20V1c0-0.552-0.448-1-1-1s-1,0.448-1,1v7h-1c-2.757,0-5,2.243-5,5v42c0,2.757,2.243,5,5,5h24
		c2.757,0,5-2.243,5-5V13C46,10.243,43.757,8,41,8z M44,55c0,1.654-1.346,3-3,3H17c-1.654,0-3-1.346-3-3V13c0-1.654,1.346-3,3-3h24
		c1.654,0,3,1.346,3,3V55z"/>
	<path fill="#231F20" d="M41,14H17c-0.552,0-1,0.448-1,1v20c0,0.552,0.448,1,1,1h24c0.552,0,1-0.448,1-1V15
		C42,14.448,41.552,14,41,14z M40,34H18V16h22V34z"/>
</g>
</svg>
