<?xml version="1.0" encoding="utf-8"?>
<!-- Generator: Adobe Illustrator 17.0.0, SVG Export Plug-In . SVG Version: 6.00 Build 0)  -->
<!DOCTYPE svg PUBLIC "-//W3C//DTD SVG 1.1//EN" "http://www.w3.org/Graphics/SVG/1.1/DTD/svg11.dtd">
<svg version="1.1" id="Layer_1" xmlns="http://www.w3.org/2000/svg" xmlns:xlink="http://www.w3.org/1999/xlink" x="0px" y="0px"
	 width="60px" height="60px" viewBox="0 0 60 60" enable-background="new 0 0 60 60" xml:space="preserve">
<g>
	<path fill="#231F20" d="M48,8H12v26h36V8z M46,32H14V10h32V32z"/>
	<path fill="#231F20" d="M24,6h12.609c0.552,0,1-0.448,1-1s-0.448-1-1-1H24c-0.552,0-1,0.448-1,1S23.448,6,24,6z"/>
	<path fill="#231F20" d="M15.174,60h30.261C50.158,60,54,56.158,54,51.435V4.783C54,2.146,51.854,0,49.218,0H11.392
		C8.979,0,6.828,1.809,6.04,4.502L6,4.639v46.795l0.011,0.145C6.713,56.38,10.653,60,15.174,60z M8,4.933
		C8.557,3.199,9.935,2,11.392,2h37.826C50.752,2,52,3.249,52,4.783v46.652C52,55.055,49.055,58,45.435,58H15.174
		C11.66,58,8.587,55.15,8,51.36V4.933z"/>
	<rect x="14" y="40" fill="#231F20" width="2" height="2"/>
	<rect x="20" y="40" fill="#231F20" width="2" height="2"/>
	<rect x="26" y="40" fill="#231F20" width="2" height="2"/>
	<rect x="32" y="40" fill="#231F20" width="2" height="2"/>
	<rect x="38" y="40" fill="#231F20" width="2" height="2"/>
	<rect x="44" y="40" fill="#231F20" width="2" height="2"/>
	<rect x="14" y="46" fill="#231F20" width="2" height="2"/>
	<rect x="20" y="46" fill="#231F20" width="2" height="2"/>
	<rect x="26" y="46" fill="#231F20" width="2" height="2"/>
	<rect x="32" y="46" fill="#231F20" width="2" height="2"/>
	<rect x="38" y="46" fill="#231F20" width="2" height="2"/>
	<rect x="44" y="46" fill="#231F20" width="2" height="2"/>
	<rect x="14" y="52" fill="#231F20" width="2" height="2"/>
	<rect x="20" y="52" fill="#231F20" width="2" height="2"/>
	<rect x="26" y="52" fill="#231F20" width="2" height="2"/>
	<rect x="32" y="52" fill="#231F20" width="2" height="2"/>
	<rect x="38" y="52" fill="#231F20" width="2" height="2"/>
	<rect x="44" y="52" fill="#231F20" width="2" height="2"/>
</g>
</svg>
