<?xml version="1.0" encoding="utf-8"?>
<!-- Generator: Adobe Illustrator 17.0.0, SVG Export Plug-In . SVG Version: 6.00 Build 0)  -->
<!DOCTYPE svg PUBLIC "-//W3C//DTD SVG 1.1//EN" "http://www.w3.org/Graphics/SVG/1.1/DTD/svg11.dtd">
<svg version="1.1" id="Layer_1" xmlns="http://www.w3.org/2000/svg" xmlns:xlink="http://www.w3.org/1999/xlink" x="0px" y="0px"
	 width="60px" height="60px" viewBox="0 0 60 60" enable-background="new 0 0 60 60" xml:space="preserve">
<g>
	<path fill="#231F20" d="M52.894,8.401c-15.079-3.072-30.723-3.07-45.79,0C3.054,9.228-0.001,12.804,0,16.718V20
		c0,3.309,2.691,6,6,6h7.956c3.331,0,6.043-2.691,6.044-6v-1.091c6.83-0.626,13.17-0.626,20,0V20c0,3.196,2.986,6,6.392,6h7.564
		c3.331,0,6.043-2.691,6.044-6v-3.281C60.001,12.804,56.946,9.228,52.894,8.401z M58,20c-0.001,2.206-1.815,4-4.044,4h-7.564
		C44.093,24,42,22.093,42,20v-2c0-0.514-0.39-0.944-0.901-0.995c-3.808-0.378-7.438-0.561-11.099-0.561
		c-3.661,0-7.291,0.184-11.099,0.561C18.39,17.056,18,17.486,18,18v2c-0.001,2.206-1.815,4-4.044,4H6c-2.206,0-4-1.794-4-4v-3.282
		c-0.001-2.983,2.365-5.716,5.504-6.357c14.805-3.016,30.173-3.019,44.991,0c3.14,0.641,5.506,3.374,5.505,6.357V20z"/>
	<path fill="#231F20" d="M50,50V30h-2v19.889C47.635,51.472,46.639,54,44,54H16c-2.206,0-4-1.794-4-4V30h-2v20c0,3.309,2.691,6,6,6
		h28c2.948,0,5.183-2.163,5.977-5.786C49.992,50.144,50,50.072,50,50z"/>
	<rect x="22" y="32" fill="#231F20" width="2" height="2"/>
	<rect x="30" y="32" fill="#231F20" width="2" height="2"/>
	<rect x="38" y="32" fill="#231F20" width="2" height="2"/>
	<rect x="22" y="38" fill="#231F20" width="2" height="2"/>
	<rect x="30" y="38" fill="#231F20" width="2" height="2"/>
	<rect x="38" y="38" fill="#231F20" width="2" height="2"/>
	<rect x="22" y="44" fill="#231F20" width="2" height="2"/>
	<rect x="30" y="44" fill="#231F20" width="2" height="2"/>
	<rect x="38" y="44" fill="#231F20" width="2" height="2"/>
</g>
</svg>
