<?xml version="1.0" encoding="utf-8"?>
<!-- Generator: Adobe Illustrator 17.0.0, SVG Export Plug-In . SVG Version: 6.00 Build 0)  -->
<!DOCTYPE svg PUBLIC "-//W3C//DTD SVG 1.1//EN" "http://www.w3.org/Graphics/SVG/1.1/DTD/svg11.dtd">
<svg version="1.1" id="Layer_1" xmlns="http://www.w3.org/2000/svg" xmlns:xlink="http://www.w3.org/1999/xlink" x="0px" y="0px"
	 width="60px" height="60px" viewBox="0 0 60 60" enable-background="new 0 0 60 60" xml:space="preserve">
<g>
	<path fill="#231F20" d="M9,36H1c-0.553,0-1,0.448-1,1v14c0,0.552,0.447,1,1,1h8c0.553,0,1-0.448,1-1V37C10,36.448,9.553,36,9,36z
		 M8,50H2V38h6V50z"/>
	<path fill="#231F20" d="M21,28h-8c-0.553,0-1,0.448-1,1v22c0,0.552,0.447,1,1,1h8c0.553,0,1-0.448,1-1V29
		C22,28.448,21.553,28,21,28z M20,50h-6V30h6V50z"/>
	<path fill="#231F20" d="M33,20h-8c-0.553,0-1,0.448-1,1v30c0,0.552,0.447,1,1,1h8c0.553,0,1-0.448,1-1V21
		C34,20.448,33.553,20,33,20z M32,50h-6V22h6V50z"/>
	<path fill="#231F20" d="M45,12h-8c-0.553,0-1,0.448-1,1v38c0,0.552,0.447,1,1,1h8c0.553,0,1-0.448,1-1V13
		C46,12.448,45.553,12,45,12z M44,50h-6V14h6V50z"/>
	<path fill="#231F20" d="M57,50h-8c-0.553,0-1,0.448-1,1s0.447,1,1,1h8c0.553,0,1-0.448,1-1S57.553,50,57,50z"/>
</g>
</svg>
