<?xml version="1.0" encoding="utf-8"?>
<!-- Generator: Adobe Illustrator 17.0.0, SVG Export Plug-In . SVG Version: 6.00 Build 0)  -->
<!DOCTYPE svg PUBLIC "-//W3C//DTD SVG 1.1//EN" "http://www.w3.org/Graphics/SVG/1.1/DTD/svg11.dtd">
<svg version="1.1" id="Layer_1" xmlns="http://www.w3.org/2000/svg" xmlns:xlink="http://www.w3.org/1999/xlink" x="0px" y="0px"
	 width="60px" height="60px" viewBox="0 0 60 60" enable-background="new 0 0 60 60" xml:space="preserve">
<g>
	<path fill="#231F20" d="M9,36H1c-0.552,0-1,0.448-1,1v14c0,0.552,0.448,1,1,1h8c0.552,0,1-0.448,1-1V37C10,36.448,9.552,36,9,36z
		 M8,50H2V38h6V50z"/>
	<path fill="#231F20" d="M33,50h-8c-0.552,0-1,0.448-1,1s0.448,1,1,1h8c0.552,0,1-0.448,1-1S33.552,50,33,50z"/>
	<path fill="#231F20" d="M21,50h-8c-0.552,0-1,0.448-1,1s0.448,1,1,1h8c0.552,0,1-0.448,1-1S21.552,50,21,50z"/>
	<path fill="#231F20" d="M45,50h-8c-0.552,0-1,0.448-1,1s0.448,1,1,1h8c0.552,0,1-0.448,1-1S45.552,50,45,50z"/>
	<path fill="#231F20" d="M57,50h-8c-0.552,0-1,0.448-1,1s0.448,1,1,1h8c0.552,0,1-0.448,1-1S57.552,50,57,50z"/>
</g>
</svg>
