<?xml version="1.0" encoding="utf-8"?>
<!-- Generator: Adobe Illustrator 17.0.0, SVG Export Plug-In . SVG Version: 6.00 Build 0)  -->
<!DOCTYPE svg PUBLIC "-//W3C//DTD SVG 1.1//EN" "http://www.w3.org/Graphics/SVG/1.1/DTD/svg11.dtd">
<svg version="1.1" id="Layer_1" xmlns="http://www.w3.org/2000/svg" xmlns:xlink="http://www.w3.org/1999/xlink" x="0px" y="0px"
	 width="60px" height="60px" viewBox="0 0 60 60" enable-background="new 0 0 60 60" xml:space="preserve">
<g>
	<path fill="#231F20" d="M46,16c-7.72,0-14,6.28-14,14c0,5.096,2.745,9.551,6.826,12H21.174C25.255,39.551,28,35.096,28,30
		c0-7.72-6.28-14-14-14C6.28,16,0,22.28,0,30c0,7.72,6.28,14,14,14c0.059,0,0.115-0.008,0.174-0.009
		C14.189,43.992,14.202,44,14.217,44H47c0.119,0,0.229-0.03,0.335-0.068C54.43,43.258,60,37.269,60,30C60,22.28,53.72,16,46,16z
		 M2,30c0-6.617,5.383-12,12-12s12,5.383,12,12s-5.383,12-12,12S2,36.617,2,30z M46,42c-6.617,0-12-5.383-12-12s5.383-12,12-12
		s12,5.383,12,12S52.617,42,46,42z"/>
</g>
</svg>
