<?xml version="1.0" encoding="utf-8"?>
<!-- Generator: Adobe Illustrator 17.0.0, SVG Export Plug-In . SVG Version: 6.00 Build 0)  -->
<!DOCTYPE svg PUBLIC "-//W3C//DTD SVG 1.1//EN" "http://www.w3.org/Graphics/SVG/1.1/DTD/svg11.dtd">
<svg version="1.1" id="Layer_1" xmlns="http://www.w3.org/2000/svg" xmlns:xlink="http://www.w3.org/1999/xlink" x="0px" y="0px"
	 width="48px" height="48px" viewBox="0 0 48 48" enable-background="new 0 0 48 48" xml:space="preserve">
<g>
	<path fill="#231F20" d="M7,32H4c-1.084,0-2-1.374-2-3V11c0-1.654,1.346-3,3-3h28c1.626,0,3,0.916,3,2v3c0,0.552,0.447,1,1,1
		s1-0.448,1-1v-3c0-2.206-2.243-4-5-4H5c-2.757,0-5,2.243-5,5v18c0,2.757,1.794,5,4,5h3c0.553,0,1-0.448,1-1S7.553,32,7,32z"/>
	<path fill="#231F20" d="M7,28H6V12h26v1c0,0.552,0.447,1,1,1s1-0.448,1-1v-2c0-0.552-0.447-1-1-1H5c-0.553,0-1,0.448-1,1v18
		c0,0.552,0.447,1,1,1h2c0.553,0,1-0.448,1-1S7.553,28,7,28z"/>
	<path fill="#231F20" d="M43,16H15c-2.757,0-5,2.243-5,5v18c0,2.757,2.243,5,5,5h28c2.757,0,5-2.243,5-5V21
		C48,18.243,45.757,16,43,16z M46,39c0,1.654-1.346,3-3,3H15c-1.654,0-3-1.346-3-3V21c0-1.654,1.346-3,3-3h28c1.654,0,3,1.346,3,3
		V39z"/>
	<path fill="#231F20" d="M43,20H15c-0.553,0-1,0.448-1,1v18c0,0.552,0.447,1,1,1h28c0.553,0,1-0.448,1-1V21
		C44,20.448,43.553,20,43,20z M42,38H16V22h26V38z"/>
</g>
</svg>
