<?xml version="1.0" encoding="utf-8"?>
<!-- Generator: Adobe Illustrator 17.0.0, SVG Export Plug-In . SVG Version: 6.00 Build 0)  -->
<!DOCTYPE svg PUBLIC "-//W3C//DTD SVG 1.1//EN" "http://www.w3.org/Graphics/SVG/1.1/DTD/svg11.dtd">
<svg version="1.1" id="Layer_1" xmlns="http://www.w3.org/2000/svg" xmlns:xlink="http://www.w3.org/1999/xlink" x="0px" y="0px"
	 width="48px" height="48px" viewBox="0 0 48 48" enable-background="new 0 0 48 48" xml:space="preserve">
<g>
	<path fill="#231F20" d="M39,8H9c-4.962,0-9,4.038-9,9v14c0,4.962,4.038,9,9,9h30c4.962,0,9-4.038,9-9V17C48,12.038,43.962,8,39,8z
		 M46,31c0,3.86-3.14,7-7,7H9c-3.86,0-7-3.14-7-7V17c0-3.86,3.14-7,7-7h30c3.86,0,7,3.14,7,7V31z"/>
	<path fill="#231F20" d="M27.625,24.77C29.065,23.673,30,21.946,30,20c0-3.309-2.691-6-6-6s-6,2.691-6,6
		c0,1.946,0.935,3.673,2.374,4.769C17.214,26.168,15,29.328,15,33c0,0.552,0.448,1,1,1h16c0.006,0,0.013,0,0.02,0
		c0.552,0,1-0.448,1-1c0-0.073-0.007-0.144-0.022-0.212C32.914,29.206,30.725,26.141,27.625,24.77z M20,20c0-2.206,1.794-4,4-4
		s4,1.794,4,4s-1.794,4-4,4S20,22.206,20,20z M17.071,32c0.487-3.388,3.408-6,6.928-6c3.521,0,6.442,2.612,6.929,6H17.071z"/>
</g>
</svg>
