<?xml version="1.0" encoding="utf-8"?>
<!-- Generator: Adobe Illustrator 17.0.0, SVG Export Plug-In . SVG Version: 6.00 Build 0)  -->
<!DOCTYPE svg PUBLIC "-//W3C//DTD SVG 1.1//EN" "http://www.w3.org/Graphics/SVG/1.1/DTD/svg11.dtd">
<svg version="1.1" id="Layer_1" xmlns="http://www.w3.org/2000/svg" xmlns:xlink="http://www.w3.org/1999/xlink" x="0px" y="0px"
	 width="48px" height="48px" viewBox="0 0 48 48" enable-background="new 0 0 48 48" xml:space="preserve">
<g>
	<path fill="#231F20" d="M23,0C9.767,0-1,10.767-1,24S9.767,48,23,48c13.233,0,24-10.767,24-24S36.233,0,23,0z M23,46
		C10.869,46,1,36.131,1,24S10.869,2,23,2s22,9.869,22,22S35.131,46,23,46z"/>
	<path fill="#231F20" d="M23,6C13.075,6,5,14.075,5,24s8.075,18,18,18s18-8.075,18-18S32.925,6,23,6z M26.466,30h-6.929
		l-3.463-5.997L19.539,18h6.927l3.463,5.999L26.466,30z M28.775,18h9.047C38.576,19.855,39,21.878,39,24
		c0,2.907-0.792,5.628-2.153,7.98L28.775,18z M36.835,16H20.693l4.519-7.829C30.178,8.863,34.416,11.834,36.835,16z M23,8
		c0,0,0.001,0,0.001,0l-8.082,14.003l-4.52-7.828C13.33,10.424,17.883,8,23,8z M9.154,16.018L17.227,30H8.178
		C7.424,28.145,7,26.122,7,24C7,21.092,7.792,18.37,9.154,16.018z M9.165,32h16.146l-4.519,7.829
		C15.824,39.139,11.584,36.167,9.165,32z M23.003,40l8.081-14.001l4.518,7.825C32.672,37.574,28.12,39.999,23.003,40z"/>
</g>
</svg>
