<?xml version="1.0" encoding="utf-8"?>
<!-- Generator: Adobe Illustrator 17.0.0, SVG Export Plug-In . SVG Version: 6.00 Build 0)  -->
<!DOCTYPE svg PUBLIC "-//W3C//DTD SVG 1.1//EN" "http://www.w3.org/Graphics/SVG/1.1/DTD/svg11.dtd">
<svg version="1.1" id="Layer_1" xmlns="http://www.w3.org/2000/svg" xmlns:xlink="http://www.w3.org/1999/xlink" x="0px" y="0px"
	 width="48px" height="48px" viewBox="0 0 48 48" enable-background="new 0 0 48 48" xml:space="preserve">
<g>
	<path fill="#231F20" d="M0,4v40h48V4H0z M46,42H2V6h44V42z"/>
	<polygon fill="#231F20" points="6,10 12,10 12,8 4,8 4,16 6,16 	"/>
	<polygon fill="#231F20" points="42,16 44,16 44,8 36,8 36,10 42,10 	"/>
	<polygon fill="#231F20" points="12,38 6,38 6,32 4,32 4,40 12,40 	"/>
	<polygon fill="#231F20" points="42,38 36,38 36,40 44,40 44,32 42,32 	"/>
	<circle fill="#231F20" cx="24" cy="24" r="2"/>
	<path fill="#231F20" d="M14.051,23H11c-0.553,0-1,0.448-1,1s0.447,1,1,1h3.051c0.471,4.717,4.232,8.479,8.949,8.949V37
		c0,0.552,0.447,1,1,1s1-0.448,1-1v-3.051c4.717-0.471,8.479-4.232,8.949-8.949H37c0.553,0,1-0.448,1-1s-0.447-1-1-1h-3.051
		c-0.471-4.717-4.232-8.479-8.949-8.949V11c0-0.552-0.447-1-1-1s-1,0.448-1,1v3.051C18.283,14.521,14.521,18.283,14.051,23z M24,16
		c4.411,0,8,3.589,8,8s-3.589,8-8,8s-8-3.589-8-8S19.589,16,24,16z"/>
</g>
</svg>
