<?xml version="1.0" encoding="utf-8"?>
<!-- Generator: Adobe Illustrator 17.0.0, SVG Export Plug-In . SVG Version: 6.00 Build 0)  -->
<!DOCTYPE svg PUBLIC "-//W3C//DTD SVG 1.1//EN" "http://www.w3.org/Graphics/SVG/1.1/DTD/svg11.dtd">
<svg version="1.1" id="Layer_1" xmlns="http://www.w3.org/2000/svg" xmlns:xlink="http://www.w3.org/1999/xlink" x="0px" y="0px"
	 width="48px" height="48px" viewBox="0 0 48 48" enable-background="new 0 0 48 48" xml:space="preserve">
<g>
	<path fill="#231F20" d="M42,22h-3.586l-3.271-3.271L36.72,14H39c0.552,0,1-0.448,1-1V1c0-0.552-0.448-1-1-1H17
		c-0.552,0-1,0.448-1,1v12c0,0.552,0.448,1,1,1h2.279l1.577,4.731L17.586,22H14v-1c0-1.654-1.346-3-3-3H9c-1.654,0-3,1.346-3,3v1
		c-2.206,0-4,1.794-4,4v18c0,2.206,1.794,4,4,4h36c2.206,0,4-1.794,4-4V26C46,23.794,44.206,22,42,22z M18,2h20v10H18V2z M34.612,14
		l-1.334,4H22.72l-1.333-4H34.612z M8,21c0-0.551,0.449-1,1-1h2c0.551,0,1,0.449,1,1v1H8V21z M44,44c0,1.103-0.897,2-2,2H6
		c-1.103,0-2-0.897-2-2V26c0-1.103,0.897-2,2-2h12c0.265,0,0.519-0.105,0.707-0.293L22.414,20h11.172l3.707,3.707
		C37.48,23.895,37.735,24,38,24h4c1.103,0,2,0.897,2,2V44z"/>
	<path fill="#231F20" d="M10,26c-2.206,0-4,1.794-4,4s1.794,4,4,4s4-1.794,4-4S12.206,26,10,26z M10,32c-1.103,0-2-0.897-2-2
		s0.897-2,2-2s2,0.897,2,2S11.103,32,10,32z"/>
	<path fill="#231F20" d="M29,28c-3.309,0-6,2.691-6,6s2.691,6,6,6s6-2.691,6-6S32.309,28,29,28z M29,38c-2.206,0-4-1.794-4-4
		s1.794-4,4-4s4,1.794,4,4S31.206,38,29,38z"/>
	<path fill="#231F20" d="M29,24c-5.514,0-10,4.486-10,10s4.486,10,10,10s10-4.486,10-10S34.514,24,29,24z M29,42
		c-4.411,0-8-3.589-8-8s3.589-8,8-8s8,3.589,8,8S33.411,42,29,42z"/>
	<path fill="#231F20" d="M35,4H21c-0.552,0-1,0.448-1,1v4c0,0.552,0.448,1,1,1h14c0.552,0,1-0.448,1-1V5C36,4.448,35.552,4,35,4z
		 M34,8H22V6h12V8z"/>
</g>
</svg>
