<?xml version="1.0" encoding="utf-8"?>
<!-- Generator: Adobe Illustrator 17.0.0, SVG Export Plug-In . SVG Version: 6.00 Build 0)  -->
<!DOCTYPE svg PUBLIC "-//W3C//DTD SVG 1.1//EN" "http://www.w3.org/Graphics/SVG/1.1/DTD/svg11.dtd">
<svg version="1.1" id="Layer_1" xmlns="http://www.w3.org/2000/svg" xmlns:xlink="http://www.w3.org/1999/xlink" x="0px" y="0px"
	 width="48px" height="48px" viewBox="0 0 48 48" enable-background="new 0 0 48 48" xml:space="preserve">
<g>
	<path fill="#231F20" d="M47,6H1C0.447,6,0,6.448,0,7v34c0,0.552,0.447,1,1,1h46c0.553,0,1-0.448,1-1V7C48,6.448,47.553,6,47,6z
		 M46,40H2V8h44V40z"/>
	<path fill="#231F20" d="M5,38h38c0.553,0,1-0.448,1-1V11c0-0.552-0.447-1-1-1H5c-0.553,0-1,0.448-1,1v26C4,37.552,4.447,38,5,38z
		 M6,12h36v24H6V12z"/>
	<path fill="#231F20" d="M39.495,16.132c-0.48-0.276-1.091-0.108-1.364,0.372l-7.285,12.75l-4.078-4.894
		c-0.381-0.456-1.156-0.456-1.537,0l-4.099,4.918l-5.275-8.793c-0.362-0.603-1.354-0.603-1.715,0l-6,10
		c-0.284,0.474-0.131,1.088,0.343,1.372C8.646,31.954,8.824,32,8.999,32c0.34,0,0.671-0.173,0.858-0.485L15,22.944l5.143,8.571
		c0.167,0.277,0.457,0.457,0.78,0.482c0.32,0.023,0.638-0.108,0.846-0.357L26,26.562l4.23,5.078c0.21,0.252,0.531,0.379,0.857,0.356
		c0.326-0.029,0.618-0.215,0.78-0.5l8-14C40.141,17.017,39.974,16.406,39.495,16.132z"/>
</g>
</svg>
