<?xml version="1.0" encoding="utf-8"?>
<!-- Generator: Adobe Illustrator 17.0.0, SVG Export Plug-In . SVG Version: 6.00 Build 0)  -->
<!DOCTYPE svg PUBLIC "-//W3C//DTD SVG 1.1//EN" "http://www.w3.org/Graphics/SVG/1.1/DTD/svg11.dtd">
<svg version="1.1" id="Layer_1" xmlns="http://www.w3.org/2000/svg" xmlns:xlink="http://www.w3.org/1999/xlink" x="0px" y="0px"
	 width="48px" height="48px" viewBox="0 0 48 48" enable-background="new 0 0 48 48" xml:space="preserve">
<g>
	<path fill="#231F20" d="M31,0H17c-4.962,0-9,4.038-9,9v30c0,4.962,4.038,9,9,9h14c4.962,0,9-4.038,9-9V9C40,4.038,35.962,0,31,0z
		 M38,39c0,3.86-3.14,7-7,7H17c-3.86,0-7-3.14-7-7V9c0-3.86,3.14-7,7-7h14c3.86,0,7,3.14,7,7V39z"/>
	<path fill="#231F20" d="M24,18c2.757,0,5-2.243,5-5s-2.243-5-5-5s-5,2.243-5,5S21.243,18,24,18z M24,10c1.654,0,3,1.346,3,3
		s-1.346,3-3,3s-3-1.346-3-3S22.346,10,24,10z"/>
	<path fill="#231F20" d="M31,20H17c-0.552,0-1,0.448-1,1c0,3.921,0.469,8.63,4,10.827V39c0,0.552,0.448,1,1,1h6c0.552,0,1-0.448,1-1
		v-7.174c3.53-2.197,4-6.906,4-10.826C32,20.448,31.552,20,31,20z M26.549,30.349C26.212,30.519,26,30.865,26,31.242V38h-4v-6.758
		c0-0.378-0.213-0.723-0.55-0.893c-2.774-1.401-3.354-5.041-3.438-8.35h11.976C29.904,25.308,29.324,28.948,26.549,30.349z"/>
</g>
</svg>
