<?xml version="1.0" encoding="utf-8"?>
<!-- Generator: Adobe Illustrator 17.0.0, SVG Export Plug-In . SVG Version: 6.00 Build 0)  -->
<!DOCTYPE svg PUBLIC "-//W3C//DTD SVG 1.1//EN" "http://www.w3.org/Graphics/SVG/1.1/DTD/svg11.dtd">
<svg version="1.1" id="Layer_1" xmlns="http://www.w3.org/2000/svg" xmlns:xlink="http://www.w3.org/1999/xlink" x="0px" y="0px"
	 width="48px" height="48px" viewBox="0 0 48 48" enable-background="new 0 0 48 48" xml:space="preserve">
<g>
	<path fill="#231F20" d="M24.376,33.962C25.299,33.785,26,32.974,26,32v-5.998c0-0.552-0.448-1-1-1s-1,0.448-1,1V32h-2v-7.004
		c0-0.552-0.448-1-1-1s-1,0.448-1,1V32c0,0.974,0.701,1.785,1.624,1.962L10.293,45.293c-0.391,0.391-0.391,1.023,0,1.414
		C10.488,46.902,10.744,47,11,47s0.512-0.098,0.707-0.293L22,36.414V46c0,0.552,0.448,1,1,1s1-0.448,1-1v-9.586l10.293,10.293
		C34.488,46.902,34.744,47,35,47s0.512-0.098,0.707-0.293c0.391-0.391,0.391-1.023,0-1.414L24.376,33.962z"/>
	<path fill="#231F20" d="M41.547,1.407L41.352,1.28l-0.23-0.028C41.038,1.242,39.033,1,36.624,1c-3.349,0-5.761,0.467-7.171,1.387
		c-1.592,1.04-3.349,2.416-3.905,2.857L9,9.297v10.434l16.573,3.044c0.581,0.461,2.311,1.813,3.88,2.838
		C30.862,26.533,33.275,27,36.625,27c2.409,0,4.413-0.242,4.497-0.253l0.23-0.028l0.195-0.127C41.9,26.361,45,24.047,45,14
		S41.9,1.639,41.547,1.407z M40.58,24.795C39.948,24.86,38.388,25,36.624,25c-2.871,0-5.029-0.377-6.076-1.062
		c-1.796-1.172-3.899-2.863-3.92-2.88l-0.198-0.159L11,18.065v-7.199l15.454-3.784l0.173-0.14c0.021-0.017,2.124-1.708,3.92-2.88
		C31.595,3.377,33.753,3,36.624,3c1.752,0,3.312,0.139,3.95,0.205C41.119,3.785,43,6.345,43,14
		C43,21.704,41.095,24.248,40.58,24.795z"/>
</g>
</svg>
