<?xml version="1.0" encoding="utf-8"?>
<!-- Generator: Adobe Illustrator 17.1.0, SVG Export Plug-In . SVG Version: 6.00 Build 0)  -->
<!DOCTYPE svg PUBLIC "-//W3C//DTD SVG 1.0//EN" "http://www.w3.org/TR/2001/REC-SVG-20010904/DTD/svg10.dtd">
<svg version="1.0" id="Layer_1" xmlns="http://www.w3.org/2000/svg" xmlns:xlink="http://www.w3.org/1999/xlink" x="0px" y="0px"
	 width="48px" height="48px" viewBox="0 0 48 48" enable-background="new 0 0 48 48" xml:space="preserve">
<g>
	<path d="M25.376,34.962C26.299,34.785,27,33.974,27,33V23h3c0.552,0,1-0.447,1-1c0-0.553-0.448-1-1-1H18c-0.552,0-1,0.447-1,1
		c0,0.553,0.448,1,1,1h3v10c0,0.974,0.701,1.785,1.624,1.962L11.293,46.293c-0.391,0.391-0.391,1.023,0,1.414
		C11.488,47.902,11.744,48,12,48c0.256,0,0.512-0.098,0.707-0.293L23,37.414V47c0,0.553,0.448,1,1,1c0.552,0,1-0.447,1-1v-9.586
		l10.293,10.293C35.488,47.902,35.744,48,36,48c0.256,0,0.512-0.098,0.707-0.293c0.391-0.391,0.391-1.023,0-1.414L25.376,34.962z
		 M25,23v10h-2V23H25z"/>
	<path d="M34,2h-2.382l-0.171-0.342C30.936,0.636,29.908,0,28.764,0h-4.528c-1.144,0-2.171,0.636-2.683,1.658L21.382,2H17V0h-3v2
		c-1.654,0-3,1.346-3,3v11c0,1.654,1.346,3,3,3h20c1.654,0,3-1.346,3-3V5C37,3.346,35.654,2,34,2z M35,16c0,0.552-0.449,1-1,1H14
		c-0.551,0-1-0.448-1-1V5c0-0.552,0.449-1,1-1h8c0.379,0,0.725-0.214,0.894-0.553l0.447-0.895C23.512,2.212,23.855,2,24.236,2h4.528
		c0.381,0,0.724,0.212,0.895,0.553l0.447,0.895C30.275,3.786,30.621,4,31,4h3c0.551,0,1,0.448,1,1V16z"/>
	<path d="M26,5c-2.757,0-5,2.243-5,5c0,2.757,2.243,5,5,5c2.757,0,5-2.243,5-5C31,7.243,28.757,5,26,5z M26,13c-1.654,0-3-1.346-3-3
		c0-1.654,1.346-3,3-3c1.654,0,3,1.346,3,3C29,11.654,27.654,13,26,13z"/>
</g>
</svg>
