<?xml version="1.0" encoding="utf-8"?>
<!-- Generator: Adobe Illustrator 17.0.0, SVG Export Plug-In . SVG Version: 6.00 Build 0)  -->
<!DOCTYPE svg PUBLIC "-//W3C//DTD SVG 1.1//EN" "http://www.w3.org/Graphics/SVG/1.1/DTD/svg11.dtd">
<svg version="1.1" id="Layer_1" xmlns="http://www.w3.org/2000/svg" xmlns:xlink="http://www.w3.org/1999/xlink" x="0px" y="0px"
	 width="48px" height="48px" viewBox="0 0 48 48" enable-background="new 0 0 48 48" xml:space="preserve">
<g>
	<path fill="#231F20" d="M9,30c-2.757,0-5,2.243-5,5s2.243,5,5,5s5-2.243,5-5S11.757,30,9,30z M9,38c-1.654,0-3-1.346-3-3
		s1.346-3,3-3s3,1.346,3,3S10.654,38,9,38z"/>
	<path fill="#231F20" d="M20.683,38.948c0.528,0.177,1.091-0.108,1.265-0.632L23.72,33h2.559l1.773,5.317
		c0.139,0.419,0.529,0.684,0.948,0.684c0.104,0,0.211-0.017,0.316-0.052c0.524-0.175,0.807-0.741,0.632-1.265l-2-6
		C27.812,31.275,27.431,31,27,31h-4c-0.431,0-0.813,0.275-0.949,0.683l-2,6C19.876,38.207,20.16,38.773,20.683,38.948z"/>
	<rect x="16" y="8" fill="#231F20" width="2" height="8"/>
	<rect x="20" y="8" fill="#231F20" width="2" height="8"/>
	<rect x="24" y="8" fill="#231F20" width="2" height="8"/>
	<rect x="28" y="8" fill="#231F20" width="2" height="8"/>
	<rect x="32" y="8" fill="#231F20" width="2" height="8"/>
	<path fill="#231F20" d="M36,38h8v-6h-8V38z M38,34h4v2h-4V34z"/>
	<path fill="#231F20" d="M41,26h-7v-2h-2v-4h1c2.757,0,5-2.243,5-5V4H12v11c0,2.757,2.243,5,5,5h1v4h-2v2H7c-3.859,0-7,3.14-7,7v4
		c0,3.86,3.141,7,7,7h9v2h18v-2h7c3.859,0,7-3.14,7-7v-4C48,29.14,44.859,26,41,26z M14,15V6h22v9c0,1.654-1.346,3-3,3H17
		C15.346,18,14,16.654,14,15z M20,20h10v4H20V20z M7,42c-2.757,0-5-2.243-5-5v-4c0-2.757,2.243-5,5-5h9v14H7z M32,44H18V26h14V44z
		 M46,37c0,2.757-2.243,5-5,5h-7V28h7c2.757,0,5,2.243,5,5V37z"/>
</g>
</svg>
