<?xml version="1.0" encoding="utf-8"?>
<!-- Generator: Adobe Illustrator 17.0.0, SVG Export Plug-In . SVG Version: 6.00 Build 0)  -->
<!DOCTYPE svg PUBLIC "-//W3C//DTD SVG 1.1//EN" "http://www.w3.org/Graphics/SVG/1.1/DTD/svg11.dtd">
<svg version="1.1" id="Layer_1" xmlns="http://www.w3.org/2000/svg" xmlns:xlink="http://www.w3.org/1999/xlink" x="0px" y="0px"
	 width="48px" height="48px" viewBox="0 0 48 48" enable-background="new 0 0 48 48" xml:space="preserve">
<g>
	<path fill="#231F20" d="M0,4v40h48V4H0z M46,42H2V6h44V42z"/>
	<polygon fill="#231F20" points="6,10 12,10 12,8 4,8 4,16 6,16 	"/>
	<polygon fill="#231F20" points="42,16 44,16 44,8 36,8 36,10 42,10 	"/>
	<polygon fill="#231F20" points="12,38 6,38 6,32 4,32 4,40 12,40 	"/>
	<polygon fill="#231F20" points="42,38 36,38 36,40 44,40 44,32 42,32 	"/>
	<path fill="#231F20" d="M8.253,23.335L7.662,24l0.591,0.665C8.592,25.045,16.636,34,24,34s15.408-8.955,15.747-9.335L40.338,24
		l-0.591-0.665C39.408,22.955,31.364,14,24,14S8.592,22.955,8.253,23.335z M24,16c5.395,0,11.656,5.972,13.627,8.001
		C35.657,26.029,29.403,32,24,32c-5.396,0-11.656-5.972-13.627-8C12.343,21.971,18.597,16,24,16z"/>
	<path fill="#231F20" d="M24,30c3.309,0,6-2.691,6-6s-2.691-6-6-6s-6,2.691-6,6S20.691,30,24,30z M24,20c2.206,0,4,1.794,4,4
		s-1.794,4-4,4s-4-1.794-4-4S21.794,20,24,20z"/>
	<circle fill="#231F20" cx="24" cy="24" r="2"/>
</g>
</svg>
