<?xml version="1.0" encoding="utf-8"?>
<!-- Generator: Adobe Illustrator 17.0.0, SVG Export Plug-In . SVG Version: 6.00 Build 0)  -->
<!DOCTYPE svg PUBLIC "-//W3C//DTD SVG 1.1//EN" "http://www.w3.org/Graphics/SVG/1.1/DTD/svg11.dtd">
<svg version="1.1" id="Layer_1" xmlns="http://www.w3.org/2000/svg" xmlns:xlink="http://www.w3.org/1999/xlink" x="0px" y="0px"
	 width="48px" height="48px" viewBox="0 0 48 48" enable-background="new 0 0 48 48" xml:space="preserve">
<g>
	<path fill="#231F20" d="M42.889,12h-3.271l-1.724-3.448l-0.062-0.107C36.781,6.869,35.42,6,34,6H24c-1.42,0-2.781,0.869-3.8,2.4
		L17.5,12H12v-1c0-1.598-1.454-3-3.111-3H7c-1.568,0-2.944,1.402-2.944,2.972l-0.03,1.084C0.735,12.413,0,14.589,0,16.444v20.778
		C0,40.259,1.863,42,5.111,42h37.778C46.137,42,48,40.259,48,37.222V16.444C48,14.417,47.113,12,42.889,12z M7,10h1.889
		C9.439,10,10,10.505,10,11v1H6.028l0.028-1C6.056,10.495,6.523,10,7,10z M46,37.222C46,39.143,45.04,40,42.888,40H5.111
		C2.959,40,2,39.143,2,37.222V16.444C2,14.977,2.51,14,5,14h13.5l3.332-4.445C22.219,8.974,23.016,8,24,8h10
		c0.957,0,1.736,0.92,2.134,1.505L38.382,14h4.507C45.76,14,46,15.208,46,16.444V37.222z"/>
	<path fill="#231F20" d="M29,14c-6.617,0-12,5.383-12,12s5.383,12,12,12s12-5.383,12-12S35.617,14,29,14z M29,36
		c-5.514,0-10-4.486-10-10s4.486-10,10-10s10,4.486,10,10S34.514,36,29,36z"/>
	<path fill="#231F20" d="M29,19c-3.86,0-7,3.14-7,7s3.14,7,7,7s7-3.14,7-7S32.86,19,29,19z M29,31c-2.757,0-5-2.243-5-5s2.243-5,5-5
		s5,2.243,5,5S31.757,31,29,31z"/>
	<path fill="#231F20" d="M8,16c-2.206,0-4,1.794-4,4s1.794,4,4,4s4-1.794,4-4S10.206,16,8,16z M8,22c-1.103,0-2-0.897-2-2
		s0.897-2,2-2s2,0.897,2,2S9.103,22,8,22z"/>
</g>
</svg>
