<?xml version="1.0" encoding="utf-8"?>
<!-- Generator: Adobe Illustrator 17.0.0, SVG Export Plug-In . SVG Version: 6.00 Build 0)  -->
<!DOCTYPE svg PUBLIC "-//W3C//DTD SVG 1.1//EN" "http://www.w3.org/Graphics/SVG/1.1/DTD/svg11.dtd">
<svg version="1.1" id="Layer_1" xmlns="http://www.w3.org/2000/svg" xmlns:xlink="http://www.w3.org/1999/xlink" x="0px" y="0px"
	 width="48px" height="48px" viewBox="0 0 48 48" enable-background="new 0 0 48 48" xml:space="preserve">
<g>
	<path fill="#231F20" d="M47,6H1C0.447,6,0,6.448,0,7v34c0,0.552,0.447,1,1,1h46c0.553,0,1-0.448,1-1V7C48,6.448,47.553,6,47,6z
		 M46,40H2V8h44V40z"/>
	<path fill="#231F20" d="M5,38h38c0.553,0,1-0.448,1-1V11c0-0.552-0.447-1-1-1H5c-0.553,0-1,0.448-1,1v26C4,37.552,4.447,38,5,38z
		 M6,12h36v24H6V12z"/>
	<path fill="#231F20" d="M11,28c-0.553,0-1,0.448-1,1v4c0,0.552,0.447,1,1,1s1-0.448,1-1v-4C12,28.448,11.553,28,11,28z"/>
	<path fill="#231F20" d="M15,22c-0.553,0-1,0.448-1,1v10c0,0.552,0.447,1,1,1s1-0.448,1-1V23C16,22.448,15.553,22,15,22z"/>
	<path fill="#231F20" d="M19,26c-0.553,0-1,0.448-1,1v6c0,0.552,0.447,1,1,1s1-0.448,1-1v-6C20,26.448,19.553,26,19,26z"/>
	<path fill="#231F20" d="M23,28c-0.553,0-1,0.448-1,1v4c0,0.552,0.447,1,1,1s1-0.448,1-1v-4C24,28.448,23.553,28,23,28z"/>
	<path fill="#231F20" d="M35,18c-0.553,0-1,0.448-1,1v14c0,0.552,0.447,1,1,1s1-0.448,1-1V19C36,18.448,35.553,18,35,18z"/>
	<path fill="#231F20" d="M31,23c-0.553,0-1,0.448-1,1v9c0,0.552,0.447,1,1,1s1-0.448,1-1v-9C32,23.448,31.553,23,31,23z"/>
	<path fill="#231F20" d="M27,14c-0.553,0-1,0.448-1,1v18c0,0.552,0.447,1,1,1s1-0.448,1-1V15C28,14.448,27.553,14,27,14z"/>
</g>
</svg>
