<?xml version="1.0" encoding="utf-8"?>
<!-- Generator: Adobe Illustrator 17.0.0, SVG Export Plug-In . SVG Version: 6.00 Build 0)  -->
<!DOCTYPE svg PUBLIC "-//W3C//DTD SVG 1.1//EN" "http://www.w3.org/Graphics/SVG/1.1/DTD/svg11.dtd">
<svg version="1.1" id="Layer_1" xmlns="http://www.w3.org/2000/svg" xmlns:xlink="http://www.w3.org/1999/xlink" x="0px" y="0px"
	 width="48px" height="48px" viewBox="0 0 48 48" enable-background="new 0 0 48 48" xml:space="preserve">
<g>
	<path fill="#231F20" d="M42.889,12h-3.271l-1.724-3.448l-0.062-0.107C36.781,6.869,35.42,6,34,6H24c-1.42,0-2.781,0.869-3.8,2.4
		L17.5,12H12v-1c0-1.654-1.346-3-3-3H7c-1.654,0-3,1.346-3,3v1h1c-4.132,0-5,2.417-5,4.444v20.778C0,40.259,1.863,42,5.111,42
		h37.778C46.137,42,48,40.259,48,37.222V16.444C48,14.417,47.113,12,42.889,12z M6,11c0-0.551,0.449-1,1-1h2c0.551,0,1,0.449,1,1v1
		H6V11z M46,37.222C46,39.143,45.04,40,42.888,40H5.111C2.959,40,2,39.143,2,37.222V16.444C2,14.977,2.51,14,5,14h13.5l3.332-4.445
		C22.219,8.974,23.016,8,24,8h10c0.957,0,1.736,0.92,2.135,1.505L38.382,14h4.507C45.76,14,46,15.208,46,16.444V37.222z"/>
	<circle fill="#231F20" cx="8" cy="17" r="1"/>
	<circle fill="#231F20" cx="12" cy="17" r="1"/>
	<circle fill="#231F20" cx="16" cy="17" r="1"/>
	<path fill="#231F20" d="M35,20c-4.962,0-9,4.038-9,9s4.038,9,9,9s9-4.038,9-9S39.962,20,35,20z M35,36c-3.86,0-7-3.14-7-7
		s3.14-7,7-7s7,3.14,7,7S38.86,36,35,36z"/>
	<path fill="#231F20" d="M21,20H7c-1.654,0-3,1.346-3,3v12c0,1.654,1.346,3,3,3h14c1.654,0,3-1.346,3-3V23
		C24,21.346,22.654,20,21,20z M22,35c0,0.551-0.449,1-1,1H7c-0.551,0-1-0.449-1-1V23c0-0.551,0.449-1,1-1h14c0.551,0,1,0.449,1,1V35
		z"/>
	<path fill="#231F20" d="M35,28c0.552,0,1-0.448,1-1v-2c0-0.552-0.448-1-1-1s-1,0.448-1,1v2C34,27.552,34.448,28,35,28z"/>
	<path fill="#231F20" d="M35,30c-0.552,0-1,0.448-1,1v2c0,0.552,0.448,1,1,1s1-0.448,1-1v-2C36,30.448,35.552,30,35,30z"/>
	<path fill="#231F20" d="M39,28h-2c-0.552,0-1,0.448-1,1s0.448,1,1,1h2c0.552,0,1-0.448,1-1S39.552,28,39,28z"/>
	<path fill="#231F20" d="M33,28h-2c-0.552,0-1,0.448-1,1s0.448,1,1,1h2c0.552,0,1-0.448,1-1S33.552,28,33,28z"/>
</g>
</svg>
