<?xml version="1.0" encoding="utf-8"?>
<!-- Generator: Adobe Illustrator 17.0.0, SVG Export Plug-In . SVG Version: 6.00 Build 0)  -->
<!DOCTYPE svg PUBLIC "-//W3C//DTD SVG 1.1//EN" "http://www.w3.org/Graphics/SVG/1.1/DTD/svg11.dtd">
<svg version="1.1" id="Layer_1" xmlns="http://www.w3.org/2000/svg" xmlns:xlink="http://www.w3.org/1999/xlink" x="0px" y="0px"
	 width="48px" height="48px" viewBox="0 0 48 48" enable-background="new 0 0 48 48" xml:space="preserve">
<g>
	<path fill="#231F20" d="M45,8h-1V7c0-1.654-1.346-3-3-3h-4c-1.654,0-3,1.346-3,3v1H3c-1.654,0-3,1.346-3,3v26c0,1.654,1.346,3,3,3
		h42c1.654,0,3-1.346,3-3V11C48,9.346,46.654,8,45,8z M36,7c0-0.551,0.448-1,1-1h4c0.552,0,1,0.449,1,1v1h-6V7z M3,10h42
		c0.552,0,1,0.449,1,1v9H32v0.026C30.175,17.588,27.273,16,24,16c-3.261,0-6.154,1.577-7.981,4H2v-9C2,10.449,2.448,10,3,10z
		 M14.841,30H2v-8h12.841C14.303,23.226,14,24.578,14,26S14.303,28.774,14.841,30z M24,18c4.411,0,8,3.589,8,8s-3.589,8-8,8
		s-8-3.589-8-8S19.589,18,24,18z M33.159,22H46v8H33.159C33.697,28.774,34,27.422,34,26S33.697,23.226,33.159,22z M45,38H3
		c-0.552,0-1-0.449-1-1v-5h14v-0.026C17.825,34.412,20.727,36,24,36s6.175-1.588,8-4.026V32h14v5C46,37.551,45.552,38,45,38z"/>
	<path fill="#231F20" d="M5,18h8c0.553,0,1-0.448,1-1v-4c0-0.552-0.447-1-1-1H5c-0.553,0-1,0.448-1,1v4C4,17.552,4.447,18,5,18z
		 M6,14h6v2H6V14z"/>
	<path fill="#231F20" d="M24,31c2.757,0,5-2.243,5-5s-2.243-5-5-5s-5,2.243-5,5S21.243,31,24,31z M24,23c1.654,0,3,1.346,3,3
		s-1.346,3-3,3s-3-1.346-3-3S22.346,23,24,23z"/>
	<circle fill="#231F20" cx="40" cy="16" r="2"/>
</g>
</svg>
