<?xml version="1.0" encoding="utf-8"?>
<!-- Generator: Adobe Illustrator 17.0.0, SVG Export Plug-In . SVG Version: 6.00 Build 0)  -->
<!DOCTYPE svg PUBLIC "-//W3C//DTD SVG 1.1//EN" "http://www.w3.org/Graphics/SVG/1.1/DTD/svg11.dtd">
<svg version="1.1" id="Layer_1" xmlns="http://www.w3.org/2000/svg" xmlns:xlink="http://www.w3.org/1999/xlink" x="0px" y="0px"
	 width="48px" height="48px" viewBox="0 0 48 48" enable-background="new 0 0 48 48" xml:space="preserve">
<path fill="#231F20" d="M39,10c-0.339,0-0.672,0.035-1,0.093V10H13.723l-2.792,1.67C0.825,17.7,0,18.192,0,25
	c0,6.807,0.619,7.176,10.956,13.345L13.723,40H38v-0.093C38.328,39.965,38.661,40,39,40c5.047,0,9-6.589,9-15S44.047,10,39,10z
	 M22,38c-2.185,0-4.17-1.98-5.465-5h9.822c0.771,2.07,1.834,3.785,3.104,5H22z M16,38c-3.794,0-7-5.953-7-13s3.206-13,7-13h1.462
	C14.776,14.568,13,19.37,13,25s1.776,10.432,4.462,13H16z M29.462,12c-1.271,1.215-2.334,2.93-3.104,5h-9.822
	c1.295-3.02,3.28-5,5.465-5H29.462z M15.028,26h10.001c0.067,1.775,0.304,3.459,0.698,5h-9.904
	C15.383,29.476,15.106,27.782,15.028,26z M25.029,24H15.028c0.077-1.782,0.355-3.476,0.795-5h9.904
	C25.334,20.541,25.097,22.225,25.029,24z M27,25c0-7.047,3.206-13,7-13h0.462C31.776,14.568,30,19.37,30,25s1.776,10.432,4.462,13
	H34C30.206,38,27,32.047,27,25z M2,25c0-5.101,0.004-5.617,7.245-9.989C7.846,17.646,7,21.124,7,25c0,3.876,0.846,7.353,2.245,9.989
	C2.005,30.615,2,30.096,2,25z M39,38c-3.794,0-7-5.953-7-13s3.206-13,7-13s7,5.953,7,13S42.794,38,39,38z"/>
</svg>
