<?xml version="1.0" encoding="utf-8"?>
<!-- Generator: Adobe Illustrator 17.0.0, SVG Export Plug-In . SVG Version: 6.00 Build 0)  -->
<!DOCTYPE svg PUBLIC "-//W3C//DTD SVG 1.1//EN" "http://www.w3.org/Graphics/SVG/1.1/DTD/svg11.dtd">
<svg version="1.1" id="Layer_1" xmlns="http://www.w3.org/2000/svg" xmlns:xlink="http://www.w3.org/1999/xlink" x="0px" y="0px"
	 width="48px" height="48px" viewBox="0 0 48 48" enable-background="new 0 0 48 48" xml:space="preserve">
<g>
	<path fill="#231F20" d="M22,12v-2h3V6c0-1.103-0.898-2-2-2H2C0.897,4,0,4.897,0,6v4h2v28H0v4c0,1.103,0.897,2,2,2h21
		c1.102,0,2-0.897,2-2v-4h-3v-2h17v-5c0-2.206,1.794-4,4-4h5V12H22z M2,6h21v2h-1H2V6z M23,40l0.001,2H2v-2h20H23z M20,38H4V10h16v2
		v24V38z M46,25h-3c-3.309,0-6,2.691-6,6v3H22V14h24V25z"/>
	<rect x="24" y="15" fill="#231F20" width="2" height="4"/>
	<rect x="28" y="15" fill="#231F20" width="2" height="4"/>
	<rect x="32" y="15" fill="#231F20" width="2" height="4"/>
	<rect x="24" y="29" fill="#231F20" width="2" height="4"/>
	<rect x="28" y="29" fill="#231F20" width="2" height="4"/>
	<rect x="32" y="29" fill="#231F20" width="2" height="4"/>
	<rect x="36" y="15" fill="#231F20" width="2" height="4"/>
	<rect x="40" y="15" fill="#231F20" width="2" height="4"/>
</g>
</svg>
