<?xml version="1.0" encoding="utf-8"?>
<!-- Generator: Adobe Illustrator 17.0.0, SVG Export Plug-In . SVG Version: 6.00 Build 0)  -->
<!DOCTYPE svg PUBLIC "-//W3C//DTD SVG 1.1//EN" "http://www.w3.org/Graphics/SVG/1.1/DTD/svg11.dtd">
<svg version="1.1" id="Layer_1" xmlns="http://www.w3.org/2000/svg" xmlns:xlink="http://www.w3.org/1999/xlink" x="0px" y="0px"
	 width="48px" height="48px" viewBox="0 0 48 48" enable-background="new 0 0 48 48" xml:space="preserve">
<g>
	<path fill="#231F20" d="M0,0v48h48V0H0z M46,2v32h-1.383l-6.797-13.593C37.078,18.922,35.586,18,33.926,18
		c-1.542,0-2.984,0.827-3.761,2.16l-5.275,9.044C23.336,27.328,20.015,24,16,24c-4.931,0-8.622,7.602-9.663,10H2V2H46z M42.381,34
		H8.536c1.454-3.064,4.433-8,7.464-8c4.398,0,8.131,5.5,8.169,5.556c0.192,0.286,0.532,0.458,0.862,0.443
		c0.344-0.011,0.659-0.197,0.833-0.495l6.029-10.336c0.421-0.72,1.2-1.168,2.034-1.168c0.897,0,1.704,0.499,2.105,1.301L42.381,34z
		 M2,46V36h44v10H2z"/>
	<path fill="#231F20" d="M13,18h6c3.309,0,6-2.691,6-6s-2.691-6-6-6c-2.594,0-4.825,1.637-5.648,4.016C11.023,9.8,9,11.677,9,14
		C9,16.206,10.794,18,13,18z M13,12c0.235,0,0.477,0.047,0.717,0.141l1.154,0.449l0.196-1.223C15.379,9.416,17.033,8,19,8
		c2.206,0,4,1.794,4,4s-1.794,4-4,4h-6c-1.103,0-2-0.897-2-2S11.897,12,13,12z"/>
</g>
</svg>
