<?xml version="1.0" encoding="utf-8"?>
<!-- Generator: Adobe Illustrator 17.0.0, SVG Export Plug-In . SVG Version: 6.00 Build 0)  -->
<!DOCTYPE svg PUBLIC "-//W3C//DTD SVG 1.1//EN" "http://www.w3.org/Graphics/SVG/1.1/DTD/svg11.dtd">
<svg version="1.1" id="Layer_1" xmlns="http://www.w3.org/2000/svg" xmlns:xlink="http://www.w3.org/1999/xlink" x="0px" y="0px"
	 width="48px" height="48px" viewBox="0 0 48 48" enable-background="new 0 0 48 48" xml:space="preserve">
<g>
	<path fill="#231F20" d="M38,2H2v36h36V2z M36,4v26h-4.323l-5.749-14.372c-0.149-0.372-0.505-0.619-0.905-0.628
		c-0.385-0.03-0.769,0.221-0.934,0.586l-4.341,9.55l-3.98-4.776c-0.208-0.249-0.527-0.379-0.846-0.357
		c-0.323,0.025-0.613,0.206-0.78,0.483L8.434,30H4V4H36z M29.523,30H10.766l4.367-7.278l4.099,4.918
		c0.219,0.264,0.558,0.396,0.902,0.351c0.34-0.047,0.633-0.265,0.776-0.578l4.031-8.868L29.523,30z M4,36v-4h32v4H4z"/>
	<path fill="#231F20" d="M41.109,13.765c-0.558-0.047-1.036,0.355-1.087,0.905c-0.05,0.55,0.355,1.037,0.905,1.087l2.987,0.273
		L41.37,43.914l-28.88-2.635c-0.561-0.041-1.036,0.355-1.087,0.905c-0.05,0.55,0.355,1.037,0.905,1.087l30.872,2.816l2.908-31.868
		L41.109,13.765z"/>
	<path fill="#231F20" d="M12,16c2.206,0,4-1.794,4-4s-1.794-4-4-4s-4,1.794-4,4S9.794,16,12,16z M12,10c1.102,0,2,0.897,2,2
		s-0.898,2-2,2c-1.103,0-2-0.897-2-2S10.897,10,12,10z"/>
</g>
</svg>
