<?xml version="1.0" encoding="utf-8"?>
<!-- Generator: Adobe Illustrator 17.0.0, SVG Export Plug-In . SVG Version: 6.00 Build 0)  -->
<!DOCTYPE svg PUBLIC "-//W3C//DTD SVG 1.1//EN" "http://www.w3.org/Graphics/SVG/1.1/DTD/svg11.dtd">
<svg version="1.1" id="Layer_1" xmlns="http://www.w3.org/2000/svg" xmlns:xlink="http://www.w3.org/1999/xlink" x="0px" y="0px"
	 width="48px" height="48px" viewBox="0 0 48 48" enable-background="new 0 0 48 48" xml:space="preserve">
<g>
	<path fill="#231F20" d="M24,17.635c-3.559,0-6.455,2.896-6.455,6.455c0,3.559,2.896,6.455,6.455,6.455s6.455-2.896,6.455-6.455
		C30.455,20.531,27.559,17.635,24,17.635z M24,28.546c-2.457,0-4.455-1.999-4.455-4.455s1.999-4.455,4.455-4.455
		s4.455,1.999,4.455,4.455S26.456,28.546,24,28.546z"/>
	<path fill="#231F20" d="M38,14.364h-5.95l-4.071-4.071C27.792,10.106,27.537,10,27.272,10h-6.545c-0.265,0-0.519,0.106-0.707,0.293
		l-4.071,4.071H10c-2.206,0-4,1.794-4,4V32c0,2.206,1.794,4,4,4h28c2.206,0,4-1.794,4-4V18.364C42,16.158,40.206,14.364,38,14.364z
		 M40,32c0,1.103-0.897,2-2,2H10c-1.103,0-2-0.897-2-2V18.364c0-1.103,0.897-2,2-2h6.362c0.001,0,0.001,0,0.002,0h0
		c0,0,0.001,0,0.001,0c0.129,0,0.258-0.026,0.38-0.077c0.124-0.051,0.235-0.126,0.328-0.219L21.141,12h5.717l4.071,4.071
		c0.092,0.092,0.203,0.165,0.325,0.216c0.122,0.051,0.252,0.077,0.382,0.077H38c1.103,0,2,0.897,2,2V32z"/>
	<circle fill="#231F20" cx="36" cy="20.819" r="1.091"/>
	<path fill="#231F20" d="M39,0H9C4.038,0,0,4.038,0,9v30c0,4.962,4.038,9,9,9h30c4.962,0,9-4.038,9-9V9C48,4.038,43.962,0,39,0z
		 M46,39c0,3.86-3.14,7-7,7H9c-3.86,0-7-3.14-7-7V9c0-3.86,3.14-7,7-7h30c3.86,0,7,3.14,7,7V39z"/>
</g>
</svg>
