<?xml version="1.0" encoding="utf-8"?>
<!-- Generator: Adobe Illustrator 17.0.0, SVG Export Plug-In . SVG Version: 6.00 Build 0)  -->
<!DOCTYPE svg PUBLIC "-//W3C//DTD SVG 1.1//EN" "http://www.w3.org/Graphics/SVG/1.1/DTD/svg11.dtd">
<svg version="1.1" id="Layer_1" xmlns="http://www.w3.org/2000/svg" xmlns:xlink="http://www.w3.org/1999/xlink" x="0px" y="0px"
	 width="48px" height="48px" viewBox="0 0 48 48" enable-background="new 0 0 48 48" xml:space="preserve">
<g>
	<path fill="#231F20" d="M23,18c-3.309,0-6,2.691-6,6s2.691,6,6,6s6-2.691,6-6S26.309,18,23,18z M23,28c-2.206,0-4-1.794-4-4
		s1.794-4,4-4s4,1.794,4,4S25.206,28,23,28z"/>
	<path fill="#231F20" d="M35,16h-4.586l-3.707-3.707C26.519,12.106,26.265,12,26,12h-6c-0.265,0-0.52,0.106-0.707,0.293L15.586,16
		H11c-2.206,0-4,1.794-4,4v10c0,2.206,1.794,4,4,4h24c2.206,0,4-1.794,4-4V20C39,17.794,37.206,16,35,16z M37,30
		c0,1.103-0.897,2-2,2H11c-1.103,0-2-0.897-2-2V20c0-1.103,0.897-2,2-2h4.999c0.131,0,0.261-0.026,0.384-0.077
		c0.122-0.051,0.232-0.124,0.325-0.216L20.414,14h5.172l3.707,3.707c0.092,0.092,0.203,0.165,0.325,0.216
		C29.74,17.973,29.87,18,30,18h5c1.103,0,2,0.897,2,2V30z"/>
	<circle fill="#231F20" cx="34" cy="20" r="1"/>
	<path fill="#231F20" d="M23,0C9.767,0-1,10.767-1,24S9.767,48,23,48c13.233,0,24-10.767,24-24S36.233,0,23,0z M23,46
		C10.869,46,1,36.131,1,24S10.869,2,23,2s22,9.869,22,22S35.131,46,23,46z"/>
</g>
</svg>
