<?xml version="1.0" encoding="utf-8"?>
<!-- Generator: Adobe Illustrator 17.0.0, SVG Export Plug-In . SVG Version: 6.00 Build 0)  -->
<!DOCTYPE svg PUBLIC "-//W3C//DTD SVG 1.1//EN" "http://www.w3.org/Graphics/SVG/1.1/DTD/svg11.dtd">
<svg version="1.1" id="Layer_1" xmlns="http://www.w3.org/2000/svg" xmlns:xlink="http://www.w3.org/1999/xlink" x="0px" y="0px"
	 width="48px" height="48px" viewBox="0 0 48 48" enable-background="new 0 0 48 48" xml:space="preserve">
<g>
	<path fill="#231F20" d="M42.499,39.246L31,35.35v-5.924c3.592-2.837,5.801-7.61,5.801-12.901c0-0.981-0.086-1.937-0.234-2.868
		c-0.001-0.02,0.007-0.038,0.005-0.058c-0.003-0.022-0.016-0.039-0.02-0.06C35.373,6.404,30.06,1,23.696,1
		c-4.636,0-8.971,2.943-11.314,7.679c-0.245,0.495-0.042,1.095,0.453,1.34c0.495,0.244,1.095,0.041,1.34-0.453
		C16.178,5.516,19.826,3,23.696,3c5.068,0,9.343,4.159,10.671,9.819c-3.607,0.684-5.836-0.495-7.949-4.192l-0.908-1.59L24.663,8.66
		c-0.408,0.784-1.174,1.56-2.215,2.246c-0.461,0.303-0.589,0.924-0.285,1.385c0.303,0.461,0.925,0.59,1.385,0.285
		c0.766-0.505,1.424-1.064,1.951-1.655C27.42,13.689,29.687,15,32.588,15c0.667,0,1.372-0.073,2.112-0.212
		c0.06,0.57,0.102,1.147,0.102,1.737c0,5.572-2.875,10.653-7.155,12.644c-0.501,0.233-0.718,0.828-0.485,1.329
		c0.169,0.364,0.53,0.578,0.907,0.578c0.141,0,0.284-0.03,0.421-0.093c0.174-0.081,0.34-0.175,0.51-0.264v6.064l12.843,4.352
		c2.165,0.773,3.712,2.66,4.075,4.865H2.081c0.364-2.206,1.908-4.092,4.059-4.859L19,36.783V34c0-0.552-0.448-1-1-1s-1,0.448-1,1
		v1.35L5.483,39.252C2.204,40.421,0,43.536,0,47v1h48v-1C48,43.536,45.795,40.422,42.499,39.246z"/>
	<path fill="#231F20" d="M3,32h20c1.654,0,3-1.346,3-3V17c0-1.654-1.346-3-3-3h-2.382l-0.17-0.342
		C19.936,12.635,18.907,12,17.764,12h-4.528c-1.144,0-2.172,0.635-2.683,1.658L10.382,14H6v-2H3v2c-1.654,0-3,1.346-3,3v12
		C0,30.654,1.346,32,3,32z M2,17c0-0.551,0.449-1,1-1h8c0.379,0,0.725-0.214,0.895-0.552l0.447-0.895
		C12.512,14.212,12.855,14,13.236,14h4.528c0.381,0,0.724,0.212,0.894,0.552l0.447,0.895C19.275,15.786,19.621,16,20,16h3
		c0.551,0,1,0.449,1,1v12c0,0.551-0.449,1-1,1H3c-0.551,0-1-0.449-1-1V17z"/>
	<path fill="#231F20" d="M15,27c2.757,0,5-2.243,5-5s-2.243-5-5-5s-5,2.243-5,5S12.243,27,15,27z M15,19c1.654,0,3,1.346,3,3
		s-1.346,3-3,3s-3-1.346-3-3S13.346,19,15,19z"/>
</g>
</svg>
