<?xml version="1.0" encoding="utf-8"?>
<!-- Generator: Adobe Illustrator 17.0.0, SVG Export Plug-In . SVG Version: 6.00 Build 0)  -->
<!DOCTYPE svg PUBLIC "-//W3C//DTD SVG 1.1//EN" "http://www.w3.org/Graphics/SVG/1.1/DTD/svg11.dtd">
<svg version="1.1" id="Layer_1" xmlns="http://www.w3.org/2000/svg" xmlns:xlink="http://www.w3.org/1999/xlink" x="0px" y="0px"
	 width="48px" height="48px" viewBox="0 0 48 48" enable-background="new 0 0 48 48" xml:space="preserve">
<path fill="#231F20" d="M32,0H16c-4.411,0-8,3.589-8,8v39c0,0.404,0.243,0.769,0.617,0.924c0.374,0.154,0.804,0.069,1.09-0.217
	L19,38.414l9.293,9.293C28.484,47.898,28.74,48,29,48c0.129,0,0.259-0.025,0.383-0.076C29.757,47.769,30,47.404,30,47V14h9
	c0.553,0,1-0.448,1-1V8C40,3.589,36.411,0,32,0z M38,12h-8V9c0-1.654,1.346-3,3-3c0.553,0,1-0.448,1-1s-0.447-1-1-1
	c-2.757,0-5,2.243-5,5v35.586l-8.293-8.293C19.512,36.098,19.256,36,19,36s-0.512,0.098-0.707,0.293L10,44.586V8
	c0-3.309,2.691-6,6-6h16c3.309,0,6,2.691,6,6V12z"/>
</svg>
