<?xml version="1.0" encoding="utf-8"?>
<!-- Generator: Adobe Illustrator 17.0.0, SVG Export Plug-In . SVG Version: 6.00 Build 0)  -->
<!DOCTYPE svg PUBLIC "-//W3C//DTD SVG 1.1//EN" "http://www.w3.org/Graphics/SVG/1.1/DTD/svg11.dtd">
<svg version="1.1" id="Layer_1" xmlns="http://www.w3.org/2000/svg" xmlns:xlink="http://www.w3.org/1999/xlink" x="0px" y="0px"
	 width="48px" height="48px" viewBox="0 0 48 48" enable-background="new 0 0 48 48" xml:space="preserve">
<g>
	<path fill="#231F20" d="M47,2H24V1c0-0.552-0.447-1-1-1H7C6.447,0,6,0.448,6,1v1H1C0.447,2,0,2.448,0,3v44c0,0.552,0.447,1,1,1h46
		c0.553,0,1-0.448,1-1V3C48,2.448,47.553,2,47,2z M8,2h14v22.586l-6.293-6.293C15.512,18.098,15.256,18,15,18
		s-0.512,0.098-0.707,0.293L8,24.586V2z M46,46H2V4h4v23c0,0.404,0.243,0.769,0.617,0.924c0.374,0.154,0.804,0.07,1.09-0.217
		L15,20.414l7.293,7.293C22.484,27.898,22.74,28,23,28c0.129,0,0.259-0.025,0.383-0.076C23.757,27.769,24,27.404,24,27V4h22V46z"/>
	<path fill="#231F20" d="M29,16h12c0.553,0,1-0.448,1-1s-0.447-1-1-1H29c-0.553,0-1,0.448-1,1S28.447,16,29,16z"/>
	<path fill="#231F20" d="M29,22h12c0.553,0,1-0.448,1-1s-0.447-1-1-1H29c-0.553,0-1,0.448-1,1S28.447,22,29,22z"/>
	<path fill="#231F20" d="M41,26H29c-0.553,0-1,0.448-1,1s0.447,1,1,1h12c0.553,0,1-0.448,1-1S41.553,26,41,26z"/>
	<path fill="#231F20" d="M41,32H7c-0.553,0-1,0.448-1,1s0.447,1,1,1h34c0.553,0,1-0.448,1-1S41.553,32,41,32z"/>
	<path fill="#231F20" d="M33,38H7c-0.553,0-1,0.448-1,1s0.447,1,1,1h26c0.553,0,1-0.448,1-1S33.553,38,33,38z"/>
</g>
</svg>
