<?xml version="1.0" encoding="utf-8"?>
<!-- Generator: Adobe Illustrator 17.0.0, SVG Export Plug-In . SVG Version: 6.00 Build 0)  -->
<!DOCTYPE svg PUBLIC "-//W3C//DTD SVG 1.1//EN" "http://www.w3.org/Graphics/SVG/1.1/DTD/svg11.dtd">
<svg version="1.1" id="Layer_1" xmlns="http://www.w3.org/2000/svg" xmlns:xlink="http://www.w3.org/1999/xlink" x="0px" y="0px"
	 width="48px" height="48px" viewBox="0 0 48 48" enable-background="new 0 0 48 48" xml:space="preserve">
<g>
	<path fill="#231F20" d="M47.707,29.323L18.692,0.308c-0.187-0.188-0.441-0.293-0.706-0.293L1.001,0H1
		C0.735,0,0.48,0.106,0.293,0.293C0.105,0.481,0,0.735,0,1.001l0.016,16.985c0.001,0.265,0.105,0.519,0.293,0.706l29.013,29.015
		c0.19,0.19,0.445,0.293,0.707,0.293c0.081,0,0.162-0.01,0.243-0.03c0.34-0.085,0.611-0.342,0.714-0.678l3.815-12.491l12.491-3.815
		c0.336-0.102,0.593-0.374,0.678-0.714C48.055,29.931,47.956,29.571,47.707,29.323z M33.708,33.044
		c-0.319,0.097-0.568,0.346-0.665,0.664l-3.484,11.408L2.015,17.571L2.001,2.001l15.57,0.013L45.116,29.56L33.708,33.044z"/>
	<path fill="#231F20" d="M11,6c-2.757,0-5,2.243-5,5s2.243,5,5,5s5-2.243,5-5S13.757,6,11,6z M11,14c-1.654,0-3-1.346-3-3
		s1.346-3,3-3s3,1.346,3,3S12.654,14,11,14z"/>
</g>
</svg>
