<?xml version="1.0" encoding="utf-8"?>
<!-- Generator: Adobe Illustrator 17.0.0, SVG Export Plug-In . SVG Version: 6.00 Build 0)  -->
<!DOCTYPE svg PUBLIC "-//W3C//DTD SVG 1.1//EN" "http://www.w3.org/Graphics/SVG/1.1/DTD/svg11.dtd">
<svg version="1.1" id="Layer_1" xmlns="http://www.w3.org/2000/svg" xmlns:xlink="http://www.w3.org/1999/xlink" x="0px" y="0px"
	 width="48px" height="48px" viewBox="0 0 48 48" enable-background="new 0 0 48 48" xml:space="preserve">
<g>
	<path fill="#231F20" d="M37,26c-6.065,0-11,4.935-11,11s4.935,11,11,11s11-4.935,11-11S43.065,26,37,26z M37,46
		c-4.962,0-9-4.038-9-9s4.038-9,9-9s9,4.038,9,9S41.962,46,37,46z"/>
	<path fill="#231F20" d="M42,36H32c-0.552,0-1,0.448-1,1s0.448,1,1,1h10c0.552,0,1-0.448,1-1S42.552,36,42,36z"/>
	<path fill="#231F20" d="M39,13V1c0-0.266-0.106-0.52-0.294-0.707C38.519,0.105,38.265,0,38,0h-0.002L25.483,0.016
		c-0.265,0.001-0.519,0.105-0.706,0.293L0.293,24.793c-0.391,0.391-0.391,1.023,0,1.414l12.5,12.501
		c0.187,0.187,0.442,0.293,0.707,0.293c0.001,0,0.003,0,0.004-0.001c0.268-0.001,0.523-0.109,0.71-0.3l24.5-25
		C38.897,13.513,39,13.262,39,13z M37,12.592L13.493,36.579L2.414,25.5L25.899,2.015L37,2.002V12.592z"/>
	<path fill="#231F20" d="M31,12c2.206,0,4-1.794,4-4s-1.794-4-4-4s-4,1.794-4,4S28.794,12,31,12z M31,6c1.103,0,2,0.897,2,2
		s-0.897,2-2,2s-2-0.897-2-2S29.897,6,31,6z"/>
</g>
</svg>
