<?xml version="1.0" encoding="utf-8"?>
<!-- Generator: Adobe Illustrator 17.0.0, SVG Export Plug-In . SVG Version: 6.00 Build 0)  -->
<!DOCTYPE svg PUBLIC "-//W3C//DTD SVG 1.1//EN" "http://www.w3.org/Graphics/SVG/1.1/DTD/svg11.dtd">
<svg version="1.1" id="Layer_1" xmlns="http://www.w3.org/2000/svg" xmlns:xlink="http://www.w3.org/1999/xlink" x="0px" y="0px"
	 width="48px" height="48px" viewBox="0 0 48 48" enable-background="new 0 0 48 48" xml:space="preserve">
<g>
	<path fill="#231F20" d="M15.707,4.293C15.519,4.106,15.266,4,15,4H1C0.447,4,0,4.448,0,5v14c0,0.265,0.105,0.52,0.293,0.707l28,28
		C28.482,47.897,28.737,48,29,48c0.066,0,0.134-0.007,0.2-0.02c0.33-0.067,0.603-0.296,0.728-0.608l3.841-9.602l9.602-3.841
		c0.312-0.125,0.541-0.399,0.608-0.728c0.068-0.329-0.035-0.67-0.272-0.908L15.707,4.293z M32.629,36.072
		c-0.255,0.102-0.456,0.303-0.558,0.557l-3.436,8.592L2,18.586V6h12.586l26.635,26.635L32.629,36.072z"/>
	<path fill="#231F20" d="M47.707,26.293l-26-26C21.519,0.106,21.266,0,21,0H7C6.447,0,6,0.448,6,1s0.447,1,1,1h13.586l24.563,24.564
		l-1.465,0.488c-0.524,0.175-0.807,0.741-0.632,1.265c0.139,0.419,0.529,0.684,0.948,0.684c0.104,0,0.211-0.017,0.317-0.052l3-1
		c0.329-0.11,0.577-0.382,0.657-0.719C48.053,26.893,47.952,26.538,47.707,26.293z"/>
	<path fill="#231F20" d="M10,10c-2.206,0-4,1.794-4,4s1.794,4,4,4s4-1.794,4-4S12.206,10,10,10z M10,16c-1.103,0-2-0.897-2-2
		s0.897-2,2-2c1.102,0,2,0.897,2,2S11.102,16,10,16z"/>
</g>
</svg>
