<?xml version="1.0" encoding="utf-8"?>
<!-- Generator: Adobe Illustrator 17.0.0, SVG Export Plug-In . SVG Version: 6.00 Build 0)  -->
<!DOCTYPE svg PUBLIC "-//W3C//DTD SVG 1.1//EN" "http://www.w3.org/Graphics/SVG/1.1/DTD/svg11.dtd">
<svg version="1.1" xmlns="http://www.w3.org/2000/svg" xmlns:xlink="http://www.w3.org/1999/xlink" x="0px" y="0px" width="48px"
	 height="48px" viewBox="0 0 48 48" enable-background="new 0 0 48 48" xml:space="preserve">
<g id="Layer_3">
	<g>
		<path fill="#010101" d="M16.156,29.537c-0.184-0.288-0.207-0.65-0.062-0.96L22.896,14H1c-0.553,0-1,0.448-1,1v22
			c0,0.552,0.447,1,1,1h22v-8h-6C16.658,30,16.34,29.826,16.156,29.537z"/>
		<path fill="#010101" d="M47,20h-5v-5c0-0.552-0.447-1-1-1H25v8h6c0.342,0,0.66,0.174,0.844,0.463
			c0.183,0.288,0.207,0.65,0.062,0.96L25.103,38H41c0.553,0,1-0.448,1-1v-5h5c0.553,0,1-0.448,1-1V21C48,20.448,47.553,20,47,20z"/>
	</g>
</g>
<g id="nyt_x5F_exporter_x5F_info" display="none">
</g>
</svg>
