<?xml version="1.0" encoding="utf-8"?>
<!-- Generator: Adobe Illustrator 17.0.0, SVG Export Plug-In . SVG Version: 6.00 Build 0)  -->
<!DOCTYPE svg PUBLIC "-//W3C//DTD SVG 1.1//EN" "http://www.w3.org/Graphics/SVG/1.1/DTD/svg11.dtd">
<svg version="1.1" xmlns="http://www.w3.org/2000/svg" xmlns:xlink="http://www.w3.org/1999/xlink" x="0px" y="0px" width="48px"
	 height="48px" viewBox="0 0 48 48" enable-background="new 0 0 48 48" xml:space="preserve">
<g id="Layer_3">
	<path fill="#010101" d="M47,20h-5v-5c0-0.552-0.447-1-1-1H1c-0.553,0-1,0.448-1,1v22c0,0.552,0.447,1,1,1h40c0.553,0,1-0.448,1-1
		v-5h5c0.553,0,1-0.448,1-1V21C48,20.448,47.553,20,47,20z M11,34H5c-0.553,0-1-0.448-1-1V19c0-0.552,0.447-1,1-1h6V34z M13,34V18h7
		v15.834c0,0.059,0.024,0.11,0.034,0.166H13z M29,20v12v2h-7.034C21.976,33.944,22,33.893,22,33.834V18h7V20z"/>
</g>
<g id="nyt_x5F_exporter_x5F_info" display="none">
</g>
</svg>
