<?xml version="1.0" encoding="utf-8"?>
<!-- Generator: Adobe Illustrator 17.0.0, SVG Export Plug-In . SVG Version: 6.00 Build 0)  -->
<!DOCTYPE svg PUBLIC "-//W3C//DTD SVG 1.1//EN" "http://www.w3.org/Graphics/SVG/1.1/DTD/svg11.dtd">
<svg version="1.1" xmlns="http://www.w3.org/2000/svg" xmlns:xlink="http://www.w3.org/1999/xlink" x="0px" y="0px" width="48px"
	 height="48px" viewBox="0 0 48 48" enable-background="new 0 0 48 48" xml:space="preserve">
<g id="Layer_3">
	<g>
		<path fill="#010101" d="M47,25c0.553,0,1-0.448,1-1c0-0.552-0.447-1-1-1h-7v-7h7c0.553,0,1-0.448,1-1c0-0.552-0.447-1-1-1h-7v-3
			c0-1.654-1.346-3-3-3h-3V1c0-0.552-0.447-1-1-1c-0.553,0-1,0.448-1,1v7h-7V1c0-0.552-0.447-1-1-1c-0.553,0-1,0.448-1,1v7h-7V1
			c0-0.552-0.447-1-1-1c-0.553,0-1,0.448-1,1v7h-3c-1.654,0-3,1.346-3,3v3H1c-0.553,0-1,0.448-1,1c0,0.552,0.447,1,1,1h7v7H1
			c-0.553,0-1,0.448-1,1c0,0.552,0.447,1,1,1h7v7H1c-0.553,0-1,0.448-1,1c0,0.552,0.447,1,1,1h7v3c0,1.654,1.346,3,3,3h3v7
			c0,0.552,0.447,1,1,1c0.553,0,1-0.448,1-1v-7h7v7c0,0.552,0.447,1,1,1c0.553,0,1-0.448,1-1v-7h7v7c0,0.552,0.447,1,1,1
			c0.553,0,1-0.448,1-1v-7h3c1.654,0,3-1.346,3-3v-3h7c0.553,0,1-0.448,1-1c0-0.552-0.447-1-1-1h-7v-7H47z M36,31
			c0,2.757-2.243,5-5,5H17c-2.757,0-5-2.243-5-5V17c0-2.757,2.243-5,5-5h14c2.757,0,5,2.243,5,5V31z"/>
		<path fill="#010101" d="M19,20h8c0.553,0,1-0.448,1-1c0-0.552-0.447-1-1-1h-8c-0.553,0-1,0.448-1,1C18,19.552,18.447,20,19,20z"/>
		<path fill="#010101" d="M23,22h-4c-0.553,0-1,0.448-1,1c0,0.552,0.447,1,1,1h4c0.553,0,1-0.448,1-1C24,22.448,23.553,22,23,22z"/>
		<path fill="#010101" d="M29,28h-4c-0.553,0-1,0.448-1,1c0,0.552,0.447,1,1,1h4c0.553,0,1-0.448,1-1C30,28.448,29.553,28,29,28z"/>
	</g>
</g>
<g id="nyt_x5F_exporter_x5F_info" display="none">
</g>
</svg>
