<?xml version="1.0" encoding="utf-8"?>
<!-- Generator: Adobe Illustrator 17.0.0, SVG Export Plug-In . SVG Version: 6.00 Build 0)  -->
<!DOCTYPE svg PUBLIC "-//W3C//DTD SVG 1.1//EN" "http://www.w3.org/Graphics/SVG/1.1/DTD/svg11.dtd">
<svg version="1.1" xmlns="http://www.w3.org/2000/svg" xmlns:xlink="http://www.w3.org/1999/xlink" x="0px" y="0px" width="48px"
	 height="48px" viewBox="0 0 48 48" enable-background="new 0 0 48 48" xml:space="preserve">
<g id="Layer_3">
	<g>
		<path fill="#010101" d="M47,0H1C0.447,0,0,0.448,0,1v46c0,0.552,0.447,1,1,1h46c0.553,0,1-0.448,1-1V1C48,0.448,47.553,0,47,0z
			 M24,42c-9.925,0-18-8.075-18-18c0-9.925,8.075-18,18-18c9.925,0,18,8.075,18,18C42,33.925,33.925,42,24,42z"/>
		<path fill="#010101" d="M24,18c-3.309,0-6,2.691-6,6c0,3.309,2.691,6,6,6c3.309,0,6-2.691,6-6C30,20.691,27.309,18,24,18z M24,28
			c-2.206,0-4-1.794-4-4c0-2.206,1.794-4,4-4c2.206,0,4,1.794,4,4C28,26.206,26.206,28,24,28z"/>
		<circle fill="#010101" cx="24" cy="24" r="2"/>
		<path fill="#010101" d="M24,12c-0.553,0-1,0.448-1,1c0,0.552,0.447,1,1,1c5.514,0,10,4.486,10,10c0,0.552,0.447,1,1,1
			c0.553,0,1-0.448,1-1C36,17.383,30.617,12,24,12z"/>
		<path fill="#010101" d="M24,34c-5.514,0-10-4.486-10-10c0-0.552-0.447-1-1-1c-0.553,0-1,0.448-1,1c0,6.617,5.383,12,12,12
			c0.553,0,1-0.448,1-1C25,34.448,24.553,34,24,34z"/>
		<path fill="#010101" d="M24,8c-0.553,0-1,0.448-1,1c0,0.552,0.447,1,1,1c7.72,0,14,6.28,14,14c0,0.552,0.447,1,1,1
			c0.553,0,1-0.448,1-1C40,15.178,32.822,8,24,8z"/>
		<path fill="#010101" d="M24,38c-7.72,0-14-6.28-14-14c0-0.552-0.447-1-1-1c-0.553,0-1,0.448-1,1c0,8.822,7.178,16,16,16
			c0.553,0,1-0.448,1-1C25,38.448,24.553,38,24,38z"/>
	</g>
</g>
<g id="nyt_x5F_exporter_x5F_info" display="none">
</g>
</svg>
