<?xml version="1.0" encoding="utf-8"?>
<!-- Generator: Adobe Illustrator 17.1.0, SVG Export Plug-In . SVG Version: 6.00 Build 0)  -->
<!DOCTYPE svg PUBLIC "-//W3C//DTD SVG 1.0//EN" "http://www.w3.org/TR/2001/REC-SVG-20010904/DTD/svg10.dtd">
<svg version="1.0" id="Layer_1" xmlns="http://www.w3.org/2000/svg" xmlns:xlink="http://www.w3.org/1999/xlink" x="0px" y="0px"
	 width="48px" height="48px" viewBox="0 0 48 48" enable-background="new 0 0 48 48" xml:space="preserve">
<g>
	<path d="M47,0H7C6.734,0,6.48,0.105,6.293,0.293l-6,6C0.105,6.481,0,6.735,0,7v40c0,0.552,0.447,1,1,1h46c0.553,0,1-0.448,1-1V1
		C48,0.448,47.553,0,47,0z M40,45c0,0.552-0.447,1-1,1H9c-0.553,0-1-0.448-1-1v-4c0-0.552,0.447-1,1-1h30c0.553,0,1,0.448,1,1V45z
		 M17,23c0-3.86,3.141-7,7-7s7,3.14,7,7s-3.141,7-7,7S17,26.86,17,23z M39,38H29c-0.553,0-1-0.448-1-1s0.447-1,1-1h10
		c0.553,0,1,0.448,1,1S39.553,38,39,38z M40,11c0,0.552-0.447,1-1,1H9c-0.553,0-1-0.448-1-1V3c0-0.552,0.447-1,1-1h30
		c0.553,0,1,0.448,1,1V11z"/>
	<path d="M20,20c-0.553,0-1,0.448-1,1v4c0,0.552,0.447,1,1,1s1-0.448,1-1v-4C21,20.448,20.553,20,20,20z"/>
	<circle cx="24" cy="23" r="1"/>
</g>
</svg>
