<?xml version="1.0" encoding="utf-8"?>
<!-- Generator: Adobe Illustrator 17.0.0, SVG Export Plug-In . SVG Version: 6.00 Build 0)  -->
<!DOCTYPE svg PUBLIC "-//W3C//DTD SVG 1.1//EN" "http://www.w3.org/Graphics/SVG/1.1/DTD/svg11.dtd">
<svg version="1.1" xmlns="http://www.w3.org/2000/svg" xmlns:xlink="http://www.w3.org/1999/xlink" x="0px" y="0px" width="48px"
	 height="48px" viewBox="0 0 48 48" enable-background="new 0 0 48 48" xml:space="preserve">
<g id="Layer_3">
	<g>
		<path fill="#010101" d="M2,36H0v3.823C0,42.127,1.794,44,4,44h19v2H10c-0.553,0-1,0.448-1,1c0,0.552,0.447,1,1,1h28
			c0.553,0,1-0.448,1-1c0-0.552-0.447-1-1-1H25v-2h19c2.206,0,4-1.873,4-4.177V36h-2H2z M24,37c1.103,0,2,0.897,2,2s-0.897,2-2,2
			s-2-0.897-2-2S22.897,37,24,37z"/>
		<path fill="#010101" d="M44,6H4c-2.206,0-4,1.874-4,4.177V34h2h44h2V10.177C48,7.874,46.206,6,44,6z"/>
	</g>
</g>
<g id="nyt_x5F_exporter_x5F_info" display="none">
</g>
</svg>
