<?xml version="1.0" encoding="utf-8"?>
<!-- Generator: Adobe Illustrator 17.0.0, SVG Export Plug-In . SVG Version: 6.00 Build 0)  -->
<!DOCTYPE svg PUBLIC "-//W3C//DTD SVG 1.1//EN" "http://www.w3.org/Graphics/SVG/1.1/DTD/svg11.dtd">
<svg version="1.1" xmlns="http://www.w3.org/2000/svg" xmlns:xlink="http://www.w3.org/1999/xlink" x="0px" y="0px" width="48px"
	 height="48px" viewBox="0 0 48 48" enable-background="new 0 0 48 48" xml:space="preserve">
<g id="Layer_3">
	<path fill="#010101" d="M35,0H9C6.243,0,4,2.243,4,5v38c0,2.757,2.243,5,5,5h26c2.757,0,5-2.243,5-5V5C40,2.243,37.757,0,35,0z
		 M22,3c0.553,0,1,0.447,1,1c0,0.552-0.447,1-1,1c-0.553,0-1-0.448-1-1C21,3.447,21.447,3,22,3z M22,45c-1.106,0-2-0.896-2-2
		c0-1.105,0.894-2,2-2c1.103,0,2,0.895,2,2C24,44.104,23.103,45,22,45z M36,39c0,0.552-0.447,1-1,1H9c-0.553,0-1-0.448-1-1V7
		c0-0.552,0.447-1,1-1h26c0.553,0,1,0.448,1,1V39z"/>
</g>
<g id="nyt_x5F_exporter_x5F_info" display="none">
</g>
</svg>
