<?xml version="1.0" encoding="utf-8"?>
<!-- Generator: Adobe Illustrator 17.0.0, SVG Export Plug-In . SVG Version: 6.00 Build 0)  -->
<!DOCTYPE svg PUBLIC "-//W3C//DTD SVG 1.1//EN" "http://www.w3.org/Graphics/SVG/1.1/DTD/svg11.dtd">
<svg version="1.1" xmlns="http://www.w3.org/2000/svg" xmlns:xlink="http://www.w3.org/1999/xlink" x="0px" y="0px" width="48px"
	 height="48px" viewBox="0 0 48 48" enable-background="new 0 0 48 48" xml:space="preserve">
<g id="Layer_3">
	<g>
		<path fill="#010101" d="M33,0.001H11c-2.757,0-5,2.243-5,5v38c0,2.757,2.243,5,5,5h22c2.757,0,5-2.243,5-5v-38
			C38,2.244,35.757,0.001,33,0.001z M22,44.001c-5.514,0-10-4.486-10-10c0-5.514,4.486-10,10-10c5.514,0,10,4.486,10,10
			C32,39.515,27.514,44.001,22,44.001z M34,22H10V4h24V22z"/>
		<path fill="#010101" d="M22,28.001c-3.309,0-6,2.691-6,6s2.691,6,6,6c3.309,0,6-2.691,6-6S25.309,28.001,22,28.001z"/>
	</g>
</g>
<g id="nyt_x5F_exporter_x5F_info" display="none">
</g>
</svg>
