<?xml version="1.0" encoding="utf-8"?>
<!-- Generator: Adobe Illustrator 17.0.0, SVG Export Plug-In . SVG Version: 6.00 Build 0)  -->
<!DOCTYPE svg PUBLIC "-//W3C//DTD SVG 1.1//EN" "http://www.w3.org/Graphics/SVG/1.1/DTD/svg11.dtd">
<svg version="1.1" xmlns="http://www.w3.org/2000/svg" xmlns:xlink="http://www.w3.org/1999/xlink" x="0px" y="0px" width="48px"
	 height="48px" viewBox="0 0 48 48" enable-background="new 0 0 48 48" xml:space="preserve">
<g id="Layer_3">
	<path fill="#010101" d="M37,16c-2.83,0-5.493,1.062-7.545,3H28v-3c0-0.552-0.447-1-1-1h-2v-5c0-3.86-3.141-7-7-7h-6
		c-0.553,0-1,0.448-1,1c0,0.552,0.447,1,1,1h6c2.757,0,5,2.243,5,5v5h-2c-0.553,0-1,0.448-1,1v3h-1.457c-2.05-1.938-4.712-3-7.543-3
		C4.935,16,0,20.935,0,27c0,6.065,4.935,11,11,11c2.831,0,5.493-1.062,7.543-3h10.912c2.052,1.938,4.715,3,7.545,3
		c6.065,0,11-4.935,11-11C48,20.935,43.065,16,37,16z M15,27h-3v3c0,0.552-0.447,1-1,1c-0.553,0-1-0.448-1-1v-3H7
		c-0.553,0-1-0.448-1-1c0-0.552,0.447-1,1-1h3v-3c0-0.552,0.447-1,1-1c0.553,0,1,0.448,1,1v3h3c0.553,0,1,0.448,1,1
		C16,26.552,15.553,27,15,27z M22,17h4v2h-4V17z M22,31h-2c-0.553,0-1-0.448-1-1c0-0.552,0.447-1,1-1h2c0.553,0,1,0.448,1,1
		C23,30.552,22.553,31,22,31z M28,31h-2c-0.553,0-1-0.448-1-1c0-0.552,0.447-1,1-1h2c0.553,0,1,0.448,1,1C29,30.552,28.553,31,28,31
		z M35.586,21.586c0.756-0.756,2.072-0.756,2.828,0C38.792,21.964,39,22.466,39,23c0,0.534-0.208,1.036-0.586,1.414
		C38.036,24.792,37.534,25,37,25c-0.534,0-1.036-0.208-1.414-0.586C35.208,24.036,35,23.534,35,23
		C35,22.466,35.208,21.964,35.586,21.586z M34.414,28.414C34.036,28.792,33.534,29,33,29c-0.534,0-1.036-0.208-1.414-0.586
		c-0.377-0.375-0.586-0.877-0.587-1.411c0-0.535,0.208-1.039,0.587-1.418c0.749-0.754,2.069-0.756,2.826-0.002
		C35.194,26.366,35.194,27.634,34.414,28.414z M38.414,32.414C38.036,32.792,37.534,33,37,33c-0.534,0-1.036-0.208-1.414-0.586
		C35.208,32.036,35,31.534,35,31c0-0.534,0.208-1.036,0.586-1.414c0.756-0.756,2.072-0.756,2.828,0C38.792,29.964,39,30.466,39,31
		C39,31.534,38.792,32.036,38.414,32.414z M42.414,28.414C42.036,28.792,41.534,29,41,29c-0.534,0-1.036-0.208-1.414-0.586
		C39.208,28.036,39,27.534,39,27c0-0.534,0.208-1.036,0.586-1.414c0.756-0.756,2.072-0.756,2.828,0C42.792,25.964,43,26.466,43,27
		C43,27.534,42.792,28.036,42.414,28.414z"/>
</g>
<g id="nyt_x5F_exporter_x5F_info" display="none">
</g>
</svg>
