<?xml version="1.0" encoding="utf-8"?>
<!-- Generator: Adobe Illustrator 17.0.0, SVG Export Plug-In . SVG Version: 6.00 Build 0)  -->
<!DOCTYPE svg PUBLIC "-//W3C//DTD SVG 1.1//EN" "http://www.w3.org/Graphics/SVG/1.1/DTD/svg11.dtd">
<svg version="1.1" xmlns="http://www.w3.org/2000/svg" xmlns:xlink="http://www.w3.org/1999/xlink" x="0px" y="0px" width="48px"
	 height="48px" viewBox="0 0 48 48" enable-background="new 0 0 48 48" xml:space="preserve">
<g id="Layer_3">
	<path fill="#010101" d="M43,26H8v-1c0-2.757,2.243-5,5-5h27c4.411,0,8-3.589,8-8c0-4.411-3.589-8-8-8H27c-1.103,0-2-0.897-2-2V1
		c0-0.552-0.447-1-1-1c-0.553,0-1,0.448-1,1v1c0,2.206,1.794,4,4,4h13c3.309,0,6,2.691,6,6c0,3.309-2.691,6-6,6H13
		c-3.859,0-7,3.14-7,7v1H5c-2.757,0-5,2.243-5,5v12c0,2.757,2.243,5,5,5h38c2.757,0,5-2.243,5-5V31C48,28.243,45.757,26,43,26z
		 M32,30h2v2h-2V30z M32,34h2v2h-2V34z M32,38h2v2h-2V38z M26,30h2v2h-2V30z M26,34h2v2h-2V34z M26,38h2v2h-2V38z M20,30h2v2h-2V30z
		 M20,34h2v2h-2V34z M20,38h2v2h-2V38z M14,30h2v2h-2V30z M14,34h2v2h-2V34z M14,38h2v2h-2V38z M8,30h2v2H8V30z M8,34h2v2H8V34z
		 M8,38h2v2H8V38z M38,44H10v-2h28V44z M40,40h-2v-2h2V40z M40,36h-2v-2h2V36z M40,32h-2v-2h2V32z"/>
</g>
<g id="nyt_x5F_exporter_x5F_info" display="none">
</g>
</svg>
