<?xml version="1.0" encoding="utf-8"?>
<!-- Generator: Adobe Illustrator 17.0.0, SVG Export Plug-In . SVG Version: 6.00 Build 0)  -->
<!DOCTYPE svg PUBLIC "-//W3C//DTD SVG 1.1//EN" "http://www.w3.org/Graphics/SVG/1.1/DTD/svg11.dtd">
<svg version="1.1" xmlns="http://www.w3.org/2000/svg" xmlns:xlink="http://www.w3.org/1999/xlink" x="0px" y="0px" width="48px"
	 height="48px" viewBox="0 0 48 48" enable-background="new 0 0 48 48" xml:space="preserve">
<g id="Layer_3">
	<path fill="#010101" d="M13,18h27c4.785,0,8-2.813,8-7s-3.215-7-8-7H27c-0.966,0-2-1.761-2-3c0-0.552-0.447-1-1-1
		c-0.553,0-1,0.448-1,1c0,1.991,1.596,5,4,5h13c2.768,0,6,1.31,6,5c0,3.69-3.232,5-6,5H13c-4.007,0-7,4.224-7,8v2H1
		c-0.553,0-1,0.448-1,1v20c0,0.552,0.447,1,1,1h44c0.553,0,1-0.448,1-1V27c0-0.552-0.447-1-1-1H8v-2C8,21.282,10.23,18,13,18z
		 M5.71,43.71C5.519,43.89,5.269,44,5,44c-0.271,0-0.521-0.11-0.71-0.29C4.109,43.52,4,43.26,4,43c0-0.26,0.109-0.52,0.29-0.71
		c0.37-0.37,1.05-0.37,1.42,0C5.89,42.48,6,42.74,6,43C6,43.26,5.89,43.52,5.71,43.71z M38,45c0,0.552-0.447,1-1,1H9
		c-0.553,0-1-0.448-1-1v-2c0-0.552,0.447-1,1-1h28c0.553,0,1,0.448,1,1V45z M41.71,43.71C41.519,43.89,41.26,44,41,44
		c-0.26,0-0.521-0.11-0.71-0.29C40.109,43.52,40,43.26,40,43c0-0.27,0.109-0.52,0.29-0.71c0.38-0.37,1.04-0.37,1.42,0
		C41.89,42.48,42,42.74,42,43C42,43.26,41.89,43.52,41.71,43.71z M41,40H5c-0.553,0-1-0.448-1-1c0-0.552,0.447-1,1-1h36
		c0.553,0,1,0.448,1,1C42,39.552,41.553,40,41,40z M41,36H5c-0.553,0-1-0.448-1-1c0-0.552,0.447-1,1-1h36c0.553,0,1,0.448,1,1
		C42,35.552,41.553,36,41,36z M41,30c0.553,0,1,0.448,1,1c0,0.552-0.447,1-1,1H5c-0.553,0-1-0.448-1-1c0-0.552,0.447-1,1-1H41z"/>
</g>
<g id="nyt_x5F_exporter_x5F_info" display="none">
</g>
</svg>
