<?xml version="1.0" encoding="utf-8"?>
<!-- Generator: Adobe Illustrator 17.0.0, SVG Export Plug-In . SVG Version: 6.00 Build 0)  -->
<!DOCTYPE svg PUBLIC "-//W3C//DTD SVG 1.1//EN" "http://www.w3.org/Graphics/SVG/1.1/DTD/svg11.dtd">
<svg version="1.1" xmlns="http://www.w3.org/2000/svg" xmlns:xlink="http://www.w3.org/1999/xlink" x="0px" y="0px" width="48px"
	 height="48px" viewBox="0 0 48 48" enable-background="new 0 0 48 48" xml:space="preserve">
<g id="Layer_3">
	<g>
		<path fill="#010101" d="M38,36H10v-4H4v11c0,2.757,2.243,5,5,5h30c2.757,0,5-2.243,5-5V32h-6V36z M13,42c-0.553,0-1-0.449-1-1
			c0-0.552,0.447-1,1-1c0.553,0,1,0.448,1,1C14,41.551,13.553,42,13,42z M17,42c-0.553,0-1-0.449-1-1c0-0.552,0.447-1,1-1
			c0.553,0,1,0.448,1,1C18,41.551,17.553,42,17,42z M28,42c0,1.103-0.898,2-2,2h-4c-1.103,0-2-0.897-2-2v-2c0-1.103,0.897-2,2-2h4
			c1.102,0,2,0.897,2,2V42z M31,42c-0.553,0-1-0.449-1-1c0-0.552,0.447-1,1-1c0.553,0,1,0.448,1,1C32,41.551,31.553,42,31,42z
			 M35,42c-0.553,0-1-0.449-1-1c0-0.552,0.447-1,1-1c0.553,0,1,0.448,1,1C36,41.551,35.553,42,35,42z"/>
		<rect x="4" y="26" fill="#010101" width="6" height="4"/>
		<path fill="#010101" d="M39,0H9C6.243,0,4,2.243,4,5v13h6V4h28v14h6V5C44,2.243,41.757,0,39,0z"/>
		<rect x="38" y="20" fill="#010101" width="6" height="4"/>
		<rect x="38" y="26" fill="#010101" width="6" height="4"/>
		<rect x="4" y="20" fill="#010101" width="6" height="4"/>
		<path fill="#010101" d="M16,28h16c0.553,0,1-0.448,1-1c0-0.552-0.447-1-1-1H16c-0.553,0-1,0.448-1,1C15,27.552,15.447,28,16,28z"
			/>
		<path fill="#010101" d="M16,24h16c0.553,0,1-0.448,1-1c0-0.552-0.447-1-1-1H16c-0.553,0-1,0.448-1,1C15,23.552,15.447,24,16,24z"
			/>
		<path fill="#010101" d="M16,20h16c0.553,0,1-0.448,1-1c0-0.552-0.447-1-1-1H16c-0.553,0-1,0.448-1,1C15,19.552,15.447,20,16,20z"
			/>
		<path fill="#010101" d="M16,16h16c0.553,0,1-0.448,1-1c0-0.552-0.447-1-1-1H16c-0.553,0-1,0.448-1,1C15,15.552,15.447,16,16,16z"
			/>
		<path fill="#010101" d="M16,12h10c0.553,0,1-0.448,1-1c0-0.552-0.447-1-1-1H16c-0.553,0-1,0.448-1,1C15,11.552,15.447,12,16,12z"
			/>
	</g>
</g>
<g id="nyt_x5F_exporter_x5F_info" display="none">
</g>
</svg>
