<?xml version="1.0" encoding="utf-8"?>
<!-- Generator: Adobe Illustrator 17.0.0, SVG Export Plug-In . SVG Version: 6.00 Build 0)  -->
<!DOCTYPE svg PUBLIC "-//W3C//DTD SVG 1.1//EN" "http://www.w3.org/Graphics/SVG/1.1/DTD/svg11.dtd">
<svg version="1.1" xmlns="http://www.w3.org/2000/svg" xmlns:xlink="http://www.w3.org/1999/xlink" x="0px" y="0px" width="48px"
	 height="48px" viewBox="0 0 48 48" enable-background="new 0 0 48 48" xml:space="preserve">
<g id="Layer_3">
	<g>
		<path fill="#010101" d="M44.563,30H3.674L0.245,42h47.49L44.563,30z M14.719,40l1.5-6h15.562l1.5,6H14.719z"/>
		<path fill="#010101" d="M0,44c0,2.206,1.794,4,4,4h40c2.206,0,4-1.794,4-4H0z"/>
		<path fill="#010101" d="M44,27.869V6c0-2.206-1.794-4-4-4H8C5.794,2,4,3.794,4,6v22h40.035L44,27.869z M40,25H8V5h32V25z"/>
	</g>
</g>
<g id="nyt_x5F_exporter_x5F_info" display="none">
</g>
</svg>
