<?xml version="1.0" encoding="utf-8"?>
<!-- Generator: Adobe Illustrator 17.0.0, SVG Export Plug-In . SVG Version: 6.00 Build 0)  -->
<!DOCTYPE svg PUBLIC "-//W3C//DTD SVG 1.1//EN" "http://www.w3.org/Graphics/SVG/1.1/DTD/svg11.dtd">
<svg version="1.1" xmlns="http://www.w3.org/2000/svg" xmlns:xlink="http://www.w3.org/1999/xlink" x="0px" y="0px" width="48px"
	 height="48px" viewBox="0 0 48 48" enable-background="new 0 0 48 48" xml:space="preserve">
<g id="Layer_3">
	<path fill="#010101" d="M31,0H17c-4.963,0-9,4.038-9,9v32c0,3.86,3.141,7,7,7h18c3.859,0,7-3.14,7-7V9C40,4.038,35.963,0,31,0z
		 M19,4h10c0.553,0,1,0.448,1,1c0,0.552-0.447,1-1,1H19c-0.553,0-1-0.448-1-1C18,4.448,18.447,4,19,4z M19,42h-2v-2h2V42z M19,38h-2
		v-2h2V38z M19,34h-2v-2h2V34z M25,42h-2v-2h2V42z M25,38h-2v-2h2V38z M25,34h-2v-2h2V34z M31,42h-2v-2h2V42z M31,38h-2v-2h2V38z
		 M31,34h-2v-2h2V34z M36,28H12V8h24V28z"/>
</g>
<g id="nyt_x5F_exporter_x5F_info" display="none">
</g>
</svg>
