<?xml version="1.0" encoding="utf-8"?>
<!-- Generator: Adobe Illustrator 17.0.0, SVG Export Plug-In . SVG Version: 6.00 Build 0)  -->
<!DOCTYPE svg PUBLIC "-//W3C//DTD SVG 1.1//EN" "http://www.w3.org/Graphics/SVG/1.1/DTD/svg11.dtd">
<svg version="1.1" xmlns="http://www.w3.org/2000/svg" xmlns:xlink="http://www.w3.org/1999/xlink" x="0px" y="0px" width="48px"
	 height="48px" viewBox="0 0 48 48" enable-background="new 0 0 48 48" xml:space="preserve">
<g id="Layer_3">
	<path fill="#010101" d="M24,0h-6C10.832,0,5,5.832,5,13v22c0,7.169,5.832,13,13,13h6c7.168,0,13-5.831,13-13V13
		C37,5.832,31.168,0,24,0z M24,15c0,1.654-1.346,3-3,3c-1.654,0-3-1.346-3-3v-4c0-1.654,1.346-3,3-3c1.654,0,3,1.346,3,3V15z"/>
</g>
<g id="nyt_x5F_exporter_x5F_info" display="none">
</g>
</svg>
