<?xml version="1.0" encoding="utf-8"?>
<!-- Generator: Adobe Illustrator 17.0.0, SVG Export Plug-In . SVG Version: 6.00 Build 0)  -->
<!DOCTYPE svg PUBLIC "-//W3C//DTD SVG 1.1//EN" "http://www.w3.org/Graphics/SVG/1.1/DTD/svg11.dtd">
<svg version="1.1" xmlns="http://www.w3.org/2000/svg" xmlns:xlink="http://www.w3.org/1999/xlink" x="0px" y="0px" width="48px"
	 height="48px" viewBox="0 0 48 48" enable-background="new 0 0 48 48" xml:space="preserve">
<g id="Layer_3">
	<path fill="#010101" d="M47,3c-0.553,0-1,0.448-1,1v12c0,5.138-3.11,7.479-6,7.479c-2.89,0-6-2.34-6-7.479v-5
		c0-7.058-5.534-10.75-11-10.75c-5.466,0-11,3.692-11,10.75H7c-3.859,0-7,3.14-7,7v3v14c0,7.169,5.832,13,13,13s13-5.831,13-13V21
		v-3c0-3.86-3.141-7-7-7h-5c0-6.012,4.665-8.75,9-8.75c2.379,0,4.588,0.779,6.22,2.193C31.039,6.02,32,8.287,32,11v5
		c0,6.223,4.024,9.479,8,9.479c3.976,0,8-3.256,8-9.479V4C48,3.448,47.553,3,47,3z M12,21H2v-3c0-2.757,2.243-5,5-5h5V21z M19,13
		c2.757,0,5,2.243,5,5v3H14v-8H19z"/>
</g>
<g id="nyt_x5F_exporter_x5F_info" display="none">
</g>
</svg>
