<?xml version="1.0" encoding="utf-8"?>
<!-- Generator: Adobe Illustrator 17.0.0, SVG Export Plug-In . SVG Version: 6.00 Build 0)  -->
<!DOCTYPE svg PUBLIC "-//W3C//DTD SVG 1.1//EN" "http://www.w3.org/Graphics/SVG/1.1/DTD/svg11.dtd">
<svg version="1.1" xmlns="http://www.w3.org/2000/svg" xmlns:xlink="http://www.w3.org/1999/xlink" x="0px" y="0px" width="48px"
	 height="48px" viewBox="0 0 48 48" enable-background="new 0 0 48 48" xml:space="preserve">
<g id="Layer_3">
	<path fill="#010101" d="M47.192,8.778c-0.391-0.391-1.023-0.391-1.414,0l-4.95,4.95l-7.071-7.072l4.95-4.949
		c0.391-0.391,0.391-1.023,0-1.414c-0.391-0.391-1.023-0.391-1.414,0l-4.95,4.949l-3.536-3.536c-0.391-0.391-1.023-0.391-1.414,0
		l-7.778,7.778c-3.767,3.768-4.29,9.642-1.706,14.434l-3.951,3.951c-0.188,0.188-0.293,0.442-0.293,0.707
		c0,0.265,0.105,0.52,0.293,0.707l1.414,1.414l-8.484,8.485c-1.949,1.95-1.949,5.122,0,7.071c1.949,1.95,5.121,1.949,7.07,0
		l6.365-6.364c0.754-0.756,2.072-0.755,2.828,0c0.778,0.779,0.778,2.048,0,2.828l-3.365,3.365c-0.391,0.39-0.391,1.023,0,1.414
		c0.195,0.195,0.451,0.293,0.707,0.293c0.256,0,0.512-0.098,0.707-0.293l3.365-3.365c1.559-1.56,1.559-4.096,0-5.656
		c-0.756-0.756-1.76-1.172-2.829-1.172c-1.068,0-2.073,0.417-2.828,1.172l-6.364,6.364c-1.17,1.169-3.072,1.169-4.242,0
		c-1.17-1.17-1.17-3.073,0-4.243l8.485-8.485l1.415,1.415c0.195,0.195,0.451,0.293,0.707,0.293c0.256,0,0.512-0.098,0.707-0.293
		l3.954-3.953c1.76,0.948,3.697,1.502,5.695,1.589c0.188,0.008,0.375,0.012,0.56,0.012c3.147,0,6.033-1.162,8.176-3.305l7.778-7.778
		c0.391-0.391,0.391-1.023,0-1.414l-3.536-3.536l4.95-4.95C47.583,9.801,47.583,9.169,47.192,8.778z M30.222,22.919
		c-0.755,0.756-1.759,1.172-2.828,1.172c-1.069,0-2.073-0.417-2.829-1.173c-0.755-0.755-1.171-1.759-1.171-2.828
		s0.416-2.073,1.172-2.828c1.51-1.511,4.146-1.511,5.656,0c0.756,0.755,1.172,1.76,1.172,2.828S30.977,22.164,30.222,22.919z
		 M40.121,20.092c-0.195,0.195-0.451,0.293-0.707,0.293c-0.256,0-0.512-0.098-0.707-0.293L27.394,8.777
		c-0.391-0.391-0.391-1.024,0-1.414c0.391-0.391,1.023-0.391,1.414,0l11.314,11.315C40.512,19.068,40.512,19.702,40.121,20.092z"/>
</g>
<g id="nyt_x5F_exporter_x5F_info" display="none">
</g>
</svg>
