<?xml version="1.0" encoding="utf-8"?>
<!-- Generator: Adobe Illustrator 17.0.0, SVG Export Plug-In . SVG Version: 6.00 Build 0)  -->
<!DOCTYPE svg PUBLIC "-//W3C//DTD SVG 1.1//EN" "http://www.w3.org/Graphics/SVG/1.1/DTD/svg11.dtd">
<svg version="1.1" xmlns="http://www.w3.org/2000/svg" xmlns:xlink="http://www.w3.org/1999/xlink" x="0px" y="0px" width="48px"
	 height="48px" viewBox="0 0 48 48" enable-background="new 0 0 48 48" xml:space="preserve">
<g id="Layer_3">
	<path fill="#010101" d="M40,14h-8V1c0-0.552-0.447-1-1-1s-1,0.448-1,1v13H16V1c0-0.552-0.447-1-1-1s-1,0.448-1,1v13H6
		c-0.553,0-1,0.448-1,1c0,0.552,0.447,1,1,1h4v13c0,4.624,3.507,8.441,8,8.941V43c0,0.552,0.447,1,1,1h3v3c0,0.552,0.447,1,1,1
		s1-0.448,1-1v-3h3c0.553,0,1-0.448,1-1v-5.059c4.493-0.5,8-4.317,8-8.941V16h4c0.553,0,1-0.448,1-1C41,14.448,40.553,14,40,14z"/>
</g>
<g id="nyt_x5F_exporter_x5F_info" display="none">
</g>
</svg>
