<?xml version="1.0" encoding="utf-8"?>
<!-- Generator: Adobe Illustrator 17.0.0, SVG Export Plug-In . SVG Version: 6.00 Build 0)  -->
<!DOCTYPE svg PUBLIC "-//W3C//DTD SVG 1.1//EN" "http://www.w3.org/Graphics/SVG/1.1/DTD/svg11.dtd">
<svg version="1.1" xmlns="http://www.w3.org/2000/svg" xmlns:xlink="http://www.w3.org/1999/xlink" x="0px" y="0px" width="48px"
	 height="48px" viewBox="0 0 48 48" enable-background="new 0 0 48 48" xml:space="preserve">
<g id="Layer_3">
	<g>
		<circle fill="#010101" cx="7" cy="23" r="1"/>
		<path fill="#010101" d="M43,16H5c-2.757,0-5,2.243-5,5v12c0,2.757,2.243,5,5,5h5v9c0,0.552,0.447,1,1,1h26c0.553,0,1-0.448,1-1v-9
			h5c2.757,0,5-2.243,5-5V21C48,18.243,45.757,16,43,16z M7,26c-1.654,0-3-1.346-3-3c0-1.654,1.346-3,3-3c1.654,0,3,1.346,3,3
			C10,24.654,8.654,26,7,26z M36,46H12V32h24V46z"/>
		<path fill="#010101" d="M11,14h26c0.553,0,1-0.448,1-1v-2c0-0.265-0.106-0.519-0.293-0.707l-6-6C31.519,4.106,31.266,4,31,4H11
			c-0.553,0-1,0.448-1,1v8C10,13.552,10.447,14,11,14z M31,5l6,6h-6V5z"/>
		<path fill="#010101" d="M15,36h18c0.553,0,1-0.448,1-1c0-0.552-0.447-1-1-1H15c-0.553,0-1,0.448-1,1C14,35.552,14.447,36,15,36z"
			/>
		<path fill="#010101" d="M15,40h18c0.553,0,1-0.448,1-1c0-0.552-0.447-1-1-1H15c-0.553,0-1,0.448-1,1C14,39.552,14.447,40,15,40z"
			/>
		<path fill="#010101" d="M15,44h18c0.553,0,1-0.448,1-1c0-0.552-0.447-1-1-1H15c-0.553,0-1,0.448-1,1C14,43.552,14.447,44,15,44z"
			/>
	</g>
</g>
<g id="nyt_x5F_exporter_x5F_info" display="none">
</g>
</svg>
