<?xml version="1.0" encoding="utf-8"?>
<!-- Generator: Adobe Illustrator 17.0.0, SVG Export Plug-In . SVG Version: 6.00 Build 0)  -->
<!DOCTYPE svg PUBLIC "-//W3C//DTD SVG 1.1//EN" "http://www.w3.org/Graphics/SVG/1.1/DTD/svg11.dtd">
<svg version="1.1" xmlns="http://www.w3.org/2000/svg" xmlns:xlink="http://www.w3.org/1999/xlink" x="0px" y="0px" width="48px"
	 height="48px" viewBox="0 0 48 48" enable-background="new 0 0 48 48" xml:space="preserve">
<g id="Layer_3">
	<g>
		<path fill="#010101" d="M30,39.937l-3.846-5.555c-1.784-2.026-1.69-5.089,0.225-7.004c0.967-0.967,2.253-1.5,3.621-1.5
			c1.368,0,2.655,0.533,3.622,1.501c0.02,0.02,0.097,0.099,0.115,0.12L34,27.81V18c0-2.206-1.794-4-4-4H16c-2.206,0-4,1.794-4,4v22
			c0,2.206,1.794,4,4,4h14.232C30.095,43.371,30,42.732,30,42.077V39.937z M27,20c0.553,0,1,0.448,1,1c0,0.551-0.447,1-1,1
			c-0.553,0-1-0.449-1-1C26,20.448,26.447,20,27,20z M27,24c0.553,0,1,0.448,1,1c0,0.551-0.447,1-1,1c-0.553,0-1-0.449-1-1
			C26,24.448,26.447,24,27,24z M19,38c-0.553,0-1-0.449-1-1c0-0.552,0.447-1,1-1c0.553,0,1,0.448,1,1C20,37.551,19.553,38,19,38z
			 M19,34c-0.553,0-1-0.449-1-1c0-0.552,0.447-1,1-1c0.553,0,1,0.448,1,1C20,33.551,19.553,34,19,34z M19,30c-0.553,0-1-0.449-1-1
			c0-0.552,0.447-1,1-1c0.553,0,1,0.448,1,1C20,29.551,19.553,30,19,30z M19,26c-0.553,0-1-0.449-1-1c0-0.552,0.447-1,1-1
			c0.553,0,1,0.448,1,1C20,25.551,19.553,26,19,26z M19,22c-0.553,0-1-0.449-1-1c0-0.552,0.447-1,1-1c0.553,0,1,0.448,1,1
			C20,21.551,19.553,22,19,22z M23,38c-0.553,0-1-0.449-1-1c0-0.552,0.447-1,1-1c0.553,0,1,0.448,1,1C24,37.551,23.553,38,23,38z
			 M23,34c-0.553,0-1-0.449-1-1c0-0.552,0.447-1,1-1c0.553,0,1,0.448,1,1C24,33.551,23.553,34,23,34z M23,30c-0.553,0-1-0.449-1-1
			c0-0.552,0.447-1,1-1c0.553,0,1,0.448,1,1C24,29.551,23.553,30,23,30z M23,26c-0.553,0-1-0.449-1-1c0-0.552,0.447-1,1-1
			c0.553,0,1,0.448,1,1C24,25.551,23.553,26,23,26z M23,22c-0.553,0-1-0.449-1-1c0-0.552,0.447-1,1-1c0.553,0,1,0.448,1,1
			C24,21.551,23.553,22,23,22z"/>
		<path fill="#010101" d="M14.251,4.687c2.633-1.759,5.702-2.688,8.874-2.688c3.171,0,6.239,0.93,8.872,2.688
			c0.171,0.114,0.364,0.169,0.555,0.169c0.323,0,0.64-0.156,0.833-0.445c0.307-0.459,0.183-1.08-0.276-1.387
			c-2.964-1.979-6.416-3.025-9.983-3.025c-3.569,0-7.022,1.046-9.985,3.025c-0.459,0.307-0.583,0.928-0.276,1.387
			C13.17,4.87,13.789,4.993,14.251,4.687z"/>
		<path fill="#010101" d="M30.333,8.183c0.323,0,0.64-0.156,0.832-0.444c0.308-0.46,0.184-1.081-0.275-1.387
			c-2.304-1.539-4.988-2.353-7.765-2.353c-2.775,0-5.461,0.813-7.766,2.353c-0.46,0.306-0.584,0.927-0.277,1.387
			c0.308,0.458,0.928,0.584,1.387,0.276c1.976-1.318,4.277-2.016,6.656-2.016c2.379,0,4.68,0.697,6.653,2.016
			C29.949,8.128,30.143,8.183,30.333,8.183z"/>
		<path fill="#010101" d="M17.577,9.679c-0.459,0.307-0.583,0.928-0.275,1.387c0.305,0.458,0.925,0.582,1.387,0.276
			c2.63-1.756,6.236-1.759,8.874,0c0.17,0.114,0.363,0.168,0.554,0.168c0.323,0,0.64-0.156,0.833-0.445
			c0.307-0.46,0.183-1.081-0.277-1.387C25.376,7.479,20.865,7.481,17.577,9.679z"/>
		<path fill="#010101" d="M46.868,46.504L43,39.734v-0.266v-8.585c0-2.455-0.613-4.637-1.856-6.659
			c-0.07-0.113-0.124-0.23-0.198-0.342c-0.026-0.04-0.06-0.079-0.087-0.119c-0.823-1.225-1.885-2.394-3.211-3.524l-0.003-0.003
			c-0.297-0.252-0.714-0.307-1.065-0.145C36.227,20.255,36,20.61,36,21v9.54v2.732l-2-2.362v-0.003l-1.79-2.116
			c-0.592-0.588-1.376-0.913-2.21-0.913s-1.618,0.325-2.207,0.914c-1.177,1.177-1.226,3.065-0.109,4.299
			c0.028,0.032,0.056,0.066,0.08,0.101l4.059,5.862C31.937,39.223,32,39.421,32,39.625V42v0.077c0,1.466,0.451,2.874,1.304,4.071
			l1.052,1.47c0.189,0.261,0.491,0.417,0.812,0.417c0.001,0,0.002,0,0.003,0l5.964-0.019L46.004,48
			c0.356-0.002,0.683-0.192,0.861-0.499C47.044,47.192,47.045,46.813,46.868,46.504z"/>
	</g>
</g>
<g id="nyt_x5F_exporter_x5F_info" display="none">
</g>
</svg>
