<?xml version="1.0" encoding="utf-8"?>
<!-- Generator: Adobe Illustrator 17.0.0, SVG Export Plug-In . SVG Version: 6.00 Build 0)  -->
<!DOCTYPE svg PUBLIC "-//W3C//DTD SVG 1.1//EN" "http://www.w3.org/Graphics/SVG/1.1/DTD/svg11.dtd">
<svg version="1.1" xmlns="http://www.w3.org/2000/svg" xmlns:xlink="http://www.w3.org/1999/xlink" x="0px" y="0px" width="48px"
	 height="48px" viewBox="0 0 48 48" enable-background="new 0 0 48 48" xml:space="preserve">
<g id="Layer_3">
	<path fill="#010101" d="M45,8H3c-1.654,0-3,1.346-3,3v26c0,1.654,1.346,3,3,3h18v3.095c-4.857,0.3-9.298,1.356-12.465,3.018
		c-0.489,0.257-0.678,0.861-0.421,1.351c0.256,0.488,0.86,0.677,1.351,0.421c3.495-1.834,8.727-2.886,14.354-2.886
		c5.628,0,10.86,1.052,14.355,2.886c0.148,0.078,0.308,0.114,0.464,0.114c0.36,0,0.708-0.195,0.887-0.535
		c0.257-0.489,0.068-1.094-0.421-1.351c-3.088-1.62-7.389-2.662-12.103-2.991V40h18c1.654,0,3-1.346,3-3V11C48,9.346,46.654,8,45,8z
		 M4,36V12h40v24H4z"/>
</g>
<g id="nyt_x5F_exporter_x5F_info" display="none">
</g>
</svg>
