<?xml version="1.0" encoding="utf-8"?>
<!-- Generator: Adobe Illustrator 17.0.0, SVG Export Plug-In . SVG Version: 6.00 Build 0)  -->
<!DOCTYPE svg PUBLIC "-//W3C//DTD SVG 1.1//EN" "http://www.w3.org/Graphics/SVG/1.1/DTD/svg11.dtd">
<svg version="1.1" xmlns="http://www.w3.org/2000/svg" xmlns:xlink="http://www.w3.org/1999/xlink" x="0px" y="0px" width="48px"
	 height="48px" viewBox="0 0 48 48" enable-background="new 0 0 48 48" xml:space="preserve">
<g id="Layer_3">
	<path fill="#010101" d="M45,10H3c-1.654,0-3,1.346-3,3v26c0,1.654,1.346,3,3,3h17v4h-6c-0.553,0-1,0.448-1,1c0,0.552,0.447,1,1,1
		h20c0.553,0,1-0.448,1-1c0-0.552-0.447-1-1-1h-6v-4h17c1.654,0,3-1.346,3-3V13C48,11.346,46.654,10,45,10z M44,38H4V14h40V38z"/>
</g>
<g id="nyt_x5F_exporter_x5F_info" display="none">
</g>
</svg>
