<?xml version="1.0" encoding="utf-8"?>
<!-- Generator: Adobe Illustrator 17.0.0, SVG Export Plug-In . SVG Version: 6.00 Build 0)  -->
<!DOCTYPE svg PUBLIC "-//W3C//DTD SVG 1.1//EN" "http://www.w3.org/Graphics/SVG/1.1/DTD/svg11.dtd">
<svg version="1.1" xmlns="http://www.w3.org/2000/svg" xmlns:xlink="http://www.w3.org/1999/xlink" x="0px" y="0px" width="48px"
	 height="48px" viewBox="0 0 48 48" enable-background="new 0 0 48 48" xml:space="preserve">
<g id="Layer_3">
	<path fill="#010101" d="M45,6H3C1.346,6,0,7.346,0,9v23.999c0,1.593,1.229,3.055,2.8,3.328L19,39.144v4.141
		c-3.993,0.448-7.598,1.419-10.283,2.828c-0.489,0.257-0.678,0.861-0.421,1.351c0.256,0.488,0.859,0.677,1.351,0.421
		c2.628-1.379,6.238-2.315,10.259-2.695c0.033,0.003,0.061,0.019,0.095,0.019c0.07,0,0.131-0.026,0.197-0.04
		c1.237-0.108,2.507-0.17,3.803-0.17c5.627,0,10.858,1.052,14.353,2.886c0.149,0.078,0.308,0.114,0.464,0.114
		c0.36,0,0.708-0.195,0.887-0.535c0.257-0.489,0.068-1.094-0.421-1.351c-2.685-1.409-6.29-2.38-10.283-2.828v-4.141l16.2-2.817
		c1.57-0.273,2.8-1.735,2.8-3.328V9C48,7.346,46.654,6,45,6z M24,35.999c-0.553,0-1-0.447-1-1c0-0.553,0.447-1,1-1
		c0.553,0,1,0.447,1,1C25,35.551,24.553,35.999,24,35.999z M44,32H4V10h40V32z"/>
</g>
<g id="nyt_x5F_exporter_x5F_info" display="none">
</g>
</svg>
