<?xml version="1.0" encoding="utf-8"?>
<!-- Generator: Adobe Illustrator 17.0.0, SVG Export Plug-In . SVG Version: 6.00 Build 0)  -->
<!DOCTYPE svg PUBLIC "-//W3C//DTD SVG 1.1//EN" "http://www.w3.org/Graphics/SVG/1.1/DTD/svg11.dtd">
<svg version="1.1" xmlns="http://www.w3.org/2000/svg" xmlns:xlink="http://www.w3.org/1999/xlink" x="0px" y="0px" width="48px"
	 height="48px" viewBox="0 0 48 48" enable-background="new 0 0 48 48" xml:space="preserve">
<g id="Layer_3">
	<path fill="#010101" d="M32,0H14c-2.757,0-5,2.243-5,5v3v32v3c0,2.757,2.243,5,5,5h18c2.757,0,5-2.243,5-5v-3V8V5
		C37,2.243,34.757,0,32,0z M18,4h10c0.553,0,1,0.448,1,1c0,0.552-0.447,1-1,1H18c-0.553,0-1-0.448-1-1C17,4.448,17.447,4,18,4z
		 M23,45c-1.104,0-2-0.896-2-2c0-1.105,0.896-2,2-2c1.105,0,2,0.895,2,2C25,44.104,24.105,45,23,45z M35,38H11V10h24V38z"/>
</g>
<g id="nyt_x5F_exporter_x5F_info" display="none">
</g>
</svg>
