<?xml version="1.0" encoding="utf-8"?>
<!-- Generator: Adobe Illustrator 17.0.0, SVG Export Plug-In . SVG Version: 6.00 Build 0)  -->
<!DOCTYPE svg PUBLIC "-//W3C//DTD SVG 1.1//EN" "http://www.w3.org/Graphics/SVG/1.1/DTD/svg11.dtd">
<svg version="1.1" xmlns="http://www.w3.org/2000/svg" xmlns:xlink="http://www.w3.org/1999/xlink" x="0px" y="0px" width="48px"
	 height="48px" viewBox="0 0 48 48" enable-background="new 0 0 48 48" xml:space="preserve">
<g id="Layer_3">
	<g>
		<path fill="#010101" d="M44,0H4C1.794,0,0,1.794,0,4v26c0,2.206,1.794,4,4,4h16v-4H4V4h40v26h-6v4h6c2.206,0,4-1.794,4-4V4
			C48,1.794,46.206,0,44,0z"/>
		<path fill="#010101" d="M22,46h14V24H22V46z M31,29c0.553,0,1,0.448,1,1c0,0.551-0.447,1-1,1c-0.553,0-1-0.449-1-1
			C30,29.448,30.447,29,31,29z M31,33c0.553,0,1,0.448,1,1c0,0.551-0.447,1-1,1c-0.553,0-1-0.449-1-1C30,33.448,30.447,33,31,33z
			 M31,37c0.553,0,1,0.448,1,1c0,0.551-0.447,1-1,1c-0.553,0-1-0.449-1-1C30,37.448,30.447,37,31,37z M27,29c0.553,0,1,0.448,1,1
			c0,0.551-0.447,1-1,1c-0.553,0-1-0.449-1-1C26,29.448,26.447,29,27,29z M27,33c0.553,0,1,0.448,1,1c0,0.551-0.447,1-1,1
			c-0.553,0-1-0.449-1-1C26,33.448,26.447,33,27,33z M27,37c0.553,0,1,0.448,1,1c0,0.551-0.447,1-1,1c-0.553,0-1-0.449-1-1
			C26,37.448,26.447,37,27,37z"/>
		<path fill="#010101" d="M36.309,13.073c-4.295-2.638-9.698-2.753-14.105-0.304c-0.482,0.269-0.656,0.877-0.388,1.36
			c0.268,0.483,0.875,0.656,1.36,0.388c3.773-2.1,8.406-2,12.086,0.26c0.163,0.1,0.344,0.148,0.523,0.148
			c0.336,0,0.664-0.169,0.854-0.477C36.927,13.978,36.779,13.362,36.309,13.073z"/>
		<path fill="#010101" d="M33.698,18.333c0.336,0,0.665-0.169,0.854-0.477c0.289-0.471,0.141-1.087-0.33-1.376
			c-3.067-1.881-6.93-1.967-10.076-0.217c-0.483,0.268-0.657,0.877-0.389,1.36c0.269,0.482,0.878,0.657,1.359,0.388
			c2.518-1.398,5.604-1.331,8.061,0.174C33.34,18.285,33.519,18.333,33.698,18.333z"/>
		<path fill="#010101" d="M26.097,19.774c-0.482,0.268-0.657,0.877-0.389,1.36c0.268,0.483,0.878,0.656,1.359,0.389
			c1.257-0.699,2.797-0.669,4.016,0.078c0.163,0.1,0.344,0.147,0.521,0.147c0.336,0,0.665-0.169,0.854-0.477
			c0.289-0.471,0.141-1.086-0.33-1.375C30.296,18.772,27.983,18.726,26.097,19.774z"/>
	</g>
</g>
<g id="nyt_x5F_exporter_x5F_info" display="none">
</g>
</svg>
