<?xml version="1.0" encoding="utf-8"?>
<!-- Generator: Adobe Illustrator 17.0.0, SVG Export Plug-In . SVG Version: 6.00 Build 0)  -->
<!DOCTYPE svg PUBLIC "-//W3C//DTD SVG 1.1//EN" "http://www.w3.org/Graphics/SVG/1.1/DTD/svg11.dtd">
<svg version="1.1" xmlns="http://www.w3.org/2000/svg" xmlns:xlink="http://www.w3.org/1999/xlink" x="0px" y="0px" width="48px"
	 height="48px" viewBox="0 0 48 48" enable-background="new 0 0 48 48" xml:space="preserve">
<g id="Layer_3">
	<g>
		<path fill="#010101" d="M34,23c0,1.155,0.41,2.206,1.07,3.054C32.495,27.728,28.978,30,24,30c-4.975,0-8.493-2.269-11.07-3.946
			C13.59,25.206,14,24.155,14,23c0-2.757-2.243-5-5-5c-2.757,0-5,2.243-5,5c0,2.415,1.721,4.434,4,4.899V34h32v-6.101
			c2.279-0.465,4-2.484,4-4.899c0-2.757-2.243-5-5-5C36.243,18,34,20.243,34,23z"/>
		<path fill="#010101" d="M47,10h-1V7V5c0-0.552-0.447-1-1-1c-0.553,0-1,0.448-1,1v1h-4V4c0-2.206-2.243-4-5-4H13
			c-2.757,0-5,1.794-5,4v2H4V5c0-0.552-0.447-1-1-1S2,4.448,2,5v2v3H1c-0.553,0-1,0.448-1,1c0,0.552,0.447,1,1,1h1v5v2
			c0,0.552,0.447,1,1,1s1-0.448,1-1v-1h5h30h5v1c0,0.552,0.447,1,1,1c0.553,0,1-0.448,1-1v-2v-5h1c0.553,0,1-0.448,1-1
			C48,10.448,47.553,10,47,10z M38,6H10V4c0-1.084,1.374-2,3-2h22c1.626,0,3,0.916,3,2V6z"/>
		<path fill="#010101" d="M8,43c0,2.757,2.243,5,5,5h22c2.757,0,5-2.243,5-5v-7H8V43z M33,38h2v2h-2V38z M33,44h-2v-2h2V44z M29,38
			h2v2h-2V38z M29,44h-2v-2h2V44z M25,38h2v2h-2V38z M25,44h-2v-2h2V44z M21,38h2v2h-2V38z M21,44h-2v-2h2V44z M17,38h2v2h-2V38z
			 M17,44h-2v-2h2V44z M13,38h2v2h-2V38z"/>
	</g>
</g>
<g id="nyt_x5F_exporter_x5F_info" display="none">
</g>
</svg>
