<?xml version="1.0" encoding="utf-8"?>
<!-- Generator: Adobe Illustrator 17.0.0, SVG Export Plug-In . SVG Version: 6.00 Build 0)  -->
<!DOCTYPE svg PUBLIC "-//W3C//DTD SVG 1.1//EN" "http://www.w3.org/Graphics/SVG/1.1/DTD/svg11.dtd">
<svg version="1.1" xmlns="http://www.w3.org/2000/svg" xmlns:xlink="http://www.w3.org/1999/xlink" x="0px" y="0px" width="48px"
	 height="48px" viewBox="0 0 48 48" enable-background="new 0 0 48 48" xml:space="preserve">
<g id="Layer_3">
	<g>
		<path fill="#010101" d="M33,10h-3V1c0-0.552-0.447-1-1-1H17c-0.553,0-1,0.448-1,1v9h-3c-0.553,0-1,0.448-1,1v28
			c0,4.962,4.037,9,9,9h4c4.963,0,9-4.038,9-9V11C34,10.448,33.553,10,33,10z M18,2h10v8H18V2z M29,16H17c-0.553,0-1-0.448-1-1
			c0-0.552,0.447-1,1-1h12c0.553,0,1,0.448,1,1C30,15.552,29.553,16,29,16z"/>
		<path fill="#010101" d="M21,4c-0.553,0-1,0.448-1,1v2c0,0.552,0.447,1,1,1c0.553,0,1-0.448,1-1V5C22,4.448,21.553,4,21,4z"/>
		<path fill="#010101" d="M25,4c-0.553,0-1,0.448-1,1v2c0,0.552,0.447,1,1,1c0.553,0,1-0.448,1-1V5C26,4.448,25.553,4,25,4z"/>
	</g>
</g>
<g id="nyt_x5F_exporter_x5F_info" display="none">
</g>
</svg>
