<?xml version="1.0" encoding="utf-8"?>
<!-- Generator: Adobe Illustrator 17.0.0, SVG Export Plug-In . SVG Version: 6.00 Build 0)  -->
<!DOCTYPE svg PUBLIC "-//W3C//DTD SVG 1.1//EN" "http://www.w3.org/Graphics/SVG/1.1/DTD/svg11.dtd">
<svg version="1.1" xmlns="http://www.w3.org/2000/svg" xmlns:xlink="http://www.w3.org/1999/xlink" x="0px" y="0px" width="48px"
	 height="48px" viewBox="0 0 48 48" enable-background="new 0 0 48 48" xml:space="preserve">
<g id="Layer_3">
	<g>
		<path fill="#010101" d="M0,37v4c0,2.415,1.721,4.434,4,4.899V47c0,0.552,0.447,1,1,1s1-0.448,1-1v-1h14V32H5
			C2.243,32,0,34.243,0,37z M18,39c0,0.552-0.447,1-1,1H5c-0.553,0-1-0.448-1-1c0-0.552,0.447-1,1-1h12C17.553,38,18,38.448,18,39z"
			/>
		<path fill="#010101" d="M43,32h-5V15c0-0.552-0.447-1-1-1s-1,0.448-1,1v17H22v14h20v1c0,0.552,0.447,1,1,1s1-0.448,1-1v-1.101
			c2.279-0.465,4-2.484,4-4.899v-4C48,34.243,45.757,32,43,32z M28,41c-1.103,0-2-0.897-2-2s0.897-2,2-2s2,0.897,2,2
			S29.103,41,28,41z M34,41c-1.103,0-2-0.897-2-2s0.897-2,2-2s2,0.897,2,2S35.103,41,34,41z M40,41c-1.103,0-2-0.897-2-2
			s0.897-2,2-2s2,0.897,2,2S41.103,41,40,41z"/>
		<path fill="#010101" d="M32,15c0,0.552,0.447,1,1,1s1-0.448,1-1c0-1.654,1.346-3,3-3s3,1.346,3,3c0,0.552,0.447,1,1,1s1-0.448,1-1
			c0-2.757-2.243-5-5-5S32,12.243,32,15z"/>
		<path fill="#010101" d="M27,16c0.553,0,1-0.448,1-1c0-4.962,4.037-9,9-9s9,4.038,9,9c0,0.552,0.447,1,1,1s1-0.448,1-1
			c0-6.065-4.935-11-11-11S26,8.935,26,15C26,15.552,26.447,16,27,16z"/>
	</g>
</g>
<g id="nyt_x5F_exporter_x5F_info" display="none">
</g>
</svg>
