<?xml version="1.0" encoding="utf-8"?>
<!-- Generator: Adobe Illustrator 17.0.0, SVG Export Plug-In . SVG Version: 6.00 Build 0)  -->
<!DOCTYPE svg PUBLIC "-//W3C//DTD SVG 1.1//EN" "http://www.w3.org/Graphics/SVG/1.1/DTD/svg11.dtd">
<svg version="1.1" id="Layer_1" xmlns="http://www.w3.org/2000/svg" xmlns:xlink="http://www.w3.org/1999/xlink" x="0px" y="0px"
	 width="60px" height="60px" viewBox="0 0 60 60" enable-background="new 0 0 60 60" xml:space="preserve">
<g>
	<path fill="#010101" d="M59.459,24.112l-29-15c-0.287-0.149-0.631-0.149-0.918,0l-29,15C0.209,24.284,0,24.626,0,25
		s0.209,0.716,0.541,0.888L10,30.781v10.32C7.721,41.566,6,43.586,6,46c0,2.757,2.243,5,5,5c2.757,0,5-2.243,5-5
		c0-2.414-1.721-4.434-4-4.899v-9.286l17.541,9.073C29.685,40.963,29.843,41,30,41c0.157,0,0.315-0.037,0.459-0.112L48,31.815V36
		c0,4.697-7.012,11.52-17.998,11.52c-2.738,0-5.54-0.401-8.566-1.226c-0.528-0.143-1.082,0.168-1.227,0.702
		c-0.146,0.533,0.169,1.083,0.702,1.228c3.199,0.872,6.173,1.296,9.091,1.296C42.392,49.52,50,41.646,50,36v-5.219l9.459-4.893
		C59.791,25.716,60,25.374,60,25S59.791,24.284,59.459,24.112z M14,46c0,1.654-1.346,3-3,3s-3-1.346-3-3s1.346-3,3-3
		S14,44.346,14,46z M30,38.874l-16.453-8.51l16.708-4.397c0.534-0.141,0.852-0.688,0.712-1.222
		c-0.141-0.534-0.688-0.852-1.222-0.713l-18.849,4.96L3.177,25L30,11.126L56.823,25L30,38.874z"/>
</g>
</svg>
