<?xml version="1.0" encoding="utf-8"?>
<!-- Generator: Adobe Illustrator 17.0.0, SVG Export Plug-In . SVG Version: 6.00 Build 0)  -->
<!DOCTYPE svg PUBLIC "-//W3C//DTD SVG 1.1//EN" "http://www.w3.org/Graphics/SVG/1.1/DTD/svg11.dtd">
<svg version="1.1" id="Layer_1" xmlns="http://www.w3.org/2000/svg" xmlns:xlink="http://www.w3.org/1999/xlink" x="0px" y="0px"
	 width="60px" height="60px" viewBox="0 0 60 60" enable-background="new 0 0 60 60" xml:space="preserve">
<g>
	<path fill="#010101" d="M59,30h-6.021C52.412,16.037,40.049,4,26,4C11.907,4,0,16.364,0,31c0,14.383,12.617,27,27,27
		c7.373,0,10-5.166,10-10c0-4.916-3.741-10-10-10c-1.383,0-4-0.627-4-3s2.617-3,4-3h32c0.552,0,1-0.448,1-1S59.552,30,59,30z M27,30
		c-2.981,0-6,1.717-6,5s3.019,5,6,5c5.518,0,8,4.678,8,8c0,1.877-0.577,8-8,8C13.682,56,2,44.318,2,31C2,17.449,12.991,6,26,6
		c12.984,0,24.413,11.102,24.978,24H27z"/>
	<path fill="#010101" d="M27,53c2.757,0,5-2.243,5-5s-2.243-5-5-5c-2.757,0-5,2.243-5,5S24.243,53,27,53z M27,45
		c1.654,0,3,1.346,3,3s-1.346,3-3,3s-3-1.346-3-3S25.346,45,27,45z"/>
</g>
</svg>
