<?xml version="1.0" encoding="utf-8"?>
<!-- Generator: Adobe Illustrator 17.0.0, SVG Export Plug-In . SVG Version: 6.00 Build 0)  -->
<!DOCTYPE svg PUBLIC "-//W3C//DTD SVG 1.1//EN" "http://www.w3.org/Graphics/SVG/1.1/DTD/svg11.dtd">
<svg version="1.1" id="Layer_1" xmlns="http://www.w3.org/2000/svg" xmlns:xlink="http://www.w3.org/1999/xlink" x="0px" y="0px"
	 width="60px" height="60px" viewBox="0 0 60 60" enable-background="new 0 0 60 60" xml:space="preserve">
<g>
	<path fill="#010101" d="M6,60h48c2.617,0,5-2.383,5-5v-2c0-2.664-2.336-5-5-5h-1.014C52.7,26.753,43.333,12,30,12
		S7.3,26.753,7.014,48H6c-2.664,0-5,2.336-5,5v2C1,57.664,3.336,60,6,60z M30,14c12.162,0,20.711,13.931,20.987,34H9.013
		C9.289,27.931,17.838,14,30,14z M3,53c0-1.542,1.458-3,3-3h48c1.542,0,3,1.458,3,3v2c0,1.542-1.458,3-3,3H6c-1.542,0-3-1.458-3-3
		V53z"/>
	<path fill="#010101" d="M22,10h16c0.552,0,1-0.448,1-1c0-0.552-0.448-1-1-1h-5.586l4.293-4.293c0.391-0.391,0.391-1.023,0-1.414
		c-0.391-0.391-1.023-0.391-1.414,0L31,6.586V1c0-0.552-0.448-1-1-1s-1,0.448-1,1v5.586l-4.293-4.293
		c-0.391-0.391-1.023-0.391-1.414,0c-0.391,0.391-0.391,1.023,0,1.414L27.586,8H22c-0.552,0-1,0.448-1,1C21,9.552,21.448,10,22,10z"
		/>
</g>
</svg>
