<?xml version="1.0" encoding="utf-8"?>
<!-- Generator: Adobe Illustrator 17.0.0, SVG Export Plug-In . SVG Version: 6.00 Build 0)  -->
<!DOCTYPE svg PUBLIC "-//W3C//DTD SVG 1.1//EN" "http://www.w3.org/Graphics/SVG/1.1/DTD/svg11.dtd">
<svg version="1.1" id="Layer_1" xmlns="http://www.w3.org/2000/svg" xmlns:xlink="http://www.w3.org/1999/xlink" x="0px" y="0px"
	 width="60px" height="60px" viewBox="0 0 60 60" enable-background="new 0 0 60 60" xml:space="preserve">
<g>
	<path fill="#010101" d="M14.429,31.19c0.267,0.187,0.609,0.23,0.918,0.118c4.16-1.536,9.364-2.381,14.653-2.381
		c5.289,0,10.493,0.846,14.653,2.381c0.112,0.042,0.231,0.062,0.347,0.062c0.202,0,0.401-0.061,0.571-0.18
		C45.84,31.003,46,30.697,46,30.37v-10c0-0.419-0.261-0.793-0.653-0.938C40.906,17.792,35.6,16.926,30,16.926
		s-10.906,0.866-15.347,2.505C14.261,19.577,14,19.951,14,20.37v10C14,30.697,14.16,31.003,14.429,31.19z M16,21.075
		c4.046-1.388,8.984-2.149,14-2.149c5.016,0,9.954,0.761,14,2.149v7.892c-4.149-1.337-8.956-2.041-14-2.041
		c-5.044,0-9.851,0.703-14,2.041V21.075z"/>
	<path fill="#010101" d="M30,1.63c-2.092,0-3.783,1.694-3.783,3.782h7.565C33.781,3.325,32.086,1.63,30,1.63z"/>
	<path fill="#010101" d="M58,44.297V34.37c0-14.888-12.561-27-28-27c-15.44,0-28,12.112-28,27v9.927L0.01,58.228
		c-0.057,0.396,0.129,0.788,0.47,0.996c0.342,0.209,0.773,0.193,1.101-0.039c8.573-6.1,20.187-7.38,28.42-7.38
		s19.849,1.28,28.42,7.38c0.174,0.123,0.377,0.185,0.58,0.185c0.008,0,0.015,0.001,0.019,0c0.553,0,1-0.448,1-1
		c0-0.118-0.019-0.231-0.058-0.336L58,44.297z M30,9.37c14.337,0,26,11.215,26,25v8.439c-7.806-3.613-16.961-5.613-26-5.613
		c-9.044,0-18.199,2-26,5.613V34.37C4,20.584,15.663,9.37,30,9.37z M30,49.804c-7.943,0-18.948,1.167-27.696,6.509l1.611-11.28
		c7.732-3.767,16.971-5.837,26.085-5.837c9.108,0,18.348,2.07,26.085,5.837l1.611,11.28C48.948,50.971,37.943,49.804,30,49.804z"/>
</g>
</svg>
