<?xml version="1.0" encoding="utf-8"?>
<!-- Generator: Adobe Illustrator 17.0.0, SVG Export Plug-In . SVG Version: 6.00 Build 0)  -->
<!DOCTYPE svg PUBLIC "-//W3C//DTD SVG 1.1//EN" "http://www.w3.org/Graphics/SVG/1.1/DTD/svg11.dtd">
<svg version="1.1" id="Layer_1" xmlns="http://www.w3.org/2000/svg" xmlns:xlink="http://www.w3.org/1999/xlink" x="0px" y="0px"
	 width="60px" height="60px" viewBox="0 0 60 60" enable-background="new 0 0 60 60" xml:space="preserve">
<g>
	<path fill="#010101" d="M59,26c-0.553,0-1,0.448-1,1c0,5.148-2.745,10.353-8,10.941V20C50,8.972,41.028,0,30,0
		C18.972,0,10,8.972,10,20v17.941C4.745,37.353,2,32.148,2,27c0-0.552-0.447-1-1-1c-0.553,0-1,0.448-1,1c0,6.302,3.855,13,11,13h38
		c7.144,0,11-6.698,11-13C60,26.448,59.553,26,59,26z M12,32h36v6H12V32z M30,2c9.925,0,18,8.075,18,18v10H12V20
		C12,10.075,20.075,2,30,2z"/>
	<polygon fill="#010101" points="26,54 24,60 36,60 34,54 	"/>
</g>
</svg>
