<?xml version="1.0" encoding="utf-8"?>
<!-- Generator: Adobe Illustrator 17.0.0, SVG Export Plug-In . SVG Version: 6.00 Build 0)  -->
<!DOCTYPE svg PUBLIC "-//W3C//DTD SVG 1.1//EN" "http://www.w3.org/Graphics/SVG/1.1/DTD/svg11.dtd">
<svg version="1.1" id="Layer_1" xmlns="http://www.w3.org/2000/svg" xmlns:xlink="http://www.w3.org/1999/xlink" x="0px" y="0px"
	 width="60px" height="60px" viewBox="0 0 60 60" enable-background="new 0 0 60 60" xml:space="preserve">
<g>
	<path fill="#010101" d="M56.721,42.179c-0.031-0.022-0.064-0.042-0.099-0.06L31.011,28.407c0.052-2.006,0.353-2.44,0.437-2.512
		c0.268-0.134,0.532-0.261,0.791-0.386C34.579,24.383,37,23.22,37,19c0-3.86-3.141-7-7-7c-3.859,0-7,3.14-7,7c0,0.552,0.447,1,1,1
		c0.553,0,1-0.448,1-1c0-2.757,2.243-5,5-5c2.757,0,5,2.243,5,5c0,2.962-1.365,3.619-3.628,4.706
		c-0.269,0.129-0.542,0.261-0.819,0.399c-1.235,0.618-1.504,2.377-1.545,4.291L3.379,42.118c-0.034,0.018-0.067,0.039-0.1,0.061
		c-1.114,0.775-1.561,2.26-1.11,3.694C2.574,47.165,3.627,48,4.851,48h50.3c1.224,0,2.276-0.836,2.682-2.13
		C58.281,44.436,57.835,42.953,56.721,42.179z M55.924,45.272C55.87,45.442,55.656,46,55.15,46h-50.3
		c-0.507,0-0.721-0.555-0.773-0.725c-0.151-0.48-0.091-1.114,0.307-1.426L30,30.134l25.617,13.714
		C56.014,44.159,56.074,44.792,55.924,45.272z"/>
</g>
</svg>
