<?xml version="1.0" encoding="utf-8"?>
<!-- Generator: Adobe Illustrator 17.0.0, SVG Export Plug-In . SVG Version: 6.00 Build 0)  -->
<!DOCTYPE svg PUBLIC "-//W3C//DTD SVG 1.1//EN" "http://www.w3.org/Graphics/SVG/1.1/DTD/svg11.dtd">
<svg version="1.1" id="Layer_1" xmlns="http://www.w3.org/2000/svg" xmlns:xlink="http://www.w3.org/1999/xlink" x="0px" y="0px"
	 width="60px" height="60px" viewBox="0 0 60 60" enable-background="new 0 0 60 60" xml:space="preserve">
<g>
	<path fill="#010101" d="M60,21c0-0.552-0.448-1-1-1h-2.437C52.767,8.403,41.849,0,29,0C13.009,0,0,13.009,0,29
		c0,13.215,9.58,24.981,22.779,27.975C22.853,56.992,22.928,57,23.001,57c0.457,0,0.869-0.314,0.974-0.779
		c0.122-0.539-0.215-1.074-0.754-1.196C10.925,52.235,2,41.29,2,29C2,14.112,14.112,2,29,2c11.733,0,21.738,7.525,25.453,18H36
		c-8.972,0-16,7.028-16,16v2.101c-2.279,0.465-4,2.485-4,4.899c0,2.757,2.243,5,5,5c0.773,0,1.497-0.191,2.151-0.506
		c0.043,0.073,0.079,0.15,0.142,0.213c1.012,1.012,1.937,1.951,2.794,2.82C32.692,57.227,35.426,60,42,60h1.871H46h8
		c3.364,0,6-2.636,6-6V43c0-0.552-0.448-1-1-1H25.899C25.5,40.044,23.956,38.5,22,38.101V36c0-7.851,6.149-14,14-14h19.072
		c0.517,1.925,0.834,3.932,0.91,6H39c-6.169,0-11,4.832-11,11c0,0.552,0.448,1,1,1s1-0.448,1-1c0-5.047,3.953-9,9-9h18
		c0.552,0,1-0.448,1-1c0-2.413-0.301-4.757-0.859-7H59C59.552,22,60,21.552,60,21z M24.721,46.307
		c0.575-0.646,0.999-1.429,1.178-2.307H40v6H28.377c-0.283-0.286-0.566-0.573-0.866-0.877C26.656,48.255,25.73,47.317,24.721,46.307
		z M42,44h8v6h-8V44z M37.743,57.364c-2.427-0.83-4.485-2.529-7.367-5.364H40v2C40,55.375,39.292,56.897,37.743,57.364z M43.871,58
		H42c-0.522,0-1.008-0.027-1.48-0.069C41.524,56.848,42,55.373,42,54v-2h8v2c0,2.243-1.757,4-4,4H43.871z M54,58h-3.501
		C51.434,56.945,52,55.552,52,54v-2h6v2C58,56.243,56.243,58,54,58z M58,50h-6v-6h6V50z M24,43c0,1.654-1.346,3-3,3s-3-1.346-3-3
		s1.346-3,3-3S24,41.346,24,43z"/>
</g>
</svg>
