<?xml version="1.0" encoding="utf-8"?>
<!-- Generator: Adobe Illustrator 17.0.0, SVG Export Plug-In . SVG Version: 6.00 Build 0)  -->
<!DOCTYPE svg PUBLIC "-//W3C//DTD SVG 1.1//EN" "http://www.w3.org/Graphics/SVG/1.1/DTD/svg11.dtd">
<svg version="1.1" id="Layer_1" xmlns="http://www.w3.org/2000/svg" xmlns:xlink="http://www.w3.org/1999/xlink" x="0px" y="0px"
	 width="60px" height="60px" viewBox="0 0 60 60" enable-background="new 0 0 60 60" xml:space="preserve">
<g>
	<path fill="#010101" d="M49,5c-0.552,0-1,0.448-1,1c0,0.552,0.448,1,1,1c1.654,0,3,1.346,3,3v25.695C50.008,32.861,46.72,31,43,31
		c-4.847,0-8.963,3.155-10.425,7.516C31.666,37.584,30.401,37,29,37s-2.666,0.584-3.575,1.516C23.963,34.155,19.847,31,15,31
		c-3.72,0-7.008,1.861-9,4.695V10c0-1.654,1.346-3,3-3c0.552,0,1-0.448,1-1c0-0.552-0.448-1-1-1c-2.757,0-5,2.243-5,5v32
		c0,6.065,4.935,11,11,11c6.065,0,11-4.935,11-11c0-1.654,1.346-3,3-3s3,1.346,3,3c0,6.065,4.935,11,11,11c6.065,0,11-4.935,11-11
		V10C54,7.243,51.757,5,49,5z M15,51c-4.962,0-9-4.038-9-9s4.038-9,9-9s9,4.038,9,9S19.962,51,15,51z M43,51c-4.962,0-9-4.038-9-9
		s4.038-9,9-9s9,4.038,9,9S47.962,51,43,51z"/>
</g>
</svg>
