<?xml version="1.0" encoding="utf-8"?>
<!-- Generator: Adobe Illustrator 17.0.0, SVG Export Plug-In . SVG Version: 6.00 Build 0)  -->
<!DOCTYPE svg PUBLIC "-//W3C//DTD SVG 1.1//EN" "http://www.w3.org/Graphics/SVG/1.1/DTD/svg11.dtd">
<svg version="1.1" id="Layer_1" xmlns="http://www.w3.org/2000/svg" xmlns:xlink="http://www.w3.org/1999/xlink" x="0px" y="0px"
	 width="60px" height="60px" viewBox="0 0 60 60" enable-background="new 0 0 60 60" xml:space="preserve">
<g>
	<path fill="#010101" d="M44,19c-4.847,0-8.963,3.155-10.425,7.516C32.666,25.584,31.401,25,30,25s-2.666,0.584-3.575,1.516
		C24.963,22.155,20.847,19,16,19C9.935,19,5,23.935,5,30c0,6.065,4.935,11,11,11c6.065,0,11-4.935,11-11c0-1.654,1.346-3,3-3
		s3,1.346,3,3c0,6.065,4.935,11,11,11c6.065,0,11-4.935,11-11C55,23.935,50.065,19,44,19z M16,39c-4.962,0-9-4.038-9-9s4.038-9,9-9
		s9,4.038,9,9S20.962,39,16,39z M44,39c-4.962,0-9-4.038-9-9s4.038-9,9-9s9,4.038,9,9S48.962,39,44,39z"/>
	<path fill="#010101" d="M2.838,22.731c-0.5-0.236-1.095-0.021-1.33,0.48C0.507,25.343,0,27.627,0,30c0,0.552,0.448,1,1,1
		s1-0.448,1-1c0-2.077,0.444-4.075,1.319-5.939C3.554,23.561,3.338,22.965,2.838,22.731z"/>
	<path fill="#010101" d="M57.162,22.731c-0.5,0.235-0.715,0.83-0.48,1.33C57.556,25.925,58,27.923,58,30c0,0.552,0.448,1,1,1
		s1-0.448,1-1c0-2.373-0.507-4.657-1.508-6.789C58.257,22.71,57.661,22.496,57.162,22.731z"/>
</g>
</svg>
