<?xml version="1.0" encoding="utf-8"?>
<!-- Generator: Adobe Illustrator 17.0.0, SVG Export Plug-In . SVG Version: 6.00 Build 0)  -->
<!DOCTYPE svg PUBLIC "-//W3C//DTD SVG 1.1//EN" "http://www.w3.org/Graphics/SVG/1.1/DTD/svg11.dtd">
<svg version="1.1" id="Layer_1" xmlns="http://www.w3.org/2000/svg" xmlns:xlink="http://www.w3.org/1999/xlink" x="0px" y="0px"
	 width="60px" height="60px" viewBox="0 0 60 60" enable-background="new 0 0 60 60" xml:space="preserve">
<g>
	<path fill="#010101" d="M30,8C15.253,8,0,12.115,0,19c0,3.934,4.982,6.961,12,8.835V54c0,4.123,9.331,6,18,6s18-1.877,18-6V27.835
		c7.018-1.874,12-4.902,12-8.835C60,12.115,44.747,8,30,8z M46,38.504C44.005,40.242,37.938,42,30,42
		c-7.937,0-14.003-1.758-16-3.495v-3.288C17.225,36.921,23.221,38,30,38c6.779,0,12.775-1.079,16-2.784V38.504z M30,58
		c-10.653,0-16-2.564-16-4V40.919C17.294,42.783,23.388,44,30,44c6.612,0,12.706-1.217,16-3.081V54C46,55.436,40.653,58,30,58z
		 M46,32.853C44.036,34.455,38.116,36,30,36c-8.116,0-14.036-1.545-16-3.147v-4.525C18.848,29.419,24.459,30,30,30
		s11.152-0.581,16-1.671V32.853z M30,28c-13.244,0-28-3.696-28-9s14.756-9,28-9s28,3.696,28,9S43.244,28,30,28z"/>
	<path fill="#010101" d="M30,14c-6.685,0-18,1.053-18,5c0,3.947,11.315,5,18,5s18-1.053,18-5C48,15.053,36.685,14,30,14z M30,22
		c-9.992,0-15.811-1.985-16-2.995C14.189,17.985,20.008,16,30,16s15.811,1.985,16,2.995C45.811,20.015,39.992,22,30,22z"/>
</g>
</svg>
