<?xml version="1.0" encoding="utf-8"?>
<!-- Generator: Adobe Illustrator 17.0.0, SVG Export Plug-In . SVG Version: 6.00 Build 0)  -->
<!DOCTYPE svg PUBLIC "-//W3C//DTD SVG 1.1//EN" "http://www.w3.org/Graphics/SVG/1.1/DTD/svg11.dtd">
<svg version="1.1" id="Layer_1" xmlns="http://www.w3.org/2000/svg" xmlns:xlink="http://www.w3.org/1999/xlink" x="0px" y="0px"
	 width="60px" height="60px" viewBox="0 0 60 60" enable-background="new 0 0 60 60" xml:space="preserve">
<g>
	<path fill="#010101" d="M58.999,13C58.444,13,58,13.446,58,14c0,0.551,0.444,1,0.999,1C59.551,15,60,14.551,60,14
		C60,13.446,59.551,13,58.999,13z"/>
	<path fill="#010101" d="M59,17c-0.553,0-1,0.448-1,1v41c0,0.552,0.447,1,1,1c0.553,0,1-0.448,1-1V18C60,17.448,59.553,17,59,17z"/>
	<path fill="#010101" d="M47.487,50.127c-0.455-0.252-1.023-0.117-1.314,0.31c-1.125,1.651-2.778,2.598-4.536,2.598
		C39.333,53.035,37,51.306,37,48c0-5.096-4.304-7.846-8.354-7.846c-1.796,0-3.41,0.523-4.646,1.491
		c-1.234-0.967-2.849-1.491-4.645-1.491C15.305,40.154,11,42.904,11,48c0,3.305-2.334,5.035-4.641,5.035
		c-1.758,0-3.41-0.947-4.532-2.598c-0.291-0.428-0.862-0.562-1.313-0.311c-0.453,0.252-0.638,0.808-0.427,1.281
		c2.369,5.317,6.96,8.367,12.594,8.367c4.414,0,8.705-1.964,11.319-5.096c2.615,3.131,6.907,5.096,11.32,5.096
		c5.635,0,10.225-3.05,12.593-8.368C48.124,50.934,47.939,50.378,47.487,50.127z M35.32,57.774c-4.265,0-8.38-2.088-10.482-5.32
		C24.653,52.171,24.338,52,24,52c-0.339,0-0.654,0.171-0.838,0.455c-2.102,3.231-6.216,5.32-10.481,5.32
		c-2.992,0-5.643-1.014-7.708-2.879c0.453,0.092,0.917,0.14,1.387,0.14C9.579,55.035,13,52.569,13,48
		c0-3.797,3.274-5.846,6.355-5.846c1.59,0,3.016,0.556,3.91,1.524C23.455,43.883,23.721,44,24,44c0.278,0,0.545-0.116,0.734-0.321
		c0.896-0.969,2.321-1.524,3.912-1.524C31.727,42.154,35,44.203,35,48c0,4.569,3.42,7.035,6.638,7.035
		c0.472,0,0.936-0.048,1.392-0.141C40.964,56.76,38.313,57.774,35.32,57.774z"/>
	<path fill="#010101" d="M41,0c-7.72,0-14,6.28-14,14s6.28,14,14,14c7.72,0,14-6.28,14-14S48.72,0,41,0z M41,26
		c-6.617,0-12-5.383-12-12S34.383,2,41,2c6.617,0,12,5.383,12,12S47.617,26,41,26z"/>
	<path fill="#010101" d="M49,14c0,4.411-3.589,8-8,8c-0.553,0-1,0.448-1,1s0.447,1,1,1c5.514,0,10-4.486,10-10c0-0.552-0.447-1-1-1
		C49.447,13,49,13.448,49,14z"/>
</g>
</svg>
