<?xml version="1.0" encoding="utf-8"?>
<!-- Generator: Adobe Illustrator 17.0.0, SVG Export Plug-In . SVG Version: 6.00 Build 0)  -->
<!DOCTYPE svg PUBLIC "-//W3C//DTD SVG 1.1//EN" "http://www.w3.org/Graphics/SVG/1.1/DTD/svg11.dtd">
<svg version="1.1" id="Layer_1" xmlns="http://www.w3.org/2000/svg" xmlns:xlink="http://www.w3.org/1999/xlink" x="0px" y="0px"
	 width="60px" height="60px" viewBox="0 0 60 60" enable-background="new 0 0 60 60" xml:space="preserve">
<g>
	<circle fill="#010101" cx="35" cy="16" r="1"/>
	<path fill="#010101" d="M55,19c-2.57,0-5,2.43-5,5v27c0,3.394-2.453,7-7,7c-4.547,0-7-3.606-7-7V20c0-0.552-0.448-1-1-1
		s-1,0.448-1,1v31c0,4.424,3.366,9,9,9s9-4.576,9-9V24c0-1.458,1.542-3,3-3s3,1.542,3,3v3c0,0.552,0.448,1,1,1s1-0.448,1-1v-3
		C60,21.43,57.57,19,55,19z"/>
	<path fill="#010101" d="M16,0C7.178,0,0,7.178,0,16s7.178,16,16,16c8.822,0,16-7.178,16-16S24.822,0,16,0z M16,30
		C8.28,30,2,23.72,2,16S8.28,2,16,2c7.72,0,14,6.28,14,14S23.72,30,16,30z"/>
	<path fill="#010101" d="M16,26c-0.552,0-1,0.448-1,1s0.448,1,1,1c6.617,0,12-5.383,12-12c0-0.552-0.448-1-1-1s-1,0.448-1,1
		C26,21.514,21.514,26,16,26z"/>
</g>
</svg>
