<?xml version="1.0" encoding="utf-8"?>
<!-- Generator: Adobe Illustrator 17.0.0, SVG Export Plug-In . SVG Version: 6.00 Build 0)  -->
<!DOCTYPE svg PUBLIC "-//W3C//DTD SVG 1.1//EN" "http://www.w3.org/Graphics/SVG/1.1/DTD/svg11.dtd">
<svg version="1.1" id="Layer_1" xmlns="http://www.w3.org/2000/svg" xmlns:xlink="http://www.w3.org/1999/xlink" x="0px" y="0px"
	 width="60px" height="60px" viewBox="0 0 60 60" enable-background="new 0 0 60 60" xml:space="preserve">
<g>
	<path fill="#010101" d="M10.293,26.707c0.391,0.391,1.023,0.391,1.414,0L16,22.414V53c0,0.552,0.447,1,1,1h28c0.553,0,1-0.448,1-1
		V22.414l4.293,4.293c0.391,0.391,1.023,0.391,1.414,0l8-8c0.202-0.202,0.309-0.481,0.291-0.767c-0.017-0.286-0.155-0.55-0.38-0.727
		L49.616,9.355c-2.725-2.141-6.129-3.326-9.594-3.35C40.014,6.004,40.008,6,40,6c-0.005,0-0.009,0.003-0.015,0.003
		C39.962,6.003,39.939,6,39.916,6H22.084c-3.502,0-6.947,1.191-9.7,3.355L2.382,17.214c-0.225,0.177-0.363,0.441-0.38,0.727
		c-0.018,0.285,0.089,0.565,0.291,0.767L10.293,26.707z M38.92,8c-0.488,3.387-3.401,6-6.92,6c-3.519,0-6.432-2.613-6.92-6H38.92z
		 M13.62,10.927C16.021,9.04,19.027,8,22.084,8h0.975c0.499,4.493,4.316,8,8.941,8c4.61,0,8.415-3.485,8.934-7.957
		c2.7,0.204,5.312,1.207,7.445,2.884l9.116,7.163L51,24.586l-5.293-5.293c-0.286-0.286-0.716-0.37-1.09-0.217
		C44.243,19.231,44,19.596,44,20v32H18V20c0-0.404-0.243-0.769-0.617-0.924c-0.374-0.154-0.803-0.07-1.09,0.217L11,24.586
		L4.504,18.09L13.62,10.927z"/>
</g>
</svg>
