<?xml version="1.0" encoding="utf-8"?>
<!-- Generator: Adobe Illustrator 17.0.0, SVG Export Plug-In . SVG Version: 6.00 Build 0)  -->
<!DOCTYPE svg PUBLIC "-//W3C//DTD SVG 1.1//EN" "http://www.w3.org/Graphics/SVG/1.1/DTD/svg11.dtd">
<svg version="1.1" id="Layer_1" xmlns="http://www.w3.org/2000/svg" xmlns:xlink="http://www.w3.org/1999/xlink" x="0px" y="0px"
	 width="60px" height="60px" viewBox="0 0 60 60" enable-background="new 0 0 60 60" xml:space="preserve">
<g>
	<path fill="#010101" d="M57.357,43.066l-34-13c-0.309-0.117-0.653-0.076-0.925,0.11C22.162,30.363,22,30.671,22,31
		c0,1.493-2.164,3-7,3c-4.208,0-7-1.806-7-3c0-0.552-0.447-1-1-1H4c-2.542,0-4,1.458-4,4v19c0,0.552,0.447,1,1,1h58
		c0.553,0,1-0.448,1-1v-7C60,44.679,59.104,43.689,57.357,43.066z M58,46H31c0-1.533,0.468-2,2-2h8c1.629,0,3.274-1.882,3.933-3.543
		l11.731,4.485C57.551,45.258,58,45.614,58,46z M4,32h2.181c0.837,2.279,4.473,4,8.819,4c5.396,0,7.968-1.708,8.74-3.646
		l5.475,2.093l-1.908,1.832c-0.398,0.382-0.411,1.016-0.029,1.414C27.475,37.897,27.737,38,28,38c0.249,0,0.499-0.092,0.692-0.279
		l2.588-2.485l2.275,0.87l-1.24,1.165c-0.402,0.378-0.423,1.011-0.044,1.414C32.468,38.894,32.733,39,33,39
		c0.245,0,0.491-0.09,0.685-0.271l1.947-1.829l7.45,2.848C42.681,40.76,41.546,42,41,42h-8c-2.654,0-4,1.346-4,4H9.93
		C9.422,42.031,5.969,38.578,2,38.07V34C2,32.561,2.56,32,4,32z M2,40.096C4.872,40.59,7.41,43.127,7.904,46H2V40.096z M2,52v-4h56
		v4H2z"/>
	<path fill="#010101" d="M59,8H1C0.447,8,0,8.448,0,9v7c0,1.321,0.896,2.312,2.643,2.934l21.562,8.244c0,0,0,0,0,0l12.437,4.755
		C36.759,31.978,36.88,32,37,32c0.199,0,0.397-0.06,0.567-0.176C37.838,31.637,38,31.329,38,31c0-1.493,2.164-3,7-3
		c4.208,0,7,1.806,7,3c0,0.552,0.447,1,1,1h3c2.542,0,4-1.458,4-4V9C60,8.448,59.553,8,59,8z M58,21.904
		c-2.872-0.494-5.41-3.032-5.904-5.904H58V21.904z M58,10v4H2v-4H58z M2,16h27c0,1.533-0.468,2-2,2h-8
		c-1.629,0-3.274,1.882-3.933,3.543L3.336,17.058C2.449,16.742,2,16.386,2,16z M56,30h-2.181c-0.837-2.279-4.473-4-8.819-4
		c-5.396,0-7.968,1.708-8.74,3.647l-5.475-2.093l1.908-1.832c0.398-0.382,0.411-1.016,0.029-1.414
		c-0.382-0.398-1.017-0.412-1.414-0.029l-2.588,2.485l-2.275-0.87l1.24-1.165c0.402-0.378,0.423-1.011,0.044-1.414
		c-0.377-0.401-1.009-0.422-1.413-0.044L24.368,25.1l-7.45-2.848C17.319,21.24,18.454,20,19,20h8c2.654,0,4-1.346,4-4h19.07
		c0.508,3.969,3.961,7.422,7.93,7.93V28C58,29.44,57.44,30,56,30z"/>
</g>
</svg>
