<?xml version="1.0" encoding="utf-8"?>
<!-- Generator: Adobe Illustrator 17.0.0, SVG Export Plug-In . SVG Version: 6.00 Build 0)  -->
<!DOCTYPE svg PUBLIC "-//W3C//DTD SVG 1.1//EN" "http://www.w3.org/Graphics/SVG/1.1/DTD/svg11.dtd">
<svg version="1.1" id="Layer_1" xmlns="http://www.w3.org/2000/svg" xmlns:xlink="http://www.w3.org/1999/xlink" x="0px" y="0px"
	 width="60px" height="60px" viewBox="0 0 60 60" enable-background="new 0 0 60 60" xml:space="preserve">
<g>
	<path fill="#010101" d="M55,6c-0.553,0-1,0.448-1,1v31c0,7.72-5.832,14-13,14h-7.08c-0.488-3.387-3.401-6-6.92-6
		c-3.519,0-6.432,2.613-6.92,6H15c-0.553,0-1,0.448-1,1s0.447,1,1,1h5.08c0.488,3.387,3.401,6,6.92,6c3.519,0,6.432-2.613,6.92-6H41
		c8.271,0,15-7.178,15-16V7C56,6.448,55.553,6,55,6z M27,58c-2.757,0-5-2.243-5-5s2.243-5,5-5c2.757,0,5,2.243,5,5S29.757,58,27,58z
		"/>
	<path fill="#010101" d="M55,0c-0.553,0-1,0.448-1,1v2c0,0.552,0.447,1,1,1c0.553,0,1-0.448,1-1V1C56,0.448,55.553,0,55,0z"/>
	<path fill="#010101" d="M27,35.18C28.821,38.997,32.88,42,37,42h4c4.579,0,7-2.42,7-7v1c0,0.552,0.447,1,1,1c0.553,0,1-0.448,1-1
		v-6c0-0.552-0.447-1-1-1c-0.553,0-1,0.448-1,1v1c0-6.785-4.598-11-12-11h-9h-9c-7.402,0-12,4.215-12,11v-1c0-0.552-0.447-1-1-1
		c-0.553,0-1,0.448-1,1v6c0,0.552,0.447,1,1,1c0.553,0,1-0.448,1-1v-1c0,4.58,2.421,7,7,7h4C21.12,42,25.179,38.997,27,35.18z
		 M46,31v4c0,3.458-1.542,5-5,5h-4c-4.458,0-9-4.542-9-9v-9h8C42.262,22,46,25.364,46,31z M8,35v-4c0-5.636,3.738-9,10-9h8v9
		c0,4.458-4.542,9-9,9h-4C9.542,40,8,38.458,8,35z"/>
</g>
</svg>
