<?xml version="1.0" encoding="utf-8"?>
<!-- Generator: Adobe Illustrator 17.0.0, SVG Export Plug-In . SVG Version: 6.00 Build 0)  -->
<!DOCTYPE svg PUBLIC "-//W3C//DTD SVG 1.1//EN" "http://www.w3.org/Graphics/SVG/1.1/DTD/svg11.dtd">
<svg version="1.1" id="Layer_1" xmlns="http://www.w3.org/2000/svg" xmlns:xlink="http://www.w3.org/1999/xlink" x="0px" y="0px"
	 width="60px" height="60px" viewBox="0 0 60 60" enable-background="new 0 0 60 60" xml:space="preserve">
<g>
	<path fill="#010101" d="M13,60h16c0.553,0,1-0.448,1-1V25c0-0.456,0.174-1,1-1c0.826,0,1,0.544,1,1v34c0,0.552,0.447,1,1,1h16
		c0.553,0,1-0.448,1-1V1c0-0.552-0.447-1-1-1H13c-0.553,0-1,0.448-1,1v58C12,59.552,12.447,60,13,60z M14,8h5.943
		c-0.355,3.402-2.542,5.588-5.943,5.943V8z M34,58V25c0-1.445-0.939-3-3-3c-2.062,0-3,1.555-3,3v33H14V15.959
		c4.569-0.38,7.579-3.39,7.959-7.959h18.082c0.38,4.569,3.39,7.579,7.959,7.959V58H34z M28,6V2h6v4H28z M48,13.943
		c-3.401-0.355-5.588-2.541-5.943-5.943H48V13.943z M48,6H36V2h12V6z M26,2v4H14V2H26z"/>
</g>
</svg>
