<?xml version="1.0" encoding="utf-8"?>
<!-- Generator: Adobe Illustrator 17.0.0, SVG Export Plug-In . SVG Version: 6.00 Build 0)  -->
<!DOCTYPE svg PUBLIC "-//W3C//DTD SVG 1.1//EN" "http://www.w3.org/Graphics/SVG/1.1/DTD/svg11.dtd">
<svg version="1.1" id="Layer_2" xmlns="http://www.w3.org/2000/svg" xmlns:xlink="http://www.w3.org/1999/xlink" x="0px" y="0px"
	 width="60px" height="60px" viewBox="0 0 60 60" enable-background="new 0 0 60 60" xml:space="preserve">
<polygon fill="#010101" points="27.982,33.632 32.018,33.632 30,26.368 "/>
<path fill="#010101" d="M60,11c0-6.065-4.935-11-11-11H11C4.935,0,0,4.935,0,11v38c0,6.065,4.935,11,11,11h38
	c6.065,0,11-4.935,11-11V11z M37,26c-0.553,0-1-0.447-1-1c0-0.553,0.447-1,1-1h1v-3c0-0.553,0.447-1,1-1c0.553,0,1,0.447,1,1v3h1
	c0.553,0,1,0.447,1,1c0,0.553-0.447,1-1,1h-1v10c0,1.44,0.56,2,2,2c0.553,0,1,0.447,1,1c0,0.553-0.447,1-1,1c-2.542,0-4-1.458-4-4
	V26H37z M34,21v18c0,0.553-0.447,1-1,1c-0.553,0-1-0.447-1-1V21c0-0.553,0.447-1,1-1C33.553,20,34,20.447,34,21z M29.268,39.964
	C29.178,39.988,29.088,40,28.999,40c-0.438,0-0.84-0.29-0.963-0.732L26.573,34h-5.146l-1.463,5.268
	c-0.147,0.532-0.7,0.84-1.231,0.696c-0.532-0.148-0.844-0.699-0.696-1.231l5-18C23.156,20.3,23.551,20,24,20
	c0.449,0,0.844,0.3,0.964,0.732l5,18C30.111,39.265,29.8,39.815,29.268,39.964z"/>
</svg>
