<?xml version="1.0" encoding="utf-8"?>
<!-- Generator: Adobe Illustrator 17.0.0, SVG Export Plug-In . SVG Version: 6.00 Build 0)  -->
<!DOCTYPE svg PUBLIC "-//W3C//DTD SVG 1.1//EN" "http://www.w3.org/Graphics/SVG/1.1/DTD/svg11.dtd">
<svg version="1.1" id="Layer_2" xmlns="http://www.w3.org/2000/svg" xmlns:xlink="http://www.w3.org/1999/xlink" x="0px" y="0px"
	 width="60px" height="60px" viewBox="0 0 60 60" enable-background="new 0 0 60 60" xml:space="preserve">
<path fill="#010101" d="M59.909,1.435c-0.02-0.067-0.035-0.135-0.062-0.2c-0.028-0.069-0.067-0.131-0.103-0.196
	c-0.027-0.05-0.049-0.101-0.08-0.148c-0.146-0.22-0.336-0.408-0.555-0.555c-0.048-0.032-0.099-0.053-0.148-0.081
	c-0.065-0.036-0.127-0.075-0.196-0.103c-0.065-0.027-0.133-0.042-0.2-0.062c-0.058-0.017-0.113-0.039-0.173-0.051
	C58.262,0.014,58.131,0,58,0H40c-1.105,0-2,0.896-2,2c0,1.105,0.895,2,2,2h13.172L16.586,40.586c-0.781,0.781-0.781,2.047,0,2.828
	C16.977,43.805,17.488,44,18,44c0.512,0,1.023-0.195,1.414-0.586L56,6.828V20c0,1.104,0.895,2,2,2c1.104,0,2-0.896,2-2V2
	c0-0.131-0.014-0.262-0.04-0.392C59.949,1.549,59.926,1.493,59.909,1.435z"/>
</svg>
