<?xml version="1.0" encoding="utf-8"?>
<!-- Generator: Adobe Illustrator 17.0.0, SVG Export Plug-In . SVG Version: 6.00 Build 0)  -->
<!DOCTYPE svg PUBLIC "-//W3C//DTD SVG 1.1//EN" "http://www.w3.org/Graphics/SVG/1.1/DTD/svg11.dtd">
<svg version="1.1" id="Layer_2" xmlns="http://www.w3.org/2000/svg" xmlns:xlink="http://www.w3.org/1999/xlink" x="0px" y="0px"
	 width="60px" height="60px" viewBox="0 0 60 60" enable-background="new 0 0 60 60" xml:space="preserve">
<path fill="#010101" d="M22,2c0-1.104-0.896-2-2-2H2C1.869,0,1.738,0.014,1.608,0.04c-0.06,0.012-0.115,0.034-0.173,0.051
	c-0.067,0.02-0.135,0.035-0.2,0.062C1.167,0.181,1.105,0.22,1.04,0.256C0.99,0.283,0.939,0.305,0.891,0.336
	C0.672,0.483,0.483,0.672,0.336,0.891C0.305,0.939,0.283,0.99,0.256,1.04C0.22,1.104,0.181,1.167,0.153,1.236
	c-0.027,0.065-0.042,0.133-0.062,0.2C0.074,1.493,0.051,1.549,0.04,1.608C0.014,1.738,0,1.869,0,2v18c0,1.104,0.896,2,2,2
	s2-0.896,2-2V6.828l36.586,36.586C40.977,43.805,41.488,44,42,44s1.023-0.195,1.414-0.586c0.781-0.781,0.781-2.047,0-2.828L6.828,4
	H20C21.104,4,22,3.105,22,2z"/>
</svg>
