<?xml version="1.0" encoding="utf-8"?>
<!-- Generator: Adobe Illustrator 17.0.0, SVG Export Plug-In . SVG Version: 6.00 Build 0)  -->
<!DOCTYPE svg PUBLIC "-//W3C//DTD SVG 1.1//EN" "http://www.w3.org/Graphics/SVG/1.1/DTD/svg11.dtd">
<svg version="1.1" id="Layer_2" xmlns="http://www.w3.org/2000/svg" xmlns:xlink="http://www.w3.org/1999/xlink" x="0px" y="0px"
	 width="60px" height="60px" viewBox="0 0 60 60" enable-background="new 0 0 60 60" xml:space="preserve">
<path fill="#010101" d="M58,28H33.463l13.27-23.001c0.552-0.956,0.224-2.18-0.733-2.731c-0.957-0.553-2.181-0.225-2.731,0.733
	L30,25.998L16.732,3.001c-0.552-0.958-1.775-1.286-2.731-0.733c-0.957,0.552-1.285,1.775-0.733,2.731L26.537,28H2
	c-1.105,0-2,0.896-2,2s0.895,2,2,2h24.537l-13.27,23.001c-0.552,0.956-0.224,2.18,0.733,2.731C14.315,57.915,14.659,58,14.998,58
	c0.691,0,1.364-0.358,1.734-1.001L30,34.002l13.268,22.997C43.638,57.642,44.31,58,45.002,58c0.339,0,0.683-0.086,0.997-0.268
	c0.957-0.552,1.285-1.775,0.733-2.731L33.463,32H58c1.104,0,2-0.896,2-2S59.104,28,58,28z"/>
</svg>
