<?xml version="1.0" encoding="utf-8"?>
<!-- Generator: Adobe Illustrator 17.0.0, SVG Export Plug-In . SVG Version: 6.00 Build 0)  -->
<!DOCTYPE svg PUBLIC "-//W3C//DTD SVG 1.1//EN" "http://www.w3.org/Graphics/SVG/1.1/DTD/svg11.dtd">
<svg version="1.1" id="Layer_2" xmlns="http://www.w3.org/2000/svg" xmlns:xlink="http://www.w3.org/1999/xlink" x="0px" y="0px"
	 width="60px" height="60px" viewBox="0 0 60 60" enable-background="new 0 0 60 60" xml:space="preserve">
<path fill="#010101" d="M60,23.001c0-0.553-0.447-1-1-1H43.857l7.571-13.115c0.276-0.478,0.112-1.09-0.366-1.366l-12.124-7
	c-0.23-0.133-0.504-0.168-0.759-0.1c-0.256,0.068-0.475,0.236-0.607,0.466l-7.571,13.115L22.429,0.885
	c-0.277-0.48-0.891-0.644-1.366-0.366l-12.125,7C8.708,7.652,8.54,7.871,8.472,8.127c-0.068,0.256-0.033,0.529,0.1,0.759
	l7.572,13.115H1c-0.553,0-1,0.447-1,1v14c0,0.553,0.447,1,1,1h15.144L8.572,51.116c-0.133,0.229-0.168,0.503-0.1,0.759
	c0.068,0.256,0.236,0.475,0.466,0.607l12.124,7c0.153,0.088,0.326,0.134,0.5,0.134c0.087,0,0.174-0.012,0.259-0.034
	c0.256-0.068,0.475-0.236,0.607-0.466l7.572-13.117l7.572,13.115c0.276,0.479,0.889,0.642,1.366,0.366l12.124-6.998
	c0.23-0.133,0.397-0.351,0.466-0.607c0.068-0.256,0.033-0.529-0.1-0.759l-7.572-13.115H59c0.553,0,1-0.447,1-1V23.001z"/>
</svg>
