<?xml version="1.0" encoding="utf-8"?>
<!-- Generator: Adobe Illustrator 17.0.0, SVG Export Plug-In . SVG Version: 6.00 Build 0)  -->
<!DOCTYPE svg PUBLIC "-//W3C//DTD SVG 1.1//EN" "http://www.w3.org/Graphics/SVG/1.1/DTD/svg11.dtd">
<svg version="1.1" id="Layer_2" xmlns="http://www.w3.org/2000/svg" xmlns:xlink="http://www.w3.org/1999/xlink" x="0px" y="0px"
	 width="60px" height="60px" viewBox="0 0 60 60" enable-background="new 0 0 60 60" xml:space="preserve">
<g>
	<path fill="#010101" d="M49,0H11C4.935,0,0,4.935,0,11v38c0,6.065,4.935,11,11,11h38c6.065,0,11-4.935,11-11V11
		C60,4.935,55.065,0,49,0z M48,39c0,0.553-0.447,1-1,1H20c-0.266,0-0.52-0.105-0.707-0.293l-9-9c-0.391-0.391-0.391-1.023,0-1.414
		l9-9C19.48,20.106,19.734,20,20,20h27c0.553,0,1,0.447,1,1V39z"/>
	<path fill="#010101" d="M37.707,25.293c-0.391-0.391-1.023-0.391-1.414,0L33,28.586l-3.293-3.293c-0.391-0.391-1.023-0.391-1.414,0
		c-0.391,0.391-0.391,1.023,0,1.414L31.586,30l-3.293,3.293c-0.391,0.391-0.391,1.023,0,1.414C28.488,34.902,28.744,35,29,35
		c0.256,0,0.512-0.098,0.707-0.293L33,31.414l3.293,3.293C36.488,34.902,36.744,35,37,35c0.256,0,0.512-0.098,0.707-0.293
		c0.391-0.391,0.391-1.023,0-1.414L34.414,30l3.293-3.293C38.098,26.316,38.098,25.684,37.707,25.293z"/>
</g>
</svg>
