<?xml version="1.0" encoding="utf-8"?>
<!-- Generator: Adobe Illustrator 17.0.0, SVG Export Plug-In . SVG Version: 6.00 Build 0)  -->
<!DOCTYPE svg PUBLIC "-//W3C//DTD SVG 1.1//EN" "http://www.w3.org/Graphics/SVG/1.1/DTD/svg11.dtd">
<svg version="1.1" id="Layer_2" xmlns="http://www.w3.org/2000/svg" xmlns:xlink="http://www.w3.org/1999/xlink" x="0px" y="0px"
	 width="60px" height="60px" viewBox="0 0 60 60" enable-background="new 0 0 60 60" xml:space="preserve">
<path fill="#010101" d="M49,0H11C4.935,0,0,4.935,0,11v38c0,6.065,4.935,11,11,11h38c6.065,0,11-4.935,11-11V11
	C60,4.935,55.065,0,49,0z M25.707,40.293c0.391,0.391,0.391,1.023,0,1.414C25.512,41.902,25.256,42,25,42
	c-0.256,0-0.512-0.098-0.707-0.293l-7.999-7.999c-0.093-0.092-0.166-0.203-0.217-0.326c-0.101-0.244-0.101-0.52,0-0.764
	c0.051-0.123,0.124-0.234,0.217-0.326l7.999-7.999c0.391-0.391,1.023-0.391,1.414,0c0.391,0.391,0.391,1.023,0,1.414L19.414,32H44
	V21c0-0.553,0.447-1,1-1c0.553,0,1,0.447,1,1v12c0,0.553-0.447,1-1,1H19.414L25.707,40.293z"/>
</svg>
