<?xml version="1.0" encoding="utf-8"?>
<!-- Generator: Adobe Illustrator 17.0.0, SVG Export Plug-In . SVG Version: 6.00 Build 0)  -->
<!DOCTYPE svg PUBLIC "-//W3C//DTD SVG 1.1//EN" "http://www.w3.org/Graphics/SVG/1.1/DTD/svg11.dtd">
<svg version="1.1" id="Layer_2" xmlns="http://www.w3.org/2000/svg" xmlns:xlink="http://www.w3.org/1999/xlink" x="0px" y="0px"
	 width="60px" height="60px" viewBox="0 0 60 60" enable-background="new 0 0 60 60" xml:space="preserve">
<path fill="#010101" d="M60,11c0-6.065-4.935-11-11-11H11C4.935,0,0,4.935,0,11v38c0,6.065,4.935,11,11,11h38
	c6.065,0,11-4.935,11-11V11z M30.707,29.293c0.391,0.391,0.391,1.023,0,1.414C30.512,30.902,30.256,31,30,31
	c-0.256,0-0.512-0.098-0.707-0.293L12,13.414V21c0,0.553-0.447,1-1,1c-0.553,0-1-0.447-1-1V11c0-0.13,0.026-0.26,0.077-0.382
	c0.101-0.245,0.296-0.44,0.541-0.541C10.74,10.027,10.87,10,11,10h10c0.553,0,1,0.447,1,1c0,0.553-0.447,1-1,1h-7.586L30.707,29.293
	z M9,29c0.553,0,1,0.447,1,1c0,11.028,8.972,20,20,20c11.028,0,20-8.972,20-20c0-11.028-8.972-20-20-20c-0.553,0-1-0.447-1-1
	c0-0.553,0.447-1,1-1c12.131,0,22,9.869,22,22s-9.869,22-22,22C17.869,52,8,42.131,8,30C8,29.447,8.447,29,9,29z"/>
</svg>
