<?xml version="1.0" encoding="utf-8"?>
<!-- Generator: Adobe Illustrator 17.0.0, SVG Export Plug-In . SVG Version: 6.00 Build 0)  -->
<!DOCTYPE svg PUBLIC "-//W3C//DTD SVG 1.1//EN" "http://www.w3.org/Graphics/SVG/1.1/DTD/svg11.dtd">
<svg version="1.1" id="Layer_2" xmlns="http://www.w3.org/2000/svg" xmlns:xlink="http://www.w3.org/1999/xlink" x="0px" y="0px"
	 width="60px" height="60px" viewBox="0 0 60 60" enable-background="new 0 0 60 60" xml:space="preserve">
<path fill="#010101" d="M19.414,44.586c-0.781-0.781-2.047-0.781-2.828,0c-0.781,0.781-0.781,2.047,0,2.828l11.999,11.999
	c0.093,0.094,0.196,0.177,0.307,0.251c0.048,0.032,0.099,0.053,0.148,0.08c0.065,0.036,0.127,0.075,0.196,0.103
	c0.065,0.027,0.133,0.042,0.2,0.062c0.058,0.017,0.113,0.039,0.173,0.051C29.738,59.986,29.869,60,30,60
	c0.131,0,0.262-0.014,0.392-0.04c0.06-0.012,0.115-0.034,0.173-0.051c0.067-0.02,0.135-0.035,0.2-0.062
	c0.069-0.028,0.131-0.067,0.196-0.103c0.05-0.027,0.101-0.049,0.148-0.08c0.11-0.074,0.213-0.157,0.307-0.251l11.999-11.999
	c0.781-0.781,0.781-2.047,0-2.828c-0.781-0.781-2.047-0.781-2.828,0L32,53.172V36h10c1.104,0,2-0.896,2-2s-0.896-2-2-2H32v-4h10
	c1.104,0,2-0.896,2-2s-0.896-2-2-2H32V2c0-1.104-0.896-2-2-2c-1.105,0-2,0.896-2,2v22H18c-1.105,0-2,0.896-2,2s0.895,2,2,2h10v4H18
	c-1.105,0-2,0.896-2,2s0.895,2,2,2h10v17.172L19.414,44.586z"/>
</svg>
