<?xml version="1.0" encoding="utf-8"?>
<!-- Generator: Adobe Illustrator 17.0.0, SVG Export Plug-In . SVG Version: 6.00 Build 0)  -->
<!DOCTYPE svg PUBLIC "-//W3C//DTD SVG 1.1//EN" "http://www.w3.org/Graphics/SVG/1.1/DTD/svg11.dtd">
<svg version="1.1" id="Layer_2" xmlns="http://www.w3.org/2000/svg" xmlns:xlink="http://www.w3.org/1999/xlink" x="0px" y="0px"
	 width="60px" height="60px" viewBox="0 0 60 60" enable-background="new 0 0 60 60" xml:space="preserve">
<path fill="#010101" d="M59.575,28.175L30.685,0.28c-0.387-0.373-1.002-0.373-1.389,0l-29,28c-0.294,0.283-0.386,0.717-0.233,1.095
	C0.216,29.753,0.583,30,0.99,30h13v29c0,0.553,0.447,1,1,1h30c0.553,0,1-0.447,1-1V30h13c0.008,0,0.015,0,0.02,0
	c0.553,0,1-0.447,1-1C60.01,28.657,59.838,28.355,59.575,28.175z"/>
</svg>
