<?xml version="1.0" encoding="utf-8"?>
<!-- Generator: Adobe Illustrator 17.0.0, SVG Export Plug-In . SVG Version: 6.00 Build 0)  -->
<!DOCTYPE svg PUBLIC "-//W3C//DTD SVG 1.1//EN" "http://www.w3.org/Graphics/SVG/1.1/DTD/svg11.dtd">
<svg version="1.1" id="Layer_1" xmlns="http://www.w3.org/2000/svg" xmlns:xlink="http://www.w3.org/1999/xlink" x="0px" y="0px"
	 width="48px" height="48px" viewBox="0 0 48 48" enable-background="new 0 0 48 48" xml:space="preserve">
<path fill="#231F20" d="M41,6h-7V5c0-0.552-0.448-1-1-1h-3.101C29.435,1.721,27.415,0,25,0s-4.435,1.721-4.899,4H17
	c-0.552,0-1,0.448-1,1v1H9C8.448,6,8,6.448,8,7v40c0,0.552,0.448,1,1,1h32c0.552,0,1-0.448,1-1V7C42,6.448,41.552,6,41,6z M17,14h16
	c0.552,0,1-0.448,1-1v-1h2v28H14V12h2v1C16,13.552,16.448,14,17,14z M18,6h3c0.552,0,1-0.448,1-1c0-1.654,1.346-3,3-3s3,1.346,3,3
	c0,0.552,0.448,1,1,1h3v6H18V6z M40,46H10V8h6v2h-3c-0.552,0-1,0.448-1,1v30c0,0.552,0.448,1,1,1h24c0.552,0,1-0.448,1-1V11
	c0-0.552-0.448-1-1-1h-3V8h6V46z"/>
</svg>
