<?xml version="1.0" encoding="utf-8"?>
<!-- Generator: Adobe Illustrator 17.0.0, SVG Export Plug-In . SVG Version: 6.00 Build 0)  -->
<!DOCTYPE svg PUBLIC "-//W3C//DTD SVG 1.1//EN" "http://www.w3.org/Graphics/SVG/1.1/DTD/svg11.dtd">
<svg version="1.1" id="Layer_1" xmlns="http://www.w3.org/2000/svg" xmlns:xlink="http://www.w3.org/1999/xlink" x="0px" y="0px"
	 width="48px" height="48px" viewBox="0 0 48 48" enable-background="new 0 0 48 48" xml:space="preserve">
<g>
	<path fill="#231F20" d="M41,4h-4c-0.552,0-1,0.448-1,1s0.448,1,1,1h3v40H6V6h3c0.552,0,1-0.448,1-1S9.552,4,9,4H5
		C4.448,4,4,4.448,4,5v42c0,0.552,0.448,1,1,1h36c0.552,0,1-0.448,1-1V5C42,4.448,41.552,4,41,4z"/>
	<path fill="#231F20" d="M13,10h20c0.552,0,1-0.448,1-1V5c0-0.552-0.448-1-1-1h-5.101C27.435,1.721,25.415,0,23,0
		s-4.435,1.721-4.899,4H13c-0.552,0-1,0.448-1,1v4C12,9.552,12.448,10,13,10z M14,6h5c0.552,0,1-0.448,1-1c0-1.654,1.346-3,3-3
		s3,1.346,3,3c0,0.552,0.448,1,1,1h5v2H14V6z"/>
	<path fill="#231F20" d="M10,9c0-0.552-0.448-1-1-1S8,8.448,8,9v34c0,0.552,0.448,1,1,1h28c0.552,0,1-0.448,1-1V9
		c0-0.552-0.448-1-1-1s-1,0.448-1,1v33H10V9z"/>
	<path fill="#231F20" d="M19,18h12c0.552,0,1-0.448,1-1s-0.448-1-1-1H19c-0.552,0-1,0.448-1,1S18.448,18,19,18z"/>
	<path fill="#231F20" d="M19,24h12c0.552,0,1-0.448,1-1s-0.448-1-1-1H19c-0.552,0-1,0.448-1,1S18.448,24,19,24z"/>
	<path fill="#231F20" d="M19,30h12c0.552,0,1-0.448,1-1s-0.448-1-1-1H19c-0.552,0-1,0.448-1,1S18.448,30,19,30z"/>
	<path fill="#231F20" d="M19,36h12c0.552,0,1-0.448,1-1s-0.448-1-1-1H19c-0.552,0-1,0.448-1,1S18.448,36,19,36z"/>
	<path fill="#231F20" d="M14,18h1c0.552,0,1-0.448,1-1s-0.448-1-1-1h-1c-0.552,0-1,0.448-1,1S13.448,18,14,18z"/>
	<path fill="#231F20" d="M14,24h1c0.552,0,1-0.448,1-1s-0.448-1-1-1h-1c-0.552,0-1,0.448-1,1S13.448,24,14,24z"/>
	<path fill="#231F20" d="M14,30h1c0.552,0,1-0.448,1-1s-0.448-1-1-1h-1c-0.552,0-1,0.448-1,1S13.448,30,14,30z"/>
	<path fill="#231F20" d="M14,36h1c0.552,0,1-0.448,1-1s-0.448-1-1-1h-1c-0.552,0-1,0.448-1,1S13.448,36,14,36z"/>
</g>
</svg>
