<?xml version="1.0" encoding="utf-8"?>
<!-- Generator: Adobe Illustrator 17.0.0, SVG Export Plug-In . SVG Version: 6.00 Build 0)  -->
<!DOCTYPE svg PUBLIC "-//W3C//DTD SVG 1.1//EN" "http://www.w3.org/Graphics/SVG/1.1/DTD/svg11.dtd">
<svg version="1.1" id="Layer_1" xmlns="http://www.w3.org/2000/svg" xmlns:xlink="http://www.w3.org/1999/xlink" x="0px" y="0px"
	 width="48px" height="48px" viewBox="0 0 48 48" enable-background="new 0 0 48 48" xml:space="preserve">
<g>
	<path fill="#231F20" d="M35,22c-7.168,0-13,5.832-13,13c0,7.169,5.832,13,13,13c7.168,0,13-5.831,13-13C48,27.832,42.168,22,35,22z
		 M35,46c-6.065,0-11-4.935-11-11s4.935-11,11-11s11,4.935,11,11S41.065,46,35,46z"/>
	<path fill="#231F20" d="M40.808,31.053l-6.932,7.596l-4.715-4.714c-0.391-0.391-1.023-0.391-1.414,0s-0.391,1.023,0,1.414
		l6.195,6.195l8.342-9.143c0.374-0.408,0.344-1.041-0.064-1.413C41.814,30.618,41.182,30.644,40.808,31.053z"/>
	<path fill="#231F20" d="M20,42H5c-1.654,0-3-1.346-3-3V8h6v2H5c-0.553,0-1,0.448-1,1v28c0,0.552,0.447,1,1,1h14
		c0.553,0,1-0.448,1-1s-0.447-1-1-1H6V12h2v1c0,0.552,0.447,1,1,1h16c0.553,0,1-0.448,1-1v-1h2v7c0,0.552,0.447,1,1,1s1-0.448,1-1
		v-8c0-0.552-0.447-1-1-1h-3V8h6v11c0,0.552,0.447,1,1,1s1-0.448,1-1V7c0-0.552-0.447-1-1-1h-7V5c0-0.552-0.447-1-1-1h-3.09
		C21.532,1.926,19.961,0,17,0s-4.532,1.926-4.91,4H9C8.447,4,8,4.448,8,5v1H1C0.447,6,0,6.448,0,7v32c0,2.757,2.243,5,5,5h15
		c0.553,0,1-0.448,1-1S20.553,42,20,42z M10,6h3c0.553,0,1-0.448,1-1c0-0.307,0.084-3,3-3s3,2.693,3,3c0,0.552,0.447,1,1,1h3v6H10V6
		z"/>
	<path fill="#231F20" d="M21,18H11c-0.553,0-1,0.448-1,1s0.447,1,1,1h10c0.553,0,1-0.448,1-1S21.553,18,21,18z"/>
	<path fill="#231F20" d="M21,22H11c-0.553,0-1,0.448-1,1s0.447,1,1,1h10c0.553,0,1-0.448,1-1S21.553,22,21,22z"/>
	<path fill="#231F20" d="M21,26H11c-0.553,0-1,0.448-1,1s0.447,1,1,1h10c0.553,0,1-0.448,1-1S21.553,26,21,26z"/>
	<path fill="#231F20" d="M17,32c0.553,0,1-0.448,1-1s-0.447-1-1-1h-6c-0.553,0-1,0.448-1,1s0.447,1,1,1H17z"/>
</g>
</svg>
