<?xml version="1.0" encoding="utf-8"?>
<!-- Generator: Adobe Illustrator 17.0.0, SVG Export Plug-In . SVG Version: 6.00 Build 0)  -->
<!DOCTYPE svg PUBLIC "-//W3C//DTD SVG 1.1//EN" "http://www.w3.org/Graphics/SVG/1.1/DTD/svg11.dtd">
<svg version="1.1" id="Layer_1" xmlns="http://www.w3.org/2000/svg" xmlns:xlink="http://www.w3.org/1999/xlink" x="0px" y="0px"
	 width="48px" height="48px" viewBox="0 0 48 48" enable-background="new 0 0 48 48" xml:space="preserve">
<g>
	<path fill="#231F20" d="M47.707,29.29l-5-5c-0.391-0.391-1.023-0.391-1.414,0L26.289,39.293c0,0,0,0,0,0c0,0,0,0,0,0
		c-0.084,0.084-0.145,0.185-0.194,0.292c-0.012,0.026-0.024,0.051-0.033,0.078c-0.008,0.021-0.02,0.04-0.026,0.062l-2,7
		c-0.1,0.35-0.003,0.725,0.254,0.982C24.479,47.898,24.734,48,24.996,48c0.091,0,0.184-0.013,0.275-0.039l7-2
		c0.022-0.006,0.042-0.019,0.063-0.027c0.026-0.009,0.049-0.02,0.074-0.032c0.108-0.049,0.21-0.111,0.295-0.195l15.004-15.003
		C47.894,30.517,48,30.262,48,29.997S47.894,29.478,47.707,29.29z M31.996,43.586L28.41,40L38,30.411l3.586,3.586L31.996,43.586z
		 M27.49,41.908l2.597,2.597l-3.635,1.039L27.49,41.908z M43,32.583l-3.586-3.586L42,26.411l3.586,3.586L43,32.583z"/>
	<path fill="#231F20" d="M20,42H5c-1.654,0-3-1.346-3-3V8h6v2H5c-0.552,0-1,0.448-1,1v28c0,0.552,0.448,1,1,1h14
		c0.552,0,1-0.448,1-1s-0.448-1-1-1H6V12h2v1c0,0.552,0.448,1,1,1h16c0.552,0,1-0.448,1-1v-1h2v8c0,0.552,0.448,1,1,1s1-0.448,1-1
		v-9c0-0.552-0.448-1-1-1h-3V8h6v12c0,0.552,0.448,1,1,1s1-0.448,1-1V7c0-0.552-0.448-1-1-1h-7V5c0-0.552-0.448-1-1-1h-3.09
		C21.533,1.926,19.961,0,17,0c-2.962,0-4.533,1.926-4.91,4H9C8.448,4,8,4.448,8,5v1H1C0.448,6,0,6.448,0,7v32c0,2.757,2.243,5,5,5
		h15c0.552,0,1-0.448,1-1S20.552,42,20,42z M10,6h3c0.552,0,1-0.448,1-1c0-0.307,0.084-3,3-3s3,2.693,3,3c0,0.552,0.448,1,1,1h3v6
		H10V6z"/>
	<path fill="#231F20" d="M21,18H11c-0.552,0-1,0.448-1,1s0.448,1,1,1h10c0.552,0,1-0.448,1-1S21.552,18,21,18z"/>
	<path fill="#231F20" d="M21,22H11c-0.552,0-1,0.448-1,1s0.448,1,1,1h10c0.552,0,1-0.448,1-1S21.552,22,21,22z"/>
	<path fill="#231F20" d="M21,26H11c-0.552,0-1,0.448-1,1s0.448,1,1,1h10c0.552,0,1-0.448,1-1S21.552,26,21,26z"/>
	<path fill="#231F20" d="M17,32c0.552,0,1-0.448,1-1s-0.448-1-1-1h-6c-0.552,0-1,0.448-1,1s0.448,1,1,1H17z"/>
</g>
</svg>
