<?xml version="1.0" encoding="utf-8"?>
<!-- Generator: Adobe Illustrator 17.0.0, SVG Export Plug-In . SVG Version: 6.00 Build 0)  -->
<!DOCTYPE svg PUBLIC "-//W3C//DTD SVG 1.1//EN" "http://www.w3.org/Graphics/SVG/1.1/DTD/svg11.dtd">
<svg version="1.1" id="Layer_1" xmlns="http://www.w3.org/2000/svg" xmlns:xlink="http://www.w3.org/1999/xlink" x="0px" y="0px"
	 width="48px" height="48px" viewBox="0 0 48 48" enable-background="new 0 0 48 48" xml:space="preserve">
<g>
	<path fill="#231F20" d="M47.922,18.615c-0.051-0.122-0.124-0.231-0.216-0.323L35.708,6.294c-0.092-0.092-0.202-0.166-0.324-0.217
		C35.264,6.027,35.134,6,35,6H1C0.447,6,0,6.448,0,7v34c0,0.552,0.447,1,1,1h46c0.553,0,1-0.448,1-1V19
		C48,18.867,47.973,18.736,47.922,18.615z M36,9.414L44.586,18H36V9.414z M2,40V8h32v11c0,0.552,0.447,1,1,1h11v20H2z"/>
	<path fill="#231F20" d="M11,16h14c0.553,0,1-0.448,1-1s-0.447-1-1-1H11c-0.553,0-1,0.448-1,1S10.447,16,11,16z"/>
	<path fill="#231F20" d="M11,22h14c0.553,0,1-0.448,1-1s-0.447-1-1-1H11c-0.553,0-1,0.448-1,1S10.447,22,11,22z"/>
	<path fill="#231F20" d="M37,32H11c-0.553,0-1,0.448-1,1s0.447,1,1,1h26c0.553,0,1-0.448,1-1S37.553,32,37,32z"/>
	<path fill="#231F20" d="M37,26H11c-0.553,0-1,0.448-1,1s0.447,1,1,1h26c0.553,0,1-0.448,1-1S37.553,26,37,26z"/>
</g>
</svg>
