<?xml version="1.0" encoding="utf-8"?>
<!-- Generator: Adobe Illustrator 17.0.0, SVG Export Plug-In . SVG Version: 6.00 Build 0)  -->
<!DOCTYPE svg PUBLIC "-//W3C//DTD SVG 1.1//EN" "http://www.w3.org/Graphics/SVG/1.1/DTD/svg11.dtd">
<svg version="1.1" id="Layer_1" xmlns="http://www.w3.org/2000/svg" xmlns:xlink="http://www.w3.org/1999/xlink" x="0px" y="0px"
	 width="48px" height="48px" viewBox="0 0 48 48" enable-background="new 0 0 48 48" xml:space="preserve">
<g>
	<path fill="#231F20" d="M2,2h20v9c0,0.552,0.447,1,1,1h9v7h2v-7.997c0-0.001,0-0.001,0-0.002s0-0.001,0-0.001
		c0-0.095-0.029-0.18-0.054-0.267c-0.011-0.037-0.008-0.078-0.023-0.113c-0.052-0.127-0.13-0.24-0.226-0.334l-9.989-9.992
		c-0.092-0.092-0.202-0.166-0.324-0.217C23.264,0.027,23.134,0,23,0H1C0.447,0,0,0.448,0,1v42c0,0.552,0.447,1,1,1h20v-2H2V2z
		 M24,3.414L30.583,10H24V3.414z"/>
	<path fill="#231F20" d="M35,22c-7.168,0-13,5.832-13,13c0,7.169,5.832,13,13,13c7.168,0,13-5.831,13-13C48,27.832,42.168,22,35,22z
		 M35,46c-6.065,0-11-4.935-11-11s4.935-11,11-11s11,4.935,11,11S41.065,46,35,46z"/>
	<path fill="#231F20" d="M40.808,31.053l-6.932,7.596l-4.715-4.714c-0.391-0.391-1.023-0.391-1.414,0s-0.391,1.023,0,1.414
		l6.195,6.195l8.342-9.143c0.374-0.408,0.344-1.041-0.064-1.413C41.814,30.618,41.182,30.644,40.808,31.053z"/>
</g>
</svg>
