<?xml version="1.0" encoding="utf-8"?>
<!-- Generator: Adobe Illustrator 17.0.0, SVG Export Plug-In . SVG Version: 6.00 Build 0)  -->
<!DOCTYPE svg PUBLIC "-//W3C//DTD SVG 1.1//EN" "http://www.w3.org/Graphics/SVG/1.1/DTD/svg11.dtd">
<svg version="1.1" id="Layer_1" xmlns="http://www.w3.org/2000/svg" xmlns:xlink="http://www.w3.org/1999/xlink" x="0px" y="0px"
	 width="48px" height="48px" viewBox="0 0 48 48" enable-background="new 0 0 48 48" xml:space="preserve">
<g>
	<path fill="#231F20" d="M2,2h20v9c0,0.552,0.448,1,1,1h9v7h2v-7.997c0-0.001,0-0.001,0-0.002s0-0.001,0-0.001
		c0-0.083-0.028-0.157-0.047-0.234c-0.012-0.049-0.01-0.101-0.03-0.147c-0.052-0.126-0.129-0.239-0.225-0.333l-9.991-9.994
		c-0.092-0.092-0.201-0.165-0.323-0.216C23.264,0.027,23.133,0,23,0H1C0.448,0,0,0.448,0,1v42c0,0.552,0.448,1,1,1h20v-2H2V2z
		 M24,3.414L30.583,10H24V3.414z"/>
	<path fill="#231F20" d="M35,22c-7.169,0-13,5.832-13,13c0,7.169,5.831,13,13,13c7.168,0,13-5.831,13-13C48,27.832,42.168,22,35,22z
		 M35,46c-6.065,0-11-4.935-11-11s4.935-11,11-11s11,4.935,11,11S41.065,46,35,46z"/>
	<path fill="#231F20" d="M40.454,33.997H29.545c-0.552,0-1,0.448-1,1s0.448,1,1,1h10.91c0.552,0,1-0.448,0.999-1
		C41.454,34.445,41.006,33.997,40.454,33.997z"/>
</g>
</svg>
