<?xml version="1.0" encoding="utf-8"?>
<!-- Generator: Adobe Illustrator 17.0.0, SVG Export Plug-In . SVG Version: 6.00 Build 0)  -->
<!DOCTYPE svg PUBLIC "-//W3C//DTD SVG 1.1//EN" "http://www.w3.org/Graphics/SVG/1.1/DTD/svg11.dtd">
<svg version="1.1" id="Layer_1" xmlns="http://www.w3.org/2000/svg" xmlns:xlink="http://www.w3.org/1999/xlink" x="0px" y="0px"
	 width="48px" height="48px" viewBox="0 0 48 48" enable-background="new 0 0 48 48" xml:space="preserve">
<path fill="#231F20" d="M39.923,12.616c-0.051-0.122-0.124-0.232-0.216-0.324l-9.998-9.998c-0.092-0.092-0.202-0.166-0.324-0.217
	C29.264,2.027,29.134,2,29,2H13c-0.553,0-1,0.448-1,1v3H9C8.447,6,8,6.448,8,7v3H5c-0.553,0-1,0.448-1,1v34c0,0.552,0.447,1,1,1h26
	c0.553,0,1-0.448,1-1v-3h3c0.553,0,1-0.448,1-1v-3h3c0.553,0,1-0.448,1-1V13C40,12.867,39.973,12.737,39.923,12.616z M30,5.414
	L36.586,12H30V5.414z M30,44H6V12h2v29c0,0.552,0.447,1,1,1h21V44z M34,40H10V8h2v29c0,0.552,0.447,1,1,1h21V40z M14,36V4h14v9
	c0,0.552,0.447,1,1,1h9v22H14z"/>
</svg>
