<?xml version="1.0" encoding="utf-8"?>
<!-- Generator: Adobe Illustrator 17.1.0, SVG Export Plug-In . SVG Version: 6.00 Build 0)  -->
<!DOCTYPE svg PUBLIC "-//W3C//DTD SVG 1.0//EN" "http://www.w3.org/TR/2001/REC-SVG-20010904/DTD/svg10.dtd">
<svg version="1.0" id="Layer_1" xmlns="http://www.w3.org/2000/svg" xmlns:xlink="http://www.w3.org/1999/xlink" x="0px" y="0px"
	 width="48px" height="48px" viewBox="0 0 48 48" enable-background="new 0 0 48 48" xml:space="preserve">
<g>
	<path d="M6,1C5.445,1,5,1.447,5,2c0,0.553,0.445,1,1,1c0.55,0,1-0.447,1-1C7,1.447,6.55,1,6,1z"/>
	<path d="M10,1C9.445,1,9,1.447,9,2c0,0.553,0.445,1,1,1c0.55,0,1-0.447,1-1C11,1.447,10.55,1,10,1z"/>
	<path d="M14,1c-0.555,0-1,0.447-1,1c0,0.553,0.445,1,1,1c0.55,0,1-0.447,1-1C15,1.447,14.55,1,14,1z"/>
	<path d="M18,1c-0.555,0-1,0.447-1,1c0,0.553,0.445,1,1,1c0.55,0,1-0.447,1-1C19,1.447,18.55,1,18,1z"/>
	<path d="M22,1c-0.555,0-1,0.447-1,1c0,0.553,0.445,1,1,1c0.55,0,1-0.447,1-1C23,1.447,22.55,1,22,1z"/>
	<path d="M26,1c-0.555,0-1,0.447-1,1c0,0.553,0.445,1,1,1c0.55,0,1-0.447,1-1C27,1.447,26.55,1,26,1z"/>
	<path d="M30,1c-0.555,0-1,0.447-1,1c0,0.553,0.445,1,1,1c0.55,0,1-0.447,1-1C31,1.447,30.55,1,30,1z"/>
	<path d="M30,5c-0.555,0-1,0.447-1,1c0,0.553,0.445,1,1,1c0.55,0,1-0.447,1-1C31,5.447,30.55,5,30,5z"/>
	<path d="M30,9c-0.555,0-1,0.447-1,1c0,0.553,0.445,1,1,1c0.55,0,1-0.447,1-1C31,9.447,30.55,9,30,9z"/>
	<path d="M35,5c-0.555,0-1,0.447-1,1c0,0.553,0.445,1,1,1c0.55,0,1-0.447,1-1C36,5.447,35.55,5,35,5z"/>
	<path d="M30,13c-0.555,0-1,0.447-1,1c0,0.553,0.445,1,1,1c0.55,0,1-0.447,1-1C31,13.447,30.55,13,30,13z"/>
	<path d="M38,8c-0.555,0-1,0.447-1,1c0,0.553,0.445,1,1,1c0.55,0,1-0.447,1-1C39,8.447,38.55,8,38,8z"/>
	<path d="M10,45c-0.555,0-1,0.447-1,1c0,0.553,0.445,1,1,1c0.55,0,1-0.447,1-1C11,45.447,10.55,45,10,45z"/>
	<path d="M14,45c-0.555,0-1,0.447-1,1c0,0.553,0.445,1,1,1c0.55,0,1-0.447,1-1C15,45.447,14.55,45,14,45z"/>
	<path d="M18,45c-0.555,0-1,0.447-1,1c0,0.553,0.445,1,1,1c0.55,0,1-0.447,1-1C19,45.447,18.55,45,18,45z"/>
	<path d="M22,45c-0.555,0-1,0.447-1,1c0,0.553,0.445,1,1,1c0.55,0,1-0.447,1-1C23,45.447,22.55,45,22,45z"/>
	<path d="M26,45c-0.555,0-1,0.447-1,1c0,0.553,0.445,1,1,1c0.55,0,1-0.447,1-1C27,45.447,26.55,45,26,45z"/>
	<path d="M30,45c-0.555,0-1,0.447-1,1c0,0.553,0.445,1,1,1c0.55,0,1-0.447,1-1C31,45.447,30.55,45,30,45z"/>
	<path d="M34,45c-0.555,0-1,0.447-1,1c0,0.553,0.445,1,1,1c0.55,0,1-0.447,1-1C35,45.447,34.55,45,34,45z"/>
	<path d="M38,45c-0.555,0-1,0.447-1,1c0,0.553,0.445,1,1,1c0.55,0,1-0.447,1-1C39,45.447,38.55,45,38,45z"/>
	<path d="M6,5C5.445,5,5,5.447,5,6c0,0.553,0.445,1,1,1c0.55,0,1-0.447,1-1C7,5.447,6.55,5,6,5z"/>
	<path d="M6,9c-0.555,0-1,0.447-1,1c0,0.553,0.445,1,1,1c0.55,0,1-0.447,1-1C7,9.447,6.55,9,6,9z"/>
	<path d="M6,13c-0.555,0-1,0.447-1,1c0,0.553,0.445,1,1,1c0.55,0,1-0.447,1-1C7,13.447,6.55,13,6,13z"/>
	<path d="M42,15c0.55,0,1-0.447,1-1c0-0.553-0.45-1-1-1c-0.555,0-1,0.447-1,1C41,14.553,41.445,15,42,15z"/>
	<path d="M38,13c-0.555,0-1,0.447-1,1c0,0.553,0.445,1,1,1c0.55,0,1-0.447,1-1C39,13.447,38.55,13,38,13z"/>
	<path d="M34,13c-0.555,0-1,0.447-1,1c0,0.553,0.445,1,1,1c0.55,0,1-0.447,1-1C35,13.447,34.55,13,34,13z"/>
	<path d="M6,17c-0.555,0-1,0.447-1,1c0,0.553,0.445,1,1,1c0.55,0,1-0.447,1-1C7,17.447,6.55,17,6,17z"/>
	<path d="M42,17c-0.555,0-1,0.447-1,1c0,0.553,0.445,1,1,1c0.55,0,1-0.447,1-1C43,17.447,42.55,17,42,17z"/>
	<path d="M6,21c-0.555,0-1,0.447-1,1c0,0.553,0.445,1,1,1c0.55,0,1-0.447,1-1C7,21.447,6.55,21,6,21z"/>
	<path d="M42,21c-0.555,0-1,0.447-1,1c0,0.553,0.445,1,1,1c0.55,0,1-0.447,1-1C43,21.447,42.55,21,42,21z"/>
	<path d="M6,25c-0.555,0-1,0.447-1,1c0,0.553,0.445,1,1,1c0.55,0,1-0.447,1-1C7,25.447,6.55,25,6,25z"/>
	<path d="M42,25c-0.555,0-1,0.447-1,1c0,0.553,0.445,1,1,1c0.55,0,1-0.447,1-1C43,25.447,42.55,25,42,25z"/>
	<path d="M6,29c-0.555,0-1,0.447-1,1c0,0.553,0.445,1,1,1c0.55,0,1-0.447,1-1C7,29.447,6.55,29,6,29z"/>
	<path d="M42,29c-0.555,0-1,0.447-1,1c0,0.553,0.445,1,1,1c0.55,0,1-0.447,1-1C43,29.447,42.55,29,42,29z"/>
	<path d="M6,33c-0.555,0-1,0.447-1,1c0,0.553,0.445,1,1,1c0.55,0,1-0.447,1-1C7,33.447,6.55,33,6,33z"/>
	<path d="M42,33c-0.555,0-1,0.447-1,1c0,0.553,0.445,1,1,1c0.55,0,1-0.447,1-1C43,33.447,42.55,33,42,33z"/>
	<path d="M6,37c-0.555,0-1,0.447-1,1c0,0.553,0.445,1,1,1c0.55,0,1-0.447,1-1C7,37.447,6.55,37,6,37z"/>
	<path d="M42,37c-0.555,0-1,0.447-1,1c0,0.553,0.445,1,1,1c0.55,0,1-0.447,1-1C43,37.447,42.55,37,42,37z"/>
	<path d="M6,41c-0.555,0-1,0.447-1,1c0,0.553,0.445,1,1,1c0.55,0,1-0.447,1-1C7,41.447,6.55,41,6,41z"/>
	<path d="M42,41c-0.555,0-1,0.447-1,1c0,0.553,0.445,1,1,1c0.55,0,1-0.447,1-1C43,41.447,42.55,41,42,41z"/>
	<path d="M6,45c-0.555,0-1,0.447-1,1c0,0.553,0.445,1,1,1c0.55,0,1-0.447,1-1C7,45.447,6.55,45,6,45z"/>
	<path d="M42,45c-0.555,0-1,0.447-1,1c0,0.553,0.445,1,1,1c0.55,0,1-0.447,1-1C43,45.447,42.55,45,42,45z"/>
</g>
</svg>
