<?xml version="1.0" encoding="utf-8"?>
<!-- Generator: Adobe Illustrator 17.0.0, SVG Export Plug-In . SVG Version: 6.00 Build 0)  -->
<!DOCTYPE svg PUBLIC "-//W3C//DTD SVG 1.1//EN" "http://www.w3.org/Graphics/SVG/1.1/DTD/svg11.dtd">
<svg version="1.1" id="Layer_1" xmlns="http://www.w3.org/2000/svg" xmlns:xlink="http://www.w3.org/1999/xlink" x="0px" y="0px"
	 width="48px" height="48px" viewBox="0 0 48 48" enable-background="new 0 0 48 48" xml:space="preserve">
<g>
	<path fill="#231F20" d="M32,20h2v-9c0-0.133-0.027-0.263-0.077-0.384c-0.051-0.122-0.124-0.232-0.216-0.324l-9.998-9.998
		c-0.092-0.092-0.202-0.166-0.324-0.217C23.264,0.027,23.134,0,23,0H1C0.447,0,0,0.448,0,1v42c0,0.552,0.447,1,1,1h20v-2H2V2h20v9
		c0,0.552,0.447,1,1,1h9V20z M24,3.414L30.586,10H24V3.414z"/>
	<path fill="#231F20" d="M47,38h-8c-0.553,0-1,0.448-1,1v8c0,0.552,0.447,1,1,1h8c0.553,0,1-0.448,1-1v-8C48,38.448,47.553,38,47,38
		z M46,46h-6v-6h6V46z"/>
	<path fill="#231F20" d="M35,38h-8c-0.553,0-1,0.448-1,1v8c0,0.552,0.447,1,1,1h8c0.553,0,1-0.448,1-1v-8C36,38.448,35.553,38,35,38
		z M34,46h-6v-6h6V46z"/>
	<path fill="#231F20" d="M32,27v8c0,0.552,0.447,1,1,1h8c0.553,0,1-0.448,1-1v-8c0-0.552-0.447-1-1-1h-8C32.447,26,32,26.448,32,27z
		 M34,28h6v6h-6V28z"/>
</g>
</svg>
