<?xml version="1.0" encoding="utf-8"?>
<!-- Generator: Adobe Illustrator 17.0.0, SVG Export Plug-In . SVG Version: 6.00 Build 0)  -->
<!DOCTYPE svg PUBLIC "-//W3C//DTD SVG 1.1//EN" "http://www.w3.org/Graphics/SVG/1.1/DTD/svg11.dtd">
<svg version="1.1" id="Layer_1" xmlns="http://www.w3.org/2000/svg" xmlns:xlink="http://www.w3.org/1999/xlink" x="0px" y="0px"
	 width="48px" height="48px" viewBox="0 0 48 48" enable-background="new 0 0 48 48" xml:space="preserve">
<g>
	<path fill="#231F20" d="M32,18h2v-7c0-0.133-0.027-0.263-0.077-0.384c-0.051-0.122-0.124-0.232-0.216-0.324l-9.998-9.998
		c-0.092-0.092-0.202-0.166-0.324-0.217C23.264,0.027,23.134,0,23,0H1C0.447,0,0,0.448,0,1v42c0,0.552,0.447,1,1,1h17v-2H2V2h20v9
		c0,0.552,0.447,1,1,1h9V18z M24,3.414L30.586,10H24V3.414z"/>
	<path fill="#231F20" d="M47.503,38.036l-1.595-0.92c0.044-0.378,0.065-0.747,0.065-1.116c0-0.366-0.022-0.736-0.067-1.116
		l1.594-0.92c0.23-0.133,0.398-0.352,0.466-0.608c0.068-0.257,0.033-0.53-0.1-0.759l-3-5.195c-0.132-0.23-0.351-0.398-0.608-0.466
		c-0.259-0.068-0.531-0.032-0.76,0.102l-1.583,0.918c-0.582-0.425-1.23-0.798-1.915-1.104V25c0-0.552-0.447-1-1-1h-6
		c-0.553,0-1,0.448-1,1v1.852c-0.589,0.26-1.272,0.621-1.942,1.107l-1.604-0.923c-0.479-0.276-1.089-0.112-1.365,0.366l-3.003,5.195
		c-0.276,0.478-0.112,1.089,0.365,1.366l1.59,0.92c-0.044,0.382-0.066,0.751-0.066,1.117c0,0.369,0.021,0.739,0.065,1.116
		l-1.592,0.92c-0.478,0.277-0.642,0.888-0.366,1.366l3,5.195c0.276,0.478,0.887,0.641,1.363,0.368l1.612-0.924
		c0.669,0.486,1.353,0.847,1.943,1.108V47c0,0.552,0.447,1,1,1h6c0.553,0,1-0.448,1-1v-1.852c0.686-0.307,1.334-0.68,1.916-1.105
		l1.59,0.92c0.23,0.133,0.504,0.169,0.76,0.1c0.255-0.068,0.474-0.236,0.607-0.466l2.996-5.195
		C48.146,38.924,47.982,38.312,47.503,38.036z M43.64,42.731l-1.31-0.758c-0.367-0.211-0.829-0.169-1.151,0.106
		c-0.704,0.602-1.579,1.107-2.528,1.461C38.26,43.685,38,44.059,38,44.477V46h-4v-1.523c0-0.418-0.26-0.792-0.651-0.938
		c-0.967-0.359-1.873-0.879-2.554-1.461c-0.321-0.275-0.782-0.319-1.147-0.108l-1.333,0.764l-2.001-3.466l1.315-0.761
		c0.366-0.211,0.559-0.63,0.483-1.046c-0.093-0.51-0.139-0.988-0.139-1.461c0-0.464,0.046-0.942,0.141-1.463
		c0.076-0.415-0.118-0.833-0.483-1.044l-1.313-0.76l2.003-3.466l1.325,0.762c0.369,0.21,0.828,0.168,1.149-0.107
		c0.683-0.585,1.589-1.103,2.553-1.461C33.74,28.315,34,27.941,34,27.523V26h4v1.523c0,0.418,0.26,0.792,0.652,0.939
		c0.947,0.352,1.821,0.857,2.527,1.461c0.323,0.277,0.786,0.319,1.152,0.105l1.303-0.756l1.999,3.461l-1.317,0.761
		c-0.366,0.211-0.559,0.63-0.483,1.046c0.095,0.517,0.141,0.995,0.141,1.461c0,0.473-0.046,0.951-0.139,1.461
		c-0.077,0.416,0.117,0.835,0.483,1.046l1.319,0.761L43.64,42.731z"/>
	<path fill="#231F20" d="M35.973,31c-2.757,0-5,2.243-5,5s2.243,5,5,5c2.756,0,5-2.243,5-5S38.73,31,35.973,31z M35.973,39
		c-1.654,0-3-1.346-3-3s1.346-3,3-3s3,1.346,3,3S37.627,39,35.973,39z"/>
</g>
</svg>
