<?xml version="1.0" encoding="utf-8"?>
<!-- Generator: Adobe Illustrator 17.0.0, SVG Export Plug-In . SVG Version: 6.00 Build 0)  -->
<!DOCTYPE svg PUBLIC "-//W3C//DTD SVG 1.1//EN" "http://www.w3.org/Graphics/SVG/1.1/DTD/svg11.dtd">
<svg version="1.1" id="Layer_1" xmlns="http://www.w3.org/2000/svg" xmlns:xlink="http://www.w3.org/1999/xlink" x="0px" y="0px"
	 width="48px" height="48px" viewBox="0 0 48 48" enable-background="new 0 0 48 48" xml:space="preserve">
<g>
	<path fill="#231F20" d="M32,26h2V11c0-0.133-0.027-0.263-0.077-0.384c-0.051-0.122-0.124-0.232-0.216-0.324l-9.998-9.998
		c-0.092-0.092-0.202-0.166-0.324-0.217C23.264,0.027,23.134,0,23,0H1C0.447,0,0,0.448,0,1v42c0,0.552,0.447,1,1,1h18v-2H2V2h20v9
		c0,0.552,0.447,1,1,1h9V26z M24,3.414L30.586,10H24V3.414z"/>
	<path fill="#231F20" d="M47.709,29.293l-5-5c-0.375-0.375-1.039-0.375-1.414,0L26.293,39.296c-0.084,0.084-0.146,0.186-0.196,0.294
		c-0.011,0.025-0.022,0.048-0.031,0.073c-0.008,0.022-0.021,0.042-0.028,0.065l-2,7c-0.1,0.35-0.002,0.725,0.255,0.982
		c0.19,0.19,0.445,0.293,0.707,0.293c0.092,0,0.185-0.013,0.274-0.039l7-2c0.022-0.006,0.041-0.019,0.062-0.027
		c0.027-0.01,0.052-0.021,0.079-0.034c0.107-0.049,0.208-0.11,0.292-0.194l15.002-15.003C48.1,30.316,48.1,29.684,47.709,29.293z
		 M32.001,43.59l-3.587-3.586l9.588-9.589L41.589,34L32.001,43.59z M27.495,41.912l2.597,2.597l-3.635,1.038L27.495,41.912z
		 M43.003,32.586L39.417,29l2.586-2.586L45.588,30L43.003,32.586z"/>
</g>
</svg>
