<?xml version="1.0" encoding="utf-8"?>
<!-- Generator: Adobe Illustrator 17.0.0, SVG Export Plug-In . SVG Version: 6.00 Build 0)  -->
<!DOCTYPE svg PUBLIC "-//W3C//DTD SVG 1.1//EN" "http://www.w3.org/Graphics/SVG/1.1/DTD/svg11.dtd">
<svg version="1.1" id="Layer_1" xmlns="http://www.w3.org/2000/svg" xmlns:xlink="http://www.w3.org/1999/xlink" x="0px" y="0px"
	 width="48px" height="48px" viewBox="0 0 48 48" enable-background="new 0 0 48 48" xml:space="preserve">
<g>
	<path fill="#231F20" d="M41.923,12.616c-0.051-0.122-0.124-0.232-0.216-0.324L29.708,0.294c-0.092-0.092-0.201-0.166-0.323-0.216
		C29.265,0.027,29.134,0,29,0H7C6.447,0,6,0.448,6,1v46c0,0.552,0.447,1,1,1h34c0.553,0,1-0.448,1-1V13
		C42,12.867,41.973,12.737,41.923,12.616z M30,3.414L38.586,12H30V3.414z M8,46V2h20v11c0,0.552,0.447,1,1,1h11v32H8z"/>
	<path fill="#231F20" d="M24,18c-6.617,0-12,5.383-12,12s5.383,12,12,12s12-5.383,12-12S30.617,18,24,18z M24,40
		c-5.514,0-10-4.486-10-10s4.486-10,10-10s10,4.486,10,10S29.514,40,24,40z"/>
	<path fill="#231F20" d="M27,30h-3v-5c0-0.552-0.447-1-1-1s-1,0.448-1,1v6c0,0.552,0.447,1,1,1h4c0.553,0,1-0.448,1-1
		S27.553,30,27,30z"/>
</g>
</svg>
