<?xml version="1.0" encoding="utf-8"?>
<!-- Generator: Adobe Illustrator 17.0.0, SVG Export Plug-In . SVG Version: 6.00 Build 0)  -->
<!DOCTYPE svg PUBLIC "-//W3C//DTD SVG 1.1//EN" "http://www.w3.org/Graphics/SVG/1.1/DTD/svg11.dtd">
<svg version="1.1" id="Layer_1" xmlns="http://www.w3.org/2000/svg" xmlns:xlink="http://www.w3.org/1999/xlink" x="0px" y="0px"
	 width="48px" height="48px" viewBox="0 0 48 48" enable-background="new 0 0 48 48" xml:space="preserve">
<g>
	<path fill="#231F20" d="M41.922,12.616c-0.051-0.121-0.124-0.231-0.216-0.323l-12-12c-0.092-0.092-0.201-0.165-0.323-0.216
		C29.264,0.027,29.133,0,29,0H7C6.448,0,6,0.448,6,1v46c0,0.552,0.448,1,1,1h34c0.552,0,1-0.448,1-1V13
		C42,12.867,41.973,12.736,41.922,12.616z M30,3.414L38.586,12H30V3.414z M8,46V2h20v11c0,0.552,0.448,1,1,1h11v32H8z"/>
	<path fill="#231F20" d="M33,20h-8c-0.552,0-1,0.448-1,1s0.448,1,1,1h8c0.552,0,1-0.448,1-1S33.552,20,33,20z"/>
	<path fill="#231F20" d="M33,28h-8c-0.552,0-1,0.448-1,1s0.448,1,1,1h8c0.552,0,1-0.448,1-1S33.552,28,33,28z"/>
	<path fill="#231F20" d="M33,36h-8c-0.552,0-1,0.448-1,1s0.448,1,1,1h8c0.552,0,1-0.448,1-1S33.552,36,33,36z"/>
	<path fill="#231F20" d="M20.293,15.293L16,19.586l-2.293-2.293c-0.391-0.391-1.023-0.391-1.414,0c-0.391,0.391-0.391,1.023,0,1.414
		l3,3C15.488,21.902,15.744,22,16,22s0.512-0.098,0.707-0.293l5-5c0.391-0.391,0.391-1.023,0-1.414
		C21.316,14.902,20.684,14.902,20.293,15.293z"/>
	<path fill="#231F20" d="M20.293,24.293L16,28.586l-2.293-2.293c-0.391-0.391-1.023-0.391-1.414,0c-0.391,0.391-0.391,1.023,0,1.414
		l3,3C15.488,30.902,15.744,31,16,31s0.512-0.098,0.707-0.293l5-5c0.391-0.391,0.391-1.023,0-1.414
		C21.316,23.902,20.684,23.902,20.293,24.293z"/>
	<path fill="#231F20" d="M20.293,33.293L16,37.586l-2.293-2.293c-0.391-0.391-1.023-0.391-1.414,0c-0.391,0.391-0.391,1.023,0,1.414
		l3,3C15.488,39.902,15.744,40,16,40s0.512-0.098,0.707-0.293l5-5c0.391-0.391,0.391-1.023,0-1.414
		C21.316,32.902,20.684,32.902,20.293,33.293z"/>
</g>
</svg>
