<?xml version="1.0" encoding="utf-8"?>
<!-- Generator: Adobe Illustrator 17.0.0, SVG Export Plug-In . SVG Version: 6.00 Build 0)  -->
<!DOCTYPE svg PUBLIC "-//W3C//DTD SVG 1.1//EN" "http://www.w3.org/Graphics/SVG/1.1/DTD/svg11.dtd">
<svg version="1.1" id="Layer_1" xmlns="http://www.w3.org/2000/svg" xmlns:xlink="http://www.w3.org/1999/xlink" x="0px" y="0px"
	 width="48px" height="48px" viewBox="0 0 48 48" enable-background="new 0 0 48 48" xml:space="preserve">
<g>
	<path fill="#231F20" d="M47.922,20.615c-0.051-0.121-0.124-0.23-0.215-0.322l-8-8c-0.092-0.092-0.201-0.165-0.322-0.215
		C39.264,12.027,39.133,12,39,12H28V9c0-0.134-0.027-0.264-0.078-0.385c-0.051-0.121-0.124-0.231-0.215-0.322l-8-8
		c-0.092-0.092-0.201-0.165-0.322-0.215C19.264,0.027,19.133,0,19,0H1C0.448,0,0,0.448,0,1v34c0,0.552,0.448,1,1,1h19v11
		c0,0.552,0.448,1,1,1h26c0.552,0,1-0.448,1-1V21C48,20.866,47.973,20.736,47.922,20.615z M40,15.414L44.586,20H40V15.414z
		 M20,3.414L24.586,8H20V3.414z M2,34V2h16v7c0,0.552,0.448,1,1,1h7v2h-5c-0.552,0-1,0.448-1,1v21H2z M22,46V14h16v7
		c0,0.552,0.448,1,1,1h7v24H22z"/>
	<path fill="#231F20" d="M31.077,5.382c0.051,0.122,0.124,0.232,0.216,0.325l4,4C35.488,9.902,35.744,10,36,10
		s0.512-0.098,0.707-0.293c0.391-0.391,0.391-1.023,0-1.414L34.414,6H42c1.103,0,2,0.897,2,2v3c0,0.552,0.448,1,1,1s1-0.448,1-1V8
		c0-2.206-1.794-4-4-4h-7.586l2.293-2.293c0.391-0.391,0.391-1.023,0-1.414c-0.391-0.391-1.023-0.391-1.414,0l-4,4
		c-0.092,0.092-0.165,0.203-0.216,0.325C30.976,4.862,30.976,5.138,31.077,5.382z"/>
	<path fill="#231F20" d="M16.923,42.618c-0.051-0.122-0.124-0.232-0.216-0.325l-4-4c-0.391-0.391-1.023-0.391-1.414,0
		c-0.391,0.391-0.391,1.023,0,1.414L13.586,42H6c-1.103,0-2-0.897-2-2v-1c0-0.552-0.448-1-1-1s-1,0.448-1,1v1c0,2.206,1.794,4,4,4
		h7.586l-2.293,2.293c-0.391,0.391-0.391,1.023,0,1.414C11.488,47.902,11.744,48,12,48s0.512-0.098,0.707-0.293l4-4
		c0.092-0.092,0.165-0.202,0.216-0.325C17.024,43.138,17.024,42.862,16.923,42.618z"/>
</g>
</svg>
