<?xml version="1.0" encoding="utf-8"?>
<!-- Generator: Adobe Illustrator 17.0.0, SVG Export Plug-In . SVG Version: 6.00 Build 0)  -->
<!DOCTYPE svg PUBLIC "-//W3C//DTD SVG 1.1//EN" "http://www.w3.org/Graphics/SVG/1.1/DTD/svg11.dtd">
<svg version="1.1" id="Layer_1" xmlns="http://www.w3.org/2000/svg" xmlns:xlink="http://www.w3.org/1999/xlink" x="0px" y="0px"
	 width="48px" height="48px" viewBox="0 0 48 48" enable-background="new 0 0 48 48" xml:space="preserve">
<g>
	<path fill="#231F20" d="M32,20h2v-8.997c0-0.001,0-0.001,0-0.002s0-0.001,0-0.001c0-0.06-0.024-0.112-0.034-0.169
		c-0.013-0.071-0.015-0.145-0.043-0.212c-0.052-0.126-0.129-0.238-0.225-0.332l-9.991-9.994c-0.092-0.092-0.201-0.165-0.322-0.215
		C23.264,0.027,23.133,0,23,0H1C0.448,0,0,0.448,0,1v42c0,0.552,0.448,1,1,1h20v-2H2V2h20v9c0,0.552,0.448,1,1,1h9V20z M24,3.414
		L30.583,10H24V3.414z"/>
	<path fill="#231F20" d="M47.94,32.66C47.797,32.264,47.421,32,47,32h-6.381l-3.708-7.446c-0.168-0.339-0.514-0.553-0.893-0.554
		h-0.002c-0.378,0-0.724,0.213-0.894,0.551L31.383,32H25c-0.421,0-0.797,0.264-0.941,0.661c-0.143,0.395-0.024,0.838,0.3,1.108
		l5.476,4.564l-2.784,8.354c-0.136,0.407,0.004,0.857,0.347,1.115c0.178,0.134,0.39,0.201,0.602,0.201
		c0.198,0,0.396-0.059,0.566-0.176L36,42.721l7.435,5.104c0.354,0.244,0.824,0.234,1.167-0.025c0.343-0.258,0.483-0.707,0.347-1.115
		l-2.784-8.353l5.475-4.564C47.964,33.499,48.083,33.056,47.94,32.66z M40.36,37.233c-0.317,0.263-0.439,0.693-0.309,1.084
		l2.058,6.172l-5.543-3.806c-0.341-0.234-0.791-0.234-1.132,0l-5.543,3.807l2.058-6.173c0.13-0.39,0.007-0.82-0.309-1.084L27.761,34
		H32c0.378,0,0.724-0.213,0.893-0.551l3.119-6.213l3.093,6.21C39.274,33.785,39.621,34,40,34h4.239L40.36,37.233z"/>
</g>
</svg>
