<?xml version="1.0" encoding="utf-8"?>
<!-- Generator: Adobe Illustrator 17.0.0, SVG Export Plug-In . SVG Version: 6.00 Build 0)  -->
<!DOCTYPE svg PUBLIC "-//W3C//DTD SVG 1.1//EN" "http://www.w3.org/Graphics/SVG/1.1/DTD/svg11.dtd">
<svg version="1.1" id="Layer_1" xmlns="http://www.w3.org/2000/svg" xmlns:xlink="http://www.w3.org/1999/xlink" x="0px" y="0px"
	 width="48px" height="48px" viewBox="0 0 48 48" enable-background="new 0 0 48 48" xml:space="preserve">
<path fill="#231F20" d="M47.922,18.615c-0.051-0.122-0.124-0.231-0.216-0.323L35.708,6.294c-0.092-0.092-0.202-0.166-0.324-0.217
	C35.264,6.027,35.134,6,35,6H7C6.447,6,6,6.448,6,7v5H1c-0.553,0-1,0.448-1,1v28c0,0.552,0.447,1,1,1h40c0.553,0,1-0.448,1-1v-5h5
	c0.553,0,1-0.448,1-1V19C48,18.867,47.973,18.736,47.922,18.615z M36,9.414L44.586,18H36V9.414z M40,40H2V14h4v21
	c0,0.552,0.447,1,1,1h33V40z M8,34V8h26v11c0,0.552,0.447,1,1,1h11v14H8z"/>
</svg>
