<?xml version="1.0" encoding="utf-8"?>
<!-- Generator: Adobe Illustrator 17.0.0, SVG Export Plug-In . SVG Version: 6.00 Build 0)  -->
<!DOCTYPE svg PUBLIC "-//W3C//DTD SVG 1.1//EN" "http://www.w3.org/Graphics/SVG/1.1/DTD/svg11.dtd">
<svg version="1.1" id="Layer_1" xmlns="http://www.w3.org/2000/svg" xmlns:xlink="http://www.w3.org/1999/xlink" x="0px" y="0px"
	 width="48px" height="48px" viewBox="0 0 48 48" enable-background="new 0 0 48 48" xml:space="preserve">
<g>
	<path fill="#231F20" d="M41.923,12.616c-0.051-0.122-0.124-0.232-0.216-0.324L29.708,0.294c-0.092-0.092-0.202-0.166-0.324-0.217
		C29.264,0.027,29.134,0,29,0H7C6.447,0,6,0.448,6,1v46c0,0.552,0.447,1,1,1h34c0.553,0,1-0.448,1-1V13
		C42,12.867,41.973,12.737,41.923,12.616z M30,3.414L38.586,12H30V3.414z M8,46V2h20v11c0,0.552,0.447,1,1,1h11v32H8z"/>
	<path fill="#231F20" d="M35,38H14v-4.584l7.128-7.128l5.318,3.545c0.405,0.269,0.948,0.209,1.284-0.148l7.5-8
		c0.378-0.403,0.357-1.037-0.046-1.414c-0.402-0.379-1.035-0.358-1.413,0.045l-6.921,7.382l-5.295-3.53
		c-0.396-0.264-0.924-0.213-1.262,0.125L14,30.586V16c0-0.552-0.447-1-1-1s-1,0.448-1,1v16.999C12,33,12,33,12,33.001V39
		c0,0.552,0.447,1,1,1h22c0.553,0,1-0.448,1-1S35.553,38,35,38z"/>
</g>
</svg>
