<?xml version="1.0" encoding="utf-8"?>
<!-- Generator: Adobe Illustrator 17.0.0, SVG Export Plug-In . SVG Version: 6.00 Build 0)  -->
<!DOCTYPE svg PUBLIC "-//W3C//DTD SVG 1.1//EN" "http://www.w3.org/Graphics/SVG/1.1/DTD/svg11.dtd">
<svg version="1.1" id="Layer_1" xmlns="http://www.w3.org/2000/svg" xmlns:xlink="http://www.w3.org/1999/xlink" x="0px" y="0px"
	 width="48px" height="48px" viewBox="0 0 48 48" enable-background="new 0 0 48 48" xml:space="preserve">
<g>
	<path fill="#231F20" d="M43.922,6.616c-0.051-0.121-0.124-0.231-0.216-0.323l-6-6c-0.092-0.092-0.201-0.165-0.323-0.216
		C37.264,0.027,37.133,0,37,0H27c-0.552,0-1,0.448-1,1v20c0,0.552,0.448,1,1,1h16c0.552,0,1-0.448,1-1V7
		C44,6.867,43.973,6.736,43.922,6.616z M38,3.414L40.586,6H38V3.414z M28,20V2h8v5c0,0.552,0.448,1,1,1h5v12H28z"/>
	<path fill="#231F20" d="M21.707,6.293l-6-6c-0.092-0.092-0.201-0.165-0.323-0.216C15.264,0.027,15.133,0,15,0H5
		C4.448,0,4,0.448,4,1v20c0,0.552,0.448,1,1,1h16c0.552,0,1-0.448,1-1V7c0-0.133-0.027-0.264-0.078-0.384
		C21.872,6.494,21.799,6.385,21.707,6.293z M16,3.414L18.586,6H16V3.414z M6,20V2h8v5c0,0.552,0.448,1,1,1h5v12H6z"/>
	<path fill="#231F20" d="M43.707,32.293l-6-6c-0.092-0.092-0.201-0.165-0.323-0.215C37.264,26.027,37.133,26,37,26H27
		c-0.552,0-1,0.448-1,1v20c0,0.552,0.448,1,1,1h16c0.552,0,1-0.448,1-1V33c0-0.133-0.027-0.264-0.078-0.384
		C43.872,32.494,43.799,32.385,43.707,32.293z M38,29.414L40.586,32H38V29.414z M28,46V28h8v5c0,0.552,0.448,1,1,1h5v12H28z"/>
	<path fill="#231F20" d="M21.707,32.293l-6-6c-0.092-0.092-0.201-0.165-0.323-0.216C15.264,26.027,15.133,26,15,26H5
		c-0.552,0-1,0.448-1,1v20c0,0.552,0.448,1,1,1h16c0.552,0,1-0.448,1-1V33c0-0.133-0.027-0.264-0.078-0.384
		C21.872,32.494,21.799,32.385,21.707,32.293z M16,29.414L18.586,32H16V29.414z M6,46V28h8v5c0,0.552,0.448,1,1,1h5v12H6z"/>
</g>
</svg>
