<?xml version="1.0" encoding="utf-8"?>
<!-- Generator: Adobe Illustrator 17.0.0, SVG Export Plug-In . SVG Version: 6.00 Build 0)  -->
<!DOCTYPE svg PUBLIC "-//W3C//DTD SVG 1.1//EN" "http://www.w3.org/Graphics/SVG/1.1/DTD/svg11.dtd">
<svg version="1.1" id="Layer_1" xmlns="http://www.w3.org/2000/svg" xmlns:xlink="http://www.w3.org/1999/xlink" x="0px" y="0px"
	 width="48px" height="48px" viewBox="0 0 48 48" enable-background="new 0 0 48 48" xml:space="preserve">
<g>
	<path fill="#231F20" d="M23,12h9v7h2v-8c0-0.133-0.027-0.264-0.078-0.384c-0.051-0.121-0.124-0.231-0.216-0.323l-10-10
		c-0.092-0.092-0.201-0.165-0.323-0.216C23.264,0.027,23.133,0,23,0H1C0.448,0,0,0.448,0,1v42c0,0.552,0.448,1,1,1h20v-2H2V2h20v9
		C22,11.552,22.448,12,23,12z M24,3.414L30.586,10H24V3.414z"/>
	<path fill="#231F20" d="M47.814,46.392l-11.92-23.839c-0.339-0.678-1.45-0.678-1.789,0l-12,24c-0.155,0.31-0.138,0.678,0.044,0.973
		C22.331,47.82,22.653,48,23,48h24c0.007,0,0.014,0,0.02,0c0.552,0,1-0.448,1-1C48.02,46.771,47.943,46.56,47.814,46.392z
		 M24.618,46L35,25.236L45.382,46H24.618z"/>
	<path fill="#231F20" d="M34,32.819v6.545c0,0.552,0.448,1,1,1s1-0.448,1-1v-6.545c0-0.552-0.448-1-1-1S34,32.267,34,32.819z"/>
	<circle fill="#231F20" cx="35" cy="42.636" r="1.091"/>
</g>
</svg>
