<?xml version="1.0" encoding="utf-8"?>
<!-- Generator: Adobe Illustrator 17.0.0, SVG Export Plug-In . SVG Version: 6.00 Build 0)  -->
<!DOCTYPE svg PUBLIC "-//W3C//DTD SVG 1.1//EN" "http://www.w3.org/Graphics/SVG/1.1/DTD/svg11.dtd">
<svg version="1.1" id="Layer_1" xmlns="http://www.w3.org/2000/svg" xmlns:xlink="http://www.w3.org/1999/xlink" x="0px" y="0px"
	 width="48px" height="48px" viewBox="0 0 48 48" enable-background="new 0 0 48 48" xml:space="preserve">
<g>
	<path fill="#231F20" d="M41.922,12.616c-0.051-0.121-0.124-0.231-0.216-0.323l-12-12c-0.091-0.091-0.201-0.165-0.322-0.215
		C29.264,0.027,29.134,0,29,0H7C6.448,0,6,0.448,6,1v46c0,0.552,0.448,1,1,1h34c0.552,0,1-0.448,1-1V13
		C42,12.867,41.973,12.736,41.922,12.616z M30,3.414L38.586,12H30V3.414z M8,46V2h20v11c0,0.552,0.448,1,1,1h11v32H8z"/>
	<path fill="#231F20" d="M33,20h-6c-0.552,0-1,0.448-1,1v11h-4v-3c0-0.552-0.448-1-1-1h-5V16c0-0.552-0.448-1-1-1s-1,0.448-1,1v23
		c0,0.552,0.448,1,1,1h18c0.552,0,1-0.448,1-1V21C34,20.448,33.552,20,33,20z M28,22h4v16h-4V22z M26,34v4h-4v-4H26z M16,30h4v8h-4
		V30z"/>
</g>
</svg>
