<?xml version="1.0" encoding="utf-8"?>
<!-- Generator: Adobe Illustrator 17.0.0, SVG Export Plug-In . SVG Version: 6.00 Build 0)  -->
<!DOCTYPE svg PUBLIC "-//W3C//DTD SVG 1.1//EN" "http://www.w3.org/Graphics/SVG/1.1/DTD/svg11.dtd">
<svg version="1.1" id="Layer_1" xmlns="http://www.w3.org/2000/svg" xmlns:xlink="http://www.w3.org/1999/xlink" x="0px" y="0px"
	 width="48px" height="48px" viewBox="0 0 48 48" enable-background="new 0 0 48 48" xml:space="preserve">
<g>
	<path fill="#231F20" d="M23,12h9v10h2V11c0-0.133-0.027-0.264-0.078-0.384c-0.051-0.121-0.124-0.231-0.216-0.323l-10-10
		c-0.092-0.092-0.201-0.165-0.323-0.216C23.264,0.027,23.133,0,23,0H1C0.448,0,0,0.448,0,1v42c0,0.552,0.448,1,1,1h22v-2H2V2h20v9
		C22,11.552,22.448,12,23,12z M24,3.414L30.586,10H24V3.414z"/>
	<path fill="#231F20" d="M38,30c2.472,0,4.726,1.126,6.225,3H41c-0.552,0-1,0.448-1,1s0.448,1,1,1h6v-6c0-0.552-0.448-1-1-1
		s-1,0.448-1,1v1.879C43.164,29.067,40.686,28,38,28c-5.514,0-10,4.486-10,10h2C30,33.589,33.589,30,38,30z"/>
	<path fill="#231F20" d="M46,38c0,4.411-3.589,8-8,8c-2.473,0-4.728-1.126-6.226-3H34c0.552,0,1-0.448,1-1s-0.448-1-1-1h-5v5
		c0,0.552,0.448,1,1,1s1-0.448,1-1v-0.878C32.836,46.933,35.314,48,38,48c5.514,0,10-4.486,10-10H46z"/>
</g>
</svg>
