<?xml version="1.0" encoding="utf-8"?>
<!-- Generator: Adobe Illustrator 17.0.0, SVG Export Plug-In . SVG Version: 6.00 Build 0)  -->
<!DOCTYPE svg PUBLIC "-//W3C//DTD SVG 1.1//EN" "http://www.w3.org/Graphics/SVG/1.1/DTD/svg11.dtd">
<svg version="1.1" id="Layer_1" xmlns="http://www.w3.org/2000/svg" xmlns:xlink="http://www.w3.org/1999/xlink" x="0px" y="0px"
	 width="48px" height="48px" viewBox="0 0 48 48" enable-background="new 0 0 48 48" xml:space="preserve">
<g>
	<path fill="#231F20" d="M41.923,12.616c-0.051-0.122-0.124-0.232-0.216-0.324L29.708,0.294c-0.092-0.092-0.202-0.166-0.324-0.217
		C29.264,0.027,29.134,0,29,0H7C6.447,0,6,0.448,6,1v46c0,0.552,0.447,1,1,1h34c0.553,0,1-0.448,1-1V13
		C42,12.867,41.973,12.737,41.923,12.616z M30,3.414L38.586,12H30V3.414z M8,46V2h20v11c0,0.552,0.447,1,1,1h11v32H8z"/>
	<path fill="#231F20" d="M33.531,26.152l-16-10c-0.31-0.193-0.699-0.203-1.015-0.026C16.197,16.302,16,16.636,16,17v20
		c0,0.364,0.197,0.698,0.516,0.875C16.666,37.959,16.833,38,17,38c0.185,0,0.368-0.051,0.53-0.152l16-10
		C33.822,27.665,34,27.345,34,27S33.822,26.335,33.531,26.152z M18,35.196V18.804L31.113,27L18,35.196z"/>
</g>
</svg>
