<?xml version="1.0" encoding="utf-8"?>
<!-- Generator: Adobe Illustrator 17.0.0, SVG Export Plug-In . SVG Version: 6.00 Build 0)  -->
<!DOCTYPE svg PUBLIC "-//W3C//DTD SVG 1.1//EN" "http://www.w3.org/Graphics/SVG/1.1/DTD/svg11.dtd">
<svg version="1.1" id="Layer_1" xmlns="http://www.w3.org/2000/svg" xmlns:xlink="http://www.w3.org/1999/xlink" x="0px" y="0px"
	 width="48px" height="48px" viewBox="0 0 48 48" enable-background="new 0 0 48 48" xml:space="preserve">
<g>
	<path fill="#231F20" d="M2,2h20v9c0,0.552,0.448,1,1,1h9v7h2v-8c0-0.133-0.027-0.264-0.078-0.384
		c-0.051-0.121-0.124-0.231-0.216-0.323l-10-10c-0.092-0.092-0.201-0.165-0.323-0.216C23.264,0.027,23.133,0,23,0H1
		C0.448,0,0,0.448,0,1v42c0,0.552,0.448,1,1,1h20v-2H2V2z M24,3.414L30.586,10H24V3.414z"/>
	<path fill="#231F20" d="M35,22c-7.169,0-13,5.832-13,13c0,7.169,5.831,13,13,13c7.168,0,13-5.831,13-13C48,27.832,42.168,22,35,22z
		 M35,46c-6.065,0-11-4.935-11-11s4.935-11,11-11s11,4.935,11,11S41.065,46,35,46z"/>
	<path fill="#231F20" d="M40.454,34H36v-4.455c0-0.552-0.448-1-1-1s-1,0.448-1,1V34h-4.455c-0.552,0-1,0.448-1,1s0.448,1,1,1H34
		v4.455c0,0.552,0.448,1,1,1s1-0.448,1-1.001V36h4.455c0.552,0,1-0.448,0.999-1C41.454,34.448,41.006,34,40.454,34z"/>
</g>
</svg>
