<?xml version="1.0" encoding="utf-8"?>
<!-- Generator: Adobe Illustrator 17.0.0, SVG Export Plug-In . SVG Version: 6.00 Build 0)  -->
<!DOCTYPE svg PUBLIC "-//W3C//DTD SVG 1.1//EN" "http://www.w3.org/Graphics/SVG/1.1/DTD/svg11.dtd">
<svg version="1.1" id="Layer_1" xmlns="http://www.w3.org/2000/svg" xmlns:xlink="http://www.w3.org/1999/xlink" x="0px" y="0px"
	 width="48px" height="48px" viewBox="0 0 48 48" enable-background="new 0 0 48 48" xml:space="preserve">
<g>
	<path fill="#231F20" d="M2,2h20v9c0,0.552,0.447,1,1,1h9v7h2v-7.997c0-0.001,0-0.001,0-0.002s0-0.001,0-0.001
		c0-0.095-0.029-0.18-0.054-0.267c-0.011-0.037-0.008-0.078-0.023-0.113c-0.052-0.127-0.13-0.24-0.226-0.334l-9.989-9.992
		c-0.092-0.092-0.202-0.166-0.324-0.217C23.264,0.027,23.134,0,23,0H1C0.447,0,0,0.448,0,1v42c0,0.552,0.447,1,1,1h19v-2H2V2z
		 M24,3.414L30.583,10H24V3.414z"/>
	<path fill="#231F20" d="M35,22c-7.168,0-13,5.832-13,13c0,7.169,5.832,13,13,13c7.168,0,13-5.831,13-13C48,27.832,42.168,22,35,22z
		 M24,35c0-6.065,4.935-11,11-11c2.673,0,5.125,0.96,7.033,2.552L26.552,42.033C24.96,40.125,24,37.673,24,35z M35,46
		c-2.673,0-5.125-0.961-7.034-2.552l15.481-15.481C45.039,29.875,46,32.327,46,35C46,41.065,41.065,46,35,46z"/>
</g>
</svg>
