<?xml version="1.0" encoding="utf-8"?>
<!-- Generator: Adobe Illustrator 17.0.0, SVG Export Plug-In . SVG Version: 6.00 Build 0)  -->
<!DOCTYPE svg PUBLIC "-//W3C//DTD SVG 1.1//EN" "http://www.w3.org/Graphics/SVG/1.1/DTD/svg11.dtd">
<svg version="1.1" id="Layer_1" xmlns="http://www.w3.org/2000/svg" xmlns:xlink="http://www.w3.org/1999/xlink" x="0px" y="0px"
	 width="48px" height="48px" viewBox="0 0 48 48" enable-background="new 0 0 48 48" xml:space="preserve">
<path fill="#231F20" d="M37.923,14.616c-0.051-0.122-0.124-0.232-0.216-0.324l-9.998-9.998c-0.092-0.092-0.202-0.166-0.324-0.217
	C27.264,4.027,27.134,4,27,4H11c-0.553,0-1,0.448-1,1v3H7C6.447,8,6,8.448,6,9v34c0,0.552,0.447,1,1,1h26c0.553,0,1-0.448,1-1v-3h3
	c0.553,0,1-0.448,1-1V15C38,14.867,37.973,14.737,37.923,14.616z M28,7.414L34.586,14H28V7.414z M32,42H8V10h2v29
	c0,0.552,0.447,1,1,1h21V42z M12,38V6h14v9c0,0.552,0.447,1,1,1h9v22H12z"/>
</svg>
