<?xml version="1.0" encoding="utf-8"?>
<!-- Generator: Adobe Illustrator 17.0.0, SVG Export Plug-In . SVG Version: 6.00 Build 0)  -->
<!DOCTYPE svg PUBLIC "-//W3C//DTD SVG 1.1//EN" "http://www.w3.org/Graphics/SVG/1.1/DTD/svg11.dtd">
<svg version="1.1" id="Layer_1" xmlns="http://www.w3.org/2000/svg" xmlns:xlink="http://www.w3.org/1999/xlink" x="0px" y="0px"
	 width="48px" height="48px" viewBox="0 0 48 48" enable-background="new 0 0 48 48" xml:space="preserve">
<g>
	<path fill="#231F20" d="M41.922,12.615c-0.051-0.121-0.124-0.231-0.215-0.322l-12-12c-0.091-0.091-0.201-0.165-0.322-0.215
		C29.264,0.027,29.134,0,29,0H7C6.448,0,6,0.448,6,1v46c0,0.552,0.448,1,1,1h34c0.552,0,1-0.448,1-1V13
		C42,12.866,41.973,12.736,41.922,12.615z M30,3.414L38.586,12H30V3.414z M8,46V2h20v11c0,0.552,0.448,1,1,1h11v32H8z"/>
	<path fill="#231F20" d="M29.707,20.293c-0.391-0.391-1.023-0.391-1.414,0c-0.391,0.391-0.391,1.023,0,1.414L35.586,29l-7.293,7.293
		c-0.391,0.391-0.391,1.023,0,1.414C28.488,37.902,28.744,38,29,38s0.512-0.098,0.707-0.293l8-8c0.391-0.391,0.391-1.023,0-1.414
		L29.707,20.293z"/>
	<path fill="#231F20" d="M12.414,29l7.293-7.293c0.391-0.391,0.391-1.023,0-1.414c-0.391-0.391-1.023-0.391-1.414,0l-8,8
		c-0.391,0.391-0.391,1.023,0,1.414l8,8C18.488,37.902,18.744,38,19,38s0.512-0.098,0.707-0.293c0.391-0.391,0.391-1.023,0-1.414
		L12.414,29z"/>
</g>
</svg>
