<?xml version="1.0" encoding="utf-8"?>
<!-- Generator: Adobe Illustrator 17.0.0, SVG Export Plug-In . SVG Version: 6.00 Build 0)  -->
<!DOCTYPE svg PUBLIC "-//W3C//DTD SVG 1.1//EN" "http://www.w3.org/Graphics/SVG/1.1/DTD/svg11.dtd">
<svg version="1.1" id="Layer_1" xmlns="http://www.w3.org/2000/svg" xmlns:xlink="http://www.w3.org/1999/xlink" x="0px" y="0px"
	 width="48px" height="48px" viewBox="0 0 48 48" enable-background="new 0 0 48 48" xml:space="preserve">
<path fill="#231F20" d="M39.707,8.293l-8-8C31.519,0.105,31.265,0,31,0H5C4.448,0,4,0.448,4,1v46c0,0.552,0.448,1,1,1h34
	c0.552,0,1-0.448,1-1V9C40,8.735,39.894,8.481,39.707,8.293z M16,2h8v21.586l-3.293-3.293c-0.391-0.391-1.023-0.391-1.414,0
	L16,23.586V2z M38,46H6V2h8v24c0,0.404,0.244,0.769,0.617,0.924c0.375,0.155,0.803,0.069,1.09-0.217L20,22.414l4.293,4.293
	C24.484,26.898,24.74,27,25,27c0.129,0,0.259-0.025,0.383-0.076C25.756,26.769,26,26.404,26,26V2h4.586L38,9.414V46z"/>
</svg>
