<?xml version="1.0" encoding="utf-8"?>
<!-- Generator: Adobe Illustrator 17.0.0, SVG Export Plug-In . SVG Version: 6.00 Build 0)  -->
<!DOCTYPE svg PUBLIC "-//W3C//DTD SVG 1.1//EN" "http://www.w3.org/Graphics/SVG/1.1/DTD/svg11.dtd">
<svg version="1.1" id="Layer_1" xmlns="http://www.w3.org/2000/svg" xmlns:xlink="http://www.w3.org/1999/xlink" x="0px" y="0px"
	 width="48px" height="48px" viewBox="0 0 48 48" enable-background="new 0 0 48 48" xml:space="preserve">
<g>
	<path fill="#231F20" d="M32,20h2v-9c0-0.133-0.027-0.264-0.078-0.384c-0.051-0.121-0.124-0.231-0.216-0.323l-10-10
		c-0.092-0.092-0.201-0.165-0.323-0.216C23.264,0.027,23.133,0,23,0H1C0.448,0,0,0.448,0,1v42c0,0.552,0.448,1,1,1h21v-2H2V2h20v9
		c0,0.552,0.448,1,1,1h9V20z M24,3.414L30.586,10H24V3.414z"/>
	<path fill="#231F20" d="M47.707,46.293l-6.349-6.349c1.163-1.468,1.863-3.319,1.863-5.333c0-4.748-3.862-8.611-8.609-8.611
		C29.863,26,26,29.863,26,34.612c0,4.747,3.864,8.61,8.612,8.61c2.014,0,3.864-0.701,5.332-1.864l6.349,6.349
		C46.488,47.902,46.744,48,47,48s0.512-0.098,0.707-0.293C48.098,47.316,48.098,46.684,47.707,46.293z M28,34.611
		C28,30.966,30.966,28,34.612,28c3.644,0,6.609,2.966,6.609,6.611c0,3.645-2.965,6.61-6.609,6.61C30.966,41.221,28,38.256,28,34.611
		z"/>
</g>
</svg>
