<?xml version="1.0" encoding="utf-8"?>
<!-- Generator: Adobe Illustrator 17.1.0, SVG Export Plug-In . SVG Version: 6.00 Build 0)  -->
<!DOCTYPE svg PUBLIC "-//W3C//DTD SVG 1.0//EN" "http://www.w3.org/TR/2001/REC-SVG-20010904/DTD/svg10.dtd">
<svg version="1.0" id="Layer_1" xmlns="http://www.w3.org/2000/svg" xmlns:xlink="http://www.w3.org/1999/xlink" x="0px" y="0px"
	 width="48px" height="48px" viewBox="0 0 48 48" enable-background="new 0 0 48 48" xml:space="preserve">
<g>
	<path d="M41.707,8.293l-8-8C33.52,0.106,33.265,0,33,0H7C6.448,0,6,0.447,6,1v46c0,0.553,0.448,1,1,1h34c0.552,0,1-0.447,1-1V9
		C42,8.734,41.895,8.481,41.707,8.293z M40,46H8V2h14v3c0,0.553,0.448,1,1,1h1v8h-4V5c0-0.553-0.448-1-1-1c-0.552,0-1,0.447-1,1v10
		c0,0.553,0.448,1,1,1h6c0.552,0,1-0.447,1-1V5c0-0.553-0.448-1-1-1h-1V2h8.586L40,9.414V46z"/>
	<rect x="21" y="11" width="2" height="2"/>
	<path d="M24,19c0-0.553-0.448-1-1-1h-2c-0.552,0-1,0.447-1,1c0,0.553,0.448,1,1,1h2C23.552,20,24,19.553,24,19z"/>
	<path d="M20,23c0,0.553,0.448,1,1,1h2c0.552,0,1-0.447,1-1c0-0.553-0.448-1-1-1h-2C20.448,22,20,22.447,20,23z"/>
	<path d="M20,27c0,0.553,0.448,1,1,1h2c0.552,0,1-0.447,1-1c0-0.553-0.448-1-1-1h-2C20.448,26,20,26.447,20,27z"/>
	<path d="M20,31c0,0.553,0.448,1,1,1h2c0.552,0,1-0.447,1-1c0-0.553-0.448-1-1-1h-2C20.448,30,20,30.447,20,31z"/>
	<path d="M20,35c0,0.553,0.448,1,1,1h2c0.552,0,1-0.447,1-1c0-0.553-0.448-1-1-1h-2C20.448,34,20,34.447,20,35z"/>
	<path d="M20,39c0,0.553,0.448,1,1,1h2c0.552,0,1-0.447,1-1c0-0.553-0.448-1-1-1h-2C20.448,38,20,38.447,20,39z"/>
	<path d="M20,43c0,0.553,0.448,1,1,1h2c0.552,0,1-0.447,1-1c0-0.553-0.448-1-1-1h-2C20.448,42,20,42.447,20,43z"/>
	<path d="M26,21c0-0.553-0.448-1-1-1h-2c-0.552,0-1,0.447-1,1c0,0.553,0.448,1,1,1h2C25.552,22,26,21.553,26,21z"/>
	<path d="M22,25c0,0.553,0.448,1,1,1h2c0.552,0,1-0.447,1-1c0-0.553-0.448-1-1-1h-2C22.448,24,22,24.447,22,25z"/>
	<path d="M22,29c0,0.553,0.448,1,1,1h2c0.552,0,1-0.447,1-1c0-0.553-0.448-1-1-1h-2C22.448,28,22,28.447,22,29z"/>
	<path d="M22,33c0,0.553,0.448,1,1,1h2c0.552,0,1-0.447,1-1c0-0.553-0.448-1-1-1h-2C22.448,32,22,32.447,22,33z"/>
	<path d="M22,37c0,0.553,0.448,1,1,1h2c0.552,0,1-0.447,1-1c0-0.553-0.448-1-1-1h-2C22.448,36,22,36.447,22,37z"/>
	<path d="M22,41c0,0.553,0.448,1,1,1h2c0.552,0,1-0.447,1-1c0-0.553-0.448-1-1-1h-2C22.448,40,22,40.447,22,41z"/>
</g>
</svg>
