<?xml version="1.0" encoding="utf-8"?>
<!-- Generator: Adobe Illustrator 17.0.0, SVG Export Plug-In . SVG Version: 6.00 Build 0)  -->
<!DOCTYPE svg PUBLIC "-//W3C//DTD SVG 1.1//EN" "http://www.w3.org/Graphics/SVG/1.1/DTD/svg11.dtd">
<svg version="1.1" id="Layer_1" xmlns="http://www.w3.org/2000/svg" xmlns:xlink="http://www.w3.org/1999/xlink" x="0px" y="0px"
	 width="48px" height="48px" viewBox="0 0 48 48" enable-background="new 0 0 48 48" xml:space="preserve">
<g>
	<path fill="#231F20" d="M47.922,10.616c-0.051-0.121-0.124-0.231-0.216-0.323l-10-10c-0.092-0.092-0.201-0.165-0.323-0.216
		C37.264,0.027,37.133,0,37,0H21c-0.552,0-1,0.448-1,1v28h2V2h14v9c0,0.552,0.448,1,1,1h9v22H28v2h19c0.552,0,1-0.448,1-1V11
		C48,10.867,47.973,10.736,47.922,10.616z M38,3.414L44.586,10H38V3.414z"/>
	<path fill="#231F20" d="M28,38h-3.574c-0.015-0.016-0.026-0.027-0.041-0.043C23.177,36.672,20.663,34,16,34h-6v-1
		c0-0.552-0.448-1-1-1H1c-0.552,0-1,0.448-1,1v14c0,0.552,0.448,1,1,1h8c0.552,0,1-0.448,1-1v-1h33c0.552,0,1-0.448,1-1
		C44,40.875,35.568,38,28,38z M8,46H2V34h6V46z M10,44v-8h6c2.577,0,4.329,0.996,5.54,2H14c-0.552,0-1,0.448-1,1s0.448,1,1,1h14
		c6.721,0,12.043,2.148,13.562,4H10z"/>
</g>
</svg>
