<?xml version="1.0" encoding="utf-8"?>
<!-- Generator: Adobe Illustrator 17.0.0, SVG Export Plug-In . SVG Version: 6.00 Build 0)  -->
<!DOCTYPE svg PUBLIC "-//W3C//DTD SVG 1.1//EN" "http://www.w3.org/Graphics/SVG/1.1/DTD/svg11.dtd">
<svg version="1.1" id="Layer_1" xmlns="http://www.w3.org/2000/svg" xmlns:xlink="http://www.w3.org/1999/xlink" x="0px" y="0px"
	 width="48px" height="48px" viewBox="0 0 48 48" enable-background="new 0 0 48 48" xml:space="preserve">
<g>
	<path fill="#231F20" d="M19,40H2V2h5v2H6v4h4V4H9V2h6v2h-1v4h4V4h-1V2h6v2h-1v4h4V4h-1V2h6v2h-1v4h4V4h-1V2h5v17
		c0,0.552,0.448,1,1,1s1-0.448,1-1V1c0-0.552-0.448-1-1-1H1C0.448,0,0,0.448,0,1v40c0,0.552,0.448,1,1,1h18c0.552,0,1-0.448,1-1
		S19.552,40,19,40z"/>
	<path fill="#231F20" d="M35,22c-7.169,0-13,5.832-13,13c0,7.169,5.831,13,13,13c7.168,0,13-5.831,13-13C48,27.832,42.168,22,35,22z
		 M35,46c-6.065,0-11-4.935-11-11s4.935-11,11-11s11,4.935,11,11S41.065,46,35,46z"/>
	<path fill="#231F20" d="M40.806,31.053l-6.931,7.596l-4.714-4.714c-0.391-0.391-1.023-0.391-1.414,0s-0.391,1.023,0,1.414
		l6.195,6.195l8.342-9.143c0.372-0.408,0.343-1.041-0.065-1.413C41.811,30.617,41.178,30.645,40.806,31.053z"/>
</g>
</svg>
