<?xml version="1.0" encoding="utf-8"?>
<!-- Generator: Adobe Illustrator 17.0.0, SVG Export Plug-In . SVG Version: 6.00 Build 0)  -->
<!DOCTYPE svg PUBLIC "-//W3C//DTD SVG 1.1//EN" "http://www.w3.org/Graphics/SVG/1.1/DTD/svg11.dtd">
<svg version="1.1" id="Layer_1" xmlns="http://www.w3.org/2000/svg" xmlns:xlink="http://www.w3.org/1999/xlink" x="0px" y="0px"
	 width="48px" height="48px" viewBox="0 0 48 48" enable-background="new 0 0 48 48" xml:space="preserve">
<g>
	<path fill="#231F20" d="M25,2h6v2h-1v4h4V4h-1V2h5v18c0,0.552,0.447,1,1,1s1-0.448,1-1V1c0-0.552-0.447-1-1-1H1
		C0.447,0,0,0.448,0,1v40c0,0.552,0.447,1,1,1h18c0.553,0,1-0.448,1-1s-0.447-1-1-1H2V2h5v2H6v4h4V4H9V2h6v2h-1v4h4V4h-1V2h6v2h-1v4
		h4V4h-1V2z"/>
	<path fill="#231F20" d="M30,38c0-4.411,3.589-8,8-8c2.473,0,4.727,1.126,6.226,3H41c-0.553,0-1,0.448-1,1s0.447,1,1,1h6v-0.659
		c0.073-0.202,0.067-0.422,0-0.637V29c0-0.552-0.447-1-1-1s-1,0.448-1,1v1.879C43.164,29.067,40.685,28,38,28
		c-5.514,0-10,4.486-10,10c0,0.552,0.447,1,1,1S30,38.552,30,38z"/>
	<path fill="#231F20" d="M47,37c-0.553,0-1,0.448-1,1c0,4.411-3.589,8-8,8c-2.474,0-4.729-1.126-6.227-3H34c0.553,0,1-0.448,1-1
		s-0.447-1-1-1h-5v0.659c-0.073,0.202-0.067,0.422,0,0.637V46c0,0.552,0.447,1,1,1s1-0.448,1-1v-0.878
		C32.836,46.933,35.314,48,38,48c5.514,0,10-4.486,10-10C48,37.448,47.553,37,47,37z"/>
</g>
</svg>
