<?xml version="1.0" encoding="utf-8"?>
<!-- Generator: Adobe Illustrator 17.0.0, SVG Export Plug-In . SVG Version: 6.00 Build 0)  -->
<!DOCTYPE svg PUBLIC "-//W3C//DTD SVG 1.1//EN" "http://www.w3.org/Graphics/SVG/1.1/DTD/svg11.dtd">
<svg version="1.1" id="Layer_1" xmlns="http://www.w3.org/2000/svg" xmlns:xlink="http://www.w3.org/1999/xlink" x="0px" y="0px"
	 width="48px" height="48px" viewBox="0 0 48 48" enable-background="new 0 0 48 48" xml:space="preserve">
<g>
	<path fill="#231F20" d="M22,4v4h4V4h-1V2h6v2h-1v4h4V4h-1V2h5v18c0,0.552,0.447,1,1,1s1-0.448,1-1V1c0-0.552-0.447-1-1-1H1
		C0.447,0,0,0.448,0,1v40c0,0.552,0.447,1,1,1h18c0.553,0,1-0.448,1-1s-0.447-1-1-1H2V2h5v2H6v4h4V4H9V2h6v2h-1v4h4V4h-1V2h6v2H22z"
		/>
	<path fill="#231F20" d="M47.707,29.29l-5-5c-0.391-0.391-1.023-0.391-1.414,0L26.29,39.293c0,0,0,0,0,0c0,0,0,0,0,0
		c-0.084,0.084-0.146,0.186-0.195,0.294c-0.011,0.024-0.022,0.047-0.031,0.073c-0.008,0.022-0.021,0.042-0.028,0.065l-2,7
		c-0.1,0.35-0.002,0.725,0.255,0.982C24.48,47.898,24.735,48,24.997,48c0.092,0,0.185-0.013,0.274-0.039l7-2
		c0.022-0.006,0.041-0.019,0.062-0.027c0.027-0.01,0.052-0.021,0.079-0.034c0.107-0.049,0.208-0.11,0.292-0.194l15.003-15.003
		C47.894,30.516,48,30.262,48,29.997S47.894,29.478,47.707,29.29z M31.997,43.586L28.411,40l9.587-9.588l3.586,3.586L31.997,43.586z
		 M27.492,41.909l2.597,2.597l-3.636,1.038L27.492,41.909z M42.999,32.584l-3.586-3.586L42,26.411l3.586,3.586L42.999,32.584z"/>
</g>
</svg>
