<?xml version="1.0" encoding="utf-8"?>
<!-- Generator: Adobe Illustrator 17.0.0, SVG Export Plug-In . SVG Version: 6.00 Build 0)  -->
<!DOCTYPE svg PUBLIC "-//W3C//DTD SVG 1.1//EN" "http://www.w3.org/Graphics/SVG/1.1/DTD/svg11.dtd">
<svg version="1.1" id="Layer_1" xmlns="http://www.w3.org/2000/svg" xmlns:xlink="http://www.w3.org/1999/xlink" x="0px" y="0px"
	 width="48px" height="48px" viewBox="0 0 48 48" enable-background="new 0 0 48 48" xml:space="preserve">
<path fill="#231F20" d="M43,0H5C4.447,0,4,0.448,4,1v46c0,0.552,0.447,1,1,1h38c0.553,0,1-0.448,1-1V1C44,0.448,43.553,0,43,0z
	 M42,46H6V2h5v2h-1v4h4V4h-1V2h6v2h-1v4h4V4h-1V2h6v2h-1v4h4V4h-1V2h6v2h-1v4h4V4h-1V2h5V46z"/>
</svg>
