<?xml version="1.0" encoding="utf-8"?>
<!-- Generator: Adobe Illustrator 17.0.0, SVG Export Plug-In . SVG Version: 6.00 Build 0)  -->
<!DOCTYPE svg PUBLIC "-//W3C//DTD SVG 1.1//EN" "http://www.w3.org/Graphics/SVG/1.1/DTD/svg11.dtd">
<svg version="1.1" id="Layer_1" xmlns="http://www.w3.org/2000/svg" xmlns:xlink="http://www.w3.org/1999/xlink" x="0px" y="0px"
	 width="48px" height="48px" viewBox="0 0 48 48" enable-background="new 0 0 48 48" xml:space="preserve">
<g>
	<path fill="#231F20" d="M19,40H2V2h5v2H6v4h4V4H9V2h6v2h-1v4h4V4h-1V2h6v2h-1v4h4V4h-1V2h6v2h-1v4h4V4h-1V2h5v17
		c0,0.552,0.448,1,1,1s1-0.448,1-1V1c0-0.552-0.448-1-1-1H1C0.448,0,0,0.448,0,1v40c0,0.552,0.448,1,1,1h18c0.552,0,1-0.448,1-1
		S19.552,40,19,40z"/>
	<path fill="#231F20" d="M35,22c-7.169,0-13,5.832-13,13c0,7.169,5.831,13,13,13c7.168,0,13-5.831,13-13C48,27.832,42.168,22,35,22z
		 M24,35c0-6.065,4.935-11,11-11c2.673,0,5.125,0.96,7.033,2.552L26.552,42.033C24.96,40.125,24,37.673,24,35z M35,46
		c-2.673,0-5.125-0.961-7.034-2.552l15.481-15.481C45.039,29.875,46,32.327,46,35C46,41.065,41.065,46,35,46z"/>
</g>
</svg>
