<?xml version="1.0" encoding="utf-8"?>
<!-- Generator: Adobe Illustrator 17.0.0, SVG Export Plug-In . SVG Version: 6.00 Build 0)  -->
<!DOCTYPE svg PUBLIC "-//W3C//DTD SVG 1.1//EN" "http://www.w3.org/Graphics/SVG/1.1/DTD/svg11.dtd">
<svg version="1.1" id="Layer_1" xmlns="http://www.w3.org/2000/svg" xmlns:xlink="http://www.w3.org/1999/xlink" x="0px" y="0px"
	 width="48px" height="48px" viewBox="0 0 48 48" enable-background="new 0 0 48 48" xml:space="preserve">
<g>
	<path fill="#231F20" d="M22,4v4h4V4h-1V2h6v2h-1v4h4V4h-1V2h5v18c0,0.552,0.447,1,1,1s1-0.448,1-1V1c0-0.552-0.447-1-1-1H1
		C0.447,0,0,0.448,0,1v40c0,0.552,0.447,1,1,1h18c0.553,0,1-0.448,1-1s-0.447-1-1-1H2V2h5v2H6v4h4V4H9V2h6v2h-1v4h4V4h-1V2h6v2H22z"
		/>
	<path fill="#231F20" d="M47.707,46.293l-6.349-6.349c1.163-1.468,1.863-3.319,1.862-5.333c0-4.748-3.862-8.611-8.609-8.611
		C29.863,26,26,29.863,26,34.612c0,4.747,3.863,8.61,8.611,8.61c2.014,0,3.865-0.701,5.333-1.864l6.349,6.349
		C46.488,47.902,46.744,48,47,48s0.512-0.098,0.707-0.293C48.098,47.316,48.098,46.684,47.707,46.293z M28,34.611
		C28,30.966,30.966,28,34.611,28c3.645,0,6.61,2.966,6.609,6.611c0,3.645-2.964,6.61-6.609,6.61C30.966,41.221,28,38.256,28,34.611z
		"/>
</g>
</svg>
