<?xml version="1.0" encoding="utf-8"?>
<!-- Generator: Adobe Illustrator 17.1.0, SVG Export Plug-In . SVG Version: 6.00 Build 0)  -->
<!DOCTYPE svg PUBLIC "-//W3C//DTD SVG 1.0//EN" "http://www.w3.org/TR/2001/REC-SVG-20010904/DTD/svg10.dtd">
<svg version="1.0" id="Layer_1" xmlns="http://www.w3.org/2000/svg" xmlns:xlink="http://www.w3.org/1999/xlink" x="0px" y="0px"
	 width="48px" height="48px" viewBox="0 0 48 48" enable-background="new 0 0 48 48" xml:space="preserve">
<g>
	<path d="M38,42c-1.103,0-2-0.897-2-2V26h3c0.552,0,1-0.447,1-1c0-0.553-0.448-1-1-1H9c-0.552,0-1,0.447-1,1c0,0.553,0.448,1,1,1h3
		v14c0,1.103-0.897,2-2,2c-0.552,0-1,0.447-1,1c0,0.553,0.448,1,1,1c2.206,0,4-1.794,4-4V26h4v21c0,0.553,0.448,1,1,1
		c0.552,0,1-0.447,1-1V26h3v21c0,0.553,0.448,1,1,1c0.552,0,1-0.447,1-1V26h3v21c0,0.553,0.448,1,1,1c0.552,0,1-0.447,1-1V26h4v14
		c0,2.206,1.794,4,4,4c0.552,0,1-0.447,1-1C39,42.447,38.552,42,38,42z"/>
	<path d="M44,18h-6v-5c0-0.134-0.027-0.264-0.078-0.385c-0.051-0.122-0.124-0.231-0.216-0.323L25.708,0.294
		c-0.092-0.092-0.201-0.165-0.323-0.216C25.264,0.027,25.133,0,25,0H11c-0.552,0-1,0.447-1,1v17H4c-2.206,0-4,1.794-4,4v4
		c0,2.206,1.794,4,4,4h4c0.552,0,1-0.447,1-1c0-0.553-0.448-1-1-1H4c-1.103,0-2-0.897-2-2v-4c0-1.103,0.897-2,2-2h7h26h7
		c1.103,0,2,0.897,2,2v4c0,1.103-0.897,2-2,2h-4c-0.552,0-1,0.447-1,1c0,0.553,0.448,1,1,1h4c2.206,0,4-1.794,4-4v-4
		C48,19.794,46.206,18,44,18z M26,3.414L34.586,12H26V3.414z M12,18V2h12v11c0,0.553,0.448,1,1,1h11v4H12z"/>
	<path d="M44,25c0-0.553-0.449-1-1-1c-0.555,0-1,0.447-1,1c0,0.553,0.445,1,1,1C43.551,26,44,25.553,44,25z"/>
</g>
</svg>
