<?xml version="1.0" encoding="utf-8"?>
<!-- Generator: Adobe Illustrator 17.0.0, SVG Export Plug-In . SVG Version: 6.00 Build 0)  -->
<!DOCTYPE svg PUBLIC "-//W3C//DTD SVG 1.1//EN" "http://www.w3.org/Graphics/SVG/1.1/DTD/svg11.dtd">
<svg version="1.1" id="Layer_1" xmlns="http://www.w3.org/2000/svg" xmlns:xlink="http://www.w3.org/1999/xlink" x="0px" y="0px"
	 width="60px" height="60px" viewBox="0 0 60 60" enable-background="new 0 0 60 60" xml:space="preserve">
<g>
	<path fill="#231F20" d="M8.185,50.075c-0.441,0.181-0.693,0.65-0.602,1.119C7.677,51.662,8.088,52,8.565,52h15.48
		c0.313,3.788,2.437,5.962,5.944,6c0.03,0,0.061,0,0.09,0c1.67,0,3.03-0.508,4.043-1.511c1.259-1.246,1.706-2.989,1.831-4.49h15.481
		c0.478,0,0.865-0.348,0.957-0.816c0.093-0.469-0.183-0.947-0.625-1.128c-2.7-1.109-4.767-2.112-4.768-4.019l0.393-10.515
		c0-6.825-3.95-12.957-10.117-15.797c-0.338-3.716-3.472-6.638-7.274-6.638c-3.803,0-6.937,2.921-7.274,6.638
		c-6.167,2.836-10.117,8.97-10.116,15.835L13,46C13,47.943,10.934,48.946,8.185,50.075z M32.716,55.067
		c-0.647,0.64-1.537,0.956-2.705,0.932c-2.374-0.026-3.697-1.376-3.956-4h7.892C33.839,53.018,33.533,54.259,32.716,55.067z
		 M14.999,45.962l-0.391-10.441c0-6.232,3.718-11.809,9.472-14.208c0.373-0.155,0.615-0.519,0.615-0.923
		c0-2.925,2.38-5.305,5.305-5.305s5.305,2.38,5.305,5.305c0,0.403,0.242,0.768,0.615,0.923c5.754,2.402,9.472,7.979,9.473,14.17
		L45,46c0,1.813,0.966,3.067,2.251,4H12.744C14.031,49.062,15,47.798,14.999,45.962z"/>
	<path fill="#231F20" d="M9.565,21c0-0.552-0.447-1-1-1H3.322l5.97-6.313c0.274-0.29,0.35-0.716,0.191-1.083
		C9.326,12.237,8.965,12,8.565,12H1c-0.553,0-1,0.448-1,1c0,0.552,0.447,1,1,1h5.243l-5.97,6.313
		c-0.274,0.29-0.35,0.716-0.191,1.083C0.239,21.762,0.601,22,1,22h7.565C9.118,22,9.565,21.552,9.565,21z"/>
	<path fill="#231F20" d="M23.695,2h2.896L22.93,6.356c-0.25,0.298-0.305,0.713-0.141,1.066C22.953,7.774,23.307,8,23.695,8h5.044
		c0.553,0,1-0.448,1-1c0-0.552-0.447-1-1-1h-2.896l3.662-4.356c0.25-0.298,0.305-0.713,0.141-1.066C29.481,0.225,29.128,0,28.739,0
		h-5.044c-0.553,0-1,0.448-1,1C22.695,1.552,23.143,2,23.695,2z"/>
	<path fill="#231F20" d="M59,16h-7.658l8.362-8.29c0.288-0.285,0.375-0.716,0.221-1.091C59.771,6.244,59.405,6,59,6H48.913
		c-0.553,0-1,0.448-1,1c0,0.552,0.447,1,1,1h7.658l-8.362,8.29c-0.288,0.285-0.375,0.716-0.221,1.091
		C48.143,17.755,48.508,18,48.913,18H59c0.553,0,1-0.448,1-1C60,16.447,59.553,16,59,16z"/>
</g>
</svg>
