<?xml version="1.0" encoding="utf-8"?>
<!-- Generator: Adobe Illustrator 17.0.0, SVG Export Plug-In . SVG Version: 6.00 Build 0)  -->
<!DOCTYPE svg PUBLIC "-//W3C//DTD SVG 1.1//EN" "http://www.w3.org/Graphics/SVG/1.1/DTD/svg11.dtd">
<svg version="1.1" id="Layer_1" xmlns="http://www.w3.org/2000/svg" xmlns:xlink="http://www.w3.org/1999/xlink" x="0px" y="0px"
	 width="60px" height="60px" viewBox="0 0 60 60" enable-background="new 0 0 60 60" xml:space="preserve">
<g>
	<path fill="#231F20" d="M15,37.044c0.553,0,1-0.448,1-1v-6c0-6.292,3.666-11.885,9.341-14.251c0.373-0.155,0.615-0.519,0.615-0.923
		c0-2.925,2.38-5.304,5.305-5.304s5.305,2.379,5.305,5.304c0,0.552,0.447,1,1,1c0.553,0,1-0.448,1-1
		c0-4.027-3.277-7.304-7.305-7.304c-3.804,0-6.938,2.921-7.274,6.638C17.898,17.012,14,23.16,14,30.044v6
		C14,36.596,14.447,37.044,15,37.044z"/>
	<path fill="#231F20" d="M51.662,46.07c-2.515-0.588-4.271-2.53-4.271-4.722V30c0-2.305-0.449-4.554-1.335-6.685
		c-0.212-0.511-0.799-0.75-1.308-0.539c-0.51,0.212-0.752,0.797-0.54,1.307c0.785,1.887,1.183,3.878,1.183,5.917v11.348
		c0,1.788,0.782,3.45,2.093,4.696H23.695c-0.553,0-1,0.448-1,1c0,0.552,0.447,1,1,1h0.391c0.464,2.871,2.891,5,5.913,5
		c3.022,0,5.449-2.129,5.913-5h15.521c0.508,0,0.936-0.381,0.993-0.885C52.486,46.653,52.157,46.186,51.662,46.07z M30,51.044
		c-1.894,0-3.429-1.259-3.864-3h7.728C33.429,49.784,31.894,51.044,30,51.044z"/>
	<path fill="#231F20" d="M58.293,0.293l-58,58c-0.391,0.391-0.391,1.023,0,1.414C0.488,59.902,0.744,60,1,60
		c0.256,0,0.512-0.098,0.707-0.293l58-58c0.391-0.391,0.391-1.023,0-1.414C59.316-0.098,58.684-0.098,58.293,0.293z"/>
</g>
</svg>
