<?xml version="1.0" encoding="utf-8"?>
<!-- Generator: Adobe Illustrator 17.0.0, SVG Export Plug-In . SVG Version: 6.00 Build 0)  -->
<!DOCTYPE svg PUBLIC "-//W3C//DTD SVG 1.1//EN" "http://www.w3.org/Graphics/SVG/1.1/DTD/svg11.dtd">
<svg version="1.1" id="Layer_1" xmlns="http://www.w3.org/2000/svg" xmlns:xlink="http://www.w3.org/1999/xlink" x="0px" y="0px"
	 width="60px" height="60px" viewBox="0 0 60 60" enable-background="new 0 0 60 60" xml:space="preserve">
<g>
	<path fill="#231F20" d="M30,0C13.458,0,0,13.458,0,30s13.458,30,30,30s30-13.458,30-30S46.542,0,30,0z M30,58
		C14.56,58,2,45.44,2,30S14.56,2,30,2s28,12.56,28,28S45.44,58,30,58z"/>
	<path fill="#231F20" d="M34.166,32.755C34.691,31.964,35,31.018,35,30c0-2.757-2.243-5-5-5v-8.87c0-0.552-0.447-1-1-1
		c-0.553,0-1,0.448-1,1v9.293c-1.763,0.774-3,2.531-3,4.576c0,2.757,2.243,5,5,5c1.016,0,1.961-0.309,2.751-0.832l11.673,11.669
		c0.195,0.195,0.451,0.293,0.707,0.293c0.256,0,0.512-0.098,0.707-0.293c0.391-0.391,0.391-1.024,0-1.414L34.166,32.755z M27,30
		c0-1.278,0.807-2.364,1.936-2.796c0.022,0.002,0.042,0.013,0.064,0.013c0.197,0,0.369-0.071,0.524-0.169
		C29.68,27.023,29.837,27,30,27c1.654,0,3,1.346,3,3c0,0.636-0.202,1.224-0.541,1.71c-0.182,0.039-0.359,0.111-0.5,0.253
		c-0.141,0.141-0.214,0.318-0.253,0.5C31.221,32.799,30.634,33,30,33C28.346,33,27,31.654,27,30z"/>
</g>
</svg>
