<?xml version="1.0" encoding="utf-8"?>
<!-- Generator: Adobe Illustrator 17.0.0, SVG Export Plug-In . SVG Version: 6.00 Build 0)  -->
<!DOCTYPE svg PUBLIC "-//W3C//DTD SVG 1.1//EN" "http://www.w3.org/Graphics/SVG/1.1/DTD/svg11.dtd">
<svg version="1.1" id="Layer_1" xmlns="http://www.w3.org/2000/svg" xmlns:xlink="http://www.w3.org/1999/xlink" x="0px" y="0px"
	 width="60px" height="60px" viewBox="0 0 60 60" enable-background="new 0 0 60 60" xml:space="preserve">
<g>
	<path fill="#231F20" d="M12,46v12H8c-0.552,0-1,0.448-1,1c0,0.552,0.448,1,1,1h5h32h5c0.552,0,1-0.448,1-1c0-0.552-0.448-1-1-1h-4
		V45.995C45.964,38.409,41.465,32.301,34.888,30C41.465,27.699,45.964,21.59,46,14V2h4c0.552,0,1-0.448,1-1c0-0.552-0.448-1-1-1h-5
		H13H8C7.448,0,7,0.448,7,1c0,0.552,0.448,1,1,1h4v12c0,7.483,4.611,13.675,11.201,16C16.611,32.325,12,38.517,12,46z M14,58v-8h8
		c0.265,0,0.519-0.105,0.707-0.293L29,43.414l6.293,6.293C35.481,49.895,35.735,50,36,50h8v8H14z M14,2h30v11.995
		c-0.015,3.06-0.861,5.842-2.316,8.165c-0.152-0.092-0.319-0.16-0.51-0.16H16.262C14.833,19.696,14,16.966,14,14V2z M17.753,24
		h22.562c-2.709,3.096-6.704,5-11.314,5C24.47,29,20.481,27.078,17.753,24z M29,31c8.51,0,14.959,6.451,15,15v2h-7.586l-6.707-6.707
		c-0.391-0.391-1.023-0.391-1.414,0L21.586,48H14v-2C14,37.589,20.589,31,29,31z"/>
</g>
</svg>
