<?xml version="1.0" encoding="utf-8"?>
<!-- Generator: Adobe Illustrator 17.0.0, SVG Export Plug-In . SVG Version: 6.00 Build 0)  -->
<!DOCTYPE svg PUBLIC "-//W3C//DTD SVG 1.1//EN" "http://www.w3.org/Graphics/SVG/1.1/DTD/svg11.dtd">
<svg version="1.1" id="Layer_1" xmlns="http://www.w3.org/2000/svg" xmlns:xlink="http://www.w3.org/1999/xlink" x="0px" y="0px"
	 width="60px" height="60px" viewBox="0 0 60 60" enable-background="new 0 0 60 60" xml:space="preserve">
<g>
	<path fill="#231F20" d="M10.127,58H7c-0.552,0-1,0.448-1,1c0,0.552,0.448,1,1,1h3.783h37.826H53c0.552,0,1-0.448,1-1
		c0-0.552-0.448-1-1-1h-3.735L37.09,30L49.265,2H53c0.552,0,1-0.448,1-1c0-0.552-0.448-1-1-1h-4.378c-0.001,0-0.002,0-0.004,0
		H10.775c-0.002,0-0.004,0-0.006,0H7C6.448,0,6,0.448,6,1c0,0.552,0.448,1,1,1h3.127l12.174,28L10.127,58z M12.308,2h34.776
		L35.083,29.601c-0.111,0.254-0.111,0.543,0,0.798l12,27.601H12.308l12-27.601c0.111-0.254,0.111-0.543,0-0.798L12.308,2z"/>
	<path fill="#231F20" d="M29.696,28.479c0.398,0,0.758-0.236,0.917-0.601l6.304-14.479c0.134-0.31,0.104-0.665-0.081-0.947
		C36.652,12.17,36.337,12,36,12H23.391c-0.337,0-0.652,0.17-0.836,0.452c-0.185,0.282-0.215,0.638-0.081,0.947l6.305,14.479
		C28.938,28.243,29.298,28.479,29.696,28.479z M34.474,14l-4.778,10.974L24.917,14H34.474z"/>
	<path fill="#231F20" d="M28.83,37.065L18.743,54.499c-0.179,0.31-0.179,0.691-0.001,1c0.179,0.31,0.509,0.5,0.866,0.5h20.174
		c0.007,0,0.013,0,0.02,0c0.552,0,1-0.448,1-1c0-0.249-0.091-0.477-0.242-0.652l-9.999-17.283
		C30.204,36.447,29.188,36.447,28.83,37.065z M21.343,54l8.353-14.438L38.049,54H21.343z"/>
</g>
</svg>
