<?xml version="1.0" encoding="utf-8"?>
<!-- Generator: Adobe Illustrator 17.0.0, SVG Export Plug-In . SVG Version: 6.00 Build 0)  -->
<!DOCTYPE svg PUBLIC "-//W3C//DTD SVG 1.1//EN" "http://www.w3.org/Graphics/SVG/1.1/DTD/svg11.dtd">
<svg version="1.1" id="Layer_1" xmlns="http://www.w3.org/2000/svg" xmlns:xlink="http://www.w3.org/1999/xlink" x="0px" y="0px"
	 width="60px" height="60px" viewBox="0 0 60 60" enable-background="new 0 0 60 60" xml:space="preserve">
<g>
	<path fill="#231F20" d="M46.978,15.436l1.184,1.184c0.195,0.195,0.451,0.293,0.707,0.293c0.256,0,0.512-0.098,0.707-0.293
		c0.391-0.391,0.391-1.023,0-1.414l-1.889-1.89c-0.001-0.001-0.001-0.001-0.001-0.002s-0.001-0.001-0.002-0.001l-1.89-1.89
		c-0.391-0.391-1.023-0.391-1.414,0c-0.391,0.39-0.391,1.023,0,1.414l1.184,1.184l-3.542,3.542
		c-4.372-3.776-9.97-6.168-16.022-6.407V6h2c0.553,0,1-0.448,1-1c0-0.552-0.447-1-1-1h-6c-0.553,0-1,0.448-1,1c0,0.552,0.447,1,1,1
		h2v6.13V37c0,0.552,0.447,1,1,1h25.131c0.553,0,1-0.448,1-1c0-6.955-2.946-13.372-7.641-18.076L46.978,15.436z M26,36V13.152
		C38.303,13.676,48.572,23.831,49.108,36H26z"/>
	<path fill="#231F20" d="M13,37c0-0.552-0.447-1-1-1H7c-0.553,0-1,0.448-1,1c0,0.552,0.447,1,1,1h5C12.553,38,13,37.552,13,37z"/>
	<path fill="#231F20" d="M13.012,24.032c-0.391-0.391-1.023-0.391-1.414,0c-0.391,0.391-0.391,1.023,0,1.414l3.782,3.782
		c0.195,0.195,0.451,0.293,0.707,0.293c0.256,0,0.512-0.098,0.707-0.293c0.391-0.391,0.391-1.023,0-1.414L13.012,24.032z"/>
	<path fill="#231F20" d="M25,48.957c-0.553,0-1,0.448-1,1V55c0,0.552,0.447,1,1,1c0.553,0,1-0.448,1-1v-5.043
		C26,49.404,25.553,48.957,25,48.957z"/>
	<path fill="#231F20" d="M15.38,45.467l-3.782,3.782c-0.391,0.391-0.391,1.023,0,1.414c0.195,0.195,0.451,0.293,0.707,0.293
		c0.256,0,0.512-0.098,0.707-0.293l3.782-3.782c0.391-0.391,0.391-1.023,0-1.414C16.403,45.076,15.771,45.076,15.38,45.467z"/>
	<path fill="#231F20" d="M34.446,45.467c-0.391-0.391-1.023-0.391-1.414,0c-0.391,0.391-0.391,1.023,0,1.414l3.782,3.783
		c0.195,0.195,0.451,0.293,0.707,0.293c0.256,0,0.512-0.098,0.707-0.293c0.391-0.39,0.391-1.023,0-1.414L34.446,45.467z"/>
	<path fill="#231F20" d="M36.815,24.032l-3.782,3.782c-0.391,0.391-0.391,1.023,0,1.414c0.195,0.195,0.451,0.293,0.707,0.293
		s0.512-0.098,0.707-0.293l3.782-3.782c0.391-0.391,0.391-1.023,0-1.414C37.838,23.642,37.205,23.642,36.815,24.032z"/>
</g>
</svg>
