<?xml version="1.0" encoding="utf-8"?>
<!-- Generator: Adobe Illustrator 17.0.0, SVG Export Plug-In . SVG Version: 6.00 Build 0)  -->
<!DOCTYPE svg PUBLIC "-//W3C//DTD SVG 1.1//EN" "http://www.w3.org/Graphics/SVG/1.1/DTD/svg11.dtd">
<svg version="1.1" id="Layer_1" xmlns="http://www.w3.org/2000/svg" xmlns:xlink="http://www.w3.org/1999/xlink" x="0px" y="0px"
	 width="60px" height="60px" viewBox="0 0 60 60" enable-background="new 0 0 60 60" xml:space="preserve">
<g>
	<path fill="#231F20" d="M31,0c-0.553,0-1,0.448-1,1v27.044H1c-0.553,0-1,0.448-1,1C0,45.824,13.738,60,30,60
		c16.542,0,30-13.458,30-30C60,13.738,46.72,0,31,0z M30,58C15.146,58,2.547,45.299,2.018,30.044H31c0.553,0,1-0.448,1-1V2.02
		C46.193,2.588,58,15.17,58,30C58,45.44,45.439,58,30,58z"/>
	<path fill="#231F20" d="M47.913,29.044c0,0.552,0.447,1,1,1h5.043c0.553,0,1-0.448,1-1c0-0.552-0.447-1-1-1h-5.043
		C48.36,28.044,47.913,28.491,47.913,29.044z"/>
	<path fill="#231F20" d="M44.081,42.667c-0.391-0.391-1.023-0.391-1.414,0c-0.391,0.39-0.391,1.023,0,1.414l3.565,3.566
		c0.195,0.195,0.451,0.293,0.707,0.293c0.256,0,0.512-0.098,0.707-0.293c0.391-0.39,0.391-1.023,0-1.414L44.081,42.667z"/>
	<path fill="#231F20" d="M15.919,17.333c0.195,0.195,0.451,0.293,0.707,0.293c0.256,0,0.512-0.098,0.707-0.293
		c0.391-0.391,0.391-1.023,0-1.414l-3.566-3.566c-0.391-0.391-1.023-0.391-1.414,0c-0.391,0.391-0.391,1.023,0,1.414L15.919,17.333z
		"/>
	<path fill="#231F20" d="M31.261,47.913c-0.553,0-1,0.448-1,1v5.043c0,0.552,0.447,1,1,1c0.553,0,1-0.448,1-1v-5.043
		C32.261,48.361,31.813,47.913,31.261,47.913z"/>
	<path fill="#231F20" d="M15.919,42.667l-3.566,3.566c-0.391,0.391-0.391,1.023,0,1.414c0.195,0.195,0.451,0.293,0.707,0.293
		c0.256,0,0.512-0.098,0.707-0.293l3.566-3.566c0.391-0.391,0.391-1.023,0-1.414C16.942,42.276,16.31,42.276,15.919,42.667z"/>
	<path fill="#231F20" d="M43.374,17.627c0.256,0,0.512-0.098,0.707-0.293l3.565-3.566c0.391-0.391,0.391-1.024,0-1.414
		c-0.391-0.391-1.023-0.391-1.414,0l-3.565,3.566c-0.391,0.391-0.391,1.024,0,1.414C42.862,17.529,43.118,17.627,43.374,17.627z"/>
</g>
</svg>
