<?xml version="1.0" encoding="utf-8"?>
<!-- Generator: Adobe Illustrator 17.0.0, SVG Export Plug-In . SVG Version: 6.00 Build 0)  -->
<!DOCTYPE svg PUBLIC "-//W3C//DTD SVG 1.1//EN" "http://www.w3.org/Graphics/SVG/1.1/DTD/svg11.dtd">
<svg version="1.1" id="Layer_1" xmlns="http://www.w3.org/2000/svg" xmlns:xlink="http://www.w3.org/1999/xlink" x="0px" y="0px"
	 width="60px" height="60px" viewBox="0 0 60 60" enable-background="new 0 0 60 60" xml:space="preserve">
<g>
	<path fill="#231F20" d="M31,0C14.196,0,0,13.738,0,30c0,16.262,14.196,30,31,30c0.552,0,1-0.448,1-1V1C32,0.448,31.552,0,31,0z
		 M30,57.983C14.722,57.453,2,44.854,2,30S14.722,2.547,30,2.017V57.983z"/>
	<path fill="#231F20" d="M5.044,29.044c0,0.552,0.448,1,1,1h5.043c0.552,0,1-0.448,1-1c0-0.552-0.448-1-1-1H6.044
		C5.491,28.044,5.044,28.491,5.044,29.044z"/>
	<path fill="#231F20" d="M53.956,28.044h-5.043c-0.552,0-1,0.448-1,1c0,0.552,0.448,1,1,1h5.043c0.552,0,1-0.448,1-1
		C54.956,28.491,54.509,28.044,53.956,28.044z"/>
	<path fill="#231F20" d="M15.919,42.667l-3.566,3.566c-0.391,0.391-0.391,1.024,0,1.414c0.195,0.195,0.451,0.293,0.707,0.293
		c0.256,0,0.512-0.098,0.707-0.293l3.566-3.566c0.391-0.391,0.391-1.024,0-1.414C16.943,42.276,16.31,42.276,15.919,42.667z"/>
	<path fill="#231F20" d="M43.374,17.627c0.256,0,0.512-0.098,0.707-0.293l3.565-3.566c0.391-0.391,0.391-1.024,0-1.414
		c-0.391-0.391-1.023-0.391-1.414,0l-3.565,3.566c-0.391,0.391-0.391,1.024,0,1.414C42.862,17.529,43.118,17.627,43.374,17.627z"/>
	<path fill="#231F20" d="M44.081,42.667c-0.391-0.391-1.023-0.391-1.414,0c-0.391,0.39-0.391,1.023,0,1.414l3.565,3.566
		c0.195,0.195,0.451,0.293,0.707,0.293c0.256,0,0.512-0.098,0.707-0.293c0.391-0.39,0.391-1.023,0-1.414L44.081,42.667z"/>
	<path fill="#231F20" d="M15.919,17.333c0.195,0.195,0.451,0.293,0.707,0.293s0.512-0.098,0.707-0.293
		c0.391-0.391,0.391-1.023,0-1.414l-3.566-3.566c-0.391-0.391-1.023-0.391-1.414,0c-0.391,0.391-0.391,1.023,0,1.414L15.919,17.333z
		"/>
</g>
</svg>
