<?xml version="1.0" encoding="utf-8"?>
<!-- Generator: Adobe Illustrator 17.0.0, SVG Export Plug-In . SVG Version: 6.00 Build 0)  -->
<!DOCTYPE svg PUBLIC "-//W3C//DTD SVG 1.1//EN" "http://www.w3.org/Graphics/SVG/1.1/DTD/svg11.dtd">
<svg version="1.1" id="Layer_1" xmlns="http://www.w3.org/2000/svg" xmlns:xlink="http://www.w3.org/1999/xlink" x="0px" y="0px"
	 width="60px" height="60px" viewBox="0 0 60 60" enable-background="new 0 0 60 60" xml:space="preserve">
<g>
	<path fill="#231F20" d="M49.935,11.871l1.184,1.184c0.195,0.195,0.451,0.293,0.707,0.293c0.256,0,0.512-0.098,0.707-0.293
		c0.391-0.391,0.391-1.024,0-1.414L48.75,7.858c-0.391-0.391-1.023-0.391-1.414,0c-0.391,0.391-0.391,1.024,0,1.414l1.184,1.184
		l-3.557,3.557C40.444,10.179,34.554,7.809,28,7.589V2h2c0.552,0,1-0.448,1-1c0-0.552-0.448-1-1-1h-6c-0.552,0-1,0.448-1,1
		c0,0.552,0.448,1,1,1h2v6.565V59c0,0.552,0.448,1,1,1c15.189,0,27.087-11.516,27.087-26.217c0-7.247-2.895-13.716-7.647-18.418
		L49.935,11.871z M28,57.982V9.583c13.586,0.49,24.087,10.943,24.087,24.199C52.087,47.039,41.586,57.492,28,57.982z"/>
	<path fill="#231F20" d="M16,33c0-0.552-0.448-1-1-1h-5c-0.552,0-1,0.448-1,1c0,0.552,0.448,1,1,1h5C15.552,34,16,33.552,16,33z"/>
	<path fill="#231F20" d="M15.968,20.467c-0.391-0.391-1.023-0.391-1.414,0c-0.391,0.391-0.391,1.023,0,1.414l3.782,3.783
		c0.195,0.195,0.451,0.293,0.707,0.293c0.256,0,0.512-0.098,0.707-0.293c0.391-0.39,0.391-1.023,0-1.414L15.968,20.467z"/>
	<path fill="#231F20" d="M18.336,41.902l-3.783,3.782c-0.391,0.39-0.391,1.023,0,1.414c0.195,0.195,0.451,0.293,0.707,0.293
		c0.256,0,0.512-0.098,0.707-0.293l3.783-3.782c0.391-0.39,0.391-1.023,0-1.414C19.36,41.511,18.727,41.511,18.336,41.902z"/>
	<path fill="#231F20" d="M40,32c-0.552,0-1,0.448-1,1c0,0.552,0.448,1,1,1h5c0.552,0,1-0.448,1-1c0-0.552-0.448-1-1-1H40z"/>
	<path fill="#231F20" d="M37.403,41.902c-0.391-0.391-1.023-0.391-1.414,0c-0.391,0.391-0.391,1.023,0,1.414l3.782,3.782
		c0.195,0.195,0.451,0.293,0.707,0.293s0.512-0.098,0.707-0.293c0.391-0.391,0.391-1.023,0-1.414L37.403,41.902z"/>
	<path fill="#231F20" d="M36.696,25.957c0.256,0,0.512-0.098,0.707-0.293l3.783-3.782c0.391-0.39,0.391-1.023,0-1.414
		c-0.391-0.391-1.023-0.391-1.414,0l-3.783,3.782c-0.391,0.39-0.391,1.023,0,1.414C36.184,25.859,36.44,25.957,36.696,25.957z"/>
</g>
</svg>
