<?xml version="1.0" encoding="utf-8"?>
<!-- Generator: Adobe Illustrator 17.0.0, SVG Export Plug-In . SVG Version: 6.00 Build 0)  -->
<!DOCTYPE svg PUBLIC "-//W3C//DTD SVG 1.1//EN" "http://www.w3.org/Graphics/SVG/1.1/DTD/svg11.dtd">
<svg version="1.1" id="Layer_1" xmlns="http://www.w3.org/2000/svg" xmlns:xlink="http://www.w3.org/1999/xlink" x="0px" y="0px"
	 width="60px" height="60px" viewBox="0 0 60 60" enable-background="new 0 0 60 60" xml:space="preserve">
<g>
	<path fill="#231F20" d="M25,0c-0.553,0-1,0.448-1,1v58c0,0.552,0.447,1,1,1c16.78,0,30.956-13.738,30.956-30
		C55.956,13.738,41.78,0,25,0z M26,57.982V2.018C41.255,2.547,53.956,15.146,53.956,30C53.956,44.855,41.255,57.453,26,57.982z"/>
	<path fill="#231F20" d="M49.913,28.044h-5.044c-0.553,0-1,0.448-1,1c0,0.552,0.447,1,1,1h5.044c0.553,0,1-0.448,1-1
		C50.913,28.491,50.466,28.044,49.913,28.044z"/>
	<path fill="#231F20" d="M7.043,28.044H2c-0.553,0-1,0.448-1,1c0,0.552,0.447,1,1,1h5.043c0.553,0,1-0.448,1-1
		C8.043,28.491,7.596,28.044,7.043,28.044z"/>
	<path fill="#231F20" d="M40.037,42.667c-0.391-0.391-1.023-0.391-1.414,0c-0.391,0.391-0.391,1.023,0,1.414l3.566,3.566
		c0.195,0.195,0.451,0.293,0.707,0.293c0.256,0,0.512-0.098,0.707-0.293c0.391-0.391,0.391-1.023,0-1.414L40.037,42.667z"/>
	<path fill="#231F20" d="M9.724,12.353c-0.391-0.391-1.023-0.391-1.414,0c-0.391,0.391-0.391,1.023,0,1.414l3.566,3.566
		c0.195,0.195,0.451,0.293,0.707,0.293c0.256,0,0.512-0.098,0.707-0.293c0.391-0.391,0.391-1.023,0-1.414L9.724,12.353z"/>
	<path fill="#231F20" d="M11.876,42.667L8.31,46.233c-0.391,0.391-0.391,1.023,0,1.414c0.195,0.195,0.451,0.293,0.707,0.293
		c0.256,0,0.512-0.098,0.707-0.293l3.566-3.566c0.391-0.391,0.391-1.023,0-1.414C12.899,42.276,12.267,42.276,11.876,42.667z"/>
	<path fill="#231F20" d="M39.33,17.627c0.256,0,0.512-0.098,0.707-0.293l3.566-3.566c0.391-0.39,0.391-1.023,0-1.414
		c-0.391-0.391-1.023-0.391-1.414,0l-3.566,3.566c-0.391,0.39-0.391,1.023,0,1.414C38.818,17.529,39.074,17.627,39.33,17.627z"/>
</g>
</svg>
