<?xml version="1.0" encoding="utf-8"?>
<!-- Generator: Adobe Illustrator 17.0.0, SVG Export Plug-In . SVG Version: 6.00 Build 0)  -->
<!DOCTYPE svg PUBLIC "-//W3C//DTD SVG 1.1//EN" "http://www.w3.org/Graphics/SVG/1.1/DTD/svg11.dtd">
<svg version="1.1" id="Layer_1" xmlns="http://www.w3.org/2000/svg" xmlns:xlink="http://www.w3.org/1999/xlink" x="0px" y="0px"
	 width="60px" height="60px" viewBox="0 0 60 60" enable-background="new 0 0 60 60" xml:space="preserve">
<g>
	<path fill="#231F20" d="M51.087,15.023l0.554,0.554c0.195,0.195,0.451,0.293,0.707,0.293c0.256,0,0.512-0.098,0.707-0.293
		c0.391-0.39,0.391-1.023,0-1.414l-2.521-2.522c-0.391-0.391-1.023-0.391-1.414,0c-0.391,0.39-0.391,1.023,0,1.414l0.554,0.554
		l-2.884,2.884c-3.504-3.182-7.913-5.381-12.789-6.168V2h3c0.552,0,1-0.448,1-1s-0.448-1-1-1h-4h-6h-4c-0.552,0-1,0.448-1,1
		s0.448,1,1,1h3v8.324C14.11,12.245,5,22.576,5,35c0,13.785,11.215,25,25,25s25-11.215,25-25c0-6.611-2.584-12.626-6.789-17.101
		L51.087,15.023z M28,2h4v8.087C31.339,10.035,30.674,10,30,10s-1.339,0.035-2,0.087V2z M30,58C17.318,58,7,47.682,7,35
		s10.318-23,23-23c6.012,0,11.489,2.321,15.591,6.111c0.001,0.254,0.098,0.508,0.292,0.702c0.195,0.195,0.451,0.293,0.707,0.293
		c0.003,0,0.006-0.002,0.008-0.002C50.559,23.237,53,28.837,53,35C53,47.682,42.682,58,30,58z"/>
	<path fill="#231F20" d="M19.011,22.989c-0.391-0.391-1.023-0.391-1.414,0c-0.391,0.391-0.391,1.023,0,1.414L28.945,35.75
		c0.195,0.195,0.451,0.293,0.707,0.293c0.256,0,0.512-0.098,0.707-0.293c0.391-0.391,0.391-1.023,0-1.414L19.011,22.989z"/>
</g>
</svg>
