<?xml version="1.0" encoding="utf-8"?>
<!-- Generator: Adobe Illustrator 17.0.0, SVG Export Plug-In . SVG Version: 6.00 Build 0)  -->
<!DOCTYPE svg PUBLIC "-//W3C//DTD SVG 1.1//EN" "http://www.w3.org/Graphics/SVG/1.1/DTD/svg11.dtd">
<svg version="1.1" id="Layer_1" xmlns="http://www.w3.org/2000/svg" xmlns:xlink="http://www.w3.org/1999/xlink" x="0px" y="0px"
	 width="60px" height="60px" viewBox="0 0 60 60" enable-background="new 0 0 60 60" xml:space="preserve">
<g>
	<path fill="#231F20" d="M18.392,33c0-0.552-0.447-1-1-1h-5.044c-0.553,0-1,0.448-1,1c0,0.552,0.447,1,1,1h5.044
		C17.944,34,18.392,33.552,18.392,33z"/>
	<path fill="#231F20" d="M18.099,20.467c-0.391-0.391-1.023-0.391-1.414,0c-0.391,0.391-0.391,1.023,0,1.414l3.782,3.783
		c0.195,0.195,0.451,0.293,0.707,0.293c0.256,0,0.512-0.098,0.707-0.293c0.391-0.39,0.391-1.023,0-1.414L18.099,20.467z"/>
	<path fill="#231F20" d="M20.467,41.902l-3.782,3.782c-0.391,0.391-0.391,1.023,0,1.414c0.195,0.195,0.451,0.293,0.707,0.293
		c0.256,0,0.512-0.098,0.707-0.293l3.782-3.782c0.391-0.391,0.391-1.023,0-1.414C21.49,41.511,20.857,41.511,20.467,41.902z"/>
	<path fill="#231F20" d="M41.608,33c0,0.552,0.447,1,1,1h5.044c0.553,0,1-0.448,1-1c0-0.552-0.447-1-1-1h-5.044
		C42.056,32,41.608,32.448,41.608,33z"/>
	<path fill="#231F20" d="M31,45.391c-0.553,0-1,0.448-1,1v5.044c0,0.552,0.447,1,1,1c0.553,0,1-0.448,1-1v-5.044
		C32,45.839,31.553,45.391,31,45.391z"/>
	<path fill="#231F20" d="M31,15.13c-0.553,0-1,0.448-1,1v5.043c0,0.552,0.447,1,1,1c0.553,0,1-0.448,1-1V16.13
		C32,15.578,31.553,15.13,31,15.13z"/>
	<path fill="#231F20" d="M39.533,41.902c-0.391-0.391-1.023-0.391-1.414,0c-0.391,0.391-0.391,1.023,0,1.414l3.782,3.782
		c0.195,0.195,0.451,0.293,0.707,0.293c0.256,0,0.512-0.098,0.707-0.293c0.391-0.391,0.391-1.023,0-1.414L39.533,41.902z"/>
	<path fill="#231F20" d="M38.826,25.957c0.256,0,0.512-0.098,0.707-0.293l3.782-3.782c0.391-0.391,0.391-1.023,0-1.414
		c-0.391-0.391-1.023-0.391-1.414,0l-3.782,3.782c-0.391,0.391-0.391,1.023,0,1.414C38.315,25.859,38.57,25.957,38.826,25.957z"/>
	<path fill="#231F20" d="M48.343,15.592l3.722-3.721l1.184,1.184c0.195,0.195,0.451,0.293,0.707,0.293s0.512-0.098,0.707-0.293
		c0.391-0.391,0.391-1.023,0-1.414l-1.89-1.89c0,0-0.001-0.001-0.001-0.001s-0.001-0.001-0.001-0.001l-1.89-1.89
		c-0.391-0.391-1.023-0.391-1.414,0c-0.391,0.391-0.391,1.023,0,1.414l1.184,1.184l-3.782,3.782C42.8,10.761,37.651,8.517,32,8.085
		V2h1.782c0.553,0,1-0.448,1-1c0-0.552-0.447-1-1-1h-6c-0.553,0-1,0.448-1,1c0,0.552,0.447,1,1,1H30v6C15.663,8,4,19.664,4,34
		c0,14.336,11.663,26,26,26s26-11.664,26-26C56,26.815,53.07,20.303,48.343,15.592z M30,58C16.767,58,6,47.233,6,34s10.767-24,24-24
		s24,10.767,24,24S43.233,58,30,58z"/>
</g>
</svg>
