<?xml version="1.0" encoding="utf-8"?>
<!-- Generator: Adobe Illustrator 17.0.0, SVG Export Plug-In . SVG Version: 6.00 Build 0)  -->
<!DOCTYPE svg PUBLIC "-//W3C//DTD SVG 1.1//EN" "http://www.w3.org/Graphics/SVG/1.1/DTD/svg11.dtd">
<svg version="1.1" id="Layer_1" xmlns="http://www.w3.org/2000/svg" xmlns:xlink="http://www.w3.org/1999/xlink" x="0px" y="0px"
	 width="60px" height="60px" viewBox="0 0 60 60" enable-background="new 0 0 60 60" xml:space="preserve">
<g>
	<path fill="#231F20" d="M27.739,2.522H27c-0.552,0-1,0.448-1,1v27.522c0,0.552,0.448,1,1,1h31c0.552,0,1-0.448,1-1
		C59,15.317,44.977,2.522,27.739,2.522z M28,30.044V4.523c15.647,0.124,28.401,11.436,28.979,25.521H28z"/>
	<path fill="#231F20" d="M10.087,30.261H5.043c-0.552,0-1,0.448-1,1s0.448,1,1,1h5.043c0.552,0,1-0.448,1-1
		S10.639,30.261,10.087,30.261z"/>
	<path fill="#231F20" d="M43.081,45.189c-0.391-0.391-1.023-0.391-1.414,0c-0.391,0.391-0.391,1.023,0,1.414l3.566,3.566
		c0.195,0.195,0.451,0.293,0.707,0.293c0.256,0,0.512-0.098,0.707-0.293c0.391-0.391,0.391-1.023,0-1.414L43.081,45.189z"/>
	<path fill="#231F20" d="M12.767,14.875c-0.391-0.391-1.023-0.391-1.414,0c-0.391,0.391-0.391,1.023,0,1.414l3.566,3.566
		c0.195,0.195,0.451,0.293,0.707,0.293s0.512-0.098,0.707-0.293c0.391-0.391,0.391-1.024,0-1.414L12.767,14.875z"/>
	<path fill="#231F20" d="M14.919,45.189l-3.566,3.566c-0.391,0.39-0.391,1.023,0,1.414c0.195,0.195,0.451,0.293,0.707,0.293
		s0.512-0.098,0.707-0.293l3.566-3.566c0.391-0.39,0.391-1.023,0-1.414C15.942,44.798,15.31,44.798,14.919,45.189z"/>
	<path fill="#231F20" d="M27,50.435c-0.552,0-1,0.448-1,1v5.043c0,0.552,0.448,1,1,1s1-0.448,1-1v-5.043
		C28,50.882,27.552,50.435,27,50.435z"/>
	<path fill="#231F20" d="M45.232,14.875l-3.566,3.566c-0.391,0.391-0.391,1.024,0,1.414c0.195,0.195,0.451,0.293,0.707,0.293
		c0.256,0,0.512-0.098,0.707-0.293l3.566-3.566c0.391-0.391,0.391-1.024,0-1.414C46.256,14.484,45.623,14.484,45.232,14.875z"/>
</g>
</svg>
