<?xml version="1.0" encoding="utf-8"?>
<!-- Generator: Adobe Illustrator 17.0.0, SVG Export Plug-In . SVG Version: 6.00 Build 0)  -->
<!DOCTYPE svg PUBLIC "-//W3C//DTD SVG 1.1//EN" "http://www.w3.org/Graphics/SVG/1.1/DTD/svg11.dtd">
<svg version="1.1" id="Layer_1" xmlns="http://www.w3.org/2000/svg" xmlns:xlink="http://www.w3.org/1999/xlink" x="0px" y="0px"
	 width="60px" height="60px" viewBox="0 0 60 60" enable-background="new 0 0 60 60" xml:space="preserve">
<g>
	<path fill="#231F20" d="M38,0h-6c-0.553,0-1,0.448-1,1c0,0.552,0.447,1,1,1h2v5.59c-6.656,0.232-12.807,2.76-17.551,6.748
		l-3.883-3.882l1.184-1.184c0.391-0.391,0.391-1.023,0-1.414c-0.391-0.391-1.023-0.391-1.414,0l-3.782,3.782
		c-0.391,0.391-0.391,1.023,0,1.414c0.195,0.195,0.451,0.293,0.707,0.293c0.256,0,0.512-0.098,0.707-0.293l1.184-1.184l3.812,3.812
		C10.065,20.429,7,26.841,7,33.783C7,47.994,19.822,60,35,60c0.553,0,1-0.448,1-1V8.565c0-0.1-0.03-0.191-0.057-0.283
		C35.97,8.191,36,8.1,36,8V2h2c0.553,0,1-0.448,1-1C39,0.448,38.553,0,38,0z M34,57.981C20.348,57.472,9,46.598,9,33.783
		C9,20.967,20.348,10.093,34,9.584V57.981z"/>
	<path fill="#231F20" d="M52,32h-5c-0.553,0-1,0.448-1,1c0,0.552,0.447,1,1,1h5c0.553,0,1-0.448,1-1C53,32.448,52.553,32,52,32z"/>
	<path fill="#231F20" d="M43.305,25.957c0.256,0,0.512-0.098,0.707-0.293l3.782-3.783c0.391-0.391,0.391-1.023,0-1.414
		c-0.391-0.391-1.023-0.391-1.414,0l-3.782,3.783c-0.391,0.391-0.391,1.024,0,1.414C42.793,25.859,43.049,25.957,43.305,25.957z"/>
	<path fill="#231F20" d="M44.012,41.902c-0.391-0.391-1.023-0.391-1.414,0c-0.391,0.391-0.391,1.023,0,1.414l3.782,3.782
		c0.195,0.195,0.451,0.293,0.707,0.293c0.256,0,0.512-0.098,0.707-0.293c0.391-0.391,0.391-1.023,0-1.414L44.012,41.902z"/>
	<path fill="#231F20" d="M21.608,33c0-0.552-0.447-1-1-1h-5.043c-0.553,0-1,0.448-1,1c0,0.552,0.447,1,1,1h5.043
		C21.161,34,21.608,33.552,21.608,33z"/>
	<path fill="#231F20" d="M23.685,41.902l-3.782,3.782c-0.391,0.391-0.391,1.023,0,1.414c0.195,0.195,0.451,0.293,0.707,0.293
		c0.256,0,0.512-0.098,0.707-0.293l3.782-3.782c0.391-0.391,0.391-1.023,0-1.414C24.708,41.511,24.075,41.511,23.685,41.902z"/>
	<path fill="#231F20" d="M23.685,25.664c0.195,0.195,0.451,0.293,0.707,0.293c0.256,0,0.512-0.098,0.707-0.293
		c0.391-0.391,0.391-1.024,0-1.414l-3.783-3.782c-0.391-0.391-1.023-0.391-1.414,0c-0.391,0.391-0.391,1.024,0,1.414L23.685,25.664z
		"/>
</g>
</svg>
