<?xml version="1.0" encoding="utf-8"?>
<!-- Generator: Adobe Illustrator 17.0.0, SVG Export Plug-In . SVG Version: 6.00 Build 0)  -->
<!DOCTYPE svg PUBLIC "-//W3C//DTD SVG 1.1//EN" "http://www.w3.org/Graphics/SVG/1.1/DTD/svg11.dtd">
<svg version="1.1" id="Layer_1" xmlns="http://www.w3.org/2000/svg" xmlns:xlink="http://www.w3.org/1999/xlink" x="0px" y="0px"
	 width="60px" height="60px" viewBox="0 0 60 60" enable-background="new 0 0 60 60" xml:space="preserve">
<g>
	<path fill="#231F20" d="M30,30.857v-5.9c0-0.552-0.447-1-1-1c-0.553,0-1,0.448-1,1v6.304c0,0.259,0.101,0.508,0.28,0.695
		l7.305,7.565c0.196,0.203,0.458,0.305,0.72,0.305c0.25,0,0.501-0.093,0.694-0.281c0.397-0.383,0.408-1.017,0.025-1.414L30,30.857z"
		/>
	<path fill="#231F20" d="M59.71,10.383l-10-10.087C49.521,0.106,49.239,0.019,49,0c-0.266,0-0.52,0.106-0.707,0.293l-5,5
		l-7.854,7.854C33.424,12.418,31.263,12,29,12c-10.477,0-19,8.523-19,19c0,2.262,0.418,4.424,1.147,6.438L0.296,48.203
		C0.106,48.391,0,48.646,0,48.913V59c0,0.552,0.447,1,1,1h10.087c0.267,0,0.523-0.106,0.71-0.296l10.765-10.851
		C24.576,49.582,26.738,50,29,50c10.477,0,19-8.523,19-19c0-2.263-0.418-4.424-1.147-6.439l7.847-7.847
		c0.001,0,0.001-0.001,0.002-0.001l5-4.913c0.189-0.187,0.297-0.441,0.299-0.707C60.002,10.828,59.897,10.572,59.71,10.383z
		 M48.997,2.417l3.57,3.601L49,9.586L45.414,6L48.997,2.417z M10.67,58H2v-8.67l9.992-9.913c1.848,3.719,4.872,6.743,8.591,8.591
		L10.67,58z M29,48c-9.374,0-17-7.626-17-17s7.626-17,17-17s17,7.626,17,17S38.374,48,29,48z M46.007,22.579
		c-1.848-3.716-4.87-6.738-8.586-8.586L44,7.414L52.586,16L46.007,22.579z M54.006,14.592L50.414,11l3.561-3.561l3.608,3.639
		L54.006,14.592z"/>
	<path fill="#231F20" d="M8.565,50.174c-0.701,0-1.261,0.564-1.261,1.261c0,0.697,0.56,1.261,1.261,1.261
		c0.691,0,1.261-0.564,1.261-1.261C9.826,50.738,9.257,50.174,8.565,50.174z"/>
	<path fill="#231F20" d="M12.348,46.391c-0.7,0-1.261,0.564-1.261,1.261c0,0.697,0.561,1.261,1.261,1.261
		c0.692,0,1.261-0.564,1.261-1.261C13.608,46.955,13.04,46.391,12.348,46.391z"/>
</g>
</svg>
