<?xml version="1.0" encoding="UTF-8" standalone="no"?>
<svg width="640px" height="480px" viewBox="0 0 640 480" version="1.1" xmlns="http://www.w3.org/2000/svg" xmlns:xlink="http://www.w3.org/1999/xlink">
    <g stroke="none" stroke-width="1" fill="none" fill-rule="evenodd">
        <rect fill="#DE2910" x="0" y="0" width="640" height="480"></rect>
        <g transform="translate(184.000000, 103.000000)">
            <g transform="translate(-0.000000, 0.000000)" fill="#FFFFFF">
                <path d="M128.8,140.72 C110.24,126.24 114.88,98.48 138.08,88.08 C152.16,81.76 163.52,55.68 153.12,39.44 C143.84,24.96 146.16,9.36 162.48,0.96 C81.92,-4.56 44.56,105.12 128.8,140.72 L128.8,140.72 Z"></path>
                <path d="M128.88,140.72 C136.88,118.64 164.8,114.48 181.84,133.28 C192.24,144.72 220.56,147.52 232.72,132.56 C243.6,119.2 259.2,116.64 272.16,129.6 C252.56,51.28 136.72,49.68 128.88,140.72 L128.88,140.72 Z"></path>
                <path d="M128.88,140.8 C152.4,141.6 164.96,166.8 152.32,188.88 C144.64,202.32 150.8,230.08 168.72,237.04 C184.72,243.28 192,257.28 183.76,273.68 C252.16,230.8 217.92,120.16 128.88,140.8 L128.88,140.8 Z"></path>
                <path d="M90.32,178 C75.2,174.88 50.64,189.28 49.6,208.48 C48.64,225.68 37.52,236.88 19.44,234.08 C81.36,285.92 176,219.2 128.8,140.88 C135.28,163.44 115.2,183.2 90.32,178 L90.32,178 Z"></path>
                <path d="M128.72,140.8 L128.72,140.8 C109.2,153.92 84.24,140.96 81.52,115.68 C79.84,100.32 58.56,81.44 39.92,86.32 C23.28,90.72 9.12,83.6 6.24,65.52 C-23.92,140.48 68.88,209.92 128.72,140.8 L128.72,140.8 Z"></path>
            </g>
            <g transform="translate(33.600000, 44.800000)" fill="#DE2910">
                <path d="M84.16,15.52 L85.92,24.16 L90.64,16.72 L99.36,17.76 L93.76,10.96 L97.44,2.96 L89.28,6.16 L82.8,0.24 L83.36,9.04 L75.6,13.28 L84.16,15.52 Z"></path>
                <path d="M178.8,62.56 L182.48,54.56 L174.24,57.84 L167.76,51.84 L168.32,60.64 L160.64,64.96 L169.2,67.12 L170.88,75.76 L175.6,68.4 L184.4,69.36 L178.8,62.56 Z"></path>
                <path d="M159.68,151.36 L151.44,154.64 L144.96,148.64 L145.52,157.44 L137.84,161.76 L146.32,163.92 L148.08,172.64 L152.8,165.2 L161.52,166.24 L155.92,159.44 L159.68,151.36 Z"></path>
                <path d="M153.04,147.04 C152,131.04 144.16,116.16 131.6,106.16 C120.88,97.6 108.16,93.52 96.48,94.88 C98.64,84 106.32,73.44 117.12,66.24 C130.08,57.76 146.08,55.04 160.96,58.8 L161.44,56.8 C145.92,52.88 129.36,55.68 115.92,64.56 C104.48,72.08 96.64,82.96 94.32,94.48 C84.64,89.04 76.96,78.48 73.52,66 C69.44,51.04 71.76,35.04 80,22 L78.24,20.88 C69.76,34.4 67.28,51.04 71.52,66.56 C75.12,79.76 83.04,90.56 93.28,96.32 C85.12,103.84 72.72,107.92 59.76,107.28 C44.32,106.56 29.76,99.36 19.92,87.52 L18.32,88.88 C28.56,101.2 43.68,108.64 59.68,109.36 C73.36,110 86.08,105.84 94.72,97.84 C99.36,107.92 99.36,120.96 94.8,133.12 C89.36,147.6 78,159.2 63.68,164.96 L64.48,166.88 C79.36,160.96 91.12,148.88 96.8,133.84 C101.68,120.96 101.6,107.68 96.64,96.96 C107.68,95.68 120.08,99.68 130.24,107.76 C142.32,117.44 149.84,131.84 150.88,147.2 L153.04,147.04 L153.04,147.04 Z M95.12,96 L95.12,96 L95.2,95.92 L95.2,96 L95.12,96 L95.12,96 L95.12,96 Z"></path>
                <path d="M60.48,159.6 L52.32,162.8 L45.84,156.8 L46.4,165.6 L38.72,169.92 L47.2,172.16 L48.96,180.8 L53.68,173.36 L62.4,174.4 L56.8,167.6 L60.48,159.6 Z"></path>
                <path d="M18.4,75.84 L22.08,67.84 L13.92,71.12 L7.44,65.12 L7.92,73.92 L0.24,78.24 L8.8,80.4 L10.48,89.04 L15.28,81.6 L24,82.64 L18.4,75.84 Z"></path>
            </g>
        </g>
    </g>
</svg>
