<?xml version="1.0" encoding="UTF-8" standalone="no"?>
<svg width="640px" height="480px" viewBox="0 0 640 480" version="1.1" xmlns="http://www.w3.org/2000/svg" xmlns:xlink="http://www.w3.org/1999/xlink">
    <g stroke="none" stroke-width="1" fill="none" fill-rule="evenodd">
        <rect fill="#74ACDF" x="0" y="0" width="640" height="480"></rect>
        <rect fill="#FFFFFF" x="0" y="160.032" width="640" height="160.032"></rect>
        <g transform="translate(247.000000, 167.000000)" fill="#F6B40E">
            <path d="M144.086018,72.1730973 L98.8152212,70.5079646 C107.453097,70.0916814 112.656637,64.8881416 120.87823,65.6166372 C129.620177,66.4492035 134.615575,61.5578761 138.049912,60.5171681 C141.484248,59.3723894 143.461593,61.7660177 143.981947,60.7253097 C144.502301,59.6846018 141.79646,57.499115 136.905133,58.2276106 C132.013805,58.9561062 130.660885,62.5985841 119.941593,61.7660177 C110.158938,60.9334513 107.244956,65.3044248 99.3355752,65.0962832 L139.090619,46.8838938 C139.090619,46.8838938 140.339469,46.3635398 140.027257,45.5309735 C139.715044,44.6984071 138.466195,45.2187611 138.466195,45.2187611 L96.0053097,60.9334513 C103.810619,57.2909735 106.724602,50.4223009 114.529912,48.0286726 C122.959646,45.4269027 125.665487,39.0785841 128.371327,36.6849558 C131.077168,34.3953982 133.88708,35.7483186 133.88708,34.6035398 C133.99115,33.4587611 130.660885,32.5221239 126.393982,35.019823 C122.23115,37.5175221 122.23115,41.4722124 112.032212,44.8024779 C102.665841,47.820531 101.625133,52.92 94.2361062,55.7299115 L124.000354,23.6761062 C124.000354,23.6761062 124.936991,22.739469 124.312566,22.1150442 C123.688142,21.4906195 122.751504,22.4272566 122.751504,22.4272566 L89.5529204,53.2322124 C95.380885,46.8838938 95.380885,39.4948673 101.729204,34.1872566 C108.493805,28.5674336 108.597876,21.5946903 110.158938,18.4725664 C111.824071,15.2463717 114.842124,15.4545133 114.529912,14.4138053 C114.113628,13.3730973 110.679292,13.6853097 107.76531,17.64 C104.851327,21.5946903 106.412389,25.2371681 98.2948673,32.1058407 C90.8017699,38.4541593 91.8424779,43.5536283 86.0145133,49.0693805 L101.20885,8.06548673 C101.20885,8.06548673 101.729204,6.81663717 100.896637,6.50442478 C100.064071,6.19221239 99.5437168,7.44106195 99.5437168,7.44106195 L80.6028319,48.6530973 C83.5168142,40.5355752 80.7069027,33.6669027 84.5575221,26.3819469 C88.6162832,18.5766372 86.1185841,12.1242478 86.3267257,8.58584071 C86.6389381,5.04743363 89.5529204,4.00672566 88.8244248,3.17415929 C88.0959292,2.34159292 85.0778761,4.00672566 83.8290265,8.6899115 C82.6842478,13.4771681 85.4941593,16.1830088 80.6028319,25.7575221 C76.1277876,34.499469 78.9376991,38.8704425 75.7115044,46.0513274 L74.0463717,2.34159292 C74.0463717,2.34159292 74.0463717,0.988672566 73.1097345,0.988672566 C72.1730973,0.988672566 72.1730973,2.34159292 72.1730973,2.34159292 L70.5079646,47.6123894 C70.0916814,38.9745133 64.8881416,33.7709735 65.6166372,25.5493805 C66.4492035,16.8074336 61.5578761,11.8120354 60.5171681,8.37769912 C59.3723894,4.94336283 61.7660177,2.9660177 60.7253097,2.44566372 C59.6846018,1.92530973 57.499115,4.63115044 58.2276106,9.52247788 C58.9561062,14.4138053 62.5985841,15.7667257 61.7660177,26.4860177 C60.9334513,36.2686726 65.3044248,39.1826549 65.0962832,47.0920354 L46.8838938,7.33699115 C46.8838938,7.33699115 46.3635398,6.08814159 45.5309735,6.40035398 C44.6984071,6.71256637 45.2187611,7.96141593 45.2187611,7.96141593 L60.9334513,50.4223009 C57.2909735,42.6169912 50.4223009,39.7030088 48.0286726,31.8976991 C45.4269027,23.4679646 39.0785841,20.7621239 36.6849558,18.0562832 C34.3953982,15.3504425 35.7483186,12.540531 34.6035398,12.540531 C33.4587611,12.4364602 32.5221239,15.7667257 35.019823,20.0336283 C37.5175221,24.1964602 41.4722124,24.1964602 44.8024779,34.3953982 C47.820531,43.7617699 52.92,44.8024779 55.7299115,52.1915044 L23.6761062,22.4272566 C23.6761062,22.4272566 22.739469,21.4906195 22.1150442,22.1150442 C21.4906195,22.739469 22.4272566,23.6761062 22.4272566,23.6761062 L53.2322124,56.8746903 C46.8838938,51.0467257 39.4948673,51.0467257 34.1872566,44.6984071 C28.5674336,37.9338053 21.5946903,37.8297345 18.4725664,36.2686726 C15.2463717,34.6035398 15.4545133,31.5854867 14.4138053,31.8976991 C13.3730973,32.3139823 13.6853097,35.7483186 17.64,38.6623009 C21.5946903,41.5762832 25.2371681,40.0152212 32.1058407,48.1327434 C38.4541593,55.6258407 43.5536283,54.5851327 49.0693805,60.4130973 L8.06548673,45.2187611 C8.06548673,45.2187611 6.81663717,44.6984071 6.50442478,45.5309735 C6.19221239,46.3635398 7.44106195,46.8838938 7.44106195,46.8838938 L48.6530973,65.8247788 C40.5355752,62.9107965 33.6669027,65.720708 26.3819469,61.8700885 C18.5766372,57.8113274 12.1242478,60.3090265 8.58584071,60.100885 C5.04743363,59.7886726 4.00672566,56.8746903 3.17415929,57.6031858 C2.34159292,58.3316814 4.00672566,61.3497345 8.6899115,62.5985841 C13.4771681,63.7433628 16.1830088,60.9334513 25.7575221,65.8247788 C34.499469,70.299823 38.8704425,67.4899115 46.0513274,70.7161062 L2.34159292,72.3812389 C2.34159292,72.3812389 0.988672566,72.3812389 0.988672566,73.3178761 C0.988672566,74.2545133 2.34159292,74.2545133 2.34159292,74.2545133 L47.6123894,75.919646 C38.9745133,76.3359292 33.7709735,81.539469 25.5493805,80.8109735 C16.8074336,79.9784071 11.8120354,84.8697345 8.37769912,85.9104425 C4.94336283,87.0552212 2.9660177,84.6615929 2.44566372,85.7023009 C1.92530973,86.7430088 4.63115044,88.9284956 9.52247788,88.2 C14.4138053,87.4715044 15.7667257,83.8290265 26.4860177,84.6615929 C36.2686726,85.4941593 39.1826549,81.1231858 47.0920354,81.3313274 L7.33699115,99.5437168 C7.33699115,99.5437168 6.08814159,100.064071 6.40035398,100.896637 C6.71256637,101.729204 7.96141593,101.20885 7.96141593,101.20885 L50.4223009,85.4941593 C42.6169912,89.1366372 39.7030088,96.0053097 31.8976991,98.3989381 C23.4679646,101.000708 20.7621239,107.349027 18.0562832,109.742655 C15.3504425,112.032212 12.540531,110.679292 12.540531,111.824071 C12.4364602,112.96885 15.7667257,113.905487 20.0336283,111.407788 C24.1964602,108.910088 24.1964602,104.955398 34.3953982,101.625133 C43.7617699,98.6070796 44.8024779,93.5076106 52.1915044,90.6976991 L22.4272566,122.751504 C22.4272566,122.751504 21.4906195,123.688142 22.1150442,124.312566 C22.739469,124.936991 23.6761062,124.000354 23.6761062,124.000354 L56.8746903,93.1953982 C51.0467257,99.5437168 51.0467257,106.932743 44.6984071,112.240354 C37.9338053,117.860177 37.8297345,124.83292 36.2686726,127.955044 C34.6035398,131.181239 31.5854867,130.973097 31.8976991,132.013805 C32.3139823,133.054513 35.7483186,132.742301 38.6623009,128.787611 C41.5762832,124.83292 40.0152212,121.190442 48.1327434,114.32177 C55.6258407,107.973451 54.5851327,102.873982 60.4130973,97.3582301 L45.2187611,138.362124 C45.2187611,138.362124 44.6984071,139.610973 45.5309735,139.923186 C46.3635398,140.235398 46.8838938,138.986549 46.8838938,138.986549 L65.8247788,97.7745133 C62.9107965,105.892035 65.720708,112.760708 61.8700885,120.045664 C57.8113274,127.850973 60.3090265,134.303363 60.100885,137.84177 C59.7886726,141.380177 56.8746903,142.420885 57.6031858,143.253451 C58.3316814,144.086018 61.3497345,142.420885 62.5985841,137.737699 C63.7433628,132.950442 60.9334513,130.244602 65.8247788,120.670088 C70.299823,111.928142 67.4899115,107.557168 70.7161062,100.376283 L72.3812389,144.086018 C72.3812389,144.086018 72.3812389,145.438938 73.3178761,145.438938 C74.2545133,145.438938 74.2545133,144.086018 74.2545133,144.086018 L75.919646,98.8152212 C76.3359292,107.453097 81.539469,112.656637 80.8109735,120.87823 C79.9784071,129.620177 84.8697345,134.615575 85.9104425,138.049912 C87.0552212,141.484248 84.6615929,143.461593 85.7023009,143.981947 C86.7430088,144.502301 88.9284956,141.79646 88.2,136.905133 C87.4715044,132.013805 83.8290265,130.660885 84.6615929,119.941593 C85.4941593,110.158938 81.1231858,107.244956 81.3313274,99.3355752 L99.5437168,139.090619 C99.5437168,139.090619 100.064071,140.339469 100.896637,140.027257 C101.729204,139.715044 101.20885,138.466195 101.20885,138.466195 L85.4941593,96.0053097 C89.1366372,103.810619 96.0053097,106.724602 98.3989381,114.529912 C101.000708,122.959646 107.349027,125.665487 109.742655,128.371327 C112.032212,131.077168 110.679292,133.88708 111.824071,133.88708 C112.96885,133.99115 113.905487,130.660885 111.407788,126.393982 C108.910088,122.23115 104.955398,122.23115 101.625133,112.032212 C98.6070796,102.665841 93.5076106,101.625133 90.6976991,94.2361062 L122.751504,124.000354 C122.751504,124.000354 123.688142,124.936991 124.312566,124.312566 C124.936991,123.688142 124.000354,122.751504 124.000354,122.751504 L93.1953982,89.5529204 C99.5437168,95.380885 106.932743,95.380885 112.240354,101.729204 C117.860177,108.493805 124.83292,108.597876 127.955044,110.158938 C131.181239,111.824071 130.973097,114.842124 132.013805,114.529912 C133.054513,114.113628 132.742301,110.679292 128.787611,107.76531 C124.83292,104.851327 121.190442,106.412389 114.32177,98.2948673 C107.973451,90.8017699 102.873982,91.8424779 97.3582301,86.0145133 L138.362124,101.20885 C138.362124,101.20885 139.610973,101.729204 139.923186,100.896637 C140.235398,100.064071 138.986549,99.5437168 138.986549,99.5437168 L97.7745133,80.6028319 C105.892035,83.5168142 112.760708,80.7069027 120.045664,84.5575221 C127.850973,88.6162832 134.303363,86.1185841 137.84177,86.3267257 C141.380177,86.6389381 142.420885,89.5529204 143.253451,88.8244248 C144.086018,88.0959292 142.420885,85.0778761 137.737699,83.8290265 C132.950442,82.6842478 130.244602,85.4941593 120.670088,80.6028319 C111.928142,76.1277876 107.557168,78.9376991 100.376283,75.7115044 L144.086018,74.0463717 C144.086018,74.0463717 145.438938,74.0463717 145.438938,73.1097345 C145.334867,72.1730973 144.086018,72.1730973 144.086018,72.1730973 L144.086018,72.1730973 L144.086018,72.1730973 Z"></path>
        </g>
    </g>
</svg>
