<?xml version="1.0" encoding="UTF-8" standalone="no"?>
<svg width="640px" height="480px" viewBox="0 0 640 480" version="1.1" xmlns="http://www.w3.org/2000/svg" xmlns:xlink="http://www.w3.org/1999/xlink">
    <g stroke="none" stroke-width="1" fill="none" fill-rule="evenodd">
        <rect fill="#00247D" x="0.7477395" y="0.697527471" width="639.00156" height="479.002079"></rect>
        <path d="M266.249999,0 L372.750001,0 L372.750001,159.666667 L639,159.666667 L639,319.333333 L372.750001,319.333333 L372.750001,479 L266.249999,479 L266.249999,319.333333 L0,319.333333 L0,159.666667 L266.249999,159.666667 L266.249999,0 L266.249999,0 L266.249999,0 Z" fill="#FFFFFF"></path>
        <path d="M0,0 L71.4423722,0 L639,425.446171 L639,479 L567.557645,479 L0,53.5538284 L0,0 L0,0 L0,0 Z" fill="#FFFFFF"></path>
        <g transform="translate(319.500000, 239.500000) scale(-1, 1) translate(-319.500000, -239.500000) " fill="#FFFFFF">
            <path d="M0,0 L71.4423722,0 L639,425.446171 L639,479 L567.557645,479 L0,53.5538284 L0,0 L0,0 L0,0 Z"></path>
        </g>
        <path d="M287.55,0 L351.45,0 L351.45,191.6 L639,191.6 L639,287.4 L351.45,287.4 L351.45,479 L287.55,479 L287.55,287.4 L0,287.4 L0,191.6 L287.55,191.6 L287.55,0 L287.55,0 L287.55,0 Z" fill="#CC142B"></path>
        <path d="M0,0 L213.000001,159.666667 L165.37175,159.666667 L0,35.702552 L0,0 L0,0 L0,0 Z M639,0 L591.371764,0 L378.371751,159.666667 L425.999999,159.666667 L639,0 L639,0 L639,0 Z" fill="#CC142B"></path>
        <g transform="translate(319.500000, 399.166667) scale(-1, -1) translate(-319.500000, -399.166667) translate(0.000000, 319.333333)" fill="#CC142B">
            <path d="M0,0 L213.000001,159.666667 L165.37175,159.666667 L0,35.702552 L0,0 L0,0 L0,0 Z M639,0 L591.371764,0 L378.371751,159.666667 L425.999999,159.666667 L639,0 L639,0 L639,0 Z"></path>
        </g>
    </g>
</svg>
