<?xml version="1.0" encoding="UTF-8" standalone="no"?>
<svg width="20px" height="20px" viewBox="0 0 20 20" version="1.1" xmlns="http://www.w3.org/2000/svg" xmlns:xlink="http://www.w3.org/1999/xlink">
    <g stroke="none" stroke-width="1" fill-rule="evenodd">
        <path d="M20,10 C20,4.5 15.6,0.1 10.2,0 L10,0 L10,0 L10,0 C4.5,0 0,4.5 0,10 C0,15.5 4.5,20 10,20 L10,20 L10,20 L10.2,20 C15.6,19.9 20,15.5 20,10 L20,10 Z M15.7,9.2 C15.7,8.2 15.5,7.2 15.3,6.2 C16,6 16.6,5.7 17.1,5.4 C17.8,6.5 18.3,7.8 18.4,9.1 L15.7,9.1 L15.7,9.2 Z M14.2,9.2 L10.9,9.2 L10.9,7 C12,7 13,6.8 13.9,6.6 C14,7.5 14.1,8.3 14.2,9.2 L14.2,9.2 Z M10.8,5.5 L10.8,1.7 C11.9,2.1 12.8,3.4 13.4,5.2 C12.6,5.3 11.7,5.5 10.8,5.5 L10.8,5.5 Z M9.3,1.7 L9.3,5.5 C8.4,5.5 7.5,5.4 6.7,5.2 C7.3,3.4 8.2,2.1 9.3,1.7 L9.3,1.7 Z M9.3,7 L9.3,9.2 L6,9.2 C6,8.3 6.2,7.4 6.3,6.6 C7.2,6.9 8.2,7 9.3,7 L9.3,7 Z M4.4,9.2 L1.6,9.2 C1.7,7.8 2.2,6.6 2.9,5.5 C3.5,5.8 4.1,6.1 4.8,6.3 C4.6,7.2 4.4,8.2 4.4,9.2 L4.4,9.2 Z M4.4,10.8 C4.4,11.8 4.6,12.8 4.8,13.7 C4.1,13.9 3.5,14.2 2.9,14.5 C2.2,13.4 1.7,12.1 1.6,10.8 L4.4,10.8 L4.4,10.8 Z M5.9,10.8 L9.2,10.8 L9.2,13 C8.1,13 7.1,13.2 6.2,13.4 C6.1,12.5 6,11.7 5.9,10.8 L5.9,10.8 Z M9.3,14.5 L9.3,18.3 C8.2,17.9 7.3,16.6 6.7,14.8 C7.5,14.6 8.4,14.5 9.3,14.5 L9.3,14.5 Z M10.8,18.3 L10.8,14.5 C11.7,14.5 12.6,14.7 13.4,14.8 C12.8,16.6 11.9,17.9 10.8,18.3 L10.8,18.3 Z M10.8,13 L10.8,10.8 L14.1,10.8 C14.1,11.7 13.9,12.6 13.8,13.4 C12.9,13.1 11.9,13 10.8,13 L10.8,13 Z M15.7,10.8 L18.4,10.8 C18.3,12.2 17.8,13.4 17.1,14.5 C16.5,14.2 15.9,13.9 15.3,13.7 C15.5,12.8 15.7,11.8 15.7,10.8 L15.7,10.8 Z M16.2,4.2 C15.8,4.4 15.4,4.6 14.9,4.7 C14.6,3.8 14.2,3 13.8,2.4 C14.7,2.9 15.5,3.5 16.2,4.2 L16.2,4.2 Z M6.3,2.4 C5.8,3.1 5.5,3.9 5.1,4.8 C4.6,4.6 4.2,4.5 3.7,4.2 C4.5,3.5 5.4,2.8 6.3,2.4 L6.3,2.4 Z M3.8,15.8 C4.2,15.6 4.7,15.4 5.2,15.2 C5.5,16.1 5.9,16.9 6.4,17.6 C5.4,17.2 4.5,16.5 3.8,15.8 L3.8,15.8 Z M13.8,17.5 C14.2,16.8 14.6,16 14.9,15.2 C15.4,15.4 15.8,15.5 16.2,15.7 C15.5,16.5 14.7,17.1 13.8,17.5 L13.8,17.5 Z"></path>
    </g>
</svg>
