<?xml version="1.0" encoding="UTF-8" standalone="no"?>
<svg width="640px" height="480px" viewBox="0 0 640 480" version="1.1" xmlns="http://www.w3.org/2000/svg" xmlns:xlink="http://www.w3.org/1999/xlink">
    <g stroke="none" stroke-width="1" fill="none" fill-rule="evenodd">
        <path d="M0,480 L640,480 L640,0 L0,0 L0,480 Z" fill="#002395"></path>
        <path d="M0,0 L0,240 L640,240 L640,0 L0,0 L0,0 Z" fill="#DE3831"></path>
        <rect fill="#FFFFFF" x="360" y="160" width="280" height="160"></rect>
        <path d="M0,0 L360,240 L0,480" fill="#000000"></path>
        <path d="M0,480 L360,240 L0,0 L144.24,0 L504.24,240 L144.24,480 L0,480 Z" fill="#FFFFFF"></path>
        <path d="M0,0 L0,96.16 L215.76,240 L0,383.84 L0,480 L360,240 L0,0 Z" fill="#FFB612"></path>
        <path d="M0,480 L0,422.32 L273.44,240 L0,57.68 L0,0 L86.56,0 L374.56,192 L639.778931,192 L639.778931,288 L374.56,288 L86.56,480 L0,480 Z" fill="#007A4D"></path>
    </g>
</svg>
