<?xml version="1.0" encoding="UTF-8" standalone="no"?>
<svg width="640px" height="480px" viewBox="0 0 640 480" version="1.1" xmlns="http://www.w3.org/2000/svg" xmlns:xlink="http://www.w3.org/1999/xlink">
    <g stroke="none" stroke-width="1" fill="none" fill-rule="evenodd">
        <rect fill="#FF0000" x="0" y="0" width="640" height="480"></rect>
        <rect fill="#006600" x="0" y="0" width="256" height="480"></rect>
        <circle fill="#FFFF00" cx="256.5" cy="239.5" r="118.5"></circle>
        <path d="M188.384,253.144 L188.384,253.198 C188.384,271.8664 196.11368,288.8668 208.514,301.2088 C220.9388,313.5748 238.0508,321.2632 256.7708,321.2632 C275.588,321.2632 292.6652,313.63048 305.0372,301.312 C317.4068,288.994 325.0736,271.9924 325.076,253.2592 L325.0736,253.2592 L325.0736,161.068 L188.4656,161.0458 L188.38196,253.1434 L188.384,253.144 L188.384,253.144 L188.384,253.144 L188.384,253.144 L188.384,253.144 Z M297.60836,188.647 L297.61316,247.3162 L297.56348,253.52224 L297.564536,253.52224 C297.564536,255.1552 297.466136,257.01688 297.275624,258.6022 C296.16548,267.87748 291.899504,275.9626 285.581504,282.2518 C278.185184,289.61464 267.976304,294.18136 256.725104,294.18136 C245.532704,294.18136 235.558304,289.45588 228.130304,282.06136 C220.510664,274.47736 216.094304,264.07816 216.094304,253.32496 L216.078464,188.49736 L297.606464,188.644468 L297.608864,188.646868 L297.60836,188.647 L297.60836,188.647 L297.60836,188.647 L297.60836,188.647 L297.60836,188.647 Z" fill="#FF0000"></path>
    </g>
</svg>
