<?xml version="1.0" encoding="UTF-8" standalone="no"?>
<svg width="640px" height="480px" viewBox="0 0 640 480" version="1.1" xmlns="http://www.w3.org/2000/svg" xmlns:xlink="http://www.w3.org/1999/xlink">
    <g stroke="none" stroke-width="1" fill="none" fill-rule="evenodd">
        <rect fill="#FF0000" x="0" y="0" width="640" height="480"></rect>
        <rect fill="#006600" x="0" y="0" width="256" height="480"></rect>
        <g transform="translate(135.000000, 119.000000)" stroke="#000000" fill="#FFFF00">
            <path d="M215.088,195.648 C178.836,194.556 12.6,90.792 11.46,74.268 L20.63952,58.9596 C37.12872,82.9188 207.07152,183.8316 223.76352,180.2556 L215.08764,195.6432" stroke-width="0.573"></path>
            <path d="M18.708,56.88 C15.45588,65.63244 62.0868,94.4616 118.1916,128.5848 C174.294,162.7056 222.6696,183.792 226.2552,180.768 C226.474272,180.377472 228.01932,177.71892 227.8776,177.74016 C227.205588,178.752984 225.56952,179.07264 223.01688,178.337052 C207.85968,173.965092 168.32688,155.819052 119.36808,126.129852 C70.41048,96.438252 27.81528,69.077052 21.19488,57.451452 C20.734524,56.64606 20.406456,55.176012 20.473128,54.033012 L20.312268,54.030612 L18.902628,56.494452 L18.70896,56.880744 L18.707904,56.880744 L18.708,56.88 Z M215.94,196.128 C215.325144,197.243484 214.179,197.280528 212.00208,197.041344 C198.44208,195.540624 157.29528,175.531344 108.60768,146.385744 C51.95568,112.473744 5.16768,81.573744 10.24368,73.497744 L11.62476,71.056224 L11.89674,71.140944 C7.3323,84.826944 104.23434,140.234544 109.93914,143.767344 C166.00794,178.503744 213.27714,198.788544 217.46034,193.516944 L215.9385,196.134144 L215.9385,196.131744 L215.94,196.128 Z" stroke-width="0.573"></path>
            <path d="M121.404,84.276 C157.6884,83.989188 202.464,79.31772 228.2316,69.048 L222.6798,60.02784 C207.4494,68.45748 162.4278,74.00064 121.0974,74.82984 C72.2142,74.380044 37.7094,69.82812 20.421,58.22784 L15.18036,67.83324 C46.96116,81.28164 79.52796,84.13764 121.40436,84.27684" stroke-width="0.573"></path>
            <path d="M229.728,69.252 C228.841152,70.67016 212.0364,76.46556 187.2804,80.74236 C170.4948,83.30136 148.5996,85.48896 121.2756,85.51548 C95.316,85.53984 74.1096,83.69196 58.0548,81.516 C32.0676,77.4414 18.6552,71.77188 13.6968,69.76848 C14.170908,68.825508 14.475696,68.16408 14.93292,67.28352 C29.20692,72.96672 42.68172,76.39368 58.46772,78.82248 C74.41692,80.98248 95.36772,82.85688 121.19892,82.83252 C148.39572,82.80504 170.04972,80.45124 186.73812,77.96844 C212.12412,73.8738 225.99132,68.60436 227.93892,66.15744 L229.73172,69.252 L229.72932,69.252 L229.728,69.252 Z M224.85564,60.10488 C222.10404,62.31468 208.39404,67.17672 184.27284,71.02896 C168.17484,73.33608 147.70644,75.40092 121.55484,75.42636 C96.71004,75.45072 76.41204,73.77636 60.97284,71.52744 C36.47604,68.32812 23.43804,62.55696 18.73764,60.87432 C19.2054,60.065748 19.681632,59.26356 20.17056,58.45812 C23.82804,60.29964 36.41016,65.4072 61.24176,68.925 C76.50576,71.08932 96.83496,72.70224 121.55616,72.6768 C147.58416,72.65028 167.81976,70.54536 183.81576,68.25084 C208.06176,64.91496 221.10816,58.7142 223.08936,57.16164 L224.85672,60.10272 L224.85672,60.10512 L224.85564,60.10488 Z" stroke-width="0.573"></path>
            <path d="M2.256,127.992 C24.5736,139.9956 74.142,146.0448 121.0488,146.4612 C163.758,146.52888 219.3984,139.85928 240.2052,128.8332 L239.632656,116.8188 C233.123136,126.99156 173.497056,136.7496 120.585456,136.35 C67.673856,135.951 18.539856,127.77852 2.161056,117.1992 L2.256336,127.98888" stroke-width="0.573"></path>
            <path d="M241.344,126.264 L241.345056,129.12888 C238.217856,132.86796 218.609856,138.51948 194.020656,142.49928 C175.306656,145.36848 150.908256,147.53268 120.506256,147.53268 C91.623456,147.53268 68.590656,145.47312 50.728656,142.731 C22.493856,138.61932 4.433856,131.41956 0.808656,129.2706 L0.824496,125.92836 C11.714256,133.16844 41.217696,138.46476 51.124896,140.08596 C68.870496,142.81008 91.766496,144.8538 120.505296,144.8538 C150.764496,144.8538 175.026096,142.70436 193.622496,139.85424 C211.263696,137.3058 236.395296,130.67844 241.342896,126.26544 L241.343952,126.26544 L241.344,126.264 Z M241.356,116.07336 L241.357056,118.93824 C238.229856,122.67528 218.621856,128.32668 194.032656,132.30624 C175.318656,135.17544 150.920256,137.33964 120.518256,137.33964 C91.635456,137.33964 68.602656,135.28224 50.740656,132.53796 C22.505856,128.42844 4.445856,121.22856 0.820656,119.07876 L0.836496,115.73652 C11.726256,122.97552 41.229696,128.27292 51.136896,129.89172 C68.882496,132.618 91.778496,134.66268 120.517296,134.66268 C150.776496,134.66268 175.038096,132.51216 193.634496,129.65988 C211.275696,127.11144 236.407296,120.48408 241.354896,116.07108 L241.355952,116.07348 L241.356,116.07336 Z" stroke-width="0.573"></path>
            <path d="M120.948,193.584 C69.6216,193.278132 25.6428,179.5932 16.356,177.3312 L23.12796,187.93248 C39.53196,194.83284 82.43676,205.11648 121.44036,203.97768 C160.44516,202.839972 194.53236,199.81848 218.55396,188.12448 L225.4974,177.13788 C209.127,184.84788 153.4158,193.50468 120.9474,193.58388" stroke-width="0.573"></path>
            <path d="M221.16,185.664 C220.139808,187.22292 219.09948,188.76276 218.04444,190.25928 C206.7144,194.25444 188.86164,198.44868 181.32804,199.67208 C165.93924,202.84284 142.13004,205.18488 120.99924,205.19556 C75.53124,204.529872 38.31324,195.62928 20.80404,188.03676 L19.39128,185.60784 L19.62198,185.242716 L22.0179,186.171936 C53.1555,197.312016 88.1271,201.756336 121.2555,202.554336 C142.3011,202.628376 163.3695,200.142336 180.4059,197.095416 C206.5311,191.860896 217.0947,187.915416 220.3359,186.126816 L221.160312,185.664324 L221.159256,185.664324 L221.16,185.664 Z M227.18064,175.73364 C227.20704,175.76436 227.23356,175.794 227.259,175.82676 C226.49598,177.11472 225.70968,178.425 224.90436,179.74152 C218.86152,181.90152 202.46196,186.70008 178.51356,190.04868 C162.73476,192.19812 152.92716,194.27988 121.53876,194.88948 C62.72076,193.39296 24.63876,181.89228 15.59196,179.05548 L14.25108,176.48376 C48.33828,185.38224 83.15748,191.59416 121.54068,192.22896 C150.25788,191.617248 162.47508,189.50268 178.12308,187.36908 C206.04828,183.02676 220.11828,178.42932 224.34108,177.10212 C224.28816,177.02592 224.22576,176.945484 224.155884,176.862936 L227.183604,175.731576 L227.181204,175.733976 L227.18064,175.73364 Z" stroke-width="0.55"></path>
            <path d="M227.796,118.512 C227.962476,152.2764 210.684,182.5752 196.7664,195.942 C177.0768,214.8528 150.9708,227.0172 120.4836,227.5776 C86.4396,228.203004 54.3396,206.0088 45.7296,196.2588 C28.896,177.1968 15.1908,152.9904 14.7516,120.3672 C16.83672,83.5164 31.3032,57.8472 52.2732,40.2444 C73.2432,22.6416 101.1648,14.0688 124.4184,14.682 C151.248,15.390036 182.5884,28.5516 204.2436,54.6804 C218.4312,71.7996 224.5752,90.378 227.796,118.512 L227.796,118.512 Z M120.7728,2.9016 C186.1548,2.9016 239.928,56.1072 239.928,121.3452 C239.928,186.582 186.1548,239.79 120.7728,239.79 C55.3908,239.79 2.064,186.5832 2.064,121.3452 C2.064,56.1072 55.3908,2.9016 120.7728,2.9016 L120.7728,2.9016 Z" stroke-width="0.573"></path>
            <path d="M121.092,2.496 C186.5328,2.496 239.9052,55.8756 239.9052,121.3224 C239.9052,186.768 186.5316,240.1464 121.092,240.1464 C55.6512,240.1464 2.2788,186.7692 2.2788,121.3224 C2.2788,55.8756 55.6524,2.496 121.092,2.496 L121.092,2.496 Z M4.8936,121.32288 C4.8936,185.23488 57.3768,237.53328 121.092,237.53328 C184.8084,237.53328 237.2916,185.23488 237.2916,121.32288 C237.2916,57.40848 184.8072,5.11008 121.092,5.11008 C57.3768,5.11008 4.8936,57.41088 4.8936,121.32288 L4.8936,121.32288 Z" stroke-width="0.573"></path>
            <path d="M121.188,12.372 C180.8652,12.372 230.0196,61.3572 230.0196,121.2168 C230.0196,181.0776 180.864,230.0604 121.188,230.0604 C61.512,230.0604 12.3564,181.0776 12.3564,121.2168 C12.3564,61.3572 61.5132,12.372 121.188,12.372 L121.188,12.372 Z M14.97,121.21608 C14.97,179.63808 62.9448,227.44488 121.188,227.44488 C179.4312,227.44488 227.406,179.63808 227.406,121.21608 C227.406,62.79288 179.4324,14.98608 121.188,14.98608 C62.9448,14.98608 14.97,62.79288 14.97,121.21608 L14.97,121.21608 Z" stroke-width="0.573"></path>
            <path d="M125.976,2.016 L115.79346,2.016 L115.80546,240.768 L126.02292,240.768 L125.976,2.016 Z" stroke-width="0.573"></path>
            <path d="M124.956,0.6552 L127.54776,0.6552 L127.56996,242.1552 L124.97604,242.1552 L124.95696,0.6552 L124.956,0.6552 Z M114.85044,0.65736 L117.46236,0.65736 L117.46596,242.15736 L114.852,242.15736 L114.852,0.65736 L114.85044,0.65736 Z" stroke-width="0.573"></path>
            <path d="M239.988,125.922 L239.988,117.09552 L232.8,110.39952 L192,99.59952 L133.2,93.59952 L62.4,97.19952 L12,109.19952 L1.824,116.73552 L1.824,125.56416 L27.6,113.99976 L88.8,104.39976 L147.6,104.39976 L190.8,109.19976 L220.8,116.39976 L239.988,125.922 Z" stroke-width="0.573"></path>
            <path d="M121.14,102.924 C149.1996,102.87216 176.424,105.58248 198.018,109.78728 C220.3008,114.2418 235.9824,119.814 241.344,126.07248 L241.338,129.17124 C234.87192,121.383 213.7704,115.67364 197.5164,112.40964 C176.0868,108.24084 149.0448,105.54948 121.14,105.60132 C91.6944,105.6564 64.2756,108.44508 43.1592,112.56516 C26.2152,115.92744 3.618,122.60664 0.7968,129.19476 L0.7968,125.96796 C2.34612,121.4076 19.1724,114.59292 42.7776,109.86756 C64.0524,105.71892 91.5216,102.97776 121.14,102.92388 L121.14,102.924 Z M121.152,92.73336 C149.2116,92.6826 176.436,95.394 198.03,99.59664 C220.3128,104.05332 235.9944,109.62336 241.356,115.88184 L241.35,118.9806 C234.88392,111.1944 213.7824,105.4842 197.5284,102.2214 C176.0988,98.05056 149.0568,95.3592 121.152,95.41308 C91.7064,95.466 64.4208,98.25684 43.302,102.37476 C26.9508,105.4746 3.4308,112.41828 0.8076,119.00676 L0.8076,115.7778 C2.35692,111.26724 19.524,104.20812 42.7896,99.6774 C64.0644,95.52876 91.5336,92.78976 121.152,92.73372 L121.152,92.73336 Z" stroke-width="0.573"></path>
            <path d="M120.576,40.752 C164.7948,40.530804 203.364,46.93476 221.01,55.974 L227.44656,67.1088 C212.10936,58.8432 170.49936,50.2488 120.64056,51.534 C80.01576,51.783768 36.60816,56.00652 14.82936,67.626 L22.51356,54.7752 C40.38756,45.50628 82.53996,40.8036 120.57756,40.7544" stroke-width="0.573"></path>
            <path d="M121.164,49.944 C146.3844,49.87728 170.754,51.29976 190.1352,54.79644 C208.1844,58.1556 225.3972,63.19752 227.8584,65.90892 L229.76652,69.2808 C223.7808,65.3724 208.88532,61.02048 189.75972,57.3936 C170.55252,53.78364 146.19972,52.58772 121.11972,52.65336 C92.65332,52.55604 70.53732,54.0588 51.55692,57.36828 C31.48332,61.12428 17.55612,66.49008 14.12052,69.0396 L15.99048,65.47512 C22.6662,62.0694 33.25848,57.96408 51.05808,54.75948 C70.68648,51.17388 93.03768,50.09856 121.16568,49.94412 L121.164624,49.94412 L121.164,49.944 Z M121.1532,39.76284 C145.2888,39.69936 169.1196,41.04444 187.6956,44.38356 C202.3464,47.23572 216.8352,51.6882 222.1404,55.6506 L224.93112,60.08508 C220.1868,54.81144 202.32792,49.81392 186.56232,47.01468 C168.12912,43.8354 145.28832,42.57708 121.15272,42.37596 C95.82312,42.44688 72.41472,43.99836 54.25032,47.30568 C36.92112,50.6034 25.73832,54.5076 21.00672,57.55668 L23.46084,53.85252 C29.99052,50.415 40.53924,47.25804 53.82444,44.67672 C72.12324,41.34504 95.67564,39.83376 121.15404,39.76284 L121.1532,39.76284 Z" stroke-width="0.573"></path>
            <path d="M180.18,170.712 C158.3184,166.63104 136.4172,166.03836 121.1196,166.21836 C47.4312,167.081964 23.6268,181.34916 20.7216,185.66916 L15.21432,176.69136 C33.97512,163.09296 74.10192,155.46696 121.51872,156.24696 C146.14032,156.650184 167.38752,158.28528 185.26152,161.74716 L180.17856,170.7144" stroke-width="0.573"></path>
            <path d="M120.696,164.952 C141.1944,165.257856 161.3148,166.104528 180.7356,169.72608 L179.3292,172.20888 C161.292,168.87936 142.0632,167.60508 120.7656,167.70888 C93.57,167.496156 66.0636,170.03616 42.1164,176.90904 C34.56024,179.01192 22.0512,183.86976 20.7756,187.884 L19.37652,185.57688 C19.779732,183.20412 27.34008,178.27968 41.47332,174.30876 C68.90292,166.4538 94.56012,165.12984 120.69612,164.94996 L120.69612,164.95236 L120.696,164.952 Z M121.626228,154.63644 C142.863828,155.033316 164.796228,156.01548 186.114228,160.23816 L184.649508,162.8226 C165.399108,159.00096 147.006708,157.72668 121.751508,157.33836 C94.469508,157.38804 65.530308,159.33336 39.217908,166.983 C30.722988,169.4574 16.061508,174.80724 15.573108,179.043 L14.174028,176.5644 C14.492568,172.71732 27.184428,167.6988 38.603628,164.3772 C65.118828,156.66828 94.133628,154.686 121.626828,154.63632 L121.626228,154.63644 Z" stroke-width="0.55"></path>
            <path d="M226.296,178.056 L217.4412,191.7948 L192,169.2 L126,124.8 L51.6,84 L12.972,70.788 L21.204,55.524 L24,54 L48,60 L127.2,100.8 L172.8,129.6 L211.2,157.2 L226.8,175.2 L226.296,178.056 Z" stroke-width="0.573"></path>
            <path d="M11.58,71.148 C18.3552,66.55272 68.1468,88.734 120.246,120.1488 C172.2072,151.6536 221.8584,187.254 217.3764,193.9164 L215.9022,196.23516 L215.225952,196.76856 C215.370948,196.66488 216.118092,195.7515 215.152872,193.28136 C212.938992,185.99688 177.718872,157.89216 119.280072,122.60736 C62.310072,88.63656 14.830872,68.16216 10.083672,74.01456 L11.580072,71.14752 L11.579004,71.14752 L11.58,71.148 Z M228.108,177.8604 C232.392,169.398 186.2088,134.6076 128.9496,100.734 C70.374,67.5348 28.1568,47.9928 20.4456,53.82 L18.73224,56.93892 C18.71736,57.110364 18.79464,56.726196 19.156608,56.4468 C20.558808,55.2234 22.882848,55.305912 23.931648,55.286856 C37.209648,55.485828 75.132048,72.937656 128.338848,103.440456 C151.652448,117.018456 226.824048,165.229656 226.537248,178.787256 C226.557408,179.95248 226.633608,180.192696 226.195428,180.769536 L228.107748,177.861216 L228.107748,177.858816 L228.108,177.8604 Z" stroke-width="0.573"></path>
        </g>
        <g transform="translate(185.000000, 157.000000)">
            <path d="M0.72,96.012 C0.72,115.5372 8.71536,133.1964 21.6684,146.1024 C34.6464,159.036 52.2828,167.1972 71.8392,167.1972 C91.4964,167.1972 109.3356,159.2142 122.2584,146.3304 C135.1812,133.4484 143.19,115.668 143.1936,96.0744 L143.1912,96.0744 L143.1912,1.0476 L0.7032,0.878268 L0.71796,96.011868 L0.72036,96.011868 L0.72,96.012 Z" stroke="#000000" stroke-width="0.67037" fill="#FFFFFF"></path>
            <path d="M3.384,96.144 L3.384,96.198 C3.384,114.8664 11.11368,131.8668 23.514,144.2088 C35.9388,156.5748 53.0508,164.2632 71.7708,164.2632 C90.588,164.2632 107.6652,156.63048 120.0372,144.312 C132.4068,131.994 140.0736,114.9924 140.076,96.2592 L140.0736,96.2592 L140.0736,4.068 L3.4656,4.0458 L3.38196,96.1434 L3.384,96.144 Z M112.60836,31.647 L112.61316,90.3162 L112.56348,96.52224 L112.564536,96.52224 C112.564536,98.1552 112.466136,100.01688 112.275624,101.6022 C111.16548,110.87748 106.899504,118.9626 100.581504,125.2518 C93.185184,132.61464 82.976304,137.18136 71.725104,137.18136 C60.532704,137.18136 50.558304,132.45588 43.130304,125.06136 C35.510664,117.47736 31.094304,107.07816 31.094304,96.32496 L31.078464,31.49736 L112.606464,31.644468 L112.608864,31.646868 L112.60836,31.647 Z" stroke="#000000" stroke-width="0.50734" fill="#FF0000"></path>
            <g transform="translate(6.000000, 4.800000)">
                <g>
                    <path d="M6.228,23.316 C6.389916,16.6908 11.09088,15.1224 11.12472,15.09912 C11.15856,15.07692 16.2024,16.78824 16.18548,23.37744 L6.22812,23.316" fill="#FFFF00"></path>
                    <path d="M2.172,15.228 L1.353936,22.84164 L6.322656,22.85244 C6.370296,16.55328 11.091336,15.50544 11.205576,15.52872 C11.312496,15.52272 15.992256,16.92144 16.117056,22.85244 L21.098376,22.85244 L20.198832,15.1806 L2.172432,15.22608 L2.172432,15.22848 L2.172,15.228 Z" stroke="#000000" stroke-width="0.5" fill="#FFFF00"></path>
                    <path d="M1.02,22.872 L21.3552,22.872 C21.783804,22.872 22.134096,23.295324 22.134096,23.812848 C22.134096,24.329316 21.783804,24.75054 21.3552,24.75054 L1.02,24.75054 C0.591396,24.75054 0.241104,24.329316 0.241104,23.812848 C0.241104,23.295324 0.591396,22.872 1.02,22.872 L1.02,22.872 Z" stroke="#000000" stroke-width="0.5" fill="#FFFF00"></path>
                    <path d="M8.412,22.836 C8.4342,18.86088 11.12652,17.73588 11.14032,17.73804 C11.141376,17.73804 13.95108,18.897972 13.9734,22.836 L8.41212,22.836" stroke="#000000" stroke-width="0.5" fill="#FFFF00"></path>
                    <path d="M1.452,12.06 L20.946,12.06 C21.356616,12.06 21.693156,12.442068 21.693156,12.905616 C21.693156,13.37022 21.356616,13.75122 20.946,13.75122 L1.452,13.75122 C1.041384,13.75122 0.704844,13.372344 0.704844,12.905616 C0.704844,12.442068 1.041384,12.06 1.452,12.06 L1.452,12.06 Z" stroke="#000000" stroke-width="0.5" fill="#FFFF00"></path>
                    <path d="M1.86,13.764 L20.5056,13.764 C20.898228,13.764 21.219948,14.143944 21.219948,14.608548 C21.219948,15.074208 20.898228,15.454152 20.5056,15.454152 L1.86,15.454152 C1.467372,15.454152 1.145652,15.074208 1.145652,14.608548 C1.145652,14.143944 1.467372,13.764 1.86,13.764 L1.86,13.764 Z" stroke="#000000" stroke-width="0.5" fill="#FFFF00"></path>
                    <path d="M7.884,1.056 L9.35604,1.0584 L9.35604,2.104032 L10.430196,2.104032 L10.430196,1.03512 L11.938236,1.03992 L11.938236,2.104596 L13.015572,2.104596 L13.015572,1.035684 L14.524692,1.035684 L14.522292,3.449724 C14.522292,3.828612 14.217516,4.074144 13.864044,4.074144 L8.570484,4.074144 C8.214888,4.074144 7.88682,3.789456 7.885764,3.44232 L7.882164,1.05684 L7.88322,1.05684 L7.884,1.056 Z" stroke="#000000" stroke-width="0.5" fill="#FFFF00"></path>
                    <path d="M13.428,4.284 L13.760292,12.02568 L8.596932,12.0066 L8.938764,4.26384 L13.427964,4.284" stroke="#000000" stroke-width="0.5" fill="#FFFF00"></path>
                    <path d="M7.128,7.872 L7.285692,12.045 L2.334972,12.0474 L2.474664,7.87224 L7.128984,7.87224 L7.127916,7.87224 L7.128,7.872 Z" stroke="#000000" stroke-width="0.5" fill="#FFFF00"></path>
                    <g transform="translate(13.930800, 7.200000)" stroke="#000000" stroke-width="0.5" fill="#FFFF00">
                        <path d="M5.928,0.672 L6.085692,4.845 L1.134972,4.8474 L1.274664,0.67224 L5.928984,0.67224 L5.927916,0.67224 L5.928,0.672 Z"></path>
                    </g>
                    <path d="M1.56,4.848 L2.99928,4.8516 L2.99928,5.898288 L4.05228,5.898288 L4.05228,4.827252 L5.52756,4.832052 L5.52756,5.898852 L6.582672,5.898852 L6.582672,4.827816 L8.058912,4.830216 L8.056512,7.244256 C8.056512,7.621032 7.758072,7.866564 7.413072,7.866564 L2.232792,7.866564 C1.88568,7.866564 1.562904,7.583988 1.561836,7.235796 L1.558236,4.849236 L1.559292,4.849236 L1.56,4.848 Z" stroke="#000000" stroke-width="0.5" fill="#FFFF00"></path>
                    <g transform="translate(13.930800, 4.800000)" stroke="#000000" stroke-width="0.5" fill="#FFFF00">
                        <path d="M0.36,0.048 L1.79928,0.0516 L1.79928,1.098288 L2.85228,1.098288 L2.85228,0.027252 L4.32756,0.032052 L4.32756,1.098852 L5.382672,1.098852 L5.382672,0.027816 L6.858912,0.030216 L6.856512,2.444256 C6.856512,2.821032 6.558072,3.066564 6.213072,3.066564 L1.032792,3.066564 C0.68568,3.066564 0.362904,2.783988 0.361836,2.435796 L0.358236,0.049236 L0.359292,0.049236 L0.36,0.048 Z"></path>
                    </g>
                    <path d="M10.68,6.732 C10.6482,5.979528 11.731932,5.971068 11.719236,6.732 L11.719236,8.57568 L10.680036,8.57568 L10.680036,6.73248" fill="#000000"></path>
                    <path d="M4.284,9.408 C4.2804,8.68092 5.288316,8.666112 5.27562,9.408 L5.27562,10.83252 L4.28442,10.83252 L4.28442,9.40812" fill="#000000"></path>
                    <g transform="translate(16.369200, 8.400000)" fill="#000000">
                        <path d="M0.684,1.008 C0.6804,0.28092 1.688316,0.266112 1.67562,1.008 L1.67562,2.43252 L0.68442,2.43252 L0.68442,1.00812"></path>
                    </g>
                </g>
                <g transform="translate(0.000000, 55.583760)">
                    <g>
                        <path d="M6.228,23.316 C6.389916,16.6908 11.09088,15.1224 11.12472,15.09912 C11.15856,15.07692 16.2024,16.78824 16.18548,23.37744 L6.22812,23.316" fill="#FFFF00"></path>
                        <path d="M2.172,15.228 L1.353936,22.84164 L6.322656,22.85244 C6.370296,16.55328 11.091336,15.50544 11.205576,15.52872 C11.312496,15.52272 15.992256,16.92144 16.117056,22.85244 L21.098376,22.85244 L20.198832,15.1806 L2.172432,15.22608 L2.172432,15.22848 L2.172,15.228 Z" stroke="#000000" stroke-width="0.5" fill="#FFFF00"></path>
                        <path d="M1.02,22.872 L21.3552,22.872 C21.783804,22.872 22.134096,23.295324 22.134096,23.812848 C22.134096,24.329316 21.783804,24.75054 21.3552,24.75054 L1.02,24.75054 C0.591396,24.75054 0.241104,24.329316 0.241104,23.812848 C0.241104,23.295324 0.591396,22.872 1.02,22.872 L1.02,22.872 Z" stroke="#000000" stroke-width="0.5" fill="#FFFF00"></path>
                        <path d="M8.412,22.836 C8.4342,18.86088 11.12652,17.73588 11.14032,17.73804 C11.141376,17.73804 13.95108,18.897972 13.9734,22.836 L8.41212,22.836" stroke="#000000" stroke-width="0.5" fill="#FFFF00"></path>
                        <path d="M1.452,12.06 L20.946,12.06 C21.356616,12.06 21.693156,12.442068 21.693156,12.905616 C21.693156,13.37022 21.356616,13.75122 20.946,13.75122 L1.452,13.75122 C1.041384,13.75122 0.704844,13.372344 0.704844,12.905616 C0.704844,12.442068 1.041384,12.06 1.452,12.06 L1.452,12.06 Z" stroke="#000000" stroke-width="0.5" fill="#FFFF00"></path>
                        <path d="M1.86,13.764 L20.5056,13.764 C20.898228,13.764 21.219948,14.143944 21.219948,14.608548 C21.219948,15.074208 20.898228,15.454152 20.5056,15.454152 L1.86,15.454152 C1.467372,15.454152 1.145652,15.074208 1.145652,14.608548 C1.145652,14.143944 1.467372,13.764 1.86,13.764 L1.86,13.764 Z" stroke="#000000" stroke-width="0.5" fill="#FFFF00"></path>
                        <path d="M7.884,1.056 L9.35604,1.0584 L9.35604,2.104032 L10.430196,2.104032 L10.430196,1.03512 L11.938236,1.03992 L11.938236,2.104596 L13.015572,2.104596 L13.015572,1.035684 L14.524692,1.035684 L14.522292,3.449724 C14.522292,3.828612 14.217516,4.074144 13.864044,4.074144 L8.570484,4.074144 C8.214888,4.074144 7.88682,3.789456 7.885764,3.44232 L7.882164,1.05684 L7.88322,1.05684 L7.884,1.056 Z" stroke="#000000" stroke-width="0.5" fill="#FFFF00"></path>
                        <path d="M13.428,4.284 L13.760292,12.02568 L8.596932,12.0066 L8.938764,4.26384 L13.427964,4.284" stroke="#000000" stroke-width="0.5" fill="#FFFF00"></path>
                        <path d="M7.128,7.872 L7.285692,12.045 L2.334972,12.0474 L2.474664,7.87224 L7.128984,7.87224 L7.127916,7.87224 L7.128,7.872 Z" stroke="#000000" stroke-width="0.5" fill="#FFFF00"></path>
                        <g transform="translate(13.930800, 7.200000)" stroke="#000000" stroke-width="0.5" fill="#FFFF00">
                            <path d="M5.928,0.672 L6.085692,4.845 L1.134972,4.8474 L1.274664,0.67224 L5.928984,0.67224 L5.927916,0.67224 L5.928,0.672 Z"></path>
                        </g>
                        <path d="M1.56,4.848 L2.99928,4.8516 L2.99928,5.898288 L4.05228,5.898288 L4.05228,4.827252 L5.52756,4.832052 L5.52756,5.898852 L6.582672,5.898852 L6.582672,4.827816 L8.058912,4.830216 L8.056512,7.244256 C8.056512,7.621032 7.758072,7.866564 7.413072,7.866564 L2.232792,7.866564 C1.88568,7.866564 1.562904,7.583988 1.561836,7.235796 L1.558236,4.849236 L1.559292,4.849236 L1.56,4.848 Z" stroke="#000000" stroke-width="0.5" fill="#FFFF00"></path>
                        <g transform="translate(13.930800, 4.800000)" stroke="#000000" stroke-width="0.5" fill="#FFFF00">
                            <path d="M0.36,0.048 L1.79928,0.0516 L1.79928,1.098288 L2.85228,1.098288 L2.85228,0.027252 L4.32756,0.032052 L4.32756,1.098852 L5.382672,1.098852 L5.382672,0.027816 L6.858912,0.030216 L6.856512,2.444256 C6.856512,2.821032 6.558072,3.066564 6.213072,3.066564 L1.032792,3.066564 C0.68568,3.066564 0.362904,2.783988 0.361836,2.435796 L0.358236,0.049236 L0.359292,0.049236 L0.36,0.048 Z"></path>
                        </g>
                        <path d="M10.68,6.732 C10.6482,5.979528 11.731932,5.971068 11.719236,6.732 L11.719236,8.57568 L10.680036,8.57568 L10.680036,6.73248" fill="#000000"></path>
                        <path d="M4.284,9.408 C4.2804,8.68092 5.288316,8.666112 5.27562,9.408 L5.27562,10.83252 L4.28442,10.83252 L4.28442,9.40812" fill="#000000"></path>
                        <g transform="translate(16.369200, 8.400000)" fill="#000000">
                            <path d="M0.684,1.008 C0.6804,0.28092 1.688316,0.266112 1.67562,1.008 L1.67562,2.43252 L0.68442,2.43252 L0.68442,1.00812"></path>
                        </g>
                    </g>
                </g>
                <g transform="translate(23.941407, 125.535822) rotate(-45.202042) translate(-23.941407, -125.535822) translate(12.541407, 112.935822)">
                    <g>
                        <path d="M6.228,23.316 C6.389916,16.6908 11.09088,15.1224 11.12472,15.09912 C11.15856,15.07692 16.2024,16.78824 16.18548,23.37744 L6.22812,23.316" fill="#FFFF00"></path>
                        <path d="M2.172,15.228 L1.353936,22.84164 L6.322656,22.85244 C6.370296,16.55328 11.091336,15.50544 11.205576,15.52872 C11.312496,15.52272 15.992256,16.92144 16.117056,22.85244 L21.098376,22.85244 L20.198832,15.1806 L2.172432,15.22608 L2.172432,15.22848 L2.172,15.228 Z" stroke="#000000" stroke-width="0.5" fill="#FFFF00"></path>
                        <path d="M1.02,22.872 L21.3552,22.872 C21.783804,22.872 22.134096,23.295324 22.134096,23.812848 C22.134096,24.329316 21.783804,24.75054 21.3552,24.75054 L1.02,24.75054 C0.591396,24.75054 0.241104,24.329316 0.241104,23.812848 C0.241104,23.295324 0.591396,22.872 1.02,22.872 L1.02,22.872 Z" stroke="#000000" stroke-width="0.5" fill="#FFFF00"></path>
                        <path d="M8.412,22.836 C8.4342,18.86088 11.12652,17.73588 11.14032,17.73804 C11.141376,17.73804 13.95108,18.897972 13.9734,22.836 L8.41212,22.836" stroke="#000000" stroke-width="0.5" fill="#FFFF00"></path>
                        <path d="M1.452,12.06 L20.946,12.06 C21.356616,12.06 21.693156,12.442068 21.693156,12.905616 C21.693156,13.37022 21.356616,13.75122 20.946,13.75122 L1.452,13.75122 C1.041384,13.75122 0.704844,13.372344 0.704844,12.905616 C0.704844,12.442068 1.041384,12.06 1.452,12.06 L1.452,12.06 Z" stroke="#000000" stroke-width="0.5" fill="#FFFF00"></path>
                        <path d="M1.86,13.764 L20.5056,13.764 C20.898228,13.764 21.219948,14.143944 21.219948,14.608548 C21.219948,15.074208 20.898228,15.454152 20.5056,15.454152 L1.86,15.454152 C1.467372,15.454152 1.145652,15.074208 1.145652,14.608548 C1.145652,14.143944 1.467372,13.764 1.86,13.764 L1.86,13.764 Z" stroke="#000000" stroke-width="0.5" fill="#FFFF00"></path>
                        <path d="M7.884,1.056 L9.35604,1.0584 L9.35604,2.104032 L10.430196,2.104032 L10.430196,1.03512 L11.938236,1.03992 L11.938236,2.104596 L13.015572,2.104596 L13.015572,1.035684 L14.524692,1.035684 L14.522292,3.449724 C14.522292,3.828612 14.217516,4.074144 13.864044,4.074144 L8.570484,4.074144 C8.214888,4.074144 7.88682,3.789456 7.885764,3.44232 L7.882164,1.05684 L7.88322,1.05684 L7.884,1.056 Z" stroke="#000000" stroke-width="0.5" fill="#FFFF00"></path>
                        <path d="M13.428,4.284 L13.760292,12.02568 L8.596932,12.0066 L8.938764,4.26384 L13.427964,4.284" stroke="#000000" stroke-width="0.5" fill="#FFFF00"></path>
                        <path d="M7.128,7.872 L7.285692,12.045 L2.334972,12.0474 L2.474664,7.87224 L7.128984,7.87224 L7.127916,7.87224 L7.128,7.872 Z" stroke="#000000" stroke-width="0.5" fill="#FFFF00"></path>
                        <g transform="translate(13.930800, 7.200000)" stroke="#000000" stroke-width="0.5" fill="#FFFF00">
                            <path d="M5.928,0.672 L6.085692,4.845 L1.134972,4.8474 L1.274664,0.67224 L5.928984,0.67224 L5.927916,0.67224 L5.928,0.672 Z"></path>
                        </g>
                        <path d="M1.56,4.848 L2.99928,4.8516 L2.99928,5.898288 L4.05228,5.898288 L4.05228,4.827252 L5.52756,4.832052 L5.52756,5.898852 L6.582672,5.898852 L6.582672,4.827816 L8.058912,4.830216 L8.056512,7.244256 C8.056512,7.621032 7.758072,7.866564 7.413072,7.866564 L2.232792,7.866564 C1.88568,7.866564 1.562904,7.583988 1.561836,7.235796 L1.558236,4.849236 L1.559292,4.849236 L1.56,4.848 Z" stroke="#000000" stroke-width="0.5" fill="#FFFF00"></path>
                        <g transform="translate(13.930800, 4.800000)" stroke="#000000" stroke-width="0.5" fill="#FFFF00">
                            <path d="M0.36,0.048 L1.79928,0.0516 L1.79928,1.098288 L2.85228,1.098288 L2.85228,0.027252 L4.32756,0.032052 L4.32756,1.098852 L5.382672,1.098852 L5.382672,0.027816 L6.858912,0.030216 L6.856512,2.444256 C6.856512,2.821032 6.558072,3.066564 6.213072,3.066564 L1.032792,3.066564 C0.68568,3.066564 0.362904,2.783988 0.361836,2.435796 L0.358236,0.049236 L0.359292,0.049236 L0.36,0.048 Z"></path>
                        </g>
                        <path d="M10.68,6.732 C10.6482,5.979528 11.731932,5.971068 11.719236,6.732 L11.719236,8.57568 L10.680036,8.57568 L10.680036,6.73248" fill="#000000"></path>
                        <path d="M4.284,9.408 C4.2804,8.68092 5.288316,8.666112 5.27562,9.408 L5.27562,10.83252 L4.28442,10.83252 L4.28442,9.40812" fill="#000000"></path>
                        <g transform="translate(16.369200, 8.400000)" fill="#000000">
                            <path d="M0.684,1.008 C0.6804,0.28092 1.688316,0.266112 1.67562,1.008 L1.67562,2.43252 L0.68442,2.43252 L0.68442,1.00812"></path>
                        </g>
                    </g>
                </g>
            </g>
            <g transform="translate(60.856560, 4.800000)">
                <g>
                    <path d="M6.228,23.316 C6.389916,16.6908 11.09088,15.1224 11.12472,15.09912 C11.15856,15.07692 16.2024,16.78824 16.18548,23.37744 L6.22812,23.316" fill="#FFFF00"></path>
                    <path d="M2.172,15.228 L1.353936,22.84164 L6.322656,22.85244 C6.370296,16.55328 11.091336,15.50544 11.205576,15.52872 C11.312496,15.52272 15.992256,16.92144 16.117056,22.85244 L21.098376,22.85244 L20.198832,15.1806 L2.172432,15.22608 L2.172432,15.22848 L2.172,15.228 Z" stroke="#000000" stroke-width="0.5" fill="#FFFF00"></path>
                    <path d="M1.02,22.872 L21.3552,22.872 C21.783804,22.872 22.134096,23.295324 22.134096,23.812848 C22.134096,24.329316 21.783804,24.75054 21.3552,24.75054 L1.02,24.75054 C0.591396,24.75054 0.241104,24.329316 0.241104,23.812848 C0.241104,23.295324 0.591396,22.872 1.02,22.872 L1.02,22.872 Z" stroke="#000000" stroke-width="0.5" fill="#FFFF00"></path>
                    <path d="M8.412,22.836 C8.4342,18.86088 11.12652,17.73588 11.14032,17.73804 C11.141376,17.73804 13.95108,18.897972 13.9734,22.836 L8.41212,22.836" stroke="#000000" stroke-width="0.5" fill="#FFFF00"></path>
                    <path d="M1.452,12.06 L20.946,12.06 C21.356616,12.06 21.693156,12.442068 21.693156,12.905616 C21.693156,13.37022 21.356616,13.75122 20.946,13.75122 L1.452,13.75122 C1.041384,13.75122 0.704844,13.372344 0.704844,12.905616 C0.704844,12.442068 1.041384,12.06 1.452,12.06 L1.452,12.06 Z" stroke="#000000" stroke-width="0.5" fill="#FFFF00"></path>
                    <path d="M1.86,13.764 L20.5056,13.764 C20.898228,13.764 21.219948,14.143944 21.219948,14.608548 C21.219948,15.074208 20.898228,15.454152 20.5056,15.454152 L1.86,15.454152 C1.467372,15.454152 1.145652,15.074208 1.145652,14.608548 C1.145652,14.143944 1.467372,13.764 1.86,13.764 L1.86,13.764 Z" stroke="#000000" stroke-width="0.5" fill="#FFFF00"></path>
                    <path d="M7.884,1.056 L9.35604,1.0584 L9.35604,2.104032 L10.430196,2.104032 L10.430196,1.03512 L11.938236,1.03992 L11.938236,2.104596 L13.015572,2.104596 L13.015572,1.035684 L14.524692,1.035684 L14.522292,3.449724 C14.522292,3.828612 14.217516,4.074144 13.864044,4.074144 L8.570484,4.074144 C8.214888,4.074144 7.88682,3.789456 7.885764,3.44232 L7.882164,1.05684 L7.88322,1.05684 L7.884,1.056 Z" stroke="#000000" stroke-width="0.5" fill="#FFFF00"></path>
                    <path d="M13.428,4.284 L13.760292,12.02568 L8.596932,12.0066 L8.938764,4.26384 L13.427964,4.284" stroke="#000000" stroke-width="0.5" fill="#FFFF00"></path>
                    <path d="M7.128,7.872 L7.285692,12.045 L2.334972,12.0474 L2.474664,7.87224 L7.128984,7.87224 L7.127916,7.87224 L7.128,7.872 Z" stroke="#000000" stroke-width="0.5" fill="#FFFF00"></path>
                    <g transform="translate(13.930800, 7.200000)" stroke="#000000" stroke-width="0.5" fill="#FFFF00">
                        <path d="M5.928,0.672 L6.085692,4.845 L1.134972,4.8474 L1.274664,0.67224 L5.928984,0.67224 L5.927916,0.67224 L5.928,0.672 Z"></path>
                    </g>
                    <path d="M1.56,4.848 L2.99928,4.8516 L2.99928,5.898288 L4.05228,5.898288 L4.05228,4.827252 L5.52756,4.832052 L5.52756,5.898852 L6.582672,5.898852 L6.582672,4.827816 L8.058912,4.830216 L8.056512,7.244256 C8.056512,7.621032 7.758072,7.866564 7.413072,7.866564 L2.232792,7.866564 C1.88568,7.866564 1.562904,7.583988 1.561836,7.235796 L1.558236,4.849236 L1.559292,4.849236 L1.56,4.848 Z" stroke="#000000" stroke-width="0.5" fill="#FFFF00"></path>
                    <g transform="translate(13.930800, 4.800000)" stroke="#000000" stroke-width="0.5" fill="#FFFF00">
                        <path d="M0.36,0.048 L1.79928,0.0516 L1.79928,1.098288 L2.85228,1.098288 L2.85228,0.027252 L4.32756,0.032052 L4.32756,1.098852 L5.382672,1.098852 L5.382672,0.027816 L6.858912,0.030216 L6.856512,2.444256 C6.856512,2.821032 6.558072,3.066564 6.213072,3.066564 L1.032792,3.066564 C0.68568,3.066564 0.362904,2.783988 0.361836,2.435796 L0.358236,0.049236 L0.359292,0.049236 L0.36,0.048 Z"></path>
                    </g>
                    <path d="M10.68,6.732 C10.6482,5.979528 11.731932,5.971068 11.719236,6.732 L11.719236,8.57568 L10.680036,8.57568 L10.680036,6.73248" fill="#000000"></path>
                    <path d="M4.284,9.408 C4.2804,8.68092 5.288316,8.666112 5.27562,9.408 L5.27562,10.83252 L4.28442,10.83252 L4.28442,9.40812" fill="#000000"></path>
                    <g transform="translate(16.369200, 8.400000)" fill="#000000">
                        <path d="M0.684,1.008 C0.6804,0.28092 1.688316,0.266112 1.67562,1.008 L1.67562,2.43252 L0.68442,2.43252 L0.68442,1.00812"></path>
                    </g>
                </g>
            </g>
            <g transform="translate(116.750340, 76.200000) scale(-1, 1) translate(-116.750340, -76.200000) translate(95.750340, 4.800000)">
                <g>
                    <g>
                        <path d="M6.228,23.316 C6.389916,16.6908 11.09088,15.1224 11.12472,15.09912 C11.15856,15.07692 16.2024,16.78824 16.18548,23.37744 L6.22812,23.316" fill="#FFFF00"></path>
                        <path d="M2.172,15.228 L1.353936,22.84164 L6.322656,22.85244 C6.370296,16.55328 11.091336,15.50544 11.205576,15.52872 C11.312496,15.52272 15.992256,16.92144 16.117056,22.85244 L21.098376,22.85244 L20.198832,15.1806 L2.172432,15.22608 L2.172432,15.22848 L2.172,15.228 Z" stroke="#000000" stroke-width="0.5" fill="#FFFF00"></path>
                        <path d="M1.02,22.872 L21.3552,22.872 C21.783804,22.872 22.134096,23.295324 22.134096,23.812848 C22.134096,24.329316 21.783804,24.75054 21.3552,24.75054 L1.02,24.75054 C0.591396,24.75054 0.241104,24.329316 0.241104,23.812848 C0.241104,23.295324 0.591396,22.872 1.02,22.872 L1.02,22.872 Z" stroke="#000000" stroke-width="0.5" fill="#FFFF00"></path>
                        <path d="M8.412,22.836 C8.4342,18.86088 11.12652,17.73588 11.14032,17.73804 C11.141376,17.73804 13.95108,18.897972 13.9734,22.836 L8.41212,22.836" stroke="#000000" stroke-width="0.5" fill="#FFFF00"></path>
                        <path d="M1.452,12.06 L20.946,12.06 C21.356616,12.06 21.693156,12.442068 21.693156,12.905616 C21.693156,13.37022 21.356616,13.75122 20.946,13.75122 L1.452,13.75122 C1.041384,13.75122 0.704844,13.372344 0.704844,12.905616 C0.704844,12.442068 1.041384,12.06 1.452,12.06 L1.452,12.06 Z" stroke="#000000" stroke-width="0.5" fill="#FFFF00"></path>
                        <path d="M1.86,13.764 L20.5056,13.764 C20.898228,13.764 21.219948,14.143944 21.219948,14.608548 C21.219948,15.074208 20.898228,15.454152 20.5056,15.454152 L1.86,15.454152 C1.467372,15.454152 1.145652,15.074208 1.145652,14.608548 C1.145652,14.143944 1.467372,13.764 1.86,13.764 L1.86,13.764 Z" stroke="#000000" stroke-width="0.5" fill="#FFFF00"></path>
                        <path d="M7.884,1.056 L9.35604,1.0584 L9.35604,2.104032 L10.430196,2.104032 L10.430196,1.03512 L11.938236,1.03992 L11.938236,2.104596 L13.015572,2.104596 L13.015572,1.035684 L14.524692,1.035684 L14.522292,3.449724 C14.522292,3.828612 14.217516,4.074144 13.864044,4.074144 L8.570484,4.074144 C8.214888,4.074144 7.88682,3.789456 7.885764,3.44232 L7.882164,1.05684 L7.88322,1.05684 L7.884,1.056 Z" stroke="#000000" stroke-width="0.5" fill="#FFFF00"></path>
                        <path d="M13.428,4.284 L13.760292,12.02568 L8.596932,12.0066 L8.938764,4.26384 L13.427964,4.284" stroke="#000000" stroke-width="0.5" fill="#FFFF00"></path>
                        <path d="M7.128,7.872 L7.285692,12.045 L2.334972,12.0474 L2.474664,7.87224 L7.128984,7.87224 L7.127916,7.87224 L7.128,7.872 Z" stroke="#000000" stroke-width="0.5" fill="#FFFF00"></path>
                        <g transform="translate(13.930800, 7.200000)" stroke="#000000" stroke-width="0.5" fill="#FFFF00">
                            <path d="M5.928,0.672 L6.085692,4.845 L1.134972,4.8474 L1.274664,0.67224 L5.928984,0.67224 L5.927916,0.67224 L5.928,0.672 Z"></path>
                        </g>
                        <path d="M1.56,4.848 L2.99928,4.8516 L2.99928,5.898288 L4.05228,5.898288 L4.05228,4.827252 L5.52756,4.832052 L5.52756,5.898852 L6.582672,5.898852 L6.582672,4.827816 L8.058912,4.830216 L8.056512,7.244256 C8.056512,7.621032 7.758072,7.866564 7.413072,7.866564 L2.232792,7.866564 C1.88568,7.866564 1.562904,7.583988 1.561836,7.235796 L1.558236,4.849236 L1.559292,4.849236 L1.56,4.848 Z" stroke="#000000" stroke-width="0.5" fill="#FFFF00"></path>
                        <g transform="translate(13.930800, 4.800000)" stroke="#000000" stroke-width="0.5" fill="#FFFF00">
                            <path d="M0.36,0.048 L1.79928,0.0516 L1.79928,1.098288 L2.85228,1.098288 L2.85228,0.027252 L4.32756,0.032052 L4.32756,1.098852 L5.382672,1.098852 L5.382672,0.027816 L6.858912,0.030216 L6.856512,2.444256 C6.856512,2.821032 6.558072,3.066564 6.213072,3.066564 L1.032792,3.066564 C0.68568,3.066564 0.362904,2.783988 0.361836,2.435796 L0.358236,0.049236 L0.359292,0.049236 L0.36,0.048 Z"></path>
                        </g>
                        <path d="M10.68,6.732 C10.6482,5.979528 11.731932,5.971068 11.719236,6.732 L11.719236,8.57568 L10.680036,8.57568 L10.680036,6.73248" fill="#000000"></path>
                        <path d="M4.284,9.408 C4.2804,8.68092 5.288316,8.666112 5.27562,9.408 L5.27562,10.83252 L4.28442,10.83252 L4.28442,9.40812" fill="#000000"></path>
                        <g transform="translate(16.369200, 8.400000)" fill="#000000">
                            <path d="M0.684,1.008 C0.6804,0.28092 1.688316,0.266112 1.67562,1.008 L1.67562,2.43252 L0.68442,2.43252 L0.68442,1.00812"></path>
                        </g>
                    </g>
                    <g transform="translate(0.000000, 55.583760)">
                        <g>
                            <path d="M6.228,23.316 C6.389916,16.6908 11.09088,15.1224 11.12472,15.09912 C11.15856,15.07692 16.2024,16.78824 16.18548,23.37744 L6.22812,23.316" fill="#FFFF00"></path>
                            <path d="M2.172,15.228 L1.353936,22.84164 L6.322656,22.85244 C6.370296,16.55328 11.091336,15.50544 11.205576,15.52872 C11.312496,15.52272 15.992256,16.92144 16.117056,22.85244 L21.098376,22.85244 L20.198832,15.1806 L2.172432,15.22608 L2.172432,15.22848 L2.172,15.228 Z" stroke="#000000" stroke-width="0.5" fill="#FFFF00"></path>
                            <path d="M1.02,22.872 L21.3552,22.872 C21.783804,22.872 22.134096,23.295324 22.134096,23.812848 C22.134096,24.329316 21.783804,24.75054 21.3552,24.75054 L1.02,24.75054 C0.591396,24.75054 0.241104,24.329316 0.241104,23.812848 C0.241104,23.295324 0.591396,22.872 1.02,22.872 L1.02,22.872 Z" stroke="#000000" stroke-width="0.5" fill="#FFFF00"></path>
                            <path d="M8.412,22.836 C8.4342,18.86088 11.12652,17.73588 11.14032,17.73804 C11.141376,17.73804 13.95108,18.897972 13.9734,22.836 L8.41212,22.836" stroke="#000000" stroke-width="0.5" fill="#FFFF00"></path>
                            <path d="M1.452,12.06 L20.946,12.06 C21.356616,12.06 21.693156,12.442068 21.693156,12.905616 C21.693156,13.37022 21.356616,13.75122 20.946,13.75122 L1.452,13.75122 C1.041384,13.75122 0.704844,13.372344 0.704844,12.905616 C0.704844,12.442068 1.041384,12.06 1.452,12.06 L1.452,12.06 Z" stroke="#000000" stroke-width="0.5" fill="#FFFF00"></path>
                            <path d="M1.86,13.764 L20.5056,13.764 C20.898228,13.764 21.219948,14.143944 21.219948,14.608548 C21.219948,15.074208 20.898228,15.454152 20.5056,15.454152 L1.86,15.454152 C1.467372,15.454152 1.145652,15.074208 1.145652,14.608548 C1.145652,14.143944 1.467372,13.764 1.86,13.764 L1.86,13.764 Z" stroke="#000000" stroke-width="0.5" fill="#FFFF00"></path>
                            <path d="M7.884,1.056 L9.35604,1.0584 L9.35604,2.104032 L10.430196,2.104032 L10.430196,1.03512 L11.938236,1.03992 L11.938236,2.104596 L13.015572,2.104596 L13.015572,1.035684 L14.524692,1.035684 L14.522292,3.449724 C14.522292,3.828612 14.217516,4.074144 13.864044,4.074144 L8.570484,4.074144 C8.214888,4.074144 7.88682,3.789456 7.885764,3.44232 L7.882164,1.05684 L7.88322,1.05684 L7.884,1.056 Z" stroke="#000000" stroke-width="0.5" fill="#FFFF00"></path>
                            <path d="M13.428,4.284 L13.760292,12.02568 L8.596932,12.0066 L8.938764,4.26384 L13.427964,4.284" stroke="#000000" stroke-width="0.5" fill="#FFFF00"></path>
                            <path d="M7.128,7.872 L7.285692,12.045 L2.334972,12.0474 L2.474664,7.87224 L7.128984,7.87224 L7.127916,7.87224 L7.128,7.872 Z" stroke="#000000" stroke-width="0.5" fill="#FFFF00"></path>
                            <g transform="translate(13.930800, 7.200000)" stroke="#000000" stroke-width="0.5" fill="#FFFF00">
                                <path d="M5.928,0.672 L6.085692,4.845 L1.134972,4.8474 L1.274664,0.67224 L5.928984,0.67224 L5.927916,0.67224 L5.928,0.672 Z"></path>
                            </g>
                            <path d="M1.56,4.848 L2.99928,4.8516 L2.99928,5.898288 L4.05228,5.898288 L4.05228,4.827252 L5.52756,4.832052 L5.52756,5.898852 L6.582672,5.898852 L6.582672,4.827816 L8.058912,4.830216 L8.056512,7.244256 C8.056512,7.621032 7.758072,7.866564 7.413072,7.866564 L2.232792,7.866564 C1.88568,7.866564 1.562904,7.583988 1.561836,7.235796 L1.558236,4.849236 L1.559292,4.849236 L1.56,4.848 Z" stroke="#000000" stroke-width="0.5" fill="#FFFF00"></path>
                            <g transform="translate(13.930800, 4.800000)" stroke="#000000" stroke-width="0.5" fill="#FFFF00">
                                <path d="M0.36,0.048 L1.79928,0.0516 L1.79928,1.098288 L2.85228,1.098288 L2.85228,0.027252 L4.32756,0.032052 L4.32756,1.098852 L5.382672,1.098852 L5.382672,0.027816 L6.858912,0.030216 L6.856512,2.444256 C6.856512,2.821032 6.558072,3.066564 6.213072,3.066564 L1.032792,3.066564 C0.68568,3.066564 0.362904,2.783988 0.361836,2.435796 L0.358236,0.049236 L0.359292,0.049236 L0.36,0.048 Z"></path>
                            </g>
                            <path d="M10.68,6.732 C10.6482,5.979528 11.731932,5.971068 11.719236,6.732 L11.719236,8.57568 L10.680036,8.57568 L10.680036,6.73248" fill="#000000"></path>
                            <path d="M4.284,9.408 C4.2804,8.68092 5.288316,8.666112 5.27562,9.408 L5.27562,10.83252 L4.28442,10.83252 L4.28442,9.40812" fill="#000000"></path>
                            <g transform="translate(16.369200, 8.400000)" fill="#000000">
                                <path d="M0.684,1.008 C0.6804,0.28092 1.688316,0.266112 1.67562,1.008 L1.67562,2.43252 L0.68442,2.43252 L0.68442,1.00812"></path>
                            </g>
                        </g>
                    </g>
                    <g transform="translate(23.941407, 125.535822) rotate(-45.202042) translate(-23.941407, -125.535822) translate(12.541407, 112.935822)">
                        <g>
                            <path d="M6.228,23.316 C6.389916,16.6908 11.09088,15.1224 11.12472,15.09912 C11.15856,15.07692 16.2024,16.78824 16.18548,23.37744 L6.22812,23.316" fill="#FFFF00"></path>
                            <path d="M2.172,15.228 L1.353936,22.84164 L6.322656,22.85244 C6.370296,16.55328 11.091336,15.50544 11.205576,15.52872 C11.312496,15.52272 15.992256,16.92144 16.117056,22.85244 L21.098376,22.85244 L20.198832,15.1806 L2.172432,15.22608 L2.172432,15.22848 L2.172,15.228 Z" stroke="#000000" stroke-width="0.5" fill="#FFFF00"></path>
                            <path d="M1.02,22.872 L21.3552,22.872 C21.783804,22.872 22.134096,23.295324 22.134096,23.812848 C22.134096,24.329316 21.783804,24.75054 21.3552,24.75054 L1.02,24.75054 C0.591396,24.75054 0.241104,24.329316 0.241104,23.812848 C0.241104,23.295324 0.591396,22.872 1.02,22.872 L1.02,22.872 Z" stroke="#000000" stroke-width="0.5" fill="#FFFF00"></path>
                            <path d="M8.412,22.836 C8.4342,18.86088 11.12652,17.73588 11.14032,17.73804 C11.141376,17.73804 13.95108,18.897972 13.9734,22.836 L8.41212,22.836" stroke="#000000" stroke-width="0.5" fill="#FFFF00"></path>
                            <path d="M1.452,12.06 L20.946,12.06 C21.356616,12.06 21.693156,12.442068 21.693156,12.905616 C21.693156,13.37022 21.356616,13.75122 20.946,13.75122 L1.452,13.75122 C1.041384,13.75122 0.704844,13.372344 0.704844,12.905616 C0.704844,12.442068 1.041384,12.06 1.452,12.06 L1.452,12.06 Z" stroke="#000000" stroke-width="0.5" fill="#FFFF00"></path>
                            <path d="M1.86,13.764 L20.5056,13.764 C20.898228,13.764 21.219948,14.143944 21.219948,14.608548 C21.219948,15.074208 20.898228,15.454152 20.5056,15.454152 L1.86,15.454152 C1.467372,15.454152 1.145652,15.074208 1.145652,14.608548 C1.145652,14.143944 1.467372,13.764 1.86,13.764 L1.86,13.764 Z" stroke="#000000" stroke-width="0.5" fill="#FFFF00"></path>
                            <path d="M7.884,1.056 L9.35604,1.0584 L9.35604,2.104032 L10.430196,2.104032 L10.430196,1.03512 L11.938236,1.03992 L11.938236,2.104596 L13.015572,2.104596 L13.015572,1.035684 L14.524692,1.035684 L14.522292,3.449724 C14.522292,3.828612 14.217516,4.074144 13.864044,4.074144 L8.570484,4.074144 C8.214888,4.074144 7.88682,3.789456 7.885764,3.44232 L7.882164,1.05684 L7.88322,1.05684 L7.884,1.056 Z" stroke="#000000" stroke-width="0.5" fill="#FFFF00"></path>
                            <path d="M13.428,4.284 L13.760292,12.02568 L8.596932,12.0066 L8.938764,4.26384 L13.427964,4.284" stroke="#000000" stroke-width="0.5" fill="#FFFF00"></path>
                            <path d="M7.128,7.872 L7.285692,12.045 L2.334972,12.0474 L2.474664,7.87224 L7.128984,7.87224 L7.127916,7.87224 L7.128,7.872 Z" stroke="#000000" stroke-width="0.5" fill="#FFFF00"></path>
                            <g transform="translate(13.930800, 7.200000)" stroke="#000000" stroke-width="0.5" fill="#FFFF00">
                                <path d="M5.928,0.672 L6.085692,4.845 L1.134972,4.8474 L1.274664,0.67224 L5.928984,0.67224 L5.927916,0.67224 L5.928,0.672 Z"></path>
                            </g>
                            <path d="M1.56,4.848 L2.99928,4.8516 L2.99928,5.898288 L4.05228,5.898288 L4.05228,4.827252 L5.52756,4.832052 L5.52756,5.898852 L6.582672,5.898852 L6.582672,4.827816 L8.058912,4.830216 L8.056512,7.244256 C8.056512,7.621032 7.758072,7.866564 7.413072,7.866564 L2.232792,7.866564 C1.88568,7.866564 1.562904,7.583988 1.561836,7.235796 L1.558236,4.849236 L1.559292,4.849236 L1.56,4.848 Z" stroke="#000000" stroke-width="0.5" fill="#FFFF00"></path>
                            <g transform="translate(13.930800, 4.800000)" stroke="#000000" stroke-width="0.5" fill="#FFFF00">
                                <path d="M0.36,0.048 L1.79928,0.0516 L1.79928,1.098288 L2.85228,1.098288 L2.85228,0.027252 L4.32756,0.032052 L4.32756,1.098852 L5.382672,1.098852 L5.382672,0.027816 L6.858912,0.030216 L6.856512,2.444256 C6.856512,2.821032 6.558072,3.066564 6.213072,3.066564 L1.032792,3.066564 C0.68568,3.066564 0.362904,2.783988 0.361836,2.435796 L0.358236,0.049236 L0.359292,0.049236 L0.36,0.048 Z"></path>
                            </g>
                            <path d="M10.68,6.732 C10.6482,5.979528 11.731932,5.971068 11.719236,6.732 L11.719236,8.57568 L10.680036,8.57568 L10.680036,6.73248" fill="#000000"></path>
                            <path d="M4.284,9.408 C4.2804,8.68092 5.288316,8.666112 5.27562,9.408 L5.27562,10.83252 L4.28442,10.83252 L4.28442,9.40812" fill="#000000"></path>
                            <g transform="translate(16.369200, 8.400000)" fill="#000000">
                                <path d="M0.684,1.008 C0.6804,0.28092 1.688316,0.266112 1.67562,1.008 L1.67562,2.43252 L0.68442,2.43252 L0.68442,1.00812"></path>
                            </g>
                        </g>
                    </g>
                </g>
            </g>
            <g transform="translate(62.400000, 72.000000)">
                <path d="M0.7632,13.6872 L0.7632,13.6932 C0.7632,16.34748 1.782324,18.76584 3.41736,20.52048 C5.0556,22.28052 7.31184,23.37372 9.77976,23.37372 C12.2604,23.37372 14.51244,22.287876 16.14324,20.53524 C17.77296,18.7848 18.78576,16.368612 18.78576,13.70364 L18.78576,0.78204 L0.79536,0.76728 L0.7626,13.68648" fill="#003399"></path>
                <ellipse fill="#FFFFFF" cx="4.8888" cy="5.682" rx="1.7832" ry="1.7832"></ellipse>
                <ellipse fill="#FFFFFF" cx="14.8704" cy="5.6904" rx="1.7832" ry="1.7832"></ellipse>
                <ellipse fill="#FFFFFF" cx="9.87" cy="10.482" rx="1.7832" ry="1.7832"></ellipse>
                <ellipse fill="#FFFFFF" cx="4.8888" cy="15.4992" rx="1.7832" ry="1.7832"></ellipse>
                <ellipse fill="#FFFFFF" cx="14.8596" cy="15.486" rx="1.7832" ry="1.7832"></ellipse>
            </g>
            <g transform="translate(62.400000, 40.780800)">
                <g>
                    <path d="M0.7632,13.6872 L0.7632,13.6932 C0.7632,16.34748 1.782324,18.76584 3.41736,20.52048 C5.0556,22.28052 7.31184,23.37372 9.77976,23.37372 C12.2604,23.37372 14.51244,22.287876 16.14324,20.53524 C17.77296,18.7848 18.78576,16.368612 18.78576,13.70364 L18.78576,0.78204 L0.79536,0.76728 L0.7626,13.68648" fill="#003399"></path>
                    <ellipse fill="#FFFFFF" cx="4.8888" cy="5.682" rx="1.7832" ry="1.7832"></ellipse>
                    <ellipse fill="#FFFFFF" cx="14.8704" cy="5.6904" rx="1.7832" ry="1.7832"></ellipse>
                    <ellipse fill="#FFFFFF" cx="9.87" cy="10.482" rx="1.7832" ry="1.7832"></ellipse>
                    <ellipse fill="#FFFFFF" cx="4.8888" cy="15.4992" rx="1.7832" ry="1.7832"></ellipse>
                    <ellipse fill="#FFFFFF" cx="14.8596" cy="15.486" rx="1.7832" ry="1.7832"></ellipse>
                </g>
            </g>
            <g transform="translate(37.441200, 72.000000)">
                <g transform="translate(0.000000, 0.000000)">
                    <path d="M0.7632,13.6872 L0.7632,13.6932 C0.7632,16.34748 1.782324,18.76584 3.41736,20.52048 C5.0556,22.28052 7.31184,23.37372 9.77976,23.37372 C12.2604,23.37372 14.51244,22.287876 16.14324,20.53524 C17.77296,18.7848 18.78576,16.368612 18.78576,13.70364 L18.78576,0.78204 L0.79536,0.76728 L0.7626,13.68648" fill="#003399"></path>
                    <ellipse fill="#FFFFFF" cx="4.8888" cy="5.682" rx="1.7832" ry="1.7832"></ellipse>
                    <ellipse fill="#FFFFFF" cx="14.8704" cy="5.6904" rx="1.7832" ry="1.7832"></ellipse>
                    <ellipse fill="#FFFFFF" cx="9.87" cy="10.482" rx="1.7832" ry="1.7832"></ellipse>
                    <ellipse fill="#FFFFFF" cx="4.8888" cy="15.4992" rx="1.7832" ry="1.7832"></ellipse>
                    <ellipse fill="#FFFFFF" cx="14.8596" cy="15.486" rx="1.7832" ry="1.7832"></ellipse>
                </g>
            </g>
            <g transform="translate(87.294000, 72.000000)">
                <g>
                    <path d="M0.7632,13.6872 L0.7632,13.6932 C0.7632,16.34748 1.782324,18.76584 3.41736,20.52048 C5.0556,22.28052 7.31184,23.37372 9.77976,23.37372 C12.2604,23.37372 14.51244,22.287876 16.14324,20.53524 C17.77296,18.7848 18.78576,16.368612 18.78576,13.70364 L18.78576,0.78204 L0.79536,0.76728 L0.7626,13.68648" fill="#003399"></path>
                    <ellipse fill="#FFFFFF" cx="4.8888" cy="5.682" rx="1.7832" ry="1.7832"></ellipse>
                    <ellipse fill="#FFFFFF" cx="14.8704" cy="5.6904" rx="1.7832" ry="1.7832"></ellipse>
                    <ellipse fill="#FFFFFF" cx="9.87" cy="10.482" rx="1.7832" ry="1.7832"></ellipse>
                    <ellipse fill="#FFFFFF" cx="4.8888" cy="15.4992" rx="1.7832" ry="1.7832"></ellipse>
                    <ellipse fill="#FFFFFF" cx="14.8596" cy="15.486" rx="1.7832" ry="1.7832"></ellipse>
                </g>
            </g>
            <g transform="translate(62.400000, 102.940800)">
                <g>
                    <path d="M0.7632,13.6872 L0.7632,13.6932 C0.7632,16.34748 1.782324,18.76584 3.41736,20.52048 C5.0556,22.28052 7.31184,23.37372 9.77976,23.37372 C12.2604,23.37372 14.51244,22.287876 16.14324,20.53524 C17.77296,18.7848 18.78576,16.368612 18.78576,13.70364 L18.78576,0.78204 L0.79536,0.76728 L0.7626,13.68648" fill="#003399"></path>
                    <ellipse fill="#FFFFFF" cx="4.8888" cy="5.682" rx="1.7832" ry="1.7832"></ellipse>
                    <ellipse fill="#FFFFFF" cx="14.8704" cy="5.6904" rx="1.7832" ry="1.7832"></ellipse>
                    <ellipse fill="#FFFFFF" cx="9.87" cy="10.482" rx="1.7832" ry="1.7832"></ellipse>
                    <ellipse fill="#FFFFFF" cx="4.8888" cy="15.4992" rx="1.7832" ry="1.7832"></ellipse>
                    <ellipse fill="#FFFFFF" cx="14.8596" cy="15.486" rx="1.7832" ry="1.7832"></ellipse>
                </g>
            </g>
        </g>
    </g>
</svg>
