<?xml version="1.0" encoding="UTF-8" standalone="no"?>
<svg width="640px" height="480px" viewBox="0 0 640 480" version="1.1" xmlns="http://www.w3.org/2000/svg" xmlns:xlink="http://www.w3.org/1999/xlink">
    <g stroke="none" stroke-width="1" fill="none" fill-rule="evenodd">
        <rect fill="#FE0000" x="0" y="0" width="640" height="480"></rect>
        <rect fill="#000095" x="0" y="0" width="360" height="240"></rect>
        <g transform="translate(89.600000, 29.600000)" fill="#FFFFFF">
            <path d="M124.64,52.56 L135.44,12.48 L106.08,41.92 C113.04,44.08 119.28,47.76 124.64,52.56 L124.64,52.56 Z"></path>
            <path d="M74.72,41.84 L45.36,12.4 L56.16,52.48 C61.52,47.76 67.76,44.08 74.72,41.84 L74.72,41.84 Z"></path>
            <path d="M90.4,39.36 C94.08,39.36 97.68,39.76 101.12,40.48 L90.4,0.4 L79.68,40.56 C83.12,39.76 86.72,39.36 90.4,39.36 L90.4,39.36 Z"></path>
            <path d="M138.96,74.72 L168.4,45.36 L128.32,56.16 C133.04,61.52 136.72,67.76 138.96,74.72 L138.96,74.72 Z"></path>
            <path d="M180.4,90.4 L140.24,79.68 C140.96,83.12 141.36,86.72 141.36,90.4 C141.36,94.08 140.96,97.68 140.24,101.12 L180.4,90.4 L180.4,90.4 Z"></path>
            <ellipse cx="90.4" cy="90.4" rx="44.96" ry="44.96"></ellipse>
            <path d="M52.56,56.16 L12.48,45.44 L41.92,74.8 C44.08,67.76 47.76,61.52 52.56,56.16 L52.56,56.16 Z"></path>
            <path d="M106.08,138.96 L135.44,168.4 L124.64,128.32 C119.28,133.04 113.04,136.72 106.08,138.96 L106.08,138.96 Z"></path>
            <path d="M90.4,141.44 C86.72,141.44 83.12,141.04 79.68,140.32 L90.4,180.48 L101.12,140.32 C97.68,141.04 94.08,141.44 90.4,141.44 L90.4,141.44 Z"></path>
            <path d="M128.24,124.64 L168.32,135.44 L138.88,106.08 C136.72,113.04 133.04,119.28 128.24,124.64 L128.24,124.64 Z"></path>
            <path d="M39.36,90.4 C39.36,86.72 39.76,83.12 40.48,79.68 L0.4,90.4 L40.56,101.12 C39.76,97.68 39.36,94.08 39.36,90.4 L39.36,90.4 Z"></path>
            <path d="M56.16,128.24 L45.36,168.32 L74.72,138.88 C67.76,136.72 61.52,133.04 56.16,128.24 L56.16,128.24 Z"></path>
            <path d="M41.84,106.08 L12.4,135.44 L52.48,124.64 C47.76,119.28 44.08,113.04 41.84,106.08 L41.84,106.08 Z"></path>
        </g>
    </g>
</svg>
