<?xml version="1.0" encoding="UTF-8" standalone="no"?>
<svg width="640px" height="480px" viewBox="0 0 640 480" version="1.1" xmlns="http://www.w3.org/2000/svg" xmlns:xlink="http://www.w3.org/1999/xlink">
    <g stroke="none" stroke-width="1" fill="none" fill-rule="evenodd">
        <rect fill="#B22234" x="0" y="0" width="640" height="480"></rect>
        <path d="M0,73.8461538 L640,73.8461538 L640,36.9230769 L0,36.9230769 L0,73.8461538 L0,73.8461538 L0,73.8461538 Z M640,110.769231 L0,110.769231 L0,147.692308 L640,147.692308 L640,110.769231 L640,110.769231 L640,110.769231 Z M0,221.538462 L640,221.538462 L640,184.615385 L0,184.615385 L0,221.538462 L0,221.538462 L0,221.538462 Z M640,258.461538 L0,258.461538 L0,295.384615 L640,295.384615 L640,258.461538 L640,258.461538 L640,258.461538 Z M0,369.230769 L640,369.230769 L640,332.307692 L0,332.307692 L0,369.230769 L0,369.230769 L0,369.230769 Z M640,406.153846 L0,406.153846 L0,443.076923 L640,443.076923 L640,406.153846 L640,406.153846 L640,406.153846 Z" fill="#FFFFFF"></path>
        <rect fill="#3C3B6E" x="0" y="0" width="364.8" height="258.461538"></rect>
        <g transform="translate(16.246154, 11.076923)" fill="#FFFFFF">
            <path d="M14.1743836,0.00527472527 L10.856454,10.215673 L0.118628764,10.215673 L8.80584047,16.5258764 L5.4871719,26.7355358 L14.1743836,20.4253324 L22.8615953,26.7355358 L19.5429267,16.5258764 L28.2301384,10.215673 L17.4923132,10.215673 L14.1743836,0.00527472527 Z"></path>
            <path d="M14.1743836,51.7221978 L10.856454,61.932596 L0.118628764,61.932596 L8.80584047,68.2427995 L5.4871719,78.4524589 L14.1743836,72.1422555 L22.8615953,78.4524589 L19.5429267,68.2427995 L28.2301384,61.932596 L17.4923132,61.932596 L14.1743836,51.7221978 Z"></path>
            <path d="M14.1743836,103.439121 L10.856454,113.649519 L0.118628764,113.649519 L8.80584047,119.959723 L5.4871719,130.169382 L14.1743836,123.859179 L22.8615953,130.169382 L19.5429267,119.959723 L28.2301384,113.649519 L17.4923132,113.649519 L14.1743836,103.439121 Z"></path>
            <path d="M14.1743836,155.156044 L10.856454,165.366442 L0.118628764,165.366442 L8.80584047,171.676646 L5.4871719,181.886305 L14.1743836,175.576102 L22.8615953,181.886305 L19.5429267,171.676646 L28.2301384,165.366442 L17.4923132,165.366442 L14.1743836,155.156044 Z"></path>
            <path d="M17.492461,217.08307 L14.1745314,206.872672 L10.8558628,217.08307 L0.118776556,217.08307 L8.80524931,223.393273 L5.48731969,233.603671 L14.1745314,227.293468 L22.8610041,233.603671 L19.5430745,223.393273 L28.2302862,217.08307 L17.492461,217.08307 Z"></path>
            <path d="M44.5948472,25.8637363 L41.2769175,36.0741345 L30.5390923,36.0741345 L39.226304,42.3843379 L35.9076355,52.5939974 L44.5948472,46.2837939 L53.2820589,52.5939974 L49.9633903,42.3843379 L58.650602,36.0741345 L47.9127768,36.0741345 L44.5948472,25.8637363 Z"></path>
            <path d="M44.5948472,77.5806593 L41.2769175,87.7910576 L30.5390923,87.7910576 L39.226304,94.101261 L35.9076355,104.31092 L44.5948472,98.000717 L53.2820589,104.31092 L49.9633903,94.101261 L58.650602,87.7910576 L47.9127768,87.7910576 L44.5948472,77.5806593 Z"></path>
            <path d="M44.5948472,129.297582 L41.2769175,139.507981 L30.5390923,139.507981 L39.226304,145.818184 L35.9076355,156.027844 L44.5948472,149.71764 L53.2820589,156.027844 L49.9633903,145.818184 L58.650602,139.507981 L47.9127768,139.507981 L44.5948472,129.297582 Z"></path>
            <path d="M47.9129985,191.224608 L44.5950689,181.01421 L41.2764003,191.224608 L30.539314,191.224608 L39.2257868,197.534812 L35.9078571,207.74521 L44.5950689,201.435006 L53.2815416,207.74521 L49.963612,197.534812 L58.6508237,191.224608 L47.9129985,191.224608 Z"></path>
            <path d="M75.0153846,0.00527472527 L71.697455,10.215673 L60.9596298,10.215673 L69.6468415,16.5258764 L66.3281729,26.7355358 L75.0153846,20.4253324 L83.7025963,26.7355358 L80.3839277,16.5258764 L89.0711395,10.215673 L78.3333142,10.215673 L75.0153846,0.00527472527 Z"></path>
            <path d="M75.0153846,51.7221978 L71.697455,61.932596 L60.9596298,61.932596 L69.6468415,68.2427995 L66.3281729,78.4524589 L75.0153846,72.1422555 L83.7025963,78.4524589 L80.3839277,68.2427995 L89.0711395,61.932596 L78.3333142,61.932596 L75.0153846,51.7221978 Z"></path>
            <path d="M75.0153846,103.439121 L71.697455,113.649519 L60.9596298,113.649519 L69.6468415,119.959723 L66.3281729,130.169382 L75.0153846,123.859179 L83.7025963,130.169382 L80.3839277,119.959723 L89.0711395,113.649519 L78.3333142,113.649519 L75.0153846,103.439121 Z"></path>
            <path d="M75.0153846,155.156044 L71.697455,165.366442 L60.9596298,165.366442 L69.6468415,171.676646 L66.3281729,181.886305 L75.0153846,175.576102 L83.7025963,181.886305 L80.3839277,171.676646 L89.0711395,165.366442 L78.3333142,165.366442 L75.0153846,155.156044 Z"></path>
            <path d="M78.3335359,217.08307 L75.0156063,206.872672 L71.6969377,217.08307 L60.9598515,217.08307 L69.6463242,223.393273 L66.3283946,233.603671 L75.0156063,227.293468 L83.7020791,233.603671 L80.3841494,223.393273 L89.0713611,217.08307 L78.3335359,217.08307 Z"></path>
            <path d="M105.435922,25.8637363 L102.117992,36.0741345 L91.3801672,36.0741345 L100.067379,42.3843379 L96.7487104,52.5939974 L105.435922,46.2837939 L114.123134,52.5939974 L110.804465,42.3843379 L119.491677,36.0741345 L108.753852,36.0741345 L105.435922,25.8637363 Z"></path>
            <path d="M105.435922,77.5806593 L102.117992,87.7910576 L91.3801672,87.7910576 L100.067379,94.101261 L96.7487104,104.31092 L105.435922,98.000717 L114.123134,104.31092 L110.804465,94.101261 L119.491677,87.7910576 L108.753852,87.7910576 L105.435922,77.5806593 Z"></path>
            <path d="M105.435922,129.297582 L102.117992,139.507981 L91.3801672,139.507981 L100.067379,145.818184 L96.7487104,156.027844 L105.435922,149.71764 L114.123134,156.027844 L110.804465,145.818184 L119.491677,139.507981 L108.753852,139.507981 L105.435922,129.297582 Z"></path>
            <path d="M108.753999,191.224608 L105.43607,181.01421 L102.117401,191.224608 L91.380315,191.224608 L100.066788,197.534812 L96.7488582,207.74521 L105.43607,201.435006 L114.122543,207.74521 L110.804613,197.534812 L119.491825,191.224608 L108.753999,191.224608 Z"></path>
            <path d="M135.856386,0.00527472527 L132.538456,10.215673 L121.800631,10.215673 L130.487842,16.5258764 L127.169174,26.7355358 L135.856386,20.4253324 L144.543597,26.7355358 L141.224929,16.5258764 L149.91214,10.215673 L139.174315,10.215673 L135.856386,0.00527472527 Z"></path>
            <path d="M135.856386,51.7221978 L132.538456,61.932596 L121.800631,61.932596 L130.487842,68.2427995 L127.169174,78.4524589 L135.856386,72.1422555 L144.543597,78.4524589 L141.224929,68.2427995 L149.91214,61.932596 L139.174315,61.932596 L135.856386,51.7221978 Z"></path>
            <path d="M135.856386,103.439121 L132.538456,113.649519 L121.800631,113.649519 L130.487842,119.959723 L127.169174,130.169382 L135.856386,123.859179 L144.543597,130.169382 L141.224929,119.959723 L149.91214,113.649519 L139.174315,113.649519 L135.856386,103.439121 Z"></path>
            <path d="M135.856386,155.156044 L132.538456,165.366442 L121.800631,165.366442 L130.487842,171.676646 L127.169174,181.886305 L135.856386,175.576102 L144.543597,181.886305 L141.224929,171.676646 L149.91214,165.366442 L139.174315,165.366442 L135.856386,155.156044 Z"></path>
            <path d="M139.174537,217.08307 L135.856607,206.872672 L132.537939,217.08307 L121.800852,217.08307 L130.487325,223.393273 L127.169396,233.603671 L135.856607,227.293468 L144.54308,233.603671 L141.22515,223.393273 L149.912362,217.08307 L139.174537,217.08307 Z"></path>
            <path d="M166.276923,25.8637363 L162.958993,36.0741345 L152.221168,36.0741345 L160.90838,42.3843379 L157.589711,52.5939974 L166.276923,46.2837939 L174.964135,52.5939974 L171.645466,42.3843379 L180.332678,36.0741345 L169.594853,36.0741345 L166.276923,25.8637363 Z"></path>
            <path d="M166.276923,77.5806593 L162.958993,87.7910576 L152.221168,87.7910576 L160.90838,94.101261 L157.589711,104.31092 L166.276923,98.000717 L174.964135,104.31092 L171.645466,94.101261 L180.332678,87.7910576 L169.594853,87.7910576 L166.276923,77.5806593 Z"></path>
            <path d="M166.276923,129.297582 L162.958993,139.507981 L152.221168,139.507981 L160.90838,145.818184 L157.589711,156.027844 L166.276923,149.71764 L174.964135,156.027844 L171.645466,145.818184 L180.332678,139.507981 L169.594853,139.507981 L166.276923,129.297582 Z"></path>
            <path d="M169.595074,191.224608 L166.277145,181.01421 L162.958476,191.224608 L152.22139,191.224608 L160.907863,197.534812 L157.589933,207.74521 L166.277145,201.435006 L174.963618,207.74521 L171.645688,197.534812 L180.3329,191.224608 L169.595074,191.224608 Z"></path>
            <path d="M196.697461,0.00527472527 L193.379531,10.215673 L182.641706,10.215673 L191.328917,16.5258764 L188.010249,26.7355358 L196.697461,20.4253324 L205.384672,26.7355358 L202.066004,16.5258764 L210.753215,10.215673 L200.01539,10.215673 L196.697461,0.00527472527 Z"></path>
            <path d="M196.697461,51.7221978 L193.379531,61.932596 L182.641706,61.932596 L191.328917,68.2427995 L188.010249,78.4524589 L196.697461,72.1422555 L205.384672,78.4524589 L202.066004,68.2427995 L210.753215,61.932596 L200.01539,61.932596 L196.697461,51.7221978 Z"></path>
            <path d="M196.697461,103.439121 L193.379531,113.649519 L182.641706,113.649519 L191.328917,119.959723 L188.010249,130.169382 L196.697461,123.859179 L205.384672,130.169382 L202.066004,119.959723 L210.753215,113.649519 L200.01539,113.649519 L196.697461,103.439121 Z"></path>
            <path d="M196.697461,155.156044 L193.379531,165.366442 L182.641706,165.366442 L191.328917,171.676646 L188.010249,181.886305 L196.697461,175.576102 L205.384672,181.886305 L202.066004,171.676646 L210.753215,165.366442 L200.01539,165.366442 L196.697461,155.156044 Z"></path>
            <path d="M200.015538,217.08307 L196.697608,206.872672 L193.37894,217.08307 L182.641853,217.08307 L191.328326,223.393273 L188.010397,233.603671 L196.697608,227.293468 L205.384081,233.603671 L202.066151,223.393273 L210.753363,217.08307 L200.015538,217.08307 Z"></path>
            <path d="M227.117924,25.8637363 L223.799994,36.0741345 L213.062169,36.0741345 L221.749381,42.3843379 L218.430712,52.5939974 L227.117924,46.2837939 L235.805136,52.5939974 L232.486467,42.3843379 L241.173679,36.0741345 L230.435854,36.0741345 L227.117924,25.8637363 Z"></path>
            <path d="M227.117924,77.5806593 L223.799994,87.7910576 L213.062169,87.7910576 L221.749381,94.101261 L218.430712,104.31092 L227.117924,98.000717 L235.805136,104.31092 L232.486467,94.101261 L241.173679,87.7910576 L230.435854,87.7910576 L227.117924,77.5806593 Z"></path>
            <path d="M227.117924,129.297582 L223.799994,139.507981 L213.062169,139.507981 L221.749381,145.818184 L218.430712,156.027844 L227.117924,149.71764 L235.805136,156.027844 L232.486467,145.818184 L241.173679,139.507981 L230.435854,139.507981 L227.117924,129.297582 Z"></path>
            <path d="M230.436075,191.224608 L227.118146,181.01421 L223.799477,191.224608 L213.062391,191.224608 L221.748864,197.534812 L218.430934,207.74521 L227.118146,201.435006 L235.804619,207.74521 L232.486689,197.534812 L241.173901,191.224608 L230.436075,191.224608 Z"></path>
            <path d="M257.538462,0.00527472527 L254.220532,10.215673 L243.482707,10.215673 L252.169918,16.5258764 L248.85125,26.7355358 L257.538462,20.4253324 L266.225673,26.7355358 L262.907005,16.5258764 L271.594216,10.215673 L260.856391,10.215673 L257.538462,0.00527472527 Z"></path>
            <path d="M257.538462,51.7221978 L254.220532,61.932596 L243.482707,61.932596 L252.169918,68.2427995 L248.85125,78.4524589 L257.538462,72.1422555 L266.225673,78.4524589 L262.907005,68.2427995 L271.594216,61.932596 L260.856391,61.932596 L257.538462,51.7221978 Z"></path>
            <path d="M257.538462,103.439121 L254.220532,113.649519 L243.482707,113.649519 L252.169918,119.959723 L248.85125,130.169382 L257.538462,123.859179 L266.225673,130.169382 L262.907005,119.959723 L271.594216,113.649519 L260.856391,113.649519 L257.538462,103.439121 Z"></path>
            <path d="M257.538462,155.156044 L254.220532,165.366442 L243.482707,165.366442 L252.169918,171.676646 L248.85125,181.886305 L257.538462,175.576102 L266.225673,181.886305 L262.907005,171.676646 L271.594216,165.366442 L260.856391,165.366442 L257.538462,155.156044 Z"></path>
            <path d="M260.856613,217.08307 L257.538683,206.872672 L254.220015,217.08307 L243.482928,217.08307 L252.169401,223.393273 L248.851472,233.603671 L257.538683,227.293468 L266.225156,233.603671 L262.907226,223.393273 L271.594438,217.08307 L260.856613,217.08307 Z"></path>
            <path d="M287.958999,25.8637363 L284.641069,36.0741345 L273.903244,36.0741345 L282.590456,42.3843379 L279.271787,52.5939974 L287.958999,46.2837939 L296.646211,52.5939974 L293.327542,42.3843379 L302.014754,36.0741345 L291.276929,36.0741345 L287.958999,25.8637363 Z"></path>
            <path d="M287.958999,77.5806593 L284.641069,87.7910576 L273.903244,87.7910576 L282.590456,94.101261 L279.271787,104.31092 L287.958999,98.000717 L296.646211,104.31092 L293.327542,94.101261 L302.014754,87.7910576 L291.276929,87.7910576 L287.958999,77.5806593 Z"></path>
            <path d="M287.958999,129.297582 L284.641069,139.507981 L273.903244,139.507981 L282.590456,145.818184 L279.271787,156.027844 L287.958999,149.71764 L296.646211,156.027844 L293.327542,145.818184 L302.014754,139.507981 L291.276929,139.507981 L287.958999,129.297582 Z"></path>
            <path d="M291.277076,191.224608 L287.959147,181.01421 L284.640478,191.224608 L273.903392,191.224608 L282.589865,197.534812 L279.271935,207.74521 L287.959147,201.435006 L296.64562,207.74521 L293.32769,197.534812 L302.014902,191.224608 L291.277076,191.224608 Z"></path>
            <path d="M313.010624,16.5256548 L309.692694,26.736053 L318.379167,20.4258496 L327.066379,26.736053 L323.748449,16.5256548 L332.435661,10.2154513 L321.697836,10.2154513 L318.379167,0.00505308132 L315.061237,10.2154513 L304.323412,10.2154513 L313.010624,16.5256548 Z"></path>
            <path d="M318.379536,51.7221978 L315.061607,61.932596 L304.323782,61.932596 L313.010993,68.2427995 L309.692325,78.4524589 L318.379536,72.1422555 L327.066748,78.4524589 L323.74808,68.2427995 L332.435291,61.932596 L321.697466,61.932596 L318.379536,51.7221978 Z"></path>
            <path d="M318.379536,103.439121 L315.061607,113.649519 L304.323782,113.649519 L313.010993,119.959723 L309.692325,130.169382 L318.379536,123.859179 L327.066748,130.169382 L323.74808,119.959723 L332.435291,113.649519 L321.697466,113.649519 L318.379536,103.439121 Z"></path>
            <path d="M318.379536,155.156044 L315.061607,165.366442 L304.323782,165.366442 L313.010993,171.676646 L309.692325,181.886305 L318.379536,175.576102 L327.066748,181.886305 L323.74808,171.676646 L332.435291,165.366442 L321.697466,165.366442 L318.379536,155.156044 Z"></path>
            <path d="M321.697614,217.08307 L318.379684,206.872672 L315.061016,217.08307 L304.323929,217.08307 L313.010402,223.393273 L309.692473,233.603671 L318.379684,227.293468 L327.066157,233.603671 L323.748227,223.393273 L332.435439,217.08307 L321.697614,217.08307 Z"></path>
        </g>
    </g>
</svg>
