<?xml version="1.0" encoding="UTF-8" standalone="no"?>
<svg width="640px" height="480px" viewBox="0 0 640 480" version="1.1" xmlns="http://www.w3.org/2000/svg" xmlns:xlink="http://www.w3.org/1999/xlink">
    <g stroke="none" stroke-width="1" fill="none" fill-rule="evenodd">
        <rect fill="#FFFFFF" x="0" y="0" width="640" height="480"></rect>
        <g transform="translate(0.000000, 53.333333)" fill="#0038A8">
            <rect x="266.666667" y="-1.84741111e-13" width="373.333333" height="53.3333333"></rect>
            <rect x="266.666667" y="106.666667" width="373.333333" height="53.3333333"></rect>
            <rect x="0" y="213.333333" width="640" height="53.3333333"></rect>
            <rect x="0" y="320" width="640" height="53.3333333"></rect>
        </g>
        <path d="M124.802385,169.014309 L136.764444,186.875556 C87.6132249,222.445203 117.619729,243.478266 82.7893767,254.864715 C104.452249,233.722168 79.3779946,231.940054 97.6305691,187.875014" fill="#FCD116"></path>
        <path d="M81.5611924,255.60748 L82.5617344,254.63187 C93.2750136,244.176585 92.4359892,238.541897 91.1666125,230.013984 C89.9015718,221.511003 88.1693225,209.866558 97.3292141,187.750569 L97.4538753,187.450298 L98.0555014,187.698537 L97.9308401,187.998808 C88.8392412,209.948943 90.5563144,221.490407 91.8105149,229.917507 C93.0679675,238.371707 93.9124119,244.04542 84.0099729,254.107209 C99.0755556,248.822656 100.987751,241.589051 103.606721,231.682276 C105.126504,225.930515 106.850081,219.41019 111.466883,211.917507 C116.76878,203.313713 124.898862,195.094743 136.318916,186.795556 L124.351436,168.924553 L124.892358,168.563577 L137.207805,186.954905 L136.954146,187.139187 C111.108076,205.843794 107.297778,220.263306 104.235447,231.849214 C101.489648,242.23729 99.5059079,249.741897 82.8901897,255.173875 L81.5611924,255.60748 Z" fill="#000000"></path>
        <path d="M82.9289973,255.157507 L82.6482385,254.571057 C94.8303523,248.757507 96.1756098,239.69084 98.2113821,225.967263 C100.100813,213.239892 102.687263,195.807913 115.973984,173.907642 L116.530081,174.245854 C103.311653,196.033388 100.840108,212.683794 98.8552846,226.062656 C96.7880759,239.992195 95.4222222,249.195447 82.9289973,255.157507" fill="#000000"></path>
        <path d="M132.983631,133.68336 L156.83187,133.68336 L132.983631,264.848672 L109.135393,133.68336 L132.983631,133.68336 L132.983631,264.848672" fill="#FCD116"></path>
        <path d="M109.52477,134.008238 L132.658645,261.241843 L132.658645,134.008238 L109.52477,134.008238 Z M133.307967,134.008238 L133.307967,261.241843 L156.441843,134.008238 L133.307967,134.008238 Z M132.983848,266.666233 L108.745366,133.357832 L157.221247,133.357832 L157.15187,133.741572 L132.983848,266.666233 Z" fill="#000000"></path>
        <path d="M102.215935,152.881084 L98.0446612,173.969431 C38.1378862,164.365095 44.4826016,200.457236 11.8029268,183.878374 C42.0706775,184.246938 25.6002168,165.256152 69.6663415,147.003577" fill="#FCD116"></path>
        <path d="M27.0531165,188.649648 C22.8764228,188.649648 18.00271,187.387859 11.6558266,184.168347 L10.4092141,183.535285 L11.8065041,183.552629 C26.795122,183.710894 30.1653117,179.158049 35.299187,172.23122 C40.4168022,165.323902 47.4249322,155.86374 69.5420054,146.702764 L69.8422764,146.578103 L70.0915989,147.179729 L69.7902439,147.30439 C47.8411924,156.395989 40.8937669,165.771599 35.8216802,172.617127 C30.7344173,179.484336 27.3186992,184.094634 13.201626,184.206287 C27.5907859,191.122276 34.0590786,187.360759 42.9143631,182.206287 C53.3273713,176.145583 66.2758808,168.609539 97.7859079,173.598157 L101.960434,152.49897 L102.597832,152.625799 L98.302981,174.339621 L97.9929539,174.289756 C66.4915989,169.23935 53.599458,176.740705 43.2417344,182.768889 C37.7360434,185.972141 33.1355014,188.649648 27.0531165,188.649648" fill="#000000"></path>
        <path d="M20.5745257,185.857561 C17.8644986,185.857561 14.9539295,185.33832 11.6943089,184.184932 L11.9111111,183.571382 C24.6363144,188.073279 31.997832,182.614201 43.1414634,174.350786 C53.4775068,166.685745 67.6325203,156.189268 92.5127371,150.099295 L92.6666667,150.731274 C67.9143631,156.78981 54.3934959,166.816911 43.5295393,174.873279 C35.0428184,181.165962 28.7165312,185.857561 20.5745257,185.857561" fill="#000000"></path>
        <path d="M132.983631,133.68336 L149.846504,150.546233 L40.235664,226.431328 L116.120759,116.820488 L132.983631,133.68336 L40.235664,226.431328" fill="#FCD116"></path>
        <path d="M116.165962,117.325637 L42.556206,223.65084 L132.523686,133.68336 L116.165962,117.325637 Z M132.983306,134.142981 L43.0169106,224.110461 L149.34103,150.500705 L132.983306,134.142981 Z M38.9507859,227.716965 L116.074905,116.314255 L150.352412,150.591762 L38.9507859,227.716965 Z" fill="#000000"></path>
        <path d="M97.6527913,125.502114 L79.7915447,137.463089 C44.221897,88.3129539 23.1888347,118.319458 11.8023848,83.4891057 C32.9449322,105.151978 34.7270461,80.0777236 78.7920867,98.3302981" fill="#FCD116"></path>
        <path d="M79.7124119,137.908076 L79.5281301,137.654417 C60.823523,111.807263 46.4040108,107.996965 34.818103,104.934634 C24.4300271,102.189919 16.9254201,100.206179 11.4934417,83.5893767 L11.0598374,82.2614634 L12.0354472,83.2609214 C22.4907317,93.9742005 28.1254201,93.1373442 36.6533333,91.8668835 C45.1563144,90.6018428 56.8007588,88.8695935 78.916748,98.0294851 L79.217019,98.1541463 L78.9687805,98.7546883 L78.6685095,98.6311111 C56.718374,89.5395122 45.1769106,91.2565854 36.7487263,92.5107859 C28.2956098,93.7682385 22.620813,94.6126829 12.5601084,84.7091599 C17.8446612,99.7747425 25.0782656,101.688022 34.9850407,104.305908 C40.7368022,105.826775 47.2571274,107.549268 54.7498103,112.16607 C63.3536043,117.467967 71.5725745,125.599133 79.8706775,137.019187 L97.7416802,125.051707 L98.1037398,125.591545 L79.7124119,137.908076 Z" fill="#000000"></path>
        <path d="M92.4209214,117.22981 C70.6333875,104.011382 53.984065,101.539837 40.6041192,99.5550136 C26.6745799,97.4878049 17.4713279,96.1219512 11.5092683,83.6287263 L12.0957182,83.3479675 C17.9103523,95.5289973 26.975935,96.8753388 40.6995122,98.9111111 C53.4279675,100.800542 70.8588618,103.386992 92.7591328,116.673713 L92.4209214,117.22981 Z" fill="#000000"></path>
        <path d="M132.983631,133.68336 L132.983631,157.531599 L1.81831978,133.68336 L132.983631,109.835122 L132.983631,133.68336 L1.81831978,133.68336" fill="#FCD116"></path>
        <path d="M5.42482385,133.358157 L132.658428,133.358157 L132.658428,110.224282 L5.42482385,133.358157 Z M5.42482385,134.008564 L132.658428,157.141355 L132.658428,134.008564 L5.42482385,134.008564 Z M133.308835,157.920759 L132.925095,157.851382 L0.000433604336,133.68336 L133.308835,109.444878 L133.308835,157.920759 Z" fill="#000000"></path>
        <path d="M113.785908,102.915556 L92.697561,98.7442818 C102.301897,38.8375068 66.2097561,45.1822222 82.7886179,12.5025474 C82.4200542,42.7702981 101.41084,26.2998374 119.663415,70.3659621" fill="#FCD116"></path>
        <path d="M114.041843,103.297561 L92.3280217,99.00271 L92.3768022,98.6926829 C97.4272087,67.1891599 89.9258537,54.299187 83.8987534,43.9414634 C78.4949593,34.6547425 74.5892683,27.9457995 82.4982114,12.3555556 L83.1312737,11.1089431 L83.1139295,12.5062331 C82.9318157,27.4742547 87.5085095,30.8661247 94.4364228,35.998916 C101.34374,41.1165312 110.802818,48.1257453 119.963794,70.2417344 L120.088455,70.5420054 L119.486829,70.7913279 L119.362168,70.4899729 C110.270569,48.5409214 100.894959,41.5934959 94.0494309,36.5214092 C87.1822222,31.4330623 82.5730081,28.0184282 82.460271,13.901355 C75.5442818,28.2905149 79.3068835,34.7588076 84.460271,43.6140921 C90.5198916,54.0281843 98.057019,66.9766938 93.0684011,98.4856369 L114.168672,102.660163 L114.041843,103.297561 Z" fill="#000000"></path>
        <path d="M115.93626,93.3668293 C109.877724,68.6134417 99.8506233,55.0925745 91.7942547,44.2286179 C83.4061789,32.9169648 77.8636314,25.444878 82.4826016,12.3944715 L83.0950678,12.6112737 C78.5931707,25.335393 84.0522493,32.6969106 92.316748,43.840542 C99.9807046,54.1765854 110.478266,68.3315989 116.568238,93.2118157 L115.93626,93.3668293 Z" fill="#000000"></path>
        <path d="M132.983631,133.68336 L116.120759,150.546233 L40.235664,40.935393 L149.846504,116.820488 L132.983631,133.68336 L40.235664,40.935393" fill="#FCD116"></path>
        <path d="M43.0163686,43.2561518 L132.983848,133.223631 L149.341572,116.865908 L43.0163686,43.2561518 Z M42.556748,43.7157724 L116.16542,150.040976 L132.523144,133.683252 L42.556748,43.7157724 Z M116.074363,151.052358 L38.9502439,39.6496477 L150.352954,116.774851 L116.074363,151.052358 Z" fill="#000000"></path>
        <path d="M141.164878,98.3524119 L129.203902,80.4911653 C178.354038,44.9215176 148.347534,23.8884553 183.177886,12.5020054 C161.515014,33.6445528 186.589268,35.4266667 168.336694,79.4917073" fill="#FCD116"></path>
        <path d="M141.075447,98.803252 L128.758916,80.4119241 L129.012575,80.2276423 C154.859729,61.5230352 158.670027,47.104607 161.732358,35.5186992 C164.477073,25.1306233 166.460813,17.6249322 183.077615,12.1940379 L184.405528,11.7593496 L183.404986,12.7360434 C172.692791,23.1902439 173.530732,28.8249322 174.800108,37.3528455 C176.065149,45.8558266 177.798482,57.500271 168.637507,79.6162602 L168.51393,79.9176152 L167.912304,79.6682927 L168.036965,79.3680217 C177.128564,57.4178862 175.410407,45.8764228 174.15729,37.4482385 C172.898753,28.995122 172.054309,23.3214092 181.956748,13.2596206 C166.891165,18.5441734 164.97897,25.7777778 162.361084,35.6845528 C160.840217,41.4373984 159.117724,47.9566396 154.499837,55.4493225 C149.199024,64.0531165 141.067859,72.2720867 129.647805,80.5712737 L141.616369,98.4422764 L141.075447,98.803252 Z" fill="#000000"></path>
        <path d="M149.993171,93.4583198 L149.437073,93.1201084 C162.656585,71.3325745 165.127046,54.682168 167.11187,41.3033062 C169.179079,27.3737669 170.544932,18.1715989 183.038157,12.2095393 L183.318916,12.7959892 C171.137886,18.6095393 169.792629,27.675122 167.755772,41.3986992 C165.867425,54.1271545 163.280976,71.5580488 149.993171,93.4583198" fill="#000000"></path>
        <path d="M132.983631,133.68336 L109.135393,133.68336 L132.983631,2.51804878 L156.83187,133.68336 L132.983631,133.68336 L132.983631,2.51804878" fill="#FCD116"></path>
        <path d="M109.52477,133.358157 L132.658645,133.358157 L132.658645,6.12455285 L109.52477,133.358157 Z M133.307967,133.358157 L156.441843,133.358157 L133.307967,6.12455285 L133.307967,133.358157 Z M157.221247,134.008564 L108.745366,134.008564 L108.814743,133.624824 L132.983848,0.700162602 L157.221247,134.008564 Z" fill="#000000"></path>
        <path d="M163.751436,114.485637 L167.92271,93.39729 C227.829485,103.001626 221.48477,66.9094851 254.164444,83.4883469 C223.896694,83.1197832 240.367154,102.110569 196.30103,120.363144" fill="#FCD116"></path>
        <path d="M196.124986,120.787859 L195.876748,120.186233 L196.177019,120.062656 C218.12607,110.969973 225.073496,101.594363 230.145583,94.7488347 C235.23393,87.88271 238.651816,83.2734959 252.765637,83.1596748 C238.377561,76.2447696 231.908184,80.0062873 223.0529,85.1607588 C212.638808,91.2214634 199.689214,98.7575068 168.181355,93.7688889 L164.006829,114.868076 L163.369431,114.741247 L167.665366,93.0274255 L167.974309,93.07729 C199.48,98.1276965 212.367805,90.6252575 222.725528,84.5981572 C232.011165,79.1943631 238.722276,75.2908401 254.311436,83.1986992 L255.558049,83.8306775 L254.160759,83.8133333 C239.162385,83.6463957 235.801951,88.2079133 230.668076,95.1358266 C225.551545,102.043144 218.542331,111.502222 196.425257,120.663198 L196.124986,120.787859 Z" fill="#000000"></path>
        <path d="M173.454417,117.267967 L173.299404,116.635989 C198.052791,110.577453 211.574743,100.550352 222.438699,92.4939837 C233.749268,84.1059079 241.220271,78.5622764 254.272846,83.1823306 L254.056043,83.7947967 C241.33084,79.2918157 233.970407,84.7508943 222.825691,93.016477 C212.490732,100.680434 198.335718,111.177995 173.454417,117.267967" fill="#000000"></path>
        <path d="M132.983631,133.68336 L116.120759,116.820488 L225.731599,40.935393 L149.846504,150.546233 L132.983631,133.68336 L225.731599,40.935393" fill="#FCD116"></path>
        <path d="M116.625908,116.865691 L132.983631,133.223415 L222.951111,43.255935 L116.625908,116.865691 Z M133.443252,133.683035 L149.800976,150.040759 L223.410732,43.7166396 L133.443252,133.683035 Z M149.892033,151.052141 L115.614526,116.774634 L227.017236,39.6505149 L149.892033,151.052141 Z" fill="#000000"></path>
        <path d="M168.31458,141.864607 L186.175827,129.902547 C221.745474,179.053767 242.778537,149.047263 254.164986,183.877615 C233.022439,162.214743 231.240325,187.288997 187.175285,169.036423" fill="#FCD116"></path>
        <path d="M254.907642,185.105474 L253.932033,184.104932 C243.477832,173.391653 237.843144,174.231762 229.314146,175.500054 C220.811165,176.765095 209.167805,178.498428 187.050732,169.337453 L186.750461,169.212791 L186.998699,168.612249 L187.29897,168.735827 C209.248022,177.827425 220.790569,176.111436 229.217669,174.856152 C237.670786,173.596531 243.345583,172.753171 253.407371,182.656694 C248.122818,167.591111 240.889214,165.678916 230.982439,163.06103 C225.230678,161.540163 218.710352,159.816585 211.217669,155.199783 C202.613875,149.89897 194.394905,141.767805 186.095718,130.347751 L168.224715,142.31523 L167.86374,141.775393 L186.255068,129.458862 L186.43935,129.71252 C205.143957,155.559675 219.563469,159.369973 231.149377,162.43122 C241.537453,165.177019 249.04206,167.160759 254.474038,183.776477 L254.907642,185.105474 Z" fill="#000000"></path>
        <path d="M253.871328,184.018211 C248.057778,171.837182 238.991111,170.491924 225.267534,168.455068 C212.540163,166.566721 195.108184,163.980271 173.207913,150.692466 L173.546125,150.137453 C195.333659,163.355881 211.984065,165.826341 225.362927,167.812249 C239.292466,169.879458 248.495718,171.244228 254.457778,183.737453 L253.871328,184.018211 Z" fill="#000000"></path>
        <path d="M132.983631,133.68336 L132.983631,109.835122 L264.148943,133.68336 L132.983631,157.531599 L132.983631,133.68336 L264.148943,133.68336" fill="#FCD116"></path>
        <path d="M133.308509,133.358157 L260.542114,133.358157 L133.308509,110.224282 L133.308509,133.358157 Z M133.308509,134.008564 L133.308509,157.141355 L260.542114,134.008564 L133.308509,134.008564 Z M132.658103,157.920759 L132.658103,109.444878 L133.041843,109.514255 L265.966504,133.68336 L132.658103,157.920759 Z" fill="#000000"></path>
        <path d="M152.181355,164.451165 L173.269702,168.622439 C163.665366,228.529214 199.757507,222.184499 183.178645,254.864173 C183.547209,224.596423 164.556423,241.066883 146.303848,197.000759" fill="#FCD116"></path>
        <path d="M182.835772,256.257886 L182.853117,254.859512 C183.036314,239.892575 178.458537,236.500705 171.530623,231.367913 C164.62439,226.250298 155.164228,219.242168 146.003252,197.125095 L145.878591,196.824824 L146.480217,196.575501 L146.604878,196.876856 C155.696477,218.825908 165.072087,225.773333 171.917615,230.84542 C178.784824,235.932683 183.395122,239.348401 183.506775,253.465474 C190.422764,239.076314 186.660163,232.608022 181.506775,223.752737 C175.447154,213.338645 167.908943,200.390136 172.898645,168.881192 L151.799458,164.706667 L151.925203,164.069268 L173.640108,168.364119 L173.590244,168.674146 C168.539837,200.177669 176.041192,213.067642 182.068293,223.425366 C187.472087,232.712087 191.376694,239.42103 183.467751,255.011274 L182.835772,256.257886 Z" fill="#000000"></path>
        <path d="M183.484661,254.972791 L182.872195,254.755989 C187.374092,242.03187 181.915014,234.670352 173.650515,223.525637 C165.986558,213.189593 155.488997,199.03458 149.399024,174.154363 L150.031003,173.99935 C156.090623,198.752737 166.11664,212.273604 174.173008,223.137561 C182.561084,234.449214 188.102547,241.922385 183.484661,254.972791" fill="#000000"></path>
        <path d="M132.983631,133.68336 L149.846504,116.820488 L225.731599,226.431328 L116.120759,150.546233 L132.983631,133.68336 L225.731599,226.431328" fill="#FCD116"></path>
        <path d="M133.443469,133.683252 L223.410949,223.650732 L149.801192,117.325528 L133.443469,133.683252 Z M116.626125,150.50168 L222.951328,224.110352 L132.983848,134.142873 L116.626125,150.50168 Z M227.017453,227.716856 L115.614743,150.592737 L149.892249,116.31523 L227.017453,227.716856 Z" fill="#000000"></path>
        <path d="M132.983631,89.961626 C157.129973,89.961626 176.705041,109.536694 176.705041,133.683035 C176.705041,157.830461 157.129973,177.405528 132.983631,177.405528 C108.83729,177.405528 89.2622222,157.830461 89.2622222,133.683035 C89.2622222,109.536694 108.83729,89.961626 132.983631,89.961626" fill="#FCD116"></path>
        <path d="M132.983415,90.2868293 C109.054959,90.2868293 89.5872087,109.75458 89.5872087,133.683035 C89.5872087,157.612575 109.054959,177.080325 132.983415,177.080325 C156.912954,177.080325 176.380705,157.612575 176.380705,133.683035 C176.380705,109.75458 156.912954,90.2868293 132.983415,90.2868293 M132.983415,177.730732 C108.696152,177.730732 88.9368022,157.970298 88.9368022,133.683035 C88.9368022,109.395772 108.696152,89.6364228 132.983415,89.6364228 C157.270678,89.6364228 177.030027,109.395772 177.030027,133.683035 C177.030027,157.970298 157.270678,177.730732 132.983415,177.730732" fill="#000000"></path>
        <path d="M153.652141,119.771924 C156.434797,122.156748 154.049973,127.324228 151.267317,127.324228 C148.484661,127.324228 143.318266,122.55458 145.703089,119.374092 M165.178428,116.194688 C162.396856,119.374092 160.806612,113.809864 150.869485,113.809864 C140.933442,113.809864 139.343198,119.771924 137.752954,118.579512 C136.163794,117.3871 146.099837,110.232629 149.280325,109.834797 C152.459729,109.438049 161.601192,112.617453 165.178428,116.194688" fill="#000000"></path>
        <path d="M141.728022,124.541572 C143.318266,122.156748 145.305257,126.926396 149.677073,126.926396 C154.049973,126.926396 156.434797,125.733984 159.216369,123.746992 C161.999024,121.758916 155.242385,128.51664 150.869485,128.51664 C146.497669,128.51664 140.53561,126.131816 141.728022,124.541572 M140.53561,123.34916 C140.933442,118.579512 144.907425,117.784932 151.267317,117.784932 C157.627209,117.784932 160.40878,122.55458 162.793604,123.746992 C160.012033,123.746992 157.627209,119.771924 151.267317,119.771924 C144.907425,119.771924 144.907425,119.771924 140.53561,123.746992" fill="#000000"></path>
        <path d="M132.983631,145.60748 C135.766287,145.60748 136.560867,143.620488 139.740271,143.620488 C142.920759,143.620488 147.292575,144.8129 149.279566,146.40206 C149.677398,146.799892 148.087154,143.222656 144.907751,142.824824 C141.728347,142.428076 142.920759,137.260596 139.343523,136.466016 C139.343523,138.055176 140.535935,137.658428 140.932683,140.043252 C140.932683,142.030244 137.355447,142.030244 136.560867,140.043252 C137.355447,143.222656 134.970623,143.222656 132.983631,143.222656 M132.983631,160.314255 C142.920759,160.314255 141.330515,158.326179 154.447046,152.761951 C144.907751,153.954363 142.920759,157.133767 132.983631,157.133767 L130.99664,157.133767 M156.03729,156.339187 C154.447046,153.556531 154.844878,154.352195 151.66439,149.979295 C154.844878,152.364119 155.639458,153.556531 156.03729,156.339187 M132.983631,150.774959 C135.368455,150.774959 136.163035,149.979295 139.343523,149.979295 C142.522927,149.979295 150.07523,154.352195 154.447046,152.761951 C145.305583,156.339187 148.882818,153.954363 132.983631,153.954363 L130.99664,153.954363 M155.241626,126.926721 C160.409106,124.144065 157.229702,120.168997 155.241626,119.374417 C156.03729,120.168997 159.216694,124.144065 155.241626,126.926721" fill="#000000"></path>
        <path d="M112.31523,119.771924 C109.532575,122.156748 111.917398,127.324228 114.700054,127.324228 C117.48271,127.324228 122.649106,122.55458 120.264282,119.374092 M100.788943,116.194688 C103.570515,119.374092 105.160759,113.809864 115.097886,113.809864 C125.03393,113.809864 126.624173,119.771924 128.214417,118.579512 C129.803577,117.3871 119.867534,110.232629 116.687046,109.834797 C113.507642,109.438049 104.366179,112.617453 100.788943,116.194688" fill="#000000"></path>
        <path d="M124.23935,124.541572 C122.649106,122.156748 120.662114,126.926396 116.290298,126.926396 C111.917398,126.926396 109.532575,125.733984 106.751003,123.746992 C103.968347,121.758916 110.724986,128.51664 115.097886,128.51664 C119.469702,128.51664 125.431762,126.131816 124.23935,124.541572 M125.431762,123.34916 C125.03393,118.579512 121.059946,117.784932 114.700054,117.784932 C108.340163,117.784932 105.558591,122.55458 103.173767,123.746992 C105.955339,123.746992 108.340163,119.771924 114.700054,119.771924 C121.059946,119.771924 121.059946,119.771924 125.431762,123.746992" fill="#000000"></path>
        <path d="M132.983631,145.60748 C130.200976,145.60748 129.406396,143.620488 126.226992,143.620488 C123.046504,143.620488 118.674688,144.8129 116.687696,146.40206 C116.289864,146.799892 117.880108,143.222656 121.059512,142.824824 C124.238916,142.428076 123.046504,137.260596 126.62374,136.466016 C126.62374,138.055176 125.431328,137.658428 125.03458,140.043252 C125.03458,142.030244 128.611816,142.030244 129.406396,140.043252 C128.611816,143.222656 130.99664,143.222656 132.983631,143.222656 M132.983631,160.314255 C123.046504,160.314255 124.636748,158.326179 111.520217,152.761951 C121.059512,153.954363 123.046504,157.133767 132.983631,157.133767 L134.970623,157.133767 M109.929973,156.339187 C111.520217,153.556531 111.122385,154.352195 114.302873,149.979295 C111.122385,152.364119 110.327805,153.556531 109.929973,156.339187 M132.983631,150.774959 C130.598808,150.774959 129.804228,149.979295 126.62374,149.979295 C123.444336,149.979295 115.892033,154.352195 111.520217,152.761951 C120.66168,156.339187 117.084444,153.954363 132.983631,153.954363 L134.970623,153.954363 M110.725637,126.926721 C105.558157,124.144065 108.737561,120.168997 110.725637,119.374417 C109.929973,120.168997 106.750569,124.144065 110.725637,126.926721" fill="#000000"></path>
        <path d="M132.983631,163.891165 C130.99664,163.891165 125.82916,166.557832 132.983631,166.557832 C140.138103,166.557832 134.970623,163.891165 132.983631,163.891165" fill="#000000"></path>
    </g>
</svg>
