<?xml version="1.0" encoding="UTF-8" standalone="no"?>
<svg width="640px" height="480px" viewBox="0 0 640 480" version="1.1" xmlns="http://www.w3.org/2000/svg" xmlns:xlink="http://www.w3.org/1999/xlink">
    <g stroke="none" stroke-width="1" fill="none" fill-rule="evenodd">
        <rect fill="#FFFFFF" x="0" y="0" width="640" height="480"></rect>
        <rect fill="#0038B8" x="0" y="45" width="640" height="75"></rect>
        <rect fill="#0038B8" x="0" y="360" width="640" height="75"></rect>
        <g transform="translate(230.000000, 135.000000)" fill="#0038B8">
            <path d="M82.8552904,13.4519515 L7.14470958,144.586524 L0,156.961524 L14.2894192,156.961524 L165.710581,156.961524 L180,156.961524 L172.85529,144.586524 L97.1447096,13.4519515 L90,1.07695155 L82.8552904,13.4519515 L82.8552904,13.4519515 L82.8552904,13.4519515 L82.8552904,13.4519515 L82.8552904,13.4519515 Z M97.1447096,21.7019515 L82.8552904,21.7019515 L158.565871,152.836524 L165.710581,140.461524 L14.2894192,140.461524 L21.4341287,152.836524 L97.1447096,21.7019515 L97.1447096,21.7019515 L97.1447096,21.7019515 L97.1447096,21.7019515 L97.1447096,21.7019515 Z" ></path>
            <path d="M82.8552904,196.548048 L7.14470958,65.4134758 L-1.27897692e-13,53.0384758 L14.2894192,53.0384758 L165.710581,53.0384758 L180,53.0384758 L172.85529,65.4134758 L97.1447096,196.548048 L90,208.923048 L82.8552904,196.548048 L82.8552904,196.548048 L82.8552904,196.548048 L82.8552904,196.548048 L82.8552904,196.548048 Z M97.1447096,188.298048 L82.8552904,188.298048 L158.565871,57.1634758 L165.710581,69.5384758 L14.2894192,69.5384758 L21.4341287,57.1634758 L97.1447096,188.298048 L97.1447096,188.298048 L97.1447096,188.298048 L97.1447096,188.298048 L97.1447096,188.298048 Z"></path>
        </g>
    </g>
</svg>
