<?xml version="1.0" encoding="utf-8"?>
<!-- Generator: Adobe Illustrator 17.0.0, SVG Export Plug-In . SVG Version: 6.00 Build 0)  -->
<!DOCTYPE svg PUBLIC "-//W3C//DTD SVG 1.1//EN" "http://www.w3.org/Graphics/SVG/1.1/DTD/svg11.dtd">
<svg version="1.1" id="Layer_1" xmlns="http://www.w3.org/2000/svg" xmlns:xlink="http://www.w3.org/1999/xlink" x="0px" y="0px"
	 width="48px" height="48px" viewBox="0 0 48 48" enable-background="new 0 0 48 48" xml:space="preserve">
<path fill="#010101" d="M28.384,23.991l10.06-8.461c0.431-0.362,0.688-0.888,0.711-1.449c0.023-0.561-0.191-1.106-0.59-1.502
	l-12.104-12c-0.573-0.569-1.432-0.735-2.178-0.426c-0.745,0.311-1.23,1.039-1.23,1.846v17.498L12.341,10.47
	c-0.844-0.712-2.106-0.604-2.818,0.24c-0.712,0.845-0.604,2.106,0.24,2.818l12.411,10.46L9.713,34.469
	c-0.846,0.711-0.954,1.973-0.243,2.818c0.711,0.845,1.972,0.955,2.817,0.243l10.765-9.054V46c0,0.807,0.485,1.536,1.23,1.846
	c0.249,0.104,0.51,0.154,0.77,0.154c0.517,0,1.026-0.201,1.408-0.58l12.104-12c0.398-0.395,0.613-0.94,0.59-1.501
	c-0.022-0.561-0.28-1.087-0.709-1.449L28.384,23.991z M27.052,6.798l7.142,7.08l-7.142,6.006V6.798z M27.052,41.201V28.099
	l7.142,6.02L27.052,41.201z"/>
</svg>
