<?xml version="1.0" encoding="utf-8"?>
<!-- Generator: Adobe Illustrator 17.0.0, SVG Export Plug-In . SVG Version: 6.00 Build 0)  -->
<!DOCTYPE svg PUBLIC "-//W3C//DTD SVG 1.1//EN" "http://www.w3.org/Graphics/SVG/1.1/DTD/svg11.dtd">
<svg version="1.1" id="Layer_1" xmlns="http://www.w3.org/2000/svg" xmlns:xlink="http://www.w3.org/1999/xlink" x="0px" y="0px"
	 width="48px" height="48px" viewBox="0 0 48 48" enable-background="new 0 0 48 48" xml:space="preserve">
<g>
	<path fill="#010101" d="M47.561,25.94l-10-10c-0.586-0.586-1.535-0.586-2.121,0c-0.586,0.585-0.586,1.536,0,2.121L44.379,27
		l-8.939,8.94c-0.586,0.585-0.586,1.536,0,2.121c0.293,0.293,0.677,0.439,1.061,0.439s0.768-0.146,1.061-0.439l10-10
		C48.146,27.475,48.146,26.525,47.561,25.94z"/>
	<path fill="#010101" d="M4.621,27l8.939-8.939c0.586-0.585,0.586-1.536,0-2.121c-0.586-0.586-1.535-0.586-2.121,0l-10,10
		c-0.586,0.585-0.586,1.536,0,2.121l10,10c0.293,0.293,0.677,0.439,1.061,0.439s0.768-0.146,1.061-0.439
		c0.586-0.585,0.586-1.536,0-2.121L4.621,27z"/>
	<circle fill="#010101" cx="24.5" cy="27" r="3"/>
	<circle fill="#010101" cx="34.5" cy="27" r="3"/>
	<circle fill="#010101" cx="14.5" cy="27" r="3"/>
</g>
</svg>
