<?xml version="1.0" encoding="utf-8"?>
<!-- Generator: Adobe Illustrator 17.0.0, SVG Export Plug-In . SVG Version: 6.00 Build 0)  -->
<!DOCTYPE svg PUBLIC "-//W3C//DTD SVG 1.1//EN" "http://www.w3.org/Graphics/SVG/1.1/DTD/svg11.dtd">
<svg version="1.1" id="Layer_1" xmlns="http://www.w3.org/2000/svg" xmlns:xlink="http://www.w3.org/1999/xlink" x="0px" y="0px"
	 width="48px" height="48px" viewBox="0 0 48 48" enable-background="new 0 0 48 48" xml:space="preserve">
<g>
	<path fill="#010101" d="M23,16c-3.859,0-7,3.14-7,7c0,3.86,3.141,7,7,7c3.859,0,7-3.14,7-7C30,19.14,26.859,16,23,16z"/>
	<path fill="#010101" d="M46.707,6.293l-6-6c-0.391-0.391-1.023-0.391-1.414,0l-10,10c-0.391,0.391-0.391,1.023,0,1.414l6,6
		C35.488,17.902,35.744,18,36,18c0.256,0,0.512-0.098,0.707-0.293l10-10C47.098,7.316,47.098,6.684,46.707,6.293z"/>
	<path fill="#010101" d="M11.707,5.293l-3-3c-0.391-0.391-1.023-0.391-1.414,0l-6,6c-0.391,0.391-0.391,1.023,0,1.414l3,3
		C4.488,12.902,4.744,13,5,13c0.256,0,0.512-0.098,0.707-0.293l6-6C12.098,6.316,12.098,5.684,11.707,5.293z"/>
	<path fill="#010101" d="M17.707,11.293l-3-3c-0.391-0.391-1.023-0.391-1.414,0l-6,6c-0.391,0.391-0.391,1.023,0,1.414l3,3
		C10.488,18.902,10.744,19,11,19c0.256,0,0.512-0.098,0.707-0.293l6-6C18.098,12.316,18.098,11.684,17.707,11.293z"/>
	<path fill="#010101" d="M27,42h-8c-0.553,0-1,0.448-1,1v4c0,0.552,0.447,1,1,1h8c0.553,0,1-0.448,1-1v-4C28,42.448,27.553,42,27,42
		z"/>
	<path fill="#010101" d="M27,34h-8c-0.553,0-1,0.448-1,1v4c0,0.552,0.447,1,1,1h8c0.553,0,1-0.448,1-1v-4C28,34.448,27.553,34,27,34
		z"/>
</g>
</svg>
