<?xml version="1.0" encoding="utf-8"?>
<!-- Generator: Adobe Illustrator 17.0.0, SVG Export Plug-In . SVG Version: 6.00 Build 0)  -->
<!DOCTYPE svg PUBLIC "-//W3C//DTD SVG 1.1//EN" "http://www.w3.org/Graphics/SVG/1.1/DTD/svg11.dtd">
<svg version="1.1" id="Layer_1" xmlns="http://www.w3.org/2000/svg" xmlns:xlink="http://www.w3.org/1999/xlink" x="0px" y="0px"
	 width="48px" height="48px" viewBox="0 0 48 48" enable-background="new 0 0 48 48" xml:space="preserve">
<g>
	<path fill="#010101" d="M32,20h2V9.927C34,7.725,32.243,6,30,6H18c-2.243,0-4,1.725-4,3.927V20h2H32z M17.167,10
		c0-0.552,0.447-1,1-1h11.666c0.553,0,1,0.448,1,1v7c0,0.552-0.447,1-1,1H18.167c-0.553,0-1-0.448-1-1V10z"/>
	<path fill="#010101" d="M30,24h5v-1.073c0-0.328-0.065-0.635-0.163-0.927H32H16h-2.837C13.065,22.292,13,22.599,13,22.927V24h5
		c2.677,0,4.888,1.652,5.681,4h0.637C25.112,25.652,27.322,24,30,24z"/>
	<path fill="#010101" d="M20,40h2V29.927C22,27.725,20.243,26,18,26h-3H6c-2.243,0-4,1.725-4,3.927V40h2H20z M5.167,30
		c0-0.552,0.447-1,1-1h11.666c0.553,0,1,0.448,1,1v7c0,0.552-0.447,1-1,1H6.167c-0.553,0-1-0.448-1-1V30z"/>
	<path fill="#010101" d="M20,42H4H1.163C1.065,42.292,1,42.599,1,42.927v1.272V47c0,0.552,0.447,1,1,1h20c0.553,0,1-0.448,1-1
		v-2.699v-1.374c0-0.328-0.065-0.635-0.163-0.927H20z"/>
	<path fill="#010101" d="M30,26c-2.243,0-4,1.725-4,3.927V40h2h16h2V29.927C46,27.725,44.243,26,42,26h-9H30z M42.833,30v7
		c0,0.552-0.447,1-1,1H30.167c-0.553,0-1-0.448-1-1v-7c0-0.552,0.447-1,1-1h11.666C42.386,29,42.833,29.448,42.833,30z"/>
	<path fill="#010101" d="M46.837,42H44H28h-2.837C25.065,42.292,25,42.599,25,42.927v1.272V47c0,0.552,0.447,1,1,1h20
		c0.553,0,1-0.448,1-1v-2.699v-1.374C47,42.599,46.935,42.292,46.837,42z"/>
</g>
</svg>
