<?xml version="1.0" encoding="utf-8"?>
<!-- Generator: Adobe Illustrator 17.0.0, SVG Export Plug-In . SVG Version: 6.00 Build 0)  -->
<!DOCTYPE svg PUBLIC "-//W3C//DTD SVG 1.1//EN" "http://www.w3.org/Graphics/SVG/1.1/DTD/svg11.dtd">
<svg version="1.1" id="Layer_1" xmlns="http://www.w3.org/2000/svg" xmlns:xlink="http://www.w3.org/1999/xlink" x="0px" y="0px"
	 width="48px" height="48px" viewBox="0 0 48 48" enable-background="new 0 0 48 48" xml:space="preserve">
<g>
	<path fill="#010101" d="M2,24H0v11c0,0.552,0.447,1,1,1h23v10H11c-0.553,0-1,0.448-1,1c0,0.552,0.447,1,1,1h26c0.553,0,1-0.448,1-1
		c0-0.552-0.447-1-1-1H26V36h21c0.553,0,1-0.448,1-1V24h-2H2z M40,27c1.102,0,2,0.897,2,2s-0.898,2-2,2c-1.103,0-2-0.897-2-2
		S38.897,27,40,27z M34,27c1.102,0,2,0.897,2,2s-0.898,2-2,2c-1.103,0-2-0.897-2-2S32.897,27,34,27z M28,27c1.102,0,2,0.897,2,2
		s-0.898,2-2,2c-1.103,0-2-0.897-2-2S26.897,27,28,27z M7,26c1.654,0,3,1.346,3,3c0,1.654-1.346,3-3,3c-1.654,0-3-1.346-3-3
		C4,27.346,5.346,26,7,26z"/>
	<circle fill="#010101" cx="7" cy="29" r="1"/>
	<circle fill="#010101" cx="7" cy="17" r="1"/>
	<path fill="#010101" d="M47,10H1c-0.553,0-1,0.448-1,1v11h2h44h2V11C48,10.448,47.553,10,47,10z M7,20c-1.654,0-3-1.346-3-3
		c0-1.654,1.346-3,3-3c1.654,0,3,1.346,3,3C10,18.654,8.654,20,7,20z M28,19c-1.103,0-2-0.897-2-2s0.897-2,2-2c1.102,0,2,0.897,2,2
		S29.102,19,28,19z M34,19c-1.103,0-2-0.897-2-2s0.897-2,2-2c1.102,0,2,0.897,2,2S35.102,19,34,19z M40,19c-1.103,0-2-0.897-2-2
		s0.897-2,2-2c1.102,0,2,0.897,2,2S41.102,19,40,19z"/>
	<circle fill="#010101" cx="3" cy="47" r="1"/>
	<circle fill="#010101" cx="7" cy="47" r="1"/>
	<circle fill="#010101" cx="41" cy="47" r="1"/>
	<circle fill="#010101" cx="45" cy="47" r="1"/>
</g>
</svg>
