<?xml version="1.0" encoding="utf-8"?>
<!-- Generator: Adobe Illustrator 17.0.0, SVG Export Plug-In . SVG Version: 6.00 Build 0)  -->
<!DOCTYPE svg PUBLIC "-//W3C//DTD SVG 1.1//EN" "http://www.w3.org/Graphics/SVG/1.1/DTD/svg11.dtd">
<svg version="1.1" id="Layer_1" xmlns="http://www.w3.org/2000/svg" xmlns:xlink="http://www.w3.org/1999/xlink" x="0px" y="0px"
	 width="48px" height="48px" viewBox="0 0 48 48" enable-background="new 0 0 48 48" xml:space="preserve">
<g>
	<circle fill="#010101" cx="7" cy="29" r="1"/>
	<circle fill="#010101" cx="7" cy="17" r="1"/>
	<path fill="#010101" d="M0,24v7c0,2.757,2.243,5,5,5h19v10H11c-0.553,0-1,0.448-1,1c0,0.552,0.447,1,1,1h26c0.553,0,1-0.448,1-1
		c0-0.552-0.447-1-1-1H26V36h17.001C45.758,36,48,33.757,48,31l0-7H0z M7,32c-1.654,0-3-1.346-3-3c0-1.654,1.346-3,3-3
		c1.654,0,3,1.346,3,3C10,30.654,8.654,32,7,32z M28,31c-1.103,0-2-0.897-2-2s0.897-2,2-2c1.102,0,2,0.897,2,2S29.102,31,28,31z
		 M34,31c-1.103,0-2-0.897-2-2s0.897-2,2-2c1.102,0,2,0.897,2,2S35.102,31,34,31z M40.001,31c-1.103,0-2-0.897-2-2s0.897-2,2-2
		c1.102,0,2,0.897,2,2S41.103,31,40.001,31z"/>
	<path fill="#010101" d="M35.641,0.232C35.46,0.082,35.234,0,35,0H13c-0.234,0-0.461,0.082-0.641,0.232L0.638,10h46.726
		L35.641,0.232z"/>
	<path fill="#010101" d="M48,12H0v10h48V12z M7,20c-1.654,0-3-1.346-3-3c0-1.654,1.346-3,3-3c1.654,0,3,1.346,3,3
		C10,18.654,8.654,20,7,20z M28,19c-1.103,0-2-0.897-2-2s0.897-2,2-2c1.102,0,2,0.897,2,2S29.102,19,28,19z M34,19
		c-1.103,0-2-0.897-2-2s0.897-2,2-2c1.102,0,2,0.897,2,2S35.102,19,34,19z M40.001,19c-1.103,0-2-0.897-2-2s0.897-2,2-2
		c1.102,0,2,0.897,2,2S41.103,19,40.001,19z"/>
	<circle fill="#010101" cx="3" cy="47" r="1"/>
	<circle fill="#010101" cx="7" cy="47" r="1"/>
	<circle fill="#010101" cx="41" cy="47" r="1"/>
	<circle fill="#010101" cx="45" cy="47" r="1"/>
</g>
</svg>
