<?xml version="1.0" encoding="utf-8"?>
<!-- Generator: Adobe Illustrator 17.0.0, SVG Export Plug-In . SVG Version: 6.00 Build 0)  -->
<!DOCTYPE svg PUBLIC "-//W3C//DTD SVG 1.1//EN" "http://www.w3.org/Graphics/SVG/1.1/DTD/svg11.dtd">
<svg version="1.1" id="Layer_1" xmlns="http://www.w3.org/2000/svg" xmlns:xlink="http://www.w3.org/1999/xlink" x="0px" y="0px"
	 width="48px" height="48px" viewBox="0 0 48 48" enable-background="new 0 0 48 48" xml:space="preserve">
<g>
	<circle fill="#010101" cx="7" cy="29" r="1"/>
	<circle fill="#010101" cx="7" cy="17" r="1"/>
	<circle fill="#010101" cx="7" cy="41" r="1"/>
	<path fill="#010101" d="M0,34h48V24H0V34z M40,27c1.102,0,2,0.897,2,2s-0.898,2-2,2c-1.103,0-2-0.897-2-2S38.897,27,40,27z M34,27
		c1.102,0,2,0.897,2,2s-0.898,2-2,2c-1.103,0-2-0.897-2-2S32.897,27,34,27z M28,27c1.102,0,2,0.897,2,2s-0.898,2-2,2
		c-1.103,0-2-0.897-2-2S26.897,27,28,27z M7,26c1.654,0,3,1.346,3,3c0,1.654-1.346,3-3,3c-1.654,0-3-1.346-3-3
		C4,27.346,5.346,26,7,26z"/>
	<path fill="#010101" d="M0,43c0,2.757,2.243,5,5,5h38c2.757,0,5-2.243,5-5v-7H0V43z M40,39c1.102,0,2,0.897,2,2s-0.898,2-2,2
		c-1.103,0-2-0.897-2-2S38.897,39,40,39z M34,39c1.102,0,2,0.897,2,2s-0.898,2-2,2c-1.103,0-2-0.897-2-2S32.897,39,34,39z M28,39
		c1.102,0,2,0.897,2,2s-0.898,2-2,2c-1.103,0-2-0.897-2-2S26.897,39,28,39z M7,38c1.654,0,3,1.346,3,3c0,1.654-1.346,3-3,3
		c-1.654,0-3-1.346-3-3C4,39.346,5.346,38,7,38z"/>
	<path fill="#010101" d="M0,12v10h48V12H0z M7,20c-1.654,0-3-1.346-3-3c0-1.654,1.346-3,3-3c1.654,0,3,1.346,3,3
		C10,18.654,8.654,20,7,20z M28,19c-1.103,0-2-0.897-2-2s0.897-2,2-2c1.102,0,2,0.897,2,2S29.102,19,28,19z M34,19
		c-1.103,0-2-0.897-2-2s0.897-2,2-2c1.102,0,2,0.897,2,2S35.102,19,34,19z M40,19c-1.103,0-2-0.897-2-2s0.897-2,2-2
		c1.102,0,2,0.897,2,2S41.102,19,40,19z"/>
	<path fill="#010101" d="M35.641,0.232C35.461,0.082,35.234,0,35,0H13c-0.234,0-0.461,0.082-0.641,0.232L0.638,10h46.725
		L35.641,0.232z"/>
</g>
</svg>
