<?xml version="1.0" encoding="utf-8"?>
<!-- Generator: Adobe Illustrator 17.0.0, SVG Export Plug-In . SVG Version: 6.00 Build 0)  -->
<!DOCTYPE svg PUBLIC "-//W3C//DTD SVG 1.1//EN" "http://www.w3.org/Graphics/SVG/1.1/DTD/svg11.dtd">
<svg version="1.1" id="Layer_1" xmlns="http://www.w3.org/2000/svg" xmlns:xlink="http://www.w3.org/1999/xlink" x="0px" y="0px"
	 width="48px" height="48px" viewBox="0 0 48 48" enable-background="new 0 0 48 48" xml:space="preserve">
<path fill="#010101" d="M34,10h-6c-1.105,0-2,0.896-2,2v6c0,1.104,0.895,2,2,2h1v1.823L24,24.6V6.828l1.586,1.586
	C25.977,8.804,26.488,9,27,9c0.512,0,1.023-0.195,1.414-0.586c0.781-0.781,0.781-2.047,0-2.828l-4.999-4.999
	c-0.093-0.093-0.196-0.177-0.307-0.251c-0.047-0.032-0.099-0.053-0.148-0.08c-0.065-0.036-0.127-0.075-0.196-0.103
	c-0.065-0.027-0.133-0.042-0.2-0.062c-0.058-0.017-0.113-0.04-0.173-0.051c-0.258-0.052-0.525-0.052-0.783,0
	c-0.06,0.012-0.116,0.034-0.173,0.051c-0.067,0.02-0.135,0.035-0.2,0.062c-0.069,0.028-0.131,0.067-0.196,0.103
	c-0.05,0.027-0.101,0.049-0.148,0.08c-0.11,0.074-0.213,0.157-0.307,0.251l-4.999,4.999c-0.781,0.781-0.781,2.047,0,2.828
	c0.781,0.781,2.047,0.781,2.828,0L20,6.828V28.6l-5-2.777v-3.247c1.763-0.774,3-2.531,3-4.576c0-2.757-2.243-5-5-5
	c-2.757,0-5,2.243-5,5c0,2.045,1.237,3.802,3,4.576V27c0,0.727,0.394,1.396,1.028,1.748L20,33.177v1.118
	c-2.888,0.863-5,3.54-5,6.705c0,3.86,3.141,7,7,7c3.859,0,7-3.14,7-7c0-3.165-2.113-5.842-5-6.705v-5.118l7.972-4.429
	C32.606,24.395,33,23.726,33,23v-3h1c1.104,0,2-0.896,2-2v-6C36,10.895,35.104,10,34,10z M13,19c-0.552,0-1-0.449-1-1s0.448-1,1-1
	c0.552,0,1,0.449,1,1S13.552,19,13,19z M25,41c0,1.654-1.346,3-3,3c-1.654,0-3-1.346-3-3s1.346-3,3-3C23.654,38,25,39.345,25,41z
	 M32,16h-2v-2h2V16z"/>
</svg>
