<?xml version="1.0" encoding="utf-8"?>
<!-- Generator: Adobe Illustrator 17.0.0, SVG Export Plug-In . SVG Version: 6.00 Build 0)  -->
<!DOCTYPE svg PUBLIC "-//W3C//DTD SVG 1.1//EN" "http://www.w3.org/Graphics/SVG/1.1/DTD/svg11.dtd">
<svg version="1.1" id="Layer_2" xmlns="http://www.w3.org/2000/svg" xmlns:xlink="http://www.w3.org/1999/xlink" x="0px" y="0px"
	 width="60px" height="60px" viewBox="0 0 60 60" enable-background="new 0 0 60 60" xml:space="preserve">
<path fill="#010101" d="M50.943,36.236c-0.649-0.348-1.439-0.31-2.053,0.1l-6,4c-0.919,0.612-1.167,1.854-0.555,2.774
	c0.613,0.919,1.854,1.167,2.773,0.555l2.433-1.622C45.849,49.394,39.636,55.027,32,55.876V24h8c1.104,0,2-0.895,2-2
	c0-1.104-0.896-2-2-2h-8v-6.295c2.887-0.863,5-3.541,5-6.705c0-3.86-3.141-7-7-7c-3.859,0-7,3.14-7,7c0,3.165,2.112,5.842,5,6.705
	V20h-8c-1.105,0-2,0.896-2,2c0,1.105,0.895,2,2,2h8v31.876c-7.636-0.849-13.849-6.482-15.542-13.834l2.433,1.622
	c0.918,0.612,2.16,0.364,2.773-0.555c0.612-0.919,0.364-2.161-0.555-2.774l-6-4c-0.614-0.409-1.405-0.448-2.053-0.1
	C8.406,36.585,8,37.263,8,38c0,12.131,9.869,22,22,22c12.131,0,22-9.869,22-22C52,37.263,51.594,36.585,50.943,36.236z"/>
</svg>
