<?xml version="1.0" encoding="utf-8"?>
<!-- Generator: Adobe Illustrator 17.0.0, SVG Export Plug-In . SVG Version: 6.00 Build 0)  -->
<!DOCTYPE svg PUBLIC "-//W3C//DTD SVG 1.1//EN" "http://www.w3.org/Graphics/SVG/1.1/DTD/svg11.dtd">
<svg version="1.1" id="Layer_2" xmlns="http://www.w3.org/2000/svg" xmlns:xlink="http://www.w3.org/1999/xlink" x="0px" y="0px"
	 width="60px" height="60px" viewBox="0 0 60 60" enable-background="new 0 0 60 60" xml:space="preserve">
<g>
	<path fill="#010101" d="M4,49v3c0,0.552,0.447,1,1,1h50c0.553,0,1-0.448,1-1v-3c0-0.552-0.447-1-1-1H5C4.447,48,4,48.448,4,49z"/>
	<path fill="#010101" d="M13,46c0.553,0,1-0.448,1-1V27c0-0.552-0.447-1-1-1H9c-0.553,0-1,0.448-1,1v18c0,0.552,0.447,1,1,1H13z"/>
	<path fill="#010101" d="M25,46c0.553,0,1-0.448,1-1V27c0-0.552-0.447-1-1-1h-4c-0.553,0-1,0.448-1,1v18c0,0.552,0.447,1,1,1H25z"/>
	<path fill="#010101" d="M39,46c0.553,0,1-0.448,1-1V27c0-0.552-0.447-1-1-1h-4c-0.553,0-1,0.448-1,1v18c0,0.552,0.447,1,1,1H39z"/>
	<path fill="#010101" d="M51,46c0.553,0,1-0.448,1-1V27c0-0.552-0.447-1-1-1h-4c-0.553,0-1,0.448-1,1v18c0,0.552,0.447,1,1,1H51z"/>
	<path fill="#010101" d="M7,14h46c0.553,0,1-0.448,1-1c0-8.626-8.075-13-24-13C14.748,0,6,4.738,6,13C6,13.552,6.447,14,7,14z
		 M25,3.173c0.553,0,1,0.448,1,1c0,0.552-0.447,1-1,1c-3.086,0-8,1.544-8,2.827c0,0.552-0.447,1-1,1c-0.553,0-1-0.448-1-1
		C15,4.329,22.795,3.173,25,3.173z"/>
	<path fill="#010101" d="M3,24h54c0.553,0,1-0.448,1-1v-6c0-0.552-0.447-1-1-1H3c-0.553,0-1,0.448-1,1v6C2,23.552,2.447,24,3,24z"/>
	<path fill="#010101" d="M59,55H1c-0.553,0-1,0.448-1,1v3c0,0.552,0.447,1,1,1h58c0.553,0,1-0.448,1-1v-3C60,55.448,59.553,55,59,55
		z"/>
</g>
</svg>
