<?xml version="1.0" encoding="utf-8"?>
<!-- Generator: Adobe Illustrator 17.0.0, SVG Export Plug-In . SVG Version: 6.00 Build 0)  -->
<!DOCTYPE svg PUBLIC "-//W3C//DTD SVG 1.1//EN" "http://www.w3.org/Graphics/SVG/1.1/DTD/svg11.dtd">
<svg version="1.1" id="Layer_2" xmlns="http://www.w3.org/2000/svg" xmlns:xlink="http://www.w3.org/1999/xlink" x="0px" y="0px"
	 width="60px" height="60px" viewBox="0 0 60 60" enable-background="new 0 0 60 60" xml:space="preserve">
<g>
	<path fill="#010101" d="M12.51,30.769c0.098,0.247,0.289,0.444,0.532,0.55c0.127,0.055,0.262,0.082,0.398,0.082
		c0.125,0,0.25-0.023,0.368-0.07l5.861-2.323c0.247-0.098,0.444-0.29,0.55-0.533l1.018-2.356l2.357,1.019
		c0.242,0.105,0.519,0.109,0.765,0.012l10.968-4.347l7.186,17.965c-7.03,0.495-12.219,4.439-14.207,6.2
		c-0.413,0.366-0.452,0.999-0.086,1.412c0.198,0.223,0.473,0.337,0.749,0.337c0.236,0,0.473-0.083,0.663-0.252
		c1.951-1.729,7.253-5.748,14.335-5.748h0.001h0.002h14.998c0.553,0,1-0.448,1-1s-0.447-1-1-1H44.647l-7.46-18.65l10.616-4.207
		c0.247-0.098,0.444-0.29,0.55-0.533l1.018-2.354l2.355,1.018c0.242,0.105,0.519,0.109,0.765,0.012l5.859-2.324
		c0.514-0.204,0.765-0.785,0.562-1.297l-0.928-2.345c-2.235-5.642-7.624-8.748-15.174-8.748c-4,0-8.488,0.903-13.033,2.598
		l-0.568-1.434c-0.203-0.514-0.789-0.763-1.298-0.561c-0.514,0.204-0.765,0.785-0.561,1.298l0.566,1.428
		c-13.255,5.56-19.806,15.043-16.332,23.81L12.51,30.769z"/>
	<path fill="#010101" d="M58.969,56.715c-1.654,0-3-1.346-3-3c0-0.552-0.447-1-1-1s-1,0.448-1,1c0,1.654-1.346,3-3,3
		c-1.654,0-3-1.346-3-3c0-0.552-0.447-1-1-1s-1,0.448-1,1c0,1.654-1.346,3-3,3c-1.654,0-3-1.346-3-3c0-0.552-0.447-1-1-1
		s-1,0.448-1,1c0,1.654-1.346,3-3,3c-1.654,0-3-1.346-3-3c0-0.552-0.447-1-1-1s-1,0.448-1,1c0,1.654-1.346,3-3,3
		c-1.654,0-3-1.346-3-3c0-0.552-0.447-1-1-1s-1,0.448-1,1c0,1.654-1.346,3-3,3c-1.654,0-3-1.346-3-3c0-0.552-0.447-1-1-1
		s-1,0.448-1,1c0,1.654-1.346,3-3,3s-3-1.346-3-3c0-0.552-0.447-1-1-1s-1,0.448-1,1c0,1.654-1.346,3-3,3
		c-0.51,0-1.012-0.129-1.453-0.374c-0.481-0.269-1.092-0.094-1.359,0.389c-0.269,0.483-0.095,1.092,0.389,1.36
		c0.737,0.41,1.575,0.626,2.424,0.626c1.634,0,3.087-0.788,4-2.003c0.913,1.215,2.366,2.003,4,2.003s3.087-0.788,4-2.003
		c0.913,1.215,2.366,2.003,4,2.003s3.087-0.788,4-2.003c0.913,1.215,2.366,2.003,4,2.003s3.087-0.788,4-2.003
		c0.913,1.215,2.366,2.003,4,2.003c1.634,0,3.087-0.788,4-2.003c0.913,1.215,2.366,2.003,4,2.003c1.634,0,3.087-0.788,4-2.003
		c0.913,1.215,2.366,2.003,4,2.003c1.634,0,3.087-0.788,4-2.003c0.913,1.215,2.366,2.003,4,2.003c0.553,0,1-0.448,1-1
		S59.522,56.715,58.969,56.715z"/>
</g>
</svg>
