<?xml version="1.0" encoding="utf-8"?>
<!-- Generator: Adobe Illustrator 17.0.0, SVG Export Plug-In . SVG Version: 6.00 Build 0)  -->
<!DOCTYPE svg PUBLIC "-//W3C//DTD SVG 1.1//EN" "http://www.w3.org/Graphics/SVG/1.1/DTD/svg11.dtd">
<svg version="1.1" id="Layer_2" xmlns="http://www.w3.org/2000/svg" xmlns:xlink="http://www.w3.org/1999/xlink" x="0px" y="0px"
	 width="60px" height="60px" viewBox="0 0 60 60" enable-background="new 0 0 60 60" xml:space="preserve">
<g>
	<path fill="#010101" d="M13.61,39.921C13.733,39.973,13.866,40,14,40h31c0.155,0,0.309-0.036,0.447-0.105
		C48.197,38.521,51,34.031,51,31c0-0.552-0.447-1-1-1H29v-4h18c0.008,0,0.015,0,0.019,0H49c0.553,0,1-0.448,1-1c0-0.552-0.447-1-1-1
		h-1.542L29,2.628V1c0-0.552-0.447-1-1-1c-0.553,0-1,0.448-1,1v2v22v5H9c-0.553,0-1,0.448-1,1C8,34.163,10.255,38.502,13.61,39.921z
		"/>
	<path fill="#010101" d="M6,50c1.634,0,3.087-0.788,4-2.003C10.913,49.212,12.366,50,14,50c1.634,0,3.087-0.788,4-2.003
		C18.913,49.212,20.366,50,22,50c1.634,0,3.087-0.788,4-2.003C26.913,49.212,28.366,50,30,50c1.634,0,3.087-0.788,4-2.003
		C34.913,49.212,36.366,50,38,50c1.634,0,3.087-0.788,4-2.003C42.913,49.212,44.366,50,46,50c1.634,0,3.087-0.788,4-2.003
		C50.913,49.212,52.366,50,54,50c0.553,0,1-0.448,1-1c0-0.552-0.447-1-1-1c-1.654,0-3-1.346-3-3c0-0.552-0.447-1-1-1
		c-0.553,0-1,0.448-1,1c0,1.654-1.346,3-3,3c-1.654,0-3-1.346-3-3c0-0.552-0.447-1-1-1c-0.553,0-1,0.448-1,1c0,1.654-1.346,3-3,3
		c-1.654,0-3-1.346-3-3c0-0.552-0.447-1-1-1c-0.553,0-1,0.448-1,1c0,1.654-1.346,3-3,3c-1.654,0-3-1.346-3-3c0-0.552-0.447-1-1-1
		c-0.553,0-1,0.448-1,1c0,1.654-1.346,3-3,3c-1.654,0-3-1.346-3-3c0-0.552-0.447-1-1-1c-0.553,0-1,0.448-1,1c0,1.654-1.346,3-3,3
		c-1.654,0-3-1.346-3-3c0-0.552-0.447-1-1-1c-0.553,0-1,0.448-1,1c0,1.654-1.346,3-3,3c-0.553,0-1,0.448-1,1C5,49.552,5.447,50,6,50
		z"/>
	<path fill="#010101" d="M54,58c-1.654,0-3-1.346-3-3c0-0.552-0.447-1-1-1c-0.553,0-1,0.448-1,1c0,1.654-1.346,3-3,3
		c-1.654,0-3-1.346-3-3c0-0.552-0.447-1-1-1c-0.553,0-1,0.448-1,1c0,1.654-1.346,3-3,3c-1.654,0-3-1.346-3-3c0-0.552-0.447-1-1-1
		c-0.553,0-1,0.448-1,1c0,1.654-1.346,3-3,3c-1.654,0-3-1.346-3-3c0-0.552-0.447-1-1-1c-0.553,0-1,0.448-1,1c0,1.654-1.346,3-3,3
		c-1.654,0-3-1.346-3-3c0-0.552-0.447-1-1-1c-0.553,0-1,0.448-1,1c0,1.654-1.346,3-3,3c-1.654,0-3-1.346-3-3c0-0.552-0.447-1-1-1
		c-0.553,0-1,0.448-1,1c0,1.654-1.346,3-3,3c-0.553,0-1,0.448-1,1c0,0.552,0.447,1,1,1c1.634,0,3.087-0.788,4-2.003
		C10.913,59.212,12.366,60,14,60c1.634,0,3.087-0.788,4-2.003C18.913,59.212,20.366,60,22,60c1.634,0,3.087-0.788,4-2.003
		C26.913,59.212,28.366,60,30,60c1.634,0,3.087-0.788,4-2.003C34.913,59.212,36.366,60,38,60c1.634,0,3.087-0.788,4-2.003
		C42.913,59.212,44.366,60,46,60c1.634,0,3.087-0.788,4-2.003C50.913,59.212,52.366,60,54,60c0.553,0,1-0.448,1-1
		C55,58.448,54.553,58,54,58z"/>
</g>
</svg>
