<?xml version="1.0" encoding="utf-8"?>
<!-- Generator: Adobe Illustrator 17.0.0, SVG Export Plug-In . SVG Version: 6.00 Build 0)  -->
<!DOCTYPE svg PUBLIC "-//W3C//DTD SVG 1.1//EN" "http://www.w3.org/Graphics/SVG/1.1/DTD/svg11.dtd">
<svg version="1.1" id="Layer_2" xmlns="http://www.w3.org/2000/svg" xmlns:xlink="http://www.w3.org/1999/xlink" x="0px" y="0px"
	 width="60px" height="60px" viewBox="0 0 60 60" enable-background="new 0 0 60 60" xml:space="preserve">
<path fill="#010101" d="M59,57.5h-3v-44h3c0.553,0,1-0.448,1-1c0-0.552-0.447-1-1-1h-4h-3v-5c0-0.552-0.447-1-1-1H38v-4
	c0-0.552-0.447-1-1-1H23c-0.553,0-1,0.448-1,1v4H9c-0.553,0-1,0.448-1,1v5H5H1c-0.553,0-1,0.448-1,1c0,0.552,0.447,1,1,1h3v44H1
	c-0.553,0-1,0.448-1,1c0,0.552,0.447,1,1,1h4h19v-13c0-0.552,0.447-1,1-1h10c0.553,0,1,0.448,1,1v13h19h4c0.553,0,1-0.448,1-1
	C60,57.948,59.553,57.5,59,57.5z M20,49.5h-8c-0.553,0-1-0.448-1-1c0-0.552,0.447-1,1-1h8c0.553,0,1,0.448,1,1
	C21,49.052,20.553,49.5,20,49.5z M26,39.5H12c-0.553,0-1-0.448-1-1c0-0.552,0.447-1,1-1h14c0.553,0,1,0.448,1,1
	C27,39.052,26.553,39.5,26,39.5z M26,33.5H12c-0.553,0-1-0.448-1-1c0-0.552,0.447-1,1-1h14c0.553,0,1,0.448,1,1
	C27,33.052,26.553,33.5,26,33.5z M26,27.5H12c-0.553,0-1-0.448-1-1c0-0.552,0.447-1,1-1h14c0.553,0,1,0.448,1,1
	C27,27.052,26.553,27.5,26,27.5z M26,21.5H12c-0.553,0-1-0.448-1-1c0-0.552,0.447-1,1-1h14c0.553,0,1,0.448,1,1
	C27,21.052,26.553,21.5,26,21.5z M48,49.5h-8c-0.553,0-1-0.448-1-1c0-0.552,0.447-1,1-1h8c0.553,0,1,0.448,1,1
	C49,49.052,48.553,49.5,48,49.5z M48,39.5H34c-0.553,0-1-0.448-1-1c0-0.552,0.447-1,1-1h14c0.553,0,1,0.448,1,1
	C49,39.052,48.553,39.5,48,39.5z M48,33.5H34c-0.553,0-1-0.448-1-1c0-0.552,0.447-1,1-1h14c0.553,0,1,0.448,1,1
	C49,33.052,48.553,33.5,48,33.5z M48,27.5H34c-0.553,0-1-0.448-1-1c0-0.552,0.447-1,1-1h14c0.553,0,1,0.448,1,1
	C49,27.052,48.553,27.5,48,27.5z M48,21.5H34c-0.553,0-1-0.448-1-1c0-0.552,0.447-1,1-1h14c0.553,0,1,0.448,1,1
	C49,21.052,48.553,21.5,48,21.5z"/>
</svg>
