<?xml version="1.0" encoding="utf-8"?>
<!-- Generator: Adobe Illustrator 17.0.0, SVG Export Plug-In . SVG Version: 6.00 Build 0)  -->
<!DOCTYPE svg PUBLIC "-//W3C//DTD SVG 1.1//EN" "http://www.w3.org/Graphics/SVG/1.1/DTD/svg11.dtd">
<svg version="1.1" id="Layer_2" xmlns="http://www.w3.org/2000/svg" xmlns:xlink="http://www.w3.org/1999/xlink" x="0px" y="0px"
	 width="60px" height="60px" viewBox="0 0 60 60" enable-background="new 0 0 60 60" xml:space="preserve">
<g>
	<path fill="#010101" d="M59,58h-9V15c0-0.552-0.447-1-1-1H11c-0.553,0-1,0.448-1,1v43H1c-0.553,0-1,0.448-1,1c0,0.552,0.447,1,1,1
		h10h14h10h14h10c0.553,0,1-0.448,1-1C60,58.448,59.553,58,59,58z M20,52h-4v-4h4V52z M20,42h-4v-4h4V42z M20,32h-4v-4h4V32z M20,22
		h-4v-4h4V22z M34,58h-8V48h8V58z M34,42h-8v-4h8V42z M34,32h-8v-4h8V32z M34,22h-8v-4h8V22z M44,52h-4v-4h4V52z M44,42h-4v-4h4V42z
		 M44,32h-4v-4h4V32z M44,22h-4v-4h4V22z"/>
	<path fill="#010101" d="M7,12h46c0.553,0,1-0.448,1-1V9c0-0.426-0.27-0.805-0.672-0.944l-23-8c-0.213-0.074-0.443-0.074-0.656,0
		l-23,8C6.269,8.195,6,8.574,6,9v2C6,11.552,6.447,12,7,12z"/>
</g>
</svg>
