<?xml version="1.0" encoding="utf-8"?>
<!-- Generator: Adobe Illustrator 17.0.0, SVG Export Plug-In . SVG Version: 6.00 Build 0)  -->
<!DOCTYPE svg PUBLIC "-//W3C//DTD SVG 1.1//EN" "http://www.w3.org/Graphics/SVG/1.1/DTD/svg11.dtd">
<svg version="1.1" id="Layer_2" xmlns="http://www.w3.org/2000/svg" xmlns:xlink="http://www.w3.org/1999/xlink" x="0px" y="0px"
	 width="60px" height="60px" viewBox="0 0 60 60" enable-background="new 0 0 60 60" xml:space="preserve">
<path fill="#010101" d="M59,58h-1V35c0-0.552-0.447-1-1-1h-7v-3c0-0.552-0.447-1-1-1c-0.553,0-1,0.448-1,1v3h-1
	c-0.553,0-1,0.448-1,1v23h-4V13c0-0.552-0.447-1-1-1h-5V7c0-0.552-0.447-1-1-1H25c-0.553,0-1,0.448-1,1v5h-5c-0.553,0-1,0.448-1,1
	v45h-4V35c0-0.552-0.447-1-1-1h-1v-3c0-0.552-0.447-1-1-1c-0.553,0-1,0.448-1,1v3H3c-0.553,0-1,0.448-1,1v23H1c-0.553,0-1,0.448-1,1
	c0,0.552,0.447,1,1,1h2h10h6h22h6h10h2c0.553,0,1-0.448,1-1C60,58.448,59.553,58,59,58z M37,50H23c-0.553,0-1-0.448-1-1
	c0-0.552,0.447-1,1-1h14c0.553,0,1,0.448,1,1C38,49.552,37.553,50,37,50z M37,44H23c-0.553,0-1-0.448-1-1c0-0.552,0.447-1,1-1h14
	c0.553,0,1,0.448,1,1C38,43.552,37.553,44,37,44z M37,38H23c-0.553,0-1-0.448-1-1c0-0.552,0.447-1,1-1h14c0.553,0,1,0.448,1,1
	C38,37.552,37.553,38,37,38z M37,32H23c-0.553,0-1-0.448-1-1c0-0.552,0.447-1,1-1h14c0.553,0,1,0.448,1,1C38,31.552,37.553,32,37,32
	z M37,26H23c-0.553,0-1-0.448-1-1c0-0.552,0.447-1,1-1h14c0.553,0,1,0.448,1,1C38,25.552,37.553,26,37,26z M37,20H23
	c-0.553,0-1-0.448-1-1c0-0.552,0.447-1,1-1h14c0.553,0,1,0.448,1,1C38,19.552,37.553,20,37,20z"/>
</svg>
