<?xml version="1.0" encoding="utf-8"?>
<!-- Generator: Adobe Illustrator 17.0.0, SVG Export Plug-In . SVG Version: 6.00 Build 0)  -->
<!DOCTYPE svg PUBLIC "-//W3C//DTD SVG 1.1//EN" "http://www.w3.org/Graphics/SVG/1.1/DTD/svg11.dtd">
<svg version="1.1" id="Layer_2" xmlns="http://www.w3.org/2000/svg" xmlns:xlink="http://www.w3.org/1999/xlink" x="0px" y="0px"
	 width="60px" height="60px" viewBox="0 0 60 60" enable-background="new 0 0 60 60" xml:space="preserve">
<path fill="#010101" d="M59,24h-3v-5c0-0.552-0.447-1-1-1H45c-0.553,0-1,0.448-1,1v5h-3c-0.553,0-1,0.448-1,1v9H24V19
	c0-0.552-0.447-1-1-1h-3v-7c0-0.552-0.447-1-1-1h-7V1c0-0.552-0.447-1-1-1c-0.553,0-1,0.448-1,1v9H5c-0.553,0-1,0.448-1,1v7H1
	c-0.553,0-1,0.448-1,1v40c0,0.552,0.447,1,1,1h7v-7c0-0.552,0.447-1,1-1h4c0.553,0,1,0.448,1,1v7h9h18h7v-7c0-0.552,0.447-1,1-1h4
	c0.553,0,1,0.448,1,1v7h5c0.553,0,1-0.448,1-1V25C60,24.448,59.553,24,59,24z M9,14h6c0.553,0,1,0.448,1,1c0,0.552-0.447,1-1,1H9
	c-0.553,0-1-0.448-1-1C8,14.448,8.447,14,9,14z M19,48H5c-0.553,0-1-0.448-1-1c0-0.552,0.447-1,1-1h14c0.553,0,1,0.448,1,1
	C20,47.552,19.553,48,19,48z M19,44H5c-0.553,0-1-0.448-1-1c0-0.552,0.447-1,1-1h14c0.553,0,1,0.448,1,1C20,43.552,19.553,44,19,44z
	 M19,40H5c-0.553,0-1-0.448-1-1c0-0.552,0.447-1,1-1h14c0.553,0,1,0.448,1,1C20,39.552,19.553,40,19,40z M19,36H5
	c-0.553,0-1-0.448-1-1c0-0.552,0.447-1,1-1h14c0.553,0,1,0.448,1,1C20,35.552,19.553,36,19,36z M19,32H5c-0.553,0-1-0.448-1-1
	c0-0.552,0.447-1,1-1h14c0.553,0,1,0.448,1,1C20,31.552,19.553,32,19,32z M19,28H5c-0.553,0-1-0.448-1-1c0-0.552,0.447-1,1-1h14
	c0.553,0,1,0.448,1,1C20,27.552,19.553,28,19,28z M19,24H5c-0.553,0-1-0.448-1-1c0-0.552,0.447-1,1-1h14c0.553,0,1,0.448,1,1
	C20,23.552,19.553,24,19,24z M37,50H27c-0.553,0-1-0.448-1-1c0-0.552,0.447-1,1-1h10c0.553,0,1,0.448,1,1C38,49.552,37.553,50,37,50
	z M37,46H27c-0.553,0-1-0.448-1-1c0-0.552,0.447-1,1-1h10c0.553,0,1,0.448,1,1C38,45.552,37.553,46,37,46z M37,42H27
	c-0.553,0-1-0.448-1-1c0-0.552,0.447-1,1-1h10c0.553,0,1,0.448,1,1C38,41.552,37.553,42,37,42z M55,50H45c-0.553,0-1-0.448-1-1
	c0-0.552,0.447-1,1-1h10c0.553,0,1,0.448,1,1C56,49.552,55.553,50,55,50z M55,46H45c-0.553,0-1-0.448-1-1c0-0.552,0.447-1,1-1h10
	c0.553,0,1,0.448,1,1C56,45.552,55.553,46,55,46z M55,42H45c-0.553,0-1-0.448-1-1c0-0.552,0.447-1,1-1h10c0.553,0,1,0.448,1,1
	C56,41.552,55.553,42,55,42z M55,38H45c-0.553,0-1-0.448-1-1c0-0.552,0.447-1,1-1h10c0.553,0,1,0.448,1,1C56,37.552,55.553,38,55,38
	z M55,34H45c-0.553,0-1-0.448-1-1c0-0.552,0.447-1,1-1h10c0.553,0,1,0.448,1,1C56,33.552,55.553,34,55,34z M55,30H45
	c-0.553,0-1-0.448-1-1c0-0.552,0.447-1,1-1h10c0.553,0,1,0.448,1,1C56,29.552,55.553,30,55,30z"/>
</svg>
