<?xml version="1.0" encoding="utf-8"?>
<!-- Generator: Adobe Illustrator 17.0.0, SVG Export Plug-In . SVG Version: 6.00 Build 0)  -->
<!DOCTYPE svg PUBLIC "-//W3C//DTD SVG 1.1//EN" "http://www.w3.org/Graphics/SVG/1.1/DTD/svg11.dtd">
<svg version="1.1" id="Layer_2" xmlns="http://www.w3.org/2000/svg" xmlns:xlink="http://www.w3.org/1999/xlink" x="0px" y="0px"
	 width="60px" height="60px" viewBox="0 0 60 60" enable-background="new 0 0 60 60" xml:space="preserve">
<g>
	<path fill="#010101" d="M16,22.935V59c0,0.552,0.447,1,1,1h8c0.553,0,1-0.448,1-1V22h-8.467C17.069,22.35,16.56,22.664,16,22.935z"
		/>
	<path fill="#010101" d="M34,22v37c0,0.552,0.447,1,1,1h8c0.553,0,1-0.448,1-1V22.935c-0.56-0.271-1.069-0.585-1.533-0.935H34z"/>
	<path fill="#010101" d="M24,20h12h4.495c-1.667-2.289-2.245-5.077-2.245-7c0-0.339,0.033-0.672,0.08-1H21.67
		c0.047,0.328,0.08,0.661,0.08,1c0,1.923-0.578,4.711-2.245,7H24z"/>
	<path fill="#010101" d="M49,0H11C4.832,0,0,4.832,0,11s4.832,11,11,11c0.336,0,0.659-0.02,0.977-0.046
		c0.288-0.026,0.571-0.063,0.85-0.112c0.004,0,0.008-0.001,0.012-0.001c0.098-0.017,0.192-0.044,0.29-0.065
		c0.47-0.098,0.927-0.221,1.362-0.38c0.126-0.048,0.25-0.098,0.372-0.152c0.094-0.039,0.188-0.076,0.279-0.118
		c1.168-0.574,2.139-1.428,2.905-2.56c1.256-1.857,1.703-4.092,1.703-5.565c0-0.62-0.117-1.211-0.318-1.766
		C19.4,11.156,19.37,11.077,19.336,11h0C18.351,8.623,15.793,7,14,7c-2.481,0-4,2.59-4,4c0,0.552-0.447,1-1,1c-0.553,0-1-0.448-1-1
		c0-2.446,2.337-6,6-6c2.962,0,6.433,2.544,7.448,6h17.104C39.567,7.544,43.038,5,46,5c3.663,0,6,3.554,6,6c0,0.552-0.447,1-1,1
		c-0.553,0-1-0.448-1-1c0-1.41-1.519-4-4-4c-1.793,0-4.351,1.623-5.336,4h0c-0.034,0.077-0.064,0.156-0.096,0.234
		C40.367,11.789,40.25,12.38,40.25,13c0,1.473,0.447,3.708,1.703,5.565c0.766,1.133,1.738,1.987,2.905,2.56
		c0.092,0.042,0.186,0.079,0.279,0.118c0.122,0.054,0.246,0.104,0.372,0.152c0.436,0.159,0.894,0.282,1.363,0.38
		c0.097,0.02,0.19,0.047,0.289,0.064c0.003,0,0.007,0.001,0.011,0.001c0.278,0.049,0.562,0.086,0.85,0.112
		C48.341,21.98,48.664,22,49,22c6.168,0,11-4.832,11-11S55.168,0,49,0z"/>
</g>
</svg>
