<?xml version="1.0" encoding="utf-8"?>
<!-- Generator: Adobe Illustrator 17.0.0, SVG Export Plug-In . SVG Version: 6.00 Build 0)  -->
<!DOCTYPE svg PUBLIC "-//W3C//DTD SVG 1.1//EN" "http://www.w3.org/Graphics/SVG/1.1/DTD/svg11.dtd">
<svg version="1.1" id="Layer_2" xmlns="http://www.w3.org/2000/svg" xmlns:xlink="http://www.w3.org/1999/xlink" x="0px" y="0px"
	 width="60px" height="60px" viewBox="0 0 60 60" enable-background="new 0 0 60 60" xml:space="preserve">
<path fill="#010101" d="M59.707,16.293l-8-8c-0.391-0.391-1.023-0.391-1.414,0l-8,8C42.105,16.481,42,16.735,42,17v4h-2v-4
	c0-0.265-0.106-0.519-0.293-0.707l-9-9c-0.391-0.391-1.023-0.391-1.414,0l-9,9C20.105,16.481,20,16.735,20,17v4h-2v-4
	c0-0.265-0.106-0.519-0.293-0.707l-8-8c-0.391-0.391-1.023-0.391-1.414,0l-8,8C0.105,16.481,0,16.735,0,17v35c0,0.552,0.447,1,1,1
	h16c0.553,0,1-0.448,1-1v-7h2v7c0,0.552,0.447,1,1,1h18c0.553,0,1-0.448,1-1v-7h2v7c0,0.552,0.447,1,1,1h16c0.553,0,1-0.448,1-1V17
	C60,16.735,59.894,16.481,59.707,16.293z M20,43h-2V23h2V43z M42,43h-2V23h2V43z"/>
</svg>
