<?xml version="1.0" encoding="utf-8"?>
<!-- Generator: Adobe Illustrator 17.0.0, SVG Export Plug-In . SVG Version: 6.00 Build 0)  -->
<!DOCTYPE svg PUBLIC "-//W3C//DTD SVG 1.1//EN" "http://www.w3.org/Graphics/SVG/1.1/DTD/svg11.dtd">
<svg version="1.1" id="Layer_2" xmlns="http://www.w3.org/2000/svg" xmlns:xlink="http://www.w3.org/1999/xlink" x="0px" y="0px"
	 width="60px" height="60px" viewBox="0 0 60 60" enable-background="new 0 0 60 60" xml:space="preserve">
<g>
	<path fill="#010101" d="M59,54h-3V27c0-0.552-0.447-1-1-1H5c-0.553,0-1,0.448-1,1v27H1c-0.553,0-1,0.448-1,1s0.447,1,1,1h4h6h38h6
		h4c0.553,0,1-0.448,1-1S59.553,54,59,54z M48,54H12V32h36V54z"/>
	<path fill="#010101" d="M59.409,17.088l-29-13c-0.26-0.117-0.559-0.117-0.818,0l-29,13C0.231,17.249,0,17.606,0,18v5
		c0,0.552,0.447,1,1,1h58c0.553,0,1-0.448,1-1v-5C60,17.606,59.769,17.249,59.409,17.088z"/>
	<path fill="#010101" d="M17,38h26c0.553,0,1-0.448,1-1s-0.447-1-1-1H17c-0.553,0-1,0.448-1,1S16.447,38,17,38z"/>
	<path fill="#010101" d="M17,44h26c0.553,0,1-0.448,1-1s-0.447-1-1-1H17c-0.553,0-1,0.448-1,1S16.447,44,17,44z"/>
	<path fill="#010101" d="M17,50h26c0.553,0,1-0.448,1-1s-0.447-1-1-1H17c-0.553,0-1,0.448-1,1S16.447,50,17,50z"/>
</g>
</svg>
