<?xml version="1.0" encoding="utf-8"?>
<!-- Generator: Adobe Illustrator 17.0.0, SVG Export Plug-In . SVG Version: 6.00 Build 0)  -->
<!DOCTYPE svg PUBLIC "-//W3C//DTD SVG 1.1//EN" "http://www.w3.org/Graphics/SVG/1.1/DTD/svg11.dtd">
<svg version="1.1" id="Layer_2" xmlns="http://www.w3.org/2000/svg" xmlns:xlink="http://www.w3.org/1999/xlink" x="0px" y="0px"
	 width="60px" height="60px" viewBox="0 0 60 60" enable-background="new 0 0 60 60" xml:space="preserve">
<g>
	<path fill="#010101" d="M39.599,45.566c1.771-4.527,2.854-9.031,3.239-13.461H17.186c0.385,4.43,1.466,8.934,3.237,13.461H39.599z"
		/>
	<path fill="#010101" d="M41.261,16.643H18.764c-1.323,4.36-1.887,8.867-1.704,13.462h25.905
		C43.148,25.51,42.584,21.003,41.261,16.643z"/>
	<path fill="#010101" d="M41.667,45.566h13.925c2.432-3.976,3.96-8.558,4.318-13.461H44.7
		C44.339,36.548,43.333,41.055,41.667,45.566z"/>
	<path fill="#010101" d="M21.25,47.566c1.8,4.131,4.175,8.274,7.125,12.394C28.887,59.986,29.402,60,29.92,60
		c0.583,0,1.161-0.021,1.735-0.054c2.947-4.115,5.319-8.254,7.117-12.38H21.25z"/>
	<path fill="#010101" d="M40.595,14.643c-1.841-5.108-4.742-9.998-8.696-14.578C31.275,0.026,30.647,0,30.014,0
		c-0.437,0-0.867,0.009-1.3,0.025c-0.197,0.008-0.39,0.026-0.586,0.038c-3.955,4.58-6.856,9.471-8.698,14.58H40.595z"/>
	<path fill="#010101" d="M55.79,14.643C51.326,7.172,43.69,1.796,34.746,0.376c3.561,4.478,6.18,9.267,7.858,14.267H55.79z"/>
	<path fill="#010101" d="M56.884,16.643H43.222c1.234,4.365,1.769,8.873,1.598,13.462h15.174c0-0.071,0.005-0.142,0.005-0.213
		C60,25.136,58.874,20.639,56.884,16.643z"/>
	<path fill="#010101" d="M34.276,59.68c8.187-1.194,15.311-5.701,19.974-12.114H40.886C39.214,51.623,37.004,55.675,34.276,59.68z"
		/>
	<path fill="#010101" d="M5.87,47.566c4.672,6.456,11.762,10.967,19.886,12.131c-2.732-4.01-4.946-8.068-6.62-12.131H5.87z"/>
	<path fill="#010101" d="M15.324,32.105H0.125c0.427,4.91,1.989,9.489,4.417,13.461h13.813
		C16.69,41.055,15.685,36.548,15.324,32.105z"/>
	<path fill="#010101" d="M16.803,16.643H2.832C1.011,20.471,0,24.778,0,29.368c0,0.247,0.013,0.491,0.018,0.736h15.186
		C15.034,25.516,15.568,21.007,16.803,16.643z"/>
	<path fill="#010101" d="M25.3,0.35C15.964,1.721,8.25,7.072,3.885,14.643h13.536C19.102,9.634,21.728,4.835,25.3,0.35z"/>
</g>
</svg>
