<?xml version="1.0" encoding="utf-8"?>
<!-- Generator: Adobe Illustrator 17.0.0, SVG Export Plug-In . SVG Version: 6.00 Build 0)  -->
<!DOCTYPE svg PUBLIC "-//W3C//DTD SVG 1.1//EN" "http://www.w3.org/Graphics/SVG/1.1/DTD/svg11.dtd">
<svg version="1.1" id="Layer_2" xmlns="http://www.w3.org/2000/svg" xmlns:xlink="http://www.w3.org/1999/xlink" x="0px" y="0px"
	 width="60px" height="60px" viewBox="0 0 60 60" enable-background="new 0 0 60 60" xml:space="preserve">
<g>
	<polygon fill="#010101" points="7.988,33.064 7.988,60 21.988,60 21.988,42.987 35.988,42.987 35.988,60 49.988,60 49.988,33.063 
		28.988,11.313 	"/>
	<path fill="#010101" d="M57.706,35.298l-28-28.999c-0.357-0.372-1.081-0.372-1.438,0l-4,4.143l-24,24.857
		c-0.26,0.27-0.324,0.648-0.222,0.984c0.048,0.157,0.121,0.307,0.247,0.429c0.007,0.007,0.017,0.009,0.025,0.016
		c0.38,0.342,1.011,0.33,1.372-0.029c0.005-0.005,0.012-0.007,0.017-0.012l6.28-6.505v0.001l21-21.75l21,21.75l6.281,6.505
		c0.003,0.002,0.006,0.003,0.009,0.006c0.365,0.369,1.008,0.381,1.387,0.03c0.005-0.005,0.012-0.006,0.017-0.011
		C58.078,36.33,58.089,35.695,57.706,35.298z"/>
	<path fill="#010101" d="M48.281,21.707C48.472,21.898,48.728,22,48.988,22c0.129,0,0.259-0.025,0.383-0.076
		c0.374-0.155,0.617-0.519,0.617-0.924V10c0-0.552-0.447-1-1-1c0-1.78,0.604-2.046,1.701-2.529C52.08,5.857,53.988,5.017,53.988,1
		c0-0.552-0.447-1-1-1c-0.553,0-1,0.448-1,1c0,2.712-0.883,3.102-2.105,3.641C48.661,5.179,46.988,5.916,46.988,9h-6
		c0-1.739,0.606-2.017,1.708-2.521C44.084,5.842,45.988,4.971,45.988,1c0-0.552-0.447-1-1-1c-0.553,0-1,0.448-1,1
		c0,2.687-0.892,3.095-2.125,3.66C40.649,5.216,38.988,5.977,38.988,9h-1c-0.404,0-0.769,0.244-0.924,0.617
		c-0.155,0.374-0.069,0.804,0.217,1.09L48.281,21.707z"/>
</g>
</svg>
