<?xml version="1.0" encoding="utf-8"?>
<!-- Generator: Adobe Illustrator 17.0.0, SVG Export Plug-In . SVG Version: 6.00 Build 0)  -->
<!DOCTYPE svg PUBLIC "-//W3C//DTD SVG 1.1//EN" "http://www.w3.org/Graphics/SVG/1.1/DTD/svg11.dtd">
<svg version="1.1" id="Layer_2" xmlns="http://www.w3.org/2000/svg" xmlns:xlink="http://www.w3.org/1999/xlink" x="0px" y="0px"
	 width="60px" height="60px" viewBox="0 0 60 60" enable-background="new 0 0 60 60" xml:space="preserve">
<g>
	<path fill="#010101" d="M1,28h58c0.437,0,0.824-0.285,0.955-0.703c0.13-0.418-0.027-0.872-0.388-1.121L52,20.958V11
		c0-0.552-0.447-1-1-1h-8c-0.553,0-1,0.448-1,1v3.061L30.567,6.177c-0.342-0.236-0.793-0.236-1.135,0l-29,20
		c-0.36,0.248-0.518,0.703-0.388,1.121C0.176,27.715,0.562,28,1,28z"/>
	<path fill="#010101" d="M59,52h-5V31c0-0.552-0.447-1-1-1H7c-0.553,0-1,0.448-1,1v21H1c-0.553,0-1,0.448-1,1s0.447,1,1,1h6h46h6
		c0.553,0,1-0.448,1-1S59.553,52,59,52z M14,35c0-0.552,0.447-1,1-1h8c0.553,0,1,0.448,1,1v12c0,0.552-0.447,1-1,1h-8
		c-0.553,0-1-0.448-1-1V35z M25.5,52h-13v-2c0-0.276,0.224-0.5,0.5-0.5h12c0.276,0,0.5,0.224,0.5,0.5V52z M48,43
		c0,0.552-0.447,1-1,1H31c-0.553,0-1-0.448-1-1v-8c0-0.552,0.447-1,1-1h16c0.553,0,1,0.448,1,1V43z"/>
</g>
</svg>
