<?xml version="1.0" encoding="utf-8"?>
<!-- Generator: Adobe Illustrator 17.0.0, SVG Export Plug-In . SVG Version: 6.00 Build 0)  -->
<!DOCTYPE svg PUBLIC "-//W3C//DTD SVG 1.1//EN" "http://www.w3.org/Graphics/SVG/1.1/DTD/svg11.dtd">
<svg version="1.1" id="Layer_2" xmlns="http://www.w3.org/2000/svg" xmlns:xlink="http://www.w3.org/1999/xlink" x="0px" y="0px"
	 width="60px" height="60px" viewBox="0 0 60 60" enable-background="new 0 0 60 60" xml:space="preserve">
<path fill="#010101" d="M59,53h-3V28.313l2.472,1.537c0.165,0.102,0.347,0.15,0.527,0.15c0.334,0,0.661-0.167,0.851-0.472
	c0.291-0.469,0.147-1.085-0.321-1.377L54,24.714V12c0-0.552-0.447-1-1-1h-6c-0.553,0-1,0.448-1,1v7.741l-2.916-1.813L27.528,8.259
	c0-0.001-0.001-0.001-0.001-0.001L22.528,5.15c-0.47-0.29-1.087-0.148-1.378,0.322c-0.291,0.469-0.147,1.085,0.321,1.377L26,9.664
	v11.206L4.568,31.14c-0.069,0.033-0.13,0.079-0.188,0.126l-3.813,1.833c-0.497,0.239-0.707,0.837-0.468,1.335
	C0.271,34.791,0.628,35,1.001,35c0.145,0,0.293-0.031,0.433-0.099L4,33.668V53H1c-0.553,0-1,0.448-1,1c0,0.552,0.447,1,1,1h4h22h28
	h4c0.553,0,1-0.448,1-1C60,53.448,59.553,53,59,53z M21,52c0,0.552-0.447,1-1,1h-8c-0.553,0-1-0.448-1-1V40c0-0.552,0.447-1,1-1h8
	c0.553,0,1,0.448,1,1V52z M21,37H11c-0.553,0-1-0.448-1-1c0-0.552,0.447-1,1-1h10c0.553,0,1,0.448,1,1C22,36.552,21.553,37,21,37z
	 M40,53h-7c-0.553,0-1-0.448-1-1v-9c0-0.552,0.447-1,1-1h7V53z M35,31c-2.757,0-5-2.243-5-5c0-2.757,2.243-5,5-5
	c2.757,0,5,2.243,5,5C40,28.757,37.757,31,35,31z M50,52c0,0.552-0.447,1-1,1h-7V42h7c0.553,0,1,0.448,1,1V52z"/>
</svg>
