<?xml version="1.0" encoding="utf-8"?>
<!-- Generator: Adobe Illustrator 17.0.0, SVG Export Plug-In . SVG Version: 6.00 Build 0)  -->
<!DOCTYPE svg PUBLIC "-//W3C//DTD SVG 1.1//EN" "http://www.w3.org/Graphics/SVG/1.1/DTD/svg11.dtd">
<svg version="1.1" id="Layer_2" xmlns="http://www.w3.org/2000/svg" xmlns:xlink="http://www.w3.org/1999/xlink" x="0px" y="0px"
	 width="60px" height="60px" viewBox="0 0 60 60" enable-background="new 0 0 60 60" xml:space="preserve">
<g>
	<path fill="#010101" d="M50,20.987c0.129,0,0.259-0.025,0.383-0.076C50.757,20.756,51,20.391,51,19.987v-11c0-0.552-0.447-1-1-1H39
		c-0.404,0-0.77,0.244-0.924,0.617c-0.048,0.116-0.065,0.237-0.068,0.357l11.406,11.812C49.588,20.903,49.788,20.987,50,20.987z"/>
	<polygon fill="#010101" points="9,31.057 9,59.987 23,59.987 23,41.987 37,41.987 37,59.987 51,59.987 51,31.056 30,9.306 	"/>
	<path fill="#010101" d="M58.719,33.292l-28-29c-0.358-0.372-1.081-0.372-1.438,0.001l-28,29c-0.286,0.297-0.352,0.728-0.2,1.086
		c0.051,0.12,0.126,0.231,0.225,0.327c0.006,0.006,0.015,0.007,0.021,0.013c0.377,0.342,1.001,0.332,1.366-0.02
		c0.008-0.008,0.019-0.01,0.027-0.019L9,28.177v0L30,6.426l27.28,28.255c0.361,0.374,1.005,0.388,1.388,0.042
		c0.008-0.007,0.018-0.009,0.026-0.017C59.091,34.322,59.102,33.689,58.719,33.292z"/>
</g>
</svg>
