<?xml version="1.0" encoding="utf-8"?>
<!-- Generator: Adobe Illustrator 17.0.0, SVG Export Plug-In . SVG Version: 6.00 Build 0)  -->
<!DOCTYPE svg PUBLIC "-//W3C//DTD SVG 1.1//EN" "http://www.w3.org/Graphics/SVG/1.1/DTD/svg11.dtd">
<svg version="1.1" id="Layer_2" xmlns="http://www.w3.org/2000/svg" xmlns:xlink="http://www.w3.org/1999/xlink" x="0px" y="0px"
	 width="60px" height="60px" viewBox="0 0 60 60" enable-background="new 0 0 60 60" xml:space="preserve">
<g>
	<path fill="#010101" d="M23,14h14c0.007,0,0.015,0,0.019,0c0.553,0,1-0.448,1-1c0-0.073-0.008-0.144-0.022-0.213
		C37.893,8.811,34.871,5.556,31,5.069V1c0-0.552-0.447-1-1-1c-0.553,0-1,0.448-1,1v4.069C25.06,5.564,22,8.928,22,13
		C22,13.552,22.447,14,23,14z"/>
	<path fill="#010101" d="M47,58h-7V31h1c0.553,0,1-0.448,1-1c0-0.552-0.447-1-1-1h-2h-1V18h1c0.553,0,1-0.448,1-1
		c0-0.552-0.447-1-1-1h-2H23h-2c-0.553,0-1,0.448-1,1c0,0.552,0.447,1,1,1h1v11h-1h-2c-0.553,0-1,0.448-1,1c0,0.552,0.447,1,1,1h1
		v27h-7c-0.553,0-1,0.448-1,1c0,0.552,0.447,1,1,1h8h4v-9c0-0.552,0.447-1,1-1h8c0.553,0,1,0.448,1,1v9h4h8c0.553,0,1-0.448,1-1
		C48,58.448,47.553,58,47,58z"/>
	<path fill="#010101" d="M0.684,11.949l15,5C15.789,16.983,15.895,17,16,17c0.419,0,0.809-0.265,0.948-0.684
		c0.175-0.524-0.108-1.09-0.632-1.265l-15-5c-0.529-0.175-1.09,0.109-1.265,0.632C-0.123,11.208,0.16,11.774,0.684,11.949z"/>
	<path fill="#010101" d="M16.948,21.684c-0.175-0.523-0.736-0.808-1.265-0.632l-15,5c-0.523,0.175-0.807,0.741-0.632,1.265
		C0.191,27.735,0.581,28,1,28c0.104,0,0.211-0.017,0.316-0.051l15-5C16.84,22.774,17.123,22.208,16.948,21.684z"/>
	<path fill="#010101" d="M5,18c-0.553,0-1,0.448-1,1c0,0.552,0.447,1,1,1h6c0.553,0,1-0.448,1-1c0-0.552-0.447-1-1-1H5z"/>
	<path fill="#010101" d="M44,17c0.104,0,0.211-0.017,0.316-0.051l15-5c0.523-0.175,0.807-0.741,0.632-1.265
		c-0.175-0.523-0.736-0.808-1.265-0.632l-15,5c-0.523,0.175-0.807,0.741-0.632,1.265C43.191,16.735,43.581,17,44,17z"/>
	<path fill="#010101" d="M59.316,26.051l-15-5c-0.529-0.175-1.09,0.109-1.265,0.632c-0.175,0.524,0.108,1.09,0.632,1.265l15,5
		C58.789,27.983,58.895,28,59,28c0.419,0,0.809-0.265,0.948-0.684C60.123,26.792,59.84,26.226,59.316,26.051z"/>
	<path fill="#010101" d="M49,18c-0.553,0-1,0.448-1,1c0,0.552,0.447,1,1,1h6c0.553,0,1-0.448,1-1c0-0.552-0.447-1-1-1H49z"/>
</g>
</svg>
