<?xml version="1.0" encoding="utf-8"?>
<!-- Generator: Adobe Illustrator 17.0.0, SVG Export Plug-In . SVG Version: 6.00 Build 0)  -->
<!DOCTYPE svg PUBLIC "-//W3C//DTD SVG 1.1//EN" "http://www.w3.org/Graphics/SVG/1.1/DTD/svg11.dtd">
<svg version="1.1" id="Layer_2" xmlns="http://www.w3.org/2000/svg" xmlns:xlink="http://www.w3.org/1999/xlink" x="0px" y="0px"
	 width="60px" height="60px" viewBox="0 0 60 60" enable-background="new 0 0 60 60" xml:space="preserve">
<path fill="#010101" d="M59,58.302H37.653l1.461-8.288l1.504,0.265c0.174,0.03,0.348,0.045,0.519,0.045
	c1.46,0,2.702-1.042,2.952-2.476c0.141-0.79-0.035-1.587-0.495-2.245c-0.46-0.656-1.147-1.094-1.937-1.234l-1.501-0.265l0.71-4.025
	l1.503,0.265c0.174,0.03,0.348,0.045,0.519,0.045c1.46,0,2.702-1.043,2.952-2.476c0.141-0.79-0.035-1.587-0.495-2.245
	c-0.46-0.656-1.147-1.094-1.937-1.234l-1.5-0.265l0.709-4.024l1.502,0.265c0.175,0.03,0.349,0.045,0.519,0.045
	c1.46,0,2.702-1.043,2.952-2.476c0.141-0.79-0.035-1.587-0.495-2.245c-0.46-0.656-1.147-1.094-1.937-1.234l-1.499-0.264l1.057-5.995
	l1.501,0.265c0.059,0.01,0.117,0.015,0.175,0.015c0.476,0,0.898-0.341,0.983-0.826c0.097-0.544-0.267-1.062-0.811-1.159
	l-6.468-1.141l0.968-5.48l1.498,0.264c0.059,0.01,0.117,0.015,0.175,0.015c0.477,0,0.898-0.341,0.983-0.826
	c0.097-0.544-0.267-1.062-0.811-1.159l-2.481-0.438l-0.001-0.001l-3.898-0.687l-1.324-0.234l0.699-3.982
	c0.095-0.544-0.269-1.063-0.812-1.158C34.55,1.618,34.03,1.98,33.934,2.525l-0.699,3.981l-7.709-1.359
	c-0.546-0.095-1.063,0.268-1.158,0.811c-0.097,0.544,0.267,1.062,0.81,1.159l1.5,0.264l-0.965,5.481l-6.465-1.14
	c-0.542-0.096-1.064,0.267-1.158,0.811c-0.097,0.544,0.267,1.062,0.811,1.159l1.478,0.261l-1.172,5.976l-1.366-0.241
	c-1.677-0.294-3.193,0.827-3.475,2.43c-0.141,0.79,0.035,1.587,0.495,2.245c0.46,0.656,1.147,1.094,1.936,1.234l1.254,0.221
	l-0.786,4.01l-1.178-0.208c-1.643-0.288-3.192,0.83-3.471,2.431c-0.141,0.79,0.035,1.587,0.495,2.245
	c0.46,0.656,1.148,1.094,1.937,1.234l1.063,0.188l-0.787,4.012l-0.987-0.174c-1.657-0.289-3.189,0.83-3.471,2.431
	c-0.141,0.79,0.035,1.587,0.494,2.242c0.459,0.658,1.147,1.098,1.938,1.236l0.872,0.154l-2.487,12.686H1c-0.553,0-1,0.448-1,1
	c0,0.552,0.447,1,1,1h11.506h8.826h6.304h8.826H59c0.553,0,1-0.448,1-1C60,58.75,59.553,58.302,59,58.302z M17.145,23.625
	c-0.01-0.002-0.018-0.009-0.028-0.011c-0.124-0.026-0.24-0.069-0.342-0.135c-0.107-0.069-0.2-0.158-0.276-0.267
	c-0.076-0.108-0.128-0.228-0.156-0.354c-0.018-0.078-0.008-0.161-0.006-0.243c0.001-0.051-0.012-0.101-0.002-0.153
	c0-0.002,0.002-0.004,0.002-0.007c0.023-0.126,0.071-0.24,0.135-0.344c0.019-0.03,0.046-0.053,0.068-0.08
	c0.054-0.069,0.11-0.134,0.18-0.187c0.034-0.026,0.073-0.043,0.111-0.064c0.067-0.038,0.135-0.072,0.211-0.094
	c0.048-0.014,0.098-0.02,0.148-0.026c0.043-0.006,0.083-0.023,0.128-0.023c0.058,0,0.116,0.005,0.173,0.015c0.001,0,0.002,0,0.003,0
	l20.99,3.7l4.829,0.852l1.498,0.264v0c0.008,0.001,0.014,0.006,0.022,0.008c0.127,0.025,0.245,0.069,0.348,0.137
	c0.106,0.069,0.2,0.158,0.276,0.267c0.076,0.108,0.128,0.228,0.156,0.354c0.018,0.079,0.008,0.162,0.006,0.245
	c-0.001,0.051,0.012,0.1,0.002,0.152c0,0.001-0.001,0.002-0.001,0.003c-0.023,0.129-0.073,0.247-0.14,0.351
	c-0.011,0.017-0.027,0.03-0.04,0.046c-0.063,0.085-0.136,0.164-0.222,0.226c-0.018,0.013-0.037,0.021-0.056,0.032
	c-0.083,0.052-0.173,0.093-0.268,0.12c-0.038,0.01-0.075,0.014-0.113,0.02c-0.104,0.017-0.209,0.029-0.316,0.011
	c0,0-0.001,0-0.001,0l-1.5-0.265l-24.528-4.324L17.145,23.625z M15.396,33.558L15.396,33.558c-0.007-0.001-0.011-0.006-0.017-0.007
	c-0.129-0.025-0.248-0.071-0.353-0.139c-0.106-0.069-0.2-0.158-0.276-0.267c-0.076-0.108-0.128-0.228-0.156-0.354
	c-0.018-0.08-0.008-0.165-0.006-0.249c0.001-0.049-0.011-0.097-0.003-0.147v-0.001c0.023-0.128,0.072-0.245,0.138-0.35
	c0.017-0.027,0.042-0.047,0.062-0.073c0.055-0.072,0.115-0.139,0.188-0.193c0.032-0.024,0.07-0.041,0.105-0.061
	c0.069-0.04,0.139-0.074,0.217-0.097c0.047-0.013,0.097-0.019,0.147-0.026c0.044-0.005,0.084-0.023,0.129-0.023
	c0.057,0,0.113,0.005,0.17,0.015l0.001,0l22.028,3.884l3.791,0.669l1.499,0.264l0,0c0.005,0.001,0.009,0.004,0.014,0.005
	c0.13,0.025,0.25,0.071,0.356,0.14c0.106,0.069,0.2,0.158,0.276,0.267c0.076,0.108,0.128,0.228,0.156,0.354
	c0.018,0.079,0.008,0.162,0.006,0.245c-0.001,0.051,0.012,0.1,0.002,0.152c0,0.002-0.001,0.003-0.001,0.004
	c-0.022,0.127-0.071,0.243-0.137,0.347c-0.016,0.025-0.039,0.044-0.057,0.067c-0.057,0.075-0.12,0.146-0.195,0.201
	c-0.029,0.022-0.061,0.034-0.091,0.053c-0.073,0.043-0.149,0.08-0.231,0.104c-0.044,0.013-0.089,0.018-0.135,0.024
	c-0.101,0.015-0.202,0.027-0.307,0.009h0L23.82,35.043l-7.325-1.292L15.396,33.558z M28.816,58.302h-2.027h-4.131h-2.081
	l2.314-8.101c0.149-0.519,0.69-0.825,1.204-0.696l5.044,1.262c0.506,0.126,0.83,0.621,0.744,1.135L28.816,58.302z M30.911,46.537
	l-16.356-2.884v0l-0.91-0.161c-0.133-0.023-0.257-0.073-0.367-0.144c-0.107-0.069-0.202-0.159-0.278-0.268
	c-0.076-0.108-0.128-0.228-0.156-0.353c-0.018-0.082-0.009-0.167-0.006-0.252c0.002-0.048-0.011-0.095-0.003-0.143
	c0.001-0.002,0.002-0.004,0.002-0.006c0.023-0.126,0.071-0.24,0.135-0.344c0.02-0.032,0.048-0.055,0.071-0.085
	c0.053-0.068,0.108-0.131,0.177-0.183c0.034-0.025,0.074-0.043,0.111-0.064c0.068-0.038,0.136-0.072,0.212-0.094
	c0.047-0.014,0.097-0.02,0.146-0.026c0.044-0.006,0.084-0.023,0.13-0.023c0.058,0,0.115,0.005,0.172,0.015h0.002l16.576,2.923
	l9.241,1.629l1.5,0.264l0,0c0.006,0.001,0.01,0.005,0.017,0.006c0.129,0.025,0.248,0.071,0.353,0.139
	c0.106,0.069,0.2,0.158,0.276,0.267c0.076,0.108,0.128,0.228,0.156,0.354c0.017,0.078,0.008,0.16,0.006,0.241
	c-0.001,0.052,0.012,0.103,0.003,0.155c0,0.001-0.001,0.002-0.001,0.003c-0.022,0.127-0.071,0.244-0.138,0.348
	c-0.015,0.023-0.037,0.041-0.054,0.063c-0.058,0.077-0.123,0.149-0.2,0.206c-0.027,0.02-0.056,0.032-0.085,0.049
	c-0.075,0.045-0.153,0.082-0.238,0.107c-0.043,0.013-0.086,0.017-0.131,0.023c-0.101,0.015-0.203,0.027-0.308,0.009h0l-0.001,0
	L30.911,46.537z"/>
</svg>
