<?xml version="1.0" encoding="utf-8"?>
<!-- Generator: Adobe Illustrator 17.0.0, SVG Export Plug-In . SVG Version: 6.00 Build 0)  -->
<!DOCTYPE svg PUBLIC "-//W3C//DTD SVG 1.1//EN" "http://www.w3.org/Graphics/SVG/1.1/DTD/svg11.dtd">
<svg version="1.1" id="Layer_2" xmlns="http://www.w3.org/2000/svg" xmlns:xlink="http://www.w3.org/1999/xlink" x="0px" y="0px"
	 width="60px" height="60px" viewBox="0 0 60 60" enable-background="new 0 0 60 60" xml:space="preserve">
<path fill="#010101" d="M46,58H35v-6h3c1.654,0,3-1.346,3-3c0-1.654-1.346-3-3-3h-3v-2h3c1.654,0,3-1.346,3-3c0-1.654-1.346-3-3-3
	h-3v-5.111c2.888-1.336,5.201-3.793,6.298-6.889H42h2c0.553,0,1-0.448,1-1v-6c0-0.552-0.447-1-1-1h-2.702
	c-1.57-4.431-5.629-7.563-10.298-7.957V1c0-0.552-0.447-1-1-1c-0.553,0-1,0.448-1,1v9.043c-4.669,0.394-8.728,3.526-10.298,7.957H16
	c-0.553,0-1,0.448-1,1v6c0,0.552,0.447,1,1,1h2h0.702c1.097,3.096,3.41,5.553,6.298,6.889V38h-3c-1.654,0-3,1.346-3,3
	c0,1.654,1.346,3,3,3h3v2h-3c-1.654,0-3,1.346-3,3c0,1.654,1.346,3,3,3h3v6H14c-0.553,0-1,0.448-1,1c0,0.552,0.447,1,1,1h12h8h12
	c0.553,0,1-0.448,1-1C47,58.448,46.553,58,46,58z M18,24h-1v-4h26v4h-1H18z M22,42c-0.552,0-1-0.448-1-1c0-0.552,0.448-1,1-1h16
	c0.552,0,1,0.448,1,1c0,0.552-0.448,1-1,1H22z M22,50c-0.552,0-1-0.448-1-1c0-0.552,0.448-1,1-1h16c0.552,0,1,0.448,1,1
	c0,0.552-0.448,1-1,1H22z"/>
</svg>
