<?xml version="1.0" encoding="utf-8"?>
<!-- Generator: Adobe Illustrator 17.0.0, SVG Export Plug-In . SVG Version: 6.00 Build 0)  -->
<!DOCTYPE svg PUBLIC "-//W3C//DTD SVG 1.1//EN" "http://www.w3.org/Graphics/SVG/1.1/DTD/svg11.dtd">
<svg version="1.1" id="Layer_2" xmlns="http://www.w3.org/2000/svg" xmlns:xlink="http://www.w3.org/1999/xlink" x="0px" y="0px"
	 width="60px" height="60px" viewBox="0 0 60 60" enable-background="new 0 0 60 60" xml:space="preserve">
<path fill="#010101" d="M56.998,3.938c-0.019-0.302-0.174-0.58-0.421-0.754c-0.248-0.175-0.562-0.229-0.852-0.145L42.021,6.954
	L30.183,3.05c-0.196-0.065-0.41-0.067-0.61-0.005L16.998,6.953L4.294,3.044C4,2.955,3.684,3.003,3.432,3.178
	c-0.252,0.174-0.41,0.454-0.43,0.76l-3,48c-0.029,0.476,0.28,0.906,0.74,1.029l15,4c0.175,0.046,0.357,0.044,0.532-0.005L30,53.04
	l13.726,3.921C43.815,56.987,43.907,57,44,57c0.087,0,0.173-0.011,0.258-0.034l15-4c0.46-0.123,0.77-0.553,0.74-1.029L56.998,3.938z
	 M13.707,39.707l-2,2C11.512,41.902,11.256,42,11,42c-0.256,0-0.512-0.098-0.707-0.293c-0.391-0.391-0.391-1.023,0-1.414l2-2
	c0.391-0.391,1.023-0.391,1.414,0C14.098,38.684,14.098,39.316,13.707,39.707z M20.707,32.707l-2,2C18.512,34.902,18.256,35,18,35
	c-0.256,0-0.512-0.098-0.707-0.293c-0.391-0.391-0.391-1.023,0-1.414l2-2c0.391-0.391,1.023-0.391,1.414,0
	C21.098,31.684,21.098,32.316,20.707,32.707z M28,29h-2c-0.553,0-1-0.448-1-1c0-0.552,0.447-1,1-1h2c0.553,0,1,0.448,1,1
	C29,28.552,28.553,29,28,29z M36.707,35.707C36.512,35.902,36.256,36,36,36c-0.256,0-0.512-0.098-0.707-0.293l-2-2
	c-0.391-0.391-0.391-1.023,0-1.414c0.391-0.391,1.023-0.391,1.414,0l2,2C37.098,34.684,37.098,35.316,36.707,35.707z M45.707,35.707
	l-2,2C43.512,37.902,43.256,38,43,38c-0.256,0-0.512-0.098-0.707-0.293c-0.391-0.391-0.391-1.023,0-1.414l2-2
	c0.391-0.391,1.023-0.391,1.414,0C46.098,34.684,46.098,35.316,45.707,35.707z M48,30c0,0.552-0.447,1-1,1c-0.553,0-1-0.448-1-1v-2
	c0-0.552,0.447-1,1-1c0.553,0,1,0.448,1,1V30z M50.707,23.293c0.391,0.391,0.391,1.023,0,1.414C50.512,24.902,50.256,25,50,25
	c-0.256,0-0.512-0.098-0.707-0.293L47,22.414l-2.293,2.293C44.512,24.902,44.256,25,44,25c-0.256,0-0.512-0.098-0.707-0.293
	c-0.391-0.391-0.391-1.023,0-1.414L45.586,21l-2.293-2.293c-0.391-0.391-0.391-1.023,0-1.414c0.391-0.391,1.023-0.391,1.414,0
	L47,19.586l2.293-2.293c0.391-0.391,1.023-0.391,1.414,0c0.391,0.391,0.391,1.023,0,1.414L48.414,21L50.707,23.293z"/>
</svg>
