<?xml version="1.0" encoding="utf-8"?>
<!-- Generator: Adobe Illustrator 17.0.0, SVG Export Plug-In . SVG Version: 6.00 Build 0)  -->
<!DOCTYPE svg PUBLIC "-//W3C//DTD SVG 1.1//EN" "http://www.w3.org/Graphics/SVG/1.1/DTD/svg11.dtd">
<svg version="1.1" id="Layer_2" xmlns="http://www.w3.org/2000/svg" xmlns:xlink="http://www.w3.org/1999/xlink" x="0px" y="0px"
	 width="60px" height="60px" viewBox="0 0 60 60" enable-background="new 0 0 60 60" xml:space="preserve">
<path fill="#010101" d="M49,13c-0.551,0-1.112,0.046-1.678,0.136C45.168,5.468,38.036,0,30,0c-5.611,0-10.918,2.648-14.317,7.113
	C15.09,7.037,14.535,7,14,7C6.28,7,0,13.28,0,21c0,7.72,6.28,14,14,14c2.294,0,4.559-0.572,6.589-1.66
	c2.262,1.392,4.786,2.247,7.411,2.539V59c0,0.552,0.447,1,1,1c0.553,0,1-0.448,1-1v-8.586l5.247-5.247
	C36.037,45.691,36.982,46,38,46c2.757,0,5-2.243,5-5c0-2.757-2.243-5-5-5c-2.757,0-5,2.243-5,5c0,1.017,0.309,1.962,0.833,2.753
	L30,47.586V36c4.159,0,8.163-1.441,11.38-4.078C43.424,33.889,46.149,35,49,35c6.065,0,11-4.935,11-11C60,17.935,55.065,13,49,13z"
	/>
</svg>
