<?xml version="1.0" encoding="utf-8"?>
<!-- Generator: Adobe Illustrator 17.0.0, SVG Export Plug-In . SVG Version: 6.00 Build 0)  -->
<!DOCTYPE svg PUBLIC "-//W3C//DTD SVG 1.1//EN" "http://www.w3.org/Graphics/SVG/1.1/DTD/svg11.dtd">
<svg version="1.1" id="Layer_1" xmlns="http://www.w3.org/2000/svg" xmlns:xlink="http://www.w3.org/1999/xlink" x="0px" y="0px"
	 width="60px" height="60px" viewBox="0 0 60 60" enable-background="new 0 0 60 60" xml:space="preserve">
<g>
	<path fill="#010101" d="M59,0c-0.552,0-1,0.448-1,1v16.797C52.351,10.456,43.433,6,34,6C17.458,6,4,19.458,4,36
		c0,9.546,4.151,18.218,11.39,23.792C15.572,59.932,15.786,60,16,60c0.299,0,0.596-0.134,0.793-0.39
		c0.337-0.438,0.255-1.066-0.182-1.403C9.867,53.015,6,44.921,6,36C6,20.561,18.561,8,34,8c9.231,0,17.941,4.556,23.154,12H39
		c-0.552,0-1,0.448-1,1s0.448,1,1,1h20c0.024,0,0.044-0.012,0.068-0.014c0.067-0.005,0.131-0.021,0.197-0.04
		c0.065-0.018,0.128-0.037,0.187-0.067c0.022-0.011,0.045-0.011,0.067-0.024c0.034-0.021,0.054-0.054,0.085-0.078
		c0.055-0.042,0.105-0.085,0.149-0.138c0.042-0.049,0.074-0.101,0.105-0.156c0.031-0.055,0.058-0.109,0.079-0.171
		c0.022-0.066,0.032-0.131,0.04-0.2C59.982,21.074,60,21.04,60,21V1C60,0.448,59.552,0,59,0z"/>
</g>
</svg>
