<?xml version="1.0" encoding="utf-8"?>
<!-- Generator: Adobe Illustrator 17.0.0, SVG Export Plug-In . SVG Version: 6.00 Build 0)  -->
<!DOCTYPE svg PUBLIC "-//W3C//DTD SVG 1.1//EN" "http://www.w3.org/Graphics/SVG/1.1/DTD/svg11.dtd">
<svg version="1.1" id="Layer_1" xmlns="http://www.w3.org/2000/svg" xmlns:xlink="http://www.w3.org/1999/xlink" x="0px" y="0px"
	 width="60px" height="60px" viewBox="0 0 60 60" enable-background="new 0 0 60 60" xml:space="preserve">
<g>
	<path fill="#010101" d="M0.063,21.313c0.02,0.061,0.048,0.115,0.079,0.171c0.031,0.056,0.064,0.107,0.105,0.156
		c0.045,0.053,0.095,0.095,0.149,0.138c0.031,0.024,0.051,0.057,0.085,0.078c0.021,0.013,0.045,0.013,0.067,0.024
		c0.059,0.031,0.121,0.049,0.187,0.067c0.066,0.018,0.13,0.035,0.197,0.04C0.956,21.988,0.976,22,1,22h20c0.552,0,1-0.448,1-1
		s-0.448-1-1-1H2.846C8.059,12.556,16.769,8,26,8c15.439,0,28,12.561,28,28c0,8.921-3.867,17.015-10.61,22.208
		c-0.438,0.337-0.519,0.965-0.182,1.403C43.405,59.866,43.701,60,44,60c0.213,0,0.428-0.068,0.61-0.208
		C51.849,54.218,56,45.546,56,36C56,19.458,42.542,6,26,6C16.567,6,7.649,10.456,2,17.797V1c0-0.552-0.448-1-1-1S0,0.448,0,1v20
		c0,0.04,0.018,0.074,0.023,0.112C0.031,21.181,0.041,21.247,0.063,21.313z"/>
</g>
</svg>
