<?xml version="1.0" encoding="utf-8"?>
<!-- Generator: Adobe Illustrator 17.0.0, SVG Export Plug-In . SVG Version: 6.00 Build 0)  -->
<!DOCTYPE svg PUBLIC "-//W3C//DTD SVG 1.1//EN" "http://www.w3.org/Graphics/SVG/1.1/DTD/svg11.dtd">
<svg version="1.1" id="Layer_1" xmlns="http://www.w3.org/2000/svg" xmlns:xlink="http://www.w3.org/1999/xlink" x="0px" y="0px"
	 width="60px" height="60px" viewBox="0 0 60 60" enable-background="new 0 0 60 60" xml:space="preserve">
<g>
	<path fill="#010101" d="M14,58H7c-0.552,0-1,0.448-1,1s0.448,1,1,1h29c8.972,0,16-7.028,16-16c0-7.956-5.53-14.371-13.038-15.725
		C43.734,25.761,47,20.758,47,15c0-8.271-6.729-15-15-15H7C6.448,0,6,0.448,6,1s0.448,1,1,1h7V58z M36,30c7.851,0,14,6.149,14,14
		s-6.149,14-14,14H16V30h11h5H36z M32,2c7.047,0,13,5.953,13,13c0,7.168-5.832,13-13,13h-5H16V2H32z"/>
</g>
</svg>
