<?xml version="1.0" encoding="utf-8"?>
<!-- Generator: Adobe Illustrator 17.0.0, SVG Export Plug-In . SVG Version: 6.00 Build 0)  -->
<!DOCTYPE svg PUBLIC "-//W3C//DTD SVG 1.1//EN" "http://www.w3.org/Graphics/SVG/1.1/DTD/svg11.dtd">
<svg version="1.1" id="Layer_1" xmlns="http://www.w3.org/2000/svg" xmlns:xlink="http://www.w3.org/1999/xlink" x="0px" y="0px"
	 width="60px" height="60px" viewBox="0 0 60 60" enable-background="new 0 0 60 60" xml:space="preserve">
<g>
	<path fill="#010101" d="M59,0H1C0.447,0,0,0.448,0,1v58c0,0.552,0.447,1,1,1h58c0.553,0,1-0.448,1-1V1C60,0.448,59.553,0,59,0z
		 M58,58H2V2h56V58z"/>
	<path fill="#010101" d="M15,14h12c0.553,0,1-0.448,1-1s-0.447-1-1-1H15c-0.553,0-1,0.448-1,1S14.447,14,15,14z"/>
	<path fill="#010101" d="M7,20h20c0.553,0,1-0.448,1-1s-0.447-1-1-1H7c-0.553,0-1,0.448-1,1S6.447,20,7,20z"/>
	<path fill="#010101" d="M7,26h20c0.553,0,1-0.448,1-1s-0.447-1-1-1H7c-0.553,0-1,0.448-1,1S6.447,26,7,26z"/>
	<path fill="#010101" d="M7,38h20c0.553,0,1-0.448,1-1s-0.447-1-1-1H7c-0.553,0-1,0.448-1,1S6.447,38,7,38z"/>
	<path fill="#010101" d="M7,44h20c0.553,0,1-0.448,1-1s-0.447-1-1-1H7c-0.553,0-1,0.448-1,1S6.447,44,7,44z"/>
	<path fill="#010101" d="M33,38h20c0.553,0,1-0.448,1-1s-0.447-1-1-1H33c-0.553,0-1,0.448-1,1S32.447,38,33,38z"/>
	<path fill="#010101" d="M33,26h20c0.553,0,1-0.448,1-1s-0.447-1-1-1H33c-0.553,0-1,0.448-1,1S32.447,26,33,26z"/>
	<path fill="#010101" d="M7,32h20c0.553,0,1-0.448,1-1s-0.447-1-1-1H7c-0.553,0-1,0.448-1,1S6.447,32,7,32z"/>
	<path fill="#010101" d="M33,32h20c0.553,0,1-0.448,1-1s-0.447-1-1-1H33c-0.553,0-1,0.448-1,1S32.447,32,33,32z"/>
	<path fill="#010101" d="M33,20h20c0.553,0,1-0.448,1-1s-0.447-1-1-1H33c-0.553,0-1,0.448-1,1S32.447,20,33,20z"/>
	<path fill="#010101" d="M33,14h20c0.553,0,1-0.448,1-1s-0.447-1-1-1H33c-0.553,0-1,0.448-1,1S32.447,14,33,14z"/>
	<path fill="#010101" d="M33,44h12c0.553,0,1-0.448,1-1s-0.447-1-1-1H33c-0.553,0-1,0.448-1,1S32.447,44,33,44z"/>
</g>
</svg>
