<?xml version="1.0" encoding="utf-8"?>
<!-- Generator: Adobe Illustrator 17.0.0, SVG Export Plug-In . SVG Version: 6.00 Build 0)  -->
<!DOCTYPE svg PUBLIC "-//W3C//DTD SVG 1.1//EN" "http://www.w3.org/Graphics/SVG/1.1/DTD/svg11.dtd">
<svg version="1.1" id="Layer_1" xmlns="http://www.w3.org/2000/svg" xmlns:xlink="http://www.w3.org/1999/xlink" x="0px" y="0px"
	 width="60px" height="60px" viewBox="0 0 60 60" enable-background="new 0 0 60 60" xml:space="preserve">
<g>
	<path fill="#010101" d="M13,6H1C0.448,6,0,6.448,0,7v12c0,0.552,0.448,1,1,1h12c0.552,0,1-0.448,1-1V7C14,6.448,13.552,6,13,6z
		 M12,18H2V8h10V18z"/>
	<path fill="#010101" d="M13,24H1c-0.552,0-1,0.448-1,1v12c0,0.552,0.448,1,1,1h12c0.552,0,1-0.448,1-1V25
		C14,24.448,13.552,24,13,24z M12,36H2V26h10V36z"/>
	<path fill="#010101" d="M13,42H1c-0.552,0-1,0.448-1,1v12c0,0.552,0.448,1,1,1h12c0.552,0,1-0.448,1-1V43
		C14,42.448,13.552,42,13,42z M12,54H2V44h10V54z"/>
	<path fill="#010101" d="M59,12H21c-0.552,0-1,0.448-1,1s0.448,1,1,1h38c0.552,0,1-0.448,1-1S59.552,12,59,12z"/>
	<path fill="#010101" d="M59,30H21c-0.552,0-1,0.448-1,1s0.448,1,1,1h38c0.552,0,1-0.448,1-1S59.552,30,59,30z"/>
	<path fill="#010101" d="M59,48H21c-0.552,0-1,0.448-1,1s0.448,1,1,1h38c0.552,0,1-0.448,1-1S59.552,48,59,48z"/>
</g>
</svg>
