<?xml version="1.0" encoding="utf-8"?>
<!-- Generator: Adobe Illustrator 17.0.0, SVG Export Plug-In . SVG Version: 6.00 Build 0)  -->
<!DOCTYPE svg PUBLIC "-//W3C//DTD SVG 1.1//EN" "http://www.w3.org/Graphics/SVG/1.1/DTD/svg11.dtd">
<svg version="1.1" id="Layer_1" xmlns="http://www.w3.org/2000/svg" xmlns:xlink="http://www.w3.org/1999/xlink" x="0px" y="0px"
	 width="60px" height="60px" viewBox="0 0 60 60" enable-background="new 0 0 60 60" xml:space="preserve">
<g>
	<path fill="#010101" d="M59,12H21c-0.552,0-1,0.448-1,1s0.448,1,1,1h38c0.552,0,1-0.448,1-1S59.552,12,59,12z"/>
	<path fill="#010101" d="M59,30H21c-0.552,0-1,0.448-1,1s0.448,1,1,1h38c0.552,0,1-0.448,1-1S59.552,30,59,30z"/>
	<path fill="#010101" d="M59,48H21c-0.552,0-1,0.448-1,1s0.448,1,1,1h38c0.552,0,1-0.448,1-1S59.552,48,59,48z"/>
	<path fill="#010101" d="M7,6c-3.86,0-7,3.14-7,7s3.14,7,7,7s7-3.14,7-7S10.86,6,7,6z M7,18c-2.757,0-5-2.243-5-5s2.243-5,5-5
		s5,2.243,5,5S9.757,18,7,18z"/>
	<path fill="#010101" d="M7,24c-3.86,0-7,3.14-7,7s3.14,7,7,7s7-3.14,7-7S10.86,24,7,24z M7,36c-2.757,0-5-2.243-5-5s2.243-5,5-5
		s5,2.243,5,5S9.757,36,7,36z"/>
	<path fill="#010101" d="M7,42c-3.86,0-7,3.14-7,7s3.14,7,7,7s7-3.14,7-7S10.86,42,7,42z M7,54c-2.757,0-5-2.243-5-5s2.243-5,5-5
		s5,2.243,5,5S9.757,54,7,54z"/>
</g>
</svg>
