<?xml version="1.0" encoding="utf-8"?>
<!-- Generator: Adobe Illustrator 17.0.0, SVG Export Plug-In . SVG Version: 6.00 Build 0)  -->
<!DOCTYPE svg PUBLIC "-//W3C//DTD SVG 1.1//EN" "http://www.w3.org/Graphics/SVG/1.1/DTD/svg11.dtd">
<svg version="1.1" id="Layer_1" xmlns="http://www.w3.org/2000/svg" xmlns:xlink="http://www.w3.org/1999/xlink" x="0px" y="0px"
	 width="60px" height="60px" viewBox="0 0 60 60" enable-background="new 0 0 60 60" xml:space="preserve">
<g>
	<path fill="#010101" d="M59,12H23c-0.553,0-1,0.448-1,1s0.447,1,1,1h36c0.553,0,1-0.448,1-1S59.553,12,59,12z"/>
	<path fill="#010101" d="M59,30H23c-0.553,0-1,0.448-1,1s0.447,1,1,1h36c0.553,0,1-0.448,1-1S59.553,30,59,30z"/>
	<path fill="#010101" d="M59,48H23c-0.553,0-1,0.448-1,1s0.447,1,1,1h36c0.553,0,1-0.448,1-1S59.553,48,59,48z"/>
	<path fill="#010101" d="M13,12H8.766l2.091-3.485c0.284-0.474,0.131-1.088-0.343-1.372C10.04,6.858,9.426,7.012,9.143,7.485
		L7,11.056L4.857,7.485C4.574,7.012,3.96,6.858,3.485,7.143C3.012,7.427,2.858,8.041,3.143,8.515L5.234,12H1c-0.553,0-1,0.448-1,1
		s0.447,1,1,1h4.234l-2.091,3.485c-0.284,0.474-0.131,1.088,0.343,1.372C3.646,18.954,3.824,19,3.999,19
		c0.34,0,0.671-0.173,0.858-0.485L7,14.944l2.143,3.571C9.33,18.827,9.661,19,10.001,19c0.175,0,0.353-0.046,0.514-0.143
		c0.474-0.284,0.627-0.898,0.343-1.372L8.766,14H13c0.553,0,1-0.448,1-1S13.553,12,13,12z"/>
	<path fill="#010101" d="M13,30H8.766l2.091-3.485c0.284-0.474,0.131-1.088-0.343-1.372c-0.475-0.285-1.089-0.13-1.372,0.343
		L7,29.056l-2.143-3.571c-0.283-0.473-0.897-0.628-1.372-0.343c-0.474,0.284-0.627,0.898-0.343,1.372L5.234,30H1
		c-0.553,0-1,0.448-1,1s0.447,1,1,1h4.234l-2.091,3.485c-0.284,0.474-0.131,1.088,0.343,1.372C3.646,36.954,3.824,37,3.999,37
		c0.34,0,0.671-0.173,0.858-0.485L7,32.944l2.143,3.571C9.33,36.827,9.661,37,10.001,37c0.175,0,0.353-0.046,0.514-0.143
		c0.474-0.284,0.627-0.898,0.343-1.372L8.766,32H13c0.553,0,1-0.448,1-1S13.553,30,13,30z"/>
	<path fill="#010101" d="M13,48H8.766l2.091-3.485c0.284-0.474,0.131-1.088-0.343-1.372c-0.475-0.285-1.089-0.13-1.372,0.343
		L7,47.056l-2.143-3.571c-0.283-0.473-0.897-0.628-1.372-0.343c-0.474,0.284-0.627,0.898-0.343,1.372L5.234,48H1
		c-0.553,0-1,0.448-1,1s0.447,1,1,1h4.234l-2.091,3.485c-0.284,0.474-0.131,1.088,0.343,1.372C3.646,54.954,3.824,55,3.999,55
		c0.34,0,0.671-0.173,0.858-0.485L7,50.944l2.143,3.571C9.33,54.827,9.661,55,10.001,55c0.175,0,0.353-0.046,0.514-0.143
		c0.474-0.284,0.627-0.898,0.343-1.372L8.766,50H13c0.553,0,1-0.448,1-1S13.553,48,13,48z"/>
</g>
</svg>
