<?xml version="1.0" encoding="utf-8"?>
<!-- Generator: Adobe Illustrator 17.0.0, SVG Export Plug-In . SVG Version: 6.00 Build 0)  -->
<!DOCTYPE svg PUBLIC "-//W3C//DTD SVG 1.1//EN" "http://www.w3.org/Graphics/SVG/1.1/DTD/svg11.dtd">
<svg version="1.1" id="Layer_1" xmlns="http://www.w3.org/2000/svg" xmlns:xlink="http://www.w3.org/1999/xlink" x="0px" y="0px"
	 width="60px" height="60px" viewBox="0 0 60 60" enable-background="new 0 0 60 60" xml:space="preserve">
<g>
	<path fill="#010101" d="M59,0H16C7.028,0,0,7.028,0,16s7.028,16,16,16h10v27c0,0.552,0.447,1,1,1s1-0.448,1-1V2h16v57
		c0,0.552,0.447,1,1,1s1-0.448,1-1V2h13c0.553,0,1-0.448,1-1S59.553,0,59,0z M26,30H16C8.149,30,2,23.851,2,16S8.149,2,16,2h10V30z"
		/>
</g>
</svg>
