<?xml version="1.0" encoding="utf-8"?>
<!-- Generator: Adobe Illustrator 17.0.0, SVG Export Plug-In . SVG Version: 6.00 Build 0)  -->
<!DOCTYPE svg PUBLIC "-//W3C//DTD SVG 1.1//EN" "http://www.w3.org/Graphics/SVG/1.1/DTD/svg11.dtd">
<svg version="1.1" id="Layer_1" xmlns="http://www.w3.org/2000/svg" xmlns:xlink="http://www.w3.org/1999/xlink" x="0px" y="0px"
	 width="60px" height="60px" viewBox="0 0 60 60" enable-background="new 0 0 60 60" xml:space="preserve">
<g>
	<path fill="#010101" d="M59,32H32.602c-1.63-1.068-3.332-2.085-5.027-3.091C20.594,24.762,14,20.845,14,14c0-6.871,6.221-10,12-10
		c7.963,0,12,2.691,12,8v3c0,0.552,0.447,1,1,1s1-0.448,1-1v-3c0-4.562-2.429-10-14-10c-8.112,0-14,5.047-14,12
		c0,7.983,7.398,12.378,14.555,16.628c0.771,0.458,1.536,0.914,2.291,1.372H1c-0.553,0-1,0.448-1,1s0.447,1,1,1h31.015
		C37.088,37.387,41,41.184,41,47c0,8.11-7.749,11-15,11c-9.421,0-14-3.271-14-10v-3c0-0.552-0.447-1-1-1s-1,0.448-1,1v3
		c0,5.474,2.775,12,16,12c10.327,0,17-5.103,17-13c0-5.731-3.237-9.699-7.556-13H59c0.553,0,1-0.448,1-1S59.553,32,59,32z"/>
</g>
</svg>
