<?xml version="1.0" encoding="utf-8"?>
<!-- Generator: Adobe Illustrator 17.0.0, SVG Export Plug-In . SVG Version: 6.00 Build 0)  -->
<!DOCTYPE svg PUBLIC "-//W3C//DTD SVG 1.1//EN" "http://www.w3.org/Graphics/SVG/1.1/DTD/svg11.dtd">
<svg version="1.1" id="Layer_1" xmlns="http://www.w3.org/2000/svg" xmlns:xlink="http://www.w3.org/1999/xlink" x="0px" y="0px"
	 width="60px" height="60px" viewBox="0 0 60 60" enable-background="new 0 0 60 60" xml:space="preserve">
<g>
	<path fill="#010101" d="M5,10c0.553,0,1-0.448,1-1V2h22v56h-8c-0.553,0-1,0.448-1,1s0.447,1,1,1h18c0.553,0,1-0.448,1-1
		s-0.447-1-1-1h-8V2h22v7c0,0.552,0.447,1,1,1s1-0.448,1-1V1c0-0.552-0.447-1-1-1H5C4.447,0,4,0.448,4,1v8C4,9.552,4.447,10,5,10z"
		/>
</g>
</svg>
