<?xml version="1.0" encoding="utf-8"?>
<!-- Generator: Adobe Illustrator 17.0.0, SVG Export Plug-In . SVG Version: 6.00 Build 0)  -->
<!DOCTYPE svg PUBLIC "-//W3C//DTD SVG 1.1//EN" "http://www.w3.org/Graphics/SVG/1.1/DTD/svg11.dtd">
<svg version="1.1" id="Layer_1" xmlns="http://www.w3.org/2000/svg" xmlns:xlink="http://www.w3.org/1999/xlink" x="0px" y="0px"
	 width="60px" height="60px" viewBox="0 0 60 60" enable-background="new 0 0 60 60" xml:space="preserve">
<g>
	<path fill="#010101" d="M59,0H1C0.448,0,0,0.448,0,1v58c0,0.552,0.448,1,1,1h58c0.552,0,1-0.448,1-1V1C60,0.448,59.552,0,59,0z
		 M58,58H2V2h56V58z"/>
	<path fill="#010101" d="M16,16h11c0.552,0,1-0.448,1-1s-0.448-1-1-1H16c-0.552,0-1,0.448-1,1S15.448,16,16,16z"/>
	<path fill="#010101" d="M7,22h20c0.552,0,1-0.448,1-1s-0.448-1-1-1H7c-0.552,0-1,0.448-1,1S6.448,22,7,22z"/>
	<path fill="#010101" d="M7,28h20c0.552,0,1-0.448,1-1s-0.448-1-1-1H7c-0.552,0-1,0.448-1,1S6.448,28,7,28z"/>
	<path fill="#010101" d="M7,34h45c0.552,0,1-0.448,1-1s-0.448-1-1-1H7c-0.552,0-1,0.448-1,1S6.448,34,7,34z"/>
	<path fill="#010101" d="M7,40h45c0.552,0,1-0.448,1-1s-0.448-1-1-1H7c-0.552,0-1,0.448-1,1S6.448,40,7,40z"/>
	<path fill="#010101" d="M7,46h32c0.552,0,1-0.448,1-1s-0.448-1-1-1H7c-0.552,0-1,0.448-1,1S6.448,46,7,46z"/>
	<path fill="#010101" d="M33,28h18c0.552,0,1-0.448,1-1V9c0-0.552-0.448-1-1-1H33c-0.552,0-1,0.448-1,1v18
		C32,27.552,32.448,28,33,28z M34,10h16v16H34V10z"/>
</g>
</svg>
