<?xml version="1.0" encoding="utf-8"?>
<!-- Generator: Adobe Illustrator 17.0.0, SVG Export Plug-In . SVG Version: 6.00 Build 0)  -->
<!DOCTYPE svg PUBLIC "-//W3C//DTD SVG 1.1//EN" "http://www.w3.org/Graphics/SVG/1.1/DTD/svg11.dtd">
<svg version="1.1" id="Layer_1" xmlns="http://www.w3.org/2000/svg" xmlns:xlink="http://www.w3.org/1999/xlink" x="0px" y="0px"
	 width="48px" height="48px" viewBox="0 0 48 48" enable-background="new 0 0 48 48" xml:space="preserve">
<g>
	<path fill="#010101" d="M43,6H5c-2.757,0-5,2.243-5,5v26c0,2.757,2.243,5,5,5h38c2.757,0,5-2.243,5-5V11C48,8.243,45.757,6,43,6z
		 M46,37c0,1.654-1.346,3-3,3H5c-1.654,0-3-1.346-3-3V11c0-1.654,1.346-3,3-3h38c1.654,0,3,1.346,3,3V37z"/>
	<path fill="#010101" d="M8.507,20l-3.45,8h2.409l0.647-2h3.389l0.636,2h2.41l-3.439-8H8.507z M8.665,25l1.153-2.849L10.962,25
		H8.665z"/>
	<polygon fill="#010101" points="20.115,22.927 17.717,20 16,20 16,28 18,28 18,23.48 19.996,26 20.183,26 22,23.48 22,28 25,28 
		25,20 22.524,20 	"/>
	<polygon fill="#010101" points="29,25 32,25 32,23 29,23 29,22 32,22 32,20 27,20 27,28 33,28 33,26 29,26 	"/>
	<path fill="#010101" d="M42.503,20h-2.95l-0.614,0.812c-0.244,0.29-0.57,0.808-0.979,1.409c-0.428-0.567-0.796-1.089-1.104-1.469
		L36.322,20h-3.007l3.159,3.843L33.164,28h2.978l0.714-0.878c0.286-0.353,0.654-0.833,1.104-1.44
		c0.098,0.13,0.297,0.378,0.597,0.739c0.301,0.363,0.464,0.563,0.49,0.6L39.874,28h3.023l-3.428-4.157L42.503,20z"/>
</g>
</svg>
