<?xml version="1.0" encoding="utf-8"?>
<!-- Generator: Adobe Illustrator 17.0.0, SVG Export Plug-In . SVG Version: 6.00 Build 0)  -->
<!DOCTYPE svg PUBLIC "-//W3C//DTD SVG 1.1//EN" "http://www.w3.org/Graphics/SVG/1.1/DTD/svg11.dtd">
<svg version="1.1" id="Layer_1" xmlns="http://www.w3.org/2000/svg" xmlns:xlink="http://www.w3.org/1999/xlink" x="0px" y="0px"
	 width="48px" height="48px" viewBox="0 0 48 48" enable-background="new 0 0 48 48" xml:space="preserve">
<path fill="#010101" d="M47.958,28.793c-0.014-0.063-0.016-0.13-0.041-0.189c-0.001-0.002,0-0.004-0.001-0.006L41.529,14H43
	c0.552,0,1-0.448,1-1s-0.448-1-1-1H26.858C26.411,10.279,24.859,9,23,9s-3.411,1.279-3.858,3H5c-0.552,0-1,0.448-1,1s0.448,1,1,1
	h1.471L0.084,28.599c-0.001,0.002,0,0.004-0.001,0.006c-0.025,0.058-0.027,0.125-0.041,0.189c-0.014,0.068-0.04,0.134-0.041,0.201
	C0.001,28.997,0,28.998,0,29c0,4.411,3.589,8,8,8s8-3.589,8-8c0-0.002-0.001-0.003-0.001-0.005c0-0.067-0.026-0.134-0.041-0.201
	c-0.014-0.063-0.016-0.13-0.041-0.189c-0.001-0.002,0-0.004-0.001-0.006L9.529,14h9.613c0.364,1.399,1.459,2.495,2.858,2.858V46h-5
	c-0.552,0-1,0.448-1,1s0.448,1,1,1h14c0.552,0,1-0.448,1-1s-0.448-1-1-1h-7V16.858c1.399-0.364,2.495-1.459,2.858-2.858h11.613
	l-6.387,14.599c-0.001,0.002,0,0.004-0.001,0.006c-0.025,0.058-0.027,0.125-0.041,0.189c-0.014,0.068-0.04,0.134-0.041,0.201
	C32.001,28.997,32,28.998,32,29c0,4.411,3.589,8,8,8s8-3.589,8-8c0-0.002-0.001-0.003-0.001-0.005
	C47.999,28.927,47.973,28.861,47.958,28.793z M8,15.495L13.471,28H2.529L8,15.495z M8,35c-2.968,0-5.439-2.166-5.917-5h11.833
	C13.439,32.834,10.968,35,8,35z M23,15c-1.103,0-2-0.897-2-2s0.897-2,2-2s2,0.897,2,2S24.103,15,23,15z M45.471,28H34.529L40,15.495
	L45.471,28z M40,35c-2.968,0-5.439-2.166-5.917-5h11.833C45.439,32.834,42.968,35,40,35z"/>
</svg>
