<?xml version="1.0" encoding="utf-8"?>
<!-- Generator: Adobe Illustrator 17.0.0, SVG Export Plug-In . SVG Version: 6.00 Build 0)  -->
<!DOCTYPE svg PUBLIC "-//W3C//DTD SVG 1.1//EN" "http://www.w3.org/Graphics/SVG/1.1/DTD/svg11.dtd">
<svg version="1.1" id="Layer_1" xmlns="http://www.w3.org/2000/svg" xmlns:xlink="http://www.w3.org/1999/xlink" x="0px" y="0px"
	 width="48px" height="48px" viewBox="0 0 48 48" enable-background="new 0 0 48 48" xml:space="preserve">
<g>
	<path fill="#010101" d="M40,0H0v26h40V0z M38,24H2V2h36V24z"/>
	<path fill="#010101" d="M44,5c0-0.552-0.447-1-1-1s-1,0.448-1,1v23H5c-0.553,0-1,0.448-1,1s0.447,1,1,1h39V5z"/>
	<path fill="#010101" d="M47,8c-0.553,0-1,0.448-1,1v23H9c-0.553,0-1,0.448-1,1s0.447,1,1,1h39V9C48,8.448,47.553,8,47,8z"/>
	<path fill="#010101" d="M20,20c3.859,0,7-3.14,7-7s-3.141-7-7-7s-7,3.14-7,7S16.141,20,20,20z M20,8c2.757,0,5,2.243,5,5
		s-2.243,5-5,5s-5-2.243-5-5S17.243,8,20,8z"/>
	<path fill="#010101" d="M5,22h4c0.553,0,1-0.448,1-1s-0.447-1-1-1H5c-0.553,0-1,0.448-1,1S4.447,22,5,22z"/>
	<path fill="#010101" d="M31,6h4c0.553,0,1-0.448,1-1s-0.447-1-1-1h-4c-0.553,0-1,0.448-1,1S30.447,6,31,6z"/>
</g>
</svg>
