<?xml version="1.0" encoding="utf-8"?>
<!-- Generator: Adobe Illustrator 17.1.0, SVG Export Plug-In . SVG Version: 6.00 Build 0)  -->
<!DOCTYPE svg PUBLIC "-//W3C//DTD SVG 1.0//EN" "http://www.w3.org/TR/2001/REC-SVG-20010904/DTD/svg10.dtd">
<svg version="1.0" id="Layer_1" xmlns="http://www.w3.org/2000/svg" xmlns:xlink="http://www.w3.org/1999/xlink" x="0px" y="0px"
	 width="48px" height="48px" viewBox="0 0 48 48" enable-background="new 0 0 48 48" xml:space="preserve">
<g>
	<path d="M47,45H1c-0.553,0-1,0.448-1,1c0,0.552,0.447,1,1,1h46c0.553,0,1-0.448,1-1C48,45.448,47.553,45,47,45z"/>
	<path d="M14,24c0-0.552-0.447-1-1-1H3c-0.553,0-1,0.448-1,1c0,0.552,0.447,1,1,1v16c-0.553,0-1,0.448-1,1c0,0.552,0.447,1,1,1h10
		c0.553,0,1-0.448,1-1c0-0.552-0.447-1-1-1V25C13.553,25,14,24.552,14,24z M5,25h2v16H5V25z M11,41H9V25h2V41z"/>
	<path d="M30,24c0-0.552-0.447-1-1-1H19c-0.553,0-1,0.448-1,1c0,0.552,0.447,1,1,1v16c-0.553,0-1,0.448-1,1c0,0.552,0.447,1,1,1h10
		c0.553,0,1-0.448,1-1c0-0.552-0.447-1-1-1V25C29.553,25,30,24.552,30,24z M21,25h2v16h-2V25z M27,41h-2V25h2V41z"/>
	<path d="M46,24c0-0.552-0.447-1-1-1H35c-0.553,0-1,0.448-1,1c0,0.552,0.447,1,1,1v16c-0.553,0-1,0.448-1,1c0,0.552,0.447,1,1,1h10
		c0.553,0,1-0.448,1-1c0-0.552-0.447-1-1-1V25C45.553,25,46,24.552,46,24z M37,25h2v16h-2V25z M43,41h-2V25h2V41z"/>
	<path d="M1,21h46c0.427,0,0.806-0.271,0.945-0.673c0.139-0.403,0.008-0.85-0.328-1.113l-22.938-18
		c-0.361-0.284-0.871-0.285-1.232-0.002l-23.062,18c-0.337,0.263-0.47,0.709-0.33,1.113C0.194,20.729,0.573,21,1,21z M24.061,3.27
		L44.106,19H3.906L24.061,3.27z"/>
</g>
</svg>
