<?xml version="1.0" encoding="utf-8"?>
<!-- Generator: Adobe Illustrator 17.1.0, SVG Export Plug-In . SVG Version: 6.00 Build 0)  -->
<!DOCTYPE svg PUBLIC "-//W3C//DTD SVG 1.0//EN" "http://www.w3.org/TR/2001/REC-SVG-20010904/DTD/svg10.dtd">
<svg version="1.0" id="Layer_1" xmlns="http://www.w3.org/2000/svg" xmlns:xlink="http://www.w3.org/1999/xlink" x="0px" y="0px"
	 width="48px" height="48px" viewBox="0 0 48 48" enable-background="new 0 0 48 48" xml:space="preserve">
<path d="M47,0H1C0.447,0,0,0.448,0,1v32c0,0.552,0.447,1,1,1h20.586L9.293,46.293c-0.391,0.39-0.391,1.024,0,1.414
	c0.391,0.391,1.023,0.391,1.414,0L23,35.414V47c0,0.552,0.447,1,1,1s1-0.448,1-1V35.414l12.293,12.293
	C37.488,47.902,37.744,48,38,48s0.512-0.098,0.707-0.293c0.391-0.39,0.391-1.024,0-1.414L26.414,34H47c0.553,0,1-0.448,1-1V1
	C48,0.448,47.553,0,47,0z M46,2v6H2V2H46z M24,32L24,32H2V10h44v22H24z"/>
</svg>
