<?xml version="1.0" encoding="utf-8"?>
<!-- Generator: Adobe Illustrator 17.0.0, SVG Export Plug-In . SVG Version: 6.00 Build 0)  -->
<!DOCTYPE svg PUBLIC "-//W3C//DTD SVG 1.1//EN" "http://www.w3.org/Graphics/SVG/1.1/DTD/svg11.dtd">
<svg version="1.1" id="Layer_1" xmlns="http://www.w3.org/2000/svg" xmlns:xlink="http://www.w3.org/1999/xlink" x="0px" y="0px"
	 width="48px" height="48px" viewBox="0 0 48 48" enable-background="new 0 0 48 48" xml:space="preserve">
<g>
	<path fill="#010101" d="M28,10v3c0,0.552,0.447,1,1,1s1-0.448,1-1V9.094C30.003,9.062,30.019,9.033,30.019,9
		c0-0.337-0.166-0.635-0.42-0.816l-7.892-7.891C21.519,0.106,21.266,0,21,0H9C8.734,0,8.48,0.106,8.293,0.293L0.294,8.292
		C0.292,8.294,0.291,8.297,0.289,8.299C0.207,8.382,0.147,8.478,0.099,8.58C0.085,8.611,0.077,8.642,0.066,8.674
		C0.036,8.76,0.018,8.848,0.012,8.939C0.011,8.96,0,8.978,0,9v22c0,0.552,0.447,1,1,1h12c0.553,0,1-0.448,1-1s-0.447-1-1-1H2V10H28z
		 M26.586,8H16V2h4.586L26.586,8z M9.414,2H14v6H3.414L9.414,2z"/>
	<path fill="#010101" d="M33,18c-8.272,0-15,6.729-15,15s6.728,15,15,15c8.271,0,15-6.729,15-15S41.271,18,33,18z M33,46
		c-7.168,0-13-5.831-13-13c0-7.168,5.832-13,13-13c7.168,0,13,5.832,13,13C46,40.169,40.168,46,33,46z"/>
	<path fill="#010101" d="M38.293,34.293L34,38.586V27c0-0.552-0.447-1-1-1s-1,0.448-1,1v11.586l-4.293-4.293
		c-0.391-0.391-1.023-0.391-1.414,0c-0.391,0.391-0.391,1.023,0,1.414l5.999,5.999c0.092,0.093,0.203,0.166,0.326,0.217
		C32.74,41.973,32.87,42,33,42c0.13,0,0.26-0.026,0.382-0.077c0.123-0.051,0.234-0.124,0.326-0.217l5.999-5.999
		c0.391-0.391,0.391-1.023,0-1.414C39.316,33.902,38.684,33.902,38.293,34.293z"/>
</g>
</svg>
