<?xml version="1.0" encoding="utf-8"?>
<!-- Generator: Adobe Illustrator 17.0.0, SVG Export Plug-In . SVG Version: 6.00 Build 0)  -->
<!DOCTYPE svg PUBLIC "-//W3C//DTD SVG 1.1//EN" "http://www.w3.org/Graphics/SVG/1.1/DTD/svg11.dtd">
<svg version="1.1" id="Layer_1" xmlns="http://www.w3.org/2000/svg" xmlns:xlink="http://www.w3.org/1999/xlink" x="0px" y="0px"
	 width="48px" height="48px" viewBox="0 0 48 48" enable-background="new 0 0 48 48" xml:space="preserve">
<g>
	<path fill="#010101" d="M48,11.01V11c0-0.114-0.026-0.223-0.062-0.327c-0.009-0.025-0.018-0.048-0.028-0.073
		c-0.045-0.103-0.102-0.199-0.179-0.282c-0.009-0.01-0.021-0.017-0.031-0.026c-0.047-0.046-0.095-0.092-0.151-0.128
		c-0.035-0.023-0.074-0.036-0.111-0.055c-0.014-0.007-0.023-0.02-0.038-0.026l-23-10c-0.255-0.11-0.543-0.11-0.798,0l-23,10
		c-0.015,0.006-0.024,0.02-0.038,0.027c-0.037,0.018-0.076,0.031-0.111,0.054c-0.056,0.037-0.104,0.082-0.151,0.128
		c-0.01,0.01-0.022,0.016-0.031,0.026c-0.077,0.083-0.134,0.179-0.18,0.282c-0.011,0.024-0.02,0.047-0.028,0.072
		C0.026,10.777,0,10.886,0,11v0.01c0,0,0,0,0,0.001V37c0,0.398,0.236,0.758,0.601,0.917l23,10c0.014,0.006,0.03,0.004,0.045,0.009
		C23.76,47.97,23.879,48,24,48s0.24-0.03,0.354-0.074c0.015-0.006,0.031-0.003,0.045-0.009l23-10C47.764,37.758,48,37.398,48,37
		V11.01C48,11.011,48,11.01,48,11.01z M24,2.09L44.492,11l-9.225,4.011L16.678,5.274L24,2.09z M24,19.91L3.508,11l10.815-4.702
		l18.589,9.737L24,19.91z M2,12.526l21,9.13v23.818l-21-9.13V12.526z M46,36.345l-21,9.13V21.656l21-9.131V36.345z"/>
	<path fill="#010101" d="M18.413,24.09l-11-5c-0.309-0.141-0.669-0.115-0.955,0.069C6.173,19.343,6,19.66,6,20v10
		c0,0.392,0.229,0.748,0.586,0.91l11,5C17.718,35.97,17.859,36,18,36c0.189,0,0.377-0.054,0.541-0.159C18.827,35.657,19,35.34,19,35
		V25C19,24.608,18.771,24.252,18.413,24.09z M17,33.447l-9-4.091v-7.803l9,4.091V33.447z"/>
</g>
</svg>
