<?xml version="1.0" encoding="utf-8"?>
<!-- Generator: Adobe Illustrator 17.1.0, SVG Export Plug-In . SVG Version: 6.00 Build 0)  -->
<!DOCTYPE svg PUBLIC "-//W3C//DTD SVG 1.0//EN" "http://www.w3.org/TR/2001/REC-SVG-20010904/DTD/svg10.dtd">
<svg version="1.0" id="Layer_1" xmlns="http://www.w3.org/2000/svg" xmlns:xlink="http://www.w3.org/1999/xlink" x="0px" y="0px"
	 width="48px" height="48px" viewBox="0 0 48 48" enable-background="new 0 0 48 48" xml:space="preserve">
<path d="M0,0v48h48V0H0z M40,23H8v-7h32V23z M8,25h32v7H8V25z M40,14H8V8h32V14z M8,34h32v6H8V34z M40.586,6H7.414l-4-4h41.172
	L40.586,6z M6,7.414v33.172l-4,4V3.414L6,7.414z M7.414,42h33.172l4,4H3.414L7.414,42z M42,40.586V7.414l4-4v41.172L42,40.586z"/>
</svg>
