<?xml version="1.0" encoding="utf-8"?>
<!-- Generator: Adobe Illustrator 17.0.0, SVG Export Plug-In . SVG Version: 6.00 Build 0)  -->
<!DOCTYPE svg PUBLIC "-//W3C//DTD SVG 1.1//EN" "http://www.w3.org/Graphics/SVG/1.1/DTD/svg11.dtd">
<svg version="1.1" id="Layer_1" xmlns="http://www.w3.org/2000/svg" xmlns:xlink="http://www.w3.org/1999/xlink" x="0px" y="0px"
	 width="48px" height="48px" viewBox="0 0 48 48" enable-background="new 0 0 48 48" xml:space="preserve">
<path fill="#010101" d="M47,46h-1V17c0-0.552-0.447-1-1-1h-6c-0.553,0-1,0.448-1,1v29h-4V31c0-0.552-0.447-1-1-1h-6
	c-0.553,0-1,0.448-1,1v15h-4V27c0-0.552-0.447-1-1-1h-6c-0.553,0-1,0.448-1,1v19h-4v-9c0-0.552-0.447-1-1-1H3c-0.553,0-1,0.448-1,1
	v9H1c-0.553,0-1,0.448-1,1s0.447,1,1,1h2h6h6h6h6h6h6h6h2c0.553,0,1-0.448,1-1S47.553,46,47,46z M4,46v-8h4v8H4z M16,46V28h4v18H16z
	 M28,46V32h4v14H28z M40,46V18h4v28H40z"/>
</svg>
