<?xml version="1.0" encoding="utf-8"?>
<!-- Generator: Adobe Illustrator 17.0.0, SVG Export Plug-In . SVG Version: 6.00 Build 0)  -->
<!DOCTYPE svg PUBLIC "-//W3C//DTD SVG 1.1//EN" "http://www.w3.org/Graphics/SVG/1.1/DTD/svg11.dtd">
<svg version="1.1" id="Layer_1" xmlns="http://www.w3.org/2000/svg" xmlns:xlink="http://www.w3.org/1999/xlink" x="0px" y="0px"
	 width="48px" height="48px" viewBox="0 0 48 48" enable-background="new 0 0 48 48" xml:space="preserve">
<g>
	<path d="M38,0H12C8.691,0,6,2.691,6,6v36c0,3.309,2.691,6,6,6h26c3.309,0,6-2.691,6-6V6C44,2.691,41.309,0,38,0z M12,2h26
		c2.206,0,4,1.794,4,4v10H8V6C8,3.794,9.794,2,12,2z M26,18h16v12H26V18z M24,30H8V18h16V30z M8,42V32h16v14H12
		C9.794,46,8,44.206,8,42z M38,46H26V32h16v10C42,44.206,40.206,46,38,46z"/>
	<path d="M12.789,14h24.422C38.749,14,40,12.749,40,11.211V6.789C40,5.251,38.749,4,37.211,4H12.789C11.251,4,10,5.251,10,6.789
		v4.422C10,12.749,11.251,14,12.789,14z M12,6.789C12,6.354,12.353,6,12.789,6h24.422C37.646,6,38,6.354,38,6.789v4.422
		C38,11.646,37.646,12,37.211,12H12.789C12.353,12,12,11.646,12,11.211V6.789z"/>
	<polygon points="12,25 15,25 15,28 17,28 17,25 20,25 20,23 17,23 17,20 15,20 15,23 12,23 	"/>
	<rect x="30" y="24" width="8" height="2"/>
	<polygon points="19.863,41.295 17.423,38.833 19.862,36.393 18.448,34.979 16.015,37.412 13.551,34.926 12.131,36.334 
		14.601,38.826 12.135,41.292 13.549,42.706 16.009,40.247 18.443,42.703 	"/>
	<rect x="30" y="40" width="8" height="2"/>
	<rect x="30" y="36" width="8" height="2"/>
</g>
</svg>
