<?xml version="1.0" encoding="utf-8"?>
<!-- Generator: Adobe Illustrator 17.0.0, SVG Export Plug-In . SVG Version: 6.00 Build 0)  -->
<!DOCTYPE svg PUBLIC "-//W3C//DTD SVG 1.1//EN" "http://www.w3.org/Graphics/SVG/1.1/DTD/svg11.dtd">
<svg version="1.1" id="Layer_1" xmlns="http://www.w3.org/2000/svg" xmlns:xlink="http://www.w3.org/1999/xlink" x="0px" y="0px"
	 width="48px" height="48px" viewBox="0 0 48 48" enable-background="new 0 0 48 48" xml:space="preserve">
<g>
	<path fill="#010101" d="M13.414,35l3.293-3.293c0.391-0.391,0.391-1.023,0-1.414c-0.391-0.391-1.023-0.391-1.414,0L12,33.586
		l-3.293-3.293c-0.391-0.391-1.023-0.391-1.414,0c-0.391,0.391-0.391,1.023,0,1.414L10.586,35l-3.293,3.293
		c-0.391,0.391-0.391,1.023,0,1.414C7.488,39.902,7.744,40,8,40s0.512-0.098,0.707-0.293L12,36.414l3.293,3.293
		C15.488,39.902,15.744,40,16,40s0.512-0.098,0.707-0.293c0.391-0.391,0.391-1.023,0-1.414L13.414,35z"/>
	<path fill="#010101" d="M6,14h4v4c0,0.552,0.448,1,1,1s1-0.448,1-1v-4h4c0.552,0,1-0.448,1-1s-0.448-1-1-1h-4V8
		c0-0.552-0.448-1-1-1s-1,0.448-1,1v4H6c-0.552,0-1,0.448-1,1S5.448,14,6,14z"/>
	<path fill="#010101" d="M30,14h10c0.552,0,1-0.448,1-1s-0.448-1-1-1H30c-0.552,0-1,0.448-1,1S29.448,14,30,14z"/>
	<path fill="#010101" d="M40,36H30c-0.552,0-1,0.448-1,1s0.448,1,1,1h10c0.552,0,1-0.448,1-1S40.552,36,40,36z"/>
	<path fill="#010101" d="M40,32H30c-0.552,0-1,0.448-1,1s0.448,1,1,1h10c0.552,0,1-0.448,1-1S40.552,32,40,32z"/>
	<path fill="#010101" d="M41,0H7C3.14,0,0,3.14,0,7v34c0,3.86,3.14,7,7,7h34c3.86,0,7-3.14,7-7V7C48,3.14,44.86,0,41,0z M46,7v15H24
		V2h17C43.757,2,46,4.243,46,7z M7,2h15v20H2V7C2,4.243,4.243,2,7,2z M2,41V24h20v22H7C4.243,46,2,43.757,2,41z M41,46H24V24h22v17
		C46,43.757,43.757,46,41,46z"/>
</g>
</svg>
