<?xml version="1.0" encoding="utf-8"?>
<!-- Generator: Adobe Illustrator 17.0.0, SVG Export Plug-In . SVG Version: 6.00 Build 0)  -->
<!DOCTYPE svg PUBLIC "-//W3C//DTD SVG 1.1//EN" "http://www.w3.org/Graphics/SVG/1.1/DTD/svg11.dtd">
<svg version="1.1" id="Layer_1" xmlns="http://www.w3.org/2000/svg" xmlns:xlink="http://www.w3.org/1999/xlink" x="0px" y="0px"
	 width="48px" height="48px" viewBox="0 0 48 48" enable-background="new 0 0 48 48" xml:space="preserve">
<g>
	<path fill="#010101" d="M37,0H9C7.346,0,6,1.346,6,3v42c0,1.654,1.346,3,3,3h28c1.654,0,3-1.346,3-3V3C40,1.346,38.654,0,37,0z
		 M38,45c0,0.551-0.449,1-1,1H9c-0.551,0-1-0.449-1-1V3c0-0.551,0.449-1,1-1h28c0.551,0,1,0.449,1,1V45z"/>
	<path fill="#010101" d="M35,4H11c-0.552,0-1,0.448-1,1v10c0,0.552,0.448,1,1,1h24c0.552,0,1-0.448,1-1V5C36,4.448,35.552,4,35,4z
		 M34,14H12V6h22V14z"/>
	<path fill="#010101" d="M31,12c0.552,0,1-0.448,1-1V9c0-0.552-0.448-1-1-1s-1,0.448-1,1v2C30,11.552,30.448,12,31,12z"/>
	<path fill="#010101" d="M15,22h-2c-0.552,0-1,0.448-1,1s0.448,1,1,1h2c0.552,0,1-0.448,1-1S15.552,22,15,22z"/>
	<path fill="#010101" d="M21,22h-2c-0.552,0-1,0.448-1,1s0.448,1,1,1h2c0.552,0,1-0.448,1-1S21.552,22,21,22z"/>
	<path fill="#010101" d="M25,24h2c0.552,0,1-0.448,1-1s-0.448-1-1-1h-2c-0.552,0-1,0.448-1,1S24.448,24,25,24z"/>
	<path fill="#010101" d="M33,22h-2c-0.552,0-1,0.448-1,1s0.448,1,1,1h2c0.552,0,1-0.448,1-1S33.552,22,33,22z"/>
	<path fill="#010101" d="M15,28h-2c-0.552,0-1,0.448-1,1s0.448,1,1,1h2c0.552,0,1-0.448,1-1S15.552,28,15,28z"/>
	<path fill="#010101" d="M21,28h-2c-0.552,0-1,0.448-1,1s0.448,1,1,1h2c0.552,0,1-0.448,1-1S21.552,28,21,28z"/>
	<path fill="#010101" d="M25,30h2c0.552,0,1-0.448,1-1s-0.448-1-1-1h-2c-0.552,0-1,0.448-1,1S24.448,30,25,30z"/>
	<path fill="#010101" d="M33,28h-2c-0.552,0-1,0.448-1,1s0.448,1,1,1h2c0.552,0,1-0.448,1-1S33.552,28,33,28z"/>
	<path fill="#010101" d="M15,34h-2c-0.552,0-1,0.448-1,1s0.448,1,1,1h2c0.552,0,1-0.448,1-1S15.552,34,15,34z"/>
	<path fill="#010101" d="M21,34h-2c-0.552,0-1,0.448-1,1s0.448,1,1,1h2c0.552,0,1-0.448,1-1S21.552,34,21,34z"/>
	<path fill="#010101" d="M25,36h2c0.552,0,1-0.448,1-1s-0.448-1-1-1h-2c-0.552,0-1,0.448-1,1S24.448,36,25,36z"/>
	<path fill="#010101" d="M33,34h-2c-0.552,0-1,0.448-1,1s0.448,1,1,1h2c0.552,0,1-0.448,1-1S33.552,34,33,34z"/>
	<path fill="#010101" d="M15,40h-2c-0.552,0-1,0.448-1,1s0.448,1,1,1h2c0.552,0,1-0.448,1-1S15.552,40,15,40z"/>
	<path fill="#010101" d="M21,40h-2c-0.552,0-1,0.448-1,1s0.448,1,1,1h2c0.552,0,1-0.448,1-1S21.552,40,21,40z"/>
	<path fill="#010101" d="M33,40h-8c-0.552,0-1,0.448-1,1s0.448,1,1,1h8c0.552,0,1-0.448,1-1S33.552,40,33,40z"/>
</g>
</svg>
