<?xml version="1.0" encoding="utf-8"?>
<!-- Generator: Adobe Illustrator 17.0.0, SVG Export Plug-In . SVG Version: 6.00 Build 0)  -->
<!DOCTYPE svg PUBLIC "-//W3C//DTD SVG 1.1//EN" "http://www.w3.org/Graphics/SVG/1.1/DTD/svg11.dtd">
<svg version="1.1" id="Layer_1" xmlns="http://www.w3.org/2000/svg" xmlns:xlink="http://www.w3.org/1999/xlink" x="0px" y="0px"
	 width="48px" height="48px" viewBox="0 0 48 48" enable-background="new 0 0 48 48" xml:space="preserve">
<g>
	<path fill="#010101" d="M47.993,36.965c-0.004-0.106-0.025-0.21-0.063-0.312c-0.008-0.021-0.012-0.041-0.021-0.061
		c-0.006-0.013-0.007-0.026-0.014-0.039L42,24.763V13c0-0.552-0.448-1-1-1h-5V8h3c1.654,0,3-1.346,3-3V3c0-1.654-1.346-3-3-3h-8
		c-1.654,0-3,1.346-3,3v2c0,1.654,1.346,3,3,3h3v4H20V5c0-0.308-0.142-0.599-0.385-0.788c-0.243-0.19-0.561-0.258-0.858-0.182l-8,2
		C10.312,6.141,10,6.541,10,7v5H7c-0.552,0-1,0.448-1,1v11.763l-5.895,11.79c-0.006,0.013-0.008,0.026-0.014,0.039
		c-0.009,0.02-0.014,0.041-0.021,0.061c-0.038,0.101-0.059,0.206-0.063,0.312C0.007,36.977,0,36.988,0,37v10c0,0.552,0.448,1,1,1h46
		c0.552,0,1-0.448,1-1V37C48,36.988,47.993,36.977,47.993,36.965z M30,5V3c0-0.551,0.449-1,1-1h8c0.551,0,1,0.449,1,1v2
		c0,0.551-0.449,1-1,1h-8C30.449,6,30,5.551,30,5z M12,7.781l6-1.5V12h-6V7.781z M8,14h3h8h21v10H8V14z M7.618,26h32.764l5,10H2.618
		L7.618,26z M46,46H2v-8h44V46z"/>
	<path fill="#010101" d="M17,44c0.552,0,1-0.448,1-1v-1h10v1c0,0.552,0.448,1,1,1s1-0.448,1-1v-2c0-0.552-0.448-1-1-1H17
		c-0.552,0-1,0.448-1,1v2C16,43.552,16.448,44,17,44z"/>
	<rect x="11" y="32" fill="#010101" width="2" height="2"/>
	<rect x="17" y="32" fill="#010101" width="2" height="2"/>
	<rect x="23" y="32" fill="#010101" width="2" height="2"/>
	<rect x="29" y="32" fill="#010101" width="2" height="2"/>
	<rect x="35" y="32" fill="#010101" width="2" height="2"/>
	<rect x="32" y="29" fill="#010101" width="2" height="2"/>
	<rect x="26" y="29" fill="#010101" width="2" height="2"/>
	<rect x="20" y="29" fill="#010101" width="2" height="2"/>
	<rect x="14" y="29" fill="#010101" width="2" height="2"/>
	<path fill="#010101" d="M22,16H11c-0.552,0-1,0.448-1,1v4c0,0.552,0.448,1,1,1h11c0.552,0,1-0.448,1-1v-4
		C23,16.448,22.552,16,22,16z M21,20h-9v-2h9V20z"/>
	<path fill="#010101" d="M37,18h-9c-0.552,0-1,0.448-1,1s0.448,1,1,1h9c0.552,0,1-0.448,1-1S37.552,18,37,18z"/>
</g>
</svg>
