<?xml version="1.0" encoding="utf-8"?>
<!-- Generator: Adobe Illustrator 17.0.0, SVG Export Plug-In . SVG Version: 6.00 Build 0)  -->
<!DOCTYPE svg PUBLIC "-//W3C//DTD SVG 1.1//EN" "http://www.w3.org/Graphics/SVG/1.1/DTD/svg11.dtd">
<svg version="1.1" id="Layer_1" xmlns="http://www.w3.org/2000/svg" xmlns:xlink="http://www.w3.org/1999/xlink" x="0px" y="0px"
	 width="48px" height="48px" viewBox="0 0 48 48" enable-background="new 0 0 48 48" xml:space="preserve">
<g>
	<path fill="#010101" d="M47,46h-1v-5c0-0.552-0.447-1-1-1h-6c-0.553,0-1,0.448-1,1v5h-4V33c0-0.552-0.447-1-1-1h-6
		c-0.553,0-1,0.448-1,1v13h-4V25c0-0.552-0.447-1-1-1h-6c-0.553,0-1,0.448-1,1v21h-4V17c0-0.552-0.447-1-1-1H3c-0.553,0-1,0.448-1,1
		v29H1c-0.553,0-1,0.448-1,1s0.447,1,1,1h2h6h6h6h6h6h6h6h2c0.553,0,1-0.448,1-1S47.553,46,47,46z M4,46V18h4v28H4z M16,46V26h4v20
		H16z M28,46V34h4v12H28z M40,46v-4h4v4H40z"/>
	<path fill="#010101" d="M39.232,26.301l-5.363,0.708c-0.548,0.072-0.932,0.575-0.86,1.122C33.075,28.634,33.505,29,33.999,29
		c0.043,0,0.088-0.003,0.132-0.009l8-1.056c0.011-0.001,0.02-0.009,0.031-0.011c0.115-0.019,0.225-0.054,0.327-0.112
		c0.015-0.009,0.028-0.02,0.043-0.029c0.085-0.054,0.161-0.121,0.228-0.201c0.013-0.016,0.028-0.03,0.041-0.047
		c0.009-0.013,0.022-0.022,0.031-0.035c0.029-0.044,0.036-0.094,0.058-0.141c0.029-0.061,0.06-0.118,0.076-0.185
		c0.018-0.074,0.016-0.146,0.016-0.221c0.001-0.046,0.016-0.088,0.01-0.134l-1-7.944c-0.068-0.547-0.553-0.938-1.117-0.867
		c-0.548,0.069-0.936,0.569-0.867,1.117l0.727,5.775L6.555,2.113C6.093,1.806,5.473,1.931,5.168,2.39
		C4.861,2.849,4.985,3.47,5.445,3.776L39.232,26.301z"/>
</g>
</svg>
