<?xml version="1.0" encoding="utf-8"?>
<!-- Generator: Adobe Illustrator 17.1.0, SVG Export Plug-In . SVG Version: 6.00 Build 0)  -->
<!DOCTYPE svg PUBLIC "-//W3C//DTD SVG 1.0//EN" "http://www.w3.org/TR/2001/REC-SVG-20010904/DTD/svg10.dtd">
<svg version="1.0" id="Layer_1" xmlns="http://www.w3.org/2000/svg" xmlns:xlink="http://www.w3.org/1999/xlink" x="0px" y="0px"
	 width="48px" height="48px" viewBox="0 0 48 48" enable-background="new 0 0 48 48" xml:space="preserve">
<g>
	<path d="M47,0H1C0.447,0,0,0.448,0,1v30c0,0.552,0.447,1,1,1h22v4.586l-9.707,9.707c-0.391,0.39-0.391,1.024,0,1.414
		c0.391,0.391,1.023,0.391,1.414,0L24,38.414l9.293,9.293C33.488,47.902,33.744,48,34,48s0.512-0.098,0.707-0.293
		c0.391-0.39,0.391-1.024,0-1.414L25,36.586V32h22c0.553,0,1-0.448,1-1V1C48,0.448,47.553,0,47,0z M46,30H2V2h44V30z"/>
	<path d="M5,28h38c0.553,0,1-0.448,1-1V5c0-0.552-0.447-1-1-1H5C4.447,4,4,4.448,4,5v22C4,27.552,4.447,28,5,28z M42,6v20H6v-8h7
		c0.304,0,0.591-0.138,0.781-0.375l2.973-3.717l3.332,7.498c0.141,0.316,0.434,0.537,0.776,0.584C20.908,21.997,20.954,22,21,22
		c0.295,0,0.577-0.13,0.769-0.36l4.299-5.159l3.226,3.226c0.21,0.209,0.504,0.316,0.794,0.289c0.295-0.025,0.562-0.181,0.732-0.423
		l7-10c0.316-0.452,0.207-1.076-0.246-1.392c-0.452-0.316-1.076-0.207-1.393,0.246l-6.316,9.023l-3.157-3.157
		c-0.197-0.198-0.472-0.308-0.752-0.292c-0.281,0.013-0.543,0.143-0.724,0.359l-3.971,4.765l-3.347-7.531
		c-0.142-0.319-0.44-0.541-0.786-0.585c-0.354-0.047-0.691,0.095-0.909,0.367L12.52,16H6V6H42z"/>
</g>
</svg>
