<?xml version="1.0" encoding="utf-8"?>
<!-- Generator: Adobe Illustrator 17.0.0, SVG Export Plug-In . SVG Version: 6.00 Build 0)  -->
<!DOCTYPE svg PUBLIC "-//W3C//DTD SVG 1.1//EN" "http://www.w3.org/Graphics/SVG/1.1/DTD/svg11.dtd">
<svg version="1.1" id="Layer_1" xmlns="http://www.w3.org/2000/svg" xmlns:xlink="http://www.w3.org/1999/xlink" x="0px" y="0px"
	 width="48px" height="48px" viewBox="0 0 48 48" enable-background="new 0 0 48 48" xml:space="preserve">
<path fill="#010101" d="M32,26v-3v-6v-6V5c0-3.435-8.294-5-16-5S0,1.565,0,5v6v6v6v6v6c0,3.436,8.294,5,16,5v3c0,3.436,8.294,5,16,5
	s16-1.564,16-5v-6v-6C48,27.565,39.706,26,32,26z M46,37c0,0.897-4.763,3-14,3s-14-2.103-14-3v-3.414C20.921,35.228,26.599,36,32,36
	s11.079-0.772,14-2.414V37z M30,11c0,0.897-4.763,3-14,3S2,11.897,2,11V7.586C4.921,9.228,10.599,10,16,10s11.079-0.772,14-2.414V11
	z M16,16c5.401,0,11.079-0.772,14-2.414V17c0,0.897-4.763,3-14,3S2,17.897,2,17v-3.414C4.921,15.228,10.599,16,16,16z M16,22
	c5.401,0,11.079-0.772,14-2.414V23c0,0.897-4.763,3-14,3S2,23.897,2,23v-3.414C4.921,21.228,10.599,22,16,22z M2,25.586
	C4.921,27.228,10.599,28,16,28c0.999,0,2.008-0.028,3.008-0.081C17.158,28.696,16,29.717,16,31v1c-9.237,0-14-2.103-14-3V25.586z
	 M46,31c0,0.897-4.763,3-14,3s-14-2.103-14-3s4.763-3,14-3S46,30.103,46,31z M28.993,26.081c0.367-0.154,0.698-0.321,1.007-0.495
	v0.454C29.664,26.051,29.328,26.063,28.993,26.081z M16,2c9.237,0,14,2.103,14,3s-4.763,3-14,3S2,5.897,2,5S6.763,2,16,2z M2,35
	v-3.414C4.921,33.228,10.599,34,16,34v3v1C6.763,38,2,35.897,2,35z M32,46c-9.237,0-14-2.103-14-3v-3.414
	C20.921,41.228,26.599,42,32,42s11.079-0.772,14-2.414V43C46,43.897,41.237,46,32,46z"/>
</svg>
