<?xml version="1.0" encoding="utf-8"?>
<!-- Generator: Adobe Illustrator 17.0.0, SVG Export Plug-In . SVG Version: 6.00 Build 0)  -->
<!DOCTYPE svg PUBLIC "-//W3C//DTD SVG 1.1//EN" "http://www.w3.org/Graphics/SVG/1.1/DTD/svg11.dtd">
<svg version="1.1" id="Layer_1" xmlns="http://www.w3.org/2000/svg" xmlns:xlink="http://www.w3.org/1999/xlink" x="0px" y="0px"
	 width="48px" height="48px" viewBox="0 0 48 48" enable-background="new 0 0 48 48" xml:space="preserve">
<g>
	<path fill="#010101" d="M32,0c-8.822,0-16,7.178-16,16C7.178,16,0,23.178,0,32s7.178,16,16,16s16-7.178,16-16
		c8.822,0,16-7.178,16-16S40.822,0,32,0z M30,32c0,7.72-6.28,14-14,14S2,39.72,2,32s6.28-14,14-14c0.047,0,0.093,0.005,0.14,0.007
		c0.909,7.217,6.636,12.944,13.853,13.854C29.994,31.907,30,31.953,30,32z M32,30c-7.72,0-14-6.28-14-14S24.28,2,32,2
		c7.72,0,14,6.28,14,14S39.72,30,32,30z"/>
	<path fill="#010101" d="M32,11c1.103,0,2,0.897,2,2c0,0.552,0.448,1,1,1s1-0.448,1-1c0-1.859-1.279-3.411-3-3.858V8
		c0-0.552-0.448-1-1-1s-1,0.448-1,1v1.142c-1.721,0.447-3,1.999-3,3.858c0,2.206,1.794,4,4,4c1.103,0,2,0.897,2,2s-0.897,2-2,2
		s-2-0.897-2-2c0-0.552-0.448-1-1-1s-1,0.448-1,1c0,1.859,1.279,3.411,3,3.858V24c0,0.552,0.448,1,1,1s1-0.448,1-1v-1.142
		c1.721-0.447,3-1.999,3-3.858c0-2.206-1.794-4-4-4c-1.103,0-2-0.897-2-2S30.897,11,32,11z"/>
	<path fill="#010101" d="M16,27c1.103,0,2,0.897,2,2c0,0.552,0.448,1,1,1s1-0.448,1-1c0-1.859-1.279-3.411-3-3.858V24
		c0-0.552-0.448-1-1-1s-1,0.448-1,1v1.142c-1.721,0.447-3,1.999-3,3.858c0,2.206,1.794,4,4,4c1.103,0,2,0.897,2,2s-0.897,2-2,2
		s-2-0.897-2-2c0-0.552-0.448-1-1-1s-1,0.448-1,1c0,1.859,1.279,3.411,3,3.858V40c0,0.552,0.448,1,1,1s1-0.448,1-1v-1.142
		c1.721-0.447,3-1.999,3-3.858c0-2.206-1.794-4-4-4c-1.103,0-2-0.897-2-2S14.897,27,16,27z"/>
</g>
</svg>
