<?xml version="1.0" encoding="utf-8"?>
<!-- Generator: Adobe Illustrator 17.0.0, SVG Export Plug-In . SVG Version: 6.00 Build 0)  -->
<!DOCTYPE svg PUBLIC "-//W3C//DTD SVG 1.1//EN" "http://www.w3.org/Graphics/SVG/1.1/DTD/svg11.dtd">
<svg version="1.1" id="Layer_1" xmlns="http://www.w3.org/2000/svg" xmlns:xlink="http://www.w3.org/1999/xlink" x="0px" y="0px"
	 width="48px" height="48px" viewBox="0 0 48 48" enable-background="new 0 0 48 48" xml:space="preserve">
<g>
	<path fill="#010101" d="M20,42.184V41c0-1.654-1.346-3-3-3H5c-1.654,0-3,1.346-3,3v1.184C0.839,42.599,0,43.698,0,45v2
		c0,0.552,0.448,1,1,1h20c0.552,0,1-0.448,1-1v-2C22,43.698,21.161,42.599,20,42.184z M4,41c0-0.551,0.449-1,1-1h12
		c0.551,0,1,0.449,1,1v1H4V41z M20,46H2v-1c0-0.551,0.449-1,1-1h16c0.551,0,1,0.449,1,1V46z"/>
	<path fill="#010101" d="M47.707,38.293L27.914,18.5l4.087-4.087l0.293,0.294c0.632,0.632,1.358,0.899,2.063,0.899
		c0.85,0,1.671-0.386,2.272-0.988c1.095-1.096,1.474-2.934,0.08-4.327l-9-9c-1.395-1.391-3.235-1.012-4.333,0.088
		C22.28,2.475,21.9,4.314,23.294,5.706l0.293,0.293l-9.586,9.586l-0.294-0.294c-1.394-1.392-3.234-1.011-4.332,0.088
		c-1.096,1.096-1.476,2.935-0.082,4.327l9.001,9.001c0.632,0.632,1.358,0.899,2.063,0.899c0.849,0,1.671-0.386,2.269-0.988
		c1.095-1.096,1.474-2.934,0.08-4.327L22.414,24l4.086-4.086l19.793,19.793C46.488,39.902,46.744,40,47,40s0.512-0.098,0.707-0.293
		C48.098,39.316,48.098,38.684,47.707,38.293z M24.79,2.793c0.133-0.133,0.829-0.763,1.504-0.087l9,9.001
		c0.675,0.674,0.051,1.367-0.081,1.499c-0.131,0.132-0.828,0.763-1.505,0.086l-1-1c-0.002-0.002-0.004-0.002-0.006-0.004l-6.99-6.99
		c-0.002-0.002-0.002-0.004-0.004-0.006l-1-1C24.034,3.618,24.658,2.925,24.79,2.793z M25,7.414L30.586,13L21,22.586L15.414,17
		L25,7.414z M21.212,27.205c-0.132,0.133-0.829,0.763-1.505,0.086l-9-9c-0.674-0.674-0.05-1.367,0.082-1.499
		c0.133-0.132,0.829-0.763,1.504-0.087l0.996,0.996c0.002,0.002,0.002,0.004,0.004,0.006l7,7c0.001,0.001,0.002,0.001,0.003,0.002
		l0.997,0.997C21.968,26.38,21.344,27.073,21.212,27.205z"/>
</g>
</svg>
