<?xml version="1.0" encoding="utf-8"?>
<!-- Generator: Adobe Illustrator 17.0.0, SVG Export Plug-In . SVG Version: 6.00 Build 0)  -->
<!DOCTYPE svg PUBLIC "-//W3C//DTD SVG 1.1//EN" "http://www.w3.org/Graphics/SVG/1.1/DTD/svg11.dtd">
<svg version="1.1" id="Layer_1" xmlns="http://www.w3.org/2000/svg" xmlns:xlink="http://www.w3.org/1999/xlink" x="0px" y="0px"
	 width="48px" height="48px" viewBox="0 0 48 48" enable-background="new 0 0 48 48" xml:space="preserve">
<g>
	<path fill="#010101" d="M43,10H5c-2.757,0-5,2.243-5,5v20c0,2.757,2.243,5,5,5h38c2.757,0,5-2.243,5-5V15
		C48,12.243,45.757,10,43,10z M5,12h38c1.654,0,3,1.346,3,3v3H2v-3C2,13.346,3.346,12,5,12z M43,38H5c-1.654,0-3-1.346-3-3V20h44v15
		C46,36.654,44.654,38,43,38z"/>
	<path fill="#010101" d="M41,24h-6c-0.553,0-1,0.448-1,1s0.447,1,1,1h6c0.553,0,1-0.448,1-1S41.553,24,41,24z"/>
	<path fill="#010101" d="M23,24H7c-0.553,0-1,0.448-1,1s0.447,1,1,1h16c0.553,0,1-0.448,1-1S23.553,24,23,24z"/>
	<path fill="#010101" d="M13,28H7c-0.553,0-1,0.448-1,1s0.447,1,1,1h6c0.553,0,1-0.448,1-1S13.553,28,13,28z"/>
</g>
</svg>
