<?xml version="1.0" encoding="utf-8"?>
<!-- Generator: Adobe Illustrator 17.1.0, SVG Export Plug-In . SVG Version: 6.00 Build 0)  -->
<!DOCTYPE svg PUBLIC "-//W3C//DTD SVG 1.0//EN" "http://www.w3.org/TR/2001/REC-SVG-20010904/DTD/svg10.dtd">
<svg version="1.0" id="Layer_1" xmlns="http://www.w3.org/2000/svg" xmlns:xlink="http://www.w3.org/1999/xlink" x="0px" y="0px"
	 width="48px" height="48px" viewBox="0 0 48 48" enable-background="new 0 0 48 48" xml:space="preserve">
<g>
	<path d="M47.848,33.47l-5-8C42.665,25.178,42.345,25,42,25h-8v-5c0-0.552-0.447-1-1-1H22v2h10v19h-9.135
		c-0.441-1.729-1.998-3.016-3.861-3.016c-1.863,0-3.42,1.287-3.861,3.016h-3.142l0.01-15.004l-2-0.001L10,41
		c0,0.265,0.106,0.52,0.293,0.707C10.481,41.895,10.734,42,11,42h4.154c0.454,1.71,2,2.979,3.85,2.979s3.397-1.27,3.85-2.979H33
		h2.138c0.454,1.71,2,2.979,3.85,2.979c1.85,0,3.396-1.27,3.85-2.979H47c0.553,0,1-0.448,1-1v-7
		C48,33.813,47.947,33.629,47.848,33.47z M19.004,42.979c-1.102,0-1.998-0.896-1.998-1.997c0-1.101,0.896-1.998,1.998-1.998
		c1.102,0,1.998,0.897,1.998,1.998C21.002,42.083,20.106,42.979,19.004,42.979z M41.445,27l3.125,5H34v-5H41.445z M38.988,42.979
		c-1.102,0-1.998-0.896-1.998-1.997c0-1.101,0.897-1.998,1.998-1.998c1.102,0,1.997,0.897,1.997,1.998
		C40.985,42.083,40.09,42.979,38.988,42.979z M46,40h-3.151c-0.441-1.729-1.997-3.016-3.861-3.016c-1.863,0-3.42,1.287-3.861,3.016
		H34v-6h11.821L46,34.287V40z"/>
	<path d="M10.011,23.006c5.417,0,9.993-4.576,9.993-9.993c0-5.417-4.576-9.993-9.993-9.993c-5.416,0-9.992,4.576-9.992,9.993
		C0.019,18.43,4.595,23.006,10.011,23.006z M10.011,5.021c4.333,0,7.993,3.66,7.993,7.993c0,4.333-3.66,7.993-7.993,7.993
		c-4.332,0-7.992-3.66-7.992-7.993C2.019,8.681,5.679,5.021,10.011,5.021z"/>
	<path d="M9.012,15.003h3.997c0.553,0,1-0.448,1-1c0-0.552-0.447-1-1-1h-2.997V8.008c0-0.552-0.447-1-1-1c-0.553,0-1,0.448-1,1
		v5.995C8.012,14.556,8.459,15.003,9.012,15.003z"/>
	<path d="M7.015,30.004L1.001,30C1,30,1,30,1,30c-0.552,0-1,0.447-1,1c0,0.552,0.447,1,0.999,1l6.014,0.004c0.001,0,0.001,0,0.001,0
		c0.552,0,1-0.447,1-1C8.014,30.453,7.566,30.005,7.015,30.004z"/>
	<path d="M7,33H4c-0.553,0-1,0.448-1,1c0,0.552,0.447,1,1,1h3c0.553,0,1-0.448,1-1C8,33.448,7.553,33,7,33z"/>
	<path d="M7,36H6c-0.553,0-1,0.448-1,1c0,0.552,0.447,1,1,1h1c0.553,0,1-0.448,1-1C8,36.448,7.553,36,7,36z"/>
</g>
</svg>
