<?xml version="1.0" encoding="utf-8"?>
<!-- Generator: Adobe Illustrator 17.0.0, SVG Export Plug-In . SVG Version: 6.00 Build 0)  -->
<!DOCTYPE svg PUBLIC "-//W3C//DTD SVG 1.1//EN" "http://www.w3.org/Graphics/SVG/1.1/DTD/svg11.dtd">
<svg version="1.1" id="Layer_1" xmlns="http://www.w3.org/2000/svg" xmlns:xlink="http://www.w3.org/1999/xlink" x="0px" y="0px"
	 width="48px" height="48px" viewBox="0 0 48 48" enable-background="new 0 0 48 48" xml:space="preserve">
<g>
	<path fill="#010101" d="M24,0C10.767,0,0,10.767,0,24s10.767,24,24,24c13.233,0,24-10.767,24-24S37.233,0,24,0z M24,46
		C11.869,46,2,36.131,2,24S11.869,2,24,2s22,9.869,22,22S36.131,46,24,46z"/>
	<path fill="#010101" d="M28,19c0,0.552,0.448,1,1,1s1-0.448,1-1c0-2.968-2.167-5.432-5-5.91V11c0-0.552-0.448-1-1-1s-1,0.448-1,1
		v2.09c-2.833,0.478-5,2.942-5,5.91s2.167,5.432,5,5.91v7.948c-1.721-0.447-3-1.999-3-3.858c0-0.552-0.448-1-1-1s-1,0.448-1,1
		c0,2.968,2.167,5.432,5,5.91V37c0,0.552,0.448,1,1,1s1-0.448,1-1v-2.09c2.833-0.478,5-2.942,5-5.91s-2.167-5.432-5-5.91v-7.948
		C26.721,15.589,28,17.141,28,19z M20,19c0-1.859,1.279-3.411,3-3.858v7.716C21.279,22.411,20,20.859,20,19z M28,29
		c0,1.859-1.279,3.411-3,3.858v-7.716C26.721,25.589,28,27.141,28,29z"/>
</g>
</svg>
