<?xml version="1.0" encoding="utf-8"?>
<!-- Generator: Adobe Illustrator 17.0.0, SVG Export Plug-In . SVG Version: 6.00 Build 0)  -->
<!DOCTYPE svg PUBLIC "-//W3C//DTD SVG 1.1//EN" "http://www.w3.org/Graphics/SVG/1.1/DTD/svg11.dtd">
<svg version="1.1" id="Layer_1" xmlns="http://www.w3.org/2000/svg" xmlns:xlink="http://www.w3.org/1999/xlink" x="0px" y="0px"
	 width="48px" height="48px" viewBox="0 0 48 48" enable-background="new 0 0 48 48" xml:space="preserve">
<g>
	<path fill="#010101" d="M24,29c1.103,0,2,0.897,2,2c0,0.552,0.448,1,1,1s1-0.448,1-1c0-1.859-1.279-3.411-3-3.858V26
		c0-0.552-0.448-1-1-1s-1,0.448-1,1v1.142c-1.721,0.447-3,1.999-3,3.858c0,2.206,1.794,4,4,4c1.103,0,2,0.897,2,2s-0.897,2-2,2
		s-2-0.897-2-2c0-0.552-0.448-1-1-1s-1,0.448-1,1c0,1.859,1.279,3.411,3,3.858V42c0,0.552,0.448,1,1,1s1-0.448,1-1v-1.142
		c1.721-0.447,3-1.999,3-3.858c0-2.206-1.794-4-4-4c-1.103,0-2-0.897-2-2S22.897,29,24,29z"/>
	<path fill="#010101" d="M30.154,20.195C29.982,20.068,29.774,20,29.56,20H18.439c-0.213,0-0.421,0.068-0.593,0.195
		C13.006,23.765,8,30.652,8,36c0,8.187,5.084,12,16,12s16-3.813,16-12C40,30.652,34.994,23.765,30.154,20.195z M24,46
		c-12.337,0-14-5.055-14-10c0-4.56,4.504-10.739,8.773-14h10.454C33.496,25.261,38,31.44,38,36C38,40.945,36.337,46,24,46z"/>
	<path fill="#010101" d="M17,16c-0.552,0-1,0.448-1,1s0.448,1,1,1h14c0.552,0,1-0.448,1-1s-0.448-1-1-1H17z"/>
	<path fill="#010101" d="M18,13c0,0.552,0.448,1,1,1h10c0.552,0,1-0.448,1-1c0-3.648,3.794-9.388,3.832-9.446
		c0.246-0.368,0.22-0.854-0.063-1.194c-0.283-0.339-0.756-0.454-1.163-0.279l-6.058,2.596l-1.619-4.049C24.776,0.249,24.409,0,24,0
		s-0.776,0.249-0.929,0.629l-1.619,4.049l-6.058-2.596c-0.408-0.176-0.88-0.06-1.163,0.279c-0.283,0.34-0.309,0.825-0.063,1.194
		C14.206,3.612,18,9.352,18,13z M21.606,6.918c0.248,0.107,0.527,0.109,0.777,0.005c0.249-0.103,0.446-0.302,0.546-0.552L24,3.692
		l1.071,2.68c0.1,0.25,0.297,0.449,0.546,0.552c0.249,0.103,0.528,0.102,0.777-0.005l4.192-1.796
		c-1.028,1.919-2.228,4.56-2.52,6.877h-8.132c-0.291-2.317-1.492-4.958-2.52-6.878L21.606,6.918z"/>
</g>
</svg>
