<?xml version="1.0" encoding="utf-8"?>
<!-- Generator: Adobe Illustrator 17.0.0, SVG Export Plug-In . SVG Version: 6.00 Build 0)  -->
<!DOCTYPE svg PUBLIC "-//W3C//DTD SVG 1.1//EN" "http://www.w3.org/Graphics/SVG/1.1/DTD/svg11.dtd">
<svg version="1.1" id="Layer_1" xmlns="http://www.w3.org/2000/svg" xmlns:xlink="http://www.w3.org/1999/xlink" x="0px" y="0px"
	 width="48px" height="48px" viewBox="0 0 48 48" enable-background="new 0 0 48 48" xml:space="preserve">
<path fill="#010101" d="M22,23V7c4.411,0,8,3.589,8,8c0,0.552,0.448,1,1,1s1-0.448,1-1c0-5.514-4.486-10-10-10V1
	c0-0.552-0.448-1-1-1s-1,0.448-1,1v4.202c-4.559,0.929-8,4.969-8,9.798s3.441,8.869,8,9.798v15.938c-3.445-0.892-6-4.017-6-7.737
	c0-0.552-0.448-1-1-1s-1,0.448-1,1c0,4.829,3.441,8.869,8,9.798V47c0,0.552,0.448,1,1,1s1-0.448,1-1v-4c5.514,0,10-4.486,10-10
	S27.514,23,22,23z M14,15c0-3.719,2.555-6.845,6-7.737v15.473C16.555,21.845,14,18.719,14,15z M22,41V25c4.411,0,8,3.589,8,8
	S26.411,41,22,41z"/>
</svg>
