<?xml version="1.0" encoding="utf-8"?>
<!-- Generator: Adobe Illustrator 17.0.0, SVG Export Plug-In . SVG Version: 6.00 Build 0)  -->
<!DOCTYPE svg PUBLIC "-//W3C//DTD SVG 1.1//EN" "http://www.w3.org/Graphics/SVG/1.1/DTD/svg11.dtd">
<svg version="1.1" id="Layer_1" xmlns="http://www.w3.org/2000/svg" xmlns:xlink="http://www.w3.org/1999/xlink" x="0px" y="0px"
	 width="48px" height="48px" viewBox="0 0 48 48" enable-background="new 0 0 48 48" xml:space="preserve">
<g>
	<path fill="#010101" d="M24,19c1.103,0,2,0.897,2,2c0,0.552,0.448,1,1,1s1-0.448,1-1c0-1.859-1.279-3.411-3-3.858V16
		c0-0.552-0.448-1-1-1s-1,0.448-1,1v1.142c-1.721,0.447-3,1.999-3,3.858c0,2.206,1.794,4,4,4c1.103,0,2,0.897,2,2s-0.897,2-2,2
		s-2-0.897-2-2c0-0.552-0.448-1-1-1s-1,0.448-1,1c0,1.859,1.279,3.411,3,3.858V32c0,0.552,0.448,1,1,1s1-0.448,1-1v-1.142
		c1.721-0.447,3-1.999,3-3.858c0-2.206-1.794-4-4-4c-1.103,0-2-0.897-2-2S22.897,19,24,19z"/>
	<path fill="#010101" d="M42,14.844V11c0-0.552-0.448-1-1-1H7c-0.552,0-1,0.448-1,1v3.844C2.383,16.425,0,20.019,0,24
		c0,3.982,2.383,7.576,6,9.157V37c0,0.552,0.448,1,1,1h34c0.552,0,1-0.448,1-1v-3.843c3.617-1.58,6-5.174,6-9.157
		C48,20.018,45.617,16.424,42,14.844z M40.666,31.535C40.267,31.677,40,32.054,40,32.478V36H8v-3.522
		c0-0.424-0.267-0.802-0.666-0.943C4.144,30.405,2,27.377,2,24c0-3.376,2.144-6.404,5.334-7.535C7.733,16.324,8,15.946,8,15.523V12
		h32v3.523c0,0.424,0.267,0.802,0.666,0.943C43.856,17.596,46,20.624,46,24C46,27.377,43.856,30.405,40.666,31.535z"/>
</g>
</svg>
