<?xml version="1.0" encoding="utf-8"?>
<!-- Generator: Adobe Illustrator 17.0.0, SVG Export Plug-In . SVG Version: 6.00 Build 0)  -->
<!DOCTYPE svg PUBLIC "-//W3C//DTD SVG 1.1//EN" "http://www.w3.org/Graphics/SVG/1.1/DTD/svg11.dtd">
<svg version="1.1" id="Layer_1" xmlns="http://www.w3.org/2000/svg" xmlns:xlink="http://www.w3.org/1999/xlink" x="0px" y="0px"
	 width="48px" height="48px" viewBox="0 0 48 48" enable-background="new 0 0 48 48" xml:space="preserve">
<g>
	<path fill="#010101" d="M26,27.035c0.572,0,1.035-0.463,1.035-1.035S26.572,24.965,26,24.965c-3.256,0-6.059,2.071-7.32,5.035H17
		c-0.552,0-1,0.448-1,1s0.448,1,1,1h1.097c-0.082,0.488-0.132,0.987-0.132,1.5c0,0.169,0.015,0.334,0.024,0.5H17
		c-0.552,0-1,0.448-1,1s0.448,1,1,1h1.318c1.009,3.49,4.07,6.035,7.682,6.035c0.572,0,1.035-0.463,1.035-1.035
		S26.572,39.965,26,39.965c-2.472,0-4.597-1.638-5.5-3.965H25c0.552,0,1-0.448,1-1s-0.448-1-1-1h-4.942
		c-0.012-0.166-0.023-0.331-0.023-0.5c0-0.517,0.062-1.018,0.169-1.5H25c0.552,0,1-0.448,1-1s-0.448-1-1-1h-4.008
		C22.056,28.219,23.901,27.035,26,27.035z"/>
	<path fill="#010101" d="M16,16c-0.552,0-1,0.448-1,1s0.448,1,1,1h14c0.552,0,1-0.448,1-1s-0.448-1-1-1H16z"/>
	<path fill="#010101" d="M17,13c0,0.552,0.448,1,1,1h10c0.552,0,1-0.448,1-1c0-3.648,3.794-9.388,3.832-9.446
		c0.246-0.368,0.22-0.854-0.063-1.194c-0.283-0.339-0.756-0.454-1.163-0.279l-6.058,2.596l-1.619-4.049C23.776,0.249,23.409,0,23,0
		s-0.776,0.249-0.929,0.629l-1.619,4.049l-6.058-2.596c-0.408-0.176-0.88-0.06-1.163,0.279c-0.283,0.34-0.309,0.825-0.063,1.194
		C13.206,3.612,17,9.352,17,13z M20.606,6.918c0.248,0.107,0.527,0.109,0.777,0.005c0.249-0.103,0.446-0.302,0.546-0.552L23,3.692
		l1.071,2.68c0.1,0.25,0.297,0.449,0.546,0.552c0.249,0.103,0.529,0.102,0.777-0.005l4.192-1.796
		c-1.028,1.919-2.228,4.56-2.52,6.877h-8.132c-0.291-2.317-1.492-4.958-2.52-6.878L20.606,6.918z"/>
	<path fill="#010101" d="M29.154,20.195C28.982,20.068,28.774,20,28.56,20H17.439c-0.213,0-0.421,0.068-0.593,0.195
		C12.006,23.765,7,30.652,7,36c0,8.187,5.084,12,16,12s16-3.813,16-12C39,30.652,33.994,23.765,29.154,20.195z M23,46
		C10.663,46,9,40.945,9,36c0-4.56,4.504-10.739,8.773-14h10.454C32.496,25.261,37,31.44,37,36C37,40.945,35.337,46,23,46z"/>
</g>
</svg>
