<?xml version="1.0" encoding="utf-8"?>
<!-- Generator: Adobe Illustrator 17.0.0, SVG Export Plug-In . SVG Version: 6.00 Build 0)  -->
<!DOCTYPE svg PUBLIC "-//W3C//DTD SVG 1.1//EN" "http://www.w3.org/Graphics/SVG/1.1/DTD/svg11.dtd">
<svg version="1.1" id="Layer_1" xmlns="http://www.w3.org/2000/svg" xmlns:xlink="http://www.w3.org/1999/xlink" x="0px" y="0px"
	 width="48px" height="48px" viewBox="0 0 48 48" enable-background="new 0 0 48 48" xml:space="preserve">
<g>
	<path fill="#010101" d="M42,16.844V13c0-0.552-0.447-1-1-1H7c-0.553,0-1,0.448-1,1v3.844C2.384,18.425,0,22.019,0,26
		c0,3.982,2.384,7.576,6,9.157V39c0,0.552,0.447,1,1,1h34c0.553,0,1-0.448,1-1v-3.843c3.616-1.58,6-5.174,6-9.157
		C48,22.018,45.616,18.424,42,16.844z M40.666,33.535C40.267,33.677,40,34.054,40,34.478V38H8v-3.522
		c0-0.424-0.267-0.802-0.666-0.943C4.144,32.405,2,29.377,2,26c0-3.376,2.144-6.404,5.334-7.535C7.733,18.324,8,17.946,8,17.523V14
		h32v3.523c0,0.424,0.267,0.802,0.666,0.943C43.856,19.596,46,22.624,46,26C46,29.377,43.856,32.405,40.666,33.535z"/>
	<path fill="#010101" d="M28,19c0.553,0,1-0.448,1-1s-0.447-1-1-1c-3.35,0-6.221,2.072-7.411,5H19c-0.553,0-1,0.448-1,1s0.447,1,1,1
		h1.069C20.028,24.328,20,24.661,20,25s0.028,0.672,0.069,1H19c-0.553,0-1,0.448-1,1s0.447,1,1,1h1.589c1.19,2.928,4.061,5,7.411,5
		c0.553,0,1-0.448,1-1s-0.447-1-1-1c-2.216,0-4.149-1.21-5.188-3H27c0.553,0,1-0.448,1-1s-0.447-1-1-1h-4.91
		C22.035,25.674,22,25.341,22,25s0.035-0.674,0.09-1H27c0.553,0,1-0.448,1-1s-0.447-1-1-1h-4.188C23.851,20.21,25.784,19,28,19z"/>
</g>
</svg>
