<?xml version="1.0" encoding="utf-8"?>
<!-- Generator: Adobe Illustrator 17.0.0, SVG Export Plug-In . SVG Version: 6.00 Build 0)  -->
<!DOCTYPE svg PUBLIC "-//W3C//DTD SVG 1.1//EN" "http://www.w3.org/Graphics/SVG/1.1/DTD/svg11.dtd">
<svg version="1.1" id="Layer_1" xmlns="http://www.w3.org/2000/svg" xmlns:xlink="http://www.w3.org/1999/xlink" x="0px" y="0px"
	 width="48px" height="48px" viewBox="0 0 48 48" enable-background="new 0 0 48 48" xml:space="preserve">
<g>
	<path fill="#010101" d="M30,14c0.553,0,1-0.448,1-1s-0.447-1-1-1c-5.159,0-11.763,0.936-13.533,8H14c-0.553,0-1,0.448-1,1
		s0.447,1,1,1h2.106C16.039,22.629,16,23.291,16,24h-2c-0.553,0-1,0.448-1,1s0.447,1,1,1h2.106C17.049,34.909,24.386,36,30,36
		c0.553,0,1-0.448,1-1s-0.447-1-1-1c-7.557,0-11.212-2.426-11.878-8H25c0.553,0,1-0.448,1-1s-0.447-1-1-1h-7
		c0-0.711,0.047-1.37,0.122-2H27c0.553,0,1-0.448,1-1s-0.447-1-1-1h-8.467C19.799,15.843,23.417,14,30,14z"/>
	<path fill="#010101" d="M48,24c0-1.8-0.962-3.409-2.438-4.289c1.026-1.378,1.299-3.232,0.611-4.895
		c-0.682-1.647-2.166-2.781-3.893-3.03c0.42-1.666-0.037-3.484-1.31-4.757C39.732,5.79,37.88,5.3,36.214,5.72
		c-0.248-1.699-1.367-3.203-3.031-3.892c-1.629-0.676-3.537-0.407-4.895,0.608C27.407,0.961,25.799,0,24,0s-3.408,0.961-4.289,2.436
		c-1.357-1.015-3.264-1.285-4.896-0.609c-1.663,0.688-2.781,2.192-3.03,3.893C10.12,5.297,8.267,5.791,7.029,7.03
		C5.757,8.302,5.3,10.12,5.721,11.786c-1.727,0.249-3.21,1.384-3.893,3.03c-0.689,1.662-0.416,3.517,0.609,4.895
		C0.962,20.59,0,22.2,0,24c0,1.799,0.962,3.409,2.436,4.289c-1.026,1.378-1.299,3.233-0.611,4.896
		c0.683,1.646,2.167,2.78,3.895,3.029c-0.419,1.665,0.037,3.483,1.309,4.756c1.24,1.24,3.094,1.731,4.757,1.31
		c0.249,1.701,1.368,3.205,3.03,3.894c1.631,0.677,3.539,0.407,4.896-0.609C20.593,47.039,22.201,48,24,48s3.407-0.961,4.288-2.435
		c1.356,1.014,3.261,1.284,4.897,0.609c1.661-0.689,2.779-2.194,3.028-3.894c1.665,0.42,3.519-0.071,4.757-1.31
		c1.274-1.273,1.731-3.09,1.31-4.756c1.727-0.249,3.21-1.383,3.893-3.029c0.69-1.662,0.417-3.517-0.61-4.895
		C47.039,27.41,48,25.8,48,24z M43.553,26.94c-0.402,0.075-0.718,0.387-0.798,0.788c-0.08,0.402,0.093,0.811,0.436,1.034
		c1.209,0.786,1.687,2.323,1.135,3.654c-0.545,1.313-1.991,2.077-3.389,1.783c-0.398-0.088-0.811,0.083-1.039,0.423
		c-0.226,0.34-0.224,0.785,0.008,1.122c0.816,1.189,0.67,2.791-0.35,3.811c-0.997,0.997-2.658,1.144-3.811,0.35
		c-0.336-0.232-0.781-0.235-1.121-0.008c-0.341,0.228-0.508,0.639-0.424,1.039c0.299,1.412-0.451,2.838-1.78,3.389
		c-1.322,0.546-2.888,0.047-3.656-1.135c-0.224-0.342-0.629-0.515-1.034-0.436c-0.4,0.08-0.713,0.396-0.788,0.798
		C26.679,44.971,25.441,46,24,46s-2.679-1.029-2.943-2.448c-0.075-0.402-0.388-0.718-0.788-0.798
		c-0.065-0.013-0.131-0.019-0.195-0.019c-0.334,0-0.651,0.168-0.838,0.457c-0.767,1.183-2.333,1.683-3.653,1.136
		c-1.332-0.552-2.082-1.977-1.783-3.388c0.084-0.401-0.083-0.812-0.423-1.039c-0.34-0.226-0.784-0.224-1.121,0.007
		c-1.158,0.794-2.815,0.645-3.811-0.35c-1.019-1.02-1.166-2.623-0.351-3.812c0.232-0.337,0.234-0.781,0.007-1.121
		c-0.226-0.34-0.636-0.508-1.038-0.423c-1.399,0.295-2.845-0.47-3.389-1.782c-0.551-1.331-0.073-2.869,1.136-3.656
		c0.342-0.223,0.514-0.632,0.434-1.033c-0.079-0.401-0.396-0.713-0.797-0.788C3.029,26.678,2,25.44,2,24
		c0-1.441,1.028-2.679,2.445-2.941c0.403-0.075,0.718-0.387,0.798-0.788c0.081-0.401-0.091-0.81-0.434-1.034
		c-1.208-0.787-1.686-2.324-1.134-3.655c0.545-1.314,1.995-2.077,3.386-1.783c0.403,0.084,0.812-0.083,1.039-0.422
		c0.227-0.34,0.224-0.784-0.007-1.121c-0.815-1.191-0.669-2.793,0.35-3.812c0.997-0.995,2.656-1.144,3.812-0.35
		c0.338,0.231,0.78,0.234,1.122,0.007c0.34-0.227,0.507-0.639,0.423-1.039c-0.299-1.411,0.45-2.836,1.781-3.386
		c1.321-0.549,2.886-0.048,3.655,1.134c0.224,0.343,0.63,0.515,1.034,0.436c0.4-0.08,0.713-0.396,0.788-0.798
		C21.321,3.03,22.559,2,24,2s2.679,1.03,2.943,2.448c0.075,0.402,0.388,0.718,0.788,0.798c0.407,0.079,0.81-0.093,1.034-0.436
		c0.768-1.183,2.335-1.681,3.653-1.135c1.333,0.552,2.083,1.976,1.783,3.386c-0.085,0.401,0.083,0.812,0.423,1.04
		c0.34,0.228,0.784,0.224,1.122-0.007c1.157-0.793,2.815-0.646,3.811,0.35c1.02,1.019,1.166,2.622,0.35,3.811
		c-0.232,0.338-0.235,0.782-0.008,1.122c0.228,0.34,0.634,0.508,1.039,0.423c1.404-0.299,2.845,0.469,3.389,1.781
		c0.551,1.331,0.073,2.869-1.136,3.656c-0.343,0.223-0.515,0.633-0.435,1.034c0.08,0.401,0.396,0.713,0.798,0.788
		C44.972,21.321,46,22.559,46,24C46,25.442,44.972,26.68,43.553,26.94z"/>
</g>
</svg>
