<?xml version="1.0" encoding="utf-8"?>
<!-- Generator: Adobe Illustrator 17.0.0, SVG Export Plug-In . SVG Version: 6.00 Build 0)  -->
<!DOCTYPE svg PUBLIC "-//W3C//DTD SVG 1.1//EN" "http://www.w3.org/Graphics/SVG/1.1/DTD/svg11.dtd">
<svg version="1.1" id="Layer_1" xmlns="http://www.w3.org/2000/svg" xmlns:xlink="http://www.w3.org/1999/xlink" x="0px" y="0px"
	 width="48px" height="48px" viewBox="0 0 48 48" enable-background="new 0 0 48 48" xml:space="preserve">
<g>
	<path fill="#010101" d="M11,10c-1.654,0-3,1.346-3,3v23H3c-0.552,0-1,0.448-1,1s0.448,1,1,1h5v8H1c-0.552,0-1,0.448-1,1
		s0.448,1,1,1h8h4c0.552,0,1-0.448,1-1V13C14,11.346,12.654,10,11,10z M10,46V13c0-0.551,0.449-1,1-1s1,0.449,1,1v33H10z"/>
	<path fill="#010101" d="M47.6,32.2L44,29.5V19c0-2.757-2.243-5-5-5h-4c-10.477,0-19,8.523-19,19v2.999C16,36,16,36,16,36.001V44
		c0,0.552,0.448,1,1,1h4.264c1.267,1.811,3.364,3,5.736,3s4.47-1.189,5.736-3h3.687c0.774,1.763,2.531,3,4.576,3
		s3.803-1.237,4.576-3H47c0.552,0,1-0.448,1-1V33C48,32.685,47.852,32.389,47.6,32.2z M18,43v-6.586l8-8l0.293,0.293
		C26.488,28.902,26.744,29,27,29s0.512-0.098,0.707-0.293c0.391-0.391,0.391-1.023,0-1.414l-1-1c0,0,0,0,0,0s0,0,0,0l-1-1
		c-0.391-0.391-1.023-0.391-1.414,0c-0.391,0.391-0.391,1.023,0,1.414L24.586,27L18,33.586V33c0-9.374,7.626-17,17-17h4
		c1.654,0,3,1.346,3,3v10h-4.719l1.69-6.758c0.133-0.536-0.192-1.079-0.728-1.213c-0.535-0.132-1.079,0.192-1.213,0.728L35.218,29
		H32c-0.265,0-0.52,0.106-0.707,0.293l-4.729,4.729C22.907,34.249,20,37.287,20,41c0,0.695,0.105,1.366,0.295,2H18z M27,46
		c-1.646,0-3.097-0.81-4.008-2.041c-0.015-0.343-0.205-0.629-0.48-0.798C22.194,42.504,22,41.777,22,41c0-2.757,2.243-5,5-5
		s5,2.243,5,5c0,0.777-0.194,1.504-0.511,2.161c-0.275,0.169-0.466,0.455-0.48,0.798C30.097,45.19,28.646,46,27,46z M41,46
		c-1.654,0-3-1.346-3-3s1.346-3,3-3s3,1.346,3,3S42.654,46,41,46z M46,43c0-2.757-2.243-5-5-5s-5,2.243-5,5h-2.295
		C33.895,42.366,34,41.695,34,41c0-3.131-2.066-5.787-4.906-6.68l3.32-3.32h10.253L46,33.5V43z"/>
</g>
</svg>
