<?xml version="1.0" encoding="utf-8"?>
<!-- Generator: Adobe Illustrator 17.0.0, SVG Export Plug-In . SVG Version: 6.00 Build 0)  -->
<!DOCTYPE svg PUBLIC "-//W3C//DTD SVG 1.1//EN" "http://www.w3.org/Graphics/SVG/1.1/DTD/svg11.dtd">
<svg version="1.1" id="Layer_1" xmlns="http://www.w3.org/2000/svg" xmlns:xlink="http://www.w3.org/1999/xlink" x="0px" y="0px"
	 width="48px" height="48px" viewBox="0 0 48 48" enable-background="new 0 0 48 48" xml:space="preserve">
<g>
	<path fill="#010101" d="M47.708,36.293c-2.348-2.347-4.372-2.999-7.022-2.242l-7.345,2.437C33.105,35.182,31.97,34,30,34h-5.595
		c-1.487-1.401-4.859-4-9.405-4h-5v-1c0-0.552-0.447-1-1-1H1c-0.553,0-1,0.448-1,1v15c0,0.552,0.447,1,1,1h8c0.553,0,1-0.448,1-1
		v-0.609c1.682,0.568,3.18,1.088,4.513,1.551c5.247,1.822,8.176,2.819,10.836,2.819c3.247,0,6.095-1.486,12.277-4.772
		c2.562-1.363,5.752-3.059,9.822-5.094c0.287-0.144,0.488-0.417,0.54-0.734C48.039,36.843,47.936,36.52,47.708,36.293z M8,43H2V30h6
		V43z M36.686,41.223c-10.579,5.626-10.58,5.627-21.517,1.829c-1.503-0.521-3.218-1.115-5.169-1.77V32h5
		c4.139,0,7.179,2.592,8.293,3.707C23.48,35.895,23.734,36,24,36h6c1.027,0,1.391,0.539,1.391,1S31.026,38,30,38H19
		c-0.553,0-1,0.448-1,1s0.447,1,1,1h11c1.278,0,2.193-0.505,2.752-1.21l8.523-2.829c1.321-0.377,2.457-0.352,3.962,0.806
		C41.765,38.522,38.976,40.005,36.686,41.223z"/>
	<path fill="#010101" d="M34,16c3.859,0,7-3.14,7-7s-3.141-7-7-7s-7,3.14-7,7S30.141,16,34,16z M34,4c2.757,0,5,2.243,5,5
		s-2.243,5-5,5s-5-2.243-5-5S31.243,4,34,4z"/>
	<path fill="#010101" d="M25,30c3.859,0,7-3.14,7-7s-3.141-7-7-7s-7,3.14-7,7S21.141,30,25,30z M25,18c2.757,0,5,2.243,5,5
		s-2.243,5-5,5s-5-2.243-5-5S22.243,18,25,18z"/>
	<path fill="#010101" d="M25,26c0.553,0,1-0.448,1-1v-4c0-0.552-0.447-1-1-1s-1,0.448-1,1v4C24,25.552,24.447,26,25,26z"/>
	<path fill="#010101" d="M34,12c0.553,0,1-0.448,1-1V7c0-0.552-0.447-1-1-1s-1,0.448-1,1v4C33,11.552,33.447,12,34,12z"/>
</g>
</svg>
