<?xml version="1.0" encoding="utf-8"?>
<!-- Generator: Adobe Illustrator 17.1.0, SVG Export Plug-In . SVG Version: 6.00 Build 0)  -->
<!DOCTYPE svg PUBLIC "-//W3C//DTD SVG 1.0//EN" "http://www.w3.org/TR/2001/REC-SVG-20010904/DTD/svg10.dtd">
<svg version="1.0" id="Layer_1" xmlns="http://www.w3.org/2000/svg" xmlns:xlink="http://www.w3.org/1999/xlink" x="0px" y="0px"
	 width="48px" height="48px" viewBox="0 0 48 48" enable-background="new 0 0 48 48" xml:space="preserve">
<g>
	<path d="M48.02,29c0-0.243-0.087-0.467-0.231-0.64l-9.914-17.846C37.698,10.197,37.363,10,37,10H14V3c0-0.552,0.448-1,1-1
		c0.83,0,2.062,0.478,2.587,1.001l0.714,0.714C18.113,4.106,18,4.539,18,5c0,1.654,1.346,3,3,3s3-1.346,3-3c0-1.654-1.346-3-3-3
		c-0.462,0-0.894,0.113-1.285,0.301l-0.714-0.714C18.096,0.682,16.376,0,15,0c-1.654,0-3,1.346-3,3v7h-1
		c-0.363,0-0.698,0.197-0.874,0.515l-10,18c-0.011,0.02-0.015,0.042-0.025,0.062c-0.013,0.027-0.022,0.054-0.032,0.082
		c-0.039,0.105-0.063,0.213-0.065,0.324C0.003,28.989,0,28.994,0,29v4c0,0.552,0.447,1,1,1h22v12h-3c-0.553,0-1,0.448-1,1
		c0,0.552,0.447,1,1,1h8c0.553,0,1-0.448,1-1c0-0.552-0.447-1-1-1h-3V34h22c0.553,0,1-0.448,1-1v-3.903
		C48.003,29.063,48.02,29.034,48.02,29z M22,5c0,0.552-0.448,1-1,1s-1-0.448-1-1c0-0.273,0.111-0.519,0.288-0.7
		c0.002-0.002,0.004-0.002,0.006-0.004c0.002-0.002,0.003-0.005,0.005-0.007C20.48,4.111,20.727,4,21,4C21.552,4,22,4.448,22,5z
		 M11.589,12H12v3c0,0.552,0.447,1,1,1s1-0.448,1-1v-3h22.411l8.89,16H2.699L11.589,12z M46,32H2v-2h44V32z"/>
	<path d="M39.859,24.457l-3.931-9.828C35.776,14.249,35.409,14,35,14H19c-0.477,0-0.887,0.336-0.98,0.804l-2,10
		c-0.059,0.293,0.018,0.598,0.207,0.83C16.417,25.866,16.7,26,17,26h22c0.007,0,0.015,0,0.02,0c0.553,0,1-0.448,1-1
		C40.02,24.8,39.961,24.613,39.859,24.457z M18.22,24l1.6-8h14.504l3.2,8H18.22z"/>
</g>
</svg>
