<?xml version="1.0" encoding="utf-8"?>
<!-- Generator: Adobe Illustrator 17.0.0, SVG Export Plug-In . SVG Version: 6.00 Build 0)  -->
<!DOCTYPE svg PUBLIC "-//W3C//DTD SVG 1.1//EN" "http://www.w3.org/Graphics/SVG/1.1/DTD/svg11.dtd">
<svg version="1.1" id="Layer_1" xmlns="http://www.w3.org/2000/svg" xmlns:xlink="http://www.w3.org/1999/xlink" x="0px" y="0px"
	 width="48px" height="48px" viewBox="0 0 48 48" enable-background="new 0 0 48 48" xml:space="preserve">
<g>
	<path fill="#010101" d="M43,8H5c-2.757,0-5,2.243-5,5v26c0,2.757,2.243,5,5,5h38c2.757,0,5-2.243,5-5V13C48,10.243,45.757,8,43,8z
		 M46,39c0,1.654-1.346,3-3,3H5c-1.654,0-3-1.346-3-3V13c0-1.654,1.346-3,3-3h38c1.654,0,3,1.346,3,3V39z"/>
	<path fill="#010101" d="M32.125,15.941c-2.892,0-5.623,1.141-7.653,3.156c-1.966-1.95-4.67-3.157-7.651-3.157
		c-5.996,0-10.874,4.879-10.874,10.876c0,5.996,4.878,10.874,10.874,10.874c2.981,0,5.684-1.207,7.65-3.155
		c2.029,2.015,4.76,3.155,7.654,3.155C38.122,37.69,43,32.813,43,26.816C43,20.82,38.122,15.941,32.125,15.941z M16.821,35.69
		c-3.381,0-6.324-1.901-7.822-4.69h1.028v-2H8.23c-0.178-0.7-0.283-1.429-0.283-2.184c0-0.383,0.033-0.758,0.08-1.129V27h2v-2H8.135
		c0.147-0.702,0.384-1.369,0.686-2h1.206v-1.882c0.573-0.682,1.249-1.274,2-1.759V21h2v-2h-1.404c1.03-0.555,2.182-0.91,3.404-1.019
		V19h2v-0.967c1.069,0.146,2.08,0.475,2.993,0.967h-0.993v2h2v-1.356c0.769,0.56,1.445,1.238,2,2.011V23h0.795
		c0.302,0.631,0.54,1.298,0.686,2h-1.481v2h1.66c-0.014,0.689-0.11,1.357-0.274,2h-1.386v2h0.617
		C23.146,33.789,20.202,35.69,16.821,35.69z M32.125,35.69c-2.42,0-4.694-0.981-6.361-2.701c1.216-1.755,1.932-3.881,1.932-6.173
		c0-2.118-0.618-4.09-1.669-5.763V21h-0.032c-0.076-0.12-0.15-0.241-0.231-0.357c1.668-1.72,3.944-2.702,6.361-2.702
		c4.894,0,8.875,3.981,8.875,8.875C41,31.709,37.019,35.69,32.125,35.69z"/>
	<rect x="20.027" y="23" fill="#010101" width="2" height="2"/>
	<rect x="20.027" y="27" fill="#010101" width="2" height="2"/>
	<rect x="20.027" y="31" fill="#010101" width="2" height="2"/>
	<rect x="12.027" y="23" fill="#010101" width="2" height="2"/>
	<rect x="12.027" y="27" fill="#010101" width="2" height="2"/>
	<rect x="12.027" y="31" fill="#010101" width="2" height="2"/>
	<rect x="16.027" y="21" fill="#010101" width="2" height="2"/>
	<rect x="16.027" y="25" fill="#010101" width="2" height="2"/>
	<rect x="16.027" y="29" fill="#010101" width="2" height="2"/>
	<rect x="16.027" y="33" fill="#010101" width="2" height="2"/>
</g>
</svg>
