<?xml version="1.0" encoding="utf-8"?>
<!-- Generator: Adobe Illustrator 17.0.0, SVG Export Plug-In . SVG Version: 6.00 Build 0)  -->
<!DOCTYPE svg PUBLIC "-//W3C//DTD SVG 1.1//EN" "http://www.w3.org/Graphics/SVG/1.1/DTD/svg11.dtd">
<svg version="1.1" id="Layer_1" xmlns="http://www.w3.org/2000/svg" xmlns:xlink="http://www.w3.org/1999/xlink" x="0px" y="0px"
	 width="48px" height="48px" viewBox="0 0 48 48" enable-background="new 0 0 48 48" xml:space="preserve">
<g>
	<path fill="#010101" d="M48,0H0v30h8v3v4v4v4c0,0.704,0.793,3,11,3c10.207,0,11-2.296,11-3v-4v-4v-4v-3h18V0z M28,40.768
		C27.304,41.238,24.231,42,19,42s-8.304-0.762-9-1.232v-1.874C11.539,39.499,14.237,40,19,40s7.461-0.501,9-1.106V40.768z M19,28
		c4.763,0,7.461-0.501,9-1.106v1.874C27.304,29.238,24.231,30,19,30s-8.304-0.762-9-1.232v-1.874C11.539,27.499,14.237,28,19,28z
		 M10.485,25c1.201-0.453,4.083-1,8.515-1c4.369,0,7.289,0.554,8.507,1.003C26.301,25.456,23.422,26,19,26
		C14.568,26,11.686,25.453,10.485,25z M28,32.768C27.304,33.238,24.231,34,19,34s-8.304-0.762-9-1.232v-1.874
		C11.539,31.499,14.237,32,19,32s7.461-0.501,9-1.106V32.768z M28,36.768C27.304,37.238,24.231,38,19,38s-8.304-0.762-9-1.232
		v-1.874C11.539,35.499,14.237,36,19,36s7.461-0.501,9-1.106V36.768z M29.511,24c-0.913-0.909-3.474-2-10.511-2
		c-6.919,0-9.506,1.055-10.459,1.954C7.106,23.73,6,22.497,6,21V9c0-1.654,1.346-3,3-3h30c1.654,0,3,1.346,3,3v12
		c0,1.654-1.346,3-3,3H29.511z M19,46c-5.231,0-8.304-0.762-9-1.232v-1.874C11.539,43.499,14.237,44,19,44s7.461-0.501,9-1.106
		v1.874C27.304,45.238,24.231,46,19,46z M46,28H30v-2h9c2.757,0,5-2.243,5-5V9c0-2.757-2.243-5-5-5H9C6.243,4,4,6.243,4,9v12
		c0,2.415,1.721,4.434,4,4.899V28H2V2h44V28z"/>
	<path fill="#010101" d="M24,8c-3.859,0-7,3.14-7,7s3.141,7,7,7s7-3.14,7-7S27.859,8,24,8z M24,20c-2.757,0-5-2.243-5-5s2.243-5,5-5
		s5,2.243,5,5S26.757,20,24,20z"/>
	<circle fill="#010101" cx="10" cy="10" r="2"/>
	<circle fill="#010101" cx="38" cy="20" r="2"/>
</g>
</svg>
