<?xml version="1.0" encoding="utf-8"?>
<!-- Generator: Adobe Illustrator 17.0.0, SVG Export Plug-In . SVG Version: 6.00 Build 0)  -->
<!DOCTYPE svg PUBLIC "-//W3C//DTD SVG 1.1//EN" "http://www.w3.org/Graphics/SVG/1.1/DTD/svg11.dtd">
<svg version="1.1" id="Layer_1" xmlns="http://www.w3.org/2000/svg" xmlns:xlink="http://www.w3.org/1999/xlink" x="0px" y="0px"
	 width="48px" height="48px" viewBox="0 0 48 48" enable-background="new 0 0 48 48" xml:space="preserve">
<g>
	<path fill="#010101" d="M24,0C15.728,0,9,6.729,9,15c0,0.055,0.005,0.11,0.014,0.165l4,24C13.094,39.647,13.511,40,14,40h9v7
		c0,0.552,0.447,1,1,1s1-0.448,1-1v-7h9c0.489,0,0.906-0.353,0.986-0.835l4-24C38.995,15.11,39,15.055,39,15C39,6.729,32.271,0,24,0
		z M33.154,38H14.847L11,14.919C11.044,7.788,16.859,2,24,2s12.956,5.788,13,12.919L33.154,38z"/>
	<path fill="#010101" d="M24,6c-4.963,0-9,4.038-9,9c0,0.552,0.447,1,1,1h16c0.553,0,1-0.448,1-1C33,10.038,28.963,6,24,6z
		 M26.414,14l1.121-1.121c0.391-0.39,0.391-1.023,0-1.414c-0.391-0.391-1.023-0.391-1.414,0L23.586,14h-6.515
		c0.487-3.388,3.408-6,6.929-6c3.52,0,6.442,2.612,6.928,6H26.414z"/>
	<path fill="#010101" d="M32,18H16c-0.553,0-1,0.448-1,1v2c0,0.552,0.447,1,1,1s1-0.448,1-1v-1h14v1c0,0.552,0.447,1,1,1
		s1-0.448,1-1v-2C33,18.448,32.553,18,32,18z"/>
	<path fill="#010101" d="M24,27c-2.206,0-4,1.794-4,4s1.794,4,4,4s4-1.794,4-4S26.206,27,24,27z M24,33c-1.103,0-2-0.897-2-2
		s0.897-2,2-2c1.102,0,2,0.897,2,2S25.102,33,24,33z"/>
</g>
</svg>
