<?xml version="1.0" encoding="utf-8"?>
<!-- Generator: Adobe Illustrator 17.0.0, SVG Export Plug-In . SVG Version: 6.00 Build 0)  -->
<!DOCTYPE svg PUBLIC "-//W3C//DTD SVG 1.1//EN" "http://www.w3.org/Graphics/SVG/1.1/DTD/svg11.dtd">
<svg version="1.1" id="Layer_1" xmlns="http://www.w3.org/2000/svg" xmlns:xlink="http://www.w3.org/1999/xlink" x="0px" y="0px"
	 width="48px" height="48px" viewBox="0 0 48 48" enable-background="new 0 0 48 48" xml:space="preserve">
<g>
	<path fill="#010101" d="M48,24c0-1.8-0.962-3.409-2.437-4.288c1.026-1.378,1.299-3.232,0.611-4.895
		c-0.682-1.647-2.166-2.78-3.894-3.03c0.421-1.665-0.036-3.484-1.31-4.757c-1.238-1.239-3.089-1.73-4.755-1.309
		c-0.248-1.699-1.367-3.203-3.031-3.892c-1.631-0.676-3.538-0.406-4.896,0.608C27.407,0.961,25.799,0,24,0s-3.408,0.961-4.288,2.436
		c-1.358-1.015-3.267-1.284-4.897-0.608c-1.663,0.687-2.782,2.191-3.03,3.892C10.12,5.298,8.268,5.792,7.029,7.03
		c-1.272,1.272-1.73,3.09-1.309,4.757c-1.726,0.249-3.209,1.384-3.892,3.03c-0.688,1.661-0.416,3.516,0.609,4.894
		C0.962,20.59,0,22.2,0,24c0,1.799,0.962,3.409,2.438,4.289c-1.026,1.378-1.299,3.233-0.611,4.896
		c0.683,1.646,2.167,2.78,3.894,3.029C5.3,37.88,5.758,39.698,7.029,40.971c1.24,1.238,3.089,1.73,4.757,1.309
		c0.249,1.7,1.368,3.205,3.03,3.894c1.63,0.676,3.538,0.407,4.896-0.609C20.593,47.039,22.201,48,24,48s3.407-0.961,4.287-2.436
		c1.357,1.015,3.262,1.286,4.897,0.61c1.662-0.689,2.78-2.194,3.029-3.894c1.668,0.422,3.518-0.072,4.756-1.31
		c1.274-1.273,1.731-3.09,1.31-4.756c1.727-0.249,3.211-1.383,3.894-3.029c0.69-1.662,0.417-3.517-0.61-4.895
		C47.039,27.41,48,25.8,48,24z M43.555,26.941c-0.403,0.075-0.719,0.387-0.799,0.788c-0.08,0.402,0.093,0.811,0.436,1.034
		c1.209,0.786,1.687,2.323,1.135,3.654c-0.546,1.315-2,2.08-3.389,1.783c-0.403-0.086-0.812,0.082-1.039,0.423
		c-0.228,0.341-0.224,0.785,0.007,1.122c0.817,1.189,0.669,2.791-0.35,3.811c-0.997,0.996-2.656,1.145-3.811,0.35
		c-0.337-0.232-0.782-0.234-1.122-0.008c-0.34,0.227-0.507,0.639-0.423,1.039c0.299,1.411-0.45,2.837-1.78,3.388
		c-1.323,0.547-2.889,0.047-3.657-1.135c-0.222-0.343-0.631-0.516-1.033-0.436c-0.401,0.08-0.713,0.396-0.788,0.798
		C26.678,44.971,25.441,46,24,46s-2.679-1.029-2.943-2.448c-0.075-0.402-0.387-0.718-0.788-0.798
		c-0.065-0.013-0.131-0.019-0.195-0.019c-0.334,0-0.652,0.168-0.837,0.457c-0.768,1.184-2.334,1.683-3.653,1.136
		c-1.333-0.553-2.083-1.977-1.784-3.388c0.084-0.4-0.083-0.812-0.423-1.039c-0.341-0.227-0.785-0.225-1.122,0.007
		c-1.157,0.793-2.816,0.644-3.811-0.35c-1.018-1.02-1.165-2.623-0.35-3.812c0.232-0.337,0.234-0.781,0.007-1.121
		s-0.635-0.507-1.039-0.423c-1.395,0.296-2.844-0.469-3.388-1.782c-0.551-1.331-0.073-2.869,1.135-3.656
		c0.342-0.223,0.515-0.632,0.435-1.033c-0.08-0.401-0.395-0.713-0.797-0.788C3.029,26.678,2,25.44,2,24
		c0-1.441,1.029-2.679,2.445-2.939c0.402-0.075,0.718-0.387,0.798-0.788c0.08-0.401-0.092-0.81-0.434-1.034
		c-1.209-0.787-1.685-2.324-1.134-3.655c0.545-1.315,1.989-2.077,3.386-1.783c0.398,0.083,0.811-0.083,1.039-0.422
		c0.228-0.341,0.225-0.785-0.006-1.122c-0.816-1.191-0.669-2.793,0.349-3.812c0.996-0.996,2.656-1.144,3.811-0.351
		c0.337,0.232,0.781,0.234,1.122,0.007c0.34-0.227,0.507-0.639,0.423-1.039C13.5,5.65,14.249,4.226,15.58,3.676
		c1.32-0.546,2.887-0.049,3.656,1.134c0.222,0.343,0.632,0.514,1.033,0.436c0.401-0.08,0.713-0.396,0.788-0.798
		C21.321,3.03,22.559,2,24,2s2.678,1.03,2.942,2.448c0.075,0.402,0.387,0.718,0.788,0.798c0.404,0.08,0.811-0.093,1.033-0.436
		c0.769-1.182,2.333-1.681,3.654-1.134C33.75,4.228,34.5,5.652,34.2,7.061c-0.086,0.4,0.082,0.812,0.422,1.04
		c0.339,0.226,0.784,0.224,1.122-0.007c1.155-0.793,2.814-0.646,3.811,0.35c1.02,1.019,1.167,2.622,0.35,3.811
		c-0.231,0.337-0.234,0.782-0.007,1.122c0.227,0.34,0.641,0.506,1.039,0.423c1.4-0.296,2.845,0.468,3.389,1.781
		c0.551,1.331,0.073,2.869-1.136,3.656c-0.343,0.223-0.515,0.633-0.435,1.034s0.396,0.713,0.798,0.788
		C44.971,21.321,46,22.559,46,24C46,25.442,44.971,26.68,43.555,26.941z"/>
	<path fill="#010101" d="M32.707,15.293c-0.391-0.391-1.023-0.391-1.414,0l-16,16c-0.391,0.391-0.391,1.023,0,1.414
		C15.488,32.902,15.744,33,16,33s0.512-0.098,0.707-0.293l16-16C33.098,16.316,33.098,15.684,32.707,15.293z"/>
	<path fill="#010101" d="M18,22c2.206,0,4-1.794,4-4s-1.794-4-4-4s-4,1.794-4,4S15.794,22,18,22z M18,16c1.103,0,2,0.897,2,2
		s-0.897,2-2,2s-2-0.897-2-2S16.897,16,18,16z"/>
	<path fill="#010101" d="M30,26c-2.206,0-4,1.794-4,4s1.794,4,4,4s4-1.794,4-4S32.206,26,30,26z M30,32c-1.103,0-2-0.897-2-2
		s0.897-2,2-2s2,0.897,2,2S31.103,32,30,32z"/>
</g>
</svg>
