<?xml version="1.0" encoding="utf-8"?>
<!-- Generator: Adobe Illustrator 17.0.0, SVG Export Plug-In . SVG Version: 6.00 Build 0)  -->
<!DOCTYPE svg PUBLIC "-//W3C//DTD SVG 1.1//EN" "http://www.w3.org/Graphics/SVG/1.1/DTD/svg11.dtd">
<svg version="1.1" id="Layer_1" xmlns="http://www.w3.org/2000/svg" xmlns:xlink="http://www.w3.org/1999/xlink" x="0px" y="0px"
	 width="48px" height="48px" viewBox="0 0 48 48" enable-background="new 0 0 48 48" xml:space="preserve">
<g>
	<path fill="#010101" d="M47.923,0.618c-0.101-0.244-0.296-0.439-0.54-0.54C47.26,0.026,47.129,0,46.998,0H34c-0.552,0-1,0.448-1,1
		s0.448,1,1,1h10.586L0.293,46.293c-0.391,0.391-0.391,1.023,0,1.414C0.488,47.902,0.744,48,1,48s0.512-0.098,0.707-0.293L46,3.414
		V14c0,0.552,0.448,1,1,1s1-0.448,1-1V1.002C48,0.871,47.974,0.74,47.923,0.618z"/>
	<path fill="#010101" d="M10,18c4.411,0,8-3.589,8-8s-3.589-8-8-8s-8,3.589-8,8S5.589,18,10,18z M10,4c3.309,0,6,2.691,6,6
		s-2.691,6-6,6s-6-2.691-6-6S6.691,4,10,4z"/>
	<path fill="#010101" d="M38,30c-4.411,0-8,3.589-8,8s3.589,8,8,8s8-3.589,8-8S42.411,30,38,30z M38,44c-3.309,0-6-2.691-6-6
		s2.691-6,6-6s6,2.691,6,6S41.309,44,38,44z"/>
</g>
</svg>
