<?xml version="1.0" encoding="utf-8"?>
<!-- Generator: Adobe Illustrator 17.0.0, SVG Export Plug-In . SVG Version: 6.00 Build 0)  -->
<!DOCTYPE svg PUBLIC "-//W3C//DTD SVG 1.1//EN" "http://www.w3.org/Graphics/SVG/1.1/DTD/svg11.dtd">
<svg version="1.1" id="Layer_1" xmlns="http://www.w3.org/2000/svg" xmlns:xlink="http://www.w3.org/1999/xlink" x="0px" y="0px"
	 width="48px" height="48px" viewBox="0 0 48 48" enable-background="new 0 0 48 48" xml:space="preserve">
<g>
	<path fill="#010101" d="M47.707,5.293l-5-5c-0.391-0.391-1.023-0.391-1.414,0l-41,41c-0.391,0.391-0.391,1.023,0,1.414l5,5
		C5.488,47.902,5.744,48,6,48s0.512-0.098,0.707-0.293l41-41C48.098,6.316,48.098,5.684,47.707,5.293z M6,45.586L2.414,42L42,2.414
		L45.586,6L6,45.586z"/>
	<path fill="#010101" d="M9,18c4.963,0,9-4.038,9-9s-4.037-9-9-9S0,4.038,0,9S4.037,18,9,18z M9,2c3.859,0,7,3.14,7,7s-3.141,7-7,7
		s-7-3.14-7-7S5.141,2,9,2z"/>
	<path fill="#010101" d="M39,30c-4.963,0-9,4.038-9,9s4.037,9,9,9s9-4.038,9-9S43.963,30,39,30z M39,46c-3.859,0-7-3.14-7-7
		s3.141-7,7-7s7,3.14,7,7S42.859,46,39,46z"/>
</g>
</svg>
