<?xml version="1.0" encoding="utf-8"?>
<!-- Generator: Adobe Illustrator 17.0.0, SVG Export Plug-In . SVG Version: 6.00 Build 0)  -->
<!DOCTYPE svg PUBLIC "-//W3C//DTD SVG 1.1//EN" "http://www.w3.org/Graphics/SVG/1.1/DTD/svg11.dtd">
<svg version="1.1" id="Layer_1" xmlns="http://www.w3.org/2000/svg" xmlns:xlink="http://www.w3.org/1999/xlink" x="0px" y="0px"
	 width="48px" height="48px" viewBox="0 0 48 48" enable-background="new 0 0 48 48" xml:space="preserve">
<g>
	<path fill="#010101" d="M47.707,0.293c-0.391-0.391-1.023-0.391-1.414,0l-46,46c-0.391,0.391-0.391,1.023,0,1.414
		C0.488,47.902,0.744,48,1,48s0.512-0.098,0.707-0.293l46-46C48.098,1.316,48.098,0.684,47.707,0.293z"/>
	<path fill="#010101" d="M10,18c4.411,0,8-3.589,8-8s-3.589-8-8-8s-8,3.589-8,8S5.589,18,10,18z M10,4c3.309,0,6,2.691,6,6
		s-2.691,6-6,6s-6-2.691-6-6S6.691,4,10,4z"/>
	<path fill="#010101" d="M38,30c-4.411,0-8,3.589-8,8s3.589,8,8,8s8-3.589,8-8S42.411,30,38,30z M38,44c-3.309,0-6-2.691-6-6
		s2.691-6,6-6s6,2.691,6,6S41.309,44,38,44z"/>
</g>
</svg>
