<?xml version="1.0" encoding="utf-8"?>
<!-- Generator: Adobe Illustrator 17.0.0, SVG Export Plug-In . SVG Version: 6.00 Build 0)  -->
<!DOCTYPE svg PUBLIC "-//W3C//DTD SVG 1.1//EN" "http://www.w3.org/Graphics/SVG/1.1/DTD/svg11.dtd">
<svg version="1.1" id="Layer_1" xmlns="http://www.w3.org/2000/svg" xmlns:xlink="http://www.w3.org/1999/xlink" x="0px" y="0px"
	 width="48px" height="48px" viewBox="0 0 48 48" enable-background="new 0 0 48 48" xml:space="preserve">
<g>
	<path fill="#010101" d="M27,22h20c0.553,0,1-0.448,1-1C48,9.42,38.579,0,27,0c-0.553,0-1,0.448-1,1v20C26,21.552,26.447,22,27,22z
		 M28,2.026C37.682,2.531,45.469,10.318,45.974,20H28V2.026z"/>
	<path fill="#010101" d="M47,24H27c-0.404,0-0.77,0.244-0.924,0.617c-0.155,0.374-0.069,0.804,0.217,1.09l14.143,14.142
		c0.195,0.195,0.451,0.293,0.707,0.293c0.255,0,0.511-0.098,0.707-0.293C45.815,35.883,48,30.609,48,25C48,24.448,47.553,24,47,24z
		 M41.124,37.71L29.414,26h16.561C45.749,30.368,44.053,34.463,41.124,37.71z"/>
	<path fill="#010101" d="M22,26.586V7c0-0.552-0.447-1-1-1C9.421,6,0,15.42,0,27s9.421,21,21,21c5.61,0,10.884-2.185,14.85-6.151
		c0.391-0.391,0.391-1.023,0-1.414L22,26.586z M21,46C10.523,46,2,37.477,2,27C2,16.859,9.986,8.548,20,8.026V27
		c0,0.265,0.105,0.52,0.293,0.707L33.71,41.124C30.217,44.276,25.741,46,21,46z"/>
</g>
</svg>
