<?xml version="1.0" encoding="utf-8"?>
<!-- Generator: Adobe Illustrator 17.0.0, SVG Export Plug-In . SVG Version: 6.00 Build 0)  -->
<!DOCTYPE svg PUBLIC "-//W3C//DTD SVG 1.1//EN" "http://www.w3.org/Graphics/SVG/1.1/DTD/svg11.dtd">
<svg version="1.1" id="Layer_1" xmlns="http://www.w3.org/2000/svg" xmlns:xlink="http://www.w3.org/1999/xlink" x="0px" y="0px"
	 width="48px" height="48px" viewBox="0 0 48 48" enable-background="new 0 0 48 48" xml:space="preserve">
<g>
	<path fill="#010101" d="M41,26H22V7c0-0.552-0.447-1-1-1C9.421,6,0,15.42,0,27s9.421,21,21,21s21-9.42,21-21
		C42,26.448,41.553,26,41,26z M21,46C10.523,46,2,37.477,2,27C2,16.859,9.986,8.548,20,8.026V27c0,0.552,0.447,1,1,1h18.974
		C39.452,38.013,31.141,46,21,46z"/>
	<path fill="#010101" d="M27,0c-0.553,0-1,0.448-1,1v20c0,0.552,0.447,1,1,1h20c0.553,0,1-0.448,1-1C48,9.42,38.579,0,27,0z M28,20
		V2.026C37.682,2.531,45.469,10.318,45.974,20H28z"/>
</g>
</svg>
