<?xml version="1.0" encoding="utf-8"?>
<!-- Generator: Adobe Illustrator 17.1.0, SVG Export Plug-In . SVG Version: 6.00 Build 0)  -->
<!DOCTYPE svg PUBLIC "-//W3C//DTD SVG 1.0//EN" "http://www.w3.org/TR/2001/REC-SVG-20010904/DTD/svg10.dtd">
<svg version="1.0" id="Layer_1" xmlns="http://www.w3.org/2000/svg" xmlns:xlink="http://www.w3.org/1999/xlink" x="0px" y="0px"
	 width="48px" height="48px" viewBox="0 0 48 48" enable-background="new 0 0 48 48" xml:space="preserve">
<g>
	<path d="M22.934,11.036c-0.551,0.036-0.968,0.513-0.932,1.063c0.037,0.552,0.519,0.967,1.064,0.932
		c3.337-0.222,6.66,0.761,9.333,2.769c0.18,0.135,0.391,0.2,0.6,0.2c0.304,0,0.604-0.138,0.801-0.399
		c0.331-0.442,0.242-1.068-0.199-1.4C30.546,11.906,26.759,10.783,22.934,11.036z"/>
	<path d="M48,19c0-0.552-0.447-1-1-1c-0.553,0-1,0.448-1,1c0,1.327-0.872,2.443-2.069,2.837C43.223,13.006,34.567,6,24,6
		c-1.456,0-2.944,0.148-4.434,0.438C18.079,4.301,15.626,3,13,3c-1.398,0-2.781,0.373-4.001,1.079C8.69,4.258,8.5,4.587,8.5,4.944
		c0,0.357,0.19,0.687,0.499,0.866c1.401,0.81,2.423,2.173,2.817,3.724C7.87,12.116,5.185,15.866,4.312,20H1c-0.553,0-1,0.448-1,1v8
		c0,0.552,0.447,1,1,1h4.779c1.924,3.626,5.212,6.467,9.221,8.182V44c0,0.552,0.447,1,1,1s1-0.448,1-1v-5.068
		C19.195,39.626,21.557,40,24,40c2.465,0,4.817-0.399,7-1.096V44c0,0.552,0.447,1,1,1c0.553,0,1-0.448,1-1v-5.839
		c6.214-2.676,10.557-8.022,10.946-14.256C46.251,23.46,48,21.433,48,19z M24,38c-7.392,0-13.948-3.703-16.704-9.434
		C7.129,28.22,6.779,28,6.395,28H2v-6h3.148c0.495,0,0.916-0.363,0.989-0.852c0.608-4.086,3.272-7.831,7.311-10.277
		c0.342-0.207,0.527-0.599,0.472-0.996c-0.253-1.789-1.127-3.445-2.427-4.68C11.984,5.066,12.491,5,13,5
		c2.155,0,4.156,1.17,5.222,3.053c0.217,0.383,0.657,0.581,1.09,0.483C20.889,8.18,22.466,8,24,8c9.925,0,18,6.729,18,15
		S33.925,38,24,38z"/>
	<circle cx="12" cy="20" r="2"/>
</g>
</svg>
