<?xml version="1.0" encoding="utf-8"?>
<!-- Generator: Adobe Illustrator 17.0.0, SVG Export Plug-In . SVG Version: 6.00 Build 0)  -->
<!DOCTYPE svg PUBLIC "-//W3C//DTD SVG 1.1//EN" "http://www.w3.org/Graphics/SVG/1.1/DTD/svg11.dtd">
<svg version="1.1" id="Layer_1" xmlns="http://www.w3.org/2000/svg" xmlns:xlink="http://www.w3.org/1999/xlink" x="0px" y="0px"
	 width="48px" height="48px" viewBox="0 0 48 48" enable-background="new 0 0 48 48" xml:space="preserve">
<path fill="#010101" d="M39,46H13.318C16.148,44.008,18,40.716,18,37V26h17c0.552,0,1-0.448,1-1s-0.448-1-1-1H18V12
	c0-5.514,4.486-10,10-10s10,4.486,10,10c0,0.552,0.448,1,1,1s1-0.448,1-1c0-6.617-5.383-12-12-12S16,5.383,16,12v12H5
	c-0.552,0-1,0.448-1,1s0.448,1,1,1h11v11c0,4.962-4.038,9-9,9c-0.552,0-1,0.448-1,1s0.448,1,1,1h32c0.552,0,1-0.448,1-1
	S39.552,46,39,46z"/>
</svg>
