<?xml version="1.0" encoding="utf-8"?>
<!-- Generator: Adobe Illustrator 17.0.0, SVG Export Plug-In . SVG Version: 6.00 Build 0)  -->
<!DOCTYPE svg PUBLIC "-//W3C//DTD SVG 1.1//EN" "http://www.w3.org/Graphics/SVG/1.1/DTD/svg11.dtd">
<svg version="1.1" id="Layer_1" xmlns="http://www.w3.org/2000/svg" xmlns:xlink="http://www.w3.org/1999/xlink" x="0px" y="0px"
	 width="48px" height="48px" viewBox="0 0 48 48" enable-background="new 0 0 48 48" xml:space="preserve">
<g>
	<path fill="#010101" d="M48,24c0-1.8-0.962-3.41-2.438-4.289c1.025-1.378,1.299-3.233,0.611-4.896
		c-0.682-1.646-2.166-2.78-3.893-3.029c0.42-1.666-0.037-3.483-1.31-4.756c-1.238-1.239-3.088-1.73-4.756-1.31
		c-0.248-1.7-1.367-3.204-3.031-3.893c-1.631-0.677-3.539-0.407-4.895,0.608C27.407,0.961,25.799,0,24,0s-3.408,0.961-4.289,2.435
		c-1.357-1.014-3.263-1.285-4.897-0.609c-1.662,0.688-2.78,2.193-3.028,3.893C10.119,5.298,8.267,5.792,7.029,7.03
		c-1.272,1.272-1.73,3.09-1.308,4.756c-1.727,0.25-3.21,1.384-3.893,3.03c-0.69,1.662-0.417,3.517,0.609,4.894
		C0.962,20.591,0,22.2,0,24c0,1.799,0.962,3.409,2.436,4.288c-1.026,1.378-1.299,3.233-0.611,4.896
		c0.683,1.647,2.167,2.781,3.895,3.03c-0.419,1.665,0.037,3.483,1.309,4.756c1.24,1.237,3.089,1.728,4.757,1.308
		c0.248,1.701,1.367,3.206,3.03,3.894c1.631,0.677,3.539,0.407,4.896-0.608C20.593,47.039,22.201,48,24,48s3.408-0.961,4.288-2.435
		c1.356,1.013,3.261,1.285,4.897,0.608c1.662-0.688,2.78-2.193,3.028-3.894c1.665,0.421,3.517-0.07,4.757-1.309
		c1.273-1.273,1.731-3.091,1.31-4.756c1.727-0.249,3.21-1.383,3.893-3.029c0.69-1.663,0.417-3.518-0.61-4.896
		C47.039,27.41,48,25.801,48,24z M43.553,26.941c-0.402,0.075-0.718,0.387-0.798,0.788s0.092,0.811,0.435,1.034
		c1.21,0.787,1.688,2.324,1.136,3.655c-0.544,1.315-1.988,2.08-3.389,1.783c-0.404-0.089-0.811,0.083-1.039,0.423
		c-0.226,0.34-0.224,0.785,0.008,1.122c0.816,1.188,0.67,2.791-0.35,3.81c-0.997,0.996-2.658,1.143-3.811,0.35
		c-0.338-0.231-0.781-0.235-1.121-0.007c-0.341,0.226-0.508,0.638-0.424,1.038c0.299,1.412-0.45,2.837-1.78,3.388
		c-1.326,0.546-2.888,0.047-3.656-1.135c-0.222-0.343-0.635-0.515-1.033-0.436c-0.401,0.08-0.714,0.396-0.789,0.798
		C26.679,44.97,25.441,46,24,46s-2.679-1.03-2.943-2.448c-0.075-0.402-0.388-0.718-0.789-0.798c-0.064-0.013-0.13-0.019-0.194-0.019
		c-0.334,0-0.652,0.168-0.838,0.455c-0.768,1.182-2.332,1.682-3.653,1.135c-1.332-0.552-2.082-1.976-1.783-3.388
		c0.084-0.4-0.083-0.811-0.423-1.038c-0.34-0.226-0.784-0.224-1.121,0.007c-1.158,0.795-2.816,0.645-3.811-0.349
		c-1.019-1.02-1.165-2.622-0.35-3.812c0.231-0.337,0.233-0.781,0.006-1.121c-0.226-0.34-0.636-0.509-1.038-0.423
		c-1.398,0.301-2.845-0.468-3.389-1.782c-0.551-1.331-0.073-2.869,1.136-3.656c0.342-0.223,0.514-0.632,0.434-1.033
		c-0.079-0.401-0.396-0.713-0.797-0.788C3.029,26.678,2,25.441,2,24s1.029-2.679,2.447-2.945c0.402-0.075,0.718-0.387,0.797-0.788
		c0.08-0.401-0.093-0.81-0.436-1.033c-1.208-0.786-1.685-2.322-1.133-3.653c0.544-1.313,1.991-2.076,3.387-1.783
		c0.396,0.088,0.811-0.082,1.038-0.422c0.227-0.34,0.224-0.784-0.007-1.121c-0.815-1.19-0.669-2.793,0.35-3.811
		C9.44,7.446,11.099,7.3,12.255,8.093c0.336,0.231,0.781,0.234,1.121,0.007c0.34-0.227,0.507-0.639,0.423-1.039
		C13.5,5.65,14.25,4.226,15.58,3.674c1.321-0.546,2.887-0.048,3.657,1.135c0.223,0.343,0.629,0.513,1.033,0.436
		c0.4-0.08,0.713-0.396,0.788-0.798C21.321,3.029,22.559,2,24,2s2.679,1.029,2.943,2.446c0.075,0.402,0.388,0.718,0.789,0.798
		c0.4,0.079,0.809-0.093,1.033-0.436c0.767-1.183,2.331-1.682,3.653-1.135c1.333,0.552,2.083,1.977,1.783,3.387
		c-0.085,0.401,0.083,0.812,0.423,1.04c0.34,0.228,0.784,0.225,1.122-0.007c1.156-0.794,2.816-0.646,3.811,0.35
		c1.02,1.02,1.166,2.623,0.35,3.811c-0.232,0.338-0.235,0.782-0.008,1.122c0.228,0.34,0.634,0.508,1.039,0.423
		c1.396-0.299,2.844,0.468,3.389,1.781c0.551,1.331,0.073,2.869-1.136,3.657c-0.343,0.223-0.515,0.633-0.435,1.034
		c0.08,0.401,0.396,0.713,0.798,0.788C44.972,21.321,46,22.559,46,24C46,25.442,44.972,26.68,43.553,26.941z"/>
	<path fill="#010101" d="M25,14c1.654,0,3,1.346,3,3c0,0.552,0.447,1,1,1s1-0.448,1-1c0-2.757-2.243-5-5-5s-5,2.243-5,5v5h-3
		c-0.553,0-1,0.448-1,1s0.447,1,1,1h3v2c0,6-2.258,6-3,6c-0.553,0-1,0.448-1,1s0.447,1,1,1h12c0.553,0,1-0.448,1-1s-0.447-1-1-1
		h-8.297C21.479,30.786,22,28.893,22,26v-2h5c0.553,0,1-0.448,1-1s-0.447-1-1-1h-5v-5C22,15.346,23.346,14,25,14z"/>
</g>
</svg>
