<?xml version="1.0" encoding="utf-8"?>
<!-- Generator: Adobe Illustrator 17.0.0, SVG Export Plug-In . SVG Version: 6.00 Build 0)  -->
<!DOCTYPE svg PUBLIC "-//W3C//DTD SVG 1.1//EN" "http://www.w3.org/Graphics/SVG/1.1/DTD/svg11.dtd">
<svg version="1.1" id="Layer_1" xmlns="http://www.w3.org/2000/svg" xmlns:xlink="http://www.w3.org/1999/xlink" x="0px" y="0px"
	 width="48px" height="48px" viewBox="0 0 48 48" enable-background="new 0 0 48 48" xml:space="preserve">
<g>
	<path fill="#010101" d="M43,0H5C2.243,0,0,2.243,0,5v36c0,2.415,1.721,4.434,4,4.899V47c0,0.552,0.447,1,1,1s1-0.448,1-1v-1h36v1
		c0,0.552,0.447,1,1,1s1-0.448,1-1v-1.101c2.279-0.465,4-2.484,4-4.899V5C48,2.243,45.757,0,43,0z M46,41c0,1.654-1.346,3-3,3H5
		c-1.654,0-3-1.346-3-3V5c0-1.654,1.346-3,3-3h38c1.654,0,3,1.346,3,3V41z"/>
	<path fill="#010101" d="M37,6H11c-2.757,0-5,2.243-5,5v1H5c-0.553,0-1,0.448-1,1v6c0,0.552,0.447,1,1,1h1v6H5c-0.553,0-1,0.448-1,1
		v6c0,0.552,0.447,1,1,1h1v1c0,2.757,2.243,5,5,5h26c2.757,0,5-2.243,5-5V11C42,8.243,39.757,6,37,6z M6,14h2v4H6V14z M6,28h2v4H6
		V28z M40,35c0,1.654-1.346,3-3,3H11c-1.654,0-3-1.346-3-3v-1h1c0.553,0,1-0.448,1-1v-6c0-0.552-0.447-1-1-1H8v-6h1
		c0.553,0,1-0.448,1-1v-6c0-0.552-0.447-1-1-1H8v-1c0-1.654,1.346-3,3-3h26c1.654,0,3,1.346,3,3V35z"/>
	<path fill="#010101" d="M31.082,15.948c-0.005-0.005-0.007-0.012-0.012-0.018s-0.012-0.007-0.018-0.012
		C29.243,14.116,26.75,13,24,13c-2.748,0-5.239,1.115-7.048,2.915c-0.007,0.006-0.015,0.008-0.022,0.014
		c-0.006,0.006-0.008,0.015-0.014,0.021C15.115,17.76,14,20.252,14,23c0,2.748,1.115,5.239,2.915,7.048
		c0.006,0.007,0.008,0.015,0.014,0.022c0.006,0.006,0.015,0.008,0.021,0.014C18.76,31.885,21.252,33,24,33
		c2.746,0,5.235-1.113,7.044-2.911c0.008-0.007,0.018-0.01,0.026-0.017c0.007-0.007,0.01-0.018,0.017-0.025
		C32.886,28.238,34,25.747,34,23C34,20.25,32.884,17.757,31.082,15.948z M30.311,27.898l-1.426-1.427
		C29.4,25.749,29.756,24.909,29.91,24h2.021C31.747,25.458,31.172,26.792,30.311,27.898z M16.069,24h2.021
		c0.154,0.909,0.51,1.749,1.024,2.471l-1.427,1.426C16.828,26.791,16.252,25.457,16.069,24z M17.689,18.102l1.426,1.427
		C18.6,20.251,18.244,21.09,18.09,22h-2.021C16.253,20.542,16.828,19.208,17.689,18.102z M24,27c-2.206,0-4-1.794-4-4s1.794-4,4-4
		s4,1.794,4,4S26.206,27,24,27z M27.471,18.115C26.749,17.6,25.909,17.244,25,17.09v-2.021c1.458,0.183,2.792,0.759,3.898,1.619
		L27.471,18.115z M23,17.09c-0.909,0.154-1.749,0.51-2.471,1.024l-1.426-1.427c1.106-0.86,2.44-1.436,3.897-1.619V17.09z
		 M20.529,27.885C21.251,28.4,22.09,28.756,23,28.91v2.021c-1.458-0.183-2.792-0.759-3.898-1.619L20.529,27.885z M25,28.91
		c0.909-0.154,1.749-0.51,2.471-1.024l1.426,1.427c-1.106,0.86-2.44,1.435-3.897,1.618V28.91z M29.91,22
		c-0.154-0.909-0.51-1.749-1.024-2.471l1.426-1.426c0.86,1.106,1.436,2.44,1.619,3.898H29.91z"/>
</g>
</svg>
