<?xml version="1.0" encoding="utf-8"?>
<!-- Generator: Adobe Illustrator 17.0.0, SVG Export Plug-In . SVG Version: 6.00 Build 0)  -->
<!DOCTYPE svg PUBLIC "-//W3C//DTD SVG 1.1//EN" "http://www.w3.org/Graphics/SVG/1.1/DTD/svg11.dtd">
<svg version="1.1" id="Layer_1" xmlns="http://www.w3.org/2000/svg" xmlns:xlink="http://www.w3.org/1999/xlink" x="0px" y="0px"
	 width="48px" height="48px" viewBox="0 0 48 48" enable-background="new 0 0 48 48" xml:space="preserve">
<g>
	<path fill="#010101" d="M35.864,46.278l-4.172-4C31.506,42.1,31.258,42,31,42H13.92c0.047-0.328,0.08-0.66,0.08-1
		c0-0.34-0.033-0.672-0.08-0.999H33c0.552,0,1-0.448,1-1v-18c0-0.552-0.448-1-1-1h-5V11c0-0.552-0.448-1-1-1H13
		c-0.552,0-1,0.448-1,1v10c0,0,0,0,0,0s0,0,0,0V36.11c-0.574-0.587-1.251-1.068-2-1.425V1c0-0.552-0.448-1-1-1H3
		C2.448,0,2,0.448,2,1s0.448,1,1,1h5v32.08C7.672,34.033,7.34,34,7,34c-3.86,0-7,3.14-7,7s3.14,7,7,7c2.785,0,5.189-1.639,6.315-4
		h17.283l3.882,3.722C34.674,47.908,34.923,48,35.172,48c0.263,0,0.525-0.103,0.722-0.308C36.276,47.293,36.263,46.66,35.864,46.278
		z M32,38.001H14v-16h18V38.001z M14,12h12v8H14V12z M7,46c-2.757,0-5-2.243-5-5s2.243-5,5-5s5,2.243,5,5S9.757,46,7,46z"/>
	<path fill="#010101" d="M25,36h4c0.552,0,1-0.448,1-1s-0.448-1-1-1h-4c-0.552,0-1,0.448-1,1S24.448,36,25,36z"/>
	<path fill="#010101" d="M19,16h-2c-0.552,0-1,0.448-1,1s0.448,1,1,1h2c0.552,0,1-0.448,1-1S19.552,16,19,16z"/>
</g>
</svg>
