<?xml version="1.0" encoding="utf-8"?>
<!-- Generator: Adobe Illustrator 17.0.0, SVG Export Plug-In . SVG Version: 6.00 Build 0)  -->
<!DOCTYPE svg PUBLIC "-//W3C//DTD SVG 1.1//EN" "http://www.w3.org/Graphics/SVG/1.1/DTD/svg11.dtd">
<svg version="1.1" id="Layer_1" xmlns="http://www.w3.org/2000/svg" xmlns:xlink="http://www.w3.org/1999/xlink" x="0px" y="0px"
	 width="48px" height="48px" viewBox="0 0 48 48" enable-background="new 0 0 48 48" xml:space="preserve">
<g>
	<path fill="#010101" d="M16,36c-3.309,0-6,2.691-6,6s2.691,6,6,6s6-2.691,6-6S19.309,36,16,36z M16,46c-2.206,0-4-1.794-4-4
		s1.794-4,4-4s4,1.794,4,4S18.206,46,16,46z"/>
	<path fill="#010101" d="M38,36c-3.309,0-6,2.691-6,6s2.691,6,6,6s6-2.691,6-6S41.309,36,38,36z M38,46c-2.206,0-4-1.794-4-4
		s1.794-4,4-4s4,1.794,4,4S40.206,46,38,46z"/>
	<path fill="#010101" d="M47,12H17c-0.552,0-1,0.448-1,1v7H9c-4.962,0-9,4.038-9,9v14c0,0.552,0.448,1,1,1h6c0.552,0,1-0.448,1-1
		s-0.448-1-1-1H2v-2h6c0.552,0,1-0.448,1-1s-0.448-1-1-1H2v-9c0-3.86,3.14-7,7-7h7v11c0,0.552,0.448,1,1,1s1-0.448,1-1V14h28v27
		c0,0.552,0.448,1,1,1s1-0.448,1-1V13C48,12.448,47.552,12,47,12z"/>
	<path fill="#010101" d="M29,40h-4c-0.552,0-1,0.448-1,1s0.448,1,1,1h4c0.552,0,1-0.448,1-1S29.552,40,29,40z"/>
	<path fill="#010101" d="M14,25c0-0.552-0.448-1-1-1H8c-2.206,0-4,1.794-4,4v5c0,0.552,0.448,1,1,1s1-0.448,1-1v-5
		c0-1.103,0.897-2,2-2h5C13.552,26,14,25.552,14,25z"/>
</g>
</svg>
