<?xml version="1.0" encoding="utf-8"?>
<!-- Generator: Adobe Illustrator 17.0.0, SVG Export Plug-In . SVG Version: 6.00 Build 0)  -->
<!DOCTYPE svg PUBLIC "-//W3C//DTD SVG 1.1//EN" "http://www.w3.org/Graphics/SVG/1.1/DTD/svg11.dtd">
<svg version="1.1" id="Layer_1" xmlns="http://www.w3.org/2000/svg" xmlns:xlink="http://www.w3.org/1999/xlink" x="0px" y="0px"
	 width="48px" height="48px" viewBox="0 0 48 48" enable-background="new 0 0 48 48" xml:space="preserve">
<g>
	<path fill="#010101" d="M43,8H5c-2.757,0-5,2.243-5,5v26c0,2.757,2.243,5,5,5h38c2.757,0,5-2.243,5-5V13C48,10.243,45.757,8,43,8z
		 M46,39c0,1.654-1.346,3-3,3H5c-1.654,0-3-1.346-3-3V13c0-1.654,1.346-3,3-3h38c1.654,0,3,1.346,3,3V39z"/>
	<path fill="#010101" d="M17.77,21l-2.265,4.84C15.01,26.89,14.53,28,14.155,29h-0.03c-0.061-1-0.135-2.081-0.24-3.145L13.435,21
		H12.53c-0.026,0-0.049,0-0.076,0H9.828c-0.553,0-1,0.449-1,1c0,0.553,0.447,1,1,1h1.619l1.013,8h2.505l5.22-10H17.77z"/>
	<polygon fill="#010101" points="21.325,21 19.405,31 21.565,31 23.484,21 	"/>
	<path fill="#010101" d="M28.27,25.075c-0.855-0.48-1.471-0.84-1.471-1.425c0-0.555,0.525-1.065,1.53-1.065
		c0.84-0.015,1.56,0.27,1.89,0.449l0.676-1.8c-0.436-0.24-1.155-0.51-2.386-0.51c-2.204,0-3.989,1.245-3.989,3.285
		c0,1.32,1.02,2.1,2.1,2.685c0.93,0.48,1.365,0.856,1.365,1.425c0,0.795-0.765,1.186-1.605,1.186c-0.93,0-1.784-0.286-2.385-0.646
		l-0.72,1.771c0.479,0.359,1.485,0.719,2.894,0.719c2.25,0,4.11-1.155,4.11-3.405C30.279,26.546,29.499,25.72,28.27,25.075z"/>
	<path fill="#010101" d="M35.335,21l-4.92,10h2.295l1.2-3h2.909l0.21,3h2.266l-1.186-10H35.335z M34.54,27l1.005-2.098
		C35.814,24.318,36.1,23,36.354,23h0.03c0.045,0,0.104,1.347,0.15,1.902L36.729,27H34.54z"/>
</g>
</svg>
