<?xml version="1.0" encoding="utf-8"?>
<!-- Generator: Adobe Illustrator 17.0.0, SVG Export Plug-In . SVG Version: 6.00 Build 0)  -->
<!DOCTYPE svg PUBLIC "-//W3C//DTD SVG 1.1//EN" "http://www.w3.org/Graphics/SVG/1.1/DTD/svg11.dtd">
<svg version="1.1" id="Layer_1" xmlns="http://www.w3.org/2000/svg" xmlns:xlink="http://www.w3.org/1999/xlink" x="0px" y="0px"
	 width="48px" height="48px" viewBox="0 0 48 48" enable-background="new 0 0 48 48" xml:space="preserve">
<g>
	<path fill="#010101" d="M24,0C10.767,0,0,10.767,0,24s10.767,24,24,24c13.233,0,24-10.767,24-24S37.233,0,24,0z M24,46
		C11.869,46,2,36.131,2,24S11.869,2,24,2s22,9.869,22,22S36.131,46,24,46z"/>
	<path fill="#010101" d="M30.181,13.427L24,22.256l-6.181-8.829c-0.316-0.453-0.939-0.562-1.392-0.246
		c-0.453,0.316-0.562,0.94-0.246,1.392L22.78,24H19c-0.552,0-1,0.448-1,1s0.448,1,1,1h4v2h-4c-0.552,0-1,0.448-1,1s0.448,1,1,1h4v6
		c0,0.552,0.448,1,1,1s1-0.448,1-1v-6h4c0.552,0,1-0.448,1-1s-0.448-1-1-1h-4v-2h4c0.552,0,1-0.448,1-1s-0.448-1-1-1h-3.78
		l6.599-9.427c0.316-0.452,0.207-1.075-0.246-1.392C31.122,12.865,30.498,12.974,30.181,13.427z"/>
</g>
</svg>
