<?xml version="1.0" encoding="utf-8"?>
<!-- Generator: Adobe Illustrator 17.1.0, SVG Export Plug-In . SVG Version: 6.00 Build 0)  -->
<!DOCTYPE svg PUBLIC "-//W3C//DTD SVG 1.0//EN" "http://www.w3.org/TR/2001/REC-SVG-20010904/DTD/svg10.dtd">
<svg version="1.0" id="Layer_1" xmlns="http://www.w3.org/2000/svg" xmlns:xlink="http://www.w3.org/1999/xlink" x="0px" y="0px"
	 width="48px" height="48px" viewBox="0 0 48 48" enable-background="new 0 0 48 48" xml:space="preserve">
<g>
	<path d="M48,24c0-1.8-0.962-3.409-2.438-4.289c1.026-1.377,1.299-3.232,0.611-4.895c-0.683-1.646-2.166-2.781-3.894-3.03
		c0.421-1.665-0.037-3.483-1.31-4.757c-1.238-1.238-3.088-1.731-4.756-1.31c-0.248-1.699-1.367-3.203-3.031-3.892
		c-1.63-0.676-3.537-0.407-4.896,0.608C27.407,0.961,25.799,0,24,0s-3.408,0.961-4.288,2.437c-1.357-1.015-3.266-1.285-4.897-0.608
		c-1.663,0.688-2.781,2.191-3.03,3.892c-1.666-0.422-3.518,0.071-4.757,1.31c-1.271,1.272-1.729,3.09-1.308,4.756
		c-1.727,0.249-3.21,1.384-3.893,3.03c-0.689,1.661-0.416,3.516,0.609,4.895C0.962,20.59,0,22.2,0,24
		c0,1.799,0.962,3.409,2.438,4.289c-1.026,1.378-1.299,3.233-0.611,4.895c0.683,1.646,2.167,2.781,3.894,3.03
		c-0.42,1.665,0.037,3.483,1.308,4.756c1.239,1.238,3.089,1.73,4.758,1.309c0.249,1.7,1.368,3.204,3.03,3.894
		c1.631,0.676,3.538,0.406,4.896-0.609C20.593,47.039,22.201,48,24,48s3.407-0.961,4.288-2.436c1.356,1.015,3.262,1.285,4.896,0.609
		c1.662-0.688,2.78-2.193,3.029-3.894c1.667,0.422,3.519-0.07,4.757-1.31c1.272-1.273,1.73-3.091,1.31-4.756
		c1.727-0.25,3.211-1.384,3.894-3.03c0.689-1.662,0.417-3.517-0.61-4.895C47.039,27.41,48,25.8,48,24z M43.553,26.942
		c-0.402,0.075-0.718,0.387-0.798,0.788c-0.08,0.401,0.093,0.811,0.436,1.034c1.21,0.787,1.688,2.323,1.136,3.655
		c-0.545,1.313-1.993,2.077-3.389,1.782c-0.397-0.085-0.811,0.083-1.039,0.423c-0.227,0.34-0.224,0.784,0.008,1.122
		c0.816,1.188,0.669,2.791-0.35,3.811c-0.997,0.996-2.658,1.143-3.811,0.35c-0.335-0.232-0.78-0.235-1.121-0.008
		c-0.341,0.227-0.508,0.639-0.424,1.039c0.299,1.412-0.451,2.837-1.781,3.389c-1.32,0.546-2.887,0.047-3.655-1.136
		c-0.225-0.343-0.629-0.516-1.034-0.436c-0.4,0.08-0.713,0.395-0.788,0.798C26.679,44.971,25.441,46,24,46s-2.679-1.029-2.942-2.447
		c-0.075-0.403-0.388-0.719-0.788-0.798c-0.065-0.013-0.131-0.019-0.195-0.019c-0.334,0-0.651,0.168-0.839,0.455
		c-0.768,1.183-2.333,1.683-3.653,1.136c-1.331-0.552-2.082-1.977-1.783-3.388c0.084-0.4-0.083-0.811-0.423-1.038
		c-0.339-0.227-0.784-0.225-1.121,0.007c-1.156,0.794-2.815,0.645-3.811-0.349c-1.018-1.02-1.165-2.623-0.35-3.812
		c0.23-0.337,0.233-0.781,0.006-1.121c-0.227-0.34-0.637-0.508-1.038-0.423c-1.39,0.295-2.844-0.468-3.388-1.782
		c-0.551-1.332-0.073-2.869,1.136-3.656c0.343-0.223,0.515-0.632,0.435-1.033c-0.079-0.401-0.396-0.713-0.797-0.788
		C3.029,26.678,2,25.44,2,24c0-1.441,1.028-2.679,2.446-2.942c0.402-0.074,0.718-0.386,0.798-0.787
		c0.08-0.401-0.092-0.81-0.435-1.034c-1.208-0.788-1.686-2.325-1.134-3.655c0.545-1.314,1.997-2.078,3.385-1.782
		c0.402,0.085,0.812-0.083,1.039-0.422c0.227-0.34,0.225-0.784-0.006-1.121c-0.816-1.191-0.669-2.794,0.349-3.812
		C9.44,7.449,11.1,7.3,12.254,8.094c0.338,0.231,0.78,0.234,1.122,0.007c0.34-0.227,0.507-0.638,0.423-1.038
		C13.5,5.65,14.249,4.227,15.58,3.676c1.32-0.548,2.887-0.047,3.655,1.134c0.224,0.343,0.629,0.516,1.034,0.435
		c0.4-0.079,0.713-0.395,0.788-0.797C21.321,3.029,22.559,2,24,2s2.679,1.029,2.942,2.448c0.075,0.402,0.388,0.718,0.788,0.798
		c0.407,0.079,0.811-0.093,1.034-0.436c0.77-1.183,2.336-1.68,3.653-1.134c1.333,0.552,2.083,1.976,1.783,3.386
		c-0.085,0.4,0.083,0.812,0.423,1.04c0.341,0.227,0.785,0.225,1.122-0.007c1.153-0.793,2.813-0.646,3.811,0.35
		c1.019,1.02,1.166,2.623,0.35,3.811c-0.232,0.337-0.234,0.781-0.008,1.122c0.228,0.34,0.636,0.508,1.039,0.423
		c1.403-0.298,2.845,0.469,3.389,1.781c0.551,1.332,0.073,2.869-1.137,3.656c-0.343,0.223-0.515,0.632-0.435,1.034
		c0.08,0.401,0.396,0.713,0.798,0.787C44.971,21.321,46,22.559,46,24C46,25.442,44.971,26.68,43.553,26.942z"/>
	<path d="M30.181,13.427L24,22.256l-6.181-8.829c-0.316-0.453-0.942-0.562-1.392-0.246c-0.453,0.317-0.562,0.94-0.246,1.392
		L22.779,24H19c-0.553,0-1,0.448-1,1c0,0.552,0.447,1,1,1h4v2h-4c-0.553,0-1,0.448-1,1c0,0.552,0.447,1,1,1h4v6c0,0.552,0.447,1,1,1
		s1-0.448,1-1v-6h4c0.553,0,1-0.448,1-1c0-0.552-0.447-1-1-1h-4v-2h4c0.553,0,1-0.448,1-1c0-0.552-0.447-1-1-1h-3.779l6.599-9.427
		c0.316-0.452,0.207-1.076-0.246-1.392C31.12,12.864,30.497,12.974,30.181,13.427z"/>
</g>
</svg>
