<?xml version="1.0" encoding="utf-8"?>
<!-- Generator: Adobe Illustrator 17.0.0, SVG Export Plug-In . SVG Version: 6.00 Build 0)  -->
<!DOCTYPE svg PUBLIC "-//W3C//DTD SVG 1.1//EN" "http://www.w3.org/Graphics/SVG/1.1/DTD/svg11.dtd">
<svg version="1.1" id="Layer_1" xmlns="http://www.w3.org/2000/svg" xmlns:xlink="http://www.w3.org/1999/xlink" x="0px" y="0px"
	 width="60px" height="60px" viewBox="0 0 60 60" enable-background="new 0 0 60 60" xml:space="preserve">
<g>
	<path fill="#010101" d="M24.935,40.177c0.435,0.321,0.842,0.621,1.212,0.9l-3.021,5.438c-0.172,0.31-0.168,0.688,0.012,0.993
		C23.317,47.812,23.646,48,24,48h4v6c0,2.206,1.794,4,4,4s4-1.794,4-4c0-1.103,0.897-2,2-2s2,0.897,2,2v5c0,0.552,0.447,1,1,1
		s1-0.448,1-1v-5c0-2.206-1.794-4-4-4s-4,1.794-4,4c0,1.103-0.897,2-2,2s-2-0.897-2-2v-6h4c0.354,0,0.683-0.188,0.862-0.493
		c0.18-0.306,0.184-0.683,0.012-0.993l-3.021-5.438c0.37-0.279,0.777-0.579,1.212-0.9C38.285,36.327,48,29.16,48,19
		C48,8.523,39.477,0,29,0S10,8.523,10,19C10,29.16,19.715,36.327,24.935,40.177z M29,2c9.374,0,17,7.626,17,17
		c0,9.15-8.84,15.671-14.121,19.567c-0.738,0.544-1.396,1.03-1.937,1.455c-0.386,0.304-0.494,0.842-0.256,1.272L32.301,46h-6.602
		l2.614-4.706c0.238-0.43,0.13-0.968-0.256-1.272c-0.541-0.425-1.198-0.911-1.937-1.455C20.84,34.671,12,28.15,12,19
		C12,9.626,19.626,2,29,2z"/>
	<path fill="#010101" d="M29,8c0.553,0,1-0.448,1-1s-0.447-1-1-1c-7.168,0-13,5.832-13,13c0,0.552,0.447,1,1,1s1-0.448,1-1
		C18,12.935,22.935,8,29,8z"/>
</g>
</svg>
