<?xml version="1.0" encoding="utf-8"?>
<!-- Generator: Adobe Illustrator 17.0.0, SVG Export Plug-In . SVG Version: 6.00 Build 0)  -->
<!DOCTYPE svg PUBLIC "-//W3C//DTD SVG 1.1//EN" "http://www.w3.org/Graphics/SVG/1.1/DTD/svg11.dtd">
<svg version="1.1" id="Layer_1" xmlns="http://www.w3.org/2000/svg" xmlns:xlink="http://www.w3.org/1999/xlink" x="0px" y="0px"
	 width="60px" height="60px" viewBox="0 0 60 60" enable-background="new 0 0 60 60" xml:space="preserve">
<g>
	<path fill="#010101" d="M47,0H11C8.243,0,6,2.243,6,5v50c0,2.757,2.243,5,5,5h36c2.757,0,5-2.243,5-5V5C52,2.243,49.757,0,47,0z
		 M50,55c0,1.654-1.346,3-3,3H11c-1.654,0-3-1.346-3-3V5c0-1.654,1.346-3,3-3h36c1.654,0,3,1.346,3,3V55z"/>
	<path fill="#010101" d="M21.781,11.375l-4-5c-0.381-0.475-1.182-0.475-1.562,0l-4,5c-0.292,0.365-0.292,0.884,0,1.249l4,5
		C16.409,17.862,16.696,18,17,18s0.591-0.138,0.781-0.375l4-5C22.073,12.259,22.073,11.741,21.781,11.375z M17,15.399L14.28,12
		L17,8.601L19.72,12L17,15.399z"/>
	<path fill="#010101" d="M41.781,42.375c-0.381-0.475-1.182-0.475-1.562,0l-4,5c-0.292,0.365-0.292,0.884,0,1.249l4,5
		C40.409,53.862,40.696,54,41,54s0.591-0.138,0.781-0.375l4-5c0.292-0.365,0.292-0.884,0-1.249L41.781,42.375z M41,51.399L38.28,48
		L41,44.601L43.72,48L41,51.399z"/>
	<path fill="#010101" d="M36.819,29.427l-7-10c-0.375-0.535-1.264-0.535-1.639,0l-7,10c-0.241,0.344-0.241,0.802,0,1.146l7,10
		C28.368,40.841,28.674,41,29,41s0.632-0.159,0.819-0.427l7-10C37.061,30.229,37.061,29.771,36.819,29.427z M29,38.256L23.221,30
		L29,21.744L34.779,30L29,38.256z"/>
</g>
</svg>
