<?xml version="1.0" encoding="utf-8"?>
<!-- Generator: Adobe Illustrator 17.0.0, SVG Export Plug-In . SVG Version: 6.00 Build 0)  -->
<!DOCTYPE svg PUBLIC "-//W3C//DTD SVG 1.1//EN" "http://www.w3.org/Graphics/SVG/1.1/DTD/svg11.dtd">
<svg version="1.1" id="Layer_1" xmlns="http://www.w3.org/2000/svg" xmlns:xlink="http://www.w3.org/1999/xlink" x="0px" y="0px"
	 width="60px" height="60px" viewBox="0 0 60 60" enable-background="new 0 0 60 60" xml:space="preserve">
<g>
	<path fill="#010101" d="M36.03,41.31c0.081,0.325,0.318,0.587,0.633,0.701c0.11,0.039,0.225,0.059,0.338,0.059
		c0.212,0,0.421-0.067,0.596-0.197l7.302-5.415c0.324-0.241,0.472-0.652,0.375-1.044l-2.191-8.823
		c-0.081-0.324-0.318-0.587-0.633-0.7c-0.315-0.111-0.665-0.06-0.934,0.138l-7.301,5.415c-0.324,0.241-0.472,0.652-0.375,1.044
		L36.03,41.31z M41.502,28.528l1.67,6.72l-5.562,4.125l-1.669-6.72L41.502,28.528z"/>
	<path fill="#010101" d="M59.327,20.055l-26-9c-0.253-0.088-0.528-0.071-0.77,0.048c-0.239,0.118-0.422,0.327-0.506,0.581
		L31.81,12.41l-2.851-9.692c-0.151-0.518-0.688-0.82-1.21-0.686l-27,7C0.218,9.17-0.104,9.71,0.03,10.243l9,36
		c0.066,0.267,0.24,0.495,0.481,0.63C9.662,46.957,9.83,47,10,47c0.101,0,0.202-0.015,0.3-0.046l11.166-3.513l-1.414,4.243
		c-0.172,0.515,0.099,1.073,0.609,1.257l25,9C45.773,57.981,45.888,58,46,58c0.409,0,0.794-0.253,0.94-0.661l13-36
		c0.091-0.252,0.077-0.529-0.038-0.771C59.787,20.328,59.58,20.143,59.327,20.055z M10.713,44.728L2.211,10.719l25.103-6.508
		l3.389,11.52l-8.456,25.367L10.713,44.728z M45.398,55.721L22.258,47.39l11.371-34.114l24.086,8.337L45.398,55.721z"/>
	
		<rect x="35.043" y="17.022" transform="matrix(0.4265 0.9045 -0.9045 0.4265 36.8095 -22.229)" fill="#010101" width="1.784" height="1.783"/>
	
		<rect x="42.286" y="49.096" transform="matrix(-0.4285 -0.9035 0.9035 -0.4285 16.5129 110.4182)" fill="#010101" width="1.782" height="1.782"/>
	<path fill="#010101" d="M17.749,16.484c-0.406-0.178-0.884-0.07-1.17,0.27c-0.732,0.869-4.353,5.346-3.709,8.146
		c0.501,2.17,2.459,3.518,5.109,3.518c0.287,0,0.577-0.019,0.867-0.05l0.357,1.545c0.107,0.462,0.519,0.775,0.974,0.775
		c0.074,0,0.15-0.008,0.226-0.025c0.538-0.125,0.874-0.662,0.75-1.2l-0.357-1.547c1.077-0.386,2.021-0.969,2.71-1.7
		c1.075-1.14,1.481-2.571,1.146-4.03C24.004,19.382,18.788,16.944,17.749,16.484z M22.05,24.843
		c-0.611,0.648-1.582,1.163-2.664,1.412c-0.471,0.109-0.944,0.164-1.406,0.164c-0.813,0-2.751-0.191-3.16-1.967
		c-0.28-1.219,1.35-3.938,2.811-5.816c2.135,1.046,4.79,2.776,5.071,4C22.888,23.444,22.669,24.187,22.05,24.843z"/>
	<circle fill="#010101" cx="8" cy="14" r="2"/>
</g>
</svg>
