<?xml version="1.0" encoding="utf-8"?>
<!-- Generator: Adobe Illustrator 17.0.0, SVG Export Plug-In . SVG Version: 6.00 Build 0)  -->
<!DOCTYPE svg PUBLIC "-//W3C//DTD SVG 1.1//EN" "http://www.w3.org/Graphics/SVG/1.1/DTD/svg11.dtd">
<svg version="1.1" id="Layer_1" xmlns="http://www.w3.org/2000/svg" xmlns:xlink="http://www.w3.org/1999/xlink" x="0px" y="0px"
	 width="60px" height="60px" viewBox="0 0 60 60" enable-background="new 0 0 60 60" xml:space="preserve">
<g>
	<path fill="#010101" d="M23,20c-1.654,0-3,1.346-3,3s1.346,3,3,3s3-1.346,3-3S24.654,20,23,20z M23,24c-0.551,0-1-0.449-1-1
		s0.449-1,1-1s1,0.449,1,1S23.551,24,23,24z"/>
	<path fill="#010101" d="M35,11c1.654,0,3-1.346,3-3s-1.346-3-3-3s-3,1.346-3,3S33.346,11,35,11z M35,7c0.551,0,1,0.449,1,1
		s-0.449,1-1,1s-1-0.449-1-1S34.449,7,35,7z"/>
	<path fill="#010101" d="M8,31c-1.654,0-3,1.346-3,3s1.346,3,3,3s3-1.346,3-3S9.654,31,8,31z M8,35c-0.551,0-1-0.449-1-1
		s0.449-1,1-1s1,0.449,1,1S8.551,35,8,35z"/>
	<path fill="#010101" d="M16,44c-1.654,0-3,1.346-3,3s1.346,3,3,3s3-1.346,3-3S17.654,44,16,44z M16,48c-0.551,0-1-0.449-1-1
		s0.449-1,1-1s1,0.449,1,1S16.551,48,16,48z"/>
	<path fill="#010101" d="M39,36c1.654,0,3-1.346,3-3s-1.346-3-3-3s-3,1.346-3,3S37.346,36,39,36z M39,32c0.551,0,1,0.449,1,1
		s-0.449,1-1,1s-1-0.449-1-1S38.449,32,39,32z"/>
	<path fill="#010101" d="M51,20c1.654,0,3-1.346,3-3s-1.346-3-3-3s-3,1.346-3,3S49.346,20,51,20z M51,16c0.551,0,1,0.449,1,1
		s-0.449,1-1,1s-1-0.449-1-1S50.449,16,51,16z"/>
	<path fill="#010101" d="M51,33c1.654,0,3-1.346,3-3s-1.346-3-3-3s-3,1.346-3,3S49.346,33,51,33z M51,29c0.551,0,1,0.449,1,1
		s-0.449,1-1,1s-1-0.449-1-1S50.449,29,51,29z"/>
	<path fill="#010101" d="M30,50c1.654,0,3-1.346,3-3s-1.346-3-3-3s-3,1.346-3,3S28.346,50,30,50z M30,46c0.551,0,1,0.449,1,1
		s-0.449,1-1,1s-1-0.449-1-1S29.449,46,30,46z"/>
	<path fill="#010101" d="M35,43c1.654,0,3-1.346,3-3s-1.346-3-3-3s-3,1.346-3,3S33.346,43,35,43z M35,39c0.551,0,1,0.449,1,1
		s-0.449,1-1,1s-1-0.449-1-1S34.449,39,35,39z"/>
	<path fill="#010101" d="M57.59,7.193c-0.088-0.065-0.193-0.091-0.294-0.123l0.007-0.023l-22-7c-0.197-0.062-0.409-0.062-0.606,0
		l-22,7l0.007,0.023c-0.102,0.032-0.206,0.058-0.295,0.123C12.152,7.381,12,7.681,12,8v10.45L0.697,22.047l0.007,0.023
		c-0.102,0.032-0.206,0.058-0.295,0.123C0.152,22.381,0,22.681,0,23v27c0,0.406,0.246,0.772,0.622,0.926l22,9
		C22.743,59.975,22.872,60,23,60s0.257-0.025,0.378-0.074l22-9C45.754,50.772,46,50.406,46,50v-9.419l11.378-4.655
		C57.754,35.772,58,35.406,58,35V8C58,7.681,57.848,7.381,57.59,7.193z M35,2.049L53.701,8L35,13.951L16.299,8L35,2.049z M23,28.951
		L4.299,23L23,17.049L41.701,23L23,28.951z M14,9.368l20,6.364v2.719l-10.697-3.404c-0.197-0.062-0.409-0.062-0.606,0L14,17.814
		V9.368z M2,24.368l20,6.364V57.51L2,49.329V24.368z M44,49.329L24,57.51V30.731l20-6.364V49.329z M56,34.329l-10,4.091V23
		c0-0.319-0.152-0.619-0.41-0.807c-0.088-0.065-0.193-0.091-0.294-0.123l0.007-0.023L36,19.087v-3.355l20-6.364V34.329z"/>
</g>
</svg>
