<?xml version="1.0" encoding="utf-8"?>
<!-- Generator: Adobe Illustrator 17.0.0, SVG Export Plug-In . SVG Version: 6.00 Build 0)  -->
<!DOCTYPE svg PUBLIC "-//W3C//DTD SVG 1.1//EN" "http://www.w3.org/Graphics/SVG/1.1/DTD/svg11.dtd">
<svg version="1.1" id="Layer_1" xmlns="http://www.w3.org/2000/svg" xmlns:xlink="http://www.w3.org/1999/xlink" x="0px" y="0px"
	 width="60px" height="60px" viewBox="0 0 60 60" enable-background="new 0 0 60 60" xml:space="preserve">
<g>
	<path fill="#010101" d="M57.323,13.431c0.044-0.262-0.017-0.53-0.17-0.747C51.528,4.742,42.373,0,32.663,0
		c-16.542,0-30,13.458-30,30s13.458,30,30,30c9.711,0,18.866-4.741,24.49-12.681c0.153-0.217,0.214-0.485,0.17-0.747
		c-0.045-0.262-0.192-0.495-0.409-0.648L34.395,30l22.519-15.922C57.131,13.925,57.278,13.692,57.323,13.431z M32.086,29.184
		c-0.265,0.188-0.423,0.492-0.423,0.816s0.158,0.629,0.423,0.816L54.928,46.97C49.642,53.895,41.393,58,32.663,58
		c-15.439,0-28-12.561-28-28s12.561-28,28-28c8.729,0,16.977,4.106,22.265,11.033L32.086,29.184z"/>
	<path fill="#010101" d="M26.663,10c-3.309,0-6,2.691-6,6s2.691,6,6,6s6-2.691,6-6S29.972,10,26.663,10z M26.663,20
		c-2.206,0-4-1.794-4-4s1.794-4,4-4s4,1.794,4,4S28.869,20,26.663,20z"/>
</g>
</svg>
