<?xml version="1.0" encoding="utf-8"?>
<!-- Generator: Adobe Illustrator 17.0.0, SVG Export Plug-In . SVG Version: 6.00 Build 0)  -->
<!DOCTYPE svg PUBLIC "-//W3C//DTD SVG 1.1//EN" "http://www.w3.org/Graphics/SVG/1.1/DTD/svg11.dtd">
<svg version="1.1" id="Layer_1" xmlns="http://www.w3.org/2000/svg" xmlns:xlink="http://www.w3.org/1999/xlink" x="0px" y="0px"
	 width="60px" height="60px" viewBox="0 0 60 60" enable-background="new 0 0 60 60" xml:space="preserve">
<g>
	<path fill="#010101" d="M29,60c5.464,0,27-13.117,27-30V1c0-0.404-0.244-0.769-0.617-0.924c-0.373-0.155-0.803-0.069-1.09,0.216
		c-2.612,2.611-13.016,4.434-25.3,4.434c-12.277,0-22.675-1.823-25.286-4.434C3.42,0.006,2.991-0.08,2.617,0.076
		C2.244,0.231,2,0.596,2,1v29C2,46.883,23.536,60,29,60z M4,2.945c4.987,2.762,15.777,3.782,24.993,3.781
		c9.221,0,20.018-1.02,25.007-3.782V30c0,15.081-20.252,28-25,28S4,45.081,4,30V2.945z"/>
	<path fill="#010101" d="M20,35c0-0.552-0.448-1-1-1s-1,0.448-1,1c0,6.065,4.935,11,11,11s11-4.935,11-11c0-0.552-0.448-1-1-1
		s-1,0.448-1,1c0,4.962-4.038,9-9,9S20,39.962,20,35z"/>
	<path fill="#010101" d="M14,22c0-2.206,1.794-4,4-4s4,1.794,4,4c0,0.552,0.448,1,1,1s1-0.448,1-1c0-3.309-2.691-6-6-6s-6,2.691-6,6
		c0,0.552,0.448,1,1,1S14,22.552,14,22z"/>
	<path fill="#010101" d="M35,23c0.552,0,1-0.448,1-1c0-2.206,1.794-4,4-4s4,1.794,4,4c0,0.552,0.448,1,1,1s1-0.448,1-1
		c0-3.309-2.691-6-6-6s-6,2.691-6,6C34,22.552,34.448,23,35,23z"/>
</g>
</svg>
