<?xml version="1.0" encoding="utf-8"?>
<!-- Generator: Adobe Illustrator 17.0.0, SVG Export Plug-In . SVG Version: 6.00 Build 0)  -->
<!DOCTYPE svg PUBLIC "-//W3C//DTD SVG 1.1//EN" "http://www.w3.org/Graphics/SVG/1.1/DTD/svg11.dtd">
<svg version="1.1" id="Layer_1" xmlns="http://www.w3.org/2000/svg" xmlns:xlink="http://www.w3.org/1999/xlink" x="0px" y="0px"
	 width="60px" height="60px" viewBox="0 0 60 60" enable-background="new 0 0 60 60" xml:space="preserve">
<g>
	<path fill="#010101" d="M59.383,12.346c-0.375-0.155-0.804-0.069-1.09,0.217C55.639,15.216,47.482,17,37.995,17
		c-9.482,0-17.635-1.783-20.287-4.438c-0.287-0.286-0.717-0.372-1.09-0.217C16.244,12.5,16,12.865,16,13.27V34
		c0,14.19,15.974,26,22,26s22-11.81,22-26V13.27C60,12.865,59.756,12.5,59.383,12.346z M58,34c0,12.93-15.245,24-20,24
		S18,46.93,18,34V15.282C22.502,17.996,30.96,19,37.995,19c7.038,0,15.501-1.004,20.005-3.719V34z"/>
	<path fill="#010101" d="M9,40c0.244,0,0.489-0.089,0.681-0.268c0.404-0.376,0.427-1.009,0.051-1.413C7.407,35.821,2,29.232,2,22
		V2.998C7.036,5.984,17.344,7.016,25.684,6.66C29.407,6.501,37.649,5.842,42,3.125V11c0,0.552,0.448,1,1,1s1-0.448,1-1V1
		c0-0.42-0.263-0.795-0.657-0.939c-0.395-0.144-0.837-0.025-1.108,0.295c-1.935,2.3-8.31,3.95-16.636,4.306
		C14.742,5.124,4.701,3.288,1.708,0.293C1.42,0.006,0.989-0.08,0.618,0.076C0.244,0.231,0,0.596,0,1v21
		c0,7.942,5.782,15.011,8.268,17.681C8.465,39.893,8.732,40,9,40z"/>
	<path fill="#010101" d="M31,42c0-0.552-0.448-1-1-1s-1,0.448-1,1c0,4.962,4.038,9,9,9s9-4.038,9-9c0-0.552-0.448-1-1-1
		s-1,0.448-1,1c0,3.86-3.14,7-7,7S31,45.86,31,42z"/>
	<path fill="#010101" d="M43,32c0.552,0,1-0.448,1-1c0-1.654,1.346-3,3-3s3,1.346,3,3c0,0.552,0.448,1,1,1s1-0.448,1-1
		c0-2.757-2.243-5-5-5s-5,2.243-5,5C42,31.552,42.448,32,43,32z"/>
	<path fill="#010101" d="M32,31c0,0.552,0.448,1,1,1s1-0.448,1-1c0-2.757-2.243-5-5-5s-5,2.243-5,5c0,0.552,0.448,1,1,1s1-0.448,1-1
		c0-1.654,1.346-3,3-3S32,29.346,32,31z"/>
</g>
</svg>
