<?xml version="1.0" encoding="utf-8"?>
<!-- Generator: Adobe Illustrator 17.0.0, SVG Export Plug-In . SVG Version: 6.00 Build 0)  -->
<!DOCTYPE svg PUBLIC "-//W3C//DTD SVG 1.1//EN" "http://www.w3.org/Graphics/SVG/1.1/DTD/svg11.dtd">
<svg version="1.1" id="Layer_1" xmlns="http://www.w3.org/2000/svg" xmlns:xlink="http://www.w3.org/1999/xlink" x="0px" y="0px"
	 width="60px" height="60px" viewBox="0 0 60 60" enable-background="new 0 0 60 60" xml:space="preserve">
<g>
	<path fill="#010101" d="M53,14H40v-4c0-3.309-2.691-6-6-6h-8c-3.309,0-6,2.691-6,6v4H7c-3.859,0-7,3.14-7,7v28c0,3.86,3.141,7,7,7
		h46c3.859,0,7-3.14,7-7V21C60,17.14,56.859,14,53,14z M20,16h20v38H20V16z M18,54h-6V16h6V54z M42,16h6v38h-6V16z M22,10
		c0-2.206,1.794-4,4-4h8c2.206,0,4,1.794,4,4v4H22V10z M2,49V21c0-2.757,2.243-5,5-5h3v38H7C4.243,54,2,51.757,2,49z M58,49
		c0,2.757-2.243,5-5,5h-3V16h3c2.757,0,5,2.243,5,5V49z"/>
</g>
</svg>
