<?xml version="1.0" encoding="utf-8"?>
<!-- Generator: Adobe Illustrator 17.0.0, SVG Export Plug-In . SVG Version: 6.00 Build 0)  -->
<!DOCTYPE svg PUBLIC "-//W3C//DTD SVG 1.1//EN" "http://www.w3.org/Graphics/SVG/1.1/DTD/svg11.dtd">
<svg version="1.1" id="Layer_1" xmlns="http://www.w3.org/2000/svg" xmlns:xlink="http://www.w3.org/1999/xlink" x="0px" y="0px"
	 width="60px" height="60px" viewBox="0 0 60 60" enable-background="new 0 0 60 60" xml:space="preserve">
<g>
	<path fill="#010101" d="M43,16h-9V2h3c0.553,0,1-0.448,1-1s-0.447-1-1-1H23c-0.553,0-1,0.448-1,1s0.447,1,1,1h3v14h-9
		c-2.757,0-5,2.243-5,5v32c0,2.757,2.243,5,5,5h3v1c0,0.552,0.447,1,1,1s1-0.448,1-1v-1h16v1c0,0.552,0.447,1,1,1s1-0.448,1-1v-1h3
		c2.757,0,5-2.243,5-5V21C48,18.243,45.757,16,43,16z M28,2h4v14h-4V2z M46,53c0,1.654-1.346,3-3,3H17c-1.654,0-3-1.346-3-3V21
		c0-1.654,1.346-3,3-3h26c1.654,0,3,1.346,3,3V53z"/>
	<path fill="#010101" d="M21,26h1v1c0,0.552,0.447,1,1,1s1-0.448,1-1v-1h15c0.553,0,1-0.448,1-1s-0.447-1-1-1H21
		c-0.553,0-1,0.448-1,1S20.447,26,21,26z"/>
	<path fill="#010101" d="M41,38H19c-0.553,0-1,0.448-1,1v9.392C18,50.424,20.15,52,22,52h16c1.944,0,4-2.056,4-4v-9
		C42,38.448,41.553,38,41,38z M40,48c0,0.841-1.159,2-2,2H22c-0.935,0-2-0.857-2-1.608V40h20V48z"/>
</g>
</svg>
