<?xml version="1.0" encoding="utf-8"?>
<!-- Generator: Adobe Illustrator 17.0.0, SVG Export Plug-In . SVG Version: 6.00 Build 0)  -->
<!DOCTYPE svg PUBLIC "-//W3C//DTD SVG 1.1//EN" "http://www.w3.org/Graphics/SVG/1.1/DTD/svg11.dtd">
<svg version="1.1" id="Layer_1" xmlns="http://www.w3.org/2000/svg" xmlns:xlink="http://www.w3.org/1999/xlink" x="0px" y="0px"
	 width="60px" height="60px" viewBox="0 0 60 60" enable-background="new 0 0 60 60" xml:space="preserve">
<g>
	<path fill="#010101" d="M59.707,16.293l-16-16c-0.215-0.215-0.514-0.324-0.82-0.287c-0.303,0.035-0.573,0.205-0.734,0.464
		c-0.68,1.086-2.298,1.761-4.224,1.762c-2.025,0-4.025-0.743-5.222-1.939c-0.391-0.391-1.023-0.391-1.414,0l-31,31
		c-0.391,0.391-0.391,1.023,0,1.414c1.223,1.223,1.924,2.969,1.924,4.793s-0.701,3.57-1.924,4.793c-0.391,0.391-0.391,1.023,0,1.414
		l16,16c0.391,0.391,1.023,0.391,1.414,0c1.223-1.222,2.97-1.923,4.793-1.923s3.57,0.701,4.793,1.923C27.488,59.902,27.744,60,28,60
		s0.512-0.098,0.707-0.293l31-31C59.895,28.52,60,28.265,60,28s-0.105-0.52-0.293-0.707c-1.228-1.228-1.936-2.97-1.94-4.779
		c-0.005-1.844,0.685-3.551,1.94-4.807C60.098,17.316,60.098,16.684,59.707,16.293z M27.956,57.629
		c-1.516-1.182-3.454-1.846-5.456-1.846s-3.94,0.664-5.456,1.846L2.37,42.956c1.183-1.516,1.847-3.454,1.847-5.456
		s-0.664-3.94-1.847-5.456L32.05,2.365c1.559,1.182,3.685,1.867,5.879,1.867c2.109,0,3.941-0.64,5.135-1.755l14.563,14.564
		c-1.211,1.533-1.866,3.444-1.86,5.478c0.006,1.989,0.675,3.92,1.862,5.438L27.956,57.629z"/>
	<path fill="#010101" d="M38.535,10.122C37.594,9.18,36.339,8.662,35,8.662s-2.594,0.518-3.535,1.459L10.121,31.464
		C9.18,32.406,8.661,33.661,8.661,35s0.519,2.594,1.46,3.536l11.344,11.343c0.941,0.941,2.196,1.46,3.535,1.46
		s2.594-0.519,3.535-1.46l21.344-21.343c1.949-1.95,1.949-5.122,0-7.071L38.535,10.122z M48.465,27.122L27.121,48.464
		c-1.127,1.127-3.115,1.127-4.242,0L11.535,37.122c-0.563-0.563-0.874-1.317-0.874-2.122s0.311-1.558,0.874-2.122l21.344-21.343
		c0.563-0.563,1.316-0.874,2.121-0.874s1.558,0.31,2.121,0.874l11.344,11.343C49.635,24.048,49.635,25.952,48.465,27.122z"/>
	<path fill="#010101" d="M35.707,18.293c-0.391-0.391-1.023-0.391-1.414,0l-15,15c-0.391,0.391-0.391,1.023,0,1.414
		C19.488,34.902,19.744,35,20,35s0.512-0.098,0.707-0.293l15-15C36.098,19.316,36.098,18.684,35.707,18.293z"/>
	<path fill="#010101" d="M36.293,27.293l-8,8c-0.391,0.391-0.391,1.023,0,1.414C28.488,36.902,28.744,37,29,37
		s0.512-0.098,0.707-0.293l8-8c0.391-0.391,0.391-1.023,0-1.414S36.684,26.902,36.293,27.293z"/>
</g>
</svg>
