<?xml version="1.0" encoding="utf-8"?>
<!-- Generator: Adobe Illustrator 17.0.0, SVG Export Plug-In . SVG Version: 6.00 Build 0)  -->
<!DOCTYPE svg PUBLIC "-//W3C//DTD SVG 1.1//EN" "http://www.w3.org/Graphics/SVG/1.1/DTD/svg11.dtd">
<svg version="1.1" id="Layer_1" xmlns="http://www.w3.org/2000/svg" xmlns:xlink="http://www.w3.org/1999/xlink" x="0px" y="0px"
	 width="60px" height="60px" viewBox="0 0 60 60" enable-background="new 0 0 60 60" xml:space="preserve">
<g>
	<path fill="#010101" d="M59,10H1c-0.552,0-1,0.448-1,1v11c0,0.552,0.448,1,1,1c3.86,0,7,3.14,7,7s-3.14,7-7,7c-0.552,0-1,0.448-1,1
		v11c0,0.552,0.448,1,1,1h58c0.552,0,1-0.448,1-1V38c0-0.552-0.448-1-1-1c-3.86,0-7-3.14-7-7s3.14-7,7-7c0.552,0,1-0.448,1-1V11
		C60,10.448,59.552,10,59,10z M58,21.055c-4.494,0.499-8,4.32-8,8.945s3.506,8.446,8,8.945V48H2v-9.055c4.494-0.499,8-4.32,8-8.945
		s-3.506-8.446-8-8.945V12h56V21.055z"/>
	<path fill="#010101" d="M17.001,41.999h21.998c0.552,0,1-0.448,1-1V19.001c0-0.552-0.448-1-1-1H17.001c-0.552,0-1,0.448-1,1v21.998
		C16.001,41.551,16.449,41.999,17.001,41.999z M18.001,20.001h19.998v19.998H18.001V20.001z"/>
	<rect x="46" y="13.999" fill="#010101" width="2" height="2"/>
	<rect x="46" y="19.999" fill="#010101" width="2" height="2"/>
	<rect x="46" y="25.999" fill="#010101" width="2" height="2"/>
	<rect x="46" y="31.999" fill="#010101" width="2" height="2"/>
	<rect x="46" y="37.999" fill="#010101" width="2" height="2"/>
	<rect x="46" y="43.999" fill="#010101" width="2" height="2"/>
	<path fill="#010101" d="M33,25.999H23c-0.552,0-1,0.448-1,1s0.448,1,1,1h10c0.552,0,1-0.448,1-1S33.552,25.999,33,25.999z"/>
	<path fill="#010101" d="M33,31.999H23c-0.552,0-1,0.448-1,1s0.448,1,1,1h10c0.552,0,1-0.448,1-1S33.552,31.999,33,31.999z"/>
</g>
</svg>
