<?xml version="1.0" encoding="utf-8"?>
<!-- Generator: Adobe Illustrator 17.0.0, SVG Export Plug-In . SVG Version: 6.00 Build 0)  -->
<!DOCTYPE svg PUBLIC "-//W3C//DTD SVG 1.1//EN" "http://www.w3.org/Graphics/SVG/1.1/DTD/svg11.dtd">
<svg version="1.1" id="Layer_1" xmlns="http://www.w3.org/2000/svg" xmlns:xlink="http://www.w3.org/1999/xlink" x="0px" y="0px"
	 width="60px" height="60px" viewBox="0 0 60 60" enable-background="new 0 0 60 60" xml:space="preserve">
<g>
	<path fill="#010101" d="M15,50h28c0.553,0,1-0.448,1-1V11c0-0.552-0.447-1-1-1H15c-0.553,0-1,0.448-1,1v38
		C14,49.552,14.447,50,15,50z M16,48v-5.999L42,42v6H16z M42,40l-26,0.001v-20L42,20V40z M42,12v6l-26,0.001V12H42z"/>
	<path fill="#010101" d="M23,38.001c0.553,0,1-0.448,1-1V23c0-0.552-0.447-1-1-1s-1,0.448-1,1v14.001
		C22,37.553,22.447,38.001,23,38.001z"/>
	<path fill="#010101" d="M14,60h9c0.553,0,1-0.448,1-1c0-2.757,2.243-5,5-5s5,2.243,5,5c0,0.552,0.447,1,1,1h9c3.364,0,6-2.636,6-6
		V6.001C50,2.636,47.364,0,44,0h-9c-0.553,0-1,0.448-1,1c0,2.757-2.243,5-5,5s-5-2.243-5-5c0-0.552-0.447-1-1-1h-9
		c-3.309,0-6,2.692-6,6.001V54C8,57.309,10.691,60,14,60z M10,6.001C10,3.757,11.757,2,14,2h8.071C22.558,5.388,25.479,8,29,8
		s6.442-2.612,6.929-6H44c2.243,0,4,1.757,4,4.001V54c0,2.243-1.757,4-4,4h-8.071c-0.486-3.388-3.408-6-6.929-6
		s-6.442,2.612-6.929,6H14c-2.243,0-4-1.757-4-4V6.001z"/>
</g>
</svg>
