<?xml version="1.0" encoding="utf-8"?>
<!-- Generator: Adobe Illustrator 17.0.0, SVG Export Plug-In . SVG Version: 6.00 Build 0)  -->
<!DOCTYPE svg PUBLIC "-//W3C//DTD SVG 1.1//EN" "http://www.w3.org/Graphics/SVG/1.1/DTD/svg11.dtd">
<svg version="1.1" xmlns="http://www.w3.org/2000/svg" xmlns:xlink="http://www.w3.org/1999/xlink" x="0px" y="0px" width="60px"
	 height="60px" viewBox="0 0 60 60" enable-background="new 0 0 60 60" xml:space="preserve">
<g id="Layer_1">
	<g>
		<path fill="#010101" d="M37,12H3c-1.654,0-3,1.346-3,3v30c0,1.654,1.346,3,3,3h34c1.654,0,3-1.346,3-3V15
			C40,13.346,38.654,12,37,12z"/>
		<path fill="#010101" d="M59.524,15.148c-0.296-0.183-0.666-0.198-0.975-0.041l-16,8.087C42.212,23.365,42,23.71,42,24.087V37
			c0,0.379,0.214,0.725,0.553,0.895l16,8C58.694,45.965,58.847,46,59,46c0.183,0,0.365-0.05,0.526-0.149
			C59.82,45.669,60,45.347,60,45V16C60,15.653,59.82,15.33,59.524,15.148z"/>
	</g>
</g>
<g id="nyt_x5F_exporter_x5F_info" display="none">
</g>
</svg>
