<?xml version="1.0" encoding="utf-8"?>
<!-- Generator: Adobe Illustrator 17.0.0, SVG Export Plug-In . SVG Version: 6.00 Build 0)  -->
<!DOCTYPE svg PUBLIC "-//W3C//DTD SVG 1.1//EN" "http://www.w3.org/Graphics/SVG/1.1/DTD/svg11.dtd">
<svg version="1.1" xmlns="http://www.w3.org/2000/svg" xmlns:xlink="http://www.w3.org/1999/xlink" x="0px" y="0px" width="60px"
	 height="60px" viewBox="0 0 60 60" enable-background="new 0 0 60 60" xml:space="preserve">
<g id="Layer_1">
	<path fill="#010101" d="M30,0C13.458,0,0,13.458,0,30s13.458,30,30,30s30-13.458,30-30S46.542,0,30,0z M48,38.826
		c0,0.364-0.198,0.7-0.517,0.875c-0.319,0.176-0.708,0.164-1.016-0.03L38,34.334V41c0,0.552-0.448,1-1,1H13c-0.552,0-1-0.448-1-1V19
		c0-0.552,0.448-1,1-1h24c0.552,0,1,0.448,1,1v6.666l8.467-5.338c0.308-0.195,0.697-0.205,1.016-0.03
		C47.802,20.474,48,20.81,48,21.174V38.826z"/>
</g>
<g id="nyt_x5F_exporter_x5F_info" display="none">
</g>
</svg>
