<?xml version="1.0" encoding="utf-8"?>
<!-- Generator: Adobe Illustrator 17.0.0, SVG Export Plug-In . SVG Version: 6.00 Build 0)  -->
<!DOCTYPE svg PUBLIC "-//W3C//DTD SVG 1.1//EN" "http://www.w3.org/Graphics/SVG/1.1/DTD/svg11.dtd">
<svg version="1.1" xmlns="http://www.w3.org/2000/svg" xmlns:xlink="http://www.w3.org/1999/xlink" x="0px" y="0px" width="60px"
	 height="60px" viewBox="0 0 60 60" enable-background="new 0 0 60 60" xml:space="preserve">
<g id="Layer_1">
	<path fill="#010101" d="M54,25.051v-1.356c0-3-2.326-5.388-5.396-5.667C48.102,8.004,39.963,0,30,0
		c-9.987,0-18.447,8.188-18.951,18.075C8.153,18.497,6,20.811,6,23.695v1.356C2.324,25.396,0,27.65,0,31c0,3.35,2.324,5.604,6,5.949
		v1.878C6,42.259,8.019,44,12,44h5c0.552,0,1-0.448,1-1V19c0-0.552-0.448-1-1-1h-3.948C13.593,9.231,21.122,2,30,2
		c8.696,0,16.072,7.231,16.601,16H43c-0.552,0-1,0.448-1,1v24c0,0.552,0.448,1,1,1h5c0.417,0,0.8-0.03,1.174-0.068v2.46
		c0,4.315-3.511,7.826-7.826,7.826h-4.152c-0.461-2.159-2.38-3.783-4.674-3.783c-2.637,0-4.782,2.146-4.782,4.783
		c0,2.637,2.146,4.782,4.782,4.782c2.294,0,4.212-1.624,4.674-3.782h4.152c5.418,0,9.826-4.408,9.826-9.826v-2.937
		C53.037,42.704,54,41.169,54,38.826v-1.878c3.676-0.344,6-2.599,6-5.949C60,27.65,57.676,25.396,54,25.051z"/>
</g>
<g id="nyt_x5F_exporter_x5F_info" display="none">
</g>
</svg>
