<?xml version="1.0" encoding="UTF-8" standalone="no"?>
<svg width="20px" height="20px" viewBox="0 0 20 20" version="1.1" xmlns="http://www.w3.org/2000/svg" xmlns:xlink="http://www.w3.org/1999/xlink">
    <g stroke="none" stroke-width="1" fill-rule="evenodd">
        <path d="M10,20 C4.48625,20 0,15.51375 0,10 C0,4.48625 4.48625,0 10,0 C15.51375,0 20,4.48625 20,10 C20,15.51375 15.51375,20 10,20 L10,20 Z M10,0.833333333 C4.94541667,0.833333333 0.833333333,4.94541667 0.833333333,10 C0.833333333,15.0545833 4.94541667,19.1666667 10,19.1666667 C15.0545833,19.1666667 19.1666667,15.0545833 19.1666667,10 C19.1666667,4.94541667 15.0545833,0.833333333 10,0.833333333 L10,0.833333333 Z"></path>
        <path d="M10,14.5833333 C8.62125,14.5833333 7.5,13.4620833 7.5,12.0833333 C7.5,11.8529167 7.68666667,11.6666667 7.91666667,11.6666667 C8.14666667,11.6666667 8.33333333,11.8529167 8.33333333,12.0833333 C8.33333333,13.0025 9.08083333,13.75 10,13.75 C10.9191667,13.75 11.6666667,13.0025 11.6666667,12.0833333 C11.6666667,11.1641667 10.9191667,10.4166667 10,10.4166667 C8.62125,10.4166667 7.5,9.29541667 7.5,7.91666667 C7.5,6.53791667 8.62125,5.41666667 10,5.41666667 C11.37875,5.41666667 12.5,6.53791667 12.5,7.91666667 C12.5,8.14666667 12.31375,8.33333333 12.0833333,8.33333333 C11.8529167,8.33333333 11.6666667,8.14666667 11.6666667,7.91666667 C11.6666667,6.9975 10.9191667,6.25 10,6.25 C9.08083333,6.25 8.33333333,6.9975 8.33333333,7.91666667 C8.33333333,8.83583333 9.08083333,9.58333333 10,9.58333333 C11.37875,9.58333333 12.5,10.7045833 12.5,12.0833333 C12.5,13.4620833 11.37875,14.5833333 10,14.5833333"></path>
        <path d="M10,15.8333333 C9.77,15.8333333 9.58333333,15.6470833 9.58333333,15.4166667 L9.58333333,4.58333333 C9.58333333,4.35333333 9.77,4.16666667 10,4.16666667 C10.23,4.16666667 10.4166667,4.35333333 10.4166667,4.58333333 L10.4166667,15.4166667 C10.4166667,15.6470833 10.23,15.8333333 10,15.8333333"></path>
    </g>
</svg>
