<?xml version="1.0" encoding="UTF-8" standalone="no"?>
<svg width="20px" height="20px" viewBox="0 0 20 20" version="1.1" xmlns="http://www.w3.org/2000/svg" xmlns:xlink="http://www.w3.org/1999/xlink">
    <g stroke="none" stroke-width="1" fill-rule="evenodd">
        <g transform="translate(3.000000, 0.000000)">
            <path d="M6.53061224,0 C2.9234226,0 0,2.92369186 0,6.53061224 C0,7.80461208 0.759586737,9.82519634 2.09883489,12.4355093 C2.41081279,13.0435817 2.75028391,13.674937 3.11303727,14.3244348 C3.78611843,15.5295641 4.50680895,16.7403146 5.22747462,17.8979439 C5.4797101,18.3031181 5.71398058,18.6727982 5.92431848,18.9996052 C5.99802592,19.1141262 6.06350717,19.2151532 6.12001589,19.301763 C6.15406565,19.3539504 6.17745836,19.3895816 6.19001575,19.4085985 L6.53061224,19.9243524 L6.87120874,19.4085985 C6.88376613,19.3895816 6.90715884,19.3539504 6.9412086,19.301763 C6.99771732,19.2151532 7.06319857,19.1141262 7.13690601,18.9996052 C7.34724391,18.6727982 7.58151439,18.3031181 7.83374987,17.8979439 C8.55441554,16.7403146 9.27510606,15.5295641 9.94818722,14.3244348 C10.3109406,13.674937 10.6504117,13.0435817 10.9623896,12.4355093 C12.3016378,9.82519634 13.0612245,7.80461208 13.0612245,6.53061224 C13.0612245,2.92410216 10.1369877,0 6.53061224,0 Z M10.2360787,12.0628679 C9.92870885,12.661959 9.59374929,13.2849235 9.23548625,13.9263816 C8.56928169,15.1191986 7.85502324,16.3191433 7.14073993,17.4665204 C6.89074326,17.8680984 6.54337271,18.4529098 6.54337271,18.4529098 C6.54337271,18.4529098 6.14383195,17.8252908 5.92048456,17.4665204 C5.20620125,16.3191433 4.4919428,15.1191986 3.82573824,13.9263816 C3.4674752,13.2849235 3.13251564,12.661959 2.82514574,12.0628679 C1.54558407,9.56888924 0.816326531,7.62898399 0.816326531,6.53061224 C0.816326531,3.37451973 3.37428412,0.816326531 6.53061224,0.816326531 C9.6861514,0.816326531 12.244898,3.37495527 12.244898,6.53061224 C12.244898,7.62898399 11.5156404,9.56888924 10.2360787,12.0628679 Z"></path>
            <path d="M8.57142857,6.53061224 C8.57142857,7.65754004 7.65732961,8.57142857 6.53061224,8.57142857 C5.40312486,8.57142857 4.48979592,7.65799447 4.48979592,6.53061224 C4.48979592,5.40374334 5.40342775,4.48979592 6.53061224,4.48979592 C7.65702663,4.48979592 8.57142857,5.40419786 8.57142857,6.53061224 L8.57142857,6.53061224 Z M9.3877551,6.53061224 C9.3877551,4.95335316 8.10787133,3.67346939 6.53061224,3.67346939 C4.95251993,3.67346939 3.67346939,4.95296175 3.67346939,6.53061224 C3.67346939,8.10881812 4.95225913,9.3877551 6.53061224,9.3877551 C8.10813224,9.3877551 9.3877551,8.10842681 9.3877551,6.53061224 L9.3877551,6.53061224 Z"></path>
        </g>
    </g>
</svg>
