<?xml version="1.0" encoding="utf-8"?>
<!-- Generator: Adobe Illustrator 16.0.3, SVG Export Plug-In . SVG Version: 6.00 Build 0)  -->
<!DOCTYPE svg PUBLIC "-//W3C//DTD SVG 1.1//EN" "http://www.w3.org/Graphics/SVG/1.1/DTD/svg11.dtd">
<svg version="1.1" xmlns="http://www.w3.org/2000/svg" xmlns:xlink="http://www.w3.org/1999/xlink" x="0px" y="0px" width="24px"
	 height="24px" viewBox="0 0 24 24" enable-background="new 0 0 24 24" xml:space="preserve">
<g id="Outline_Icons_1_">
	<g id="Outline_Icons">
	</g>
	<g id="New_icons_1_">
		<g>
			<path d="M22.5,10h-1V9.5C21.5,7.57,19.93,6,18,6s-3.5,1.57-3.5,3.5V10h-1c-0.276,0-0.5,0.224-0.5,0.5v7
				c0,0.276,0.224,0.5,0.5,0.5h9c0.276,0,0.5-0.224,0.5-0.5v-7C23,10.224,22.776,10,22.5,10z M15.5,9.5C15.5,8.122,16.622,7,18,7
				s2.5,1.122,2.5,2.5V10h-5V9.5z M22,17h-8v-6h8V17z"/>
			<path d="M18,12c-0.551,0-1,0.449-1,1c0,0.365,0.207,0.672,0.5,0.847V15.5c0,0.276,0.224,0.5,0.5,0.5s0.5-0.224,0.5-0.5v-1.653
				C18.793,13.672,19,13.365,19,13C19,12.449,18.551,12,18,12z"/>
			<path d="M19.5,19.021c-0.276,0-0.5,0.224-0.5,0.5V21h-7V3h7v2c0,0.276,0.224,0.5,0.5,0.5S20,5.276,20,5V2.5
				C20,2.224,19.776,2,19.5,2H12V0.5c0-0.152-0.069-0.295-0.187-0.39c-0.118-0.095-0.274-0.129-0.421-0.099l-9,2
				C2.163,2.062,2,2.266,2,2.5v19c0,0.234,0.163,0.438,0.392,0.488l9,2c0.147,0.032,0.301-0.002,0.421-0.098
				C11.931,23.795,12,23.652,12,23.5V22h7.5c0.276,0,0.5-0.224,0.5-0.5v-1.979C20,19.244,19.776,19.021,19.5,19.021z M11,22.876
				l-8-1.777V2.901l8-1.777V22.876z"/>
			<path d="M8,10.5c-1.103,0-2,0.897-2,2s0.897,2,2,2s2-0.897,2-2S9.103,10.5,8,10.5z M8,13.5c-0.551,0-1-0.449-1-1s0.449-1,1-1
				s1,0.449,1,1S8.551,13.5,8,13.5z"/>
		</g>
	</g>
</g>
</svg>
