<?xml version="1.0" encoding="UTF-8" standalone="no"?>
<svg width="20px" height="20px" viewBox="0 0 20 20" version="1.1" xmlns="http://www.w3.org/2000/svg" xmlns:xlink="http://www.w3.org/1999/xlink">
    <g stroke="none" stroke-width="1" fill-rule="evenodd">
        <path d="M9.58333333,3.75041667 L9.58333333,14.5833333 L10.4166667,14.5833333 L10.4166667,3.75041667 L9.58333333,3.75041667 L9.58333333,3.75041667 Z"></path>
        <path d="M16.25,4.16666667 L16.6666667,4.16666667 L16.6666667,3.75 L16.6666667,0.416666667 L16.6666667,0 L16.25,0 L3.75,0 L3.33333333,0 L3.33333333,0.416666667 L3.33333333,3.75 L3.33333333,4.16666667 L3.75,4.16666667 L16.25,4.16666667 L16.25,4.16666667 Z M4.16666667,0.833333333 L15.8333333,0.833333333 L15.8333333,3.33333333 L4.16666667,3.33333333 L4.16666667,0.833333333 L4.16666667,0.833333333 Z"></path>
        <path d="M12.0833333,19.1666667 L12.5,19.1666667 L12.5,18.75 L12.5,14.5833333 L12.5,14.1666667 L12.0833333,14.1666667 L7.91666667,14.1666667 L7.5,14.1666667 L7.5,14.5833333 L7.5,18.75 L7.5,19.1666667 L7.91666667,19.1666667 L12.0833333,19.1666667 L12.0833333,19.1666667 Z M8.33333333,15 L11.6666667,15 L11.6666667,18.3333333 L8.33333333,18.3333333 L8.33333333,15 L8.33333333,15 Z"></path>
        <path d="M4.58333333,19.1666667 L5,19.1666667 L5,18.75 L5,14.5833333 L5,14.1666667 L4.58333333,14.1666667 L0.416666667,14.1666667 L0,14.1666667 L0,14.5833333 L0,18.75 L0,19.1666667 L0.416666667,19.1666667 L4.58333333,19.1666667 L4.58333333,19.1666667 Z M0.833333333,15 L4.16666667,15 L4.16666667,18.3333333 L0.833333333,18.3333333 L0.833333333,15 L0.833333333,15 Z"></path>
        <path d="M19.5833333,19.1666667 L20,19.1666667 L20,18.75 L20,14.5833333 L20,14.1666667 L19.5833333,14.1666667 L15.4166667,14.1666667 L15,14.1666667 L15,14.5833333 L15,18.75 L15,19.1666667 L15.4166667,19.1666667 L19.5833333,19.1666667 L19.5833333,19.1666667 Z M15.8333333,15 L19.1666667,15 L19.1666667,18.3333333 L15.8333333,18.3333333 L15.8333333,15 L15.8333333,15 Z"></path>
        <path d="M17.5,9.16666667 L2.5,9.16666667 L2.5,14.5833333 L3.33333333,14.5833333 L3.33862549,10.0003203 L16.6666667,10.010437 L16.6666667,14.5833333 L17.5,14.5833333 L17.5,9.16666667 Z"></path>
    </g>
</svg>
