<?xml version="1.0" encoding="UTF-8" standalone="no"?>
<svg width="24" height="24" viewBox="0 0 24 24" version="1.1" xmlns="http://www.w3.org/2000/svg">
  <g id="iwWoorank-Icon" stroke="none" stroke-width="1" fill-rule="evenodd">
    <g id="iw04-Backlinks">
      <path d="M17.346 18.054l3.6 3.6a.5.5 0 0 0 .708-.708l-3.6-3.6a.5.5 0 0 0-.708.708zM16.583 23.27l-1.1-4.1a.5.5 0 1 0-.966.26l1.1 4.1a.5.5 0 1 0 .966-.26zM23.637 15.72l-4.2-1.2a.5.5 0 0 0-.274.96l4.2 1.2a.5.5 0 0 0 .274-.96zM2.342 3.049l3.5 3.6a.5.5 0 0 0 .716-.698l-3.5-3.6a.5.5 0 0 0-.716.698zM.363 8.28l4.2 1.2a.5.5 0 1 0 .274-.96l-4.2-1.2a.5.5 0 1 0-.274.96zM9.384 4.573l-1.1-4.2a.5.5 0 1 0-.968.254l1.1 4.2a.5.5 0 1 0 .968-.254zM18.554 12.254l3.1-3.1C22.56 8.247 23.1 7.017 23.1 5.8c0-1.306-.501-2.515-1.468-3.374-1.874-1.875-4.89-1.875-6.786.02l-5.1 5.1C8.84 8.453 8.3 9.683 8.3 10.9c0 1.306.501 2.515 1.468 3.374.258.26.479.425.955.742a.5.5 0 1 0 .554-.832c-.424-.283-.603-.418-.823-.638C9.688 12.864 9.3 11.93 9.3 10.9c0-.944.43-1.922 1.154-2.646l5.1-5.1a3.786 3.786 0 0 1 5.392 0C21.712 3.836 22.1 4.77 22.1 5.8c0 .944-.43 1.922-1.154 2.646l-3.1 3.1a.5.5 0 0 0 .708.708z" id="iwShape"/>
      <path d="M5.446 11.746l-3.1 3.1C1.44 15.753.9 16.983.9 18.2c0 1.369.478 2.494 1.468 3.374C3.41 22.5 4.52 23 5.7 23c1.306 0 2.515-.501 3.374-1.468l5.08-5.078c.906-.907 1.446-2.137 1.446-3.354 0-1.306-.501-2.515-1.468-3.374-.258-.26-.479-.425-.955-.742a.5.5 0 1 0-.554.832c.424.283.603.418.823.638.766.682 1.154 1.616 1.154 2.646 0 .944-.43 1.922-1.154 2.646l-5.1 5.1C7.664 21.612 6.73 22 5.7 22c-.91 0-1.796-.399-2.668-1.174C2.262 20.142 1.9 19.29 1.9 18.2c0-.944.43-1.922 1.154-2.646l3.1-3.1a.5.5 0 0 0-.708-.708zM18.554 9.154l1.5-1.5c.495-.496.746-1.124.746-1.854s-.251-1.358-.746-1.854C19.558 3.451 18.93 3.2 18.2 3.2c-.697 0-1.317.31-1.854.846l-2.4 2.4a.5.5 0 0 0 .708.708l2.4-2.4c.363-.364.743-.554 1.146-.554.47 0 .842.149 1.146.454.305.304.454.676.454 1.146 0 .47-.149.842-.454 1.146l-1.5 1.5a.5.5 0 0 0 .708.708z" id="iwShape"/>
      <path d="M5.446 14.846l-1.5 1.5c-.495.496-.746 1.124-.746 1.854s.251 1.358.746 1.854c.496.495 1.124.746 1.854.746s1.358-.251 1.854-.746l2.4-2.4a.5.5 0 0 0-.708-.708l-2.4 2.4c-.304.305-.676.454-1.146.454-.47 0-.842-.149-1.146-.454-.305-.304-.454-.676-.454-1.146 0-.47.149-.842.454-1.146l1.5-1.5a.5.5 0 0 0-.708-.708z" id="iwShape"/>
    </g>
  </g>
</svg>
