<svg xmlns="http://www.w3.org/2000/svg" viewBox="0 0 20 20"><path fill-rule="evenodd" d="M10 16.7a6.7 6.7 0 0 1 0-13.4c1.5 0 2.9.5 4.1 1.4l1.2-1.2C13.8 2.4 12 1.7 10 1.7c-4.6 0-8.3 3.7-8.3 8.3 0 4.6 3.7 8.3 8.3 8.3.5 0 .9 0 1.4-.1l-.7-1.6c-.2.1-.5.1-.7.1Zm8.3-7.8c-.2-1.6-.8-3-1.8-4.2l-1.2 1.2c.6.8 1.1 1.8 1.3 2.8l1.7.2Z" clip-rule="evenodd"/><path fill-rule="evenodd" d="M9.2 9.6 7 11l1 1.4 2.8-2V5.8H9.2v3.8Zm6.4.3c-2.3 0-4.2 1.9-4.2 4.2 0 2.3 1.9 4.2 4.2 4.2 2.3 0 4.2-1.9 4.2-4.2 0-2.3-1.9-4.2-4.2-4.2Zm-.5 1.6h1v3.2h-1v-3.2Zm.5 5.3c-.3 0-.6-.3-.6-.6s.3-.6.6-.6.6.3.6.6-.3.6-.6.6Z" clip-rule="evenodd"/></svg>