<svg xmlns="http://www.w3.org/2000/svg" viewBox="0 0 24 24" shape-rendering="geometricPrecision">
  <g fill="none" stroke-miterlimit="1" stroke-linejoin="round" stroke-linecap="round">
    <path class="st0" d="M9.7 1.5C7.8 2 5.9 2.9 4.4 4.4S2 7.8 1.5 9.7M22.5 9.7c-.5-1.9-1.4-3.8-2.9-5.3S16.2 2 14.3 1.5M1.5 14.3c.5 1.9 1.4 3.8 2.9 5.3s3.4 2.4 5.3 2.9M14.3 22.5c1.9-.5 3.8-1.4 5.3-2.9s2.4-3.4 2.9-5.3M23.5 12h-2.9M12 23.5v-2.9M12 .5v2.9M.5 12h2.9M8 10.3h9.1M6.9 13.7H16M9.1 16l2.3-8M12.6 16l2.3-8"/>
  </g>
</svg>
