<?xml version="1.0" encoding="utf-8"?>
<svg xmlns="http://www.w3.org/2000/svg" viewBox="0 0 24 24">
  <g fill="none" stroke-miterlimit="10" stroke-linecap="round" stroke-linejoin="round">
    <path d="M10.2 14.7l-5.3 2.9-1.8 5.8m7.1-10l-6.6.3-3.1 5.8"/>
    <path d="M10.2 12.4L3.6 9.3.8 14.7m13 0l5.3 2.9 1.8 5.8m-7.1-10l6.6.3 3.1 5.8"/>
    <path d="M13.8 12.4l6.6-3.1 2.8 5.4M10.2 11.5v2.6c0 .7.6 1.3 1.3 1.3h.9c.7 0 1.3-.6 1.3-1.3v-2.6" stroke-linecap="square"/>
    <circle cx="12" cy="6.2" r="5.7"/>
    <circle cx="12" cy="6.2" r="2.6"/>
    <circle cx="12" cy="6.2" r=".1"/>
  </g>
</svg>
