<svg width="24px" height="24px" viewBox="21 5 24 24" version="1.1" xmlns="http://www.w3.org/2000/svg" xmlns:xlink="http://www.w3.org/1999/xlink">
    <g id="Woorank-Icon" stroke="none" stroke-width="1" fill-rule="evenodd" transform="translate(21.000000, 5.000000)">
        <g id="woorank-serp-hash">
            <g id="Woorank-Icon">
                <g id="Group">
                    <path d="M9.57275335,1.01646273 C7.39799818,1.58876672 5.50509343,2.58779978 4.04644661,4.04644661 C2.58779978,5.50509343 1.58876672,7.39799818 1.01646273,9.57275335 C0.946186347,9.83980361 1.10570309,10.1132609 1.37275335,10.1835373 C1.63980361,10.2538137 1.91326088,10.0942969 1.98353727,9.82724665 C2.51344322,7.81360403 3.42984727,6.07725951 4.75355339,4.75355339 C6.07725951,3.42984727 7.81360403,2.51344322 9.82724665,1.98353727 C10.0942969,1.91326088 10.2538137,1.63980361 10.1835373,1.37275335 C10.1132609,1.10570309 9.83980361,0.946186347 9.57275335,1.01646273 Z M21.9835373,9.57275335 C21.4112333,7.39799818 20.4122002,5.50509343 18.9535534,4.04644661 C17.4949066,2.58779978 15.6020018,1.58876672 13.4272466,1.01646273 C13.1601964,0.946186347 12.8867391,1.10570309 12.8164627,1.37275335 C12.7461863,1.63980361 12.9057031,1.91326088 13.1727534,1.98353727 C15.186396,2.51344322 16.9227405,3.42984727 18.2464466,4.75355339 C19.5701527,6.07725951 20.4865568,7.81360403 21.0164627,9.82724665 C21.0867391,10.0942969 21.3601964,10.2538137 21.6272466,10.1835373 C21.8942969,10.1132609 22.0538137,9.83980361 21.9835373,9.57275335 Z M1.01646273,13.4272466 C1.58876672,15.6020018 2.58779978,17.4949066 4.04644661,18.9535534 C5.50509343,20.4122002 7.39799818,21.4112333 9.57275335,21.9835373 C9.83980361,22.0538137 10.1132609,21.8942969 10.1835373,21.6272466 C10.2538137,21.3601964 10.0942969,21.0867391 9.82724665,21.0164627 C7.81360403,20.4865568 6.07725951,19.5701527 4.75355339,18.2464466 C3.42984727,16.9227405 2.51344322,15.186396 1.98353727,13.1727534 C1.91326088,12.9057031 1.63980361,12.7461863 1.37275335,12.8164627 C1.10570309,12.8867391 0.946186347,13.1601964 1.01646273,13.4272466 Z M13.4272466,21.9835373 C15.6020018,21.4112333 17.4949066,20.4122002 18.9535534,18.9535534 C20.4122002,17.4949066 21.4112333,15.6020018 21.9835373,13.4272466 C22.0538137,13.1601964 21.8942969,12.8867391 21.6272466,12.8164627 C21.3601964,12.7461863 21.0867391,12.9057031 21.0164627,13.1727534 C20.4865568,15.186396 19.5701527,16.9227405 18.2464466,18.2464466 C16.9227405,19.5701527 15.186396,20.4865568 13.1727534,21.0164627 C12.9057031,21.0867391 12.7461863,21.3601964 12.8164627,21.6272466 C12.8867391,21.8942969 13.1601964,22.0538137 13.4272466,21.9835373 Z M22.4871795,11 L19.5128205,11 C19.2295975,11 19,11.2238576 19,11.5 C19,11.7761424 19.2295975,12 19.5128205,12 L22.4871795,12 C22.7704025,12 23,11.7761424 23,11.5 C23,11.2238576 22.7704025,11 22.4871795,11 Z M12,22.4871795 L12,19.5128205 C12,19.2295975 11.7761424,19 11.5,19 C11.2238576,19 11,19.2295975 11,19.5128205 L11,22.4871795 C11,22.7704025 11.2238576,23 11.5,23 C11.7761424,23 12,22.7704025 12,22.4871795 Z M11,0.512820513 L11,3.48717949 C11,3.77040243 11.2238576,4 11.5,4 C11.7761424,4 12,3.77040243 12,3.48717949 L12,0.512820513 C12,0.229597564 11.7761424,0 11.5,0 C11.2238576,0 11,0.229597564 11,0.512820513 Z M0.512820513,12 L3.48717949,12 C3.77040243,12 4,11.7761424 4,11.5 C4,11.2238576 3.77040243,11 3.48717949,11 L0.512820513,11 C0.229597564,11 0,11.2238576 0,11.5 C0,11.7761424 0.229597564,12 0.512820513,12 Z"></path>
                </g>
            </g>
        </g>
        <path d="M8.99319696,17.5821995 L10.993197,5.58219949 C11.0385945,5.30981433 10.8545847,5.05220056 10.5821995,5.00680304 C10.3098143,4.96140551 10.0522006,5.14541535 10.006803,5.41780051 L8.00680304,17.4178005 C7.96140551,17.6901857 8.14541535,17.9477994 8.41780051,17.993197 C8.69018567,18.0385945 8.94779944,17.8545847 8.99319696,17.5821995 Z"></path>
        <path d="M12.993197,17.5821995 L14.993197,5.58219949 C15.0385945,5.30981433 14.8545847,5.05220056 14.5821995,5.00680304 C14.3098143,4.96140551 14.0522006,5.14541535 14.006803,5.41780051 L12.006803,17.4178005 C11.9614055,17.6901857 12.1454153,17.9477994 12.4178005,17.993197 C12.6901857,18.0385945 12.9477994,17.8545847 12.993197,17.5821995 Z"></path>
        <path d="M6.5,10 L17.5,10 C17.7761424,10 18,9.77614237 18,9.5 C18,9.22385763 17.7761424,9 17.5,9 L6.5,9 C6.22385763,9 6,9.22385763 6,9.5 C6,9.77614237 6.22385763,10 6.5,10 Z"></path>
        <path d="M5.5,14 L16.5,14 C16.7761424,14 17,13.7761424 17,13.5 C17,13.2238576 16.7761424,13 16.5,13 L5.5,13 C5.22385763,13 5,13.2238576 5,13.5 C5,13.7761424 5.22385763,14 5.5,14 Z"></path>
    </g>
</svg>
