<?xml version="1.0" encoding="utf-8"?>
<!-- Generator: Adobe Illustrator 16.0.3, SVG Export Plug-In . SVG Version: 6.00 Build 0)  -->
<!DOCTYPE svg PUBLIC "-//W3C//DTD SVG 1.1//EN" "http://www.w3.org/Graphics/SVG/1.1/DTD/svg11.dtd">
<svg version="1.1" xmlns="http://www.w3.org/2000/svg" xmlns:xlink="http://www.w3.org/1999/xlink" x="0px" y="0px" width="24px"
	 height="24px" viewBox="0 0 24 24" enable-background="new 0 0 24 24" xml:space="preserve">
<g id="Outline_Icons">
	<g>
		<polyline fill="none"  stroke-linecap="round" stroke-linejoin="round" stroke-miterlimit="10" points="18.5,2.5
			20.5,2.5 20.5,23.5 2.5,23.5 2.5,2.5 4.5,2.5 		"/>
		<path fill="none"  stroke-linecap="round" stroke-linejoin="round" stroke-miterlimit="10" d="M13.5,2.5
			c0-1.104-0.895-2-2-2c-1.104,0-2,0.896-2,2h-3v2h10v-2H13.5z"/>


			<line fill="none"  stroke-linecap="round" stroke-linejoin="round" stroke-miterlimit="10" x1="9.5" y1="8.5" x2="15.5" y2="8.5"/>

			<line fill="none"  stroke-linecap="round" stroke-linejoin="round" stroke-miterlimit="10" x1="9.5" y1="11.5" x2="15.5" y2="11.5"/>

			<line fill="none"  stroke-linecap="round" stroke-linejoin="round" stroke-miterlimit="10" x1="9.5" y1="14.5" x2="15.5" y2="14.5"/>

			<line fill="none"  stroke-linecap="round" stroke-linejoin="round" stroke-miterlimit="10" x1="9.5" y1="17.5" x2="15.5" y2="17.5"/>

			<line fill="none"  stroke-linecap="round" stroke-linejoin="round" stroke-miterlimit="10" x1="7" y1="8.5" x2="7.5" y2="8.5"/>

			<line fill="none"  stroke-linecap="round" stroke-linejoin="round" stroke-miterlimit="10" x1="7" y1="11.5" x2="7.5" y2="11.5"/>

			<line fill="none"  stroke-linecap="round" stroke-linejoin="round" stroke-miterlimit="10" x1="7" y1="14.5" x2="7.5" y2="14.5"/>

			<line fill="none"  stroke-linecap="round" stroke-linejoin="round" stroke-miterlimit="10" x1="7" y1="17.5" x2="7.5" y2="17.5"/>
	</g>
</g>
</svg>
