<?xml version="1.0" encoding="utf-8"?>
<svg xmlns="http://www.w3.org/2000/svg" viewBox="0 0 24 24">
  <g fill="none" stroke-linejoin="round" stroke-miterlimit="10">
    <path d="M.5 8.5h7v8h-7zM16.5 8.5h7v8h-7zM9.4 16.5H7.5v-13h9v13h-5.1M16.5 5.5H22l1.5 3h-7zM7.5 5.5H2l-1.5 3h7zM7.5 3.5L9 .5h6l1.5 3z"/>
    <path d="M12.5 11.9V7.1l-1.5.5M3.1 11.5c0-.5.4-.9.9-.9.6 0 1 .4 1 .9 0 .3-.1.4-.2.5l-1.7 2.4H5"/>
    <path d="M19 11.4c0-.4.2-.9.9-.9.8 0 .9.6.9 1s-.1 1-.9 1"/>
    <path d="M19 13.5c0 .4.2.9.9.9.8 0 .9-.6.9-1s-.1-1-.9-1"/>
    <path d="M9.4 13c0-.6.5-1 1-1 .6 0 1 .5 1 1v4l3 1c.7.2.8 1 .7 1.7l-.7 3.7H9l-2.7-4.1C6 18.9 6 18 6.6 18s1.4.3 2.8 2.4V13z"/>
    </g>
</svg>
