
<svg width="24px" height="24px" viewBox="0 0 24 24" version="1.1" xmlns="http://www.w3.org/2000/svg" xmlns:xlink="http://www.w3.org/1999/xlink">
    <!-- Generator: Sketch 41 (35326) - http://www.bohemiancoding.com/sketch -->
    <desc>Created with Sketch.</desc>
    <defs></defs>
    <g id="Woorank-Icon" stroke="none" stroke-width="1" fill-rule="evenodd">
        <g id="02-SERP-alt-2" >
            <g id="Outline_Icons_1_">
                <path d="M18.460725,1.87335908 C16.4758778,0.66039693 14.28336,-1.11022302e-16 12,-1.11022302e-16 C9.71663996,-1.11022302e-16 7.52412216,0.66039693 5.539275,1.87335908 C5.30364772,2.01735353 5.22936464,2.32509773 5.37335908,2.560725 C5.51735353,2.79635228 5.82509773,2.87063536 6.060725,2.72664092 C7.89358843,1.60655771 9.90736004,1 12,1 C14.09264,1 16.1064116,1.60655771 17.939275,2.72664092 C18.1749023,2.87063536 18.4826465,2.79635228 18.6266409,2.560725 C18.7706354,2.32509773 18.6963523,2.01735353 18.460725,1.87335908 Z" id="Shape"></path>
                <path d="M22.1266409,18.460725 C23.3396031,16.4758778 24,14.28336 24,12 C24,9.71663996 23.3396031,7.52412216 22.1266409,5.539275 C21.9826465,5.30364772 21.6749023,5.22936464 21.439275,5.37335908 C21.2036477,5.51735353 21.1293646,5.82509773 21.2733591,6.060725 C22.3934423,7.89358843 23,9.90736004 23,12 C23,14.09264 22.3934423,16.1064116 21.2733591,17.939275 C21.1293646,18.1749023 21.2036477,18.4826465 21.439275,18.6266409 C21.6749023,18.7706354 21.9826465,18.6963523 22.1266409,18.460725 Z" id="Shape"></path>
                <path d="M1.87335908,5.539275 C0.66039693,7.52412216 0,9.71663996 0,12 C0,14.28336 0.66039693,16.4758778 1.87335908,18.460725 C2.01735353,18.6963523 2.32509773,18.7706354 2.560725,18.6266409 C2.79635228,18.4826465 2.87063536,18.1749023 2.72664092,17.939275 C1.60655771,16.1064116 1,14.09264 1,12 C1,9.90736004 1.60655771,7.89358843 2.72664092,6.060725 C2.87063536,5.82509773 2.79635228,5.51735353 2.560725,5.37335908 C2.32509773,5.22936464 2.01735353,5.30364772 1.87335908,5.539275 Z" id="Shape"></path>
                <path d="M5.539275,22.1266409 C7.52412216,23.3396031 9.71663996,24 12,24 C14.28336,24 16.4758778,23.3396031 18.460725,22.1266409 C18.6963523,21.9826465 18.7706354,21.6749023 18.6266409,21.439275 C18.4826465,21.2036477 18.1749023,21.1293646 17.939275,21.2733591 C16.1064116,22.3934423 14.09264,23 12,23 C9.90736004,23 7.89358843,22.3934423 6.060725,21.2733591 C5.82509773,21.1293646 5.51735353,21.2036477 5.37335908,21.439275 C5.22936464,21.6749023 5.30364772,21.9826465 5.539275,22.1266409 Z" id="Shape"></path>
                <path d="M23.8535534,23.1464466 L19.3535534,18.6464466 C19.1582912,18.4511845 18.8417088,18.4511845 18.6464466,18.6464466 C18.4511845,18.8417088 18.4511845,19.1582912 18.6464466,19.3535534 L23.1464466,23.8535534 C23.3417088,24.0488155 23.6582912,24.0488155 23.8535534,23.8535534 C24.0488155,23.6582912 24.0488155,23.3417088 23.8535534,23.1464466 Z" id="Shape"></path>
                <path d="M0.853553391,23.8535534 L5.35355339,19.3535534 C5.54881554,19.1582912 5.54881554,18.8417088 5.35355339,18.6464466 C5.15829124,18.4511845 4.84170876,18.4511845 4.64644661,18.6464466 L0.146446609,23.1464466 C-0.0488155365,23.3417088 -0.0488155365,23.6582912 0.146446609,23.8535534 C0.341708755,24.0488155 0.658291245,24.0488155 0.853553391,23.8535534 Z" id="Shape"></path>
                <path d="M23.1464466,0.146446609 L18.6464466,4.64644661 C18.4511845,4.84170876 18.4511845,5.15829124 18.6464466,5.35355339 C18.8417088,5.54881554 19.1582912,5.54881554 19.3535534,5.35355339 L23.8535534,0.853553391 C24.0488155,0.658291245 24.0488155,0.341708755 23.8535534,0.146446609 C23.6582912,-0.0488155365 23.3417088,-0.0488155365 23.1464466,0.146446609 Z" id="Shape"></path>
                <path d="M0.146446609,0.853553391 L4.64644661,5.35355339 C4.84170876,5.54881554 5.15829124,5.54881554 5.35355339,5.35355339 C5.54881554,5.15829124 5.54881554,4.84170876 5.35355339,4.64644661 L0.853553391,0.146446609 C0.658291245,-0.0488155365 0.341708755,-0.0488155365 0.146446609,0.146446609 C-0.0488155365,0.341708755 -0.0488155365,0.658291245 0.146446609,0.853553391 Z" id="Shape"></path>
            </g>
            <path d="M8.91580829,19 L15.0841917,19 L14.0511678,12.388647 C15.2462506,11.730682 16,10.4456487 16,9 C16,6.82385763 14.1761424,5 12,5 C9.82385763,5 8,6.82385763 8,9 C8,10.4456487 8.75374943,11.730682 9.9488322,12.388647 L8.91580829,19 Z M10.0841917,18 L11.0545956,11.7894149 L10.6923077,11.6384615 C9.66786573,11.2116107 9,10.1859598 9,9 C9,7.37614237 10.3761424,6 12,6 C13.6238576,6 15,7.37614237 15,9 C15,10.1859598 14.3321343,11.2116107 13.3076923,11.6384615 L12.9454044,11.7894149 L13.9158083,18 L10.0841917,18 Z" id="Shape"></path>
        </g>
    </g>
</svg>
