
<svg width="24px" height="24px" viewBox="0 0 24 24" version="1.1" xmlns="http://www.w3.org/2000/svg" xmlns:xlink="http://www.w3.org/1999/xlink">
    <!-- Generator: Sketch 41 (35326) - http://www.bohemiancoding.com/sketch -->
    <desc>Created with Sketch.</desc>
    <defs></defs>
    <g id="Woorank-Icon" stroke="none" fill-rule="evenodd">
        <g id="02-SERP-alt-3">
            <path d="M9.57275335,1.01646273 C7.39799818,1.58876672 5.50509343,2.58779978 4.04644661,4.04644661 C2.58779978,5.50509343 1.58876672,7.39799818 1.01646273,9.57275335 C0.946186347,9.83980361 1.10570309,10.1132609 1.37275335,10.1835373 C1.63980361,10.2538137 1.91326088,10.0942969 1.98353727,9.82724665 C2.51344322,7.81360403 3.42984727,6.07725951 4.75355339,4.75355339 C6.07725951,3.42984727 7.81360403,2.51344322 9.82724665,1.98353727 C10.0942969,1.91326088 10.2538137,1.63980361 10.1835373,1.37275335 C10.1132609,1.10570309 9.83980361,0.946186347 9.57275335,1.01646273 Z" id="Shape"></path>
            <path d="M22.9835373,9.57275335 C22.4112333,7.39799818 21.4122002,5.50509343 19.9535534,4.04644661 C18.4949066,2.58779978 16.6020018,1.58876672 14.4272466,1.01646273 C14.1601964,0.946186347 13.8867391,1.10570309 13.8164627,1.37275335 C13.7461863,1.63980361 13.9057031,1.91326088 14.1727534,1.98353727 C16.186396,2.51344322 17.9227405,3.42984727 19.2464466,4.75355339 C20.5701527,6.07725951 21.4865568,7.81360403 22.0164627,9.82724665 C22.0867391,10.0942969 22.3601964,10.2538137 22.6272466,10.1835373 C22.8942969,10.1132609 23.0538137,9.83980361 22.9835373,9.57275335 Z" id="Shape"></path>
            <path d="M1.01646273,14.4272466 C1.58876672,16.6020018 2.58779978,18.4949066 4.04644661,19.9535534 C5.50509343,21.4122002 7.39799818,22.4112333 9.57275335,22.9835373 C9.83980361,23.0538137 10.1132609,22.8942969 10.1835373,22.6272466 C10.2538137,22.3601964 10.0942969,22.0867391 9.82724665,22.0164627 C7.81360403,21.4865568 6.07725951,20.5701527 4.75355339,19.2464466 C3.42984727,17.9227405 2.51344322,16.186396 1.98353727,14.1727534 C1.91326088,13.9057031 1.63980361,13.7461863 1.37275335,13.8164627 C1.10570309,13.8867391 0.946186347,14.1601964 1.01646273,14.4272466 Z" id="Shape"></path>
            <path d="M14.4272466,22.9835373 C16.6020018,22.4112333 18.4949066,21.4122002 19.9535534,19.9535534 C21.4122002,18.4949066 22.4112333,16.6020018 22.9835373,14.4272466 C23.0538137,14.1601964 22.8942969,13.8867391 22.6272466,13.8164627 C22.3601964,13.7461863 22.0867391,13.9057031 22.0164627,14.1727534 C21.4865568,16.186396 20.5701527,17.9227405 19.2464466,19.2464466 C17.9227405,20.5701527 16.186396,21.4865568 14.1727534,22.0164627 C13.9057031,22.0867391 13.7461863,22.3601964 13.8164627,22.6272466 C13.8867391,22.8942969 14.1601964,23.0538137 14.4272466,22.9835373 Z" id="Shape"></path>
            <path d="M23.5,11.5 L20.6,11.5 C20.3238576,11.5 20.1,11.7238576 20.1,12 C20.1,12.2761424 20.3238576,12.5 20.6,12.5 L23.5,12.5 C23.7761424,12.5 24,12.2761424 24,12 C24,11.7238576 23.7761424,11.5 23.5,11.5 Z" id="Shape"></path>
            <path d="M12.5,23.5 L12.5,20.6 C12.5,20.3238576 12.2761424,20.1 12,20.1 C11.7238576,20.1 11.5,20.3238576 11.5,20.6 L11.5,23.5 C11.5,23.7761424 11.7238576,24 12,24 C12.2761424,24 12.5,23.7761424 12.5,23.5 Z" id="Shape"></path>
            <path d="M11.5,0.5 L11.5,3.4 C11.5,3.67614237 11.7238576,3.9 12,3.9 C12.2761424,3.9 12.5,3.67614237 12.5,3.4 L12.5,0.5 C12.5,0.223857625 12.2761424,0 12,0 C11.7238576,0 11.5,0.223857625 11.5,0.5 Z" id="Shape"></path>
            <path d="M0.5,12.5 L3.4,12.5 C3.67614237,12.5 3.9,12.2761424 3.9,12 C3.9,11.7238576 3.67614237,11.5 3.4,11.5 L0.5,11.5 C0.223857625,11.5 0,11.7238576 0,12 C0,12.2761424 0.223857625,12.5 0.5,12.5 Z" id="Shape"></path>
            <path d="M8,10.8 L17.1,10.8 C17.3761424,10.8 17.6,10.5761424 17.6,10.3 C17.6,10.0238576 17.3761424,9.8 17.1,9.8 L8,9.8 C7.72385763,9.8 7.5,10.0238576 7.5,10.3 C7.5,10.5761424 7.72385763,10.8 8,10.8 Z" id="Shape"></path>
            <path d="M6.9,14.2 L16,14.2 C16.2761424,14.2 16.5,13.9761424 16.5,13.7 C16.5,13.4238576 16.2761424,13.2 16,13.2 L6.9,13.2 C6.62385763,13.2 6.4,13.4238576 6.4,13.7 C6.4,13.9761424 6.62385763,14.2 6.9,14.2 Z" id="Shape"></path>
            <path d="M9.58053465,16.1381537 L11.8805347,8.13815371 C11.9568348,7.87276175 11.8035457,7.59576554 11.5381537,7.51946535 C11.2727618,7.44316516 10.9957655,7.59645433 10.9194653,7.86184629 L8.61946535,15.8618463 C8.54316516,16.1272382 8.69645433,16.4042345 8.96184629,16.4805347 C9.22723825,16.5568348 9.50423446,16.4035457 9.58053465,16.1381537 Z" id="Shape"></path>
            <path d="M13.0805347,16.1381537 L15.3805347,8.13815371 C15.4568348,7.87276175 15.3035457,7.59576554 15.0381537,7.51946535 C14.7727618,7.44316516 14.4957655,7.59645433 14.4194653,7.86184629 L12.1194653,15.8618463 C12.0431652,16.1272382 12.1964543,16.4042345 12.4618463,16.4805347 C12.7272382,16.5568348 13.0042345,16.4035457 13.0805347,16.1381537 Z" id="Shape"></path>
        </g>
    </g>
</svg>
