
<svg width="24px" height="24px" viewBox="0 0 24 24" version="1.1" xmlns="http://www.w3.org/2000/svg" xmlns:xlink="http://www.w3.org/1999/xlink">
    <!-- Generator: Sketch 41 (35326) - http://www.bohemiancoding.com/sketch -->
    <desc>Created with Sketch.</desc>
    <defs></defs>
    <g id="Woorank-Icon" stroke="none" stroke-width="1" fill-rule="evenodd">
      <path d="M10.4400057,15.1386311 C10.682255,15.0060796 10.7711826,14.7022436 10.6386311,14.4599943 C10.5060796,14.217745 10.2022436,14.1288174 9.95999429,14.2613689 L4.65999429,17.1613689 L4.42246793,17.4518004 L2.62246793,23.2518004 C2.54061955,23.5155341 2.68806671,23.7956837 2.95180039,23.8775321 C3.21553407,23.9593805 3.49568369,23.8119333 3.57753207,23.5481996 L5.3175466,17.9414861 L10.4400057,15.1386311 Z" id="Shape"></path>
      <path d="M10.2227038,13.8994843 C10.4985614,13.8869453 10.7120232,13.6531537 10.6994843,13.3772962 C10.6869453,13.1014386 10.4531537,12.8879768 10.1772962,12.9005157 L3.57729617,13.2005157 L3.15903417,13.4643114 L0.0590341657,19.2643114 C-0.0711330735,19.5078501 0.0207726589,19.8107986 0.264311364,19.9409658 C0.50785007,20.0711331 0.810798595,19.9792273 0.940965834,19.7356886 L3.90687547,14.1865674 L10.2227038,13.8994843 Z" id="Shape"></path>
      <path d="M9.98743176,12.8525646 C10.2373763,12.9699628 10.5351664,12.8625128 10.6525646,12.6125682 C10.7699628,12.3626237 10.6625128,12.0648336 10.4125682,11.9474354 L3.81256824,8.84743537 L3.15612273,9.06984142 L0.356122734,14.4698414 C0.229009659,14.7149881 0.324694773,15.0167642 0.569841418,15.1438773 C0.814988062,15.2709903 1.11676419,15.1753052 1.24387727,14.9301586 L3.82257738,9.95695121 L9.98743176,12.8525646 Z" id="Shape"></path>
      <path d="M20.4224679,23.5481996 C20.5043163,23.8119333 20.7844659,23.9593805 21.0481996,23.8775321 C21.3119333,23.7956837 21.4593805,23.5155341 21.3775321,23.2518004 L19.5775321,17.4518004 L19.3400057,17.1613689 L14.0400057,14.2613689 C13.7977564,14.1288174 13.4939204,14.217745 13.3613689,14.4599943 C13.2288174,14.7022436 13.317745,15.0060796 13.5599943,15.1386311 L18.6824534,17.9414861 L20.4224679,23.5481996 Z" id="Shape"></path>
      <path d="M23.0590342,19.7356886 C23.1892014,19.9792273 23.4921499,20.0711331 23.7356886,19.9409658 C23.9792273,19.8107986 24.0711331,19.5078501 23.9409658,19.2643114 L20.8409658,13.4643114 L20.4227038,13.2005157 L13.8227038,12.9005157 C13.5468463,12.8879768 13.3130547,13.1014386 13.3005157,13.3772962 C13.2879768,13.6531537 13.5014386,13.8869453 13.7772962,13.8994843 L20.0931245,14.1865674 L23.0590342,19.7356886 Z" id="Shape"></path>
      <path d="M22.7561227,14.9301586 C22.8832358,15.1753052 23.1850119,15.2709903 23.4301586,15.1438773 C23.6753052,15.0167642 23.7709903,14.7149881 23.6438773,14.4698414 L20.8438773,9.06984142 C20.720277,8.83146948 20.430469,8.73328151 20.1874318,8.84743537 L13.5874318,11.9474354 C13.3374872,12.0648336 13.2300372,12.3626237 13.3474354,12.6125682 C13.4648336,12.8625128 13.7626237,12.9699628 14.0125682,12.8525646 L20.1774226,9.95695121 L22.7561227,14.9301586 Z" id="Shape"></path>
      <path d="M9.7,11.5 L9.7,14.1 C9.7,15.0761424 10.5238576,15.9 11.5,15.9 L12.4,15.9 C13.3761424,15.9 14.2,15.0761424 14.2,14.1 L14.2,11.5 L13.2,11.5 L13.2,14.1 C13.2,14.5238576 12.8238576,14.9 12.4,14.9 L11.5,14.9 C11.0761424,14.9 10.7,14.5238576 10.7,14.1 L10.7,11.5 L9.7,11.5 Z"></path>
      <path d="M12,12.4 C15.4241654,12.4 18.2,9.62416545 18.2,6.2 C18.2,2.77583455 15.4241654,0 12,0 C8.57583455,0 5.8,2.77583455 5.8,6.2 C5.8,9.62416545 8.57583455,12.4 12,12.4 Z M12,11.4 C9.1281193,11.4 6.8,9.0718807 6.8,6.2 C6.8,3.3281193 9.1281193,1 12,1 C14.8718807,1 17.2,3.3281193 17.2,6.2 C17.2,9.0718807 14.8718807,11.4 12,11.4 Z"></path>
      <path d="M12,9.3 C13.7120827,9.3 15.1,7.91208272 15.1,6.2 C15.1,4.48791728 13.7120827,3.1 12,3.1 C10.2879173,3.1 8.9,4.48791728 8.9,6.2 C8.9,7.91208272 10.2879173,9.3 12,9.3 Z M12,8.3 C10.840202,8.3 9.9,7.35979797 9.9,6.2 C9.9,5.04020203 10.840202,4.1 12,4.1 C13.159798,4.1 14.1,5.04020203 14.1,6.2 C14.1,7.35979797 13.159798,8.3 12,8.3 Z"></path>
    </g>
</svg>
