<?xml version="1.0" encoding="utf-8"?>
<svg xmlns="http://www.w3.org/2000/svg" viewBox="0 0 24 24" shape-rendering="geometricPrecision">
  <g id="Outline_Icons" fill="none" stroke-miterlimit="1" stroke-linejoin="round" stroke-linecap="round">
    <path d="M18.2 2.3C16.4 1.2 14.3.5 12 .5s-4.4.7-6.2 1.8M21.7 18.2c1.1-1.8 1.8-3.9 1.8-6.2s-.7-4.4-1.8-6.2M2.3 5.8C1.2 7.6.5 9.7.5 12s.7 4.4 1.8 6.2M5.8 21.7c1.8 1.1 3.9 1.8 6.2 1.8s4.4-.7 6.2-1.8M23.5 23.5L19 19M.5 23.5L5 19M23.5.5L19 5M.5.5L5 5"/>
    <path d="M15.5 9c0-1.9-1.6-3.5-3.5-3.5S8.5 7.1 8.5 9c0 1.4.8 2.6 2 3.1l-1 6.4h5l-1-6.4c1.2-.5 2-1.7 2-3.1z"/>
  </g>
</svg>
