<?xml version="1.0" encoding="UTF-8" standalone="no"?>
<svg width="20px" height="20px" viewBox="0 0 20 20" version="1.1" xmlns="http://www.w3.org/2000/svg" xmlns:xlink="http://www.w3.org/1999/xlink">
    <g stroke="none" stroke-width="1" fill-rule="evenodd">
        <g transform="translate(2.622951, 0.000000)">
            <path d="M14.2622951,19.8360656 L0.491803279,19.8360656 C0.310819672,19.8360656 0.163934426,19.6895082 0.163934426,19.5081967 L0.163934426,2.45901639 C0.163934426,2.27803279 0.310819672,2.13114754 0.491803279,2.13114754 L1.68918033,2.13114754 C1.87016393,2.13114754 2.01704918,2.27803279 2.01704918,2.45901639 C2.01704918,2.64 1.87016393,2.78688525 1.68918033,2.78688525 L0.819672131,2.78688525 L0.819672131,19.1803279 L13.9344262,19.1803279 L13.9344262,2.78688525 L13.2642623,2.78688525 C13.0829508,2.78688525 12.9363934,2.64 12.9363934,2.45901639 C12.9363934,2.27803279 13.0829508,2.13114754 13.2642623,2.13114754 L14.2622951,2.13114754 C14.4436066,2.13114754 14.5901639,2.27803279 14.5901639,2.45901639 L14.5901639,19.5081967 C14.5901639,19.6895082 14.4436066,19.8360656 14.2622951,19.8360656"></path>
            <path d="M11.6393443,4.09836066 L3.1147541,4.09836066 C2.93377049,4.09836066 2.78688525,3.95147541 2.78688525,3.7704918 L2.78688525,2.45901639 C2.78688525,2.27803279 2.93377049,2.13114754 3.1147541,2.13114754 L5.52163934,2.13114754 C5.67442623,1.15934426 6.4747541,0.163934426 7.47704918,0.163934426 C8.47934426,0.163934426 9.27967213,1.15934426 9.43213115,2.13114754 L11.6393443,2.13114754 C11.8206557,2.13114754 11.9672131,2.27803279 11.9672131,2.45901639 L11.9672131,3.7704918 C11.9672131,3.95147541 11.8206557,4.09836066 11.6393443,4.09836066 L11.6393443,4.09836066 Z M3.44262295,3.44262295 L11.3114754,3.44262295 L11.3114754,2.78688525 L9.1304918,2.78688525 C8.94918033,2.78688525 8.80262295,2.64 8.80262295,2.45901639 C8.80262295,1.72098361 8.19081967,0.819672131 7.47704918,0.819672131 C6.76295082,0.819672131 6.15114754,1.72098361 6.15114754,2.45901639 C6.15114754,2.64 6.0042623,2.78688525 5.82327869,2.78688525 L3.44262295,2.78688525 L3.44262295,3.44262295 L3.44262295,3.44262295 Z"></path>
            <path d="M12.9508197,18.4960656 L1.80327869,18.4960656 C1.62229508,18.4960656 1.47540984,18.3495082 1.47540984,18.1681967 L1.47540984,3.7704918 C1.47540984,3.5895082 1.62229508,3.44262295 1.80327869,3.44262295 C1.9842623,3.44262295 2.13114754,3.5895082 2.13114754,3.7704918 L2.13114754,17.8403279 L12.6229508,17.8403279 L12.6229508,3.7704918 C12.6229508,3.5895082 12.7695082,3.44262295 12.9508197,3.44262295 C13.1321311,3.44262295 13.2786885,3.5895082 13.2786885,3.7704918 L13.2786885,18.1681967 C13.2786885,18.3495082 13.1321311,18.4960656 12.9508197,18.4960656"></path>
            <path d="M10.6983607,7.37704918 L5.73770492,7.37704918 C5.55672131,7.37704918 5.40983607,7.23016393 5.40983607,7.04918033 C5.40983607,6.86819672 5.55672131,6.72131148 5.73770492,6.72131148 L10.6983607,6.72131148 C10.8796721,6.72131148 11.0262295,6.86819672 11.0262295,7.04918033 C11.0262295,7.23016393 10.8796721,7.37704918 10.6983607,7.37704918"></path>
            <path d="M10.6983607,10 L5.73770492,10 C5.55672131,10 5.40983607,9.85311475 5.40983607,9.67213115 C5.40983607,9.49114754 5.55672131,9.3442623 5.73770492,9.3442623 L10.6983607,9.3442623 C10.8796721,9.3442623 11.0262295,9.49114754 11.0262295,9.67213115 C11.0262295,9.85311475 10.8796721,10 10.6983607,10"></path>
            <path d="M10.6983607,12.6229508 L5.73770492,12.6229508 C5.55672131,12.6229508 5.40983607,12.4763934 5.40983607,12.295082 C5.40983607,12.1137705 5.55672131,11.9672131 5.73770492,11.9672131 L10.6983607,11.9672131 C10.8796721,11.9672131 11.0262295,12.1137705 11.0262295,12.295082 C11.0262295,12.4763934 10.8796721,12.6229508 10.6983607,12.6229508"></path>
            <path d="M10.6983607,15.2459016 L5.73770492,15.2459016 C5.55672131,15.2459016 5.40983607,15.0993443 5.40983607,14.9180328 C5.40983607,14.7367213 5.55672131,14.5901639 5.73770492,14.5901639 L10.6983607,14.5901639 C10.8796721,14.5901639 11.0262295,14.7367213 11.0262295,14.9180328 C11.0262295,15.0993443 10.8796721,15.2459016 10.6983607,15.2459016"></path>
            <path d="M4.18393443,7.37704918 L3.7704918,7.37704918 C3.5895082,7.37704918 3.44262295,7.23016393 3.44262295,7.04918033 C3.44262295,6.86819672 3.5895082,6.72131148 3.7704918,6.72131148 L4.18393443,6.72131148 C4.36491803,6.72131148 4.51180328,6.86819672 4.51180328,7.04918033 C4.51180328,7.23016393 4.36491803,7.37704918 4.18393443,7.37704918"></path>
            <path d="M4.18393443,10 L3.7704918,10 C3.5895082,10 3.44262295,9.85311475 3.44262295,9.67213115 C3.44262295,9.49114754 3.5895082,9.3442623 3.7704918,9.3442623 L4.18393443,9.3442623 C4.36491803,9.3442623 4.51180328,9.49114754 4.51180328,9.67213115 C4.51180328,9.85311475 4.36491803,10 4.18393443,10"></path>
            <path d="M4.18393443,12.6229508 L3.7704918,12.6229508 C3.5895082,12.6229508 3.44262295,12.4763934 3.44262295,12.295082 C3.44262295,12.1137705 3.5895082,11.9672131 3.7704918,11.9672131 L4.18393443,11.9672131 C4.36491803,11.9672131 4.51180328,12.1137705 4.51180328,12.295082 C4.51180328,12.4763934 4.36491803,12.6229508 4.18393443,12.6229508"></path>
            <path d="M4.18393443,15.2459016 L3.7704918,15.2459016 C3.5895082,15.2459016 3.44262295,15.0993443 3.44262295,14.9180328 C3.44262295,14.7367213 3.5895082,14.5901639 3.7704918,14.5901639 L4.18393443,14.5901639 C4.36491803,14.5901639 4.51180328,14.7367213 4.51180328,14.9180328 C4.51180328,15.0993443 4.36491803,15.2459016 4.18393443,15.2459016"></path>
        </g>
    </g>
</svg>
