<svg xmlns="http://www.w3.org/2000/svg" width="24" height="24"><path fill-rule="evenodd" d="M20 16.184V14c0-1.654-1.346-3-3-3h-4V8.837c1.44-.434 2.5-1.757 2.5-3.337C15.5 3.57 13.93 2 12 2S8.5 3.57 8.5 5.5c0 1.58 1.06 2.903 2.5 3.337V11H7c-1.654 0-3 1.346-3 3v2.184c-1.162.415-2 1.514-2 2.816 0 1.654 1.346 3 3 3s3-1.346 3-3c0-1.302-.838-2.401-2-2.816V14c0-.551.449-1 1-1h4v3.184c-1.162.415-2 1.514-2 2.816 0 1.654 1.346 3 3 3s3-1.346 3-3c0-1.302-.838-2.401-2-2.816V13h4c.551 0 1 .449 1 1v2.184c-1.162.415-2 1.515-2 2.816 0 1.654 1.346 3 3 3s3-1.346 3-3c0-1.302-.838-2.401-2-2.816zM10.5 5.5c0-.827.673-1.5 1.5-1.5s1.5.673 1.5 1.5S12.827 7 12 7s-1.5-.673-1.5-1.5zM5 20c-.551 0-1-.449-1-1 0-.551.449-1 1-1 .551 0 1 .449 1 1 0 .551-.449 1-1 1zm7 0c-.551 0-1-.449-1-1 0-.551.449-1 1-1 .551 0 1 .449 1 1 0 .551-.449 1-1 1zm7 0c-.551 0-1-.449-1-1 0-.551.449-1 1-1 .551 0 1 .449 1 1 0 .551-.449 1-1 1z"/></svg>
