
<svg width="24px" height="24px" viewBox="0 0 24 24" version="1.1" xmlns="http://www.w3.org/2000/svg" xmlns:xlink="http://www.w3.org/1999/xlink">
    <!-- Generator: Sketch 41 (35326) - http://www.bohemiancoding.com/sketch -->
    <desc>Created with Sketch.</desc>
    <defs></defs>
    <g id="Woorank-Icon" stroke="none" stroke-width="1" fill-rule="evenodd">
        <polygon id="Shape" points="21 23 4 23 4 3 5.5 3 5.5 2 3 2 3 24 22 24 22 2 19.5 2 19.5 3 21 3"></polygon>
        <path d="M12.5,0 C11.2910773,0 10.2818639,0.859235199 10.0500651,2 L7,2 L7,5 L18,5 L18,2 L14.9499807,2 C14.7183385,0.859043791 13.7095609,0 12.5,0 Z M17,4 L8,4 L8,3 L11,3 L11,2.5 C11,1.67214237 11.6721424,1 12.5,1 C13.3284737,1 14,1.6717583 14,2.5 L14,3 L17,3 L17,4 Z" id="Shape" ></path>
        <polygon id="Shape" points="11 18 17 18 17 17 11 17"></polygon>
        <polygon id="Shape" points="8 18 8.5 18 8.5 17 8 17"></polygon>
        <polygon id="Shape" points="11 15 17 15 17 14 11 14"></polygon>
        <polygon id="Shape" points="8 15 8.5 15 8.5 14 8 14"></polygon>
        <polygon id="Shape" points="11 12 17 12 17 11 11 11"></polygon>
        <polygon id="Shape" points="8 12 8.5 12 8.5 11 8 11"></polygon>
        <polygon id="Shape" points="11 9 17 9 17 8 11 8"></polygon>
        <polygon id="Shape" points="8 9 8.5 9 8.5 8 8 8"></polygon>
    </g>
</svg>
