<?xml version="1.0" encoding="utf-8"?>
<!-- Generator: Adobe Illustrator 17.0.0, SVG Export Plug-In . SVG Version: 6.00 Build 0)  -->
<!DOCTYPE svg PUBLIC "-//W3C//DTD SVG 1.1//EN" "http://www.w3.org/Graphics/SVG/1.1/DTD/svg11.dtd">
<svg version="1.1" id="Layer_1" xmlns="http://www.w3.org/2000/svg" xmlns:xlink="http://www.w3.org/1999/xlink" x="0px" y="0px"
	 width="60px" height="60px" viewBox="0 0 60 60" enable-background="new 0 0 60 60" xml:space="preserve">
<g>
	<path fill="#010101" d="M49,30c-1.294,0-2.531,0.236-3.686,0.649l-1.33-4.558c0.004-0.046,0.016-0.09,0.014-0.136
		c-0.01-0.216-0.093-0.415-0.222-0.577L41,15.857C41.002,14.546,41.068,14,43,14c2.504,0,4-2.034,4-4s-1.496-4-4-4h-6
		c-0.552,0-1,0.448-1,1s0.448,1,1,1h6c1.467,0,2,1.196,2,2s-0.533,2-2,2c-4,0-4,2.702-4,4c0,0.095,0.014,0.189,0.04,0.28
		l2.407,8.251c-1.676-0.399-4.343-0.878-7.505-0.878c-3.706,0-8.003,0.657-12.086,2.821L17.618,18H21c0.552,0,1-0.448,1-1
		s-0.448-1-1-1h-8c-0.552,0-1,0.448-1,1s0.448,1,1,1h2.382l4.747,9.494c-1.492,0.972-2.939,2.17-4.298,3.639
		C14.37,30.415,12.734,30,11,30C4.935,30,0,34.935,0,41s4.935,11,11,11c5.728,0,10.442-4.402,10.949-10H30
		c0.475,0,0.885-0.336,0.98-0.802c0.019-0.091,1.935-8.863,11.324-13.726l1.175,4.029C40.209,33.409,38,36.948,38,41
		c0,6.065,4.935,11,11,11s11-4.935,11-11S55.065,30,49,30z M21.043,29.322L26.382,40h-4.432c-0.288-3.174-1.932-5.955-4.345-7.776
		C18.704,31.087,19.854,30.117,21.043,29.322z M19.941,40h-7.443c1.098-2.489,2.383-4.545,3.781-6.273
		C18.274,35.179,19.655,37.424,19.941,40z M11,50c-4.962,0-9-4.038-9-9s4.038-9,9-9c1.239,0,2.419,0.252,3.494,0.706
		c-1.673,2.138-3.18,4.746-4.426,7.929c-0.121,0.308-0.081,0.655,0.105,0.928C10.36,41.837,10.669,42,11,42h8.941
		C19.441,46.493,15.624,50,11,50z M29.223,40h-0.604l-5.853-11.707c3.777-2.021,7.751-2.64,11.177-2.64
		c2.508,0,4.711,0.33,6.276,0.656C32.452,30.814,29.896,37.66,29.223,40z M49,50c-4.962,0-9-4.038-9-9
		c0-3.138,1.617-5.902,4.059-7.514l1.981,6.794c0.078,0.268,0.264,0.49,0.513,0.615l2,1C48.696,41.966,48.849,42,48.999,42
		c0.367,0,0.72-0.202,0.896-0.553c0.247-0.494,0.047-1.095-0.447-1.342l-1.609-0.805l-1.963-6.73C46.85,32.208,47.9,32,49,32
		c4.962,0,9,4.038,9,9S53.962,50,49,50z"/>
</g>
</svg>
