<?xml version="1.0" encoding="utf-8"?>
<!-- Generator: Adobe Illustrator 17.0.0, SVG Export Plug-In . SVG Version: 6.00 Build 0)  -->
<!DOCTYPE svg PUBLIC "-//W3C//DTD SVG 1.1//EN" "http://www.w3.org/Graphics/SVG/1.1/DTD/svg11.dtd">
<svg version="1.1" id="Layer_1" xmlns="http://www.w3.org/2000/svg" xmlns:xlink="http://www.w3.org/1999/xlink" x="0px" y="0px"
	 width="60px" height="60px" viewBox="0 0 60 60" enable-background="new 0 0 60 60" xml:space="preserve">
<g>
	<path fill="#010101" d="M9,56h1v3c0,0.552,0.448,1,1,1h6c0.552,0,1-0.448,1-1v-3l22.999,0.001c0.001,0,0.001,0,0.002,0
		c0.001,0,0.001,0,0.002,0l0.997,0V59c0,0.552,0.448,1,1,1h6c0.552,0,1-0.448,1-1v-2.999h1c0.265,0,0.52-0.105,0.707-0.293
		S52,55.266,52,55.001V51v-6v-4c0-0.552-0.448-1-1-1h-1V26h1c0.552,0,1-0.448,1-1V8c0-4.71-3.29-8-8-8H16c-4.71,0-8,3.29-8,8v47
		C8,55.552,8.448,56,9,56z M10,24.001L34,24v16H10V24.001z M16,58h-4v-2l4,0V58z M20.869,54l2.666-4h12.93l2.667,4.001L20.869,54z
		 M48,58h-4v-1.999l4,0V58z M50,50h-6v-4h6V50z M16,2h28c3.645,0,6,2.355,6,6v16h-1h-8c-0.552,0-1,0.448-1,1v16c0,0.552,0.448,1,1,1
		h8h1v2h-7c-0.552,0-1,0.448-1,1v6c0,0.552,0.448,1,1,1h7v2.001h-0.995C49.003,54.001,49.002,54,49,54h-6
		c-0.001,0-0.003,0.001-0.004,0.001h-1.461l-3.703-5.555C37.646,48.167,37.334,48,37,48H23c-0.334,0-0.646,0.167-0.832,0.445
		L18.465,54h-1.464c0,0-0.001,0-0.001,0h-6c0,0,0,0,0,0h-1v-2.001h7c0.552,0,1-0.448,1-1V45c0-0.552-0.448-1-1-1h-7v-2h25
		c0.552,0,1-0.448,1-1V23c0-0.265-0.105-0.52-0.293-0.707S35.265,22,35,22l-25,0.001V8C10,4.355,12.355,2,16,2z M48,40h-6V26h6V40z
		 M10,49.999V46h6v3.999H10z"/>
	<path fill="#010101" d="M13,20.001h34c0.552,0,1-0.448,1-1v-8c0-0.552-0.448-1-1-1L13,10c-0.265,0-0.52,0.105-0.707,0.293
		S12,10.735,12,11v8.001C12,19.553,12.448,20.001,13,20.001z M14,12l32,0.001v6H14V12z"/>
</g>
</svg>
