<?xml version="1.0" encoding="utf-8"?>
<!-- Generator: Adobe Illustrator 17.0.0, SVG Export Plug-In . SVG Version: 6.00 Build 0)  -->
<!DOCTYPE svg PUBLIC "-//W3C//DTD SVG 1.1//EN" "http://www.w3.org/Graphics/SVG/1.1/DTD/svg11.dtd">
<svg version="1.1" id="Layer_1" xmlns="http://www.w3.org/2000/svg" xmlns:xlink="http://www.w3.org/1999/xlink" x="0px" y="0px"
	 width="60px" height="60px" viewBox="0 0 60 60" enable-background="new 0 0 60 60" xml:space="preserve">
<g>
	<path fill="#010101" d="M21,12h18c0.552,0,1-0.448,1-1V5c0-0.552-0.448-1-1-1H21c-0.552,0-1,0.448-1,1v6C20,11.552,20.448,12,21,12
		z M22,6h16v4H22V6z"/>
	<path fill="#010101" d="M23,46h-6c-0.552,0-1,0.448-1,1s0.448,1,1,1h6c0.552,0,1-0.448,1-1S23.552,46,23,46z"/>
	<path fill="#010101" d="M43,46h-6c-0.552,0-1,0.448-1,1s0.448,1,1,1h6c0.552,0,1-0.448,1-1S43.552,46,43,46z"/>
	<path fill="#010101" d="M59,16h-6h-3v-6c0-5.42-4.58-10-10-10H20c-5.42,0-10,4.58-10,10v6H7H1c-0.552,0-1,0.448-1,1v18
		c0,0.552,0.448,1,1,1h6c0.552,0,1-0.448,1-1V18h2v34c0,1.944,2.056,4,4,4v3c0,0.552,0.448,1,1,1h6c0.552,0,1-0.448,1-1v-3h16v3
		c0,0.552,0.448,1,1,1h6c0.552,0,1-0.448,1-1v-3c1.944,0,4-2.056,4-4V18h2v17c0,0.552,0.448,1,1,1h6c0.552,0,1-0.448,1-1V17
		C60,16.448,59.552,16,59,16z M6,34H2V18h4V34z M12,16h36v22H12V16z M20,2h20c4.336,0,8,3.664,8,8v4H12v-4C12,5.664,15.664,2,20,2z
		 M20,58h-4v-2h4V58z M44,58h-4v-2h4V58z M46,54H14c-0.841,0-2-1.159-2-2V40h36v12C48,52.841,46.841,54,46,54z M58,34h-4V18h4V34z"
		/>
</g>
</svg>
