<?xml version="1.0" encoding="utf-8"?>
<!-- Generator: Adobe Illustrator 17.0.0, SVG Export Plug-In . SVG Version: 6.00 Build 0)  -->
<!DOCTYPE svg PUBLIC "-//W3C//DTD SVG 1.1//EN" "http://www.w3.org/Graphics/SVG/1.1/DTD/svg11.dtd">
<svg version="1.1" id="Layer_1" xmlns="http://www.w3.org/2000/svg" xmlns:xlink="http://www.w3.org/1999/xlink" x="0px" y="0px"
	 width="60px" height="60px" viewBox="0 0 60 60" enable-background="new 0 0 60 60" xml:space="preserve">
<g>
	<path fill="#010101" d="M59,38h-1v-9c0-2.664-2.337-5-5-5h-3.382l-4.724-9.447C44.725,14.214,44.379,14,44,14H21
		c-0.352,0-0.677,0.184-0.857,0.485L14.434,24H5c-2.663,0-5,2.336-5,5v10c0,0.552,0.447,1,1,1h3.08c0.488,3.387,3.401,6,6.92,6
		s6.432-2.613,6.92-6h21.16c0.488,3.387,3.401,6,6.92,6s6.432-2.613,6.92-6H59c0.553,0,1-0.448,1-1S59.553,38,59,38z M2,29
		c0-1.542,1.458-3,3-3h10c0.352,0,0.677-0.184,0.857-0.485L21.566,16h21.815l4.724,9.447C48.275,25.786,48.621,26,49,26h4
		c1.542,0,3,1.458,3,3v9h-3.08c-0.488-3.387-3.401-6-6.92-6s-6.432,2.613-6.92,6H17.92c-0.488-3.387-3.401-6-6.92-6
		s-6.432,2.613-6.92,6H2V29z M11,44c-2.757,0-5-2.243-5-5s2.243-5,5-5s5,2.243,5,5S13.757,44,11,44z M46,44c-2.757,0-5-2.243-5-5
		s2.243-5,5-5s5,2.243,5,5S48.757,44,46,44z"/>
	<path fill="#010101" d="M20.553,25.895C20.696,25.966,20.849,26,20.999,26c0.367,0,0.72-0.202,0.896-0.553L24.618,20H27
		c0.553,0,1-0.448,1-1s-0.447-1-1-1h-3c-0.379,0-0.725,0.214-0.895,0.553l-3,6C19.858,25.047,20.059,25.647,20.553,25.895z"/>
</g>
</svg>
