<?xml version="1.0" encoding="utf-8"?>
<!-- Generator: Adobe Illustrator 17.0.0, SVG Export Plug-In . SVG Version: 6.00 Build 0)  -->
<!DOCTYPE svg PUBLIC "-//W3C//DTD SVG 1.1//EN" "http://www.w3.org/Graphics/SVG/1.1/DTD/svg11.dtd">
<svg version="1.1" id="Layer_1" xmlns="http://www.w3.org/2000/svg" xmlns:xlink="http://www.w3.org/1999/xlink" x="0px" y="0px"
	 width="60px" height="60px" viewBox="0 0 60 60" enable-background="new 0 0 60 60" xml:space="preserve">
<g>
	<path fill="#010101" d="M54.587,25.99c-1.824-1.012-3.816-1.414-5.758-1.256l-1.841-12.889C46.723,10.15,44.792,8,43,8H17
		c-1.787,0-3.719,2.149-3.99,3.858l-1.84,12.88c-1.941-0.157-3.931,0.247-5.756,1.259C2.099,27.836,0.024,31.283,0,35
		c0,5.123,3.337,9.313,8,10.59V51c0,0.552,0.448,1,1,1h8c0.552,0,1-0.448,1-1v-5h4v1c0,0.552,0.448,1,1,1h14c0.552,0,1-0.448,1-1v-1
		h4v5c0,0.552,0.448,1,1,1h8c0.552,0,1-0.448,1-1v-5.41c4.663-1.277,8-5.469,8-10.597C59.975,31.277,57.901,27.827,54.587,25.99z
		 M14.988,12.157C15.122,11.31,16.345,10,17,10h26c0.642,0,1.883,1.329,2.01,2.142l1.849,12.942
		c-0.226,0.067-0.445,0.16-0.666,0.244C42.159,21.944,36.326,20,30,20c-6.327,0-12.161,1.945-16.195,5.329
		c-0.221-0.083-0.44-0.177-0.665-0.243L14.988,12.157z M44.222,26.301l-9.746,5.848c-2.552,1.572-6.4,1.572-8.961-0.006
		l-9.737-5.842C19.406,23.592,24.585,22,30,22C35.415,22,40.594,23.592,44.222,26.301z M16,50h-6v-4.049
		C10.33,45.979,10.662,46,11,46h5V50z M36,46H24v-6h12V46z M50,50h-6v-4h5c0.338,0,0.67-0.021,1-0.049V50z M49,44H38v-5
		c0-0.552-0.448-1-1-1H23c-0.552,0-1,0.448-1,1v5H11c-5.047,0-9-3.953-9-8.993c0.02-3.035,1.659-5.749,4.384-7.26
		c2.608-1.447,5.634-1.408,8.101,0.11l9.99,5.994c3.2,1.972,7.847,1.971,11.039,0.006l10.009-6.006
		c2.462-1.515,5.488-1.557,8.093-0.113C56.3,29.227,57.98,32.011,58,35C58,40.047,54.047,44,49,44z"/>
	<path fill="#010101" d="M50,30c-2.757,0-5,2.243-5,5s2.243,5,5,5s5-2.243,5-5S52.757,30,50,30z M50,38c-1.654,0-3-1.346-3-3
		s1.346-3,3-3s3,1.346,3,3S51.654,38,50,38z"/>
	<path fill="#010101" d="M10,30c-2.757,0-5,2.243-5,5s2.243,5,5,5s5-2.243,5-5S12.757,30,10,30z M10,38c-1.654,0-3-1.346-3-3
		s1.346-3,3-3s3,1.346,3,3S11.654,38,10,38z"/>
	<circle fill="#010101" cx="30" cy="30" r="1"/>
</g>
</svg>
