<?xml version="1.0" encoding="utf-8"?>
<!-- Generator: Adobe Illustrator 17.0.0, SVG Export Plug-In . SVG Version: 6.00 Build 0)  -->
<!DOCTYPE svg PUBLIC "-//W3C//DTD SVG 1.1//EN" "http://www.w3.org/Graphics/SVG/1.1/DTD/svg11.dtd">
<svg version="1.1" id="Layer_1" xmlns="http://www.w3.org/2000/svg" xmlns:xlink="http://www.w3.org/1999/xlink" x="0px" y="0px"
	 width="60px" height="60px" viewBox="0 0 60 60" enable-background="new 0 0 60 60" xml:space="preserve">
<g>
	<path fill="#010101" d="M1,46l1,0v5c0,0.552,0.447,1,1,1h8c0.553,0,1-0.448,1-1v-4.999l8,0V47c0,0.552,0.447,1,1,1h16
		c0.553,0,1-0.448,1-1v-1l8,0v5c0,0.552,0.447,1,1,1h8c0.553,0,1-0.448,1-1v-4.999l1,0c0.266,0,0.52-0.105,0.707-0.293
		S58,45.266,58,45.001V41v-6c0-0.133-0.027-0.264-0.078-0.385c-0.051-0.122-0.124-0.231-0.216-0.323L51.414,28H57
		c0.553,0,1-0.448,1-1v-4c0-0.552-0.447-1-1-1h-8c-0.174,0-0.33,0.056-0.473,0.135l-3.573-11.433C44.824,10.284,44.438,10,44,10H14
		c-0.438,0-0.824,0.284-0.954,0.702L9.473,22.135C9.33,22.056,9.174,22,9,22H1c-0.553,0-1,0.448-1,1v4c0,0.552,0.447,1,1,1h5.586
		l-6.292,6.292c-0.092,0.092-0.165,0.201-0.216,0.323C0.027,34.736,0,34.867,0,35v6v4C0,45.552,0.447,46,1,46z M54,50h-6v-3.999h6
		V50z M10,50H4v-4l6,0V50z M36,46H22v-6h14V46z M38,44v-5c0-0.552-0.447-1-1-1H21c-0.553,0-1,0.448-1,1v5.001l-8.998,0
		c-0.001,0-0.002,0-0.002,0H3c0,0,0,0,0,0l-1,0v-2h9c0.553,0,1-0.448,1-1v-6c0-0.552-0.447-1-1-1H3.414l6-6h39.172l6,6H47
		c-0.553,0-1,0.448-1,1v6c0,0.552,0.447,1,1,1h9v2.001L38,44z M2,36h8v4H2V36z M56,40h-8v-4h8V40z M50,24h6v2h-6V24z M14.735,12
		h28.529l4.375,14H10.36L14.735,12z M2,24h6v2H2V24z"/>
	<path fill="#010101" d="M29,32c-0.553,0-1,0.448-1,1v2c0,0.552,0.447,1,1,1s1-0.448,1-1v-2C30,32.448,29.553,32,29,32z"/>
</g>
</svg>
