<?xml version="1.0" encoding="utf-8"?>
<!-- Generator: Adobe Illustrator 17.0.0, SVG Export Plug-In . SVG Version: 6.00 Build 0)  -->
<!DOCTYPE svg PUBLIC "-//W3C//DTD SVG 1.1//EN" "http://www.w3.org/Graphics/SVG/1.1/DTD/svg11.dtd">
<svg version="1.1" id="Layer_1" xmlns="http://www.w3.org/2000/svg" xmlns:xlink="http://www.w3.org/1999/xlink" x="0px" y="0px"
	 width="60px" height="60px" viewBox="0 0 60 60" enable-background="new 0 0 60 60" xml:space="preserve">
<g>
	<path fill="#010101" d="M49,28.001c-1.007,0-1.979,0.147-2.906,0.402l-4.793-12.783l5.016-1.672
		c0.524-0.175,0.807-0.741,0.632-1.265c-0.174-0.523-0.739-0.809-1.265-0.632l-6,2c-0.257,0.086-0.469,0.273-0.586,0.518
		c-0.117,0.245-0.129,0.527-0.034,0.782l1.524,4.064l-17.847,5.46L20.547,20H24c0.552,0,1-0.448,1-1s-0.448-1-1-1h-8
		c-0.552,0-1,0.448-1,1s0.448,1,1,1h2.353l2.663,5.917l-3.607,4.162c-1.807-1.302-4.017-2.078-6.409-2.078c-6.065,0-11,4.935-11,11
		C0,45.066,4.935,50,11,50c5.729,0,10.443-4.403,10.949-10.001l5.986-0.001c0.335,0.021,0.662-0.122,0.871-0.406l12.804-17.45
		l2.612,6.966C40.547,30.891,38,34.649,38,39.001C38,45.066,42.935,50,49,50s11-4.934,11-10.999C60,32.936,55.065,28.001,49,28.001z
		 M17.604,32.908c1.268,1.374,2.119,3.136,2.337,5.092L13.19,38L17.604,32.908z M11,48c-4.962,0-9-4.037-9-8.999
		c0-4.962,4.038-9,9-9c1.892,0,3.647,0.59,5.098,1.591l-5.854,6.754c-0.256,0.296-0.316,0.714-0.154,1.07
		c0.163,0.356,0.518,0.584,0.91,0.584l8.941-0.002C19.442,44.493,15.625,48,11,48z M21.949,37.999
		c-0.232-2.557-1.344-4.86-3.028-6.611l3-3.461l4.533,10.072L21.949,37.999z M28.208,37.025l-4.641-10.312l15.741-4.816
		L28.208,37.025z M49,48c-4.962,0-9-4.037-9-8.999c0-3.496,2.008-6.525,4.926-8.015l3.137,8.366
		c0.151,0.401,0.532,0.649,0.937,0.649c0.117,0,0.235-0.021,0.351-0.064c0.517-0.194,0.779-0.771,0.585-1.288L46.8,30.284
		c0.706-0.178,1.44-0.283,2.2-0.283c4.962,0,9,4.038,9,9C58,43.963,53.962,48,49,48z"/>
</g>
</svg>
