<?xml version="1.0" encoding="utf-8"?>
<!-- Generator: Adobe Illustrator 17.0.0, SVG Export Plug-In . SVG Version: 6.00 Build 0)  -->
<!DOCTYPE svg PUBLIC "-//W3C//DTD SVG 1.1//EN" "http://www.w3.org/Graphics/SVG/1.1/DTD/svg11.dtd">
<svg version="1.1" id="Layer_1" xmlns="http://www.w3.org/2000/svg" xmlns:xlink="http://www.w3.org/1999/xlink" x="0px" y="0px"
	 width="60px" height="60px" viewBox="0 0 60 60" enable-background="new 0 0 60 60" xml:space="preserve">
<g>
	<path fill="#010101" d="M59,38h-1V27c0-0.552-0.448-1-1-1H35v-9c0-0.552-0.448-1-1-1H20c-0.379,0-0.725,0.214-0.895,0.553
		L14.382,26H5c-2.664,0-5,2.336-5,5v8c0,0.552,0.448,1,1,1h3.08c0.488,3.387,3.401,6,6.92,6s6.432-2.613,6.92-6h16.16
		c0.488,3.387,3.401,6,6.92,6s6.432-2.613,6.92-6H59c0.552,0,1-0.448,1-1S59.552,38,59,38z M2,31c0-1.542,1.458-3,3-3h10
		c0.379,0,0.725-0.214,0.895-0.553L20.618,18H33v9c0,0.552,0.448,1,1,1h22v10h-8.08c-0.488-3.387-3.401-6-6.92-6
		s-6.432,2.613-6.92,6H17.92c-0.488-3.387-3.401-6-6.92-6s-6.432,2.613-6.92,6H2V31z M11,44c-2.757,0-5-2.243-5-5s2.243-5,5-5
		s5,2.243,5,5S13.757,44,11,44z M41,44c-2.757,0-5-2.243-5-5s2.243-5,5-5s5,2.243,5,5S43.757,44,41,44z"/>
	<path fill="#010101" d="M20.553,27.895C20.696,27.966,20.849,28,20.999,28c0.367,0,0.72-0.202,0.896-0.553L24.618,22H27
		c0.552,0,1-0.448,1-1s-0.448-1-1-1h-3c-0.379,0-0.725,0.214-0.895,0.553l-3,6C19.858,27.047,20.059,27.647,20.553,27.895z"/>
</g>
</svg>
