<?xml version="1.0" encoding="utf-8"?>
<!-- Generator: Adobe Illustrator 17.0.0, SVG Export Plug-In . SVG Version: 6.00 Build 0)  -->
<!DOCTYPE svg PUBLIC "-//W3C//DTD SVG 1.1//EN" "http://www.w3.org/Graphics/SVG/1.1/DTD/svg11.dtd">
<svg version="1.1" id="Layer_1" xmlns="http://www.w3.org/2000/svg" xmlns:xlink="http://www.w3.org/1999/xlink" x="0px" y="0px"
	 width="60px" height="60px" viewBox="0 0 60 60" enable-background="new 0 0 60 60" xml:space="preserve">
<g>
	<path fill="#010101" d="M52.577,0.25c-2.138,0-4.084,0.67-5.207,1.793L39.663,9.75c-6.494-0.004-12.051-0.113-16.533-0.2
		c-3.355-0.065-6.252-0.122-8.729-0.122c-9.737,0-14.324,0.722-14.324,7.322c0,6.312,6.431,6.433,17.085,6.633
		c2.568,0.049,5.412,0.102,8.511,0.243L12.683,35.75H6.077c-3.364,0-6,2.636-6,6c0,4.678,4.34,5.998,8.537,7.275
		c0.552,0.168,1.111,0.338,1.67,0.518c0.168,0.523,0.328,1.052,0.488,1.579c1.228,4.044,2.62,8.629,7.305,8.629c3.434,0,6-3.696,6-7
		v-5.606l12.124-12.99c0.141,3.097,0.194,5.938,0.243,8.505c0.202,10.658,0.323,17.091,6.633,17.091
		c2.258,0,3.827-0.529,4.941-1.666c2.646-2.701,2.527-8.523,2.269-21.28c-0.092-4.509-0.205-10.099-0.21-16.64l7.708-7.708
		c2.868-2.873,2.868-7.545-0.001-10.414C56.661,0.92,54.715,0.25,52.577,0.25z M56.37,11.043l-8,8
		c-0.188,0.188-0.293,0.442-0.293,0.707c0,6.74,0.116,12.481,0.21,17.095c0.232,11.438,0.361,17.739-1.697,19.84
		c-0.722,0.737-1.806,1.065-3.513,1.065c-4.181,0-4.43-4.367-4.633-15.128c-0.062-3.221-0.13-6.872-0.369-10.93
		c-0.023-0.399-0.282-0.747-0.659-0.882c-0.11-0.04-0.225-0.059-0.339-0.059c-0.272,0-0.538,0.111-0.731,0.318l-14,15
		c-0.173,0.185-0.269,0.429-0.269,0.682v6c0,2.25-1.846,5-4,5c-2.986,0-4.029-2.724-5.392-7.21c-0.214-0.705-0.429-1.413-0.66-2.106
		c-0.099-0.298-0.333-0.533-0.632-0.632c-0.732-0.244-1.471-0.469-2.197-0.69c-4.414-1.343-7.119-2.32-7.119-5.361
		c0-2.243,1.757-4,4-4h7c0.253,0,0.497-0.096,0.683-0.269l15-14c0.292-0.273,0.394-0.694,0.258-1.07
		c-0.136-0.376-0.482-0.635-0.882-0.659c-4.061-0.239-7.714-0.308-10.937-0.369C6.442,21.181,2.077,20.932,2.077,16.75
		c0-4.123,1.617-5.322,12.324-5.322c2.457,0,5.345,0.056,8.689,0.122c4.586,0.089,10.295,0.2,16.986,0.2
		c0.266,0,0.52-0.105,0.707-0.293l8-8c0.745-0.745,2.198-1.207,3.793-1.207s3.048,0.462,3.793,1.207
		C58.425,5.511,58.424,8.985,56.37,11.043z"/>
</g>
</svg>
