<?xml version="1.0" encoding="utf-8"?>
<!-- Generator: Adobe Illustrator 17.0.0, SVG Export Plug-In . SVG Version: 6.00 Build 0)  -->
<!DOCTYPE svg PUBLIC "-//W3C//DTD SVG 1.1//EN" "http://www.w3.org/Graphics/SVG/1.1/DTD/svg11.dtd">
<svg version="1.1" id="Layer_1" xmlns="http://www.w3.org/2000/svg" xmlns:xlink="http://www.w3.org/1999/xlink" x="0px" y="0px"
	 width="60px" height="60px" viewBox="0 0 60 60" enable-background="new 0 0 60 60" xml:space="preserve">
<g>
	<path fill="#010101" d="M53.346,36.162l-10.703-4.433l-7.419-17.911c-0.102-0.245-0.296-0.439-0.541-0.541l-9.239-3.826
		c-0.375-0.155-0.804-0.07-1.09,0.217c-0.286,0.286-0.372,0.716-0.217,1.09l6.654,16.062l-11.246-4.658l-3.088-7.457
		c-0.107-0.259-0.318-0.461-0.582-0.557l-8.475-3.087c-0.308-0.111-0.648-0.067-0.916,0.12S6.059,11.674,6.059,12v17
		c0,0.406,0.246,0.772,0.622,0.926l17.656,7.219L5.676,44.875c-0.374,0.155-0.617,0.52-0.617,0.924s0.244,0.769,0.617,0.924
		l9.238,3.827c0.123,0.051,0.252,0.076,0.383,0.076c0.102,0,0.204-0.016,0.302-0.047l23.33-7.401l9.825,4.07
		c1.15,0.476,2.283,0.718,3.369,0.718c2.485,0,4.452-1.306,5.395-3.583c0.721-1.742,0.635-3.475-0.249-5.011
		C56.485,38.009,55.128,36.899,53.346,36.162z M26.908,12.222l6.626,2.744l6.495,15.68l-6.625-2.744L26.908,12.222z M55.67,43.618
		c-0.804,1.94-2.373,2.348-3.547,2.348c-0.81,0-1.71-0.196-2.604-0.565l-10.163-4.21c-0.218-0.09-0.461-0.1-0.685-0.029
		l-23.33,7.401l-6.671-2.764l18.675-7.735c0.375-0.155,0.618-0.521,0.617-0.926s-0.247-0.77-0.622-0.923L8.059,28.329v-14.9
		l6.719,2.448l3.078,7.433c0.102,0.245,0.296,0.439,0.541,0.541l34.184,14.159c1.352,0.56,2.401,1.398,2.955,2.36
		C56.107,41.361,56.152,42.455,55.67,43.618z"/>
</g>
</svg>
