<?xml version="1.0" encoding="utf-8"?>
<!-- Generator: Adobe Illustrator 17.0.0, SVG Export Plug-In . SVG Version: 6.00 Build 0)  -->
<!DOCTYPE svg PUBLIC "-//W3C//DTD SVG 1.1//EN" "http://www.w3.org/Graphics/SVG/1.1/DTD/svg11.dtd">
<svg version="1.1" id="Layer_1" xmlns="http://www.w3.org/2000/svg" xmlns:xlink="http://www.w3.org/1999/xlink" x="0px" y="0px"
	 width="60px" height="60px" viewBox="0 0 60 60" enable-background="new 0 0 60 60" xml:space="preserve">
<g>
	<path fill="#010101" d="M53,19.999H41.414L27.707,6.292C27.52,6.104,27.266,5.999,27,5.999H17c-0.404,0-0.77,0.244-0.924,0.617
		c-0.155,0.374-0.069,0.804,0.217,1.09l12.293,12.293H16.414l-5.707-5.707c-0.188-0.188-0.441-0.293-0.707-0.293H1
		c-0.338,0-0.652,0.17-0.837,0.453s-0.215,0.639-0.079,0.948l7,16C7.243,31.764,7.603,31.999,8,31.999h18.586L12.293,46.292
		c-0.286,0.286-0.372,0.716-0.217,1.09c0.154,0.374,0.52,0.617,0.924,0.617h10c0.235,0,0.464-0.083,0.645-0.235l18.721-15.765H53
		c4.187,0,7-2.411,7-6S57.187,19.999,53,19.999z M19.414,7.999h7.172l12,12h-7.172L19.414,7.999z M53,29.999H42
		c-0.235,0-0.464,0.083-0.645,0.235L22.635,45.999h-7.221l14.293-14.293c0.286-0.286,0.372-0.716,0.217-1.09
		c-0.154-0.374-0.52-0.617-0.924-0.617H8.654l-6.125-14h7.057l5.707,5.707c0.188,0.188,0.441,0.293,0.707,0.293h37
		c2.417,0,5,1.051,5,4S55.417,29.999,53,29.999z"/>
</g>
</svg>
