<?xml version="1.0" encoding="utf-8"?>
<!-- Generator: Adobe Illustrator 17.0.0, SVG Export Plug-In . SVG Version: 6.00 Build 0)  -->
<!DOCTYPE svg PUBLIC "-//W3C//DTD SVG 1.1//EN" "http://www.w3.org/Graphics/SVG/1.1/DTD/svg11.dtd">
<svg version="1.1" id="Layer_1" xmlns="http://www.w3.org/2000/svg" xmlns:xlink="http://www.w3.org/1999/xlink" x="0px" y="0px"
	 width="60px" height="60px" viewBox="0 0 60 60" enable-background="new 0 0 60 60" xml:space="preserve">
<g>
	<path fill="#010101" d="M18.281,0.041c-0.529-0.157-1.086,0.149-1.241,0.678l-17,58c-0.155,0.53,0.148,1.085,0.679,1.241
		C0.812,59.987,0.907,60,1,60c0.433,0,0.832-0.283,0.96-0.719l17-58C19.115,0.751,18.812,0.196,18.281,0.041z"/>
	<path fill="#010101" d="M40.96,0.719c-0.155-0.529-0.709-0.834-1.241-0.678c-0.53,0.155-0.834,0.711-0.679,1.241l17,58
		C56.168,59.717,56.567,60,57,60c0.093,0,0.188-0.013,0.281-0.041c0.53-0.155,0.834-0.711,0.679-1.241L40.96,0.719z"/>
	<path fill="#010101" d="M29,48c-0.553,0-1,0.448-1,1v10c0,0.552,0.447,1,1,1s1-0.448,1-1V49C30,48.448,29.553,48,29,48z"/>
	<path fill="#010101" d="M29,28c-0.553,0-1,0.448-1,1v10c0,0.552,0.447,1,1,1s1-0.448,1-1V29C30,28.448,29.553,28,29,28z"/>
	<path fill="#010101" d="M29,10c-0.553,0-1,0.448-1,1v8c0,0.552,0.447,1,1,1s1-0.448,1-1v-8C30,10.448,29.553,10,29,10z"/>
	<path fill="#010101" d="M29,0c-0.553,0-1,0.448-1,1v2c0,0.552,0.447,1,1,1s1-0.448,1-1V1C30,0.448,29.553,0,29,0z"/>
</g>
</svg>
