<?xml version="1.0" encoding="utf-8"?>
<!-- Generator: Adobe Illustrator 17.0.0, SVG Export Plug-In . SVG Version: 6.00 Build 0)  -->
<!DOCTYPE svg PUBLIC "-//W3C//DTD SVG 1.1//EN" "http://www.w3.org/Graphics/SVG/1.1/DTD/svg11.dtd">
<svg version="1.1" id="Layer_1" xmlns="http://www.w3.org/2000/svg" xmlns:xlink="http://www.w3.org/1999/xlink" x="0px" y="0px"
	 width="60px" height="60px" viewBox="0 0 60 60" enable-background="new 0 0 60 60" xml:space="preserve">
<g>
	<path fill="#010101" d="M48,30h-4.111C43.956,29.347,44,28.683,44,28v-4.64c1.232,1.036,2.963,1.64,5,1.64c0.552,0,1-0.448,1-1V14
		c0-0.552-0.448-1-1-1c-2.037,0-3.768,0.604-5,1.64V14c0-2.654-1.346-4-4-4h-4c-0.552,0-1,0.448-1,1s0.448,1,1,1h4
		c1.533,0,2,0.467,2,2v14c0,6.444-3.451,11.485-8.646,13.286c-0.675-4.383-3.34-8.842-7.099-11.318C28.12,29.8,30,27.859,30,26v-5
		c0-0.552-0.448-1-1-1H3c-0.552,0-1,0.448-1,1v2.954c0,0.264,0.104,0.517,0.29,0.704l5,5.046c0.074,0.075,0.165,0.125,0.256,0.172
		C3.174,32.509,0,37.587,0,43c0,0.552,0.448,1,1,1h4.059c0.5,4.493,4.317,8,8.941,8s8.441-3.507,8.941-8H29
		c2.826,0,5.393-0.721,7.58-2h3.486C40.027,42.336,40,42.671,40,43c0,4.962,4.038,9,9,9s9-4.038,9-9c0-0.329-0.027-0.664-0.066-1H59
		c0.552,0,1-0.448,1-1C60,35.449,54.056,30,48,30z M8.417,28L4,23.542V22h24v4c0,0.841-1.159,2-2,2h-6h-6H8.417z M14,50
		c-3.519,0-6.432-2.613-6.92-6h13.84C20.432,47.387,17.519,50,14,50z M29,42H2.043C2.584,35.701,8.141,30,14,30h6
		c5.848,0,10.611,6.118,11.406,11.791C30.632,41.929,29.829,42,29,42z M48,15.063v7.873c-2.43-0.32-4-1.822-4-3.937
		S45.57,15.384,48,15.063z M56,43c0,3.86-3.14,7-7,7s-7-3.14-7-7c0-0.327,0.033-0.662,0.084-1h13.832C55.967,42.338,56,42.673,56,43
		z M39.216,40c2.138-2.051,3.658-4.792,4.35-8H48c4.583,0,9.245,3.888,9.917,8H39.216z"/>
</g>
</svg>
