<?xml version="1.0" encoding="utf-8"?>
<!-- Generator: Adobe Illustrator 17.0.0, SVG Export Plug-In . SVG Version: 6.00 Build 0)  -->
<!DOCTYPE svg PUBLIC "-//W3C//DTD SVG 1.1//EN" "http://www.w3.org/Graphics/SVG/1.1/DTD/svg11.dtd">
<svg version="1.1" id="Layer_1" xmlns="http://www.w3.org/2000/svg" xmlns:xlink="http://www.w3.org/1999/xlink" x="0px" y="0px"
	 width="60px" height="60px" viewBox="0 0 60 60" enable-background="new 0 0 60 60" xml:space="preserve">
<g>
	<path fill="#010101" d="M37,19c0-0.552-0.447-1-1-1H22c-0.553,0-1,0.448-1,1s0.447,1,1,1h14C36.553,20,37,19.552,37,19z"/>
	<path fill="#010101" d="M8,60c2.206,0,4-1.794,4-4c0-1.654,1.346-3,3-3s3,1.346,3,3c0,2.206,1.794,4,4,4s4-1.794,4-4
		c0-1.654,1.346-3,3-3s3,1.346,3,3c0,2.206,1.794,4,4,4s4-1.794,4-4c0-1.654,1.346-3,3-3s3,1.346,3,3c0,2.206,1.794,4,4,4
		s4-1.794,4-4c0-0.552-0.447-1-1-1s-1,0.448-1,1c0,1.103-0.897,2-2,2s-2-0.897-2-2c0-2.757-2.243-5-5-5
		c-0.05,0-0.096,0.013-0.145,0.015l5.754-21.318l1.159,0.276C49.847,29.991,49.924,30,50.001,30c0.452,0,0.862-0.309,0.972-0.769
		c0.128-0.537-0.204-1.076-0.741-1.204L44,26.544V17c0-2.757-2.243-5-5-5h-5V1c0-0.552-0.447-1-1-1h-8c-0.553,0-1,0.448-1,1v11h-5
		c-2.757,0-5,2.243-5,5v9.544l-6.231,1.484c-0.537,0.128-0.869,0.667-0.741,1.204c0.129,0.538,0.668,0.872,1.204,0.741l0.88-0.209
		l5.241,21.302C11.903,51.387,10,53.465,10,56c0,1.103-0.897,2-2,2s-2-0.897-2-2c0-0.552-0.447-1-1-1s-1,0.448-1,1
		C4,58.206,5.794,60,8,60z M24,56c0,1.103-0.897,2-2,2s-2-0.897-2-2c0-2.248-1.501-4.132-3.546-4.759l-3.508-14.258L28,32.354
		v18.747C25.721,51.566,24,53.586,24,56z M38,56c0,1.103-0.897,2-2,2s-2-0.897-2-2c0-2.414-1.721-4.434-4-4.899V32.365l14.574,4.605
		l-3.958,14.663C39.066,52.483,38,54.111,38,56z M45.096,35.037L30,30.267v-5.001l16.662,3.967L45.096,35.037z M32,2v2h-6V2H32z
		 M26,6h6v6h-6V6z M16,17c0-1.654,1.346-3,3-3h20c1.654,0,3,1.346,3,3v9.067l-13-3.095l-13,3.095V17z M28,25.266v4.995
		l-15.532,4.777L11.056,29.3L28,25.266z"/>
</g>
</svg>
