<?xml version="1.0" encoding="utf-8"?>
<!-- Generator: Adobe Illustrator 17.0.0, SVG Export Plug-In . SVG Version: 6.00 Build 0)  -->
<!DOCTYPE svg PUBLIC "-//W3C//DTD SVG 1.1//EN" "http://www.w3.org/Graphics/SVG/1.1/DTD/svg11.dtd">
<svg version="1.1" id="Layer_1" xmlns="http://www.w3.org/2000/svg" xmlns:xlink="http://www.w3.org/1999/xlink" x="0px" y="0px"
	 width="60px" height="60px" viewBox="0 0 60 60" enable-background="new 0 0 60 60" xml:space="preserve">
<g>
	<path fill="#010101" d="M60,1c0-0.552-0.448-1-1-1H1C0.448,0,0,0.448,0,1s0.448,1,1,1h21.586l-4.293,4.293
		c-0.391,0.391-0.391,1.023,0,1.414L24,13.414V18H6c-0.552,0-1,0.448-1,1s0.448,1,1,1h4v2H1c-0.552,0-1,0.448-1,1s0.448,1,1,1h1v24
		H1c-0.552,0-1,0.448-1,1s0.448,1,1,1h8.54C8.586,51.063,8,52.462,8,54s0.586,2.937,1.54,4H1c-0.552,0-1,0.448-1,1s0.448,1,1,1h58
		c0.552,0,1-0.448,1-1s-0.448-1-1-1h-8.54c0.954-1.063,1.54-2.462,1.54-4s-0.586-2.937-1.54-4H59c0.552,0,1-0.448,1-1s-0.448-1-1-1
		h-1V24h1c0.552,0,1-0.448,1-1s-0.448-1-1-1h-9v-2h4c0.552,0,1-0.448,1-1s-0.448-1-1-1H36v-4.586l5.707-5.707
		c0.391-0.391,0.391-1.023,0-1.414L37.414,2H59C59.552,2,60,1.552,60,1z M16,24v18H4V24H16z M42,24v24H18V24H42z M24,54v-4h12v4H24z
		 M22,54h-2c0-1.538-0.586-2.937-1.54-4H22V54z M40.35,56c0.265,0.746,0.672,1.422,1.19,2H18.46c0.519-0.578,0.926-1.254,1.19-2
		H40.35z M38,54v-4h3.54C40.586,51.063,40,52.462,40,54H38z M4,44h12v4H4V44z M10,54c0-2.206,1.794-4,4-4s4,1.794,4,4h-4
		c-0.552,0-1,0.448-1,1s0.448,1,1,1h3.444c-0.694,1.19-1.97,2-3.444,2C11.794,58,10,56.206,10,54z M50,54c0,2.206-1.794,4-4,4
		c-1.474,0-2.75-0.81-3.444-2H46c0.552,0,1-0.448,1-1s-0.448-1-1-1h-4c0-2.206,1.794-4,4-4S50,51.794,50,54z M44,48v-4h12v4H44z
		 M56,42H44V24h12V42z M48,22H12v-2h36V22z M26,18v-4h8v4H26z M39.586,7l-5,5h-9.172l-5-5l5-5h9.172L39.586,7z"/>
	<path fill="#010101" d="M21,40h18c0.552,0,1-0.448,1-1V27c0-0.552-0.448-1-1-1H21c-0.552,0-1,0.448-1,1v12
		C20,39.552,20.448,40,21,40z M22,28h16v10H22V28z"/>
</g>
</svg>
