<?xml version="1.0" encoding="utf-8"?>
<!-- Generator: Adobe Illustrator 17.0.0, SVG Export Plug-In . SVG Version: 6.00 Build 0)  -->
<!DOCTYPE svg PUBLIC "-//W3C//DTD SVG 1.1//EN" "http://www.w3.org/Graphics/SVG/1.1/DTD/svg11.dtd">
<svg version="1.1" id="Layer_1" xmlns="http://www.w3.org/2000/svg" xmlns:xlink="http://www.w3.org/1999/xlink" x="0px" y="0px"
	 width="60px" height="60px" viewBox="0 0 60 60" enable-background="new 0 0 60 60" xml:space="preserve">
<g>
	<path fill="#010101" d="M11,10c-0.552,0-1,0.448-1,1s0.448,1,1,1h3v22c0,3.364,2.636,6,6,6h18c3.364,0,6-2.636,6-6V12h3
		c0.552,0,1-0.448,1-1s-0.448-1-1-1h-3V6h1c0.552,0,1-0.448,1-1s-0.448-1-1-1h-2h-9.101C33.434,1.721,31.414,0,29,0
		s-4.434,1.721-4.899,4H15h-2c-0.552,0-1,0.448-1,1s0.448,1,1,1h1v4H11z M29,2c1.302,0,2.402,0.839,2.816,2h-5.631
		C26.598,2.839,27.698,2,29,2z M42,6v28c0,2.243-1.757,4-4,4H20c-2.243,0-4-1.757-4-4V6H42z"/>
	<path fill="#010101" d="M34.97,45c-0.368,0.011-0.7,0.223-0.864,0.552l-1.164,2.329l-3.073-5.377c-0.355-0.623-1.381-0.623-1.736,0
		l-3.073,5.377l-1.164-2.329C23.73,45.224,23.398,45.012,23.03,45c-0.354-0.023-0.712,0.18-0.896,0.499
		C21.444,46.692,18,52.756,18,55c0,2.664,2.334,5,5,5h11.999c0,0,0.006,0,0.006,0c1.256,0,2.527-0.55,3.486-1.51S40,56.26,40,55.003
		c0-2.246-3.444-8.311-4.134-9.504C35.682,45.18,35.322,44.98,34.97,45z M37.077,57.076C36.49,57.664,35.735,58,35.005,58H35H22.995
		C21.456,58,20,56.542,20,55c0-1.028,1.519-4.218,2.951-6.862l1.155,2.31c0.165,0.33,0.498,0.542,0.867,0.552
		c0.354,0.008,0.713-0.184,0.896-0.503L29,45.016l3.132,5.48c0.183,0.32,0.526,0.508,0.896,0.503
		c0.369-0.01,0.702-0.223,0.867-0.552l1.155-2.31C36.481,50.782,38,53.973,38,55.003C38,55.733,37.664,56.489,37.077,57.076z"/>
</g>
</svg>
