<?xml version="1.0" encoding="utf-8"?>
<!-- Generator: Adobe Illustrator 17.0.0, SVG Export Plug-In . SVG Version: 6.00 Build 0)  -->
<!DOCTYPE svg PUBLIC "-//W3C//DTD SVG 1.1//EN" "http://www.w3.org/Graphics/SVG/1.1/DTD/svg11.dtd">
<svg version="1.1" id="Layer_1" xmlns="http://www.w3.org/2000/svg" xmlns:xlink="http://www.w3.org/1999/xlink" x="0px" y="0px"
	 width="60px" height="60px" viewBox="0 0 60 60" enable-background="new 0 0 60 60" xml:space="preserve">
<g>
	<path fill="#010101" d="M36,1c0-0.552-0.447-1-1-1h-8c-0.553,0-1,0.448-1,1v8v8c0,3.429-0.928,4.516-2.758,6.343
		C21.281,25.305,18,28.587,18,34v23c0,1.654,1.346,3,3,3h20c1.654,0,3-1.346,3-3V34c0-5.413-3.281-8.695-5.293-10.707
		C36.929,21.514,36,20.426,36,17V9V1z M28,2h6v6h-6V2z M20,38h22v10H20V38z M41,58H21c-0.552,0-1-0.449-1-1v-7h22v7
		C42,57.551,41.552,58,41,58z M37.343,24.757C39.197,26.612,42,29.416,42,34v2H20v-2c0-4.584,2.803-7.388,4.707-9.292
		C26.756,22.661,28,21.12,28,17v-7h6v7C34,21.117,35.244,22.658,37.343,24.757z"/>
</g>
</svg>
