<?xml version="1.0" encoding="utf-8"?>
<!-- Generator: Adobe Illustrator 17.0.0, SVG Export Plug-In . SVG Version: 6.00 Build 0)  -->
<!DOCTYPE svg PUBLIC "-//W3C//DTD SVG 1.1//EN" "http://www.w3.org/Graphics/SVG/1.1/DTD/svg11.dtd">
<svg version="1.1" id="Layer_1" xmlns="http://www.w3.org/2000/svg" xmlns:xlink="http://www.w3.org/1999/xlink" x="0px" y="0px"
	 width="60px" height="60px" viewBox="0 0 60 60" enable-background="new 0 0 60 60" xml:space="preserve">
<g>
	<path fill="#010101" d="M14,36v19c0,2.57,2.43,5,5,5h20c2.57,0,5-2.43,5-5V36c0-8.058-1.724-14.006-10-16.735V10h1
		c0.553,0,1-0.448,1-1V1c0-0.552-0.447-1-1-1H23c-0.553,0-1,0.448-1,1v8c0,0.552,0.447,1,1,1h1v9.265C15.724,21.994,14,27.942,14,36
		z M24,2h10v6H24V2z M32,10v10c0,0.443,0.292,0.834,0.718,0.959C40.447,23.235,42,28.401,42,36v19c0,1.458-1.542,3-3,3H19
		c-1.458,0-3-1.542-3-3V36c0-7.599,1.553-12.765,9.282-15.041C25.708,20.834,26,20.443,26,20V10H32z"/>
	<path fill="#010101" d="M20,31v8c0,0.552,0.447,1,1,1h16c0.553,0,1-0.448,1-1v-8c0-0.552-0.447-1-1-1H21C20.447,30,20,30.448,20,31
		z M22,32h14v6H22V32z"/>
</g>
</svg>
