<?xml version="1.0" encoding="utf-8"?>
<!-- Generator: Adobe Illustrator 17.0.0, SVG Export Plug-In . SVG Version: 6.00 Build 0)  -->
<!DOCTYPE svg PUBLIC "-//W3C//DTD SVG 1.1//EN" "http://www.w3.org/Graphics/SVG/1.1/DTD/svg11.dtd">
<svg version="1.1" id="Layer_1" xmlns="http://www.w3.org/2000/svg" xmlns:xlink="http://www.w3.org/1999/xlink" x="0px" y="0px"
	 width="60px" height="60px" viewBox="0 0 60 60" enable-background="new 0 0 60 60" xml:space="preserve">
<g>
	<path fill="#010101" d="M7.77,31.923l-3.747,16.86c-0.065,0.296,0.007,0.606,0.196,0.842C4.41,49.862,4.696,50,5,50h46
		c0.294,0,0.573-0.129,0.763-0.354c0.19-0.225,0.272-0.521,0.224-0.811l-2.815-16.893C55.062,31.364,60,26.499,60,21
		c0-6.168-4.832-11-11-11H29H11C4.832,10,0,14.832,0,21C0,27.369,2.881,31.357,7.77,31.923z M49.819,48H32.143l-2.009-16h17.019
		L49.819,48z M49,12c5.047,0,9,3.953,9,9c0,4.794-4.673,9-10,9H35.384C38.191,28.026,40,24.766,40,21c0-3.766-1.807-7.026-4.613-9
		H49z M11,12h18c5.047,0,9,3.953,9,9s-3.953,9-9,9c-0.143,0-0.278,0.032-0.401,0.086c-0.033,0.014-0.057,0.042-0.088,0.059
		c-0.087,0.05-0.17,0.103-0.238,0.175c-0.007,0.007-0.017,0.01-0.024,0.018c-0.028,0.031-0.037,0.073-0.06,0.107
		c-0.048,0.069-0.093,0.138-0.122,0.218c-0.021,0.057-0.025,0.115-0.035,0.174C28.023,30.892,28,30.942,28,31
		c0,0.023,0.012,0.042,0.013,0.065c0.001,0.02-0.008,0.04-0.005,0.06L30.127,48H6.247l3.729-16.783
		c0.008-0.038-0.002-0.073,0.002-0.111C9.983,31.07,10,31.038,10,31c0-0.031-0.015-0.058-0.018-0.088
		c-0.006-0.069-0.02-0.133-0.04-0.198c-0.019-0.061-0.039-0.118-0.069-0.174c-0.03-0.056-0.065-0.105-0.105-0.155
		c-0.041-0.051-0.082-0.097-0.132-0.139c-0.047-0.04-0.098-0.072-0.153-0.103c-0.06-0.034-0.119-0.061-0.186-0.083
		c-0.029-0.009-0.052-0.03-0.082-0.036c-0.037-0.008-0.072,0.002-0.108-0.002C9.071,30.018,9.039,30,9,30c-6.318,0-7-6.294-7-9
		C2,15.953,5.953,12,11,12z"/>
</g>
</svg>
