<?xml version="1.0" encoding="utf-8"?>
<!-- Generator: Adobe Illustrator 17.0.0, SVG Export Plug-In . SVG Version: 6.00 Build 0)  -->
<!DOCTYPE svg PUBLIC "-//W3C//DTD SVG 1.1//EN" "http://www.w3.org/Graphics/SVG/1.1/DTD/svg11.dtd">
<svg version="1.1" id="Layer_1" xmlns="http://www.w3.org/2000/svg" xmlns:xlink="http://www.w3.org/1999/xlink" x="0px" y="0px"
	 width="60px" height="60px" viewBox="0 0 60 60" enable-background="new 0 0 60 60" xml:space="preserve">
<g>
	<path fill="#010101" d="M60,28c0-2.144-3.396-4.544-5.014-5.566C54.691,9.401,44.279,0,30,0S5.309,9.401,5.014,22.434
		C3.396,23.456,0,25.856,0,28c0,1.942,0.888,2.937,2.056,3.451C0.792,32.543,0,34.161,0,36c0,2.111,1.038,3.934,2.642,5
		C1.038,42.066,0,43.889,0,46c0,3.022,2.129,5.449,5,5.913V54c0,3.364,2.636,6,6,6h38c3.364,0,6-2.636,6-6v-2.087
		c2.871-0.464,5-2.892,5-5.913c0-2.111-1.038-3.934-2.642-5C58.962,39.934,60,38.111,60,36c0-1.751-0.718-3.299-1.876-4.387
		C59.214,31.16,60,30.172,60,28z M30,2c12.959,0,22.464,8.351,22.978,20H7.022C7.536,10.351,17.041,2,30,2z M2,28
		c0-0.813,2.215-2.714,4.29-4h47.42c2.075,1.286,4.29,3.187,4.29,4c0,1.774-0.167,2-3,2c-2.104,0-2.963-0.395-3.312-0.726
		c-0.225-0.213-0.536-0.308-0.841-0.263c-0.307,0.047-0.573,0.233-0.723,0.504C48.99,31.567,46.472,33,44,33
		c-2.864,0-5.161-2.28-6.083-4.399C37.758,28.236,37.398,28,37.001,28C37,28,37,28,37,28c-0.397,0-0.758,0.235-0.916,0.6
		C35.14,30.761,32.923,32,30,32c-2.926,0-5.143-1.239-6.083-3.399C23.758,28.236,23.398,28,23.001,28C23,28,23,28,23,28
		c-0.397,0-0.758,0.235-0.916,0.6C21.158,30.719,18.859,33,16,33c-2.182,0-3.81-1.107-5.125-3.484
		c-0.149-0.271-0.417-0.458-0.723-0.504c-0.308-0.049-0.618,0.05-0.841,0.263C8.963,29.606,8.106,30,6,30C2.578,30,2,29.5,2,28z
		 M53,54c0,2.243-1.757,4-4,4H11c-2.243,0-4-1.757-4-4v-2h46V54z M58,46c0,2.243-1.757,4-4,4h-9H6c-2.243,0-4-1.757-4-4s1.757-4,4-4
		h23.75l14.779,7.882C44.678,49.961,44.84,50,45,50c0.259,0,0.515-0.101,0.707-0.293L53.414,42H54C56.243,42,58,43.757,58,46z
		 M34,42h16.586l-5.769,5.769L34,42z M54,40H6c-2.243,0-4-1.757-4-4s1.757-4,4-4c1.584,0,2.786-0.195,3.68-0.605
		C11.284,33.789,13.406,35,16,35c2.675,0,5.372-1.587,7.035-4.013C24.554,32.9,27.039,34,30,34c2.958,0,5.443-1.1,6.963-3.013
		C38.624,33.413,41.322,35,44,35c2.796,0,5.648-1.449,7.29-3.619c0.642,0.3,1.453,0.483,2.445,0.566C53.821,31.971,53.906,32,54,32
		c2.243,0,4,1.757,4,4S56.243,40,54,40z"/>
	<circle fill="#010101" cx="17" cy="10.999" r="1.001"/>
	<circle fill="#010101" cx="31.001" cy="10.999" r="1.001"/>
	<circle fill="#010101" cx="43" cy="10.999" r="1.001"/>
	<circle fill="#010101" cx="22.999" cy="6.999" r="1.001"/>
	<circle fill="#010101" cx="37" cy="6.999" r="1.001"/>
</g>
</svg>
