<?xml version="1.0" encoding="utf-8"?>
<!-- Generator: Adobe Illustrator 17.0.0, SVG Export Plug-In . SVG Version: 6.00 Build 0)  -->
<!DOCTYPE svg PUBLIC "-//W3C//DTD SVG 1.1//EN" "http://www.w3.org/Graphics/SVG/1.1/DTD/svg11.dtd">
<svg version="1.1" id="Layer_1" xmlns="http://www.w3.org/2000/svg" xmlns:xlink="http://www.w3.org/1999/xlink" x="0px" y="0px"
	 width="60px" height="60px" viewBox="0 0 60 60" enable-background="new 0 0 60 60" xml:space="preserve">
<g>
	<path fill="#010101" d="M57.996,31.022C57.996,31.014,58,31.008,58,31v-4c0-9.374-7.626-17-17-17H19C9.626,10,2,17.626,2,27v4
		c0,0.008,0.004,0.014,0.004,0.022C0.795,31.935,0,33.371,0,35v2c0,1.629,0.795,3.065,2.004,3.978C2.004,40.986,2,40.992,2,41v3
		c0,3.309,2.691,6,6,6h44c3.309,0,6-2.691,6-6v-3c0-0.008-0.004-0.014-0.004-0.022C59.205,40.065,60,38.629,60,37v-2
		C60,33.371,59.205,31.935,57.996,31.022z M4,30v-3c0-8.271,6.729-15,15-15h22c8.271,0,15,6.729,15,15v3h-1H5H4z M56,42v2
		c0,2.206-1.794,4-4,4H8c-2.206,0-4-1.794-4-4v-2h1h50H56z M58,37c0,1.654-1.346,3-3,3H5c-1.654,0-3-1.346-3-3v-2
		c0-1.654,1.346-3,3-3h50c1.654,0,3,1.346,3,3V37z"/>
	<circle fill="#010101" cx="17" cy="19" r="1"/>
	<circle fill="#010101" cx="23" cy="15" r="1"/>
	<circle fill="#010101" cx="29" cy="19" r="1"/>
	<circle fill="#010101" cx="43" cy="19" r="1"/>
	<circle fill="#010101" cx="37" cy="15" r="1"/>
</g>
</svg>
