<?xml version="1.0" encoding="utf-8"?>
<!-- Generator: Adobe Illustrator 17.0.0, SVG Export Plug-In . SVG Version: 6.00 Build 0)  -->
<!DOCTYPE svg PUBLIC "-//W3C//DTD SVG 1.1//EN" "http://www.w3.org/Graphics/SVG/1.1/DTD/svg11.dtd">
<svg version="1.1" id="Layer_1" xmlns="http://www.w3.org/2000/svg" xmlns:xlink="http://www.w3.org/1999/xlink" x="0px" y="0px"
	 width="60px" height="60px" viewBox="0 0 60 60" enable-background="new 0 0 60 60" xml:space="preserve">
<g>
	<path fill="#010101" d="M59.707,38.102L42.055,20.45c-0.002-0.002-0.006-0.003-0.008-0.005l-0.471-0.471
		C41.846,19.021,42,18.02,42,16.982c0-4.219-2.39-7.885-5.885-9.73c0.455-2.278,1.643-3.847,3.553-4.656
		c2.971-1.255,6.715-0.327,8.732,1.186c0.443,0.333,1.069,0.242,1.4-0.2c0.332-0.442,0.242-1.069-0.2-1.4
		c-2.524-1.894-7.015-2.991-10.711-1.428c-1.729,0.732-3.837,2.325-4.645,5.717C33.218,6.154,32.129,5.982,31,5.982
		c-3.268,0-6.198,1.44-8.215,3.71C9.356,13.007,0,24.928,0,38.809c0,0.031,0.015,0.058,0.018,0.088C0.015,38.928,0,38.954,0,38.985
		v15.997c0,2.57,2.43,5,5,5h54c0.552,0,1-0.448,1-1V38.985c0-0.031-0.015-0.057-0.018-0.087C59.985,38.868,60,38.839,60,38.809
		C60,38.553,59.902,38.297,59.707,38.102z M2,39.985h56v7.997H2V39.985z M31,7.982c4.962,0,9,4.038,9,9s-4.038,9-9,9s-9-4.038-9-9
		S26.038,7.982,31,7.982z M21.081,12.259C20.395,13.693,20,15.29,20,16.982c0,6.065,4.935,11,11,11c4.256,0,7.948-2.435,9.776-5.98
		l15.986,15.983H2.035C2.376,26.147,9.986,15.958,21.081,12.259z M5,57.982c-1.458,0-3-1.542-3-3v-5h56v8H5z"/>
</g>
</svg>
