<?xml version="1.0" encoding="utf-8"?>
<!-- Generator: Adobe Illustrator 17.0.0, SVG Export Plug-In . SVG Version: 6.00 Build 0)  -->
<!DOCTYPE svg PUBLIC "-//W3C//DTD SVG 1.1//EN" "http://www.w3.org/Graphics/SVG/1.1/DTD/svg11.dtd">
<svg version="1.1" id="Layer_1" xmlns="http://www.w3.org/2000/svg" xmlns:xlink="http://www.w3.org/1999/xlink" x="0px" y="0px"
	 width="60px" height="60px" viewBox="0 0 60 60" enable-background="new 0 0 60 60" xml:space="preserve">
<g>
	<circle fill="#010101" cx="25" cy="29" r="1"/>
	<circle fill="#010101" cx="27" cy="21" r="1"/>
	<circle fill="#010101" cx="29" cy="35" r="1"/>
	<circle fill="#010101" cx="33" cy="31" r="1"/>
	<circle fill="#010101" cx="33" cy="23" r="1"/>
	<path fill="#010101" d="M28,41.951V58h-5c-0.552,0-1,0.448-1,1s0.448,1,1,1h12c0.552,0,1-0.448,1-1s-0.448-1-1-1h-5V41.951
		c5.682-0.491,10-5.126,9.995-11.051l-3-30C36.944,0.389,36.514,0,36,0H22c-0.514,0-0.944,0.389-0.995,0.9L18,31
		C18,36.83,22.318,41.46,28,41.951z M22.905,2h12.19l1.202,12H21.705L22.905,2z M21.505,16h14.993L38,31c0,5.047-3.953,9-9,9
		s-9-3.953-9.005-8.9L21.505,16z"/>
</g>
</svg>
