<?xml version="1.0" encoding="utf-8"?>
<!-- Generator: Adobe Illustrator 17.0.0, SVG Export Plug-In . SVG Version: 6.00 Build 0)  -->
<!DOCTYPE svg PUBLIC "-//W3C//DTD SVG 1.1//EN" "http://www.w3.org/Graphics/SVG/1.1/DTD/svg11.dtd">
<svg version="1.1" id="Layer_1" xmlns="http://www.w3.org/2000/svg" xmlns:xlink="http://www.w3.org/1999/xlink" x="0px" y="0px"
	 width="60px" height="60px" viewBox="0 0 60 60" enable-background="new 0 0 60 60" xml:space="preserve">
<g>
	<path fill="#010101" d="M50.814,5.442C45.757,2.035,39.097,0,33,0c-0.242,0-0.477,0.088-0.658,0.248l-32,28
		c-0.016,0.014-0.022,0.033-0.036,0.048c-0.056,0.056-0.1,0.119-0.142,0.186c-0.026,0.041-0.054,0.078-0.073,0.122
		c-0.029,0.066-0.041,0.136-0.055,0.208c-0.01,0.052-0.026,0.102-0.028,0.155C0.006,28.978,0,28.988,0,29v15c0,0.552,0.447,1,1,1
		c2.243,0,4,1.757,4,4s-1.757,4-4,4c-0.553,0-1,0.448-1,1v5c0,0.289,0.125,0.564,0.343,0.754C0.526,59.914,0.76,60,1,60
		c0.045,0,0.091-0.003,0.137-0.009l58-8C59.632,51.922,60,51.5,60,51V21C60,14.958,56.737,9.433,50.814,5.442z M33.372,2.003
		c9.954,0.158,23.923,6.59,24.596,18.13l-53.796,7.42L33.372,2.003z M58,50.128L2,57.853V54.92c2.872-0.463,5-2.897,5-5.92
		s-2.128-5.458-5-5.92V29.872l56-7.724V50.128z"/>
	<path fill="#010101" d="M50,36.001c2.757,0,5-2.243,5-5s-2.243-5-5-5s-5,2.243-5,5S47.243,36.001,50,36.001z M50,28.001
		c1.654,0,3,1.346,3,3s-1.346,3-3,3s-3-1.346-3-3S48.346,28.001,50,28.001z"/>
	<circle fill="#010101" cx="35" cy="34.001" r="2"/>
	<path fill="#010101" d="M45,46.001c1.654,0,3-1.346,3-3s-1.346-3-3-3s-3,1.346-3,3S43.346,46.001,45,46.001z M45,42.001
		c0.552,0,1,0.449,1,1s-0.448,1-1,1s-1-0.449-1-1S44.448,42.001,45,42.001z"/>
	<path fill="#010101" d="M27,51.001c3.309,0,6-2.691,6-6s-2.691-6-6-6s-6,2.691-6,6S23.691,51.001,27,51.001z M27,41.001
		c2.206,0,4,1.794,4,4s-1.794,4-4,4s-4-1.794-4-4S24.794,41.001,27,41.001z"/>
	<path fill="#010101" d="M15,39c2.206,0,4-1.794,4-4s-1.794-4-4-4s-4,1.794-4,4S12.794,39,15,39z M15,33c1.103,0,2,0.897,2,2
		s-0.897,2-2,2s-2-0.897-2-2S13.897,33,15,33z"/>
</g>
</svg>
