<?xml version="1.0" encoding="utf-8"?>
<!-- Generator: Adobe Illustrator 17.0.0, SVG Export Plug-In . SVG Version: 6.00 Build 0)  -->
<!DOCTYPE svg PUBLIC "-//W3C//DTD SVG 1.1//EN" "http://www.w3.org/Graphics/SVG/1.1/DTD/svg11.dtd">
<svg version="1.1" id="Layer_1" xmlns="http://www.w3.org/2000/svg" xmlns:xlink="http://www.w3.org/1999/xlink" x="0px" y="0px"
	 width="60px" height="60px" viewBox="0 0 60 60" enable-background="new 0 0 60 60" xml:space="preserve">
<g>
	<path fill="#010101" d="M11.021,26.895C11.017,26.931,11,26.963,11,27c0,0.033,0.016,0.061,0.019,0.093
		c0.003,0.031-0.007,0.06-0.001,0.091l5.263,28.068C16.771,57.87,19.337,60,22,60h16c2.663,0,5.229-2.13,5.72-4.748l5.263-28.068
		c0.006-0.031-0.004-0.06-0.001-0.091C48.984,27.061,49,27.033,49,27c0-0.037-0.017-0.069-0.021-0.105
		c-0.007-0.068-0.019-0.132-0.039-0.195c-0.02-0.061-0.044-0.117-0.074-0.172c-0.031-0.057-0.065-0.108-0.106-0.157
		c-0.041-0.049-0.085-0.092-0.134-0.133c-0.049-0.04-0.099-0.074-0.156-0.105c-0.059-0.032-0.12-0.055-0.185-0.075
		c-0.035-0.011-0.063-0.033-0.099-0.04c-0.032-0.006-0.061,0.004-0.093,0.001C48.06,26.015,48.033,26,48,26h-8.366l1.198-8.551
		c2.899-0.082,5.367-2.263,5.772-5.154c0.223-1.587-0.187-3.166-1.152-4.445c-0.763-1.012-1.807-1.726-2.993-2.096l0.583-4.63
		c0.069-0.548-0.319-1.048-0.867-1.117c-0.552-0.071-1.049,0.32-1.117,0.867l-0.579,4.598c-2.889,0.087-5.354,2.271-5.759,5.158
		c-0.412,2.938,1.392,5.68,4.132,6.547L37.614,26H12c-0.032,0-0.06,0.015-0.091,0.018c-0.032,0.003-0.061-0.007-0.093-0.001
		c-0.037,0.007-0.064,0.03-0.099,0.04c-0.066,0.02-0.126,0.043-0.185,0.075c-0.057,0.031-0.107,0.065-0.156,0.105
		c-0.05,0.041-0.093,0.083-0.134,0.133c-0.041,0.05-0.075,0.101-0.106,0.157c-0.03,0.055-0.054,0.111-0.074,0.172
		C11.04,26.763,11.029,26.827,11.021,26.895z M36.699,10.909c0.275-1.964,1.976-3.445,3.954-3.445c0.186,0,0.373,0.013,0.562,0.04
		c1.059,0.148,1.996,0.7,2.639,1.552c0.644,0.853,0.917,1.905,0.769,2.963c-0.302,2.148-2.308,3.717-4.518,3.408
		C37.922,15.119,36.394,13.093,36.699,10.909z M18.245,54.884L15.454,40h20.198L33.13,58H22C20.281,58,18.562,56.573,18.245,54.884z
		 M41.755,54.884C41.438,56.573,39.719,58,38,58h-2.85l2.522-18h6.874L41.755,54.884z M46.796,28l-1.875,10h-6.968l1.401-10H46.796z
		 M35.933,38H15.079l-1.875-10h24.13L35.933,38z"/>
</g>
</svg>
