<?xml version="1.0" encoding="utf-8"?>
<!-- Generator: Adobe Illustrator 17.0.0, SVG Export Plug-In . SVG Version: 6.00 Build 0)  -->
<!DOCTYPE svg PUBLIC "-//W3C//DTD SVG 1.1//EN" "http://www.w3.org/Graphics/SVG/1.1/DTD/svg11.dtd">
<svg version="1.1" id="Layer_1" xmlns="http://www.w3.org/2000/svg" xmlns:xlink="http://www.w3.org/1999/xlink" x="0px" y="0px"
	 width="60px" height="60px" viewBox="0 0 60 60" enable-background="new 0 0 60 60" xml:space="preserve">
<g>
	<path fill="#010101" d="M51,4c-4.963,0-9,4.038-9,9c0,0.33,0.027,0.665,0.066,1H19.414l-10-10H0v2h8.586l8,8H11
		c-0.404,0-0.77,0.244-0.924,0.617c-0.155,0.374-0.069,0.804,0.217,1.09L30,35.414V58h-9c-0.553,0-1,0.448-1,1s0.447,1,1,1h20
		c0.553,0,1-0.448,1-1s-0.447-1-1-1h-9V35.414l14.597-14.597C47.942,21.579,49.442,22,51,22c4.963,0,9-4.038,9-9S55.963,4,51,4z
		 M48.586,16L31,33.586L13.414,16H48.586z M51,20c-1.022,0-2.015-0.231-2.93-0.656l3.637-3.637c0.286-0.286,0.372-0.716,0.217-1.09
		C51.77,14.244,51.404,14,51,14h-6.916C44.033,13.663,44,13.328,44,13c0-3.86,3.141-7,7-7s7,3.14,7,7S54.859,20,51,20z"/>
</g>
</svg>
