<?xml version="1.0" encoding="utf-8"?>
<!-- Generator: Adobe Illustrator 17.0.0, SVG Export Plug-In . SVG Version: 6.00 Build 0)  -->
<!DOCTYPE svg PUBLIC "-//W3C//DTD SVG 1.1//EN" "http://www.w3.org/Graphics/SVG/1.1/DTD/svg11.dtd">
<svg version="1.1" id="Layer_1" xmlns="http://www.w3.org/2000/svg" xmlns:xlink="http://www.w3.org/1999/xlink" x="0px" y="0px"
	 width="60px" height="60px" viewBox="0 0 60 60" enable-background="new 0 0 60 60" xml:space="preserve">
<g>
	<path fill="#010101" d="M9,14c-0.553,0-1,0.448-1,1v28c0,0.552,0.447,1,1,1s1-0.448,1-1V15C10,14.448,9.553,14,9,14z"/>
	<path fill="#010101" d="M60,28.001c0-9.036-7.092-16.427-16-16.949V7c0-0.552-0.447-1-1-1H1C0.447,6,0,6.448,0,7v40
		c0,4.962,4.037,9,9,9h26c4.963,0,9-4.038,9-9v-2.05C52.908,44.428,60,37.037,60,28.001z M44,19.059c4.493,0.5,8,4.317,8,8.941
		s-3.507,8.442-8,8.941V19.059z M42,47c0,3.86-3.141,7-7,7H9c-3.859,0-7-3.14-7-7V8h40V47z M44,42.95v-4.001
		C49.598,38.442,54,33.728,54,28s-4.402-10.442-10-10.949v-3.999c7.805,0.518,14,7.016,14,14.949S51.805,42.432,44,42.95z"/>
</g>
</svg>
