<?xml version="1.0" encoding="utf-8"?>
<!-- Generator: Adobe Illustrator 17.0.0, SVG Export Plug-In . SVG Version: 6.00 Build 0)  -->
<!DOCTYPE svg PUBLIC "-//W3C//DTD SVG 1.1//EN" "http://www.w3.org/Graphics/SVG/1.1/DTD/svg11.dtd">
<svg version="1.1" id="Layer_1" xmlns="http://www.w3.org/2000/svg" xmlns:xlink="http://www.w3.org/1999/xlink" x="0px" y="0px"
	 width="60px" height="60px" viewBox="0 0 60 60" enable-background="new 0 0 60 60" xml:space="preserve">
<g>
	<path fill="#010101" d="M4.12,51.474C4.294,51.798,4.632,52,5,52h42c0.368,0,0.706-0.202,0.88-0.526
		c1.808-3.359,2.929-7.599,3.088-11.527c2.352-0.251,4.399-1.416,5.834-3.349c1.821-2.446,2.517-5.762,1.957-9.337
		c-0.786-5.022-3.919-10.032-8.178-13.074C50.412,14.065,50.208,14,50,14h-7.583l4.291-4.293c0.39-0.391,0.39-1.024,0-1.414
		c-0.391-0.391-1.024-0.391-1.415,0L39.588,14H10c-0.552,0-1,0.448-1,1s0.448,1,1,1h29.985c0.005,0,0.01,0.003,0.015,0.003
		S40.01,16,40.015,16h9.659c3.706,2.755,6.419,7.16,7.109,11.569c0.336,2.15,0.334,5.255-1.586,7.834
		c-1.063,1.431-2.51,2.286-4.218,2.522c-0.211-8.04-2.816-13.542-8.378-17.725C42.428,20.07,42.217,20,42,20H4
		c-0.379,0-0.725,0.214-0.895,0.553C2.936,20.891,2.973,21.297,3.2,21.6l2.559,3.414C2.6,29.484,1,34.186,1,39
		C1,43.182,2.166,47.845,4.12,51.474z M46.392,50H5.608C3.992,46.766,3,42.61,3,39c0-2.361,0.434-4.698,1.282-6.997h43.937
		C48.742,34.084,49,36.398,49,39C49,42.609,48.008,46.765,46.392,50z M7.8,24.403L5.999,22h35.663
		c2.82,2.187,4.77,4.786,5.948,8.003H5.139c0.715-1.488,1.593-2.959,2.664-4.404C8.067,25.243,8.065,24.757,7.8,24.403z"/>
</g>
</svg>
