<?xml version="1.0" encoding="utf-8"?>
<!-- Generator: Adobe Illustrator 17.0.0, SVG Export Plug-In . SVG Version: 6.00 Build 0)  -->
<!DOCTYPE svg PUBLIC "-//W3C//DTD SVG 1.1//EN" "http://www.w3.org/Graphics/SVG/1.1/DTD/svg11.dtd">
<svg version="1.1" id="Layer_1" xmlns="http://www.w3.org/2000/svg" xmlns:xlink="http://www.w3.org/1999/xlink" x="0px" y="0px"
	 width="60px" height="60px" viewBox="0 0 60 60" enable-background="new 0 0 60 60" xml:space="preserve">
<g>
	<path fill="#010101" d="M46,34h5c4.962,0,9-4.486,9-10s-4.038-10-9-10h-5v-1c0-0.552-0.448-1-1-1H7c-0.552,0-1,0.448-1,1v21
		c0,7.923,4.643,14.764,11.34,18H1c-0.552,0-1,0.448-1,1s0.448,1,1,1h58c0.552,0,1-0.448,1-1s-0.448-1-1-1H34.66
		C41.357,48.764,46,41.923,46,34z M51,16c4.324,0,7,4.153,7,8s-2.676,8-7,8h-5V16H51z M26,52c-9.925,0-18-8.075-18-18V14h36v20
		C44,43.925,35.925,52,26,52z"/>
</g>
</svg>
