<?xml version="1.0" encoding="utf-8"?>
<!-- Generator: Adobe Illustrator 17.0.0, SVG Export Plug-In . SVG Version: 6.00 Build 0)  -->
<!DOCTYPE svg PUBLIC "-//W3C//DTD SVG 1.1//EN" "http://www.w3.org/Graphics/SVG/1.1/DTD/svg11.dtd">
<svg version="1.1" id="Layer_1" xmlns="http://www.w3.org/2000/svg" xmlns:xlink="http://www.w3.org/1999/xlink" x="0px" y="0px"
	 width="60px" height="60px" viewBox="0 0 60 60" enable-background="new 0 0 60 60" xml:space="preserve">
<g>
	<path fill="#010101" d="M54,0H9C8.448,0,8,0.448,8,1v25.999c0,0.552,0.448,1,1,1h3v6h-1c-0.552,0-1,0.448-1,1v1H1
		c-0.552,0-1,0.448-1,1s0.448,1,1,1h9v3c0,0.552,0.448,1,1,1h4v1c0,0.552,0.448,1,1,1s1-0.448,1-1v-1h4c0.552,0,1-0.448,1-1v-6
		c0-0.552-0.448-1-1-1h-1v-6h6v22H1c-0.552,0-1,0.448-1,1v8c0,0.552,0.448,1,1,1h58c0.552,0,1-0.448,1-1V6C60,2.467,57.533,0,54,0z
		 M20,39.999h-8v-4h8V39.999z M18,33.999h-4v-6h4V33.999z M2,51.999h25c0.552,0,1-0.448,1-1v-24c0-0.552-0.448-1-1-1H10V2h44
		c2.43,0,4,1.57,4,4v3.999H45c-0.552,0-1,0.448-1,1s0.448,1,1,1h13v4H45c-0.552,0-1,0.448-1,1s0.448,1,1,1h13v4H45
		c-0.552,0-1,0.448-1,1s0.448,1,1,1h13v6H47c-0.552,0-1,0.448-1,1v27H2V51.999z M48,57.999v-26h10v26H48z"/>
	<path fill="#010101" d="M17,3.999c-2.757,0-5,2.243-5,5s2.243,5,5,5s5-2.243,5-5S19.757,3.999,17,3.999z M17,11.999
		c-1.654,0-3-1.346-3-3s1.346-3,3-3s3,1.346,3,3S18.654,11.999,17,11.999z"/>
</g>
</svg>
