<?xml version="1.0" encoding="utf-8"?>
<!-- Generator: Adobe Illustrator 17.0.0, SVG Export Plug-In . SVG Version: 6.00 Build 0)  -->
<!DOCTYPE svg PUBLIC "-//W3C//DTD SVG 1.1//EN" "http://www.w3.org/Graphics/SVG/1.1/DTD/svg11.dtd">
<svg version="1.1" id="Layer_1" xmlns="http://www.w3.org/2000/svg" xmlns:xlink="http://www.w3.org/1999/xlink" x="0px" y="0px"
	 width="60px" height="60px" viewBox="0 0 60 60" enable-background="new 0 0 60 60" xml:space="preserve">
<g>
	<path fill="#010101" d="M59,42l-2,0c0,0,0,0,0,0l-2.025,0c-0.478-12.063-9.538-21.956-21.232-23.719C34.515,17.4,35,16.261,35,15
		c0-2.757-2.243-5-5-5s-5,2.243-5,5c0,1.261,0.485,2.4,1.257,3.281C14.563,20.044,5.502,29.938,5.025,42.001l-4.025,0
		c-0.552,0-1,0.448-1,1s0.448,1,1,1h1.564l5.269,5.679C8.021,49.884,8.287,50,8.565,50H51c0.265,0,0.52-0.105,0.707-0.293L57.414,44
		H59c0.552,0,1-0.448,1-1S59.552,42,59,42z M27,15c0-1.654,1.346-3,3-3s3,1.346,3,3s-1.346,3-3,3S27,16.654,27,15z M30,20
		c12.347,0,22.449,9.78,22.975,22L30,42l-22.975,0C7.551,29.781,17.653,20,30,20z M50.586,48H9.002l-3.71-3.999l24.3,0l24.994,0
		L50.586,48z"/>
	<path fill="#010101" d="M30,26c0.552,0,1-0.448,1-1s-0.448-1-1-1c-6.355,0-12.262,3.157-15.801,8.444
		c-0.307,0.459-0.184,1.08,0.275,1.387C14.645,33.945,14.838,34,15.029,34c0.323,0,0.639-0.156,0.832-0.444
		C19.028,28.825,24.313,26,30,26z"/>
</g>
</svg>
