<?xml version="1.0" encoding="utf-8"?>
<!-- Generator: Adobe Illustrator 17.0.0, SVG Export Plug-In . SVG Version: 6.00 Build 0)  -->
<!DOCTYPE svg PUBLIC "-//W3C//DTD SVG 1.1//EN" "http://www.w3.org/Graphics/SVG/1.1/DTD/svg11.dtd">
<svg version="1.1" id="Layer_1" xmlns="http://www.w3.org/2000/svg" xmlns:xlink="http://www.w3.org/1999/xlink" x="0px" y="0px"
	 width="60px" height="60px" viewBox="0 0 60 60" enable-background="new 0 0 60 60" xml:space="preserve">
<g>
	<path fill="#010101" d="M30,16.001V1c0-0.552-0.448-1-1-1s-1,0.448-1,1v15.001c0,0.552,0.448,1,1,1S30,16.553,30,16.001z"/>
	<path fill="#010101" d="M34.023,15.786c-0.057,0.259-0.009,0.53,0.134,0.753c0.143,0.224,0.369,0.381,0.628,0.438
		c1.394,0.306,2.795,0.46,4.167,0.46c8.314,0,15.156-5.715,17.024-14.223c0.057-0.259,0.009-0.53-0.134-0.753
		s-0.369-0.381-0.628-0.438c-1.393-0.306-2.795-0.46-4.167-0.46C42.731,1.563,35.889,7.279,34.023,15.786z M51.048,3.563
		c0.898,0,1.812,0.074,2.728,0.222c-1.965,7.114-7.686,11.652-14.824,11.652c-0.898,0-1.812-0.074-2.729-0.222
		C38.187,8.101,43.907,3.563,51.048,3.563z"/>
	<path fill="#010101" d="M19.048,17.437c1.372,0,2.773-0.155,4.167-0.46c0.259-0.057,0.485-0.214,0.628-0.438
		c0.143-0.223,0.191-0.494,0.134-0.753C22.111,7.279,15.269,1.563,6.952,1.563c-1.372,0-2.773,0.155-4.167,0.46
		C2.527,2.08,2.301,2.237,2.158,2.461S1.966,2.956,2.023,3.214C3.892,11.722,10.734,17.437,19.048,17.437z M6.952,3.563
		c7.141,0,12.861,4.538,14.824,11.652c-0.917,0.147-1.831,0.222-2.729,0.222c-7.138,0-12.858-4.539-14.824-11.652
		C5.141,3.637,6.054,3.563,6.952,3.563z"/>
	<path fill="#010101" d="M23,26c0,3.309,2.691,6,6,6s6-2.691,6-6s-2.691-6-6-6S23,22.691,23,26z M29,22c2.206,0,4,1.794,4,4
		s-1.794,4-4,4s-4-1.794-4-4S26.794,22,29,22z"/>
	<path fill="#010101" d="M29,60c3.309,0,6-2.691,6-6s-2.691-6-6-6s-6,2.691-6,6S25.691,60,29,60z M29,50c2.206,0,4,1.794,4,4
		s-1.794,4-4,4s-4-1.794-4-4S26.794,50,29,50z"/>
	<path fill="#010101" d="M50,28c0-3.309-2.691-6-6-6s-6,2.691-6,6s2.691,6,6,6S50,31.309,50,28z M40,28c0-2.206,1.794-4,4-4
		s4,1.794,4,4s-1.794,4-4,4S40,30.206,40,28z"/>
	<path fill="#010101" d="M20,28c0-3.309-2.691-6-6-6s-6,2.691-6,6s2.691,6,6,6S20,31.309,20,28z M14,32c-2.206,0-4-1.794-4-4
		s1.794-4,4-4s4,1.794,4,4S16.206,32,14,32z"/>
	<path fill="#010101" d="M22,46c3.309,0,6-2.691,6-6s-2.691-6-6-6s-6,2.691-6,6S18.691,46,22,46z M22,36c2.206,0,4,1.794,4,4
		s-1.794,4-4,4s-4-1.794-4-4S19.794,36,22,36z"/>
	<path fill="#010101" d="M42,40c0-3.309-2.691-6-6-6s-6,2.691-6,6s2.691,6,6,6S42,43.309,42,40z M32,40c0-2.206,1.794-4,4-4
		s4,1.794,4,4s-1.794,4-4,4S32,42.206,32,40z"/>
</g>
</svg>
