<?xml version="1.0" encoding="utf-8"?>
<!-- Generator: Adobe Illustrator 17.0.0, SVG Export Plug-In . SVG Version: 6.00 Build 0)  -->
<!DOCTYPE svg PUBLIC "-//W3C//DTD SVG 1.1//EN" "http://www.w3.org/Graphics/SVG/1.1/DTD/svg11.dtd">
<svg version="1.1" id="Layer_1" xmlns="http://www.w3.org/2000/svg" xmlns:xlink="http://www.w3.org/1999/xlink" x="0px" y="0px"
	 width="60px" height="60px" viewBox="0 0 60 60" enable-background="new 0 0 60 60" xml:space="preserve">
<g>
	<circle fill="#010101" cx="18" cy="18" r="2"/>
	<circle fill="#010101" cx="26" cy="18" r="2"/>
	<circle fill="#010101" cx="34" cy="18" r="2"/>
	<circle fill="#010101" cx="42" cy="18" r="2"/>
	<circle fill="#010101" cx="18" cy="34" r="2"/>
	<circle fill="#010101" cx="26" cy="34" r="2"/>
	<circle fill="#010101" cx="34" cy="34" r="2"/>
	<circle fill="#010101" cx="42" cy="34" r="2"/>
	<circle fill="#010101" cx="18" cy="50" r="2"/>
	<circle fill="#010101" cx="26" cy="50" r="2"/>
	<circle fill="#010101" cx="34" cy="50" r="2"/>
	<circle fill="#010101" cx="42" cy="50" r="2"/>
	<circle fill="#010101" cx="22" cy="26" r="2"/>
	<circle fill="#010101" cx="30" cy="26" r="2"/>
	<circle fill="#010101" cx="38" cy="26" r="2"/>
	<circle fill="#010101" cx="22" cy="42" r="2"/>
	<circle fill="#010101" cx="30" cy="42" r="2"/>
	<circle fill="#010101" cx="38" cy="42" r="2"/>
	<path fill="#010101" d="M48.998,10.953C48.973,4.807,44.153,0,38,0H22c-6.153,0-10.973,4.807-10.998,10.953
		c0,0.002-0.001,0.003-0.001,0.005L9.167,54.962c-0.056,1.337,0.418,2.601,1.334,3.556S12.661,60,14,60h32
		c1.339,0,2.582-0.526,3.498-1.482s1.391-2.219,1.334-3.556l-1.833-44.003C48.999,10.957,48.998,10.955,48.998,10.953z M22,2h16
		c4.708,0,8.465,3.44,8.947,8H13.053C13.535,5.44,17.292,2,22,2z M48.055,57.134C47.519,57.692,46.789,58,46,58H14
		c-0.789,0-1.519-0.308-2.055-0.866s-0.812-1.3-0.78-2.089L12.959,12h34.082l1.794,43.045C48.867,55.833,48.59,56.575,48.055,57.134
		z"/>
</g>
</svg>
