<?xml version="1.0" encoding="utf-8"?>
<!-- Generator: Adobe Illustrator 17.0.0, SVG Export Plug-In . SVG Version: 6.00 Build 0)  -->
<!DOCTYPE svg PUBLIC "-//W3C//DTD SVG 1.1//EN" "http://www.w3.org/Graphics/SVG/1.1/DTD/svg11.dtd">
<svg version="1.1" id="Layer_1" xmlns="http://www.w3.org/2000/svg" xmlns:xlink="http://www.w3.org/1999/xlink" x="0px" y="0px"
	 width="60px" height="60px" viewBox="0 0 60 60" enable-background="new 0 0 60 60" xml:space="preserve">
<g>
	<path fill="#010101" d="M40,2.041V1c0-0.552-0.447-1-1-1s-1,0.448-1,1v2v25H9c-0.553,0-1,0.448-1,1
		c0,7.088,3.495,12.76,8.903,15.394l-0.834,4.169c-0.066,0.133-0.111,0.278-0.111,0.437c0,0.021,0.011,0.038,0.012,0.058
		l-1.95,9.745c-0.108,0.542,0.243,1.068,0.784,1.177C14.87,59.994,14.936,60,15.001,60c0.467,0,0.885-0.329,0.979-0.804L17.821,50
		H30.72l0.043,0.174C28.606,50.728,27,52.672,27,55c0,2.757,2.243,5,5,5s5-2.243,5-5c0-2.483-1.824-4.533-4.199-4.919l-0.247-0.986
		c0.003-0.033,0.019-0.061,0.019-0.095c0-0.201-0.074-0.378-0.176-0.534l-1.048-4.194c5.019-2.56,8.313-7.782,8.61-14.311
		C48.271,29.556,54,23.939,54,16C54,8.074,48.29,2.462,40,2.041z M35,55c0,1.654-1.346,3-3,3s-3-1.346-3-3s1.346-3,3-3
		S35,53.346,35,55z M30.22,48H18.221l0.567-2.832C20.404,45.703,22.148,46,24,46c1.959,0,3.794-0.336,5.487-0.932L30.22,48z M24,44
		c-7.798,0-13.54-5.829-13.974-14h27.947C37.54,38.171,31.798,44,24,44z M40,27.973V4.027C47.22,4.424,52,9.135,52,16
		S47.22,27.576,40,27.973z"/>
	<path fill="#010101" d="M35,24c0.553,0,1-0.448,1-1s-0.447-1-1-1H11c-0.553,0-1,0.448-1,1s0.447,1,1,1H35z"/>
</g>
</svg>
