<?xml version="1.0" encoding="utf-8"?>
<!-- Generator: Adobe Illustrator 17.0.0, SVG Export Plug-In . SVG Version: 6.00 Build 0)  -->
<!DOCTYPE svg PUBLIC "-//W3C//DTD SVG 1.1//EN" "http://www.w3.org/Graphics/SVG/1.1/DTD/svg11.dtd">
<svg version="1.1" id="Layer_1" xmlns="http://www.w3.org/2000/svg" xmlns:xlink="http://www.w3.org/1999/xlink" x="0px" y="0px"
	 width="60px" height="60px" viewBox="0 0 60 60" enable-background="new 0 0 60 60" xml:space="preserve">
<g>
	<path fill="#010101" d="M52,9c0-0.552-0.448-1-1-1h-2.446l-4.706-7.53C43.665,0.178,43.345,0,43,0H17
		c-0.345,0-0.665,0.178-0.848,0.47L11.446,8H9C8.448,8,8,8.448,8,9v12c0,0.552,0.448,1,1,1h2.076l2.927,37.079
		C14.044,59.599,14.478,60,15,60h30c0.522,0,0.956-0.401,0.997-0.921L48.924,22H51c0.552,0,1-0.448,1-1V9z M17.554,2h24.892l3.75,6
		H13.804L17.554,2z M13.714,30h32.573l-1.105,14H14.819L13.714,30z M44.076,58H15.924l-0.947-12h30.046L44.076,58z M46.444,28
		H13.556l-0.474-6h33.836L46.444,28z M50,20h-2H12h-2V10h2h36h0.02H50V20z"/>
	<path fill="#010101" d="M37,36H23c-0.552,0-1,0.448-1,1s0.448,1,1,1h14c0.552,0,1-0.448,1-1S37.552,36,37,36z"/>
</g>
</svg>
