<?xml version="1.0" encoding="utf-8"?>
<!-- Generator: Adobe Illustrator 17.0.0, SVG Export Plug-In . SVG Version: 6.00 Build 0)  -->
<!DOCTYPE svg PUBLIC "-//W3C//DTD SVG 1.1//EN" "http://www.w3.org/Graphics/SVG/1.1/DTD/svg11.dtd">
<svg version="1.1" id="Layer_1" xmlns="http://www.w3.org/2000/svg" xmlns:xlink="http://www.w3.org/1999/xlink" x="0px" y="0px"
	 width="60px" height="60px" viewBox="0 0 60 60" enable-background="new 0 0 60 60" xml:space="preserve">
<g>
	<path fill="#010101" d="M12,13v8c0,0.552,0.448,1,1,1h2.076l2.927,37.079C18.044,59.599,18.478,60,19,60h24
		c0.522,0,0.956-0.401,0.997-0.921L46.924,22H49c0.552,0,1-0.448,1-1v-8c0-0.552-0.448-1-1-1H17.618L11.895,0.553l-1.789,0.895
		L15.382,12H13C12.448,12,12,12.448,12,13z M17.878,32.083c1.243,0.183,2.392,0.726,3.299,1.609C22.336,34.818,23,36.389,23,38
		c0,2.651-1.748,4.945-4.203,5.715L17.878,32.083z M42.076,58H19.924l-0.967-12.255C22.46,44.862,25,41.69,25,38
		c0-2.148-0.885-4.241-2.428-5.742c-1.324-1.288-3.021-2.062-4.855-2.217L17.082,22h27.836L42.076,58z M14,14h34v6H14V14z"/>
</g>
</svg>
