<?xml version="1.0" encoding="utf-8"?>
<!-- Generator: Adobe Illustrator 17.0.0, SVG Export Plug-In . SVG Version: 6.00 Build 0)  -->
<!DOCTYPE svg PUBLIC "-//W3C//DTD SVG 1.1//EN" "http://www.w3.org/Graphics/SVG/1.1/DTD/svg11.dtd">
<svg version="1.1" id="Layer_1" xmlns="http://www.w3.org/2000/svg" xmlns:xlink="http://www.w3.org/1999/xlink" x="0px" y="0px"
	 width="60px" height="60px" viewBox="0 0 60 60" enable-background="new 0 0 60 60" xml:space="preserve">
<g>
	<path fill="#010101" d="M29,60c0.552,0,1-0.448,1-1V44h11c0.552,0,1-0.448,1-1V12c0-6.617-5.832-12-13-12S16,5.383,16,12v31
		c0,0.552,0.448,1,1,1h11v15C28,59.552,28.448,60,29,60z M18,12c0-5.42,5.038-10,11-10s11,4.58,11,10v30H18V12z"/>
	<path fill="#010101" d="M30,19v10c0,3.551,1.449,5,5,5c0.552,0,1-0.448,1-1s-0.448-1-1-1c-2.439,0-3-0.561-3-3V19
		c0-1.542-1.458-3-3-3s-3,1.458-3,3c0,0.449-0.551,1-1,1s-1-0.551-1-1v-6c0-0.552-0.448-1-1-1s-1,0.448-1,1v6c0,1.542,1.458,3,3,3
		s3-1.458,3-3c0-0.449,0.551-1,1-1S30,18.551,30,19z"/>
</g>
</svg>
