<?xml version="1.0" encoding="utf-8"?>
<!-- Generator: Adobe Illustrator 17.0.0, SVG Export Plug-In . SVG Version: 6.00 Build 0)  -->
<!DOCTYPE svg PUBLIC "-//W3C//DTD SVG 1.1//EN" "http://www.w3.org/Graphics/SVG/1.1/DTD/svg11.dtd">
<svg version="1.1" id="Layer_1" xmlns="http://www.w3.org/2000/svg" xmlns:xlink="http://www.w3.org/1999/xlink" x="0px" y="0px"
	 width="60px" height="60px" viewBox="0 0 60 60" enable-background="new 0 0 60 60" xml:space="preserve">
<g>
	<path fill="#010101" d="M52,31c0-0.552-0.448-1-1-1h-1.059c-0.5-4.493-4.317-8-8.941-8c-0.355,0-0.704,0.026-1.049,0.066
		c-0.36-3.479-2.714-6.366-5.893-7.52C34.637,13.853,35,12.972,35,12c0-1.684-1.05-3.122-2.526-3.711l1.421-2.842
		c0.247-0.494,0.047-1.095-0.447-1.342c-0.496-0.247-1.094-0.046-1.342,0.447l-1.757,3.513C28.454,8.379,27,10.017,27,12
		c0,0.972,0.363,1.853,0.941,2.547c-3.179,1.154-5.532,4.041-5.893,7.52C21.704,22.026,21.355,22,21,22
		c-0.412,0-0.815,0.038-1.213,0.091L13.965,0.737c-0.146-0.533-0.695-0.847-1.228-0.702S11.89,0.73,12.035,1.263l5.813,21.318
		c-3.111,1.169-5.409,4.005-5.789,7.419H11c-0.552,0-1,0.448-1,1c0,11.243,8.886,20.425,20,20.952V58h-7c-0.552,0-1,0.448-1,1
		s0.448,1,1,1h16c0.552,0,1-0.448,1-1s-0.448-1-1-1h-7v-6.048C43.114,51.425,52,42.243,52,31z M47.92,30H34.08
		c0.488-3.387,3.401-6,6.92-6S47.432,26.613,47.92,30z M29,12c0-1.103,0.897-2,2-2s2,0.897,2,2s-0.897,2-2,2S29,13.103,29,12z
		 M31,16c3.703,0,6.735,2.891,6.976,6.534c-3.176,1.138-5.533,4.005-5.917,7.466h-2.118c-0.385-3.461-2.742-6.328-5.917-7.466
		C24.265,18.891,27.297,16,31,16z M21,24c3.519,0,6.432,2.613,6.92,6H14.08C14.568,26.613,17.481,24,21,24z M12.026,32h37.948
		c-0.521,10.012-8.826,17.996-18.962,18.002C31.008,50.002,31.004,50,31,50s-0.008,0.002-0.012,0.002
		C20.852,49.996,12.547,42.012,12.026,32z"/>
</g>
</svg>
