<?xml version="1.0" encoding="utf-8"?>
<!-- Generator: Adobe Illustrator 17.0.0, SVG Export Plug-In . SVG Version: 6.00 Build 0)  -->
<!DOCTYPE svg PUBLIC "-//W3C//DTD SVG 1.1//EN" "http://www.w3.org/Graphics/SVG/1.1/DTD/svg11.dtd">
<svg version="1.1" id="Layer_1" xmlns="http://www.w3.org/2000/svg" xmlns:xlink="http://www.w3.org/1999/xlink" x="0px" y="0px"
	 width="60px" height="60px" viewBox="0 0 60 60" enable-background="new 0 0 60 60" xml:space="preserve">
<g>
	<path fill="#010101" d="M54,26h-3H39.953C39.467,16.572,32.319,8,29,8s-10.467,8.572-10.953,18H1c-0.338,0-0.654,0.171-0.838,0.455
		s-0.213,0.642-0.075,0.951L8,45.212V48c0,3.364,2.636,6,6,6h32c3.364,0,6-2.636,6-6V28h2c2.243,0,4,1.757,4,4v17
		c0,0.552,0.448,1,1,1s1-0.448,1-1V32C60,28.636,57.364,26,54,26z M37.953,26H30V10.422C32.499,12.054,37.535,18.36,37.953,26z
		 M28,10.422V26h-7.953C20.465,18.36,25.501,12.054,28,10.422z M50,48c0,2.243-1.757,4-4,4H14c-2.243,0-4-1.757-4-4v-3
		c0-0.14-0.029-0.278-0.086-0.406L2.539,28H50V48z"/>
</g>
</svg>
