<?xml version="1.0" encoding="utf-8"?>
<!-- Generator: Adobe Illustrator 17.0.0, SVG Export Plug-In . SVG Version: 6.00 Build 0)  -->
<!DOCTYPE svg PUBLIC "-//W3C//DTD SVG 1.1//EN" "http://www.w3.org/Graphics/SVG/1.1/DTD/svg11.dtd">
<svg version="1.1" id="Layer_1" xmlns="http://www.w3.org/2000/svg" xmlns:xlink="http://www.w3.org/1999/xlink" x="0px" y="0px"
	 width="60px" height="60px" viewBox="0 0 60 60" enable-background="new 0 0 60 60" xml:space="preserve">
<g>
	<path fill="#010101" d="M28.996,0C15.994,0,2,9.388,2,30c0,11.408,6.782,28.641,7.07,29.369C9.222,59.75,9.59,60,10,60h38
		c0.41,0,0.778-0.25,0.93-0.631C49.218,58.641,56,41.408,56,30C56,9.388,42.002,0,28.996,0z M47.313,58H10.687
		C9.458,54.764,4,39.837,4,30C4,10.762,16.958,2,28.996,2C41.039,2,54,10.762,54,30C54,39.832,48.542,54.763,47.313,58z"/>
	<path fill="#010101" d="M41,52H17c-0.552,0-1,0.448-1,1s0.448,1,1,1h24c0.552,0,1-0.448,1-1S41.552,52,41,52z"/>
	<path fill="#010101" d="M29,40c7.168,0,13-5.832,13-13s-5.832-13-13-13s-13,5.832-13,13S21.832,40,29,40z M28,16.051V23
		c0,0.552,0.448,1,1,1s1-0.448,1-1v-6.949C35.598,16.558,40,21.272,40,27c0,6.065-4.935,11-11,11s-11-4.935-11-11
		C18,21.272,22.402,16.558,28,16.051z"/>
	<path fill="#010101" d="M29,12c0.552,0,1-0.448,1-1V7c0-0.552-0.448-1-1-1s-1,0.448-1,1v4C28,11.552,28.448,12,29,12z"/>
	<path fill="#010101" d="M16.293,15.707C16.488,15.902,16.744,16,17,16s0.512-0.098,0.707-0.293c0.391-0.391,0.391-1.023,0-1.414
		l-2-2c-0.391-0.391-1.023-0.391-1.414,0s-0.391,1.023,0,1.414L16.293,15.707z"/>
	<path fill="#010101" d="M17.707,38.293c-0.391-0.391-1.023-0.391-1.414,0l-2,2c-0.391,0.391-0.391,1.023,0,1.414
		C14.488,41.902,14.744,42,15,42s0.512-0.098,0.707-0.293l2-2C18.098,39.316,18.098,38.684,17.707,38.293z"/>
	<path fill="#010101" d="M41.707,38.293c-0.391-0.391-1.023-0.391-1.414,0s-0.391,1.023,0,1.414l2,2C42.488,41.902,42.744,42,43,42
		s0.512-0.098,0.707-0.293c0.391-0.391,0.391-1.023,0-1.414L41.707,38.293z"/>
	<path fill="#010101" d="M41,16c0.256,0,0.512-0.098,0.707-0.293l2-2c0.391-0.391,0.391-1.023,0-1.414s-1.023-0.391-1.414,0l-2,2
		c-0.391,0.391-0.391,1.023,0,1.414C40.488,15.902,40.744,16,41,16z"/>
	<path fill="#010101" d="M13,26H9c-0.552,0-1,0.448-1,1s0.448,1,1,1h4c0.552,0,1-0.448,1-1S13.552,26,13,26z"/>
	<path fill="#010101" d="M28,43v4c0,0.552,0.448,1,1,1s1-0.448,1-1v-4c0-0.552-0.448-1-1-1S28,42.448,28,43z"/>
	<path fill="#010101" d="M44,27c0,0.552,0.448,1,1,1h4c0.552,0,1-0.448,1-1s-0.448-1-1-1h-4C44.448,26,44,26.448,44,27z"/>
</g>
</svg>
