<?xml version="1.0" encoding="utf-8"?>
<!-- Generator: Adobe Illustrator 17.0.0, SVG Export Plug-In . SVG Version: 6.00 Build 0)  -->
<!DOCTYPE svg PUBLIC "-//W3C//DTD SVG 1.1//EN" "http://www.w3.org/Graphics/SVG/1.1/DTD/svg11.dtd">
<svg version="1.1" id="Layer_1" xmlns="http://www.w3.org/2000/svg" xmlns:xlink="http://www.w3.org/1999/xlink" x="0px" y="0px"
	 width="60px" height="60px" viewBox="0 0 60 60" enable-background="new 0 0 60 60" xml:space="preserve">
<g>
	<path fill="#010101" d="M48,14.586V7c0-3.86-3.14-7-7-7H19c-3.86,0-7,3.14-7,7v7.586L0.293,26.293C0.112,26.474,0,26.724,0,27v32
		c0,0.552,0.448,1,1,1h34h24c0.552,0,1-0.448,1-1V27c0-0.265-0.105-0.52-0.293-0.707L48,14.586z M3.414,26l10-10h31.172l-10,10
		H3.414z M47,16.414L56.586,26H37.414L47,16.414z M19,2h22c2.757,0,5,2.243,5,5v7H14V7C14,4.243,16.243,2,19,2z M2,28h32v30H2V28z
		 M36,58V28h22v30H36z"/>
	<path fill="#010101" d="M27,34H7c-0.552,0-1,0.448-1,1v10c0,0.552,0.448,1,1,1h20c0.552,0,1-0.448,1-1V35
		C28,34.448,27.552,34,27,34z M26,44H8v-8h18V44z"/>
</g>
</svg>
