<?xml version="1.0" encoding="utf-8"?>
<!-- Generator: Adobe Illustrator 17.0.0, SVG Export Plug-In . SVG Version: 6.00 Build 0)  -->
<!DOCTYPE svg PUBLIC "-//W3C//DTD SVG 1.1//EN" "http://www.w3.org/Graphics/SVG/1.1/DTD/svg11.dtd">
<svg version="1.1" id="Layer_1" xmlns="http://www.w3.org/2000/svg" xmlns:xlink="http://www.w3.org/1999/xlink" x="0px" y="0px"
	 width="60px" height="60px" viewBox="0 0 60 60" enable-background="new 0 0 60 60" xml:space="preserve">
<g>
	<path fill="#010101" d="M1,60h28c0.008,0,0.015,0,0.02,0c0.553,0,1-0.448,1-1c0-0.07-0.007-0.138-0.021-0.203
		C29.941,50.24,26.243,33,15,33C3.667,33,0,50.517,0,59C0,59.552,0.447,60,1,60z M5.134,43.506C6.832,39.626,9.921,35,15,35
		c8.567,0,12.714,13.366,12.985,23H2.016C2.141,53.995,3.007,48.368,5.134,43.506z"/>
	<path fill="#010101" d="M55,4h-9V2h2c0.553,0,1-0.448,1-1s-0.447-1-1-1h-6c-0.553,0-1,0.448-1,1s0.447,1,1,1h2v2h-9
		c-2.757,0-5,2.243-5,5c0,2.414,1.721,4.434,4,4.899V16c0,2.654,1.346,4,4,4v10.112c-2.221,0.492-4,2.564-4,4.888v24
		c0,0.552,0.447,1,1,1h20c0.553,0,1-0.448,1-1V35c0-2.323-1.779-4.396-4-4.888V20c2.654,0,4-1.346,4-4v-2.101
		c2.279-0.465,4-2.484,4-4.899C60,6.243,57.757,4,55,4z M54,35v23H36V35c0-1.542,1.458-3,3-3h12C52.542,32,54,33.458,54,35z M50,30
		H40V20h10V30z M54,16c0,1.533-0.468,2-2,2h-1H39h-1c-1.532,0-2-0.467-2-2v-2h18V16z M55,12H35c-1.654,0-3-1.346-3-3s1.346-3,3-3h20
		c1.654,0,3,1.346,3,3S56.654,12,55,12z"/>
	<circle fill="#010101" cx="13" cy="39" r="1"/>
	<circle fill="#010101" cx="17" cy="39" r="1"/>
</g>
</svg>
