<?xml version="1.0" encoding="utf-8"?>
<!-- Generator: Adobe Illustrator 17.0.0, SVG Export Plug-In . SVG Version: 6.00 Build 0)  -->
<!DOCTYPE svg PUBLIC "-//W3C//DTD SVG 1.1//EN" "http://www.w3.org/Graphics/SVG/1.1/DTD/svg11.dtd">
<svg version="1.1" id="Layer_1" xmlns="http://www.w3.org/2000/svg" xmlns:xlink="http://www.w3.org/1999/xlink" x="0px" y="0px"
	 width="60px" height="60px" viewBox="0 0 60 60" enable-background="new 0 0 60 60" xml:space="preserve">
<g>
	<path fill="#010101" d="M23,24c-2.206,0-4,1.794-4,4s1.794,4,4,4s4-1.794,4-4S25.206,24,23,24z M23,30c-1.103,0-2-0.897-2-2
		s0.897-2,2-2s2,0.897,2,2S24.103,30,23,30z"/>
	<path fill="#010101" d="M21,34c-2.206,0-4,1.794-4,4s1.794,4,4,4s4-1.794,4-4S23.206,34,21,34z M21,40c-1.103,0-2-0.897-2-2
		s0.897-2,2-2s2,0.897,2,2S22.103,40,21,40z"/>
	<path fill="#010101" d="M27,46c0,2.206,1.794,4,4,4s4-1.794,4-4s-1.794-4-4-4S27,43.794,27,46z M31,44c1.103,0,2,0.897,2,2
		s-0.897,2-2,2s-2-0.897-2-2S29.897,44,31,44z"/>
	<path fill="#010101" d="M39,42c2.206,0,4-1.794,4-4s-1.794-4-4-4s-4,1.794-4,4S36.794,42,39,42z M39,36c1.103,0,2,0.897,2,2
		s-0.897,2-2,2s-2-0.897-2-2S37.897,36,39,36z"/>
	<path fill="#010101" d="M46.971,17.029c-0.266,0-0.52,0.105-0.707,0.293L31,32.586V11c0-0.552-0.447-1-1-1C16.215,10,5,21.215,5,35
		s11.215,25,25,25s25-11.215,25-25c0-6.677-2.601-12.955-7.322-17.678C47.49,17.135,47.236,17.029,46.971,17.029z M39,28
		c0,1.103-0.897,2-2,2c-0.176,0-0.346-0.03-0.512-0.074l2.437-2.437C38.97,27.654,39,27.824,39,28z M30.707,35.707l4.272-4.272
		C35.587,31.794,36.275,32,37,32c2.206,0,4-1.794,4-4c0-0.725-0.206-1.413-0.565-2.021l2.258-2.258C45.467,26.835,47,30.795,47,35
		c0,9.374-7.626,17-17,17s-17-7.626-17-17c0-9.036,7.092-16.427,16-16.949V35c0,0.404,0.243,0.769,0.617,0.924
		C29.991,36.078,30.421,35.993,30.707,35.707z M30,58C17.317,58,7,47.682,7,35c0-12.347,9.78-22.453,22-22.979v4.029
		C18.989,16.576,11,24.861,11,35c0,10.477,8.523,19,19,19s19-8.523,19-19c0-4.739-1.743-9.2-4.893-12.693l2.849-2.849
		C50.861,23.711,53,29.192,53,35C53,47.682,42.683,58,30,58z"/>
	<path fill="#010101" d="M34,26c0.26,0,0.516-0.102,0.707-0.293l17-17C51.895,8.52,52,8.265,52,8s-0.105-0.52-0.293-0.707
		C47.003,2.59,40.715,0,34,0c-0.553,0-1,0.448-1,1v24c0,0.404,0.243,0.769,0.617,0.924C33.741,25.975,33.871,26,34,26z M35,8.049
		c3.84,0.22,7.428,1.699,10.293,4.244l-2.262,2.262C42.428,14.202,41.747,14,41.029,14c-2.206,0-4,1.794-4,4
		c0,0.717,0.202,1.398,0.554,2.002L35,22.586V8.049z M39.029,18c0-1.103,0.897-2,2-2c0.168,0,0.33,0.028,0.489,0.067l-2.422,2.422
		C39.057,18.33,39.029,18.168,39.029,18z M49.57,8.015l-2.863,2.863C43.462,7.959,39.374,6.273,35,6.049V2.021
		C40.467,2.25,45.575,4.352,49.57,8.015z"/>
</g>
</svg>
