<?xml version="1.0" encoding="utf-8"?>
<!-- Generator: Adobe Illustrator 17.0.0, SVG Export Plug-In . SVG Version: 6.00 Build 0)  -->
<!DOCTYPE svg PUBLIC "-//W3C//DTD SVG 1.1//EN" "http://www.w3.org/Graphics/SVG/1.1/DTD/svg11.dtd">
<svg version="1.1" id="Layer_1" xmlns="http://www.w3.org/2000/svg" xmlns:xlink="http://www.w3.org/1999/xlink" x="0px" y="0px"
	 width="60px" height="60px" viewBox="0 0 60 60" enable-background="new 0 0 60 60" xml:space="preserve">
<g>
	<path fill="#010101" d="M40.414,14H41c0.552,0,1-0.448,1-1s-0.448-1-1-1h-3H27.414l-3.707-3.707c-0.391-0.391-1.023-0.391-1.414,0
		s-0.391,1.023,0,1.414L24.586,12H22h-3c-0.552,0-1,0.448-1,1s0.448,1,1,1h0.586l-5.293,5.293C14.105,19.48,14,19.735,14,20v35.001
		c0,0.265,0.105,0.52,0.293,0.707l4,3.999C18.48,59.895,18.735,60,19,60h22c0.265,0,0.52-0.105,0.707-0.293l4-4
		C45.895,55.52,46,55.265,46,55V20c0-0.265-0.105-0.52-0.293-0.707L40.414,14z M44,54.586L40.586,58H19.414L16,54.587V20.414
		L22.414,14h15.172L44,20.414V54.586z"/>
	<circle fill="#010101" cx="35" cy="9" r="1"/>
	<circle fill="#010101" cx="37" cy="3" r="1"/>
	<circle fill="#010101" cx="31" cy="1" r="1"/>
</g>
</svg>
