<?xml version="1.0" encoding="utf-8"?>
<!-- Generator: Adobe Illustrator 17.0.0, SVG Export Plug-In . SVG Version: 6.00 Build 0)  -->
<!DOCTYPE svg PUBLIC "-//W3C//DTD SVG 1.1//EN" "http://www.w3.org/Graphics/SVG/1.1/DTD/svg11.dtd">
<svg version="1.1" id="Layer_1" xmlns="http://www.w3.org/2000/svg" xmlns:xlink="http://www.w3.org/1999/xlink" x="0px" y="0px"
	 width="60px" height="60px" viewBox="0 0 60 60" enable-background="new 0 0 60 60" xml:space="preserve">
<g>
	<path fill="#010101" d="M15.247,14.342c-0.19,0.218-0.277,0.507-0.238,0.793l6,44C21.077,59.63,21.5,60,22,60h23
		c0.5,0,0.923-0.37,0.991-0.865l6-44c0.039-0.286-0.048-0.575-0.238-0.793C51.563,14.125,51.289,14,51,14H23.226l-0.6-6.506
		C22.229,3.362,18.359,0.001,14,0.001L9,0C8.448,0,8,0.448,8,1s0.447,1,1,1l5,0.001c3.357,0,6.334,2.55,6.635,5.681L21.217,14H16
		C15.711,14,15.437,14.125,15.247,14.342z M44.127,58H22.873l-4.364-32h3.814l2.681,29.093c0.048,0.519,0.484,0.908,0.995,0.908
		c0.03,0,0.062-0.001,0.093-0.004c0.55-0.05,0.955-0.538,0.904-1.087L24.332,26h24.159L44.127,58z M49.854,16l-1.091,8H24.147
		l-0.737-8H49.854z M21.401,16l0.737,8h-3.902l-1.091-8H21.401z"/>
	<circle fill="#010101" cx="31" cy="7.001" r="1"/>
	<circle fill="#010101" cx="39" cy="11" r="1"/>
	<circle fill="#010101" cx="40.999" cy="35" r="1"/>
	<circle fill="#010101" cx="33.001" cy="39" r="1"/>
	<circle fill="#010101" cx="38.999" cy="45" r="1"/>
	<circle fill="#010101" cx="30.999" cy="51" r="1"/>
	<circle fill="#010101" cx="30.999" cy="31" r="1"/>
	<circle fill="#010101" cx="43" cy="5" r="1"/>
</g>
</svg>
