<?xml version="1.0" encoding="utf-8"?>
<!-- Generator: Adobe Illustrator 17.0.0, SVG Export Plug-In . SVG Version: 6.00 Build 0)  -->
<!DOCTYPE svg PUBLIC "-//W3C//DTD SVG 1.1//EN" "http://www.w3.org/Graphics/SVG/1.1/DTD/svg11.dtd">
<svg version="1.1" id="Layer_1" xmlns="http://www.w3.org/2000/svg" xmlns:xlink="http://www.w3.org/1999/xlink" x="0px" y="0px"
	 width="60px" height="60px" viewBox="0 0 60 60" enable-background="new 0 0 60 60" xml:space="preserve">
<g>
	<path fill="#010101" d="M44,12h3c0.553,0,1-0.448,1-1s-0.447-1-1-1h-3V6h1c0.553,0,1-0.448,1-1s-0.447-1-1-1h-2h-9.101
		C33.434,1.721,31.414,0,29,0s-4.434,1.721-4.899,4H15h-2c-0.553,0-1,0.448-1,1s0.447,1,1,1h1v4h-3c-0.553,0-1,0.448-1,1
		s0.447,1,1,1h3v12h-3c-0.553,0-1,0.448-1,1s0.447,1,1,1h3v8c0,3.364,2.636,6,6,6h18c3.364,0,6-2.636,6-6v-8h3c0.553,0,1-0.448,1-1
		s-0.447-1-1-1h-3V12z M29,2c1.302,0,2.402,0.839,2.816,2h-5.631C26.598,2.839,27.698,2,29,2z M42,6v14H16V6H42z M42,34
		c0,2.243-1.757,4-4,4H20c-2.243,0-4-1.757-4-4V22h26V34z"/>
	<path fill="#010101" d="M34.97,45c-0.368,0.011-0.699,0.223-0.864,0.552l-1.164,2.329l-3.073-5.377
		c-0.355-0.623-1.381-0.623-1.736,0l-3.073,5.377l-1.164-2.329c-0.165-0.329-0.496-0.541-0.864-0.552
		c-0.365-0.014-0.712,0.18-0.896,0.499C21.444,46.692,18,52.756,18,55c0,2.664,2.334,5,5,5h11.999c0,0,0.005,0,0.006,0
		c1.257,0,2.527-0.55,3.486-1.51S40,56.26,40,55.003c0-2.246-3.444-8.311-4.135-9.504C35.682,45.181,35.332,44.983,34.97,45z
		 M37.076,57.076C36.49,57.664,35.734,58,35.005,58H35H22.995C21.456,58,20,56.542,20,55c0-1.028,1.519-4.218,2.951-6.862
		l1.154,2.31c0.165,0.33,0.498,0.542,0.867,0.552c0.354,0.01,0.712-0.184,0.896-0.503L29,45.016l3.132,5.48
		c0.183,0.319,0.516,0.511,0.896,0.503c0.369-0.01,0.702-0.223,0.867-0.552l1.154-2.31C36.481,50.782,38,53.973,38,55.003
		C38,55.733,37.663,56.489,37.076,57.076z"/>
</g>
</svg>
