<?xml version="1.0" encoding="utf-8"?>
<!-- Generator: Adobe Illustrator 17.0.0, SVG Export Plug-In . SVG Version: 6.00 Build 0)  -->
<!DOCTYPE svg PUBLIC "-//W3C//DTD SVG 1.1//EN" "http://www.w3.org/Graphics/SVG/1.1/DTD/svg11.dtd">
<svg version="1.1" id="Layer_1" xmlns="http://www.w3.org/2000/svg" xmlns:xlink="http://www.w3.org/1999/xlink" x="0px" y="0px"
	 width="60px" height="60px" viewBox="0 0 60 60" enable-background="new 0 0 60 60" xml:space="preserve">
<g>
	<path fill="#010101" d="M51,32c-1.501,0-2.948,0.387-4.257,1.095c-2.931-4.485-7.607-7.72-13.062-8.741
		C34.492,23.465,35,22.295,35,21c0-2.757-2.243-5-5-5s-5,2.243-5,5c0,1.295,0.508,2.465,1.318,3.354
		c-8.925,1.67-15.761,9.28-16.263,18.559C6.829,42.389,4,39.28,4,36v-4c0-1.927-0.939-4-3-4c-0.552,0-1,0.448-1,1s0.448,1,1,1
		c0.69,0,1,1.169,1,2v4c0,4.386,3.721,8.404,8.036,8.936c0.178,3.827,1.431,7.491,3.676,10.644C13.9,55.844,14.204,56,14.527,56
		h30.946c0.323,0,0.627-0.156,0.814-0.42c1.272-1.786,2.221-3.737,2.845-5.787C49.749,49.926,50.374,50,51,50c4.962,0,9-4.038,9-9
		S55.962,32,51,32z M27,21c0-1.654,1.346-3,3-3s3,1.346,3,3s-1.346,3-3,3S27,22.654,27,21z M30,26c5.313,0,10.081,2.327,13.378,6
		H16.622C19.919,28.327,24.687,26,30,26z M44.949,54H15.051C13.053,51.024,12,47.578,12,44c0-3.698,1.124-7.138,3.044-10h29.913
		C46.876,36.862,48,40.302,48,44C48,47.578,46.947,51.024,44.949,54z M51,48c-0.464,0-0.927-0.064-1.386-0.159
		C49.86,46.584,50,45.302,50,44c0-3.311-0.822-6.429-2.252-9.182C48.75,34.288,49.856,34,51,34c3.86,0,7,3.14,7,7S54.86,48,51,48z"
		/>
</g>
</svg>
