<?xml version="1.0" encoding="utf-8"?>
<!-- Generator: Adobe Illustrator 17.0.0, SVG Export Plug-In . SVG Version: 6.00 Build 0)  -->
<!DOCTYPE svg PUBLIC "-//W3C//DTD SVG 1.1//EN" "http://www.w3.org/Graphics/SVG/1.1/DTD/svg11.dtd">
<svg version="1.1" id="Layer_1" xmlns="http://www.w3.org/2000/svg" xmlns:xlink="http://www.w3.org/1999/xlink" x="0px" y="0px"
	 width="60px" height="60px" viewBox="0 0 60 60" enable-background="new 0 0 60 60" xml:space="preserve">
<g>
	<path fill="#010101" d="M32,40.529V7c0-3.86-3.141-7-7-7s-7,3.14-7,7v33.529C15.451,42.63,14,45.69,14,49c0,6.065,4.935,11,11,11
		s11-4.935,11-11C36,45.69,34.549,42.63,32,40.529z M25,58c-4.963,0-9-4.038-9-9c0-2.845,1.312-5.464,3.602-7.188
		C19.853,41.624,20,41.328,20,41.014V7c0-2.757,2.243-5,5-5s5,2.243,5,5v34.014c0,0.314,0.147,0.61,0.398,0.799
		C32.688,43.536,34,46.155,34,49C34,53.962,29.963,58,25,58z"/>
	<path fill="#010101" d="M26,45.142V19.001c0-0.552-0.447-1-1-1s-1,0.448-1,1v26.141c-1.721,0.447-3,2-3,3.858c0,2.206,1.794,4,4,4
		s4-1.794,4-4C29,47.142,27.721,45.589,26,45.142z M25,51c-1.103,0-2-0.897-2-2s0.897-2,2-2s2,0.897,2,2S26.103,51,25,51z"/>
	<path fill="#010101" d="M37,8h4c0.553,0,1-0.448,1-1s-0.447-1-1-1h-4c-0.553,0-1,0.448-1,1S36.447,8,37,8z"/>
	<path fill="#010101" d="M45,18h-8c-0.553,0-1,0.448-1,1s0.447,1,1,1h8c0.553,0,1-0.448,1-1S45.553,18,45,18z"/>
	<path fill="#010101" d="M41,30h-4c-0.553,0-1,0.448-1,1s0.447,1,1,1h4c0.553,0,1-0.448,1-1S41.553,30,41,30z"/>
</g>
</svg>
