<?xml version="1.0" encoding="utf-8"?>
<!-- Generator: Adobe Illustrator 17.0.0, SVG Export Plug-In . SVG Version: 6.00 Build 0)  -->
<!DOCTYPE svg PUBLIC "-//W3C//DTD SVG 1.1//EN" "http://www.w3.org/Graphics/SVG/1.1/DTD/svg11.dtd">
<svg version="1.1" id="Layer_1" xmlns="http://www.w3.org/2000/svg" xmlns:xlink="http://www.w3.org/1999/xlink" x="0px" y="0px"
	 width="60px" height="60px" viewBox="0 0 60 60" enable-background="new 0 0 60 60" xml:space="preserve">
<g>
	<path fill="#010101" d="M16,60h28c0.519,0,0.952-0.397,0.996-0.914l5-58c0.024-0.279-0.07-0.556-0.259-0.762
		C49.547,0.118,49.28,0,49,0H11c-0.28,0-0.547,0.118-0.737,0.324c-0.189,0.207-0.284,0.483-0.259,0.762l5,58
		C15.048,59.603,15.481,60,16,60z M43.083,58H16.917l-3.103-36h32.372L43.083,58z M47.91,2l-1.552,18H13.642L12.09,2H47.91z"/>
</g>
</svg>
