<?xml version="1.0" encoding="utf-8"?>
<!-- Generator: Adobe Illustrator 17.0.0, SVG Export Plug-In . SVG Version: 6.00 Build 0)  -->
<!DOCTYPE svg PUBLIC "-//W3C//DTD SVG 1.1//EN" "http://www.w3.org/Graphics/SVG/1.1/DTD/svg11.dtd">
<svg version="1.1" id="Layer_1" xmlns="http://www.w3.org/2000/svg" xmlns:xlink="http://www.w3.org/1999/xlink" x="0px" y="0px"
	 width="60px" height="60px" viewBox="0 0 60 60" enable-background="new 0 0 60 60" xml:space="preserve">
<g>
	<path fill="#010101" d="M9,40c-2.57,0-5,2.43-5,5v12c0,1.935,1.065,3,3,3h6h4h24h4h6c1.935,0,3-1.065,3-3V45.13
		c0-2.637-2.43-5.13-5-5.13h-3V27.588c1.282-0.594,2-1.822,2-3.588V9c0-5.551-3.448-9-9-9H19c-5.552,0-9,3.449-9,9v15
		c0,1.766,0.718,2.994,2,3.588V40H9z M9,42h3v6H6v-3C6,43.542,7.542,42,9,42z M6,57v-7h6v8H7C6.159,58,6,57.841,6,57z M40,48H18v-3
		c0-1.542,1.458-3,3-3h16c1.542,0,3,1.458,3,3V48z M18,58v-8h22v8H18z M51,58h-5v-8h6v7C52,57.841,51.841,58,51,58z M49,42
		c1.486,0,3,1.58,3,3.13V48h-6v-6H49z M12,9c0-4.449,2.552-7,7-7h20c4.448,0,7,2.551,7,7v15c0,1.44-0.561,2-2,2h-4v-7
		c0-0.552-0.447-1-1-1h-4c-0.553,0-1,0.448-1,1v7H24v-7c0-0.552-0.447-1-1-1h-4c-0.553,0-1,0.448-1,1v7h-4c-1.44,0-2-0.56-2-2V9z
		 M36,20h2v10h-2V20z M20,20h2v10h-2V20z M18,28v3c0,0.552,0.447,1,1,1h4c0.553,0,1-0.448,1-1v-3h10v3c0,0.552,0.447,1,1,1h4
		c0.553,0,1-0.448,1-1v-3h4v13v17h-2V45c0-2.617-2.383-5-5-5H21c-2.663,0-5,2.336-5,5v13h-2V41V28H18z"/>
</g>
</svg>
