<?xml version="1.0" encoding="utf-8"?>
<!-- Generator: Adobe Illustrator 17.0.0, SVG Export Plug-In . SVG Version: 6.00 Build 0)  -->
<!DOCTYPE svg PUBLIC "-//W3C//DTD SVG 1.1//EN" "http://www.w3.org/Graphics/SVG/1.1/DTD/svg11.dtd">
<svg version="1.1" id="Layer_1" xmlns="http://www.w3.org/2000/svg" xmlns:xlink="http://www.w3.org/1999/xlink" x="0px" y="0px"
	 width="60px" height="60px" viewBox="0 0 60 60" enable-background="new 0 0 60 60" xml:space="preserve">
<g>
	<path fill="#010101" d="M11,54c6.065,0,11-4.935,11-11c0-0.552-0.447-1-1-1h-1.232l-7.467-28H28v3c0,0.552,0.447,1,1,1
		c0.553,0,1-0.448,1-1v-3h15.699l-7.467,28H37c-0.553,0-1,0.448-1,1c0,6.065,4.935,11,11,11c6.065,0,11-4.935,11-11
		c0-0.552-0.447-1-1-1h-1.232l-7.467-28H55c0.553,0,1-0.448,1-1s-0.447-1-1-1H30V9c0-0.552-0.447-1-1-1c-0.553,0-1,0.448-1,1v3H3
		c-0.553,0-1,0.448-1,1s0.447,1,1,1h6.699L2.232,42H1c-0.553,0-1,0.448-1,1C0,49.065,4.935,54,11,54z M47,52
		c-4.625,0-8.445-3.506-8.944-8h16.94c0.001,0,0.002,0,0.003,0c0.001,0,0.003,0,0.004,0h0.942C55.445,48.494,51.625,52,47,52z
		 M40.301,42L47,16.881L53.699,42H40.301z M11,16.881L17.699,42H4.301L11,16.881z M18.996,44c0.001,0,0.002,0,0.003,0
		c0.001,0,0.003,0,0.004,0h0.942c-0.499,4.494-4.319,8-8.944,8s-8.445-3.506-8.944-8H18.996z"/>
</g>
</svg>
