<?xml version="1.0" encoding="utf-8"?>
<!-- Generator: Adobe Illustrator 17.0.0, SVG Export Plug-In . SVG Version: 6.00 Build 0)  -->
<!DOCTYPE svg PUBLIC "-//W3C//DTD SVG 1.1//EN" "http://www.w3.org/Graphics/SVG/1.1/DTD/svg11.dtd">
<svg version="1.1" id="Layer_1" xmlns="http://www.w3.org/2000/svg" xmlns:xlink="http://www.w3.org/1999/xlink" x="0px" y="0px"
	 width="60px" height="60px" viewBox="0 0 60 60" enable-background="new 0 0 60 60" xml:space="preserve">
<g>
	<path fill="#010101" d="M5,58h3v1c0,0.552,0.448,1,1,1s1-0.448,1-1v-1h40v1c0,0.552,0.448,1,1,1s1-0.448,1-1v-1h3
		c2.664,0,5-2.336,5-5V41c0-0.013-0.007-0.024-0.008-0.038c-0.004-0.113-0.021-0.226-0.064-0.334L48,10.807V5c0-2.664-2.336-5-5-5
		H17c-2.664,0-5,2.336-5,5v5.807L0.071,40.628c-0.043,0.108-0.059,0.221-0.064,0.334C0.007,40.976,0,40.987,0,41v12
		C0,55.664,2.336,58,5,58z M58,53c0,1.542-1.458,3-3,3H5c-1.542,0-3-1.458-3-3V42h56V53z M13.677,12h3.13l-1.743,4.649
		c-0.115,0.307-0.072,0.651,0.115,0.921C15.365,17.839,15.672,18,16,18h28c0.006,0,0.013,0,0.02,0c0.552,0,1-0.448,1-1
		c0-0.193-0.055-0.373-0.149-0.525L43.193,12h3.13l3.2,8H10.477L13.677,12z M42.557,16H17.443l2.25-6h20.614L42.557,16z M17,2h26
		c1.542,0,3,1.458,3,3v5h-3.557l-0.507-1.351C41.79,8.259,41.417,8,41,8H19c-0.417,0-0.79,0.259-0.937,0.649L17.557,10H14V5
		C14,3.458,15.458,2,17,2z M9.677,22h40.646l7.2,18H2.477L9.677,22z"/>
</g>
</svg>
