<?xml version="1.0" encoding="utf-8"?>
<!-- Generator: Adobe Illustrator 17.0.0, SVG Export Plug-In . SVG Version: 6.00 Build 0)  -->
<!DOCTYPE svg PUBLIC "-//W3C//DTD SVG 1.1//EN" "http://www.w3.org/Graphics/SVG/1.1/DTD/svg11.dtd">
<svg version="1.1" id="Layer_1" xmlns="http://www.w3.org/2000/svg" xmlns:xlink="http://www.w3.org/1999/xlink" x="0px" y="0px"
	 width="60px" height="60px" viewBox="0 0 60 60" enable-background="new 0 0 60 60" xml:space="preserve">
<g>
	<path fill="#010101" d="M59,32h-9v-2h3c2.617,0,5-2.383,5-5c0-2.664-2.336-5-5-5h-3v-2h3c2.617,0,5-2.383,5-5c0-2.664-2.336-5-5-5
		H7c-2.664,0-5,2.336-5,5c0,2.664,2.336,5,5,5h3v2H7c-2.664,0-5,2.336-5,5c0,2.664,2.336,5,5,5h3v2H1c-0.552,0-1,0.448-1,1v8
		c0,0.552,0.448,1,1,1h5v9c0,0.552,0.448,1,1,1s1-0.448,1-1v-1h44v1c0,0.552,0.448,1,1,1s1-0.448,1-1v-9h5c0.552,0,1-0.448,1-1v-8
		C60,32.448,59.552,32,59,32z M4,13c0-1.542,1.458-3,3-3h46c1.542,0,3,1.458,3,3s-1.458,3-3,3H7C5.458,16,4,14.542,4,13z M12,18h36
		v2H12V18z M4,25c0-1.542,1.458-3,3-3h46c1.542,0,3,1.458,3,3s-1.458,3-3,3H7C5.458,28,4,26.542,4,25z M12,30h36v2H12V30z M52,48H8
		v-6h44V48z M58,40H2v-6h56V40z"/>
</g>
</svg>
