<?xml version="1.0" encoding="utf-8"?>
<!-- Generator: Adobe Illustrator 17.0.0, SVG Export Plug-In . SVG Version: 6.00 Build 0)  -->
<!DOCTYPE svg PUBLIC "-//W3C//DTD SVG 1.1//EN" "http://www.w3.org/Graphics/SVG/1.1/DTD/svg11.dtd">
<svg version="1.1" id="Layer_1" xmlns="http://www.w3.org/2000/svg" xmlns:xlink="http://www.w3.org/1999/xlink" x="0px" y="0px"
	 width="60px" height="60px" viewBox="0 0 60 60" enable-background="new 0 0 60 60" xml:space="preserve">
<g>
	<path fill="#010101" d="M33.087,3C35.979,3,38,5.039,38,7.957C38,11.515,40.468,14,44,14c3.532,0,6-2.467,6-6c0-1.299,0.516-2,1-2
		c0.553,0,1-0.448,1-1s-0.447-1-1-1c-1.491,0-3,1.374-3,4c0,2.43-1.57,4-4,4c-2.43,0-4-1.587-4-4.043C40,3.926,37.093,1,33.087,1
		C29.047,1,26,3.991,26,7.957V13h-5c-0.553,0-1,0.448-1,1v4.197C11.596,21.158,6,29.025,6,38c0,11.58,9.421,21,21,21s21-9.42,21-21
		c0-8.975-5.596-16.841-14-19.803V14c0-0.552-0.447-1-1-1h-5V7.957C28,5.085,30.14,3,33.087,3z M32.7,19.872
		C40.655,22.371,46,29.656,46,38c0,10.477-8.523,19-19,19C16.523,57,8,48.477,8,38c0-8.344,5.345-15.629,13.3-18.128
		c0.417-0.131,0.7-0.517,0.7-0.954V15h10v3.918C32,19.355,32.283,19.741,32.7,19.872z"/>
	<path fill="#010101" d="M20.573,24.447C13.1,27.991,9.902,36.955,13.446,44.428C13.617,44.789,13.976,45,14.351,45
		c0.143,0,0.289-0.031,0.428-0.096c0.499-0.237,0.712-0.833,0.475-1.332c-3.071-6.478-0.3-14.246,6.178-17.318
		c0.499-0.236,0.712-0.833,0.475-1.332C21.67,24.424,21.075,24.209,20.573,24.447z"/>
</g>
</svg>
