<?xml version="1.0" encoding="utf-8"?>
<!-- Generator: Adobe Illustrator 17.0.0, SVG Export Plug-In . SVG Version: 6.00 Build 0)  -->
<!DOCTYPE svg PUBLIC "-//W3C//DTD SVG 1.1//EN" "http://www.w3.org/Graphics/SVG/1.1/DTD/svg11.dtd">
<svg version="1.1" id="Layer_1" xmlns="http://www.w3.org/2000/svg" xmlns:xlink="http://www.w3.org/1999/xlink" x="0px" y="0px"
	 width="60px" height="60px" viewBox="0 0 60 60" enable-background="new 0 0 60 60" xml:space="preserve">
<g>
	<path fill="#010101" d="M1,52h14c0.552,0,1-0.448,1-1V41c0-0.552-0.448-1-1-1H1c-0.552,0-1,0.448-1,1v10C0,51.552,0.448,52,1,52z
		 M2,42h12v8H2V42z"/>
	<path fill="#010101" d="M21,52h18c0.552,0,1-0.448,1-1V41c0-0.552-0.448-1-1-1H21c-0.552,0-1,0.448-1,1v10
		C20,51.552,20.448,52,21,52z M22,42h16v8H22V42z"/>
	<path fill="#010101" d="M41,20c0.552,0,1-0.448,1-1V9c0-0.552-0.448-1-1-1H19c-0.552,0-1,0.448-1,1v10c0,0.552,0.448,1,1,1H41z
		 M20,10h20v8H20V10z"/>
	<path fill="#010101" d="M6,25v10c0,0.552,0.448,1,1,1h20c0.552,0,1-0.448,1-1V25c0-0.552-0.448-1-1-1H7C6.448,24,6,24.448,6,25z
		 M8,26h18v8H8V26z"/>
	<path fill="#010101" d="M45,52h14c0.552,0,1-0.448,1-1V41c0-0.552-0.448-1-1-1H45c-0.552,0-1,0.448-1,1v10
		C44,51.552,44.448,52,45,52z M46,42h12v8H46V42z"/>
	<path fill="#010101" d="M54,35V25c0-0.552-0.448-1-1-1H33c-0.552,0-1,0.448-1,1v10c0,0.552,0.448,1,1,1h20
		C53.552,36,54,35.552,54,35z M52,34H34v-8h18V34z"/>
</g>
</svg>
