<?xml version="1.0" encoding="utf-8"?>
<!-- Generator: Adobe Illustrator 17.0.0, SVG Export Plug-In . SVG Version: 6.00 Build 0)  -->
<!DOCTYPE svg PUBLIC "-//W3C//DTD SVG 1.1//EN" "http://www.w3.org/Graphics/SVG/1.1/DTD/svg11.dtd">
<svg version="1.1" id="Layer_1" xmlns="http://www.w3.org/2000/svg" xmlns:xlink="http://www.w3.org/1999/xlink" x="0px" y="0px"
	 width="60px" height="60px" viewBox="0 0 60 60" enable-background="new 0 0 60 60" xml:space="preserve">
<g>
	<path fill="#010101" d="M59,24h-1.673C55.006,13.411,46.589,4.994,36,2.673V1c0-0.552-0.448-1-1-1H25c-0.552,0-1,0.448-1,1v1.673
		C13.411,4.994,4.994,13.411,2.673,24H1c-0.552,0-1,0.448-1,1v10c0,0.552,0.448,1,1,1h1.673C4.994,46.589,13.411,55.006,24,57.327
		V59c0,0.552,0.448,1,1,1h10c0.552,0,1-0.448,1-1v-1.673C46.589,55.006,55.006,46.589,57.327,36H59c0.552,0,1-0.448,1-1V25
		C60,24.448,59.552,24,59,24z M55.296,24H42.63c-1.384-2.9-3.73-5.246-6.63-6.63V4.704C45.494,6.954,53.046,14.506,55.296,24z
		 M30,42c-6.617,0-12-5.383-12-12s5.383-12,12-12s12,5.383,12,12S36.617,42,30,42z M26,2h8v1.47v13.12C32.731,16.21,31.39,16,30,16
		s-2.731,0.21-4,0.59V3.47V2z M24,4.704V17.37c-2.9,1.384-5.246,3.73-6.63,6.63H4.704C6.954,14.506,14.506,6.954,24,4.704z M2,26
		h1.47h13.12C16.21,27.269,16,28.61,16,30s0.21,2.731,0.59,4H3.47H2V26z M4.704,36H17.37c1.384,2.9,3.73,5.246,6.63,6.63v12.666
		C14.506,53.046,6.954,45.494,4.704,36z M34,58h-8v-1.47V43.41C27.269,43.79,28.61,44,30,44s2.731-0.21,4-0.59v13.12V58z M36,55.296
		V42.63c2.9-1.384,5.246-3.73,6.63-6.63h12.666C53.046,45.494,45.494,53.046,36,55.296z M58,34h-1.47H43.41
		C43.79,32.731,44,31.39,44,30s-0.21-2.731-0.59-4h13.12H58V34z"/>
</g>
</svg>
