<?xml version="1.0" encoding="utf-8"?>
<!-- Generator: Adobe Illustrator 17.0.0, SVG Export Plug-In . SVG Version: 6.00 Build 0)  -->
<!DOCTYPE svg PUBLIC "-//W3C//DTD SVG 1.1//EN" "http://www.w3.org/Graphics/SVG/1.1/DTD/svg11.dtd">
<svg version="1.1" id="Layer_1" xmlns="http://www.w3.org/2000/svg" xmlns:xlink="http://www.w3.org/1999/xlink" x="0px" y="0px"
	 width="60px" height="60px" viewBox="0 0 60 60" enable-background="new 0 0 60 60" xml:space="preserve">
<g>
	<path fill="#010101" d="M35.519,1.855c0.41-0.249,0.586-0.753,0.419-1.203c-0.167-0.449-0.626-0.717-1.102-0.638
		C20.933,2.34,10.043,14.958,10.043,28.739c0,10.285,8.367,18.652,18.652,18.652c10.285,0,18.652-8.367,18.652-18.652
		c0-7.372-4.285-14.324-10.663-17.298c-0.286-0.133-0.617-0.123-0.897,0.026c-0.278,0.149-0.469,0.422-0.515,0.734
		c-0.335,2.263-1.443,4.71-2.805,6.291c-1.727-1.914-2.772-4.666-2.772-7.406C29.695,7.169,32.714,3.555,35.519,1.855z
		 M27.695,11.087c0,3.634,1.578,7.301,4.117,9.572c0.381,0.34,0.956,0.339,1.335-0.002c1.708-1.535,3.161-4.154,3.832-6.81
		c5.052,2.912,8.369,8.734,8.369,14.892c0,9.182-7.47,16.652-16.652,16.652c-9.182,0-16.652-7.47-16.652-16.652
		c0-11.458,8.098-22.054,19.062-25.737C29.174,5.181,27.695,8.045,27.695,11.087z"/>
	<path fill="#010101" d="M0.024,59.219C0.128,59.684,0.542,60,0.999,60c0.072,0,0.146-0.008,0.22-0.024l58-13
		c0.539-0.121,0.878-0.655,0.757-1.194c-0.121-0.538-0.653-0.877-1.194-0.757l-58,13C0.242,58.145-0.097,58.68,0.024,59.219z"/>
	<path fill="#010101" d="M0.024,45.783c-0.12,0.539,0.22,1.073,0.759,1.193l18,4C18.856,50.992,18.929,51,19.001,51
		c0.458,0,0.872-0.317,0.975-0.783c0.12-0.539-0.22-1.073-0.759-1.193l-18-4C0.679,44.903,0.144,45.244,0.024,45.783z"/>
	<path fill="#010101" d="M59.001,60c0.458,0,0.872-0.317,0.975-0.783c0.12-0.539-0.22-1.073-0.759-1.193l-18-4
		c-0.54-0.121-1.073,0.22-1.193,0.759c-0.12,0.539,0.22,1.073,0.759,1.193l18,4C58.856,59.992,58.929,60,59.001,60z"/>
</g>
</svg>
