<?xml version="1.0" encoding="utf-8"?>
<!-- Generator: Adobe Illustrator 17.0.0, SVG Export Plug-In . SVG Version: 6.00 Build 0)  -->
<!DOCTYPE svg PUBLIC "-//W3C//DTD SVG 1.1//EN" "http://www.w3.org/Graphics/SVG/1.1/DTD/svg11.dtd">
<svg version="1.1" id="Layer_1" xmlns="http://www.w3.org/2000/svg" xmlns:xlink="http://www.w3.org/1999/xlink" x="0px" y="0px"
	 width="60px" height="60px" viewBox="0 0 60 60" enable-background="new 0 0 60 60" xml:space="preserve">
<g>
	<path fill="#010101" d="M40.757,32.03l-20,5C20.312,37.141,20,37.541,20,38v21c0,0.552,0.448,1,1,1h20c0.552,0,1-0.448,1-1V33
		c0-0.308-0.142-0.599-0.385-0.788C41.373,32.022,41.054,31.954,40.757,32.03z M40,58H22V38.781l18-4.5V58z"/>
	<path fill="#010101" d="M27.224,0.025c-0.459-0.104-0.935,0.126-1.133,0.558c-0.198,0.431-0.066,0.941,0.316,1.223
		c3.41,2.508,3.45,7.545,2.351,10.451c-0.411-0.634-0.655-1.402-0.765-2.369c-0.035-0.31-0.212-0.584-0.479-0.745
		c-0.267-0.161-0.592-0.187-0.883-0.072C22.417,10.741,20,14.36,20,19c0,6.169,4.831,11,11,11s11-4.831,11-11
		C42,10.266,35.51,1.931,27.224,0.025z M31,28c-5.047,0-9-3.953-9-9c0-3.398,1.5-6.038,4.253-7.548
		c0.368,1.38,1.055,2.455,2.112,3.321c0.219,0.18,0.503,0.257,0.784,0.215c0.28-0.043,0.529-0.202,0.685-0.438
		c1.531-2.318,2.456-7.396,0.367-11.333C35.905,6.087,40,12.416,40,19C40,24.047,36.047,28,31,28z"/>
</g>
</svg>
