<?xml version="1.0" encoding="utf-8"?>
<!-- Generator: Adobe Illustrator 17.0.0, SVG Export Plug-In . SVG Version: 6.00 Build 0)  -->
<!DOCTYPE svg PUBLIC "-//W3C//DTD SVG 1.1//EN" "http://www.w3.org/Graphics/SVG/1.1/DTD/svg11.dtd">
<svg version="1.1" id="Layer_1" xmlns="http://www.w3.org/2000/svg" xmlns:xlink="http://www.w3.org/1999/xlink" x="0px" y="0px"
	 width="60px" height="60px" viewBox="0 0 60 60" enable-background="new 0 0 60 60" xml:space="preserve">
<g>
	<path fill="#010101" d="M0.424,50.817C0.595,50.938,0.796,51,1,51c0.113,0,0.227-0.019,0.336-0.058l16.35-5.839
		C19.779,48.626,23.613,51,28,51c6.617,0,12-5.383,12-12c0-2.405-0.718-4.642-1.941-6.522l21.35-9.566
		c0.249-0.111,0.441-0.32,0.533-0.576c0.091-0.257,0.074-0.54-0.047-0.784l-6-12c-0.239-0.477-0.807-0.683-1.294-0.469
		L13.553,26.106C9.904,27.93,8.585,31.66,9.989,36.109C9.932,38.298,8.206,40,6,40c-2.243,0-4-1.757-4-4c0-0.552-0.448-1-1-1
		s-1,0.448-1,1c0,3.364,2.636,6,6,6c2.346,0,4.335-1.284,5.326-3.201c1.039,1.664,3.155,2.694,4.976,2.839
		c0.128,0.568,0.3,1.12,0.506,1.655L2,48.581V46c0-0.552-0.448-1-1-1s-1,0.448-1,1v4C0,50.325,0.158,50.63,0.424,50.817z M28,49
		c-5.514,0-10-4.486-10-10s4.486-10,10-10s10,4.486,10,10S33.514,49,28,49z M12.895,37.553l-0.968-1.935
		c-0.562-1.725-1.371-5.777,2.473-7.701l38.13-16.621l5.109,10.218l-20.851,9.342C34.595,28.491,31.472,27,28,27
		c-6.617,0-12,5.383-12,12c0,0.201,0.02,0.397,0.03,0.596C14.864,39.38,13.455,38.675,12.895,37.553z"/>
	<path fill="#010101" d="M28,36c-1.654,0-3,1.346-3,3s1.346,3,3,3s3-1.346,3-3S29.654,36,28,36z M28,40c-0.551,0-1-0.449-1-1
		c0-0.551,0.449-1,1-1s1,0.449,1,1C29,39.551,28.551,40,28,40z"/>
</g>
</svg>
