<?xml version="1.0" encoding="utf-8"?>
<!-- Generator: Adobe Illustrator 17.0.0, SVG Export Plug-In . SVG Version: 6.00 Build 0)  -->
<!DOCTYPE svg PUBLIC "-//W3C//DTD SVG 1.1//EN" "http://www.w3.org/Graphics/SVG/1.1/DTD/svg11.dtd">
<svg version="1.1" id="Layer_1" xmlns="http://www.w3.org/2000/svg" xmlns:xlink="http://www.w3.org/1999/xlink" x="0px" y="0px"
	 width="60px" height="60px" viewBox="0 0 60 60" enable-background="new 0 0 60 60" xml:space="preserve">
<g>
	<path fill="#010101" d="M1,58c0.553,0,1-0.448,1-1v-3h15c4.542,0,9-4.458,9-9v-8c0-0.552-0.447-1-1-1c-0.553,0-1,0.448-1,1v8
		c0,3.467-3.532,7-7,7H2v-3c0-0.552-0.447-1-1-1c-0.553,0-1,0.448-1,1v8C0,57.552,0.447,58,1,58z"/>
	<path fill="#010101" d="M59,4H11.088C4.456,4,0,8.42,0,15v6c0,6.58,4.421,11,11,11h34c2.183,0,4.494-1.078,4.923-4H55
		c0.553,0,1-0.448,1-1V14.321l3.573-2.501C59.841,11.632,60,11.326,60,11V5C60,4.448,59.553,4,59,4z M54,26h-4v-7.479l4-2.8V26z
		 M58,10.479l-9.573,6.701C48.159,17.368,48,17.674,48,18v9c0,2.479-1.632,3-3,3H11c-5.127,0-8.552-3.106-8.959-8H13
		c0.553,0,1-0.448,1-1s-0.447-1-1-1H2v-4h9c0.553,0,1-0.448,1-1s-0.447-1-1-1H2.041c0.411-4.894,3.87-8,9.047-8H58V10.479z"/>
	<path fill="#010101" d="M25,28c2.757,0,5-2.243,5-5c0-2.757-2.243-5-5-5c-2.757,0-5,2.243-5,5C20,25.757,22.243,28,25,28z M25,20
		c1.654,0,3,1.346,3,3s-1.346,3-3,3s-3-1.346-3-3S23.346,20,25,20z"/>
</g>
</svg>
