<?xml version="1.0" encoding="utf-8"?>
<!-- Generator: Adobe Illustrator 17.0.0, SVG Export Plug-In . SVG Version: 6.00 Build 0)  -->
<!DOCTYPE svg PUBLIC "-//W3C//DTD SVG 1.1//EN" "http://www.w3.org/Graphics/SVG/1.1/DTD/svg11.dtd">
<svg version="1.1" id="Layer_1" xmlns="http://www.w3.org/2000/svg" xmlns:xlink="http://www.w3.org/1999/xlink" x="0px" y="0px"
	 width="60px" height="60px" viewBox="0 0 60 60" enable-background="new 0 0 60 60" xml:space="preserve">
<g>
	<path fill="#010101" d="M59,4H19c-4.542,0-9,4.458-9,9v12c0,0.552,0.447,1,1,1h1.123c0.52,2.166,2.644,4,4.877,4h32
		c0.553,0,1-0.448,1-1V15.807l6.282-1.848c0.302-0.089,0.544-0.314,0.654-0.608l3-8c0.115-0.307,0.072-0.651-0.114-0.921
		C59.635,4.161,59.328,4,59,4z M48,28H17c-1.122,0-2.286-0.915-2.767-2H39c0.553,0,1-0.448,1-1v-6.252l8-2.353V28z M55.239,12.182
		l-6.206,1.825C49.022,14.006,49.012,14,49,14c-0.198,0-0.372,0.072-0.527,0.172l-9.755,2.869C38.292,17.166,38,17.556,38,18v6H12
		V13c0-3.467,3.532-7,7-7h38.557L55.239,12.182z"/>
	<path fill="#010101" d="M54,25v-6c0-0.552-0.447-1-1-1c-0.553,0-1,0.448-1,1v6c0,0.552,0.447,1,1,1C53.553,26,54,25.552,54,25z"/>
	<path fill="#010101" d="M2,57v-5.174l25.188-4.844C27.66,46.892,28,46.479,28,46V34h4c0.553,0,1-0.448,1-1s-0.447-1-1-1H22
		c-0.553,0-1,0.448-1,1s0.447,1,1,1h4v11.174L2,49.79V45c0-0.552-0.447-1-1-1c-0.553,0-1,0.448-1,1v12c0,0.552,0.447,1,1,1
		C1.553,58,2,57.552,2,57z"/>
</g>
</svg>
