<?xml version="1.0" encoding="utf-8"?>
<!-- Generator: Adobe Illustrator 17.0.0, SVG Export Plug-In . SVG Version: 6.00 Build 0)  -->
<!DOCTYPE svg PUBLIC "-//W3C//DTD SVG 1.1//EN" "http://www.w3.org/Graphics/SVG/1.1/DTD/svg11.dtd">
<svg version="1.1" id="Layer_1" xmlns="http://www.w3.org/2000/svg" xmlns:xlink="http://www.w3.org/1999/xlink" x="0px" y="0px"
	 width="60px" height="60px" viewBox="0 0 60 60" enable-background="new 0 0 60 60" xml:space="preserve">
<g>
	<path fill="#010101" d="M3,26h3v11c0,0.019,0.01,0.034,0.011,0.053c0.005,0.096,0.024,0.189,0.057,0.281
		c0.009,0.026,0.015,0.052,0.026,0.077c0.005,0.012,0.006,0.025,0.012,0.036c0.046,0.093,0.108,0.174,0.178,0.246
		c0.015,0.016,0.034,0.026,0.05,0.041c0.07,0.064,0.148,0.116,0.233,0.157c0.029,0.014,0.057,0.027,0.087,0.038
		C6.763,37.971,6.878,38,7,38h4.718l15.364,9.389L9.479,58.146c-0.471,0.288-0.62,0.904-0.332,1.375C9.335,59.83,9.664,60,10.001,60
		c0.178,0,0.358-0.047,0.521-0.146L29,48.561l18.479,11.292C47.641,59.953,47.821,60,47.999,60c0.337,0,0.666-0.17,0.854-0.479
		c0.288-0.471,0.139-1.087-0.332-1.375L30.918,47.389L46.282,38H51c0.122,0,0.237-0.029,0.347-0.07
		c0.03-0.011,0.058-0.024,0.087-0.038c0.085-0.041,0.163-0.093,0.233-0.157c0.016-0.015,0.035-0.025,0.05-0.041
		c0.07-0.072,0.132-0.153,0.178-0.246c0.006-0.012,0.007-0.024,0.012-0.036c0.011-0.025,0.017-0.051,0.026-0.077
		c0.033-0.092,0.052-0.186,0.057-0.281C51.99,37.034,52,37.019,52,37V26h5c0.552,0,1-0.448,1-1s-0.448-1-1-1H46v-7V3V1
		c0-0.552-0.448-1-1-1s-1,0.448-1,1v1H14V1c0-0.552-0.448-1-1-1s-1,0.448-1,1v2v14v7H3c-0.552,0-1,0.448-1,1S2.448,26,3,26z
		 M29,46.217L15.555,38h26.891L29,46.217z M9,36l4.5-6h31l4.5,6H9z M44,28H14V18h30V28z M50,26v8l-4-5.333V26H50z M44,4v12H14V4H44z
		 M12,28.667L8,34v-8h4V28.667z"/>
</g>
</svg>
