<?xml version="1.0" encoding="utf-8"?>
<!-- Generator: Adobe Illustrator 17.0.0, SVG Export Plug-In . SVG Version: 6.00 Build 0)  -->
<!DOCTYPE svg PUBLIC "-//W3C//DTD SVG 1.1//EN" "http://www.w3.org/Graphics/SVG/1.1/DTD/svg11.dtd">
<svg version="1.1" id="Layer_1" xmlns="http://www.w3.org/2000/svg" xmlns:xlink="http://www.w3.org/1999/xlink" x="0px" y="0px"
	 width="60px" height="60px" viewBox="0 0 60 60" enable-background="new 0 0 60 60" xml:space="preserve">
<g>
	<path fill="#010101" d="M59,38H7c-0.553,0-1,0.448-1,1v10c0,0.552,0.447,1,1,1h52c0.553,0,1-0.448,1-1V39
		C60,38.448,59.553,38,59,38z M8,40h34v8H8V40z M58,48H44v-8h14V48z"/>
	<path fill="#010101" d="M3,38c-0.553,0-1,0.448-1,1v10c0,0.552,0.447,1,1,1c0.553,0,1-0.448,1-1V39C4,38.448,3.553,38,3,38z"/>
	<path fill="#010101" d="M2,26c0-3.598,3.402-7,7-7c4.71,0,8-3.29,8-8c0-0.552-0.447-1-1-1c-0.553,0-1,0.448-1,1
		c0,3.645-2.356,6-6,6c-4.71,0-9,4.29-9,9v5c0,0.552,0.447,1,1,1c0.553,0,1-0.448,1-1V26z"/>
	<path fill="#010101" d="M13,24c4.71,0,8-3.29,8-8c0-0.552-0.447-1-1-1c-0.553,0-1,0.448-1,1c0,3.645-2.356,6-6,6
		c-4.71,0-9,4.29-9,9c0,0.552,0.447,1,1,1c0.553,0,1-0.448,1-1C6,27.402,9.402,24,13,24z"/>
</g>
</svg>
