<?xml version="1.0" encoding="utf-8"?>
<!-- Generator: Adobe Illustrator 17.0.0, SVG Export Plug-In . SVG Version: 6.00 Build 0)  -->
<!DOCTYPE svg PUBLIC "-//W3C//DTD SVG 1.1//EN" "http://www.w3.org/Graphics/SVG/1.1/DTD/svg11.dtd">
<svg version="1.1" id="Layer_1" xmlns="http://www.w3.org/2000/svg" xmlns:xlink="http://www.w3.org/1999/xlink" x="0px" y="0px"
	 width="60px" height="60px" viewBox="0 0 60 60" enable-background="new 0 0 60 60" xml:space="preserve">
<g>
	<path fill="#010101" d="M59,13.998l-10.999,0.001v-4.1c2.279-0.465,4-2.484,4-4.899c0-2.757-2.243-5-5-5c-2.757,0-5,2.243-5,5
		c0,2.414,1.721,4.434,4,4.899v4.1l-32,0.002V9.899c2.279-0.465,4-2.484,4-4.899c0-2.757-2.243-5-5-5c-2.757,0-5,2.243-5,5
		c0,2.414,1.721,4.434,4,4.899v4.102L1,14.002c-0.553,0-1,0.448-1,1V33c0,0.552,0.447,1,1,1l5.001,0v25c0,0.552,0.447,1,1,1
		c0.553,0,1-0.448,1-1V34l44,0.002V59c0,0.552,0.447,1,1,1c0.553,0,1-0.448,1-1V34.002l4.999,0c0.266,0,0.519-0.106,0.707-0.293
		S60,33.267,60,33.002V14.998c0-0.265-0.106-0.519-0.293-0.707S59.266,13.998,59,13.998z M44.001,5c0-1.654,1.346-3,3-3s3,1.346,3,3
		s-1.346,3-3,3S44.001,6.654,44.001,5z M10.001,5c0-1.654,1.346-3,3-3s3,1.346,3,3s-1.346,3-3,3S10.001,6.654,10.001,5z M7.002,32
		C7.002,32,7.001,32,7.002,32C7.001,32,7,32,7,32l-3.585,0l16-15.999L29.588,16l-16,16L7.002,32z M32.416,16l12.173-0.001
		L28.587,32.001l-12.172,0L32.416,16z M47.417,15.999l9.169-0.001l-16,16.003l-9.172,0L47.417,15.999z M16.587,16.001L2,30.587
		V16.002L16.587,16.001z M53.01,32.002c-0.003,0-0.006-0.002-0.009-0.002s-0.006,0.002-0.009,0.002l-9.578,0L58,17.412v14.59
		L53.01,32.002z"/>
</g>
</svg>
