<?xml version="1.0" encoding="utf-8"?>
<!-- Generator: Adobe Illustrator 17.0.0, SVG Export Plug-In . SVG Version: 6.00 Build 0)  -->
<!DOCTYPE svg PUBLIC "-//W3C//DTD SVG 1.1//EN" "http://www.w3.org/Graphics/SVG/1.1/DTD/svg11.dtd">
<svg version="1.1" id="Layer_1" xmlns="http://www.w3.org/2000/svg" xmlns:xlink="http://www.w3.org/1999/xlink" x="0px" y="0px"
	 width="60px" height="60px" viewBox="0 0 60 60" enable-background="new 0 0 60 60" xml:space="preserve">
<g>
	<path fill="#010101" d="M53,52h-3V1c0-0.552-0.447-1-1-1H11c-0.553,0-1,0.448-1,1v51H7c-0.553,0-1,0.448-1,1v6c0,0.552,0.447,1,1,1
		h46c0.553,0,1-0.448,1-1v-6C54,52.448,53.553,52,53,52z M12,2h36v50H12V2z M52,58H8v-4h3h38h3V58z"/>
	<path fill="#010101" d="M41,20c-0.547,0-0.986,0.44-0.993,0.987C40,21.535,40.441,21.986,40.988,22C41.45,22.012,42,22.195,42,23v8
		c0,0.805-0.55,0.988-1,1c-0.553,0-1,0.448-1,1s0.447,1,1,1c1.206,0,3-0.799,3-3v-8C44,20.799,42.206,20,41,20z"/>
</g>
</svg>
