<?xml version="1.0" encoding="utf-8"?>
<!-- Generator: Adobe Illustrator 17.0.0, SVG Export Plug-In . SVG Version: 6.00 Build 0)  -->
<!DOCTYPE svg PUBLIC "-//W3C//DTD SVG 1.1//EN" "http://www.w3.org/Graphics/SVG/1.1/DTD/svg11.dtd">
<svg version="1.1" id="Layer_1" xmlns="http://www.w3.org/2000/svg" xmlns:xlink="http://www.w3.org/1999/xlink" x="0px" y="0px"
	 width="60px" height="60px" viewBox="0 0 60 60" enable-background="new 0 0 60 60" xml:space="preserve">
<g>
	<path fill="#010101" d="M59,6H1C0.447,6,0,6.448,0,7v8c0,0.552,0.447,1,1,1h1v33v4c0,0.552,0.447,1,1,1c0.553,0,1-0.448,1-1v-3h52
		v3c0,0.552,0.447,1,1,1c0.553,0,1-0.448,1-1v-4V16h1c0.553,0,1-0.448,1-1V7C60,6.448,59.553,6,59,6z M56,48H4V16h52V48z M58,14h-1
		H3H2V8h56V14z"/>
	<path fill="#010101" d="M7,46h46c0.553,0,1-0.448,1-1V33c0-0.552-0.447-1-1-1H7c-0.553,0-1,0.448-1,1v12C6,45.552,6.447,46,7,46z
		 M8,34h44v10H8V34z"/>
	<path fill="#010101" d="M33,30h20c0.553,0,1-0.448,1-1V19c0-0.552-0.447-1-1-1H33c-0.553,0-1,0.448-1,1v10
		C32,29.552,32.447,30,33,30z M34,20h18v8H34V20z"/>
	<path fill="#010101" d="M7,30h20c0.553,0,1-0.448,1-1V19c0-0.552-0.447-1-1-1H7c-0.553,0-1,0.448-1,1v10C6,29.552,6.447,30,7,30z
		 M8,20h18v8H8V20z"/>
	<circle fill="#010101" cx="17" cy="24" r="2"/>
	<circle fill="#010101" cx="43" cy="24" r="2"/>
	<circle fill="#010101" cx="30" cy="39" r="2"/>
</g>
</svg>
