<?xml version="1.0" encoding="utf-8"?>
<!-- Generator: Adobe Illustrator 17.0.0, SVG Export Plug-In . SVG Version: 6.00 Build 0)  -->
<!DOCTYPE svg PUBLIC "-//W3C//DTD SVG 1.1//EN" "http://www.w3.org/Graphics/SVG/1.1/DTD/svg11.dtd">
<svg version="1.1" id="Layer_1" xmlns="http://www.w3.org/2000/svg" xmlns:xlink="http://www.w3.org/1999/xlink" x="0px" y="0px"
	 width="60px" height="60px" viewBox="0 0 60 60" enable-background="new 0 0 60 60" xml:space="preserve">
<g>
	<path fill="#010101" d="M48,8H25c-2.233,0-4.357,1.834-4.877,4H13c-0.552,0-1,0.448-1,1v5H1c-0.552,0-1,0.448-1,1s0.448,1,1,1h11v5
		c0,0.552,0.448,1,1,1h7.123c0.52,2.166,2.644,4,4.877,4h7v5c0,0.552,0.448,1,1,1h6.565l3.182,14H36c-0.552,0-1,0.448-1,1
		s0.448,1,1,1h8h8c0.007,0,0.013-0.001,0.02,0c0.552,0,1-0.448,1-1c0-0.161-0.038-0.313-0.105-0.448L47.309,30H48
		c7.402,0,12-4.215,12-11S55.402,8,48,8z M14,14h6v10h-6V14z M25,28c-1.458,0-3-1.542-3-3V13c0-1.458,1.542-3,3-3h7v18H25z M34,34
		v-4h4.202l0.909,4H34z M50.691,50h-5.893l-4.545-20h4.983L50.691,50z M48,28h-2h-7h-5V10h14c6.262,0,10,3.364,10,9S54.262,28,48,28
		z"/>
</g>
</svg>
