<?xml version="1.0" encoding="utf-8"?>
<!-- Generator: Adobe Illustrator 17.0.0, SVG Export Plug-In . SVG Version: 6.00 Build 0)  -->
<!DOCTYPE svg PUBLIC "-//W3C//DTD SVG 1.1//EN" "http://www.w3.org/Graphics/SVG/1.1/DTD/svg11.dtd">
<svg version="1.1" id="Layer_1" xmlns="http://www.w3.org/2000/svg" xmlns:xlink="http://www.w3.org/1999/xlink" x="0px" y="0px"
	 width="60px" height="60px" viewBox="0 0 60 60" enable-background="new 0 0 60 60" xml:space="preserve">
<g>
	<path fill="#010101" d="M30.821,9.984l22,4C52.881,13.995,52.94,14,53,14c0.232,0,0.459-0.081,0.641-0.232
		C53.868,13.578,54,13.296,54,13V1c0-0.296-0.132-0.578-0.359-0.768c-0.228-0.19-0.531-0.269-0.819-0.216l-22,4
		C30.346,4.103,30,4.517,30,5v1h-3h-5.764L9.447,0.106C8.952-0.142,8.352,0.059,8.105,0.553C7.858,1.047,8.059,1.648,8.553,1.895
		l8.937,4.468C10.661,7.82,6,13.53,6,21v31c0,0.552,0.448,1,1,1s1-0.448,1-1V21c0-7.193,4.991-12.491,12-12.954v4.194
		c-4.195,1.277-6,3.938-6,8.761v38c0,0.552,0.448,1,1,1h18c0.552,0,1-0.448,1-1V21c0-4.822-1.805-7.483-6-8.761V8h2v1
		C30,9.483,30.346,9.898,30.821,9.984z M32,50h-6V24h6V50z M32,21v1h-7c-0.552,0-1,0.448-1,1v28c0,0.552,0.448,1,1,1h7v6H16V21
		c0-4.783,1.922-6.2,5.243-7.03C21.688,13.859,22,13.459,22,13V8h4v5c0,0.459,0.312,0.859,0.757,0.97C30.078,14.8,32,16.217,32,21z
		 M32,5.835l20-3.636v9.604L32,8.166V5.835z"/>
</g>
</svg>
