<?xml version="1.0" encoding="utf-8"?>
<!-- Generator: Adobe Illustrator 17.0.0, SVG Export Plug-In . SVG Version: 6.00 Build 0)  -->
<!DOCTYPE svg PUBLIC "-//W3C//DTD SVG 1.1//EN" "http://www.w3.org/Graphics/SVG/1.1/DTD/svg11.dtd">
<svg version="1.1" id="Layer_1" xmlns="http://www.w3.org/2000/svg" xmlns:xlink="http://www.w3.org/1999/xlink" x="0px" y="0px"
	 width="60px" height="60px" viewBox="0 0 60 60" enable-background="new 0 0 60 60" xml:space="preserve">
<g>
	<path fill="#010101" d="M5,38h33.047c0.322,3.776,2.493,6,5.953,6h9h6c0.552,0,1-0.448,1-1V17c0-0.552-0.448-1-1-1h-6h-9
		c-3.46,0-5.632,2.224-5.953,6H34v-3c0-0.552-0.448-1-1-1h-8c-0.552,0-1,0.448-1,1v3H5c-2.76,0-5,3.631-5,6v5C0,35.57,2.43,38,5,38z
		 M58,42h-4V18h4V42z M44,18h8v24h-8c-3.306,0-4-2.719-4-5V23C40,20.719,40.694,18,44,18z M26,20h6v2h-6V20z M2,28
		c0-1.543,1.638-4,3-4h33v12H5c-1.458,0-3-1.542-3-3V28z"/>
</g>
</svg>
