<?xml version="1.0" encoding="utf-8"?>
<!-- Generator: Adobe Illustrator 17.0.0, SVG Export Plug-In . SVG Version: 6.00 Build 0)  -->
<!DOCTYPE svg PUBLIC "-//W3C//DTD SVG 1.1//EN" "http://www.w3.org/Graphics/SVG/1.1/DTD/svg11.dtd">
<svg version="1.1" id="Layer_1" xmlns="http://www.w3.org/2000/svg" xmlns:xlink="http://www.w3.org/1999/xlink" x="0px" y="0px"
	 width="60px" height="60px" viewBox="0 0 60 60" enable-background="new 0 0 60 60" xml:space="preserve">
<g>
	<path fill="#010101" d="M1,58h32c0.552,0,1-0.448,1-1V14h3c1.458,0,3,1.542,3,3v35c0,3.364,2.636,6,6,6s6-2.636,6-6v-7.279
		l5.316-1.772C57.725,42.812,58,42.431,58,42v-7c0-0.552-0.448-1-1-1h-5v-1c0-2.546,4.662-6.994,7.6-9.2
		c0.442-0.331,0.531-0.958,0.2-1.4c-0.33-0.441-0.956-0.532-1.4-0.2C57.54,22.845,50,28.627,50,33v2v9v8c0,2.243-1.757,4-4,4
		s-4-1.757-4-4V17c0-2.57-2.43-5-5-5h-3V3c0-0.552-0.448-1-1-1H1C0.448,2,0,2.448,0,3v54C0,57.552,0.448,58,1,58z M56,41.279
		l-4,1.333V36h4V41.279z M2,56V26h30v30H2z M32,4v20H2V4H32z"/>
	<path fill="#010101" d="M27,32h-6c-0.552,0-1,0.448-1,1v10c0,0.552,0.448,1,1,1h6c0.552,0,1-0.448,1-1V33
		C28,32.448,27.552,32,27,32z M26,42h-4v-8h4V42z"/>
	<path fill="#010101" d="M7,20h20c0.552,0,1-0.448,1-1V9c0-0.552-0.448-1-1-1H7C6.448,8,6,8.448,6,9v10C6,19.552,6.448,20,7,20z
		 M8,10h18v8H8V10z"/>
	<path fill="#010101" d="M27,48h-6c-0.552,0-1,0.448-1,1s0.448,1,1,1h6c0.552,0,1-0.448,1-1S27.552,48,27,48z"/>
</g>
</svg>
