<?xml version="1.0" encoding="utf-8"?>
<!-- Generator: Adobe Illustrator 17.0.0, SVG Export Plug-In . SVG Version: 6.00 Build 0)  -->
<!DOCTYPE svg PUBLIC "-//W3C//DTD SVG 1.1//EN" "http://www.w3.org/Graphics/SVG/1.1/DTD/svg11.dtd">
<svg version="1.1" id="Layer_1" xmlns="http://www.w3.org/2000/svg" xmlns:xlink="http://www.w3.org/1999/xlink" x="0px" y="0px"
	 width="60px" height="60px" viewBox="0 0 60 60" enable-background="new 0 0 60 60" xml:space="preserve">
<g>
	<path fill="#010101" d="M59,12h-3v-1V9c0-0.552-0.448-1-1-1s-1,0.448-1,1v1H41H21h-5V7c0-0.552-0.448-1-1-1H9C8.448,6,8,6.448,8,7
		v3H6c-3.533,0-6,2.467-6,6v14c0,0.43,0.275,0.812,0.684,0.949c3.938,1.314,6.185,5.029,5.35,8.793l-4,15
		c-0.08,0.3-0.016,0.621,0.173,0.867C2.396,55.856,2.69,56,3,56h15.652h5.043c0.552,0,1-0.448,1-1s-0.448-1-1-1h-3.744l3.703-14
		l10.156-0.005c0.409,0,0.777-0.249,0.928-0.629L37.677,32H55c0.552,0,1-0.448,1-1v-9h3c0.552,0,1-0.448,1-1v-8
		C60,12.448,59.552,12,59,12z M40,12v2H22v-2H40z M10,8h4v2h-4V8z M6,12h3h6h5v3c0,0.552,0.448,1,1,1h20c0.552,0,1-0.448,1-1v-3h12
		v1v8v3H2v-8C2,13.57,3.57,12,6,12z M33.132,37.995l-8.949,0.005L25.77,32h9.754L33.132,37.995z M25,30
		c-0.454,0-0.851,0.306-0.967,0.744L17.882,54H4.302l3.674-13.783C8.997,35.62,6.502,31.14,2,29.304V26h52v4H25z M58,20h-2v-6h2V20z
		"/>
</g>
</svg>
