<?xml version="1.0" encoding="utf-8"?>
<!-- Generator: Adobe Illustrator 17.0.0, SVG Export Plug-In . SVG Version: 6.00 Build 0)  -->
<!DOCTYPE svg PUBLIC "-//W3C//DTD SVG 1.1//EN" "http://www.w3.org/Graphics/SVG/1.1/DTD/svg11.dtd">
<svg version="1.1" id="Layer_1" xmlns="http://www.w3.org/2000/svg" xmlns:xlink="http://www.w3.org/1999/xlink" x="0px" y="0px"
	 width="60px" height="60px" viewBox="0 0 60 60" enable-background="new 0 0 60 60" xml:space="preserve">
<g>
	<path fill="#010101" d="M54,24c0-12.336-9.225-22-21-22h-3V1c0-0.552-0.447-1-1-1c-0.553,0-1,0.448-1,1v1h-3
		C13.225,2,4,11.664,4,24v8c0,0.404,0.243,0.769,0.617,0.924c0.375,0.154,0.804,0.069,1.09-0.217L9,29.414l3.293,3.293
		c0.391,0.391,1.023,0.391,1.414,0L17,29.414l3.293,3.293c0.391,0.391,1.023,0.391,1.414,0L25,29.414l3,3V58h-7
		c-0.553,0-1,0.448-1,1s0.447,1,1,1h16c0.553,0,1-0.448,1-1s-0.447-1-1-1h-7V32.414l2-2V42c0,0.552,0.447,1,1,1c0.553,0,1-0.448,1-1
		V30.414l2.293,2.293c0.391,0.391,1.023,0.391,1.414,0L41,29.414l3.293,3.293c0.391,0.391,1.023,0.391,1.414,0L49,29.414
		l3.293,3.293C52.484,32.898,52.74,33,53,33c0.129,0,0.259-0.025,0.383-0.076C53.757,32.769,54,32.404,54,32V24z M52,29.586
		l-2.293-2.293c-0.391-0.391-1.023-0.391-1.414,0L45,30.586l-3.293-3.293C41.512,27.098,41.256,27,41,27
		c-0.256,0-0.512,0.098-0.707,0.293L37,30.586l-3.292-3.292c-0.092-0.093-0.203-0.166-0.326-0.217c-0.244-0.101-0.52-0.101-0.764,0
		c-0.123,0.051-0.234,0.124-0.326,0.217L29,30.586l-3.293-3.293c-0.391-0.391-1.023-0.391-1.414,0L21,30.586l-3.293-3.293
		c-0.391-0.391-1.023-0.391-1.414,0L13,30.586l-3.293-3.293c-0.391-0.391-1.023-0.391-1.414,0L6,29.586V24C6,12.785,14.346,4,25,4h8
		c10.654,0,19,8.785,19,20V29.586z"/>
</g>
</svg>
