<?xml version="1.0" encoding="utf-8"?>
<!-- Generator: Adobe Illustrator 17.0.0, SVG Export Plug-In . SVG Version: 6.00 Build 0)  -->
<!DOCTYPE svg PUBLIC "-//W3C//DTD SVG 1.1//EN" "http://www.w3.org/Graphics/SVG/1.1/DTD/svg11.dtd">
<svg version="1.1" id="Layer_1" xmlns="http://www.w3.org/2000/svg" xmlns:xlink="http://www.w3.org/1999/xlink" x="0px" y="0px"
	 width="60px" height="60px" viewBox="0 0 60 60" enable-background="new 0 0 60 60" xml:space="preserve">
<g>
	<path fill="#010101" d="M29,0c-0.553,0-1,0.448-1,1v1H15c-0.485,0-0.9,0.348-0.984,0.826l-6,34
		c-0.052,0.291,0.028,0.59,0.219,0.816C8.424,37.869,8.704,38,9,38h19v20h-7c-0.553,0-1,0.448-1,1s0.447,1,1,1h16
		c0.553,0,1-0.448,1-1s-0.447-1-1-1h-7V38h4v6c0,0.552,0.447,1,1,1c0.553,0,1-0.448,1-1v-6h13c0.291,0,0.566-0.126,0.757-0.346
		c0.19-0.22,0.274-0.512,0.232-0.799l-5-34C44.917,2.364,44.496,2,44,2H30V1C30,0.448,29.553,0,29,0z M47.842,36H10.192l5.646-32
		h27.298L47.842,36z"/>
</g>
</svg>
