<?xml version="1.0" encoding="utf-8"?>
<!-- Generator: Adobe Illustrator 17.0.0, SVG Export Plug-In . SVG Version: 6.00 Build 0)  -->
<!DOCTYPE svg PUBLIC "-//W3C//DTD SVG 1.1//EN" "http://www.w3.org/Graphics/SVG/1.1/DTD/svg11.dtd">
<svg version="1.1" id="Layer_1" xmlns="http://www.w3.org/2000/svg" xmlns:xlink="http://www.w3.org/1999/xlink" x="0px" y="0px"
	 width="60px" height="60px" viewBox="0 0 60 60" enable-background="new 0 0 60 60" xml:space="preserve">
<g>
	<path fill="#010101" d="M1,32h27v26h-7c-0.553,0-1,0.448-1,1s0.447,1,1,1h16c0.553,0,1-0.448,1-1s-0.447-1-1-1h-7V32h4v7
		c0,0.552,0.447,1,1,1c0.553,0,1-0.448,1-1v-7h21c0.008,0.001,0.015,0,0.019,0c0.553,0,1-0.448,1-1c0-0.07-0.007-0.138-0.02-0.204
		C57.891,15.235,45.46,2.553,30,2.025V1c0-0.552-0.447-1-1-1c-0.553,0-1,0.448-1,1v1.025C12.472,2.555,0,15.345,0,31
		C0,31.552,0.447,32,1,32z M29,4c14.554,0,26.454,11.573,26.981,26H2.019C2.546,15.573,14.446,4,29,4z"/>
</g>
</svg>
