<?xml version="1.0" encoding="utf-8"?>
<!-- Generator: Adobe Illustrator 17.0.0, SVG Export Plug-In . SVG Version: 6.00 Build 0)  -->
<!DOCTYPE svg PUBLIC "-//W3C//DTD SVG 1.1//EN" "http://www.w3.org/Graphics/SVG/1.1/DTD/svg11.dtd">
<svg version="1.1" id="Layer_1" xmlns="http://www.w3.org/2000/svg" xmlns:xlink="http://www.w3.org/1999/xlink" x="0px" y="0px"
	 width="60px" height="60px" viewBox="0 0 60 60" enable-background="new 0 0 60 60" xml:space="preserve">
<g>
	<path fill="#010101" d="M33,53c0-0.552-0.447-1-1-1h-6c-0.553,0-1,0.448-1,1s0.447,1,1,1h6C32.553,54,33,53.552,33,53z"/>
	<path fill="#010101" d="M28,56c-0.553,0-1,0.448-1,1s0.447,1,1,1h2c0.553,0,1-0.448,1-1s-0.447-1-1-1H28z"/>
	<path fill="#010101" d="M24,46.232V49c0,0.552,0.447,1,1,1h8c0.553,0,1-0.448,1-1v-2.768C41.104,44.052,46,37.485,46,30
		c0-9.374-7.626-17-17-17s-17,7.626-17,17C12,37.485,16.896,44.052,24,46.232z M29,15c8.271,0,15,6.729,15,15
		c0,6.834-4.626,12.799-11.25,14.507C32.309,44.621,32,45.02,32,45.476V48h-6v-2.524c0-0.456-0.309-0.854-0.75-0.968
		C18.626,42.799,14,36.834,14,30C14,21.729,20.729,15,29,15z"/>
	<path fill="#010101" d="M3,30h4c0.553,0,1-0.448,1-1s-0.447-1-1-1H3c-0.553,0-1,0.448-1,1S2.447,30,3,30z"/>
	<path fill="#010101" d="M13.293,16.707C13.488,16.902,13.744,17,14,17c0.256,0,0.512-0.098,0.707-0.293
		c0.391-0.391,0.391-1.023,0-1.414l-5-5c-0.391-0.391-1.023-0.391-1.414,0c-0.391,0.391-0.391,1.023,0,1.414L13.293,16.707z"/>
	<path fill="#010101" d="M29,10c0.553,0,1-0.448,1-1V5c0-0.552-0.447-1-1-1c-0.553,0-1,0.448-1,1v4C28,9.552,28.447,10,29,10z"/>
	<path fill="#010101" d="M44,17c0.256,0,0.512-0.098,0.707-0.293l5-5c0.391-0.391,0.391-1.023,0-1.414
		c-0.391-0.391-1.023-0.391-1.414,0l-5,5c-0.391,0.391-0.391,1.023,0,1.414C43.488,16.902,43.744,17,44,17z"/>
	<path fill="#010101" d="M51,30h4c0.553,0,1-0.448,1-1s-0.447-1-1-1h-4c-0.553,0-1,0.448-1,1S50.447,30,51,30z"/>
</g>
</svg>
