<?xml version="1.0" encoding="utf-8"?>
<!-- Generator: Adobe Illustrator 17.0.0, SVG Export Plug-In . SVG Version: 6.00 Build 0)  -->
<!DOCTYPE svg PUBLIC "-//W3C//DTD SVG 1.1//EN" "http://www.w3.org/Graphics/SVG/1.1/DTD/svg11.dtd">
<svg version="1.1" id="Layer_1" xmlns="http://www.w3.org/2000/svg" xmlns:xlink="http://www.w3.org/1999/xlink" x="0px" y="0px"
	 width="60px" height="60px" viewBox="0 0 60 60" enable-background="new 0 0 60 60" xml:space="preserve">
<g>
	<path fill="#010101" d="M29,42c11.58,0,21-9.42,21-21S40.58,0,29,0S8,9.42,8,21S17.42,42,29,42z M29,2c10.477,0,19,8.523,19,19
		c0,10.139-7.989,18.424-18,18.949v-8.535l2.293,2.293C32.488,33.902,32.744,34,33,34c0.256,0,0.512-0.098,0.707-0.293l4-4
		c0.391-0.391,0.391-1.023,0-1.414c-0.391-0.391-1.023-0.391-1.414,0L33,31.586l-3.292-3.292c-0.092-0.092-0.203-0.166-0.325-0.216
		c-0.244-0.101-0.52-0.101-0.764,0c-0.123,0.051-0.233,0.124-0.325,0.216L25,31.586l-3.293-3.293c-0.391-0.391-1.023-0.391-1.414,0
		c-0.391,0.391-0.391,1.023,0,1.414l4,4c0.391,0.391,1.023,0.391,1.414,0L28,31.414v8.535C17.989,39.424,10,31.139,10,21
		C10,10.523,18.523,2,29,2z"/>
	<path fill="#010101" d="M35,46H23c-0.552,0-1,0.448-1,1s0.448,1,1,1h12c0.552,0,1-0.448,1-1S35.552,46,35,46z"/>
	<path fill="#010101" d="M35,50H23c-0.552,0-1,0.448-1,1s0.448,1,1,1h12c0.552,0,1-0.448,1-1S35.552,50,35,50z"/>
	<path fill="#010101" d="M29,60c0.552,0,1-0.448,1-1v-3h5c0.552,0,1-0.448,1-1s-0.448-1-1-1H23c-0.552,0-1,0.448-1,1s0.448,1,1,1h5
		v3C28,59.552,28.448,60,29,60z"/>
</g>
</svg>
