<?xml version="1.0" encoding="utf-8"?>
<!-- Generator: Adobe Illustrator 17.0.0, SVG Export Plug-In . SVG Version: 6.00 Build 0)  -->
<!DOCTYPE svg PUBLIC "-//W3C//DTD SVG 1.1//EN" "http://www.w3.org/Graphics/SVG/1.1/DTD/svg11.dtd">
<svg version="1.1" id="Layer_1" xmlns="http://www.w3.org/2000/svg" xmlns:xlink="http://www.w3.org/1999/xlink" x="0px" y="0px"
	 width="60px" height="60px" viewBox="0 0 60 60" enable-background="new 0 0 60 60" xml:space="preserve">
<g>
	<path fill="#010101" d="M31,32H9c-0.552,0-1,0.448-1,1s0.448,1,1,1h22c0.552,0,1-0.448,1-1S31.552,32,31,32z"/>
	<path fill="#010101" d="M10,46h43c4.58,0,7-2.42,7-7s-2.42-7-7-7H40V20C40,8.972,30.989,0,19.912,0H10C4.58,0,0,4.58,0,10v29
		c0,0.552,0.448,1,1,1h38c0.552,0,1-0.448,1-1v-5h13c3.458,0,5,1.542,5,5s-1.542,5-5,5H10c-3.533,0-6,2.467-6,6s2.467,6,6,6h48v3
		c0,0.552,0.448,1,1,1s1-0.448,1-1v-4c0-0.552-0.448-1-1-1H10c-2.43,0-4-1.57-4-4S7.57,46,10,46z M38,38H2V10c0-4.336,3.664-8,8-8
		h9.912C29.886,2,38,10.075,38,20V38z"/>
	<path fill="#010101" d="M20,30c5.514,0,10-4.486,10-10s-4.486-10-10-10s-10,4.486-10,10S14.486,30,20,30z M20,12
		c4.411,0,8,3.589,8,8c0,4.411-3.589,8-8,8c-4.411,0-8-3.589-8-8C12,15.589,15.589,12,20,12z"/>
</g>
</svg>
