<?xml version="1.0" encoding="utf-8"?>
<!-- Generator: Adobe Illustrator 17.0.0, SVG Export Plug-In . SVG Version: 6.00 Build 0)  -->
<!DOCTYPE svg PUBLIC "-//W3C//DTD SVG 1.1//EN" "http://www.w3.org/Graphics/SVG/1.1/DTD/svg11.dtd">
<svg version="1.1" id="Layer_1" xmlns="http://www.w3.org/2000/svg" xmlns:xlink="http://www.w3.org/1999/xlink" x="0px" y="0px"
	 width="60px" height="60px" viewBox="0 0 60 60" enable-background="new 0 0 60 60" xml:space="preserve">
<g>
	<path fill="#010101" d="M59,22h-1.068c-0.328-3.291-2.238-6.298-5.278-8.177c-2.82-1.743-6.057-2.171-8.892-1.219
		C42.31,6.028,37.141,2,30,2c-7.141,0-12.31,4.028-13.763,10.604c-2.839-0.951-6.071-0.523-8.892,1.219
		c-3.04,1.879-4.95,4.886-5.278,8.177H1c-0.293,0-0.571,0.128-0.761,0.351c-0.19,0.223-0.273,0.518-0.227,0.807l4.002,25.014
		c0.527,3.015,3.051,5.35,6.055,5.758C10.527,57.351,13.457,60,17,60c3.519,0,6.432-2.613,6.92-6h12.16c0.488,3.387,3.401,6,6.92,6
		c3.539,0,6.465-2.642,6.929-6.056c3.329-0.274,5.575-2.005,6.06-4.792l4-26c0.045-0.288-0.039-0.582-0.229-0.803
		C59.569,22.127,59.292,22,59,22z M8.397,15.524c2.635-1.63,5.684-1.866,8.155-0.63c0.287,0.144,0.628,0.142,0.911-0.009
		c0.285-0.149,0.48-0.426,0.526-0.744C18.897,7.791,23.387,4,30,4c6.613,0,11.102,3.791,12.01,10.142
		c0.046,0.318,0.241,0.595,0.526,0.744c0.284,0.15,0.625,0.152,0.911,0.009c2.469-1.235,5.518-1.001,8.155,0.63
		c2.443,1.51,4.006,3.88,4.329,6.476H4.069C4.392,19.404,5.955,17.034,8.397,15.524z M17,58c-2.757,0-5-2.243-5-5
		c0-2.757,2.243-5,5-5c2.757,0,5,2.243,5,5C22,55.757,19.757,58,17,58z M43,58c-2.757,0-5-2.243-5-5c0-2.757,2.243-5,5-5
		c2.757,0,5,2.243,5,5C48,55.757,45.757,58,43,58z M54.015,48.829c-0.401,2.304-2.461,2.964-4.102,3.121
		C49.403,48.588,46.502,46,43,46c-3.519,0-6.432,2.613-6.92,6H23.92c-0.488-3.387-3.401-6-6.92-6c-3.49,0-6.384,2.57-6.907,5.916
		c-2.052-0.378-3.744-2.008-4.105-4.075L2.173,24h55.661L54.015,48.829z"/>
</g>
</svg>
