<?xml version="1.0" encoding="utf-8"?>
<!-- Generator: Adobe Illustrator 17.0.0, SVG Export Plug-In . SVG Version: 6.00 Build 0)  -->
<!DOCTYPE svg PUBLIC "-//W3C//DTD SVG 1.1//EN" "http://www.w3.org/Graphics/SVG/1.1/DTD/svg11.dtd">
<svg version="1.1" id="Layer_1" xmlns="http://www.w3.org/2000/svg" xmlns:xlink="http://www.w3.org/1999/xlink" x="0px" y="0px"
	 width="60px" height="60px" viewBox="0 0 60 60" enable-background="new 0 0 60 60" xml:space="preserve">
<g>
	<path fill="#010101" d="M28.342,59.752C28.53,59.917,28.765,60,29,60c0.235,0,0.47-0.083,0.658-0.248
		C29.999,59.455,38,52.392,38,47V25.333l5.8-7.733c0.13-0.173,0.2-0.384,0.2-0.6V1c0-0.431-0.275-0.812-0.684-0.949
		C42.908-0.084,42.459,0.056,42.2,0.4l-6,8C36.07,8.573,36,8.784,36,9v2.967c-1.393-1.109-3.451-1.799-6-1.94V1c0-0.552-0.447-1-1-1
		c-0.553,0-1,0.448-1,1v9.027c-2.549,0.141-4.607,0.832-6,1.94V9c0-0.216-0.07-0.427-0.2-0.6l-6-8
		c-0.259-0.344-0.706-0.485-1.116-0.349C14.275,0.188,14,0.569,14,1v16c0,0.216,0.07,0.427,0.2,0.6l5.8,7.733V47
		C20,52.392,28.001,59.455,28.342,59.752z M29,57.649c-0.921-0.863-2.149-2.115-3.32-3.521c1.109-0.45,2.256-0.692,3.32-0.692
		c1.063,0,2.21,0.241,3.318,0.691C31.148,55.533,29.921,56.785,29,57.649z M38,9.333L42,4v12.667L38,22v-6V9.333z M28,12.033V25
		c0,0.552,0.447,1,1,1c0.553,0,1-0.448,1-1V12.033c3.725,0.222,6,1.697,6,3.967v9v22c0,1.624-1.055,3.615-2.417,5.499
		c-1.186-0.547-2.776-1.063-4.583-1.063c-1.808,0-3.398,0.516-4.584,1.063C23.054,50.616,22,48.626,22,47V25v-9
		C22,13.73,24.275,12.255,28,12.033z M16,16.667V4l4,5.333V16v6L16,16.667z"/>
</g>
</svg>
