<?xml version="1.0" encoding="utf-8"?>
<!-- Generator: Adobe Illustrator 17.0.0, SVG Export Plug-In . SVG Version: 6.00 Build 0)  -->
<!DOCTYPE svg PUBLIC "-//W3C//DTD SVG 1.1//EN" "http://www.w3.org/Graphics/SVG/1.1/DTD/svg11.dtd">
<svg version="1.1" id="Layer_1" xmlns="http://www.w3.org/2000/svg" xmlns:xlink="http://www.w3.org/1999/xlink" x="0px" y="0px"
	 width="60px" height="60px" viewBox="0 0 60 60" enable-background="new 0 0 60 60" xml:space="preserve">
<g>
	<path fill="#010101" d="M40.99,6.948c-0.005-0.097-0.024-0.191-0.057-0.284c-0.015-0.042-0.035-0.08-0.055-0.12
		c-0.017-0.032-0.025-0.067-0.045-0.098l-4-6.002C36.646,0.167,36.334,0,36,0H24c-0.334,0-0.647,0.167-0.832,0.445l-4,6.002
		c-0.02,0.031-0.029,0.066-0.045,0.098c-0.021,0.039-0.04,0.077-0.055,0.119c-0.034,0.093-0.052,0.188-0.057,0.285
		C19.009,6.967,19,6.982,19,7c0,0.004,0.002,0.008,0.002,0.012c0.001,0.12,0.027,0.238,0.071,0.352
		c0.012,0.031,0.03,0.056,0.045,0.085C19.145,7.5,19.164,7.555,19.2,7.602l6,7.998c0.188,0.252,0.485,0.4,0.8,0.4h8
		c0.314,0,0.611-0.148,0.8-0.4l6-7.998c0.036-0.047,0.055-0.102,0.081-0.153c0.015-0.029,0.033-0.055,0.045-0.085
		c0.044-0.113,0.07-0.231,0.071-0.351C40.998,7.008,41,7.004,41,7C41,6.982,40.991,6.966,40.99,6.948z M24.535,2h10.93l2.666,4
		H21.87L24.535,2z M33.5,14h-7l-4.501-6h16.002L33.5,14z"/>
	<path fill="#010101" d="M7,37c0,12.682,10.317,23,23,23c12.683,0,23-10.318,23-23c0-9.046-5.334-17.287-13.59-20.993
		c-0.502-0.228-1.095-0.001-1.321,0.503c-0.227,0.504-0.001,1.096,0.503,1.322C46.129,21.216,51,28.74,51,37c0,11.58-9.421,21-21,21
		S9,48.58,9,37c0-8.26,4.871-15.784,12.408-19.169c0.504-0.226,0.729-0.818,0.503-1.322c-0.227-0.503-0.819-0.732-1.321-0.503
		C12.334,19.713,7,27.954,7,37z"/>
	<path fill="#010101" d="M13,37c0,9.374,7.626,17,17,17s17-7.626,17-17s-7.626-17-17-17S13,27.626,13,37z M45,37
		c0,8.271-6.729,15-15,15c-8.272,0-15-6.729-15-15s6.728-15,15-15C38.271,22,45,28.729,45,37z"/>
</g>
</svg>
