<?xml version="1.0" encoding="utf-8"?>
<!-- Generator: Adobe Illustrator 17.0.0, SVG Export Plug-In . SVG Version: 6.00 Build 0)  -->
<!DOCTYPE svg PUBLIC "-//W3C//DTD SVG 1.1//EN" "http://www.w3.org/Graphics/SVG/1.1/DTD/svg11.dtd">
<svg version="1.1" id="Layer_1" xmlns="http://www.w3.org/2000/svg" xmlns:xlink="http://www.w3.org/1999/xlink" x="0px" y="0px"
	 width="60px" height="60px" viewBox="0 0 60 60" enable-background="new 0 0 60 60" xml:space="preserve">
<g>
	<path fill="#010101" d="M46.91,31.505c-0.398-0.316-0.968-0.282-1.327,0.078l-6.293,6.293l-27-27V1.29
		c0-0.404-0.243-0.769-0.617-0.924c-0.374-0.154-0.804-0.069-1.09,0.217l-10,10c-0.286,0.286-0.372,0.716-0.217,1.09
		c0.154,0.373,0.519,0.617,0.924,0.617h9.586l27,27l-6.293,6.293c-0.358,0.358-0.392,0.929-0.078,1.327
		c0.413,0.522,10.208,12.799,19.102,12.8c0,0,0,0,0.001,0c2.438,0,4.589-0.913,6.389-2.713c1.946-1.946,2.853-4.294,2.695-6.977
		C59.181,41.289,47.41,31.9,46.91,31.505z M10.29,10.29H3.704l6.586-6.586V10.29z M55.583,55.583
		c-1.432,1.431-3.059,2.127-4.975,2.127h-0.001c-6.813-0.001-14.798-8.808-16.966-11.357l5.649-5.649l8.293,8.293
		c0.195,0.195,0.451,0.293,0.707,0.293c0.256,0,0.512-0.098,0.707-0.293c0.391-0.391,0.391-1.023,0-1.414l-8.293-8.293l5.649-5.649
		c2.49,2.118,10.951,9.786,11.343,16.498C57.82,52.257,57.129,54.037,55.583,55.583z"/>
</g>
</svg>
