<?xml version="1.0" encoding="utf-8"?>
<!-- Generator: Adobe Illustrator 17.0.0, SVG Export Plug-In . SVG Version: 6.00 Build 0)  -->
<!DOCTYPE svg PUBLIC "-//W3C//DTD SVG 1.1//EN" "http://www.w3.org/Graphics/SVG/1.1/DTD/svg11.dtd">
<svg version="1.1" id="Layer_1" xmlns="http://www.w3.org/2000/svg" xmlns:xlink="http://www.w3.org/1999/xlink" x="0px" y="0px"
	 width="60px" height="60px" viewBox="0 0 60 60" enable-background="new 0 0 60 60" xml:space="preserve">
<g>
	<path fill="#010101" d="M6.02,44.481C6.008,44.657,6,44.831,6,45v5c0,3.533,2.468,6,6,6v3c0,0.552,0.447,1,1,1c0.553,0,1-0.448,1-1
		v-3h32v3c0,0.552,0.447,1,1,1c0.553,0,1-0.448,1-1v-3c3.532,0,6-2.467,6-6v-5c0-0.183-0.016-0.343-0.023-0.516
		C57.561,43.233,60,39.857,60,36c0-4.011-2.639-7.416-6.272-8.575C53.893,26.284,54,25.137,54,24C54,10.766,43.233,0,30,0
		S6,10.766,6,24c0,1.129,0.108,2.277,0.274,3.425C2.64,28.582,0,31.988,0,36C0,39.866,2.434,43.231,6.02,44.481z M52,50
		c0,2.43-1.57,4-4,4H12c-2.43,0-4-1.57-4-4v-5c0-2.058,1.048-3.344,3.298-4.045C15.364,39.686,21.727,38,30,38
		c8.901,0,16.165,1.851,19.703,2.955C51.192,41.419,52,42.201,52,45V50z M58,36c0,2.861-1.729,5.375-4.309,6.445
		c-0.482-1.758-1.56-2.829-3.393-3.4c-1.465-0.457-3.557-1.037-6.12-1.569C44.072,36.99,44,36.498,44,36c0-3.86,3.141-7,7-7
		C54.859,29,58,32.14,58,36z M8,24C8,11.869,17.869,2,30,2c12.131,0,22,9.869,22,22c0,1.008-0.094,2.025-0.235,3.039
		C51.512,27.017,51.258,27,51,27c-4.963,0-9,4.038-9,9c0,0.36,0.037,0.717,0.08,1.073C38.634,36.465,34.523,36,30,36
		c-4.644,0-8.678,0.519-12.087,1.197C17.967,36.8,18,36.401,18,36c0-4.962-4.037-9-9-9c-0.257,0-0.511,0.017-0.763,0.039
		C8.095,26.019,8,25.001,8,24z M9,29c3.859,0,7,3.14,7,7c0,0.559-0.09,1.112-0.224,1.658c-1.945,0.457-3.656,0.946-5.073,1.388
		c-2.411,0.752-3.639,2.075-4.225,3.46C3.805,41.477,2,38.93,2,36C2,32.14,5.141,29,9,29z"/>
	<path fill="#010101" d="M25.293,27.707C25.488,27.902,25.744,28,26,28c0.256,0,0.512-0.098,0.707-0.293l2.008-2.008
		C29.106,25.887,29.538,26,30,26s0.894-0.113,1.285-0.301l2.008,2.008C33.488,27.902,33.744,28,34,28
		c0.256,0,0.512-0.098,0.707-0.293c0.391-0.391,0.391-1.023,0-1.414l-2.008-2.008C32.886,23.894,33,23.462,33,23
		c0-0.462-0.113-0.894-0.301-1.285l2.008-2.008c0.391-0.391,0.391-1.023,0-1.414c-0.391-0.391-1.023-0.391-1.414,0l-2.008,2.008
		C30.894,20.113,30.462,20,30,20s-0.894,0.113-1.285,0.301l-2.008-2.008c-0.391-0.391-1.023-0.391-1.414,0
		c-0.391,0.391-0.391,1.023,0,1.414l2.008,2.008C27.114,22.106,27,22.538,27,23s0.113,0.894,0.301,1.285l-2.008,2.008
		C24.902,26.684,24.902,27.316,25.293,27.707z M31,23c0,0.275-0.112,0.524-0.292,0.705c-0.001,0.001-0.002,0.001-0.002,0.002
		c-0.001,0.001-0.001,0.002-0.001,0.002C30.524,23.888,30.275,24,30,24c-0.552,0-1-0.449-1-1c0-0.271,0.11-0.515,0.286-0.696
		c0.003-0.003,0.008-0.004,0.011-0.008c0.003-0.003,0.004-0.008,0.008-0.011C29.485,22.11,29.729,22,30,22
		C30.552,22,31,22.449,31,23z"/>
</g>
</svg>
