<?xml version="1.0" encoding="utf-8"?>
<!-- Generator: Adobe Illustrator 17.0.0, SVG Export Plug-In . SVG Version: 6.00 Build 0)  -->
<!DOCTYPE svg PUBLIC "-//W3C//DTD SVG 1.1//EN" "http://www.w3.org/Graphics/SVG/1.1/DTD/svg11.dtd">
<svg version="1.1" id="Layer_1" xmlns="http://www.w3.org/2000/svg" xmlns:xlink="http://www.w3.org/1999/xlink" x="0px" y="0px"
	 width="60px" height="60px" viewBox="0 0 60 60" enable-background="new 0 0 60 60" xml:space="preserve">
<g>
	<path fill="#010101" d="M6,56v3c0,0.552,0.447,1,1,1c0.553,0,1-0.448,1-1v-3h42v3c0,0.552,0.447,1,1,1c0.553,0,1-0.448,1-1v-3
		c3.532,0,6-2.467,6-6V39c0-2.323-1.779-4.396-4-4.888V33c0-5.467-4.317-9-11-9H15c-6.683,0-11,3.533-11,9v1.112
		C1.779,34.604,0,36.677,0,39v11C0,53.533,2.468,56,6,56z M52,33v1.112c-2.221,0.492-4,2.564-4,4.888v4c0,0.449-0.552,1-1,1H30V26
		h13C48.552,26,52,28.682,52,33z M15,26h13v18H11c-0.529,0-1-0.559-1-1v-4c0-2.323-1.779-4.396-4-4.888V33C6,28.682,9.448,26,15,26z
		 M2,39c0-1.542,1.458-3,3-3s3,1.458,3,3v4c0,1.598,1.402,3,3,3h36c1.542,0,3-1.458,3-3v-4c0-1.542,1.458-3,3-3s3,1.458,3,3v11
		c0,2.43-1.57,4-4,4H6c-2.43,0-4-1.57-4-4V39z"/>
</g>
</svg>
