<?xml version="1.0" encoding="utf-8"?>
<!-- Generator: Adobe Illustrator 17.0.0, SVG Export Plug-In . SVG Version: 6.00 Build 0)  -->
<!DOCTYPE svg PUBLIC "-//W3C//DTD SVG 1.1//EN" "http://www.w3.org/Graphics/SVG/1.1/DTD/svg11.dtd">
<svg version="1.1" id="Layer_1" xmlns="http://www.w3.org/2000/svg" xmlns:xlink="http://www.w3.org/1999/xlink" x="0px" y="0px"
	 width="60px" height="60px" viewBox="0 0 60 60" enable-background="new 0 0 60 60" xml:space="preserve">
<g>
	<path fill="#010101" d="M54,30c-1.8,0-3.503,0.513-4.98,1.387l1.969-13.234c0.71-4.607-0.543-9.061-3.528-12.541
		C44.4,2.045,39.859,0,35,0H25c-4.862,0-9.404,2.045-12.463,5.612c-2.984,3.479-4.236,7.933-3.526,12.535l1.969,13.24
		C9.502,30.513,7.8,30,6,30c-3.663,0-6,3.554-6,6c0,2.603,1.487,5.039,3.616,5.923l0.369,0.149C5.239,42.569,6,42.947,6,44v5
		c0,5.467,3.141,9,8,9v1c0,0.552,0.447,1,1,1c0.553,0,1-0.448,1-1v-1h28v1c0,0.552,0.447,1,1,1c0.553,0,1-0.448,1-1v-1
		c4.859,0,8-3.533,8-9v-5c0-1.053,0.761-1.431,2.015-1.928l0.369-0.149C58.513,41.039,60,38.603,60,36C60,33.554,57.663,30,54,30z
		 M14.055,6.914C16.733,3.791,20.723,2,25,2h10c4.275,0,8.264,1.791,10.942,4.914c2.599,3.029,3.688,6.913,3.068,10.939
		l-2.288,15.383C45.047,35.032,44,37.417,44,40v2.386c-2.069-0.841-6.356-2.037-14-2.037c-7.644,0-11.931,1.196-14,2.037V40
		c0-2.583-1.048-4.968-2.723-6.764l-2.289-15.388C10.368,13.826,11.457,9.943,14.055,6.914z M55.616,40.077l-0.34,0.137
		C54.051,40.699,52,41.513,52,44v5c0,4.318-2.299,7-6,7H14c-3.701,0-6-2.682-6-7v-5c0-2.487-2.051-3.301-3.276-3.787l-0.34-0.137
		C3.003,39.502,2,37.788,2,36c0-1.41,1.519-4,4-4c2.182,0,4.192,0.929,5.653,2.403c0.013,0.012,0.022,0.028,0.036,0.04
		C13.109,35.894,14,37.864,14,40l0.008,5.908l1.571-1.092c0.035-0.025,3.67-2.466,14.421-2.466s14.386,2.441,14.413,2.46L46,45.961
		V40c0-4.336,3.663-8,8-8c2.481,0,4,2.59,4,4C58,37.788,56.997,39.502,55.616,40.077z"/>
	<path fill="#010101" d="M22.293,25.707C22.488,25.902,22.744,26,23,26c0.256,0,0.512-0.098,0.707-0.293l1.713-1.713
		C26.193,25.76,27.952,27,30,27c2.048,0,3.807-1.24,4.58-3.006l1.713,1.713C36.488,25.902,36.744,26,37,26
		c0.256,0,0.512-0.098,0.707-0.293c0.391-0.391,0.391-1.023,0-1.414L35.414,22l2.293-2.293c0.391-0.391,0.391-1.023,0-1.414
		c-0.391-0.391-1.023-0.391-1.414,0l-1.713,1.713C33.807,18.24,32.048,17,30,17c-2.048,0-3.807,1.24-4.58,3.006l-1.713-1.713
		c-0.391-0.391-1.023-0.391-1.414,0c-0.391,0.391-0.391,1.023,0,1.414L24.586,22l-2.293,2.293
		C21.902,24.684,21.902,25.316,22.293,25.707z M30,19c1.654,0,3,1.346,3,3s-1.346,3-3,3s-3-1.346-3-3S28.346,19,30,19z"/>
</g>
</svg>
