<?xml version="1.0" encoding="utf-8"?>
<!-- Generator: Adobe Illustrator 17.0.0, SVG Export Plug-In . SVG Version: 6.00 Build 0)  -->
<!DOCTYPE svg PUBLIC "-//W3C//DTD SVG 1.1//EN" "http://www.w3.org/Graphics/SVG/1.1/DTD/svg11.dtd">
<svg version="1.1" id="Layer_1" xmlns="http://www.w3.org/2000/svg" xmlns:xlink="http://www.w3.org/1999/xlink" x="0px" y="0px"
	 width="60px" height="60px" viewBox="0 0 60 60" enable-background="new 0 0 60 60" xml:space="preserve">
<g>
	<path fill="#010101" d="M59,6h-5V1c0-0.321-0.154-0.622-0.413-0.81c-0.259-0.188-0.594-0.239-0.898-0.141
		c-0.515,0.169-12.626,4.211-14.24,10.975c-0.558,2.338,0.179,4.671,2.168,6.946l-2.084,2.084C34.437,16.297,28.982,14,23,14
		C10.318,14,0,24.318,0,37c0,5.982,2.297,11.437,6.054,15.532l-5.761,5.761c-0.391,0.391-0.391,1.023,0,1.414
		C0.488,59.902,0.744,60,1,60s0.512-0.098,0.707-0.293l5.761-5.761C11.563,57.703,17.018,60,23,60
		c5.982,0,11.436-2.297,15.531-6.054l5.762,5.76C44.488,59.902,44.744,60,45,60s0.512-0.098,0.707-0.293
		c0.391-0.391,0.391-1.024,0-1.414l-5.761-5.761C43.702,48.437,46,42.982,46,37c0-5.982-2.297-11.437-6.054-15.532l2.078-2.078
		c1.779,1.554,3.603,2.342,5.435,2.342c7.675,0,12.298-13.832,12.491-14.421c0.1-0.305,0.048-0.639-0.141-0.898
		C59.622,6.154,59.321,6,59,6z M52,6.586l-4,4V4.242c1.55-0.805,3.006-1.422,4-1.81V6.586z M40.393,11.49
		C40.973,9.06,43.403,6.974,46,5.375v7.211l-3.974,3.974C40.532,14.819,39.997,13.154,40.393,11.49z M44,37c0,11.58-9.42,21-21,21
		S2,48.58,2,37s9.42-21,21-21c5.431,0,10.37,2.09,14.102,5.484l-4.241,4.241C30.221,23.413,26.776,22,23,22c-8.271,0-15,6.729-15,15
		s6.729,15,15,15s15-6.729,15-15c0-3.776-1.413-7.221-3.725-9.861l4.241-4.241C41.91,26.63,44,31.569,44,37z M28,37
		c0,2.757-2.243,5-5,5c-2.757,0-5-2.243-5-5s2.243-5,5-5c1.017,0,1.962,0.309,2.753,0.833l-2.241,2.241
		C23.347,35.031,23.178,35,23,35c-1.103,0-2,0.897-2,2s0.897,2,2,2s2-0.897,2-2c0-0.178-0.031-0.347-0.075-0.511l2.241-2.241
		C27.691,35.038,28,35.983,28,37z M27.184,31.402C26.016,30.526,24.57,30,23,30c-3.86,0-7,3.14-7,7s3.14,7,7,7c3.86,0,7-3.14,7-7
		c0-1.57-0.526-3.016-1.402-4.184l4.263-4.263C34.813,30.827,36,33.775,36,37c0,7.169-5.831,13-13,13s-13-5.831-13-13
		s5.831-13,13-13c3.225,0,6.173,1.187,8.448,3.138L27.184,31.402z M47.459,19.732c-1.301,0-2.649-0.596-4.015-1.763l4.262-4.262
		c0,0,0.001-0.001,0.001-0.001L53.414,8h4.165C55.967,12.184,52.097,19.732,47.459,19.732z"/>
</g>
</svg>
