<?xml version="1.0" encoding="utf-8"?>
<!-- Generator: Adobe Illustrator 17.0.0, SVG Export Plug-In . SVG Version: 6.00 Build 0)  -->
<!DOCTYPE svg PUBLIC "-//W3C//DTD SVG 1.1//EN" "http://www.w3.org/Graphics/SVG/1.1/DTD/svg11.dtd">
<svg version="1.1" id="Layer_1" xmlns="http://www.w3.org/2000/svg" xmlns:xlink="http://www.w3.org/1999/xlink" x="0px" y="0px"
	 width="60px" height="60px" viewBox="0 0 60 60" enable-background="new 0 0 60 60" xml:space="preserve">
<g>
	<path fill="#010101" d="M43,23c0-9.576-7.484-19.871-16.683-22.948c-0.355-0.121-0.737,0.003-1.005,0.265
		c-0.268,0.262-0.358,0.684-0.248,1.042c1.168,3.809,3.283,10.707,0.633,16.128c-1.051-1.151-2.19-3.417-2.769-4.859
		c-0.138-0.345-0.456-0.585-0.825-0.623c-0.368-0.035-0.729,0.131-0.935,0.44C20.998,12.701,17,18.746,17,23c0,6.505,5.953,12,13,12
		C37.169,35,43,29.617,43,23z M30,33c-5.962,0-11-4.58-11-10c0-2.465,1.732-5.885,2.867-7.861c0.827,1.675,2.195,4.01,3.685,4.756
		c0.462,0.23,1.023,0.073,1.295-0.365c3.406-5.458,2.017-12.241,0.704-16.832C35.011,6.187,41,15.023,41,23
		C41,28.42,35.962,33,30,33z"/>
	<path fill="#010101" d="M23,38c-0.3,0-0.583,0.134-0.773,0.366c-0.19,0.232-0.266,0.536-0.207,0.83l4,20
		C26.113,59.664,26.523,60,27,60h6c0.477,0,0.887-0.336,0.98-0.804l4-20c0.059-0.294-0.017-0.599-0.207-0.83
		C37.583,38.134,37.3,38,37,38H23z M32.18,58h-4.36l-3.6-18H35.78L32.18,58z"/>
</g>
</svg>
