<?xml version="1.0" encoding="utf-8"?>
<!-- Generator: Adobe Illustrator 17.0.0, SVG Export Plug-In . SVG Version: 6.00 Build 0)  -->
<!DOCTYPE svg PUBLIC "-//W3C//DTD SVG 1.1//EN" "http://www.w3.org/Graphics/SVG/1.1/DTD/svg11.dtd">
<svg version="1.1" id="Layer_1" xmlns="http://www.w3.org/2000/svg" xmlns:xlink="http://www.w3.org/1999/xlink" x="0px" y="0px"
	 width="60px" height="60px" viewBox="0 0 60 60" enable-background="new 0 0 60 60" xml:space="preserve">
<g>
	<path fill="#010101" d="M5,38c-0.404,0-0.769,0.244-0.924,0.617c-0.155,0.374-0.069,0.804,0.217,1.09L16,51.414V54
		c0,3.533,2.467,6,6,6h14c3.533,0,6-2.467,6-6v-2.586l11.707-11.707c0.286-0.286,0.372-0.716,0.217-1.09
		C53.769,38.244,53.404,38,53,38H42v-2.586l11.707-11.707c0.286-0.286,0.372-0.716,0.217-1.09C53.769,22.244,53.404,22,53,22H42
		v-2.586L53.707,7.707c0.286-0.286,0.372-0.716,0.217-1.09C53.769,6.244,53.404,6,53,6H42c0-3.532-2.465-5.998-6-5.998L22,0
		c-4.959,0-6,2.719-6,5v1H5C4.596,6,4.231,6.244,4.076,6.617c-0.155,0.374-0.069,0.804,0.217,1.09L16,19.414V22H5
		c-0.404,0-0.769,0.244-0.924,0.617c-0.155,0.374-0.069,0.804,0.217,1.09L16,35.414V38H5z M7.414,40H16v8.586L7.414,40z M50.586,40
		L42,48.586V40H50.586z M50.586,24L42,32.586V24H50.586z M50.586,8L42,16.586V8H50.586z M18,5c0-1.558,0.484-3,4-3l14.004,0.002
		C38.432,2.002,40,3.571,40,6v48c0,2.43-1.57,4-4,4H22c-2.43,0-4-1.57-4-4v-3c0,0,0,0,0-0.001V35c0,0,0,0,0-0.001V19
		c0,0,0,0,0-0.001V5z M7.414,8H16v8.586L7.414,8z M7.414,24H16v8.586L7.414,24z"/>
	<path fill="#010101" d="M29,20c3.86,0,7-3.14,7-7c0-3.86-3.14-7-7-7c-3.86,0-7,3.14-7,7C22,16.86,25.14,20,29,20z M29,8
		c2.757,0,5,2.243,5,5c0,2.757-2.243,5-5,5c-2.757,0-5-2.243-5-5C24,10.243,26.243,8,29,8z"/>
	<path fill="#010101" d="M29,36c3.86,0,7-3.14,7-7c0-3.86-3.14-7-7-7c-3.86,0-7,3.14-7,7C22,32.86,25.14,36,29,36z M29,24
		c2.757,0,5,2.243,5,5c0,2.757-2.243,5-5,5c-2.757,0-5-2.243-5-5C24,26.243,26.243,24,29,24z"/>
	<path fill="#010101" d="M29,52c3.86,0,7-3.14,7-7c0-3.86-3.14-7-7-7c-3.86,0-7,3.14-7,7C22,48.86,25.14,52,29,52z M29,40
		c2.757,0,5,2.243,5,5c0,2.757-2.243,5-5,5c-2.757,0-5-2.243-5-5C24,42.243,26.243,40,29,40z"/>
</g>
</svg>
