<?xml version="1.0" encoding="utf-8"?>
<!-- Generator: Adobe Illustrator 17.0.0, SVG Export Plug-In . SVG Version: 6.00 Build 0)  -->
<!DOCTYPE svg PUBLIC "-//W3C//DTD SVG 1.1//EN" "http://www.w3.org/Graphics/SVG/1.1/DTD/svg11.dtd">
<svg version="1.1" id="Layer_1" xmlns="http://www.w3.org/2000/svg" xmlns:xlink="http://www.w3.org/1999/xlink" x="0px" y="0px"
	 width="60px" height="60px" viewBox="0 0 60 60" enable-background="new 0 0 60 60" xml:space="preserve">
<g>
	<path fill="#010101" d="M32,33v5h-6v-5c0-0.552-0.448-1-1-1H11c-0.552,0-1,0.448-1,1v16c0,0.552,0.448,1,1,1h36
		c0.552,0,1-0.448,1-1V33c0-0.552-0.448-1-1-1H33C32.448,32,32,32.448,32,33z M34,39v-5h12v14H12V34h12v5c0,0.552,0.448,1,1,1h8
		C33.552,40,34,39.552,34,39z"/>
	<path fill="#010101" d="M29,36c0.552,0,1-0.448,1-1v-2c0-0.552-0.448-1-1-1s-1,0.448-1,1v2C28,35.552,28.448,36,29,36z"/>
	<path fill="#010101" d="M42,10H16C9.831,10,4,15.831,4,22v5v28c0,0.552,0.448,1,1,1h48c0.552,0,1-0.448,1-1V27v-5
		C54,15.831,48.169,10,42,10z M42,22v4H16l-0.001-3.96C16.003,21.939,16.472,12,23,12h12C41.51,12,41.997,21.94,42,22z M6,22
		c0-5.047,4.953-10,10-10h1.902c-2.776,2.601-3.789,7.149-3.902,10v4H6V22z M52,54H6V28h46V54z M52,26h-8l-0.001-4.04
		c-0.112-2.824-1.125-7.362-3.9-9.96H42c5.047,0,10,4.953,10,10V26z"/>
</g>
</svg>
