<?xml version="1.0" encoding="utf-8"?>
<!-- Generator: Adobe Illustrator 17.0.0, SVG Export Plug-In . SVG Version: 6.00 Build 0)  -->
<!DOCTYPE svg PUBLIC "-//W3C//DTD SVG 1.1//EN" "http://www.w3.org/Graphics/SVG/1.1/DTD/svg11.dtd">
<svg version="1.1" id="Layer_1" xmlns="http://www.w3.org/2000/svg" xmlns:xlink="http://www.w3.org/1999/xlink" x="0px" y="0px"
	 width="60px" height="60px" viewBox="0 0 60 60" enable-background="new 0 0 60 60" xml:space="preserve">
<g>
	<path fill="#010101" d="M28.082,10.668l-9-9c-0.663-0.663-1.649-1.043-2.707-1.043s-2.044,0.38-2.707,1.043
		c-1.392,1.392-1.392,4.022,0,5.414l9,9c0.663,0.663,1.649,1.043,2.707,1.043c0.681,0,1.321-0.172,1.875-0.461l3.711,3.711
		L19.668,31.668c-0.391,0.391-0.391,1.023,0,1.414l5.793,5.793l-3.793,3.793c-1.096,1.096-1.566,2.525-1.322,4.024
		c0.249,1.535,1.238,2.905,2.665,3.614l23,9c0.118,0.046,0.241,0.069,0.364,0.069c0.006,0,0.014,0,0.019,0c0.553,0,1-0.448,1-1
		c0-0.198-0.057-0.382-0.156-0.537l-8.969-22.91c-0.79-1.581-2.531-2.643-4.332-2.643c-1.234,0-2.365,0.478-3.269,1.383
		l-3.793,3.793l-5.086-5.086l11.293-11.293c0.391-0.391,0.391-1.023,0-1.414l-4.417-4.417
		C29.416,13.807,29.232,11.818,28.082,10.668z M32.082,35.082c0.522-0.521,1.163-0.797,1.856-0.797c1.045,0,2.091,0.632,2.506,1.455
		l8.168,20.872l-20.789-8.131c-0.767-0.383-1.357-1.211-1.502-2.108c-0.098-0.6-0.044-1.484,0.762-2.29l3.793-3.793l2.793,2.793
		c0.195,0.195,0.451,0.293,0.707,0.293c0.256,0,0.512-0.098,0.707-0.293c0.391-0.391,0.391-1.023,0-1.414l-2.793-2.793
		L32.082,35.082z M24.082,14.668l-9-9c-0.604-0.604-0.604-1.982,0-2.586c0.286-0.286,0.77-0.457,1.293-0.457
		c0.523,0,1.007,0.171,1.293,0.457l9,9c0.604,0.604,0.604,1.982,0,2.586C26.096,15.24,24.654,15.24,24.082,14.668z"/>
</g>
</svg>
