<?xml version="1.0" encoding="utf-8"?>
<!-- Generator: Adobe Illustrator 17.0.0, SVG Export Plug-In . SVG Version: 6.00 Build 0)  -->
<!DOCTYPE svg PUBLIC "-//W3C//DTD SVG 1.1//EN" "http://www.w3.org/Graphics/SVG/1.1/DTD/svg11.dtd">
<svg version="1.1" id="Layer_1" xmlns="http://www.w3.org/2000/svg" xmlns:xlink="http://www.w3.org/1999/xlink" x="0px" y="0px"
	 width="60px" height="60px" viewBox="0 0 60 60" enable-background="new 0 0 60 60" xml:space="preserve">
<g>
	<path fill="#010101" d="M1,60h58c0.552,0,1-0.448,1-1v-8c0-0.099-0.015-0.196-0.043-0.29l-8.499-27.984
		C50.564,19.594,48.909,16,44,16h-8.356C37.688,14.349,39,11.826,39,9c0-4.962-4.038-9-9-9s-9,4.038-9,9
		c0,2.826,1.312,5.349,3.356,7H17c-4.037,0-7.279,2.577-8.458,6.71l-8.499,28C0.015,50.804,0,50.901,0,51v8C0,59.552,0.448,60,1,60z
		 M23,9c0-3.86,3.14-7,7-7s7,3.14,7,7c0,3.86-3.14,7-7,7S23,12.86,23,9z M2,51.148l8.46-27.874C11.402,19.972,13.847,18,17,18h27
		c2.862,0,4.465,1.528,5.54,5.291L58,51.148V58H2V51.148z"/>
	<path fill="#010101" d="M29.062,30h-1.655l-4.615,5.608c-0.133,0.137-0.239,0.695-0.322,0.695c0.039,0,0.145,0.37,0.322,0.574
		l4.753,5.73h1.889l-5.63-6.552L29.062,30z"/>
	<polygon fill="#010101" points="21.174,30 21.174,42.608 22.435,42.608 22.435,36.304 22.435,30 	"/>
	<path fill="#010101" d="M31.214,32.091c-1.182,1.206-1.803,2.748-1.803,4.618c0,1.836,0.483,3.314,1.553,4.432
		c1.071,1.115,2.346,1.677,4.042,1.677c1.482,0,2.559-0.347,3.819-1.041v-5.473h-3.782v1.261h2.521v3.445
		c0,0.394-1.342,0.589-2.338,0.589c-1.406,0-2.342-0.445-3.154-1.327c-0.813-0.884-1.233-2.108-1.233-3.67
		c0-1.502,0.412-2.729,1.29-3.677c0.879-0.94,1.954-1.413,3.326-1.413c1.342,0,2.109,0.311,3.37,0.931v-1.51
		c-1.261-0.431-1.861-0.649-3.217-0.649C33.8,30.283,32.398,30.886,31.214,32.091z"/>
</g>
</svg>
