<?xml version="1.0" encoding="utf-8"?>
<!-- Generator: Adobe Illustrator 17.0.0, SVG Export Plug-In . SVG Version: 6.00 Build 0)  -->
<!DOCTYPE svg PUBLIC "-//W3C//DTD SVG 1.1//EN" "http://www.w3.org/Graphics/SVG/1.1/DTD/svg11.dtd">
<svg version="1.1" xmlns="http://www.w3.org/2000/svg" xmlns:xlink="http://www.w3.org/1999/xlink" x="0px" y="0px" width="48px"
	 height="48px" viewBox="0 0 48 48" enable-background="new 0 0 48 48" xml:space="preserve">
<g id="Layer_1">
	<g>
		<path fill="#010101" d="M35.667,36.001h-22c-0.3,0-0.583,0.135-0.773,0.366c-0.19,0.231-0.266,0.536-0.207,0.83l2,10
			c0.094,0.467,0.504,0.804,0.981,0.804h18c0.477,0,0.887-0.337,0.98-0.804l2-10c0.059-0.294-0.018-0.599-0.207-0.83
			C36.25,36.136,35.967,36.001,35.667,36.001z"/>
		<path fill="#010101" d="M44.667,23.001h-2.059c-0.019-0.159-0.05-0.302-0.078-0.449l1.844-1.844c0.391-0.391,0.391-1.023,0-1.414
			c-0.391-0.391-1.023-0.391-1.414,0l-1.373,1.373c-0.259-0.234-0.568-0.401-0.92-0.51v-2.156c0-0.553-0.447-1-1-1
			c-0.553,0-1,0.447-1,1v2.154c-0.377,0.115-0.687,0.286-0.928,0.504l-1.365-1.365c-0.391-0.391-1.023-0.391-1.414,0
			c-0.391,0.391-0.391,1.023,0,1.414l1.802,1.802c-0.022,0.084-0.046,0.171-0.065,0.249c-0.279,1.114-0.385,1.242-1.03,1.242h-3v-11
			c0-0.236-0.037-0.587-0.112-1h3.112c0.553,0,1-0.447,1-1s-0.447-1-1-1h-3.706c-0.264-0.646-0.62-1.312-1.083-1.948l2.59-3.453
			c0.332-0.441,0.242-1.068-0.2-1.399c-0.44-0.33-1.068-0.242-1.399,0.2l-2.383,3.177c-0.972-0.775-2.224-1.344-3.817-1.516V1.001
			c0-0.553-0.447-1-1-1c-0.553,0-1,0.447-1,1v4.062c-1.593,0.172-2.845,0.741-3.817,1.516l-2.383-3.177
			c-0.332-0.443-0.958-0.533-1.399-0.2c-0.442,0.331-0.532,0.958-0.2,1.399l2.589,3.453c-1.375,1.887-1.79,4.102-1.79,4.948v5h-1
			c-0.448,0-1-0.552-1-1v-3c0-0.788-0.261-1.761-0.867-2.552l1.608-1.777c0.371-0.409,0.339-1.042-0.07-1.412
			c-0.409-0.372-1.041-0.339-1.412,0.07l-1.759,1.944c-0.163-0.06-0.318-0.129-0.5-0.169V8.001c0-0.553-0.447-1-1-1
			c-0.553,0-1,0.447-1,1v2.104c-0.143,0.031-0.262,0.088-0.394,0.132l-2.17-1.976C6.696,7.891,6.063,7.92,5.691,8.329
			c-0.372,0.408-0.343,1.04,0.066,1.412l1.814,1.652c-0.637,0.8-0.905,1.803-0.905,2.608v6c0,2.935,2.393,4,4,4h6v4h-3
			c-0.553,0-1,0.447-1,1s0.447,1,1,1h3v3c0,0.553,0.447,1,1,1h14c0.553,0,1-0.447,1-1v-3h6c2.663,0,4-2.564,4-4v-1h2
			c0.553,0,1-0.447,1-1S45.22,23.001,44.667,23.001z"/>
	</g>
</g>
<g id="nyt_x5F_exporter_x5F_info" display="none">
</g>
</svg>
