<?xml version="1.0" encoding="utf-8"?>
<!-- Generator: Adobe Illustrator 17.0.0, SVG Export Plug-In . SVG Version: 6.00 Build 0)  -->
<!DOCTYPE svg PUBLIC "-//W3C//DTD SVG 1.1//EN" "http://www.w3.org/Graphics/SVG/1.1/DTD/svg11.dtd">
<svg version="1.1" xmlns="http://www.w3.org/2000/svg" xmlns:xlink="http://www.w3.org/1999/xlink" x="0px" y="0px" width="48px"
	 height="48px" viewBox="0 0 48 48" enable-background="new 0 0 48 48" xml:space="preserve">
<g id="Layer_1">
	<path fill="#010101" d="M47.667,18.001c0-4.125-4.743-7-9-7c-0.809,0-1.799,0.326-2.985,0.985c0.659-1.187,0.985-2.177,0.985-2.985
		c0-4.257-2.875-9-7-9c-1.903,0-3.695,0.769-5,2.102c-1.305-1.334-3.097-2.102-5-2.102c-4.125,0-7,4.743-7,9
		c0,0.809,0.326,1.799,0.985,2.985c-1.187-0.659-2.177-0.985-2.985-0.985c-4.257,0-9,2.875-9,7c0,1.903,0.769,3.695,2.102,5
		c-1.334,1.305-2.102,3.097-2.102,5c0,4.125,4.743,7,9,7c3.28,0,10.029-3.004,13-4.407v12.407c0,2.757,1.794,5,4,5h3
		c0.553,0,1-0.447,1-1c0-0.553-0.447-1-1-1h-3c-1.084,0-2-1.374-2-3V30.595c2.971,1.403,9.719,4.407,13,4.407c4.257,0,9-2.875,9-7
		c0-1.903-0.769-3.695-2.104-5C46.898,21.697,47.667,19.905,47.667,18.001z"/>
</g>
<g id="nyt_x5F_exporter_x5F_info" display="none">
</g>
</svg>
