<?xml version="1.0" encoding="utf-8"?>
<!-- Generator: Adobe Illustrator 17.0.0, SVG Export Plug-In . SVG Version: 6.00 Build 0)  -->
<!DOCTYPE svg PUBLIC "-//W3C//DTD SVG 1.1//EN" "http://www.w3.org/Graphics/SVG/1.1/DTD/svg11.dtd">
<svg version="1.1" xmlns="http://www.w3.org/2000/svg" xmlns:xlink="http://www.w3.org/1999/xlink" x="0px" y="0px" width="48px"
	 height="48px" viewBox="0 0 48 48" enable-background="new 0 0 48 48" xml:space="preserve">
<g id="Layer_1">
	<g>
		<path fill="#010101" d="M8,28.001H1c-0.553,0-1,0.447-1,1v16c0,0.553,0.447,1,1,1h7c0.553,0,1-0.447,1-1v-16
			C9,28.449,8.553,28.001,8,28.001z"/>
		<path fill="#010101" d="M47.707,36.294c-2.35-2.348-4.373-2.998-7.022-2.242l-6.017,1.996c0.054,0.315,0.081,0.634,0.081,0.953
			c0,1.281-0.415,2.485-1.169,3.391c-0.878,1.053-2.116,1.609-3.581,1.609H19c-0.553,0-1-0.447-1-1s0.447-1,1-1h11
			c0.864,0,1.552-0.3,2.044-0.891c0.449-0.538,0.706-1.307,0.706-2.109c0-1.114-0.579-3-2.75-3h-5.595H24
			c-0.266,0-0.52-0.106-0.707-0.293c-1.114-1.114-4.154-3.707-8.293-3.707h-4c-0.553,0-1,0.447-1,1v11
			c0,0.431,0.275,0.812,0.684,0.948c3.17,1.057,5.663,1.962,7.666,2.69c4.009,1.456,6.261,2.245,8.282,2.245
			c2.424,0,4.516-1.135,8.905-3.614c2.736-1.545,6.484-3.661,11.91-6.374c0.287-0.143,0.488-0.417,0.54-0.734
			C48.038,36.844,47.935,36.521,47.707,36.294z"/>
		<path fill="#010101" d="M17.31,22.501c1.582,0,2.952-0.765,4.098-2.265c2.709,4.987,3.623,8.973,3.638,9.038
			c0.188,0.86,0.931,1.505,1.82,1.569L27,30.849c0.828,0,1.581-0.521,1.872-1.297c0.064-0.167,0.954-2.458,2.638-4.892
			c1.122,1.27,2.378,1.601,3.372,1.601c0,0,0,0,0.001,0c1.587,0,3.323-0.871,4.764-2.389c2.4-2.53,3.781-9.367,1.91-13.441
			c-0.127-0.275-0.371-0.479-0.665-0.553c-0.289-0.073-0.604-0.011-0.847,0.172c-1.753,1.322-3.372,1.74-5.086,2.184
			c-1.478,0.382-3.006,0.776-4.515,1.782c-1.737,1.159-2.735,2.754-2.74,4.374c-0.001,0.805,0.247,1.89,1.244,3.009
			c-0.575,0.75-1.087,1.499-1.527,2.21c-0.738-1.892-1.731-4.056-3.041-6.327c1.484-1.018,2.399-2.225,2.72-3.609
			c0.462-1.994-0.312-4.192-2.297-6.528c-1.855-2.188-4.341-2.935-6.972-3.727c-2.302-0.692-4.682-1.408-6.778-3.182
			c-0.23-0.196-0.539-0.279-0.836-0.218C9.921,0.078,9.666,0.266,9.524,0.534c-2.757,5.212-1.46,14.705,1.557,18.26
			C12.517,20.485,14.763,22.501,17.31,22.501z M13.529,7.8c0.042-0.122,0.109-0.238,0.201-0.34c0.012-0.013,0.027-0.017,0.039-0.029
			c0.086-0.086,0.182-0.161,0.29-0.21c0.031-0.014,0.065-0.013,0.096-0.024c0.094-0.032,0.19-0.06,0.291-0.062
			c0.077-0.002,0.152,0.017,0.227,0.032c0.046,0.01,0.095,0.01,0.14,0.026c0.108,0.039,0.21,0.1,0.303,0.178
			c0.007,0.006,0.017,0.009,0.025,0.015c0.059,0.053,0.113,0.107,0.171,0.16c0.376,0.342,0.744,0.686,1.098,1.034
			c0.113,0.111,0.219,0.223,0.329,0.334c0.306,0.307,0.608,0.614,0.898,0.924c0.083,0.089,0.163,0.179,0.246,0.269
			c0.318,0.346,0.631,0.694,0.931,1.043c0.042,0.049,0.083,0.098,0.125,0.147c1.869,2.196,3.376,4.423,4.585,6.52
			c0.003-0.002,0.006-0.004,0.009-0.006c1.121,1.945,1.998,3.806,2.682,5.481c0.024,0.059,0.046,0.116,0.07,0.174
			c0.1,0.247,0.197,0.491,0.289,0.729c0.049,0.127,0.095,0.252,0.142,0.376c0.045,0.119,0.093,0.242,0.135,0.358l0.369,1.015
			l0.535-0.938c0.013-0.022,0.029-0.047,0.042-0.07c0.033-0.058,0.073-0.121,0.108-0.18c0.182-0.312,0.376-0.63,0.586-0.96
			c0.054-0.084,0.114-0.17,0.169-0.255c0.2-0.306,0.41-0.614,0.635-0.927c0.077-0.107,0.158-0.214,0.237-0.321
			c0.049-0.067,0.097-0.133,0.148-0.2c0.001,0.001,0.003,0.003,0.005,0.004c0.171-0.226,0.344-0.451,0.527-0.676
			c0.099-0.121,0.2-0.241,0.303-0.361c0.233-0.274,0.479-0.543,0.731-0.809c0.12-0.126,0.239-0.253,0.363-0.377
			c0.256-0.256,0.526-0.502,0.799-0.745c0.134-0.119,0.265-0.241,0.404-0.357c0.295-0.246,0.607-0.474,0.922-0.699
			c0.132-0.094,0.257-0.196,0.393-0.286c0.456-0.303,0.929-0.585,1.425-0.833c0.467-0.229,1.031-0.042,1.293,0.382
			c0.015,0.024,0.038,0.039,0.05,0.065c0.061,0.123,0.094,0.252,0.103,0.38c0.008,0.128-0.007,0.259-0.049,0.385
			c-0.001,0.004-0.005,0.007-0.006,0.01c-0.042,0.12-0.104,0.23-0.185,0.325c-0.082,0.095-0.184,0.176-0.303,0.236
			c-0.003,0.001-0.005,0.004-0.007,0.006c-4.903,2.451-7.708,8.532-8.361,10.088c-0.019,0.045-0.034,0.081-0.049,0.118
			c-0.018,0.044-0.038,0.092-0.051,0.125c-0.024,0.06-0.042,0.107-0.049,0.125c0,0,0,0.001,0,0.001
			c-0.101,0.267-0.314,0.467-0.569,0.57c-0.021,0.009-0.04,0.023-0.062,0.031c-0.049,0.016-0.103,0.017-0.154,0.025
			c-0.047,0.007-0.093,0.023-0.141,0.023l-0.008,0l-0.078-0.003c-0.001,0-0.002-0.001-0.004-0.001
			c-0.392-0.03-0.719-0.299-0.851-0.666c-0.014-0.04-0.037-0.075-0.047-0.118c-0.016-0.071-1.009-4.413-3.986-9.749
			c0.002-0.003,0.004-0.005,0.005-0.008c-1.872-3.35-4.529-7.094-8.238-10.432c-0.102-0.092-0.18-0.2-0.235-0.317
			c-0.025-0.053-0.028-0.113-0.043-0.17c-0.034-0.128-0.042-0.256-0.025-0.387C13.509,7.932,13.507,7.863,13.529,7.8z"/>
	</g>
</g>
<g id="nyt_x5F_exporter_x5F_info" display="none">
</g>
</svg>
