<?xml version="1.0" encoding="utf-8"?>
<!-- Generator: Adobe Illustrator 17.0.0, SVG Export Plug-In . SVG Version: 6.00 Build 0)  -->
<!DOCTYPE svg PUBLIC "-//W3C//DTD SVG 1.1//EN" "http://www.w3.org/Graphics/SVG/1.1/DTD/svg11.dtd">
<svg version="1.1" xmlns="http://www.w3.org/2000/svg" xmlns:xlink="http://www.w3.org/1999/xlink" x="0px" y="0px" width="48px"
	 height="48px" viewBox="0 0 48 48" enable-background="new 0 0 48 48" xml:space="preserve">
<g id="Layer_1">
	<path fill="#010101" d="M45.374,3.293c-0.214-0.214-0.507-0.318-0.816-0.287C43.183,3.157,10.788,6.884,3.454,22.461
		c-2.372,5.04-1.838,10.727,1.575,16.935l-1.483,1.483C2.979,41.445,2.667,42.199,2.667,43s0.312,1.555,0.879,2.121
		C4.112,45.687,4.866,46,5.667,46s1.555-0.312,2.121-0.879l1.491-1.491c3.656,2.005,7.15,3.037,10.412,3.037
		c8.801,0,16.09-7.435,21.078-21.499c3.69-10.406,4.88-20.953,4.892-21.059C45.694,3.807,45.589,3.507,45.374,3.293z M8.95,41.131
		l-1.452,1.452h0l-1.124,1.124c-0.003,0.003-0.008,0.004-0.011,0.007c-0.381,0.37-1.011,0.37-1.392,0
		c-0.003-0.003-0.008-0.004-0.011-0.007c-0.097-0.097-0.17-0.209-0.22-0.33C4.693,43.259,4.667,43.132,4.667,43
		c0-0.133,0.026-0.259,0.074-0.377c0.049-0.121,0.122-0.233,0.22-0.33l1.12-1.12v0l1.451-1.451l4.136-4.136v0V26
		c0-0.552,0.448-1,1-1s1,0.448,1,1v7.585v0l3.111-3.111l3.889-3.889v0V20c0-0.552,0.448-1,1-1s1,0.448,1,1v4.584v0.001l6-6.002V16
		c0-0.552,0.448-1,1-1s1,0.448,1,1v2h2c0.552,0,1,0.448,1,1s-0.448,1-1,1h-2.588l-6,6h0h4.587c0.552,0,1,0.448,1,1
		c0,0.552-0.448,1-1,1H22.08h0l-3.889,3.889L15.08,35h0h7.587c0.552,0,1,0.448,1,1s-0.448,1-1,1h-9.586h-0.001L8.95,41.131z"/>
</g>
<g id="nyt_x5F_exporter_x5F_info" display="none">
</g>
</svg>
