<?xml version="1.0" encoding="utf-8"?>
<!-- Generator: Adobe Illustrator 17.0.0, SVG Export Plug-In . SVG Version: 6.00 Build 0)  -->
<!DOCTYPE svg PUBLIC "-//W3C//DTD SVG 1.1//EN" "http://www.w3.org/Graphics/SVG/1.1/DTD/svg11.dtd">
<svg version="1.1" xmlns="http://www.w3.org/2000/svg" xmlns:xlink="http://www.w3.org/1999/xlink" x="0px" y="0px" width="48px"
	 height="48px" viewBox="0 0 48 48" enable-background="new 0 0 48 48" xml:space="preserve">
<g id="Layer_1">
	<g>
		<path fill="#010101" d="M23.564,24.477c1.548,1.243,2.898,1.906,3.916,1.906c1.324,0,2.289-1.227,2.868-3.649
			c0.838-3.498-1.558-10.76-5.143-14.133c-1.236,2.273-2.957,3.912-4.5,5.383c-1.847,1.759-3.441,3.277-3.972,5.491
			c-0.415,1.734-0.299,3.126,0.327,3.919c0.509,0.645,1.415,0.972,2.694,0.972c0.54,0,1.164-0.08,1.823-0.197
			c0.128-3.803,0.73-7.552,2.295-10.037c0.295-0.466,0.911-0.606,1.38-0.312c0.467,0.294,0.608,0.911,0.313,1.379
			C24.173,17.41,23.655,20.897,23.564,24.477z"/>
		<path fill="#010101" d="M23.667,0.001c-10.477,0-19,8.075-19,18c0,7.727,5.308,14.643,13,17.07v1.93c0,0.553,0.447,1,1,1h3.984
			c-0.189-1.059-1.06-6.253-1.099-11.799c-0.636,0.097-1.247,0.164-1.797,0.164c-1.923,0-3.357-0.583-4.265-1.733
			c-1.027-1.302-1.271-3.246-0.702-5.623c0.669-2.789,2.548-4.579,4.537-6.474c1.74-1.657,3.54-3.372,4.61-5.902
			c0.118-0.278,0.355-0.489,0.646-0.572c0.294-0.082,0.604-0.029,0.852,0.146c4.814,3.405,7.946,12.459,6.86,16.993
			c-1.025,4.284-3.184,5.184-4.814,5.184c-1.185,0-2.479-0.474-3.919-1.427c0.131,5.609,1.072,10.771,1.089,10.863
			c0.012,0.062-0.003,0.121-0.003,0.183h4.02c0.553,0,1-0.447,1-1v-1.93c7.692-2.428,13-9.344,13-17.07
			C42.667,8.077,34.144,0.001,23.667,0.001z"/>
		<path fill="#010101" d="M28.667,40.001h-10c-0.553,0-1,0.447-1,1s0.447,1,1,1h10c0.553,0,1-0.447,1-1S29.22,40.001,28.667,40.001z
			"/>
		<path fill="#010101" d="M28.667,44.001h-10c-0.553,0-1,0.447-1,1s0.447,1,1,1h4v1c0,0.553,0.447,1,1,1c0.553,0,1-0.447,1-1v-1h4
			c0.553,0,1-0.447,1-1S29.22,44.001,28.667,44.001z"/>
	</g>
</g>
<g id="nyt_x5F_exporter_x5F_info" display="none">
</g>
</svg>
