<?xml version="1.0" encoding="utf-8"?>
<!-- Generator: Adobe Illustrator 17.0.0, SVG Export Plug-In . SVG Version: 6.00 Build 0)  -->
<!DOCTYPE svg PUBLIC "-//W3C//DTD SVG 1.1//EN" "http://www.w3.org/Graphics/SVG/1.1/DTD/svg11.dtd">
<svg version="1.1" xmlns="http://www.w3.org/2000/svg" xmlns:xlink="http://www.w3.org/1999/xlink" x="0px" y="0px" width="48px"
	 height="48px" viewBox="0 0 48 48" enable-background="new 0 0 48 48" xml:space="preserve">
<g id="Layer_1">
	<path fill="#010101" d="M42,10.001h-2.425c-0.728-1.148-2.692-3.692-5.975-3.975C32.663,4.46,29.511,0.001,24,0.001
		c-5.511,0-8.663,4.459-9.601,6.025c-3.282,0.282-5.247,2.826-5.975,3.975H6c-2.446,0-6,2.337-6,6c0,3.532,2.468,6,6,6h9.586
		L23,29.416v4.586h-8c-0.321,0-0.623,0.154-0.812,0.415c-0.187,0.261-0.239,0.597-0.137,0.901l4,12
		c0.136,0.408,0.517,0.684,0.948,0.684h10c0.431,0,0.812-0.275,0.948-0.684l4-12c0.103-0.305,0.051-0.641-0.137-0.901
		c-0.188-0.261-0.49-0.415-0.811-0.415h-8v-4.586l7.414-7.414H42c3.532,0,6-2.468,6-6C48,12.338,44.446,10.001,42,10.001z
		 M23,26.587l-4.586-4.586H23V26.587z M25,26.587v-4.586h4.586L25,26.587z"/>
</g>
<g id="nyt_x5F_exporter_x5F_info" display="none">
</g>
</svg>
