<?xml version="1.0" encoding="utf-8"?>
<!-- Generator: Adobe Illustrator 17.0.0, SVG Export Plug-In . SVG Version: 6.00 Build 0)  -->
<!DOCTYPE svg PUBLIC "-//W3C//DTD SVG 1.1//EN" "http://www.w3.org/Graphics/SVG/1.1/DTD/svg11.dtd">
<svg version="1.1" xmlns="http://www.w3.org/2000/svg" xmlns:xlink="http://www.w3.org/1999/xlink" x="0px" y="0px" width="48px"
	 height="48px" viewBox="0 0 48 48" enable-background="new 0 0 48 48" xml:space="preserve">
<g id="Layer_1">
	<g>
		<path fill="#010101" d="M33.958,10.027C33.627,6.089,31.275,0.001,24,0.001c-7.277,0-9.629,6.091-9.958,10.027
			C7.114,10.434,4,15.238,4,20.001c0,5.636,4.112,9,11,9h18c6.888,0,11-3.364,11-9C44,14.036,40.268,10.36,33.958,10.027z"/>
		<path fill="#010101" d="M26,35.001c0.553,0,1-0.447,1-1v-3c0-0.553-0.447-1-1-1h-4c-0.553,0-1,0.447-1,1v3c0,0.553,0.447,1,1,1H26
			z"/>
		<path fill="#010101" d="M33,36.001H15c-0.332,0-0.642,0.165-0.828,0.439c-0.186,0.274-0.224,0.624-0.101,0.932l4,10
			c0.152,0.38,0.52,0.629,0.929,0.629h10c0.409,0,0.776-0.249,0.929-0.629l4-10c0.123-0.308,0.085-0.657-0.101-0.932
			C33.642,36.166,33.332,36.001,33,36.001z"/>
	</g>
</g>
<g id="nyt_x5F_exporter_x5F_info" display="none">
</g>
</svg>
