<?xml version="1.0" encoding="utf-8"?>
<!-- Generator: Adobe Illustrator 16.0.3, SVG Export Plug-In . SVG Version: 6.00 Build 0)  -->
<!DOCTYPE svg PUBLIC "-//W3C//DTD SVG 1.1//EN" "http://www.w3.org/Graphics/SVG/1.1/DTD/svg11.dtd">
<svg version="1.1" xmlns="http://www.w3.org/2000/svg" xmlns:xlink="http://www.w3.org/1999/xlink" x="0px" y="0px" width="24px"
	 height="24px" viewBox="0 0 24 24" enable-background="new 0 0 24 24" xml:space="preserve">
<g id="Outline_Icons">
	<g>
		<polyline fill="none"  stroke-linecap="round" stroke-linejoin="round" stroke-miterlimit="10" points="
			7.219,13.5 0.5,13.5 0.5,10.5 7.203,10.5 		"/>
		<polyline fill="none"  stroke-linecap="round" stroke-linejoin="round" stroke-miterlimit="10" points="
			13.5,16.766 13.5,23.5 10.5,23.5 10.5,16.766 		"/>
		<polyline fill="none"  stroke-linecap="round" stroke-linejoin="round" stroke-miterlimit="10" points="
			16.766,10.5 23.5,10.5 23.5,13.5 16.75,13.5 		"/>
		<polyline fill="none"  stroke-linecap="round" stroke-linejoin="round" stroke-miterlimit="10" points="
			10.5,7.219 10.5,0.5 13.5,0.5 13.5,7.234 		"/>

			<circle fill="none"  stroke-linecap="round" stroke-linejoin="round" stroke-miterlimit="10" cx="12" cy="12" r="5"/>
		<path fill="none"  stroke-linecap="round" stroke-linejoin="round" stroke-miterlimit="10" d="M13.5,1.607
			c4.598,0.659,8.235,4.294,8.893,8.893"/>
		<path fill="none"  stroke-linecap="round" stroke-linejoin="round" stroke-miterlimit="10" d="M1.605,10.5
			C2.264,5.901,5.9,2.266,10.5,1.607"/>
		<path fill="none"  stroke-linecap="round" stroke-linejoin="round" stroke-miterlimit="10" d="M10.5,22.394
			C5.9,21.737,2.264,18.1,1.605,13.5"/>
		<path fill="none"  stroke-linecap="round" stroke-linejoin="round" stroke-miterlimit="10" d="M22.393,13.5
			c-0.657,4.6-4.295,8.237-8.893,8.894"/>
	</g>
</g>
</svg>
