<svg viewBox="0 0 24 24" xmlns="http://www.w3.org/2000/svg">
  <g fill-rule="evenodd" stroke-width="0">
    <path d="M0 0v24h24V4l-4-4H0zm18 8H5V1h13v7zM5 23.02V14h14v9.02H5zM20 23V13H4v10H1V1h3v8h15V1l4 4v18h-3zM6.556 16h3.888c.308 0 .556-.223.556-.5s-.248-.5-.556-.5H6.556c-.308 0-.556.223-.556.5s.248.5.556.5zm4.944 1h-5c-.277 0-.5.224-.5.5s.223.5.5.5h5c.277 0 .5-.224.5-.5s-.223-.5-.5-.5zm1.645.14c-.09.095-.145.226-.145.357 0 .13.055.26.145.357.095.09.22.146.355.146.13 0 .26-.055.355-.146.09-.096.145-.226.145-.357 0-.13-.055-.262-.145-.357-.185-.187-.525-.187-.71 0z"/>
    <path d="M17 2h-5v5h5V2zm-1 4h-3V3h3v3z"/>
  </g>
</svg>
