<?xml version="1.0" encoding="utf-8"?>
<!-- Generator: Adobe Illustrator 16.0.3, SVG Export Plug-In . SVG Version: 6.00 Build 0)  -->
<!DOCTYPE svg PUBLIC "-//W3C//DTD SVG 1.1//EN" "http://www.w3.org/Graphics/SVG/1.1/DTD/svg11.dtd">
<svg version="1.1" xmlns="http://www.w3.org/2000/svg" xmlns:xlink="http://www.w3.org/1999/xlink" x="0px" y="0px" width="24px"
	 height="24px" viewBox="0 0 24 24" enable-background="new 0 0 24 24" xml:space="preserve">
<g id="Outline_Icons">
	<g>
		<g>
			<path fill="none"  stroke-linejoin="round" stroke-miterlimit="10" d="M3.561,22.56
				c-0.586,0.587-1.537,0.587-2.121,0c-0.586-0.585-0.586-1.534,0-2.12l6.57-6.572l2.121,2.121L3.561,22.56z"/>

				<line fill="none"  stroke-linecap="round" stroke-linejoin="round" stroke-miterlimit="10" x1="6.951" y1="12.807" x2="11.191" y2="17.049"/>

				<line fill="none"  stroke-linejoin="round" stroke-miterlimit="10" x1="19.75" y1="4.25" x2="9.062" y2="14.938"/>
			<polygon fill="none"  stroke-linejoin="round" stroke-miterlimit="10" points="20.934,5.433 18.459,2.96 22,0.5
				23.5,2 			"/>
		</g>
		<path fill="none"  stroke-linejoin="round" stroke-miterlimit="10" d="M11.89,9.812L8.145,6.068
			c0.616-1.456,0.334-3.203-0.854-4.39C6.104,0.493,4.434,0.21,2.977,0.825L5,2.934V5H2.846L0.781,3.02
			C0.165,4.478,0.448,6.186,1.635,7.372C2.821,8.56,4.568,8.823,6.023,8.207l3.746,3.738"/>
		<path fill="none"  stroke-linejoin="round" stroke-miterlimit="10" d="M11.89,14.055l3.747,3.748
			c-0.616,1.456-0.334,3.202,0.854,4.389c1.187,1.186,2.933,1.468,4.39,0.853l-2.034-2.11v-2h2L23,20.923
			c0.616-1.456,0.333-3.202-0.854-4.388c-1.187-1.188-2.933-1.471-4.389-0.854l-3.745-3.747"/>
	</g>
</g>
</svg>
