<?xml version="1.0" encoding="utf-8"?>
<!-- Generator: Adobe Illustrator 17.0.0, SVG Export Plug-In . SVG Version: 6.00 Build 0)  -->
<!DOCTYPE svg PUBLIC "-//W3C//DTD SVG 1.1//EN" "http://www.w3.org/Graphics/SVG/1.1/DTD/svg11.dtd">
<svg version="1.1" id="Layer_1" xmlns="http://www.w3.org/2000/svg" xmlns:xlink="http://www.w3.org/1999/xlink" x="0px" y="0px"
	 width="60px" height="60px" viewBox="0 0 60 60" enable-background="new 0 0 60 60" xml:space="preserve">
<g>
	<path fill="#231F20" d="M5,46h17.435c0.553,0,1-0.448,1-1s-0.447-1-1-1H8.874C9.565,43.138,10,42.083,10,41V14h40v8.435
		c0,0.552,0.447,1,1,1c0.553,0,1-0.448,1-1V13c0-0.552-0.447-1-1-1h-3V7c0-0.552-0.447-1-1-1H14V1c0-0.552-0.447-1-1-1H1
		C0.447,0,0,0.448,0,1v40C0,43.664,2.337,46,5,46z M2,2h10v5c0,0.552,0.447,1,1,1h33v4H9c-0.553,0-1,0.448-1,1v28
		c0,1.322-1.412,3-3,3c-1.542,0-3-1.458-3-3V2z"/>
	<path fill="#231F20" d="M45,30c-8.272,0-15,6.729-15,15s6.728,15,15,15c8.271,0,15-6.729,15-15S53.271,30,45,30z M45,32
		c3.225,0,6.173,1.187,8.447,3.139L35.139,53.447C33.187,51.173,32,48.225,32,45C32,37.831,37.832,32,45,32z M45,58
		c-3.225,0-6.173-1.187-8.447-3.139l18.309-18.309C56.813,38.827,58,41.775,58,45C58,52.169,52.168,58,45,58z"/>
</g>
</svg>
