<?xml version="1.0" encoding="utf-8"?>
<!-- Generator: Adobe Illustrator 17.0.0, SVG Export Plug-In . SVG Version: 6.00 Build 0)  -->
<!DOCTYPE svg PUBLIC "-//W3C//DTD SVG 1.1//EN" "http://www.w3.org/Graphics/SVG/1.1/DTD/svg11.dtd">
<svg version="1.1" id="Layer_1" xmlns="http://www.w3.org/2000/svg" xmlns:xlink="http://www.w3.org/1999/xlink" x="0px" y="0px"
	 width="60px" height="60px" viewBox="0 0 60 60" enable-background="new 0 0 60 60" xml:space="preserve">
<g>
	<path fill="#231F20" d="M5,46h17.435c0.552,0,1-0.448,1-1s-0.448-1-1-1H8.874C9.565,43.138,10,42.083,10,41V14h40v8.435
		c0,0.552,0.448,1,1,1s1-0.448,1-1V13c0-0.552-0.448-1-1-1h-3V7c0-0.552-0.448-1-1-1H14V1c0-0.552-0.448-1-1-1H1
		C0.448,0,0,0.448,0,1v40C0,43.664,2.336,46,5,46z M2,2h10v5c0,0.552,0.448,1,1,1h33v4H9c-0.552,0-1,0.448-1,1v28
		c0,1.322-1.413,3-3,3c-1.542,0-3-1.458-3-3V2z"/>
	<path fill="#231F20" d="M59,40h-4v-2c0-4.71-3.29-8-8-8s-8,3.29-8,8v2h-4c-0.552,0-1,0.448-1,1v18c0,0.552,0.448,1,1,1h24
		c0.552,0,1-0.448,1-1V41C60,40.448,59.552,40,59,40z M41,38c0-3.645,2.355-6,6-6s6,2.355,6,6v2H41V38z M58,58H36V42h17.598
		c0.123,0.054,0.258,0.087,0.402,0.087s0.278-0.033,0.402-0.087H58V58z"/>
	<path fill="#231F20" d="M47,44.652c-1.654,0-3,1.346-3,3c0,1.302,0.839,2.402,2,2.816v3.489c0,0.552,0.448,1,1,1s1-0.448,1-1
		v-3.488c1.161-0.414,2-1.514,2-2.816C50,45.998,48.654,44.652,47,44.652z M47,48.652c-0.551,0-1-0.449-1-1c0-0.551,0.449-1,1-1
		c0.551,0,1,0.449,1,1C48,48.204,47.551,48.652,47,48.652z"/>
</g>
</svg>
