<?xml version="1.0" encoding="utf-8"?>
<!-- Generator: Adobe Illustrator 17.0.0, SVG Export Plug-In . SVG Version: 6.00 Build 0)  -->
<!DOCTYPE svg PUBLIC "-//W3C//DTD SVG 1.1//EN" "http://www.w3.org/Graphics/SVG/1.1/DTD/svg11.dtd">
<svg version="1.1" id="Layer_1" xmlns="http://www.w3.org/2000/svg" xmlns:xlink="http://www.w3.org/1999/xlink" x="0px" y="0px"
	 width="60px" height="60px" viewBox="0 0 60 60" enable-background="new 0 0 60 60" xml:space="preserve">
<g>
	<path fill="#231F20" d="M51.707,0.293c-0.391-0.391-1.023-0.391-1.414,0l-4.999,4.999c-0.093,0.092-0.166,0.203-0.217,0.326
		c-0.101,0.244-0.101,0.52,0,0.764c0.051,0.123,0.124,0.234,0.217,0.326l4.999,4.999C50.488,11.902,50.744,12,51,12
		c0.256,0,0.512-0.098,0.707-0.293c0.391-0.391,0.391-1.023,0-1.414L48.414,7H53c1.486,0,3,1.514,3,3v11c0,0.552,0.447,1,1,1
		c0.553,0,1-0.448,1-1V10c0-2.617-2.383-5-5-5h-4.586l3.293-3.293C52.098,1.316,52.098,0.684,51.707,0.293z"/>
	<path fill="#231F20" d="M59,36h-5v-5c0-0.552-0.447-1-1-1H40.186c0.114-0.106,0.233-0.207,0.338-0.321
		c1.124-1.221,1.633-2.883,1.477-4.723V11c0-0.552-0.447-1-1-1h-3V5c0-0.552-0.447-1-1-1H14V1c0-0.552-0.447-1-1-1H1
		C0.447,0,0,0.448,0,1v26.479C0,30.225,1.963,32,5,32h13v23c0,2.25,2.308,5,5,5h28.435C56.317,60,60,56.56,60,52V37
		C60,36.448,59.553,36,59,36z M2,27.479V2h10v3c0,0.552,0.447,1,1,1h23v4H9c-0.553,0-1,0.448-1,1v16.479C8,29.672,6.12,30,5,30
		C3.88,30,2,29.672,2,27.479z M9.283,30C9.741,29.305,10,28.457,10,27.479V12h30l0.004,13.04c0.113,1.37-0.207,2.476-0.952,3.286
		C38.058,29.405,36.264,30,34,30h-4.261v-1c0-0.552-0.447-1-1-1H19c-0.553,0-1,0.448-1,1v1H9.283z M26,37v18c0,1.254-1.512,3-3,3
		c-1.517,0-3-1.718-3-3V30h7.739v1c0,0.552,0.447,1,1,1H29h5h18v4H27C26.447,36,26,36.448,26,37z M58,52c0,3.477-2.761,6-6.565,6
		H26.81c0.737-0.91,1.19-2.004,1.19-3V38h30V52z"/>
	<path fill="#231F20" d="M14.923,53.618c-0.051-0.123-0.124-0.234-0.217-0.326l-4.999-4.999c-0.391-0.391-1.023-0.391-1.414,0
		c-0.391,0.391-0.391,1.023,0,1.414L11.586,53H7c-1.588,0-3-1.581-3-2.826V41c0-0.552-0.447-1-1-1c-0.553,0-1,0.448-1,1v9.174
		C2,52.655,4.43,55,7,55h4.586l-3.293,3.293c-0.391,0.391-0.391,1.023,0,1.414C8.488,59.902,8.744,60,9,60
		c0.256,0,0.512-0.098,0.707-0.293l4.999-4.999c0.093-0.092,0.166-0.203,0.217-0.326C15.024,54.138,15.024,53.862,14.923,53.618z"/>
</g>
</svg>
