<?xml version="1.0" encoding="utf-8"?>
<!-- Generator: Adobe Illustrator 17.0.0, SVG Export Plug-In . SVG Version: 6.00 Build 0)  -->
<!DOCTYPE svg PUBLIC "-//W3C//DTD SVG 1.1//EN" "http://www.w3.org/Graphics/SVG/1.1/DTD/svg11.dtd">
<svg version="1.1" id="Layer_1" xmlns="http://www.w3.org/2000/svg" xmlns:xlink="http://www.w3.org/1999/xlink" x="0px" y="0px"
	 width="60px" height="60px" viewBox="0 0 60 60" enable-background="new 0 0 60 60" xml:space="preserve">
<g>
	<path fill="#231F20" d="M59,16h-7v-5c0-0.552-0.448-1-1-1H20V7c0-0.552-0.448-1-1-1H1C0.448,6,0,6.448,0,7v42c0,4.056,2.944,7,7,7
		h44c4.71,0,9-4.248,9-8.913V17C60,16.448,59.552,16,59,16z M12,49c0,2.991-2.009,5-5,5c-2.944,0-5-2.056-5-5V8h16v3
		c0,0.552,0.448,1,1,1h31v4H13c-0.552,0-1,0.448-1,1V49z M58,47.087C58,50.705,54.664,54,51,54H12.091
		C13.298,52.768,14,51.036,14,49V18h44V47.087z"/>
</g>
</svg>
