<?xml version="1.0" encoding="utf-8"?>
<!-- Generator: Adobe Illustrator 17.0.0, SVG Export Plug-In . SVG Version: 6.00 Build 0)  -->
<!DOCTYPE svg PUBLIC "-//W3C//DTD SVG 1.1//EN" "http://www.w3.org/Graphics/SVG/1.1/DTD/svg11.dtd">
<svg version="1.1" id="Layer_1" xmlns="http://www.w3.org/2000/svg" xmlns:xlink="http://www.w3.org/1999/xlink" x="0px" y="0px"
	 width="60px" height="60px" viewBox="0 0 60 60" enable-background="new 0 0 60 60" xml:space="preserve">
<g>
	<path fill="#231F20" d="M5,46h17.435c0.552,0,1-0.448,1-1s-0.448-1-1-1H8.874C9.565,43.138,10,42.083,10,41V14h40v8.435
		c0,0.552,0.448,1,1,1s1-0.448,1-1V13c0-0.552-0.448-1-1-1h-3V7c0-0.552-0.448-1-1-1H14V1c0-0.552-0.448-1-1-1H1
		C0.448,0,0,0.448,0,1v40C0,43.664,2.336,46,5,46z M2,2h10v5c0,0.552,0.448,1,1,1h33v4H9c-0.552,0-1,0.448-1,1v28
		c0,1.322-1.413,3-3,3c-1.542,0-3-1.458-3-3V2z"/>
	<path fill="#231F20" d="M50.435,43c0,0.552,0.448,1,1,1H58v-7.696c0-0.552-0.448-1-1-1s-1,0.448-1,1v3.332
		C53.617,36.751,50.328,35,47,35c-6.559,0-11.696,5.558-11.696,12.652h2C37.304,41.679,41.563,37,47,37c3.66,0,6.55,2.453,8.258,5
		h-3.823C50.882,42,50.435,42.448,50.435,43z"/>
	<path fill="#231F20" d="M48,58c-3.665,0-7.181-1.588-9.156-4h3.764c0.552,0,1-0.448,1-1s-0.448-1-1-1H36v5.739c0,0.552,0.448,1,1,1
		s1-0.448,1-1v-1.702C40.422,58.457,44.154,60,48,60c6.729,0,12-5.424,12-12.348h-2C58,53.455,53.607,58,48,58z"/>
</g>
</svg>
