<?xml version="1.0" encoding="utf-8"?>
<!-- Generator: Adobe Illustrator 17.0.0, SVG Export Plug-In . SVG Version: 6.00 Build 0)  -->
<!DOCTYPE svg PUBLIC "-//W3C//DTD SVG 1.1//EN" "http://www.w3.org/Graphics/SVG/1.1/DTD/svg11.dtd">
<svg version="1.1" id="Layer_1" xmlns="http://www.w3.org/2000/svg" xmlns:xlink="http://www.w3.org/1999/xlink" x="0px" y="0px"
	 width="60px" height="60px" viewBox="0 0 60 60" enable-background="new 0 0 60 60" xml:space="preserve">
<g>
	<path fill="#231F20" d="M29.737,44.652c0.634,0,1.281-0.068,1.922-0.203c1.681-0.354,3.18-1.134,4.222-2.199
		c1.084-1.107,1.561-2.4,1.373-3.663l1.716-12.089c1.179,0.255,2.869,0.835,3.654,1.942c0.458,0.646,0.566,1.418,0.33,2.361
		c-0.134,0.536,0.192,1.079,0.728,1.213c0.537,0.134,1.079-0.191,1.213-0.728c0.38-1.522,0.165-2.869-0.639-4.003
		c-1.78-2.509-5.868-2.913-6.041-2.928c-0.531-0.047-1.007,0.327-1.082,0.855l-1.534,10.805c-1.011-0.728-2.394-1.162-3.988-1.162
		c-0.637,0-1.286,0.069-1.928,0.205c-3.675,0.771-6.121,3.44-5.568,6.075C24.56,43.238,26.819,44.652,29.737,44.652z M30.096,37.015
		c0.507-0.107,1.017-0.162,1.515-0.162c1.914,0,3.417,0.793,3.656,1.93c0.187,0.885-0.431,1.676-0.815,2.068
		c-0.757,0.773-1.926,1.372-3.205,1.641c-0.506,0.106-1.014,0.16-1.51,0.16c-1.918,0-3.425-0.795-3.665-1.931
		C25.76,39.235,27.602,37.538,30.096,37.015z"/>
	<path fill="#231F20" d="M59,16h-7v-5c0-0.552-0.448-1-1-1H20V7c0-0.552-0.448-1-1-1H1C0.448,6,0,6.448,0,7v42c0,4.056,2.944,7,7,7
		h44c4.71,0,9-4.248,9-8.913V17C60,16.448,59.552,16,59,16z M12,49c0,2.991-2.009,5-5,5c-2.944,0-5-2.056-5-5V8h16v3
		c0,0.552,0.448,1,1,1h31v4H13c-0.552,0-1,0.448-1,1V49z M58,47.087C58,50.705,54.664,54,51,54H12.091
		C13.298,52.768,14,51.036,14,49V18h44V47.087z"/>
</g>
</svg>
