<?xml version="1.0" encoding="utf-8"?>
<!-- Generator: Adobe Illustrator 17.0.0, SVG Export Plug-In . SVG Version: 6.00 Build 0)  -->
<!DOCTYPE svg PUBLIC "-//W3C//DTD SVG 1.1//EN" "http://www.w3.org/Graphics/SVG/1.1/DTD/svg11.dtd">
<svg version="1.1" id="Layer_1" xmlns="http://www.w3.org/2000/svg" xmlns:xlink="http://www.w3.org/1999/xlink" x="0px" y="0px"
	 width="60px" height="60px" viewBox="0 0 60 60" enable-background="new 0 0 60 60" xml:space="preserve">
<g>
	<path fill="#231F20" d="M5,46h17.435c0.553,0,1-0.448,1-1s-0.447-1-1-1H8.874C9.565,43.138,10,42.083,10,41V14h40v8.435
		c0,0.552,0.447,1,1,1c0.553,0,1-0.448,1-1V13c0-0.552-0.447-1-1-1h-3V7c0-0.552-0.447-1-1-1H14V1c0-0.552-0.447-1-1-1H1
		C0.447,0,0,0.448,0,1v40C0,43.664,2.337,46,5,46z M2,2h10v5c0,0.552,0.447,1,1,1h33v4H9c-0.553,0-1,0.448-1,1v28
		c0,1.322-1.412,3-3,3c-1.542,0-3-1.458-3-3V2z"/>
	<path fill="#231F20" d="M33.072,49.467c-0.084,0.084-0.146,0.186-0.195,0.294c-0.011,0.025-0.022,0.048-0.032,0.073
		c-0.008,0.022-0.021,0.042-0.028,0.065l-2.523,8.826c-0.1,0.349-0.002,0.725,0.255,0.982C30.74,59.898,30.995,60,31.257,60
		c0.092,0,0.185-0.013,0.274-0.039l8.826-2.522c0.022-0.006,0.042-0.019,0.063-0.027c0.026-0.009,0.05-0.021,0.076-0.032
		c0.108-0.049,0.209-0.111,0.293-0.195l18.917-18.917C59.894,38.081,60,37.827,60,37.562c0-0.265-0.106-0.52-0.293-0.707
		l-6.305-6.304c-0.391-0.391-1.023-0.391-1.414,0L33.072,49.467z M40.083,55.065l-4.89-4.891l12.459-12.459l4.89,4.891
		L40.083,55.065z M34.274,52.083l3.901,3.901l-5.462,1.56L34.274,52.083z M57.586,37.562l-3.63,3.63l-4.89-4.891l3.629-3.629
		L57.586,37.562z"/>
</g>
</svg>
