<?xml version="1.0" encoding="utf-8"?>
<!-- Generator: Adobe Illustrator 17.0.0, SVG Export Plug-In . SVG Version: 6.00 Build 0)  -->
<!DOCTYPE svg PUBLIC "-//W3C//DTD SVG 1.1//EN" "http://www.w3.org/Graphics/SVG/1.1/DTD/svg11.dtd">
<svg version="1.1" id="Layer_1" xmlns="http://www.w3.org/2000/svg" xmlns:xlink="http://www.w3.org/1999/xlink" x="0px" y="0px"
	 width="60px" height="60px" viewBox="0 0 60 60" enable-background="new 0 0 60 60" xml:space="preserve">
<g>
	<path fill="#231F20" d="M1.739,4.783c-0.7,0-1.261,0.564-1.261,1.261c0,0.697,0.561,1.261,1.261,1.261C2.434,7.304,3,6.74,3,6.044
		C3,5.347,2.434,4.783,1.739,4.783z"/>
	<path fill="#231F20" d="M1.739,9.826c-0.7,0-1.261,0.564-1.261,1.261s0.561,1.261,1.261,1.261C2.434,12.348,3,11.784,3,11.087
		S2.434,9.826,1.739,9.826z"/>
	<path fill="#231F20" d="M1.739,14.87c-0.7,0-1.261,0.564-1.261,1.261c0,0.697,0.561,1.261,1.261,1.261
		C2.434,17.391,3,16.827,3,16.13C3,15.434,2.434,14.87,1.739,14.87z"/>
	<path fill="#231F20" d="M1.739,19.913c-0.7,0-1.261,0.564-1.261,1.261c0,0.697,0.561,1.261,1.261,1.261
		C2.434,22.435,3,21.871,3,21.174C3,20.477,2.434,19.913,1.739,19.913z"/>
	<path fill="#231F20" d="M1.739,24.956c-0.7,0-1.261,0.564-1.261,1.261c0,0.697,0.561,1.261,1.261,1.261
		C2.434,27.479,3,26.914,3,26.217C3,25.521,2.434,24.956,1.739,24.956z"/>
	<path fill="#231F20" d="M1.739,30c-0.7,0-1.261,0.564-1.261,1.261c0,0.697,0.561,1.261,1.261,1.261C2.434,32.522,3,31.958,3,31.261
		C3,30.564,2.434,30,1.739,30z"/>
	<path fill="#231F20" d="M1.739,35.044c-0.7,0-1.261,0.564-1.261,1.261c0,0.697,0.561,1.261,1.261,1.261
		C2.434,37.565,3,37.002,3,36.304C3,35.607,2.434,35.044,1.739,35.044z"/>
	<path fill="#231F20" d="M1.739,40.087c-0.7,0-1.261,0.564-1.261,1.261c0,0.697,0.561,1.261,1.261,1.261
		C2.434,42.609,3,42.045,3,41.348C3,40.651,2.434,40.087,1.739,40.087z"/>
	<path fill="#231F20" d="M1.739,45.13c-0.7,0-1.261,0.564-1.261,1.261c0,0.697,0.561,1.261,1.261,1.261
		C2.434,47.652,3,47.088,3,46.391C3,45.694,2.434,45.13,1.739,45.13z"/>
	<path fill="#231F20" d="M4.261,50.174C3.56,50.174,3,50.738,3,51.435c0,0.697,0.56,1.261,1.261,1.261
		c0.694,0,1.261-0.564,1.261-1.261C5.521,50.738,4.955,50.174,4.261,50.174z"/>
	<path fill="#231F20" d="M24.435,52.696c-0.7,0-1.261,0.564-1.261,1.261c0,0.697,0.561,1.261,1.261,1.261
		c0.695,0,1.261-0.564,1.261-1.261C25.696,53.26,25.129,52.696,24.435,52.696z"/>
	<path fill="#231F20" d="M19.391,52.696c-0.7,0-1.261,0.564-1.261,1.261c0,0.697,0.561,1.261,1.261,1.261
		c0.695,0,1.261-0.564,1.261-1.261C20.652,53.26,20.086,52.696,19.391,52.696z"/>
	<path fill="#231F20" d="M29.479,52.696c-0.7,0-1.261,0.564-1.261,1.261c0,0.697,0.561,1.261,1.261,1.261
		c0.694,0,1.261-0.564,1.261-1.261C30.739,53.26,30.173,52.696,29.479,52.696z"/>
	<path fill="#231F20" d="M34.521,52.696c-0.7,0-1.261,0.564-1.261,1.261c0,0.697,0.561,1.261,1.261,1.261
		c0.695,0,1.261-0.564,1.261-1.261C35.783,53.26,35.216,52.696,34.521,52.696z"/>
	<path fill="#231F20" d="M39.565,52.696c-0.7,0-1.261,0.564-1.261,1.261c0,0.697,0.561,1.261,1.261,1.261
		c0.694,0,1.261-0.564,1.261-1.261C40.826,53.26,40.26,52.696,39.565,52.696z"/>
	<path fill="#231F20" d="M44.609,52.696c-0.7,0-1.261,0.564-1.261,1.261c0,0.697,0.561,1.261,1.261,1.261
		c0.694,0,1.261-0.564,1.261-1.261C45.87,53.26,45.303,52.696,44.609,52.696z"/>
	<path fill="#231F20" d="M49.652,52.696c-0.7,0-1.261,0.564-1.261,1.261c0,0.697,0.561,1.261,1.261,1.261
		c0.694,0,1.261-0.564,1.261-1.261C50.913,53.26,50.347,52.696,49.652,52.696z"/>
	<path fill="#231F20" d="M54.696,52.696c-0.7,0-1.261,0.564-1.261,1.261c0,0.697,0.561,1.261,1.261,1.261
		c0.694,0,1.261-0.564,1.261-1.261C55.956,53.26,55.39,52.696,54.696,52.696z"/>
	<path fill="#231F20" d="M58.261,50.174c-0.7,0-1.261,0.564-1.261,1.261c0,0.697,0.56,1.261,1.261,1.261
		c0.694,0,1.261-0.564,1.261-1.261C59.521,50.738,58.955,50.174,58.261,50.174z"/>
	<path fill="#231F20" d="M58.261,45.13c-0.7,0-1.261,0.564-1.261,1.261c0,0.697,0.56,1.261,1.261,1.261
		c0.694,0,1.261-0.564,1.261-1.261C59.521,45.694,58.955,45.13,58.261,45.13z"/>
	<path fill="#231F20" d="M58.261,40.087c-0.7,0-1.261,0.564-1.261,1.261c0,0.697,0.56,1.261,1.261,1.261
		c0.694,0,1.261-0.564,1.261-1.261C59.521,40.651,58.955,40.087,58.261,40.087z"/>
	<path fill="#231F20" d="M58.261,35.044c-0.7,0-1.261,0.564-1.261,1.261c0,0.697,0.56,1.261,1.261,1.261
		c0.694,0,1.261-0.564,1.261-1.261C59.521,35.607,58.955,35.044,58.261,35.044z"/>
	<path fill="#231F20" d="M58.261,30C57.56,30,57,30.564,57,31.261c0,0.697,0.56,1.261,1.261,1.261c0.694,0,1.261-0.564,1.261-1.261
		C59.521,30.564,58.955,30,58.261,30z"/>
	<path fill="#231F20" d="M58.261,24.956c-0.7,0-1.261,0.564-1.261,1.261c0,0.697,0.56,1.261,1.261,1.261
		c0.694,0,1.261-0.564,1.261-1.261C59.521,25.521,58.955,24.956,58.261,24.956z"/>
	<path fill="#231F20" d="M58.261,19.913c-0.7,0-1.261,0.564-1.261,1.261c0,0.697,0.56,1.261,1.261,1.261
		c0.694,0,1.261-0.564,1.261-1.261C59.521,20.477,58.955,19.913,58.261,19.913z"/>
	<path fill="#231F20" d="M58.261,14.87c-0.7,0-1.261,0.564-1.261,1.261c0,0.697,0.56,1.261,1.261,1.261
		c0.694,0,1.261-0.564,1.261-1.261C59.521,15.434,58.955,14.87,58.261,14.87z"/>
	<path fill="#231F20" d="M54.696,14.87c-0.7,0-1.261,0.564-1.261,1.261c0,0.697,0.561,1.261,1.261,1.261
		c0.694,0,1.261-0.564,1.261-1.261C55.956,15.434,55.39,14.87,54.696,14.87z"/>
	<path fill="#231F20" d="M49.652,14.87c-0.7,0-1.261,0.564-1.261,1.261c0,0.697,0.561,1.261,1.261,1.261
		c0.694,0,1.261-0.564,1.261-1.261C50.913,15.434,50.347,14.87,49.652,14.87z"/>
	<path fill="#231F20" d="M44.609,14.87c-0.7,0-1.261,0.564-1.261,1.261c0,0.697,0.561,1.261,1.261,1.261
		c0.694,0,1.261-0.564,1.261-1.261C45.87,15.434,45.303,14.87,44.609,14.87z"/>
	<path fill="#231F20" d="M39.565,14.87c-0.7,0-1.261,0.564-1.261,1.261c0,0.697,0.561,1.261,1.261,1.261
		c0.694,0,1.261-0.564,1.261-1.261C40.826,15.434,40.26,14.87,39.565,14.87z"/>
	<path fill="#231F20" d="M34.521,14.87c-0.7,0-1.261,0.564-1.261,1.261c0,0.697,0.561,1.261,1.261,1.261
		c0.695,0,1.261-0.564,1.261-1.261C35.783,15.434,35.216,14.87,34.521,14.87z"/>
	<path fill="#231F20" d="M29.479,14.87c-0.7,0-1.261,0.564-1.261,1.261c0,0.697,0.561,1.261,1.261,1.261
		c0.694,0,1.261-0.564,1.261-1.261C30.739,15.434,30.173,14.87,29.479,14.87z"/>
	<path fill="#231F20" d="M24.435,14.87c-0.7,0-1.261,0.564-1.261,1.261c0,0.697,0.561,1.261,1.261,1.261
		c0.695,0,1.261-0.564,1.261-1.261C25.696,15.434,25.129,14.87,24.435,14.87z"/>
	<path fill="#231F20" d="M19.391,14.87c-0.7,0-1.261,0.564-1.261,1.261c0,0.697,0.561,1.261,1.261,1.261
		c0.695,0,1.261-0.564,1.261-1.261C20.652,15.434,20.086,14.87,19.391,14.87z"/>
	<path fill="#231F20" d="M14.348,14.87c-0.7,0-1.261,0.564-1.261,1.261c0,0.697,0.561,1.261,1.261,1.261
		c0.695,0,1.261-0.564,1.261-1.261C15.609,15.434,15.042,14.87,14.348,14.87z"/>
	<path fill="#231F20" d="M14.348,19.913c-0.7,0-1.261,0.564-1.261,1.261c0,0.697,0.561,1.261,1.261,1.261
		c0.695,0,1.261-0.564,1.261-1.261C15.609,20.477,15.042,19.913,14.348,19.913z"/>
	<path fill="#231F20" d="M14.348,24.956c-0.7,0-1.261,0.564-1.261,1.261c0,0.697,0.561,1.261,1.261,1.261
		c0.695,0,1.261-0.564,1.261-1.261C15.609,25.521,15.042,24.956,14.348,24.956z"/>
	<path fill="#231F20" d="M14.348,30c-0.7,0-1.261,0.564-1.261,1.261c0,0.697,0.561,1.261,1.261,1.261
		c0.695,0,1.261-0.564,1.261-1.261C15.609,30.564,15.042,30,14.348,30z"/>
	<path fill="#231F20" d="M14.348,35.044c-0.7,0-1.261,0.564-1.261,1.261c0,0.697,0.561,1.261,1.261,1.261
		c0.695,0,1.261-0.564,1.261-1.261C15.609,35.607,15.042,35.044,14.348,35.044z"/>
	<path fill="#231F20" d="M14.348,40.087c-0.7,0-1.261,0.564-1.261,1.261c0,0.697,0.561,1.261,1.261,1.261
		c0.695,0,1.261-0.564,1.261-1.261C15.609,40.651,15.042,40.087,14.348,40.087z"/>
	<path fill="#231F20" d="M14.348,45.13c-0.7,0-1.261,0.564-1.261,1.261c0,0.697,0.561,1.261,1.261,1.261
		c0.695,0,1.261-0.564,1.261-1.261C15.609,45.694,15.042,45.13,14.348,45.13z"/>
	<path fill="#231F20" d="M11.826,50.174c-0.7,0-1.261,0.564-1.261,1.261c0,0.697,0.561,1.261,1.261,1.261
		c0.694,0,1.261-0.564,1.261-1.261C13.087,50.738,12.521,50.174,11.826,50.174z"/>
	<path fill="#231F20" d="M6.783,4.783c-0.7,0-1.261,0.564-1.261,1.261c0,0.697,0.561,1.261,1.261,1.261
		c0.694,0,1.261-0.564,1.261-1.261C8.044,5.347,7.477,4.783,6.783,4.783z"/>
	<path fill="#231F20" d="M10.565,6.044c0,0.697,0.561,1.261,1.261,1.261c0.694,0,1.261-0.564,1.261-1.261
		c0-0.697-0.566-1.261-1.261-1.261C11.126,4.783,10.565,5.347,10.565,6.044z"/>
	<path fill="#231F20" d="M16.87,4.783c-0.7,0-1.261,0.564-1.261,1.261c0,0.697,0.56,1.261,1.261,1.261
		c0.694,0,1.261-0.564,1.261-1.261C18.13,5.347,17.564,4.783,16.87,4.783z"/>
	<path fill="#231F20" d="M21.913,4.783c-0.7,0-1.261,0.564-1.261,1.261c0,0.697,0.561,1.261,1.261,1.261
		c0.694,0,1.261-0.564,1.261-1.261C23.174,5.347,22.607,4.783,21.913,4.783z"/>
	<path fill="#231F20" d="M21.913,9.826c-0.7,0-1.261,0.564-1.261,1.261s0.561,1.261,1.261,1.261c0.694,0,1.261-0.564,1.261-1.261
		S22.607,9.826,21.913,9.826z"/>
	<path fill="#231F20" d="M26.956,9.826c-0.7,0-1.261,0.564-1.261,1.261s0.56,1.261,1.261,1.261c0.694,0,1.261-0.564,1.261-1.261
		S27.651,9.826,26.956,9.826z"/>
	<path fill="#231F20" d="M32,9.826c-0.7,0-1.261,0.564-1.261,1.261S31.3,12.348,32,12.348c0.694,0,1.261-0.564,1.261-1.261
		S32.694,9.826,32,9.826z"/>
	<path fill="#231F20" d="M37.044,9.826c-0.7,0-1.261,0.564-1.261,1.261s0.561,1.261,1.261,1.261c0.694,0,1.261-0.564,1.261-1.261
		S37.738,9.826,37.044,9.826z"/>
	<path fill="#231F20" d="M42.087,9.826c-0.7,0-1.261,0.564-1.261,1.261s0.561,1.261,1.261,1.261c0.694,0,1.261-0.564,1.261-1.261
		S42.781,9.826,42.087,9.826z"/>
	<path fill="#231F20" d="M47.13,9.826c-0.7,0-1.261,0.564-1.261,1.261s0.561,1.261,1.261,1.261c0.694,0,1.261-0.564,1.261-1.261
		S47.825,9.826,47.13,9.826z"/>
	<path fill="#231F20" d="M52.174,9.826c-0.7,0-1.261,0.564-1.261,1.261s0.56,1.261,1.261,1.261c0.694,0,1.261-0.564,1.261-1.261
		S52.868,9.826,52.174,9.826z"/>
</g>
</svg>
