<?xml version="1.0" encoding="utf-8"?>
<!-- Generator: Adobe Illustrator 17.0.0, SVG Export Plug-In . SVG Version: 6.00 Build 0)  -->
<!DOCTYPE svg PUBLIC "-//W3C//DTD SVG 1.1//EN" "http://www.w3.org/Graphics/SVG/1.1/DTD/svg11.dtd">
<svg version="1.1" id="Layer_1" xmlns="http://www.w3.org/2000/svg" xmlns:xlink="http://www.w3.org/1999/xlink" x="0px" y="0px"
	 width="60px" height="60px" viewBox="0 0 60 60" enable-background="new 0 0 60 60" xml:space="preserve">
<g>
	<path fill="#231F20" d="M5,46h17.435c0.553,0,1-0.448,1-1s-0.447-1-1-1H8.874C9.565,43.138,10,42.083,10,41V14h40v8.435
		c0,0.552,0.447,1,1,1c0.553,0,1-0.448,1-1V13c0-0.552-0.447-1-1-1h-3V7c0-0.552-0.447-1-1-1H14V1c0-0.552-0.447-1-1-1H1
		C0.447,0,0,0.448,0,1v40C0,43.664,2.337,46,5,46z M2,2h10v5c0,0.552,0.447,1,1,1h33v4H9c-0.553,0-1,0.448-1,1v28
		c0,1.322-1.412,3-3,3c-1.542,0-3-1.458-3-3V2z"/>
	<path fill="#231F20" d="M45,30c-8.271,0-15,6.729-15,15s6.729,15,15,15s15-6.729,15-15S53.271,30,45,30z M45,58
		c-7.168,0-13-5.831-13-13s5.832-13,13-13s13,5.831,13,13S52.168,58,45,58z"/>
	<path fill="#231F20" d="M51.257,39.331l-8.295,9.216l-4.255-4.254c-0.391-0.391-1.023-0.391-1.414,0
		c-0.391,0.391-0.391,1.023,0,1.414l5.745,5.746l9.705-10.784c0.369-0.411,0.336-1.043-0.074-1.412
		C52.258,38.887,51.626,38.921,51.257,39.331z"/>
</g>
</svg>
