<?xml version="1.0" encoding="utf-8"?>
<!-- Generator: Adobe Illustrator 17.0.0, SVG Export Plug-In . SVG Version: 6.00 Build 0)  -->
<!DOCTYPE svg PUBLIC "-//W3C//DTD SVG 1.1//EN" "http://www.w3.org/Graphics/SVG/1.1/DTD/svg11.dtd">
<svg version="1.1" id="Layer_1" xmlns="http://www.w3.org/2000/svg" xmlns:xlink="http://www.w3.org/1999/xlink" x="0px" y="0px"
	 width="60px" height="60px" viewBox="0 0 60 60" enable-background="new 0 0 60 60" xml:space="preserve">
<g>
	<path fill="#231F20" d="M59,16h-7v-5c0-0.552-0.447-1-1-1H20V7c0-0.552-0.447-1-1-1H1C0.447,6,0,6.448,0,7v42c0,4.056,2.944,7,7,7
		h44c4.71,0,9-4.248,9-8.913V17C60,16.448,59.553,16,59,16z M12,49c0,3.038-1.963,5-5,5c-2.944,0-5-2.056-5-5V8h16v3
		c0,0.552,0.447,1,1,1h31v4H13c-0.553,0-1,0.448-1,1V49z M58,47.087C58,50.705,54.663,54,51,54H12.091
		C13.298,52.768,14,51.036,14,49V18h28v3c0,0.552,0.447,1,1,1h3v12h-6V22c0-0.552-0.447-1-1-1c-0.553,0-1,0.448-1,1v13
		c0,0.552,0.447,1,1,1h8c0.553,0,1-0.448,1-1V21c0-0.552-0.447-1-1-1h-3v-2h14V47.087z"/>
	<rect x="42" y="30" fill="#231F20" width="2" height="2"/>
	<path fill="#231F20" d="M41.348,40h2c0.553,0,1-0.448,1-1s-0.447-1-1-1h-2c-0.553,0-1,0.448-1,1S40.795,40,41.348,40z"/>
	<path fill="#231F20" d="M41.348,44h2c0.553,0,1-0.448,1-1s-0.447-1-1-1h-2c-0.553,0-1,0.448-1,1S40.795,44,41.348,44z"/>
	<path fill="#231F20" d="M41.348,48h2c0.553,0,1-0.448,1-1s-0.447-1-1-1h-2c-0.553,0-1,0.448-1,1S40.795,48,41.348,48z"/>
	<path fill="#231F20" d="M43.348,50h-2c-0.553,0-1,0.448-1,1s0.447,1,1,1h2c0.553,0,1-0.448,1-1S43.9,50,43.348,50z"/>
	<path fill="#231F20" d="M45.869,40h-2c-0.553,0-1,0.448-1,1s0.447,1,1,1h2c0.553,0,1-0.448,1-1S46.422,40,45.869,40z"/>
	<path fill="#231F20" d="M45.869,44h-2c-0.553,0-1,0.448-1,1s0.447,1,1,1h2c0.553,0,1-0.448,1-1S46.422,44,45.869,44z"/>
	<path fill="#231F20" d="M45.869,48h-2c-0.553,0-1,0.448-1,1s0.447,1,1,1h2c0.553,0,1-0.448,1-1S46.422,48,45.869,48z"/>
</g>
</svg>
