<?xml version="1.0" encoding="utf-8"?>
<!-- Generator: Adobe Illustrator 17.0.0, SVG Export Plug-In . SVG Version: 6.00 Build 0)  -->
<!DOCTYPE svg PUBLIC "-//W3C//DTD SVG 1.1//EN" "http://www.w3.org/Graphics/SVG/1.1/DTD/svg11.dtd">
<svg version="1.1" id="Layer_1" xmlns="http://www.w3.org/2000/svg" xmlns:xlink="http://www.w3.org/1999/xlink" x="0px" y="0px"
	 width="60px" height="60px" viewBox="0 0 60 60" enable-background="new 0 0 60 60" xml:space="preserve">
<g>
	<path fill="#231F20" d="M5,46h17.435c0.552,0,1-0.448,1-1s-0.448-1-1-1H8.874C9.565,43.138,10,42.083,10,41V14h40v8.435
		c0,0.552,0.448,1,1,1s1-0.448,1-1V13c0-0.552-0.448-1-1-1h-3V7c0-0.552-0.448-1-1-1H14V1c0-0.552-0.448-1-1-1H1
		C0.448,0,0,0.448,0,1v40C0,43.664,2.336,46,5,46z M2,2h10v5c0,0.552,0.448,1,1,1h33v4H9c-0.552,0-1,0.448-1,1v28
		c0,1.322-1.413,3-3,3c-1.542,0-3-1.458-3-3V2z"/>
	<path fill="#231F20" d="M30,45c0,8.271,6.729,15,15,15s15-6.729,15-15s-6.729-15-15-15S30,36.729,30,45z M58,45
		c0,7.169-5.831,13-13,13s-13-5.831-13-13s5.831-13,13-13S58,37.831,58,45z"/>
	<path fill="#231F20" d="M39.707,38.293c-0.391-0.391-1.023-0.391-1.414,0c-0.391,0.391-0.391,1.023,0,1.414L43.586,45l-5.293,5.293
		c-0.391,0.391-0.391,1.023,0,1.414C38.488,51.902,38.744,52,39,52c0.256,0,0.512-0.098,0.707-0.293L45,46.414l5.293,5.293
		C50.488,51.902,50.744,52,51,52c0.256,0,0.512-0.098,0.707-0.293c0.391-0.391,0.391-1.023,0-1.414L46.414,45l5.293-5.293
		c0.391-0.391,0.391-1.023,0-1.414c-0.391-0.391-1.023-0.391-1.414,0L45,43.586L39.707,38.293z"/>
</g>
</svg>
