<?xml version="1.0" encoding="utf-8"?>
<!-- Generator: Adobe Illustrator 17.0.0, SVG Export Plug-In . SVG Version: 6.00 Build 0)  -->
<!DOCTYPE svg PUBLIC "-//W3C//DTD SVG 1.1//EN" "http://www.w3.org/Graphics/SVG/1.1/DTD/svg11.dtd">
<svg version="1.1" id="Layer_1" xmlns="http://www.w3.org/2000/svg" xmlns:xlink="http://www.w3.org/1999/xlink" x="0px" y="0px"
	 width="60px" height="60px" viewBox="0 0 60 60" enable-background="new 0 0 60 60" xml:space="preserve">
<g>
	<path fill="#231F20" d="M24.49,39.055l3.51-3.51V47c0,0.552,0.448,1,1,1h2.989H40h3c0.552,0,1-0.448,1-1V34.762l4.293,4.293
		c0.195,0.195,0.451,0.293,0.707,0.293s0.512-0.098,0.707-0.293c0.391-0.391,0.391-1.023,0-1.414L37.098,25.032
		c-0.375-0.375-1.039-0.375-1.414,0l-7.039,7.039c-0.265,0.101-0.472,0.309-0.573,0.573l-4.996,4.996
		c-0.391,0.391-0.391,1.023,0,1.414C23.467,39.445,24.1,39.445,24.49,39.055z M34.011,46l0.065-6H38v6H34.011z M36.391,27.153
		l5.649,5.649C42.026,32.868,42,32.93,42,33v13h-2v-8h-7.902l-0.087,8H30V33.545L36.391,27.153z"/>
	<path fill="#231F20" d="M59,16h-7v-5c0-0.552-0.448-1-1-1H20V7c0-0.552-0.448-1-1-1H1C0.448,6,0,6.448,0,7v42c0,4.056,2.944,7,7,7
		h44c4.71,0,9-4.248,9-8.913V17C60,16.448,59.552,16,59,16z M12,49c0,2.991-2.009,5-5,5c-2.944,0-5-2.056-5-5V8h16v3
		c0,0.552,0.448,1,1,1h31v4H13c-0.552,0-1,0.448-1,1V49z M58,47.087C58,50.705,54.664,54,51,54H12.091
		C13.298,52.768,14,51.036,14,49V18h44V47.087z"/>
</g>
</svg>
