<?xml version="1.0" encoding="utf-8"?>
<!-- Generator: Adobe Illustrator 17.0.0, SVG Export Plug-In . SVG Version: 6.00 Build 0)  -->
<!DOCTYPE svg PUBLIC "-//W3C//DTD SVG 1.1//EN" "http://www.w3.org/Graphics/SVG/1.1/DTD/svg11.dtd">
<svg version="1.1" id="Layer_1" xmlns="http://www.w3.org/2000/svg" xmlns:xlink="http://www.w3.org/1999/xlink" x="0px" y="0px"
	 width="60px" height="60px" viewBox="0 0 60 60" enable-background="new 0 0 60 60" xml:space="preserve">
<g>
	<path fill="#231F20" d="M40.641,44.011c0.195,0.195,0.451,0.293,0.707,0.293c0.256,0,0.512-0.098,0.707-0.293l7.565-7.565
		c0.188-0.188,0.293-0.442,0.293-0.707c0-0.265-0.106-0.52-0.293-0.707l-7.565-7.565c-0.391-0.391-1.023-0.391-1.414,0
		c-0.391,0.391-0.391,1.023,0,1.414l6.858,6.858l-6.858,6.858C40.25,42.988,40.25,43.621,40.641,44.011z"/>
	<path fill="#231F20" d="M30.554,44.011c0.195,0.195,0.451,0.293,0.707,0.293c0.256,0,0.512-0.098,0.707-0.293
		c0.391-0.391,0.391-1.023,0-1.414l-6.858-6.858l6.858-6.858c0.391-0.391,0.391-1.023,0-1.414c-0.391-0.391-1.023-0.391-1.414,0
		l-7.565,7.565c-0.188,0.188-0.293,0.442-0.293,0.707c0,0.265,0.106,0.519,0.293,0.707L30.554,44.011z"/>
	<path fill="#231F20" d="M59,16h-7v-5c0-0.552-0.447-1-1-1H20V7c0-0.552-0.447-1-1-1H1C0.447,6,0,6.448,0,7v42c0,4.056,2.944,7,7,7
		h44c4.71,0,9-4.248,9-8.913V17C60,16.448,59.553,16,59,16z M12,49c0,3.038-1.963,5-5,5c-2.944,0-5-2.056-5-5V8h16v3
		c0,0.552,0.447,1,1,1h31v4H13c-0.553,0-1,0.448-1,1V49z M58,47.087C58,50.705,54.663,54,51,54H12.091
		C13.298,52.768,14,51.036,14,49V18h44V47.087z"/>
</g>
</svg>
