<?xml version="1.0" encoding="utf-8"?>
<!-- Generator: Adobe Illustrator 17.0.0, SVG Export Plug-In . SVG Version: 6.00 Build 0)  -->
<!DOCTYPE svg PUBLIC "-//W3C//DTD SVG 1.1//EN" "http://www.w3.org/Graphics/SVG/1.1/DTD/svg11.dtd">
<svg version="1.1" id="Layer_1" xmlns="http://www.w3.org/2000/svg" xmlns:xlink="http://www.w3.org/1999/xlink" x="0px" y="0px"
	 width="60px" height="60px" viewBox="0 0 60 60" enable-background="new 0 0 60 60" xml:space="preserve">
<g>
	<path fill="#231F20" d="M28.505,45.435c0.154,0.087,0.324,0.131,0.495,0.131c0.177,0,0.353-0.047,0.511-0.14l14.869-8.826
		c0.303-0.18,0.489-0.507,0.489-0.86c0-0.353-0.187-0.68-0.489-0.86l-14.869-8.826c-0.31-0.183-0.692-0.187-1.006-0.009
		C28.193,26.222,28,26.554,28,26.913v17.652C28,44.925,28.193,45.257,28.505,45.435z M30,28.669l11.91,7.07L30,42.809V28.669z"/>
	<path fill="#231F20" d="M59,16h-7v-5c0-0.552-0.447-1-1-1H20V7c0-0.552-0.447-1-1-1H1C0.447,6,0,6.448,0,7v42c0,4.056,2.944,7,7,7
		h44c4.71,0,9-4.248,9-8.913V17C60,16.448,59.553,16,59,16z M12,49c0,3.038-1.963,5-5,5c-2.944,0-5-2.056-5-5V8h16v3
		c0,0.552,0.447,1,1,1h31v4H13c-0.553,0-1,0.448-1,1V49z M58,47.087C58,50.705,54.663,54,51,54H12.091
		C13.298,52.768,14,51.036,14,49V18h44V47.087z"/>
</g>
</svg>
