<?xml version="1.0" encoding="utf-8"?>
<!-- Generator: Adobe Illustrator 17.0.0, SVG Export Plug-In . SVG Version: 6.00 Build 0)  -->
<!DOCTYPE svg PUBLIC "-//W3C//DTD SVG 1.1//EN" "http://www.w3.org/Graphics/SVG/1.1/DTD/svg11.dtd">
<svg version="1.1" id="Layer_1" xmlns="http://www.w3.org/2000/svg" xmlns:xlink="http://www.w3.org/1999/xlink" x="0px" y="0px"
	 width="60px" height="60px" viewBox="0 0 60 60" enable-background="new 0 0 60 60" xml:space="preserve">
<g>
	<path fill="#231F20" d="M5,46h17.435c0.553,0,1-0.448,1-1s-0.447-1-1-1H8.874C9.565,43.138,10,42.083,10,41V14h40v8.435
		c0,0.552,0.447,1,1,1c0.553,0,1-0.448,1-1V13c0-0.552-0.447-1-1-1h-3V7c0-0.552-0.447-1-1-1H14V1c0-0.552-0.447-1-1-1H1
		C0.447,0,0,0.448,0,1v40C0,43.664,2.337,46,5,46z M2,2h10v5c0,0.552,0.447,1,1,1h33v4H9c-0.553,0-1,0.448-1,1v28
		c0,1.322-1.412,3-3,3c-1.542,0-3-1.458-3-3V2z"/>
	<path fill="#231F20" d="M45,30c-8.272,0-15,6.729-15,15s6.728,15,15,15c8.271,0,15-6.729,15-15S53.271,30,45,30z M45,58
		c-7.168,0-13-5.831-13-13s5.832-13,13-13s13,5.831,13,13S52.168,58,45,58z"/>
	<path fill="#231F20" d="M45.708,37.294c-0.001-0.001-0.001-0.001-0.002-0.002l-0.773-0.773l-5.701,6.841
		c-0.354,0.424-0.296,1.055,0.128,1.408C39.547,44.924,39.773,45,39.999,45c0.287,0,0.571-0.123,0.77-0.36L44,40.762v10.993
		c0,0.552,0.447,1,1,1c0.553,0,1-0.448,1-1V40.414l4.293,4.293c0.391,0.391,1.023,0.391,1.414,0c0.391-0.391,0.391-1.023,0-1.414
		L45.708,37.294z"/>
</g>
</svg>
