<?xml version="1.0" encoding="utf-8"?>
<!-- Generator: Adobe Illustrator 17.0.0, SVG Export Plug-In . SVG Version: 6.00 Build 0)  -->
<!DOCTYPE svg PUBLIC "-//W3C//DTD SVG 1.1//EN" "http://www.w3.org/Graphics/SVG/1.1/DTD/svg11.dtd">
<svg version="1.1" id="Layer_1" xmlns="http://www.w3.org/2000/svg" xmlns:xlink="http://www.w3.org/1999/xlink" x="0px" y="0px"
	 width="48px" height="48px" viewBox="0 0 48 48" enable-background="new 0 0 48 48" xml:space="preserve">
<path fill="#010101" d="M45.707,22.293l-22-22c-0.391-0.391-1.023-0.391-1.414,0l-22,22c-0.391,0.391-0.391,1.023,0,1.414l22,22
	C22.488,45.902,22.744,46,23,46c0.256,0,0.512-0.098,0.707-0.293l22-22C46.098,23.316,46.098,22.684,45.707,22.293z M22,12
	c0-0.553,0.448-1,1-1c0.552,0,1,0.447,1,1v16c0,0.553-0.448,1-1,1c-0.552,0-1-0.447-1-1V12z M23,37c-1.105,0-2-0.894-2-2
	c0-1.103,0.895-2,2-2c1.103,0,2,0.897,2,2C25,36.106,24.103,37,23,37z"/>
</svg>
