<?xml version="1.0" encoding="utf-8"?>
<!-- Generator: Adobe Illustrator 17.0.0, SVG Export Plug-In . SVG Version: 6.00 Build 0)  -->
<!DOCTYPE svg PUBLIC "-//W3C//DTD SVG 1.1//EN" "http://www.w3.org/Graphics/SVG/1.1/DTD/svg11.dtd">
<svg version="1.1" id="Layer_1" xmlns="http://www.w3.org/2000/svg" xmlns:xlink="http://www.w3.org/1999/xlink" x="0px" y="0px"
	 width="48px" height="48px" viewBox="0 0 48 48" enable-background="new 0 0 48 48" xml:space="preserve">
<path fill="#010101" d="M23,0C10.318,0,0,10.317,0,23c0,12.683,10.318,23,23,23c12.682,0,23-10.317,23-23C46,10.317,35.682,0,23,0z
	 M22,10c1.103,0,2,0.897,2,2c0,1.106-0.897,2-2,2c-1.105,0-2-0.894-2-2C20,10.897,20.895,10,22,10z M29,38H17c-0.552,0-1-0.447-1-1
	c0-0.553,0.448-1,1-1h5V20h-3c-0.552,0-1-0.447-1-1c0-0.553,0.448-1,1-1h4c0.552,0,1,0.447,1,1v17h5c0.552,0,1,0.447,1,1
	C30,37.553,29.552,38,29,38z"/>
</svg>
