<?xml version="1.0" encoding="utf-8"?>
<!-- Generator: Adobe Illustrator 17.0.0, SVG Export Plug-In . SVG Version: 6.00 Build 0)  -->
<!DOCTYPE svg PUBLIC "-//W3C//DTD SVG 1.1//EN" "http://www.w3.org/Graphics/SVG/1.1/DTD/svg11.dtd">
<svg version="1.1" id="Layer_1" xmlns="http://www.w3.org/2000/svg" xmlns:xlink="http://www.w3.org/1999/xlink" x="0px" y="0px"
	 width="48px" height="48px" viewBox="0 0 48 48" enable-background="new 0 0 48 48" xml:space="preserve">
<path fill="#010101" d="M24,0C10.767,0,0,10.767,0,24c0,13.233,10.767,24,24,24s24-10.767,24-24C48,10.767,37.233,0,24,0z M24,38
	c-1.105,0-2-0.894-2-2c0-1.103,0.895-2,2-2c1.103,0,2,0.897,2,2C26,37.106,25.103,38,24,38z M25,25.929V31c0,0.553-0.448,1-1,1
	c-0.552,0-1-0.447-1-1v-6c0-0.553,0.448-1,1-1c2.757,0,5-2.243,5-5c0-2.757-2.243-5-5-5c-2.757,0-5,2.243-5,5c0,0.553-0.448,1-1,1
	c-0.552,0-1-0.447-1-1c0-3.859,3.14-7,7-7c3.86,0,7,3.141,7,7C31,22.521,28.388,25.442,25,25.929z"/>
</svg>
