<?xml version="1.0" encoding="utf-8"?>
<!-- Generator: Adobe Illustrator 17.0.0, SVG Export Plug-In . SVG Version: 6.00 Build 0)  -->
<!DOCTYPE svg PUBLIC "-//W3C//DTD SVG 1.1//EN" "http://www.w3.org/Graphics/SVG/1.1/DTD/svg11.dtd">
<svg version="1.1" id="Layer_1" xmlns="http://www.w3.org/2000/svg" xmlns:xlink="http://www.w3.org/1999/xlink" x="0px" y="0px"
	 width="48px" height="48px" viewBox="0 0 48 48" enable-background="new 0 0 48 48" xml:space="preserve">
<g>
	<path fill="#010101" d="M39,0H9C4.038,0,0,4.038,0,9v30c0,4.962,4.038,9,9,9h30c4.962,0,9-4.038,9-9V9C48,4.038,43.962,0,39,0z
		 M46,39c0,3.86-3.14,7-7,7H9c-3.86,0-7-3.14-7-7V9c0-3.86,3.14-7,7-7h30c3.86,0,7,3.14,7,7V39z"/>
	<path fill="#010101" d="M18.961,16.725C18.839,16.296,18.446,16,18,16s-0.839,0.296-0.961,0.726l-4,14
		c-0.152,0.531,0.155,1.084,0.686,1.236c0.531,0.152,1.085-0.156,1.236-0.687L16.183,27h3.634l1.221,4.275
		c0.126,0.439,0.526,0.726,0.961,0.726c0.091,0,0.184-0.013,0.276-0.04c0.53-0.152,0.838-0.705,0.686-1.236L18.961,16.725z
		 M16.754,25L18,20.64L19.245,25H16.754z"/>
	<path fill="#010101" d="M26,16c-0.552,0-1,0.448-1,1v14c0,0.552,0.448,1,1,1s1-0.448,1-1V17C27,16.448,26.552,16,26,16z"/>
	<path fill="#010101" d="M34,21c0.552,0,1-0.448,1-1s-0.448-1-1-1h-1v-2c0-0.552-0.448-1-1-1s-1,0.448-1,1v2h-1
		c-0.552,0-1,0.448-1,1s0.448,1,1,1h1v8c0,1.654,1.346,3,3,3c0.552,0,1-0.448,1-1s-0.448-1-1-1c-0.551,0-1-0.449-1-1v-8H34z"/>
</g>
<g id="nyt_x5F_exporter_x5F_info" display="none">
</g>
</svg>
