<?xml version="1.0" encoding="utf-8"?>
<!-- Generator: Adobe Illustrator 17.0.0, SVG Export Plug-In . SVG Version: 6.00 Build 0)  -->
<!DOCTYPE svg PUBLIC "-//W3C//DTD SVG 1.1//EN" "http://www.w3.org/Graphics/SVG/1.1/DTD/svg11.dtd">
<svg version="1.1" id="Layer_1" xmlns="http://www.w3.org/2000/svg" xmlns:xlink="http://www.w3.org/1999/xlink" x="0px" y="0px"
	 width="48px" height="48px" viewBox="0 0 48 48" enable-background="new 0 0 48 48" xml:space="preserve">
<g>
	<path fill="#010101" d="M39,0H9C4.038,0,0,4.038,0,9v30c0,4.962,4.038,9,9,9h30c4.962,0,9-4.038,9-9V9C48,4.038,43.962,0,39,0z
		 M46,39c0,3.86-3.14,7-7,7H9c-3.86,0-7-3.14-7-7V9c0-3.86,3.14-7,7-7h30c3.86,0,7,3.14,7,7V39z"/>
	<path fill="#010101" d="M41,32h-9.586L17.707,18.293C17.519,18.106,17.265,18,17,18H7c-0.552,0-1,0.448-1,1s0.448,1,1,1h9.586
		l13.707,13.707C30.48,33.895,30.735,34,31,34h10c0.552,0,1-0.448,1-1S41.552,32,41,32z"/>
	<path fill="#010101" d="M41,18H29c-0.552,0-1,0.448-1,1s0.448,1,1,1h12c0.552,0,1-0.448,1-1S41.552,18,41,18z"/>
</g>
<g id="nyt_x5F_exporter_x5F_info" display="none">
</g>
</svg>
