<?xml version="1.0" encoding="utf-8"?>
<!-- Generator: Adobe Illustrator 17.0.0, SVG Export Plug-In . SVG Version: 6.00 Build 0)  -->
<!DOCTYPE svg PUBLIC "-//W3C//DTD SVG 1.1//EN" "http://www.w3.org/Graphics/SVG/1.1/DTD/svg11.dtd">
<svg version="1.1" id="Layer_1" xmlns="http://www.w3.org/2000/svg" xmlns:xlink="http://www.w3.org/1999/xlink" x="0px" y="0px"
	 width="48px" height="48px" viewBox="0 0 48 48" enable-background="new 0 0 48 48" xml:space="preserve">
<path fill="#010101" d="M35.707,36.293c-0.391-0.391-1.023-0.391-1.414,0L26,44.586V1c0-0.552-0.447-1-1-1s-1,0.448-1,1v43.586
	l-8.293-8.293c-0.391-0.391-1.023-0.391-1.414,0c-0.391,0.391-0.391,1.023,0,1.414l9.999,9.999c0.092,0.093,0.203,0.166,0.326,0.217
	C24.74,47.973,24.87,48,25,48c0.13,0,0.26-0.026,0.382-0.077c0.123-0.051,0.234-0.124,0.326-0.217l9.999-9.999
	C36.098,37.316,36.098,36.684,35.707,36.293z"/>
<g id="nyt_x5F_exporter_x5F_info" display="none">
</g>
</svg>
