<?xml version="1.0" encoding="utf-8"?>
<!-- Generator: Adobe Illustrator 17.0.0, SVG Export Plug-In . SVG Version: 6.00 Build 0)  -->
<!DOCTYPE svg PUBLIC "-//W3C//DTD SVG 1.1//EN" "http://www.w3.org/Graphics/SVG/1.1/DTD/svg11.dtd">
<svg version="1.1" id="Layer_1" xmlns="http://www.w3.org/2000/svg" xmlns:xlink="http://www.w3.org/1999/xlink" x="0px" y="0px"
	 width="48px" height="48px" viewBox="0 0 48 48" enable-background="new 0 0 48 48" xml:space="preserve">
<path fill="#010101" d="M47.923,23.382c0.101-0.245,0.101-0.52,0-0.764c-0.051-0.123-0.124-0.233-0.217-0.326l-9.999-9.999
	c-0.391-0.391-1.023-0.391-1.414,0c-0.391,0.391-0.391,1.023,0,1.414L44.586,22H1c-0.553,0-1,0.448-1,1s0.447,1,1,1h43.586
	l-8.293,8.293c-0.391,0.391-0.391,1.023,0,1.414C36.488,33.902,36.744,34,37,34s0.512-0.098,0.707-0.293l9.999-9.999
	C47.799,23.615,47.872,23.505,47.923,23.382z"/>
<g id="nyt_x5F_exporter_x5F_info" display="none">
</g>
</svg>
