<?xml version="1.0" encoding="utf-8"?>
<!-- Generator: Adobe Illustrator 17.0.0, SVG Export Plug-In . SVG Version: 6.00 Build 0)  -->
<!DOCTYPE svg PUBLIC "-//W3C//DTD SVG 1.1//EN" "http://www.w3.org/Graphics/SVG/1.1/DTD/svg11.dtd">
<svg version="1.1" id="Layer_1" xmlns="http://www.w3.org/2000/svg" xmlns:xlink="http://www.w3.org/1999/xlink" x="0px" y="0px"
	 width="48px" height="48px" viewBox="0 0 48 48" enable-background="new 0 0 48 48" xml:space="preserve">
<path fill="#010101" d="M47.923,0.618c-0.101-0.244-0.296-0.439-0.54-0.54C47.26,0.026,47.129,0,46.998,0H33c-0.552,0-1,0.448-1,1
	s0.448,1,1,1h11.586L14.293,32.293c-0.391,0.391-0.391,1.023,0,1.414C14.488,33.902,14.744,34,15,34s0.512-0.098,0.707-0.293
	L46,3.414V15c0,0.552,0.448,1,1,1s1-0.448,1-1V1.002C48,0.871,47.974,0.74,47.923,0.618z"/>
<g id="nyt_x5F_exporter_x5F_info" display="none">
</g>
</svg>
