<?xml version="1.0" encoding="utf-8"?>
<!-- Generator: Adobe Illustrator 17.0.0, SVG Export Plug-In . SVG Version: 6.00 Build 0)  -->
<!DOCTYPE svg PUBLIC "-//W3C//DTD SVG 1.1//EN" "http://www.w3.org/Graphics/SVG/1.1/DTD/svg11.dtd">
<svg version="1.1" id="Layer_1" xmlns="http://www.w3.org/2000/svg" xmlns:xlink="http://www.w3.org/1999/xlink" x="0px" y="0px"
	 width="48px" height="48px" viewBox="0 0 48 48" enable-background="new 0 0 48 48" xml:space="preserve">
<path fill="#010101" d="M47.923,47.382C47.974,47.26,48,47.129,48,46.998V33c0-0.552-0.448-1-1-1s-1,0.448-1,1v11.586L15.707,14.293
	c-0.391-0.391-1.023-0.391-1.414,0c-0.391,0.391-0.391,1.023,0,1.414L44.586,46H33c-0.552,0-1,0.448-1,1s0.448,1,1,1h14
	c0.13,0,0.26-0.027,0.382-0.077C47.627,47.821,47.821,47.627,47.923,47.382z"/>
<g id="nyt_x5F_exporter_x5F_info" display="none">
</g>
</svg>
