<?xml version="1.0" encoding="utf-8"?>
<!-- Generator: Adobe Illustrator 17.0.0, SVG Export Plug-In . SVG Version: 6.00 Build 0)  -->
<!DOCTYPE svg PUBLIC "-//W3C//DTD SVG 1.1//EN" "http://www.w3.org/Graphics/SVG/1.1/DTD/svg11.dtd">
<svg version="1.1" id="Layer_1" xmlns="http://www.w3.org/2000/svg" xmlns:xlink="http://www.w3.org/1999/xlink" x="0px" y="0px"
	 width="48px" height="48px" viewBox="0 0 48 48" enable-background="new 0 0 48 48" xml:space="preserve">
<path fill="#010101" d="M47,22H25.686l10.68-18.498c0.276-0.478,0.113-1.09-0.366-1.366c-0.48-0.277-1.09-0.113-1.366,0.366
	L24.001,20.919L13.366,2.5C13.089,2.022,12.477,1.858,12,2.134C11.521,2.41,11.358,3.021,11.634,3.5L22.315,22H1
	c-0.552,0-1,0.448-1,1s0.448,1,1,1h21.222L11.634,42.338c-0.276,0.478-0.113,1.09,0.366,1.366c0.158,0.091,0.33,0.134,0.499,0.134
	c0.346,0,0.682-0.179,0.867-0.5l10.635-18.419l10.633,18.417c0.185,0.321,0.521,0.5,0.867,0.5c0.169,0,0.342-0.043,0.499-0.134
	c0.478-0.276,0.642-0.887,0.366-1.366L25.779,24H47c0.552,0,1-0.448,1-1S47.552,22,47,22z"/>
<g id="nyt_x5F_exporter_x5F_info" display="none">
</g>
</svg>
