<?xml version="1.0" encoding="utf-8"?>
<!-- Generator: Adobe Illustrator 17.0.0, SVG Export Plug-In . SVG Version: 6.00 Build 0)  -->
<!DOCTYPE svg PUBLIC "-//W3C//DTD SVG 1.1//EN" "http://www.w3.org/Graphics/SVG/1.1/DTD/svg11.dtd">
<svg version="1.1" id="Layer_1" xmlns="http://www.w3.org/2000/svg" xmlns:xlink="http://www.w3.org/1999/xlink" x="0px" y="0px"
	 width="48px" height="48px" viewBox="0 0 48 48" enable-background="new 0 0 48 48" xml:space="preserve">
<path fill="#010101" d="M47,18H34.392l6.304-10.918c0.133-0.23,0.169-0.503,0.1-0.759c-0.069-0.256-0.237-0.474-0.466-0.607l-8.66-5
	c-0.48-0.278-1.09-0.113-1.366,0.366L24,12L17.696,1.082c-0.277-0.478-0.888-0.643-1.366-0.366l-8.66,5
	C7.44,5.849,7.272,6.067,7.204,6.323c-0.068,0.257-0.032,0.53,0.1,0.759L13.608,18H1c-0.552,0-1,0.448-1,1v10c0,0.552,0.448,1,1,1
	h12.608L7.304,40.918c-0.133,0.23-0.169,0.503-0.1,0.759c0.069,0.256,0.237,0.474,0.466,0.607l8.66,5
	c0.479,0.275,1.089,0.112,1.366-0.366L24,36l6.304,10.918c0.185,0.321,0.521,0.5,0.867,0.5c0.169,0,0.342-0.043,0.499-0.134l8.66-5
	c0.23-0.132,0.398-0.351,0.466-0.607c0.068-0.257,0.032-0.53-0.1-0.759L34.392,30H47c0.552,0,1-0.448,1-1V19
	C48,18.448,47.552,18,47,18z M46,28H32.66c-0.357,0-0.687,0.19-0.866,0.5c-0.178,0.31-0.178,0.69,0,1l6.67,11.552l-6.928,4
	L24.866,33.5C24.688,33.19,24.357,33,24,33s-0.688,0.19-0.866,0.5l-6.67,11.552l-6.928-4l6.67-11.552c0.178-0.31,0.178-0.69,0-1
	S15.697,28,15.34,28H2v-8h13.34c0.357,0,0.687-0.19,0.866-0.5c0.178-0.31,0.178-0.69,0-1L9.536,6.948l6.928-4l6.67,11.552
	c0.357,0.619,1.375,0.619,1.732,0l6.67-11.552l6.928,4L31.794,18.5c-0.178,0.31-0.178,0.69,0,1S32.303,20,32.66,20H46V28z"/>
<g id="nyt_x5F_exporter_x5F_info" display="none">
</g>
</svg>
