<?xml version="1.0" encoding="utf-8"?>
<!-- Generator: Adobe Illustrator 17.0.0, SVG Export Plug-In . SVG Version: 6.00 Build 0)  -->
<!DOCTYPE svg PUBLIC "-//W3C//DTD SVG 1.1//EN" "http://www.w3.org/Graphics/SVG/1.1/DTD/svg11.dtd">
<svg version="1.1" id="Layer_1" xmlns="http://www.w3.org/2000/svg" xmlns:xlink="http://www.w3.org/1999/xlink" x="0px" y="0px"
	 width="48px" height="48px" viewBox="0 0 48 48" enable-background="new 0 0 48 48" xml:space="preserve">
<g>
	<path fill="#010101" d="M39,0H9C4.037,0,0,4.038,0,9v30c0,4.962,4.037,9,9,9h30c4.963,0,9-4.038,9-9V9C48,4.038,43.963,0,39,0z
		 M46,39c0,3.86-3.141,7-7,7H9c-3.859,0-7-3.14-7-7V9c0-3.86,3.141-7,7-7h30c3.859,0,7,3.14,7,7V39z"/>
	<path fill="#010101" d="M36.998,22H21.414l4.293-4.293c0.391-0.391,0.391-1.023,0-1.414c-0.391-0.391-1.023-0.391-1.414,0
		l-5.995,5.995c-0.096,0.094-0.172,0.208-0.224,0.334c-0.016,0.038-0.013,0.079-0.024,0.118c-0.023,0.085-0.052,0.167-0.052,0.259
		s0.029,0.175,0.052,0.259c0.011,0.039,0.008,0.08,0.024,0.118c0.052,0.127,0.128,0.24,0.224,0.334l5.995,5.995
		C24.488,29.902,24.744,30,25,30s0.512-0.098,0.707-0.293c0.391-0.391,0.391-1.023,0-1.414L21.414,24h15.584c0.553,0,1-0.448,1-1
		S37.551,22,36.998,22z"/>
	<path fill="#010101" d="M12.998,16c-0.553,0-1,0.448-1,1v12c0,0.552,0.447,1,1,1c0.553,0,1-0.448,1-1V17
		C13.998,16.448,13.551,16,12.998,16z"/>
</g>
<g id="nyt_x5F_exporter_x5F_info" display="none">
</g>
</svg>
