<?xml version="1.0" encoding="utf-8"?>
<!-- Generator: Adobe Illustrator 17.0.0, SVG Export Plug-In . SVG Version: 6.00 Build 0)  -->
<!DOCTYPE svg PUBLIC "-//W3C//DTD SVG 1.1//EN" "http://www.w3.org/Graphics/SVG/1.1/DTD/svg11.dtd">
<svg version="1.1" id="Layer_1" xmlns="http://www.w3.org/2000/svg" xmlns:xlink="http://www.w3.org/1999/xlink" x="0px" y="0px"
	 width="48px" height="48px" viewBox="0 0 48 48" enable-background="new 0 0 48 48" xml:space="preserve">
<g>
	<path fill="#010101" d="M39,0H9C4.037,0,0,4.038,0,9v30c0,4.962,4.037,9,9,9h30c4.963,0,9-4.038,9-9V9C48,4.038,43.963,0,39,0z
		 M46,39c0,3.86-3.141,7-7,7H9c-3.859,0-7-3.14-7-7V9c0-3.86,3.141-7,7-7h30c3.859,0,7,3.14,7,7V39z"/>
	<path fill="#010101" d="M22.293,27.707C22.488,27.902,22.744,28,23,28s0.512-0.098,0.707-0.293L26,25.414l2.293,2.293
		C28.488,27.902,28.744,28,29,28s0.512-0.098,0.707-0.293c0.391-0.391,0.391-1.023,0-1.414L27.414,24l2.293-2.293
		c0.391-0.391,0.391-1.023,0-1.414c-0.391-0.391-1.023-0.391-1.414,0L26,22.586l-2.293-2.293c-0.391-0.391-1.023-0.391-1.414,0
		c-0.391,0.391-0.391,1.023,0,1.414L24.586,24l-2.293,2.293C21.902,26.684,21.902,27.316,22.293,27.707z"/>
	<path fill="#010101" d="M36.998,16H16c-0.266,0-0.52,0.106-0.707,0.293l-7,7c-0.391,0.391-0.391,1.023,0,1.414l7,7
		C15.48,31.895,15.734,32,16,32h20.998c0.553,0,1-0.448,1-1V17C37.998,16.448,37.551,16,36.998,16z M35.998,30H16.414l-6-6l6-6
		h19.584V30z"/>
</g>
<g id="nyt_x5F_exporter_x5F_info" display="none">
</g>
</svg>
