<?xml version="1.0" encoding="utf-8"?>
<!-- Generator: Adobe Illustrator 17.0.0, SVG Export Plug-In . SVG Version: 6.00 Build 0)  -->
<!DOCTYPE svg PUBLIC "-//W3C//DTD SVG 1.1//EN" "http://www.w3.org/Graphics/SVG/1.1/DTD/svg11.dtd">
<svg version="1.1" id="Layer_1" xmlns="http://www.w3.org/2000/svg" xmlns:xlink="http://www.w3.org/1999/xlink" x="0px" y="0px"
	 width="48px" height="48px" viewBox="0 0 48 48" enable-background="new 0 0 48 48" xml:space="preserve">
<g>
	<path fill="#010101" d="M39,0H9C4.038,0,0,4.038,0,9v30c0,4.962,4.038,9,9,9h30c4.962,0,9-4.038,9-9V9C48,4.038,43.962,0,39,0z
		 M46,39c0,3.86-3.14,7-7,7H9c-3.86,0-7-3.14-7-7V9c0-3.86,3.14-7,7-7h30c3.86,0,7,3.14,7,7V39z"/>
	<path fill="#010101" d="M40,28H8c-0.552,0-1,0.448-1,1v8c0,0.552,0.448,1,1,1h32c0.552,0,1-0.448,1-1v-8C41,28.448,40.552,28,40,28
		z M39,36H9v-6h30V36z"/>
	<path fill="#010101" d="M8,26h32c0.404,0,0.769-0.244,0.924-0.617c0.155-0.374,0.069-0.804-0.217-1.09l-16-16
		c-0.391-0.391-1.023-0.391-1.414,0l-16,16c-0.286,0.286-0.372,0.716-0.217,1.09C7.231,25.756,7.596,26,8,26z M24,10.414L37.586,24
		H10.414L24,10.414z"/>
</g>
<g id="nyt_x5F_exporter_x5F_info" display="none">
</g>
</svg>
