<?xml version="1.0" encoding="utf-8"?>
<!-- Generator: Adobe Illustrator 17.0.0, SVG Export Plug-In . SVG Version: 6.00 Build 0)  -->
<!DOCTYPE svg PUBLIC "-//W3C//DTD SVG 1.1//EN" "http://www.w3.org/Graphics/SVG/1.1/DTD/svg11.dtd">
<svg version="1.1" id="Layer_1" xmlns="http://www.w3.org/2000/svg" xmlns:xlink="http://www.w3.org/1999/xlink" x="0px" y="0px"
	 width="48px" height="48px" viewBox="0 0 48 48" enable-background="new 0 0 48 48" xml:space="preserve">
<path fill="#010101" d="M47,0H27c-0.552,0-1,0.448-1,1s0.448,1,1,1h19v34H3.414l8.293-8.293c0.391-0.391,0.391-1.023,0-1.414
	c-0.391-0.391-1.023-0.391-1.414,0l-10,10c-0.092,0.092-0.165,0.203-0.216,0.325c-0.102,0.245-0.102,0.52,0,0.765
	c0.051,0.122,0.124,0.232,0.216,0.325l10,10C10.488,47.902,10.744,48,11,48s0.512-0.098,0.707-0.293
	c0.391-0.391,0.391-1.023,0-1.414L3.414,38H47c0.552,0,1-0.448,1-1V1C48,0.448,47.552,0,47,0z"/>
<g id="nyt_x5F_exporter_x5F_info" display="none">
</g>
</svg>
