<?xml version="1.0" encoding="utf-8"?>
<!-- Generator: Adobe Illustrator 17.0.0, SVG Export Plug-In . SVG Version: 6.00 Build 0)  -->
<!DOCTYPE svg PUBLIC "-//W3C//DTD SVG 1.1//EN" "http://www.w3.org/Graphics/SVG/1.1/DTD/svg11.dtd">
<svg version="1.1" id="Layer_1" xmlns="http://www.w3.org/2000/svg" xmlns:xlink="http://www.w3.org/1999/xlink" x="0px" y="0px"
	 width="48px" height="48px" viewBox="0 0 48 48" enable-background="new 0 0 48 48" xml:space="preserve">
<path fill="#010101" d="M35,22c0.553,0,1-0.448,1-1s-0.447-1-1-1h-9V3.414l8.293,8.293C34.488,11.902,34.744,12,35,12
	s0.512-0.098,0.707-0.293c0.391-0.391,0.391-1.023,0-1.414l-9.999-9.999c-0.092-0.093-0.203-0.166-0.326-0.217
	c-0.245-0.101-0.52-0.101-0.765,0c-0.123,0.051-0.234,0.124-0.326,0.217l-9.999,9.999c-0.391,0.391-0.391,1.023,0,1.414
	c0.391,0.391,1.023,0.391,1.414,0L24,3.414V20h-9c-0.553,0-1,0.448-1,1s0.447,1,1,1h9v4h-9c-0.553,0-1,0.448-1,1s0.447,1,1,1h9v19
	c0,0.552,0.447,1,1,1s1-0.448,1-1V28h9c0.553,0,1-0.448,1-1s-0.447-1-1-1h-9v-4H35z"/>
<g id="nyt_x5F_exporter_x5F_info" display="none">
</g>
</svg>
