<?xml version="1.0" encoding="utf-8"?>
<!-- Generator: Adobe Illustrator 17.0.0, SVG Export Plug-In . SVG Version: 6.00 Build 0)  -->
<!DOCTYPE svg PUBLIC "-//W3C//DTD SVG 1.1//EN" "http://www.w3.org/Graphics/SVG/1.1/DTD/svg11.dtd">
<svg version="1.1" id="Layer_1" xmlns="http://www.w3.org/2000/svg" xmlns:xlink="http://www.w3.org/1999/xlink" x="0px" y="0px"
	 width="48px" height="48px" viewBox="0 0 48 48" enable-background="new 0 0 48 48" xml:space="preserve">
<path fill="#010101" d="M34,6H24c-0.553,0-1,0.448-1,1s0.447,1,1,1h10c6.617,0,12,5.383,12,12s-5.383,12-12,12H3.414l8.293-8.293
	c0.391-0.391,0.391-1.023,0-1.414c-0.391-0.391-1.023-0.391-1.414,0l-9.999,9.999c-0.093,0.092-0.166,0.203-0.217,0.326
	c-0.101,0.245-0.101,0.52,0,0.764c0.051,0.123,0.124,0.233,0.217,0.326l9.999,9.999C10.488,43.902,10.744,44,11,44
	s0.512-0.098,0.707-0.293c0.391-0.391,0.391-1.023,0-1.414L3.414,34H34c7.72,0,14-6.28,14-14S41.72,6,34,6z"/>
<g id="nyt_x5F_exporter_x5F_info" display="none">
</g>
</svg>
