<?xml version="1.0" encoding="utf-8"?>
<!-- Generator: Adobe Illustrator 17.0.0, SVG Export Plug-In . SVG Version: 6.00 Build 0)  -->
<!DOCTYPE svg PUBLIC "-//W3C//DTD SVG 1.1//EN" "http://www.w3.org/Graphics/SVG/1.1/DTD/svg11.dtd">
<svg version="1.1" id="Layer_1" xmlns="http://www.w3.org/2000/svg" xmlns:xlink="http://www.w3.org/1999/xlink" x="0px" y="0px"
	 width="48px" height="48px" viewBox="0 0 48 48" enable-background="new 0 0 48 48" xml:space="preserve">
<path fill="#010101" d="M47.582,22.173L24.692,0.278c-0.387-0.37-0.996-0.37-1.383,0l-23,22c-0.295,0.282-0.389,0.716-0.237,1.095
	C0.224,23.751,0.591,24,1,24h11v23c0,0.552,0.448,1,1,1h22c0.552,0,1-0.448,1-0.999v-23h11c0.004,0,0.007,0,0.01,0
	c0.548,0.046,1.01-0.444,1.01-1C48.02,22.656,47.847,22.353,47.582,22.173z M35,22c-0.552,0-1,0.448-1,1v23H14V23
	c0-0.552-0.448-1-1-1H3.492L24,2.384L44.508,22H35z"/>
<g id="nyt_x5F_exporter_x5F_info" display="none">
</g>
</svg>
