<?xml version="1.0" encoding="utf-8"?>
<!-- Generator: Adobe Illustrator 17.0.0, SVG Export Plug-In . SVG Version: 6.00 Build 0)  -->
<!DOCTYPE svg PUBLIC "-//W3C//DTD SVG 1.1//EN" "http://www.w3.org/Graphics/SVG/1.1/DTD/svg11.dtd">
<svg version="1.1" id="Layer_1" xmlns="http://www.w3.org/2000/svg" xmlns:xlink="http://www.w3.org/1999/xlink" x="0px" y="0px"
	 width="48px" height="48px" viewBox="0 0 48 48" enable-background="new 0 0 48 48" xml:space="preserve">
<g>
	<path fill="#010101" d="M39.923,22.618c-0.051-0.123-0.124-0.233-0.217-0.326L27.707,10.293c-0.391-0.391-1.023-0.391-1.414,0
		c-0.391,0.391-0.391,1.023,0,1.414L36.586,22H1c-0.553,0-1,0.448-1,1s0.447,1,1,1h35.586L26.293,34.293
		c-0.391,0.391-0.391,1.023,0,1.414C26.488,35.902,26.744,36,27,36s0.512-0.098,0.707-0.293l11.999-11.999
		c0.093-0.092,0.166-0.203,0.217-0.326C40.024,23.138,40.024,22.862,39.923,22.618z"/>
	<path fill="#010101" d="M47,10c-0.553,0-1,0.448-1,1v24c0,0.552,0.447,1,1,1s1-0.448,1-1V11C48,10.448,47.553,10,47,10z"/>
</g>
<g id="nyt_x5F_exporter_x5F_info" display="none">
</g>
</svg>
