<?xml version="1.0" encoding="utf-8"?>
<!-- Generator: Adobe Illustrator 17.0.0, SVG Export Plug-In . SVG Version: 6.00 Build 0)  -->
<!DOCTYPE svg PUBLIC "-//W3C//DTD SVG 1.1//EN" "http://www.w3.org/Graphics/SVG/1.1/DTD/svg11.dtd">
<svg version="1.1" id="Layer_2" xmlns="http://www.w3.org/2000/svg" xmlns:xlink="http://www.w3.org/1999/xlink" x="0px" y="0px"
	 width="60px" height="60px" viewBox="0 0 60 60" enable-background="new 0 0 60 60" xml:space="preserve">
<path fill="#010101" d="M30,0C13.458,0,0,13.458,0,30s13.458,30,30,30s30-13.458,30-30S46.542,0,30,0z M40,41.348
	c0,0.364-0.198,0.699-0.517,0.876c-0.319,0.176-0.708,0.164-1.016-0.03L28,35.595v5.753c0,0.39-0.226,0.743-0.58,0.907
	c-0.134,0.062-0.278,0.093-0.42,0.093c-0.232,0-0.462-0.081-0.646-0.237L12.962,30.763c-0.224-0.19-0.354-0.469-0.354-0.763
	c0-0.294,0.129-0.573,0.354-0.763L26.354,17.89c0.296-0.253,0.713-0.31,1.067-0.145c0.353,0.164,0.58,0.518,0.58,0.907v5.753
	l10.467-6.599c0.308-0.194,0.697-0.207,1.016-0.03C39.802,17.953,40,18.288,40,18.652V41.348z"/>
</svg>
