<?xml version="1.0" encoding="utf-8"?>
<!-- Generator: Adobe Illustrator 17.0.0, SVG Export Plug-In . SVG Version: 6.00 Build 0)  -->
<!DOCTYPE svg PUBLIC "-//W3C//DTD SVG 1.1//EN" "http://www.w3.org/Graphics/SVG/1.1/DTD/svg11.dtd">
<svg version="1.1" id="Layer_2" xmlns="http://www.w3.org/2000/svg" xmlns:xlink="http://www.w3.org/1999/xlink" x="0px" y="0px"
	 width="60px" height="60px" viewBox="0 0 60 60" enable-background="new 0 0 60 60" xml:space="preserve">
<g>
	<path fill="#010101" d="M34,11c-10.477,0-19,8.523-19,19s8.523,19,19,19c10.477,0,19-8.523,19-19S44.477,11,34,11z M34,36
		c-3.309,0-6-2.691-6-6s2.691-6,6-6c3.309,0,6,2.691,6,6S37.309,36,34,36z"/>
	<path fill="#010101" d="M59,4H10v52h49c0.552,0,1-0.447,1-1V5C60,4.447,59.552,4,59,4z M34,51c-11.58,0-21-9.421-21-21
		S22.42,9,34,9c11.58,0,21,9.421,21,21S45.58,51,34,51z"/>
	<path fill="#010101" d="M0,5v50c0,0.553,0.448,1,1,1h7V4H1C0.448,4,0,4.447,0,5z"/>
	<circle fill="#010101" cx="34" cy="30" r="1"/>
</g>
</svg>
