<?xml version="1.0" encoding="utf-8"?>
<!-- Generator: Adobe Illustrator 17.0.0, SVG Export Plug-In . SVG Version: 6.00 Build 0)  -->
<!DOCTYPE svg PUBLIC "-//W3C//DTD SVG 1.1//EN" "http://www.w3.org/Graphics/SVG/1.1/DTD/svg11.dtd">
<svg version="1.1" id="Layer_2" xmlns="http://www.w3.org/2000/svg" xmlns:xlink="http://www.w3.org/1999/xlink" x="0px" y="0px"
	 width="60px" height="60px" viewBox="0 0 60 60" enable-background="new 0 0 60 60" xml:space="preserve">
<path fill="#010101" d="M30,0C13.458,0,0,13.458,0,30s13.458,30,30,30s30-13.458,30-30S46.542,0,30,0z M18.253,30.335l11-12.348
	c0.379-0.426,1.114-0.426,1.493,0l11,12.348c0.262,0.294,0.327,0.715,0.166,1.074S41.394,32,41,32H19
	c-0.394,0-0.752-0.231-0.913-0.591S17.991,30.629,18.253,30.335z M42,41c0,0.553-0.448,1-1,1H19c-0.552,0-1-0.447-1-1v-4
	c0-0.553,0.448-1,1-1h22c0.552,0,1,0.447,1,1V41z"/>
</svg>
