<?xml version="1.0" encoding="utf-8"?>
<!-- Generator: Adobe Illustrator 17.0.0, SVG Export Plug-In . SVG Version: 6.00 Build 0)  -->
<!DOCTYPE svg PUBLIC "-//W3C//DTD SVG 1.1//EN" "http://www.w3.org/Graphics/SVG/1.1/DTD/svg11.dtd">
<svg version="1.1" id="Layer_2" xmlns="http://www.w3.org/2000/svg" xmlns:xlink="http://www.w3.org/1999/xlink" x="0px" y="0px"
	 width="60px" height="60px" viewBox="0 0 60 60" enable-background="new 0 0 60 60" xml:space="preserve">
<path fill="#010101" d="M59,0H1C0.448,0,0,0.447,0,1v58c0,0.553,0.448,1,1,1h58c0.552,0,1-0.447,1-1V1C60,0.447,59.552,0,59,0z
	 M19.913,52H9.826c-0.552,0-1-0.447-1-1c0-0.553,0.448-1,1-1h10.087c0.552,0,1,0.447,1,1C20.913,51.553,20.465,52,19.913,52z
	 M19.913,46H9.826c-0.552,0-1-0.447-1-1c0-0.553,0.448-1,1-1h10.087c0.552,0,1,0.447,1,1C20.913,45.553,20.465,46,19.913,46z
	 M19.913,40H9.826c-0.552,0-1-0.447-1-1c0-0.553,0.448-1,1-1h10.087c0.552,0,1,0.447,1,1C20.913,39.553,20.465,40,19.913,40z
	 M19.913,34H9.826c-0.552,0-1-0.447-1-1c0-0.553,0.448-1,1-1h10.087c0.552,0,1,0.447,1,1C20.913,33.553,20.465,34,19.913,34z
	 M35.043,52H24.956c-0.552,0-1-0.447-1-1c0-0.553,0.448-1,1-1h10.087c0.552,0,1,0.447,1,1C36.043,51.553,35.596,52,35.043,52z
	 M35.043,46H24.956c-0.552,0-1-0.447-1-1c0-0.553,0.448-1,1-1h10.087c0.552,0,1,0.447,1,1C36.043,45.553,35.596,46,35.043,46z
	 M35.043,40H24.956c-0.552,0-1-0.447-1-1c0-0.553,0.448-1,1-1h10.087c0.552,0,1,0.447,1,1C36.043,39.553,35.596,40,35.043,40z
	 M35.043,34H24.956c-0.552,0-1-0.447-1-1c0-0.553,0.448-1,1-1h10.087c0.552,0,1,0.447,1,1C36.043,33.553,35.596,34,35.043,34z
	 M35.043,28H24.956c-0.552,0-1-0.447-1-1c0-0.553,0.448-1,1-1h10.087c0.552,0,1,0.447,1,1C36.043,27.553,35.596,28,35.043,28z
	 M35.043,22H24.956c-0.552,0-1-0.447-1-1c0-0.553,0.448-1,1-1h10.087c0.552,0,1,0.447,1,1C36.043,21.553,35.596,22,35.043,22z
	 M35.043,16H24.956c-0.552,0-1-0.447-1-1c0-0.553,0.448-1,1-1h10.087c0.552,0,1,0.447,1,1C36.043,15.553,35.596,16,35.043,16z
	 M35.043,10H24.956c-0.552,0-1-0.447-1-1c0-0.553,0.448-1,1-1h10.087c0.552,0,1,0.447,1,1C36.043,9.553,35.596,10,35.043,10z
	 M50.174,52H40.087c-0.552,0-1-0.447-1-1c0-0.553,0.448-1,1-1h10.087c0.552,0,1,0.447,1,1C51.174,51.553,50.726,52,50.174,52z
	 M50.174,46H40.087c-0.552,0-1-0.447-1-1c0-0.553,0.448-1,1-1h10.087c0.552,0,1,0.447,1,1C51.174,45.553,50.726,46,50.174,46z"/>
</svg>
