<?xml version="1.0" encoding="utf-8"?>
<!-- Generator: Adobe Illustrator 17.0.0, SVG Export Plug-In . SVG Version: 6.00 Build 0)  -->
<!DOCTYPE svg PUBLIC "-//W3C//DTD SVG 1.1//EN" "http://www.w3.org/Graphics/SVG/1.1/DTD/svg11.dtd">
<svg version="1.1" id="Layer_2" xmlns="http://www.w3.org/2000/svg" xmlns:xlink="http://www.w3.org/1999/xlink" x="0px" y="0px"
	 width="60px" height="60px" viewBox="0 0 60 60" enable-background="new 0 0 60 60" xml:space="preserve">
<g>
	<path fill="#010101" d="M30,25c-2.757,0-5,2.243-5,5c0,2.757,2.243,5,5,5c2.757,0,5-2.243,5-5C35,27.243,32.757,25,30,25z
		 M30,31.761c-0.971,0-1.761-0.79-1.761-1.761c0-0.971,0.79-1.761,1.761-1.761c0.971,0,1.761,0.79,1.761,1.761
		C31.761,30.971,30.971,31.761,30,31.761z"/>
	<path fill="#010101" d="M30,0C13.458,0,0,13.458,0,30s13.458,30,30,30s30-13.458,30-30S46.542,0,30,0z M25.569,53.267
		c-9.767-1.85-17.38-9.697-18.942-19.527l1.976-0.314c1.43,9,8.398,16.184,17.339,17.877L25.569,53.267z M26.511,48.315
		c-7.689-1.457-13.681-7.635-14.911-15.372l1.976-0.314c1.097,6.907,6.445,12.422,13.307,13.722L26.511,48.315z M27.456,43.363
		c-5.61-1.062-9.983-5.57-10.88-11.216l1.976-0.315c0.765,4.815,4.493,8.659,9.276,9.565L27.456,43.363z M30,37c-3.86,0-7-3.141-7-7
		c0-3.859,3.14-7,7-7c3.86,0,7,3.141,7,7C37,33.859,33.86,37,30,37z M41.449,28.167c-0.766-4.815-4.495-8.659-9.277-9.565
		l0.372-1.965c5.609,1.062,9.981,5.569,10.88,11.216L41.449,28.167z M46.423,27.372c-1.097-6.907-6.445-12.422-13.308-13.722
		l0.372-1.965c7.689,1.456,13.681,7.634,14.911,15.372L46.423,27.372z M34.059,8.698l0.372-1.965
		c9.768,1.85,17.38,9.697,18.943,19.527l-1.976,0.314C49.968,17.575,42.999,10.392,34.059,8.698z"/>
</g>
</svg>
