<?xml version="1.0" encoding="utf-8"?>
<!-- Generator: Adobe Illustrator 17.0.0, SVG Export Plug-In . SVG Version: 6.00 Build 0)  -->
<!DOCTYPE svg PUBLIC "-//W3C//DTD SVG 1.1//EN" "http://www.w3.org/Graphics/SVG/1.1/DTD/svg11.dtd">
<svg version="1.1" id="Layer_2" xmlns="http://www.w3.org/2000/svg" xmlns:xlink="http://www.w3.org/1999/xlink" x="0px" y="0px"
	 width="60px" height="60px" viewBox="0 0 60 60" enable-background="new 0 0 60 60" xml:space="preserve">
<g>
	<path fill="#010101" d="M54,10V6.043C54,3.606,52.383,0,48.913,0C45.722,0,44,3.113,44,6.043v3.959L0,10.089V60h60V10H54z
		 M31.589,53.825c-2.129,0.751-4.361,1.132-6.633,1.132c-10.98,0-19.913-8.934-19.913-19.914c0-10.979,8.933-19.912,19.913-19.912
		c8.5,0,16.07,5.398,18.836,13.433c0.18,0.521-0.098,1.091-0.62,1.27c-0.525,0.179-1.092-0.098-1.271-0.62
		c-2.488-7.228-9.298-12.083-16.945-12.083c-9.877,0-17.913,8.035-17.913,17.912c0,9.878,8.036,17.914,17.913,17.914
		c2.045,0,4.053-0.343,5.968-1.018c0.521-0.18,1.092,0.091,1.275,0.61C32.384,53.07,32.11,53.642,31.589,53.825z M31.956,35.043
		c0,3.859-3.14,7-7,7c-3.86,0-7-3.141-7-7c0-3.859,3.14-7,7-7C28.816,28.043,31.956,31.184,31.956,35.043z M50,33.383l-5.96,6.65
		l3.331,3.332l-7.109,7.109c-0.556,0.557-1.295,0.863-2.083,0.863c-0.788,0-1.527-0.307-2.083-0.863l-3.611-3.612
		c-0.557-0.557-0.863-1.296-0.863-2.083c0-0.787,0.306-1.526,0.863-2.083l7.109-7.109l3.03,3.031l5.376-6V16h2V33.383z M52,14h-6
		V6.043C46,4.48,46.791,2,48.913,2C51.095,2,52,4.633,52,6.043V14z"/>
	<path fill="#010101" d="M22.695,35.043c0,1.247,1.014,2.262,2.261,2.262c1.247,0,2.261-1.015,2.261-2.262
		c0-1.246-1.014-2.261-2.261-2.261C23.709,32.782,22.695,33.797,22.695,35.043z"/>
</g>
</svg>
