<?xml version="1.0" encoding="utf-8"?>
<!-- Generator: Adobe Illustrator 17.0.0, SVG Export Plug-In . SVG Version: 6.00 Build 0)  -->
<!DOCTYPE svg PUBLIC "-//W3C//DTD SVG 1.1//EN" "http://www.w3.org/Graphics/SVG/1.1/DTD/svg11.dtd">
<svg version="1.1" id="Layer_2" xmlns="http://www.w3.org/2000/svg" xmlns:xlink="http://www.w3.org/1999/xlink" x="0px" y="0px"
	 width="60px" height="60px" viewBox="0 0 60 60" enable-background="new 0 0 60 60" xml:space="preserve">
<path fill="#010101" d="M57.44,10.281l1.815-1.815c0.188-0.188,0.293-0.441,0.293-0.707s-0.105-0.52-0.293-0.707L52.95,0.747
	c-0.375-0.375-1.039-0.375-1.414,0l-1.815,1.815l-1.815-1.815c-0.391-0.391-1.024-0.391-1.414,0c-0.391,0.391-0.391,1.023,0,1.414
	l1.815,1.815l-2.369,2.369l-1.815-1.815c-0.391-0.391-1.023-0.391-1.414,0c-0.391,0.391-0.391,1.023,0,1.414l1.815,1.815
	l-3.075,3.075c-0.188,0.188-0.293,0.441-0.293,0.707c0,0.266,0.105,0.52,0.293,0.707l0.554,0.554l-8.805,8.805
	c-2.133-1.316-4.451-2.008-6.75-2.008c-5.202,0-9.317,3.411-10.337,8.421c-6.824-1.116-12.288,1.625-14.583,7.168
	c-2.462,5.942-0.607,13.445,4.616,18.669c3.615,3.615,8.38,5.689,13.073,5.689c4.21,0,7.975-1.67,10.328-4.582
	c1.644-2.033,3.341-5.571,2.438-11.074c3.387-0.686,6.077-2.778,7.474-5.857c1.572-3.467,1.167-7.609-1.062-11.229l8.805-8.806
	l0.554,0.555c0.188,0.188,0.442,0.293,0.708,0.293c0.265,0,0.52-0.105,0.707-0.293l3.076-3.076l1.814,1.814
	c0.195,0.195,0.451,0.293,0.707,0.293c0.256,0,0.512-0.098,0.707-0.293c0.391-0.391,0.391-1.023,0-1.414l-1.815-1.814l2.368-2.368
	l1.815,1.814c0.195,0.195,0.451,0.293,0.707,0.293c0.256,0,0.512-0.098,0.707-0.293c0.391-0.391,0.391-1.023,0-1.414L57.44,10.281z
	 M16.474,52.074c-0.195,0.195-0.451,0.293-0.707,0.293c-0.256,0-0.512-0.098-0.707-0.293l-7.133-7.132
	c-0.391-0.391-0.391-1.023,0-1.414c0.391-0.391,1.023-0.391,1.414,0l7.133,7.132C16.865,51.051,16.865,51.684,16.474,52.074z
	 M30.739,37.809c-1.14,1.142-2.658,1.77-4.271,1.77c-1.614,0-3.132-0.629-4.273-1.77c-1.142-1.142-1.771-2.659-1.771-4.273
	c0-1.614,0.629-3.132,1.771-4.273c1.142-1.142,2.66-1.77,4.273-1.77c1.614,0,3.131,0.628,4.272,1.77
	c1.143,1.142,1.772,2.659,1.772,4.273C32.511,35.149,31.882,36.667,30.739,37.809z"/>
</svg>
