<?xml version="1.0" encoding="utf-8"?>
<!-- Generator: Adobe Illustrator 17.0.0, SVG Export Plug-In . SVG Version: 6.00 Build 0)  -->
<!DOCTYPE svg PUBLIC "-//W3C//DTD SVG 1.1//EN" "http://www.w3.org/Graphics/SVG/1.1/DTD/svg11.dtd">
<svg version="1.1" id="Layer_2" xmlns="http://www.w3.org/2000/svg" xmlns:xlink="http://www.w3.org/1999/xlink" x="0px" y="0px"
	 width="60px" height="60px" viewBox="0 0 60 60" enable-background="new 0 0 60 60" xml:space="preserve">
<g>
	<path fill="#010101" d="M30,45c8.271,0,15-6.728,15-15c0-8.271-6.729-15-15-15s-15,6.729-15,15C15,38.272,21.729,45,30,45z"/>
	<path fill="#010101" d="M49.952,18.962C49.448,8.424,40.705,0,30,0C19.295,0,10.552,8.424,10.048,18.962C4.428,19.45,0,24.21,0,30
		c0,6.113,4.935,11.087,11,11.087c0.552,0,1-0.447,1-1V19.913C12,10.036,20.075,2,30,2c9.925,0,18,8.036,18,17.913v20.174
		c0,0.553,0.448,1,1,1c6.065,0,11-4.974,11-11.087C60,24.21,55.572,19.45,49.952,18.962z"/>
	<path fill="#010101" d="M42.608,50H17.391c-4.643,0-8.565,4.121-8.565,9c0,0.553,0.448,1,1,1h40.348c0.552,0,1-0.447,1-1
		C51.174,54.121,47.251,50,42.608,50z"/>
</g>
</svg>
