<?xml version="1.0" encoding="utf-8"?>
<!-- Generator: Adobe Illustrator 17.1.0, SVG Export Plug-In . SVG Version: 6.00 Build 0)  -->
<!DOCTYPE svg PUBLIC "-//W3C//DTD SVG 1.0//EN" "http://www.w3.org/TR/2001/REC-SVG-20010904/DTD/svg10.dtd">
<svg version="1.0" id="Layer_1" xmlns="http://www.w3.org/2000/svg" xmlns:xlink="http://www.w3.org/1999/xlink" x="0px" y="0px"
	 width="60px" height="60px" viewBox="0 0 60 60" enable-background="new 0 0 60 60" xml:space="preserve">
<g>
	<path d="M30,46.981c8.699,0,16.351-6.902,16.942-15H13.058C13.649,40.079,21.301,46.981,30,46.981z"/>
	<path d="M47,21.981H34.87c-0.552,0-1-0.447-1-1s0.448-1,1-1H47v-4H34.87c-0.552,0-1-0.447-1-1s0.448-1,1-1h11.978
		C46.075,8.722,42.137,4,37,1.619v6.362c0,0.553-0.448,1-1,1s-1-0.447-1-1v-7c0-0.052,0.022-0.096,0.03-0.146
		C33.731,0.41,32.38,0.143,31,0.042v7.939c0,0.553-0.448,1-1,1s-1-0.447-1-1V0.019c-1.393,0.061-2.74,0.263-4.016,0.613
		C24.986,0.66,25,0.685,25,0.713v7.268c0,0.553-0.448,1-1,1s-1-0.447-1-1V1.306c-5.367,2.192-9.192,6.919-9.879,12.675h11.662
		c0.552,0,1,0.447,1,1s-0.448,1-1,1H13v4h11.782c0.552,0,1,0.447,1,1s-0.448,1-1,1H13v8h34V21.981z"/>
	<path d="M50,24.981c-0.552,0-1,0.447-1,1v4h2v-4C51,25.428,50.552,24.981,50,24.981z"/>
	<path d="M11,25.938c0-0.553-0.448-1-1-1c-0.552,0-1,0.447-1,1l0,4.043h2V25.938z"/>
	<path d="M29.826,50.155c-5.271,0-10.13-2.018-13.683-5.682c-3.246-3.348-5.031-7.746-5.125-12.492H9.019
		c0.089,5.253,2.071,10.153,5.689,13.884c3.744,3.862,8.797,6.048,14.293,6.25v7.866h2v-7.883
		c10.969-0.576,19.459-9.121,19.951-20.117h-2C48.444,42.247,40.24,50.155,29.826,50.155z"/>
</g>
</svg>
