<?xml version="1.0" encoding="utf-8"?>
<!-- Generator: Adobe Illustrator 17.0.0, SVG Export Plug-In . SVG Version: 6.00 Build 0)  -->
<!DOCTYPE svg PUBLIC "-//W3C//DTD SVG 1.1//EN" "http://www.w3.org/Graphics/SVG/1.1/DTD/svg11.dtd">
<svg version="1.1" id="Layer_2" xmlns="http://www.w3.org/2000/svg" xmlns:xlink="http://www.w3.org/1999/xlink" x="0px" y="0px"
	 width="60px" height="60px" viewBox="0 0 60 60" enable-background="new 0 0 60 60" xml:space="preserve">
<g>
	<path fill="#010101" d="M30,0c-6.959,0-12.706,5.253-13.505,12h27.01C42.706,5.253,36.959,0,30,0z"/>
	<path fill="#010101" d="M16.411,14c0.134,4.67,2.625,8.751,6.33,11.1l2.149,25.144c0.207,2.38,1.967,4.235,4.239,4.629V59
		c0,0.553,0.448,1,1,1c0.552,0,1-0.447,1-1v-4.171c2.138-0.465,3.774-2.249,3.974-4.525L37.259,25.1
		c3.705-2.349,6.196-6.43,6.33-11.1H16.411z M31.129,38.826c0,0.553-0.448,1-1,1c-0.552,0-1-0.447-1-1v-5.044c0-0.553,0.448-1,1-1
		c0.552,0,1,0.447,1,1V38.826z"/>
</g>
</svg>
