<?xml version="1.0" encoding="utf-8"?>
<!-- Generator: Adobe Illustrator 17.0.0, SVG Export Plug-In . SVG Version: 6.00 Build 0)  -->
<!DOCTYPE svg PUBLIC "-//W3C//DTD SVG 1.1//EN" "http://www.w3.org/Graphics/SVG/1.1/DTD/svg11.dtd">
<svg version="1.1" id="Layer_2" xmlns="http://www.w3.org/2000/svg" xmlns:xlink="http://www.w3.org/1999/xlink" x="0px" y="0px"
	 width="60px" height="60px" viewBox="0 0 60 60" enable-background="new 0 0 60 60" xml:space="preserve">
<path fill="#010101" d="M51.258,9.034C51.174,9.012,51.087,9,51,9H9C8.913,9,8.826,9.012,8.742,9.034
	C3.595,10.407,0,14.576,0,19.174V41c0,4.624,3.692,8.819,8.778,9.976C8.851,50.991,8.925,51,9,51h42
	c0.075,0,0.149-0.009,0.222-0.024C56.308,49.819,60,45.624,60,41V19.174C60,14.576,56.405,10.407,51.258,9.034z M44.317,30.981
	L21.621,42.329c-0.141,0.07-0.294,0.105-0.447,0.105c-0.183,0-0.365-0.05-0.526-0.149c-0.294-0.183-0.474-0.504-0.474-0.851V18.739
	c0-0.347,0.18-0.668,0.474-0.851c0.295-0.183,0.664-0.198,0.973-0.044l22.696,11.348c0.339,0.17,0.553,0.516,0.553,0.895
	C44.87,30.466,44.656,30.812,44.317,30.981z"/>
</svg>
