<?xml version="1.0" encoding="utf-8"?>
<!-- Generator: Adobe Illustrator 17.0.0, SVG Export Plug-In . SVG Version: 6.00 Build 0)  -->
<!DOCTYPE svg PUBLIC "-//W3C//DTD SVG 1.1//EN" "http://www.w3.org/Graphics/SVG/1.1/DTD/svg11.dtd">
<svg version="1.1" id="Layer_2" xmlns="http://www.w3.org/2000/svg" xmlns:xlink="http://www.w3.org/1999/xlink" x="0px" y="0px"
	 width="60px" height="60px" viewBox="0 0 60 60" enable-background="new 0 0 60 60" xml:space="preserve">
<g>
	<path fill="#010101" d="M7.5,51.299c0,4.888,3.364,8.435,8,8.435c4.794,0,9-3.738,9-8v-9h-9C10.939,42.733,7.5,46.416,7.5,51.299z"
		/>
	<path fill="#010101" d="M22.5,12.052v10.682V24.2v18.528h2V23.415l26-10.214v19.533h-6c-4.878,0-9,3.923-9,8.565
		c0,4.572,4.122,8.435,9,8.435c4.56,0,8-3.439,8-8v-8v-1V12.415v-0.682V0.267L22.5,12.052z"/>
</g>
</svg>
