<?xml version="1.0" encoding="utf-8"?>
<!-- Generator: Adobe Illustrator 17.0.0, SVG Export Plug-In . SVG Version: 6.00 Build 0)  -->
<!DOCTYPE svg PUBLIC "-//W3C//DTD SVG 1.1//EN" "http://www.w3.org/Graphics/SVG/1.1/DTD/svg11.dtd">
<svg version="1.1" id="Layer_2" xmlns="http://www.w3.org/2000/svg" xmlns:xlink="http://www.w3.org/1999/xlink" x="0px" y="0px"
	 width="60px" height="60px" viewBox="0 0 60 60" enable-background="new 0 0 60 60" xml:space="preserve">
<path fill="#010101" d="M30,0C13.458,0,0,13.458,0,30s13.458,30,30,30s30-13.458,30-30S46.542,0,30,0z M31.94,30.734L19.679,42.082
	c-0.189,0.174-0.432,0.266-0.679,0.266c-0.135,0-0.272-0.027-0.4-0.084c-0.364-0.159-0.6-0.519-0.6-0.916V18.652
	c0-0.397,0.235-0.757,0.6-0.916c0.365-0.159,0.788-0.087,1.08,0.182L31.94,29.266c0.205,0.19,0.321,0.456,0.321,0.734
	C32.261,30.278,32.144,30.545,31.94,30.734z M42,41c0,0.553-0.448,1-1,1h-4c-0.552,0-1-0.447-1-1V19c0-0.553,0.448-1,1-1h4
	c0.552,0,1,0.447,1,1V41z"/>
</svg>
