<?xml version="1.0" encoding="utf-8"?>
<!-- Generator: Adobe Illustrator 17.0.0, SVG Export Plug-In . SVG Version: 6.00 Build 0)  -->
<!DOCTYPE svg PUBLIC "-//W3C//DTD SVG 1.1//EN" "http://www.w3.org/Graphics/SVG/1.1/DTD/svg11.dtd">
<svg version="1.1" id="Layer_2" xmlns="http://www.w3.org/2000/svg" xmlns:xlink="http://www.w3.org/1999/xlink" x="0px" y="0px"
	 width="60px" height="60px" viewBox="0 0 60 60" enable-background="new 0 0 60 60" xml:space="preserve">
<g>
	<path fill="#010101" d="M4,10.957H1c-0.552,0-1,0.447-1,1v36c0,0.553,0.448,1,1,1h3c0.552,0,1-0.447,1-1v-36
		C5,11.404,4.552,10.957,4,10.957z"/>
	<path fill="#010101" d="M59,10.957h-3c-0.552,0-1,0.447-1,1v36c0,0.553,0.448,1,1,1h3c0.552,0,1-0.447,1-1v-36
		C60,11.404,59.552,10.957,59,10.957z"/>
	<path fill="#010101" d="M32,34.957c0,3.954,4.796,4,5,4c2.218,0,3-0.823,3-1v-5.435v-1.565h-3C36.796,30.957,32,31.003,32,34.957z"
		/>
	<path fill="#010101" d="M16,40.957c0,3.888,4.488,4,5,4c2.107,0,3-0.777,3-1.087v-5.044v-1.869h-3
		C20.488,36.957,16,37.069,16,40.957z"/>
	<path fill="#010101" d="M52,5.043H8c-0.552,0-1,0.447-1,1v47.913c0,0.553,0.448,1,1,1h44c0.552,0,1-0.447,1-1V6.043
		C53,5.491,52.552,5.043,52,5.043z M42,29.957v2.565v5.435c0,1.491-1.717,3-5,3c-2.421,0-7-1.254-7-6s4.579-6,7-6h3V15.421
		l-14,8.826v11.709v2.869v5.044c0,1.486-1.565,3.087-5,3.087c-3.484,0-7-1.855-7-6s3.516-6,7-6h3V23.696
		c0-0.344,0.176-0.663,0.467-0.846l16-10.087c0.308-0.194,0.697-0.207,1.016-0.03C41.802,12.91,42,13.245,42,13.609V29.957z"/>
</g>
</svg>
