<?xml version="1.0" encoding="utf-8"?>
<!-- Generator: Adobe Illustrator 17.0.0, SVG Export Plug-In . SVG Version: 6.00 Build 0)  -->
<!DOCTYPE svg PUBLIC "-//W3C//DTD SVG 1.1//EN" "http://www.w3.org/Graphics/SVG/1.1/DTD/svg11.dtd">
<svg version="1.1" id="Layer_2" xmlns="http://www.w3.org/2000/svg" xmlns:xlink="http://www.w3.org/1999/xlink" x="0px" y="0px"
	 width="60px" height="60px" viewBox="0 0 60 60" enable-background="new 0 0 60 60" xml:space="preserve">
<g>
	<path fill="#010101" d="M55,10h-7v23c0,0.553-0.448,1-1,1h-1v16h9c0.552,0,1-0.447,1-1V11C56,10.447,55.552,10,55,10z"/>
	<path fill="#010101" d="M12,33V10H5c-0.552,0-1,0.447-1,1v38c0,0.553,0.448,1,1,1h9V34h-1C12.448,34,12,33.553,12,33z"/>
	<path fill="#010101" d="M42,33V10h-4v23c0,0.553-0.448,1-1,1h-1v16h8V34h-1C42.448,34,42,33.553,42,33z"/>
	<path fill="#010101" d="M32,33V10h-4v23c0,0.553-0.448,1-1,1h-1v16h8V34h-1C32.448,34,32,33.553,32,33z"/>
	<path fill="#010101" d="M22,33V10h-4v23c0,0.553-0.448,1-1,1h-1v16h8V34h-1C22.448,34,22,33.553,22,33z"/>
</g>
</svg>
