<?xml version="1.0" encoding="utf-8"?>
<!-- Generator: Adobe Illustrator 17.0.0, SVG Export Plug-In . SVG Version: 6.00 Build 0)  -->
<!DOCTYPE svg PUBLIC "-//W3C//DTD SVG 1.1//EN" "http://www.w3.org/Graphics/SVG/1.1/DTD/svg11.dtd">
<svg version="1.1" id="Layer_2" xmlns="http://www.w3.org/2000/svg" xmlns:xlink="http://www.w3.org/1999/xlink" x="0px" y="0px"
	 width="60px" height="60px" viewBox="0 0 60 60" enable-background="new 0 0 60 60" xml:space="preserve">
<g>
	<path fill="#010101" d="M51.841,6.817c-2.863-1.909-3.426-4.063-3.506-4.447V1.5c0-0.828-0.671-1.5-1.5-1.5
		c-0.829,0-1.5,0.672-1.5,1.5V43h-5.5c-5.44,0-9.239,3.263-9.239,7.935c0,4.999,4.067,9.065,9.065,9.065
		c4.864,0,8.674-3.733,8.674-8.5v-5.608V44.5V7.837c0.521,0.5,1.125,0.998,1.842,1.476c10.334,6.891,6.772,16.143,5.251,20.096
		c-0.126,0.328-0.236,0.613-0.307,0.816l-1.445,3.782c-0.295,0.773,0.092,1.641,0.866,1.937c0.176,0.067,0.357,0.099,0.535,0.099
		c0.604,0,1.173-0.367,1.402-0.965l1.458-3.817c0.077-0.217,0.177-0.476,0.292-0.774C59.698,26.666,64.174,15.04,51.841,6.817z"/>
	<path fill="#010101" d="M1.763,12h30.261c1.104,0,2-0.895,2-2c0-1.104-0.896-2-2-2H1.763c-1.104,0-2,0.896-2,2
		C-0.237,11.105,0.659,12,1.763,12z"/>
	<path fill="#010101" d="M1.763,20h30.261c1.104,0,2-0.895,2-2c0-1.104-0.896-2-2-2H1.763c-1.104,0-2,0.896-2,2
		C-0.237,19.105,0.659,20,1.763,20z"/>
	<path fill="#010101" d="M1.763,28h30.261c1.104,0,2-0.895,2-2c0-1.104-0.896-2-2-2H1.763c-1.104,0-2,0.896-2,2
		C-0.237,27.105,0.659,28,1.763,28z"/>
	<path fill="#010101" d="M1.763,36h30.261c1.104,0,2-0.895,2-2c0-1.104-0.896-2-2-2H1.763c-1.104,0-2,0.896-2,2
		C-0.237,35.105,0.659,36,1.763,36z"/>
	<path fill="#010101" d="M26.98,40H1.763c-1.104,0-2,0.896-2,2c0,1.105,0.895,2,2,2H26.98c1.104,0,2-0.895,2-2
		C28.98,40.896,28.085,40,26.98,40z"/>
	<path fill="#010101" d="M19.416,48H1.763c-1.104,0-2,0.896-2,2c0,1.105,0.895,2,2,2h17.652c1.104,0,2-0.895,2-2
		C21.416,48.896,20.52,48,19.416,48z"/>
</g>
</svg>
