<?xml version="1.0" encoding="utf-8"?>
<!-- Generator: Adobe Illustrator 17.0.0, SVG Export Plug-In . SVG Version: 6.00 Build 0)  -->
<!DOCTYPE svg PUBLIC "-//W3C//DTD SVG 1.1//EN" "http://www.w3.org/Graphics/SVG/1.1/DTD/svg11.dtd">
<svg version="1.1" id="Layer_2" xmlns="http://www.w3.org/2000/svg" xmlns:xlink="http://www.w3.org/1999/xlink" x="0px" y="0px"
	 width="60px" height="60px" viewBox="0 0 60 60" enable-background="new 0 0 60 60" xml:space="preserve">
<g>
	<path fill="#010101" d="M38.826,48H34v2h4.826C40,50,40,49.273,40,49C40,48.727,40,48,38.826,48z"/>
	<path fill="#010101" d="M11,38h38c1.246,0,3-0.62,3-2H8C8,37.244,8.202,38,11,38z"/>
	<path fill="#010101" d="M49.174,28H11c-0.998,0-2.029,0.369-2.567,0.918c-0.3,0.307-0.442,0.653-0.433,1.06V30h44
		C52,28.421,50.224,28,49.174,28z"/>
	<rect x="8" y="32" fill="#010101" width="44" height="2"/>
	<path fill="#010101" d="M20,49c0,0.273,0,1,1.174,1H32v-2H21.174C20,48,20,48.727,20,49z"/>
	<path fill="#010101" d="M53.956,20.174H10.28L46.838,1.894c0.494-0.247,0.694-0.848,0.447-1.342
		c-0.247-0.493-0.847-0.693-1.342-0.447L5.78,20.187C2.57,20.326,0,22.973,0,26.218v25.217C0,54.592,2.31,58,6.043,58H12v1
		c0,0.553,0.448,1,1,1c0.552,0,1-0.447,1-1v-1h32v1c0,0.553,0.448,1,1,1c0.552,0,1-0.447,1-1v-1h5.956
		C57.689,58,60,54.592,60,51.435V26.218C60,22.885,57.289,20.174,53.956,20.174z M11.087,52.435c-1.942,0-3.522-1.58-3.522-3.522
		c0-1.941,1.58-3.521,3.522-3.521c1.942,0,3.521,1.58,3.521,3.521C14.608,50.854,13.029,52.435,11.087,52.435z M38.826,52H21.174
		C19.275,52,18,50.794,18,49c0-1.794,1.275-3,3.174-3h17.652C40.725,46,42,47.206,42,49C42,50.794,40.725,52,38.826,52z
		 M48.913,52.435c-1.942,0-3.522-1.58-3.522-3.522c0-1.941,1.58-3.521,3.522-3.521c1.942,0,3.521,1.58,3.521,3.521
		C52.435,50.854,50.855,52.435,48.913,52.435z M54,36c0,2.598-2.576,4-5,4H11c-2.328,0-5-0.455-5-4v-6
		c-0.02-0.924,0.327-1.789,1.003-2.48C7.921,26.582,9.452,26,11,26h38.174C51.498,26,54,27.252,54,30V36z"/>
</g>
</svg>
