<?xml version="1.0" encoding="utf-8"?>
<!-- Generator: Adobe Illustrator 17.0.0, SVG Export Plug-In . SVG Version: 6.00 Build 0)  -->
<!DOCTYPE svg PUBLIC "-//W3C//DTD SVG 1.1//EN" "http://www.w3.org/Graphics/SVG/1.1/DTD/svg11.dtd">
<svg version="1.1" id="Layer_2" xmlns="http://www.w3.org/2000/svg" xmlns:xlink="http://www.w3.org/1999/xlink" x="0px" y="0px"
	 width="60px" height="60px" viewBox="0 0 60 60" enable-background="new 0 0 60 60" xml:space="preserve">
<g>
	<path fill="#010101" d="M34.636,21.5h-9.272c-1.692,5.216-6.591,9-12.364,9c-1.771,0-3.46-0.359-5-1.003V48.5c0,2.757,2.243,5,5,5
		h34c2.757,0,5-2.243,5-5V29.497c-1.54,0.644-3.229,1.003-5,1.003C41.227,30.5,36.328,26.716,34.636,21.5z M35.043,31.239
		c1.942,0,3.522,1.58,3.522,3.521c0,1.941-1.58,3.521-3.522,3.521c-1.942,0-3.522-1.58-3.522-3.521
		C31.521,32.819,33.102,31.239,35.043,31.239z M24.956,31.239c1.942,0,3.522,1.58,3.522,3.521c0,1.941-1.58,3.521-3.522,3.521
		c-1.942,0-3.521-1.58-3.521-3.521C21.435,32.819,23.014,31.239,24.956,31.239z M14.87,44.587c-1.247,0-2.261-1.015-2.261-2.261
		c0-1.246,1.014-2.261,2.261-2.261c1.247,0,2.261,1.015,2.261,2.261C17.13,43.572,16.116,44.587,14.87,44.587z M40,51.5
		c0,0.553-0.448,1-1,1H21c-0.552,0-1-0.447-1-1v-5c0-0.553,0.448-1,1-1h18c0.552,0,1,0.447,1,1V51.5z M45.13,44.587
		c-1.247,0-2.261-1.015-2.261-2.261c0-1.246,1.014-2.261,2.261-2.261c1.247,0,2.261,1.015,2.261,2.261
		C47.391,43.572,46.377,44.587,45.13,44.587z"/>
	<path fill="#010101" d="M24,17.5c0-6.065-4.935-11-11-11c-6.065,0-11,4.935-11,11c0,6.065,4.935,11,11,11
		C19.065,28.5,24,23.565,24,17.5z M16.168,18.945c0.306-0.46,0.926-0.583,1.387-0.277l3,2c0.459,0.307,0.583,0.927,0.277,1.387
		c-0.193,0.289-0.51,0.445-0.833,0.445c-0.19,0-0.383-0.055-0.554-0.168l-3-2C15.986,20.025,15.862,19.405,16.168,18.945z
		 M10.555,20.332l-3,2C7.384,22.445,7.191,22.5,7.001,22.5c-0.323,0-0.64-0.156-0.833-0.445c-0.306-0.46-0.182-1.08,0.277-1.387l3-2
		c0.459-0.306,1.08-0.183,1.387,0.277C11.138,19.405,11.014,20.025,10.555,20.332z M12,15.5v-4c0-0.553,0.448-1,1-1
		c0.552,0,1,0.447,1,1v4c0,0.553-0.448,1-1,1C12.448,16.5,12,16.053,12,15.5z"/>
	<path fill="#010101" d="M47,6.5c-6.065,0-11,4.935-11,11c0,6.065,4.935,11,11,11c6.065,0,11-4.935,11-11
		C58,11.435,53.065,6.5,47,6.5z M44.555,20.332l-3,2c-0.17,0.113-0.363,0.168-0.554,0.168c-0.323,0-0.64-0.156-0.833-0.445
		c-0.306-0.46-0.182-1.08,0.277-1.387l3-2c0.458-0.306,1.08-0.183,1.387,0.277C45.138,19.405,45.014,20.025,44.555,20.332z M48,15.5
		c0,0.553-0.448,1-1,1c-0.552,0-1-0.447-1-1v-4c0-0.553,0.448-1,1-1c0.552,0,1,0.447,1,1V15.5z M53.999,22.5
		c-0.19,0-0.383-0.055-0.554-0.168l-3-2c-0.46-0.307-0.583-0.927-0.277-1.387c0.306-0.46,0.926-0.583,1.387-0.277l3,2
		c0.459,0.307,0.583,0.927,0.277,1.387C54.639,22.344,54.322,22.5,53.999,22.5z"/>
</g>
</svg>
