<?xml version="1.0" encoding="utf-8"?>
<!-- Generator: Adobe Illustrator 17.0.0, SVG Export Plug-In . SVG Version: 6.00 Build 0)  -->
<!DOCTYPE svg PUBLIC "-//W3C//DTD SVG 1.1//EN" "http://www.w3.org/Graphics/SVG/1.1/DTD/svg11.dtd">
<svg version="1.1" id="Layer_2" xmlns="http://www.w3.org/2000/svg" xmlns:xlink="http://www.w3.org/1999/xlink" x="0px" y="0px"
	 width="60px" height="60px" viewBox="0 0 60 60" enable-background="new 0 0 60 60" xml:space="preserve">
<g>
	<circle fill="#010101" cx="51.994" cy="9" r="1"/>
	<circle fill="#010101" cx="8.994" cy="9" r="1"/>
	<circle fill="#010101" cx="8.994" cy="52" r="1"/>
	<circle fill="#010101" cx="51.994" cy="52" r="1"/>
	<path fill="#010101" d="M59.993,11.591c0.135-3.027-0.944-5.901-3.039-8.093C54.828,1.275,51.823,0,48.71,0H11.994
		c-6.841,0-12,4.964-12,11.546V48c0,6.505,5.495,12,12,12H48.71c3.114,0,6.119-1.275,8.245-3.498
		c2.095-2.191,3.174-5.065,3.04-8.048L59.993,11.591z M8.994,6c1.654,0,3,1.346,3,3c0,1.654-1.346,3-3,3s-3-1.346-3-3
		C5.994,7.346,7.34,6,8.994,6z M8.994,55c-1.654,0-3-1.346-3-3c0-1.654,1.346-3,3-3s3,1.346,3,3C11.994,53.654,10.649,55,8.994,55z
		 M51.994,55c-1.654,0-3-1.346-3-3c0-1.654,1.346-3,3-3s3,1.346,3,3C54.994,53.654,53.649,55,51.994,55z M29.994,55
		c-13.785,0-25-11.215-25-25c0-13.785,11.215-25,25-25s25,11.215,25,25C54.994,43.785,43.78,55,29.994,55z M51.994,12
		c-1.654,0-3-1.346-3-3c0-1.654,1.346-3,3-3s3,1.346,3,3C54.994,10.654,53.649,12,51.994,12z"/>
	<path fill="#010101" d="M29.994,25c-2.757,0-5,2.243-5,5c0,2.757,2.243,5,5,5s5-2.243,5-5C34.994,27.243,32.751,25,29.994,25z"/>
	<path fill="#010101" d="M29.994,12c-9.925,0-18,8.075-18,18c0,9.925,8.075,18,18,18s18-8.075,18-18
		C47.994,20.075,39.92,12,29.994,12z M29.994,46c-8.822,0-16-7.178-16-16c0-8.822,7.178-16,16-16s16,7.178,16,16
		C45.994,38.822,38.817,46,29.994,46z"/>
</g>
</svg>
