<?xml version="1.0" encoding="utf-8"?>
<!-- Generator: Adobe Illustrator 17.0.0, SVG Export Plug-In . SVG Version: 6.00 Build 0)  -->
<!DOCTYPE svg PUBLIC "-//W3C//DTD SVG 1.1//EN" "http://www.w3.org/Graphics/SVG/1.1/DTD/svg11.dtd">
<svg version="1.1" id="Layer_2" xmlns="http://www.w3.org/2000/svg" xmlns:xlink="http://www.w3.org/1999/xlink" x="0px" y="0px"
	 width="60px" height="60px" viewBox="0 0 60 60" enable-background="new 0 0 60 60" xml:space="preserve">
<g>
	<path fill="#010101" d="M48.913,28.913h1.381c-0.366-1.423-1.48-2.538-2.903-2.904v1.382c0,0.553-0.448,1-1,1c-0.552,0-1-0.447-1-1
		v-1.382c-1.423,0.366-2.538,1.481-2.903,2.904h1.382c0.552,0,1,0.447,1,1s-0.448,1-1,1h-1.382c0.366,1.423,1.48,2.538,2.903,2.904
		v-1.382c0-0.553,0.448-1,1-1c0.552,0,1,0.447,1,1v1.382c1.423-0.366,2.538-1.481,2.903-2.904h-1.381c-0.552,0-1-0.447-1-1
		S48.361,28.913,48.913,28.913z"/>
	<path fill="#010101" d="M11.087,30.913H9.706c0.365,1.423,1.48,2.538,2.903,2.904v-1.382c0-0.553,0.448-1,1-1c0.552,0,1,0.447,1,1
		v1.382c1.423-0.366,2.538-1.481,2.904-2.904H16.13c-0.552,0-1-0.447-1-1s0.448-1,1-1h1.382c-0.366-1.423-1.48-2.538-2.904-2.904
		v1.382c0,0.553-0.448,1-1,1c-0.552,0-1-0.447-1-1v-1.382c-1.423,0.366-2.537,1.481-2.903,2.904h1.381c0.552,0,1,0.447,1,1
		S11.639,30.913,11.087,30.913z"/>
	<path fill="#010101" d="M56,10H4c-2.206,0-4,1.794-4,4v32c0,2.206,1.794,4,4,4h52c2.206,0,4-1.794,4-4V14
		C60,11.794,58.206,10,56,10z M50.194,48h-0.02H9.826c-0.425,0-0.804-0.269-0.944-0.671c-0.14-0.401-0.01-0.849,0.323-1.112l7.565-6
		C16.946,40.076,17.165,40,17.391,40h25.217c0.226,0,0.445,0.076,0.622,0.217l7.454,5.911c0.305,0.171,0.51,0.498,0.51,0.872
		C51.194,47.553,50.746,48,50.194,48z M7.565,29.913c0-3.333,2.711-6.044,6.043-6.044c3.332,0,6.044,2.711,6.044,6.044
		s-2.711,6.044-6.044,6.044C10.276,35.957,7.565,33.246,7.565,29.913z M22,31v-4c0-0.553,0.448-1,1-1h14c0.552,0,1,0.447,1,1v4
		c0,0.553-0.448,1-1,1H23C22.448,32,22,31.553,22,31z M46.391,35.957c-3.333,0-6.043-2.711-6.043-6.044s2.711-6.044,6.043-6.044
		s6.043,2.711,6.043,6.044S49.724,35.957,46.391,35.957z M51.435,16H8.565c-0.552,0-1-0.447-1-1c0-0.553,0.448-1,1-1h42.869
		c0.552,0,1,0.447,1,1C52.435,15.553,51.987,16,51.435,16z"/>
</g>
</svg>
