<?xml version="1.0" encoding="utf-8"?>
<!-- Generator: Adobe Illustrator 17.0.0, SVG Export Plug-In . SVG Version: 6.00 Build 0)  -->
<!DOCTYPE svg PUBLIC "-//W3C//DTD SVG 1.1//EN" "http://www.w3.org/Graphics/SVG/1.1/DTD/svg11.dtd">
<svg version="1.1" id="Layer_2" xmlns="http://www.w3.org/2000/svg" xmlns:xlink="http://www.w3.org/1999/xlink" x="0px" y="0px"
	 width="60px" height="60px" viewBox="0 0 60 60" enable-background="new 0 0 60 60" xml:space="preserve">
<path fill="#010101" d="M59.383,13.577c-0.375-0.157-0.804-0.07-1.09,0.217l-8.802,8.802c-0.184-0.056-0.376-0.095-0.578-0.095H32
	v-3c0-1.104-0.896-2-2-2c-1.105,0-2,0.896-2,2v3h-4v-3c0-1.104-0.896-2-2-2c-1.105,0-2,0.896-2,2v3h-2v-3c0-1.104-0.896-2-2-2
	c-1.105,0-2,0.896-2,2v3H4v-1c0-1.104-0.896-2-2-2c-1.105,0-2,0.896-2,2v6c0,1.104,0.895,2,2,2c1.104,0,2-0.896,2-2v-1h2.567
	C4.977,28.095,4,30.194,4,32.501c0,5.304,5.27,9,10,9v3c0,1.104,0.895,2,2,2c1.104,0,2-0.896,2-2v-3h2v3c0,1.104,0.895,2,2,2
	c1.104,0,2-0.896,2-2v-3h4v3c0,1.104,0.895,2,2,2c1.104,0,2-0.896,2-2v-3h4c4.73,0,10-3.696,10-9c0-2.306-0.977-4.406-2.567-6h5.48
	c0.202,0,0.394-0.039,0.578-0.095l8.802,8.802c0.191,0.191,0.447,0.293,0.707,0.293c0.129,0,0.259-0.024,0.383-0.076
	C59.756,35.27,60,34.905,60,34.501v-20C60,14.096,59.756,13.731,59.383,13.577z M14,37.501c-2.446,0-6-1.948-6-5c0-2.71,2.748-5,6-5
	V37.501z M20,37.501h-2v-10h2V37.501z M28,37.501h-4v-10h4V37.501z M36,37.501h-4v-10h4c3.252,0,6,2.29,6,5
	C42,35.598,38.505,37.501,36,37.501z"/>
</svg>
