<?xml version="1.0" encoding="utf-8"?>
<!-- Generator: Adobe Illustrator 17.0.0, SVG Export Plug-In . SVG Version: 6.00 Build 0)  -->
<!DOCTYPE svg PUBLIC "-//W3C//DTD SVG 1.1//EN" "http://www.w3.org/Graphics/SVG/1.1/DTD/svg11.dtd">
<svg version="1.1" id="Layer_2" xmlns="http://www.w3.org/2000/svg" xmlns:xlink="http://www.w3.org/1999/xlink" x="0px" y="0px"
	 width="60px" height="60px" viewBox="0 0 60 60" enable-background="new 0 0 60 60" xml:space="preserve">
<g>
	<path fill="#010101" d="M33,7.566c-8.231,0-16.976,5.491-20.632,12.869H7c-4.187,0-7,4.137-7,8v4.695
		c0,4.028,3.277,7.305,7.304,7.305h5.069c3.498,6.989,12.053,12,20.627,12c0.552,0,1-0.447,1-1V8.566
		C34,8.013,33.552,7.566,33,7.566z"/>
	<path fill="#010101" d="M59,30.435h-9v-9.261c0-0.553-0.448-1-1-1c-0.552,0-1,0.447-1,1v9.261h-9.174c-0.552,0-1,0.447-1,1
		c0,0.553,0.448,1,1,1H48v8.913c0,0.553,0.448,1,1,1c0.552,0,1-0.447,1-1v-8.913h9c0.552,0,1-0.447,1-1
		C60,30.882,59.552,30.435,59,30.435z"/>
</g>
</svg>
