<?xml version="1.0" encoding="utf-8"?>
<!-- Generator: Adobe Illustrator 17.0.0, SVG Export Plug-In . SVG Version: 6.00 Build 0)  -->
<!DOCTYPE svg PUBLIC "-//W3C//DTD SVG 1.1//EN" "http://www.w3.org/Graphics/SVG/1.1/DTD/svg11.dtd">
<svg version="1.1" id="Layer_2" xmlns="http://www.w3.org/2000/svg" xmlns:xlink="http://www.w3.org/1999/xlink" x="0px" y="0px"
	 width="60px" height="60px" viewBox="0 0 60 60" enable-background="new 0 0 60 60" xml:space="preserve">
<g>
	<path fill="#010101" d="M42.975,17.967c-0.524-0.183-1.091,0.101-1.269,0.624c-0.178,0.523,0.102,1.091,0.625,1.269
		c3.365,1.145,5.626,4.818,5.626,9.14c0,4.325-2.261,7.998-5.625,9.14c-0.523,0.178-0.803,0.746-0.625,1.269
		c0.141,0.417,0.53,0.679,0.947,0.679c0.107,0,0.215-0.016,0.321-0.053c4.176-1.418,6.983-5.852,6.983-11.034
		C49.956,23.821,47.15,19.387,42.975,17.967z"/>
	<path fill="#010101" d="M33,7.565c-8.231,0-16.976,5.491-20.632,12.869H7c-4.187,0-7,4.137-7,8v4.695
		c0,4.028,3.277,7.305,7.305,7.305h5.068c3.498,6.989,12.053,12,20.627,12c0.552,0,1-0.447,1-1V8.565
		C34,8.013,33.552,7.565,33,7.565z"/>
</g>
</svg>
