<?xml version="1.0" encoding="utf-8"?>
<!-- Generator: Adobe Illustrator 17.0.0, SVG Export Plug-In . SVG Version: 6.00 Build 0)  -->
<!DOCTYPE svg PUBLIC "-//W3C//DTD SVG 1.1//EN" "http://www.w3.org/Graphics/SVG/1.1/DTD/svg11.dtd">
<svg version="1.1" id="Layer_2" xmlns="http://www.w3.org/2000/svg" xmlns:xlink="http://www.w3.org/1999/xlink" x="0px" y="0px"
	 width="60px" height="60px" viewBox="0 0 60 60" enable-background="new 0 0 60 60" xml:space="preserve">
<g>
	<path fill="#010101" d="M48.571,14.358c-0.426-0.35-1.057-0.29-1.408,0.135c-0.351,0.426-0.291,1.057,0.135,1.408
		c4.375,3.61,7.202,9.247,7.202,14.359c0,5.101-2.827,10.737-7.203,14.359c-0.425,0.353-0.485,0.982-0.133,1.408
		c0.198,0.239,0.483,0.362,0.771,0.362c0.225,0,0.451-0.075,0.637-0.229c4.816-3.986,7.928-10.228,7.928-15.9
		C56.5,24.576,53.388,18.334,48.571,14.358z"/>
	<path fill="#010101" d="M43.479,20.626c-0.445-0.324-1.072-0.226-1.397,0.221c-0.325,0.446-0.226,1.072,0.221,1.397
		c2.113,1.536,4.631,4.174,4.631,8.018c0,3.846-2.519,6.482-4.631,8.018c-0.447,0.324-0.546,0.949-0.221,1.396
		c0.196,0.27,0.5,0.412,0.81,0.412c0.204,0,0.409-0.062,0.587-0.191c3.518-2.555,5.456-5.977,5.456-9.635
		C48.935,26.604,46.997,23.182,43.479,20.626z"/>
	<path fill="#010101" d="M34.884,4.119c-0.372-0.151-0.802-0.069-1.089,0.215L16.087,21.956H7.674c-2.457,0-4.174,2.056-4.174,5.016
		l0.13,8.202c0,2.637,2.145,4.782,4.783,4.782h8.434L33.82,55.689c0.188,0.175,0.433,0.267,0.68,0.267
		c0.135,0,0.271-0.027,0.4-0.084c0.365-0.158,0.6-0.519,0.6-0.916V5.043C35.5,4.638,35.257,4.274,34.884,4.119z"/>
</g>
</svg>
