<?xml version="1.0" encoding="utf-8"?>
<!-- Generator: Adobe Illustrator 17.0.0, SVG Export Plug-In . SVG Version: 6.00 Build 0)  -->
<!DOCTYPE svg PUBLIC "-//W3C//DTD SVG 1.1//EN" "http://www.w3.org/Graphics/SVG/1.1/DTD/svg11.dtd">
<svg version="1.1" id="Layer_2" xmlns="http://www.w3.org/2000/svg" xmlns:xlink="http://www.w3.org/1999/xlink" x="0px" y="0px"
	 width="60px" height="60px" viewBox="0 0 60 60" enable-background="new 0 0 60 60" xml:space="preserve">
<g>
	<path fill="#010101" d="M38.884,4.119c-0.372-0.151-0.802-0.069-1.089,0.215L20.087,21.956h-8.414
		c-2.458,0-4.174,2.056-4.174,5.016l0.13,8.202c0,2.637,2.145,4.782,4.783,4.782h8.434L37.82,55.689
		c0.188,0.175,0.433,0.267,0.68,0.267c0.135,0,0.271-0.027,0.4-0.084c0.365-0.158,0.6-0.519,0.6-0.916V5.043
		C39.5,4.638,39.257,4.274,38.884,4.119z"/>
	<path fill="#010101" d="M47.044,20.626c-0.445-0.324-1.072-0.226-1.397,0.221c-0.325,0.446-0.226,1.072,0.221,1.397
		c2.113,1.536,4.632,4.174,4.632,8.018c0,3.847-2.519,6.482-4.631,8.017c-0.447,0.325-0.546,0.95-0.222,1.397
		c0.196,0.27,0.5,0.412,0.81,0.412c0.204,0,0.409-0.062,0.586-0.191c3.519-2.556,5.457-5.977,5.457-9.636
		C52.5,26.604,50.562,23.183,47.044,20.626z"/>
</g>
</svg>
