<?xml version="1.0" encoding="utf-8"?>
<!-- Generator: Adobe Illustrator 17.0.0, SVG Export Plug-In . SVG Version: 6.00 Build 0)  -->
<!DOCTYPE svg PUBLIC "-//W3C//DTD SVG 1.1//EN" "http://www.w3.org/Graphics/SVG/1.1/DTD/svg11.dtd">
<svg version="1.1" id="Layer_2" xmlns="http://www.w3.org/2000/svg" xmlns:xlink="http://www.w3.org/1999/xlink" x="0px" y="0px"
	 width="60px" height="60px" viewBox="0 0 60 60" enable-background="new 0 0 60 60" xml:space="preserve">
<g>
	<path fill="#010101" d="M35.834,55.855c0.188,0.175,0.433,0.267,0.68,0.267c0.135,0,0.271-0.027,0.4-0.084
		c0.365-0.158,0.6-0.519,0.6-0.916V25.77L21.063,42.163L35.834,55.855z"/>
	<path fill="#010101" d="M10.427,40.122h2.701l24.386-24.301V5.209c0-0.404-0.243-0.769-0.616-0.924
		c-0.373-0.151-0.802-0.069-1.089,0.215L18.101,22.122H9.688c-2.457,0-4.174,2.056-4.174,5.016l0.13,8.202
		C5.644,37.977,7.79,40.122,10.427,40.122z"/>
	<path fill="#010101" d="M45.058,20.792c-0.446-0.324-1.072-0.226-1.397,0.221c-0.325,0.446-0.226,1.072,0.221,1.397
		c2.113,1.536,4.632,4.174,4.632,8.018c0,3.847-2.519,6.482-4.631,8.017c-0.447,0.325-0.546,0.95-0.222,1.397
		c0.196,0.27,0.5,0.412,0.81,0.412c0.204,0,0.409-0.062,0.586-0.19c3.519-2.556,5.457-5.978,5.457-9.636
		C50.514,26.771,48.576,23.35,45.058,20.792z"/>
	<path fill="#010101" d="M54.126,4.241L54.126,4.241c-0.591-0.593-1.71-0.444-2.49,0.33L6.451,49.6
		c-0.778,0.776-0.932,1.896-0.341,2.49l0.001,0c0.591,0.593,1.713,0.443,2.492-0.333l10.993-10.955v0l17.919-17.856v0L53.785,6.732
		C54.564,5.956,54.717,4.835,54.126,4.241z"/>
</g>
</svg>
