<?xml version="1.0" encoding="utf-8"?>
<!-- Generator: Adobe Illustrator 17.0.0, SVG Export Plug-In . SVG Version: 6.00 Build 0)  -->
<!DOCTYPE svg PUBLIC "-//W3C//DTD SVG 1.1//EN" "http://www.w3.org/Graphics/SVG/1.1/DTD/svg11.dtd">
<svg version="1.1" id="Layer_2" xmlns="http://www.w3.org/2000/svg" xmlns:xlink="http://www.w3.org/1999/xlink" x="0px" y="0px"
	 width="60px" height="60px" viewBox="0 0 60 60" enable-background="new 0 0 60 60" xml:space="preserve">
<g>
	<path fill="#010101" d="M50.708,11.589c-0.467-0.294-1.085-0.155-1.379,0.311c-0.295,0.467-0.156,1.084,0.311,1.38
		C54.796,16.539,58,22.98,58,30.087c0,7.108-3.204,13.549-8.36,16.807c-0.467,0.295-0.606,0.913-0.311,1.38
		c0.19,0.301,0.515,0.466,0.846,0.466c0.183,0,0.367-0.05,0.533-0.154C56.439,44.963,60,37.875,60,30.087
		C60,22.3,56.439,15.212,50.708,11.589z"/>
	<path fill="#010101" d="M54.956,30.087c0-6.357-3.178-12.148-8.097-14.754c-0.49-0.261-1.094-0.073-1.352,0.416
		c-0.258,0.487-0.072,1.093,0.416,1.351c4.272,2.263,7.033,7.36,7.033,12.986c0,5.624-2.761,10.722-7.033,12.985
		c-0.488,0.259-0.674,0.864-0.416,1.352c0.18,0.339,0.526,0.532,0.885,0.532c0.158,0,0.318-0.037,0.467-0.116
		C51.778,42.233,54.956,36.442,54.956,30.087z"/>
	<path fill="#010101" d="M49.913,30.087c0-5.179-2.806-9.613-6.982-11.033c-0.524-0.183-1.091,0.102-1.269,0.624
		c-0.178,0.523,0.102,1.091,0.625,1.268c3.365,1.146,5.626,4.818,5.626,9.141c0,4.324-2.261,7.998-5.625,9.14
		c-0.523,0.178-0.803,0.746-0.625,1.268c0.141,0.417,0.53,0.679,0.947,0.679c0.106,0,0.215-0.017,0.321-0.053
		C47.107,39.703,49.913,35.269,49.913,30.087z"/>
	<path fill="#010101" d="M33,7.565c-8.231,0-16.976,5.491-20.632,12.869H7c-4.187,0-7,4.137-7,8v4.695
		c0,4.028,3.277,7.305,7.304,7.305h5.069c3.498,6.989,12.053,12,20.627,12c0.552,0,1-0.447,1-1V8.565
		C34,8.013,33.552,7.565,33,7.565z"/>
</g>
</svg>
