<?xml version="1.0" encoding="utf-8"?>
<!-- Generator: Adobe Illustrator 17.0.0, SVG Export Plug-In . SVG Version: 6.00 Build 0)  -->
<!DOCTYPE svg PUBLIC "-//W3C//DTD SVG 1.1//EN" "http://www.w3.org/Graphics/SVG/1.1/DTD/svg11.dtd">
<svg version="1.1" id="Layer_2" xmlns="http://www.w3.org/2000/svg" xmlns:xlink="http://www.w3.org/1999/xlink" x="0px" y="0px"
	 width="60px" height="60px" viewBox="0 0 60 60" enable-background="new 0 0 60 60" xml:space="preserve">
<g>
	<path fill="#010101" d="M50.832,9.334c-0.417-0.363-1.048-0.32-1.411,0.095c-0.363,0.416-0.321,1.048,0.095,1.411
		C54.908,15.552,58,22.632,58,30.26c0,7.628-3.092,14.707-8.484,19.421c-0.416,0.363-0.458,0.995-0.095,1.411
		c0.198,0.227,0.475,0.342,0.753,0.342c0.233,0,0.468-0.081,0.658-0.247C56.658,46.092,60,38.466,60,30.26
		C60,22.054,56.658,14.427,50.832,9.334z"/>
	<path fill="#010101" d="M44.506,14.358c-0.426-0.35-1.056-0.29-1.408,0.135c-0.352,0.426-0.292,1.057,0.134,1.408
		c4.375,3.61,7.202,9.247,7.202,14.359c0,5.101-2.827,10.737-7.203,14.359c-0.425,0.353-0.485,0.982-0.133,1.408
		c0.198,0.239,0.483,0.362,0.771,0.362c0.225,0,0.451-0.075,0.637-0.229c4.815-3.987,7.927-10.229,7.927-15.9
		C52.435,24.576,49.322,18.334,44.506,14.358z"/>
	<path fill="#010101" d="M39.414,20.626c-0.446-0.324-1.072-0.226-1.396,0.221c-0.325,0.446-0.226,1.072,0.221,1.397
		c2.113,1.536,4.631,4.174,4.631,8.018c0,3.846-2.519,6.482-4.631,8.018c-0.447,0.324-0.546,0.949-0.221,1.396
		c0.196,0.27,0.5,0.412,0.81,0.412c0.204,0,0.409-0.062,0.587-0.191c3.518-2.555,5.456-5.977,5.456-9.635
		C44.87,26.605,42.932,23.183,39.414,20.626z"/>
	<path fill="#010101" d="M31.384,4.119c-0.372-0.151-0.802-0.069-1.089,0.215L12.587,21.956H4.174C1.716,21.956,0,24.011,0,26.971
		l0.13,8.202c0,2.637,2.145,4.782,4.783,4.782h8.434L30.32,55.689c0.188,0.175,0.433,0.267,0.68,0.267
		c0.135,0,0.271-0.027,0.4-0.084c0.365-0.158,0.6-0.519,0.6-0.916V5.043C32,4.638,31.757,4.274,31.384,4.119z"/>
</g>
</svg>
