<?xml version="1.0" encoding="utf-8"?>
<!-- Generator: Adobe Illustrator 17.0.0, SVG Export Plug-In . SVG Version: 6.00 Build 0)  -->
<!DOCTYPE svg PUBLIC "-//W3C//DTD SVG 1.1//EN" "http://www.w3.org/Graphics/SVG/1.1/DTD/svg11.dtd">
<svg version="1.1" id="Layer_1" xmlns="http://www.w3.org/2000/svg" xmlns:xlink="http://www.w3.org/1999/xlink" x="0px" y="0px"
	 width="48px" height="48px" viewBox="0 0 48 48" enable-background="new 0 0 48 48" xml:space="preserve">
<path fill="#010101" d="M32.015,22.367C35.587,20.286,38,16.424,38,12c0-6.617-5.383-12-12-12H7C6.448,0,6,0.448,6,1s0.448,1,1,1h5
	v44H7c-0.552,0-1,0.448-1,1s0.448,1,1,1h22c7.168,0,13-5.831,13-13C42,28.871,37.732,23.732,32.015,22.367z M26,2
	c5.514,0,10,4.486,10,10s-4.486,10-10,10h-4h-8V2H26z M29,46H14V24h8h4h3c6.065,0,11,4.935,11,11S35.065,46,29,46z"/>
</svg>
