<?xml version="1.0" encoding="utf-8"?>
<!-- Generator: Adobe Illustrator 17.0.0, SVG Export Plug-In . SVG Version: 6.00 Build 0)  -->
<!DOCTYPE svg PUBLIC "-//W3C//DTD SVG 1.1//EN" "http://www.w3.org/Graphics/SVG/1.1/DTD/svg11.dtd">
<svg version="1.1" id="Layer_1" xmlns="http://www.w3.org/2000/svg" xmlns:xlink="http://www.w3.org/1999/xlink" x="0px" y="0px"
	 width="48px" height="48px" viewBox="0 0 48 48" enable-background="new 0 0 48 48" xml:space="preserve">
<g>
	<path fill="#010101" d="M7.464,40.879C9.215,42.629,12.525,44,15,44h4c2.475,0,5.785-1.371,7.536-3.121l18.343-18.344
		c0.941-0.942,1.46-2.197,1.46-3.536c0-1.339-0.519-2.594-1.46-3.535L34.536,5.121C33.594,4.18,32.339,3.662,31,3.662
		s-2.594,0.518-3.536,1.46l-9.17,9.17c0,0-0.001,0-0.001,0.001s0,0.001-0.001,0.001L3.122,29.465C2.18,30.406,1.662,31.661,1.662,33
		s0.518,2.594,1.459,3.536L7.464,40.879z M28.878,6.535C29.442,5.972,30.195,5.662,31,5.662s1.558,0.31,2.122,0.874l10.343,10.343
		c0.563,0.563,0.874,1.317,0.874,2.121c0,0.805-0.311,1.559-0.874,2.122L35,29.587L20.414,15L28.878,6.535z M4.536,30.879L19,16.414
		L33.587,31l-8.465,8.465C23.747,40.839,20.943,42,19,42h-4c-1.943,0-4.747-1.161-6.122-2.535l-4.343-4.343
		C3.972,34.558,3.662,33.805,3.662,33C3.662,32.196,3.972,31.442,4.536,30.879z"/>
	<path fill="#010101" d="M47,46H1c-0.552,0-1,0.448-1,1s0.448,1,1,1h46c0.552,0,1-0.448,1-1S47.552,46,47,46z"/>
</g>
</svg>
