<?xml version="1.0" encoding="utf-8"?>
<!-- Generator: Adobe Illustrator 17.0.0, SVG Export Plug-In . SVG Version: 6.00 Build 0)  -->
<!DOCTYPE svg PUBLIC "-//W3C//DTD SVG 1.1//EN" "http://www.w3.org/Graphics/SVG/1.1/DTD/svg11.dtd">
<svg version="1.1" id="Layer_1" xmlns="http://www.w3.org/2000/svg" xmlns:xlink="http://www.w3.org/1999/xlink" x="0px" y="0px"
	 width="48px" height="48px" viewBox="0 0 48 48" enable-background="new 0 0 48 48" xml:space="preserve">
<g>
	<path fill="#010101" d="M18.707,6.293c-0.391-0.391-1.023-0.391-1.414,0l-17,17c-0.391,0.391-0.391,1.023,0,1.414l17,17
		C17.488,41.902,17.744,42,18,42s0.512-0.098,0.707-0.293c0.391-0.391,0.391-1.023,0-1.414L2.414,24L18.707,7.707
		C19.098,7.316,19.098,6.684,18.707,6.293z"/>
	<path fill="#010101" d="M47.707,23.293l-17-17c-0.391-0.391-1.023-0.391-1.414,0c-0.391,0.391-0.391,1.023,0,1.414L45.586,24
		L29.293,40.293c-0.391,0.391-0.391,1.023,0,1.414C29.488,41.902,29.744,42,30,42s0.512-0.098,0.707-0.293l17-17
		C48.098,24.316,48.098,23.684,47.707,23.293z"/>
</g>
</svg>
