<?xml version="1.0" encoding="utf-8"?>
<!-- Generator: Adobe Illustrator 17.0.0, SVG Export Plug-In . SVG Version: 6.00 Build 0)  -->
<!DOCTYPE svg PUBLIC "-//W3C//DTD SVG 1.1//EN" "http://www.w3.org/Graphics/SVG/1.1/DTD/svg11.dtd">
<svg version="1.1" id="Layer_1" xmlns="http://www.w3.org/2000/svg" xmlns:xlink="http://www.w3.org/1999/xlink" x="0px" y="0px"
	 width="48px" height="48px" viewBox="0 0 48 48" enable-background="new 0 0 48 48" xml:space="preserve">
<g>
	<path fill="#010101" d="M19,10h28c0.553,0,1-0.448,1-1s-0.447-1-1-1H19c-0.553,0-1,0.448-1,1S18.447,10,19,10z"/>
	<path fill="#010101" d="M47,24H19c-0.553,0-1,0.448-1,1s0.447,1,1,1h28c0.553,0,1-0.448,1-1S47.553,24,47,24z"/>
	<path fill="#010101" d="M47,40H19c-0.553,0-1,0.448-1,1s0.447,1,1,1h28c0.553,0,1-0.448,1-1S47.553,40,47,40z"/>
	<path fill="#010101" d="M11,8H7.767l2.091-3.485c0.284-0.474,0.131-1.088-0.343-1.372C9.04,2.857,8.426,3.012,8.142,3.485
		L5.999,7.056l-2.142-3.57C3.574,3.013,2.959,2.858,2.485,3.143C2.012,3.427,1.858,4.041,2.143,4.515L4.234,8H1C0.447,8,0,8.448,0,9
		s0.447,1,1,1h3.233l-2.091,3.485c-0.284,0.474-0.131,1.088,0.343,1.372C2.646,14.954,2.824,15,2.999,15
		c0.34,0,0.671-0.173,0.859-0.485L6,10.944l2.143,3.571C8.33,14.827,8.661,15,9.001,15c0.175,0,0.352-0.046,0.513-0.142
		c0.474-0.284,0.627-0.898,0.343-1.372L7.765,10H11c0.553,0,1-0.448,1-1S11.553,8,11,8z"/>
	<path fill="#010101" d="M11,24H7.765l2.092-3.486c0.284-0.474,0.131-1.088-0.343-1.372c-0.475-0.285-1.089-0.13-1.372,0.343
		L6,23.056l-2.142-3.57c-0.283-0.473-0.898-0.628-1.372-0.343c-0.474,0.284-0.627,0.898-0.343,1.372L4.234,24H1
		c-0.553,0-1,0.448-1,1s0.447,1,1,1h3.233l-2.091,3.485c-0.284,0.474-0.131,1.088,0.343,1.372C2.646,30.954,2.824,31,2.999,31
		c0.34,0,0.671-0.173,0.858-0.486L6,26.943l2.143,3.572C8.33,30.827,8.661,31,9.001,31c0.175,0,0.352-0.046,0.514-0.142
		c0.474-0.284,0.627-0.898,0.343-1.372L7.766,26H11c0.553,0,1-0.448,1-1S11.553,24,11,24z"/>
	<path fill="#010101" d="M11,40H7.765l2.092-3.486c0.284-0.474,0.131-1.088-0.343-1.372c-0.475-0.285-1.089-0.13-1.372,0.343
		L6,39.056l-2.142-3.57c-0.283-0.473-0.898-0.628-1.372-0.343c-0.474,0.284-0.627,0.898-0.343,1.372L4.234,40H1
		c-0.553,0-1,0.448-1,1s0.447,1,1,1h3.233l-2.091,3.485c-0.284,0.474-0.131,1.088,0.343,1.372C2.646,46.954,2.824,47,2.999,47
		c0.34,0,0.671-0.173,0.858-0.486L6,42.943l2.143,3.572C8.33,46.827,8.661,47,9.001,47c0.175,0,0.352-0.046,0.514-0.142
		c0.474-0.284,0.627-0.898,0.343-1.372L7.766,42H11c0.553,0,1-0.448,1-1S11.553,40,11,40z"/>
</g>
</svg>
