<?xml version="1.0" encoding="utf-8"?>
<!-- Generator: Adobe Illustrator 17.1.0, SVG Export Plug-In . SVG Version: 6.00 Build 0)  -->
<!DOCTYPE svg PUBLIC "-//W3C//DTD SVG 1.0//EN" "http://www.w3.org/TR/2001/REC-SVG-20010904/DTD/svg10.dtd">
<svg version="1.0" id="Layer_1" xmlns="http://www.w3.org/2000/svg" xmlns:xlink="http://www.w3.org/1999/xlink" x="0px" y="0px"
	 width="48px" height="48px" viewBox="0 0 48 48" enable-background="new 0 0 48 48" xml:space="preserve">
<g>
	<path d="M13.069,8h34c0.553,0,1-0.447,1-1c0-0.553-0.447-1-1-1h-34c-0.553,0-1,0.447-1,1C12.069,7.553,12.517,8,13.069,8z"/>
	<path d="M47.069,22h-34c-0.553,0-1,0.447-1,1c0,0.553,0.447,1,1,1h34c0.553,0,1-0.447,1-1C48.069,22.447,47.622,22,47.069,22z"/>
	<path d="M47.069,38h-34c-0.553,0-1,0.447-1,1c0,0.553,0.447,1,1,1h34c0.553,0,1-0.447,1-1C48.069,38.447,47.622,38,47.069,38z"/>
	<path d="M1.768,6.789l1.302-1.271V11c0,0.553,0.447,1,1,1s1-0.447,1-1V3.146c0-0.402-0.241-0.766-0.611-0.922
		C4.085,2.067,3.659,2.149,3.371,2.43l-3,2.928c-0.396,0.386-0.403,1.019-0.018,1.414C0.741,7.169,1.374,7.175,1.768,6.789z"/>
	<path d="M5.069,26H2.997c0.507-0.597,0.931-1.041,1.279-1.407c1.031-1.083,1.654-1.736,1.654-3.52c0-1.635-1.346-2.964-3-2.964
		C1.287,18.109,0,19.403,0,21.055c0,0.553,0.447,1,1,1c0.553,0,1-0.447,1-1c0-0.557,0.383-0.945,0.931-0.945
		c0.561,0,1,0.424,1,0.964c0,0.983-0.168,1.16-1.102,2.141c-0.642,0.674-1.521,1.596-2.701,3.191
		c-0.225,0.304-0.259,0.708-0.089,1.045C0.208,27.787,0.553,28,0.931,28h4.139c0.553,0,1-0.447,1-1C6.069,26.447,5.622,26,5.069,26z
		"/>
	<path d="M4.549,37.419l1.22-1.873c0.2-0.308,0.216-0.7,0.041-1.023C5.635,34.201,5.298,34,4.931,34H1.069c-0.553,0-1,0.447-1,1
		c0,0.553,0.447,1,1,1h2.018l-0.994,1.526c-0.2,0.308-0.216,0.7-0.041,1.022c0.175,0.322,0.512,0.523,0.879,0.523
		c0.855,0,1,0.24,1,0.964c0,0.724-0.145,0.964-1,0.964H1.069c-0.553,0-1,0.447-1,1c0,0.553,0.447,1,1,1h1.861
		c1.906,0,3-1.08,3-2.964C5.931,38.777,5.442,37.877,4.549,37.419z"/>
</g>
</svg>
