<?xml version="1.0" encoding="utf-8"?>
<!-- Generator: Adobe Illustrator 17.0.0, SVG Export Plug-In . SVG Version: 6.00 Build 0)  -->
<!DOCTYPE svg PUBLIC "-//W3C//DTD SVG 1.1//EN" "http://www.w3.org/Graphics/SVG/1.1/DTD/svg11.dtd">
<svg version="1.1" id="Layer_1" xmlns="http://www.w3.org/2000/svg" xmlns:xlink="http://www.w3.org/1999/xlink" x="0px" y="0px"
	 width="48px" height="48px" viewBox="0 0 48 48" enable-background="new 0 0 48 48" xml:space="preserve">
<path fill="#010101" d="M47,0H13C5.832,0,0,5.832,0,13c0,7.169,5.832,13,13,13h7v21c0,0.552,0.447,1,1,1s1-0.448,1-1V2h12v45
	c0,0.552,0.447,1,1,1s1-0.448,1-1V2h11c0.553,0,1-0.448,1-1S47.553,0,47,0z M20,24h-7C6.935,24,2,19.065,2,13S6.935,2,13,2h7V24z"/>
</svg>
