<?xml version="1.0" encoding="utf-8"?>
<!-- Generator: Adobe Illustrator 17.0.0, SVG Export Plug-In . SVG Version: 6.00 Build 0)  -->
<!DOCTYPE svg PUBLIC "-//W3C//DTD SVG 1.1//EN" "http://www.w3.org/Graphics/SVG/1.1/DTD/svg11.dtd">
<svg version="1.1" id="Layer_1" xmlns="http://www.w3.org/2000/svg" xmlns:xlink="http://www.w3.org/1999/xlink" x="0px" y="0px"
	 width="48px" height="48px" viewBox="0 0 48 48" enable-background="new 0 0 48 48" xml:space="preserve">
<path fill="#010101" d="M47,26H26.439c-1.647-1.221-3.456-2.332-5.247-3.43C15.951,19.356,11,16.32,11,11c0-6.495,6.889-7,9-7
	c7.977,0,9,3.207,9,6v2c0,0.552,0.447,1,1,1s1-0.448,1-1v-2c0-5.309-3.701-8-11-8C13.215,2,9,5.449,9,11
	c0,6.44,5.667,9.915,11.147,13.275c0.938,0.575,1.865,1.146,2.762,1.725H1c-0.553,0-1,0.448-1,1s0.447,1,1,1h24.766
	C28.811,30.363,31,33.093,31,37c0,6.636-5.683,9-11,9c-5.019,0-11-1.388-11-8v-2c0-0.552-0.447-1-1-1s-1,0.448-1,1v2
	c0,6.449,4.617,10,13,10c7.897,0,13-4.318,13-11c0-3.825-1.707-6.651-4.17-9H47c0.553,0,1-0.448,1-1S47.553,26,47,26z"/>
</svg>
