<?xml version="1.0" encoding="utf-8"?>
<!-- Generator: Adobe Illustrator 17.0.0, SVG Export Plug-In . SVG Version: 6.00 Build 0)  -->
<!DOCTYPE svg PUBLIC "-//W3C//DTD SVG 1.1//EN" "http://www.w3.org/Graphics/SVG/1.1/DTD/svg11.dtd">
<svg version="1.1" id="Layer_1" xmlns="http://www.w3.org/2000/svg" xmlns:xlink="http://www.w3.org/1999/xlink" x="0px" y="0px"
	 width="48px" height="48px" viewBox="0 0 48 48" enable-background="new 0 0 48 48" xml:space="preserve">
<g>
	<path fill="#010101" d="M47,0H1C0.448,0,0,0.448,0,1v46c0,0.552,0.448,1,1,1h46c0.552,0,1-0.448,1-1V1C48,0.448,47.552,0,47,0z
		 M46,46H2V2h44V46z"/>
	<path fill="#010101" d="M13,12h8c0.552,0,1-0.448,1-1s-0.448-1-1-1h-8c-0.552,0-1,0.448-1,1S12.448,12,13,12z"/>
	<path fill="#010101" d="M7,18h14c0.552,0,1-0.448,1-1s-0.448-1-1-1H7c-0.552,0-1,0.448-1,1S6.448,18,7,18z"/>
	<path fill="#010101" d="M7,24h14c0.552,0,1-0.448,1-1s-0.448-1-1-1H7c-0.552,0-1,0.448-1,1S6.448,24,7,24z"/>
	<path fill="#010101" d="M7,30h34c0.552,0,1-0.448,1-1s-0.448-1-1-1H7c-0.552,0-1,0.448-1,1S6.448,30,7,30z"/>
	<path fill="#010101" d="M7,36h24c0.552,0,1-0.448,1-1s-0.448-1-1-1H7c-0.552,0-1,0.448-1,1S6.448,36,7,36z"/>
	<path fill="#010101" d="M25,24h16c0.552,0,1-0.448,1-1V7c0-0.552-0.448-1-1-1H25c-0.552,0-1,0.448-1,1v16
		C24,23.552,24.448,24,25,24z M26,8h14v14H26V8z"/>
</g>
</svg>
