<?xml version="1.0" encoding="utf-8"?>
<!-- Generator: Adobe Illustrator 17.0.0, SVG Export Plug-In . SVG Version: 6.00 Build 0)  -->
<!DOCTYPE svg PUBLIC "-//W3C//DTD SVG 1.1//EN" "http://www.w3.org/Graphics/SVG/1.1/DTD/svg11.dtd">
<svg version="1.1" id="Layer_1" xmlns="http://www.w3.org/2000/svg" xmlns:xlink="http://www.w3.org/1999/xlink" x="0px" y="0px"
	 width="48px" height="48px" viewBox="0 0 48 48" enable-background="new 0 0 48 48" xml:space="preserve">
<path fill="#010101" d="M44,0H6C5.447,0,5,0.448,5,1v6c0,0.552,0.447,1,1,1s1-0.448,1-1V2h17v44h-6c-0.553,0-1,0.448-1,1
	s0.447,1,1,1h14c0.553,0,1-0.448,1-1s-0.447-1-1-1h-6V2h17v5c0,0.552,0.447,1,1,1s1-0.448,1-1V1C45,0.448,44.553,0,44,0z"/>
</svg>
