<?xml version="1.0" encoding="utf-8"?>
<!-- Generator: Adobe Illustrator 17.0.0, SVG Export Plug-In . SVG Version: 6.00 Build 0)  -->
<!DOCTYPE svg PUBLIC "-//W3C//DTD SVG 1.1//EN" "http://www.w3.org/Graphics/SVG/1.1/DTD/svg11.dtd">
<svg version="1.1" id="Layer_2" xmlns="http://www.w3.org/2000/svg" xmlns:xlink="http://www.w3.org/1999/xlink" x="0px" y="0px"
	 width="48px" height="48px" viewBox="0 0 48 48" enable-background="new 0 0 48 48" xml:space="preserve">
<g>
	<path fill="#010101" d="M42,5c0-2.757-2.243-5-5-5H5C2.243,0,0,2.243,0,5v3h42V5z M7,6C6.447,6,6,5.553,6,5c0-0.553,0.447-1,1-1
		c0.552,0,1,0.447,1,1C8,5.553,7.552,6,7,6z M11,6c-0.553,0-1-0.447-1-1c0-0.553,0.447-1,1-1c0.552,0,1,0.447,1,1
		C12,5.553,11.552,6,11,6z M15,6c-0.553,0-1-0.447-1-1c0-0.553,0.447-1,1-1c0.552,0,1,0.447,1,1C16,5.553,15.552,6,15,6z"/>
	<path fill="#010101" d="M32.066,22.158c0.554-1.117,1.679-1.812,2.934-1.812c1.257,0,2.383,0.699,2.939,1.824L42,30.291V10H0v19
		c0,2.757,2.243,5,5,5h21.145L32.066,22.158z"/>
	<path fill="#010101" d="M47.97,46.705L36.148,23.061C35.93,22.618,35.49,22.346,35,22.346c-0.49,0-0.928,0.27-1.143,0.704
		L22.105,46.553c-0.155,0.311-0.139,0.678,0.044,0.973C22.332,47.82,22.653,48,23,48h24c0.008,0,0.016,0.001,0.019,0
		c0.553,0,1-0.448,1-1C48.019,46.897,47.999,46.798,47.97,46.705z M34,32.818c0-0.552,0.447-1,1-1c0.553,0,1,0.448,1,1v6.545
		c0,0.552-0.447,1-1,1c-0.553,0-1-0.448-1-1V32.818z M35,43.728c-0.602,0-1.091-0.488-1.091-1.091c0-0.603,0.489-1.091,1.091-1.091
		c0.602,0,1.091,0.488,1.091,1.091C36.091,43.239,35.602,43.728,35,43.728z"/>
</g>
</svg>
