<?xml version="1.0" encoding="utf-8"?>
<!-- Generator: Adobe Illustrator 17.0.0, SVG Export Plug-In . SVG Version: 6.00 Build 0)  -->
<!DOCTYPE svg PUBLIC "-//W3C//DTD SVG 1.1//EN" "http://www.w3.org/Graphics/SVG/1.1/DTD/svg11.dtd">
<svg version="1.1" id="Layer_2" xmlns="http://www.w3.org/2000/svg" xmlns:xlink="http://www.w3.org/1999/xlink" x="0px" y="0px"
	 width="48px" height="48px" viewBox="0 0 48 48" enable-background="new 0 0 48 48" xml:space="preserve">
<g>
	<path fill="#010101" d="M0,37c0,2.757,2.243,5,5,5h38c2.757,0,5-2.243,5-5V16H0V37z M22,28h8c0.553,0,1,0.448,1,1
		c0,0.552-0.447,1-1,1h-8c-0.553,0-1-0.448-1-1C21,28.448,21.447,28,22,28z M10.293,23.707c-0.391-0.391-0.391-1.023,0-1.414
		c0.391-0.391,1.023-0.391,1.414,0l5,5c0.391,0.391,0.391,1.023,0,1.414l-5,5C11.512,33.902,11.256,34,11,34
		c-0.256,0-0.512-0.098-0.707-0.293c-0.391-0.391-0.391-1.023,0-1.414L14.586,28L10.293,23.707z"/>
	<path fill="#010101" d="M43,4H5C2.243,4,0,6.243,0,9v5h48V9C48,6.243,45.757,4,43,4z M8,12c-1.103,0-2-0.897-2-2s0.897-2,2-2
		c1.102,0,2,0.897,2,2S9.102,12,8,12z M14,12c-1.103,0-2-0.897-2-2s0.897-2,2-2c1.102,0,2,0.897,2,2S15.102,12,14,12z M20,12
		c-1.103,0-2-0.897-2-2s0.897-2,2-2c1.102,0,2,0.897,2,2S21.102,12,20,12z"/>
</g>
</svg>
