<?xml version="1.0" encoding="utf-8"?>
<!-- Generator: Adobe Illustrator 17.0.0, SVG Export Plug-In . SVG Version: 6.00 Build 0)  -->
<!DOCTYPE svg PUBLIC "-//W3C//DTD SVG 1.1//EN" "http://www.w3.org/Graphics/SVG/1.1/DTD/svg11.dtd">
<svg version="1.1" id="Layer_2" xmlns="http://www.w3.org/2000/svg" xmlns:xlink="http://www.w3.org/1999/xlink" x="0px" y="0px"
	 width="48px" height="48px" viewBox="0 0 48 48" enable-background="new 0 0 48 48" xml:space="preserve">
<g>
	<path fill="#010101" d="M42,5c0-2.757-2.243-5-5-5H5C2.243,0,0,2.243,0,5v3h42V5z M7,6C6.447,6,6,5.553,6,5c0-0.553,0.447-1,1-1
		c0.552,0,1,0.447,1,1C8,5.553,7.552,6,7,6z M11,6c-0.553,0-1-0.447-1-1c0-0.553,0.447-1,1-1c0.552,0,1,0.447,1,1
		C12,5.553,11.552,6,11,6z M15,6c-0.553,0-1-0.447-1-1c0-0.553,0.447-1,1-1c0.552,0,1,0.447,1,1C16,5.553,15.552,6,15,6z"/>
	<path fill="#010101" d="M37.897,22c1.291,0,2.747,0.456,4.103,1.234V10H0v19c0,2.757,2.243,5,5,5h20.793v-1.759
		c0-1.179,0.931-1.862,1.862-1.862h1.416C29.071,25.75,34.172,22,37.897,22z"/>
	<path fill="#010101" d="M46.896,32h-1.482v-0.922c0-3.794-3.724-7.517-7.518-7.517c-3.793,0-7.517,3.724-7.517,7.517V32h-1.483
		c-0.553,0-1,0.448-1,1v14c0,0.552,0.447,1,1,1h18c0.553,0,1-0.448,1-1V33C47.896,32.448,47.449,32,46.896,32z M39.074,39.52
		c-0.055,0.057-0.117,0.104-0.178,0.151v3.557c0,0.552-0.447,1-1,1s-1-0.448-1-1v-3.562c-0.374-0.294-0.624-0.741-0.634-1.248
		c-0.009-0.437,0.153-0.851,0.457-1.165c0.303-0.314,0.709-0.492,1.146-0.5h0.001c0.914,0,1.646,0.719,1.664,1.603
		C39.539,38.791,39.377,39.205,39.074,39.52z M43.414,32.241H32.38v-1.164c0-2.682,2.836-5.517,5.517-5.517
		c2.682,0,5.518,2.836,5.518,5.517V32.241z"/>
</g>
</svg>
