<?xml version="1.0" encoding="utf-8"?>
<!-- Generator: Adobe Illustrator 17.0.0, SVG Export Plug-In . SVG Version: 6.00 Build 0)  -->
<!DOCTYPE svg PUBLIC "-//W3C//DTD SVG 1.1//EN" "http://www.w3.org/Graphics/SVG/1.1/DTD/svg11.dtd">
<svg version="1.1" id="Layer_2" xmlns="http://www.w3.org/2000/svg" xmlns:xlink="http://www.w3.org/1999/xlink" x="0px" y="0px"
	 width="48px" height="48px" viewBox="0 0 48 48" enable-background="new 0 0 48 48" xml:space="preserve">
<g>
	<path fill="#010101" d="M42,5c0-2.757-2.243-5-5-5H5C2.243,0,0,2.243,0,5v3h42V5z M7,6C6.447,6,6,5.553,6,5c0-0.553,0.447-1,1-1
		c0.552,0,1,0.447,1,1C8,5.553,7.552,6,7,6z M11,6c-0.553,0-1-0.447-1-1c0-0.553,0.447-1,1-1c0.552,0,1,0.447,1,1
		C12,5.553,11.552,6,11,6z M15,6c-0.553,0-1-0.447-1-1c0-0.553,0.447-1,1-1c0.552,0,1,0.447,1,1C16,5.553,15.552,6,15,6z"/>
	<path fill="#010101" d="M34.5,22c2.776,0,5.354,0.84,7.5,2.276V10H0v19c0,2.757,2.243,5,5,5h16.088
		C21.835,27.251,27.552,22,34.5,22z"/>
	<path fill="#010101" d="M34.5,28c-4.136,0-7.5,3.364-7.5,7.5c0,1.708,0.58,3.279,1.545,4.541l10.496-10.496
		C37.779,28.58,36.208,28,34.5,28z"/>
	<path fill="#010101" d="M40.455,30.959L29.959,41.455C31.221,42.42,32.792,43,34.5,43c4.136,0,7.5-3.364,7.5-7.5
		C42,33.792,41.42,32.221,40.455,30.959z"/>
	<path fill="#010101" d="M34.5,24C28.149,24,23,29.148,23,35.5C23,41.852,28.149,47,34.5,47C40.851,47,46,41.852,46,35.5
		C46,29.148,40.851,24,34.5,24z M34.5,45c-5.238,0-9.5-4.262-9.5-9.5c0-5.238,4.262-9.5,9.5-9.5c5.238,0,9.5,4.262,9.5,9.5
		C44,40.738,39.738,45,34.5,45z"/>
</g>
</svg>
