<?xml version="1.0" encoding="utf-8"?>
<!-- Generator: Adobe Illustrator 17.0.0, SVG Export Plug-In . SVG Version: 6.00 Build 0)  -->
<!DOCTYPE svg PUBLIC "-//W3C//DTD SVG 1.1//EN" "http://www.w3.org/Graphics/SVG/1.1/DTD/svg11.dtd">
<svg version="1.1" id="Layer_2" xmlns="http://www.w3.org/2000/svg" xmlns:xlink="http://www.w3.org/1999/xlink" x="0px" y="0px"
	 width="48px" height="48px" viewBox="0 0 48 48" enable-background="new 0 0 48 48" xml:space="preserve">
<g>
	<path fill="#010101" d="M37,24c1.771,0,3.46,0.358,5,1.003V10H0v19c0,2.757,2.243,5,5,5h19.363C25.723,28.275,30.866,24,37,24z"/>
	<path fill="#010101" d="M42,5c0-2.757-2.243-5-5-5H5C2.243,0,0,2.243,0,5v3h42V5z M7,6C6.447,6,6,5.553,6,5c0-0.553,0.447-1,1-1
		c0.552,0,1,0.447,1,1C8,5.553,7.552,6,7,6z M11,6c-0.553,0-1-0.447-1-1c0-0.553,0.447-1,1-1c0.552,0,1,0.447,1,1
		C12,5.553,11.552,6,11,6z M15,6c-0.553,0-1-0.447-1-1c0-0.553,0.447-1,1-1c0.552,0,1,0.447,1,1C16,5.553,15.552,6,15,6z"/>
	<path fill="#010101" d="M37,26c-6.065,0-11,4.935-11,11c0,6.065,4.935,11,11,11c6.065,0,11-4.935,11-11C48,30.935,43.065,26,37,26z
		 M42,38h-4v4c0,0.552-0.447,1-1,1c-0.553,0-1-0.448-1-1v-4h-4c-0.553,0-1-0.448-1-1c0-0.552,0.447-1,1-1h4v-4c0-0.552,0.447-1,1-1
		c0.553,0,1,0.448,1,1v4h4c0.553,0,1,0.448,1,1C43,37.552,42.553,38,42,38z"/>
</g>
</svg>
