<?xml version="1.0" encoding="utf-8"?>
<!-- Generator: Adobe Illustrator 17.0.0, SVG Export Plug-In . SVG Version: 6.00 Build 0)  -->
<!DOCTYPE svg PUBLIC "-//W3C//DTD SVG 1.1//EN" "http://www.w3.org/Graphics/SVG/1.1/DTD/svg11.dtd">
<svg version="1.1" id="Layer_2" xmlns="http://www.w3.org/2000/svg" xmlns:xlink="http://www.w3.org/1999/xlink" x="0px" y="0px"
	 width="48px" height="48px" viewBox="0 0 48 48" enable-background="new 0 0 48 48" xml:space="preserve">
<g>
	<rect x="16" y="18" fill="#010101" width="32" height="8"/>
	<path fill="#010101" d="M16,44h27c2.757,0,5-2.243,5-5V28H16V44z"/>
	<path fill="#010101" d="M43,6H5c-2.757,0-5,2.243-5,5v5h48v-5C48,8.243,45.757,6,43,6z M8,14c-1.102,0-2-0.897-2-2s0.898-2,2-2
		s2,0.897,2,2S9.102,14,8,14z M14,14c-1.102,0-2-0.897-2-2s0.898-2,2-2s2,0.897,2,2S15.102,14,14,14z M20,14c-1.103,0-2-0.897-2-2
		s0.897-2,2-2s2,0.897,2,2S21.103,14,20,14z"/>
	<path fill="#010101" d="M0,39c0,2.757,2.243,5,5,5h9V18H0V39z"/>
</g>
</svg>
