<?xml version="1.0" encoding="utf-8"?>
<!-- Generator: Adobe Illustrator 17.0.0, SVG Export Plug-In . SVG Version: 6.00 Build 0)  -->
<!DOCTYPE svg PUBLIC "-//W3C//DTD SVG 1.1//EN" "http://www.w3.org/Graphics/SVG/1.1/DTD/svg11.dtd">
<svg version="1.1" id="Layer_2" xmlns="http://www.w3.org/2000/svg" xmlns:xlink="http://www.w3.org/1999/xlink" x="0px" y="0px"
	 width="48px" height="48px" viewBox="0 0 48 48" enable-background="new 0 0 48 48" xml:space="preserve">
<g>
	<path fill="#010101" d="M42,5c0-2.757-2.243-5-5-5H5C2.243,0,0,2.243,0,5v3h42V5z M7,6C6.447,6,6,5.553,6,5c0-0.553,0.447-1,1-1
		c0.552,0,1,0.447,1,1C8,5.553,7.552,6,7,6z M11,6c-0.553,0-1-0.447-1-1c0-0.553,0.447-1,1-1c0.552,0,1,0.447,1,1
		C12,5.553,11.552,6,11,6z M15,6c-0.553,0-1-0.447-1-1c0-0.553,0.447-1,1-1c0.552,0,1,0.447,1,1C16,5.553,15.552,6,15,6z"/>
	<path fill="#010101" d="M41.296,21.463c0.187-0.187,0.44-0.292,0.704-0.292V10H0v19c0,2.757,2.243,5,5,5h23.759L41.296,21.463z"/>
	<path fill="#010101" d="M47.71,29.292l-5-5C42.514,24.096,42.257,23.999,42,24v-0.412l-3.997,3.997l6.414,6.415l3.293-3.292
		c0.187-0.188,0.293-0.442,0.293-0.707C48.003,29.734,47.897,29.48,47.71,29.292z"/>
	<path fill="#010101" d="M24.038,46.73c-0.098,0.349,0,0.722,0.255,0.978c0.19,0.19,0.445,0.293,0.707,0.293
		c0.092,0,0.185-0.013,0.274-0.039l6.435-1.838l-5.832-5.831L24.038,46.73z"/>
	
		<rect x="30.466" y="30.219" transform="matrix(-0.7071 -0.7071 0.7071 -0.7071 33.588 87.9124)" fill="#010101" width="9.071" height="13.561"/>
</g>
</svg>
