<?xml version="1.0" encoding="utf-8"?>
<!-- Generator: Adobe Illustrator 17.0.0, SVG Export Plug-In . SVG Version: 6.00 Build 0)  -->
<!DOCTYPE svg PUBLIC "-//W3C//DTD SVG 1.1//EN" "http://www.w3.org/Graphics/SVG/1.1/DTD/svg11.dtd">
<svg version="1.1" id="Layer_2" xmlns="http://www.w3.org/2000/svg" xmlns:xlink="http://www.w3.org/1999/xlink" x="0px" y="0px"
	 width="48px" height="48px" viewBox="0 0 48 48" enable-background="new 0 0 48 48" xml:space="preserve">
<g>
	<path fill="#010101" d="M47,34h-9.42l-3.712,6.496C33.689,40.809,33.357,41,33,41c-0.019,0-0.038,0-0.057-0.001
		c-0.379-0.022-0.713-0.256-0.862-0.605l-5.273-12.303l-6.976,10.464c-0.206,0.309-0.559,0.478-0.936,0.44
		c-0.369-0.038-0.687-0.278-0.825-0.623l-3.362-8.407l-2.928,3.66C11.591,33.862,11.304,34,11,34H1c-0.553,0-1-0.448-1-1v14
		c0,0.552,0.447,1,1,1h46c0.553,0,1-0.448,1-1V33C48,33.552,47.553,34,47,34z"/>
	<path fill="#010101" d="M0,33c0-0.552,0.447-1,1-1h9.519l3.699-4.624c0.223-0.278,0.576-0.418,0.928-0.365
		c0.353,0.052,0.649,0.288,0.782,0.618l3.294,8.235l6.945-10.418c0.204-0.305,0.554-0.478,0.924-0.441
		c0.365,0.033,0.683,0.264,0.827,0.602l5.209,12.154l3.004-5.256C36.31,32.192,36.642,32,37,32h10c0.553,0,1,0.448,1,1V20H0V33z"/>
	<path fill="#010101" d="M47,8H1C0.447,8,0,8.448,0,9v9h48V9C48,8.448,47.553,8,47,8z M28,16c-1.103,0-2-0.897-2-2s0.897-2,2-2
		c1.102,0,2,0.897,2,2S29.102,16,28,16z M34,16c-1.103,0-2-0.897-2-2s0.897-2,2-2c1.102,0,2,0.897,2,2S35.102,16,34,16z M40,16
		c-1.103,0-2-0.897-2-2s0.897-2,2-2c1.102,0,2,0.897,2,2S41.102,16,40,16z"/>
</g>
</svg>
