<?xml version="1.0" encoding="utf-8"?>
<!-- Generator: Adobe Illustrator 17.0.0, SVG Export Plug-In . SVG Version: 6.00 Build 0)  -->
<!DOCTYPE svg PUBLIC "-//W3C//DTD SVG 1.1//EN" "http://www.w3.org/Graphics/SVG/1.1/DTD/svg11.dtd">
<svg version="1.1" id="Layer_2" xmlns="http://www.w3.org/2000/svg" xmlns:xlink="http://www.w3.org/1999/xlink" x="0px" y="0px"
	 width="48px" height="48px" viewBox="0 0 48 48" enable-background="new 0 0 48 48" xml:space="preserve">
<g>
	<path fill="none" d="M44.879,29.324c2.051,2.104,3.158,4.881,3.12,7.819C48.038,34.205,46.93,31.428,44.879,29.324
		c-0.85-0.873-1.825-1.576-2.879-2.115l0,0C43.054,27.748,44.029,28.451,44.879,29.324z"/>
	<path fill="none" d="M42.881,46.271c-1.41,0.9-3.029,1.496-4.768,1.673C39.852,47.767,41.471,47.171,42.881,46.271z"/>
	<path fill="none" d="M26.001,36.857c-0.039,2.938,1.069,5.715,3.12,7.82c1.276,1.31,2.822,2.26,4.516,2.801
		c-1.694-0.541-3.24-1.492-4.516-2.801C27.07,42.572,25.963,39.795,26.001,36.857z"/>
	<path fill="none" d="M36.39,47.97c0.156,0.008,0.31,0.027,0.467,0.029h0.037h-0.036C36.7,47.997,36.546,47.979,36.39,47.97z"/>
	<path fill="none" d="M43.442,45.884c-0.117,0.085-0.229,0.178-0.349,0.259C43.213,46.062,43.325,45.97,43.442,45.884z"/>
	<path fill="none" d="M37.003,48h0.003c0.275,0,0.545-0.021,0.816-0.041C37.55,47.979,37.279,48,37.003,48z"/>
	<path fill="#010101" d="M42,8V5c0-2.757-2.243-5-5-5H5C2.243,0,0,2.243,0,5v3H42z M7,6C6.447,6,6,5.553,6,5c0-0.553,0.447-1,1-1
		c0.552,0,1,0.447,1,1C8,5.553,7.552,6,7,6z M11,6c-0.553,0-1-0.447-1-1c0-0.553,0.447-1,1-1c0.552,0,1,0.447,1,1
		C12,5.553,11.552,6,11,6z M15,6c-0.553,0-1-0.447-1-1c0-0.553,0.447-1,1-1c0.552,0,1,0.447,1,1C16,5.553,15.552,6,15,6z"/>
	<path fill="#010101" d="M36.997,24l0.165,0.001C38.853,24.023,40.487,24.37,42,25V10H0v19c0,2.757,2.243,5,5,5h19.363
		C25.73,28.284,30.896,24,36.997,24z"/>
	<path fill="#010101" d="M38.112,47.944c1.739-0.177,3.359-0.772,4.768-1.673c0.07-0.044,0.144-0.082,0.212-0.128
		c0.12-0.081,0.232-0.173,0.349-0.259c2.714-1.978,4.51-5.155,4.557-8.741c0.038-2.938-1.069-5.715-3.12-7.819
		c-0.85-0.872-1.825-1.576-2.879-2.115l0,0c-1.488-0.761-3.137-1.185-4.856-1.208L36.991,26c-5.98,0-10.912,4.87-10.99,10.857
		c-0.038,2.938,1.069,5.715,3.12,7.819c1.276,1.309,2.822,2.26,4.516,2.801c0.882,0.282,1.807,0.441,2.753,0.493
		c0.156,0.008,0.311,0.027,0.468,0.029h0.036L37.003,48c0.276,0,0.547-0.021,0.818-0.041C37.918,47.951,38.017,47.954,38.112,47.944
		z M29.752,39.017l4.109,0.054c0.553,0.007,0.994,0.461,0.987,1.013c-0.007,0.548-0.453,0.987-1,0.987c-0.004,0-0.009,0-0.013,0
		l-1.258-0.016c1.099,1.204,2.652,1.923,4.344,1.945c1.585,0.032,3.117-0.584,4.266-1.702c1.148-1.119,1.791-2.617,1.812-4.219
		l2,0.025c-0.027,2.137-0.886,4.135-2.416,5.626C41.078,44.196,39.1,45,37.002,45c-0.035,0-0.07,0-0.106,0
		c-1.967-0.025-3.79-0.76-5.197-2.01l-0.002,0.164c-0.007,0.548-0.454,0.987-1,0.987c-0.004,0-0.009,0-0.014,0
		c-0.552-0.007-0.993-0.461-0.986-1.013L29.752,39.017z M43.325,29.082c0.553,0.007,0.994,0.461,0.987,1.013l-0.063,4.888
		l-4.888-0.063c-0.553-0.007-0.994-0.46-0.987-1.013c0.007-0.552,0.49-1.032,1.013-0.987l2.036,0.026
		c-1.099-1.204-2.652-1.923-4.344-1.945C37.051,31,37.024,31,36.998,31c-1.573,0-3.057,0.603-4.185,1.703
		c-1.148,1.119-1.792,2.617-1.812,4.219l-2-0.025c0.027-2.137,0.886-4.135,2.416-5.627c1.53-1.491,3.544-2.308,5.686-2.269
		c1.967,0.025,3.789,0.76,5.197,2.009l0.012-0.941c0.007-0.548,0.453-0.987,1-0.987C43.316,29.082,43.321,29.082,43.325,29.082z"/>
</g>
</svg>
