<?xml version="1.0" encoding="utf-8"?>
<!-- Generator: Adobe Illustrator 17.0.0, SVG Export Plug-In . SVG Version: 6.00 Build 0)  -->
<!DOCTYPE svg PUBLIC "-//W3C//DTD SVG 1.1//EN" "http://www.w3.org/Graphics/SVG/1.1/DTD/svg11.dtd">
<svg version="1.1" id="Layer_2" xmlns="http://www.w3.org/2000/svg" xmlns:xlink="http://www.w3.org/1999/xlink" x="0px" y="0px"
	 width="48px" height="48px" viewBox="0 0 48 48" enable-background="new 0 0 48 48" xml:space="preserve">
<g>
	<path fill="#010101" d="M4,35c0,2.757,2.243,5,5,5h30c2.757,0,5-2.243,5-5V18H4V35z"/>
	<path fill="#010101" d="M39,10H9c-2.757,0-5,2.243-5,5v1h40v-1C44,12.243,41.757,10,39,10z M10,15c-0.553,0-1-0.447-1-1
		c0-0.553,0.447-1,1-1s1,0.447,1,1C11,14.553,10.553,15,10,15z M14,15c-0.553,0-1-0.447-1-1c0-0.553,0.447-1,1-1s1,0.447,1,1
		C15,14.553,14.553,15,14,15z M18,15c-0.553,0-1-0.447-1-1c0-0.553,0.447-1,1-1s1,0.447,1,1C19,14.553,18.553,15,18,15z"/>
</g>
</svg>
