<?xml version="1.0" encoding="utf-8"?>
<!-- Generator: Adobe Illustrator 17.0.0, SVG Export Plug-In . SVG Version: 6.00 Build 0)  -->
<!DOCTYPE svg PUBLIC "-//W3C//DTD SVG 1.1//EN" "http://www.w3.org/Graphics/SVG/1.1/DTD/svg11.dtd">
<svg version="1.1" id="Layer_2" xmlns="http://www.w3.org/2000/svg" xmlns:xlink="http://www.w3.org/1999/xlink" x="0px" y="0px"
	 width="48px" height="48px" viewBox="0 0 48 48" enable-background="new 0 0 48 48" xml:space="preserve">
<g>
	<path fill="#010101" d="M42,5c0-2.757-2.243-5-5-5H5C2.243,0,0,2.243,0,5v3h42V5z M7,6C6.447,6,6,5.553,6,5c0-0.553,0.447-1,1-1
		c0.552,0,1,0.447,1,1C8,5.553,7.552,6,7,6z M11,6c-0.553,0-1-0.447-1-1c0-0.553,0.447-1,1-1c0.552,0,1,0.447,1,1
		C12,5.553,11.552,6,11,6z M15,6c-0.553,0-1-0.447-1-1c0-0.553,0.447-1,1-1c0.552,0,1,0.447,1,1C16,5.553,15.552,6,15,6z"/>
	<path fill="#010101" d="M34.611,24c2.872,0,5.477,1.151,7.389,3.012V10H0v19c0,2.757,2.243,5,5,5h19.031
		C24.35,28.434,28.966,24,34.611,24z"/>
	<path fill="#010101" d="M47.707,46.293l-4.924-4.924l-1.425-1.425c1.163-1.468,1.863-3.319,1.863-5.333
		c0-4.749-3.862-8.611-8.609-8.611C29.863,26,26,29.863,26,34.611c0,4.748,3.863,8.61,8.611,8.61c2.014,0,3.865-0.7,5.333-1.864
		l1.425,1.425l4.924,4.924C46.488,47.902,46.744,48,47,48c0.256,0,0.512-0.098,0.707-0.293
		C48.098,47.316,48.098,46.684,47.707,46.293z M34.611,41.222c-3.646,0-6.611-2.965-6.611-6.61C28,30.966,30.966,28,34.611,28
		c3.645,0,6.609,2.966,6.609,6.611C41.221,38.256,38.256,41.222,34.611,41.222z"/>
</g>
</svg>
