<?xml version="1.0" encoding="utf-8"?>
<!-- Generator: Adobe Illustrator 17.0.0, SVG Export Plug-In . SVG Version: 6.00 Build 0)  -->
<!DOCTYPE svg PUBLIC "-//W3C//DTD SVG 1.1//EN" "http://www.w3.org/Graphics/SVG/1.1/DTD/svg11.dtd">
<svg version="1.1" id="Layer_2" xmlns="http://www.w3.org/2000/svg" xmlns:xlink="http://www.w3.org/1999/xlink" x="0px" y="0px"
	 width="48px" height="48px" viewBox="0 0 48 48" enable-background="new 0 0 48 48" xml:space="preserve">
<g>
	<path fill="#010101" d="M5,44h38c0.553,0,1-0.448,1-1V11c0-0.552-0.447-1-1-1H5c-0.553,0-1,0.448-1,1v32C4,43.552,4.447,44,5,44z
		 M26,24h8c0.553,0,1,0.448,1,1c0,0.552-0.447,1-1,1h-8c-0.553,0-1-0.448-1-1C25,24.448,25.447,24,26,24z M14.293,19.707
		c-0.391-0.391-0.391-1.023,0-1.414c0.391-0.391,1.023-0.391,1.414,0l5,5c0.391,0.391,0.391,1.023,0,1.414l-5,5
		C15.512,29.902,15.256,30,15,30c-0.256,0-0.512-0.098-0.707-0.293c-0.391-0.391-0.391-1.023,0-1.414L18.586,24L14.293,19.707z"/>
	<path fill="#010101" d="M47,6H1C0.447,6,0,6.448,0,7v40c0,0.552,0.447,1,1,1h46c0.553,0,1-0.448,1-1V7C48,6.448,47.553,6,47,6z
		 M46,46H2V8h44V46z"/>
</g>
</svg>
