<?xml version="1.0" encoding="utf-8"?>
<!-- Generator: Adobe Illustrator 17.0.0, SVG Export Plug-In . SVG Version: 6.00 Build 0)  -->
<!DOCTYPE svg PUBLIC "-//W3C//DTD SVG 1.1//EN" "http://www.w3.org/Graphics/SVG/1.1/DTD/svg11.dtd">
<svg version="1.1" id="Layer_2" xmlns="http://www.w3.org/2000/svg" xmlns:xlink="http://www.w3.org/1999/xlink" x="0px" y="0px"
	 width="48px" height="48px" viewBox="0 0 48 48" enable-background="new 0 0 48 48" xml:space="preserve">
<g>
	<path fill="#010101" d="M0,47c0,0.552,0.447,1,1,1h46c0.553,0,1-0.448,1-1V20H0V47z M24,30h8c0.553,0,1,0.448,1,1
		c0,0.552-0.447,1-1,1h-8c-0.553,0-1-0.448-1-1C23,30.448,23.447,30,24,30z M12.293,25.707c-0.391-0.391-0.391-1.023,0-1.414
		c0.391-0.391,1.023-0.391,1.414,0l5,5c0.391,0.391,0.391,1.023,0,1.414l-5,5C13.512,35.902,13.256,36,13,36
		c-0.256,0-0.512-0.098-0.707-0.293c-0.391-0.391-0.391-1.023,0-1.414L16.586,30L12.293,25.707z"/>
	<path fill="#010101" d="M47,8H1C0.447,8,0,8.448,0,9v9h48V9C48,8.448,47.553,8,47,8z M28,16c-1.103,0-2-0.897-2-2s0.897-2,2-2
		c1.102,0,2,0.897,2,2S29.102,16,28,16z M34,16c-1.103,0-2-0.897-2-2s0.897-2,2-2c1.102,0,2,0.897,2,2S35.102,16,34,16z M40,16
		c-1.103,0-2-0.897-2-2s0.897-2,2-2c1.102,0,2,0.897,2,2S41.102,16,40,16z"/>
</g>
</svg>
