<?xml version="1.0" encoding="utf-8"?>
<!-- Generator: Adobe Illustrator 17.0.0, SVG Export Plug-In . SVG Version: 6.00 Build 0)  -->
<!DOCTYPE svg PUBLIC "-//W3C//DTD SVG 1.1//EN" "http://www.w3.org/Graphics/SVG/1.1/DTD/svg11.dtd">
<svg version="1.1" id="Layer_2" xmlns="http://www.w3.org/2000/svg" xmlns:xlink="http://www.w3.org/1999/xlink" x="0px" y="0px"
	 width="48px" height="48px" viewBox="0 0 48 48" enable-background="new 0 0 48 48" xml:space="preserve">
<g>
	<path fill="#010101" d="M41.554,25c-1.818,0-3.559,0.868-4.774,2.382c-0.379,0.473-1.18,0.473-1.559,0
		C34.005,25.868,32.265,25,30.446,25C27.277,25,24,27.646,24,32.074c0,2.187,1.334,4.651,3.188,6.995
		c0.067,0.084,0.134,0.168,0.202,0.252c0.139,0.171,0.283,0.341,0.427,0.511c2.774,3.249,6.214,5.939,7.276,6.74
		c0.073,0.054,0.15,0.113,0.222,0.165c0.044,0.033,0.079,0.059,0.096,0.071C35.587,46.936,35.794,47,36,47s0.413-0.064,0.588-0.191
		c0.01-0.007,0.031-0.022,0.049-0.036c0.112-0.082,0.231-0.173,0.347-0.259c1.149-0.872,4.491-3.511,7.196-6.679
		c0.145-0.171,0.291-0.342,0.43-0.515c0.068-0.083,0.135-0.167,0.202-0.252c1.569-1.983,2.762-4.052,3.092-5.967
		c0.008-0.045,0.014-0.091,0.021-0.136C47.971,32.664,48,32.366,48,32.074C48,27.646,44.723,25,41.554,25z"/>
	<path fill="#010101" d="M42,5c0-2.757-2.243-5-5-5H5C2.243,0,0,2.243,0,5v3h42V5z M7,6C6.447,6,6,5.553,6,5c0-0.553,0.447-1,1-1
		c0.552,0,1,0.447,1,1C8,5.553,7.552,6,7,6z M11,6c-0.553,0-1-0.447-1-1c0-0.553,0.447-1,1-1c0.552,0,1,0.447,1,1
		C12,5.553,11.552,6,11,6z M15,6c-0.553,0-1-0.447-1-1c0-0.553,0.447-1,1-1c0.552,0,1,0.447,1,1C16,5.553,15.552,6,15,6z"/>
	<path fill="#010101" d="M30.446,23c2.057,0,4.028,0.819,5.554,2.279C37.525,23.819,39.497,23,41.554,23
		c0.149,0,0.297,0.014,0.446,0.023V10H0v19c0,2.757,2.243,5,5,5h17.237C22.085,33.356,22,32.712,22,32.074
		C22,26.394,26.295,23,30.446,23z"/>
</g>
</svg>
