<?xml version="1.0" encoding="utf-8"?>
<!-- Generator: Adobe Illustrator 17.0.0, SVG Export Plug-In . SVG Version: 6.00 Build 0)  -->
<!DOCTYPE svg PUBLIC "-//W3C//DTD SVG 1.1//EN" "http://www.w3.org/Graphics/SVG/1.1/DTD/svg11.dtd">
<svg version="1.1" id="Layer_2" xmlns="http://www.w3.org/2000/svg" xmlns:xlink="http://www.w3.org/1999/xlink" x="0px" y="0px"
	 width="48px" height="48px" viewBox="0 0 48 48" enable-background="new 0 0 48 48" xml:space="preserve">
<g>
	<path fill="#010101" d="M0,47c0,0.552,0.447,1,1,1h46c0.553,0,1-0.448,1-1V20H0V47z M19,24h18c0.553,0,1,0.448,1,1
		c0,0.552-0.447,1-1,1H19c-0.553,0-1-0.448-1-1C18,24.448,18.447,24,19,24z M19,30h18c0.553,0,1,0.448,1,1c0,0.552-0.447,1-1,1H19
		c-0.553,0-1-0.448-1-1C18,30.448,18.447,30,19,30z M19,36h18c0.553,0,1,0.448,1,1c0,0.552-0.447,1-1,1H19c-0.553,0-1-0.448-1-1
		C18,36.448,18.447,36,19,36z M11,24h2c0.553,0,1,0.448,1,1c0,0.552-0.447,1-1,1h-2c-0.553,0-1-0.448-1-1C10,24.448,10.447,24,11,24
		z M11,30h2c0.553,0,1,0.448,1,1c0,0.552-0.447,1-1,1h-2c-0.553,0-1-0.448-1-1C10,30.448,10.447,30,11,30z M11,36h2
		c0.553,0,1,0.448,1,1c0,0.552-0.447,1-1,1h-2c-0.553,0-1-0.448-1-1C10,36.448,10.447,36,11,36z"/>
	<path fill="#010101" d="M47,8H1C0.447,8,0,8.448,0,9v9h48V9C48,8.448,47.553,8,47,8z M28,16c-1.103,0-2-0.897-2-2s0.897-2,2-2
		c1.102,0,2,0.897,2,2S29.102,16,28,16z M34,16c-1.103,0-2-0.897-2-2s0.897-2,2-2c1.102,0,2,0.897,2,2S35.102,16,34,16z M40,16
		c-1.103,0-2-0.897-2-2s0.897-2,2-2c1.102,0,2,0.897,2,2S41.102,16,40,16z"/>
</g>
</svg>
