<?xml version="1.0" encoding="utf-8"?>
<!-- Generator: Adobe Illustrator 17.0.0, SVG Export Plug-In . SVG Version: 6.00 Build 0)  -->
<!DOCTYPE svg PUBLIC "-//W3C//DTD SVG 1.1//EN" "http://www.w3.org/Graphics/SVG/1.1/DTD/svg11.dtd">
<svg version="1.1" id="Layer_2" xmlns="http://www.w3.org/2000/svg" xmlns:xlink="http://www.w3.org/1999/xlink" x="0px" y="0px"
	 width="48px" height="48px" viewBox="0 0 48 48" enable-background="new 0 0 48 48" xml:space="preserve">
<g>
	<path fill="#010101" d="M42,5c0-2.757-2.243-5-5-5H5C2.243,0,0,2.243,0,5v3h42V5z M7,6C6.447,6,6,5.553,6,5c0-0.553,0.447-1,1-1
		c0.552,0,1,0.447,1,1C8,5.553,7.552,6,7,6z M11,6c-0.553,0-1-0.447-1-1c0-0.553,0.447-1,1-1c0.552,0,1,0.447,1,1
		C12,5.553,11.552,6,11,6z M15,6c-0.553,0-1-0.447-1-1c0-0.553,0.447-1,1-1c0.552,0,1,0.447,1,1C16,5.553,15.552,6,15,6z"/>
	<path fill="#010101" d="M30.149,30l2.961-5.899c0.566-1.133,1.68-1.838,2.904-1.838c1.224,0,2.338,0.706,2.907,1.843L41.857,30H42
		V10H0v19c0,2.757,2.243,5,5,5h17.382c-0.184-0.623-0.174-1.293,0.056-1.928C22.895,30.813,24.097,30,25.5,30H30.149z"/>
	<path fill="#010101" d="M47.681,32.753c-0.038-0.106-0.095-0.2-0.162-0.287c-0.034-0.045-0.082-0.083-0.125-0.125
		c-0.042-0.04-0.082-0.083-0.131-0.116c-0.053-0.037-0.119-0.062-0.181-0.092c-0.054-0.024-0.104-0.054-0.163-0.072
		C46.794,32.025,46.656,32,46.5,32h-5.881l-3.487-7.001c-0.227-0.454-0.655-0.736-1.117-0.736c-0.462,0-0.89,0.281-1.116,0.734
		L31.384,32H25.5c-0.56,0-1.013,0.289-1.181,0.754c-0.155,0.429-0.017,0.893,0.344,1.246h0.003c0.029,0.028,0.044,0.059,0.076,0.086
		c0.001,0.001,0.002,0.002,0.003,0.003l5.092,4.242L27.21,46.21c-0.043,0.127-0.061,0.243-0.07,0.351
		c-0.004,0.05-0.002,0.099,0,0.149c0.002,0.054,0.003,0.108,0.011,0.156c0.009,0.055,0.023,0.108,0.038,0.16
		c0.011,0.036,0.021,0.073,0.035,0.104c0.031,0.074,0.066,0.145,0.113,0.21c0.001,0.001,0.002,0.004,0.003,0.005l0.373,0.449h0.512
		c0.256,0,0.509-0.085,0.754-0.253L36,42.719l7.021,4.822c0.123,0.084,0.247,0.147,0.373,0.19c0.008,0.003,0.017,0.002,0.025,0.004
		c0.118,0.037,0.235,0.059,0.354,0.059l0.016,0l0.572-0.033l0.299-0.415c0.048-0.067,0.084-0.14,0.116-0.216
		c0.013-0.031,0.023-0.067,0.034-0.102c0.016-0.053,0.03-0.106,0.039-0.162c0.008-0.047,0.009-0.1,0.011-0.152
		c0.002-0.051,0.004-0.101,0-0.153c-0.009-0.108-0.027-0.223-0.07-0.35l-2.626-7.878l2.547-2.122l2.546-2.122
		c0.02-0.017,0.032-0.038,0.051-0.056c0.088-0.081,0.166-0.166,0.224-0.252c0.047-0.071,0.078-0.147,0.109-0.223
		c0.016-0.04,0.04-0.079,0.051-0.119c0.022-0.076,0.029-0.154,0.035-0.231c0.003-0.042,0.013-0.084,0.011-0.125
		C47.736,32.971,47.719,32.86,47.681,32.753z"/>
</g>
</svg>
