<?xml version="1.0" encoding="utf-8"?>
<!-- Generator: Adobe Illustrator 17.0.0, SVG Export Plug-In . SVG Version: 6.00 Build 0)  -->
<!DOCTYPE svg PUBLIC "-//W3C//DTD SVG 1.1//EN" "http://www.w3.org/Graphics/SVG/1.1/DTD/svg11.dtd">
<svg version="1.1" id="Layer_2" xmlns="http://www.w3.org/2000/svg" xmlns:xlink="http://www.w3.org/1999/xlink" x="0px" y="0px"
	 width="48px" height="48px" viewBox="0 0 48 48" enable-background="new 0 0 48 48" xml:space="preserve">
<g>
	<path fill="#010101" d="M0,17c0,2.757,2.243,5,5,5h12c2.757,0,5-2.243,5-5V8H0V17z"/>
	<path fill="#010101" d="M17,0H5C2.243,0,0,2.243,0,5v1h22V5C22,2.243,19.757,0,17,0z"/>
	<path fill="#010101" d="M0,43c0,2.757,2.243,5,5,5h12c2.757,0,5-2.243,5-5v-9H0V43z"/>
	<path fill="#010101" d="M17,26H5c-2.757,0-5,2.243-5,5v1h22v-1C22,28.243,19.757,26,17,26z"/>
	<path fill="#010101" d="M26,17c0,2.757,2.243,5,5,5h12c2.757,0,5-2.243,5-5V8H26V17z"/>
	<path fill="#010101" d="M43,0H31c-2.757,0-5,2.243-5,5v1h22V5C48,2.243,45.757,0,43,0z"/>
	<path fill="#010101" d="M26,43c0,2.757,2.243,5,5,5h12c2.757,0,5-2.243,5-5v-9H26V43z"/>
	<path fill="#010101" d="M43,26H31c-2.757,0-5,2.243-5,5v1h22v-1C48,28.243,45.757,26,43,26z"/>
</g>
</svg>
