<?xml version="1.0" encoding="utf-8"?>
<!-- Generator: Adobe Illustrator 17.0.0, SVG Export Plug-In . SVG Version: 6.00 Build 0)  -->
<!DOCTYPE svg PUBLIC "-//W3C//DTD SVG 1.1//EN" "http://www.w3.org/Graphics/SVG/1.1/DTD/svg11.dtd">
<svg version="1.1" id="Layer_2" xmlns="http://www.w3.org/2000/svg" xmlns:xlink="http://www.w3.org/1999/xlink" x="0px" y="0px"
	 width="48px" height="48px" viewBox="0 0 48 48" enable-background="new 0 0 48 48" xml:space="preserve">
<g>
	<path fill="#010101" d="M42,5c0-2.757-2.243-5-5-5H5C2.243,0,0,2.243,0,5v3h42V5z M7,6C6.447,6,6,5.553,6,5c0-0.553,0.447-1,1-1
		c0.552,0,1,0.447,1,1C8,5.553,7.552,6,7,6z M11,6c-0.553,0-1-0.447-1-1c0-0.553,0.447-1,1-1c0.552,0,1,0.447,1,1
		C12,5.553,11.552,6,11,6z M15,6c-0.553,0-1-0.447-1-1c0-0.553,0.447-1,1-1c0.552,0,1,0.447,1,1C16,5.553,15.552,6,15,6z"/>
	<path fill="#010101" d="M30,25c0-0.552,0.447-1,1-1h11V10H0v19c0,2.757,2.243,5,5,5h25V25z"/>
	<path fill="#010101" d="M47,38h-4h-4c-0.553,0-1,0.448-1,1v8c0,0.552,0.447,1,1,1h8c0.553,0,1-0.448,1-1v-8
		C48,38.448,47.553,38,47,38z"/>
	<path fill="#010101" d="M35,38h-4h-4c-0.553,0-1,0.448-1,1v8c0,0.552,0.447,1,1,1h8c0.553,0,1-0.448,1-1v-8
		C36,38.448,35.553,38,35,38z"/>
	<path fill="#010101" d="M42,35v-1v-7v-1h-1h-8h-1v1v8c0,0.552,0.447,1,1,1h4h4C41.553,36,42,35.552,42,35z"/>
</g>
</svg>
