<?xml version="1.0" encoding="utf-8"?>
<!-- Generator: Adobe Illustrator 17.0.0, SVG Export Plug-In . SVG Version: 6.00 Build 0)  -->
<!DOCTYPE svg PUBLIC "-//W3C//DTD SVG 1.1//EN" "http://www.w3.org/Graphics/SVG/1.1/DTD/svg11.dtd">
<svg version="1.1" id="Layer_2" xmlns="http://www.w3.org/2000/svg" xmlns:xlink="http://www.w3.org/1999/xlink" x="0px" y="0px"
	 width="48px" height="48px" viewBox="0 0 48 48" enable-background="new 0 0 48 48" xml:space="preserve">
<g>
	<path fill="#010101" d="M47,6H1C0.447,6,0,6.448,0,7v9h48V7C48,6.448,47.553,6,47,6z M28,14c-1.103,0-2-0.897-2-2s0.897-2,2-2
		c1.102,0,2,0.897,2,2S29.102,14,28,14z M34,14c-1.103,0-2-0.897-2-2s0.897-2,2-2c1.102,0,2,0.897,2,2S35.102,14,34,14z M40,14
		c-1.103,0-2-0.897-2-2s0.897-2,2-2c1.102,0,2,0.897,2,2S41.102,14,40,14z"/>
	<path fill="#010101" d="M0,45c0,0.552,0.447,1,1,1h46c0.553,0,1-0.448,1-1V18H0V45z"/>
</g>
</svg>
