<?xml version="1.0" encoding="utf-8"?>
<!-- Generator: Adobe Illustrator 17.0.0, SVG Export Plug-In . SVG Version: 6.00 Build 0)  -->
<!DOCTYPE svg PUBLIC "-//W3C//DTD SVG 1.1//EN" "http://www.w3.org/Graphics/SVG/1.1/DTD/svg11.dtd">
<svg version="1.1" id="Layer_2" xmlns="http://www.w3.org/2000/svg" xmlns:xlink="http://www.w3.org/1999/xlink" x="0px" y="0px"
	 width="48px" height="48px" viewBox="0 0 48 48" enable-background="new 0 0 48 48" xml:space="preserve">
<g>
	<path fill="#010101" d="M43,4H5C2.243,4,0,6.243,0,9v5h48V9C48,6.243,45.757,4,43,4z M8,12c-1.103,0-2-0.897-2-2s0.897-2,2-2
		c1.102,0,2,0.897,2,2S9.102,12,8,12z M14,12c-1.103,0-2-0.897-2-2s0.897-2,2-2c1.102,0,2,0.897,2,2S15.102,12,14,12z M20,12
		c-1.103,0-2-0.897-2-2s0.897-2,2-2c1.102,0,2,0.897,2,2S21.102,12,20,12z"/>
	<path fill="#010101" d="M47,30h-9.465l-3.703,5.555C33.645,35.835,33.332,36,33,36c-0.03,0-0.061-0.001-0.092-0.004
		c-0.365-0.033-0.683-0.264-0.827-0.602l-5.273-12.303l-6.976,10.464c-0.206,0.309-0.559,0.479-0.936,0.44
		c-0.369-0.038-0.687-0.278-0.825-0.623l-3.294-8.235l-2.945,4.418C11.646,29.833,11.334,30,11,30H1c-0.553,0-1-0.448-1-1v8
		c0,2.757,2.243,5,5,5h38c2.757,0,5-2.243,5-5v-8C48,29.552,47.553,30,47,30z"/>
	<path fill="#010101" d="M0,29c0-0.552,0.447-1,1-1h9.465l3.703-5.555c0.206-0.309,0.559-0.476,0.935-0.44
		c0.369,0.038,0.688,0.278,0.825,0.623l3.294,8.235l6.945-10.418c0.204-0.305,0.554-0.476,0.924-0.441
		c0.365,0.033,0.683,0.264,0.827,0.602l5.273,12.303l2.976-4.464C36.353,28.167,36.666,28,37,28h10c0.553,0,1,0.448,1,1V16H0V29z"/>
</g>
</svg>
