<?xml version="1.0" encoding="utf-8"?>
<!-- Generator: Adobe Illustrator 17.0.0, SVG Export Plug-In . SVG Version: 6.00 Build 0)  -->
<!DOCTYPE svg PUBLIC "-//W3C//DTD SVG 1.1//EN" "http://www.w3.org/Graphics/SVG/1.1/DTD/svg11.dtd">
<svg version="1.1" id="Layer_2" xmlns="http://www.w3.org/2000/svg" xmlns:xlink="http://www.w3.org/1999/xlink" x="0px" y="0px"
	 width="48px" height="48px" viewBox="0 0 48 48" enable-background="new 0 0 48 48" xml:space="preserve">
<g>
	<path fill="#010101" d="M43,4H5C2.243,4,0,6.243,0,9v5h48V9C48,6.243,45.757,4,43,4z M8,12c-1.103,0-2-0.897-2-2s0.897-2,2-2
		c1.102,0,2,0.897,2,2S9.102,12,8,12z M14,12c-1.103,0-2-0.897-2-2s0.897-2,2-2c1.102,0,2,0.897,2,2S15.102,12,14,12z M20,12
		c-1.103,0-2-0.897-2-2s0.897-2,2-2c1.102,0,2,0.897,2,2S21.102,12,20,12z"/>
	<path fill="#010101" d="M0,37c0,2.757,2.243,5,5,5h38c2.757,0,5-2.243,5-5V16H0V37z M17,20h20c0.553,0,1,0.448,1,1
		c0,0.552-0.447,1-1,1H17c-0.553,0-1-0.448-1-1C16,20.448,16.447,20,17,20z M17,26h20c0.553,0,1,0.448,1,1c0,0.552-0.447,1-1,1H17
		c-0.553,0-1-0.448-1-1C16,26.448,16.447,26,17,26z M17,32h20c0.553,0,1,0.448,1,1c0,0.552-0.447,1-1,1H17c-0.553,0-1-0.448-1-1
		C16,32.448,16.447,32,17,32z M9,20h2c0.553,0,1,0.448,1,1c0,0.552-0.447,1-1,1H9c-0.553,0-1-0.448-1-1C8,20.448,8.447,20,9,20z
		 M9,26h2c0.553,0,1,0.448,1,1c0,0.552-0.447,1-1,1H9c-0.553,0-1-0.448-1-1C8,26.448,8.447,26,9,26z M9,32h2c0.553,0,1,0.448,1,1
		c0,0.552-0.447,1-1,1H9c-0.553,0-1-0.448-1-1C8,32.448,8.447,32,9,32z"/>
</g>
</svg>
