<?xml version="1.0" encoding="UTF-8" standalone="no"?>
<svg width="20px" height="20px" viewBox="0 0 20 20" version="1.1" xmlns="http://www.w3.org/2000/svg" xmlns:xlink="http://www.w3.org/1999/xlink">
    <g stroke="none" stroke-width="1" fill-rule="evenodd">
        <path d="M9.384,11.801 L5.642,15.543 L10.609,15.543 C11.198,15.543 11.676,16.02 11.676,16.609 C11.676,17.198 11.198,17.676 10.609,17.676 L3.067,17.675 C2.997,17.675 2.613,17.664 2.312,17.363 C2.011,17.062 2,16.679 2,16.609 L2.001,9.066 C2.001,8.477 2.478,8 3.067,8 C3.656,8 4.134,8.477 4.134,9.067 L4.133,14.034 L7.876,10.292 C8.292,9.876 8.967,9.876 9.384,10.293 C9.801,10.709 9.801,11.384 9.384,11.801"></path>
        <path d="M10.292,7.875 L14.034,4.133 L9.067,4.133 C8.478,4.133 8,3.656 8,3.067 C8,2.478 8.478,2 9.067,2 L16.609,2.001 C16.679,2.001 17.063,2.012 17.364,2.313 C17.665,2.614 17.676,2.997 17.676,3.067 L17.675,10.61 C17.675,11.199 17.198,11.676 16.609,11.676 C16.02,11.676 15.542,11.199 15.542,10.609 L15.543,5.642 L11.8,9.384 C11.384,9.8 10.709,9.8 10.292,9.383 C9.875,8.967 9.875,8.292 10.292,7.875"></path>
    </g>
</svg>
