<?xml version="1.0" encoding="UTF-8" standalone="no"?>
<svg width="20px" height="20px" viewBox="0 0 20 20" version="1.1" xmlns="http://www.w3.org/2000/svg" xmlns:xlink="http://www.w3.org/1999/xlink">
    <g stroke="none" stroke-width="1" fill-rule="evenodd">
        <path d="M10.400479,3.65845799 C9.97822361,3.65845799 9.17633842,4.42712684 9.17633842,4.42712684 L5.14725855,8.45620671 C4.66947062,8.93399466 3.89497698,8.93399466 3.41718903,8.45620671 C2.93940109,7.97841877 2.93940109,7.20392513 3.41718903,6.72613719 L9.53483233,0.608493897 C9.59172641,0.551599814 9.91229091,0.25 10.4004788,0.25 C10.8886668,0.25 11.2080078,0.551599814 11.2649018,0.608493897 L17.3825452,6.72613719 C17.8603331,7.20392513 17.8603331,7.97841877 17.3825452,8.45620671 C16.9047572,8.93399466 16.1302635,8.93399466 15.6524756,8.45620671 L11.6233957,4.42712684 C11.6233957,4.42712684 10.7939094,3.65845799 10.400479,3.65845799 L10.400479,3.65845799 Z M10.3404071,16.1560897 C10.7626625,16.1560897 11.5645477,15.3874208 11.5645477,15.3874208 L15.5936276,11.358341 C16.0714155,10.880553 16.8459091,10.880553 17.3236971,11.358341 C17.801485,11.8361289 17.801485,12.6106225 17.3236971,13.0884105 L11.2060538,19.2060538 C11.1491597,19.2629479 10.8285952,19.5645477 10.3404073,19.5645477 C9.85221932,19.5645477 9.53287834,19.2629479 9.47598426,19.2060538 L3.35834093,13.0884105 C2.88055302,12.6106225 2.88055302,11.8361289 3.35834093,11.358341 C3.83612894,10.880553 4.61062259,10.880553 5.08841049,11.358341 L9.11749036,15.3874208 C9.11749036,15.3874208 9.94697672,16.1560897 10.3404071,16.1560897 L10.3404071,16.1560897 Z"></path>
    </g>
</svg>
