<?xml version="1.0" encoding="UTF-8" standalone="no"?>
<svg width="16px" height="16px" viewBox="0 0 16 16" version="1.1" xmlns="http://www.w3.org/2000/svg" xmlns:xlink="http://www.w3.org/1999/xlink">
    <g stroke="none" stroke-width="1" fill-rule="evenodd">
        <path d="M6.933125,12.358 L3.421125,8.846 C3.004125,8.429 2.329125,8.429 1.912125,8.846 C1.496125,9.262 1.496125,9.938 1.912125,10.354 L7.246125,15.688 C7.295125,15.737 7.575125,16 8.000125,16 C8.426125,16 8.704125,15.737 8.754125,15.688 L14.087125,10.354 C14.504125,9.938 14.504125,9.262 14.087125,8.846 C13.671125,8.429 12.996125,8.429 12.579125,8.846 L9.066125,12.358 L9.066125,1.067 C9.066125,0.477 8.589125,0 8.000125,0 C7.410125,0 6.933125,0.477 6.933125,1.067 L6.933125,12.358 Z"></path>
    </g>
</svg>
