<?xml version="1.0" encoding="UTF-8" standalone="no"?>
<svg width="16px" height="16px" viewBox="0 0 16 16" version="1.1" xmlns="http://www.w3.org/2000/svg" xmlns:xlink="http://www.w3.org/1999/xlink">
    <g stroke="none" stroke-width="1" fill-rule="evenodd">
        <path d="M14.9333333,6.66653333 L3.6416,6.66653333 L7.15413333,3.154 C7.57066667,2.73746667 7.57066667,2.06226667 7.15413333,1.64573333 C6.7376,1.2292 6.0624,1.2292 5.64586667,1.64573333 L0.312533333,6.97906667 C0.262933333,7.02866667 0,7.30813333 0,7.73373333 C0,8.15933333 0.262933333,8.43773333 0.312533333,8.48733333 L5.64586667,13.8206667 C6.0624,14.2372 6.7376,14.2372 7.15413333,13.8206667 C7.57066667,13.4041333 7.57066667,12.7289333 7.15413333,12.3124 L3.6416,8.79986667 L14.9333333,8.79986667 C15.5226667,8.79986667 16,8.32253333 16,7.7332 C16,7.14386667 15.5226667,6.66653333 14.9333333,6.66653333"></path>
    </g>
</svg>
