<?xml version="1.0" encoding="UTF-8" standalone="no"?>
<svg width="20px" height="20px" viewBox="0 0 20 20" version="1.1" xmlns="http://www.w3.org/2000/svg" xmlns:xlink="http://www.w3.org/1999/xlink">
    <g stroke="none" stroke-width="1" fill-rule="evenodd">
        <path d="M16.6192589,9.93730979 C16.6192589,9.51505439 15.85059,8.71316921 15.85059,8.71316921 L11.8215102,4.68408934 C11.3437222,4.2063014 11.3437222,3.43180776 11.8215102,2.95401981 C12.2992981,2.47623187 13.0737918,2.47623187 13.5515797,2.95401981 L19.669223,9.07166311 C19.7261171,9.12855719 20.0277169,9.44912169 20.0277169,9.93730963 C20.0277169,10.4254976 19.7261171,10.7448385 19.669223,10.8017326 L13.5515797,16.919376 C13.0737918,17.3971639 12.2992981,17.3971639 11.8215102,16.919376 C11.3437222,16.4415879 11.3437222,15.6670943 11.8215102,15.1893064 L15.85059,11.1602265 C15.85059,11.1602265 16.6192589,10.3307402 16.6192589,9.93730979 L16.6192589,9.93730979 L16.6192589,9.93730979 Z M4.12162721,9.87723788 C4.12162721,10.2994933 4.89029606,11.1013785 4.89029606,11.1013785 L8.91937593,15.1304583 C9.39716387,15.6082463 9.39716387,16.3827399 8.91937593,16.8605279 C8.44158799,17.3383158 7.66709435,17.3383158 7.18930641,16.8605279 L1.07166311,10.7428846 C1.01476903,10.6859905 0.713169217,10.365426 0.713169217,9.87723804 C0.713169217,9.38905011 1.01476903,9.06970913 1.07166311,9.01281505 L7.18930641,2.89517171 C7.66709435,2.41738381 8.44158799,2.41738381 8.91937593,2.89517171 C9.39716387,3.37295973 9.39716387,4.14745337 8.91937593,4.62524127 L4.89029606,8.65432114 C4.89029606,8.65432114 4.12162721,9.4838075 4.12162721,9.87723788 L4.12162721,9.87723788 L4.12162721,9.87723788 Z"></path>
    </g>
</svg>
