<?xml version="1.0" encoding="UTF-8" standalone="no"?>
<svg width="20px" height="20px" viewBox="0 0 20 20" version="1.1" xmlns="http://www.w3.org/2000/svg" xmlns:xlink="http://www.w3.org/1999/xlink">
    <g stroke="none" stroke-width="1" fill-rule="evenodd">
        <path d="M9.05383418,14.5789158 C9.47083418,14.9959158 9.47083418,15.6709158 9.05383418,16.0879158 C8.63783418,16.5039158 7.96183418,16.5039158 7.54583418,16.0879158 L2.21183418,10.7539158 C2.16283418,10.7049158 1.89983418,10.4249158 1.89983418,9.99991582 C1.89983418,9.57391582 2.16283418,9.29591582 2.21183418,9.24591582 L7.54583418,3.91291582 C7.96183418,3.49591582 8.63783418,3.49591582 9.05383418,3.91291582 C9.47083418,4.32891582 9.47083418,5.00391582 9.05383418,5.42091582 L5.54183418,8.93391582 L8.83283418,8.93391582 C9.42283418,8.93391582 9.89983418,9.41091582 9.89983418,9.99991582 C9.89983418,10.5899158 9.42283418,11.0669158 8.83283418,11.0669158 L5.54183418,11.0669158 L9.05383418,14.5789158 L9.05383418,14.5789158 Z M15.2583158,8.93336725 L11.7457825,5.42083392 C11.3292491,5.00430059 11.3292491,4.32910059 11.7457825,3.91256725 C12.1623158,3.49603392 12.8375158,3.49603392 13.2540491,3.91256725 L18.5873825,9.24590059 C18.6369825,9.29550059 18.8999158,9.57496725 18.8999158,10.0005672 C18.8999158,10.4261672 18.6369825,10.7045672 18.5873825,10.7541672 L13.2540491,16.0875006 C12.8375158,16.5040339 12.1623158,16.5040339 11.7457825,16.0875006 C11.3292491,15.6709672 11.3292491,14.9957672 11.7457825,14.5792339 L15.2583158,11.0667006 L11.9665825,11.0667006 C11.3772491,11.0667006 10.8999158,10.5893672 10.8999158,10.0000339 C10.8999158,9.41070059 11.3772491,8.93336725 11.9665825,8.93336725 L15.2583158,8.93336725 L15.2583158,8.93336725 Z"></path>
    </g>
</svg>
