<?xml version="1.0" encoding="UTF-8" standalone="no"?>
<svg width="20px" height="20px" viewBox="0 0 20 20" version="1.1" xmlns="http://www.w3.org/2000/svg" xmlns:xlink="http://www.w3.org/1999/xlink">
    <g stroke="none" stroke-width="1" fill-rule="evenodd">
        <path d="M17.384,3.801 L13.642,7.543 L18.609,7.543 C19.198,7.543 19.676,8.02 19.676,8.609 C19.676,9.198 19.198,9.676 18.609,9.676 L11.067,9.675 C10.997,9.675 10.613,9.664 10.312,9.363 C10.011,9.062 10,8.679 10,8.609 L10.001,1.066 C10.001,0.477 10.478,0 11.067,0 C11.656,0 12.134,0.477 12.134,1.067 L12.133,6.034 L15.876,2.292 C16.292,1.876 16.967,1.876 17.384,2.293 C17.801,2.709 17.801,3.384 17.384,3.801"></path>
        <path d="M2.292,15.875 L6.034,12.133 L1.067,12.133 C0.478,12.133 0,11.656 0,11.067 C0,10.478 0.478,10 1.067,10 L8.609,10.001 C8.679,10.001 9.063,10.012 9.364,10.313 C9.665,10.614 9.676,10.997 9.676,11.067 L9.675,18.61 C9.675,19.199 9.198,19.676 8.609,19.676 C8.02,19.676 7.542,19.199 7.542,18.609 L7.543,13.642 L3.8,17.384 C3.384,17.8 2.709,17.8 2.292,17.383 C1.875,16.967 1.875,16.292 2.292,15.875"></path>
    </g>
</svg>
