<?xml version="1.0" encoding="UTF-8" standalone="no"?>
<svg version="1.1" xmlns="http://www.w3.org/2000/svg" width="30px" height="30px"  viewBox="0 0 30 30" xmlns:xlink="http://www.w3.org/1999/xlink">
  <g stroke="#d9534f" fill="#d9534f" stroke-linecap="round" stroke-linejoin="round" stroke-miterlimit="10">
    <g stroke-width="1" fill="none" fill-rule="evenodd">
      <polyline points="21.5,10.5 21.5,0.5 1.5,0.5 1.5,10.5"/>
      <line x1="0.5" y1="12.5" x2="8.5" y2="12.5"/>
      <line x1="11.5" y1="6.141" x2="11.5" y2="18.141"/>
      <line x1="14.5" y1="12.5" x2="22.5" y2="12.5"/>
    </g>
    <g stroke-width="0">
      <path d="M1.5,20C1.224,20,1,20.225,1,20.5C1,20.777,1.224,21,1.5,21S2,20.777,2,20.5C2,20.225,1.776,20,1.5,20L1.5,20z"/>
      <path d="M1.5,18C1.224,18,1,18.225,1,18.5C1,18.777,1.224,19,1.5,19S2,18.777,2,18.5C2,18.225,1.776,18,1.5,18L1.5,18z"/>
      <path d="M1.5,16C1.224,16,1,16.225,1,16.5C1,16.777,1.224,17,1.5,17S2,16.777,2,16.5C2,16.225,1.776,16,1.5,16L1.5,16z"/>
      <path d="M1.5,14C1.224,14,1,14.225,1,14.5C1,14.777,1.224,15,1.5,15S2,14.777,2,14.5C2,14.225,1.776,14,1.5,14L1.5,14z"/>
      <path d="M21.5,20c-0.276,0-0.5,0.225-0.5,0.5c0,0.277,0.224,0.5,0.5,0.5s0.5-0.223,0.5-0.5C22,20.225,21.776,20,21.5,20 L21.5,20z"/>
      <path d="M21.5,18c-0.276,0-0.5,0.225-0.5,0.5c0,0.277,0.224,0.5,0.5,0.5s0.5-0.223,0.5-0.5C22,18.225,21.776,18,21.5,18 L21.5,18z"/>
      <path d="M21.5,16c-0.276,0-0.5,0.225-0.5,0.5c0,0.277,0.224,0.5,0.5,0.5s0.5-0.223,0.5-0.5C22,16.225,21.776,16,21.5,16 L21.5,16z"/>
      <path d="M21.5,14c-0.276,0-0.5,0.225-0.5,0.5c0,0.277,0.224,0.5,0.5,0.5s0.5-0.223,0.5-0.5C22,14.225,21.776,14,21.5,14 L21.5,14z"/>
      <path d="M1.5,22C1.224,22,1,22.225,1,22.5C1,22.777,1.224,23,1.5,23S2,22.777,2,22.5C2,22.225,1.776,22,1.5,22L1.5,22z"/>
      <path d="M3.5,22C3.224,22,3,22.225,3,22.5C3,22.777,3.224,23,3.5,23S4,22.777,4,22.5C4,22.225,3.776,22,3.5,22L3.5,22z"/>
      <path d="M5.5,22C5.224,22,5,22.225,5,22.5C5,22.777,5.224,23,5.5,23S6,22.777,6,22.5C6,22.225,5.776,22,5.5,22L5.5,22z"/>
      <path d="M7.5,22C7.224,22,7,22.225,7,22.5C7,22.777,7.224,23,7.5,23S8,22.777,8,22.5C8,22.225,7.776,22,7.5,22L7.5,22z"/>
      <path d="M9.5,22C9.224,22,9,22.225,9,22.5C9,22.777,9.224,23,9.5,23s0.5-0.223,0.5-0.5C10,22.225,9.776,22,9.5,22L9.5,22z"/>
      <path d="M11.5,22c-0.276,0-0.5,0.225-0.5,0.5c0,0.277,0.224,0.5,0.5,0.5s0.5-0.223,0.5-0.5C12,22.225,11.776,22,11.5,22 L11.5,22z"/>
      <path d="M13.5,22c-0.276,0-0.5,0.225-0.5,0.5c0,0.277,0.224,0.5,0.5,0.5s0.5-0.223,0.5-0.5C14,22.225,13.776,22,13.5,22 L13.5,22z"/>
      <path d="M15.5,22c-0.276,0-0.5,0.225-0.5,0.5c0,0.277,0.224,0.5,0.5,0.5s0.5-0.223,0.5-0.5C16,22.225,15.776,22,15.5,22 L15.5,22z"/>
      <path d="M17.5,22c-0.276,0-0.5,0.225-0.5,0.5c0,0.277,0.224,0.5,0.5,0.5s0.5-0.223,0.5-0.5C18,22.225,17.776,22,17.5,22 L17.5,22z"/>
      <path d="M19.5,22c-0.276,0-0.5,0.225-0.5,0.5c0,0.277,0.224,0.5,0.5,0.5s0.5-0.223,0.5-0.5C20,22.225,19.776,22,19.5,22 L19.5,22z"/>
      <path d="M21.5,22c-0.276,0-0.5,0.225-0.5,0.5c0,0.277,0.224,0.5,0.5,0.5s0.5-0.223,0.5-0.5C22,22.225,21.776,22,21.5,22 L21.5,22z"/>
      <path d="M11.477,19.172c-0.129,0-0.257-0.049-0.354-0.147l-2.889-2.908c-0.195-0.196-0.193-0.513,0.002-0.708 c0.196-0.195,0.513-0.192,0.707,0.002l2.538,2.556l2.58-2.534c0.197-0.193,0.514-0.191,0.707,0.006 c0.193,0.197,0.191,0.514-0.006,0.707l-2.935,2.883C11.73,19.124,11.604,19.172,11.477,19.172z"/>
    </g>
  </g>
</svg>
