<svg xmlns="http://www.w3.org/2000/svg" viewBox="0 0 24 24">
  <g>
    <path fill="none" stroke-miterlimit="10" d="M14 9.875l-.986-3.993-3.985.96"/>
    <path d="M2.5 2c-.276 0-.5.223-.5.5 0 .275.224.5.5.5s.5-.225.5-.5c0-.277-.224-.5-.5-.5zM2.5 4c-.276 0-.5.223-.5.5 0 .275.224.5.5.5s.5-.225.5-.5c0-.277-.224-.5-.5-.5zM2.5 6c-.276 0-.5.223-.5.5 0 .275.224.5.5.5s.5-.225.5-.5c0-.277-.224-.5-.5-.5zM2.5 8c-.276 0-.5.223-.5.5 0 .275.224.5.5.5s.5-.225.5-.5c0-.277-.224-.5-.5-.5zM22.5 2c-.276 0-.5.223-.5.5 0 .275.224.5.5.5s.5-.225.5-.5c0-.277-.224-.5-.5-.5zM22.5 4c-.276 0-.5.223-.5.5 0 .275.224.5.5.5s.5-.225.5-.5c0-.277-.224-.5-.5-.5zM22.5 6c-.276 0-.5.223-.5.5 0 .275.224.5.5.5s.5-.225.5-.5c0-.277-.224-.5-.5-.5zM22.5 8c-.276 0-.5.223-.5.5 0 .275.224.5.5.5s.5-.225.5-.5c0-.277-.224-.5-.5-.5zM2.5 10c-.276 0-.5.223-.5.5 0 .275.224.5.5.5s.5-.225.5-.5c0-.277-.224-.5-.5-.5zM22.5 10c-.276 0-.5.223-.5.5 0 .275.224.5.5.5s.5-.225.5-.5c0-.277-.224-.5-.5-.5zM2.5 0c-.276 0-.5.223-.5.5 0 .275.224.5.5.5S3 .775 3 .5c0-.277-.224-.5-.5-.5zM4.5 0c-.276 0-.5.223-.5.5 0 .275.224.5.5.5S5 .775 5 .5c0-.277-.224-.5-.5-.5zM6.5 0c-.276 0-.5.223-.5.5 0 .275.224.5.5.5S7 .775 7 .5c0-.277-.224-.5-.5-.5zM8.5 0c-.276 0-.5.223-.5.5 0 .275.224.5.5.5S9 .775 9 .5c0-.277-.224-.5-.5-.5zM10.5 0c-.276 0-.5.223-.5.5 0 .275.224.5.5.5s.5-.225.5-.5c0-.277-.224-.5-.5-.5zM12.5 0c-.276 0-.5.223-.5.5 0 .275.224.5.5.5s.5-.225.5-.5c0-.277-.224-.5-.5-.5zM14.5 0c-.276 0-.5.223-.5.5 0 .275.224.5.5.5s.5-.225.5-.5c0-.277-.224-.5-.5-.5zM16.5 0c-.276 0-.5.223-.5.5 0 .275.224.5.5.5s.5-.225.5-.5c0-.277-.224-.5-.5-.5zM18.5 0c-.276 0-.5.223-.5.5 0 .275.224.5.5.5s.5-.225.5-.5c0-.277-.224-.5-.5-.5zM20.5 0c-.276 0-.5.223-.5.5 0 .275.224.5.5.5s.5-.225.5-.5c0-.277-.224-.5-.5-.5zM22.5 0c-.276 0-.5.223-.5.5 0 .275.224.5.5.5s.5-.225.5-.5c0-.277-.224-.5-.5-.5z"/>
    <path fill="none" stroke-linecap="round" stroke-linejoin="round" stroke-miterlimit="10" d="M22.5 14.5v9h-20v-9M13.5 12.5h10M.5 12.5h7"/>
    <path fill="none" stroke-linecap="round" stroke-linejoin="round" stroke-miterlimit="10" d="M13.003 5.882C11.445 7.645 10.5 9.962 10.5 12.5c0 2.515.928 4.81 2.46 6.566"/>
  </g>
</svg>
