<svg xmlns="http://www.w3.org/2000/svg" viewBox="0 0 24 24">
  <g fill="none" fill-rule="evenodd">
    <path d="M21.5 10.5V.5h-20v10m-1 2h8m3-6.36v12m3-5.64h8"/>
  </g>
  <g stroke-width="0" stroke="none">
    <path stroke-width="0"  d="M1.5 20c-.276 0-.5.225-.5.5 0 .277.224.5.5.5s.5-.223.5-.5c0-.275-.224-.5-.5-.5zm0-2c-.276 0-.5.225-.5.5 0 .277.224.5.5.5s.5-.223.5-.5c0-.275-.224-.5-.5-.5zm0-2c-.276 0-.5.225-.5.5 0 .277.224.5.5.5s.5-.223.5-.5c0-.275-.224-.5-.5-.5zm0-2c-.276 0-.5.225-.5.5 0 .277.224.5.5.5s.5-.223.5-.5c0-.275-.224-.5-.5-.5zm20 6c-.276 0-.5.225-.5.5 0 .277.224.5.5.5s.5-.223.5-.5c0-.275-.224-.5-.5-.5zm0-2c-.276 0-.5.225-.5.5 0 .277.224.5.5.5s.5-.223.5-.5c0-.275-.224-.5-.5-.5zm0-2c-.276 0-.5.225-.5.5 0 .277.224.5.5.5s.5-.223.5-.5c0-.275-.224-.5-.5-.5zm0-2c-.276 0-.5.225-.5.5 0 .277.224.5.5.5s.5-.223.5-.5c0-.275-.224-.5-.5-.5zm-20 8c-.276 0-.5.225-.5.5 0 .277.224.5.5.5s.5-.223.5-.5c0-.275-.224-.5-.5-.5zm2 0c-.276 0-.5.225-.5.5 0 .277.224.5.5.5s.5-.223.5-.5c0-.275-.224-.5-.5-.5zm2 0c-.276 0-.5.225-.5.5 0 .277.224.5.5.5s.5-.223.5-.5c0-.275-.224-.5-.5-.5zm2 0c-.276 0-.5.225-.5.5 0 .277.224.5.5.5s.5-.223.5-.5c0-.275-.224-.5-.5-.5zm2 0c-.276 0-.5.225-.5.5 0 .277.224.5.5.5s.5-.223.5-.5c0-.275-.224-.5-.5-.5zm2 0c-.276 0-.5.225-.5.5 0 .277.224.5.5.5s.5-.223.5-.5c0-.275-.224-.5-.5-.5zm2 0c-.276 0-.5.225-.5.5 0 .277.224.5.5.5s.5-.223.5-.5c0-.275-.224-.5-.5-.5zm2 0c-.276 0-.5.225-.5.5 0 .277.224.5.5.5s.5-.223.5-.5c0-.275-.224-.5-.5-.5zm2 0c-.276 0-.5.225-.5.5 0 .277.224.5.5.5s.5-.223.5-.5c0-.275-.224-.5-.5-.5zm2 0c-.276 0-.5.225-.5.5 0 .277.224.5.5.5s.5-.223.5-.5c0-.275-.224-.5-.5-.5zm2 0c-.276 0-.5.225-.5.5 0 .277.224.5.5.5s.5-.223.5-.5c0-.275-.224-.5-.5-.5zm-9.875-2.832c.13-.007.254-.063.346-.165l2.736-3.058c.183-.204.165-.52-.04-.705-.206-.185-.523-.165-.706.04l-2.4 2.684-2.71-2.394c-.208-.182-.524-.162-.707.043-.182.207-.162.524.043.706l3.082 2.724c.102.09.23.13.357.124v-.002z"/>
  </g>

</svg>
