<svg xmlns="http://www.w3.org/2000/svg" viewBox="0 0 24 24">
  <path fill="none" d="M14 14.123l-.986 3.994-3.985-.96"/>
  <path d="M2.5 21c-.276 0-.5.225-.5.5 0 .277.224.5.5.5s.5-.223.5-.5c0-.275-.224-.5-.5-.5zM2.5 19c-.276 0-.5.225-.5.5 0 .277.224.5.5.5s.5-.223.5-.5c0-.275-.224-.5-.5-.5zM2.5 17c-.276 0-.5.225-.5.5 0 .277.224.5.5.5s.5-.223.5-.5c0-.275-.224-.5-.5-.5zM2.5 15c-.276 0-.5.225-.5.5 0 .277.224.5.5.5s.5-.223.5-.5c0-.275-.224-.5-.5-.5zM22.5 21c-.276 0-.5.225-.5.5 0 .277.224.5.5.5s.5-.223.5-.5c0-.275-.224-.5-.5-.5zM22.5 19c-.276 0-.5.225-.5.5 0 .277.224.5.5.5s.5-.223.5-.5c0-.275-.224-.5-.5-.5zM22.5 17c-.276 0-.5.225-.5.5 0 .277.224.5.5.5s.5-.223.5-.5c0-.275-.224-.5-.5-.5zM22.5 15c-.276 0-.5.225-.5.5 0 .277.224.5.5.5s.5-.223.5-.5c0-.275-.224-.5-.5-.5zM2.5 13c-.276 0-.5.225-.5.5 0 .277.224.5.5.5s.5-.223.5-.5c0-.275-.224-.5-.5-.5zM22.5 13c-.276 0-.5.225-.5.5 0 .277.224.5.5.5s.5-.223.5-.5c0-.275-.224-.5-.5-.5zM2.5 23c-.276 0-.5.225-.5.5 0 .277.224.5.5.5s.5-.223.5-.5c0-.275-.224-.5-.5-.5zM4.5 23c-.276 0-.5.225-.5.5 0 .277.224.5.5.5s.5-.223.5-.5c0-.275-.224-.5-.5-.5zM6.5 23c-.276 0-.5.225-.5.5 0 .277.224.5.5.5s.5-.223.5-.5c0-.275-.224-.5-.5-.5zM8.5 23c-.276 0-.5.225-.5.5 0 .277.224.5.5.5s.5-.223.5-.5c0-.275-.224-.5-.5-.5zM10.5 23c-.276 0-.5.225-.5.5 0 .277.224.5.5.5s.5-.223.5-.5c0-.275-.224-.5-.5-.5zM12.5 23c-.276 0-.5.225-.5.5 0 .277.224.5.5.5s.5-.223.5-.5c0-.275-.224-.5-.5-.5zM14.5 23c-.276 0-.5.225-.5.5 0 .277.224.5.5.5s.5-.223.5-.5c0-.275-.224-.5-.5-.5zM16.5 23c-.276 0-.5.225-.5.5 0 .277.224.5.5.5s.5-.223.5-.5c0-.275-.224-.5-.5-.5zM18.5 23c-.276 0-.5.225-.5.5 0 .277.224.5.5.5s.5-.223.5-.5c0-.275-.224-.5-.5-.5zM20.5 23c-.276 0-.5.225-.5.5 0 .277.224.5.5.5s.5-.223.5-.5c0-.275-.224-.5-.5-.5zM22.5 23c-.276 0-.5.225-.5.5 0 .277.224.5.5.5s.5-.223.5-.5c0-.275-.224-.5-.5-.5z"/>
  <path fill="none" d="M22.5 9.5v-9h-20v9M13.5 11.5h10M.5 11.5h7"/>
  <path fill="none" d="M13.003 18.117c-1.558-1.762-2.503-4.08-2.503-6.617 0-2.514.928-4.81 2.46-6.568"/>
</svg>
