<?xml version="1.0" encoding="utf-8"?>
<!-- Generator: Adobe Illustrator 17.0.0, SVG Export Plug-In . SVG Version: 6.00 Build 0)  -->
<!DOCTYPE svg PUBLIC "-//W3C//DTD SVG 1.1//EN" "http://www.w3.org/Graphics/SVG/1.1/DTD/svg11.dtd">
<svg version="1.1" id="Layer_2" xmlns="http://www.w3.org/2000/svg" xmlns:xlink="http://www.w3.org/1999/xlink" x="0px" y="0px"
	 width="60px" height="60px" viewBox="0 0 60 60" enable-background="new 0 0 60 60" xml:space="preserve">
<path fill="#010101" d="M30,0C13.458,0,0,13.458,0,30s13.458,30,30,30s30-13.458,30-30S46.542,0,30,0z M22.715,19.717l2.521-12.608
	c0.078-0.392,0.381-0.698,0.772-0.782c3.491-0.748,4.489-0.748,7.984,0c0.391,0.084,0.693,0.391,0.771,0.782l2.483,12.418
	c0.05,0.119,0.077,0.25,0.077,0.387c0,0.552-0.447,1-1,1c-0.005,0-0.012,0-0.02,0c-0.152,0-0.305-0.034-0.445-0.105
	C34.468,20.116,32.333,19.72,30,19.72s-4.469,0.396-5.859,1.089c-0.141,0.07-0.293,0.105-0.445,0.105
	c-0.216,0-0.43-0.07-0.607-0.206C22.784,20.476,22.64,20.091,22.715,19.717z M24.735,41.451L12.555,45.57
	c-0.104,0.036-0.213,0.053-0.32,0.053c-0.278,0-0.549-0.116-0.742-0.33c-2.401-2.659-2.887-3.499-3.992-6.912
	c-0.123-0.379-0.009-0.796,0.291-1.06l9.659-8.489c0.286-0.252,0.692-0.318,1.044-0.172c0.353,0.146,0.591,0.48,0.614,0.861
	c0.201,3.236,3.158,8.358,5.859,10.148c0.318,0.211,0.488,0.584,0.438,0.963C25.357,41.011,25.097,41.328,24.735,41.451z M23,30
	c0-3.86,3.141-7,7-7c3.859,0,7,3.14,7,7c0,3.86-3.141,7-7,7C26.141,37,23,33.86,23,30z M48.505,45.293
	c-0.193,0.213-0.464,0.33-0.742,0.33c-0.107,0-0.216-0.017-0.32-0.053l-12.18-4.119c-0.361-0.123-0.622-0.439-0.671-0.818
	c-0.05-0.378,0.12-0.752,0.438-0.963c2.702-1.792,5.659-6.914,5.858-10.148c0.023-0.381,0.262-0.715,0.614-0.862
	c0.353-0.146,0.758-0.08,1.044,0.172l9.659,8.489c0.3,0.264,0.414,0.68,0.291,1.059C51.395,41.79,50.91,42.63,48.505,45.293z"/>
</svg>
