<?xml version="1.0" encoding="utf-8"?>
<!-- Generator: Adobe Illustrator 17.0.0, SVG Export Plug-In . SVG Version: 6.00 Build 0)  -->
<!DOCTYPE svg PUBLIC "-//W3C//DTD SVG 1.1//EN" "http://www.w3.org/Graphics/SVG/1.1/DTD/svg11.dtd">
<svg version="1.1" id="Layer_2" xmlns="http://www.w3.org/2000/svg" xmlns:xlink="http://www.w3.org/1999/xlink" x="0px" y="0px"
	 width="60px" height="60px" viewBox="0 0 60 60" enable-background="new 0 0 60 60" xml:space="preserve">
<g>
	<path fill="#010101" d="M46.5,34c1.673,0,4.097,1.011,5.293,2.207l2.5,2.5C54.488,38.902,54.744,39,55,39
		c0.256,0,0.512-0.098,0.707-0.293c0.391-0.391,0.391-1.023,0-1.414l-2.5-2.5C51.641,33.227,48.695,32,46.5,32H44v-6h2.5
		c1.673,0,4.097,1.011,5.293,2.207l2.5,2.5C54.488,30.902,54.744,31,55,31c0.256,0,0.512-0.098,0.707-0.293
		c0.391-0.391,0.391-1.023,0-1.414l-2.5-2.5C51.641,25.227,48.695,24,46.5,24H43H17h-3.5c-2.195,0-5.141,1.227-6.707,2.793l-2.5,2.5
		c-0.391,0.391-0.391,1.023,0,1.414C4.488,30.902,4.744,31,5,31s0.512-0.098,0.707-0.293l2.5-2.5C9.403,27.011,11.827,26,13.5,26H16
		v6h-2.5c-2.195,0-5.141,1.227-6.707,2.793l-2.5,2.5c-0.391,0.391-0.391,1.023,0,1.414C4.488,38.902,4.744,39,5,39
		s0.512-0.098,0.707-0.293l2.5-2.5C9.403,35.011,11.827,34,13.5,34H16v6h-2.5c-2.195,0-5.141,1.227-6.707,2.793l-2.5,2.5
		c-0.391,0.391-0.391,1.023,0,1.414C4.488,46.902,4.744,47,5,47s0.512-0.098,0.707-0.293l2.5-2.5C9.403,43.011,11.827,42,13.5,42
		h2.582c1.039,7.296,12.75,17.32,13.27,17.762C29.539,59.921,29.769,60,30,60c0.23,0,0.461-0.079,0.647-0.238
		C31.168,59.32,42.879,49.296,43.918,42H46.5c1.673,0,4.097,1.011,5.293,2.207l2.5,2.5C54.488,46.902,54.744,47,55,47
		c0.256,0,0.512-0.098,0.707-0.293c0.391-0.391,0.391-1.023,0-1.414l-2.5-2.5C51.641,41.227,48.695,40,46.5,40H44v-6H46.5z"/>
	<path fill="#010101" d="M17,22h26c0.007,0,0.015,0,0.019,0c0.553,0,1-0.448,1-1c0-0.071-0.007-0.141-0.021-0.207
		c-0.057-3.926-1.747-7.458-4.409-9.968l1.686-1.686C42.803,7.611,44,5.135,44,3.5V1c0-0.552-0.447-1-1-1c-0.553,0-1,0.448-1,1v2.5
		c0,0.986-0.878,2.964-2.139,4.224l-1.829,1.83C35.756,7.951,32.989,7,30,7c-2.989,0-5.757,0.95-8.033,2.552l-1.828-1.829
		C18.878,6.464,18,4.486,18,3.5V1c0-0.552-0.447-1-1-1c-0.553,0-1,0.448-1,1v2.5c0,1.635,1.197,4.111,2.724,5.638l1.689,1.688
		C17.703,13.381,16,16.991,16,21C16,21.552,16.447,22,17,22z"/>
</g>
</svg>
