<?xml version="1.0" encoding="utf-8"?>
<!-- Generator: Adobe Illustrator 17.0.0, SVG Export Plug-In . SVG Version: 6.00 Build 0)  -->
<!DOCTYPE svg PUBLIC "-//W3C//DTD SVG 1.1//EN" "http://www.w3.org/Graphics/SVG/1.1/DTD/svg11.dtd">
<svg version="1.1" id="Layer_2" xmlns="http://www.w3.org/2000/svg" xmlns:xlink="http://www.w3.org/1999/xlink" x="0px" y="0px"
	 width="60px" height="60px" viewBox="0 0 60 60" enable-background="new 0 0 60 60" xml:space="preserve">
<g>
	<path fill="#010101" d="M9.527,27h8.472c-0.184,0-0.369-0.05-0.535-0.156c-0.608-0.386-3.647-2.419-3.884-4.571
		c-0.082-0.748,0.164-1.432,0.713-1.98c0.391-0.391,1.023-0.391,1.414,0c0.391,0.391,0.391,1.023,0,1.414
		c-0.133,0.133-0.151,0.228-0.139,0.347c0.097,0.887,1.829,2.376,2.969,3.102c0.465,0.297,0.602,0.915,0.306,1.381
		C18.652,26.836,18.329,27,17.999,27h7.45c-0.353-5.354,4.625-10.485,4.838-10.701c0.307-0.313,0.782-0.388,1.173-0.187
		c0.39,0.202,0.601,0.633,0.524,1.065c-0.541,3.006,0.787,4.35,2.194,5.774c1.079,1.093,2.194,2.222,2.28,4.001
		c0.001,0.017-0.007,0.031-0.008,0.048h5.55c-0.33,0-0.653-0.164-0.844-0.463c-0.297-0.466-0.16-1.084,0.306-1.381
		c1.14-0.726,2.871-2.216,2.969-3.102c0.013-0.119-0.006-0.214-0.139-0.347c-0.391-0.391-0.391-1.023,0-1.414
		c0.391-0.391,1.023-0.391,1.414,0c0.548,0.548,0.794,1.233,0.712,1.98c-0.236,2.152-3.275,4.185-3.883,4.571
		C42.37,26.95,42.185,27,42.001,27h8.317c0.366,0,0.703-0.2,0.878-0.521c1.581-2.903,1.854-6.022,0.767-8.78
		c-1.198-3.042-3.914-5.402-7.646-6.647c-0.359-0.12-0.756-0.026-1.023,0.242c-0.268,0.268-0.361,0.664-0.241,1.023
		c0.488,1.465,0.049,1.804-1.124,2.711c-0.277,0.214-0.573,0.442-0.87,0.702c-0.335-4.31-2.377-6.102-3.947-7.479
		c-1.815-1.593-2.912-2.555-1.182-6.88c0.134-0.335,0.077-0.717-0.15-0.998c-0.226-0.282-0.588-0.419-0.943-0.359
		c-5.552,0.929-9.762,3.361-12.174,7.033c-1.725,2.626-2.481,5.812-2.244,9.356c-0.618-0.552-1.254-1.028-1.857-1.481
		c-2.138-1.603-3.142-2.471-2.59-4.68c0.094-0.374-0.036-0.768-0.333-1.014c-0.297-0.246-0.71-0.297-1.059-0.135
		c-2.932,1.365-5.283,4.162-6.453,7.672c-1.14,3.422-0.95,6.96,0.52,9.706C8.82,26.797,9.158,27,9.527,27z"/>
	<rect x="26" y="46" fill="#010101" width="20" height="6"/>
	<rect x="14" y="38" fill="#010101" width="20" height="6"/>
	<path fill="#010101" d="M59,29H48v7h12v-6C60,29.448,59.553,29,59,29z"/>
	<path fill="#010101" d="M24,29H1c-0.553,0-1,0.448-1,1v6h24V29z"/>
	<rect x="26" y="29" fill="#010101" width="20" height="7"/>
	<rect x="36" y="38" fill="#010101" width="24" height="6"/>
	<rect x="48" y="46" fill="#010101" width="12" height="6"/>
	<rect y="46" fill="#010101" width="24" height="6"/>
	<rect y="38" fill="#010101" width="12" height="6"/>
	<path fill="#010101" d="M36,60h23c0.553,0,1-0.448,1-1v-5H36V60z"/>
	<path fill="#010101" d="M0,59c0,0.552,0.447,1,1,1h11v-6H0V59z"/>
	<rect x="14" y="54" fill="#010101" width="20" height="6"/>
</g>
</svg>
