<?xml version="1.0" encoding="utf-8"?>
<!-- Generator: Adobe Illustrator 17.0.0, SVG Export Plug-In . SVG Version: 6.00 Build 0)  -->
<!DOCTYPE svg PUBLIC "-//W3C//DTD SVG 1.1//EN" "http://www.w3.org/Graphics/SVG/1.1/DTD/svg11.dtd">
<svg version="1.1" id="Layer_2" xmlns="http://www.w3.org/2000/svg" xmlns:xlink="http://www.w3.org/1999/xlink" x="0px" y="0px"
	 width="60px" height="60px" viewBox="0 0 60 60" enable-background="new 0 0 60 60" xml:space="preserve">
<g>
	<path fill="#010101" d="M29,51.5c0-3.504,1.534-7.267,4.044-9.5H14H9c-4.963,0-9,4.037-9,9c0,4.963,4.037,9,9,9h23.737
		C30.478,58.091,29,54.997,29,51.5z"/>
	<path fill="#010101" d="M53,0H20c-4.411,0-8,3.589-8,8v32h26c0.553,0,1,0.448,1,1c0,0.552-0.447,1-1,1c-3.663,0-7,4.528-7,9.5
		c0,4.687,3.141,8.5,7,8.5h1c4.963,0,9-4.037,9-9V8h11c0.553,0,1-0.448,1-1C60,3.14,56.859,0,53,0z M38,36H21c-0.553,0-1-0.448-1-1
		c0-0.552,0.447-1,1-1h17c0.553,0,1,0.448,1,1C39,35.552,38.553,36,38,36z M38,28H21c-0.553,0-1-0.448-1-1c0-0.552,0.447-1,1-1h17
		c0.553,0,1,0.448,1,1C39,27.552,38.553,28,38,28z M38,20H21c-0.553,0-1-0.448-1-1c0-0.552,0.447-1,1-1h17c0.553,0,1,0.448,1,1
		C39,19.552,38.553,20,38,20z M38,12H21c-0.553,0-1-0.448-1-1c0-0.552,0.447-1,1-1h17c0.553,0,1,0.448,1,1
		C39,11.552,38.553,12,38,12z M48.101,6c0-0.001,0-0.002,0-0.002c0.004-0.019,0.012-0.036,0.016-0.055
		c0.062-0.287,0.149-0.565,0.258-0.831c0.04-0.097,0.093-0.186,0.139-0.279c0.088-0.181,0.179-0.36,0.287-0.529
		c0.064-0.1,0.138-0.192,0.209-0.287c0.111-0.148,0.226-0.292,0.352-0.427c0.084-0.089,0.172-0.174,0.262-0.257
		c0.134-0.123,0.274-0.239,0.421-0.347c0.098-0.073,0.197-0.144,0.301-0.209c0.158-0.1,0.325-0.187,0.494-0.269
		c0.106-0.051,0.209-0.105,0.319-0.149c0.192-0.077,0.393-0.133,0.596-0.185c0.099-0.025,0.194-0.06,0.294-0.08
		C52.358,2.037,52.675,2,53,2c2.415,0,4.435,1.721,4.899,4H48.101z"/>
</g>
</svg>
