<?xml version="1.0" encoding="utf-8"?>
<!-- Generator: Adobe Illustrator 17.0.0, SVG Export Plug-In . SVG Version: 6.00 Build 0)  -->
<!DOCTYPE svg PUBLIC "-//W3C//DTD SVG 1.1//EN" "http://www.w3.org/Graphics/SVG/1.1/DTD/svg11.dtd">
<svg version="1.1" id="Layer_2" xmlns="http://www.w3.org/2000/svg" xmlns:xlink="http://www.w3.org/1999/xlink" x="0px" y="0px"
	 width="60px" height="60px" viewBox="0 0 60 60" enable-background="new 0 0 60 60" xml:space="preserve">
<path fill="#010101" d="M59.402,0.085c-0.361-0.161-0.786-0.089-1.078,0.178L38,18.901V3.522c0-0.377-0.212-0.722-0.549-0.893
	c-0.336-0.17-0.74-0.137-1.043,0.087l-36,26.478C0.151,29.383,0,29.682,0,30s0.151,0.617,0.408,0.806l36,26.479
	c0.304,0.224,0.707,0.258,1.043,0.087C37.788,57.2,38,56.856,38,56.479V41.1l20.324,18.638C58.512,59.909,58.754,60,59,60
	c0.136,0,0.273-0.027,0.402-0.085C59.766,59.756,60,59.397,60,59V1C60,0.604,59.766,0.244,59.402,0.085z"/>
</svg>
