<?xml version="1.0" encoding="utf-8"?>
<!-- Generator: Adobe Illustrator 17.0.0, SVG Export Plug-In . SVG Version: 6.00 Build 0)  -->
<!DOCTYPE svg PUBLIC "-//W3C//DTD SVG 1.1//EN" "http://www.w3.org/Graphics/SVG/1.1/DTD/svg11.dtd">
<svg version="1.1" id="Layer_2" xmlns="http://www.w3.org/2000/svg" xmlns:xlink="http://www.w3.org/1999/xlink" x="0px" y="0px"
	 width="60px" height="60px" viewBox="0 0 60 60" enable-background="new 0 0 60 60" xml:space="preserve">
<g>
	<path fill="#010101" d="M1.417,38.217H58.99c0.007,0,0.014,0,0.02,0c0.552,0,1-0.447,1-1c0-0.315-0.147-0.598-0.375-0.78
		L31.168,4.122c-0.189-0.215-0.461-0.338-0.747-0.339c-0.002,0-0.003,0-0.004,0c-0.285,0-0.556,0.121-0.746,0.333l-29,32.435
		c-0.263,0.294-0.328,0.716-0.167,1.075C0.665,37.986,1.023,38.217,1.417,38.217z"/>
	<path fill="#010101" d="M58.99,44.217h-58c-0.552,0-1,0.447-1,1v10c0,0.553,0.448,1,1,1h58c0.552,0,1-0.447,1-1v-10
		C59.99,44.665,59.542,44.217,58.99,44.217z"/>
</g>
</svg>
