<?xml version="1.0" encoding="utf-8"?>
<!-- Generator: Adobe Illustrator 17.0.0, SVG Export Plug-In . SVG Version: 6.00 Build 0)  -->
<!DOCTYPE svg PUBLIC "-//W3C//DTD SVG 1.1//EN" "http://www.w3.org/Graphics/SVG/1.1/DTD/svg11.dtd">
<svg version="1.1" id="Layer_2" xmlns="http://www.w3.org/2000/svg" xmlns:xlink="http://www.w3.org/1999/xlink" x="0px" y="0px"
	 width="60px" height="60px" viewBox="0 0 60 60" enable-background="new 0 0 60 60" xml:space="preserve">
<path fill="#010101" d="M50.652,46H8.348c-1.892,0-4-1.643-4-4c0-2.253,2.672-4,4.971-4h16.359c3.56,2.715,7.988,4.348,12.801,4.348
	c11.675,0,21.174-9.499,21.174-21.174S50.154,0,38.479,0S17.305,9.499,17.305,21.174c0,4.824,1.64,9.262,4.366,12.826H9.318
	c-4.243,0-8.971,3.285-8.971,8c0,4.785,4.137,8,8,8h42.305c1.642,0,3.479,1.265,3.479,2.956c0,1.564-1.69,3.044-3.479,3.044h-25
	c-1.104,0-2,0.896-2,2c0,1.105,0.896,2,2,2h25c3.984,0,7.478-3.292,7.478-7.044C58.131,49.186,54.706,46,50.652,46z M44.486,36.087
	c-1.761,0.705-3.665,1.062-5.661,1.062c-2.1,0-4.271-0.389-6.453-1.157c-0.203-0.068-0.382-0.2-0.507-0.382
	c-0.186-0.271-0.229-0.616-0.111-0.924l2.412-6.304c0.106-0.276,0.329-0.492,0.609-0.588c0.281-0.098,0.588-0.062,0.842,0.089
	c1.684,1.016,3.752,1.083,5.855,0.213c0.247-0.103,0.526-0.102,0.772,0.003c0.247,0.104,0.441,0.304,0.54,0.554l2.359,5.967
	c0.075,0.134,0.118,0.286,0.124,0.444C45.282,35.544,44.954,35.981,44.486,36.087z M33.696,21.174c0-2.637,2.146-4.782,4.783-4.782
	c2.637,0,4.782,2.146,4.782,4.782s-2.146,4.782-4.782,4.782C35.841,25.956,33.696,23.811,33.696,21.174z M45.402,17.407
	c0.104-0.247,0.304-0.441,0.553-0.54l5.964-2.358c0.124-0.068,0.264-0.11,0.41-0.121c0.481-0.043,0.95,0.291,1.061,0.772
	c1.831,4.573,0.966,9.104-0.094,12.119c-0.068,0.203-0.201,0.383-0.382,0.508c-0.17,0.117-0.369,0.178-0.569,0.178
	c-0.12,0-0.24-0.023-0.355-0.066l-6.304-2.412c-0.387-0.148-0.643-0.52-0.643-0.934c0-0.183,0.05-0.364,0.144-0.521
	c1.293-2.138,0.829-4.362,0.212-5.852C45.297,17.932,45.298,17.653,45.402,17.407z M32.474,6.245c0.02-0.004,0.041-0.008,0.06-0.011
	c3.599-1.42,7.819-1.365,12.048,0.122c0.208,0.07,0.39,0.207,0.515,0.395c0.186,0.278,0.221,0.631,0.091,0.939l-2.413,5.77
	c-0.157,0.377-0.525,0.614-0.922,0.614c-0.059,0-0.118-0.005-0.177-0.016c-0.139-0.025-0.267-0.078-0.379-0.152
	c-1.882-0.729-3.968-0.715-5.815,0.051c-0.51,0.212-1.095-0.03-1.307-0.54L31.82,7.743c-0.08-0.138-0.126-0.294-0.132-0.458
	l-0.001-0.028C31.67,6.774,32.001,6.349,32.474,6.245z M23.665,15.055c0.09-0.255,0.279-0.462,0.523-0.575
	c0.246-0.113,0.525-0.125,0.777-0.026l6.305,2.41c0.277,0.105,0.492,0.328,0.589,0.608c0.096,0.28,0.063,0.589-0.09,0.842
	c-1.292,2.141-0.829,4.366-0.212,5.855c0.103,0.248,0.102,0.526-0.003,0.774c-0.105,0.246-0.304,0.441-0.553,0.539l-5.968,2.358
	c-0.134,0.074-0.286,0.118-0.444,0.123c-0.011,0.001-0.022,0.001-0.034,0.001c-0.467,0-0.887-0.323-0.99-0.78
	C21.732,22.606,22.603,18.068,23.665,15.055z"/>
</svg>
