<?xml version="1.0" encoding="utf-8"?>
<!-- Generator: Adobe Illustrator 17.0.0, SVG Export Plug-In . SVG Version: 6.00 Build 0)  -->
<!DOCTYPE svg PUBLIC "-//W3C//DTD SVG 1.1//EN" "http://www.w3.org/Graphics/SVG/1.1/DTD/svg11.dtd">
<svg version="1.1" id="Layer_2" xmlns="http://www.w3.org/2000/svg" xmlns:xlink="http://www.w3.org/1999/xlink" x="0px" y="0px"
	 width="60px" height="60px" viewBox="0 0 60 60" enable-background="new 0 0 60 60" xml:space="preserve">
<g>
	<path fill="#010101" d="M14,6c-3.86,0-7,3.141-7,7c0,3.859,3.14,7,7,7c3.86,0,7-3.141,7-7C21,9.141,17.86,6,14,6z"/>
	<path fill="#010101" d="M7,30H0v21c0,4.963,4.038,9,9,9h1V33C10,31.346,8.654,30,7,30z"/>
	<path fill="#010101" d="M55,6H31c-0.552,0-1,0.447-1,1v9h-2V9c0-4.963-4.038-9-9-9H9C4.038,0,0,4.037,0,9v19h7c2.757,0,5,2.243,5,5
		v27h9c0.552,0,1-0.447,1-1V30h5c0.552,0,1-0.447,1-1V18h2v7c0,0.553,0.448,1,1,1h24c2.757,0,5-2.243,5-5V11C60,8.243,57.757,6,55,6
		z M14,22c-4.962,0-9-4.037-9-9c0-4.963,4.038-9,9-9c4.962,0,9,4.037,9,9C23,17.963,18.962,22,14,22z"/>
</g>
</svg>
