<?xml version="1.0" encoding="utf-8"?>
<!-- Generator: Adobe Illustrator 17.0.0, SVG Export Plug-In . SVG Version: 6.00 Build 0)  -->
<!DOCTYPE svg PUBLIC "-//W3C//DTD SVG 1.1//EN" "http://www.w3.org/Graphics/SVG/1.1/DTD/svg11.dtd">
<svg version="1.1" id="Layer_2" xmlns="http://www.w3.org/2000/svg" xmlns:xlink="http://www.w3.org/1999/xlink" x="0px" y="0px"
	 width="60px" height="60px" viewBox="0 0 60 60" enable-background="new 0 0 60 60" xml:space="preserve">
<g>
	<path fill="#010101" d="M2,10H0v40h2h56h2V10h-2H2z M30,45c-8.271,0-15-6.728-15-15c0-8.271,6.729-15,15-15s15,6.729,15,15
		C45,38.272,38.271,45,30,45z"/>
	<rect x="20" fill="#010101" width="20" height="8"/>
	<path fill="#010101" d="M18,8V0H1C0.448,0,0,0.447,0,1v7h1H18z"/>
	<path fill="#010101" d="M59,0H42v8h17h1V1C60,0.447,59.552,0,59,0z"/>
	<rect x="20" y="52" fill="#010101" width="20" height="8"/>
	<path fill="#010101" d="M0,52v7c0,0.553,0.448,1,1,1h17v-8H1H0z"/>
	<path fill="#010101" d="M42,52v8h17c0.552,0,1-0.447,1-1v-7h-1H42z"/>
	<path fill="#010101" d="M36.781,29.121l-9.305-5.044c-0.311-0.17-0.686-0.161-0.988,0.02C26.185,24.277,26,24.604,26,24.956v10.087
		c0,0.353,0.185,0.679,0.488,0.859c0.158,0.094,0.335,0.141,0.512,0.141c0.164,0,0.328-0.04,0.477-0.121l9.305-5.043
		c0.322-0.175,0.523-0.512,0.523-0.879C37.305,29.633,37.104,29.296,36.781,29.121z"/>
</g>
</svg>
