<?xml version="1.0" encoding="utf-8"?>
<!-- Generator: Adobe Illustrator 17.0.0, SVG Export Plug-In . SVG Version: 6.00 Build 0)  -->
<!DOCTYPE svg PUBLIC "-//W3C//DTD SVG 1.1//EN" "http://www.w3.org/Graphics/SVG/1.1/DTD/svg11.dtd">
<svg version="1.1" id="Layer_2" xmlns="http://www.w3.org/2000/svg" xmlns:xlink="http://www.w3.org/1999/xlink" x="0px" y="0px"
	 width="60px" height="60px" viewBox="0 0 60 60" enable-background="new 0 0 60 60" xml:space="preserve">
<g>
	<path fill="#010101" d="M2,17H0v26h2h56h2V17h-2H2z M37.963,31.353l-14.565,6.305c-0.127,0.055-0.263,0.082-0.397,0.082
		c-0.192,0-0.383-0.056-0.549-0.164C22.169,37.391,22,37.076,22,36.739V24.131c0-0.337,0.169-0.651,0.451-0.836
		c0.282-0.184,0.638-0.214,0.946-0.082l14.565,6.304c0.366,0.158,0.603,0.52,0.603,0.918C38.565,30.833,38.329,31.194,37.963,31.353
		z"/>
	<rect x="20" y="7" fill="#010101" width="20" height="8"/>
	<path fill="#010101" d="M59,7H42v8h17h1V8C60,7.447,59.552,7,59,7z"/>
	<path fill="#010101" d="M18,15V7H1C0.448,7,0,7.447,0,8v7h1H18z"/>
	<path fill="#010101" d="M0,45v7c0,0.553,0.448,1,1,1h17v-8H1H0z"/>
	<rect x="20" y="45" fill="#010101" width="20" height="8"/>
	<path fill="#010101" d="M42,45v8h17c0.552,0,1-0.447,1-1v-7h-1H42z"/>
</g>
</svg>
