<?xml version="1.0" encoding="utf-8"?>
<!-- Generator: Adobe Illustrator 17.0.0, SVG Export Plug-In . SVG Version: 6.00 Build 0)  -->
<!DOCTYPE svg PUBLIC "-//W3C//DTD SVG 1.1//EN" "http://www.w3.org/Graphics/SVG/1.1/DTD/svg11.dtd">
<svg version="1.1" id="Layer_2" xmlns="http://www.w3.org/2000/svg" xmlns:xlink="http://www.w3.org/1999/xlink" x="0px" y="0px"
	 width="60px" height="60px" viewBox="0 0 60 60" enable-background="new 0 0 60 60" xml:space="preserve">
<g>
	<path fill="#010101" d="M0,53.426C0,55.893,2.065,57.944,4.625,58h50.761h0.011C57.935,57.944,60,55.892,60,53.426V20H0V53.426z
		 M20,29.218c0-0.346,0.179-0.667,0.473-0.85c0.294-0.182,0.661-0.201,0.972-0.046l20.348,10.087
		c0.34,0.168,0.556,0.516,0.556,0.896c0,0.38-0.215,0.728-0.556,0.896L21.444,50.287c-0.141,0.07-0.292,0.104-0.444,0.104
		c-0.184,0-0.366-0.051-0.527-0.15C20.179,50.059,20,49.737,20,49.392V29.218z"/>
	<polygon fill="#010101" points="49.302,18 60,18 60,6.544 	"/>
	<polygon fill="#010101" points="15.569,18 30.68,2 23.431,2 8.32,18 	"/>
	<path fill="#010101" d="M46.565,18L59.437,4.216C58.849,3.004,57.825,2,56.478,2h-2.048L39.32,18H46.565z"/>
	<polygon fill="#010101" points="36.569,18 51.68,2 44.431,2 29.32,18 	"/>
	<polygon fill="#010101" points="20.68,2 13.435,2 0,16.394 0,18 5.569,18 	"/>
	<path fill="#010101" d="M3.521,2C1.34,2,0,4.635,0,6.523v6.939L10.699,2H3.521z"/>
	<polygon fill="#010101" points="26.569,18 41.68,2 33.431,2 18.32,18 	"/>
</g>
</svg>
