<?xml version="1.0" encoding="utf-8"?>
<!-- Generator: Adobe Illustrator 17.0.0, SVG Export Plug-In . SVG Version: 6.00 Build 0)  -->
<!DOCTYPE svg PUBLIC "-//W3C//DTD SVG 1.1//EN" "http://www.w3.org/Graphics/SVG/1.1/DTD/svg11.dtd">
<svg version="1.1" id="Layer_2" xmlns="http://www.w3.org/2000/svg" xmlns:xlink="http://www.w3.org/1999/xlink" x="0px" y="0px"
	 width="60px" height="60px" viewBox="0 0 60 60" enable-background="new 0 0 60 60" xml:space="preserve">
<g>
	<path fill="#010101" d="M5.656,0.245C5.36-0.011,4.941-0.073,4.585,0.09C4.229,0.253,4,0.609,4,1v58
		c0,0.392,0.229,0.747,0.585,0.91C4.718,59.971,4.859,60,5,60c0.236,0,0.471-0.084,0.656-0.245l33.348-29
		c0.218-0.19,0.344-0.466,0.344-0.755c0-0.289-0.125-0.565-0.344-0.755L5.656,0.245z"/>
	<path fill="#010101" d="M55,0H45c-0.552,0-1,0.447-1,1v58c0,0.553,0.448,1,1,1h10c0.552,0,1-0.447,1-1V1C56,0.448,55.552,0,55,0z"
		/>
</g>
</svg>
