<?xml version="1.0" encoding="utf-8"?>
<!-- Generator: Adobe Illustrator 17.0.0, SVG Export Plug-In . SVG Version: 6.00 Build 0)  -->
<!DOCTYPE svg PUBLIC "-//W3C//DTD SVG 1.1//EN" "http://www.w3.org/Graphics/SVG/1.1/DTD/svg11.dtd">
<svg version="1.1" id="Layer_2" xmlns="http://www.w3.org/2000/svg" xmlns:xlink="http://www.w3.org/1999/xlink" x="0px" y="0px"
	 width="60px" height="60px" viewBox="0 0 60 60" enable-background="new 0 0 60 60" xml:space="preserve">
<g>
	<path fill="#010101" d="M56.404,0.085c-0.363-0.158-0.785-0.091-1.078,0.177l-31.783,29c-0.208,0.19-0.326,0.457-0.326,0.738
		c0,0.281,0.118,0.549,0.326,0.738l31.783,29C55.514,59.91,55.755,60,56,60c0.137,0,0.274-0.028,0.404-0.085
		C56.766,59.755,57,59.397,57,59V1C57,0.604,56.766,0.245,56.404,0.085z"/>
	<path fill="#010101" d="M16,0H6C5.448,0,5,0.447,5,1v58c0,0.553,0.448,1,1,1h10c0.552,0,1-0.447,1-1V1C17,0.447,16.552,0,16,0z"/>
</g>
</svg>
