<?xml version="1.0" encoding="utf-8"?>
<!-- Generator: Adobe Illustrator 17.0.0, SVG Export Plug-In . SVG Version: 6.00 Build 0)  -->
<!DOCTYPE svg PUBLIC "-//W3C//DTD SVG 1.1//EN" "http://www.w3.org/Graphics/SVG/1.1/DTD/svg11.dtd">
<svg version="1.1" id="Layer_2" xmlns="http://www.w3.org/2000/svg" xmlns:xlink="http://www.w3.org/1999/xlink" x="0px" y="0px"
	 width="60px" height="60px" viewBox="0 0 60 60" enable-background="new 0 0 60 60" xml:space="preserve">
<g>
	<polygon fill="#010101" points="47.797,17 34.453,17 29.203,23 42.547,23 	"/>
	<polygon fill="#010101" points="13.203,23 26.547,23 31.797,17 18.453,17 	"/>
	<polygon fill="#010101" points="15.796,17 0,17 0,23 10.547,23 	"/>
	<path fill="#010101" d="M0,52c0,0.553,0.448,1,1,1h58c0.552,0,1-0.447,1-1V25H0V52z M30,33.218c0-0.553,0.448-1,1-1
		c0.552,0,1,0.447,1,1v5.043c0,0.553-0.448,1-1,1c-0.552,0-1-0.447-1-1V33.218z M8.565,43h42.869c0.552,0,1,0.447,1,1
		c0,0.553-0.448,1-1,1H8.565c-0.552,0-1-0.447-1-1C7.565,43.447,8.013,43,8.565,43z"/>
	<path fill="#010101" d="M59,7H43.245l7.2,8H60V8C60,7.447,59.552,7,59,7z"/>
	<polygon fill="#010101" points="45.203,23 60,23 60,17 50.453,17 	"/>
	<polygon fill="#010101" points="47.754,15 40.555,7 27.245,7 34.445,15 	"/>
	<path fill="#010101" d="M8.755,7.167C8.71,7.117,8.69,7.056,8.657,7H1C0.448,7,0,7.447,0,8v7h15.763L8.755,7.167z"/>
	<polygon fill="#010101" points="31.754,15 24.555,7 11.289,7 18.447,15 	"/>
</g>
</svg>
