<?xml version="1.0" encoding="utf-8"?>
<!-- Generator: Adobe Illustrator 17.0.0, SVG Export Plug-In . SVG Version: 6.00 Build 0)  -->
<!DOCTYPE svg PUBLIC "-//W3C//DTD SVG 1.1//EN" "http://www.w3.org/Graphics/SVG/1.1/DTD/svg11.dtd">
<svg version="1.1" id="Layer_2" xmlns="http://www.w3.org/2000/svg" xmlns:xlink="http://www.w3.org/1999/xlink" x="0px" y="0px"
	 width="60px" height="60px" viewBox="0 0 60 60" enable-background="new 0 0 60 60" xml:space="preserve">
<path fill="#010101" d="M53,17H41.894c-0.477-2.451-2.641-4.678-5.322-6.158l8.135-8.135c0.391-0.391,0.391-1.023,0-1.414
	c-0.391-0.391-1.023-0.391-1.414,0l-8.649,8.65C33.104,9.348,31.496,9,30,9c-1.496,0-3.104,0.348-4.644,0.943l-8.649-8.65
	c-0.391-0.391-1.023-0.391-1.414,0c-0.391,0.391-0.391,1.023,0,1.414l8.135,8.135c-2.681,1.48-4.845,3.707-5.322,6.158H7
	c-3.86,0-7,3.141-7,7v28c0,3.859,3.14,7,7,7h46c3.86,0,7-3.141,7-7V24C60,20.141,56.86,17,53,17z M42,48c0,1.169-0.696,7-14.435,7
	H20C7.819,55,6,50.397,6,47.652V27.479C6,21,16.537,21,20,21h7.565C37.144,21,42,23.297,42,27.826V48z M50,48c-2.757,0-5-2.243-5-5
	c0-2.757,2.243-5,5-5c2.757,0,5,2.243,5,5C55,45.757,52.757,48,50,48z M50,34c-2.757,0-5-2.243-5-5c0-2.757,2.243-5,5-5
	c2.757,0,5,2.243,5,5C55,31.757,52.757,34,50,34z"/>
</svg>
