<?xml version="1.0" encoding="utf-8"?>
<!-- Generator: Adobe Illustrator 17.0.0, SVG Export Plug-In . SVG Version: 6.00 Build 0)  -->
<!DOCTYPE svg PUBLIC "-//W3C//DTD SVG 1.1//EN" "http://www.w3.org/Graphics/SVG/1.1/DTD/svg11.dtd">
<svg version="1.1" id="Layer_2" xmlns="http://www.w3.org/2000/svg" xmlns:xlink="http://www.w3.org/1999/xlink" x="0px" y="0px"
	 width="60px" height="60px" viewBox="0 0 60 60" enable-background="new 0 0 60 60" xml:space="preserve">
<g>
	<circle fill="#010101" cx="33" cy="35" r="3"/>
	<circle fill="#010101" cx="14" cy="35" r="3"/>
	<path fill="#010101" d="M58.949,25.334c-0.657-0.436-1.485-0.518-2.214-0.213L44,30.437V26c0-1.811-1.784-4-4-4v-6.826
		C40,14.204,40.733,14,41.348,14h3.863c0.556,1.359,2.212,2,3.789,2h7c1.927,0,4-0.938,4-3c0-1.368-0.694-3-4-3h-7.087
		c-2.504,0-3.439,1.017-3.76,2h-3.806C39.376,12,38,13.305,38,15.174V22h-8v-4c0-0.061-0.006-0.123-0.017-0.184
		c-0.352-1.879-2.083-3.587-3.859-3.809C26.083,14.003,26.042,14,26,14H1c-0.552,0-1,0.447-1,1c0,0.553,0.448,1,1,1h24.929
		c0.874,0.144,1.847,1.135,2.071,2.103V22H6.127C4.248,21.718,2,23.293,2,26v20c0,2.542,1.474,4,4.043,4H40c2.168,0,4-1.832,4-4
		v-5.72l12.734,5.294c0.292,0.122,0.601,0.183,0.908,0.183c0.458,0,0.913-0.135,1.308-0.396c0.657-0.439,1.05-1.173,1.05-1.962
		V27.297C60,26.509,59.608,25.776,58.949,25.334z M33,40c-2.757,0-5-2.243-5-5c0-1.13,0.391-2.162,1.026-3H17.974
		C18.609,32.838,19,33.87,19,35c0,2.757-2.243,5-5,5s-5-2.243-5-5c0-2.757,2.243-5,5-5h19c2.757,0,5,2.243,5,5
		C38,37.757,35.757,40,33,40z"/>
</g>
</svg>
