<?xml version="1.0" encoding="utf-8"?>
<!-- Generator: Adobe Illustrator 17.0.0, SVG Export Plug-In . SVG Version: 6.00 Build 0)  -->
<!DOCTYPE svg PUBLIC "-//W3C//DTD SVG 1.1//EN" "http://www.w3.org/Graphics/SVG/1.1/DTD/svg11.dtd">
<svg version="1.1" id="Layer_2" xmlns="http://www.w3.org/2000/svg" xmlns:xlink="http://www.w3.org/1999/xlink" x="0px" y="0px"
	 width="60px" height="60px" viewBox="0 0 60 60" enable-background="new 0 0 60 60" xml:space="preserve">
<g>
	<path fill="#010101" d="M59.012,32.285c-0.627-0.417-1.445-0.467-2.243-0.135L44,37.469V31c0-1.654-1.346-3-3-3H5
		c-1.654,0-3,1.346-3,3v22c0,1.654,1.346,3,3,3h36c1.654,0,3-1.346,3-3v-5.702l12.769,5.333c0.35,0.146,0.703,0.219,1.043,0.219
		c0.435,0,0.848-0.119,1.2-0.354C59.64,52.078,60,51.343,60,50.479V34.305C60,33.44,59.64,32.704,59.012,32.285z M36.304,38H11.087
		c-0.552,0-1-0.447-1-1c0-0.553,0.448-1,1-1h25.217c0.552,0,1,0.447,1,1C37.304,37.553,36.856,38,36.304,38z"/>
	<path fill="#010101" d="M11,26c6.065,0,11-4.935,11-11c0-6.065-4.935-11-11-11S0,8.935,0,15C0,21.065,4.935,26,11,26z"/>
	<path fill="#010101" d="M33,26c3.86,0,7-3.141,7-7c0-3.859-3.14-7-7-7c-3.86,0-7,3.141-7,7C26,22.859,29.14,26,33,26z"/>
</g>
</svg>
