<?xml version="1.0" encoding="utf-8"?>
<!-- Generator: Adobe Illustrator 17.0.0, SVG Export Plug-In . SVG Version: 6.00 Build 0)  -->
<!DOCTYPE svg PUBLIC "-//W3C//DTD SVG 1.1//EN" "http://www.w3.org/Graphics/SVG/1.1/DTD/svg11.dtd">
<svg version="1.1" id="Layer_1" xmlns="http://www.w3.org/2000/svg" xmlns:xlink="http://www.w3.org/1999/xlink" x="0px" y="0px"
	 width="48px" height="48px" viewBox="0 0 48 48" enable-background="new 0 0 48 48" xml:space="preserve">
<g>
	<path fill="#231F20" d="M39,16H1c-0.552,0-1,0.448-1,1v30c0,0.552,0.448,1,1,1h38c0.552,0,1-0.448,1-1V17
		C40,16.448,39.552,16,39,16z M38,46H2V18h36V46z"/>
	<path fill="#231F20" d="M11,14c0.552,0,1-0.448,1-1v-3c0-4.411,3.589-8,8-8s8,3.589,8,8v3c0,0.552,0.448,1,1,1s1-0.448,1-1v-3
		c0-5.514-4.486-10-10-10S10,4.486,10,10v3C10,13.552,10.448,14,11,14z"/>
	<path fill="#231F20" d="M45.021,6.222l-4.242-4.243c-0.187-0.188-0.442-0.293-0.707-0.293c-0.265,0-0.519,0.105-0.707,0.293
		l-7.072,7.072C32.105,9.238,32,9.493,32,9.758V14c0,0.552,0.448,1,1,1h4.244c0.265,0,0.52-0.105,0.707-0.293l7.07-7.071
		C45.412,7.245,45.412,6.613,45.021,6.222z M36.83,13H34v-2.828L40.072,4.1L42.9,6.929L36.83,13z"/>
</g>
<g id="nyt_x5F_exporter_x5F_info" display="none">
</g>
</svg>
