<?xml version="1.0" encoding="utf-8"?>
<!-- Generator: Adobe Illustrator 17.0.0, SVG Export Plug-In . SVG Version: 6.00 Build 0)  -->
<!DOCTYPE svg PUBLIC "-//W3C//DTD SVG 1.1//EN" "http://www.w3.org/Graphics/SVG/1.1/DTD/svg11.dtd">
<svg version="1.1" id="Layer_1" xmlns="http://www.w3.org/2000/svg" xmlns:xlink="http://www.w3.org/1999/xlink" x="0px" y="0px"
	 width="48px" height="48px" viewBox="0 0 48 48" enable-background="new 0 0 48 48" xml:space="preserve">
<g>
	<path fill="#231F20" d="M4.247,20h33.507l-0.844,3.795l1.953,0.434L39.802,20H41c0.553,0,1-0.448,1-1v-4c0-0.552-0.447-1-1-1H1
		c-0.553,0-1,0.448-1,1v4c0,0.552,0.447,1,1,1h1.197l3.826,17.217C6.126,37.674,6.531,38,7,38h16v-2H7.802L4.247,20z M2,16h38v2h-1
		H3H2V16z"/>
	<path fill="#231F20" d="M7.001,12c0.226,0,0.452-0.076,0.639-0.232l12-10c0.424-0.353,0.482-0.984,0.128-1.408
		c-0.353-0.424-0.982-0.482-1.409-0.128l-12,10c-0.424,0.353-0.481,0.984-0.128,1.408C6.43,11.877,6.714,12,7.001,12z"/>
	<path fill="#231F20" d="M34.359,11.768C34.547,11.924,34.773,12,34.999,12c0.287,0,0.571-0.123,0.769-0.36
		c0.353-0.424,0.296-1.055-0.128-1.408l-12-10c-0.426-0.354-1.055-0.296-1.409,0.128s-0.296,1.054,0.128,1.408L34.359,11.768z"/>
	<path fill="#231F20" d="M37,26c-6.065,0-11,4.935-11,11s4.935,11,11,11s11-4.935,11-11S43.065,26,37,26z M37,46
		c-4.963,0-9-4.038-9-9s4.037-9,9-9s9,4.038,9,9S41.963,46,37,46z"/>
	<path fill="#231F20" d="M42.002,36H38v-4c0-0.552-0.447-1-1-1s-1,0.448-1,1v4h-3.998c-0.553,0-1,0.448-1,1s0.447,1,1,1H36v4
		c0,0.552,0.447,1,1,1s1-0.448,1-1v-4h4.002c0.553,0,1-0.448,1-1S42.555,36,42.002,36z"/>
</g>
</svg>
