<?xml version="1.0" encoding="utf-8"?>
<!-- Generator: Adobe Illustrator 17.0.0, SVG Export Plug-In . SVG Version: 6.00 Build 0)  -->
<!DOCTYPE svg PUBLIC "-//W3C//DTD SVG 1.1//EN" "http://www.w3.org/Graphics/SVG/1.1/DTD/svg11.dtd">
<svg version="1.1" id="Layer_1" xmlns="http://www.w3.org/2000/svg" xmlns:xlink="http://www.w3.org/1999/xlink" x="0px" y="0px"
	 width="48px" height="48px" viewBox="0 0 48 48" enable-background="new 0 0 48 48" xml:space="preserve">
<g>
	<path fill="#231F20" d="M47,20h-1.198l-1.656-7.455c-1.319-5.937-6.323-10.151-12.319-10.51C31.422,0.856,30.315,0,29,0H19
		c-1.315,0-2.422,0.856-2.827,2.035c-5.995,0.358-11,4.573-12.32,10.51L2.198,20H1c-0.553,0-1,0.448-1,1v4c0,0.552,0.447,1,1,1
		h1.166l3.851,21.179C6.102,47.654,6.517,48,7,48h34c0.483,0,0.897-0.346,0.984-0.822L45.835,26H47c0.553,0,1-0.448,1-1v-4
		C48,20.448,47.553,20,47,20z M19,2h10c0.552,0,1,0.449,1,1s-0.448,1-1,1H19c-0.552,0-1-0.449-1-1S18.448,2,19,2z M5.806,12.979
		c1.116-5.022,5.328-8.599,10.389-8.945C16.619,5.178,17.711,6,19,6h10c1.289,0,2.381-0.822,2.805-1.966
		c5.061,0.346,9.273,3.922,10.389,8.945L43.754,20H4.246L5.806,12.979z M40.165,46H7.835L4.198,26h39.604L40.165,46z M46,24h-1H3H2
		v-2h1h42h1V24z"/>
	<path fill="#231F20" d="M29,42c0.553,0,1-0.448,1-1V29c0-0.552-0.447-1-1-1s-1,0.448-1,1v12C28,41.552,28.447,42,29,42z"/>
	<path fill="#231F20" d="M37,42c0.553,0,1-0.448,1-1V29c0-0.552-0.447-1-1-1s-1,0.448-1,1v12C36,41.552,36.447,42,37,42z"/>
	<path fill="#231F20" d="M19,42c0.553,0,1-0.448,1-1V29c0-0.552-0.447-1-1-1s-1,0.448-1,1v12C18,41.552,18.447,42,19,42z"/>
	<path fill="#231F20" d="M11,42c0.553,0,1-0.448,1-1V29c0-0.552-0.447-1-1-1s-1,0.448-1,1v12C10,41.552,10.447,42,11,42z"/>
</g>
</svg>
