<?xml version="1.0" encoding="utf-8"?>
<!-- Generator: Adobe Illustrator 17.0.0, SVG Export Plug-In . SVG Version: 6.00 Build 0)  -->
<!DOCTYPE svg PUBLIC "-//W3C//DTD SVG 1.1//EN" "http://www.w3.org/Graphics/SVG/1.1/DTD/svg11.dtd">
<svg version="1.1" id="Layer_1" xmlns="http://www.w3.org/2000/svg" xmlns:xlink="http://www.w3.org/1999/xlink" x="0px" y="0px"
	 width="48px" height="48px" viewBox="0 0 48 48" enable-background="new 0 0 48 48" xml:space="preserve">
<path fill="#231F20" d="M43,12h-9v-1c0-3.86-3.14-7-7-7h-6c-3.86,0-7,3.14-7,7v1H5c-2.757,0-5,2.243-5,5v16c0,0.552,0.448,1,1,1h1
	v11c0,0.552,0.448,1,1,1h42c0.552,0,1-0.448,1-1V34h1c0.552,0,1-0.448,1-1V17C48,14.243,45.757,12,43,12z M16,11
	c0-2.757,2.243-5,5-5h6c2.757,0,5,2.243,5,5v1H16V11z M4,44V34h14v1c0,0.552,0.448,1,1,1h10c0.552,0,1-0.448,1-1v-1h14v10H4z M28,34
	h-8v-4h8V34z M46,32h-1H30v-3c0-0.552-0.448-1-1-1H19c-0.552,0-1,0.448-1,1v3H3H2V17c0-1.654,1.346-3,3-3h10h18h10
	c1.654,0,3,1.346,3,3V32z"/>
<g id="nyt_x5F_exporter_x5F_info" display="none">
</g>
</svg>
