<?xml version="1.0" encoding="utf-8"?>
<!-- Generator: Adobe Illustrator 17.0.0, SVG Export Plug-In . SVG Version: 6.00 Build 0)  -->
<!DOCTYPE svg PUBLIC "-//W3C//DTD SVG 1.1//EN" "http://www.w3.org/Graphics/SVG/1.1/DTD/svg11.dtd">
<svg version="1.1" id="Layer_1" xmlns="http://www.w3.org/2000/svg" xmlns:xlink="http://www.w3.org/1999/xlink" x="0px" y="0px"
	 width="48px" height="48px" viewBox="0 0 48 48" enable-background="new 0 0 48 48" xml:space="preserve">
<g>
	<path fill="#231F20" d="M20.293,15.707c0.092,0.092,0.203,0.165,0.325,0.216C20.74,15.973,20.87,16,21,16s0.26-0.027,0.382-0.077
		c0.122-0.051,0.233-0.124,0.325-0.216l6-6c0.391-0.391,0.391-1.023,0-1.414c-0.391-0.391-1.023-0.391-1.414,0L22,12.586V1
		c0-0.552-0.448-1-1-1s-1,0.448-1,1v11.586l-4.293-4.293c-0.391-0.391-1.023-0.391-1.414,0c-0.391,0.391-0.391,1.023,0,1.414
		L20.293,15.707z"/>
	<path fill="#231F20" d="M47,6h-7c-0.464,0-0.867,0.319-0.974,0.771L36.384,18H1c-0.321,0-0.623,0.154-0.811,0.415
		c-0.188,0.261-0.24,0.596-0.138,0.901l6,18C6.187,37.725,6.569,38,7,38h24.679l-0.471,2H10c-2.206,0-4,1.794-4,4s1.794,4,4,4
		s4-1.794,4-4c0-0.732-0.212-1.409-0.556-2h15.112C28.212,42.591,28,43.268,28,44c0,2.206,1.794,4,4,4s4-1.794,4-4
		c0-1.78-1.176-3.274-2.786-3.791L40.792,8H47c0.552,0,1-0.448,1-1S47.552,6,47,6z M7.72,36L2.387,20h33.526l-3.764,16H7.72z M12,44
		c0,1.103-0.897,2-2,2s-2-0.897-2-2s0.897-2,2-2S12,42.897,12,44z M34,44c0,1.103-0.897,2-2,2s-2-0.897-2-2s0.897-2,2-2
		S34,42.897,34,44z"/>
</g>
<g id="nyt_x5F_exporter_x5F_info" display="none">
</g>
</svg>
