<?xml version="1.0" encoding="utf-8"?>
<!-- Generator: Adobe Illustrator 17.0.0, SVG Export Plug-In . SVG Version: 6.00 Build 0)  -->
<!DOCTYPE svg PUBLIC "-//W3C//DTD SVG 1.1//EN" "http://www.w3.org/Graphics/SVG/1.1/DTD/svg11.dtd">
<svg version="1.1" id="Layer_1" xmlns="http://www.w3.org/2000/svg" xmlns:xlink="http://www.w3.org/1999/xlink" x="0px" y="0px"
	 width="48px" height="48px" viewBox="0 0 48 48" enable-background="new 0 0 48 48" xml:space="preserve">
<g>
	<path fill="#231F20" d="M47,8h-5.118c-1.005,0-1.859,0.752-1.985,1.752l-0.671,5.372C39.164,15.624,38.737,16,38.234,16H4
		c-1.266,0-2.471,0.609-3.224,1.631c-0.751,1.023-0.972,2.355-0.594,3.561l3.125,9.999C3.831,32.871,5.365,34,7.125,34H36
		c0.551,0,1,0.449,1,1s-0.449,1-1,1H8c-0.552,0-1,0.448-1,1s0.448,1,1,1h28c1.654,0,3-1.346,3-3s-1.346-3-3-3H7.125
		c-0.88,0-1.647-0.564-1.909-1.405L2.091,20.594c-0.189-0.603-0.078-1.268,0.296-1.778C2.764,18.305,3.367,18,4,18h34.234
		c1.51,0,2.789-1.129,2.977-2.627L41.883,10H47c0.552,0,1-0.448,1-1S47.552,8,47,8z"/>
	<path fill="#231F20" d="M38.006,20.89l-1,9c-0.061,0.549,0.334,1.043,0.883,1.104C37.927,30.998,37.964,31,38.001,31
		c0.503,0,0.936-0.378,0.992-0.889l1-9c0.061-0.549-0.334-1.043-0.883-1.104C38.565,19.943,38.067,20.341,38.006,20.89z"/>
	<path fill="#231F20" d="M12,40c-2.206,0-4,1.794-4,4s1.794,4,4,4s4-1.794,4-4S14.206,40,12,40z M12,46c-1.103,0-2-0.897-2-2
		s0.897-2,2-2s2,0.897,2,2S13.103,46,12,46z"/>
	<path fill="#231F20" d="M34,40c-2.206,0-4,1.794-4,4s1.794,4,4,4s4-1.794,4-4S36.206,40,34,40z M34,46c-1.103,0-2-0.897-2-2
		s0.897-2,2-2s2,0.897,2,2S35.103,46,34,46z"/>
</g>
<g id="nyt_x5F_exporter_x5F_info" display="none">
</g>
</svg>
