<?xml version="1.0" encoding="utf-8"?>
<!-- Generator: Adobe Illustrator 17.0.0, SVG Export Plug-In . SVG Version: 6.00 Build 0)  -->
<!DOCTYPE svg PUBLIC "-//W3C//DTD SVG 1.1//EN" "http://www.w3.org/Graphics/SVG/1.1/DTD/svg11.dtd">
<svg version="1.1" id="Layer_1" xmlns="http://www.w3.org/2000/svg" xmlns:xlink="http://www.w3.org/1999/xlink" x="0px" y="0px"
	 width="48px" height="48px" viewBox="0 0 48 48" enable-background="new 0 0 48 48" xml:space="preserve">
<g>
	<path fill="#231F20" d="M22,36h-1c-0.553,0-1,0.448-1,1s0.447,1,1,1h1c0.553,0,1-0.448,1-1S22.553,36,22,36z"/>
	<path fill="#231F20" d="M41.636,36h-2.182c-0.553,0-1,0.448-1,1s0.447,1,1,1h2.182c0.552,0,1-0.448,1-1S42.189,36,41.636,36z"/>
	<path fill="#231F20" d="M35.091,36h-2.182c-0.553,0-1,0.448-1,1s0.447,1,1,1h2.182c0.553,0,1-0.448,1-1S35.644,36,35.091,36z"/>
	<path fill="#231F20" d="M28.545,36h-2.182c-0.553,0-1,0.448-1,1s0.447,1,1,1h2.182c0.553,0,1-0.448,1-1S29.098,36,28.545,36z"/>
	<path fill="#231F20" d="M47,36h-1c-0.553,0-1,0.448-1,1s0.447,1,1,1h1c0.553,0,1-0.448,1-1S47.553,36,47,36z"/>
	<path fill="#231F20" d="M21.123,33.699c0.196,0.2,0.455,0.301,0.715,0.301c0.252,0,0.505-0.095,0.699-0.285
		c0.395-0.386,0.403-1.019,0.016-1.414c-1.322-1.352-2.518-2.853-3.569-4.456l15.653,6.087c0.513,0.199,1.095-0.055,1.294-0.57
		c0.201-0.514-0.054-1.094-0.569-1.294l-15.619-6.074l27.623-10.887c0.373-0.147,0.622-0.502,0.634-0.903
		c0.011-0.4-0.219-0.769-0.583-0.936C44.141,11.763,40.636,11,37,11c-8.416,0-15.701,5.572-20.202,12.917
		C15.008,20.088,14,15.945,14,12c0-3.86-3.141-7-7-7s-7,3.14-7,7s3.141,7,7,7c2.162,0,4.098-0.986,5.383-2.532
		c0.543,3.253,1.654,6.513,3.229,9.548c-1.573,3.03-2.677,6.283-3.222,9.524C11.105,33.989,9.166,33,7,33c-3.859,0-7,3.14-7,7
		s3.141,7,7,7s7-3.14,7-7c0-4.353,1.023-8.421,2.718-12.018C17.977,30.055,19.453,31.992,21.123,33.699z M37,13
		c2.507,0,4.946,0.394,7.28,1.175L18.851,24.196C23.428,17.359,30.533,13,37,13z M7,17c-2.757,0-5-2.243-5-5s2.243-5,5-5
		s5,2.243,5,5S9.757,17,7,17z M7,45c-2.757,0-5-2.243-5-5s2.243-5,5-5s5,2.243,5,5S9.757,45,7,45z"/>
</g>
<g id="nyt_x5F_exporter_x5F_info" display="none">
</g>
</svg>
