<?xml version="1.0" encoding="utf-8"?>
<!-- Generator: Adobe Illustrator 17.1.0, SVG Export Plug-In . SVG Version: 6.00 Build 0)  -->
<!DOCTYPE svg PUBLIC "-//W3C//DTD SVG 1.0//EN" "http://www.w3.org/TR/2001/REC-SVG-20010904/DTD/svg10.dtd">
<svg version="1.0" id="Layer_1" xmlns="http://www.w3.org/2000/svg" xmlns:xlink="http://www.w3.org/1999/xlink" x="0px" y="0px"
	 width="48px" height="48px" viewBox="0 0 48 48" enable-background="new 0 0 48 48" xml:space="preserve">
<g>
	<path d="M24,23C10.767,23,0,33.767,0,47v1h48v-1C48,33.767,37.233,23,24,23z M2.022,46C2.547,34.332,12.205,25,24,25
		c11.795,0,21.453,9.332,21.977,21H2.022z"/>
	<path d="M5.093,29.654C9.852,24.154,16.744,21,24,21c7.256,0,14.148,3.154,18.907,8.654C43.104,29.883,43.383,30,43.664,30
		c0.232,0,0.465-0.08,0.654-0.244c0.418-0.361,0.463-0.992,0.102-1.41c-3.625-4.19-8.399-7.111-13.647-8.474
		C31.527,19.144,32,18.128,32,17c0-2.206-1.794-4-4-4c-2.206,0-4,1.794-4,4c0,0.738,0.215,1.421,0.565,2.015
		C24.376,19.011,24.189,19,24,19c-0.189,0-0.376,0.011-0.565,0.015C23.785,18.421,24,17.738,24,17c0-2.206-1.795-4-4-4
		c-2.206,0-4,1.794-4,4c0,1.128,0.473,2.144,1.227,2.872c-5.248,1.362-10.021,4.284-13.647,8.474
		c-0.361,0.418-0.315,1.049,0.102,1.41C4.1,30.118,4.732,30.072,5.093,29.654z M28,15c1.103,0,2,0.898,2,2c0,1.103-0.897,2-2,2
		c-1.103,0-2-0.897-2-2C26,15.898,26.897,15,28,15z M20,15c1.103,0,2,0.898,2,2c0,1.103-0.897,2-2,2c-1.103,0-2-0.897-2-2
		C18,15.898,18.897,15,20,15z"/>
</g>
</svg>
