<?xml version="1.0" encoding="utf-8"?>
<!-- Generator: Adobe Illustrator 17.0.0, SVG Export Plug-In . SVG Version: 6.00 Build 0)  -->
<!DOCTYPE svg PUBLIC "-//W3C//DTD SVG 1.1//EN" "http://www.w3.org/Graphics/SVG/1.1/DTD/svg11.dtd">
<svg version="1.1" id="Layer_1" xmlns="http://www.w3.org/2000/svg" xmlns:xlink="http://www.w3.org/1999/xlink" x="0px" y="0px"
	 width="48px" height="48px" viewBox="0 0 48 48" enable-background="new 0 0 48 48" xml:space="preserve">
<g>
	<path fill="#231F20" d="M38,22.042V19c0-0.552-0.448-1-1-1s-1,0.448-1,1v5h1c5.215,0,9,4.206,9,10c0,5.514-4.486,10-10,10H12
		C6.486,44,2,39.514,2,34c0-5.794,3.785-10,9-10h1v-5c0-0.552-0.448-1-1-1s-1,0.448-1,1v3.042C4.148,22.542,0,27.416,0,34
		c0,6.617,5.383,12,12,12h24c6.617,0,12-5.383,12-12C48,27.416,43.852,22.542,38,22.042z"/>
	<path fill="#231F20" d="M7,19c0.552,0,1-0.448,1-1v-1c0-1.103,0.897-2,2-2h28c1.103,0,2,0.897,2,2v1c0,0.552,0.448,1,1,1
		s1-0.448,1-1v-1c0-2.206-1.794-4-4-4h-6.556C31.788,12.409,32,11.732,32,11c0-2.206-1.794-4-4-4s-4,1.794-4,4
		c0,0.732,0.212,1.409,0.556,2h-1.112C23.788,12.409,24,11.732,24,11c0-2.206-1.794-4-4-4s-4,1.794-4,4c0,0.732,0.212,1.409,0.556,2
		H10c-2.206,0-4,1.794-4,4v1C6,18.552,6.448,19,7,19z M26,11c0-1.103,0.897-2,2-2s2,0.897,2,2s-0.897,2-2,2S26,12.103,26,11z M18,11
		c0-1.103,0.897-2,2-2s2,0.897,2,2s-0.897,2-2,2S18,12.103,18,11z"/>
</g>
<g id="nyt_x5F_exporter_x5F_info" display="none">
</g>
</svg>
