<?xml version="1.0" encoding="utf-8"?>
<!-- Generator: Adobe Illustrator 17.0.0, SVG Export Plug-In . SVG Version: 6.00 Build 0)  -->
<!DOCTYPE svg PUBLIC "-//W3C//DTD SVG 1.1//EN" "http://www.w3.org/Graphics/SVG/1.1/DTD/svg11.dtd">
<svg version="1.1" id="Layer_1" xmlns="http://www.w3.org/2000/svg" xmlns:xlink="http://www.w3.org/1999/xlink" x="0px" y="0px"
	 width="48px" height="48px" viewBox="0 0 48 48" enable-background="new 0 0 48 48" xml:space="preserve">
<g>
	<path fill="#231F20" d="M43.95,0.976L43.927,0H16.99L17,1.01c0.002,0.222,0.188,21.844-1.828,32.99H6
		c-0.87,0-1.583,0.274-2.121,0.815c-1.163,1.171-1.149,3.244-1.133,5.438c0.014,1.963,0.03,4.189-0.921,5.146
		C1.424,45.804,0.827,46,0,46v2h24.951c1.368,0,2.46-0.401,3.244-1.19c0.729-0.735,1.102-1.725,1.297-2.81h7.459
		c0.802,0,1.539-0.339,2.192-1.008C44.653,37.348,44.038,4.682,43.95,0.976z M26.776,45.399C26.375,45.804,25.778,46,24.951,46
		H3.861c0.915-1.571,0.899-3.777,0.885-5.76c-0.011-1.61-0.024-3.434,0.553-4.015C5.395,36.128,5.572,36,6,36h10h0.819h11.292
		c-0.429,1.163-0.425,2.674-0.414,4.253C27.711,42.216,27.727,44.442,26.776,45.399z M29.697,40.24
		c-0.011-1.61-0.024-3.434,0.553-4.015C30.346,36.128,30.523,36,30.951,36c0.317,0,0.735,0.043,0.935,0.243
		c0.339,0.343,0.329,1.309,0.319,2.244c-0.012,1.163-0.016,2.444,0.554,3.513h-3.073C29.704,41.409,29.701,40.815,29.697,40.24z
		 M37.713,41.594C37.317,42,37.041,42,36.951,42c-1.058,0-1.796-0.204-2.194-0.605c-0.578-0.584-0.566-1.755-0.554-2.887
		c0.015-1.344,0.029-2.735-0.897-3.671C32.756,34.282,31.964,34,30.951,34v0H17.202c1.761-10.121,1.82-27.579,1.804-32h22.966
		C42.163,12.503,41.749,37.461,37.713,41.594z"/>
	<path fill="#231F20" d="M24,8h4c0.552,0,1-0.448,1-1s-0.448-1-1-1h-4c-0.552,0-1,0.448-1,1S23.448,8,24,8z"/>
	<path fill="#231F20" d="M37,10H26c-0.552,0-1,0.448-1,1s0.448,1,1,1h11c0.552,0,1-0.448,1-1S37.552,10,37,10z"/>
	<path fill="#231F20" d="M23,16h13c0.552,0,1-0.448,1-1s-0.448-1-1-1H23c-0.552,0-1,0.448-1,1S22.448,16,23,16z"/>
	<path fill="#231F20" d="M37,18H23c-0.552,0-1,0.448-1,1s0.448,1,1,1h14c0.552,0,1-0.448,1-1S37.552,18,37,18z"/>
	<path fill="#231F20" d="M35,24c0.552,0,1-0.448,1-1s-0.448-1-1-1H23c-0.552,0-1,0.448-1,1s0.448,1,1,1H35z"/>
	<path fill="#231F20" d="M22,28h14c0.552,0,1-0.448,1-1s-0.448-1-1-1H22c-0.552,0-1,0.448-1,1S21.448,28,22,28z"/>
	<path fill="#231F20" d="M37,30H21c-0.552,0-1,0.448-1,1s0.448,1,1,1h16c0.552,0,1-0.448,1-1S37.552,30,37,30z"/>
</g>
<g id="nyt_x5F_exporter_x5F_info" display="none">
</g>
</svg>
