<?xml version="1.0" encoding="utf-8"?>
<!-- Generator: Adobe Illustrator 17.0.0, SVG Export Plug-In . SVG Version: 6.00 Build 0)  -->
<!DOCTYPE svg PUBLIC "-//W3C//DTD SVG 1.1//EN" "http://www.w3.org/Graphics/SVG/1.1/DTD/svg11.dtd">
<svg version="1.1" id="Layer_1" xmlns="http://www.w3.org/2000/svg" xmlns:xlink="http://www.w3.org/1999/xlink" x="0px" y="0px"
	 width="48px" height="48px" viewBox="0 0 48 48" enable-background="new 0 0 48 48" xml:space="preserve">
<g>
	<path fill="#231F20" d="M41.383,0.076c-0.375-0.155-0.804-0.07-1.09,0.217L37,3.586l-3.293-3.293c-0.391-0.391-1.023-0.391-1.414,0
		L29,3.586l-3.293-3.293c-0.391-0.391-1.023-0.391-1.414,0L21,3.586l-3.293-3.293c-0.391-0.391-1.023-0.391-1.414,0L13,3.586
		L9.707,0.293C9.42,0.006,8.99-0.079,8.617,0.076C8.244,0.231,8,0.596,8,1v46c0,0.404,0.244,0.769,0.617,0.924
		c0.373,0.154,0.803,0.069,1.09-0.217L13,44.414l3.293,3.293c0.391,0.391,1.023,0.391,1.414,0L21,44.414l3.293,3.293
		c0.391,0.391,1.023,0.391,1.414,0L29,44.414l3.293,3.293c0.391,0.391,1.023,0.391,1.414,0L37,44.414l3.293,3.293
		C40.484,47.898,40.74,48,41,48c0.129,0,0.259-0.025,0.383-0.076C41.756,47.769,42,47.404,42,47V1
		C42,0.596,41.756,0.231,41.383,0.076z M40,44.586l-2.293-2.293c-0.391-0.391-1.023-0.391-1.414,0L33,45.586l-3.293-3.293
		C29.512,42.098,29.256,42,29,42s-0.512,0.098-0.707,0.293L25,45.586l-3.293-3.293c-0.391-0.391-1.023-0.391-1.414,0L17,45.586
		l-3.293-3.293c-0.391-0.391-1.023-0.391-1.414,0L10,44.586V3.414l2.293,2.293c0.391,0.391,1.023,0.391,1.414,0L17,2.414
		l3.293,3.293c0.391,0.391,1.023,0.391,1.414,0L25,2.414l3.293,3.293c0.391,0.391,1.023,0.391,1.414,0L33,2.414l3.293,3.293
		c0.391,0.391,1.023,0.391,1.414,0L40,3.414V44.586z"/>
	<path fill="#231F20" d="M27,12H15c-0.552,0-1,0.448-1,1s0.448,1,1,1h12c0.552,0,1-0.448,1-1S27.552,12,27,12z"/>
	<path fill="#231F20" d="M15,20h8c0.552,0,1-0.448,1-1s-0.448-1-1-1h-8c-0.552,0-1,0.448-1,1S14.448,20,15,20z"/>
	<path fill="#231F20" d="M25,24H15c-0.552,0-1,0.448-1,1s0.448,1,1,1h10c0.552,0,1-0.448,1-1S25.552,24,25,24z"/>
	<path fill="#231F20" d="M21,30h-6c-0.552,0-1,0.448-1,1s0.448,1,1,1h6c0.552,0,1-0.448,1-1S21.552,30,21,30z"/>
	<path fill="#231F20" d="M35,12h-2c-0.552,0-1,0.448-1,1s0.448,1,1,1h2c0.552,0,1-0.448,1-1S35.552,12,35,12z"/>
	<path fill="#231F20" d="M35,18h-2c-0.552,0-1,0.448-1,1s0.448,1,1,1h2c0.552,0,1-0.448,1-1S35.552,18,35,18z"/>
	<path fill="#231F20" d="M35,24h-2c-0.552,0-1,0.448-1,1s0.448,1,1,1h2c0.552,0,1-0.448,1-1S35.552,24,35,24z"/>
	<path fill="#231F20" d="M35,30h-2c-0.552,0-1,0.448-1,1s0.448,1,1,1h2c0.552,0,1-0.448,1-1S35.552,30,35,30z"/>
</g>
<g id="nyt_x5F_exporter_x5F_info" display="none">
</g>
</svg>
