<?xml version="1.0" encoding="utf-8"?>
<!-- Generator: Adobe Illustrator 17.0.0, SVG Export Plug-In . SVG Version: 6.00 Build 0)  -->
<!DOCTYPE svg PUBLIC "-//W3C//DTD SVG 1.1//EN" "http://www.w3.org/Graphics/SVG/1.1/DTD/svg11.dtd">
<svg version="1.1" id="Layer_1" xmlns="http://www.w3.org/2000/svg" xmlns:xlink="http://www.w3.org/1999/xlink" x="0px" y="0px"
	 width="48px" height="48px" viewBox="0 0 48 48" enable-background="new 0 0 48 48" xml:space="preserve">
<path fill="#231F20" d="M47,6h-6c-0.464,0-0.867,0.319-0.974,0.771L37.58,17.167l-6.873-6.873c-0.391-0.391-1.023-0.391-1.414,0
	L27.587,12H18c-0.552,0-1,0.448-1,1v5h-4.354L6.911,5.212c-0.11-0.245-0.314-0.436-0.567-0.529C6.092,4.591,5.813,4.604,5.569,4.719
	l-5,2.379c-0.492,0.234-0.706,0.819-0.48,1.316L4.446,18H2c-0.321,0-0.623,0.154-0.811,0.415c-0.188,0.261-0.24,0.596-0.138,0.901
	l6,18C7.187,37.725,7.569,38,8,38h24.679l-0.471,2H11c-2.206,0-4,1.794-4,4s1.794,4,4,4s4-1.794,4-4c0-0.732-0.212-1.409-0.556-2
	h15.112C29.212,42.591,29,43.268,29,44c0,2.206,1.794,4,4,4s4-1.794,4-4c0-1.78-1.176-3.274-2.786-3.791l0.64-2.719
	C34.938,37.342,35,37.181,35,37c0-0.025-0.013-0.046-0.014-0.071L41.792,8H47c0.552,0,1-0.448,1-1S47.552,6,47,6z M30,12.415
	L35.585,18h-11.17L30,12.415z M19,14h6.587l-4,4H19V14z M2.317,8.481l3.189-1.517L10.455,18H6.643L2.317,8.481z M8.72,36L3.387,20
	h2.639c0.001,0,0.002,0,0.003,0h5.965c0.002,0,0.005,0.001,0.007,0.001c0.002,0,0.003-0.001,0.005-0.001h9.989
	c0.004,0,0.008,0,0.013,0h14.907l-3.764,16H8.72z M13,44c0,1.103-0.897,2-2,2s-2-0.897-2-2s0.897-2,2-2S13,42.897,13,44z M35,44
	c0,1.103-0.897,2-2,2s-2-0.897-2-2s0.897-2,2-2S35,42.897,35,44z"/>
<g id="nyt_x5F_exporter_x5F_info" display="none">
</g>
</svg>
