<?xml version="1.0" encoding="utf-8"?>
<!-- Generator: Adobe Illustrator 17.0.0, SVG Export Plug-In . SVG Version: 6.00 Build 0)  -->
<!DOCTYPE svg PUBLIC "-//W3C//DTD SVG 1.1//EN" "http://www.w3.org/Graphics/SVG/1.1/DTD/svg11.dtd">
<svg version="1.1" id="Layer_1" xmlns="http://www.w3.org/2000/svg" xmlns:xlink="http://www.w3.org/1999/xlink" x="0px" y="0px"
	 width="48px" height="48px" viewBox="0 0 48 48" enable-background="new 0 0 48 48" xml:space="preserve">
<g>
	<path fill="#231F20" d="M14,22v5l-4.2-5.6c-0.259-0.344-0.706-0.485-1.116-0.349C8.275,21.188,8,21.569,8,22v8c0,0.552,0.447,1,1,1
		s1-0.448,1-1v-5l4.2,5.6c0.193,0.256,0.491,0.4,0.8,0.4c0.105,0,0.212-0.017,0.316-0.051C15.725,30.813,16,30.431,16,30v-8
		c0-0.552-0.447-1-1-1S14,21.448,14,22z"/>
	<path fill="#231F20" d="M23.82,23c0.553,0,1-0.448,1-1s-0.447-1-1-1H19c-0.553,0-1,0.448-1,1v8c0,0.552,0.447,1,1,1h5
		c0.553,0,1-0.448,1-1s-0.447-1-1-1h-4v-2h3c0.553,0,1-0.448,1-1s-0.447-1-1-1h-3v-2H23.82z"/>
	<path fill="#231F20" d="M38.063,21.649L36,27.152l-2.064-5.503C33.79,21.259,33.417,21,33,21s-0.79,0.259-0.937,0.649L30,27.152
		l-2.064-5.504c-0.194-0.518-0.77-0.776-1.288-0.585c-0.517,0.195-0.778,0.771-0.585,1.288l3,8C29.21,30.741,29.583,31,30,31
		s0.79-0.259,0.936-0.649L33,24.848l2.063,5.503C35.21,30.741,35.583,31,36,31s0.79-0.259,0.936-0.648l3-8
		c0.193-0.518-0.068-1.094-0.585-1.288C38.834,20.872,38.256,21.131,38.063,21.649z"/>
	<path fill="#231F20" d="M1,16h46c0.553,0,1-0.448,1-1s-0.447-1-1-1H1c-0.553,0-1,0.448-1,1S0.447,16,1,16z"/>
	<path fill="#231F20" d="M47,36H1c-0.553,0-1,0.448-1,1s0.447,1,1,1h46c0.553,0,1-0.448,1-1S47.553,36,47,36z"/>
</g>
<g id="nyt_x5F_exporter_x5F_info" display="none">
</g>
</svg>
