<?xml version="1.0" encoding="utf-8"?>
<!-- Generator: Adobe Illustrator 17.0.0, SVG Export Plug-In . SVG Version: 6.00 Build 0)  -->
<!DOCTYPE svg PUBLIC "-//W3C//DTD SVG 1.1//EN" "http://www.w3.org/Graphics/SVG/1.1/DTD/svg11.dtd">
<svg version="1.1" id="Layer_1" xmlns="http://www.w3.org/2000/svg" xmlns:xlink="http://www.w3.org/1999/xlink" x="0px" y="0px"
	 width="48px" height="48px" viewBox="0 0 48 48" enable-background="new 0 0 48 48" xml:space="preserve">
<g>
	<path fill="#231F20" d="M24,0C10.767,0,0,10.767,0,24s10.767,24,24,24c13.233,0,24-10.767,24-24S37.233,0,24,0z M24,46
		C11.869,46,2,36.131,2,24S11.869,2,24,2s22,9.869,22,22S36.131,46,24,46z"/>
	<path fill="#231F20" d="M24,6C14.075,6,6,14.075,6,24s8.075,18,18,18s18-8.075,18-18S33.925,6,24,6z M24,40
		c-8.822,0-16-7.178-16-16S15.178,8,24,8s16,7.178,16,16S32.822,40,24,40z"/>
	<path fill="#231F20" d="M30.312,14.066c-1.28-1.152-3.296-1.792-6.048-1.792c-2.208,0-4.031,0.192-5.376,0.416h0.001V34h2.816
		v-8.543c0.577,0.096,1.408,0.16,2.304,0.16c2.655,0,5.055-0.8,6.527-2.368c1.088-1.12,1.664-2.656,1.664-4.64
		C32.2,16.658,31.463,15.09,30.312,14.066z M24.008,23.377c-0.928,0-1.856-0.064-2.304-0.192v-8.512
		c0.479-0.096,1.376-0.192,2.624-0.192c3.071,0,5.087,1.376,5.087,4.288C29.415,21.713,27.367,23.377,24.008,23.377z"/>
</g>
<g id="nyt_x5F_exporter_x5F_info" display="none">
</g>
</svg>
