<?xml version="1.0" encoding="utf-8"?>
<!-- Generator: Adobe Illustrator 17.1.0, SVG Export Plug-In . SVG Version: 6.00 Build 0)  -->
<!DOCTYPE svg PUBLIC "-//W3C//DTD SVG 1.0//EN" "http://www.w3.org/TR/2001/REC-SVG-20010904/DTD/svg10.dtd">
<svg version="1.0" id="Layer_1" xmlns="http://www.w3.org/2000/svg" xmlns:xlink="http://www.w3.org/1999/xlink" x="0px" y="0px"
	 width="48px" height="48px" viewBox="0 0 48 48" enable-background="new 0 0 48 48" xml:space="preserve">
<g>
	<path d="M32,39c-2.206,0-4,1.794-4,4c0,2.206,1.794,4,4,4c2.206,0,4-1.794,4-4C36,40.794,34.206,39,32,39z M32,45
		c-1.103,0-2-0.897-2-2c0-1.102,0.897-2,2-2c1.103,0,2,0.898,2,2C34,44.103,33.103,45,32,45z"/>
	<path d="M10,39c-2.206,0-4,1.794-4,4c0,2.206,1.794,4,4,4c2.206,0,4-1.794,4-4C14,40.794,12.206,39,10,39z M10,45
		c-1.103,0-2-0.897-2-2c0-1.102,0.897-2,2-2s2,0.898,2,2C12,44.103,11.103,45,10,45z"/>
	<path d="M47,1h-3c-0.507,0-0.934,0.38-0.993,0.883L39.111,35H1c-0.552,0-1,0.447-1,1c0,0.553,0.448,1,1,1h39
		c0.507,0,0.934-0.38,0.993-0.883L44.889,3H47c0.552,0,1-0.447,1-1C48,1.447,47.552,1,47,1z"/>
	<path d="M7,33h24c2.757,0,5-2.243,5-5V16c0-2.757-2.243-5-5-5h-6V9c0-2.206-1.794-4-4-4h-4c-2.206,0-4,1.794-4,4v2H7
		c-2.757,0-5,2.243-5,5v12C2,30.757,4.243,33,7,33z M15,9c0-1.102,0.897-2,2-2h4c1.103,0,2,0.898,2,2v2h-8V9z M4,16
		c0-1.654,1.346-3,3-3h24c1.654,0,3,1.346,3,3v12c0,1.654-1.346,3-3,3H7c-1.654,0-3-1.346-3-3V16z"/>
	<path d="M9,19h20c0.552,0,1-0.447,1-1c0-0.553-0.448-1-1-1H9c-0.552,0-1,0.447-1,1C8,18.553,8.448,19,9,19z"/>
	<path d="M9,23h20c0.552,0,1-0.447,1-1c0-0.553-0.448-1-1-1H9c-0.552,0-1,0.447-1,1C8,22.553,8.448,23,9,23z"/>
	<path d="M9,27h20c0.552,0,1-0.447,1-1c0-0.553-0.448-1-1-1H9c-0.552,0-1,0.447-1,1C8,26.553,8.448,27,9,27z"/>
</g>
</svg>
