<?xml version="1.0" encoding="utf-8"?>
<!-- Generator: Adobe Illustrator 17.0.0, SVG Export Plug-In . SVG Version: 6.00 Build 0)  -->
<!DOCTYPE svg PUBLIC "-//W3C//DTD SVG 1.1//EN" "http://www.w3.org/Graphics/SVG/1.1/DTD/svg11.dtd">
<svg version="1.1" id="Layer_1" xmlns="http://www.w3.org/2000/svg" xmlns:xlink="http://www.w3.org/1999/xlink" x="0px" y="0px"
	 width="48px" height="48px" viewBox="0 0 48 48" enable-background="new 0 0 48 48" xml:space="preserve">
<g>
	<path fill="#231F20" d="M32,40c-2.206,0-4,1.794-4,4s1.794,4,4,4s4-1.794,4-4S34.206,40,32,40z M32,46c-1.103,0-2-0.897-2-2
		s0.897-2,2-2c1.102,0,2,0.897,2,2S33.102,46,32,46z"/>
	<path fill="#231F20" d="M10,40c-2.206,0-4,1.794-4,4s1.794,4,4,4s4-1.794,4-4S12.206,40,10,40z M10,46c-1.103,0-2-0.897-2-2
		s0.897-2,2-2c1.102,0,2,0.897,2,2S11.102,46,10,46z"/>
	<path fill="#231F20" d="M47,2h-3c-0.507,0-0.934,0.379-0.994,0.883L39.11,36H1c-0.553,0-1,0.448-1,1s0.447,1,1,1h39
		c0.507,0,0.934-0.379,0.994-0.883L44.89,4H47c0.553,0,1-0.448,1-1S47.553,2,47,2z"/>
	<path fill="#231F20" d="M3,34h18h14c0.553,0,1-0.448,1-1V11c0-0.552-0.447-1-1-1H21c-0.553,0-1,0.448-1,1v13h-2v-5
		c0-0.552-0.447-1-1-1H5c-0.553,0-1,0.448-1,1v5H3c-0.553,0-1,0.448-1,1v8C2,33.552,2.447,34,3,34z M22,12h12v20H22v-7V12z M6,20h10
		v4H6V20z M4,26h1h12h3v6H4V26z"/>
</g>
<g id="nyt_x5F_exporter_x5F_info" display="none">
</g>
</svg>
