<?xml version="1.0" encoding="utf-8"?>
<!-- Generator: Adobe Illustrator 17.0.0, SVG Export Plug-In . SVG Version: 6.00 Build 0)  -->
<!DOCTYPE svg PUBLIC "-//W3C//DTD SVG 1.1//EN" "http://www.w3.org/Graphics/SVG/1.1/DTD/svg11.dtd">
<svg version="1.1" id="Layer_1" xmlns="http://www.w3.org/2000/svg" xmlns:xlink="http://www.w3.org/1999/xlink" x="0px" y="0px"
	 width="48px" height="48px" viewBox="0 0 48 48" enable-background="new 0 0 48 48" xml:space="preserve">
<g>
	<path fill="#231F20" d="M44,22.05V18c0-3.874-2.769-7.112-6.431-7.843L35.724,2.77L8.866,10H5c-2.757,0-5,2.243-5,5v26
		c0,2.757,2.243,5,5,5h31c4.411,0,8-3.589,8-8v-4.05c2.241-0.25,4-2.249,4-4.7v-2.5C48,24.299,46.241,22.299,44,22.05z
		 M34.276,5.231L35.469,10H16.562L34.276,5.231z M36,44H5c-1.654,0-3-1.346-3-3V15c0-1.654,1.346-3,3-3h31c3.309,0,6,2.691,6,6v4
		h-6.537C33.002,22,31,24.131,31,26.75v2.5c0,2.619,2.002,4.75,4.463,4.75H42v4C42,41.309,39.309,44,36,44z M46,29.25
		c0,1.517-1.104,2.75-2.461,2.75h-8.076C34.104,32,33,30.767,33,29.25v-2.5c0-1.517,1.104-2.75,2.463-2.75h8.076
		C44.896,24,46,25.233,46,26.75V29.25z"/>
	<circle fill="#231F20" cx="37" cy="28" r="2"/>
	<path fill="#231F20" d="M7,14H5c-0.553,0-1,0.448-1,1s0.447,1,1,1h2c0.553,0,1-0.448,1-1S7.553,14,7,14z"/>
	<path fill="#231F20" d="M13,14h-2c-0.553,0-1,0.448-1,1s0.447,1,1,1h2c0.553,0,1-0.448,1-1S13.553,14,13,14z"/>
	<path fill="#231F20" d="M19,14h-2c-0.553,0-1,0.448-1,1s0.447,1,1,1h2c0.553,0,1-0.448,1-1S19.553,14,19,14z"/>
	<path fill="#231F20" d="M25,14h-2c-0.553,0-1,0.448-1,1s0.447,1,1,1h2c0.553,0,1-0.448,1-1S25.553,14,25,14z"/>
	<path fill="#231F20" d="M29,16h2c0.553,0,1-0.448,1-1s-0.447-1-1-1h-2c-0.553,0-1,0.448-1,1S28.447,16,29,16z"/>
	<path fill="#231F20" d="M35,16h2c0.553,0,1-0.448,1-1s-0.447-1-1-1h-2c-0.553,0-1,0.448-1,1S34.447,16,35,16z"/>
	<path fill="#231F20" d="M7,40H5c-0.553,0-1,0.448-1,1s0.447,1,1,1h2c0.553,0,1-0.448,1-1S7.553,40,7,40z"/>
	<path fill="#231F20" d="M13,40h-2c-0.553,0-1,0.448-1,1s0.447,1,1,1h2c0.553,0,1-0.448,1-1S13.553,40,13,40z"/>
	<path fill="#231F20" d="M19,40h-2c-0.553,0-1,0.448-1,1s0.447,1,1,1h2c0.553,0,1-0.448,1-1S19.553,40,19,40z"/>
	<path fill="#231F20" d="M25,40h-2c-0.553,0-1,0.448-1,1s0.447,1,1,1h2c0.553,0,1-0.448,1-1S25.553,40,25,40z"/>
	<path fill="#231F20" d="M31,40h-2c-0.553,0-1,0.448-1,1s0.447,1,1,1h2c0.553,0,1-0.448,1-1S31.553,40,31,40z"/>
	<path fill="#231F20" d="M37,40h-2c-0.553,0-1,0.448-1,1s0.447,1,1,1h2c0.553,0,1-0.448,1-1S37.553,40,37,40z"/>
</g>
<g id="nyt_x5F_exporter_x5F_info" display="none">
</g>
</svg>
