<?xml version="1.0" encoding="utf-8"?>
<!-- Generator: Adobe Illustrator 17.0.0, SVG Export Plug-In . SVG Version: 6.00 Build 0)  -->
<!DOCTYPE svg PUBLIC "-//W3C//DTD SVG 1.1//EN" "http://www.w3.org/Graphics/SVG/1.1/DTD/svg11.dtd">
<svg version="1.1" id="Layer_1" xmlns="http://www.w3.org/2000/svg" xmlns:xlink="http://www.w3.org/1999/xlink" x="0px" y="0px"
	 width="48px" height="48px" viewBox="0 0 48 48" enable-background="new 0 0 48 48" xml:space="preserve">
<g>
	<path fill="#231F20" d="M41,0H7C3.141,0,0,3.14,0,7v26c0,3.745,2.966,7.49,6.611,8.348l22.319,5.251
		c0.523,0.123,1.038,0.184,1.539,0.184c1.28,0,2.466-0.396,3.436-1.165C35.256,44.548,36,42.908,36,41v-5h5c3.859,0,7-3.14,7-7V7
		C48,3.14,44.859,0,41,0z M34,41c0,1.284-0.475,2.367-1.338,3.049c-0.86,0.683-2.025,0.899-3.274,0.603L7.07,39.4
		C4.321,38.754,2,35.823,2,33V7c0-1.113,0.365-2.142,0.982-2.974l25.954,6.489C31.681,11.201,34,14.171,34,17V41z M46,29
		c0,2.757-2.243,5-5,5h-5V18h3c0.553,0,1-0.448,1-1s-0.447-1-1-1h-3.077c-0.463-3.391-3.198-6.6-6.502-7.425L27.121,8H39
		c0.553,0,1-0.448,1-1s-0.447-1-1-1H19.121L4.926,2.451C5.558,2.162,6.261,2,7,2h34c2.757,0,5,2.243,5,5V29z"/>
	<path fill="#231F20" d="M26,22c-2.757,0-5,2.243-5,5s2.243,5,5,5s5-2.243,5-5S28.757,22,26,22z M26,30c-1.654,0-3-1.346-3-3
		s1.346-3,3-3s3,1.346,3,3S27.654,30,26,30z"/>
</g>
<g id="nyt_x5F_exporter_x5F_info" display="none">
</g>
</svg>
