<?xml version="1.0" encoding="utf-8"?>
<!-- Generator: Adobe Illustrator 17.0.0, SVG Export Plug-In . SVG Version: 6.00 Build 0)  -->
<!DOCTYPE svg PUBLIC "-//W3C//DTD SVG 1.1//EN" "http://www.w3.org/Graphics/SVG/1.1/DTD/svg11.dtd">
<svg version="1.1" id="Layer_1" xmlns="http://www.w3.org/2000/svg" xmlns:xlink="http://www.w3.org/1999/xlink" x="0px" y="0px"
	 width="48px" height="48px" viewBox="0 0 48 48" enable-background="new 0 0 48 48" xml:space="preserve">
<g>
	<circle fill="#231F20" cx="34.081" cy="28" r="2"/>
	<path fill="#231F20" d="M11.081,14h-2c-0.553,0-1,0.448-1,1s0.447,1,1,1h2c0.553,0,1-0.448,1-1S11.634,14,11.081,14z"/>
	<path fill="#231F20" d="M17.081,14h-2c-0.553,0-1,0.448-1,1s0.447,1,1,1h2c0.553,0,1-0.448,1-1S17.634,14,17.081,14z"/>
	<path fill="#231F20" d="M23.081,14h-2c-0.553,0-1,0.448-1,1s0.447,1,1,1h2c0.553,0,1-0.448,1-1S23.634,14,23.081,14z"/>
	<path fill="#231F20" d="M27.081,16h2c0.553,0,1-0.448,1-1s-0.447-1-1-1h-2c-0.553,0-1,0.448-1,1S26.528,16,27.081,16z"/>
	<path fill="#231F20" d="M33.081,16h2c0.553,0,1-0.448,1-1s-0.447-1-1-1h-2c-0.553,0-1,0.448-1,1S32.528,16,33.081,16z"/>
	<path fill="#231F20" d="M11.081,40h-2c-0.553,0-1,0.448-1,1s0.447,1,1,1h2c0.553,0,1-0.448,1-1S11.634,40,11.081,40z"/>
	<path fill="#231F20" d="M17.081,40h-2c-0.553,0-1,0.448-1,1s0.447,1,1,1h2c0.553,0,1-0.448,1-1S17.634,40,17.081,40z"/>
	<path fill="#231F20" d="M23.081,40h-2c-0.553,0-1,0.448-1,1s0.447,1,1,1h2c0.553,0,1-0.448,1-1S23.634,40,23.081,40z"/>
	<path fill="#231F20" d="M29.081,40h-2c-0.553,0-1,0.448-1,1s0.447,1,1,1h2c0.553,0,1-0.448,1-1S29.634,40,29.081,40z"/>
	<path fill="#231F20" d="M32.081,41c0,0.552,0.447,1,1,1h2c0.553,0,1-0.448,1-1s-0.447-1-1-1h-2C32.528,40,32.081,40.448,32.081,41z
		"/>
	<path fill="#231F20" d="M43.079,22h-0.998v-5c0-2.785-1.64-5.189-4-6.315V7c0-2.757-3.141-5-7-5h-24c-3.859,0-7,3.14-7,7v30
		c0,3.86,3.141,7,7,7h28c3.859,0,7-3.14,7-7v-5h0.998c2.757,0,5-2.243,5-5v-2C48.079,24.243,45.836,22,43.079,22z M40.081,39
		c0,2.757-2.243,5-5,5h-28c-2.757,0-5-2.243-5-5V9c0-2.757,2.243-5,5-5h24c2.663,0,5,1.402,5,3v3.08c-0.328-0.047-0.66-0.08-1-0.08
		h-28c-0.552,0-1-0.449-1-1s0.448-1,1-1h24c0.553,0,1-0.448,1-1s-0.447-1-1-1h-24c-1.654,0-3,1.346-3,3s1.346,3,3,3h28
		c2.757,0,5,2.243,5,5v5h-7.002c-2.757,0-5,2.243-5,5v2c0,2.757,2.243,5,5,5h7.002V39z M46.079,29c0,1.654-1.346,3-3,3h-10
		c-1.654,0-3-1.346-3-3v-2c0-1.654,1.346-3,3-3h10c1.654,0,3,1.346,3,3V29z"/>
</g>
<g id="nyt_x5F_exporter_x5F_info" display="none">
</g>
</svg>
