<?xml version="1.0" encoding="utf-8"?>
<!-- Generator: Adobe Illustrator 17.0.0, SVG Export Plug-In . SVG Version: 6.00 Build 0)  -->
<!DOCTYPE svg PUBLIC "-//W3C//DTD SVG 1.1//EN" "http://www.w3.org/Graphics/SVG/1.1/DTD/svg11.dtd">
<svg version="1.1" xmlns="http://www.w3.org/2000/svg" xmlns:xlink="http://www.w3.org/1999/xlink" x="0px" y="0px" width="60px"
	 height="60px" viewBox="0 0 60 60" enable-background="new 0 0 60 60" xml:space="preserve">
<g id="Layer_3">
	<path fill="#010101" d="M59,28H36v-5c0-2.57-2.43-5-5-5h-8c-1.458,0-3-1.542-3-3v-5h15c0.553,0,1-0.448,1-1V1c0-0.552-0.447-1-1-1
		H1C0.447,0,0,0.448,0,1v8c0,0.552,0.447,1,1,1h17v5c0,2.57,2.43,5,5,5h8c1.458,0,3,1.542,3,3v5h-9c-0.553,0-1,0.448-1,1v8
		c0,0.552,0.447,1,1,1h21v13c0,1.458-1.542,3-3,3h-7v-3c0-0.552-0.447-1-1-1H1c-0.553,0-1,0.448-1,1v8c0,0.552,0.447,1,1,1h34
		c0.553,0,1-0.448,1-1v-3h7c2.57,0,5-2.43,5-5V38h11c0.553,0,1-0.448,1-1v-8C60,28.448,59.553,28,59,28z"/>
</g>
<g id="nyt_x5F_exporter_x5F_info" display="none">
</g>
</svg>
