<?xml version="1.0" encoding="utf-8"?>
<!-- Generator: Adobe Illustrator 17.0.0, SVG Export Plug-In . SVG Version: 6.00 Build 0)  -->
<!DOCTYPE svg PUBLIC "-//W3C//DTD SVG 1.1//EN" "http://www.w3.org/Graphics/SVG/1.1/DTD/svg11.dtd">
<svg version="1.1" xmlns="http://www.w3.org/2000/svg" xmlns:xlink="http://www.w3.org/1999/xlink" x="0px" y="0px" width="60px"
	 height="60px" viewBox="0 0 60 60" enable-background="new 0 0 60 60" xml:space="preserve">
<g id="Layer_3">
	<g>
		<path fill="#010101" d="M52.707,8.293l-8-8C44.519,0.106,44.266,0,44,0H32c-0.553,0-1,0.448-1,1v9h-1c-0.553,0-1,0.448-1,1
			c0,0.552,0.447,1,1,1h1v15c0,0.552,0.447,1,1,1h20c0.553,0,1-0.448,1-1V9C53,8.735,52.894,8.481,52.707,8.293z M44,9V1l8,8H44z"/>
		<path fill="#010101" d="M44.707,32.293C44.519,32.106,44.266,32,44,32H32c-0.553,0-1,0.448-1,1v15h-1c-0.553,0-1,0.448-1,1
			c0,0.552,0.447,1,1,1h1v9c0,0.552,0.447,1,1,1h20c0.553,0,1-0.448,1-1V41c0-0.265-0.106-0.519-0.293-0.707L44.707,32.293z M44,41
			v-8l8,8H44z"/>
		<path fill="#010101" d="M8,6c0.553,0,1-0.448,1-1V1c0-0.552-0.447-1-1-1C7.447,0,7,0.448,7,1v4C7,5.552,7.447,6,8,6z"/>
		<path fill="#010101" d="M10,10H9V9c0-0.552-0.447-1-1-1C7.447,8,7,8.448,7,9v2c0,0.552,0.447,1,1,1h2c0.553,0,1-0.448,1-1
			C11,10.448,10.553,10,10,10z"/>
		<path fill="#010101" d="M8,20c0.553,0,1-0.448,1-1v-4c0-0.552-0.447-1-1-1c-0.553,0-1,0.448-1,1v4C7,19.552,7.447,20,8,20z"/>
		<path fill="#010101" d="M8,28c0.553,0,1-0.448,1-1v-4c0-0.552-0.447-1-1-1c-0.553,0-1,0.448-1,1v4C7,27.552,7.447,28,8,28z"/>
		<path fill="#010101" d="M8,36c0.553,0,1-0.448,1-1v-4c0-0.552-0.447-1-1-1c-0.553,0-1,0.448-1,1v4C7,35.552,7.447,36,8,36z"/>
		<path fill="#010101" d="M8,44c0.553,0,1-0.448,1-1v-4c0-0.552-0.447-1-1-1c-0.553,0-1,0.448-1,1v4C7,43.552,7.447,44,8,44z"/>
		<path fill="#010101" d="M10,48H9v-1c0-0.552-0.447-1-1-1c-0.553,0-1,0.448-1,1v2c0,0.552,0.447,1,1,1h2c0.553,0,1-0.448,1-1
			C11,48.448,10.553,48,10,48z"/>
		<path fill="#010101" d="M18,10h-4c-0.553,0-1,0.448-1,1c0,0.552,0.447,1,1,1h4c0.553,0,1-0.448,1-1C19,10.448,18.553,10,18,10z"/>
		<path fill="#010101" d="M26,10h-4c-0.553,0-1,0.448-1,1c0,0.552,0.447,1,1,1h4c0.553,0,1-0.448,1-1C27,10.448,26.553,10,26,10z"/>
		<path fill="#010101" d="M18,48h-4c-0.553,0-1,0.448-1,1c0,0.552,0.447,1,1,1h4c0.553,0,1-0.448,1-1C19,48.448,18.553,48,18,48z"/>
		<path fill="#010101" d="M26,48h-4c-0.553,0-1,0.448-1,1c0,0.552,0.447,1,1,1h4c0.553,0,1-0.448,1-1C27,48.448,26.553,48,26,48z"/>
	</g>
</g>
<g id="nyt_x5F_exporter_x5F_info" display="none">
</g>
</svg>
