<?xml version="1.0" encoding="utf-8"?>
<!-- Generator: Adobe Illustrator 17.0.0, SVG Export Plug-In . SVG Version: 6.00 Build 0)  -->
<!DOCTYPE svg PUBLIC "-//W3C//DTD SVG 1.1//EN" "http://www.w3.org/Graphics/SVG/1.1/DTD/svg11.dtd">
<svg version="1.1" xmlns="http://www.w3.org/2000/svg" xmlns:xlink="http://www.w3.org/1999/xlink" x="0px" y="0px" width="60px"
	 height="60px" viewBox="0 0 60 60" enable-background="new 0 0 60 60" xml:space="preserve">
<g id="Layer_3">
	<path fill="#010101" d="M52,0c-4.411,0-8,3.589-8,8c0,3.173,1.861,5.912,4.545,7.204l-4.984,14.951C43.056,30.055,42.534,30,42,30
		c-2.346,0-4.453,1.022-5.918,2.636l-7.01-4.907C29.662,26.615,30,25.347,30,24c0-4.411-3.589-8-8-8c-4.411,0-8,3.589-8,8
		c0,2.768,1.414,5.212,3.558,6.648l-6.906,13.813C9.82,44.168,8.93,44,8,44c-4.411,0-8,3.589-8,8c0,4.411,3.589,8,8,8
		c4.411,0,8-3.589,8-8c0-2.768-1.414-5.212-3.558-6.648l6.906-13.813C20.18,31.832,21.07,32,22,32c2.347,0,4.454-1.022,5.919-2.637
		l7.01,4.906C34.338,35.385,34,36.653,34,38c0,4.411,3.589,8,8,8c4.411,0,8-3.589,8-8c0-3.173-1.861-5.912-4.545-7.204l4.983-14.951
		C50.944,15.945,51.466,16,52,16c4.411,0,8-3.589,8-8C60,3.589,56.411,0,52,0z"/>
</g>
<g id="nyt_x5F_exporter_x5F_info" display="none">
</g>
</svg>
