<?xml version="1.0" encoding="utf-8"?>
<!-- Generator: Adobe Illustrator 17.0.0, SVG Export Plug-In . SVG Version: 6.00 Build 0)  -->
<!DOCTYPE svg PUBLIC "-//W3C//DTD SVG 1.1//EN" "http://www.w3.org/Graphics/SVG/1.1/DTD/svg11.dtd">
<svg version="1.1" xmlns="http://www.w3.org/2000/svg" xmlns:xlink="http://www.w3.org/1999/xlink" x="0px" y="0px" width="60px"
	 height="60px" viewBox="0 0 60 60" enable-background="new 0 0 60 60" xml:space="preserve">
<g id="Layer_3">
	<path fill="#010101" d="M58,46h-5.023c-0.12-3.363-1.48-6.562-3.913-9.098C46.03,33.741,41.742,32,36.989,32H31V14h5
		c0.553,0,1-0.448,1-1V1c0-0.552-0.447-1-1-1H24c-0.553,0-1,0.448-1,1v12c0,0.552,0.447,1,1,1h5v18h-6.011
		c-8.91,0-15.453,5.833-15.951,14H2c-0.553,0-1,0.448-1,1v12c0,0.552,0.447,1,1,1h12c0.553,0,1-0.448,1-1V47c0-0.552-0.447-1-1-1
		H9.037c0.482-7.113,6.076-12,13.953-12H29v12h-5c-0.553,0-1,0.448-1,1v12c0,0.552,0.447,1,1,1h12c0.553,0,1-0.448,1-1V47
		c0-0.552-0.447-1-1-1h-5V34h5.989c4.203,0,7.979,1.523,10.632,4.287c2.072,2.159,3.238,4.868,3.359,7.713H46c-0.553,0-1,0.448-1,1
		v12c0,0.552,0.447,1,1,1h12c0.553,0,1-0.448,1-1V47C59,46.448,58.553,46,58,46z"/>
</g>
<g id="nyt_x5F_exporter_x5F_info" display="none">
</g>
</svg>
