<?xml version="1.0" encoding="utf-8"?>
<!-- Generator: Adobe Illustrator 17.0.0, SVG Export Plug-In . SVG Version: 6.00 Build 0)  -->
<!DOCTYPE svg PUBLIC "-//W3C//DTD SVG 1.1//EN" "http://www.w3.org/Graphics/SVG/1.1/DTD/svg11.dtd">
<svg version="1.1" xmlns="http://www.w3.org/2000/svg" xmlns:xlink="http://www.w3.org/1999/xlink" x="0px" y="0px" width="60px"
	 height="60px" viewBox="0 0 60 60" enable-background="new 0 0 60 60" xml:space="preserve">
<g id="Layer_3">
	<path fill="#010101" d="M59,34h-7v-5c0-0.552-0.447-1-1-1H34v-2h11c0.553,0,1-0.448,1-1V1c0-0.552-0.447-1-1-1H21
		c-0.553,0-1,0.448-1,1v24c0,0.552,0.447,1,1,1h11v2H9c-0.553,0-1,0.448-1,1v5H1c-0.553,0-1,0.448-1,1v24c0,0.552,0.447,1,1,1h24
		c0.553,0,1-0.448,1-1V35c0-0.552-0.447-1-1-1H10v-4h40v4H35c-0.553,0-1,0.448-1,1v24c0,0.552,0.447,1,1,1h24c0.553,0,1-0.448,1-1
		V35C60,34.448,59.553,34,59,34z M19,42H7c-0.553,0-1-0.448-1-1c0-0.552,0.447-1,1-1h12c0.553,0,1,0.448,1,1
		C20,41.552,19.553,42,19,42z M27,6h12c0.553,0,1,0.448,1,1c0,0.552-0.447,1-1,1H27c-0.553,0-1-0.448-1-1C26,6.448,26.447,6,27,6z
		 M53,42H41c-0.553,0-1-0.448-1-1c0-0.552,0.447-1,1-1h12c0.553,0,1,0.448,1,1C54,41.552,53.553,42,53,42z"/>
</g>
<g id="nyt_x5F_exporter_x5F_info" display="none">
</g>
</svg>
