<?xml version="1.0" encoding="utf-8"?>
<!-- Generator: Adobe Illustrator 17.0.0, SVG Export Plug-In . SVG Version: 6.00 Build 0)  -->
<!DOCTYPE svg PUBLIC "-//W3C//DTD SVG 1.1//EN" "http://www.w3.org/Graphics/SVG/1.1/DTD/svg11.dtd">
<svg version="1.1" xmlns="http://www.w3.org/2000/svg" xmlns:xlink="http://www.w3.org/1999/xlink" x="0px" y="0px" width="60px"
	 height="60px" viewBox="0 0 60 60" enable-background="new 0 0 60 60" xml:space="preserve">
<g id="Layer_3">
	<path fill="#010101" d="M52.989,46.078c-0.101-3.391-1.461-6.62-3.913-9.175C46.042,33.741,41.754,32,37,32h-6V13.92
		c3.386-0.488,6-3.401,6-6.92c0-3.86-3.141-7-7-7c-3.859,0-7,3.14-7,7c0,3.52,2.614,6.432,6,6.92V32h-6
		c-8.936,0-15.491,5.867-15.955,14.073C3.637,46.541,1,49.465,1,53c0,3.86,3.141,7,7,7c3.859,0,7-3.14,7-7
		c0-3.504-2.592-6.407-5.957-6.914C9.486,38.927,15.091,34,23,34h6v12.08c-3.386,0.488-6,3.401-6,6.92c0,3.86,3.141,7,7,7
		c3.859,0,7-3.14,7-7c0-3.519-2.614-6.432-6-6.92V34h6c4.204,0,7.98,1.523,10.633,4.288c2.091,2.179,3.258,4.919,3.359,7.794
		C47.61,46.573,45,49.483,45,53c0,3.86,3.141,7,7,7c3.859,0,7-3.14,7-7C59,49.477,56.381,46.562,52.989,46.078z"/>
</g>
<g id="nyt_x5F_exporter_x5F_info" display="none">
</g>
</svg>
