<?xml version="1.0" encoding="utf-8"?>
<!-- Generator: Adobe Illustrator 17.0.0, SVG Export Plug-In . SVG Version: 6.00 Build 0)  -->
<!DOCTYPE svg PUBLIC "-//W3C//DTD SVG 1.1//EN" "http://www.w3.org/Graphics/SVG/1.1/DTD/svg11.dtd">
<svg version="1.1" xmlns="http://www.w3.org/2000/svg" xmlns:xlink="http://www.w3.org/1999/xlink" x="0px" y="0px" width="60px"
	 height="60px" viewBox="0 0 60 60" enable-background="new 0 0 60 60" xml:space="preserve">
<g id="Layer_3">
	<path fill="#010101" d="M55,31c-1.627,0-3.061,0.793-3.975,2l-6.717-3.198C44.748,28.615,45,27.338,45,26
		c0-2.673-0.96-5.125-2.552-7.034l9.799-9.799C53.038,9.691,53.982,10,55,10c2.757,0,5-2.243,5-5c0-2.757-2.243-5-5-5
		c-2.757,0-5,2.243-5,5c0,1.017,0.309,1.962,0.833,2.753l-9.799,9.799C39.125,15.96,36.673,15,34,15
		c-4.221,0-7.889,2.393-9.733,5.89L9.904,14.947C9.963,14.64,10,14.325,10,14c0-2.757-2.243-5-5-5c-2.757,0-5,2.243-5,5
		c0,2.757,2.243,5,5,5c1.722,0,3.243-0.875,4.143-2.203l14.352,5.938C23.173,23.767,23,24.864,23,26c0,2.673,0.96,5.126,2.552,7.034
		L7.753,50.833C6.962,50.309,6.018,50,5,50c-2.757,0-5,2.243-5,5c0,2.757,2.243,5,5,5c2.757,0,5-2.243,5-5
		c0-1.017-0.309-1.962-0.833-2.753l17.799-17.799C28.874,36.04,31.327,37,34,37v13.101c-2.279,0.465-4,2.485-4,4.899
		c0,2.757,2.243,5,5,5c2.757,0,5-2.243,5-5c0-2.414-1.721-4.434-4-4.899V36.809c3.166-0.585,5.854-2.528,7.447-5.203l6.714,3.197
		C50.065,35.189,50,35.585,50,36c0,2.757,2.243,5,5,5c2.757,0,5-2.243,5-5C60,33.243,57.757,31,55,31z"/>
</g>
<g id="nyt_x5F_exporter_x5F_info" display="none">
</g>
</svg>
