<?xml version="1.0" encoding="utf-8"?>
<!-- Generator: Adobe Illustrator 17.0.0, SVG Export Plug-In . SVG Version: 6.00 Build 0)  -->
<!DOCTYPE svg PUBLIC "-//W3C//DTD SVG 1.1//EN" "http://www.w3.org/Graphics/SVG/1.1/DTD/svg11.dtd">
<svg version="1.1" id="Layer_1" xmlns="http://www.w3.org/2000/svg" xmlns:xlink="http://www.w3.org/1999/xlink" x="0px" y="0px"
	 width="60px" height="60px" viewBox="0 0 60 60" enable-background="new 0 0 60 60" xml:space="preserve">
<g>
	<path fill="#010101" d="M53.202,19.658c0.74-2.201,0.507-4.37-0.679-6.178c-1.557-2.375-4.542-3.72-7.88-3.541
		C42.48,5.025,37.447,0,31,0c-8.923,0-14.925,6.021-15.896,12.106C8.464,13.159,3,19.34,3,26c0,7.458,6.542,14,14,14h28.914
		C52.027,40,57,35.065,57,29C57,25.938,55.988,21.989,53.202,19.658z M45.914,38H17c-6.393,0-12-5.607-12-12
		c0-5.94,5.08-11.438,11.094-12.004c0.481-0.045,0.861-0.428,0.902-0.91C17.585,6.238,24.724,2,31,2
		c5.554,0,10.274,4.708,12.067,9.36c0.164,0.428,0.61,0.695,1.056,0.632c2.833-0.353,5.469,0.665,6.728,2.584
		c0.938,1.428,1.02,3.213,0.232,5.025c-0.191,0.44-0.043,0.954,0.353,1.224C53.601,22.304,55,25.513,55,29
		C55,33.962,50.924,38,45.914,38z"/>
	<path fill="#010101" d="M21.621,51.707c0.286-0.286,0.372-0.716,0.217-1.09C21.684,50.244,21.318,50,20.914,50h-4.586l3.293-3.293
		c0.391-0.391,0.391-1.023,0-1.414s-1.023-0.391-1.414,0l-5,5c-0.286,0.286-0.372,0.716-0.217,1.09
		C13.145,51.756,13.51,52,13.914,52H18.5l-6.293,6.293c-0.391,0.391-0.391,1.023,0,1.414C12.402,59.902,12.658,60,12.914,60
		s0.512-0.098,0.707-0.293L21.621,51.707z"/>
	<path fill="#010101" d="M25.207,59.707C25.402,59.902,25.658,60,25.914,60s0.512-0.098,0.707-0.293l8-8
		c0.286-0.286,0.372-0.716,0.217-1.09C34.684,50.244,34.318,50,33.914,50h-3.586l2.293-2.293c0.391-0.391,0.391-1.023,0-1.414
		s-1.023-0.391-1.414,0l-4,4c-0.286,0.286-0.372,0.716-0.217,1.09C27.145,51.756,27.51,52,27.914,52H31.5l-6.293,6.293
		C24.816,58.684,24.816,59.316,25.207,59.707z"/>
	<path fill="#010101" d="M37.207,59.707C37.402,59.902,37.658,60,37.914,60s0.512-0.098,0.707-0.293l8-8
		c0.286-0.286,0.372-0.716,0.217-1.09C46.684,50.244,46.318,50,45.914,50h-3.586l2.293-2.293c0.391-0.391,0.391-1.023,0-1.414
		s-1.023-0.391-1.414,0l-4,4c-0.286,0.286-0.372,0.716-0.217,1.09C39.145,51.756,39.51,52,39.914,52H43.5l-6.293,6.293
		C36.816,58.684,36.816,59.316,37.207,59.707z"/>
</g>
</svg>
