<?xml version="1.0" encoding="utf-8"?>
<!-- Generator: Adobe Illustrator 17.0.0, SVG Export Plug-In . SVG Version: 6.00 Build 0)  -->
<!DOCTYPE svg PUBLIC "-//W3C//DTD SVG 1.1//EN" "http://www.w3.org/Graphics/SVG/1.1/DTD/svg11.dtd">
<svg version="1.1" id="Layer_1" xmlns="http://www.w3.org/2000/svg" xmlns:xlink="http://www.w3.org/1999/xlink" x="0px" y="0px"
	 width="60px" height="60px" viewBox="0 0 60 60" enable-background="new 0 0 60 60" xml:space="preserve">
<g>
	<path fill="#010101" d="M50.203,39.658c0.739-2.201,0.507-4.37-0.679-6.178c-1.557-2.375-4.538-3.716-7.88-3.541
		C39.481,25.025,34.448,20,28,20c-8.922,0-14.924,6.021-15.897,12.106C5.464,33.159,0,39.34,0,46c0,7.458,6.542,14,14,14h28.915
		C49.027,60,54,55.065,54,49C54,45.938,52.988,41.989,50.203,39.658z M42.915,58H14C7.607,58,2,52.393,2,46
		c0-5.94,5.081-11.438,11.094-12.004c0.481-0.045,0.861-0.428,0.902-0.91C14.586,26.238,21.724,22,28,22
		c5.554,0,10.274,4.708,12.067,9.359c0.165,0.429,0.603,0.693,1.056,0.633c2.845-0.352,5.47,0.666,6.729,2.584
		c0.937,1.429,1.019,3.213,0.231,5.025c-0.191,0.44-0.043,0.954,0.353,1.224C50.601,42.304,52,45.513,52,49
		C52,53.962,47.924,58,42.915,58z"/>
	<path fill="#010101" d="M56.202,19.657c0.78-2.338,0.458-4.681-0.922-6.526c-1.626-2.175-4.504-3.362-7.636-3.192
		C45.482,5.025,40.449,0,34,0c-8.922,0-14.924,6.021-15.897,12.106C11.464,13.159,6,19.34,6,26c0,0.552,0.448,1,1,1s1-0.448,1-1
		c0-5.94,5.081-11.438,11.094-12.004c0.481-0.045,0.861-0.428,0.902-0.91C20.586,6.238,27.724,2,34,2
		c5.554,0,10.274,4.708,12.067,9.359c0.165,0.429,0.6,0.691,1.056,0.633c2.709-0.337,5.225,0.558,6.555,2.336
		c1.1,1.471,1.244,3.343,0.405,5.273c-0.191,0.44-0.043,0.954,0.353,1.224C56.601,22.304,58,25.513,58,29
		c0,1.971-0.622,3.837-1.798,5.398c-0.333,0.441-0.245,1.068,0.196,1.4C56.578,35.935,56.79,36,56.999,36
		c0.303,0,0.603-0.137,0.799-0.398C59.239,33.691,60,31.408,60,29C60,25.938,58.988,21.988,56.202,19.657z"/>
</g>
</svg>
