<?xml version="1.0" encoding="utf-8"?>
<!-- Generator: Adobe Illustrator 17.0.0, SVG Export Plug-In . SVG Version: 6.00 Build 0)  -->
<!DOCTYPE svg PUBLIC "-//W3C//DTD SVG 1.1//EN" "http://www.w3.org/Graphics/SVG/1.1/DTD/svg11.dtd">
<svg version="1.1" id="Layer_1" xmlns="http://www.w3.org/2000/svg" xmlns:xlink="http://www.w3.org/1999/xlink" x="0px" y="0px"
	 width="60px" height="60px" viewBox="0 0 60 60" enable-background="new 0 0 60 60" xml:space="preserve">
<g>
	<path fill="#010101" d="M54.202,19.658c0.74-2.201,0.507-4.37-0.679-6.178c-1.557-2.375-4.542-3.72-7.88-3.541
		C43.48,5.025,38.447,0,32,0c-8.923,0-14.925,6.021-15.896,12.106C9.464,13.159,4,19.34,4,26c0,7.458,6.542,14,14,14h28.914
		C53.027,40,58,35.065,58,29C58,25.938,56.988,21.989,54.202,19.658z M46.914,38H18c-6.393,0-12-5.607-12-12
		c0-5.94,5.08-11.438,11.094-12.004c0.481-0.045,0.861-0.428,0.902-0.91C18.585,6.238,25.724,2,32,2
		c5.554,0,10.274,4.708,12.067,9.36c0.165,0.428,0.607,0.695,1.056,0.632c2.833-0.353,5.469,0.665,6.728,2.584
		c0.938,1.428,1.02,3.213,0.232,5.025c-0.191,0.44-0.043,0.954,0.353,1.224C54.601,22.304,56,25.513,56,29
		C56,33.962,51.924,38,46.914,38z"/>
	<path fill="#010101" d="M43.707,46.293c-0.391-0.391-1.023-0.391-1.414,0l-8.008,8.008C33.894,54.113,33.462,54,33,54
		c-1.654,0-3,1.346-3,3s1.346,3,3,3s3-1.346,3-3c0-0.462-0.113-0.894-0.301-1.285l8.008-8.008
		C44.098,47.316,44.098,46.684,43.707,46.293z M33,58c-0.552,0-1-0.449-1-1s0.448-1,1-1s1,0.449,1,1S33.552,58,33,58z"/>
	<path fill="#010101" d="M28.707,46.293c-0.391-0.391-1.023-0.391-1.414,0l-5.008,5.008C21.894,51.113,21.462,51,21,51
		c-1.654,0-3,1.346-3,3s1.346,3,3,3s3-1.346,3-3c0-0.462-0.113-0.894-0.301-1.285l5.008-5.008
		C29.098,47.316,29.098,46.684,28.707,46.293z M21,55c-0.552,0-1-0.449-1-1s0.448-1,1-1c0.274,0,0.521,0.111,0.702,0.29
		c0.002,0.002,0.002,0.004,0.003,0.005c0.002,0.002,0.004,0.002,0.005,0.004C21.889,53.479,22,53.727,22,54
		C22,54.551,21.552,55,21,55z"/>
	<path fill="#010101" d="M8,57c0-0.461-0.113-0.894-0.3-1.285l8.007-8.008c0.391-0.391,0.391-1.023,0-1.414s-1.023-0.391-1.414,0
		l-8.007,8.008C5.895,54.114,5.462,54,5,54c-1.654,0-3,1.346-3,3s1.346,3,3,3S8,58.654,8,57z M5,58c-0.552,0-1-0.449-1-1
		s0.448-1,1-1c0.276,0,0.525,0.112,0.706,0.293c0,0,0,0.001,0.001,0.001c0,0,0,0,0.001,0C5.888,56.475,6,56.725,6,57
		C6,57.551,5.552,58,5,58z"/>
</g>
</svg>
