<?xml version="1.0" encoding="utf-8"?>
<!-- Generator: Adobe Illustrator 17.0.0, SVG Export Plug-In . SVG Version: 6.00 Build 0)  -->
<!DOCTYPE svg PUBLIC "-//W3C//DTD SVG 1.1//EN" "http://www.w3.org/Graphics/SVG/1.1/DTD/svg11.dtd">
<svg version="1.1" id="Layer_1" xmlns="http://www.w3.org/2000/svg" xmlns:xlink="http://www.w3.org/1999/xlink" x="0px" y="0px"
	 width="60px" height="60px" viewBox="0 0 60 60" enable-background="new 0 0 60 60" xml:space="preserve">
<g>
	<path fill="#010101" d="M48.203,39.658c0.739-2.201,0.507-4.37-0.679-6.178c-1.556-2.373-4.55-3.731-7.874-3.541
		C37.02,23.699,32.333,20,27,20c-7.753,0-13.892,5.043-14.904,12.107C5.46,33.163,0,39.342,0,46c0,7.458,6.542,14,14,14h26.915
		C47.027,60,52,55.065,52,49C52,45.938,50.988,41.989,48.203,39.658z M40.915,58H14C7.607,58,2,52.393,2,46
		c0-5.94,5.081-11.438,11.094-12.004c0.481-0.045,0.861-0.428,0.902-0.91C14.549,26.662,20.018,22,27,22
		c6.922,0,10.221,7.164,11.067,9.359c0.165,0.429,0.599,0.692,1.056,0.633c2.845-0.352,5.47,0.666,6.729,2.584
		c0.937,1.429,1.019,3.213,0.231,5.025c-0.191,0.44-0.043,0.954,0.353,1.224C48.601,42.304,50,45.513,50,49
		C50,53.962,45.924,58,40.915,58z"/>
	<path fill="#010101" d="M59.422,3.691C59.775,3.526,60,3.173,60,2.784c0-0.389-0.226-0.743-0.578-0.907C56.745,0.632,53.912,0,51,0
		c-8.636,0-16.266,5.502-18.985,13.693c-0.174,0.524,0.11,1.09,0.634,1.264c0.524,0.174,1.09-0.11,1.264-0.634
		C36.36,6.952,43.227,2,51,2c1.925,0,3.813,0.308,5.636,0.917C50.719,6.515,47,13.004,47,20c0,6.996,3.719,13.484,9.635,17.083
		c-0.589,0.196-1.188,0.362-1.791,0.497c-0.539,0.12-0.879,0.654-0.759,1.193c0.104,0.466,0.517,0.783,0.975,0.783
		c0.072,0,0.145-0.008,0.218-0.024c1.421-0.316,2.815-0.79,4.144-1.41C59.775,37.958,60,37.604,60,37.216s-0.226-0.742-0.578-0.907
		C53.091,33.361,49,26.959,49,20S53.091,6.639,59.422,3.691z"/>
</g>
</svg>
