<?xml version="1.0" encoding="utf-8"?>
<!-- Generator: Adobe Illustrator 17.0.0, SVG Export Plug-In . SVG Version: 6.00 Build 0)  -->
<!DOCTYPE svg PUBLIC "-//W3C//DTD SVG 1.1//EN" "http://www.w3.org/Graphics/SVG/1.1/DTD/svg11.dtd">
<svg version="1.1" id="Layer_1" xmlns="http://www.w3.org/2000/svg" xmlns:xlink="http://www.w3.org/1999/xlink" x="0px" y="0px"
	 width="60px" height="60px" viewBox="0 0 60 60" enable-background="new 0 0 60 60" xml:space="preserve">
<g>
	<path fill="#010101" d="M53.203,19.658c0.739-2.201,0.507-4.37-0.679-6.178c-1.557-2.374-4.535-3.722-7.88-3.541
		C42.481,5.025,37.448,0,31,0c-8.922,0-14.924,6.021-15.897,12.106C8.464,13.159,3,19.34,3,26c0,7.458,6.542,14,14,14h28.915
		C52.027,40,57,35.065,57,29C57,25.938,55.988,21.989,53.203,19.658z M45.915,38H17c-6.393,0-12-5.607-12-12
		c0-5.94,5.081-11.438,11.094-12.004c0.481-0.045,0.861-0.428,0.902-0.91C17.586,6.238,24.724,2,31,2
		c5.554,0,10.274,4.708,12.067,9.359c0.165,0.429,0.601,0.691,1.056,0.633c2.844-0.352,5.47,0.666,6.729,2.584
		c0.937,1.429,1.019,3.213,0.231,5.025c-0.191,0.44-0.043,0.954,0.353,1.224C53.601,22.304,55,25.513,55,29
		C55,33.962,50.924,38,45.915,38z"/>
	<path fill="#010101" d="M17.622,46.293c-0.391-0.391-1.023-0.391-1.414,0l-12,12c-0.391,0.391-0.391,1.023,0,1.414
		C4.403,59.902,4.659,60,4.915,60s0.512-0.098,0.707-0.293l12-12C18.012,47.316,18.012,46.684,17.622,46.293z"/>
	<path fill="#010101" d="M28.208,46.293l-12,12c-0.391,0.391-0.391,1.023,0,1.414C16.403,59.902,16.659,60,16.915,60
		s0.512-0.098,0.707-0.293l12-12c0.391-0.391,0.391-1.023,0-1.414S28.598,45.902,28.208,46.293z"/>
	<path fill="#010101" d="M29.208,59.707C29.403,59.902,29.659,60,29.915,60s0.512-0.098,0.707-0.293l12-12
		c0.391-0.391,0.391-1.023,0-1.414s-1.023-0.391-1.414,0l-12,12C28.817,58.684,28.817,59.316,29.208,59.707z"/>
</g>
</svg>
