<?xml version="1.0" encoding="utf-8"?>
<!-- Generator: Adobe Illustrator 17.0.0, SVG Export Plug-In . SVG Version: 6.00 Build 0)  -->
<!DOCTYPE svg PUBLIC "-//W3C//DTD SVG 1.1//EN" "http://www.w3.org/Graphics/SVG/1.1/DTD/svg11.dtd">
<svg version="1.1" id="Layer_1" xmlns="http://www.w3.org/2000/svg" xmlns:xlink="http://www.w3.org/1999/xlink" x="0px" y="0px"
	 width="60px" height="60px" viewBox="0 0 60 60" enable-background="new 0 0 60 60" xml:space="preserve">
<g>
	<path fill="#010101" d="M53.202,19.658c0.74-2.201,0.507-4.37-0.679-6.178c-1.557-2.375-4.541-3.72-7.88-3.541
		C42.48,5.025,37.447,0,31,0c-8.923,0-14.925,6.021-15.896,12.106C8.464,13.159,3,19.34,3,26c0,7.458,6.542,14,14,14h28.914
		C52.027,40,57,35.065,57,29C57,25.938,55.988,21.989,53.202,19.658z M45.914,38H17c-6.393,0-12-5.607-12-12
		c0-5.94,5.08-11.438,11.094-12.004c0.481-0.045,0.861-0.428,0.902-0.91C17.585,6.238,24.724,2,31,2
		c5.554,0,10.274,4.708,12.067,9.36c0.165,0.428,0.609,0.695,1.056,0.632c2.833-0.353,5.469,0.665,6.728,2.584
		c0.938,1.428,1.02,3.213,0.232,5.025c-0.191,0.44-0.043,0.954,0.353,1.224C53.601,22.304,55,25.513,55,29
		C55,33.962,50.924,38,45.914,38z"/>
	<path fill="#010101" d="M19.621,45.293c-0.391-0.391-1.023-0.391-1.414,0l-13,13c-0.391,0.391-0.391,1.023,0,1.414
		C5.402,59.902,5.658,60,5.914,60s0.512-0.098,0.707-0.293l13-13C20.012,46.316,20.012,45.684,19.621,45.293z"/>
	<path fill="#010101" d="M21.207,59.707C21.402,59.902,21.658,60,21.914,60s0.512-0.098,0.707-0.293l8-8
		c0.286-0.286,0.372-0.716,0.217-1.09C30.684,50.244,30.318,50,29.914,50h-3.586l2.293-2.293c0.391-0.391,0.391-1.023,0-1.414
		s-1.023-0.391-1.414,0l-4,4c-0.286,0.286-0.372,0.716-0.217,1.09C23.145,51.756,23.51,52,23.914,52H27.5l-6.293,6.293
		C20.816,58.684,20.816,59.316,21.207,59.707z"/>
	<path fill="#010101" d="M32.621,59.707l12-12c0.391-0.391,0.391-1.023,0-1.414s-1.023-0.391-1.414,0l-12,12
		c-0.391,0.391-0.391,1.023,0,1.414C31.402,59.902,31.658,60,31.914,60S32.426,59.902,32.621,59.707z"/>
</g>
</svg>
