<?xml version="1.0" encoding="utf-8"?>
<!-- Generator: Adobe Illustrator 17.0.0, SVG Export Plug-In . SVG Version: 6.00 Build 0)  -->
<!DOCTYPE svg PUBLIC "-//W3C//DTD SVG 1.1//EN" "http://www.w3.org/Graphics/SVG/1.1/DTD/svg11.dtd">
<svg version="1.1" id="Layer_1" xmlns="http://www.w3.org/2000/svg" xmlns:xlink="http://www.w3.org/1999/xlink" x="0px" y="0px"
	 width="60px" height="60px" viewBox="0 0 60 60" enable-background="new 0 0 60 60" xml:space="preserve">
<g>
	<path fill="#010101" d="M23,4c0.552,0,1-0.448,1-1V1c0-0.552-0.448-1-1-1s-1,0.448-1,1v2C22,3.552,22.448,4,23,4z"/>
	<path fill="#010101" d="M6.293,7.707C6.488,7.902,6.744,8,7,8s0.512-0.098,0.707-0.293c0.391-0.391,0.391-1.023,0-1.414l-2-2
		c-0.391-0.391-1.023-0.391-1.414,0s-0.391,1.023,0,1.414L6.293,7.707z"/>
	<path fill="#010101" d="M39,9c0.256,0,0.512-0.098,0.707-0.293l2-2c0.391-0.391,0.391-1.023,0-1.414s-1.023-0.391-1.414,0l-2,2
		c-0.391,0.391-0.391,1.023,0,1.414C38.488,8.902,38.744,9,39,9z"/>
	<path fill="#010101" d="M1,24h2c0.552,0,1-0.448,1-1s-0.448-1-1-1H1c-0.552,0-1,0.448-1,1S0.448,24,1,24z"/>
	<path fill="#010101" d="M56.203,39.658c0.739-2.201,0.507-4.37-0.679-6.178c-1.557-2.375-4.538-3.716-7.88-3.541
		C45.481,25.025,40.448,20,34,20c-8.922,0-14.924,6.021-15.897,12.106C11.464,33.159,6,39.34,6,46c0,7.458,6.542,14,14,14h28.915
		C55.027,60,60,55.065,60,49C60,45.938,58.988,41.989,56.203,39.658z M48.915,58H20c-6.393,0-12-5.607-12-12
		c0-5.94,5.081-11.438,11.094-12.004c0.481-0.045,0.861-0.428,0.902-0.91C20.586,26.238,27.724,22,34,22
		c5.554,0,10.274,4.708,12.067,9.359c0.165,0.429,0.601,0.693,1.056,0.633c2.845-0.352,5.47,0.666,6.729,2.584
		c0.937,1.429,1.019,3.213,0.231,5.025c-0.191,0.44-0.043,0.954,0.353,1.224C56.601,42.304,58,45.513,58,49
		C58,53.962,53.924,58,48.915,58z"/>
	<path fill="#010101" d="M8.23,31.397c0.184,0.324,0.522,0.505,0.87,0.505c0.167,0,0.338-0.042,0.494-0.131
		c0.48-0.273,0.647-0.884,0.374-1.364C8.68,28.148,8,25.586,8,23c0-8.271,6.729-15,15-15c4.595,0,8.873,2.066,11.736,5.669
		c0.343,0.433,0.973,0.504,1.405,0.161c0.433-0.343,0.504-0.973,0.161-1.405C33.057,8.342,28.208,6,23,6C13.626,6,6,13.626,6,23
		C6,25.933,6.771,28.837,8.23,31.397z"/>
</g>
</svg>
