<?xml version="1.0" encoding="utf-8"?>
<!-- Generator: Adobe Illustrator 17.0.0, SVG Export Plug-In . SVG Version: 6.00 Build 0)  -->
<!DOCTYPE svg PUBLIC "-//W3C//DTD SVG 1.1//EN" "http://www.w3.org/Graphics/SVG/1.1/DTD/svg11.dtd">
<svg version="1.1" id="Layer_1" xmlns="http://www.w3.org/2000/svg" xmlns:xlink="http://www.w3.org/1999/xlink" x="0px" y="0px"
	 width="60px" height="60px" viewBox="0 0 60 60" enable-background="new 0 0 60 60" xml:space="preserve">
<g>
	<path fill="#010101" d="M29,9C17.972,9,9,17.972,9,29s8.972,20,20,20s20-8.972,20-20S40.028,9,29,9z M29,47
		c-9.925,0-18-8.075-18-18s8.075-18,18-18s18,8.075,18,18S38.925,47,29,47z"/>
	<path fill="#010101" d="M57,28h-4c-0.553,0-1,0.448-1,1s0.447,1,1,1h4c0.553,0,1-0.448,1-1S57.553,28,57,28z"/>
	<path fill="#010101" d="M29,6c0.553,0,1-0.448,1-1V1c0-0.552-0.447-1-1-1s-1,0.448-1,1v4C28,5.552,28.447,6,29,6z"/>
	<path fill="#010101" d="M5,28H1c-0.553,0-1,0.448-1,1s0.447,1,1,1h4c0.553,0,1-0.448,1-1S5.553,28,5,28z"/>
	<path fill="#010101" d="M29,52c-0.553,0-1,0.448-1,1v4c0,0.552,0.447,1,1,1s1-0.448,1-1v-4C30,52.448,29.553,52,29,52z"/>
	<path fill="#010101" d="M48.092,8.494l-2.828,2.828c-0.391,0.391-0.391,1.023,0,1.414c0.195,0.195,0.451,0.293,0.707,0.293
		s0.512-0.098,0.707-0.293l2.828-2.828c0.391-0.391,0.391-1.023,0-1.414S48.482,8.104,48.092,8.494z"/>
	<path fill="#010101" d="M11.322,12.736c0.195,0.195,0.451,0.293,0.707,0.293s0.512-0.098,0.707-0.293
		c0.391-0.391,0.391-1.023,0-1.414L9.908,8.494c-0.391-0.391-1.023-0.391-1.414,0s-0.391,1.023,0,1.414L11.322,12.736z"/>
	<path fill="#010101" d="M11.322,45.264l-2.828,2.828c-0.391,0.391-0.391,1.023,0,1.414c0.195,0.195,0.451,0.293,0.707,0.293
		s0.512-0.098,0.707-0.293l2.828-2.828c0.391-0.391,0.391-1.023,0-1.414S11.713,44.873,11.322,45.264z"/>
	<path fill="#010101" d="M46.678,45.264c-0.391-0.391-1.023-0.391-1.414,0s-0.391,1.023,0,1.414l2.828,2.828
		c0.195,0.195,0.451,0.293,0.707,0.293s0.512-0.098,0.707-0.293c0.391-0.391,0.391-1.023,0-1.414L46.678,45.264z"/>
</g>
</svg>
