<?xml version="1.0" encoding="utf-8"?>
<!-- Generator: Adobe Illustrator 17.0.0, SVG Export Plug-In . SVG Version: 6.00 Build 0)  -->
<!DOCTYPE svg PUBLIC "-//W3C//DTD SVG 1.1//EN" "http://www.w3.org/Graphics/SVG/1.1/DTD/svg11.dtd">
<svg version="1.1" id="Layer_1" xmlns="http://www.w3.org/2000/svg" xmlns:xlink="http://www.w3.org/1999/xlink" x="0px" y="0px"
	 width="60px" height="60px" viewBox="0 0 60 60" enable-background="new 0 0 60 60" xml:space="preserve">
<g>
	<path fill="#010101" d="M32,45.142V18c0-0.552-0.448-1-1-1s-1,0.448-1,1v27.142c-1.72,0.447-3,2-3,3.858c0,2.206,1.794,4,4,4
		s4-1.794,4-4C35,47.142,33.72,45.589,32,45.142z M31,51c-1.103,0-2-0.897-2-2s0.897-2,2-2s2,0.897,2,2S32.103,51,31,51z"/>
	<path fill="#010101" d="M38,40.529V7c0-3.86-3.14-7-7-7s-7,3.14-7,7v33.529c-2.548,2.101-4,5.16-4,8.471c0,6.065,4.935,11,11,11
		s11-4.935,11-11C42,45.689,40.548,42.629,38,40.529z M31,58c-4.962,0-9-4.038-9-9c0-2.846,1.312-5.465,3.601-7.187
		C25.852,41.624,26,41.328,26,41.014V7c0-2.757,2.243-5,5-5s5,2.243,5,5v34.014c0,0.314,0.148,0.61,0.399,0.799
		C38.688,43.535,40,46.154,40,49C40,53.962,35.962,58,31,58z"/>
</g>
</svg>
