<?xml version="1.0" encoding="utf-8"?>
<!-- Generator: Adobe Illustrator 17.0.0, SVG Export Plug-In . SVG Version: 6.00 Build 0)  -->
<!DOCTYPE svg PUBLIC "-//W3C//DTD SVG 1.1//EN" "http://www.w3.org/Graphics/SVG/1.1/DTD/svg11.dtd">
<svg version="1.1" id="Layer_1" xmlns="http://www.w3.org/2000/svg" xmlns:xlink="http://www.w3.org/1999/xlink" x="0px" y="0px"
	 width="60px" height="60px" viewBox="0 0 60 60" enable-background="new 0 0 60 60" xml:space="preserve">
<g>
	<path fill="#010101" d="M30,6.025V1c0-0.552-0.447-1-1-1s-1,0.448-1,1v5.025C12.472,6.555,0,19.345,0,35c0,0.552,0.447,1,1,1
		s1-0.448,1-1c0-3.69,3.232-5,6-5c3.434,0,6,2.64,6,5c0,0.552,0.447,1,1,1s1-0.448,1-1c0-2.36,2.566-5,6-5s6,2.64,6,5v20
		c0,2.757,2.243,5,5,5s5-2.243,5-5c0-0.552-0.447-1-1-1s-1,0.448-1,1c0,1.654-1.346,3-3,3s-3-1.346-3-3V35c0-2.36,2.566-5,6-5
		s6,2.64,6,5c0,0.552,0.447,1,1,1s1-0.448,1-1c0-2.36,2.566-5,6-5c2.768,0,6,1.31,6,5c0,0.552,0.447,1,1,1s1-0.448,1-1
		C58,19.345,45.528,6.555,30,6.025z M50,28c-2.928,0-5.608,1.544-7,3.72C41.608,29.544,38.928,28,36,28s-5.608,1.544-7,3.72
		C27.608,29.544,24.928,28,22,28s-5.608,1.544-7,3.72C13.608,29.544,10.928,28,8,28c-2.214,0-4.092,0.603-5.471,1.664
		C5.014,17.323,15.938,8,29,8s23.986,9.323,26.471,21.664C54.092,28.603,52.214,28,50,28z"/>
</g>
</svg>
