<?xml version="1.0" encoding="utf-8"?>
<!-- Generator: Adobe Illustrator 17.0.0, SVG Export Plug-In . SVG Version: 6.00 Build 0)  -->
<!DOCTYPE svg PUBLIC "-//W3C//DTD SVG 1.1//EN" "http://www.w3.org/Graphics/SVG/1.1/DTD/svg11.dtd">
<svg version="1.1" id="Layer_1" xmlns="http://www.w3.org/2000/svg" xmlns:xlink="http://www.w3.org/1999/xlink" x="0px" y="0px"
	 width="60px" height="60px" viewBox="0 0 60 60" enable-background="new 0 0 60 60" xml:space="preserve">
<g>
	<path fill="#010101" d="M41.786,0.562C39.873,0.189,37.926,0,36,0C19.458,0,6,13.458,6,30s13.458,30,30,30
		c1.933,0,3.88-0.189,5.787-0.563c0.198-0.039,0.379-0.137,0.521-0.281C49.738,51.593,54,40.966,54,30
		c0-10.96-4.261-21.587-11.691-29.157C42.167,0.699,41.985,0.601,41.786,0.562z M41.098,57.532C39.415,57.842,37.702,58,36,58
		C20.561,58,8,45.439,8,30S20.561,2,36,2c1.695,0,3.409,0.157,5.098,0.468C48.03,9.651,52,19.667,52,30
		C52,40.186,47.93,50.452,41.098,57.532z"/>
</g>
</svg>
