<?xml version="1.0" encoding="utf-8"?>
<!-- Generator: Adobe Illustrator 17.0.0, SVG Export Plug-In . SVG Version: 6.00 Build 0)  -->
<!DOCTYPE svg PUBLIC "-//W3C//DTD SVG 1.1//EN" "http://www.w3.org/Graphics/SVG/1.1/DTD/svg11.dtd">
<svg version="1.1" id="Layer_1" xmlns="http://www.w3.org/2000/svg" xmlns:xlink="http://www.w3.org/1999/xlink" x="0px" y="0px"
	 width="60px" height="60px" viewBox="0 0 60 60" enable-background="new 0 0 60 60" xml:space="preserve">
<g>
	<path fill="#010101" d="M24,0c-1.926,0-3.872,0.189-5.786,0.562c-0.198,0.039-0.381,0.137-0.522,0.281C10.262,8.413,6,19.04,6,30
		c0,10.966,4.262,21.593,11.692,29.156c0.141,0.144,0.322,0.242,0.521,0.281C20.12,59.811,22.067,60,24,60c16.542,0,30-13.458,30-30
		S40.542,0,24,0z M24,58c-1.701,0-3.415-0.158-5.098-0.468C12.07,50.452,8,40.186,8,30C8,19.667,11.97,9.651,18.901,2.468
		C20.591,2.157,22.305,2,24,2c15.439,0,28,12.561,28,28S39.439,58,24,58z"/>
</g>
</svg>
