<?xml version="1.0" encoding="utf-8"?>
<!-- Generator: Adobe Illustrator 17.0.0, SVG Export Plug-In . SVG Version: 6.00 Build 0)  -->
<!DOCTYPE svg PUBLIC "-//W3C//DTD SVG 1.1//EN" "http://www.w3.org/Graphics/SVG/1.1/DTD/svg11.dtd">
<svg version="1.1" id="Layer_2" xmlns="http://www.w3.org/2000/svg" xmlns:xlink="http://www.w3.org/1999/xlink" x="0px" y="0px"
	 width="60px" height="60px" viewBox="0 0 60 60" enable-background="new 0 0 60 60" xml:space="preserve">
<g>
	<path fill="#010101" d="M45.6,18.262C42.54,12.371,36.385,8.6,29.739,8.6c-9.075,0-16.664,6.823-17.735,15.725
		c-0.325-0.031-0.65-0.048-0.974-0.048C5.499,24.276,1,28.784,1,34.324c0,9.126,8.565,9.589,10.283,9.589
		c0.224,0,0.369-0.008,0.379-0.009l5.159,0c-0.1-0.651-0.168-1.312-0.168-1.991c0-5.894,3.767-10.899,9.165-12.48
		c-0.244-0.466-0.361-0.989-0.336-1.529c0.038-0.802,0.385-1.539,0.978-2.078c1.176-1.071,3.164-0.979,4.236,0.198l5.403,5.936
		l-5.448,5.717c-1.093,1.151-3.085,1.203-4.241,0.104c-0.464-0.442-0.769-1.008-0.882-1.625c-1.79,1.269-2.876,3.37-2.876,5.757
		c0,0.691,0.104,1.358,0.29,1.99l13.595-0.002c0.185-0.632,0.289-1.298,0.289-1.988c0-1.245-0.328-2.469-0.948-3.537
		c-0.83-1.432-0.341-3.27,1.089-4.101c0.457-0.265,0.978-0.405,1.505-0.405c1.067,0,2.061,0.572,2.596,1.494
		c1.15,1.982,1.757,4.247,1.757,6.549c0,0.678-0.068,1.338-0.167,1.988l4.052,0c0.118-0.01,11.768-1.16,11.768-12.592
		C58.478,24.167,52.716,18.348,45.6,18.262z"/>
	<path fill="#010101" d="M39.339,36.368c-0.266-0.46-0.905-0.631-1.368-0.362c-0.477,0.276-0.639,0.89-0.362,1.366
		c0.597,1.03,0.983,2.17,1.139,3.351c0.052,0.393,0.078,0.791,0.078,1.19c0,0.313-0.016,0.623-0.047,0.928
		c-0.187,1.831-0.919,3.502-2.031,4.849c-0.185,0.225-0.381,0.44-0.587,0.646c-0.411,0.411-0.862,0.784-1.345,1.111
		c-0.483,0.327-1,0.609-1.543,0.839c-0.543,0.23-1.113,0.409-1.705,0.53C30.977,50.936,30.366,51,29.739,51
		c-1.566,0-3.041-0.398-4.328-1.098c-0.258-0.14-0.508-0.292-0.749-0.455c-0.483-0.327-0.934-0.699-1.345-1.111
		c-0.206-0.206-0.402-0.421-0.587-0.646c-0.256-0.309-0.483-0.641-0.696-0.983c-0.532-0.852-0.929-1.795-1.155-2.804h0
		c-0.144-0.642-0.227-1.306-0.227-1.99c0-3.893,2.399-7.322,5.97-8.534l3.375-1.145l-2.287,2.733
		c-0.158,0.188-0.238,0.418-0.232,0.665c0.007,0.271,0.114,0.513,0.311,0.7c0.384,0.364,1.048,0.349,1.413-0.034l4.164-4.37
		l-4.148-4.559c-0.189-0.207-0.459-0.326-0.74-0.326c-0.249,0-0.488,0.093-0.672,0.26c-0.197,0.18-0.313,0.427-0.326,0.694
		c-0.013,0.266,0.08,0.521,0.259,0.718l1.859,2.044l-1.838,0.285c-5.277,0.818-9.107,5.389-9.107,10.868
		c0,1.91,0.486,3.709,1.34,5.28c0.171,0.314,0.356,0.619,0.556,0.914c0.399,0.59,0.853,1.14,1.355,1.642
		c1.004,1.004,2.199,1.816,3.525,2.379C26.754,52.689,28.211,53,29.739,53c0.764,0,1.51-0.078,2.231-0.226
		c2.884-0.592,5.364-2.307,6.959-4.667c0.598-0.885,1.072-1.86,1.397-2.901c0.325-1.041,0.499-2.147,0.499-3.293
		c0-1.462-0.289-2.906-0.844-4.245C39.797,37.222,39.582,36.788,39.339,36.368z"/>
</g>
</svg>
