<?xml version="1.0" encoding="utf-8"?>
<!-- Generator: Adobe Illustrator 17.0.0, SVG Export Plug-In . SVG Version: 6.00 Build 0)  -->
<!DOCTYPE svg PUBLIC "-//W3C//DTD SVG 1.1//EN" "http://www.w3.org/Graphics/SVG/1.1/DTD/svg11.dtd">
<svg version="1.1" id="Layer_2" xmlns="http://www.w3.org/2000/svg" xmlns:xlink="http://www.w3.org/1999/xlink" x="0px" y="0px"
	 width="60px" height="60px" viewBox="0 0 60 60" enable-background="new 0 0 60 60" xml:space="preserve">
<g>
	<path fill="#010101" d="M45.6,14.662C42.54,8.772,36.385,5,29.739,5c-9.075,0-16.664,6.823-17.735,15.725
		c-0.325-0.031-0.65-0.048-0.974-0.048C5.5,20.677,1,25.185,1,30.725c0,9.126,8.565,9.589,10.283,9.589
		c0.224,0,0.369-0.008,0.379-0.009h1.267c-0.004-0.152-0.023-0.301-0.023-0.454c0-8.822,7.178-16,16-16s16,7.178,16,16
		c0,0.152-0.019,0.299-0.023,0.45l1.828,0c0.118-0.01,11.768-1.16,11.768-12.592C58.479,20.567,52.716,14.748,45.6,14.662z"/>
	<path fill="#010101" d="M28.906,25.851c-7.72,0-14,6.28-14,14s6.28,14,14,14s14-6.28,14-14S36.625,25.851,28.906,25.851z
		 M35.21,41.314H22.601c-0.552,0-1-0.447-1-1s0.448-1,1-1H35.21c0.552,0,1,0.447,1,1S35.762,41.314,35.21,41.314z"/>
</g>
</svg>
