<?xml version="1.0" encoding="utf-8"?>
<!-- Generator: Adobe Illustrator 17.0.0, SVG Export Plug-In . SVG Version: 6.00 Build 0)  -->
<!DOCTYPE svg PUBLIC "-//W3C//DTD SVG 1.1//EN" "http://www.w3.org/Graphics/SVG/1.1/DTD/svg11.dtd">
<svg version="1.1" id="Layer_2" xmlns="http://www.w3.org/2000/svg" xmlns:xlink="http://www.w3.org/1999/xlink" x="0px" y="0px"
	 width="60px" height="60px" viewBox="0 0 60 60" enable-background="new 0 0 60 60" xml:space="preserve">
<g>
	<path fill="#010101" d="M45.121,16.349c-3.06-5.891-9.215-9.662-15.86-9.662c-9.075,0-16.664,6.823-17.735,15.725
		c-0.325-0.031-0.65-0.048-0.974-0.048c-5.531,0-10.031,4.508-10.031,10.048C0.521,41.537,9.087,42,10.804,42
		c0.224,0,0.369-0.008,0.379-0.009l2.078,0C13.266,33.173,20.441,26,29.261,26c8.818,0,15.992,7.171,15.999,15.987h0.972
		C46.35,41.978,58,40.827,58,29.396C58,22.254,52.237,16.435,45.121,16.349z"/>
	<path fill="#010101" d="M29.261,28c-7.72,0-14,6.28-14,14c0,7.72,6.28,14,14,14s14-6.28,14-14C43.261,34.28,36.98,28,29.261,28z
		 M35.261,43h-5v5c0,0.553-0.448,1-1,1s-1-0.447-1-1v-5h-5c-0.552,0-1-0.447-1-1c0-0.553,0.448-1,1-1h5v-5c0-0.553,0.448-1,1-1
		s1,0.447,1,1v5h5c0.552,0,1,0.447,1,1C36.261,42.553,35.813,43,35.261,43z"/>
</g>
</svg>
