<?xml version="1.0" encoding="utf-8"?>
<!-- Generator: Adobe Illustrator 17.0.0, SVG Export Plug-In . SVG Version: 6.00 Build 0)  -->
<!DOCTYPE svg PUBLIC "-//W3C//DTD SVG 1.1//EN" "http://www.w3.org/Graphics/SVG/1.1/DTD/svg11.dtd">
<svg version="1.1" id="Layer_2" xmlns="http://www.w3.org/2000/svg" xmlns:xlink="http://www.w3.org/1999/xlink" x="0px" y="0px"
	 width="60px" height="60px" viewBox="0 0 60 60" enable-background="new 0 0 60 60" xml:space="preserve">
<g>
	<path fill="#010101" d="M45.6,15.662C42.54,9.772,36.385,6,29.739,6c-9.075,0-16.664,6.823-17.735,15.725
		c-0.325-0.031-0.65-0.048-0.974-0.048C5.5,21.677,1,26.185,1,31.725c0,9.126,8.565,9.589,10.283,9.589
		c0.224,0,0.369-0.008,0.379-0.009l3.365,0c0.271-7.758,6.651-13.991,14.474-13.991c7.822,0,14.201,6.231,14.474,13.987l2.736,0
		c0.118-0.01,11.768-1.16,11.768-12.592C58.479,21.567,52.716,15.748,45.6,15.662z"/>
	<path fill="#010101" d="M29.501,29.314c-6.893,0-12.5,5.607-12.5,12.5s5.607,12.5,12.5,12.5c6.893,0,12.5-5.607,12.5-12.5
		S36.394,29.314,29.501,29.314z M36.754,46.649c-1.703,2.266-4.302,3.565-7.131,3.565c-4.775,0-8.673-3.776-8.892-8.497
		l-1.281,1.281c-0.391,0.391-1.023,0.391-1.414,0c-0.391-0.391-0.391-1.023,0-1.414l2.966-2.967c0,0,0.001-0.002,0.002-0.002
		l0.706-0.706l0.706,0.706c0.001,0,0.001,0.001,0.002,0.002l2.966,2.967c0.391,0.391,0.391,1.023,0,1.414
		c-0.195,0.195-0.451,0.293-0.707,0.293c-0.256,0-0.512-0.098-0.707-0.293l-1.237-1.237c0.238,3.597,3.233,6.453,6.889,6.453
		c2.194,0,4.21-1.009,5.532-2.767c0.331-0.441,0.958-0.53,1.4-0.199C36.997,45.58,37.086,46.207,36.754,46.649z M39.796,39.606
		c0.391-0.391,1.024-0.391,1.414,0c0.391,0.391,0.391,1.023,0,1.414l-2.967,2.966l-0.001,0.001l-0.706,0.706l-0.706-0.706
		c0,0-0.001-0.001-0.001-0.001l-2.967-2.966c-0.391-0.391-0.391-1.023,0-1.414c0.391-0.391,1.023-0.391,1.414,0l1.237,1.237
		c-0.238-3.597-3.233-6.454-6.889-6.454c-2.193,0-4.209,1.008-5.53,2.766c-0.331,0.442-0.959,0.53-1.4,0.199
		c-0.442-0.332-0.531-0.959-0.199-1.4c1.702-2.266,4.301-3.564,7.129-3.564c4.774,0,8.672,3.776,8.892,8.498L39.796,39.606z"/>
</g>
</svg>
