<?xml version="1.0" encoding="utf-8"?>
<!-- Generator: Adobe Illustrator 17.0.0, SVG Export Plug-In . SVG Version: 6.00 Build 0)  -->
<!DOCTYPE svg PUBLIC "-//W3C//DTD SVG 1.1//EN" "http://www.w3.org/Graphics/SVG/1.1/DTD/svg11.dtd">
<svg version="1.1" id="Layer_2" xmlns="http://www.w3.org/2000/svg" xmlns:xlink="http://www.w3.org/1999/xlink" x="0px" y="0px"
	 width="60px" height="60px" viewBox="0 0 60 60" enable-background="new 0 0 60 60" xml:space="preserve">
<g>
	<path fill="#010101" d="M45,28h-9.758l-4.12,4.12c-0.281,0.28-0.609,0.5-0.978,0.652C29.78,32.923,29.394,33,29,33
		c-0.396,0-0.784-0.078-1.151-0.231c-0.36-0.148-0.689-0.366-0.971-0.649L22.758,28H13c-2.804,0-5,1.967-5,4.479V48h42V32
		C50,29.607,47.991,28,45,28z"/>
	<path fill="#010101" d="M8,51c0,2.663,2.336,5,5,5h15v2h-5.739c-0.552,0-1,0.447-1,1c0,0.553,0.448,1,1,1h15.13
		c0.552,0,1-0.447,1-1c0-0.553-0.448-1-1-1H30v-2h15c2.617,0,5-2.383,5-5v-1H8V51z"/>
	<path fill="#010101" d="M18.293,20.707l6.666,6.666l3.333,3.333c0.093,0.093,0.201,0.165,0.321,0.214
		c0.258,0.107,0.523,0.105,0.768,0.004c0.125-0.052,0.234-0.124,0.328-0.218l3.333-3.333l6.666-6.666
		c0.098-0.098,0.171-0.21,0.219-0.33C39.974,20.259,40,20.133,40,20c0-0.133-0.026-0.259-0.074-0.376
		c-0.049-0.12-0.122-0.233-0.219-0.331c-0.001-0.001-0.003-0.001-0.004-0.003c-0.383-0.378-1.023-0.378-1.406,0
		c-0.001,0.001-0.003,0.001-0.004,0.003l-4.147,4.147L30,27.586V2c0-0.552-0.449-1-1-1c-0.551,0-1,0.448-1,1v25.586l-4.147-4.146
		l-4.146-4.147c-0.098-0.098-0.21-0.171-0.331-0.219C19.259,19.026,19.133,19,19,19c-0.133,0-0.259,0.026-0.377,0.074
		c-0.12,0.049-0.233,0.122-0.33,0.219c-0.098,0.098-0.171,0.21-0.22,0.331C18.026,19.741,18,19.867,18,20
		c0,0.133,0.026,0.259,0.073,0.377C18.122,20.497,18.195,20.609,18.293,20.707z"/>
</g>
</svg>
