<?xml version="1.0" encoding="utf-8"?>
<!-- Generator: Adobe Illustrator 17.0.0, SVG Export Plug-In . SVG Version: 6.00 Build 0)  -->
<!DOCTYPE svg PUBLIC "-//W3C//DTD SVG 1.1//EN" "http://www.w3.org/Graphics/SVG/1.1/DTD/svg11.dtd">
<svg version="1.1" id="Layer_2" xmlns="http://www.w3.org/2000/svg" xmlns:xlink="http://www.w3.org/1999/xlink" x="0px" y="0px"
	 width="60px" height="60px" viewBox="0 0 60 60" enable-background="new 0 0 60 60" xml:space="preserve">
<g>
	<path fill="#010101" d="M28.586,40.197c0.375,0.375,0.884,0.586,1.414,0.586c0.53,0,1.039-0.211,1.414-0.586l20.174-20.175
		c0.781-0.781,0.781-2.047,0-2.828c-0.781-0.781-2.048-0.781-2.828,0L30,35.955L11.24,17.194c-0.78-0.781-2.048-0.781-2.828,0
		c-0.781,0.781-0.781,2.047,0,2.828L28.586,40.197z"/>
	<path fill="#010101" d="M58,50H2c-1.105,0-2,0.896-2,2c0,1.105,0.895,2,2,2h56c1.104,0,2-0.895,2-2C60,50.896,59.104,50,58,50z"/>
</g>
</svg>
