<?xml version="1.0" encoding="utf-8"?>
<!-- Generator: Adobe Illustrator 17.0.0, SVG Export Plug-In . SVG Version: 6.00 Build 0)  -->
<!DOCTYPE svg PUBLIC "-//W3C//DTD SVG 1.1//EN" "http://www.w3.org/Graphics/SVG/1.1/DTD/svg11.dtd">
<svg version="1.1" id="Layer_2" xmlns="http://www.w3.org/2000/svg" xmlns:xlink="http://www.w3.org/1999/xlink" x="0px" y="0px"
	 width="60px" height="60px" viewBox="0 0 60 60" enable-background="new 0 0 60 60" xml:space="preserve">
<g>
	<path fill="#010101" d="M59,7h-1V3c0-0.553-0.448-1-1-1H39.739V1c0-0.553-0.448-1-1-1H33c-0.552,0-1,0.447-1,1v17.565
		c0,1.944,2.04,3.291,3.93,3.424c0.001,0,0.002,0.001,0.004,0.001c0.095,0.006,0.19,0.01,0.283,0.01l18.958-0.001l0.173,0.004
		c0,0,0,0,0,0c1.253,0,2.438-0.559,3.335-1.572C59.52,19.485,60,18.234,60,17V8C60,7.447,59.552,7,59,7z M39,7c-0.552,0-1,0.447-1,1
		v10.565c0,0.84-0.928,1.427-1.767,1.435l-0.169-0.006C35.133,19.925,34,19.255,34,18.565V2h3.739v1c0,0.553,0.448,1,1,1H56v3H39z"
		/>
	<path fill="#010101" d="M35.217,28h-9.766l-4.543,4.203c-0.172,0.156-0.333,0.257-0.432,0.312c-0.118,0.084-0.284,0.186-0.49,0.269
		c-0.252,0.098-0.503,0.161-0.759,0.191L18.855,33l-0.652-0.094c-0.15-0.026-0.345-0.08-0.546-0.169
		c-0.216-0.094-0.384-0.21-0.487-0.285c-0.122-0.072-0.268-0.18-0.409-0.318L12.59,28H4.782C2.145,28,0,30.146,0,32.783V48h40
		V32.783C40,30.146,37.854,28,35.217,28z"/>
	<path fill="#010101" d="M5,56h14v2h-6.652c-0.552,0-1,0.447-1,1c0,0.553,0.448,1,1,1h15.131c0.552,0,1-0.447,1-1
		c0-0.553-0.448-1-1-1H21v-2h14c2.646,0,5-3.355,5-6H0C0,52.645,2.354,56,5,56z"/>
	<path fill="#010101" d="M13.296,25.884l0.062,0.061l4.952,4.86l0.009,0.009c0.048,0.036,0.094,0.07,0.142,0.092l0.003,0.001
		l0.095,0.026l0.235,0.063l0.018,0.001L18.873,31l0.012,0l0.071-0.007c0.082-0.007,0.16-0.03,0.238-0.056
		c0.016-0.005,0.032-0.005,0.047-0.011c0.003-0.001,0.005-0.001,0.008-0.002l0.218-0.136c0.017-0.01,0.037-0.024,0.056-0.038
		c0.01-0.007,0.02-0.011,0.031-0.02l1.794-1.66l3.417-3.162c0.003-0.003,0.004-0.008,0.008-0.011
		c0.095-0.091,0.171-0.195,0.222-0.308c0.053-0.117,0.084-0.244,0.089-0.377c0.005-0.132-0.016-0.261-0.06-0.381
		c-0.044-0.12-0.111-0.234-0.203-0.334c-0.362-0.394-1.018-0.418-1.409-0.062c-0.002,0.002-0.004,0.002-0.006,0.004l-1.176,1.088
		l-2.421,2.24l0.312-2.686c0.004-0.035,0.015-0.068,0.019-0.103c0.057-0.454,0.139-0.9,0.248-1.339
		c0.015-0.062,0.032-0.123,0.049-0.184c0.12-0.454,0.263-0.899,0.435-1.331c0.008-0.02,0.018-0.04,0.026-0.06
		c0.561-1.384,1.385-2.643,2.424-3.714c0.019-0.019,0.037-0.039,0.056-0.058c0.332-0.337,0.685-0.654,1.059-0.951
		c0.036-0.029,0.073-0.057,0.11-0.086c0.369-0.285,0.753-0.552,1.158-0.793c0.043-0.026,0.088-0.049,0.132-0.074
		c0.413-0.239,0.84-0.459,1.287-0.649c0.003-0.001,0.005-0.003,0.008-0.004c0.014-0.006,0.023-0.018,0.036-0.024
		c0.11-0.052,0.212-0.116,0.292-0.2c0.088-0.09,0.159-0.198,0.209-0.321c0.05-0.122,0.073-0.25,0.073-0.379
		c-0.001-0.129-0.025-0.26-0.079-0.386c-0.21-0.496-0.811-0.749-1.31-0.532c-0.04,0.017-0.077,0.037-0.116,0.054
		c-0.269,0.117-0.534,0.238-0.793,0.37c-0.052,0.027-0.101,0.057-0.153,0.084c-0.251,0.132-0.499,0.268-0.739,0.415
		c-0.013,0.008-0.025,0.017-0.038,0.024c-3.686,2.265-6.086,6.155-6.428,10.475c-0.002,0.023-0.005,0.045-0.007,0.067
		c-0.025,0.331-0.037,0.665-0.037,1.001L17.98,27.71l-0.048-0.048v0.002l-2.747-2.724l-0.481-0.476
		c-0.015-0.015-0.035-0.02-0.051-0.034c-0.385-0.335-1-0.328-1.363,0.039c-0.023,0.023-0.032,0.055-0.053,0.08
		c-0.064,0.079-0.127,0.159-0.164,0.249c-0.048,0.119-0.074,0.248-0.073,0.381c0,0.132,0.027,0.26,0.076,0.378
		C13.126,25.676,13.199,25.788,13.296,25.884z"/>
</g>
</svg>
