<?xml version="1.0" encoding="utf-8"?>
<!-- Generator: Adobe Illustrator 17.0.0, SVG Export Plug-In . SVG Version: 6.00 Build 0)  -->
<!DOCTYPE svg PUBLIC "-//W3C//DTD SVG 1.1//EN" "http://www.w3.org/Graphics/SVG/1.1/DTD/svg11.dtd">
<svg version="1.1" id="Layer_2" xmlns="http://www.w3.org/2000/svg" xmlns:xlink="http://www.w3.org/1999/xlink" x="0px" y="0px"
	 width="60px" height="60px" viewBox="0 0 60 60" enable-background="new 0 0 60 60" xml:space="preserve">
<g>
	<path fill="#231F20" d="M29.286,47.7C29.474,47.892,29.731,48,30,48c0.269,0,0.526-0.108,0.714-0.3l17.652-18
		c0.282-0.287,0.364-0.716,0.208-1.087C48.418,28.241,48.055,28,47.652,28H40V1c0-0.553-0.448-1-1-1H21c-0.552,0-1,0.447-1,1v27
		h-7.652c-0.403,0-0.766,0.241-0.922,0.613c-0.156,0.371-0.074,0.8,0.208,1.087L29.286,47.7z"/>
	<path fill="#231F20" d="M58,44c-1.105,0-2,0.896-2,2v10H4V46c0-1.104-0.896-2-2-2c-1.105,0-2,0.896-2,2v12c0,1.105,0.895,2,2,2h56
		c1.104,0,2-0.895,2-2V46C60,44.896,59.104,44,58,44z"/>
</g>
</svg>
