<?xml version="1.0" encoding="utf-8"?>
<!-- Generator: Adobe Illustrator 17.0.0, SVG Export Plug-In . SVG Version: 6.00 Build 0)  -->
<!DOCTYPE svg PUBLIC "-//W3C//DTD SVG 1.1//EN" "http://www.w3.org/Graphics/SVG/1.1/DTD/svg11.dtd">
<svg version="1.1" id="Layer_2" xmlns="http://www.w3.org/2000/svg" xmlns:xlink="http://www.w3.org/1999/xlink" x="0px" y="0px"
	 width="60px" height="60px" viewBox="0 0 60 60" enable-background="new 0 0 60 60" xml:space="preserve">
<g>
	<path fill="#010101" d="M48.831,39.36c-0.319-0.727-1.038-1.196-1.831-1.196h-9v-7.109c0-1.104-0.896-2-2-2c-1.105,0-2,0.896-2,2
		v9.109c0,1.104,0.895,2,2,2h6.444L30.597,55.051L17.804,42.164H24c1.104,0,2-0.896,2-2v-9.109c0-1.104-0.896-2-2-2
		c-1.105,0-2,0.896-2,2v7.109h-9c-0.808,0-1.536,0.485-1.846,1.231c-0.311,0.745-0.142,1.604,0.427,2.178l17.652,17.781
		c0.376,0.379,0.887,0.591,1.419,0.591c0.013,0,0.025,0,0.039,0c0.546-0.011,1.064-0.244,1.434-0.646l16.348-17.781
		C49.009,40.934,49.15,40.087,48.831,39.36z"/>
	<path fill="#010101" d="M36,27.055c1.104,0,2-0.896,2-2v-6c0-1.104-0.896-2-2-2c-1.105,0-2,0.896-2,2v6
		C34,26.159,34.895,27.055,36,27.055z"/>
	<path fill="#010101" d="M24,27.055c1.104,0,2-0.896,2-2v-6c0-1.104-0.896-2-2-2c-1.105,0-2,0.896-2,2v6
		C22,26.159,22.895,27.055,24,27.055z"/>
	<path fill="#010101" d="M36,14.816c1.104,0,2-0.896,2-2v-2.762c0-1.104-0.896-2-2-2c-1.105,0-2,0.896-2,2v2.762
		C34,13.921,34.895,14.816,36,14.816z"/>
	<path fill="#010101" d="M24,15.077c1.104,0,2-0.896,2-2v-2.762c0-1.104-0.896-2-2-2c-1.105,0-2,0.896-2,2v2.762
		C22,14.182,22.895,15.077,24,15.077z"/>
	<path fill="#010101" d="M36,6.055c1.104,0,2-0.896,2-2v-2c0-1.104-0.896-2-2-2c-1.105,0-2,0.896-2,2v2
		C34,5.159,34.895,6.055,36,6.055z"/>
	<path fill="#010101" d="M24,6.055c1.104,0,2-0.896,2-2v-2c0-1.104-0.896-2-2-2c-1.105,0-2,0.896-2,2v2
		C22,5.159,22.895,6.055,24,6.055z"/>
</g>
</svg>
