<?xml version="1.0" encoding="utf-8"?>
<!-- Generator: Adobe Illustrator 17.0.0, SVG Export Plug-In . SVG Version: 6.00 Build 0)  -->
<!DOCTYPE svg PUBLIC "-//W3C//DTD SVG 1.1//EN" "http://www.w3.org/Graphics/SVG/1.1/DTD/svg11.dtd">
<svg version="1.1" id="Layer_2" xmlns="http://www.w3.org/2000/svg" xmlns:xlink="http://www.w3.org/1999/xlink" x="0px" y="0px"
	 width="60px" height="60px" viewBox="0 0 60 60" enable-background="new 0 0 60 60" xml:space="preserve">
<g>
	<path fill="#010101" d="M28.292,31.706c0.093,0.093,0.203,0.166,0.326,0.217C28.74,31.973,28.87,32,29,32
		c0.13,0,0.26-0.027,0.382-0.077c0.122-0.051,0.233-0.124,0.326-0.217l9.999-9.999c0.391-0.391,0.391-1.023,0-1.414
		c-0.391-0.391-1.023-0.391-1.414,0L30,28.586V1c0-0.553-0.448-1-1-1c-0.552,0-1,0.447-1,1v27.586l-8.293-8.293
		c-0.391-0.391-1.023-0.391-1.414,0c-0.391,0.391-0.391,1.023,0,1.414L28.292,31.706z"/>
	<path fill="#010101" d="M59.992,44.961c-0.005-0.118-0.024-0.234-0.07-0.344c-0.005-0.012-0.013-0.021-0.019-0.032
		c-0.033-0.071-0.069-0.141-0.118-0.204l-12.609-16C46.987,28.141,46.697,28,46.391,28h-3.783c-0.552,0-1,0.447-1,1
		c0,0.553,0.448,1,1,1h3.297l11.033,14H3.061l11.033-14h2.037c0.552,0,1-0.447,1-1c0-0.553-0.448-1-1-1h-2.522
		c-0.306,0-0.596,0.141-0.786,0.381l-12.608,16c-0.05,0.063-0.086,0.133-0.118,0.204c-0.005,0.012-0.014,0.021-0.019,0.032
		c-0.046,0.11-0.065,0.226-0.07,0.344C0.007,44.975,0,44.986,0,45v10c0,2.757,2.243,5,5,5h50c2.757,0,5-2.243,5-5V45
		C60,44.986,59.993,44.975,59.992,44.961z M50.174,52.218H40.087c-0.552,0-1-0.447-1-1c0-0.553,0.448-1,1-1h10.087
		c0.552,0,1,0.447,1,1C51.174,51.771,50.726,52.218,50.174,52.218z"/>
</g>
</svg>
