<?xml version="1.0" encoding="utf-8"?>
<!-- Generator: Adobe Illustrator 17.1.0, SVG Export Plug-In . SVG Version: 6.00 Build 0)  -->
<!DOCTYPE svg PUBLIC "-//W3C//DTD SVG 1.0//EN" "http://www.w3.org/TR/2001/REC-SVG-20010904/DTD/svg10.dtd">
<svg version="1.0" id="Layer_1" xmlns="http://www.w3.org/2000/svg" xmlns:xlink="http://www.w3.org/1999/xlink" x="0px" y="0px"
	 width="60px" height="60px" viewBox="0 0 60 60" enable-background="new 0 0 60 60" xml:space="preserve">
<g>
	<path d="M45.414,33.586c-0.78-0.781-2.048-0.781-2.828,0L32,44.172V12c0-1.104-0.896-2-2-2s-2,0.896-2,2v32.172L17.414,33.586
		c-0.78-0.781-2.048-0.781-2.828,0c-0.781,0.781-0.781,2.047,0,2.828l14,14C28.976,50.805,29.488,51,30,51s1.024-0.195,1.414-0.586
		l14-14C46.195,35.633,46.195,34.367,45.414,33.586z"/>
	<path d="M58,0H43c-1.104,0-2,0.896-2,2s0.896,2,2,2h13v52H43c-1.104,0-2,0.896-2,2s0.896,2,2,2h15c1.104,0,2-0.896,2-2V2
		C60,0.896,59.104,0,58,0z"/>
	<path d="M14.608,56H4V4h10.608c1.104,0,2-0.895,2-2s-0.896-2-2-2H2C0.896,0,0,0.896,0,2v56c0,1.104,0.896,2,2,2h12.608
		c1.104,0,2-0.896,2-2S15.713,56,14.608,56z"/>
</g>
</svg>
