<?xml version="1.0" encoding="utf-8"?>
<!-- Generator: Adobe Illustrator 17.0.0, SVG Export Plug-In . SVG Version: 6.00 Build 0)  -->
<!DOCTYPE svg PUBLIC "-//W3C//DTD SVG 1.1//EN" "http://www.w3.org/Graphics/SVG/1.1/DTD/svg11.dtd">
<svg version="1.1" id="Layer_2" xmlns="http://www.w3.org/2000/svg" xmlns:xlink="http://www.w3.org/1999/xlink" x="0px" y="0px"
	 width="60px" height="60px" viewBox="0 0 60 60" enable-background="new 0 0 60 60" xml:space="preserve">
<g>
	<path fill="#010101" d="M28.297,40.832c0.364,0.592,1.009,0.952,1.703,0.952c0.694,0,1.339-0.36,1.703-0.952L51.877,8.049
		c0.579-0.94,0.286-2.172-0.655-2.751c-0.942-0.58-2.174-0.286-2.751,0.655L30,35.968L11.529,5.953
		c-0.579-0.941-1.81-1.235-2.752-0.655c-0.94,0.579-1.234,1.811-0.655,2.751L28.297,40.832z"/>
	<path fill="#010101" d="M58,50.001H2c-1.105,0-2,0.896-2,2s0.895,2,2,2h56c1.104,0,2-0.896,2-2S59.104,50.001,58,50.001z"/>
</g>
</svg>
