<?xml version="1.0" encoding="utf-8"?>
<!-- Generator: Adobe Illustrator 17.0.0, SVG Export Plug-In . SVG Version: 6.00 Build 0)  -->
<!DOCTYPE svg PUBLIC "-//W3C//DTD SVG 1.1//EN" "http://www.w3.org/Graphics/SVG/1.1/DTD/svg11.dtd">
<svg version="1.1" id="Layer_2" xmlns="http://www.w3.org/2000/svg" xmlns:xlink="http://www.w3.org/1999/xlink" x="0px" y="0px"
	 width="60px" height="60px" viewBox="0 0 60 60" enable-background="new 0 0 60 60" xml:space="preserve">
<g>
	<path fill="#010101" d="M5,56h14v2h-6.652c-0.552,0-1,0.447-1,1c0,0.553,0.448,1,1,1h15.131c0.552,0,1-0.447,1-1
		c0-0.553-0.448-1-1-1H21v-2h14c2.646,0,5-3.355,5-6H0C0,52.645,2.354,56,5,56z"/>
	<path fill="#010101" d="M35.217,28h-8.51l-4.543,4.203c-0.172,0.156-0.333,0.257-0.432,0.312c-0.118,0.084-0.284,0.186-0.49,0.269
		c-0.251,0.098-0.503,0.161-0.759,0.191L20.111,33l-0.652-0.094c-0.15-0.026-0.345-0.08-0.546-0.169
		c-0.216-0.094-0.384-0.21-0.487-0.285c-0.122-0.072-0.269-0.18-0.409-0.318L13.846,28H4.782C2.145,28,0,30.146,0,32.783V48h40
		V32.783C40,30.146,37.854,28,35.217,28z"/>
	<path fill="#010101" d="M59.707,7.858l-7.565-7.565C51.954,0.106,51.7,0,51.435,0H41c-0.552,0-1,0.447-1,1v22c0,0.553,0.448,1,1,1
		h18c0.552,0,1-0.447,1-1V8.565C60,8.3,59.894,8.046,59.707,7.858z M51.422,8.578L51.435,1L59,8.565L51.422,8.578z"/>
	<path fill="#010101" d="M14.552,25.884l0.074,0.074l4.939,4.847l0.01,0.01c0.048,0.036,0.094,0.07,0.142,0.092l0.003,0.001
		l0.093,0.025l0.238,0.064l0.018,0.001L20.129,31l0.012,0l0.071-0.007c0.082-0.007,0.16-0.03,0.238-0.056
		c0.016-0.005,0.032-0.005,0.048-0.011c0.002-0.001,0.005-0.001,0.007-0.002l0.218-0.136c0.017-0.009,0.036-0.024,0.055-0.037
		c0.011-0.007,0.021-0.011,0.032-0.022l5.211-4.821c0.013-0.012,0.018-0.029,0.03-0.042c0.082-0.084,0.153-0.175,0.2-0.277
		c0.053-0.117,0.084-0.244,0.089-0.377c0.005-0.132-0.016-0.261-0.059-0.382c-0.04-0.11-0.106-0.213-0.187-0.307
		c-0.007-0.008-0.009-0.019-0.016-0.027c-0.36-0.392-1.01-0.416-1.402-0.067c-0.004,0.004-0.009,0.004-0.013,0.008l-2.871,2.656
		l-0.727,0.672l0.312-2.686c0.004-0.036,0.015-0.069,0.019-0.105c0.057-0.452,0.139-0.898,0.247-1.335
		c0.016-0.063,0.033-0.125,0.05-0.188c0.12-0.453,0.263-0.896,0.435-1.328c0.009-0.022,0.019-0.043,0.027-0.064
		c0.56-1.382,1.384-2.641,2.422-3.71c0.02-0.02,0.038-0.04,0.058-0.06c0.331-0.337,0.684-0.653,1.057-0.949
		c0.037-0.03,0.075-0.058,0.113-0.087c0.368-0.284,0.752-0.55,1.156-0.792c0.044-0.026,0.09-0.05,0.134-0.075
		c0.412-0.238,0.838-0.458,1.284-0.648c0.003-0.001,0.006-0.003,0.009-0.005c0.017-0.007,0.027-0.021,0.043-0.029
		c0.107-0.052,0.206-0.113,0.285-0.194c0.088-0.091,0.159-0.198,0.209-0.321c0.05-0.122,0.074-0.251,0.073-0.379
		c0-0.129-0.025-0.26-0.079-0.386c-0.21-0.496-0.812-0.749-1.31-0.532c-0.034,0.014-0.066,0.031-0.099,0.046
		c-0.275,0.119-0.546,0.243-0.81,0.378c-0.05,0.025-0.097,0.054-0.146,0.08c-0.253,0.134-0.504,0.271-0.746,0.419
		c-0.011,0.007-0.021,0.014-0.033,0.021c-3.691,2.266-6.095,6.162-6.434,10.487c-0.001,0.019-0.004,0.037-0.005,0.056
		c-0.025,0.332-0.038,0.666-0.037,1.003l-0.064,1.324l-0.049-0.048v0.002l-2.895-2.872l-0.332-0.329
		c-0.013-0.013-0.03-0.017-0.044-0.029c-0.385-0.341-1.005-0.335-1.371,0.035c-0.017,0.017-0.023,0.041-0.039,0.059
		c-0.072,0.084-0.138,0.172-0.177,0.27c-0.048,0.119-0.074,0.248-0.073,0.38c0.001,0.132,0.027,0.26,0.076,0.378
		C14.382,25.676,14.455,25.788,14.552,25.884z"/>
</g>
</svg>
