<?xml version="1.0" encoding="utf-8"?>
<!-- Generator: Adobe Illustrator 17.0.0, SVG Export Plug-In . SVG Version: 6.00 Build 0)  -->
<!DOCTYPE svg PUBLIC "-//W3C//DTD SVG 1.1//EN" "http://www.w3.org/Graphics/SVG/1.1/DTD/svg11.dtd">
<svg version="1.1" id="Layer_2" xmlns="http://www.w3.org/2000/svg" xmlns:xlink="http://www.w3.org/1999/xlink" x="0px" y="0px"
	 width="60px" height="60px" viewBox="0 0 60 60" enable-background="new 0 0 60 60" xml:space="preserve">
<path fill="#010101" d="M59,0H1C0.448,0,0,0.447,0,1v58c0,0.553,0.448,1,1,1h58c0.552,0,1-0.447,1-1V1C60,0.447,59.552,0,59,0z
	 M36,6.043c0-0.553,0.448-1,1-1c0.552,0,1,0.447,1,1v5.044c0,0.553-0.448,1-1,1c-0.552,0-1-0.447-1-1V6.043z M36,16.131
	c0-0.553,0.448-1,1-1c0.552,0,1,0.447,1,1v5.043c0,0.553-0.448,1-1,1c-0.552,0-1-0.447-1-1V16.131z M22,6.043c0-0.553,0.448-1,1-1
	c0.552,0,1,0.447,1,1v5.044c0,0.553-0.448,1-1,1c-0.552,0-1-0.447-1-1V6.043z M22,16.131c0-0.553,0.448-1,1-1c0.552,0,1,0.447,1,1
	v5.043c0,0.553-0.448,1-1,1c-0.552,0-1-0.447-1-1V16.131z M45.855,33.69l-15.13,15.913c-0.188,0.198-0.451,0.311-0.725,0.311
	c-0.274,0-0.536-0.112-0.725-0.311L14.145,33.69c-0.276-0.29-0.352-0.716-0.194-1.084C14.108,32.238,14.47,32,14.87,32H22v-5.783
	c0-0.553,0.448-1,1-1c0.552,0,1,0.447,1,1V33c0,0.553-0.448,1-1,1h-5.8L30,47.462L42.8,34H37c-0.552,0-1-0.447-1-1v-6.783
	c0-0.553,0.448-1,1-1c0.552,0,1,0.447,1,1V32h7.13c0.4,0,0.761,0.238,0.919,0.606C46.207,32.974,46.131,33.399,45.855,33.69z"/>
</svg>
