<?xml version="1.0" encoding="utf-8"?>
<!-- Generator: Adobe Illustrator 17.0.0, SVG Export Plug-In . SVG Version: 6.00 Build 0)  -->
<!DOCTYPE svg PUBLIC "-//W3C//DTD SVG 1.1//EN" "http://www.w3.org/Graphics/SVG/1.1/DTD/svg11.dtd">
<svg version="1.1" id="Layer_2" xmlns="http://www.w3.org/2000/svg" xmlns:xlink="http://www.w3.org/1999/xlink" x="0px" y="0px"
	 width="60px" height="60px" viewBox="0 0 60 60" enable-background="new 0 0 60 60" xml:space="preserve">
<path fill="#010101" d="M30,1C14.009,1,1,14.01,1,30c0,15.99,13.009,29,29,29s29-13.01,29-29C59,14.01,45.991,1,30,1z
	 M43.606,32.329l-12.87,14c-0.005,0.005-0.012,0.007-0.017,0.012c-0.066,0.069-0.148,0.118-0.232,0.166
	c-0.032,0.018-0.057,0.047-0.091,0.062c-0.093,0.041-0.198,0.055-0.304,0.065c-0.03,0.003-0.057,0.019-0.088,0.019
	c-0.001,0-0.003,0-0.005,0c-0.14,0-0.273-0.03-0.394-0.082c-0.026-0.011-0.045-0.033-0.069-0.047
	c-0.092-0.049-0.181-0.103-0.253-0.178c-0.004-0.004-0.01-0.005-0.013-0.01l-13.13-14c-0.378-0.403-0.357-1.036,0.045-1.414
	c0.402-0.377,1.036-0.357,1.414,0.045L29,43.124V12.869c0-0.553,0.448-1,1-1c0.552,0,1,0.447,1,1v30.218l11.133-12.111
	c0.374-0.406,1.007-0.434,1.413-0.06C43.953,31.29,43.979,31.923,43.606,32.329z"/>
</svg>
