<?xml version="1.0" encoding="utf-8"?>
<!-- Generator: Adobe Illustrator 17.0.0, SVG Export Plug-In . SVG Version: 6.00 Build 0)  -->
<!DOCTYPE svg PUBLIC "-//W3C//DTD SVG 1.1//EN" "http://www.w3.org/Graphics/SVG/1.1/DTD/svg11.dtd">
<svg version="1.1" id="Layer_2" xmlns="http://www.w3.org/2000/svg" xmlns:xlink="http://www.w3.org/1999/xlink" x="0px" y="0px"
	 width="60px" height="60px" viewBox="0 0 60 60" enable-background="new 0 0 60 60" xml:space="preserve">
<g>
	<path fill="#010101" d="M56.533,4.066h-46C10.018,4.066,9.6,4.484,9.6,5v26c0,0.516,0.418,0.934,0.933,0.934h46
		c0.515,0,0.933-0.418,0.933-0.934V5C57.467,4.484,57.049,4.066,56.533,4.066z M31.533,11h4v4h-4V11z M15.533,25h-4.067v-4h4.067V25
		z M15.533,15h-4.067v-4h4.067V15z M20.533,30.066h-4V26h4V30.066z M20.533,20h-4v-4h4V20z M20.533,10h-4V5.934h4V10z M25.533,25h-4
		v-4h4V25z M25.533,15h-4v-4h4V15z M30.533,30.066h-4V26h4V30.066z M30.533,20h-4v-4h4V20z M30.533,10h-4V5.934h4V10z M35.577,25
		h-4.043v-4h4.043V25z M40.533,30.066h-4V26h4V30.066z M40.533,20h-4v-4h4V20z M40.533,10h-4V5.934h4V10z M45.533,25h-3.957v-4
		h3.957V25z M45.533,15h-4v-4h4V15z M50.533,30.066h-4V26h4V30.066z M50.533,20h-4v-4h4V20z M50.533,10h-4V5.934h4V10z M55.6,25
		h-4.067v-4H55.6V25z M55.6,15h-4.067v-4H55.6V15z"/>
	<path fill="#010101" d="M4.533,0c-1.104,0-2,0.896-2,2v56c0,1.105,0.896,2,2,2c1.105,0,2-0.895,2-2V2C6.533,0.896,5.638,0,4.533,0z
		"/>
</g>
</svg>
