<?xml version="1.0" encoding="utf-8"?>
<!-- Generator: Adobe Illustrator 17.0.0, SVG Export Plug-In . SVG Version: 6.00 Build 0)  -->
<!DOCTYPE svg PUBLIC "-//W3C//DTD SVG 1.1//EN" "http://www.w3.org/Graphics/SVG/1.1/DTD/svg11.dtd">
<svg version="1.1" id="Layer_2" xmlns="http://www.w3.org/2000/svg" xmlns:xlink="http://www.w3.org/1999/xlink" x="0px" y="0px"
	 width="60px" height="60px" viewBox="0 0 60 60" enable-background="new 0 0 60 60" xml:space="preserve">
<path fill="#010101" d="M58,0c-1.105,0-2,0.896-2,2v1H4V2c0-1.104-0.895-2-2-2S0,0.896,0,2v56c0,1.105,0.896,2,2,2s2-0.895,2-2V36
	h52v22c0,1.105,0.895,2,2,2c1.104,0,2-0.895,2-2V2C60,0.896,59.104,0,58,0z M7,34H4v-4h3V34z M7,24H4v-4h3V24z M7,14H4v-4h3V14z
	 M12,29H8v-4h4V29z M12,19H8v-4h4V19z M12,9H8V5h4V9z M17,34h-4v-4h4V34z M17,24h-4v-4h4V24z M17,14h-4v-4h4V14z M22,29h-4v-4h4V29z
	 M22,19h-4v-4h4V19z M22,9h-4V5h4V9z M27,34h-4v-4h4V34z M27,24h-4v-4h4V24z M27,14h-4v-4h4V14z M32,29h-4v-4h4V29z M32,19h-4v-4h4
	V19z M32,9h-4V5h4V9z M37,34h-4v-4h4V34z M37,24h-4v-4h4V24z M37,14h-4v-4h4V14z M42,29h-4v-4h4V29z M42,19h-4v-4h4V19z M42,9h-4V5
	h4V9z M47,34h-4v-4h4V34z M47,24h-4v-4h4V24z M47,14h-4v-4h4V14z M52,29h-4v-4h4V29z M52,19h-4v-4h4V19z M52,9h-4V5h4V9z M56,34h-3
	v-4h3V34z M56,24h-3v-4h3V24z M56,14h-3v-4h3V14z"/>
</svg>
