<?xml version="1.0" encoding="utf-8"?>
<!-- Generator: Adobe Illustrator 17.0.0, SVG Export Plug-In . SVG Version: 6.00 Build 0)  -->
<!DOCTYPE svg PUBLIC "-//W3C//DTD SVG 1.1//EN" "http://www.w3.org/Graphics/SVG/1.1/DTD/svg11.dtd">
<svg version="1.1" id="Layer_2" xmlns="http://www.w3.org/2000/svg" xmlns:xlink="http://www.w3.org/1999/xlink" x="0px" y="0px"
	 width="60px" height="60px" viewBox="0 0 60 60" enable-background="new 0 0 60 60" xml:space="preserve">
<g>
	<path fill="#010101" d="M35.217,28h-9.691l-1.488,1.377c-0.165,0.149-0.316,0.247-0.431,0.312
		c-0.118,0.084-0.285,0.186-0.492,0.269c-0.253,0.098-0.505,0.161-0.758,0.191l-0.372,0.024l-0.651-0.094
		c-0.15-0.026-0.346-0.08-0.547-0.169c-0.216-0.094-0.384-0.21-0.487-0.285c-0.122-0.072-0.269-0.18-0.409-0.318L18.572,28H4.782
		C2.145,28,0,30.146,0,32.783V48h40V32.783C40,30.146,37.854,28,35.217,28z"/>
	<path fill="#010101" d="M5,56h14v2h-6.652c-0.552,0-1,0.447-1,1c0,0.553,0.448,1,1,1h15.131c0.552,0,1-0.447,1-1
		c0-0.553-0.448-1-1-1H21v-2h14c2.646,0,5-3.355,5-6H0C0,52.645,2.354,56,5,56z"/>
	<path fill="#010101" d="M37.998,16H60V4.783C60,2.146,57.854,0,55.217,0H33.756c-0.633,0-1.148,0.515-1.148,1.148v7.02
		C33.324,8.068,34.047,8,34.782,8c1.654,0,3,1.346,3,3c0,1.654-1.346,3-3,3c-0.749,0-1.471,0.11-2.174,0.273v3.165
		c0,2.644,1.865,4.562,4.435,4.562H46v2h-2.652c-0.552,0-1,0.447-1,1c0,0.553,0.448,1,1,1h7.565c0.552,0,1-0.447,1-1
		c0-0.553-0.448-1-1-1H48v-2h7.171c0.114,0.009,0.227,0.013,0.339,0.013c2.273,0,4.137-1.754,4.43-4.013H37.998
		c-0.552,0-1-0.447-1-1C36.998,16.447,37.446,16,37.998,16z"/>
	<path fill="#010101" d="M16.426,23.058l0.056,0.055l4.958,4.866c0.01,0.008,0.022,0.013,0.032,0.021h-0.004
		c0.042,0.031,0.082,0.061,0.124,0.08l0.002,0l0.101,0.027l0.23,0.062l0.018,0.001l0.061,0.003l0.013,0l0.07-0.007
		c0.084-0.007,0.165-0.031,0.246-0.058c0.013-0.004,0.026-0.004,0.039-0.009c0.003-0.001,0.007-0.001,0.01-0.002L22.537,28h-0.005
		c0.004-0.003,0.008-0.005,0.012-0.008c0.037-0.024,0.076-0.043,0.111-0.069c0.01-0.007,0.018-0.01,0.029-0.02l5.212-4.822
		c0.101-0.093,0.177-0.202,0.23-0.32c0.041-0.089,0.055-0.187,0.068-0.285c0.01-0.075,0.008-0.147,0.001-0.222
		c-0.008-0.085-0.01-0.171-0.039-0.249c-0.044-0.122-0.112-0.236-0.206-0.337c-0.35-0.378-0.981-0.406-1.371-0.081
		c-0.013,0.011-0.029,0.014-0.042,0.026l-3.42,3.164v0l-0.178,0.165l0.313-2.688c0.025-0.216,0.068-0.426,0.105-0.639
		c0.022-0.128,0.037-0.259,0.063-0.386c0.312-1.501,0.913-2.885,1.735-4.103c0.005-0.007,0.01-0.013,0.014-0.02
		c0.201-0.297,0.416-0.583,0.643-0.859c0.018-0.022,0.038-0.043,0.056-0.065c0.215-0.257,0.439-0.504,0.674-0.741
		c0.034-0.034,0.07-0.067,0.104-0.101c0.222-0.218,0.452-0.428,0.691-0.628c0.052-0.044,0.106-0.087,0.16-0.13
		c0.225-0.182,0.456-0.355,0.694-0.519c0.073-0.05,0.146-0.099,0.219-0.148c0.224-0.148,0.454-0.287,0.688-0.419
		c0.093-0.052,0.185-0.104,0.279-0.154c0.223-0.117,0.45-0.225,0.68-0.328c0.11-0.049,0.219-0.1,0.331-0.146
		c0.222-0.091,0.449-0.171,0.677-0.248c0.125-0.042,0.248-0.087,0.374-0.126c0.227-0.068,0.46-0.124,0.693-0.178
		c0.131-0.031,0.259-0.066,0.391-0.093c0.25-0.049,0.504-0.083,0.759-0.116c0.119-0.015,0.236-0.038,0.357-0.05
		C34.017,12.021,34.397,12,34.782,12c0.551,0,1-0.448,1-1c0-0.552-0.449-1-1-1c-0.462,0-0.921,0.024-1.375,0.07
		c-0.097,0.01-0.191,0.031-0.287,0.043c-0.172,0.021-0.342,0.048-0.512,0.076v0.003c-0.183,0.03-0.37,0.047-0.55,0.084
		c-0.073,0.015-0.143,0.038-0.215,0.054c-0.369,0.082-0.736,0.171-1.094,0.282c-0.037,0.011-0.073,0.028-0.111,0.04
		c-0.389,0.125-0.772,0.262-1.144,0.419c-0.014,0.006-0.028,0.014-0.042,0.02c-0.392,0.167-0.775,0.351-1.148,0.553
		c-0.019,0.01-0.036,0.023-0.055,0.033c-0.364,0.2-0.719,0.414-1.062,0.645c-0.08,0.054-0.154,0.116-0.232,0.172
		c-0.277,0.195-0.552,0.392-0.813,0.607c-0.337,0.278-0.665,0.573-0.978,0.886c-0.006,0.006-0.011,0.012-0.017,0.018
		c-0.295,0.295-0.576,0.604-0.843,0.925c-0.064,0.077-0.119,0.159-0.181,0.237c-0.204,0.256-0.404,0.515-0.59,0.786
		c-0.062,0.091-0.116,0.187-0.177,0.28c-0.172,0.266-0.341,0.534-0.496,0.812c-0.055,0.1-0.103,0.203-0.156,0.304
		c-0.145,0.279-0.286,0.561-0.412,0.851c-0.046,0.105-0.086,0.213-0.129,0.319c-0.119,0.293-0.23,0.589-0.328,0.892
		c-0.036,0.11-0.068,0.221-0.101,0.333c-0.09,0.303-0.17,0.61-0.239,0.921c-0.026,0.119-0.05,0.237-0.073,0.357
		c-0.058,0.303-0.104,0.61-0.141,0.919c-0.016,0.137-0.034,0.274-0.046,0.412c-0.036,0.399-0.061,0.801-0.061,1.209l-0.064,1.324
		l-0.048-0.048v0.001l-3.228-3.199c-0.382-0.377-1.036-0.375-1.414,0.006c-0.024,0.025-0.035,0.058-0.056,0.085
		c-0.062,0.077-0.124,0.155-0.16,0.243c-0.048,0.119-0.074,0.248-0.073,0.381c0,0.132,0.027,0.26,0.076,0.379
		C16.257,22.85,16.329,22.961,16.426,23.058z"/>
</g>
</svg>
