<?xml version="1.0" encoding="utf-8"?>
<!-- Generator: Adobe Illustrator 17.0.0, SVG Export Plug-In . SVG Version: 6.00 Build 0)  -->
<!DOCTYPE svg PUBLIC "-//W3C//DTD SVG 1.1//EN" "http://www.w3.org/Graphics/SVG/1.1/DTD/svg11.dtd">
<svg version="1.1" id="Layer_2" xmlns="http://www.w3.org/2000/svg" xmlns:xlink="http://www.w3.org/1999/xlink" x="0px" y="0px"
	 width="60px" height="60px" viewBox="0 0 60 60" enable-background="new 0 0 60 60" xml:space="preserve">
<g>
	<path fill="#010101" d="M5.171,56h14v2h-6.652c-0.552,0-1,0.447-1,1c0,0.553,0.448,1,1,1H27.65c0.552,0,1-0.447,1-1
		c0-0.553-0.448-1-1-1h-6.479v-2h14c2.646,0,5-3.355,5-6h-40C0.171,52.645,2.525,56,5.171,56z"/>
	<path fill="#010101" d="M16.592,24.703c0.001,0.001,0.002,0.003,0.003,0.004L19.888,28h0l1.749,1.749
		c0.093,0.093,0.201,0.165,0.321,0.214c0.258,0.107,0.523,0.105,0.768,0.004c0.125-0.052,0.234-0.124,0.328-0.218L24.802,28
		l3.293-3.293c0.098-0.098,0.171-0.21,0.22-0.33c0.048-0.117,0.073-0.244,0.073-0.377c0-0.133-0.026-0.259-0.073-0.376
		c-0.049-0.12-0.122-0.233-0.22-0.331c-0.382-0.382-1.026-0.382-1.41-0.003c-0.001,0.001-0.003,0.001-0.004,0.003l-3.336,3.336
		v-7.346c0-0.286,0.015-0.569,0.043-0.848c0.009-0.088,0.027-0.174,0.039-0.261c0.025-0.189,0.049-0.379,0.086-0.564
		c0.02-0.099,0.049-0.195,0.072-0.293c0.041-0.17,0.08-0.34,0.13-0.505c0.03-0.097,0.067-0.19,0.1-0.285
		c0.056-0.163,0.112-0.326,0.178-0.485c0.037-0.088,0.08-0.172,0.119-0.259c0.073-0.161,0.147-0.321,0.23-0.476
		c0.042-0.078,0.089-0.153,0.133-0.229c0.091-0.158,0.183-0.315,0.284-0.467c0.046-0.069,0.096-0.134,0.143-0.201
		c0.108-0.153,0.219-0.304,0.336-0.45c0.049-0.061,0.102-0.118,0.152-0.177c0.125-0.145,0.252-0.288,0.386-0.424
		c0.052-0.054,0.107-0.104,0.162-0.156c0.139-0.134,0.28-0.265,0.428-0.389c0.059-0.049,0.119-0.096,0.179-0.143
		c0.149-0.119,0.3-0.233,0.457-0.342c0.067-0.047,0.136-0.09,0.205-0.135c0.155-0.1,0.311-0.197,0.472-0.287
		c0.078-0.044,0.158-0.085,0.237-0.126c0.156-0.081,0.315-0.159,0.476-0.23c0.092-0.04,0.184-0.078,0.278-0.116
		c0.154-0.062,0.31-0.119,0.468-0.172c0.107-0.036,0.214-0.068,0.323-0.1c0.15-0.043,0.301-0.082,0.454-0.117
		c0.121-0.028,0.242-0.053,0.365-0.075c0.147-0.027,0.295-0.049,0.444-0.068c0.131-0.017,0.262-0.031,0.394-0.042
		c0.066-0.005,0.131-0.017,0.197-0.021l2.615-0.149l-2.207,2.211c-0.013,0.013-0.018,0.031-0.03,0.044
		c-0.079,0.088-0.148,0.182-0.19,0.286c-0.048,0.117-0.073,0.244-0.073,0.377c0,0.133,0.026,0.259,0.073,0.376
		c0.049,0.12,0.122,0.233,0.219,0.331c0.002,0.002,0.004,0.002,0.006,0.004c0.385,0.377,1.026,0.377,1.408-0.004l3.78-3.779
		c0.095-0.095,0.167-0.202,0.217-0.322c0.052-0.126,0.079-0.255,0.079-0.388c0-0.133-0.026-0.261-0.076-0.382
		c-0.052-0.125-0.124-0.233-0.216-0.324l-3.784-3.784c-0.384-0.383-1.03-0.383-1.414,0c-0.001,0.001-0.001,0.003-0.003,0.004
		c-0.096,0.097-0.169,0.208-0.217,0.326c-0.048,0.117-0.073,0.244-0.073,0.376c0,0.133,0.026,0.259,0.073,0.376
		c0.049,0.12,0.122,0.233,0.219,0.331l0.055,0.055l1.947,1.947L31.78,8.82v0.007c-0.249,0.001-0.494,0.02-0.738,0.038
		c-0.153,0.011-0.306,0.021-0.457,0.039c-0.218,0.025-0.434,0.06-0.648,0.099c-0.113,0.02-0.227,0.039-0.339,0.062
		c-0.27,0.058-0.535,0.127-0.796,0.205c-0.048,0.014-0.096,0.026-0.144,0.041c-4.234,1.338-7.312,5.302-7.312,9.972v7.346
		l-3.336-3.336c-0.098-0.098-0.21-0.171-0.331-0.219C17.561,23.026,17.435,23,17.302,23c-0.133,0-0.259,0.026-0.377,0.074
		c-0.119,0.048-0.23,0.121-0.326,0.216c-0.001,0.002-0.003,0.002-0.004,0.003c-0.003,0.003-0.005,0.009-0.008,0.012
		c-0.091,0.094-0.162,0.2-0.209,0.315c-0.049,0.119-0.075,0.247-0.075,0.38c0,0.133,0.026,0.261,0.075,0.38
		C16.426,24.497,16.497,24.607,16.592,24.703z"/>
	<path fill="#010101" d="M35.388,28H27.63l-3.163,3.163c-0.281,0.28-0.609,0.5-0.977,0.652c-0.364,0.15-0.75,0.228-1.145,0.228
		c-0.396,0-0.783-0.078-1.151-0.231c-0.36-0.147-0.689-0.366-0.971-0.648L17.06,28H4.954c-2.637,0-4.782,2.146-4.782,4.783V48h40
		V32.783C40.171,30.146,38.026,28,35.388,28z"/>
	<path fill="#010101" d="M37.169,16H60V4.783C60,2.146,57.854,0,55.217,0h-22.29c-0.633,0-1.147,0.515-1.147,1.148v1.998
		c0.975-0.205,2.046,0.049,2.773,0.776l3.782,3.782c0.278,0.276,0.497,0.603,0.649,0.971c0.152,0.363,0.23,0.752,0.23,1.151
		c0,0.399-0.078,0.789-0.233,1.157c-0.15,0.362-0.37,0.689-0.651,0.969l-3.778,3.777c-0.727,0.727-1.798,0.981-2.773,0.776v0.932
		c0,2.644,1.865,4.562,4.435,4.562h8.957v2h-2.652c-0.552,0-1,0.447-1,1c0,0.553,0.448,1,1,1h7.565c0.552,0,1-0.447,1-1
		c0-0.553-0.448-1-1-1h-2.913v-2h8c0.114,0.009,0.227,0.013,0.339,0.013c2.273,0,4.137-1.754,4.43-4.013H37.169
		c-0.552,0-1-0.447-1-1C36.169,16.447,36.617,16,37.169,16z"/>
</g>
</svg>
