<?xml version="1.0" encoding="utf-8"?>
<!-- Generator: Adobe Illustrator 17.0.0, SVG Export Plug-In . SVG Version: 6.00 Build 0)  -->
<!DOCTYPE svg PUBLIC "-//W3C//DTD SVG 1.1//EN" "http://www.w3.org/Graphics/SVG/1.1/DTD/svg11.dtd">
<svg version="1.1" id="Layer_2" xmlns="http://www.w3.org/2000/svg" xmlns:xlink="http://www.w3.org/1999/xlink" x="0px" y="0px"
	 width="60px" height="60px" viewBox="0 0 60 60" enable-background="new 0 0 60 60" xml:space="preserve">
<g>
	<path fill="#010101" d="M7.076,25.696h30.576c1.104,0,2-0.896,2-2s-0.895-2-2-2H7.283l6.544-6.348
		c0.793-0.768,0.812-2.035,0.043-2.828c-0.769-0.793-2.035-0.811-2.828-0.043L0.955,22.26c-0.004,0.004-0.006,0.008-0.01,0.012
		c-0.056,0.055-0.102,0.117-0.151,0.178c-0.033,0.04-0.07,0.077-0.099,0.12c-0.046,0.067-0.081,0.142-0.119,0.215
		c-0.021,0.042-0.049,0.081-0.067,0.124c-0.029,0.068-0.047,0.141-0.068,0.213c-0.016,0.054-0.038,0.106-0.05,0.161
		c-0.011,0.052-0.012,0.108-0.019,0.162c-0.01,0.074-0.024,0.146-0.025,0.222l0.001,0.017c0,0.005-0.001,0.009-0.001,0.014
		c0,0.052,0.011,0.101,0.015,0.152c0.006,0.077,0.009,0.154,0.023,0.229c0.014,0.07,0.037,0.135,0.058,0.201
		c0.018,0.058,0.031,0.117,0.054,0.172c0.028,0.069,0.066,0.132,0.101,0.196c0.027,0.049,0.049,0.101,0.08,0.148
		c0.044,0.067,0.097,0.126,0.149,0.187c0.03,0.035,0.053,0.074,0.085,0.106l0.02,0.021l0.001,0.001l10.065,10.37
		c0.392,0.404,0.914,0.607,1.435,0.607c0.502,0,1.004-0.188,1.393-0.564c0.792-0.77,0.812-2.036,0.042-2.828L7.076,25.696z"/>
	<path fill="#010101" d="M59.652,35.905c0-0.115-0.015-0.228-0.035-0.339c-0.073-0.414-0.269-0.785-0.555-1.069
		c-0.001-0.001-0.001-0.002-0.001-0.002L48.974,24.494c-0.785-0.779-2.051-0.774-2.829,0.012c-0.777,0.784-0.772,2.051,0.012,2.828
		l6.637,6.58H22.348c-1.104,0-2,0.895-2,2c0,1.104,0.896,2,2,2h30.505l-6.707,6.766c-0.777,0.784-0.772,2.051,0.012,2.828
		c0.39,0.387,0.899,0.58,1.408,0.58c0.515,0,1.029-0.197,1.42-0.592l10.087-10.174c0.031-0.032,0.055-0.069,0.084-0.103
		c0.055-0.063,0.112-0.125,0.159-0.196c0.029-0.043,0.049-0.092,0.075-0.137c0.038-0.068,0.079-0.134,0.109-0.207
		c0.022-0.053,0.033-0.109,0.051-0.164c0.022-0.069,0.048-0.137,0.063-0.21c0.017-0.087,0.021-0.176,0.027-0.264
		c0.003-0.043,0.013-0.084,0.013-0.127c0-0.002,0-0.003,0-0.003L59.652,35.905z"/>
</g>
</svg>
