<?xml version="1.0" encoding="utf-8"?>
<!-- Generator: Adobe Illustrator 17.0.0, SVG Export Plug-In . SVG Version: 6.00 Build 0)  -->
<!DOCTYPE svg PUBLIC "-//W3C//DTD SVG 1.1//EN" "http://www.w3.org/Graphics/SVG/1.1/DTD/svg11.dtd">
<svg version="1.1" id="Layer_2" xmlns="http://www.w3.org/2000/svg" xmlns:xlink="http://www.w3.org/1999/xlink" x="0px" y="0px"
	 width="60px" height="60px" viewBox="0 0 60 60" enable-background="new 0 0 60 60" xml:space="preserve">
<path fill="#010101" d="M59,0H1C0.448,0,0,0.447,0,1v58c0,0.553,0.448,1,1,1h58c0.552,0,1-0.447,1-1V1C60,0.447,59.552,0,59,0z
	 M24,33.783c0,0.553-0.448,1-1,1c-0.552,0-1-0.447-1-1V10.661l-5.248,5.997c-0.363,0.418-0.995,0.46-1.411,0.095
	c-0.415-0.364-0.458-0.996-0.094-1.411l7-8c0.007-0.008,0.017-0.01,0.024-0.017C22.454,7.127,22.71,7,23,7s0.546,0.127,0.729,0.325
	c0.007,0.007,0.017,0.01,0.024,0.017l7,8c0.364,0.415,0.322,1.047-0.094,1.411C30.469,16.919,30.234,17,30,17
	c-0.278,0-0.555-0.115-0.753-0.342L24,10.661V33.783z M44.752,44.658l-7,8c-0.007,0.008-0.017,0.011-0.025,0.018
	c-0.068,0.073-0.15,0.126-0.237,0.176c-0.031,0.018-0.056,0.046-0.089,0.06C37.278,52.968,37.143,53,37,53
	c-0.143,0-0.278-0.032-0.401-0.087c-0.033-0.015-0.058-0.042-0.089-0.06c-0.087-0.05-0.169-0.103-0.237-0.176
	c-0.007-0.008-0.018-0.011-0.025-0.018l-7-8c-0.364-0.415-0.322-1.047,0.094-1.411c0.416-0.364,1.047-0.322,1.411,0.095L36,49.339
	V26.217c0-0.553,0.448-1,1-1c0.552,0,1,0.447,1,1v23.122l5.248-5.997c0.364-0.416,0.995-0.458,1.411-0.095
	C45.074,43.611,45.116,44.243,44.752,44.658z"/>
</svg>
