<?xml version="1.0" encoding="utf-8"?>
<!-- Generator: Adobe Illustrator 17.0.0, SVG Export Plug-In . SVG Version: 6.00 Build 0)  -->
<!DOCTYPE svg PUBLIC "-//W3C//DTD SVG 1.1//EN" "http://www.w3.org/Graphics/SVG/1.1/DTD/svg11.dtd">
<svg version="1.1" id="Layer_2" xmlns="http://www.w3.org/2000/svg" xmlns:xlink="http://www.w3.org/1999/xlink" x="0px" y="0px"
	 width="60px" height="60px" viewBox="0 0 60 60" enable-background="new 0 0 60 60" xml:space="preserve">
<g>
	<path fill="#010101" d="M32.586,46.585L26,53.171V24c0-1.104-0.896-2-2-2c-1.105,0-2,0.896-2,2v29.172l-6.586-6.586
		c-0.78-0.781-2.048-0.781-2.828,0c-0.781,0.781-0.781,2.047,0,2.828l9.999,9.999c0.093,0.093,0.196,0.177,0.306,0.25
		c0.05,0.033,0.103,0.056,0.155,0.084c0.063,0.034,0.123,0.072,0.19,0.1c0.066,0.027,0.135,0.043,0.203,0.063
		c0.057,0.017,0.112,0.039,0.171,0.05C23.737,59.986,23.869,60,24,60c0.131,0,0.262-0.014,0.392-0.04
		c0.059-0.012,0.114-0.034,0.171-0.05c0.068-0.02,0.137-0.036,0.203-0.063c0.067-0.028,0.127-0.066,0.19-0.1
		c0.052-0.028,0.105-0.051,0.155-0.084c0.11-0.073,0.213-0.157,0.306-0.25l9.999-9.999c0.781-0.781,0.781-2.047,0-2.828
		C34.634,45.804,33.366,45.804,32.586,46.585z"/>
	<path fill="#010101" d="M47.414,10.585l-9.999-9.999c-0.093-0.093-0.196-0.177-0.306-0.25c-0.05-0.034-0.105-0.057-0.158-0.086
		c-0.062-0.034-0.121-0.071-0.187-0.098c-0.067-0.028-0.136-0.044-0.206-0.064c-0.056-0.017-0.11-0.038-0.168-0.05
		c-0.258-0.052-0.525-0.052-0.784,0c-0.058,0.011-0.112,0.033-0.168,0.05c-0.069,0.02-0.138,0.036-0.205,0.064
		c-0.066,0.027-0.125,0.065-0.188,0.099c-0.052,0.028-0.107,0.051-0.157,0.085c-0.11,0.074-0.213,0.157-0.306,0.25l-9.999,9.999
		c-0.781,0.781-0.781,2.047,0,2.828c0.78,0.781,2.048,0.781,2.828,0L34,6.828V35c0,1.104,0.895,2,2,2c1.104,0,2-0.896,2-2V6.828
		l6.586,6.586C44.976,13.804,45.488,14,46,14c0.512,0,1.024-0.195,1.414-0.586C48.195,12.632,48.195,11.367,47.414,10.585z"/>
</g>
</svg>
