<?xml version="1.0" encoding="utf-8"?>
<!-- Generator: Adobe Illustrator 17.0.0, SVG Export Plug-In . SVG Version: 6.00 Build 0)  -->
<!DOCTYPE svg PUBLIC "-//W3C//DTD SVG 1.1//EN" "http://www.w3.org/Graphics/SVG/1.1/DTD/svg11.dtd">
<svg version="1.1" id="Layer_2" xmlns="http://www.w3.org/2000/svg" xmlns:xlink="http://www.w3.org/1999/xlink" x="0px" y="0px"
	 width="60px" height="60px" viewBox="0 0 60 60" enable-background="new 0 0 60 60" xml:space="preserve">
<path fill="#010101" d="M58.446,29.293L30.707,1.554c-0.391-0.391-1.023-0.391-1.414,0L1.554,29.293
	c-0.391,0.391-0.391,1.023,0,1.414l27.739,27.739c0.195,0.195,0.451,0.293,0.707,0.293c0.256,0,0.512-0.098,0.707-0.293
	l27.739-27.739C58.837,30.316,58.837,29.684,58.446,29.293z M36.508,34.081c0.364-0.416,0.995-0.458,1.411-0.095
	c0.416,0.364,0.458,0.996,0.094,1.411l-7,8c-0.007,0.008-0.017,0.011-0.025,0.018c-0.068,0.073-0.15,0.127-0.237,0.177
	c-0.031,0.018-0.056,0.046-0.09,0.06c-0.123,0.054-0.258,0.087-0.401,0.087c-0.143,0-0.278-0.033-0.401-0.087
	c-0.033-0.015-0.058-0.042-0.09-0.06c-0.087-0.05-0.169-0.104-0.237-0.177c-0.007-0.008-0.018-0.01-0.025-0.018l-7-8
	c-0.364-0.415-0.322-1.047,0.094-1.411c0.416-0.365,1.047-0.323,1.411,0.095l5.248,5.997V19.401l-5.248,5.997
	c-0.363,0.417-0.994,0.459-1.411,0.095c-0.416-0.364-0.458-0.996-0.094-1.411l7-8c0.007-0.008,0.017-0.01,0.024-0.017
	c0.183-0.197,0.439-0.325,0.729-0.325c0.29,0,0.546,0.127,0.729,0.325c0.007,0.007,0.017,0.01,0.024,0.017l7,8
	c0.364,0.415,0.322,1.047-0.094,1.411c-0.19,0.166-0.425,0.247-0.658,0.247c-0.278,0-0.555-0.115-0.753-0.342l-5.248-5.997v20.677
	L36.508,34.081z"/>
</svg>
