<?xml version="1.0" encoding="utf-8"?>
<!-- Generator: Adobe Illustrator 17.0.0, SVG Export Plug-In . SVG Version: 6.00 Build 0)  -->
<!DOCTYPE svg PUBLIC "-//W3C//DTD SVG 1.1//EN" "http://www.w3.org/Graphics/SVG/1.1/DTD/svg11.dtd">
<svg version="1.1" id="Layer_2" xmlns="http://www.w3.org/2000/svg" xmlns:xlink="http://www.w3.org/1999/xlink" x="0px" y="0px"
	 width="60px" height="60px" viewBox="0 0 60 60" enable-background="new 0 0 60 60" xml:space="preserve">
<path fill="#010101" d="M30,0C13.458,0,0,13.458,0,30s13.458,30,30,30s30-13.458,30-30S46.542,0,30,0z M22.659,45.247
	c0.415,0.364,0.457,0.996,0.094,1.411C22.555,46.885,22.278,47,21.999,47c-0.233,0-0.468-0.081-0.658-0.247l-8-7
	c-0.008-0.007-0.011-0.018-0.019-0.026c-0.072-0.067-0.125-0.15-0.175-0.236c-0.018-0.031-0.046-0.056-0.06-0.089
	C13.032,39.278,13,39.144,13,39c0-0.144,0.032-0.278,0.087-0.402c0.014-0.033,0.042-0.057,0.06-0.088
	c0.05-0.086,0.103-0.169,0.175-0.237c0.008-0.008,0.011-0.019,0.019-0.026l8-7c0.416-0.365,1.047-0.322,1.411,0.095
	c0.364,0.415,0.322,1.047-0.094,1.411L16.661,38h18.121c0.552,0,1,0.447,1,1c0,0.553-0.448,1-1,1H16.661L22.659,45.247z M48,21.011
	c-0.001,0.087-0.03,0.168-0.053,0.25c-0.012,0.043-0.01,0.09-0.027,0.131c-0.008,0.018-0.024,0.031-0.032,0.048
	c-0.049,0.099-0.107,0.194-0.185,0.271c-0.001,0.001-0.002,0.003-0.003,0.004l-8,7.826c-0.194,0.19-0.447,0.285-0.699,0.285
	c-0.26,0-0.519-0.101-0.715-0.301c-0.386-0.394-0.379-1.028,0.016-1.414L44.548,22H27.217c-0.552,0-1-0.447-1-1c0-0.553,0.448-1,1-1
	h17.405l-6.337-6.475c-0.386-0.395-0.379-1.027,0.015-1.414c0.395-0.387,1.027-0.38,1.415,0.016l7.992,8.166l0.001,0.001
	l0.007,0.008c0.03,0.031,0.044,0.073,0.07,0.107c0.051,0.068,0.106,0.133,0.139,0.213c0.031,0.075,0.036,0.157,0.048,0.238
	C47.978,20.907,48,20.95,48,21c0,0-0.001,0.003-0.001,0.005L48,21.011z"/>
</svg>
