<?xml version="1.0" encoding="utf-8"?>
<!-- Generator: Adobe Illustrator 17.0.0, SVG Export Plug-In . SVG Version: 6.00 Build 0)  -->
<!DOCTYPE svg PUBLIC "-//W3C//DTD SVG 1.1//EN" "http://www.w3.org/Graphics/SVG/1.1/DTD/svg11.dtd">
<svg version="1.1" id="Layer_2" xmlns="http://www.w3.org/2000/svg" xmlns:xlink="http://www.w3.org/1999/xlink" x="0px" y="0px"
	 width="60px" height="60px" viewBox="0 0 60 60" enable-background="new 0 0 60 60" xml:space="preserve">
<path fill="#010101" d="M59,0H1C0.448,0,0,0.447,0,1v58c0,0.553,0.448,1,1,1h58c0.552,0,1-0.447,1-1V1C60,0.447,59.552,0,59,0z
	 M37.198,31.779L21.373,48h7.367c0.552,0,1,0.447,1,1c0,0.553-0.448,1-1,1H19c-0.129,0-0.258-0.027-0.379-0.077
	c-0.078-0.032-0.14-0.085-0.207-0.135c-0.036-0.027-0.079-0.041-0.112-0.073c-0.001-0.001-0.002-0.003-0.003-0.005
	c-0.093-0.091-0.169-0.2-0.22-0.322c-0.052-0.122-0.076-0.252-0.077-0.382c0-0.002-0.001-0.004-0.001-0.004V38.826
	c0-0.553,0.448-1,1-1s1,0.447,1,1v7.717l15.767-16.16c0.386-0.396,1.02-0.401,1.414-0.018
	C37.576,30.751,37.584,31.384,37.198,31.779z M40,21.087c0,0.553-0.448,1-1,1s-1-0.447-1-1v-7.552L22.985,29.602
	c-0.197,0.211-0.463,0.317-0.73,0.317c-0.245,0-0.49-0.089-0.683-0.269c-0.404-0.377-0.425-1.01-0.048-1.413L36.697,12H30
	c-0.552,0-1-0.447-1-1c0-0.553,0.448-1,1-1h9c0.048,0,0.088,0.021,0.134,0.027c0.079,0.011,0.157,0.017,0.232,0.047
	c0.074,0.029,0.134,0.078,0.198,0.123c0.039,0.027,0.083,0.04,0.119,0.073c0.004,0.004,0.005,0.009,0.009,0.013
	c0.061,0.059,0.103,0.133,0.148,0.206c0.024,0.039,0.058,0.072,0.076,0.113c0.019,0.044,0.02,0.094,0.032,0.141
	c0.021,0.08,0.047,0.158,0.048,0.241C39.997,10.99,40,10.994,40,11V21.087z"/>
</svg>
