<?xml version="1.0" encoding="utf-8"?>
<!-- Generator: Adobe Illustrator 17.0.0, SVG Export Plug-In . SVG Version: 6.00 Build 0)  -->
<!DOCTYPE svg PUBLIC "-//W3C//DTD SVG 1.1//EN" "http://www.w3.org/Graphics/SVG/1.1/DTD/svg11.dtd">
<svg version="1.1" id="Layer_2" xmlns="http://www.w3.org/2000/svg" xmlns:xlink="http://www.w3.org/1999/xlink" x="0px" y="0px"
	 width="60px" height="60px" viewBox="0 0 60 60" enable-background="new 0 0 60 60" xml:space="preserve">
<g>
	<path fill="#010101" d="M48.419,18.428L30.767,0.646c-0.385-0.388-0.903-0.595-1.458-0.591c-0.546,0.011-1.064,0.244-1.434,0.646
		L11.528,18.483c-0.537,0.584-0.678,1.431-0.359,2.157c0.319,0.727,1.038,1.196,1.831,1.196h9v7.108c0,1.104,0.895,2,2,2
		c1.104,0,2-0.896,2-2v-9.108c0-1.104-0.896-2-2-2h-6.445L29.403,4.949l12.793,12.888H36c-1.105,0-2,0.896-2,2v9.108
		c0,1.104,0.895,2,2,2c1.104,0,2-0.896,2-2v-7.108h9c0.808,0,1.536-0.485,1.846-1.231C49.157,19.86,48.988,19.001,48.419,18.428z"/>
	<path fill="#010101" d="M24,32.945c-1.105,0-2,0.896-2,2v6c0,1.104,0.895,2,2,2c1.104,0,2-0.896,2-2v-6
		C26,33.841,25.104,32.945,24,32.945z"/>
	<path fill="#010101" d="M36,32.945c-1.105,0-2,0.896-2,2v6c0,1.104,0.895,2,2,2c1.104,0,2-0.896,2-2v-6
		C38,33.841,37.104,32.945,36,32.945z"/>
	<path fill="#010101" d="M24,45.185c-1.105,0-2,0.896-2,2v2.761c0,1.104,0.895,2,2,2c1.104,0,2-0.896,2-2v-2.761
		C26,46.08,25.104,45.185,24,45.185z"/>
	<path fill="#010101" d="M36,44.924c-1.105,0-2,0.896-2,2v2.762c0,1.104,0.895,2,2,2c1.104,0,2-0.896,2-2v-2.762
		C38,45.819,37.104,44.924,36,44.924z"/>
	<path fill="#010101" d="M24,53.945c-1.105,0-2,0.896-2,2v2c0,1.104,0.895,2,2,2c1.104,0,2-0.896,2-2v-2
		C26,54.841,25.104,53.945,24,53.945z"/>
	<path fill="#010101" d="M36,53.945c-1.105,0-2,0.896-2,2v2c0,1.104,0.895,2,2,2c1.104,0,2-0.896,2-2v-2
		C38,54.841,37.104,53.945,36,53.945z"/>
</g>
</svg>
