<?xml version="1.0" encoding="utf-8"?>
<!-- Generator: Adobe Illustrator 17.1.0, SVG Export Plug-In . SVG Version: 6.00 Build 0)  -->
<!DOCTYPE svg PUBLIC "-//W3C//DTD SVG 1.0//EN" "http://www.w3.org/TR/2001/REC-SVG-20010904/DTD/svg10.dtd">
<svg version="1.0" id="Layer_1" xmlns="http://www.w3.org/2000/svg" xmlns:xlink="http://www.w3.org/1999/xlink" x="0px" y="0px"
	 width="60px" height="60px" viewBox="0 0 60 60" enable-background="new 0 0 60 60" xml:space="preserve">
<g>
	<path d="M45.479,26.414c0.781-0.781,0.781-2.047,0-2.828l-14-14c-0.78-0.781-2.048-0.781-2.828,0l-14,14
		c-0.781,0.781-0.781,2.047,0,2.828c0.78,0.781,2.048,0.781,2.828,0l10.586-10.586V48c0,1.104,0.896,2,2,2c1.105,0,2-0.896,2-2
		V15.828l10.586,10.586C43.042,26.805,43.554,27,44.065,27S45.089,26.805,45.479,26.414z"/>
	<path d="M17,56H4V4h13c1.104,0,2-0.895,2-2s-0.896-2-2-2H2C0.896,0,0,0.896,0,2v56c0,1.104,0.896,2,2,2h15c1.104,0,2-0.896,2-2
		S18.104,56,17,56z"/>
	<path d="M58.065,0H45.457c-1.104,0-2,0.896-2,2s0.896,2,2,2h10.608v52H45.457c-1.104,0-2,0.896-2,2s0.896,2,2,2h12.608
		c1.104,0,2-0.896,2-2V2C60.065,0.896,59.17,0,58.065,0z"/>
</g>
</svg>
