<?xml version="1.0" encoding="utf-8"?>
<!-- Generator: Adobe Illustrator 17.0.0, SVG Export Plug-In . SVG Version: 6.00 Build 0)  -->
<!DOCTYPE svg PUBLIC "-//W3C//DTD SVG 1.1//EN" "http://www.w3.org/Graphics/SVG/1.1/DTD/svg11.dtd">
<svg version="1.1" id="Layer_2" xmlns="http://www.w3.org/2000/svg" xmlns:xlink="http://www.w3.org/1999/xlink" x="0px" y="0px"
	 width="60px" height="60px" viewBox="0 0 60 60" enable-background="new 0 0 60 60" xml:space="preserve">
<g>
	<path fill="#010101" d="M19.735,14.679L30,3.558v28.964c0,0.553,0.448,1,1,1c0.552,0,1-0.447,1-1V3.558l10.265,11.121
		C42.462,14.892,42.731,15,43,15c0.242,0,0.485-0.088,0.678-0.266c0.406-0.374,0.431-1.007,0.057-1.413l-12-13
		c-0.004-0.005-0.011-0.006-0.016-0.011C31.537,0.121,31.284,0,31,0c-0.284,0-0.537,0.121-0.719,0.31
		c-0.005,0.005-0.012,0.006-0.016,0.011l-12,13c-0.375,0.406-0.349,1.039,0.057,1.413C18.728,15.111,19.36,15.084,19.735,14.679z"/>
	<path fill="#010101" d="M59.999,40.998c0-0.13-0.026-0.26-0.077-0.382c-0.051-0.122-0.125-0.232-0.218-0.324l-0.001-0.001
		l-10.087-10C49.43,30.105,49.177,30,48.913,30h-6.304c-0.552,0-1,0.447-1,1c0,0.553,0.448,1,1,1h5.893l8.07,8H41
		c-0.552,0-1,0.447-1,1v0.348V46H20v-4.652V41c0-0.553-0.448-1-1-1H3.429l8.069-8h8.415c0.552,0,1-0.447,1-1c0-0.553-0.448-1-1-1
		h-8.826c-0.264,0-0.517,0.105-0.704,0.29l-10.087,10l-0.001,0.001c-0.093,0.092-0.166,0.202-0.218,0.324
		C0.027,40.738,0.001,40.868,0,40.998L0,41v18c0,0.553,0.448,1,1,1h58c0.552,0,1-0.447,1-1V41L59.999,40.998z"/>
</g>
</svg>
