<?xml version="1.0" encoding="utf-8"?>
<!-- Generator: Adobe Illustrator 17.0.0, SVG Export Plug-In . SVG Version: 6.00 Build 0)  -->
<!DOCTYPE svg PUBLIC "-//W3C//DTD SVG 1.1//EN" "http://www.w3.org/Graphics/SVG/1.1/DTD/svg11.dtd">
<svg version="1.1" id="Layer_2" xmlns="http://www.w3.org/2000/svg" xmlns:xlink="http://www.w3.org/1999/xlink" x="0px" y="0px"
	 width="60px" height="60px" viewBox="0 0 60 60" enable-background="new 0 0 60 60" xml:space="preserve">
<g>
	<path fill="#010101" d="M53.978,37.999h-48c-3.364,0-6,2.636-6,6v9.739c0,3.248,2.621,5.996,6.043,6.261h47.913
		c0.026,0,0.052-0.001,0.078-0.003c3.345-0.262,5.966-3.011,5.966-6.253l0.043-9.701C60.022,40.71,57.311,37.999,53.978,37.999z
		 M46.37,44.912c0.694,0,1.26,0.564,1.26,1.261s-0.567,1.261-1.26,1.261c-0.7,0-1.261-0.563-1.261-1.261S45.67,44.912,46.37,44.912z
		 M51.413,51.999H8.544c-0.552,0-1-0.447-1-1c0-0.553,0.448-1,1-1h42.869c0.552,0,1,0.447,1,1
		C52.413,51.552,51.965,51.999,51.413,51.999z M51.413,47.434c-0.7,0-1.261-0.563-1.261-1.261s0.561-1.261,1.261-1.261
		c0.694,0,1.261,0.564,1.261,1.261S52.107,47.434,51.413,47.434z"/>
	<path fill="#010101" d="M15.685,15.706L27.978,3.413v27.586c0,0.553,0.448,1,1,1c0.552,0,1-0.447,1-1V3.413l12.293,12.293
		c0.195,0.195,0.451,0.293,0.707,0.293c0.256,0,0.512-0.098,0.707-0.293c0.391-0.391,0.391-1.023,0-1.414L29.686,0.293
		c-0.093-0.093-0.203-0.166-0.326-0.217c-0.244-0.101-0.52-0.101-0.764,0c-0.123,0.051-0.233,0.124-0.326,0.217L14.271,14.292
		c-0.391,0.391-0.391,1.023,0,1.414C14.662,16.097,15.295,16.097,15.685,15.706z"/>
</g>
</svg>
