<?xml version="1.0" encoding="utf-8"?>
<!-- Generator: Adobe Illustrator 17.0.0, SVG Export Plug-In . SVG Version: 6.00 Build 0)  -->
<!DOCTYPE svg PUBLIC "-//W3C//DTD SVG 1.1//EN" "http://www.w3.org/Graphics/SVG/1.1/DTD/svg11.dtd">
<svg version="1.1" id="Layer_2" xmlns="http://www.w3.org/2000/svg" xmlns:xlink="http://www.w3.org/1999/xlink" x="0px" y="0px"
	 width="60px" height="60px" viewBox="0 0 60 60" enable-background="new 0 0 60 60" xml:space="preserve">
<g>
	<path fill="#010101" d="M44,28H31v2c0,1.654-1.346,3-3,3s-3-1.346-3-3v-2H12c-2.804,0-5,1.967-5,4.479V48h42V32
		C49,29.607,46.991,28,44,28z"/>
	<path fill="#010101" d="M7,51c0,2.663,2.336,5,5,5h15v2h-5.739c-0.552,0-1,0.447-1,1c0,0.553,0.448,1,1,1h15.13
		c0.552,0,1-0.447,1-1c0-0.553-0.448-1-1-1H29v-2h15c2.617,0,5-2.383,5-5v-1H7V51z"/>
	<path fill="#010101" d="M17.293,12.707c0.003,0.003,0.007,0.004,0.01,0.007c0.382,0.371,1.011,0.371,1.393,0
		c0.003-0.003,0.007-0.004,0.01-0.007L27,4.414V30c0,0.552,0.449,1,1,1s1-0.448,1-1V4.414l8.293,8.293
		c0.003,0.003,0.007,0.004,0.01,0.007c0.382,0.371,1.012,0.371,1.393,0c0.003-0.003,0.007-0.004,0.011-0.007
		c0.098-0.098,0.171-0.21,0.219-0.33C38.974,12.259,39,12.133,39,12c0-0.133-0.026-0.259-0.074-0.376
		c-0.049-0.12-0.122-0.233-0.219-0.331l-5-5l-5-4.999c-0.021-0.021-0.05-0.03-0.073-0.048c-0.077-0.064-0.156-0.127-0.249-0.166
		C28.258,1.027,28.128,1.001,28,1c-0.13,0-0.259,0.027-0.381,0.077c-0.124,0.052-0.234,0.124-0.326,0.217l-5,4.999l-5,5
		c-0.098,0.098-0.171,0.21-0.219,0.331C17.026,11.741,17,11.867,17,12c0,0.133,0.026,0.259,0.073,0.377
		C17.122,12.497,17.195,12.609,17.293,12.707z"/>
</g>
</svg>
