<?xml version="1.0" encoding="utf-8"?>
<!-- Generator: Adobe Illustrator 17.0.0, SVG Export Plug-In . SVG Version: 6.00 Build 0)  -->
<!DOCTYPE svg PUBLIC "-//W3C//DTD SVG 1.1//EN" "http://www.w3.org/Graphics/SVG/1.1/DTD/svg11.dtd">
<svg version="1.1" id="Layer_2" xmlns="http://www.w3.org/2000/svg" xmlns:xlink="http://www.w3.org/1999/xlink" x="0px" y="0px"
	 width="60px" height="60px" viewBox="0 0 60 60" enable-background="new 0 0 60 60" xml:space="preserve">
<g>
	<path fill="#010101" d="M31.632,25.587c-0.093-0.093-0.196-0.177-0.306-0.25c-0.05-0.034-0.105-0.057-0.158-0.086
		c-0.062-0.034-0.121-0.071-0.187-0.098c-0.067-0.028-0.136-0.044-0.205-0.064c-0.056-0.017-0.11-0.038-0.168-0.05
		c-0.259-0.052-0.525-0.052-0.784,0c-0.058,0.011-0.112,0.033-0.169,0.05c-0.069,0.02-0.138,0.036-0.205,0.064
		c-0.066,0.027-0.125,0.065-0.188,0.099c-0.052,0.029-0.107,0.051-0.157,0.085c-0.11,0.073-0.213,0.157-0.306,0.25L14.803,39.586
		c-0.781,0.781-0.781,2.047,0,2.828c0.78,0.781,2.048,0.781,2.828,0l10.586-10.586V58c0,1.105,0.896,2,2,2s2-0.895,2-2V31.828
		l10.586,10.586C43.193,42.805,43.705,43,44.217,43s1.024-0.195,1.414-0.586c0.781-0.781,0.781-2.047,0-2.828L31.632,25.587z"/>
	<path fill="#010101" d="M15.217,4H47c1.104,0,2-0.895,2-2c0-1.104-0.896-2-2-2H15.217c-1.104,0-2,0.896-2,2
		C13.217,3.105,14.112,4,15.217,4z"/>
	<path fill="#010101" d="M47,8H15.217c-1.104,0-2,0.896-2,2c0,1.105,0.896,2,2,2H47c1.104,0,2-0.895,2-2C49,8.896,48.104,8,47,8z"/>
	<path fill="#010101" d="M47,16H15.217c-1.104,0-2,0.896-2,2c0,1.105,0.896,2,2,2H47c1.104,0,2-0.895,2-2C49,16.896,48.104,16,47,16
		z"/>
</g>
</svg>
