<?xml version="1.0" encoding="utf-8"?>
<!-- Generator: Adobe Illustrator 17.0.0, SVG Export Plug-In . SVG Version: 6.00 Build 0)  -->
<!DOCTYPE svg PUBLIC "-//W3C//DTD SVG 1.1//EN" "http://www.w3.org/Graphics/SVG/1.1/DTD/svg11.dtd">
<svg version="1.1" id="Layer_2" xmlns="http://www.w3.org/2000/svg" xmlns:xlink="http://www.w3.org/1999/xlink" x="0px" y="0px"
	 width="60px" height="60px" viewBox="0 0 60 60" enable-background="new 0 0 60 60" xml:space="preserve">
<g>
	<path fill="#010101" d="M32,16.829l10.586,10.585c0.78,0.781,2.048,0.781,2.828,0c0.781-0.781,0.781-2.047,0-2.828L31.415,10.587
		c-0.094-0.094-0.196-0.177-0.307-0.251c-0.046-0.031-0.097-0.052-0.145-0.079c-0.066-0.036-0.129-0.076-0.199-0.105
		c-0.084-0.035-0.173-0.058-0.261-0.081c-0.037-0.01-0.072-0.024-0.111-0.032c-0.093-0.019-0.188-0.024-0.282-0.029
		C30.073,10.009,30.038,10,30,10c-0.005,0-0.011,0.002-0.016,0.002c-0.007,0-0.014-0.002-0.021-0.002
		c-0.063,0.001-0.124,0.015-0.187,0.023c-0.066,0.007-0.134,0.01-0.198,0.024c-0.051,0.011-0.098,0.031-0.148,0.046
		c-0.078,0.023-0.157,0.044-0.231,0.077c-0.045,0.02-0.087,0.048-0.131,0.071c-0.071,0.038-0.143,0.074-0.209,0.12
		c-0.046,0.033-0.087,0.072-0.131,0.108c-0.057,0.047-0.114,0.092-0.165,0.145c-0.009,0.009-0.02,0.016-0.029,0.026l-13,14
		c-0.752,0.809-0.705,2.075,0.105,2.827C16.024,27.823,16.512,28,16.999,28c0.537,0,1.072-0.215,1.466-0.639L28,17.093V45
		c0,1.105,0.895,2,2,2c1.104,0,2-0.895,2-2V16.829z"/>
	<path fill="#010101" d="M58,52c-1.105,0-2,0.896-2,2v2h-2c-1.105,0-2,0.896-2,2c0,1.105,0.895,2,2,2h6v-6
		C60,52.896,59.104,52,58,52z"/>
	<path fill="#010101" d="M6,55.522H4V54c0-1.104-0.896-2-2-2c-1.105,0-2,0.896-2,2v5.522h6c1.104,0,2-0.896,2-2
		C8,56.417,7.104,55.522,6,55.522z"/>
	<path fill="#010101" d="M36.406,56h-2.412c-1.104,0-2,0.896-2,2c0,1.105,0.896,2,2,2h2.412c1.104,0,2-0.895,2-2
		C38.406,56.896,37.511,56,36.406,56z"/>
	<path fill="#010101" d="M46.806,56h-2.412c-1.104,0-2,0.896-2,2c0,1.105,0.896,2,2,2h2.412c1.104,0,2-0.895,2-2
		C48.806,56.896,47.911,56,46.806,56z"/>
	<path fill="#010101" d="M26.006,56h-2.412c-1.104,0-2,0.896-2,2c0,1.105,0.896,2,2,2h2.412c1.104,0,2-0.895,2-2
		C28.006,56.896,27.11,56,26.006,56z"/>
	<path fill="#010101" d="M15.606,56h-2.413c-1.104,0-2,0.896-2,2c0,1.105,0.896,2,2,2h2.413c1.104,0,2-0.895,2-2
		C17.606,56.896,16.711,56,15.606,56z"/>
	<path fill="#010101" d="M54,0c-1.105,0-2,0.896-2,2c0,1.105,0.895,2,2,2h2v2c0,1.105,0.895,2,2,2c1.104,0,2-0.895,2-2V0H54z"/>
	<path fill="#010101" d="M6,0H0v5.522c0,1.104,0.895,2,2,2c1.104,0,2-0.896,2-2V4h2c1.104,0,2-0.895,2-2C8,0.896,7.104,0,6,0z"/>
	<path fill="#010101" d="M33.994,4h2.412c1.104,0,2-0.895,2-2c0-1.104-0.896-2-2-2h-2.412c-1.104,0-2,0.896-2,2
		C31.994,3.105,32.89,4,33.994,4z"/>
	<path fill="#010101" d="M46.806,0h-2.412c-1.104,0-2,0.896-2,2c0,1.105,0.896,2,2,2h2.412c1.104,0,2-0.895,2-2
		C48.806,0.896,47.911,0,46.806,0z"/>
	<path fill="#010101" d="M23.594,4h2.412c1.104,0,2-0.895,2-2c0-1.104-0.896-2-2-2h-2.412c-1.104,0-2,0.896-2,2
		C21.594,3.105,22.489,4,23.594,4z"/>
	<path fill="#010101" d="M13.194,4h2.413c1.104,0,2-0.895,2-2c0-1.104-0.896-2-2-2h-2.413c-1.104,0-2,0.896-2,2
		C11.194,3.105,12.089,4,13.194,4z"/>
	<path fill="#010101" d="M2,17.75c1.104,0,2-0.895,2-2v-2.412c0-1.104-0.896-2-2-2c-1.105,0-2,0.896-2,2v2.412
		C0,16.855,0.895,17.75,2,17.75z"/>
	<path fill="#010101" d="M2,38.358c1.104,0,2-0.896,2-2v-2.412c0-1.104-0.896-2-2-2c-1.105,0-2,0.895-2,2v2.412
		C0,37.463,0.895,38.358,2,38.358z"/>
	<path fill="#010101" d="M2,28.054c1.104,0,2-0.896,2-2v-2.412c0-1.105-0.896-2-2-2c-1.105,0-2,0.895-2,2v2.412
		C0,27.158,0.895,28.054,2,28.054z"/>
	<path fill="#010101" d="M2,48.662c1.104,0,2-0.896,2-2V44.25c0-1.104-0.896-2-2-2c-1.105,0-2,0.896-2,2v2.412
		C0,47.767,0.895,48.662,2,48.662z"/>
	<path fill="#010101" d="M58,11.194c-1.105,0-2,0.896-2,2v2.412c0,1.105,0.895,2,2,2c1.104,0,2-0.896,2-2v-2.412
		C60,12.09,59.104,11.194,58,11.194z"/>
	<path fill="#010101" d="M58,31.994c-1.105,0-2,0.896-2,2v2.412c0,1.104,0.895,2,2,2c1.104,0,2-0.896,2-2v-2.412
		C60,32.89,59.104,31.994,58,31.994z"/>
	<path fill="#010101" d="M58,21.594c-1.105,0-2,0.896-2,2v2.412c0,1.104,0.895,2,2,2c1.104,0,2-0.896,2-2v-2.412
		C60,22.489,59.104,21.594,58,21.594z"/>
	<path fill="#010101" d="M58,42.394c-1.105,0-2,0.896-2,2v2.412c0,1.104,0.895,2,2,2c1.104,0,2-0.896,2-2v-2.412
		C60,43.289,59.104,42.394,58,42.394z"/>
</g>
</svg>
