<?xml version="1.0" encoding="utf-8"?>
<!-- Generator: Adobe Illustrator 17.0.0, SVG Export Plug-In . SVG Version: 6.00 Build 0)  -->
<!DOCTYPE svg PUBLIC "-//W3C//DTD SVG 1.1//EN" "http://www.w3.org/Graphics/SVG/1.1/DTD/svg11.dtd">
<svg version="1.1" id="Layer_2" xmlns="http://www.w3.org/2000/svg" xmlns:xlink="http://www.w3.org/1999/xlink" x="0px" y="0px"
	 width="60px" height="60px" viewBox="0 0 60 60" enable-background="new 0 0 60 60" xml:space="preserve">
<g>
	<path fill="#010101" d="M12.348,19.994H20v27c0,0.553,0.448,1,1,1h18c0.552,0,1-0.447,1-1v-27h7.652
		c0.403,0,0.766-0.241,0.922-0.613c0.156-0.371,0.074-0.8-0.208-1.087l-17.652-18c-0.376-0.383-1.052-0.383-1.428,0l-17.652,18
		c-0.282,0.287-0.364,0.716-0.208,1.087C11.581,19.752,11.945,19.994,12.348,19.994z"/>
	<path fill="#010101" d="M58,43.994c-1.105,0-2,0.896-2,2v10H4v-10c0-1.104-0.896-2-2-2c-1.105,0-2,0.896-2,2v12
		c0,1.104,0.895,2,2,2h56c1.104,0,2-0.896,2-2v-12C60,44.889,59.104,43.994,58,43.994z"/>
</g>
</svg>
