<?xml version="1.0" encoding="utf-8"?>
<!-- Generator: Adobe Illustrator 17.0.0, SVG Export Plug-In . SVG Version: 6.00 Build 0)  -->
<!DOCTYPE svg PUBLIC "-//W3C//DTD SVG 1.1//EN" "http://www.w3.org/Graphics/SVG/1.1/DTD/svg11.dtd">
<svg version="1.1" id="Layer_2" xmlns="http://www.w3.org/2000/svg" xmlns:xlink="http://www.w3.org/1999/xlink" x="0px" y="0px"
	 width="60px" height="60px" viewBox="0 0 60 60" enable-background="new 0 0 60 60" xml:space="preserve">
<path fill="#010101" d="M59,0H1C0.448,0,0,0.447,0,1v58c0,0.553,0.448,1,1,1h58c0.552,0,1-0.447,1-1V1C60,0.447,59.552,0,59,0z
	 M24,53.957c0,0.553-0.448,1-1,1c-0.552,0-1-0.447-1-1v-5.044c0-0.553,0.448-1,1-1c0.552,0,1,0.447,1,1V53.957z M24,43.869
	c0,0.553-0.448,1-1,1c-0.552,0-1-0.447-1-1v-5.043c0-0.553,0.448-1,1-1c0.552,0,1,0.447,1,1V43.869z M38,53.957c0,0.553-0.448,1-1,1
	c-0.552,0-1-0.447-1-1v-5.044c0-0.553,0.448-1,1-1c0.552,0,1,0.447,1,1V53.957z M38,43.869c0,0.553-0.448,1-1,1
	c-0.552,0-1-0.447-1-1v-5.043c0-0.553,0.448-1,1-1c0.552,0,1,0.447,1,1V43.869z M46.049,27.395C45.892,27.762,45.53,28,45.13,28H38
	v5.783c0,0.553-0.448,1-1,1c-0.552,0-1-0.447-1-1V27c0-0.553,0.448-1,1-1h5.8L30,12.538L17.2,26H23c0.552,0,1,0.447,1,1v6.783
	c0,0.553-0.448,1-1,1c-0.552,0-1-0.447-1-1V28h-7.13c-0.4,0-0.761-0.238-0.919-0.605c-0.158-0.368-0.082-0.794,0.194-1.084
	l15.13-15.913c0.377-0.397,1.072-0.397,1.449,0l15.13,15.913C46.131,26.601,46.207,27.026,46.049,27.395z"/>
</svg>
