<?xml version="1.0" encoding="utf-8"?>
<!-- Generator: Adobe Illustrator 17.1.0, SVG Export Plug-In . SVG Version: 6.00 Build 0)  -->
<!DOCTYPE svg PUBLIC "-//W3C//DTD SVG 1.0//EN" "http://www.w3.org/TR/2001/REC-SVG-20010904/DTD/svg10.dtd">
<svg version="1.0" id="Layer_1" xmlns="http://www.w3.org/2000/svg" xmlns:xlink="http://www.w3.org/1999/xlink" x="0px" y="0px"
	 width="48px" height="48px" viewBox="0 0 48 48" enable-background="new 0 0 48 48" xml:space="preserve">
<g>
	<path d="M12,5h1c1.1,0,2,0.9,2,2s-0.9,2-2,2h-1v4h1c1.1,0,2,0.9,2,2s-0.9,2-2,2h-1v22h1c1.1,0,2,0.9,2,2s-0.9,2-2,2h-1v5h11v-5h-1
		c-1.1,0-2-0.9-2-2s0.9-2,2-2h1v-4h-1c-1.1,0-2-0.9-2-2c0-1.1,0.9-2,2-2h1V9h-1c-1.1,0-2-0.9-2-2s0.9-2,2-2h1V0H12V5z"/>
	<path d="M25,5h1c1.1,0,2,0.9,2,2s-0.9,2-2,2h-1v22h1c1.1,0,2,0.9,2,2c0,1.1-0.9,2-2,2h-1v4h1c1.1,0,2,0.9,2,2s-0.9,2-2,2h-1v5h11
		V25h-1c-1.1,0-2-0.9-2-2s0.9-2,2-2h1v-4h-1c-1.1,0-2-0.9-2-2s0.9-2,2-2h1V9h-1c-1.1,0-2-0.9-2-2s0.9-2,2-2h1V0H25V5z"/>
	<path d="M0,1v46c0,0.552,0.447,1,1,1h9v-5H9c-1.1,0-2-0.9-2-2s0.9-2,2-2h1V17H9c-1.1,0-2-0.9-2-2s0.9-2,2-2h1V9H9C7.9,9,7,8.1,7,7
		s0.9-2,2-2h1V0H1C0.447,0,0,0.448,0,1z"/>
	<path d="M47,0h-9v5h1c1.1,0,2,0.9,2,2s-0.9,2-2,2h-1v4h1c1.1,0,2,0.9,2,2s-0.9,2-2,2h-1v4h1c1.1,0,2,0.9,2,2s-0.9,2-2,2h-1v23h9
		c0.553,0,1-0.448,1-1V1C48,0.448,47.553,0,47,0z"/>
</g>
</svg>
