<?xml version="1.0" encoding="utf-8"?>
<!-- Generator: Adobe Illustrator 17.0.0, SVG Export Plug-In . SVG Version: 6.00 Build 0)  -->
<!DOCTYPE svg PUBLIC "-//W3C//DTD SVG 1.1//EN" "http://www.w3.org/Graphics/SVG/1.1/DTD/svg11.dtd">
<svg version="1.1" id="Layer_2" xmlns="http://www.w3.org/2000/svg" xmlns:xlink="http://www.w3.org/1999/xlink" x="0px" y="0px"
	 width="48px" height="48px" viewBox="0 0 48 48" enable-background="new 0 0 48 48" xml:space="preserve">
<g>
	<polygon fill="#010101" points="8.665,25 10.962,25 9.818,22.151 	"/>
	<path fill="#010101" d="M43,6H5c-2.757,0-5,2.243-5,5v26c0,2.757,2.243,5,5,5h38c2.757,0,5-2.243,5-5V11C48,8.243,45.757,6,43,6z
		 M12.138,28l-0.636-2H8.113l-0.647,2H5.057l3.45-8h2.602l3.439,8H12.138z M25,28h-3v-4.52L20.183,26h-0.187L18,23.48V28h-2v-8
		h1.717l2.398,2.927L22.524,20H25V28z M33,28h-6v-8h5v2h-3v1h3v2h-3v1h4V28z M39.874,28l-0.827-0.979
		c-0.026-0.037-0.189-0.237-0.49-0.6c-0.3-0.361-0.499-0.609-0.597-0.739c-0.45,0.607-0.818,1.087-1.104,1.44L36.142,28h-2.978
		l3.31-4.157L33.315,20h3.007l0.534,0.752c0.308,0.38,0.676,0.902,1.104,1.469c0.409-0.601,0.735-1.119,0.979-1.409L39.553,20h2.95
		l-3.034,3.843L42.897,28H39.874z"/>
</g>
</svg>
