<?xml version="1.0" encoding="utf-8"?>
<!-- Generator: Adobe Illustrator 17.0.0, SVG Export Plug-In . SVG Version: 6.00 Build 0)  -->
<!DOCTYPE svg PUBLIC "-//W3C//DTD SVG 1.1//EN" "http://www.w3.org/Graphics/SVG/1.1/DTD/svg11.dtd">
<svg version="1.1" id="Layer_2" xmlns="http://www.w3.org/2000/svg" xmlns:xlink="http://www.w3.org/1999/xlink" x="0px" y="0px"
	 width="48px" height="48px" viewBox="0 0 48 48" enable-background="new 0 0 48 48" xml:space="preserve">
<path fill="#010101" d="M47.999,28.995c0-0.064-0.026-0.126-0.039-0.19c-0.014-0.067-0.017-0.138-0.043-0.2
	c-0.001-0.002,0-0.004-0.001-0.005L41.529,14H43c0.553,0,1-0.448,1-1c0-0.552-0.447-1-1-1H26.858C26.411,10.28,24.859,9,23,9
	c-1.859,0-3.411,1.28-3.858,3H5c-0.553,0-1,0.448-1,1c0,0.552,0.447,1,1,1h1.471L0.084,28.599c-0.001,0.002-0.001,0.003-0.001,0.005
	c-0.026,0.061-0.029,0.131-0.043,0.198c-0.013,0.065-0.038,0.128-0.039,0.192C0.001,28.997,0,28.998,0,29c0,4.411,3.589,8,8,8
	s8-3.589,8-8c0-0.002-0.001-0.003-0.001-0.005c0-0.064-0.026-0.126-0.039-0.19c-0.014-0.067-0.017-0.138-0.043-0.2
	c-0.001-0.002,0-0.004-0.001-0.005L9.529,14h9.613c0.363,1.399,1.459,2.494,2.858,2.858V46h-6c-0.553,0-1,0.448-1,1
	c0,0.552,0.447,1,1,1h15c0.553,0,1-0.448,1-1c0-0.552-0.447-1-1-1h-7V16.858c1.399-0.364,2.494-1.459,2.858-2.858h11.613
	l-6.387,14.599c-0.001,0.002-0.001,0.003-0.001,0.005c-0.026,0.061-0.029,0.131-0.043,0.198c-0.013,0.065-0.038,0.128-0.039,0.192
	C32.001,28.997,32,28.998,32,29c0,4.411,3.589,8,8,8c4.411,0,8-3.589,8-8C48,28.998,47.999,28.997,47.999,28.995z M13.471,28H2.529
	L8,15.495L13.471,28z M34.529,28L40,15.495L45.471,28H34.529z"/>
</svg>
