<?xml version="1.0" encoding="utf-8"?>
<!-- Generator: Adobe Illustrator 17.0.0, SVG Export Plug-In . SVG Version: 6.00 Build 0)  -->
<!DOCTYPE svg PUBLIC "-//W3C//DTD SVG 1.1//EN" "http://www.w3.org/Graphics/SVG/1.1/DTD/svg11.dtd">
<svg version="1.1" id="Layer_2" xmlns="http://www.w3.org/2000/svg" xmlns:xlink="http://www.w3.org/1999/xlink" x="0px" y="0px"
	 width="48px" height="48px" viewBox="0 0 48 48" enable-background="new 0 0 48 48" xml:space="preserve">
<g>
	<path fill="#010101" d="M47,46H1c-0.553,0-1,0.448-1,1c0,0.552,0.447,1,1,1h46c0.553,0,1-0.448,1-1C48,46.448,47.553,46,47,46z"/>
	<path fill="#010101" d="M1,44h46c0.553,0,1-0.448,1-1c0-0.552-0.447-1-1-1H1c-0.553,0-1,0.448-1,1C0,43.552,0.447,44,1,44z"/>
	<path fill="#010101" d="M13,24c0.553,0,1-0.448,1-1c0-0.552-0.447-1-1-1H3c-0.553,0-1,0.448-1,1c0,0.552,0.447,1,1,1h1v14H3
		c-0.553,0-1,0.448-1,1c0,0.552,0.447,1,1,1h1h8h1c0.553,0,1-0.448,1-1c0-0.552-0.447-1-1-1h-1V24H13z"/>
	<path fill="#010101" d="M29,24c0.553,0,1-0.448,1-1c0-0.552-0.447-1-1-1H19c-0.553,0-1,0.448-1,1c0,0.552,0.447,1,1,1h1v14h-1
		c-0.553,0-1,0.448-1,1c0,0.552,0.447,1,1,1h1h8h1c0.553,0,1-0.448,1-1c0-0.552-0.447-1-1-1h-1V24H29z"/>
	<path fill="#010101" d="M45,24c0.553,0,1-0.448,1-1c0-0.552-0.447-1-1-1H35c-0.553,0-1,0.448-1,1c0,0.552,0.447,1,1,1h1v14h-1
		c-0.553,0-1,0.448-1,1c0,0.552,0.447,1,1,1h1h8h1c0.553,0,1-0.448,1-1c0-0.552-0.447-1-1-1h-1V24H45z"/>
	<path fill="#010101" d="M1,20h46c0.427,0,0.806-0.27,0.945-0.673c0.139-0.403,0.008-0.85-0.328-1.113l-22.937-18
		c-0.361-0.284-0.871-0.285-1.232-0.001l-23.062,18c-0.337,0.263-0.47,0.71-0.33,1.113C0.193,19.729,0.573,20,1,20z"/>
</g>
</svg>
