<?xml version="1.0" encoding="utf-8"?>
<!-- Generator: Adobe Illustrator 17.1.0, SVG Export Plug-In . SVG Version: 6.00 Build 0)  -->
<!DOCTYPE svg PUBLIC "-//W3C//DTD SVG 1.0//EN" "http://www.w3.org/TR/2001/REC-SVG-20010904/DTD/svg10.dtd">
<svg version="1.0" id="Layer_1" xmlns="http://www.w3.org/2000/svg" xmlns:xlink="http://www.w3.org/1999/xlink" x="0px" y="0px"
	 width="48px" height="48px" viewBox="0 0 48 48" enable-background="new 0 0 48 48" xml:space="preserve">
<g>
	<path d="M0,24c0,0.552,0.447,1,1,1h8v-2H1C0.447,23,0,23.448,0,24z"/>
	<path d="M0,28c0,0.552,0.447,1,1,1h8v-2H1C0.447,27,0,27.448,0,28z"/>
	<path d="M0,32c0,0.552,0.447,1,1,1h8v-2H1C0.447,31,0,31.448,0,32z"/>
	<path d="M0,36c0,0.552,0.447,1,1,1h8v-2H1C0.447,35,0,35.448,0,36z"/>
	<path d="M46.445,15.168L34.697,23H27v2h8c0.197,0,0.391-0.059,0.555-0.168l12-8c0.46-0.306,0.584-0.927,0.277-1.387
		C47.525,14.986,46.905,14.861,46.445,15.168z"/>
	<path d="M46.445,19.168L34.697,27H27v2h8c0.197,0,0.391-0.059,0.555-0.168l12-8c0.46-0.306,0.584-0.927,0.277-1.387
		C47.525,18.986,46.905,18.861,46.445,19.168z"/>
	<path d="M46.445,23.168L34.697,31H27v2h8c0.197,0,0.391-0.059,0.555-0.168l12-8c0.46-0.306,0.584-0.927,0.277-1.387
		C47.525,22.986,46.905,22.861,46.445,23.168z"/>
	<path d="M46.445,27.168L34.697,35H27v2h8c0.197,0,0.391-0.059,0.555-0.168l12-8c0.46-0.306,0.584-0.927,0.277-1.387
		C47.525,26.986,46.905,26.861,46.445,27.168z"/>
	<path d="M27,21h8c0.197,0,0.391-0.059,0.555-0.168l12-8c0.366-0.244,0.53-0.7,0.402-1.122C47.829,11.289,47.44,11,47,11h-8l-12,9
		V21z"/>
	<path d="M13,11c-0.197,0-0.391,0.059-0.555,0.168l-12,8c-0.366,0.244-0.53,0.7-0.402,1.122C0.171,20.711,0.559,21,1,21h8v-2.5
		c0-0.315,0.148-0.611,0.4-0.8l8.934-6.7H13z"/>
	<path d="M23,10l-12,9v19h14V19.5c0-0.315,0.148-0.611,0.4-0.8L37,10H23z M18,26c2.206,0,4,1.794,4,4c0,1.858-1.279,3.411-3,3.858
		V35c0,0.552-0.447,1-1,1s-1-0.448-1-1v-1.142c-1.72-0.447-3-1.999-3-3.858c0-0.552,0.447-1,1-1s1,0.448,1,1c0,1.103,0.898,2,2,2
		c1.103,0,2-0.897,2-2s-0.897-2-2-2c-2.206,0-4-1.794-4-4c0-1.858,1.28-3.411,3-3.858V19c0-0.552,0.447-1,1-1s1,0.448,1,1v1.142
		c1.721,0.447,3,2,3,3.858c0,0.552-0.447,1-1,1s-1-0.448-1-1c0-1.103-0.897-2-2-2c-1.102,0-2,0.897-2,2S16.897,26,18,26z"/>
</g>
</svg>
