<?xml version="1.0" encoding="utf-8"?>
<!-- Generator: Adobe Illustrator 17.0.0, SVG Export Plug-In . SVG Version: 6.00 Build 0)  -->
<!DOCTYPE svg PUBLIC "-//W3C//DTD SVG 1.1//EN" "http://www.w3.org/Graphics/SVG/1.1/DTD/svg11.dtd">
<svg version="1.1" id="Layer_2" xmlns="http://www.w3.org/2000/svg" xmlns:xlink="http://www.w3.org/1999/xlink" x="0px" y="0px"
	 width="48px" height="48px" viewBox="0 0 48 48" enable-background="new 0 0 48 48" xml:space="preserve">
<g>
	<path fill="#010101" d="M40,5.833H0v26h40V5.833z M9,27.833H5c-0.553,0-1-0.448-1-1s0.447-1,1-1h4c0.553,0,1,0.448,1,1
		S9.553,27.833,9,27.833z M20,25.833c-3.859,0-7-3.14-7-7s3.141-7,7-7c3.859,0,7,3.14,7,7S23.859,25.833,20,25.833z M35,11.833h-4
		c-0.553,0-1-0.448-1-1s0.447-1,1-1h4c0.553,0,1,0.448,1,1S35.553,11.833,35,11.833z"/>
	<path fill="#010101" d="M44,10.833c0-0.552-0.447-1-1-1c-0.553,0-1,0.448-1,1v23H5c-0.553,0-1,0.448-1,1s0.447,1,1,1h39V10.833z"/>
	<path fill="#010101" d="M47,13.833c-0.553,0-1,0.448-1,1v23H9c-0.553,0-1,0.448-1,1s0.447,1,1,1h39v-25
		C48,14.281,47.553,13.833,47,13.833z"/>
</g>
</svg>
