<?xml version="1.0" encoding="utf-8"?>
<!-- Generator: Adobe Illustrator 17.1.0, SVG Export Plug-In . SVG Version: 6.00 Build 0)  -->
<!DOCTYPE svg PUBLIC "-//W3C//DTD SVG 1.0//EN" "http://www.w3.org/TR/2001/REC-SVG-20010904/DTD/svg10.dtd">
<svg version="1.0" id="Layer_1" xmlns="http://www.w3.org/2000/svg" xmlns:xlink="http://www.w3.org/1999/xlink" x="0px" y="0px"
	 width="48px" height="48px" viewBox="0 0 48 48" enable-background="new 0 0 48 48" xml:space="preserve">
<g>
	<path d="M47,45H1c-0.553,0-1,0.448-1,1c0,0.552,0.447,1,1,1h46c0.553,0,1-0.448,1-1C48,45.448,47.553,45,47,45z"/>
	<path d="M41,23v20.001h4V43c0.553,0,1-0.448,1-1c0-0.552-0.447-1-1-1V25c0.553,0,1-0.448,1-1c0-0.552-0.447-1-1-1"/>
	<path d="M35,23c-0.553,0-1,0.448-1,1c0,0.552,0.447,1,1,1v16c-0.553,0-1,0.448-1,1c0,0.552,0.447,1,1,1v0.001h4V23"/>
	<path d="M9,23v20.001h4V43c0.553,0,1-0.448,1-1c0-0.552-0.447-1-1-1V25c0.553,0,1-0.448,1-1c0-0.552-0.447-1-1-1"/>
	<path d="M3,23c-0.553,0-1,0.448-1,1c0,0.552,0.447,1,1,1v16c-0.553,0-1,0.448-1,1c0,0.552,0.447,1,1,1v0.001h4V23"/>
	<path d="M25,23v20.001h4V43c0.553,0,1-0.448,1-1c0-0.552-0.447-1-1-1V25c0.553,0,1-0.448,1-1c0-0.552-0.447-1-1-1"/>
	<path d="M19,23c-0.553,0-1,0.448-1,1c0,0.552,0.447,1,1,1v16c-0.553,0-1,0.448-1,1c0,0.552,0.447,1,1,1v0.001h4V23"/>
	<path d="M1,21h46c0.427,0,0.806-0.271,0.945-0.673c0.139-0.403,0.008-0.85-0.328-1.113l-22.938-18
		c-0.361-0.284-0.871-0.285-1.232-0.002l-23.062,18c-0.337,0.263-0.47,0.71-0.33,1.113C0.193,20.729,0.573,21,1,21z"/>
</g>
</svg>
