<?xml version="1.0" encoding="utf-8"?>
<!-- Generator: Adobe Illustrator 17.0.0, SVG Export Plug-In . SVG Version: 6.00 Build 0)  -->
<!DOCTYPE svg PUBLIC "-//W3C//DTD SVG 1.1//EN" "http://www.w3.org/Graphics/SVG/1.1/DTD/svg11.dtd">
<svg version="1.1" id="Layer_2" xmlns="http://www.w3.org/2000/svg" xmlns:xlink="http://www.w3.org/1999/xlink" x="0px" y="0px"
	 width="48px" height="48px" viewBox="0 0 48 48" enable-background="new 0 0 48 48" xml:space="preserve">
<g>
	<path fill="#010101" d="M20,5V1c0-0.552-0.447-1-1-1h-3v6h3C19.553,6,20,5.552,20,5z"/>
	<polygon fill="#010101" points="14,6 14,0 6,0 6,6 9,6 	"/>
	<path fill="#010101" d="M1,6h3V0H1C0.447,0,0,0.448,0,1v4C0,5.552,0.447,6,1,6z"/>
	<polygon fill="#010101" points="10,13 17,13 18,13 18,7 15,7 10,7 	"/>
	<path fill="#010101" d="M4,12c0,0.552,0.447,1,1,1h2h1V7H5C4.447,7,4,7.448,4,8V12z"/>
	<path fill="#010101" d="M24,8c0-0.552-0.447-1-1-1h-3v6h3c0.553,0,1-0.448,1-1V8z"/>
	<path fill="#010101" d="M6,14H3c-0.553,0-1,0.448-1,1v4c0,0.552,0.447,1,1,1h2h1V14z"/>
	<polygon fill="#010101" points="16,14 9,14 8,14 8,20 15,20 16,20 	"/>
	<path fill="#010101" d="M21,14h-2h-1v6h3c0.553,0,1-0.448,1-1v-4C22,14.448,21.553,14,21,14z"/>
	<path fill="#010101" d="M19,27c0.553,0,1-0.448,1-1v-4c0-0.552-0.447-1-1-1h-2h-1v6h1H19z"/>
	<polygon fill="#010101" points="14,27 14,21 7,21 6,21 6,27 7,27 	"/>
	<path fill="#010101" d="M1,27h3v-6H1c-0.553,0-1,0.448-1,1v4C0,26.552,0.447,27,1,27z"/>
	<path fill="#010101" d="M3,28c-0.553,0-1,0.448-1,1v4c0,0.552,0.447,1,1,1h2h1v-6H5H3z"/>
	<polygon fill="#010101" points="16,34 16,28 15,28 8,28 8,34 15,34 	"/>
	<path fill="#010101" d="M21,28h-3v6h3c0.553,0,1-0.448,1-1v-4C22,28.448,21.553,28,21,28z"/>
	<path fill="#010101" d="M20,40v-4c0-0.552-0.447-1-1-1h-2h-1v6h1h2C19.553,41,20,40.552,20,40z"/>
	<polygon fill="#010101" points="14,35 7,35 6,35 6,41 7,41 14,41 	"/>
	<path fill="#010101" d="M4,35H1c-0.553,0-1,0.448-1,1v4c0,0.552,0.447,1,1,1h3V35z"/>
	<path fill="#010101" d="M3,42c-0.553,0-1,0.448-1,1v4c0,0.552,0.447,1,1,1h3v-6H5H3z"/>
	<polygon fill="#010101" points="8,42 8,48 16,48 16,42 15,42 	"/>
	<path fill="#010101" d="M21,42h-3v6h3c0.553,0,1-0.448,1-1v-4C22,42.448,21.553,42,21,42z"/>
	<polygon fill="#010101" points="38,34 38,28 30,28 30,34 31,34 	"/>
	<path fill="#010101" d="M24,33c0,0.552,0.447,1,1,1h3v-6h-3c-0.553,0-1,0.448-1,1V33z"/>
	<path fill="#010101" d="M43,34c0.553,0,1-0.448,1-1v-4c0-0.552-0.447-1-1-1h-3v6h1H43z"/>
	<polygon fill="#010101" points="40,35 39,35 32,35 32,41 39,41 40,41 	"/>
	<path fill="#010101" d="M30,35h-1h-2c-0.553,0-1,0.448-1,1v4c0,0.552,0.447,1,1,1h2h1V35z"/>
	<path fill="#010101" d="M45,35h-3v6h3c0.553,0,1-0.448,1-1v-4C46,35.448,45.553,35,45,35z"/>
	<path fill="#010101" d="M43,42h-2h-1v6h3c0.553,0,1-0.448,1-1v-4C44,42.448,43.553,42,43,42z"/>
	<polygon fill="#010101" points="30,42 30,48 38,48 38,42 31,42 	"/>
	<path fill="#010101" d="M24,43v4c0,0.552,0.447,1,1,1h3v-6h-3C24.447,42,24,42.448,24,43z"/>
</g>
</svg>
