<?xml version="1.0" encoding="utf-8"?>
<!-- Generator: Adobe Illustrator 17.0.0, SVG Export Plug-In . SVG Version: 6.00 Build 0)  -->
<!DOCTYPE svg PUBLIC "-//W3C//DTD SVG 1.1//EN" "http://www.w3.org/Graphics/SVG/1.1/DTD/svg11.dtd">
<svg version="1.1" id="Layer_2" xmlns="http://www.w3.org/2000/svg" xmlns:xlink="http://www.w3.org/1999/xlink" x="0px" y="0px"
	 width="48px" height="48px" viewBox="0 0 48 48" enable-background="new 0 0 48 48" xml:space="preserve">
<g>
	<path fill="#010101" d="M0,16v31c0,0.552,0.447,1,1,1h46c0.553,0,1-0.448,1-1V16H0z M44,43c0,0.552-0.447,1-1,1H27
		c-0.553,0-1-0.448-1-1v-6c0-0.552,0.447-1,1-1h16c0.553,0,1,0.448,1,1V43z"/>
	<path fill="#010101" d="M37.813,0.419C37.626,0.156,37.323,0,37,0H25v14h22.514L37.813,0.419z"/>
	<path fill="#010101" d="M23,0H11c-0.323,0-0.626,0.156-0.814,0.419L0.486,14H23V0z"/>
</g>
</svg>
