<?xml version="1.0" encoding="utf-8"?>
<!-- Generator: Adobe Illustrator 17.0.0, SVG Export Plug-In . SVG Version: 6.00 Build 0)  -->
<!DOCTYPE svg PUBLIC "-//W3C//DTD SVG 1.1//EN" "http://www.w3.org/Graphics/SVG/1.1/DTD/svg11.dtd">
<svg version="1.1" id="Layer_2" xmlns="http://www.w3.org/2000/svg" xmlns:xlink="http://www.w3.org/1999/xlink" x="0px" y="0px"
	 width="48px" height="48px" viewBox="0 0 48 48" enable-background="new 0 0 48 48" xml:space="preserve">
<path fill="#010101" d="M47,0H1C0.447,0,0,0.448,0,1v46c0,0.552,0.447,1,1,1h46c0.553,0,1-0.448,1-1V1C48,0.448,47.553,0,47,0z
	 M26.293,14.293l5.999-5.999c0.092-0.092,0.203-0.166,0.325-0.216c0.12-0.049,0.246-0.074,0.374-0.076C32.995,8.002,32.997,8,33,8
	c0.003,0,0.005,0.002,0.008,0.002c0.127,0.001,0.254,0.026,0.374,0.075c0.123,0.051,0.233,0.124,0.325,0.216l6,5.999
	c0.391,0.391,0.391,1.023,0,1.414C39.512,15.902,39.256,16,39,16c-0.256,0-0.512-0.098-0.707-0.293L34,11.414V35
	c0,0.552-0.447,1-1,1c-0.553,0-1-0.448-1-1V11.414l-4.293,4.293c-0.391,0.391-1.023,0.391-1.414,0
	C25.902,15.316,25.902,14.684,26.293,14.293z M8.293,14.293l5.999-5.999c0.092-0.092,0.203-0.166,0.325-0.216
	c0.12-0.049,0.246-0.074,0.374-0.076C14.995,8.002,14.997,8,15,8c0.003,0,0.005,0.002,0.008,0.002
	c0.127,0.001,0.254,0.026,0.374,0.075c0.123,0.051,0.233,0.124,0.325,0.216l6,5.999c0.391,0.391,0.391,1.023,0,1.414
	C21.512,15.902,21.256,16,21,16c-0.256,0-0.512-0.098-0.707-0.293L16,11.414V35c0,0.552-0.447,1-1,1c-0.553,0-1-0.448-1-1V11.414
	l-4.293,4.293c-0.391,0.391-1.023,0.391-1.414,0C7.902,15.316,7.902,14.684,8.293,14.293z M41,42H7c-0.553,0-1-0.448-1-1
	c0-0.552,0.447-1,1-1h34c0.553,0,1,0.448,1,1C42,41.552,41.553,42,41,42z"/>
</svg>
