<?xml version="1.0" encoding="utf-8"?>
<!-- Generator: Adobe Illustrator 17.0.0, SVG Export Plug-In . SVG Version: 6.00 Build 0)  -->
<!DOCTYPE svg PUBLIC "-//W3C//DTD SVG 1.1//EN" "http://www.w3.org/Graphics/SVG/1.1/DTD/svg11.dtd">
<svg version="1.1" id="Layer_2" xmlns="http://www.w3.org/2000/svg" xmlns:xlink="http://www.w3.org/1999/xlink" x="0px" y="0px"
	 width="48px" height="48px" viewBox="0 0 48 48" enable-background="new 0 0 48 48" xml:space="preserve">
<g>
	<path fill="#010101" d="M47,46h-1V17c0-0.552-0.447-1-1-1h-6c-0.553,0-1,0.448-1,1v29h-4V31c0-0.552-0.447-1-1-1h-6
		c-0.553,0-1,0.448-1,1v15h-4V27c0-0.552-0.447-1-1-1h-6c-0.553,0-1,0.448-1,1v19h-4v-9c0-0.552-0.447-1-1-1H3c-0.553,0-1,0.448-1,1
		v9H1c-0.553,0-1,0.448-1,1c0,0.552,0.447,1,1,1h2h6h6h6h6h6h6h6h2c0.553,0,1-0.448,1-1C48,46.448,47.553,46,47,46z"/>
	<path fill="#010101" d="M6,26c1.654,0,3-1.346,3-3c0-0.365-0.075-0.711-0.195-1.035l7.673-6.394C16.926,15.837,17.442,16,18,16
		c0.958,0,1.803-0.46,2.353-1.161l6.653,2.216C27.036,18.684,28.365,20,30,20c1.654,0,3-1.346,3-3c0-0.543-0.156-1.046-0.41-1.486
		l8.333-9.722C41.259,5.922,41.62,6,42,6c1.654,0,3-1.346,3-3c0-1.654-1.346-3-3-3c-1.654,0-3,1.346-3,3
		c0,0.543,0.156,1.046,0.41,1.486l-8.334,9.722C30.741,14.078,30.38,14,30,14c-0.958,0-1.803,0.46-2.353,1.161l-6.653-2.216
		C20.964,11.316,19.635,10,18,10c-1.654,0-3,1.346-3,3c0,0.365,0.075,0.711,0.195,1.035L7.523,20.43C7.075,20.163,6.558,20,6,20
		c-1.654,0-3,1.346-3,3C3,24.654,4.346,26,6,26z"/>
</g>
</svg>
