<?xml version="1.0" encoding="utf-8"?>
<!-- Generator: Adobe Illustrator 17.0.0, SVG Export Plug-In . SVG Version: 6.00 Build 0)  -->
<!DOCTYPE svg PUBLIC "-//W3C//DTD SVG 1.1//EN" "http://www.w3.org/Graphics/SVG/1.1/DTD/svg11.dtd">
<svg version="1.1" id="Layer_2" xmlns="http://www.w3.org/2000/svg" xmlns:xlink="http://www.w3.org/1999/xlink" x="0px" y="0px"
	 width="48px" height="48px" viewBox="0 0 48 48" enable-background="new 0 0 48 48" xml:space="preserve">
<g>
	<path fill="#010101" d="M0,7v15h22V0H7C3.141,0,0,3.14,0,7z M10,8c0-0.552,0.447-1,1-1c0.553,0,1,0.448,1,1v4h4
		c0.553,0,1,0.448,1,1c0,0.552-0.447,1-1,1h-4v4c0,0.552-0.447,1-1,1c-0.553,0-1-0.448-1-1v-4H6c-0.553,0-1-0.448-1-1
		c0-0.552,0.447-1,1-1h4V8z"/>
	<path fill="#010101" d="M24,48h17c3.859,0,7-3.14,7-7V24H24V48z M30,32h10c0.553,0,1,0.448,1,1c0,0.552-0.447,1-1,1H30
		c-0.553,0-1-0.448-1-1C29,32.448,29.447,32,30,32z M30,36h10c0.553,0,1,0.448,1,1c0,0.552-0.447,1-1,1H30c-0.553,0-1-0.448-1-1
		C29,36.448,29.447,36,30,36z"/>
	<path fill="#010101" d="M41,0H24v22h24V7C48,3.14,44.859,0,41,0z M40,14H30c-0.553,0-1-0.448-1-1c0-0.552,0.447-1,1-1h10
		c0.553,0,1,0.448,1,1C41,13.552,40.553,14,40,14z"/>
	<path fill="#010101" d="M0,41c0,3.86,3.141,7,7,7h15V24H0V41z M7.293,31.707c-0.391-0.391-0.391-1.023,0-1.414
		c0.391-0.391,1.023-0.391,1.414,0L12,33.586l3.293-3.293c0.391-0.391,1.023-0.391,1.414,0c0.391,0.391,0.391,1.023,0,1.414
		L13.414,35l3.293,3.293c0.391,0.391,0.391,1.023,0,1.414C16.512,39.902,16.256,40,16,40c-0.256,0-0.512-0.098-0.707-0.293
		L12,36.414l-3.293,3.293C8.512,39.902,8.256,40,8,40c-0.256,0-0.512-0.098-0.707-0.293c-0.391-0.391-0.391-1.023,0-1.414L10.586,35
		L7.293,31.707z"/>
</g>
</svg>
