<?xml version="1.0" encoding="utf-8"?>
<!-- Generator: Adobe Illustrator 17.0.0, SVG Export Plug-In . SVG Version: 6.00 Build 0)  -->
<!DOCTYPE svg PUBLIC "-//W3C//DTD SVG 1.1//EN" "http://www.w3.org/Graphics/SVG/1.1/DTD/svg11.dtd">
<svg version="1.1" id="Layer_2" xmlns="http://www.w3.org/2000/svg" xmlns:xlink="http://www.w3.org/1999/xlink" x="0px" y="0px"
	 width="48px" height="48px" viewBox="0 0 48 48" enable-background="new 0 0 48 48" xml:space="preserve">
<g>
	<path fill="#010101" d="M47,46h-1v-5c0-0.552-0.447-1-1-1h-6c-0.553,0-1,0.448-1,1v5h-4V33c0-0.552-0.447-1-1-1h-6
		c-0.553,0-1,0.448-1,1v13h-4V25c0-0.552-0.447-1-1-1h-6c-0.553,0-1,0.448-1,1v21h-4V17c0-0.552-0.447-1-1-1H3c-0.553,0-1,0.448-1,1
		v29H1c-0.553,0-1,0.448-1,1c0,0.552,0.447,1,1,1h2h6h6h6h6h6h6h6h2c0.553,0,1-0.448,1-1C48,46.448,47.553,46,47,46z"/>
	<path fill="#010101" d="M39.232,26.301l-5.363,0.708c-0.548,0.072-0.933,0.574-0.86,1.122C33.075,28.634,33.505,29,33.999,29
		c0.043,0,0.088-0.003,0.132-0.009l8-1.056c0.012-0.001,0.021-0.009,0.033-0.011c0.114-0.019,0.224-0.054,0.325-0.111
		c0.016-0.009,0.029-0.021,0.045-0.031c0.083-0.053,0.157-0.119,0.223-0.196c0.015-0.018,0.031-0.034,0.045-0.053
		c0.009-0.012,0.021-0.021,0.029-0.034c0.028-0.041,0.034-0.089,0.054-0.133c0.031-0.064,0.063-0.125,0.08-0.194
		c0.017-0.071,0.015-0.141,0.016-0.213c0.001-0.047,0.016-0.091,0.01-0.14l-1-7.944c-0.068-0.547-0.553-0.938-1.117-0.867
		c-0.548,0.069-0.937,0.569-0.867,1.117l0.727,5.774L6.555,2.112C6.093,1.805,5.474,1.93,5.168,2.39
		C4.861,2.849,4.985,3.47,5.445,3.776L39.232,26.301z"/>
</g>
</svg>
