<?xml version="1.0" encoding="utf-8"?>
<!-- Generator: Adobe Illustrator 17.0.0, SVG Export Plug-In . SVG Version: 6.00 Build 0)  -->
<!DOCTYPE svg PUBLIC "-//W3C//DTD SVG 1.1//EN" "http://www.w3.org/Graphics/SVG/1.1/DTD/svg11.dtd">
<svg version="1.1" id="Layer_2" xmlns="http://www.w3.org/2000/svg" xmlns:xlink="http://www.w3.org/1999/xlink" x="0px" y="0px"
	 width="48px" height="48px" viewBox="0 0 48 48" enable-background="new 0 0 48 48" xml:space="preserve">
<g>
	<path fill="#010101" d="M47,14H28.415L13.874,28.541c-0.107,0.107-0.233,0.178-0.366,0.227c-0.009,0.003-0.015,0.012-0.024,0.015
		l-6,2c-0.103,0.034-0.211,0.051-0.316,0.051c-0.261,0-0.517-0.102-0.707-0.292c-0.268-0.268-0.361-0.664-0.241-1.023l2-6
		c0.003-0.009,0.011-0.015,0.014-0.023c0.048-0.133,0.12-0.26,0.227-0.368L17.586,14H1c-0.553,0-1,0.448-1,1v26c0,0.552,0.447,1,1,1
		h46c0.553,0,1-0.448,1-1V15C48,14.448,47.553,14,47,14z M41,34H17c-0.553,0-1-0.448-1-1c0-0.552,0.447-1,1-1h24
		c0.553,0,1,0.448,1,1C42,33.552,41.553,34,41,34z M41,28H25c-0.553,0-1-0.448-1-1c0-0.552,0.447-1,1-1h16c0.553,0,1,0.448,1,1
		C42,27.552,41.553,28,41,28z"/>
	
		<rect x="16.838" y="8.727" transform="matrix(0.7071 0.7071 -0.7071 0.7071 18.4311 -7.8299)" fill="#010101" width="3.657" height="19.213"/>
	<polygon fill="#010101" points="8.748,28.252 11.316,27.397 9.604,25.685 	"/>
	<path fill="#010101" d="M19.167,9.833c0.256,0,0.512-0.098,0.707-0.292l5.293-5.293l1.086,1.085l1.414,1.415l-2.086,2.085
		l2.586,2.586l5.586-5.586l-2.586-2.585l-2.086,2.085l-1.414-1.414l-1.793-1.793c-0.391-0.39-1.023-0.39-1.414,0l-6,6
		c-0.391,0.391-0.391,1.024,0,1.415C18.655,9.735,18.911,9.833,19.167,9.833z"/>
</g>
</svg>
