<?xml version="1.0" encoding="utf-8"?>
<!-- Generator: Adobe Illustrator 17.0.0, SVG Export Plug-In . SVG Version: 6.00 Build 0)  -->
<!DOCTYPE svg PUBLIC "-//W3C//DTD SVG 1.1//EN" "http://www.w3.org/Graphics/SVG/1.1/DTD/svg11.dtd">
<svg version="1.1" id="Layer_2" xmlns="http://www.w3.org/2000/svg" xmlns:xlink="http://www.w3.org/1999/xlink" x="0px" y="0px"
	 width="48px" height="48px" viewBox="0 0 48 48" enable-background="new 0 0 48 48" xml:space="preserve">
<g>
	<path fill="#010101" d="M16.051,16.002C16.034,16.002,16.017,16,16,16C7.178,16,0,23.178,0,32c0,8.822,7.178,16,16,16
		c8.822,0,16-7.178,16-16c0-0.017-0.002-0.034-0.002-0.051C23.425,31.446,16.554,24.575,16.051,16.002z M16,31c2.206,0,4,1.794,4,4
		c0,1.858-1.28,3.411-3,3.858V40c0,0.552-0.447,1-1,1c-0.553,0-1-0.448-1-1v-1.142c-1.721-0.447-3-2-3-3.858c0-0.552,0.447-1,1-1
		c0.553,0,1,0.448,1,1c0,1.103,0.897,2,2,2c1.102,0,2-0.897,2-2c0-1.102-0.898-2-2-2c-2.206,0-4-1.794-4-4
		c0-1.858,1.279-3.411,3-3.858V24c0-0.552,0.447-1,1-1c0.553,0,1,0.448,1,1v1.142c1.72,0.447,3,2,3,3.858c0,0.552-0.447,1-1,1
		c-0.553,0-1-0.448-1-1c0-1.102-0.898-2-2-2c-1.103,0-2,0.898-2,2C14,30.103,14.897,31,16,31z"/>
	<path fill="#010101" d="M33,0c-8.272,0-15,6.729-15,15s6.728,15,15,15c8.271,0,15-6.729,15-15S41.271,0,33,0z M33,14
		c2.096,0,3.8,1.705,3.8,3.8c0,1.747-1.191,3.207-2.8,3.65v1.017c0,0.552-0.447,1-1,1c-0.553,0-1-0.448-1-1V21.45
		c-1.609-0.442-2.8-1.903-2.8-3.65c0-0.552,0.447-1,1-1s1,0.448,1,1c0,0.993,0.808,1.8,1.8,1.8c0.992,0,1.8-0.808,1.8-1.8
		c0-0.992-0.808-1.8-1.8-1.8c-2.096,0-3.8-1.705-3.8-3.8c0-1.747,1.191-3.207,2.8-3.65V7.533c0-0.552,0.447-1,1-1
		c0.553,0,1,0.448,1,1V8.55c1.609,0.442,2.8,1.903,2.8,3.65c0,0.552-0.447,1-1,1s-1-0.448-1-1c0-0.993-0.808-1.8-1.8-1.8
		c-0.992,0-1.8,0.808-1.8,1.8C31.2,13.192,32.008,14,33,14z"/>
</g>
</svg>
