<?xml version="1.0" encoding="utf-8"?>
<!-- Generator: Adobe Illustrator 17.0.0, SVG Export Plug-In . SVG Version: 6.00 Build 0)  -->
<!DOCTYPE svg PUBLIC "-//W3C//DTD SVG 1.1//EN" "http://www.w3.org/Graphics/SVG/1.1/DTD/svg11.dtd">
<svg version="1.1" id="Layer_2" xmlns="http://www.w3.org/2000/svg" xmlns:xlink="http://www.w3.org/1999/xlink" x="0px" y="0px"
	 width="48px" height="48px" viewBox="0 0 48 48" enable-background="new 0 0 48 48" xml:space="preserve">
<g>
	<path fill="#010101" d="M19,42H3c-1.654,0-3,1.346-3,3v2c0,0.552,0.447,1,1,1h20c0.553,0,1-0.448,1-1v-2C22,43.346,20.654,42,19,42
		z"/>
	<path fill="#010101" d="M3,40h16c0.553,0,1-0.448,1-1v-2c0-1.654-1.346-3-3-3H5c-1.654,0-3,1.346-3,3v2C2,39.552,2.447,40,3,40z"/>
	<path fill="#010101" d="M13.707,15.293c-0.584-0.583-1.301-0.892-2.073-0.892c-1.26,0-2.494,0.856-3.002,2.083
		c-0.47,1.135-0.223,2.34,0.661,3.223l9,9.001c0.584,0.583,1.302,0.892,2.075,0.892c1.259,0,2.493-0.856,3.001-2.083
		c0.47-1.135,0.223-2.34-0.662-3.224L13.707,15.293z"/>
	<path fill="#010101" d="M32.293,14.708c0.584,0.583,1.302,0.892,2.075,0.892c1.259,0,2.493-0.856,3.001-2.083
		c0.47-1.135,0.223-2.34-0.662-3.224l-9-9c-0.584-0.583-1.301-0.892-2.073-0.892c-1.26,0-2.494,0.856-3.002,2.083
		c-0.47,1.135-0.223,2.34,0.661,3.223L32.293,14.708z"/>
	<path fill="#010101" d="M47.414,36.586L28.621,17.793l1.669-1.669c0.391-0.391,0.391-1.024,0-1.414l-7-7
		c-0.375-0.375-1.039-0.375-1.414,0l-6.166,6.166c-0.391,0.391-0.391,1.024,0,1.414l7,7c0.188,0.188,0.441,0.293,0.707,0.293
		s0.52-0.105,0.707-0.293l1.669-1.669l18.793,18.793C44.977,39.805,45.488,40,46,40s1.023-0.195,1.414-0.586
		C48.195,38.633,48.195,37.367,47.414,36.586z"/>
</g>
</svg>
