<?xml version="1.0" encoding="utf-8"?>
<!-- Generator: Adobe Illustrator 17.0.0, SVG Export Plug-In . SVG Version: 6.00 Build 0)  -->
<!DOCTYPE svg PUBLIC "-//W3C//DTD SVG 1.1//EN" "http://www.w3.org/Graphics/SVG/1.1/DTD/svg11.dtd">
<svg version="1.1" id="Layer_2" xmlns="http://www.w3.org/2000/svg" xmlns:xlink="http://www.w3.org/1999/xlink" x="0px" y="0px"
	 width="48px" height="48px" viewBox="0 0 48 48" enable-background="new 0 0 48 48" xml:space="preserve">
<g>
	<path fill="#010101" d="M36,18.059V8H0v13c0,2.757,2.243,5,5,5h23.059C28.522,21.835,31.835,18.522,36,18.059z M13,16H7
		c-0.553,0-1-0.448-1-1c0-0.552,0.447-1,1-1h6c0.553,0,1,0.448,1,1C14,15.552,13.553,16,13,16z M17,12H7c-0.553,0-1-0.448-1-1
		c0-0.552,0.447-1,1-1h10c0.553,0,1,0.448,1,1C18,11.552,17.553,12,17,12z M26,11c0-0.552,0.447-1,1-1h4c0.553,0,1,0.448,1,1
		c0,0.552-0.447,1-1,1h-4C26.447,12,26,11.552,26,11z"/>
	<path fill="#010101" d="M36,5c0-2.757-2.243-5-5-5H5C2.243,0,0,2.243,0,5v1h36V5z"/>
	<path fill="#010101" d="M47,30h-3v-3c0-0.482-0.049-0.954-0.143-1.409c-0.14-0.683-0.38-1.33-0.704-1.925
		c-0.324-0.595-0.731-1.138-1.206-1.613c-0.317-0.317-0.664-0.604-1.036-0.855C39.793,20.441,38.447,20,37,20
		c-1.447,0-2.794,0.441-3.911,1.197c-0.372,0.251-0.72,0.539-1.036,0.855c-0.475,0.475-0.883,1.018-1.207,1.613
		c-0.324,0.595-0.563,1.242-0.704,1.925C30.049,26.046,30,26.518,30,27v3h-3c-0.552,0-1,0.449-1,1v16c0,0.551,0.448,1,1,1h20
		c0.552,0,1-0.449,1-1V31C48,30.449,47.552,30,47,30z M37.949,39.75C37.971,39.832,38,39.911,38,40v3c0,0.552-0.447,1-1,1
		c-0.553,0-1-0.448-1-1v-3c0-0.089,0.029-0.168,0.05-0.25C35.428,39.41,35,38.758,35,38c0-1.105,0.896-2,2-2c1.104,0,2,0.895,2,2
		C39,38.758,38.572,39.411,37.949,39.75z M42,30H32v-3c0-2.068,1.262-3.846,3.056-4.606C35.654,22.14,36.311,22,37,22
		c0.689,0,1.346,0.14,1.944,0.394C40.738,23.154,42,24.932,42,27V30z"/>
</g>
</svg>
