<?xml version="1.0" encoding="utf-8"?>
<!-- Generator: Adobe Illustrator 17.0.0, SVG Export Plug-In . SVG Version: 6.00 Build 0)  -->
<!DOCTYPE svg PUBLIC "-//W3C//DTD SVG 1.1//EN" "http://www.w3.org/Graphics/SVG/1.1/DTD/svg11.dtd">
<svg version="1.1" id="Layer_2" xmlns="http://www.w3.org/2000/svg" xmlns:xlink="http://www.w3.org/1999/xlink" x="0px" y="0px"
	 width="48px" height="48px" viewBox="0 0 48 48" enable-background="new 0 0 48 48" xml:space="preserve">
<g>
	<path fill="#010101" d="M43,10H5c-2.757,0-5,2.243-5,5v3h48v-3C48,12.243,45.757,10,43,10z"/>
	<path fill="#010101" d="M0,35c0,2.757,2.243,5,5,5h38c2.757,0,5-2.243,5-5V20H0V35z M35,24h6c0.553,0,1,0.448,1,1
		c0,0.552-0.447,1-1,1h-6c-0.553,0-1-0.448-1-1C34,24.448,34.447,24,35,24z M7,24h16c0.553,0,1,0.448,1,1c0,0.552-0.447,1-1,1H7
		c-0.553,0-1-0.448-1-1C6,24.448,6.447,24,7,24z M7,28h6c0.553,0,1,0.448,1,1c0,0.552-0.447,1-1,1H7c-0.553,0-1-0.448-1-1
		C6,28.448,6.447,28,7,28z"/>
</g>
</svg>
