<?xml version="1.0" encoding="utf-8"?>
<!-- Generator: Adobe Illustrator 17.0.0, SVG Export Plug-In . SVG Version: 6.00 Build 0)  -->
<!DOCTYPE svg PUBLIC "-//W3C//DTD SVG 1.1//EN" "http://www.w3.org/Graphics/SVG/1.1/DTD/svg11.dtd">
<svg version="1.1" id="Layer_2" xmlns="http://www.w3.org/2000/svg" xmlns:xlink="http://www.w3.org/1999/xlink" x="0px" y="0px"
	 width="48px" height="48px" viewBox="0 0 48 48" enable-background="new 0 0 48 48" xml:space="preserve">
<g>
	<path fill="#010101" d="M30.154,20.195C29.982,20.068,29.774,20,29.56,20H18.439c-0.214,0-0.422,0.068-0.594,0.195
		C13.006,23.765,8,30.652,8,36c0,8.187,5.084,12,16,12s16-3.813,16-12C40,30.652,34.994,23.765,30.154,20.195z M24,33
		c2.206,0,4,1.794,4,4c0,1.858-1.28,3.411-3,3.858V42c0,0.552-0.447,1-1,1c-0.553,0-1-0.448-1-1v-1.142c-1.721-0.447-3-2-3-3.858
		c0-0.552,0.447-1,1-1c0.553,0,1,0.448,1,1c0,1.103,0.897,2,2,2c1.102,0,2-0.897,2-2c0-1.102-0.898-2-2-2c-2.206,0-4-1.794-4-4
		c0-1.858,1.279-3.411,3-3.858V26c0-0.552,0.447-1,1-1c0.553,0,1,0.448,1,1v1.142c1.72,0.447,3,2,3,3.858c0,0.552-0.447,1-1,1
		c-0.553,0-1-0.448-1-1c0-1.102-0.898-2-2-2c-1.103,0-2,0.898-2,2C22,32.103,22.897,33,24,33z"/>
	<path fill="#010101" d="M18,13c0,0.552,0.447,1,1,1h10c0.553,0,1-0.448,1-1c0-3.648,3.794-9.388,3.832-9.445
		c0.245-0.369,0.22-0.855-0.063-1.194c-0.283-0.34-0.758-0.453-1.162-0.279l-6.059,2.596l-1.619-4.048C24.776,0.249,24.409,0,24,0
		c-0.409,0-0.776,0.249-0.929,0.629l-1.619,4.048l-6.059-2.596C14.99,1.907,14.515,2.02,14.231,2.36
		c-0.283,0.34-0.309,0.826-0.063,1.194C14.206,3.612,18,9.352,18,13z"/>
	<path fill="#010101" d="M17,16c-0.553,0-1,0.448-1,1c0,0.552,0.447,1,1,1h14c0.553,0,1-0.448,1-1c0-0.552-0.447-1-1-1H17z"/>
</g>
</svg>
