<?xml version="1.0" encoding="utf-8"?>
<!-- Generator: Adobe Illustrator 17.1.0, SVG Export Plug-In . SVG Version: 6.00 Build 0)  -->
<!DOCTYPE svg PUBLIC "-//W3C//DTD SVG 1.0//EN" "http://www.w3.org/TR/2001/REC-SVG-20010904/DTD/svg10.dtd">
<svg version="1.0" id="Layer_1" xmlns="http://www.w3.org/2000/svg" xmlns:xlink="http://www.w3.org/1999/xlink" x="0px" y="0px"
	 width="48px" height="48px" viewBox="0 0 48 48" enable-background="new 0 0 48 48" xml:space="preserve">
<g>
	<path d="M25,32.858c1.721-0.447,3-1.999,3-3.858s-1.279-3.411-3-3.858V32.858z"/>
	<path d="M20,19c0,1.858,1.28,3.411,3,3.858v-7.716C21.279,15.589,20,17.142,20,19z"/>
	<path d="M48,24c0-1.8-0.962-3.409-2.438-4.289c1.026-1.378,1.299-3.232,0.61-4.894c-0.682-1.647-2.165-2.781-3.894-3.03
		c0.421-1.665-0.036-3.483-1.309-4.757c-1.238-1.238-3.091-1.73-4.757-1.309c-0.249-1.699-1.368-3.203-3.03-3.892
		c-1.63-0.676-3.537-0.407-4.896,0.608C27.407,0.961,25.799,0,24,0c-1.799,0-3.408,0.961-4.288,2.437
		c-1.357-1.014-3.266-1.285-4.896-0.608c-1.663,0.688-2.782,2.191-3.03,3.892C10.115,5.3,8.268,5.792,7.028,7.03
		c-1.272,1.272-1.73,3.09-1.309,4.756c-1.727,0.249-3.21,1.384-3.893,3.03c-0.688,1.662-0.415,3.517,0.61,4.894
		C0.962,20.591,0,22.2,0,24c0,1.799,0.962,3.409,2.438,4.289c-1.026,1.378-1.299,3.232-0.611,4.896
		c0.683,1.646,2.167,2.78,3.894,3.03c-0.42,1.666,0.037,3.483,1.309,4.757c1.239,1.238,3.089,1.73,4.758,1.309
		c0.249,1.699,1.367,3.204,3.029,3.894c1.628,0.677,3.538,0.406,4.896-0.609C20.593,47.039,22.201,48,24,48
		c1.799,0,3.407-0.961,4.288-2.436c1.356,1.014,3.262,1.285,4.896,0.609c1.662-0.689,2.78-2.193,3.029-3.894
		c1.668,0.421,3.518-0.071,4.757-1.31c1.273-1.273,1.729-3.091,1.309-4.756c1.728-0.25,3.212-1.384,3.895-3.03
		c0.688-1.663,0.416-3.517-0.611-4.895C47.038,27.41,48,25.801,48,24z M30,29c0,2.967-2.167,5.431-5,5.91V37c0,0.552-0.447,1-1,1
		s-1-0.448-1-1v-2.09c-2.833-0.479-5-2.943-5-5.91c0-0.552,0.447-1,1-1s1,0.448,1,1c0,1.858,1.28,3.411,3,3.858V24.91
		c-2.833-0.479-5-2.943-5-5.91s2.167-5.431,5-5.91V11c0-0.552,0.447-1,1-1s1,0.448,1,1v2.09c2.833,0.479,5,2.943,5,5.91
		c0,0.552-0.447,1-1,1s-1-0.448-1-1c0-1.858-1.279-3.411-3-3.858v7.948C27.833,23.569,30,26.033,30,29z"/>
</g>
</svg>
