<?xml version="1.0" encoding="utf-8"?>
<!-- Generator: Adobe Illustrator 17.0.0, SVG Export Plug-In . SVG Version: 6.00 Build 0)  -->
<!DOCTYPE svg PUBLIC "-//W3C//DTD SVG 1.1//EN" "http://www.w3.org/Graphics/SVG/1.1/DTD/svg11.dtd">
<svg version="1.1" id="Layer_2" xmlns="http://www.w3.org/2000/svg" xmlns:xlink="http://www.w3.org/1999/xlink" x="0px" y="0px"
	 width="48px" height="48px" viewBox="0 0 48 48" enable-background="new 0 0 48 48" xml:space="preserve">
<g>
	<path fill="#010101" d="M17,13c0,0.552,0.447,1,1,1h10c0.553,0,1-0.448,1-1c0-3.648,3.794-9.388,3.832-9.445
		c0.245-0.369,0.22-0.855-0.063-1.194c-0.283-0.34-0.759-0.453-1.162-0.279l-6.059,2.596l-1.619-4.048C23.776,0.249,23.409,0,23,0
		c-0.409,0-0.776,0.249-0.929,0.629l-1.619,4.048l-6.058-2.596c-0.404-0.174-0.879-0.061-1.162,0.279
		c-0.283,0.34-0.309,0.826-0.063,1.194C13.206,3.612,17,9.352,17,13z"/>
	<path fill="#010101" d="M29.154,20.195C28.982,20.068,28.774,20,28.56,20H17.439c-0.214,0-0.422,0.068-0.594,0.195
		C12.006,23.765,7,30.652,7,36c0,8.187,5.084,12,16,12s16-3.813,16-12C39,30.652,33.994,23.765,29.154,20.195z M25,30
		c0.553,0,1,0.448,1,1c0,0.552-0.447,1-1,1h-4.832C20.062,32.482,20,32.983,20,33.5c0,0.169,0.012,0.335,0.023,0.5H25
		c0.553,0,1,0.448,1,1c0,0.552-0.447,1-1,1h-4.537c0.906,2.347,3.046,4,5.537,4c0.553,0,1,0.448,1,1c0,0.552-0.447,1-1,1
		c-3.593,0-6.638-2.53-7.646-6H17c-0.553,0-1-0.448-1-1c0-0.552,0.447-1,1-1h1.024C18.015,33.834,18,33.669,18,33.5
		c0-0.513,0.05-1.012,0.132-1.5H17c-0.553,0-1-0.448-1-1c0-0.552,0.447-1,1-1h1.718c1.259-2.944,4.046-5,7.282-5
		c0.553,0,1,0.448,1,1c0,0.552-0.447,1-1,1c-2.119,0-3.98,1.199-5.048,3H25z"/>
	<path fill="#010101" d="M16,16c-0.553,0-1,0.448-1,1c0,0.552,0.447,1,1,1h14c0.553,0,1-0.448,1-1c0-0.552-0.447-1-1-1H16z"/>
</g>
</svg>
