<?xml version="1.0" encoding="utf-8"?>
<!-- Generator: Adobe Illustrator 17.0.0, SVG Export Plug-In . SVG Version: 6.00 Build 0)  -->
<!DOCTYPE svg PUBLIC "-//W3C//DTD SVG 1.1//EN" "http://www.w3.org/Graphics/SVG/1.1/DTD/svg11.dtd">
<svg version="1.1" id="Layer_2" xmlns="http://www.w3.org/2000/svg" xmlns:xlink="http://www.w3.org/1999/xlink" x="0px" y="0px"
	 width="48px" height="48px" viewBox="0 0 48 48" enable-background="new 0 0 48 48" xml:space="preserve">
<path fill="#010101" d="M24,0C10.767,0,0,10.767,0,24c0,13.233,10.767,24,24,24c13.233,0,24-10.767,24-24C48,10.767,37.233,0,24,0z
	 M26,22c0.553,0,1,0.448,1,1c0,0.552-0.447,1-1,1h-9c0,0.711,0.047,1.371,0.122,2H24c0.553,0,1,0.448,1,1c0,0.552-0.447,1-1,1
	h-6.468c1.267,4.157,4.885,6,11.468,6c0.553,0,1,0.448,1,1c0,0.552-0.447,1-1,1c-5.159,0-11.763-0.935-13.533-8H13
	c-0.553,0-1-0.448-1-1c0-0.552,0.447-1,1-1h2.105C15.039,25.371,15,24.709,15,24h-2c-0.553,0-1-0.448-1-1c0-0.552,0.447-1,1-1h2.105
	C16.049,13.091,23.386,12,29,12c0.553,0,1,0.448,1,1c0,0.552-0.447,1-1,1c-7.558,0-11.212,2.425-11.878,8H26z"/>
</svg>
