<?xml version="1.0" encoding="utf-8"?>
<!-- Generator: Adobe Illustrator 17.0.0, SVG Export Plug-In . SVG Version: 6.00 Build 0)  -->
<!DOCTYPE svg PUBLIC "-//W3C//DTD SVG 1.1//EN" "http://www.w3.org/Graphics/SVG/1.1/DTD/svg11.dtd">
<svg version="1.1" id="Layer_2" xmlns="http://www.w3.org/2000/svg" xmlns:xlink="http://www.w3.org/1999/xlink" x="0px" y="0px"
	 width="48px" height="48px" viewBox="0 0 48 48" enable-background="new 0 0 48 48" xml:space="preserve">
<path fill="#010101" d="M48,24c0-1.8-0.962-3.409-2.438-4.289c1.026-1.378,1.299-3.232,0.611-4.895
	c-0.683-1.646-2.166-2.78-3.893-3.03c0.421-1.665-0.036-3.483-1.31-4.757c-1.238-1.239-3.09-1.73-4.756-1.31
	c-0.248-1.699-1.367-3.202-3.031-3.892c-1.63-0.676-3.537-0.407-4.895,0.608C27.407,0.961,25.799,0,24,0
	c-1.799,0-3.408,0.961-4.288,2.437c-1.358-1.014-3.266-1.285-4.896-0.608c-1.663,0.688-2.781,2.191-3.03,3.892
	c-1.666-0.421-3.518,0.072-4.756,1.31c-1.273,1.271-1.73,3.09-1.309,4.756c-1.727,0.249-3.21,1.384-3.893,3.03
	c-0.688,1.661-0.416,3.516,0.609,4.895C0.962,20.59,0,22.2,0,24c0,1.799,0.962,3.409,2.437,4.289
	c-1.026,1.378-1.299,3.233-0.611,4.895c0.683,1.646,2.167,2.781,3.895,3.03c-0.42,1.666,0.037,3.483,1.309,4.756
	c1.239,1.239,3.094,1.73,4.757,1.31c0.249,1.7,1.368,3.205,3.03,3.894c1.631,0.676,3.537,0.406,4.896-0.609
	C20.593,47.039,22.201,48,24,48c1.799,0,3.407-0.961,4.288-2.435c1.356,1.015,3.262,1.285,4.897,0.609
	c1.661-0.689,2.779-2.193,3.028-3.894c1.667,0.42,3.519-0.07,4.757-1.31c1.273-1.273,1.73-3.091,1.31-4.756
	c1.727-0.25,3.211-1.383,3.893-3.03c0.689-1.662,0.417-3.517-0.61-4.895C47.039,27.41,48,25.8,48,24z M27,20c0.553,0,1,0.448,1,1
	c0,0.552-0.447,1-1,1h-8.878C18.047,22.629,18,23.289,18,24h7c0.553,0,1,0.448,1,1c0,0.552-0.447,1-1,1h-6.878
	c0.666,5.575,4.32,8,11.878,8c0.553,0,1,0.448,1,1c0,0.552-0.447,1-1,1c-5.614,0-12.951-1.091-13.894-10H14c-0.553,0-1-0.448-1-1
	c0-0.552,0.447-1,1-1h2c0-0.709,0.039-1.371,0.106-2H14c-0.553,0-1-0.448-1-1c0-0.552,0.447-1,1-1h2.467
	c1.77-7.064,8.374-8,13.533-8c0.553,0,1,0.448,1,1c0,0.552-0.447,1-1,1c-6.583,0-10.201,1.843-11.468,6H27z"/>
</svg>
