<?xml version="1.0" encoding="utf-8"?>
<!-- Generator: Adobe Illustrator 17.0.0, SVG Export Plug-In . SVG Version: 6.00 Build 0)  -->
<!DOCTYPE svg PUBLIC "-//W3C//DTD SVG 1.1//EN" "http://www.w3.org/Graphics/SVG/1.1/DTD/svg11.dtd">
<svg version="1.1" id="Layer_2" xmlns="http://www.w3.org/2000/svg" xmlns:xlink="http://www.w3.org/1999/xlink" x="0px" y="0px"
	 width="48px" height="48px" viewBox="0 0 48 48" enable-background="new 0 0 48 48" xml:space="preserve">
<g>
	<path fill="#010101" d="M43,7H5c-2.757,0-5,2.243-5,5v26c0,2.757,2.243,5,5,5h38c2.757,0,5-2.243,5-5V12C48,9.243,45.757,7,43,7z
		 M25.999,26.001c0,0.688-0.085,1.355-0.231,1.999h-1.74v2h1.023c-0.697,1.397-1.738,2.593-3.023,3.461V33h-2v1.465
		C19.079,34.805,18.063,35,16.999,35c-1.043,0-2.04-0.187-2.972-0.514V33h-2v0.496c-1.31-0.872-2.372-2.08-3.079-3.496h1.079v-2
		H8.23c-0.147-0.644-0.231-1.311-0.231-1.999c0-0.189,0.017-0.374,0.028-0.56V26h2v-2H8.231c0.16-0.702,0.404-1.371,0.718-2h1.078
		v-1.682c0.572-0.7,1.246-1.312,2-1.813V20h2v-2h-1.133c0.959-0.494,2.014-0.825,3.133-0.946V18h2v-0.937
		c1.098,0.126,2.134,0.452,3.076,0.937h-1.076v2h2v-1.461c0.758,0.513,1.43,1.141,2,1.854V22h1.022c0.314,0.629,0.558,1.298,0.718,2
		h-1.74v2L25.999,26.001L25.999,26.001z M32.125,34.69c-2.489,0-4.539-0.812-6.112-2.404c1.248-1.784,1.986-3.948,1.986-6.285
		c0-2.408-0.787-4.63-2.104-6.444c1.655-1.668,3.88-2.616,6.23-2.616c4.894,0,8.875,3.981,8.875,8.875
		C41,30.71,37.019,34.69,32.125,34.69z"/>
	<rect x="20.027" y="22" fill="#010101" width="2" height="2"/>
	<rect x="20.027" y="26" fill="#010101" width="2" height="2"/>
	<rect x="20.027" y="30" fill="#010101" width="2" height="2"/>
	<rect x="12.027" y="22" fill="#010101" width="2" height="2"/>
	<rect x="12.027" y="26" fill="#010101" width="2" height="2"/>
	<rect x="12.027" y="30" fill="#010101" width="2" height="2"/>
	<rect x="16.027" y="20" fill="#010101" width="2" height="2"/>
	<rect x="16.027" y="24" fill="#010101" width="2" height="2"/>
	<rect x="16.027" y="28" fill="#010101" width="2" height="2"/>
	<rect x="16.027" y="32" fill="#010101" width="2" height="2"/>
</g>
</svg>
