<?xml version="1.0" encoding="utf-8"?>
<!-- Generator: Adobe Illustrator 17.0.0, SVG Export Plug-In . SVG Version: 6.00 Build 0)  -->
<!DOCTYPE svg PUBLIC "-//W3C//DTD SVG 1.1//EN" "http://www.w3.org/Graphics/SVG/1.1/DTD/svg11.dtd">
<svg version="1.1" id="Layer_2" xmlns="http://www.w3.org/2000/svg" xmlns:xlink="http://www.w3.org/1999/xlink" x="0px" y="0px"
	 width="48px" height="48px" viewBox="0 0 48 48" enable-background="new 0 0 48 48" xml:space="preserve">
<path fill="#010101" d="M48,24c0-1.8-0.962-3.409-2.438-4.289c1.026-1.378,1.299-3.232,0.611-4.895
	c-0.683-1.646-2.166-2.781-3.894-3.03c0.421-1.665-0.037-3.483-1.31-4.757c-1.238-1.238-3.088-1.731-4.756-1.31
	c-0.249-1.698-1.368-3.202-3.031-3.891c-1.63-0.676-3.537-0.407-4.896,0.608C27.407,0.961,25.799,0,24,0
	c-1.799,0-3.408,0.961-4.288,2.437c-1.358-1.015-3.266-1.284-4.896-0.608c-1.662,0.688-2.781,2.191-3.03,3.892
	c-1.666-0.421-3.518,0.072-4.757,1.31c-1.272,1.272-1.729,3.09-1.308,4.756c-1.727,0.25-3.21,1.384-3.893,3.03
	c-0.688,1.661-0.416,3.516,0.609,4.894C0.962,20.59,0,22.2,0,24c0,1.799,0.962,3.409,2.438,4.289
	c-1.026,1.378-1.299,3.233-0.611,4.896c0.683,1.646,2.167,2.781,3.894,3.03c-0.42,1.665,0.037,3.482,1.308,4.756
	c1.239,1.238,3.089,1.73,4.758,1.309c0.249,1.7,1.368,3.204,3.03,3.894c1.631,0.676,3.538,0.405,4.895-0.609
	C20.593,47.039,22.201,48,24,48c1.799,0,3.407-0.961,4.288-2.435c1.356,1.014,3.262,1.285,4.896,0.609
	c1.662-0.688,2.78-2.193,3.029-3.894c1.667,0.421,3.518-0.07,4.757-1.31c1.273-1.273,1.73-3.091,1.31-4.756
	c1.727-0.25,3.211-1.384,3.894-3.03c0.689-1.662,0.417-3.517-0.61-4.896C47.039,27.41,48,25.801,48,24z M14,18c0-2.206,1.794-4,4-4
	c2.206,0,4,1.794,4,4c0,2.206-1.794,4-4,4C15.794,22,14,20.206,14,18z M16.707,32.707C16.512,32.902,16.256,33,16,33
	c-0.256,0-0.512-0.098-0.707-0.293c-0.391-0.391-0.391-1.023,0-1.414l16-16c0.391-0.391,1.023-0.391,1.414,0
	c0.391,0.391,0.391,1.023,0,1.414L16.707,32.707z M30,34c-2.206,0-4-1.794-4-4c0-2.206,1.794-4,4-4c2.206,0,4,1.794,4,4
	C34,32.206,32.206,34,30,34z"/>
</svg>
