<?xml version="1.0" encoding="utf-8"?>
<!-- Generator: Adobe Illustrator 17.0.0, SVG Export Plug-In . SVG Version: 6.00 Build 0)  -->
<!DOCTYPE svg PUBLIC "-//W3C//DTD SVG 1.1//EN" "http://www.w3.org/Graphics/SVG/1.1/DTD/svg11.dtd">
<svg version="1.1" id="Layer_2" xmlns="http://www.w3.org/2000/svg" xmlns:xlink="http://www.w3.org/1999/xlink" x="0px" y="0px"
	 width="48px" height="48px" viewBox="0 0 48 48" enable-background="new 0 0 48 48" xml:space="preserve">
<path fill="#010101" d="M24,0C10.767,0,0,10.767,0,24c0,13.233,10.767,24,24,24s24-10.767,24-24C48,10.767,37.233,0,24,0z M18,14
	c2.206,0,4,1.794,4,4c0,2.206-1.794,4-4,4c-2.206,0-4-1.794-4-4C14,15.794,15.794,14,18,14z M16.707,32.707
	C16.512,32.902,16.256,33,16,33c-0.256,0-0.512-0.098-0.707-0.293c-0.391-0.391-0.391-1.023,0-1.414l16-16
	c0.391-0.391,1.023-0.391,1.414,0c0.391,0.391,0.391,1.023,0,1.414L16.707,32.707z M30,34c-2.206,0-4-1.794-4-4c0-2.206,1.794-4,4-4
	c2.206,0,4,1.794,4,4C34,32.206,32.206,34,30,34z"/>
</svg>
