<?xml version="1.0" encoding="utf-8"?>
<!-- Generator: Adobe Illustrator 17.0.0, SVG Export Plug-In . SVG Version: 6.00 Build 0)  -->
<!DOCTYPE svg PUBLIC "-//W3C//DTD SVG 1.1//EN" "http://www.w3.org/Graphics/SVG/1.1/DTD/svg11.dtd">
<svg version="1.1" id="Layer_2" xmlns="http://www.w3.org/2000/svg" xmlns:xlink="http://www.w3.org/1999/xlink" x="0px" y="0px"
	 width="48px" height="48px" viewBox="0 0 48 48" enable-background="new 0 0 48 48" xml:space="preserve">
<g>
	<path fill="#010101" d="M47.96,1.608c-0.012-0.059-0.034-0.114-0.05-0.171c-0.02-0.068-0.036-0.137-0.063-0.203
		c-0.027-0.066-0.065-0.126-0.099-0.188c-0.028-0.052-0.051-0.107-0.085-0.156c-0.073-0.109-0.156-0.212-0.249-0.305
		c-0.001-0.001-0.002-0.001-0.002-0.002c-0.092-0.092-0.194-0.174-0.303-0.247c-0.048-0.032-0.101-0.054-0.151-0.081
		c-0.064-0.035-0.126-0.074-0.194-0.102c-0.064-0.026-0.13-0.041-0.195-0.06c-0.059-0.018-0.117-0.041-0.178-0.053
		c-0.121-0.024-0.244-0.036-0.366-0.037C46.016,0.002,46.008,0,46,0H34c-1.105,0-2,0.896-2,2c0,1.105,0.895,2,2,2h7.172
		L0.586,44.586c-0.781,0.781-0.781,2.047,0,2.828C0.977,47.805,1.488,48,2,48c0.512,0,1.023-0.195,1.414-0.586L44,6.828V14
		c0,1.105,0.895,2,2,2c1.104,0,2-0.895,2-2V2C48,1.869,47.986,1.738,47.96,1.608z"/>
	<path fill="#010101" d="M10,19c4.963,0,9-4.037,9-9c0-4.963-4.037-9-9-9c-4.963,0-9,4.037-9,9C1,14.963,5.037,19,10,19z"/>
	<path fill="#010101" d="M38,29c-4.963,0-9,4.037-9,9c0,4.963,4.037,9,9,9c4.963,0,9-4.037,9-9C47,33.037,42.963,29,38,29z"/>
</g>
</svg>
