<?xml version="1.0" encoding="utf-8"?>
<!-- Generator: Adobe Illustrator 17.0.0, SVG Export Plug-In . SVG Version: 6.00 Build 0)  -->
<!DOCTYPE svg PUBLIC "-//W3C//DTD SVG 1.1//EN" "http://www.w3.org/Graphics/SVG/1.1/DTD/svg11.dtd">
<svg version="1.1" id="Layer_2" xmlns="http://www.w3.org/2000/svg" xmlns:xlink="http://www.w3.org/1999/xlink" x="0px" y="0px"
	 width="48px" height="48px" viewBox="0 0 48 48" enable-background="new 0 0 48 48" xml:space="preserve">
<g>
	<path fill="#010101" d="M33.414,17.414c0.781-0.781,0.781-2.047,0-2.828c-0.781-0.781-2.047-0.781-2.828,0l-16,16
		c-0.781,0.781-0.781,2.047,0,2.828C14.977,33.805,15.488,34,16,34c0.512,0,1.023-0.195,1.414-0.586L33.414,17.414z"/>
	<path fill="#010101" d="M18,13c-2.757,0-5,2.243-5,5c0,2.757,2.243,5,5,5c2.757,0,5-2.243,5-5C23,15.243,20.757,13,18,13z M18,19
		c-0.552,0-1-0.448-1-1c0-0.552,0.448-1,1-1c0.552,0,1,0.448,1,1C19,18.552,18.552,19,18,19z"/>
	<path fill="#010101" d="M25,30c0,2.757,2.243,5,5,5c2.757,0,5-2.243,5-5c0-2.757-2.243-5-5-5C27.243,25,25,27.243,25,30z M31,30
		c0,0.552-0.448,1-1,1c-0.552,0-1-0.448-1-1c0-0.552,0.448-1,1-1C30.552,29,31,29.448,31,30z"/>
	<path fill="#010101" d="M5,0H0v5c0,1.105,0.895,2,2,2c1.104,0,2-0.895,2-2V4h1c1.104,0,2-0.895,2-2C7,0.896,6.104,0,5,0z"/>
	<path fill="#010101" d="M43,0c-1.105,0-2,0.896-2,2c0,1.105,0.895,2,2,2h1v1c0,1.105,0.895,2,2,2c1.104,0,2-0.895,2-2V0H43z"/>
	<path fill="#010101" d="M11.087,4H13c1.104,0,2-0.895,2-2c0-1.104-0.896-2-2-2h-1.913c-1.104,0-2,0.896-2,2
		C9.087,3.105,9.982,4,11.087,4z"/>
	<path fill="#010101" d="M19,4h1.913c1.104,0,2-0.895,2-2c0-1.104-0.896-2-2-2H19c-1.105,0-2,0.896-2,2C17,3.105,17.895,4,19,4z"/>
	<path fill="#010101" d="M27,4h1.913c1.104,0,2-0.895,2-2c0-1.104-0.896-2-2-2H27c-1.105,0-2,0.896-2,2C25,3.105,25.895,4,27,4z"/>
	<path fill="#010101" d="M37,0h-1.913c-1.104,0-2,0.896-2,2c0,1.105,0.896,2,2,2H37c1.104,0,2-0.895,2-2C39,0.896,38.104,0,37,0z"/>
	<path fill="#010101" d="M5,44H4v-1c0-1.104-0.896-2-2-2c-1.105,0-2,0.896-2,2v5h5c1.104,0,2-0.895,2-2C7,44.896,6.104,44,5,44z"/>
	<path fill="#010101" d="M46,41c-1.105,0-2,0.896-2,2v1h-1c-1.105,0-2,0.896-2,2c0,1.105,0.895,2,2,2h5v-5
		C48,41.896,47.104,41,46,41z"/>
	<path fill="#010101" d="M13,44h-1.913c-1.104,0-2,0.896-2,2c0,1.105,0.896,2,2,2H13c1.104,0,2-0.895,2-2C15,44.896,14.104,44,13,44
		z"/>
	<path fill="#010101" d="M20.913,44H19c-1.105,0-2,0.896-2,2c0,1.105,0.895,2,2,2h1.913c1.104,0,2-0.895,2-2
		C22.913,44.896,22.018,44,20.913,44z"/>
	<path fill="#010101" d="M28.913,44H27c-1.105,0-2,0.896-2,2c0,1.105,0.895,2,2,2h1.913c1.104,0,2-0.895,2-2
		C30.913,44.896,30.018,44,28.913,44z"/>
	<path fill="#010101" d="M37,44h-1.913c-1.104,0-2,0.896-2,2c0,1.105,0.896,2,2,2H37c1.104,0,2-0.895,2-2C39,44.896,38.104,44,37,44
		z"/>
	<path fill="#010101" d="M46,9.087c-1.105,0-2,0.896-2,2V13c0,1.105,0.895,2,2,2c1.104,0,2-0.895,2-2v-1.913
		C48,9.982,47.104,9.087,46,9.087z"/>
	<path fill="#010101" d="M46,17c-1.105,0-2,0.896-2,2v1.913c0,1.104,0.895,2,2,2c1.104,0,2-0.896,2-2V19C48,17.896,47.104,17,46,17z
		"/>
	<path fill="#010101" d="M46,25c-1.105,0-2,0.896-2,2v1.913c0,1.104,0.895,2,2,2c1.104,0,2-0.896,2-2V27C48,25.896,47.104,25,46,25z
		"/>
	<path fill="#010101" d="M46,33.087c-1.105,0-2,0.896-2,2V37c0,1.105,0.895,2,2,2c1.104,0,2-0.895,2-2v-1.913
		C48,33.982,47.104,33.087,46,33.087z"/>
	<path fill="#010101" d="M2,15c1.104,0,2-0.895,2-2v-1.913c0-1.104-0.896-2-2-2c-1.105,0-2,0.896-2,2V13C0,14.105,0.895,15,2,15z"/>
	<path fill="#010101" d="M2,22.913c1.104,0,2-0.896,2-2V19c0-1.104-0.896-2-2-2c-1.105,0-2,0.896-2,2v1.913
		C0,22.018,0.895,22.913,2,22.913z"/>
	<path fill="#010101" d="M2,30.913c1.104,0,2-0.896,2-2V27c0-1.104-0.896-2-2-2c-1.105,0-2,0.896-2,2v1.913
		C0,30.018,0.895,30.913,2,30.913z"/>
	<path fill="#010101" d="M2,39c1.104,0,2-0.895,2-2v-1.913c0-1.104-0.896-2-2-2c-1.105,0-2,0.896-2,2V37C0,38.105,0.895,39,2,39z"/>
</g>
</svg>
