<?xml version="1.0" encoding="utf-8"?>
<!-- Generator: Adobe Illustrator 17.0.0, SVG Export Plug-In . SVG Version: 6.00 Build 0)  -->
<!DOCTYPE svg PUBLIC "-//W3C//DTD SVG 1.1//EN" "http://www.w3.org/Graphics/SVG/1.1/DTD/svg11.dtd">
<svg version="1.1" id="Layer_2" xmlns="http://www.w3.org/2000/svg" xmlns:xlink="http://www.w3.org/1999/xlink" x="0px" y="0px"
	 width="48px" height="48px" viewBox="0 0 48 48" enable-background="new 0 0 48 48" xml:space="preserve">
<g>
	<path fill="#010101" d="M41,26H22V7c0-0.552-0.447-1-1-1C9.421,6,0,15.421,0,27c0,11.579,9.421,21,21,21c11.579,0,21-9.421,21-21
		C42,26.448,41.553,26,41,26z"/>
	<path fill="#010101" d="M27,0c-0.553,0-1,0.448-1,1v20c0,0.552,0.447,1,1,1h20c0.553,0,1-0.448,1-1C48,9.421,38.579,0,27,0z"/>
</g>
</svg>
