<?xml version="1.0" encoding="utf-8"?>
<!-- Generator: Adobe Illustrator 17.1.0, SVG Export Plug-In . SVG Version: 6.00 Build 0)  -->
<!DOCTYPE svg PUBLIC "-//W3C//DTD SVG 1.0//EN" "http://www.w3.org/TR/2001/REC-SVG-20010904/DTD/svg10.dtd">
<svg version="1.0" id="Layer_1" xmlns="http://www.w3.org/2000/svg" xmlns:xlink="http://www.w3.org/1999/xlink" x="0px" y="0px"
	 width="48px" height="48px" viewBox="0 0 48 48" enable-background="new 0 0 48 48" xml:space="preserve">
<path d="M47,18c-0.553,0-1,0.448-1,1c0,1.327-0.872,2.443-2.069,2.837C43.223,13.006,34.567,6,24,6
	c-1.456,0-2.944,0.148-4.434,0.438C18.079,4.301,15.626,3,13,3c-1.398,0-2.781,0.373-4.001,1.079C8.69,4.258,8.5,4.587,8.5,4.944
	c0,0.357,0.19,0.687,0.499,0.866c1.401,0.811,2.423,2.173,2.817,3.724C7.87,12.116,5.185,15.866,4.311,20H1c-0.553,0-1,0.448-1,1v8
	c0,0.552,0.447,1,1,1h4.779c1.924,3.625,5.212,6.467,9.221,8.182V44c0,0.552,0.447,1,1,1c0.553,0,1-0.448,1-1v-5.068
	C19.195,39.625,21.557,40,24,40c2.465,0,4.818-0.399,7-1.096V44c0,0.552,0.447,1,1,1s1-0.448,1-1v-5.839
	c6.214-2.676,10.557-8.022,10.946-14.256C46.251,23.46,48,21.433,48,19C48,18.448,47.553,18,47,18z M12,22c-1.102,0-2-0.897-2-2
	s0.898-2,2-2s2,0.897,2,2S13.102,22,12,22z M33.8,15.601C33.603,15.862,33.303,16,32.999,16c-0.209,0-0.42-0.065-0.6-0.2
	c-2.673-2.007-5.996-2.99-9.333-2.769c-0.545,0.036-1.027-0.38-1.064-0.932c-0.036-0.551,0.381-1.027,0.932-1.063
	c3.825-0.253,7.612,0.87,10.667,3.164C34.042,14.532,34.131,15.159,33.8,15.601z"/>
</svg>
