<?xml version="1.0" encoding="utf-8"?>
<!-- Generator: Adobe Illustrator 17.0.0, SVG Export Plug-In . SVG Version: 6.00 Build 0)  -->
<!DOCTYPE svg PUBLIC "-//W3C//DTD SVG 1.1//EN" "http://www.w3.org/Graphics/SVG/1.1/DTD/svg11.dtd">
<svg version="1.1" id="Layer_2" xmlns="http://www.w3.org/2000/svg" xmlns:xlink="http://www.w3.org/1999/xlink" x="0px" y="0px"
	 width="48px" height="48px" viewBox="0 0 48 48" enable-background="new 0 0 48 48" xml:space="preserve">
<path fill="#010101" d="M24,0C10.767,0,0,10.767,0,24c0,13.233,10.767,24,24,24c13.233,0,24-10.767,24-24C48,10.767,37.233,0,24,0z
	 M26,22c0.553,0,1,0.448,1,1c0,0.552-0.447,1-1,1h-4v2c0,2.893-0.521,4.786-1.297,6H29c0.553,0,1,0.448,1,1c0,0.552-0.447,1-1,1H17
	c-0.553,0-1-0.448-1-1c0-0.552,0.447-1,1-1c0.742,0,3,0,3-6v-2h-4c-0.553,0-1-0.448-1-1c0-0.552,0.447-1,1-1h4v-5
	c0-2.757,2.243-5,5-5c2.757,0,5,2.243,5,5c0,0.552-0.447,1-1,1c-0.553,0-1-0.448-1-1c0-1.654-1.346-3-3-3c-1.654,0-3,1.346-3,3v5H26
	z"/>
</svg>
