<?xml version="1.0" encoding="utf-8"?>
<!-- Generator: Adobe Illustrator 17.0.0, SVG Export Plug-In . SVG Version: 6.00 Build 0)  -->
<!DOCTYPE svg PUBLIC "-//W3C//DTD SVG 1.1//EN" "http://www.w3.org/Graphics/SVG/1.1/DTD/svg11.dtd">
<svg version="1.1" id="Layer_2" xmlns="http://www.w3.org/2000/svg" xmlns:xlink="http://www.w3.org/1999/xlink" x="0px" y="0px"
	 width="48px" height="48px" viewBox="0 0 48 48" enable-background="new 0 0 48 48" xml:space="preserve">
<path fill="#010101" d="M42,14.844V11c0-0.552-0.447-1-1-1H7c-0.553,0-1,0.448-1,1v3.844C2.384,16.425,0,20.019,0,24
	c0,3.982,2.384,7.576,6,9.157V37c0,0.552,0.447,1,1,1h34c0.553,0,1-0.448,1-1v-3.843c3.616-1.58,6-5.174,6-9.157
	C48,20.018,45.616,16.424,42,14.844z M26,22c0.553,0,1,0.448,1,1c0,0.552-0.447,1-1,1h-2v2c0,0.607-0.174,1.334-0.49,2H27
	c0.553,0,1,0.448,1,1c0,0.552-0.447,1-1,1h-6c-0.553,0-1-0.448-1-1c0-0.552,0.447-1,1-1c0.32-0.043,1-1.18,1-2v-2h-2
	c-0.553,0-1-0.448-1-1c0-0.552,0.447-1,1-1h2v-3c0-1.654,1.346-3,3-3c1.654,0,3,1.346,3,3c0,0.552-0.447,1-1,1c-0.553,0-1-0.448-1-1
	c0-0.552-0.448-1-1-1c-0.552,0-1,0.448-1,1v3H26z"/>
</svg>
