<?xml version="1.0" encoding="utf-8"?>
<!-- Generator: Adobe Illustrator 17.0.0, SVG Export Plug-In . SVG Version: 6.00 Build 0)  -->
<!DOCTYPE svg PUBLIC "-//W3C//DTD SVG 1.1//EN" "http://www.w3.org/Graphics/SVG/1.1/DTD/svg11.dtd">
<svg version="1.1" id="Layer_2" xmlns="http://www.w3.org/2000/svg" xmlns:xlink="http://www.w3.org/1999/xlink" x="0px" y="0px"
	 width="48px" height="48px" viewBox="0 0 48 48" enable-background="new 0 0 48 48" xml:space="preserve">
<path fill="#010101" d="M39,44H16.471C18.075,42.138,19,39.729,19,37v-9h16c1.104,0,2-0.895,2-2c0-1.104-0.896-2-2-2H19V13
	c0-4.963,4.037-9,9-9c4.963,0,9,4.037,9,9c0,1.105,0.895,2,2,2c1.104,0,2-0.895,2-2c0-7.168-5.832-13-13-13S15,5.832,15,13v11H5
	c-1.105,0-2,0.896-2,2c0,1.105,0.895,2,2,2h10v9c0,4.81-4.147,7-8,7c-1.105,0-2,0.896-2,2c0,1.105,0.895,2,2,2h32
	c1.104,0,2-0.895,2-2C41,44.896,40.104,44,39,44z"/>
</svg>
