<?xml version="1.0" encoding="utf-8"?>
<!-- Generator: Adobe Illustrator 17.1.0, SVG Export Plug-In . SVG Version: 6.00 Build 0)  -->
<!DOCTYPE svg PUBLIC "-//W3C//DTD SVG 1.0//EN" "http://www.w3.org/TR/2001/REC-SVG-20010904/DTD/svg10.dtd">
<svg version="1.0" id="Layer_1" xmlns="http://www.w3.org/2000/svg" xmlns:xlink="http://www.w3.org/1999/xlink" x="0px" y="0px"
	 width="48px" height="48px" viewBox="0 0 48 48" enable-background="new 0 0 48 48" xml:space="preserve">
<g>
	<path d="M41,10H8c-0.552,0-1,0.448-1,1v4c0.553,0,1,0.448,1,1v2c0,0.552-0.447,1-1,1v8c0.553,0,1,0.448,1,1v2c0,0.552-0.447,1-1,1
		v4c0,0.552,0.448,1,1,1h33c0.552,0,1-0.448,1-1V11C42,10.448,41.552,10,41,10z M30,33h-2v-2h2V33z M30,30h-2v-2h2V30z M30,27h-2v-2
		h2V27z M34,33h-2v-2h2V33z M34,30h-2v-2h2V30z M34,27h-2v-2h2V27z M38,33h-2v-2h2V33z M38,30h-2v-2h2V30z M38,27h-2v-2h2V27z
		 M33,23c-2.977,0-5.4-2.475-5.4-5.516C27.6,14.46,30.022,12,33,12c2.996,0,5.434,2.46,5.434,5.484C38.434,20.474,35.945,23,33,23z"
		/>
	<path d="M45,2H3C1.346,2,0,3.346,0,5v36c0,1.654,1.346,3,3,3h2v1c0,0.552,0.447,1,1,1h3c0.553,0,1-0.448,1-1v-1h28v1
		c0,0.552,0.447,1,1,1h3c0.553,0,1-0.448,1-1v-1h2c1.654,0,3-1.346,3-3V5C48,3.346,46.654,2,45,2z M44,35c0,1.654-1.346,3-3,3H8
		c-1.654,0-3-1.346-3-3v-4c-0.553,0-1-0.448-1-1v-2c0-0.552,0.447-1,1-1v-8c-0.553,0-1-0.448-1-1v-2c0-0.552,0.447-1,1-1v-4
		c0-1.654,1.346-3,3-3h33c1.654,0,3,1.346,3,3V35z"/>
	<circle cx="33.017" cy="17.484" r="1.472"/>
</g>
</svg>
