<?xml version="1.0" encoding="utf-8"?>
<!-- Generator: Adobe Illustrator 17.0.0, SVG Export Plug-In . SVG Version: 6.00 Build 0)  -->
<!DOCTYPE svg PUBLIC "-//W3C//DTD SVG 1.1//EN" "http://www.w3.org/Graphics/SVG/1.1/DTD/svg11.dtd">
<svg version="1.1" id="Layer_2" xmlns="http://www.w3.org/2000/svg" xmlns:xlink="http://www.w3.org/1999/xlink" x="0px" y="0px"
	 width="48px" height="48px" viewBox="0 0 48 48" enable-background="new 0 0 48 48" xml:space="preserve">
<path fill="#010101" d="M43,18h-0.586L24.707,0.293c-0.391-0.391-1.023-0.391-1.414,0L5.586,18H5c-2.757,0-5,2.243-5,5v20
	c0,2.757,2.243,5,5,5h38c2.757,0,5-2.243,5-5V23C48,20.243,45.757,18,43,18z M24,2.414L39.586,18H8.414L24,2.414z M42,39
	c0,1.654-1.346,3-3,3H9c-1.654,0-3-1.346-3-3V27c0-1.654,1.346-3,3-3h30c1.654,0,3,1.346,3,3V39z"/>
</svg>
