<?xml version="1.0" encoding="utf-8"?>
<!-- Generator: Adobe Illustrator 17.0.0, SVG Export Plug-In . SVG Version: 6.00 Build 0)  -->
<!DOCTYPE svg PUBLIC "-//W3C//DTD SVG 1.1//EN" "http://www.w3.org/Graphics/SVG/1.1/DTD/svg11.dtd">
<svg version="1.1" id="Layer_2" xmlns="http://www.w3.org/2000/svg" xmlns:xlink="http://www.w3.org/1999/xlink" x="0px" y="0px"
	 width="48px" height="48px" viewBox="0 0 48 48" enable-background="new 0 0 48 48" xml:space="preserve">
<g>
	<path fill="#010101" d="M35.864,46.278l-4.172-4C31.506,42.1,31.258,42,31,42H13.92c0.047-0.328,0.08-0.66,0.08-1
		c0-0.34-0.033-0.672-0.08-0.999H33c0.553,0,1-0.448,1-1V23c0-0.552-0.447-1-1-1H13c-0.553,0-1,0.448-1,1v13.11
		c-0.574-0.587-1.251-1.068-2-1.425V1c0-0.552-0.447-1-1-1H3C2.447,0,2,0.448,2,1c0,0.552,0.447,1,1,1h5v32.08
		C7.673,34.033,7.34,34,7,34c-3.859,0-7,3.14-7,7c0,3.86,3.141,7,7,7c2.785,0,5.189-1.639,6.315-4h17.283l3.882,3.722
		C34.674,47.908,34.923,48,35.172,48c0.263,0,0.525-0.103,0.722-0.308C36.276,47.294,36.263,46.66,35.864,46.278z M25,34h4
		c0.553,0,1,0.448,1,1c0,0.552-0.447,1-1,1h-4c-0.553,0-1-0.448-1-1C24,34.448,24.447,34,25,34z"/>
	<path fill="#010101" d="M13,21h14c0.553,0,1-0.448,1-1V10c0-0.552-0.447-1-1-1H13c-0.553,0-1,0.448-1,1v10
		C12,20.552,12.447,21,13,21z M17,15h2c0.553,0,1,0.448,1,1c0,0.552-0.447,1-1,1h-2c-0.553,0-1-0.448-1-1C16,15.448,16.447,15,17,15
		z"/>
</g>
</svg>
