<?xml version="1.0" encoding="utf-8"?>
<!-- Generator: Adobe Illustrator 17.0.0, SVG Export Plug-In . SVG Version: 6.00 Build 0)  -->
<!DOCTYPE svg PUBLIC "-//W3C//DTD SVG 1.1//EN" "http://www.w3.org/Graphics/SVG/1.1/DTD/svg11.dtd">
<svg version="1.1" id="Layer_2" xmlns="http://www.w3.org/2000/svg" xmlns:xlink="http://www.w3.org/1999/xlink" x="0px" y="0px"
	 width="48px" height="48px" viewBox="0 0 48 48" enable-background="new 0 0 48 48" xml:space="preserve">
<g>
	<path fill="#010101" d="M47,14H21c-0.553,0-1,0.448-1,1v23h-1V19c0-0.552-0.447-1-1-1h-8c-0.363,0-0.698,0.197-0.874,0.515
		l-4.932,8.877l-3.901,3.901C0.105,31.481,0,31.735,0,32v7v4c0,0.552,0.447,1,1,1h2.08C3.033,43.672,3,43.34,3,43
		c0-3.86,3.141-7,7-7c3.859,0,7,3.14,7,7c0,0.34-0.033,0.672-0.08,1h14.16C31.033,43.672,31,43.34,31,43c0-3.86,3.141-7,7-7
		c3.859,0,7,3.14,7,7c0,0.34-0.033,0.672-0.08,1H47c0.553,0,1-0.448,1-1v-4V15C48,14.448,47.553,14,47,14z M15,24h-2.382
		l-2.724,5.447C9.719,29.798,9.366,30,8.999,30c-0.15,0-0.303-0.034-0.446-0.105c-0.494-0.247-0.694-0.848-0.447-1.342l3-6
		C11.275,22.214,11.621,22,12,22h3c0.553,0,1,0.448,1,1C16,23.552,15.553,24,15,24z"/>
	<path fill="#010101" d="M10,38c-2.757,0-5,2.243-5,5c0,2.757,2.243,5,5,5c2.757,0,5-2.243,5-5C15,40.243,12.757,38,10,38z"/>
	<path fill="#010101" d="M38,38c-2.757,0-5,2.243-5,5c0,2.757,2.243,5,5,5c2.757,0,5-2.243,5-5C43,40.243,40.757,38,38,38z"/>
</g>
</svg>
