<?xml version="1.0" encoding="utf-8"?>
<!-- Generator: Adobe Illustrator 17.0.0, SVG Export Plug-In . SVG Version: 6.00 Build 0)  -->
<!DOCTYPE svg PUBLIC "-//W3C//DTD SVG 1.1//EN" "http://www.w3.org/Graphics/SVG/1.1/DTD/svg11.dtd">
<svg version="1.1" id="Layer_2" xmlns="http://www.w3.org/2000/svg" xmlns:xlink="http://www.w3.org/1999/xlink" x="0px" y="0px"
	 width="48px" height="48px" viewBox="0 0 48 48" enable-background="new 0 0 48 48" xml:space="preserve">
<g>
	<path fill="#010101" d="M15,35.585V21c0-0.552-0.447-1-1-1H9c-4.963,0-9,4.037-9,9v10c0,0.552,0.447,1,1,1h8.818
		C10.564,37.7,12.56,35.964,15,35.585z M10,26H6.875C6.393,26,6,26.393,6,26.875V30c0,0.552-0.447,1-1,1c-0.553,0-1-0.448-1-1
		v-3.125C4,25.29,5.29,24,6.875,24H10c0.553,0,1,0.448,1,1C11,25.552,10.553,26,10,26z"/>
	<path fill="#010101" d="M47,12H17c-0.553,0-1,0.448-1,1v22.5c3.584,0,6.5,2.916,6.5,6.5h9c0-3.584,2.916-6.5,6.5-6.5
		s6.5,2.916,6.5,6.5H47c0.553,0,1-0.448,1-1V13C48,12.448,47.553,12,47,12z"/>
	<path fill="#010101" d="M16,36.5c-3.032,0-5.5,2.467-5.5,5.5c0,3.033,2.468,5.5,5.5,5.5c3.032,0,5.5-2.467,5.5-5.5
		C21.5,38.967,19.032,36.5,16,36.5z"/>
	<path fill="#010101" d="M38,36.5c-3.032,0-5.5,2.467-5.5,5.5c0,3.033,2.468,5.5,5.5,5.5c3.032,0,5.5-2.467,5.5-5.5
		C43.5,38.967,41.032,36.5,38,36.5z"/>
	<path fill="#010101" d="M7,42H1c-0.553,0-1,0.448-1,1c0,0.552,0.447,1,1,1h6c0.553,0,1-0.448,1-1C8,42.448,7.553,42,7,42z"/>
</g>
</svg>
