<?xml version="1.0" encoding="utf-8"?>
<!-- Generator: Adobe Illustrator 17.0.0, SVG Export Plug-In . SVG Version: 6.00 Build 0)  -->
<!DOCTYPE svg PUBLIC "-//W3C//DTD SVG 1.1//EN" "http://www.w3.org/Graphics/SVG/1.1/DTD/svg11.dtd">
<svg version="1.1" id="Layer_2" xmlns="http://www.w3.org/2000/svg" xmlns:xlink="http://www.w3.org/1999/xlink" x="0px" y="0px"
	 width="48px" height="48px" viewBox="0 0 48 48" enable-background="new 0 0 48 48" xml:space="preserve">
<path fill="#010101" d="M36.7,3.053c0.582-0.939,0.292-2.172-0.647-2.753c-0.94-0.582-2.172-0.292-2.753,0.648L22,19.2L10.7,0.947
	C10.119,0.008,8.888-0.282,7.947,0.3C7.008,0.881,6.718,2.113,7.3,3.053L20,23.568V24h-7c-1.104,0-2,0.896-2,2c0,1.105,0.896,2,2,2
	h7v4h-7c-1.104,0-2,0.896-2,2c0,1.105,0.896,2,2,2h7v10c0,1.105,0.896,2,2,2s2-0.895,2-2V36h7c1.104,0,2-0.895,2-2
	c0-1.104-0.896-2-2-2h-7v-4h7c1.104,0,2-0.895,2-2c0-1.104-0.896-2-2-2h-7v-0.432L36.7,3.053z"/>
</svg>
