<?xml version="1.0" encoding="utf-8"?>
<!-- Generator: Adobe Illustrator 17.0.0, SVG Export Plug-In . SVG Version: 6.00 Build 0)  -->
<!DOCTYPE svg PUBLIC "-//W3C//DTD SVG 1.1//EN" "http://www.w3.org/Graphics/SVG/1.1/DTD/svg11.dtd">
<svg version="1.1" id="Layer_2" xmlns="http://www.w3.org/2000/svg" xmlns:xlink="http://www.w3.org/1999/xlink" x="0px" y="0px"
	 width="48px" height="48px" viewBox="0 0 48 48" enable-background="new 0 0 48 48" xml:space="preserve">
<path fill="#010101" d="M24,0C10.767,0,0,10.767,0,24c0,13.233,10.767,24,24,24s24-10.767,24-24C48,10.767,37.233,0,24,0z
	 M31.819,14.573L25.221,24H29c0.553,0,1,0.448,1,1c0,0.552-0.447,1-1,1h-4v2h4c0.553,0,1,0.448,1,1c0,0.552-0.447,1-1,1h-4v6
	c0,0.552-0.447,1-1,1c-0.553,0-1-0.448-1-1v-6h-4c-0.553,0-1-0.448-1-1c0-0.552,0.447-1,1-1h4v-2h-4c-0.553,0-1-0.448-1-1
	c0-0.552,0.447-1,1-1h3.779l-6.599-9.427c-0.316-0.452-0.207-1.076,0.246-1.392c0.45-0.316,1.076-0.207,1.392,0.246L24,22.256
	l6.181-8.829c0.316-0.453,0.939-0.562,1.392-0.246C32.026,13.498,32.136,14.121,31.819,14.573z"/>
</svg>
