<?xml version="1.0" encoding="utf-8"?>
<!-- Generator: Adobe Illustrator 17.1.0, SVG Export Plug-In . SVG Version: 6.00 Build 0)  -->
<!DOCTYPE svg PUBLIC "-//W3C//DTD SVG 1.0//EN" "http://www.w3.org/TR/2001/REC-SVG-20010904/DTD/svg10.dtd">
<svg version="1.0" id="Layer_1" xmlns="http://www.w3.org/2000/svg" xmlns:xlink="http://www.w3.org/1999/xlink" x="0px" y="0px"
	 width="48px" height="48px" viewBox="0 0 48 48" enable-background="new 0 0 48 48" xml:space="preserve">
<path d="M48,24c0-1.8-0.962-3.409-2.438-4.289c1.026-1.378,1.299-3.232,0.611-4.895c-0.683-1.646-2.166-2.781-3.894-3.03
	c0.421-1.665-0.037-3.483-1.31-4.757c-1.238-1.238-3.088-1.731-4.756-1.31c-0.248-1.699-1.367-3.202-3.031-3.892
	c-1.63-0.676-3.537-0.407-4.896,0.608C27.407,0.961,25.799,0,24,0c-1.799,0-3.408,0.961-4.288,2.437
	c-1.357-1.015-3.266-1.285-4.896-0.608c-1.663,0.688-2.781,2.191-3.03,3.892c-1.666-0.422-3.518,0.072-4.757,1.31
	c-1.272,1.272-1.73,3.09-1.308,4.756c-1.727,0.249-3.21,1.384-3.893,3.03c-0.689,1.661-0.416,3.516,0.609,4.894
	C0.962,20.59,0,22.2,0,24c0,1.799,0.962,3.409,2.438,4.289c-1.026,1.378-1.299,3.233-0.611,4.896
	c0.683,1.646,2.167,2.781,3.895,3.03c-0.42,1.665,0.037,3.482,1.308,4.756c1.239,1.238,3.089,1.73,4.758,1.309
	c0.249,1.7,1.368,3.204,3.03,3.894c1.631,0.676,3.538,0.406,4.896-0.609C20.593,47.039,22.201,48,24,48
	c1.799,0,3.407-0.961,4.288-2.436c1.356,1.015,3.262,1.285,4.896,0.609c1.662-0.688,2.78-2.193,3.029-3.894
	c1.667,0.422,3.518-0.07,4.757-1.31c1.273-1.273,1.731-3.091,1.31-4.756c1.727-0.25,3.211-1.384,3.894-3.03
	c0.689-1.662,0.417-3.517-0.61-4.896C47.039,27.41,48,25.801,48,24z M31.819,14.573L25.221,24H29c0.553,0,1,0.448,1,1s-0.447,1-1,1
	h-4v2h4c0.553,0,1,0.448,1,1s-0.447,1-1,1h-4v6c0,0.552-0.447,1-1,1s-1-0.448-1-1v-6h-4c-0.553,0-1-0.448-1-1s0.447-1,1-1h4v-2h-4
	c-0.553,0-1-0.448-1-1s0.447-1,1-1h3.779l-6.599-9.427c-0.316-0.452-0.207-1.076,0.246-1.392c0.45-0.316,1.076-0.207,1.392,0.246
	L24,22.256l6.181-8.829c0.316-0.453,0.939-0.562,1.392-0.246C32.026,13.498,32.136,14.121,31.819,14.573z"/>
</svg>
