<?xml version="1.0" encoding="utf-8"?>
<!-- Generator: Adobe Illustrator 17.0.0, SVG Export Plug-In . SVG Version: 6.00 Build 0)  -->
<!DOCTYPE svg PUBLIC "-//W3C//DTD SVG 1.1//EN" "http://www.w3.org/Graphics/SVG/1.1/DTD/svg11.dtd">
<svg version="1.1" id="Layer_2" xmlns="http://www.w3.org/2000/svg" xmlns:xlink="http://www.w3.org/1999/xlink" x="0px" y="0px"
	 width="48px" height="48px" viewBox="0 0 48 48" enable-background="new 0 0 48 48" xml:space="preserve">
<g>
	<path fill="#010101" d="M47,14H29v-1c0-2.757-2.243-5-5-5c-2.757,0-5,2.243-5,5v2v23h-1V19c0-0.553-0.447-1-1-1h-7
		c-0.363,0-0.698,0.197-0.874,0.515l-4.932,8.877l-3.901,3.901C0.105,31.481,0,31.734,0,32v11c0,0.553,0.447,1,1,1h2.08
		C3.033,43.673,3,43.34,3,43c0-3.859,3.141-7,7-7c3.859,0,7,3.141,7,7c0,0.34-0.033,0.673-0.08,1h14.16
		C31.033,43.673,31,43.34,31,43c0-3.859,3.141-7,7-7c3.859,0,7,3.141,7,7c0,0.34-0.033,0.673-0.08,1H47c0.553,0,1-0.447,1-1V15
		C48,14.447,47.553,14,47,14z M15,24h-2.382l-2.724,5.447C9.719,29.798,9.366,30,8.999,30c-0.15,0-0.303-0.034-0.446-0.105
		c-0.494-0.247-0.694-0.848-0.447-1.342l3-6C11.275,22.214,11.621,22,12,22h3c0.553,0,1,0.447,1,1C16,23.553,15.553,24,15,24z
		 M21,13c0-1.654,1.346-3,3-3c1.654,0,3,1.346,3,3v1h-6V13z M40,29c0,0.553-0.447,1-1,1h-3v3c0,0.553-0.447,1-1,1h-4
		c-0.553,0-1-0.447-1-1v-3h-3c-0.553,0-1-0.447-1-1v-4c0-0.553,0.447-1,1-1h3v-3c0-0.553,0.447-1,1-1h4c0.553,0,1,0.447,1,1v3h3
		c0.553,0,1,0.447,1,1V29z"/>
	<path fill="#010101" d="M10,38c-2.757,0-5,2.243-5,5c0,2.757,2.243,5,5,5c2.757,0,5-2.243,5-5C15,40.243,12.757,38,10,38z"/>
	<path fill="#010101" d="M38,38c-2.757,0-5,2.243-5,5c0,2.757,2.243,5,5,5c2.757,0,5-2.243,5-5C43,40.243,40.757,38,38,38z"/>
</g>
</svg>
