<?xml version="1.0" encoding="utf-8"?>
<!-- Generator: Adobe Illustrator 17.0.0, SVG Export Plug-In . SVG Version: 6.00 Build 0)  -->
<!DOCTYPE svg PUBLIC "-//W3C//DTD SVG 1.1//EN" "http://www.w3.org/Graphics/SVG/1.1/DTD/svg11.dtd">
<svg version="1.1" id="Layer_2" xmlns="http://www.w3.org/2000/svg" xmlns:xlink="http://www.w3.org/1999/xlink" x="0px" y="0px"
	 width="48px" height="48px" viewBox="0 0 48 48" enable-background="new 0 0 48 48" xml:space="preserve">
<path fill="#010101" d="M24.834,0.449c-0.369-0.561-1.299-0.561-1.668,0C22.546,1.387,8,23.512,8,32c0,8.822,7.178,16,16,16
	c8.822,0,16-7.178,16-16C40,23.512,25.454,1.387,24.834,0.449z M20.976,19.465C16.646,27.704,16,30.856,16,32
	c0,2.275,0.974,4.45,2.671,5.968c0.411,0.368,0.446,1,0.078,1.412c-0.197,0.221-0.471,0.333-0.745,0.333
	c-0.237,0-0.476-0.084-0.667-0.255C15.217,37.563,14,34.844,14,32c0-2.361,1.751-6.892,5.204-13.465
	c0.259-0.488,0.861-0.674,1.351-0.421C21.044,18.372,21.232,18.977,20.976,19.465z"/>
</svg>
