<?xml version="1.0" encoding="utf-8"?>
<!-- Generator: Adobe Illustrator 17.0.0, SVG Export Plug-In . SVG Version: 6.00 Build 0)  -->
<!DOCTYPE svg PUBLIC "-//W3C//DTD SVG 1.1//EN" "http://www.w3.org/Graphics/SVG/1.1/DTD/svg11.dtd">
<svg version="1.1" id="Layer_2" xmlns="http://www.w3.org/2000/svg" xmlns:xlink="http://www.w3.org/1999/xlink" x="0px" y="0px"
	 width="48px" height="48px" viewBox="0 0 48 48" enable-background="new 0 0 48 48" xml:space="preserve">
<path fill="#010101" d="M47.52,34.146C47.31,34.018,42.283,31,36,31c-0.645,0-1.296,0.031-1.952,0.095
	c1.221-0.908,2.476-1.962,3.679-3.165c5.565-5.565,7.918-12.118,8.016-12.394c0.128-0.363,0.036-0.767-0.236-1.04
	c-0.272-0.273-0.678-0.364-1.039-0.236c-0.276,0.098-6.832,2.448-12.397,8.014c-1.063,1.063-2.011,2.166-2.849,3.258
	C29.685,23.238,30,20.693,30,18c0-9.523-3.946-17.145-4.115-17.465c-0.344-0.658-1.426-0.658-1.77,0C23.946,0.855,20,8.477,20,18
	c0,2.692,0.314,5.238,0.78,7.533c-0.839-1.092-1.787-2.195-2.853-3.26C12.364,16.708,5.81,14.357,5.533,14.26
	c-0.363-0.128-0.768-0.036-1.039,0.236c-0.272,0.273-0.364,0.677-0.236,1.039c0.098,0.276,2.449,6.829,8.013,12.394
	c1.204,1.204,2.46,2.257,3.681,3.165C15.295,31.031,14.644,31,14,31c-6.284,0-11.31,3.018-11.521,3.147C2.182,34.327,2,34.651,2,35
	c0,0.349,0.182,0.673,0.479,0.854C2.69,35.982,7.716,39,14,39c0.981,0,1.977-0.073,2.984-0.219
	c-3.091,3.226-4.214,7.093-4.261,7.261c-0.104,0.365,0.009,0.758,0.29,1.014c0.282,0.254,0.686,0.329,1.037,0.189
	c0.292-0.115,6.223-2.463,9.949-5.169V47c0,0.553,0.447,1,1,1c0.553,0,1-0.447,1-1v-4.881c3.742,2.689,9.656,5.013,9.948,5.127
	c0.118,0.046,0.241,0.068,0.363,0.068c0.244,0,0.485-0.09,0.673-0.26c0.28-0.256,0.393-0.648,0.289-1.013
	c-0.047-0.167-1.168-4.034-4.257-7.261C34.021,38.927,35.018,39,36,39c6.283,0,11.31-3.018,11.52-3.145
	C47.818,35.673,48,35.349,48,35C48,34.651,47.818,34.327,47.52,34.146z"/>
</svg>
