<?xml version="1.0" encoding="utf-8"?>
<!-- Generator: Adobe Illustrator 17.0.0, SVG Export Plug-In . SVG Version: 6.00 Build 0)  -->
<!DOCTYPE svg PUBLIC "-//W3C//DTD SVG 1.1//EN" "http://www.w3.org/Graphics/SVG/1.1/DTD/svg11.dtd">
<svg version="1.1" id="Layer_2" xmlns="http://www.w3.org/2000/svg" xmlns:xlink="http://www.w3.org/1999/xlink" x="0px" y="0px"
	 width="48px" height="48px" viewBox="0 0 48 48" enable-background="new 0 0 48 48" xml:space="preserve">
<g>
	<path fill="#010101" d="M31.684,35.342C31.171,36.365,30.144,37,29,37l-0.229-0.009c-1.271-0.117-2.318-0.987-2.656-2.167
		l-1.881-6.584l-1.551,3.101c-0.476,0.952-1.432,1.585-2.494,1.652l-0.162,0.006c0,0-0.001,0-0.002,0
		c-1.047,0-1.954-0.486-2.52-1.334l-1.649-2.474L15.399,29.8C14.839,30.551,13.941,31,13,31H7.725l0.87,1.501
		c0.02,0.033,0.041,0.065,0.065,0.097c6.206,8.294,14.441,13.792,14.789,14.022c0.168,0.111,0.36,0.166,0.552,0.166
		c0.217,0,0.433-0.07,0.612-0.209c0.312-0.241,7.688-5.993,13.79-14.052L39.347,31h-5.493L31.684,35.342z"/>
	<path fill="#010101" d="M3.957,24.501L4.246,25H11.5l2.101-2.8c0.559-0.75,1.467-1.2,2.427-1.2c1.019,0.029,1.932,0.528,2.47,1.337
		l1.131,1.697l2.688-5.377c0.512-1.022,1.54-1.658,2.685-1.658l0.221,0.009c1.274,0.117,2.325,0.986,2.663,2.167l1.933,6.765
		C30.375,25.347,31.156,25,32,25h11.064l0.294-0.475c0.021-0.031,0.038-0.065,0.055-0.099C45.13,20.799,46,17.341,46,14.148
		C46,5.516,40.374,1,34.815,1C30.688,1,26.143,3.518,24,9.043c-2.109-5.437-6.541-7.915-10.561-7.915C5.93,1.128,2,8.273,2,15.331
		c0,2.926,0.638,5.97,1.897,9.047C3.914,24.42,3.935,24.461,3.957,24.501z"/>
	<path fill="#010101" d="M47,27H32c-0.381,0-0.724,0.212-0.895,0.553l-1.85,3.702l-3.294-11.53
		c-0.112-0.393-0.465-0.684-0.876-0.722l-0.129-0.005c-0.338,0.001-0.682,0.213-0.852,0.554l-4.229,8.459l-3.043-4.564
		C16.65,23.172,16.347,23.01,15.999,23c-0.298,0-0.614,0.152-0.796,0.398L12.5,27H1c-0.552,0-1,0.448-1,1c0,0.552,0.448,1,1,1h12
		c0.313,0,0.611-0.149,0.798-0.399l2.155-2.87l3.215,4.824c0.191,0.286,0.486,0.444,0.829,0.444l0.099-0.004
		c0.321-0.021,0.641-0.231,0.799-0.549l3.85-7.7l3.294,11.528c0.11,0.388,0.468,0.685,0.868,0.722L29.012,35
		c0.377-0.005,0.714-0.216,0.883-0.553L32.618,29H47c0.552,0,1-0.448,1-1C48,27.448,47.552,27,47,27z"/>
</g>
</svg>
