<?xml version="1.0" encoding="utf-8"?>
<!-- Generator: Adobe Illustrator 17.0.0, SVG Export Plug-In . SVG Version: 6.00 Build 0)  -->
<!DOCTYPE svg PUBLIC "-//W3C//DTD SVG 1.1//EN" "http://www.w3.org/Graphics/SVG/1.1/DTD/svg11.dtd">
<svg version="1.1" id="Layer_2" xmlns="http://www.w3.org/2000/svg" xmlns:xlink="http://www.w3.org/1999/xlink" x="0px" y="0px"
	 width="48px" height="48px" viewBox="0 0 48 48" enable-background="new 0 0 48 48" xml:space="preserve">
<g>
	<path fill="#010101" d="M30,28v-5c0-1.654-1.346-3-3-3H16v-2.059c4.493-0.499,8-4.316,8-8.941c0-4.963-4.037-9-9-9
		c-4.963,0-9,4.037-9,9c0,4.625,3.507,8.442,8,8.941V20H3c-1.654,0-3,1.346-3,3v24c0,0.553,0.447,1,1,1h15V38H7
		c-0.553,0-1-0.447-1-1c0-0.553,0.447-1,1-1h9v-3c0-0.342,0.035-0.677,0.101-1H7c-0.553,0-1-0.447-1-1c0-0.553,0.447-1,1-1h10.026
		c0.914-1.207,2.347-2,3.974-2H30z M11,10c-0.553,0-1-0.447-1-1c0-0.553,0.447-1,1-1h3V5c0-0.553,0.447-1,1-1c0.553,0,1,0.447,1,1v3
		h3c0.553,0,1,0.447,1,1c0,0.553-0.447,1-1,1h-3v3c0,0.553-0.447,1-1,1c-0.553,0-1-0.447-1-1v-3H11z M7,26c-0.553,0-1-0.447-1-1
		c0-0.553,0.447-1,1-1h16c0.553,0,1,0.447,1,1c0,0.553-0.447,1-1,1H7z"/>
	<path fill="#010101" d="M45,30H21c-1.654,0-3,1.346-3,3v14v1h1h10v-1v-4c0-0.553,0.447-1,1-1h6c0.553,0,1,0.447,1,1v5h10
		c0.553,0,1-0.447,1-1V33C48,31.346,46.654,30,45,30z M25,40h-2c-0.553,0-1-0.447-1-1c0-0.553,0.447-1,1-1h2c0.553,0,1,0.447,1,1
		C26,39.553,25.553,40,25,40z M25,36h-2c-0.553,0-1-0.447-1-1c0-0.553,0.447-1,1-1h2c0.553,0,1,0.447,1,1C26,35.553,25.553,36,25,36
		z M31,40h-2c-0.553,0-1-0.447-1-1c0-0.553,0.447-1,1-1h2c0.553,0,1,0.447,1,1C32,39.553,31.553,40,31,40z M31,36h-2
		c-0.553,0-1-0.447-1-1c0-0.553,0.447-1,1-1h2c0.553,0,1,0.447,1,1C32,35.553,31.553,36,31,36z M37,40h-2c-0.553,0-1-0.447-1-1
		c0-0.553,0.447-1,1-1h2c0.553,0,1,0.447,1,1C38,39.553,37.553,40,37,40z M37,36h-2c-0.553,0-1-0.447-1-1c0-0.553,0.447-1,1-1h2
		c0.553,0,1,0.447,1,1C38,35.553,37.553,36,37,36z M43,40h-2c-0.553,0-1-0.447-1-1c0-0.553,0.447-1,1-1h2c0.553,0,1,0.447,1,1
		C44,39.553,43.553,40,43,40z M43,36h-2c-0.553,0-1-0.447-1-1c0-0.553,0.447-1,1-1h2c0.553,0,1,0.447,1,1C44,35.553,43.553,36,43,36
		z"/>
	<rect x="31" y="44" fill="#010101" width="4" height="4"/>
</g>
</svg>
