<?xml version="1.0" encoding="utf-8"?>
<!-- Generator: Adobe Illustrator 17.0.0, SVG Export Plug-In . SVG Version: 6.00 Build 0)  -->
<!DOCTYPE svg PUBLIC "-//W3C//DTD SVG 1.1//EN" "http://www.w3.org/Graphics/SVG/1.1/DTD/svg11.dtd">
<svg version="1.1" id="Layer_2" xmlns="http://www.w3.org/2000/svg" xmlns:xlink="http://www.w3.org/1999/xlink" x="0px" y="0px"
	 width="48px" height="48px" viewBox="0 0 48 48" enable-background="new 0 0 48 48" xml:space="preserve">
<path fill="#010101" d="M47,46h-5.695C44.139,44.008,46,40.72,46,37V25c0-6.065-4.935-11-11-11H22.768l1.842-5.21
	c0.089-0.25,0.074-0.524-0.04-0.764c-0.114-0.239-0.319-0.424-0.569-0.513l-1.887-0.667l0.667-1.886l0.943,0.333
	c0.11,0.039,0.223,0.058,0.333,0.058c0.412,0,0.798-0.256,0.942-0.667c0.185-0.52-0.089-1.092-0.609-1.275l-2.438-0.862
	l-3.219-1.138c-0.001,0-0.003,0-0.004-0.001l-1.883-0.665c-0.523-0.187-1.093,0.088-1.275,0.609
	c-0.185,0.52,0.089,1.092,0.609,1.275l0.944,0.334l-0.667,1.887l-1.886-0.667c-0.523-0.181-1.092,0.089-1.275,0.61l-6,16.969
	c-0.089,0.25-0.074,0.524,0.04,0.764c0.114,0.239,0.319,0.424,0.569,0.512l0.945,0.334l-1.667,4.715
	c-0.185,0.521,0.088,1.092,0.608,1.275l3.768,1.334c0.108,0.039,0.222,0.058,0.334,0.058c0.147,0,0.295-0.033,0.431-0.098
	c0.239-0.114,0.424-0.319,0.512-0.569l1.667-4.716l2.832,1.001c0.107,0.039,0.221,0.058,0.333,0.058
	c0.147,0,0.295-0.033,0.431-0.098c0.239-0.114,0.424-0.319,0.512-0.569l2.573-7.278l6.166,5.278C27.531,23.915,27.762,24,28,24
	h2.887C34.564,24.863,36,26.835,36,31v3c0,4.262-1.448,6-5,6H17.535l-2.667-4H19c0.553,0,1-0.447,1-1c0-0.553-0.447-1-1-1h-6H7H1
	c-0.553,0-1,0.447-1,1c0,0.553,0.447,1,1,1h5v10H3H1c-0.553,0-1,0.447-1,1c0,0.553,0.447,1,1,1h2h32h12c0.553,0,1-0.447,1-1
	C48,46.447,47.553,46,47,46z M11.284,28.476l-1.882-0.667l1.333-3.771l1.882,0.665L11.284,28.476z M20.229,6.181l-1.885-0.666
	l0.667-1.886l1.886,0.667L20.229,6.181z"/>
</svg>
