<?xml version="1.0" encoding="utf-8"?>
<!-- Generator: Adobe Illustrator 17.0.0, SVG Export Plug-In . SVG Version: 6.00 Build 0)  -->
<!DOCTYPE svg PUBLIC "-//W3C//DTD SVG 1.1//EN" "http://www.w3.org/Graphics/SVG/1.1/DTD/svg11.dtd">
<svg version="1.1" id="Layer_2" xmlns="http://www.w3.org/2000/svg" xmlns:xlink="http://www.w3.org/1999/xlink" x="0px" y="0px"
	 width="48px" height="48px" viewBox="0 0 48 48" enable-background="new 0 0 48 48" xml:space="preserve">
<g>
	<path fill="#010101" d="M41,6h-7v6h2v16h-4c-0.379,0-0.725,0.214-0.895,0.553l-1.851,3.7l-3.293-11.527
		c-0.113-0.396-0.459-0.684-0.869-0.722c-0.425-0.049-0.803,0.18-0.987,0.549l-4.229,8.459l-3.044-4.566
		c-0.18-0.271-0.48-0.435-0.805-0.445c-0.342,0.009-0.633,0.14-0.827,0.4L12.5,28H10V12h2V6H5C4.447,6,4,6.447,4,7v40
		c0,0.553,0.447,1,1,1h36c0.553,0,1-0.447,1-1V7C42,6.447,41.553,6,41,6z M36,40H10V30h3c0.314,0,0.611-0.148,0.8-0.4l2.152-2.869
		l3.216,4.824c0.197,0.297,0.53,0.463,0.894,0.443c0.356-0.022,0.673-0.232,0.832-0.551l3.851-7.7l3.293,11.527
		c0.113,0.396,0.459,0.684,0.869,0.722C28.938,35.999,28.97,36,29,36c0.376,0,0.724-0.212,0.894-0.553L32.618,30H36V40z"/>
	<path fill="#010101" d="M15,14h16c0.553,0,1-0.447,1-1V5c0-0.553-0.447-1-1-1h-2.343h-0.758c-0.053-0.259-0.132-0.509-0.223-0.752
		c-0.038-0.101-0.087-0.196-0.131-0.293c-0.069-0.152-0.139-0.304-0.222-0.448c-0.054-0.093-0.115-0.181-0.175-0.27
		c-0.091-0.136-0.184-0.269-0.288-0.395c-0.07-0.085-0.145-0.166-0.22-0.246c-0.107-0.114-0.218-0.224-0.335-0.328
		c-0.087-0.077-0.176-0.151-0.268-0.222c-0.118-0.091-0.241-0.175-0.367-0.255c-0.103-0.065-0.206-0.13-0.313-0.188
		c-0.13-0.07-0.265-0.129-0.402-0.188c-0.112-0.048-0.222-0.098-0.337-0.138c-0.156-0.054-0.318-0.092-0.48-0.13
		c-0.103-0.024-0.203-0.056-0.308-0.074C23.56,0.028,23.284,0,23,0c-0.284,0-0.56,0.028-0.831,0.074
		c-0.105,0.018-0.205,0.049-0.308,0.074c-0.162,0.038-0.324,0.076-0.48,0.13c-0.115,0.04-0.226,0.09-0.337,0.138
		c-0.136,0.059-0.272,0.118-0.402,0.188c-0.107,0.058-0.21,0.123-0.313,0.188c-0.126,0.08-0.249,0.164-0.367,0.255
		c-0.092,0.071-0.181,0.145-0.268,0.222c-0.117,0.104-0.228,0.214-0.335,0.328c-0.075,0.08-0.15,0.161-0.22,0.246
		c-0.103,0.126-0.197,0.259-0.288,0.395c-0.059,0.089-0.121,0.177-0.175,0.27c-0.083,0.144-0.153,0.296-0.222,0.448
		c-0.044,0.097-0.093,0.192-0.131,0.293C18.232,3.491,18.154,3.741,18.101,4h-0.758H15c-0.553,0-1,0.447-1,1v8
		C14,13.553,14.447,14,15,14z"/>
</g>
</svg>
