<?xml version="1.0" encoding="utf-8"?>
<!-- Generator: Adobe Illustrator 17.0.0, SVG Export Plug-In . SVG Version: 6.00 Build 0)  -->
<!DOCTYPE svg PUBLIC "-//W3C//DTD SVG 1.1//EN" "http://www.w3.org/Graphics/SVG/1.1/DTD/svg11.dtd">
<svg version="1.1" id="Layer_2" xmlns="http://www.w3.org/2000/svg" xmlns:xlink="http://www.w3.org/1999/xlink" x="0px" y="0px"
	 width="48px" height="48px" viewBox="0 0 48 48" enable-background="new 0 0 48 48" xml:space="preserve">
<g>
	<path fill="#010101" d="M35.038,19.274L32.152,9.172l-4.174,20.03c-0.093,0.445-0.474,0.771-0.929,0.795
		c-0.017,0.001-0.033,0.001-0.05,0.001c-0.435,0-0.821-0.281-0.953-0.699l-5.205-16.481l-2.928,6.587
		c-0.149,0.333-0.466,0.56-0.829,0.59c-0.353,0.039-0.715-0.138-0.917-0.441L13,14.802l-3.168,4.753C9.646,19.833,9.334,20,9,20H0
		v23c0,2.757,2.243,5,5,5h38c2.757,0,5-2.243,5-5V20H36C35.554,20,35.161,19.704,35.038,19.274z M10,43c0,0.553-0.447,1-1,1
		c-0.553,0-1-0.447-1-1v-2c0-0.553,0.447-1,1-1c0.553,0,1,0.447,1,1V43z M16,43c0,0.553-0.447,1-1,1c-0.553,0-1-0.447-1-1v-6
		c0-0.553,0.447-1,1-1c0.553,0,1,0.447,1,1V43z M22,43c0,0.553-0.447,1-1,1c-0.553,0-1-0.447-1-1v-2c0-0.553,0.447-1,1-1
		c0.553,0,1,0.447,1,1V43z M28,43c0,0.553-0.447,1-1,1c-0.553,0-1-0.447-1-1v-6c0-0.553,0.447-1,1-1c0.553,0,1,0.447,1,1V43z M34,43
		c0,0.553-0.447,1-1,1c-0.553,0-1-0.447-1-1v-2c0-0.553,0.447-1,1-1c0.553,0,1,0.447,1,1V43z M38,37c0-0.553,0.447-1,1-1
		c0.553,0,1,0.447,1,1v6c0,0.553-0.447,1-1,1c-0.553,0-1-0.447-1-1V37z"/>
	<path fill="#010101" d="M43,0H5C2.243,0,0,2.243,0,5v13h8.465l3.703-5.556c0.371-0.557,1.293-0.557,1.664,0l2.992,4.487l3.262-7.34
		c0.169-0.38,0.558-0.619,0.97-0.592c0.415,0.023,0.772,0.301,0.897,0.697l4.849,15.352l4.22-20.254
		c0.094-0.45,0.482-0.778,0.942-0.795c0.445-0.031,0.871,0.282,0.998,0.725L36.754,18H48V5C48,2.243,45.757,0,43,0z"/>
</g>
</svg>
