<?xml version="1.0" encoding="utf-8"?>
<!-- Generator: Adobe Illustrator 17.0.0, SVG Export Plug-In . SVG Version: 6.00 Build 0)  -->
<!DOCTYPE svg PUBLIC "-//W3C//DTD SVG 1.1//EN" "http://www.w3.org/Graphics/SVG/1.1/DTD/svg11.dtd">
<svg version="1.1" id="Layer_2" xmlns="http://www.w3.org/2000/svg" xmlns:xlink="http://www.w3.org/1999/xlink" x="0px" y="0px"
	 width="48px" height="48px" viewBox="0 0 48 48" enable-background="new 0 0 48 48" xml:space="preserve">
<path fill="#010101" d="M39,16c-2.757,0-5,2.243-5,5c0,2.414,1.721,4.434,4,4.899V39c0,1.654-1.346,3-3,3c-1.654,0-3-1.346-3-3
	v-5.998C32,29.692,29.309,27,26,27c-3.309,0-6,2.691-6,6v10c0,1.654-1.346,3-3,3c-1.654,0-3-1.346-3-3V28.949
	C19.598,28.442,24,23.728,24,18V8c0-2.414-1.721-4.434-4-4.899V1c0-0.553-0.447-1-1-1c-1.607,0-4,1.065-4,4c0,2.935,2.393,4,4,4
	c0.553,0,1-0.447,1-1V5.184C21.162,5.598,22,6.698,22,8v10c0,4.963-4.037,9-9,9c-4.963,0-9-4.037-9-9V8c0-1.302,0.838-2.402,2-2.816
	V7c0,0.553,0.447,1,1,1c1.607,0,4-1.065,4-4c0-2.935-2.393-4-4-4C6.447,0,6,0.447,6,1v2.101C3.721,3.566,2,5.586,2,8v10
	c0,5.728,4.402,10.442,10,10.949V43c0,2.757,2.243,5,5,5c2.757,0,5-2.243,5-5V33c0-2.206,1.794-4,4-4c2.206,0,4,1.795,4,4.002V39
	c0,2.757,2.243,5,5,5c2.757,0,5-2.243,5-5V25.899c2.279-0.465,4-2.484,4-4.899C44,18.243,41.757,16,39,16z"/>
</svg>
