<?xml version="1.0" encoding="utf-8"?>
<!-- Generator: Adobe Illustrator 17.0.0, SVG Export Plug-In . SVG Version: 6.00 Build 0)  -->
<!DOCTYPE svg PUBLIC "-//W3C//DTD SVG 1.1//EN" "http://www.w3.org/Graphics/SVG/1.1/DTD/svg11.dtd">
<svg version="1.1" id="Layer_2" xmlns="http://www.w3.org/2000/svg" xmlns:xlink="http://www.w3.org/1999/xlink" x="0px" y="0px"
	 width="48px" height="48px" viewBox="0 0 48 48" enable-background="new 0 0 48 48" xml:space="preserve">
<g>
	<path fill="#010101" d="M47.998,23.791L47.998,23.791C47.885,10.669,37.128,0,23.999,0C11.935,0,1.925,8.95,0.249,20.558
		c-0.163,0.788-0.25,1.604-0.25,2.44V24c0,13.233,10.767,24,24,24c13.166,0,23.891-10.655,24-23.796
		c0.014-0.065,0.02-0.134,0.02-0.204C48.019,23.929,48.013,23.858,47.998,23.791z M12.999,26.998c-2.757,0-5-2.243-5-5
		c0-2.757,2.243-5,5-5c2.757,0,5,2.243,5,5C17.999,24.755,15.756,26.998,12.999,26.998z M36,34.998
		c-9.153,0-10.016-5.174-11.015-11.165c-1.003-6.016-2.14-12.835-12.986-12.835c-2.768,0-5.312,0.951-7.344,2.531
		C8.384,6.668,15.656,2,23.999,2c12.045,0,21.914,9.798,22,21.84L46,24.002C45.999,29.758,41.233,34.998,36,34.998z"/>
	<path fill="#010101" d="M35,20.998c-2.758,0-5.001,2.243-5.001,5c0,2.757,2.243,5,5.001,5c2.757,0,5-2.243,5-5
		C40,23.241,37.757,20.998,35,20.998z"/>
</g>
</svg>
