<?xml version="1.0" encoding="utf-8"?>
<!-- Generator: Adobe Illustrator 17.0.0, SVG Export Plug-In . SVG Version: 6.00 Build 0)  -->
<!DOCTYPE svg PUBLIC "-//W3C//DTD SVG 1.1//EN" "http://www.w3.org/Graphics/SVG/1.1/DTD/svg11.dtd">
<svg version="1.1" id="Layer_1" xmlns="http://www.w3.org/2000/svg" xmlns:xlink="http://www.w3.org/1999/xlink" x="0px" y="0px"
	 width="48px" height="48px" viewBox="0 0 48 48" enable-background="new 0 0 48 48" xml:space="preserve">
<g>
	<path fill="#010101" d="M22.933,23.903C21.974,23.967,20.987,24,20,24c-8.514,0-18-2.875-18-7v-4.036C5.206,15.968,11.97,18,20,18
		s14.794-2.032,18-5.036V20c0,0.552,0.447,1,1,1s1-0.448,1-1V9c0-5.047-8.785-9-20-9S0,3.953,0,9v26c0,5.047,8.785,9,20,9
		c0.553,0,1-0.448,1-1s-0.447-1-1-1c-8.514,0-18-2.875-18-7v-5.036C5.206,32.968,11.97,35,20,35c0.553,0,1-0.448,1-1s-0.447-1-1-1
		c-8.514,0-18-2.875-18-7v-5.036C5.206,23.968,11.97,26,20,26c1.032,0,2.063-0.034,3.067-0.102c0.551-0.037,0.968-0.514,0.931-1.065
		C23.961,24.283,23.511,23.863,22.933,23.903z M20,2c8.514,0,18,2.875,18,7s-9.486,7-18,7S2,13.125,2,9S11.486,2,20,2z"/>
	<path fill="#010101" d="M47.246,27.748c-0.535-0.137-1.08,0.186-1.216,0.722l-0.692,2.717c-0.985-1.589-2.36-2.911-4.044-3.835
		c-2.574-1.413-5.546-1.741-8.365-0.917c-2.822,0.822-5.155,2.693-6.569,5.269c-1.414,2.577-1.74,5.548-0.918,8.369
		c0.822,2.821,2.694,5.153,5.27,6.567c1.645,0.903,3.451,1.362,5.277,1.362c1.032,0,2.072-0.147,3.09-0.445
		c0.53-0.155,0.834-0.71,0.68-1.24c-0.154-0.53-0.705-0.839-1.24-0.68c-2.31,0.673-4.739,0.404-6.847-0.751
		c-2.107-1.157-3.638-3.065-4.311-5.373c-0.673-2.308-0.405-4.74,0.751-6.847c1.157-2.107,3.066-3.638,5.376-4.311
		c2.304-0.672,4.736-0.407,6.844,0.751c1.551,0.851,2.786,2.112,3.6,3.636l-3.561-0.907c-0.535-0.138-1.08,0.187-1.216,0.722
		c-0.136,0.535,0.187,1.079,0.722,1.216l5.479,1.396c0.031,0.008,0.062,0.007,0.094,0.012c0.024,0.004,0.047,0.007,0.071,0.009
		c0.028,0.002,0.055,0.01,0.082,0.01c0.093,0,0.186-0.015,0.276-0.041c0.001,0,0.002,0,0.003,0c0.004-0.001,0.006-0.004,0.01-0.005
		c0.077-0.023,0.152-0.053,0.222-0.094c0.023-0.014,0.037-0.038,0.059-0.053c0.052-0.037,0.094-0.079,0.137-0.124
		c0.046-0.048,0.089-0.094,0.125-0.15c0.035-0.054,0.058-0.111,0.082-0.172c0.016-0.04,0.044-0.073,0.055-0.114l1.396-5.483
		C48.104,28.429,47.781,27.885,47.246,27.748z"/>
</g>
</svg>
