<?xml version="1.0" encoding="utf-8"?>
<!-- Generator: Adobe Illustrator 17.0.0, SVG Export Plug-In . SVG Version: 6.00 Build 0)  -->
<!DOCTYPE svg PUBLIC "-//W3C//DTD SVG 1.1//EN" "http://www.w3.org/Graphics/SVG/1.1/DTD/svg11.dtd">
<svg version="1.1" id="Layer_1" xmlns="http://www.w3.org/2000/svg" xmlns:xlink="http://www.w3.org/1999/xlink" x="0px" y="0px"
	 width="48px" height="48px" viewBox="0 0 48 48" enable-background="new 0 0 48 48" xml:space="preserve">
<g>
	<path fill="#010101" d="M47.707,46.293l-6.35-6.35c1.163-1.468,1.863-3.319,1.863-5.332c0-4.748-3.862-8.611-8.609-8.611
		C29.863,26,26,29.863,26,34.612c0,4.747,3.863,8.609,8.611,8.609c2.014,0,3.864-0.7,5.333-1.863l6.349,6.349
		C46.488,47.902,46.744,48,47,48s0.512-0.098,0.707-0.293C48.098,47.316,48.098,46.684,47.707,46.293z M28,34.611
		C28,30.966,30.966,28,34.611,28c3.645,0,6.61,2.966,6.609,6.611c0,3.644-2.964,6.609-6.609,6.609C30.966,41.22,28,38.256,28,34.611
		z"/>
	<path fill="#010101" d="M22.933,23.903C21.974,23.967,20.987,24,20,24c-8.514,0-18-2.875-18-7v-4.036C5.206,15.968,11.97,18,20,18
		s14.794-2.032,18-5.036V20c0,0.552,0.447,1,1,1s1-0.448,1-1V9c0-5.047-8.785-9-20-9S0,3.953,0,9v26c0,5.047,8.785,9,20,9
		c0.553,0,1-0.448,1-1s-0.447-1-1-1c-8.514,0-18-2.875-18-7v-5.036C5.206,32.968,11.97,35,20,35c0.553,0,1-0.448,1-1s-0.447-1-1-1
		c-8.514,0-18-2.875-18-7v-5.036C5.206,23.968,11.97,26,20,26c1.032,0,2.063-0.034,3.067-0.102c0.551-0.037,0.968-0.514,0.931-1.065
		C23.961,24.283,23.511,23.865,22.933,23.903z M20,2c8.514,0,18,2.875,18,7s-9.486,7-18,7S2,13.125,2,9S11.486,2,20,2z"/>
</g>
</svg>
