<?xml version="1.0" encoding="utf-8"?>
<!-- Generator: Adobe Illustrator 17.0.0, SVG Export Plug-In . SVG Version: 6.00 Build 0)  -->
<!DOCTYPE svg PUBLIC "-//W3C//DTD SVG 1.1//EN" "http://www.w3.org/Graphics/SVG/1.1/DTD/svg11.dtd">
<svg version="1.1" id="Layer_1" xmlns="http://www.w3.org/2000/svg" xmlns:xlink="http://www.w3.org/1999/xlink" x="0px" y="0px"
	 width="48px" height="48px" viewBox="0 0 48 48" enable-background="new 0 0 48 48" xml:space="preserve">
<g>
	<path fill="#010101" d="M22.933,23.903C21.974,23.967,20.987,24,20,24c-8.514,0-18-2.875-18-7v-4.036C5.206,15.968,11.97,18,20,18
		s14.794-2.032,18-5.036V20c0,0.552,0.448,1,1,1s1-0.448,1-1V9c0-5.047-8.785-9-20-9S0,3.953,0,9v26c0,5.047,8.785,9,20,9
		c0.552,0,1-0.448,1-1s-0.448-1-1-1c-8.514,0-18-2.875-18-7v-5.036C5.206,32.968,11.97,35,20,35c0.552,0,1-0.448,1-1s-0.448-1-1-1
		c-8.514,0-18-2.875-18-7v-5.036C5.206,23.968,11.97,26,20,26c1.032,0,2.064-0.034,3.068-0.102c0.551-0.037,0.967-0.514,0.93-1.065
		C23.961,24.283,23.492,23.863,22.933,23.903z M20,2c8.514,0,18,2.875,18,7s-9.486,7-18,7S2,13.125,2,9S11.486,2,20,2z"/>
	<path fill="#010101" d="M47.814,46.392l-10.92-21.839c-0.339-0.678-1.45-0.678-1.789,0l-11,22c-0.155,0.31-0.138,0.678,0.044,0.973
		C24.331,47.82,24.653,48,25,48h22c0.007,0,0.014,0,0.02,0c0.552,0,1-0.448,1-1C48.02,46.771,47.943,46.56,47.814,46.392z
		 M26.618,46L36,27.236L45.382,46H26.618z"/>
	<path fill="#010101" d="M35,34v6c0,0.552,0.448,1,1,1s1-0.448,1-1v-6c0-0.552-0.448-1-1-1S35,33.448,35,34z"/>
	<circle fill="#010101" cx="36" cy="43" r="1"/>
</g>
</svg>
