<?xml version="1.0" encoding="utf-8"?>
<!-- Generator: Adobe Illustrator 17.0.0, SVG Export Plug-In . SVG Version: 6.00 Build 0)  -->
<!DOCTYPE svg PUBLIC "-//W3C//DTD SVG 1.1//EN" "http://www.w3.org/Graphics/SVG/1.1/DTD/svg11.dtd">
<svg version="1.1" id="Layer_1" xmlns="http://www.w3.org/2000/svg" xmlns:xlink="http://www.w3.org/1999/xlink" x="0px" y="0px"
	 width="48px" height="48px" viewBox="0 0 48 48" enable-background="new 0 0 48 48" xml:space="preserve">
<g>
	<path fill="#010101" d="M35,22c-7.169,0-13,5.832-13,13c0,7.169,5.831,13,13,13c7.168,0,13-5.831,13-13C48,27.832,42.168,22,35,22z
		 M35,46c-6.065,0-11-4.935-11-11s4.935-11,11-11s11,4.935,11,11S41.065,46,35,46z"/>
	<path fill="#010101" d="M40,34H30c-0.552,0-1,0.448-1,1s0.448,1,1,1h10c0.552,0,1-0.448,1-1S40.552,34,40,34z"/>
	<path fill="#010101" d="M20,24.044c-8.514,0-18-2.875-18-7v-4.036c3.206,3.004,9.97,5.036,18,5.036s14.794-2.032,18-5.036v5.036
		c0,0.552,0.448,1,1,1s1-0.448,1-1v-9C40,3.973,31.215,0,20,0S0,3.973,0,9.044v26c0,4.73,7.551,8.497,17.955,8.955
		C17.97,44,17.985,44,18,44c0.532,0,0.975-0.419,0.998-0.956c0.024-0.552-0.403-1.019-0.955-1.043C8.134,41.565,2,38.05,2,35.044
		v-4.975c2.75,2.575,8.141,4.419,14.933,4.874c0.023,0.002,0.045,0.002,0.068,0.002c0.522,0,0.961-0.405,0.997-0.934
		c0.037-0.551-0.38-1.027-0.931-1.064C8.618,32.382,2,29.35,2,26.044v-5.036c3.206,3.004,9.97,5.036,18,5.036c0.552,0,1-0.448,1-1
		S20.552,24.044,20,24.044z M20,2c10.608,0,18,3.712,18,7.044c0,4.125-9.486,7-18,7s-18-2.875-18-7C2,5.712,9.392,2,20,2z"/>
</g>
</svg>
