<?xml version="1.0" encoding="utf-8"?>
<!-- Generator: Adobe Illustrator 17.0.0, SVG Export Plug-In . SVG Version: 6.00 Build 0)  -->
<!DOCTYPE svg PUBLIC "-//W3C//DTD SVG 1.1//EN" "http://www.w3.org/Graphics/SVG/1.1/DTD/svg11.dtd">
<svg version="1.1" id="Layer_1" xmlns="http://www.w3.org/2000/svg" xmlns:xlink="http://www.w3.org/1999/xlink" x="0px" y="0px"
	 width="48px" height="48px" viewBox="0 0 48 48" enable-background="new 0 0 48 48" xml:space="preserve">
<g>
	<path fill="#010101" d="M22.933,23.903C21.974,23.967,20.987,24,20,24c-8.514,0-18-2.875-18-7v-4.036C5.206,15.968,11.97,18,20,18
		s14.794-2.032,18-5.036V20c0,0.552,0.447,1,1,1s1-0.448,1-1V9c0-5.047-8.785-9-20-9S0,3.953,0,9v26c0,5.047,8.785,9,20,9
		c0.553,0,1-0.448,1-1s-0.447-1-1-1c-8.514,0-18-2.875-18-7v-5.036C5.206,32.968,11.97,35,20,35c0.553,0,1-0.448,1-1s-0.447-1-1-1
		c-8.514,0-18-2.875-18-7v-5.036C5.206,23.968,11.97,26,20,26c1.032,0,2.063-0.034,3.067-0.102c0.551-0.037,0.968-0.514,0.931-1.065
		C23.96,24.283,23.506,23.865,22.933,23.903z M20,2c8.514,0,18,2.875,18,7s-9.486,7-18,7S2,13.125,2,9S11.486,2,20,2z"/>
	<path fill="#010101" d="M47.503,38.036l-1.593-0.919c0.044-0.378,0.065-0.747,0.065-1.117c0-0.366-0.022-0.736-0.066-1.116
		l1.591-0.92c0.478-0.277,0.641-0.888,0.366-1.366l-3-5.196c-0.132-0.23-0.351-0.398-0.608-0.466
		c-0.259-0.069-0.531-0.031-0.76,0.102l-1.584,0.919c-0.582-0.424-1.229-0.798-1.914-1.104V25c0-0.552-0.447-1-1-1h-6
		c-0.553,0-1,0.448-1,1v1.85c-0.589,0.261-1.273,0.622-1.943,1.108l-1.604-0.923c-0.478-0.276-1.089-0.11-1.365,0.366l-3.003,5.196
		c-0.132,0.23-0.168,0.503-0.1,0.759c0.069,0.257,0.237,0.476,0.466,0.608l1.592,0.92c-0.044,0.381-0.066,0.75-0.066,1.116
		c0,0.37,0.021,0.74,0.065,1.117l-1.594,0.92c-0.23,0.132-0.398,0.351-0.466,0.607c-0.068,0.257-0.033,0.53,0.1,0.759l3,5.196
		c0.276,0.477,0.885,0.642,1.364,0.367l1.61-0.925c0.67,0.486,1.354,0.848,1.944,1.109V47c0,0.552,0.447,1,1,1h6
		c0.553,0,1-0.448,1-1v-1.852c0.686-0.307,1.334-0.68,1.915-1.105l1.59,0.92c0.23,0.134,0.503,0.171,0.76,0.101
		c0.255-0.068,0.474-0.236,0.607-0.466l2.997-5.196C48.145,38.924,47.982,38.312,47.503,38.036z M43.64,42.732l-1.311-0.759
		c-0.367-0.212-0.828-0.17-1.151,0.106c-0.704,0.603-1.578,1.108-2.527,1.462C38.26,43.687,38,44.061,38,44.478V46h-4v-1.522
		c0-0.417-0.26-0.791-0.651-0.939c-0.967-0.36-1.874-0.88-2.555-1.462c-0.322-0.276-0.781-0.32-1.148-0.108l-1.331,0.764
		l-2.001-3.466l1.317-0.76c0.366-0.211,0.559-0.63,0.483-1.046c-0.093-0.51-0.139-0.988-0.139-1.462c0-0.466,0.046-0.944,0.141-1.46
		c0.077-0.416-0.117-0.835-0.483-1.046l-1.316-0.761l2.003-3.466l1.325,0.763c0.366,0.211,0.827,0.167,1.149-0.107
		c0.683-0.584,1.59-1.103,2.555-1.462C33.74,28.315,34,27.941,34,27.523V26h4v1.523c0,0.418,0.26,0.792,0.651,0.94
		c0.947,0.352,1.821,0.858,2.527,1.462c0.323,0.276,0.786,0.319,1.152,0.105l1.304-0.757l1.999,3.462l-1.315,0.761
		c-0.366,0.211-0.559,0.63-0.483,1.046c0.095,0.516,0.141,0.994,0.141,1.46c0,0.473-0.046,0.952-0.139,1.462
		c-0.077,0.416,0.117,0.835,0.483,1.046l1.317,0.76L43.64,42.732z"/>
	<path fill="#010101" d="M35.975,31c-2.757,0-5,2.243-5,5s2.243,5,5,5c2.756,0,5-2.243,5-5S38.732,31,35.975,31z M35.975,39
		c-1.654,0-3-1.346-3-3s1.346-3,3-3c1.654,0,3,1.346,3,3S37.629,39,35.975,39z"/>
</g>
</svg>
