<?xml version="1.0" encoding="utf-8"?>
<!-- Generator: Adobe Illustrator 17.0.0, SVG Export Plug-In . SVG Version: 6.00 Build 0)  -->
<!DOCTYPE svg PUBLIC "-//W3C//DTD SVG 1.1//EN" "http://www.w3.org/Graphics/SVG/1.1/DTD/svg11.dtd">
<svg version="1.1" id="Layer_1" xmlns="http://www.w3.org/2000/svg" xmlns:xlink="http://www.w3.org/1999/xlink" x="0px" y="0px"
	 width="48px" height="48px" viewBox="0 0 48 48" enable-background="new 0 0 48 48" xml:space="preserve">
<g>
	<path fill="#010101" d="M35,22c-7.168,0-13,5.832-13,13c0,7.169,5.832,13,13,13c7.168,0,13-5.831,13-13C48,27.832,42.168,22,35,22z
		 M35,46c-6.065,0-11-4.935-11-11s4.935-11,11-11s11,4.935,11,11S41.065,46,35,46z"/>
	<path fill="#010101" d="M38.293,35.293L36,37.586V30c0-0.552-0.447-1-1-1s-1,0.448-1,1v7.586l-2.293-2.293
		c-0.391-0.391-1.023-0.391-1.414,0c-0.391,0.391-0.391,1.023,0,1.414l3.999,3.999c0,0.001,0.001,0.001,0.002,0.002L35,41.414
		l0.706-0.706c0.001-0.001,0.001-0.001,0.002-0.002l3.999-3.999c0.391-0.391,0.391-1.023,0-1.414
		C39.316,34.902,38.684,34.902,38.293,35.293z"/>
	<path fill="#010101" d="M20,24.044c-8.514,0-18-2.875-18-7v-4.036c3.206,3.004,9.97,5.036,18,5.036s14.794-2.032,18-5.036v5.036
		c0,0.552,0.447,1,1,1s1-0.448,1-1v-9C40,3.973,31.215,0,20,0S0,3.973,0,9.044v26c0,4.73,7.552,8.497,17.956,8.955
		C17.971,44,17.986,44,18.001,44c0.532,0,0.975-0.419,0.998-0.956c0.024-0.552-0.403-1.019-0.955-1.043
		C8.134,41.565,2,38.05,2,35.044v-4.975c2.75,2.575,8.141,4.419,14.934,4.874c0.022,0.002,0.044,0.002,0.067,0.002
		c0.521,0,0.962-0.405,0.997-0.934c0.036-0.551-0.38-1.027-0.932-1.064C8.618,32.382,2,29.35,2,26.044v-5.036
		c3.206,3.004,9.97,5.036,18,5.036c0.553,0,1-0.448,1-1S20.553,24.044,20,24.044z M20,2c10.607,0,18,3.712,18,7.044
		c0,4.125-9.486,7-18,7s-18-2.875-18-7C2,5.712,9.393,2,20,2z"/>
</g>
</svg>
