<?xml version="1.0" encoding="utf-8"?>
<!-- Generator: Adobe Illustrator 17.0.0, SVG Export Plug-In . SVG Version: 6.00 Build 0)  -->
<!DOCTYPE svg PUBLIC "-//W3C//DTD SVG 1.1//EN" "http://www.w3.org/Graphics/SVG/1.1/DTD/svg11.dtd">
<svg version="1.1" id="Layer_1" xmlns="http://www.w3.org/2000/svg" xmlns:xlink="http://www.w3.org/1999/xlink" x="0px" y="0px"
	 width="48px" height="48px" viewBox="0 0 48 48" enable-background="new 0 0 48 48" xml:space="preserve">
<g>
	<path fill="#010101" d="M20,24c-8.514,0-18-2.875-18-7v-4.036C5.206,15.968,11.97,18,20,18s14.794-2.032,18-5.036V18
		c0,0.552,0.447,1,1,1s1-0.448,1-1V9c0-5.047-8.785-9-20-9S0,3.953,0,9v26c0,4.73,7.552,8.497,17.956,8.956
		c0.015,0.001,0.03,0.001,0.045,0.001c0.532,0,0.975-0.42,0.998-0.956c0.024-0.552-0.403-1.019-0.955-1.043
		C8.134,41.521,2,38.006,2,35v-4.974c2.75,2.575,8.141,4.419,14.934,4.872c0.022,0.002,0.044,0.003,0.067,0.003
		c0.521,0,0.962-0.405,0.997-0.934c0.036-0.551-0.38-1.027-0.932-1.064C8.618,32.339,2,29.307,2,26v-5.036
		C5.206,23.968,11.97,26,20,26c0.553,0,1-0.448,1-1S20.553,24,20,24z M20,2c8.514,0,18,2.875,18,7s-9.486,7-18,7S2,13.125,2,9
		S11.486,2,20,2z"/>
	<path fill="#010101" d="M47,30.012h-3V29c0-3.86-3.141-7-7-7s-7,3.14-7,7v1.012h-3c-0.553,0-1,0.448-1,1v16c0,0.552,0.447,1,1,1h20
		c0.553,0,1-0.448,1-1v-16C48,30.46,47.553,30.012,47,30.012z M32,29c0-2.757,2.243-5,5-5s5,2.243,5,5v1.012H32V29z M46,46.012H28
		v-14h18V46.012z"/>
	<path fill="#010101" d="M36,38.729v3.283c0,0.552,0.447,1,1,1s1-0.448,1-1v-3.284c0.595-0.347,1-0.984,1-1.722c0-1.106-0.897-2-2-2
		c-1.106,0-2,0.894-2,2C35,37.744,35.404,38.382,36,38.729z"/>
</g>
</svg>
