<?xml version="1.0" encoding="utf-8"?>
<!-- Generator: Adobe Illustrator 17.0.0, SVG Export Plug-In . SVG Version: 6.00 Build 0)  -->
<!DOCTYPE svg PUBLIC "-//W3C//DTD SVG 1.1//EN" "http://www.w3.org/Graphics/SVG/1.1/DTD/svg11.dtd">
<svg version="1.1" id="Layer_1" xmlns="http://www.w3.org/2000/svg" xmlns:xlink="http://www.w3.org/1999/xlink" x="0px" y="0px"
	 width="48px" height="48px" viewBox="0 0 48 48" enable-background="new 0 0 48 48" xml:space="preserve">
<path fill="#010101" d="M24,2C12.785,2,4,5.953,4,11v26c0,5.047,8.785,9,20,9s20-3.953,20-9V11C44,5.953,35.215,2,24,2z M42,28
	c0,4.125-9.486,7-18,7S6,32.125,6,28v-5.036C9.206,25.968,15.97,28,24,28s14.794-2.032,18-5.036V28z M42,19c0,4.125-9.486,7-18,7
	S6,23.125,6,19v-4.036C9.206,17.968,15.97,20,24,20s14.794-2.032,18-5.036V19z M24,4c8.514,0,18,2.875,18,7s-9.486,7-18,7
	S6,15.125,6,11S15.487,4,24,4z M24,44c-8.514,0-18-2.875-18-7v-5.036C9.206,34.968,15.97,37,24,37s14.794-2.032,18-5.036V37
	C42,41.125,32.514,44,24,44z"/>
</svg>
