<?xml version="1.0" encoding="utf-8"?>
<!-- Generator: Adobe Illustrator 17.0.0, SVG Export Plug-In . SVG Version: 6.00 Build 0)  -->
<!DOCTYPE svg PUBLIC "-//W3C//DTD SVG 1.1//EN" "http://www.w3.org/Graphics/SVG/1.1/DTD/svg11.dtd">
<svg version="1.1" id="Layer_1" xmlns="http://www.w3.org/2000/svg" xmlns:xlink="http://www.w3.org/1999/xlink" x="0px" y="0px"
	 width="48px" height="48px" viewBox="0 0 48 48" enable-background="new 0 0 48 48" xml:space="preserve">
<g>
	<path fill="#010101" d="M35,22c-7.169,0-13,5.832-13,13c0,7.169,5.831,13,13,13c7.168,0,13-5.831,13-13C48,27.832,42.168,22,35,22z
		 M35,46c-6.065,0-11-4.935-11-11s4.935-11,11-11s11,4.935,11,11S41.065,46,35,46z"/>
	<path fill="#010101" d="M40,34h-4v-4c0-0.552-0.448-1-1-1s-1,0.448-1,1v4h-4c-0.552,0-1,0.448-1,1s0.448,1,1,1h4v4
		c0,0.552,0.448,1,1,1s1-0.448,1-1v-4h4c0.552,0,1-0.448,1-1S40.552,34,40,34z"/>
	<path fill="#010101" d="M20,24c-8.514,0-18-2.875-18-7v-4.036C5.206,15.968,11.97,18,20,18s14.794-2.032,18-5.036V18
		c0,0.552,0.448,1,1,1s1-0.448,1-1V9c0-5.047-8.785-9-20-9S0,3.953,0,9v26c0,4.731,7.552,8.497,17.956,8.956
		c0.015,0.001,0.03,0.001,0.045,0.001c0.532,0,0.975-0.42,0.998-0.956c0.024-0.552-0.403-1.019-0.955-1.043
		C8.134,41.521,2,38.006,2,35v-4.974c2.75,2.575,8.141,4.419,14.934,4.872c0.022,0.003,0.044,0.003,0.067,0.003
		c0.522,0,0.961-0.405,0.996-0.934c0.037-0.551-0.38-1.027-0.931-1.064C8.618,32.339,2,29.307,2,26v-5.036
		C5.206,23.968,11.97,26,20,26c0.552,0,1-0.448,1-1S20.552,24,20,24z M20,2c8.514,0,18,2.875,18,7s-9.486,7-18,7S2,13.125,2,9
		S11.486,2,20,2z"/>
</g>
</svg>
