<?xml version="1.0" encoding="utf-8"?>
<!-- Generator: Adobe Illustrator 17.0.0, SVG Export Plug-In . SVG Version: 6.00 Build 0)  -->
<!DOCTYPE svg PUBLIC "-//W3C//DTD SVG 1.1//EN" "http://www.w3.org/Graphics/SVG/1.1/DTD/svg11.dtd">
<svg version="1.1" id="Layer_1" xmlns="http://www.w3.org/2000/svg" xmlns:xlink="http://www.w3.org/1999/xlink" x="0px" y="0px"
	 width="48px" height="48px" viewBox="0 0 48 48" enable-background="new 0 0 48 48" xml:space="preserve">
<g>
	<path fill="#010101" d="M22.933,23.903C21.974,23.967,20.987,24,20,24c-8.514,0-18-2.875-18-7v-4.036C5.206,15.968,11.97,18,20,18
		s14.794-2.032,18-5.036V20c0,0.552,0.447,1,1,1s1-0.448,1-1V9c0-5.047-8.785-9-20-9S0,3.953,0,9v26c0,5.047,8.785,9,20,9
		c0.553,0,1-0.448,1-1s-0.447-1-1-1c-8.514,0-18-2.875-18-7v-5.036C5.206,32.968,11.97,35,20,35c0.553,0,1-0.448,1-1s-0.447-1-1-1
		c-8.514,0-18-2.875-18-7v-5.036C5.206,23.968,11.97,26,20,26c1.032,0,2.063-0.034,3.067-0.102c0.551-0.037,0.968-0.514,0.931-1.065
		C23.961,24.283,23.505,23.863,22.933,23.903z M20,2c8.514,0,18,2.875,18,7s-9.486,7-18,7S2,13.125,2,9S11.486,2,20,2z"/>
	<path fill="#010101" d="M47,29c-0.553,0-1,0.448-1,1v2.004C44.144,29.533,41.199,28,38,28c-4.231,0-8.021,2.679-9.43,6.666
		c-0.185,0.52,0.087,1.091,0.608,1.276c0.522,0.186,1.093-0.089,1.276-0.609C31.583,32.143,34.615,30,38,30
		c2.885,0,5.502,1.565,6.914,4H42c-0.553,0-1,0.448-1,1s0.447,1,1,1h6v-6C48,29.448,47.553,29,47,29z"/>
	<path fill="#010101" d="M46.821,40.057c-0.522-0.184-1.092,0.089-1.275,0.61C44.418,43.857,41.386,46,38,46
		c-2.885,0-5.503-1.565-6.915-4H33c0.553,0,1-0.448,1-1s-0.447-1-1-1h-5v5c0,0.552,0.447,1,1,1s1-0.448,1-1v-1.003
		C31.856,46.467,34.801,48,38,48c4.231,0,8.021-2.679,9.43-6.667C47.615,40.812,47.342,40.241,46.821,40.057z"/>
</g>
</svg>
