<?xml version="1.0" encoding="utf-8"?>
<!-- Generator: Adobe Illustrator 17.0.0, SVG Export Plug-In . SVG Version: 6.00 Build 0)  -->
<!DOCTYPE svg PUBLIC "-//W3C//DTD SVG 1.1//EN" "http://www.w3.org/Graphics/SVG/1.1/DTD/svg11.dtd">
<svg version="1.1" xmlns="http://www.w3.org/2000/svg" xmlns:xlink="http://www.w3.org/1999/xlink" x="0px" y="0px" width="48px"
	 height="48px" viewBox="0 0 48 48" enable-background="new 0 0 48 48" xml:space="preserve">
<g id="Layer_3">
	<path fill="#010101" d="M45.423,22.193L32.984,9.873c-0.187-0.185-0.44-0.289-0.704-0.289h-31c-0.552,0-1,0.447-1,1v24
		c0,0.553,0.448,1,1,1h31c0.254,0,0.499-0.097,0.685-0.27l12.439-11.68c0.198-0.187,0.312-0.444,0.316-0.716
		C45.723,22.647,45.616,22.385,45.423,22.193z M22.282,23.857H22.28l-6-0.012l-0.011,6c-0.001,0.552-0.449,0.998-1,0.998h-0.002
		c-0.552-0.001-0.999-0.449-0.998-1.002l0.012-6l-6-0.012c-0.552-0.001-0.999-0.449-0.998-1.002c0.001-0.552,0.449-0.998,1-0.998
		h0.001l6.001,0.012l0.011-6c0.001-0.552,0.449-0.998,1-0.998h0.002c0.553,0.001,0.999,0.449,0.998,1.002l-0.011,6l6,0.012
		c0.552,0.001,0.999,0.449,0.998,1.002C23.281,23.411,22.833,23.857,22.282,23.857z"/>
</g>
<g id="nyt_x5F_exporter_x5F_info" display="none">
</g>
</svg>
