<?xml version="1.0" encoding="utf-8"?>
<!-- Generator: Adobe Illustrator 17.0.0, SVG Export Plug-In . SVG Version: 6.00 Build 0)  -->
<!DOCTYPE svg PUBLIC "-//W3C//DTD SVG 1.1//EN" "http://www.w3.org/Graphics/SVG/1.1/DTD/svg11.dtd">
<svg version="1.1" xmlns="http://www.w3.org/2000/svg" xmlns:xlink="http://www.w3.org/1999/xlink" x="0px" y="0px" width="48px"
	 height="48px" viewBox="0 0 48 48" enable-background="new 0 0 48 48" xml:space="preserve">
<g id="Layer_3">
	<path fill="#010101" d="M39.489,7.768C35.153,3.415,29.382,1.012,23.193,1C10.535,1,0.218,11.298,0.194,23.956
		C0.183,30.1,2.563,35.88,6.899,40.232C11.235,44.585,17.006,46.988,23.15,47h0.044c12.658,0,22.975-10.298,23-22.956
		C46.206,17.9,43.825,12.12,39.489,7.768z M23.195,46L23.195,46L23.195,46L23.195,46z M35.194,25.023h-0.001l-11.186-0.011V36
		c0,0.553-0.448,1-1,1c-0.552,0-1-0.447-1-1V25.011L11.006,25c-0.552-0.001-1-0.448-0.999-1.001c0.001-0.552,0.448-0.999,1-0.999
		c0,0,0.001,0,0.001,0l10.999,0.011V12c0-0.553,0.448-1,1-1c0.552,0,1,0.447,1,1v11.013l11.188,0.011
		c0.552,0.001,1,0.448,0.999,1.001C36.193,24.576,35.746,25.023,35.194,25.023z"/>
</g>
<g id="nyt_x5F_exporter_x5F_info" display="none">
</g>
</svg>
