<?xml version="1.0" encoding="utf-8"?>
<!-- Generator: Adobe Illustrator 17.0.0, SVG Export Plug-In . SVG Version: 6.00 Build 0)  -->
<!DOCTYPE svg PUBLIC "-//W3C//DTD SVG 1.1//EN" "http://www.w3.org/Graphics/SVG/1.1/DTD/svg11.dtd">
<svg version="1.1" xmlns="http://www.w3.org/2000/svg" xmlns:xlink="http://www.w3.org/1999/xlink" x="0px" y="0px" width="48px"
	 height="48px" viewBox="0 0 48 48" enable-background="new 0 0 48 48" xml:space="preserve">
<g id="Layer_3">
	<path fill="#010101" d="M47.022,16.044l-15-0.028l0.029-15c0-0.266-0.104-0.52-0.292-0.708c-0.187-0.187-0.442-0.294-0.707-0.294
		L17.008,0c-0.001,0-0.001,0-0.001,0c-0.266,0-0.519,0.106-0.707,0.293C16.112,0.481,16.007,0.734,16.007,1v15h-15
		c-0.552,0-1,0.447-1,1v14c0,0.553,0.448,1,1,1h15v15c0,0.553,0.448,1,1,1h14c0.552,0,1-0.447,1-1V32h15c0.552,0,1-0.447,1-0.999
		l0.014-13.956C48.021,16.493,47.574,16.045,47.022,16.044z"/>
</g>
<g id="nyt_x5F_exporter_x5F_info" display="none">
</g>
</svg>
