<?xml version="1.0" encoding="utf-8"?>
<!-- Generator: Adobe Illustrator 17.0.0, SVG Export Plug-In . SVG Version: 6.00 Build 0)  -->
<!DOCTYPE svg PUBLIC "-//W3C//DTD SVG 1.1//EN" "http://www.w3.org/Graphics/SVG/1.1/DTD/svg11.dtd">
<svg version="1.1" xmlns="http://www.w3.org/2000/svg" xmlns:xlink="http://www.w3.org/1999/xlink" x="0px" y="0px" width="48px"
	 height="48px" viewBox="0 0 48 48" enable-background="new 0 0 48 48" xml:space="preserve">
<g id="Layer_3">
	<g>
		<path fill="#010101" d="M30.593,36.586l-4.586,4.586V24c0-1.104-0.896-2-2-2c-1.105,0-2,0.896-2,2v17.172l-4.586-4.586
			c-0.78-0.781-2.048-0.781-2.828,0c-0.781,0.781-0.781,2.047,0,2.828l7.999,7.998c0.093,0.093,0.196,0.177,0.306,0.251
			c0.05,0.033,0.103,0.056,0.155,0.084c0.063,0.035,0.123,0.072,0.19,0.1c0.066,0.027,0.135,0.043,0.203,0.063
			c0.057,0.017,0.112,0.039,0.171,0.05c0.129,0.026,0.26,0.04,0.392,0.04c0.131,0,0.262-0.014,0.392-0.04
			c0.059-0.012,0.114-0.034,0.171-0.05c0.068-0.02,0.137-0.036,0.203-0.063c0.066-0.028,0.127-0.065,0.189-0.1
			c0.052-0.028,0.105-0.051,0.155-0.084c0.11-0.073,0.213-0.157,0.306-0.251l7.999-7.998c0.781-0.781,0.781-2.047,0-2.828
			C32.641,35.805,31.373,35.805,30.593,36.586z"/>
		<path fill="#010101" d="M47.007,0h-46c-0.552,0-1,0.447-1,1v14c0,0.553,0.448,1,1,1h46c0.552,0,1-0.447,1-1V1
			C48.007,0.447,47.559,0,47.007,0z"/>
	</g>
</g>
<g id="nyt_x5F_exporter_x5F_info" display="none">
</g>
</svg>
