<?xml version="1.0" encoding="utf-8"?>
<!-- Generator: Adobe Illustrator 17.0.0, SVG Export Plug-In . SVG Version: 6.00 Build 0)  -->
<!DOCTYPE svg PUBLIC "-//W3C//DTD SVG 1.1//EN" "http://www.w3.org/Graphics/SVG/1.1/DTD/svg11.dtd">
<svg version="1.1" xmlns="http://www.w3.org/2000/svg" xmlns:xlink="http://www.w3.org/1999/xlink" x="0px" y="0px" width="48px"
	 height="48px" viewBox="0 0 48 48" enable-background="new 0 0 48 48" xml:space="preserve">
<g id="Layer_3">
	<path fill="#010101" d="M47.625,18.229L24.659,0.2c-0.362-0.285-0.871-0.286-1.232-0.003L0.392,18.153
		c-0.336,0.263-0.47,0.71-0.331,1.113c0.138,0.403,0.517,0.675,0.944,0.676l7.002,0.014v15.059c0,0.265,0.105,0.52,0.293,0.707
		l11.946,11.965c0.187,0.187,0.441,0.292,0.705,0.293l18.054,0.035h0.001c0.265,0,0.52-0.105,0.707-0.292
		c0.188-0.188,0.293-0.442,0.293-0.708v-27h7c0.426,0,0.806-0.27,0.945-0.673C48.091,18.939,47.959,18.492,47.625,18.229z
		 M21.007,47.015L8.976,34.957l12.031,0.058V47.015z"/>
</g>
<g id="nyt_x5F_exporter_x5F_info" display="none">
</g>
</svg>
