<?xml version="1.0" encoding="utf-8"?>
<!-- Generator: Adobe Illustrator 17.0.0, SVG Export Plug-In . SVG Version: 6.00 Build 0)  -->
<!DOCTYPE svg PUBLIC "-//W3C//DTD SVG 1.1//EN" "http://www.w3.org/Graphics/SVG/1.1/DTD/svg11.dtd">
<svg version="1.1" xmlns="http://www.w3.org/2000/svg" xmlns:xlink="http://www.w3.org/1999/xlink" x="0px" y="0px" width="48px"
	 height="48px" viewBox="0 0 48 48" enable-background="new 0 0 48 48" xml:space="preserve">
<g id="Layer_3">
	<g>
		<path fill="#010101" d="M37.916,21.435c-0.02-0.067-0.035-0.135-0.062-0.2c-0.029-0.068-0.067-0.131-0.103-0.196
			c-0.027-0.049-0.049-0.101-0.081-0.149c-0.074-0.11-0.157-0.213-0.251-0.307l-7.999-7.999c-0.78-0.781-2.048-0.781-2.828,0
			c-0.781,0.781-0.781,2.047,0,2.828L31.178,20H2.007c-1.105,0-2,0.896-2,2c0,1.105,0.895,2,2,2h29.171l-4.586,4.586
			c-0.781,0.781-0.781,2.047,0,2.828C26.983,31.805,27.495,32,28.007,32c0.512,0,1.024-0.195,1.414-0.586l7.999-7.999
			c0.093-0.093,0.177-0.197,0.251-0.307c0.032-0.048,0.053-0.099,0.081-0.149c0.036-0.065,0.075-0.127,0.103-0.196
			c0.027-0.065,0.042-0.133,0.062-0.2c0.017-0.058,0.039-0.113,0.051-0.173c0.052-0.259,0.052-0.524,0-0.783
			C37.955,21.548,37.933,21.493,37.916,21.435z"/>
		<path fill="#010101" d="M46.007,0c-1.105,0-2,0.896-2,2v44c0,1.105,0.895,2,2,2c1.104,0,2-0.895,2-2V2
			C48.007,0.896,47.111,0,46.007,0z"/>
	</g>
</g>
<g id="nyt_x5F_exporter_x5F_info" display="none">
</g>
</svg>
