<?xml version="1.0" encoding="utf-8"?>
<!-- Generator: Adobe Illustrator 17.0.0, SVG Export Plug-In . SVG Version: 6.00 Build 0)  -->
<!DOCTYPE svg PUBLIC "-//W3C//DTD SVG 1.1//EN" "http://www.w3.org/Graphics/SVG/1.1/DTD/svg11.dtd">
<svg version="1.1" xmlns="http://www.w3.org/2000/svg" xmlns:xlink="http://www.w3.org/1999/xlink" x="0px" y="0px" width="48px"
	 height="48px" viewBox="0 0 48 48" enable-background="new 0 0 48 48" xml:space="preserve">
<g id="Layer_3">
	<g>
		<path fill="#010101" d="M47.962,25.622c-0.009-0.046-0.024-0.088-0.036-0.133c-0.02-0.076-0.041-0.152-0.07-0.227
			c-0.02-0.049-0.045-0.096-0.068-0.143c-0.031-0.064-0.064-0.128-0.103-0.189c-0.03-0.048-0.064-0.091-0.098-0.136
			c-0.028-0.037-0.05-0.077-0.081-0.112l-7-8c-0.728-0.831-1.991-0.916-2.822-0.188c-0.832,0.728-0.916,1.99-0.189,2.822L41.592,24
			H25c-1.104,0-2,0.896-2,2c0,1.105,0.896,2,2,2h16.592l-4.098,4.683c-0.727,0.832-0.643,2.095,0.189,2.822
			C38.062,35.837,38.532,36,38.999,36c0.557,0,1.111-0.231,1.506-0.683l7-8c0.031-0.035,0.053-0.075,0.081-0.112
			c0.034-0.045,0.068-0.088,0.098-0.136c0.039-0.061,0.071-0.125,0.103-0.188c0.023-0.048,0.049-0.094,0.068-0.144
			c0.029-0.074,0.05-0.149,0.07-0.226c0.012-0.044,0.027-0.087,0.036-0.133C48.01,26.128,48.01,25.872,47.962,25.622z"/>
		<path fill="#010101" d="M15,0H1C0.448,0,0,0.447,0,1v46c0,0.553,0.448,1,1,1h14c0.552,0,1-0.447,1-1V1C16,0.447,15.552,0,15,0z"/>
	</g>
</g>
<g id="nyt_x5F_exporter_x5F_info" display="none">
</g>
</svg>
