<?xml version="1.0" encoding="utf-8"?>
<!-- Generator: Adobe Illustrator 17.0.0, SVG Export Plug-In . SVG Version: 6.00 Build 0)  -->
<!DOCTYPE svg PUBLIC "-//W3C//DTD SVG 1.1//EN" "http://www.w3.org/Graphics/SVG/1.1/DTD/svg11.dtd">
<svg version="1.1" xmlns="http://www.w3.org/2000/svg" xmlns:xlink="http://www.w3.org/1999/xlink" x="0px" y="0px" width="48px"
	 height="48px" viewBox="0 0 48 48" enable-background="new 0 0 48 48" xml:space="preserve">
<g id="Layer_3">
	<g>
		<path fill="#010101" d="M24.007,20H6.835l4.586-4.586c0.781-0.781,0.781-2.047,0-2.828c-0.78-0.781-2.048-0.781-2.828,0
			l-7.999,7.999c-0.094,0.093-0.177,0.197-0.251,0.307C0.312,20.939,0.29,20.99,0.263,21.04c-0.036,0.065-0.075,0.127-0.103,0.196
			c-0.027,0.065-0.042,0.133-0.062,0.2c-0.017,0.058-0.04,0.113-0.051,0.173c-0.052,0.259-0.052,0.524,0,0.783
			c0.012,0.06,0.034,0.115,0.051,0.173c0.02,0.067,0.035,0.135,0.062,0.2c0.028,0.068,0.067,0.131,0.103,0.196
			c0.027,0.049,0.049,0.101,0.081,0.149c0.074,0.11,0.157,0.213,0.251,0.307l7.999,7.999C8.983,31.805,9.495,32,10.007,32
			c0.512,0,1.024-0.195,1.414-0.586c0.781-0.781,0.781-2.047,0-2.828L6.835,24h17.171c1.104,0,2-0.895,2-2
			C26.007,20.896,25.111,20,24.007,20z"/>
		<path fill="#010101" d="M47.007,0h-14c-0.552,0-1,0.447-1,1v46c0,0.553,0.448,1,1,1h14c0.552,0,1-0.447,1-1V1
			C48.007,0.447,47.559,0,47.007,0z"/>
	</g>
</g>
<g id="nyt_x5F_exporter_x5F_info" display="none">
</g>
</svg>
