<?xml version="1.0" encoding="utf-8"?>
<!-- Generator: Adobe Illustrator 17.0.0, SVG Export Plug-In . SVG Version: 6.00 Build 0)  -->
<!DOCTYPE svg PUBLIC "-//W3C//DTD SVG 1.1//EN" "http://www.w3.org/Graphics/SVG/1.1/DTD/svg11.dtd">
<svg version="1.1" xmlns="http://www.w3.org/2000/svg" xmlns:xlink="http://www.w3.org/1999/xlink" x="0px" y="0px" width="48px"
	 height="48px" viewBox="0 0 48 48" enable-background="new 0 0 48 48" xml:space="preserve">
<g id="Layer_3">
	<path fill="#010101" d="M46.007,19.584H6.835l5.586-5.586c0.781-0.781,0.781-2.047,0-2.828c-0.78-0.781-2.048-0.781-2.828,0l-9,9
		c-0.382,0.382-0.593,0.901-0.586,1.441c0.008,0.54,0.233,1.055,0.625,1.426L9.6,31.521c0.387,0.365,0.881,0.547,1.374,0.547
		c0.531,0,1.06-0.21,1.453-0.626c0.759-0.802,0.724-2.067-0.078-2.827l-5.317-5.03h36.975v10.483c0,1.104,0.895,2,2,2
		c1.104,0,2-0.896,2-2V21.584C48.007,20.48,47.111,19.584,46.007,19.584z"/>
</g>
<g id="nyt_x5F_exporter_x5F_info" display="none">
</g>
</svg>
