<?xml version="1.0" encoding="utf-8"?>
<!-- Generator: Adobe Illustrator 17.0.0, SVG Export Plug-In . SVG Version: 6.00 Build 0)  -->
<!DOCTYPE svg PUBLIC "-//W3C//DTD SVG 1.1//EN" "http://www.w3.org/Graphics/SVG/1.1/DTD/svg11.dtd">
<svg version="1.1" xmlns="http://www.w3.org/2000/svg" xmlns:xlink="http://www.w3.org/1999/xlink" x="0px" y="0px" width="48px"
	 height="48px" viewBox="0 0 48 48" enable-background="new 0 0 48 48" xml:space="preserve">
<g id="Layer_3">
	<g>
		<path fill="#010101" d="M15.421,11.414l4.586-4.586v17.172c0,1.105,0.895,2,2,2c1.104,0,2-0.895,2-2V6.828l4.586,4.586
			c0.39,0.391,0.902,0.586,1.414,0.586c0.512,0,1.024-0.195,1.414-0.586c0.781-0.781,0.781-2.047,0-2.828l-7.999-7.998
			c-0.093-0.093-0.196-0.177-0.306-0.251c-0.05-0.034-0.105-0.057-0.158-0.086c-0.062-0.033-0.121-0.071-0.186-0.098
			c-0.067-0.028-0.137-0.044-0.206-0.064c-0.056-0.017-0.11-0.039-0.168-0.05c-0.259-0.051-0.525-0.051-0.784,0
			c-0.058,0.012-0.112,0.033-0.169,0.05c-0.069,0.02-0.138,0.036-0.205,0.063c-0.066,0.027-0.125,0.065-0.187,0.099
			c-0.052,0.029-0.107,0.052-0.157,0.085c-0.11,0.073-0.213,0.157-0.306,0.251l-7.999,7.998c-0.781,0.781-0.781,2.047,0,2.828
			C13.373,12.195,14.641,12.195,15.421,11.414z"/>
		<path fill="#010101" d="M47.007,31.999h-46c-0.552,0-1,0.447-1,1v14c0,0.553,0.448,1,1,1h46c0.552,0,1-0.447,1-1v-14
			C48.007,32.447,47.559,31.999,47.007,31.999z"/>
	</g>
</g>
<g id="nyt_x5F_exporter_x5F_info" display="none">
</g>
</svg>
