<?xml version="1.0" encoding="utf-8"?>
<!-- Generator: Adobe Illustrator 17.0.0, SVG Export Plug-In . SVG Version: 6.00 Build 0)  -->
<!DOCTYPE svg PUBLIC "-//W3C//DTD SVG 1.1//EN" "http://www.w3.org/Graphics/SVG/1.1/DTD/svg11.dtd">
<svg version="1.1" xmlns="http://www.w3.org/2000/svg" xmlns:xlink="http://www.w3.org/1999/xlink" x="0px" y="0px" width="48px"
	 height="48px" viewBox="0 0 48 48" enable-background="new 0 0 48 48" xml:space="preserve">
<g id="Layer_3">
	<path fill="#010101" d="M42.154,20.177c-4.182-4.19-10.503-6.405-18.28-6.405c-4.913,0-10.254,0.856-15.885,2.547l-6.296-6.04
		C1.403,10,0.976,9.923,0.608,10.08C0.239,10.237,0,10.6,0,11v26c0,0.552,0.448,1,1,1l26.159,0.006c0.404,0,0.768-0.243,0.923-0.616
		c0.155-0.373,0.07-0.804-0.215-1.09l-6.839-6.864c4.654-2.244,9.433-3.47,13.584-3.47c3.763,0,6.786,1.036,8.743,2.997
		c1.867,1.87,2.81,4.588,2.803,8.079c-0.001,0.553,0.446,1.001,0.998,1.002c0,0,0.001,0,0.001,0c0.552,0,1-0.446,1-0.998
		C48.173,29.858,46.152,24.183,42.154,20.177z"/>
</g>
<g id="nyt_x5F_exporter_x5F_info" display="none">
</g>
</svg>
