<?xml version="1.0" encoding="utf-8"?>
<!-- Generator: Adobe Illustrator 17.0.0, SVG Export Plug-In . SVG Version: 6.00 Build 0)  -->
<!DOCTYPE svg PUBLIC "-//W3C//DTD SVG 1.1//EN" "http://www.w3.org/Graphics/SVG/1.1/DTD/svg11.dtd">
<svg version="1.1" xmlns="http://www.w3.org/2000/svg" xmlns:xlink="http://www.w3.org/1999/xlink" x="0px" y="0px" width="48px"
	 height="48px" viewBox="0 0 48 48" enable-background="new 0 0 48 48" xml:space="preserve">
<g id="Layer_3">
	<g>
		<path fill="#010101" d="M46.007,7.584h-13c-1.105,0-2,0.896-2,2c0,1.105,0.896,2,2,2h11v7c0,1.105,0.896,2,2,2s2-0.895,2-2v-9
			C48.007,8.48,47.111,7.584,46.007,7.584z"/>
		<path fill="#010101" d="M2.007,20.584c1.105,0,2-0.895,2-2v-7h11c1.105,0,2-0.895,2-2c0-1.104-0.896-2-2-2h-13
			c-1.105,0-2,0.896-2,2v9C0.007,19.689,0.902,20.584,2.007,20.584z"/>
		<path fill="#010101" d="M46.007,26.584c-1.104,0-2,0.896-2,2v7h-11c-1.105,0-2,0.896-2,2c0,1.105,0.896,2,2,2h13
			c1.104,0,2-0.895,2-2v-9C48.007,27.48,47.111,26.584,46.007,26.584z"/>
		<path fill="#010101" d="M15.007,35.584h-11v-7c0-1.104-0.895-2-2-2s-2,0.896-2,2v9c0,1.105,0.895,2,2,2h13c1.105,0,2-0.895,2-2
			C17.007,36.48,16.111,35.584,15.007,35.584z"/>
		<path fill="#010101" d="M6.007,16.584v14c0,0.553,0.448,1,1,1h34c0.552,0,1-0.447,1-1v-14c0-0.553-0.448-1-1-1h-34
			C6.455,15.584,6.007,16.031,6.007,16.584z"/>
	</g>
</g>
<g id="nyt_x5F_exporter_x5F_info" display="none">
</g>
</svg>
