<?xml version="1.0" encoding="utf-8"?>
<!-- Generator: Adobe Illustrator 17.0.0, SVG Export Plug-In . SVG Version: 6.00 Build 0)  -->
<!DOCTYPE svg PUBLIC "-//W3C//DTD SVG 1.1//EN" "http://www.w3.org/Graphics/SVG/1.1/DTD/svg11.dtd">
<svg version="1.1" xmlns="http://www.w3.org/2000/svg" xmlns:xlink="http://www.w3.org/1999/xlink" x="0px" y="0px" width="48px"
	 height="48px" viewBox="0 0 48 48" enable-background="new 0 0 48 48" xml:space="preserve">
<g id="Layer_3">
	<path fill="#010101" d="M26.829,23.959L47.413,3.416c0.782-0.78,0.783-2.047,0.003-2.829c-0.78-0.782-2.047-0.783-2.828-0.003
		L24.003,21.127L3.46,0.543C2.68-0.239,1.414-0.24,0.632,0.54C-0.15,1.32-0.151,2.587,0.629,3.369l20.542,20.584L0.587,44.496
		c-0.782,0.78-0.783,2.047-0.003,2.829C0.975,47.717,1.487,47.912,2,47.912c0.511,0,1.022-0.194,1.413-0.584l20.585-20.544
		l20.587,20.629C44.975,47.805,45.487,48,46,48c0.511,0,1.022-0.194,1.413-0.584c0.782-0.78,0.783-2.047,0.003-2.829L26.829,23.959z
		"/>
</g>
<g id="nyt_x5F_exporter_x5F_info" display="none">
</g>
</svg>
