<?xml version="1.0" encoding="utf-8"?>
<!-- Generator: Adobe Illustrator 17.0.0, SVG Export Plug-In . SVG Version: 6.00 Build 0)  -->
<!DOCTYPE svg PUBLIC "-//W3C//DTD SVG 1.1//EN" "http://www.w3.org/Graphics/SVG/1.1/DTD/svg11.dtd">
<svg version="1.1" xmlns="http://www.w3.org/2000/svg" xmlns:xlink="http://www.w3.org/1999/xlink" x="0px" y="0px" width="48px"
	 height="48px" viewBox="0 0 48 48" enable-background="new 0 0 48 48" xml:space="preserve">
<g id="Layer_3">
	<path fill="#010101" d="M47.731,23.587l-13-13.691c-0.188-0.199-0.451-0.312-0.725-0.312h-33c-0.552,0-1,0.447-1,1v26
		c0,0.553,0.448,1,1,1h33c0.256,0,0.502-0.098,0.687-0.273l13-12.309c0.193-0.183,0.305-0.435,0.312-0.7
		C48.013,24.037,47.915,23.779,47.731,23.587z M21.654,28.468c0.39,0.392,0.389,1.024-0.003,1.414
		c-0.195,0.195-0.45,0.292-0.705,0.292c-0.257,0-0.513-0.098-0.709-0.294l-4.234-4.25l-4.25,4.234
		c-0.195,0.195-0.45,0.292-0.706,0.292c-0.256,0-0.513-0.098-0.708-0.294c-0.39-0.392-0.389-1.024,0.003-1.414l4.25-4.234
		l-4.234-4.25c-0.39-0.392-0.389-1.024,0.003-1.414c0.391-0.392,1.024-0.39,1.414,0.002l4.235,4.251l4.25-4.233
		c0.39-0.392,1.024-0.39,1.414,0.002c0.39,0.392,0.389,1.024-0.003,1.414l-4.25,4.233L21.654,28.468z"/>
</g>
<g id="nyt_x5F_exporter_x5F_info" display="none">
</g>
</svg>
