<?xml version="1.0" encoding="utf-8"?>
<!-- Generator: Adobe Illustrator 17.0.0, SVG Export Plug-In . SVG Version: 6.00 Build 0)  -->
<!DOCTYPE svg PUBLIC "-//W3C//DTD SVG 1.1//EN" "http://www.w3.org/Graphics/SVG/1.1/DTD/svg11.dtd">
<svg version="1.1" xmlns="http://www.w3.org/2000/svg" xmlns:xlink="http://www.w3.org/1999/xlink" x="0px" y="0px" width="48px"
	 height="48px" viewBox="0 0 48 48" enable-background="new 0 0 48 48" xml:space="preserve">
<g id="Layer_3">
	<path fill="#010101" d="M34.421,24.02l13.318-13.268c0.188-0.187,0.294-0.44,0.294-0.706c0-0.266-0.104-0.52-0.292-0.708
		l-8.983-9.018c-0.187-0.187-0.441-0.293-0.707-0.294c0,0-0.001,0-0.001,0c-0.265,0-0.519,0.104-0.706,0.292L24.027,13.587
		L10.759,0.267c-0.187-0.187-0.441-0.293-0.707-0.294c0,0-0.001,0-0.001,0c-0.265,0-0.519,0.104-0.706,0.292L0.328,9.248
		c-0.392,0.39-0.393,1.023-0.003,1.414L13.593,23.98L0.274,37.248c-0.391,0.39-0.392,1.023-0.003,1.414l8.983,9.018
		c0.187,0.188,0.441,0.293,0.707,0.294h0.002c0.265,0,0.518-0.104,0.705-0.292l13.318-13.267l13.268,13.318
		c0.195,0.196,0.452,0.294,0.708,0.294c0.255,0,0.511-0.097,0.706-0.292l9.017-8.982c0.392-0.39,0.393-1.022,0.003-1.414
		L34.421,24.02z"/>
</g>
<g id="nyt_x5F_exporter_x5F_info" display="none">
</g>
</svg>
