<?xml version="1.0" encoding="utf-8"?>
<!-- Generator: Adobe Illustrator 17.0.0, SVG Export Plug-In . SVG Version: 6.00 Build 0)  -->
<!DOCTYPE svg PUBLIC "-//W3C//DTD SVG 1.1//EN" "http://www.w3.org/Graphics/SVG/1.1/DTD/svg11.dtd">
<svg version="1.1" xmlns="http://www.w3.org/2000/svg" xmlns:xlink="http://www.w3.org/1999/xlink" x="0px" y="0px" width="48px"
	 height="48px" viewBox="0 0 48 48" enable-background="new 0 0 48 48" xml:space="preserve">
<g id="Layer_3">
	<path fill="#010101" d="M23.006,1C10.349,1,0.031,11.298,0.007,23.956C-0.005,30.1,2.376,35.88,6.711,40.232
		c4.335,4.353,10.107,6.756,16.251,6.768c0,0,0.044,0,0.045,0c12.657,0,22.975-10.298,22.999-22.956
		C46.031,11.362,35.733,1.024,23.006,1z M23.008,46L23.008,46L23.008,46L23.008,46z M32.183,31.797
		c0.39,0.392,0.389,1.024-0.003,1.414c-0.195,0.195-0.45,0.292-0.705,0.292c-0.256,0-0.513-0.098-0.708-0.294l-7.764-7.794
		l-7.793,7.763c-0.195,0.195-0.45,0.292-0.706,0.292c-0.256,0-0.513-0.098-0.708-0.294c-0.39-0.392-0.389-1.024,0.003-1.414
		l7.793-7.763l-7.764-7.794c-0.39-0.392-0.389-1.024,0.003-1.414c0.39-0.392,1.024-0.39,1.414,0.002l7.764,7.794l7.793-7.763
		c0.391-0.391,1.024-0.391,1.414,0.002c0.39,0.392,0.389,1.024-0.003,1.414l-7.793,7.763L32.183,31.797z"/>
</g>
<g id="nyt_x5F_exporter_x5F_info" display="none">
</g>
</svg>
