<?xml version="1.0" encoding="utf-8"?>
<!-- Generator: Adobe Illustrator 17.1.0, SVG Export Plug-In . SVG Version: 6.00 Build 0)  -->
<!DOCTYPE svg PUBLIC "-//W3C//DTD SVG 1.0//EN" "http://www.w3.org/TR/2001/REC-SVG-20010904/DTD/svg10.dtd">
<svg version="1.0" id="Layer_1" xmlns="http://www.w3.org/2000/svg" xmlns:xlink="http://www.w3.org/1999/xlink" x="0px" y="0px"
	 width="48px" height="48px" viewBox="0 0 48 48" enable-background="new 0 0 48 48" xml:space="preserve">
<path d="M46.729,1.336c-0.187-0.188-0.442-0.294-0.707-0.294L1.98,1C1.979,1,1.979,1,1.979,1C1.714,1,1.46,1.105,1.272,1.293
	C1.084,1.48,0.979,1.734,0.979,2v44c0,0.553,0.448,1,1,1h44c0.552,0,0.999-0.447,1-0.999l0.042-43.958
	C47.022,1.777,46.916,1.523,46.729,1.336z M33.155,31.797c0.39,0.392,0.389,1.024-0.003,1.414c-0.195,0.195-0.45,0.292-0.706,0.292
	c-0.256,0-0.513-0.098-0.708-0.294l-7.764-7.794l-7.793,7.763c-0.195,0.195-0.45,0.292-0.706,0.292
	c-0.256,0-0.513-0.098-0.708-0.294c-0.39-0.392-0.389-1.024,0.003-1.414l7.793-7.763L14.8,16.205
	c-0.39-0.392-0.389-1.024,0.003-1.414c0.39-0.392,1.024-0.39,1.414,0.002l7.764,7.794l7.793-7.763
	c0.39-0.391,1.024-0.391,1.414,0.002c0.39,0.392,0.389,1.024-0.003,1.414l-7.793,7.763L33.155,31.797z"/>
</svg>
