<?xml version="1.0" encoding="utf-8"?>
<!-- Generator: Adobe Illustrator 17.1.0, SVG Export Plug-In . SVG Version: 6.00 Build 0)  -->
<!DOCTYPE svg PUBLIC "-//W3C//DTD SVG 1.0//EN" "http://www.w3.org/TR/2001/REC-SVG-20010904/DTD/svg10.dtd">
<svg version="1.0" id="Layer_1" xmlns="http://www.w3.org/2000/svg" xmlns:xlink="http://www.w3.org/1999/xlink" x="0px" y="0px"
	 width="48px" height="48px" viewBox="0 0 48 48" enable-background="new 0 0 48 48" xml:space="preserve">
<g>
	<path d="M41.969,24.015c-0.004-0.111-0.012-0.223-0.033-0.331c-0.015-0.076-0.043-0.147-0.066-0.22
		c-0.016-0.051-0.027-0.104-0.047-0.154c-0.032-0.078-0.076-0.149-0.118-0.222c-0.023-0.04-0.04-0.083-0.066-0.122
		c-0.07-0.104-0.15-0.201-0.237-0.29c-0.003-0.003-0.005-0.007-0.008-0.01l0,0c-0.001-0.001-0.002-0.002-0.002-0.003l-5.986-6.009
		c-0.779-0.782-2.046-0.784-2.829-0.006c-0.782,0.779-0.785,2.046-0.005,2.828l2.586,2.596L12.83,22.049l2.619-2.608
		c0.782-0.779,0.785-2.046,0.005-2.828c-0.779-0.782-2.045-0.784-2.829-0.006l-6.012,5.988c-0.376,0.374-0.587,0.883-0.588,1.413
		c0,0,0.002,0.012,0.002,0.018l-0.002,0.017c-0.001,0.638,0.303,1.2,0.768,1.566l5.804,5.826c0.391,0.392,0.904,0.589,1.417,0.589
		c0.511,0,1.022-0.194,1.412-0.583c0.782-0.779,0.785-2.046,0.005-2.828l-2.553-2.563l22.261,0.023l-2.586,2.576
		c-0.782,0.779-0.785,2.046-0.005,2.828c0.391,0.392,0.904,0.589,1.417,0.589c0.511,0,1.021-0.194,1.412-0.583l6.012-5.988
		l0.002-0.002c0.092-0.091,0.174-0.192,0.246-0.299c0.022-0.033,0.037-0.071,0.057-0.105c0.046-0.078,0.093-0.155,0.128-0.238
		c0.017-0.041,0.025-0.084,0.039-0.125c0.028-0.082,0.059-0.162,0.076-0.248c0.026-0.129,0.04-0.261,0.04-0.394l0-0.001l0-0.001
		C41.975,24.057,41.969,24.037,41.969,24.015z"/>
	<path d="M2.054,9C2.053,9,2.052,9,2.05,9c-1.103,0-1.998,0.893-2,1.996l-0.05,26C-0.002,38.101,0.892,38.998,1.996,39
		C1.998,39,1.999,39,2,39c1.103,0,1.998-0.893,2-1.996l0.05-26C4.052,9.899,3.159,9.002,2.054,9z"/>
	<path d="M46,9.089c-1.104,0-2,0.896-2,2V37c0,1.104,0.896,2,2,2s2-0.896,2-2V11.089C48,9.984,47.104,9.089,46,9.089z"/>
</g>
</svg>
