<?xml version="1.0" encoding="utf-8"?>
<!-- Generator: Adobe Illustrator 17.0.0, SVG Export Plug-In . SVG Version: 6.00 Build 0)  -->
<!DOCTYPE svg PUBLIC "-//W3C//DTD SVG 1.1//EN" "http://www.w3.org/Graphics/SVG/1.1/DTD/svg11.dtd">
<svg version="1.1" xmlns="http://www.w3.org/2000/svg" xmlns:xlink="http://www.w3.org/1999/xlink" x="0px" y="0px" width="48px"
	 height="48px" viewBox="0 0 48 48" enable-background="new 0 0 48 48" xml:space="preserve">
<g id="Layer_3">
	<path fill="#010101" d="M47.298,9.658c-0.377-0.154-0.808-0.065-1.093,0.227l-5.901,6.027c-5.678-1.726-11.062-2.601-16.01-2.601
		c-15.36,0-24.187,8.449-24.215,23.182c-0.001,0.553,0.446,1.001,0.998,1.002h0.002c0.552,0,1-0.446,1-0.998
		c0.018-9.599,7.218-11.032,11.509-11.032c4.166,0,8.965,1.243,13.64,3.517l-7.009,6.889c-0.29,0.284-0.378,0.716-0.225,1.092
		c0.154,0.376,0.52,0.621,0.926,0.621h26c0.552,0,1-0.447,1-1v-26C47.92,10.178,47.674,9.812,47.298,9.658z"/>
</g>
<g id="nyt_x5F_exporter_x5F_info" display="none">
</g>
</svg>
