<?xml version="1.0" encoding="utf-8"?>
<!-- Generator: Adobe Illustrator 17.0.0, SVG Export Plug-In . SVG Version: 6.00 Build 0)  -->
<!DOCTYPE svg PUBLIC "-//W3C//DTD SVG 1.1//EN" "http://www.w3.org/Graphics/SVG/1.1/DTD/svg11.dtd">
<svg version="1.1" xmlns="http://www.w3.org/2000/svg" xmlns:xlink="http://www.w3.org/1999/xlink" x="0px" y="0px" width="48px"
	 height="48px" viewBox="0 0 48 48" enable-background="new 0 0 48 48" xml:space="preserve">
<g id="Layer_3">
	<g>
		<path fill="#010101" d="M23.007,38.584c-1.104,0-2,0.896-2,2v4c0,1.105,0.896,2,2,2s2-0.895,2-2v-4
			C25.007,39.48,24.111,38.584,23.007,38.584z"/>
		<path fill="#010101" d="M42.011,23.974l-4-0.008c-1.139,0.022-2.002,0.891-2.004,1.996c-0.002,1.104,0.892,2.002,1.996,2.004
			l4,0.008c0.001,0,0.002,0,0.004,0c1.103,0,1.998-0.892,2-1.996C44.009,24.873,43.115,23.976,42.011,23.974z"/>
		<path fill="#010101" d="M23.055,0.938c-0.001,0-0.002,0-0.004,0c-1.103,0-1.998,0.893-2,1.996l-0.016,8
			c-0.002,1.104,0.892,2.002,1.996,2.004c0.001,0,0.002,0,0.004,0c1.103,0,1.998-0.893,2-1.996l0.016-8
			C25.053,1.837,24.16,0.94,23.055,0.938z"/>
		<path fill="#010101" d="M17.628,37.861c-1.022-0.427-2.19,0.057-2.616,1.076l-1.54,3.692c-0.425,1.019,0.056,2.19,1.076,2.615
			c0.252,0.105,0.513,0.155,0.769,0.155c0.783,0,1.526-0.463,1.847-1.231l1.54-3.692C19.129,39.457,18.648,38.286,17.628,37.861z"/>
		<path fill="#010101" d="M30.957,38.971c-0.419-1.022-1.589-1.509-2.61-1.091c-1.021,0.42-1.51,1.589-1.09,2.61l1.519,3.698
			c0.317,0.773,1.064,1.241,1.851,1.241c0.253,0,0.51-0.049,0.759-0.15c1.022-0.42,1.51-1.589,1.09-2.61L30.957,38.971z"/>
		<path fill="#010101" d="M8.003,27.908c0.001,0,0.002,0,0.004,0c1.103,0,1.998-0.893,2-1.996c0.002-1.104-0.892-2.002-1.996-2.004
			l-4-0.008c-0.002,0-0.002,0-0.004,0c-1.103,0-1.998,0.893-2,1.996c-0.002,1.104,0.892,2.002,1.996,2.004L8.003,27.908z"/>
		<path fill="#010101" d="M35.026,20.985c0.318,0.772,1.063,1.239,1.85,1.239c0.253,0,0.512-0.049,0.761-0.152l3.699-1.524
			c1.021-0.421,1.508-1.59,1.087-2.61c-0.421-1.022-1.587-1.514-2.611-1.087l-3.699,1.524
			C35.092,18.796,34.605,19.965,35.026,20.985z"/>
		<path fill="#010101" d="M10.985,30.889c-0.421-1.021-1.587-1.515-2.611-1.087l-3.699,1.524c-1.021,0.421-1.508,1.59-1.087,2.61
			c0.318,0.772,1.063,1.239,1.85,1.239c0.254,0,0.512-0.049,0.761-0.152l3.699-1.525C10.919,33.078,11.406,31.909,10.985,30.889z"/>
		<path fill="#010101" d="M35.009,35.153c-0.78-0.78-2.046-0.783-2.829-0.005c-0.783,0.78-0.785,2.046-0.005,2.829l2.823,2.833
			c0.391,0.392,0.904,0.588,1.417,0.588c0.511,0,1.021-0.194,1.412-0.583c0.783-0.78,0.785-2.046,0.005-2.829L35.009,35.153z"/>
		<path fill="#010101" d="M32.216,16.763c0.391,0.392,0.904,0.588,1.417,0.588c0.511,0,1.022-0.194,1.412-0.583l2.834-2.823
			c0.783-0.78,0.785-2.046,0.005-2.829c-0.78-0.78-2.046-0.783-2.829-0.005l-2.833,2.823C31.438,14.714,31.437,15.98,32.216,16.763z
			"/>
		<path fill="#010101" d="M28.005,13.938c0.251,0.104,0.511,0.154,0.767,0.154c0.784,0,1.528-0.464,1.848-1.232l1.537-3.694
			c0.424-1.021-0.059-2.19-1.079-2.615c-1.019-0.424-2.191,0.06-2.615,1.078l-1.537,3.694
			C26.502,12.343,26.985,13.513,28.005,13.938z"/>
		<path fill="#010101" d="M17.618,7.607c-0.421-1.021-1.593-1.513-2.611-1.086c-1.021,0.421-1.508,1.59-1.087,2.611l1.525,3.698
			c0.318,0.771,1.064,1.238,1.85,1.238c0.254,0,0.512-0.049,0.761-0.152c1.021-0.421,1.508-1.59,1.087-2.611L17.618,7.607z"/>
		<path fill="#010101" d="M11.003,16.721c0.391,0.393,0.904,0.589,1.417,0.589c0.51,0,1.021-0.194,1.412-0.583
			c0.782-0.779,0.785-2.046,0.005-2.828l-2.823-2.834c-0.779-0.783-2.045-0.785-2.829-0.006c-0.782,0.779-0.785,2.046-0.005,2.828
			L11.003,16.721z"/>
		<path fill="#010101" d="M13.796,35.113c-0.779-0.783-2.045-0.785-2.829-0.006L8.134,37.93c-0.782,0.779-0.785,2.046-0.005,2.828
			c0.391,0.393,0.904,0.589,1.417,0.589c0.51,0,1.021-0.194,1.412-0.583l2.833-2.822C14.573,37.162,14.575,35.896,13.796,35.113z"/>
		<path fill="#010101" d="M41.314,31.396l-3.692-1.538c-1.02-0.426-2.191,0.059-2.615,1.077c-0.425,1.021,0.058,2.191,1.077,2.616
			l3.692,1.538c0.251,0.104,0.512,0.154,0.768,0.154c0.784,0,1.527-0.464,1.847-1.232C42.816,32.991,42.334,31.82,41.314,31.396z"/>
		<path fill="#010101" d="M4.697,20.479l3.693,1.538c0.252,0.104,0.512,0.154,0.768,0.154c0.784,0,1.527-0.464,1.847-1.232
			c0.425-1.02-0.058-2.19-1.077-2.615l-3.693-1.538c-1.021-0.424-2.191,0.058-2.615,1.078C3.195,18.883,3.677,20.054,4.697,20.479z"
			/>
	</g>
</g>
<g id="nyt_x5F_exporter_x5F_info" display="none">
</g>
</svg>
