<?xml version="1.0" encoding="utf-8"?>
<!-- Generator: Adobe Illustrator 17.0.0, SVG Export Plug-In . SVG Version: 6.00 Build 0)  -->
<!DOCTYPE svg PUBLIC "-//W3C//DTD SVG 1.1//EN" "http://www.w3.org/Graphics/SVG/1.1/DTD/svg11.dtd">
<svg version="1.1" xmlns="http://www.w3.org/2000/svg" xmlns:xlink="http://www.w3.org/1999/xlink" x="0px" y="0px" width="48px"
	 height="48px" viewBox="0 0 48 48" enable-background="new 0 0 48 48" xml:space="preserve">
<g id="Layer_3">
	<g>
		<path fill="#010101" d="M17.99,18.5c0.435,0,0.875-0.142,1.242-0.434l1.787-1.419l-0.025,12.848
			c-0.002,1.104,0.892,2.002,1.996,2.004c0.001,0,0.002,0,0.004,0c1.103,0,1.998-0.893,2-1.996l0.025-12.829l1.714,1.382
			c0.861,0.695,2.12,0.558,2.812-0.302c0.693-0.859,0.558-2.118-0.302-2.811l-4.961-4c-0.013-0.01-0.029-0.014-0.042-0.024
			c-0.156-0.12-0.329-0.218-0.517-0.288c-0.033-0.012-0.065-0.02-0.099-0.031c-0.185-0.058-0.378-0.098-0.581-0.1
			c-0.004,0-0.008-0.002-0.011-0.002h-0.001c-0.002,0-0.003,0-0.004,0c-0.204,0-0.398,0.04-0.584,0.097
			c-0.034,0.01-0.068,0.019-0.101,0.031c-0.188,0.069-0.361,0.165-0.518,0.283c-0.013,0.01-0.028,0.012-0.041,0.023l-5.039,4
			c-0.865,0.686-1.01,1.945-0.323,2.81C16.817,18.241,17.4,18.5,17.99,18.5z"/>
		<path fill="#010101" d="M31.068,19.862c-0.93-0.599-2.168-0.324-2.763,0.604c-0.596,0.931-0.325,2.167,0.605,2.763
			c3.187,2.042,5.085,5.516,5.078,9.292c-0.005,2.938-1.155,5.698-3.238,7.771c-2.077,2.068-4.832,3.207-7.762,3.207
			c-0.007,0-0.015,0-0.021,0c-2.939-0.006-5.7-1.155-7.773-3.236c-2.073-2.082-3.211-4.847-3.206-7.785
			c0.007-3.764,1.905-7.223,5.078-9.252c0.93-0.595,1.202-1.832,0.607-2.763c-0.596-0.931-1.831-1.202-2.763-0.606
			c-4.324,2.767-6.912,7.482-6.921,12.613c-0.008,4.007,1.545,7.777,4.372,10.615c2.827,2.839,6.591,4.406,10.599,4.414
			c0.01,0,0.02,0,0.029,0c3.995,0,7.753-1.553,10.585-4.373c2.839-2.827,4.407-6.592,4.415-10.598
			C37.998,27.38,35.411,22.645,31.068,19.862z"/>
	</g>
</g>
<g id="nyt_x5F_exporter_x5F_info" display="none">
</g>
</svg>
