<?xml version="1.0" encoding="utf-8"?>
<!-- Generator: Adobe Illustrator 17.0.0, SVG Export Plug-In . SVG Version: 6.00 Build 0)  -->
<!DOCTYPE svg PUBLIC "-//W3C//DTD SVG 1.1//EN" "http://www.w3.org/Graphics/SVG/1.1/DTD/svg11.dtd">
<svg version="1.1" xmlns="http://www.w3.org/2000/svg" xmlns:xlink="http://www.w3.org/1999/xlink" x="0px" y="0px" width="48px"
	 height="48px" viewBox="0 0 48 48" enable-background="new 0 0 48 48" xml:space="preserve">
<g id="Layer_3">
	<g>
		<path fill="#010101" d="M25.988,35.05c-1.104,0-2,0.896-2,2V44h-20V4H24l-0.012,7.046c-0.002,1.105,0.892,2.002,1.997,2.004
			c0.001,0,0.002,0,0.003,0c1.103,0,1.998-0.894,2-1.996l0.016-9.05c0.001-0.531-0.209-1.041-0.584-1.417
			C27.044,0.211,26.535,0,26.004,0H1.988c-1.105,0-2,0.896-2,2v44c0,1.104,0.895,2,2,2h24c1.104,0,2-0.896,2-2v-8.95
			C27.988,35.945,27.093,35.05,25.988,35.05z"/>
		<path fill="#010101" d="M47.829,24.277c-0.147-0.377-0.401-0.7-0.73-0.926l-9.655-9.693c-0.779-0.782-2.045-0.784-2.829-0.006
			c-0.782,0.779-0.785,2.046-0.005,2.828l6.497,6.522L11.026,23.02c-1.104,0.001-1.999,0.896-1.999,2.001s0.896,1.999,2,1.999h0.001
			l30.224-0.017l-6.675,6.65c-0.782,0.779-0.785,2.046-0.005,2.828c0.391,0.393,0.904,0.589,1.417,0.589
			c0.511,0,1.021-0.194,1.412-0.583l10.019-9.98C48.023,25.904,48.157,25.013,47.829,24.277z"/>
	</g>
</g>
<g id="nyt_x5F_exporter_x5F_info" display="none">
</g>
</svg>
