<?xml version="1.0" encoding="utf-8"?>
<!-- Generator: Adobe Illustrator 17.0.0, SVG Export Plug-In . SVG Version: 6.00 Build 0)  -->
<!DOCTYPE svg PUBLIC "-//W3C//DTD SVG 1.1//EN" "http://www.w3.org/Graphics/SVG/1.1/DTD/svg11.dtd">
<svg version="1.1" xmlns="http://www.w3.org/2000/svg" xmlns:xlink="http://www.w3.org/1999/xlink" x="0px" y="0px" width="48px"
	 height="48px" viewBox="0 0 48 48" enable-background="new 0 0 48 48" xml:space="preserve">
<g id="Layer_3">
	<g>
		<path fill="#010101" d="M27.142,13.87c-1.039-0.366-2.184,0.178-2.552,1.22c-0.368,1.041,0.178,2.184,1.22,2.552l7.121,2.516
			c0.036,0.013,0.074,0.018,0.11,0.029c0.035,0.01,0.069,0.019,0.104,0.027c0.151,0.035,0.302,0.059,0.452,0.059
			c0.011,0,0.021-0.005,0.031-0.005c0.177-0.002,0.353-0.03,0.527-0.081c0.067-0.02,0.128-0.054,0.193-0.081
			c0.087-0.036,0.176-0.06,0.26-0.109c0.028-0.016,0.05-0.038,0.076-0.056c0.038-0.025,0.072-0.052,0.109-0.079
			c0.131-0.099,0.25-0.208,0.35-0.331c0.013-0.016,0.029-0.029,0.041-0.045c0.114-0.149,0.199-0.314,0.267-0.486
			c0.007-0.019,0.022-0.033,0.029-0.052l2.628-7.316c0.373-1.039-0.167-2.184-1.206-2.558c-1.041-0.38-2.186,0.166-2.559,1.206
			l-1.181,3.289L25.788,0.981c-0.358-0.611-1.013-0.988-1.722-0.989c-0.001,0-0.002,0-0.004,0c-0.707,0-1.362,0.374-1.722,0.982
			l-9.597,16.242c-0.562,0.951-0.247,2.178,0.704,2.739c0.952,0.562,2.178,0.249,2.739-0.704l7.867-13.316l5.053,8.628L27.142,13.87
			z"/>
		<path fill="#010101" d="M47.697,38.961l-9.988-16.418c-0.573-0.942-1.803-1.242-2.748-0.67c-0.943,0.574-1.243,1.805-0.669,2.748
			L42.431,38H31.61l2.089-2.038c0.791-0.771,0.807-2.037,0.035-2.828c-0.772-0.791-2.039-0.808-2.828-0.035l-5.872,5.728
			c-0.385,0.375-0.602,0.89-0.604,1.428c-0.001,0.538,0.214,1.054,0.598,1.431l5.85,5.75c0.389,0.383,0.896,0.573,1.402,0.573
			c0.518,0,1.035-0.2,1.426-0.598c0.774-0.788,0.764-2.055-0.024-2.829L31.056,42h14.932c0.723,0,1.389-0.39,1.744-1.02
			C48.086,40.35,48.073,39.578,47.697,38.961z"/>
		<path fill="#010101" d="M19.988,38H5.359l5.476-10.027l0.501,2.28c0.205,0.934,1.033,1.571,1.951,1.57
			c0.142,0,0.287-0.015,0.432-0.047c1.079-0.237,1.761-1.304,1.524-2.383l-1.624-7.385c-0.236-1.073-1.289-1.756-2.366-1.527
			l-7.543,1.59C2.63,22.299,1.939,23.36,2.166,24.44c0.229,1.081,1.289,1.77,2.37,1.545l3.195-0.673L0.233,39.041
			c-0.338,0.62-0.325,1.372,0.035,1.979C0.628,41.628,1.282,42,1.988,42h18c1.104,0,2-0.896,2-2S21.093,38,19.988,38z"/>
	</g>
</g>
<g id="nyt_x5F_exporter_x5F_info" display="none">
</g>
</svg>
