<?xml version="1.0" encoding="utf-8"?>
<!-- Generator: Adobe Illustrator 17.1.0, SVG Export Plug-In . SVG Version: 6.00 Build 0)  -->
<!DOCTYPE svg PUBLIC "-//W3C//DTD SVG 1.0//EN" "http://www.w3.org/TR/2001/REC-SVG-20010904/DTD/svg10.dtd">
<svg version="1.0" id="Layer_1" xmlns="http://www.w3.org/2000/svg" xmlns:xlink="http://www.w3.org/1999/xlink" x="0px" y="0px"
	 width="48px" height="48px" viewBox="0 0 48 48" enable-background="new 0 0 48 48" xml:space="preserve">
<path d="M46.729,1.336c-0.187-0.188-0.442-0.294-0.707-0.294L1.98,1C1.979,1,1.979,1,1.979,1C1.714,1,1.46,1.105,1.272,1.293
	C1.084,1.48,0.979,1.734,0.979,2v44c0,0.553,0.448,1,1,1h44c0.552,0,0.999-0.447,1-0.999l0.042-43.958
	C47.022,1.777,46.916,1.523,46.729,1.336z M35.979,25.023L35.979,25.023L11.978,25c-0.552-0.001-1-0.448-0.999-1.001
	c0-0.552,0.448-0.999,1-0.999c0,0,0,0,0.001,0l24,0.023c0.552,0.001,0.999,0.448,0.999,1.001
	C36.978,24.576,36.531,25.023,35.979,25.023z"/>
</svg>
