<?xml version="1.0" encoding="utf-8"?>
<!-- Generator: Adobe Illustrator 17.0.0, SVG Export Plug-In . SVG Version: 6.00 Build 0)  -->
<!DOCTYPE svg PUBLIC "-//W3C//DTD SVG 1.1//EN" "http://www.w3.org/Graphics/SVG/1.1/DTD/svg11.dtd">
<svg version="1.1" xmlns="http://www.w3.org/2000/svg" xmlns:xlink="http://www.w3.org/1999/xlink" x="0px" y="0px" width="48px"
	 height="48px" viewBox="0 0 48 48" enable-background="new 0 0 48 48" xml:space="preserve">
<g id="Layer_3">
	<path fill="#010101" d="M47.729,15.922c-0.188-0.188-0.442-0.294-0.707-0.294L1.008,15.584c0,0,0,0,0,0
		c-0.266,0-0.52,0.106-0.707,0.293c-0.188,0.188-0.293,0.441-0.293,0.707v14c0,0.552,0.447,0.999,0.999,1l45.987,0.044
		c0,0,0,0,0.001,0c0.551,0,0.999-0.446,1-0.998l0.027-14C48.021,16.364,47.916,16.109,47.729,15.922z"/>
</g>
<g id="nyt_x5F_exporter_x5F_info" display="none">
</g>
</svg>
