<?xml version="1.0" encoding="utf-8"?>
<!-- Generator: Adobe Illustrator 17.0.0, SVG Export Plug-In . SVG Version: 6.00 Build 0)  -->
<!DOCTYPE svg PUBLIC "-//W3C//DTD SVG 1.1//EN" "http://www.w3.org/Graphics/SVG/1.1/DTD/svg11.dtd">
<svg version="1.1" xmlns="http://www.w3.org/2000/svg" xmlns:xlink="http://www.w3.org/1999/xlink" x="0px" y="0px" width="48px"
	 height="48px" viewBox="0 0 48 48" enable-background="new 0 0 48 48" xml:space="preserve">
<g id="Layer_3">
	<path fill="#010101" d="M23.006,1C10.349,1,0.031,11.298,0.007,23.956C-0.005,30.1,2.376,35.88,6.711,40.232
		c4.335,4.353,10.107,6.756,16.251,6.768c0,0,0.044,0,0.045,0c12.657,0,22.975-10.298,22.999-22.956
		C46.031,11.362,35.733,1.024,23.006,1z M23.008,46L23.008,46L23.008,46L23.008,46z M35.007,25.023L35.007,25.023L11.006,25
		c-0.552-0.001-1-0.448-0.999-1.001c0-0.552,0.448-0.999,1-0.999c0,0,0,0,0.001,0l24,0.023c0.552,0.001,1,0.448,0.999,1.001
		C36.006,24.576,35.559,25.023,35.007,25.023z"/>
</g>
<g id="nyt_x5F_exporter_x5F_info" display="none">
</g>
</svg>
