<?xml version="1.0" encoding="utf-8"?>
<!-- Generator: Adobe Illustrator 17.0.0, SVG Export Plug-In . SVG Version: 6.00 Build 0)  -->
<!DOCTYPE svg PUBLIC "-//W3C//DTD SVG 1.1//EN" "http://www.w3.org/Graphics/SVG/1.1/DTD/svg11.dtd">
<svg version="1.1" xmlns="http://www.w3.org/2000/svg" xmlns:xlink="http://www.w3.org/1999/xlink" x="0px" y="0px" width="48px"
	 height="48px" viewBox="0 0 48 48" enable-background="new 0 0 48 48" xml:space="preserve">
<g id="Layer_3">
	<path fill="#010101" d="M45.665,22.404L32.664,10.837c-0.183-0.163-0.42-0.253-0.665-0.253h-31c-0.552,0-1,0.447-1,1v24
		c0,0.553,0.448,1,1,1h31c0.257,0,0.505-0.1,0.691-0.277l13.001-12.433c0.202-0.193,0.314-0.462,0.309-0.74
		C45.995,22.855,45.874,22.59,45.665,22.404z M22.001,24.042h-0.002l-14-0.026C7.446,24.015,7,23.566,7.001,23.014
		c0.001-0.552,0.449-0.998,1-0.998c0,0,0.001,0,0.002,0l14,0.026c0.552,0.001,0.999,0.449,0.998,1.002
		C23,23.596,22.552,24.042,22.001,24.042z"/>
</g>
<g id="nyt_x5F_exporter_x5F_info" display="none">
</g>
</svg>
