<?xml version="1.0" encoding="utf-8"?>
<!-- Generator: Adobe Illustrator 17.0.0, SVG Export Plug-In . SVG Version: 6.00 Build 0)  -->
<!DOCTYPE svg PUBLIC "-//W3C//DTD SVG 1.1//EN" "http://www.w3.org/Graphics/SVG/1.1/DTD/svg11.dtd">
<svg version="1.1" xmlns="http://www.w3.org/2000/svg" xmlns:xlink="http://www.w3.org/1999/xlink" x="0px" y="0px" width="48px"
	 height="48px" viewBox="0 0 48 48" enable-background="new 0 0 48 48" xml:space="preserve">
<g id="Layer_3">
	<path fill="#010101" d="M26.53,37.19l-2.551,2.541l0.034-32.322l2.576,2.586c0.391,0.393,0.904,0.589,1.417,0.589
		c0.511,0,1.021-0.194,1.412-0.583c0.782-0.779,0.785-2.046,0.005-2.828l-5.988-6.012h0C23.342,1.068,23.24,0.984,23.13,0.91
		c-0.043-0.029-0.09-0.048-0.134-0.073c-0.069-0.039-0.137-0.081-0.211-0.112c-0.054-0.022-0.111-0.034-0.166-0.051
		c-0.069-0.022-0.136-0.048-0.208-0.062c-0.09-0.018-0.182-0.022-0.273-0.028c-0.039-0.002-0.077-0.012-0.117-0.012
		c0,0-0.001,0-0.001,0c-0.057,0-0.11,0.012-0.165,0.017c-0.074,0.006-0.148,0.008-0.221,0.022c-0.077,0.015-0.149,0.042-0.222,0.065
		c-0.051,0.016-0.102,0.027-0.152,0.047c-0.075,0.031-0.144,0.073-0.215,0.112c-0.044,0.024-0.09,0.043-0.132,0.071
		c-0.09,0.06-0.172,0.131-0.251,0.204c-0.017,0.016-0.037,0.027-0.054,0.044l-6.012,5.988c-0.782,0.779-0.785,2.046-0.005,2.828
		c0.78,0.784,2.046,0.786,2.829,0.006l2.595-2.585l-0.034,32.411l-2.621-2.631c-0.779-0.782-2.045-0.784-2.829-0.006
		c-0.782,0.779-0.785,2.046-0.005,2.828l5.988,6.012c0.391,0.392,0.904,0.589,1.417,0.589c0.007,0,0.014-0.002,0.022-0.002
		c0.007,0,0.014,0.002,0.021,0.002c0,0,0.001,0,0.001,0c0.668,0,1.255-0.33,1.618-0.833l5.761-5.739
		c0.782-0.779,0.785-2.046,0.005-2.828C28.58,36.414,27.313,36.412,26.53,37.19z"/>
</g>
<g id="nyt_x5F_exporter_x5F_info" display="none">
</g>
</svg>
