<?xml version="1.0" encoding="utf-8"?>
<!-- Generator: Adobe Illustrator 17.0.0, SVG Export Plug-In . SVG Version: 6.00 Build 0)  -->
<!DOCTYPE svg PUBLIC "-//W3C//DTD SVG 1.1//EN" "http://www.w3.org/Graphics/SVG/1.1/DTD/svg11.dtd">
<svg version="1.1" xmlns="http://www.w3.org/2000/svg" xmlns:xlink="http://www.w3.org/1999/xlink" x="0px" y="0px" width="48px"
	 height="48px" viewBox="0 0 48 48" enable-background="new 0 0 48 48" xml:space="preserve">
<g id="Layer_3">
	<path fill="#010101" d="M47.021,25.603c-0.003-0.113-0.012-0.226-0.034-0.337c-0.012-0.062-0.035-0.119-0.053-0.179
		c-0.019-0.065-0.034-0.131-0.06-0.194c-0.028-0.068-0.067-0.131-0.102-0.195c-0.027-0.05-0.049-0.102-0.081-0.15
		c-0.071-0.107-0.153-0.208-0.243-0.299c-0.002-0.002-0.003-0.004-0.005-0.006l0,0c-0.001-0.001-0.002-0.002-0.002-0.003
		l-9.978-10.017c-0.779-0.782-2.045-0.784-2.828-0.006c-0.782,0.779-0.785,2.046-0.006,2.828l6.577,6.603L7.779,23.614l6.639-6.613
		c0.782-0.779,0.785-2.046,0.005-2.828c-0.779-0.782-2.045-0.784-2.829-0.006l-10.02,9.981C1.2,24.522,0.988,25.03,0.987,25.561
		c0,0,0.002,0.016,0.002,0.024c0,0.008-0.002,0.015-0.002,0.015c-0.001,0.679,0.332,1.27,0.839,1.633l9.725,9.762
		c0.391,0.393,0.904,0.589,1.417,0.589c0.511,0,1.021-0.194,1.412-0.583c0.782-0.779,0.785-2.046,0.005-2.828l-6.533-6.558
		l32.337,0.034l-6.594,6.569c-0.782,0.779-0.785,2.046-0.005,2.828c0.39,0.393,0.904,0.589,1.417,0.589
		c0.511,0,1.021-0.194,1.411-0.583l10.019-9.98l0.002-0.002c0.092-0.092,0.175-0.194,0.248-0.303c0.035-0.053,0.06-0.11,0.09-0.165
		c0.032-0.059,0.069-0.117,0.095-0.18c0.027-0.066,0.043-0.135,0.063-0.202c0.017-0.057,0.039-0.112,0.051-0.171
		c0.026-0.129,0.039-0.26,0.04-0.39l0-0.002C47.026,25.637,47.021,25.621,47.021,25.603z"/>
</g>
<g id="nyt_x5F_exporter_x5F_info" display="none">
</g>
</svg>
