<?xml version="1.0" encoding="utf-8"?>
<!-- Generator: Adobe Illustrator 17.0.0, SVG Export Plug-In . SVG Version: 6.00 Build 0)  -->
<!DOCTYPE svg PUBLIC "-//W3C//DTD SVG 1.1//EN" "http://www.w3.org/Graphics/SVG/1.1/DTD/svg11.dtd">
<svg version="1.1" xmlns="http://www.w3.org/2000/svg" xmlns:xlink="http://www.w3.org/1999/xlink" x="0px" y="0px" width="48px"
	 height="48px" viewBox="0 0 48 48" enable-background="new 0 0 48 48" xml:space="preserve">
<g id="Layer_3">
	<path fill="#010101" d="M41.485,6.219c-0.391-0.392-0.904-0.588-1.417-0.588c-0.004,0-0.007-0.001-0.011-0.001l-7.985-0.015
		c-0.001,0-0.003,0-0.004,0c-1.103,0-1.998,0.892-2,1.996c-0.002,1.104,0.892,2.002,1.996,2.004l3.171,0.006L10.016,34.743
		l0.006-3.171c0.002-1.105-0.892-2.002-1.996-2.004c-0.001,0-0.002,0-0.004,0c-1.103,0-1.998,0.893-2,1.996l-0.016,8
		c0,0.009,0.003,0.017,0.003,0.026c0.001,0.122,0.013,0.244,0.036,0.365c0.012,0.061,0.034,0.117,0.052,0.175
		c0.02,0.066,0.035,0.134,0.061,0.199c0.028,0.068,0.066,0.129,0.101,0.193c0.028,0.051,0.049,0.103,0.082,0.151
		c0.146,0.22,0.335,0.409,0.554,0.556c0.047,0.032,0.098,0.053,0.147,0.08c0.065,0.036,0.128,0.075,0.197,0.104
		c0.064,0.026,0.13,0.042,0.196,0.061c0.059,0.018,0.116,0.041,0.178,0.053c0.11,0.022,0.221,0.031,0.333,0.034
		c0.019,0,0.037,0.006,0.057,0.006l8,0.016c0.001,0,0.002,0,0.004,0c1.103,0,1.998-0.893,2-1.996
		c0.002-1.104-0.892-2.002-1.996-2.004l-3.172-0.006L38.044,12.47l-0.006,3.156c-0.002,1.105,0.892,2.002,1.996,2.004
		c0.001,0,0.002,0,0.004,0c1.103,0,1.998-0.893,2-1.996l0.015-7.843C42.098,7.228,41.915,6.65,41.485,6.219z"/>
</g>
<g id="nyt_x5F_exporter_x5F_info" display="none">
</g>
</svg>
