<?xml version="1.0" encoding="utf-8"?>
<!-- Generator: Adobe Illustrator 17.0.0, SVG Export Plug-In . SVG Version: 6.00 Build 0)  -->
<!DOCTYPE svg PUBLIC "-//W3C//DTD SVG 1.1//EN" "http://www.w3.org/Graphics/SVG/1.1/DTD/svg11.dtd">
<svg version="1.1" xmlns="http://www.w3.org/2000/svg" xmlns:xlink="http://www.w3.org/1999/xlink" x="0px" y="0px" width="48px"
	 height="48px" viewBox="0 0 48 48" enable-background="new 0 0 48 48" xml:space="preserve">
<g id="Layer_3">
	<path fill="#010101" d="M47.019,21.598c0-0.022-0.006-0.042-0.006-0.064c-0.003-0.112-0.011-0.223-0.033-0.331
		c-0.015-0.076-0.043-0.148-0.066-0.22c-0.016-0.051-0.027-0.104-0.048-0.154c-0.032-0.078-0.076-0.149-0.118-0.221
		c-0.023-0.04-0.04-0.083-0.066-0.122c-0.07-0.104-0.15-0.201-0.237-0.29c-0.003-0.003-0.005-0.007-0.008-0.01l0,0
		c0,0-0.002-0.002-0.002-0.003l-5.986-6.009c-0.779-0.782-2.046-0.784-2.829-0.006c-0.782,0.779-0.785,2.046-0.005,2.828
		l2.586,2.595L7.787,19.557l2.631-2.621c0.782-0.779,0.785-2.046,0.005-2.828c-0.779-0.783-2.045-0.785-2.829-0.006L1.584,20.09
		c-0.376,0.374-0.587,0.883-0.588,1.413c0,0.008,0.002,0.016,0.002,0.024c0,0.008-0.002,0.015-0.002,0.023
		c-0.001,0.671,0.332,1.262,0.839,1.625l5.733,5.754c0.391,0.393,0.904,0.589,1.417,0.589c0.511,0,1.021-0.194,1.412-0.583
		c0.782-0.779,0.785-2.046,0.005-2.828l-2.541-2.55l32.321,0.034l-2.586,2.576c-0.782,0.779-0.785,2.046-0.005,2.828
		c0.391,0.393,0.904,0.589,1.417,0.589c0.511,0,1.021-0.194,1.412-0.583l6.012-5.988c0.001-0.001,0.001-0.001,0.002-0.002
		c0.091-0.091,0.174-0.192,0.246-0.299c0.022-0.033,0.037-0.071,0.057-0.105c0.046-0.078,0.093-0.155,0.128-0.238
		c0.017-0.04,0.025-0.084,0.039-0.125c0.028-0.081,0.059-0.162,0.076-0.248c0.026-0.129,0.04-0.261,0.04-0.394V21.598L47.019,21.598
		z"/>
</g>
<g id="nyt_x5F_exporter_x5F_info" display="none">
</g>
</svg>
