<?xml version="1.0" encoding="utf-8"?>
<!-- Generator: Adobe Illustrator 17.0.0, SVG Export Plug-In . SVG Version: 6.00 Build 0)  -->
<!DOCTYPE svg PUBLIC "-//W3C//DTD SVG 1.1//EN" "http://www.w3.org/Graphics/SVG/1.1/DTD/svg11.dtd">
<svg version="1.1" xmlns="http://www.w3.org/2000/svg" xmlns:xlink="http://www.w3.org/1999/xlink" x="0px" y="0px" width="48px"
	 height="48px" viewBox="0 0 48 48" enable-background="new 0 0 48 48" xml:space="preserve">
<g id="Layer_3">
	<path fill="#010101" d="M31.563,33.205l-6.536,6.512l0.015-32.313l6.566,6.591c0.391,0.393,0.904,0.589,1.417,0.589
		c0.511,0,1.021-0.194,1.412-0.583c0.782-0.779,0.785-2.046,0.005-2.828l-9.981-10.02c0,0-0.001-0.001-0.001-0.001
		c-0.092-0.092-0.193-0.175-0.301-0.248c-0.028-0.019-0.06-0.031-0.09-0.049c-0.082-0.05-0.164-0.099-0.253-0.136
		c-0.044-0.018-0.091-0.027-0.136-0.042c-0.078-0.027-0.155-0.056-0.238-0.073c-0.129-0.026-0.261-0.04-0.395-0.04
		c-0.001,0-0.002,0-0.003,0c0,0,0,0-0.001,0c-0.133,0-0.266,0.014-0.395,0.04c-0.085,0.017-0.165,0.047-0.246,0.074
		c-0.042,0.014-0.086,0.022-0.127,0.04c-0.085,0.035-0.163,0.082-0.242,0.129c-0.033,0.02-0.069,0.034-0.102,0.055
		c-0.086,0.057-0.163,0.125-0.239,0.195c-0.02,0.018-0.043,0.032-0.062,0.051l-10.019,9.981c-0.782,0.779-0.785,2.046-0.005,2.828
		c0.781,0.784,2.047,0.786,2.829,0.006l6.606-6.581l-0.015,32.452l-6.635-6.661c-0.779-0.782-2.045-0.784-2.829-0.006
		c-0.782,0.779-0.785,2.046-0.005,2.828l9.98,10.02c0.375,0.376,0.883,0.588,1.413,0.589c0.001,0,0.002,0,0.004,0
		c0.012,0,0.023-0.003,0.035-0.003c0.011,0,0.022,0.003,0.034,0.003c0,0,0,0,0.001,0c0.705,0,1.321-0.366,1.678-0.917l9.684-9.647
		c0.782-0.779,0.785-2.046,0.005-2.828C33.612,32.429,32.346,32.427,31.563,33.205z"/>
</g>
<g id="nyt_x5F_exporter_x5F_info" display="none">
</g>
</svg>
