<?xml version="1.0" encoding="utf-8"?>
<!-- Generator: Adobe Illustrator 17.0.0, SVG Export Plug-In . SVG Version: 6.00 Build 0)  -->
<!DOCTYPE svg PUBLIC "-//W3C//DTD SVG 1.1//EN" "http://www.w3.org/Graphics/SVG/1.1/DTD/svg11.dtd">
<svg version="1.1" xmlns="http://www.w3.org/2000/svg" xmlns:xlink="http://www.w3.org/1999/xlink" x="0px" y="0px" width="48px"
	 height="48px" viewBox="0 0 48 48" enable-background="new 0 0 48 48" xml:space="preserve">
<g id="Layer_3">
	<g>
		<path fill="#010101" d="M40.992,7.062C36.467,2.52,30.445,0.013,23.987,0C10.78,0,0.014,10.746-0.012,23.954
			c-0.012,6.411,2.472,12.442,6.997,16.984c4.524,4.541,10.546,7.049,16.957,7.062c0.001,0,0.046,0,0.047,0
			c13.208,0,23.974-10.746,23.999-23.954C48,17.635,45.516,11.604,40.992,7.062z M23.989,44v2l-0.04-2
			c-5.342-0.011-10.361-2.101-14.131-5.885c-3.77-3.785-5.84-8.812-5.83-14.153C4.009,12.955,12.981,4,24.027,4
			c11.028,0.022,19.983,9.011,19.961,20.038C43.967,35.045,34.996,44,23.989,44z"/>
		<path fill="#010101" d="M39.257,19.793L30.499,9.69c-0.546-0.632-1.428-0.856-2.21-0.564c-0.782,0.292-1.301,1.039-1.301,1.874v3
			h-9.016c-6.311,0-9.728,5.992-9.739,11.63c-0.009,4.737,3.102,8.427,3.234,8.582c0.388,0.452,0.947,0.699,1.52,0.699
			c0.234,0,0.471-0.041,0.699-0.126c0.787-0.294,1.306-1.048,1.3-1.888c0-0.004-0.014-1.985-0.009-4.504
			c0-0.114,0.002-0.208,0.005-0.284C15.289,28.057,15.874,28,16.987,28h0.001h10v3c0,0.831,0.514,1.576,1.292,1.87
			c0.779,0.295,1.656,0.077,2.206-0.545l8.757-9.897C39.908,21.677,39.914,20.55,39.257,19.793z M30.972,25.74
			C30.844,24.759,30.005,24,28.988,24H16.923c-1.829,0-3.549,0.114-4.664,1.02c0.184-2.414,1.422-7.02,5.729-7.02h11
			c0.992,0,1.816-0.723,1.973-1.671l4.125,4.76L30.972,25.74z"/>
	</g>
</g>
<g id="nyt_x5F_exporter_x5F_info" display="none">
</g>
</svg>
