<?xml version="1.0" encoding="utf-8"?>
<!-- Generator: Adobe Illustrator 17.0.0, SVG Export Plug-In . SVG Version: 6.00 Build 0)  -->
<!DOCTYPE svg PUBLIC "-//W3C//DTD SVG 1.1//EN" "http://www.w3.org/Graphics/SVG/1.1/DTD/svg11.dtd">
<svg version="1.1" xmlns="http://www.w3.org/2000/svg" xmlns:xlink="http://www.w3.org/1999/xlink" x="0px" y="0px" width="48px"
	 height="48px" viewBox="0 0 48 48" enable-background="new 0 0 48 48" xml:space="preserve">
<g id="Layer_3">
	<g>
		<path fill="#010101" d="M40.992,7.062C36.467,2.52,30.445,0.013,23.987,0C10.78,0,0.014,10.746-0.012,23.954
			c-0.012,6.411,2.472,12.442,6.997,16.984c4.524,4.541,10.546,7.049,16.957,7.062c0.002,0,0.046,0,0.047,0
			c13.207,0,23.974-10.746,23.999-23.954C48,17.635,45.516,11.604,40.992,7.062z M23.989,44v2l-0.04-2
			c-5.342-0.011-10.361-2.101-14.131-5.885c-3.77-3.785-5.84-8.812-5.83-14.153C4.009,12.955,12.981,4,24.027,4
			c11.028,0.022,19.983,9.011,19.961,20.038C43.967,35.045,34.996,44,23.989,44z"/>
		<path fill="#010101" d="M37.953,21.636c-0.013-0.063-0.036-0.122-0.054-0.183c-0.019-0.064-0.033-0.129-0.059-0.191
			c-0.029-0.071-0.069-0.136-0.106-0.203c-0.026-0.047-0.046-0.096-0.076-0.141c-0.074-0.111-0.159-0.216-0.253-0.31l-5.984-6.008
			c-0.779-0.782-2.045-0.784-2.829-0.006c-0.782,0.779-0.785,2.046-0.005,2.828l2.584,2.595L16.992,20c-0.006,0-0.013,0-0.019,0
			c-2.882,0-4.48,1.263-5.312,2.323c-0.956,1.219-1.463,2.883-1.467,4.812c-0.006,3.084,1.627,8.841,4.771,8.847
			c0.001,0,0.002,0,0.004,0c1.103,0,1.998-0.893,2-1.996c0.002-0.887-0.574-1.64-1.372-1.903c-0.729-0.896-1.975-4.467-1.127-6.676
			C14.736,24.711,15.243,24,16.974,24c0.004,0,0.008,0,0.012,0l14.17,0.018l-2.587,2.577c-0.782,0.779-0.785,2.046-0.005,2.828
			c0.391,0.392,0.904,0.589,1.417,0.589c0.511,0,1.021-0.194,1.412-0.583l6.012-5.988l0.001-0.001
			c0.093-0.093,0.176-0.195,0.249-0.304c0.032-0.048,0.054-0.101,0.082-0.151c0.035-0.063,0.074-0.125,0.102-0.193
			c0.026-0.063,0.041-0.13,0.061-0.195c0.018-0.06,0.041-0.117,0.053-0.179c0.026-0.128,0.039-0.258,0.04-0.388l0-0.003
			c0-0.014-0.004-0.027-0.004-0.041C37.986,21.868,37.976,21.751,37.953,21.636z"/>
	</g>
</g>
<g id="nyt_x5F_exporter_x5F_info" display="none">
</g>
</svg>
