<?xml version="1.0" encoding="utf-8"?>
<!-- Generator: Adobe Illustrator 17.0.0, SVG Export Plug-In . SVG Version: 6.00 Build 0)  -->
<!DOCTYPE svg PUBLIC "-//W3C//DTD SVG 1.1//EN" "http://www.w3.org/Graphics/SVG/1.1/DTD/svg11.dtd">
<svg version="1.1" xmlns="http://www.w3.org/2000/svg" xmlns:xlink="http://www.w3.org/1999/xlink" x="0px" y="0px" width="48px"
	 height="48px" viewBox="0 0 48 48" enable-background="new 0 0 48 48" xml:space="preserve">
<g id="Layer_3">
	<g>
		<path fill="#010101" d="M29.755,12.906c-0.946-0.572-2.175-0.269-2.746,0.678c-0.572,0.945-0.268,2.175,0.677,2.746
			c3.339,2.018,5.329,5.548,5.321,9.443c-0.005,2.937-1.155,5.698-3.238,7.772c-2.077,2.068-4.831,3.206-7.76,3.206
			c-0.007,0-0.016,0-0.023,0c-6.065-0.012-10.991-4.955-10.979-11.02c0.008-3.87,1.99-7.381,5.303-9.391
			c0.944-0.573,1.245-1.803,0.672-2.747c-0.573-0.942-1.803-1.245-2.748-0.673c-4.515,2.74-7.217,7.525-7.227,12.803
			C6.999,29.731,8.552,33.5,11.38,36.339c2.828,2.838,6.592,4.405,10.598,4.413c0.01,0,0.021,0,0.031,0
			c3.994,0,7.751-1.552,10.583-4.372c2.839-2.828,4.407-6.593,4.415-10.599C37.017,20.55,34.238,15.616,29.755,12.906z"/>
		<path fill="#010101" d="M22.009,24.752c0.001,0,0.002,0,0.004,0c1.103,0,1.998-0.893,2-1.996l0.025-13
			c0.002-1.104-0.892-2.002-1.996-2.004c-1.093,0.037-2.002,0.891-2.004,1.996l-0.025,13C20.011,23.853,20.904,24.75,22.009,24.752z
			"/>
	</g>
</g>
<g id="nyt_x5F_exporter_x5F_info" display="none">
</g>
</svg>
