<?xml version="1.0" encoding="utf-8"?>
<!-- Generator: Adobe Illustrator 17.0.0, SVG Export Plug-In . SVG Version: 6.00 Build 0)  -->
<!DOCTYPE svg PUBLIC "-//W3C//DTD SVG 1.1//EN" "http://www.w3.org/Graphics/SVG/1.1/DTD/svg11.dtd">
<svg version="1.1" xmlns="http://www.w3.org/2000/svg" xmlns:xlink="http://www.w3.org/1999/xlink" x="0px" y="0px" width="48px"
	 height="48px" viewBox="0 0 48 48" enable-background="new 0 0 48 48" xml:space="preserve">
<g id="Layer_3">
	<g>
		<path fill="#010101" d="M23.987,0C10.78,0,0.014,10.746-0.012,23.954c-0.012,6.411,2.472,12.442,6.995,16.984
			C11.507,45.479,17.53,47.987,23.942,48c0.001,0,0.046,0,0.047,0c13.207,0,23.974-10.746,23.999-23.954
			C48.014,10.812,37.268,0.025,23.987,0z M23.989,44v2l-0.04-2c-5.344-0.011-10.362-2.101-14.132-5.885
			c-3.769-3.784-5.839-8.81-5.829-14.153C4.009,12.955,12.981,4,24.027,4c11.028,0.022,19.983,9.011,19.961,20.038
			C43.967,35.045,34.996,44,23.989,44z"/>
		<path fill="#010101" d="M27.993,11.999l-8.033-0.01c-0.001,0-0.001,0-0.002,0c-0.53,0-1.04,0.211-1.415,0.586
			c-0.375,0.376-0.586,0.886-0.585,1.417l0.031,20.011c0.002,1.103,0.896,1.996,1.998,1.997l8,0.006h0.002
			c0.53,0,1.039-0.211,1.414-0.585c0.375-0.375,0.586-0.884,0.586-1.415l0.002-20.007C29.99,12.896,29.096,12,27.993,11.999z
			 M25.988,32.004l-4.003-0.003l-0.025-16.01l4.03,0.006L25.988,32.004z"/>
	</g>
</g>
<g id="nyt_x5F_exporter_x5F_info" display="none">
</g>
</svg>
