<?xml version="1.0" encoding="utf-8"?>
<!-- Generator: Adobe Illustrator 17.0.0, SVG Export Plug-In . SVG Version: 6.00 Build 0)  -->
<!DOCTYPE svg PUBLIC "-//W3C//DTD SVG 1.1//EN" "http://www.w3.org/Graphics/SVG/1.1/DTD/svg11.dtd">
<svg version="1.1" xmlns="http://www.w3.org/2000/svg" xmlns:xlink="http://www.w3.org/1999/xlink" x="0px" y="0px" width="48px"
	 height="48px" viewBox="0 0 48 48" enable-background="new 0 0 48 48" xml:space="preserve">
<g id="Layer_3">
	<path fill="#010101" d="M41.304,9.385c-4.102-3.826-9.444-5.838-15.055-5.631c-5.736,0.201-10.982,2.639-14.772,6.865
		c-2.707,3.019-4.47,6.778-5.188,10.929l-2.629-3.96c-0.61-0.92-1.852-1.172-2.773-0.56c-0.92,0.61-1.171,1.852-0.56,2.772
		l5.983,9.012c0.022,0.034,0.053,0.06,0.077,0.092c0.029,0.039,0.061,0.074,0.093,0.11c0.058,0.067,0.116,0.133,0.182,0.191
		c0.037,0.033,0.08,0.059,0.12,0.089c0.117,0.088,0.241,0.162,0.374,0.222c0.065,0.03,0.127,0.063,0.196,0.085
		c0.063,0.021,0.129,0.03,0.194,0.045c0.077,0.017,0.153,0.035,0.233,0.043c0.021,0.002,0.041,0.01,0.062,0.011
		c0.045,0.003,0.09,0.005,0.135,0.005c0.026,0,0.051-0.007,0.077-0.008c0.028-0.001,0.054,0.004,0.081,0.002
		c0.056-0.004,0.107-0.02,0.161-0.028c0.05-0.008,0.1-0.014,0.149-0.026c0.106-0.025,0.206-0.06,0.304-0.1
		c0.022-0.009,0.045-0.016,0.067-0.026c0.289-0.132,0.538-0.328,0.732-0.571l6.946-7.908c0.729-0.83,0.647-2.094-0.183-2.823
		c-0.83-0.728-2.094-0.646-2.822,0.183l-3.215,3.66c0.611-3.346,2.02-6.361,4.18-8.77c3.057-3.409,7.294-5.376,11.933-5.538
		c4.543-0.15,8.867,1.461,12.187,4.559c3.322,3.097,5.238,7.302,5.395,11.84c0.16,4.538-1.457,8.865-4.555,12.186
		c-3.097,3.32-7.303,5.236-11.842,5.395c-1.104,0.039-1.967,0.965-1.929,2.068c0.038,1.08,0.925,1.931,1.998,1.931
		c0.024,0,0.047,0,0.071-0.001c5.606-0.195,10.801-2.563,14.627-6.664c3.827-4.104,5.825-9.45,5.627-15.055
		C47.774,18.405,45.407,13.211,41.304,9.385z"/>
</g>
<g id="nyt_x5F_exporter_x5F_info" display="none">
</g>
</svg>
