<?xml version="1.0" encoding="utf-8"?>
<!-- Generator: Adobe Illustrator 17.0.0, SVG Export Plug-In . SVG Version: 6.00 Build 0)  -->
<!DOCTYPE svg PUBLIC "-//W3C//DTD SVG 1.1//EN" "http://www.w3.org/Graphics/SVG/1.1/DTD/svg11.dtd">
<svg version="1.1" xmlns="http://www.w3.org/2000/svg" xmlns:xlink="http://www.w3.org/1999/xlink" x="0px" y="0px" width="48px"
	 height="48px" viewBox="0 0 48 48" enable-background="new 0 0 48 48" xml:space="preserve">
<g id="Layer_3">
	<path fill="#010101" d="M34.923,15.481c-0.006,0-0.011,0-0.017,0c-5.634,0-9.177,5.543-12.603,10.904
		c-2.846,4.453-5.788,9.058-9.234,9.058c-0.002,0-0.005,0-0.007,0c-2.138-0.004-4.146-0.841-5.654-2.354
		c-1.508-1.515-2.337-3.525-2.332-5.662c0.004-2.129,0.848-4.136,2.377-5.651c1.52-1.507,3.517-2.336,5.625-2.336
		c0.005,0,0.011,0,0.016,0c1.008,0.002,1.975,0.323,2.895,0.937l-2.969,0.821c-1.065,0.294-1.69,1.396-1.395,2.461
		c0.245,0.886,1.05,1.468,1.927,1.468c0.176,0,0.356-0.024,0.534-0.073l6.219-1.719c0.843-0.233,1.438-0.987,1.466-1.862
		l0.219-6.656c0.036-1.104-0.83-2.028-1.933-2.064c-1.121-0.058-2.029,0.829-2.065,1.934l-0.072,2.188
		c-1.497-0.931-3.118-1.429-4.817-1.433c-0.008,0-0.016,0-0.024,0c-3.169,0-6.167,1.241-8.44,3.495
		c-2.29,2.271-3.555,5.284-3.561,8.484c-0.006,3.205,1.236,6.222,3.499,8.492c2.263,2.272,5.274,3.526,8.48,3.532
		c0.006,0,0.011,0,0.017,0c5.634-0.001,9.177-5.543,12.603-10.904c2.846-4.453,5.788-9.058,9.234-9.058c0.002,0,0.005,0,0.007,0
		c4.413,0.009,7.996,3.605,7.987,8.018c-0.004,2.128-0.848,4.135-2.377,5.65c-1.52,1.507-3.517,2.336-5.625,2.336
		c-0.005,0-0.011,0-0.016,0c-4.209-0.008-6.378-3.452-6.461-3.587c-0.566-0.948-1.795-1.26-2.743-0.691
		c-0.948,0.566-1.257,1.794-0.691,2.742c0.135,0.226,3.375,5.524,9.888,5.536c0.008,0,0.016,0,0.024,0
		c3.169,0,6.167-1.241,8.44-3.496c2.29-2.27,3.555-5.282,3.561-8.483C46.915,20.889,41.541,15.494,34.923,15.481z"/>
</g>
<g id="nyt_x5F_exporter_x5F_info" display="none">
</g>
</svg>
