<?xml version="1.0" encoding="utf-8"?>
<!-- Generator: Adobe Illustrator 17.0.0, SVG Export Plug-In . SVG Version: 6.00 Build 0)  -->
<!DOCTYPE svg PUBLIC "-//W3C//DTD SVG 1.1//EN" "http://www.w3.org/Graphics/SVG/1.1/DTD/svg11.dtd">
<svg version="1.1" xmlns="http://www.w3.org/2000/svg" xmlns:xlink="http://www.w3.org/1999/xlink" x="0px" y="0px" width="48px"
	 height="48px" viewBox="0 0 48 48" enable-background="new 0 0 48 48" xml:space="preserve">
<g id="Layer_3">
	<g>
		<path fill="#010101" d="M41.305,9.649C37.203,5.824,31.863,3.82,26.25,4.018c-5.84,0.204-11.419,2.931-15.306,7.479
			c-2.507,2.933-4.124,6.403-4.779,10.127L3.66,17.852c-0.61-0.92-1.852-1.172-2.772-0.56c-0.92,0.61-1.171,1.852-0.56,2.772
			l5.983,9.012c0.038,0.057,0.088,0.103,0.131,0.155c0.022,0.027,0.044,0.054,0.068,0.08c0.066,0.072,0.135,0.139,0.211,0.2
			c0.032,0.027,0.066,0.05,0.1,0.075c0.075,0.054,0.15,0.105,0.232,0.148C7.1,29.76,7.15,29.778,7.199,29.799
			c0.076,0.032,0.149,0.067,0.229,0.09c0.13,0.038,0.264,0.064,0.402,0.075c0.004,0,0.008,0.002,0.012,0.002
			c0.045,0.003,0.09,0.005,0.135,0.005c0.038,0,0.074-0.01,0.112-0.012c0.047-0.002,0.094,0.003,0.142-0.003
			c0.036-0.004,0.069-0.017,0.105-0.024c0.046-0.008,0.091-0.019,0.137-0.031c0.099-0.025,0.194-0.056,0.286-0.094
			c0.027-0.011,0.053-0.023,0.079-0.035c0.108-0.051,0.209-0.11,0.305-0.179c0.012-0.008,0.024-0.017,0.036-0.026
			c0.152-0.113,0.289-0.242,0.403-0.392l6.913-7.871c0.729-0.83,0.648-2.094-0.183-2.823c-0.831-0.728-2.094-0.646-2.822,0.183
			l-3.41,3.882c0.507-3.113,1.823-6.014,3.904-8.449c3.162-3.699,7.683-5.915,12.405-6.08c4.537-0.167,8.867,1.461,12.188,4.558
			c3.321,3.098,5.237,7.302,5.395,11.841c0.16,4.538-1.458,8.865-4.555,12.186c-3.097,3.321-7.302,5.236-11.841,5.395
			c-1.104,0.039-1.967,0.965-1.929,2.068c0.038,1.08,0.925,1.931,1.998,1.931c0.024,0,0.047,0,0.071-0.001
			c5.606-0.195,10.801-2.562,14.626-6.664c3.827-4.104,5.825-9.45,5.628-15.055C47.774,18.669,45.408,13.475,41.305,9.649z"/>
		<path fill="#010101" d="M25.988,12.993c-1.104,0-2,0.896-2,2v13.013h12.993c1.104,0,2-0.896,2-2s-0.896-2-2-2h-8.993v-9.013
			C27.988,13.889,27.093,12.993,25.988,12.993z"/>
	</g>
</g>
<g id="nyt_x5F_exporter_x5F_info" display="none">
</g>
</svg>
