<?xml version="1.0" encoding="utf-8"?>
<!-- Generator: Adobe Illustrator 17.0.0, SVG Export Plug-In . SVG Version: 6.00 Build 0)  -->
<!DOCTYPE svg PUBLIC "-//W3C//DTD SVG 1.1//EN" "http://www.w3.org/Graphics/SVG/1.1/DTD/svg11.dtd">
<svg version="1.1" xmlns="http://www.w3.org/2000/svg" xmlns:xlink="http://www.w3.org/1999/xlink" x="0px" y="0px" width="48px"
	 height="48px" viewBox="0 0 48 48" enable-background="new 0 0 48 48" xml:space="preserve">
<g id="Layer_3">
	<g>
		<path fill="#010101" d="M30.007,19.992h10c1.104,0,2-0.896,2-2s-0.896-2-2-2h-5.184L47.449,3.415
			c0.782-0.779,0.785-2.046,0.005-2.828c-0.779-0.782-2.045-0.784-2.829-0.006l-12.619,12.57V7.992c0-1.104-0.895-2-2-2
			s-2,0.896-2,2v10C28.007,19.097,28.902,19.992,30.007,19.992z"/>
		<path fill="#010101" d="M19.999,29.636c-0.012-0.061-0.034-0.117-0.052-0.176c-0.019-0.066-0.035-0.134-0.061-0.198
			c-0.028-0.068-0.066-0.129-0.101-0.193c-0.028-0.051-0.05-0.103-0.082-0.151c-0.146-0.22-0.335-0.409-0.554-0.556
			c-0.043-0.028-0.089-0.048-0.134-0.073c-0.069-0.039-0.137-0.081-0.211-0.112c-0.054-0.022-0.11-0.034-0.166-0.052
			c-0.069-0.022-0.136-0.048-0.208-0.062c-0.084-0.017-0.17-0.021-0.256-0.026c-0.045-0.003-0.088-0.014-0.133-0.014l-10-0.02
			c-0.001,0-0.002,0-0.004,0c-1.103,0-1.998,0.893-2,1.996c-0.002,1.104,0.892,2.002,1.996,2.004l5.171,0.01L0.595,44.575
			c-0.782,0.779-0.785,2.046-0.005,2.828c0.391,0.393,0.904,0.589,1.417,0.589c0.511,0,1.021-0.194,1.412-0.583l12.61-12.561
			l-0.01,5.171c-0.002,1.104,0.892,2.002,1.996,2.004c0.002,0,0.003,0,0.004,0c1.103,0,1.998-0.893,2-1.996l0.019-10
			c0-0.009-0.003-0.017-0.003-0.026C20.034,29.879,20.023,29.757,19.999,29.636z"/>
		<path fill="#010101" d="M13.151,15.992H8.007c-1.105,0-2,0.895-2,2s0.895,2,2,2h9.812c0.054,0.004,0.108,0.016,0.163,0.016
			c0.274,0,0.546-0.06,0.801-0.172c0.01-0.004,0.02-0.011,0.03-0.016c0.098-0.045,0.194-0.094,0.285-0.155
			c0.546-0.357,0.909-0.972,0.909-1.673v-10c0-1.104-0.896-2-2-2s-2,0.896-2,2v5.199L3.43,0.566C2.65-0.217,1.384-0.219,0.601,0.56
			c-0.782,0.779-0.785,2.046-0.005,2.828L13.151,15.992z"/>
		<path fill="#010101" d="M34.851,32.002l5.172,0.01c0.002,0,0.003,0,0.004,0c1.103,0,1.998-0.892,2-1.996
			c0.002-1.105-0.892-2.002-1.996-2.004l-10-0.02c-0.001,0-0.002,0-0.004,0c-0.056,0-0.108,0.012-0.162,0.016
			c-0.075,0.006-0.15,0.008-0.223,0.022c-0.077,0.015-0.15,0.042-0.224,0.066c-0.05,0.016-0.101,0.026-0.15,0.046
			c-0.079,0.032-0.15,0.075-0.224,0.117c-0.041,0.023-0.083,0.04-0.123,0.066c-0.105,0.07-0.202,0.149-0.292,0.237
			c-0.005,0.005-0.01,0.008-0.015,0.012c0,0,0,0,0,0c-0.093,0.093-0.176,0.195-0.25,0.305c-0.031,0.046-0.052,0.097-0.079,0.145
			c-0.037,0.066-0.076,0.129-0.105,0.199c-0.026,0.062-0.04,0.126-0.059,0.19c-0.019,0.061-0.042,0.12-0.055,0.183
			c-0.024,0.121-0.036,0.244-0.038,0.367c0,0.008-0.003,0.015-0.003,0.023l-0.019,10c-0.002,1.104,0.892,2.002,1.996,2.004
			c0.001,0,0.002,0,0.004,0c1.103,0,1.998-0.893,2-1.996l0.01-5.172l12.561,12.61c0.391,0.393,0.904,0.589,1.417,0.589
			c0.511,0,1.021-0.194,1.412-0.583c0.782-0.779,0.785-2.046,0.005-2.828L34.851,32.002z"/>
	</g>
</g>
<g id="nyt_x5F_exporter_x5F_info" display="none">
</g>
</svg>
