<?xml version="1.0" encoding="utf-8"?>
<!-- Generator: Adobe Illustrator 17.0.0, SVG Export Plug-In . SVG Version: 6.00 Build 0)  -->
<!DOCTYPE svg PUBLIC "-//W3C//DTD SVG 1.1//EN" "http://www.w3.org/Graphics/SVG/1.1/DTD/svg11.dtd">
<svg version="1.1" xmlns="http://www.w3.org/2000/svg" xmlns:xlink="http://www.w3.org/1999/xlink" x="0px" y="0px" width="48px"
	 height="48px" viewBox="0 0 48 48" enable-background="new 0 0 48 48" xml:space="preserve">
<g id="Layer_3">
	<g>
		<path fill="#010101" d="M47.424,0.589c-0.779-0.783-2.045-0.785-2.829-0.006L27.962,17.152V8c0-1.104-0.896-2-2-2s-2,0.896-2,2v14
			c0,1.105,0.896,2,2,2h14c1.105,0,2-0.895,2-2c0-1.104-0.895-2-2-2h-9.19L47.418,3.417C48.201,2.638,48.203,1.371,47.424,0.589z"/>
		<path fill="#010101" d="M23.916,25.435c-0.02-0.067-0.035-0.135-0.062-0.2c-0.029-0.069-0.067-0.131-0.103-0.196
			c-0.027-0.05-0.049-0.101-0.081-0.148c-0.146-0.219-0.335-0.408-0.554-0.555c-0.05-0.034-0.105-0.057-0.158-0.086
			c-0.062-0.034-0.121-0.071-0.186-0.098c-0.067-0.028-0.137-0.044-0.206-0.064c-0.056-0.017-0.11-0.038-0.168-0.05
			c-0.129-0.026-0.26-0.04-0.392-0.04h-14c-1.105,0-2,0.896-2,2c0,1.105,0.895,2,2,2h9.172L0.593,44.586
			c-0.781,0.781-0.781,2.047,0,2.828C0.983,47.805,1.495,48,2.007,48c0.512,0,1.024-0.195,1.414-0.586l16.586-16.586V40
			c0,1.105,0.895,2,2,2c1.104,0,2-0.895,2-2V26c0-0.131-0.014-0.262-0.04-0.392C23.955,25.548,23.933,25.493,23.916,25.435z"/>
	</g>
</g>
<g id="nyt_x5F_exporter_x5F_info" display="none">
</g>
</svg>
