<?xml version="1.0" encoding="utf-8"?>
<!-- Generator: Adobe Illustrator 17.0.0, SVG Export Plug-In . SVG Version: 6.00 Build 0)  -->
<!DOCTYPE svg PUBLIC "-//W3C//DTD SVG 1.1//EN" "http://www.w3.org/Graphics/SVG/1.1/DTD/svg11.dtd">
<svg version="1.1" xmlns="http://www.w3.org/2000/svg" xmlns:xlink="http://www.w3.org/1999/xlink" x="0px" y="0px" width="48px"
	 height="48px" viewBox="0 0 48 48" enable-background="new 0 0 48 48" xml:space="preserve">
<g id="Layer_3">
	<g>
		<path fill="#010101" d="M31,20h10c1.104,0,2-0.895,2-2c0-1.104-0.896-2-2-2h-5.489L47.453,3.374
			c0.759-0.802,0.724-2.068-0.079-2.827c-0.803-0.758-2.067-0.723-2.828,0.079L33,12.834V8c0-1.104-0.896-2-2-2s-2,0.896-2,2v10
			C29,19.105,29.896,20,31,20z"/>
		<path fill="#010101" d="M17,6c-1.104,0-2,0.896-2,2v4.792L3.451,0.623C2.691-0.178,1.425-0.211,0.623,0.55
			c-0.801,0.76-0.834,2.025-0.074,2.827L12.529,16H7c-1.104,0-2,0.896-2,2c0,1.105,0.896,2,2,2h10c1.104,0,2-0.895,2-2v-0.032
			c0.007-0.09,0.005-0.179,0-0.268V8C19,6.896,18.104,6,17,6z"/>
		<path fill="#010101" d="M35.511,32H41c1.104,0,2-0.895,2-2c0-1.104-0.896-2-2-2H31c-1.104,0-2,0.896-2,2v10c0,1.105,0.896,2,2,2
			s2-0.895,2-2v-4.834l11.547,12.208C44.94,47.79,45.47,48,46,48c0.493,0,0.987-0.182,1.374-0.547
			c0.802-0.759,0.837-2.025,0.079-2.827L35.511,32z"/>
		<path fill="#010101" d="M17,28H7c-1.104,0-2,0.896-2,2c0,1.105,0.896,2,2,2h5.529L0.549,44.623
			c-0.76,0.802-0.727,2.067,0.074,2.827C1.01,47.817,1.505,48,2,48c0.529,0,1.058-0.209,1.451-0.623L15,35.208V40
			c0,1.105,0.896,2,2,2s2-0.895,2-2v-9.699c0.005-0.09,0.007-0.179,0-0.269V30C19,28.896,18.104,28,17,28z"/>
		<path fill="#010101" d="M24.007,20c-2.206-0.004-4.003,1.784-4.007,3.992c-0.004,2.21,1.786,4.004,3.992,4.008
			c2.21,0.004,4.003-1.783,4.008-3.992C28.003,21.799,26.217,20.004,24.007,20z"/>
	</g>
</g>
<g id="nyt_x5F_exporter_x5F_info" display="none">
</g>
</svg>
