<?xml version="1.0" encoding="utf-8"?>
<!-- Generator: Adobe Illustrator 17.0.0, SVG Export Plug-In . SVG Version: 6.00 Build 0)  -->
<!DOCTYPE svg PUBLIC "-//W3C//DTD SVG 1.1//EN" "http://www.w3.org/Graphics/SVG/1.1/DTD/svg11.dtd">
<svg version="1.1" xmlns="http://www.w3.org/2000/svg" xmlns:xlink="http://www.w3.org/1999/xlink" x="0px" y="0px" width="48px"
	 height="48px" viewBox="0 0 48 48" enable-background="new 0 0 48 48" xml:space="preserve">
<g id="Layer_3">
	<path fill="#010101" d="M47.267,22.408l-5.659-5.776c-0.774-0.791-2.04-0.803-2.829-0.029c-0.788,0.773-0.802,2.039-0.029,2.828
		L41.268,22H26.007V2c0-1.104-0.896-2-2-2s-2,0.896-2,2v20H6.916l2.662-2.601c0.79-0.772,0.805-2.038,0.033-2.828
		c-0.773-0.791-2.039-0.805-2.829-0.033l-6.173,6.031c-0.386,0.377-0.603,0.895-0.602,1.434c0.001,0.54,0.22,1.057,0.607,1.433
		l6.15,5.969c0.389,0.377,0.891,0.564,1.393,0.564c0.521,0,1.043-0.203,1.435-0.608c0.769-0.792,0.75-2.059-0.042-2.828L6.939,26
		h15.067v20c0,1.105,0.896,2,2,2s2-0.895,2-2V26H41.29l-2.567,2.636c-0.771,0.792-0.753,2.058,0.038,2.828
		c0.389,0.379,0.892,0.567,1.395,0.567c0.521,0,1.041-0.202,1.433-0.605l5.687-5.842c0.479-0.365,0.793-0.936,0.793-1.585
		C48.069,23.347,47.752,22.773,47.267,22.408z"/>
</g>
<g id="nyt_x5F_exporter_x5F_info" display="none">
</g>
</svg>
