<?xml version="1.0" encoding="utf-8"?>
<!-- Generator: Adobe Illustrator 17.0.0, SVG Export Plug-In . SVG Version: 6.00 Build 0)  -->
<!DOCTYPE svg PUBLIC "-//W3C//DTD SVG 1.1//EN" "http://www.w3.org/Graphics/SVG/1.1/DTD/svg11.dtd">
<svg version="1.1" xmlns="http://www.w3.org/2000/svg" xmlns:xlink="http://www.w3.org/1999/xlink" x="0px" y="0px" width="48px"
	 height="48px" viewBox="0 0 48 48" enable-background="new 0 0 48 48" xml:space="preserve">
<g id="Layer_3">
	<g>
		<path fill="#010101" d="M48.035,1.991c-0.001-0.122-0.012-0.244-0.036-0.365c-0.012-0.061-0.034-0.117-0.052-0.176
			c-0.02-0.066-0.035-0.134-0.061-0.198c-0.028-0.068-0.066-0.129-0.101-0.193c-0.028-0.05-0.05-0.103-0.082-0.151
			c-0.146-0.22-0.335-0.409-0.554-0.556c-0.043-0.029-0.089-0.048-0.134-0.073c-0.069-0.039-0.137-0.081-0.211-0.112
			c-0.054-0.022-0.11-0.034-0.166-0.052c-0.069-0.022-0.136-0.048-0.208-0.062c-0.084-0.017-0.17-0.02-0.256-0.026
			c-0.045-0.003-0.088-0.014-0.133-0.014l-10-0.019c-0.001,0-0.002,0-0.004,0c-1.103,0-1.998,0.892-2,1.996
			c-0.002,1.104,0.892,2.002,1.996,2.004l5.171,0.01l-12.61,12.561c-0.782,0.779-0.785,2.046-0.005,2.828
			c0.391,0.393,0.904,0.589,1.417,0.589c0.511,0,1.021-0.194,1.412-0.583l12.61-12.561l-0.01,5.171
			c-0.002,1.104,0.892,2.002,1.996,2.004c0.001,0,0.002,0,0.004,0c1.103,0,1.998-0.893,2-1.996l0.019-10
			C48.038,2.008,48.035,2,48.035,1.991z"/>
		<path fill="#010101" d="M16.611,28.582L4.009,41.135l0.002-5.166c0.001-1.104-0.894-2.001-1.999-2.001c0,0,0,0,0,0
			c-1.105,0-2,0.895-2.001,1.999l-0.004,9.838c-0.036,0.446,0.07,0.9,0.332,1.285c0.074,0.111,0.158,0.216,0.253,0.312
			c0.375,0.375,0.884,0.586,1.415,0.586h9.984c1.104,0,2-0.896,2-2s-0.895-2-2-2H6.814l12.62-12.571
			c0.782-0.779,0.785-2.046,0.005-2.828C18.661,27.806,17.395,27.804,16.611,28.582z"/>
		<path fill="#010101" d="M2.013,13.972L2.013,13.972c1.106-0.001,2-0.896,2-2.001L4.01,6.791l12.574,12.623
			c0.391,0.392,0.904,0.589,1.417,0.589c0.511,0,1.021-0.194,1.412-0.583c0.782-0.779,0.785-2.046,0.005-2.828L6.864,3.99
			l5.166,0.002c0,0,0.001,0,0.001,0c1.104,0,2-0.895,2-1.999c0-1.105-0.894-2.001-1.999-2.001L2.19-0.012
			C1.75-0.047,1.301,0.056,0.92,0.312C0.803,0.387,0.692,0.473,0.592,0.574C0.217,0.949,0.006,1.458,0.007,1.989l0.006,9.984
			C0.013,13.077,0.909,13.972,2.013,13.972z"/>
		<path fill="#010101" d="M46.011,34.019c-0.001,0-0.002,0-0.004,0c-1.103,0-1.998,0.893-2,1.996l-0.01,5.172l-12.561-12.61
			c-0.779-0.782-2.045-0.784-2.829-0.006c-0.782,0.779-0.785,2.046-0.005,2.828l12.562,12.611l-5.172-0.01c-0.001,0-0.002,0-0.004,0
			c-1.103,0-1.998,0.893-2,1.996c-0.002,1.104,0.892,2.002,1.996,2.004l10,0.02c0.001,0,0.002,0,0.004,0
			c0.131,0,0.262-0.014,0.391-0.039c0.059-0.012,0.113-0.033,0.17-0.05c0.068-0.02,0.137-0.036,0.203-0.063
			c0.067-0.028,0.128-0.066,0.192-0.101c0.051-0.028,0.103-0.05,0.152-0.082c0.103-0.069,0.199-0.148,0.288-0.234
			c0.005-0.005,0.012-0.009,0.017-0.014c0,0,0,0,0,0c0.093-0.093,0.176-0.195,0.25-0.305c0.031-0.047,0.052-0.097,0.079-0.146
			c0.036-0.065,0.076-0.129,0.105-0.198c0.026-0.062,0.04-0.127,0.059-0.191c0.019-0.061,0.042-0.119,0.055-0.183
			c0.024-0.121,0.036-0.244,0.038-0.367c0-0.008,0.002-0.015,0.002-0.015l0.02-10.008C48.009,34.918,47.115,34.021,46.011,34.019z"
			/>
	</g>
</g>
<g id="nyt_x5F_exporter_x5F_info" display="none">
</g>
</svg>
