<?xml version="1.0" encoding="utf-8"?>
<!-- Generator: Adobe Illustrator 17.0.0, SVG Export Plug-In . SVG Version: 6.00 Build 0)  -->
<!DOCTYPE svg PUBLIC "-//W3C//DTD SVG 1.1//EN" "http://www.w3.org/Graphics/SVG/1.1/DTD/svg11.dtd">
<svg version="1.1" xmlns="http://www.w3.org/2000/svg" xmlns:xlink="http://www.w3.org/1999/xlink" x="0px" y="0px" width="48px"
	 height="48px" viewBox="0 0 48 48" enable-background="new 0 0 48 48" xml:space="preserve">
<g id="Layer_3">
	<g>
		<path fill="#010101" d="M24,20.092c-2.752,0-4.995,2.239-5,4.991c-0.002,1.335,0.516,2.592,1.459,3.538
			c0.943,0.946,2.197,1.469,3.531,1.471c0.001,0,0.011,0,0.011,0c2.751,0,4.994-2.238,5-4.99C29.005,22.345,26.766,20.098,24,20.092
			z"/>
		<path fill="#010101" d="M47.417,23.726L36.438,12.704c-0.779-0.782-2.045-0.784-2.829-0.006c-0.782,0.779-0.785,2.046-0.005,2.828
			l9.567,9.604l-9.604,9.567c-0.782,0.779-0.785,2.046-0.005,2.828c0.391,0.393,0.904,0.589,1.417,0.589
			c0.511,0,1.021-0.194,1.412-0.583l11.021-10.979c0.376-0.374,0.587-0.883,0.588-1.413C48.001,24.61,47.791,24.101,47.417,23.726z"
			/>
		<path fill="#010101" d="M14.438,12.658c-0.779-0.783-2.045-0.785-2.829-0.006L0.588,23.631c-0.782,0.779-0.785,2.046-0.005,2.828
			l10.978,11.022c0.391,0.393,0.904,0.589,1.417,0.589c0.511,0,1.021-0.194,1.412-0.583c0.782-0.779,0.785-2.046,0.005-2.828
			l-9.567-9.604l9.604-9.567C15.215,14.707,15.217,13.44,14.438,12.658z"/>
	</g>
</g>
<g id="nyt_x5F_exporter_x5F_info" display="none">
</g>
</svg>
