<?xml version="1.0" encoding="utf-8"?>
<!-- Generator: Adobe Illustrator 17.0.0, SVG Export Plug-In . SVG Version: 6.00 Build 0)  -->
<!DOCTYPE svg PUBLIC "-//W3C//DTD SVG 1.1//EN" "http://www.w3.org/Graphics/SVG/1.1/DTD/svg11.dtd">
<svg version="1.1" xmlns="http://www.w3.org/2000/svg" xmlns:xlink="http://www.w3.org/1999/xlink" x="0px" y="0px" width="48px"
	 height="48px" viewBox="0 0 48 48" enable-background="new 0 0 48 48" xml:space="preserve">
<g id="Layer_3">
	<g>
		<path fill="#010101" d="M23.859,28.584c2.752,0,4.995-2.238,5-4.99c0.002-1.335-0.515-2.592-1.458-3.538
			c-0.943-0.947-2.197-1.47-3.542-1.472c-2.752,0-4.995,2.238-5,4.99c-0.002,1.335,0.515,2.592,1.458,3.538
			c0.942,0.947,2.197,1.47,3.532,1.472C23.851,28.584,23.859,28.584,23.859,28.584z"/>
		<path fill="#010101" d="M47.18,22.217l-7.861-7.892c-0.001-0.001-0.001-0.002-0.002-0.003l-1.12-1.123
			c-0.781-0.782-2.047-0.784-2.829-0.004c-0.782,0.779-0.784,2.046-0.004,2.828l1.12,1.123c0.001,0.001,0.002,0.001,0.002,0.001
			l6.449,6.474l-7.601,7.572c-0.782,0.779-0.785,2.046-0.005,2.828c0.391,0.393,0.904,0.589,1.417,0.589
			c0.511,0,1.021-0.194,1.412-0.583l9.017-8.983C47.957,24.266,47.959,22.999,47.18,22.217z"/>
		<path fill="#010101" d="M5.066,23.545l6.581-6.555c0.782-0.779,0.785-2.046,0.005-2.828c-0.779-0.782-2.045-0.784-2.829-0.006
			l-7.998,7.967c-0.375,0.374-0.587,0.883-0.588,1.413c-0.001,0.53,0.209,1.04,0.583,1.415l8.983,9.017
			c0.391,0.393,0.904,0.589,1.417,0.589c0.511,0,1.021-0.194,1.412-0.583c0.782-0.779,0.785-2.046,0.005-2.828L5.066,23.545z"/>
		<path fill="#010101" d="M25.321,0.664c-0.375-0.376-0.883-0.588-1.413-0.589c-0.002,0-0.002,0-0.004,0
			c-0.529,0-1.037,0.21-1.412,0.583l-8.13,8.099c-0.782,0.779-0.785,2.046-0.005,2.828c0.391,0.393,0.904,0.589,1.417,0.589
			c0.511,0,1.021-0.194,1.412-0.583l6.713-6.688l6.433,6.458c0.78,0.784,2.046,0.786,2.829,0.006
			c0.782-0.779,0.785-2.046,0.005-2.828L25.321,0.664z"/>
		<path fill="#010101" d="M30.326,35.784l-6.505,6.48l-6.693-6.72c-0.779-0.783-2.045-0.784-2.829-0.006
			c-0.782,0.779-0.785,2.046-0.005,2.828l8.105,8.137c0.375,0.376,0.883,0.588,1.413,0.589c0.001,0,0.002,0,0.004,0
			c0.529,0,1.037-0.21,1.412-0.583l7.922-7.892c0.782-0.779,0.785-2.046,0.005-2.828C32.376,35.008,31.11,35.006,30.326,35.784z"/>
	</g>
</g>
<g id="nyt_x5F_exporter_x5F_info" display="none">
</g>
</svg>
