<?xml version="1.0" encoding="utf-8"?>
<!-- Generator: Adobe Illustrator 17.0.0, SVG Export Plug-In . SVG Version: 6.00 Build 0)  -->
<!DOCTYPE svg PUBLIC "-//W3C//DTD SVG 1.1//EN" "http://www.w3.org/Graphics/SVG/1.1/DTD/svg11.dtd">
<svg version="1.1" xmlns="http://www.w3.org/2000/svg" xmlns:xlink="http://www.w3.org/1999/xlink" x="0px" y="0px" width="48px"
	 height="48px" viewBox="0 0 48 48" enable-background="new 0 0 48 48" xml:space="preserve">
<g id="Layer_3">
	<g>
		<path fill="#010101" d="M24,20.647c-2.752,0-4.995,2.238-5,4.99c-0.002,1.336,0.515,2.593,1.458,3.539
			c0.942,0.946,2.197,1.469,3.532,1.471c0.001,0,0.011,0,0.011,0c2.751,0,4.994-2.238,4.999-4.99
			C29.005,22.899,26.766,20.652,24,20.647z"/>
		<path fill="#010101" d="M47.677,24.955L35.698,13.932c-0.293-0.27-0.716-0.339-1.078-0.18c-0.363,0.159-0.598,0.518-0.599,0.914
			l-0.043,22c-0.001,0.397,0.233,0.756,0.596,0.917c0.13,0.057,0.268,0.085,0.404,0.085c0.245,0,0.486-0.09,0.674-0.262
			L47.674,26.43c0.207-0.188,0.325-0.456,0.326-0.736C48,25.413,47.883,25.146,47.677,24.955z"/>
		<path fill="#010101" d="M13.425,13.711c-0.363-0.156-0.785-0.091-1.079,0.177L0.326,24.864C0.119,25.053,0,25.32,0,25.601
			c-0.001,0.28,0.117,0.548,0.323,0.737l11.979,11.023c0.188,0.174,0.431,0.265,0.677,0.265c0.136,0,0.272-0.027,0.401-0.084
			c0.363-0.159,0.598-0.518,0.599-0.914l0.043-22C14.022,14.232,13.788,13.872,13.425,13.711z"/>
	</g>
</g>
<g id="nyt_x5F_exporter_x5F_info" display="none">
</g>
</svg>
