<?xml version="1.0" encoding="utf-8"?>
<!-- Generator: Adobe Illustrator 17.0.0, SVG Export Plug-In . SVG Version: 6.00 Build 0)  -->
<!DOCTYPE svg PUBLIC "-//W3C//DTD SVG 1.1//EN" "http://www.w3.org/Graphics/SVG/1.1/DTD/svg11.dtd">
<svg version="1.1" xmlns="http://www.w3.org/2000/svg" xmlns:xlink="http://www.w3.org/1999/xlink" x="0px" y="0px" width="48px"
	 height="48px" viewBox="0 0 48 48" enable-background="new 0 0 48 48" xml:space="preserve">
<g id="Layer_3">
	<g>
		<path fill="#010101" d="M24.113,29c2.752,0,4.995-2.238,5-4.99c0.002-1.335-0.515-2.592-1.458-3.538
			c-0.943-0.947-2.197-1.47-3.542-1.472c-2.752,0-4.995,2.238-5,4.99c-0.003,1.335,0.515,2.592,1.458,3.538
			c0.942,0.947,2.197,1.47,3.532,1.472C24.104,29,24.112,29,24.113,29z"/>
		<path fill="#010101" d="M47.784,23.302l-9.983-9.019c-0.294-0.265-0.715-0.333-1.076-0.172c-0.361,0.16-0.594,0.518-0.595,0.912
			l-0.034,18c-0.001,0.395,0.231,0.753,0.591,0.915c0.131,0.059,0.271,0.087,0.409,0.087c0.242,0,0.48-0.088,0.667-0.256
			l10.017-8.981c0.211-0.188,0.332-0.459,0.333-0.742C48.114,23.763,47.994,23.492,47.784,23.302z"/>
		<path fill="#010101" d="M11.54,14.062c-0.36-0.16-0.782-0.096-1.076,0.169L0.446,23.212c-0.211,0.189-0.332,0.459-0.333,0.742
			c0,0.283,0.119,0.554,0.33,0.744l9.983,9.019c0.188,0.169,0.427,0.258,0.67,0.258c0.137,0,0.275-0.028,0.405-0.086
			c0.361-0.16,0.594-0.518,0.595-0.912l0.035-18C12.132,14.582,11.9,14.224,11.54,14.062z"/>
		<path fill="#010101" d="M24.902,0.332C24.713,0.121,24.443,0.001,24.16,0c0,0-0.002,0-0.002,0c-0.283,0-0.553,0.12-0.743,0.329
			l-9.02,9.982c-0.265,0.294-0.332,0.715-0.172,1.076c0.16,0.361,0.517,0.594,0.912,0.595l18,0.035c0,0,0.001,0,0.001,0
			c0.395,0,0.752-0.231,0.913-0.592c0.162-0.36,0.096-0.781-0.168-1.076L24.902,0.332z"/>
		<path fill="#010101" d="M33.09,36.018l-18-0.035c0,0-0.001,0-0.002,0c-0.394,0-0.752,0.232-0.913,0.592
			c-0.162,0.36-0.096,0.781,0.168,1.076l8.981,10.018c0.19,0.211,0.459,0.331,0.743,0.332c0,0,0.001,0,0.001,0
			c0.283,0,0.553-0.12,0.743-0.33l9.019-9.982c0.265-0.293,0.332-0.714,0.172-1.075C33.843,36.251,33.485,36.019,33.09,36.018z"/>
	</g>
</g>
<g id="nyt_x5F_exporter_x5F_info" display="none">
</g>
</svg>
