<?xml version="1.0" encoding="utf-8"?>
<!-- Generator: Adobe Illustrator 17.0.0, SVG Export Plug-In . SVG Version: 6.00 Build 0)  -->
<!DOCTYPE svg PUBLIC "-//W3C//DTD SVG 1.1//EN" "http://www.w3.org/Graphics/SVG/1.1/DTD/svg11.dtd">
<svg version="1.1" xmlns="http://www.w3.org/2000/svg" xmlns:xlink="http://www.w3.org/1999/xlink" x="0px" y="0px" width="48px"
	 height="48px" viewBox="0 0 48 48" enable-background="new 0 0 48 48" xml:space="preserve">
<g id="Layer_3">
	<g>
		<path fill="#010101" d="M19.121,23.99c-0.003,1.335,0.515,2.592,1.458,3.538c0.942,0.947,2.197,1.47,3.532,1.472
			c0.001,0,0.009,0,0.009,0c2.752,0,4.996-2.238,5.001-4.99c0.005-2.758-2.234-5.005-5-5.01C21.369,19,19.126,21.238,19.121,23.99z"
			/>
		<path fill="#010101" d="M13.14,13.979l22,0.043c0,0,0.001,0,0.002,0c0.396,0,0.754-0.233,0.915-0.596
			c0.16-0.362,0.091-0.786-0.176-1.078L24.903,0.326C24.714,0.119,24.447,0.001,24.167,0c0,0-0.002,0-0.002,0
			c-0.28,0-0.546,0.117-0.736,0.323L12.406,12.302c-0.269,0.291-0.339,0.714-0.18,1.077C12.384,13.743,12.743,13.978,13.14,13.979z"
			/>
		<path fill="#010101" d="M35.101,34.022l-22-0.043c0,0-0.001,0-0.002,0c-0.396,0-0.754,0.233-0.915,0.596
			c-0.16,0.362-0.091,0.786,0.176,1.078l10.977,12.021c0.189,0.207,0.456,0.325,0.736,0.326c0,0,0.001,0,0.001,0
			c0.28,0,0.547-0.117,0.736-0.323l11.023-11.979c0.269-0.291,0.339-0.714,0.18-1.077C35.856,34.257,35.497,34.023,35.101,34.022z"
			/>
	</g>
</g>
<g id="nyt_x5F_exporter_x5F_info" display="none">
</g>
</svg>
