<?xml version="1.0" encoding="utf-8"?>
<!-- Generator: Adobe Illustrator 17.0.0, SVG Export Plug-In . SVG Version: 6.00 Build 0)  -->
<!DOCTYPE svg PUBLIC "-//W3C//DTD SVG 1.1//EN" "http://www.w3.org/Graphics/SVG/1.1/DTD/svg11.dtd">
<svg version="1.1" xmlns="http://www.w3.org/2000/svg" xmlns:xlink="http://www.w3.org/1999/xlink" x="0px" y="0px" width="48px"
	 height="48px" viewBox="0 0 48 48" enable-background="new 0 0 48 48" xml:space="preserve">
<g id="Layer_3">
	<g>
		<path fill="#010101" d="M1.988,17h9.996c3.539,0.007,5.883,3.423,6.727,4.891c0.37,0.644,1.043,1.004,1.736,1.004
			c0.338,0,0.68-0.085,0.994-0.266c0.958-0.551,1.289-1.772,0.738-2.73c-1.189-2.07-4.563-6.888-10.191-6.898h-10
			c-1.105,0-2,0.896-2,2S0.884,17,1.988,17z"/>
		<path fill="#010101" d="M47.893,36.496c-0.011-0.04-0.023-0.078-0.036-0.117c-0.055-0.167-0.125-0.326-0.22-0.47
			c-0.001-0.002-0.002-0.005-0.003-0.007l-0.003-0.004c-0.002-0.003-0.004-0.005-0.005-0.008l-3.981-5.996
			c-0.61-0.92-1.852-1.173-2.772-0.56c-0.92,0.61-1.171,1.851-0.56,2.772L42.233,35l-6.262-0.014
			c-3.403-0.007-6.123-2.517-7.442-4.014c-0.731-0.829-1.995-0.909-2.823-0.178c-0.829,0.73-0.909,1.994-0.178,2.822
			c1.764,2.001,5.465,5.359,10.435,5.369L42.227,39l-1.933,2.888c-0.614,0.918-0.368,2.16,0.549,2.774
			C41.185,44.891,41.571,45,41.954,45c0.645,0,1.278-0.312,1.664-0.888l4.006-5.983c0,0,0.001-0.001,0.001-0.001l0.005-0.008
			c0.003-0.004,0.003-0.008,0.006-0.012c0.093-0.142,0.163-0.298,0.218-0.462c0.014-0.04,0.027-0.08,0.038-0.121
			c0.044-0.165,0.076-0.334,0.076-0.513l0-0.002C47.967,36.831,47.937,36.661,47.893,36.496z"/>
		<path fill="#010101" d="M35.997,16.987c0.003,0,0.006,0,0.008,0L42.269,17l-1.933,2.888c-0.614,0.918-0.368,2.16,0.549,2.774
			C41.227,22.891,41.614,23,41.996,23c0.645,0,1.278-0.312,1.664-0.888l4.005-5.983c0,0,0.001-0.001,0.001-0.001l0.005-0.008
			c0.003-0.004,0.003-0.009,0.006-0.012c0.093-0.141,0.163-0.298,0.218-0.461c0.014-0.041,0.027-0.08,0.038-0.122
			c0.044-0.164,0.075-0.333,0.076-0.511l0-0.005c0-0.178-0.03-0.347-0.074-0.511c-0.011-0.041-0.024-0.08-0.037-0.12
			c-0.055-0.163-0.123-0.32-0.216-0.461c-0.003-0.004-0.004-0.01-0.007-0.014l-0.005-0.008l0-0.001l-3.982-5.999
			c-0.611-0.92-1.853-1.172-2.772-0.56c-0.921,0.61-1.171,1.851-0.561,2.772L42.275,13l-6.262-0.014c-0.006,0-0.011,0-0.017,0
			c-6.09,0-9.951,6.066-13.685,11.934C19.158,29.876,15.897,35,11.997,35c-0.003,0-0.006,0-0.009,0h-10c-1.105,0-2,0.896-2,2
			s0.896,2,2,2h9.996c0.006,0,0.012,0,0.018,0c6.089-0.001,9.951-6.066,13.684-11.933C28.84,22.111,32.101,16.987,35.997,16.987z"/>
	</g>
</g>
<g id="nyt_x5F_exporter_x5F_info" display="none">
</g>
</svg>
