<?xml version="1.0" encoding="utf-8"?>
<!-- Generator: Adobe Illustrator 17.0.0, SVG Export Plug-In . SVG Version: 6.00 Build 0)  -->
<!DOCTYPE svg PUBLIC "-//W3C//DTD SVG 1.1//EN" "http://www.w3.org/Graphics/SVG/1.1/DTD/svg11.dtd">
<svg version="1.1" xmlns="http://www.w3.org/2000/svg" xmlns:xlink="http://www.w3.org/1999/xlink" x="0px" y="0px" width="48px"
	 height="48px" viewBox="0 0 48 48" enable-background="new 0 0 48 48" xml:space="preserve">
<g id="Layer_3">
	<path fill="#010101" d="M47.937,11.997c-0.011-0.041-0.024-0.08-0.037-0.12c-0.054-0.162-0.123-0.318-0.215-0.458
		c-0.003-0.005-0.004-0.011-0.008-0.017l-0.007-0.01l0,0l-3.982-5.997c-0.61-0.92-1.852-1.172-2.772-0.56
		c-0.92,0.61-1.171,1.852-0.56,2.772l1.924,2.898l-6.277-0.005c-0.01,0-0.018,0-0.028,0c-6.053,0-8.597,3.821-10.641,6.892
		c-1.829,2.749-3.311,4.921-6.916,5.078c-0.143-0.005-0.279-0.018-0.427-0.018c-0.002,0-0.003,0-0.004,0
		c-0.146,0-0.288,0.018-0.426,0.048H2c-1.105,0-2,0.896-2,2s0.896,2,2,2h15.996c0.01,0,0.019,0,0.028,0
		c0.204,0,0.393-0.015,0.589-0.023c3.468,0.238,4.915,2.404,6.716,5.108c2.048,3.075,4.598,6.903,10.669,6.915l6.223,0.005
		l-1.93,2.883c-0.614,0.918-0.368,2.16,0.549,2.774c0.342,0.229,0.729,0.338,1.111,0.338c0.645,0,1.278-0.312,1.664-0.888
		l4.006-5.984c0.001-0.001,0.002-0.003,0.002-0.004l0.003-0.005c0.002-0.003,0.002-0.006,0.004-0.008
		c0.095-0.143,0.165-0.301,0.221-0.466c0.014-0.04,0.026-0.08,0.037-0.12c0.044-0.163,0.074-0.331,0.075-0.507l0.001-0.007v0
		c0-0.178-0.031-0.348-0.074-0.512c-0.011-0.042-0.024-0.082-0.038-0.123c-0.054-0.16-0.121-0.312-0.211-0.45
		c-0.005-0.007-0.006-0.016-0.011-0.023l-3.988-6.008c-0.612-0.92-1.853-1.173-2.772-0.56c-0.92,0.61-1.171,1.851-0.561,2.772
		l1.924,2.899l-6.231-0.005c-3.932-0.008-5.438-2.27-7.345-5.133c-1.096-1.646-2.342-3.502-4.187-4.878
		c1.85-1.374,3.097-3.233,4.194-4.88c1.899-2.854,3.399-5.108,7.313-5.108c0.006,0,0.014,0,0.02,0l6.269,0.005l-1.93,2.883
		c-0.614,0.918-0.368,2.16,0.549,2.774c0.342,0.229,0.729,0.338,1.111,0.338c0.645,0,1.278-0.312,1.664-0.888l4.006-5.984
		c0.001-0.001,0.002-0.003,0.002-0.004l0.003-0.005c0.002-0.003,0.002-0.006,0.004-0.008c0.095-0.143,0.165-0.301,0.221-0.467
		c0.014-0.04,0.026-0.079,0.037-0.119c0.044-0.163,0.075-0.332,0.076-0.509c0-0.002,0.001-0.004,0.001-0.004V12.51
		C48.012,12.332,47.981,12.162,47.937,11.997z"/>
</g>
<g id="nyt_x5F_exporter_x5F_info" display="none">
</g>
</svg>
