<?xml version="1.0" encoding="utf-8"?>
<!-- Generator: Adobe Illustrator 17.0.0, SVG Export Plug-In . SVG Version: 6.00 Build 0)  -->
<!DOCTYPE svg PUBLIC "-//W3C//DTD SVG 1.1//EN" "http://www.w3.org/Graphics/SVG/1.1/DTD/svg11.dtd">
<svg version="1.1" xmlns="http://www.w3.org/2000/svg" xmlns:xlink="http://www.w3.org/1999/xlink" x="0px" y="0px" width="48px"
	 height="48px" viewBox="0 0 48 48" enable-background="new 0 0 48 48" xml:space="preserve">
<g id="Layer_3">
	<g>
		<path fill="#010101" d="M47.72,28.999l-4.84-8.371c-0.08-0.138-0.171-0.268-0.28-0.382c-0.335-0.368-0.796-0.607-1.302-0.651
			c-0.65-0.05-1.286,0.208-1.706,0.707l-6.427,7.663c-0.71,0.847-0.599,2.108,0.247,2.817c0.846,0.71,2.108,0.6,2.817-0.247
			l2.911-3.47c-1.105,5.665-5.633,10.682-11.602,12.08c-5.057,1.188-10.287-0.291-13.988-3.952
			c-0.786-0.776-2.052-0.771-2.829,0.016c-0.777,0.785-0.77,2.051,0.015,2.828c3.621,3.581,8.396,5.513,13.335,5.512
			c1.454,0,2.923-0.167,4.379-0.509c7.211-1.689,12.756-7.602,14.428-14.424l1.379,2.385C44.627,31.643,45.299,32,45.99,32
			c0.34,0,0.684-0.086,0.999-0.269C47.946,31.179,48.272,29.955,47.72,28.999z"/>
		<path fill="#010101" d="M14.817,20.326c-0.846-0.708-2.108-0.599-2.817,0.248l-3.444,4.109c0.067-2.564,0.793-5.097,2.17-7.394
			c2.223-3.709,5.855-6.389,9.966-7.352c5.392-1.265,11.018,0.534,14.684,4.69c0.731,0.828,1.995,0.907,2.823,0.177
			c0.829-0.731,0.908-1.994,0.177-2.823c-4.643-5.264-11.769-7.543-18.596-5.938c-5.158,1.209-9.709,4.559-12.484,9.19
			c-1.248,2.082-2.06,4.323-2.46,6.622L3.703,19.97c-0.569-0.945-1.798-1.252-2.744-0.684c-0.947,0.569-1.253,1.798-0.685,2.745
			l5.12,8.523c0.333,0.554,0.913,0.913,1.558,0.964c0.053,0.004,0.105,0.006,0.157,0.006c0.589,0,1.151-0.26,1.533-0.715
			l6.424-7.664C15.775,22.298,15.664,21.036,14.817,20.326z"/>
	</g>
</g>
<g id="nyt_x5F_exporter_x5F_info" display="none">
</g>
</svg>
