<?xml version="1.0" encoding="utf-8"?>
<!-- Generator: Adobe Illustrator 17.0.0, SVG Export Plug-In . SVG Version: 6.00 Build 0)  -->
<!DOCTYPE svg PUBLIC "-//W3C//DTD SVG 1.1//EN" "http://www.w3.org/Graphics/SVG/1.1/DTD/svg11.dtd">
<svg version="1.1" xmlns="http://www.w3.org/2000/svg" xmlns:xlink="http://www.w3.org/1999/xlink" x="0px" y="0px" width="48px"
	 height="48px" viewBox="0 0 48 48" enable-background="new 0 0 48 48" xml:space="preserve">
<g id="Layer_3">
	<g>
		<path fill="#010101" d="M46.454,28.29l-5.229-7.824c-0.35-0.523-0.926-0.852-1.554-0.886c-0.63-0.028-1.237,0.229-1.641,0.712
			l-6.049,7.213c-0.71,0.847-0.599,2.107,0.247,2.817c0.846,0.71,2.108,0.6,2.817-0.247l2.331-2.779
			c-1.204,5.1-5.266,9.436-10.628,10.692c-4.72,1.109-9.603-0.271-13.057-3.688c-0.786-0.776-2.052-0.771-2.829,0.016
			c-0.777,0.785-0.77,2.051,0.015,2.828c3.429,3.392,7.954,5.222,12.633,5.222c1.378,0,2.77-0.158,4.15-0.482
			c7.102-1.664,12.309-7.29,13.708-14.002l1.758,2.631c0.386,0.577,1.02,0.889,1.665,0.889c0.382,0,0.768-0.109,1.109-0.337
			C46.821,30.45,47.067,29.208,46.454,28.29z"/>
		<path fill="#010101" d="M14.877,20.301c-0.846-0.709-2.108-0.598-2.817,0.248l-2.854,3.405c0.183-2.335,0.916-4.615,2.189-6.673
			c2.047-3.31,5.314-5.698,8.965-6.554c5.033-1.183,10.283,0.497,13.705,4.378c0.73,0.828,1.994,0.907,2.823,0.177
			c0.828-0.73,0.907-1.995,0.177-2.823c-4.399-4.986-11.149-7.145-17.618-5.626c-4.677,1.097-8.852,4.138-11.454,8.344
			c-1.353,2.187-2.227,4.572-2.612,7.032l-1.402-2.097c-0.614-0.92-1.856-1.165-2.774-0.552c-0.918,0.614-1.164,1.856-0.551,2.774
			l5.231,7.824c0.35,0.523,0.926,0.852,1.554,0.886c0.037,0.002,0.073,0.003,0.108,0.003c0.445,0,0.874-0.149,1.221-0.417
			c0.207-0.148,0.381-0.333,0.517-0.543l5.84-6.967C15.835,22.273,15.724,21.011,14.877,20.301z"/>
		<path fill="#010101" d="M19.487,20.286c-1.091,1.087-1.693,2.533-1.696,4.073c-0.003,1.54,0.594,2.989,1.681,4.081
			c1.089,1.093,2.539,1.695,4.083,1.695c1.535,0,2.979-0.597,4.068-1.681c2.25-2.243,2.257-5.9,0.014-8.154
			c-1.09-1.093-2.539-1.694-4.082-1.694C22.02,18.606,20.575,19.203,19.487,20.286z"/>
	</g>
</g>
<g id="nyt_x5F_exporter_x5F_info" display="none">
</g>
</svg>
