<?xml version="1.0" encoding="utf-8"?>
<!-- Generator: Adobe Illustrator 17.0.0, SVG Export Plug-In . SVG Version: 6.00 Build 0)  -->
<!DOCTYPE svg PUBLIC "-//W3C//DTD SVG 1.1//EN" "http://www.w3.org/Graphics/SVG/1.1/DTD/svg11.dtd">
<svg version="1.1" xmlns="http://www.w3.org/2000/svg" xmlns:xlink="http://www.w3.org/1999/xlink" x="0px" y="0px" width="48px"
	 height="48px" viewBox="0 0 48 48" enable-background="new 0 0 48 48" xml:space="preserve">
<g id="Layer_3">
	<g>
		<path fill="#010101" d="M22.393,28.19C22.785,28.72,23.389,29,24.001,29c0.414,0,0.831-0.128,1.189-0.393
			c0.888-0.657,1.074-1.91,0.417-2.798L10.457,5.353c-0.658-0.886-1.91-1.073-2.798-0.417c-0.888,0.657-1.074,1.91-0.417,2.798
			L22.393,28.19z"/>
		<path fill="#010101" d="M30.671,7.083c-1.044-0.347-2.181,0.214-2.532,1.261c-0.351,1.048,0.214,2.182,1.261,2.532
			C36.353,13.205,41.014,19.698,41,27.032c-0.009,4.541-1.786,8.807-5.003,12.012C32.788,42.241,28.529,44,24.001,44
			c-0.011,0-0.023,0-0.034,0C14.594,43.981,6.982,36.341,7,26.968c0.006-3.169,0.891-6.262,2.557-8.943
			c0.583-0.938,0.295-2.171-0.643-2.754c-0.938-0.585-2.171-0.295-2.754,0.643C4.101,19.227,3.008,23.046,3,26.96
			C2.978,38.539,12.38,47.978,23.959,48c0.014,0,0.028,0,0.042,0c5.593,0,10.854-2.173,14.818-6.122
			c3.975-3.959,6.169-9.229,6.18-14.838C45.018,17.981,39.259,9.961,30.671,7.083z"/>
		<path fill="#010101" d="M23.033,10.998h0.004c1.651,0,2.997-1.344,3-2.994c0.003-1.654-1.341-3.003-3-3.006
			c-1.651,0-2.997,1.344-3,2.994c-0.001,0.802,0.309,1.556,0.874,2.123C21.477,10.683,22.23,10.997,23.033,10.998z M23.037,6.998
			l-0.002,2l0.003-2c0.264,0,0.522,0.108,0.708,0.295C23.931,7.48,24.037,7.737,24.037,8c-0.001,0.55-0.449,0.998-1.001,0.998h0
			c-0.551-0.001-0.999-0.45-0.998-1.002C22.038,7.446,22.486,6.998,23.037,6.998z"/>
	</g>
</g>
<g id="nyt_x5F_exporter_x5F_info" display="none">
</g>
</svg>
