<?xml version="1.0" encoding="utf-8"?>
<!-- Generator: Adobe Illustrator 17.0.0, SVG Export Plug-In . SVG Version: 6.00 Build 0)  -->
<!DOCTYPE svg PUBLIC "-//W3C//DTD SVG 1.1//EN" "http://www.w3.org/Graphics/SVG/1.1/DTD/svg11.dtd">
<svg version="1.1" xmlns="http://www.w3.org/2000/svg" xmlns:xlink="http://www.w3.org/1999/xlink" x="0px" y="0px" width="48px"
	 height="48px" viewBox="0 0 48 48" enable-background="new 0 0 48 48" xml:space="preserve">
<g id="Layer_3">
	<g>
		<path fill="#010101" d="M37.017,19.584c1.104,0,1.999-0.894,2-1.998c0.001-1.105-0.894-2.001-1.999-2.002L8.089,15.563
			l9.274-8.552c0.812-0.749,0.863-2.015,0.114-2.826c-0.749-0.813-2.014-0.863-2.826-0.115L1.618,16.088
			c-0.605,0.559-0.807,1.431-0.507,2.198c0.299,0.767,1.038,1.271,1.862,1.273l34.042,0.025
			C37.016,19.584,37.016,19.584,37.017,19.584z"/>
		<path fill="#010101" d="M46.871,27.902c-0.299-0.768-1.038-1.274-1.861-1.274l-35.99-0.044c-0.001,0-0.002,0-0.002,0
			c-1.104,0-1.999,0.894-2,1.997c-0.002,1.105,0.893,2.002,1.997,2.003l30.87,0.038l-9.254,8.509
			c-0.813,0.748-0.866,2.014-0.118,2.826c0.394,0.429,0.933,0.647,1.473,0.647c0.484,0,0.969-0.175,1.354-0.527l13.023-11.976
			C46.967,29.543,47.169,28.67,46.871,27.902z"/>
	</g>
</g>
<g id="nyt_x5F_exporter_x5F_info" display="none">
</g>
</svg>
