<?xml version="1.0" encoding="utf-8"?>
<!-- Generator: Adobe Illustrator 17.0.0, SVG Export Plug-In . SVG Version: 6.00 Build 0)  -->
<!DOCTYPE svg PUBLIC "-//W3C//DTD SVG 1.1//EN" "http://www.w3.org/Graphics/SVG/1.1/DTD/svg11.dtd">
<svg version="1.1" xmlns="http://www.w3.org/2000/svg" xmlns:xlink="http://www.w3.org/1999/xlink" x="0px" y="0px" width="48px"
	 height="48px" viewBox="0 0 48 48" enable-background="new 0 0 48 48" xml:space="preserve">
<g id="Layer_3">
	<g>
		<path fill="#010101" d="M11.927,38.501c-1.068-0.002-2.072-0.42-2.827-1.178c-0.754-0.757-1.168-1.762-1.166-2.83L7.977,13.47
			c0.002-1.065,0.418-2.064,1.173-2.811c0.753-0.747,1.757-1.158,2.829-1.158c0.003,0,0.006,0,0.009,0l13.624,0.006l-2.264,3.381
			c-0.614,0.918-0.368,2.16,0.549,2.774c0.342,0.229,0.729,0.338,1.111,0.338c0.645,0,1.278-0.312,1.664-0.888l4.012-5.992
			c0.265-0.396,0.355-0.861,0.308-1.316c0.014-0.097,0.03-0.194,0.03-0.295c0-0.786-0.457-1.459-1.116-1.787l-3.206-4.829
			c-0.611-0.92-1.852-1.173-2.772-0.56c-0.92,0.61-1.171,1.851-0.561,2.772l1.593,2.4L11.992,5.501c-0.005,0-0.011,0-0.017,0
			c-2.13,0-4.133,0.822-5.641,2.316C4.818,9.32,3.98,11.325,3.977,13.462L3.935,34.485c-0.004,2.137,0.824,4.146,2.331,5.661
			c1.508,1.514,3.516,2.35,5.653,2.355c0.001,0,0.002,0,0.004,0c1.102,0,1.998-0.893,2-1.996
			C13.925,39.4,13.032,38.503,11.927,38.501z"/>
		<path fill="#010101" d="M36.058,5.989c-0.001,0-0.002,0-0.004,0c-1.103,0-1.998,0.893-2,1.996
			c-0.002,1.105,0.891,2.002,1.996,2.004c2.206,0.005,3.997,1.803,3.992,4.008L40,34.032c-0.004,2.203-1.798,3.992-4.001,3.992
			c-0.002,0-0.005,0-0.007,0L23.125,38l1.403-1.748c0.691-0.862,0.553-2.121-0.309-2.812c-0.862-0.693-2.121-0.554-2.812,0.308
			l-4.012,5c-0.005,0.006-0.006,0.014-0.011,0.02c-0.122,0.156-0.222,0.328-0.293,0.517c-0.007,0.018-0.011,0.037-0.017,0.055
			c-0.056,0.162-0.091,0.333-0.104,0.511c-0.002,0.03-0.008,0.058-0.009,0.088c-0.001,0.017-0.005,0.032-0.005,0.05
			c0,0.167,0.026,0.327,0.064,0.482c0.011,0.046,0.027,0.089,0.041,0.135c0.051,0.156,0.116,0.305,0.201,0.442
			c0.012,0.019,0.015,0.042,0.028,0.06l3.988,6c0.385,0.579,1.02,0.893,1.668,0.893c0.38,0,0.765-0.108,1.105-0.334
			c0.92-0.612,1.17-1.854,0.559-2.773L22.686,42l13.299,0.024c0.005,0,0.009,0,0.014,0c4.405,0,7.993-3.579,8.001-7.984
			l0.042-20.035C44.05,9.593,40.469,5.998,36.058,5.989z"/>
	</g>
</g>
<g id="nyt_x5F_exporter_x5F_info" display="none">
</g>
</svg>
