<?xml version="1.0" encoding="utf-8"?>
<!-- Generator: Adobe Illustrator 17.0.0, SVG Export Plug-In . SVG Version: 6.00 Build 0)  -->
<!DOCTYPE svg PUBLIC "-//W3C//DTD SVG 1.1//EN" "http://www.w3.org/Graphics/SVG/1.1/DTD/svg11.dtd">
<svg version="1.1" xmlns="http://www.w3.org/2000/svg" xmlns:xlink="http://www.w3.org/1999/xlink" x="0px" y="0px" width="60px"
	 height="60px" viewBox="0 0 60 60" enable-background="new 0 0 60 60" xml:space="preserve">
<g id="Layer_1">
	<g>
		<path fill="#231F20" d="M2,35.82V46h10V35.818c0.663-0.257,1.364-0.854,1.717-2.172C14,32.585,14,31.336,14,30.234V22H0v8.223
			c-0.002,1.732-0.005,3.887,1.143,5.036C1.39,35.507,1.679,35.695,2,35.82z M2,24h10v6.235c0,0.979,0,2.087-0.215,2.894
			C11.552,34,11.22,34,11,34h-1v10H4V34H3c-0.254,0-0.367-0.078-0.442-0.154c-0.562-0.562-0.56-2.403-0.558-3.62V24z"/>
		<path fill="#231F20" d="M58,46V34.734c1.267-0.713,1.998-2.75,2-4.734v-8H46v8c0,2.305,0.798,4.106,2,4.748V46H58z M48,24h10
			v5.999c-0.002,1.767-0.723,2.921-1,3.001h-1v11h-6V34l-0.09-0.917L49.001,33C48.76,32.978,48,32.033,48,30V24z"/>
		<path fill="#231F20" d="M36,56V41.913c2.493-0.451,4-2.63,4-5.913V22H20v14c0,3.283,1.507,5.462,4,5.913V56H36z M22,36V24h16v12
			c0,1.494-0.39,4-3,4h-1v14h-8V40h-1C22.39,40,22,37.494,22,36z"/>
		<path fill="#231F20" d="M58,15c0-2.757-2.243-5-5-5c-2.757,0-5,2.243-5,5c0,2.757,2.243,5,5,5C55.757,20,58,17.757,58,15z M50,15
			c0-1.654,1.346-3,3-3s3,1.346,3,3s-1.346,3-3,3S50,16.654,50,15z"/>
		<path fill="#231F20" d="M2,15c0,2.757,2.243,5,5,5s5-2.243,5-5c0-2.757-2.243-5-5-5S2,12.243,2,15z M10,15c0,1.654-1.346,3-3,3
			s-3-1.346-3-3s1.346-3,3-3S10,13.346,10,15z"/>
		<path fill="#231F20" d="M22,12c0,4.411,3.589,8,8,8c4.411,0,8-3.589,8-8c0-4.411-3.589-8-8-8C25.589,4,22,7.589,22,12z M30,6
			c3.309,0,6,2.691,6,6s-2.691,6-6,6s-6-2.691-6-6S26.691,6,30,6z"/>
	</g>
</g>
<g id="nyt_x5F_exporter_x5F_info" display="none">
</g>
</svg>
