<?xml version="1.0" encoding="utf-8"?>
<!-- Generator: Adobe Illustrator 17.0.0, SVG Export Plug-In . SVG Version: 6.00 Build 0)  -->
<!DOCTYPE svg PUBLIC "-//W3C//DTD SVG 1.1//EN" "http://www.w3.org/Graphics/SVG/1.1/DTD/svg11.dtd">
<svg version="1.1" xmlns="http://www.w3.org/2000/svg" xmlns:xlink="http://www.w3.org/1999/xlink" x="0px" y="0px" width="60px"
	 height="60px" viewBox="0 0 60 60" enable-background="new 0 0 60 60" xml:space="preserve">
<g id="Layer_1">
	<g>
		<path fill="#231F20" d="M1,58.083h38c0.552,0,1-0.448,1-1v-11c0-0.562,0-1.502-5.145-4.399c-2.639-1.486-5.902-3.06-8.855-4.274
			v-3.748c0.885-0.633,2.303-2.243,2.463-6.105c1.045-0.602,1.644-2.136,1.644-3.629c0-0.792-0.178-1.494-0.515-2.029
			c-0.195-0.31-0.439-0.56-0.722-0.745c0.568-1.292,1.446-3.493,0.839-5.923c-0.838-3.351-5.122-4.54-8.535-4.54
			c-3.104,0-6.926,0.982-8.225,3.679c-1.538-0.118-2.308,0.514-2.657,1.041c-1.018,1.537,0.047,4.047,0.751,5.708
			c0.001,0.003,0.003,0.007,0.005,0.011c-0.308,0.188-0.572,0.449-0.782,0.775c-0.351,0.545-0.536,1.259-0.536,2.065
			c0,1.476,0.595,2.991,1.633,3.588c0.175,3.852,1.709,5.477,2.636,6.111v3.74c-2.953,1.215-6.216,2.789-8.855,4.274
			C0,44.582,0,45.522,0,46.083v11C0,57.636,0.448,58.083,1,58.083z M2,46.242c0.776-1.074,6.871-4.629,13.372-7.229
			C15.751,38.86,16,38.492,16,38.083v-5c0-0.414-0.285-0.795-0.671-0.944c-0.02-0.007-1.981-0.816-1.981-5.317
			c0-0.265-0.093-0.518-0.28-0.705s-0.429-0.291-0.694-0.291c-0.273-0.106-0.804-1.25-0.6-2.349c0.13-0.699,0.43-0.699,0.574-0.699
			c0.552,0,1-0.448,1-1c0-0.336-0.133-0.664-0.462-1.44c-0.334-0.787-1.35-3.182-0.925-3.823c0.098-0.149,0.489-0.16,0.606-0.16
			c0.237,0,0.521,0.033,0.842,0.099c0.523,0.107,1.04-0.218,1.17-0.737c0.52-2.079,3.783-3.025,6.595-3.025
			c2.812,0,6.075,0.947,6.595,3.025c0.479,1.915-0.34,3.758-0.829,4.859c-0.237,0.534-0.38,0.856-0.38,1.203c0,0.552,0.448,1,1,1
			c0.125,0,0.383,0,0.505,0.653c0.206,1.098-0.341,2.29-0.586,2.391c-0.552,0-1,0.448-1,1c0,4.487-1.804,5.314-1.799,5.314
			C24.273,32.274,24,32.655,24,33.083v5c0,0.409,0.249,0.777,0.628,0.929c6.501,2.6,12.595,6.155,13.372,7.229v9.842H2V46.242z"/>
		<path fill="#231F20" d="M45,56.083c-0.552,0-1,0.448-1,1c0,0.552,0.448,1,1,1h14c0.552,0,1-0.448,1-1V45.735
			c0-1.465-1.92-2.114-6.65-3.569c-1.714-0.527-3.633-1.118-5.35-1.767v-2.656c1.062-0.55,2.922-1.965,3.15-5.204
			c0.851-0.628,1.29-2.069,1.29-3.498c0-1.196-0.333-2.133-0.907-2.681c0.602-1.066,1.506-2.925,0.85-4.898
			c-0.866-2.599-4.448-3.521-7.253-3.521c-2.507,0-5.636,0.737-6.89,2.75c-0.952-0.06-1.676,0.2-2.157,0.768
			c-1.069,1.263-0.291,3.422,0.233,4.79c-0.252,0.198-0.468,0.462-0.632,0.782c-0.341,0.663-0.412,1.443-0.412,1.981
			c0,1.447,0.45,2.907,1.32,3.534c0.24,2.977,2.03,4.577,3.408,5.227v2.308c0,0.552,0.448,1,1,1s1-0.448,1-1v-3
			c0-0.456-0.31-0.855-0.752-0.969c-0.027-0.007-2.683-0.728-2.683-4.249c0-0.499-0.365-0.912-0.842-0.987
			c-0.206-0.251-0.499-1.134-0.445-2.093c0.039-0.672,0.229-0.936,0.287-0.963c0.552,0,1-0.448,1-1c0-0.298-0.109-0.582-0.327-1.148
			c-0.843-2.191-0.755-2.771-0.628-2.922c0.028-0.034,0.3-0.141,1.016,0.006c0.497,0.103,0.989-0.184,1.149-0.663
			c0.416-1.248,2.668-2.153,5.355-2.153s4.939,0.905,5.355,2.153c0.442,1.328-0.374,2.735-0.862,3.576
			c-0.28,0.483-0.45,0.775-0.45,1.152c0,0.552,0.433,0.991,0.985,0.991c0.077,0.055,0.253,0.401,0.278,1.066
			c0.037,0.955-0.243,1.763-0.428,2c-0.474,0.079-0.836,0.491-0.836,0.987c0,3.477-2.352,4.227-2.441,4.254
			C46.3,36.24,46,36.634,46,37.083v4c0,0.409,0.249,0.777,0.629,0.929c1.943,0.776,4.169,1.461,6.133,2.065
			c1.948,0.6,4.575,1.408,5.238,1.901v10.104H45z"/>
	</g>
</g>
<g id="nyt_x5F_exporter_x5F_info" display="none">
</g>
</svg>
