<?xml version="1.0" encoding="utf-8"?>
<!-- Generator: Adobe Illustrator 17.0.0, SVG Export Plug-In . SVG Version: 6.00 Build 0)  -->
<!DOCTYPE svg PUBLIC "-//W3C//DTD SVG 1.1//EN" "http://www.w3.org/Graphics/SVG/1.1/DTD/svg11.dtd">
<svg version="1.1" xmlns="http://www.w3.org/2000/svg" xmlns:xlink="http://www.w3.org/1999/xlink" x="0px" y="0px" width="60px"
	 height="60px" viewBox="0 0 60 60" enable-background="new 0 0 60 60" xml:space="preserve">
<g id="Layer_1">
	<g>
		<path fill="#231F20" d="M42,39c0-1.415-0.975-3.654-2.783-4.17L34,33.219v-2.643c2.007-1.694,3.305-4.326,3.305-7.284
			c0-5.1-3.843-9.248-8.565-9.248c-4.723,0-8.565,4.149-8.565,9.248c0,3.209,1.522,6.039,3.826,7.699v2.225l-5.275,1.608
			C16.866,35.356,16,37.63,16,39v9h26V39z M28.739,16.044c3.015,0,5.556,2.259,6.323,5.323c-0.456,0.201-1.115,0.317-1.847,0.209
			c-0.612-0.09-1.73-0.409-2.334-1.532c-0.149-0.279-0.422-0.47-0.735-0.516c-0.312-0.046-0.629,0.058-0.852,0.282
			c-2.006,2.007-5.06,2.08-6.808,1.282C23.331,18.168,25.814,16.044,28.739,16.044z M22.174,23.292c0-0.062,0.007-0.122,0.008-0.183
			c2.252,0.794,5.329,0.558,7.644-1.131c0.779,0.837,1.86,1.395,3.098,1.577c0.287,0.042,0.574,0.062,0.858,0.062
			c0.534,0,1.044-0.087,1.519-0.226c-0.049,3.952-2.971,7.151-6.561,7.151C25.119,30.542,22.174,27.29,22.174,23.292z M40,46H18v-7
			c0-0.76,0.535-2.042,1.292-2.258L26,34.697v-2.649c0.861,0.315,1.781,0.494,2.739,0.494c1.154,0,2.255-0.251,3.261-0.7v2.853
			l6.647,2.053C39.442,36.974,40,38.344,40,39V46z"/>
		<path fill="#231F20" d="M54,4h-2V1c0-0.552-0.447-1-1-1H9H3C1.346,0,0,1.346,0,3v54c0,1.654,1.346,3,3,3h6h42c0.553,0,1-0.448,1-1
			v-3h2c3.309,0,6-2.691,6-6v-7V31V17v-7C60,6.691,57.309,4,54,4z M2,57V3c0-0.551,0.448-1,1-1h5v56H3C2.448,58,2,57.551,2,57z
			 M50,58H10V2h40V58z M58,30h-6V18h6V30z M52,32h6v10h-6V32z M54,6c2.206,0,4,1.794,4,4v6h-6V6H54z M58,50c0,2.206-1.794,4-4,4h-2
			V44h6V50z"/>
	</g>
</g>
<g id="nyt_x5F_exporter_x5F_info" display="none">
</g>
</svg>
