<?xml version="1.0" encoding="utf-8"?>
<!-- Generator: Adobe Illustrator 17.0.0, SVG Export Plug-In . SVG Version: 6.00 Build 0)  -->
<!DOCTYPE svg PUBLIC "-//W3C//DTD SVG 1.1//EN" "http://www.w3.org/Graphics/SVG/1.1/DTD/svg11.dtd">
<svg version="1.1" xmlns="http://www.w3.org/2000/svg" xmlns:xlink="http://www.w3.org/1999/xlink" x="0px" y="0px" width="60px"
	 height="60px" viewBox="0 0 60 60" enable-background="new 0 0 60 60" xml:space="preserve">
<g id="Layer_1">
	<g>
		<path fill="#231F20" d="M11.652,6c-0.553,0-1,0.448-1,1s0.447,1,1,1H51c0.553,0,1-0.448,1-1s-0.447-1-1-1H11.652z"/>
		<path fill="#231F20" d="M4,50c-0.553,0-1,0.448-1,1s0.447,1,1,1h2v2c0,3.533,2.324,6,5.652,6H54V10.089L12,10c-1.494,0-4-0.39-4-3
			s2.506-3,4-3h41c0.553,0,1-0.448,1-1s-0.447-1-1-1H12C8.299,2,6,3.916,6,7v11H4c-0.553,0-1,0.448-1,1s0.447,1,1,1h2v6H4
			c-0.553,0-1,0.448-1,1s0.447,1,1,1h2v6H4c-0.553,0-1,0.448-1,1s0.447,1,1,1h2v6H4c-0.553,0-1,0.448-1,1s0.447,1,1,1h2v6H4z M8,44
			h2c0.553,0,1-0.448,1-1s-0.447-1-1-1H8v-6h2c0.553,0,1-0.448,1-1s-0.447-1-1-1H8v-6h2c0.553,0,1-0.448,1-1s-0.447-1-1-1H8v-6
			h2.044c0.553,0,1-0.448,1-1s-0.447-1-1-1H8v-7.052C9.01,11.628,10.368,12,11.998,12L52,12.085V58H11.652C9.434,58,8,56.43,8,54v-2
			h2c0.553,0,1-0.448,1-1s-0.447-1-1-1H8V44z"/>
		<path fill="#231F20" d="M44,44.956c0-1.838-1.385-3.672-3.152-4.176l-5.674-1.622v-2.24c2.28-1.664,3.782-4.481,3.782-7.67
			c0-5.1-3.842-9.249-8.564-9.249c-4.723,0-8.565,4.149-8.565,9.249c0,3.189,1.502,6.006,3.782,7.67v2.24l-5.677,1.622
			C17.396,41.505,16,42.988,16,44.956V50h28V44.956z M30.392,22c3.038,0,5.593,2.293,6.338,5.392
			c-0.422,0.191-1.045,0.307-1.784,0.198c-0.509-0.075-1.763-0.38-2.413-1.59c-0.149-0.279-0.422-0.47-0.735-0.516
			c-0.313-0.046-0.629,0.059-0.853,0.282c-2.008,2.01-5.063,2.082-6.808,1.282C24.983,24.124,27.466,22,30.392,22z M23.826,29.249
			c0-0.062,0.007-0.122,0.008-0.184c2.251,0.794,5.325,0.56,7.641-1.129c0.798,0.868,1.907,1.446,3.179,1.633
			c0.292,0.043,0.582,0.064,0.866,0.064c0.505,0,0.981-0.081,1.427-0.208c-0.086,3.916-2.99,7.073-6.556,7.073
			C26.771,36.499,23.826,33.246,23.826,29.249z M42,48H18v-3.044c0-1.276,1.349-1.93,2.48-2.253l7.128-2.036v-2.68
			c0.874,0.326,1.808,0.511,2.783,0.511c0.975,0,1.908-0.185,2.782-0.511v2.68l7.125,2.037C41.205,42.962,42,44.015,42,44.956V48z"
			/>
	</g>
</g>
<g id="nyt_x5F_exporter_x5F_info" display="none">
</g>
</svg>
