<?xml version="1.0" encoding="utf-8"?>
<!-- Generator: Adobe Illustrator 17.0.0, SVG Export Plug-In . SVG Version: 6.00 Build 0)  -->
<!DOCTYPE svg PUBLIC "-//W3C//DTD SVG 1.1//EN" "http://www.w3.org/Graphics/SVG/1.1/DTD/svg11.dtd">
<svg version="1.1" xmlns="http://www.w3.org/2000/svg" xmlns:xlink="http://www.w3.org/1999/xlink" x="0px" y="0px" width="60px"
	 height="60px" viewBox="0 0 60 60" enable-background="new 0 0 60 60" xml:space="preserve">
<g id="Layer_1">
	<g>
		<path fill="#231F20" d="M59.923,0.618c-0.101-0.245-0.296-0.439-0.541-0.541C59.26,0.027,59.13,0,59,0H41.348
			c-0.552,0-1,0.448-1,1s0.448,1,1,1h15.238L35.293,23.293c-0.067,0.067-0.107,0.149-0.151,0.228C31.405,20.104,26.45,18,21,18
			C9.42,18,0,27.42,0,39s9.42,21,21,21s21-9.42,21-21c0-5.45-2.104-10.405-5.521-14.142c0.079-0.044,0.161-0.084,0.228-0.151
			L58,3.414v15.238c0,0.552,0.448,1,1,1s1-0.448,1-1V1C60,0.87,59.973,0.74,59.923,0.618z M21,58C10.523,58,2,49.477,2,39
			c0-10.477,8.523-19,19-19s19,8.523,19,19C40,49.477,31.477,58,21,58z"/>
	</g>
</g>
<g id="nyt_x5F_exporter_x5F_info" display="none">
</g>
</svg>
