<?xml version="1.0" encoding="utf-8"?>
<!-- Generator: Adobe Illustrator 17.0.0, SVG Export Plug-In . SVG Version: 6.00 Build 0)  -->
<!DOCTYPE svg PUBLIC "-//W3C//DTD SVG 1.1//EN" "http://www.w3.org/Graphics/SVG/1.1/DTD/svg11.dtd">
<svg version="1.1" xmlns="http://www.w3.org/2000/svg" xmlns:xlink="http://www.w3.org/1999/xlink" x="0px" y="0px" width="60px"
	 height="60px" viewBox="0 0 60 60" enable-background="new 0 0 60 60" xml:space="preserve">
<g id="Layer_1">
	<g>
		<path fill="#231F20" d="M13.978,44.732V52h-4c-0.552,0-1,0.448-1,1s0.448,1,1,1h4v5c0,0.552,0.448,1,1,1s1-0.448,1-1v-5h4
			c0.552,0,1-0.448,1-1s-0.448-1-1-1h-4v-7.135C24.137,44.818,30.761,38.17,30.761,30c0-4.436-1.958-8.607-5.374-11.443
			c-0.424-0.353-1.055-0.294-1.408,0.13c-0.353,0.425-0.295,1.056,0.13,1.408c2.956,2.456,4.651,6.065,4.651,9.905
			c0,7.096-5.773,12.87-12.87,12.87S3.022,37.096,3.022,30c0-6.702,5.026-12.212,11.691-12.817c0.55-0.05,0.956-0.537,0.906-1.086
			c-0.05-0.55-0.534-0.944-1.087-0.906C6.83,15.89,1.022,22.256,1.022,30C1.022,37.549,6.682,43.789,13.978,44.732z"/>
		<path fill="#231F20" d="M55.978,11V1c0-0.13-0.027-0.26-0.077-0.382c-0.101-0.245-0.296-0.439-0.541-0.541
			C55.238,0.027,55.108,0,54.978,0h-10c-0.552,0-1,0.448-1,1s0.448,1,1,1h7.586L40.791,13.774c-2.616-2.288-6.028-3.687-9.769-3.687
			c-8.199,0-14.87,6.67-14.87,14.87c0,4.454,1.972,8.636,5.41,11.474c0.427,0.352,1.057,0.291,1.408-0.135
			c0.352-0.426,0.291-1.057-0.135-1.408c-2.977-2.456-4.684-6.076-4.684-9.931c0-7.096,5.773-12.87,12.87-12.87
			s12.869,5.773,12.869,12.87c0,6.702-5.026,12.212-11.69,12.815c-0.55,0.05-0.956,0.536-0.906,1.086
			c0.047,0.52,0.483,0.91,0.995,0.91c0.03,0,0.061-0.002,0.091-0.004c7.702-0.699,13.51-7.065,13.51-14.808
			c0-3.74-1.398-7.153-3.686-9.768L53.978,3.414V11c0,0.552,0.448,1,1,1S55.978,11.552,55.978,11z"/>
	</g>
</g>
<g id="nyt_x5F_exporter_x5F_info" display="none">
</g>
</svg>
