<?xml version="1.0" encoding="utf-8"?>
<!-- Generator: Adobe Illustrator 17.0.0, SVG Export Plug-In . SVG Version: 6.00 Build 0)  -->
<!DOCTYPE svg PUBLIC "-//W3C//DTD SVG 1.1//EN" "http://www.w3.org/Graphics/SVG/1.1/DTD/svg11.dtd">
<svg version="1.1" xmlns="http://www.w3.org/2000/svg" xmlns:xlink="http://www.w3.org/1999/xlink" x="0px" y="0px" width="60px"
	 height="60px" viewBox="0 0 60 60" enable-background="new 0 0 60 60" xml:space="preserve">
<g id="Layer_1">
	<g>
		<path fill="#231F20" d="M59,10H1c-0.552,0-1,0.448-1,1v40c0,0.552,0.448,1,1,1h10c0.552,0,1-0.448,1-1v-1c0-1.443,1.147-3,3-3
			s3,1.557,3,3v1c0,0.552,0.448,1,1,1h22c0.552,0,1-0.448,1-1v-1c0-1.878,1.122-3,3-3s3,1.122,3,3v1c0,0.552,0.448,1,1,1h10
			c0.552,0,1-0.448,1-1V11C60,10.448,59.552,10,59,10z M58,50h-8c0-2.991-2.009-5-5-5c-2.991,0-5,2.009-5,5H20c0-2.405-1.912-5-5-5
			c-3.088,0-5,2.595-5,5H2V12h56V50z"/>
		<path fill="#231F20" d="M26,37c0-4.282-1.839-7.197-5.164-8.391C22.157,27.507,23,25.851,23,24c0-3.309-2.691-6-6-6s-6,2.691-6,6
			c0,1.851,0.843,3.507,2.164,4.609C9.839,29.803,8,32.718,8,37v1h18V37z M13,24c0-2.206,1.794-4,4-4c2.206,0,4,1.794,4,4
			c0,2.206-1.794,4-4,4C14.794,28,13,26.206,13,24z M10.039,36c0.325-3.982,2.662-6,6.961-6c4.299,0,6.636,2.018,6.961,6H10.039z"/>
		<rect x="32" y="34" fill="#231F20" width="20" height="2"/>
		<rect x="32" y="30" fill="#231F20" width="20" height="2"/>
		<rect x="32" y="26" fill="#231F20" width="20" height="2"/>
		<rect x="32" y="20" fill="#231F20" width="11" height="2"/>
	</g>
</g>
<g id="nyt_x5F_exporter_x5F_info" display="none">
</g>
</svg>
