<?xml version="1.0" encoding="utf-8"?>
<!-- Generator: Adobe Illustrator 17.0.0, SVG Export Plug-In . SVG Version: 6.00 Build 0)  -->
<!DOCTYPE svg PUBLIC "-//W3C//DTD SVG 1.1//EN" "http://www.w3.org/Graphics/SVG/1.1/DTD/svg11.dtd">
<svg version="1.1" xmlns="http://www.w3.org/2000/svg" xmlns:xlink="http://www.w3.org/1999/xlink" x="0px" y="0px" width="60px"
	 height="60px" viewBox="0 0 60 60" enable-background="new 0 0 60 60" xml:space="preserve">
<g id="Layer_1">
	<g>
		<path fill="#231F20" d="M59,18H11c-0.553,0-1,0.448-1,1v34c0,0.552,0.447,1,1,1h10c0.553,0,1-0.448,1-1v-2c0-1.369,0.521-3,3-3
			s3,1.631,3,3v2c0,0.552,0.447,1,1,1h12c0.553,0,1-0.448,1-1v-2c0-1.369,0.521-3,3-3s3,1.631,3,3v2c0,0.552,0.447,1,1,1h10
			c0.553,0,1-0.448,1-1V19C60,18.448,59.553,18,59,18z M58,52h-8v-1c0-2.417-1.314-5-5-5c-3.687,0-5,2.583-5,5v1H30v-1
			c0-2.417-1.314-5-5-5c-3.687,0-5,2.583-5,5v1h-8V20h46V52z"/>
		<path fill="#231F20" d="M1,44h6v-2H2V10h46v5h2V9c0-0.552-0.447-1-1-1H1C0.447,8,0,8.448,0,9v34C0,43.552,0.447,44,1,44z"/>
		<path fill="#231F20" d="M35,41c0-3.233-2.199-6.626-6.315-7.669C30.066,32.492,31,30.986,31,29.255
			c0-2.637-2.146-4.783-4.782-4.783c-2.638,0-4.783,2.146-4.783,4.783c0,1.684,0.879,3.16,2.198,4.012
			C19.535,34.228,18,37.705,18,41v1h17V41z M26.218,26.472c1.534,0,2.782,1.248,2.782,2.783c0,1.534-1.248,2.783-2.782,2.783
			c-1.534,0-2.783-1.248-2.783-2.783C23.435,27.721,24.684,26.472,26.218,26.472z M20.06,40c0.243-2.017,1.375-5,5.94-5
			c4.462,0,6.454,2.708,6.9,5H20.06z"/>
		<rect x="40.087" y="38" fill="#231F20" width="11.913" height="2"/>
		<rect x="40" y="32" fill="#231F20" width="12" height="2"/>
		<rect x="40.087" y="26" fill="#231F20" width="5.913" height="2"/>
	</g>
</g>
<g id="nyt_x5F_exporter_x5F_info" display="none">
</g>
</svg>
