<?xml version="1.0" encoding="utf-8"?>
<!-- Generator: Adobe Illustrator 17.0.0, SVG Export Plug-In . SVG Version: 6.00 Build 0)  -->
<!DOCTYPE svg PUBLIC "-//W3C//DTD SVG 1.1//EN" "http://www.w3.org/Graphics/SVG/1.1/DTD/svg11.dtd">
<svg version="1.1" xmlns="http://www.w3.org/2000/svg" xmlns:xlink="http://www.w3.org/1999/xlink" x="0px" y="0px" width="60px"
	 height="60px" viewBox="0 0 60 60" enable-background="new 0 0 60 60" xml:space="preserve">
<g id="Layer_1">
	<g>
		<path fill="#231F20" d="M1,54h10c0.553,0,1-0.448,1-1v-3c0-2.43,1.57-4,4-4s4,1.57,4,4v3c0,0.552,0.447,1,1,1h18
			c0.553,0,1-0.448,1-1v-3c0-2.43,1.57-4,4-4s4,1.57,4,4v3c0,0.552,0.447,1,1,1h10c0.553,0,1-0.448,1-1V9c0-0.552-0.447-1-1-1H1
			C0.447,8,0,8.448,0,9v44C0,53.552,0.447,54,1,54z M2,10h56v42h-8v-2c0-3.533-2.468-6-6-6c-3.532,0-6,2.467-6,6v2H22v-2
			c0-3.533-2.468-6-6-6c-3.532,0-6,2.467-6,6v2H2V10z"/>
		<rect x="32.521" y="36" fill="#231F20" width="19.479" height="2"/>
		<rect x="32.521" y="30" fill="#231F20" width="19.479" height="2"/>
		<rect x="32.521" y="24" fill="#231F20" width="19.479" height="2"/>
		<rect x="32.521" y="18" fill="#231F20" width="9.479" height="2"/>
		<path fill="#231F20" d="M28,37v-4.304c0-0.163-0.04-0.324-0.116-0.468c-0.086-0.162-2.036-3.74-6.884-4.183v-1.452
			c0.912-0.597,2.435-2.069,2.435-5.245c0-2.55,0-6.044-6.043-6.044c-6.044,0-6.044,3.493-6.044,6.044
			c0,3.219,1.673,4.688,2.652,5.272v1.424c-4.85,0.431-7.656,3.872-7.781,4.027C6.077,32.249,6,32.469,6,32.696V37
			c0,0.552,0.447,1,1,1h20C27.553,38,28,37.552,28,37z M26,36H8v-2.922C8.732,32.31,11.249,30,15,30c0.553,0,1-0.448,1-1v-3
			c0-0.432-0.277-0.815-0.689-0.95c-0.019-0.006-1.964-0.679-1.964-3.702c0-2.521,0-4.044,4.044-4.044
			c4.043,0,4.043,1.522,4.043,4.044c0,2.972-1.714,3.688-1.771,3.71C19.266,25.2,19,25.578,19,26v3c0,0.552,0.447,1,1,1
			c3.766,0,5.549,2.285,6,2.974V36z"/>
	</g>
</g>
<g id="nyt_x5F_exporter_x5F_info" display="none">
</g>
</svg>
