<?xml version="1.0" encoding="utf-8"?>
<!-- Generator: Adobe Illustrator 17.0.0, SVG Export Plug-In . SVG Version: 6.00 Build 0)  -->
<!DOCTYPE svg PUBLIC "-//W3C//DTD SVG 1.1//EN" "http://www.w3.org/Graphics/SVG/1.1/DTD/svg11.dtd">
<svg version="1.1" xmlns="http://www.w3.org/2000/svg" xmlns:xlink="http://www.w3.org/1999/xlink" x="0px" y="0px" width="60px"
	 height="60px" viewBox="0 0 60 60" enable-background="new 0 0 60 60" xml:space="preserve">
<g id="Layer_1">
	<g>
		<path fill="#231F20" d="M59,18H41c-0.553,0-1,0.448-1,1s0.447,1,1,1h17v8H2v-8h17c0.553,0,1-0.448,1-1s-0.447-1-1-1H1
			c-0.553,0-1,0.448-1,1v40c0,0.552,0.447,1,1,1h58c0.553,0,1-0.448,1-1V19C60,18.448,59.553,18,59,18z M2,58V30h56v28H2z"/>
		<path fill="#231F20" d="M31,38h11c0.553,0,1-0.448,1-1s-0.447-1-1-1H31c-0.553,0-1,0.448-1,1S30.447,38,31,38z"/>
		<path fill="#231F20" d="M46,42H31c-0.553,0-1,0.448-1,1s0.447,1,1,1h15c0.553,0,1-0.448,1-1S46.553,42,46,42z"/>
		<path fill="#231F20" d="M44,48H31c-0.553,0-1,0.448-1,1s0.447,1,1,1h13c0.553,0,1-0.448,1-1S44.553,48,44,48z"/>
		<path fill="#231F20" d="M37,24c0.553,0,1-0.448,1-1V12.521c0-0.066-0.007-0.131-0.02-0.196C37.158,8.206,33.802,5.217,30,5.217
			c-3.802,0-7.158,2.989-7.981,7.108C22.007,12.39,22,12.456,22,12.521V23c0,0.552,0.447,1,1,1H37z M24,12.624
			c0.667-3.139,3.177-5.406,6-5.406c2.823,0,5.333,2.268,6,5.406V22H24V12.624z"/>
		<path fill="#231F20" d="M20.496,43.868c1.018-0.878,1.677-2.161,1.677-3.607c0-2.637-2.146-4.782-4.782-4.782
			c-2.638,0-4.783,2.146-4.783,4.782c0,1.446,0.659,2.729,1.677,3.607c-2.57,1.474-4.198,4.821-4.198,9.132c0,0.552,0.447,1,1,1
			h12.608c0.007,0,0.015,0,0.02,0c0.553,0,1-0.448,1-1c0-0.071-0.007-0.14-0.021-0.206C24.643,48.582,23.026,45.318,20.496,43.868z
			 M14.608,40.261c0-1.534,1.249-2.782,2.783-2.782c1.534,0,2.782,1.248,2.782,2.782c0,1.534-1.248,2.783-2.782,2.783
			C15.857,43.044,14.608,41.795,14.608,40.261z M12.121,52c0.288-4.144,2.375-6.956,5.271-6.956c2.895,0,4.981,2.813,5.269,6.956
			H12.121z"/>
	</g>
</g>
<g id="nyt_x5F_exporter_x5F_info" display="none">
</g>
</svg>
