<?xml version="1.0" encoding="utf-8"?>
<!-- Generator: Adobe Illustrator 17.0.0, SVG Export Plug-In . SVG Version: 6.00 Build 0)  -->
<!DOCTYPE svg PUBLIC "-//W3C//DTD SVG 1.1//EN" "http://www.w3.org/Graphics/SVG/1.1/DTD/svg11.dtd">
<svg version="1.1" xmlns="http://www.w3.org/2000/svg" xmlns:xlink="http://www.w3.org/1999/xlink" x="0px" y="0px" width="60px"
	 height="60px" viewBox="0 0 60 60" enable-background="new 0 0 60 60" xml:space="preserve">
<g id="Layer_1">
	<g>
		<path fill="#231F20" d="M24,41.783v2.533l-6.276,2.446l0.727,1.863L26,45.684v-2.576c1.053,0.5,2.213,0.782,3.435,0.782
			c0.893,0,1.755-0.15,2.565-0.425v2.247l8.456,2.927l0.654-1.89L34,44.288v-1.836c2.399-1.641,4-4.526,4-7.813
			c0-5.1-3.842-9.248-8.565-9.248c-4.723,0-8.565,4.149-8.565,9.248C20.87,37.514,22.09,40.085,24,41.783z M29.435,41.89
			c-3.62,0-6.565-3.252-6.565-7.25c0-0.062,0.007-0.122,0.008-0.183c2.252,0.794,5.328,0.56,7.643-1.131
			c0.774,0.833,1.844,1.388,3.066,1.568c0.282,0.042,0.565,0.062,0.844,0.062c0.55,0,1.077-0.091,1.565-0.24
			C35.959,38.678,33.031,41.89,29.435,41.89z M29.435,27.391c3.007,0,5.542,2.246,6.317,5.296c-0.454,0.213-1.127,0.338-1.872,0.229
			c-0.602-0.089-1.701-0.405-2.302-1.524c-0.15-0.279-0.422-0.47-0.735-0.516c-0.311-0.048-0.629,0.059-0.853,0.282
			c-2.008,2.008-5.063,2.08-6.808,1.282C24.027,29.515,26.509,27.391,29.435,27.391z"/>
		<path fill="#231F20" d="M29,0c-3.991,0-7,3.009-7,7v3H9c-0.552,0-1,0.448-1,1v48c0,0.552,0.448,1,1,1h42c0.552,0,1-0.448,1-1V11
			c0-0.552-0.448-1-1-1H36V7C36,2.944,33.056,0,29,0z M34.993,20.087c0.002,0,0.005,0,0.007,0c0.264,0,0.517-0.104,0.705-0.291
			C35.894,19.609,36,19.354,36,19.087V16h10v38H14V16h8v3c0,0.549,0.443,0.996,0.993,1L34.993,20.087z M24,7c0-2.897,2.103-5,5-5
			c2.944,0,5,2.056,5,5v11.08l-10-0.072V7z M50,12v46H10V12h12v2h-9c-0.552,0-1,0.448-1,1v40c0,0.552,0.448,1,1,1h34
			c0.552,0,1-0.448,1-1V15c0-0.552-0.448-1-1-1H36v-2H50z"/>
		<path fill="#231F20" d="M29,4c-1.654,0-3,1.346-3,3s1.346,3,3,3s3-1.346,3-3S30.654,4,29,4z M29,8c-0.551,0-1-0.449-1-1
			c0-0.551,0.449-1,1-1c0.551,0,1,0.449,1,1C30,7.551,29.551,8,29,8z"/>
	</g>
</g>
<g id="nyt_x5F_exporter_x5F_info" display="none">
</g>
</svg>
