<?xml version="1.0" encoding="utf-8"?>
<!-- Generator: Adobe Illustrator 17.0.0, SVG Export Plug-In . SVG Version: 6.00 Build 0)  -->
<!DOCTYPE svg PUBLIC "-//W3C//DTD SVG 1.1//EN" "http://www.w3.org/Graphics/SVG/1.1/DTD/svg11.dtd">
<svg version="1.1" xmlns="http://www.w3.org/2000/svg" xmlns:xlink="http://www.w3.org/1999/xlink" x="0px" y="0px" width="60px"
	 height="60px" viewBox="0 0 60 60" enable-background="new 0 0 60 60" xml:space="preserve">
<g id="Layer_1">
	<g>
		<path fill="#231F20" d="M20,10c0,5.514,4.486,10,10,10c5.514,0,10-4.486,10-10c0-5.514-4.486-10-10-10C24.486,0,20,4.486,20,10z
			 M38,10c0,4.411-3.589,8-8,8c-4.411,0-8-3.589-8-8c0-4.411,3.589-8,8-8C34.411,2,38,5.589,38,10z"/>
		<path fill="#231F20" d="M36,60V43.2c4.229-2.437,9-7.912,9-20.2v-1H15v1c0,12.632,5.415,18.01,9,20.185V60H36z M17.013,24h25.976
			c-0.203,8.81-3.115,14.927-8.452,17.723L34,42.004V58h-8V42.019l-0.517-0.285C20.216,38.828,17.227,32.552,17.013,24z"/>
	</g>
</g>
<g id="nyt_x5F_exporter_x5F_info" display="none">
</g>
</svg>
