<?xml version="1.0" encoding="utf-8"?>
<!-- Generator: Adobe Illustrator 17.0.0, SVG Export Plug-In . SVG Version: 6.00 Build 0)  -->
<!DOCTYPE svg PUBLIC "-//W3C//DTD SVG 1.1//EN" "http://www.w3.org/Graphics/SVG/1.1/DTD/svg11.dtd">
<svg version="1.1" xmlns="http://www.w3.org/2000/svg" xmlns:xlink="http://www.w3.org/1999/xlink" x="0px" y="0px" width="60px"
	 height="60px" viewBox="0 0 60 60" enable-background="new 0 0 60 60" xml:space="preserve">
<g id="Layer_1">
	<g>
		<path fill="#231F20" d="M41.133,39.719c3.883-4.222,6.258-9.85,6.258-16.023C47.392,10.63,36.762,0,23.695,0
			C10.63,0,0,10.63,0,23.696c0,13.065,10.63,23.695,23.695,23.695c6.174,0,11.802-2.375,16.024-6.258l18.574,18.574
			C58.488,59.902,58.744,60,59,60c0.256,0,0.512-0.098,0.707-0.293c0.391-0.391,0.391-1.023,0-1.414L41.133,39.719z M2,23.696
			C2,11.733,11.732,2,23.695,2c11.963,0,21.696,9.733,21.696,21.696s-9.733,21.695-21.696,21.695C11.732,45.391,2,35.659,2,23.696z"
			/>
		<path fill="#231F20" d="M28,27.229c2.772-1.827,4.652-5.317,4.652-9.318c0-5.885-4.064-10.673-9.06-10.673
			c-4.998,0-9.063,4.788-9.063,10.673c0,3.4,1.361,6.427,3.471,8.383v4.043l-8.562,3.615l0.777,1.843L20,31.663v-3.957
			c1.103,0.563,2.316,0.879,3.593,0.879c0.834,0,1.639-0.144,2.407-0.395v3.484l10.509,4.231l0.746-1.855L28,30.325V27.229z
			 M23.593,9.238c3.284,0,6.044,2.773,6.829,6.511c-2.101,0.382-3.36-0.301-4.619-2.502l-0.907-1.586l-0.847,1.62
			c-0.668,1.277-3.014,2.439-4.921,2.439c-0.748,0-1.59-0.146-2.281-0.381C17.741,11.808,20.427,9.238,23.593,9.238z M16.529,17.911
			c0-0.196,0.013-0.388,0.024-0.581c0.818,0.241,1.72,0.39,2.575,0.39c2.074,0,4.343-0.945,5.731-2.271
			c1.24,1.63,2.698,2.405,4.533,2.405c0.398,0,0.819-0.045,1.254-0.116c0.001,0.058,0.007,0.115,0.007,0.174
			c0,4.783-3.167,8.674-7.06,8.674C19.698,26.585,16.529,22.694,16.529,17.911z"/>
	</g>
</g>
<g id="nyt_x5F_exporter_x5F_info" display="none">
</g>
</svg>
