<?xml version="1.0" encoding="utf-8"?>
<!-- Generator: Adobe Illustrator 17.0.0, SVG Export Plug-In . SVG Version: 6.00 Build 0)  -->
<!DOCTYPE svg PUBLIC "-//W3C//DTD SVG 1.1//EN" "http://www.w3.org/Graphics/SVG/1.1/DTD/svg11.dtd">
<svg version="1.1" xmlns="http://www.w3.org/2000/svg" xmlns:xlink="http://www.w3.org/1999/xlink" x="0px" y="0px" width="60px"
	 height="60px" viewBox="0 0 60 60" enable-background="new 0 0 60 60" xml:space="preserve">
<g id="Layer_1">
	<g>
		<path fill="#231F20" d="M15.044,23c0,3.018,0.545,7.812,2.081,11.394c0.218,0.509,0.807,0.744,1.313,0.525
			c0.507-0.218,0.742-0.806,0.524-1.313c-1.187-2.768-1.787-6.636-1.899-9.606h25.961c-0.112,2.968-0.713,6.836-1.899,9.606
			c-0.218,0.508,0.018,1.096,0.525,1.313C41.778,34.974,41.912,35,42.044,35c0.388,0,0.757-0.228,0.919-0.607
			c1.536-3.584,2.081-8.378,2.081-11.394c0-0.552-0.447-1-1-1h-28C15.491,22,15.044,22.448,15.044,23z"/>
		<path fill="#231F20" d="M5.044,39c0,0.552,0.447,1,1,1h14.264l2.869,20h13.737l2.782-20h14.26c0.553,0,1-0.448,1-1s-0.447-1-1-1
			H39.975H20.021H6.044C5.491,38,5.044,38.448,5.044,39z M37.678,40l-2.504,18H24.911l-2.584-18H37.678z"/>
		<path fill="#231F20" d="M40.044,10c0-5.514-4.486-10-10-10c-5.514,0-10,4.486-10,10c0,5.514,4.486,10,10,10
			C35.558,20,40.044,15.514,40.044,10z M22.044,10c0-4.411,3.589-8,8-8c4.411,0,8,3.589,8,8c0,4.411-3.589,8-8,8
			C25.633,18,22.044,14.411,22.044,10z"/>
		<polygon fill="#231F20" points="27.934,33.783 32.065,33.783 31.261,24.956 28.739,24.956 		"/>
	</g>
</g>
<g id="nyt_x5F_exporter_x5F_info" display="none">
</g>
</svg>
