<?xml version="1.0" encoding="utf-8"?>
<!-- Generator: Adobe Illustrator 17.0.0, SVG Export Plug-In . SVG Version: 6.00 Build 0)  -->
<!DOCTYPE svg PUBLIC "-//W3C//DTD SVG 1.1//EN" "http://www.w3.org/Graphics/SVG/1.1/DTD/svg11.dtd">
<svg version="1.1" xmlns="http://www.w3.org/2000/svg" xmlns:xlink="http://www.w3.org/1999/xlink" x="0px" y="0px" width="60px"
	 height="60px" viewBox="0 0 60 60" enable-background="new 0 0 60 60" xml:space="preserve">
<g id="Layer_1">
	<g>
		<path fill="#231F20" d="M30,0C13.458,0,0,13.458,0,30c0,7.95,3.081,15.442,8.675,21.096C14.355,56.838,21.929,60,30,60
			c8.086,0,15.669-3.173,21.353-8.935C56.93,45.415,60,37.934,60,30C60,13.458,46.542,0,30,0z M11.002,50.561
			c2.621-1.5,6.614-2.948,10.493-4.354c1.29-0.468,2.577-0.934,3.815-1.402c0.389-0.148,0.646-0.52,0.646-0.936v-6.304
			c0-0.421-0.276-0.801-0.672-0.944c-0.127-0.046-3.11-1.19-3.11-6.621c0-0.552-0.447-1-1-1c-0.255,0-0.562-0.679-0.562-1.522
			c0-0.843,0.308-1.521,0.562-1.521c0.553,0,1-0.448,1-1c0-0.268-0.083-0.574-0.287-1.302c-0.38-1.353-1.389-4.949-0.446-6.192
			c0.146-0.193,0.427-0.45,1.17-0.45c0.263,0,0.562,0.033,0.889,0.099c0.521,0.105,1.038-0.22,1.166-0.738
			c0.438-1.753,3.478-3.025,7.226-3.025c3.749,0,6.788,1.272,7.227,3.025c0.595,2.385-0.446,5.639-0.946,7.203
			c-0.236,0.739-0.345,1.077-0.345,1.381c0,0.552,0.447,1,1,1c0.255,0,0.562,0.679,0.562,1.521c0,0.843-0.308,1.522-0.562,1.522
			c-0.553,0-1,0.448-1,1c0,5.431-2.983,6.575-3.099,6.617c-0.408,0.136-0.684,0.519-0.684,0.949v6.304
			c0,0.417,0.259,0.79,0.649,0.937c1.364,0.512,2.726,1.004,4.054,1.484c3.997,1.445,7.797,2.821,10.28,4.241
			C43.834,55.356,37.127,58,30,58C22.888,58,16.19,55.366,11.002,50.561z M50.494,49.073c-2.62-1.608-6.563-3.035-11.066-4.663
			c-1.11-0.401-2.244-0.812-3.384-1.234v-4.987c1.192-0.691,3.535-2.646,3.764-7.419c0.965-0.486,1.581-1.706,1.581-3.292
			c0-1.458-0.521-2.607-1.355-3.161c0.015-0.045,0.028-0.089,0.042-0.133c0.6-1.873,1.716-5.36,0.981-8.297
			c-0.837-3.351-5.461-4.54-9.166-4.54c-3.369,0-7.498,0.983-8.848,3.682c-1.751-0.136-2.728,0.606-3.196,1.224
			c-1.543,2.035-0.465,5.877,0.114,7.94c0.01,0.037,0.021,0.073,0.03,0.107c-0.849,0.547-1.38,1.704-1.38,3.176
			c0,1.586,0.616,2.806,1.581,3.292c0.229,4.773,2.571,6.728,3.764,7.419v4.988c-1.028,0.384-2.084,0.766-3.143,1.15
			c-4.181,1.515-8.493,3.078-11.279,4.779C4.67,43.902,2,37.149,2,30C2,14.56,14.56,2,30,2c15.439,0,28,12.56,28,28
			C58,37.132,55.341,43.874,50.494,49.073z"/>
	</g>
</g>
<g id="nyt_x5F_exporter_x5F_info" display="none">
</g>
</svg>
