<?xml version="1.0" encoding="utf-8"?>
<!-- Generator: Adobe Illustrator 17.0.0, SVG Export Plug-In . SVG Version: 6.00 Build 0)  -->
<!DOCTYPE svg PUBLIC "-//W3C//DTD SVG 1.1//EN" "http://www.w3.org/Graphics/SVG/1.1/DTD/svg11.dtd">
<svg version="1.1" xmlns="http://www.w3.org/2000/svg" xmlns:xlink="http://www.w3.org/1999/xlink" x="0px" y="0px" width="60px"
	 height="60px" viewBox="0 0 60 60" enable-background="new 0 0 60 60" xml:space="preserve">
<g id="Layer_1">
	<g>
		<path fill="#231F20" d="M42.348,14.87c0-0.552-0.448-1-1-1c-7.672,0-8.985-2.196-9.854-3.649
			c-0.241-0.403-0.468-0.783-0.787-1.102c-0.375-0.375-1.039-0.375-1.414,0c-0.318,0.318-0.546,0.699-0.787,1.102
			c-0.869,1.453-2.182,3.649-9.854,3.649c-0.552,0-1,0.448-1,1s0.448,1,1,1c8.208,0,10.269-2.513,11.348-4.254
			c1.079,1.741,3.14,4.254,11.348,4.254C41.9,15.87,42.348,15.422,42.348,14.87z"/>
		<path fill="#231F20" d="M52.727,42.289l-15.809-4.488c-0.018-0.005-0.035,0-0.052-0.004c-0.071-0.016-0.141-0.016-0.214-0.016
			c-0.059,0-0.116-0.005-0.173,0.004c-0.062,0.01-0.12,0.036-0.18,0.059c-0.063,0.024-0.125,0.045-0.182,0.081
			c-0.016,0.01-0.036,0.012-0.052,0.023c-2.212,1.575-4.726,2.4-6.065,2.4c-1.433,0-3.766-0.853-5.966-2.371
			c-0.051-0.038-0.099-0.076-0.157-0.104c-2.879-2.033-5.486-5.211-5.486-9.134v-1h-1c-1.518,0-2.404-1.477-2.703-2.742
			c-0.315-1.333-0.044-2.593,0.629-2.929l0.661-0.331l-1.373-8.225c-0.003-0.04-0.338-4.025,2.585-7.235C19.775,3.44,24.085,2,30,2
			s10.225,1.44,12.811,4.278c2.72,2.986,2.619,6.644,2.589,7.168l-1.369,5.304c-0.011,0.043-0.001,0.084-0.007,0.127
			C44.019,18.919,44,18.956,44,19v8c0,0.552,0.448,1,1,1h2c0.34,0,0.675-0.04,1-0.112V29c0,2.784-3.162,3-4.13,3h-8.147
			c-0.346-0.595-0.984-1-1.723-1h-5c-1.104,0-2,0.896-2,2s0.896,2,2,2h5c0.738,0,1.376-0.405,1.723-1h8.147
			c3.724,0,6.13-1.962,6.13-5v-2c0-0.026-0.013-0.048-0.015-0.073C51.186,25.995,52,24.561,52,23c0-2.664-2.336-5-5-5h-0.709
			l1.069-4.141l0.027-0.15c0.02-0.197,0.442-4.867-3.071-8.748C41.337,1.669,36.521,0,30,0S18.663,1.669,15.685,4.96
			c-3.513,3.881-3.09,8.552-3.062,8.813l1.157,6.943c-1.086,0.973-1.503,2.771-1.038,4.74c0.522,2.212,1.92,3.759,3.686,4.172
			c0.296,3.577,2.355,6.535,4.869,8.701L7.194,42.314C2.891,43.928,0,48.1,0,52.696V60h60v-7.304
			C60,48.1,57.108,43.928,52.727,42.289z M50,23c0,1.542-1.458,3-3,3h-1v-6h1C48.542,20,50,21.458,50,23z M58,58H2v-5.304
			c0-3.767,2.37-7.187,5.816-8.483l15.485-4.371c2.469,1.614,5.046,2.506,6.699,2.506c1.576,0,4.247-0.783,6.813-2.498l15.29,4.338
			C55.63,45.509,58,48.929,58,52.696V58z"/>
		<path fill="#231F20" d="M22.435,23.435c0.552,0,1-0.448,1-1c0-0.11,0.012-0.173,0.007-0.19c0.188-0.08,0.779-0.074,1.174-0.073
			l0.341,0.002l0.341-0.002c0.414-0.002,1.042-0.009,1.154,0.038c0,0,0.026,0.059,0.026,0.225c0,0.552,0.448,1,1,1
			c0.552,0,1-0.448,1-1c0-0.68-0.199-1.222-0.593-1.612c-0.671-0.665-1.654-0.662-2.603-0.65l-0.326,0.001l-0.326-0.001
			c-0.952-0.007-1.933-0.015-2.604,0.65c-0.393,0.391-0.593,0.933-0.593,1.612C21.435,22.987,21.882,23.435,22.435,23.435z"/>
		<path fill="#231F20" d="M35.369,20.172l-0.326,0.001l-0.326-0.001c-0.95-0.007-1.933-0.015-2.603,0.65
			c-0.394,0.391-0.593,0.933-0.593,1.612c0,0.552,0.448,1,1,1c0.552,0,1-0.448,1-1c0-0.11,0.012-0.173,0.007-0.19
			c0.187-0.08,0.778-0.074,1.174-0.073l0.341,0.002l0.341-0.002c0.413-0.002,1.041-0.009,1.154,0.038c0,0,0.026,0.059,0.026,0.225
			c0,0.552,0.448,1,1,1c0.552,0,1-0.448,1-1c0-0.68-0.199-1.222-0.593-1.612C37.302,20.157,36.321,20.161,35.369,20.172z"/>
	</g>
</g>
<g id="nyt_x5F_exporter_x5F_info" display="none">
</g>
</svg>
