<?xml version="1.0" encoding="utf-8"?>
<!-- Generator: Adobe Illustrator 17.0.0, SVG Export Plug-In . SVG Version: 6.00 Build 0)  -->
<!DOCTYPE svg PUBLIC "-//W3C//DTD SVG 1.1//EN" "http://www.w3.org/Graphics/SVG/1.1/DTD/svg11.dtd">
<svg version="1.1" xmlns="http://www.w3.org/2000/svg" xmlns:xlink="http://www.w3.org/1999/xlink" x="0px" y="0px" width="60px"
	 height="60px" viewBox="0 0 60 60" enable-background="new 0 0 60 60" xml:space="preserve">
<g id="Layer_1">
	<g>
		<path fill="#231F20" d="M22.435,24.699c0.553,0,1-0.448,1-1c0-0.11,0.012-0.174,0.007-0.189c0.188-0.081,0.773-0.075,1.173-0.073
			l0.342,0.002l0.342-0.002c0.415-0.004,1.043-0.008,1.154,0.038c0,0,0.026,0.059,0.026,0.225c0,0.552,0.447,1,1,1
			c0.553,0,1-0.448,1-1c0-0.68-0.199-1.222-0.593-1.612c-0.671-0.666-1.653-0.66-2.604-0.65l-0.326,0.001l-0.326-0.001
			c-0.956-0.01-1.933-0.016-2.603,0.65c-0.393,0.39-0.593,0.933-0.593,1.612C21.435,24.252,21.882,24.699,22.435,24.699z"/>
		<path fill="#231F20" d="M32.521,24.699c0.553,0,1-0.448,1-1c0-0.11,0.012-0.173,0.007-0.189c0.188-0.081,0.778-0.076,1.173-0.073
			l0.343,0.002l0.342-0.002c0.418-0.004,1.041-0.008,1.153,0.038c0,0,0.026,0.059,0.026,0.225c0,0.552,0.447,1,1,1
			c0.553,0,1-0.448,1-1c0-0.68-0.199-1.222-0.593-1.612c-0.67-0.666-1.653-0.66-2.603-0.65l-0.326,0.001l-0.327-0.001
			c-0.944-0.01-1.932-0.016-2.603,0.65c-0.394,0.39-0.593,0.933-0.593,1.612C31.521,24.252,31.969,24.699,32.521,24.699z"/>
		<path fill="#231F20" d="M41.926,38.617c-1.002-0.137-2.025-0.28-3.051-0.431c1.955-1.728,3.592-3.948,4.318-6.564
			c0.018-0.034,0.044-0.062,0.058-0.099c0.038-0.095,0.046-0.194,0.054-0.291c0.125-0.527,0.223-1.064,0.268-1.621
			c1.89-0.528,2.872-2.602,2.872-4.654c0-0.657-0.112-1.309-0.311-1.919l1.223-9.262c0.015-0.09,0.36-2.241-0.869-4.71
			c-1.094-2.199-3.701-5.107-9.893-6.502C34.849,0.977,32.539,0,30,0s-4.849,0.977-6.595,2.564
			c-6.192,1.395-8.799,4.303-9.894,6.502c-1.229,2.47-0.884,4.62-0.874,4.679l1.256,9.198c-0.213,0.621-0.338,1.301-0.338,2.014
			c0,2.052,0.982,4.126,2.872,4.654c0.284,3.506,2.261,6.422,4.704,8.579c-0.956,0.139-1.91,0.272-2.848,0.399
			C9.295,39.807,0,41.066,0,50.792V60h28.979h0.001H60v-9.208C60,41.077,51.221,39.882,41.926,38.617z M45.38,13.478l-0.951,7.204
			c-0.45-0.281-0.973-0.461-1.569-0.5l-6.253-3.103c1.973-1.798,3.22-4.379,3.22-7.252c0-1.657-0.416-3.217-1.143-4.588
			C46.145,7.918,45.422,13.205,45.38,13.478z M37.826,9.826c0,4.315-3.511,7.826-7.826,7.826c-4.315,0-7.826-3.511-7.826-7.826
			C22.174,5.511,25.685,2,30,2C34.315,2,37.826,5.511,37.826,9.826z M21.317,5.239c-0.727,1.371-1.143,2.931-1.143,4.588
			c0,2.87,1.245,5.448,3.213,7.247l-6.248,3.109c-0.558,0.038-1.077,0.204-1.539,0.483l-0.986-7.217
			C14.576,13.202,13.855,7.918,21.317,5.239z M15.555,24.956c0-0.552,0.102-1.08,0.28-1.527c0.017-0.044,0.041-0.083,0.052-0.129
			c0.062-0.139,0.131-0.272,0.209-0.389c0.33-0.496,0.754-0.737,1.296-0.737c0.154,0,0.308-0.036,0.445-0.105l7.374-3.671
			c1.418,0.796,3.05,1.254,4.789,1.254c1.734,0,3.363-0.456,4.779-1.248l7.386,3.665c0.138,0.068,0.29,0.104,0.444,0.104
			c1.453,0,1.837,1.82,1.837,2.783s-0.384,2.783-1.837,2.783c-0.553,0-1,0.448-1,1c0,0.361-0.035,0.712-0.077,1.061
			c-2.089-0.711-6.694-2.061-11.531-2.061c-4.863,0-9.468,1.357-11.531,2.06c-0.042-0.348-0.077-0.699-0.077-1.06
			c0-0.552-0.447-1-1-1C15.938,27.739,15.555,25.919,15.555,24.956z M18.94,31.756c1.83-0.632,6.37-2.017,11.06-2.017
			c4.652,0,9.196,1.377,11.06,2.017c-0.933,2.615-2.957,4.752-5.123,6.239c-0.016,0.011-0.032,0.019-0.047,0.031
			c-2.178,1.485-4.473,2.321-5.89,2.321c-1.395,0-3.641-0.813-5.788-2.254c-0.071-0.064-0.149-0.113-0.236-0.155
			C21.842,36.454,19.86,34.336,18.94,31.756z M2,50.792c0-7.442,6.253-8.826,16.552-10.222c1.572-0.213,3.193-0.437,4.795-0.701
			c1.605,1.043,3.245,1.774,4.652,2.158L27.982,58H2V50.792z M58,58H29.982l0.017-15.652c0,0,0.001,0,0.001,0
			c1.644,0,4.203-0.884,6.661-2.482c1.683,0.278,3.366,0.512,4.995,0.733C51.789,41.977,58,43.208,58,50.792V58z"/>
		<path fill="#231F20" d="M19,48h-3v-3c0-0.552-0.447-1-1-1c-0.553,0-1,0.448-1,1v3h-3c-0.553,0-1,0.448-1,1s0.447,1,1,1h3v3
			c0,0.552,0.447,1,1,1c0.553,0,1-0.448,1-1v-3h3c0.553,0,1-0.448,1-1S19.553,48,19,48z"/>
		<circle fill="#231F20" cx="35.043" cy="48.913" r="1.261"/>
		<circle fill="#231F20" cx="35.043" cy="53.957" r="1.261"/>
		<path fill="#231F20" d="M30,14.609c2.637,0,4.782-2.146,4.782-4.783c0-2.637-2.146-4.783-4.782-4.783
			c-2.637,0-4.782,2.146-4.782,4.783C25.218,12.463,27.363,14.609,30,14.609z M30,7.044c1.534,0,2.782,1.248,2.782,2.783
			c0,1.534-1.248,2.783-2.782,2.783c-1.534,0-2.782-1.248-2.782-2.783C27.218,8.292,28.466,7.044,30,7.044z"/>
	</g>
</g>
<g id="nyt_x5F_exporter_x5F_info" display="none">
</g>
</svg>
