<?xml version="1.0" encoding="utf-8"?>
<!-- Generator: Adobe Illustrator 17.0.0, SVG Export Plug-In . SVG Version: 6.00 Build 0)  -->
<!DOCTYPE svg PUBLIC "-//W3C//DTD SVG 1.1//EN" "http://www.w3.org/Graphics/SVG/1.1/DTD/svg11.dtd">
<svg version="1.1" xmlns="http://www.w3.org/2000/svg" xmlns:xlink="http://www.w3.org/1999/xlink" x="0px" y="0px" width="60px"
	 height="60px" viewBox="0 0 60 60" enable-background="new 0 0 60 60" xml:space="preserve">
<g id="Layer_1">
	<g>
		<path fill="#231F20" d="M52.727,42.289L42,39.244V35c0-0.146-0.035-0.283-0.091-0.408c0.894-1.483,1.514-3.142,1.664-4.967
			c1.712-0.417,3.071-1.942,3.585-4.119c0.494-2.091,0.019-4.051-1.158-5.036V19c0-0.018-0.009-0.033-0.01-0.051L46.13,6.044
			C46.13,5.425,45.678,0,30,0C15.741,0,14.158,5.229,14.024,5.825L14,5.933l0.001,7.052c0,0.001,0,0.001,0,0.002l0.001,6.004
			C14.002,18.994,14,18.997,14,19v1.469c-1.177,0.985-1.651,2.945-1.158,5.036c0.514,2.177,1.873,3.702,3.585,4.119
			c0.15,1.825,0.771,3.485,1.664,4.967C18.035,34.717,18,34.854,18,35v4.245L7.194,42.314C2.891,43.928,0,48.1,0,52.696V60h60
			v-7.304C60,48.1,57.108,43.928,52.727,42.289z M20,37.106c3.145,3.332,7.572,5.241,10,5.241V47c-9.886,0-10-6.93-10-7V37.106z
			 M32,42.028c2.439-0.664,5.591-2.37,8-4.922V40c0,0.065-0.104,6.024-8,6.892V42.028z M16,13.714C17.587,13.214,22.237,12,30,12
			c7.834,0,12.501,1.237,14.047,1.728l-0.032,2.897C41.887,16.015,37.26,15,30,15c-7.243,0-11.866,1.01-14,1.621V13.714z M30,2
			c13.571,0,14.126,4.033,14.13,4.033l-0.061,5.61C41.973,11.035,37.339,10,30,10c-7.259,0-11.872,1.012-14,1.623V6.211
			C16.259,5.623,18.331,2,30,2z M14.789,25.046c-0.334-1.415-0.045-2.8,0.659-3.151L16,21.618V19c0-0.096-0.029-0.182-0.054-0.269
			C17.484,18.241,22.155,17,30,17c7.844,0,12.516,1.241,14.054,1.731C44.029,18.818,44,18.905,44,19v2.618l0.553,0.276
			c0.704,0.352,0.993,1.736,0.659,3.151c-0.293,1.242-1.151,2.693-2.603,2.693h-1v1c0,6.982-8.261,11.608-11.609,11.608
			s-11.609-4.627-11.609-11.608v-1h-1C15.939,27.739,15.082,26.288,14.789,25.046z M2,52.696c0-3.767,2.37-7.187,5.818-8.483
			l10.314-2.927C18.8,44.768,22.191,49,30,49v9H2V52.696z M58,58H32v-9.112c6.389-0.66,9.26-4.436,9.868-7.603l10.235,2.902
			C55.63,45.509,58,48.929,58,52.696V58z"/>
		<path fill="#231F20" d="M36.304,50.435c-1.247,0-2.261,1.014-2.261,2.261c0,1.247,1.014,2.261,2.261,2.261
			c1.247,0,2.261-1.014,2.261-2.261C38.565,51.449,37.551,50.435,36.304,50.435z M36.044,52.696c0-0.144,0.117-0.261,0.261-0.261
			c0.144,0,0.261,0.117,0.261,0.261C36.565,52.982,36.044,52.983,36.044,52.696z"/>
		<path fill="#231F20" d="M22.435,24.699c0.552,0,1-0.448,1-1c0-0.11,0.012-0.173,0.007-0.189c0.188-0.081,0.778-0.075,1.174-0.073
			l0.341,0.002l0.341-0.002c0.413-0.002,1.042-0.008,1.154,0.038c0,0,0.026,0.06,0.026,0.225c0,0.552,0.448,1,1,1
			c0.552,0,1-0.448,1-1c0-0.68-0.199-1.222-0.593-1.612c-0.671-0.665-1.655-0.662-2.603-0.65l-0.326,0.001l-0.326-0.001
			c-0.953-0.007-1.933-0.015-2.604,0.65c-0.393,0.391-0.593,0.933-0.593,1.612C21.435,24.252,21.882,24.699,22.435,24.699z"/>
		<path fill="#231F20" d="M32.521,24.699c0.552,0,1-0.448,1-1c0-0.11,0.012-0.173,0.007-0.189c0.187-0.081,0.778-0.075,1.174-0.073
			l0.341,0.002l0.341-0.002c0.413-0.002,1.042-0.008,1.154,0.038c0,0,0.026,0.06,0.026,0.225c0,0.552,0.448,1,1,1s1-0.448,1-1
			c0-0.68-0.199-1.222-0.593-1.612c-0.671-0.665-1.653-0.662-2.604-0.65l-0.326,0.001l-0.326-0.001
			c-0.95-0.007-1.933-0.015-2.603,0.65c-0.394,0.391-0.593,0.933-0.593,1.612C31.521,24.252,31.969,24.699,32.521,24.699z"/>
	</g>
</g>
<g id="nyt_x5F_exporter_x5F_info" display="none">
</g>
</svg>
