<?xml version="1.0" encoding="utf-8"?>
<!-- Generator: Adobe Illustrator 17.0.0, SVG Export Plug-In . SVG Version: 6.00 Build 0)  -->
<!DOCTYPE svg PUBLIC "-//W3C//DTD SVG 1.1//EN" "http://www.w3.org/Graphics/SVG/1.1/DTD/svg11.dtd">
<svg version="1.1" xmlns="http://www.w3.org/2000/svg" xmlns:xlink="http://www.w3.org/1999/xlink" x="0px" y="0px" width="60px"
	 height="60px" viewBox="0 0 60 60" enable-background="new 0 0 60 60" xml:space="preserve">
<g id="Layer_1">
	<g>
		<path fill="#231F20" d="M14.5,42.244c-2.779,0.257-5.653,0.522-7.796,2.13c-5.322,3.991-6.643,14.075-6.696,14.502
			c-0.036,0.285,0.053,0.571,0.242,0.786C0.44,59.877,0.713,60,1,60h29l0-0.009L59,60h0c0.287,0,0.56-0.123,0.75-0.338
			c0.19-0.215,0.278-0.501,0.243-0.786c-0.054-0.427-1.375-10.511-6.696-14.502c-2.143-1.607-5.017-1.873-7.796-2.13
			c-4.79-0.442-7.5-0.904-7.5-5.253v-3.546c1.017,0.892,2.337,1.501,3.845,1.728c2.831,0.427,6.733-0.561,9.184-4.613
			c0.187-0.309,0.193-0.694,0.016-1.009c-0.177-0.315-0.51-0.509-0.871-0.509c-1.93,0-2.691-5.391-3.364-10.147
			c-0.97-6.865-2.07-14.646-6.865-16.879C37.331,0.799,34.074,1.389,30,3.819c-4.073-2.432-7.33-3.021-9.945-1.803
			C15.26,4.25,14.16,12.031,13.19,18.896c-0.672,4.756-1.434,10.147-3.364,10.147c-0.384,0-0.735,0.22-0.901,0.567
			c-0.167,0.346-0.12,0.758,0.121,1.058c2.546,3.183,5.935,4.663,9.295,4.065c1.396-0.249,2.663-0.842,3.66-1.667v3.926
			C22,41.339,19.29,41.801,14.5,42.244z M7.904,45.973c1.69-1.267,4.278-1.507,6.78-1.738c0.021-0.002,0.043-0.004,0.064-0.006
			l9.559,13.764L2.176,58C2.665,55.351,4.217,48.739,7.904,45.973z M57.824,58l-20.87-0.006l9.48-13.65
			c2.133,0.218,4.223,0.55,5.662,1.629C55.783,48.739,57.335,55.351,57.824,58z M24,36.991v-5.855
			c0.271-0.087,0.505-0.287,0.621-0.571c0.209-0.511-0.035-1.095-0.546-1.305c-0.031-0.013-2.976-1.463-1.934-9.262
			c0.855-1.311,1.293-2.891,1.293-3.825c0-0.552-0.448-1-1-1c-0.552,0-1,0.448-1,1c0,0.635-0.409,2.001-1.112,2.969
			c-0.003,0.005-0.007,0.009-0.01,0.014c-0.446,0.61-1.008,1.06-1.661,1.06c-0.552,0-1,0.448-1,1s0.448,1,1,1
			c0.47,0,0.902-0.103,1.304-0.269c-0.233,4.519,0.917,6.88,1.949,8.062c-0.617,1.349-2.134,2.437-3.917,2.754
			c-1.361,0.243-3.873,0.216-6.403-2.259c2.199-1.531,2.851-6.142,3.583-11.33c0.899-6.361,1.919-13.571,5.73-15.346
			c2.036-0.948,4.92-0.272,8.571,2.01c0.324,0.202,0.735,0.202,1.06,0c3.652-2.282,6.535-2.958,8.571-2.01
			c3.811,1.775,4.83,8.985,5.729,15.346c0.749,5.299,1.413,9.997,3.728,11.424c-1.914,2.313-4.492,2.888-6.415,2.596
			c-2.047-0.308-3.596-1.552-4.11-3.261c1.052-1.117,2.244-3.419,2.009-7.987c0.402,0.166,0.835,0.269,1.305,0.269
			c0.552,0,1-0.448,1-1s-0.448-1-1-1c-0.653,0-1.216-0.451-1.662-1.062c-0.002-0.004-0.005-0.007-0.007-0.01
			c-0.703-0.969-1.113-2.336-1.113-2.972c0-0.552-0.448-1-1-1c-0.552,0-1,0.448-1,1c0,0.934,0.438,2.513,1.293,3.824
			c1.015,7.598-1.812,9.013-1.915,9.06c-0.504,0.195-0.764,0.758-0.581,1.27c0.109,0.304,0.351,0.523,0.637,0.615v6.049
			c0,5.822,4.116,6.713,8.153,7.131L34.52,57.993L30,57.991l-3.26,0.001l-9.729-14.008C20.638,43.486,24,42.252,24,36.991z"/>
		<circle fill="#231F20" cx="24.956" cy="43.912" r="1.261"/>
		<circle fill="#231F20" cx="30" cy="45.173" r="1.261"/>
		<circle fill="#231F20" cx="35.044" cy="43.912" r="1.261"/>
	</g>
</g>
<g id="nyt_x5F_exporter_x5F_info" display="none">
</g>
</svg>
