<?xml version="1.0" encoding="utf-8"?>
<!-- Generator: Adobe Illustrator 17.0.0, SVG Export Plug-In . SVG Version: 6.00 Build 0)  -->
<!DOCTYPE svg PUBLIC "-//W3C//DTD SVG 1.1//EN" "http://www.w3.org/Graphics/SVG/1.1/DTD/svg11.dtd">
<svg version="1.1" xmlns="http://www.w3.org/2000/svg" xmlns:xlink="http://www.w3.org/1999/xlink" x="0px" y="0px" width="60px"
	 height="60px" viewBox="0 0 60 60" enable-background="new 0 0 60 60" xml:space="preserve">
<g id="Layer_1">
	<g>
		<path fill="#231F20" d="M45.436,40.337c-1.127-0.432-2.272-0.871-3.405-1.324l-0.044,0.111c-1.004-1.266-2.282-2.388-3.529-2.993
			c-0.127-0.061-0.265-0.095-0.406-0.1l-0.051-0.002v-4.578c0.884-0.841,2.942-3.216,3.146-7.249
			c0.576-0.436,1.037-1.266,1.304-2.395c0.384-1.629,0.281-3.766-1.08-4.971c0.087-0.227,0.194-0.497,0.295-0.749
			c0.963-2.412,2.755-6.902,2.059-10.386C42.92,1.677,37.153,0.119,32.46,0.007c-4.47-0.105-9.223,0.998-10.578,3.662
			c-1.5,0.137-2.647,0.731-3.418,1.77c-2.112,2.848-0.546,8.014,0.297,10.788c0.059,0.195,0.121,0.401,0.174,0.577
			c-1.357,1.17-1.591,3.317-1.165,5.12c0.251,1.063,0.687,1.85,1.233,2.273c0.193,4.024,2.155,6.399,2.998,7.24v4.618
			c-0.104,0.014-0.21,0.03-0.305,0.076c-1.212,0.588-2.459,1.696-3.448,2.955c-1.147,0.456-2.308,0.9-3.455,1.336
			C9.334,42.498,4.619,44.29,2.845,46.953c-2.654,3.979-2.839,11.7-2.846,12.027c-0.005,0.269,0.098,0.528,0.286,0.72
			C0.473,59.892,0.73,60,0.999,60h22.538h6.462h6.146h22.854c0.545,0,0.989-0.435,1-0.98c0.007-0.328,0.131-8.069-2.534-12.067
			C55.666,44.256,50.926,42.44,45.436,40.337z M41.71,42.583l1.727,5.222L33.293,41.79c1.526-0.256,3.156-0.824,4.415-2.083
			c0.188-0.187,0.293-0.442,0.293-0.707v-0.842C39.533,39.085,41.195,41.041,41.71,42.583z M30.001,48c-1.542,0-3-1.458-3-3v-1.524
			l2.501-1.609l3.499,2.075V45C33.001,46.542,31.543,48,30.001,48z M20.987,23.551c0-0.488-0.35-0.895-0.812-0.983
			c-0.265-0.3-0.702-1.491-0.575-2.738c0.06-0.593,0.267-1.367,0.91-1.689c0.339-0.169,0.553-0.516,0.553-0.894
			c0-0.305-0.1-0.649-0.389-1.601c-0.633-2.087-2.116-6.977-0.603-9.016c0.495-0.668,1.315-0.992,2.51-0.992
			c0.459,0,0.858-0.312,0.97-0.757c0.431-1.72,4.33-2.979,8.862-2.875c4.13,0.098,8.817,1.42,9.352,4.088
			c0.579,2.901-1.069,7.033-1.955,9.253c-0.46,1.152-0.606,1.534-0.606,1.9c0,0.379,0.214,0.725,0.553,0.894
			c0.627,0.313,0.819,1.066,0.871,1.643c0.114,1.276-0.362,2.487-0.642,2.783c-0.467,0.084-0.821,0.493-0.821,0.984
			c0,4.447-2.659,6.568-2.769,6.653c-0.248,0.189-0.395,0.483-0.395,0.796v6v1.56c-1.728,1.44-4.38,1.44-6,1.44
			c-0.182,0-0.35,0.06-0.5,0.148C29.352,40.06,29.184,40,29.001,40c-1.662,0-3.378,0-5-1.432V37v-6c0-0.304-0.139-0.592-0.376-0.782
			C23.599,30.197,20.987,28.061,20.987,23.551z M22.001,38.254V39c0,0.265,0.105,0.52,0.293,0.707
			c1.203,1.204,2.478,1.775,3.687,2.047l-9.16,5.893l1.7-5.062C19.032,41.047,20.542,39.203,22.001,38.254z M4.509,48.062
			c1.42-2.13,6.287-3.981,10.995-5.771c0.386-0.147,0.775-0.302,1.164-0.45c-0.013,0.036-0.033,0.073-0.044,0.109l-2.605,7.76
			c-0.135,0.402-0.001,0.847,0.334,1.108c0.18,0.14,0.396,0.211,0.614,0.211c0.188,0,0.376-0.053,0.541-0.159l9.494-6.108V45
			c0,2.036,1.37,3.872,3.203,4.628c-2.788,1.67-4.714,6.466-5.385,8.372H2.048C2.186,55.839,2.697,50.78,4.509,48.062z M29.999,58
			h-5.05c1.104-2.87,3.229-6.971,5.205-6.971c1.952,0,3.781,4.12,4.671,6.971H29.999z M36.912,58
			c-0.564-1.981-2.199-6.844-4.946-8.44c1.712-0.78,2.97-2.514,3.022-4.44l9.729,5.769c0.157,0.093,0.334,0.14,0.51,0.14
			c0.223,0,0.445-0.075,0.627-0.221c0.325-0.262,0.453-0.697,0.322-1.093l-2.568-7.762c-0.024-0.071-0.061-0.144-0.088-0.215
			c0.401,0.154,0.804,0.315,1.202,0.467c4.954,1.898,9.634,3.69,11.079,5.857c1.809,2.714,2.134,7.804,2.189,9.938H36.912z"/>
	</g>
</g>
<g id="nyt_x5F_exporter_x5F_info" display="none">
</g>
</svg>
