<?xml version="1.0" encoding="utf-8"?>
<!-- Generator: Adobe Illustrator 17.0.0, SVG Export Plug-In . SVG Version: 6.00 Build 0)  -->
<!DOCTYPE svg PUBLIC "-//W3C//DTD SVG 1.1//EN" "http://www.w3.org/Graphics/SVG/1.1/DTD/svg11.dtd">
<svg version="1.1" xmlns="http://www.w3.org/2000/svg" xmlns:xlink="http://www.w3.org/1999/xlink" x="0px" y="0px" width="60px"
	 height="60px" viewBox="0 0 60 60" enable-background="new 0 0 60 60" xml:space="preserve">
<g id="Layer_1">
	<g>
		<path fill="#231F20" d="M42.223,39.693c-1.33-0.55-2.693-1.122-4.059-1.709c1.609-1.369,3.013-2.992,4.013-4.873
			c1.135,2.036,3.357,3.637,6.093,4.199c3.553,0.725,8.144-0.36,10.389-5.598c0.133-0.309,0.101-0.664-0.084-0.944
			c-0.185-0.281-0.499-0.45-0.835-0.45c-3.612,0-4.855-5.374-6.295-11.596c-1.516-6.552-3.233-13.978-8.599-16.504
			C39.528,0.658,35.322,1.15,30,3.726c-5.323-2.577-9.528-3.069-12.846-1.508c-5.365,2.525-7.083,9.952-8.599,16.504
			c-1.439,6.222-2.683,11.596-6.295,11.596c-0.336,0-0.649,0.169-0.835,0.45c-0.185,0.28-0.217,0.635-0.084,0.944
			c1.842,4.297,5.267,5.802,8.401,5.801c0.688,0,1.363-0.072,2.004-0.204c2.729-0.56,4.947-2.152,6.087-4.176
			c1,1.872,2.4,3.488,4.002,4.852c-1.324,0.569-2.646,1.125-3.936,1.659C8.3,43.621,0.008,47.056,0.083,55.302l-0.106,4.772H60v-5
			C60,47.045,51.762,43.639,42.223,39.693z M11.345,35.35c-2.498,0.514-5.65-0.127-7.555-3.239
			c3.986-1.147,5.315-6.893,6.714-12.938c1.413-6.109,3.016-13.033,7.502-15.145c2.819-1.326,6.596-0.769,11.547,1.707
			c0.281,0.141,0.613,0.141,0.895,0c4.951-2.476,8.728-3.033,11.547-1.707c4.486,2.112,6.089,9.036,7.502,15.145
			c1.398,6.046,2.727,11.792,6.714,12.938c-1.902,3.11-5.049,3.75-7.538,3.24c-2.642-0.543-5.316-2.535-5.316-5.294
			c0-0.003-0.002-0.005-0.002-0.007c0.03-0.118,0.069-0.231,0.096-0.35c1.971-0.471,2.995-2.59,2.995-4.686
			c0-2.11-1.038-4.243-3.034-4.695l-1.094-4.374c-0.111-0.445-0.511-0.757-0.97-0.757c-7.673,0-8.985-2.196-9.854-3.649
			c-0.241-0.403-0.469-0.783-0.787-1.102c-0.391-0.391-1.023-0.391-1.414,0c-0.318,0.318-0.546,0.699-0.787,1.102
			c-0.868,1.453-2.181,3.649-9.854,3.649c-0.459,0-0.858,0.312-0.97,0.757l-1.094,4.375c-0.869,0.2-1.618,0.729-2.157,1.538
			c-0.565,0.849-0.877,1.969-0.877,3.155c0,2.096,1.024,4.215,2.995,4.686c0.032,0.144,0.079,0.281,0.116,0.422
			C16.624,32.845,13.97,34.811,11.345,35.35z M18.378,28.632c-0.08-0.482-0.497-0.835-0.986-0.835c-1.453,0-1.837-1.82-1.837-2.783
			s0.384-2.783,1.837-2.783c0.459,0,0.858-0.312,0.97-0.757l1.074-4.294c7.559-0.155,9.521-2.562,10.565-4.247
			c1.044,1.685,3.006,4.092,10.564,4.247l1.074,4.294c0.111,0.445,0.511,0.757,0.97,0.757c1.453,0,1.837,1.82,1.837,2.783
			s-0.384,2.783-1.837,2.783c-0.489,0-0.906,0.354-0.986,0.835C40.37,36.142,32.314,39.524,30,40.347
			C27.685,39.524,19.63,36.142,18.378,28.632z M18.666,41.491c1.629-0.675,3.31-1.377,4.993-2.116
			c1.93,1.315,4.026,2.312,6.025,2.978c0.102,0.034,0.21,0.051,0.316,0.051c0.106,0,0.214-0.017,0.316-0.051
			c1.998-0.666,4.094-1.663,6.024-2.978c1.725,0.758,3.448,1.475,5.118,2.166c1.213,0.502,2.4,0.994,3.551,1.487
			C45.008,43.045,45,43.058,45,43.074c0,3.179-3.626,5.086-7.466,7.106c-2.974,1.565-6.013,3.172-7.534,5.536
			c-1.521-2.364-4.56-3.971-7.534-5.536C18.626,48.16,15,46.252,15,43.074c0-0.014-0.007-0.026-0.008-0.039
			C16.182,42.522,17.41,42.011,18.666,41.491z M2.083,55.315c-0.05-5.412,4.655-8.545,10.971-11.422
			c0.504,3.859,4.555,5.992,8.48,8.057c3.426,1.802,6.673,3.518,7.336,6.124H2.022L2.083,55.315z M58,58.074H31.13
			c0.662-2.606,3.91-4.321,7.336-6.124c3.929-2.068,7.984-4.201,8.482-8.067C53.271,46.741,58,49.823,58,55.074V58.074z"/>
		<path fill="#231F20" d="M23.435,22.496c0-0.11,0.012-0.173,0.007-0.189c0.186-0.081,0.774-0.076,1.174-0.073l0.341,0.002
			l0.341-0.002c0.414-0.002,1.041-0.008,1.155,0.038c0,0,0.026,0.059,0.026,0.225c0,0.552,0.447,1,1,1c0.553,0,1-0.448,1-1
			c0-0.679-0.199-1.222-0.593-1.612c-0.671-0.666-1.651-0.662-2.604-0.65l-0.325,0.002l-0.325-0.002
			c-0.955-0.012-1.934-0.016-2.604,0.65c-0.393,0.39-0.593,0.933-0.593,1.612c0,0.552,0.447,1,1,1
			C22.987,23.496,23.435,23.048,23.435,22.496z"/>
		<path fill="#231F20" d="M32.521,23.496c0.553,0,1-0.448,1-1c0-0.11,0.012-0.173,0.007-0.189c0.188-0.081,0.78-0.075,1.174-0.073
			l0.342,0.002l0.341-0.002c0.415-0.002,1.042-0.007,1.154,0.037c0,0,0.026,0.06,0.026,0.226c0,0.552,0.447,1,1,1
			c0.553,0,1-0.448,1-1c0-0.68-0.199-1.222-0.593-1.612c-0.671-0.665-1.651-0.662-2.604-0.65l-0.325,0.002l-0.326-0.002
			c-0.946-0.012-1.934-0.016-2.604,0.65c-0.394,0.39-0.593,0.933-0.593,1.612C31.521,23.048,31.969,23.496,32.521,23.496z"/>
	</g>
</g>
<g id="nyt_x5F_exporter_x5F_info" display="none">
</g>
</svg>
