<?xml version="1.0" encoding="utf-8"?>
<!-- Generator: Adobe Illustrator 17.0.0, SVG Export Plug-In . SVG Version: 6.00 Build 0)  -->
<!DOCTYPE svg PUBLIC "-//W3C//DTD SVG 1.1//EN" "http://www.w3.org/Graphics/SVG/1.1/DTD/svg11.dtd">
<svg version="1.1" xmlns="http://www.w3.org/2000/svg" xmlns:xlink="http://www.w3.org/1999/xlink" x="0px" y="0px" width="60px"
	 height="60px" viewBox="0 0 60 60" enable-background="new 0 0 60 60" xml:space="preserve">
<g id="Layer_1">
	<g>
		<path fill="#231F20" d="M41.133,39.719c3.883-4.222,6.258-9.85,6.258-16.024C47.391,10.63,36.761,0,23.696,0
			C10.63,0,0,10.63,0,23.696c0,13.065,10.63,23.695,23.696,23.695c6.174,0,11.802-2.375,16.023-6.258l18.574,18.573
			C58.488,59.902,58.744,60,59,60s0.512-0.098,0.707-0.293c0.391-0.391,0.391-1.023,0-1.414L41.133,39.719z M2,23.696
			C2,11.733,11.733,2,23.696,2s21.695,9.733,21.695,21.696s-9.732,21.695-21.695,21.695S2,35.659,2,23.696z"/>
		<path fill="#231F20" d="M30,34.33v-3.789c0.813-0.655,2.1-2.289,2.247-6.11c1.044-0.602,1.643-2.135,1.643-3.628
			c0-0.792-0.178-1.493-0.515-2.029c-0.195-0.31-0.439-0.56-0.722-0.744c0.568-1.292,1.445-3.494,0.838-5.923
			c-0.838-3.351-5.121-4.54-8.535-4.54h0c-3.104,0-6.927,0.983-8.225,3.68c-1.138-0.079-1.986,0.204-2.524,0.861
			c-1.236,1.512-0.119,4.145,0.62,5.888c0.001,0.003,0.003,0.007,0.004,0.011c-0.307,0.188-0.572,0.448-0.781,0.775
			c-0.351,0.545-0.536,1.259-0.536,2.064c0,1.477,0.595,2.993,1.634,3.589c0.188,3.91,1.868,5.545,2.852,6.173v3.717
			c-1.992,0.795-4.225,1.691-6.083,2.575l0.859,1.806c1.849-0.88,4.12-1.787,6.124-2.587l0.471-0.188C19.751,35.777,20,35.409,20,35
			v-5c0-0.421-0.289-0.806-0.685-0.949c-0.089-0.032-2.185-0.84-2.185-5.356c0-0.552-0.422-0.996-0.974-0.996
			c-0.273-0.106-0.805-1.252-0.599-2.351c0.13-0.696,0.43-0.696,0.573-0.696c0.552,0,1-0.448,1-1c0-0.336-0.133-0.664-0.462-1.439
			c-0.919-2.166-1.226-3.458-0.913-3.84c0.089-0.108,0.492-0.238,1.436-0.045c0.525,0.107,1.04-0.218,1.17-0.737
			c0.52-2.079,3.783-3.025,6.595-3.025h0c2.812,0.001,6.075,0.947,6.594,3.025c0.479,1.916-0.34,3.76-0.83,4.861
			c-0.237,0.533-0.38,0.855-0.38,1.201c0,0.552,0.448,1,1,1c0.125,0,0.383,0,0.505,0.653c0.205,1.098-0.342,2.289-0.587,2.39
			c-0.552,0-1,0.448-1,1c0,4.49-1.631,5.373-1.624,5.373C28.253,29.218,28,29.588,28,30v5c0,0.409,0.249,0.776,0.628,0.928
			c1.506,0.603,2.927,1.293,4.431,2.025c0.514,0.25,1.03,0.5,1.551,0.748l0.859-1.806c-0.516-0.246-1.027-0.494-1.536-0.742
			C32.661,35.536,31.35,34.898,30,34.33z"/>
	</g>
</g>
<g id="nyt_x5F_exporter_x5F_info" display="none">
</g>
</svg>
