<?xml version="1.0" encoding="utf-8"?>
<!-- Generator: Adobe Illustrator 17.0.0, SVG Export Plug-In . SVG Version: 6.00 Build 0)  -->
<!DOCTYPE svg PUBLIC "-//W3C//DTD SVG 1.1//EN" "http://www.w3.org/Graphics/SVG/1.1/DTD/svg11.dtd">
<svg version="1.1" xmlns="http://www.w3.org/2000/svg" xmlns:xlink="http://www.w3.org/1999/xlink" x="0px" y="0px" width="60px"
	 height="60px" viewBox="0 0 60 60" enable-background="new 0 0 60 60" xml:space="preserve">
<g id="Layer_1">
	<g>
		<path fill="#231F20" d="M42.459,42.316c-1.229-0.513-2.49-1.046-3.758-1.593c0.868-0.815,1.681-1.813,2.389-3.041
			c1.935,1.254,4.675,1.636,7.252,1.636c3.593,0,6.851-0.721,7.097-0.777c0.381-0.086,0.676-0.385,0.757-0.766
			c0.082-0.381-0.065-0.775-0.378-1.009c-1.527-1.146-1.99-4.786-2.479-8.641c-0.888-6.988-2.117-16.467-10.716-20.109l0.155-1.116
			c0.248-1.735-0.269-3.49-1.416-4.815C40.211,0.76,38.547,0,36.794,0H23.205c-1.752,0-3.416,0.76-4.565,2.084
			c-1.147,1.324-1.664,3.079-1.416,4.812l0.147,1.06C8.778,11.601,7.55,21.101,6.662,28.105c-0.489,3.865-0.952,7.515-2.48,8.661
			C3.87,37,3.723,37.394,3.805,37.775c0.082,0.382,0.378,0.681,0.759,0.766c0.246,0.055,3.481,0.762,7.06,0.762
			c2.584,0,5.336-0.38,7.283-1.629c0.708,1.232,1.523,2.232,2.393,3.048c-1.268,0.547-2.529,1.079-3.758,1.593
			C8.129,46.244,0,49.636,0,57.739V60h60v-2.261C60,49.636,51.871,46.244,42.459,42.316z M42.556,44.524l-3.123,8.329l-6.306-0.902
			l7.382-8.285c0.393,0.165,0.792,0.333,1.18,0.495C41.982,44.284,42.267,44.404,42.556,44.524z M41.077,19.138l1.259-9.07
			c7.104,3.355,8.165,11.605,9.017,18.309c0.439,3.448,0.83,6.533,1.997,8.523c-3.289,0.522-8.776,0.885-11.375-1.016
			c0.859-2.077,1.441-4.688,1.59-7.977c0.872,0.355,1.814,0.57,2.825,0.57c0.553,0,1-0.448,1-1c0-0.552-0.447-1-1-1
			c-1.11,0-2.122-0.341-3.018-0.882c-0.123-0.152-0.283-0.262-0.475-0.321c-1.958-1.398-3.28-3.709-3.727-5.276h0.914
			C40.586,20,41.009,19.632,41.077,19.138z M20.151,3.395C20.92,2.508,22.033,2,23.205,2h13.589c1.173,0,2.286,0.508,3.055,1.394
			c0.769,0.887,1.113,2.061,0.947,3.226L39.216,18H20.784l-1.58-11.384C19.038,5.454,19.383,4.28,20.151,3.395z M6.651,36.896
			c1.165-1.994,1.557-5.086,1.995-8.54c0.851-6.72,1.913-14.99,9.009-18.349l1.267,9.13C18.991,19.632,19.414,20,19.913,20h0.914
			c-0.447,1.567-1.769,3.878-3.727,5.276c-0.191,0.059-0.352,0.169-0.475,0.321c-0.896,0.54-1.908,0.882-3.018,0.882
			c-0.553,0-1,0.448-1,1c0,0.552,0.447,1,1,1c1.011,0,1.953-0.215,2.825-0.57c0.15,3.285,0.731,5.895,1.588,7.971
			C15.41,37.76,9.935,37.409,6.651,36.896z M18.401,26.792c2.458-1.835,4.044-4.768,4.473-6.792h14.252
			c0.429,2.024,2.015,4.957,4.473,6.792c-0.198,12.595-6.841,14.596-10.836,15.794c-0.269,0.081-0.523,0.157-0.763,0.232
			c-0.239-0.075-0.494-0.152-0.763-0.232C25.242,41.388,18.599,39.387,18.401,26.792z M28.663,44.502
			c0.369,0.111,0.712,0.213,1.021,0.316c0.102,0.034,0.21,0.051,0.316,0.051c0.106,0,0.214-0.017,0.316-0.051
			c0.309-0.103,0.651-0.206,1.02-0.316c1.558-0.467,3.602-1.083,5.575-2.375c0.552,0.243,1.103,0.481,1.651,0.715L30,52.453
			l-8.563-9.61c0.548-0.234,1.099-0.473,1.651-0.715C25.061,43.419,27.105,44.035,28.663,44.502z M18.311,44.162
			c0.388-0.162,0.787-0.331,1.18-0.495l7.381,8.284l-6.305,0.902l-3.123-8.328C17.733,44.404,18.018,44.284,18.311,44.162z
			 M2,57.739c0-6.082,5.814-9.125,13.599-12.437l3.659,9.758l9.21-1.319L29,54.338V58H2V57.739z M58,58H31v-3.662l0.53-0.594
			l9.212,1.317l3.659-9.758C52.186,48.614,58,51.658,58,57.739V58z"/>
		<path fill="#231F20" d="M26.218,10.826H29v2.783c0,0.552,0.447,1,1,1c0.553,0,1-0.448,1-1v-2.783h2.782c0.553,0,1-0.448,1-1
			c0-0.552-0.447-1-1-1H31V6.044c0-0.552-0.447-1-1-1c-0.553,0-1,0.448-1,1v2.783h-2.782c-0.553,0-1,0.448-1,1
			C25.218,10.378,25.665,10.826,26.218,10.826z"/>
		<path fill="#231F20" d="M23.435,27.482c0-0.11,0.012-0.173,0.007-0.189c0.186-0.081,0.774-0.076,1.174-0.073l0.341,0.002
			l0.341-0.002c0.414-0.001,1.042-0.008,1.155,0.038c0,0,0.026,0.059,0.026,0.225c0,0.552,0.447,1,1,1c0.553,0,1-0.448,1-1
			c0-0.679-0.199-1.222-0.593-1.612c-0.671-0.667-1.653-0.661-2.604-0.65l-0.325,0.001l-0.325-0.001
			c-0.957-0.01-1.934-0.016-2.604,0.65c-0.393,0.39-0.593,0.933-0.593,1.612c0,0.552,0.447,1,1,1
			C22.987,28.482,23.435,28.034,23.435,27.482z"/>
		<path fill="#231F20" d="M32.521,28.482c0.553,0,1-0.448,1-1c0-0.11,0.012-0.173,0.007-0.189c0.188-0.081,0.779-0.075,1.174-0.073
			l0.342,0.002l0.341-0.002c0.415-0.001,1.043-0.008,1.154,0.038c0,0,0.026,0.059,0.026,0.225c0,0.552,0.447,1,1,1
			c0.553,0,1-0.448,1-1c0-0.68-0.199-1.222-0.593-1.612c-0.67-0.666-1.653-0.66-2.604-0.65l-0.325,0.001l-0.326-0.001
			c-0.948-0.01-1.934-0.016-2.604,0.65c-0.394,0.39-0.593,0.933-0.593,1.612C31.521,28.034,31.969,28.482,32.521,28.482z"/>
	</g>
</g>
<g id="nyt_x5F_exporter_x5F_info" display="none">
</g>
</svg>
