<?xml version="1.0" encoding="utf-8"?>
<!-- Generator: Adobe Illustrator 17.0.0, SVG Export Plug-In . SVG Version: 6.00 Build 0)  -->
<!DOCTYPE svg PUBLIC "-//W3C//DTD SVG 1.1//EN" "http://www.w3.org/Graphics/SVG/1.1/DTD/svg11.dtd">
<svg version="1.1" xmlns="http://www.w3.org/2000/svg" xmlns:xlink="http://www.w3.org/1999/xlink" x="0px" y="0px" width="60px"
	 height="60px" viewBox="0 0 60 60" enable-background="new 0 0 60 60" xml:space="preserve">
<g id="Layer_1">
	<g>
		<path fill="#231F20" d="M42.061,40.862c-1.308-0.473-2.667-0.964-4.061-1.482v-5.914c0.795-0.907,2.87-3.652,3.071-7.788
			c0.956-0.733,1.472-2.463,1.472-3.75c0-0.764-0.165-1.405-0.49-1.905c-0.245-0.378-0.575-0.66-0.966-0.833v-1.116h5.305
			c0.553,0,1-0.448,1-1s-0.447-1-1-1h-4.073c-0.009-0.071-0.006-0.142-0.032-0.211l-5.043-13.87
			c-0.102-0.28-0.323-0.501-0.605-0.601c-0.281-0.1-0.593-0.068-0.849,0.085l-3.061,1.836c-1.479,0.887-3.978,0.888-5.457,0
			L24.21,1.477c-0.257-0.153-0.567-0.185-0.849-0.085c-0.282,0.1-0.504,0.32-0.605,0.601l-5.043,13.87
			c-0.026,0.07-0.023,0.141-0.032,0.211h-4.072c-0.553,0-1,0.448-1,1s0.447,1,1,1h5.305v1.116c-0.391,0.173-0.721,0.455-0.966,0.833
			c-0.325,0.5-0.49,1.141-0.49,1.905c0,1.288,0.516,3.017,1.472,3.75c0.201,4.135,2.276,6.881,3.071,7.788v5.914
			c-1.395,0.518-2.754,1.01-4.062,1.482C9.654,43.855,3.647,46.026,2.58,49.896c-1.288,2.661-2.508,8.649-2.561,8.906
			c-0.059,0.294,0.017,0.599,0.206,0.831C0.416,59.865,0.7,60,1,60h25h8h25c0.553,0,1-0.448,1-1c0-0.16-0.029-3.959-2.581-9.106
			C56.35,46.025,50.344,43.854,42.061,40.862z M40.387,42.382l-1.953,6.357l-6.644-5.695l4.886-1.954l-0.033-0.082
			c0.002,0.001,0.003,0.002,0.005,0.003C37.93,41.491,39.173,41.942,40.387,42.382z M34.642,58l-3.444-7.536l2.85-2.851l3.745,3.21
			L35.588,58H34.642z M24.421,58l-2.137-7.243l3.668-3.144l2.85,2.851L25.358,58H24.421z M32.368,46.465L30,48.833l-2.368-2.369
			l2.042-2.042L30,44.143l0.326,0.28L32.368,46.465z M24.221,3.815l2.021,1.212c2.106,1.266,5.407,1.265,7.516,0l2.021-1.212
			l4.457,12.258H19.763L24.221,3.815z M20.913,25.03c0-0.492-0.355-0.902-0.824-0.985c-0.359-0.362-0.832-1.888-0.547-2.755
			c0.096-0.29,0.203-0.304,0.371-0.304c0.553,0,1-0.448,1-1v-1.913h18.174v1.913c0,0.552,0.447,1,1,1
			c0.168,0,0.275,0.015,0.371,0.304c0.285,0.867-0.188,2.393-0.547,2.755c-0.469,0.083-0.824,0.493-0.824,0.985
			c0,4.53-2.759,7.301-2.784,7.326C36.109,32.545,36,32.804,36,33.074v6.324l-0.066-0.166L30,41.605l-5.934-2.373L24,39.398v-6.324
			c0-0.268-0.11-0.527-0.301-0.715C23.672,32.331,20.913,29.56,20.913,25.03z M23.352,41.01c0.002-0.001,0.003-0.002,0.005-0.003
			l-0.033,0.082l4.886,1.954l-6.546,5.611l-1.87-6.338C20.952,41.897,22.133,41.467,23.352,41.01z M4.416,50.695
			c0.032-0.065,0.058-0.134,0.075-0.205c0.703-2.809,6.535-5.001,13.42-7.492L22.336,58H2.238
			C2.664,56.096,3.553,52.421,4.416,50.695z M27.557,58L30,52.653L32.443,58H27.557z M37.681,58l4.59-14.936
			c6.806,2.464,12.542,4.642,13.238,7.426c0.018,0.071,0.043,0.139,0.075,0.205c1.624,3.248,2.156,5.929,2.331,7.305H37.681z"/>
		<rect x="45.131" y="52.074" fill="#231F20" width="6.304" height="2"/>
	</g>
</g>
<g id="nyt_x5F_exporter_x5F_info" display="none">
</g>
</svg>
