<?xml version="1.0" encoding="utf-8"?>
<!-- Generator: Adobe Illustrator 17.0.0, SVG Export Plug-In . SVG Version: 6.00 Build 0)  -->
<!DOCTYPE svg PUBLIC "-//W3C//DTD SVG 1.1//EN" "http://www.w3.org/Graphics/SVG/1.1/DTD/svg11.dtd">
<svg version="1.1" xmlns="http://www.w3.org/2000/svg" xmlns:xlink="http://www.w3.org/1999/xlink" x="0px" y="0px" width="60px"
	 height="60px" viewBox="0 0 60 60" enable-background="new 0 0 60 60" xml:space="preserve">
<g id="Layer_1">
	<g>
		<path fill="#231F20" d="M54,53c0-3.627-2.319-6.893-5.758-8.122L36,40.306v-5.628c3.754-2.875,6.25-7.868,6.25-13.548
			C42.25,12.236,36.145,5,28.641,5s-13.608,7.236-13.608,16.13c0,6.036,2.815,11.3,6.967,14.065v5.108L9.684,44.874
			C6.284,46.088,4,49.354,4,53v5h50V53z M28.641,7c5.763,0,10.545,5.143,11.444,11.853c-0.094,0.01-0.186,0.016-0.285,0.035
			c-3.798,0.731-6.141-0.497-8.36-4.38l-0.908-1.589l-0.847,1.623c-1.203,2.306-5.226,4.329-8.609,4.329
			c-1.378,0-2.591-0.257-3.768-0.768C18.451,11.762,23.095,7,28.641,7z M17.033,21.13c0-0.322,0.022-0.638,0.04-0.954
			c1.256,0.467,2.556,0.694,4.004,0.694c3.522,0,7.393-1.729,9.446-4.062c1.999,2.901,4.36,4.276,7.381,4.276
			c0.72,0,1.478-0.078,2.276-0.232c0.019-0.004,0.039-0.003,0.058-0.006c0.002,0.096,0.012,0.189,0.012,0.285
			c0,7.792-5.208,14.13-11.609,14.13C22.24,35.261,17.033,28.922,17.033,21.13z M52,56H6v-3c0-2.803,1.751-5.311,4.368-6.247
			L24,41.696v-5.422c1.451,0.627,3.009,0.987,4.641,0.987c1.902,0,3.713-0.469,5.359-1.308v5.741l13.555,5.063
			C50.172,47.692,52,50.259,52,53V56z"/>
	</g>
</g>
<g id="nyt_x5F_exporter_x5F_info" display="none">
</g>
</svg>
