<?xml version="1.0" encoding="utf-8"?>
<!-- Generator: Adobe Illustrator 17.0.0, SVG Export Plug-In . SVG Version: 6.00 Build 0)  -->
<!DOCTYPE svg PUBLIC "-//W3C//DTD SVG 1.1//EN" "http://www.w3.org/Graphics/SVG/1.1/DTD/svg11.dtd">
<svg version="1.1" xmlns="http://www.w3.org/2000/svg" xmlns:xlink="http://www.w3.org/1999/xlink" x="0px" y="0px" width="60px"
	 height="60px" viewBox="0 0 60 60" enable-background="new 0 0 60 60" xml:space="preserve">
<g id="Layer_1">
	<g>
		<path fill="#231F20" d="M40.563,47.472c0,2.637,2.146,4.783,4.782,4.783c2.637,0,4.783-2.146,4.783-4.783
			s-2.146-4.783-4.783-4.783C42.708,42.69,40.563,44.835,40.563,47.472z M48.128,47.472c0,1.534-1.248,2.783-2.783,2.783
			c-1.534,0-2.782-1.249-2.782-2.783c0-1.534,1.248-2.783,2.782-2.783C46.879,44.69,48.128,45.938,48.128,47.472z"/>
		<path fill="#231F20" d="M47.609,35.304h-5.043c-0.552,0-1,0.448-1,1v2.013c-0.896,0.365-1.739,0.873-2.521,1.516l-1.819-1.079
			c-0.23-0.137-0.505-0.174-0.766-0.107c-0.259,0.069-0.48,0.239-0.613,0.472l-2.489,4.369c-0.273,0.479-0.107,1.088,0.371,1.363
			l1.902,1.091c-0.079,0.504-0.12,1.017-0.12,1.531c0,0.504,0.043,1.011,0.129,1.535l-1.884,1.089
			c-0.478,0.276-0.642,0.887-0.366,1.365l2.52,4.369c0.135,0.233,0.357,0.403,0.619,0.469c0.26,0.066,0.538,0.025,0.768-0.115
			l1.752-1.068c0.783,0.643,1.625,1.149,2.517,1.513V59c0,0.552,0.448,1,1,1h5.043c0.552,0,1-0.448,1-1v-2.363
			c1.036-0.4,2.002-0.936,2.783-1.543l1.966,1.107c0.476,0.269,1.079,0.105,1.354-0.367l2.554-4.369
			c0.134-0.229,0.171-0.502,0.103-0.759c-0.068-0.257-0.235-0.477-0.465-0.61l-1.872-1.087c0.093-0.542,0.139-1.049,0.139-1.538
			c0-0.502-0.042-1.015-0.126-1.533l1.89-1.09c0.23-0.133,0.397-0.351,0.466-0.607c0.069-0.256,0.033-0.529-0.1-0.759l-2.521-4.369
			c-0.271-0.471-0.869-0.638-1.348-0.377l-2.034,1.118c-0.78-0.608-1.749-1.145-2.789-1.547v-2.004
			C48.609,35.752,48.162,35.304,47.609,35.304z M50.587,41.791c0.315,0.298,0.787,0.358,1.169,0.15l1.781-0.979l1.532,2.654
			l-1.643,0.948c-0.382,0.221-0.575,0.666-0.473,1.095c0.146,0.619,0.219,1.228,0.219,1.812c0,0.546-0.077,1.139-0.235,1.812
			c-0.101,0.429,0.09,0.872,0.471,1.094l1.626,0.944l-1.551,2.653l-1.717-0.967c-0.381-0.216-0.86-0.156-1.179,0.146
			c-0.777,0.736-2.003,1.418-3.279,1.821c-0.416,0.132-0.698,0.518-0.698,0.954V58h-3.043v-2.071c0-0.436-0.283-0.822-0.698-0.954
			c-1.092-0.345-2.109-0.958-3.024-1.822c-0.326-0.31-0.821-0.362-1.207-0.127l-1.505,0.917l-1.509-2.616l1.64-0.948
			c0.382-0.221,0.574-0.665,0.473-1.095c-0.15-0.639-0.224-1.232-0.224-1.812c0-0.612,0.072-1.22,0.213-1.808
			c0.104-0.432-0.089-0.88-0.475-1.102l-1.66-0.952l1.491-2.618l1.57,0.931c0.386,0.229,0.873,0.173,1.198-0.134
			c0.908-0.86,1.923-1.472,3.019-1.818c0.416-0.132,0.698-0.518,0.698-0.954v-1.714h3.043v1.711c0,0.435,0.282,0.821,0.696,0.953
			C48.584,40.375,49.811,41.057,50.587,41.791z"/>
		<path fill="#231F20" d="M1,50h26v-2H2.026c0.07-1.987,0.32-6.435,1.184-9.04c0.605-1.828,5.784-3.527,10.353-5.027
			c1.925-0.632,3.915-1.285,5.792-1.998C19.743,31.787,20,31.415,20,31v-5c0-0.332-0.166-0.643-0.441-0.829
			c-0.037-0.025-3.69-2.55-3.69-7.959c0-0.552-0.448-1-1-1c-0.147,0-0.481-0.575-0.481-1.522c0-0.947,0.335-1.521,0.481-1.521
			c0.552,0,1-0.448,1-1c0-0.267-0.079-0.55-0.273-1.221c-0.333-1.148-1.216-4.199-0.352-5.139c0.395-0.431,1.28-0.359,1.95-0.225
			c0.522,0.104,1.039-0.22,1.167-0.739C18.771,3.196,21.809,2,25.585,2h0.001c3.777,0,6.816,1.196,7.226,2.844
			c0.545,2.194-0.401,4.572-0.91,5.851c-0.245,0.616-0.38,0.956-0.38,1.293c0,0.552,0.448,1,1,1c0.119,0,0.479,0.572,0.479,1.612
			s-0.36,1.612-0.479,1.612c-0.552,0-1,0.448-1,1c0,5.25-2.861,6.836-2.974,6.896C28.212,24.278,28,24.623,28,25v6
			c0,0.416,0.258,0.789,0.647,0.935c0.688,0.26,1.346,0.516,1.987,0.766c1.366,0.532,2.657,1.034,4.009,1.481l0.628-1.899
			c-1.303-0.43-2.57-0.923-3.911-1.446c-0.444-0.173-0.896-0.349-1.36-0.527v-4.77c1.059-0.78,3.286-2.959,3.504-7.583
			c0.414-0.229,0.767-0.609,1.02-1.113c0.308-0.61,0.477-1.408,0.477-2.245c0-1.447-0.472-2.597-1.233-3.184
			c0.593-1.491,1.683-4.247,0.985-7.055C33.952,1.142,29.315,0,25.586,0h-0.001c-3.374,0-7.493,0.936-8.837,3.5
			c-1.298-0.107-2.294,0.211-2.977,0.954c-1.626,1.769-0.631,5.204-0.096,7.049c0.004,0.013,0.007,0.025,0.011,0.038
			c-0.324,0.225-0.602,0.547-0.814,0.952c-0.312,0.598-0.484,1.377-0.484,2.196c0,1.569,0.585,2.78,1.502,3.277
			c0.263,4.855,3.014,7.612,4.11,8.524v3.815c-1.646,0.606-3.379,1.175-5.06,1.727c-5.744,1.885-10.705,3.514-11.628,6.298
			C0.081,42.04,0.003,48.708,0,48.99c-0.002,0.267,0.102,0.524,0.29,0.713C0.477,49.893,0.733,50,1,50z"/>
	</g>
</g>
<g id="nyt_x5F_exporter_x5F_info" display="none">
</g>
</svg>
