<?xml version="1.0" encoding="utf-8"?>
<!-- Generator: Adobe Illustrator 17.0.0, SVG Export Plug-In . SVG Version: 6.00 Build 0)  -->
<!DOCTYPE svg PUBLIC "-//W3C//DTD SVG 1.1//EN" "http://www.w3.org/Graphics/SVG/1.1/DTD/svg11.dtd">
<svg version="1.1" xmlns="http://www.w3.org/2000/svg" xmlns:xlink="http://www.w3.org/1999/xlink" x="0px" y="0px" width="60px"
	 height="60px" viewBox="0 0 60 60" enable-background="new 0 0 60 60" xml:space="preserve">
<g id="Layer_1">
	<g>
		<path fill="#231F20" d="M1,60h58c0.553,0,1-0.448,1-1c0-0.222-0.03-5.484-2.627-10.679c-1.785-3.567-7.66-5.718-15.792-8.695
			c-1.149-0.421-2.345-0.858-3.581-1.319V31.84c0.812-0.89,2.87-3.533,3.071-7.639c0.565-0.432,1.018-1.247,1.278-2.353
			c0.415-1.757,0.195-3.846-1.098-5.008c0.087-0.228,0.194-0.498,0.295-0.751c0.957-2.412,2.738-6.902,2.042-10.386
			C42.801,1.763,37.066,0,31.731,0c-3.896,0-8.641,0.977-9.997,3.669c-1.499,0.138-2.646,0.731-3.417,1.77
			c-2.113,2.849-0.547,8.014,0.294,10.789c0.06,0.195,0.122,0.402,0.175,0.579c-1.327,1.155-1.555,3.268-1.136,5.042
			c0.261,1.106,0.713,1.921,1.278,2.353c0.199,4.028,2.209,6.402,3.071,7.243v6.862c-1.238,0.461-2.435,0.9-3.586,1.321
			c-8.131,2.977-14.005,5.127-15.787,8.694C0.03,53.516,0,58.778,0,59C0,59.552,0.447,60,1,60z M4.416,49.215
			c1.427-2.856,7.278-4.998,14.686-7.71c1.355-0.496,2.775-1.016,4.25-1.569C23.741,39.79,24,39.417,24,39v-8
			c0-0.308-0.143-0.599-0.386-0.789c-0.026-0.021-2.701-2.157-2.701-6.66c0-0.49-0.353-0.898-0.818-0.983
			c-0.274-0.297-0.737-1.502-0.619-2.768c0.055-0.582,0.252-1.343,0.885-1.659c0.339-0.169,0.553-0.516,0.553-0.894
			c0-0.305-0.1-0.649-0.388-1.6c-0.633-2.087-2.115-6.977-0.602-9.017c0.495-0.668,1.316-0.992,2.511-0.992
			c0.459,0,0.858-0.312,0.97-0.757C23.815,3.238,27.396,2,31.731,2c4.511,0,9.358,1.407,9.896,4.095
			c0.58,2.903-1.06,7.036-1.94,9.256c-0.456,1.15-0.601,1.532-0.601,1.896c0,0.379,0.214,0.725,0.553,0.894
			c0.633,0.316,0.83,1.077,0.885,1.659c0.118,1.266-0.345,2.47-0.619,2.768c-0.466,0.085-0.818,0.493-0.818,0.983
			c0,4.511-2.739,7.125-2.764,7.148C36.117,30.889,36,31.155,36,31.435V39c0,0.417,0.259,0.79,0.648,0.937
			c1.474,0.552,2.892,1.071,4.245,1.567c7.409,2.713,13.261,4.855,14.69,7.712c1.742,3.484,2.229,7.086,2.363,8.784H2.051
			C2.185,56.305,2.668,52.712,4.416,49.215z"/>
	</g>
</g>
<g id="nyt_x5F_exporter_x5F_info" display="none">
</g>
</svg>
