<?xml version="1.0" encoding="utf-8"?>
<!-- Generator: Adobe Illustrator 17.0.0, SVG Export Plug-In . SVG Version: 6.00 Build 0)  -->
<!DOCTYPE svg PUBLIC "-//W3C//DTD SVG 1.1//EN" "http://www.w3.org/Graphics/SVG/1.1/DTD/svg11.dtd">
<svg version="1.1" xmlns="http://www.w3.org/2000/svg" xmlns:xlink="http://www.w3.org/1999/xlink" x="0px" y="0px" width="60px"
	 height="60px" viewBox="0 0 60 60" enable-background="new 0 0 60 60" xml:space="preserve">
<g id="Layer_1">
	<g>
		<path fill="#231F20" d="M52.293,42.293l-7.21,7.21l-3.302-4.127c-0.346-0.431-0.974-0.502-1.406-0.156
			c-0.431,0.345-0.501,0.974-0.156,1.405l4.698,5.873l8.79-8.79c0.391-0.391,0.391-1.023,0-1.414
			C53.316,41.902,52.684,41.902,52.293,42.293z"/>
		<path fill="#231F20" d="M28,54H2v-6.06c0-2.767,1.751-5.251,4.367-6.187L20,36.696V31.15c1.53,0.708,3.188,1.111,4.927,1.111
			c1.794,0,3.504-0.424,5.073-1.174V36h2v-6.116c3.911-2.837,6.535-7.932,6.535-13.754C38.535,7.236,32.431,0,24.927,0
			S11.318,7.236,11.318,16.13c0,5.901,2.695,11.057,6.695,13.87H18v5.304L5.683,39.874C2.284,41.088,0,44.33,0,47.94V56h28V54z
			 M24.927,2c5.763,0,10.544,5.142,11.443,11.852c-0.093,0.01-0.182,0.016-0.285,0.036c-3.796,0.731-6.14-0.497-8.359-4.38
			l-0.908-1.589l-0.847,1.623c-1.202,2.306-5.226,4.329-8.609,4.329c-1.377,0-2.59-0.257-3.767-0.769C14.737,6.762,19.38,2,24.927,2
			z M13.318,16.13c0-0.322,0.022-0.638,0.04-0.955c1.256,0.468,2.556,0.694,4.003,0.694c3.523,0,7.393-1.729,9.447-4.062
			c1.999,2.901,4.359,4.276,7.38,4.276c0.72,0,1.477-0.078,2.275-0.232c0.021-0.004,0.039-0.001,0.06-0.004
			c0.002,0.095,0.012,0.187,0.012,0.283c0,7.792-5.207,14.13-11.608,14.13C18.525,30.261,13.318,23.922,13.318,16.13z"/>
		<path fill="#231F20" d="M47,34c-7.168,0-13,5.832-13,13c0,7.169,5.832,13,13,13s13-5.831,13-13C60,39.832,54.168,34,47,34z M47,58
			c-6.065,0-11-4.935-11-11c0-6.065,4.935-11,11-11c6.065,0,11,4.935,11,11C58,53.065,53.065,58,47,58z"/>
	</g>
</g>
<g id="nyt_x5F_exporter_x5F_info" display="none">
</g>
</svg>
