<?xml version="1.0" encoding="utf-8"?>
<!-- Generator: Adobe Illustrator 17.0.0, SVG Export Plug-In . SVG Version: 6.00 Build 0)  -->
<!DOCTYPE svg PUBLIC "-//W3C//DTD SVG 1.1//EN" "http://www.w3.org/Graphics/SVG/1.1/DTD/svg11.dtd">
<svg version="1.1" xmlns="http://www.w3.org/2000/svg" xmlns:xlink="http://www.w3.org/1999/xlink" x="0px" y="0px" width="60px"
	 height="60px" viewBox="0 0 60 60" enable-background="new 0 0 60 60" xml:space="preserve">
<g id="Layer_1">
	<g>
		<path fill="#231F20" d="M28,54H2v-6.06c0-2.767,1.751-5.251,4.368-6.187L20,36.696V31.15c1.53,0.708,3.188,1.111,4.927,1.111
			c1.794,0,3.504-0.424,5.073-1.174V36h2v-6.116c3.911-2.837,6.535-7.932,6.535-13.754C38.535,7.236,32.431,0,24.927,0
			c-7.504,0-13.609,7.236-13.609,16.13c0,5.901,2.696,11.057,6.696,13.87H18v5.304L5.684,39.874C2.284,41.088,0,44.33,0,47.94V56h28
			V54z M24.927,2c5.762,0,10.544,5.142,11.443,11.852c-0.093,0.01-0.182,0.016-0.285,0.036c-3.795,0.731-6.14-0.497-8.359-4.38
			l-0.908-1.589l-0.847,1.623c-1.203,2.306-5.226,4.329-8.609,4.329c-1.378,0-2.591-0.258-3.768-0.769
			C14.737,6.761,19.381,2,24.927,2z M13.318,16.13c0-0.323,0.022-0.638,0.04-0.955c1.256,0.468,2.556,0.695,4.004,0.695
			c3.523,0,7.393-1.729,9.447-4.062c2,2.901,4.359,4.276,7.38,4.276c0.719,0,1.477-0.078,2.275-0.232
			c0.022-0.004,0.039-0.001,0.06-0.004c0.002,0.095,0.012,0.187,0.012,0.283c0,7.792-5.208,14.13-11.608,14.13
			C18.525,30.261,13.318,23.922,13.318,16.13z"/>
		<path fill="#231F20" d="M45.549,52.435c2.637,0,4.783-2.146,4.783-4.783c0-2.637-2.146-4.783-4.783-4.783
			c-2.637,0-4.782,2.146-4.782,4.783C40.767,50.29,42.912,52.435,45.549,52.435z M45.549,44.87c1.534,0,2.783,1.249,2.783,2.783
			c0,1.534-1.248,2.783-2.783,2.783c-1.534,0-2.782-1.249-2.782-2.783C42.767,46.118,44.015,44.87,45.549,44.87z"/>
		<path fill="#231F20" d="M36.625,38.827c-0.261,0.069-0.484,0.24-0.617,0.475L33.54,43.67c-0.271,0.479-0.104,1.087,0.375,1.36
			l1.912,1.092c-0.077,0.498-0.116,1.01-0.116,1.529c0,0.5,0.043,1.008,0.13,1.535l-1.882,1.089
			c-0.478,0.276-0.642,0.888-0.366,1.366l2.521,4.369c0.136,0.235,0.362,0.405,0.626,0.471c0.266,0.065,0.544,0.021,0.773-0.125
			l1.665-1.049c0.783,0.652,1.586,1.148,2.431,1.5V59c0,0.552,0.448,1,1,1h5.043c0.552,0,1-0.448,1-1v-2.182
			c0.789-0.3,1.899-0.805,2.865-1.548l2.01,1.115c0.473,0.262,1.071,0.099,1.347-0.367l2.574-4.369
			c0.135-0.229,0.173-0.503,0.106-0.76c-0.067-0.257-0.234-0.478-0.464-0.611l-1.861-1.085c0.099-0.556,0.146-1.057,0.146-1.54
			c0-0.503-0.042-1.016-0.126-1.533l1.89-1.09c0.229-0.133,0.397-0.351,0.466-0.607c0.069-0.256,0.033-0.529-0.1-0.759l-2.521-4.369
			c-0.27-0.466-0.862-0.636-1.337-0.382l-2.12,1.131c-0.968-0.746-2.083-1.254-2.874-1.556v-2.183c0-0.552-0.448-1-1-1h-5.043
			c-0.552,0-1,0.448-1,1V38.5c-0.849,0.354-1.656,0.853-2.44,1.508l-1.773-1.07C37.165,38.798,36.887,38.758,36.625,38.827z
			 M39.972,41.971c0.948-0.899,1.909-1.494,2.938-1.819c0.416-0.132,0.698-0.518,0.698-0.954v-1.894h3.043v1.892
			c0,0.436,0.282,0.821,0.697,0.953c1.352,0.43,2.609,1.111,3.361,1.822c0.312,0.295,0.778,0.359,1.158,0.156l1.866-0.996
			l1.538,2.665l-1.644,0.948c-0.382,0.221-0.575,0.667-0.473,1.096c0.145,0.616,0.219,1.225,0.219,1.812
			c0,0.526-0.078,1.102-0.246,1.812c-0.101,0.428,0.089,0.872,0.47,1.094l1.616,0.942l-1.569,2.664l-1.763-0.978
			c-0.381-0.211-0.856-0.151-1.173,0.149c-0.752,0.712-2.008,1.393-3.359,1.821c-0.415,0.132-0.698,0.518-0.698,0.954V58h-3.043
			v-1.891c0-0.436-0.283-0.822-0.698-0.954c-1.027-0.325-1.99-0.92-2.943-1.822c-0.332-0.312-0.833-0.363-1.22-0.119l-1.421,0.896
			l-1.502-2.603l1.638-0.947c0.382-0.221,0.574-0.665,0.473-1.094c-0.152-0.647-0.225-1.24-0.225-1.813
			c0-0.626,0.07-1.234,0.207-1.808c0.104-0.432-0.09-0.881-0.476-1.102l-1.671-0.955l1.473-2.606l1.524,0.919
			C39.154,42.335,39.646,42.28,39.972,41.971z"/>
	</g>
</g>
<g id="nyt_x5F_exporter_x5F_info" display="none">
</g>
</svg>
