<?xml version="1.0" encoding="utf-8"?>
<!-- Generator: Adobe Illustrator 17.0.0, SVG Export Plug-In . SVG Version: 6.00 Build 0)  -->
<!DOCTYPE svg PUBLIC "-//W3C//DTD SVG 1.1//EN" "http://www.w3.org/Graphics/SVG/1.1/DTD/svg11.dtd">
<svg version="1.1" xmlns="http://www.w3.org/2000/svg" xmlns:xlink="http://www.w3.org/1999/xlink" x="0px" y="0px" width="60px"
	 height="60px" viewBox="0 0 60 60" enable-background="new 0 0 60 60" xml:space="preserve">
<g id="Layer_1">
	<g>
		<path fill="#231F20" d="M28,54H2v-6.06c0-2.767,1.751-5.251,4.368-6.187L20,36.696V31.15c1.53,0.708,3.188,1.111,4.927,1.111
			c1.794,0,3.504-0.424,5.073-1.174V36h2v-6.116c3.911-2.837,6.535-7.932,6.535-13.754C38.535,7.236,32.431,0,24.927,0
			S11.318,7.236,11.318,16.13c0,5.901,2.696,11.057,6.696,13.87H18v5.304L5.684,39.874C2.284,41.088,0,44.33,0,47.94V56h28V54z
			 M24.927,2c5.762,0,10.544,5.142,11.443,11.852c-0.093,0.01-0.182,0.016-0.285,0.036c-3.795,0.731-6.14-0.497-8.359-4.38
			l-0.908-1.589l-0.847,1.623c-1.203,2.306-5.226,4.329-8.609,4.329c-1.378,0-2.591-0.258-3.768-0.769
			C14.737,6.761,19.381,2,24.927,2z M13.318,16.13c0-0.323,0.022-0.638,0.04-0.955c1.256,0.468,2.556,0.695,4.004,0.695
			c3.523,0,7.393-1.729,9.447-4.062c2,2.901,4.359,4.276,7.38,4.276c0.719,0,1.477-0.078,2.275-0.232
			c0.022-0.004,0.039-0.001,0.06-0.004c0.002,0.095,0.012,0.187,0.012,0.283c0,7.792-5.208,14.13-11.608,14.13
			C18.525,30.261,13.318,23.922,13.318,16.13z"/>
		<path fill="#231F20" d="M59,42h-8.35l-3.736-8.406c-0.167-0.377-0.554-0.603-0.962-0.593c-0.412,0.02-0.77,0.291-0.9,0.683
			L42.279,42H34c-0.424,0-0.802,0.268-0.943,0.668c-0.141,0.4-0.014,0.846,0.317,1.111l6.755,5.432l-4.047,9.394
			c-0.175,0.407-0.062,0.88,0.278,1.164C36.544,59.922,36.772,60,37,60c0.193,0,0.386-0.056,0.555-0.168L46,54.202l8.445,5.63
			c0.358,0.238,0.829,0.221,1.169-0.043c0.339-0.264,0.472-0.716,0.329-1.122l-3.326-9.414l6.998-5.465
			c0.337-0.263,0.469-0.71,0.331-1.114C59.807,42.271,59.427,42,59,42z M50.819,48.12c-0.339,0.265-0.471,0.716-0.328,1.121
			l2.565,7.262l-6.502-4.335C46.387,52.056,46.193,52,46,52s-0.387,0.056-0.555,0.168l-6.191,4.127l3.012-6.992
			c0.178-0.413,0.059-0.893-0.292-1.175L36.839,44H43c0.431,0,0.812-0.275,0.949-0.684l2.185-6.554l2.953,6.644
			C49.247,43.767,49.605,44,50,44h6.095L50.819,48.12z"/>
	</g>
</g>
<g id="nyt_x5F_exporter_x5F_info" display="none">
</g>
</svg>
