<?xml version="1.0" encoding="utf-8"?>
<!-- Generator: Adobe Illustrator 17.0.0, SVG Export Plug-In . SVG Version: 6.00 Build 0)  -->
<!DOCTYPE svg PUBLIC "-//W3C//DTD SVG 1.1//EN" "http://www.w3.org/Graphics/SVG/1.1/DTD/svg11.dtd">
<svg version="1.1" xmlns="http://www.w3.org/2000/svg" xmlns:xlink="http://www.w3.org/1999/xlink" x="0px" y="0px" width="60px"
	 height="60px" viewBox="0 0 60 60" enable-background="new 0 0 60 60" xml:space="preserve">
<g id="Layer_1">
	<g>
		<path fill="#231F20" d="M52.707,41.293c-0.391-0.391-1.023-0.391-1.414,0L47,45.586l-4.293-4.293
			c-0.391-0.391-1.023-0.391-1.414,0c-0.391,0.391-0.391,1.023,0,1.414L45.586,47l-4.209,4.209c-0.391,0.391-0.391,1.023,0,1.414
			c0.195,0.195,0.451,0.293,0.707,0.293c0.256,0,0.512-0.098,0.707-0.293L47,48.414l4.208,4.208
			c0.195,0.195,0.451,0.293,0.707,0.293c0.256,0,0.512-0.098,0.707-0.293c0.391-0.391,0.391-1.023,0-1.414L48.414,47l4.293-4.293
			C53.098,42.316,53.098,41.684,52.707,41.293z"/>
		<path fill="#231F20" d="M47,34c-7.168,0-13,5.832-13,13c0,7.169,5.832,13,13,13s13-5.831,13-13C60,39.832,54.168,34,47,34z M47,58
			c-6.065,0-11-4.935-11-11c0-6.065,4.935-11,11-11c6.065,0,11,4.935,11,11C58,53.065,53.065,58,47,58z"/>
		<path fill="#231F20" d="M1,50h26v-2H2.026c0.07-1.987,0.319-6.435,1.184-9.04c0.605-1.828,5.784-3.527,10.352-5.027
			c1.925-0.631,3.915-1.285,5.793-1.998C19.743,31.787,20,31.415,20,31v-5c0-0.33-0.166-0.64-0.438-0.827
			c-0.15-0.104-3.693-2.599-3.693-7.962c0-0.552-0.447-1-1-1c-0.146,0-0.48-0.575-0.48-1.522c0-0.947,0.334-1.521,0.48-1.521
			c0.553,0,1-0.448,1-1c0-0.267-0.079-0.55-0.273-1.221c-0.332-1.148-1.216-4.199-0.353-5.139c0.398-0.431,1.28-0.36,1.951-0.225
			c0.523,0.102,1.038-0.22,1.168-0.739C18.771,3.196,21.809,2,25.586,2c0,0,0,0,0.001,0c3.776,0,6.815,1.196,7.225,2.844
			c0.546,2.194-0.401,4.572-0.909,5.851c-0.246,0.616-0.381,0.956-0.381,1.293c0,0.552,0.447,1,1,1c0.119,0,0.479,0.572,0.479,1.612
			s-0.36,1.612-0.479,1.612c-0.553,0-1,0.448-1,1c0,5.25-2.861,6.836-2.974,6.896C28.212,24.278,28,24.623,28,25v6
			c0,0.416,0.258,0.789,0.647,0.935c0.687,0.259,1.343,0.515,1.982,0.764c1.367,0.533,2.659,1.036,4.014,1.483l0.627-1.899
			c-1.305-0.431-2.572-0.925-3.915-1.447c-0.442-0.172-0.893-0.348-1.355-0.525v-4.77c1.059-0.78,3.285-2.959,3.504-7.583
			c0.414-0.229,0.767-0.609,1.02-1.113c0.308-0.61,0.477-1.408,0.477-2.245c0-1.447-0.472-2.597-1.233-3.184
			c0.594-1.491,1.684-4.248,0.985-7.054C33.952,1.142,29.315,0,25.587,0c-0.001,0-0.002,0-0.002,0c-3.374,0-7.492,0.937-8.837,3.5
			c-1.288-0.111-2.294,0.211-2.977,0.954c-1.626,1.768-0.631,5.203-0.097,7.049c0.004,0.013,0.008,0.025,0.011,0.038
			c-0.324,0.225-0.602,0.547-0.813,0.952c-0.312,0.598-0.483,1.378-0.483,2.196c0,1.569,0.584,2.78,1.501,3.276
			c0.263,4.855,3.014,7.612,4.11,8.525v3.815c-1.647,0.606-3.379,1.175-5.061,1.727c-5.745,1.885-10.706,3.514-11.628,6.298
			C0.081,42.04,0.003,48.708,0,48.99c-0.003,0.267,0.102,0.524,0.289,0.713C0.477,49.893,0.733,50,1,50z"/>
	</g>
</g>
<g id="nyt_x5F_exporter_x5F_info" display="none">
</g>
</svg>
