<?xml version="1.0" encoding="utf-8"?>
<!-- Generator: Adobe Illustrator 17.0.0, SVG Export Plug-In . SVG Version: 6.00 Build 0)  -->
<!DOCTYPE svg PUBLIC "-//W3C//DTD SVG 1.1//EN" "http://www.w3.org/Graphics/SVG/1.1/DTD/svg11.dtd">
<svg version="1.1" xmlns="http://www.w3.org/2000/svg" xmlns:xlink="http://www.w3.org/1999/xlink" x="0px" y="0px" width="60px"
	 height="60px" viewBox="0 0 60 60" enable-background="new 0 0 60 60" xml:space="preserve">
<g id="Layer_1">
	<g>
		<path fill="#231F20" d="M51.967,33.076L35.576,49.467c-0.085,0.084-0.146,0.186-0.195,0.294c-0.012,0.027-0.023,0.053-0.033,0.081
			c-0.01,0.027-0.025,0.052-0.033,0.08l-2.304,8.826c-0.091,0.349,0.013,0.719,0.271,0.97c0.19,0.184,0.44,0.283,0.697,0.283
			c0.094,0,0.188-0.013,0.281-0.04l8.609-2.522c0.021-0.006,0.039-0.018,0.059-0.026c0.025-0.009,0.048-0.02,0.073-0.031
			c0.108-0.049,0.209-0.111,0.294-0.195l16.391-16.392c0.391-0.391,0.391-1.023,0-1.414l-6.304-6.304
			C52.991,32.685,52.358,32.685,51.967,33.076z M42.587,55.064l-4.891-4.891l9.934-9.934l4.89,4.89L42.587,55.064z M36.809,52.115
			l3.878,3.878l-5.296,1.551L36.809,52.115z M53.935,43.716l-4.89-4.89l3.629-3.629l4.89,4.89L53.935,43.716z"/>
		<path fill="#231F20" d="M27.021,48H2.048c0.07-1.987,0.32-6.435,1.183-9.04c0.606-1.828,5.784-3.527,10.353-5.027
			c1.925-0.632,3.915-1.285,5.793-1.998c0.388-0.148,0.644-0.52,0.644-0.935v-5c0-0.332-0.165-0.643-0.441-0.829
			c-0.037-0.025-3.689-2.55-3.689-7.959c0-0.552-0.448-1-1-1c-0.147,0-0.481-0.575-0.481-1.522c0-0.947,0.334-1.521,0.481-1.521
			c0.552,0,1-0.448,1-1c0-0.267-0.079-0.55-0.273-1.221c-0.332-1.148-1.216-4.199-0.353-5.139c0.396-0.431,1.28-0.359,1.95-0.225
			c0.523,0.104,1.039-0.22,1.168-0.739C18.792,3.196,21.831,2,25.606,2h0.002c3.777,0,6.816,1.196,7.226,2.844
			c0.545,2.194-0.401,4.572-0.91,5.851c-0.245,0.616-0.38,0.956-0.38,1.293c0,0.552,0.448,1,1,1c0.119,0,0.479,0.572,0.479,1.612
			s-0.36,1.612-0.479,1.612c-0.552,0-1,0.448-1,1c0,5.25-2.861,6.836-2.974,6.896c-0.336,0.17-0.548,0.515-0.548,0.892v6
			c0,0.416,0.258,0.789,0.647,0.935c2.1,0.793,8.941,3.998,10.863,4.959l0.894-1.789c-1.835-0.918-7.738-3.689-10.404-4.784v-4.781
			c1.059-0.78,3.286-2.959,3.504-7.583c0.414-0.229,0.767-0.609,1.02-1.113c0.308-0.61,0.477-1.408,0.477-2.245
			c0-1.447-0.472-2.597-1.233-3.184c0.593-1.491,1.683-4.247,0.985-7.055C33.974,1.142,29.336,0,25.608,0h-0.002
			c-3.374,0-7.493,0.936-8.837,3.5c-1.296-0.107-2.294,0.211-2.976,0.954c-1.626,1.769-0.631,5.204-0.096,7.049
			c0.004,0.013,0.007,0.025,0.011,0.038c-0.324,0.225-0.602,0.547-0.814,0.952c-0.312,0.598-0.484,1.377-0.484,2.196
			c0,1.569,0.584,2.78,1.502,3.277c0.263,4.855,3.014,7.612,4.11,8.524v3.815c-1.646,0.606-3.379,1.175-5.061,1.727
			c-5.744,1.885-10.705,3.514-11.628,6.298C0.103,42.04,0.024,48.708,0.021,48.99c-0.003,0.267,0.102,0.524,0.289,0.713
			C0.498,49.893,0.754,50,1.021,50h26V48z"/>
	</g>
</g>
<g id="nyt_x5F_exporter_x5F_info" display="none">
</g>
</svg>
