<?xml version="1.0" encoding="utf-8"?>
<!-- Generator: Adobe Illustrator 17.0.0, SVG Export Plug-In . SVG Version: 6.00 Build 0)  -->
<!DOCTYPE svg PUBLIC "-//W3C//DTD SVG 1.1//EN" "http://www.w3.org/Graphics/SVG/1.1/DTD/svg11.dtd">
<svg version="1.1" xmlns="http://www.w3.org/2000/svg" xmlns:xlink="http://www.w3.org/1999/xlink" x="0px" y="0px" width="60px"
	 height="60px" viewBox="0 0 60 60" enable-background="new 0 0 60 60" xml:space="preserve">
<g id="Layer_1">
	<g>
		<path fill="#231F20" d="M28,54H2v-6.06c0-2.767,1.751-5.252,4.368-6.187L20,36.695V31.15c1.53,0.708,3.188,1.111,4.927,1.111
			c1.794,0,3.504-0.424,5.073-1.175V36h2v-6.115c3.911-2.837,6.535-7.933,6.535-13.754C38.535,7.235,32.431,0,24.927,0
			c-7.504,0-13.609,7.236-13.609,16.13c0,5.901,2.695,11.057,6.695,13.87H18v5.304L5.684,39.873C2.284,41.088,0,44.33,0,47.94V56h28
			V54z M24.927,2c5.762,0,10.544,5.142,11.443,11.852c-0.093,0.01-0.182,0.016-0.285,0.036c-3.795,0.732-6.14-0.497-8.359-4.38
			l-0.908-1.589l-0.847,1.623c-1.203,2.306-5.226,4.329-8.609,4.329c-1.378,0-2.591-0.258-3.768-0.769
			C14.737,6.761,19.38,2,24.927,2z M13.318,16.13c0-0.322,0.022-0.638,0.04-0.955c1.256,0.468,2.557,0.695,4.004,0.695
			c3.523,0,7.393-1.729,9.447-4.062c1.999,2.902,4.359,4.276,7.38,4.276c0.72,0,1.477-0.078,2.275-0.232
			c0.022-0.004,0.039-0.001,0.06-0.004c0.002,0.095,0.012,0.187,0.012,0.283c0,7.792-5.208,14.131-11.608,14.131
			C18.525,30.261,13.318,23.922,13.318,16.13z"/>
		<path fill="#231F20" d="M53.265,51.851C54.955,50.059,56,47.651,56,45c0-5.514-4.486-10-10-10c-5.514,0-10,4.486-10,10
			c0,5.514,4.486,10,10,10c2.142,0,4.123-0.683,5.752-1.834l6.541,6.542C58.488,59.903,58.744,60,59,60
			c0.256,0,0.512-0.098,0.707-0.293c0.391-0.39,0.391-1.023,0-1.414L53.265,51.851z M38,45c0-4.411,3.589-8,8-8c4.411,0,8,3.589,8,8
			c0,4.411-3.589,8-8,8C41.589,53,38,49.411,38,45z"/>
	</g>
</g>
<g id="nyt_x5F_exporter_x5F_info" display="none">
</g>
</svg>
