<?xml version="1.0" encoding="utf-8"?>
<!-- Generator: Adobe Illustrator 17.0.0, SVG Export Plug-In . SVG Version: 6.00 Build 0)  -->
<!DOCTYPE svg PUBLIC "-//W3C//DTD SVG 1.1//EN" "http://www.w3.org/Graphics/SVG/1.1/DTD/svg11.dtd">
<svg version="1.1" xmlns="http://www.w3.org/2000/svg" xmlns:xlink="http://www.w3.org/1999/xlink" x="0px" y="0px" width="60px"
	 height="60px" viewBox="0 0 60 60" enable-background="new 0 0 60 60" xml:space="preserve">
<g id="Layer_1">
	<g>
		<path fill="#231F20" d="M28,54H2v-6.06c0-2.767,1.751-5.251,4.367-6.187L20,36.696V31.15c1.53,0.708,3.188,1.111,4.927,1.111
			c1.794,0,3.504-0.424,5.073-1.174V36h2v-6.116c3.911-2.837,6.535-7.932,6.535-13.754C38.535,7.236,32.431,0,24.927,0
			c-7.504,0-13.608,7.236-13.608,16.13c0,5.901,2.695,11.057,6.695,13.87H18v5.304L5.683,39.874C2.284,41.088,0,44.33,0,47.94V56h28
			V54z M24.927,2c5.763,0,10.544,5.142,11.443,11.852c-0.093,0.01-0.182,0.016-0.285,0.036c-3.794,0.731-6.139-0.497-8.359-4.38
			l-0.908-1.589l-0.847,1.623c-1.202,2.306-5.226,4.329-8.609,4.329c-1.377,0-2.59-0.257-3.767-0.769C14.737,6.762,19.38,2,24.927,2
			z M13.318,16.13c0-0.322,0.022-0.638,0.04-0.955c1.256,0.468,2.556,0.694,4.003,0.694c3.523,0,7.393-1.729,9.447-4.062
			c1.999,2.901,4.359,4.276,7.38,4.276c0.72,0,1.477-0.078,2.275-0.232c0.021-0.004,0.039-0.001,0.06-0.004
			c0.002,0.095,0.012,0.187,0.012,0.283c0,7.792-5.207,14.13-11.608,14.13C18.525,30.261,13.318,23.922,13.318,16.13z"/>
		<path fill="#231F20" d="M59,42h-1v-2c0-4.486-3.953-8-9-8c-5.047,0-9,3.514-9,8v2h-1c-0.553,0-1,0.448-1,1v16c0,0.552,0.447,1,1,1
			h20c0.553,0,1-0.448,1-1V43C60,42.448,59.553,42,59,42z M42,40c0-3.756,3.56-6,7-6c3.44,0,7,2.244,7,6v2H42V40z M58,58H40V44h18
			V58z"/>
		<path fill="#231F20" d="M49,47c-1.103,0-2,0.897-2,2c0,0.758,0.428,1.41,1.051,1.749C48.029,50.831,48,50.911,48,51v3
			c0,0.552,0.447,1,1,1c0.553,0,1-0.448,1-1v-3c0-0.089-0.029-0.169-0.051-0.251C50.572,50.41,51,49.758,51,49
			C51,47.897,50.102,47,49,47z M49.001,49L49,50l-0.001-1C48.999,49,49,49,49.001,49z"/>
	</g>
</g>
<g id="nyt_x5F_exporter_x5F_info" display="none">
</g>
</svg>
