<?xml version="1.0" encoding="utf-8"?>
<!-- Generator: Adobe Illustrator 17.0.0, SVG Export Plug-In . SVG Version: 6.00 Build 0)  -->
<!DOCTYPE svg PUBLIC "-//W3C//DTD SVG 1.1//EN" "http://www.w3.org/Graphics/SVG/1.1/DTD/svg11.dtd">
<svg version="1.1" xmlns="http://www.w3.org/2000/svg" xmlns:xlink="http://www.w3.org/1999/xlink" x="0px" y="0px" width="60px"
	 height="60px" viewBox="0 0 60 60" enable-background="new 0 0 60 60" xml:space="preserve">
<g id="Layer_1">
	<g>
		<path fill="#231F20" d="M59.924,42.675C59.785,42.271,59.405,42,58.979,42h-8.35l-3.736-8.406
			c-0.167-0.377-0.552-0.607-0.962-0.593c-0.412,0.02-0.77,0.291-0.9,0.683L42.258,42h-8.279c-0.424,0-0.802,0.268-0.943,0.668
			c-0.141,0.4-0.014,0.846,0.317,1.111l6.755,5.43l-4.047,9.395c-0.175,0.407-0.062,0.88,0.278,1.164
			C36.523,59.922,36.75,60,36.979,60c0.193,0,0.386-0.056,0.555-0.168l8.445-5.63l8.445,5.63c0.358,0.239,0.829,0.221,1.169-0.043
			c0.339-0.264,0.472-0.716,0.329-1.122l-3.326-9.415l6.998-5.464C59.93,43.525,60.063,43.078,59.924,42.675z M50.798,48.119
			c-0.339,0.265-0.471,0.716-0.328,1.121l2.566,7.263l-6.503-4.335C46.365,52.056,46.172,52,45.979,52
			c-0.193,0-0.387,0.056-0.555,0.168l-6.191,4.128l3.012-6.994c0.178-0.413,0.059-0.893-0.292-1.175L36.818,44h6.16
			c0.431,0,0.812-0.275,0.949-0.684l2.185-6.554l2.953,6.644C49.225,43.767,49.583,44,49.979,44h6.094L50.798,48.119z"/>
		<path fill="#231F20" d="M30.021,30.31v-4.77c1.059-0.78,3.286-2.959,3.504-7.583c0.414-0.229,0.767-0.609,1.02-1.113
			c0.308-0.61,0.477-1.408,0.477-2.245c0-1.447-0.472-2.597-1.233-3.184c0.593-1.491,1.683-4.247,0.985-7.055
			C33.974,1.142,29.336,0,25.608,0h-0.002c-3.374,0-7.493,0.936-8.837,3.5c-1.298-0.107-2.294,0.211-2.976,0.954
			c-1.626,1.769-0.631,5.204-0.096,7.049c0.004,0.013,0.007,0.025,0.011,0.038c-0.324,0.225-0.602,0.547-0.814,0.952
			c-0.312,0.598-0.484,1.377-0.484,2.196c0,1.569,0.584,2.78,1.502,3.277c0.263,4.855,3.014,7.612,4.11,8.524v3.815
			c-1.646,0.606-3.379,1.175-5.061,1.727c-5.744,1.885-10.705,3.514-11.628,6.298C0.103,42.04,0.024,48.708,0.021,48.99
			c-0.003,0.267,0.102,0.524,0.289,0.713C0.498,49.893,0.754,50,1.021,50h26v-2H2.048c0.07-1.987,0.32-6.435,1.183-9.04
			c0.606-1.828,5.784-3.527,10.353-5.027c1.925-0.632,3.915-1.285,5.793-1.998c0.388-0.148,0.644-0.52,0.644-0.935v-5
			c0-0.332-0.165-0.643-0.441-0.829c-0.037-0.025-3.689-2.55-3.689-7.959c0-0.552-0.448-1-1-1c-0.147,0-0.481-0.575-0.481-1.522
			c0-0.947,0.334-1.521,0.481-1.521c0.552,0,1-0.448,1-1c0-0.267-0.079-0.55-0.273-1.221c-0.332-1.148-1.216-4.199-0.353-5.139
			c0.396-0.431,1.28-0.359,1.95-0.225c0.525,0.104,1.039-0.22,1.168-0.739C18.792,3.196,21.831,2,25.606,2h0.002
			c3.777,0,6.816,1.196,7.226,2.844c0.545,2.194-0.401,4.572-0.91,5.851c-0.245,0.616-0.38,0.956-0.38,1.293c0,0.552,0.448,1,1,1
			c0.119,0,0.479,0.572,0.479,1.612s-0.36,1.612-0.479,1.612c-0.552,0-1,0.448-1,1c0,5.25-2.861,6.836-2.974,6.896
			c-0.336,0.17-0.548,0.515-0.548,0.892v6c0,0.416,0.258,0.789,0.647,0.935c0.688,0.26,1.346,0.516,1.987,0.766
			c1.366,0.532,2.657,1.034,4.009,1.481l0.628-1.899c-1.303-0.43-2.57-0.923-3.911-1.446C30.938,30.665,30.486,30.489,30.021,30.31z
			"/>
	</g>
</g>
<g id="nyt_x5F_exporter_x5F_info" display="none">
</g>
</svg>
