<?xml version="1.0" encoding="utf-8"?>
<!-- Generator: Adobe Illustrator 17.0.0, SVG Export Plug-In . SVG Version: 6.00 Build 0)  -->
<!DOCTYPE svg PUBLIC "-//W3C//DTD SVG 1.1//EN" "http://www.w3.org/Graphics/SVG/1.1/DTD/svg11.dtd">
<svg version="1.1" xmlns="http://www.w3.org/2000/svg" xmlns:xlink="http://www.w3.org/1999/xlink" x="0px" y="0px" width="60px"
	 height="60px" viewBox="0 0 60 60" enable-background="new 0 0 60 60" xml:space="preserve">
<g id="Layer_1">
	<g>
		<path fill="#231F20" d="M28,54H2v-6.06c0-2.767,1.751-5.251,4.368-6.187L20,36.696V31.15c1.53,0.708,3.188,1.111,4.927,1.111
			c1.794,0,3.504-0.424,5.073-1.174v5.668l7.725,2.207l0.55-1.923L32,35.246v-5.361c3.911-2.837,6.535-7.932,6.535-13.754
			C38.535,7.236,32.431,0,24.927,0S11.318,7.236,11.318,16.13c0,5.901,2.696,11.057,6.696,13.87H18v5.304L5.684,39.874
			C2.284,41.088,0,44.33,0,47.94V56h28V54z M24.927,2c5.762,0,10.544,5.142,11.443,11.852c-0.093,0.01-0.182,0.016-0.285,0.036
			c-3.793,0.731-6.14-0.497-8.359-4.38l-0.908-1.589l-0.847,1.623c-1.203,2.306-5.226,4.329-8.609,4.329
			c-1.378,0-2.591-0.258-3.768-0.769C14.737,6.761,19.381,2,24.927,2z M13.318,16.13c0-0.323,0.022-0.638,0.04-0.955
			c1.256,0.468,2.556,0.695,4.004,0.695c3.522,0,7.393-1.729,9.447-4.062c2,2.901,4.359,4.276,7.38,4.276
			c0.719,0,1.477-0.078,2.275-0.232c0.022-0.004,0.039-0.001,0.06-0.004c0.002,0.095,0.012,0.187,0.012,0.283
			c0,7.792-5.208,14.13-11.608,14.13C18.525,30.261,13.318,23.922,13.318,16.13z"/>
		<path fill="#231F20" d="M53.707,33.293c-0.391-0.391-1.023-0.391-1.414,0l-16,16c-0.107,0.107-0.178,0.233-0.227,0.366
			c-0.003,0.009-0.012,0.015-0.015,0.024l-3,9c-0.12,0.359-0.026,0.756,0.242,1.023C33.483,59.898,33.739,60,34,60
			c0.106,0,0.212-0.017,0.316-0.051l9-3c0.009-0.003,0.015-0.012,0.024-0.015c0.133-0.048,0.259-0.12,0.366-0.227l16-16
			c0.391-0.391,0.391-1.023,0-1.414L53.707,33.293z M43,54.586L38.414,50L48,40.414L52.586,45L43,54.586z M37.437,51.851
			l3.712,3.712l-5.568,1.856L37.437,51.851z M54,43.586L49.414,39L53,35.414L57.586,40L54,43.586z"/>
	</g>
</g>
<g id="nyt_x5F_exporter_x5F_info" display="none">
</g>
</svg>
