<?xml version="1.0" encoding="utf-8"?>
<!-- Generator: Adobe Illustrator 17.0.0, SVG Export Plug-In . SVG Version: 6.00 Build 0)  -->
<!DOCTYPE svg PUBLIC "-//W3C//DTD SVG 1.1//EN" "http://www.w3.org/Graphics/SVG/1.1/DTD/svg11.dtd">
<svg version="1.1" xmlns="http://www.w3.org/2000/svg" xmlns:xlink="http://www.w3.org/1999/xlink" x="0px" y="0px" width="60px"
	 height="60px" viewBox="0 0 60 60" enable-background="new 0 0 60 60" xml:space="preserve">
<g id="Layer_1">
	<g>
		<path fill="#231F20" d="M12.961,32.033c-5.745,1.885-10.706,3.514-11.628,6.298C0.102,42.04,0.024,48.708,0.021,48.99
			c-0.003,0.267,0.102,0.524,0.289,0.713C0.499,49.893,0.755,50,1.021,50h26v-2H2.048c0.07-1.987,0.319-6.435,1.183-9.04
			c0.606-1.828,5.784-3.527,10.353-5.027c1.925-0.631,3.915-1.285,5.793-1.998c0.388-0.148,0.644-0.52,0.644-0.935v-5
			c0-0.33-0.166-0.64-0.438-0.827c-0.15-0.104-3.693-2.599-3.693-7.962c0-0.552-0.447-1-1-1c-0.146,0-0.48-0.575-0.48-1.522
			c0-0.947,0.334-1.521,0.48-1.521c0.553,0,1-0.448,1-1c0-0.267-0.079-0.55-0.273-1.221c-0.332-1.148-1.216-4.199-0.353-5.139
			c0.398-0.431,1.28-0.36,1.951-0.225c0.524,0.104,1.038-0.22,1.168-0.739C18.793,3.196,21.83,2,25.606,2c0.001,0,0.001,0,0.002,0
			c3.776,0,6.815,1.196,7.225,2.844c0.546,2.194-0.401,4.572-0.909,5.851c-0.246,0.616-0.381,0.956-0.381,1.293c0,0.552,0.447,1,1,1
			c0.119,0,0.479,0.572,0.479,1.612s-0.36,1.612-0.479,1.612c-0.553,0-1,0.448-1,1c0,5.25-2.861,6.836-2.974,6.896
			c-0.336,0.17-0.548,0.515-0.548,0.892v6c0,0.416,0.258,0.789,0.647,0.935c0.687,0.259,1.343,0.515,1.982,0.764
			c1.367,0.533,2.659,1.036,4.014,1.483l0.627-1.899c-1.305-0.431-2.572-0.925-3.915-1.447c-0.442-0.172-0.893-0.348-1.356-0.525
			v-4.77c1.059-0.78,3.285-2.959,3.504-7.583c0.414-0.229,0.767-0.609,1.021-1.113c0.308-0.61,0.477-1.408,0.477-2.245
			c0-1.447-0.472-2.597-1.233-3.184c0.594-1.491,1.684-4.248,0.985-7.054C33.974,1.142,29.337,0,25.608,0c-0.001,0-0.002,0-0.002,0
			c-3.374,0-7.492,0.937-8.837,3.5c-1.289-0.107-2.294,0.211-2.976,0.954c-1.626,1.768-0.631,5.203-0.097,7.049
			c0.004,0.013,0.008,0.025,0.011,0.038c-0.324,0.225-0.602,0.547-0.813,0.952c-0.312,0.598-0.483,1.378-0.483,2.196
			c0,1.569,0.584,2.78,1.501,3.276c0.263,4.855,3.014,7.612,4.11,8.525v3.815C16.375,30.912,14.643,31.481,12.961,32.033z"/>
		<path fill="#231F20" d="M58.271,59.707C58.467,59.902,58.723,60,58.978,60c0.256,0,0.512-0.098,0.707-0.293
			c0.391-0.391,0.391-1.023,0-1.414l-6.969-6.969c1.412-1.725,2.262-3.927,2.262-6.324c0-5.514-4.486-10-10-10
			c-5.514,0-10,4.486-10,10c0,5.514,4.486,10,10,10c2.398,0,4.6-0.85,6.324-2.262L58.271,59.707z M44.978,53c-4.411,0-8-3.589-8-8
			c0-4.411,3.589-8,8-8c4.411,0,8,3.589,8,8C52.978,49.411,49.39,53,44.978,53z"/>
	</g>
</g>
<g id="nyt_x5F_exporter_x5F_info" display="none">
</g>
</svg>
