<?xml version="1.0" encoding="utf-8"?>
<!-- Generator: Adobe Illustrator 17.0.0, SVG Export Plug-In . SVG Version: 6.00 Build 0)  -->
<!DOCTYPE svg PUBLIC "-//W3C//DTD SVG 1.1//EN" "http://www.w3.org/Graphics/SVG/1.1/DTD/svg11.dtd">
<svg version="1.1" id="Layer_1" xmlns="http://www.w3.org/2000/svg" xmlns:xlink="http://www.w3.org/1999/xlink" x="0px" y="0px"
	 width="60px" height="60px" viewBox="0 0 60 60" enable-background="new 0 0 60 60" xml:space="preserve">
<g>
	<path fill="#010101" d="M43.869,28.261H30V14.13c0-0.552-0.447-1-1-1c-0.553,0-1,0.448-1,1v14.13H13.608c-0.553,0-1,0.448-1,1
		s0.447,1,1,1H28v14.13c0,0.552,0.447,1,1,1c0.553,0,1-0.448,1-1v-14.13h13.869c0.553,0,1-0.448,1-1S44.422,28.261,43.869,28.261z"
		/>
	<path fill="#010101" d="M1,58h56c0.553,0,1-0.448,1-1V1c0-0.552-0.447-1-1-1H1C0.447,0,0,0.448,0,1v56C0,57.552,0.447,58,1,58z
		 M2,2h54v54H2V2z"/>
</g>
</svg>
