<?xml version="1.0" encoding="utf-8"?>
<!-- Generator: Adobe Illustrator 17.0.0, SVG Export Plug-In . SVG Version: 6.00 Build 0)  -->
<!DOCTYPE svg PUBLIC "-//W3C//DTD SVG 1.1//EN" "http://www.w3.org/Graphics/SVG/1.1/DTD/svg11.dtd">
<svg version="1.1" id="Layer_1" xmlns="http://www.w3.org/2000/svg" xmlns:xlink="http://www.w3.org/1999/xlink" x="0px" y="0px"
	 width="60px" height="60px" viewBox="0 0 60 60" enable-background="new 0 0 60 60" xml:space="preserve">
<g>
	<path fill="#010101" d="M29,58c15.991,0,29-13.009,29-29C58,13.009,44.991,0,29,0C13.009,0,0,13.009,0,29C0,44.991,13.009,58,29,58
		z M29,2c14.888,0,27,12.112,27,27S43.888,56,29,56S2,43.888,2,29S14.112,2,29,2z"/>
	<path fill="#010101" d="M14.609,30.261H28v13.87c0,0.552,0.448,1,1,1s1-0.448,1-1v-13.87h14.87c0.552,0,1-0.448,1-1s-0.448-1-1-1
		H30V13.87c0-0.552-0.448-1-1-1s-1,0.448-1,1v14.391H14.609c-0.552,0-1,0.448-1,1S14.057,30.261,14.609,30.261z"/>
</g>
</svg>
