<?xml version="1.0" encoding="utf-8"?>
<!-- Generator: Adobe Illustrator 17.0.0, SVG Export Plug-In . SVG Version: 6.00 Build 0)  -->
<!DOCTYPE svg PUBLIC "-//W3C//DTD SVG 1.1//EN" "http://www.w3.org/Graphics/SVG/1.1/DTD/svg11.dtd">
<svg version="1.1" id="Layer_1" xmlns="http://www.w3.org/2000/svg" xmlns:xlink="http://www.w3.org/1999/xlink" x="0px" y="0px"
	 width="60px" height="60px" viewBox="0 0 60 60" enable-background="new 0 0 60 60" xml:space="preserve">
<g>
	<path fill="#010101" d="M59,14c0.552,0,1-0.448,1-1V1c0-0.13-0.027-0.26-0.077-0.382c-0.101-0.245-0.296-0.439-0.541-0.541
		C59.26,0.027,59.13,0,59,0H47c-0.552,0-1,0.448-1,1s0.448,1,1,1h9.586L30,28.586L3.414,2H13c0.552,0,1-0.448,1-1s-0.448-1-1-1H1
		C0.87,0,0.74,0.027,0.618,0.077C0.373,0.179,0.179,0.373,0.077,0.618C0.027,0.74,0,0.87,0,1v12.609c0,0.552,0.448,1,1,1
		s1-0.448,1-1V3.414L28.586,30L2,56.586V47c0-0.552-0.448-1-1-1s-1,0.448-1,1v12c0,0.13,0.027,0.26,0.077,0.382
		c0.101,0.245,0.296,0.439,0.541,0.541C0.74,59.973,0.87,60,1,60h12c0.552,0,1-0.448,1-1s-0.448-1-1-1H3.414L30,31.414L56.586,58H47
		c-0.552,0-1,0.448-1,1s0.448,1,1,1h12c0.13,0,0.26-0.027,0.382-0.077c0.245-0.101,0.439-0.296,0.541-0.541
		C59.973,59.26,60,59.13,60,59V47c0-0.552-0.448-1-1-1s-1,0.448-1,1v9.586L31.414,30L58,3.414V13C58,13.552,58.448,14,59,14z"/>
</g>
</svg>
