<?xml version="1.0" encoding="utf-8"?>
<!-- Generator: Adobe Illustrator 17.0.0, SVG Export Plug-In . SVG Version: 6.00 Build 0)  -->
<!DOCTYPE svg PUBLIC "-//W3C//DTD SVG 1.1//EN" "http://www.w3.org/Graphics/SVG/1.1/DTD/svg11.dtd">
<svg version="1.1" id="Layer_1" xmlns="http://www.w3.org/2000/svg" xmlns:xlink="http://www.w3.org/1999/xlink" x="0px" y="0px"
	 width="60px" height="60px" viewBox="0 0 60 60" enable-background="new 0 0 60 60" xml:space="preserve">
<g>
	<path fill="#010101" d="M59,36h-9V16c0-0.268-0.107-0.524-0.298-0.712l-15.217-15C34.298,0.104,34.045,0,33.783,0H11
		c-0.552,0-1,0.448-1,1v35H1c-0.429,0-0.811,0.274-0.948,0.681c-0.137,0.407,0.002,0.856,0.343,1.116l29,22
		C29.574,59.932,29.787,60,30,60s0.426-0.068,0.604-0.203l29-22c0.342-0.26,0.481-0.708,0.343-1.116C59.811,36.274,59.429,36,59,36z
		 M47.575,16H34V2.618L47.575,16z M30,57.745L3.973,38H11c0.552,0,1-0.448,1-1V2h20v15c0,0.552,0.448,1,1,1h15v19
		c0,0.552,0.448,1,1,1h7.027L30,57.745z"/>
</g>
</svg>
