<?xml version="1.0" encoding="utf-8"?>
<!-- Generator: Adobe Illustrator 17.0.0, SVG Export Plug-In . SVG Version: 6.00 Build 0)  -->
<!DOCTYPE svg PUBLIC "-//W3C//DTD SVG 1.1//EN" "http://www.w3.org/Graphics/SVG/1.1/DTD/svg11.dtd">
<svg version="1.1" id="Layer_1" xmlns="http://www.w3.org/2000/svg" xmlns:xlink="http://www.w3.org/1999/xlink" x="0px" y="0px"
	 width="60px" height="60px" viewBox="0 0 60 60" enable-background="new 0 0 60 60" xml:space="preserve">
<g>
	<path fill="#010101" d="M29,29.739c0.553,0,1-0.448,1-1V3.414l8.293,8.293c0.391,0.391,1.023,0.391,1.414,0
		c0.391-0.391,0.391-1.023,0-1.414l-9.999-9.999c-0.091-0.091-0.199-0.165-0.32-0.216c-0.12-0.051-0.248-0.075-0.377-0.076
		C29.008,0.002,29.004,0,29,0c-0.04,0-0.074,0.018-0.113,0.023c-0.086,0.01-0.171,0.019-0.252,0.051
		c-0.062,0.025-0.113,0.066-0.168,0.102c-0.046,0.03-0.097,0.046-0.139,0.084l-11,10c-0.408,0.371-0.438,1.004-0.067,1.413
		C17.457,11.89,17.728,12,18,12c0.24,0,0.481-0.086,0.673-0.26L28,3.26v25.479C28,29.292,28.447,29.739,29,29.739z"/>
	<path fill="#010101" d="M59,40H1c-0.553,0-1,0.448-1,1v18c0,0.552,0.447,1,1,1h58c0.553,0,1-0.448,1-1V41
		C60,40.448,59.553,40,59,40z M58,58H2V42h56V58z"/>
</g>
</svg>
