<?xml version="1.0" encoding="utf-8"?>
<!-- Generator: Adobe Illustrator 17.0.0, SVG Export Plug-In . SVG Version: 6.00 Build 0)  -->
<!DOCTYPE svg PUBLIC "-//W3C//DTD SVG 1.1//EN" "http://www.w3.org/Graphics/SVG/1.1/DTD/svg11.dtd">
<svg version="1.1" id="Layer_1" xmlns="http://www.w3.org/2000/svg" xmlns:xlink="http://www.w3.org/1999/xlink" x="0px" y="0px"
	 width="60px" height="60px" viewBox="0 0 60 60" enable-background="new 0 0 60 60" xml:space="preserve">
<g>
	<path fill="#010101" d="M30.604,0.203c-0.357-0.271-0.852-0.271-1.209,0l-29,22c-0.342,0.26-0.481,0.708-0.343,1.116
		C0.189,23.726,0.571,24,1,24h9v20c0,0.268,0.107,0.524,0.298,0.712l15.217,15C25.702,59.897,25.955,60,26.217,60H49
		c0.552,0,1-0.448,1-1V24h9c0.429,0,0.811-0.274,0.948-0.681c0.137-0.407-0.002-0.856-0.343-1.116L30.604,0.203z M12.424,44H26
		v13.382L12.424,44z M49,22c-0.552,0-1,0.448-1,1v35H28V43c0-0.552-0.448-1-1-1H12V23c0-0.552-0.448-1-1-1H3.973L30,2.255L56.027,22
		H49z"/>
</g>
</svg>
