<?xml version="1.0" encoding="utf-8"?>
<!-- Generator: Adobe Illustrator 17.0.0, SVG Export Plug-In . SVG Version: 6.00 Build 0)  -->
<!DOCTYPE svg PUBLIC "-//W3C//DTD SVG 1.1//EN" "http://www.w3.org/Graphics/SVG/1.1/DTD/svg11.dtd">
<svg version="1.1" id="Layer_1" xmlns="http://www.w3.org/2000/svg" xmlns:xlink="http://www.w3.org/1999/xlink" x="0px" y="0px"
	 width="60px" height="60px" viewBox="0 0 60 60" enable-background="new 0 0 60 60" xml:space="preserve">
<g>
	<path fill="#010101" d="M59.962,12.813c-0.014-0.072-0.019-0.147-0.048-0.213c-0.018-0.042-0.052-0.073-0.075-0.112
		c-0.045-0.073-0.087-0.147-0.148-0.206c-0.005-0.005-0.007-0.012-0.012-0.016l-13-12c-0.405-0.374-1.04-0.349-1.413,0.057
		c-0.375,0.406-0.35,1.039,0.056,1.413L56.442,12H13c-0.553,0-1,0.448-1,1v43.442L1.734,45.322
		c-0.373-0.406-1.007-0.431-1.413-0.057c-0.405,0.374-0.431,1.007-0.056,1.413l12,13c0.004,0.005,0.011,0.006,0.015,0.011
		c0.061,0.064,0.138,0.108,0.214,0.154c0.037,0.022,0.067,0.054,0.106,0.071c0.066,0.029,0.141,0.034,0.213,0.048
		c0.056,0.011,0.109,0.036,0.167,0.038c0.006,0,0.013,0,0.02,0c0.133,0,0.264-0.027,0.385-0.078
		c0.122-0.051,0.231-0.124,0.323-0.216l12.999-12.999c0.391-0.391,0.391-1.023,0-1.414c-0.391-0.391-1.023-0.391-1.414,0L14,56.586
		V14h42.585L45.293,25.293c-0.391,0.391-0.391,1.023,0,1.414C45.488,26.902,45.744,27,46,27c0.256,0,0.512-0.098,0.707-0.293
		l12.999-12.999c0.093-0.093,0.167-0.205,0.217-0.328c0.022-0.053,0.021-0.112,0.034-0.169C59.973,13.141,60,13.075,60,13
		c0-0.003-0.002-0.006-0.002-0.01c0-0.004,0.002-0.007,0.002-0.01C59.999,12.922,59.973,12.869,59.962,12.813z"/>
</g>
</svg>
