<?xml version="1.0" encoding="utf-8"?>
<!-- Generator: Adobe Illustrator 17.0.0, SVG Export Plug-In . SVG Version: 6.00 Build 0)  -->
<!DOCTYPE svg PUBLIC "-//W3C//DTD SVG 1.1//EN" "http://www.w3.org/Graphics/SVG/1.1/DTD/svg11.dtd">
<svg version="1.1" id="Layer_1" xmlns="http://www.w3.org/2000/svg" xmlns:xlink="http://www.w3.org/1999/xlink" x="0px" y="0px"
	 width="60px" height="60px" viewBox="0 0 60 60" enable-background="new 0 0 60 60" xml:space="preserve">
<g>
	<path fill="#010101" d="M23.319,0.052c-0.407-0.136-0.856,0.001-1.116,0.343l-22,29c-0.271,0.357-0.271,0.852,0,1.209l22,29
		C22.396,59.858,22.693,60,23,60c0.106,0,0.214-0.017,0.319-0.052C23.726,59.811,24,59.429,24,59v-9h19.87
		c0.266,0,0.522-0.106,0.709-0.295l15.13-15.217C59.896,34.3,60,34.047,60,33.783V11c0-0.552-0.448-1-1-1H24V1
		C24,0.571,23.726,0.189,23.319,0.052z M44,47.451V34h13.374L44,47.451z M58,12v20H43c-0.552,0-1,0.448-1,1v15H23
		c-0.552,0-1,0.448-1,1v7.027L2.255,30L22,3.973V11c0,0.552,0.448,1,1,1H58z"/>
</g>
</svg>
