<?xml version="1.0" encoding="utf-8"?>
<!-- Generator: Adobe Illustrator 17.0.0, SVG Export Plug-In . SVG Version: 6.00 Build 0)  -->
<!DOCTYPE svg PUBLIC "-//W3C//DTD SVG 1.1//EN" "http://www.w3.org/Graphics/SVG/1.1/DTD/svg11.dtd">
<svg version="1.1" id="Layer_1" xmlns="http://www.w3.org/2000/svg" xmlns:xlink="http://www.w3.org/1999/xlink" x="0px" y="0px"
	 width="60px" height="60px" viewBox="0 0 60 60" enable-background="new 0 0 60 60" xml:space="preserve">
<g>
	<path fill="#010101" d="M59,28H18.26l8.48-9.327c0.371-0.409,0.341-1.042-0.067-1.413c-0.407-0.371-1.041-0.341-1.413,0.067l-10,11
		c-0.039,0.043-0.057,0.096-0.087,0.144c-0.035,0.054-0.075,0.103-0.099,0.163c-0.032,0.082-0.042,0.168-0.051,0.255
		C15.018,28.928,15,28.961,15,29c0,0.004,0.002,0.007,0.002,0.011c0.001,0.129,0.025,0.257,0.076,0.377
		c0.051,0.12,0.124,0.229,0.216,0.32l9.999,9.999C25.488,39.902,25.744,40,26,40c0.256,0,0.512-0.098,0.707-0.293
		c0.391-0.391,0.391-1.023,0-1.414L18.414,30H59c0.553,0,1-0.448,1-1S59.553,28,59,28z"/>
	<path fill="#010101" d="M1,0C0.447,0,0,0.448,0,1v58c0,0.552,0.447,1,1,1c0.553,0,1-0.448,1-1V1C2,0.448,1.553,0,1,0z"/>
</g>
</svg>
