<?xml version="1.0" encoding="utf-8"?>
<!-- Generator: Adobe Illustrator 17.0.0, SVG Export Plug-In . SVG Version: 6.00 Build 0)  -->
<!DOCTYPE svg PUBLIC "-//W3C//DTD SVG 1.1//EN" "http://www.w3.org/Graphics/SVG/1.1/DTD/svg11.dtd">
<svg version="1.1" id="Layer_1" xmlns="http://www.w3.org/2000/svg" xmlns:xlink="http://www.w3.org/1999/xlink" x="0px" y="0px"
	 width="60px" height="60px" viewBox="0 0 60 60" enable-background="new 0 0 60 60" xml:space="preserve">
<g>
	<path fill="#010101" d="M28.739,30H3.414l8.293-8.293c0.391-0.391,0.391-1.023,0-1.414c-0.391-0.391-1.023-0.391-1.414,0
		l-9.999,9.999c-0.091,0.091-0.165,0.199-0.215,0.32c-0.051,0.12-0.075,0.248-0.076,0.377C0.002,30.993,0,30.996,0,31
		c0,0.04,0.018,0.073,0.023,0.112c0.01,0.086,0.019,0.171,0.051,0.253c0.024,0.062,0.066,0.112,0.101,0.167
		c0.03,0.047,0.047,0.098,0.085,0.141l10,11C10.458,42.89,10.729,43,11,43c0.24,0,0.481-0.086,0.672-0.26
		c0.409-0.371,0.438-1.004,0.067-1.413L3.261,32h25.479c0.552,0,1-0.448,1-1S29.292,30,28.739,30z"/>
	<path fill="#010101" d="M59,0H41c-0.552,0-1,0.448-1,1v58c0,0.552,0.448,1,1,1h18c0.552,0,1-0.448,1-1V1C60,0.448,59.552,0,59,0z
		 M58,58H42V2h16V58z"/>
</g>
</svg>
