<?xml version="1.0" encoding="utf-8"?>
<!-- Generator: Adobe Illustrator 17.0.0, SVG Export Plug-In . SVG Version: 6.00 Build 0)  -->
<!DOCTYPE svg PUBLIC "-//W3C//DTD SVG 1.1//EN" "http://www.w3.org/Graphics/SVG/1.1/DTD/svg11.dtd">
<svg version="1.1" id="Layer_1" xmlns="http://www.w3.org/2000/svg" xmlns:xlink="http://www.w3.org/1999/xlink" x="0px" y="0px"
	 width="60px" height="60px" viewBox="0 0 60 60" enable-background="new 0 0 60 60" xml:space="preserve">
<g>
	<path fill="#010101" d="M59,26H3.359l9.36-9.674c0.384-0.397,0.373-1.03-0.023-1.414c-0.397-0.384-1.03-0.374-1.414,0.023
		l-11,11.37c-0.04,0.041-0.059,0.093-0.09,0.139c-0.04,0.058-0.087,0.111-0.115,0.177c-0.049,0.121-0.076,0.248-0.076,0.377
		C0.001,26.998,0,26.999,0,27c0,0.023,0.012,0.042,0.013,0.065c0.007,0.105,0.022,0.21,0.062,0.309
		c0.026,0.065,0.071,0.117,0.11,0.175c0.031,0.046,0.049,0.097,0.088,0.139l11,11.63C11.47,39.525,11.735,39.63,12,39.63
		c0.247,0,0.494-0.091,0.688-0.273c0.401-0.379,0.419-1.013,0.039-1.414L3.322,28H58v16c0,0.552,0.447,1,1,1c0.553,0,1-0.448,1-1V27
		C60,26.448,59.553,26,59,26z"/>
</g>
</svg>
