<?xml version="1.0" encoding="utf-8"?>
<!-- Generator: Adobe Illustrator 17.0.0, SVG Export Plug-In . SVG Version: 6.00 Build 0)  -->
<!DOCTYPE svg PUBLIC "-//W3C//DTD SVG 1.1//EN" "http://www.w3.org/Graphics/SVG/1.1/DTD/svg11.dtd">
<svg version="1.1" id="Layer_1" xmlns="http://www.w3.org/2000/svg" xmlns:xlink="http://www.w3.org/1999/xlink" x="0px" y="0px"
	 width="60px" height="60px" viewBox="0 0 60 60" enable-background="new 0 0 60 60" xml:space="preserve">
<g>
	<path fill="#010101" d="M44.978,28.889c-0.01-0.086-0.019-0.172-0.051-0.254c-0.024-0.061-0.064-0.11-0.099-0.164
		c-0.03-0.047-0.048-0.1-0.087-0.143l-10-11c-0.371-0.408-1.005-0.438-1.413-0.067c-0.408,0.371-0.438,1.004-0.067,1.413L41.74,28H1
		c-0.553,0-1,0.448-1,1s0.447,1,1,1h40.586l-8.293,8.293c-0.391,0.391-0.391,1.023,0,1.414C33.488,39.902,33.744,40,34,40
		c0.256,0,0.512-0.098,0.707-0.293l9.999-9.999c0.091-0.091,0.165-0.199,0.216-0.32c0.051-0.12,0.075-0.248,0.076-0.377
		C44.998,29.007,45,29.004,45,29C45,28.961,44.982,28.927,44.978,28.889z"/>
	<path fill="#010101" d="M59,0c-0.553,0-1,0.448-1,1v58c0,0.552,0.447,1,1,1c0.553,0,1-0.448,1-1V1C60,0.448,59.553,0,59,0z"/>
</g>
</svg>
