<?xml version="1.0" encoding="utf-8"?>
<!-- Generator: Adobe Illustrator 17.0.0, SVG Export Plug-In . SVG Version: 6.00 Build 0)  -->
<!DOCTYPE svg PUBLIC "-//W3C//DTD SVG 1.1//EN" "http://www.w3.org/Graphics/SVG/1.1/DTD/svg11.dtd">
<svg version="1.1" id="Layer_1" xmlns="http://www.w3.org/2000/svg" xmlns:xlink="http://www.w3.org/1999/xlink" x="0px" y="0px"
	 width="60px" height="60px" viewBox="0 0 60 60" enable-background="new 0 0 60 60" xml:space="preserve">
<g>
	<path fill="#010101" d="M31,0c-0.552,0-1,0.448-1,1v40.586l-8.293-8.293c-0.391-0.391-1.023-0.391-1.414,0
		c-0.391,0.391-0.391,1.023,0,1.414l10,10C30.488,44.902,30.744,45,31,45c0.256,0,0.512-0.098,0.707-0.293l10-10
		c0.391-0.391,0.391-1.023,0-1.414c-0.391-0.391-1.023-0.391-1.414,0L32,41.586V1C32,0.448,31.552,0,31,0z"/>
	<path fill="#010101" d="M1,60h58c0.552,0,1-0.448,1-1s-0.448-1-1-1H1c-0.552,0-1,0.448-1,1S0.448,60,1,60z"/>
</g>
</svg>
