<?xml version="1.0" encoding="utf-8"?>
<!-- Generator: Adobe Illustrator 17.0.0, SVG Export Plug-In . SVG Version: 6.00 Build 0)  -->
<!DOCTYPE svg PUBLIC "-//W3C//DTD SVG 1.1//EN" "http://www.w3.org/Graphics/SVG/1.1/DTD/svg11.dtd">
<svg version="1.1" id="Layer_1" xmlns="http://www.w3.org/2000/svg" xmlns:xlink="http://www.w3.org/1999/xlink" x="0px" y="0px"
	 width="60px" height="60px" viewBox="0 0 60 60" enable-background="new 0 0 60 60" xml:space="preserve">
<g>
	<path fill="#010101" d="M59.977,31.112C59.982,31.073,60,31.04,60,31c0-0.004-0.002-0.007-0.002-0.011
		c-0.002-0.129-0.025-0.256-0.076-0.377c-0.051-0.12-0.124-0.229-0.215-0.32l-9.999-9.999c-0.391-0.391-1.023-0.391-1.414,0
		c-0.391,0.391-0.391,1.023,0,1.414L56.586,30H31.261c-0.552,0-1,0.448-1,1s0.448,1,1,1h25.479l-8.479,9.327
		c-0.372,0.409-0.342,1.042,0.067,1.413C48.519,42.914,48.76,43,49,43c0.272,0,0.543-0.11,0.74-0.327l10-11
		c0.038-0.042,0.055-0.094,0.085-0.141c0.036-0.055,0.077-0.105,0.101-0.167C59.958,31.283,59.968,31.198,59.977,31.112z"/>
	<path fill="#010101" d="M19,0H1C0.448,0,0,0.448,0,1v58c0,0.552,0.448,1,1,1h18c0.552,0,1-0.448,1-1V1C20,0.448,19.552,0,19,0z
		 M18,58H2V2h16V58z"/>
</g>
</svg>
