<?xml version="1.0" encoding="utf-8"?>
<!-- Generator: Adobe Illustrator 17.0.0, SVG Export Plug-In . SVG Version: 6.00 Build 0)  -->
<!DOCTYPE svg PUBLIC "-//W3C//DTD SVG 1.1//EN" "http://www.w3.org/Graphics/SVG/1.1/DTD/svg11.dtd">
<svg version="1.1" id="Layer_1" xmlns="http://www.w3.org/2000/svg" xmlns:xlink="http://www.w3.org/1999/xlink" x="0px" y="0px"
	 width="60px" height="60px" viewBox="0 0 60 60" enable-background="new 0 0 60 60" xml:space="preserve">
<g>
	<path fill="#010101" d="M29.684,17.364c-6.235,0-13.021,1.102-20.18,3.279l-7.799-7.744c-0.287-0.285-0.717-0.37-1.089-0.214
		C0.243,12.841,0,13.205,0,13.609V45c0,0.552,0.448,1,1,1h32.783c0.418,0,0.792-0.26,0.938-0.652
		c0.146-0.393,0.031-0.833-0.286-1.107l-8.738-7.505c5.989-2.937,12.157-4.544,17.508-4.544C48.729,32.192,58,34.037,58,46.391
		c0,0.552,0.448,1,1,1c0.007,0,0.013,0,0.02,0c0.552,0,1-0.448,1-1c0-0.069-0.007-0.137-0.021-0.202
		C59.919,27.867,48.879,17.364,29.684,17.364z M43.204,30.192c-6.064,0-13.08,1.934-19.758,5.444
		c-0.293,0.154-0.491,0.443-0.528,0.772s0.091,0.656,0.342,0.872L31.083,44H2V16.011l6.52,6.473
		c0.262,0.261,0.646,0.355,1.001,0.246c7.179-2.233,13.962-3.366,20.163-3.366c16.508,0,23.607,7.603,26.495,15.656
		C53.313,31.878,48.909,30.192,43.204,30.192z"/>
</g>
</svg>
