<?xml version="1.0" encoding="utf-8"?>
<!-- Generator: Adobe Illustrator 17.0.0, SVG Export Plug-In . SVG Version: 6.00 Build 0)  -->
<!DOCTYPE svg PUBLIC "-//W3C//DTD SVG 1.1//EN" "http://www.w3.org/Graphics/SVG/1.1/DTD/svg11.dtd">
<svg version="1.1" id="Layer_1" xmlns="http://www.w3.org/2000/svg" xmlns:xlink="http://www.w3.org/1999/xlink" x="0px" y="0px"
	 width="60px" height="60px" viewBox="0 0 60 60" enable-background="new 0 0 60 60" xml:space="preserve">
<g>
	<path fill="#010101" d="M59,0H41.348c-0.552,0-1,0.448-1,1s0.448,1,1,1H58v12c0,0.552,0.448,1,1,1s1-0.448,1-1V1
		C60,0.448,59.552,0,59,0z"/>
	<path fill="#010101" d="M0,14c0,0.552,0.448,1,1,1s1-0.448,1-1V2h16.652c0.552,0,1-0.448,1-1s-0.448-1-1-1H1C0.448,0,0,0.448,0,1
		V14z"/>
	<path fill="#010101" d="M59,45.391c-0.552,0-1,0.448-1,1V58H41.348c-0.552,0-1,0.448-1,1s0.448,1,1,1H59c0.552,0,1-0.448,1-1
		V46.391C60,45.839,59.552,45.391,59,45.391z"/>
	<path fill="#010101" d="M18.652,58H2V46.391c0-0.552-0.448-1-1-1s-1,0.448-1,1V59c0,0.552,0.448,1,1,1h17.652c0.552,0,1-0.448,1-1
		S19.205,58,18.652,58z"/>
	<path fill="#010101" d="M12,21v18c0,0.552,0.448,1,1,1h34c0.552,0,1-0.448,1-1V21c0-0.552-0.448-1-1-1H13
		C12.448,20,12,20.448,12,21z M14,22h32v16H14V22z"/>
</g>
</svg>
