<?xml version="1.0" encoding="utf-8"?>
<!-- Generator: Adobe Illustrator 17.0.0, SVG Export Plug-In . SVG Version: 6.00 Build 0)  -->
<!DOCTYPE svg PUBLIC "-//W3C//DTD SVG 1.1//EN" "http://www.w3.org/Graphics/SVG/1.1/DTD/svg11.dtd">
<svg version="1.1" id="Layer_1" xmlns="http://www.w3.org/2000/svg" xmlns:xlink="http://www.w3.org/1999/xlink" x="0px" y="0px"
	 width="60px" height="60px" viewBox="0 0 60 60" enable-background="new 0 0 60 60" xml:space="preserve">
<g>
	<path fill="#010101" d="M43.302,14.28C43.115,14.1,42.867,14,42.608,14H1c-0.553,0-1,0.448-1,1v32.174c0,0.552,0.447,1,1,1h41.608
		c0.266,0,0.519-0.105,0.707-0.293L59.707,31.49c0.19-0.19,0.296-0.448,0.293-0.716c-0.003-0.268-0.113-0.525-0.307-0.711
		L43.302,14.28z M42.194,46.174H2V16h40.205l15.367,14.796L42.194,46.174z"/>
	<path fill="#010101" d="M26.707,24.293c-0.391-0.391-1.023-0.391-1.414,0L20,29.586l-5.293-5.293c-0.391-0.391-1.023-0.391-1.414,0
		c-0.391,0.391-0.391,1.023,0,1.414L18.586,31l-5.293,5.293c-0.391,0.391-0.391,1.023,0,1.414C13.488,37.902,13.744,38,14,38
		c0.256,0,0.512-0.098,0.707-0.293L20,32.414l5.293,5.293C25.488,37.902,25.744,38,26,38c0.256,0,0.512-0.098,0.707-0.293
		c0.391-0.391,0.391-1.023,0-1.414L21.414,31l5.293-5.293C27.098,25.316,27.098,24.684,26.707,24.293z"/>
</g>
</svg>
