<?xml version="1.0" encoding="utf-8"?>
<!-- Generator: Adobe Illustrator 17.0.0, SVG Export Plug-In . SVG Version: 6.00 Build 0)  -->
<!DOCTYPE svg PUBLIC "-//W3C//DTD SVG 1.1//EN" "http://www.w3.org/Graphics/SVG/1.1/DTD/svg11.dtd">
<svg version="1.1" id="Layer_1" xmlns="http://www.w3.org/2000/svg" xmlns:xlink="http://www.w3.org/1999/xlink" x="0px" y="0px"
	 width="60px" height="60px" viewBox="0 0 60 60" enable-background="new 0 0 60 60" xml:space="preserve">
<g>
	<path fill="#010101" d="M16.707,25.707c0.391-0.391,0.391-1.023,0-1.414c-0.391-0.391-1.023-0.391-1.414,0l-8,8
		c-0.094,0.094-0.167,0.206-0.217,0.331c-0.021,0.051-0.02,0.106-0.032,0.16C7.027,32.855,7,32.923,7,33
		c0,0.006,0.003,0.011,0.003,0.017C7.003,33.022,7,33.027,7,33.033c0.002,0.054,0.027,0.101,0.037,0.153
		c0.015,0.076,0.023,0.154,0.054,0.222c0.021,0.047,0.057,0.083,0.085,0.126c0.045,0.068,0.086,0.137,0.146,0.193
		c0.008,0.008,0.011,0.019,0.02,0.026l8,7C15.531,40.919,15.766,41,16,41c0.278,0,0.555-0.116,0.753-0.341
		c0.364-0.416,0.322-1.047-0.094-1.411L10.661,34h38.677l-5.997,5.248c-0.416,0.364-0.458,0.995-0.094,1.411
		C43.445,40.884,43.722,41,44,41c0.233,0,0.468-0.081,0.658-0.248l8-7c0.008-0.007,0.012-0.018,0.02-0.026
		c0.059-0.055,0.101-0.124,0.146-0.193c0.028-0.043,0.064-0.079,0.085-0.126c0.031-0.069,0.039-0.146,0.054-0.222
		c0.01-0.052,0.035-0.099,0.037-0.153c0-0.006-0.003-0.011-0.003-0.017C52.997,33.011,53,33.006,53,33
		c0-0.077-0.027-0.145-0.044-0.217c-0.012-0.053-0.012-0.109-0.032-0.16c-0.051-0.125-0.124-0.237-0.218-0.331l-7.999-7.999
		c-0.391-0.391-1.023-0.391-1.414,0c-0.391,0.391-0.391,1.023,0,1.414L49.586,32H10.414L16.707,25.707z"/>
	<path fill="#010101" d="M1,50c0.552,0,1-0.448,1-1V16.217c0-0.552-0.448-1-1-1s-1,0.448-1,1V49C0,49.552,0.448,50,1,50z"/>
	<path fill="#010101" d="M59,15.217c-0.552,0-1,0.448-1,1V49c0,0.552,0.448,1,1,1s1-0.448,1-1V16.217
		C60,15.665,59.552,15.217,59,15.217z"/>
</g>
</svg>
