<?xml version="1.0" encoding="utf-8"?>
<!-- Generator: Adobe Illustrator 17.0.0, SVG Export Plug-In . SVG Version: 6.00 Build 0)  -->
<!DOCTYPE svg PUBLIC "-//W3C//DTD SVG 1.1//EN" "http://www.w3.org/Graphics/SVG/1.1/DTD/svg11.dtd">
<svg version="1.1" id="Layer_1" xmlns="http://www.w3.org/2000/svg" xmlns:xlink="http://www.w3.org/1999/xlink" x="0px" y="0px"
	 width="60px" height="60px" viewBox="0 0 60 60" enable-background="new 0 0 60 60" xml:space="preserve">
<g>
	<path fill="#010101" d="M19.924,43.293c-0.391-0.391-1.023-0.391-1.414,0c-0.391,0.391-0.391,1.023,0,1.414l8,8
		C26.706,52.902,26.961,53,27.217,53c0.256,0,0.512-0.098,0.707-0.293l8-8c0.391-0.391,0.391-1.023,0-1.414
		c-0.391-0.391-1.023-0.391-1.414,0l-6.293,6.293V10.414l6.293,6.293C34.706,16.902,34.961,17,35.217,17
		c0.256,0,0.512-0.098,0.707-0.293c0.391-0.391,0.391-1.023,0-1.414l-8-8c-0.391-0.391-1.023-0.391-1.414,0l-8,8
		c-0.391,0.391-0.391,1.023,0,1.414c0.391,0.391,1.023,0.391,1.414,0l6.293-6.293v39.172L19.924,43.293z"/>
	<path fill="#010101" d="M11.217,59c0,0.552,0.448,1,1,1H45c0.552,0,1-0.448,1-1s-0.448-1-1-1H12.217
		C11.665,58,11.217,58.448,11.217,59z"/>
	<path fill="#010101" d="M45,0H12.217c-0.552,0-1,0.448-1,1s0.448,1,1,1H45c0.552,0,1-0.448,1-1S45.552,0,45,0z"/>
</g>
</svg>
