<?xml version="1.0" encoding="utf-8"?>
<!-- Generator: Adobe Illustrator 17.0.0, SVG Export Plug-In . SVG Version: 6.00 Build 0)  -->
<!DOCTYPE svg PUBLIC "-//W3C//DTD SVG 1.1//EN" "http://www.w3.org/Graphics/SVG/1.1/DTD/svg11.dtd">
<svg version="1.1" id="Layer_1" xmlns="http://www.w3.org/2000/svg" xmlns:xlink="http://www.w3.org/1999/xlink" x="0px" y="0px"
	 width="60px" height="60px" viewBox="0 0 60 60" enable-background="new 0 0 60 60" xml:space="preserve">
<g>
	<path fill="#010101" d="M29,57.478c0.552,0,1-0.448,1-1v-5.043c0-0.552-0.448-1-1-1s-1,0.448-1,1v5.043
		C28,57.03,28.448,57.478,29,57.478z"/>
	<path fill="#010101" d="M46.87,32.522c0,0.552,0.448,1,1,1h5.044c0.552,0,1-0.448,1-1s-0.448-1-1-1H47.87
		C47.317,31.522,46.87,31.97,46.87,32.522z"/>
	<path fill="#010101" d="M29,14.609c0.552,0,1-0.448,1-1V3.522c0-0.552-0.448-1-1-1s-1,0.448-1,1v10.087
		C28,14.161,28.448,14.609,29,14.609z"/>
	<path fill="#010101" d="M18.921,55.481c0.125,0.052,0.255,0.077,0.383,0.077c0.392,0,0.765-0.232,0.924-0.617l1.933-4.66
		c0.212-0.51-0.031-1.095-0.54-1.307c-0.512-0.21-1.095,0.031-1.307,0.541l-1.933,4.66C18.169,54.685,18.412,55.27,18.921,55.481z"
		/>
	<path fill="#010101" d="M36.299,48.974c-0.51,0.211-0.753,0.795-0.543,1.306l1.924,4.66c0.159,0.385,0.532,0.619,0.925,0.619
		c0.127,0,0.256-0.024,0.381-0.076c0.51-0.211,0.753-0.795,0.542-1.306l-1.924-4.66C37.394,49.006,36.81,48.762,36.299,48.974z"/>
	<path fill="#010101" d="M5,33.522h5.044c0.552,0,1-0.448,1-1s-0.448-1-1-1H5c-0.552,0-1,0.448-1,1S4.448,33.522,5,33.522z"/>
	<path fill="#010101" d="M45.505,25.667c0.16,0.385,0.532,0.618,0.924,0.618c0.127,0,0.257-0.025,0.382-0.077l4.659-1.931
		c0.51-0.211,0.752-0.796,0.541-1.307c-0.212-0.51-0.798-0.753-1.307-0.541l-4.659,1.931C45.536,24.572,45.294,25.157,45.505,25.667
		z"/>
	<path fill="#010101" d="M12.405,39.377c-0.212-0.51-0.797-0.752-1.307-0.541l-4.66,1.931c-0.51,0.211-0.753,0.796-0.541,1.307
		c0.16,0.385,0.532,0.618,0.924,0.618c0.127,0,0.257-0.025,0.382-0.077l4.66-1.931C12.375,40.472,12.617,39.887,12.405,39.377z"/>
	<path fill="#010101" d="M45.188,50.169c0.195,0.195,0.451,0.293,0.707,0.293c0.256,0,0.512-0.098,0.707-0.293
		c0.391-0.391,0.391-1.024,0-1.414l-3.566-3.565c-0.391-0.391-1.023-0.391-1.414,0c-0.391,0.391-0.391,1.024,0,1.414L45.188,50.169z
		"/>
	<path fill="#010101" d="M42.329,20.147c0.256,0,0.512-0.098,0.707-0.293l3.566-3.565c0.391-0.39,0.391-1.023,0-1.414
		c-0.391-0.391-1.024-0.391-1.414,0l-3.566,3.565c-0.391,0.39-0.391,1.023,0,1.414C41.817,20.049,42.073,20.147,42.329,20.147z"/>
	<path fill="#010101" d="M35.81,15.973c0.125,0.052,0.254,0.077,0.382,0.077c0.393,0,0.765-0.233,0.924-0.618l1.93-4.662
		c0.211-0.51-0.031-1.095-0.542-1.306c-0.511-0.211-1.096,0.031-1.306,0.542l-1.93,4.662C35.058,15.177,35.3,15.762,35.81,15.973z"
		/>
	<path fill="#010101" d="M20.795,15.432c0.16,0.385,0.532,0.618,0.924,0.618c0.128,0,0.257-0.025,0.382-0.077
		c0.51-0.211,0.752-0.796,0.541-1.307l-1.931-4.659c-0.212-0.511-0.796-0.752-1.307-0.541c-0.51,0.211-0.753,0.796-0.541,1.307
		L20.795,15.432z"/>
	<path fill="#010101" d="M14.875,19.854c0.195,0.195,0.451,0.293,0.707,0.293c0.256,0,0.512-0.098,0.707-0.293
		c0.391-0.391,0.391-1.024,0-1.414l-3.566-3.565c-0.391-0.391-1.023-0.391-1.414,0c-0.391,0.391-0.391,1.024,0,1.414L14.875,19.854z
		"/>
	<path fill="#010101" d="M12.016,50.462c0.256,0,0.512-0.098,0.707-0.293l3.566-3.565c0.391-0.39,0.391-1.023,0-1.414
		c-0.391-0.391-1.023-0.391-1.414,0l-3.566,3.565c-0.391,0.39-0.391,1.023,0,1.414C11.504,50.364,11.76,50.462,12.016,50.462z"/>
	<path fill="#010101" d="M46.812,38.835c-0.511-0.21-1.096,0.031-1.307,0.541c-0.211,0.51,0.031,1.095,0.541,1.307l4.659,1.931
		c0.125,0.052,0.255,0.077,0.382,0.077c0.393,0,0.765-0.232,0.924-0.618c0.211-0.51-0.031-1.095-0.541-1.307L46.812,38.835z"/>
	<path fill="#010101" d="M6.439,24.277l4.66,1.931c0.125,0.052,0.255,0.077,0.382,0.077c0.392,0,0.765-0.233,0.924-0.618
		c0.211-0.51-0.031-1.095-0.541-1.307l-4.66-1.931c-0.511-0.212-1.095,0.031-1.307,0.541C5.687,23.481,5.929,24.066,6.439,24.277z"
		/>
</g>
</svg>
