<?xml version="1.0" encoding="utf-8"?>
<!-- Generator: Adobe Illustrator 17.0.0, SVG Export Plug-In . SVG Version: 6.00 Build 0)  -->
<!DOCTYPE svg PUBLIC "-//W3C//DTD SVG 1.1//EN" "http://www.w3.org/Graphics/SVG/1.1/DTD/svg11.dtd">
<svg version="1.1" id="Layer_1" xmlns="http://www.w3.org/2000/svg" xmlns:xlink="http://www.w3.org/1999/xlink" x="0px" y="0px"
	 width="60px" height="60px" viewBox="0 0 60 60" enable-background="new 0 0 60 60" xml:space="preserve">
<g>
	<path fill="#231F20" d="M33,45.87c-0.552,0-1,0.448-1,1V56H2V4h30v10.087c0,0.552,0.448,1,1,1s1-0.448,1-1V3c0-0.552-0.448-1-1-1H1
		C0.448,2,0,2.448,0,3v54c0,0.552,0.448,1,1,1h32c0.552,0,1-0.448,1-1V46.87C34,46.317,33.552,45.87,33,45.87z"/>
	<path fill="#231F20" d="M59.977,31.115C59.982,31.076,60,31.041,60,31c0-0.004-0.002-0.007-0.002-0.01
		c-0.001-0.129-0.026-0.257-0.076-0.377c-0.051-0.121-0.124-0.229-0.215-0.32L47.707,18.293c-0.391-0.391-1.023-0.391-1.414,0
		c-0.391,0.391-0.391,1.023,0,1.414L56.586,30H13.609c-0.552,0-1,0.448-1,1s0.448,1,1,1h43.107L46.265,43.322
		c-0.375,0.406-0.349,1.039,0.057,1.413C46.514,44.912,46.757,45,47,45c0.269,0,0.538-0.108,0.735-0.322l12-13
		c0.038-0.042,0.055-0.093,0.085-0.139c0.037-0.057,0.08-0.108,0.106-0.172C59.958,31.286,59.967,31.201,59.977,31.115z"/>
</g>
</svg>
