<?xml version="1.0" encoding="utf-8"?>
<!-- Generator: Adobe Illustrator 17.0.0, SVG Export Plug-In . SVG Version: 6.00 Build 0)  -->
<!DOCTYPE svg PUBLIC "-//W3C//DTD SVG 1.1//EN" "http://www.w3.org/Graphics/SVG/1.1/DTD/svg11.dtd">
<svg version="1.1" id="Layer_1" xmlns="http://www.w3.org/2000/svg" xmlns:xlink="http://www.w3.org/1999/xlink" x="0px" y="0px"
	 width="60px" height="60px" viewBox="0 0 60 60" enable-background="new 0 0 60 60" xml:space="preserve">
<g>
	<path fill="#231F20" d="M33.547,18.193c-0.519-0.183-1.091,0.091-1.275,0.612c-0.183,0.521,0.091,1.092,0.612,1.274l9.392,3.298
		c0.011,0.004,0.022,0.002,0.033,0.006c0.092,0.029,0.186,0.047,0.283,0.049c0.005,0,0.01,0.003,0.015,0.003
		c0.006,0,0.012-0.003,0.018-0.003c0.088-0.001,0.175-0.015,0.261-0.04c0.034-0.01,0.065-0.027,0.098-0.041
		c0.043-0.018,0.088-0.03,0.13-0.055c0.009-0.005,0.014-0.014,0.022-0.02c0.102-0.064,0.193-0.142,0.267-0.24
		c0.012-0.016,0.017-0.034,0.027-0.05c0.045-0.067,0.09-0.136,0.118-0.216l3.445-9.649c0.185-0.52-0.086-1.092-0.605-1.278
		c-0.521-0.185-1.093,0.086-1.278,0.606l-2.726,7.635L30.862,0.493c-0.359-0.611-1.364-0.611-1.724,0L16.53,21.928
		c-0.28,0.476-0.121,1.089,0.355,1.369c0.476,0.281,1.089,0.122,1.369-0.355L30,2.972l10.361,17.614L33.547,18.193z"/>
	<path fill="#231F20" d="M46.644,28.907c-0.288-0.471-0.904-0.619-1.375-0.332c-0.471,0.288-0.62,0.904-0.332,1.375l12.255,20.054
		l-21.568,0.052l6.062-5.304c0.416-0.364,0.458-0.995,0.094-1.411c-0.363-0.416-0.995-0.459-1.411-0.094l-8,7
		c-0.208,0.182-0.332,0.442-0.341,0.719c-0.009,0.276,0.097,0.544,0.293,0.74l8,8C40.516,59.902,40.771,60,41.027,60
		c0.256,0,0.512-0.098,0.707-0.293c0.391-0.391,0.391-1.023,0-1.414l-6.236-6.236L58.975,52c0.361-0.001,0.694-0.197,0.87-0.512
		c0.177-0.315,0.169-0.702-0.019-1.01L46.644,28.907z"/>
	<path fill="#231F20" d="M24.984,50H2.738l10.804-19.195l1.347,7.096c0.091,0.479,0.51,0.814,0.981,0.814
		c0.061,0,0.125-0.005,0.188-0.018c0.542-0.103,0.899-0.626,0.796-1.169l-1.844-9.714c-0.05-0.263-0.203-0.495-0.425-0.644
		c-0.222-0.149-0.495-0.202-0.757-0.149L3.573,29.118c-0.542,0.11-0.89,0.639-0.779,1.18c0.11,0.541,0.641,0.893,1.18,0.779
		l8.046-1.646L0.156,50.509c-0.174,0.31-0.171,0.689,0.008,0.996C0.343,51.812,0.672,52,1.027,52h23.957c0.552,0,1-0.448,1-1
		S25.536,50,24.984,50z"/>
</g>
</svg>
