<?xml version="1.0" encoding="utf-8"?>
<!-- Generator: Adobe Illustrator 17.0.0, SVG Export Plug-In . SVG Version: 6.00 Build 0)  -->
<!DOCTYPE svg PUBLIC "-//W3C//DTD SVG 1.1//EN" "http://www.w3.org/Graphics/SVG/1.1/DTD/svg11.dtd">
<svg version="1.1" id="Layer_1" xmlns="http://www.w3.org/2000/svg" xmlns:xlink="http://www.w3.org/1999/xlink" x="0px" y="0px"
	 width="60px" height="60px" viewBox="0 0 60 60" enable-background="new 0 0 60 60" xml:space="preserve">
<g>
	<path fill="#231F20" d="M51.234,25.191c-0.117-0.184-0.287-0.314-0.487-0.389c-0.017-0.007-0.033-0.012-0.05-0.018
		c-0.099-0.032-0.199-0.046-0.306-0.045c-0.04-0.002-0.077-0.02-0.118-0.017c-0.029,0.003-0.053,0.022-0.081,0.027
		c-0.012,0.003-0.024-0.001-0.036,0.002c-0.026,0.007-0.045,0.025-0.07,0.034c-0.233,0.07-0.444,0.198-0.574,0.408l-6.772,10.952
		c-0.291,0.47-0.145,1.086,0.325,1.377c0.163,0.101,0.346,0.149,0.525,0.149c0.335,0,0.662-0.168,0.852-0.474l5.471-8.847
		c1.859,12.242-5.676,24.109-17.682,27.146c-0.536,0.135-0.86,0.679-0.724,1.214c0.114,0.453,0.522,0.755,0.968,0.755
		c0.082,0,0.164-0.01,0.246-0.031c12.684-3.207,20.761-15.497,19.296-28.386l6.222,6.908c0.37,0.409,1.001,0.442,1.413,0.074
		c0.41-0.37,0.443-1.002,0.074-1.413L51.234,25.191z"/>
	<path fill="#231F20" d="M44.484,16.853c0.198,0.234,0.48,0.354,0.764,0.354c0.228,0,0.458-0.078,0.646-0.237
		c0.421-0.357,0.474-0.988,0.117-1.409C41.537,10.275,35.207,7.1,28.187,6.62C22.424,6.223,16.8,7.682,12.012,10.75l3.495-8.68
		c0.206-0.512-0.042-1.095-0.554-1.301c-0.515-0.208-1.095,0.043-1.301,0.554l-4.81,11.945c-0.018,0.044-0.01,0.093-0.021,0.138
		c-0.018,0.074-0.033,0.144-0.033,0.22c-0.001,0.074,0.008,0.141,0.023,0.214c0.013,0.063,0.033,0.122,0.059,0.183
		c0.019,0.045,0.019,0.095,0.044,0.137c0.018,0.03,0.05,0.045,0.071,0.072c0.012,0.016,0.015,0.035,0.028,0.05
		c0.028,0.033,0.067,0.049,0.098,0.078c0.06,0.055,0.116,0.11,0.188,0.149c0.068,0.037,0.14,0.053,0.213,0.073
		c0.054,0.015,0.101,0.049,0.158,0.054l12.813,1.273c0.034,0.004,0.067,0.005,0.1,0.005c0.508,0,0.943-0.385,0.994-0.901
		c0.055-0.55-0.347-1.039-0.896-1.094l-10.294-1.023C16.962,9.743,22.434,8.23,28.05,8.615
		C34.526,9.058,40.363,11.984,44.484,16.853z"/>
	<path fill="#231F20" d="M13.646,44.31c-0.229-0.502-0.824-0.722-1.326-0.493c-0.502,0.23-0.723,0.823-0.493,1.326l4.357,9.511
		c-5.089-2.351-9.195-6.348-11.697-11.449c-2.854-5.82-3.252-12.344-1.122-18.368c0.184-0.521-0.089-1.092-0.609-1.276
		c-0.523-0.185-1.093,0.089-1.276,0.609c-2.311,6.536-1.881,13.608,1.212,19.915c2.543,5.185,6.631,9.294,11.681,11.884
		l-9.161,1.344c-0.546,0.08-0.925,0.588-0.844,1.134c0.073,0.498,0.5,0.855,0.988,0.855c0.048,0,0.098-0.003,0.146-0.011
		l12.452-1.827c0.01,0,0.02,0.005,0.03,0.005c0.174,0,0.338-0.054,0.486-0.138c0.209-0.087,0.397-0.219,0.507-0.422
		c0.15-0.276,0.162-0.608,0.031-0.894L13.646,44.31z"/>
</g>
</svg>
