<?xml version="1.0" encoding="utf-8"?>
<!-- Generator: Adobe Illustrator 17.0.0, SVG Export Plug-In . SVG Version: 6.00 Build 0)  -->
<!DOCTYPE svg PUBLIC "-//W3C//DTD SVG 1.1//EN" "http://www.w3.org/Graphics/SVG/1.1/DTD/svg11.dtd">
<svg version="1.1" id="Layer_1" xmlns="http://www.w3.org/2000/svg" xmlns:xlink="http://www.w3.org/1999/xlink" x="0px" y="0px"
	 width="60px" height="60px" viewBox="0 0 60 60" enable-background="new 0 0 60 60" xml:space="preserve">
<g>
	<path fill="#010101" d="M43.869,27.261H13.608c-0.553,0-1,0.448-1,1s0.447,1,1,1h30.261c0.553,0,1-0.448,1-1
		S44.422,27.261,43.869,27.261z"/>
	<path fill="#010101" d="M1,57h56c0.553,0,1-0.448,1-1V0c0-0.552-0.447-1-1-1H1C0.447-1,0-0.552,0,0v56C0,56.552,0.447,57,1,57z
		 M2,1h54v54H2V1z"/>
</g>
</svg>
