<?xml version="1.0" encoding="utf-8"?>
<!-- Generator: Adobe Illustrator 17.0.0, SVG Export Plug-In . SVG Version: 6.00 Build 0)  -->
<!DOCTYPE svg PUBLIC "-//W3C//DTD SVG 1.1//EN" "http://www.w3.org/Graphics/SVG/1.1/DTD/svg11.dtd">
<svg version="1.1" id="Layer_1" xmlns="http://www.w3.org/2000/svg" xmlns:xlink="http://www.w3.org/1999/xlink" x="0px" y="0px"
	 width="60px" height="60px" viewBox="0 0 60 60" enable-background="new 0 0 60 60" xml:space="preserve">
<g>
	<path fill="#010101" d="M9,33.652c-0.553,0-1,0.448-1,1V53c0,0.004,0.002,0.008,0.002,0.012c0.001,0.09,0.028,0.176,0.053,0.263
		c0.011,0.039,0.01,0.082,0.026,0.119c0.013,0.029,0.039,0.052,0.054,0.081c0.048,0.087,0.097,0.172,0.168,0.24
		c0.003,0.003,0.003,0.006,0.006,0.009c0.041,0.039,0.092,0.057,0.138,0.088c0.058,0.04,0.11,0.086,0.176,0.113
		C8.744,53.973,8.872,54,9,54h17.652c0.553,0,1-0.448,1-1c0-0.552-0.447-1-1-1H11.337L50,11.496v15.591c0,0.552,0.447,1,1,1
		c0.553,0,1-0.448,1-1V9c0-0.004-0.002-0.008-0.002-0.012C51.997,8.9,51.97,8.815,51.945,8.729c-0.012-0.04-0.011-0.085-0.027-0.123
		c-0.012-0.028-0.037-0.049-0.051-0.076c-0.048-0.088-0.099-0.175-0.171-0.245c-0.003-0.003-0.003-0.006-0.006-0.009
		c-0.032-0.031-0.074-0.043-0.109-0.069c-0.067-0.049-0.132-0.102-0.21-0.133c-0.074-0.03-0.152-0.035-0.231-0.047
		C51.092,8.021,51.05,8,51,8H34.218c-0.553,0-1,0.448-1,1c0,0.552,0.447,1,1,1h14.445L10,50.504V34.652
		C10,34.1,9.553,33.652,9,33.652z"/>
</g>
</svg>
