<?xml version="1.0" encoding="utf-8"?>
<!-- Generator: Adobe Illustrator 17.0.0, SVG Export Plug-In . SVG Version: 6.00 Build 0)  -->
<!DOCTYPE svg PUBLIC "-//W3C//DTD SVG 1.1//EN" "http://www.w3.org/Graphics/SVG/1.1/DTD/svg11.dtd">
<svg version="1.1" id="Layer_1" xmlns="http://www.w3.org/2000/svg" xmlns:xlink="http://www.w3.org/1999/xlink" x="0px" y="0px"
	 width="60px" height="60px" viewBox="0 0 60 60" enable-background="new 0 0 60 60" xml:space="preserve">
<g>
	<path fill="#010101" d="M49,19.739c0.552,0,1-0.448,1-1V9c0-0.13-0.027-0.26-0.077-0.382c-0.101-0.245-0.296-0.439-0.541-0.541
		C49.26,8.027,49.13,8,49,8h-9.826c-0.552,0-1,0.448-1,1c0,0.552,0.448,1,1,1h7.412L10,46.586v-7.673c0-0.552-0.448-1-1-1
		s-1,0.448-1,1V49c0,0.13,0.027,0.26,0.077,0.382c0.101,0.244,0.296,0.439,0.541,0.541C8.74,49.973,8.87,50,9,50h10
		c0.552,0,1-0.448,1-1c0-0.552-0.448-1-1-1h-7.586L48,11.414v7.325C48,19.292,48.448,19.739,49,19.739z"/>
</g>
</svg>
