<?xml version="1.0" encoding="utf-8"?>
<!-- Generator: Adobe Illustrator 17.0.0, SVG Export Plug-In . SVG Version: 6.00 Build 0)  -->
<!DOCTYPE svg PUBLIC "-//W3C//DTD SVG 1.1//EN" "http://www.w3.org/Graphics/SVG/1.1/DTD/svg11.dtd">
<svg version="1.1" id="Layer_1" xmlns="http://www.w3.org/2000/svg" xmlns:xlink="http://www.w3.org/1999/xlink" x="0px" y="0px"
	 width="60px" height="60px" viewBox="0 0 60 60" enable-background="new 0 0 60 60" xml:space="preserve">
<g>
	<path fill="#231F20" d="M29,1C13.009,1,0,14.009,0,30s13.009,29,29,29c15.991,0,29-13.009,29-29S44.991,1,29,1z M29,57
		C14.112,57,2,44.888,2,30S14.112,3,29,3s27,12.112,27,27S43.888,57,29,57z"/>
	<path fill="#231F20" d="M45.107,27.114C45.112,27.075,45.13,27.04,45.13,27c0-0.006-0.003-0.01-0.003-0.016
		c-0.002-0.117-0.027-0.233-0.069-0.343c-0.004-0.01-0.003-0.021-0.007-0.031c-0.042-0.099-0.109-0.189-0.184-0.273
		c-0.012-0.013-0.017-0.031-0.03-0.044l-7-7c-0.391-0.391-1.023-0.391-1.414,0c-0.391,0.391-0.391,1.023,0,1.414L41.717,26
		l-21.629,0.004c-4.632,0.399-7.16,3.619-6.935,8.834c0.178,4.15,2.226,9.162,4.5,9.162c0.552,0,1.042-0.442,1.042-0.994
		c0-0.552-0.406-0.994-0.958-0.994c-0.862-0.337-3.105-5.024-2.497-9.237c0.421-2.92,2.11-4.528,4.934-4.775h21.753l-5.549,6.341
		c-0.364,0.416-0.322,1.047,0.094,1.411C36.662,35.919,36.896,36,37.13,36c0.278,0,0.555-0.116,0.753-0.341l7-8
		c0.037-0.042,0.053-0.094,0.082-0.14c0.033-0.053,0.07-0.101,0.093-0.16C45.089,27.279,45.098,27.197,45.107,27.114z"/>
</g>
</svg>
