<?xml version="1.0" encoding="utf-8"?>
<!-- Generator: Adobe Illustrator 17.0.0, SVG Export Plug-In . SVG Version: 6.00 Build 0)  -->
<!DOCTYPE svg PUBLIC "-//W3C//DTD SVG 1.1//EN" "http://www.w3.org/Graphics/SVG/1.1/DTD/svg11.dtd">
<svg version="1.1" id="Layer_1" xmlns="http://www.w3.org/2000/svg" xmlns:xlink="http://www.w3.org/1999/xlink" x="0px" y="0px"
	 width="60px" height="60px" viewBox="0 0 60 60" enable-background="new 0 0 60 60" xml:space="preserve">
<g>
	<path fill="#231F20" d="M29,32c0.553,0,1-0.448,1-1V11.414l3.293,3.293C33.488,14.902,33.744,15,34,15
		c0.256,0,0.512-0.098,0.707-0.293c0.391-0.391,0.391-1.023,0-1.414l-4.999-4.999c-0.092-0.093-0.203-0.166-0.326-0.217
		c-0.244-0.101-0.52-0.101-0.764,0c-0.123,0.051-0.234,0.124-0.326,0.217l-4.999,4.999c-0.391,0.391-0.391,1.023,0,1.414
		c0.391,0.391,1.023,0.391,1.414,0L28,11.414V31C28,31.552,28.447,32,29,32z"/>
	<path fill="#231F20" d="M35.08,18.552c-0.509-0.212-1.095,0.027-1.308,0.538c-0.213,0.51,0.028,1.095,0.538,1.308
		c5.754,2.401,9.472,7.979,9.472,14.211C43.782,43.096,36.878,50,28.392,50C19.904,50,13,43.096,13,34.609
		c0-6.202,3.688-11.769,9.396-14.183c0.509-0.215,0.746-0.802,0.531-1.311c-0.215-0.508-0.803-0.747-1.31-0.531
		C15.168,21.312,11,27.602,11,34.609C11,44.198,18.802,52,28.392,52c9.589,0,17.391-7.802,17.391-17.391
		C45.782,27.568,41.581,21.265,35.08,18.552z"/>
</g>
</svg>
