<?xml version="1.0" encoding="utf-8"?>
<!-- Generator: Adobe Illustrator 17.0.0, SVG Export Plug-In . SVG Version: 6.00 Build 0)  -->
<!DOCTYPE svg PUBLIC "-//W3C//DTD SVG 1.1//EN" "http://www.w3.org/Graphics/SVG/1.1/DTD/svg11.dtd">
<svg version="1.1" id="Layer_1" xmlns="http://www.w3.org/2000/svg" xmlns:xlink="http://www.w3.org/1999/xlink" x="0px" y="0px"
	 width="60px" height="60px" viewBox="0 0 60 60" enable-background="new 0 0 60 60" xml:space="preserve">
<g>
	<path fill="#231F20" d="M29.131,26.217c0.553,0,1-0.448,1-1V4.662l5.247,5.997C35.576,10.884,35.852,11,36.131,11
		c0.234,0,0.469-0.081,0.658-0.248c0.416-0.364,0.458-0.995,0.095-1.411l-7-8c-0.381-0.434-1.125-0.434-1.506,0l-7,8
		c-0.363,0.416-0.321,1.047,0.095,1.411c0.414,0.363,1.045,0.322,1.411-0.094l5.247-5.997v20.556
		C28.131,25.769,28.578,26.217,29.131,26.217z"/>
	<path fill="#231F20" d="M37.485,15.57c-0.518-0.195-1.094,0.066-1.289,0.582c-0.195,0.517,0.065,1.094,0.582,1.289
		C44.686,20.427,50,28.112,50,36.565C50,47.833,40.833,57,29.565,57C18.298,57,9.131,47.833,9.131,36.565
		c0-8.457,5.313-16.143,13.222-19.126c0.518-0.195,0.778-0.772,0.583-1.289c-0.195-0.517-0.771-0.777-1.288-0.583
		C12.965,18.843,7.131,27.281,7.131,36.565C7.131,48.936,17.195,59,29.565,59S52,48.936,52,36.565
		C52,27.285,46.167,18.848,37.485,15.57z"/>
</g>
</svg>
