<?xml version="1.0" encoding="utf-8"?>
<!-- Generator: Adobe Illustrator 17.0.0, SVG Export Plug-In . SVG Version: 6.00 Build 0)  -->
<!DOCTYPE svg PUBLIC "-//W3C//DTD SVG 1.1//EN" "http://www.w3.org/Graphics/SVG/1.1/DTD/svg11.dtd">
<svg version="1.1" id="Layer_1" xmlns="http://www.w3.org/2000/svg" xmlns:xlink="http://www.w3.org/1999/xlink" x="0px" y="0px"
	 width="60px" height="60px" viewBox="0 0 60 60" enable-background="new 0 0 60 60" xml:space="preserve">
<g>
	<path fill="#231F20" d="M30,0C14.01,0,1,13.009,1,29s13.01,29,29,29c15.99,0,29-13.009,29-29S45.99,0,30,0z M30,56
		C15.112,56,3,43.888,3,29S15.112,2,30,2s27,12.112,27,27S44.888,56,30,56z"/>
	<path fill="#231F20" d="M33,16h-6c-0.553,0-1,0.448-1,1v26c0,0.552,0.447,1,1,1h6c0.553,0,1-0.448,1-1V17
		C34,16.448,33.553,16,33,16z M32,42h-4V18h4V42z"/>
</g>
</svg>
