<?xml version="1.0" encoding="utf-8"?>
<!-- Generator: Adobe Illustrator 17.0.0, SVG Export Plug-In . SVG Version: 6.00 Build 0)  -->
<!DOCTYPE svg PUBLIC "-//W3C//DTD SVG 1.1//EN" "http://www.w3.org/Graphics/SVG/1.1/DTD/svg11.dtd">
<svg version="1.1" id="Layer_1" xmlns="http://www.w3.org/2000/svg" xmlns:xlink="http://www.w3.org/1999/xlink" x="0px" y="0px"
	 width="60px" height="60px" viewBox="0 0 60 60" enable-background="new 0 0 60 60" xml:space="preserve">
<g>
	<path fill="#010101" d="M29,46.913c9.589,0,17.391-7.802,17.391-17.392c0-7.043-4.201-13.345-10.702-16.057
		c-0.509-0.214-1.095,0.027-1.308,0.538c-0.213,0.509,0.028,1.095,0.538,1.308c5.754,2.4,9.472,7.979,9.472,14.211
		c0,8.487-6.904,15.392-15.391,15.392s-15.391-6.905-15.391-15.392c0-6.2,3.69-11.767,9.4-14.182
		c0.509-0.215,0.747-0.802,0.531-1.311c-0.215-0.509-0.8-0.746-1.311-0.531c-6.452,2.729-10.621,9.018-10.621,16.024
		C11.609,39.111,19.411,46.913,29,46.913z"/>
	<path fill="#010101" d="M29,26.739c0.552,0,1-0.448,1-1V9.348c0-0.552-0.448-1-1-1s-1,0.448-1,1v16.392
		C28,26.292,28.448,26.739,29,26.739z"/>
</g>
</svg>
