<?xml version="1.0" encoding="utf-8"?>
<!-- Generator: Adobe Illustrator 17.0.0, SVG Export Plug-In . SVG Version: 6.00 Build 0)  -->
<!DOCTYPE svg PUBLIC "-//W3C//DTD SVG 1.1//EN" "http://www.w3.org/Graphics/SVG/1.1/DTD/svg11.dtd">
<svg version="1.1" id="Layer_1" xmlns="http://www.w3.org/2000/svg" xmlns:xlink="http://www.w3.org/1999/xlink" x="0px" y="0px"
	 width="60px" height="60px" viewBox="0 0 60 60" enable-background="new 0 0 60 60" xml:space="preserve">
<g>
	<path fill="#010101" d="M28.743,39.81H14.544c0.863-1.2,1.907-2.515,3.172-3.956h4.592c0.379,0,0.725-0.214,0.894-0.553
		c0.169-0.339,0.133-0.744-0.095-1.047l-7.565-10.087c-0.188-0.251-0.485-0.4-0.8-0.4H0.873c-0.441,0-0.829,0.289-0.957,0.71
		c-0.128,0.421,0.036,0.877,0.402,1.122l2.698,1.798c-0.854,0.924-1.882,2.535-1.882,4.934c0,2.506,2.829,8.243,6.826,16.075
		l0.962,1.89c0.327,1.246,0.938,1.834,1.06,1.942c0.071,0.062,0.153,0.102,0.234,0.141c0.898,1.177,2.896,3.431,4.526,3.431h14
		c0.552,0,1-0.448,1-1v-14C29.743,40.258,29.295,39.81,28.743,39.81z M3.134,32.332c0-2.861,1.967-4.142,2.044-4.191
		c0.291-0.178,0.471-0.492,0.478-0.833c0.006-0.341-0.162-0.662-0.445-0.851l-1.034-0.689h10.066l6.065,8.087h-3.043
		c-0.286,0-0.558,0.122-0.748,0.336c-4.66,5.243-6.723,9.136-7.458,11.969C6.369,40.876,3.134,34.375,3.134,32.332z M27.743,53.81
		H14.746c-0.565-0.037-2.409-1.776-3.223-3.033l-0.671-1.453l-0.079,0.036c-0.204-1.344,0.074-3.731,2.436-7.551h14.534V53.81z"/>
	<path fill="#010101" d="M59.411,29.9l-8.035-11.618c-0.315-0.455-0.938-0.568-1.391-0.253l-10.936,7.563
		c-0.222,0.153-0.373,0.391-0.418,0.657c-0.044,0.267,0.021,0.54,0.181,0.758l8.121,11.034c-1.451-0.017-3.027-0.113-4.714-0.295
		v-2.891c0-0.44-0.289-0.83-0.71-0.957c-0.42-0.129-0.877,0.036-1.122,0.402l-7.565,11.348c-0.209,0.313-0.224,0.717-0.039,1.045
		l7.098,12.609c0.18,0.319,0.516,0.509,0.872,0.509c0.071,0,0.144-0.008,0.215-0.023c0.43-0.095,0.747-0.459,0.782-0.898
		l0.352-4.465c0.557,0.191,1.244,0.346,2.01,0.346c1.181,0,2.298-0.358,3.32-1.065c2.371-1.64,7.432-10.177,11.282-17.091
		c0.753-0.87,0.972-1.628,1.034-1.933C60.28,33.301,60.304,31.191,59.411,29.9z M46.295,52.06c-0.681,0.471-1.416,0.71-2.183,0.71
		c-1.306,0-2.305-0.687-2.31-0.69c-0.293-0.21-0.677-0.244-1.004-0.093c-0.327,0.152-0.547,0.469-0.575,0.828l-0.208,2.645
		l-5.187-9.214l5.393-8.089v0.48c0,0.505,0.377,0.931,0.879,0.993c2.271,0.277,4.382,0.418,6.275,0.418
		c3.452,0,5.943-0.466,7.74-1.125C50.89,46.292,47.661,51.116,46.295,52.06z M49.377,37.985L41.034,26.65l9.266-6.409l7.466,10.796
		c0.437,0.632,0.486,2.029,0.11,2.961c-0.253,0.461-0.519,0.942-0.798,1.444C56.229,36.336,54.164,37.686,49.377,37.985z"/>
	<path fill="#010101" d="M44.627,17.277l6.304-11.952c0.193-0.366,0.141-0.813-0.132-1.125c-0.273-0.312-0.709-0.424-1.099-0.279
		l-4.034,1.488c-0.384-1.18-1.321-2.897-3.601-3.972C41.412,1.128,39.423,0.19,26.564,0.19c-1.835,0-3.618,0.021-5.236,0.05l0-0.004
		l-0.65,0.017c-0.102,0.002-0.212,0.004-0.312,0.006c-0.453-0.032-0.703,0.017-0.783,0.034c-0.003,0.001-0.005,0.003-0.008,0.003
		c-1.469,0.214-3.428,1.305-4.112,2.755L9.435,15.825c-0.113,0.24-0.126,0.515-0.037,0.765c0.09,0.25,0.275,0.453,0.515,0.566
		l12.025,5.673c0.138,0.065,0.283,0.096,0.426,0.096c0.375,0,0.734-0.212,0.905-0.573l5.504-11.667
		c0.726,1.309,1.476,2.816,2.242,4.56c-0.397,0.296-0.667,0.468-0.841,0.566h-0.301c-0.552,0-1,0.448-1,1
		c0,0.213,0.088,0.475,0.214,0.646c0.188,0.256,0.628,0.462,0.946,0.462c0.182,0,0.368-0.035,0.575-0.109h13.135
		C44.114,17.81,44.454,17.605,44.627,17.277z M21.887,20.594l-10.216-4.819l5.601-11.872c0.333-0.705,1.639-1.517,2.538-1.633
		l0.498-0.011c0.99,0.096,3.743,0.902,7.233,6.353L21.887,20.594z M33.208,15.81c0.055-0.209,0.042-0.436-0.047-0.646
		c-3.116-7.3-6.129-11.054-8.522-12.968c0.632-0.005,1.276-0.007,1.926-0.007c11.202,0,13.976,0.738,14.648,1.056
		c2.547,1.202,2.716,3.458,2.721,3.544c0.014,0.319,0.18,0.612,0.445,0.789c0.267,0.176,0.601,0.215,0.9,0.105L47.945,6.7
		L43.14,15.81H33.208z"/>
</g>
</svg>
