<?xml version="1.0" encoding="utf-8"?>
<!-- Generator: Adobe Illustrator 17.0.0, SVG Export Plug-In . SVG Version: 6.00 Build 0)  -->
<!DOCTYPE svg PUBLIC "-//W3C//DTD SVG 1.1//EN" "http://www.w3.org/Graphics/SVG/1.1/DTD/svg11.dtd">
<svg version="1.1" id="Layer_1" xmlns="http://www.w3.org/2000/svg" xmlns:xlink="http://www.w3.org/1999/xlink" x="0px" y="0px"
	 width="60px" height="60px" viewBox="0 0 60 60" enable-background="new 0 0 60 60" xml:space="preserve">
<g>
	<path fill="#231F20" d="M50.529,11.725c-4.884-4.537-11.238-6.89-17.904-6.657c-6.773,0.25-12.995,3.178-17.521,8.246
		c-4.173,4.672-6.485,10.781-6.675,17.463l-5.109-7.299c-0.316-0.453-0.939-0.562-1.392-0.246c-0.453,0.317-0.562,0.94-0.246,1.393
		l7,10c0.017,0.024,0.045,0.036,0.064,0.058c0.062,0.074,0.13,0.137,0.211,0.191c0.04,0.027,0.079,0.05,0.123,0.07
		c0.081,0.038,0.166,0.06,0.257,0.075c0.036,0.006,0.067,0.028,0.103,0.03c0.02,0.001,0.041,0.002,0.061,0.002
		c0.013,0,0.024-0.007,0.037-0.008c0.014,0,0.025,0.006,0.039,0.005c0.068-0.005,0.125-0.035,0.188-0.053
		c0.056-0.016,0.113-0.021,0.165-0.046c0.09-0.043,0.163-0.105,0.235-0.171c0.024-0.022,0.057-0.033,0.079-0.057l9-10
		c0.37-0.411,0.336-1.043-0.074-1.412c-0.41-0.371-1.043-0.335-1.412,0.074l-7.342,8.158c0.03-6.486,2.18-12.416,6.18-16.894
		c4.161-4.658,9.88-7.349,16.103-7.579c6.12-0.223,11.976,1.949,16.469,6.123c4.493,4.174,7.091,9.847,7.316,15.975
		c0.229,6.127-1.945,11.976-6.119,16.469c-4.174,4.493-9.848,7.091-15.976,7.315c-0.552,0.021-0.983,0.484-0.963,1.036
		c0.02,0.539,0.463,0.963,0.999,0.963c0.012,0,0.025,0,0.037-0.001c6.663-0.245,12.831-3.069,17.368-7.953
		c4.538-4.885,6.901-11.243,6.653-17.904C58.238,22.43,55.414,16.263,50.529,11.725z"/>
</g>
</svg>
