<?xml version="1.0" encoding="utf-8"?>
<!-- Generator: Adobe Illustrator 17.0.0, SVG Export Plug-In . SVG Version: 6.00 Build 0)  -->
<!DOCTYPE svg PUBLIC "-//W3C//DTD SVG 1.1//EN" "http://www.w3.org/Graphics/SVG/1.1/DTD/svg11.dtd">
<svg version="1.1" id="Layer_1" xmlns="http://www.w3.org/2000/svg" xmlns:xlink="http://www.w3.org/1999/xlink" x="0px" y="0px"
	 width="60px" height="60px" viewBox="0 0 60 60" enable-background="new 0 0 60 60" xml:space="preserve">
<g>
	<path fill="#231F20" d="M45.131,15.13c-6.854,0-11.49,7.286-15.975,14.332c-4.194,6.591-8.531,13.407-14.287,13.407
		C7.773,42.87,2,37.096,2,30s5.773-12.87,12.869-12.87c4.798,0,7.99,4.039,9.472,6.454l-6.7-1.265
		c-0.541-0.106-1.065,0.255-1.168,0.797c-0.103,0.542,0.254,1.066,0.797,1.168l8.763,1.655c0.062,0.012,0.124,0.017,0.186,0.017
		c0.001,0,0.002,0,0.003,0c0.006,0,0.012-0.003,0.018-0.003c0.116-0.003,0.227-0.029,0.335-0.071
		c0.013-0.005,0.026-0.003,0.039-0.008c0.019-0.008,0.031-0.025,0.05-0.035c0.039-0.02,0.082-0.032,0.119-0.057
		c0.031-0.021,0.048-0.054,0.076-0.078c0.049-0.042,0.092-0.085,0.132-0.134c0.04-0.05,0.073-0.102,0.103-0.159
		c0.031-0.059,0.054-0.117,0.073-0.181c0.009-0.031,0.029-0.056,0.035-0.088l1.651-8.762c0.103-0.542-0.255-1.065-0.797-1.168
		c-0.541-0.099-1.066,0.255-1.168,0.798l-1.138,6.034c-1.807-2.798-5.393-6.913-10.88-6.913C6.67,15.13,0,21.801,0,30
		s6.67,14.87,14.869,14.87c6.854,0,11.49-7.286,15.975-14.333c4.194-6.591,8.531-13.407,14.287-13.407C52.227,17.13,58,22.904,58,30
		s-5.773,12.87-12.869,12.87c-6.884,0-10.349-5.583-10.491-5.819c-0.284-0.474-0.898-0.628-1.372-0.343
		c-0.474,0.284-0.627,0.898-0.343,1.372c0.166,0.277,4.167,6.79,12.206,6.79C53.33,44.87,60,38.199,60,30S53.33,15.13,45.131,15.13z
		"/>
</g>
</svg>
