<?xml version="1.0" encoding="utf-8"?>
<!-- Generator: Adobe Illustrator 17.0.0, SVG Export Plug-In . SVG Version: 6.00 Build 0)  -->
<!DOCTYPE svg PUBLIC "-//W3C//DTD SVG 1.1//EN" "http://www.w3.org/Graphics/SVG/1.1/DTD/svg11.dtd">
<svg version="1.1" id="Layer_1" xmlns="http://www.w3.org/2000/svg" xmlns:xlink="http://www.w3.org/1999/xlink" x="0px" y="0px"
	 width="60px" height="60px" viewBox="0 0 60 60" enable-background="new 0 0 60 60" xml:space="preserve">
<g>
	<path fill="#010101" d="M1,60c0.256,0,0.512-0.098,0.707-0.293L20,41.414V52c0,0.552,0.448,1,1,1s1-0.448,1-1V39
		c0-0.13-0.027-0.26-0.077-0.382c-0.101-0.245-0.296-0.439-0.541-0.541C21.26,38.027,21.13,38,21,38H7.87c-0.552,0-1,0.448-1,1
		c0,0.552,0.448,1,1,1h10.716L0.293,58.293c-0.391,0.391-0.391,1.023,0,1.414C0.488,59.902,0.744,60,1,60z"/>
	<path fill="#010101" d="M59.707,0.293c-0.391-0.391-1.023-0.391-1.414,0L40,18.586V8c0-0.552-0.448-1-1-1s-1,0.448-1,1v13
		c0,0.13,0.027,0.26,0.077,0.382c0.101,0.244,0.296,0.439,0.541,0.541C38.74,21.973,38.87,22,39,22h12.87c0.552,0,1-0.448,1-1
		c0-0.552-0.448-1-1-1H41.414L59.707,1.707C60.098,1.316,60.098,0.684,59.707,0.293z"/>
</g>
</svg>
