<?xml version="1.0" encoding="utf-8"?>
<!-- Generator: Adobe Illustrator 17.0.0, SVG Export Plug-In . SVG Version: 6.00 Build 0)  -->
<!DOCTYPE svg PUBLIC "-//W3C//DTD SVG 1.1//EN" "http://www.w3.org/Graphics/SVG/1.1/DTD/svg11.dtd">
<svg version="1.1" id="Layer_1" xmlns="http://www.w3.org/2000/svg" xmlns:xlink="http://www.w3.org/1999/xlink" x="0px" y="0px"
	 width="60px" height="60px" viewBox="0 0 60 60" enable-background="new 0 0 60 60" xml:space="preserve">
<g>
	<path fill="#010101" d="M1,30h27v24.911l-6.472-5.663c-0.416-0.363-1.047-0.321-1.411,0.094c-0.364,0.416-0.322,1.047,0.094,1.411
		l8,7C28.399,57.918,28.635,58,28.87,58c0.023,0,0.046-0.011,0.069-0.012C28.96,57.989,28.978,58,29,58
		c0.394,0,0.727-0.233,0.89-0.564l7.638-6.684c0.416-0.364,0.458-0.995,0.094-1.411c-0.363-0.415-0.995-0.458-1.411-0.094L30,54.682
		V30h26.479c0.552,0,1-0.448,1-1s-0.448-1-1-1H30V4.443l6.157,6.259c0.388,0.394,1.021,0.399,1.414,0.012
		c0.394-0.387,0.399-1.02,0.012-1.414l-7.87-8c-0.001-0.001-0.002-0.001-0.003-0.002c-0.112-0.113-0.255-0.187-0.41-0.236
		c-0.095-0.03-0.19-0.06-0.291-0.06c-0.001,0-0.003,0.001-0.004,0.001C29.003,1.001,29.001,1,29,1c-0.034,0-0.062,0.016-0.095,0.019
		c-0.098,0.009-0.196,0.019-0.288,0.058c-0.073,0.03-0.132,0.082-0.195,0.128c-0.04,0.029-0.088,0.046-0.123,0.081l-8.13,8
		c-0.394,0.387-0.399,1.021-0.012,1.414C20.352,10.9,20.611,11,20.87,11c0.253,0,0.507-0.096,0.701-0.287L28,4.387V28H1
		c-0.552,0-1,0.448-1,1S0.448,30,1,30z"/>
</g>
</svg>
