<?xml version="1.0" encoding="utf-8"?>
<!-- Generator: Adobe Illustrator 17.0.0, SVG Export Plug-In . SVG Version: 6.00 Build 0)  -->
<!DOCTYPE svg PUBLIC "-//W3C//DTD SVG 1.1//EN" "http://www.w3.org/Graphics/SVG/1.1/DTD/svg11.dtd">
<svg version="1.1" id="Layer_1" xmlns="http://www.w3.org/2000/svg" xmlns:xlink="http://www.w3.org/1999/xlink" x="0px" y="0px"
	 width="60px" height="60px" viewBox="0 0 60 60" enable-background="new 0 0 60 60" xml:space="preserve">
<g>
	<path fill="#010101" d="M58.293,0.293L40,18.586V8.565c0-0.552-0.448-1-1-1s-1,0.448-1,1V21c0,0.13,0.027,0.26,0.077,0.382
		c0.101,0.244,0.296,0.439,0.541,0.541C38.74,21.973,38.87,22,39,22h12.435c0.552,0,1-0.448,1-1c0-0.552-0.448-1-1-1H41.414
		L59.707,1.707c0.391-0.391,0.391-1.023,0-1.414C59.316-0.098,58.684-0.098,58.293,0.293z"/>
	<path fill="#010101" d="M1,60c0.256,0,0.512-0.098,0.707-0.293L20,41.414v10.021c0,0.552,0.448,1,1,1s1-0.448,1-1V39
		c0-0.13-0.027-0.26-0.077-0.382c-0.101-0.245-0.296-0.439-0.541-0.541C21.26,38.027,21.13,38,21,38H8.565c-0.552,0-1,0.448-1,1
		c0,0.552,0.448,1,1,1h10.021L0.293,58.293c-0.391,0.391-0.391,1.023,0,1.414C0.488,59.902,0.744,60,1,60z"/>
	<path fill="#010101" d="M41.414,40h10.021c0.552,0,1-0.448,1-1c0-0.552-0.448-1-1-1H39c-0.13,0-0.26,0.027-0.382,0.077
		c-0.245,0.101-0.439,0.296-0.541,0.541C38.027,38.74,38,38.87,38,39v12.435c0,0.552,0.448,1,1,1s1-0.448,1-1V41.414l18.293,18.293
		C58.488,59.902,58.744,60,59,60s0.512-0.098,0.707-0.293c0.391-0.391,0.391-1.023,0-1.414L41.414,40z"/>
	<path fill="#010101" d="M21,7.565c-0.552,0-1,0.448-1,1v10.021L1.707,0.293c-0.391-0.391-1.023-0.391-1.414,0
		c-0.391,0.391-0.391,1.023,0,1.414L18.586,20H8.565c-0.552,0-1,0.448-1,1c0,0.552,0.448,1,1,1H21c0.13,0,0.26-0.027,0.382-0.077
		c0.245-0.101,0.439-0.296,0.541-0.541C21.973,21.26,22,21.13,22,21V8.565C22,8.013,21.552,7.565,21,7.565z"/>
	<path fill="#010101" d="M36,30c0-3.309-2.691-6-6-6s-6,2.691-6,6s2.691,6,6,6S36,33.309,36,30z M26,30c0-2.206,1.794-4,4-4
		s4,1.794,4,4c0,2.206-1.794,4-4,4S26,32.206,26,30z"/>
</g>
</svg>
