<?xml version="1.0" encoding="utf-8"?>
<!-- Generator: Adobe Illustrator 17.0.0, SVG Export Plug-In . SVG Version: 6.00 Build 0)  -->
<!DOCTYPE svg PUBLIC "-//W3C//DTD SVG 1.1//EN" "http://www.w3.org/Graphics/SVG/1.1/DTD/svg11.dtd">
<svg version="1.1" id="Layer_1" xmlns="http://www.w3.org/2000/svg" xmlns:xlink="http://www.w3.org/1999/xlink" x="0px" y="0px"
	 width="60px" height="60px" viewBox="0 0 60 60" enable-background="new 0 0 60 60" xml:space="preserve">
<g>
	<path fill="#010101" d="M58.293,0.293L34,24.586V8.565c0-0.552-0.447-1-1-1c-0.553,0-1,0.448-1,1V27c0,0.13,0.026,0.26,0.077,0.382
		c0.101,0.245,0.296,0.439,0.541,0.541C32.74,27.973,32.87,28,33,28h18.435c0.553,0,1-0.448,1-1c0-0.552-0.447-1-1-1H35.414
		L59.707,1.707c0.391-0.391,0.391-1.023,0-1.414C59.316-0.098,58.684-0.098,58.293,0.293z"/>
	<path fill="#010101" d="M1,60c0.256,0,0.512-0.098,0.707-0.293L26,35.414v16.021c0,0.552,0.447,1,1,1c0.553,0,1-0.448,1-1V33
		c0-0.13-0.026-0.26-0.077-0.382c-0.101-0.245-0.296-0.439-0.541-0.541C27.26,32.027,27.13,32,27,32H8.565c-0.553,0-1,0.448-1,1
		c0,0.552,0.447,1,1,1h16.021L0.293,58.293c-0.391,0.391-0.391,1.023,0,1.414C0.488,59.902,0.744,60,1,60z"/>
</g>
</svg>
