<?xml version="1.0" encoding="utf-8"?>
<!-- Generator: Adobe Illustrator 17.0.0, SVG Export Plug-In . SVG Version: 6.00 Build 0)  -->
<!DOCTYPE svg PUBLIC "-//W3C//DTD SVG 1.1//EN" "http://www.w3.org/Graphics/SVG/1.1/DTD/svg11.dtd">
<svg version="1.1" id="Layer_1" xmlns="http://www.w3.org/2000/svg" xmlns:xlink="http://www.w3.org/1999/xlink" x="0px" y="0px"
	 width="60px" height="60px" viewBox="0 0 60 60" enable-background="new 0 0 60 60" xml:space="preserve">
<g>
	<path fill="#010101" d="M1,60h22c0.553,0,1-0.448,1-1V37c0-0.552-0.447-1-1-1H1c-0.553,0-1,0.448-1,1v22C0,59.552,0.447,60,1,60z
		 M2,38h20v20H2V38z"/>
	<path fill="#010101" d="M59.382,0.077C59.26,0.027,59.13,0,59,0H43.869c-0.553,0-1,0.448-1,1s0.447,1,1,1h12.717L28.032,30.554
		c-0.391,0.391-0.391,1.023,0,1.414c0.195,0.195,0.451,0.293,0.707,0.293c0.256,0,0.512-0.098,0.707-0.293L58,3.414V16.13
		c0,0.552,0.447,1,1,1c0.553,0,1-0.448,1-1V1c0-0.13-0.026-0.26-0.077-0.382C59.822,0.373,59.627,0.179,59.382,0.077z"/>
</g>
</svg>
