<?xml version="1.0" encoding="utf-8"?>
<!-- Generator: Adobe Illustrator 17.0.0, SVG Export Plug-In . SVG Version: 6.00 Build 0)  -->
<!DOCTYPE svg PUBLIC "-//W3C//DTD SVG 1.1//EN" "http://www.w3.org/Graphics/SVG/1.1/DTD/svg11.dtd">
<svg version="1.1" id="Layer_1" xmlns="http://www.w3.org/2000/svg" xmlns:xlink="http://www.w3.org/1999/xlink" x="0px" y="0px"
	 width="60px" height="60px" viewBox="0 0 60 60" enable-background="new 0 0 60 60" xml:space="preserve">
<g>
	<path fill="#010101" d="M0.294,29.708l7.999,7.999C8.488,37.902,8.744,38,9,38c0.256,0,0.512-0.098,0.707-0.293
		c0.391-0.391,0.391-1.023,0-1.414L3.414,30H28v26.479c0,0.552,0.447,1,1,1c0.553,0,1-0.448,1-1V30h23.586l-6.293,6.293
		c-0.391,0.391-0.391,1.023,0,1.414C47.488,37.902,47.744,38,48,38c0.256,0,0.512-0.098,0.707-0.293l7.999-7.999
		c0.093-0.092,0.166-0.203,0.217-0.326c0.101-0.244,0.101-0.52,0-0.764c-0.051-0.123-0.124-0.234-0.217-0.326l-7.999-7.999
		c-0.391-0.391-1.023-0.391-1.414,0c-0.391,0.391-0.391,1.023,0,1.414L53.586,28H30V1c0-0.552-0.447-1-1-1c-0.553,0-1,0.448-1,1v27
		H3.414l6.293-6.293c0.391-0.391,0.391-1.023,0-1.414c-0.391-0.391-1.023-0.391-1.414,0l-7.999,7.999
		c-0.093,0.092-0.166,0.203-0.217,0.326c-0.101,0.244-0.101,0.52,0,0.764C0.128,29.505,0.201,29.616,0.294,29.708z"/>
</g>
</svg>
