<?xml version="1.0" encoding="utf-8"?>
<!-- Generator: Adobe Illustrator 17.0.0, SVG Export Plug-In . SVG Version: 6.00 Build 0)  -->
<!DOCTYPE svg PUBLIC "-//W3C//DTD SVG 1.1//EN" "http://www.w3.org/Graphics/SVG/1.1/DTD/svg11.dtd">
<svg version="1.1" id="Layer_1" xmlns="http://www.w3.org/2000/svg" xmlns:xlink="http://www.w3.org/1999/xlink" x="0px" y="0px"
	 width="60px" height="60px" viewBox="0 0 60 60" enable-background="new 0 0 60 60" xml:space="preserve">
<g>
	<path fill="#010101" d="M0,31c0,0.143,0.032,0.278,0.087,0.401c0.015,0.034,0.043,0.059,0.061,0.091
		c0.05,0.086,0.102,0.168,0.174,0.235c0.008,0.007,0.011,0.018,0.019,0.025l8,7C8.531,38.919,8.766,39,9,39
		c0.278,0,0.555-0.116,0.753-0.341c0.364-0.416,0.322-1.047-0.094-1.411L3.661,32H24v27c0,0.552,0.448,1,1,1s1-0.448,1-1V1
		c0-0.552-0.448-1-1-1s-1,0.448-1,1v29H3.661l5.997-5.248c0.416-0.364,0.458-0.995,0.094-1.411
		c-0.364-0.416-0.996-0.458-1.411-0.094l-8,7c-0.008,0.007-0.011,0.018-0.019,0.025c-0.072,0.067-0.125,0.149-0.174,0.235
		c-0.018,0.032-0.046,0.057-0.061,0.091C0.032,30.722,0,30.857,0,31z"/>
	<path fill="#010101" d="M59.852,30.508c-0.05-0.086-0.102-0.168-0.174-0.235c-0.008-0.007-0.011-0.018-0.019-0.025l-8-7
		c-0.417-0.364-1.046-0.321-1.411,0.094c-0.364,0.416-0.322,1.047,0.094,1.411L56.339,30H38V1c0-0.552-0.448-1-1-1s-1,0.448-1,1v58
		c0,0.552,0.448,1,1,1s1-0.448,1-1V32h18.339l-5.997,5.248c-0.416,0.364-0.458,0.995-0.094,1.411C50.445,38.884,50.722,39,51,39
		c0.233,0,0.468-0.081,0.658-0.248l8-7c0.008-0.007,0.011-0.018,0.019-0.025c0.072-0.067,0.125-0.149,0.174-0.235
		c0.019-0.032,0.047-0.057,0.061-0.091C59.968,31.278,60,31.143,60,31s-0.032-0.278-0.087-0.401
		C59.898,30.565,59.87,30.54,59.852,30.508z"/>
</g>
</svg>
