<?xml version="1.0" encoding="utf-8"?>
<!-- Generator: Adobe Illustrator 17.0.0, SVG Export Plug-In . SVG Version: 6.00 Build 0)  -->
<!DOCTYPE svg PUBLIC "-//W3C//DTD SVG 1.1//EN" "http://www.w3.org/Graphics/SVG/1.1/DTD/svg11.dtd">
<svg version="1.1" id="Layer_1" xmlns="http://www.w3.org/2000/svg" xmlns:xlink="http://www.w3.org/1999/xlink" x="0px" y="0px"
	 width="60px" height="60px" viewBox="0 0 60 60" enable-background="new 0 0 60 60" xml:space="preserve">
<g>
	<path fill="#010101" d="M59,36H1c-0.552,0-1,0.448-1,1s0.448,1,1,1h27v18.586l-6.293-6.293c-0.391-0.391-1.023-0.391-1.414,0
		c-0.391,0.391-0.391,1.023,0,1.414l7.999,7.999c0.092,0.092,0.203,0.166,0.326,0.216C28.74,59.973,28.87,60,29,60
		s0.26-0.027,0.382-0.077c0.123-0.051,0.233-0.124,0.326-0.216l7.999-7.999c0.391-0.391,0.391-1.023,0-1.414
		c-0.391-0.391-1.023-0.391-1.414,0L30,56.586V38h29c0.552,0,1-0.448,1-1S59.552,36,59,36z"/>
	<path fill="#010101" d="M59,24H30V3.414l6.293,6.293C36.488,9.902,36.744,10,37,10s0.512-0.098,0.707-0.293
		c0.391-0.391,0.391-1.023,0-1.414l-8-8c-0.391-0.391-1.023-0.391-1.414,0l-8,8c-0.391,0.391-0.391,1.023,0,1.414
		c0.391,0.391,1.023,0.391,1.414,0L28,3.414V24H1c-0.552,0-1,0.448-1,1s0.448,1,1,1h58c0.552,0,1-0.448,1-1S59.552,24,59,24z"/>
</g>
</svg>
