<?xml version="1.0" encoding="utf-8"?>
<!-- Generator: Adobe Illustrator 17.0.0, SVG Export Plug-In . SVG Version: 6.00 Build 0)  -->
<!DOCTYPE svg PUBLIC "-//W3C//DTD SVG 1.1//EN" "http://www.w3.org/Graphics/SVG/1.1/DTD/svg11.dtd">
<svg version="1.1" id="Layer_1" xmlns="http://www.w3.org/2000/svg" xmlns:xlink="http://www.w3.org/1999/xlink" x="0px" y="0px"
	 width="60px" height="60px" viewBox="0 0 60 60" enable-background="new 0 0 60 60" xml:space="preserve">
<g>
	<path fill="#010101" d="M23.826,29c0,3.309,2.691,6,6,6s6-2.691,6-6s-2.691-6-6-6S23.826,25.691,23.826,29z M33.826,29
		c0,2.206-1.794,4-4,4c-2.206,0-4-1.794-4-4c0-2.206,1.794-4,4-4C32.032,25,33.826,26.794,33.826,29z"/>
	<path fill="#010101" d="M43.869,15.87c0.256,0,0.512-0.098,0.707-0.293c0.391-0.391,0.391-1.023,0-1.414L30.707,0.293
		c-0.375-0.375-1.039-0.375-1.414,0l-13.869,13.87c-0.391,0.391-0.391,1.023,0,1.414c0.391,0.391,1.023,0.391,1.414,0L30,2.414
		l13.162,13.163C43.357,15.772,43.613,15.87,43.869,15.87z"/>
	<path fill="#010101" d="M15.424,45.837l13.869,13.87C29.48,59.895,29.734,60,30,60c0.266,0,0.519-0.105,0.707-0.293l13.869-13.87
		c0.391-0.391,0.391-1.023,0-1.414c-0.391-0.391-1.023-0.391-1.414,0L30,57.586L16.838,44.423c-0.391-0.391-1.023-0.391-1.414,0
		C15.033,44.814,15.033,45.447,15.424,45.837z"/>
</g>
</svg>
