<?xml version="1.0" encoding="utf-8"?>
<!-- Generator: Adobe Illustrator 17.0.0, SVG Export Plug-In . SVG Version: 6.00 Build 0)  -->
<!DOCTYPE svg PUBLIC "-//W3C//DTD SVG 1.1//EN" "http://www.w3.org/Graphics/SVG/1.1/DTD/svg11.dtd">
<svg version="1.1" id="Layer_1" xmlns="http://www.w3.org/2000/svg" xmlns:xlink="http://www.w3.org/1999/xlink" x="0px" y="0px"
	 width="60px" height="60px" viewBox="0 0 60 60" enable-background="new 0 0 60 60" xml:space="preserve">
<g>
	<path fill="#010101" d="M23.957,30c0,3.333,2.711,6.044,6.043,6.044s6.043-2.711,6.043-6.044c0-3.332-2.711-6.043-6.043-6.043
		S23.957,26.668,23.957,30z M34.043,30c0,2.229-1.814,4.044-4.043,4.044S25.957,32.229,25.957,30s1.814-4.043,4.043-4.043
		S34.043,27.771,34.043,30z"/>
	<path fill="#010101" d="M44.779,17.416c0.162-0.356,0.102-0.775-0.154-1.07l-13.869-16c-0.381-0.438-1.131-0.438-1.512,0
		l-13.869,16c-0.256,0.295-0.316,0.714-0.154,1.07C15.384,17.772,15.739,18,16.131,18h27.738C44.261,18,44.616,17.772,44.779,17.416
		z M18.321,16L30,2.527L41.679,16H18.321z"/>
	<path fill="#010101" d="M15.375,43.655l13.869,16C29.435,59.874,29.71,60,30,60s0.565-0.126,0.756-0.345l13.869-16
		c0.256-0.295,0.316-0.714,0.154-1.07C44.616,42.229,44.261,42,43.869,42H16.131c-0.392,0-0.747,0.229-0.91,0.585
		C15.059,42.941,15.119,43.359,15.375,43.655z M41.679,44L30,57.473L18.321,44H41.679z"/>
</g>
</svg>
