<?xml version="1.0" encoding="utf-8"?>
<!-- Generator: Adobe Illustrator 17.0.0, SVG Export Plug-In . SVG Version: 6.00 Build 0)  -->
<!DOCTYPE svg PUBLIC "-//W3C//DTD SVG 1.1//EN" "http://www.w3.org/Graphics/SVG/1.1/DTD/svg11.dtd">
<svg version="1.1" id="Layer_1" xmlns="http://www.w3.org/2000/svg" xmlns:xlink="http://www.w3.org/1999/xlink" x="0px" y="0px"
	 width="60px" height="60px" viewBox="0 0 60 60" enable-background="new 0 0 60 60" xml:space="preserve">
<g>
	<path fill="#010101" d="M24,30c0,3.309,2.691,6,6,6s6-2.691,6-6s-2.691-6-6-6S24,26.691,24,30z M34,30c0,2.206-1.794,4-4,4
		c-2.206,0-4-1.794-4-4c0-2.206,1.794-4,4-4C32.206,26,34,27.794,34,30z"/>
	<path fill="#010101" d="M48.359,17.945c-0.391-0.391-1.023-0.391-1.414,0c-0.391,0.391-0.391,1.023,0,1.414L57.586,30
		L46.945,40.641c-0.391,0.391-0.391,1.023,0,1.414c0.195,0.195,0.451,0.293,0.707,0.293c0.256,0,0.512-0.098,0.707-0.293
		l11.348-11.348c0.391-0.391,0.391-1.023,0-1.414L48.359,17.945z"/>
	<path fill="#010101" d="M13.055,17.945c-0.391-0.391-1.023-0.391-1.414,0L0.293,29.293c-0.391,0.391-0.391,1.023,0,1.414
		l11.348,11.348c0.195,0.195,0.451,0.293,0.707,0.293c0.256,0,0.512-0.098,0.707-0.293c0.391-0.391,0.391-1.024,0-1.414L2.414,30
		l10.641-10.641C13.445,18.969,13.445,18.336,13.055,17.945z"/>
	<path fill="#010101" d="M41.348,13.348c0.256,0,0.512-0.098,0.707-0.293c0.391-0.391,0.391-1.024,0-1.414L30.707,0.293
		c-0.391-0.391-1.023-0.391-1.414,0L17.945,11.641c-0.391,0.391-0.391,1.023,0,1.414c0.391,0.391,1.023,0.391,1.414,0L30,2.414
		l10.641,10.641C40.836,13.25,41.092,13.348,41.348,13.348z"/>
	<path fill="#010101" d="M17.945,48.359l11.348,11.348C29.488,59.902,29.744,60,30,60c0.256,0,0.512-0.098,0.707-0.293
		l11.348-11.348c0.391-0.391,0.391-1.023,0-1.414c-0.391-0.391-1.023-0.391-1.414,0L30,57.586L19.359,46.945
		c-0.391-0.391-1.023-0.391-1.414,0C17.555,47.336,17.555,47.969,17.945,48.359z"/>
</g>
</svg>
