<?xml version="1.0" encoding="utf-8"?>
<!-- Generator: Adobe Illustrator 17.0.0, SVG Export Plug-In . SVG Version: 6.00 Build 0)  -->
<!DOCTYPE svg PUBLIC "-//W3C//DTD SVG 1.1//EN" "http://www.w3.org/Graphics/SVG/1.1/DTD/svg11.dtd">
<svg version="1.1" id="Layer_1" xmlns="http://www.w3.org/2000/svg" xmlns:xlink="http://www.w3.org/1999/xlink" x="0px" y="0px"
	 width="60px" height="60px" viewBox="0 0 60 60" enable-background="new 0 0 60 60" xml:space="preserve">
<g>
	<path fill="#010101" d="M36.044,30c0-3.332-2.711-6.043-6.044-6.043S23.956,26.668,23.956,30c0,3.333,2.711,6.044,6.044,6.044
		S36.044,33.333,36.044,30z M25.956,30c0-2.229,1.814-4.043,4.044-4.043s4.044,1.814,4.044,4.043S32.229,34.044,30,34.044
		S25.956,32.229,25.956,30z"/>
	<path fill="#010101" d="M47,42.348c0.25,0,0.498-0.094,0.687-0.273l12-11.348C59.887,30.538,60,30.275,60,30
		s-0.113-0.538-0.313-0.727l-12-11.348c-0.29-0.274-0.715-0.349-1.083-0.192C46.238,17.892,46,18.253,46,18.652v22.695
		c0,0.399,0.238,0.76,0.604,0.918C46.732,42.321,46.866,42.348,47,42.348z M48,20.974L57.544,30L48,39.026V20.974z"/>
	<path fill="#010101" d="M12.313,42.074c0.189,0.179,0.437,0.273,0.687,0.273c0.134,0,0.268-0.027,0.396-0.082
		C13.762,42.108,14,41.747,14,41.348V18.652c0-0.399-0.238-0.76-0.604-0.918c-0.365-0.157-0.792-0.082-1.083,0.192l-12,11.348
		C0.113,29.462,0,29.725,0,30s0.113,0.538,0.313,0.727L12.313,42.074z M12,20.974v18.052L2.456,30L12,20.974z"/>
	<path fill="#010101" d="M17.734,13.396C17.892,13.762,18.253,14,18.652,14h22.695c0.399,0,0.76-0.238,0.918-0.604
		s0.082-0.792-0.192-1.083l-11.348-12c-0.378-0.399-1.075-0.399-1.453,0l-11.348,12C17.651,12.603,17.576,13.029,17.734,13.396z
		 M30,2.456L39.026,12H20.974L30,2.456z"/>
	<path fill="#010101" d="M42.266,46.604C42.108,46.238,41.747,46,41.348,46H18.652c-0.399,0-0.76,0.238-0.918,0.604
		s-0.082,0.792,0.192,1.083l11.348,12C29.462,59.887,29.725,60,30,60s0.538-0.113,0.727-0.313l11.348-12
		C42.349,47.397,42.424,46.971,42.266,46.604z M30,57.544L20.974,48h18.052L30,57.544z"/>
</g>
</svg>
