<?xml version="1.0" encoding="utf-8"?>
<!-- Generator: Adobe Illustrator 17.0.0, SVG Export Plug-In . SVG Version: 6.00 Build 0)  -->
<!DOCTYPE svg PUBLIC "-//W3C//DTD SVG 1.1//EN" "http://www.w3.org/Graphics/SVG/1.1/DTD/svg11.dtd">
<svg version="1.1" id="Layer_1" xmlns="http://www.w3.org/2000/svg" xmlns:xlink="http://www.w3.org/1999/xlink" x="0px" y="0px"
	 width="60px" height="60px" viewBox="0 0 60 60" enable-background="new 0 0 60 60" xml:space="preserve">
<g>
	<path fill="#231F20" d="M1,18h13.869c6.791,0,10.386,8.678,10.422,8.766c0.157,0.389,0.532,0.625,0.927,0.625
		c0.125,0,0.252-0.023,0.374-0.073c0.512-0.207,0.76-0.789,0.554-1.3C26.98,25.608,23.017,16,14.869,16H1c-0.553,0-1,0.448-1,1
		S0.447,18,1,18z"/>
	<path fill="#231F20" d="M30.939,31.599c4.177-6.56,8.497-13.342,14.191-13.599h11.926l-3.871,5.419
		c-0.321,0.449-0.217,1.074,0.232,1.395C53.595,24.94,53.798,25,53.999,25c0.312,0,0.619-0.146,0.814-0.419l5-7
		c0.028-0.038,0.04-0.083,0.062-0.124c0.019-0.036,0.039-0.069,0.054-0.108c0.086-0.227,0.086-0.473,0-0.7
		c-0.014-0.039-0.035-0.071-0.054-0.108c-0.021-0.041-0.034-0.085-0.062-0.124l-5-7c-0.32-0.449-0.945-0.553-1.395-0.233
		c-0.449,0.321-0.554,0.946-0.232,1.395L57.057,16l-11.971,0.001c-6.778,0.304-11.382,7.533-15.834,14.523
		C24.839,37.454,20.671,44,14.869,44H1c-0.553,0-1,0.448-1,1s0.447,1,1,1h13.869C21.769,46,26.431,38.679,30.939,31.599z"/>
	<path fill="#231F20" d="M59.929,44.65c-0.014-0.039-0.035-0.071-0.054-0.108c-0.021-0.041-0.034-0.085-0.062-0.124l-5-7
		c-0.32-0.449-0.945-0.554-1.395-0.233c-0.449,0.321-0.554,0.946-0.232,1.395L57.057,44l-11.966,0.001
		c-6.907,0.264-11.69-6.747-11.738-6.817c-0.306-0.459-0.928-0.582-1.387-0.275c-0.459,0.307-0.582,0.927-0.276,1.386
		c0.214,0.321,5.235,7.716,12.954,7.716c0.161,0,0.324-0.003,0.487-0.01h11.926l-3.871,5.419c-0.321,0.449-0.217,1.074,0.232,1.395
		C53.595,52.94,53.798,53,53.999,53c0.312,0,0.619-0.146,0.814-0.419l5-7c0.028-0.038,0.04-0.083,0.062-0.124
		c0.019-0.036,0.039-0.069,0.054-0.108C60.015,45.123,60.015,44.877,59.929,44.65z"/>
</g>
</svg>
