<?xml version="1.0" encoding="utf-8"?>
<!-- Generator: Adobe Illustrator 17.0.0, SVG Export Plug-In . SVG Version: 6.00 Build 0)  -->
<!DOCTYPE svg PUBLIC "-//W3C//DTD SVG 1.1//EN" "http://www.w3.org/Graphics/SVG/1.1/DTD/svg11.dtd">
<svg version="1.1" id="Layer_1" xmlns="http://www.w3.org/2000/svg" xmlns:xlink="http://www.w3.org/1999/xlink" x="0px" y="0px"
	 width="60px" height="60px" viewBox="0 0 60 60" enable-background="new 0 0 60 60" xml:space="preserve">
<g>
	<path fill="#231F20" d="M53.47,25.848C53.635,25.951,53.818,26,53.999,26c0.333,0,0.659-0.167,0.849-0.47l5-8
		c0.018-0.028,0.024-0.06,0.039-0.09c0.017-0.034,0.032-0.067,0.045-0.104c0.034-0.095,0.054-0.191,0.059-0.29
		C59.991,17.03,60,17.017,60,17c0-0.005-0.003-0.008-0.003-0.013c-0.001-0.118-0.027-0.234-0.07-0.345
		c-0.012-0.032-0.03-0.059-0.046-0.09c-0.023-0.045-0.038-0.092-0.068-0.133l-5-7c-0.322-0.45-0.947-0.554-1.395-0.233
		c-0.45,0.321-0.554,0.946-0.233,1.395L57.057,16l-11.988,0.002c-6.735,0.418-9.669,4.758-12.256,8.587
		C30.139,28.544,27.831,31.96,22,32H1c-0.552,0-1,0.448-1,1s0.448,1,1,1h21c5.864,0,8.337,3.262,10.954,6.715
		C35.669,44.297,38.476,48,44.939,48c0.02,0,0.041,0,0.061,0h12.196l-4.044,6.47c-0.293,0.468-0.15,1.085,0.318,1.378
		C53.635,55.951,53.818,56,53.999,56c0.333,0,0.659-0.167,0.849-0.47l5-8c0.017-0.027,0.022-0.058,0.036-0.086
		c0.019-0.038,0.035-0.076,0.05-0.117c0.029-0.084,0.046-0.169,0.052-0.257C59.988,47.046,60,47.025,60,47
		c0-0.01-0.005-0.018-0.006-0.028c-0.003-0.12-0.025-0.239-0.071-0.351c-0.009-0.022-0.025-0.039-0.036-0.06
		c-0.034-0.069-0.068-0.139-0.119-0.201l-5-6c-0.354-0.425-0.984-0.482-1.408-0.128c-0.424,0.354-0.482,0.984-0.128,1.408L56.865,46
		H44.997c-0.017,0-0.034,0-0.051,0c-5.475,0-7.866-3.154-10.397-6.493c-1.871-2.468-3.922-5.162-7.344-6.553
		c3.376-1.502,5.346-4.404,7.266-7.244c2.556-3.782,4.97-7.354,10.661-7.709h12.065l-4.044,6.47
		C52.859,24.938,53.002,25.555,53.47,25.848z"/>
</g>
</svg>
