<?xml version="1.0" encoding="utf-8"?>
<!-- Generator: Adobe Illustrator 17.0.0, SVG Export Plug-In . SVG Version: 6.00 Build 0)  -->
<!DOCTYPE svg PUBLIC "-//W3C//DTD SVG 1.1//EN" "http://www.w3.org/Graphics/SVG/1.1/DTD/svg11.dtd">
<svg version="1.1" id="Layer_1" xmlns="http://www.w3.org/2000/svg" xmlns:xlink="http://www.w3.org/1999/xlink" x="0px" y="0px"
	 width="60px" height="60px" viewBox="0 0 60 60" enable-background="new 0 0 60 60" xml:space="preserve">
<g>
	<path fill="#231F20" d="M7.705,36.832c0.08,0.131,0.191,0.232,0.318,0.313c0.042,0.028,0.083,0.049,0.129,0.07
		c0.073,0.032,0.148,0.052,0.227,0.066c0.047,0.009,0.088,0.037,0.136,0.04c0.018,0.001,0.035,0.002,0.052,0.002
		c0.045,0,0.085-0.023,0.129-0.029c0.03-0.004,0.06-0.003,0.09-0.01c0.015-0.003,0.025-0.014,0.039-0.018
		c0.108-0.029,0.203-0.074,0.296-0.137c0.018-0.012,0.033-0.025,0.05-0.039c0.055-0.043,0.119-0.072,0.164-0.126l8.08-9.678
		c0.354-0.424,0.297-1.055-0.126-1.409c-0.424-0.354-1.055-0.297-1.409,0.126l-6.731,8.062c-0.697-4.948,0.351-9.966,3.034-14.323
		c2.99-4.856,7.771-8.365,13.115-9.628c7.339-1.738,15.008,0.697,20.015,6.351c0.366,0.414,0.998,0.452,1.412,0.085
		c0.414-0.366,0.452-0.998,0.086-1.412c-5.496-6.206-13.916-8.878-21.973-6.971c-5.857,1.384-11.09,5.221-14.357,10.526
		c-2.533,4.112-3.73,8.766-3.517,13.445l-4.594-6.842C2.06,24.838,1.44,24.713,0.98,25.023c-0.458,0.308-0.581,0.929-0.272,1.388
		L7.705,36.832z"/>
	<path fill="#231F20" d="M42.711,36.679c0.424,0.354,1.055,0.297,1.409-0.127l6.545-7.835c0.508,9.659-6.256,18.875-15.965,21.169
		c-6.886,1.63-14.016-0.368-19.066-5.347c-0.393-0.387-1.026-0.383-1.414,0.01c-0.388,0.394-0.383,1.027,0.01,1.415
		c4.273,4.211,9.899,6.48,15.717,6.479c1.731,0,3.479-0.201,5.214-0.611c10.207-2.412,17.45-11.811,17.535-21.929l4.936,7.356
		c0.193,0.288,0.509,0.443,0.832,0.443c0.191,0,0.385-0.055,0.556-0.169c0.458-0.308,0.581-0.929,0.273-1.388l-7.025-10.469
		c-0.176-0.262-0.464-0.425-0.778-0.441c-0.313-0.023-0.618,0.116-0.82,0.357l-8.084,9.678
		C42.23,35.694,42.287,36.325,42.711,36.679z"/>
	<path fill="#231F20" d="M33.781,33.804c2.339-2.339,2.339-6.147-0.001-8.488c-1.133-1.132-2.64-1.755-4.242-1.755
		c-1.603,0-3.109,0.623-4.243,1.755c-2.339,2.341-2.339,6.148,0,8.488c1.133,1.132,2.64,1.755,4.242,1.755
		C31.141,35.56,32.648,34.937,33.781,33.804z M26.709,26.731c0.755-0.754,1.76-1.17,2.829-1.17c1.069,0,2.073,0.416,2.828,1.17
		c1.56,1.56,1.56,4.1,0.001,5.659c-0.756,0.755-1.76,1.171-2.829,1.171c-1.068,0-2.073-0.416-2.828-1.17
		C25.15,30.83,25.15,28.291,26.709,26.731z"/>
</g>
</svg>
