<?xml version="1.0" encoding="utf-8"?>
<!-- Generator: Adobe Illustrator 17.0.0, SVG Export Plug-In . SVG Version: 6.00 Build 0)  -->
<!DOCTYPE svg PUBLIC "-//W3C//DTD SVG 1.1//EN" "http://www.w3.org/Graphics/SVG/1.1/DTD/svg11.dtd">
<svg version="1.1" id="Layer_1" xmlns="http://www.w3.org/2000/svg" xmlns:xlink="http://www.w3.org/1999/xlink" x="0px" y="0px"
	 width="60px" height="60px" viewBox="0 0 60 60" enable-background="new 0 0 60 60" xml:space="preserve">
<g>
	<path fill="#231F20" d="M17,52c0.553,0,1-0.448,1-1s-0.447-1-1-1c-3.44,0-7-2.244-7-6V16c0-3.42,2.579-6,6-6h19.001l-4.007,6.011
		c-0.307,0.459-0.183,1.081,0.277,1.387c0.171,0.114,0.363,0.168,0.554,0.168c0.323,0,0.641-0.156,0.833-0.445l5.043-7.565
		c0.023-0.034,0.033-0.073,0.052-0.11c0.017-0.033,0.033-0.064,0.046-0.099c0.041-0.112,0.069-0.227,0.07-0.345
		c0-0.001,0-0.001,0-0.002c0-0.002-0.001-0.003-0.001-0.005c-0.001-0.116-0.028-0.23-0.069-0.34
		c-0.014-0.036-0.031-0.069-0.048-0.103c-0.018-0.035-0.028-0.073-0.05-0.107L32.658,0.88c-0.306-0.46-0.926-0.585-1.387-0.277
		c-0.46,0.306-0.584,0.927-0.277,1.387L35,8H16c-4.56,0-8,3.44-8,8v28C8,48.486,11.953,52,17,52z"/>
	<path fill="#231F20" d="M44,10c3.644,0,6,2.355,6,6v28c0,3.645-2.356,6-6,6H25.943l3.871-5.419
		c0.321-0.449,0.217-1.074-0.232-1.395c-0.449-0.32-1.073-0.216-1.395,0.233l-5,7c-0.029,0.041-0.044,0.087-0.067,0.131
		c-0.016,0.032-0.035,0.06-0.048,0.094c-0.043,0.111-0.068,0.226-0.069,0.344C23.003,50.992,23,50.995,23,51
		c0,0.017,0.009,0.031,0.01,0.048c0.005,0.098,0.024,0.193,0.058,0.287c0.013,0.037,0.029,0.071,0.046,0.106
		c0.014,0.029,0.021,0.06,0.038,0.088l5,8c0.19,0.304,0.516,0.47,0.849,0.47c0.181,0,0.364-0.049,0.529-0.152
		c0.468-0.293,0.61-0.91,0.317-1.378L25.804,52H44c4.71,0,8-3.29,8-8V16c0-4.71-3.29-8-8-8c-0.553,0-1,0.448-1,1S43.447,10,44,10z"
		/>
</g>
</svg>
