<?xml version="1.0" encoding="utf-8"?>
<!-- Generator: Adobe Illustrator 17.0.0, SVG Export Plug-In . SVG Version: 6.00 Build 0)  -->
<!DOCTYPE svg PUBLIC "-//W3C//DTD SVG 1.1//EN" "http://www.w3.org/Graphics/SVG/1.1/DTD/svg11.dtd">
<svg version="1.1" id="Layer_1" xmlns="http://www.w3.org/2000/svg" xmlns:xlink="http://www.w3.org/1999/xlink" x="0px" y="0px"
	 width="60px" height="60px" viewBox="0 0 60 60" enable-background="new 0 0 60 60" xml:space="preserve">
<g>
	<path fill="#010101" d="M51,12h-1V1c0-0.552-0.448-1-1-1H13C9.14,0,6,3.14,6,7v47c0,3.533,2.467,6,6,6h39c0.552,0,1-0.448,1-1V13
		C52,12.448,51.552,12,51,12z M13,2h35v10h-2V7c0-0.552-0.448-1-1-1H13c-0.552,0-1,0.448-1,1s0.448,1,1,1h31v4H13
		c-2.757,0-5-2.243-5-5S10.243,2,13,2z M50,58H12c-2.43,0-4-1.57-4-4V11.895C9.271,13.193,11.044,14,13,14h37V58z"/>
</g>
</svg>
