<?xml version="1.0" encoding="utf-8"?>
<!-- Generator: Adobe Illustrator 17.0.0, SVG Export Plug-In . SVG Version: 6.00 Build 0)  -->
<!DOCTYPE svg PUBLIC "-//W3C//DTD SVG 1.1//EN" "http://www.w3.org/Graphics/SVG/1.1/DTD/svg11.dtd">
<svg version="1.1" id="Layer_1" xmlns="http://www.w3.org/2000/svg" xmlns:xlink="http://www.w3.org/1999/xlink" x="0px" y="0px"
	 width="60px" height="60px" viewBox="0 0 60 60" enable-background="new 0 0 60 60" xml:space="preserve">
<g>
	<path fill="#010101" d="M18.303,60.016c0.478,0,0.785-0.036,0.83-0.042l30-4C49.629,55.908,50,55.484,50,54.983v-44
		c0-0.286-0.123-0.559-0.337-0.748c-0.214-0.19-0.5-0.28-0.783-0.244l-32.937,3.992c-2.215-0.03-3.943-1.776-3.943-4
		c0-3.063,0.58-3.294,12.41-4.956c4.696-0.66,11.126-1.564,19.718-3.058c0.544-0.095,0.909-0.613,0.814-1.157
		c-0.095-0.544-0.61-0.904-1.157-0.814c-8.56,1.489-14.971,2.39-19.653,3.048C12.434,4.69,10,5.032,10,9.983c0,3.364,2.636,6,6,6
		c0.04,0,0.081-0.002,0.12-0.007L48,12.112v41.996l-29.121,3.883c-0.031,0.003-2.904,0.32-4.886-1.44
		C12.671,55.375,12,53.502,12,50.983v-31c0-0.552-0.448-1-1-1s-1,0.448-1,1v31c0,3.125,0.902,5.506,2.683,7.078
		C14.615,59.767,17.048,60.016,18.303,60.016z"/>
	<path fill="#010101" d="M16.009,10.12c0.069,0.5,0.497,0.863,0.989,0.863c0.046,0,0.092-0.003,0.138-0.009l29-4
		c0.547-0.076,0.929-0.58,0.854-1.127c-0.076-0.547-0.583-0.931-1.127-0.854l-29,4C16.316,9.068,15.934,9.573,16.009,10.12z"/>
</g>
</svg>
