<?xml version="1.0" encoding="utf-8"?>
<!-- Generator: Adobe Illustrator 17.0.0, SVG Export Plug-In . SVG Version: 6.00 Build 0)  -->
<!DOCTYPE svg PUBLIC "-//W3C//DTD SVG 1.1//EN" "http://www.w3.org/Graphics/SVG/1.1/DTD/svg11.dtd">
<svg version="1.1" id="Layer_1" xmlns="http://www.w3.org/2000/svg" xmlns:xlink="http://www.w3.org/1999/xlink" x="0px" y="0px"
	 width="60px" height="60px" viewBox="0 0 60 60" enable-background="new 0 0 60 60" xml:space="preserve">
<g>
	<path fill="#010101" d="M25,58H6.043C3.813,58,2,56.186,2,53.956V11.89C3.272,13.19,5.042,14,7,14h41v7c0,0.552,0.448,1,1,1
		s1-0.448,1-1v-8c0-0.552-0.448-1-1-1H7c-2.757,0-5-2.243-5-5s2.243-5,5-5h42c0.552,0,1-0.448,1-1s-0.448-1-1-1H7C3.14,0,0,3.14,0,7
		v46.956C0,57.289,2.711,60,6.043,60H25c0.552,0,1-0.448,1-1S25.552,58,25,58z"/>
	<path fill="#010101" d="M7,6C6.448,6,6,6.448,6,7s0.448,1,1,1h40c0.552,0,1-0.448,1-1s-0.448-1-1-1H7z"/>
	<path fill="#010101" d="M48.293,43.293L44,47.586V36c0-0.552-0.448-1-1-1s-1,0.448-1,1v11.586l-4.293-4.293
		c-0.391-0.391-1.023-0.391-1.414,0c-0.391,0.391-0.391,1.023,0,1.414l5.999,5.999c0.092,0.092,0.203,0.166,0.326,0.216
		C42.74,50.973,42.87,51,43,51s0.26-0.027,0.382-0.077c0.123-0.051,0.233-0.124,0.326-0.216l5.999-5.999
		c0.391-0.391,0.391-1.023,0-1.414C49.316,42.902,48.684,42.902,48.293,43.293z"/>
	<path fill="#010101" d="M43,26c-9.374,0-17,7.626-17,17s7.626,17,17,17s17-7.626,17-17S52.374,26,43,26z M43,58
		c-8.271,0-15-6.729-15-15s6.729-15,15-15s15,6.729,15,15S51.271,58,43,58z"/>
</g>
</svg>
