<?xml version="1.0" encoding="utf-8"?>
<!-- Generator: Adobe Illustrator 17.0.0, SVG Export Plug-In . SVG Version: 6.00 Build 0)  -->
<!DOCTYPE svg PUBLIC "-//W3C//DTD SVG 1.1//EN" "http://www.w3.org/Graphics/SVG/1.1/DTD/svg11.dtd">
<svg version="1.1" id="Layer_1" xmlns="http://www.w3.org/2000/svg" xmlns:xlink="http://www.w3.org/1999/xlink" x="0px" y="0px"
	 width="60px" height="60px" viewBox="0 0 60 60" enable-background="new 0 0 60 60" xml:space="preserve">
<g>
	<path fill="#010101" d="M57,3.782c-13.977,0-24.765,2.858-28,7.097C25.765,6.641,14.977,3.782,1,3.782c-0.553,0-1,0.448-1,1v41.609
		c0,0.552,0.447,1,1,1c16.15,0,27,4.047,27,7.826c0,0.552,0.447,1,1,1c0.553,0,1-0.448,1-1c0-3.779,10.85-7.826,27-7.826
		c0.553,0,1-0.448,1-1V4.782C58,4.23,57.553,3.782,57,3.782z M42,7.13c2.379-0.477,5.063-0.847,8-1.078v17.317l-4-4l-4,4V7.13z
		 M2,45.396V5.788c15.598,0.163,26,4.12,26,7.821v37.838C24.005,47.886,14.32,45.518,2,45.396z M56,45.396
		c-12.32,0.122-22.005,2.49-26,6.05V13.608c0-2.208,3.703-4.506,10-6.036v20.624l6-6l6,6V5.918c1.291-0.071,2.624-0.116,4-0.13
		V45.396z"/>
	<path fill="#010101" d="M23.053,18.323c-4.229-1.617-10.153-2.75-16.681-3.19c-0.561-0.044-1.027,0.38-1.065,0.93
		c-0.037,0.551,0.38,1.028,0.931,1.065c6.334,0.427,12.053,1.514,16.101,3.062c0.118,0.045,0.238,0.066,0.357,0.066
		c0.402,0,0.781-0.245,0.934-0.643C23.826,19.098,23.568,18.52,23.053,18.323z"/>
	<path fill="#010101" d="M23.053,25.888c-4.227-1.616-10.151-2.749-16.681-3.19c-0.537-0.04-1.027,0.379-1.065,0.93
		c-0.037,0.551,0.38,1.028,0.931,1.065c6.336,0.428,12.055,1.516,16.101,3.063c0.118,0.045,0.238,0.066,0.357,0.066
		c0.402,0,0.782-0.245,0.934-0.644C23.826,26.663,23.568,26.085,23.053,25.888z"/>
	<path fill="#010101" d="M23.053,33.453c-4.23-1.617-10.154-2.75-16.681-3.19c-0.561-0.049-1.027,0.38-1.065,0.93
		c-0.037,0.551,0.38,1.028,0.931,1.065c6.333,0.427,12.052,1.515,16.101,3.063c0.118,0.045,0.238,0.066,0.357,0.066
		c0.402,0,0.782-0.245,0.934-0.644C23.826,34.229,23.568,33.65,23.053,33.453z"/>
	<path fill="#010101" d="M23.053,41.019c-4.226-1.616-10.149-2.749-16.681-3.19c-0.537-0.046-1.027,0.379-1.065,0.93
		c-0.037,0.551,0.38,1.028,0.931,1.065c6.338,0.429,12.057,1.517,16.101,3.064c0.118,0.045,0.238,0.066,0.357,0.066
		c0.402,0,0.781-0.245,0.934-0.643C23.826,41.794,23.568,41.216,23.053,41.019z"/>
	<path fill="#010101" d="M51.628,30.263c-6.523,0.44-12.447,1.573-16.68,3.19c-0.517,0.197-0.774,0.775-0.578,1.291
		c0.152,0.398,0.532,0.644,0.935,0.644c0.119,0,0.239-0.021,0.356-0.066c4.053-1.548,9.771-2.636,16.102-3.063
		c0.551-0.037,0.968-0.514,0.931-1.065C52.656,30.643,52.204,30.216,51.628,30.263z"/>
	<path fill="#010101" d="M51.628,37.828c-6.529,0.441-12.453,1.574-16.681,3.19c-0.516,0.197-0.773,0.775-0.576,1.291
		c0.151,0.398,0.531,0.643,0.934,0.643c0.119,0,0.239-0.022,0.357-0.066c4.047-1.547,9.765-2.635,16.101-3.064
		c0.551-0.037,0.968-0.514,0.931-1.065S52.18,37.784,51.628,37.828z"/>
</g>
</svg>
