<?xml version="1.0" encoding="utf-8"?>
<!-- Generator: Adobe Illustrator 17.0.0, SVG Export Plug-In . SVG Version: 6.00 Build 0)  -->
<!DOCTYPE svg PUBLIC "-//W3C//DTD SVG 1.1//EN" "http://www.w3.org/Graphics/SVG/1.1/DTD/svg11.dtd">
<svg version="1.1" id="Layer_1" xmlns="http://www.w3.org/2000/svg" xmlns:xlink="http://www.w3.org/1999/xlink" x="0px" y="0px"
	 width="60px" height="60px" viewBox="0 0 60 60" enable-background="new 0 0 60 60" xml:space="preserve">
<g>
	<path fill="#010101" d="M17,0c-0.553,0-1,0.448-1,1v12v2c0,1.654-1.346,3-3,3H5c-1.654,0-3-1.346-3-3v-2V1c0-0.552-0.447-1-1-1
		C0.447,0,0,0.448,0,1v12v2v40c0,2.757,2.243,5,5,5h8c2.757,0,5-2.243,5-5V15v-2V1C18,0.448,17.553,0,17,0z M5,20h8
		c1.13,0,2.162-0.391,3-1.026V28H2v-9.026C2.838,19.609,3.87,20,5,20z M2,34v-4h14v4H2z M16,36v6H2v-6H16z M2,44h14v4H2V44z M13,58
		H5c-1.654,0-3-1.346-3-3v-5h14v5C16,56.654,14.654,58,13,58z"/>
	<path fill="#010101" d="M6,3v10c0,0.552,0.447,1,1,1c0.553,0,1-0.448,1-1V3c0-0.552-0.447-1-1-1C6.447,2,6,2.448,6,3z"/>
	<path fill="#010101" d="M10,3v10c0,0.552,0.447,1,1,1c0.553,0,1-0.448,1-1V3c0-0.552-0.447-1-1-1C10.447,2,10,2.448,10,3z"/>
	<path fill="#010101" d="M37,0c-0.553,0-1,0.448-1,1v12v2c0,1.654-1.346,3-3,3h-8c-1.654,0-3-1.346-3-3v-2V1c0-0.552-0.447-1-1-1
		c-0.553,0-1,0.448-1,1v12v2v40c0,2.757,2.243,5,5,5h8c2.757,0,5-2.243,5-5V15v-2V1C38,0.448,37.553,0,37,0z M25,20h8
		c1.13,0,2.162-0.391,3-1.026V28H22v-9.026C22.838,19.609,23.87,20,25,20z M22,34v-4h14v4H22z M36,36v6H22v-6H36z M22,44h14v4H22V44
		z M33,58h-8c-1.654,0-3-1.346-3-3v-5h14v5C36,56.654,34.654,58,33,58z"/>
	<path fill="#010101" d="M26,3v10c0,0.552,0.447,1,1,1c0.553,0,1-0.448,1-1V3c0-0.552-0.447-1-1-1C26.447,2,26,2.448,26,3z"/>
	<path fill="#010101" d="M30,3v10c0,0.552,0.447,1,1,1c0.553,0,1-0.448,1-1V3c0-0.552-0.447-1-1-1C30.447,2,30,2.448,30,3z"/>
	<path fill="#010101" d="M57,0c-0.553,0-1,0.448-1,1v12v2c0,1.654-1.346,3-3,3h-8c-1.654,0-3-1.346-3-3v-2V1c0-0.552-0.447-1-1-1
		c-0.553,0-1,0.448-1,1v12v2v40c0,2.757,2.243,5,5,5h8c2.757,0,5-2.243,5-5V15v-2V1C58,0.448,57.553,0,57,0z M45,20h8
		c1.13,0,2.162-0.391,3-1.026V28H42v-9.026C42.838,19.609,43.87,20,45,20z M42,34v-4h14v4H42z M56,36v6H42v-6H56z M42,44h14v4H42V44
		z M53,58h-8c-1.654,0-3-1.346-3-3v-5h14v5C56,56.654,54.654,58,53,58z"/>
	<path fill="#010101" d="M46,3v10c0,0.552,0.447,1,1,1c0.553,0,1-0.448,1-1V3c0-0.552-0.447-1-1-1C46.447,2,46,2.448,46,3z"/>
	<path fill="#010101" d="M50,3v10c0,0.552,0.447,1,1,1c0.553,0,1-0.448,1-1V3c0-0.552-0.447-1-1-1C50.447,2,50,2.448,50,3z"/>
</g>
</svg>
