<?xml version="1.0" encoding="utf-8"?>
<!-- Generator: Adobe Illustrator 17.0.0, SVG Export Plug-In . SVG Version: 6.00 Build 0)  -->
<!DOCTYPE svg PUBLIC "-//W3C//DTD SVG 1.1//EN" "http://www.w3.org/Graphics/SVG/1.1/DTD/svg11.dtd">
<svg version="1.1" id="Layer_1" xmlns="http://www.w3.org/2000/svg" xmlns:xlink="http://www.w3.org/1999/xlink" x="0px" y="0px"
	 width="60px" height="60px" viewBox="0 0 60 60" enable-background="new 0 0 60 60" xml:space="preserve">
<g>
	<path fill="#010101" d="M53,6h-7V1c0-0.552-0.447-1-1-1H35c-0.553,0-1,0.448-1,1v5H15H9C7.346,6,6,7.346,6,9v48
		c0,1.654,1.346,3,3,3h6h38c0.553,0,1-0.448,1-1V7C54,6.448,53.553,6,53,6z M36,2h8v24.586l-3.293-3.293
		C40.512,23.098,40.256,23,40,23c-0.256,0-0.512,0.098-0.707,0.293L36,26.586V2z M8,57V9c0-0.551,0.448-1,1-1h5v50H9
		C8.448,58,8,57.551,8,57z M52,58H16V8h18v21c0,0.404,0.243,0.769,0.617,0.924c0.373,0.155,0.804,0.07,1.09-0.217L40,25.414
		l4.293,4.293C44.484,29.898,44.74,30,45,30c0.129,0,0.259-0.025,0.383-0.076C45.757,29.769,46,29.404,46,29V8h6V58z"/>
</g>
</svg>
