<?xml version="1.0" encoding="utf-8"?>
<!-- Generator: Adobe Illustrator 17.0.0, SVG Export Plug-In . SVG Version: 6.00 Build 0)  -->
<!DOCTYPE svg PUBLIC "-//W3C//DTD SVG 1.1//EN" "http://www.w3.org/Graphics/SVG/1.1/DTD/svg11.dtd">
<svg version="1.1" id="Layer_1" xmlns="http://www.w3.org/2000/svg" xmlns:xlink="http://www.w3.org/1999/xlink" x="0px" y="0px"
	 width="60px" height="60px" viewBox="0 0 60 60" enable-background="new 0 0 60 60" xml:space="preserve">
<g>
	<path fill="#010101" d="M1,50h19c3.982,0,8,2.165,8,7c0,0.552,0.447,1,1,1c0.553,0,1-0.448,1-1c0-4.835,4.018-7,8-7h19
		c0.553,0,1-0.448,1-1V9c0-0.552-0.447-1-1-1h-5V4H40v4h-3c-3.83,0-6.611,1.554-8,4.319C27.611,9.554,24.83,8,21,8H1
		C0.447,8,0,8.448,0,9v40C0,49.552,0.447,50,1,50z M42,6h8v18.586l-4-4l-4,4V6z M37,10h3v19.414l6-6l6,6V10h4v38H38
		c-3.428,0-6.237,1.269-8,3.363V17C30,12.486,32.486,10,37,10z M2,10h19c4.514,0,7,2.486,7,7v34.363C26.237,49.269,23.428,48,20,48
		H2V10z"/>
</g>
</svg>
