<?xml version="1.0" encoding="utf-8"?>
<!-- Generator: Adobe Illustrator 17.0.0, SVG Export Plug-In . SVG Version: 6.00 Build 0)  -->
<!DOCTYPE svg PUBLIC "-//W3C//DTD SVG 1.1//EN" "http://www.w3.org/Graphics/SVG/1.1/DTD/svg11.dtd">
<svg version="1.1" id="Layer_1" xmlns="http://www.w3.org/2000/svg" xmlns:xlink="http://www.w3.org/1999/xlink" x="0px" y="0px"
	 width="60px" height="60px" viewBox="0 0 60 60" enable-background="new 0 0 60 60" xml:space="preserve">
<g>
	<path fill="#010101" d="M29,56h6c0.552,0,1-0.448,1-1s-0.448-1-1-1h-6c-0.552,0-1,0.448-1,1S28.448,56,29,56z"/>
	<path fill="#010101" d="M17,40c0.552,0,1-0.448,1-1V7c0-0.552-0.448-1-1-1s-1,0.448-1,1v32C16,39.552,16.448,40,17,40z"/>
	<path fill="#010101" d="M21,42h-6c-0.552,0-1,0.448-1,1v12c0,0.552,0.448,1,1,1h6c0.552,0,1-0.448,1-1V43
		C22,42.448,21.552,42,21,42z M20,54h-4V44h4V54z"/>
	<path fill="#010101" d="M31,50c0.552,0,1-0.448,1-1V27c0-0.552-0.448-1-1-1s-1,0.448-1,1v22C30,49.552,30.448,50,31,50z"/>
	<path fill="#010101" d="M5,16c-0.552,0-1,0.448-1,1v34c0,0.552,0.448,1,1,1s1-0.448,1-1V17C6,16.448,5.552,16,5,16z"/>
	<path fill="#010101" d="M51.052,59.318c0.085,0.254,0.268,0.463,0.509,0.58C51.699,59.966,51.849,60,52,60
		c0.112,0,0.224-0.019,0.331-0.057l7-2.458c0.516-0.181,0.791-0.743,0.617-1.261l-16-47.7c-0.085-0.254-0.268-0.463-0.509-0.581
		c-0.24-0.117-0.518-0.134-0.771-0.045l-7,2.458c-0.516,0.181-0.791,0.743-0.617,1.261L37.863,20H26V1c0-0.552-0.448-1-1-1H11
		c-0.552,0-1,0.448-1,1v7H1C0.448,8,0,8.448,0,9v50c0,0.552,0.448,1,1,1h10h14h14c0.552,0,1-0.448,1-1V26.37L51.052,59.318z M2,10h8
		v48H2V10z M12,9V2h12v19v37H12V9z M38,58H26V22h12V58z M42.375,10.123l15.364,45.803l-5.113,1.795L37.262,11.918L42.375,10.123z"/>
</g>
</svg>
