<?xml version="1.0" encoding="utf-8"?>
<!-- Generator: Adobe Illustrator 17.0.0, SVG Export Plug-In . SVG Version: 6.00 Build 0)  -->
<!DOCTYPE svg PUBLIC "-//W3C//DTD SVG 1.1//EN" "http://www.w3.org/Graphics/SVG/1.1/DTD/svg11.dtd">
<svg version="1.1" id="Layer_1" xmlns="http://www.w3.org/2000/svg" xmlns:xlink="http://www.w3.org/1999/xlink" x="0px" y="0px"
	 width="60px" height="60px" viewBox="0 0 60 60" enable-background="new 0 0 60 60" xml:space="preserve">
<g>
	<path fill="#010101" d="M55.539,5.158c-0.287-0.184-0.647-0.21-0.958-0.066L29,16.898L3.419,5.092
		c-0.31-0.143-0.671-0.117-0.958,0.066C2.174,5.341,2,5.659,2,6v39c0,0.379,0.214,0.725,0.553,0.895l26,13
		c0.009,0.004,0.019,0.002,0.028,0.007C28.709,58.961,28.849,59,29,59s0.291-0.039,0.42-0.099c0.009-0.004,0.019-0.002,0.028-0.007
		l26-13C55.786,45.725,56,45.379,56,45V6C56,5.659,55.826,5.341,55.539,5.158z M4,7.563L28,18.64v37.742l-24-12V7.563z M54,44.382
		l-24,12V18.64L54,7.563V44.382z"/>
	<path fill="#010101" d="M8.553,2.895l20,10C28.693,12.965,28.847,13,29,13c0.153,0,0.307-0.035,0.447-0.105l20-10
		c0.494-0.247,0.694-0.848,0.447-1.342c-0.248-0.494-0.848-0.694-1.342-0.447L29,10.882L9.447,1.106
		C8.953,0.859,8.354,1.059,8.105,1.553C7.858,2.047,8.059,2.648,8.553,2.895z"/>
</g>
</svg>
