<?xml version="1.0" encoding="utf-8"?>
<!-- Generator: Adobe Illustrator 17.0.0, SVG Export Plug-In . SVG Version: 6.00 Build 0)  -->
<!DOCTYPE svg PUBLIC "-//W3C//DTD SVG 1.1//EN" "http://www.w3.org/Graphics/SVG/1.1/DTD/svg11.dtd">
<svg version="1.1" id="Layer_1" xmlns="http://www.w3.org/2000/svg" xmlns:xlink="http://www.w3.org/1999/xlink" x="0px" y="0px"
	 width="60px" height="60px" viewBox="0 0 60 60" enable-background="new 0 0 60 60" xml:space="preserve">
<g>
	<path fill="#010101" d="M13,0c-0.553,0-1,0.448-1,1v13c0,2.206-1.794,4-4,4c-2.206,0-4-1.794-4-4V1c0-0.552-0.447-1-1-1
		C2.447,0,2,0.448,2,1v53c0,3.309,2.691,6,6,6s6-2.691,6-6V1C14,0.448,13.553,0,13,0z M8,20c1.538,0,2.937-0.586,4-1.54V40H4V18.46
		C5.063,19.414,6.462,20,8,20z M4,42h8v4H4V42z M8,58c-2.206,0-4-1.794-4-4v-6h8v6C12,56.206,10.206,58,8,58z"/>
	<path fill="#010101" d="M7,3v10c0,0.552,0.447,1,1,1c0.553,0,1-0.448,1-1V3c0-0.552-0.447-1-1-1C7.447,2,7,2.448,7,3z"/>
	<path fill="#010101" d="M27,0c-0.553,0-1,0.448-1,1v13c0,2.206-1.794,4-4,4c-2.206,0-4-1.794-4-4V1c0-0.552-0.447-1-1-1
		c-0.553,0-1,0.448-1,1v53c0,3.309,2.691,6,6,6s6-2.691,6-6V1C28,0.448,27.553,0,27,0z M22,20c1.538,0,2.937-0.586,4-1.54V40h-8
		V18.46C19.063,19.414,20.462,20,22,20z M18,42h8v4h-8V42z M22,58c-2.206,0-4-1.794-4-4v-6h8v6C26,56.206,24.206,58,22,58z"/>
	<path fill="#010101" d="M21,3v10c0,0.552,0.447,1,1,1c0.553,0,1-0.448,1-1V3c0-0.552-0.447-1-1-1C21.447,2,21,2.448,21,3z"/>
	<path fill="#010101" d="M41,0c-0.553,0-1,0.448-1,1v13c0,2.206-1.794,4-4,4c-2.206,0-4-1.794-4-4V1c0-0.552-0.447-1-1-1
		c-0.553,0-1,0.448-1,1v53c0,3.309,2.691,6,6,6s6-2.691,6-6V1C42,0.448,41.553,0,41,0z M36,20c1.538,0,2.937-0.586,4-1.54V40h-8
		V18.46C33.063,19.414,34.462,20,36,20z M32,42h8v4h-8V42z M36,58c-2.206,0-4-1.794-4-4v-6h8v6C40,56.206,38.206,58,36,58z"/>
	<path fill="#010101" d="M35,3v10c0,0.552,0.447,1,1,1c0.553,0,1-0.448,1-1V3c0-0.552-0.447-1-1-1C35.447,2,35,2.448,35,3z"/>
	<path fill="#010101" d="M55,0c-0.553,0-1,0.448-1,1v13c0,2.206-1.794,4-4,4c-2.206,0-4-1.794-4-4V1c0-0.552-0.447-1-1-1
		c-0.553,0-1,0.448-1,1v53c0,3.309,2.691,6,6,6s6-2.691,6-6V1C56,0.448,55.553,0,55,0z M50,20c1.538,0,2.937-0.586,4-1.54V40h-8
		V18.46C47.063,19.414,48.462,20,50,20z M46,42h8v4h-8V42z M50,58c-2.206,0-4-1.794-4-4v-6h8v6C54,56.206,52.206,58,50,58z"/>
	<path fill="#010101" d="M49,3v10c0,0.552,0.447,1,1,1c0.553,0,1-0.448,1-1V3c0-0.552-0.447-1-1-1C49.447,2,49,2.448,49,3z"/>
</g>
</svg>
