<?xml version="1.0" encoding="utf-8"?>
<!-- Generator: Adobe Illustrator 17.0.0, SVG Export Plug-In . SVG Version: 6.00 Build 0)  -->
<!DOCTYPE svg PUBLIC "-//W3C//DTD SVG 1.1//EN" "http://www.w3.org/Graphics/SVG/1.1/DTD/svg11.dtd">
<svg version="1.1" id="Layer_1" xmlns="http://www.w3.org/2000/svg" xmlns:xlink="http://www.w3.org/1999/xlink" x="0px" y="0px"
	 width="60px" height="60px" viewBox="0 0 60 60" enable-background="new 0 0 60 60" xml:space="preserve">
<g>
	<path fill="#010101" d="M1,50h15c3.982,0,8,2.165,8,7c0,0.552,0.447,1,1,1h8c0.553,0,1-0.448,1-1c0-4.835,4.018-7,8-7h15
		c0.553,0,1-0.448,1-1V9c0-0.552-0.447-1-1-1h-5V3c0-0.552-0.447-1-1-1H37c-3.167,0-6.411,1.725-8,4.772C27.411,3.725,24.167,2,21,2
		H7C6.447,2,6,2.448,6,3v5.087H1c-0.553,0-1,0.448-1,1V49C0,49.552,0.447,50,1,50z M37,4h13v38H37c-2.766,0-5.32,1.569-7,3.907V11
		C30,6.453,33.606,4,37,4z M8,4h13c3.394,0,7,2.453,7,7v34.967C26.191,43.551,23.317,42,20,42H8V4z M2,10.087h4V43
		c0,0.552,0.447,1,1,1h13c4.486,0,8,3.514,8,8c0,0.552,0.447,1,1,1c0.553,0,1-0.448,1-1c0-4.579,3.695-8,7-8h14c0.553,0,1-0.448,1-1
		V10h4v38H42c-5.51,0-9.465,3.241-9.95,8h-6.1c-0.485-4.759-4.44-8-9.95-8H2V10.087z"/>
</g>
</svg>
