<?xml version="1.0" encoding="utf-8"?>
<!-- Generator: Adobe Illustrator 17.0.0, SVG Export Plug-In . SVG Version: 6.00 Build 0)  -->
<!DOCTYPE svg PUBLIC "-//W3C//DTD SVG 1.1//EN" "http://www.w3.org/Graphics/SVG/1.1/DTD/svg11.dtd">
<svg version="1.1" id="Layer_1" xmlns="http://www.w3.org/2000/svg" xmlns:xlink="http://www.w3.org/1999/xlink" x="0px" y="0px"
	 width="60px" height="60px" viewBox="0 0 60 60" enable-background="new 0 0 60 60" xml:space="preserve">
<g>
	<path fill="#010101" d="M49,0H12C8.636,0,6,2.636,6,6v48c0,3.364,2.636,6,6,6h39c0.553,0,1-0.448,1-1V11c0-0.552-0.447-1-1-1h-1V1
		C50,0.448,49.553,0,49,0z M12,2h36v8h-4V6H28v4.085L12,10c-2.243,0-4-1.757-4-4S9.757,2,12,2z M42,8v27.586l-6-6l-6,6V8H42z M50,58
		H12c-2.243,0-4-1.757-4-4V10.5c1.054,0.935,2.445,1.5,3.995,1.5L28,12.085v28.329l8-8l8,8V12h6V58z"/>
</g>
</svg>
