<?xml version="1.0" encoding="utf-8"?>
<!-- Generator: Adobe Illustrator 17.0.0, SVG Export Plug-In . SVG Version: 6.00 Build 0)  -->
<!DOCTYPE svg PUBLIC "-//W3C//DTD SVG 1.1//EN" "http://www.w3.org/Graphics/SVG/1.1/DTD/svg11.dtd">
<svg version="1.1" id="Layer_1" xmlns="http://www.w3.org/2000/svg" xmlns:xlink="http://www.w3.org/1999/xlink" x="0px" y="0px"
	 width="60px" height="60px" viewBox="0 0 60 60" enable-background="new 0 0 60 60" xml:space="preserve">
<g>
	<path fill="#010101" d="M57,3.783c-13.976,0-24.765,2.858-28,7.097C25.765,6.641,14.976,3.783,1,3.783c-0.552,0-1,0.448-1,1v41.608
		c0,0.552,0.448,1,1,1c16.151,0,27,4.047,27,7.826c0,0.552,0.448,1,1,1s1-0.448,1-1c0-3.779,10.849-7.826,27-7.826
		c0.552,0,1-0.448,1-1V4.783C58,4.231,57.552,3.783,57,3.783z M2,45.396V5.788c15.598,0.163,26,4.12,26,7.821v37.838
		C24.004,47.886,14.319,45.518,2,45.396z M56,45.396c-12.319,0.122-22.004,2.49-26,6.05V13.609c0-3.701,10.402-7.658,26-7.821
		V45.396z"/>
	<path fill="#010101" d="M23.052,18.323c-4.227-1.616-10.151-2.75-16.68-3.19c-0.552-0.049-1.028,0.379-1.065,0.93
		c-0.038,0.551,0.379,1.028,0.93,1.065c6.336,0.428,12.054,1.516,16.101,3.063c0.117,0.045,0.238,0.066,0.357,0.066
		c0.402,0,0.782-0.245,0.934-0.643C23.827,19.098,23.568,18.52,23.052,18.323z"/>
	<path fill="#010101" d="M23.052,25.888c-4.227-1.616-10.15-2.749-16.68-3.19c-0.552-0.046-1.028,0.379-1.065,0.93
		c-0.038,0.551,0.379,1.028,0.93,1.065c6.337,0.428,12.055,1.516,16.101,3.063c0.117,0.045,0.238,0.067,0.357,0.067
		c0.402,0,0.782-0.245,0.934-0.644C23.827,26.664,23.568,26.085,23.052,25.888z"/>
	<path fill="#010101" d="M35.305,20.257c0.119,0,0.24-0.022,0.357-0.066c4.047-1.547,9.765-2.635,16.101-3.063
		c0.551-0.037,0.968-0.514,0.93-1.065c-0.037-0.551-0.504-0.976-1.065-0.93c-6.529,0.44-12.453,1.574-16.68,3.19
		c-0.516,0.197-0.775,0.775-0.577,1.291C34.523,20.012,34.902,20.257,35.305,20.257z"/>
	<path fill="#010101" d="M35.305,27.823c0.119,0,0.24-0.021,0.357-0.067c4.046-1.547,9.764-2.635,16.101-3.063
		c0.551-0.037,0.968-0.514,0.93-1.065c-0.037-0.551-0.504-0.973-1.065-0.93c-6.53,0.441-12.454,1.574-16.68,3.19
		c-0.516,0.197-0.775,0.775-0.577,1.291C34.523,27.578,34.902,27.823,35.305,27.823z"/>
	<path fill="#010101" d="M23.052,33.454c-4.229-1.617-10.153-2.75-16.68-3.19c-0.552-0.043-1.028,0.38-1.065,0.93
		c-0.037,0.551,0.379,1.028,0.93,1.065c6.334,0.427,12.052,1.515,16.101,3.063c0.117,0.045,0.238,0.066,0.357,0.066
		c0.402,0,0.782-0.245,0.934-0.644C23.827,34.229,23.568,33.651,23.052,33.454z"/>
	<path fill="#010101" d="M23.053,41.019c-4.226-1.616-10.15-2.749-16.681-3.19c-0.552-0.041-1.028,0.38-1.065,0.93
		c-0.038,0.551,0.379,1.028,0.93,1.065c6.338,0.428,12.056,1.516,16.101,3.063c0.118,0.045,0.238,0.066,0.357,0.066
		c0.402,0,0.782-0.245,0.934-0.643C23.827,41.794,23.568,41.216,23.053,41.019z"/>
	<path fill="#010101" d="M35.305,35.388c0.119,0,0.24-0.021,0.357-0.066c4.051-1.548,9.77-2.636,16.101-3.063
		c0.551-0.037,0.967-0.514,0.93-1.065c-0.037-0.55-0.504-0.971-1.065-0.93c-6.524,0.44-12.448,1.573-16.68,3.19
		c-0.516,0.197-0.775,0.775-0.577,1.291C34.523,35.143,34.902,35.388,35.305,35.388z"/>
	<path fill="#010101" d="M35.305,42.953c0.119,0,0.24-0.022,0.357-0.066c4.047-1.547,9.766-2.635,16.101-3.063
		c0.551-0.037,0.968-0.514,0.93-1.065c-0.037-0.551-0.504-0.968-1.065-0.93c-6.528,0.44-12.452,1.573-16.68,3.19
		c-0.516,0.197-0.775,0.775-0.577,1.291C34.523,42.708,34.902,42.953,35.305,42.953z"/>
</g>
</svg>
