<?xml version="1.0" encoding="utf-8"?>
<!-- Generator: Adobe Illustrator 17.0.0, SVG Export Plug-In . SVG Version: 6.00 Build 0)  -->
<!DOCTYPE svg PUBLIC "-//W3C//DTD SVG 1.1//EN" "http://www.w3.org/Graphics/SVG/1.1/DTD/svg11.dtd">
<svg version="1.1" id="Layer_1" xmlns="http://www.w3.org/2000/svg" xmlns:xlink="http://www.w3.org/1999/xlink" x="0px" y="0px"
	 width="60px" height="60px" viewBox="0 0 60 60" enable-background="new 0 0 60 60" xml:space="preserve">
<g>
	<path fill="#010101" d="M33.973,48.585c0.905,0.598,1.957,0.914,3.041,0.914c1.47,0,2.851-0.571,3.889-1.608l1.749-1.749
		c0.758-0.758,1.175-1.765,1.174-2.837c0-1.07-0.418-2.076-1.174-2.83l-3.187-3.187c-1.513-1.514-4.15-1.517-5.669,0.001
		l-0.415,0.416c-2.974-2.505-5.834-5.366-8.35-8.348l0.418-0.418c0.758-0.757,1.174-1.764,1.174-2.837
		c-0.001-1.07-0.418-2.076-1.174-2.829l-3.186-3.191c-0.758-0.754-1.764-1.17-2.833-1.17c-1.072,0-2.079,0.418-2.833,1.174
		l-1.753,1.749c-1.837,1.84-2.128,4.754-0.692,6.93C19.316,36.574,26.171,43.427,33.973,48.585z M16.258,23.25l1.753-1.749
		c0.378-0.379,0.882-0.588,1.419-0.588s1.041,0.208,1.42,0.585l3.186,3.19c0.378,0.377,0.587,0.88,0.587,1.415
		c0,0.537-0.209,1.042-0.588,1.421l-1.063,1.063c-0.363,0.363-0.393,0.943-0.066,1.341c2.926,3.566,6.351,6.99,9.904,9.902
		c0.397,0.325,0.978,0.297,1.342-0.067l1.06-1.061c0.76-0.759,2.082-0.759,2.84-0.001l3.188,3.188
		c0.378,0.378,0.587,0.88,0.587,1.416c0.001,0.537-0.208,1.042-0.588,1.421l-1.749,1.748c-1.148,1.146-3.057,1.336-4.412,0.44
		c-7.58-5.011-14.239-11.668-19.256-19.252C14.905,26.277,15.09,24.42,16.258,23.25z"/>
	<path fill="#010101" d="M11,6c-0.553,0-1,0.448-1,1s0.447,1,1,1h40c0.553,0,1-0.448,1-1s-0.447-1-1-1H11z"/>
	<path fill="#010101" d="M54,1c0-0.552-0.447-1-1-1H11C7.141,0,4,3.14,4,7v46.956C4,57.289,6.711,60,10.043,60H53
		c0.553,0,1-0.448,1-1V13c0-0.552-0.447-1-1-1H11c-2.757,0-5-2.243-5-5s2.243-5,5-5h42C53.553,2,54,1.552,54,1z M11,14h41v44H10.043
		C7.813,58,6,56.186,6,53.956V11.895C7.271,13.193,9.043,14,11,14z"/>
</g>
</svg>
