<?xml version="1.0" encoding="utf-8"?>
<!-- Generator: Adobe Illustrator 17.0.0, SVG Export Plug-In . SVG Version: 6.00 Build 0)  -->
<!DOCTYPE svg PUBLIC "-//W3C//DTD SVG 1.1//EN" "http://www.w3.org/Graphics/SVG/1.1/DTD/svg11.dtd">
<svg version="1.1" id="Layer_1" xmlns="http://www.w3.org/2000/svg" xmlns:xlink="http://www.w3.org/1999/xlink" x="0px" y="0px"
	 width="60px" height="60px" viewBox="0 0 60 60" enable-background="new 0 0 60 60" xml:space="preserve">
<g>
	<path fill="#010101" d="M30,0C13.458,0,0,13.458,0,30s13.458,30,30,30s30-13.458,30-30S46.542,0,30,0z M30,58
		C14.56,58,2,45.44,2,30C2,14.561,14.56,2,30,2s28,12.561,28,28C58,45.44,45.44,58,30,58z"/>
	<path fill="#010101" d="M37.406,39.442C35.276,41.116,32.716,42,30,42c-6.617,0-12-5.383-12-12s5.383-12,12-12
		c2.704,0,5.258,0.878,7.383,2.54c0.438,0.34,1.064,0.262,1.404-0.172c0.34-0.435,0.263-1.064-0.172-1.404
		C36.134,17.025,33.155,16,30,16c-7.72,0-14,6.28-14,14c0,7.72,6.28,14,14,14c3.168,0,6.156-1.032,8.643-2.985
		c0.434-0.341,0.51-0.97,0.168-1.404C38.47,39.176,37.843,39.1,37.406,39.442z"/>
</g>
</svg>
