<?xml version="1.0" encoding="utf-8"?>
<!-- Generator: Adobe Illustrator 17.0.0, SVG Export Plug-In . SVG Version: 6.00 Build 0)  -->
<!DOCTYPE svg PUBLIC "-//W3C//DTD SVG 1.1//EN" "http://www.w3.org/Graphics/SVG/1.1/DTD/svg11.dtd">
<svg version="1.1" id="Layer_1" xmlns="http://www.w3.org/2000/svg" xmlns:xlink="http://www.w3.org/1999/xlink" x="0px" y="0px"
	 width="60px" height="60px" viewBox="0 0 60 60" enable-background="new 0 0 60 60" xml:space="preserve">
<g>
	<path fill="#010101" d="M30,0C13.458,0,0,13.458,0,30s13.458,30,30,30s30-13.458,30-30S46.542,0,30,0z M30,58
		C14.56,58,2,45.44,2,30C2,14.561,14.56,2,30,2s28,12.561,28,28C58,45.44,45.44,58,30,58z"/>
	<path fill="#010101" d="M20,22c2.608,0,4.433,1.303,5.504,2.396c0.385,0.395,1.018,0.401,1.414,0.015
		c0.394-0.387,0.4-1.02,0.014-1.414C25.039,21.064,22.577,20,20,20c-5.421,0-10,4.58-10,10c0,5.42,4.579,10,10,10
		c2.576,0,5.037-1.064,6.932-2.996c0.387-0.394,0.381-1.027-0.014-1.414c-0.394-0.387-1.028-0.381-1.414,0.014
		C24.432,36.697,22.607,38,20,38c-4.337,0-8-3.664-8-8C12,25.664,15.663,22,20,22z"/>
	<path fill="#010101" d="M45.678,35.604C44.185,37.127,42.116,38,40,38c-4.337,0-8-3.664-8-8c0-4.336,3.663-8,8-8
		c2.117,0,4.186,0.873,5.677,2.396c0.388,0.395,1.021,0.403,1.414,0.015c0.395-0.386,0.401-1.02,0.016-1.414
		C45.242,21.092,42.651,20,40,20c-5.421,0-10,4.58-10,10c0,5.42,4.579,10,10,10c2.65,0,5.24-1.092,7.105-2.996
		c0.387-0.394,0.381-1.027-0.014-1.414C46.696,35.204,46.063,35.208,45.678,35.604z"/>
</g>
</svg>
