<?xml version="1.0" encoding="utf-8"?>
<!-- Generator: Adobe Illustrator 17.0.0, SVG Export Plug-In . SVG Version: 6.00 Build 0)  -->
<!DOCTYPE svg PUBLIC "-//W3C//DTD SVG 1.1//EN" "http://www.w3.org/Graphics/SVG/1.1/DTD/svg11.dtd">
<svg version="1.1" id="Layer_1" xmlns="http://www.w3.org/2000/svg" xmlns:xlink="http://www.w3.org/1999/xlink" x="0px" y="0px"
	 width="60px" height="60px" viewBox="0 0 60 60" enable-background="new 0 0 60 60" xml:space="preserve">
<g>
	<path fill="#010101" d="M59,38h-5V5c0-0.552-0.447-1-1-1H23c-0.553,0-1,0.448-1,1v5H7c-0.553,0-1,0.448-1,1v27H1
		c-0.553,0-1,0.448-1,1v20c0,0.552,0.447,1,1,1h58c0.553,0,1-0.448,1-1V39C60,38.448,59.553,38,59,38z M24,6h28v32H41
		c-0.553,0-1,0.448-1,1v3H24V6z M8,12h14v30h-2v-3c0-0.552-0.447-1-1-1H8V12z M58,58H2V40h16v3c0,0.552,0.447,1,1,1h22
		c0.553,0,1-0.448,1-1v-3h16V58z"/>
	<path fill="#010101" d="M35,14h12c0.553,0,1-0.448,1-1c0-0.552-0.447-1-1-1H35c-0.553,0-1,0.448-1,1C34,13.552,34.447,14,35,14z"/>
	<path fill="#010101" d="M29,18h18c0.553,0,1-0.448,1-1c0-0.552-0.447-1-1-1H29c-0.553,0-1,0.448-1,1C28,17.552,28.447,18,29,18z"/>
	<path fill="#010101" d="M29,22h18c0.553,0,1-0.448,1-1c0-0.552-0.447-1-1-1H29c-0.553,0-1,0.448-1,1C28,21.552,28.447,22,29,22z"/>
	<path fill="#010101" d="M29,26h18c0.553,0,1-0.448,1-1c0-0.552-0.447-1-1-1H29c-0.553,0-1,0.448-1,1C28,25.552,28.447,26,29,26z"/>
	<path fill="#010101" d="M29,30h18c0.553,0,1-0.448,1-1c0-0.552-0.447-1-1-1H29c-0.553,0-1,0.448-1,1C28,29.552,28.447,30,29,30z"/>
	<path fill="#010101" d="M29,34h18c0.553,0,1-0.448,1-1c0-0.552-0.447-1-1-1H29c-0.553,0-1,0.448-1,1C28,33.552,28.447,34,29,34z"/>
</g>
</svg>
