<?xml version="1.0" encoding="utf-8"?>
<!-- Generator: Adobe Illustrator 17.0.0, SVG Export Plug-In . SVG Version: 6.00 Build 0)  -->
<!DOCTYPE svg PUBLIC "-//W3C//DTD SVG 1.1//EN" "http://www.w3.org/Graphics/SVG/1.1/DTD/svg11.dtd">
<svg version="1.1" id="Layer_1" xmlns="http://www.w3.org/2000/svg" xmlns:xlink="http://www.w3.org/1999/xlink" x="0px" y="0px"
	 width="60px" height="60px" viewBox="0 0 60 60" enable-background="new 0 0 60 60" xml:space="preserve">
<g>
	<path fill="#010101" d="M23,36c-0.553,0-1,0.448-1,1c0,0.552,0.447,1,1,1h14c0.553,0,1-0.448,1-1c0-0.552-0.447-1-1-1H23z"/>
	<path fill="#010101" d="M7,34h46c0.553,0,1-0.448,1-1c0-0.552-0.447-1-1-1H7c-0.553,0-1,0.448-1,1C6,33.552,6.447,34,7,34z"/>
	<path fill="#010101" d="M7,30h46c0.553,0,1-0.448,1-1c0-0.552-0.447-1-1-1H7c-0.553,0-1,0.448-1,1C6,29.552,6.447,30,7,30z"/>
	<path fill="#010101" d="M7,26h46c0.553,0,1-0.448,1-1c0-0.552-0.447-1-1-1H7c-0.553,0-1,0.448-1,1C6,25.552,6.447,26,7,26z"/>
	<path fill="#010101" d="M7,22h46c0.553,0,1-0.448,1-1c0-0.552-0.447-1-1-1H7c-0.553,0-1,0.448-1,1C6,21.552,6.447,22,7,22z"/>
	<path fill="#010101" d="M7,18h46c0.553,0,1-0.448,1-1c0-0.552-0.447-1-1-1H7c-0.553,0-1,0.448-1,1C6,17.552,6.447,18,7,18z"/>
	<path fill="#010101" d="M59,36H41c-0.553,0-1,0.448-1,1v3H20v-3c0-0.552-0.447-1-1-1H1c-0.553,0-1,0.448-1,1v20
		c0,0.552,0.447,1,1,1h58c0.553,0,1-0.448,1-1V37C60,36.448,59.553,36,59,36z M58,56H2V38h16v3c0,0.552,0.447,1,1,1h22
		c0.553,0,1-0.448,1-1v-3h16V56z"/>
</g>
</svg>
