<?xml version="1.0" encoding="utf-8"?>
<!-- Generator: Adobe Illustrator 17.0.0, SVG Export Plug-In . SVG Version: 6.00 Build 0)  -->
<!DOCTYPE svg PUBLIC "-//W3C//DTD SVG 1.1//EN" "http://www.w3.org/Graphics/SVG/1.1/DTD/svg11.dtd">
<svg version="1.1" id="Layer_1" xmlns="http://www.w3.org/2000/svg" xmlns:xlink="http://www.w3.org/1999/xlink" x="0px" y="0px"
	 width="60px" height="60px" viewBox="0 0 60 60" enable-background="new 0 0 60 60" xml:space="preserve">
<g>
	<path fill="#010101" d="M46,0H12C8.691,0,6,2.691,6,6v48c0,3.309,2.691,6,6,6h34c3.309,0,6-2.691,6-6V6C52,2.691,49.309,0,46,0z
		 M12,2h34c2.206,0,4,1.794,4,4v14H8V6C8,3.794,9.794,2,12,2z M50,22v16H8V22H50z M46,58H12c-2.206,0-4-1.794-4-4V40h42v14
		C50,56.206,48.206,58,46,58z"/>
	<path fill="#010101" d="M24.293,11.707C24.48,11.895,24.734,12,25,12h8c0.266,0,0.519-0.105,0.707-0.293l4-4
		c0.286-0.286,0.372-0.716,0.217-1.09C37.769,6.244,37.404,6,37,6H21c-0.404,0-0.77,0.244-0.924,0.617
		c-0.155,0.374-0.069,0.804,0.217,1.09L24.293,11.707z M34.586,8l-2,2h-7.172l-2-2H34.586z"/>
	<path fill="#010101" d="M20.293,27.707l4,4C24.48,31.895,24.734,32,25,32h8c0.266,0,0.519-0.105,0.707-0.293l4-4
		c0.286-0.286,0.372-0.716,0.217-1.09C37.769,26.244,37.404,26,37,26H21c-0.404,0-0.77,0.244-0.924,0.617
		C19.921,26.991,20.007,27.421,20.293,27.707z M34.586,28l-2,2h-7.172l-2-2H34.586z"/>
	<path fill="#010101" d="M37,44H21c-0.404,0-0.77,0.244-0.924,0.617c-0.155,0.374-0.069,0.804,0.217,1.09l4,4
		C24.48,49.895,24.734,50,25,50h8c0.266,0,0.519-0.105,0.707-0.293l4-4c0.286-0.286,0.372-0.716,0.217-1.09
		C37.769,44.244,37.404,44,37,44z M32.586,48h-7.172l-2-2h11.172L32.586,48z"/>
</g>
</svg>
