<?xml version="1.0" encoding="utf-8"?>
<!-- Generator: Adobe Illustrator 17.0.0, SVG Export Plug-In . SVG Version: 6.00 Build 0)  -->
<!DOCTYPE svg PUBLIC "-//W3C//DTD SVG 1.1//EN" "http://www.w3.org/Graphics/SVG/1.1/DTD/svg11.dtd">
<svg version="1.1" id="Layer_1" xmlns="http://www.w3.org/2000/svg" xmlns:xlink="http://www.w3.org/1999/xlink" x="0px" y="0px"
	 width="60px" height="60px" viewBox="0 0 60 60" enable-background="new 0 0 60 60" xml:space="preserve">
<g>
	<path fill="#010101" d="M7,60h44c0.552,0,1-0.448,1-1V3c0-0.552-0.448-1-1-1H7C6.448,2,6,2.448,6,3v56C6,59.552,6.448,60,7,60z
		 M8,4h42v54H8V4z"/>
	<path fill="#010101" d="M45,8H13c-0.552,0-1,0.448-1,1v12c0,0.552,0.448,1,1,1h32c0.552,0,1-0.448,1-1V9C46,8.448,45.552,8,45,8z
		 M44,20H14V10h30V20z"/>
	<path fill="#010101" d="M25,16h8c0.552,0,1-0.448,1-1c0-0.552-0.448-1-1-1h-8c-0.552,0-1,0.448-1,1C24,15.552,24.448,16,25,16z"/>
	<path fill="#010101" d="M45,24H13c-0.552,0-1,0.448-1,1v12c0,0.552,0.448,1,1,1h32c0.552,0,1-0.448,1-1V25
		C46,24.448,45.552,24,45,24z M44,36H14V26h30V36z"/>
	<path fill="#010101" d="M25,32h8c0.552,0,1-0.448,1-1c0-0.552-0.448-1-1-1h-8c-0.552,0-1,0.448-1,1C24,31.552,24.448,32,25,32z"/>
	<path fill="#010101" d="M45,40H13c-0.552,0-1,0.448-1,1v12c0,0.552,0.448,1,1,1h32c0.552,0,1-0.448,1-1V41
		C46,40.448,45.552,40,45,40z M44,52H14V42h30V52z"/>
	<path fill="#010101" d="M25,48h8c0.552,0,1-0.448,1-1c0-0.552-0.448-1-1-1h-8c-0.552,0-1,0.448-1,1C24,47.552,24.448,48,25,48z"/>
</g>
</svg>
