<?xml version="1.0" encoding="utf-8"?>
<!-- Generator: Adobe Illustrator 17.0.0, SVG Export Plug-In . SVG Version: 6.00 Build 0)  -->
<!DOCTYPE svg PUBLIC "-//W3C//DTD SVG 1.1//EN" "http://www.w3.org/Graphics/SVG/1.1/DTD/svg11.dtd">
<svg version="1.1" id="Layer_1" xmlns="http://www.w3.org/2000/svg" xmlns:xlink="http://www.w3.org/1999/xlink" x="0px" y="0px"
	 width="60px" height="60px" viewBox="0 0 60 60" enable-background="new 0 0 60 60" xml:space="preserve">
<g>
	<path fill="#010101" d="M9,60h42h1c0.007,0,0.013,0,0.02,0H53v-0.901c0.004-0.034,0.02-0.064,0.02-0.099
		c0-0.034-0.017-0.062-0.02-0.094V0h-1h-1H9H8H7v60h1H9z M10,58l4.5-6h31l4.5,6H10z M51,56l-4.2-5.6C46.611,50.148,46.315,50,46,50
		H31V14h8c2.817,0,5.509-1.346,7.2-3.6L51,4V56z M50,2l-5.399,7.2C43.285,10.953,41.191,12,39,12h-8h-2h-8
		c-2.191,0-4.285-1.047-5.601-2.8L10,2H50z M13.8,10.4c1.691,2.254,4.383,3.6,7.2,3.6h8v36H14c-0.315,0-0.611,0.148-0.8,0.4L9,56V4
		L13.8,10.4z"/>
</g>
</svg>
