<?xml version="1.0" encoding="utf-8"?>
<!-- Generator: Adobe Illustrator 17.0.0, SVG Export Plug-In . SVG Version: 6.00 Build 0)  -->
<!DOCTYPE svg PUBLIC "-//W3C//DTD SVG 1.1//EN" "http://www.w3.org/Graphics/SVG/1.1/DTD/svg11.dtd">
<svg version="1.1" id="Layer_1" xmlns="http://www.w3.org/2000/svg" xmlns:xlink="http://www.w3.org/1999/xlink" x="0px" y="0px"
	 width="60px" height="60px" viewBox="0 0 60 60" enable-background="new 0 0 60 60" xml:space="preserve">
<g>
	<path fill="#010101" d="M32.7,30L28.94,19.659C28.796,19.264,28.421,19,28,19s-0.796,0.263-0.94,0.658L23.3,30L13,30
		c-0.428,0-0.808,0.271-0.946,0.676c-0.139,0.404-0.005,0.852,0.333,1.114l8.016,6.226l-3.356,10.685
		c-0.124,0.397,0.009,0.828,0.335,1.085C17.561,49.928,17.78,50,18,50c0.178,0,0.355-0.047,0.515-0.143L28,44.167l9.485,5.691
		c0.358,0.215,0.814,0.185,1.142-0.079c0.326-0.263,0.454-0.701,0.32-1.098l-3.596-10.665l8.25-6.218
		c0.344-0.259,0.483-0.708,0.347-1.116C43.811,30.275,43.43,30,43,30H32.7z M33.572,36.854c-0.345,0.259-0.483,0.709-0.346,1.118
		l2.958,8.773l-7.67-4.602c-0.316-0.191-0.713-0.191-1.029,0l-7.742,4.645l2.775-8.836c0.125-0.399-0.011-0.833-0.341-1.089
		L15.918,32L24,32c0.421,0,0.796-0.263,0.94-0.658L28,22.927l3.06,8.415C31.204,31.737,31.579,32,32,32h8.012L33.572,36.854z"/>
	<path fill="#010101" d="M47,0H11C8.243,0,6,2.243,6,5v49c0,3.364,2.636,6,6,6h37c0.553,0,1-0.448,1-1V9c0-0.552-0.447-1-1-1h-1V1
		C48,0.448,47.553,0,47,0z M11,2h35v6h-2V5.044c0-0.552-0.447-0.999-0.999-1L13.001,4H13c-0.552,0-0.999,0.447-1,0.999
		c-0.001,0.552,0.446,1,0.999,1.001L42,6.042V8H11C9.346,8,8,6.654,8,5S9.346,2,11,2z M48,58H12c-2.243,0-4-1.757-4-4V8.998
		C8.836,9.627,9.875,10,11,10h37V58z"/>
</g>
</svg>
