<?xml version="1.0" encoding="utf-8"?>
<!-- Generator: Adobe Illustrator 17.0.0, SVG Export Plug-In . SVG Version: 6.00 Build 0)  -->
<!DOCTYPE svg PUBLIC "-//W3C//DTD SVG 1.1//EN" "http://www.w3.org/Graphics/SVG/1.1/DTD/svg11.dtd">
<svg version="1.1" id="Layer_1" xmlns="http://www.w3.org/2000/svg" xmlns:xlink="http://www.w3.org/1999/xlink" x="0px" y="0px"
	 width="60px" height="60px" viewBox="0 0 60 60" enable-background="new 0 0 60 60" xml:space="preserve">
<g>
	<path fill="#010101" d="M17,4H7C6.447,4,6,4.448,6,5v32c0,0.552,0.447,1,1,1h10c0.553,0,1-0.448,1-1V5C18,4.448,17.553,4,17,4z
		 M16,6v6H8V6H16z M8,36V14h8v22H8z"/>
	<path fill="#010101" d="M12,44c-2.206,0-4,1.794-4,4c0,2.206,1.794,4,4,4s4-1.794,4-4C16,45.794,14.206,44,12,44z M12,50
		c-1.103,0-2-0.897-2-2s0.897-2,2-2c1.102,0,2,0.897,2,2S13.102,50,12,50z"/>
	<path fill="#010101" d="M35,4H25c-0.553,0-1,0.448-1,1v32c0,0.552,0.447,1,1,1h10c0.553,0,1-0.448,1-1V5C36,4.448,35.553,4,35,4z
		 M34,6v6h-8V6H34z M26,36V14h8v22H26z"/>
	<path fill="#010101" d="M30,44c-2.206,0-4,1.794-4,4c0,2.206,1.794,4,4,4s4-1.794,4-4C34,45.794,32.206,44,30,44z M30,50
		c-1.103,0-2-0.897-2-2s0.897-2,2-2c1.102,0,2,0.897,2,2S31.102,50,30,50z"/>
	<path fill="#010101" d="M57,0H39H21H3C2.447,0,2,0.448,2,1v58c0,0.552,0.447,1,1,1h18h18h18c0.553,0,1-0.448,1-1V1
		C58,0.448,57.553,0,57,0z M4,2h16v56H4V2z M22,2h16v56H22V2z M56,58H40V2h16V58z"/>
	<path fill="#010101" d="M43,38h10c0.553,0,1-0.448,1-1V5c0-0.552-0.447-1-1-1H43c-0.553,0-1,0.448-1,1v32
		C42,37.552,42.447,38,43,38z M44,36V14h8v22H44z M52,6v6h-8V6H52z"/>
	<path fill="#010101" d="M48,44c-2.206,0-4,1.794-4,4c0,2.206,1.794,4,4,4s4-1.794,4-4C52,45.794,50.206,44,48,44z M48,50
		c-1.103,0-2-0.897-2-2s0.897-2,2-2c1.102,0,2,0.897,2,2S49.102,50,48,50z"/>
</g>
</svg>
