<?xml version="1.0" encoding="utf-8"?>
<!-- Generator: Adobe Illustrator 17.0.0, SVG Export Plug-In . SVG Version: 6.00 Build 0)  -->
<!DOCTYPE svg PUBLIC "-//W3C//DTD SVG 1.1//EN" "http://www.w3.org/Graphics/SVG/1.1/DTD/svg11.dtd">
<svg version="1.1" id="Layer_1" xmlns="http://www.w3.org/2000/svg" xmlns:xlink="http://www.w3.org/1999/xlink" x="0px" y="0px"
	 width="60px" height="60px" viewBox="0 0 60 60" enable-background="new 0 0 60 60" xml:space="preserve">
<g>
	<path fill="#010101" d="M59,0H1C0.448,0,0,0.448,0,1v58c0,0.552,0.448,1,1,1h40c0.133,0,0.264-0.027,0.385-0.078
		c0.121-0.051,0.231-0.124,0.323-0.216l17.999-17.999c0.092-0.092,0.165-0.201,0.216-0.323C59.973,41.264,60,41.134,60,41V1
		C60,0.448,59.552,0,59,0z M2,2h56v38H41c-0.552,0-1,0.448-1,1v17H2V2z M56.586,42L42,56.586V42H56.586z"/>
</g>
</svg>
