<?xml version="1.0" encoding="utf-8"?>
<!-- Generator: Adobe Illustrator 17.0.0, SVG Export Plug-In . SVG Version: 6.00 Build 0)  -->
<!DOCTYPE svg PUBLIC "-//W3C//DTD SVG 1.1//EN" "http://www.w3.org/Graphics/SVG/1.1/DTD/svg11.dtd">
<svg version="1.1" id="Layer_1" xmlns="http://www.w3.org/2000/svg" xmlns:xlink="http://www.w3.org/1999/xlink" x="0px" y="0px"
	 width="60px" height="60px" viewBox="0 0 60 60" enable-background="new 0 0 60 60" xml:space="preserve">
<path fill="#010101" d="M51.703,23.542C53.038,21.705,54,19.067,54,17v-7C54,4.393,43.019,0,29,0S4,4.393,4,10v7
	c0,2.475,1.371,5.785,3.122,7.536L24,41.414V57c0,1.654,1.346,3,3,3h4c1.654,0,3-1.346,3-3v-9.75c2.152,1.143,4.537,1.75,7,1.75
	c8.271,0,15-6.729,15-15C56,30.091,54.434,26.339,51.703,23.542z M29,2c13.554,0,23,4.216,23,8s-9.446,8-23,8S6,13.784,6,10
	S15.446,2,29,2z M32.294,40.292c-0.092,0.092-0.166,0.203-0.216,0.325C32.027,40.74,32,40.87,32,41v16c0,0.551-0.449,1-1,1h-4
	c-0.551,0-1-0.449-1-1V41c0-0.13-0.027-0.26-0.077-0.382c-0.051-0.123-0.124-0.233-0.216-0.325L8.536,23.122
	C7.161,21.747,6,18.944,6,17v-3.013C9.78,17.556,18.544,20,29,20s19.22-2.444,23-6.013V17c0,1.944-1.161,4.747-2.536,6.122
	L32.294,40.292z M41,47c-2.498,0-4.904-0.718-7-2.065v-3.521l16.375-16.375C52.682,27.453,54,30.662,54,34
	C54,41.169,48.169,47,41,47z"/>
</svg>
