<?xml version="1.0" encoding="utf-8"?>
<!-- Generator: Adobe Illustrator 17.0.0, SVG Export Plug-In . SVG Version: 6.00 Build 0)  -->
<!DOCTYPE svg PUBLIC "-//W3C//DTD SVG 1.1//EN" "http://www.w3.org/Graphics/SVG/1.1/DTD/svg11.dtd">
<svg version="1.1" id="Layer_1" xmlns="http://www.w3.org/2000/svg" xmlns:xlink="http://www.w3.org/1999/xlink" x="0px" y="0px"
	 width="60px" height="60px" viewBox="0 0 60 60" enable-background="new 0 0 60 60" xml:space="preserve">
<g>
	<path fill="#010101" d="M26,30.383V59c0,0.404,0.244,0.769,0.617,0.924C26.741,59.975,26.871,60,27,60
		c0.26,0,0.516-0.102,0.707-0.293l6-6C33.894,53.52,34,53.265,34,53V30.383L59.745,1.668c0.263-0.294,0.33-0.715,0.169-1.075
		C59.752,0.232,59.394,0,59,0H1C0.605,0,0.248,0.232,0.087,0.592c-0.161,0.36-0.095,0.781,0.168,1.075L26,30.383z M56.76,2
		L32.255,29.333C32.091,29.516,32,29.753,32,30v22.586l-4,4V30c0-0.247-0.091-0.484-0.255-0.667L3.24,2H56.76z"/>
</g>
</svg>
