<?xml version="1.0" encoding="utf-8"?>
<!-- Generator: Adobe Illustrator 17.0.0, SVG Export Plug-In . SVG Version: 6.00 Build 0)  -->
<!DOCTYPE svg PUBLIC "-//W3C//DTD SVG 1.1//EN" "http://www.w3.org/Graphics/SVG/1.1/DTD/svg11.dtd">
<svg version="1.1" id="Layer_1" xmlns="http://www.w3.org/2000/svg" xmlns:xlink="http://www.w3.org/1999/xlink" x="0px" y="0px"
	 width="60px" height="60px" viewBox="0 0 60 60" enable-background="new 0 0 60 60" xml:space="preserve">
<g>
	<path fill="#010101" d="M59,2H1C0.448,2,0,2.448,0,3v14c0,0.552,0.448,1,1,1h58c0.552,0,1-0.448,1-1V3C60,2.448,59.552,2,59,2z
		 M58,16H2V4h56V16z"/>
	<path fill="#010101" d="M59,22H1c-0.552,0-1,0.448-1,1v14c0,0.552,0.448,1,1,1h58c0.552,0,1-0.448,1-1V23
		C60,22.448,59.552,22,59,22z M58,36H2V24h56V36z"/>
	<path fill="#010101" d="M59,42H1c-0.552,0-1,0.448-1,1v14c0,0.552,0.448,1,1,1h58c0.552,0,1-0.448,1-1V43
		C60,42.448,59.552,42,59,42z M58,56H2V44h56V56z"/>
</g>
</svg>
