<?xml version="1.0" encoding="utf-8"?>
<!-- Generator: Adobe Illustrator 17.0.0, SVG Export Plug-In . SVG Version: 6.00 Build 0)  -->
<!DOCTYPE svg PUBLIC "-//W3C//DTD SVG 1.1//EN" "http://www.w3.org/Graphics/SVG/1.1/DTD/svg11.dtd">
<svg version="1.1" id="Layer_1" xmlns="http://www.w3.org/2000/svg" xmlns:xlink="http://www.w3.org/1999/xlink" x="0px" y="0px"
	 width="60px" height="60px" viewBox="0 0 60 60" enable-background="new 0 0 60 60" xml:space="preserve">
<g>
	<path fill="#010101" d="M59,6H1C0.447,6,0,6.448,0,7v46c0,0.552,0.447,1,1,1h58c0.553,0,1-0.448,1-1V7C60,6.448,59.553,6,59,6z
		 M58,52H2V8h56V52z"/>
	<path fill="#010101" d="M7,24h46c0.553,0,1-0.448,1-1V13c0-0.552-0.447-1-1-1H7c-0.553,0-1,0.448-1,1v10C6,23.552,6.447,24,7,24z
		 M8,14h44v8H8V14z"/>
	<path fill="#010101" d="M27,30H11c-0.553,0-1,0.448-1,1s0.447,1,1,1h16c0.553,0,1-0.448,1-1S27.553,30,27,30z"/>
	<path fill="#010101" d="M27,34H9c-0.553,0-1,0.448-1,1s0.447,1,1,1h18c0.553,0,1-0.448,1-1S27.553,34,27,34z"/>
	<path fill="#010101" d="M27,38H9c-0.553,0-1,0.448-1,1s0.447,1,1,1h18c0.553,0,1-0.448,1-1S27.553,38,27,38z"/>
	<path fill="#010101" d="M27,42H9c-0.553,0-1,0.448-1,1s0.447,1,1,1h18c0.553,0,1-0.448,1-1S27.553,42,27,42z"/>
	<path fill="#010101" d="M27,46H9c-0.553,0-1,0.448-1,1s0.447,1,1,1h18c0.553,0,1-0.448,1-1S27.553,46,27,46z"/>
	<path fill="#010101" d="M51,30H33c-0.553,0-1,0.448-1,1s0.447,1,1,1h18c0.553,0,1-0.448,1-1S51.553,30,51,30z"/>
	<path fill="#010101" d="M51,34H33c-0.553,0-1,0.448-1,1s0.447,1,1,1h18c0.553,0,1-0.448,1-1S51.553,34,51,34z"/>
	<path fill="#010101" d="M51,38H33c-0.553,0-1,0.448-1,1s0.447,1,1,1h18c0.553,0,1-0.448,1-1S51.553,38,51,38z"/>
	<path fill="#010101" d="M51,42H33c-0.553,0-1,0.448-1,1s0.447,1,1,1h18c0.553,0,1-0.448,1-1S51.553,42,51,42z"/>
	<path fill="#010101" d="M47,46H33c-0.553,0-1,0.448-1,1s0.447,1,1,1h14c0.553,0,1-0.448,1-1S47.553,46,47,46z"/>
</g>
</svg>
