<?xml version="1.0" encoding="utf-8"?>
<!-- Generator: Adobe Illustrator 17.0.0, SVG Export Plug-In . SVG Version: 6.00 Build 0)  -->
<!DOCTYPE svg PUBLIC "-//W3C//DTD SVG 1.1//EN" "http://www.w3.org/Graphics/SVG/1.1/DTD/svg11.dtd">
<svg version="1.1" id="Layer_1" xmlns="http://www.w3.org/2000/svg" xmlns:xlink="http://www.w3.org/1999/xlink" x="0px" y="0px"
	 width="60px" height="60px" viewBox="0 0 60 60" enable-background="new 0 0 60 60" xml:space="preserve">
<g>
	<path fill="#010101" d="M27,32H1c-0.552,0-1,0.448-1,1v26c0,0.552,0.448,1,1,1h26c0.552,0,1-0.448,1-1V33
		C28,32.448,27.552,32,27,32z M26,58H2V34h24V58z"/>
	<path fill="#010101" d="M5,46c0.552,0,1-0.448,1-1v-7h7c0.552,0,1-0.448,1-1c0-0.552-0.448-1-1-1H5c-0.552,0-1,0.448-1,1v8
		C4,45.552,4.448,46,5,46z"/>
	<path fill="#010101" d="M59,32H33c-0.552,0-1,0.448-1,1v26c0,0.552,0.448,1,1,1h26c0.552,0,1-0.448,1-1V33
		C60,32.448,59.552,32,59,32z M58,58H34V34h24V58z"/>
	<path fill="#010101" d="M37,46c0.552,0,1-0.448,1-1v-7h7c0.552,0,1-0.448,1-1c0-0.552-0.448-1-1-1h-8c-0.552,0-1,0.448-1,1v8
		C36,45.552,36.448,46,37,46z"/>
	<path fill="#010101" d="M17,2c-0.552,0-1,0.448-1,1v26c0,0.552,0.448,1,1,1h26c0.552,0,1-0.448,1-1V3c0-0.552-0.448-1-1-1H17z
		 M42,28H18V4h24V28z"/>
	<path fill="#010101" d="M21,16c0.552,0,1-0.448,1-1V8h7c0.552,0,1-0.448,1-1c0-0.552-0.448-1-1-1h-8c-0.552,0-1,0.448-1,1v8
		C20,15.552,20.448,16,21,16z"/>
</g>
</svg>
