<?xml version="1.0" encoding="utf-8"?>
<!-- Generator: Adobe Illustrator 17.0.0, SVG Export Plug-In . SVG Version: 6.00 Build 0)  -->
<!DOCTYPE svg PUBLIC "-//W3C//DTD SVG 1.1//EN" "http://www.w3.org/Graphics/SVG/1.1/DTD/svg11.dtd">
<svg version="1.1" id="Layer_1" xmlns="http://www.w3.org/2000/svg" xmlns:xlink="http://www.w3.org/1999/xlink" x="0px" y="0px"
	 width="60px" height="60px" viewBox="0 0 60 60" enable-background="new 0 0 60 60" xml:space="preserve">
<g>
	<path fill="#010101" d="M55.383,2.076c-0.375-0.155-0.804-0.069-1.09,0.216C51.554,5.03,49.122,6,45,6
		c-5.037,0-10.597-2.367-13.221-5.627c-0.381-0.472-1.222-0.472-1.601,0.001C27.558,3.634,22.015,6,17,6
		c-4.126,0-6.558-0.97-9.293-3.707c-0.286-0.286-0.715-0.371-1.09-0.217C6.244,2.231,6,2.596,6,3v36
		c0,0.058,0.005,0.115,0.015,0.172c0.104,0.595,2.8,14.649,24.716,20.79C30.818,59.988,30.909,60,31,60
		c0.091,0,0.182-0.012,0.269-0.037c21.916-6.141,24.611-20.195,24.716-20.79C55.995,39.115,56,39.058,56,39V3
		C56,2.596,55.757,2.231,55.383,2.076z M54,38.901c-0.231,1.071-3.327,13.444-23,19.06c-10.628-3.035-16.312-8.049-19.214-11.736
		C8.883,42.537,8.111,39.409,8,38.9V5.233C10.542,7.223,13.179,8,17,8c5.22,0,10.779-2.229,13.979-5.519C34.184,5.772,39.76,8,45,8
		c3.819,0,6.455-0.777,9-2.769V38.901z"/>
	<path fill="#010101" d="M36,24v-9c0-0.552-0.447-1-1-1h-8c-0.553,0-1,0.448-1,1v9h-9c-0.553,0-1,0.448-1,1v8c0,0.552,0.447,1,1,1h9
		v9c0,0.552,0.447,1,1,1h8c0.553,0,1-0.448,1-1v-9h9c0.553,0,1-0.448,1-1v-8c0-0.552-0.447-1-1-1H36z M44,32h-9
		c-0.553,0-1,0.448-1,1v9h-6v-9c0-0.552-0.447-1-1-1h-9v-6h9c0.553,0,1-0.448,1-1v-9h6v9c0,0.552,0.447,1,1,1h9V32z"/>
</g>
</svg>
