<?xml version="1.0" encoding="utf-8"?>
<!-- Generator: Adobe Illustrator 17.0.0, SVG Export Plug-In . SVG Version: 6.00 Build 0)  -->
<!DOCTYPE svg PUBLIC "-//W3C//DTD SVG 1.1//EN" "http://www.w3.org/Graphics/SVG/1.1/DTD/svg11.dtd">
<svg version="1.1" id="Layer_1" xmlns="http://www.w3.org/2000/svg" xmlns:xlink="http://www.w3.org/1999/xlink" x="0px" y="0px"
	 width="60px" height="60px" viewBox="0 0 60 60" enable-background="new 0 0 60 60" xml:space="preserve">
<g>
	<path fill="#010101" d="M53.383,2.076c-0.373-0.155-0.803-0.069-1.09,0.216C49.554,5.03,47.122,6,43,6
		c-5.037,0-10.597-2.367-13.221-5.627c-0.01-0.012-0.026-0.016-0.036-0.027C29.56,0.138,29.299,0,29,0
		c-0.151,0-0.291,0.039-0.419,0.099c-0.156,0.058-0.298,0.145-0.402,0.275C25.558,3.634,20.015,6,15,6
		c-4.126,0-6.558-0.97-9.293-3.707c-0.286-0.286-0.716-0.371-1.09-0.217C4.244,2.231,4,2.596,4,3v36
		c0,0.058,0.005,0.115,0.015,0.172c0.104,0.595,2.8,14.649,24.716,20.79C28.818,59.988,28.909,60,29,60
		c0.091,0,0.182-0.012,0.269-0.037c21.916-6.141,24.611-20.195,24.716-20.79C53.995,39.115,54,39.058,54,39V3
		C54,2.596,53.757,2.231,53.383,2.076z M43,8c3.819,0,6.455-0.777,9-2.769V28H30V3.404C33.286,6.176,38.271,8,43,8z M15,8
		c4.73,0,9.72-1.841,13-4.632V28H6V5.233C8.542,7.223,11.179,8,15,8z M9.786,46.225C6.883,42.537,6.111,39.409,6,38.9V30h22v27.655
		C18.022,54.598,12.594,49.793,9.786,46.225z M30,57.657V30h22v8.901C51.773,39.954,48.768,51.913,30,57.657z"/>
</g>
</svg>
