<?xml version="1.0" encoding="utf-8"?>
<!-- Generator: Adobe Illustrator 17.0.0, SVG Export Plug-In . SVG Version: 6.00 Build 0)  -->
<!DOCTYPE svg PUBLIC "-//W3C//DTD SVG 1.1//EN" "http://www.w3.org/Graphics/SVG/1.1/DTD/svg11.dtd">
<svg version="1.1" id="Layer_1" xmlns="http://www.w3.org/2000/svg" xmlns:xlink="http://www.w3.org/1999/xlink" x="0px" y="0px"
	 width="60px" height="60px" viewBox="0 0 60 60" enable-background="new 0 0 60 60" xml:space="preserve">
<g>
	<path fill="#010101" d="M15,14c0.552,0,1-0.448,1-1V1c0-0.552-0.448-1-1-1s-1,0.448-1,1v12C14,13.552,14.448,14,15,14z"/>
	<path fill="#010101" d="M29,14.609c0.552,0,1-0.448,1-1V1c0-0.552-0.448-1-1-1s-1,0.448-1,1v12.609
		C28,14.161,28.448,14.609,29,14.609z"/>
	<path fill="#010101" d="M43,15c0.552,0,1-0.448,1-1V1c0-0.552-0.448-1-1-1s-1,0.448-1,1v13C42,14.552,42.448,15,43,15z"/>
	<path fill="#010101" d="M1,60h56c0.552,0,1-0.448,1-1V5c0-0.552-0.448-1-1-1h-8c-0.552,0-1,0.448-1,1c0,0.552,0.448,1,1,1h7v52H2V6
		h7c0.552,0,1-0.448,1-1c0-0.552-0.448-1-1-1H1C0.448,4,0,4.448,0,5v54C0,59.552,0.448,60,1,60z"/>
	<path fill="#010101" d="M10,12c0-0.552-0.448-1-1-1s-1,0.448-1,1v39c0,0.552,0.448,1,1,1h40c0.552,0,1-0.448,1-1V12
		c0-0.552-0.448-1-1-1s-1,0.448-1,1v38H10V12z"/>
	<path fill="#010101" d="M19,6h6c0.552,0,1-0.448,1-1c0-0.552-0.448-1-1-1h-6c-0.552,0-1,0.448-1,1C18,5.552,18.448,6,19,6z"/>
	<path fill="#010101" d="M33,6h6c0.552,0,1-0.448,1-1c0-0.552-0.448-1-1-1h-6c-0.552,0-1,0.448-1,1C32,5.552,32.448,6,33,6z"/>
</g>
</svg>
