<?xml version="1.0" encoding="UTF-8" standalone="no"?>
<svg viewBox="0 0 24 24" version="1.1" xmlns="http://www.w3.org/2000/svg" xmlns:xlink="http://www.w3.org/1999/xlink">
    <g stroke="none" stroke-width="1" fill-rule="evenodd">
        <g transform="translate(10.000000, 9.500000) rotate(-90.000000) translate(-10.000000, -9.500000) translate(2.500000, -0.500000)">
            <path d="M10.625,6.25 L10.625,13.3035714 L11.875,13.3035714 L11.875,6.25 L10.625,6.25 L10.625,6.25 Z"></path>
            <path d="M4.375,13.75 C4.375,11.3339903 5.08386561,10.625 7.5,10.625 L11.25,10.625 L11.25,9.375 L7.5,9.375 C4.39346046,9.375 3.125,10.6436835 3.125,13.75 L4.375,13.75 L4.375,13.75 Z"></path>
            <path d="M11.25,6.875 C12.9758898,6.875 14.375,5.47588984 14.375,3.75 C14.375,2.02411016 12.9758898,0.625 11.25,0.625 C9.52411016,0.625 8.125,2.02411016 8.125,3.75 C8.125,5.47588984 9.52411016,6.875 11.25,6.875 L11.25,6.875 Z M11.25,5.625 C10.2144661,5.625 9.375,4.78553391 9.375,3.75 C9.375,2.71446609 10.2144661,1.875 11.25,1.875 C12.2855339,1.875 13.125,2.71446609 13.125,3.75 C13.125,4.78553391 12.2855339,5.625 11.25,5.625 L11.25,5.625 Z"></path>
            <path d="M11.25,19.375 C12.9758898,19.375 14.375,17.9758898 14.375,16.25 C14.375,14.5241102 12.9758898,13.125 11.25,13.125 C9.52411016,13.125 8.125,14.5241102 8.125,16.25 C8.125,17.9758898 9.52411016,19.375 11.25,19.375 L11.25,19.375 Z M11.25,18.125 C10.2144661,18.125 9.375,17.2855339 9.375,16.25 C9.375,15.2144661 10.2144661,14.375 11.25,14.375 C12.2855339,14.375 13.125,15.2144661 13.125,16.25 C13.125,17.2855339 12.2855339,18.125 11.25,18.125 L11.25,18.125 Z"></path>
            <path d="M3.75,19.375 C5.47588984,19.375 6.875,17.9758898 6.875,16.25 C6.875,14.5241102 5.47588984,13.125 3.75,13.125 C2.02411016,13.125 0.625,14.5241102 0.625,16.25 C0.625,17.9758898 2.02411016,19.375 3.75,19.375 L3.75,19.375 Z M3.75,18.125 C2.71446609,18.125 1.875,17.2855339 1.875,16.25 C1.875,15.2144661 2.71446609,14.375 3.75,14.375 C4.78553391,14.375 5.625,15.2144661 5.625,16.25 C5.625,17.2855339 4.78553391,18.125 3.75,18.125 L3.75,18.125 Z"></path>
        </g>
    </g>
</svg>
