<?xml version="1.0" encoding="utf-8"?>
<!-- Generator: Adobe Illustrator 17.0.0, SVG Export Plug-In . SVG Version: 6.00 Build 0)  -->
<!DOCTYPE svg PUBLIC "-//W3C//DTD SVG 1.1//EN" "http://www.w3.org/Graphics/SVG/1.1/DTD/svg11.dtd">
<svg version="1.1" id="Layer_1" xmlns="http://www.w3.org/2000/svg" xmlns:xlink="http://www.w3.org/1999/xlink" x="0px" y="0px"
	 width="48px" height="48px" viewBox="0 0 48 48" enable-background="new 0 0 48 48" xml:space="preserve">
<path fill="#231F20" d="M46,18c0-4.125-4.743-7-9-7c-0.809,0-1.799,0.326-2.985,0.985C34.674,10.799,35,9.808,35,9
	c0-4.257-2.875-9-7-9c-1.903,0-3.695,0.768-5,2.103C21.695,0.768,19.903,0,18,0c-4.125,0-7,4.743-7,9
	c0,0.808,0.326,1.799,0.985,2.985C10.799,11.326,9.809,11,9,11c-4.257,0-9,2.875-9,7c0,1.903,0.769,3.695,2.102,5
	C0.769,24.305,0,26.097,0,28c0,4.125,4.743,7,9,7c3.28,0,10.029-3.004,13-4.406V43c0,2.757,1.794,5,4,5h3c0.553,0,1-0.448,1-1
	s-0.447-1-1-1h-3c-1.084,0-2-1.374-2-3V30.594C26.971,31.996,33.72,35,37,35c4.257,0,9-2.875,9-7c0-1.903-0.769-3.696-2.104-5
	C45.231,21.696,46,19.903,46,18z M44,28c0,2.57-3.402,5-7,5c-3.086,0-10.829-3.533-13.553-4.894
	c-0.008-0.004-0.018-0.002-0.026-0.006C23.292,28.039,23.152,28,23,28s-0.292,0.039-0.421,0.1c-0.008,0.004-0.018,0.002-0.026,0.006
	C19.83,29.467,12.088,33,9,33c-3.598,0-7-2.43-7-5c0-1.678,0.837-3.236,2.239-4.167C4.517,23.648,4.685,23.335,4.685,23
	s-0.167-0.647-0.446-0.833C2.837,21.236,2,19.678,2,18c0-2.57,3.402-5,7-5c0.635,0,2.668,0.51,7.824,5.237
	c0.395,0.361,1.006,0.35,1.383-0.03c0.379-0.379,0.391-0.989,0.03-1.383C13.511,11.668,13,9.635,13,9c0-3.598,2.43-7,5-7
	c1.678,0,3.235,0.837,4.167,2.239c0.371,0.559,1.295,0.559,1.666,0C24.765,2.837,26.322,2,28,2c2.57,0,5,3.402,5,7
	c0,0.635-0.511,2.668-5.237,7.824c-0.362,0.395-0.349,1.005,0.03,1.383c0.379,0.38,0.99,0.391,1.383,0.03
	C34.332,13.51,36.365,13,37,13c3.598,0,7,2.43,7,5c0,1.678-0.838,3.236-2.24,4.167c-0.279,0.185-0.447,0.498-0.447,0.833
	s0.168,0.648,0.447,0.834C43.162,24.764,44,26.322,44,28z"/>
<g id="nyt_x5F_exporter_x5F_info" display="none">
</g>
</svg>
