<?xml version="1.0" encoding="utf-8"?>
<!-- Generator: Adobe Illustrator 17.0.0, SVG Export Plug-In . SVG Version: 6.00 Build 0)  -->
<!DOCTYPE svg PUBLIC "-//W3C//DTD SVG 1.1//EN" "http://www.w3.org/Graphics/SVG/1.1/DTD/svg11.dtd">
<svg version="1.1" id="Layer_1" xmlns="http://www.w3.org/2000/svg" xmlns:xlink="http://www.w3.org/1999/xlink" x="0px" y="0px"
	 width="48px" height="48px" viewBox="0 0 48 48" enable-background="new 0 0 48 48" xml:space="preserve">
<g>
	<path fill="#231F20" d="M24.316,18.673c-4.411,0-8,3.589-8,8c0,4.411,3.589,8,8,8c4.411,0,8-3.588,8-8
		C32.316,22.262,28.727,18.673,24.316,18.673z M24.316,32.673c-3.309,0-6-2.691-6-6c0-3.309,2.691-6,6-6c3.309,0,6,2.691,6,6
		C30.316,29.982,27.625,32.673,24.316,32.673z"/>
	<path fill="#231F20" d="M47.143,19.256c-1.345-4.134-5.168-6.912-9.512-6.912c-1.047,0-2.087,0.165-3.094,0.492
		c-0.075,0.025-0.15,0.051-0.224,0.077c0.002-0.08,0.003-0.16,0.003-0.24c0-5.514-4.486-10-10-10c-5.514,0-10,4.486-10,10
		c0,0.079,0.001,0.159,0.003,0.239c-0.075-0.027-0.151-0.052-0.227-0.077c-1.004-0.326-2.044-0.491-3.09-0.491
		c-4.344,0-8.166,2.778-9.509,6.913c-0.826,2.54-0.613,5.25,0.599,7.63c1.212,2.38,3.279,4.145,5.819,4.97
		c0.076,0.025,0.153,0.049,0.23,0.072c-0.048,0.064-0.096,0.128-0.143,0.192c-3.241,4.46-2.249,10.727,2.211,13.969
		c1.72,1.249,3.75,1.91,5.87,1.91c3.195,0,6.223-1.541,8.098-4.124c0.047-0.065,0.093-0.13,0.138-0.195
		c0.045,0.066,0.091,0.131,0.138,0.196c1.876,2.581,4.904,4.122,8.1,4.122c2.12,0,4.15-0.66,5.869-1.909
		c2.163-1.569,3.584-3.888,4.001-6.527c0.417-2.638-0.219-5.281-1.788-7.441c-0.047-0.065-0.095-0.129-0.144-0.194
		c0.077-0.023,0.153-0.046,0.229-0.071C45.963,30.154,48.845,24.502,47.143,19.256z M37.881,32.043
		c0.431,0.386,0.812,0.808,1.135,1.254c1.257,1.73,1.765,3.845,1.432,5.955c-0.334,2.111-1.471,3.965-3.201,5.221
		C35.871,45.472,34.248,46,32.553,46c-2.558,0-4.981-1.233-6.48-3.297c-0.326-0.45-0.61-0.945-0.844-1.469
		c-0.161-0.361-0.518-0.593-0.913-0.593c-0.394,0-0.752,0.232-0.913,0.593c-0.234,0.524-0.517,1.018-0.843,1.467
		C21.059,44.767,18.636,46,16.079,46c-1.695,0-3.318-0.528-4.694-1.528c-3.569-2.593-4.362-7.607-1.769-11.176
		c0.323-0.444,0.704-0.866,1.134-1.253c0.294-0.265,0.405-0.678,0.283-1.053c-0.122-0.376-0.454-0.645-0.848-0.686
		c-0.57-0.059-1.126-0.176-1.656-0.349c-2.032-0.66-3.686-2.072-4.656-3.976c-0.97-1.904-1.14-4.072-0.479-6.104
		c1.075-3.308,4.132-5.531,7.607-5.531c0.837,0,1.669,0.133,2.471,0.395c0.527,0.171,1.047,0.404,1.545,0.692
		c0.342,0.197,0.769,0.175,1.089-0.057c0.32-0.233,0.472-0.632,0.389-1.019c-0.12-0.559-0.181-1.124-0.181-1.681
		c0-4.411,3.589-8,8-8c4.411,0,8,3.589,8,8c0,0.556-0.061,1.122-0.181,1.683c-0.082,0.387,0.071,0.787,0.391,1.019
		c0.322,0.233,0.749,0.254,1.09,0.055c0.489-0.284,1.009-0.518,1.543-0.693c0.804-0.262,1.636-0.394,2.473-0.394
		c3.475,0,6.533,2.222,7.61,5.53c1.361,4.196-0.944,8.718-5.14,10.081c-0.528,0.173-1.084,0.29-1.654,0.349
		c-0.393,0.041-0.725,0.31-0.848,0.686C37.476,31.366,37.587,31.778,37.881,32.043z"/>
</g>
<g id="nyt_x5F_exporter_x5F_info" display="none">
</g>
</svg>
