<?xml version="1.0" encoding="utf-8"?>
<!-- Generator: Adobe Illustrator 17.0.0, SVG Export Plug-In . SVG Version: 6.00 Build 0)  -->
<!DOCTYPE svg PUBLIC "-//W3C//DTD SVG 1.1//EN" "http://www.w3.org/Graphics/SVG/1.1/DTD/svg11.dtd">
<svg version="1.1" id="Layer_1" xmlns="http://www.w3.org/2000/svg" xmlns:xlink="http://www.w3.org/1999/xlink" x="0px" y="0px"
	 width="48px" height="48px" viewBox="0 0 48 48" enable-background="new 0 0 48 48" xml:space="preserve">
<g>
	<path fill="#231F20" d="M17.31,22.613c1.884,0,3.471-1.075,4.732-3.198c2.987,5.346,3.967,9.688,3.981,9.758
		c0.094,0.434,0.463,0.754,0.905,0.786c0.024,0.001,0.049,0.002,0.072,0.002c0.414,0,0.789-0.256,0.937-0.648
		c0.017-0.045,1.019-2.651,2.955-5.367c1.257,1.96,2.808,2.429,3.992,2.429c1.587,0,3.323-0.871,4.765-2.388
		c2.4-2.531,3.781-9.367,1.91-13.442c-0.127-0.275-0.371-0.478-0.665-0.552c-0.288-0.074-0.604-0.012-0.847,0.171
		c-1.753,1.323-3.372,1.741-5.086,2.184c-1.478,0.382-3.006,0.777-4.515,1.783c-1.737,1.159-2.735,2.752-2.74,4.373
		c-0.002,0.972,0.372,2.352,1.979,3.707c-1.047,1.381-1.877,2.763-2.466,3.888c-0.662-1.991-1.821-4.923-3.694-8.171
		c1.995-1.12,3.196-2.508,3.575-4.141c0.462-1.994-0.312-4.191-2.297-6.529c-1.856-2.186-4.341-2.934-6.972-3.726
		C15.53,2.839,13.15,2.123,11.053,0.35c-0.232-0.195-0.54-0.276-0.836-0.218C9.921,0.19,9.666,0.378,9.524,0.646
		c-2.756,5.212-1.46,14.705,1.557,18.259C12.516,20.596,14.762,22.613,17.31,22.613z M29.705,18.509
		c0.003-0.929,0.695-1.944,1.85-2.715c1.227-0.818,2.528-1.154,3.905-1.51c1.426-0.369,3.008-0.777,4.67-1.769
		c0.83,3.335-0.25,8.32-1.935,10.095c-1.048,1.106-2.287,1.766-3.312,1.766c0,0,0,0-0.001,0c-1.065,0-1.955-0.713-2.656-2.118
		c1.174-1.339,2.578-2.58,4.222-3.402c0.494-0.247,0.694-0.848,0.447-1.342c-0.248-0.494-0.849-0.694-1.342-0.447
		c-1.796,0.898-3.315,2.206-4.593,3.613C30.299,20.122,29.703,19.38,29.705,18.509z M10.81,2.679
		c2.129,1.469,4.404,2.154,6.447,2.769c2.441,0.734,4.549,1.369,6.023,3.105c1.068,1.258,2.261,3.109,1.872,4.783
		c-0.25,1.079-1.153,2.044-2.669,2.879c-1.837-2.881-4.231-5.918-7.341-8.717c-0.41-0.37-1.042-0.336-1.412,0.074
		c-0.369,0.41-0.336,1.043,0.074,1.412c2.977,2.679,5.277,5.62,7.038,8.41c-0.988,2.132-2.174,3.22-3.532,3.22
		c-1.371,0-3.085-1.094-4.704-3.002C10.278,14.869,9.134,7.308,10.81,2.679z"/>
	<path fill="#231F20" d="M47.708,36.407c-2.35-2.347-4.373-3-7.022-2.242l-7.345,2.436c-0.236-1.305-1.371-2.487-3.341-2.487h-5.595
		c-1.487-1.401-4.859-4-9.405-4h-5V29c0-0.552-0.447-1-1-1H1c-0.553,0-1,0.448-1,1v16c0,0.552,0.447,1,1,1h8c0.553,0,1-0.448,1-1
		v-1.495c2.004,0.679,3.748,1.291,5.261,1.823c4.938,1.736,7.689,2.686,10.188,2.686c3.04,0,5.705-1.407,11.479-4.514
		c2.701-1.453,6.062-3.262,10.52-5.491c0.287-0.144,0.488-0.417,0.54-0.734C48.039,36.957,47.936,36.635,47.708,36.407z M8,44H2V30
		h6V44z M35.98,41.738c-9.834,5.294-9.833,5.297-20.055,1.703c-1.677-0.59-3.638-1.277-5.925-2.046v-9.281h5
		c4.139,0,7.179,2.592,8.293,3.707c0.187,0.187,0.441,0.293,0.707,0.293h6c1.027,0,1.391,0.538,1.391,1c0,0.461-0.365,1-1.391,1H19
		c-0.553,0-1,0.448-1,1s0.447,1,1,1h11c1.278,0,2.194-0.505,2.753-1.211l8.522-2.828c1.321-0.377,2.456-0.354,3.962,0.806
		C41.398,38.822,38.42,40.425,35.98,41.738z"/>
</g>
<g id="nyt_x5F_exporter_x5F_info" display="none">
</g>
</svg>
