<?xml version="1.0" encoding="utf-8"?>
<!-- Generator: Adobe Illustrator 17.0.0, SVG Export Plug-In . SVG Version: 6.00 Build 0)  -->
<!DOCTYPE svg PUBLIC "-//W3C//DTD SVG 1.1//EN" "http://www.w3.org/Graphics/SVG/1.1/DTD/svg11.dtd">
<svg version="1.1" id="Layer_1" xmlns="http://www.w3.org/2000/svg" xmlns:xlink="http://www.w3.org/1999/xlink" x="0px" y="0px"
	 width="48px" height="48px" viewBox="0 0 48 48" enable-background="new 0 0 48 48" xml:space="preserve">
<g>
	<path fill="#231F20" d="M29,40H19c-0.553,0-1,0.448-1,1s0.447,1,1,1h10c0.553,0,1-0.448,1-1S29.553,40,29,40z"/>
	<path fill="#231F20" d="M29,44H19c-0.553,0-1,0.448-1,1s0.447,1,1,1h4v1c0,0.552,0.447,1,1,1s1-0.448,1-1v-1h4c0.553,0,1-0.448,1-1
		S29.553,44,29,44z"/>
	<path fill="#231F20" d="M24,0C13.523,0,5,8.075,5,18c0,7.727,5.308,14.643,13,17.07V37c0,0.552,0.447,1,1,1h10c0.553,0,1-0.448,1-1
		v-1.93c7.692-2.427,13-9.343,13-17.07C43,8.075,34.477,0,24,0z M28.736,33.357C28.302,33.476,28,33.871,28,34.322V36h-3.162
		c-0.262-1.545-0.801-5.124-0.928-9.034c1.433,0.946,2.722,1.416,3.903,1.416c1.63,0,3.789-0.9,4.812-5.183
		c1.086-4.534-2.046-13.588-6.86-16.993c-0.248-0.174-0.557-0.227-0.852-0.146c-0.291,0.083-0.528,0.293-0.646,0.572
		c-1.07,2.53-2.87,4.244-4.61,5.902c-1.989,1.895-3.868,3.685-4.537,6.474c-0.569,2.377-0.325,4.321,0.702,5.623
		c0.908,1.151,2.342,1.734,4.265,1.734c0.551,0,1.163-0.067,1.8-0.164c0.06,4.108,0.606,7.924,0.919,9.799H20v-1.678
		c0-0.45-0.302-0.846-0.736-0.965C12.043,31.387,7,25.071,7,18C7,9.178,14.626,2,24,2s17,7.178,17,16
		C41,25.071,35.957,31.387,28.736,33.357z M20.087,24.365c-1.279-0.001-2.185-0.328-2.694-0.973
		c-0.626-0.793-0.742-2.185-0.327-3.919c0.531-2.214,2.125-3.733,3.972-5.491c1.543-1.47,3.264-3.109,4.5-5.383
		c3.585,3.373,5.981,10.634,5.143,14.133c-0.579,2.422-1.544,3.649-2.868,3.649c-1.02,0-2.372-0.664-3.921-1.909
		c0.07-3.515,0.578-7.002,2.008-9.274c0.295-0.467,0.154-1.085-0.313-1.379c-0.469-0.294-1.085-0.154-1.38,0.313
		c-1.607,2.551-2.201,6.3-2.307,10.037C21.244,24.285,20.624,24.365,20.087,24.365z"/>
</g>
<g id="nyt_x5F_exporter_x5F_info" display="none">
</g>
</svg>
