<?xml version="1.0" encoding="utf-8"?>
<!-- Generator: Adobe Illustrator 17.0.0, SVG Export Plug-In . SVG Version: 6.00 Build 0)  -->
<!DOCTYPE svg PUBLIC "-//W3C//DTD SVG 1.1//EN" "http://www.w3.org/Graphics/SVG/1.1/DTD/svg11.dtd">
<svg version="1.1" id="Layer_1" xmlns="http://www.w3.org/2000/svg" xmlns:xlink="http://www.w3.org/1999/xlink" x="0px" y="0px"
	 width="48px" height="48px" viewBox="0 0 48 48" enable-background="new 0 0 48 48" xml:space="preserve">
<path fill="#231F20" d="M32.5,30c7.599,0,11-5.022,11-10c0-5.966-3.732-9.641-10.042-9.975C33.127,6.088,30.775,0,23.5,0
	c-7.277,0-9.628,6.09-9.958,10.027C6.615,10.432,3.5,15.237,3.5,20c0,4.978,3.401,10,11,10H20v4h-6.888l4.667,14h11.442l4.665-14H26
	v-4H32.5z M5.5,20c0-3.69,2.357-8,9-8h1v-1c0-0.368,0.091-9,8-9c7.878,0,7.998,8.634,8,9.002L31.503,12H32.5c5.72,0,9,2.916,9,8
	c0,3.69-2.357,8-9,8h-18C7.857,28,5.5,23.69,5.5,20z M27.78,46h-8.559l-3.334-10h15.226L27.78,46z M24,34h-2v-4h2V34z"/>
<g id="nyt_x5F_exporter_x5F_info" display="none">
</g>
</svg>
