<?xml version="1.0" encoding="utf-8"?>
<!-- Generator: Adobe Illustrator 17.0.0, SVG Export Plug-In . SVG Version: 6.00 Build 0)  -->
<!DOCTYPE svg PUBLIC "-//W3C//DTD SVG 1.1//EN" "http://www.w3.org/Graphics/SVG/1.1/DTD/svg11.dtd">
<svg version="1.1" id="Layer_1" xmlns="http://www.w3.org/2000/svg" xmlns:xlink="http://www.w3.org/1999/xlink" x="0px" y="0px"
	 width="48px" height="48px" viewBox="0 0 48 48" enable-background="new 0 0 48 48" xml:space="preserve">
<g>
	<path fill="#231F20" d="M6,18c2.209,0,4-1.791,4-4s-1.791-4-4-4s-4,1.791-4,4S3.791,18,6,18z M6,11.8c1.213,0,2.2,0.987,2.2,2.2
		S7.213,16.2,6,16.2S3.8,15.213,3.8,14S4.787,11.8,6,11.8z"/>
	<path fill="#231F20" d="M24,17.958c3.312,0,6-2.687,6-6c0-3.314-2.688-6-6-6c-3.315,0-6,2.686-6,6
		C18,15.271,20.685,17.958,24,17.958z M24,7.758c2.316,0,4.2,1.884,4.2,4.2s-1.884,4.2-4.2,4.2s-4.2-1.884-4.2-4.2
		S21.684,7.758,24,7.758z"/>
	<path fill="#231F20" d="M0,27c0,2.166,0.672,3.46,2,3.863V39h8v-8.137c1.326-0.404,1.998-1.698,2-3.863v-7H0V27z M2,22h8v4.999
		C9.998,29,9.444,29,9,29H8v8H4v-8H3c-0.445,0-1,0-1-2V22z"/>
	<path fill="#231F20" d="M42,18c2.209,0,4-1.791,4-4s-1.791-4-4-4s-4,1.791-4,4S39.791,18,42,18z M42,11.8
		c1.213,0,2.2,0.987,2.2,2.2s-0.987,2.2-2.2,2.2s-2.2-0.987-2.2-2.2S40.787,11.8,42,11.8z"/>
	<path fill="#231F20" d="M36,20v7c0,2.165,0.672,3.46,2,3.863V39h8v-8.137c1.326-0.404,1.998-1.698,2-3.863v-7H36z M46,26.999
		C45.998,29,45.444,29,45,29h-1v8h-4v-8h-1c-0.445,0-1,0-1-2v-5h8V26.999z"/>
	<path fill="#231F20" d="M16,31c0,2.414,1.721,4.435,4,4.899V48h8V35.899c2.279-0.464,4-2.484,4-4.899V20H16V31z M18,22h12v9
		c0,1.654-1.346,3-3,3h-1v12h-4V34h-1c-1.654,0-3-1.346-3-3V22z"/>
</g>
<g id="nyt_x5F_exporter_x5F_info" display="none">
</g>
</svg>
