<?xml version="1.0" encoding="utf-8"?>
<!-- Generator: Adobe Illustrator 17.0.0, SVG Export Plug-In . SVG Version: 6.00 Build 0)  -->
<!DOCTYPE svg PUBLIC "-//W3C//DTD SVG 1.1//EN" "http://www.w3.org/Graphics/SVG/1.1/DTD/svg11.dtd">
<svg version="1.1" id="Layer_1" xmlns="http://www.w3.org/2000/svg" xmlns:xlink="http://www.w3.org/1999/xlink" x="0px" y="0px"
	 width="48px" height="48px" viewBox="0 0 48 48" enable-background="new 0 0 48 48" xml:space="preserve">
<g>
	<path fill="#231F20" d="M12,22h10v-2c0-1.545-1.164-3.087-2.649-3.51L15,15.246v-1.522c1.811-1.364,3-3.624,3-6.181
		C18,3.383,14.86,0,11,0S4,3.383,4,7.542c0,2.557,1.189,4.816,3,6.181v1.523l-4.353,1.243C1.163,16.914,0,18.456,0,20v2h10H12z
		 M11,2c2.247,0,4.152,1.653,4.78,3.919c-0.308,0.099-0.71,0.151-1.158,0.085c-0.459-0.068-1.295-0.305-1.742-1.136
		c-0.149-0.279-0.422-0.47-0.735-0.516c-0.31-0.047-0.628,0.058-0.852,0.282C9.828,6.098,7.636,6.21,6.295,5.684
		C6.987,3.54,8.832,2,11,2z M6.007,7.699c1.772,0.537,4.038,0.32,5.831-0.925c0.647,0.638,1.511,1.064,2.493,1.208
		c0.244,0.037,0.487,0.054,0.725,0.054c0.322,0,0.629-0.043,0.926-0.105c-0.181,2.876-2.343,5.155-4.982,5.155
		C8.291,13.086,6.083,10.684,6.007,7.699z M3.197,18.412L9,16.754v-1.987c0.634,0.204,1.305,0.318,2,0.318s1.366-0.113,2-0.318
		v1.987l5.801,1.658C19.429,18.591,20,19.348,20,20h-8h-2H2C2,19.348,2.57,18.591,3.197,18.412z"/>
	<path fill="#231F20" d="M45.351,16.49L41,15.246v-1.522c1.811-1.364,3-3.624,3-6.181C44,3.383,40.86,0,37,0s-7,3.383-7,7.542
		c0,2.557,1.189,4.816,3,6.181v1.523l-4.353,1.243C27.163,16.914,26,18.456,26,20v2h10h2h10v-2
		C48,18.455,46.836,16.913,45.351,16.49z M37,2c2.243,0,4.145,1.646,4.777,3.905c-0.307,0.105-0.716,0.162-1.173,0.096
		c-0.453-0.067-1.279-0.302-1.725-1.133c-0.149-0.279-0.422-0.47-0.735-0.516c-0.312-0.047-0.628,0.058-0.852,0.282
		c-1.464,1.464-3.656,1.576-4.997,1.05C32.987,3.54,34.832,2,37,2z M32.007,7.7c1.773,0.537,4.039,0.319,5.83-0.926
		c0.644,0.638,1.503,1.061,2.477,1.205c0.241,0.035,0.48,0.053,0.715,0.053c0.332,0,0.648-0.046,0.954-0.113
		c-0.176,2.881-2.34,5.167-4.983,5.167C34.291,13.086,32.083,10.684,32.007,7.7z M38,20h-2h-8c0-0.652,0.57-1.409,1.197-1.588
		L35,16.754v-1.987c0.634,0.204,1.305,0.318,2,0.318s1.366-0.113,2-0.318v1.987l5.801,1.658C45.429,18.591,46,19.348,46,20H38z"/>
	<path fill="#231F20" d="M32.351,42.49L28,41.246v-1.522c1.811-1.364,3-3.624,3-6.181C31,29.383,27.86,26,24,26s-7,3.383-7,7.542
		c0,2.557,1.189,4.816,3,6.181v1.523l-4.353,1.243C14.163,42.914,13,44.456,13,46v2h10h2h10v-2
		C35,44.455,33.836,42.913,32.351,42.49z M24,28c2.229,0,4.121,1.626,4.764,3.865c-0.319,0.111-0.74,0.173-1.207,0.104
		c-0.44-0.064-1.243-0.293-1.677-1.101c-0.149-0.279-0.422-0.47-0.735-0.516c-0.311-0.049-0.628,0.058-0.852,0.282
		c-1.465,1.463-3.657,1.576-4.997,1.05C19.987,29.54,21.832,28,24,28z M19.007,33.699c1.773,0.537,4.04,0.32,5.833-0.926
		c0.634,0.621,1.475,1.034,2.427,1.175c0.233,0.034,0.467,0.051,0.698,0.051c0.353,0,0.693-0.052,1.02-0.127
		c-0.155,2.904-2.328,5.214-4.985,5.214C21.291,39.086,19.083,36.684,19.007,33.699z M25,46h-2h-8c0-0.652,0.57-1.409,1.197-1.588
		L22,42.754v-1.987c0.634,0.204,1.305,0.318,2,0.318s1.366-0.113,2-0.318v1.987l5.801,1.658C32.429,44.591,33,45.348,33,46H25z"/>
	<path fill="#231F20" d="M13.707,30.707c0.391-0.391,0.391-1.023,0-1.414l-5-5c-0.391-0.391-1.023-0.391-1.414,0
		c-0.391,0.391-0.391,1.023,0,1.414l5,5C12.488,30.902,12.744,31,13,31S13.512,30.902,13.707,30.707z"/>
	<path fill="#231F20" d="M39.293,24.293l-5,5c-0.391,0.391-0.391,1.023,0,1.414C34.488,30.902,34.744,31,35,31
		s0.512-0.098,0.707-0.293l5-5c0.391-0.391,0.391-1.023,0-1.414C40.316,23.902,39.684,23.902,39.293,24.293z"/>
</g>
<g id="nyt_x5F_exporter_x5F_info" display="none">
</g>
</svg>
