<?xml version="1.0" encoding="utf-8"?>
<!-- Generator: Adobe Illustrator 17.0.0, SVG Export Plug-In . SVG Version: 6.00 Build 0)  -->
<!DOCTYPE svg PUBLIC "-//W3C//DTD SVG 1.1//EN" "http://www.w3.org/Graphics/SVG/1.1/DTD/svg11.dtd">
<svg version="1.1" id="Layer_1" xmlns="http://www.w3.org/2000/svg" xmlns:xlink="http://www.w3.org/1999/xlink" x="0px" y="0px"
	 width="48px" height="48px" viewBox="0 0 48 48" enable-background="new 0 0 48 48" xml:space="preserve">
<g>
	<path fill="#231F20" d="M34,31c0-1.544-1.164-3.087-2.649-3.51L27,26.246v-1.523c1.811-1.365,3-3.625,3-6.181
		C30,14.383,26.859,11,23,11s-7,3.383-7,7.542c0,2.556,1.189,4.816,3,6.181v1.523l-4.354,1.243C13.163,27.914,12,29.456,12,31v7h22
		V31z M23,13c2.235,0,4.132,1.634,4.77,3.882c-0.318,0.105-0.733,0.161-1.192,0.093c-0.447-0.066-1.263-0.297-1.698-1.108
		c-0.149-0.279-0.421-0.47-0.735-0.516c-0.311-0.049-0.628,0.058-0.852,0.282c-1.464,1.465-3.656,1.577-4.998,1.05
		C18.987,14.54,20.832,13,23,13z M18.007,18.698c1.774,0.537,4.041,0.32,5.833-0.926c0.637,0.624,1.486,1.04,2.448,1.182
		c0.236,0.035,0.474,0.052,0.707,0.052c0.342,0,0.671-0.049,0.989-0.118c-0.162,2.896-2.332,5.197-4.984,5.197
		C20.29,24.085,18.082,21.682,18.007,18.698z M32,36H14v-5c0-0.652,0.57-1.409,1.196-1.588L21,27.754v-1.987
		c0.634,0.204,1.305,0.318,2,0.318s1.366-0.113,2-0.318v1.987l5.802,1.658C31.429,29.591,32,30.348,32,31V36z"/>
	<path fill="#231F20" d="M43,3h-1V1c0-0.552-0.447-1-1-1H7H3C1.346,0,0,1.346,0,3v42c0,1.654,1.346,3,3,3h4h34c0.553,0,1-0.448,1-1
		v-2h1c2.757,0,5-2.243,5-5v-6V24V14V8C48,5.243,45.757,3,43,3z M6,46H3c-0.552,0-1-0.449-1-1V3c0-0.551,0.448-1,1-1h3V46z M40,46H8
		V2h32V46z M46,40c0,1.654-1.346,3-3,3h-1v-8h4V40z M46,33h-4v-8h4V33z M46,23h-4v-8h4V23z M46,13h-4V5h1c1.654,0,3,1.346,3,3V13z"
		/>
</g>
<g id="nyt_x5F_exporter_x5F_info" display="none">
</g>
</svg>
