<?xml version="1.0" encoding="utf-8"?>
<!-- Generator: Adobe Illustrator 17.0.0, SVG Export Plug-In . SVG Version: 6.00 Build 0)  -->
<!DOCTYPE svg PUBLIC "-//W3C//DTD SVG 1.1//EN" "http://www.w3.org/Graphics/SVG/1.1/DTD/svg11.dtd">
<svg version="1.1" id="Layer_1" xmlns="http://www.w3.org/2000/svg" xmlns:xlink="http://www.w3.org/1999/xlink" x="0px" y="0px"
	 width="48px" height="48px" viewBox="0 0 48 48" enable-background="new 0 0 48 48" xml:space="preserve">
<g>
	<path fill="#231F20" d="M8,5c0-1.654,1.346-3,3-3h32c0.553,0,1-0.448,1-1s-0.447-1-1-1H11C8.243,0,6,2.243,6,5v9H5
		c-0.553,0-1,0.448-1,1s0.447,1,1,1h1v4H5c-0.553,0-1,0.448-1,1s0.447,1,1,1h1v4H5c-0.553,0-1,0.448-1,1s0.447,1,1,1h1v4H5
		c-0.553,0-1,0.448-1,1s0.447,1,1,1h1v4H5c-0.553,0-1,0.448-1,1s0.447,1,1,1h1v3c0,2.757,2.243,5,5,5h33V8H11C9.346,8,8,6.654,8,5z
		 M42,46H11c-1.654,0-3-1.346-3-3v-3h1c0.553,0,1-0.448,1-1s-0.447-1-1-1H8v-4h1c0.553,0,1-0.448,1-1s-0.447-1-1-1H8v-4h1
		c0.553,0,1-0.448,1-1s-0.447-1-1-1H8v-4h1c0.553,0,1-0.448,1-1s-0.447-1-1-1H8v-4h1c0.553,0,1-0.448,1-1s-0.447-1-1-1H8V8.998
		C8.836,9.627,9.875,10,11,10h31V46z"/>
	<path fill="#231F20" d="M11,4c-0.553,0-1,0.448-1,1s0.447,1,1,1h30c0.553,0,1-0.448,1-1s-0.447-1-1-1H11z"/>
	<path fill="#231F20" d="M37,36c0-1.544-1.164-3.087-2.649-3.51L30,31.246v-1.523c1.811-1.365,3-3.625,3-6.181
		C33,19.383,29.859,16,26,16s-7,3.383-7,7.542c0,2.556,1.189,4.816,3,6.181v1.523l-4.354,1.243C16.163,32.914,15,34.456,15,36v4h22
		V36z M26,18c2.253,0,4.161,1.661,4.784,3.936c-0.302,0.099-0.7,0.153-1.143,0.087c-0.463-0.069-1.307-0.309-1.762-1.155
		c-0.149-0.279-0.421-0.47-0.735-0.516c-0.311-0.049-0.628,0.058-0.852,0.282c-1.464,1.465-3.657,1.577-4.997,1.05
		C21.986,19.541,23.831,18,26,18z M21.007,23.7c1.772,0.536,4.038,0.319,5.828-0.925c0.654,0.649,1.526,1.081,2.515,1.226
		c0.241,0.036,0.48,0.053,0.715,0.053c0.318,0,0.622-0.042,0.916-0.104c-0.19,2.866-2.349,5.135-4.981,5.135
		C23.291,29.085,21.084,26.684,21.007,23.7z M35,38H17v-2c0-0.652,0.57-1.409,1.196-1.588L24,32.754v-1.987
		c0.634,0.204,1.305,0.318,2,0.318s1.366-0.113,2-0.318v1.987l5.802,1.658C34.429,34.591,35,35.348,35,36V38z"/>
</g>
<g id="nyt_x5F_exporter_x5F_info" display="none">
</g>
</svg>
