<?xml version="1.0" encoding="utf-8"?>
<!-- Generator: Adobe Illustrator 17.0.0, SVG Export Plug-In . SVG Version: 6.00 Build 0)  -->
<!DOCTYPE svg PUBLIC "-//W3C//DTD SVG 1.1//EN" "http://www.w3.org/Graphics/SVG/1.1/DTD/svg11.dtd">
<svg version="1.1" id="Layer_1" xmlns="http://www.w3.org/2000/svg" xmlns:xlink="http://www.w3.org/1999/xlink" x="0px" y="0px"
	 width="48px" height="48px" viewBox="0 0 48 48" enable-background="new 0 0 48 48" xml:space="preserve">
<g>
	<path fill="#231F20" d="M26.812,31.182c-0.914-0.327-1.857-0.664-2.811-1.018v-3.729c0.971-0.65,2.761-2.316,2.978-5.856
		c0.733-0.459,1.195-1.453,1.195-2.722c0-1.115-0.357-2.019-0.942-2.533c0.486-1.27,1.289-3.497,0.739-5.708
		C27.306,6.947,23.531,6,20.5,6c-2.686,0-5.954,0.743-7.127,2.768c-1.403-0.086-2.178,0.52-2.554,1.021
		c-1.038,1.381-0.555,3.547,0.004,5.491c-0.233,0.189-0.434,0.438-0.591,0.74c-0.263,0.503-0.407,1.156-0.407,1.838
		c0,1.269,0.462,2.263,1.196,2.722c0.217,3.539,2.007,5.205,2.979,5.855v3.73c-0.848,0.315-1.714,0.625-2.575,0.934
		c-5.155,1.846-9.606,3.44-10.427,5.919C0.012,39.994,0,46.578,0,46.857c0,0.552,0.447,1,1,1h36c0.553,0,1-0.447,1-1
		c0-0.278-0.012-6.863-0.998-9.839C36.178,34.536,32.045,33.056,26.812,31.182z M2.014,45.857c0.041-1.934,0.208-6.175,0.882-8.21
		c0.514-1.554,5.332-3.279,9.202-4.666c1.094-0.392,2.195-0.786,3.257-1.189C15.743,31.644,16,31.272,16,30.857v-5
		c0-0.395-0.245-0.758-0.606-0.919C15.296,24.894,13,23.829,13,19.857c0-0.553-0.364-0.974-0.916-0.974
		c-0.07-0.055-0.259-0.402-0.259-1.026s0.19-0.971,0.175-1c0.553,0,1-0.448,1-1c0-0.25-0.075-0.509-0.225-1.027
		c-0.246-0.851-0.901-3.113-0.356-3.84c0.043-0.057,0.172-0.23,0.694-0.23c0.2,0,0.432,0.026,0.69,0.078
		c0.523,0.105,1.038-0.22,1.168-0.739C15.268,8.902,17.644,8,20.5,8c2.854,0,5.231,0.902,5.53,2.098
		c0.419,1.685-0.322,3.614-0.72,4.651C25.11,15.27,25,15.556,25,15.857c0,0.552,0.362,0.973,0.915,0.973
		c0.07,0.056,0.259,0.403,0.259,1.027s-0.19,0.971-0.174,1c-0.553,0-1,0.448-1,1c0,3.973-2.296,5.038-2.382,5.076
		C22.244,25.087,22,25.452,22,25.857v5c0,0.416,0.258,0.79,0.648,0.936c1.184,0.447,2.358,0.867,3.49,1.272
		c4.154,1.487,8.448,3.025,8.965,4.583c0.675,2.034,0.843,6.274,0.884,8.209H2.014z"/>
	<path fill="#231F20" d="M47.001,37.018C46.226,34.68,42.444,32.39,34,29.166v-1.732c0.971-0.65,2.761-2.316,2.978-5.856
		c0.733-0.459,1.195-1.453,1.195-2.722c0-1.128-0.364-2.038-0.961-2.549c0.482-1.369,1.315-3.82,0.758-6.06
		c-0.358-1.438-1.918-2.985-3.711-3.679c-1.683-0.651-3.393-0.49-4.814,0.456c-0.46,0.306-0.584,0.928-0.277,1.387
		c0.305,0.459,0.925,0.583,1.387,0.277c1.105-0.738,2.231-0.545,2.983-0.255c1.387,0.537,2.338,1.679,2.491,2.297
		c0.425,1.709-0.329,3.853-0.734,5.005C35.099,16.293,35,16.572,35,16.857c0,0.552,0.362,0.973,0.915,0.973
		c0.07,0.056,0.259,0.403,0.259,1.027s-0.19,0.971-0.174,1c-0.553,0-1,0.448-1,1c0,3.973-2.296,5.038-2.382,5.076
		C32.244,26.087,32,26.452,32,26.857v3c0,0.416,0.258,0.79,0.647,0.936c2.878,1.085,11.637,4.386,12.455,6.855
		c0.675,2.034,0.843,6.274,0.884,8.209H43c-0.553,0-1,0.448-1,1s0.447,1,1,1h4c0.553,0,1-0.447,1-1
		C48,46.579,47.988,39.994,47.001,37.018z"/>
</g>
<g id="nyt_x5F_exporter_x5F_info" display="none">
</g>
</svg>
