<?xml version="1.0" encoding="utf-8"?>
<!-- Generator: Adobe Illustrator 17.0.0, SVG Export Plug-In . SVG Version: 6.00 Build 0)  -->
<!DOCTYPE svg PUBLIC "-//W3C//DTD SVG 1.1//EN" "http://www.w3.org/Graphics/SVG/1.1/DTD/svg11.dtd">
<svg version="1.1" id="Layer_1" xmlns="http://www.w3.org/2000/svg" xmlns:xlink="http://www.w3.org/1999/xlink" x="0px" y="0px"
	 width="48px" height="48px" viewBox="0 0 48 48" enable-background="new 0 0 48 48" xml:space="preserve">
<g>
	<path fill="#231F20" d="M23,16c4.411,0,8-3.589,8-8s-3.589-8-8-8s-8,3.589-8,8S18.589,16,23,16z M23,2c3.309,0,6,2.691,6,6
		s-2.691,6-6,6s-6-2.691-6-6S19.691,2,23,2z"/>
	<path fill="#231F20" d="M23,18c-6.729,0-12,8.785-12,20v1h7v9h10v-9h7v-1C35,26.785,29.729,18,23,18z M26,37v9h-6v-9h-6.985
		c0.278-9.611,4.564-17,9.985-17s9.706,7.389,9.985,17H26z"/>
</g>
<g id="nyt_x5F_exporter_x5F_info" display="none">
</g>
</svg>
