<?xml version="1.0" encoding="utf-8"?>
<!-- Generator: Adobe Illustrator 17.0.0, SVG Export Plug-In . SVG Version: 6.00 Build 0)  -->
<!DOCTYPE svg PUBLIC "-//W3C//DTD SVG 1.1//EN" "http://www.w3.org/Graphics/SVG/1.1/DTD/svg11.dtd">
<svg version="1.1" id="Layer_1" xmlns="http://www.w3.org/2000/svg" xmlns:xlink="http://www.w3.org/1999/xlink" x="0px" y="0px"
	 width="48px" height="48px" viewBox="0 0 48 48" enable-background="new 0 0 48 48" xml:space="preserve">
<g>
	<path fill="#231F20" d="M23.663,14.766c-0.425-0.352-1.054-0.294-1.408,0.13c-0.353,0.425-0.295,1.056,0.13,1.408
		C24.683,18.212,26,21.017,26,24c0,5.514-4.486,10-10,10S6,29.514,6,24c0-5.208,3.905-9.489,9.083-9.959
		c0.55-0.05,0.956-0.536,0.906-1.086s-0.532-0.952-1.086-0.906C8.687,12.613,4,17.751,4,24c0,5.934,4.334,10.863,10,11.819V42h-3
		c-0.552,0-1,0.448-1,1s0.448,1,1,1h3v3c0,0.552,0.448,1,1,1s1-0.448,1-1v-3h3c0.552,0,1-0.448,1-1s-0.448-1-1-1h-3v-6
		c6.617,0,12-5.383,12-12C28,20.42,26.419,17.054,23.663,14.766z"/>
	<path fill="#231F20" d="M47.923,0.618c-0.101-0.244-0.296-0.439-0.54-0.54C47.26,0.026,47.129,0,46.998,0H39c-0.552,0-1,0.448-1,1
		s0.448,1,1,1h5.586l-8.845,8.845C33.649,9.074,30.949,8,28,8c-6.617,0-12,5.383-12,12c0,3.595,1.591,6.97,4.367,9.26
		c0.426,0.352,1.057,0.29,1.408-0.135c0.351-0.426,0.291-1.056-0.135-1.408C19.327,25.808,18,22.996,18,20c0-5.514,4.486-10,10-10
		s10,4.486,10,10c0,5.208-3.905,9.488-9.083,9.958c-0.55,0.05-0.956,0.536-0.906,1.086c0.047,0.52,0.483,0.91,0.995,0.91
		c0.03,0,0.06-0.001,0.091-0.004C35.313,31.386,40,26.249,40,20c0-2.949-1.074-5.649-2.845-7.741L46,3.414V9c0,0.552,0.448,1,1,1
		s1-0.448,1-1V1.002C48,0.871,47.974,0.74,47.923,0.618z"/>
</g>
<g id="nyt_x5F_exporter_x5F_info" display="none">
</g>
</svg>
