<?xml version="1.0" encoding="utf-8"?>
<!-- Generator: Adobe Illustrator 17.0.0, SVG Export Plug-In . SVG Version: 6.00 Build 0)  -->
<!DOCTYPE svg PUBLIC "-//W3C//DTD SVG 1.1//EN" "http://www.w3.org/Graphics/SVG/1.1/DTD/svg11.dtd">
<svg version="1.1" id="Layer_1" xmlns="http://www.w3.org/2000/svg" xmlns:xlink="http://www.w3.org/1999/xlink" x="0px" y="0px"
	 width="48px" height="48px" viewBox="0 0 48 48" enable-background="new 0 0 48 48" xml:space="preserve">
<path fill="#231F20" d="M40,15c0-8.271-6.729-15-15-15S10,6.729,10,15c0,7.933,6.195,14.431,14,14.949V40h-5c-0.552,0-1,0.448-1,1
	s0.448,1,1,1h5v5c0,0.552,0.448,1,1,1s1-0.448,1-1v-5h5c0.552,0,1-0.448,1-1s-0.448-1-1-1h-5V29.949C33.805,29.431,40,22.933,40,15z
	 M25,28c-7.169,0-13-5.831-13-13c0-7.168,5.831-13,13-13c7.168,0,13,5.832,13,13C38,22.169,32.168,28,25,28z"/>
<g id="nyt_x5F_exporter_x5F_info" display="none">
</g>
</svg>
