<?xml version="1.0" encoding="utf-8"?>
<!-- Generator: Adobe Illustrator 17.0.0, SVG Export Plug-In . SVG Version: 6.00 Build 0)  -->
<!DOCTYPE svg PUBLIC "-//W3C//DTD SVG 1.1//EN" "http://www.w3.org/Graphics/SVG/1.1/DTD/svg11.dtd">
<svg version="1.1" id="Layer_1" xmlns="http://www.w3.org/2000/svg" xmlns:xlink="http://www.w3.org/1999/xlink" x="0px" y="0px"
	 width="48px" height="48px" viewBox="0 0 48 48" enable-background="new 0 0 48 48" xml:space="preserve">
<path fill="#231F20" d="M47.923,0.618c-0.101-0.244-0.296-0.439-0.54-0.54C47.26,0.026,47.129,0,46.999,0H33c-0.552,0-1,0.448-1,1
	s0.448,1,1,1h11.586L28.313,18.273c-0.013,0.013-0.018,0.032-0.03,0.046C25.277,15.642,21.332,14,17,14C7.626,14,0,21.626,0,31
	s7.626,17,17,17s17-7.626,17-17c0-4.332-1.642-8.277-4.319-11.283c0.014-0.013,0.032-0.017,0.046-0.03L46,3.414V15
	c0,0.552,0.448,1,1,1s1-0.448,1-1V1.002C48,0.871,47.974,0.74,47.923,0.618z M32,31c0,8.271-6.729,15-15,15S2,39.271,2,31
	s6.729-15,15-15S32,22.729,32,31z"/>
<g id="nyt_x5F_exporter_x5F_info" display="none">
</g>
</svg>
