<?xml version="1.0" encoding="utf-8"?>
<!-- Generator: Adobe Illustrator 17.0.0, SVG Export Plug-In . SVG Version: 6.00 Build 0)  -->
<!DOCTYPE svg PUBLIC "-//W3C//DTD SVG 1.1//EN" "http://www.w3.org/Graphics/SVG/1.1/DTD/svg11.dtd">
<svg version="1.1" id="Layer_1" xmlns="http://www.w3.org/2000/svg" xmlns:xlink="http://www.w3.org/1999/xlink" x="0px" y="0px"
	 width="48px" height="48px" viewBox="0 0 48 48" enable-background="new 0 0 48 48" xml:space="preserve">
<g>
	<path fill="#231F20" d="M47,6H1C0.448,6,0,6.448,0,7v32c0,0.552,0.448,1,1,1h8c0.552,0,1-0.448,1-1v-1.5c0-1.378,1.122-2.5,2.5-2.5
		s2.5,1.122,2.5,2.5V39c0,0.552,0.448,1,1,1h16c0.552,0,1-0.448,1-1v-1.5c0-1.378,1.122-2.5,2.5-2.5s2.5,1.122,2.5,2.5V39
		c0,0.552,0.448,1,1,1h8c0.552,0,1-0.448,1-1V7C48,6.448,47.552,6,47,6z M46,38h-6v-0.5c0-2.481-2.019-4.5-4.5-4.5
		S31,35.019,31,37.5V38H17v-0.5c0-2.481-2.019-4.5-4.5-4.5S8,35.019,8,37.5V38H2V8h44V38z"/>
	<path fill="#231F20" d="M22,27c0-2.481-1.245-5.276-4.498-6.44C18.425,19.652,19,18.393,19,17c0-2.757-2.243-5-5-5s-5,2.243-5,5
		c0,1.393,0.575,2.652,1.498,3.56C7.245,21.724,6,24.519,6,27v1h16V27z M14,14c1.654,0,3,1.346,3,3s-1.346,3-3,3s-3-1.346-3-3
		S12.346,14,14,14z M8.095,26c0.298-1.581,1.479-4,5.905-4c4.427,0,5.607,2.419,5.905,4H8.095z"/>
	<rect x="26" y="26" fill="#231F20" width="16" height="2"/>
	<rect x="26" y="22" fill="#231F20" width="16" height="2"/>
	<rect x="26" y="18" fill="#231F20" width="16" height="2"/>
	<rect x="26" y="14" fill="#231F20" width="8" height="2"/>
</g>
<g id="nyt_x5F_exporter_x5F_info" display="none">
</g>
</svg>
