<?xml version="1.0" encoding="utf-8"?>
<!-- Generator: Adobe Illustrator 17.0.0, SVG Export Plug-In . SVG Version: 6.00 Build 0)  -->
<!DOCTYPE svg PUBLIC "-//W3C//DTD SVG 1.1//EN" "http://www.w3.org/Graphics/SVG/1.1/DTD/svg11.dtd">
<svg version="1.1" id="Layer_1" xmlns="http://www.w3.org/2000/svg" xmlns:xlink="http://www.w3.org/1999/xlink" x="0px" y="0px"
	 width="48px" height="48px" viewBox="0 0 48 48" enable-background="new 0 0 48 48" xml:space="preserve">
<g>
	<path fill="#231F20" d="M47,18H9c-0.553,0-1,0.448-1,1v28c0,0.552,0.447,1,1,1h8c0.553,0,1-0.448,1-1v-1.5
		c0-1.378,1.121-2.5,2.5-2.5s2.5,1.122,2.5,2.5V47c0,0.552,0.447,1,1,1h8c0.553,0,1-0.448,1-1v-1.5c0-1.378,1.121-2.5,2.5-2.5
		s2.5,1.122,2.5,2.5V47c0,0.552,0.447,1,1,1h8c0.553,0,1-0.448,1-1V19C48,18.448,47.553,18,47,18z M46,46h-6v-0.5
		c0-2.481-2.019-4.5-4.5-4.5S31,43.019,31,45.5V46h-6v-0.5c0-2.481-2.019-4.5-4.5-4.5S16,43.019,16,45.5V46h-6V20h36V46z"/>
	<path fill="#231F20" d="M2,12h36v3h2v-4c0-0.552-0.447-1-1-1H1c-0.553,0-1,0.448-1,1v28c0,0.552,0.447,1,1,1h5v-2H2V12z"/>
	<path fill="#231F20" d="M28,37.143c0-2.4-1.324-5.133-4.864-5.916c1.117-0.71,1.864-1.951,1.864-3.37c0-2.205-1.794-4-4-4
		s-4,1.795-4,4c0,1.419,0.747,2.66,1.864,3.37C15.324,32.01,14,34.743,14,37.143v1h14V37.143z M21,25.857c1.102,0,2,0.897,2,2
		c0,1.103-0.898,2-2,2c-1.103,0-2-0.897-2-2C19,26.754,19.897,25.857,21,25.857z M16.115,36.143C16.417,34.836,17.469,33,21,33
		s4.583,1.836,4.885,3.143H16.115z"/>
	<rect x="32" y="34" fill="#231F20" width="10" height="2"/>
	<rect x="32" y="30" fill="#231F20" width="10" height="2"/>
	<rect x="32" y="26" fill="#231F20" width="5" height="2"/>
</g>
<g id="nyt_x5F_exporter_x5F_info" display="none">
</g>
</svg>
