<?xml version="1.0" encoding="utf-8"?>
<!-- Generator: Adobe Illustrator 17.0.0, SVG Export Plug-In . SVG Version: 6.00 Build 0)  -->
<!DOCTYPE svg PUBLIC "-//W3C//DTD SVG 1.1//EN" "http://www.w3.org/Graphics/SVG/1.1/DTD/svg11.dtd">
<svg version="1.1" id="Layer_1" xmlns="http://www.w3.org/2000/svg" xmlns:xlink="http://www.w3.org/1999/xlink" x="0px" y="0px"
	 width="48px" height="48px" viewBox="0 0 48 48" enable-background="new 0 0 48 48" xml:space="preserve">
<g>
	<path fill="#231F20" d="M47,6H1C0.447,6,0,6.448,0,7v34c0,0.552,0.447,1,1,1h8c0.553,0,1-0.448,1-1v-3c0-1.378,1.121-2.5,2.5-2.5
		S15,36.622,15,38v3c0,0.552,0.447,1,1,1h16c0.553,0,1-0.448,1-1v-3c0-1.378,1.121-2.5,2.5-2.5S38,36.622,38,38v3
		c0,0.552,0.447,1,1,1h8c0.553,0,1-0.448,1-1V7C48,6.448,47.553,6,47,6z M46,40h-6v-2c0-2.481-2.019-4.5-4.5-4.5S31,35.519,31,38v2
		H17v-2c0-2.481-2.019-4.5-4.5-4.5S8,35.519,8,38v2H2V8h44V40z"/>
	<rect x="26" y="26" fill="#231F20" width="16" height="2"/>
	<rect x="26" y="22" fill="#231F20" width="16" height="2"/>
	<rect x="26" y="18" fill="#231F20" width="16" height="2"/>
	<rect x="26" y="14" fill="#231F20" width="8" height="2"/>
	<path fill="#231F20" d="M6,30h16c0.553,0,1-0.448,1-1v-4c0-0.197-0.059-0.391-0.168-0.555c-0.087-0.13-2.013-2.953-5.832-3.389
		v-0.53c0.752-0.597,2-1.972,2-4.526c0-1.991,0-5-5-5s-5,3.009-5,5c0,2.554,1.248,3.929,2,4.526v0.53
		c-3.819,0.436-5.745,3.259-5.832,3.389C5.059,24.609,5,24.803,5,25v4C5,29.552,5.447,30,6,30z M7,25.336
		C7.51,24.717,9.178,23,12,23c0.553,0,1-0.448,1-1v-2c0-0.368-0.216-0.713-0.54-0.888C12.4,19.08,11,18.298,11,16c0-1.998,0-3,3-3
		s3,1.002,3,3c0,2.298-1.4,3.08-1.447,3.106C15.214,19.275,15,19.621,15,20v2c0,0.552,0.447,1,1,1c2.829,0,4.489,1.712,5,2.335V28H7
		V25.336z"/>
</g>
<g id="nyt_x5F_exporter_x5F_info" display="none">
</g>
</svg>
