<?xml version="1.0" encoding="utf-8"?>
<!-- Generator: Adobe Illustrator 17.0.0, SVG Export Plug-In . SVG Version: 6.00 Build 0)  -->
<!DOCTYPE svg PUBLIC "-//W3C//DTD SVG 1.1//EN" "http://www.w3.org/Graphics/SVG/1.1/DTD/svg11.dtd">
<svg version="1.1" id="Layer_1" xmlns="http://www.w3.org/2000/svg" xmlns:xlink="http://www.w3.org/1999/xlink" x="0px" y="0px"
	 width="48px" height="48px" viewBox="0 0 48 48" enable-background="new 0 0 48 48" xml:space="preserve">
<g>
	<path fill="#231F20" d="M47,14H33c-0.553,0-1,0.448-1,1s0.447,1,1,1h13v6H2v-6h13c0.553,0,1-0.448,1-1s-0.447-1-1-1H1
		c-0.553,0-1,0.448-1,1v32c0,0.552,0.447,1,1,1h46c0.553,0,1-0.448,1-1V15C48,14.448,47.553,14,47,14z M46,46H2V24h44V46z"/>
	<path fill="#231F20" d="M25,32h8c0.553,0,1-0.448,1-1s-0.447-1-1-1h-8c-0.553,0-1,0.448-1,1S24.447,32,25,32z"/>
	<path fill="#231F20" d="M25,36h12c0.553,0,1-0.448,1-1s-0.447-1-1-1H25c-0.553,0-1,0.448-1,1S24.447,36,25,36z"/>
	<path fill="#231F20" d="M25,40h10c0.553,0,1-0.448,1-1s-0.447-1-1-1H25c-0.553,0-1,0.448-1,1S24.447,40,25,40z"/>
	<path fill="#231F20" d="M19,20h10c0.553,0,1-0.448,1-1v-9c0-3.309-2.691-6-6-6s-6,2.691-6,6v9C18,19.552,18.447,20,19,20z M20,10
		c0-2.206,1.794-4,4-4s4,1.794,4,4v8h-8V10z"/>
	<path fill="#231F20" d="M9,42h10c0.006,0.001,0.014,0.001,0.019,0c0.553,0,1-0.448,1-1c0-0.073-0.007-0.145-0.022-0.213
		c-0.066-2.578-1.334-4.81-3.17-5.959C17.551,34.104,18,33.103,18,32c0-2.206-1.794-4-4-4s-4,1.794-4,4
		c0,1.104,0.449,2.104,1.174,2.828C9.287,36.009,8,38.332,8,41C8,41.552,8.447,42,9,42z M14,30c1.102,0,2,0.897,2,2s-0.898,2-2,2
		c-1.103,0-2-0.897-2-2S12.897,30,14,30z M14,36c1.932,0,3.548,1.721,3.92,4h-7.84C10.452,37.721,12.068,36,14,36z"/>
</g>
<g id="nyt_x5F_exporter_x5F_info" display="none">
</g>
</svg>
