<?xml version="1.0" encoding="utf-8"?>
<!-- Generator: Adobe Illustrator 17.0.0, SVG Export Plug-In . SVG Version: 6.00 Build 0)  -->
<!DOCTYPE svg PUBLIC "-//W3C//DTD SVG 1.1//EN" "http://www.w3.org/Graphics/SVG/1.1/DTD/svg11.dtd">
<svg version="1.1" id="Layer_1" xmlns="http://www.w3.org/2000/svg" xmlns:xlink="http://www.w3.org/1999/xlink" x="0px" y="0px"
	 width="48px" height="48px" viewBox="0 0 48 48" enable-background="new 0 0 48 48" xml:space="preserve">
<g>
	<path fill="#231F20" d="M20,33.723v1.544l-5.301,1.675l0.602,1.907L22,36.733v-1.966c0.634,0.204,1.305,0.318,2,0.318
		s1.366-0.113,2-0.318v1.966l6.699,2.116l0.602-1.907L28,35.267v-1.544c1.811-1.365,3-3.625,3-6.181C31,23.383,27.86,20,24,20
		s-7,3.383-7,7.542C17,30.099,18.189,32.358,20,33.723z M24,22c2.229,0,4.12,1.625,4.764,3.862
		c-0.318,0.113-0.742,0.175-1.211,0.107c-0.439-0.065-1.24-0.294-1.674-1.102c-0.149-0.279-0.422-0.47-0.735-0.516
		c-0.31-0.047-0.628,0.058-0.852,0.282c-1.465,1.465-3.656,1.577-4.997,1.051C19.987,23.541,21.832,22,24,22z M24.839,26.773
		c0.633,0.621,1.473,1.035,2.424,1.175c0.233,0.034,0.466,0.051,0.696,0.051c0.356,0,0.697-0.053,1.026-0.129
		c-0.154,2.904-2.328,5.215-4.985,5.215c-2.709,0-4.917-2.402-4.993-5.386C20.78,28.235,23.046,28.018,24.839,26.773z"/>
	<path fill="#231F20" d="M41,8H30V6c0-3.309-2.691-6-6-6s-6,2.691-6,6v2H7C6.448,8,6,8.448,6,9v38c0,0.552,0.448,1,1,1h34
		c0.552,0,1-0.448,1-1V9C42,8.448,41.552,8,41,8z M20,6c0-2.206,1.794-4,4-4s4,1.794,4,4v9h-8V6z M19,17h10c0.552,0,1-0.448,1-1v-2
		h6v28H12V14h6v2C18,16.552,18.448,17,19,17z M40,46H8V10h10v2h-7c-0.552,0-1,0.448-1,1v30c0,0.552,0.448,1,1,1h26
		c0.552,0,1-0.448,1-1V13c0-0.552-0.448-1-1-1h-7v-2h10V46z"/>
	<circle fill="#231F20" cx="24" cy="6" r="2"/>
</g>
<g id="nyt_x5F_exporter_x5F_info" display="none">
</g>
</svg>
