<?xml version="1.0" encoding="utf-8"?>
<!-- Generator: Adobe Illustrator 17.0.0, SVG Export Plug-In . SVG Version: 6.00 Build 0)  -->
<!DOCTYPE svg PUBLIC "-//W3C//DTD SVG 1.1//EN" "http://www.w3.org/Graphics/SVG/1.1/DTD/svg11.dtd">
<svg version="1.1" id="Layer_1" xmlns="http://www.w3.org/2000/svg" xmlns:xlink="http://www.w3.org/1999/xlink" x="0px" y="0px"
	 width="48px" height="48px" viewBox="0 0 48 48" enable-background="new 0 0 48 48" xml:space="preserve">
<g>
	<path fill="#231F20" d="M41,8H30V6c0-3.309-2.691-6-6-6s-6,2.691-6,6v2H7C6.448,8,6,8.448,6,9v38c0,0.552,0.448,1,1,1h34
		c0.552,0,1-0.448,1-1V9C42,8.448,41.552,8,41,8z M20,6c0-2.206,1.794-4,4-4s4,1.794,4,4v8h-8V6z M40,46H8v-6h32V46z M24.837,24.775
		c0.652,0.649,1.525,1.081,2.514,1.226c0.24,0.036,0.479,0.053,0.714,0.053c0.318,0,0.622-0.042,0.916-0.104
		c-0.19,2.867-2.349,5.135-4.981,5.135c-2.709,0-4.917-2.402-4.993-5.386C20.779,26.237,23.045,26.02,24.837,24.775z M19.295,23.684
		C19.987,21.54,21.832,20,24,20c2.253,0,4.161,1.661,4.784,3.935c-0.302,0.099-0.699,0.152-1.143,0.087
		c-0.462-0.069-1.306-0.309-1.761-1.155c-0.149-0.279-0.422-0.47-0.735-0.516c-0.31-0.049-0.628,0.058-0.852,0.282
		C22.828,24.097,20.636,24.21,19.295,23.684z M22,34.787v-2.02c0.634,0.204,1.305,0.318,2,0.318s1.366-0.113,2-0.318v2.02
		l6.725,1.626c0.575,0.164,1.191,0.678,1.181,1.444L33.908,38H14.091l0.003-0.158c0-0.612,0.519-1.24,1.142-1.419L22,34.787z M40,38
		h-4.092l-0.002-0.144c0.021-1.533-1.061-2.917-2.671-3.377L28,33.213v-1.49c1.811-1.365,3-3.625,3-6.181C31,21.383,27.86,18,24,18
		s-7,3.383-7,7.542c0,2.557,1.189,4.816,3,6.181v1.49l-5.274,1.277c-1.525,0.436-2.632,1.845-2.632,3.336L12.091,38H8V10h10v5
		c0,0.552,0.448,1,1,1h10c0.552,0,1-0.448,1-1v-5h10V38z"/>
	<circle fill="#231F20" cx="24" cy="6" r="2"/>
	<rect x="28" y="42" fill="#231F20" width="8" height="2"/>
</g>
<g id="nyt_x5F_exporter_x5F_info" display="none">
</g>
</svg>
