<?xml version="1.0" encoding="utf-8"?>
<!-- Generator: Adobe Illustrator 17.0.0, SVG Export Plug-In . SVG Version: 6.00 Build 0)  -->
<!DOCTYPE svg PUBLIC "-//W3C//DTD SVG 1.1//EN" "http://www.w3.org/Graphics/SVG/1.1/DTD/svg11.dtd">
<svg version="1.1" id="Layer_1" xmlns="http://www.w3.org/2000/svg" xmlns:xlink="http://www.w3.org/1999/xlink" x="0px" y="0px"
	 width="48px" height="48px" viewBox="0 0 48 48" enable-background="new 0 0 48 48" xml:space="preserve">
<g>
	<path fill="#231F20" d="M23,16c4.411,0,8-3.589,8-8s-3.589-8-8-8s-8,3.589-8,8S18.589,16,23,16z M23,2c3.309,0,6,2.691,6,6
		s-2.691,6-6,6s-6-2.691-6-6S19.691,2,23,2z"/>
	<path fill="#231F20" d="M11,18v1c0,9.655,4.166,13.846,7,15.578V48h10V34.577c2.834-1.733,7-5.925,7-15.577v-1H11z M26.523,33.121
		L26,33.405V46h-6V33.404l-0.523-0.283c-3.971-2.152-6.245-6.79-6.46-13.121h19.966C32.768,26.329,30.493,30.968,26.523,33.121z"/>
</g>
<g id="nyt_x5F_exporter_x5F_info" display="none">
</g>
</svg>
