<?xml version="1.0" encoding="utf-8"?>
<!-- Generator: Adobe Illustrator 17.0.0, SVG Export Plug-In . SVG Version: 6.00 Build 0)  -->
<!DOCTYPE svg PUBLIC "-//W3C//DTD SVG 1.1//EN" "http://www.w3.org/Graphics/SVG/1.1/DTD/svg11.dtd">
<svg version="1.1" id="Layer_1" xmlns="http://www.w3.org/2000/svg" xmlns:xlink="http://www.w3.org/1999/xlink" x="0px" y="0px"
	 width="48px" height="48px" viewBox="0 0 48 48" enable-background="new 0 0 48 48" xml:space="preserve">
<g>
	<path fill="#231F20" d="M33.471,31.324c-0.856-0.358-1.733-0.739-2.606-1.113c1.101-0.978,2.066-2.112,2.802-3.399
		c0.973,1.519,2.689,2.701,4.781,3.13c2.763,0.567,6.639-0.286,8.471-4.561c0.133-0.309,0.1-0.664-0.084-0.944
		c-0.186-0.281-0.499-0.45-0.835-0.45c-2.7,0-3.716-4.39-4.791-9.037c-1.213-5.243-2.587-11.185-6.933-13.23
		C31.601,0.461,28.236,0.839,24,2.873c-4.238-2.034-7.603-2.41-10.276-1.153c-4.346,2.046-5.72,7.988-6.933,13.23
		C5.716,19.597,4.7,23.987,2,23.987c-0.336,0-0.649,0.169-0.835,0.45c-0.185,0.28-0.217,0.635-0.084,0.944
		c1.507,3.516,4.4,4.717,6.92,4.717c0.545,0,1.071-0.055,1.565-0.157c2.087-0.429,3.802-1.603,4.778-3.115
		c0.734,1.281,1.695,2.41,2.791,3.383c-0.873,0.375-1.751,0.756-2.607,1.114C7.057,34.45,0,37.403,0,43.987V48h48v-4.013
		C48,37.403,40.942,34.45,33.471,31.324z M9.163,27.982c-0.922,0.189-3.809,0.515-5.634-2.247c3.074-1.095,4.116-5.601,5.211-10.334
		c1.11-4.799,2.369-10.239,5.837-11.871c2.171-1.023,5.109-0.581,8.976,1.352c0.282,0.141,0.614,0.141,0.895,0
		c3.864-1.933,6.8-2.376,8.976-1.352c3.468,1.632,4.727,7.072,5.837,11.871c1.095,4.733,2.137,9.239,5.211,10.334
		c-1.822,2.76-4.703,2.438-5.621,2.248c-2.006-0.411-4.032-1.907-4.049-3.971c0.012-0.048,0.029-0.094,0.041-0.143
		c1.435-0.423,2.408-1.925,2.408-3.881c0-1.971-0.988-3.482-2.441-3.891l-0.839-3.352c-0.112-0.445-0.511-0.757-0.97-0.757
		c-5.968,0-6.973-1.681-7.638-2.793c-0.197-0.331-0.385-0.643-0.655-0.914c-0.375-0.375-1.039-0.375-1.414,0
		c-0.27,0.271-0.458,0.583-0.655,0.914c-0.665,1.112-1.67,2.793-7.638,2.793c-0.459,0-0.859,0.312-0.97,0.757l-0.838,3.35
		c-0.688,0.189-1.279,0.626-1.712,1.275c-0.47,0.706-0.73,1.636-0.73,2.617c0,1.956,0.972,3.459,2.408,3.881
		c0.015,0.065,0.038,0.125,0.054,0.19C13.166,26.096,11.156,27.573,9.163,27.982z M14.986,22.823
		c-0.08-0.482-0.497-0.836-0.986-0.836c-0.988,0-1.25-1.308-1.25-2s0.262-2,1.25-2c0.459,0,0.859-0.312,0.97-0.757l0.813-3.253
		c5.286-0.134,7.138-1.636,8.217-3.201c1.079,1.566,2.931,3.068,8.217,3.202l0.813,3.252c0.112,0.445,0.511,0.757,0.97,0.757
		c0.988,0,1.25,1.308,1.25,2s-0.262,2-1.25,2c-0.489,0-0.906,0.354-0.986,0.836c-0.962,5.773-7.12,8.421-9.014,9.106
		C22.105,31.244,15.948,28.596,14.986,22.823z M2,46v-2.013c0-3.937,3.462-6.372,8.201-8.602c0.79,2.727,3.848,4.38,6.825,5.982
		c2.63,1.417,5.128,2.767,5.795,4.633H2z M24,43.969c-1.302-1.815-3.689-3.105-6.026-4.362c-2.827-1.523-5.503-2.969-5.914-5.061
		c1.045-0.458,2.128-0.913,3.24-1.379c1.197-0.5,2.423-1.021,3.647-1.558c1.522,1.024,3.167,1.804,4.737,2.327
		c0.102,0.034,0.21,0.051,0.316,0.051s0.214-0.017,0.318-0.05c1.569-0.523,3.213-1.302,4.735-2.326
		c1.224,0.536,2.449,1.057,3.646,1.558c1.112,0.465,2.195,0.921,3.24,1.378c-0.412,2.092-3.087,3.537-5.913,5.06
		C27.689,40.865,25.302,42.154,24,43.969z M46,46H25.179c0.667-1.866,3.166-3.216,5.795-4.633c2.977-1.602,6.034-3.255,6.825-5.981
		C42.538,37.616,46,40.051,46,43.987V46z"/>
	<path fill="#231F20" d="M19,18.008c0.187-0.023,0.502-0.02,0.727-0.019L20,17.99l0.272-0.002c0.226,0,0.54-0.003,0.728,0.019
		c0.01,0.545,0.453,0.983,1,0.983c0.553,0,1-0.448,1-1c0-0.596-0.179-1.076-0.531-1.425c-0.593-0.589-1.42-0.579-2.212-0.576
		L20,15.99h-0.257c-0.79-0.007-1.619-0.013-2.212,0.576C17.179,16.915,17,17.395,17,17.991c0,0.552,0.447,1,1,1
		C18.547,18.991,18.99,18.553,19,18.008z"/>
	<path fill="#231F20" d="M26,18.991c0.547,0,0.99-0.438,1-0.983c0.187-0.023,0.503-0.02,0.727-0.019L28,17.99l0.272-0.002
		c0.227,0,0.541-0.003,0.728,0.019c0.01,0.545,0.453,0.983,1,0.983c0.553,0,1-0.448,1-1c0-0.596-0.179-1.076-0.531-1.425
		c-0.593-0.589-1.423-0.579-2.212-0.576L28,15.99h-0.257c-0.793-0.007-1.619-0.013-2.212,0.576C25.179,16.915,25,17.395,25,17.991
		C25,18.543,25.447,18.991,26,18.991z"/>
</g>
<g id="nyt_x5F_exporter_x5F_info" display="none">
</g>
</svg>
