<?xml version="1.0" encoding="utf-8"?>
<!-- Generator: Adobe Illustrator 17.0.0, SVG Export Plug-In . SVG Version: 6.00 Build 0)  -->
<!DOCTYPE svg PUBLIC "-//W3C//DTD SVG 1.1//EN" "http://www.w3.org/Graphics/SVG/1.1/DTD/svg11.dtd">
<svg version="1.1" id="Layer_1" xmlns="http://www.w3.org/2000/svg" xmlns:xlink="http://www.w3.org/1999/xlink" x="0px" y="0px"
	 width="48px" height="48px" viewBox="0 0 48 48" enable-background="new 0 0 48 48" xml:space="preserve">
<g>
	<path fill="#231F20" d="M34,12c0-0.552-0.448-1-1-1c-5.968,0-6.973-1.681-7.638-2.793c-0.197-0.331-0.384-0.643-0.655-0.914
		c-0.375-0.375-1.039-0.375-1.414,0c-0.271,0.271-0.457,0.583-0.655,0.914C21.973,9.319,20.968,11,15,11c-0.552,0-1,0.448-1,1
		s0.448,1,1,1c5.89,0,7.869-1.571,9-3.212C25.131,11.429,27.11,13,33,13C33.552,13,34,12.552,34,12z"/>
	<path fill="#231F20" d="M42.081,33.548l-12.538-3.56c-0.017-0.005-0.034,0-0.052-0.004c-0.073-0.017-0.145-0.016-0.22-0.017
		c-0.056,0-0.11-0.005-0.165,0.004c-0.066,0.011-0.127,0.038-0.191,0.063c-0.06,0.023-0.118,0.043-0.172,0.077
		c-0.017,0.011-0.037,0.012-0.053,0.024C26.972,31.359,25.03,32,24,32c-2.685,0-9-3.8-9-9v-1h-1c-1.083,0-1.723-1.085-1.943-2.013
		c-0.224-0.951-0.053-1.87,0.39-2.091l0.661-0.331l-1.113-6.664c-0.003-0.031-0.277-3.062,1.981-5.557C15.984,3.125,19.356,2,24,2
		c4.626,0,7.992,1.117,10.002,3.32c2.085,2.284,2.028,5.084,2.006,5.522l-0.979,3.915c-0.011,0.043-0.001,0.085-0.006,0.128
		C35.019,14.924,35,14.959,35,15v6c0,0.552,0.448,1,1,1h2v0.894C37.659,24.348,36.259,25,35,25h-6.278c-0.347-0.595-0.984-1-1.722-1
		h-4c-1.105,0-2,0.896-2,2c0,1.105,0.895,2,2,2h4c0.738,0,1.376-0.405,1.723-1H35c2.484,0,4.533-1.564,4.98-3.804l0.016-1.75
		C41.188,20.753,42,19.476,42,18c0-2.206-1.794-4-4-4h-0.719l0.689-2.757l0.025-0.143c0.016-0.16,0.359-3.952-2.488-7.098
		C33.104,1.346,29.232,0,24,0s-9.104,1.346-11.508,4.002c-2.847,3.146-2.504,6.938-2.479,7.163l0.899,5.398
		c-0.855,0.837-1.176,2.295-0.802,3.882c0.419,1.774,1.525,3.032,2.933,3.425c0.27,2.69,1.772,4.944,3.639,6.639L5.84,33.573
		C2.347,34.883,0,38.27,0,42v6h48v-6C48,38.269,45.653,34.883,42.081,33.548z M37,16h1c1.103,0,2,0.897,2,2s-0.897,2-2,2h-1V16z
		 M46,46H2v-4c0-2.902,1.825-5.536,4.462-6.527l12.206-3.446C20.638,33.298,22.683,34,24,34c1.507,0,3.638-0.78,5.439-1.963
		l12.018,3.409C44.174,36.464,46,39.098,46,42V46z"/>
	<path fill="#231F20" d="M18,19c0.546,0,0.991-0.438,1-0.982c0.189-0.023,0.503-0.021,0.728-0.019L20,18l0.272-0.002
		c0.226-0.002,0.539-0.004,0.728,0.019C21.009,18.562,21.454,19,22,19c0.552,0,1-0.448,1-1c0-0.596-0.179-1.076-0.531-1.425
		c-0.594-0.589-1.416-0.577-2.213-0.576L20,16l-0.257-0.001c-0.795-0.005-1.619-0.013-2.212,0.576C17.179,16.924,17,17.404,17,18
		C17,18.552,17.448,19,18,19z"/>
	<path fill="#231F20" d="M28,16l-0.257-0.001c-0.798-0.005-1.619-0.013-2.212,0.576C25.179,16.924,25,17.404,25,18
		c0,0.552,0.448,1,1,1c0.546,0,0.991-0.438,1-0.982c0.189-0.023,0.503-0.021,0.728-0.019L28,18l0.272-0.002
		c0.225-0.002,0.539-0.004,0.728,0.019C29.009,18.562,29.454,19,30,19c0.552,0,1-0.448,1-1c0-0.596-0.179-1.076-0.531-1.425
		c-0.593-0.589-1.418-0.577-2.213-0.576L28,16z"/>
</g>
<g id="nyt_x5F_exporter_x5F_info" display="none">
</g>
</svg>
