<?xml version="1.0" encoding="utf-8"?>
<!-- Generator: Adobe Illustrator 17.0.0, SVG Export Plug-In . SVG Version: 6.00 Build 0)  -->
<!DOCTYPE svg PUBLIC "-//W3C//DTD SVG 1.1//EN" "http://www.w3.org/Graphics/SVG/1.1/DTD/svg11.dtd">
<svg version="1.1" id="Layer_1" xmlns="http://www.w3.org/2000/svg" xmlns:xlink="http://www.w3.org/1999/xlink" x="0px" y="0px"
	 width="48px" height="48px" viewBox="0 0 48 48" enable-background="new 0 0 48 48" xml:space="preserve">
<g>
	<path fill="#231F20" d="M15.052,27.936c0.506-0.217,0.742-0.805,0.524-1.313c-0.85-1.982-1.384-4.348-1.507-6.624h19.946
		c-0.123,2.276-0.658,4.641-1.508,6.624c-0.218,0.508,0.017,1.096,0.525,1.313c0.128,0.056,0.262,0.082,0.394,0.082
		c0.387,0,0.757-0.227,0.92-0.607c1.079-2.516,1.697-5.582,1.697-8.412c0-0.552-0.447-1-1-1h-22c-0.553,0-1,0.448-1,1
		c0,2.832,0.618,5.898,1.696,8.412C13.955,27.918,14.543,28.152,15.052,27.936z"/>
	<path fill="#231F20" d="M43.042,30H32.175H15.909H5.042c-0.553,0-1,0.448-1,1s0.447,1,1,1h11.117l2,16h11.766l2-16h11.117
		c0.553,0,1-0.448,1-1S43.595,30,43.042,30z M28.159,46h-8.234l-1.75-14h11.734L28.159,46z"/>
	<path fill="#231F20" d="M24.042,16c4.411,0,8-3.589,8-8s-3.589-8-8-8s-8,3.589-8,8S19.631,16,24.042,16z M24.042,2
		c3.309,0,6,2.691,6,6s-2.691,6-6,6s-6-2.691-6-6S20.733,2,24.042,2z"/>
	<polygon fill="#231F20" points="22.402,27 25.68,27 25.042,20 23.042,20 	"/>
</g>
<g id="nyt_x5F_exporter_x5F_info" display="none">
</g>
</svg>
