<?xml version="1.0" encoding="utf-8"?>
<!-- Generator: Adobe Illustrator 17.0.0, SVG Export Plug-In . SVG Version: 6.00 Build 0)  -->
<!DOCTYPE svg PUBLIC "-//W3C//DTD SVG 1.1//EN" "http://www.w3.org/Graphics/SVG/1.1/DTD/svg11.dtd">
<svg version="1.1" id="Layer_1" xmlns="http://www.w3.org/2000/svg" xmlns:xlink="http://www.w3.org/1999/xlink" x="0px" y="0px"
	 width="48px" height="48px" viewBox="0 0 48 48" enable-background="new 0 0 48 48" xml:space="preserve">
<g>
	<path fill="#231F20" d="M42.125,33.547l-8.083-2.302V27.07c0.497-0.982,0.84-2.051,0.955-3.201
		c1.409-0.392,2.514-1.651,2.933-3.425c0.387-1.638,0.03-3.14-0.888-3.962V5c0-0.512-0.365-5-13-5
		c-11.451,0-12.849,4.271-12.97,4.757l-0.03,0.12l0.003,10.105c0,0.006-0.004,0.011-0.004,0.018v1.482
		c-0.919,0.822-1.276,2.323-0.889,3.963c0.419,1.774,1.525,3.032,2.933,3.425c0.116,1.151,0.459,2.222,0.957,3.204v4.171
		l-8.16,2.328c-3.493,1.31-5.84,4.697-5.84,8.427v6h48v-6C48.042,38.269,45.695,34.882,42.125,33.547z M13.042,5.191
		C13.311,4.671,15.128,2,24.042,2c8.708,0,10.895,2.207,11,3v4.539C33.18,8.914,29.524,8,24.042,8s-9.138,0.914-11,1.539V5.191z
		 M13.042,11.666c1.317-0.504,4.999-1.666,11-1.666c6.001,0,9.683,1.162,11,1.666v1.871c-1.865-0.624-5.526-1.537-11-1.537
		s-9.136,0.913-11,1.537V11.666z M23.042,46h-21v-4c0-2.902,1.825-5.536,4.465-6.529l7.711-2.196
		c0.649,2.505,3.236,5.379,8.824,5.689V46z M23.042,36.965c-5.705-0.349-7-3.648-7-4.965v-2.151c2.149,2.237,4.996,3.653,7,4.036
		V36.965z M15.042,23v-1h-1c-1.083,0-1.724-1.085-1.944-2.015c-0.224-0.951-0.053-1.87,0.39-2.091l0.553-0.276v-1.952
		C14.357,15.162,18.04,14,24.042,14c5.999,0,9.682,1.161,10.999,1.665v1.953l0.553,0.276c0.443,0.221,0.615,1.14,0.39,2.091
		C35.765,20.915,35.125,22,34.042,22h-1v1c0,5.2-6.315,9-9,9S15.042,28.2,15.042,23z M32.042,29.848V32c0,1.317-1.295,4.616-7,4.965
		v-3.08C27.046,33.502,29.893,32.085,32.042,29.848z M46.042,46h-21v-7.036c5.587-0.311,8.175-3.185,8.824-5.69l7.634,2.172
		c2.716,1.018,4.542,3.652,4.542,6.554V46z"/>
	<circle fill="#231F20" cx="29.042" cy="42" r="2"/>
	<path fill="#231F20" d="M20.297,17.002l-0.256,0.001l-0.256-0.001c-0.796-0.005-1.619-0.013-2.212,0.576
		c-0.352,0.349-0.531,0.829-0.531,1.425c0,0.552,0.448,1,1,1c0.546,0,0.991-0.438,1-0.983c0.188-0.022,0.503-0.021,0.728-0.018
		l0.272,0.001l0.272-0.001c0.224-0.003,0.539-0.005,0.728,0.018c0.009,0.545,0.454,0.983,1,0.983c0.552,0,1-0.448,0.998-1
		c0-0.596-0.178-1.075-0.531-1.425C21.916,16.99,21.093,16.996,20.297,17.002z"/>
	<path fill="#231F20" d="M31.04,19.003c0-0.596-0.178-1.075-0.531-1.425c-0.592-0.588-1.418-0.582-2.212-0.576l-0.256,0.001
		l-0.256-0.001c-0.798-0.005-1.619-0.013-2.212,0.576c-0.352,0.349-0.531,0.829-0.531,1.425c0,0.552,0.448,1,1,1
		c0.546,0,0.991-0.438,1-0.983c0.189-0.022,0.504-0.021,0.728-0.018l0.272,0.001l0.272-0.001c0.225-0.003,0.539-0.005,0.728,0.018
		c0.009,0.545,0.454,0.983,1,0.983C30.594,20.003,31.042,19.555,31.04,19.003z"/>
</g>
<g id="nyt_x5F_exporter_x5F_info" display="none">
</g>
</svg>
