<?xml version="1.0" encoding="utf-8"?>
<!-- Generator: Adobe Illustrator 17.0.0, SVG Export Plug-In . SVG Version: 6.00 Build 0)  -->
<!DOCTYPE svg PUBLIC "-//W3C//DTD SVG 1.1//EN" "http://www.w3.org/Graphics/SVG/1.1/DTD/svg11.dtd">
<svg version="1.1" id="Layer_1" xmlns="http://www.w3.org/2000/svg" xmlns:xlink="http://www.w3.org/1999/xlink" x="0px" y="0px"
	 width="48px" height="48px" viewBox="0 0 48 48" enable-background="new 0 0 48 48" xml:space="preserve">
<g>
	<path fill="#231F20" d="M33.96,33.577c-0.88-0.367-1.78-0.747-2.686-1.135c0.575-0.573,1.116-1.252,1.599-2.058
		c1.565,0.937,3.674,1.231,5.663,1.231c2.723,0,5.202-0.53,5.684-0.641c0.381-0.086,0.676-0.386,0.757-0.767
		c0.082-0.381-0.066-0.774-0.378-1.008c-1.141-0.856-1.502-3.701-1.885-6.713c-0.705-5.555-1.681-13.076-8.481-16.052l0.104-0.726
		c0.205-1.437-0.223-2.888-1.172-3.984C32.214,0.628,30.838,0,29.388,0H18.611c-1.45,0-2.826,0.628-3.777,1.724
		c-0.949,1.096-1.377,2.548-1.172,3.984l0.097,0.679c-6.793,2.98-7.768,10.517-8.474,16.084C4.902,25.491,4.541,28.344,3.4,29.2
		c-0.312,0.234-0.46,0.629-0.378,1.01c0.082,0.382,0.378,0.681,0.759,0.766c0.481,0.108,2.944,0.627,5.656,0.627
		c1.994,0,4.113-0.293,5.686-1.225c0.484,0.808,1.026,1.489,1.602,2.063c-0.906,0.388-1.807,0.768-2.686,1.136
		C6.506,36.72,0,39.436,0,46v2h48v-2C48,39.436,41.494,36.72,33.96,33.577z M32.391,35.086c0.266,0.111,0.537,0.226,0.8,0.336
		c0.169,0.071,0.334,0.14,0.503,0.211l-2.348,6.264L26.89,41.26L32.391,35.086z M32.989,15.142l0.951-6.656
		c5.32,2.688,6.131,9.063,6.79,14.252c0.332,2.61,0.63,4.961,1.465,6.575c-2.54,0.377-6.466,0.589-8.44-0.725
		c0.629-1.582,1.062-3.539,1.197-5.965C35.603,22.856,36.286,23,37,23c0.553,0,1-0.448,1-1s-0.447-1-1-1
		c-0.815,0-1.577-0.263-2.271-0.674c-0.108-0.117-0.242-0.203-0.394-0.258c-1.52-1.069-2.643-2.829-3.102-4.068H32
		C32.498,16,32.92,15.634,32.989,15.142z M16.345,3.035C16.916,2.377,17.741,2,18.611,2h10.778c0.87,0,1.695,0.377,2.266,1.035
		c0.57,0.657,0.826,1.528,0.703,2.39L31.133,14H16.867l-1.225-8.575C15.519,4.563,15.775,3.692,16.345,3.035z M11,23
		c0.714,0,1.397-0.144,2.048-0.376c0.134,2.423,0.566,4.377,1.194,5.959c-1.98,1.301-5.897,1.096-8.437,0.727
		c0.834-1.617,1.133-3.973,1.464-6.587c0.66-5.201,1.471-11.591,6.783-14.283l0.958,6.702C15.08,15.634,15.502,16,16,16h0.767
		c-0.459,1.238-1.582,2.998-3.102,4.068c-0.153,0.055-0.286,0.141-0.394,0.258C12.577,20.737,11.815,21,11,21c-0.553,0-1,0.448-1,1
		S10.447,23,11,23z M15.019,21.565c2.005-1.473,3.425-3.791,3.846-5.565h10.271c0.421,1.774,1.841,4.092,3.846,5.565
		c-0.198,9.725-5.335,11.289-8.435,12.219c-0.192,0.058-0.373,0.112-0.546,0.166c-0.173-0.054-0.355-0.109-0.546-0.166
		C20.353,32.854,15.217,31.29,15.019,21.565z M14.809,35.422c0.263-0.11,0.534-0.224,0.8-0.336l5.5,6.173l-4.455,0.637l-2.348-6.264
		C14.474,35.562,14.639,35.493,14.809,35.422z M23,46H2c0-4.643,4.456-7.024,10.46-9.589l2.886,7.693l7.359-1.054L23,43.381V46z
		 M17.554,34.262c0.312-0.134,0.625-0.269,0.939-0.407c1.556,0.994,3.16,1.477,4.387,1.845c0.291,0.087,0.562,0.168,0.804,0.249
		C23.786,35.983,23.894,36,24,36s0.214-0.017,0.316-0.051c0.242-0.081,0.513-0.162,0.804-0.249c1.227-0.368,2.83-0.851,4.387-1.845
		c0.314,0.138,0.627,0.273,0.939,0.407L24,41.497L17.554,34.262z M25,46v-2.619l0.294-0.33l7.36,1.053l2.885-7.693
		C41.544,38.975,46,41.357,46,46H25z"/>
	<path fill="#231F20" d="M21,9h2v2c0,0.552,0.447,1,1,1s1-0.448,1-1V9h2c0.553,0,1-0.448,1-1s-0.447-1-1-1h-2V5c0-0.552-0.447-1-1-1
		s-1,0.448-1,1v2h-2c-0.553,0-1,0.448-1,1S20.447,9,21,9z"/>
	<path fill="#231F20" d="M19,22.02c0.187-0.022,0.503-0.02,0.727-0.018L20,22.003l0.272-0.001c0.226-0.001,0.54-0.004,0.728,0.018
		c0.01,0.545,0.453,0.983,1,0.983c0.553,0,1-0.448,1-1c0-0.596-0.179-1.076-0.531-1.425c-0.593-0.589-1.422-0.579-2.212-0.576
		L20,20.003l-0.257-0.001c-0.792-0.006-1.619-0.013-2.212,0.576C17.179,20.927,17,21.407,17,22.003c0,0.552,0.447,1,1,1
		C18.547,23.003,18.99,22.565,19,22.02z"/>
	<path fill="#231F20" d="M26,23.003c0.547,0,0.99-0.438,1-0.983c0.187-0.022,0.503-0.02,0.727-0.018L28,22.003l0.272-0.001
		c0.226-0.001,0.541-0.004,0.728,0.018c0.01,0.545,0.453,0.983,1,0.983c0.553,0,1-0.448,1-1c0-0.596-0.179-1.076-0.531-1.425
		c-0.593-0.589-1.42-0.579-2.212-0.576L28,20.003l-0.257-0.001c-0.79-0.006-1.619-0.013-2.212,0.576
		C25.179,20.927,25,21.407,25,22.003C25,22.555,25.447,23.003,26,23.003z"/>
</g>
<g id="nyt_x5F_exporter_x5F_info" display="none">
</g>
</svg>
