<?xml version="1.0" encoding="utf-8"?>
<!-- Generator: Adobe Illustrator 17.0.0, SVG Export Plug-In . SVG Version: 6.00 Build 0)  -->
<!DOCTYPE svg PUBLIC "-//W3C//DTD SVG 1.1//EN" "http://www.w3.org/Graphics/SVG/1.1/DTD/svg11.dtd">
<svg version="1.1" id="Layer_1" xmlns="http://www.w3.org/2000/svg" xmlns:xlink="http://www.w3.org/1999/xlink" x="0px" y="0px"
	 width="48px" height="48px" viewBox="0 0 48 48" enable-background="new 0 0 48 48" xml:space="preserve">
<g>
	<path fill="#231F20" d="M47.707,46.293L33.102,31.688C36.136,28.32,38,23.879,38,19C38,8.523,29.477,0,19,0S0,8.523,0,19
		s8.523,19,19,19c4.879,0,9.32-1.864,12.688-4.898l14.605,14.605C46.488,47.902,46.744,48,47,48s0.512-0.098,0.707-0.293
		C48.098,47.316,48.098,46.684,47.707,46.293z M19,36C9.626,36,2,28.374,2,19S9.626,2,19,2s17,7.626,17,17S28.374,36,19,36z"/>
	<path fill="#231F20" d="M24,24.559c0.742-0.57,1.832-1.904,1.982-4.859c0.835-0.553,1.31-1.789,1.31-2.995
		c0-0.667-0.152-1.262-0.44-1.72c-0.137-0.219-0.303-0.404-0.491-0.552c0.441-1.027,1.081-2.788,0.609-4.676
		C26.277,6.984,22.782,6,20,6c-2.478,0-5.521,0.781-6.645,2.912c-0.904-0.043-1.589,0.217-2.038,0.766
		c-1.023,1.251-0.205,3.307,0.398,4.732c-0.207,0.154-0.388,0.347-0.537,0.58c-0.3,0.466-0.458,1.071-0.458,1.749
		c0,1.191,0.471,2.413,1.299,2.962c0.149,2.954,1.24,4.288,1.982,4.859v2.766c-1.485,0.607-3.005,1.279-4.431,1.958l0.859,1.806
		c1.59-0.757,3.3-1.505,4.942-2.161C15.751,28.777,16,28.409,16,28v-4c0-0.392-0.274-0.767-0.631-0.929
		C15.356,23.065,14,22.409,14,19c0-0.522-0.4-0.951-0.911-0.996c-0.225-0.215-0.502-1.127-0.306-1.763C12.858,16,12.92,16,13,16
		c0.552,0,1-0.448,1-1c0-0.319-0.128-0.621-0.383-1.222c-0.841-1.982-0.873-2.638-0.766-2.823c0.002-0.002,0.217-0.125,0.949,0.025
		c0.523,0.106,1.04-0.217,1.17-0.737C15.295,8.943,17.41,8,20,8s4.705,0.943,5.03,2.242c0.362,1.45-0.269,2.872-0.647,3.721
		c-0.199,0.448-0.319,0.719-0.319,1.037c0,0.552,0.508,1.007,1.06,1.007c0.043,0.028,0.163,0.238,0.168,0.67
		c0.008,0.643-0.233,1.18-0.382,1.327C24.4,18.049,24,18.478,24,19c0,3.386-1.338,4.056-1.33,4.056C22.269,23.196,22,23.575,22,24v4
		c0,0.409,0.249,0.776,0.629,0.929c1.643,0.657,3.351,1.404,4.939,2.16l0.859-1.806c-1.424-0.678-2.942-1.349-4.427-1.957V24.559z"
		/>
</g>
<g id="nyt_x5F_exporter_x5F_info" display="none">
</g>
</svg>
