<?xml version="1.0" encoding="utf-8"?>
<!-- Generator: Adobe Illustrator 17.1.0, SVG Export Plug-In . SVG Version: 6.00 Build 0)  -->
<!DOCTYPE svg PUBLIC "-//W3C//DTD SVG 1.0//EN" "http://www.w3.org/TR/2001/REC-SVG-20010904/DTD/svg10.dtd">
<svg version="1.0" id="Layer_1" xmlns="http://www.w3.org/2000/svg" xmlns:xlink="http://www.w3.org/1999/xlink" x="0px" y="0px"
	 width="48px" height="48px" viewBox="0 0 48 48" enable-background="new 0 0 48 48" xml:space="preserve">
<g>
	<path d="M19,19.02c0.189-0.022,0.501-0.019,0.727-0.018L20,19.003l0.273-0.001c0.226-0.001,0.538-0.004,0.727,0.018
		c0.009,0.545,0.454,0.983,1,0.983c0.552,0,1-0.448,1-1c0-0.596-0.179-1.076-0.531-1.426c-0.593-0.588-1.414-0.58-2.212-0.576
		L20,17.003l-0.257-0.001c-0.801-0.004-1.619-0.013-2.211,0.576C17.179,17.927,17,18.407,17,19.003c0,0.552,0.448,1,1,1
		C18.546,20.003,18.991,19.565,19,19.02z"/>
	<path d="M26,20.003c0.546,0,0.991-0.438,1-0.983c0.188-0.022,0.501-0.019,0.727-0.018L28,19.003l0.273-0.001
		c0.225-0.001,0.539-0.004,0.727,0.018c0.009,0.545,0.454,0.983,1,0.983c0.552,0,1-0.448,1-1c0-0.596-0.179-1.076-0.531-1.426
		c-0.593-0.588-1.416-0.58-2.212-0.576L28,17.003l-0.257-0.001c-0.798-0.004-1.619-0.013-2.211,0.576
		C25.179,17.927,25,18.407,25,19.003C25,19.555,25.448,20.003,26,20.003z"/>
	<path d="M33.484,30.629c-0.659-0.09-1.329-0.181-2.002-0.278c1.795-1.683,3.222-3.886,3.477-6.507
		C36.33,23.376,37.25,21.902,37.25,20c0-0.566-0.09-1.087-0.24-1.561l1.001-7.339c0.016-0.16,0.359-3.952-2.488-7.098
		C33.12,1.346,29.248,0,24.016,0c-5.232,0-9.104,1.346-11.507,4.002c-2.847,3.146-2.504,6.938-2.484,7.134l0.987,7.24
		C10.848,18.867,10.75,19.409,10.75,20c0,1.902,0.92,3.376,2.291,3.843c0.255,2.622,1.683,4.826,3.479,6.509
		c-0.617,0.088-1.233,0.172-1.838,0.254C7.463,31.585,0,32.596,0,40.491V48h23.999H24h24v-7.509
		C48,32.604,40.949,31.645,33.484,30.629z M13.992,5.344C15.999,3.125,19.372,2,24.016,2c4.627,0,7.992,1.117,10.003,3.32
		c2.254,2.47,2.005,5.545,2.006,5.544l-0.741,5.433c-0.142-0.069-0.286-0.132-0.439-0.177l-0.856-4.315
		C33.896,11.337,33.485,11,33.008,11c-5.966,0-6.969-1.68-7.633-2.792c-0.198-0.331-0.385-0.644-0.656-0.915
		c-0.375-0.375-1.039-0.375-1.414,0c-0.271,0.27-0.457,0.582-0.655,0.912C21.983,9.318,20.976,11,15.006,11
		c-0.476,0-0.886,0.336-0.981,0.803l-0.868,4.317c-0.143,0.042-0.278,0.103-0.412,0.166L12.011,10.9
		C12.008,10.87,11.733,7.839,13.992,5.344z M15,23c0-0.552-0.448-1-1-1c-0.989,0-1.25-1.308-1.25-2c0-0.324,0.061-0.78,0.223-1.176
		c0.01-0.029,0.024-0.055,0.032-0.085C13.194,18.326,13.506,18,14,18c0.476,0,0.886-0.336,0.98-0.803l0.846-4.208
		c5.259-0.14,7.105-1.639,8.184-3.202c1.076,1.562,2.918,3.061,8.174,3.202l0.834,4.206C33.112,17.663,33.523,18,34,18
		c0.989,0,1.25,1.308,1.25,2c0,0.692-0.261,2-1.25,2c-0.552,0-1,0.448-1,1c0,5.2-6.315,9-9,9c-1.119,0-2.867-0.667-4.526-1.813
		c-0.003-0.002-0.006-0.004-0.009-0.006C17.144,28.576,15,26.029,15,23z M2,40.491c0-5.851,4.921-6.814,12.95-7.902
		c1.226-0.167,2.49-0.342,3.742-0.547c1.525,0.98,3.083,1.611,4.322,1.845L23.001,46H2V40.491z M46,46H25.001l0.014-12.118
		c1.236-0.239,2.784-0.869,4.299-1.844c1.316,0.216,2.629,0.399,3.901,0.572C41.142,33.69,46,34.647,46,40.491V46z"/>
	<path d="M16,39h-2v-2c0-0.552-0.448-1-1-1c-0.552,0-1,0.448-1,1v2h-2c-0.552,0-1,0.448-1,1c0,0.552,0.448,1,1,1h2v2
		c0,0.552,0.448,1,1,1c0.552,0,1-0.448,1-1v-2h2c0.552,0,1-0.448,1-1C17,39.448,16.552,39,16,39z"/>
	<circle cx="28" cy="39" r="1"/>
	<circle cx="28" cy="43" r="1"/>
</g>
</svg>
