<?xml version="1.0" encoding="utf-8"?>
<!-- Generator: Adobe Illustrator 17.0.0, SVG Export Plug-In . SVG Version: 6.00 Build 0)  -->
<!DOCTYPE svg PUBLIC "-//W3C//DTD SVG 1.1//EN" "http://www.w3.org/Graphics/SVG/1.1/DTD/svg11.dtd">
<svg version="1.1" id="Layer_1" xmlns="http://www.w3.org/2000/svg" xmlns:xlink="http://www.w3.org/1999/xlink" x="0px" y="0px"
	 width="48px" height="48px" viewBox="0 0 48 48" enable-background="new 0 0 48 48" xml:space="preserve">
<g>
	<path fill="#231F20" d="M47.706,46.293L33.102,31.689C36.135,28.321,38,23.879,38,19C38,8.523,29.477,0,19,0S0,8.523,0,19
		s8.523,19,19,19c4.879,0,9.32-1.864,12.688-4.897l14.605,14.604C46.488,47.902,46.744,48,47,48s0.512-0.098,0.706-0.293
		C48.097,47.316,48.097,46.684,47.706,46.293z M19,36C9.626,36,2,28.374,2,19S9.626,2,19,2s17,7.626,17,17S28.374,36,19,36z"/>
	<path fill="#231F20" d="M23,21.636c1.993-1.555,3.31-4.212,3.31-7.224c0-4.782-3.316-8.672-7.392-8.672
		c-4.078,0-7.395,3.89-7.395,8.672c0,3.093,1.393,5.806,3.477,7.342v2.214l-7.374,2.97l0.748,1.855L17,25.318v-2.539
		c0.613,0.194,1.254,0.306,1.918,0.306c0.723,0,1.421-0.128,2.082-0.356v2.582l8.569,3.561l0.768-1.847L23,23.976V21.636z
		 M18.918,7.74c2.444,0,4.509,2.022,5.169,4.784c-1.434,0.198-2.333-0.338-3.235-1.912l-0.907-1.586l-0.847,1.619
		c-0.5,0.955-2.273,1.824-3.72,1.824c-0.508,0-1.065-0.093-1.553-0.238C14.558,9.621,16.561,7.74,18.918,7.74z M18.918,21.085
		c-2.975,0-5.395-2.994-5.395-6.673c0-0.064,0.006-0.126,0.008-0.189c0.599,0.153,1.238,0.245,1.846,0.245
		c1.612,0,3.371-0.703,4.521-1.71c0.998,1.221,2.189,1.813,3.643,1.813c0.246,0,0.503-0.023,0.765-0.057
		C24.261,18.146,21.864,21.085,18.918,21.085z"/>
</g>
<g id="nyt_x5F_exporter_x5F_info" display="none">
</g>
</svg>
