<?xml version="1.0" encoding="utf-8"?>
<!-- Generator: Adobe Illustrator 17.0.0, SVG Export Plug-In . SVG Version: 6.00 Build 0)  -->
<!DOCTYPE svg PUBLIC "-//W3C//DTD SVG 1.1//EN" "http://www.w3.org/Graphics/SVG/1.1/DTD/svg11.dtd">
<svg version="1.1" id="Layer_1" xmlns="http://www.w3.org/2000/svg" xmlns:xlink="http://www.w3.org/1999/xlink" x="0px" y="0px"
	 width="48px" height="48px" viewBox="0 0 48 48" enable-background="new 0 0 48 48" xml:space="preserve">
<g>
	<path fill="#231F20" d="M21,16c4.411,0,8-3.589,8-8s-3.589-8-8-8s-8,3.589-8,8S16.589,16,21,16z M21,2c3.309,0,6,2.691,6,6
		s-2.691,6-6,6s-6-2.691-6-6S17.691,2,21,2z"/>
	<path fill="#231F20" d="M33,18H9v1c0,7.107,2.543,12.738,7,15.565V48h10V34.565c4.457-2.828,7-8.459,7-15.565V18z M24.505,33.131
		L24,33.419V46h-6V33.419l-0.505-0.288c-3.917-2.229-6.25-6.982-6.476-13.131h8.898L19,31l2,2l2-2l-0.917-11h8.898
		C30.755,26.147,28.423,30.9,24.505,33.131z"/>
	<path fill="#231F20" d="M37,32v-2h-2v2h-3v16h8V32H37z M38,46h-4V34h4V46z"/>
</g>
<g id="nyt_x5F_exporter_x5F_info" display="none">
</g>
</svg>
