<?xml version="1.0" encoding="utf-8"?>
<!-- Generator: Adobe Illustrator 17.0.0, SVG Export Plug-In . SVG Version: 6.00 Build 0)  -->
<!DOCTYPE svg PUBLIC "-//W3C//DTD SVG 1.1//EN" "http://www.w3.org/Graphics/SVG/1.1/DTD/svg11.dtd">
<svg version="1.1" id="Layer_1" xmlns="http://www.w3.org/2000/svg" xmlns:xlink="http://www.w3.org/1999/xlink" x="0px" y="0px"
	 width="48px" height="48px" viewBox="0 0 48 48" enable-background="new 0 0 48 48" xml:space="preserve">
<path fill="#231F20" d="M45.955,37.331c-1.462-2.194-5.25-3.645-9.637-5.325c-0.893-0.342-1.8-0.69-2.699-1.049l-0.024,0.06
	c-0.804-0.99-1.806-1.861-2.78-2.334l-0.816-0.414v-2.89c0.895-0.744,2.813-2.69,3.039-5.871c0.462-0.388,0.826-1.062,1.038-1.958
	c0.309-1.31,0.233-3.019-0.814-4.046c0.058-0.147,0.121-0.307,0.183-0.46c0.772-1.934,2.208-5.532,1.644-8.355
	c-0.662-3.313-5.333-4.594-9.132-4.684c-3.289-0.068-7.3,0.659-8.529,2.917c-1.194,0.134-2.114,0.628-2.742,1.475
	c-1.738,2.343-0.476,6.505,0.203,8.74c0.034,0.11,0.069,0.226,0.101,0.332c-1.053,1-1.233,2.723-0.891,4.173
	c0.2,0.844,0.543,1.484,0.981,1.86c0.217,3.173,2.058,5.119,2.92,5.865v2.931l-0.676,0.378c-0.97,0.471-1.968,1.352-2.767,2.356
	c-0.893,0.355-1.798,0.7-2.69,1.04c-4.363,1.659-8.132,3.092-9.576,5.259C0.153,40.537,0.006,46.718,0,46.98
	c-0.005,0.269,0.098,0.528,0.286,0.72C0.474,47.892,0.731,48,1,48h17.875H24h4.875H47c0.545,0,0.989-0.435,1-0.98
	C48.005,46.758,48.104,40.555,45.955,37.331z M30,30.885v-0.372c1.238,0.637,2.669,2.266,3.092,3.532l1.212,3.664l-7.625-4.397
	c1.214-0.438,2.384-1.076,3.028-1.72c0.159-0.16,0.243-0.371,0.27-0.592h0.022v-0.11C29.999,30.888,30,30.887,30,30.885z
	 M17.057,18.885c0-0.459-0.31-0.845-0.731-0.963c-0.2-0.293-0.488-1.221-0.353-2.11c0.056-0.364,0.202-0.838,0.591-1.032
	c0.339-0.169,0.553-0.515,0.553-0.894c0-0.271-0.081-0.553-0.316-1.329c-0.494-1.626-1.649-5.434-0.511-6.968
	c0.35-0.473,0.947-0.703,1.824-0.703c0.459,0,0.859-0.312,0.97-0.757c0.272-1.093,2.978-2.209,6.823-2.123
	c3.907,0.093,6.875,1.358,7.219,3.076c0.447,2.241-0.846,5.481-1.54,7.221c-0.351,0.876-0.495,1.24-0.495,1.583
	c0,0.378,0.214,0.725,0.553,0.894c0.302,0.15,0.491,0.486,0.562,0.998c0.127,0.907-0.191,1.85-0.403,2.141
	c-0.427,0.113-0.742,0.503-0.742,0.966c0,3.382-2.505,5.095-2.608,5.163C28.17,24.233,28,24.547,28,24.885v3.999v1.542
	c-0.941,0.702-2.818,1.404-3.945,1.449c-1.138-0.051-3.113-0.77-4.055-1.452v-1.538v-4c0-0.331-0.164-0.64-0.44-0.827
	C19.534,24.041,17.057,22.316,17.057,18.885z M26,35.229v0.656c0,1.103-0.898,2-2,2c-1.103,0-2-0.897-2-2v-0.581l2.062-1.192
	L26,35.229z M15.092,34.047c0.417-1.249,1.69-2.763,2.908-3.465v0.303V31h0.023c0.026,0.221,0.11,0.433,0.269,0.592
	c0.679,0.68,1.905,1.306,3.139,1.731l-7.564,4.372L15.092,34.047z M18.157,46H2.053c0.128-1.798,0.549-5.53,1.902-7.56
	c1.09-1.635,4.919-3.091,8.623-4.499c0.168-0.064,0.337-0.131,0.505-0.195l-1.954,5.82c-0.132,0.395-0.007,0.83,0.315,1.093
	c0.183,0.15,0.407,0.226,0.633,0.226c0.172,0,0.345-0.044,0.5-0.134l7.478-4.323c0.186,1.353,1.042,2.487,2.231,3.056
	C20.179,40.874,18.747,44.334,18.157,46z M24,46h-3.705c0.955-2.402,2.529-5.115,3.828-5.115c1.279,0,2.651,2.724,3.426,5.115H24z
	 M29.641,46.002V46c-0.498-1.73-1.733-5.243-3.814-6.577c1.151-0.597,1.966-1.727,2.125-3.068l7.625,4.397
	c0.155,0.09,0.327,0.134,0.499,0.134c0.225,0,0.449-0.076,0.633-0.226c0.321-0.262,0.448-0.696,0.317-1.089l-1.952-5.901
	c0.176,0.068,0.353,0.138,0.529,0.206c3.726,1.427,7.58,2.902,8.688,4.566c1.35,2.025,1.636,5.782,1.695,7.56H29.641z"/>
<g id="nyt_x5F_exporter_x5F_info" display="none">
</g>
</svg>
