<?xml version="1.0" encoding="utf-8"?>
<!-- Generator: Adobe Illustrator 17.0.0, SVG Export Plug-In . SVG Version: 6.00 Build 0)  -->
<!DOCTYPE svg PUBLIC "-//W3C//DTD SVG 1.1//EN" "http://www.w3.org/Graphics/SVG/1.1/DTD/svg11.dtd">
<svg version="1.1" id="Layer_1" xmlns="http://www.w3.org/2000/svg" xmlns:xlink="http://www.w3.org/1999/xlink" x="0px" y="0px"
	 width="48px" height="48px" viewBox="0 0 48 48" enable-background="new 0 0 48 48" xml:space="preserve">
<path fill="#231F20" d="M24,0C10.767,0,0,10.767,0,24c0,6.359,2.465,12.353,6.939,16.877C11.485,45.47,17.544,48,24,48
	c6.467,0,12.531-2.537,17.079-7.144c0.001-0.001,0.003-0.002,0.004-0.003C45.544,36.332,48,30.347,48,24C48,10.767,37.233,0,24,0z
	 M24,46c-5.486,0-10.644-2.015-14.689-5.66c2.061-1.129,5.075-2.226,8.017-3.292c1.022-0.371,2.044-0.741,3.025-1.112
	C20.742,35.788,21,35.416,21,35v-5c0-0.431-0.275-0.812-0.684-0.949C20.293,29.044,18,28.163,18,24c0-0.552-0.413-0.989-0.964-0.989
	c-0.093-0.062-0.275-0.435-0.275-1.011s0.181-0.949,0.239-1c0.553,0,1-0.448,1-1c0-0.249-0.074-0.512-0.235-1.088
	c-0.294-1.047-1.075-3.826-0.389-4.73c0.057-0.075,0.208-0.275,0.764-0.275c0.194,0,0.418,0.025,0.664,0.074
	c0.521,0.102,1.037-0.22,1.166-0.738C20.295,11.943,22.621,11,25.5,11s5.205,0.943,5.53,2.242c0.458,1.834-0.356,4.377-0.747,5.599
	C30.089,19.449,30,19.726,30,20c0,0.552,0.413,0.989,0.964,0.989c0.093,0.062,0.275,0.435,0.275,1.011S31.058,22.949,31,23
	c-0.553,0-1,0.448-1,1c0,4.143-2.236,5.022-2.316,5.051C27.275,29.188,27,29.569,27,30v5c0,0.417,0.259,0.79,0.649,0.937
	c1.083,0.406,2.164,0.797,3.219,1.178c3.022,1.093,5.892,2.137,7.845,3.202C34.665,43.977,29.498,46,24,46z M40.217,38.862
	c-2.095-1.251-5.169-2.363-8.669-3.628c-0.836-0.303-1.69-0.611-2.548-0.929V30.61c1.002-0.618,2.767-2.215,2.979-5.871
	c0.773-0.451,1.26-1.454,1.26-2.739c0-1.157-0.395-2.086-1.039-2.589c0.486-1.514,1.362-4.288,0.77-6.654
	C32.276,9.984,28.513,9,25.5,9c-2.684,0-5.964,0.781-7.138,2.913c-1.412-0.076-2.19,0.547-2.579,1.061
	c-1.271,1.676-0.433,4.735,0.04,6.42c-0.658,0.498-1.062,1.435-1.062,2.606c0,1.284,0.488,2.287,1.26,2.739
	c0.212,3.656,1.978,5.253,2.98,5.871v3.697c-0.772,0.287-1.562,0.573-2.354,0.86c-3.255,1.18-6.61,2.396-8.841,3.722
	C4.056,34.816,2,29.561,2,24C2,11.869,11.869,2,24,2s22,9.869,22,22C46,29.547,43.952,34.794,40.217,38.862z"/>
<g id="nyt_x5F_exporter_x5F_info" display="none">
</g>
</svg>
