<?xml version="1.0" encoding="utf-8"?>
<!-- Generator: Adobe Illustrator 17.1.0, SVG Export Plug-In . SVG Version: 6.00 Build 0)  -->
<!DOCTYPE svg PUBLIC "-//W3C//DTD SVG 1.0//EN" "http://www.w3.org/TR/2001/REC-SVG-20010904/DTD/svg10.dtd">
<svg version="1.0" id="Layer_1" xmlns="http://www.w3.org/2000/svg" xmlns:xlink="http://www.w3.org/1999/xlink" x="0px" y="0px"
	 width="48px" height="48px" viewBox="0 0 48 48" enable-background="new 0 0 48 48" xml:space="preserve">
<g>
	<path d="M18,20.003c0.546,0,0.991-0.438,1-0.983c0.189-0.022,0.501-0.019,0.727-0.018L20,19.003l0.273-0.001
		c0.225-0.001,0.539-0.004,0.727,0.018c0.009,0.545,0.454,0.983,1,0.983c0.552,0,1-0.448,1-1c0-0.596-0.179-1.076-0.531-1.426
		c-0.593-0.588-1.413-0.58-2.212-0.576L20,17.003l-0.257-0.001c-0.8-0.004-1.619-0.013-2.211,0.576
		C17.179,17.927,17,18.407,17,19.003C17,19.555,17.448,20.003,18,20.003z"/>
	<path d="M26,20.003c0.546,0,0.991-0.438,1-0.983c0.188-0.022,0.501-0.019,0.727-0.018L28,19.003l0.273-0.001
		c0.225-0.001,0.538-0.004,0.727,0.018c0.009,0.545,0.454,0.983,1,0.983c0.552,0,1-0.448,1-1c0-0.596-0.179-1.076-0.531-1.426
		c-0.593-0.588-1.416-0.58-2.211-0.576L28,17.003l-0.257-0.001c-0.798-0.004-1.619-0.013-2.211,0.576
		C25.179,17.927,25,18.407,25,19.003C25,19.555,25.448,20.003,26,20.003z"/>
	<path d="M33.486,30.629c-0.659-0.09-1.33-0.181-2.004-0.278c1.436-1.346,2.623-3.029,3.175-4.99
		c0.013-0.027,0.033-0.048,0.045-0.076c0.024-0.06,0.022-0.122,0.034-0.183c0.102-0.409,0.182-0.827,0.224-1.258
		C36.33,23.376,37.25,21.902,37.25,20c0-0.57-0.085-1.099-0.238-1.577l0.958-7.256c0.012-0.069,1.049-6.906-8.64-9.115
		C27.914,0.781,26.049,0,24,0c-2.049,0-3.914,0.781-5.331,2.052c-9.688,2.209-8.651,9.046-8.644,9.083l0.988,7.245
		C10.847,18.883,10.75,19.429,10.75,20c0,1.902,0.92,3.376,2.291,3.843c0.255,2.622,1.683,4.826,3.479,6.509
		c-0.617,0.088-1.234,0.172-1.84,0.254C7.463,31.585,0,32.596,0,40.491V48h48v-7.509C48,32.604,40.95,31.645,33.486,30.629z
		 M35.993,10.869l-0.718,5.434c-0.315-0.153-0.653-0.262-1.019-0.292l-4.653-2.31C31.08,12.249,32,10.231,32,8
		c0-1.16-0.254-2.259-0.699-3.255C36.525,6.858,36.024,10.662,35.993,10.869z M30,8c0,3.309-2.691,6-6,6c-3.309,0-6-2.691-6-6
		c0-3.309,2.691-6,6-6C27.309,2,30,4.691,30,8z M16.699,4.745C16.253,5.741,16,6.84,16,8c0,2.228,0.917,4.245,2.392,5.697
		l-4.648,2.314c-0.356,0.029-0.686,0.136-0.997,0.282l-0.744-5.451C11.975,10.659,11.475,6.857,16.699,4.745z M12.75,20
		c0-0.419,0.077-0.818,0.212-1.151c0.013-0.033,0.034-0.062,0.043-0.097c0.043-0.092,0.087-0.182,0.139-0.26
		C13.438,18.051,13.773,18,14,18c0.155,0,0.307-0.036,0.446-0.105l5.747-2.861C21.325,15.65,22.623,16,24,16
		c1.374,0,2.667-0.349,3.798-0.961l5.757,2.857C33.694,17.964,33.846,18,34,18c0.989,0,1.25,1.308,1.25,2c0,0.692-0.261,2-1.25,2
		c-0.552,0-1,0.448-1,1c0,0.191-0.026,0.375-0.042,0.562C31.191,22.978,27.684,22,24,22c-3.699,0-7.206,0.981-8.958,1.561
		C15.025,23.375,15,23.19,15,23c0-0.552-0.448-1-1-1C13.011,22,12.75,20.692,12.75,20z M15.51,25.516C17.072,24.992,20.493,24,24,24
		c3.49,0,6.909,0.988,8.489,1.516C30.945,29.379,26.228,32,24,32c-1.12,0-2.87-0.668-4.532-1.817l-0.001-0.001
		C17.824,29.047,16.278,27.437,15.51,25.516z M2,40.491c0-5.851,4.92-6.814,12.949-7.902c1.227-0.167,2.491-0.342,3.743-0.547
		c1.525,0.98,3.084,1.611,4.323,1.846L23.001,46H2V40.491z M46,46H25.001l0.014-12.118c1.236-0.239,2.784-0.869,4.299-1.844
		c1.316,0.216,2.63,0.399,3.902,0.572C41.142,33.69,46,34.647,46,40.491V46z"/>
	<path d="M16,39h-2v-2c0-0.552-0.448-1-1-1c-0.552,0-1,0.448-1,1v2h-2c-0.552,0-1,0.448-1,1c0,0.552,0.448,1,1,1h2v2
		c0,0.552,0.448,1,1,1c0.552,0,1-0.448,1-1v-2h2c0.552,0,1-0.448,1-1C17,39.448,16.552,39,16,39z"/>
	<circle cx="28" cy="39" r="1"/>
	<circle cx="28" cy="43" r="1"/>
	<path d="M24,12c2.206,0,4-1.794,4-4c0-2.206-1.794-4-4-4c-2.206,0-4,1.794-4,4C20,10.206,21.794,12,24,12z M24,6
		c1.103,0,2,0.897,2,2s-0.897,2-2,2s-2-0.897-2-2S22.897,6,24,6z"/>
</g>
</svg>
