<?xml version="1.0" encoding="utf-8"?>
<!-- Generator: Adobe Illustrator 17.0.0, SVG Export Plug-In . SVG Version: 6.00 Build 0)  -->
<!DOCTYPE svg PUBLIC "-//W3C//DTD SVG 1.1//EN" "http://www.w3.org/Graphics/SVG/1.1/DTD/svg11.dtd">
<svg version="1.1" id="Layer_1" xmlns="http://www.w3.org/2000/svg" xmlns:xlink="http://www.w3.org/1999/xlink" x="0px" y="0px"
	 width="48px" height="48px" viewBox="0 0 48 48" enable-background="new 0 0 48 48" xml:space="preserve">
<g>
	<path fill="#231F20" d="M42.6,35.241c-1.703-1.277-4.046-1.581-6.311-1.875C32.272,32.845,30,32.387,30,29.041v-1.946
		c1.104,0.816,2.556,1.296,4.141,1.296c2.752,0,5.262-1.433,6.714-3.832c0.187-0.309,0.193-0.694,0.016-1.009
		c-0.177-0.315-0.51-0.509-0.871-0.509c-1.35,0-1.967-4.387-2.463-7.911C36.652,8.835,35.55,1,29.609,1
		C27.973,1,26.133,1.613,24,2.871C21.867,1.613,20.027,1,18.391,1c-5.94,0-7.042,7.834-7.928,14.129
		C9.968,18.654,9.351,23.041,8,23.041c-0.384,0-0.735,0.22-0.902,0.567c-0.166,0.347-0.119,0.758,0.121,1.058
		c1.789,2.237,4.173,3.468,6.713,3.468h0.001c1.515,0,2.955-0.458,4.067-1.218v2.125c0,3.346-2.273,3.804-6.289,4.325
		c-2.265,0.293-4.608,0.598-6.311,1.875c-4.29,3.218-5.349,11.292-5.392,11.635c-0.036,0.285,0.052,0.571,0.242,0.786
		C0.44,47.877,0.713,48,1,48h46c0.287,0,0.56-0.123,0.75-0.339c0.19-0.215,0.278-0.501,0.242-0.786
		C47.949,46.533,46.89,38.458,42.6,35.241z M2.181,46c0.427-2.21,1.651-7.083,4.42-9.159c1.228-0.922,3.187-1.207,5.116-1.459
		L19.091,46H2.181z M21.525,46L13.93,35.064c3.06-0.534,6.071-1.692,6.071-6.023v-4.886c0-0.387-0.226-0.722-0.558-0.887
		c-0.013-0.007-0.021-0.019-0.034-0.026c-0.023-0.011-2.213-1.181-1.445-7.071C18.667,15.068,19,13.754,19,13.041
		c0-0.552-0.448-1-1-1s-1,0.448-1,1c0,0.725-0.83,3-2,3c-0.552,0-1,0.448-1,1s0.448,1,1,1c0.289,0,0.557-0.047,0.813-0.12
		c-0.133,3.848,1.022,5.695,1.902,6.531c-0.646,0.893-2.005,1.682-3.782,1.682c-1.515,0-2.974-0.6-4.21-1.714
		c1.649-1.399,2.155-4.993,2.72-9.012C13.263,9.592,14.19,3,18.391,3c1.365,0,3.074,0.636,5.078,1.889
		c0.325,0.202,0.736,0.202,1.06,0C26.535,3.636,28.244,3,29.609,3c4.203,0,5.13,6.592,5.947,12.408
		c0.579,4.119,1.095,7.791,2.845,9.112c-1.098,1.202-2.598,1.871-4.26,1.871c-1.774,0-3.282-0.8-3.921-2.006
		c0.896-0.778,2.098-2.564,1.966-6.464c0.256,0.072,0.525,0.12,0.815,0.12c0.552,0,1-0.448,1-1s-0.448-1-1-1c-1.17,0-2-2.275-2-3
		c0-0.552-0.448-1-1-1s-1,0.448-1,1c0,0.713,0.333,2.026,1.036,3.129c0.749,5.737-1.307,6.852-1.404,6.9
		c-0.017,0.007-0.028,0.021-0.045,0.029c-0.068,0.031-0.127,0.074-0.185,0.119c-0.04,0.031-0.083,0.057-0.118,0.093
		c-0.05,0.052-0.085,0.113-0.123,0.174c-0.026,0.043-0.058,0.081-0.078,0.128c-0.027,0.063-0.035,0.133-0.049,0.202
		c-0.01,0.054-0.028,0.104-0.03,0.16C28.004,23.984,28,23.991,28,24v5.041c0,4.758,3.633,5.687,6.973,6.164L27.477,46H21.525z
		 M29.912,46l7.286-10.492c1.616,0.234,3.168,0.558,4.202,1.333c2.761,2.071,3.988,6.948,4.417,9.159H29.912z"/>
	<circle fill="#231F20" cx="20" cy="35.041" r="1"/>
	<circle fill="#231F20" cx="24" cy="36.041" r="1"/>
	<circle fill="#231F20" cx="28" cy="35.041" r="1"/>
</g>
<g id="nyt_x5F_exporter_x5F_info" display="none">
</g>
</svg>
