<?xml version="1.0" encoding="utf-8"?>
<!-- Generator: Adobe Illustrator 17.0.0, SVG Export Plug-In . SVG Version: 6.00 Build 0)  -->
<!DOCTYPE svg PUBLIC "-//W3C//DTD SVG 1.1//EN" "http://www.w3.org/Graphics/SVG/1.1/DTD/svg11.dtd">
<svg version="1.1" id="Layer_1" xmlns="http://www.w3.org/2000/svg" xmlns:xlink="http://www.w3.org/1999/xlink" x="0px" y="0px"
	 width="48px" height="48px" viewBox="0 0 48 48" enable-background="new 0 0 48 48" xml:space="preserve">
<g>
	<path fill="#231F20" d="M19.976,0c-6.066,0-11,5.832-11,13c0,4.564,2.005,8.579,5.024,10.899v4.396l-9.356,3.341
		C1.866,32.629,0,35.278,0,38.228V44h25v-2H2v-3.772c0-2.107,1.333-3.999,3.317-4.708L16,29.705v-4.598
		C17.235,25.676,18.573,26,19.976,26c1.421,0,2.776-0.331,4.024-0.913V29h2v-5.135c2.993-2.326,4.976-6.324,4.976-10.865
		C30.976,5.832,26.041,0,19.976,0z M19.976,2c4.406,0,8.077,3.895,8.845,9.014c-0.012,0.002-0.023,0.002-0.034,0.004
		c-2.907,0.562-4.704-0.387-6.412-3.374l-0.908-1.589L20.62,7.678C19.698,9.448,16.593,11,13.976,11
		c-1.017,0-1.891-0.169-2.752-0.521C12.16,5.627,15.725,2,19.976,2z M19.976,24c-4.962,0-9-4.935-9-11
		c0-0.162,0.014-0.32,0.02-0.481C11.934,12.835,12.904,13,13.976,13c2.749,0,5.762-1.307,7.47-3.1
		c1.594,2.218,3.474,3.271,5.862,3.271c0.529,0,1.086-0.06,1.668-0.163C28.972,19.069,24.936,24,19.976,24z"/>
	<path fill="#231F20" d="M43.252,28.5c-1.755,0-3.855,0.997-5.25,3.174c-1.234-1.941-3.106-3.115-5.136-3.115
		c-2.422,0-4.866,1.831-4.866,5.922c0,8.015,9.126,13.177,9.514,13.393C37.665,47.958,37.832,48,38,48
		c0.167,0,0.334-0.042,0.487-0.125c0.388-0.216,9.514-5.383,9.514-13.88C48.001,30.22,45.539,28.5,43.252,28.5z M37.998,45.83
		C36.193,44.689,30,40.347,30,34.48c0-2.419,1.098-3.922,2.866-3.922c1.46,0,3.32,1.162,4.185,3.758C37.187,34.725,37.569,35,38,35
		c0.431,0,0.812-0.275,0.948-0.684c0.879-2.636,2.795-3.817,4.303-3.817c1.696,0,2.749,1.34,2.749,3.495
		C46,40.275,39.8,44.683,37.998,45.83z"/>
</g>
<g id="nyt_x5F_exporter_x5F_info" display="none">
</g>
</svg>
