<?xml version="1.0" encoding="utf-8"?>
<!-- Generator: Adobe Illustrator 17.0.0, SVG Export Plug-In . SVG Version: 6.00 Build 0)  -->
<!DOCTYPE svg PUBLIC "-//W3C//DTD SVG 1.1//EN" "http://www.w3.org/Graphics/SVG/1.1/DTD/svg11.dtd">
<svg version="1.1" id="Layer_1" xmlns="http://www.w3.org/2000/svg" xmlns:xlink="http://www.w3.org/1999/xlink" x="0px" y="0px"
	 width="48px" height="48px" viewBox="0 0 48 48" enable-background="new 0 0 48 48" xml:space="preserve">
<g>
	<path fill="#231F20" d="M47.707,31.293l-5-5c-0.391-0.391-1.023-0.391-1.414,0l-13,13c-0.084,0.084-0.145,0.185-0.194,0.292
		c-0.012,0.026-0.024,0.051-0.033,0.078c-0.008,0.021-0.02,0.04-0.026,0.062l-2,7c-0.101,0.35-0.003,0.725,0.254,0.982
		C26.483,47.898,26.738,48,27,48c0.092,0,0.184-0.013,0.275-0.039l7-2c0.022-0.006,0.041-0.019,0.063-0.027
		c0.026-0.01,0.051-0.021,0.077-0.033c0.107-0.049,0.209-0.11,0.293-0.194l13-13C48.098,32.316,48.098,31.684,47.707,31.293z
		 M28.456,45.544l1.039-3.636l2.597,2.597L28.456,45.544z M34,43.586L30.414,40L38,32.414L41.586,36L34,43.586z M43,34.586
		L39.414,31L42,28.414L45.586,32L43,34.586z"/>
	<path fill="#231F20" d="M32.552,29.95l0.627-1.899c-0.671-0.222-2.367-0.94-4.162-1.7c-1.859-0.788-3.771-1.597-5.017-2.06v-3.713
		c0.966-0.646,2.74-2.295,2.974-5.791c0.392-0.185,0.731-0.487,0.992-0.893c0.344-0.535,0.534-1.233,0.534-1.965
		c0-1.184-0.466-2.151-1.204-2.667c0.535-1.247,1.348-3.344,0.81-5.502c-0.664-2.669-4.457-3.616-7.504-3.616
		c-2.7,0-5.984,0.743-7.161,2.767c-1.028-0.057-1.839,0.22-2.407,0.833c-1.382,1.49-0.595,4.29-0.173,5.794
		c0.004,0.012,0.007,0.023,0.01,0.035c-0.144,0.183-0.278,0.422-0.382,0.736C10.335,10.771,10.25,11.372,10.25,12
		c0,1.216,0.274,2.115,0.764,2.599c0.182,3.625,2.002,5.322,2.985,5.98v3.751c-1.337,0.533-2.807,1.028-4.235,1.51
		c-4.21,1.418-7.847,2.644-8.578,4.846C0.205,33.645,0.008,38.748,0,38.964c-0.01,0.271,0.092,0.535,0.28,0.73
		C0.469,39.89,0.728,40,1,40h21v-2H2.056c0.107-1.615,0.386-4.745,1.029-6.685c0.416-1.255,4.243-2.545,7.318-3.581
		c1.684-0.567,3.424-1.154,4.986-1.813C15.759,25.765,16,25.402,16,25v-5c0-0.405-0.244-0.77-0.619-0.924
		C15.358,19.066,13,18.046,13,14c0-0.415-0.253-0.772-0.614-0.923c-0.182-0.477-0.182-1.677,0-2.154C12.747,10.772,13,10.416,13,10
		c0-0.244-0.071-0.498-0.213-1.004c-0.225-0.798-0.906-3.225-0.286-3.894c0.271-0.291,0.976-0.201,1.37-0.122
		c0.522,0.106,1.038-0.22,1.167-0.739c0.298-1.196,2.689-2.098,5.564-2.098c2.874,0,5.265,0.902,5.563,2.099
		c0.411,1.652-0.384,3.487-0.811,4.473C25.126,9.243,25,9.533,25,9.858c0,0.552,0.448,1,1,1c0.341,0,0.5,0.639,0.5,1.071
		S26.341,13,26,13c-0.552,0-1,0.448-1,1c0,3.973-2.295,5.037-2.381,5.076C22.244,19.23,22,19.595,22,20v5
		c0,0.435,0.281,0.819,0.696,0.952c1.045,0.335,3.434,1.347,5.542,2.24C30.151,29.003,31.803,29.702,32.552,29.95z"/>
</g>
<g id="nyt_x5F_exporter_x5F_info" display="none">
</g>
</svg>
