<?xml version="1.0" encoding="utf-8"?>
<!-- Generator: Adobe Illustrator 17.0.0, SVG Export Plug-In . SVG Version: 6.00 Build 0)  -->
<!DOCTYPE svg PUBLIC "-//W3C//DTD SVG 1.1//EN" "http://www.w3.org/Graphics/SVG/1.1/DTD/svg11.dtd">
<svg version="1.1" id="Layer_1" xmlns="http://www.w3.org/2000/svg" xmlns:xlink="http://www.w3.org/1999/xlink" x="0px" y="0px"
	 width="48px" height="48px" viewBox="0 0 48 48" enable-background="new 0 0 48 48" xml:space="preserve">
<g>
	<path fill="#231F20" d="M36.932,26.001c-6.065,0-11,4.935-11,11s4.935,11,11,11s11-4.935,11-11S42.997,26.001,36.932,26.001z
		 M36.932,46.001c-4.963,0-9-4.038-9-9c0-4.962,4.037-9,9-9c4.962,0,9,4.038,9,9C45.932,41.963,41.895,46.001,36.932,46.001z"/>
	<path fill="#231F20" d="M42,36.001H32c-0.553,0-1,0.448-1,1s0.447,1,1,1h10c0.553,0,1-0.448,1-1S42.553,36.001,42,36.001z"/>
	<path fill="#231F20" d="M27.62,27.654l0.627-1.899L28.14,25.72c-1.341-0.443-2.722-0.899-4.138-1.417v-3.727
		c0.972-0.651,2.763-2.318,2.978-5.863c0.734-0.47,1.195-1.487,1.195-2.786c0-1.139-0.356-2.062-0.938-2.589
		c0.487-1.231,1.281-3.376,0.734-5.581c-0.665-2.668-4.44-3.615-7.471-3.615c-0.001,0-0.002,0-0.002,0
		c-2.685,0-5.952,0.743-7.125,2.767c-1.034-0.056-1.834,0.221-2.396,0.833c-1.337,1.453-0.594,4.155-0.153,5.68
		c-0.233,0.19-0.434,0.439-0.591,0.74C9.971,10.665,9.826,11.318,9.826,12c0,1.269,0.462,2.263,1.196,2.722
		c0.217,3.54,2.007,5.206,2.979,5.856v3.728c-1.238,0.452-2.521,0.875-3.768,1.287c-4.701,1.552-8.415,2.778-9.182,5.092
		C0.064,33.657,0.002,38.774,0,38.99c-0.003,0.267,0.102,0.524,0.289,0.715C0.477,39.894,0.733,40.001,1,40.001h21v-1.999H2.03
		c0.067-1.603,0.275-4.745,0.919-6.686c0.45-1.361,4.413-2.668,7.91-3.822c1.485-0.491,3.022-0.997,4.496-1.558
		C15.743,25.788,16,25.416,16,25.001v-5c0-0.405-0.244-0.77-0.618-0.924C15.357,19.067,13,18.047,13,14.001
		c0-0.553-0.364-0.974-0.916-0.974c-0.07-0.055-0.259-0.402-0.259-1.026c0-0.624,0.19-0.971,0.175-1c0.553,0,1-0.448,1-1
		c0-0.25-0.075-0.51-0.224-1.027c-0.231-0.795-0.933-3.217-0.327-3.877c0.192-0.208,0.683-0.251,1.354-0.116
		c0.524,0.103,1.038-0.22,1.168-0.739c0.297-1.196,2.673-2.098,5.527-2.098c0.001,0,0.001,0,0.002,0
		c2.854,0,5.231,0.902,5.529,2.098c0.416,1.676-0.318,3.522-0.713,4.514C25.112,9.268,25,9.55,25,9.858
		c0,0.265,0.105,0.519,0.293,0.706c0.17,0.171,0.396,0.273,0.635,0.291c0.085,0.112,0.246,0.473,0.246,1.074
		s-0.161,0.963-0.246,1.074C25.409,13.04,25,13.473,25,14.001c0,3.972-2.296,5.037-2.382,5.076C22.244,19.231,22,19.596,22,20.001v5
		c0,0.416,0.258,0.788,0.649,0.931c1.68,0.635,3.299,1.169,4.863,1.686L27.62,27.654z"/>
</g>
<g id="nyt_x5F_exporter_x5F_info" display="none">
</g>
</svg>
