<?xml version="1.0" encoding="utf-8"?>
<!-- Generator: Adobe Illustrator 17.0.0, SVG Export Plug-In . SVG Version: 6.00 Build 0)  -->
<!DOCTYPE svg PUBLIC "-//W3C//DTD SVG 1.1//EN" "http://www.w3.org/Graphics/SVG/1.1/DTD/svg11.dtd">
<svg version="1.1" id="Layer_1" xmlns="http://www.w3.org/2000/svg" xmlns:xlink="http://www.w3.org/1999/xlink" x="0px" y="0px"
	 width="48px" height="48px" viewBox="0 0 48 48" enable-background="new 0 0 48 48" xml:space="preserve">
<path fill="#231F20" d="M40.354,36.635L31,33.295v-4.61c2.866-2.349,4.75-6.259,4.75-10.685c0-7.168-4.935-13-11-13s-11,5.832-11,13
	c0,4.676,2.107,8.771,5.25,11.061v4.234l-9.355,3.341C6.867,37.629,5,40.278,5,43.228V48h40v-4.772
	C45,40.278,43.133,37.629,40.354,36.635z M24.75,7c4.406,0,8.077,3.895,8.845,9.014c-0.012,0.002-0.022,0.002-0.034,0.004
	c-2.908,0.562-4.704-0.387-6.412-3.374l-0.908-1.589l-0.847,1.623C24.471,14.448,21.366,16,18.75,16
	c-1.018,0-1.892-0.169-2.752-0.521C16.934,10.627,20.499,7,24.75,7z M15.75,18c0-0.162,0.014-0.32,0.02-0.48
	c0.937,0.315,1.908,0.48,2.98,0.48c2.748,0,5.761-1.307,7.469-3.1c1.594,2.219,3.474,3.271,5.863,3.271
	c0.528,0,1.087-0.059,1.668-0.162C33.746,24.07,29.71,29,24.75,29C19.788,29,15.75,24.065,15.75,18z M43,46H7v-2.772
	c0-2.107,1.333-3.999,3.318-4.708L21,34.705v-4.5C22.172,30.71,23.432,31,24.75,31c1.506,0,2.942-0.361,4.25-1.011v4.716
	l10.681,3.815C41.666,39.229,43,41.121,43,43.228V46z"/>
<g id="nyt_x5F_exporter_x5F_info" display="none">
</g>
</svg>
