<?xml version="1.0" encoding="utf-8"?>
<!-- Generator: Adobe Illustrator 17.0.0, SVG Export Plug-In . SVG Version: 6.00 Build 0)  -->
<!DOCTYPE svg PUBLIC "-//W3C//DTD SVG 1.1//EN" "http://www.w3.org/Graphics/SVG/1.1/DTD/svg11.dtd">
<svg version="1.1" id="Layer_1" xmlns="http://www.w3.org/2000/svg" xmlns:xlink="http://www.w3.org/1999/xlink" x="0px" y="0px"
	 width="48px" height="48px" viewBox="0 0 48 48" enable-background="new 0 0 48 48" xml:space="preserve">
<g>
	<path fill="#231F20" d="M30.977,13c0-7.168-4.935-13-11-13c-6.066,0-11,5.832-11,13c0,4.564,2.004,8.578,5.023,10.899v4.396
		l-9.356,3.341C1.866,32.629,0,35.278,0,38.228V44h23v-2H2v-3.772c0-2.107,1.333-3.999,3.316-4.708L16,29.705v-4.598
		C17.235,25.676,18.573,26,19.977,26c1.421,0,2.775-0.331,4.023-0.913V29h2v-5.135C28.993,21.54,30.977,17.541,30.977,13z M19.977,2
		c4.407,0,8.077,3.895,8.845,9.015c-0.012,0.002-0.022,0.001-0.034,0.003c-2.903,0.56-4.704-0.387-6.411-3.374l-0.908-1.589
		l-0.847,1.623C19.699,9.448,16.593,11,13.977,11c-1.018,0-1.892-0.169-2.752-0.522C12.161,5.627,15.725,2,19.977,2z M19.977,24
		c-4.963,0-9-4.935-9-11c0-0.162,0.014-0.32,0.02-0.481C11.935,12.835,12.905,13,13.977,13c2.748,0,5.762-1.307,7.47-3.1
		c1.593,2.218,3.473,3.271,5.861,3.271c0.528,0,1.087-0.059,1.669-0.161C28.972,19.07,24.938,24,19.977,24z"/>
	<path fill="#231F20" d="M44.777,29.222C42.7,27.144,39.938,26,37,26c-2.939,0-5.701,1.144-7.779,3.222
		c-4.288,4.289-4.288,11.268,0,15.556C31.299,46.856,34.061,48,37,48c2.938,0,5.7-1.144,7.777-3.222C46.855,42.7,48,39.938,48,37
		S46.855,31.299,44.777,29.222z M30.635,30.636C32.335,28.936,34.596,28,37,28c2.068,0,4.027,0.696,5.616,1.972L29.971,42.617
		C27.146,39.087,27.366,33.907,30.635,30.636z M43.363,43.364C41.664,45.064,39.404,46,37,46c-2.066,0-4.025-0.696-5.614-1.97
		L44.03,31.386C45.304,32.976,46,34.934,46,37C46,39.404,45.063,41.664,43.363,43.364z"/>
</g>
<g id="nyt_x5F_exporter_x5F_info" display="none">
</g>
</svg>
