<?xml version="1.0" encoding="utf-8"?>
<!-- Generator: Adobe Illustrator 17.0.0, SVG Export Plug-In . SVG Version: 6.00 Build 0)  -->
<!DOCTYPE svg PUBLIC "-//W3C//DTD SVG 1.1//EN" "http://www.w3.org/Graphics/SVG/1.1/DTD/svg11.dtd">
<svg version="1.1" id="Layer_1" xmlns="http://www.w3.org/2000/svg" xmlns:xlink="http://www.w3.org/1999/xlink" x="0px" y="0px"
	 width="48px" height="48px" viewBox="0 0 48 48" enable-background="new 0 0 48 48" xml:space="preserve">
<g>
	<path fill="#231F20" d="M30.75,12.999c0-7.168-4.935-13-11-13s-11,5.832-11,13c0,4.675,2.107,8.77,5.25,11.061v4.234l-9.356,3.341
		C1.866,32.628,0,35.277,0,38.227v5.772h22v-2H2v-3.772c0-2.108,1.333-4,3.317-4.709L16,29.704v-4.5
		c1.172,0.505,2.432,0.795,3.75,0.795c1.506,0,2.942-0.361,4.25-1.011v4.011h2v-5.315C28.866,21.335,30.75,17.424,30.75,12.999z
		 M19.75,1.999c4.406,0,8.077,3.894,8.845,9.013c-0.012,0.002-0.022,0.001-0.034,0.003c-2.91,0.561-4.704-0.386-6.412-3.373
		l-0.908-1.589l-0.847,1.623c-0.923,1.77-4.028,3.322-6.644,3.322c-0.998,0-1.888-0.174-2.751-0.525
		C11.937,5.623,15.5,1.999,19.75,1.999z M19.75,24c-4.962-0.001-9-4.936-9-11.001c0-0.163,0.014-0.322,0.02-0.484
		c0.94,0.317,1.911,0.483,2.98,0.483c2.748,0,5.761-1.307,7.469-3.1c1.594,2.219,3.474,3.271,5.863,3.271
		c0.528,0,1.087-0.059,1.668-0.161C28.746,19.069,24.71,24,19.75,24z"/>
	<path fill="#231F20" d="M47.94,33.658c-0.143-0.396-0.519-0.66-0.94-0.66h-6.341l-2.727-6.387
		c-0.158-0.367-0.519-0.607-0.919-0.607h-0.001c-0.399,0-0.76,0.237-0.918,0.604l-2.753,6.39h-6.342c-0.42,0-0.797,0.264-0.94,0.66
		s-0.023,0.839,0.3,1.109l5.455,4.543l-2.751,7.338c-0.154,0.412-0.021,0.876,0.328,1.144s0.832,0.276,1.19,0.021L37,43.233
		l6.419,4.581C43.593,47.938,43.797,48,44,48c0.215,0,0.43-0.069,0.608-0.207c0.35-0.267,0.482-0.732,0.328-1.144l-2.751-7.339
		l5.455-4.543C47.963,34.497,48.083,34.054,47.94,33.658z M40.36,38.228c-0.326,0.273-0.445,0.721-0.296,1.12l1.85,4.935
		l-4.333-3.092c-0.174-0.124-0.377-0.186-0.581-0.186s-0.407,0.062-0.581,0.188l-4.333,3.091l1.85-4.935
		c0.149-0.399,0.031-0.848-0.296-1.12L29.763,35H34c0.399,0,0.76-0.238,0.918-0.605l2.091-4.853l2.071,4.85
		c0.158,0.368,0.52,0.607,0.92,0.607h4.237L40.36,38.228z"/>
</g>
<g id="nyt_x5F_exporter_x5F_info" display="none">
</g>
</svg>
