<?xml version="1.0" encoding="utf-8"?>
<!-- Generator: Adobe Illustrator 17.0.0, SVG Export Plug-In . SVG Version: 6.00 Build 0)  -->
<!DOCTYPE svg PUBLIC "-//W3C//DTD SVG 1.1//EN" "http://www.w3.org/Graphics/SVG/1.1/DTD/svg11.dtd">
<svg version="1.1" id="Layer_1" xmlns="http://www.w3.org/2000/svg" xmlns:xlink="http://www.w3.org/1999/xlink" x="0px" y="0px"
	 width="48px" height="48px" viewBox="0 0 48 48" enable-background="new 0 0 48 48" xml:space="preserve">
<g>
	<path fill="#231F20" d="M44.778,29.222C42.701,27.144,39.938,26,37,26c-2.939,0-5.701,1.144-7.779,3.222
		c-4.288,4.289-4.288,11.268,0,15.556C31.299,46.856,34.062,48,37,48s5.701-1.144,7.778-3.222C46.856,42.701,48,39.939,48,37
		C48,34.062,46.856,31.299,44.778,29.222z M30.635,30.636C32.335,28.936,34.596,28,37,28c2.068,0,4.026,0.696,5.616,1.972
		L29.971,42.617C27.146,39.086,27.366,33.906,30.635,30.636z M43.364,43.364C41.664,45.064,39.404,46,37,46
		c-2.066,0-4.025-0.696-5.614-1.969L44.03,31.386C45.304,32.976,46,34.933,46,37C46,39.404,45.064,41.664,43.364,43.364z"/>
	<path fill="#231F20" d="M28.38,25.757c-0.622-0.205-1.238-0.417-1.882-0.639c-0.773-0.266-1.587-0.546-2.498-0.845v-3.695
		c0.966-0.646,2.74-2.295,2.974-5.791c0.392-0.185,0.731-0.487,0.992-0.893c0.344-0.535,0.534-1.233,0.534-1.965
		c0-1.184-0.466-2.151-1.204-2.667c0.535-1.247,1.348-3.344,0.81-5.502c-0.664-2.669-4.457-3.616-7.504-3.616
		c-2.7,0-5.984,0.743-7.161,2.767c-1.024-0.055-1.839,0.22-2.407,0.833c-1.382,1.49-0.595,4.29-0.173,5.794
		c0.004,0.012,0.007,0.023,0.01,0.035c-0.144,0.183-0.278,0.422-0.382,0.736C10.335,10.771,10.25,11.372,10.25,12
		c0,1.216,0.274,2.115,0.764,2.599c0.182,3.625,2.002,5.322,2.985,5.98v3.751c-1.337,0.533-2.807,1.028-4.235,1.51
		c-4.21,1.418-7.847,2.644-8.578,4.846C0.205,33.645,0.008,38.748,0,38.964c-0.01,0.271,0.092,0.535,0.28,0.73
		C0.469,39.89,0.729,40,1,40h21v-2H2.056c0.107-1.615,0.386-4.745,1.029-6.685c0.416-1.255,4.243-2.545,7.318-3.581
		c1.684-0.567,3.424-1.154,4.986-1.813C15.759,25.765,16,25.402,16,25v-5c0-0.405-0.244-0.77-0.619-0.924
		C15.358,19.066,13,18.046,13,14c0-0.415-0.253-0.772-0.614-0.923c-0.182-0.477-0.182-1.677,0-2.154C12.747,10.772,13,10.416,13,10
		c0-0.244-0.071-0.498-0.214-1.004C12.561,8.198,11.88,5.771,12.5,5.102c0.271-0.291,0.975-0.201,1.37-0.122
		c0.524,0.106,1.04-0.22,1.168-0.739c0.298-1.196,2.689-2.098,5.564-2.098c2.874,0,5.265,0.902,5.563,2.099
		c0.411,1.652-0.384,3.487-0.811,4.473C25.126,9.243,25,9.533,25,9.858c0,0.552,0.448,1,1,1c0.341,0,0.5,0.639,0.5,1.071
		S26.341,13,26,13c-0.552,0-1,0.448-1,1c0,3.973-2.295,5.037-2.381,5.076C22.244,19.23,22,19.595,22,20v5
		c0,0.435,0.281,0.819,0.693,0.951c1.187,0.381,2.201,0.73,3.154,1.058c0.651,0.224,1.275,0.439,1.905,0.647L28.38,25.757z"/>
</g>
<g id="nyt_x5F_exporter_x5F_info" display="none">
</g>
</svg>
