<?xml version="1.0" encoding="utf-8"?>
<!-- Generator: Adobe Illustrator 17.0.0, SVG Export Plug-In . SVG Version: 6.00 Build 0)  -->
<!DOCTYPE svg PUBLIC "-//W3C//DTD SVG 1.1//EN" "http://www.w3.org/Graphics/SVG/1.1/DTD/svg11.dtd">
<svg version="1.1" id="Layer_1" xmlns="http://www.w3.org/2000/svg" xmlns:xlink="http://www.w3.org/1999/xlink" x="0px" y="0px"
	 width="48px" height="48px" viewBox="0 0 48 48" enable-background="new 0 0 48 48" xml:space="preserve">
<g>
	<path fill="#231F20" d="M29.245,25.758c-0.463-0.153-0.996-0.309-1.546-0.47c-0.91-0.266-1.996-0.584-2.699-0.892v-3.817
		c0.984-0.659,2.806-2.358,2.985-5.991c0.491-0.494,0.765-1.414,0.765-2.659c0-1.093-0.211-1.936-0.595-2.46
		c0.418-1.199,1.19-3.424,0.622-5.71c-0.664-2.669-4.413-3.616-7.423-3.616c-2.665,0-5.911,0.743-7.079,2.767
		c-1.034-0.058-1.824,0.22-2.379,0.831c-1.296,1.426-0.569,4.06-0.108,5.596c-0.287,0.178-0.54,0.425-0.745,0.733
		C10.692,10.596,10.5,11.281,10.5,12c0,1.317,0.603,2.36,1.526,2.789c0.235,3.494,2.008,5.143,2.974,5.789v3.711
		c-1.12,0.384-2.245,0.745-3.337,1.095c-5.033,1.614-9.007,2.89-9.806,5.302c-0.961,2.897-1.809,7.936-1.844,8.149
		c-0.049,0.29,0.034,0.587,0.224,0.811C0.427,39.871,0.706,40,1,40h22v-2H2.193c0.309-1.668,0.92-4.748,1.562-6.686
		c0.48-1.447,4.75-2.818,8.519-4.027c1.327-0.426,2.702-0.867,4.058-1.344C16.732,25.802,17,25.424,17,25v-5
		c0-0.405-0.244-0.77-0.618-0.924C16.357,19.066,14,18.046,14,14c0-0.552-0.447-1-1-1c-0.345,0-0.5-0.585-0.5-1
		c0-0.319,0.077-0.626,0.207-0.82C12.817,11.014,12.912,11,13,11c0.553,0,1-0.448,1-1c0-0.257-0.081-0.525-0.241-1.059
		c-0.239-0.793-0.969-3.21-0.382-3.855c0.184-0.2,0.666-0.239,1.33-0.106c0.523,0.106,1.038-0.22,1.168-0.739
		c0.296-1.196,2.653-2.098,5.48-2.098c2.828,0,5.184,0.902,5.481,2.099c0.427,1.711-0.222,3.574-0.572,4.575
		C26.094,9.305,26,9.574,26,9.857c0,0.413,0.249,0.767,0.605,0.919c0.189,0.5,0.189,1.805,0,2.305C26.249,13.234,26,13.588,26,14
		c0,3.973-2.296,5.037-2.382,5.076C23.244,19.23,23,19.595,23,20v5c0,0.34,0.174,0.658,0.459,0.842
		c0.83,0.532,2.278,0.955,3.678,1.365c0.527,0.154,1.038,0.304,1.481,0.45L29.245,25.758z"/>
	<path fill="#231F20" d="M47.707,46.293l-5.395-5.395C43.366,39.542,44,37.846,44,36c0-4.411-3.589-8-8-8s-8,3.589-8,8s3.589,8,8,8
		c1.846,0,3.543-0.634,4.898-1.688l5.395,5.395C46.488,47.902,46.744,48,47,48s0.512-0.098,0.707-0.293
		C48.098,47.316,48.098,46.684,47.707,46.293z M40.309,40.166c-0.027,0.022-0.061,0.032-0.086,0.057
		c-0.025,0.025-0.035,0.059-0.057,0.086C39.086,41.354,37.618,42,36,42c-3.309,0-6-2.691-6-6s2.691-6,6-6s6,2.691,6,6
		C42,37.618,41.354,39.086,40.309,40.166z"/>
</g>
<g id="nyt_x5F_exporter_x5F_info" display="none">
</g>
</svg>
