<?xml version="1.0" encoding="utf-8"?>
<!-- Generator: Adobe Illustrator 17.0.0, SVG Export Plug-In . SVG Version: 6.00 Build 0)  -->
<!DOCTYPE svg PUBLIC "-//W3C//DTD SVG 1.1//EN" "http://www.w3.org/Graphics/SVG/1.1/DTD/svg11.dtd">
<svg version="1.1" id="Layer_1" xmlns="http://www.w3.org/2000/svg" xmlns:xlink="http://www.w3.org/1999/xlink" x="0px" y="0px"
	 width="48px" height="48px" viewBox="0 0 48 48" enable-background="new 0 0 48 48" xml:space="preserve">
<g>
	<path fill="#231F20" d="M24.002,24.162v-3.726c0.972-0.651,2.763-2.318,2.978-5.863c0.734-0.47,1.195-1.487,1.195-2.786
		c0-1.139-0.356-2.062-0.938-2.589c0.487-1.232,1.281-3.377,0.734-5.581c-0.664-2.669-4.44-3.616-7.471-3.616
		c-0.001,0-0.002,0-0.002,0c-2.685,0-5.952,0.743-7.125,2.767c-1.036-0.058-1.834,0.22-2.397,0.832
		c-1.336,1.454-0.594,4.155-0.153,5.679c-0.232,0.19-0.433,0.439-0.59,0.74c-0.263,0.503-0.407,1.156-0.407,1.838
		c0,1.269,0.462,2.263,1.196,2.722c0.217,3.54,2.007,5.206,2.979,5.856v3.728c-1.238,0.452-2.52,0.876-3.767,1.287
		c-4.703,1.552-8.416,2.777-9.183,5.093C0.065,33.514,0.002,38.631,0,38.847c-0.003,0.267,0.102,0.524,0.289,0.714
		C0.477,39.75,0.733,39.857,1,39.857h24v-1.999H2.03c0.067-1.603,0.275-4.746,0.919-6.686c0.451-1.361,4.414-2.669,7.911-3.823
		c1.485-0.49,3.021-0.997,4.495-1.557C15.743,25.644,16,25.272,16,24.857v-5c0-0.404-0.244-0.77-0.618-0.924
		C15.357,18.923,13,17.903,13,13.857c0-0.553-0.364-0.974-0.916-0.974c-0.07-0.055-0.259-0.402-0.259-1.026s0.19-0.971,0.175-1
		c0.553,0,1-0.448,1-1c0-0.25-0.075-0.509-0.225-1.026c-0.23-0.796-0.932-3.218-0.326-3.877c0.19-0.209,0.683-0.251,1.354-0.116
		c0.521,0.102,1.039-0.22,1.168-0.739c0.297-1.196,2.673-2.098,5.527-2.098c0.001,0,0.001,0,0.002,0
		c2.854,0,5.232,0.902,5.529,2.098c0.416,1.676-0.318,3.522-0.713,4.514C25.112,9.125,25,9.407,25,9.715
		c0,0.265,0.105,0.519,0.293,0.705c0.17,0.171,0.396,0.273,0.635,0.291c0.085,0.112,0.246,0.473,0.246,1.074
		c0,0.601-0.161,0.963-0.246,1.074C25.409,12.897,25,13.329,25,13.857c0,3.973-2.296,5.038-2.382,5.076
		C22.244,19.087,22,19.452,22,19.857v5c0,0.416,0.258,0.789,0.648,0.936c1.508,0.569,2.985,1.055,4.415,1.526l0.591,0.195
		l0.627-1.899l-0.592-0.195C26.487,25.024,25.25,24.617,24.002,24.162z"/>
	<path fill="#231F20" d="M47,32.857h-1v-1c0-3.86-3.141-7-7-7s-7,3.14-7,7v1h-1c-0.553,0-1,0.448-1,1v13c0,0.552,0.447,1,1,1h16
		c0.553,0,1-0.447,1-1v-13C48,33.305,47.553,32.857,47,32.857z M34,31.857c0-2.757,2.243-5,5-5s5,2.243,5,5v1H34V31.857z M46,45.857
		H32v-11h14V45.857z"/>
	<path fill="#231F20" d="M38.044,40.64C38.027,40.712,38,40.78,38,40.857v2c0,0.552,0.447,1,1,1s1-0.447,1-1v-2
		c0-0.101-0.03-0.192-0.057-0.284c0.589-0.348,0.989-0.983,0.989-1.716c0-1.105-0.897-2-2-2c-1.105,0-2,0.895-2,2
		C36.932,39.641,37.387,40.312,38.044,40.64z"/>
</g>
<g id="nyt_x5F_exporter_x5F_info" display="none">
</g>
</svg>
