<?xml version="1.0" encoding="utf-8"?>
<!-- Generator: Adobe Illustrator 17.0.0, SVG Export Plug-In . SVG Version: 6.00 Build 0)  -->
<!DOCTYPE svg PUBLIC "-//W3C//DTD SVG 1.1//EN" "http://www.w3.org/Graphics/SVG/1.1/DTD/svg11.dtd">
<svg version="1.1" id="Layer_1" xmlns="http://www.w3.org/2000/svg" xmlns:xlink="http://www.w3.org/1999/xlink" x="0px" y="0px"
	 width="48px" height="48px" viewBox="0 0 48 48" enable-background="new 0 0 48 48" xml:space="preserve">
<g>
	<path fill="#231F20" d="M37,26.001c-6.065,0-11,4.935-11,11s4.935,11,11,11s11-4.935,11-11S43.065,26.001,37,26.001z M37,46.001
		c-4.963,0-9-4.038-9-9c0-4.962,4.037-9,9-9s9,4.038,9,9C46,41.963,41.963,46.001,37,46.001z"/>
	<path fill="#231F20" d="M42,36.001h-4v-4c0-0.552-0.447-1-1-1s-1,0.448-1,1v4h-4c-0.553,0-1,0.448-1,1s0.447,1,1,1h4v4
		c0,0.552,0.447,1,1,1s1-0.448,1-1v-4h4c0.553,0,1-0.448,1-1S42.553,36.001,42,36.001z"/>
	<path fill="#231F20" d="M27.62,27.513l0.627-1.899l-0.133-0.044c-1.333-0.44-2.706-0.893-4.112-1.408v-3.727
		c0.972-0.651,2.763-2.318,2.978-5.863c0.734-0.471,1.195-1.488,1.195-2.787c0-1.139-0.356-2.062-0.938-2.589
		c0.487-1.232,1.282-3.376,0.734-5.581c-0.665-2.669-4.44-3.616-7.471-3.616c-0.001,0-0.002,0-0.002,0
		c-2.685,0-5.952,0.744-7.125,2.768c-1.038-0.058-1.833,0.22-2.396,0.832c-1.336,1.453-0.594,4.155-0.153,5.68
		c-0.233,0.19-0.434,0.439-0.591,0.74c-0.263,0.503-0.407,1.156-0.407,1.838c0,1.269,0.462,2.263,1.196,2.722
		c0.217,3.54,2.007,5.206,2.979,5.856v3.728c-1.238,0.453-2.521,0.876-3.768,1.288c-4.702,1.552-8.415,2.778-9.182,5.092
		C0.064,33.515,0.002,38.769,0,38.991c-0.003,0.267,0.102,0.524,0.289,0.714C0.477,39.894,0.733,40.001,1,40.001h21v-2H2.029
		c0.065-1.637,0.273-4.88,0.92-6.828c0.45-1.361,4.413-2.668,7.91-3.822c1.485-0.491,3.022-0.998,4.496-1.558
		C15.743,25.645,16,25.273,16,24.858v-5c0-0.405-0.244-0.77-0.618-0.924C15.357,18.924,13,17.904,13,13.858
		c0-0.553-0.364-0.974-0.916-0.974c-0.07-0.055-0.259-0.402-0.259-1.026c0-0.624,0.19-0.971,0.175-1c0.553,0,1-0.448,1-1
		c0-0.25-0.075-0.509-0.225-1.025c-0.23-0.796-0.932-3.219-0.326-3.878c0.191-0.208,0.684-0.25,1.354-0.116
		c0.521,0.103,1.038-0.22,1.168-0.739c0.297-1.197,2.673-2.099,5.527-2.099c0.001,0,0.001,0,0.002,0
		c2.854,0,5.231,0.903,5.529,2.099c0.417,1.675-0.318,3.521-0.713,4.513C25.112,9.125,25,9.407,25,9.715
		c0,0.528,0.409,0.96,0.928,0.997c0.085,0.112,0.246,0.473,0.246,1.074s-0.161,0.963-0.246,1.074C25.409,12.898,25,13.33,25,13.858
		c0,3.973-2.296,5.037-2.382,5.076C22.244,19.088,22,19.453,22,19.858v5c0,0.416,0.258,0.789,0.649,0.935
		c1.672,0.631,3.281,1.162,4.837,1.676L27.62,27.513z"/>
</g>
<g id="nyt_x5F_exporter_x5F_info" display="none">
</g>
</svg>
