<?xml version="1.0" encoding="utf-8"?>
<!-- Generator: Adobe Illustrator 17.0.0, SVG Export Plug-In . SVG Version: 6.00 Build 0)  -->
<!DOCTYPE svg PUBLIC "-//W3C//DTD SVG 1.1//EN" "http://www.w3.org/Graphics/SVG/1.1/DTD/svg11.dtd">
<svg version="1.1" id="Layer_1" xmlns="http://www.w3.org/2000/svg" xmlns:xlink="http://www.w3.org/1999/xlink" x="0px" y="0px"
	 width="48px" height="48px" viewBox="0 0 48 48" enable-background="new 0 0 48 48" xml:space="preserve">
<g>
	<path fill="#231F20" d="M47.94,33.66C47.797,33.264,47.421,33,47,33h-6.339l-2.728-6.393c-0.157-0.367-0.518-0.606-0.918-0.607
		c-0.384-0.018-0.762,0.238-0.92,0.605L33.342,33H27c-0.421,0-0.797,0.264-0.941,0.659c-0.143,0.396-0.023,0.839,0.301,1.109
		l5.454,4.541l-2.751,7.34c-0.154,0.412-0.021,0.876,0.328,1.144c0.348,0.268,0.831,0.275,1.19,0.021L37,43.234l6.419,4.58
		C43.593,47.938,43.797,48,44,48c0.215,0,0.43-0.069,0.608-0.206c0.35-0.268,0.482-0.732,0.328-1.144l-2.751-7.34l5.454-4.541
		C47.963,34.499,48.083,34.056,47.94,33.66z M40.36,38.226c-0.327,0.272-0.446,0.722-0.297,1.12l1.851,4.937l-4.333-3.092
		c-0.174-0.124-0.377-0.186-0.581-0.186s-0.407,0.062-0.582,0.187l-4.333,3.092l1.851-4.937c0.149-0.399,0.03-0.848-0.297-1.12
		L29.764,35H34c0.399,0,0.761-0.238,0.918-0.604l2.091-4.857l2.071,4.854C39.237,34.761,39.6,35,40,35h4.236L40.36,38.226z"/>
	<path fill="#231F20" d="M28.245,25.758c-0.663-0.22-1.293-0.446-1.955-0.683c-0.705-0.253-1.444-0.518-2.29-0.8v-3.697
		c0.966-0.646,2.74-2.295,2.974-5.791c0.392-0.185,0.731-0.487,0.992-0.893c0.344-0.535,0.534-1.233,0.534-1.965
		c0-1.178-0.46-2.141-1.192-2.659c0.556-1.248,1.405-3.349,0.866-5.511c-0.663-2.67-4.467-3.617-7.522-3.616
		c-2.706,0-5.998,0.743-7.176,2.767c-1.026-0.058-1.842,0.219-2.413,0.833c-1.388,1.492-0.614,4.293-0.198,5.798
		c0.003,0.011,0.005,0.02,0.008,0.03c-0.145,0.183-0.279,0.423-0.384,0.738C10.335,10.771,10.25,11.372,10.25,12
		c0,1.216,0.274,2.115,0.764,2.598c0.182,3.625,2.002,5.322,2.985,5.98v3.752c-1.326,0.529-2.776,1.021-4.186,1.498
		c-4.2,1.423-7.826,2.651-8.559,4.858c-0.979,2.953-1.242,8.05-1.253,8.265c-0.014,0.273,0.086,0.54,0.274,0.739
		C0.464,39.888,0.726,40,1,40h21v-2H2.07c0.126-1.621,0.44-4.745,1.083-6.686c0.418-1.261,4.235-2.554,7.302-3.593
		c1.664-0.563,3.384-1.146,4.934-1.8C15.759,25.765,16,25.402,16,25v-5c0-0.405-0.244-0.77-0.619-0.924
		C15.358,19.066,13,18.046,13,14c0-0.415-0.253-0.772-0.614-0.923c-0.182-0.477-0.182-1.677,0-2.154C12.747,10.772,13,10.416,13,10
		c0-0.241-0.069-0.492-0.208-0.992C12.572,8.21,11.9,5.78,12.527,5.105c0.275-0.295,0.98-0.206,1.378-0.125
		c0.524,0.106,1.038-0.22,1.167-0.739c0.298-1.196,2.697-2.098,5.58-2.098c2.885,0,5.284,0.902,5.582,2.099
		c0.408,1.64-0.417,3.471-0.86,4.454C25.133,9.231,25,9.525,25,9.858c0,0.552,0.448,1,1,1c0.341,0,0.5,0.639,0.5,1.071
		S26.341,13,26,13c-0.552,0-1,0.448-1,1c0,3.973-2.295,5.037-2.381,5.076C22.244,19.23,22,19.595,22,20v5
		c0,0.435,0.281,0.819,0.694,0.952c1.125,0.361,2.049,0.693,2.92,1.005c0.678,0.244,1.324,0.475,2.003,0.7L28.245,25.758z"/>
</g>
<g id="nyt_x5F_exporter_x5F_info" display="none">
</g>
</svg>
