<?xml version="1.0" encoding="utf-8"?>
<!-- Generator: Adobe Illustrator 17.0.0, SVG Export Plug-In . SVG Version: 6.00 Build 0)  -->
<!DOCTYPE svg PUBLIC "-//W3C//DTD SVG 1.1//EN" "http://www.w3.org/Graphics/SVG/1.1/DTD/svg11.dtd">
<svg version="1.1" id="Layer_1" xmlns="http://www.w3.org/2000/svg" xmlns:xlink="http://www.w3.org/1999/xlink" x="0px" y="0px"
	 width="48px" height="48px" viewBox="0 0 48 48" enable-background="new 0 0 48 48" xml:space="preserve">
<g>
	<path fill="#231F20" d="M30.976,13c0-7.168-4.935-13-11-13c-6.066,0-11,5.832-11,13c0,4.565,2.005,8.579,5.024,10.899v4.396
		l-9.356,3.341C1.779,32.66,0,35.098,0,38v6h23v-2H2v-4c0-2.033,1.271-3.749,3.317-4.48L16,29.705v-4.597
		C17.235,25.676,18.573,26,19.976,26c1.421,0,2.776-0.331,4.024-0.913V29h2v-5.135C28.993,21.539,30.976,17.541,30.976,13z
		 M19.976,2c4.407,0,8.077,3.895,8.845,9.014c-0.012,0.002-0.023,0.002-0.035,0.005c-2.905,0.562-4.703-0.387-6.411-3.374
		l-0.908-1.589L20.62,7.679c-0.922,1.77-4.027,3.322-6.644,3.322c-1.017,0-1.891-0.17-2.752-0.523C12.161,5.626,15.725,2,19.976,2z
		 M19.976,24c-4.962,0-9-4.935-9-11c0-0.162,0.014-0.32,0.02-0.481C11.934,12.835,12.904,13,13.976,13c2.749,0,5.762-1.307,7.47-3.1
		c1.594,2.218,3.474,3.271,5.862,3.271c0.529,0,1.086-0.059,1.668-0.162C28.971,19.07,24.935,24,19.976,24z"/>
	<path fill="#231F20" d="M36.332,34c-2.206,0-4,1.794-4,4s1.794,4,4,4c2.206,0,4-1.794,4-4S38.538,34,36.332,34z M36.332,40
		c-1.103,0-2-0.897-2-2s0.897-2,2-2c1.103,0,2,0.897,2,2S37.435,40,36.332,40z"/>
	<path fill="#231F20" d="M46.095,35.491c0.068-0.256,0.032-0.529-0.1-0.759l-2-3.465c-0.271-0.467-0.861-0.635-1.337-0.382
		l-1.565,0.835c-0.708-0.522-1.493-0.893-2.092-1.13V29c0-0.552-0.448-1-1-1h-4c-0.552,0-1,0.448-1,1v1.606
		c-0.605,0.267-1.184,0.624-1.746,1.08l-1.281-0.773c-0.231-0.139-0.51-0.179-0.771-0.111c-0.261,0.069-0.484,0.24-0.617,0.475
		l-1.958,3.465c-0.271,0.479-0.104,1.087,0.374,1.36l1.394,0.796c-0.049,0.36-0.074,0.729-0.074,1.103
		c0,0.363,0.028,0.731,0.084,1.109l-1.37,0.792c-0.477,0.276-0.641,0.887-0.365,1.365l1.999,3.465
		c0.136,0.236,0.362,0.406,0.626,0.471c0.265,0.065,0.544,0.021,0.773-0.125l1.195-0.753c0.56,0.452,1.135,0.807,1.736,1.072V47
		c0,0.552,0.448,1,1,1h4c0.552,0,1-0.448,1.003-1v-1.589c0.595-0.236,1.377-0.604,2.082-1.124l1.477,0.819
		c0.473,0.262,1.071,0.098,1.346-0.367l2.042-3.465c0.135-0.229,0.173-0.503,0.106-0.76c-0.067-0.257-0.234-0.477-0.464-0.611
		l-1.353-0.789c0.064-0.396,0.095-0.761,0.095-1.115c0-0.363-0.027-0.733-0.081-1.107l1.376-0.794
		C45.859,35.966,46.026,35.747,46.095,35.491z M42.164,36.609c0.111,0.475,0.168,0.942,0.168,1.39c0,0.402-0.06,0.844-0.189,1.389
		c-0.101,0.428,0.09,0.872,0.47,1.094l1.102,0.643l-1.037,1.76l-1.222-0.678c-0.381-0.212-0.857-0.15-1.173,0.149
		c-0.575,0.545-1.541,1.067-2.585,1.397C37.283,43.885,37,44.271,37,44.707V46h-2v-1.293c0-0.436-0.283-0.822-0.7-0.954
		c-0.794-0.251-1.51-0.695-2.254-1.398c-0.332-0.313-0.834-0.364-1.22-0.119l-0.945,0.596l-0.98-1.699l1.121-0.648
		c0.382-0.221,0.574-0.666,0.473-1.095c-0.116-0.495-0.173-0.95-0.173-1.39c0-0.481,0.054-0.947,0.159-1.385
		c0.104-0.433-0.09-0.882-0.476-1.102l-1.146-0.655l0.962-1.703l1.026,0.619c0.387,0.234,0.879,0.18,1.205-0.13
		c0.727-0.69,1.464-1.146,2.25-1.395C34.717,32.117,35,31.731,35,31.295V30h2v1.294c0,0.435,0.282,0.821,0.698,0.952
		c1.044,0.332,2.011,0.855,2.586,1.398c0.312,0.296,0.778,0.359,1.158,0.156l1.304-0.696l1.016,1.761l-1.124,0.648
		C42.255,35.734,42.062,36.179,42.164,36.609z"/>
</g>
<g id="nyt_x5F_exporter_x5F_info" display="none">
</g>
</svg>
