<?xml version="1.0" encoding="utf-8"?>
<!-- Generator: Adobe Illustrator 17.0.0, SVG Export Plug-In . SVG Version: 6.00 Build 0)  -->
<!DOCTYPE svg PUBLIC "-//W3C//DTD SVG 1.1//EN" "http://www.w3.org/Graphics/SVG/1.1/DTD/svg11.dtd">
<svg version="1.1" id="Layer_1" xmlns="http://www.w3.org/2000/svg" xmlns:xlink="http://www.w3.org/1999/xlink" x="0px" y="0px"
	 width="48px" height="48px" viewBox="0 0 48 48" enable-background="new 0 0 48 48" xml:space="preserve">
<g>
	<path fill="#231F20" d="M19.977,0c-6.065,0-11,5.832-11,13c0,4.564,2.005,8.578,5.023,10.898v4.397l-9.356,3.341
		C1.866,32.629,0,35.278,0,38.229v5.772h25v-2H2v-3.772c0-2.108,1.333-4,3.316-4.709L16,29.704v-4.597
		C17.235,25.676,18.573,26,19.977,26c1.421,0,2.775-0.331,4.023-0.913V29h2v-5.135c2.993-2.325,4.977-6.324,4.977-10.865
		C30.977,5.832,26.042,0,19.977,0z M19.977,2c4.407,0,8.078,3.895,8.845,9.015c-0.012,0.002-0.023,0.001-0.034,0.003
		c-2.908,0.561-4.705-0.387-6.411-3.374l-0.908-1.589l-0.847,1.623C19.699,9.448,16.593,11,13.977,11
		c-1.018,0-1.892-0.169-2.752-0.521C12.161,5.627,15.725,2,19.977,2z M19.977,24c-4.963,0-9-4.935-9-11
		c0-0.162,0.014-0.32,0.02-0.481C11.934,12.835,12.905,13,13.977,13c2.748,0,5.762-1.307,7.47-3.1
		c1.593,2.218,3.473,3.271,5.861,3.271c0.528,0,1.087-0.059,1.669-0.162C28.973,19.07,24.938,24,19.977,24z"/>
	<path fill="#231F20" d="M47,33.001h-1v-1c0-3.86-3.141-7-7-7s-7,3.14-7,7v1h-1c-0.553,0-1,0.448-1,1v13c0,0.552,0.447,1,1,1h16
		c0.553,0,1-0.448,1-1v-13C48,33.449,47.553,33.001,47,33.001z M34,32.001c0-2.757,2.243-5,5-5s5,2.243,5,5v1H34V32.001z M46,46.001
		H32v-11h14V46.001z"/>
	<path fill="#231F20" d="M38.05,40.751c-0.022,0.082-0.05,0.161-0.05,0.25v2c0,0.552,0.447,1,1,1s1-0.448,1-1v-2
		c0-0.089-0.029-0.169-0.051-0.251C40.572,40.411,41,39.759,41,39.001c0-1.106-0.897-2-2-2c-1.106,0-2,0.894-2,2
		C37,39.759,37.427,40.412,38.05,40.751z"/>
</g>
<g id="nyt_x5F_exporter_x5F_info" display="none">
</g>
</svg>
