<?xml version="1.0" encoding="utf-8"?>
<!-- Generator: Adobe Illustrator 17.0.0, SVG Export Plug-In . SVG Version: 6.00 Build 0)  -->
<!DOCTYPE svg PUBLIC "-//W3C//DTD SVG 1.1//EN" "http://www.w3.org/Graphics/SVG/1.1/DTD/svg11.dtd">
<svg version="1.1" id="Layer_1" xmlns="http://www.w3.org/2000/svg" xmlns:xlink="http://www.w3.org/1999/xlink" x="0px" y="0px"
	 width="48px" height="48px" viewBox="0 0 48 48" enable-background="new 0 0 48 48" xml:space="preserve">
<g>
	<path fill="#231F20" d="M26,29v-5.135c2.993-2.325,4.977-6.324,4.977-10.865c0-7.168-4.935-13-11-13c-6.066,0-11,5.832-11,13
		c0,4.564,2.004,8.578,5.023,10.899v4.396l-9.356,3.341C1.866,32.628,0,35.278,0,38.228V44h23v-2H2v-3.772
		c0-2.107,1.333-3.999,3.317-4.708L16,29.705v-4.598C17.235,25.676,18.573,26,19.977,26c1.421,0,2.775-0.331,4.023-0.913V29H26z
		 M19.977,2c4.406,0,8.077,3.895,8.845,9.014c-0.012,0.002-0.023,0.002-0.035,0.004c-2.902,0.56-4.704-0.387-6.411-3.374
		l-0.908-1.589l-0.847,1.623C19.699,9.448,16.593,11,13.977,11c-1.018,0-1.893-0.169-2.752-0.521C12.161,5.627,15.725,2,19.977,2z
		 M19.977,24c-4.963,0-9-4.935-9-11c0-0.162,0.014-0.32,0.02-0.481C11.934,12.835,12.905,13,13.977,13c2.748,0,5.762-1.307,7.47-3.1
		c1.593,2.218,3.473,3.271,5.861,3.271c0.529,0,1.087-0.059,1.669-0.163C28.973,19.069,24.938,24,19.977,24z"/>
	<path fill="#231F20" d="M37,26c-6.065,0-11,4.935-11,11s4.935,11,11,11s11-4.935,11-11S43.065,26,37,26z M37,46
		c-4.963,0-9-4.038-9-9s4.037-9,9-9s9,4.038,9,9S41.963,46,37,46z"/>
	<path fill="#231F20" d="M42,36H32c-0.553,0-1,0.448-1,1s0.447,1,1,1h10c0.553,0,1-0.448,1-1S42.553,36,42,36z"/>
</g>
<g id="nyt_x5F_exporter_x5F_info" display="none">
</g>
</svg>
