<?xml version="1.0" encoding="utf-8"?>
<!-- Generator: Adobe Illustrator 17.0.0, SVG Export Plug-In . SVG Version: 6.00 Build 0)  -->
<!DOCTYPE svg PUBLIC "-//W3C//DTD SVG 1.1//EN" "http://www.w3.org/Graphics/SVG/1.1/DTD/svg11.dtd">
<svg version="1.1" id="Layer_1" xmlns="http://www.w3.org/2000/svg" xmlns:xlink="http://www.w3.org/1999/xlink" x="0px" y="0px"
	 width="48px" height="48px" viewBox="0 0 48 48" enable-background="new 0 0 48 48" xml:space="preserve">
<g>
	<path fill="#231F20" d="M19.977,0c-6.066,0-11,5.832-11,13c0,4.564,2.005,8.578,5.023,10.898v4.397l-9.356,3.341
		C1.866,32.629,0,35.278,0,38.229v5.772h25v-2H2v-3.772c0-2.108,1.333-4,3.316-4.709L16,29.704v-4.597
		C17.235,25.676,18.573,26,19.977,26c1.421,0,2.775-0.331,4.023-0.913V29h2v-5.135c2.993-2.325,4.977-6.324,4.977-10.865
		C30.977,5.832,26.042,0,19.977,0z M19.977,2c4.407,0,8.077,3.895,8.845,9.015c-0.012,0.002-0.023,0.001-0.035,0.003
		c-2.902,0.56-4.703-0.386-6.411-3.374l-0.908-1.589l-0.847,1.623C19.698,9.448,16.593,11,13.977,11
		c-0.993,0-1.883-0.174-2.751-0.527C12.164,5.624,15.727,2,19.977,2z M19.977,24c-4.962,0-9-4.935-9-11
		c0-0.165,0.014-0.326,0.02-0.489c0.948,0.318,1.93,0.489,2.98,0.489c2.748,0,5.761-1.307,7.469-3.1
		c1.594,2.218,3.474,3.271,5.862,3.271c0.529,0,1.087-0.059,1.669-0.163C28.973,19.07,24.937,24,19.977,24z"/>
	<path fill="#231F20" d="M47.707,46.294l-5.395-5.395C43.366,39.544,44,37.847,44,36.001c0-4.411-3.589-8-8-8s-8,3.589-8,8
		c0,4.411,3.589,8,8,8c1.846,0,3.543-0.634,4.898-1.688l5.395,5.395c0.195,0.195,0.451,0.293,0.707,0.293s0.512-0.098,0.707-0.293
		C48.098,47.317,48.098,46.685,47.707,46.294z M36,42.001c-3.309,0-6-2.691-6-6c0-3.309,2.691-6,6-6s6,2.691,6,6
		C42,39.31,39.309,42.001,36,42.001z"/>
</g>
<g id="nyt_x5F_exporter_x5F_info" display="none">
</g>
</svg>
