<?xml version="1.0" encoding="utf-8"?>
<!-- Generator: Adobe Illustrator 17.0.0, SVG Export Plug-In . SVG Version: 6.00 Build 0)  -->
<!DOCTYPE svg PUBLIC "-//W3C//DTD SVG 1.1//EN" "http://www.w3.org/Graphics/SVG/1.1/DTD/svg11.dtd">
<svg version="1.1" id="Layer_1" xmlns="http://www.w3.org/2000/svg" xmlns:xlink="http://www.w3.org/1999/xlink" x="0px" y="0px"
	 width="48px" height="48px" viewBox="0 0 48 48" enable-background="new 0 0 48 48" xml:space="preserve">
<g>
	<path fill="#231F20" d="M47.707,31.293l-5-5c-0.391-0.391-1.023-0.391-1.414,0l-13,13c-0.084,0.084-0.145,0.185-0.194,0.292
		c-0.012,0.026-0.024,0.051-0.033,0.078c-0.008,0.021-0.02,0.04-0.026,0.062l-2,7c-0.1,0.35-0.003,0.725,0.254,0.982
		C26.483,47.898,26.738,48,27,48c0.092,0,0.184-0.013,0.275-0.039l7-2c0.022-0.006,0.041-0.019,0.063-0.027
		c0.026-0.01,0.051-0.021,0.077-0.033c0.107-0.049,0.209-0.11,0.293-0.194l13-13C48.098,32.316,48.098,31.684,47.707,31.293z
		 M28.456,45.544l1.039-3.636l2.597,2.597L28.456,45.544z M34,43.586L30.414,40L38,32.414L41.586,36L34,43.586z M43,34.586
		L39.414,31L42,28.414L45.586,32L43,34.586z"/>
	<path fill="#231F20" d="M30.679,31.983l0.642-1.893L26,28.283v-4.598c2.866-2.349,4.75-6.259,4.75-10.685c0-7.168-4.935-13-11-13
		s-11,5.832-11,13c0,4.676,2.107,8.771,5.25,11.061v4.234l-9.356,3.341C1.866,32.629,0,35.278,0,38.228V44h22v-2H2v-3.772
		c0-2.107,1.333-3.999,3.317-4.708L16,29.705v-4.5C17.172,25.71,18.432,26,19.75,26c1.506,0,2.942-0.361,4.25-1.011v4.728
		L30.679,31.983z M19.75,2c4.406,0,8.077,3.895,8.845,9.014c-0.012,0.002-0.022,0.002-0.033,0.004
		c-2.909,0.561-4.705-0.387-6.412-3.374l-0.908-1.589l-0.847,1.623C19.471,9.448,16.366,11,13.75,11
		c-1.017,0-1.891-0.169-2.752-0.521C11.934,5.627,15.499,2,19.75,2z M19.75,24c-4.962,0-9-4.935-9-11c0-0.162,0.014-0.32,0.02-0.481
		C11.708,12.835,12.679,13,13.75,13c2.748,0,5.761-1.307,7.469-3.1c1.594,2.219,3.474,3.271,5.863,3.271
		c0.528,0,1.086-0.059,1.668-0.162C28.746,19.07,24.71,24,19.75,24z"/>
</g>
<g id="nyt_x5F_exporter_x5F_info" display="none">
</g>
</svg>
