<?xml version="1.0" encoding="utf-8"?>
<!-- Generator: Adobe Illustrator 17.0.0, SVG Export Plug-In . SVG Version: 6.00 Build 0)  -->
<!DOCTYPE svg PUBLIC "-//W3C//DTD SVG 1.1//EN" "http://www.w3.org/Graphics/SVG/1.1/DTD/svg11.dtd">
<svg version="1.1" id="Layer_1" xmlns="http://www.w3.org/2000/svg" xmlns:xlink="http://www.w3.org/1999/xlink" x="0px" y="0px"
	 width="48px" height="48px" viewBox="0 0 48 48" enable-background="new 0 0 48 48" xml:space="preserve">
<g>
	<path fill="#231F20" d="M43.252,28.5c-1.756,0-3.856,0.997-5.251,3.174c-1.234-1.941-3.106-3.115-5.135-3.115
		c-2.423,0-4.866,1.831-4.866,5.922c0,8.015,9.126,13.177,9.515,13.393C37.665,47.958,37.833,48,38,48s0.335-0.042,0.485-0.125
		C38.874,47.659,48,42.492,48,33.994C48,30.219,45.539,28.5,43.252,28.5z M37.999,45.83C36.193,44.689,30,40.347,30,34.48
		c0-2.419,1.097-3.922,2.866-3.922c1.459,0,3.319,1.162,4.186,3.758C37.187,34.725,37.569,35,38,35c0.431,0,0.812-0.275,0.948-0.684
		c0.879-2.637,2.795-3.817,4.304-3.817c1.695,0,2.748,1.339,2.748,3.494C46,40.275,39.801,44.683,37.999,45.83z"/>
	<path fill="#231F20" d="M29.245,25.758c-0.463-0.153-0.996-0.309-1.546-0.47c-0.91-0.266-1.996-0.584-2.699-0.892v-3.817
		c0.984-0.659,2.806-2.358,2.985-5.991c0.491-0.494,0.765-1.414,0.765-2.659c0-1.097-0.213-1.941-0.599-2.465
		c0.379-1.115,1.16-3.422,0.592-5.705c-0.664-2.669-4.407-3.616-7.412-3.616c-0.001,0-0.001,0-0.002,0
		c-2.662,0-5.903,0.743-7.071,2.767c-1.031-0.058-1.822,0.22-2.376,0.831c-1.298,1.43-0.586,3.976-0.095,5.597
		c-0.287,0.178-0.539,0.424-0.744,0.732C10.692,10.596,10.5,11.281,10.5,12c0,1.317,0.603,2.36,1.525,2.788
		c0.235,3.494,2.008,5.143,2.974,5.789v3.711c-1.131,0.387-2.268,0.751-3.37,1.104c-5.033,1.612-9.007,2.885-9.807,5.293
		c-0.961,2.9-1.776,7.943-1.81,8.156c-0.046,0.289,0.037,0.584,0.227,0.807C0.429,39.872,0.707,40,1,40h22v-2H2.186
		c0.298-1.665,0.893-4.746,1.536-6.686c0.478-1.442,4.749-2.81,8.518-4.017c1.338-0.429,2.726-0.873,4.092-1.354
		C16.732,25.802,17,25.424,17,25v-5c0-0.405-0.244-0.77-0.618-0.924C16.357,19.066,14,18.046,14,14c0-0.552-0.447-1-1-1
		c-0.345,0-0.5-0.585-0.5-1c0-0.319,0.077-0.626,0.207-0.82C12.817,11.014,12.912,11,13,11c0.553,0,1-0.448,1-1
		c0-0.259-0.082-0.528-0.245-1.064c-0.242-0.794-0.976-3.208-0.393-3.852c0.181-0.199,0.664-0.237,1.326-0.104
		c0.524,0.106,1.038-0.221,1.168-0.739c0.298-1.197,2.651-2.099,5.473-2.099c0.001,0,0.001,0,0.002,0
		c2.822,0,5.174,0.903,5.471,2.099c0.428,1.718-0.206,3.585-0.547,4.587C26.091,9.312,26,9.579,26,9.857
		c0,0.413,0.249,0.767,0.605,0.919c0.189,0.5,0.189,1.805,0,2.305C26.249,13.234,26,13.588,26,14c0,3.973-2.296,5.037-2.382,5.076
		C23.244,19.23,23,19.595,23,20v5c0,0.34,0.174,0.658,0.46,0.842c0.83,0.532,2.278,0.955,3.678,1.365
		c0.526,0.154,1.037,0.304,1.48,0.45L29.245,25.758z"/>
</g>
<g id="nyt_x5F_exporter_x5F_info" display="none">
</g>
</svg>
