<?xml version="1.0" encoding="utf-8"?>
<!-- Generator: Adobe Illustrator 17.0.0, SVG Export Plug-In . SVG Version: 6.00 Build 0)  -->
<!DOCTYPE svg PUBLIC "-//W3C//DTD SVG 1.1//EN" "http://www.w3.org/Graphics/SVG/1.1/DTD/svg11.dtd">
<svg version="1.1" id="Layer_1" xmlns="http://www.w3.org/2000/svg" xmlns:xlink="http://www.w3.org/1999/xlink" x="0px" y="0px"
	 width="48px" height="48px" viewBox="0 0 48 48" enable-background="new 0 0 48 48" xml:space="preserve">
<g>
	<path fill="#231F20" d="M20.258,17.002L20,17.003l-0.258-0.002c-0.785-0.001-1.617-0.012-2.211,0.576
		C17.179,17.927,17,18.407,17,19.003c0,0.552,0.447,1,1,1c0.547,0,0.991-0.438,1-0.983c0.189-0.022,0.504-0.018,0.727-0.018
		L20,19.003l0.273-0.001c0.226,0,0.539-0.004,0.727,0.018c0.009,0.545,0.453,0.983,1,0.983c0.553,0,1-0.448,1-0.999
		c0-0.596-0.179-1.076-0.531-1.426C21.875,16.989,21.043,16.996,20.258,17.002z"/>
	<path fill="#231F20" d="M31,19.004c0-0.596-0.179-1.076-0.531-1.426c-0.594-0.589-1.424-0.582-2.211-0.576L28,17.003l-0.258-0.002
		c-0.787-0.001-1.617-0.012-2.211,0.576C25.179,17.927,25,18.407,25,19.003c0,0.552,0.447,1,1,1c0.547,0,0.991-0.438,1-0.983
		c0.189-0.022,0.504-0.018,0.727-0.018L28,19.003l0.273-0.001c0.225,0,0.539-0.004,0.727,0.018c0.009,0.545,0.453,0.983,1,0.983
		C30.553,20.003,31,19.555,31,19.004z"/>
	<path fill="#231F20" d="M33.486,30.629c-0.66-0.09-1.33-0.181-2.004-0.278c1.795-1.683,3.222-3.886,3.477-6.508
		C36.33,23.376,37.25,21.902,37.25,20c0-0.557-0.087-1.071-0.232-1.54l0.993-7.36c0.016-0.16,0.359-3.952-2.488-7.098
		C33.12,1.346,29.248,0,24.016,0c-5.233,0-9.105,1.346-11.506,4.003c-2.846,3.146-2.504,6.938-2.484,7.128l0.96,7.319
		c-0.148,0.472-0.236,0.989-0.236,1.55c0,1.902,0.92,3.376,2.291,3.843c0.254,2.615,1.676,4.815,3.465,6.496
		c-0.64,0.092-1.278,0.179-1.911,0.265C7.42,31.579,0,32.589,0,40.491V48h48v-7.509C48,32.605,40.949,31.645,33.486,30.629z
		 M12.011,10.901c-0.002-0.031-0.277-3.062,1.981-5.557C15.999,3.125,19.373,2,24.016,2c4.627,0,7.992,1.117,10.003,3.32
		c2.255,2.471,2.005,5.546,2.006,5.546L35.291,16.3c-0.144-0.07-0.291-0.134-0.446-0.18l-0.856-4.315
		C33.896,11.337,33.486,11,33.008,11c-5.966,0-6.97-1.68-7.635-2.792c-0.197-0.331-0.384-0.644-0.655-0.915
		c-0.375-0.375-1.039-0.375-1.414,0c-0.27,0.27-0.457,0.582-0.655,0.912C21.983,9.318,20.976,11,15.006,11
		c-0.477,0-0.887,0.336-0.981,0.803l-0.868,4.317c-0.152,0.045-0.296,0.108-0.438,0.176L12.011,10.901z M15,38c1.102,0,2,0.897,2,2
		s-0.898,2-2,2c-1.103,0-2-0.897-2-2S13.897,38,15,38z M23,46H2v-5.509c0-5.642,4.542-6.743,12-7.784v3.435
		c-1.721,0.447-3,1.999-3,3.858c0,2.206,1.794,4,4,4s4-1.794,4-4c0-1.859-1.279-3.411-3-3.858v-3.713
		c0.886-0.123,1.778-0.253,2.67-0.401c1.526,0.984,3.087,1.619,4.33,1.856V46z M15,23c0-0.552-0.447-1-1-1
		c-0.988,0-1.25-1.308-1.25-2s0.262-2,1.25-2c0.477,0,0.887-0.336,0.98-0.803l0.847-4.208c5.258-0.14,7.105-1.639,8.183-3.202
		c1.075,1.563,2.918,3.061,8.174,3.202l0.835,4.206C33.112,17.663,33.522,18,34,18c0.988,0,1.25,1.308,1.25,2s-0.262,2-1.25,2
		c-0.553,0-1,0.448-1,1c0,5.2-6.315,9-9,9S15,28.2,15,23z M46,46H25V33.885c1.238-0.237,2.792-0.868,4.314-1.846
		c1.25,0.205,2.495,0.38,3.707,0.545l-0.013,1.443C29.592,34.207,29,35.392,29,37.94v3.203C29,42.585,30.486,44,32,44
		c0.553,0,1-0.448,1-1s-0.447-1-1-1c-0.46,0-1-0.567-1-0.858V37.94c0-1.719,0-1.94,3-1.94s3,0.22,3,1.94v3.203
		C37,41.433,36.46,42,36,42c-0.553,0-1,0.448-1,1s0.447,1,1,1c1.514,0,3-1.415,3-2.858V37.94c0-2.543-0.59-3.728-3.991-3.911
		l0.01-1.162C41.868,33.871,46,35.106,46,40.491V46z"/>
</g>
<g id="nyt_x5F_exporter_x5F_info" display="none">
</g>
</svg>
