<svg xmlns="http://www.w3.org/2000/svg" viewBox="0 0 24 24">
  <g fill="none" stroke-linejoin="round" stroke-miterlimit="10">
    <path d="M10 15s-1.5-.5-1.5-3c-.826 0-.826-2 0-2 0-.335-1.5-4 1-3.5.5-2 6-2 6.5 0 .347 1.388-.5 3.254-.5 3.5.826 0 .826 2 0 2 0 2.5-1.5 3-1.5 3v2.5c2.477.93 4.93 1.697 6.186 2.575C22.234 18 23.5 15.147 23.5 12 23.5 5.648 18.352.5 12 .5S.5 5.648.5 12c0 3.153 1.27 6.01 3.325 8.087 1.33-.92 3.952-1.746 6.175-2.587V15z"/>
    <path d="M3.825 20.087C5.91 22.194 8.802 23.5 12 23.5c3.203 0 6.1-1.31 8.186-3.425"/>
  </g>
</svg>
