<?xml version="1.0" encoding="utf-8"?>
<!-- Generator: Adobe Illustrator 16.0.3, SVG Export Plug-In . SVG Version: 6.00 Build 0)  -->
<!DOCTYPE svg PUBLIC "-//W3C//DTD SVG 1.1//EN" "http://www.w3.org/Graphics/SVG/1.1/DTD/svg11.dtd">
<svg version="1.1" xmlns="http://www.w3.org/2000/svg" xmlns:xlink="http://www.w3.org/1999/xlink" x="0px" y="0px" width="24px"
	 height="24px" viewBox="0 0 24 24" enable-background="new 0 0 24 24" xml:space="preserve">
<g id="Outline_Icons_1_">
	<g id="Outline_Icons">
		<g>
			<path fill="none"  stroke-linecap="round" stroke-linejoin="round" stroke-miterlimit="10" d="M20,15L20,15
				c0.828,0,1.5,0.672,1.5,1.5c0,0.829-0.672,1.5-1.5,1.5h-1c0.828,0,1.5,0.672,1.5,1.5c0,0.829-0.672,1-1.5,1c0,0-4,0-6.5,0
				c-2.851,0-3.5-0.5-7-1V11C7.95,11,12,6.5,12,2.5c0-1.581,2.188-2.17,3,0.719C15.5,5,14,8.5,14,8.5h8c0.828,0,1.5,0.672,1.5,1.5
				c0,0.829-0.672,2-1.5,2h-1c0.828,0,1.5,0.672,1.5,1.5c0,0.829-0.672,1.5-1.5,1.5H20"/>

				<rect x="0.5" y="9.5" fill="none"  stroke-linecap="round" stroke-linejoin="round" stroke-miterlimit="10" width="5" height="12"/>
			<g>
				<g>
					<g>
						<path d="M3.5,19C3.224,19,3,19.224,3,19.5S3.224,20,3.5,20S4,19.776,4,19.5S3.776,19,3.5,19L3.5,19z"/>
					</g>
				</g>
			</g>
		</g>
	</g>
</g>
</svg>
