<?xml version="1.0" encoding="utf-8"?>
<!-- Generator: Adobe Illustrator 17.0.0, SVG Export Plug-In . SVG Version: 6.00 Build 0)  -->
<!DOCTYPE svg PUBLIC "-//W3C//DTD SVG 1.1//EN" "http://www.w3.org/Graphics/SVG/1.1/DTD/svg11.dtd">
<svg version="1.1" id="Layer_2" xmlns="http://www.w3.org/2000/svg" xmlns:xlink="http://www.w3.org/1999/xlink" x="0px" y="0px"
	 width="60px" height="60px" viewBox="0 0 60 60" enable-background="new 0 0 60 60" xml:space="preserve">
<g>
	<path fill="#010101" d="M42,19c-6.617,0-12,5.383-12,12c0,6.617,5.383,12,12,12c6.617,0,12-5.383,12-12C54,24.383,48.617,19,42,19z
		 M46,35h-8v-8h8V35z"/>
	<path fill="#010101" d="M57,13.044H18.391V12c0-1.654-1.346-3-3-3H9.304c-1.654,0-3,1.346-3,3v1.044H3c-1.654,0-3,1.346-3,3V25
		h19.913c0.552,0,1,0.447,1,1c0,0.553-0.448,1-1,1H0v4h19.913c0.552,0,1,0.447,1,1c0,0.553-0.448,1-1,1H0v4h19.913
		c0.552,0,1,0.447,1,1c0,0.553-0.448,1-1,1H0v9c0,1.654,1.346,3,3,3h54c1.654,0,3-1.346,3-3V16.044
		C60,14.39,58.654,13.044,57,13.044z M42,45c-7.72,0-14-6.28-14-14c0-7.72,6.28-14,14-14s14,6.28,14,14C56,38.72,49.72,45,42,45z"/>
</g>
</svg>
