<?xml version="1.0" encoding="utf-8"?>
<!-- Generator: Adobe Illustrator 17.0.0, SVG Export Plug-In . SVG Version: 6.00 Build 0)  -->
<!DOCTYPE svg PUBLIC "-//W3C//DTD SVG 1.1//EN" "http://www.w3.org/Graphics/SVG/1.1/DTD/svg11.dtd">
<svg version="1.1" id="Layer_2" xmlns="http://www.w3.org/2000/svg" xmlns:xlink="http://www.w3.org/1999/xlink" x="0px" y="0px"
	 width="60px" height="60px" viewBox="0 0 60 60" enable-background="new 0 0 60 60" xml:space="preserve">
<g>
	<path fill="#010101" d="M36.782,37.305c-2.924,0-5.304,2.379-5.304,5.304c0,2.925,2.379,5.305,5.304,5.305
		c2.925,0,5.305-2.38,5.305-5.305C42.087,39.684,39.707,37.305,36.782,37.305z"/>
	<circle fill="#010101" cx="13" cy="37" r="3"/>
	<path fill="#010101" d="M36.782,32.261c-5.705,0-10.348,4.642-10.348,10.348s4.642,10.348,10.348,10.348
		c5.706,0,10.348-4.642,10.348-10.348S42.488,32.261,36.782,32.261z M36.782,49.913c-4.027,0-7.304-3.277-7.304-7.305
		s3.276-7.304,7.304-7.304c4.028,0,7.305,3.276,7.305,7.304S40.81,49.913,36.782,49.913z"/>
	<path fill="#010101" d="M53.043,28h-4.57l-4.325-5.283L45.721,18H49c0.552,0,1-0.447,1-1V1c0-0.553-0.448-1-1-1H21
		c-0.552,0-1,0.447-1,1v16c0,0.553,0.448,1,1,1h4.279l1.596,4.788L22.532,28h-4.923v-0.521v-1.261c0-1.942-1.58-3.523-3.522-3.523
		h-2.521c-1.942,0-3.522,1.58-3.522,3.523v1.261V28H8c-2.62,0-6,2.425-6,5v22.218c0,0.149,0.034,0.297,0.098,0.432
		C3.402,58.374,5.527,60,7.783,60h45.391c2.606,0,4.771-2.136,4.826-4.782V32.979C57.944,30.326,55.628,28,53.043,28z M13,42
		c-2.757,0-5-2.243-5-5c0-2.757,2.243-5,5-5c2.757,0,5,2.243,5,5C18,39.757,15.757,42,13,42z M26,13V5c0-0.553,0.448-1,1-1h16
		c0.552,0,1,0.447,1,1v8c0,0.553-0.448,1-1,1H27C26.448,14,26,13.553,26,13z M36.782,54.956c-6.809,0-12.348-5.539-12.348-12.348
		c0-6.809,5.539-12.348,12.348-12.348S49.13,35.8,49.13,42.608C49.13,49.417,43.591,54.956,36.782,54.956z"/>
</g>
</svg>
