<?xml version="1.0" encoding="utf-8"?>
<!-- Generator: Adobe Illustrator 17.0.0, SVG Export Plug-In . SVG Version: 6.00 Build 0)  -->
<!DOCTYPE svg PUBLIC "-//W3C//DTD SVG 1.1//EN" "http://www.w3.org/Graphics/SVG/1.1/DTD/svg11.dtd">
<svg version="1.1" id="Layer_2" xmlns="http://www.w3.org/2000/svg" xmlns:xlink="http://www.w3.org/1999/xlink" x="0px" y="0px"
	 width="60px" height="60px" viewBox="0 0 60 60" enable-background="new 0 0 60 60" xml:space="preserve">
<g>
	<path fill="#010101" d="M31.02,43.606c1.093-0.011,1.98-0.902,1.98-1.998V28h4c0.552,0,1-0.447,1-1c0-0.553-0.448-1-1-1H23
		c-0.552,0-1,0.447-1,1c0,0.553,0.448,1,1,1h4v13.608c0,1.094,0.883,1.983,1.975,1.997L14.038,58.287
		c-0.394,0.387-0.399,1.019-0.012,1.414C14.222,59.9,14.48,60,14.739,60c0.253,0,0.506-0.096,0.701-0.287L29,46.385V59
		c0,0.553,0.448,1,1,1c0.552,0,1-0.447,1-1V46.414l13.293,13.293C44.488,59.902,44.744,60,45,60c0.256,0,0.512-0.098,0.707-0.293
		c0.391-0.391,0.391-1.023,0-1.414L31.02,43.606z"/>
	<path fill="#010101" d="M33,8c-2.206,0-4,1.794-4,4c0,2.206,1.794,4,4,4c2.206,0,4-1.794,4-4C37,9.794,35.206,8,33,8z"/>
	<path fill="#010101" d="M42.783,2h-3.468l-0.417-0.291C38.261,0.619,37.218,0,36,0h-6c-1.057,0-2.126,0.174-2.813,1.398L26.586,2
		h-5.804V0h-3.261v2H17c-1.939,0-4,1.417-4,4.044v13.869C13,22.58,15.475,24,17.261,24h25.218C44.701,24,47,22.472,47,19.913V6.044
		C47,3.513,44.856,2,42.783,2z M33,18c-3.309,0-6-2.691-6-6c0-3.309,2.691-6,6-6c3.309,0,6,2.691,6,6C39,15.309,36.309,18,33,18z"/>
</g>
</svg>
