<?xml version="1.0" encoding="utf-8"?>
<!-- Generator: Adobe Illustrator 17.0.0, SVG Export Plug-In . SVG Version: 6.00 Build 0)  -->
<!DOCTYPE svg PUBLIC "-//W3C//DTD SVG 1.1//EN" "http://www.w3.org/Graphics/SVG/1.1/DTD/svg11.dtd">
<svg version="1.1" id="Layer_2" xmlns="http://www.w3.org/2000/svg" xmlns:xlink="http://www.w3.org/1999/xlink" x="0px" y="0px"
	 width="60px" height="60px" viewBox="0 0 60 60" enable-background="new 0 0 60 60" xml:space="preserve">
<g>
	<path fill="#010101" d="M53.903,15h-4.329l-2.352-4.033c-0.952-1.427-2.325-2.709-4.082-3.813L42.897,7H29.712l-0.244,0.153
		c-1.728,1.085-3.085,2.344-4.035,3.742L21.568,15h-6.98l0.021-0.956C14.609,12.212,12.999,10,11,10H9
		c-1.816,0-3.887,2.154-3.885,3.986L5.052,15.07C1.837,15.41,0,17.482,0,20.908v26.198C0,50.774,2.184,52.867,6.184,53h47.649
		l0.017-0.001c3.966-0.132,6.15-2.225,6.15-5.893V20C60,16.542,58.12,15,53.903,15z M19.913,19.848c0.971,0,1.761,0.79,1.761,1.761
		c0,0.971-0.79,1.761-1.761,1.761c-0.971,0-1.761-0.79-1.761-1.761C18.152,20.638,18.942,19.848,19.913,19.848z M14.87,19.848
		c0.971,0,1.761,0.79,1.761,1.761c0,0.971-0.79,1.761-1.761,1.761s-1.761-0.79-1.761-1.761
		C13.109,20.638,13.899,19.848,14.87,19.848z M9.826,19.848c0.971,0,1.761,0.79,1.761,1.761c0,0.971-0.79,1.761-1.761,1.761
		s-1.761-0.79-1.761-1.761C8.065,20.638,8.855,19.848,9.826,19.848z M30,44c0,1.654-1.346,3-3,3H9c-1.654,0-3-1.346-3-3V28
		c0-1.654,1.346-3,3-3h18c1.654,0,3,1.346,3,3V44z M45,47c-6.065,0-11-4.935-11-11c0-6.065,4.935-11,11-11c6.065,0,11,4.935,11,11
		C56,42.065,51.065,47,45,47z"/>
	<path fill="#010101" d="M45,27c-4.962,0-9,4.037-9,9c0,4.963,4.038,9,9,9c4.962,0,9-4.037,9-9C54,31.037,49.962,27,45,27z M44,30
		c0-0.553,0.448-1,1-1c0.552,0,1,0.447,1,1v3c0,0.553-0.448,1-1,1c-0.552,0-1-0.447-1-1V30z M43,37h-3c-0.552,0-1-0.447-1-1
		c0-0.553,0.448-1,1-1h3c0.552,0,1,0.447,1,1C44,36.553,43.552,37,43,37z M46,42c0,0.553-0.448,1-1,1c-0.552,0-1-0.447-1-1v-3
		c0-0.553,0.448-1,1-1c0.552,0,1,0.447,1,1V42z M50,37h-3c-0.552,0-1-0.447-1-1c0-0.553,0.448-1,1-1h3c0.552,0,1,0.447,1,1
		C51,36.553,50.552,37,50,37z"/>
</g>
</svg>
