<?xml version="1.0" encoding="utf-8"?>
<!-- Generator: Adobe Illustrator 17.0.0, SVG Export Plug-In . SVG Version: 6.00 Build 0)  -->
<!DOCTYPE svg PUBLIC "-//W3C//DTD SVG 1.1//EN" "http://www.w3.org/Graphics/SVG/1.1/DTD/svg11.dtd">
<svg version="1.1" id="Layer_2" xmlns="http://www.w3.org/2000/svg" xmlns:xlink="http://www.w3.org/1999/xlink" x="0px" y="0px"
	 width="60px" height="60px" viewBox="0 0 60 60" enable-background="new 0 0 60 60" xml:space="preserve">
<path fill="#010101" d="M41,0H19c-4.962,0-9,4.037-9,9v42c0,4.963,4.038,9,9,9h22c4.962,0,9-4.037,9-9V9C50,4.037,45.962,0,41,0z
	 M30,10c3.309,0,6,2.691,6,6c0,3.309-2.691,6-6,6c-3.309,0-6-2.691-6-6C24,12.691,26.691,10,30,10z M34,39.764V49
	c0,0.553-0.448,1-1,1h-6c-0.552,0-1-0.447-1-1v-9.227c-5.444-2.714-5.913-9.027-5.913-14.773c0-0.553,0.448-1,1-1h17.652
	c0.552,0,1,0.447,1,1C39.739,30.733,39.284,37.036,34,39.764z"/>
</svg>
