<?xml version="1.0" encoding="utf-8"?>
<!-- Generator: Adobe Illustrator 17.0.0, SVG Export Plug-In . SVG Version: 6.00 Build 0)  -->
<!DOCTYPE svg PUBLIC "-//W3C//DTD SVG 1.1//EN" "http://www.w3.org/Graphics/SVG/1.1/DTD/svg11.dtd">
<svg version="1.1" id="Layer_2" xmlns="http://www.w3.org/2000/svg" xmlns:xlink="http://www.w3.org/1999/xlink" x="0px" y="0px"
	 width="60px" height="60px" viewBox="0 0 60 60" enable-background="new 0 0 60 60" xml:space="preserve">
<g>
	<path fill="#010101" d="M30,19.608c-7.07,0-15.254,7.965-17.544,10.348C14.746,32.339,22.93,40.305,30,40.305
		c7.078,0,15.256-7.966,17.544-10.349C45.255,27.574,37.07,19.608,30,19.608z M30,37c-3.86,0-7-3.141-7-7c0-3.859,3.14-7,7-7
		c3.86,0,7,3.141,7,7C37,33.859,33.86,37,30,37z"/>
	<path fill="#010101" d="M0,5v50h60V5H0z M4,9h12v2H6v9H4V9z M16,51H4V40h2v9h10V51z M10.339,30.62l-0.59-0.664l0.59-0.664
		C10.764,28.815,20.83,17.608,30,17.608c9.17,0,19.236,11.206,19.661,11.684l0.59,0.664l-0.59,0.664
		C49.236,31.098,39.17,42.305,30,42.305C20.83,42.305,10.764,31.098,10.339,30.62z M56,51H44v-2h10v-9h2V51z M56,20h-2v-9H44V9h12
		V20z"/>
	<circle fill="#010101" cx="30" cy="30" r="2"/>
</g>
</svg>
