<?xml version="1.0" encoding="utf-8"?>
<!-- Generator: Adobe Illustrator 17.0.0, SVG Export Plug-In . SVG Version: 6.00 Build 0)  -->
<!DOCTYPE svg PUBLIC "-//W3C//DTD SVG 1.1//EN" "http://www.w3.org/Graphics/SVG/1.1/DTD/svg11.dtd">
<svg version="1.1" id="Layer_2" xmlns="http://www.w3.org/2000/svg" xmlns:xlink="http://www.w3.org/1999/xlink" x="0px" y="0px"
	 width="60px" height="60px" viewBox="0 0 60 60" enable-background="new 0 0 60 60" xml:space="preserve">
<g>
	<path fill="#010101" d="M0,6v50h60V6H0z M4,10h12v2H6v9H4V10z M16,52H4V41h2v9h10V52z M31,42.949v4.398c0,0.553-0.448,1-1,1
		c-0.552,0-1-0.447-1-1v-4.398C23.181,42.466,18.534,37.819,18.051,32h-4.442c-0.552,0-1-0.447-1-1c0-0.553,0.448-1,1-1h4.442
		c0.483-5.819,5.13-10.466,10.949-10.949v-4.485c0-0.553,0.448-1,1-1c0.552,0,1,0.447,1,1v4.485
		c5.819,0.483,10.466,5.13,10.949,10.949h4.442c0.552,0,1,0.447,1,1c0,0.553-0.448,1-1,1h-4.442
		C41.466,37.819,36.819,42.466,31,42.949z M56,52H44v-2h10v-9h2V52z M56,21h-2v-9H44v-2h12V21z"/>
	<circle fill="#010101" cx="30" cy="30.957" r="2.261"/>
</g>
</svg>
