<?xml version="1.0" encoding="utf-8"?>
<!-- Generator: Adobe Illustrator 17.0.0, SVG Export Plug-In . SVG Version: 6.00 Build 0)  -->
<!DOCTYPE svg PUBLIC "-//W3C//DTD SVG 1.1//EN" "http://www.w3.org/Graphics/SVG/1.1/DTD/svg11.dtd">
<svg version="1.1" id="Layer_2" xmlns="http://www.w3.org/2000/svg" xmlns:xlink="http://www.w3.org/1999/xlink" x="0px" y="0px"
	 width="60px" height="60px" viewBox="0 0 60 60" enable-background="new 0 0 60 60" xml:space="preserve">
<g>
	<path fill="#010101" d="M30,0C13.458,0,0,13.458,0,30s13.458,30,30,30s30-13.458,30-30S46.542,0,30,0z M30,52.43
		C17.632,52.43,7.57,42.368,7.57,30C7.57,17.632,17.632,7.57,30,7.57S52.43,17.632,52.43,30C52.43,42.368,42.368,52.43,30,52.43z"/>
	<path fill="#010101" d="M37.7,36.316L35.634,40h-0.062l-6.009,10.408C29.71,50.411,29.853,50.43,30,50.43
		c6.598,0,12.459-3.158,16.196-8.027l-6.004-10.404L37.7,36.316z"/>
	<path fill="#010101" d="M23.706,21.252l0.684-1.22h0.021l6.027-10.44C30.291,9.589,30.148,9.57,30,9.57
		c-6.599,0-12.46,3.159-16.197,8.028l6.009,10.398L23.706,21.252z"/>
	<path fill="#010101" d="M22.789,37.145L12.551,19.429C10.673,22.518,9.57,26.128,9.57,30c0,2.838,0.585,5.541,1.635,8h12.063
		L22.789,37.145z"/>
	<path fill="#010101" d="M24.39,40H12.204c3.094,5.483,8.643,9.39,15.148,10.238L33.263,40H24.39z"/>
	<path fill="#010101" d="M48.795,22H36.737l0.19,0.339l10.521,18.232C49.327,37.482,50.43,33.872,50.43,30
		C50.43,27.162,49.845,24.459,48.795,22z"/>
	<path fill="#010101" d="M47.796,20c-3.093-5.483-8.642-9.39-15.147-10.238L26.739,20H47.796z"/>
</g>
</svg>
