<?xml version="1.0" encoding="utf-8"?>
<!-- Generator: Adobe Illustrator 17.0.0, SVG Export Plug-In . SVG Version: 6.00 Build 0)  -->
<!DOCTYPE svg PUBLIC "-//W3C//DTD SVG 1.1//EN" "http://www.w3.org/Graphics/SVG/1.1/DTD/svg11.dtd">
<svg version="1.1" id="Layer_2" xmlns="http://www.w3.org/2000/svg" xmlns:xlink="http://www.w3.org/1999/xlink" x="0px" y="0px"
	 width="60px" height="60px" viewBox="0 0 60 60" enable-background="new 0 0 60 60" xml:space="preserve">
<g>
	<circle fill="#010101" cx="9" cy="26" r="3"/>
	<path fill="#010101" d="M36,20c-7.169,0-13,5.832-13,13s5.831,13,13,13c7.168,0,13-5.832,13-13S43.168,20,36,20z M36,42
		c-4.962,0-9-4.037-9-9c0-4.963,4.038-9,9-9c4.962,0,9,4.037,9,9C45,37.963,40.962,42,36,42z"/>
	<path fill="#010101" d="M53.903,15h-4.329l-2.352-4.033c-0.952-1.427-2.325-2.709-4.082-3.813L42.897,7H29.712l-0.244,0.153
		c-1.728,1.085-3.085,2.344-4.035,3.742L21.568,15h-6.98l0.021-0.956C14.609,12.212,12.999,10,11,10H9
		c-1.816,0-3.887,2.154-3.885,3.986L5.052,15.07C1.837,15.41,0,17.482,0,20.908v26.198C0,50.774,2.184,52.867,6.184,53h47.649
		l0.017-0.001c3.966-0.132,6.15-2.225,6.15-5.893V20C60,16.542,58.12,15,53.903,15z M9,31c-2.757,0-5-2.243-5-5c0-2.757,2.243-5,5-5
		c2.757,0,5,2.243,5,5C14,28.757,11.757,31,9,31z M36,48c-8.271,0-15-6.728-15-15c0-8.271,6.729-15,15-15s15,6.729,15,15
		C51,41.272,44.271,48,36,48z"/>
</g>
</svg>
