<?xml version="1.0" encoding="utf-8"?>
<!-- Generator: Adobe Illustrator 17.0.0, SVG Export Plug-In . SVG Version: 6.00 Build 0)  -->
<!DOCTYPE svg PUBLIC "-//W3C//DTD SVG 1.1//EN" "http://www.w3.org/Graphics/SVG/1.1/DTD/svg11.dtd">
<svg version="1.1" id="Layer_2" xmlns="http://www.w3.org/2000/svg" xmlns:xlink="http://www.w3.org/1999/xlink" x="0px" y="0px"
	 width="60px" height="60px" viewBox="0 0 60 60" enable-background="new 0 0 60 60" xml:space="preserve">
<g>
	<path fill="#010101" d="M51.435,32H42v-4h-2v-4.002L41.463,24l0.112-0.026c3.195-0.748,5.708-3.282,6.401-6.455L48,4H14v13.5
		l0.073,0.181c1.316,3.241,3.885,5.594,6.873,6.293L22,23.975V28h-2v4H8c-4.486,0-8,3.953-8,9v4.044C0,49.731,4.29,54,9,54h11v2h22
		v-2h10c4.486,0,8-3.934,8-8.956V41C60,36.576,56.796,32,51.435,32z M40,8.479h2v10.087h-2V8.479z M11,49c-3.309,0-6-2.691-6-6
		c0-3.309,2.691-6,6-6c3.309,0,6,2.691,6,6C17,46.309,14.309,49,11,49z M34,8.479h2v10.087h-2V8.479z M26,8.479h2v10.087h-2V8.479z
		 M22,18.565h-2V8.479h2V18.565z M36.631,47.25c-0.108,0.037-0.218,0.055-0.326,0.055c-0.415,0-0.802-0.26-0.945-0.674L33.07,40
		h-3.618l-2.29,6.631c-0.181,0.522-0.751,0.799-1.271,0.619c-0.522-0.181-0.799-0.75-0.619-1.271l2.522-7.305
		C27.933,38.271,28.313,38,28.739,38h5.043c0.426,0,0.806,0.271,0.945,0.674l2.523,7.305C37.43,46.5,37.153,47.069,36.631,47.25z
		 M38,28H24v-4.022l14,0.018V28z M55,47H45v-8h10V47z"/>
	<rect x="47" y="41" fill="#010101" width="6" height="4"/>
	<path fill="#010101" d="M11,39c-2.206,0-4,1.794-4,4c0,2.206,1.794,4,4,4c2.206,0,4-1.794,4-4C15,40.794,13.206,39,11,39z"/>
</g>
</svg>
