<?xml version="1.0" encoding="utf-8"?>
<!-- Generator: Adobe Illustrator 17.0.0, SVG Export Plug-In . SVG Version: 6.00 Build 0)  -->
<!DOCTYPE svg PUBLIC "-//W3C//DTD SVG 1.1//EN" "http://www.w3.org/Graphics/SVG/1.1/DTD/svg11.dtd">
<svg version="1.1" id="Layer_2" xmlns="http://www.w3.org/2000/svg" xmlns:xlink="http://www.w3.org/1999/xlink" x="0px" y="0px"
	 width="60px" height="60px" viewBox="0 0 60 60" enable-background="new 0 0 60 60" xml:space="preserve">
<path fill="#010101" d="M48.199,1.733l-0.195-0.127l-0.23-0.028c-0.105-0.014-2.617-0.316-5.638-0.316
	c-4.171,0-7.166,0.574-8.9,1.707c-2.043,1.335-4.306,3.112-4.948,3.623L7.565,11.666V24.4l13.87,2.547v13.4
	c0,1.055,0.824,1.913,1.861,1.986L8.597,57.032c-0.391,0.39-0.391,1.023,0,1.414c0.195,0.195,0.451,0.293,0.707,0.293
	c0.256,0,0.512-0.097,0.707-0.293l13.423-13.424v12.717c0,0.553,0.448,1,1,1c0.552,0,1-0.447,1-1V45.022l13.424,13.424
	c0.195,0.195,0.451,0.293,0.707,0.293c0.256,0,0.512-0.097,0.707-0.293c0.391-0.39,0.391-1.023,0-1.414L25.574,42.334
	c1.037-0.073,1.861-0.931,1.861-1.986V28.05l0.877,0.161c0.673,0.535,2.905,2.285,4.924,3.604c1.734,1.133,4.729,1.707,8.9,1.707
	c3.021,0,5.532-0.303,5.638-0.317l0.23-0.028l0.195-0.127c0.434-0.283,4.236-3.128,4.236-15.658
	C52.435,4.86,48.632,2.016,48.199,1.733z"/>
</svg>
