<?xml version="1.0" encoding="utf-8"?>
<!-- Generator: Adobe Illustrator 17.0.0, SVG Export Plug-In . SVG Version: 6.00 Build 0)  -->
<!DOCTYPE svg PUBLIC "-//W3C//DTD SVG 1.1//EN" "http://www.w3.org/Graphics/SVG/1.1/DTD/svg11.dtd">
<svg version="1.1" id="Layer_2" xmlns="http://www.w3.org/2000/svg" xmlns:xlink="http://www.w3.org/1999/xlink" x="0px" y="0px"
	 width="60px" height="60px" viewBox="0 0 60 60" enable-background="new 0 0 60 60" xml:space="preserve">
<path fill="#010101" d="M51,10H9c-4.962,0-9,4.037-9,9v22c0,4.963,4.038,9,9,9h42c4.962,0,9-4.037,9-9V19C60,14.037,55.962,10,51,10
	z M40.02,42c-0.007,0-0.013,0-0.02,0H20c-0.552,0-1-0.447-1-1c0-4.592,2.992-8.625,7.089-10.241C24.227,29.5,23,27.368,23,24.956
	c0-3.859,3.14-7,7-7c3.86,0,7,3.141,7,7c0,2.412-1.226,4.543-3.088,5.802c4.034,1.592,6.997,5.527,7.086,10.032
	c0.014,0.067,0.022,0.138,0.022,0.21C41.02,41.553,40.572,42,40.02,42z"/>
</svg>
