<?xml version="1.0" encoding="utf-8"?>
<!-- Generator: Adobe Illustrator 17.0.0, SVG Export Plug-In . SVG Version: 6.00 Build 0)  -->
<!DOCTYPE svg PUBLIC "-//W3C//DTD SVG 1.1//EN" "http://www.w3.org/Graphics/SVG/1.1/DTD/svg11.dtd">
<svg version="1.1" id="Layer_2" xmlns="http://www.w3.org/2000/svg" xmlns:xlink="http://www.w3.org/1999/xlink" x="0px" y="0px"
	 width="60px" height="60px" viewBox="0 0 60 60" enable-background="new 0 0 60 60" xml:space="preserve">
<g>
	<path fill="#010101" d="M59,7H1C0.448,7,0,7.447,0,8v44c0,0.553,0.448,1,1,1h58c0.552,0,1-0.447,1-1V8C60,7.447,59.552,7,59,7z
		 M58,51H2V9h56V51z"/>
	<path fill="#010101" d="M7,47h46c0.552,0,1-0.447,1-1V14.044c0-0.553-0.448-1-1-1H7c-0.552,0-1,0.447-1,1V46
		C6,46.553,6.448,47,7,47z M10.229,38.746l7.565-12.608c0.181-0.301,0.506-0.485,0.857-0.485c0.351,0,0.677,0.185,0.858,0.485
		l6.84,11.401l5.403-6.484c0.38-0.455,1.156-0.455,1.536,0l5.383,6.46l9.373-16.402c0.274-0.479,0.886-0.646,1.364-0.372
		c0.479,0.274,0.646,0.885,0.372,1.364L39.694,39.757c-0.163,0.284-0.454,0.472-0.78,0.5c-0.329,0.034-0.646-0.105-0.856-0.355
		l-5.537-6.644l-5.537,6.644c-0.207,0.248-0.517,0.379-0.845,0.356c-0.323-0.025-0.614-0.205-0.78-0.482l-6.707-11.18l-6.708,11.18
		c-0.188,0.312-0.518,0.485-0.858,0.485c-0.175,0-0.352-0.046-0.514-0.143C10.099,39.834,9.945,39.22,10.229,38.746z"/>
</g>
</svg>
