<?xml version="1.0" encoding="utf-8"?>
<!-- Generator: Adobe Illustrator 17.0.0, SVG Export Plug-In . SVG Version: 6.00 Build 0)  -->
<!DOCTYPE svg PUBLIC "-//W3C//DTD SVG 1.1//EN" "http://www.w3.org/Graphics/SVG/1.1/DTD/svg11.dtd">
<svg version="1.1" id="Layer_2" xmlns="http://www.w3.org/2000/svg" xmlns:xlink="http://www.w3.org/1999/xlink" x="0px" y="0px"
	 width="60px" height="60px" viewBox="0 0 60 60" enable-background="new 0 0 60 60" xml:space="preserve">
<g>
	<path fill="#010101" d="M28,14v30h20.652v-5.261c0-2.925,2.379-5.305,5.304-5.305H60V14H28z M32,40h-2v-5h2V40z M32,23h-2v-5h2V23z
		 M38,40h-2v-5h2V40z M38,23h-2v-5h2V23z M44,40h-2v-5h2V40z M44,23h-2v-5h2V23z M50,23h-2v-5h2V23z M56,23h-2v-5h2V23z"/>
	<path fill="#010101" d="M27,12h2V7.218C29,6.015,29,4,27,4H2.261C0,4,0,6.093,0,7.218V12h2v36H0v5c0,1.99,0.673,3,2,3h25
		c1.327,0,2-1.01,2-3v-5h-2V12z"/>
</g>
</svg>
