<?xml version="1.0" encoding="utf-8"?>
<!-- Generator: Adobe Illustrator 17.0.0, SVG Export Plug-In . SVG Version: 6.00 Build 0)  -->
<!DOCTYPE svg PUBLIC "-//W3C//DTD SVG 1.1//EN" "http://www.w3.org/Graphics/SVG/1.1/DTD/svg11.dtd">
<svg version="1.1" id="Layer_2" xmlns="http://www.w3.org/2000/svg" xmlns:xlink="http://www.w3.org/1999/xlink" x="0px" y="0px"
	 width="60px" height="60px" viewBox="0 0 60 60" enable-background="new 0 0 60 60" xml:space="preserve">
<g>
	<path fill="#010101" d="M0,0v48h28v-9c0-0.553,0.448-1,1-1c0.552,0,1,0.447,1,1v9h30V0H0z M19.471,7.62
		c0.288-0.167,0.616-0.246,0.971-0.246c1.857,0,4.482,2.175,6.382,5.465c2.263,3.921,0.843,8.977,0.843,8.977
		s-5.089-1.299-7.352-5.22C18.051,12.678,17.674,8.658,19.471,7.62z M18.281,27.799c-0.002,0-0.005,0-0.008,0
		c-4.522,0-8.188-1.683-8.188-3.758c0-2.074,3.67-3.757,8.195-3.758c4.527,0.001,8.197,3.76,8.197,3.76s-3.668,3.756-8.194,3.756
		C18.283,27.799,18.283,27.799,18.281,27.799z M26.967,35.161c-1.898,3.29-4.523,5.465-6.38,5.465c-0.356,0-0.684-0.08-0.973-0.247
		c-1.796-1.037-1.419-5.057,0.843-8.976c2.266-3.921,7.355-5.22,7.355-5.22S29.232,31.241,26.967,35.161z M31.032,12.756
		c1.899-3.29,4.524-5.465,6.381-5.465c0.355,0,0.682,0.079,0.971,0.246c1.797,1.037,1.419,5.057-0.844,8.977
		c-2.264,3.92-7.353,5.219-7.353,5.219S28.769,16.676,31.032,12.756z M38.527,40.297c-0.288,0.166-0.615,0.246-0.97,0.246
		c-1.856,0-4.481-2.175-6.381-5.464c-2.263-3.923-0.843-8.979-0.843-8.979s5.091,1.299,7.352,5.221
		C39.949,35.238,40.326,39.26,38.527,40.297z M39.717,27.633c-4.526,0-8.195-3.758-8.195-3.758s3.669-3.758,8.195-3.758
		c4.527,0,8.196,1.683,8.196,3.758C47.913,25.95,44.244,27.633,39.717,27.633z"/>
	<rect y="50" fill="#010101" width="60" height="10"/>
</g>
</svg>
