<?xml version="1.0" encoding="utf-8"?>
<!-- Generator: Adobe Illustrator 17.0.0, SVG Export Plug-In . SVG Version: 6.00 Build 0)  -->
<!DOCTYPE svg PUBLIC "-//W3C//DTD SVG 1.1//EN" "http://www.w3.org/Graphics/SVG/1.1/DTD/svg11.dtd">
<svg version="1.1" id="Layer_2" xmlns="http://www.w3.org/2000/svg" xmlns:xlink="http://www.w3.org/1999/xlink" x="0px" y="0px"
	 width="60px" height="60px" viewBox="0 0 60 60" enable-background="new 0 0 60 60" xml:space="preserve">
<g>
	<path fill="#010101" d="M51.005,17.808l-0.014,0.017c-0.143-0.012-0.329-0.029-0.534-0.048v32.202H14.695l-0.438,4.468
		l39.668,3.619l3.618-39.662L51.005,17.808z"/>
	<path fill="#010101" d="M17.768,26.213c0.165-0.281,0.456-0.465,0.781-0.491c0.325-0.032,0.642,0.105,0.851,0.355l5.285,6.343
		L30.329,20c0.166-0.366,0.535-0.592,0.938-0.586c0.402,0.012,0.758,0.263,0.904,0.638l6.97,17.928h9.316V1.934L2.501,1.98
		L2.466,37.979h8.417L17.768,26.213z M14.457,9.979c2.757,0,5,2.243,5,5c0,2.757-2.243,5-5,5s-5-2.243-5-5
		C9.457,12.222,11.7,9.979,14.457,9.979z"/>
	<polygon fill="#010101" points="48.457,39.979 2.464,39.979 2.456,47.979 48.457,47.979 	"/>
</g>
</svg>
