<?xml version="1.0" encoding="utf-8"?>
<!-- Generator: Adobe Illustrator 17.1.0, SVG Export Plug-In . SVG Version: 6.00 Build 0)  -->
<!DOCTYPE svg PUBLIC "-//W3C//DTD SVG 1.0//EN" "http://www.w3.org/TR/2001/REC-SVG-20010904/DTD/svg10.dtd">
<svg version="1.0" id="Layer_1" xmlns="http://www.w3.org/2000/svg" xmlns:xlink="http://www.w3.org/1999/xlink" x="0px" y="0px"
	 width="60px" height="60px" viewBox="0 0 60 60" enable-background="new 0 0 60 60" xml:space="preserve">
<g>
	<path d="M37.1,15c0-3.915-3.185-7.1-7.1-7.1s-7.1,3.185-7.1,7.1s3.185,7.1,7.1,7.1S37.1,18.915,37.1,15z"/>
	<path d="M28,23.666V30h4v-6.334c-0.644,0.149-1.312,0.235-2,0.235S28.644,23.814,28,23.666z"/>
	<polygon points="57,31.991 57,32 3,32 3,31.991 0.502,35.305 59.499,35.305 	"/>
	<path d="M0,37.305V45c0,2.663,2.336,5,5,5h5.788c-1.138,2.733-2.855,5.696-5.452,8.293L3.629,60h53.088l-2.122-1.769
		c-1.463-1.219-2.641-2.662-3.596-4.185V54h-0.029c-0.814-1.306-1.463-2.667-1.979-4l6.05-0.001C57.729,49.888,60,47.598,60,45
		v-7.695H0z M49.886,56c0.482,0.688,1.006,1.36,1.588,2H8.311c0.548-0.657,1.042-1.326,1.504-2H49.886z M56,42H45.066
		c0.19,2.099,0.917,7.221,3.574,12H11.066c2.855-5.027,3.648-9.962,3.859-12H4v-2h9.037h33.929H56V42z"/>
	<path d="M32,6.334V0h-4v6.334C28.644,6.186,29.312,6.1,30,6.1S31.356,6.186,32,6.334z"/>
	<path d="M38.9,15c0,3.468-1.998,6.472-4.9,7.94V30h22V9c0-5.215-3.364-9-8-9H34v7.06C36.902,8.528,38.9,11.532,38.9,15z M42,6h8v8
		h-8V6z"/>
	<path d="M26,22.94c-2.902-1.468-4.9-4.472-4.9-7.94s1.998-6.472,4.9-7.94V0H13C8.038,0,4,4.037,4,9v21h22V22.94z M14,25
		c-1.103,0-2-0.897-2-2s0.897-2,2-2s2,0.897,2,2S15.103,25,14,25z"/>
</g>
</svg>
