<?xml version="1.0" encoding="utf-8"?>
<!-- Generator: Adobe Illustrator 17.0.0, SVG Export Plug-In . SVG Version: 6.00 Build 0)  -->
<!DOCTYPE svg PUBLIC "-//W3C//DTD SVG 1.1//EN" "http://www.w3.org/Graphics/SVG/1.1/DTD/svg11.dtd">
<svg version="1.1" id="Layer_2" xmlns="http://www.w3.org/2000/svg" xmlns:xlink="http://www.w3.org/1999/xlink" x="0px" y="0px"
	 width="60px" height="60px" viewBox="0 0 60 60" enable-background="new 0 0 60 60" xml:space="preserve">
<g>
	<path fill="#010101" d="M51,0H9C4.038,0,0,4.037,0,9v42c0,4.963,4.038,9,9,9h42c4.962,0,9-4.037,9-9V9C60,4.037,55.962,0,51,0z
		 M52,40c0,2.206-1.794,4-4,4H12c-2.206,0-4-1.794-4-4V22c0-2.206,1.794-4,4-4h7.58l5.58-5.699C25.347,12.108,25.604,12,25.873,12
		h8.253c0.269,0,0.526,0.108,0.714,0.301L40.42,18H48c2.206,0,4,1.794,4,4V40z"/>
	<path fill="#010101" d="M30,22c-4.411,0-8,3.589-8,8c0,4.411,3.589,8,8,8c4.411,0,8-3.589,8-8C38,25.589,34.411,22,30,22z M30,36
		c-3.309,0-6-2.691-6-6c0-3.309,2.691-6,6-6c3.309,0,6,2.691,6,6C36,33.309,33.309,36,30,36z"/>
	<circle fill="#010101" cx="45.13" cy="25" r="1"/>
</g>
</svg>
