<?xml version="1.0" encoding="utf-8"?>
<!-- Generator: Adobe Illustrator 17.0.0, SVG Export Plug-In . SVG Version: 6.00 Build 0)  -->
<!DOCTYPE svg PUBLIC "-//W3C//DTD SVG 1.1//EN" "http://www.w3.org/Graphics/SVG/1.1/DTD/svg11.dtd">
<svg version="1.1" id="Layer_1" xmlns="http://www.w3.org/2000/svg" xmlns:xlink="http://www.w3.org/1999/xlink" x="0px" y="0px"
	 width="48px" height="48px" viewBox="0 0 48 48" enable-background="new 0 0 48 48" xml:space="preserve">
<g>
	<path fill="#231F20" d="M41,42c-1.654,0-3-1.346-3-3v-9c0-5.455-3.134-10.359-8.037-12.666C29.631,14.337,27.083,12,24,12
		s-5.63,2.337-5.963,5.334C13.134,19.638,10,24.543,10,30v9c0,1.654-1.346,3-3,3c-0.552,0-1,0.448-1,1s0.448,1,1,1h12.101
		c0.465,2.279,2.484,4,4.899,4s4.434-1.721,4.899-4H41c0.552,0,1-0.448,1-1S41.552,42,41,42z M24,46c-1.302,0-2.401-0.839-2.816-2
		h5.631C26.401,45.161,25.302,46,24,46z M10.998,42C11.626,41.164,12,40.125,12,39v-9c0-4.859,2.899-9.207,7.385-11.077
		C19.757,18.768,20,18.404,20,18c0-2.206,1.794-4,4-4s4,1.794,4,4c0,0.403,0.243,0.768,0.615,0.923C33.101,20.795,36,25.144,36,30v9
		c0,1.125,0.373,2.164,1.003,3H10.998z"/>
	<path fill="#231F20" d="M18,6C11.383,6,6,11.383,6,18c0,0.552,0.448,1,1,1s1-0.448,1-1c0-5.514,4.486-10,10-10c0.552,0,1-0.448,1-1
		S18.552,6,18,6z"/>
	<path fill="#231F20" d="M18,2c0.552,0,1-0.448,1-1s-0.448-1-1-1C8.075,0,0,8.075,0,18c0,0.552,0.448,1,1,1s1-0.448,1-1
		C2,9.178,9.178,2,18,2z"/>
	<path fill="#231F20" d="M30,6c-0.552,0-1,0.448-1,1s0.448,1,1,1c5.514,0,10,4.486,10,10c0,0.552,0.448,1,1,1s1-0.448,1-1
		C42,11.383,36.617,6,30,6z"/>
	<path fill="#231F20" d="M30,0c-0.552,0-1,0.448-1,1s0.448,1,1,1c8.822,0,16,7.178,16,16c0,0.552,0.448,1,1,1s1-0.448,1-1
		C48,8.075,39.925,0,30,0z"/>
</g>
</svg>
