<?xml version="1.0" encoding="utf-8"?>
<!-- Generator: Adobe Illustrator 17.0.0, SVG Export Plug-In . SVG Version: 6.00 Build 0)  -->
<!DOCTYPE svg PUBLIC "-//W3C//DTD SVG 1.1//EN" "http://www.w3.org/Graphics/SVG/1.1/DTD/svg11.dtd">
<svg version="1.1" id="Layer_1" xmlns="http://www.w3.org/2000/svg" xmlns:xlink="http://www.w3.org/1999/xlink" x="0px" y="0px"
	 width="48px" height="48px" viewBox="0 0 48 48" enable-background="new 0 0 48 48" xml:space="preserve">
<g>
	<path fill="#231F20" d="M44,26.672c0-11.028-8.972-20-20-20s-20,8.972-20,20c0,6.427,3.059,12.139,7.785,15.801l-2.492,2.492
		c-0.391,0.391-0.391,1.024,0,1.414c0.195,0.195,0.451,0.293,0.707,0.293s0.512-0.098,0.707-0.293l2.745-2.746
		c3.067,1.914,6.674,3.039,10.548,3.039c3.873,0,7.48-1.125,10.547-3.039l2.746,2.746c0.195,0.195,0.451,0.293,0.707,0.293
		s0.512-0.098,0.707-0.292c0.391-0.391,0.391-1.023,0-1.414l-2.493-2.493C40.94,38.812,44,33.099,44,26.672z M24,44.672
		c-9.925,0-18-8.075-18-18s8.075-18,18-18s18,8.075,18,18S33.925,44.672,24,44.672z"/>
	<path fill="#231F20" d="M25,14.672c-0.552,0-1,0.448-1,1V26h-7c-0.552,0-1,0.448-1,1s0.448,1,1,1h8c0.552,0,1-0.448,1-1V15.672
		C26,15.12,25.552,14.672,25,14.672z"/>
	<path fill="#231F20" d="M4.707,16.379c0.39-0.39,0.39-1.023,0-1.414c-2.732-2.734-2.732-6.854,0-9.586
		C6.029,4.056,7.731,3.328,9.5,3.328s3.471,0.729,4.793,2.051c0.39,0.391,1.023,0.391,1.414,0c0.39-0.39,0.39-1.023,0-1.414
		c-1.699-1.7-3.904-2.637-6.207-2.637c-2.304,0-4.508,0.937-6.207,2.637c-3.538,3.537-3.538,8.874,0,12.414
		C3.488,16.574,3.744,16.672,4,16.672S4.512,16.574,4.707,16.379z"/>
	<path fill="#231F20" d="M44.707,3.964c-1.699-1.7-3.904-2.637-6.207-2.637c-2.304,0-4.508,0.937-6.208,2.637
		c-0.39,0.391-0.39,1.024,0.001,1.415c0.39,0.39,1.023,0.391,1.414,0c1.322-1.323,3.024-2.051,4.793-2.051s3.471,0.729,4.793,2.051
		c2.731,2.732,2.731,6.853-0.001,9.586c-0.39,0.391-0.39,1.024,0.001,1.415c0.195,0.194,0.451,0.292,0.707,0.292
		s0.512-0.098,0.707-0.294C48.245,12.839,48.245,7.502,44.707,3.964z"/>
</g>
</svg>
