<?xml version="1.0" encoding="utf-8"?>
<!-- Generator: Adobe Illustrator 17.0.0, SVG Export Plug-In . SVG Version: 6.00 Build 0)  -->
<!DOCTYPE svg PUBLIC "-//W3C//DTD SVG 1.1//EN" "http://www.w3.org/Graphics/SVG/1.1/DTD/svg11.dtd">
<svg version="1.1" id="Layer_1" xmlns="http://www.w3.org/2000/svg" xmlns:xlink="http://www.w3.org/1999/xlink" x="0px" y="0px"
	 width="48px" height="48px" viewBox="0 0 48 48" enable-background="new 0 0 48 48" xml:space="preserve">
<path fill="#231F20" d="M47,40c-2.757,0-5-2.243-5-5V24c0-7.281-4.481-13.901-11.207-16.65C30.044,4.217,27.274,2,24,2
	c-3.223,0-6.048,2.262-6.8,5.35C10.478,10.097,6,16.717,6,24v11c0,2.757-2.243,5-5,5c-0.552,0-1,0.448-1,1s0.448,1,1,1h16.08
	c0.488,3.387,3.401,6,6.92,6s6.432-2.613,6.92-6H47c0.552,0,1-0.448,1-1S47.552,40,47,40z M24,46c-2.415,0-4.434-1.721-4.899-4
	h9.798C28.434,44.279,26.415,46,24,46z M5.894,40C7.193,38.729,8,36.957,8,35V24c0-6.64,4.188-12.66,10.423-14.981
	c0.339-0.126,0.584-0.427,0.639-0.785C19.433,5.82,21.556,4,24,4c2.479,0,4.553,1.781,4.93,4.234c0.056,0.358,0.3,0.659,0.64,0.785
	C35.809,11.341,40,17.362,40,24v11c0,1.957,0.807,3.729,2.105,5H5.894z"/>
</svg>
