<?xml version="1.0" encoding="utf-8"?>
<!-- Generator: Adobe Illustrator 17.0.0, SVG Export Plug-In . SVG Version: 6.00 Build 0)  -->
<!DOCTYPE svg PUBLIC "-//W3C//DTD SVG 1.1//EN" "http://www.w3.org/Graphics/SVG/1.1/DTD/svg11.dtd">
<svg version="1.1" id="Layer_1" xmlns="http://www.w3.org/2000/svg" xmlns:xlink="http://www.w3.org/1999/xlink" x="0px" y="0px"
	 width="48px" height="48px" viewBox="0 0 48 48" enable-background="new 0 0 48 48" xml:space="preserve">
<g>
	<path fill="#231F20" d="M24,0C10.767,0,0,10.767,0,24c0,13.233,10.767,24,24,24c13.233,0,24-10.767,24-24S37.233,0,24,0z M24,46
		C11.869,46,2,36.131,2,24S11.869,2,24,2s22,9.869,22,22S36.131,46,24,46z"/>
	<path fill="#231F20" d="M24,23.56V13c0-0.552-0.447-1-1-1s-1,0.448-1,1v11c0,0.28,0.117,0.548,0.324,0.737l12,11
		C34.517,35.913,34.759,36,35,36c0.27,0,0.54-0.109,0.738-0.324c0.373-0.407,0.345-1.039-0.062-1.413L24,23.56z"/>
</g>
</svg>
