<?xml version="1.0" encoding="utf-8"?>
<!-- Generator: Adobe Illustrator 17.0.0, SVG Export Plug-In . SVG Version: 6.00 Build 0)  -->
<!DOCTYPE svg PUBLIC "-//W3C//DTD SVG 1.1//EN" "http://www.w3.org/Graphics/SVG/1.1/DTD/svg11.dtd">
<svg version="1.1" id="Layer_1" xmlns="http://www.w3.org/2000/svg" xmlns:xlink="http://www.w3.org/1999/xlink" x="0px" y="0px"
	 width="48px" height="48px" viewBox="0 0 48 48" enable-background="new 0 0 48 48" xml:space="preserve">
<g>
	<path fill="#231F20" d="M24,0C10.767,0,0,10.767,0,24c0,13.233,10.767,24,24,24c13.233,0,24-10.767,24-24S37.233,0,24,0z M24,46
		C11.869,46,2,36.131,2,24S11.869,2,24,2s22,9.869,22,22S36.131,46,24,46z"/>
	<path fill="#231F20" d="M27.432,26.021C27.784,25.426,28,24.74,28,24c0-2.206-1.794-4-4-4v-7c0-0.552-0.447-1-1-1s-1,0.448-1,1
		v7.556c-1.19,0.694-2,1.97-2,3.444c0,2.206,1.794,4,4,4c0.739,0,1.423-0.215,2.017-0.566l9.276,9.273
		C35.488,36.902,35.744,37,36,37s0.512-0.098,0.707-0.293c0.391-0.391,0.391-1.024,0-1.414L27.432,26.021z M22,24
		c0-1.103,0.897-2,2-2c1.102,0,2,0.897,2,2c0,0.543-0.219,1.036-0.572,1.396c-0.006,0.006-0.015,0.008-0.021,0.014
		c-0.006,0.006-0.007,0.014-0.013,0.02C25.033,25.781,24.542,26,24,26C22.897,26,22,25.103,22,24z"/>
</g>
</svg>
