<?xml version="1.0" encoding="utf-8"?>
<!-- Generator: Adobe Illustrator 17.0.0, SVG Export Plug-In . SVG Version: 6.00 Build 0)  -->
<!DOCTYPE svg PUBLIC "-//W3C//DTD SVG 1.1//EN" "http://www.w3.org/Graphics/SVG/1.1/DTD/svg11.dtd">
<svg version="1.1" id="Layer_1" xmlns="http://www.w3.org/2000/svg" xmlns:xlink="http://www.w3.org/1999/xlink" x="0px" y="0px"
	 width="48px" height="48px" viewBox="0 0 48 48" enable-background="new 0 0 48 48" xml:space="preserve">
<g>
	<path fill="#231F20" d="M42,0H6C2.7,0,0,2.7,0,6v36c0,3.3,2.7,6,6,6h36c3.3,0,6-2.7,6-6V6C48,2.7,45.3,0,42,0z M46,42
		c0,2.206-1.795,4-4,4H6c-2.206,0-4-1.794-4-4V6c0-2.206,1.794-4,4-4h36c2.205,0,4,1.794,4,4V42z"/>
	<path fill="#231F20" d="M24,6C14.056,6,6,14.059,6,24s8.056,18,18,18c9.938,0,18-8.059,18-18S33.938,6,24,6z M24,40
		c-8.822,0-16-7.178-16-16S15.178,8,24,8s16,7.178,16,16S32.822,40,24,40z"/>
	<path fill="#231F20" d="M30,24h-6V14c0-0.552-0.447-1-1-1s-1,0.448-1,1v12h8c0.553,0,1-0.448,1-1S30.553,24,30,24z"/>
</g>
</svg>
