<?xml version="1.0" encoding="utf-8"?>
<!-- Generator: Adobe Illustrator 17.0.0, SVG Export Plug-In . SVG Version: 6.00 Build 0)  -->
<!DOCTYPE svg PUBLIC "-//W3C//DTD SVG 1.1//EN" "http://www.w3.org/Graphics/SVG/1.1/DTD/svg11.dtd">
<svg version="1.1" id="Layer_1" xmlns="http://www.w3.org/2000/svg" xmlns:xlink="http://www.w3.org/1999/xlink" x="0px" y="0px"
	 width="48px" height="48px" viewBox="0 0 48 48" enable-background="new 0 0 48 48" xml:space="preserve">
<g>
	<path fill="#231F20" d="M24,23c0.392,0,0.748-0.229,0.91-0.586l5-11c0.141-0.309,0.115-0.669-0.069-0.955S29.34,10,29,10H19
		c-0.34,0-0.657,0.173-0.841,0.459s-0.21,0.646-0.069,0.955l5,11C23.252,22.771,23.608,23,24,23z M27.447,12L24,19.584L20.553,12
		H27.447z"/>
	<path fill="#231F20" d="M23.148,29.476l-8,13c-0.19,0.309-0.198,0.696-0.021,1.012C15.304,43.804,15.638,44,16,44h16
		c0.007,0,0.013,0,0.02,0c0.552,0,1-0.448,0.999-1c0-0.258-0.098-0.494-0.259-0.672l-7.909-12.852
		C24.487,28.884,23.512,28.884,23.148,29.476z M17.79,42L24,31.908L30.21,42H17.79z"/>
	<path fill="#231F20" d="M42,46h-2.344L30.09,24l9.565-22H42c0.552,0,1-0.448,1-1s-0.448-1-1-1h-2.99c0,0,0,0-0.001,0H8.992
		C8.99,0,8.988,0,8.986,0H6C5.448,0,5,0.448,5,1s0.448,1,1,1h2.344l9.566,22L8.344,46H6c-0.552,0-1,0.448-1,1s0.448,1,1,1h3h30h3
		c0.552,0,1-0.448,1-1S42.552,46,42,46z M10.525,46l9.392-21.601c0.111-0.255,0.111-0.544,0-0.798L10.525,2h26.948l-9.392,21.601
		c-0.111,0.255-0.111,0.544,0,0.798L37.474,46H10.525z"/>
</g>
</svg>
