<?xml version="1.0" encoding="utf-8"?>
<!-- Generator: Adobe Illustrator 17.0.0, SVG Export Plug-In . SVG Version: 6.00 Build 0)  -->
<!DOCTYPE svg PUBLIC "-//W3C//DTD SVG 1.1//EN" "http://www.w3.org/Graphics/SVG/1.1/DTD/svg11.dtd">
<svg version="1.1" id="Layer_1" xmlns="http://www.w3.org/2000/svg" xmlns:xlink="http://www.w3.org/1999/xlink" x="0px" y="0px"
	 width="48px" height="48px" viewBox="0 0 48 48" enable-background="new 0 0 48 48" xml:space="preserve">
<path fill="#231F20" d="M41,46h-3v-9c0-5.894-3.666-10.939-8.833-13C34.334,21.939,38,16.894,38,11V2h3c0.552,0,1-0.448,1-1
	s-0.448-1-1-1h-4H11H7C6.448,0,6,0.448,6,1s0.448,1,1,1h3v9c0,5.894,3.666,10.939,8.833,13C13.666,26.061,10,31.106,10,37v9H7
	c-0.552,0-1,0.448-1,1s0.448,1,1,1h4h26h4c0.552,0,1-0.448,1-1S41.552,46,41,46z M12,2h24v9c0,2.614-0.849,5.027-2.273,7H14.273
	C12.849,16.027,12,13.614,12,11V2z M16.089,20h15.822c-2.115,1.861-4.879,3-7.911,3S18.204,21.861,16.089,20z M24,25
	c6.617,0,12,5.383,12,12v1h-5.586l-5.707-5.707c-0.391-0.391-1.023-0.391-1.414,0L17.586,38H12v-1C12,30.383,17.383,25,24,25z
	 M12,46v-6h6c0.265,0,0.52-0.105,0.707-0.293L24,34.414l5.293,5.293C29.48,39.895,29.735,40,30,40h6v6H12z"/>
</svg>
