<?xml version="1.0" encoding="utf-8"?>
<!-- Generator: Adobe Illustrator 17.0.0, SVG Export Plug-In . SVG Version: 6.00 Build 0)  -->
<!DOCTYPE svg PUBLIC "-//W3C//DTD SVG 1.1//EN" "http://www.w3.org/Graphics/SVG/1.1/DTD/svg11.dtd">
<svg version="1.1" id="Layer_1" xmlns="http://www.w3.org/2000/svg" xmlns:xlink="http://www.w3.org/1999/xlink" x="0px" y="0px"
	 width="48px" height="48px" viewBox="0 0 48 48" enable-background="new 0 0 48 48" xml:space="preserve">
<g>
	<path fill="#231F20" d="M19.293,20.707C19.488,20.902,19.744,21,20,21s0.512-0.098,0.707-0.293c0.391-0.391,0.391-1.023,0-1.414
		l-3-3c-0.391-0.391-1.023-0.391-1.414,0c-0.391,0.391-0.391,1.023,0,1.414L19.293,20.707z"/>
	<path fill="#231F20" d="M27,36c-0.552,0-1,0.448-1,1v4c0,0.552,0.448,1,1,1s1-0.448,1-1v-4C28,36.448,27.552,36,27,36z"/>
	<path fill="#231F20" d="M19.293,33.293l-3,3c-0.391,0.391-0.391,1.023,0,1.414C16.488,37.902,16.744,38,17,38
		s0.512-0.098,0.707-0.293l3-3c0.391-0.391,0.391-1.023,0-1.414C20.316,32.902,19.684,32.902,19.293,33.293z"/>
	<path fill="#231F20" d="M41,26h-4c-0.552,0-1,0.448-1,1s0.448,1,1,1h4c0.552,0,1-0.448,1-1S41.552,26,41,26z"/>
	<path fill="#231F20" d="M34.707,33.293c-0.391-0.391-1.023-0.391-1.414,0c-0.391,0.391-0.391,1.023,0,1.414l3,3
		C36.488,37.902,36.744,38,37,38s0.512-0.098,0.707-0.293c0.391-0.391,0.391-1.023,0-1.414L34.707,33.293z"/>
	<path fill="#231F20" d="M34,21c0.256,0,0.512-0.098,0.707-0.293l3-3c0.391-0.391,0.391-1.023,0-1.414
		c-0.391-0.391-1.023-0.391-1.414,0l-3,3c-0.391,0.391-0.391,1.023,0,1.414C33.488,20.902,33.744,21,34,21z"/>
	<path fill="#231F20" d="M42.04,12.374l2.46-2.46l0.793,0.793C45.488,10.902,45.744,11,46,11s0.512-0.098,0.707-0.293
		c0.391-0.391,0.391-1.023,0-1.414l-3-3c-0.391-0.391-1.023-0.391-1.414,0c-0.391,0.391-0.391,1.023,0,1.414L43.086,8.5
		l-2.508,2.508C37.152,8.095,32.784,6.278,28,6.051V2h1c0.552,0,1-0.448,1-1s-0.448-1-1-1h-4c-0.552,0-1,0.448-1,1s0.448,1,1,1h1v5
		v19H7c-0.552,0-1,0.448-1,1c0,11.58,9.42,21,21,21s21-9.42,21-21C48,21.315,45.721,16.159,42.04,12.374z M27,46
		C16.859,46,8.548,38.013,8.026,28H27c0.552,0,1-0.448,1-1V8.026C38.013,8.548,46,16.859,46,27C46,37.477,37.477,46,27,46z"/>
</g>
</svg>
