<?xml version="1.0" encoding="utf-8"?>
<!-- Generator: Adobe Illustrator 17.0.0, SVG Export Plug-In . SVG Version: 6.00 Build 0)  -->
<!DOCTYPE svg PUBLIC "-//W3C//DTD SVG 1.1//EN" "http://www.w3.org/Graphics/SVG/1.1/DTD/svg11.dtd">
<svg version="1.1" id="Layer_1" xmlns="http://www.w3.org/2000/svg" xmlns:xlink="http://www.w3.org/1999/xlink" x="0px" y="0px"
	 width="48px" height="48px" viewBox="0 0 48 48" enable-background="new 0 0 48 48" xml:space="preserve">
<g>
	<path fill="#231F20" d="M14,31c0-0.552-0.447-1-1-1H9c-0.553,0-1,0.448-1,1s0.447,1,1,1h4C13.553,32,14,31.552,14,31z"/>
	<path fill="#231F20" d="M13.707,20.293c-0.391-0.391-1.023-0.391-1.414,0c-0.391,0.391-0.391,1.023,0,1.414l3,3
		C15.488,24.902,15.744,25,16,25s0.512-0.098,0.707-0.293c0.391-0.391,0.391-1.023,0-1.414L13.707,20.293z"/>
	<path fill="#231F20" d="M23,40c-0.553,0-1,0.448-1,1v4c0,0.552,0.447,1,1,1s1-0.448,1-1v-4C24,40.448,23.553,40,23,40z"/>
	<path fill="#231F20" d="M15.293,37.293l-3,3c-0.391,0.391-0.391,1.023,0,1.414C12.488,41.902,12.744,42,13,42
		s0.512-0.098,0.707-0.293l3-3c0.391-0.391,0.391-1.023,0-1.414C16.316,36.902,15.684,36.902,15.293,37.293z"/>
	<path fill="#231F20" d="M30.707,37.293c-0.391-0.391-1.023-0.391-1.414,0c-0.391,0.391-0.391,1.023,0,1.414l3,3
		C32.488,41.902,32.744,42,33,42s0.512-0.098,0.707-0.293c0.391-0.391,0.391-1.023,0-1.414L30.707,37.293z"/>
	<path fill="#231F20" d="M32.293,20.293l-3,3c-0.391,0.391-0.391,1.023,0,1.414C29.488,24.902,29.744,25,30,25
		s0.512-0.098,0.707-0.293l3-3c0.391-0.391,0.391-1.023,0-1.414C33.316,19.902,32.684,19.902,32.293,20.293z"/>
	<path fill="#231F20" d="M38.039,16.375l2.461-2.461l0.793,0.793C41.488,14.902,41.744,15,42,15s0.512-0.098,0.707-0.293
		c0.391-0.391,0.391-1.023,0-1.414l-3-3c-0.391-0.391-1.023-0.391-1.414,0c-0.391,0.391-0.391,1.023,0,1.414l0.793,0.793
		l-2.508,2.508c-3.426-2.913-7.794-4.731-12.578-4.958V6h1c0.553,0,1-0.448,1-1s-0.447-1-1-1h-4c-0.553,0-1,0.448-1,1s0.447,1,1,1h1
		v5v20c0,0.552,0.447,1,1,1h20c0.553,0,1-0.448,1-1C44,25.315,41.721,20.159,38.039,16.375z M24,30V12.026
		C33.682,12.531,41.469,20.318,41.974,30H24z"/>
</g>
</svg>
