<?xml version="1.0" encoding="utf-8"?>
<!-- Generator: Adobe Illustrator 17.0.0, SVG Export Plug-In . SVG Version: 6.00 Build 0)  -->
<!DOCTYPE svg PUBLIC "-//W3C//DTD SVG 1.1//EN" "http://www.w3.org/Graphics/SVG/1.1/DTD/svg11.dtd">
<svg version="1.1" id="Layer_1" xmlns="http://www.w3.org/2000/svg" xmlns:xlink="http://www.w3.org/1999/xlink" x="0px" y="0px"
	 width="48px" height="48px" viewBox="0 0 48 48" enable-background="new 0 0 48 48" xml:space="preserve">
<g>
	<path fill="#231F20" d="M25,0c-0.553,0-1,0.448-1,1v21H1c-0.553,0-1,0.448-1,1c0,13.785,10.767,25,24,25c13.233,0,24-10.767,24-24
		C48,10.991,37.468,0,25,0z M24,46C12.189,46,2.523,36.22,2.02,24H25c0.553,0,1-0.448,1-1V2.026C36.94,2.594,46,12.426,46,24
		C46,36.131,36.131,46,24,46z"/>
	<path fill="#231F20" d="M43,22h-4c-0.553,0-1,0.448-1,1s0.447,1,1,1h4c0.553,0,1-0.448,1-1S43.553,22,43,22z"/>
	<path fill="#231F20" d="M35.313,33.899c-0.391-0.391-1.023-0.391-1.414,0c-0.391,0.39-0.391,1.024,0,1.414l2.829,2.829
		c0.195,0.195,0.451,0.293,0.707,0.293s0.512-0.098,0.707-0.293c0.391-0.39,0.391-1.024,0-1.414L35.313,33.899z"/>
	<path fill="#231F20" d="M12.686,14.101c0.195,0.195,0.451,0.293,0.707,0.293c0.255,0,0.511-0.098,0.707-0.293
		c0.391-0.39,0.391-1.023,0-1.414l-2.828-2.829c-0.39-0.391-1.023-0.391-1.414,0c-0.391,0.39-0.391,1.023,0,1.414L12.686,14.101z"/>
	<path fill="#231F20" d="M25,38c-0.553,0-1,0.448-1,1v4c0,0.552,0.447,1,1,1s1-0.448,1-1v-4C26,38.448,25.553,38,25,38z"/>
	<path fill="#231F20" d="M12.685,33.899l-2.828,2.829c-0.391,0.391-0.391,1.024,0,1.414c0.195,0.195,0.451,0.293,0.707,0.293
		c0.256,0,0.512-0.098,0.707-0.293l2.828-2.829c0.391-0.39,0.391-1.024,0-1.414C13.709,33.508,13.076,33.508,12.685,33.899z"/>
	<path fill="#231F20" d="M34.606,14.394c0.256,0,0.512-0.098,0.707-0.293l2.829-2.829c0.391-0.39,0.391-1.023,0-1.414
		c-0.39-0.391-1.023-0.391-1.414,0l-2.829,2.829c-0.391,0.39-0.391,1.023,0,1.414C34.094,14.296,34.35,14.394,34.606,14.394z"/>
</g>
</svg>
