<?xml version="1.0" encoding="utf-8"?>
<!-- Generator: Adobe Illustrator 17.0.0, SVG Export Plug-In . SVG Version: 6.00 Build 0)  -->
<!DOCTYPE svg PUBLIC "-//W3C//DTD SVG 1.1//EN" "http://www.w3.org/Graphics/SVG/1.1/DTD/svg11.dtd">
<svg version="1.1" id="Layer_1" xmlns="http://www.w3.org/2000/svg" xmlns:xlink="http://www.w3.org/1999/xlink" x="0px" y="0px"
	 width="48px" height="48px" viewBox="0 0 48 48" enable-background="new 0 0 48 48" xml:space="preserve">
<g>
	<path fill="#231F20" d="M10,23c0-0.552-0.448-1-1-1H5c-0.552,0-1,0.448-1,1s0.448,1,1,1h4C9.552,24,10,23.552,10,23z"/>
	<path fill="#231F20" d="M43,22h-4c-0.552,0-1,0.448-1,1s0.448,1,1,1h4c0.552,0,1-0.448,1-1S43.552,22,43,22z"/>
	<path fill="#231F20" d="M24,38c-0.552,0-1,0.448-1,1v4c0,0.552,0.448,1,1,1s1-0.448,1-1v-4C25,38.448,24.552,38,24,38z"/>
	<path fill="#231F20" d="M24,4c-0.552,0-1,0.448-1,1v4c0,0.552,0.448,1,1,1s1-0.448,1-1V5C25,4.448,24.552,4,24,4z"/>
	<path fill="#231F20" d="M12.686,33.9l-2.829,2.828c-0.391,0.39-0.391,1.023,0,1.414c0.195,0.195,0.451,0.293,0.707,0.293
		c0.256,0,0.512-0.098,0.707-0.293l2.829-2.828c0.391-0.39,0.391-1.023,0-1.414C13.709,33.509,13.077,33.509,12.686,33.9z"/>
	<path fill="#231F20" d="M34.606,14.393c0.256,0,0.512-0.098,0.707-0.293l2.828-2.828c0.391-0.391,0.39-1.023,0-1.414
		c-0.39-0.391-1.023-0.391-1.414,0l-2.828,2.828c-0.391,0.391-0.391,1.023,0,1.414C34.094,14.295,34.35,14.393,34.606,14.393z"/>
	<path fill="#231F20" d="M35.314,33.9c-0.39-0.391-1.023-0.391-1.414,0c-0.391,0.39-0.391,1.023,0,1.414l2.828,2.828
		c0.195,0.195,0.451,0.293,0.707,0.293c0.255,0,0.511-0.098,0.707-0.293c0.391-0.391,0.391-1.023,0-1.414L35.314,33.9z"/>
	<path fill="#231F20" d="M11.271,9.858c-0.39-0.391-1.023-0.391-1.414,0c-0.391,0.391-0.391,1.024,0,1.414l2.829,2.828
		c0.195,0.195,0.451,0.293,0.707,0.293s0.512-0.098,0.707-0.293c0.391-0.39,0.391-1.024,0-1.414L11.271,9.858z"/>
	<path fill="#231F20" d="M24,0C10.767,0,0,10.767,0,24s10.767,24,24,24c13.233,0,24-10.767,24-24S37.233,0,24,0z M24,46
		C11.869,46,2,36.131,2,24S11.869,2,24,2s22,9.869,22,22S36.131,46,24,46z"/>
</g>
</svg>
