<?xml version="1.0" encoding="utf-8"?>
<!-- Generator: Adobe Illustrator 17.0.0, SVG Export Plug-In . SVG Version: 6.00 Build 0)  -->
<!DOCTYPE svg PUBLIC "-//W3C//DTD SVG 1.1//EN" "http://www.w3.org/Graphics/SVG/1.1/DTD/svg11.dtd">
<svg version="1.1" id="Layer_1" xmlns="http://www.w3.org/2000/svg" xmlns:xlink="http://www.w3.org/1999/xlink" x="0px" y="0px"
	 width="48px" height="48px" viewBox="0 0 48 48" enable-background="new 0 0 48 48" xml:space="preserve">
<g>
	<path fill="#231F20" d="M31,0h-4c-0.553,0-1,0.448-1,1s0.447,1,1,1h1v4.025c-5.043,0.228-9.704,2.17-13.349,5.212L11.914,8.5
		l0.793-0.793c0.391-0.391,0.391-1.023,0-1.414c-0.391-0.391-1.023-0.391-1.414,0l-3,3c-0.391,0.391-0.391,1.023,0,1.414
		C8.488,10.902,8.744,11,9,11s0.512-0.098,0.707-0.293L10.5,9.914l2.673,2.673C9.373,16.381,7,21.481,7,27c0,11.383,10.075,21,22,21
		c0.553,0,1-0.448,1-1V7V2h1c0.553,0,1-0.448,1-1S31.553,0,31,0z M28,45.975C17.602,45.461,9,36.981,9,27S17.602,8.539,28,8.025
		V45.975z"/>
	<path fill="#231F20" d="M43,26h-4c-0.553,0-1,0.448-1,1s0.447,1,1,1h4c0.553,0,1-0.448,1-1S43.553,26,43,26z"/>
	<path fill="#231F20" d="M36,21c0.256,0,0.512-0.098,0.707-0.293l3-3c0.391-0.391,0.391-1.023,0-1.414
		c-0.391-0.391-1.023-0.391-1.414,0l-3,3c-0.391,0.391-0.391,1.023,0,1.414C35.488,20.902,35.744,21,36,21z"/>
	<path fill="#231F20" d="M36.707,33.293c-0.391-0.391-1.023-0.391-1.414,0c-0.391,0.391-0.391,1.023,0,1.414l3,3
		C38.488,37.902,38.744,38,39,38s0.512-0.098,0.707-0.293c0.391-0.391,0.391-1.023,0-1.414L36.707,33.293z"/>
	<path fill="#231F20" d="M19,27c0-0.552-0.447-1-1-1h-4c-0.553,0-1,0.448-1,1s0.447,1,1,1h4C18.553,28,19,27.552,19,27z"/>
	<path fill="#231F20" d="M20.293,33.293l-3,3c-0.391,0.391-0.391,1.023,0,1.414C17.488,37.902,17.744,38,18,38
		s0.512-0.098,0.707-0.293l3-3c0.391-0.391,0.391-1.023,0-1.414C21.316,32.902,20.684,32.902,20.293,33.293z"/>
	<path fill="#231F20" d="M20.293,20.707C20.488,20.902,20.744,21,21,21s0.512-0.098,0.707-0.293c0.391-0.391,0.391-1.023,0-1.414
		l-3-3c-0.391-0.391-1.023-0.391-1.414,0c-0.391,0.391-0.391,1.023,0,1.414L20.293,20.707z"/>
</g>
</svg>
