<?xml version="1.0" encoding="utf-8"?>
<!-- Generator: Adobe Illustrator 17.0.0, SVG Export Plug-In . SVG Version: 6.00 Build 0)  -->
<!DOCTYPE svg PUBLIC "-//W3C//DTD SVG 1.1//EN" "http://www.w3.org/Graphics/SVG/1.1/DTD/svg11.dtd">
<svg version="1.1" id="Layer_1" xmlns="http://www.w3.org/2000/svg" xmlns:xlink="http://www.w3.org/1999/xlink" x="0px" y="0px"
	 width="48px" height="48px" viewBox="0 0 48 48" enable-background="new 0 0 48 48" xml:space="preserve">
<g>
	<path fill="#231F20" d="M14,27c0-0.552-0.447-1-1-1H9c-0.553,0-1,0.448-1,1s0.447,1,1,1h4C13.553,28,14,27.552,14,27z"/>
	<path fill="#231F20" d="M13.707,16.293c-0.391-0.391-1.023-0.391-1.414,0c-0.391,0.391-0.391,1.023,0,1.414l3,3
		C15.488,20.902,15.744,21,16,21s0.512-0.098,0.707-0.293c0.391-0.391,0.391-1.023,0-1.414L13.707,16.293z"/>
	<path fill="#231F20" d="M15.293,33.293l-3,3c-0.391,0.391-0.391,1.023,0,1.414C12.488,37.902,12.744,38,13,38
		s0.512-0.098,0.707-0.293l3-3c0.391-0.391,0.391-1.023,0-1.414C16.316,32.902,15.684,32.902,15.293,33.293z"/>
	<path fill="#231F20" d="M37,26h-4c-0.553,0-1,0.448-1,1s0.447,1,1,1h4c0.553,0,1-0.448,1-1S37.553,26,37,26z"/>
	<path fill="#231F20" d="M23,36c-0.553,0-1,0.448-1,1v4c0,0.552,0.447,1,1,1s1-0.448,1-1v-4C24,36.448,23.553,36,23,36z"/>
	<path fill="#231F20" d="M23,12c-0.553,0-1,0.448-1,1v4c0,0.552,0.447,1,1,1s1-0.448,1-1v-4C24,12.448,23.553,12,23,12z"/>
	<path fill="#231F20" d="M30.707,33.293c-0.391-0.391-1.023-0.391-1.414,0c-0.391,0.391-0.391,1.023,0,1.414l3,3
		C32.488,37.902,32.744,38,33,38s0.512-0.098,0.707-0.293c0.391-0.391,0.391-1.023,0-1.414L30.707,33.293z"/>
	<path fill="#231F20" d="M30,21c0.256,0,0.512-0.098,0.707-0.293l3-3c0.391-0.391,0.391-1.023,0-1.414
		c-0.391-0.391-1.023-0.391-1.414,0l-3,3c-0.391,0.391-0.391,1.023,0,1.414C29.488,20.902,29.744,21,30,21z"/>
	<path fill="#231F20" d="M38.039,12.375L40.5,9.914l0.793,0.793C41.488,10.902,41.744,11,42,11s0.512-0.098,0.707-0.293
		c0.391-0.391,0.391-1.023,0-1.414l-3-3c-0.391-0.391-1.023-0.391-1.414,0c-0.391,0.391-0.391,1.023,0,1.414L39.086,8.5
		l-2.508,2.508C33.152,8.095,28.784,6.278,24,6.051V2h1c0.553,0,1-0.448,1-1s-0.447-1-1-1h-4c-0.553,0-1,0.448-1,1s0.447,1,1,1h1
		v4.051C10.887,6.578,2,15.758,2,27c0,11.58,9.421,21,21,21s21-9.42,21-21C44,21.315,41.721,16.159,38.039,12.375z M23,46
		C12.523,46,4,37.477,4,27S12.523,8,23,8s19,8.523,19,19S33.477,46,23,46z"/>
</g>
</svg>
