<?xml version="1.0" encoding="utf-8"?>
<!-- Generator: Adobe Illustrator 17.0.0, SVG Export Plug-In . SVG Version: 6.00 Build 0)  -->
<!DOCTYPE svg PUBLIC "-//W3C//DTD SVG 1.1//EN" "http://www.w3.org/Graphics/SVG/1.1/DTD/svg11.dtd">
<svg version="1.1" id="Layer_1" xmlns="http://www.w3.org/2000/svg" xmlns:xlink="http://www.w3.org/1999/xlink" x="0px" y="0px"
	 width="48px" height="48px" viewBox="0 0 48 48" enable-background="new 0 0 48 48" xml:space="preserve">
<g>
	<path fill="#231F20" d="M38.151,14.605l2.191-2.191l0.293,0.293C40.831,12.902,41.087,13,41.343,13
		c0.256,0,0.511-0.098,0.707-0.293c0.391-0.391,0.391-1.023,0-1.414l-2-2c-0.39-0.391-1.023-0.391-1.414,0
		c-0.391,0.391-0.391,1.023,0,1.414L38.929,11l-2.191,2.191c-2.846-2.577-6.427-4.34-10.394-4.941V2h3c0.552,0,1-0.448,1-1
		s-0.448-1-1-1h-4h-4h-4c-0.552,0-1,0.448-1,1s0.448,1,1,1h3v6.25c-9.606,1.455-17,9.744-17,19.75c0,11.028,8.972,20,20,20
		c11.028,0,20-8.972,20-20C43.343,22.845,41.366,18.155,38.151,14.605z M22.343,2h2v6.051C24.01,8.034,23.681,8,23.343,8
		s-0.667,0.034-1,0.051V2z M23.343,46c-9.925,0-18-8.075-18-18s8.075-18,18-18s18,8.075,18,18S33.268,46,23.343,46z"/>
	<path fill="#231F20" d="M15.05,18.293c-0.39-0.391-1.023-0.391-1.414,0c-0.391,0.391-0.391,1.023,0,1.414l9,9
		C22.831,28.902,23.087,29,23.343,29c0.256,0,0.511-0.098,0.707-0.293c0.391-0.391,0.391-1.023,0-1.414L15.05,18.293z"/>
</g>
</svg>
