<?xml version="1.0" encoding="utf-8"?>
<!-- Generator: Adobe Illustrator 17.0.0, SVG Export Plug-In . SVG Version: 6.00 Build 0)  -->
<!DOCTYPE svg PUBLIC "-//W3C//DTD SVG 1.1//EN" "http://www.w3.org/Graphics/SVG/1.1/DTD/svg11.dtd">
<svg version="1.1" id="Layer_1" xmlns="http://www.w3.org/2000/svg" xmlns:xlink="http://www.w3.org/1999/xlink" x="0px" y="0px"
	 width="48px" height="48px" viewBox="0 0 48 48" enable-background="new 0 0 48 48" xml:space="preserve">
<g>
	<path fill="#231F20" d="M27,0C13.449,0,2,10.991,2,24s11.449,24,25,24c0.552,0,1-0.448,1-1V1C28,0.448,27.552,0,27,0z M26,45.979
		C13.975,45.458,4,35.605,4,24S13.975,2.543,26,2.022V45.979z"/>
	<path fill="#231F20" d="M6,23c0,0.552,0.448,1,1,1h4c0.552,0,1-0.448,1-1s-0.448-1-1-1H7C6.448,22,6,22.448,6,23z"/>
	<path fill="#231F20" d="M45,22h-4c-0.552,0-1,0.448-1,1s0.448,1,1,1h4c0.552,0,1-0.448,1-1S45.552,22,45,22z"/>
	<path fill="#231F20" d="M14.686,33.899l-2.828,2.829c-0.391,0.391-0.391,1.024,0,1.414c0.195,0.195,0.451,0.293,0.707,0.293
		s0.512-0.098,0.707-0.293l2.828-2.829c0.391-0.391,0.391-1.024,0-1.414C15.71,33.508,15.077,33.508,14.686,33.899z"/>
	<path fill="#231F20" d="M36.607,14.394c0.256,0,0.512-0.098,0.707-0.293l2.828-2.829c0.391-0.391,0.391-1.024,0-1.414
		c-0.391-0.391-1.023-0.391-1.414,0L35.9,12.687c-0.391,0.391-0.391,1.024,0,1.414C36.095,14.296,36.351,14.394,36.607,14.394z"/>
	<path fill="#231F20" d="M37.314,33.9c-0.391-0.391-1.023-0.391-1.414,0c-0.391,0.39-0.391,1.023,0,1.414l2.828,2.828
		c0.195,0.195,0.451,0.293,0.707,0.293s0.512-0.098,0.707-0.292c0.391-0.39,0.391-1.023,0-1.414L37.314,33.9z"/>
	<path fill="#231F20" d="M14.687,14.101c0.195,0.195,0.451,0.293,0.707,0.293c0.255,0,0.511-0.098,0.707-0.293
		c0.391-0.39,0.391-1.023,0-1.414l-2.828-2.829c-0.391-0.391-1.023-0.391-1.414,0c-0.391,0.39-0.391,1.023,0,1.414L14.687,14.101z"
		/>
</g>
</svg>
