<?xml version="1.0" encoding="utf-8"?>
<!-- Generator: Adobe Illustrator 17.0.0, SVG Export Plug-In . SVG Version: 6.00 Build 0)  -->
<!DOCTYPE svg PUBLIC "-//W3C//DTD SVG 1.1//EN" "http://www.w3.org/Graphics/SVG/1.1/DTD/svg11.dtd">
<svg version="1.1" id="Layer_1" xmlns="http://www.w3.org/2000/svg" xmlns:xlink="http://www.w3.org/1999/xlink" x="0px" y="0px"
	 width="48px" height="48px" viewBox="0 0 48 48" enable-background="new 0 0 48 48" xml:space="preserve">
<g>
	<path fill="#231F20" d="M39,24c0-5.329-2.801-10.005-7-12.666V1c0-0.552-0.447-1-1-1H17c-0.553,0-1,0.448-1,1v10.333
		C11.801,13.995,9,18.671,9,24s2.801,10.005,7,12.667V47c0,0.552,0.447,1,1,1h14c0.553,0,1-0.448,1-1V36.666
		C36.199,34.005,39,29.329,39,24z M18,2h12v8.261C28.161,9.455,26.134,9,24,9c-2.134,0-4.161,0.455-6,1.261V2z M30,46H18v-8.261
		C19.839,38.545,21.866,39,24,39c2.134,0,4.161-0.455,6-1.261V46z M24,37c-7.168,0-13-5.831-13-13s5.832-13,13-13
		c7.168,0,13,5.831,13,13S31.168,37,24,37z"/>
	<path fill="#231F20" d="M24,23.54V18c0-0.552-0.447-1-1-1s-1,0.448-1,1v6c0,0.292,0.128,0.569,0.35,0.759l7,6
		C29.538,30.921,29.769,31,30,31c0.281,0,0.561-0.119,0.758-0.349c0.361-0.419,0.312-1.051-0.108-1.41L24,23.54z"/>
</g>
</svg>
