<?xml version="1.0" encoding="utf-8"?>
<!-- Generator: Adobe Illustrator 17.0.0, SVG Export Plug-In . SVG Version: 6.00 Build 0)  -->
<!DOCTYPE svg PUBLIC "-//W3C//DTD SVG 1.1//EN" "http://www.w3.org/Graphics/SVG/1.1/DTD/svg11.dtd">
<svg version="1.1" id="Layer_1" xmlns="http://www.w3.org/2000/svg" xmlns:xlink="http://www.w3.org/1999/xlink" x="0px" y="0px"
	 width="48px" height="48px" viewBox="0 0 48 48" enable-background="new 0 0 48 48" xml:space="preserve">
<g>
	<path fill="#231F20" d="M24,24.586V20c0-0.552-0.447-1-1-1s-1,0.448-1,1v5c0,0.265,0.105,0.52,0.293,0.707l6,6
		C28.488,31.902,28.744,32,29,32s0.512-0.098,0.707-0.293c0.391-0.391,0.391-1.023,0-1.414L24,24.586z"/>
	<path fill="#231F20" d="M47.707,8.293l-4-4l0,0l0,0l-4-4c-0.391-0.391-1.023-0.391-1.414,0l-4,4l-6.505,6.505
		C26.282,10.288,24.676,10,23,10c-8.272,0-15,6.729-15,15c0,1.676,0.288,3.282,0.797,4.789l-8.504,8.504C0.105,38.48,0,38.735,0,39
		v8c0,0.552,0.447,1,1,1h8c0.266,0,0.519-0.105,0.707-0.293l8.504-8.504C19.717,39.712,21.324,40,23,40c8.271,0,15-6.729,15-15
		c0-1.676-0.288-3.282-0.798-4.788l6.505-6.505l4-4C48.098,9.316,48.098,8.684,47.707,8.293z M39,2.414L41.586,5L39,7.586L36.414,5
		L39,2.414z M8.586,46H2v-6.586l7.636-7.636c1.443,2.833,3.753,5.143,6.586,6.586L8.586,46z M23,38c-7.168,0-13-5.831-13-13
		s5.832-13,13-13s13,5.832,13,13C36,32.168,30.168,38,23,38z M36.364,18.222c-1.443-2.832-3.754-5.143-6.586-6.586L35,6.414
		L41.586,13L36.364,18.222z M43,11.586L40.414,9L43,6.414L45.586,9L43,11.586z"/>
	<path fill="#231F20" d="M7,40c-0.556,0-1,0.447-1,1s0.444,1,1,1c0.549,0,1-0.447,1-1S7.549,40,7,40z"/>
	<path fill="#231F20" d="M10,37c-0.556,0-1,0.447-1,1s0.444,1,1,1c0.549,0,1-0.447,1-1S10.549,37,10,37z"/>
</g>
</svg>
