<?xml version="1.0" encoding="UTF-8" standalone="no"?>
<svg width="20px" height="20px" viewBox="0 0 20 20" version="1.1" xmlns="http://www.w3.org/2000/svg" xmlns:xlink="http://www.w3.org/1999/xlink">
    <g stroke="none" stroke-width="1" fill-rule="evenodd">
        <g transform="translate(3.000000, 0.000000)">
            <path d="M12.0833333,4.16666667 C11.8529167,4.16666667 11.6666667,3.98 11.6666667,3.75 L11.6666667,2.5 L2.08333333,2.5 C1.85333333,2.5 1.66666667,2.31333333 1.66666667,2.08333333 C1.66666667,1.85333333 1.85333333,1.66666667 2.08333333,1.66666667 L12.0833333,1.66666667 C12.31375,1.66666667 12.5,1.85333333 12.5,2.08333333 L12.5,3.75 C12.5,3.98 12.31375,4.16666667 12.0833333,4.16666667"></path>
            <path d="M14.5833333,20 L2.08333333,20 C0.934583333,20 0,19.0654167 0,17.9166667 L0,2.08333333 C0,0.934583333 0.934583333,0 2.08333333,0 L13.75,0 C13.9804167,0 14.1666667,0.186666667 14.1666667,0.416666667 L14.1666667,3.33333333 L14.5833333,3.33333333 C14.81375,3.33333333 15,3.52 15,3.75 L15,19.5833333 C15,19.81375 14.81375,20 14.5833333,20 L14.5833333,20 Z M0.833333333,3.74916667 L0.833333333,17.9166667 C0.833333333,18.6058333 1.39416667,19.1666667 2.08333333,19.1666667 L14.1666667,19.1666667 L14.1666667,4.16666667 L2.08333333,4.16666667 C1.61458333,4.16666667 1.18166667,4.01083333 0.833333333,3.74916667 L0.833333333,3.74916667 Z M2.08333333,0.833333333 C1.39416667,0.833333333 0.833333333,1.39416667 0.833333333,2.08333333 C0.833333333,2.7725 1.39416667,3.33333333 2.08333333,3.33333333 L13.3333333,3.33333333 L13.3333333,0.833333333 L2.08333333,0.833333333 L2.08333333,0.833333333 Z"></path>
        </g>
    </g>
</svg>
