<?xml version="1.0" encoding="UTF-8" standalone="no"?>
<svg width="20px" height="20px" viewBox="0 0 20 20" version="1.1" xmlns="http://www.w3.org/2000/svg" xmlns:xlink="http://www.w3.org/1999/xlink">
    <g stroke="none" stroke-width="1" fill-rule="evenodd">
        <g transform="translate(0.000000, 2.950820)">
            <path d="M10,10.6557377 C9.94819672,10.6557377 9.89672131,10.6436066 9.8495082,10.6193443 L0.341311475,5.70098361 C0.232131148,5.64459016 0.163934426,5.53245902 0.163934426,5.40983607 C0.163934426,5.28721311 0.232131148,5.17508197 0.341311475,5.11868852 L9.8495082,0.200655738 C9.94393443,0.15147541 10.0560656,0.15147541 10.1504918,0.200655738 L19.6586885,5.11868852 C19.767541,5.17508197 19.8360656,5.28721311 19.8360656,5.40983607 C19.8360656,5.53245902 19.767541,5.64459016 19.6586885,5.70098361 L10.1504918,10.6193443 C10.1032787,10.6436066 10.0518033,10.6557377 10,10.6557377 L10,10.6557377 Z M1.20557377,5.40983607 L10,9.95868852 L18.7944262,5.40983607 L10,0.860983607 L1.20557377,5.40983607 L1.20557377,5.40983607 Z"></path>
            <path d="M9.94360656,13.392459 C8.98655738,13.392459 8.01147541,13.2534426 6.96295082,12.967541 C6.78819672,12.9196721 6.6852459,12.7393443 6.73278689,12.564918 C6.78032787,12.3901639 6.96,12.2872131 7.13540984,12.3347541 C8.12721311,12.6052459 9.04557377,12.7367213 9.94360656,12.7367213 C13.5455738,12.7367213 15.8445902,10.4996721 15.8445902,8.95967213 L15.8445902,7.04918033 C15.8445902,6.86819672 15.9911475,6.72131148 16.172459,6.72131148 C16.3537705,6.72131148 16.5003279,6.86819672 16.5003279,7.04918033 L16.5003279,8.95967213 C16.5003279,10.8108197 14.0059016,13.392459 9.94360656,13.392459"></path>
            <path d="M3.7704918,11.3114754 C3.5895082,11.3114754 3.44262295,11.164918 3.44262295,10.9836066 L3.44262295,7.04918033 C3.44262295,6.90032787 3.54295082,6.76983607 3.68721311,6.73213115 L9.91672131,5.09278689 C10.0914754,5.04688525 10.2708197,5.15147541 10.3170492,5.32655738 C10.3629508,5.50163934 10.2586885,5.68098361 10.0832787,5.72688525 L4.09836066,7.30196721 L4.09836066,10.9836066 C4.09836066,11.164918 3.95147541,11.3114754 3.7704918,11.3114754"></path>
            <path d="M3.7704918,13.9344262 C2.86655738,13.9344262 2.13114754,13.1990164 2.13114754,12.295082 C2.13114754,11.3911475 2.86655738,10.6557377 3.7704918,10.6557377 C4.67442623,10.6557377 5.40983607,11.3911475 5.40983607,12.295082 C5.40983607,13.1990164 4.67442623,13.9344262 3.7704918,13.9344262 L3.7704918,13.9344262 Z M3.7704918,11.3114754 C3.22819672,11.3114754 2.78688525,11.7527869 2.78688525,12.295082 C2.78688525,12.837377 3.22819672,13.2786885 3.7704918,13.2786885 C4.31278689,13.2786885 4.75409836,12.837377 4.75409836,12.295082 C4.75409836,11.7527869 4.31278689,11.3114754 3.7704918,11.3114754 L3.7704918,11.3114754 Z"></path>
        </g>
    </g>
</svg>
