<?xml version="1.0" encoding="utf-8"?>
<!-- Generator: Adobe Illustrator 16.0.3, SVG Export Plug-In . SVG Version: 6.00 Build 0)  -->
<!DOCTYPE svg PUBLIC "-//W3C//DTD SVG 1.1//EN" "http://www.w3.org/Graphics/SVG/1.1/DTD/svg11.dtd">
<svg version="1.1" xmlns="http://www.w3.org/2000/svg" xmlns:xlink="http://www.w3.org/1999/xlink" x="0px" y="0px" width="24px"
	 height="24px" viewBox="0 0 24 24" enable-background="new 0 0 24 24" xml:space="preserve">
<g id="Outline_Icons_1_">
	<g id="Outline_Icons">
		<g>
			<path d="M23.854,11.646l-5.5-5.5c-0.195-0.195-0.512-0.195-0.707,0s-0.195,0.512,0,0.707L22.793,12l-5.146,5.146
				c-0.195,0.195-0.195,0.512,0,0.707C17.744,17.951,17.872,18,18,18s0.256-0.049,0.354-0.146l5.5-5.5
				C24.049,12.159,24.049,11.842,23.854,11.646z"/>
			<path d="M6.354,6.146c-0.195-0.195-0.512-0.195-0.707,0l-5.5,5.5c-0.195,0.195-0.195,0.512,0,0.707l5.5,5.5
				C5.744,17.951,5.872,18,6,18s0.256-0.049,0.354-0.146c0.195-0.195,0.195-0.512,0-0.707L1.207,12l5.146-5.146
				C6.549,6.659,6.549,6.342,6.354,6.146z"/>
		</g>
	</g>
</g>
</svg>
