<?xml version="1.0" encoding="utf-8"?>
<!-- Generator: Adobe Illustrator 16.0.3, SVG Export Plug-In . SVG Version: 6.00 Build 0)  -->
<!DOCTYPE svg PUBLIC "-//W3C//DTD SVG 1.1//EN" "http://www.w3.org/Graphics/SVG/1.1/DTD/svg11.dtd">
<svg version="1.1" xmlns="http://www.w3.org/2000/svg" xmlns:xlink="http://www.w3.org/1999/xlink" x="0px" y="0px" width="24px"
	 height="24px" viewBox="0 0 24 24" enable-background="new 0 0 24 24" xml:space="preserve">
<g id="Outline_Icons">
	<path d="M23.5,12.004H1.825L13.33,1.879c0.208-0.182,0.228-0.498,0.045-0.705c-0.184-0.208-0.499-0.228-0.706-0.045l-12.5,11
		c-0.003,0.003-0.005,0.008-0.008,0.012c-0.039,0.035-0.067,0.078-0.093,0.124c-0.008,0.014-0.02,0.024-0.026,0.038
		C0.016,12.365,0,12.432,0,12.504s0.016,0.14,0.043,0.201c0.006,0.014,0.018,0.024,0.026,0.038c0.025,0.046,0.054,0.089,0.093,0.125
		c0.003,0.003,0.004,0.008,0.008,0.011l12.5,11c0.095,0.084,0.212,0.125,0.33,0.125c0.139,0,0.276-0.058,0.375-0.17
		c0.182-0.207,0.162-0.523-0.045-0.705L1.825,13.004H23.5c0.276,0,0.5-0.224,0.5-0.5S23.776,12.004,23.5,12.004z"/>
</g>
</svg>
