<?xml version="1.0" encoding="utf-8"?>
<!-- Generator: Adobe Illustrator 16.0.3, SVG Export Plug-In . SVG Version: 6.00 Build 0)  -->
<!DOCTYPE svg PUBLIC "-//W3C//DTD SVG 1.1//EN" "http://www.w3.org/Graphics/SVG/1.1/DTD/svg11.dtd">
<svg version="1.1" xmlns="http://www.w3.org/2000/svg" xmlns:xlink="http://www.w3.org/1999/xlink" x="0px" y="0px" width="24px"
	 height="24px" viewBox="0 0 24 24" enable-background="new 0 0 24 24" xml:space="preserve">
<g id="Outline_Icons_1_">
	<g id="Outline_Icons">
		<g>
			<path d="M6.854,6.354L12,1.207l5.146,5.147C17.244,6.451,17.372,6.5,17.5,6.5s0.256-0.049,0.354-0.146
				c0.195-0.195,0.195-0.512,0-0.707l-5.5-5.5c-0.195-0.195-0.512-0.195-0.707,0l-5.5,5.5c-0.195,0.195-0.195,0.512,0,0.707
				C6.342,6.549,6.658,6.549,6.854,6.354z"/>
			<path d="M17.146,17.646L12,22.793l-5.146-5.146c-0.195-0.195-0.512-0.195-0.707,0s-0.195,0.512,0,0.707l5.5,5.5
				C11.744,23.951,11.872,24,12,24s0.256-0.049,0.354-0.146l5.5-5.5c0.195-0.195,0.195-0.512,0-0.707S17.342,17.451,17.146,17.646z"
				/>
		</g>
	</g>
</g>
</svg>
