<?xml version="1.0" encoding="utf-8"?>
<!-- Generator: Adobe Illustrator 16.0.3, SVG Export Plug-In . SVG Version: 6.00 Build 0)  -->
<!DOCTYPE svg PUBLIC "-//W3C//DTD SVG 1.1//EN" "http://www.w3.org/Graphics/SVG/1.1/DTD/svg11.dtd">
<svg version="1.1" xmlns="http://www.w3.org/2000/svg" xmlns:xlink="http://www.w3.org/1999/xlink" x="0px" y="0px" width="24px"
	 height="24px" viewBox="0 0 24 24" enable-background="new 0 0 24 24" xml:space="preserve">
<g id="Outline_Icons_1_">
	<g>
		<path d="M23.854,0.146c-0.195-0.195-0.512-0.195-0.707,0L14,9.293V3.5C14,3.224,13.776,3,13.5,3S13,3.224,13,3.5v7
			c0,0.276,0.224,0.5,0.5,0.5h7c0.276,0,0.5-0.224,0.5-0.5S20.776,10,20.5,10h-5.793l9.146-9.146
			C24.049,0.658,24.049,0.342,23.854,0.146z"/>
		<path d="M10.5,13h-7C3.224,13,3,13.224,3,13.5S3.224,14,3.5,14h5.793l-9.146,9.146c-0.195,0.195-0.195,0.512,0,0.707
			s0.512,0.195,0.707,0L10,14.707V20.5c0,0.276,0.224,0.5,0.5,0.5s0.5-0.224,0.5-0.5v-7C11,13.224,10.776,13,10.5,13z"/>
	</g>
</g>
</svg>
