<svg xmlns="http://www.w3.org/2000/svg" width="24" height="24" viewBox="0 0 24 24"><g ><path  fill-rule="evenodd" d="M12,2.001 C6.486,2.001 2,6.486 2,12.001 C2,17.515 6.486,22.001 12,22.001 C17.514,22.001 22,17.515 22,12.001 C22,6.487 17.514,2.001 12,2.001 Z M12,20.001 C7.589,20.001 4,16.411 4,12.001 C4,7.589 7.589,4.001 12,4.001 C16.411,4.001 20,7.589 20,12.001 C20,16.412 16.411,20.001 12,20.001 Z"/><polygon  fill-rule="evenodd" points="7.293 10.294 8.707 11.708 11 9.416 11 18.001 13 18.001 13 9.416 15.293 11.708 16.707 10.294 12 5.587"/></g></svg>