<svg xmlns="http://www.w3.org/2000/svg" width="24" height="24" viewBox="0 0 24 24"><g ><path  fill-rule="evenodd" d="M20,1.999 L4,1.999 C2.896,1.999 2,2.895 2,3.999 L2,8.999 L4,8.999 L4,3.999 L20,3.999 L20,8.999 L22,8.999 L22,3.999 C22,2.896 21.104,1.999 20,1.999 Z"/><polygon  fill-rule="evenodd" points="2 14.999 4 14.999 4 16.999 2 16.999"/><polygon  fill-rule="evenodd" points="20 14.999 22 14.999 22 16.999 20 16.999"/><path  fill-rule="evenodd" d="M4 18.999L2 18.999 2 19.999C2 21.103 2.896 21.999 4 21.999L5 21.999 5 19.999 4 19.999 4 18.999zM20 19.999L19 19.999 19 21.999 20 21.999C21.104 21.999 22 21.103 22 19.999L22 18.999 20 18.999 20 19.999z"/><polygon  fill-rule="evenodd" points="7 19.999 9 19.999 9 21.999 7 21.999"/><polygon  fill-rule="evenodd" points="15 19.999 17 19.999 17 21.999 15 21.999"/><polygon  fill-rule="evenodd" points="11 19.999 13 19.999 13 21.999 11 21.999"/><path  fill-rule="evenodd" d="M14,13.585 L14,9.999 C14,8.895 14.896,7.999 16,7.999 L16,5.999 C13.795,5.999 12,7.794 12,9.999 L12,13.585 L10.707,12.292 L9.293,13.706 L13,17.413 L16.707,13.706 L15.293,12.292 L14,13.585 Z" transform="rotate(180 13 11.706)"/><polygon  fill-rule="evenodd" points="17 10.999 22 10.999 22 12.999 17 12.999" transform="rotate(180 19.5 11.999)"/><polygon  fill-rule="evenodd" points="2 10.999 9 10.999 9 12.999 2 12.999" transform="rotate(180 5.5 11.999)"/></g></svg>
