<svg width="24px" height="24px" viewBox="0 0 24 24" version="1.1" xmlns="http://www.w3.org/2000/svg" xmlns:xlink="http://www.w3.org/1999/xlink">
    <!-- Generator: Sketch 41 (35326) - http://www.bohemiancoding.com/sketch -->
    <desc>Created with Sketch.</desc>
    <defs></defs>
    <g stroke="none" fill-rule="evenodd">
        <path d="M15,13 L23,13 L23,12 L15,12 L15,13 Z M1,13 L9,13 L9,12 L1,12 L1,13 Z M21.5,1 L21.5,10.5 L22.5,10.5 L22.5,0 L1.5,0 L1.5,10.5 L2.5,10.5 L2.5,1 L21.5,1 Z M2,20 C1.72330534,20.0005523 1.49944772,20.2253053 1.5,20.502 C1.50055228,20.7786947 1.72530534,21.0025523 2.002,21.002 C2.27869465,21.0014477 2.50255226,20.7766946 2.50199997,20.5 C2.50144769,20.2233054 2.27669465,19.9994477 2,20 Z M2,18 C1.82100993,18.0003573 1.65580689,18.0961774 1.56662125,18.251366 C1.47743562,18.4065546 1.47781681,18.5975347 1.56762125,18.752366 C1.65742569,18.9071973 1.82300993,19.0023573 2.002,19.002 C2.27869465,19.0014477 2.50255226,18.7766946 2.50199997,18.5 C2.50144769,18.2233054 2.27669465,17.9994477 2,18 Z M2,16 C1.72330534,16.0005523 1.49944772,16.2253053 1.5,16.502 C1.50055228,16.7786947 1.72530534,17.0025523 2.002,17.002 C2.18099006,17.0016427 2.3461931,16.9058225 2.43537873,16.750634 C2.52456436,16.5954454 2.52418316,16.4044653 2.43437873,16.249634 C2.3445743,16.0948027 2.17899006,15.9996427 2,16 L2,16 Z M2,14 C1.72330534,14.0005523 1.49944772,14.2253053 1.5,14.502 C1.50055228,14.7786947 1.72530534,15.0025523 2.002,15.002 C2.18099006,15.0016427 2.3461931,14.9058225 2.43537873,14.750634 C2.52456436,14.5954454 2.52418316,14.4044653 2.43437873,14.249634 C2.3445743,14.0948027 2.17899006,13.9996427 2,14 L2,14 Z M22,20 C21.8210099,20.0003573 21.6558069,20.0961775 21.5666213,20.251366 C21.4774356,20.4065546 21.4778168,20.5975347 21.5676213,20.752366 C21.6574257,20.9071973 21.8230099,21.0023573 22.002,21.002 C22.2786946,21.0014477 22.5025523,20.7766946 22.502,20.5 C22.5014477,20.2233054 22.2766946,19.9994477 22,20 Z M22,18 C21.8210099,18.0003573 21.6558069,18.0961774 21.5666213,18.251366 C21.4774356,18.4065546 21.4778168,18.5975347 21.5676213,18.752366 C21.6574257,18.9071973 21.8230099,19.0023573 22.002,19.002 C22.2786946,19.0014477 22.5025523,18.7766946 22.502,18.5 C22.5014477,18.2233054 22.2766946,17.9994477 22,18 Z M22,16 C21.8210099,16.0003573 21.6558069,16.0961775 21.5666213,16.251366 C21.4774356,16.4065546 21.4778168,16.5975347 21.5676213,16.752366 C21.6574257,16.9071973 21.8230099,17.0023573 22.002,17.002 C22.2786947,17.0014477 22.5025523,16.7766947 22.502,16.5 C22.5014477,16.2233053 22.2766947,15.9994477 22,16 L22,16 Z M22,14 C21.7233053,14.0005523 21.4994477,14.2253053 21.5,14.502 C21.5005523,14.7786947 21.7253053,15.0025523 22.002,15.002 C22.2786947,15.0014477 22.5025523,14.7766947 22.502,14.5 C22.5014477,14.2233053 22.2766947,13.9994477 22,14 Z M2,22 C1.72330534,22.0005523 1.49944772,22.2253053 1.5,22.502 C1.50055228,22.7786947 1.72530534,23.0025523 2.002,23.002 C2.18099006,23.0016427 2.3461931,22.9058225 2.43537873,22.750634 C2.52456436,22.5954454 2.52418316,22.4044653 2.43437873,22.249634 C2.3445743,22.0948027 2.17899006,21.9996427 2,22 L2,22 Z M4,22 C3.82100994,22.0003573 3.6558069,22.0961775 3.56662127,22.251366 C3.47743564,22.4065546 3.47781684,22.5975347 3.56762127,22.752366 C3.6574257,22.9071973 3.82300994,23.0023573 4.002,23.002 C4.27869466,23.0014477 4.50255228,22.7766947 4.502,22.5 C4.50144772,22.2233053 4.27669466,21.9994477 4,22 L4,22 Z M6,22 C5.82100994,22.0003573 5.6558069,22.0961775 5.56662127,22.251366 C5.47743564,22.4065546 5.47781684,22.5975347 5.56762127,22.752366 C5.6574257,22.9071973 5.82300994,23.0023573 6.002,23.002 C6.27869466,23.0014477 6.50255228,22.7766947 6.502,22.5 C6.50144772,22.2233053 6.27669466,21.9994477 6,22 L6,22 Z M8,22 C7.72330534,22.0005523 7.49944772,22.2253053 7.5,22.502 C7.50055228,22.7786947 7.72530534,23.0025523 8.002,23.002 C8.27869466,23.0014477 8.50255228,22.7766947 8.502,22.5 C8.50144772,22.2233053 8.27669466,21.9994477 8,22 L8,22 Z M10,22 C9.72330534,22.0005523 9.49944772,22.2253053 9.5,22.502 C9.50055228,22.7786947 9.72530534,23.0025523 10.002,23.002 C10.2786946,23.0014477 10.5025523,22.7766946 10.502,22.5 C10.5014477,22.2233054 10.2766946,21.9994477 10,22 Z M12,22 C11.8210099,22.0003573 11.6558069,22.0961775 11.5666213,22.251366 C11.4774356,22.4065546 11.4778168,22.5975347 11.5676213,22.752366 C11.6574257,22.9071973 11.8230099,23.0023573 12.002,23.002 C12.2786947,23.0014477 12.5025523,22.7766947 12.502,22.5 C12.5014477,22.2233053 12.2766947,21.9994477 12,22 L12,22 Z M14,22 C13.7233053,22.0005523 13.4994477,22.2253053 13.5,22.502 C13.5005523,22.7786947 13.7253053,23.0025523 14.002,23.002 C14.2786946,23.0014477 14.5025523,22.7766946 14.502,22.5 C14.5014477,22.2233054 14.2766946,21.9994477 14,22 L14,22 Z M16,22 C15.7233053,22.0005523 15.4994477,22.2253053 15.5,22.502 C15.5005523,22.7786947 15.7253053,23.0025523 16.002,23.002 C16.1809901,23.0016427 16.3461931,22.9058225 16.4353787,22.750634 C16.5245644,22.5954454 16.5241832,22.4044653 16.4343787,22.249634 C16.3445743,22.0948027 16.1789901,21.9996427 16,22 L16,22 Z M18,22 C17.7233053,22.0005523 17.4994477,22.2253053 17.5,22.502 C17.5005523,22.7786947 17.7253053,23.0025523 18.002,23.002 C18.2786946,23.0014477 18.5025523,22.7766946 18.502,22.5 C18.5014477,22.2233054 18.2766946,21.9994477 18,22 Z M20,22 C19.8210099,22.0003573 19.6558069,22.0961775 19.5666213,22.251366 C19.4774356,22.4065546 19.4778168,22.5975347 19.5676213,22.752366 C19.6574257,22.9071973 19.8230099,23.0023573 20.002,23.002 C20.2786947,23.0014477 20.5025523,22.7766947 20.502,22.5 C20.5014477,22.2233053 20.2766947,21.9994477 20,22 L20,22 Z M11.5,6.97874651 L11.5,18.141 L12.5,18.141 L12.5,6.95341135 L14.557,9.025 C14.7547183,9.20332395 15.0573825,9.19584526 15.2460522,9.00797384 C15.434722,8.82010242 15.443484,8.51747262 15.266,8.319 L12.377,5.411 C12.28,5.313 12.152,5.264 12.023,5.264 L12.023,5.264 C11.8920714,5.26380426 11.7663326,5.31517755 11.673,5.407 L8.738,8.29 C8.54612329,8.48445745 8.54584108,8.79692038 8.73736621,8.99172411 C8.92889134,9.18652784 9.24131405,9.19154876 9.439,9.003 L11.5,6.97874651 Z M22,22 C21.8210099,22.0003573 21.6558069,22.0961775 21.5666213,22.251366 C21.4774356,22.4065546 21.4778168,22.5975347 21.5676213,22.752366 C21.6574257,22.9071973 21.8230099,23.0023573 22.002,23.002 C22.2786947,23.0014477 22.5025523,22.7766947 22.502,22.5 C22.5014477,22.2233053 22.2766947,21.9994477 22,22 L22,22 Z"></path>
    </g>
</svg>
