<?xml version="1.0" encoding="utf-8"?>
<!-- Generator: Adobe Illustrator 16.0.3, SVG Export Plug-In . SVG Version: 6.00 Build 0)  -->
<!DOCTYPE svg PUBLIC "-//W3C//DTD SVG 1.1//EN" "http://www.w3.org/Graphics/SVG/1.1/DTD/svg11.dtd">
<svg version="1.1" xmlns="http://www.w3.org/2000/svg" xmlns:xlink="http://www.w3.org/1999/xlink" x="0px" y="0px" width="24px"
	 height="24px" viewBox="0 0 24 24" enable-background="new 0 0 24 24" xml:space="preserve">
<g id="Outline_Icons_1_">
	<g>
		<path d="M14.12,13.638c-0.271-0.062-0.539,0.099-0.605,0.365l-0.743,3.011C11.629,15.412,11,13.479,11,11.5
			c0-2.294,0.83-4.51,2.336-6.24c0.182-0.208,0.159-0.523-0.049-0.705c-0.209-0.183-0.524-0.158-0.705,0.049
			C10.917,6.516,10,8.965,10,11.5c0,2.065,0.619,4.089,1.751,5.799L9.146,16.67c-0.27-0.061-0.538,0.101-0.604,0.369
			c-0.064,0.269,0.101,0.538,0.369,0.604l3.984,0.961c0.284,0.064,0.539-0.11,0.603-0.366l0.986-3.994
			C14.552,13.975,14.388,13.704,14.12,13.638z"/>
		<circle cx="2.5" cy="21.5" r="0.5"/>
		<circle cx="2.5" cy="19.5" r="0.5"/>
		<circle cx="2.5" cy="17.5" r="0.5"/>
		<circle cx="2.5" cy="15.5" r="0.5"/>
		<circle cx="22.5" cy="21.5" r="0.5"/>
		<circle cx="22.5" cy="19.5" r="0.5"/>
		<circle cx="22.5" cy="17.5" r="0.5"/>
		<circle cx="22.5" cy="15.5" r="0.5"/>
		<circle cx="2.5" cy="13.5" r="0.5"/>
		<circle cx="22.5" cy="13.5" r="0.5"/>
		<circle cx="2.5" cy="23.5" r="0.5"/>
		<circle cx="4.5" cy="23.5" r="0.5"/>
		<circle cx="6.5" cy="23.5" r="0.5"/>
		<circle cx="8.5" cy="23.5" r="0.5"/>
		<circle cx="10.5" cy="23.5" r="0.5"/>
		<circle cx="12.5" cy="23.5" r="0.5"/>
		<circle cx="14.5" cy="23.5" r="0.5"/>
		<circle cx="16.5" cy="23.5" r="0.5"/>
		<circle cx="18.5" cy="23.5" r="0.5"/>
		<circle cx="20.5" cy="23.5" r="0.5"/>
		<circle cx="22.5" cy="23.5" r="0.5"/>
		<path d="M2.5,10C2.776,10,3,9.776,3,9.5V1h19v8.5c0,0.276,0.224,0.5,0.5,0.5S23,9.776,23,9.5v-9C23,0.224,22.776,0,22.5,0h-20
			C2.224,0,2,0.224,2,0.5v9C2,9.776,2.224,10,2.5,10z"/>
		<path d="M23.5,11h-10c-0.276,0-0.5,0.224-0.5,0.5s0.224,0.5,0.5,0.5h10c0.276,0,0.5-0.224,0.5-0.5S23.776,11,23.5,11z"/>
		<path d="M7.5,11h-7C0.224,11,0,11.224,0,11.5S0.224,12,0.5,12h7C7.776,12,8,11.776,8,11.5S7.776,11,7.5,11z"/>
	</g>
</g>
</svg>
