<?xml version="1.0" encoding="utf-8"?>
<!-- Generator: Adobe Illustrator 17.0.0, SVG Export Plug-In . SVG Version: 6.00 Build 0)  -->
<!DOCTYPE svg PUBLIC "-//W3C//DTD SVG 1.1//EN" "http://www.w3.org/Graphics/SVG/1.1/DTD/svg11.dtd">
<svg version="1.1" id="Layer_2" xmlns="http://www.w3.org/2000/svg" xmlns:xlink="http://www.w3.org/1999/xlink" x="0px" y="0px"
	 width="60px" height="60px" viewBox="0 0 60 60" enable-background="new 0 0 60 60" xml:space="preserve">
<g>
	<path fill="#010101" d="M34.09,50.133l7.91-7.91V9.129c0-0.553-0.448-1-1-1h-7v6h2v34H6v-34h2v-6H1c-0.552,0-1,0.447-1,1v40
		c0,3.317,1.682,5,5,5h27.818l1.018-3.563C33.882,50.401,33.97,50.253,34.09,50.133z"/>
	<path fill="#010101" d="M26.217,22.129H13.608c-0.552,0-1,0.447-1,1s0.448,1,1,1h12.608c0.552,0,1-0.447,1-1
		S26.769,22.129,26.217,22.129z"/>
	<path fill="#010101" d="M11,17.129h20c0.552,0,1-0.447,1-1v-11c0-0.553-0.448-1-1-1h-3.097h-0.782
		c-0.225-1.183-0.948-2.833-3.163-3.591c-0.015-0.005-0.031-0.01-0.047-0.015c-0.157-0.052-0.323-0.099-0.495-0.142
		C23.374,0.37,23.331,0.36,23.288,0.35c-0.152-0.035-0.312-0.065-0.477-0.092c-0.059-0.01-0.117-0.021-0.178-0.029
		c-0.162-0.023-0.334-0.04-0.508-0.056c-0.066-0.006-0.128-0.014-0.196-0.018c-0.241-0.016-0.492-0.026-0.755-0.026
		c-0.264,0-0.514,0.01-0.755,0.026c-0.068,0.004-0.13,0.013-0.196,0.018c-0.174,0.015-0.346,0.032-0.508,0.056
		c-0.061,0.009-0.119,0.019-0.178,0.029c-0.164,0.027-0.325,0.057-0.477,0.092c-0.043,0.01-0.086,0.02-0.129,0.031
		c-0.172,0.043-0.339,0.09-0.496,0.142c-0.015,0.005-0.031,0.01-0.046,0.015c-2.216,0.757-2.938,2.408-3.163,3.591h-0.782H11
		c-0.552,0-1,0.447-1,1v11C10,16.682,10.448,17.129,11,17.129z"/>
	<polygon fill="#010101" points="33.257,59.871 40.58,57.779 35.349,52.549 	"/>
	
		<rect x="41.088" y="39.248" transform="matrix(-0.7071 -0.7071 0.7071 -0.7071 43.7208 113.5948)" fill="#010101" width="8.595" height="16.99"/>
	
		<rect x="51.946" y="33.948" transform="matrix(0.7071 -0.7071 0.7071 0.7071 -10.9681 50.0103)" fill="#010101" width="5.875" height="8.595"/>
	<path fill="#010101" d="M26.217,28.129H13.608c-0.552,0-1,0.447-1,1s0.448,1,1,1h12.608c0.552,0,1-0.447,1-1
		S26.769,28.129,26.217,28.129z"/>
	<path fill="#010101" d="M27.217,35.129c0-0.553-0.448-1-1-1H13.608c-0.552,0-1,0.447-1,1s0.448,1,1,1h12.608
		C26.769,36.129,27.217,35.682,27.217,35.129z"/>
	<path fill="#010101" d="M13.608,40.129c-0.552,0-1,0.447-1,1s0.448,1,1,1h7.565c0.552,0,1-0.447,1-1s-0.448-1-1-1H13.608z"/>
</g>
</svg>
