<?xml version="1.0" encoding="utf-8"?>
<!-- Generator: Adobe Illustrator 17.0.0, SVG Export Plug-In . SVG Version: 6.00 Build 0)  -->
<!DOCTYPE svg PUBLIC "-//W3C//DTD SVG 1.1//EN" "http://www.w3.org/Graphics/SVG/1.1/DTD/svg11.dtd">
<svg version="1.1" id="Layer_2" xmlns="http://www.w3.org/2000/svg" xmlns:xlink="http://www.w3.org/1999/xlink" x="0px" y="0px"
	 width="60px" height="60px" viewBox="0 0 60 60" enable-background="new 0 0 60 60" xml:space="preserve">
<g>
	<path fill="#010101" d="M50,8h-7v6h2v38H15V14h2V8h-7C9.448,8,9,8.447,9,9v50c0,0.553,0.448,1,1,1h40c0.552,0,1-0.447,1-1V9
		C51,8.447,50.552,8,50,8z"/>
	<path fill="#010101" d="M20,18h20c0.552,0,1-0.447,1-1V5c0-0.553-0.448-1-1-1h-3.312h-0.775c-0.051-0.279-0.13-0.542-0.223-0.796
		c-0.037-0.102-0.086-0.197-0.13-0.295c-0.075-0.165-0.153-0.327-0.245-0.48c-0.055-0.09-0.117-0.175-0.178-0.26
		c-0.104-0.145-0.214-0.285-0.336-0.417c-0.071-0.077-0.147-0.151-0.224-0.224c-0.132-0.123-0.272-0.24-0.42-0.349
		c-0.088-0.065-0.177-0.128-0.27-0.188c-0.157-0.1-0.325-0.191-0.499-0.276c-0.103-0.051-0.205-0.104-0.313-0.149
		c-0.184-0.077-0.38-0.142-0.579-0.204C32.38,0.327,32.27,0.286,32.15,0.256C31.929,0.2,31.693,0.16,31.455,0.123
		c-0.112-0.018-0.217-0.043-0.332-0.056C30.764,0.024,30.391,0,30,0c-0.391,0-0.764,0.024-1.123,0.066
		c-0.115,0.013-0.22,0.039-0.332,0.056C28.307,0.16,28.071,0.2,27.85,0.256c-0.12,0.03-0.23,0.071-0.345,0.106
		c-0.199,0.062-0.396,0.126-0.579,0.204c-0.109,0.046-0.21,0.098-0.313,0.149c-0.173,0.086-0.341,0.176-0.499,0.276
		c-0.093,0.06-0.182,0.123-0.27,0.188c-0.149,0.109-0.289,0.226-0.42,0.349c-0.077,0.072-0.153,0.146-0.224,0.224
		c-0.122,0.132-0.232,0.272-0.336,0.417c-0.061,0.086-0.123,0.17-0.178,0.26c-0.093,0.152-0.171,0.315-0.245,0.48
		c-0.044,0.098-0.092,0.193-0.13,0.295C24.217,3.458,24.137,3.721,24.087,4h-0.775H20c-0.552,0-1,0.447-1,1v12
		C19,17.553,19.448,18,20,18z"/>
</g>
</svg>
