<?xml version="1.0" encoding="utf-8"?>
<!-- Generator: Adobe Illustrator 17.0.0, SVG Export Plug-In . SVG Version: 6.00 Build 0)  -->
<!DOCTYPE svg PUBLIC "-//W3C//DTD SVG 1.1//EN" "http://www.w3.org/Graphics/SVG/1.1/DTD/svg11.dtd">
<svg version="1.1" id="Layer_2" xmlns="http://www.w3.org/2000/svg" xmlns:xlink="http://www.w3.org/1999/xlink" x="0px" y="0px"
	 width="60px" height="60px" viewBox="0 0 60 60" enable-background="new 0 0 60 60" xml:space="preserve">
<g>
	<path fill="#010101" d="M51,8h-5v6.087V18v36H14V18v-3.913V8H9C8.448,8,8,8.447,8,9v50c0,0.553,0.448,1,1,1h42c0.552,0,1-0.447,1-1
		V9C52,8.447,51.552,8,51,8z"/>
	<path fill="#010101" d="M40.391,20h-15.13c-0.552,0-1,0.447-1,1c0,0.553,0.448,1,1,1h15.13c0.552,0,1-0.447,1-1
		C41.391,20.447,40.943,20,40.391,20z"/>
	<path fill="#010101" d="M40.391,28h-15.13c-0.552,0-1,0.447-1,1c0,0.553,0.448,1,1,1h15.13c0.552,0,1-0.447,1-1
		C41.391,28.447,40.943,28,40.391,28z"/>
	<path fill="#010101" d="M40.391,36h-15.13c-0.552,0-1,0.447-1,1c0,0.553,0.448,1,1,1h15.13c0.552,0,1-0.447,1-1
		C41.391,36.447,40.943,36,40.391,36z"/>
	<path fill="#010101" d="M40.391,44h-15.13c-0.552,0-1,0.447-1,1c0,0.553,0.448,1,1,1h15.13c0.552,0,1-0.447,1-1
		C41.391,44.447,40.943,44,40.391,44z"/>
	<path fill="#010101" d="M20.217,20h-1.261c-0.552,0-1,0.447-1,1c0,0.553,0.448,1,1,1h1.261c0.552,0,1-0.447,1-1
		C21.217,20.447,20.769,20,20.217,20z"/>
	<path fill="#010101" d="M20.217,28h-1.261c-0.552,0-1,0.447-1,1c0,0.553,0.448,1,1,1h1.261c0.552,0,1-0.447,1-1
		C21.217,28.447,20.769,28,20.217,28z"/>
	<path fill="#010101" d="M20.217,36h-1.261c-0.552,0-1,0.447-1,1c0,0.553,0.448,1,1,1h1.261c0.552,0,1-0.447,1-1
		C21.217,36.447,20.769,36,20.217,36z"/>
	<path fill="#010101" d="M20.217,44h-1.261c-0.552,0-1,0.447-1,1c0,0.553,0.448,1,1,1h1.261c0.552,0,1-0.447,1-1
		C21.217,44.447,20.769,44,20.217,44z"/>
	<path fill="#010101" d="M17,17h26c0.552,0,1-0.447,1-1V6c0-0.553-0.448-1-1-1h-5.945h-0.791c-0.051-0.302-0.137-0.592-0.232-0.877
		c-0.048-0.144-0.107-0.282-0.165-0.42c-0.072-0.171-0.147-0.34-0.234-0.502c-0.075-0.14-0.158-0.275-0.244-0.408
		C35.298,2.651,35.202,2.513,35.1,2.38c-0.106-0.138-0.218-0.272-0.336-0.4c-0.099-0.108-0.203-0.211-0.31-0.312
		c-0.139-0.131-0.282-0.258-0.432-0.375c-0.103-0.08-0.211-0.153-0.319-0.227c-0.166-0.113-0.334-0.224-0.511-0.32
		c-0.115-0.062-0.236-0.114-0.354-0.169c-0.179-0.083-0.358-0.167-0.545-0.232c-0.156-0.054-0.32-0.091-0.482-0.133
		c-0.16-0.042-0.316-0.091-0.48-0.12C30.997,0.035,30.655,0,30.305,0s-0.692,0.035-1.027,0.093
		c-0.165,0.029-0.324,0.079-0.485,0.121c-0.159,0.041-0.321,0.078-0.475,0.131c-0.19,0.067-0.371,0.151-0.553,0.236
		c-0.116,0.054-0.233,0.104-0.345,0.165c-0.18,0.098-0.351,0.211-0.52,0.326c-0.104,0.071-0.209,0.142-0.309,0.219
		c-0.154,0.119-0.299,0.249-0.441,0.383c-0.104,0.098-0.205,0.198-0.301,0.303c-0.121,0.13-0.234,0.267-0.343,0.408
		c-0.1,0.131-0.194,0.266-0.283,0.404c-0.087,0.135-0.171,0.272-0.248,0.414c-0.086,0.161-0.161,0.329-0.232,0.498
		c-0.059,0.139-0.118,0.278-0.167,0.422C24.481,4.408,24.396,4.698,24.345,5h-0.791H17c-0.552,0-1,0.447-1,1v10
		C16,16.553,16.448,17,17,17z"/>
</g>
</svg>
