<?xml version="1.0" encoding="utf-8"?>
<!-- Generator: Adobe Illustrator 17.0.0, SVG Export Plug-In . SVG Version: 6.00 Build 0)  -->
<!DOCTYPE svg PUBLIC "-//W3C//DTD SVG 1.1//EN" "http://www.w3.org/Graphics/SVG/1.1/DTD/svg11.dtd">
<svg version="1.1" id="Layer_2" xmlns="http://www.w3.org/2000/svg" xmlns:xlink="http://www.w3.org/1999/xlink" x="0px" y="0px"
	 width="60px" height="60px" viewBox="0 0 60 60" enable-background="new 0 0 60 60" xml:space="preserve">
<path fill="#010101" d="M59.659,22.247l-16-14C43.476,8.088,43.242,8,43,8H1C0.448,8,0,8.447,0,9v42c0,0.553,0.448,1,1,1h58
	c0.552,0,1-0.447,1-1V23C60,22.712,59.875,22.438,59.659,22.247z M13.608,16h17.652c0.552,0,1,0.447,1,1s-0.448,1-1,1H13.608
	c-0.552,0-1-0.447-1-1S13.056,16,13.608,16z M13.608,24h17.652c0.552,0,1,0.447,1,1s-0.448,1-1,1H13.608c-0.552,0-1-0.447-1-1
	S13.056,24,13.608,24z M46.391,42H13.608c-0.552,0-1-0.447-1-1s0.448-1,1-1h32.783c0.552,0,1,0.447,1,1S46.943,42,46.391,42z
	 M46.391,34H13.608c-0.552,0-1-0.447-1-1s0.448-1,1-1h32.783c0.552,0,1,0.447,1,1S46.943,34,46.391,34z M43,23V9l16,14H43z"/>
</svg>
