<?xml version="1.0" encoding="utf-8"?>
<!-- Generator: Adobe Illustrator 17.0.0, SVG Export Plug-In . SVG Version: 6.00 Build 0)  -->
<!DOCTYPE svg PUBLIC "-//W3C//DTD SVG 1.1//EN" "http://www.w3.org/Graphics/SVG/1.1/DTD/svg11.dtd">
<svg version="1.1" id="Layer_2" xmlns="http://www.w3.org/2000/svg" xmlns:xlink="http://www.w3.org/1999/xlink" x="0px" y="0px"
	 width="60px" height="60px" viewBox="0 0 60 60" enable-background="new 0 0 60 60" xml:space="preserve">
<path fill="#010101" d="M51.704,14.29l-14.13-14C37.386,0.105,37.133,0,36.87,0H34v33c0,0.421-0.264,0.797-0.66,0.94
	C33.229,33.98,33.114,34,33,34c-0.291,0-0.575-0.128-0.769-0.36L27,27.355l-5.231,6.284c-0.27,0.323-0.714,0.442-1.109,0.301
	C20.264,33.797,20,33.421,20,33V0H9C8.448,0,8,0.447,8,1v58c0,0.553,0.448,1,1,1h42c0.552,0,1-0.447,1-1V15
	C52,14.733,51.894,14.477,51.704,14.29z"/>
</svg>
