<?xml version="1.0" encoding="utf-8"?>
<!-- Generator: Adobe Illustrator 17.0.0, SVG Export Plug-In . SVG Version: 6.00 Build 0)  -->
<!DOCTYPE svg PUBLIC "-//W3C//DTD SVG 1.1//EN" "http://www.w3.org/Graphics/SVG/1.1/DTD/svg11.dtd">
<svg version="1.1" id="Layer_2" xmlns="http://www.w3.org/2000/svg" xmlns:xlink="http://www.w3.org/1999/xlink" x="0px" y="0px"
	 width="60px" height="60px" viewBox="0 0 60 60" enable-background="new 0 0 60 60" xml:space="preserve">
<g>
	<path fill="#010101" d="M54.707,8.293l-8-8C46.519,0.106,46.265,0,46,0H34c-0.552,0-1,0.447-1,1v26c0,0.553,0.448,1,1,1h20
		c0.552,0,1-0.447,1-1V9C55,8.734,54.894,8.481,54.707,8.293z M46,9V1l7.913,8H46z"/>
	<path fill="#010101" d="M18.707,0.293C18.519,0.106,18.265,0,18,0H6C5.448,0,5,0.447,5,1v26c0,0.553,0.448,1,1,1h20
		c0.552,0,1-0.447,1-1V9c0-0.266-0.106-0.519-0.293-0.707L18.707,0.293z M18,9V1l7.913,8H18z"/>
	<path fill="#010101" d="M46.707,32.293C46.519,32.106,46.265,32,46,32H34c-0.552,0-1,0.447-1,1v26c0,0.553,0.448,1,1,1h20
		c0.552,0,1-0.447,1-1V41c0-0.266-0.106-0.519-0.293-0.707L46.707,32.293z M46,41v-8l7.913,8H46z"/>
	<path fill="#010101" d="M18.707,32.293C18.519,32.106,18.265,32,18,32H6c-0.552,0-1,0.447-1,1v26c0,0.553,0.448,1,1,1h20
		c0.552,0,1-0.447,1-1V41c0-0.266-0.106-0.519-0.293-0.707L18.707,32.293z M18,41v-8l7.913,8H18z"/>
</g>
</svg>
