<?xml version="1.0" encoding="utf-8"?>
<!-- Generator: Adobe Illustrator 17.0.0, SVG Export Plug-In . SVG Version: 6.00 Build 0)  -->
<!DOCTYPE svg PUBLIC "-//W3C//DTD SVG 1.1//EN" "http://www.w3.org/Graphics/SVG/1.1/DTD/svg11.dtd">
<svg version="1.1" id="Layer_2" xmlns="http://www.w3.org/2000/svg" xmlns:xlink="http://www.w3.org/1999/xlink" x="0px" y="0px"
	 width="60px" height="60px" viewBox="0 0 60 60" enable-background="new 0 0 60 60" xml:space="preserve">
<g>
	<path fill="#010101" d="M29.363,43.545c-1-0.846-1.37-2.245-0.917-3.481C28.896,38.83,30.084,38,31.401,38h6.745L42,30.292V13
		c0-0.266-0.105-0.519-0.293-0.707l-12-12C29.52,0.106,29.265,0,29,0H1C0.448,0,0,0.447,0,1v52c0,0.553,0.448,1,1,1h32.52
		l1.814-5.378L29.363,43.545z M29,1l12,12H29V1z"/>
	<path fill="#010101" d="M59.936,40.648C59.789,40.258,59.416,40,59,40h-7.764h-0.618l-0.275-0.55c0,0-0.001-0.001-0.002-0.002
		l-4.448-8.897c-0.34-0.674-1.446-0.674-1.786,0l-4.448,8.897c0,0.001-0.001,0.001-0.001,0.001l-0.001,0.001
		c-0.17,0.337-0.515,0.55-0.893,0.55h-7.363c-0.48,0-0.913,0.302-1.077,0.751c0,0.001,0,0.001,0,0.002
		c-0.011,0.029-0.01,0.06-0.018,0.089c-0.023,0.085-0.047,0.17-0.051,0.256c0,0.008,0.003,0.015,0.003,0.023
		c-0.008,0.34,0.132,0.674,0.398,0.899l0.001,0.001l2.957,2.514l3.532,3.003c0.311,0.264,0.429,0.691,0.3,1.079l0,0.002
		l-3.394,10.063c-0.137,0.409,0.003,0.86,0.349,1.119c0.346,0.259,0.819,0.265,1.172,0.019L45,53.221l1.792,1.254l7.638,5.346
		C54.601,59.94,54.8,60,55,60c0.208,0,0.415-0.064,0.591-0.193c0.346-0.253,0.492-0.698,0.363-1.106l-3.371-10.725l7.022-6.176
		l0.055-0.049C59.973,41.476,60.083,41.036,59.936,40.648z"/>
</g>
</svg>
