<?xml version="1.0" encoding="utf-8"?>
<!-- Generator: Adobe Illustrator 17.0.0, SVG Export Plug-In . SVG Version: 6.00 Build 0)  -->
<!DOCTYPE svg PUBLIC "-//W3C//DTD SVG 1.1//EN" "http://www.w3.org/Graphics/SVG/1.1/DTD/svg11.dtd">
<svg version="1.1" id="Layer_2" xmlns="http://www.w3.org/2000/svg" xmlns:xlink="http://www.w3.org/1999/xlink" x="0px" y="0px"
	 width="60px" height="60px" viewBox="0 0 60 60" enable-background="new 0 0 60 60" xml:space="preserve">
<g>
	<circle fill="#010101" cx="7.305" cy="2.258" r="1.761"/>
	<circle fill="#010101" cx="12.348" cy="2.258" r="1.761"/>
	<circle fill="#010101" cx="17.391" cy="2.258" r="1.761"/>
	<circle fill="#010101" cx="22.435" cy="2.258" r="1.761"/>
	<circle fill="#010101" cx="27.478" cy="2.258" r="1.761"/>
	<circle fill="#010101" cx="32.521" cy="2.258" r="1.761"/>
	<circle fill="#010101" cx="7.305" cy="7.302" r="1.761"/>
	<circle fill="#010101" cx="7.305" cy="12.346" r="1.761"/>
	<circle fill="#010101" cx="7.305" cy="17.39" r="1.761"/>
	<circle fill="#010101" cx="7.305" cy="22.434" r="1.761"/>
	<circle fill="#010101" cx="7.305" cy="27.478" r="1.761"/>
	<circle fill="#010101" cx="7.305" cy="32.522" r="1.761"/>
	<circle fill="#010101" cx="7.305" cy="37.566" r="1.761"/>
	<circle fill="#010101" cx="7.305" cy="42.61" r="1.761"/>
	<circle fill="#010101" cx="7.305" cy="47.654" r="1.761"/>
	<circle fill="#010101" cx="7.305" cy="52.698" r="1.761"/>
	<circle fill="#010101" cx="7.305" cy="57.742" r="1.761"/>
	<circle fill="#010101" cx="12.348" cy="57.742" r="1.761"/>
	<circle fill="#010101" cx="17.391" cy="57.742" r="1.761"/>
	<circle fill="#010101" cx="22.435" cy="57.742" r="1.761"/>
	<circle fill="#010101" cx="27.478" cy="57.742" r="1.761"/>
	<circle fill="#010101" cx="32.521" cy="57.742" r="1.761"/>
	<circle fill="#010101" cx="37.565" cy="57.742" r="1.761"/>
	<circle fill="#010101" cx="42.609" cy="57.742" r="1.761"/>
	<circle fill="#010101" cx="47.652" cy="57.742" r="1.761"/>
	<circle fill="#010101" cx="52.696" cy="57.742" r="1.761"/>
	<circle fill="#010101" cx="52.696" cy="52.693" r="1.761"/>
	<circle fill="#010101" cx="52.696" cy="47.644" r="1.761"/>
	<circle fill="#010101" cx="52.696" cy="42.595" r="1.761"/>
	<circle fill="#010101" cx="52.696" cy="37.546" r="1.761"/>
	<circle fill="#010101" cx="52.696" cy="32.498" r="1.761"/>
	<circle fill="#010101" cx="52.696" cy="27.449" r="1.761"/>
	<circle fill="#010101" cx="52.696" cy="22.4" r="1.761"/>
	<circle fill="#010101" cx="52.696" cy="17.351" r="1.761"/>
	<circle fill="#010101" cx="47.652" cy="17.351" r="1.761"/>
	<circle fill="#010101" cx="42.609" cy="17.351" r="1.761"/>
	<circle fill="#010101" cx="37.565" cy="17.351" r="1.761"/>
	<circle fill="#010101" cx="37.565" cy="12.345" r="1.761"/>
	<circle fill="#010101" cx="37.565" cy="7.339" r="1.761"/>
	<circle fill="#010101" cx="37.565" cy="2.334" r="1.761"/>
	<circle fill="#010101" cx="43.869" cy="7.302" r="1.761"/>
	<circle fill="#010101" cx="47.652" cy="11.085" r="1.761"/>
</g>
</svg>
