<?xml version="1.0" encoding="utf-8"?>
<!-- Generator: Adobe Illustrator 17.0.0, SVG Export Plug-In . SVG Version: 6.00 Build 0)  -->
<!DOCTYPE svg PUBLIC "-//W3C//DTD SVG 1.1//EN" "http://www.w3.org/Graphics/SVG/1.1/DTD/svg11.dtd">
<svg version="1.1" id="Layer_2" xmlns="http://www.w3.org/2000/svg" xmlns:xlink="http://www.w3.org/1999/xlink" x="0px" y="0px"
	 width="60px" height="60px" viewBox="0 0 60 60" enable-background="new 0 0 60 60" xml:space="preserve">
<g>
	<path fill="#010101" d="M55.707,12.293l-12-12C43.519,0.106,43.265,0,43,0H19c-0.552,0-1,0.447-1,1v5h9.829
		c0.265,0,0.519,0.106,0.707,0.293l13.171,13.172C41.894,19.652,42,19.906,42,20.172V52h13c0.552,0,1-0.447,1-1V13
		C56,12.734,55.894,12.481,55.707,12.293z M43,13V1l12,12H43z"/>
	<path fill="#010101" d="M27,8H5C4.448,8,4,8.447,4,9v50c0,0.553,0.448,1,1,1h34c0.552,0,1-0.447,1-1V21v-0.414L27.415,8H27z M27,21
		V9l12,12H27z"/>
</g>
</svg>
