<?xml version="1.0" encoding="utf-8"?>
<!-- Generator: Adobe Illustrator 17.0.0, SVG Export Plug-In . SVG Version: 6.00 Build 0)  -->
<!DOCTYPE svg PUBLIC "-//W3C//DTD SVG 1.1//EN" "http://www.w3.org/Graphics/SVG/1.1/DTD/svg11.dtd">
<svg version="1.1" id="Layer_2" xmlns="http://www.w3.org/2000/svg" xmlns:xlink="http://www.w3.org/1999/xlink" x="0px" y="0px"
	 width="60px" height="60px" viewBox="0 0 60 60" enable-background="new 0 0 60 60" xml:space="preserve">
<g>
	<path fill="#010101" d="M26.879,46.121C26.312,45.555,26,44.801,26,44c0-0.801,0.312-1.555,0.879-2.121l15-15
		c0.037-0.037,0.082-0.063,0.121-0.098V13c0-0.266-0.106-0.519-0.293-0.707l-12-12C29.519,0.106,29.265,0,29,0H1
		C0.448,0,0,0.447,0,1v52c0,0.553,0.448,1,1,1h29v-7.17C28.95,47.198,27.69,46.933,26.879,46.121z M29,1l12,12H29V1z"/>
	<path fill="#010101" d="M59.926,43.624c-0.049-0.12-0.122-0.233-0.219-0.331l-15-15c-0.001-0.001-0.003-0.001-0.004-0.003
		c-0.383-0.378-1.023-0.378-1.406,0c-0.001,0.001-0.003,0.001-0.004,0.003L42,29.586L28.293,43.293C28.102,43.484,28,43.73,28,44
		c0,0.271,0.102,0.516,0.293,0.707c0.384,0.383,1.03,0.383,1.414,0L30.414,44H32v15c0,0.552,0.449,1,1,1h6c0.551,0,1-0.448,1-1v-7
		v-2h8v9c0,0.552,0.449,1,1,1h6c0.551,0,1-0.448,1-1V44h1.586l0.236,0.236l0.472,0.471c0.003,0.003,0.007,0.004,0.01,0.007
		c0.382,0.371,1.011,0.371,1.393,0c0.003-0.003,0.008-0.004,0.011-0.007c0.098-0.098,0.171-0.21,0.219-0.33
		C59.974,44.259,60,44.133,60,44C60,43.867,59.974,43.741,59.926,43.624z"/>
</g>
</svg>
