<?xml version="1.0" encoding="utf-8"?>
<!-- Generator: Adobe Illustrator 17.0.0, SVG Export Plug-In . SVG Version: 6.00 Build 0)  -->
<!DOCTYPE svg PUBLIC "-//W3C//DTD SVG 1.1//EN" "http://www.w3.org/Graphics/SVG/1.1/DTD/svg11.dtd">
<svg version="1.1" id="Layer_2" xmlns="http://www.w3.org/2000/svg" xmlns:xlink="http://www.w3.org/1999/xlink" x="0px" y="0px"
	 width="60px" height="60px" viewBox="0 0 60 60" enable-background="new 0 0 60 60" xml:space="preserve">
<g>
	<path fill="#010101" d="M52.659,14.247l-16-14C36.476,0.088,36.242,0,36,0H8C7.448,0,7,0.447,7,1v58c0,0.553,0.448,1,1,1h44
		c0.552,0,1-0.447,1-1V15C53,14.712,52.875,14.438,52.659,14.247z M45,54H15V20h30V54z M36,15V1l16,14H36z"/>
	<rect x="27" y="46" fill="#010101" width="16" height="6"/>
	<rect x="27" y="38" fill="#010101" width="16" height="6"/>
	<rect x="27" y="30" fill="#010101" width="16" height="6"/>
	<rect x="17" y="38" fill="#010101" width="8" height="6"/>
	<rect x="27" y="22" fill="#010101" width="16" height="6"/>
	<rect x="17" y="46" fill="#010101" width="8" height="6"/>
	<rect x="17" y="30" fill="#010101" width="8" height="6"/>
	<rect x="17" y="22" fill="#010101" width="8" height="6"/>
</g>
</svg>
