<?xml version="1.0" encoding="utf-8"?>
<!-- Generator: Adobe Illustrator 17.0.0, SVG Export Plug-In . SVG Version: 6.00 Build 0)  -->
<!DOCTYPE svg PUBLIC "-//W3C//DTD SVG 1.1//EN" "http://www.w3.org/Graphics/SVG/1.1/DTD/svg11.dtd">
<svg version="1.1" id="Layer_2" xmlns="http://www.w3.org/2000/svg" xmlns:xlink="http://www.w3.org/1999/xlink" x="0px" y="0px"
	 width="60px" height="60px" viewBox="0 0 60 60" enable-background="new 0 0 60 60" xml:space="preserve">
<path fill="#010101" d="M52.707,16.293l-16-16C36.519,0.106,36.265,0,36,0H8C7.448,0,7,0.447,7,1v58c0,0.553,0.448,1,1,1h44
	c0.552,0,1-0.447,1-1V17C53,16.734,52.894,16.481,52.707,16.293z M29.489,43.315l-6.304,6.305c-0.195,0.195-0.451,0.293-0.707,0.293
	c-0.256,0-0.512-0.098-0.707-0.293l-3.783-3.782c-0.391-0.391-0.391-1.023,0-1.414c0.391-0.391,1.023-0.391,1.414,0l3.076,3.075
	l5.597-5.598c0.391-0.391,1.023-0.391,1.414,0C29.88,42.292,29.88,42.925,29.489,43.315z M29.489,31.968l-6.304,6.305
	c-0.195,0.195-0.451,0.293-0.707,0.293c-0.256,0-0.512-0.098-0.707-0.293l-3.783-3.782c-0.391-0.391-0.391-1.023,0-1.414
	c0.391-0.391,1.023-0.391,1.414,0l3.076,3.075l5.597-5.598c0.391-0.391,1.023-0.391,1.414,0
	C29.88,30.944,29.88,31.577,29.489,31.968z M29.489,20.62l-6.304,6.304c-0.195,0.195-0.451,0.293-0.707,0.293
	c-0.256,0-0.512-0.098-0.707-0.293l-3.783-3.782c-0.391-0.391-0.391-1.023,0-1.414c0.391-0.391,1.023-0.391,1.414,0l3.076,3.075
	l5.597-5.597c0.391-0.391,1.023-0.391,1.414,0C29.88,19.597,29.88,20.23,29.489,20.62z M43.913,48H33.826c-0.552,0-1-0.447-1-1
	c0-0.553,0.448-1,1-1h10.087c0.552,0,1,0.447,1,1C44.913,47.553,44.465,48,43.913,48z M43.913,36H33.826c-0.552,0-1-0.447-1-1
	c0-0.553,0.448-1,1-1h10.087c0.552,0,1,0.447,1,1C44.913,35.553,44.465,36,43.913,36z M43.913,26H33.826c-0.552,0-1-0.447-1-1
	c0-0.553,0.448-1,1-1h10.087c0.552,0,1,0.447,1,1C44.913,25.553,44.465,26,43.913,26z M36,17V1l16,16H36z"/>
</svg>
