<?xml version="1.0" encoding="utf-8"?>
<!-- Generator: Adobe Illustrator 17.0.0, SVG Export Plug-In . SVG Version: 6.00 Build 0)  -->
<!DOCTYPE svg PUBLIC "-//W3C//DTD SVG 1.1//EN" "http://www.w3.org/Graphics/SVG/1.1/DTD/svg11.dtd">
<svg version="1.1" id="Layer_2" xmlns="http://www.w3.org/2000/svg" xmlns:xlink="http://www.w3.org/1999/xlink" x="0px" y="0px"
	 width="60px" height="60px" viewBox="0 0 60 60" enable-background="new 0 0 60 60" xml:space="preserve">
<g>
	<path fill="#010101" d="M42,28.282V13c0-0.266-0.106-0.519-0.293-0.707l-12-12C29.519,0.106,29.265,0,29,0H1C0.448,0,0,0.447,0,1
		v52c0,0.553,0.448,1,1,1h29.604C28.964,51.386,28,48.307,28,45C28,36.651,34.054,29.704,42,28.282z M29,1l12,12H29V1z"/>
	<path fill="#010101" d="M45,30c-8.271,0-15,6.729-15,15c0,8.272,6.729,15,15,15s15-6.728,15-15C60,36.729,53.271,30,45,30z M52,46
		h-6v6c0,0.553-0.448,1-1,1c-0.552,0-1-0.447-1-1v-6h-6c-0.552,0-1-0.447-1-1c0-0.553,0.448-1,1-1h6v-6c0-0.553,0.448-1,1-1
		c0.552,0,1,0.447,1,1v6h6c0.552,0,1,0.447,1,1C53,45.553,52.552,46,52,46z"/>
</g>
</svg>
