<?xml version="1.0" encoding="utf-8"?>
<!-- Generator: Adobe Illustrator 17.0.0, SVG Export Plug-In . SVG Version: 6.00 Build 0)  -->
<!DOCTYPE svg PUBLIC "-//W3C//DTD SVG 1.1//EN" "http://www.w3.org/Graphics/SVG/1.1/DTD/svg11.dtd">
<svg version="1.1" id="Layer_2" xmlns="http://www.w3.org/2000/svg" xmlns:xlink="http://www.w3.org/1999/xlink" x="0px" y="0px"
	 width="60px" height="60px" viewBox="0 0 60 60" enable-background="new 0 0 60 60" xml:space="preserve">
<path fill="#010101" d="M52.707,16.293l-16-16C36.519,0.106,36.265,0,36,0H8C7.448,0,7,0.447,7,1v58c0,0.553,0.448,1,1,1h44
	c0.552,0,1-0.447,1-1V17C53,16.734,52.894,16.481,52.707,16.293z M44.435,50H16c-0.552,0-1-0.447-1-1V19.913c0-0.553,0.448-1,1-1
	c0.552,0,1,0.447,1,1v18.836l9.112-8.23c0.34-0.308,0.845-0.343,1.225-0.09l6.86,4.574l9.073-9.686
	c0.377-0.403,1.01-0.424,1.414-0.046c0.403,0.377,0.424,1.01,0.046,1.413l-9.652,10.305c-0.335,0.356-0.878,0.419-1.285,0.148
	l-6.918-4.612L17,41.444V48h27.435c0.552,0,1,0.447,1,1C45.435,49.553,44.987,50,44.435,50z M36,17V1l16,16H36z"/>
</svg>
