<?xml version="1.0" encoding="utf-8"?>
<!-- Generator: Adobe Illustrator 17.0.0, SVG Export Plug-In . SVG Version: 6.00 Build 0)  -->
<!DOCTYPE svg PUBLIC "-//W3C//DTD SVG 1.1//EN" "http://www.w3.org/Graphics/SVG/1.1/DTD/svg11.dtd">
<svg version="1.1" id="Layer_2" xmlns="http://www.w3.org/2000/svg" xmlns:xlink="http://www.w3.org/1999/xlink" x="0px" y="0px"
	 width="60px" height="60px" viewBox="0 0 60 60" enable-background="new 0 0 60 60" xml:space="preserve">
<g>
	<path fill="#010101" d="M12,53V14H9c-0.552,0-1,0.447-1,1v42c0,0.553,0.448,1,1,1h34c0.552,0,1-0.447,1-1v-3H13
		C12.448,54,12,53.553,12,53z"/>
	<path fill="#010101" d="M18,47V8.087h-3c-0.552,0-1,0.447-1,1V51v1h1h32c0.552,0,1-0.447,1-1v-3H19C18.448,48,18,47.553,18,47z"/>
	<path fill="#010101" d="M51.707,12.293L50,10.586l-2-2l-0.499-0.499l-2-2l-3.794-3.794C41.519,2.106,41.265,2,41,2H21
		c-0.552,0-1,0.447-1,1v42v1h1h30c0.552,0,1-0.447,1-1V13C52,12.734,51.894,12.481,51.707,12.293z M41,13V3l10,10H41z"/>
</g>
</svg>
