<?xml version="1.0" encoding="utf-8"?>
<!-- Generator: Adobe Illustrator 17.0.0, SVG Export Plug-In . SVG Version: 6.00 Build 0)  -->
<!DOCTYPE svg PUBLIC "-//W3C//DTD SVG 1.1//EN" "http://www.w3.org/Graphics/SVG/1.1/DTD/svg11.dtd">
<svg version="1.1" id="Layer_2" xmlns="http://www.w3.org/2000/svg" xmlns:xlink="http://www.w3.org/1999/xlink" x="0px" y="0px"
	 width="60px" height="60px" viewBox="0 0 60 60" enable-background="new 0 0 60 60" xml:space="preserve">
<g>
	<path fill="#010101" d="M31.074,42.215c-1.276-2.21-1.426-4.855-0.429-7.171c-0.998-2.316-0.848-4.963,0.429-7.175
		c1.269-2.197,3.483-3.648,5.993-3.951c1.506-2.027,3.875-3.223,6.433-3.223c1.237,0,2.428,0.285,3.5,0.804V13
		c0-0.266-0.105-0.519-0.293-0.707l-12-12C34.52,0.106,34.265,0,34,0H6C5.448,0,5,0.447,5,1v52c0,0.553,0.448,1,1,1h27v-9.547
		C32.237,43.84,31.579,43.09,31.074,42.215z M34,1l12,12H34V1z"/>
	<path fill="#010101" d="M43.5,49.392c-2.557,0-4.925-1.195-6.431-3.221c-0.721-0.087-1.413-0.279-2.069-0.546V59
		c0,0.379,0.214,0.725,0.553,0.895c0.339,0.167,0.744,0.133,1.047-0.095l7.4-5.55l7.4,5.55c0.177,0.133,0.388,0.2,0.6,0.2
		c0.152,0,0.306-0.035,0.447-0.105C52.786,59.725,53,59.379,53,59V45.132c-0.932,0.541-1.968,0.905-3.068,1.038
		C48.426,48.196,46.056,49.392,43.5,49.392z"/>
	<path fill="#010101" d="M54.988,37.892c-0.007-0.144-0.018-0.288-0.036-0.432c-0.014-0.11-0.032-0.22-0.052-0.33
		c-0.027-0.146-0.059-0.291-0.096-0.434c-0.028-0.106-0.058-0.212-0.092-0.317c-0.046-0.143-0.099-0.284-0.156-0.424
		c-0.042-0.104-0.085-0.206-0.133-0.308c-0.097-0.205-0.198-0.408-0.319-0.604c0.12-0.194,0.22-0.395,0.316-0.599
		c0.05-0.105,0.094-0.213,0.138-0.32c0.055-0.137,0.107-0.275,0.152-0.414c0.034-0.107,0.065-0.215,0.093-0.323
		c0.037-0.142,0.068-0.286,0.095-0.43c0.02-0.111,0.039-0.222,0.053-0.333c0.018-0.142,0.028-0.285,0.036-0.428
		c0.006-0.115,0.012-0.23,0.011-0.345c-0.001-0.14-0.011-0.281-0.021-0.421c-0.009-0.117-0.016-0.234-0.032-0.35
		c-0.019-0.142-0.05-0.282-0.079-0.422c-0.024-0.112-0.043-0.225-0.073-0.337c-0.041-0.152-0.096-0.302-0.15-0.452
		c-0.035-0.096-0.062-0.194-0.101-0.289c-0.091-0.219-0.198-0.433-0.316-0.644c-0.012-0.022-0.021-0.045-0.033-0.067
		c-0.01-0.017-0.022-0.031-0.032-0.048c-0.126-0.213-0.263-0.418-0.412-0.611c-0.033-0.042-0.07-0.08-0.104-0.121
		c-0.136-0.166-0.276-0.328-0.427-0.478c-0.034-0.034-0.071-0.063-0.105-0.096c-0.159-0.149-0.323-0.293-0.496-0.424
		c-0.038-0.029-0.078-0.054-0.116-0.082c-0.173-0.124-0.351-0.241-0.535-0.347c-0.052-0.03-0.105-0.056-0.158-0.084
		c-0.172-0.092-0.347-0.175-0.527-0.25c-0.076-0.031-0.152-0.06-0.229-0.088c-0.157-0.058-0.317-0.109-0.478-0.154
		c-0.103-0.028-0.206-0.055-0.311-0.078c-0.14-0.031-0.282-0.055-0.425-0.076c-0.122-0.017-0.244-0.034-0.368-0.045
		c-0.221-0.019-0.442-0.034-0.665-0.027c-0.108-0.202-0.233-0.39-0.362-0.576c-0.065-0.094-0.134-0.184-0.203-0.273
		c-0.092-0.118-0.187-0.233-0.287-0.344c-0.075-0.083-0.152-0.163-0.231-0.24c-0.105-0.104-0.214-0.203-0.326-0.299
		c-0.085-0.073-0.172-0.143-0.26-0.211c-0.043-0.033-0.089-0.061-0.134-0.093V23.81c-1.004-0.716-2.22-1.114-3.5-1.114
		c-2.046,0-3.931,1.018-5.041,2.722c-0.173,0.266-0.462,0.434-0.778,0.452c-2.038,0.122-3.86,1.243-4.874,3
		c-1.021,1.77-1.083,3.909-0.166,5.724c0.144,0.283,0.144,0.619,0,0.902c-0.917,1.813-0.856,3.952,0.166,5.721
		c0.059,0.102,0.129,0.194,0.193,0.292v-0.005c0.084,0.128,0.162,0.259,0.255,0.379c0.021,0.027,0.045,0.051,0.067,0.077
		c0.149,0.185,0.304,0.363,0.472,0.528c0.014,0.013,0.028,0.025,0.042,0.038c0.182,0.175,0.373,0.34,0.575,0.491
		c0.004,0.003,0.008,0.006,0.013,0.009c0.184,0.136,0.378,0.258,0.576,0.373v0.009c0.805,0.467,1.717,0.755,2.682,0.812
		c0.317,0.019,0.605,0.187,0.779,0.452c1.11,1.703,2.994,2.721,5.039,2.721c2.044,0,3.929-1.018,5.041-2.722
		c0.173-0.266,0.462-0.434,0.778-0.452c1.393-0.083,2.678-0.642,3.681-1.544v-0.005c0.048-0.043,0.1-0.083,0.147-0.128
		c0.03-0.029,0.063-0.054,0.092-0.083c0.155-0.155,0.298-0.321,0.435-0.493c0.026-0.033,0.056-0.061,0.081-0.095
		c0.159-0.207,0.306-0.424,0.438-0.653c0.135-0.233,0.25-0.472,0.351-0.716c0.035-0.086,0.06-0.174,0.091-0.261
		c0.057-0.158,0.115-0.317,0.159-0.478c0.029-0.108,0.048-0.218,0.071-0.327c0.03-0.144,0.061-0.287,0.081-0.432
		c0.015-0.115,0.022-0.23,0.031-0.345c0.011-0.142,0.021-0.284,0.021-0.426C55,38.12,54.994,38.006,54.988,37.892z M44,40
		c-2.757,0-5-2.243-5-5c0-2.757,2.243-5,5-5c2.757,0,5,2.243,5,5C49,37.757,46.757,40,44,40z"/>
</g>
</svg>
