<?xml version="1.0" encoding="utf-8"?>
<!-- Generator: Adobe Illustrator 17.0.0, SVG Export Plug-In . SVG Version: 6.00 Build 0)  -->
<!DOCTYPE svg PUBLIC "-//W3C//DTD SVG 1.1//EN" "http://www.w3.org/Graphics/SVG/1.1/DTD/svg11.dtd">
<svg version="1.1" id="Layer_2" xmlns="http://www.w3.org/2000/svg" xmlns:xlink="http://www.w3.org/1999/xlink" x="0px" y="0px"
	 width="60px" height="60px" viewBox="0 0 60 60" enable-background="new 0 0 60 60" xml:space="preserve">
<path fill="#010101" d="M52.707,16.293l-16-16C36.52,0.106,36.265,0,36,0H8C7.448,0,7,0.447,7,1v58c0,0.553,0.448,1,1,1h44
	c0.552,0,1-0.447,1-1V17C53,16.734,52.895,16.48,52.707,16.293z M24.707,45.293c0.391,0.391,0.391,1.023,0,1.414
	C24.512,46.902,24.256,47,24,47s-0.512-0.098-0.707-0.293l-10-10c-0.391-0.391-0.391-1.023,0-1.414l10-10
	c0.391-0.391,1.023-0.391,1.414,0c0.391,0.391,0.391,1.023,0,1.414L15.414,36L24.707,45.293z M47.707,36.707l-10,10
	C37.512,46.902,37.256,47,37,47s-0.512-0.098-0.707-0.293c-0.391-0.391-0.391-1.023,0-1.414L45.586,36l-9.293-9.293
	c-0.391-0.391-0.391-1.023,0-1.414c0.391-0.391,1.023-0.391,1.414,0l10,10C48.098,35.684,48.098,36.316,47.707,36.707z M36,17V1
	l16,16H36z"/>
</svg>
