<?xml version="1.0" encoding="utf-8"?>
<!-- Generator: Adobe Illustrator 17.0.0, SVG Export Plug-In . SVG Version: 6.00 Build 0)  -->
<!DOCTYPE svg PUBLIC "-//W3C//DTD SVG 1.1//EN" "http://www.w3.org/Graphics/SVG/1.1/DTD/svg11.dtd">
<svg version="1.1" id="Layer_2" xmlns="http://www.w3.org/2000/svg" xmlns:xlink="http://www.w3.org/1999/xlink" x="0px" y="0px"
	 width="60px" height="60px" viewBox="0 0 60 60" enable-background="new 0 0 60 60" xml:space="preserve">
<g>
	<path fill="#010101" d="M31,42.001c0-6.487,4.78-11.863,11-12.831V13c0-0.266-0.106-0.519-0.293-0.707l-12-12
		C29.519,0.106,29.265,0,29,0H1C0.448,0,0,0.447,0,1v52c0,0.553,0.448,1,1,1h38.007C34.31,52.038,31,47.4,31,42.001z M29,1l12,12H29
		V1z"/>
	<path fill="#010101" d="M59.707,58.293l-6.825-6.825l-1.413-1.413C53.634,48.044,55,45.183,55,42.001
		C55,35.935,50.066,31,44.002,31C37.935,31,33,35.935,33,42.001c0,6.065,4.935,11,11.002,11c2.16,0,4.169-0.635,5.871-1.714
		l1.448,1.448l6.972,6.972C58.488,59.902,58.744,60,59,60c0.256,0,0.512-0.098,0.707-0.293
		C60.098,59.316,60.098,58.684,59.707,58.293z M44.002,51.001c-4.964,0-9.002-4.037-9.002-9C35,37.038,39.038,33,44.002,33
		C48.963,33,53,37.038,53,42.001C53,46.964,48.963,51.001,44.002,51.001z"/>
</g>
</svg>
