<?xml version="1.0" encoding="utf-8"?>
<!-- Generator: Adobe Illustrator 17.0.0, SVG Export Plug-In . SVG Version: 6.00 Build 0)  -->
<!DOCTYPE svg PUBLIC "-//W3C//DTD SVG 1.1//EN" "http://www.w3.org/Graphics/SVG/1.1/DTD/svg11.dtd">
<svg version="1.1" id="Layer_2" xmlns="http://www.w3.org/2000/svg" xmlns:xlink="http://www.w3.org/1999/xlink" x="0px" y="0px"
	 width="60px" height="60px" viewBox="0 0 60 60" enable-background="new 0 0 60 60" xml:space="preserve">
<path fill="#010101" d="M52.707,16.293l-16-16C36.519,0.106,36.265,0,36,0H8C7.448,0,7,0.447,7,1v58c0,0.553,0.448,1,1,1h44
	c0.552,0,1-0.447,1-1V17C53,16.734,52.894,16.481,52.707,16.293z M40.448,34.628L20.535,47.236
	c-0.163,0.104-0.349,0.155-0.535,0.155c-0.166,0-0.332-0.041-0.482-0.124C19.198,47.092,19,46.756,19,46.392V21.174
	c0-0.364,0.198-0.7,0.518-0.876c0.32-0.178,0.709-0.165,1.018,0.031l19.913,12.609c0.29,0.184,0.465,0.502,0.465,0.845
	C40.913,34.126,40.738,34.444,40.448,34.628z M36,17V1l16,16H36z"/>
</svg>
