<?xml version="1.0" encoding="utf-8"?>
<!-- Generator: Adobe Illustrator 17.0.0, SVG Export Plug-In . SVG Version: 6.00 Build 0)  -->
<!DOCTYPE svg PUBLIC "-//W3C//DTD SVG 1.1//EN" "http://www.w3.org/Graphics/SVG/1.1/DTD/svg11.dtd">
<svg version="1.1" id="Layer_2" xmlns="http://www.w3.org/2000/svg" xmlns:xlink="http://www.w3.org/1999/xlink" x="0px" y="0px"
	 width="60px" height="60px" viewBox="0 0 60 60" enable-background="new 0 0 60 60" xml:space="preserve">
<g>
	<path fill="#010101" d="M38,45V31c0-0.553,0.448-1,1-1h3V13c0-0.266-0.106-0.519-0.293-0.707l-12-12C29.519,0.106,29.265,0,29,0H1
		C0.448,0,0,0.447,0,1v52c0,0.553,0.448,1,1,1h29v-7c0-0.553,0.448-1,1-1h8C38.448,46,38,45.553,38,45z M29,13V1l12,12H29z"/>
	<path fill="#010101" d="M40,32v1v10v1h1h10c0.552,0,1-0.447,1-1V33c0-0.553-0.448-1-1-1H41H40z"/>
	<path fill="#010101" d="M59,48H49c-0.552,0-1,0.447-1,1v10c0,0.553,0.448,1,1,1h10c0.552,0,1-0.447,1-1V49
		C60,48.447,59.552,48,59,48z"/>
	<path fill="#010101" d="M43,48H33h-1v1v10c0,0.553,0.448,1,1,1h10c0.552,0,1-0.447,1-1V49C44,48.447,43.552,48,43,48z"/>
</g>
</svg>
