<?xml version="1.0" encoding="utf-8"?>
<!-- Generator: Adobe Illustrator 17.0.0, SVG Export Plug-In . SVG Version: 6.00 Build 0)  -->
<!DOCTYPE svg PUBLIC "-//W3C//DTD SVG 1.1//EN" "http://www.w3.org/Graphics/SVG/1.1/DTD/svg11.dtd">
<svg version="1.1" id="Layer_2" xmlns="http://www.w3.org/2000/svg" xmlns:xlink="http://www.w3.org/1999/xlink" x="0px" y="0px"
	 width="60px" height="60px" viewBox="0 0 60 60" enable-background="new 0 0 60 60" xml:space="preserve">
<g>
	<path fill="#010101" d="M30,25c-7.169,0-13,5.832-13,13s5.831,13,13,13c7.168,0,13-5.832,13-13S37.168,25,30,25z M35,40h-5
		c-0.552,0-1-0.447-1-1v-7c0-0.553,0.448-1,1-1c0.552,0,1,0.447,1,1v6h4c0.552,0,1,0.447,1,1S35.552,40,35,40z"/>
	<path fill="#010101" d="M52.707,16.293l-16-16C36.519,0.106,36.265,0,36,0H8C7.448,0,7,0.447,7,1v58c0,0.553,0.448,1,1,1h44
		c0.552,0,1-0.447,1-1V17C53,16.734,52.894,16.48,52.707,16.293z M30,53c-8.271,0-15-6.729-15-15s6.729-15,15-15s15,6.729,15,15
		S38.271,53,30,53z M36,17V1l16,16H36z"/>
</g>
</svg>
