<?xml version="1.0" encoding="utf-8"?>
<!-- Generator: Adobe Illustrator 17.0.0, SVG Export Plug-In . SVG Version: 6.00 Build 0)  -->
<!DOCTYPE svg PUBLIC "-//W3C//DTD SVG 1.1//EN" "http://www.w3.org/Graphics/SVG/1.1/DTD/svg11.dtd">
<svg version="1.1" id="Layer_2" xmlns="http://www.w3.org/2000/svg" xmlns:xlink="http://www.w3.org/1999/xlink" x="0px" y="0px"
	 width="60px" height="60px" viewBox="0 0 60 60" enable-background="new 0 0 60 60" xml:space="preserve">
<g>
	<path fill="#010101" d="M34,11c0-0.266-0.105-0.519-0.293-0.707l-10-10C23.52,0.106,23.265,0,23,0H1C0.448,0,0,0.447,0,1v42
		c0,0.553,0.448,1,1,1h23V15c0-0.553,0.448-1,1-1h9V11z M23,11V1l10,10H23z"/>
	<path fill="#010101" d="M39.078,7.43c0.051,0.122,0.125,0.231,0.217,0.322c0,0,0,0.001,0.001,0.001l5,4.957
		C44.491,12.903,44.746,13,45,13c0.257,0,0.515-0.099,0.71-0.296c0.389-0.393,0.386-1.025-0.006-1.414l-3.275-3.247h10.179
		C54.257,8.043,56,9.563,56,11v3c0,0.553,0.448,1,1,1s1-0.447,1-1v-3c0-2.792-2.898-4.957-5.392-4.957H42.415l3.336-3.336
		c0.391-0.391,0.391-1.023,0-1.414c-0.391-0.391-1.023-0.391-1.414,0l-5.042,5.042c-0.092,0.092-0.166,0.202-0.216,0.323
		c-0.038,0.093-0.05,0.194-0.059,0.295C39.015,6.985,39,7.011,39,7.043l0,0.001l0,0.001C39,7.179,39.027,7.309,39.078,7.43z"/>
	<path fill="#010101" d="M20.706,52.335l-4.999-4.999c-0.391-0.391-1.023-0.391-1.414,0c-0.391,0.391-0.391,1.024,0,1.414
		l3.293,3.293H7.391C6.028,52.043,4,51.499,4,50v-2c0-0.553-0.448-1-1-1s-1,0.447-1,1v2c0,2.777,2.794,4.043,5.391,4.043h10.195
		l-3.293,3.293c-0.391,0.391-0.391,1.024,0,1.414c0.195,0.195,0.451,0.293,0.707,0.293s0.512-0.098,0.707-0.293l4.999-4.999
		c0.093-0.093,0.166-0.203,0.217-0.326c0.101-0.244,0.101-0.52,0-0.764C20.872,52.538,20.799,52.428,20.706,52.335z"/>
	<path fill="#010101" d="M59.707,26.293l-10-10C49.52,16.106,49.265,16,49,16H27h-1v1v42c0,0.553,0.448,1,1,1h32
		c0.552,0,1-0.447,1-1V27C60,26.734,59.895,26.481,59.707,26.293z M49,27V17l10,10H49z"/>
</g>
</svg>
