<?xml version="1.0" encoding="utf-8"?>
<!-- Generator: Adobe Illustrator 17.0.0, SVG Export Plug-In . SVG Version: 6.00 Build 0)  -->
<!DOCTYPE svg PUBLIC "-//W3C//DTD SVG 1.1//EN" "http://www.w3.org/Graphics/SVG/1.1/DTD/svg11.dtd">
<svg version="1.1" id="Layer_2" xmlns="http://www.w3.org/2000/svg" xmlns:xlink="http://www.w3.org/1999/xlink" x="0px" y="0px"
	 width="60px" height="60px" viewBox="0 0 60 60" enable-background="new 0 0 60 60" xml:space="preserve">
<path fill="#010101" d="M52.707,16.293l-16-16C36.519,0.106,36.265,0,36,0H8C7.448,0,7,0.447,7,1v58c0,0.553,0.448,1,1,1h44
	c0.552,0,1-0.447,1-1V17C53,16.734,52.894,16.48,52.707,16.293z M44.301,31.35c-0.049,0.549-0.534,0.968-1.085,0.907
	c-0.55-0.049-0.956-0.534-0.907-1.085c0.154-1.73-0.236-3.064-1.192-4.078c-1.474-1.562-3.917-1.962-5.214-2.062l-1.838,18.381
	c-0.006,0.063-0.035,0.116-0.052,0.175c-0.446,2.865-3.249,5.549-6.956,6.329c-0.829,0.175-1.666,0.264-2.486,0.264
	c-3.714,0-6.584-1.772-7.141-4.412c-0.696-3.317,2.439-6.691,7.138-7.679c0.985-0.208,1.954-0.314,2.879-0.314
	c2.11,0,3.846,0.566,5.017,1.551L34.005,23.9c0.05-0.499,0.462-0.885,0.964-0.9c0.2,0.006,4.922-0.117,7.602,2.722
	C43.924,27.155,44.505,29.049,44.301,31.35z M36,17V1l16,16H36z"/>
</svg>
