<?xml version="1.0" encoding="utf-8"?>
<!-- Generator: Adobe Illustrator 17.0.0, SVG Export Plug-In . SVG Version: 6.00 Build 0)  -->
<!DOCTYPE svg PUBLIC "-//W3C//DTD SVG 1.1//EN" "http://www.w3.org/Graphics/SVG/1.1/DTD/svg11.dtd">
<svg version="1.1" id="Layer_2" xmlns="http://www.w3.org/2000/svg" xmlns:xlink="http://www.w3.org/1999/xlink" x="0px" y="0px"
	 width="60px" height="60px" viewBox="0 0 60 60" enable-background="new 0 0 60 60" xml:space="preserve">
<g>
	<path fill="#010101" d="M14,53V8H9C8.448,8,8,8.447,8,9v50c0,0.553,0.448,1,1,1h36c0.552,0,1-0.447,1-1v-5H15
		C14.448,54,14,53.553,14,53z"/>
	<path fill="#010101" d="M51.707,14.293l-5.999-5.999c0,0,0,0,0-0.001l0,0l-0.001-0.001l-7.999-7.999C37.519,0.106,37.265,0,37,0H17
		c-0.552,0-1,0.447-1,1v50v1h1h34c0.552,0,1-0.447,1-1V15C52,14.734,51.894,14.481,51.707,14.293z M37,15V1l14,14H37z"/>
</g>
</svg>
