<?xml version="1.0" encoding="utf-8"?>
<!-- Generator: Adobe Illustrator 17.0.0, SVG Export Plug-In . SVG Version: 6.00 Build 0)  -->
<!DOCTYPE svg PUBLIC "-//W3C//DTD SVG 1.1//EN" "http://www.w3.org/Graphics/SVG/1.1/DTD/svg11.dtd">
<svg version="1.1" id="Layer_2" xmlns="http://www.w3.org/2000/svg" xmlns:xlink="http://www.w3.org/1999/xlink" x="0px" y="0px"
	 width="60px" height="60px" viewBox="0 0 60 60" enable-background="new 0 0 60 60" xml:space="preserve">
<g>
	<path fill="#010101" d="M7,46c-0.552,0-1-0.447-1-1V14H1c-0.552,0-1,0.447-1,1v36c0,0.553,0.448,1,1,1h50c0.552,0,1-0.447,1-1
		l-0.002-5H7z"/>
	<path fill="#010101" d="M59.661,22.25L43.656,8.246C43.474,8.088,43.241,8,43,8H9C8.448,8,8,8.447,8,9v34v1h1h50
		c0.552,0,1-0.447,1-1V23C60,22.713,59.876,22.441,59.661,22.25z M43,23V9l16,14H43z"/>
</g>
</svg>
