<?xml version="1.0" encoding="utf-8"?>
<!-- Generator: Adobe Illustrator 17.0.0, SVG Export Plug-In . SVG Version: 6.00 Build 0)  -->
<!DOCTYPE svg PUBLIC "-//W3C//DTD SVG 1.1//EN" "http://www.w3.org/Graphics/SVG/1.1/DTD/svg11.dtd">
<svg version="1.1" id="Layer_2" xmlns="http://www.w3.org/2000/svg" xmlns:xlink="http://www.w3.org/1999/xlink" x="0px" y="0px"
	 width="60px" height="60px" viewBox="0 0 60 60" enable-background="new 0 0 60 60" xml:space="preserve">
<g>
	<path fill="#010101" d="M44.459,33.728v-18.33c0-0.266-0.105-0.519-0.293-0.707l-12-12c-0.188-0.187-0.442-0.293-0.707-0.293h-28
		c-0.552,0-1,0.447-1,1v52c0,0.553,0.448,1,1,1h33.283c-2.046-2.434-3.283-5.571-3.283-9C33.459,40.697,38.17,35.103,44.459,33.728z
		 M31.459,15.398v-12l12,12H31.459z"/>
	<path fill="#010101" d="M46.937,39.194c2.703,0,4.872,1.724,6.229,3.603h-2.679c-0.552,0-1,0.447-1,1s0.448,1,1,1h5.455v-6.358
		c0-0.553-0.448-1-1-1c-0.552,0-1,0.447-1,1v2.147c-1.911-2.114-4.439-3.391-7.004-3.391c-5.361,0-9.561,4.536-9.561,10.326h2
		C39.376,42.851,42.697,39.194,46.937,39.194z"/>
	<path fill="#010101" d="M55.541,47.52c0,4.532-3.428,8.082-7.804,8.082c-2.704,0-5.288-1.105-6.871-2.802h2.556
		c0.552,0,1-0.447,1-1c0-0.553-0.448-1-1-1h-5.489v4.793c0,0.553,0.448,1,1,1c0.552,0,1-0.447,1-1v-0.904
		c1.975,1.788,4.847,2.913,7.804,2.913c5.498,0,9.804-4.429,9.804-10.082H55.541z"/>
</g>
</svg>
