<?xml version="1.0" encoding="utf-8"?>
<!-- Generator: Adobe Illustrator 17.0.0, SVG Export Plug-In . SVG Version: 6.00 Build 0)  -->
<!DOCTYPE svg PUBLIC "-//W3C//DTD SVG 1.1//EN" "http://www.w3.org/Graphics/SVG/1.1/DTD/svg11.dtd">
<svg version="1.1" id="Layer_2" xmlns="http://www.w3.org/2000/svg" xmlns:xlink="http://www.w3.org/1999/xlink" x="0px" y="0px"
	 width="60px" height="60px" viewBox="0 0 60 60" enable-background="new 0 0 60 60" xml:space="preserve">
<g>
	<path fill="#010101" d="M59.685,12.293l-12-12C47.497,0.106,47.243,0,46.978,0h-20c-0.552,0-1,0.447-1,1v35.305
		c0,0.297,0.132,0.578,0.36,0.768l8.043,6.695c0.18,0.149,0.406,0.231,0.64,0.231h23.957c0.552,0,1-0.447,1-1V13
		C59.978,12.734,59.872,12.481,59.685,12.293z M46.978,13V1l12,12H46.978z"/>
	<path fill="#010101" d="M11.109,40H1.022c-0.552,0-1,0.447-1,1v18c0,0.553,0.448,1,1,1h10.087c0.552,0,1-0.447,1-1V41
		C12.109,40.447,11.661,40,11.109,40z"/>
	<path fill="#010101" d="M38.065,48h-4.536c-0.082-0.086-0.17-0.181-0.264-0.28c-1.484-1.587-4.571-4.887-10.185-5.709
		C23.032,42.004,22.983,42,22.935,42h-8.826c-0.552,0-1,0.447-1,1v14c0,0.553,0.448,1,1,1h42.869c0.552,0,1-0.447,1-1
		c0-1.309-0.599-2.566-1.781-3.738C52.956,50.05,45.702,47.936,38.065,48z"/>
</g>
</svg>
