<?xml version="1.0" encoding="utf-8"?>
<!-- Generator: Adobe Illustrator 17.0.0, SVG Export Plug-In . SVG Version: 6.00 Build 0)  -->
<!DOCTYPE svg PUBLIC "-//W3C//DTD SVG 1.1//EN" "http://www.w3.org/Graphics/SVG/1.1/DTD/svg11.dtd">
<svg version="1.1" id="Layer_2" xmlns="http://www.w3.org/2000/svg" xmlns:xlink="http://www.w3.org/1999/xlink" x="0px" y="0px"
	 width="60px" height="60px" viewBox="0 0 60 60" enable-background="new 0 0 60 60" xml:space="preserve">
<g>
	<path fill="#010101" d="M59.707,10.293l-10-10C49.519,0.106,49.265,0,49,0H31c-0.552,0-1,0.447-1,1v38c0,0.553,0.448,1,1,1h28
		c0.552,0,1-0.447,1-1V11C60,10.734,59.894,10.481,59.707,10.293z M49,11V1l10,10H49z"/>
	<path fill="#010101" d="M11.087,40H1c-0.552,0-1,0.447-1,1v18c0,0.553,0.448,1,1,1h10.087c0.552,0,1-0.447,1-1V41
		C12.087,40.447,11.639,40,11.087,40z M6.043,55.717c-0.971,0-1.761-0.789-1.761-1.76c0-0.972,0.79-1.762,1.761-1.762
		c0.971,0,1.762,0.79,1.762,1.762C7.805,54.928,7.014,55.717,6.043,55.717z"/>
	<path fill="#010101" d="M38.3,47.998c-0.114,0-0.229,0.001-0.344,0.002H33.42c-0.082-0.086-0.17-0.181-0.264-0.28
		c-1.484-1.587-4.571-4.887-10.186-5.709C22.923,42.004,22.874,42,22.826,42H14c-0.552,0-1,0.447-1,1v14c0,0.553,0.448,1,1,1h42.869
		c0.552,0,1-0.447,1-1c0-1.309-0.599-2.566-1.781-3.738C52.896,50.098,45.776,47.998,38.3,47.998z"/>
</g>
</svg>
