<?xml version="1.0" encoding="utf-8"?>
<!-- Generator: Adobe Illustrator 17.0.0, SVG Export Plug-In . SVG Version: 6.00 Build 0)  -->
<!DOCTYPE svg PUBLIC "-//W3C//DTD SVG 1.1//EN" "http://www.w3.org/Graphics/SVG/1.1/DTD/svg11.dtd">
<svg version="1.1" id="Layer_2" xmlns="http://www.w3.org/2000/svg" xmlns:xlink="http://www.w3.org/1999/xlink" x="0px" y="0px"
	 width="60px" height="60px" viewBox="0 0 60 60" enable-background="new 0 0 60 60" xml:space="preserve">
<g>
	<path fill="#010101" d="M45,28c1.025,0,2.024,0.107,3,0.282V1c0-0.553-0.448-1-1-1h-7v4h2v6h-6V4h2V0h-8v4h2v6h-6V4h2V0h-8v4h2v6
		h-6V4h2V0h-8v4h2v6H6V4h2V0H1C0.448,0,0,0.447,0,1v50c0,0.553,0.448,1,1,1h28.526C28.555,49.862,28,47.497,28,45
		C28,35.626,35.626,28,45,28z"/>
	<path fill="#010101" d="M45,30c-8.271,0-15,6.729-15,15c0,8.272,6.729,15,15,15s15-6.728,15-15C60,36.729,53.271,30,45,30z
		 M52.8,39.6l-9.758,13.012l-5.81-6.971c-0.354-0.425-0.296-1.056,0.128-1.409c0.424-0.354,1.054-0.297,1.408,0.128l4.19,5.029
		L51.2,38.4c0.332-0.442,0.958-0.53,1.4-0.2C53.042,38.531,53.131,39.158,52.8,39.6z"/>
</g>
</svg>
