<?xml version="1.0" encoding="utf-8"?>
<!-- Generator: Adobe Illustrator 17.0.0, SVG Export Plug-In . SVG Version: 6.00 Build 0)  -->
<!DOCTYPE svg PUBLIC "-//W3C//DTD SVG 1.1//EN" "http://www.w3.org/Graphics/SVG/1.1/DTD/svg11.dtd">
<svg version="1.1" id="Layer_2" xmlns="http://www.w3.org/2000/svg" xmlns:xlink="http://www.w3.org/1999/xlink" x="0px" y="0px"
	 width="60px" height="60px" viewBox="0 0 60 60" enable-background="new 0 0 60 60" xml:space="preserve">
<g>
	<path fill="#010101" d="M45,28c1.025,0,2.024,0.107,3,0.282V1c0-0.553-0.448-1-1-1h-7v4h2v6h-6V4h2V0h-8v4h2v6h-6V4h2V0h-8v4h2v6
		h-6V4h2V0h-8v4h2v6H6V4h2V0H1C0.448,0,0,0.447,0,1v50c0,0.553,0.448,1,1,1h28.526C28.555,49.862,28,47.497,28,45
		C28,35.626,35.626,28,45,28z"/>
	<path fill="#010101" d="M45,30c-8.271,0-15,6.729-15,15c0,8.272,6.729,15,15,15s15-6.728,15-15C60,36.729,53.271,30,45,30z
		 M51.707,50.293c0.391,0.391,0.391,1.023,0,1.414C51.512,51.902,51.256,52,51,52s-0.512-0.098-0.707-0.293L45,46.414l-5.293,5.293
		C39.512,51.902,39.256,52,39,52s-0.512-0.098-0.707-0.293c-0.391-0.391-0.391-1.023,0-1.414L43.586,45l-5.293-5.293
		c-0.391-0.391-0.391-1.023,0-1.414c0.391-0.391,1.023-0.391,1.414,0L45,43.586l5.293-5.293c0.391-0.391,1.023-0.391,1.414,0
		c0.391,0.391,0.391,1.023,0,1.414L46.414,45L51.707,50.293z"/>
</g>
</svg>
