<?xml version="1.0" encoding="utf-8"?>
<!-- Generator: Adobe Illustrator 17.0.0, SVG Export Plug-In . SVG Version: 6.00 Build 0)  -->
<!DOCTYPE svg PUBLIC "-//W3C//DTD SVG 1.1//EN" "http://www.w3.org/Graphics/SVG/1.1/DTD/svg11.dtd">
<svg version="1.1" id="Layer_2" xmlns="http://www.w3.org/2000/svg" xmlns:xlink="http://www.w3.org/1999/xlink" x="0px" y="0px"
	 width="60px" height="60px" viewBox="0 0 60 60" enable-background="new 0 0 60 60" xml:space="preserve">
<path fill="#010101" d="M54,0h-7v4h2v6h-6V4h2V0h-8v4h2v6h-6V4h2V0H25v4h2v6h-6V4h2V0h-8v4h2v6h-6V4h2V0H6C5.448,0,5,0.447,5,1v58
	c0,0.553,0.448,1,1,1h48c0.552,0,1-0.447,1-1V1C55,0.447,54.552,0,54,0z M43.826,52H16.087c-0.552,0-1-0.447-1-1
	c0-0.553,0.448-1,1-1h27.739c0.552,0,1,0.447,1,1C44.826,51.553,44.378,52,43.826,52z M43.826,44H16.087c-0.552,0-1-0.447-1-1
	c0-0.553,0.448-1,1-1h27.739c0.552,0,1,0.447,1,1C44.826,43.553,44.378,44,43.826,44z M43.826,36H16.087c-0.552,0-1-0.447-1-1
	c0-0.553,0.448-1,1-1h27.739c0.552,0,1,0.447,1,1C44.826,35.553,44.378,36,43.826,36z M43.826,28H16.087c-0.552,0-1-0.447-1-1
	c0-0.553,0.448-1,1-1h27.739c0.552,0,1,0.447,1,1C44.826,27.553,44.378,28,43.826,28z M43.826,20H16.087c-0.552,0-1-0.447-1-1
	c0-0.553,0.448-1,1-1h27.739c0.552,0,1,0.447,1,1C44.826,19.553,44.378,20,43.826,20z"/>
</svg>
