<?xml version="1.0" encoding="utf-8"?>
<!-- Generator: Adobe Illustrator 17.0.0, SVG Export Plug-In . SVG Version: 6.00 Build 0)  -->
<!DOCTYPE svg PUBLIC "-//W3C//DTD SVG 1.1//EN" "http://www.w3.org/Graphics/SVG/1.1/DTD/svg11.dtd">
<svg version="1.1" id="Layer_2" xmlns="http://www.w3.org/2000/svg" xmlns:xlink="http://www.w3.org/1999/xlink" x="0px" y="0px"
	 width="60px" height="60px" viewBox="0 0 60 60" enable-background="new 0 0 60 60" xml:space="preserve">
<g>
	<path fill="#010101" d="M35.351,48.592l-5.777-5.08c-0.98-0.876-1.324-2.274-0.863-3.485C29.162,38.817,30.345,38,31.652,38h6.494
		l4.039-8.078c0.537-1.073,1.616-1.739,2.815-1.739c1.199,0,2.278,0.666,2.815,1.739L48,30.292V1c0-0.553-0.448-1-1-1h-7v4h2v6h-6V4
		h2V0h-8v4h2v6h-6V4h2V0h-8v4h2v6h-6V4h2V0h-8v4h2v6H6V4h2V0H1C0.448,0,0,0.447,0,1v50c0,0.553,0.448,1,1,1h33.215L35.351,48.592z"
		/>
	<path fill="#010101" d="M59.935,40.648C59.789,40.258,59.416,40,59,40h-7.764h-0.618l-0.275-0.55c0,0-0.001-0.002-0.002-0.003
		l-4.315-8.631c-0.195-0.391-0.589-0.634-1.026-0.634c-0.438,0-0.831,0.243-1.027,0.634l-4.314,8.631
		C39.489,39.786,39.143,40,38.764,40h-7.112c-0.469,0-0.909,0.301-1.07,0.732c-0.171,0.448-0.042,0.961,0.318,1.283l6.269,5.512
		c0.302,0.266,0.416,0.686,0.289,1.067L36.323,52l-0.442,1.325l-1.787,5.361c-0.136,0.41,0.006,0.859,0.352,1.116
		c0.346,0.257,0.817,0.264,1.171,0.017l6.346-4.462l3.044-2.141l2.221,1.522l7.426,5.088C54.824,59.942,55.02,60,55.217,60
		c0.212,0,0.424-0.067,0.602-0.201c0.343-0.259,0.482-0.708,0.347-1.115l-0.756-2.268l-2.817-8.451l0.498-0.438l0,0l5.98-5.258
		l0.589-0.518C59.973,41.477,60.082,41.036,59.935,40.648z"/>
</g>
</svg>
