<?xml version="1.0" encoding="utf-8"?>
<!-- Generator: Adobe Illustrator 17.0.0, SVG Export Plug-In . SVG Version: 6.00 Build 0)  -->
<!DOCTYPE svg PUBLIC "-//W3C//DTD SVG 1.1//EN" "http://www.w3.org/Graphics/SVG/1.1/DTD/svg11.dtd">
<svg version="1.1" id="Layer_2" xmlns="http://www.w3.org/2000/svg" xmlns:xlink="http://www.w3.org/1999/xlink" x="0px" y="0px"
	 width="60px" height="60px" viewBox="0 0 60 60" enable-background="new 0 0 60 60" xml:space="preserve">
<g>
	<polygon fill="#010101" points="51.924,29.486 48.357,33.054 48.357,33.053 46.705,34.705 54.424,42.424 59.643,37.205 	"/>
	<path fill="#010101" d="M30.244,48.572c0.015-0.215,0.083-0.428,0.239-0.601c0.108-0.121,0.241-0.198,0.383-0.253l17.492-17.493
		V0.9c0-0.553-0.448-1-1-1h-7v4h2v6h-6v-6h2v-4h-8v4h2v6h-6v-6h2v-4h-8v4h2v6h-6v-6h2v-4h-8v4h2v6h-6v-6h2v-4h-7
		c-0.552,0-1,0.447-1,1v50c0,0.553,0.448,1,1,1h27.935L30.244,48.572z"/>
	<polygon fill="#010101" points="31.372,51.9 31.373,51.9 29.03,60.1 39.227,57.186 31.778,50.482 	"/>
	<polygon fill="#010101" points="32.747,48.664 40.872,55.976 53.01,43.838 45.291,36.119 	"/>
</g>
</svg>
