<?xml version="1.0" encoding="utf-8"?>
<!-- Generator: Adobe Illustrator 17.0.0, SVG Export Plug-In . SVG Version: 6.00 Build 0)  -->
<!DOCTYPE svg PUBLIC "-//W3C//DTD SVG 1.1//EN" "http://www.w3.org/Graphics/SVG/1.1/DTD/svg11.dtd">
<svg version="1.1" id="Layer_2" xmlns="http://www.w3.org/2000/svg" xmlns:xlink="http://www.w3.org/1999/xlink" x="0px" y="0px"
	 width="60px" height="60px" viewBox="0 0 60 60" enable-background="new 0 0 60 60" xml:space="preserve">
<g>
	<path fill="#010101" d="M43.081,38H48v-3.836C47.685,34.068,47.357,34,47,34C44.836,34,43.425,35.898,43.081,38z"/>
	<path fill="#010101" d="M37.039,38C37.484,32.317,41.7,28,47,28c0.338,0,0.671,0.019,1,0.053V1c0-0.553-0.448-1-1-1h-7v4h2v6h-6V4
		h2V0h-8v4h2v6h-6V4h2V0h-8v4h2v6h-6V4h2V0h-8v4h2v6H6V4h2V0H1C0.448,0,0,0.447,0,1v50c0,0.553,0.448,1,1,1h31V41
		c0-1.654,1.346-3,3-3H37.039z"/>
	<path fill="#010101" d="M59,40h-4v-1c0-0.631-0.055-1.245-0.16-1.836c-0.21-1.182-0.619-2.274-1.189-3.23
		c-0.285-0.478-0.61-0.922-0.969-1.327c-0.36-0.405-0.755-0.77-1.18-1.091c-0.425-0.32-0.88-0.595-1.36-0.82
		c-0.48-0.225-0.986-0.399-1.511-0.517C48.106,30.062,47.561,30,47,30c-0.561,0-1.106,0.062-1.632,0.18
		c-0.525,0.118-1.031,0.292-1.511,0.517c-0.48,0.225-0.935,0.5-1.36,0.82c-0.425,0.321-0.82,0.686-1.18,1.091
		c-0.36,0.405-0.685,0.849-0.97,1.327c-0.57,0.956-0.979,2.047-1.189,3.23C39.055,37.755,39,38.369,39,39v1h-4c-0.551,0-1,0.448-1,1
		v18c0,0.552,0.449,1,1,1h24c0.551,0,1-0.448,1-1V41C60,40.448,59.551,40,59,40z M48,49.722V51v2.957c0,0.553-0.448,1-1,1
		c-0.552,0-1-0.447-1-1V50v-0.278c-0.595-0.347-1-0.985-1-1.722c0-1.102,0.897-2,2-2s2,0.898,2,2C49,48.737,48.595,49.375,48,49.722
		z M53,40H41v-1c0-0.645,0.079-1.294,0.232-1.924c0.204-0.839,0.54-1.642,0.995-2.352c0.228-0.355,0.486-0.687,0.772-0.988
		c0.573-0.603,1.261-1.083,2.052-1.385C45.645,32.125,46.296,32,47,32c1.174,0,2.2,0.348,3.056,0.931
		c0.342,0.233,0.658,0.504,0.944,0.805c0.286,0.301,0.545,0.633,0.772,0.988c0.342,0.533,0.616,1.118,0.818,1.731
		C52.86,37.273,53,38.14,53,39V40z"/>
	<polygon fill="#010101" points="47.001,48 47.001,48 47.001,48 	"/>
</g>
</svg>
