<?xml version="1.0" encoding="utf-8"?>
<!-- Generator: Adobe Illustrator 17.0.0, SVG Export Plug-In . SVG Version: 6.00 Build 0)  -->
<!DOCTYPE svg PUBLIC "-//W3C//DTD SVG 1.1//EN" "http://www.w3.org/Graphics/SVG/1.1/DTD/svg11.dtd">
<svg version="1.1" id="Layer_2" xmlns="http://www.w3.org/2000/svg" xmlns:xlink="http://www.w3.org/1999/xlink" x="0px" y="0px"
	 width="60px" height="60px" viewBox="0 0 60 60" enable-background="new 0 0 60 60" xml:space="preserve">
<g>
	<path fill="#010101" d="M44.084,23.848c0.164-0.353,0.517-0.577,0.906-0.577c0.389,0,0.742,0.225,0.906,0.577l2.094,4.486V1
		c0-0.553-0.448-1-1-1h-7v4h2v6h-6V4h2V0h-8v4h2v6h-6V4h2V0h-8v4h2v6h-6V4h2V0h-8v4h2v6h-6V4h2V0h-7c-0.552,0-1,0.447-1,1v50
		c0,0.553,0.448,1,1,1h29.956L44.084,23.848z"/>
	<path fill="#010101" d="M59.966,58.727l-0.145-0.31c-0.001-0.001-0.001-0.003-0.001-0.003l-11.83-25.35v0l-3-6.429L33.153,52
		l-3.069,6.577c-0.145,0.31-0.121,0.672,0.063,0.96C30.33,59.825,30.648,60,30.99,60h28c0.007,0,0.013,0,0.02,0c0.552,0,1-0.447,1-1
		C60.01,58.905,59.991,58.815,59.966,58.727z M44.99,54c-0.553,0-1-0.447-1-1c0-0.553,0.447-1,1-1s1,0.447,1,1
		C45.99,53.553,45.543,54,44.99,54z M45.99,49.371c0,0.553-0.448,1-1,1c-0.552,0-1-0.447-1-1v-8.252c0-0.553,0.448-1,1-1
		c0.552,0,1,0.447,1,1V49.371z"/>
</g>
</svg>
