<?xml version="1.0" encoding="utf-8"?>
<!-- Generator: Adobe Illustrator 17.0.0, SVG Export Plug-In . SVG Version: 6.00 Build 0)  -->
<!DOCTYPE svg PUBLIC "-//W3C//DTD SVG 1.1//EN" "http://www.w3.org/Graphics/SVG/1.1/DTD/svg11.dtd">
<svg version="1.1" id="Layer_2" xmlns="http://www.w3.org/2000/svg" xmlns:xlink="http://www.w3.org/1999/xlink" x="0px" y="0px"
	 width="60px" height="60px" viewBox="0 0 60 60" enable-background="new 0 0 60 60" xml:space="preserve">
<g>
	<path fill="#010101" d="M45,28c1.025,0,2.024,0.107,3,0.282V1c0-0.553-0.448-1-1-1h-7v4h2v6h-6V4h2V0h-8v4h2v6h-6V4h2V0h-8v4h2v6
		h-6V4h2V0h-8v4h2v6H6V4h2V0H1C0.448,0,0,0.447,0,1v50c0,0.553,0.448,1,1,1h28.526C28.555,49.862,28,47.497,28,45
		C28,35.626,35.626,28,45,28z"/>
	<path fill="#010101" d="M45,30c-8.271,0-15,6.729-15,15c0,8.272,6.729,15,15,15s15-6.728,15-15C60,36.729,53.271,30,45,30z
		 M51.877,46H46v4v1.877c0,0.553-0.448,1-1,1c-0.552,0-1-0.447-1-1V46h-5.877c-0.552,0-1-0.447-1-1c0-0.553,0.448-1,1-1H44v-5.877
		c0-0.553,0.448-1,1-1c0.552,0,1,0.447,1,1V44h5.877c0.552,0,1,0.447,1,1C52.877,45.553,52.43,46,51.877,46z"/>
</g>
</svg>
