<?xml version="1.0" encoding="utf-8"?>
<!-- Generator: Adobe Illustrator 17.0.0, SVG Export Plug-In . SVG Version: 6.00 Build 0)  -->
<!DOCTYPE svg PUBLIC "-//W3C//DTD SVG 1.1//EN" "http://www.w3.org/Graphics/SVG/1.1/DTD/svg11.dtd">
<svg version="1.1" id="Layer_2" xmlns="http://www.w3.org/2000/svg" xmlns:xlink="http://www.w3.org/1999/xlink" x="0px" y="0px"
	 width="48px" height="48px" viewBox="0 0 48 48" enable-background="new 0 0 48 48" xml:space="preserve">
<g>
	<path fill="#010101" d="M45,16H32.941c-0.5-4.494-4.317-8-8.941-8c-4.624,0-8.442,3.506-8.941,8H3c-0.552,0-1,0.447-1,1v9h18v-2
		c0-0.553,0.448-1,1-1h6c0.552,0,1,0.447,1,1v2h18v-9C46,16.447,45.552,16,45,16z M17.08,16c0.488-3.386,3.401-6,6.92-6
		c3.519,0,6.432,2.614,6.92,6H17.08z"/>
	<path fill="#010101" d="M28,32c0,0.553-0.448,1-1,1h-6c-0.552,0-1-0.447-1-1v-4H2v17c0,0.553,0.448,1,1,1h42c0.552,0,1-0.447,1-1
		V28H28V32z"/>
</g>
</svg>
