<?xml version="1.0" encoding="utf-8"?>
<!-- Generator: Adobe Illustrator 17.0.0, SVG Export Plug-In . SVG Version: 6.00 Build 0)  -->
<!DOCTYPE svg PUBLIC "-//W3C//DTD SVG 1.1//EN" "http://www.w3.org/Graphics/SVG/1.1/DTD/svg11.dtd">
<svg version="1.1" id="Layer_2" xmlns="http://www.w3.org/2000/svg" xmlns:xlink="http://www.w3.org/1999/xlink" x="0px" y="0px"
	 width="48px" height="48px" viewBox="0 0 48 48" enable-background="new 0 0 48 48" xml:space="preserve">
<g>
	<path fill="#010101" d="M24,15c-4.962,0-9,4.037-9,9s4.038,9,9,9c4.962,0,9-4.037,9-9S28.962,15,24,15z"/>
	<path fill="#010101" d="M24,12c1.104,0,2-0.896,2-2V2c0-1.105-0.896-2-2-2c-1.105,0-2,0.896-2,2v8C22,11.104,22.895,12,24,12z"/>
	<path fill="#010101" d="M24,36c-1.105,0-2,0.896-2,2v8c0,1.104,0.895,2,2,2c1.104,0,2-0.896,2-2v-8C26,36.896,25.104,36,24,36z"/>
	<path fill="#010101" d="M12.977,14.808c0.391,0.391,0.903,0.586,1.415,0.586c0.512,0,1.023-0.195,1.414-0.586
		c0.781-0.78,0.781-2.047,0-2.828L10.15,6.322c-0.781-0.781-2.047-0.781-2.829,0C6.54,7.102,6.54,8.369,7.321,9.15L12.977,14.808z"
		/>
	<path fill="#010101" d="M35.019,33.192c-0.781-0.781-2.048-0.781-2.828,0c-0.781,0.781-0.781,2.047,0,2.828l5.658,5.657
		c0.391,0.391,0.902,0.586,1.414,0.586s1.024-0.195,1.414-0.586c0.781-0.781,0.781-2.047,0-2.828L35.019,33.192z"/>
	<path fill="#010101" d="M12,25c0-1.104-0.896-2-2-2H2c-1.105,0-2,0.896-2,2s0.896,2,2,2h8C11.104,27,12,26.104,12,25z"/>
	<path fill="#010101" d="M46,23h-8c-1.105,0-2,0.896-2,2s0.895,2,2,2h8c1.104,0,2-0.896,2-2S47.104,23,46,23z"/>
	<path fill="#010101" d="M12.977,33.192L7.321,38.85c-0.781,0.781-0.781,2.048,0.001,2.828c0.391,0.391,0.902,0.586,1.414,0.586
		c0.512,0,1.024-0.195,1.415-0.586l5.656-5.657c0.781-0.781,0.781-2.048,0-2.828C15.025,32.411,13.759,32.411,12.977,33.192z"/>
	<path fill="#010101" d="M33.605,15.394c0.512,0,1.023-0.195,1.414-0.586l5.658-5.657c0.781-0.781,0.781-2.047,0-2.828
		c-0.78-0.781-2.047-0.781-2.828,0l-5.658,5.657c-0.781,0.781-0.781,2.047,0,2.828C32.581,15.198,33.094,15.394,33.605,15.394z"/>
</g>
</svg>
