<?xml version="1.0" encoding="utf-8"?>
<!-- Generator: Adobe Illustrator 17.0.0, SVG Export Plug-In . SVG Version: 6.00 Build 0)  -->
<!DOCTYPE svg PUBLIC "-//W3C//DTD SVG 1.1//EN" "http://www.w3.org/Graphics/SVG/1.1/DTD/svg11.dtd">
<svg version="1.1" id="Layer_2" xmlns="http://www.w3.org/2000/svg" xmlns:xlink="http://www.w3.org/1999/xlink" x="0px" y="0px"
	 width="48px" height="48px" viewBox="0 0 48 48" enable-background="new 0 0 48 48" xml:space="preserve">
<path fill="#010101" d="M46,26h-9.646l-3.497-8.743c-0.327-0.816-1.151-1.319-2.026-1.25c-0.877,0.075-1.602,0.714-1.786,1.574
	l-3.746,17.483L20.976,7.689c-0.146-0.923-0.91-1.621-1.841-1.684c-0.938-0.062-1.782,0.526-2.05,1.421L11.512,26H2
	c-1.105,0-2,0.896-2,2c0,1.105,0.895,2,2,2h11c0.883,0,1.662-0.579,1.915-1.426l3.478-11.592l4.631,29.329
	c0.15,0.952,0.958,1.661,1.921,1.687C24.964,48,24.982,48,25,48c0.94,0,1.757-0.657,1.955-1.581l4.625-21.583l1.562,3.907
	C33.447,29.502,34.182,30,35,30h11c1.104,0,2-0.895,2-2C48,26.896,47.104,26,46,26z"/>
</svg>
