<?xml version="1.0" encoding="utf-8"?>
<!-- Generator: Adobe Illustrator 17.0.0, SVG Export Plug-In . SVG Version: 6.00 Build 0)  -->
<!DOCTYPE svg PUBLIC "-//W3C//DTD SVG 1.1//EN" "http://www.w3.org/Graphics/SVG/1.1/DTD/svg11.dtd">
<svg version="1.1" id="Layer_2" xmlns="http://www.w3.org/2000/svg" xmlns:xlink="http://www.w3.org/1999/xlink" x="0px" y="0px"
	 width="48px" height="48px" viewBox="0 0 48 48" enable-background="new 0 0 48 48" xml:space="preserve">
<path fill="#010101" d="M24,10C10.767,10,0,20.767,0,34v9c0,0.553,0.448,1,1,1h46c0.552,0,1-0.447,1-1v-9C48,20.767,37.233,10,24,10
	z M28.816,19.76l1.531-3.695c0.211-0.51,0.794-0.754,1.307-0.541c0.51,0.211,0.753,0.796,0.541,1.307l-1.531,3.695
	c-0.16,0.385-0.532,0.617-0.924,0.617c-0.128,0-0.257-0.024-0.382-0.076C28.847,20.855,28.604,20.271,28.816,19.76z M23,15
	c0-0.553,0.448-1,1-1s1,0.447,1,1v4c0,0.553-0.448,1-1,1s-1-0.447-1-1V15z M9,36H5c-0.552,0-1-0.447-1-1s0.448-1,1-1h4
	c0.552,0,1,0.447,1,1S9.552,36,9,36z M11.066,28.643c-0.16,0.385-0.532,0.617-0.924,0.617c-0.127,0-0.257-0.024-0.382-0.076
	l-3.695-1.531c-0.51-0.212-0.752-0.797-0.541-1.307c0.211-0.511,0.796-0.755,1.307-0.541l3.695,1.531
	C11.035,27.548,11.277,28.133,11.066,28.643z M14.099,24.103c-0.195,0.194-0.451,0.292-0.707,0.292
	c-0.256,0-0.512-0.098-0.708-0.293l-2.826-2.83c-0.39-0.392-0.39-1.024,0.001-1.415c0.391-0.39,1.024-0.389,1.414,0.001l2.826,2.83
	C14.49,23.079,14.489,23.712,14.099,24.103z M18.642,21.066c-0.125,0.052-0.254,0.076-0.382,0.076c-0.393,0-0.765-0.232-0.924-0.617
	l-1.529-3.695c-0.211-0.511,0.031-1.096,0.542-1.307c0.509-0.213,1.095,0.031,1.306,0.541l1.529,3.695
	C19.395,20.271,19.152,20.855,18.642,21.066z M28,34c0,2.206-1.794,4-4,4s-4-1.794-4-4s1.794-4,4-4c0.739,0,1.424,0.215,2.019,0.566
	l9.296-9.293c0.391-0.391,1.023-0.391,1.414,0c0.391,0.391,0.391,1.024,0,1.414l-9.295,9.293C27.785,32.575,28,33.26,28,34z
	 M36.933,28.643c-0.211-0.511,0.031-1.096,0.542-1.307l3.696-1.529c0.51-0.212,1.096,0.031,1.306,0.541
	c0.211,0.511-0.031,1.096-0.542,1.307l-3.696,1.529c-0.125,0.052-0.254,0.076-0.382,0.076C37.465,29.26,37.092,29.027,36.933,28.643
	z M43,36.002L43,36.002L39,36c-0.552,0-1-0.448-1-1c0-0.553,0.448-1,1-1h0l4,0.002c0.552,0,1,0.448,1,1
	C44,35.555,43.552,36.002,43,36.002z"/>
</svg>
