<?xml version="1.0" encoding="utf-8"?>
<!-- Generator: Adobe Illustrator 17.0.0, SVG Export Plug-In . SVG Version: 6.00 Build 0)  -->
<!DOCTYPE svg PUBLIC "-//W3C//DTD SVG 1.1//EN" "http://www.w3.org/Graphics/SVG/1.1/DTD/svg11.dtd">
<svg version="1.1" id="Layer_2" xmlns="http://www.w3.org/2000/svg" xmlns:xlink="http://www.w3.org/1999/xlink" x="0px" y="0px"
	 width="48px" height="48px" viewBox="0 0 48 48" enable-background="new 0 0 48 48" xml:space="preserve">
<path fill="#010101" d="M47.707,3.293l-3-3c-0.391-0.391-1.023-0.391-1.414,0l-6,6c-0.391,0.391-0.391,1.023,0,1.414L38.086,8.5
	L17.142,29.443l-0.354-0.354l-3.181-3.182c-0.391-0.391-1.023-0.391-1.414,0c-0.391,0.391-0.391,1.023,0,1.414l1.414,1.414
	L1.173,41.171C0.416,41.928-0.001,42.933,0,44.002c0,1.069,0.417,2.073,1.171,2.824c0.754,0.758,1.758,1.175,2.829,1.175
	c1.069,0,2.073-0.416,2.828-1.171l12.435-12.437l1.413,1.414c0.195,0.195,0.451,0.293,0.707,0.293c0.256,0,0.512-0.098,0.707-0.293
	c0.391-0.391,0.391-1.023,0-1.414l-2.119-2.119c-0.001,0-0.001-0.001-0.001-0.002l-1.414-1.414L39.5,9.914l0.793,0.793
	C40.489,10.902,40.745,11,41,11c0.256,0,0.512-0.098,0.707-0.293l6-6C48.098,4.316,48.098,3.684,47.707,3.293z"/>
</svg>
