<?xml version="1.0" encoding="utf-8"?>
<!-- Generator: Adobe Illustrator 17.0.0, SVG Export Plug-In . SVG Version: 6.00 Build 0)  -->
<!DOCTYPE svg PUBLIC "-//W3C//DTD SVG 1.1//EN" "http://www.w3.org/Graphics/SVG/1.1/DTD/svg11.dtd">
<svg version="1.1" id="Layer_2" xmlns="http://www.w3.org/2000/svg" xmlns:xlink="http://www.w3.org/1999/xlink" x="0px" y="0px"
	 width="48px" height="48px" viewBox="0 0 48 48" enable-background="new 0 0 48 48" xml:space="preserve">
<path fill="#010101" d="M45.07,32.344c-2.44-2.441-6.001-3.254-9.234-2.164l-6.327-6.329l6.328-6.328
	c0.925,0.312,1.89,0.47,2.877,0.47c2.401,0,4.659-0.936,6.357-2.634c2.615-2.615,3.351-6.342,1.919-9.726
	c-0.131-0.31-0.409-0.532-0.739-0.594c-0.332-0.059-0.67,0.048-0.903,0.29L41.816,9H39V5.875l3.537-3.535
	c0.235-0.235,0.338-0.572,0.274-0.898c-0.063-0.326-0.286-0.6-0.592-0.729C41.102,0.239,39.918,0,38.702,0
	c-2.403,0-4.662,0.935-6.359,2.633c-2.441,2.44-3.256,6.001-2.165,9.234l-6.326,6.327l-6.328-6.327
	c1.093-3.234,0.278-6.794-2.163-9.234c-2.616-2.616-6.342-3.353-9.725-1.921C5.325,0.843,5.102,1.12,5.04,1.451
	c-0.061,0.33,0.048,0.669,0.29,0.902L9,5.887V9H5.886L2.353,5.33C2.12,5.087,1.78,4.981,1.451,5.04
	c-0.33,0.062-0.608,0.284-0.739,0.594c-1.423,3.363-0.669,7.21,1.92,9.8c2.427,2.428,5.989,3.228,9.236,2.127l6.316,6.301
	l-6.318,6.318c-0.925-0.312-1.89-0.47-2.877-0.47c-2.403,0-4.661,0.936-6.357,2.634c-2.603,2.604-3.357,6.479-1.921,9.875
	c0.129,0.307,0.403,0.528,0.729,0.592c0.328,0.063,0.663-0.04,0.898-0.274L5.875,39H9v2.816L5.331,45.35
	c-0.242,0.233-0.351,0.572-0.29,0.902c0.062,0.331,0.284,0.608,0.594,0.739c1.117,0.473,2.293,0.712,3.496,0.712
	c0.001,0,0.001,0,0.001,0c2.367,0,4.605-0.934,6.303-2.633c2.414-2.412,3.201-5.974,2.09-9.235l6.328-6.327l6.328,6.33
	c-1.093,3.232-0.278,6.793,2.164,9.234c1.726,1.726,4.012,2.639,6.347,2.639c1.186,0,2.385-0.235,3.53-0.72
	c0.306-0.13,0.528-0.403,0.592-0.729c0.064-0.327-0.04-0.664-0.275-0.899L39,41.829V39h2.828l3.535,3.536
	c0.234,0.234,0.57,0.339,0.898,0.274c0.327-0.063,0.6-0.285,0.729-0.592C48.428,38.823,47.674,34.947,45.07,32.344z"/>
</svg>
