<?xml version="1.0" encoding="utf-8"?>
<!-- Generator: Adobe Illustrator 17.0.0, SVG Export Plug-In . SVG Version: 6.00 Build 0)  -->
<!DOCTYPE svg PUBLIC "-//W3C//DTD SVG 1.1//EN" "http://www.w3.org/Graphics/SVG/1.1/DTD/svg11.dtd">
<svg version="1.1" id="Layer_2" xmlns="http://www.w3.org/2000/svg" xmlns:xlink="http://www.w3.org/1999/xlink" x="0px" y="0px"
	 width="48px" height="48px" viewBox="0 0 48 48" enable-background="new 0 0 48 48" xml:space="preserve">
<path fill="#010101" d="M47,20h-5.71c-0.399-1.58-0.908-3.334-1.556-4.663l4.065-4.065c0.188-0.188,0.293-0.441,0.293-0.707
	c0-0.266-0.105-0.52-0.293-0.707l-5.658-5.656c-0.391-0.391-1.023-0.391-1.414,0l-4.066,4.064C31.331,7.618,29.578,7.109,28,6.711V1
	c0-0.553-0.448-1-1-1h-6c-0.552,0-1,0.447-1,1v5.711c-1.58,0.398-3.334,0.907-4.662,1.555l-4.066-4.064
	c-0.391-0.391-1.023-0.391-1.414,0L4.2,9.857c-0.391,0.391-0.391,1.023,0,1.414l4.066,4.066C7.621,16.663,7.11,18.418,6.708,20H1
	c-0.552,0-1,0.447-1,1v6c0,0.553,0.448,1,1,1h5.708c0.401,1.582,0.913,3.337,1.558,4.662l-4.067,4.066
	c-0.188,0.187-0.293,0.441-0.293,0.707c0,0.266,0.105,0.52,0.293,0.707l5.658,5.656c0.375,0.376,1.04,0.375,1.414,0l4.065-4.066
	c1.326,0.646,3.082,1.157,4.664,1.559V47c0,0.553,0.448,1,1,1h6c0.552,0,1-0.447,1-1v-5.709c1.581-0.401,3.336-0.912,4.661-1.557
	l4.067,4.064c0.391,0.391,1.024,0.391,1.414,0l5.656-5.656c0.391-0.391,0.391-1.024,0-1.414l-4.065-4.066
	c0.646-1.325,1.156-3.081,1.557-4.662H47c0.552,0,1-0.447,1-1v-6C48,20.447,47.552,20,47,20z M24,32c-4.411,0-8-3.589-8-8
	c0-4.411,3.589-8,8-8c4.411,0,8,3.589,8,8C32,28.411,28.411,32,24,32z"/>
</svg>
