<?xml version="1.0" encoding="utf-8"?>
<!-- Generator: Adobe Illustrator 17.0.0, SVG Export Plug-In . SVG Version: 6.00 Build 0)  -->
<!DOCTYPE svg PUBLIC "-//W3C//DTD SVG 1.1//EN" "http://www.w3.org/Graphics/SVG/1.1/DTD/svg11.dtd">
<svg version="1.1" id="Layer_2" xmlns="http://www.w3.org/2000/svg" xmlns:xlink="http://www.w3.org/1999/xlink" x="0px" y="0px"
	 width="48px" height="48px" viewBox="0 0 48 48" enable-background="new 0 0 48 48" xml:space="preserve">
<g>
	<circle fill="#010101" cx="41" cy="41" r="1"/>
	<circle fill="#010101" cx="7" cy="41" r="1"/>
	<circle fill="#010101" cx="7" cy="7" r="1"/>
	<circle fill="#010101" cx="41" cy="7" r="1"/>
	<path fill="#010101" d="M47,0H1C0.448,0,0,0.447,0,1v46c0,0.553,0.448,1,1,1h46c0.552,0,1-0.447,1-1V1C48,0.447,47.552,0,47,0z
		 M7,44c-1.654,0-3-1.346-3-3c0-1.654,1.346-3,3-3c1.654,0,3,1.346,3,3C10,42.654,8.654,44,7,44z M7,10c-1.654,0-3-1.346-3-3
		c0-1.654,1.346-3,3-3c1.654,0,3,1.346,3,3C10,8.654,8.654,10,7,10z M32,35c0,0.553-0.448,1-1,1H17c-0.552,0-1-0.447-1-1V18h16V35z
		 M32,16H16v-3c0-0.553,0.448-1,1-1h14c0.552,0,1,0.447,1,1V16z M41,44c-1.654,0-3-1.346-3-3c0-1.654,1.346-3,3-3
		c1.654,0,3,1.346,3,3C44,42.654,42.654,44,41,44z M41,10c-1.654,0-3-1.346-3-3c0-1.654,1.346-3,3-3c1.654,0,3,1.346,3,3
		C44,8.654,42.654,10,41,10z"/>
</g>
</svg>
