<?xml version="1.0" encoding="utf-8"?>
<!-- Generator: Adobe Illustrator 17.0.0, SVG Export Plug-In . SVG Version: 6.00 Build 0)  -->
<!DOCTYPE svg PUBLIC "-//W3C//DTD SVG 1.1//EN" "http://www.w3.org/Graphics/SVG/1.1/DTD/svg11.dtd">
<svg version="1.1" id="Layer_2" xmlns="http://www.w3.org/2000/svg" xmlns:xlink="http://www.w3.org/1999/xlink" x="0px" y="0px"
	 width="48px" height="48px" viewBox="0 0 48 48" enable-background="new 0 0 48 48" xml:space="preserve">
<path fill="#010101" d="M24,0C10.767,0,0,10.767,0,24s10.767,24,24,24s24-10.767,24-24S37.233,0,24,0z M32,33
	c0,0.369-0.203,0.708-0.528,0.882c-0.325,0.174-0.72,0.153-1.026-0.05L23,28.868V33c0,0.387-0.223,0.738-0.572,0.903
	C22.292,33.969,22.146,34,22,34c-0.227,0-0.451-0.077-0.633-0.226l-11-9C10.135,24.584,10,24.3,10,24c0-0.3,0.135-0.584,0.367-0.774
	l11-9c0.299-0.244,0.712-0.297,1.062-0.129C22.777,14.262,23,14.613,23,15v4.132l7.445-4.964c0.307-0.204,0.701-0.225,1.026-0.05
	C31.797,14.292,32,14.631,32,15V33z"/>
</svg>
