<?xml version="1.0" encoding="utf-8"?>
<!-- Generator: Adobe Illustrator 17.0.0, SVG Export Plug-In . SVG Version: 6.00 Build 0)  -->
<!DOCTYPE svg PUBLIC "-//W3C//DTD SVG 1.1//EN" "http://www.w3.org/Graphics/SVG/1.1/DTD/svg11.dtd">
<svg version="1.1" id="Layer_2" xmlns="http://www.w3.org/2000/svg" xmlns:xlink="http://www.w3.org/1999/xlink" x="0px" y="0px"
	 width="48px" height="48px" viewBox="0 0 48 48" enable-background="new 0 0 48 48" xml:space="preserve">
<g>
	<path fill="#010101" d="M0,5v40c0,0.553,0.448,1,1,1h5V4H1C0.448,4,0,4.447,0,5z"/>
	<path fill="#010101" d="M47,4H8v42h39c0.552,0,1-0.447,1-1V5C48,4.447,47.552,4,47,4z M27,42c-9.374,0-17-7.626-17-17
		S17.626,8,27,8s17,7.626,17,17S36.374,42,27,42z"/>
	<path fill="#010101" d="M27,10c-8.271,0-15,6.729-15,15s6.729,15,15,15s15-6.729,15-15S35.271,10,27,10z M27,30
		c-2.757,0-5-2.243-5-5s2.243-5,5-5c2.757,0,5,2.243,5,5S29.757,30,27,30z"/>
	<circle fill="#010101" cx="27" cy="25" r="1"/>
</g>
</svg>
