<?xml version="1.0" encoding="utf-8"?>
<!-- Generator: Adobe Illustrator 17.0.0, SVG Export Plug-In . SVG Version: 6.00 Build 0)  -->
<!DOCTYPE svg PUBLIC "-//W3C//DTD SVG 1.1//EN" "http://www.w3.org/Graphics/SVG/1.1/DTD/svg11.dtd">
<svg version="1.1" xmlns="http://www.w3.org/2000/svg" xmlns:xlink="http://www.w3.org/1999/xlink" x="0px" y="0px" width="48px"
	 height="48px" viewBox="0 0 48 48" enable-background="new 0 0 48 48" xml:space="preserve">
<g id="nyt_x5F_exporter_x5F_info" display="none">
</g>
<g id="Layer_3">
	<path fill="#010101" d="M47,0H1C0.448,0,0,0.447,0,1v46c0,0.553,0.448,1,1,1h46c0.552,0,1-0.447,1-1V1C48,0.447,47.552,0,47,0z
		 M8,30h8c0.552,0,1,0.447,1,1c0,0.553-0.448,1-1,1H8c-0.552,0-1-0.447-1-1C7,30.447,7.448,30,8,30z M7,27c0-0.553,0.448-1,1-1h8
		c0.552,0,1,0.447,1,1c0,0.553-0.448,1-1,1H8C7.448,28,7,27.553,7,27z M8,34h8c0.552,0,1,0.447,1,1c0,0.553-0.448,1-1,1H8
		c-0.552,0-1-0.447-1-1C7,34.447,7.448,34,8,34z M8,38h8c0.552,0,1,0.447,1,1c0,0.553-0.448,1-1,1H8c-0.552,0-1-0.447-1-1
		C7,38.447,7.448,38,8,38z M20,14h8c0.552,0,1,0.447,1,1c0,0.553-0.448,1-1,1h-8c-0.552,0-1-0.447-1-1C19,14.447,19.448,14,20,14z
		 M19,11c0-0.553,0.448-1,1-1h8c0.552,0,1,0.447,1,1c0,0.553-0.448,1-1,1h-8C19.448,12,19,11.553,19,11z M20,18h8
		c0.552,0,1,0.447,1,1c0,0.553-0.448,1-1,1h-8c-0.552,0-1-0.447-1-1C19,18.447,19.448,18,20,18z M20,22h8c0.552,0,1,0.447,1,1
		c0,0.553-0.448,1-1,1h-8c-0.552,0-1-0.447-1-1C19,22.447,19.448,22,20,22z M20,26h8c0.552,0,1,0.447,1,1c0,0.553-0.448,1-1,1h-8
		c-0.552,0-1-0.447-1-1C19,26.447,19.448,26,20,26z M20,30h8c0.552,0,1,0.447,1,1c0,0.553-0.448,1-1,1h-8c-0.552,0-1-0.447-1-1
		C19,30.447,19.448,30,20,30z M20,34h8c0.552,0,1,0.447,1,1c0,0.553-0.448,1-1,1h-8c-0.552,0-1-0.447-1-1C19,34.447,19.448,34,20,34
		z M20,38h8c0.552,0,1,0.447,1,1c0,0.553-0.448,1-1,1h-8c-0.552,0-1-0.447-1-1C19,38.447,19.448,38,20,38z M31,39
		c0-0.553,0.448-1,1-1h8c0.552,0,1,0.447,1,1c0,0.553-0.448,1-1,1h-8C31.448,40,31,39.553,31,39z M40,36h-8c-0.552,0-1-0.447-1-1
		c0-0.553,0.448-1,1-1h8c0.552,0,1,0.447,1,1C41,35.553,40.552,36,40,36z"/>
</g>
</svg>
