<?xml version="1.0" encoding="utf-8"?>
<!-- Generator: Adobe Illustrator 17.0.0, SVG Export Plug-In . SVG Version: 6.00 Build 0)  -->
<!DOCTYPE svg PUBLIC "-//W3C//DTD SVG 1.1//EN" "http://www.w3.org/Graphics/SVG/1.1/DTD/svg11.dtd">
<svg version="1.1" xmlns="http://www.w3.org/2000/svg" xmlns:xlink="http://www.w3.org/1999/xlink" x="0px" y="0px" width="48px"
	 height="48px" viewBox="0 0 48 48" enable-background="new 0 0 48 48" xml:space="preserve">
<g id="nyt_x5F_exporter_x5F_info" display="none">
</g>
<g id="Layer_3">
	<g>
		<path fill="#010101" d="M14.939,45h-10c-0.829,0-1.5,0.672-1.5,1.5c0,0.828,0.671,1.5,1.5,1.5h10c0.829,0,1.5-0.672,1.5-1.5
			C16.439,45.672,15.768,45,14.939,45z"/>
		<path fill="#010101" d="M14.939,41h-10c-0.829,0-1.5,0.672-1.5,1.5c0,0.828,0.671,1.5,1.5,1.5h10c0.829,0,1.5-0.672,1.5-1.5
			C16.439,41.672,15.768,41,14.939,41z"/>
		<path fill="#010101" d="M14.939,37h-10c-0.829,0-1.5,0.672-1.5,1.5c0,0.828,0.671,1.5,1.5,1.5h10c0.829,0,1.5-0.672,1.5-1.5
			C16.439,37.672,15.768,37,14.939,37z"/>
		<path fill="#010101" d="M14.939,33h-10c-0.829,0-1.5,0.672-1.5,1.5c0,0.828,0.671,1.5,1.5,1.5h10c0.829,0,1.5-0.672,1.5-1.5
			C16.439,33.672,15.768,33,14.939,33z"/>
		<path fill="#010101" d="M14.939,29h-10c-0.829,0-1.5,0.672-1.5,1.5c0,0.828,0.671,1.5,1.5,1.5h10c0.829,0,1.5-0.672,1.5-1.5
			C16.439,29.672,15.768,29,14.939,29z"/>
		<path fill="#010101" d="M28.939,45h-10c-0.829,0-1.5,0.672-1.5,1.5c0,0.828,0.671,1.5,1.5,1.5h10c0.829,0,1.5-0.672,1.5-1.5
			C30.439,45.672,29.768,45,28.939,45z"/>
		<path fill="#010101" d="M28.939,41h-10c-0.829,0-1.5,0.672-1.5,1.5c0,0.828,0.671,1.5,1.5,1.5h10c0.829,0,1.5-0.672,1.5-1.5
			C30.439,41.672,29.768,41,28.939,41z"/>
		<path fill="#010101" d="M28.939,37h-10c-0.829,0-1.5,0.672-1.5,1.5c0,0.828,0.671,1.5,1.5,1.5h10c0.829,0,1.5-0.672,1.5-1.5
			C30.439,37.672,29.768,37,28.939,37z"/>
		<path fill="#010101" d="M28.939,33h-10c-0.829,0-1.5,0.672-1.5,1.5c0,0.828,0.671,1.5,1.5,1.5h10c0.829,0,1.5-0.672,1.5-1.5
			C30.439,33.672,29.768,33,28.939,33z"/>
		<path fill="#010101" d="M28.939,29h-10c-0.829,0-1.5,0.672-1.5,1.5c0,0.828,0.671,1.5,1.5,1.5h10c0.829,0,1.5-0.672,1.5-1.5
			C30.439,29.672,29.768,29,28.939,29z"/>
		<path fill="#010101" d="M28.939,25h-10c-0.829,0-1.5,0.672-1.5,1.5c0,0.828,0.671,1.5,1.5,1.5h10c0.829,0,1.5-0.672,1.5-1.5
			C30.439,25.672,29.768,25,28.939,25z"/>
		<path fill="#010101" d="M28.939,21h-10c-0.829,0-1.5,0.672-1.5,1.5c0,0.828,0.671,1.5,1.5,1.5h10c0.829,0,1.5-0.672,1.5-1.5
			C30.439,21.672,29.768,21,28.939,21z"/>
		<path fill="#010101" d="M28.939,17h-10c-0.829,0-1.5,0.672-1.5,1.5c0,0.828,0.671,1.5,1.5,1.5h10c0.829,0,1.5-0.672,1.5-1.5
			C30.439,17.672,29.768,17,28.939,17z"/>
		<path fill="#010101" d="M28.939,13h-10c-0.829,0-1.5,0.672-1.5,1.5c0,0.828,0.671,1.5,1.5,1.5h10c0.829,0,1.5-0.672,1.5-1.5
			C30.439,13.672,29.768,13,28.939,13z"/>
		<path fill="#010101" d="M28.939,9h-10c-0.829,0-1.5,0.672-1.5,1.5c0,0.828,0.671,1.5,1.5,1.5h10c0.829,0,1.5-0.672,1.5-1.5
			C30.439,9.672,29.768,9,28.939,9z"/>
		<path fill="#010101" d="M42.939,45h-10c-0.829,0-1.5,0.672-1.5,1.5c0,0.828,0.671,1.5,1.5,1.5h10c0.829,0,1.5-0.672,1.5-1.5
			C44.439,45.672,43.768,45,42.939,45z"/>
		<path fill="#010101" d="M42.939,41h-10c-0.829,0-1.5,0.672-1.5,1.5c0,0.828,0.671,1.5,1.5,1.5h10c0.829,0,1.5-0.672,1.5-1.5
			C44.439,41.672,43.768,41,42.939,41z"/>
		<path fill="#010101" d="M32.939,40h10c0.829,0,1.5-0.672,1.5-1.5c0-0.828-0.671-1.5-1.5-1.5h-10c-0.829,0-1.5,0.672-1.5,1.5
			C31.439,39.328,32.111,40,32.939,40z"/>
	</g>
</g>
</svg>
