<?xml version="1.0" encoding="utf-8"?>
<!-- Generator: Adobe Illustrator 17.0.0, SVG Export Plug-In . SVG Version: 6.00 Build 0)  -->
<!DOCTYPE svg PUBLIC "-//W3C//DTD SVG 1.1//EN" "http://www.w3.org/Graphics/SVG/1.1/DTD/svg11.dtd">
<svg version="1.1" id="Layer_2" xmlns="http://www.w3.org/2000/svg" xmlns:xlink="http://www.w3.org/1999/xlink" x="0px" y="0px"
	 width="48px" height="48px" viewBox="0 0 48 48" enable-background="new 0 0 48 48" xml:space="preserve">
<path fill="#010101" d="M24,48c13.233,0,24-10.767,24-24S37.233,0,24,0C10.767,0,0,10.767,0,24S10.767,48,24,48z M16,15
	c0-0.369,0.203-0.708,0.528-0.882c0.324-0.175,0.719-0.154,1.026,0.05L25,19.132V15c0-0.387,0.223-0.738,0.572-0.903
	c0.348-0.168,0.762-0.115,1.062,0.129l11,9C37.865,23.416,38,23.7,38,24c0,0.3-0.135,0.584-0.367,0.774l-11,9
	C26.451,33.923,26.227,34,26,34c-0.146,0-0.292-0.031-0.428-0.097C25.223,33.738,25,33.387,25,33v-4.132l-7.445,4.964
	c-0.308,0.203-0.702,0.224-1.026,0.05C16.203,33.708,16,33.369,16,33V15z"/>
</svg>
