<?xml version="1.0" encoding="utf-8"?>
<!-- Generator: Adobe Illustrator 17.0.0, SVG Export Plug-In . SVG Version: 6.00 Build 0)  -->
<!DOCTYPE svg PUBLIC "-//W3C//DTD SVG 1.1//EN" "http://www.w3.org/Graphics/SVG/1.1/DTD/svg11.dtd">
<svg version="1.1" xmlns="http://www.w3.org/2000/svg" xmlns:xlink="http://www.w3.org/1999/xlink" x="0px" y="0px" width="48px"
	 height="48px" viewBox="0 0 48 48" enable-background="new 0 0 48 48" xml:space="preserve">
<g id="nyt_x5F_exporter_x5F_info" display="none">
</g>
<g id="Layer_3">
	<g>
		<path fill="#010101" d="M24,20c-2.206,0-4,1.794-4,4c0,2.206,1.794,4,4,4c2.206,0,4-1.794,4-4C28,21.794,26.206,20,24,20z M24,25
			c-0.552,0-1-0.447-1-1c0-0.553,0.448-1,1-1c0.552,0,1,0.447,1,1C25,24.553,24.552,25,24,25z"/>
		<path fill="#010101" d="M24,0C10.767,0,0,10.767,0,24c0,13.233,10.767,24,24,24c13.233,0,24-10.767,24-24C48,10.767,37.233,0,24,0
			z M20.447,42.656c-7.832-1.483-13.936-7.775-15.189-15.658l1.976-0.314c1.121,7.052,6.581,12.682,13.586,14.008L20.447,42.656z
			 M21.195,38.729c-6.184-1.171-11.003-6.14-11.992-12.362l1.976-0.314c0.856,5.392,5.031,9.697,10.388,10.712L21.195,38.729z
			 M21.944,34.802c-4.535-0.859-8.07-4.503-8.795-9.066l1.976-0.314c0.593,3.733,3.483,6.713,7.191,7.416L21.944,34.802z M24,30
			c-3.309,0-6-2.691-6-6c0-3.309,2.691-6,6-6c3.309,0,6,2.691,6,6C30,27.309,27.309,30,24,30z M32.875,22.579
			c-0.594-3.733-3.484-6.714-7.191-7.416l0.372-1.965c4.534,0.859,8.068,4.503,8.795,9.066L32.875,22.579z M36.821,21.948
			c-0.857-5.392-5.032-9.697-10.389-10.712l0.372-1.965c6.184,1.171,11.003,6.14,11.992,12.362L36.821,21.948z M40.767,21.316
			c-1.121-7.052-6.581-12.682-13.586-14.008l0.372-1.965c7.832,1.482,13.936,7.775,15.189,15.658L40.767,21.316z"/>
	</g>
</g>
</svg>
