<?xml version="1.0" encoding="utf-8"?>
<!-- Generator: Adobe Illustrator 17.0.0, SVG Export Plug-In . SVG Version: 6.00 Build 0)  -->
<!DOCTYPE svg PUBLIC "-//W3C//DTD SVG 1.1//EN" "http://www.w3.org/Graphics/SVG/1.1/DTD/svg11.dtd">
<svg version="1.1" xmlns="http://www.w3.org/2000/svg" xmlns:xlink="http://www.w3.org/1999/xlink" x="0px" y="0px" width="48px"
	 height="48px" viewBox="0 0 48 48" enable-background="new 0 0 48 48" xml:space="preserve">
<g id="nyt_x5F_exporter_x5F_info" display="none">
</g>
<g id="Layer_3">
	<g>
		<path fill="#010101" d="M20,24c-2.206,0-4,1.794-4,4c0,2.206,1.794,4,4,4c2.206,0,4-1.794,4-4C24,25.794,22.206,24,20,24z"/>
		<path fill="#010101" d="M44,8V7c0-2.757-2.243-5-5-5c-2.757,0-5,2.243-5,5v1H0v40h48V8H44z M25.33,43.091
			C23.62,43.694,21.827,44,20,44c-8.822,0-16-7.178-16-16c0-8.822,7.178-16,16-16c6.831,0,12.912,4.337,15.134,10.793
			c0.18,0.522-0.098,1.091-0.621,1.271c-0.521,0.18-1.091-0.098-1.271-0.62C31.299,17.795,25.977,14,20,14c-7.72,0-14,6.28-14,14
			c0,7.72,6.28,14,14,14c1.599,0,3.168-0.268,4.664-0.796c0.524-0.179,1.092,0.09,1.276,0.61
			C26.123,42.335,25.85,42.906,25.33,43.091z M20,34c-3.309,0-6-2.691-6-6c0-3.309,2.691-6,6-6c3.309,0,6,2.691,6,6
			C26,31.309,23.309,34,20,34z M40,26.36L35.077,32.3l2.14,2.14l-4.189,4.189c-0.837,0.836-1.971,1.315-3.111,1.315h-0.001
			c-1.05,0-2.025-0.396-2.745-1.116c-0.768-0.768-1.163-1.809-1.112-2.932c0.049-1.089,0.515-2.128,1.312-2.925l4.189-4.188
			l2.096,2.096L38,25.64V14h2V26.36z M42,12h-6V7c0-1.654,1.346-3,3-3c1.654,0,3,1.346,3,3V12z"/>
	</g>
</g>
</svg>
