<?xml version="1.0" encoding="utf-8"?>
<!-- Generator: Adobe Illustrator 17.0.0, SVG Export Plug-In . SVG Version: 6.00 Build 0)  -->
<!DOCTYPE svg PUBLIC "-//W3C//DTD SVG 1.1//EN" "http://www.w3.org/Graphics/SVG/1.1/DTD/svg11.dtd">
<svg version="1.1" xmlns="http://www.w3.org/2000/svg" xmlns:xlink="http://www.w3.org/1999/xlink" x="0px" y="0px" width="48px"
	 height="48px" viewBox="0 0 48 48" enable-background="new 0 0 48 48" xml:space="preserve">
<g id="nyt_x5F_exporter_x5F_info" display="none">
</g>
<g id="Layer_3">
	<path fill="#010101" d="M46.055,8.72l1.293-1.293c0.391-0.391,0.391-1.023,0-1.414l-5-5c-0.391-0.391-1.024-0.391-1.414,0
		l-1.293,1.293l-1.293-1.293c-0.391-0.391-1.024-0.391-1.414,0s-0.391,1.023,0,1.414l1.293,1.293l-1.586,1.586l-1.293-1.293
		c-0.391-0.391-1.024-0.391-1.414,0c-0.391,0.391-0.391,1.023,0,1.414l1.293,1.293l-2.293,2.293c-0.391,0.391-0.391,1.023,0,1.414
		l0.293,0.293l-6.722,6.722c-1.686-1.009-3.51-1.538-5.321-1.538c-4.161,0-7.466,2.686-8.36,6.65
		c-5.421-0.813-9.759,1.407-11.596,5.842c-1.984,4.79-0.495,10.83,3.706,15.031C7.84,46.333,11.672,48,15.449,48
		c3.402,0,6.446-1.352,8.351-3.71c1.311-1.623,2.666-4.425,2.007-8.755c2.635-0.603,4.789-2.312,5.881-4.718
		c1.256-2.769,0.961-6.065-0.769-8.961l6.722-6.723l0.293,0.293c0.391,0.391,1.023,0.391,1.414,0l2.293-2.293l1.293,1.293
		c0.195,0.195,0.451,0.293,0.707,0.293c0.256,0,0.512-0.098,0.707-0.293c0.391-0.391,0.391-1.023,0-1.414l-1.293-1.293l1.586-1.586
		l1.293,1.293c0.195,0.195,0.451,0.293,0.707,0.293c0.256,0,0.512-0.098,0.707-0.293c0.391-0.391,0.391-1.023,0-1.414L46.055,8.72z
		 M13.419,42.014c-0.195,0.195-0.451,0.293-0.707,0.293c-0.256,0-0.512-0.098-0.707-0.293l-5.657-5.657
		c-0.391-0.391-0.391-1.023,0-1.414c0.391-0.391,1.023-0.391,1.414,0l5.657,5.657C13.809,40.99,13.809,41.623,13.419,42.014z
		 M24.733,30.7c-0.944,0.944-2.2,1.464-3.535,1.464c-1.335,0-2.59-0.52-3.535-1.464c-1.95-1.949-1.95-5.122,0-7.071
		c0.945-0.944,2.2-1.464,3.535-1.464c1.335,0,2.591,0.52,3.535,1.464c0.945,0.944,1.465,2.2,1.465,3.536
		C26.198,28.5,25.678,29.756,24.733,30.7z"/>
</g>
</svg>
