<?xml version="1.0" encoding="utf-8"?>
<!-- Generator: Adobe Illustrator 17.0.0, SVG Export Plug-In . SVG Version: 6.00 Build 0)  -->
<!DOCTYPE svg PUBLIC "-//W3C//DTD SVG 1.1//EN" "http://www.w3.org/Graphics/SVG/1.1/DTD/svg11.dtd">
<svg version="1.1" xmlns="http://www.w3.org/2000/svg" xmlns:xlink="http://www.w3.org/1999/xlink" x="0px" y="0px" width="48px"
	 height="48px" viewBox="0 0 48 48" enable-background="new 0 0 48 48" xml:space="preserve">
<g id="nyt_x5F_exporter_x5F_info" display="none">
</g>
<g id="Layer_3">
	<g>
		<path fill="#010101" d="M24.94,0c-5.728,0-10.442,4.402-10.949,10H35.89C35.382,4.402,30.668,0,24.94,0z"/>
		<path fill="#010101" d="M18.985,20.235l1.696,19.838c0.164,1.884,1.5,3.365,3.258,3.791V47c0,0.553,0.448,1,1,1s1-0.447,1-1
			v-3.123c1.753-0.408,3.09-1.88,3.254-3.756l1.701-19.886c2.766-1.79,4.682-4.782,4.995-8.235H13.991
			C14.304,15.453,16.219,18.445,18.985,20.235z M23.939,27c0-0.553,0.448-1,1-1s1,0.447,1,1v4c0,0.553-0.448,1-1,1s-1-0.447-1-1V27z
			"/>
	</g>
</g>
</svg>
