<?xml version="1.0" encoding="utf-8"?>
<!-- Generator: Adobe Illustrator 17.0.0, SVG Export Plug-In . SVG Version: 6.00 Build 0)  -->
<!DOCTYPE svg PUBLIC "-//W3C//DTD SVG 1.1//EN" "http://www.w3.org/Graphics/SVG/1.1/DTD/svg11.dtd">
<svg version="1.1" xmlns="http://www.w3.org/2000/svg" xmlns:xlink="http://www.w3.org/1999/xlink" x="0px" y="0px" width="48px"
	 height="48px" viewBox="0 0 48 48" enable-background="new 0 0 48 48" xml:space="preserve">
<g id="nyt_x5F_exporter_x5F_info" display="none">
</g>
<g id="Layer_3">
	<g>
		<circle fill="#010101" cx="24.939" cy="27" r="3"/>
		<path fill="#010101" d="M32.939,14h5v-2h-5c-0.552,0-1-0.447-1-1c0-0.553,0.448-1,1-1h4.949C37.381,4.402,32.667,0,26.939,0h-6
			C15.211,0,10.497,4.402,9.99,10h12.949c0.552,0,1,0.447,1,1c0,0.553-0.448,1-1,1h-13v2h13c0.552,0,1,0.447,1,1
			c0,0.553-0.448,1-1,1h-13v2h13c0.552,0,1,0.447,1,1c0,0.553-0.448,1-1,1h-13v5c0,6.065,4.935,11,11,11h3v2.059
			c-4.493,0.5-8,4.317-8,8.941c0,0.553,0.448,1,1,1h16c0.007,0,0.014,0,0.02,0c0.552,0,1-0.447,1-1c0-0.072-0.008-0.144-0.022-0.212
			c-0.105-4.529-3.573-8.237-7.998-8.729V36h1c6.065,0,11-4.935,11-11v-5h-5c-0.552,0-1-0.447-1-1c0-0.553,0.448-1,1-1h5v-2h-5
			c-0.552,0-1-0.447-1-1C31.939,14.447,32.387,14,32.939,14z M24.939,32c-2.757,0-5-2.243-5-5c0-2.757,2.243-5,5-5s5,2.243,5,5
			C29.939,29.757,27.696,32,24.939,32z"/>
	</g>
</g>
</svg>
