<?xml version="1.0" encoding="utf-8"?>
<!-- Generator: Adobe Illustrator 17.0.0, SVG Export Plug-In . SVG Version: 6.00 Build 0)  -->
<!DOCTYPE svg PUBLIC "-//W3C//DTD SVG 1.1//EN" "http://www.w3.org/Graphics/SVG/1.1/DTD/svg11.dtd">
<svg version="1.1" id="Layer_2" xmlns="http://www.w3.org/2000/svg" xmlns:xlink="http://www.w3.org/1999/xlink" x="0px" y="0px"
	 width="48px" height="48px" viewBox="0 0 48 48" enable-background="new 0 0 48 48" xml:space="preserve">
<g>
	<path fill="#010101" d="M39,9H9c-4.962,0-9,4.037-9,9v14c0,4.963,4.038,9,9,9h30c4.962,0,9-4.037,9-9V18C48,13.037,43.962,9,39,9z
		 M36,25c0,0.379-0.214,0.725-0.553,0.895l-18,9C17.306,34.965,17.153,35,17,35c-0.183,0-0.365-0.05-0.526-0.149
		C16.18,34.668,16,34.347,16,34V16c0-0.347,0.18-0.668,0.474-0.851c0.295-0.183,0.663-0.198,0.973-0.044l18,9
		C35.786,24.275,36,24.621,36,25z"/>
</g>
</svg>
