<?xml version="1.0" encoding="utf-8"?>
<!-- Generator: Adobe Illustrator 17.0.0, SVG Export Plug-In . SVG Version: 6.00 Build 0)  -->
<!DOCTYPE svg PUBLIC "-//W3C//DTD SVG 1.1//EN" "http://www.w3.org/Graphics/SVG/1.1/DTD/svg11.dtd">
<svg version="1.1" xmlns="http://www.w3.org/2000/svg" xmlns:xlink="http://www.w3.org/1999/xlink" x="0px" y="0px" width="48px"
	 height="48px" viewBox="0 0 48 48" enable-background="new 0 0 48 48" xml:space="preserve">
<g id="nyt_x5F_exporter_x5F_info" display="none">
</g>
<g id="Layer_3">
	<path fill="#010101" d="M30.494,12.168C28.005,10.509,27.941,8.095,27.939,8V7h-2v27h-5c-3.86,0-7,3.141-7,7c0,3.859,3.14,7,7,7
		c3.729,0,7-3.271,7-7v-4v-3V12.605c0.399,0.427,0.871,0.844,1.445,1.227c8.323,5.549,5.46,12.986,4.237,16.163
		c-0.1,0.259-0.186,0.483-0.244,0.648l-1.146,3c-0.197,0.517,0.061,1.095,0.577,1.292C32.927,34.98,33.047,35,33.166,35
		c0.402,0,0.782-0.244,0.934-0.643l1.155-3.024c0.061-0.173,0.142-0.381,0.233-0.619C36.641,27.719,40.149,18.605,30.494,12.168z"/>
</g>
</svg>
