<?xml version="1.0" encoding="utf-8"?>
<!-- Generator: Adobe Illustrator 17.0.0, SVG Export Plug-In . SVG Version: 6.00 Build 0)  -->
<!DOCTYPE svg PUBLIC "-//W3C//DTD SVG 1.1//EN" "http://www.w3.org/Graphics/SVG/1.1/DTD/svg11.dtd">
<svg version="1.1" id="Layer_2" xmlns="http://www.w3.org/2000/svg" xmlns:xlink="http://www.w3.org/1999/xlink" x="0px" y="0px"
	 width="48px" height="48px" viewBox="0 0 48 48" enable-background="new 0 0 48 48" xml:space="preserve">
<g>
	<path fill="#010101" d="M16,33c0,2.479,1.631,3,3,3c2.586,0,3-0.237,3-1v-4v-1h-3C17.631,30,16,30.521,16,33z"/>
	<path fill="#010101" d="M28,29c0,2.479,1.631,3,3,3c2.586,0,3-0.237,3-1v-5h-3C29.631,26,28,26.521,28,29z"/>
	<path fill="#010101" d="M47,4H8v42h39c0.552,0,1-0.447,1-1V5C48,4.447,47.552,4,47,4z M36,25v1v5c0,3-3.009,3-5,3
		c-2.417,0-5-1.313-5-5s2.583-5,5-5h3V12.868l-10,6.667V29v2v4c0,3-3.009,3-5,3c-2.417,0-5-1.313-5-5s2.583-5,5-5h3v-9
		c0-0.334,0.167-0.646,0.445-0.832l12-8c0.307-0.205,0.702-0.224,1.026-0.05C35.797,10.292,36,10.631,36,11V25z"/>
	<path fill="#010101" d="M0,5v40c0,0.553,0.448,1,1,1h5V4H1C0.448,4,0,4.447,0,5z"/>
</g>
</svg>
