<?xml version="1.0" encoding="utf-8"?>
<!-- Generator: Adobe Illustrator 17.0.0, SVG Export Plug-In . SVG Version: 6.00 Build 0)  -->
<!DOCTYPE svg PUBLIC "-//W3C//DTD SVG 1.1//EN" "http://www.w3.org/Graphics/SVG/1.1/DTD/svg11.dtd">
<svg version="1.1" id="Layer_2" xmlns="http://www.w3.org/2000/svg" xmlns:xlink="http://www.w3.org/1999/xlink" x="0px" y="0px"
	 width="48px" height="48px" viewBox="0 0 48 48" enable-background="new 0 0 48 48" xml:space="preserve">
<path fill="#010101" d="M24,0C10.767,0,0,10.767,0,24s10.767,24,24,24c13.233,0,24-10.767,24-24S37.233,0,24,0z M14,15
	c0-0.394,0.232-0.753,0.593-0.913c0.36-0.162,0.782-0.095,1.076,0.17l10,9C25.88,23.446,26,23.717,26,24
	c0,0.283-0.12,0.554-0.331,0.743l-10,9C15.481,33.912,15.242,34,15,34c-0.138,0-0.276-0.028-0.407-0.087
	C14.232,33.753,14,33.395,14,33V15z M34,33c0,0.553-0.448,1-1,1h-4c-0.552,0-1-0.447-1-1V15c0-0.553,0.448-1,1-1h4
	c0.552,0,1,0.447,1,1V33z"/>
</svg>
