<?xml version="1.0" encoding="utf-8"?>
<!-- Generator: Adobe Illustrator 17.0.0, SVG Export Plug-In . SVG Version: 6.00 Build 0)  -->
<!DOCTYPE svg PUBLIC "-//W3C//DTD SVG 1.1//EN" "http://www.w3.org/Graphics/SVG/1.1/DTD/svg11.dtd">
<svg version="1.1" id="Layer_2" xmlns="http://www.w3.org/2000/svg" xmlns:xlink="http://www.w3.org/1999/xlink" x="0px" y="0px"
	 width="48px" height="48px" viewBox="0 0 48 48" enable-background="new 0 0 48 48" xml:space="preserve">
<g>
	<path fill="#010101" d="M14,33c0,2.479,1.631,3,3,3c2.586,0,3-0.237,3-1v-4v-1h-3C15.631,30,14,30.521,14,33z"/>
	<path fill="#010101" d="M25,29c0,2.479,1.631,3,3,3c1.398,0,4,0,4-1v-5h-4C26.631,26,25,26.521,25,29z"/>
	<path fill="#010101" d="M41,4H7C6.448,4,6,4.447,6,5v38c0,0.553,0.448,1,1,1h34c0.552,0,1-0.447,1-1V5C42,4.447,41.552,4,41,4z
		 M34,25v1v5c0,3-3.903,3-6,3c-2.417,0-5-1.313-5-5s2.583-5,5-5h4V12.868l-10,6.667V29v2v4c0,3-3.009,3-5,3c-2.417,0-5-1.313-5-5
		s2.583-5,5-5h3v-9c0-0.334,0.167-0.646,0.445-0.832l12-8c0.307-0.205,0.701-0.224,1.026-0.05C33.797,10.292,34,10.631,34,11V25z"/>
	<path fill="#010101" d="M3,8H1C0.448,8,0,8.447,0,9v30c0,0.553,0.448,1,1,1h2c0.552,0,1-0.447,1-1V9C4,8.447,3.552,8,3,8z"/>
	<path fill="#010101" d="M47,8h-2c-0.552,0-1,0.447-1,1v30c0,0.553,0.448,1,1,1h2c0.552,0,1-0.447,1-1V9C48,8.447,47.552,8,47,8z"/>
</g>
</svg>
