<?xml version="1.0" encoding="utf-8"?>
<!-- Generator: Adobe Illustrator 17.0.0, SVG Export Plug-In . SVG Version: 6.00 Build 0)  -->
<!DOCTYPE svg PUBLIC "-//W3C//DTD SVG 1.1//EN" "http://www.w3.org/Graphics/SVG/1.1/DTD/svg11.dtd">
<svg version="1.1" xmlns="http://www.w3.org/2000/svg" xmlns:xlink="http://www.w3.org/1999/xlink" x="0px" y="0px" width="48px"
	 height="48px" viewBox="0 0 48 48" enable-background="new 0 0 48 48" xml:space="preserve">
<g id="nyt_x5F_exporter_x5F_info" display="none">
</g>
<g id="Layer_3">
	<g>
		<path fill="#010101" d="M45,10h-3v19c0,0.553-0.448,1-1,1h-1v12h5c0.552,0,1-0.447,1-1V11C46,10.447,45.552,10,45,10z"/>
		<path fill="#010101" d="M8,29V10H5c-0.552,0-1,0.447-1,1v30c0,0.553,0.448,1,1,1h5V30H9C8.448,30,8,29.553,8,29z"/>
		<path fill="#010101" d="M17,29V10h-3v19c0,0.553-0.448,1-1,1h-1v12h7V30h-1C17.448,30,17,29.553,17,29z"/>
		<path fill="#010101" d="M27,29V10h-4v19c0,0.553-0.448,1-1,1h-1v12h8V30h-1C27.448,30,27,29.553,27,29z"/>
		<path fill="#010101" d="M36,29V10h-3v19c0,0.553-0.448,1-1,1h-1v12h7V30h-1C36.448,30,36,29.553,36,29z"/>
	</g>
</g>
</svg>
