<?xml version="1.0" encoding="utf-8"?>
<!-- Generator: Adobe Illustrator 17.0.0, SVG Export Plug-In . SVG Version: 6.00 Build 0)  -->
<!DOCTYPE svg PUBLIC "-//W3C//DTD SVG 1.1//EN" "http://www.w3.org/Graphics/SVG/1.1/DTD/svg11.dtd">
<svg version="1.1" xmlns="http://www.w3.org/2000/svg" xmlns:xlink="http://www.w3.org/1999/xlink" x="0px" y="0px" width="48px"
	 height="48px" viewBox="0 0 48 48" enable-background="new 0 0 48 48" xml:space="preserve">
<g id="nyt_x5F_exporter_x5F_info" display="none">
</g>
<g id="Layer_3">
	<g>
		<path fill="#010101" d="M41.197,5.752c-2.011-1.341-2.171-3.206-2.183-3.592V2c0-0.039-0.009-0.075-0.012-0.113
			c-0.004-0.051-0.006-0.103-0.015-0.153c-0.009-0.048-0.023-0.093-0.036-0.139c-0.014-0.049-0.026-0.097-0.045-0.144
			c-0.018-0.044-0.04-0.085-0.061-0.128c-0.022-0.044-0.044-0.088-0.07-0.13c-0.025-0.04-0.055-0.076-0.084-0.113
			c-0.03-0.039-0.059-0.077-0.093-0.113c-0.033-0.034-0.068-0.064-0.104-0.095c-0.037-0.032-0.073-0.065-0.113-0.093
			c-0.039-0.028-0.08-0.05-0.122-0.074c-0.042-0.025-0.084-0.05-0.129-0.07c-0.045-0.02-0.092-0.035-0.139-0.051
			c-0.046-0.015-0.091-0.032-0.139-0.043c-0.05-0.012-0.102-0.017-0.154-0.023c-0.037-0.005-0.072-0.015-0.11-0.017
			c-0.011,0-0.021,0.002-0.032,0.002C37.542,0.504,37.529,0.5,37.514,0.5c-0.584,0-1.084,0.337-1.332,0.824
			c-0.007,0.014-0.015,0.027-0.022,0.041c-0.028,0.06-0.05,0.124-0.071,0.188c-0.011,0.034-0.023,0.068-0.032,0.103
			c-0.013,0.054-0.019,0.11-0.025,0.166c-0.004,0.035-0.014,0.068-0.016,0.104c-0.001,0.012-0.002,0.051-0.002,0.103V32.5h-4.649
			c-4.136,0-7.5,3.364-7.5,7.5c0,4.136,3.364,7.5,7.5,7.5c4.003,0,7.649-3.575,7.649-7.5v-4v-2V7.868
			c0.166,0.129,0.334,0.257,0.519,0.38c7.988,5.326,5.226,12.503,4.047,15.567c-0.101,0.264-0.189,0.493-0.244,0.649l-1.147,3
			c-0.295,0.774,0.092,1.641,0.866,1.937c0.176,0.067,0.358,0.099,0.535,0.099c0.604,0,1.173-0.367,1.402-0.965l1.159-3.035
			c0.06-0.17,0.139-0.373,0.229-0.606C47.568,21.806,51.183,12.411,41.197,5.752z M36.014,36v4c0,2.038-2.074,4.5-4.649,4.5
			c-2.482,0-4.5-2.019-4.5-4.5c0-2.481,2.018-4.5,4.5-4.5h4.649V36z"/>
		<path fill="#010101" d="M2,8h22.939c1.104,0,2-0.895,2-2c0-1.104-0.896-2-2-2H2C0.895,4,0,4.896,0,6C0,7.105,0.895,8,2,8z"/>
		<path fill="#010101" d="M2,14.6h22.939c1.104,0,2-0.896,2-2s-0.896-2-2-2H2c-1.105,0-2,0.896-2,2S0.895,14.6,2,14.6z"/>
		<path fill="#010101" d="M2,21.2h22.939c1.104,0,2-0.896,2-2s-0.896-2-2-2H2c-1.105,0-2,0.896-2,2S0.895,21.2,2,21.2z"/>
		<path fill="#010101" d="M2,27.8h22.939c1.104,0,2-0.896,2-2s-0.896-2-2-2H2c-1.105,0-2,0.896-2,2S0.895,27.8,2,27.8z"/>
		<path fill="#010101" d="M20.939,30.4H2c-1.105,0-2,0.896-2,2c0,1.104,0.895,2,2,2h18.939c1.104,0,2-0.896,2-2
			C22.939,31.296,22.044,30.4,20.939,30.4z"/>
		<path fill="#010101" d="M14.939,37H2c-1.105,0-2,0.896-2,2c0,1.105,0.895,2,2,2h12.939c1.104,0,2-0.895,2-2
			C16.939,37.896,16.044,37,14.939,37z"/>
	</g>
</g>
</svg>
