<?xml version="1.0" encoding="utf-8"?>
<!-- Generator: Adobe Illustrator 17.0.0, SVG Export Plug-In . SVG Version: 6.00 Build 0)  -->
<!DOCTYPE svg PUBLIC "-//W3C//DTD SVG 1.1//EN" "http://www.w3.org/Graphics/SVG/1.1/DTD/svg11.dtd">
<svg version="1.1" id="Layer_2" xmlns="http://www.w3.org/2000/svg" xmlns:xlink="http://www.w3.org/1999/xlink" x="0px" y="0px"
	 width="48px" height="48px" viewBox="0 0 48 48" enable-background="new 0 0 48 48" xml:space="preserve">
<path fill="#010101" d="M24,48c13.233,0,24-10.767,24-24S37.233,0,24,0C10.767,0,0,10.767,0,24S10.767,48,24,48z M16,15
	c0-0.347,0.18-0.668,0.474-0.851c0.295-0.183,0.663-0.198,0.973-0.044l18,9C35.786,23.275,36,23.621,36,24
	c0,0.379-0.214,0.725-0.553,0.895l-18,9C17.306,33.965,17.153,34,17,34c-0.183,0-0.365-0.05-0.526-0.149
	C16.18,33.668,16,33.347,16,33V15z"/>
</svg>
