<?xml version="1.0" encoding="utf-8"?>
<!-- Generator: Adobe Illustrator 17.0.0, SVG Export Plug-In . SVG Version: 6.00 Build 0)  -->
<!DOCTYPE svg PUBLIC "-//W3C//DTD SVG 1.1//EN" "http://www.w3.org/Graphics/SVG/1.1/DTD/svg11.dtd">
<svg version="1.1" id="Layer_2" xmlns="http://www.w3.org/2000/svg" xmlns:xlink="http://www.w3.org/1999/xlink" x="0px" y="0px"
	 width="48px" height="48px" viewBox="0 0 48 48" enable-background="new 0 0 48 48" xml:space="preserve">
<path fill="#010101" d="M24,48c13.233,0,24-10.767,24-24C48,10.767,37.233,0,24,0C10.767,0,0,10.767,0,24C0,37.233,10.767,48,24,48z
	 M34,33c0,0.395-0.232,0.753-0.593,0.913C33.276,33.972,33.138,34,33,34c-0.242,0-0.481-0.088-0.669-0.257l-10-9
	C22.12,24.554,22,24.283,22,24c0-0.283,0.12-0.554,0.331-0.743l10-9c0.294-0.265,0.717-0.331,1.076-0.17
	C33.768,14.247,34,14.606,34,15V33z M14,15c0-0.553,0.448-1,1-1h4c0.552,0,1,0.447,1,1v18c0,0.553-0.448,1-1,1h-4
	c-0.552,0-1-0.447-1-1V15z"/>
</svg>
