<?xml version="1.0" encoding="utf-8"?>
<!-- Generator: Adobe Illustrator 17.0.0, SVG Export Plug-In . SVG Version: 6.00 Build 0)  -->
<!DOCTYPE svg PUBLIC "-//W3C//DTD SVG 1.1//EN" "http://www.w3.org/Graphics/SVG/1.1/DTD/svg11.dtd">
<svg version="1.1" xmlns="http://www.w3.org/2000/svg" xmlns:xlink="http://www.w3.org/1999/xlink" x="0px" y="0px" width="48px"
	 height="48px" viewBox="0 0 48 48" enable-background="new 0 0 48 48" xml:space="preserve">
<g id="nyt_x5F_exporter_x5F_info" display="none">
</g>
<g id="Layer_3">
	<g>
		<path fill="#010101" d="M8,32h32c1.103,0,2-0.897,2-2H6C6,31.103,6.897,32,8,32z"/>
		<path fill="#010101" d="M31,38h-3v2h3c0.551,0,1-0.448,1-1C32,38.448,31.551,38,31,38z"/>
		<path fill="#010101" d="M40,22H8c-1.103,0-2,0.898-2,2h36C42,22.898,41.103,22,40,22z"/>
		<rect x="6" y="26" fill="#010101" width="36" height="2"/>
		<path fill="#010101" d="M16,39c0,0.552,0.449,1,1,1h9v-2h-9C16.449,38,16,38.448,16,39z"/>
		<path fill="#010101" d="M43,16H9.236L37.447,1.895c0.494-0.247,0.694-0.848,0.447-1.342c-0.247-0.493-0.848-0.693-1.342-0.447
			L4.704,16.03C2.087,16.187,0,18.345,0,21v20c0,2.757,2.243,5,5,5h5v1c0,0.553,0.448,1,1,1c0.552,0,1-0.447,1-1v-1h24v1
			c0,0.553,0.448,1,1,1c0.552,0,1-0.447,1-1v-1h5c2.757,0,5-2.243,5-5V21C48,18.243,45.757,16,43,16z M9,42c-1.654,0-3-1.346-3-3
			c0-1.654,1.346-3,3-3c1.654,0,3,1.346,3,3C12,40.654,10.654,42,9,42z M31,42H17c-1.654,0-3-1.346-3-3c0-1.654,1.346-3,3-3h14
			c1.654,0,3,1.346,3,3C34,40.654,32.654,42,31,42z M39,42c-1.654,0-3-1.346-3-3c0-1.654,1.346-3,3-3c1.654,0,3,1.346,3,3
			C42,40.654,40.654,42,39,42z M44,30c0,2.206-1.794,4-4,4H8c-2.206,0-4-1.794-4-4v-6c0-2.206,1.794-4,4-4h32c2.206,0,4,1.794,4,4
			V30z"/>
	</g>
</g>
</svg>
