<?xml version="1.0" encoding="utf-8"?>
<!-- Generator: Adobe Illustrator 17.0.0, SVG Export Plug-In . SVG Version: 6.00 Build 0)  -->
<!DOCTYPE svg PUBLIC "-//W3C//DTD SVG 1.1//EN" "http://www.w3.org/Graphics/SVG/1.1/DTD/svg11.dtd">
<svg version="1.1" xmlns="http://www.w3.org/2000/svg" xmlns:xlink="http://www.w3.org/1999/xlink" x="0px" y="0px" width="48px"
	 height="48px" viewBox="0 0 48 48" enable-background="new 0 0 48 48" xml:space="preserve">
<g id="nyt_x5F_exporter_x5F_info" display="none">
</g>
<g id="Layer_3">
	<g>
		<path fill="#010101" d="M44,23.522V21.5c0-1.722-1.692-3.115-4-3.431V13c0-1.654-1.346-3-3-3H11c-1.654,0-3,1.346-3,3v5.069
			c-2.309,0.316-4,1.709-4,3.431v2.022C1.59,25.138,0,27.886,0,31c0,4.963,4.038,9,9,9h30c4.962,0,9-4.037,9-9
			C48,27.886,46.41,25.138,44,23.522z M10,13c0-0.552,0.449-1,1-1h26c0.551,0,1,0.448,1,1v5H10V13z M9,38c-3.86,0-7-3.141-7-7
			c0-3.859,3.14-7,7-7c3.86,0,7,3.141,7,7C16,34.859,12.86,38,9,38z M27,30h-6c-0.552,0-1-0.447-1-1c0-0.553,0.448-1,1-1h6
			c0.552,0,1,0.447,1,1C28,29.553,27.552,30,27,30z M31.707,20.707l-3,3C28.52,23.895,28.265,24,28,24h-8
			c-0.265,0-0.52-0.105-0.707-0.293l-3-3c-0.286-0.286-0.372-0.716-0.217-1.09C16.231,19.243,16.596,19,17,19h14
			c0.404,0,0.769,0.243,0.924,0.617C32.079,19.991,31.993,20.421,31.707,20.707z M39,38c-3.86,0-7-3.141-7-7c0-3.859,3.14-7,7-7
			s7,3.141,7,7C46,34.859,42.86,38,39,38z"/>
		<circle fill="#010101" cx="39" cy="31" r="3"/>
		<circle fill="#010101" cx="9" cy="31" r="3"/>
	</g>
</g>
</svg>
