<?xml version="1.0" encoding="utf-8"?>
<!-- Generator: Adobe Illustrator 17.1.0, SVG Export Plug-In . SVG Version: 6.00 Build 0)  -->
<!DOCTYPE svg PUBLIC "-//W3C//DTD SVG 1.0//EN" "http://www.w3.org/TR/2001/REC-SVG-20010904/DTD/svg10.dtd">
<svg version="1.0" id="Layer_1" xmlns="http://www.w3.org/2000/svg" xmlns:xlink="http://www.w3.org/1999/xlink" x="0px" y="0px"
	 width="48px" height="48px" viewBox="0 0 48 48" enable-background="new 0 0 48 48" xml:space="preserve">
<path d="M45.207,24.293l-15-15c-0.287-0.287-0.716-0.374-1.09-0.217C28.744,9.231,28.5,9.596,28.5,10v19c0,1.103-0.897,2-2,2
	c-1.103,0-2-0.897-2-2v-3h-3c-0.552,0-1-0.447-1-1s0.448-1,1-1h3v-2h-3c-0.552,0-1-0.447-1-1s0.448-1,1-1h3v-2h-3
	c-0.552,0-1-0.447-1-1s0.448-1,1-1h3v-3c0-3.377-2.113-6.683-5.95-9.311C15.226,1.414,10.992,0,7.5,0h-4c-0.552,0-1,0.447-1,1
	s0.448,1,1,1h4c2.757,0,5,2.243,5,5v28c0,6.925,7.009,13,15,13c7.991,0,15-6.075,15-13v-7c0-1.103,0.897-2,2-2
	c0.404,0,0.769-0.243,0.924-0.617C45.579,25.009,45.493,24.579,45.207,24.293z"/>
</svg>
