<?xml version="1.0" encoding="utf-8"?>
<!-- Generator: Adobe Illustrator 17.0.0, SVG Export Plug-In . SVG Version: 6.00 Build 0)  -->
<!DOCTYPE svg PUBLIC "-//W3C//DTD SVG 1.1//EN" "http://www.w3.org/Graphics/SVG/1.1/DTD/svg11.dtd">
<svg version="1.1" xmlns="http://www.w3.org/2000/svg" xmlns:xlink="http://www.w3.org/1999/xlink" x="0px" y="0px" width="48px"
	 height="48px" viewBox="0 0 48 48" enable-background="new 0 0 48 48" xml:space="preserve">
<g id="nyt_x5F_exporter_x5F_info" display="none">
</g>
<g id="Layer_3">
	<g>
		<path fill="#010101" d="M43.133,34.71c1.839-3.286,2.808-6.973,2.808-10.71c0-3.738-0.968-7.424-2.808-10.709l3.049-3.048
			C47.315,9.109,47.939,7.603,47.939,6c0-1.602-0.625-3.109-1.758-4.242C45.048,0.624,43.541,0,41.939,0
			c-1.603,0-3.109,0.625-4.242,1.758l-3.049,3.049C31.365,2.968,27.679,2,23.94,2c-3.741,0-7.427,0.968-10.709,2.807l-3.049-3.049
			C9.049,0.625,7.542,0,5.94,0C4.337,0,2.83,0.624,1.697,1.758C0.564,2.891-0.061,4.398-0.061,6c0,1.603,0.624,3.109,1.758,4.243
			l3.048,3.048C2.908,16.573,1.94,20.259,1.94,24c0,3.741,0.968,7.427,2.805,10.71l-3.048,3.048c-2.339,2.34-2.339,6.146,0,8.485
			C2.83,47.376,4.337,48,5.939,48s3.109-0.624,4.242-1.757l3.05-3.049C16.512,45.032,20.198,46,23.94,46
			c3.74,0,7.425-0.968,10.708-2.806l3.049,3.049C38.83,47.376,40.337,48,41.939,48s3.109-0.624,4.242-1.757
			c2.339-2.34,2.339-6.146,0-8.485L43.133,34.71z M41.94,4c1.104,0,2,0.895,2,2s-0.896,2-2,2c-1.106,0-2-0.895-2-2S40.834,4,41.94,4
			z M3.94,6c0-1.104,0.894-2,2-2c1.104,0,2,0.895,2,2s-0.896,2-2,2C4.834,8,3.94,7.104,3.94,6z M5.94,44c-1.106,0-2-0.896-2-2
			s0.894-2,2-2c1.104,0,2,0.896,2,2S7.045,44,5.94,44z M23.94,40c-8.822,0-16-7.178-16-16c0-8.822,7.178-16,16-16
			c8.822,0,16,7.178,16,16C39.94,32.822,32.762,40,23.94,40z M41.94,44c-1.106,0-2-0.896-2-2s0.894-2,2-2c1.104,0,2,0.896,2,2
			S43.045,44,41.94,44z"/>
		<path fill="#010101" d="M23.94,19c-2.757,0-5,2.243-5,5c0,2.757,2.243,5,5,5c2.757,0,5-2.243,5-5C28.94,21.243,26.697,19,23.94,19
			z"/>
	</g>
</g>
</svg>
