<?xml version="1.0" encoding="utf-8"?>
<!-- Generator: Adobe Illustrator 17.0.0, SVG Export Plug-In . SVG Version: 6.00 Build 0)  -->
<!DOCTYPE svg PUBLIC "-//W3C//DTD SVG 1.1//EN" "http://www.w3.org/Graphics/SVG/1.1/DTD/svg11.dtd">
<svg version="1.1" xmlns="http://www.w3.org/2000/svg" xmlns:xlink="http://www.w3.org/1999/xlink" x="0px" y="0px" width="48px"
	 height="48px" viewBox="0 0 48 48" enable-background="new 0 0 48 48" xml:space="preserve">
<g id="nyt_x5F_exporter_x5F_info" display="none">
</g>
<g id="Layer_3">
	<g>
		<path fill="#010101" d="M39,0H9C4.038,0,0,4.037,0,9v30c0,4.963,4.038,9,9,9h30c4.962,0,9-4.037,9-9V9C48,4.037,43.962,0,39,0z
			 M7,6c1.104,0,2,0.896,2,2c0,1.105-0.896,2-2,2c-1.106,0-2-0.895-2-2C5,6.896,5.894,6,7,6z M7,43c-1.106,0-2-0.895-2-2
			c0-1.104,0.894-2,2-2c1.104,0,2,0.896,2,2C9,42.105,8.104,43,7,43z M24,41.5c-9.649,0-17.5-7.851-17.5-17.5
			c0-9.649,7.851-17.5,17.5-17.5c9.649,0,17.5,7.851,17.5,17.5C41.5,33.649,33.649,41.5,24,41.5z M41,43c-1.106,0-2-0.895-2-2
			c0-1.104,0.894-2,2-2c1.104,0,2,0.896,2,2C43,42.105,42.104,43,41,43z M41,10c-1.106,0-2-0.895-2-2c0-1.104,0.894-2,2-2
			c1.104,0,2,0.896,2,2C43,9.105,42.104,10,41,10z"/>
		<path fill="#010101" d="M24,10c-7.72,0-14,6.28-14,14c0,7.72,6.28,14,14,14c7.72,0,14-6.28,14-14C38,16.28,31.72,10,24,10z M24,36
			c-6.617,0-12-5.383-12-12c0-6.617,5.383-12,12-12c6.617,0,12,5.383,12,12C36,30.617,30.617,36,24,36z"/>
		<circle fill="#010101" cx="24" cy="24" r="3"/>
	</g>
</g>
</svg>
