<?xml version="1.0" encoding="utf-8"?>
<!-- Generator: Adobe Illustrator 17.0.0, SVG Export Plug-In . SVG Version: 6.00 Build 0)  -->
<!DOCTYPE svg PUBLIC "-//W3C//DTD SVG 1.1//EN" "http://www.w3.org/Graphics/SVG/1.1/DTD/svg11.dtd">
<svg version="1.1" xmlns="http://www.w3.org/2000/svg" xmlns:xlink="http://www.w3.org/1999/xlink" x="0px" y="0px" width="48px"
	 height="48px" viewBox="0 0 48 48" enable-background="new 0 0 48 48" xml:space="preserve">
<g id="nyt_x5F_exporter_x5F_info" display="none">
</g>
<g id="Layer_3">
	<g>
		<path fill="#010101" d="M36.939,0h-26c-2.757,0-5,2.243-5,5v38c0,2.757,2.243,5,5,5h26c2.757,0,5-2.243,5-5V5
			C41.939,2.243,39.696,0,36.939,0z M23.939,6c2.757,0,5,2.243,5,5c0,2.757-2.243,5-5,5s-5-2.243-5-5
			C18.939,8.243,21.182,6,23.939,6z M11.939,4c1.104,0,2,0.896,2,2c0,1.105-0.896,2-2,2c-1.106,0-2-0.895-2-2
			C9.939,4.896,10.833,4,11.939,4z M11.939,44c-1.106,0-2-0.895-2-2c0-1.104,0.894-2,2-2c1.104,0,2,0.896,2,2
			C13.939,43.105,13.044,44,11.939,44z M23.939,40c-5.514,0-10-4.486-10-10c0-5.514,4.486-10,10-10s10,4.486,10,10
			C33.939,35.514,29.453,40,23.939,40z M35.939,44c-1.106,0-2-0.895-2-2c0-1.104,0.894-2,2-2c1.104,0,2,0.896,2,2
			C37.939,43.105,37.044,44,35.939,44z M35.939,8c-1.106,0-2-0.895-2-2c0-1.104,0.894-2,2-2c1.104,0,2,0.896,2,2
			C37.939,7.105,37.044,8,35.939,8z"/>
		<circle fill="#010101" cx="23.939" cy="11" r="3"/>
		<path fill="#010101" d="M23.939,25c-2.757,0-5,2.243-5,5c0,2.757,2.243,5,5,5s5-2.243,5-5C28.939,27.243,26.696,25,23.939,25z"/>
	</g>
</g>
</svg>
