<?xml version="1.0" encoding="utf-8"?>
<!-- Generator: Adobe Illustrator 17.0.0, SVG Export Plug-In . SVG Version: 6.00 Build 0)  -->
<!DOCTYPE svg PUBLIC "-//W3C//DTD SVG 1.1//EN" "http://www.w3.org/Graphics/SVG/1.1/DTD/svg11.dtd">
<svg version="1.1" xmlns="http://www.w3.org/2000/svg" xmlns:xlink="http://www.w3.org/1999/xlink" x="0px" y="0px" width="48px"
	 height="48px" viewBox="0 0 48 48" enable-background="new 0 0 48 48" xml:space="preserve">
<g id="nyt_x5F_exporter_x5F_info" display="none">
</g>
<g id="Layer_3">
	<g>
		<path fill="#010101" d="M39,23h0.816c-0.302-0.847-0.968-1.514-1.816-1.816V22c0,0.553-0.448,1-1,1c-0.552,0-1-0.447-1-1v-0.816
			c-0.847,0.302-1.514,0.969-1.816,1.816H35c0.552,0,1,0.447,1,1c0,0.553-0.448,1-1,1h-0.816c0.302,0.847,0.969,1.514,1.816,1.816
			V26c0-0.553,0.448-1,1-1c0.552,0,1,0.447,1,1v0.816c0.847-0.302,1.514-0.969,1.816-1.816H39c-0.552,0-1-0.447-1-1
			C38,23.447,38.448,23,39,23z"/>
		<path fill="#010101" d="M12,26v0.816c0.847-0.302,1.514-0.969,1.816-1.816H13c-0.552,0-1-0.447-1-1c0-0.553,0.448-1,1-1h0.816
			c-0.302-0.847-0.969-1.514-1.816-1.816V22c0,0.553-0.448,1-1,1c-0.552,0-1-0.447-1-1v-0.816C9.153,21.486,8.486,22.153,8.184,23H9
			c0.552,0,1,0.447,1,1c0,0.553-0.448,1-1,1H8.184c0.302,0.847,0.969,1.514,1.816,1.816V26c0-0.553,0.448-1,1-1
			C11.552,25,12,25.447,12,26z"/>
		<path fill="#010101" d="M44,8H4c-2.206,0-4,1.794-4,4v24c0,2.206,1.794,4,4,4h40c2.206,0,4-1.794,4-4V12C48,9.794,46.206,8,44,8z
			 M6,24c0-2.757,2.243-5,5-5c2.757,0,5,2.243,5,5c0,2.757-2.243,5-5,5C8.243,29,6,26.757,6,24z M39.02,38H39H9
			c-0.425,0-0.803-0.269-0.944-0.669c-0.14-0.4-0.013-0.847,0.319-1.112l5-4C13.553,32.077,13.773,32,14,32h20
			c0.227,0,0.447,0.077,0.624,0.219l4.889,3.911c0.303,0.172,0.507,0.497,0.507,0.87C40.02,37.553,39.572,38,39.02,38z M18,25v-4
			c0-0.553,0.448-1,1-1h10c0.552,0,1,0.447,1,1v4c0,0.553-0.448,1-1,1H19C18.448,26,18,25.553,18,25z M37,29c-2.757,0-5-2.243-5-5
			c0-2.757,2.243-5,5-5c2.757,0,5,2.243,5,5C42,26.757,39.757,29,37,29z M41,14H7c-0.552,0-1-0.447-1-1c0-0.553,0.448-1,1-1h34
			c0.552,0,1,0.447,1,1C42,13.553,41.552,14,41,14z"/>
	</g>
</g>
</svg>
