<?xml version="1.0" encoding="utf-8"?>
<!-- Generator: Adobe Illustrator 17.0.0, SVG Export Plug-In . SVG Version: 6.00 Build 0)  -->
<!DOCTYPE svg PUBLIC "-//W3C//DTD SVG 1.1//EN" "http://www.w3.org/Graphics/SVG/1.1/DTD/svg11.dtd">
<svg version="1.1" xmlns="http://www.w3.org/2000/svg" xmlns:xlink="http://www.w3.org/1999/xlink" x="0px" y="0px" width="48px"
	 height="48px" viewBox="0 0 48 48" enable-background="new 0 0 48 48" xml:space="preserve">
<g id="nyt_x5F_exporter_x5F_info" display="none">
</g>
<g id="Layer_3">
	<path fill="#010101" d="M47.383,11.076c-0.375-0.157-0.804-0.07-1.09,0.217l-6.781,6.781C39.347,18.031,39.178,18,39,18h-9h-2v-3
		c0-1.104-0.896-2-2-2c-1.105,0-2,0.896-2,2v3h-3v-3c0-1.104-0.896-2-2-2c-1.105,0-2,0.896-2,2v3h-2v-3c0-1.104-0.896-2-2-2
		c-1.105,0-2,0.896-2,2v3H4c0-1.104-0.896-2-2-2c-1.105,0-2,0.896-2,2v4c0,1.105,0.895,2,2,2c1.104,0,2-0.895,2-2h2.082
		C5.398,23.178,5,24.542,5,26c0,3.72,2.555,6.845,6,7.737V36c0,1.105,0.895,2,2,2c1.104,0,2-0.895,2-2v-2h2v2c0,1.105,0.895,2,2,2
		c1.104,0,2-0.895,2-2v-2h3v2c0,1.105,0.895,2,2,2c1.104,0,2-0.895,2-2v-2h2c4.411,0,8-3.589,8-8c0-1.458-0.398-2.822-1.083-4H39
		c0.178,0,0.347-0.031,0.512-0.074l6.781,6.781C46.484,28.898,46.74,29,47,29c0.129,0,0.259-0.024,0.383-0.076
		C47.756,28.77,48,28.404,48,28V12C48,11.596,47.756,11.231,47.383,11.076z M11,29.444C9.81,28.75,9,27.474,9,26
		c0-1.474,0.81-2.75,2-3.444V29.444z M17,30h-2v-8h2V30z M24,30h-3v-8h3V30z M30,30h-2v-8h2c2.206,0,4,1.794,4,4
		C34,28.206,32.206,30,30,30z"/>
</g>
</svg>
