<?xml version="1.0" encoding="utf-8"?>
<!-- Generator: Adobe Illustrator 17.0.0, SVG Export Plug-In . SVG Version: 6.00 Build 0)  -->
<!DOCTYPE svg PUBLIC "-//W3C//DTD SVG 1.1//EN" "http://www.w3.org/Graphics/SVG/1.1/DTD/svg11.dtd">
<svg version="1.1" id="Layer_2" xmlns="http://www.w3.org/2000/svg" xmlns:xlink="http://www.w3.org/1999/xlink" x="0px" y="0px"
	 width="48px" height="48px" viewBox="0 0 48 48" enable-background="new 0 0 48 48" xml:space="preserve">
<g>
	<path fill="#010101" d="M4,32h6.344L26,16.344V5c0-0.404-0.244-0.769-0.617-0.924c-0.375-0.157-0.804-0.07-1.09,0.217L10.586,18H4
		c-2.206,0-4,1.794-4,4v6C0,30.206,1.794,32,4,32z"/>
	<path fill="#010101" d="M24.293,45.707C24.484,45.898,24.74,46,25,46c0.129,0,0.259-0.024,0.383-0.076
		C25.756,45.77,26,45.404,26,45V27.656l-9.879,9.879L24.293,45.707z"/>
	<path fill="#010101" d="M32.646,21.01C33.425,22.083,34,23.403,34,25c0,2.964-1.951,5.002-3.587,6.19
		c-0.447,0.325-0.546,0.95-0.222,1.397c0.196,0.27,0.5,0.412,0.81,0.412c0.204,0,0.409-0.062,0.586-0.19
		C34.433,30.743,36,27.97,36,25c0-1.935-0.678-3.784-1.931-5.413L32.646,21.01z"/>
	<path fill="#010101" d="M44.695,3.947c-0.079-0.128-0.17-0.25-0.281-0.361c-0.097-0.097-0.201-0.181-0.311-0.254
		c-0.029-0.019-0.062-0.032-0.092-0.049c-0.083-0.049-0.167-0.098-0.255-0.134c-0.04-0.016-0.082-0.024-0.123-0.037
		c-0.082-0.027-0.164-0.057-0.248-0.073C43.26,3.013,43.131,3,43,3c-0.131,0-0.26,0.013-0.386,0.038
		c-0.08,0.016-0.157,0.044-0.235,0.069c-0.045,0.015-0.092,0.023-0.136,0.041c-0.076,0.031-0.148,0.075-0.221,0.116
		c-0.042,0.024-0.087,0.041-0.127,0.068c-0.075,0.05-0.143,0.113-0.213,0.174c-0.031,0.028-0.067,0.049-0.096,0.079l-40,40
		c-0.679,0.678-0.765,1.727-0.263,2.502c0.075,0.115,0.162,0.225,0.263,0.327c0.01,0.01,0.021,0.016,0.031,0.025
		c0.76,0.727,2.051,0.721,2.797-0.025l40-40C45.083,5.746,45.174,4.718,44.695,3.947z"/>
</g>
</svg>
