<?xml version="1.0" encoding="utf-8"?>
<!-- Generator: Adobe Illustrator 17.0.0, SVG Export Plug-In . SVG Version: 6.00 Build 0)  -->
<!DOCTYPE svg PUBLIC "-//W3C//DTD SVG 1.1//EN" "http://www.w3.org/Graphics/SVG/1.1/DTD/svg11.dtd">
<svg version="1.1" xmlns="http://www.w3.org/2000/svg" xmlns:xlink="http://www.w3.org/1999/xlink" x="0px" y="0px" width="48px"
	 height="48px" viewBox="0 0 48 48" enable-background="new 0 0 48 48" xml:space="preserve">
<g id="nyt_x5F_exporter_x5F_info" display="none">
</g>
<g id="Layer_3">
	<g>
		<path fill="#010101" d="M27,42c0.552,0,1-0.447,1-1V22.291L13.326,36.545C16.859,39.903,21.862,42,27,42z"/>
		<path fill="#010101" d="M6,32h0.524L28,11.138V7c0-0.553-0.448-1-1-1c-7.18,0-14.113,4.082-17.109,10H6c-3.309,0-6,2.691-6,6v4
			C0,29.309,2.691,32,6,32z"/>
		<path fill="#010101" d="M35.112,15.382l-1.545,1.501c0.039,0.019,0.069,0.05,0.111,0.065C36.263,17.825,38,20.66,38,24
			c0,3.34-1.737,6.175-4.322,7.053c-0.523,0.178-0.803,0.746-0.625,1.269C33.195,32.738,33.583,33,34,33
			c0.106,0,0.215-0.017,0.322-0.053C37.718,31.793,40,28.197,40,24C40,20.139,38.066,16.793,35.112,15.382z"/>
		<path fill="#010101" d="M39.652,8.127c0.018-0.027,0.03-0.057,0.046-0.084c0.052-0.085,0.104-0.171,0.142-0.261
			c0.015-0.036,0.022-0.075,0.035-0.111c0.03-0.085,0.062-0.17,0.08-0.257c0.026-0.125,0.041-0.254,0.043-0.385
			c0.002-0.131-0.009-0.261-0.032-0.388c-0.012-0.069-0.037-0.135-0.057-0.202c-0.017-0.057-0.027-0.115-0.049-0.17
			c-0.032-0.081-0.076-0.157-0.119-0.234c-0.021-0.038-0.036-0.078-0.059-0.115c-0.071-0.111-0.154-0.216-0.249-0.314
			c-0.265-0.273-0.591-0.447-0.935-0.536c-0.031-0.008-0.06-0.022-0.091-0.028c-0.051-0.011-0.103-0.01-0.154-0.017
			c-0.079-0.01-0.158-0.023-0.24-0.024c-0.066-0.001-0.132,0.01-0.197,0.016c-0.062,0.006-0.125,0.007-0.185,0.018
			c-0.071,0.013-0.139,0.038-0.209,0.059c-0.054,0.016-0.109,0.027-0.162,0.048c-0.066,0.026-0.128,0.064-0.192,0.097
			c-0.052,0.027-0.106,0.049-0.155,0.081c-0.065,0.042-0.123,0.095-0.184,0.146c-0.041,0.034-0.086,0.062-0.125,0.1l-35,33.999
			c-0.006,0.006-0.01,0.013-0.016,0.019c-0.091,0.09-0.173,0.186-0.243,0.288C1.329,39.9,1.317,39.931,1.3,39.959
			c-0.051,0.084-0.103,0.169-0.141,0.258C1.142,40.257,1.134,40.3,1.12,40.34c-0.028,0.081-0.059,0.162-0.077,0.246
			C1.017,40.711,1.002,40.84,1,40.971c-0.002,0.132,0.009,0.261,0.032,0.388c0.012,0.068,0.037,0.134,0.056,0.2
			c0.017,0.057,0.027,0.116,0.049,0.171c0.032,0.082,0.077,0.16,0.121,0.238c0.02,0.036,0.035,0.076,0.057,0.111
			c0.071,0.111,0.154,0.216,0.249,0.314c0.017,0.017,0.037,0.029,0.055,0.046c0.753,0.715,2.025,0.723,2.773-0.005l35-34
			C39.492,8.339,39.578,8.236,39.652,8.127z"/>
	</g>
</g>
</svg>
