<?xml version="1.0" encoding="utf-8"?>
<!-- Generator: Adobe Illustrator 17.0.0, SVG Export Plug-In . SVG Version: 6.00 Build 0)  -->
<!DOCTYPE svg PUBLIC "-//W3C//DTD SVG 1.1//EN" "http://www.w3.org/Graphics/SVG/1.1/DTD/svg11.dtd">
<svg version="1.1" xmlns="http://www.w3.org/2000/svg" xmlns:xlink="http://www.w3.org/1999/xlink" x="0px" y="0px" width="48px"
	 height="48px" viewBox="0 0 48 48" enable-background="new 0 0 48 48" xml:space="preserve">
<g id="nyt_x5F_exporter_x5F_info" display="none">
</g>
<g id="Layer_3">
	<g>
		<path fill="#010101" d="M47,24H31c-0.552,0-1,0.447-1,1c0,0.553,0.448,1,1,1h16c0.552,0,1-0.447,1-1C48,24.447,47.552,24,47,24z"
			/>
		<path fill="#010101" d="M25.383,4.076c-0.375-0.157-0.804-0.069-1.09,0.217L10.586,18H4c-2.206,0-4,1.794-4,4v6
			c0,2.206,1.794,4,4,4h6.586l13.707,13.707C24.484,45.898,24.74,46,25,46c0.129,0,0.259-0.024,0.383-0.076
			C25.756,45.77,26,45.404,26,45V5C26,4.596,25.756,4.231,25.383,4.076z"/>
	</g>
</g>
</svg>
