<?xml version="1.0" encoding="utf-8"?>
<!-- Generator: Adobe Illustrator 17.0.0, SVG Export Plug-In . SVG Version: 6.00 Build 0)  -->
<!DOCTYPE svg PUBLIC "-//W3C//DTD SVG 1.1//EN" "http://www.w3.org/Graphics/SVG/1.1/DTD/svg11.dtd">
<svg version="1.1" id="Layer_2" xmlns="http://www.w3.org/2000/svg" xmlns:xlink="http://www.w3.org/1999/xlink" x="0px" y="0px"
	 width="48px" height="48px" viewBox="0 0 48 48" enable-background="new 0 0 48 48" xml:space="preserve">
<g>
	<path fill="#010101" d="M27,6C19.348,6,13,9.725,9.888,16H6c-3.309,0-6,2.691-6,6v4c0,3.309,2.691,6,6,6h3.888
		C13,38.275,19.348,42,27,42c0.552,0,1-0.447,1-1V7C28,6.447,27.552,6,27,6z"/>
	<path fill="#010101" d="M47,24H31c-0.552,0-1,0.447-1,1s0.448,1,1,1h16c0.552,0,1-0.447,1-1S47.552,24,47,24z"/>
</g>
</svg>
