<?xml version="1.0" encoding="utf-8"?>
<!-- Generator: Adobe Illustrator 17.0.0, SVG Export Plug-In . SVG Version: 6.00 Build 0)  -->
<!DOCTYPE svg PUBLIC "-//W3C//DTD SVG 1.1//EN" "http://www.w3.org/Graphics/SVG/1.1/DTD/svg11.dtd">
<svg version="1.1" xmlns="http://www.w3.org/2000/svg" xmlns:xlink="http://www.w3.org/1999/xlink" x="0px" y="0px" width="48px"
	 height="48px" viewBox="0 0 48 48" enable-background="new 0 0 48 48" xml:space="preserve">
<g id="nyt_x5F_exporter_x5F_info" display="none">
</g>
<g id="Layer_3">
	<g>
		<path fill="#010101" d="M27,6c-7.181,0-14.114,4.082-17.109,10H6c-3.309,0-6,2.691-6,6v4c0,3.309,2.691,6,6,6h3.891
			C12.886,37.918,19.818,42,27,42c0.552,0,1-0.447,1-1V7C28,6.447,27.552,6,27,6z"/>
		<path fill="#010101" d="M40.534,9.154C40.068,8.86,39.449,9,39.155,9.466c-0.295,0.467-0.156,1.084,0.311,1.38
			C43.496,13.393,46,18.434,46,24c0,5.567-2.504,10.608-6.534,13.154c-0.467,0.295-0.606,0.913-0.311,1.38
			C39.345,38.835,39.669,39,40.001,39c0.183,0,0.367-0.05,0.533-0.154C45.139,35.936,48,30.247,48,24
			C48,17.754,45.139,12.065,40.534,9.154z"/>
		<path fill="#010101" d="M44,24c0-5.117-2.564-9.782-6.532-11.884c-0.49-0.26-1.093-0.072-1.352,0.416
			c-0.258,0.487-0.072,1.093,0.416,1.352C39.853,15.644,42,19.614,42,24c0,4.385-2.147,8.356-5.468,10.116
			c-0.488,0.259-0.674,0.864-0.416,1.352C36.296,35.807,36.643,36,37.001,36c0.158,0,0.318-0.037,0.467-0.116
			C41.436,33.781,44,29.116,44,24z"/>
		<path fill="#010101" d="M40,24c0-4.195-2.282-7.791-5.678-8.946c-0.524-0.182-1.092,0.102-1.269,0.624
			c-0.178,0.523,0.102,1.091,0.625,1.269C36.263,17.826,38,20.661,38,24c0,3.341-1.737,6.176-4.321,7.053
			c-0.523,0.178-0.803,0.746-0.625,1.269C33.194,32.738,33.583,33,34,33c0.106,0,0.215-0.017,0.321-0.053
			C37.718,31.794,40,28.198,40,24z"/>
	</g>
</g>
</svg>
