<?xml version="1.0" encoding="utf-8"?>
<!-- Generator: Adobe Illustrator 17.0.0, SVG Export Plug-In . SVG Version: 6.00 Build 0)  -->
<!DOCTYPE svg PUBLIC "-//W3C//DTD SVG 1.1//EN" "http://www.w3.org/Graphics/SVG/1.1/DTD/svg11.dtd">
<svg version="1.1" xmlns="http://www.w3.org/2000/svg" xmlns:xlink="http://www.w3.org/1999/xlink" x="0px" y="0px" width="48px"
	 height="48px" viewBox="0 0 48 48" enable-background="new 0 0 48 48" xml:space="preserve">
<g id="nyt_x5F_exporter_x5F_info" display="none">
</g>
<g id="Layer_3">
	<g>
		<path fill="#010101" d="M35,16H17c-1.654,0-3,1.346-3,3v1h-3c-0.552,0-1,0.447-1,1v12c0,0.553,0.448,1,1,1h3v11
			c0,1.654,1.346,3,3,3h18c1.654,0,3-1.346,3-3V19C38,17.346,36.654,16,35,16z M14,32h-2v-4h2V32z M14,26h-2v-4h2V26z M33,44H19
			c-0.552,0-1-0.447-1-1c0-0.553,0.448-1,1-1h14c0.552,0,1,0.447,1,1C34,43.553,33.552,44,33,44z M34,39c0,0.553-0.448,1-1,1H19
			c-0.552,0-1-0.447-1-1V21c0-0.553,0.448-1,1-1h14c0.552,0,1,0.447,1,1V39z"/>
		<circle fill="#010101" cx="27" cy="27" r="1"/>
		<circle fill="#010101" cx="27" cy="33" r="1"/>
		<path fill="#010101" d="M24,0C10.767,0,0,10.767,0,24v6c0,0.553,0.448,1,1,1h1v2c0,1.654,1.346,3,3,3c1.654,0,3-1.346,3-3v-6
			c0-1.654-1.346-3-3-3c-1.654,0-3,1.346-3,3v-3C2,11.869,11.869,2,24,2s22,9.869,22,22v3c0-1.654-1.346-3-3-3c-1.654,0-3,1.346-3,3
			v6c0,1.654,1.346,3,3,3c1.654,0,3-1.346,3-3v-2h1c0.552,0,1-0.447,1-1v-6C48,10.767,37.233,0,24,0z"/>
	</g>
</g>
</svg>
