<?xml version="1.0" encoding="utf-8"?>
<!-- Generator: Adobe Illustrator 17.0.0, SVG Export Plug-In . SVG Version: 6.00 Build 0)  -->
<!DOCTYPE svg PUBLIC "-//W3C//DTD SVG 1.1//EN" "http://www.w3.org/Graphics/SVG/1.1/DTD/svg11.dtd">
<svg version="1.1" id="Layer_2" xmlns="http://www.w3.org/2000/svg" xmlns:xlink="http://www.w3.org/1999/xlink" x="0px" y="0px"
	 width="48px" height="48px" viewBox="0 0 48 48" enable-background="new 0 0 48 48" xml:space="preserve">
<path fill="#010101" d="M23,0C12.168,0,4,8.598,4,20c0,14.347,17.663,27.268,18.414,27.811C22.589,47.937,22.795,48,23,48
	c0.205,0,0.411-0.063,0.586-0.189C24.337,47.268,42,34.347,42,20C42,8.598,33.832,0,23,0z M33,20h-9v9c0,0.552-0.447,1-1,1
	s-1-0.448-1-1v-9h-9c-0.553,0-1-0.448-1-1s0.447-1,1-1h9V9c0-0.552,0.447-1,1-1s1,0.448,1,1v9h9c0.553,0,1,0.448,1,1
	S33.553,20,33,20z"/>
</svg>
