<?xml version="1.0" encoding="utf-8"?>
<!-- Generator: Adobe Illustrator 17.0.0, SVG Export Plug-In . SVG Version: 6.00 Build 0)  -->
<!DOCTYPE svg PUBLIC "-//W3C//DTD SVG 1.1//EN" "http://www.w3.org/Graphics/SVG/1.1/DTD/svg11.dtd">
<svg version="1.1" id="Layer_2" xmlns="http://www.w3.org/2000/svg" xmlns:xlink="http://www.w3.org/1999/xlink" x="0px" y="0px"
	 width="48px" height="48px" viewBox="0 0 48 48" enable-background="new 0 0 48 48" xml:space="preserve">
<path fill="#010101" d="M25,0C16.178,0,9,7.178,9,16c0,8.489,14.546,30.613,15.166,31.551C24.351,47.831,24.664,48,25,48
	c0.336,0,0.649-0.169,0.834-0.449C26.454,46.613,41,24.489,41,16C41,7.178,33.822,0,25,0z M33,18h-7v7c0,0.552-0.447,1-1,1
	c-0.553,0-1-0.448-1-1v-7h-7c-0.553,0-1-0.448-1-1c0-0.552,0.447-1,1-1h7V9c0-0.552,0.447-1,1-1c0.553,0,1,0.448,1,1v7h7
	c0.553,0,1,0.448,1,1C34,17.552,33.553,18,33,18z"/>
</svg>
