<?xml version="1.0" encoding="utf-8"?>
<!-- Generator: Adobe Illustrator 17.0.0, SVG Export Plug-In . SVG Version: 6.00 Build 0)  -->
<!DOCTYPE svg PUBLIC "-//W3C//DTD SVG 1.1//EN" "http://www.w3.org/Graphics/SVG/1.1/DTD/svg11.dtd">
<svg version="1.1" id="Layer_2" xmlns="http://www.w3.org/2000/svg" xmlns:xlink="http://www.w3.org/1999/xlink" x="0px" y="0px"
	 width="48px" height="48px" viewBox="0 0 48 48" enable-background="new 0 0 48 48" xml:space="preserve">
<path fill="#010101" d="M24,0C10.767,0,0,10.767,0,24s10.767,24,24,24c13.233,0,24-10.767,24-24S37.233,0,24,0z M34.888,14.462
	l-13,25C21.712,39.798,21.366,40,21,40c-0.078,0-0.158-0.009-0.237-0.028C20.314,39.862,20,39.461,20,39V28H9
	c-0.461,0-0.862-0.315-0.972-0.763c-0.109-0.447,0.102-0.912,0.511-1.124l25-13c0.385-0.201,0.858-0.129,1.168,0.18
	C35.016,13.602,35.089,14.074,34.888,14.462z"/>
</svg>
