<?xml version="1.0" encoding="utf-8"?>
<!-- Generator: Adobe Illustrator 17.0.0, SVG Export Plug-In . SVG Version: 6.00 Build 0)  -->
<!DOCTYPE svg PUBLIC "-//W3C//DTD SVG 1.1//EN" "http://www.w3.org/Graphics/SVG/1.1/DTD/svg11.dtd">
<svg version="1.1" id="Layer_2" xmlns="http://www.w3.org/2000/svg" xmlns:xlink="http://www.w3.org/1999/xlink" x="0px" y="0px"
	 width="48px" height="48px" viewBox="0 0 48 48" enable-background="new 0 0 48 48" xml:space="preserve">
<path fill="#010101" d="M24,0C10.767,0,0,10.767,0,24s10.767,24,24,24s24-10.767,24-24S37.233,0,24,0z M12.381,36.925
	C12.258,36.976,12.128,37,12,37c-0.26,0-0.516-0.102-0.707-0.293c-0.285-0.285-0.371-0.715-0.218-1.088l6.746-16.384l10.943,10.943
	L12.381,36.925z M36.925,12.381l-6.746,16.384L19.236,17.822l16.383-6.747c0.374-0.153,0.803-0.067,1.088,0.218
	C36.992,11.578,37.078,12.008,36.925,12.381z"/>
</svg>
