<?xml version="1.0" encoding="utf-8"?>
<!-- Generator: Adobe Illustrator 17.0.0, SVG Export Plug-In . SVG Version: 6.00 Build 0)  -->
<!DOCTYPE svg PUBLIC "-//W3C//DTD SVG 1.1//EN" "http://www.w3.org/Graphics/SVG/1.1/DTD/svg11.dtd">
<svg version="1.1" id="Layer_2" xmlns="http://www.w3.org/2000/svg" xmlns:xlink="http://www.w3.org/1999/xlink" x="0px" y="0px"
	 width="48px" height="48px" viewBox="0 0 48 48" enable-background="new 0 0 48 48" xml:space="preserve">
<path fill="#010101" d="M25,0C14.168,0,6,8.598,6,20c0,14.347,17.663,27.268,18.414,27.811C24.589,47.937,24.795,48,25,48
	c0.205,0,0.411-0.063,0.586-0.189C26.337,47.268,44,34.347,44,20C44,8.598,35.832,0,25,0z M35.641,15.769l-5.519,4.598l1.848,7.392
	c0.105,0.419-0.071,0.859-0.438,1.089C31.368,28.949,31.184,29,31,29c-0.228,0-0.456-0.078-0.641-0.231L25,24.302l-5.359,4.467
	c-0.333,0.276-0.806,0.309-1.172,0.078c-0.367-0.229-0.544-0.67-0.439-1.089l1.848-7.392l-5.519-4.598
	c-0.323-0.27-0.443-0.713-0.3-1.109C14.203,14.264,14.579,14,15,14h6.795l2.264-6.336C24.2,7.266,24.577,7,25,7
	c0.423,0,0.8,0.266,0.941,0.664L28.205,14H35c0.421,0,0.797,0.264,0.94,0.66C36.084,15.056,35.964,15.499,35.641,15.769z"/>
</svg>
