<?xml version="1.0" encoding="utf-8"?>
<!-- Generator: Adobe Illustrator 17.0.0, SVG Export Plug-In . SVG Version: 6.00 Build 0)  -->
<!DOCTYPE svg PUBLIC "-//W3C//DTD SVG 1.1//EN" "http://www.w3.org/Graphics/SVG/1.1/DTD/svg11.dtd">
<svg version="1.1" id="Layer_2" xmlns="http://www.w3.org/2000/svg" xmlns:xlink="http://www.w3.org/1999/xlink" x="0px" y="0px"
	 width="48px" height="48px" viewBox="0 0 48 48" enable-background="new 0 0 48 48" xml:space="preserve">
<path fill="#010101" d="M22,0C13.178,0,6,7.178,6,16c0,8.489,14.546,30.613,15.166,31.551C21.351,47.831,21.664,48,22,48
	c0.336,0,0.649-0.169,0.834-0.449C23.454,46.613,38,24.489,38,16C38,7.178,30.822,0,22,0z M30.625,13.781l-4.456,3.564l1.779,5.338
	c0.141,0.421-0.013,0.883-0.376,1.137C27.399,23.94,27.199,24,27,24c-0.222,0-0.442-0.073-0.625-0.219L22,20.28l-4.375,3.5
	c-0.348,0.277-0.832,0.293-1.197,0.04c-0.363-0.253-0.517-0.716-0.376-1.137l1.779-5.338l-4.456-3.564
	c-0.331-0.265-0.459-0.711-0.318-1.112C13.197,12.269,13.575,12,14,12h5.323l1.748-4.371C21.224,7.249,21.591,7,22,7
	c0.409,0,0.776,0.249,0.929,0.629L24.677,12H30c0.425,0,0.803,0.269,0.943,0.669C31.084,13.07,30.956,13.516,30.625,13.781z"/>
</svg>
