<?xml version="1.0" encoding="utf-8"?>
<!-- Generator: Adobe Illustrator 17.0.0, SVG Export Plug-In . SVG Version: 6.00 Build 0)  -->
<!DOCTYPE svg PUBLIC "-//W3C//DTD SVG 1.1//EN" "http://www.w3.org/Graphics/SVG/1.1/DTD/svg11.dtd">
<svg version="1.1" id="Layer_2" xmlns="http://www.w3.org/2000/svg" xmlns:xlink="http://www.w3.org/1999/xlink" x="0px" y="0px"
	 width="48px" height="48px" viewBox="0 0 48 48" enable-background="new 0 0 48 48" xml:space="preserve">
<g>
	<path fill="#010101" d="M0.542,0.111C0.209,0.282,0,0.626,0,1v32c0,0.323,0.156,0.626,0.419,0.813L14,43.515V9.057L1.581,0.187
		C1.275-0.031,0.876-0.061,0.542,0.111z"/>
	<path fill="#010101" d="M39,22c1.792,0,3.479,0.44,4.976,1.203C43.989,23.136,44,23.069,44,23V11c0-0.323-0.156-0.626-0.419-0.813
		L30,0.486v26.21C31.992,23.861,35.28,22,39,22z"/>
	<polygon fill="#010101" points="16,43.515 28,34.943 28,0.486 16,9.057 	"/>
	<path fill="#010101" d="M39,24c-4.963,0-9,4.037-9,9c0,0.155,0.019,0.323,0.036,0.489l0.008-0.006
		c0.011,0.111,0.013,0.217,0.03,0.332c0.018,0.116,0.044,0.238,0.069,0.359c0.034,0.163,0.072,0.329,0.117,0.498
		c0.044,0.162,0.089,0.325,0.143,0.493c0.038,0.121,0.083,0.245,0.127,0.368c0.239,0.677,0.552,1.397,0.924,2.146
		c0.067,0.134,0.13,0.267,0.2,0.401c0.083,0.16,0.173,0.323,0.26,0.485c0.133,0.245,0.267,0.49,0.409,0.735
		c0.038,0.067,0.078,0.135,0.117,0.202c1.902,3.253,4.368,6.391,5.388,7.645c0.135,0.165,0.271,0.333,0.405,0.493l0,0
		C38.422,47.869,38.703,48,39,48c0.297,0,0.578-0.132,0.768-0.359c0.128-0.154,0.259-0.315,0.389-0.474
		c1.009-1.24,3.492-4.395,5.404-7.665c0.039-0.067,0.078-0.134,0.116-0.201c0.141-0.246,0.276-0.491,0.409-0.736
		c0.088-0.162,0.177-0.325,0.26-0.485c0.07-0.135,0.133-0.268,0.2-0.401c0.372-0.749,0.684-1.468,0.924-2.146
		c0.043-0.123,0.088-0.247,0.127-0.368c0.054-0.168,0.099-0.331,0.143-0.493c0.045-0.169,0.084-0.335,0.117-0.498
		c0.025-0.121,0.051-0.243,0.069-0.359C47.969,33.533,48,33.258,48,33C48,28.037,43.963,24,39,24z M39,37c-2.206,0-4-1.794-4-4
		s1.794-4,4-4c2.206,0,4,1.794,4,4S41.206,37,39,37z"/>
</g>
</svg>
