<?xml version="1.0" encoding="utf-8"?>
<!-- Generator: Adobe Illustrator 17.0.0, SVG Export Plug-In . SVG Version: 6.00 Build 0)  -->
<!DOCTYPE svg PUBLIC "-//W3C//DTD SVG 1.1//EN" "http://www.w3.org/Graphics/SVG/1.1/DTD/svg11.dtd">
<svg version="1.1" id="Layer_2" xmlns="http://www.w3.org/2000/svg" xmlns:xlink="http://www.w3.org/1999/xlink" x="0px" y="0px"
	 width="48px" height="48px" viewBox="0 0 48 48" enable-background="new 0 0 48 48" xml:space="preserve">
<g>
	<path fill="#010101" d="M26,34c0,1.654-1.346,3-3,3c-1.654,0-3-1.346-3-3V22.865l-4,0.889v24.049l16-3.556V20.198l-6,1.333V34z"/>
	<path fill="#010101" d="M47.274,24.039L34,20.246v24.08l12.726,3.636C46.815,47.987,46.908,48,47,48
		c0.215,0,0.427-0.069,0.602-0.202C47.852,47.61,48,47.314,48,47V25C48,24.554,47.704,24.161,47.274,24.039z"/>
	<path fill="#010101" d="M0.397,20.202C0.147,20.391,0,20.687,0,21v22c0,0.446,0.296,0.839,0.726,0.961L14,47.754v-24.08
		L1.274,20.039C0.975,19.952,0.647,20.013,0.397,20.202z"/>
	<path fill="#010101" d="M20,13.315c0.622,0.297,1.294,0.504,2,0.605V34c0,0.552,0.448,1,1,1c0.552,0,1-0.448,1-1V13.92
		c0.706-0.101,1.378-0.308,2-0.605c2.361-1.126,4-3.53,4-6.315c0-3.86-3.141-7-7-7c-3.859,0-7,3.14-7,7
		C16,9.785,17.639,12.189,20,13.315z M23,4c1.654,0,3,1.346,3,3c0,0.552-0.447,1-1,1c-0.553,0-1-0.448-1-1c0-0.552-0.448-1-1-1
		c-0.553,0-1-0.448-1-1S22.447,4,23,4z"/>
</g>
</svg>
