<?xml version="1.0" encoding="utf-8"?>
<!-- Generator: Adobe Illustrator 17.0.0, SVG Export Plug-In . SVG Version: 6.00 Build 0)  -->
<!DOCTYPE svg PUBLIC "-//W3C//DTD SVG 1.1//EN" "http://www.w3.org/Graphics/SVG/1.1/DTD/svg11.dtd">
<svg version="1.1" id="Layer_2" xmlns="http://www.w3.org/2000/svg" xmlns:xlink="http://www.w3.org/1999/xlink" x="0px" y="0px"
	 width="48px" height="48px" viewBox="0 0 48 48" enable-background="new 0 0 48 48" xml:space="preserve">
<g>
	<path fill="#010101" d="M0.542,0.111C0.209,0.282,0,0.626,0,1v32c0,0.323,0.156,0.626,0.419,0.813L14,43.515V9.057L1.581,0.187
		C1.276-0.031,0.875-0.061,0.542,0.111z"/>
	<path fill="#010101" d="M43.581,10.187L30,0.486v34.458l12.419,8.87C42.592,43.938,42.795,44,43,44
		c0.156,0,0.313-0.037,0.458-0.111C43.791,43.718,44,43.375,44,43V11C44,10.677,43.844,10.374,43.581,10.187z"/>
	<polygon fill="#010101" points="16,43.515 28,34.944 28,0.486 16,9.057 	"/>
</g>
</svg>
