<?xml version="1.0" encoding="utf-8"?>
<!-- Generator: Adobe Illustrator 17.0.0, SVG Export Plug-In . SVG Version: 6.00 Build 0)  -->
<!DOCTYPE svg PUBLIC "-//W3C//DTD SVG 1.1//EN" "http://www.w3.org/Graphics/SVG/1.1/DTD/svg11.dtd">
<svg version="1.1" id="Layer_2" xmlns="http://www.w3.org/2000/svg" xmlns:xlink="http://www.w3.org/1999/xlink" x="0px" y="0px"
	 width="48px" height="48px" viewBox="0 0 48 48" enable-background="new 0 0 48 48" xml:space="preserve">
<path fill="#010101" d="M37.21,46.022L27.773,44l9.437-2.022c0.54-0.115,0.884-0.647,0.767-1.187
	c-0.116-0.54-0.642-0.885-1.188-0.768L24,42.763V17.941c4.493-0.5,8-4.316,8-8.941c0-4.963-4.037-9-9-9c-4.963,0-9,4.037-9,9
	c0,4.625,3.507,8.441,8,8.941v24.822l-12.79-2.74c-0.546-0.115-1.071,0.228-1.188,0.768c-0.116,0.54,0.227,1.072,0.767,1.187
	L18.227,44L8.79,46.022c-0.54,0.115-0.884,0.647-0.767,1.187C8.123,47.679,8.537,48,8.999,48c0.069,0,0.14-0.007,0.211-0.022
	L23,45.023l13.79,2.955C36.861,47.993,36.932,48,37.001,48c0.461,0,0.876-0.321,0.976-0.791
	C38.094,46.669,37.75,46.138,37.21,46.022z M22,5c0-0.552,0.447-1,1-1c2.757,0,5,2.243,5,5c0,0.552-0.447,1-1,1s-1-0.448-1-1
	c0-1.654-1.346-3-3-3C22.447,6,22,5.552,22,5z"/>
</svg>
