<?xml version="1.0" encoding="utf-8"?>
<!-- Generator: Adobe Illustrator 17.0.0, SVG Export Plug-In . SVG Version: 6.00 Build 0)  -->
<!DOCTYPE svg PUBLIC "-//W3C//DTD SVG 1.1//EN" "http://www.w3.org/Graphics/SVG/1.1/DTD/svg11.dtd">
<svg version="1.1" id="Layer_2" xmlns="http://www.w3.org/2000/svg" xmlns:xlink="http://www.w3.org/1999/xlink" x="0px" y="0px"
	 width="48px" height="48px" viewBox="0 0 48 48" enable-background="new 0 0 48 48" xml:space="preserve">
<g>
	<path fill="#010101" d="M23,41c0.318,0,0.618-0.151,0.807-0.408C24.345,39.857,37,22.516,37,14c0-8.898-5.103-14-14-14
		S9,5.102,9,14c0,8.516,12.655,25.857,13.193,26.592C22.382,40.849,22.682,41,23,41z M17,14c0-3.309,2.691-6,6-6s6,2.691,6,6
		s-2.691,6-6,6S17,17.309,17,14z"/>
	<path fill="#010101" d="M32.948,40.684c-0.175-0.523-0.736-0.807-1.265-0.632L23,42.946l-8.684-2.895
		c-0.527-0.174-1.091,0.109-1.265,0.632c-0.175,0.524,0.108,1.09,0.632,1.265L19.837,44l-6.154,2.051
		c-0.523,0.175-0.807,0.741-0.632,1.265C13.191,47.735,13.581,48,14,48c0.104,0,0.211-0.017,0.316-0.051L23,45.054l8.684,2.895
		C31.789,47.983,31.896,48,32,48c0.419,0,0.809-0.265,0.948-0.684c0.175-0.524-0.108-1.09-0.632-1.265L26.163,44l6.154-2.051
		C32.84,41.774,33.123,41.208,32.948,40.684z"/>
</g>
</svg>
