<?xml version="1.0" encoding="utf-8"?>
<!-- Generator: Adobe Illustrator 17.0.0, SVG Export Plug-In . SVG Version: 6.00 Build 0)  -->
<!DOCTYPE svg PUBLIC "-//W3C//DTD SVG 1.1//EN" "http://www.w3.org/Graphics/SVG/1.1/DTD/svg11.dtd">
<svg version="1.1" id="Layer_2" xmlns="http://www.w3.org/2000/svg" xmlns:xlink="http://www.w3.org/1999/xlink" x="0px" y="0px"
	 width="48px" height="48px" viewBox="0 0 48 48" enable-background="new 0 0 48 48" xml:space="preserve">
<path fill="#010101" d="M26,0c-8.822,0-16,7.178-16,16c0,8.489,14.546,30.613,15.166,31.551C25.351,47.831,25.664,48,26,48
	c0.336,0,0.649-0.169,0.834-0.449C27.454,46.613,42,24.489,42,16C42,7.178,34.822,0,26,0z M26,23c-3.859,0-7-3.14-7-7
	c0-3.86,3.141-7,7-7c3.859,0,7,3.14,7,7C33,19.86,29.859,23,26,23z"/>
</svg>
