<?xml version="1.0" encoding="utf-8"?>
<!-- Generator: Adobe Illustrator 17.0.0, SVG Export Plug-In . SVG Version: 6.00 Build 0)  -->
<!DOCTYPE svg PUBLIC "-//W3C//DTD SVG 1.1//EN" "http://www.w3.org/Graphics/SVG/1.1/DTD/svg11.dtd">
<svg version="1.1" id="Layer_2" xmlns="http://www.w3.org/2000/svg" xmlns:xlink="http://www.w3.org/1999/xlink" x="0px" y="0px"
	 width="48px" height="48px" viewBox="0 0 48 48" enable-background="new 0 0 48 48" xml:space="preserve">
<g>
	<path fill="#010101" d="M23,0C13.075,0,5,8.075,5,18c0,8.25,5.711,15.501,13.665,17.47l3.373,11.805C22.161,47.704,22.554,48,23,48
		c0.446,0,0.839-0.296,0.962-0.726l3.373-11.805C35.289,33.501,41,26.25,41,18C41,8.075,32.925,0,23,0z M23,30
		c-6.617,0-12-5.383-12-12c0-6.617,5.383-12,12-12s12,5.383,12,12C35,24.617,29.617,30,23,30z"/>
	<path fill="#010101" d="M27.707,13.293c-0.391-0.391-1.023-0.391-1.414,0L23,16.586l-3.293-3.293c-0.391-0.391-1.023-0.391-1.414,0
		c-0.391,0.391-0.391,1.023,0,1.414L21.586,18l-3.293,3.293c-0.391,0.391-0.391,1.023,0,1.414C18.488,22.902,18.744,23,19,23
		c0.256,0,0.512-0.098,0.707-0.293L23,19.414l3.293,3.293C26.488,22.902,26.744,23,27,23c0.256,0,0.512-0.098,0.707-0.293
		c0.391-0.391,0.391-1.023,0-1.414L24.414,18l3.293-3.293C28.098,14.316,28.098,13.684,27.707,13.293z"/>
</g>
</svg>
