<?xml version="1.0" encoding="utf-8"?>
<!-- Generator: Adobe Illustrator 17.0.0, SVG Export Plug-In . SVG Version: 6.00 Build 0)  -->
<!DOCTYPE svg PUBLIC "-//W3C//DTD SVG 1.1//EN" "http://www.w3.org/Graphics/SVG/1.1/DTD/svg11.dtd">
<svg version="1.1" id="Layer_2" xmlns="http://www.w3.org/2000/svg" xmlns:xlink="http://www.w3.org/1999/xlink" x="0px" y="0px"
	 width="48px" height="48px" viewBox="0 0 48 48" enable-background="new 0 0 48 48" xml:space="preserve">
<path fill="#010101" d="M25,0c-9.028,0-14,4.972-14,14c0,4.936,3.536,10.235,6.955,15.36C21.063,34.02,24,38.421,24,42v5
	c0,0.552,0.447,1,1,1c0.553,0,1-0.448,1-1v-5c0-3.579,2.936-7.98,6.045-12.64C35.464,24.235,39,18.936,39,14C39,4.972,34.028,0,25,0
	z M29.707,18.293c0.391,0.391,0.391,1.023,0,1.414C29.512,19.902,29.256,20,29,20c-0.256,0-0.512-0.098-0.707-0.293L25,16.414
	l-3.293,3.293C21.512,19.902,21.256,20,21,20c-0.256,0-0.512-0.098-0.707-0.293c-0.391-0.391-0.391-1.023,0-1.414L23.586,15
	l-3.293-3.293c-0.391-0.391-0.391-1.023,0-1.414c0.391-0.391,1.023-0.391,1.414,0L25,13.586l3.293-3.293
	c0.391-0.391,1.023-0.391,1.414,0c0.391,0.391,0.391,1.023,0,1.414L26.414,15L29.707,18.293z"/>
</svg>
