<?xml version="1.0" encoding="utf-8"?>
<!-- Generator: Adobe Illustrator 17.0.0, SVG Export Plug-In . SVG Version: 6.00 Build 0)  -->
<!DOCTYPE svg PUBLIC "-//W3C//DTD SVG 1.1//EN" "http://www.w3.org/Graphics/SVG/1.1/DTD/svg11.dtd">
<svg version="1.1" id="Layer_2" xmlns="http://www.w3.org/2000/svg" xmlns:xlink="http://www.w3.org/1999/xlink" x="0px" y="0px"
	 width="48px" height="48px" viewBox="0 0 48 48" enable-background="new 0 0 48 48" xml:space="preserve">
<path fill="#010101" d="M23,0C13.972,0,9,4.972,9,14c0,4.936,3.536,10.235,6.955,15.36C19.063,34.02,22,38.421,22,42v5
	c0,0.552,0.447,1,1,1c0.553,0,1-0.448,1-1v-5c0-3.579,2.936-7.98,6.045-12.64C33.464,24.235,37,18.936,37,14C37,4.972,32.028,0,23,0
	z M29.707,11.707l-2.621,2.622l0.895,4.475c0.081,0.407-0.097,0.821-0.447,1.042C27.37,19.949,27.185,20,27,20
	c-0.212,0-0.423-0.067-0.6-0.2L23,17.25l-3.4,2.55c-0.331,0.249-0.782,0.268-1.133,0.046c-0.351-0.221-0.528-0.635-0.447-1.042
	l0.895-4.475l-2.621-2.622c-0.286-0.286-0.372-0.716-0.217-1.09C16.23,10.244,16.596,10,17,10h3.382l1.724-3.447
	c0.34-0.677,1.449-0.677,1.789,0L25.618,10H29c0.404,0,0.769,0.244,0.924,0.617C30.079,10.991,29.993,11.421,29.707,11.707z"/>
</svg>
