<?xml version="1.0" encoding="utf-8"?>
<!-- Generator: Adobe Illustrator 17.0.0, SVG Export Plug-In . SVG Version: 6.00 Build 0)  -->
<!DOCTYPE svg PUBLIC "-//W3C//DTD SVG 1.1//EN" "http://www.w3.org/Graphics/SVG/1.1/DTD/svg11.dtd">
<svg version="1.1" id="Layer_2" xmlns="http://www.w3.org/2000/svg" xmlns:xlink="http://www.w3.org/1999/xlink" x="0px" y="0px"
	 width="48px" height="48px" viewBox="0 0 48 48" enable-background="new 0 0 48 48" xml:space="preserve">
<path fill="#010101" d="M23,0C13.075,0,5,8.075,5,18c0,8.25,5.711,15.501,13.665,17.47l3.373,11.805C22.161,47.704,22.554,48,23,48
	c0.446,0,0.839-0.296,0.962-0.726l3.373-11.805C35.289,33.501,41,26.25,41,18C41,8.075,32.925,0,23,0z M33.641,14.769l-5.518,4.598
	l1.848,7.392c0.105,0.419-0.071,0.859-0.438,1.089C29.368,27.949,29.184,28,29,28c-0.229,0-0.456-0.078-0.641-0.231L23,23.302
	l-5.359,4.467c-0.333,0.276-0.806,0.309-1.172,0.078c-0.367-0.229-0.544-0.67-0.438-1.089l1.848-7.392l-5.518-4.598
	c-0.323-0.27-0.443-0.713-0.3-1.109C12.203,13.264,12.579,13,13,13h6.795l2.264-6.336C22.2,6.266,22.577,6,23,6
	c0.423,0,0.8,0.266,0.941,0.664L26.205,13H33c0.421,0,0.797,0.264,0.94,0.66C34.084,14.056,33.964,14.499,33.641,14.769z"/>
</svg>
