<?xml version="1.0" encoding="utf-8"?>
<!-- Generator: Adobe Illustrator 17.0.0, SVG Export Plug-In . SVG Version: 6.00 Build 0)  -->
<!DOCTYPE svg PUBLIC "-//W3C//DTD SVG 1.1//EN" "http://www.w3.org/Graphics/SVG/1.1/DTD/svg11.dtd">
<svg version="1.1" id="Layer_2" xmlns="http://www.w3.org/2000/svg" xmlns:xlink="http://www.w3.org/1999/xlink" x="0px" y="0px"
	 width="48px" height="48px" viewBox="0 0 48 48" enable-background="new 0 0 48 48" xml:space="preserve">
<g>
	<path fill="#010101" d="M23,0C14.178,0,7,7.178,7,16c0,7.483,5.192,13.943,12.433,15.59l2.609,8.697C22.169,40.71,22.559,41,23,41
		c0.441,0,0.831-0.29,0.958-0.713l2.609-8.697C33.808,29.943,39,23.483,39,16C39,7.178,31.822,0,23,0z M23,26
		c-5.514,0-10-4.486-10-10c0-5.514,4.486-10,10-10c5.514,0,10,4.486,10,10C33,21.514,28.514,26,23,26z"/>
	<path fill="#010101" d="M32.948,40.684c-0.175-0.523-0.735-0.807-1.265-0.632L23,42.946l-8.684-2.895
		c-0.529-0.174-1.09,0.109-1.265,0.632c-0.175,0.524,0.108,1.09,0.632,1.265L19.837,44l-6.154,2.051
		c-0.523,0.175-0.807,0.741-0.632,1.265C13.191,47.735,13.581,48,14,48c0.104,0,0.211-0.017,0.316-0.051L23,45.054l8.684,2.894
		C31.789,47.983,31.895,48,32,48c0.419,0,0.809-0.265,0.948-0.684c0.175-0.524-0.108-1.09-0.632-1.265L26.163,44l6.154-2.051
		C32.84,41.774,33.123,41.208,32.948,40.684z"/>
</g>
</svg>
