<?xml version="1.0" encoding="utf-8"?>
<!-- Generator: Adobe Illustrator 17.0.0, SVG Export Plug-In . SVG Version: 6.00 Build 0)  -->
<!DOCTYPE svg PUBLIC "-//W3C//DTD SVG 1.1//EN" "http://www.w3.org/Graphics/SVG/1.1/DTD/svg11.dtd">
<svg version="1.1" id="Layer_2" xmlns="http://www.w3.org/2000/svg" xmlns:xlink="http://www.w3.org/1999/xlink" x="0px" y="0px"
	 width="48px" height="48px" viewBox="0 0 48 48" enable-background="new 0 0 48 48" xml:space="preserve">
<g>
	<path fill="#010101" d="M32.948,40.684c-0.175-0.523-0.736-0.807-1.265-0.632L23,42.946l-8.684-2.895
		c-0.527-0.174-1.09,0.109-1.265,0.632c-0.175,0.524,0.108,1.09,0.632,1.265L19.837,44l-6.154,2.051
		c-0.523,0.175-0.807,0.741-0.632,1.265C13.191,47.735,13.581,48,14,48c0.104,0,0.211-0.017,0.316-0.051L23,45.054l8.684,2.895
		C31.789,47.983,31.895,48,32,48c0.419,0,0.809-0.265,0.948-0.684c0.175-0.524-0.108-1.09-0.632-1.265L26.163,44l6.154-2.051
		C32.84,41.774,33.123,41.208,32.948,40.684z"/>
	<path fill="#010101" d="M22,37v3c0,0.552,0.447,1,1,1c0.553,0,1-0.448,1-1v-3c0-2.705,2.715-6.899,5.34-10.957
		C32.251,21.544,35,17.295,35,14c0-9.29-4.037-14-12-14c-7.963,0-12,4.71-12,14c0,3.295,2.749,7.544,5.66,12.043
		C19.285,30.101,22,34.295,22,37z M23,6c3.309,0,6,2.691,6,6c0,3.309-2.691,6-6,6c-3.309,0-6-2.691-6-6C17,8.691,19.691,6,23,6z"/>
</g>
</svg>
