<?xml version="1.0" encoding="utf-8"?>
<!-- Generator: Adobe Illustrator 17.0.0, SVG Export Plug-In . SVG Version: 6.00 Build 0)  -->
<!DOCTYPE svg PUBLIC "-//W3C//DTD SVG 1.1//EN" "http://www.w3.org/Graphics/SVG/1.1/DTD/svg11.dtd">
<svg version="1.1" id="Layer_2" xmlns="http://www.w3.org/2000/svg" xmlns:xlink="http://www.w3.org/1999/xlink" x="0px" y="0px"
	 width="48px" height="48px" viewBox="0 0 48 48" enable-background="new 0 0 48 48" xml:space="preserve">
<path fill="#010101" d="M23,0C13.972,0,9,4.972,9,14c0,4.936,3.536,10.235,6.955,15.36C19.063,34.02,22,38.421,22,42v5
	c0,0.552,0.447,1,1,1c0.553,0,1-0.448,1-1v-5c0-3.579,2.936-7.98,6.045-12.64C33.464,24.235,37,18.936,37,14C37,4.972,32.028,0,23,0
	z M23,22c-4.411,0-8-3.589-8-8c0-4.411,3.589-8,8-8c4.411,0,8,3.589,8,8C31,18.411,27.411,22,23,22z"/>
</svg>
