<?xml version="1.0" encoding="utf-8"?>
<!-- Generator: Adobe Illustrator 17.0.0, SVG Export Plug-In . SVG Version: 6.00 Build 0)  -->
<!DOCTYPE svg PUBLIC "-//W3C//DTD SVG 1.1//EN" "http://www.w3.org/Graphics/SVG/1.1/DTD/svg11.dtd">
<svg version="1.1" id="Layer_2" xmlns="http://www.w3.org/2000/svg" xmlns:xlink="http://www.w3.org/1999/xlink" x="0px" y="0px"
	 width="48px" height="48px" viewBox="0 0 48 48" enable-background="new 0 0 48 48" xml:space="preserve">
<path fill="#010101" d="M24,0C14.075,0,6,8.075,6,18c0,8.25,5.711,15.501,13.665,17.47l3.373,11.805C23.161,47.704,23.554,48,24,48
	c0.446,0,0.839-0.296,0.962-0.726l3.373-11.805C36.289,33.501,42,26.25,42,18C42,8.075,33.925,0,24,0z M24,30
	c-6.617,0-12-5.383-12-12c0-6.617,5.383-12,12-12c6.617,0,12,5.383,12,12C36,24.617,30.617,30,24,30z"/>
</svg>
