<?xml version="1.0" encoding="utf-8"?>
<!-- Generator: Adobe Illustrator 17.0.0, SVG Export Plug-In . SVG Version: 6.00 Build 0)  -->
<!DOCTYPE svg PUBLIC "-//W3C//DTD SVG 1.1//EN" "http://www.w3.org/Graphics/SVG/1.1/DTD/svg11.dtd">
<svg version="1.1" id="Layer_2" xmlns="http://www.w3.org/2000/svg" xmlns:xlink="http://www.w3.org/1999/xlink" x="0px" y="0px"
	 width="60px" height="60px" viewBox="0 0 60 60" enable-background="new 0 0 60 60" xml:space="preserve">
<g>
	<path fill="#010101" d="M51.767,47.968c-2.701-1.109-4.767-2.112-4.768-4.019l0.392-10.516c0-6.824-3.949-12.957-10.117-15.797
		C36.936,13.921,33.803,11,30,11c-3.803,0-6.937,2.921-7.274,6.636c-6.167,2.838-10.117,8.972-10.117,15.835L13,43.912
		c0,1.943-2.066,2.946-4.815,4.075c-0.442,0.182-0.694,0.649-0.601,1.118c0.092,0.469,0.503,0.807,0.981,0.807h42.869
		c0.477,0,0.865-0.348,0.958-0.816C52.484,48.627,52.208,48.149,51.767,47.968z"/>
	<path fill="#010101" d="M35,52H25c-0.552,0-1,0.447-1,1c0,4.407,2.183,6.959,5.989,7c0.003,0,0.085,0,0.089,0
		C33.786,60,36,57.384,36,53C36,52.447,35.552,52,35,52z M30.078,59l0-0.003h0V59z"/>
	<path fill="#010101" d="M9.565,23c0-0.553-0.448-1-1-1H3.322l5.97-6.312c0.274-0.291,0.35-0.716,0.192-1.083
		C9.326,14.237,8.965,14,8.565,14H1c-0.552,0-1,0.447-1,1c0,0.553,0.448,1,1,1h5.244l-5.97,6.313
		c-0.274,0.291-0.35,0.716-0.192,1.083C0.24,23.763,0.601,24,1,24h7.565C9.118,24,9.565,23.553,9.565,23z"/>
	<path fill="#010101" d="M23.695,2h2.897L22.93,6.356c-0.25,0.298-0.305,0.713-0.141,1.065C22.953,7.774,23.307,8,23.695,8h5.044
		c0.552,0,1-0.447,1-1c0-0.553-0.448-1-1-1h-2.897l3.663-4.356c0.25-0.298,0.305-0.713,0.141-1.065C29.481,0.226,29.128,0,28.739,0
		h-5.044c-0.552,0-1,0.447-1,1C22.695,1.553,23.143,2,23.695,2z"/>
	<path fill="#010101" d="M59,18h-7.658l8.362-8.29c0.288-0.285,0.375-0.716,0.221-1.091C59.77,8.244,59.405,8,59,8H48.913
		c-0.552,0-1,0.447-1,1c0,0.553,0.448,1,1,1h7.658l-8.362,8.29c-0.288,0.285-0.375,0.716-0.221,1.091
		C48.143,19.756,48.508,20,48.913,20H59c0.552,0,1-0.447,1-1C60,18.447,59.552,18,59,18z"/>
</g>
</svg>
