<?xml version="1.0" encoding="utf-8"?>
<!-- Generator: Adobe Illustrator 17.0.0, SVG Export Plug-In . SVG Version: 6.00 Build 0)  -->
<!DOCTYPE svg PUBLIC "-//W3C//DTD SVG 1.1//EN" "http://www.w3.org/Graphics/SVG/1.1/DTD/svg11.dtd">
<svg version="1.1" id="Layer_2" xmlns="http://www.w3.org/2000/svg" xmlns:xlink="http://www.w3.org/1999/xlink" x="0px" y="0px"
	 width="60px" height="60px" viewBox="0 0 60 60" enable-background="new 0 0 60 60" xml:space="preserve">
<g>
	<path fill="#010101" d="M48.907,49.073l-0.42-0.198c-2.163-1.016-3.694-1.85-3.694-3.344v-9.482c0-5.905-3.124-10.817-8.392-13.261
		c-0.335-3.235-3.078-5.767-6.4-5.767c-3.323,0-6.065,2.531-6.401,5.766c-5.268,2.441-8.392,7.354-8.392,13.262v9.482
		c0,1.494-1.531,2.328-3.694,3.344l-0.42,0.198c-0.422,0.201-0.649,0.667-0.546,1.123c0.103,0.456,0.508,0.78,0.976,0.78h36.955
		c0.468,0,0.873-0.324,0.976-0.78C49.556,49.74,49.329,49.274,48.907,49.073z"/>
	<path fill="#010101" d="M34.348,53.022h-8.696c-0.552,0-1,0.447-1,1v0.652c0,2.948,2.399,5.348,5.348,5.348
		c2.949,0,5.348-2.399,5.348-5.348v-0.652C35.348,53.469,34.9,53.022,34.348,53.022z"/>
	<path fill="#010101" d="M22.435,9.543c0.552,0,1-0.447,1-1c0-0.553-0.448-1-1-1c-8.199,0-14.869,6.67-14.869,14.869
		c0,0.553,0.448,1,1,1c0.552,0,1-0.447,1-1C9.565,15.316,15.338,9.543,22.435,9.543z"/>
	<path fill="#010101" d="M22.435,1.979c0.552,0,1-0.447,1-1c0-0.553-0.448-1-1-1C10.064-0.021,0,10.042,0,22.412
		c0,0.553,0.448,1,1,1c0.552,0,1-0.447,1-1C2,11.145,11.167,1.979,22.435,1.979z"/>
	<path fill="#010101" d="M37.565,7.543c-0.552,0-1,0.447-1,1c0,0.553,0.448,1,1,1c7.096,0,12.869,5.773,12.869,12.869
		c0,0.553,0.448,1,1,1c0.552,0,1-0.447,1-1C52.435,14.213,45.764,7.543,37.565,7.543z"/>
	<path fill="#010101" d="M37.565-0.021c-0.552,0-1,0.447-1,1c0,0.553,0.448,1,1,1C48.833,1.979,58,11.145,58,22.412
		c0,0.553,0.448,1,1,1c0.552,0,1-0.447,1-1C60,10.042,49.936-0.021,37.565-0.021z"/>
</g>
</svg>
