<?xml version="1.0" encoding="utf-8"?>
<!-- Generator: Adobe Illustrator 17.0.0, SVG Export Plug-In . SVG Version: 6.00 Build 0)  -->
<!DOCTYPE svg PUBLIC "-//W3C//DTD SVG 1.1//EN" "http://www.w3.org/Graphics/SVG/1.1/DTD/svg11.dtd">
<svg version="1.1" id="Layer_2" xmlns="http://www.w3.org/2000/svg" xmlns:xlink="http://www.w3.org/1999/xlink" x="0px" y="0px"
	 width="60px" height="60px" viewBox="0 0 60 60" enable-background="new 0 0 60 60" xml:space="preserve">
<g>
	<path fill="#010101" d="M34.565,47.981h-10c-0.552,0-1,0.447-1,1c0,4.407,2.183,6.959,5.989,7c0.003,0,0.085,0,0.089,0
		c3.708,0,5.922-2.616,5.922-7C35.565,48.428,35.118,47.981,34.565,47.981z M29.644,54.981l0-0.004c0,0,0,0,0,0V54.981z"/>
	<path fill="#010101" d="M57.829,2.153c-1.511-1.512-4.147-1.512-5.657,0L39.308,15.016c-0.777-0.524-1.598-0.998-2.469-1.398
		c-0.338-3.716-3.471-6.637-7.274-6.637c-3.803,0-6.937,2.921-7.274,6.636c-6.167,2.838-10.117,8.972-10.117,15.835l0.391,10.441
		c0,1.876-1.88,2.857-4.536,4.038l-0.307,0.137c-0.431,0.192-0.668,0.66-0.57,1.122c0.099,0.461,0.506,0.791,0.978,0.791h0.213
		l-6.172,6.172c-1.56,1.559-1.56,4.097,0,5.656c0.755,0.756,1.76,1.172,2.829,1.172c1.069,0,2.073-0.416,2.828-1.172l11.828-11.828
		H51c0.472,0,0.879-0.33,0.978-0.791c0.099-0.462-0.139-0.93-0.57-1.122l-0.307-0.137c-2.656-1.181-4.536-2.162-4.537-4.001
		l0.392-10.516c0-3.054-0.796-5.967-2.223-8.511L57.828,7.809C59.388,6.25,59.388,3.712,57.829,2.153z M56.414,6.395l-50,50
		c-0.745,0.746-2.037,0.752-2.797,0.025c-0.01-0.009-0.022-0.016-0.031-0.025c-0.101-0.101-0.188-0.211-0.263-0.327
		c-0.502-0.774-0.416-1.823,0.263-2.501l50-50c0.03-0.03,0.065-0.052,0.096-0.079c0.069-0.061,0.137-0.123,0.213-0.174
		c0.04-0.027,0.085-0.044,0.127-0.068c0.073-0.041,0.144-0.084,0.221-0.116c0.044-0.018,0.091-0.026,0.136-0.041
		c0.078-0.025,0.154-0.054,0.235-0.07C54.74,2.994,54.869,2.981,55,2.981c0.131,0,0.26,0.013,0.385,0.038
		c0.085,0.017,0.165,0.046,0.246,0.073c0.041,0.014,0.085,0.021,0.125,0.038c0.088,0.036,0.169,0.084,0.251,0.132
		c0.032,0.019,0.066,0.031,0.096,0.052c0.111,0.073,0.215,0.158,0.311,0.254c0.097,0.098,0.183,0.203,0.256,0.314
		C57.181,4.656,57.096,5.713,56.414,6.395z"/>
</g>
</svg>
