<?xml version="1.0" encoding="utf-8"?>
<!-- Generator: Adobe Illustrator 17.0.0, SVG Export Plug-In . SVG Version: 6.00 Build 0)  -->
<!DOCTYPE svg PUBLIC "-//W3C//DTD SVG 1.1//EN" "http://www.w3.org/Graphics/SVG/1.1/DTD/svg11.dtd">
<svg version="1.1" id="Layer_2" xmlns="http://www.w3.org/2000/svg" xmlns:xlink="http://www.w3.org/1999/xlink" x="0px" y="0px"
	 width="60px" height="60px" viewBox="0 0 60 60" enable-background="new 0 0 60 60" xml:space="preserve">
<g>
	<path fill="#010101" d="M0,20v39c0,0.553,0.448,1,1,1h58c0.552,0,1-0.447,1-1V20H0z M30,29c0-0.553,0.448-1,1-1h12
		c0.331,0,0.642,0.164,0.828,0.44c0.186,0.274,0.224,0.623,0.101,0.932L40.481,38h0.867c0.552,0,1,0.447,1,1c0,0.553-0.448,1-1,1
		h-1.666l-3.709,9.284c-0.156,0.391-0.532,0.629-0.929,0.629c-0.124,0-0.249-0.022-0.371-0.071c-0.513-0.205-0.762-0.787-0.558-1.3
		L37.528,40h-3.746c-0.552,0-1-0.447-1-1c0-0.553,0.448-1,1-1h4.545l3.197-8H32v1.261c0,0.553-0.448,1-1,1c-0.552,0-1-0.447-1-1V29z
		 M18.707,34.707c-0.391,0.391-1.023,0.391-1.414,0c-0.391-0.391-0.391-1.023,0-1.414l5-5c0.287-0.287,0.715-0.375,1.09-0.217
		C23.756,28.231,24,28.596,24,29v19h4c0.552,0,1,0.447,1,1c0,0.553-0.448,1-1,1H18c-0.552,0-1-0.447-1-1c0-0.553,0.448-1,1-1h4
		V31.414L18.707,34.707z"/>
	<path fill="#010101" d="M60,18V7c0-0.553-0.448-1-1-1h-9V1c0-0.553-0.448-1-1-1h-8c-0.552,0-1,0.447-1,1v5H20V1
		c0-0.553-0.448-1-1-1h-8c-0.552,0-1,0.447-1,1v5H1C0.448,6,0,6.447,0,7v11H60z M42,2h6v8h-6V2z M18,10h-6V2h6V10z"/>
</g>
</svg>
