<?xml version="1.0" encoding="utf-8"?>
<!-- Generator: Adobe Illustrator 17.0.0, SVG Export Plug-In . SVG Version: 6.00 Build 0)  -->
<!DOCTYPE svg PUBLIC "-//W3C//DTD SVG 1.1//EN" "http://www.w3.org/Graphics/SVG/1.1/DTD/svg11.dtd">
<svg version="1.1" id="Layer_2" xmlns="http://www.w3.org/2000/svg" xmlns:xlink="http://www.w3.org/1999/xlink" x="0px" y="0px"
	 width="60px" height="60px" viewBox="0 0 60 60" enable-background="new 0 0 60 60" xml:space="preserve">
<path fill="#010101" d="M30,0C13.458,0,0,13.458,0,30s13.458,30,30,30s30-13.458,30-30S46.542,0,30,0z M45.837,45.838
	c-0.195,0.195-0.451,0.293-0.707,0.293c-0.256,0-0.512-0.098-0.707-0.293L32.75,34.168C31.96,34.691,31.016,35,30,35
	c-2.757,0-5-2.243-5-5c0-2.045,1.237-3.802,3-4.576v-9.293c0-0.553,0.448-1,1-1c0.552,0,1,0.447,1,1V25c2.757,0,5,2.243,5,5
	c0,1.019-0.309,1.964-0.835,2.755l11.672,11.668C46.228,44.814,46.228,45.447,45.837,45.838z"/>
</svg>
