<?xml version="1.0" encoding="utf-8"?>
<!-- Generator: Adobe Illustrator 17.0.0, SVG Export Plug-In . SVG Version: 6.00 Build 0)  -->
<!DOCTYPE svg PUBLIC "-//W3C//DTD SVG 1.1//EN" "http://www.w3.org/Graphics/SVG/1.1/DTD/svg11.dtd">
<svg version="1.1" id="Layer_2" xmlns="http://www.w3.org/2000/svg" xmlns:xlink="http://www.w3.org/1999/xlink" x="0px" y="0px"
	 width="60px" height="60px" viewBox="0 0 60 60" enable-background="new 0 0 60 60" xml:space="preserve">
<path fill="#010101" d="M53,58h-3.736L37.09,30L49.264,2H53c0.552,0,1-0.447,1-1c0-0.553-0.448-1-1-1H10.773
	c-0.001,0-0.002,0-0.004,0H7C6.448,0,6,0.447,6,1c0,0.553,0.448,1,1,1h3.127l12.174,28L10.127,58H7c-0.552,0-1,0.447-1,1
	c0,0.553,0.448,1,1,1h3.782h37.826H53c0.552,0,1-0.447,1-1C54,58.447,53.552,58,53,58z M22.555,12.452
	C22.739,12.17,23.054,12,23.391,12H36c0.337,0,0.652,0.17,0.836,0.452c0.185,0.282,0.215,0.638,0.081,0.947l-6.305,14.479
	c-0.159,0.364-0.519,0.601-0.917,0.601c-0.398,0-0.758-0.236-0.917-0.601l-6.304-14.479C22.34,13.09,22.37,12.734,22.555,12.452z
	 M39.802,56c-0.007-0.001-0.013-0.001-0.02,0H19.608c-0.357,0-0.688-0.19-0.866-0.5c-0.179-0.31-0.178-0.691,0-1.001L28.83,37.065
	c0.357-0.617,1.374-0.617,1.731,0l9.999,17.283c0.151,0.175,0.242,0.403,0.242,0.652C40.802,55.553,40.354,56,39.802,56z"/>
</svg>
