<?xml version="1.0" encoding="utf-8"?>
<!-- Generator: Adobe Illustrator 17.0.0, SVG Export Plug-In . SVG Version: 6.00 Build 0)  -->
<!DOCTYPE svg PUBLIC "-//W3C//DTD SVG 1.1//EN" "http://www.w3.org/Graphics/SVG/1.1/DTD/svg11.dtd">
<svg version="1.1" id="Layer_2" xmlns="http://www.w3.org/2000/svg" xmlns:xlink="http://www.w3.org/1999/xlink" x="0px" y="0px"
	 width="60px" height="60px" viewBox="0 0 60 60" enable-background="new 0 0 60 60" xml:space="preserve">
<g>
	<path fill="#010101" d="M26.218,2.522h-0.739c-0.552,0-1,0.447-1,1v27.521c0,0.553,0.448,1,1,1h31c0.552,0,1-0.447,1-1
		C57.478,15.317,43.455,2.522,26.218,2.522z M45.125,16.29l-3.566,3.566c-0.195,0.195-0.451,0.293-0.707,0.293
		c-0.256,0-0.512-0.098-0.707-0.293c-0.391-0.39-0.391-1.023,0-1.414l3.566-3.566c0.391-0.391,1.023-0.391,1.414,0
		C45.515,15.266,45.515,15.899,45.125,16.29z"/>
	<path fill="#010101" d="M8.565,30.26H3.522c-0.552,0-1,0.447-1,1s0.448,1,1,1h5.043c0.552,0,1-0.447,1-1S9.117,30.26,8.565,30.26z"
		/>
	<path fill="#010101" d="M41.558,45.188c-0.391-0.391-1.023-0.391-1.414,0c-0.391,0.391-0.391,1.024,0,1.414l3.566,3.566
		c0.195,0.195,0.451,0.293,0.707,0.293c0.256,0,0.512-0.098,0.707-0.293c0.391-0.39,0.391-1.023,0-1.414L41.558,45.188z"/>
	<path fill="#010101" d="M11.245,14.875c-0.391-0.391-1.023-0.391-1.414,0c-0.391,0.391-0.391,1.024,0,1.414l3.566,3.566
		c0.195,0.195,0.451,0.293,0.707,0.293c0.256,0,0.512-0.098,0.707-0.293c0.391-0.39,0.391-1.023,0-1.414L11.245,14.875z"/>
	<path fill="#010101" d="M13.397,45.188l-3.566,3.566c-0.391,0.391-0.391,1.024,0,1.414c0.195,0.195,0.451,0.293,0.707,0.293
		c0.256,0,0.512-0.098,0.707-0.293l3.566-3.566c0.391-0.39,0.391-1.023,0-1.414C14.421,44.797,13.788,44.797,13.397,45.188z"/>
	<path fill="#010101" d="M25.478,50.435c-0.552,0-1,0.447-1,1v5.043c0,0.553,0.448,1,1,1s1-0.447,1-1v-5.043
		C26.478,50.882,26.031,50.435,25.478,50.435z"/>
</g>
</svg>
