<?xml version="1.0" encoding="utf-8"?>
<!-- Generator: Adobe Illustrator 17.0.0, SVG Export Plug-In . SVG Version: 6.00 Build 0)  -->
<!DOCTYPE svg PUBLIC "-//W3C//DTD SVG 1.1//EN" "http://www.w3.org/Graphics/SVG/1.1/DTD/svg11.dtd">
<svg version="1.1" id="Layer_2" xmlns="http://www.w3.org/2000/svg" xmlns:xlink="http://www.w3.org/1999/xlink" x="0px" y="0px"
	 width="60px" height="60px" viewBox="0 0 60 60" enable-background="new 0 0 60 60" xml:space="preserve">
<g>
	<path fill="#010101" d="M31,0c-0.552,0-1,0.447-1,1v27.043H1c-0.552,0-1,0.447-1,1C0,45.823,13.738,60,30,60
		c16.542,0,30-13.458,30-30C60,13.738,46.72,0,31,0z M17.333,44.08l-3.566,3.566c-0.195,0.195-0.451,0.293-0.707,0.293
		c-0.256,0-0.512-0.098-0.707-0.293c-0.391-0.391-0.391-1.023,0-1.414l3.566-3.567c0.391-0.391,1.024-0.391,1.414,0
		C17.724,43.057,17.724,43.69,17.333,44.08z M42.666,15.92l3.566-3.566c0.391-0.391,1.023-0.391,1.414,0
		c0.391,0.391,0.391,1.023,0,1.414l-3.566,3.566c-0.195,0.195-0.451,0.293-0.707,0.293c-0.256,0-0.512-0.098-0.707-0.293
		C42.276,16.943,42.276,16.311,42.666,15.92z M32.261,53.956c0,0.553-0.448,1-1,1c-0.552,0-1-0.447-1-1v-5.044c0-0.553,0.448-1,1-1
		c0.552,0,1,0.447,1,1V53.956z M47.647,47.647c-0.195,0.195-0.451,0.293-0.707,0.293c-0.256,0-0.512-0.098-0.707-0.293l-3.566-3.566
		c-0.391-0.391-0.391-1.023,0-1.414c0.391-0.391,1.023-0.391,1.414,0l3.566,3.567C48.038,46.623,48.038,47.256,47.647,47.647z
		 M53.956,30.043h-5.043c-0.552,0-1-0.447-1-1c0-0.553,0.448-1,1-1h5.043c0.552,0,1,0.447,1,1
		C54.956,29.596,54.508,30.043,53.956,30.043z"/>
	<path fill="#010101" d="M15.919,17.334c0.195,0.195,0.451,0.293,0.707,0.293c0.256,0,0.512-0.098,0.707-0.293
		c0.391-0.391,0.391-1.023,0-1.414l-3.566-3.567c-0.391-0.391-1.023-0.391-1.414,0c-0.391,0.391-0.391,1.023,0,1.414L15.919,17.334z
		"/>
</g>
</svg>
