<?xml version="1.0" encoding="utf-8"?>
<!-- Generator: Adobe Illustrator 17.0.0, SVG Export Plug-In . SVG Version: 6.00 Build 0)  -->
<!DOCTYPE svg PUBLIC "-//W3C//DTD SVG 1.1//EN" "http://www.w3.org/Graphics/SVG/1.1/DTD/svg11.dtd">
<svg version="1.1" id="Layer_2" xmlns="http://www.w3.org/2000/svg" xmlns:xlink="http://www.w3.org/1999/xlink" x="0px" y="0px"
	 width="60px" height="60px" viewBox="0 0 60 60" enable-background="new 0 0 60 60" xml:space="preserve">
<path fill="#010101" d="M48.343,15.593l3.722-3.722l1.184,1.184c0.195,0.195,0.451,0.293,0.707,0.293
	c0.256,0,0.512-0.098,0.707-0.293c0.39-0.391,0.39-1.023,0-1.414l-3.783-3.782c-0.391-0.391-1.023-0.391-1.414,0
	c-0.391,0.391-0.391,1.023,0,1.414l1.184,1.184l-3.783,3.783c-4.121-3.523-9.35-5.78-15.086-6.171V2h2c0.552,0,1-0.447,1-1
	c0-0.553-0.448-1-1-1h-6c-0.552,0-1,0.447-1,1c0,0.553,0.448,1,1,1h2v6.005C15.547,8.123,4,19.736,4,34C4,48.337,15.664,60,30,60
	c14.336,0,26-11.663,26-26C56,26.815,53.07,20.303,48.343,15.593z M11.348,33c0-0.553,0.448-1,1-1h5.043c0.552,0,1,0.447,1,1
	c0,0.553-0.448,1-1,1h-5.043C11.796,34,11.348,33.553,11.348,33z M21.881,43.316l-3.783,3.781c-0.195,0.195-0.451,0.293-0.707,0.293
	c-0.256,0-0.512-0.098-0.707-0.293c-0.391-0.391-0.391-1.023,0-1.414l3.783-3.781c0.391-0.391,1.023-0.391,1.414,0
	C22.272,42.293,22.272,42.926,21.881,43.316z M21.881,25.664c-0.195,0.195-0.451,0.293-0.707,0.293
	c-0.256,0-0.512-0.098-0.707-0.293l-3.783-3.783c-0.391-0.391-0.391-1.024,0-1.414c0.391-0.391,1.023-0.391,1.414,0l3.783,3.783
	C22.272,24.641,22.272,25.273,21.881,25.664z M31.783,51.435c0,0.553-0.448,1-1,1c-0.552,0-1-0.447-1-1v-5.044c0-0.553,0.448-1,1-1
	c0.552,0,1,0.447,1,1V51.435z M31.783,21.174c0,0.553-0.448,1-1,1c-0.552,0-1-0.447-1-1v-5.043c0-0.553,0.448-1,1-1
	c0.552,0,1,0.447,1,1V21.174z M38.119,24.25l3.783-3.783c0.391-0.391,1.023-0.391,1.414,0c0.391,0.391,0.391,1.023,0,1.414
	l-3.783,3.783c-0.195,0.195-0.451,0.293-0.707,0.293c-0.256,0-0.512-0.098-0.707-0.293C37.729,25.273,37.729,24.641,38.119,24.25z
	 M43.315,47.098c-0.195,0.195-0.451,0.293-0.707,0.293c-0.256,0-0.512-0.098-0.707-0.293l-3.782-3.781
	c-0.391-0.391-0.391-1.023,0-1.414c0.391-0.391,1.023-0.391,1.414,0l3.782,3.781C43.706,46.074,43.706,46.707,43.315,47.098z
	 M47.652,34h-5.043c-0.552,0-1-0.447-1-1c0-0.553,0.448-1,1-1h5.043c0.552,0,1,0.447,1,1C48.652,33.553,48.205,34,47.652,34z"/>
</svg>
