<?xml version="1.0" encoding="utf-8"?>
<!-- Generator: Adobe Illustrator 17.0.0, SVG Export Plug-In . SVG Version: 6.00 Build 0)  -->
<!DOCTYPE svg PUBLIC "-//W3C//DTD SVG 1.1//EN" "http://www.w3.org/Graphics/SVG/1.1/DTD/svg11.dtd">
<svg version="1.1" id="Layer_2" xmlns="http://www.w3.org/2000/svg" xmlns:xlink="http://www.w3.org/1999/xlink" x="0px" y="0px"
	 width="60px" height="60px" viewBox="0 0 60 60" enable-background="new 0 0 60 60" xml:space="preserve">
<path fill="#010101" d="M30,1C14.009,1,1,14.01,1,30c0,15.99,13.009,29,29,29s29-13.01,29-29C59,14.01,45.991,1,30,1z M12.087,31
	H7.043c-0.552,0-1-0.447-1-1c0-0.553,0.448-1,1-1h5.043c0.552,0,1,0.447,1,1C13.087,30.553,12.639,31,12.087,31z M13.293,12.727
	c0.391-0.391,1.023-0.391,1.414,0l3.566,3.566c0.391,0.391,0.391,1.023,0,1.414C18.078,17.902,17.822,18,17.566,18
	c-0.256,0-0.512-0.098-0.707-0.293l-3.566-3.566C12.902,13.75,12.902,13.117,13.293,12.727z M19.273,42.141l-3.566,3.566
	C15.512,45.902,15.256,46,15,46c-0.256,0-0.512-0.098-0.707-0.293c-0.391-0.391-0.391-1.023,0-1.414l3.566-3.566
	c0.391-0.391,1.023-0.391,1.414,0C19.664,41.117,19.664,41.75,19.273,42.141z M31,52.913c0,0.553-0.448,1-1,1c-0.552,0-1-0.447-1-1
	v-5.044c0-0.553,0.448-1,1-1c0.552,0,1,0.447,1,1V52.913z M31,12c0,0.553-0.448,1-1,1c-0.552,0-1-0.447-1-1V6.957
	c0-0.553,0.448-1,1-1c0.552,0,1,0.447,1,1V12z M42.293,16.293l3.566-3.566c0.391-0.391,1.023-0.391,1.414,0
	c0.391,0.391,0.391,1.023,0,1.414l-3.566,3.566C43.512,17.902,43.256,18,43,18c-0.256,0-0.512-0.098-0.707-0.293
	C41.902,17.316,41.902,16.684,42.293,16.293z M47.707,45.707C47.512,45.902,47.256,46,47,46c-0.256,0-0.512-0.098-0.707-0.293
	l-3.566-3.566c-0.391-0.391-0.391-1.023,0-1.414c0.391-0.391,1.023-0.391,1.414,0l3.566,3.566
	C48.098,44.684,48.098,45.316,47.707,45.707z M53,31h-5.044c-0.552,0-1-0.447-1-1c0-0.553,0.448-1,1-1H53c0.552,0,1,0.447,1,1
	C54,30.553,53.552,31,53,31z"/>
</svg>
