<?xml version="1.0" encoding="utf-8"?>
<!-- Generator: Adobe Illustrator 17.0.0, SVG Export Plug-In . SVG Version: 6.00 Build 0)  -->
<!DOCTYPE svg PUBLIC "-//W3C//DTD SVG 1.1//EN" "http://www.w3.org/Graphics/SVG/1.1/DTD/svg11.dtd">
<svg version="1.1" id="Layer_2" xmlns="http://www.w3.org/2000/svg" xmlns:xlink="http://www.w3.org/1999/xlink" x="0px" y="0px"
	 width="60px" height="60px" viewBox="0 0 60 60" enable-background="new 0 0 60 60" xml:space="preserve">
<g>
	<path fill="#010101" d="M26.522,0c-0.552,0-1,0.447-1,1v58c0,0.553,0.448,1,1,1c16.78,0,30.956-13.738,30.956-30
		C57.478,13.738,43.302,0,26.522,0z M40.145,15.92l3.566-3.566c0.391-0.391,1.023-0.391,1.414,0c0.391,0.391,0.391,1.023,0,1.414
		l-3.566,3.566c-0.195,0.195-0.451,0.293-0.707,0.293c-0.256,0-0.512-0.098-0.707-0.293C39.754,16.943,39.754,16.311,40.145,15.92z
		 M45.125,47.647c-0.195,0.195-0.451,0.293-0.707,0.293c-0.256,0-0.512-0.098-0.707-0.293l-3.566-3.566
		c-0.391-0.391-0.391-1.023,0-1.414c0.391-0.391,1.023-0.391,1.414,0l3.566,3.567C45.516,46.623,45.516,47.256,45.125,47.647z
		 M51.435,30.043h-5.044c-0.552,0-1-0.447-1-1c0-0.553,0.448-1,1-1h5.044c0.552,0,1,0.447,1,1
		C52.435,29.596,51.987,30.043,51.435,30.043z"/>
	<path fill="#010101" d="M8.565,28.043H3.522c-0.552,0-1,0.447-1,1c0,0.553,0.448,1,1,1h5.043c0.552,0,1-0.447,1-1
		C9.565,28.49,9.118,28.043,8.565,28.043z"/>
	<path fill="#010101" d="M11.246,12.353c-0.391-0.391-1.024-0.391-1.415,0c-0.391,0.391-0.391,1.023,0,1.414l3.565,3.567
		c0.195,0.195,0.452,0.293,0.708,0.293c0.256,0,0.512-0.098,0.707-0.293c0.391-0.391,0.391-1.023,0-1.414L11.246,12.353z"/>
	<path fill="#010101" d="M13.397,42.666l-3.565,3.567c-0.391,0.391-0.391,1.023,0,1.414c0.195,0.195,0.451,0.293,0.707,0.293
		c0.256,0,0.512-0.098,0.707-0.293l3.566-3.566c0.391-0.391,0.391-1.023,0-1.414C14.42,42.275,13.787,42.275,13.397,42.666z"/>
</g>
</svg>
