<?xml version="1.0" encoding="utf-8"?>
<!-- Generator: Adobe Illustrator 17.0.0, SVG Export Plug-In . SVG Version: 6.00 Build 0)  -->
<!DOCTYPE svg PUBLIC "-//W3C//DTD SVG 1.1//EN" "http://www.w3.org/Graphics/SVG/1.1/DTD/svg11.dtd">
<svg version="1.1" id="Layer_2" xmlns="http://www.w3.org/2000/svg" xmlns:xlink="http://www.w3.org/1999/xlink" x="0px" y="0px"
	 width="60px" height="60px" viewBox="0 0 60 60" enable-background="new 0 0 60 60" xml:space="preserve">
<g>
	<path fill="#010101" d="M20.466,25.664c0.195,0.195,0.451,0.293,0.707,0.293c0.256,0,0.512-0.098,0.707-0.293
		c0.391-0.391,0.391-1.024,0-1.414l-3.782-3.783c-0.391-0.391-1.023-0.391-1.414,0c-0.391,0.391-0.391,1.023,0,1.414L20.466,25.664z
		"/>
	<path fill="#010101" d="M48.637,15.299l3.429-3.428l1.184,1.184c0.195,0.195,0.451,0.293,0.707,0.293
		c0.256,0,0.512-0.098,0.707-0.293c0.391-0.391,0.391-1.023,0-1.414L50.88,7.858c-0.391-0.391-1.023-0.391-1.414,0
		c-0.391,0.391-0.391,1.023,0,1.414l1.185,1.184l-3.477,3.477c-4.32-3.758-9.872-6.109-15.956-6.343V2h2c0.552,0,1-0.447,1-1
		c0-0.553-0.448-1-1-1h-6c-0.552,0-1,0.447-1,1c0,0.553,0.448,1,1,1h2v6.565V32H4.783c-0.552,0-1,0.447-1,1
		c0,15.141,11.516,27,26.217,27c14.456,0,26.217-11.761,26.217-26.217C56.217,26.578,53.319,20.043,48.637,15.299z M21.88,43.316
		l-3.782,3.781c-0.195,0.195-0.451,0.293-0.707,0.293c-0.256,0-0.512-0.098-0.707-0.293c-0.391-0.391-0.391-1.023,0-1.414
		l3.782-3.781c0.391-0.391,1.024-0.391,1.414,0C22.271,42.293,22.271,42.926,21.88,43.316z M31.217,51.435c0,0.553-0.448,1-1,1
		c-0.552,0-1-0.447-1-1v-5.044c0-0.553,0.448-1,1-1c0.552,0,1,0.447,1,1V51.435z M38.119,24.25l3.782-3.783
		c0.391-0.391,1.023-0.391,1.414,0c0.391,0.391,0.391,1.023,0,1.414l-3.782,3.783c-0.195,0.195-0.451,0.293-0.707,0.293
		c-0.256,0-0.512-0.098-0.707-0.293C37.728,25.273,37.728,24.641,38.119,24.25z M43.315,47.098
		c-0.195,0.195-0.451,0.293-0.707,0.293c-0.256,0-0.512-0.098-0.707-0.293l-3.782-3.781c-0.391-0.391-0.391-1.023,0-1.414
		c0.391-0.391,1.023-0.391,1.414,0l3.782,3.781C43.706,46.074,43.706,46.707,43.315,47.098z M47.652,34h-5.043c-0.552,0-1-0.447-1-1
		c0-0.553,0.448-1,1-1h5.043c0.552,0,1,0.447,1,1C48.652,33.553,48.204,34,47.652,34z"/>
</g>
</svg>
