<?xml version="1.0" encoding="utf-8"?>
<!-- Generator: Adobe Illustrator 17.0.0, SVG Export Plug-In . SVG Version: 6.00 Build 0)  -->
<!DOCTYPE svg PUBLIC "-//W3C//DTD SVG 1.1//EN" "http://www.w3.org/Graphics/SVG/1.1/DTD/svg11.dtd">
<svg version="1.1" id="Layer_2" xmlns="http://www.w3.org/2000/svg" xmlns:xlink="http://www.w3.org/1999/xlink" x="0px" y="0px"
	 width="60px" height="60px" viewBox="0 0 60 60" enable-background="new 0 0 60 60" xml:space="preserve">
<g>
	<path fill="#010101" d="M33.522,0c-16.804,0-31,13.738-31,30c0,16.262,14.196,30,31,30c0.552,0,1-0.447,1-1V1
		C34.522,0.447,34.074,0,33.522,0z M13.609,30.043H8.565c-0.552,0-1-0.447-1-1c0-0.553,0.448-1,1-1h5.043c0.552,0,1,0.447,1,1
		C14.609,29.596,14.161,30.043,13.609,30.043z M19.856,44.08l-3.566,3.566c-0.195,0.195-0.451,0.293-0.707,0.293
		c-0.256,0-0.512-0.098-0.707-0.293c-0.391-0.391-0.391-1.023,0-1.414l3.566-3.567c0.391-0.391,1.024-0.391,1.414,0
		C20.247,43.057,20.247,43.69,19.856,44.08z M19.856,17.334c-0.195,0.195-0.451,0.293-0.707,0.293c-0.256,0-0.512-0.098-0.707-0.293
		l-3.566-3.566c-0.391-0.391-0.391-1.023,0-1.414c0.391-0.391,1.024-0.391,1.414,0l3.566,3.566
		C20.247,16.311,20.247,16.943,19.856,17.334z"/>
	<path fill="#010101" d="M56.478,28.043h-5.043c-0.552,0-1,0.447-1,1c0,0.553,0.448,1,1,1h5.043c0.552,0,1-0.447,1-1
		C57.478,28.49,57.03,28.043,56.478,28.043z"/>
	<path fill="#010101" d="M45.896,17.627c0.256,0,0.512-0.098,0.707-0.293l3.566-3.567c0.39-0.391,0.39-1.023-0.001-1.414
		c-0.391-0.391-1.024-0.391-1.415,0l-3.565,3.567c-0.39,0.391-0.39,1.023,0.001,1.414C45.384,17.529,45.64,17.627,45.896,17.627z"/>
	<path fill="#010101" d="M46.603,42.666c-0.391-0.391-1.024-0.391-1.414,0c-0.391,0.391-0.391,1.024,0,1.414l3.565,3.566
		c0.195,0.195,0.451,0.293,0.707,0.293c0.256,0,0.512-0.098,0.707-0.293c0.391-0.391,0.391-1.023,0-1.414L46.603,42.666z"/>
</g>
</svg>
