<?xml version="1.0" encoding="utf-8"?>
<!-- Generator: Adobe Illustrator 17.0.0, SVG Export Plug-In . SVG Version: 6.00 Build 0)  -->
<!DOCTYPE svg PUBLIC "-//W3C//DTD SVG 1.1//EN" "http://www.w3.org/Graphics/SVG/1.1/DTD/svg11.dtd">
<svg version="1.1" id="Layer_2" xmlns="http://www.w3.org/2000/svg" xmlns:xlink="http://www.w3.org/1999/xlink" x="0px" y="0px"
	 width="60px" height="60px" viewBox="0 0 60 60" enable-background="new 0 0 60 60" xml:space="preserve">
<g>
	<path fill="#010101" d="M48.211,17.899l2.876-2.876l0.553,0.553c0.195,0.195,0.451,0.293,0.707,0.293
		c0.256,0,0.512-0.098,0.707-0.293c0.391-0.391,0.391-1.023,0-1.414l-2.521-2.521c-0.391-0.391-1.023-0.391-1.414,0
		c-0.391,0.391-0.391,1.023,0,1.414l0.554,0.554l-2.884,2.884C42.349,12.46,36.456,10,30,10C16.215,10,5,21.215,5,35
		s11.215,25,25,25c13.785,0,25-11.215,25-25C55,28.389,52.416,22.374,48.211,17.899z M30.359,35.75
		c-0.195,0.195-0.451,0.293-0.707,0.293c-0.256,0-0.512-0.098-0.707-0.293L17.597,24.402c-0.391-0.391-0.391-1.023,0-1.414
		c0.391-0.391,1.023-0.391,1.414,0l11.348,11.348C30.75,34.727,30.75,35.359,30.359,35.75z"/>
	<path fill="#010101" d="M23,2h3v5c0,0.553,0.448,1,1,1h6c0.552,0,1-0.447,1-1V2h3c0.552,0,1-0.447,1-1c0-0.553-0.448-1-1-1h-4h-6
		h-4c-0.552,0-1,0.447-1,1C22,1.553,22.448,2,23,2z"/>
</g>
</svg>
