<?xml version="1.0" encoding="utf-8"?>
<!-- Generator: Adobe Illustrator 17.0.0, SVG Export Plug-In . SVG Version: 6.00 Build 0)  -->
<!DOCTYPE svg PUBLIC "-//W3C//DTD SVG 1.1//EN" "http://www.w3.org/Graphics/SVG/1.1/DTD/svg11.dtd">
<svg version="1.1" id="Layer_2" xmlns="http://www.w3.org/2000/svg" xmlns:xlink="http://www.w3.org/1999/xlink" x="0px" y="0px"
	 width="60px" height="60px" viewBox="0 0 60 60" enable-background="new 0 0 60 60" xml:space="preserve">
<g>
	<path fill="#010101" d="M14.435,37c0-0.553-0.448-1-1-1h-5c-0.552,0-1,0.447-1,1c0,0.553,0.448,1,1,1h5
		C13.987,38,14.435,37.553,14.435,37z"/>
	<path fill="#010101" d="M14.446,24.032c-0.391-0.391-1.023-0.391-1.414,0c-0.391,0.391-0.391,1.024,0,1.414l3.782,3.782
		c0.195,0.195,0.451,0.293,0.707,0.293c0.256,0,0.512-0.098,0.707-0.293c0.391-0.391,0.391-1.023,0-1.414L14.446,24.032z"/>
	<path fill="#010101" d="M26.435,48.957c-0.552,0-1,0.447-1,1V55c0,0.553,0.448,1,1,1c0.552,0,1-0.447,1-1v-5.043
		C27.435,49.404,26.987,48.957,26.435,48.957z"/>
	<path fill="#010101" d="M16.815,45.467l-3.783,3.783c-0.391,0.391-0.391,1.023,0,1.414c0.195,0.195,0.451,0.293,0.707,0.293
		c0.256,0,0.512-0.098,0.707-0.293l3.783-3.783c0.391-0.391,0.391-1.023,0-1.414C17.838,45.076,17.205,45.076,16.815,45.467z"/>
	<path fill="#010101" d="M35.881,45.467c-0.391-0.391-1.023-0.391-1.414,0c-0.391,0.391-0.391,1.023,0,1.414l3.782,3.783
		c0.195,0.195,0.451,0.293,0.707,0.293c0.256,0,0.512-0.098,0.707-0.293c0.391-0.391,0.391-1.023,0-1.414L35.881,45.467z"/>
	<path fill="#010101" d="M44.924,18.924l3.489-3.488l1.184,1.184c0.195,0.195,0.451,0.293,0.707,0.293
		c0.256,0,0.512-0.098,0.707-0.293c0.391-0.391,0.391-1.023,0-1.414l-1.89-1.89c-0.001,0-0.001-0.002-0.001-0.002
		c-0.001-0.001-0.002-0.001-0.003-0.002l-1.889-1.889c-0.391-0.391-1.023-0.391-1.414,0c-0.391,0.391-0.391,1.024,0,1.414
		l1.184,1.184l-3.542,3.542c-4.371-3.775-9.97-6.168-16.022-6.407V6h2c0.552,0,1-0.447,1-1c0-0.553-0.448-1-1-1h-6
		c-0.552,0-1,0.447-1,1c0,0.553,0.448,1,1,1h2v6.131V37c0,0.553,0.448,1,1,1h25.13c0.552,0,1-0.447,1-1
		C52.565,30.045,49.62,23.628,44.924,18.924z M39.663,25.446l-3.782,3.782c-0.195,0.195-0.451,0.293-0.707,0.293
		c-0.256,0-0.512-0.098-0.707-0.293c-0.391-0.391-0.391-1.023,0-1.414l3.782-3.782c0.391-0.391,1.023-0.391,1.414,0
		C40.054,24.423,40.054,25.056,39.663,25.446z"/>
</g>
</svg>
