<?xml version="1.0" encoding="utf-8"?>
<!-- Generator: Adobe Illustrator 17.0.0, SVG Export Plug-In . SVG Version: 6.00 Build 0)  -->
<!DOCTYPE svg PUBLIC "-//W3C//DTD SVG 1.1//EN" "http://www.w3.org/Graphics/SVG/1.1/DTD/svg11.dtd">
<svg version="1.1" id="Layer_2" xmlns="http://www.w3.org/2000/svg" xmlns:xlink="http://www.w3.org/1999/xlink" x="0px" y="0px"
	 width="60px" height="60px" viewBox="0 0 60 60" enable-background="new 0 0 60 60" xml:space="preserve">
<g>
	<path fill="#010101" d="M59.71,10.384l-4.321-4.359L50.414,11l5.012,5.013l4.274-4.212c0.19-0.186,0.297-0.44,0.299-0.706
		C60.002,10.828,59.897,10.573,59.71,10.384z"/>
	<path fill="#010101" d="M53.981,4.604L49.71,0.296C49.523,0.107,49.268,0.001,49.002,0c0,0-0.001,0-0.002,0
		c-0.265,0-0.52,0.106-0.707,0.293L44,4.586l5,5L53.981,4.604z"/>
	<path fill="#010101" d="M35.439,13.148C33.424,12.418,31.263,12,29,12c-10.477,0-19,8.523-19,19c0,2.262,0.418,4.422,1.146,6.436
		L0.295,48.203C0.106,48.391,0,48.646,0,48.913V59c0,0.553,0.448,1,1,1h10.087c0.267,0,0.522-0.106,0.71-0.296l10.767-10.85
		C24.578,49.582,26.738,50,29,50c10.477,0,19-8.523,19-19c0-2.263-0.418-4.424-1.147-6.438l6.854-6.854l0.295-0.291L42.586,6
		L35.439,13.148z M8.565,52.695c-0.701,0-1.261-0.563-1.261-1.26c0-0.697,0.56-1.262,1.261-1.262c0.691,0,1.261,0.564,1.261,1.262
		C9.826,52.132,9.257,52.695,8.565,52.695z M12.348,48.913c-0.7,0-1.261-0.563-1.261-1.261c0-0.697,0.561-1.262,1.261-1.262
		c0.692,0,1.261,0.565,1.261,1.262C13.608,48.35,13.04,48.913,12.348,48.913z M29,48c-9.374,0-17-7.626-17-17s7.626-17,17-17
		s17,7.626,17,17S38.374,48,29,48z"/>
	<path fill="#010101" d="M30,30.856v-5.899c0-0.553-0.448-1-1-1c-0.552,0-1,0.447-1,1v6.304c0,0.259,0.101,0.508,0.281,0.694
		l7.305,7.565c0.196,0.203,0.458,0.306,0.719,0.306c0.25,0,0.5-0.093,0.695-0.28c0.397-0.384,0.408-1.017,0.024-1.414L30,30.856z"/>
</g>
</svg>
