<?xml version="1.0" encoding="utf-8"?>
<!-- Generator: Adobe Illustrator 17.0.0, SVG Export Plug-In . SVG Version: 6.00 Build 0)  -->
<!DOCTYPE svg PUBLIC "-//W3C//DTD SVG 1.1//EN" "http://www.w3.org/Graphics/SVG/1.1/DTD/svg11.dtd">
<svg version="1.1" id="Layer_2" xmlns="http://www.w3.org/2000/svg" xmlns:xlink="http://www.w3.org/1999/xlink" x="0px" y="0px"
	 width="60px" height="60px" viewBox="0 0 60 60" enable-background="new 0 0 60 60" xml:space="preserve">
<g>
	<path fill="#010101" d="M40,13.875V1c0-0.553-0.448-1-1-1H21c-0.552,0-1,0.447-1,1v12.875c-5.392,3.356-9,9.32-9,16.125
		s3.608,12.769,9,16.125V59c0,0.553,0.448,1,1,1h18c0.552,0,1-0.447,1-1V46.125c5.392-3.356,9-9.32,9-16.125
		S45.392,17.231,40,13.875z M30,47c-9.374,0-17-7.626-17-17s7.626-17,17-17s17,7.626,17,17S39.374,47,30,47z"/>
	<path fill="#010101" d="M30,29.527v-7.093c0-0.553-0.448-1-1-1c-0.552,0-1,0.447-1,1V30c0,0.3,0.134,0.583,0.366,0.773l9.217,7.566
		c0.186,0.152,0.411,0.226,0.634,0.226c0.289,0,0.576-0.125,0.773-0.365c0.351-0.427,0.289-1.058-0.139-1.408L30,29.527z"/>
</g>
</svg>
