<?xml version="1.0" encoding="utf-8"?>
<!-- Generator: Adobe Illustrator 17.0.0, SVG Export Plug-In . SVG Version: 6.00 Build 0)  -->
<!DOCTYPE svg PUBLIC "-//W3C//DTD SVG 1.1//EN" "http://www.w3.org/Graphics/SVG/1.1/DTD/svg11.dtd">
<svg version="1.1" id="Layer_1" xmlns="http://www.w3.org/2000/svg" xmlns:xlink="http://www.w3.org/1999/xlink" x="0px" y="0px"
	 width="60px" height="60px" viewBox="0 0 60 60" enable-background="new 0 0 60 60" xml:space="preserve">
<g>
	<path fill="#231F20" d="M30,0C13.458,0,0,13.458,0,30s13.458,30,30,30s30-13.458,30-30S46.542,0,30,0z M30,58
		C14.56,58,2,45.44,2,30S14.56,2,30,2s28,12.56,28,28S45.44,58,30,58z"/>
	<path fill="#231F20" d="M26.414,24l3.793-3.793c1.769-1.768,1.769-4.646,0-6.414c-0.856-0.857-1.996-1.329-3.207-1.329
		s-2.351,0.472-3.207,1.329l-15.5,15.5c-0.391,0.391-0.391,1.023,0,1.414l15.5,15.5c0.856,0.857,1.996,1.329,3.207,1.329
		s2.351-0.472,3.207-1.329c1.769-1.768,1.769-4.646,0-6.414L26.414,36H46c3.309,0,6-2.691,6-6s-2.691-6-6-6H26.414z M50,30
		c0,2.206-1.794,4-4,4H24c-0.404,0-0.769,0.244-0.924,0.617c-0.155,0.374-0.069,0.804,0.217,1.09l5.5,5.5
		c0.989,0.989,0.989,2.597,0,3.586c-0.958,0.958-2.628,0.958-3.586,0L10.414,30l14.793-14.793c0.958-0.958,2.628-0.958,3.586,0
		c0.989,0.989,0.989,2.597,0,3.586l-5.5,5.5c-0.286,0.286-0.372,0.716-0.217,1.09C23.231,25.756,23.596,26,24,26h22
		C48.206,26,50,27.794,50,30z"/>
</g>
</svg>
