<?xml version="1.0" encoding="utf-8"?>
<!-- Generator: Adobe Illustrator 17.0.0, SVG Export Plug-In . SVG Version: 6.00 Build 0)  -->
<!DOCTYPE svg PUBLIC "-//W3C//DTD SVG 1.1//EN" "http://www.w3.org/Graphics/SVG/1.1/DTD/svg11.dtd">
<svg version="1.1" id="Layer_1" xmlns="http://www.w3.org/2000/svg" xmlns:xlink="http://www.w3.org/1999/xlink" x="0px" y="0px"
	 width="60px" height="60px" viewBox="0 0 60 60" enable-background="new 0 0 60 60" xml:space="preserve">
<g>
	<path fill="#231F20" d="M1,40h35v12c0,0.404,0.244,0.769,0.617,0.924C36.742,52.975,36.872,53,37,53
		c0.26,0,0.516-0.102,0.707-0.293l22-22c0.391-0.391,0.391-1.023,0-1.414l-22-22c-0.287-0.287-0.716-0.373-1.09-0.217
		C36.244,7.231,36,7.596,36,8v12H1c-0.552,0-1,0.448-1,1v18C0,39.552,0.448,40,1,40z M2,22h35c0.552,0,1-0.448,1-1V10.414L57.586,30
		L38,49.586V39c0-0.552-0.448-1-1-1H2V22z"/>
</g>
</svg>
