<?xml version="1.0" encoding="utf-8"?>
<!-- Generator: Adobe Illustrator 17.0.0, SVG Export Plug-In . SVG Version: 6.00 Build 0)  -->
<!DOCTYPE svg PUBLIC "-//W3C//DTD SVG 1.1//EN" "http://www.w3.org/Graphics/SVG/1.1/DTD/svg11.dtd">
<svg version="1.1" id="Layer_1" xmlns="http://www.w3.org/2000/svg" xmlns:xlink="http://www.w3.org/1999/xlink" x="0px" y="0px"
	 width="60px" height="60px" viewBox="0 0 60 60" enable-background="new 0 0 60 60" xml:space="preserve">
<g>
	<path fill="#231F20" d="M29.344,60c4.411,0,8-3.589,8-8V26.414l5.293,5.293c1.257,1.257,2.929,1.95,4.707,1.95
		c1.778,0,3.45-0.692,4.707-1.95c2.596-2.595,2.596-6.819,0-9.414l-22-22c-0.391-0.391-1.023-0.391-1.414,0l-22,22
		c-2.596,2.595-2.596,6.819,0,9.414c1.257,1.257,2.929,1.95,4.707,1.95c1.778,0,3.45-0.692,4.707-1.95l5.293-5.293V52
		C21.344,56.411,24.933,60,29.344,60z M14.637,30.293c-0.88,0.879-2.049,1.364-3.293,1.364c-1.244,0-2.413-0.484-3.293-1.364
		c-1.815-1.816-1.815-4.77,0-6.586L29.344,2.414l21.293,21.293c1.815,1.816,1.815,4.77,0,6.586c-0.88,0.879-2.049,1.364-3.293,1.364
		c-1.244,0-2.413-0.484-3.293-1.364l-7-7c-0.286-0.286-0.716-0.371-1.09-0.217c-0.374,0.155-0.617,0.52-0.617,0.924v28
		c0,3.309-2.692,6-6,6c-3.309,0-6-2.691-6-6V24c0-0.404-0.243-0.769-0.617-0.924C22.602,23.025,22.473,23,22.344,23
		c-0.26,0-0.516,0.102-0.707,0.293L14.637,30.293z"/>
</g>
</svg>
