<?xml version="1.0" encoding="utf-8"?>
<!-- Generator: Adobe Illustrator 17.0.0, SVG Export Plug-In . SVG Version: 6.00 Build 0)  -->
<!DOCTYPE svg PUBLIC "-//W3C//DTD SVG 1.1//EN" "http://www.w3.org/Graphics/SVG/1.1/DTD/svg11.dtd">
<svg version="1.1" id="Layer_1" xmlns="http://www.w3.org/2000/svg" xmlns:xlink="http://www.w3.org/1999/xlink" x="0px" y="0px"
	 width="60px" height="60px" viewBox="0 0 60 60" enable-background="new 0 0 60 60" xml:space="preserve">
<g>
	<path fill="#231F20" d="M35.586,50l-8.293,8.293c-0.286,0.286-0.372,0.716-0.217,1.09C27.23,59.756,27.596,60,28,60h31
		c0.553,0,1-0.448,1-1V28c0-0.404-0.243-0.769-0.617-0.924c-0.374-0.155-0.804-0.07-1.09,0.217L50,35.586L24.707,10.293
		c-0.391-0.391-1.023-0.391-1.414,0l-13,13c-0.391,0.391-0.391,1.023,0,1.414L35.586,50z M24,12.414l25.293,25.293
		c0.391,0.391,1.023,0.391,1.414,0L58,30.414V58H30.414l7.293-7.293c0.391-0.391,0.391-1.023,0-1.414L12.414,24L24,12.414z"/>
</g>
</svg>
