<?xml version="1.0" encoding="utf-8"?>
<!-- Generator: Adobe Illustrator 17.0.0, SVG Export Plug-In . SVG Version: 6.00 Build 0)  -->
<!DOCTYPE svg PUBLIC "-//W3C//DTD SVG 1.1//EN" "http://www.w3.org/Graphics/SVG/1.1/DTD/svg11.dtd">
<svg version="1.1" id="Layer_1" xmlns="http://www.w3.org/2000/svg" xmlns:xlink="http://www.w3.org/1999/xlink" x="0px" y="0px"
	 width="60px" height="60px" viewBox="0 0 60 60" enable-background="new 0 0 60 60" xml:space="preserve">
<g>
	<path fill="#231F20" d="M1,60h30c3.859,0,7-3.14,7-7c0-3.86-3.141-7-7-7h-5.586l19.293-19.293c3.146-3.147,3.146-8.267,0-11.414
		c-1.523-1.524-3.551-2.364-5.707-2.364c-2.156,0-4.184,0.84-5.707,2.364L14,34.586V27c0-3.86-3.141-7-7-7c-3.859,0-7,3.14-7,7v32
		C0,59.552,0.447,60,1,60z M2,27c0-2.757,2.243-5,5-5c2.757,0,5,2.243,5,5v10c0,0.404,0.243,0.769,0.617,0.924
		c0.374,0.154,0.804,0.069,1.09-0.217l21-21c1.146-1.147,2.671-1.778,4.293-1.778c1.622,0,3.146,0.631,4.293,1.778
		c2.366,2.367,2.366,6.219,0,8.586l-21,21c-0.286,0.286-0.372,0.716-0.217,1.09C22.23,47.756,22.596,48,23,48h8c2.757,0,5,2.243,5,5
		c0,2.757-2.243,5-5,5H2V27z"/>
</g>
</svg>
