<?xml version="1.0" encoding="utf-8"?>
<!-- Generator: Adobe Illustrator 17.0.0, SVG Export Plug-In . SVG Version: 6.00 Build 0)  -->
<!DOCTYPE svg PUBLIC "-//W3C//DTD SVG 1.1//EN" "http://www.w3.org/Graphics/SVG/1.1/DTD/svg11.dtd">
<svg version="1.1" id="Layer_1" xmlns="http://www.w3.org/2000/svg" xmlns:xlink="http://www.w3.org/1999/xlink" x="0px" y="0px"
	 width="60px" height="60px" viewBox="0 0 60 60" enable-background="new 0 0 60 60" xml:space="preserve">
<g>
	<path fill="#231F20" d="M29.293,36.707C29.488,36.902,29.744,37,30,37s0.512-0.098,0.707-0.293l21-21
		C51.894,15.519,52,15.265,52,15V1c0-0.404-0.244-0.769-0.617-0.924c-0.375-0.155-0.804-0.07-1.09,0.217L30,20.586L9.707,0.293
		C9.42,0.006,8.991-0.079,8.617,0.076C8.244,0.231,8,0.596,8,1v14c0,0.265,0.105,0.519,0.293,0.707L29.293,36.707z M10,3.414
		l19.293,19.293c0.391,0.391,1.023,0.391,1.414,0L50,3.414v11.172l-20,20l-20-20V3.414z"/>
	<path fill="#231F20" d="M29.293,59.707C29.488,59.902,29.744,60,30,60s0.512-0.098,0.707-0.293l21-21
		C51.894,38.519,52,38.265,52,38V24c0-0.404-0.244-0.769-0.617-0.924c-0.375-0.156-0.804-0.07-1.09,0.217L30,43.586L9.707,23.293
		c-0.287-0.287-0.716-0.373-1.09-0.217C8.244,23.231,8,23.596,8,24v14c0,0.265,0.105,0.519,0.293,0.707L29.293,59.707z M10,26.414
		l19.293,19.293c0.391,0.391,1.023,0.391,1.414,0L50,26.414v11.172l-20,20l-20-20V26.414z"/>
</g>
</svg>
