<?xml version="1.0" encoding="utf-8"?>
<!-- Generator: Adobe Illustrator 17.0.0, SVG Export Plug-In . SVG Version: 6.00 Build 0)  -->
<!DOCTYPE svg PUBLIC "-//W3C//DTD SVG 1.1//EN" "http://www.w3.org/Graphics/SVG/1.1/DTD/svg11.dtd">
<svg version="1.1" id="Layer_1" xmlns="http://www.w3.org/2000/svg" xmlns:xlink="http://www.w3.org/1999/xlink" x="0px" y="0px"
	 width="60px" height="60px" viewBox="0 0 60 60" enable-background="new 0 0 60 60" xml:space="preserve">
<g>
	<path fill="#231F20" d="M26.343,54.657c1.778,0,3.45-0.692,4.707-1.95c2.596-2.595,2.596-6.819,0-9.414L25.757,38h25.586
		c4.411,0,8-3.589,8-8c0-4.411-3.589-8-8-8H25.757l5.293-5.293c2.596-2.595,2.596-6.819,0-9.414c-1.257-1.257-2.929-1.95-4.707-1.95
		c-1.778,0-3.45,0.692-4.707,1.95l-22,22c-0.391,0.391-0.391,1.023,0,1.414l22,22C22.894,53.964,24.565,54.657,26.343,54.657z
		 M23.05,8.707c0.879-0.879,2.049-1.364,3.293-1.364c1.244,0,2.414,0.484,3.293,1.364c1.815,1.816,1.815,4.77,0,6.586l-7,7
		c-0.286,0.286-0.372,0.716-0.217,1.09C22.574,23.756,22.939,24,23.343,24h28c3.309,0,6,2.691,6,6s-2.691,6-6,6h-28
		c-0.404,0-0.769,0.244-0.924,0.617c-0.155,0.374-0.069,0.804,0.217,1.09l7,7c1.815,1.816,1.815,4.77,0,6.586
		c-0.879,0.879-2.049,1.364-3.293,1.364c-1.244,0-2.414-0.484-3.293-1.364L1.757,30L23.05,8.707z"/>
</g>
</svg>
