<?xml version="1.0" encoding="utf-8"?>
<!-- Generator: Adobe Illustrator 17.0.0, SVG Export Plug-In . SVG Version: 6.00 Build 0)  -->
<!DOCTYPE svg PUBLIC "-//W3C//DTD SVG 1.1//EN" "http://www.w3.org/Graphics/SVG/1.1/DTD/svg11.dtd">
<svg version="1.1" id="Layer_1" xmlns="http://www.w3.org/2000/svg" xmlns:xlink="http://www.w3.org/1999/xlink" x="0px" y="0px"
	 width="60px" height="60px" viewBox="0 0 60 60" enable-background="new 0 0 60 60" xml:space="preserve">
<g>
	<path fill="#231F20" d="M26.293,56.707C26.488,56.902,26.744,57,27,57s0.512-0.098,0.707-0.293l8-8
		c0.391-0.391,0.391-1.023,0-1.414L26.414,38H59c0.552,0,1-0.448,1-1V23c0-0.552-0.448-1-1-1H26.414l9.293-9.293
		c0.391-0.391,0.391-1.023,0-1.414l-8-8c-0.391-0.391-1.023-0.391-1.414,0l-26,26c-0.391,0.391-0.391,1.023,0,1.414L26.293,56.707z
		 M27,5.414L33.586,12L23.293,22.293c-0.286,0.286-0.372,0.716-0.217,1.09C23.231,23.756,23.596,24,24,24h34v12H24
		c-0.404,0-0.769,0.244-0.924,0.617c-0.155,0.374-0.069,0.804,0.217,1.09L33.586,48L27,54.586L2.414,30L27,5.414z"/>
</g>
</svg>
