<?xml version="1.0" encoding="utf-8"?>
<!-- Generator: Adobe Illustrator 17.0.0, SVG Export Plug-In . SVG Version: 6.00 Build 0)  -->
<!DOCTYPE svg PUBLIC "-//W3C//DTD SVG 1.1//EN" "http://www.w3.org/Graphics/SVG/1.1/DTD/svg11.dtd">
<svg version="1.1" id="Layer_1" xmlns="http://www.w3.org/2000/svg" xmlns:xlink="http://www.w3.org/1999/xlink" x="0px" y="0px"
	 width="60px" height="60px" viewBox="0 0 60 60" enable-background="new 0 0 60 60" xml:space="preserve">
<g>
	<path fill="#231F20" d="M57.213,7.29l-7-7c-0.391-0.391-1.023-0.391-1.414,0L30.506,18.583L12.213,0.29
		c-0.391-0.391-1.023-0.391-1.414,0l-7,7c-0.391,0.391-0.391,1.023,0,1.414l26,26c0.195,0.195,0.451,0.293,0.707,0.293
		c0.256,0,0.512-0.098,0.707-0.293l26-26C57.604,8.313,57.604,7.681,57.213,7.29z M30.506,32.583L5.92,7.997l5.586-5.586
		l18.293,18.293c0.391,0.391,1.023,0.391,1.414,0L49.506,2.411l5.586,5.586L30.506,32.583z"/>
	<path fill="#231F20" d="M57.213,32.29l-7-7c-0.391-0.391-1.023-0.391-1.414,0L30.506,43.583L12.213,25.29
		c-0.391-0.391-1.023-0.391-1.414,0l-7,7c-0.391,0.391-0.391,1.023,0,1.414l26,26c0.195,0.195,0.451,0.293,0.707,0.293
		c0.256,0,0.512-0.098,0.707-0.293l26-26C57.604,33.313,57.604,32.681,57.213,32.29z M30.506,57.583L5.92,32.997l5.586-5.586
		l18.293,18.293c0.391,0.391,1.023,0.391,1.414,0l18.293-18.293l5.586,5.586L30.506,57.583z"/>
</g>
</svg>
