<?xml version="1.0" encoding="utf-8"?>
<!-- Generator: Adobe Illustrator 17.0.0, SVG Export Plug-In . SVG Version: 6.00 Build 0)  -->
<!DOCTYPE svg PUBLIC "-//W3C//DTD SVG 1.1//EN" "http://www.w3.org/Graphics/SVG/1.1/DTD/svg11.dtd">
<svg version="1.1" id="Layer_1" xmlns="http://www.w3.org/2000/svg" xmlns:xlink="http://www.w3.org/1999/xlink" x="0px" y="0px"
	 width="60px" height="60px" viewBox="0 0 60 60" enable-background="new 0 0 60 60" xml:space="preserve">
<g>
	<path fill="#231F20" d="M7.344,38H32.93l-5.293,5.293c-2.596,2.595-2.596,6.819,0,9.414c1.257,1.257,2.929,1.95,4.707,1.95
		c1.778,0,3.45-0.692,4.707-1.95l22-22c0.391-0.391,0.391-1.023,0-1.414l-22-22c-1.257-1.257-2.929-1.95-4.707-1.95
		c-1.778,0-3.45,0.692-4.707,1.95c-2.596,2.595-2.596,6.819,0,9.414L32.93,22H7.344c-4.411,0-8,3.589-8,8
		C-0.656,34.411,2.933,38,7.344,38z M7.344,24h28c0.404,0,0.769-0.244,0.924-0.617c0.155-0.374,0.069-0.804-0.217-1.09l-7-7
		c-1.815-1.816-1.815-4.77,0-6.586c0.88-0.879,2.049-1.364,3.293-1.364c1.244,0,2.413,0.484,3.293,1.364L56.93,30L35.637,51.293
		c-0.88,0.879-2.049,1.364-3.293,1.364c-1.244,0-2.413-0.484-3.293-1.364c-1.815-1.816-1.815-4.77,0-6.586l7-7
		c0.286-0.286,0.372-0.716,0.217-1.09C36.113,36.244,35.748,36,35.344,36h-28c-3.309,0-6-2.691-6-6S4.035,24,7.344,24z"/>
</g>
</svg>
