<?xml version="1.0" encoding="utf-8"?>
<!-- Generator: Adobe Illustrator 17.0.0, SVG Export Plug-In . SVG Version: 6.00 Build 0)  -->
<!DOCTYPE svg PUBLIC "-//W3C//DTD SVG 1.1//EN" "http://www.w3.org/Graphics/SVG/1.1/DTD/svg11.dtd">
<svg version="1.1" id="Layer_1" xmlns="http://www.w3.org/2000/svg" xmlns:xlink="http://www.w3.org/1999/xlink" x="0px" y="0px"
	 width="60px" height="60px" viewBox="0 0 60 60" enable-background="new 0 0 60 60" xml:space="preserve">
<g>
	<path fill="#231F20" d="M29.344,0c-4.411,0-8,3.589-8,8v25.586l-5.293-5.293c-1.257-1.257-2.929-1.95-4.707-1.95
		c-1.778,0-3.45,0.692-4.707,1.95c-2.596,2.595-2.596,6.819,0,9.414l22,22C28.832,59.902,29.088,60,29.344,60
		c0.256,0,0.512-0.098,0.707-0.293l22-22c2.596-2.595,2.596-6.819,0-9.414c-1.257-1.257-2.929-1.95-4.707-1.95
		c-1.778,0-3.45,0.692-4.707,1.95l-5.293,5.293V8C37.344,3.589,33.755,0,29.344,0z M44.051,29.707
		c0.88-0.879,2.049-1.364,3.293-1.364c1.244,0,2.413,0.484,3.293,1.364c1.815,1.816,1.815,4.77,0,6.586L29.344,57.586L8.051,36.293
		c-1.815-1.816-1.815-4.77,0-6.586c0.88-0.879,2.049-1.364,3.293-1.364c1.244,0,2.413,0.484,3.293,1.364l7,7
		c0.286,0.287,0.716,0.373,1.09,0.217c0.374-0.155,0.617-0.519,0.617-0.924V8c0-3.309,2.691-6,6-6c3.309,0,6,2.691,6,6v28
		c0,0.404,0.243,0.769,0.617,0.924c0.375,0.155,0.804,0.07,1.09-0.217L44.051,29.707z"/>
</g>
</svg>
