<?xml version="1.0" encoding="utf-8"?>
<!-- Generator: Adobe Illustrator 17.0.0, SVG Export Plug-In . SVG Version: 6.00 Build 0)  -->
<!DOCTYPE svg PUBLIC "-//W3C//DTD SVG 1.1//EN" "http://www.w3.org/Graphics/SVG/1.1/DTD/svg11.dtd">
<svg version="1.1" id="Layer_1" xmlns="http://www.w3.org/2000/svg" xmlns:xlink="http://www.w3.org/1999/xlink" x="0px" y="0px"
	 width="60px" height="60px" viewBox="0 0 60 60" enable-background="new 0 0 60 60" xml:space="preserve">
<g>
	<path fill="#231F20" d="M30,60c16.542,0,30-13.458,30-30S46.542,0,30,0S0,13.458,0,30S13.458,60,30,60z M30,2
		c15.439,0,28,12.56,28,28S45.439,58,30,58C14.56,58,2,45.44,2,30S14.56,2,30,2z"/>
	<path fill="#231F20" d="M29.117,47.471C29.291,47.797,29.631,48,30,48c0.369,0,0.709-0.203,0.883-0.529l16-30
		c0.165-0.31,0.155-0.684-0.025-0.985C46.677,16.185,46.352,16,46,16H14c-0.352,0-0.677,0.185-0.857,0.485
		c-0.181,0.302-0.19,0.676-0.025,0.985L29.117,47.471z M44.333,18L30,44.875L15.667,18H44.333z"/>
</g>
</svg>
