<?xml version="1.0" encoding="utf-8"?>
<!-- Generator: Adobe Illustrator 17.0.0, SVG Export Plug-In . SVG Version: 6.00 Build 0)  -->
<!DOCTYPE svg PUBLIC "-//W3C//DTD SVG 1.1//EN" "http://www.w3.org/Graphics/SVG/1.1/DTD/svg11.dtd">
<svg version="1.1" id="Layer_1" xmlns="http://www.w3.org/2000/svg" xmlns:xlink="http://www.w3.org/1999/xlink" x="0px" y="0px"
	 width="60px" height="60px" viewBox="0 0 60 60" enable-background="new 0 0 60 60" xml:space="preserve">
<g>
	<path fill="#231F20" d="M12.213,59.704l18.293-18.293l18.293,18.293c0.195,0.195,0.451,0.293,0.707,0.293
		c0.256,0,0.512-0.098,0.707-0.293l7-7c0.391-0.391,0.391-1.023,0-1.414l-26-26c-0.391-0.391-1.023-0.391-1.414,0l-26,26
		c-0.391,0.391-0.391,1.023,0,1.414l7,7C11.19,60.095,11.822,60.095,12.213,59.704z M30.506,27.411l24.586,24.586l-5.586,5.586
		L31.213,39.29c-0.195-0.195-0.451-0.293-0.707-0.293c-0.256,0-0.512,0.098-0.707,0.293L11.506,57.583L5.92,51.997L30.506,27.411z"
		/>
	<path fill="#231F20" d="M31.213,0.29c-0.391-0.391-1.023-0.391-1.414,0l-26,26c-0.391,0.391-0.391,1.023,0,1.414l7,7
		c0.391,0.391,1.023,0.391,1.414,0l18.293-18.293l18.293,18.293c0.195,0.195,0.451,0.293,0.707,0.293
		c0.256,0,0.512-0.098,0.707-0.293l7-7c0.391-0.391,0.391-1.023,0-1.414L31.213,0.29z M49.506,32.583L31.213,14.29
		c-0.195-0.195-0.451-0.293-0.707-0.293c-0.256,0-0.512,0.098-0.707,0.293L11.506,32.583L5.92,26.997L30.506,2.411l24.586,24.586
		L49.506,32.583z"/>
</g>
</svg>
