<?xml version="1.0" encoding="utf-8"?>
<!-- Generator: Adobe Illustrator 17.0.0, SVG Export Plug-In . SVG Version: 6.00 Build 0)  -->
<!DOCTYPE svg PUBLIC "-//W3C//DTD SVG 1.1//EN" "http://www.w3.org/Graphics/SVG/1.1/DTD/svg11.dtd">
<svg version="1.1" id="Layer_1" xmlns="http://www.w3.org/2000/svg" xmlns:xlink="http://www.w3.org/1999/xlink" x="0px" y="0px"
	 width="60px" height="60px" viewBox="0 0 60 60" enable-background="new 0 0 60 60" xml:space="preserve">
<g>
	<path fill="#231F20" d="M45.667,30L29.374,46.293c-0.286,0.286-0.372,0.716-0.217,1.09C29.311,47.756,29.677,48,30.081,48h12
		c0.266,0,0.519-0.106,0.707-0.293l17-17c0.391-0.391,0.391-1.023,0-1.414l-17-17C42.601,12.105,42.347,12,42.081,12h-12
		c-0.404,0-0.77,0.244-0.924,0.617c-0.155,0.374-0.069,0.804,0.217,1.09L45.667,30z M41.667,14l16,16l-16,16h-9.172l15.293-15.293
		c0.391-0.391,0.391-1.023,0-1.414L32.495,14H41.667z"/>
	<path fill="#231F20" d="M27.667,30L11.374,46.293c-0.286,0.286-0.372,0.716-0.217,1.09C11.311,47.756,11.677,48,12.081,48h8
		c0.266,0,0.519-0.106,0.707-0.293l17-17c0.391-0.391,0.391-1.023,0-1.414l-17-17C20.601,12.105,20.347,12,20.081,12h-8
		c-0.404,0-0.77,0.244-0.924,0.617c-0.155,0.374-0.069,0.804,0.217,1.09L27.667,30z M19.667,14l16,16l-16,16h-5.172l15.293-15.293
		c0.391-0.391,0.391-1.023,0-1.414L14.495,14H19.667z"/>
	<path fill="#231F20" d="M0.374,47.707C0.569,47.902,0.825,48,1.081,48c0.256,0,0.512-0.098,0.707-0.293l17-17
		c0.391-0.391,0.391-1.023,0-1.414l-17-17c-0.391-0.391-1.023-0.391-1.414,0c-0.391,0.391-0.391,1.023,0,1.414L16.667,30
		L0.374,46.293C-0.017,46.684-0.017,47.316,0.374,47.707z"/>
</g>
</svg>
