<?xml version="1.0" encoding="utf-8"?>
<!-- Generator: Adobe Illustrator 17.0.0, SVG Export Plug-In . SVG Version: 6.00 Build 0)  -->
<!DOCTYPE svg PUBLIC "-//W3C//DTD SVG 1.1//EN" "http://www.w3.org/Graphics/SVG/1.1/DTD/svg11.dtd">
<svg version="1.1" id="Layer_1" xmlns="http://www.w3.org/2000/svg" xmlns:xlink="http://www.w3.org/1999/xlink" x="0px" y="0px"
	 width="60px" height="60px" viewBox="0 0 60 60" enable-background="new 0 0 60 60" xml:space="preserve">
<g>
	<path fill="#231F20" d="M10.618,42.017c0.374,0.154,0.803,0.069,1.09-0.217l12.293-12.293v21.586c0,0.552,0.448,1,1,1h10
		c0.552,0,1-0.448,1-1V29.507L48.294,41.8c0.286,0.286,0.714,0.371,1.09,0.217c0.373-0.155,0.617-0.52,0.617-0.924v-13
		c0-0.265-0.105-0.52-0.293-0.707l-19-19c-0.375-0.375-1.039-0.375-1.414,0l-19,19c-0.188,0.188-0.293,0.442-0.293,0.707v13
		C10.001,41.498,10.245,41.862,10.618,42.017z M12.001,28.507l18-18l18,18v10.172L35.708,26.386
		c-0.287-0.287-0.716-0.372-1.09-0.217c-0.374,0.155-0.617,0.52-0.617,0.924v23h-8v-23c0-0.404-0.244-0.769-0.617-0.924
		c-0.375-0.154-0.803-0.07-1.09,0.217L12.001,38.679V28.507z"/>
	<path fill="#231F20" d="M59,0.093H1c-0.552,0-1,0.448-1,1v58c0,0.552,0.448,1,1,1h58c0.552,0,1-0.448,1-1v-58
		C60,0.541,59.553,0.093,59,0.093z M58,58.093H2v-56h56V58.093z"/>
</g>
</svg>
