<?xml version="1.0" encoding="utf-8"?>
<!-- Generator: Adobe Illustrator 17.0.0, SVG Export Plug-In . SVG Version: 6.00 Build 0)  -->
<!DOCTYPE svg PUBLIC "-//W3C//DTD SVG 1.1//EN" "http://www.w3.org/Graphics/SVG/1.1/DTD/svg11.dtd">
<svg version="1.1" id="Layer_1" xmlns="http://www.w3.org/2000/svg" xmlns:xlink="http://www.w3.org/1999/xlink" x="0px" y="0px"
	 width="60px" height="60px" viewBox="0 0 60 60" enable-background="new 0 0 60 60" xml:space="preserve">
<g>
	<path fill="#231F20" d="M25.293,55.707C25.48,55.894,25.734,56,26,56h18c0.404,0,0.769-0.244,0.924-0.617
		c0.155-0.374,0.069-0.804-0.217-1.09L28.414,38H59c0.553,0,1-0.448,1-1V23c0-0.552-0.447-1-1-1H28.414L44.707,5.707
		c0.286-0.286,0.372-0.716,0.217-1.09C44.769,4.244,44.404,4,44,4H26c-0.266,0-0.52,0.105-0.707,0.293l-25,25
		c-0.391,0.391-0.391,1.023,0,1.414L25.293,55.707z M26.414,6h15.172L25.293,22.293c-0.286,0.286-0.372,0.716-0.217,1.09
		C25.23,23.756,25.596,24,26,24h32v12H26c-0.404,0-0.77,0.244-0.924,0.617c-0.155,0.374-0.069,0.804,0.217,1.09L41.586,54H26.414
		l-24-24L26.414,6z"/>
</g>
</svg>
