<?xml version="1.0" encoding="utf-8"?>
<!-- Generator: Adobe Illustrator 17.0.0, SVG Export Plug-In . SVG Version: 6.00 Build 0)  -->
<!DOCTYPE svg PUBLIC "-//W3C//DTD SVG 1.1//EN" "http://www.w3.org/Graphics/SVG/1.1/DTD/svg11.dtd">
<svg version="1.1" id="Layer_1" xmlns="http://www.w3.org/2000/svg" xmlns:xlink="http://www.w3.org/1999/xlink" x="0px" y="0px"
	 width="60px" height="60px" viewBox="0 0 60 60" enable-background="new 0 0 60 60" xml:space="preserve">
<g>
	<path fill="#231F20" d="M30.707,12.293c-0.391-0.391-1.023-0.391-1.414,0l-29,29c-0.391,0.391-0.391,1.023,0,1.414l5,5
		c0.391,0.391,1.023,0.391,1.414,0L30,24.414l23.293,23.293C53.488,47.902,53.744,48,54,48c0.256,0,0.512-0.098,0.707-0.293l5-5
		c0.391-0.391,0.391-1.023,0-1.414L30.707,12.293z M54,45.586L30.707,22.293C30.512,22.098,30.256,22,30,22
		c-0.256,0-0.512,0.098-0.707,0.293L6,45.586L2.414,42L30,14.414L57.586,42L54,45.586z"/>
</g>
</svg>
