<?xml version="1.0" encoding="utf-8"?>
<!-- Generator: Adobe Illustrator 17.0.0, SVG Export Plug-In . SVG Version: 6.00 Build 0)  -->
<!DOCTYPE svg PUBLIC "-//W3C//DTD SVG 1.1//EN" "http://www.w3.org/Graphics/SVG/1.1/DTD/svg11.dtd">
<svg version="1.1" id="Layer_1" xmlns="http://www.w3.org/2000/svg" xmlns:xlink="http://www.w3.org/1999/xlink" x="0px" y="0px"
	 width="60px" height="60px" viewBox="0 0 60 60" enable-background="new 0 0 60 60" xml:space="preserve">
<g>
	<path fill="#231F20" d="M8.617,59.924c0.374,0.154,0.803,0.069,1.09-0.217L30,39.414l20.293,20.293C50.484,59.898,50.74,60,51,60
		c0.129,0,0.259-0.025,0.383-0.076C51.756,59.769,52,59.404,52,59V45c0-0.265-0.106-0.52-0.293-0.707l-21-21
		c-0.391-0.391-1.023-0.391-1.414,0l-21,21C8.105,44.48,8,44.735,8,45v14C8,59.404,8.244,59.769,8.617,59.924z M10,45.414l20-20
		l20,20v11.172L30.707,37.293C30.512,37.098,30.256,37,30,37s-0.512,0.098-0.707,0.293L10,56.586V45.414z"/>
	<path fill="#231F20" d="M8.617,36.924c0.374,0.153,0.803,0.069,1.09-0.217L30,16.414l20.293,20.293C50.484,36.898,50.74,37,51,37
		c0.129,0,0.259-0.025,0.383-0.076C51.756,36.769,52,36.404,52,36V22c0-0.265-0.106-0.52-0.293-0.707l-21-21
		c-0.391-0.391-1.023-0.391-1.414,0l-21,21C8.105,21.48,8,21.735,8,22v14C8,36.404,8.244,36.769,8.617,36.924z M10,22.414l20-20
		l20,20v11.172L30.707,14.293C30.512,14.098,30.256,14,30,14s-0.512,0.098-0.707,0.293L10,33.586V22.414z"/>
</g>
</svg>
