<?xml version="1.0" encoding="utf-8"?>
<!-- Generator: Adobe Illustrator 17.0.0, SVG Export Plug-In . SVG Version: 6.00 Build 0)  -->
<!DOCTYPE svg PUBLIC "-//W3C//DTD SVG 1.1//EN" "http://www.w3.org/Graphics/SVG/1.1/DTD/svg11.dtd">
<svg version="1.1" id="Layer_1" xmlns="http://www.w3.org/2000/svg" xmlns:xlink="http://www.w3.org/1999/xlink" x="0px" y="0px"
	 width="60px" height="60px" viewBox="0 0 60 60" enable-background="new 0 0 60 60" xml:space="preserve">
<g>
	<path fill="#231F20" d="M30.105,0.105c-8.013,0-15.547,3.121-21.213,8.787c-5.667,5.666-8.787,13.2-8.787,21.213
		c0,8.013,3.121,15.547,8.787,21.213c5.666,5.667,13.2,8.788,21.213,8.788c8.014,0,15.547-3.121,21.213-8.787
		c5.667-5.666,8.787-13.2,8.787-21.213c0-8.013-3.121-15.547-8.788-21.213C45.652,3.226,38.119,0.105,30.105,0.105z M49.905,49.905
		c-5.289,5.289-12.32,8.201-19.799,8.201s-14.51-2.913-19.799-8.202c-5.289-5.289-8.201-12.32-8.201-19.799
		s2.913-14.51,8.201-19.799c5.289-5.289,12.32-8.201,19.799-8.201s14.51,2.913,19.799,8.201c5.289,5.289,8.202,12.32,8.202,19.799
		S55.193,44.616,49.905,49.905z"/>
	<path fill="#231F20" d="M41.812,11.398c-0.391-0.391-1.023-0.391-1.414,0L24.105,27.691v-8.586c0-0.552-0.448-1-1-1h-8
		c-0.552,0-1,0.448-1,1v26c0,0.552,0.448,1,1,1h26c0.552,0,1-0.448,1-1v-8c0-0.552-0.448-1-1-1h-8.586l16.293-16.293
		c0.391-0.391,0.391-1.023,0-1.414L41.812,11.398z M29.398,36.398c-0.286,0.286-0.371,0.716-0.217,1.09
		c0.155,0.373,0.52,0.617,0.924,0.617h10v6h-24v-24h6v10c0,0.404,0.244,0.769,0.617,0.924c0.374,0.154,0.804,0.069,1.09-0.217
		l17.293-17.293l5.586,5.586L29.398,36.398z"/>
</g>
</svg>
