<?xml version="1.0" encoding="utf-8"?>
<!-- Generator: Adobe Illustrator 17.0.0, SVG Export Plug-In . SVG Version: 6.00 Build 0)  -->
<!DOCTYPE svg PUBLIC "-//W3C//DTD SVG 1.1//EN" "http://www.w3.org/Graphics/SVG/1.1/DTD/svg11.dtd">
<svg version="1.1" id="Layer_1" xmlns="http://www.w3.org/2000/svg" xmlns:xlink="http://www.w3.org/1999/xlink" x="0px" y="0px"
	 width="60px" height="60px" viewBox="0 0 60 60" enable-background="new 0 0 60 60" xml:space="preserve">
<g>
	<path fill="#231F20" d="M30,0C13.458,0,0,13.458,0,30s13.458,30,30,30s30-13.458,30-30S46.542,0,30,0z M30,58
		C14.56,58,2,45.44,2,30S14.56,2,30,2s28,12.56,28,28S45.44,58,30,58z"/>
	<path fill="#231F20" d="M39.293,24.293L30,33.586l-9.293-9.293C20.519,24.105,20.265,24,20,24H10c-0.404,0-0.769,0.243-0.924,0.617
		c-0.155,0.374-0.069,0.804,0.217,1.09l20,20C29.488,45.902,29.744,46,30,46s0.512-0.098,0.707-0.293l20-20
		c0.286-0.286,0.372-0.716,0.217-1.09C50.769,24.243,50.404,24,50,24H40C39.735,24,39.48,24.105,39.293,24.293z M47.586,26
		L30,43.586L12.414,26h7.172l9.707,9.707c0.391,0.391,1.023,0.391,1.414,0L40.414,26H47.586z"/>
</g>
</svg>
