<?xml version="1.0" encoding="utf-8"?>
<!-- Generator: Adobe Illustrator 17.0.0, SVG Export Plug-In . SVG Version: 6.00 Build 0)  -->
<!DOCTYPE svg PUBLIC "-//W3C//DTD SVG 1.1//EN" "http://www.w3.org/Graphics/SVG/1.1/DTD/svg11.dtd">
<svg version="1.1" id="Layer_1" xmlns="http://www.w3.org/2000/svg" xmlns:xlink="http://www.w3.org/1999/xlink" x="0px" y="0px"
	 width="60px" height="60px" viewBox="0 0 60 60" enable-background="new 0 0 60 60" xml:space="preserve">
<g>
	<path fill="#231F20" d="M1,60h36c0.265,0,0.519-0.106,0.707-0.293l12-12c0.286-0.286,0.372-0.716,0.217-1.09
		C49.769,46.244,49.404,46,49,46H25.414l24.293-24.293c0.391-0.391,0.391-1.023,0-1.414l-10-10c-0.391-0.391-1.023-0.391-1.414,0
		L14,34.586V12c0-0.404-0.244-0.769-0.617-0.924c-0.376-0.155-0.804-0.07-1.09,0.217l-12,12C0.105,23.48,0,23.735,0,24v35
		C0,59.552,0.448,60,1,60z M2,24.414l10-10V37c0,0.404,0.244,0.769,0.617,0.924c0.374,0.154,0.803,0.069,1.09-0.217L39,12.414
		L47.586,21L22.293,46.293c-0.286,0.286-0.372,0.716-0.217,1.09C22.231,47.756,22.596,48,23,48h23.586l-10,10H2V24.414z"/>
</g>
</svg>
