<?xml version="1.0" encoding="utf-8"?>
<!-- Generator: Adobe Illustrator 17.0.0, SVG Export Plug-In . SVG Version: 6.00 Build 0)  -->
<!DOCTYPE svg PUBLIC "-//W3C//DTD SVG 1.1//EN" "http://www.w3.org/Graphics/SVG/1.1/DTD/svg11.dtd">
<svg version="1.1" id="Layer_1" xmlns="http://www.w3.org/2000/svg" xmlns:xlink="http://www.w3.org/1999/xlink" x="0px" y="0px"
	 width="60px" height="60px" viewBox="0 0 60 60" enable-background="new 0 0 60 60" xml:space="preserve">
<g>
	<path fill="#231F20" d="M59.065,0h-58c-0.553,0-1,0.447-1,1v58c0,0.553,0.447,1,1,1h58c0.553,0,1-0.447,1-1V1
		C60.065,0.447,59.617,0,59.065,0z M58.065,58h-56V2h56V58z"/>
	<rect x="10.063" y="46" fill="#231F20" width="4" height="4"/>
	<rect x="18.063" y="46" fill="#231F20" width="4" height="4"/>
	<rect x="26.063" y="46" fill="#231F20" width="4" height="4"/>
	<rect x="34.063" y="46" fill="#231F20" width="4" height="4"/>
	<rect x="10.063" y="38" fill="#231F20" width="4" height="4"/>
	<rect x="10.063" y="30" fill="#231F20" width="4" height="4"/>
	<rect x="18.063" y="38" fill="#231F20" width="4" height="4"/>
	<rect x="18.063" y="30" fill="#231F20" width="4" height="4"/>
	<rect x="26.063" y="38" fill="#231F20" width="4" height="4"/>
	<rect x="26.063" y="30" fill="#231F20" width="4" height="4"/>
	<rect x="34.063" y="30" fill="#231F20" width="4" height="4"/>
	<rect x="26.063" y="22" fill="#231F20" width="4" height="4"/>
	<rect x="10.063" y="22" fill="#231F20" width="4" height="4"/>
	<rect x="34.063" y="22" fill="#231F20" width="4" height="4"/>
	<rect x="42.063" y="22" fill="#231F20" width="4" height="4"/>
	<rect x="34.063" y="14" fill="#231F20" width="4" height="4"/>
</g>
</svg>
