<?xml version="1.0" encoding="utf-8"?>
<!-- Generator: Adobe Illustrator 17.0.0, SVG Export Plug-In . SVG Version: 6.00 Build 0)  -->
<!DOCTYPE svg PUBLIC "-//W3C//DTD SVG 1.1//EN" "http://www.w3.org/Graphics/SVG/1.1/DTD/svg11.dtd">
<svg version="1.1" id="Layer_1" xmlns="http://www.w3.org/2000/svg" xmlns:xlink="http://www.w3.org/1999/xlink" x="0px" y="0px"
	 width="60px" height="60px" viewBox="0 0 60 60" enable-background="new 0 0 60 60" xml:space="preserve">
<g>
	<path fill="#231F20" d="M30.063,0c-16.542,0-30,13.458-30,30s13.458,30,30,30s30-13.458,30-30S46.605,0,30.063,0z M30.063,58
		c-15.439,0-28-12.56-28-28s12.561-28,28-28c15.439,0,28,12.56,28,28S45.503,58,30.063,58z"/>
	<path fill="#231F20" d="M21.732,11.257c-0.41-0.368-1.043-0.337-1.412,0.074c-0.369,0.41-0.336,1.043,0.074,1.412L39.568,30
		L20.394,47.257c-0.41,0.369-0.443,1.002-0.074,1.412C20.518,48.889,20.79,49,21.063,49c0.238,0,0.478-0.085,0.669-0.257l20-18
		c0.211-0.189,0.331-0.46,0.331-0.743s-0.12-0.554-0.331-0.743L21.732,11.257z"/>
</g>
</svg>
