<?xml version="1.0" encoding="utf-8"?>
<!-- Generator: Adobe Illustrator 17.0.0, SVG Export Plug-In . SVG Version: 6.00 Build 0)  -->
<!DOCTYPE svg PUBLIC "-//W3C//DTD SVG 1.1//EN" "http://www.w3.org/Graphics/SVG/1.1/DTD/svg11.dtd">
<svg version="1.1" id="Layer_1" xmlns="http://www.w3.org/2000/svg" xmlns:xlink="http://www.w3.org/1999/xlink" x="0px" y="0px"
	 width="60px" height="60px" viewBox="0 0 60 60" enable-background="new 0 0 60 60" xml:space="preserve">
<g>
	<path fill="#231F20" d="M4.617,15.176C4.243,15.331,4,15.695,4,16.1v18c0,0.265,0.105,0.519,0.293,0.707l25,25
		C29.488,60.002,29.744,60.1,30,60.1s0.512-0.098,0.707-0.293l25-25C55.895,34.619,56,34.365,56,34.1v-18
		c0-0.404-0.243-0.769-0.617-0.924s-0.804-0.07-1.09,0.217L38,31.685V1.1c0-0.552-0.447-1-1-1H23c-0.553,0-1,0.448-1,1v30.586
		L5.707,15.393C5.421,15.106,4.991,15.022,4.617,15.176z M6,18.514l16.293,16.293c0.287,0.287,0.717,0.372,1.09,0.217
		C23.757,34.869,24,34.504,24,34.1v-32h12v32c0,0.404,0.243,0.769,0.617,0.924c0.374,0.154,0.804,0.07,1.09-0.217L54,18.514v15.172
		l-24,24l-24-24V18.514z"/>
</g>
</svg>
