<?xml version="1.0" encoding="utf-8"?>
<!-- Generator: Adobe Illustrator 17.0.0, SVG Export Plug-In . SVG Version: 6.00 Build 0)  -->
<!DOCTYPE svg PUBLIC "-//W3C//DTD SVG 1.1//EN" "http://www.w3.org/Graphics/SVG/1.1/DTD/svg11.dtd">
<svg version="1.1" id="Layer_1" xmlns="http://www.w3.org/2000/svg" xmlns:xlink="http://www.w3.org/1999/xlink" x="0px" y="0px"
	 width="60px" height="60px" viewBox="0 0 60 60" enable-background="new 0 0 60 60" xml:space="preserve">
<g>
	<path fill="#231F20" d="M5.846,29.756L30.1,2.592l24.254,27.164c0.198,0.221,0.472,0.334,0.747,0.334
		c0.237,0,0.475-0.084,0.666-0.254c0.412-0.368,0.448-1,0.08-1.412l-25-28C30.466,0,29.733,0,29.354,0.424l-25,28
		c-0.368,0.412-0.332,1.044,0.08,1.412C4.846,30.204,5.478,30.168,5.846,29.756z"/>
	<path fill="#231F20" d="M4.434,59.837c0.413,0.367,1.044,0.333,1.412-0.08L30.1,32.593l24.254,27.164
		c0.198,0.222,0.472,0.334,0.747,0.334c0.237,0,0.475-0.084,0.666-0.254c0.412-0.368,0.448-1,0.08-1.412l-25-28
		c-0.38-0.425-1.112-0.425-1.492,0l-25,28C3.986,58.837,4.021,59.469,4.434,59.837z"/>
</g>
</svg>
