<?xml version="1.0" encoding="utf-8"?>
<!-- Generator: Adobe Illustrator 17.0.0, SVG Export Plug-In . SVG Version: 6.00 Build 0)  -->
<!DOCTYPE svg PUBLIC "-//W3C//DTD SVG 1.1//EN" "http://www.w3.org/Graphics/SVG/1.1/DTD/svg11.dtd">
<svg version="1.1" id="Layer_1" xmlns="http://www.w3.org/2000/svg" xmlns:xlink="http://www.w3.org/1999/xlink" x="0px" y="0px"
	 width="60px" height="60px" viewBox="0 0 60 60" enable-background="new 0 0 60 60" xml:space="preserve">
<g>
	<path fill="#231F20" d="M51,24H29.415l12.293-12.293c0.286-0.286,0.372-0.716,0.217-1.09C41.769,10.244,41.405,10,41,10H28
		c-0.265,0-0.519,0.105-0.707,0.293l-19,19C8.106,29.48,8,29.734,8,30c0,0.265,0.106,0.519,0.293,0.707l19,19
		C27.481,49.894,27.735,50,28,50h13c0.404,0,0.769-0.244,0.924-0.617c0.155-0.374,0.069-0.804-0.217-1.09L29.415,36H51
		c0.552,0,1-0.448,1-1V25C52,24.447,51.553,24,51,24z M50,34H27c-0.404,0-0.769,0.244-0.924,0.617
		c-0.155,0.374-0.069,0.804,0.217,1.09L38.586,48H28.415l-18-18l18-18h10.172L26.294,24.292c-0.286,0.286-0.372,0.716-0.217,1.09
		C26.231,25.756,26.596,26,27,26h23V34z"/>
	<path fill="#231F20" d="M1,60h58c0.552,0,1-0.448,1-1V1c0-0.552-0.448-1-1-1H1C0.448,0,0,0.448,0,1v58C0,59.552,0.448,60,1,60z
		 M2,2h56v56H2V2z"/>
</g>
</svg>
