<?xml version="1.0" encoding="utf-8"?>
<!-- Generator: Adobe Illustrator 17.0.0, SVG Export Plug-In . SVG Version: 6.00 Build 0)  -->
<!DOCTYPE svg PUBLIC "-//W3C//DTD SVG 1.1//EN" "http://www.w3.org/Graphics/SVG/1.1/DTD/svg11.dtd">
<svg version="1.1" id="Layer_1" xmlns="http://www.w3.org/2000/svg" xmlns:xlink="http://www.w3.org/1999/xlink" x="0px" y="0px"
	 width="60px" height="60px" viewBox="0 0 60 60" enable-background="new 0 0 60 60" xml:space="preserve">
<g>
	<path fill="#231F20" d="M30.235,2.837c-0.368,0.412-0.332,1.044,0.08,1.412l27.164,24.254L30.315,52.757
		c-0.412,0.368-0.448,1-0.08,1.412c0.197,0.221,0.472,0.334,0.746,0.334c0.237,0,0.476-0.084,0.666-0.254l28-25
		c0.213-0.19,0.334-0.461,0.334-0.746c0-0.285-0.121-0.556-0.334-0.746l-28-25C31.236,2.39,30.603,2.425,30.235,2.837z"/>
	<path fill="#231F20" d="M0.235,54.169c0.197,0.221,0.472,0.334,0.746,0.334c0.237,0,0.476-0.084,0.666-0.254l28-25
		c0.213-0.19,0.334-0.461,0.334-0.746c0-0.285-0.121-0.556-0.334-0.746l-28-25c-0.41-0.367-1.045-0.332-1.412,0.08
		c-0.368,0.412-0.332,1.044,0.08,1.412l27.164,24.254L0.315,52.757C-0.097,53.125-0.133,53.757,0.235,54.169z"/>
</g>
</svg>
