<?xml version="1.0" encoding="utf-8"?>
<!-- Generator: Adobe Illustrator 17.0.0, SVG Export Plug-In . SVG Version: 6.00 Build 0)  -->
<!DOCTYPE svg PUBLIC "-//W3C//DTD SVG 1.1//EN" "http://www.w3.org/Graphics/SVG/1.1/DTD/svg11.dtd">
<svg version="1.1" id="Layer_1" xmlns="http://www.w3.org/2000/svg" xmlns:xlink="http://www.w3.org/1999/xlink" x="0px" y="0px"
	 width="60px" height="60px" viewBox="0 0 60 60" enable-background="new 0 0 60 60" xml:space="preserve">
<g>
	<path fill="#231F20" d="M51.214,8.788C45.548,3.121,38.014,0,30.001,0C21.987,0,14.453,3.121,8.787,8.788
		C3.121,14.454,0,21.987,0,30s3.121,15.547,8.787,21.213C14.453,56.88,21.987,60,30,60s15.547-3.121,21.213-8.787
		C56.88,45.547,60,38.014,60.001,30C60.001,21.987,56.88,14.453,51.214,8.788z M49.799,49.799C44.511,55.088,37.478,58,30,58
		c-7.479,0-14.511-2.913-19.799-8.201C4.913,44.511,2,37.479,2,30s2.913-14.51,8.201-19.799C15.49,4.913,22.521,2,30.001,2
		c7.479,0,14.51,2.913,19.799,8.202C55.088,15.49,58.001,22.521,58.001,30C58.001,37.479,55.088,44.511,49.799,49.799z"/>
	<path fill="#231F20" d="M41,18c-2.757,0-5,2.243-5,5v4.586L23.207,14.793c-1.124-1.124-2.618-1.743-4.207-1.743
		c-1.59,0-3.084,0.619-4.207,1.743C13.669,15.917,13.05,17.411,13.05,19c0,1.589,0.619,3.083,1.743,4.207L27.586,36H23
		c-2.757,0-5,2.243-5,5s2.243,5,5,5h22c0.553,0,1-0.448,1-1V23C46,20.244,43.757,18,41,18z M44,44H23c-1.654,0-3-1.346-3-3
		s1.346-3,3-3h7c0.404,0,0.769-0.244,0.924-0.617c0.155-0.374,0.069-0.804-0.217-1.09l-14.5-14.5
		C15.461,21.047,15.05,20.055,15.05,19s0.411-2.047,1.157-2.793c1.491-1.492,4.093-1.493,5.586,0l14.5,14.5
		c0.287,0.287,0.717,0.372,1.09,0.217C37.757,30.769,38,30.405,38,30v-7c0-1.654,1.346-3,3-3s3,1.346,3,3V44z"/>
</g>
</svg>
