<?xml version="1.0" encoding="utf-8"?>
<!-- Generator: Adobe Illustrator 17.0.0, SVG Export Plug-In . SVG Version: 6.00 Build 0)  -->
<!DOCTYPE svg PUBLIC "-//W3C//DTD SVG 1.1//EN" "http://www.w3.org/Graphics/SVG/1.1/DTD/svg11.dtd">
<svg version="1.1" id="Layer_1" xmlns="http://www.w3.org/2000/svg" xmlns:xlink="http://www.w3.org/1999/xlink" x="0px" y="0px"
	 width="60px" height="60px" viewBox="0 0 60 60" enable-background="new 0 0 60 60" xml:space="preserve">
<g>
	<path fill="#231F20" d="M60,59V24c0-0.265-0.106-0.52-0.293-0.707l-12-12c-0.287-0.287-0.716-0.372-1.09-0.217
		C46.244,11.231,46,11.596,46,12v22.586L21.707,10.293c-0.391-0.391-1.023-0.391-1.414,0l-10,10c-0.391,0.391-0.391,1.023,0,1.414
		L34.586,46H11c-0.404,0-0.769,0.244-0.924,0.617c-0.155,0.374-0.069,0.804,0.217,1.09l12,12C22.48,59.894,22.735,60,23,60h36
		C59.552,60,60,59.552,60,59z M58,58H23.414l-10-10H37c0.404,0,0.769-0.244,0.924-0.617c0.155-0.374,0.069-0.804-0.217-1.09
		L12.414,21L21,12.414l25.293,25.293c0.287,0.286,0.715,0.371,1.09,0.217C47.756,37.769,48,37.404,48,37V14.414l10,10V58z"/>
</g>
</svg>
