<?xml version="1.0" encoding="utf-8"?>
<!-- Generator: Adobe Illustrator 17.0.0, SVG Export Plug-In . SVG Version: 6.00 Build 0)  -->
<!DOCTYPE svg PUBLIC "-//W3C//DTD SVG 1.1//EN" "http://www.w3.org/Graphics/SVG/1.1/DTD/svg11.dtd">
<svg version="1.1" id="Layer_1" xmlns="http://www.w3.org/2000/svg" xmlns:xlink="http://www.w3.org/1999/xlink" x="0px" y="0px"
	 width="60px" height="60px" viewBox="0 0 60 60" enable-background="new 0 0 60 60" xml:space="preserve">
<g>
	<path fill="#231F20" d="M0.293,49.704l7,7C7.488,56.899,7.744,56.997,8,56.997s0.512-0.098,0.707-0.293l26-26
		c0.391-0.391,0.391-1.023,0-1.414l-26-26c-0.391-0.391-1.023-0.391-1.414,0l-7,7c-0.391,0.391-0.391,1.023,0,1.414l18.293,18.293
		L0.293,48.29C-0.098,48.681-0.098,49.313,0.293,49.704z M20.707,30.704c0.391-0.391,0.391-1.023,0-1.414L2.414,10.997L8,5.411
		l24.586,24.586L8,54.583l-5.586-5.586L20.707,30.704z"/>
	<path fill="#231F20" d="M32.293,3.29l-7,7c-0.391,0.391-0.391,1.023,0,1.414l18.293,18.293L25.293,48.29
		c-0.391,0.391-0.391,1.023,0,1.414l7,7c0.195,0.195,0.451,0.293,0.707,0.293s0.512-0.098,0.707-0.293l26-26
		c0.391-0.391,0.391-1.023,0-1.414l-26-26C33.316,2.899,32.684,2.899,32.293,3.29z M33,54.583l-5.586-5.586l18.293-18.293
		c0.391-0.391,0.391-1.023,0-1.414L27.414,10.997L33,5.411l24.586,24.586L33,54.583z"/>
</g>
</svg>
