<?xml version="1.0" encoding="utf-8"?>
<!-- Generator: Adobe Illustrator 17.0.0, SVG Export Plug-In . SVG Version: 6.00 Build 0)  -->
<!DOCTYPE svg PUBLIC "-//W3C//DTD SVG 1.1//EN" "http://www.w3.org/Graphics/SVG/1.1/DTD/svg11.dtd">
<svg version="1.1" id="Layer_1" xmlns="http://www.w3.org/2000/svg" xmlns:xlink="http://www.w3.org/1999/xlink" x="0px" y="0px"
	 width="60px" height="60px" viewBox="0 0 60 60" enable-background="new 0 0 60 60" xml:space="preserve">
<g>
	<path fill="#231F20" d="M30,60.001c8.013,0,15.547-3.121,21.213-8.787C56.879,45.548,60,38.014,60,30.001
		c0-8.014-3.121-15.547-8.787-21.213C45.547,3.121,38.013,0,30,0C21.986,0,14.453,3.121,8.787,8.788C3.12,14.454,0,21.987,0,30
		S3.12,45.547,8.787,51.213C14.453,56.88,21.986,60.001,30,60.001z M10.201,10.202C15.489,4.913,22.521,2,30,2
		c7.479,0,14.511,2.913,19.799,8.201C55.087,15.49,58,22.521,58,30c0,7.479-2.913,14.511-8.201,19.799
		C44.51,55.088,37.479,58.001,30,58.001c-7.479,0-14.511-2.913-19.799-8.202C4.912,44.511,2,37.479,2,30S4.912,15.49,10.201,10.202z
		"/>
	<path fill="#231F20" d="M15,46h22c2.757,0,5-2.243,5-5s-2.243-5-5-5h-4.586l12.793-12.793C46.331,22.084,46.95,20.59,46.95,19
		c0-1.589-0.619-3.083-1.743-4.207c-1.123-1.124-2.618-1.743-4.207-1.743s-3.083,0.619-4.207,1.743L24,27.586V23
		c0-2.757-2.243-5-5-5c-2.757,0-5,2.243-5,5v22C14,45.553,14.448,46,15,46z M16,23c0-1.654,1.346-3,3-3s3,1.346,3,3v7
		c0,0.404,0.244,0.769,0.617,0.924c0.373,0.155,0.803,0.069,1.09-0.217l14.5-14.5c1.492-1.492,4.094-1.492,5.586,0
		c0.746,0.746,1.157,1.738,1.157,2.793s-0.411,2.047-1.157,2.793l-14.5,14.5c-0.286,0.286-0.372,0.716-0.217,1.09
		C29.231,37.757,29.596,38,30,38h7c1.654,0,3,1.346,3,3s-1.346,3-3,3H16V23z"/>
</g>
</svg>
