<?xml version="1.0" encoding="utf-8"?>
<!-- Generator: Adobe Illustrator 17.0.0, SVG Export Plug-In . SVG Version: 6.00 Build 0)  -->
<!DOCTYPE svg PUBLIC "-//W3C//DTD SVG 1.1//EN" "http://www.w3.org/Graphics/SVG/1.1/DTD/svg11.dtd">
<svg version="1.1" id="Layer_1" xmlns="http://www.w3.org/2000/svg" xmlns:xlink="http://www.w3.org/1999/xlink" x="0px" y="0px"
	 width="60px" height="60px" viewBox="0 0 60 60" enable-background="new 0 0 60 60" xml:space="preserve">
<g>
	<rect x="52" y="28" fill="#231F20" width="4" height="4"/>
	<rect x="44" y="32" fill="#231F20" width="4" height="4"/>
	<rect x="44" y="24" fill="#231F20" width="4" height="4"/>
	<rect x="36" y="32" fill="#231F20" width="4" height="4"/>
	<rect x="36" y="24" fill="#231F20" width="4" height="4"/>
	<rect x="28" y="32" fill="#231F20" width="4" height="4"/>
	<rect x="36" y="40" fill="#231F20" width="4" height="4"/>
	<rect x="28" y="40" fill="#231F20" width="4" height="4"/>
	<rect x="28" y="48" fill="#231F20" width="4" height="4"/>
	<rect x="28" y="24" fill="#231F20" width="4" height="4"/>
	<rect x="36" y="16" fill="#231F20" width="4" height="4"/>
	<rect x="28" y="16" fill="#231F20" width="4" height="4"/>
	<rect x="28" y="8" fill="#231F20" width="4" height="4"/>
	<rect x="20" y="32" fill="#231F20" width="4" height="4"/>
	<rect x="20" y="24" fill="#231F20" width="4" height="4"/>
	<rect x="12" y="32" fill="#231F20" width="4" height="4"/>
	<rect x="12" y="24" fill="#231F20" width="4" height="4"/>
	<rect x="4" y="32" fill="#231F20" width="4" height="4"/>
	<rect x="4" y="24" fill="#231F20" width="4" height="4"/>
</g>
</svg>
