<?xml version="1.0" encoding="utf-8"?>
<!-- Generator: Adobe Illustrator 17.0.0, SVG Export Plug-In . SVG Version: 6.00 Build 0)  -->
<!DOCTYPE svg PUBLIC "-//W3C//DTD SVG 1.1//EN" "http://www.w3.org/Graphics/SVG/1.1/DTD/svg11.dtd">
<svg version="1.1" id="Layer_1" xmlns="http://www.w3.org/2000/svg" xmlns:xlink="http://www.w3.org/1999/xlink" x="0px" y="0px"
	 width="60px" height="60px" viewBox="0 0 60 60" enable-background="new 0 0 60 60" xml:space="preserve">
<g>
	<path fill="#231F20" d="M46.707,5.293l-5-5c-0.391-0.391-1.023-0.391-1.414,0l-29,29c-0.391,0.391-0.391,1.023,0,1.414l29,29
		C40.488,59.902,40.744,60,41,60s0.512-0.098,0.707-0.293l5-5c0.391-0.391,0.391-1.023,0-1.414L23.414,30L46.707,6.707
		C47.098,6.316,47.098,5.684,46.707,5.293z M21.293,29.293c-0.391,0.391-0.391,1.023,0,1.414L44.586,54L41,57.586L13.414,30
		L41,2.414L44.586,6L21.293,29.293z"/>
</g>
</svg>
