<?xml version="1.0" encoding="utf-8"?>
<!-- Generator: Adobe Illustrator 17.0.0, SVG Export Plug-In . SVG Version: 6.00 Build 0)  -->
<!DOCTYPE svg PUBLIC "-//W3C//DTD SVG 1.1//EN" "http://www.w3.org/Graphics/SVG/1.1/DTD/svg11.dtd">
<svg version="1.1" id="Layer_1" xmlns="http://www.w3.org/2000/svg" xmlns:xlink="http://www.w3.org/1999/xlink" x="0px" y="0px"
	 width="60px" height="60px" viewBox="0 0 60 60" enable-background="new 0 0 60 60" xml:space="preserve">
<g>
	<path fill="#231F20" d="M60,55c0-2.757-2.243-5-5-5c-2.757,0-5,2.243-5,5c0,2.757,2.243,5,5,5C57.757,60,60,57.757,60,55z M52,55
		c0-1.654,1.346-3,3-3s3,1.346,3,3s-1.346,3-3,3S52,56.654,52,55z"/>
	<path fill="#231F20" d="M51,46c0-2.757-2.243-5-5-5c-2.757,0-5,2.243-5,5c0,2.757,2.243,5,5,5C48.757,51,51,48.757,51,46z M43,46
		c0-1.654,1.346-3,3-3s3,1.346,3,3s-1.346,3-3,3S43,47.654,43,46z"/>
	<path fill="#231F20" d="M42,37c0-2.757-2.243-5-5-5c-2.757,0-5,2.243-5,5c0,2.757,2.243,5,5,5C39.757,42,42,39.757,42,37z M34,37
		c0-1.654,1.346-3,3-3s3,1.346,3,3s-1.346,3-3,3S34,38.654,34,37z"/>
	<path fill="#231F20" d="M28,33c2.757,0,5-2.243,5-5c0-2.757-2.243-5-5-5c-2.757,0-5,2.243-5,5C23,30.757,25.243,33,28,33z M28,25
		c1.654,0,3,1.346,3,3s-1.346,3-3,3s-3-1.346-3-3S26.346,25,28,25z"/>
	<path fill="#231F20" d="M24,19c0-2.757-2.243-5-5-5c-2.757,0-5,2.243-5,5c0,2.757,2.243,5,5,5C21.757,24,24,21.757,24,19z M19,22
		c-1.654,0-3-1.346-3-3s1.346-3,3-3s3,1.346,3,3S20.654,22,19,22z"/>
	<path fill="#231F20" d="M46,55c0-2.757-2.243-5-5-5c-2.757,0-5,2.243-5,5c0,2.757,2.243,5,5,5C43.757,60,46,57.757,46,55z M41,58
		c-1.654,0-3-1.346-3-3s1.346-3,3-3s3,1.346,3,3S42.654,58,41,58z"/>
	<path fill="#231F20" d="M27,50c-2.757,0-5,2.243-5,5c0,2.757,2.243,5,5,5c2.757,0,5-2.243,5-5C32,52.243,29.757,50,27,50z M27,58
		c-1.654,0-3-1.346-3-3s1.346-3,3-3s3,1.346,3,3S28.654,58,27,58z"/>
	<path fill="#231F20" d="M55,36c-2.757,0-5,2.243-5,5c0,2.757,2.243,5,5,5c2.757,0,5-2.243,5-5C60,38.243,57.757,36,55,36z M55,44
		c-1.654,0-3-1.346-3-3s1.346-3,3-3s3,1.346,3,3S56.654,44,55,44z"/>
	<path fill="#231F20" d="M55,22c-2.757,0-5,2.243-5,5c0,2.757,2.243,5,5,5c2.757,0,5-2.243,5-5C60,24.243,57.757,22,55,22z M55,30
		c-1.654,0-3-1.346-3-3s1.346-3,3-3s3,1.346,3,3S56.654,30,55,30z"/>
</g>
</svg>
