<?xml version="1.0" encoding="utf-8"?>
<!-- Generator: Adobe Illustrator 17.0.0, SVG Export Plug-In . SVG Version: 6.00 Build 0)  -->
<!DOCTYPE svg PUBLIC "-//W3C//DTD SVG 1.1//EN" "http://www.w3.org/Graphics/SVG/1.1/DTD/svg11.dtd">
<svg version="1.1" id="Layer_1" xmlns="http://www.w3.org/2000/svg" xmlns:xlink="http://www.w3.org/1999/xlink" x="0px" y="0px"
	 width="60px" height="60px" viewBox="0 0 60 60" enable-background="new 0 0 60 60" xml:space="preserve">
<g>
	<path fill="#231F20" d="M29.293,0.293l-26,26c-0.391,0.391-0.391,1.023,0,1.414l8,8c0.391,0.391,1.023,0.391,1.414,0L22,26.414V59
		c0,0.552,0.448,1,1,1h14c0.552,0,1-0.448,1-1V26.414l9.293,9.293c0.391,0.391,1.023,0.391,1.414,0l8-8
		c0.391-0.391,0.391-1.023,0-1.414l-26-26C30.316-0.098,29.684-0.098,29.293,0.293z M48,33.586L37.707,23.293
		c-0.286-0.287-0.715-0.373-1.09-0.217C36.244,23.231,36,23.596,36,24v34H24V24c0-0.404-0.244-0.769-0.617-0.924
		c-0.375-0.156-0.804-0.07-1.09,0.217L12,33.586L5.414,27L30,2.414L54.586,27L48,33.586z"/>
</g>
</svg>
