<?xml version="1.0" encoding="utf-8"?>
<!-- Generator: Adobe Illustrator 17.0.0, SVG Export Plug-In . SVG Version: 6.00 Build 0)  -->
<!DOCTYPE svg PUBLIC "-//W3C//DTD SVG 1.1//EN" "http://www.w3.org/Graphics/SVG/1.1/DTD/svg11.dtd">
<svg version="1.1" id="Layer_1" xmlns="http://www.w3.org/2000/svg" xmlns:xlink="http://www.w3.org/1999/xlink" x="0px" y="0px"
	 width="60px" height="60px" viewBox="0 0 60 60" enable-background="new 0 0 60 60" xml:space="preserve">
<g>
	<path fill="#231F20" d="M5,60c2.757,0,5-2.243,5-5c0-2.757-2.243-5-5-5c-2.757,0-5,2.243-5,5C0,57.757,2.243,60,5,60z M5,52
		c1.654,0,3,1.346,3,3s-1.346,3-3,3s-3-1.346-3-3S3.346,52,5,52z"/>
	<path fill="#231F20" d="M19,46c0-2.757-2.243-5-5-5c-2.757,0-5,2.243-5,5c0,2.757,2.243,5,5,5C16.757,51,19,48.757,19,46z M11,46
		c0-1.654,1.346-3,3-3s3,1.346,3,3s-1.346,3-3,3S11,47.654,11,46z"/>
	<path fill="#231F20" d="M23,32c-2.757,0-5,2.243-5,5c0,2.757,2.243,5,5,5c2.757,0,5-2.243,5-5C28,34.243,25.757,32,23,32z M23,40
		c-1.654,0-3-1.346-3-3s1.346-3,3-3s3,1.346,3,3S24.654,40,23,40z"/>
	<path fill="#231F20" d="M32,33c2.757,0,5-2.243,5-5c0-2.757-2.243-5-5-5c-2.757,0-5,2.243-5,5C27,30.757,29.243,33,32,33z M32,25
		c1.654,0,3,1.346,3,3s-1.346,3-3,3s-3-1.346-3-3S30.346,25,32,25z"/>
	<path fill="#231F20" d="M46,19c0-2.757-2.243-5-5-5c-2.757,0-5,2.243-5,5c0,2.757,2.243,5,5,5C43.757,24,46,21.757,46,19z M41,22
		c-1.654,0-3-1.346-3-3s1.346-3,3-3s3,1.346,3,3S42.654,22,41,22z"/>
	<path fill="#231F20" d="M24,55c0-2.757-2.243-5-5-5c-2.757,0-5,2.243-5,5c0,2.757,2.243,5,5,5C21.757,60,24,57.757,24,55z M19,58
		c-1.654,0-3-1.346-3-3s1.346-3,3-3s3,1.346,3,3S20.654,58,19,58z"/>
	<path fill="#231F20" d="M38,55c0-2.757-2.243-5-5-5c-2.757,0-5,2.243-5,5c0,2.757,2.243,5,5,5C35.757,60,38,57.757,38,55z M33,58
		c-1.654,0-3-1.346-3-3s1.346-3,3-3s3,1.346,3,3S34.654,58,33,58z"/>
	<path fill="#231F20" d="M5,46c2.757,0,5-2.243,5-5c0-2.757-2.243-5-5-5c-2.757,0-5,2.243-5,5C0,43.757,2.243,46,5,46z M5,38
		c1.654,0,3,1.346,3,3s-1.346,3-3,3s-3-1.346-3-3S3.346,38,5,38z"/>
	<path fill="#231F20" d="M5,32c2.757,0,5-2.243,5-5c0-2.757-2.243-5-5-5c-2.757,0-5,2.243-5,5C0,29.757,2.243,32,5,32z M5,24
		c1.654,0,3,1.346,3,3s-1.346,3-3,3s-3-1.346-3-3S3.346,24,5,24z"/>
</g>
</svg>
