<?xml version="1.0" encoding="utf-8"?>
<!-- Generator: Adobe Illustrator 17.0.0, SVG Export Plug-In . SVG Version: 6.00 Build 0)  -->
<!DOCTYPE svg PUBLIC "-//W3C//DTD SVG 1.1//EN" "http://www.w3.org/Graphics/SVG/1.1/DTD/svg11.dtd">
<svg version="1.1" id="Layer_1" xmlns="http://www.w3.org/2000/svg" xmlns:xlink="http://www.w3.org/1999/xlink" x="0px" y="0px"
	 width="60px" height="60px" viewBox="0 0 60 60" enable-background="new 0 0 60 60" xml:space="preserve">
<g>
	<path fill="#231F20" d="M13,48.093h26c0.266,0,0.519-0.105,0.707-0.293l8-8c0.286-0.286,0.372-0.716,0.217-1.09
		c-0.154-0.373-0.519-0.617-0.924-0.617H30.414L46.707,21.8c0.391-0.391,0.391-1.023,0-1.414l-7-7c-0.375-0.375-1.039-0.375-1.414,0
		L22,29.68V13.093c0-0.404-0.243-0.769-0.617-0.924c-0.374-0.155-0.804-0.069-1.09,0.217l-8,8C12.105,20.574,12,20.828,12,21.093v26
		C12,47.646,12.447,48.093,13,48.093z M14,21.507l6-6v16.587c0,0.404,0.243,0.769,0.617,0.924c0.374,0.154,0.803,0.07,1.09-0.217
		L39,15.507l5.586,5.586L27.293,38.386c-0.286,0.286-0.372,0.716-0.217,1.09c0.154,0.374,0.52,0.617,0.924,0.617h16.586l-6,6H14
		V21.507z"/>
	<path fill="#231F20" d="M59.002,0.093h-58c-0.553,0-1,0.448-1,1v58c0,0.552,0.447,1,1,1h58c0.553,0,1-0.448,1-1v-58
		C60.002,0.541,59.555,0.093,59.002,0.093z M58.002,58.093h-56v-56h56V58.093z"/>
</g>
</svg>
