<?xml version="1.0" encoding="utf-8"?>
<!-- Generator: Adobe Illustrator 17.0.0, SVG Export Plug-In . SVG Version: 6.00 Build 0)  -->
<!DOCTYPE svg PUBLIC "-//W3C//DTD SVG 1.1//EN" "http://www.w3.org/Graphics/SVG/1.1/DTD/svg11.dtd">
<svg version="1.1" id="Layer_1" xmlns="http://www.w3.org/2000/svg" xmlns:xlink="http://www.w3.org/1999/xlink" x="0px" y="0px"
	 width="60px" height="60px" viewBox="0 0 60 60" enable-background="new 0 0 60 60" xml:space="preserve">
<g>
	<path fill="#231F20" d="M59.062,0h-58c-0.553,0-1,0.447-1,1v58c0,0.553,0.447,1,1,1h58c0.553,0,1-0.447,1-1V1
		C60.062,0.447,59.615,0,59.062,0z M58.062,58h-56V2h56V58z"/>
	<rect x="49.062" y="28" fill="#231F20" width="4" height="4"/>
	<rect x="41.062" y="32" fill="#231F20" width="4" height="4"/>
	<rect x="41.062" y="24" fill="#231F20" width="4" height="4"/>
	<rect x="33.062" y="32" fill="#231F20" width="4" height="4"/>
	<rect x="33.062" y="24" fill="#231F20" width="4" height="4"/>
	<rect x="25.062" y="32" fill="#231F20" width="4" height="4"/>
	<rect x="33.062" y="40" fill="#231F20" width="4" height="4"/>
	<rect x="25.062" y="40" fill="#231F20" width="4" height="4"/>
	<rect x="25.062" y="48" fill="#231F20" width="4" height="4"/>
	<rect x="25.062" y="24" fill="#231F20" width="4" height="4"/>
	<rect x="33.062" y="16" fill="#231F20" width="4" height="4"/>
	<rect x="25.062" y="16" fill="#231F20" width="4" height="4"/>
	<rect x="25.062" y="8" fill="#231F20" width="4" height="4"/>
	<rect x="17.062" y="32" fill="#231F20" width="4" height="4"/>
	<rect x="17.062" y="24" fill="#231F20" width="4" height="4"/>
	<rect x="9.062" y="32" fill="#231F20" width="4" height="4"/>
	<rect x="9.062" y="24" fill="#231F20" width="4" height="4"/>
</g>
</svg>
