<?xml version="1.0" encoding="utf-8"?>
<!-- Generator: Adobe Illustrator 17.0.0, SVG Export Plug-In . SVG Version: 6.00 Build 0)  -->
<!DOCTYPE svg PUBLIC "-//W3C//DTD SVG 1.1//EN" "http://www.w3.org/Graphics/SVG/1.1/DTD/svg11.dtd">
<svg version="1.1" id="Layer_1" xmlns="http://www.w3.org/2000/svg" xmlns:xlink="http://www.w3.org/1999/xlink" x="0px" y="0px"
	 width="60px" height="60px" viewBox="0 0 60 60" enable-background="new 0 0 60 60" xml:space="preserve">
<g>
	<path fill="#231F20" d="M30,60c16.542,0,30-13.458,30-30S46.542,0,30,0S0,13.458,0,30S13.458,60,30,60z M30,2
		c15.44,0,28,12.56,28,28S45.44,58,30,58S2,45.44,2,30S14.56,2,30,2z"/>
	<path fill="#231F20" d="M29.293,51.707C29.488,51.902,29.744,52,30,52s0.512-0.098,0.707-0.293l15.5-15.5
		c1.769-1.768,1.769-4.646,0-6.414c-0.856-0.857-1.996-1.329-3.207-1.329c-1.211,0-2.351,0.472-3.207,1.329L36,33.586V14
		c0-3.309-2.691-6-6-6s-6,2.691-6,6v19.586l-3.793-3.793c-0.856-0.857-1.996-1.329-3.207-1.329c-1.211,0-2.351,0.472-3.207,1.329
		c-1.769,1.768-1.769,4.646,0,6.414L29.293,51.707z M15.207,31.207c0.479-0.479,1.116-0.743,1.793-0.743s1.314,0.264,1.793,0.743
		l5.5,5.5c0.286,0.286,0.714,0.372,1.09,0.217C25.756,36.769,26,36.404,26,36V14c0-2.206,1.794-4,4-4c2.206,0,4,1.794,4,4v22
		c0,0.404,0.244,0.769,0.617,0.924c0.374,0.155,0.803,0.069,1.09-0.217l5.5-5.5c0.958-0.958,2.628-0.958,3.586,0
		c0.479,0.479,0.743,1.116,0.743,1.793s-0.264,1.314-0.743,1.793L30,49.586L15.207,34.793c-0.479-0.479-0.743-1.116-0.743-1.793
		S14.728,31.686,15.207,31.207z"/>
</g>
</svg>
