<?xml version="1.0" encoding="utf-8"?>
<!-- Generator: Adobe Illustrator 17.0.0, SVG Export Plug-In . SVG Version: 6.00 Build 0)  -->
<!DOCTYPE svg PUBLIC "-//W3C//DTD SVG 1.1//EN" "http://www.w3.org/Graphics/SVG/1.1/DTD/svg11.dtd">
<svg version="1.1" id="Layer_1" xmlns="http://www.w3.org/2000/svg" xmlns:xlink="http://www.w3.org/1999/xlink" x="0px" y="0px"
	 width="60px" height="60px" viewBox="0 0 60 60" enable-background="new 0 0 60 60" xml:space="preserve">
<g>
	<path fill="#231F20" d="M30.063,0c-16.542,0-30,13.458-30,30s13.458,30,30,30c16.542,0,30-13.458,30-30S46.606,0,30.063,0z
		 M30.063,58c-15.439,0-28-12.56-28-28s12.561-28,28-28s28,12.56,28,28S45.503,58,30.063,58z"/>
	<path fill="#231F20" d="M47.32,20.331L30.063,39.505L12.807,20.331c-0.37-0.412-1.001-0.444-1.412-0.074
		c-0.41,0.369-0.443,1.002-0.074,1.412l18,20C29.51,41.88,29.78,42,30.063,42s0.554-0.12,0.743-0.331l18-20
		c0.369-0.41,0.336-1.043-0.074-1.412C48.322,19.888,47.69,19.92,47.32,20.331z"/>
</g>
</svg>
