<?xml version="1.0" encoding="utf-8"?>
<!-- Generator: Adobe Illustrator 17.0.0, SVG Export Plug-In . SVG Version: 6.00 Build 0)  -->
<!DOCTYPE svg PUBLIC "-//W3C//DTD SVG 1.1//EN" "http://www.w3.org/Graphics/SVG/1.1/DTD/svg11.dtd">
<svg version="1.1" id="Layer_1" xmlns="http://www.w3.org/2000/svg" xmlns:xlink="http://www.w3.org/1999/xlink" x="0px" y="0px"
	 width="60px" height="60px" viewBox="0 0 60 60" enable-background="new 0 0 60 60" xml:space="preserve">
<g>
	<path fill="#231F20" d="M29.294,59.707C29.489,59.902,29.745,60,30,60c0.256,0,0.512-0.098,0.707-0.293l22-22
		c0.286-0.286,0.372-0.716,0.217-1.09C52.769,36.244,52.405,36,52,36H40V1c0-0.552-0.448-1-1-1H21c-0.552,0-1,0.448-1,1v35H8
		c-0.404,0-0.769,0.244-0.924,0.617c-0.155,0.374-0.069,0.804,0.217,1.09L29.294,59.707z M21,38c0.552,0,1-0.448,1-1V2h16v35
		c0,0.552,0.448,1,1,1h10.586L30,57.586L10.415,38H21z"/>
</g>
</svg>
