<?xml version="1.0" encoding="utf-8"?>
<!-- Generator: Adobe Illustrator 17.0.0, SVG Export Plug-In . SVG Version: 6.00 Build 0)  -->
<!DOCTYPE svg PUBLIC "-//W3C//DTD SVG 1.1//EN" "http://www.w3.org/Graphics/SVG/1.1/DTD/svg11.dtd">
<svg version="1.1" id="Layer_1" xmlns="http://www.w3.org/2000/svg" xmlns:xlink="http://www.w3.org/1999/xlink" x="0px" y="0px"
	 width="60px" height="60px" viewBox="0 0 60 60" enable-background="new 0 0 60 60" xml:space="preserve">
<g>
	<path fill="#231F20" d="M30.106,0.105c-8.014,0-15.547,3.121-21.213,8.788c-5.667,5.666-8.787,13.2-8.787,21.213
		c0,8.013,3.121,15.547,8.787,21.213c5.666,5.667,13.2,8.787,21.213,8.787c8.013,0,15.547-3.121,21.213-8.787
		c5.667-5.666,8.788-13.2,8.788-21.213c0-8.013-3.12-15.547-8.787-21.212C45.653,3.226,38.12,0.105,30.106,0.105z M49.904,49.904
		c-5.289,5.289-12.32,8.201-19.799,8.201s-14.51-2.913-19.799-8.201c-5.289-5.289-8.201-12.32-8.201-19.799
		s2.913-14.51,8.201-19.799c5.289-5.289,12.32-8.202,19.799-8.202s14.511,2.913,19.799,8.202c5.289,5.288,8.201,12.319,8.201,19.798
		C58.106,37.584,55.193,44.616,49.904,49.904z"/>
	<path fill="#231F20" d="M45.105,18.105h-8c-0.552,0-1,0.448-1,1v8.586L19.812,11.398c-0.391-0.391-1.023-0.391-1.414,0l-7,7
		c-0.391,0.391-0.391,1.023,0,1.414l16.293,16.293h-8.586c-0.552,0-1,0.448-1,1v8c0,0.552,0.448,1,1,1h26c0.552,0,1-0.448,1-1v-26
		C46.105,18.553,45.658,18.105,45.105,18.105z M44.105,44.105h-24v-6h10c0.404,0,0.769-0.244,0.924-0.617
		c0.155-0.374,0.069-0.804-0.217-1.09L13.519,19.105l5.586-5.586l17.293,17.293c0.286,0.286,0.714,0.371,1.09,0.217
		c0.374-0.155,0.617-0.52,0.617-0.924v-10h6V44.105z"/>
</g>
</svg>
