<?xml version="1.0" encoding="utf-8"?>
<!-- Generator: Adobe Illustrator 17.0.0, SVG Export Plug-In . SVG Version: 6.00 Build 0)  -->
<!DOCTYPE svg PUBLIC "-//W3C//DTD SVG 1.1//EN" "http://www.w3.org/Graphics/SVG/1.1/DTD/svg11.dtd">
<svg version="1.1" id="Layer_1" xmlns="http://www.w3.org/2000/svg" xmlns:xlink="http://www.w3.org/1999/xlink" x="0px" y="0px"
	 width="60px" height="60px" viewBox="0 0 60 60" enable-background="new 0 0 60 60" xml:space="preserve">
<g>
	<path fill="#231F20" d="M30.063,0c-16.542,0-30,13.458-30,30s13.458,30,30,30s30-13.458,30-30S46.605,0,30.063,0z M30.063,58
		c-15.439,0-28-12.56-28-28s12.561-28,28-28s28,12.56,28,28S45.503,58,30.063,58z"/>
	<path fill="#231F20" d="M30.807,18.331c-0.379-0.422-1.107-0.422-1.486,0l-18,20c-0.369,0.41-0.336,1.043,0.074,1.412
		c0.412,0.369,1.043,0.338,1.412-0.074l17.257-19.174L47.32,39.669C47.518,39.889,47.79,40,48.063,40
		c0.238,0,0.478-0.085,0.669-0.257c0.41-0.369,0.443-1.002,0.074-1.412L30.807,18.331z"/>
</g>
</svg>
