<?xml version="1.0" encoding="utf-8"?>
<!-- Generator: Adobe Illustrator 17.0.0, SVG Export Plug-In . SVG Version: 6.00 Build 0)  -->
<!DOCTYPE svg PUBLIC "-//W3C//DTD SVG 1.1//EN" "http://www.w3.org/Graphics/SVG/1.1/DTD/svg11.dtd">
<svg version="1.1" id="Layer_1" xmlns="http://www.w3.org/2000/svg" xmlns:xlink="http://www.w3.org/1999/xlink" x="0px" y="0px"
	 width="60px" height="60px" viewBox="0 0 60 60" enable-background="new 0 0 60 60" xml:space="preserve">
<g>
	<path fill="#231F20" d="M59.924,10.617C59.769,10.243,59.404,10,59,10H45c-0.266,0-0.519,0.105-0.707,0.293l-21,21
		c-0.391,0.391-0.391,1.023,0,1.414l21,21C44.481,53.895,44.734,54,45,54h14c0.404,0,0.769-0.243,0.924-0.617
		c0.155-0.374,0.069-0.804-0.217-1.09L39.414,32l20.293-20.293C59.993,11.421,60.079,10.991,59.924,10.617z M37.293,31.293
		c-0.391,0.391-0.391,1.023,0,1.414L56.586,52H45.414l-20-20l20-20h11.172L37.293,31.293z"/>
	<path fill="#231F20" d="M16.414,32l20.293-20.293c0.286-0.286,0.372-0.716,0.217-1.09C36.769,10.243,36.404,10,36,10H22
		c-0.266,0-0.52,0.105-0.707,0.293l-21,21c-0.391,0.391-0.391,1.023,0,1.414l21,21C21.48,53.895,21.734,54,22,54h14
		c0.404,0,0.769-0.243,0.924-0.617c0.155-0.374,0.069-0.804-0.217-1.09L16.414,32z M22.414,52l-20-20l20-20h11.172L14.293,31.293
		c-0.391,0.391-0.391,1.023,0,1.414L33.586,52H22.414z"/>
</g>
</svg>
