<?xml version="1.0" encoding="utf-8"?>
<!-- Generator: Adobe Illustrator 17.0.0, SVG Export Plug-In . SVG Version: 6.00 Build 0)  -->
<!DOCTYPE svg PUBLIC "-//W3C//DTD SVG 1.1//EN" "http://www.w3.org/Graphics/SVG/1.1/DTD/svg11.dtd">
<svg version="1.1" id="Layer_1" xmlns="http://www.w3.org/2000/svg" xmlns:xlink="http://www.w3.org/1999/xlink" x="0px" y="0px"
	 width="60px" height="60px" viewBox="0 0 60 60" enable-background="new 0 0 60 60" xml:space="preserve">
<g>
	<path fill="#231F20" d="M12.698,30.527c0.373,0.155,0.804,0.07,1.09-0.217l16.293-16.293L46.374,30.31
		c0.191,0.191,0.447,0.293,0.707,0.293c0.129,0,0.259-0.025,0.383-0.076c0.374-0.155,0.617-0.52,0.617-0.924v-12
		c0-0.265-0.106-0.519-0.293-0.707l-17-17c-0.391-0.391-1.023-0.391-1.414,0l-17,17c-0.188,0.188-0.293,0.442-0.293,0.707v12
		C12.081,30.007,12.324,30.372,12.698,30.527z M14.081,18.017l16-16l16,16v9.172L30.788,11.896
		c-0.195-0.195-0.451-0.293-0.707-0.293c-0.256,0-0.512,0.098-0.707,0.293L14.081,27.189V18.017z"/>
	<path fill="#231F20" d="M12.698,48.527c0.373,0.154,0.804,0.069,1.09-0.217l16.293-16.293L46.374,48.31
		c0.191,0.191,0.447,0.293,0.707,0.293c0.129,0,0.259-0.025,0.383-0.076c0.374-0.155,0.617-0.52,0.617-0.924v-8
		c0-0.265-0.106-0.519-0.293-0.707l-17-17c-0.391-0.391-1.023-0.391-1.414,0l-17,17c-0.188,0.188-0.293,0.442-0.293,0.707v8
		C12.081,48.007,12.324,48.372,12.698,48.527z M14.081,40.017l16-16l16,16v5.172L30.788,29.896
		c-0.195-0.195-0.451-0.293-0.707-0.293c-0.256,0-0.512,0.098-0.707,0.293L14.081,45.189V40.017z"/>
	<path fill="#231F20" d="M13.788,59.31l16.293-16.293L46.374,59.31c0.195,0.195,0.451,0.293,0.707,0.293
		c0.256,0,0.512-0.098,0.707-0.293c0.391-0.391,0.391-1.023,0-1.414l-17-17c-0.391-0.391-1.023-0.391-1.414,0l-17,17
		c-0.391,0.391-0.391,1.023,0,1.414C12.765,59.701,13.397,59.701,13.788,59.31z"/>
</g>
</svg>
