<?xml version="1.0" encoding="utf-8"?>
<!-- Generator: Adobe Illustrator 17.0.0, SVG Export Plug-In . SVG Version: 6.00 Build 0)  -->
<!DOCTYPE svg PUBLIC "-//W3C//DTD SVG 1.1//EN" "http://www.w3.org/Graphics/SVG/1.1/DTD/svg11.dtd">
<svg version="1.1" id="Layer_1" xmlns="http://www.w3.org/2000/svg" xmlns:xlink="http://www.w3.org/1999/xlink" x="0px" y="0px"
	 width="60px" height="60px" viewBox="0 0 60 60" enable-background="new 0 0 60 60" xml:space="preserve">
<g>
	<path fill="#231F20" d="M29.293,53.791c0.195,0.195,0.451,0.293,0.707,0.293s0.512-0.098,0.707-0.293l29-29
		C59.894,24.603,60,24.35,60,24.084v-14c0-0.404-0.244-0.769-0.617-0.924c-0.376-0.157-0.804-0.07-1.09,0.217L30,37.67L1.707,9.377
		C1.421,9.09,0.991,9.003,0.617,9.16C0.244,9.315,0,9.68,0,10.084v14c0,0.266,0.105,0.519,0.293,0.707L29.293,53.791z M2,12.498
		l27.293,27.293c0.391,0.391,1.023,0.391,1.414,0L58,12.498V23.67l-28,28l-28-28V12.498z"/>
</g>
</svg>
