<?xml version="1.0" encoding="utf-8"?>
<!-- Generator: Adobe Illustrator 17.0.0, SVG Export Plug-In . SVG Version: 6.00 Build 0)  -->
<!DOCTYPE svg PUBLIC "-//W3C//DTD SVG 1.1//EN" "http://www.w3.org/Graphics/SVG/1.1/DTD/svg11.dtd">
<svg version="1.1" id="Layer_1" xmlns="http://www.w3.org/2000/svg" xmlns:xlink="http://www.w3.org/1999/xlink" x="0px" y="0px"
	 width="60px" height="60px" viewBox="0 0 60 60" enable-background="new 0 0 60 60" xml:space="preserve">
<g>
	<path fill="#231F20" d="M1,60h31c0.404,0,0.769-0.244,0.924-0.617c0.155-0.374,0.069-0.804-0.217-1.09L24.415,50l25.293-25.293
		c0.391-0.391,0.391-1.023,0-1.414l-13-13c-0.391-0.391-1.023-0.391-1.414,0L10,35.586l-8.293-8.293
		c-0.287-0.287-0.716-0.372-1.09-0.217C0.244,27.231,0,27.596,0,28v31C0,59.552,0.448,60,1,60z M2,30.414l7.293,7.293
		c0.391,0.391,1.023,0.391,1.414,0L36,12.414L47.586,24L22.293,49.293c-0.391,0.391-0.391,1.023,0,1.414L29.586,58H2V30.414z"/>
</g>
</svg>
