<?xml version="1.0" encoding="utf-8"?>
<!-- Generator: Adobe Illustrator 17.0.0, SVG Export Plug-In . SVG Version: 6.00 Build 0)  -->
<!DOCTYPE svg PUBLIC "-//W3C//DTD SVG 1.1//EN" "http://www.w3.org/Graphics/SVG/1.1/DTD/svg11.dtd">
<svg version="1.1" id="Layer_1" xmlns="http://www.w3.org/2000/svg" xmlns:xlink="http://www.w3.org/1999/xlink" x="0px" y="0px"
	 width="60px" height="60px" viewBox="0 0 60 60" enable-background="new 0 0 60 60" xml:space="preserve">
<g>
	<path fill="#231F20" d="M28.999,0c-0.553,0-1,0.447-1,1v55.654L4.692,34.278c-0.397-0.381-1.032-0.37-1.414,0.029
		c-0.382,0.398-0.369,1.031,0.029,1.414l24.999,24c0.042,0.04,0.094,0.059,0.14,0.09c0.058,0.039,0.109,0.086,0.175,0.112
		C28.742,59.973,28.87,60,28.999,60c0.128,0,0.256-0.027,0.377-0.076c0.068-0.028,0.121-0.075,0.18-0.116
		c0.044-0.031,0.095-0.048,0.135-0.087l25.001-24c0.398-0.383,0.411-1.016,0.029-1.414c-0.382-0.399-1.017-0.41-1.414-0.029
		L29.999,56.654V1C29.999,0.447,29.552,0,28.999,0z"/>
</g>
</svg>
