<?xml version="1.0" encoding="utf-8"?>
<!-- Generator: Adobe Illustrator 17.0.0, SVG Export Plug-In . SVG Version: 6.00 Build 0)  -->
<!DOCTYPE svg PUBLIC "-//W3C//DTD SVG 1.1//EN" "http://www.w3.org/Graphics/SVG/1.1/DTD/svg11.dtd">
<svg version="1.1" id="Layer_1" xmlns="http://www.w3.org/2000/svg" xmlns:xlink="http://www.w3.org/1999/xlink" x="0px" y="0px"
	 width="60px" height="60px" viewBox="0 0 60 60" enable-background="new 0 0 60 60" xml:space="preserve">
<g>
	<path fill="#231F20" d="M8,24h12v35c0,0.552,0.448,1,1,1h18c0.552,0,1-0.448,1-1V24h12c0.404,0,0.769-0.244,0.924-0.617
		c0.155-0.374,0.069-0.804-0.217-1.09l-22-22c-0.391-0.391-1.023-0.391-1.414,0l-22,22c-0.286,0.286-0.372,0.716-0.217,1.09
		C7.231,23.756,7.596,24,8,24z M30,2.414L49.586,22H39c-0.552,0-1,0.448-1,1v35H22V23c0-0.552-0.448-1-1-1H10.415L30,2.414z"/>
</g>
</svg>
