<?xml version="1.0" encoding="utf-8"?>
<!-- Generator: Adobe Illustrator 17.0.0, SVG Export Plug-In . SVG Version: 6.00 Build 0)  -->
<!DOCTYPE svg PUBLIC "-//W3C//DTD SVG 1.1//EN" "http://www.w3.org/Graphics/SVG/1.1/DTD/svg11.dtd">
<svg version="1.1" id="Layer_1" xmlns="http://www.w3.org/2000/svg" xmlns:xlink="http://www.w3.org/1999/xlink" x="0px" y="0px"
	 width="60px" height="60px" viewBox="0 0 60 60" enable-background="new 0 0 60 60" xml:space="preserve">
<g>
	<path fill="#231F20" d="M30,0C13.458,0,0,13.458,0,30s13.458,30,30,30s30-13.458,30-30S46.542,0,30,0z M30,58
		C14.56,58,2,45.44,2,30S14.56,2,30,2s28,12.56,28,28S45.44,58,30,58z"/>
	<path fill="#231F20" d="M29.293,14.293l-20,20c-0.286,0.286-0.372,0.716-0.217,1.09C9.231,35.757,9.596,36,10,36h10
		c0.265,0,0.519-0.106,0.707-0.293L30,26.414l9.293,9.293C39.481,35.894,39.735,36,40,36h10c0.007-0.001,0.013-0.001,0.02,0
		c0.552,0,1-0.447,1-1c0-0.337-0.167-0.635-0.422-0.816L30.707,14.293C30.316,13.902,29.684,13.902,29.293,14.293z M40.414,34
		l-9.707-9.707c-0.391-0.391-1.023-0.391-1.414,0L19.586,34h-7.172L30,16.414L47.586,34H40.414z"/>
</g>
</svg>
