<?xml version="1.0" encoding="utf-8"?>
<!-- Generator: Adobe Illustrator 17.0.0, SVG Export Plug-In . SVG Version: 6.00 Build 0)  -->
<!DOCTYPE svg PUBLIC "-//W3C//DTD SVG 1.1//EN" "http://www.w3.org/Graphics/SVG/1.1/DTD/svg11.dtd">
<svg version="1.1" id="Layer_1" xmlns="http://www.w3.org/2000/svg" xmlns:xlink="http://www.w3.org/1999/xlink" x="0px" y="0px"
	 width="60px" height="60px" viewBox="0 0 60 60" enable-background="new 0 0 60 60" xml:space="preserve">
<g>
	<path fill="#231F20" d="M39.404,9.293L22.111,26.586l-6.293-6.293c-0.287-0.287-0.717-0.372-1.09-0.217
		c-0.374,0.155-0.617,0.52-0.617,0.924v24c0,0.552,0.448,1,1,1h24c0.404,0,0.769-0.244,0.924-0.617
		c0.155-0.374,0.069-0.804-0.217-1.09L33.525,38l17.293-17.293c0.391-0.391,0.391-1.023,0-1.414l-10-10
		C40.428,8.903,39.795,8.903,39.404,9.293z M31.404,37.293c-0.391,0.391-0.391,1.023,0,1.414L36.697,44H16.111V23.415l5.293,5.293
		c0.391,0.391,1.023,0.391,1.414,0l17.293-17.293L48.697,20L31.404,37.293z"/>
	<path fill="#231F20" d="M30.112,0c-16.543,0-30,13.458-30,30c0,8.013,3.121,15.547,8.787,21.213C14.565,56.88,22.099,60,30.112,60
		c16.542,0,30-13.458,30-30C60.112,13.458,46.654,0,30.112,0z M30.112,58c-7.479,0-14.511-2.912-19.799-8.201
		C5.024,44.511,2.111,37.479,2.111,30c0-15.44,12.561-28,28-28c15.439,0,28,12.561,28,28C58.112,45.44,45.551,58,30.112,58z"/>
</g>
</svg>
