<?xml version="1.0" encoding="utf-8"?>
<!-- Generator: Adobe Illustrator 17.0.0, SVG Export Plug-In . SVG Version: 6.00 Build 0)  -->
<!DOCTYPE svg PUBLIC "-//W3C//DTD SVG 1.1//EN" "http://www.w3.org/Graphics/SVG/1.1/DTD/svg11.dtd">
<svg version="1.1" id="Layer_1" xmlns="http://www.w3.org/2000/svg" xmlns:xlink="http://www.w3.org/1999/xlink" x="0px" y="0px"
	 width="60px" height="60px" viewBox="0 0 60 60" enable-background="new 0 0 60 60" xml:space="preserve">
<g>
	<path fill="#231F20" d="M56.523,0.701c-0.155-0.374-0.519-0.617-0.924-0.617h-14c-0.265,0-0.52,0.106-0.707,0.293l-29,29
		c-0.391,0.391-0.391,1.023,0,1.414l29,29c0.188,0.188,0.442,0.293,0.707,0.293h14c0.404,0,0.769-0.243,0.924-0.617
		c0.155-0.374,0.069-0.804-0.217-1.09L28.013,30.084L56.306,1.791C56.592,1.505,56.678,1.075,56.523,0.701z M25.892,29.377
		c-0.391,0.391-0.391,1.023,0,1.414l27.293,27.293H42.013l-28-28l28-28h11.172L25.892,29.377z"/>
</g>
</svg>
