<?xml version="1.0" encoding="utf-8"?>
<!-- Generator: Adobe Illustrator 17.0.0, SVG Export Plug-In . SVG Version: 6.00 Build 0)  -->
<!DOCTYPE svg PUBLIC "-//W3C//DTD SVG 1.1//EN" "http://www.w3.org/Graphics/SVG/1.1/DTD/svg11.dtd">
<svg version="1.1" id="Layer_1" xmlns="http://www.w3.org/2000/svg" xmlns:xlink="http://www.w3.org/1999/xlink" x="0px" y="0px"
	 width="60px" height="60px" viewBox="0 0 60 60" enable-background="new 0 0 60 60" xml:space="preserve">
<g>
	<path fill="#231F20" d="M29.294,51.8c0.188,0.188,0.442,0.293,0.707,0.293c0.266,0,0.52-0.105,0.707-0.293l19.001-19
		c0.188-0.188,0.293-0.442,0.293-0.707v-13c0-0.404-0.243-0.769-0.617-0.924c-0.374-0.154-0.803-0.069-1.09,0.217L36.001,30.679
		V9.093c0-0.552-0.447-1-1-1h-10c-0.553,0-1,0.448-1,1v21.585L11.709,18.386c-0.286-0.286-0.715-0.371-1.09-0.217
		c-0.374,0.155-0.617,0.52-0.617,0.924v13c0,0.265,0.105,0.52,0.293,0.707L29.294,51.8z M12.002,21.508L24.294,33.8
		c0.286,0.286,0.716,0.372,1.09,0.217c0.373-0.155,0.617-0.52,0.617-0.924v-23h8v23c0,0.404,0.243,0.769,0.617,0.924
		c0.374,0.154,0.804,0.069,1.09-0.217l12.294-12.293v10.172l-18.001,18l-17.999-18V21.508z"/>
	<path fill="#231F20" d="M1.001,0.093c-0.553,0-1,0.448-1,1v58c0,0.552,0.447,1,1,1h58c0.553,0,1-0.448,1-1v-58c0-0.552-0.447-1-1-1
		H1.001z M58.001,58.093h-56v-56h56V58.093z"/>
</g>
</svg>
