<?xml version="1.0" encoding="utf-8"?>
<!-- Generator: Adobe Illustrator 17.0.0, SVG Export Plug-In . SVG Version: 6.00 Build 0)  -->
<!DOCTYPE svg PUBLIC "-//W3C//DTD SVG 1.1//EN" "http://www.w3.org/Graphics/SVG/1.1/DTD/svg11.dtd">
<svg version="1.1" id="Layer_1" xmlns="http://www.w3.org/2000/svg" xmlns:xlink="http://www.w3.org/1999/xlink" x="0px" y="0px"
	 width="60px" height="60px" viewBox="0 0 60 60" enable-background="new 0 0 60 60" xml:space="preserve">
<g>
	<path fill="#231F20" d="M1,38h30.586L15.293,54.293c-0.286,0.286-0.372,0.716-0.217,1.09C15.23,55.756,15.596,56,16,56h18
		c0.266,0,0.519-0.106,0.707-0.293l25-25c0.391-0.391,0.391-1.023,0-1.414l-25-25C34.519,4.105,34.266,4,34,4H16
		c-0.404,0-0.77,0.244-0.924,0.617c-0.155,0.374-0.069,0.804,0.217,1.09L31.586,22H1c-0.553,0-1,0.448-1,1v14
		C0,37.552,0.447,38,1,38z M2,24h32c0.404,0,0.769-0.244,0.924-0.617c0.155-0.374,0.069-0.804-0.217-1.09L18.414,6h15.172l24,24
		l-24,24H18.414l16.293-16.293c0.286-0.286,0.372-0.716,0.217-1.09C34.769,36.244,34.404,36,34,36H2V24z"/>
</g>
</svg>
