<?xml version="1.0" encoding="utf-8"?>
<!-- Generator: Adobe Illustrator 17.0.0, SVG Export Plug-In . SVG Version: 6.00 Build 0)  -->
<!DOCTYPE svg PUBLIC "-//W3C//DTD SVG 1.1//EN" "http://www.w3.org/Graphics/SVG/1.1/DTD/svg11.dtd">
<svg version="1.1" id="Layer_1" xmlns="http://www.w3.org/2000/svg" xmlns:xlink="http://www.w3.org/1999/xlink" x="0px" y="0px"
	 width="60px" height="60px" viewBox="0 0 60 60" enable-background="new 0 0 60 60" xml:space="preserve">
<g>
	<path fill="#231F20" d="M30.606,24c-2.757,0-5,2.243-5,5c0,2.757,2.243,5,5,5c2.757,0,5-2.243,5-5
		C35.606,26.243,33.363,24,30.606,24z M30.606,32c-1.654,0-3-1.346-3-3s1.346-3,3-3s3,1.346,3,3S32.26,32,30.606,32z"/>
	<path fill="#231F20" d="M30.606,36c-2.757,0-5,2.243-5,5c0,2.757,2.243,5,5,5c2.757,0,5-2.243,5-5
		C35.606,38.243,33.363,36,30.606,36z M30.606,44c-1.654,0-3-1.346-3-3s1.346-3,3-3s3,1.346,3,3S32.26,44,30.606,44z"/>
	<path fill="#231F20" d="M35.606,53c0-2.757-2.243-5-5-5c-2.757,0-5,2.243-5,5c0,2.757,2.243,5,5,5
		C33.363,58,35.606,55.757,35.606,53z M30.606,56c-1.654,0-3-1.346-3-3s1.346-3,3-3s3,1.346,3,3S32.26,56,30.606,56z"/>
	<path fill="#231F20" d="M23.606,45c0-2.757-2.243-5-5-5c-2.757,0-5,2.243-5,5c0,2.757,2.243,5,5,5
		C21.363,50,23.606,47.757,23.606,45z M15.606,45c0-1.654,1.346-3,3-3s3,1.346,3,3s-1.346,3-3,3S15.606,46.654,15.606,45z"/>
	<path fill="#231F20" d="M13.606,37c0-2.757-2.243-5-5-5c-2.757,0-5,2.243-5,5c0,2.757,2.243,5,5,5
		C11.363,42,13.606,39.757,13.606,37z M5.606,37c0-1.654,1.346-3,3-3s3,1.346,3,3s-1.346,3-3,3S5.606,38.654,5.606,37z"/>
	<path fill="#231F20" d="M47.606,45c0-2.757-2.243-5-5-5c-2.757,0-5,2.243-5,5c0,2.757,2.243,5,5,5
		C45.363,50,47.606,47.757,47.606,45z M39.606,45c0-1.654,1.346-3,3-3s3,1.346,3,3s-1.346,3-3,3S39.606,46.654,39.606,45z"/>
	<path fill="#231F20" d="M57.606,37c0-2.757-2.243-5-5-5c-2.757,0-5,2.243-5,5c0,2.757,2.243,5,5,5
		C55.363,42,57.606,39.757,57.606,37z M52.606,40c-1.654,0-3-1.346-3-3s1.346-3,3-3s3,1.346,3,3S54.26,40,52.606,40z"/>
	<path fill="#231F20" d="M30.606,12c-2.757,0-5,2.243-5,5c0,2.757,2.243,5,5,5c2.757,0,5-2.243,5-5
		C35.606,14.243,33.363,12,30.606,12z M30.606,20c-1.654,0-3-1.346-3-3s1.346-3,3-3s3,1.346,3,3S32.26,20,30.606,20z"/>
	<path fill="#231F20" d="M30.606,0c-2.757,0-5,2.243-5,5c0,2.757,2.243,5,5,5c2.757,0,5-2.243,5-5C35.606,2.243,33.363,0,30.606,0z
		 M30.606,8c-1.654,0-3-1.346-3-3s1.346-3,3-3s3,1.346,3,3S32.26,8,30.606,8z"/>
</g>
</svg>
