<?xml version="1.0" encoding="utf-8"?>
<!-- Generator: Adobe Illustrator 17.0.0, SVG Export Plug-In . SVG Version: 6.00 Build 0)  -->
<!DOCTYPE svg PUBLIC "-//W3C//DTD SVG 1.1//EN" "http://www.w3.org/Graphics/SVG/1.1/DTD/svg11.dtd">
<svg version="1.1" id="Layer_1" xmlns="http://www.w3.org/2000/svg" xmlns:xlink="http://www.w3.org/1999/xlink" x="0px" y="0px"
	 width="60px" height="60px" viewBox="0 0 60 60" enable-background="new 0 0 60 60" xml:space="preserve">
<g>
	<path fill="#231F20" d="M25,49c0.129,0,0.259-0.025,0.383-0.076C25.757,48.769,26,48.404,26,48V38h25c0.553,0,1-0.448,1-1V23
		c0-0.552-0.447-1-1-1H26V12c0-0.404-0.243-0.769-0.617-0.924c-0.374-0.155-0.804-0.07-1.09,0.217l-18,18
		c-0.391,0.391-0.391,1.023,0,1.414l18,18C24.484,48.898,24.74,49,25,49z M24,37v8.586L8.414,30L24,14.414V23c0,0.552,0.447,1,1,1
		h25v12H25C24.447,36,24,36.448,24,37z"/>
	<path fill="#231F20" d="M30,60c16.542,0,30-13.458,30-30S46.542,0,30,0S0,13.458,0,30S13.458,60,30,60z M30,2
		c15.439,0,28,12.56,28,28S45.439,58,30,58C14.56,58,2,45.44,2,30S14.56,2,30,2z"/>
</g>
</svg>
