<?xml version="1.0" encoding="utf-8"?>
<!-- Generator: Adobe Illustrator 17.0.0, SVG Export Plug-In . SVG Version: 6.00 Build 0)  -->
<!DOCTYPE svg PUBLIC "-//W3C//DTD SVG 1.1//EN" "http://www.w3.org/Graphics/SVG/1.1/DTD/svg11.dtd">
<svg version="1.1" id="Layer_1" xmlns="http://www.w3.org/2000/svg" xmlns:xlink="http://www.w3.org/1999/xlink" x="0px" y="0px"
	 width="60px" height="60px" viewBox="0 0 60 60" enable-background="new 0 0 60 60" xml:space="preserve">
<g>
	<path fill="#231F20" d="M30.106,0.105c-16.542,0-30,13.458-30,30s13.458,30,30,30c16.542,0,30-13.458,30-30
		S46.648,0.105,30.106,0.105z M30.106,58.105c-15.44,0-28-12.561-28-28c0-15.44,12.561-28,28-28c15.439,0,28,12.56,28,28
		C58.106,45.545,45.545,58.105,30.106,58.105z"/>
	<path fill="#231F20" d="M30.812,8.398c-0.391-0.391-1.023-0.391-1.414,0l-18,18c-0.391,0.391-0.391,1.023,0,1.414l5,5
		c0.391,0.391,1.023,0.391,1.414,0l6.293-6.293v24.586c0,0.552,0.448,1,1,1h10c0.552,0,1-0.448,1-1V26.519l6.293,6.293
		c0.391,0.391,1.023,0.391,1.414,0l5-5c0.391-0.391,0.391-1.023,0-1.414L30.812,8.398z M43.106,30.691l-7.293-7.293
		c-0.287-0.287-0.716-0.372-1.09-0.217c-0.374,0.155-0.617,0.52-0.617,0.924v26h-8v-26c0-0.404-0.244-0.769-0.617-0.924
		c-0.375-0.155-0.804-0.07-1.09,0.217l-7.293,7.293l-3.586-3.586l16.586-16.586l16.586,16.586L43.106,30.691z"/>
</g>
</svg>
