<?xml version="1.0" encoding="utf-8"?>
<!-- Generator: Adobe Illustrator 17.0.0, SVG Export Plug-In . SVG Version: 6.00 Build 0)  -->
<!DOCTYPE svg PUBLIC "-//W3C//DTD SVG 1.1//EN" "http://www.w3.org/Graphics/SVG/1.1/DTD/svg11.dtd">
<svg version="1.1" id="Layer_1" xmlns="http://www.w3.org/2000/svg" xmlns:xlink="http://www.w3.org/1999/xlink" x="0px" y="0px"
	 width="60px" height="60px" viewBox="0 0 60 60" enable-background="new 0 0 60 60" xml:space="preserve">
<g>
	<path fill="#231F20" d="M36,31.093c0-2.757-2.243-5-5-5c-2.757,0-5,2.243-5,5c0,2.757,2.243,5,5,5
		C33.757,36.093,36,33.85,36,31.093z M28,31.093c0-1.654,1.346-3,3-3s3,1.346,3,3s-1.346,3-3,3S28,32.747,28,31.093z"/>
	<path fill="#231F20" d="M19,26.093c-2.757,0-5,2.243-5,5c0,2.757,2.243,5,5,5c2.757,0,5-2.243,5-5
		C24,28.336,21.757,26.093,19,26.093z M19,34.093c-1.654,0-3-1.346-3-3s1.346-3,3-3s3,1.346,3,3S20.654,34.093,19,34.093z"/>
	<path fill="#231F20" d="M2,31.093c0,2.757,2.243,5,5,5c2.757,0,5-2.243,5-5c0-2.757-2.243-5-5-5C4.243,26.093,2,28.336,2,31.093z
		 M10,31.093c0,1.654-1.346,3-3,3s-3-1.346-3-3s1.346-3,3-3S10,29.438,10,31.093z"/>
	<path fill="#231F20" d="M10,19.093c0,2.757,2.243,5,5,5c2.757,0,5-2.243,5-5c0-2.757-2.243-5-5-5
		C12.243,14.093,10,16.336,10,19.093z M18,19.093c0,1.654-1.346,3-3,3s-3-1.346-3-3s1.346-3,3-3S18,17.438,18,19.093z"/>
	<path fill="#231F20" d="M28,9.093c0-2.757-2.243-5-5-5c-2.757,0-5,2.243-5,5c0,2.757,2.243,5,5,5C25.757,14.093,28,11.85,28,9.093z
		 M23,12.093c-1.654,0-3-1.346-3-3s1.346-3,3-3s3,1.346,3,3S24.654,12.093,23,12.093z"/>
	<path fill="#231F20" d="M15,48.093c2.757,0,5-2.243,5-5c0-2.757-2.243-5-5-5c-2.757,0-5,2.243-5,5
		C10,45.85,12.243,48.093,15,48.093z M15,40.093c1.654,0,3,1.346,3,3s-1.346,3-3,3s-3-1.346-3-3S13.346,40.093,15,40.093z"/>
	<path fill="#231F20" d="M23,58.093c2.757,0,5-2.243,5-5c0-2.757-2.243-5-5-5c-2.757,0-5,2.243-5,5
		C18,55.85,20.243,58.093,23,58.093z M23,50.093c1.654,0,3,1.346,3,3s-1.346,3-3,3s-3-1.346-3-3S21.346,50.093,23,50.093z"/>
	<path fill="#231F20" d="M38,31.093c0,2.757,2.243,5,5,5s5-2.243,5-5c0-2.757-2.243-5-5-5S38,28.336,38,31.093z M46,31.093
		c0,1.654-1.346,3-3,3s-3-1.346-3-3s1.346-3,3-3S46,29.438,46,31.093z"/>
	<path fill="#231F20" d="M55,36.093c2.757,0,5-2.243,5-5c0-2.757-2.243-5-5-5s-5,2.243-5,5C50,33.85,52.243,36.093,55,36.093z
		 M55,28.093c1.654,0,3,1.346,3,3s-1.346,3-3,3s-3-1.346-3-3S53.346,28.093,55,28.093z"/>
</g>
</svg>
