<?xml version="1.0" encoding="utf-8"?>
<!-- Generator: Adobe Illustrator 17.0.0, SVG Export Plug-In . SVG Version: 6.00 Build 0)  -->
<!DOCTYPE svg PUBLIC "-//W3C//DTD SVG 1.1//EN" "http://www.w3.org/Graphics/SVG/1.1/DTD/svg11.dtd">
<svg version="1.1" id="Layer_1" xmlns="http://www.w3.org/2000/svg" xmlns:xlink="http://www.w3.org/1999/xlink" x="0px" y="0px"
	 width="60px" height="60px" viewBox="0 0 60 60" enable-background="new 0 0 60 60" xml:space="preserve">
<g>
	<path fill="#231F20" d="M12,26h10v25c0,0.552,0.447,1,1,1h14c0.553,0,1-0.448,1-1V26h10c0.404,0,0.769-0.244,0.924-0.617
		c0.155-0.374,0.069-0.804-0.217-1.09l-18-18c-0.391-0.391-1.023-0.391-1.414,0l-18,18c-0.286,0.286-0.372,0.716-0.217,1.09
		C11.23,25.756,11.596,26,12,26z M30,8.414L45.586,24H37c-0.553,0-1,0.448-1,1v25H24V25c0-0.552-0.447-1-1-1h-8.586L30,8.414z"/>
	<path fill="#231F20" d="M30,60c16.542,0,30-13.458,30-30S46.542,0,30,0S0,13.458,0,30S13.458,60,30,60z M30,2
		c15.44,0,28,12.56,28,28S45.44,58,30,58S2,45.44,2,30S14.56,2,30,2z"/>
</g>
</svg>
