<?xml version="1.0" encoding="utf-8"?>
<!-- Generator: Adobe Illustrator 17.0.0, SVG Export Plug-In . SVG Version: 6.00 Build 0)  -->
<!DOCTYPE svg PUBLIC "-//W3C//DTD SVG 1.1//EN" "http://www.w3.org/Graphics/SVG/1.1/DTD/svg11.dtd">
<svg version="1.1" id="Layer_1" xmlns="http://www.w3.org/2000/svg" xmlns:xlink="http://www.w3.org/1999/xlink" x="0px" y="0px"
	 width="60px" height="60px" viewBox="0 0 60 60" enable-background="new 0 0 60 60" xml:space="preserve">
<g>
	<path fill="#231F20" d="M59.465,28.029H3.811L26.186,4.723c0.382-0.398,0.369-1.031-0.029-1.414
		c-0.397-0.381-1.031-0.37-1.414,0.029l-24,24.999c-0.039,0.04-0.056,0.091-0.087,0.135c-0.041,0.059-0.088,0.113-0.116,0.18
		c-0.049,0.119-0.074,0.245-0.075,0.372c0,0.002-0.001,0.003-0.001,0.005s0.001,0.003,0.001,0.005
		c0.001,0.127,0.026,0.253,0.075,0.372c0.027,0.067,0.075,0.121,0.115,0.179c0.031,0.045,0.048,0.095,0.087,0.136l24,25.001
		c0.196,0.205,0.459,0.308,0.722,0.308c0.249,0,0.499-0.093,0.692-0.278c0.398-0.383,0.411-1.016,0.029-1.414L3.811,30.029h55.654
		c0.553,0,1-0.447,1-1C60.465,28.477,60.018,28.029,59.465,28.029z"/>
</g>
</svg>
