<?xml version="1.0" encoding="utf-8"?>
<!-- Generator: Adobe Illustrator 17.0.0, SVG Export Plug-In . SVG Version: 6.00 Build 0)  -->
<!DOCTYPE svg PUBLIC "-//W3C//DTD SVG 1.1//EN" "http://www.w3.org/Graphics/SVG/1.1/DTD/svg11.dtd">
<svg version="1.1" id="Layer_1" xmlns="http://www.w3.org/2000/svg" xmlns:xlink="http://www.w3.org/1999/xlink" x="0px" y="0px"
	 width="60px" height="60px" viewBox="0 0 60 60" enable-background="new 0 0 60 60" xml:space="preserve">
<g>
	<path fill="#231F20" d="M28.315,54.249c0.19,0.17,0.429,0.254,0.666,0.254c0.274,0,0.549-0.113,0.746-0.334
		c0.368-0.412,0.332-1.044-0.08-1.412L2.483,28.503L29.647,4.249c0.412-0.368,0.448-1,0.08-1.412
		c-0.368-0.412-1.001-0.447-1.412-0.08l-28,25c-0.213,0.19-0.334,0.461-0.334,0.746c0,0.285,0.121,0.556,0.334,0.746L28.315,54.249z
		"/>
	<path fill="#231F20" d="M29.981,28.503c0,0.285,0.121,0.556,0.334,0.746l28,25c0.19,0.17,0.429,0.254,0.666,0.254
		c0.274,0,0.549-0.113,0.746-0.334c0.368-0.412,0.332-1.044-0.08-1.412L32.483,28.503L59.647,4.249c0.412-0.368,0.448-1,0.08-1.412
		c-0.368-0.412-1.001-0.447-1.412-0.08l-28,25C30.102,27.947,29.981,28.218,29.981,28.503z"/>
</g>
</svg>
