<?xml version="1.0" encoding="utf-8"?>
<!-- Generator: Adobe Illustrator 17.0.0, SVG Export Plug-In . SVG Version: 6.00 Build 0)  -->
<!DOCTYPE svg PUBLIC "-//W3C//DTD SVG 1.1//EN" "http://www.w3.org/Graphics/SVG/1.1/DTD/svg11.dtd">
<svg version="1.1" id="Layer_1" xmlns="http://www.w3.org/2000/svg" xmlns:xlink="http://www.w3.org/1999/xlink" x="0px" y="0px"
	 width="60px" height="60px" viewBox="0 0 60 60" enable-background="new 0 0 60 60" xml:space="preserve">
<g>
	<path fill="#231F20" d="M29.293,53.707C29.488,53.902,29.744,54,30,54s0.512-0.098,0.707-0.293l18.001-18
		c0.286-0.286,0.372-0.716,0.217-1.09C48.771,34.243,48.405,34,48.001,34L38,34V9c0-0.552-0.447-1-1-1L23.001,8
		c-0.266,0-0.52,0.105-0.707,0.293S22.001,8.734,22.001,9v25L12,34c-0.404,0-0.77,0.244-0.924,0.617
		c-0.155,0.374-0.069,0.804,0.217,1.09L29.293,53.707z M23.001,36c0.553,0,1-0.448,1-1V10L36,10v25c0,0.265,0.105,0.519,0.293,0.707
		S36.734,36,37,36l8.587,0L30,51.586L14.414,36L23.001,36z"/>
	<path fill="#231F20" d="M30,60c8.014,0,15.547-3.121,21.214-8.787C56.88,45.546,60.001,38.013,60,30C60,13.458,46.542,0,30,0
		S0.001,13.458,0.001,30c0,8.013,3.12,15.546,8.786,21.213S21.987,60,30,60z M30,2c15.439,0,28,12.56,28,28
		c0,7.479-2.912,14.51-8.2,19.799C44.511,55.087,37.479,58,30,58c-7.479,0-14.51-2.913-19.799-8.201
		c-5.288-5.288-8.2-12.32-8.2-19.799C2.001,14.56,14.562,2,30,2z"/>
</g>
</svg>
