<?xml version="1.0" encoding="utf-8"?>
<!-- Generator: Adobe Illustrator 17.0.0, SVG Export Plug-In . SVG Version: 6.00 Build 0)  -->
<!DOCTYPE svg PUBLIC "-//W3C//DTD SVG 1.1//EN" "http://www.w3.org/Graphics/SVG/1.1/DTD/svg11.dtd">
<svg version="1.1" id="Layer_1" xmlns="http://www.w3.org/2000/svg" xmlns:xlink="http://www.w3.org/1999/xlink" x="0px" y="0px"
	 width="60px" height="60px" viewBox="0 0 60 60" enable-background="new 0 0 60 60" xml:space="preserve">
<g>
	<path fill="#231F20" d="M24,31.093c0,2.757,2.243,5,5,5s5-2.243,5-5c0-2.757-2.243-5-5-5S24,28.336,24,31.093z M32,31.093
		c0,1.654-1.346,3-3,3s-3-1.346-3-3s1.346-3,3-3S32,29.438,32,31.093z"/>
	<path fill="#231F20" d="M41,26.093c-2.757,0-5,2.243-5,5c0,2.757,2.243,5,5,5s5-2.243,5-5C46,28.336,43.757,26.093,41,26.093z
		 M41,34.093c-1.654,0-3-1.346-3-3s1.346-3,3-3s3,1.346,3,3S42.654,34.093,41,34.093z"/>
	<path fill="#231F20" d="M58,31.093c0-2.757-2.243-5-5-5s-5,2.243-5,5c0,2.757,2.243,5,5,5S58,33.85,58,31.093z M50,31.093
		c0-1.654,1.346-3,3-3s3,1.346,3,3s-1.346,3-3,3S50,32.747,50,31.093z"/>
	<path fill="#231F20" d="M50,19.093c0-2.757-2.243-5-5-5s-5,2.243-5,5c0,2.757,2.243,5,5,5S50,21.85,50,19.093z M45,22.093
		c-1.654,0-3-1.346-3-3s1.346-3,3-3s3,1.346,3,3S46.654,22.093,45,22.093z"/>
	<path fill="#231F20" d="M37,4.093c-2.757,0-5,2.243-5,5c0,2.757,2.243,5,5,5s5-2.243,5-5C42,6.336,39.757,4.093,37,4.093z
		 M37,12.093c-1.654,0-3-1.346-3-3s1.346-3,3-3s3,1.346,3,3S38.654,12.093,37,12.093z"/>
	<path fill="#231F20" d="M50,43.093c0-2.757-2.243-5-5-5s-5,2.243-5,5c0,2.757,2.243,5,5,5S50,45.85,50,43.093z M42,43.093
		c0-1.654,1.346-3,3-3s3,1.346,3,3s-1.346,3-3,3S42,44.747,42,43.093z"/>
	<path fill="#231F20" d="M37,58.093c2.757,0,5-2.243,5-5c0-2.757-2.243-5-5-5s-5,2.243-5,5C32,55.85,34.243,58.093,37,58.093z
		 M37,50.093c1.654,0,3,1.346,3,3s-1.346,3-3,3s-3-1.346-3-3S35.346,50.093,37,50.093z"/>
	<path fill="#231F20" d="M17,36.093c2.757,0,5-2.243,5-5c0-2.757-2.243-5-5-5s-5,2.243-5,5C12,33.85,14.243,36.093,17,36.093z
		 M17,28.093c1.654,0,3,1.346,3,3s-1.346,3-3,3s-3-1.346-3-3S15.346,28.093,17,28.093z"/>
	<path fill="#231F20" d="M5,36.093c2.757,0,5-2.243,5-5c0-2.757-2.243-5-5-5s-5,2.243-5,5C0,33.85,2.243,36.093,5,36.093z M5,28.093
		c1.654,0,3,1.346,3,3s-1.346,3-3,3s-3-1.346-3-3S3.346,28.093,5,28.093z"/>
</g>
</svg>
