<?xml version="1.0" encoding="utf-8"?>
<!-- Generator: Adobe Illustrator 17.0.0, SVG Export Plug-In . SVG Version: 6.00 Build 0)  -->
<!DOCTYPE svg PUBLIC "-//W3C//DTD SVG 1.1//EN" "http://www.w3.org/Graphics/SVG/1.1/DTD/svg11.dtd">
<svg version="1.1" id="Layer_1" xmlns="http://www.w3.org/2000/svg" xmlns:xlink="http://www.w3.org/1999/xlink" x="0px" y="0px"
	 width="60px" height="60px" viewBox="0 0 60 60" enable-background="new 0 0 60 60" xml:space="preserve">
<g>
	<path fill="#231F20" d="M30,60c16.542,0,30-13.458,30-30S46.542,0,30,0S0,13.458,0,30S13.458,60,30,60z M30,2
		c15.439,0,28,12.56,28,28S45.439,58,30,58S2,45.44,2,30S14.561,2,30,2z"/>
	<path fill="#231F20" d="M24.617,50.924C24.741,50.976,24.871,51,25,51c0.26,0,0.516-0.102,0.707-0.293l20-20
		c0.391-0.391,0.391-1.023,0-1.414l-20-20c-0.286-0.286-0.715-0.373-1.09-0.217C24.243,9.23,24,9.596,24,10v10
		c0,0.266,0.105,0.519,0.293,0.707L33.586,30l-9.293,9.293C24.105,39.48,24,39.734,24,40v10C24,50.404,24.243,50.769,24.617,50.924z
		 M26,40.414l9.707-9.707c0.391-0.391,0.391-1.023,0-1.414L26,19.586v-7.172L43.586,30L26,47.586V40.414z"/>
</g>
</svg>
