<?xml version="1.0" encoding="utf-8"?>
<!-- Generator: Adobe Illustrator 17.0.0, SVG Export Plug-In . SVG Version: 6.00 Build 0)  -->
<!DOCTYPE svg PUBLIC "-//W3C//DTD SVG 1.1//EN" "http://www.w3.org/Graphics/SVG/1.1/DTD/svg11.dtd">
<svg version="1.1" id="Layer_1" xmlns="http://www.w3.org/2000/svg" xmlns:xlink="http://www.w3.org/1999/xlink" x="0px" y="0px"
	 width="60px" height="60px" viewBox="0 0 60 60" enable-background="new 0 0 60 60" xml:space="preserve">
<g>
	<path fill="#231F20" d="M59.105,10h-37c-0.265,0-0.52,0.105-0.707,0.293l-21,21c-0.391,0.391-0.391,1.023,0,1.414l21,21
		C21.586,53.894,21.84,54,22.105,54h37c0.552,0,1-0.447,1-1V11C60.105,10.447,59.658,10,59.105,10z M58.105,52H22.519l-20-20l20-20
		h35.586V52z"/>
	<path fill="#231F20" d="M26.398,43.707C26.594,43.902,26.85,44,27.105,44c0.256,0,0.512-0.098,0.707-0.293l10.293-10.293
		l10.293,10.293C48.594,43.902,48.85,44,49.105,44c0.256,0,0.512-0.098,0.707-0.293c0.391-0.391,0.391-1.023,0-1.414L39.52,32
		l10.293-10.293c0.391-0.391,0.391-1.023,0-1.414c-0.391-0.391-1.023-0.391-1.414,0L38.105,30.586L27.812,20.293
		c-0.391-0.391-1.023-0.391-1.414,0c-0.391,0.391-0.391,1.023,0,1.414L36.691,32L26.398,42.293
		C26.008,42.684,26.008,43.316,26.398,43.707z"/>
</g>
</svg>
