<?xml version="1.0" encoding="utf-8"?>
<!-- Generator: Adobe Illustrator 17.0.0, SVG Export Plug-In . SVG Version: 6.00 Build 0)  -->
<!DOCTYPE svg PUBLIC "-//W3C//DTD SVG 1.1//EN" "http://www.w3.org/Graphics/SVG/1.1/DTD/svg11.dtd">
<svg version="1.1" id="Layer_1" xmlns="http://www.w3.org/2000/svg" xmlns:xlink="http://www.w3.org/1999/xlink" x="0px" y="0px"
	 width="60px" height="60px" viewBox="0 0 60 60" enable-background="new 0 0 60 60" xml:space="preserve">
<g>
	<rect x="46" y="50" fill="#231F20" width="4" height="4"/>
	<rect x="46" y="42" fill="#231F20" width="4" height="4"/>
	<rect x="46" y="34" fill="#231F20" width="4" height="4"/>
	<rect x="46" y="26" fill="#231F20" width="4" height="4"/>
	<rect x="38" y="50" fill="#231F20" width="4" height="4"/>
	<rect x="30" y="50" fill="#231F20" width="4" height="4"/>
	<rect x="38" y="42" fill="#231F20" width="4" height="4"/>
	<rect x="30" y="42" fill="#231F20" width="4" height="4"/>
	<rect x="38" y="34" fill="#231F20" width="4" height="4"/>
	<rect x="30" y="34" fill="#231F20" width="4" height="4"/>
	<rect x="30" y="26" fill="#231F20" width="4" height="4"/>
	<rect x="22" y="34" fill="#231F20" width="4" height="4"/>
	<rect x="22" y="50" fill="#231F20" width="4" height="4"/>
	<rect x="22" y="26" fill="#231F20" width="4" height="4"/>
	<rect x="22" y="18" fill="#231F20" width="4" height="4"/>
	<rect x="14" y="26" fill="#231F20" width="4" height="4"/>
	<rect x="14" y="18" fill="#231F20" width="4" height="4"/>
	<rect x="14" y="10" fill="#231F20" width="4" height="4"/>
	<rect x="6" y="18" fill="#231F20" width="4" height="4"/>
</g>
</svg>
