<?xml version="1.0" encoding="utf-8"?>
<!-- Generator: Adobe Illustrator 17.0.0, SVG Export Plug-In . SVG Version: 6.00 Build 0)  -->
<!DOCTYPE svg PUBLIC "-//W3C//DTD SVG 1.1//EN" "http://www.w3.org/Graphics/SVG/1.1/DTD/svg11.dtd">
<svg version="1.1" id="Layer_1" xmlns="http://www.w3.org/2000/svg" xmlns:xlink="http://www.w3.org/1999/xlink" x="0px" y="0px"
	 width="60px" height="60px" viewBox="0 0 60 60" enable-background="new 0 0 60 60" xml:space="preserve">
<g>
	<path fill="#231F20" d="M39.709,12.386c-0.286-0.286-0.715-0.371-1.09-0.217c-0.374,0.155-0.617,0.52-0.617,0.924V29.68
		L21.709,13.386c-0.375-0.375-1.039-0.375-1.414,0l-7,7c-0.391,0.391-0.391,1.023,0,1.414l16.293,16.293H13.002
		c-0.404,0-0.77,0.244-0.924,0.617c-0.155,0.374-0.069,0.804,0.217,1.09l8,8c0.188,0.188,0.441,0.293,0.707,0.293h26
		c0.553,0,1-0.448,1-1v-26c0-0.265-0.106-0.52-0.293-0.707L39.709,12.386z M46.002,46.093H21.416l-6-6h16.586
		c0.404,0,0.769-0.244,0.924-0.617c0.155-0.374,0.069-0.804-0.217-1.09L15.416,21.093l5.586-5.586l17.293,17.294
		c0.287,0.287,0.717,0.372,1.09,0.217c0.374-0.155,0.617-0.52,0.617-0.924V15.507l6,6V46.093z"/>
	<path fill="#231F20" d="M1,60.093h58c0.553,0,1-0.448,1-1v-58c0-0.552-0.447-1-1-1H1c-0.553,0-1,0.448-1,1v58
		C0,59.646,0.447,60.093,1,60.093z M2,2.093h56v56H2V2.093z"/>
</g>
</svg>
