<?xml version="1.0" encoding="utf-8"?>
<!-- Generator: Adobe Illustrator 17.0.0, SVG Export Plug-In . SVG Version: 6.00 Build 0)  -->
<!DOCTYPE svg PUBLIC "-//W3C//DTD SVG 1.1//EN" "http://www.w3.org/Graphics/SVG/1.1/DTD/svg11.dtd">
<svg version="1.1" id="Layer_1" xmlns="http://www.w3.org/2000/svg" xmlns:xlink="http://www.w3.org/1999/xlink" x="0px" y="0px"
	 width="60px" height="60px" viewBox="0 0 60 60" enable-background="new 0 0 60 60" xml:space="preserve">
<g>
	<path fill="#231F20" d="M30,60c16.542,0,30-13.458,30-30S46.542,0,30,0S0,13.458,0,30S13.458,60,30,60z M30,2
		c15.439,0,28,12.56,28,28S45.439,58,30,58S2,45.44,2,30S14.561,2,30,2z"/>
	<path fill="#231F20" d="M27.293,42.293c-0.391,0.391-0.391,1.023,0,1.414l5,5C32.488,48.903,32.744,49,33,49
		s0.512-0.098,0.707-0.293l18-18c0.391-0.391,0.391-1.023,0-1.414l-18-18c-0.391-0.391-1.023-0.391-1.414,0l-5,5
		c-0.391,0.391-0.391,1.023,0,1.414L33.586,24H9c-0.553,0-1,0.448-1,1v10c0,0.552,0.447,1,1,1h24.586L27.293,42.293z M10,34v-8h26
		c0.404,0,0.77-0.244,0.924-0.617c0.155-0.374,0.069-0.804-0.217-1.09L29.414,17L33,13.415L49.586,30L33,46.586L29.414,43
		l7.293-7.293c0.286-0.286,0.372-0.716,0.217-1.09C36.77,34.244,36.404,34,36,34H10z"/>
</g>
</svg>
