<?xml version="1.0" encoding="utf-8"?>
<!-- Generator: Adobe Illustrator 17.0.0, SVG Export Plug-In . SVG Version: 6.00 Build 0)  -->
<!DOCTYPE svg PUBLIC "-//W3C//DTD SVG 1.1//EN" "http://www.w3.org/Graphics/SVG/1.1/DTD/svg11.dtd">
<svg version="1.1" id="Layer_1" xmlns="http://www.w3.org/2000/svg" xmlns:xlink="http://www.w3.org/1999/xlink" x="0px" y="0px"
	 width="60px" height="60px" viewBox="0 0 60 60" enable-background="new 0 0 60 60" xml:space="preserve">
<g>
	<path fill="#231F20" d="M29.374,59.31c0.195,0.195,0.451,0.293,0.707,0.293s0.512-0.098,0.707-0.293l17-17
		c0.188-0.188,0.293-0.442,0.293-0.707v-12c0-0.404-0.243-0.769-0.617-0.924c-0.373-0.154-0.803-0.069-1.09,0.217L30.081,45.189
		L13.788,28.896c-0.286-0.286-0.715-0.371-1.09-0.217c-0.374,0.155-0.617,0.519-0.617,0.924v12c0,0.265,0.105,0.52,0.293,0.707
		L29.374,59.31z M14.081,32.017L29.374,47.31c0.391,0.391,1.023,0.391,1.414,0l15.293-15.293v9.172l-16,16l-16-16V32.017z"/>
	<path fill="#231F20" d="M29.374,37.31c0.195,0.195,0.451,0.293,0.707,0.293s0.512-0.098,0.707-0.293l17-17
		c0.188-0.188,0.293-0.442,0.293-0.707v-8c0-0.404-0.243-0.769-0.617-0.924c-0.373-0.154-0.803-0.07-1.09,0.217L30.081,27.189
		L13.788,10.896c-0.286-0.287-0.715-0.37-1.09-0.217c-0.374,0.155-0.617,0.519-0.617,0.924v8c0,0.265,0.105,0.52,0.293,0.707
		L29.374,37.31z M14.081,14.017L29.374,29.31c0.391,0.391,1.023,0.391,1.414,0l15.293-15.293v5.172l-16,16l-16-16V14.017z"/>
	<path fill="#231F20" d="M29.374,18.31c0.195,0.195,0.451,0.293,0.707,0.293s0.512-0.098,0.707-0.293l17-17
		c0.391-0.391,0.391-1.023,0-1.414s-1.023-0.391-1.414,0L30.081,16.189L13.788-0.104c-0.391-0.391-1.023-0.391-1.414,0
		c-0.391,0.391-0.391,1.023,0,1.414L29.374,18.31z"/>
</g>
</svg>
