<?xml version="1.0" encoding="utf-8"?>
<!-- Generator: Adobe Illustrator 17.0.0, SVG Export Plug-In . SVG Version: 6.00 Build 0)  -->
<!DOCTYPE svg PUBLIC "-//W3C//DTD SVG 1.1//EN" "http://www.w3.org/Graphics/SVG/1.1/DTD/svg11.dtd">
<svg version="1.1" xmlns="http://www.w3.org/2000/svg" xmlns:xlink="http://www.w3.org/1999/xlink" x="0px" y="0px" width="60px"
	 height="60px" viewBox="0 0 60 60" enable-background="new 0 0 60 60" xml:space="preserve">
<g id="Layer_3">
	<g>
		<path fill="#010101" d="M36.643,37.083c0.574,0,1.141-0.034,1.703-0.088L51.86,23.481c0.391-0.391,1.024-0.391,1.414,0
			l0.836,0.836c0.542-1.679,0.835-3.456,0.835-5.286c0-10.01-8.552-18.79-18.302-18.79H18.43c-9.75,0-18.302,8.78-18.302,18.79
			c0,9.867,8.171,17.894,18.135,17.894c0.001,0,0.004,0,0.006,0l0.982,0.08v8.012c0,0.394,0.232,0.751,0.591,0.913
			c0.131,0.059,0.27,0.087,0.409,0.087c0.241,0,0.479-0.087,0.666-0.254l9.733-8.68H36.643z"/>
		<polygon fill="#010101" points="41.877,36.292 41.877,36.292 33.65,44.519 41.369,52.238 53.828,39.779 46.109,32.06 		"/>
		<path fill="#010101" d="M59.579,32.615l-6.276-6.276v0l-0.735-0.735l-5.044,5.044l7.719,7.719l4.336-4.336
			c0.188-0.188,0.293-0.442,0.293-0.707C59.872,33.056,59.766,32.802,59.579,32.615z"/>
		<path fill="#010101" d="M30.167,54.484c-0.1,0.35-0.003,0.725,0.254,0.982c0.19,0.19,0.445,0.293,0.707,0.293
			c0.092,0,0.184-0.013,0.275-0.039l8.26-2.36l-7.137-7.137L30.167,54.484z"/>
	</g>
</g>
<g id="nyt_x5F_exporter_x5F_info" display="none">
</g>
</svg>
