<?xml version="1.0" encoding="utf-8"?>
<!-- Generator: Adobe Illustrator 17.0.0, SVG Export Plug-In . SVG Version: 6.00 Build 0)  -->
<!DOCTYPE svg PUBLIC "-//W3C//DTD SVG 1.1//EN" "http://www.w3.org/Graphics/SVG/1.1/DTD/svg11.dtd">
<svg version="1.1" xmlns="http://www.w3.org/2000/svg" xmlns:xlink="http://www.w3.org/1999/xlink" x="0px" y="0px" width="60px"
	 height="60px" viewBox="0 0 60 60" enable-background="new 0 0 60 60" xml:space="preserve">
<g id="Layer_3">
	<path fill="#010101" d="M30,0C13.458,0,0,11.063,0,24.661c0,6.475,2.994,12.541,8.45,17.163l-6.345,12.73
		c-0.191,0.383-0.117,0.845,0.184,1.149C2.481,55.898,2.739,56,3,56c0.148,0,0.297-0.033,0.436-0.1l16.49-8.001
		c3.226,0.944,6.612,1.422,10.073,1.422c16.542,0,30-11.062,30-24.66C60,11.063,46.542,0,30,0z M28,13c0-0.552,0.448-1,1-1
		c0.552,0,1,0.448,1,1v15.106c0,0.552-0.448,1-1,1c-0.552,0-1-0.448-1-1V13z M30.438,34.39c-0.371,0.384-0.87,0.6-1.403,0.61
		c-0.006,0-0.03,0-0.036,0c-1.083,0-1.98-0.881-1.999-1.965c-0.009-0.535,0.19-1.04,0.561-1.424c0.372-0.385,0.871-0.601,1.405-0.61
		c0.001,0,0.001,0,0.001,0c1.117,0,2.014,0.881,2.033,1.965C31.009,33.5,30.81,34.006,30.438,34.39z"/>
</g>
<g id="nyt_x5F_exporter_x5F_info" display="none">
</g>
</svg>
