<?xml version="1.0" encoding="utf-8"?>
<!-- Generator: Adobe Illustrator 17.0.0, SVG Export Plug-In . SVG Version: 6.00 Build 0)  -->
<!DOCTYPE svg PUBLIC "-//W3C//DTD SVG 1.1//EN" "http://www.w3.org/Graphics/SVG/1.1/DTD/svg11.dtd">
<svg version="1.1" xmlns="http://www.w3.org/2000/svg" xmlns:xlink="http://www.w3.org/1999/xlink" x="0px" y="0px" width="60px"
	 height="60px" viewBox="0 0 60 60" enable-background="new 0 0 60 60" xml:space="preserve">
<g id="Layer_3">
	<g>
		<path fill="#010101" d="M46,29c3.096,0,5.979,0.898,8.431,2.427c0.855-2.178,1.322-4.498,1.322-6.906
			C55.753,12.103,43.472,2,28.376,2S1,12.103,1,24.521c0,5.706,2.86,11.364,7.876,15.641L2.899,51.263
			c-0.205,0.38-0.143,0.849,0.154,1.162c0.193,0.204,0.457,0.312,0.727,0.312c0.144,0,0.289-0.031,0.425-0.095l15.115-7.113
			c2.43,0.727,5.592,1.511,9.057,1.511c0.592,0,1.178-0.021,1.761-0.051C30.056,46.335,30,45.675,30,45C30,36.178,37.178,29,46,29z"
			/>
		<path fill="#010101" d="M46,31c-7.72,0-14,6.28-14,14c0,7.72,6.28,14,14,14c7.72,0,14-6.28,14-14C60,37.28,53.72,31,46,31z
			 M55.311,40.316L43.892,52.877l-7.17-7.17c-0.391-0.391-0.391-1.023,0-1.414c0.391-0.391,1.023-0.391,1.414,0l5.687,5.687
			l10.009-11.01c0.372-0.407,1.004-0.439,1.413-0.067C55.653,39.274,55.683,39.907,55.311,40.316z"/>
	</g>
</g>
<g id="nyt_x5F_exporter_x5F_info" display="none">
</g>
</svg>
