<?xml version="1.0" encoding="utf-8"?>
<!-- Generator: Adobe Illustrator 17.0.0, SVG Export Plug-In . SVG Version: 6.00 Build 0)  -->
<!DOCTYPE svg PUBLIC "-//W3C//DTD SVG 1.1//EN" "http://www.w3.org/Graphics/SVG/1.1/DTD/svg11.dtd">
<svg version="1.1" xmlns="http://www.w3.org/2000/svg" xmlns:xlink="http://www.w3.org/1999/xlink" x="0px" y="0px" width="60px"
	 height="60px" viewBox="0 0 60 60" enable-background="new 0 0 60 60" xml:space="preserve">
<g id="Layer_3">
	<g>
		<path fill="#010101" d="M47,28c2.959,0,5.713,0.873,8.04,2.358c1.106-2.442,1.713-5.082,1.713-7.837
			C56.753,10.103,44.472,0,29.376,0S2,10.103,2,22.521c0,5.706,2.86,11.364,7.876,15.641L3.899,49.263
			c-0.205,0.38-0.143,0.849,0.154,1.162c0.193,0.204,0.457,0.312,0.727,0.312c0.144,0,0.289-0.031,0.425-0.095l15.115-7.113
			c2.43,0.727,5.592,1.511,9.057,1.511c0.932,0,1.853-0.039,2.761-0.114C32.056,44.294,32,43.654,32,43C32,34.729,38.729,28,47,28z"
			/>
		<path fill="#010101" d="M47,30c-7.169,0-13,5.832-13,13c0,7.169,5.831,13,13,13c7.168,0,13-5.831,13-13C60,35.832,54.168,30,47,30
			z M53.877,44H48v5.878c0,0.552-0.448,1-1,1c-0.552,0-1-0.448-1-1V44h-5.877c-0.552,0-1-0.448-1-1c0-0.552,0.448-1,1-1H46v-5.877
			c0-0.552,0.448-1,1-1c0.552,0,1,0.448,1,1V42h5.877c0.552,0,1,0.448,1,1C54.877,43.552,54.43,44,53.877,44z"/>
	</g>
</g>
<g id="nyt_x5F_exporter_x5F_info" display="none">
</g>
</svg>
