<?xml version="1.0" encoding="utf-8"?>
<!-- Generator: Adobe Illustrator 17.0.0, SVG Export Plug-In . SVG Version: 6.00 Build 0)  -->
<!DOCTYPE svg PUBLIC "-//W3C//DTD SVG 1.1//EN" "http://www.w3.org/Graphics/SVG/1.1/DTD/svg11.dtd">
<svg version="1.1" xmlns="http://www.w3.org/2000/svg" xmlns:xlink="http://www.w3.org/1999/xlink" x="0px" y="0px" width="60px"
	 height="60px" viewBox="0 0 60 60" enable-background="new 0 0 60 60" xml:space="preserve">
<g id="Layer_3">
	<path fill="#010101" d="M40,2H20C9.346,2,0,11.773,0,22.913c0,10.978,8.929,19.91,19.824,19.91c0.002,0,0.004,0,0.006,0L21,42.92
		V52c0,0.396,0.233,0.754,0.595,0.915C21.726,52.972,21.863,53,22,53c0.244,0,0.485-0.089,0.673-0.26L33.387,43H40
		c10.841,0,20-9.199,20-20.087C60,11.773,50.654,2,40,2z"/>
</g>
<g id="nyt_x5F_exporter_x5F_info" display="none">
</g>
</svg>
