<?xml version="1.0" encoding="utf-8"?>
<!-- Generator: Adobe Illustrator 17.0.0, SVG Export Plug-In . SVG Version: 6.00 Build 0)  -->
<!DOCTYPE svg PUBLIC "-//W3C//DTD SVG 1.1//EN" "http://www.w3.org/Graphics/SVG/1.1/DTD/svg11.dtd">
<svg version="1.1" id="Layer_2" xmlns="http://www.w3.org/2000/svg" xmlns:xlink="http://www.w3.org/1999/xlink" x="0px" y="0px"
	 width="60px" height="60px" viewBox="0 0 60 60" enable-background="new 0 0 60 60" xml:space="preserve">
<g>
	<path fill="#010101" d="M44.426,30.05c0.339-0.678,1.45-0.678,1.789,0l4.223,8.447h2.882c0.552,0,1-0.448,1-1v-36
		c0-0.552-0.448-1-1-1h-52c-0.552,0-1,0.448-1,1v36c0,0.552,0.448,1,1,1h9v8c0,0.379,0.214,0.725,0.553,0.895
		c0.142,0.071,0.295,0.105,0.447,0.105c0.212,0,0.423-0.068,0.6-0.2l11.733-8.8h16.548L44.426,30.05z"/>
	<path fill="#010101" d="M51.599,47.59l6.081-5.378h-7.003c-0.379,0-0.725-0.214-0.894-0.553l-4.462-8.925l-4.462,8.925
		c-0.169,0.339-0.516,0.553-0.895,0.553h-6.911l6.345,5.364c0.312,0.264,0.433,0.692,0.303,1.08l-3.089,9.267l8.132-5.742
		c0.172-0.122,0.375-0.183,0.577-0.183c0.197,0,0.394,0.058,0.563,0.174L54.427,58l-3.114-9.344
		C51.186,48.275,51.299,47.856,51.599,47.59z"/>
</g>
</svg>
