<?xml version="1.0" encoding="utf-8"?>
<!-- Generator: Adobe Illustrator 17.0.0, SVG Export Plug-In . SVG Version: 6.00 Build 0)  -->
<!DOCTYPE svg PUBLIC "-//W3C//DTD SVG 1.1//EN" "http://www.w3.org/Graphics/SVG/1.1/DTD/svg11.dtd">
<svg version="1.1" xmlns="http://www.w3.org/2000/svg" xmlns:xlink="http://www.w3.org/1999/xlink" x="0px" y="0px" width="60px"
	 height="60px" viewBox="0 0 60 60" enable-background="new 0 0 60 60" xml:space="preserve">
<g id="Layer_3">
	<g>
		<path fill="#010101" d="M46,25.888c2.664,0,5.162,0.702,7.331,1.921c1.567-2.648,2.486-5.691,2.486-8.906
			c0-10.01-8.552-18.79-18.302-18.79H19.302C9.552,0.112,1,8.892,1,18.902c0,9.867,8.171,17.894,18.135,17.894
			c0.001,0,0.004,0,0.006,0l0.982,0.08v8.012c0,0.394,0.231,0.752,0.591,0.913c0.131,0.059,0.27,0.087,0.409,0.087
			c0.241,0,0.479-0.087,0.666-0.254l9.733-8.68h0.017C33.269,30.582,39.079,25.888,46,25.888z"/>
		<path fill="#010101" d="M53.229,35.073L40.185,48.117c1.593,1.284,3.614,2.057,5.815,2.057c5.12,0,9.286-4.165,9.286-9.286
			C55.286,38.688,54.513,36.666,53.229,35.073z"/>
		<path fill="#010101" d="M46,31.602c-5.12,0-9.286,4.165-9.286,9.286c0,2.2,0.773,4.222,2.057,5.815l13.043-13.044
			C50.222,32.375,48.2,31.602,46,31.602z"/>
		<path fill="#010101" d="M46,27.888c-7.169,0-13,5.832-13,13c0,7.168,5.831,13,13,13c7.168,0,13-5.832,13-13
			C59,33.72,53.168,27.888,46,27.888z M46,52.174c-6.223,0-11.286-5.063-11.286-11.286c0-6.223,5.062-11.286,11.286-11.286
			c6.223,0,11.286,5.062,11.286,11.286C57.286,47.111,52.223,52.174,46,52.174z"/>
	</g>
</g>
<g id="nyt_x5F_exporter_x5F_info" display="none">
</g>
</svg>
