<?xml version="1.0" encoding="utf-8"?>
<!-- Generator: Adobe Illustrator 17.0.0, SVG Export Plug-In . SVG Version: 6.00 Build 0)  -->
<!DOCTYPE svg PUBLIC "-//W3C//DTD SVG 1.1//EN" "http://www.w3.org/Graphics/SVG/1.1/DTD/svg11.dtd">
<svg version="1.1" id="Layer_2" xmlns="http://www.w3.org/2000/svg" xmlns:xlink="http://www.w3.org/1999/xlink" x="0px" y="0px"
	 width="60px" height="60px" viewBox="0 0 60 60" enable-background="new 0 0 60 60" xml:space="preserve">
<g>
	<path fill="#010101" d="M45,30c3.379,0,6.489,1.136,9,3.028V1c0-0.552-0.448-1-1-1H1C0.448,0,0,0.448,0,1v36c0,0.552,0.448,1,1,1h9
		v8c0,0.379,0.214,0.725,0.553,0.895C10.694,46.965,10.848,47,11,47c0.212,0,0.423-0.068,0.6-0.2L23.333,38h8.41
		C34.263,33.248,39.257,30,45,30z"/>
	<path fill="#010101" d="M45,32c-7.169,0-13,5.832-13,13c0,7.169,5.831,13,13,13c7.168,0,13-5.831,13-13C58,37.832,52.168,32,45,32z
		 M53.756,41.654L43.95,52.998l-6.637-6.271c-0.402-0.379-0.419-1.012-0.041-1.414c0.379-0.402,1.014-0.42,1.414-0.041l5.118,4.835
		l8.439-9.762c0.36-0.418,0.992-0.464,1.41-0.102C54.072,40.605,54.118,41.236,53.756,41.654z"/>
</g>
</svg>
