<?xml version="1.0" encoding="utf-8"?>
<!-- Generator: Adobe Illustrator 17.0.0, SVG Export Plug-In . SVG Version: 6.00 Build 0)  -->
<!DOCTYPE svg PUBLIC "-//W3C//DTD SVG 1.1//EN" "http://www.w3.org/Graphics/SVG/1.1/DTD/svg11.dtd">
<svg version="1.1" id="Layer_2" xmlns="http://www.w3.org/2000/svg" xmlns:xlink="http://www.w3.org/1999/xlink" x="0px" y="0px"
	 width="60px" height="60px" viewBox="0 0 60 60" enable-background="new 0 0 60 60" xml:space="preserve">
<g>
	<path fill="#010101" d="M52.273,27.722c0.391-0.391,1.023-0.391,1.414,0l0.598,0.598V1c0-0.552-0.448-1-1-1h-52
		c-0.552,0-1,0.448-1,1v36c0,0.552,0.448,1,1,1h9v8c0,0.379,0.214,0.725,0.553,0.895C10.979,46.965,11.132,47,11.284,47
		c0.212,0,0.423-0.068,0.6-0.2L23.618,38h18.376L52.273,27.722z"/>
	<path fill="#010101" d="M59.991,36.856l-5.707-5.707v-0.001l-1.305-1.305l-5.044,5.043l7.719,7.719l4.336-4.336
		c0.188-0.188,0.293-0.442,0.293-0.707S60.179,37.043,59.991,36.856z"/>
	<path fill="#010101" d="M30.58,58.725c-0.1,0.35-0.002,0.725,0.254,0.982C31.024,59.898,31.28,60,31.541,60
		c0.092,0,0.184-0.013,0.275-0.039l8.26-2.36l-7.137-7.137L30.58,58.725z"/>
	<polygon fill="#010101" points="44.823,38 44.823,38 34.063,48.76 41.782,56.479 54.241,44.02 46.522,36.301 	"/>
</g>
</svg>
