<?xml version="1.0" encoding="utf-8"?>
<!-- Generator: Adobe Illustrator 17.0.0, SVG Export Plug-In . SVG Version: 6.00 Build 0)  -->
<!DOCTYPE svg PUBLIC "-//W3C//DTD SVG 1.1//EN" "http://www.w3.org/Graphics/SVG/1.1/DTD/svg11.dtd">
<svg version="1.1" xmlns="http://www.w3.org/2000/svg" xmlns:xlink="http://www.w3.org/1999/xlink" x="0px" y="0px" width="60px"
	 height="60px" viewBox="0 0 60 60" enable-background="new 0 0 60 60" xml:space="preserve">
<g id="Layer_3">
	<path fill="#010101" d="M30,0C13.458,0,0,11.063,0,24.661c0,6.474,2.994,12.54,8.45,17.163l-6.345,12.73
		c-0.191,0.383-0.117,0.845,0.184,1.149C2.481,55.898,2.739,56,3,56c0.148,0,0.297-0.033,0.436-0.1l16.49-8.002
		c3.225,0.944,6.611,1.423,10.073,1.423c16.542,0,30-11.062,30-24.66C60,11.063,46.542,0,30,0z M38.826,13.87
		c3.333,0,6.043,2.711,6.043,6.043c0,0.552-0.448,1-1,1c-0.552,0-1-0.448-1-1c0-2.229-1.814-4.043-4.043-4.043
		c-2.23,0-4.044,1.814-4.044,4.043c0,0.552-0.448,1-1,1c-0.552,0-1-0.448-1-1C32.782,16.581,35.494,13.87,38.826,13.87z
		 M21.174,13.87c3.332,0,6.043,2.711,6.043,6.043c0,0.552-0.448,1-1,1c-0.552,0-1-0.448-1-1c0-2.229-1.814-4.043-4.043-4.043
		s-4.043,1.814-4.043,4.043c0,0.552-0.448,1-1,1c-0.552,0-1-0.448-1-1C15.13,16.581,17.841,13.87,21.174,13.87z M35.087,38H25
		c-6.949,0-12.392-5.175-12.392-11.782c0-0.552,0.448-1,1-1c0.552,0,1,0.448,1,1C14.608,31.703,19.173,36,25,36h10.087
		c5.875,0,10.304-4.206,10.304-9.782c0-0.552,0.448-1,1-1c0.552,0,1,0.448,1,1C47.391,32.825,41.986,38,35.087,38z"/>
</g>
<g id="nyt_x5F_exporter_x5F_info" display="none">
</g>
</svg>
