<?xml version="1.0" encoding="utf-8"?>
<!-- Generator: Adobe Illustrator 17.0.0, SVG Export Plug-In . SVG Version: 6.00 Build 0)  -->
<!DOCTYPE svg PUBLIC "-//W3C//DTD SVG 1.1//EN" "http://www.w3.org/Graphics/SVG/1.1/DTD/svg11.dtd">
<svg version="1.1" id="Layer_2" xmlns="http://www.w3.org/2000/svg" xmlns:xlink="http://www.w3.org/1999/xlink" x="0px" y="0px"
	 width="60px" height="60px" viewBox="0 0 60 60" enable-background="new 0 0 60 60" xml:space="preserve">
<g>
	<path fill="#010101" d="M45.249,30c3.381,0,6.491,1.133,9,3.021V1c0-0.552-0.448-1-1-1h-52c-0.552,0-1,0.448-1,1v36
		c0,0.552,0.448,1,1,1h9v8c0,0.379,0.214,0.725,0.553,0.895C10.943,46.965,11.097,47,11.249,47c0.212,0,0.423-0.068,0.6-0.2
		L23.582,38h8.405C34.503,33.244,39.494,30,45.249,30z"/>
	<path fill="#010101" d="M52.478,39.186L39.434,52.229c1.593,1.284,3.614,2.057,5.815,2.057c5.12,0,9.286-4.166,9.286-9.286
		C54.534,42.799,53.762,40.778,52.478,39.186z"/>
	<path fill="#010101" d="M45.249,35.714c-5.12,0-9.286,4.166-9.286,9.286c0,2.2,0.773,4.222,2.057,5.815l13.044-13.043
		C49.471,36.487,47.449,35.714,45.249,35.714z"/>
	<path fill="#010101" d="M45.249,32c-7.168,0-13,5.832-13,13c0,7.169,5.832,13,13,13s13-5.831,13-13
		C58.249,37.832,52.417,32,45.249,32z M45.249,56.286c-6.223,0-11.286-5.062-11.286-11.286c0-6.223,5.062-11.286,11.286-11.286
		c6.223,0,11.286,5.062,11.286,11.286C56.534,51.223,51.472,56.286,45.249,56.286z"/>
</g>
</svg>
