<?xml version="1.0" encoding="utf-8"?>
<!-- Generator: Adobe Illustrator 17.0.0, SVG Export Plug-In . SVG Version: 6.00 Build 0)  -->
<!DOCTYPE svg PUBLIC "-//W3C//DTD SVG 1.1//EN" "http://www.w3.org/Graphics/SVG/1.1/DTD/svg11.dtd">
<svg version="1.1" xmlns="http://www.w3.org/2000/svg" xmlns:xlink="http://www.w3.org/1999/xlink" x="0px" y="0px" width="60px"
	 height="60px" viewBox="0 0 60 60" enable-background="new 0 0 60 60" xml:space="preserve">
<g id="Layer_3">
	<g>
		<path fill="#010101" d="M47,29.888c1.217,0,2.39,0.18,3.508,0.494c2.674-3.146,4.308-7.164,4.308-11.48
			c0-10.01-8.552-18.79-18.302-18.79H18.302C8.552,0.112,0,8.892,0,18.902c0,9.867,8.171,17.894,18.135,17.894
			c0.001,0,0.004,0,0.006,0l0.982,0.08v8.012c0,0.394,0.231,0.752,0.591,0.913c0.131,0.059,0.27,0.087,0.409,0.087
			c0.241,0,0.479-0.087,0.666-0.254l9.733-8.68h4.925C37.607,32.765,41.97,29.888,47,29.888z"/>
		<path fill="#010101" d="M47,31.888c-6.065,0-11,4.935-11,11c0,6.065,4.935,11,11,11c6.065,0,11-4.935,11-11
			C58,36.823,53.065,31.888,47,31.888z M54.707,40.595L46,49.302l-5.707-5.707c-0.391-0.391-0.391-1.023,0-1.414
			c0.391-0.391,1.023-0.391,1.414,0L46,46.474l7.293-7.293c0.391-0.391,1.023-0.391,1.414,0
			C55.098,39.572,55.098,40.204,54.707,40.595z"/>
	</g>
</g>
<g id="nyt_x5F_exporter_x5F_info" display="none">
</g>
</svg>
