<?xml version="1.0" encoding="utf-8"?>
<!-- Generator: Adobe Illustrator 17.0.0, SVG Export Plug-In . SVG Version: 6.00 Build 0)  -->
<!DOCTYPE svg PUBLIC "-//W3C//DTD SVG 1.1//EN" "http://www.w3.org/Graphics/SVG/1.1/DTD/svg11.dtd">
<svg version="1.1" xmlns="http://www.w3.org/2000/svg" xmlns:xlink="http://www.w3.org/1999/xlink" x="0px" y="0px" width="60px"
	 height="60px" viewBox="0 0 60 60" enable-background="new 0 0 60 60" xml:space="preserve">
<g id="Layer_3">
	<g>
		<rect x="16" y="18" fill="#010101" width="8" height="8"/>
		<rect x="34" y="18" fill="#010101" width="8" height="8"/>
		<path fill="#010101" d="M30,0C13.458,0,0,11.249,0,25.076c0,6.474,2.993,12.538,8.449,17.162L2.28,54.552
			c-0.191,0.38-0.12,0.839,0.177,1.145C2.65,55.895,2.91,56,3.175,56c0.143,0,0.286-0.03,0.421-0.093l16.322-7.597
			c3.228,0.947,6.618,1.426,10.082,1.426c16.542,0,30-11.062,30-24.66C60,11.249,46.542,0,30,0z M26,27v4
			c0,3.356-2.691,6.087-6,6.087c-0.552,0-1-0.448-1-1c0-0.552,0.448-1,1-1c2.206,0,4-1.833,4-4.087v-3h-9c-0.552,0-1-0.448-1-1V17
			c0-0.552,0.448-1,1-1h10c0.552,0,1,0.448,1,1V27z M44,27v4c0,3.309-2.691,6-6,6c-0.552,0-1-0.448-1-1c0-0.552,0.448-1,1-1
			c2.206,0,4-1.794,4-4v-3h-9c-0.552,0-1-0.448-1-1V17c0-0.552,0.448-1,1-1h10c0.552,0,1,0.448,1,1V27z"/>
	</g>
</g>
<g id="nyt_x5F_exporter_x5F_info" display="none">
</g>
</svg>
