<?xml version="1.0" encoding="utf-8"?>
<!-- Generator: Adobe Illustrator 17.0.0, SVG Export Plug-In . SVG Version: 6.00 Build 0)  -->
<!DOCTYPE svg PUBLIC "-//W3C//DTD SVG 1.1//EN" "http://www.w3.org/Graphics/SVG/1.1/DTD/svg11.dtd">
<svg version="1.1" xmlns="http://www.w3.org/2000/svg" xmlns:xlink="http://www.w3.org/1999/xlink" x="0px" y="0px" width="60px"
	 height="60px" viewBox="0 0 60 60" enable-background="new 0 0 60 60" xml:space="preserve">
<g id="Layer_3">
	<path fill="#010101" d="M30,0C13.458,0,0,11.063,0,24.661c0,6.475,2.994,12.541,8.45,17.163l-6.345,12.73
		c-0.191,0.383-0.117,0.845,0.184,1.149C2.481,55.898,2.739,56,3,56c0.148,0,0.297-0.033,0.436-0.1l16.49-8.001
		c3.226,0.944,6.612,1.422,10.073,1.422c16.542,0,30-11.062,30-24.66C60,11.063,46.542,0,30,0z M31,38c-1.103,0-2-0.897-2-2
		s0.897-2,2-2s2,0.897,2,2S32.103,38,31,38z M32,27.951V31c0,0.552-0.448,1-1,1c-0.552,0-1-0.448-1-1v-4c0-0.552,0.448-1,1-1
		c3.892,0,6.826-2.583,6.826-6.008c0-3.577-2.945-6.487-6.566-6.487c-3.559,0-6.565,3.078-6.565,6.722c0,0.552-0.448,1-1,1
		c-0.552,0-1-0.448-1-1c0-4.809,3.842-8.722,8.565-8.722c4.723,0,8.566,3.807,8.566,8.487C39.826,24.175,36.462,27.514,32,27.951z"
		/>
</g>
<g id="nyt_x5F_exporter_x5F_info" display="none">
</g>
</svg>
