<?xml version="1.0" encoding="utf-8"?>
<!-- Generator: Adobe Illustrator 17.0.0, SVG Export Plug-In . SVG Version: 6.00 Build 0)  -->
<!DOCTYPE svg PUBLIC "-//W3C//DTD SVG 1.1//EN" "http://www.w3.org/Graphics/SVG/1.1/DTD/svg11.dtd">
<svg version="1.1" xmlns="http://www.w3.org/2000/svg" xmlns:xlink="http://www.w3.org/1999/xlink" x="0px" y="0px" width="60px"
	 height="60px" viewBox="0 0 60 60" enable-background="new 0 0 60 60" xml:space="preserve">
<g id="Layer_3">
	<g>
		<path fill="#010101" d="M51.988,29.593c0.391-0.391,1.023-0.391,1.414,0l0.687,0.687C54.681,28.44,55,26.511,55,24.521
			C55,12.103,42.719,2,27.623,2C12.528,2,0.247,12.103,0.247,24.521c0,5.706,2.86,11.365,7.877,15.641L2.146,51.263
			c-0.205,0.38-0.143,0.849,0.154,1.162c0.193,0.204,0.457,0.312,0.727,0.312c0.144,0,0.289-0.031,0.425-0.095l15.114-7.113
			c2.43,0.727,5.592,1.511,9.057,1.511c2.735,0,5.376-0.336,7.87-0.953L51.988,29.593z"/>
		<path fill="#010101" d="M59.707,38.727l-6.305-6.305c-0.033-0.033-0.075-0.046-0.111-0.074c0.004-0.008,0.008-0.017,0.012-0.025
			l-0.608-0.608l-5.044,5.043l7.719,7.719l4.336-4.336C59.894,39.953,60,39.699,60,39.434C60,39.169,59.894,38.914,59.707,38.727z"
			/>
		<path fill="#010101" d="M30.295,60.596c-0.1,0.35-0.002,0.725,0.254,0.982c0.19,0.19,0.445,0.293,0.707,0.293
			c0.092,0,0.184-0.013,0.275-0.039l8.26-2.36l-7.137-7.137L30.295,60.596z"/>
		<polygon fill="#010101" points="39.674,44.735 39.675,44.734 33.778,50.631 41.497,58.35 53.956,45.891 46.237,38.172 		"/>
	</g>
</g>
<g id="nyt_x5F_exporter_x5F_info" display="none">
</g>
</svg>
