<?xml version="1.0" encoding="utf-8"?>
<!-- Generator: Adobe Illustrator 17.0.0, SVG Export Plug-In . SVG Version: 6.00 Build 0)  -->
<!DOCTYPE svg PUBLIC "-//W3C//DTD SVG 1.1//EN" "http://www.w3.org/Graphics/SVG/1.1/DTD/svg11.dtd">
<svg version="1.1" xmlns="http://www.w3.org/2000/svg" xmlns:xlink="http://www.w3.org/1999/xlink" x="0px" y="0px" width="60px"
	 height="60px" viewBox="0 0 60 60" enable-background="new 0 0 60 60" xml:space="preserve">
<g id="Layer_3">
	<g>
		<path fill="#010101" d="M31.061,42.371c0.144-0.394,0.519-0.656,0.939-0.656h9.025l5.081-10.162c0.339-0.678,1.45-0.678,1.789,0
			l3.627,7.255c3.891-3.89,6.231-8.868,6.231-14.287C57.753,12.103,45.472,2,30.376,2S3,12.103,3,24.521
			c0,5.706,2.86,11.364,7.876,15.641L4.899,51.263c-0.205,0.38-0.143,0.849,0.154,1.162c0.193,0.204,0.457,0.312,0.727,0.312
			c0.143,0,0.289-0.031,0.425-0.095l15.115-7.113c2.43,0.727,5.592,1.511,9.057,1.511c1.63,0,3.225-0.124,4.777-0.35l-3.799-3.212
			C31.034,43.207,30.916,42.765,31.061,42.371z"/>
		<path fill="#010101" d="M53.279,49.093l6.081-5.378h-7.003c-0.379,0-0.725-0.214-0.895-0.553L47,34.236l-4.462,8.925
			c-0.169,0.339-0.516,0.553-0.895,0.553h-6.911l6.345,5.364c0.312,0.264,0.433,0.692,0.303,1.08l-3.089,9.267l8.132-5.742
			C46.596,53.561,46.798,53.5,47,53.5c0.197,0,0.394,0.058,0.563,0.174l8.543,5.829l-3.114-9.344
			C52.866,49.778,52.978,49.358,53.279,49.093z"/>
	</g>
</g>
<g id="nyt_x5F_exporter_x5F_info" display="none">
</g>
</svg>
