<?xml version="1.0" encoding="utf-8"?>
<!-- Generator: Adobe Illustrator 17.0.0, SVG Export Plug-In . SVG Version: 6.00 Build 0)  -->
<!DOCTYPE svg PUBLIC "-//W3C//DTD SVG 1.1//EN" "http://www.w3.org/Graphics/SVG/1.1/DTD/svg11.dtd">
<svg version="1.1" id="Layer_2" xmlns="http://www.w3.org/2000/svg" xmlns:xlink="http://www.w3.org/1999/xlink" x="0px" y="0px"
	 width="60px" height="60px" viewBox="0 0 60 60" enable-background="new 0 0 60 60" xml:space="preserve">
<path fill="#010101" d="M59,5H1C0.448,5,0,5.448,0,6v40c0,0.552,0.448,1,1,1h17v9c0,0.407,0.247,0.773,0.623,0.926
	C18.746,56.976,18.873,57,19,57c0.265,0,0.524-0.105,0.716-0.302L29.161,47H59c0.552,0,1-0.448,1-1V6C60,5.448,59.552,5,59,5z
	 M30.294,38.752c-0.087,0.064-0.191,0.096-0.294,0.096s-0.207-0.032-0.294-0.096C29.131,38.334,15.63,28.428,15.63,20.789
	c0-5.107,3.746-8.159,7.368-8.159c2.483,0,5.479,1.5,7.002,5.578c1.522-4.078,4.519-5.578,7.002-5.578
	c3.621,0,7.368,3.052,7.368,8.159C44.37,28.428,30.869,38.334,30.294,38.752z"/>
</svg>
