<?xml version="1.0" encoding="utf-8"?>
<!-- Generator: Adobe Illustrator 17.0.0, SVG Export Plug-In . SVG Version: 6.00 Build 0)  -->
<!DOCTYPE svg PUBLIC "-//W3C//DTD SVG 1.1//EN" "http://www.w3.org/Graphics/SVG/1.1/DTD/svg11.dtd">
<svg version="1.1" xmlns="http://www.w3.org/2000/svg" xmlns:xlink="http://www.w3.org/1999/xlink" x="0px" y="0px" width="60px"
	 height="60px" viewBox="0 0 60 60" enable-background="new 0 0 60 60" xml:space="preserve">
<g id="Layer_3">
	<g>
		<path fill="#010101" d="M48.816,31.776c1.27,0,2.495,0.191,3.657,0.533c2.694-3.152,4.343-7.184,4.343-11.518
			C56.816,10.78,48.264,2,38.515,2H20.302C10.552,2,2,10.78,2,20.79c0,9.867,8.171,17.894,18.135,17.893c0.002,0,0.004,0,0.006,0
			l0.982,0.08v8.012c0,0.394,0.231,0.751,0.591,0.913c0.131,0.059,0.27,0.087,0.409,0.087c0.241,0,0.479-0.087,0.666-0.254
			l9.733-8.68h4.742C39.424,34.653,43.786,31.776,48.816,31.776z"/>
		<path fill="#010101" d="M48.816,33.776c-6.065,0-11,4.935-11,11s4.935,11,11,11c6.065,0,11-4.935,11-11
			S54.882,33.776,48.816,33.776z M54.816,45.776h-12c-0.552,0-1-0.448-1-1s0.448-1,1-1h12c0.552,0,1,0.448,1,1
			S55.369,45.776,54.816,45.776z"/>
	</g>
</g>
<g id="nyt_x5F_exporter_x5F_info" display="none">
</g>
</svg>
