<?xml version="1.0" encoding="utf-8"?>
<!-- Generator: Adobe Illustrator 17.0.0, SVG Export Plug-In . SVG Version: 6.00 Build 0)  -->
<!DOCTYPE svg PUBLIC "-//W3C//DTD SVG 1.1//EN" "http://www.w3.org/Graphics/SVG/1.1/DTD/svg11.dtd">
<svg version="1.1" id="Layer_2" xmlns="http://www.w3.org/2000/svg" xmlns:xlink="http://www.w3.org/1999/xlink" x="0px" y="0px"
	 width="60px" height="60px" viewBox="0 0 60 60" enable-background="new 0 0 60 60" xml:space="preserve">
<g>
	<circle fill="#010101" cx="30.044" cy="14.522" r="0.522"/>
	<path fill="#010101" d="M59,5H1C0.448,5,0,5.448,0,6v38c0,0.552,0.448,1,1,1h15l0,9c0,0.396,0.233,0.754,0.595,0.915
		C16.726,54.972,16.863,55,17,55c0.244,0,0.485-0.089,0.673-0.26L28.387,45H59c0.552,0,1-0.448,1-1V6C60,5.448,59.552,5,59,5z
		 M30.044,12.001c1.39,0,2.521,1.131,2.521,2.522c0,1.39-1.131,2.521-2.521,2.521c-1.391,0-2.522-1.131-2.522-2.521
		C27.522,13.132,28.653,12.001,30.044,12.001z M36,35.044H26c-0.552,0-1-0.448-1-1c0-0.552,0.448-1,1-1h4v-12h-4
		c-0.552,0-1-0.448-1-1c0-0.552,0.448-1,1-1h5c0.552,0,1,0.448,1,1v13h4c0.552,0,1,0.448,1,1C37,34.596,36.552,35.044,36,35.044z"/>
</g>
</svg>
