<?xml version="1.0" encoding="utf-8"?>
<!-- Generator: Adobe Illustrator 17.0.0, SVG Export Plug-In . SVG Version: 6.00 Build 0)  -->
<!DOCTYPE svg PUBLIC "-//W3C//DTD SVG 1.1//EN" "http://www.w3.org/Graphics/SVG/1.1/DTD/svg11.dtd">
<svg version="1.1" id="Layer_2" xmlns="http://www.w3.org/2000/svg" xmlns:xlink="http://www.w3.org/1999/xlink" x="0px" y="0px"
	 width="60px" height="60px" viewBox="0 0 60 60" enable-background="new 0 0 60 60" xml:space="preserve">
<path fill="#010101" d="M56.478,5H3.521C1.349,5,0,6.533,0,9v32.479C0,43.42,1.58,45,3.521,45H6v8c0,0.381,0.217,0.73,0.559,0.898
	C6.699,53.966,6.85,54,7,54c0.217,0,0.433-0.071,0.611-0.208L18.994,45h37.485C58.42,45,60,43.42,60,41.479V9
	C60,6.533,58.651,5,56.478,5z M19.739,27.261c-1.798,0-3.261-1.463-3.261-3.261c0-1.798,1.463-3.261,3.261-3.261
	C21.537,20.739,23,22.202,23,24C23,25.798,21.537,27.261,19.739,27.261z M31.261,27.261C29.463,27.261,28,25.798,28,24
	c0-1.798,1.463-3.261,3.261-3.261c1.798,0,3.261,1.463,3.261,3.261C34.521,25.798,33.059,27.261,31.261,27.261z M42.739,27.261
	c-1.798,0-3.261-1.463-3.261-3.261c0-1.798,1.463-3.261,3.261-3.261C44.537,20.739,46,22.202,46,24
	C46,25.798,44.537,27.261,42.739,27.261z"/>
</svg>
