<?xml version="1.0" encoding="utf-8"?>
<!-- Generator: Adobe Illustrator 17.0.0, SVG Export Plug-In . SVG Version: 6.00 Build 0)  -->
<!DOCTYPE svg PUBLIC "-//W3C//DTD SVG 1.1//EN" "http://www.w3.org/Graphics/SVG/1.1/DTD/svg11.dtd">
<svg version="1.1" xmlns="http://www.w3.org/2000/svg" xmlns:xlink="http://www.w3.org/1999/xlink" x="0px" y="0px" width="60px"
	 height="60px" viewBox="0 0 60 60" enable-background="new 0 0 60 60" xml:space="preserve">
<g id="Layer_3">
	<g>
		<path fill="#010101" d="M46,32c2.637,0,5.112,0.686,7.266,1.881c1.592-2.853,2.487-6.022,2.487-9.361
			C55.753,12.103,43.472,2,28.376,2S1,12.103,1,24.521c0,5.706,2.86,11.364,7.876,15.641L2.899,51.263
			c-0.205,0.38-0.143,0.849,0.154,1.162c0.193,0.204,0.457,0.312,0.727,0.312c0.144,0,0.289-0.031,0.425-0.095l15.115-7.113
			c2.43,0.727,5.592,1.511,9.057,1.511c0.886,0,1.762-0.038,2.627-0.106C31.039,38.681,37.737,32,46,32z"/>
		<path fill="#010101" d="M53.229,41.185L40.185,54.229c1.593,1.284,3.614,2.057,5.815,2.057c5.12,0,9.286-4.166,9.286-9.286
			C55.286,44.8,54.513,42.778,53.229,41.185z"/>
		<path fill="#010101" d="M46,37.714c-5.12,0-9.286,4.166-9.286,9.286c0,2.2,0.773,4.222,2.057,5.815l13.044-13.043
			C50.222,38.487,48.2,37.714,46,37.714z"/>
		<path fill="#010101" d="M46,34c-7.169,0-13,5.832-13,13c0,7.169,5.831,13,13,13c7.168,0,13-5.831,13-13C59,39.832,53.168,34,46,34
			z M46,58.286c-6.223,0-11.286-5.062-11.286-11.286c0-6.223,5.062-11.286,11.286-11.286c6.223,0,11.286,5.062,11.286,11.286
			C57.286,53.223,52.223,58.286,46,58.286z"/>
	</g>
</g>
<g id="nyt_x5F_exporter_x5F_info" display="none">
</g>
</svg>
