<?xml version="1.0" encoding="utf-8"?>
<!-- Generator: Adobe Illustrator 17.0.0, SVG Export Plug-In . SVG Version: 6.00 Build 0)  -->
<!DOCTYPE svg PUBLIC "-//W3C//DTD SVG 1.1//EN" "http://www.w3.org/Graphics/SVG/1.1/DTD/svg11.dtd">
<svg version="1.1" xmlns="http://www.w3.org/2000/svg" xmlns:xlink="http://www.w3.org/1999/xlink" x="0px" y="0px" width="60px"
	 height="60px" viewBox="0 0 60 60" enable-background="new 0 0 60 60" xml:space="preserve">
<g id="Layer_3">
	<g>
		<path fill="#010101" d="M32.329,45.802l9.643-18.218c0.381-0.72,1.631-0.72,2.013,0l5.454,10.304
			c3.94-3.902,6.314-8.911,6.314-14.368C55.753,11.103,43.472,1,28.376,1S1,11.103,1,23.521c0,5.706,2.86,11.364,7.876,15.641
			L2.899,50.263c-0.205,0.38-0.143,0.849,0.154,1.162c0.193,0.204,0.457,0.312,0.727,0.312c0.144,0,0.289-0.031,0.425-0.095
			l15.115-7.113c2.43,0.727,5.592,1.511,9.057,1.511C29.719,46.04,31.038,45.957,32.329,45.802z"/>
		<path fill="#010101" d="M57.814,58.392l-13.92-27.839c-0.339-0.678-1.45-0.678-1.789,0l-14,28
			c-0.155,0.31-0.138,0.678,0.044,0.973C28.331,59.82,28.653,60,29,60h28c0.007,0,0.013,0,0.02,0c0.552,0,1-0.448,1-1
			C58.02,58.772,57.943,58.561,57.814,58.392z M42,41.747c0-0.552,0.448-1,1-1c0.552,0,1,0.448,1,1V50c0,0.552-0.448,1-1,1
			c-0.552,0-1-0.448-1-1V41.747z M43,57c-1.103,0-2-0.897-2-2s0.897-2,2-2s2,0.897,2,2S44.103,57,43,57z"/>
	</g>
</g>
<g id="nyt_x5F_exporter_x5F_info" display="none">
</g>
</svg>
