<?xml version="1.0" encoding="utf-8"?>
<!-- Generator: Adobe Illustrator 17.0.0, SVG Export Plug-In . SVG Version: 6.00 Build 0)  -->
<!DOCTYPE svg PUBLIC "-//W3C//DTD SVG 1.1//EN" "http://www.w3.org/Graphics/SVG/1.1/DTD/svg11.dtd">
<svg version="1.1" xmlns="http://www.w3.org/2000/svg" xmlns:xlink="http://www.w3.org/1999/xlink" x="0px" y="0px" width="60px"
	 height="60px" viewBox="0 0 60 60" enable-background="new 0 0 60 60" xml:space="preserve">
<g id="Layer_3">
	<g>
		<path fill="#010101" d="M48,31.776c1.217,0,2.39,0.18,3.508,0.494c2.674-3.146,4.308-7.164,4.308-11.48
			C55.816,10.78,47.264,2,37.514,2H19.302C9.552,2,1,10.78,1,20.79c0,9.867,8.171,17.894,18.135,17.893c0.001,0,0.004,0,0.006,0
			l0.982,0.08v8.012c0,0.394,0.231,0.751,0.591,0.913c0.131,0.059,0.27,0.087,0.409,0.087c0.241,0,0.479-0.087,0.666-0.254
			l9.733-8.68h4.925C38.607,34.653,42.97,31.776,48,31.776z"/>
		<path fill="#010101" d="M48,33.776c-6.065,0-11,4.935-11,11s4.935,11,11,11c6.065,0,11-4.935,11-11S54.065,33.776,48,33.776z
			 M54,45.776h-5v5c0,0.552-0.448,1-1,1c-0.552,0-1-0.448-1-1v-5h-5c-0.552,0-1-0.448-1-1s0.448-1,1-1h5v-5c0-0.552,0.448-1,1-1
			c0.552,0,1,0.448,1,1v5h5c0.552,0,1,0.448,1,1S54.552,45.776,54,45.776z"/>
	</g>
</g>
<g id="nyt_x5F_exporter_x5F_info" display="none">
</g>
</svg>
