<?xml version="1.0" encoding="utf-8"?>
<!-- Generator: Adobe Illustrator 17.0.0, SVG Export Plug-In . SVG Version: 6.00 Build 0)  -->
<!DOCTYPE svg PUBLIC "-//W3C//DTD SVG 1.1//EN" "http://www.w3.org/Graphics/SVG/1.1/DTD/svg11.dtd">
<svg version="1.1" xmlns="http://www.w3.org/2000/svg" xmlns:xlink="http://www.w3.org/1999/xlink" x="0px" y="0px" width="60px"
	 height="60px" viewBox="0 0 60 60" enable-background="new 0 0 60 60" xml:space="preserve">
<g id="Layer_3">
	<path fill="#010101" d="M30,0C13.458,0,0,11.063,0,24.661c0,6.475,2.994,12.541,8.45,17.163l-6.345,12.73
		c-0.191,0.383-0.117,0.845,0.184,1.149C2.481,55.898,2.739,56,3,56c0.148,0,0.297-0.033,0.436-0.1l16.49-8.001
		c3.226,0.944,6.612,1.422,10.073,1.422c16.542,0,30-11.062,30-24.66C60,11.063,46.542,0,30,0z M31.555,39.231
		c-0.087,0.064-0.191,0.096-0.294,0.096c-0.103,0-0.206-0.032-0.294-0.096c-0.575-0.418-14.076-10.324-14.076-17.963
		c0-5.107,3.746-8.159,7.368-8.159c2.483,0,5.479,1.5,7.002,5.578c1.523-4.078,4.519-5.578,7.002-5.578
		c3.622,0,7.368,3.052,7.368,8.159C45.63,28.906,32.129,38.813,31.555,39.231z"/>
</g>
<g id="nyt_x5F_exporter_x5F_info" display="none">
</g>
</svg>
