<?xml version="1.0" encoding="utf-8"?>
<!-- Generator: Adobe Illustrator 17.0.0, SVG Export Plug-In . SVG Version: 6.00 Build 0)  -->
<!DOCTYPE svg PUBLIC "-//W3C//DTD SVG 1.1//EN" "http://www.w3.org/Graphics/SVG/1.1/DTD/svg11.dtd">
<svg version="1.1" id="Layer_2" xmlns="http://www.w3.org/2000/svg" xmlns:xlink="http://www.w3.org/1999/xlink" x="0px" y="0px"
	 width="60px" height="60px" viewBox="0 0 60 60" enable-background="new 0 0 60 60" xml:space="preserve">
<g>
	<rect x="34" y="17" fill="#010101" width="8" height="8"/>
	<rect x="18" y="17" fill="#010101" width="8" height="8"/>
	<path fill="#010101" d="M59,5H1C0.448,5,0,5.448,0,6v38c0,0.552,0.448,1,1,1h15v9c0,0.396,0.233,0.754,0.595,0.915
		C16.726,54.972,16.863,55,17,55c0.244,0,0.485-0.089,0.673-0.26L28.387,45H59c0.552,0,1-0.448,1-1V6C60,5.448,59.552,5,59,5z
		 M28,26v4c0,3.356-2.691,6.087-6,6.087c-0.552,0-1-0.448-1-1c0-0.552,0.448-1,1-1c2.206,0,4-1.833,4-4.087v-3h-9
		c-0.552,0-1-0.448-1-1V16c0-0.552,0.448-1,1-1h10c0.552,0,1,0.448,1,1V26z M44,26v4c0,3.356-2.691,6.087-6,6.087
		c-0.552,0-1-0.448-1-1c0-0.552,0.448-1,1-1c2.206,0,4-1.833,4-4.087v-3h-9c-0.552,0-1-0.448-1-1V16c0-0.552,0.448-1,1-1h10
		c0.552,0,1,0.448,1,1V26z"/>
</g>
</svg>
