<?xml version="1.0" encoding="utf-8"?>
<!-- Generator: Adobe Illustrator 17.0.0, SVG Export Plug-In . SVG Version: 6.00 Build 0)  -->
<!DOCTYPE svg PUBLIC "-//W3C//DTD SVG 1.1//EN" "http://www.w3.org/Graphics/SVG/1.1/DTD/svg11.dtd">
<svg version="1.1" id="Layer_2" xmlns="http://www.w3.org/2000/svg" xmlns:xlink="http://www.w3.org/1999/xlink" x="0px" y="0px"
	 width="60px" height="60px" viewBox="0 0 60 60" enable-background="new 0 0 60 60" xml:space="preserve">
<g>
	<polygon fill="#010101" points="18,31 22,31 22,30.436 22,27 18,27 	"/>
	<path fill="#010101" d="M59,5H1C0.448,5,0,5.448,0,6v38c0,0.552,0.448,1,1,1h15v9c0,0.396,0.233,0.754,0.595,0.915
		C16.726,54.972,16.863,55,17,55c0.244,0,0.485-0.089,0.673-0.26L28.387,45H59c0.552,0,1-0.448,1-1V6C60,5.448,59.552,5,59,5z
		 M24,30.436V32v3.479C24,37.42,22.42,39,20.478,39c-0.552,0-1-0.448-1-1c0-0.552,0.448-1,1-1C21.317,37,22,36.317,22,35.479V33h-5
		c-0.552,0-1-0.448-1-1v-6c0-0.552,0.448-1,1-1h6c0.552,0,1,0.448,1,1V30.436z M24,20c0,0.552-0.448,1-1,1c-0.552,0-1-0.448-1-1
		v-5.956c0-0.552,0.448-1,1-1c0.552,0,1,0.448,1,1V20z M42,29c0,4.486-3.953,8-9,8c-0.552,0-1-0.448-1-1c0-0.552,0.448-1,1-1
		c3.441,0,7-2.244,7-6v-7c0-4.596-3.522-7-7-7c-0.552,0-1-0.448-1-1c0-0.552,0.448-1,1-1c4.363,0,9,3.154,9,9V29z"/>
</g>
</svg>
