<?xml version="1.0" encoding="utf-8"?>
<!-- Generator: Adobe Illustrator 17.0.0, SVG Export Plug-In . SVG Version: 6.00 Build 0)  -->
<!DOCTYPE svg PUBLIC "-//W3C//DTD SVG 1.1//EN" "http://www.w3.org/Graphics/SVG/1.1/DTD/svg11.dtd">
<svg version="1.1" id="Layer_2" xmlns="http://www.w3.org/2000/svg" xmlns:xlink="http://www.w3.org/1999/xlink" x="0px" y="0px"
	 width="60px" height="60px" viewBox="0 0 60 60" enable-background="new 0 0 60 60" xml:space="preserve">
<path fill="#010101" d="M59,6H1C0.448,6,0,6.448,0,7v40c0,0.552,0.448,1,1,1h17v9c0,0.407,0.247,0.773,0.623,0.926
	C18.746,57.976,18.873,58,19,58c0.265,0,0.524-0.105,0.716-0.302L29.161,48H59c0.552,0,1-0.448,1-1V7C60,6.448,59.552,6,59,6z
	 M28,15c0-0.552,0.448-1,1-1c0.552,0,1,0.448,1,1v15c0,0.552-0.448,1-1,1c-0.552,0-1-0.448-1-1V15z M29,37c-1.103,0-2-0.897-2-2
	s0.897-2,2-2s2,0.897,2,2S30.103,37,29,37z"/>
</svg>
