<?xml version="1.0" encoding="utf-8"?>
<!-- Generator: Adobe Illustrator 17.0.0, SVG Export Plug-In . SVG Version: 6.00 Build 0)  -->
<!DOCTYPE svg PUBLIC "-//W3C//DTD SVG 1.1//EN" "http://www.w3.org/Graphics/SVG/1.1/DTD/svg11.dtd">
<svg version="1.1" xmlns="http://www.w3.org/2000/svg" xmlns:xlink="http://www.w3.org/1999/xlink" x="0px" y="0px" width="60px"
	 height="60px" viewBox="0 0 60 60" enable-background="new 0 0 60 60" xml:space="preserve">
<g id="Layer_3">
	<path fill="#010101" d="M30,0C13.458,0,0,11.249,0,25.076c0,6.249,3.174,12.469,8.737,17.179L2.29,54.535
		c-0.2,0.381-0.134,0.848,0.164,1.158C2.647,55.894,2.909,56,3.175,56c0.145,0,0.292-0.032,0.429-0.097l16.476-7.834
		c2.809,0.842,6.156,1.667,9.92,1.667c16.542,0,30-11.062,30-24.66C60,11.249,46.542,0,30,0z M18.652,17h16.391c0.552,0,1,0.448,1,1
		c0,0.552-0.448,1-1,1H18.652c-0.552,0-1-0.448-1-1C17.652,17.448,18.1,17,18.652,17z M42.609,35H18.652c-0.552,0-1-0.448-1-1
		c0-0.552,0.448-1,1-1h23.957c0.552,0,1,0.448,1,1C43.609,34.552,43.161,35,42.609,35z M42.609,27H18.652c-0.552,0-1-0.448-1-1
		c0-0.552,0.448-1,1-1h23.957c0.552,0,1,0.448,1,1C43.609,26.552,43.161,27,42.609,27z"/>
</g>
<g id="nyt_x5F_exporter_x5F_info" display="none">
</g>
</svg>
