<?xml version="1.0" encoding="utf-8"?>
<!-- Generator: Adobe Illustrator 17.0.0, SVG Export Plug-In . SVG Version: 6.00 Build 0)  -->
<!DOCTYPE svg PUBLIC "-//W3C//DTD SVG 1.1//EN" "http://www.w3.org/Graphics/SVG/1.1/DTD/svg11.dtd">
<svg version="1.1" id="Layer_2" xmlns="http://www.w3.org/2000/svg" xmlns:xlink="http://www.w3.org/1999/xlink" x="0px" y="0px"
	 width="60px" height="60px" viewBox="0 0 60 60" enable-background="new 0 0 60 60" xml:space="preserve">
<g>
	<path fill="#010101" d="M20,0v15.208c5.103,0.152,9.474,3.717,11.464,8.792h8.579v11.615L50.447,24H60V0H20z M35,14h-3v-3h3V14z
		 M43,14h-3v-3h3V14z M51,14h-3v-3h3V14z"/>
	<path fill="#010101" d="M35.239,48.682L26,45.301v0v-4.604v-0.011c0.249-0.208,0.477-0.442,0.708-0.671
		c0.149-0.148,0.3-0.292,0.441-0.448c0.186-0.205,0.359-0.422,0.531-0.641c0.115-0.145,0.233-0.287,0.342-0.437
		c0.187-0.26,0.358-0.532,0.526-0.808c0.077-0.125,0.159-0.246,0.231-0.374c0.18-0.319,0.342-0.651,0.498-0.987
		c0.046-0.099,0.098-0.195,0.142-0.295c0.159-0.367,0.297-0.747,0.426-1.131c0.028-0.083,0.062-0.162,0.088-0.246
		c0.125-0.396,0.225-0.802,0.317-1.212c0.018-0.082,0.044-0.161,0.06-0.243c0.083-0.408,0.142-0.825,0.191-1.245
		c0.011-0.091,0.03-0.178,0.039-0.269c0.051-0.503,0.077-1.013,0.078-1.527c-0.771,0.195-1.602,0.309-2.458,0.309
		c-2.438,0-5.067-0.911-7.014-3.427c-1.698,1.794-4.708,3.104-7.454,3.104c-1.192,0-3.341-0.635-4.91-1.438
		C8.737,29.17,8.71,29.648,8.71,30.132c0,0.558,0.032,1.11,0.091,1.654c0.019,0.172,0.056,0.337,0.081,0.508
		c0.053,0.369,0.104,0.739,0.183,1.099c0.042,0.192,0.103,0.376,0.153,0.566c0.086,0.328,0.169,0.658,0.276,0.976
		c0.066,0.194,0.149,0.379,0.222,0.57c0.116,0.299,0.229,0.6,0.363,0.887c0.09,0.193,0.196,0.375,0.294,0.561
		c0.141,0.269,0.281,0.539,0.439,0.794c0.116,0.188,0.245,0.363,0.37,0.543c0.163,0.236,0.325,0.473,0.502,0.696
		c0.142,0.178,0.296,0.344,0.447,0.513c0.181,0.203,0.362,0.406,0.556,0.595c0.166,0.162,0.343,0.311,0.518,0.462
		c0.26,0.225,0.517,0.454,0.795,0.654v0.014v4.073l-9.404,3.382c-2.127,0.76-3.648,2.312-4.276,4.258C0.11,53.586,0,54.278,0,55v5
		h40v-5C40,52.195,38.128,49.714,35.239,48.682z"/>
	<path fill="#010101" d="M20.301,24.833l0.846-1.623l0.909,1.589c2.116,3.699,5.691,4.145,8.416,3.316
		c-0.824-6.18-5.349-10.926-10.806-10.926c-5.009,0-9.233,3.997-10.533,9.43c1.139,0.729,3.548,1.519,4.56,1.519
		C16.295,28.137,19.383,26.593,20.301,24.833z"/>
</g>
</svg>
