<?xml version="1.0" encoding="utf-8"?>
<!-- Generator: Adobe Illustrator 17.0.0, SVG Export Plug-In . SVG Version: 6.00 Build 0)  -->
<!DOCTYPE svg PUBLIC "-//W3C//DTD SVG 1.1//EN" "http://www.w3.org/Graphics/SVG/1.1/DTD/svg11.dtd">
<svg version="1.1" id="Layer_2" xmlns="http://www.w3.org/2000/svg" xmlns:xlink="http://www.w3.org/1999/xlink" x="0px" y="0px"
	 width="60px" height="60px" viewBox="0 0 60 60" enable-background="new 0 0 60 60" xml:space="preserve">
<g>
	<path fill="#010101" d="M42.608,0c-9.59,0-17.392,7.236-17.391,16.092c0,0.007-0.002,0.055-0.002,0.139
		c3.178,0.914,5.429,2.865,6.082,5.477c0.462,1.848,0.329,3.792-0.407,5.928c0.046,0.066,0.091,0.134,0.134,0.203
		c0.25,0.403,0.44,0.857,0.577,1.341c0.917,0.679,1.964,1.297,3.163,1.822c0.93,0.407,1.971,0.709,3.231,0.935
		c-0.006,2-0.006,5.816-0.006,6.891v2.415l1.707-1.708c0.749-0.749,3.864-3.447,6.367-5.616c1.491-1.291,2.795-2.421,3.385-2.953
		C55.865,28.42,60,22.617,60,16.13C60,7.236,52.198,0,42.608,0z M37.5,18.5h-4v-4h4V18.5z M45.5,18.5h-4v-4h4V18.5z M53.5,18.5h-4
		v-4h4V18.5z"/>
	<path fill="#010101" d="M37.237,50.033c-0.636-0.416-1.419-0.889-2.382-1.432c-2.639-1.486-5.903-3.06-8.855-4.275v-0.668v-2.642
		v-0.459c0.204-0.158,0.436-0.375,0.672-0.668c0.01-0.012,0.02-0.026,0.03-0.039c0.103-0.13,0.206-0.278,0.308-0.439
		c0.02-0.032,0.04-0.065,0.061-0.099c0.093-0.154,0.183-0.324,0.272-0.507c0.022-0.046,0.045-0.09,0.066-0.138
		c0.089-0.196,0.174-0.412,0.254-0.643c0.015-0.043,0.031-0.081,0.046-0.125c0.094-0.283,0.18-0.589,0.255-0.925
		c0.001-0.006,0.003-0.014,0.004-0.02c0.069-0.314,0.126-0.658,0.174-1.021c0.016-0.121,0.026-0.254,0.039-0.38
		c0.035-0.332,0.068-0.667,0.083-1.041c0.376-0.223,0.692-0.57,0.941-0.993c0.003-0.005,0.006-0.01,0.009-0.016
		c0.074-0.127,0.14-0.262,0.202-0.401c0.01-0.024,0.021-0.047,0.032-0.072c0.053-0.124,0.098-0.253,0.141-0.385
		c0.011-0.036,0.024-0.07,0.035-0.106c0.038-0.127,0.069-0.257,0.097-0.388c0.009-0.041,0.02-0.08,0.028-0.121
		c0.026-0.135,0.045-0.272,0.061-0.41c0.004-0.038,0.012-0.075,0.015-0.114c0.017-0.176,0.026-0.353,0.026-0.529
		c0-0.299-0.032-0.578-0.08-0.844c-0.009-0.049-0.016-0.098-0.027-0.146c-0.056-0.259-0.131-0.503-0.23-0.724
		c-0.009-0.02-0.019-0.037-0.028-0.056c-0.099-0.209-0.218-0.398-0.353-0.567c-0.018-0.022-0.033-0.046-0.052-0.068
		c-0.154-0.18-0.326-0.337-0.519-0.461c0.088-0.205,0.183-0.44,0.278-0.688c0.742-1.938,0.913-3.649,0.519-5.228
		c-0.428-1.713-1.87-3.049-3.965-3.816c0.001,0.003,0.001,0.008,0.002,0.012c-1.012-0.366-2.113-0.584-3.185-0.679
		c-0.004,0-0.008-0.001-0.012-0.001c-0.2-0.018-0.399-0.03-0.597-0.04c-0.228-0.01-0.457-0.018-0.691-0.018
		c-0.413,0-0.814,0.02-1.207,0.051c-0.118,0.009-0.237,0.023-0.355,0.036c-0.235,0.024-0.465,0.056-0.692,0.091
		c-0.219,0.034-0.437,0.073-0.654,0.118c-0.124,0.026-0.246,0.055-0.367,0.084c-0.25,0.06-0.498,0.126-0.742,0.202
		c-0.225,0.07-0.447,0.143-0.659,0.226c-0.087,0.033-0.171,0.07-0.257,0.106c-1.286,0.549-2.304,1.326-2.933,2.297
		c-0.009,0.014-0.021,0.024-0.031,0.037c-0.086,0.139-0.168,0.281-0.24,0.431c-0.192-0.015-0.371-0.018-0.539-0.011
		c-0.262,0.01-0.486,0.052-0.693,0.104c-0.045,0.011-0.093,0.02-0.135,0.033c-0.182,0.056-0.342,0.127-0.484,0.205
		c-0.04,0.022-0.08,0.045-0.118,0.069c-0.131,0.084-0.249,0.173-0.346,0.268c-0.021,0.021-0.039,0.042-0.059,0.063
		c-0.096,0.102-0.183,0.206-0.247,0.305c-0.116,0.179-0.197,0.373-0.26,0.575c-0.024,0.078-0.034,0.161-0.05,0.242
		c-0.027,0.128-0.052,0.256-0.062,0.39c-0.008,0.104-0.007,0.211-0.006,0.319c0.001,0.117,0.004,0.234,0.014,0.354
		c0.011,0.12,0.025,0.24,0.044,0.362c0.018,0.113,0.039,0.226,0.063,0.34c0.026,0.126,0.053,0.252,0.087,0.379
		c0.031,0.116,0.065,0.232,0.1,0.348c0.037,0.121,0.071,0.242,0.112,0.362c0.05,0.146,0.104,0.291,0.158,0.435
		c0.032,0.084,0.061,0.17,0.094,0.253c0.189,0.479,0.392,0.935,0.573,1.339c0.003,0.008,0.006,0.015,0.01,0.022
		c-0.361,0.208-0.676,0.507-0.93,0.888c-0.413,0.62-0.641,1.433-0.641,2.289c0,0.31,0.037,0.605,0.091,0.889
		c0.01,0.053,0.017,0.107,0.029,0.158c0.058,0.253,0.14,0.49,0.238,0.714c0.032,0.071,0.066,0.14,0.101,0.208
		c0.103,0.198,0.218,0.383,0.353,0.548c0.053,0.065,0.114,0.122,0.172,0.181c0.118,0.123,0.245,0.233,0.382,0.33
		c0.171,0.122,0.35,0.231,0.545,0.309c0.02,0.39,0.061,0.742,0.107,1.087c0.014,0.108,0.026,0.222,0.042,0.326
		c0.446,2.776,1.682,4.044,2.483,4.582v0.505v2.559v0.668c-2.952,1.215-6.216,2.789-8.855,4.275
		c-0.963,0.542-1.746,1.016-2.382,1.432C0.897,51.327,0,52.352,0,53v6c0,0.552,0.448,1,1,1h38c0.552,0,1-0.448,1-1v-6
		C40,52.352,39.102,51.327,37.237,50.033z"/>
</g>
</svg>
