<?xml version="1.0" encoding="utf-8"?>
<!-- Generator: Adobe Illustrator 17.0.0, SVG Export Plug-In . SVG Version: 6.00 Build 0)  -->
<!DOCTYPE svg PUBLIC "-//W3C//DTD SVG 1.1//EN" "http://www.w3.org/Graphics/SVG/1.1/DTD/svg11.dtd">
<svg version="1.1" id="Layer_2" xmlns="http://www.w3.org/2000/svg" xmlns:xlink="http://www.w3.org/1999/xlink" x="0px" y="0px"
	 width="60px" height="60px" viewBox="0 0 60 60" enable-background="new 0 0 60 60" xml:space="preserve">
<g>
	<path fill="#010101" d="M43.223,33.391c-2.649,0-4.804,2.156-4.804,4.805c0,2.649,2.155,4.804,4.804,4.804
		c2.649,0,4.804-2.155,4.804-4.804C48.027,35.547,45.872,33.391,43.223,33.391z"/>
	<circle fill="#010101" cx="33.766" cy="41.348" r="2.522"/>
	<path fill="#010101" d="M46.123,0c-3.405,0-6.212,1.141-8.779,3.579c-1.819-0.816-3.62-1.23-5.363-1.23
		c-4.752,0-9.001,3.248-10.825,8.273c-0.623,1.718-0.893,3.437-0.836,5.057c0.198-0.007,0.389-0.025,0.59-0.025
		c5.391,0,9.468,2.377,10.388,6.056c0.392,1.566,0.329,3.209-0.139,4.972c0.844,0.242,1.53,0.382,1.968,0.456
		C34.542,29.533,37.154,31,40.071,31c2.513,0,5.031-1.407,6.822-3.789c4.031-0.11,7.394-1.511,9.75-4.066
		C58.808,20.797,60,17.591,60,14.117C60,7.273,55.137,0,46.123,0z M33.767,17.392c-1.391,0-2.522-1.131-2.522-2.522
		c0-1.391,1.131-2.522,2.522-2.522c1.39,0,2.521,1.131,2.521,2.522C36.288,16.26,35.157,17.392,33.767,17.392z M41.332,17.392
		c-1.391,0-2.522-1.131-2.522-2.522c0-1.391,1.131-2.522,2.522-2.522c1.39,0,2.521,1.131,2.521,2.522
		C43.854,16.26,42.722,17.392,41.332,17.392z M48.897,17.392c-1.391,0-2.522-1.131-2.522-2.522c0-1.391,1.131-2.522,2.522-2.522
		c1.39,0,2.521,1.131,2.521,2.522C51.419,16.26,50.288,17.392,48.897,17.392z"/>
	<path fill="#010101" d="M37.237,50.033c-0.636-0.416-1.419-0.889-2.382-1.432c-2.639-1.486-5.903-3.06-8.855-4.275v-0.668v-2.642
		v-0.459c0.204-0.158,0.436-0.375,0.672-0.668c0.01-0.012,0.02-0.026,0.03-0.039c0.103-0.13,0.206-0.278,0.308-0.439
		c0.02-0.032,0.04-0.065,0.06-0.099c0.093-0.154,0.184-0.324,0.272-0.507c0.022-0.046,0.045-0.09,0.066-0.138
		c0.089-0.196,0.174-0.412,0.254-0.643c0.015-0.043,0.031-0.081,0.046-0.125c0.094-0.283,0.18-0.589,0.255-0.925
		c0.001-0.006,0.003-0.014,0.004-0.02c0.069-0.314,0.126-0.658,0.174-1.021c0.016-0.121,0.026-0.254,0.039-0.38
		c0.035-0.332,0.068-0.667,0.083-1.041c0.376-0.223,0.692-0.57,0.941-0.993c0.003-0.005,0.006-0.01,0.009-0.016
		c0.074-0.127,0.14-0.262,0.202-0.401c0.01-0.024,0.021-0.047,0.032-0.072c0.052-0.124,0.098-0.253,0.141-0.385
		c0.011-0.036,0.024-0.07,0.035-0.106c0.038-0.127,0.069-0.257,0.098-0.388c0.009-0.041,0.02-0.08,0.027-0.121
		c0.026-0.135,0.045-0.272,0.061-0.41c0.004-0.038,0.012-0.075,0.015-0.114c0.017-0.176,0.026-0.353,0.026-0.529
		c0-0.299-0.032-0.578-0.08-0.844c-0.009-0.049-0.016-0.098-0.027-0.146c-0.056-0.259-0.131-0.503-0.23-0.724
		c-0.009-0.02-0.019-0.037-0.028-0.056c-0.099-0.209-0.218-0.398-0.353-0.567c-0.018-0.022-0.033-0.046-0.052-0.068
		c-0.154-0.18-0.326-0.337-0.519-0.461c0.088-0.205,0.183-0.44,0.278-0.688c0.178-0.466,0.325-0.92,0.437-1.361
		c0.001-0.005,0.002-0.01,0.003-0.015l0.001,0.001c0.351-1.387,0.376-2.658,0.077-3.853c-0.689-2.759-4.005-4.541-8.448-4.541
		c-0.413,0-0.814,0.02-1.207,0.051c-0.118,0.009-0.237,0.023-0.355,0.036c-0.235,0.024-0.465,0.056-0.692,0.091
		c-0.219,0.034-0.437,0.073-0.654,0.118c-0.124,0.026-0.246,0.055-0.367,0.084c-0.25,0.06-0.498,0.126-0.742,0.202
		c-0.225,0.07-0.447,0.143-0.659,0.226c-0.087,0.033-0.171,0.07-0.256,0.106c-1.286,0.549-2.304,1.326-2.933,2.297
		c-0.009,0.014-0.021,0.024-0.031,0.037c-0.086,0.139-0.168,0.281-0.24,0.431c-0.193-0.015-0.373-0.018-0.542-0.011
		c-0.259,0.01-0.481,0.051-0.687,0.103c-0.047,0.012-0.097,0.021-0.141,0.034c-0.18,0.055-0.336,0.125-0.477,0.202
		c-0.043,0.024-0.086,0.048-0.126,0.074c-0.129,0.082-0.245,0.17-0.34,0.263c-0.023,0.022-0.043,0.045-0.064,0.067
		c-0.095,0.101-0.181,0.203-0.244,0.301c-0.116,0.179-0.197,0.373-0.26,0.575c-0.024,0.078-0.034,0.161-0.05,0.242
		c-0.027,0.128-0.052,0.256-0.062,0.39c-0.008,0.104-0.007,0.211-0.006,0.319c0.001,0.117,0.004,0.234,0.014,0.354
		c0.011,0.12,0.025,0.24,0.044,0.362c0.018,0.113,0.039,0.226,0.063,0.34c0.026,0.126,0.053,0.252,0.087,0.379
		c0.031,0.116,0.065,0.232,0.1,0.348c0.037,0.121,0.071,0.242,0.112,0.362c0.05,0.146,0.104,0.291,0.158,0.435
		c0.032,0.084,0.061,0.17,0.094,0.253c0.19,0.479,0.392,0.935,0.573,1.339c0.003,0.008,0.006,0.015,0.01,0.022
		c-0.361,0.208-0.676,0.507-0.93,0.888c-0.413,0.62-0.641,1.433-0.641,2.289c0,0.31,0.037,0.605,0.091,0.889
		c0.01,0.053,0.017,0.107,0.029,0.158c0.058,0.253,0.14,0.49,0.238,0.714c0.032,0.071,0.066,0.14,0.101,0.208
		c0.102,0.198,0.219,0.383,0.353,0.548c0.053,0.065,0.114,0.122,0.172,0.181c0.118,0.123,0.245,0.233,0.381,0.33
		c0.171,0.122,0.35,0.231,0.546,0.309c0.02,0.39,0.062,0.742,0.107,1.087c0.014,0.108,0.026,0.222,0.042,0.326
		c0.446,2.776,1.682,4.044,2.483,4.582v0.505v2.559v0.668c-2.952,1.215-6.216,2.789-8.855,4.275
		c-0.963,0.542-1.746,1.016-2.382,1.432C0.898,51.327,0,52.352,0,53v6c0,0.552,0.448,1,1,1h38c0.552,0,1-0.448,1-1v-6
		C40,52.352,39.102,51.327,37.237,50.033z"/>
</g>
</svg>
