<?xml version="1.0" encoding="utf-8"?>
<!-- Generator: Adobe Illustrator 17.0.0, SVG Export Plug-In . SVG Version: 6.00 Build 0)  -->
<!DOCTYPE svg PUBLIC "-//W3C//DTD SVG 1.1//EN" "http://www.w3.org/Graphics/SVG/1.1/DTD/svg11.dtd">
<svg version="1.1" xmlns="http://www.w3.org/2000/svg" xmlns:xlink="http://www.w3.org/1999/xlink" x="0px" y="0px" width="60px"
	 height="60px" viewBox="0 0 60 60" enable-background="new 0 0 60 60" xml:space="preserve">
<g id="Layer_3">
	<g>
		<path fill="#010101" d="M48,52c0-10.122-8.411-19-18-19c-9.589,0-18,8.878-18,19c0,0.552-0.448,1-1,1
			c-0.108,0-0.208-0.03-0.306-0.062C15.916,57.34,22.652,60,30,60c7.348,0,14.084-2.66,19.306-7.062C49.208,52.97,49.108,53,49,53
			C48.448,53,48,52.552,48,52z"/>
		<path fill="#010101" d="M30,0C13.458,0,0,13.458,0,30c0,8.914,3.912,16.927,10.104,22.426C10.041,52.296,10,52.154,10,52
			c0-11.187,9.346-21,20-21c10.654,0,20,9.813,20,21c0,0.154-0.041,0.296-0.104,0.426C56.088,46.927,60,38.914,60,30
			C60,13.458,46.542,0,30,0z M19,26c-3.364,0-6-2.636-6-6c0-0.552,0.448-1,1-1c0.552,0,1,0.448,1,1c0,2.243,1.757,4,4,4
			c2.243,0,4-1.757,4-4c0-0.552,0.448-1,1-1c0.552,0,1,0.448,1,1C25,23.364,22.364,26,19,26z M41,26c-3.364,0-6-2.636-6-6
			c0-0.552,0.448-1,1-1c0.552,0,1,0.448,1,1c0,2.243,1.757,4,4,4c2.243,0,4-1.757,4-4c0-0.552,0.448-1,1-1c0.552,0,1,0.448,1,1
			C47,23.364,44.364,26,41,26z"/>
	</g>
</g>
<g id="nyt_x5F_exporter_x5F_info" display="none">
</g>
</svg>
