<?xml version="1.0" encoding="utf-8"?>
<!-- Generator: Adobe Illustrator 17.0.0, SVG Export Plug-In . SVG Version: 6.00 Build 0)  -->
<!DOCTYPE svg PUBLIC "-//W3C//DTD SVG 1.1//EN" "http://www.w3.org/Graphics/SVG/1.1/DTD/svg11.dtd">
<svg version="1.1" xmlns="http://www.w3.org/2000/svg" xmlns:xlink="http://www.w3.org/1999/xlink" x="0px" y="0px" width="60px"
	 height="60px" viewBox="0 0 60 60" enable-background="new 0 0 60 60" xml:space="preserve">
<g id="Layer_3">
	<path fill="#010101" d="M30,0C13.458,0,0,13.458,0,30s13.458,30,30,30s30-13.458,30-30S46.542,0,30,0z M41.348,18.913
		C44.488,18.913,48,21.516,48,25c0,0.552-0.448,1-1,1c-0.552,0-1-0.448-1-1c0-2.302-2.501-4.087-4.652-4.087
		C39.032,20.913,37,22.823,37,25c0,0.552-0.448,1-1,1c-0.552,0-1-0.448-1-1C35,21.757,37.966,18.913,41.348,18.913z M18.652,18.913
		C22.034,18.913,25,21.757,25,25c0,0.552-0.448,1-1,1c-0.552,0-1-0.448-1-1c0-2.177-2.032-4.087-4.348-4.087
		C16.501,20.913,14,22.698,14,25c0,0.552-0.448,1-1,1c-0.552,0-1-0.448-1-1C12,21.516,15.512,18.913,18.652,18.913z M30,52.435
		c-10.841,0-20-9.358-20-20.435c0-0.552,0.448-1,1-1c0.552,0,1,0.448,1,1c0,9.993,8.243,18.435,18,18.435
		c9.757,0,18-8.442,18-18.435c0-0.552,0.448-1,1-1c0.552,0,1,0.448,1,1C50,43.077,40.841,52.435,30,52.435z"/>
</g>
<g id="nyt_x5F_exporter_x5F_info" display="none">
</g>
</svg>
