<?xml version="1.0" encoding="utf-8"?>
<!-- Generator: Adobe Illustrator 17.0.0, SVG Export Plug-In . SVG Version: 6.00 Build 0)  -->
<!DOCTYPE svg PUBLIC "-//W3C//DTD SVG 1.1//EN" "http://www.w3.org/Graphics/SVG/1.1/DTD/svg11.dtd">
<svg version="1.1" xmlns="http://www.w3.org/2000/svg" xmlns:xlink="http://www.w3.org/1999/xlink" x="0px" y="0px" width="60px"
	 height="60px" viewBox="0 0 60 60" enable-background="new 0 0 60 60" xml:space="preserve">
<g id="Layer_3">
	<path fill="#010101" d="M30,0C13.458,0,0,13.458,0,30s13.458,30,30,30s30-13.458,30-30S46.542,0,30,0z M36,19c0.552,0,1,0.448,1,1
		c0,2.145,1.991,3.957,4.348,3.957C43.544,23.957,46,22.265,46,20c0-0.552,0.448-1,1-1c0.552,0,1,0.448,1,1
		c0,3.51-3.506,5.957-6.652,5.957C37.907,25.957,35,23.229,35,20C35,19.448,35.448,19,36,19z M13,19c0.552,0,1,0.448,1,1
		c0,2.265,2.456,3.957,4.652,3.957C21.009,23.957,23,22.145,23,20c0-0.552,0.448-1,1-1c0.552,0,1,0.448,1,1
		c0,3.229-2.907,5.957-6.348,5.957C15.506,25.957,12,23.51,12,20C12,19.448,12.448,19,13,19z M30,52.435
		c-10.841,0-20-9.358-20-20.435c0-0.552,0.448-1,1-1c0.552,0,1,0.448,1,1c0,9.993,8.243,18.435,18,18.435
		c9.757,0,18-8.442,18-18.435c0-0.552,0.448-1,1-1c0.552,0,1,0.448,1,1C50,43.077,40.841,52.435,30,52.435z"/>
</g>
<g id="nyt_x5F_exporter_x5F_info" display="none">
</g>
</svg>
