<?xml version="1.0" encoding="utf-8"?>
<!-- Generator: Adobe Illustrator 17.0.0, SVG Export Plug-In . SVG Version: 6.00 Build 0)  -->
<!DOCTYPE svg PUBLIC "-//W3C//DTD SVG 1.1//EN" "http://www.w3.org/Graphics/SVG/1.1/DTD/svg11.dtd">
<svg version="1.1" xmlns="http://www.w3.org/2000/svg" xmlns:xlink="http://www.w3.org/1999/xlink" x="0px" y="0px" width="60px"
	 height="60px" viewBox="0 0 60 60" enable-background="new 0 0 60 60" xml:space="preserve">
<g id="Layer_3">
	<g>
		<path fill="#010101" d="M30,0C13.458,0,0,13.458,0,30s13.458,30,30,30c16.542,0,30-13.458,30-30S46.542,0,30,0z M41.956,19
			c3.364,0,6,2.636,6,6c0,0.552-0.448,1-1,1s-1-0.448-1-1c0-2.243-1.757-4-4-4c-2.243,0-4,1.757-4,4c0,0.552-0.448,1-1,1
			s-1-0.448-1-1C35.956,21.636,38.592,19,41.956,19z M17.956,19c3.364,0,6,2.636,6,6c0,0.552-0.448,1-1,1s-1-0.448-1-1
			c0-2.243-1.757-4-4-4s-4,1.757-4,4c0,0.552-0.448,1-1,1s-1-0.448-1-1C11.956,21.636,14.592,19,17.956,19z M30,52.435
			c-10.98,0-19.913-8.718-19.913-19.435c0-0.552,0.448-1,1-1h37.826c0.552,0,1,0.448,1,1C49.913,43.716,40.98,52.435,30,52.435z"/>
		<path fill="#010101" d="M30,50.435c9.365,0,17.329-7.427,17.882-16.435H12.118C12.67,43.007,20.634,50.435,30,50.435z"/>
	</g>
</g>
<g id="nyt_x5F_exporter_x5F_info" display="none">
</g>
</svg>
