<?xml version="1.0" encoding="utf-8"?>
<!-- Generator: Adobe Illustrator 17.0.0, SVG Export Plug-In . SVG Version: 6.00 Build 0)  -->
<!DOCTYPE svg PUBLIC "-//W3C//DTD SVG 1.1//EN" "http://www.w3.org/Graphics/SVG/1.1/DTD/svg11.dtd">
<svg version="1.1" id="Layer_2" xmlns="http://www.w3.org/2000/svg" xmlns:xlink="http://www.w3.org/1999/xlink" x="0px" y="0px"
	 width="48px" height="48px" viewBox="0 0 48 48" enable-background="new 0 0 48 48" xml:space="preserve">
<path fill="#010101" d="M46,0c-1.105,0-2,0.896-2,2v8.754c-3.544-3.255-7.964-5.558-12.686-6.52
	C24.572,2.861,17.88,4.226,12.479,8.081C7.044,11.96,3.444,17.724,2.344,24.31c-1.101,6.587,0.43,13.207,4.309,18.642
	c1.169,1.637,2.528,3.129,4.042,4.433c0.378,0.326,0.843,0.485,1.305,0.485c0.561,0,1.12-0.235,1.516-0.694
	c0.722-0.837,0.628-2.1-0.209-2.82c-1.271-1.096-2.414-2.35-3.398-3.728c-3.259-4.565-4.544-10.126-3.619-15.659
	c0.925-5.532,3.948-10.373,8.515-13.632c4.486-3.203,10.069-4.332,15.713-3.184c4.158,0.847,8.043,2.917,11.105,5.847H32
	c-1.105,0-2,0.896-2,2c0,1.105,0.895,2,2,2h14c1.104,0,2-0.895,2-2V2C48,0.896,47.104,0,46,0z"/>
</svg>
