<?xml version="1.0" encoding="utf-8"?>
<!-- Generator: Adobe Illustrator 17.0.0, SVG Export Plug-In . SVG Version: 6.00 Build 0)  -->
<!DOCTYPE svg PUBLIC "-//W3C//DTD SVG 1.1//EN" "http://www.w3.org/Graphics/SVG/1.1/DTD/svg11.dtd">
<svg version="1.1" id="Layer_2" xmlns="http://www.w3.org/2000/svg" xmlns:xlink="http://www.w3.org/1999/xlink" x="0px" y="0px"
	 width="48px" height="48px" viewBox="0 0 48 48" enable-background="new 0 0 48 48" xml:space="preserve">
<path fill="#010101" d="M45.656,24.31c-1.101-6.586-4.701-12.35-10.137-16.228c-5.4-3.855-12.09-5.221-18.834-3.847
	C11.964,5.196,7.544,7.499,4,10.754V2c0-1.104-0.895-2-2-2S0,0.896,0,2v14c0,1.105,0.896,2,2,2h14c1.104,0,2-0.895,2-2
	c0-1.104-0.896-2-2-2H6.378c3.062-2.929,6.947-4.999,11.105-5.847c5.646-1.147,11.227-0.019,15.712,3.184
	c4.566,3.259,7.591,8.1,8.516,13.632c0.925,5.533-0.36,11.094-3.619,15.659c-0.983,1.378-2.126,2.632-3.397,3.728
	c-0.837,0.721-0.931,1.983-0.209,2.82c0.396,0.459,0.954,0.694,1.516,0.694c0.462,0,0.927-0.159,1.305-0.485
	c1.514-1.304,2.873-2.796,4.042-4.433C45.227,37.517,46.757,30.897,45.656,24.31z"/>
</svg>
