<?xml version="1.0" encoding="utf-8"?>
<!-- Generator: Adobe Illustrator 17.0.0, SVG Export Plug-In . SVG Version: 6.00 Build 0)  -->
<!DOCTYPE svg PUBLIC "-//W3C//DTD SVG 1.1//EN" "http://www.w3.org/Graphics/SVG/1.1/DTD/svg11.dtd">
<svg version="1.1" id="Layer_2" xmlns="http://www.w3.org/2000/svg" xmlns:xlink="http://www.w3.org/1999/xlink" x="0px" y="0px"
	 width="48px" height="48px" viewBox="0 0 48 48" enable-background="new 0 0 48 48" xml:space="preserve">
<path fill="#010101" d="M47,0H1C0.447,0,0,0.447,0,1v46c0,0.553,0.447,1,1,1h46c0.553,0,1-0.447,1-1V1C48,0.447,47.553,0,47,0z
	 M21,36H7c-0.553,0-1-0.447-1-1c0-0.553,0.447-1,1-1h14c0.553,0,1,0.447,1,1C22,35.553,21.553,36,21,36z M21,30H7
	c-0.553,0-1-0.447-1-1c0-0.553,0.447-1,1-1h14c0.553,0,1,0.447,1,1C22,29.553,21.553,30,21,30z M21,24H7c-0.553,0-1-0.447-1-1
	c0-0.553,0.447-1,1-1h14c0.553,0,1,0.447,1,1C22,23.553,21.553,24,21,24z M21,18H7c-0.553,0-1-0.447-1-1c0-0.553,0.447-1,1-1h14
	c0.553,0,1,0.447,1,1C22,17.553,21.553,18,21,18z M21,12h-8c-0.553,0-1-0.447-1-1c0-0.553,0.447-1,1-1h8c0.553,0,1,0.447,1,1
	C22,11.553,21.553,12,21,12z M37,36H27c-0.553,0-1-0.447-1-1c0-0.553,0.447-1,1-1h10c0.553,0,1,0.447,1,1C38,35.553,37.553,36,37,36
	z M41,30H27c-0.553,0-1-0.447-1-1c0-0.553,0.447-1,1-1h14c0.553,0,1,0.447,1,1C42,29.553,41.553,30,41,30z M41,24H27
	c-0.553,0-1-0.447-1-1c0-0.553,0.447-1,1-1h14c0.553,0,1,0.447,1,1C42,23.553,41.553,24,41,24z M41,18H27c-0.553,0-1-0.447-1-1
	c0-0.553,0.447-1,1-1h14c0.553,0,1,0.447,1,1C42,17.553,41.553,18,41,18z M41,12H27c-0.553,0-1-0.447-1-1c0-0.553,0.447-1,1-1h14
	c0.553,0,1,0.447,1,1C42,11.553,41.553,12,41,12z"/>
</svg>
