<?xml version="1.0" encoding="utf-8"?>
<!-- Generator: Adobe Illustrator 17.0.0, SVG Export Plug-In . SVG Version: 6.00 Build 0)  -->
<!DOCTYPE svg PUBLIC "-//W3C//DTD SVG 1.1//EN" "http://www.w3.org/Graphics/SVG/1.1/DTD/svg11.dtd">
<svg version="1.1" id="Layer_2" xmlns="http://www.w3.org/2000/svg" xmlns:xlink="http://www.w3.org/1999/xlink" x="0px" y="0px"
	 width="48px" height="48px" viewBox="0 0 48 48" enable-background="new 0 0 48 48" xml:space="preserve">
<g>
	<path fill="#010101" d="M44.879,22.535c1.949-1.949,1.949-5.121,0-7.07L34.535,5.121C33.594,4.18,32.339,3.661,31,3.661
		c-1.339,0-2.594,0.519-3.535,1.46L19,13.586L36.414,31L44.879,22.535z"/>
	<path fill="#010101" d="M7.465,40.879C9.215,42.629,12.524,44,15,44h4c2.476,0,5.785-1.371,7.535-3.121L35,32.414L17.586,15
		L3.121,29.465C2.18,30.406,1.661,31.661,1.661,33c0,1.339,0.519,2.594,1.46,3.535L7.465,40.879z"/>
	<path fill="#010101" d="M47,46H1c-0.553,0-1,0.447-1,1c0,0.553,0.447,1,1,1h46c0.553,0,1-0.447,1-1C48,46.447,47.553,46,47,46z"/>
</g>
</svg>
