<?xml version="1.0" encoding="utf-8"?>
<!-- Generator: Adobe Illustrator 17.0.0, SVG Export Plug-In . SVG Version: 6.00 Build 0)  -->
<!DOCTYPE svg PUBLIC "-//W3C//DTD SVG 1.1//EN" "http://www.w3.org/Graphics/SVG/1.1/DTD/svg11.dtd">
<svg version="1.1" id="Layer_2" xmlns="http://www.w3.org/2000/svg" xmlns:xlink="http://www.w3.org/1999/xlink" x="0px" y="0px"
	 width="48px" height="48px" viewBox="0 0 48 48" enable-background="new 0 0 48 48" xml:space="preserve">
<g>
	<path fill="#010101" d="M8,34h2.97c0.009,0,0.018,0,0.027,0H14c1.104,0,2-0.895,2-2c0-1.089-0.872-1.971-1.956-1.995L16.646,24
		h14.708l2.602,6.005C32.872,30.029,32,30.911,32,32c0,1.105,0.895,2,2,2h2.994c0.002,0,0.004,0.001,0.007,0.001
		c0.003,0,0.006-0.001,0.009-0.001H40c1.104,0,2-0.895,2-2c0-1.104-0.896-2-2-2h-1.687L25.835,1.205C25.519,0.474,24.797,0,24,0
		c-0.797,0-1.519,0.474-1.835,1.205L9.687,30H8c-1.105,0-2,0.896-2,2C6,33.105,6.895,34,8,34z M24,7.03L29.62,20H18.38L24,7.03z"/>
	<path fill="#010101" d="M47,36H1c-0.553,0-1,0.447-1,1v10c0,0.553,0.447,1,1,1h46c0.553,0,1-0.447,1-1V37
		C48,36.447,47.553,36,47,36z M40,44.414L35.586,40h8.828L40,44.414z"/>
</g>
</svg>
