<?xml version="1.0" encoding="utf-8"?>
<!-- Generator: Adobe Illustrator 17.0.0, SVG Export Plug-In . SVG Version: 6.00 Build 0)  -->
<!DOCTYPE svg PUBLIC "-//W3C//DTD SVG 1.1//EN" "http://www.w3.org/Graphics/SVG/1.1/DTD/svg11.dtd">
<svg version="1.1" id="Layer_2" xmlns="http://www.w3.org/2000/svg" xmlns:xlink="http://www.w3.org/1999/xlink" x="0px" y="0px"
	 width="48px" height="48px" viewBox="0 0 48 48" enable-background="new 0 0 48 48" xml:space="preserve">
<g>
	<path fill="#010101" d="M20.414,5.586c-0.781-0.781-2.047-0.781-2.828,0l-17,17c-0.781,0.781-0.781,2.047,0,2.828l17,17
		C17.977,42.805,18.488,43,19,43c0.512,0,1.023-0.195,1.414-0.586c0.781-0.781,0.781-2.047,0-2.828L4.828,24L20.414,8.414
		C21.195,7.633,21.195,6.367,20.414,5.586z"/>
	<path fill="#010101" d="M47.414,22.586l-17-17c-0.781-0.781-2.047-0.781-2.828,0c-0.781,0.781-0.781,2.047,0,2.828L43.172,24
		L27.586,39.586c-0.781,0.781-0.781,2.047,0,2.828C27.977,42.805,28.488,43,29,43c0.512,0,1.023-0.195,1.414-0.586l17-17
		C48.195,24.633,48.195,23.367,47.414,22.586z"/>
</g>
</svg>
