<?xml version="1.0" encoding="utf-8"?>
<!-- Generator: Adobe Illustrator 17.1.0, SVG Export Plug-In . SVG Version: 6.00 Build 0)  -->
<!DOCTYPE svg PUBLIC "-//W3C//DTD SVG 1.0//EN" "http://www.w3.org/TR/2001/REC-SVG-20010904/DTD/svg10.dtd">
<svg version="1.0" id="Layer_1" xmlns="http://www.w3.org/2000/svg" xmlns:xlink="http://www.w3.org/1999/xlink" x="0px" y="0px"
	 width="48px" height="48px" viewBox="0 0 48 48" enable-background="new 0 0 48 48" xml:space="preserve">
<g>
	<path d="M13.889,10.427H45.75c1.104,0,2-0.895,2-2c0-1.104-0.896-2-2-2H13.889c-1.104,0-2,0.896-2,2
		C11.889,9.532,12.784,10.427,13.889,10.427z"/>
	<path d="M45.75,22.427H13.889c-1.104,0-2,0.896-2,2c0,1.105,0.896,2,2,2H45.75c1.104,0,2-0.895,2-2
		C47.75,23.323,46.855,22.427,45.75,22.427z"/>
	<path d="M45.75,38.427H13.889c-1.104,0-2,0.896-2,2c0,1.105,0.896,2,2,2H45.75c1.104,0,2-0.895,2-2
		C47.75,39.323,46.855,38.427,45.75,38.427z"/>
	<path d="M2.795,8.696L4.25,7.592v4.835c0,0.828,0.672,1.5,1.5,1.5s1.5-0.672,1.5-1.5V4.573c0-0.569-0.322-1.09-0.833-1.344
		c-0.51-0.253-1.119-0.195-1.573,0.148L0.983,6.305c-0.66,0.501-0.789,1.441-0.289,2.102C1.194,9.066,2.136,9.194,2.795,8.696z"/>
	<path d="M5.889,26.927H4.928c0.193-0.209,0.369-0.394,0.53-0.562c1.04-1.092,1.792-1.881,1.792-3.864c0-1.91-1.57-3.464-3.5-3.464
		c-1.924,0-3.431,1.514-3.431,3.445c0,0.828,0.672,1.5,1.5,1.5c0.828,0,1.5-0.672,1.5-1.5c0-0.283,0.157-0.445,0.431-0.445
		c0.285,0,0.5,0.199,0.5,0.464c0,0.783-0.036,0.821-0.965,1.795c-0.65,0.684-1.542,1.619-2.741,3.239
		c-0.337,0.456-0.389,1.062-0.134,1.567c0.255,0.506,0.773,0.825,1.34,0.825h4.139c0.828,0,1.5-0.672,1.5-1.5
		C7.389,27.599,6.717,26.927,5.889,26.927z"/>
	<path d="M7.007,37.246c0.301-0.461,0.324-1.05,0.062-1.533C6.807,35.229,6.3,34.927,5.75,34.927H1.889c-0.828,0-1.5,0.672-1.5,1.5
		c0,0.828,0.672,1.5,1.5,1.5h1.095l-0.49,0.754c-0.301,0.461-0.324,1.05-0.062,1.533C2.694,40.698,3.2,41,3.75,41
		c0.306,0,0.444,0.053,0.443,0.036c0,0.001,0.057,0.104,0.057,0.428c0,0.272-0.04,0.389-0.034,0.399
		c-0.045,0.021-0.189,0.064-0.466,0.064H1.889c-0.828,0-1.5,0.672-1.5,1.5c0,0.828,0.672,1.5,1.5,1.5H3.75
		c2.191,0,3.5-1.295,3.5-3.464c0-1.23-0.421-2.18-1.186-2.771L7.007,37.246z"/>
</g>
</svg>
