<?xml version="1.0" encoding="utf-8"?>
<!-- Generator: Adobe Illustrator 17.0.0, SVG Export Plug-In . SVG Version: 6.00 Build 0)  -->
<!DOCTYPE svg PUBLIC "-//W3C//DTD SVG 1.1//EN" "http://www.w3.org/Graphics/SVG/1.1/DTD/svg11.dtd">
<svg version="1.1" id="Layer_2" xmlns="http://www.w3.org/2000/svg" xmlns:xlink="http://www.w3.org/1999/xlink" x="0px" y="0px"
	 width="48px" height="48px" viewBox="0 0 48 48" enable-background="new 0 0 48 48" xml:space="preserve">
<g>
	<path fill="#010101" d="M6,15v-3V6H1C0.447,6,0,6.447,0,7v40c0,0.553,0.447,1,1,1h21v-8H6V15z"/>
	<path fill="#010101" d="M34,7c0-0.553-0.447-1-1-1h-5v6v3v9h6V7z"/>
	<path fill="#010101" d="M9,14h16c0.553,0,1-0.447,1-1V5c0-0.553-0.447-1-1-1h-2.343h-0.758c-0.053-0.259-0.132-0.509-0.223-0.752
		c-0.038-0.101-0.087-0.196-0.131-0.293c-0.069-0.153-0.139-0.304-0.222-0.448c-0.054-0.093-0.115-0.181-0.175-0.27
		c-0.091-0.136-0.184-0.269-0.288-0.395c-0.07-0.085-0.145-0.166-0.22-0.246c-0.107-0.114-0.218-0.224-0.335-0.328
		c-0.087-0.077-0.176-0.151-0.268-0.222c-0.118-0.091-0.241-0.175-0.367-0.255c-0.103-0.065-0.206-0.13-0.313-0.188
		c-0.13-0.07-0.265-0.129-0.402-0.188c-0.112-0.048-0.222-0.098-0.337-0.138c-0.156-0.054-0.318-0.092-0.48-0.13
		c-0.103-0.024-0.203-0.056-0.308-0.074C17.56,0.028,17.284,0,17,0c-0.284,0-0.56,0.028-0.831,0.074
		c-0.105,0.018-0.205,0.049-0.308,0.074c-0.162,0.038-0.324,0.076-0.48,0.13c-0.115,0.04-0.226,0.09-0.337,0.138
		c-0.136,0.058-0.272,0.118-0.402,0.188c-0.107,0.058-0.21,0.123-0.313,0.188c-0.126,0.08-0.249,0.164-0.367,0.255
		c-0.092,0.071-0.181,0.145-0.268,0.222c-0.117,0.104-0.228,0.214-0.335,0.328c-0.075,0.08-0.15,0.161-0.22,0.246
		c-0.103,0.126-0.197,0.259-0.288,0.395c-0.059,0.089-0.121,0.177-0.175,0.27c-0.083,0.144-0.153,0.296-0.222,0.448
		c-0.044,0.097-0.092,0.192-0.131,0.293C12.232,3.491,12.154,3.741,12.101,4h-0.758H9C8.447,4,8,4.447,8,5v8C8,13.553,8.447,14,9,14
		z"/>
	<path fill="#010101" d="M47.707,30.293l-4-4C43.519,26.106,43.266,26,43,26H25c-0.553,0-1,0.447-1,1v20v1h1h8h14
		c0.553,0,1-0.447,1-1V31C48,30.734,47.894,30.481,47.707,30.293z M29,30h10c0.553,0,1,0.447,1,1c0,0.553-0.447,1-1,1H29
		c-0.553,0-1-0.447-1-1C28,30.447,28.447,30,29,30z M43,44H29c-0.553,0-1-0.447-1-1c0-0.553,0.447-1,1-1h14c0.553,0,1,0.447,1,1
		C44,43.553,43.553,44,43,44z M43,40H29c-0.553,0-1-0.447-1-1c0-0.553,0.447-1,1-1h14c0.553,0,1,0.447,1,1
		C44,39.553,43.553,40,43,40z M43,36H29c-0.553,0-1-0.447-1-1c0-0.553,0.447-1,1-1h14c0.553,0,1,0.447,1,1
		C44,35.553,43.553,36,43,36z"/>
</g>
</svg>
