<?xml version="1.0" encoding="utf-8"?>
<!-- Generator: Adobe Illustrator 17.0.0, SVG Export Plug-In . SVG Version: 6.00 Build 0)  -->
<!DOCTYPE svg PUBLIC "-//W3C//DTD SVG 1.1//EN" "http://www.w3.org/Graphics/SVG/1.1/DTD/svg11.dtd">
<svg version="1.1" id="Layer_2" xmlns="http://www.w3.org/2000/svg" xmlns:xlink="http://www.w3.org/1999/xlink" x="0px" y="0px"
	 width="48px" height="48px" viewBox="0 0 48 48" enable-background="new 0 0 48 48" xml:space="preserve">
<g>
	<path fill="#010101" d="M43,12H5c-2.757,0-5,2.243-5,5v12c0,2.757,2.243,5,5,5h5v9c0,0.553,0.447,1,1,1h17.695
		c-0.81-0.569-1.544-1.239-2.174-2H12V28h14.521c2.019-2.441,5.07-4,8.479-4c5.428,0,9.938,3.955,10.829,9.133
		C47.138,32.237,48,30.734,48,29.031V17C48,14.243,45.757,12,43,12z M7,22c-1.654,0-3-1.346-3-3c0-1.654,1.346-3,3-3
		c1.654,0,3,1.346,3,3C10,20.654,8.654,22,7,22z"/>
	<path fill="#010101" d="M11,10h26c0.553,0,1-0.447,1-1V7c0-0.266-0.106-0.519-0.293-0.707l-6-6C31.519,0.106,31.266,0,31,0H11
		c-0.553,0-1,0.447-1,1v8C10,9.553,10.447,10,11,10z M31,1l6,6h-6V1z"/>
	<path fill="#010101" d="M43.448,42.034l-1.423-1.423C43.258,39.071,44,37.122,44,35c0-4.963-4.037-9-9-9c-4.963,0-9,4.037-9,9
		c0,4.963,4.037,9,9,9c2.122,0,4.071-0.742,5.611-1.975l1.423,1.423l4.259,4.259C46.488,47.902,46.744,48,47,48
		c0.256,0,0.512-0.098,0.707-0.293c0.391-0.391,0.391-1.023,0-1.414L43.448,42.034z M35,42c-3.859,0-7-3.141-7-7
		c0-3.859,3.141-7,7-7c3.859,0,7,3.141,7,7C42,38.859,38.859,42,35,42z"/>
</g>
</svg>
