<?xml version="1.0" encoding="utf-8"?>
<!-- Generator: Adobe Illustrator 17.0.0, SVG Export Plug-In . SVG Version: 6.00 Build 0)  -->
<!DOCTYPE svg PUBLIC "-//W3C//DTD SVG 1.1//EN" "http://www.w3.org/Graphics/SVG/1.1/DTD/svg11.dtd">
<svg version="1.1" id="Layer_2" xmlns="http://www.w3.org/2000/svg" xmlns:xlink="http://www.w3.org/1999/xlink" x="0px" y="0px"
	 width="48px" height="48px" viewBox="0 0 48 48" enable-background="new 0 0 48 48" xml:space="preserve">
<g>
	<path fill="#010101" d="M22,4C9.869,4,0,13.869,0,26v3c0,6.065,4.935,11,11,11c6.065,0,11-4.935,11-11c0-6.065-4.935-11-11-11
		c-3.497,0-6.611,1.646-8.627,4.197C4.155,12.983,12.273,6,22,6c0.553,0,1-0.447,1-1C23,4.447,22.553,4,22,4z"/>
	<path fill="#010101" d="M47,4c-12.131,0-22,9.869-22,22v3c0,6.065,4.935,11,11,11c6.065,0,11-4.935,11-11c0-6.065-4.935-11-11-11
		c-3.497,0-6.611,1.646-8.627,4.197C29.155,12.983,37.273,6,47,6c0.553,0,1-0.447,1-1C48,4.447,47.553,4,47,4z"/>
</g>
</svg>
