<?xml version="1.0" encoding="utf-8"?>
<!-- Generator: Adobe Illustrator 17.0.0, SVG Export Plug-In . SVG Version: 6.00 Build 0)  -->
<!DOCTYPE svg PUBLIC "-//W3C//DTD SVG 1.1//EN" "http://www.w3.org/Graphics/SVG/1.1/DTD/svg11.dtd">
<svg version="1.1" id="Layer_2" xmlns="http://www.w3.org/2000/svg" xmlns:xlink="http://www.w3.org/1999/xlink" x="0px" y="0px"
	 width="48px" height="48px" viewBox="0 0 48 48" enable-background="new 0 0 48 48" xml:space="preserve">
<path fill="#010101" d="M46,24H26.749c-1.625-1.186-3.36-2.256-5.033-3.282C16.502,17.521,12,14.761,12,10c0-5.415,5.595-6,8-6
	c7.05,0,8,2.527,8,5v2c0,1.105,0.895,2,2,2c1.104,0,2-0.895,2-2V9c0-4.105-2.082-9-12-9C12.71,0,8,3.925,8,10
	c0,6.915,5.767,10.534,11.416,14H2c-1.105,0-2,0.896-2,2c0,1.105,0.895,2,2,2h23.411C28.104,30.158,30,32.624,30,36
	c0,5.898-5.166,8-10,8c-6.636,0-10-2.355-10-7v-2c0-1.104-0.896-2-2-2c-1.105,0-2,0.896-2,2v2c0,6.99,5.102,11,14,11
	c8.374,0,14-4.822,14-12c0-3.246-1.153-5.828-2.907-8H46c1.104,0,2-0.895,2-2C48,24.896,47.104,24,46,24z"/>
</svg>
