<?xml version="1.0" encoding="utf-8"?>
<!-- Generator: Adobe Illustrator 17.0.0, SVG Export Plug-In . SVG Version: 6.00 Build 0)  -->
<!DOCTYPE svg PUBLIC "-//W3C//DTD SVG 1.1//EN" "http://www.w3.org/Graphics/SVG/1.1/DTD/svg11.dtd">
<svg version="1.1" id="Layer_2" xmlns="http://www.w3.org/2000/svg" xmlns:xlink="http://www.w3.org/1999/xlink" x="0px" y="0px"
	 width="48px" height="48px" viewBox="0 0 48 48" enable-background="new 0 0 48 48" xml:space="preserve">
<path fill="#010101" d="M47,0H1C0.447,0,0,0.447,0,1v46c0,0.553,0.447,1,1,1h46c0.553,0,1-0.447,1-1V1C48,0.447,47.553,0,47,0z
	 M16,41c0,0.553-0.447,1-1,1H7c-0.553,0-1-0.447-1-1v-8c0-0.553,0.447-1,1-1h8c0.553,0,1,0.447,1,1V41z M16,28c0,0.553-0.447,1-1,1
	H7c-0.553,0-1-0.447-1-1v-8c0-0.553,0.447-1,1-1h8c0.553,0,1,0.447,1,1V28z M16,15c0,0.553-0.447,1-1,1H7c-0.553,0-1-0.447-1-1V7
	c0-0.553,0.447-1,1-1h8c0.553,0,1,0.447,1,1V15z M35,38H21c-0.553,0-1-0.447-1-1c0-0.553,0.447-1,1-1h14c0.553,0,1,0.447,1,1
	C36,37.553,35.553,38,35,38z M41,32H21c-0.553,0-1-0.447-1-1c0-0.553,0.447-1,1-1h20c0.553,0,1,0.447,1,1C42,31.553,41.553,32,41,32
	z M41,26H21c-0.553,0-1-0.447-1-1c0-0.553,0.447-1,1-1h20c0.553,0,1,0.447,1,1C42,25.553,41.553,26,41,26z M41,20H21
	c-0.553,0-1-0.447-1-1c0-0.553,0.447-1,1-1h20c0.553,0,1,0.447,1,1C42,19.553,41.553,20,41,20z M41,14H27c-0.553,0-1-0.447-1-1
	c0-0.553,0.447-1,1-1h14c0.553,0,1,0.447,1,1C42,13.553,41.553,14,41,14z"/>
</svg>
