<?xml version="1.0" encoding="utf-8"?>
<!-- Generator: Adobe Illustrator 17.0.0, SVG Export Plug-In . SVG Version: 6.00 Build 0)  -->
<!DOCTYPE svg PUBLIC "-//W3C//DTD SVG 1.1//EN" "http://www.w3.org/Graphics/SVG/1.1/DTD/svg11.dtd">
<svg version="1.1" id="Layer_2" xmlns="http://www.w3.org/2000/svg" xmlns:xlink="http://www.w3.org/1999/xlink" x="0px" y="0px"
	 width="48px" height="48px" viewBox="0 0 48 48" enable-background="new 0 0 48 48" xml:space="preserve">
<path fill="#010101" d="M47,0H1C0.447,0,0,0.447,0,1v46c0,0.553,0.447,1,1,1h46c0.553,0,1-0.447,1-1V1C48,0.447,47.553,0,47,0z
	 M13,10h8c0.553,0,1,0.447,1,1c0,0.553-0.447,1-1,1h-8c-0.553,0-1-0.447-1-1C12,10.447,12.447,10,13,10z M7,16h14
	c0.553,0,1,0.447,1,1c0,0.553-0.447,1-1,1H7c-0.553,0-1-0.447-1-1C6,16.447,6.447,16,7,16z M7,22h14c0.553,0,1,0.447,1,1
	c0,0.553-0.447,1-1,1H7c-0.553,0-1-0.447-1-1C6,22.447,6.447,22,7,22z M31,36H7c-0.553,0-1-0.447-1-1c0-0.553,0.447-1,1-1h24
	c0.553,0,1,0.447,1,1C32,35.553,31.553,36,31,36z M41,30H7c-0.553,0-1-0.447-1-1c0-0.553,0.447-1,1-1h34c0.553,0,1,0.447,1,1
	C42,29.553,41.553,30,41,30z M42,23c0,0.553-0.447,1-1,1H25c-0.553,0-1-0.447-1-1V7c0-0.553,0.447-1,1-1h16c0.553,0,1,0.447,1,1V23z
	"/>
</svg>
