<?xml version="1.0" encoding="utf-8"?>
<!-- Generator: Adobe Illustrator 17.0.0, SVG Export Plug-In . SVG Version: 6.00 Build 0)  -->
<!DOCTYPE svg PUBLIC "-//W3C//DTD SVG 1.1//EN" "http://www.w3.org/Graphics/SVG/1.1/DTD/svg11.dtd">
<svg version="1.1" id="Layer_2" xmlns="http://www.w3.org/2000/svg" xmlns:xlink="http://www.w3.org/1999/xlink" x="0px" y="0px"
	 width="48px" height="48px" viewBox="0 0 48 48" enable-background="new 0 0 48 48" xml:space="preserve">
<g>
	<path fill="#010101" d="M46,44H2c-1.105,0-2,0.896-2,2c0,1.105,0.895,2,2,2h44c1.104,0,2-0.895,2-2C48,44.896,47.104,44,46,44z"/>
	<path fill="#010101" d="M3,4h4v19c0,9.374,7.626,17,17,17s17-7.626,17-17V4h4c1.104,0,2-0.895,2-2c0-1.104-0.896-2-2-2H33
		c-1.105,0-2,0.896-2,2c0,1.105,0.895,2,2,2h4v19c0,7.168-5.832,13-13,13s-13-5.832-13-13V4h4c1.104,0,2-0.895,2-2
		c0-1.104-0.896-2-2-2H3C1.895,0,1,0.896,1,2C1,3.105,1.895,4,3,4z"/>
</g>
</svg>
