<?xml version="1.0" encoding="UTF-8" standalone="no"?>
<svg width="22px" height="22px" viewBox="0 0 22 22" version="1.1" xmlns="http://www.w3.org/2000/svg" xmlns:xlink="http://www.w3.org/1999/xlink">
    <g stroke="none" stroke-width="1" fill-rule="evenodd">
        <g transform="translate(0.000000, 2.000000)">
            <path d="M18.097,8.328 C18.666,7.516 19,6.527 19,5.46 C19,2.698 16.762,0.46 14,0.46 C11.238,0.46 9,2.698 9,5.46 C9,6.599 9.38,7.649 10.021,8.489 C7.714,9.685 6,11.719 6,13.46 L6,16.46 L22,16.46 L22,13.46 C22,11.638 20.592,9.496 18.097,8.328 L18.097,8.328 Z M20,14.46 L8,14.46 L8,13.46 C8,12.76 9.023,11.261 10.942,10.265 L13.056,9.169 L11.611,7.276 C11.212,6.752 11,6.124 11,5.46 C11,3.806 12.346,2.46 14,2.46 C15.654,2.46 17,3.806 17,5.46 C17,6.08 16.812,6.675 16.459,7.181 L15.093,9.13 L17.249,10.14 C19.055,10.985 20,12.45 20,13.46 L20,14.46 L20,14.46 Z"></path>
            <path d="M8,6.46 L5,6.46 L5,3.46 L3,3.46 L3,6.46 L0,6.46 L0,8.46 L3,8.46 L3,11.46 L5,11.46 L5,8.46 L8,8.46 L8,6.46"></path>
        </g>
    </g>
</svg>
