<?xml version="1.0" encoding="UTF-8" standalone="no"?>
<svg width="16px" height="16px" viewBox="0 0 16 16" version="1.1" xmlns="http://www.w3.org/2000/svg" xmlns:xlink="http://www.w3.org/1999/xlink">
    <g stroke="none" stroke-width="1" fill-rule="evenodd">
        <path d="M7.8,16 C8.68,16 9.4,15.28 9.4,14.4 L6.2,14.4 C6.2,15.28 6.92,16 7.8,16 L7.8,16 Z M13,11.2 L13,6.8 C13,4.344 11.296,2.288 9,1.744 L9,1.2 C9,0.536 8.464,0 7.8,0 C7.136,0 6.6,0.536 6.6,1.2 L6.6,1.744 C4.304,2.288 2.6,4.344 2.6,6.8 L2.6,11.2 L1,12.8 L1,13.6 L14.6,13.6 L14.6,12.8 L13,11.2 L13,11.2 Z"></path>
    </g>
</svg>
