<?xml version="1.0" encoding="UTF-8" standalone="no"?>
<svg width="11px" height="10px" viewBox="0 0 11 10" version="1.1" xmlns="http://www.w3.org/2000/svg" xmlns:xlink="http://www.w3.org/1999/xlink" xmlns:sketch="http://www.bohemiancoding.com/sketch/ns" title="Checked">
    <g stroke="none" stroke-width="1" fill-rule="evenodd" sketch:type="MSPage">
        <g sketch:type="MSLayerGroup">
            <path d="M2,4.643 L4.5,7.144 L11,0.643 L10.357,0 L4.5,5.858 L2.643,4 L2,4.643" sketch:type="MSShapeGroup"></path>
            <path d="M9,4.058 L9,8 C9,8.551 8.551,9 8,9 L2,9 C1.449,9 1,8.551 1,8 L1,2 C1,1.449 1.448,1 2,1 L7.943,1 L8.783,0.16 C8.542,0.057 8.278,0 8,0 L2,0 C0.895,0 0,0.895 0,2 L0,8 C0,9.105 0.895,10 2,10 L8,10 C9.105,10 10,9.105 10,8 L10,3.057 L9,4.058" sketch:type="MSShapeGroup"></path>
        </g>
    </g>
</svg>
