<?xml version="1.0" encoding="UTF-8" standalone="no"?>
<svg width="14px" height="13px" viewBox="0 0 14 13" version="1.1" xmlns="http://www.w3.org/2000/svg" xmlns:xlink="http://www.w3.org/1999/xlink">
    <g stroke="none" stroke-width="1" fill-rule="evenodd">
        <g transform="translate(0.500000, 0.000000)">
            <path d="M6.5,0 C2.91,0 0,2.91 0,6.5 C0,10.09 2.91,13 6.5,13 C10.09,13 13,10.09 13,6.5 C13,2.91 10.09,0 6.5,0 Z M6.5,11.999 C3.468,11.999 1.001,9.532 1.001,6.5 C1.001,3.468 3.468,1.001 6.5,1.001 C9.532,1.001 12,3.468 12,6.5 C12,9.532 9.532,11.999 6.5,11.999 Z"></path>
            <path d="M7,4 L6,4 L6,7.69230769 L9,7.69230769 L9,6.76923077 L7,6.76923077 L7,4"></path>
        </g>
    </g>
</svg>
