<?xml version="1.0" encoding="UTF-8" standalone="no"?>
<svg version="1.1" xmlns="http://www.w3.org/2000/svg" xmlns:xlink="http://www.w3.org/1999/xlink" x="0px" y="0px"
	 width="10px" height="8px" viewBox="0 0 10 8" enable-background="new 0 0 10 8" xml:space="preserve" title="Cross">
<path d="M6.75,4.59c0,0-0.234-0.277-0.234-0.589S6.75,3.438,6.75,3.438l2.234-2.363V0H7.802L5.654,2.25
	c0,0-0.28,0.328-0.654,0.328S4.332,2.25,4.332,2.25L2.198,0H1.016v1.102L3.25,3.525c0,0,0.234,0.194,0.234,0.475
	S3.25,4.504,3.25,4.504L1.016,6.906V8h1.183l2.113-2.25c0,0,0.36-0.375,0.688-0.375S5.713,5.75,5.713,5.75L7.802,8h1.183V6.936
	L6.75,4.59z"/>
</svg>
