<?xml version="1.0" encoding="iso-8859-1"?>
<!DOCTYPE svg PUBLIC "-//W3C//DTD SVG 1.1//EN" "http://www.w3.org/Graphics/SVG/1.1/DTD/svg11.dtd">
<svg version="1.1" xmlns="http://www.w3.org/2000/svg" xmlns:xlink="http://www.w3.org/1999/xlink" x="0px" y="0px"
	 viewBox="0 0 19.988 15.705" style="enable-background:new 0 0 19.988 15.705;" xml:space="preserve" title="Email icon">
<path d="M19.988,13.92c0,0.981-0.803,1.785-1.785,1.785H1.785C0.803,15.705,0,14.902,0,13.92V1.785
	C0,0.803,0.803,0,1.785,0h16.419c0.981,0,1.785,0.803,1.785,1.785V13.92z M18.204,1.428H1.785c-0.189,0-0.357,0.167-0.357,0.357
	c0,1.271,0.636,2.376,1.64,3.168C4.562,6.123,6.057,7.306,7.54,8.488c0.591,0.479,1.662,1.506,2.443,1.506h0.011h0.011
	c0.781,0,1.852-1.026,2.443-1.506c1.483-1.182,2.978-2.365,4.473-3.536c0.725-0.569,1.64-1.807,1.64-2.755
	C18.561,1.918,18.627,1.428,18.204,1.428z M18.561,5.354c-0.234,0.268-0.491,0.513-0.77,0.736c-1.595,1.227-3.201,2.476-4.752,3.77
	c-0.836,0.703-1.873,1.562-3.034,1.562H9.994H9.983c-1.16,0-2.197-0.859-3.034-1.562C5.398,8.566,3.793,7.317,2.197,6.09
	c-0.279-0.223-0.535-0.469-0.77-0.736v8.566c0,0.19,0.167,0.357,0.357,0.357h16.419c0.189,0,0.357-0.167,0.357-0.357V5.354z"/>
</svg>
