<?xml version="1.0" encoding="UTF-8" standalone="no"?>
<svg width="13px" height="9px" viewBox="0 0 13 9" version="1.1" xmlns="http://www.w3.org/2000/svg" xmlns:xlink="http://www.w3.org/1999/xlink" xmlns:sketch="http://www.bohemiancoding.com/sketch/ns">
    <title>Folder</title>
    <desc>Folder icon</desc>
    <defs></defs>
    <g id="Page-1" stroke="none" stroke-width="1" fill-rule="evenodd" sketch:type="MSPage">
        <g id="Fill-6-+-Fill-7-+-Fill-9" sketch:type="MSLayerGroup" transform="translate(-1.000000, 0.000000)" fill="#000000">
            <path d="M13.327,4 L4.586,4 C4.05,4 3.452,4.28 3.251,4.625 C2.377,6.125 1.94,6.875 1.066,8.375 C0.865,8.72 1.137,9 1.673,9 L10.413,9 C10.95,9 11.547,8.72 11.749,8.375 C12.622,6.875 13.06,6.125 13.934,4.625 C14.135,4.28 13.863,4 13.327,4 L13.327,4 Z M12.008,5.985 L10.934,7.83 C10.86,7.893 10.632,8 10.413,8 L2.417,8 L4.066,5.17 C4.14,5.107 4.368,5 4.586,5 L12.583,5 L12.008,5.985 L12.008,5.985 Z" id="Fill-7" sketch:type="MSShapeGroup"></path>
            <path d="M2,5.39 L2,2 L3,2 L3,1 L5,1 L5,2 L11,2 L11,3 L12,3 L12,2 C12,1.448 11.552,1 11,1 L6,1 C6,0.448 5.552,0 5,0 L3,0 C2.448,0 2,0.448 2,1 C1.448,1 1,1.448 1,2 L1,7.056 L2,5.39" id="Fill-8" sketch:type="MSShapeGroup"></path>
        </g>
    </g>
</svg>
