<?xml version="1.0" encoding="UTF-8" standalone="no"?>
<svg width="12px" height="12px" viewBox="0 0 12 12" version="1.1" xmlns="http://www.w3.org/2000/svg" xmlns:xlink="http://www.w3.org/1999/xlink" xmlns:sketch="http://www.bohemiancoding.com/sketch/ns" title="Gear">
    <g stroke="none" stroke-width="1" fill-rule="evenodd" sketch:type="MSPage">
        <g sketch:type="MSLayerGroup">
            <path d="M12,6.88331986 C12,6.99973053 11.9062247,7.14093236 11.7811911,7.16464565 L10.3357586,7.38345459 C10.2506063,7.63244409 10.1557532,7.86742118 10.0317974,8.09377526 C10.296955,8.47642145 10.5782808,8.82026408 10.8671517,9.17165185 C10.9135004,9.22662355 10.9447588,9.29668553 10.9447588,9.36782538 C10.9447588,9.43896524 10.9221234,9.49285907 10.8746968,9.54783077 C10.6871463,9.79682026 9.63298302,10.9458367 9.36782538,10.9458367 C9.29776341,10.9458367 9.22662355,10.9145783 9.16518459,10.8757747 L8.087308,10.0328752 C7.85879817,10.148208 7.61627594,10.2506063 7.37483158,10.3282134 C7.31985988,10.803557 7.27351118,11.3123147 7.1484775,11.7811911 C7.11721908,11.9062247 7.00727567,12 6.86715171,12 L5.13284829,12 C4.99272433,12 4.86769065,11.8986796 4.8515225,11.7650229 L4.63271355,10.3282134 C4.39019132,10.2506063 4.15521423,10.1557532 3.92886015,10.0393425 L2.82834815,10.8746968 C2.77337645,10.9221234 2.70331447,10.9447588 2.63217462,10.9447588 C2.56211264,10.9447588 2.49205066,10.9135004 2.43707895,10.8585287 C2.02317435,10.4834276 1.47561304,9.99946106 1.14793856,9.5467529 C1.109135,9.49285907 1.09404473,9.42926435 1.09404473,9.36674751 C1.09404473,9.29668553 1.11775802,9.24171382 1.15656157,9.18674212 C1.42171921,8.82780922 1.71166801,8.48396659 1.97682565,8.11641067 C1.84424683,7.86742118 1.73430342,7.60980868 1.65669631,7.34357316 L0.226354082,7.13230935 C0.0937752627,7.10967394 0,6.98356238 0,6.85098356 L0,5.11668014 C0,5.00026947 0.0937752627,4.85906764 0.210185934,4.83535435 L1.66424144,4.61654541 C1.74184856,4.36755591 1.84424683,4.13257882 1.96820264,3.8986796 C1.703045,3.52357855 1.42171921,3.17111291 1.13284829,2.81972514 C1.0864996,2.76475344 1.05524117,2.70331447 1.05524117,2.63217462 C1.05524117,2.56103476 1.0864996,2.50714093 1.12638103,2.45216923 C1.31393155,2.1956346 2.36809485,1.0541633 2.63325249,1.0541633 C2.70331447,1.0541633 2.77445432,1.08542172 2.83589329,1.13177041 L3.91376987,1.96712476 C4.14120183,1.85071409 4.38372406,1.74831582 4.62516842,1.6707087 C4.68014012,1.19536513 4.72648882,0.686607383 4.8515225,0.21773107 C4.88278092,0.0937752627 4.99272433,0 5.13284829,0 L6.86715171,0 C7.00727567,0 7.13230935,0.101320399 7.1484775,0.234977095 L7.36728645,1.67178658 C7.60980868,1.74939369 7.8437079,1.84424683 8.07006198,1.96173538 L9.17919698,1.12638103 C9.22662355,1.07787658 9.29668553,1.05524117 9.36674751,1.05524117 C9.43788736,1.05524117 9.50687146,1.0864996 9.56184317,1.13284829 C9.97682565,1.51549448 10.5233091,2.00053894 10.8509836,2.46079224 C10.8897871,2.50714093 10.9059553,2.57073565 10.9059553,2.63217462 C10.9059553,2.70223659 10.882242,2.7572083 10.8434384,2.81218001 C10.5782808,3.17111291 10.2894099,3.51603341 10.0231743,3.88251145 C10.1557532,4.13257882 10.2656966,4.39019132 10.3443816,4.64780383 L11.7736459,4.86661277 C11.9062247,4.88924818 12,5.01535974 12,5.14793856 L12,6.88331986 L12,6.88331986 Z M5.99946106,4 C4.89787119,4 4,4.89894907 4,5.99946106 C4,7.09997305 4.89894907,7.99892212 5.99946106,7.99892212 C7.09997305,7.99892212 7.99892212,7.09997305 7.99892212,5.99946106 C7.99892212,4.89894907 7.10105093,4 5.99946106,4 L5.99946106,4 Z" sketch:type="MSShapeGroup"></path>
        </g>
    </g>
</svg>
