<?xml version="1.0" encoding="UTF-8" standalone="no"?>
<svg width="18px" height="18px" viewBox="0 0 18 18" version="1.1" xmlns="http://www.w3.org/2000/svg" xmlns:xlink="http://www.w3.org/1999/xlink">
    <g stroke="none" stroke-width="1" fill-rule="evenodd">
        <path d="M2,2 L2,2 C2.0045695,2 2,2.0045695 2,2 L2,16 C2,15.9954305 2.0045695,16 2,16 L16,16 C15.9954305,16 16,15.9954305 16,16 L16,2 C16,2.0045695 15.9954305,2 16,2 L2,2 L2,2 Z M2,0 L2,0 L16,0 C17.1,0 18,0.9 18,2 L18,16 C18,17.1 17.1,18 16,18 L2,18 C0.9,18 0,17.1 0,16 L0,2 C0,0.9 0.9,0 2,0 L2,0 L2,0 Z"></path>
        <path d="M6,14 L4,14 L4,7 L6,7 L6,14 Z M10,14 L8,14 L8,4 L10,4 L10,14 Z M14,14 L12,14 L12,10 L14,10 L14,14 Z"></path>
    </g>
</svg>
