<?xml version="1.0" encoding="UTF-8" standalone="no"?>
<svg width="20px" height="20px" viewBox="0 0 20 20" version="1.1" xmlns="http://www.w3.org/2000/svg" xmlns:xlink="http://www.w3.org/1999/xlink">
    <g stroke="none" stroke-width="1" fill-rule="evenodd">
        <path d="M10,0 C4.53333333,0 0,4.53333333 0,10 C0,15.4666667 4.53333333,20 10,20 C15.4666667,20 20,15.4666667 20,10 C20,4.53333333 15.4666667,0 10,0 L10,0 Z M8.53337716,12.1418727 L8.53337716,11.5703302 C8.53337716,10.9154345 8.65244732,10.3706886 8.89059121,9.93607598 C9.1287351,9.50146338 9.54548066,9.05197353 10.1408404,8.58759295 C10.8493184,8.02795481 11.3062502,7.59334873 11.5116493,7.28376167 C11.7170484,6.97417462 11.8197464,6.60505712 11.8197464,6.17639812 C11.8197464,5.67629596 11.6530482,5.2922947 11.3196467,5.02438282 C10.9862453,4.75647094 10.5069879,4.62251702 9.88186019,4.62251702 C9.31626846,4.62251702 8.79235976,4.70288937 8.31011838,4.8636365 C7.82787701,5.02438362 7.35754988,5.21787263 6.89912289,5.44410933 L6.14897339,3.87236752 C7.35755363,3.19961103 8.65244161,2.86323783 10.0336762,2.86323783 C11.2005812,2.86323783 12.1263517,3.14900621 12.8110154,3.72055155 C13.4956791,4.29209688 13.8380058,5.08093668 13.8380058,6.08709461 C13.8380058,6.5336144 13.7725172,6.93101106 13.641538,7.2792965 C13.5105589,7.62758193 13.3126048,7.95949 13.0476697,8.27503065 C12.7827346,8.59057131 12.3258029,9.00136335 11.6768608,9.50741912 C11.1231762,9.94203172 10.7525704,10.3022189 10.5650321,10.5879916 C10.3774937,10.8737643 10.283726,11.2577655 10.283726,11.7400069 L10.283726,12.1418727 L8.53337716,12.1418727 L8.53337716,12.1418727 Z M8.16723276,14.9906548 C8.16723276,14.0916616 8.6048156,13.6421717 9.47999439,13.6421717 C9.90865339,13.6421717 10.2360963,13.7597535 10.462333,13.9949206 C10.6885697,14.2300877 10.8016864,14.5619958 10.8016864,14.9906548 C10.8016864,15.4133602 10.6870813,15.748245 10.4578678,15.9953193 C10.2286544,16.2423935 9.90269979,16.3659288 9.47999439,16.3659288 C9.05728899,16.3659288 8.7328228,16.2453703 8.50658611,16.0042496 C8.28034941,15.7631289 8.16723276,15.4252673 8.16723276,14.9906548 L8.16723276,14.9906548 Z"></path>
    </g>
</svg>
