<?xml version="1.0" encoding="UTF-8" standalone="no"?>
<svg width="16px" height="16px" viewBox="0 0 16 16" version="1.1" xmlns="http://www.w3.org/2000/svg" xmlns:xlink="http://www.w3.org/1999/xlink">
    <g stroke="none" stroke-width="none" fill-rule="evenodd">
          <path d="M8,0 C3.9,0 0.5,3.4 0.5,7.5 C0.5,11.6 3.9,15 8,15 C12.1,15 15.5,11.6 15.5,7.5 C15.5,3.4 12.1,0 8,0 L8,0 Z M8,14 C4.4,14 1.5,11.1 1.5,7.5 C1.5,3.9 4.4,1 8,1 C11.6,1 14.5,3.9 14.5,7.5 C14.5,11.1 11.6,14 8,14 L8,14 Z"></path>
          <path d="M7.4,10.5 C6.9,10.5 6.6,10.8 6.6,11.4 C6.6,11.7 6.7,11.9 6.8,12.1 C6.9,12.2 7.1,12.3 7.3,12.3 C7.5,12.3 7.7,12.2 7.9,12.1 C8,11.9 8.1,11.7 8.1,11.5 C8.1,11.2 8,11 7.9,10.9 C7.8,10.6 7.7,10.5 7.4,10.5 L7.4,10.5 Z"></path>
          <path d="M7.8,2.7 C6.9,2.7 6.1,2.9 5.3,3.3 L5.7,4.2 C6.1,4 6.5,3.8 6.8,3.8 C7.1,3.7 7.4,3.7 7.8,3.7 C8.3,3.7 8.7,3.8 9,4.1 C9.3,4.3 9.4,4.7 9.4,5.1 C9.4,5.4 9.3,5.7 9.2,6 C9.1,6.3 8.7,6.6 8.1,7.1 C7.7,7.5 7.4,7.8 7.2,8.1 C7,8.4 7,8.8 7,9.3 L7,9.6 L7.8,9.6 L7.8,9.4 C7.8,9 7.9,8.7 8,8.4 C8.1,8.2 8.4,7.9 8.8,7.5 C9.3,7 9.7,6.7 9.8,6.5 C10,6.3 10.1,6.1 10.2,5.8 C10.3,5.6 10.3,5.3 10.3,5 C10.3,4.3 10.1,3.7 9.6,3.3 C9.1,2.9 8.6,2.7 7.8,2.7 L7.8,2.7 Z"></path>
    </g>
</svg>
