<?xml version="1.0" encoding="UTF-8" standalone="no"?>
<svg width="17px" height="17px" viewBox="0 0 17 17" version="1.1" xmlns="http://www.w3.org/2000/svg" xmlns:xlink="http://www.w3.org/1999/xlink">
    <g stroke="none" stroke-width="1" fill-rule="evenodd">
        <g transform="translate(0.500000, 3.500000)">
            <path d="M9,8 L12.4962809,8 C13.3267205,8 14,7.32810779 14,6.50248528 L14,3.49751472 C14,2.66933544 13.3290279,2 12.4962809,2 L9,2 L9,0 L12.4962809,0 C14.4313315,0 16,1.5625 16,3.49751472 L16,6.50248528 C16,8.43410932 14.429859,10 12.4962809,10 L9,10 L9,8 L9,8 Z"></path>
            <path d="M7,8 L3.50371907,8 C2.67327949,8 2,7.32810779 2,6.50248528 L2,3.49751472 C2,2.66933544 2.67097211,2 3.50371907,2 L7,2 L7,0 L3.50371907,0 C1.56866846,0 0,1.5625 0,3.49751472 L0,6.50248528 C0,8.43410932 1.57014096,10 3.50371907,10 L7,10 L7,8 L7,8 Z"></path>
            <rect x="4" y="4" width="8" height="2" rx="2"></rect>
        </g>
    </g>
</svg>
