<?xml version="1.0" encoding="UTF-8" standalone="no"?>
<svg width="110px" height="20px" viewBox="0 0 110 20" version="1.1" xmlns="http://www.w3.org/2000/svg" xmlns:xlink="http://www.w3.org/1999/xlink" xmlns:sketch="http://www.bohemiancoding.com/sketch/ns" title="Woorank Logo">
    <g stroke="none" stroke-width="1" fill="none" fill-rule="evenodd" sketch:type="MSPage">
        <g sketch:type="MSLayerGroup">
            <g transform="translate(23.826715, 0.000000)" fill="#000000" sketch:type="MSShapeGroup">
                <path d="M28.2345908,12.3396584 C28.2345908,15.9709045 25.4104259,18.7166351 21.6102203,18.7166351 C17.8106564,18.7166351 14.9993256,15.9709045 14.9993256,12.3396584 C14.9993256,8.70841239 17.8106564,5.96268184 21.6102203,5.96268184 C25.4104259,5.96268184 28.2345908,8.70841239 28.2345908,12.3396584 L28.2345908,12.3396584 L28.2345908,12.3396584 Z M17.7593196,12.3396584 C17.7593196,14.629981 19.4149309,16.2239089 21.6102203,16.2239089 C23.8055096,16.2239089 25.4745969,14.629981 25.4745969,12.3396584 C25.4745969,10.0493359 23.8055096,8.45477545 21.6102203,8.45477545 C19.4149309,8.45477545 17.7593196,10.0493359 17.7593196,12.3396584 L17.7593196,12.3396584 L17.7593196,12.3396584 Z"></path>
                <path d="M40.0324263,12.3396584 C40.0324263,15.9709045 37.2082611,18.7166351 33.4080555,18.7166351 C29.6084916,18.7166351 26.7971608,15.9709045 26.7971608,12.3396584 C26.7971608,8.70841239 29.6084916,5.96268184 33.4080555,5.96268184 C37.2082611,5.96268184 40.0324263,8.70841239 40.0324263,12.3396584 L40.0324263,12.3396584 L40.0324263,12.3396584 Z M29.5571548,12.3396584 C29.5571548,14.629981 31.2134079,16.2239089 33.4080555,16.2239089 C35.6033449,16.2239089 37.2724321,14.629981 37.2724321,12.3396584 C37.2724321,10.0493359 35.6033449,8.45477545 33.4080555,8.45477545 C31.2134079,8.45477545 29.5571548,10.0493359 29.5571548,12.3396584 L29.5571548,12.3396584 L29.5571548,12.3396584 Z"></path>
                <path d="M47.6925987,8.60241843 C47.3204441,8.52154482 46.9334995,8.48007588 46.5917696,8.48007588 C44.8841796,8.48007588 43.6392627,10.1960784 43.6649309,12.9089184 L43.6649309,18.4003795 L40.9819423,18.4003795 L40.9819423,6.27893737 L43.6392627,6.27893737 L43.6392627,7.25300443 C44.3573936,6.30423784 45.4883135,5.96268184 47.2084526,5.96268184 C48.114801,5.96268184 48.9074729,6.12728106 49.5347977,6.3850482 C48.7838662,6.98449051 48.1574131,7.73594082 47.6925987,8.60241843 L47.6925987,8.60241843 L47.6925987,8.60241843 Z"></path>
                <path d="M57.9446408,18.4003795 L57.9446408,17.3371284 C57.3416097,18.0651156 55.8263565,18.7166351 54.0802642,18.7166351 C50.6400579,18.7166351 47.9314008,16.0468058 47.9314008,12.3396584 C47.9314008,8.63251106 50.6400579,5.96268184 54.0802642,5.96268184 C55.8263565,5.96268184 57.3869345,6.68323878 57.9446408,7.3542062 L57.9446408,6.27893737 L60.6269881,6.27893737 L60.6269881,18.4003795 L57.9446408,18.4003795 L57.9446408,18.4003795 Z M54.4011191,16.2239089 C56.6220771,16.2239089 58.1108437,14.5540797 58.1108437,12.3396584 C58.1108437,10.1252372 56.6220771,8.45477545 54.4011191,8.45477545 C52.0909638,8.45477545 50.6913945,10.2137887 50.6913945,12.3396584 C50.6913945,14.4648956 52.0909638,16.2239089 54.4011191,16.2239089 L54.4011191,16.2239089 L54.4011191,16.2239089 Z"></path>
                <path d="M73.6652654,10.7830487 L73.6652654,18.4003795 L70.9694426,18.4003795 L70.9694426,11.6565465 C70.9694426,9.61922835 69.9035625,8.48007588 68.1067752,8.48007588 C66.3735167,8.48007588 64.9232525,9.60594561 64.9232525,11.6818469 L64.9232525,18.4003795 L62.2274297,18.4003795 L62.2274297,6.27893737 L64.897584,6.27893737 L64.897584,7.7596458 C65.8858172,6.32953827 67.4137283,5.96268184 68.6714799,5.96268184 C71.5983182,5.96268184 73.6652654,7.94876659 73.6652654,10.7830487"></path>
                <path d="M78.630729,10.8627502 L82.6876183,6.27893765 L86.0636537,6.27893765 L80.9158574,11.98482 C80.9158574,11.98482 81.0432164,12.1419766 81.1068957,12.2205549 C82.7762608,14.2804965 86.1149908,18.4003798 86.1149908,18.4003798 L82.7126451,18.4003798 L78.6178947,13.3333336 L77.9485185,13.3333333 L77.9485185,18.4003795 L75.2526953,18.4003795 L75.2526953,2.83744465 L77.9485185,0.180265655 L77.9485185,10.8627499 L78.630729,10.8627502 L78.630729,10.8627502 Z"></path>
                <path d="M16.9302305,12.4440228 C16.9302305,10.7305503 17.8786776,9.23845667 19.2840221,8.4408602 L20.3511856,6.30234027 L15.595474,9.59203035 L13.8128041,13.4421253 L10.287892,5.22454141 L6.7360281,13.4440228 L3.42929734,6.30234027 L0.197004918,6.30234027 L6.75784623,19.4522454 L10.2859669,11.5667299 L13.7890608,19.4541429 L16.9770753,13.0645161 C16.9494818,12.8608476 16.9302305,12.6546489 16.9302305,12.4440228"></path>
            </g>
            <path d="M7.94223827,20 C14.484657,20 19.8555957,12.1568627 19.8555957,12.1568627 C19.8555957,12.1568627 14.484657,4.31372549 7.94223827,4.31372549 C3.66236462,4.31372549 0,7.93039216 0,12.1568627 C0,16.3833333 3.66236462,20 7.94223827,20 L7.94223827,20 L7.94223827,20 Z" fill="#428BCA" sketch:type="MSShapeGroup"></path>
            <path d="M6.84312502,14.810889 L7.54512635,15.5041309 L8.24712769,14.810889 L12.2182468,10.8893204 C12.6059514,10.5064534 12.6059514,9.88570345 12.2182468,9.50283647 C11.8305422,9.11996953 11.2019488,9.11996953 10.8142442,9.50283647 L7.56023702,12.7460853 L6.26156812,11.4636208 C5.87386347,11.0807538 5.2452701,11.0807538 4.85756545,11.4636208 C4.46986084,11.8464878 4.46986084,12.4672377 4.85756545,12.8501047 L6.84312502,14.810889 L6.84312502,14.810889 Z" fill="#FFFFFF" sketch:type="MSShapeGroup"></path>
        </g>
    </g>
</svg>
