<?xml version="1.0" encoding="UTF-8" standalone="no"?>
<svg width="20px" height="16px" viewBox="0 0 20 16" version="1.1" xmlns="http://www.w3.org/2000/svg" xmlns:xlink="http://www.w3.org/1999/xlink" xmlns:sketch="http://www.bohemiancoding.com/sketch/ns">
    <title>logo-glyph</title>
    <desc>Woorank Logo Glyph</desc>
    <defs></defs>
    <g id="Page-1" stroke="none" stroke-width="1" fill="none" fill-rule="evenodd" sketch:type="MSPage">
        <path d="M7.94223827,15.6862745 C14.484657,15.6862745 19.8555957,7.84313721 19.8555957,7.84313721 C19.8555957,7.84313721 14.484657,8.8817842e-16 7.94223827,8.8817842e-16 C3.66236462,8.8817842e-16 0,3.61666667 0,7.84313721 C0,12.0696078 3.66236462,15.6862745 7.94223827,15.6862745 L7.94223827,15.6862745 L7.94223827,15.6862745 Z" id="Path" fill="#428BCA" sketch:type="MSShapeGroup"></path>
        <path d="M7.27633803,10.5952027 L7.97833936,11.2884446 L8.6803407,10.5952027 L12.6514598,6.67363414 C13.0391644,6.29076714 13.0391644,5.67001719 12.6514598,5.28715021 C12.2637552,4.90428327 11.6351618,4.90428327 11.2474572,5.28715021 L7.99345003,8.53039904 L6.69478113,7.24793454 C6.30707648,6.86506754 5.67848311,6.86506754 5.29077846,7.24793454 C4.90307385,7.63080154 4.90307385,8.25155144 5.29077846,8.63441844 L7.27633803,10.5952027 L7.27633803,10.5952027 Z" id="Path-path" fill="#FFFFFF" sketch:type="MSShapeGroup"></path>
    </g>
</svg>
