<?xml version="1.0" encoding="UTF-8" standalone="no"?>
<svg width="9px" height="13px" viewBox="0 0 9 13" version="1.1" xmlns="http://www.w3.org/2000/svg" xmlns:xlink="http://www.w3.org/1999/xlink" xmlns:sketch="http://www.bohemiancoding.com/sketch/ns">
    <title>Mobile</title>
    <desc>Simplified smartphone</desc>
    <defs></defs>
    <g id="Page-1" stroke="none" stroke-width="1" fill-rule="evenodd" sketch:type="MSPage">
        <path d="M7,0 L2,0 C0.895,0 0,0.895 0,2 L0,11 C0,12.105 0.895,13 2,13 L7,13 C8.105,13 9,12.105 9,11 L9,2 C9,0.895 8.105,0 7,0 L7,0 Z M2,1 L7,1 C7.551,1 8,1.449 8,2 L1,2 C1,1.449 1.449,1 2,1 L2,1 Z M7,12 L2,12 C1.449,12 1,11.551 1,11 L8,11 C8,11.551 7.551,12 7,12 L7,12 Z M1,3 L8,3 L8,10 L1,10 L1,3 Z" id="Fill-9" sketch:type="MSShapeGroup"></path>
    </g>
</svg>
