<?xml version="1.0" encoding="UTF-8" standalone="no"?>
<svg width="16px" height="16px" viewBox="0 0 16 16" version="1.1" xmlns="http://www.w3.org/2000/svg" xmlns:xlink="http://www.w3.org/1999/xlink">
    <g stroke="none" stroke-width="1" fill-rule="evenodd">
        <path d="M13.3,2.2 C10.4,-0.7 5.6,-0.7 2.7,2.2 C-0.2,5.1 -0.2,9.9 2.7,12.8 C5.6,15.7 10.4,15.7 13.3,12.8 C16.2,9.8 16.2,5.1 13.3,2.2 L13.3,2.2 Z M12.6,2.9 C15,5.3 15.1,9.2 12.9,11.7 L3.7,2.5 C6.3,0.3 10.2,0.4 12.6,2.9 L12.6,2.9 Z M3.4,12.1 C1,9.7 0.9,5.8 3.1,3.3 L12.3,12.5 C9.7,14.6 5.8,14.5 3.4,12.1 L3.4,12.1 Z"></path>
    </g>
</svg>
