<?xml version="1.0" encoding="UTF-8" standalone="no"?>
<svg width="15px" height="15px" viewBox="0 0 15 15" version="1.1" xmlns="http://www.w3.org/2000/svg" xmlns:xlink="http://www.w3.org/1999/xlink" title="reload">
    <g stroke="none" stroke-width="1" fill-rule="evenodd">
        <path d="M13.9285714,7.5 C13.2755357,7.5 12.9658929,7.96017857 12.8571429,8.44607143 C12.4655357,10.1946429 10.80375,12.8571429 7.5,12.8571429 C4.54125,12.8571429 2.14285714,10.4582143 2.14285714,7.5 C2.14285714,4.54178571 4.54125,2.14285714 7.5,2.14285714 C8.7,2.14285714 9.80089286,2.54625 10.6928571,3.21428571 L9.64285714,3.21428571 C9.05142857,3.21428571 8.57142857,3.69428571 8.57142857,4.28571429 C8.57142857,4.87714286 9.05142857,5.35714286 9.64285714,5.35714286 L12.8571429,5.35714286 C13.4485714,5.35714286 13.9285714,4.87714286 13.9285714,4.28571429 L13.9285714,1.07142857 C13.9285714,0.48 13.4485714,0 12.8571429,0 C12.2657143,0 11.7857143,0.48 11.7857143,1.07142857 L11.7857143,1.34892857 C10.57125,0.499285714 9.09482143,0 7.5,0 C3.35785714,0 0,3.35785714 0,7.5 C0,11.6421429 3.35785714,15 7.5,15 C12.8458929,15 15,9.91071429 15,8.63839286 C15,7.86 14.4310714,7.5 13.9285714,7.5 L13.9285714,7.5 Z"></path>
    </g>
</svg>
