<?xml version="1.0" encoding="UTF-8" standalone="no"?>
<svg width="13px" height="13px" viewBox="0 0 13 13" version="1.1" xmlns="http://www.w3.org/2000/svg" xmlns:xlink="http://www.w3.org/1999/xlink">
    <g stroke="none" stroke-width="1" fill-rule="evenodd">
        <path d="M8.85963674,9.97405389 C7.93467198,10.6659572 6.78614445,11.0757538 5.54183537,11.0757538 C2.48116421,11.0757538 0,8.59636188 0,5.53787692 C0,2.47939195 2.48116421,0 5.54183537,0 C8.60250653,0 11.0836707,2.47939195 11.0836707,5.53787692 C11.0836707,6.60208282 10.7832747,7.59617759 10.2625934,8.44010782 L12.693169,10.8706834 C13.0999517,11.2774662 13.1038173,11.9331256 12.6954886,12.3414544 C12.2899869,12.746956 11.627398,12.7418152 11.2247177,12.3391348 L8.85963674,9.97405389 Z M5.53787692,8.99904999 C7.44943002,8.99904999 8.99904999,7.44943002 8.99904999,5.53787692 C8.99904999,3.62632381 7.44943002,2.07670384 5.53787692,2.07670384 C3.62632381,2.07670384 2.07670384,3.62632381 2.07670384,5.53787692 C2.07670384,7.44943002 3.62632381,8.99904999 5.53787692,8.99904999 Z"></path>
    </g>
</svg>
