<?xml version="1.0" encoding="UTF-8" standalone="no"?>
<svg width="13px" height="13px" viewBox="0 0 13 13" version="1.1" xmlns="http://www.w3.org/2000/svg" xmlns:xlink="http://www.w3.org/1999/xlink" xmlns:sketch="http://www.bohemiancoding.com/sketch/ns">
    <title>Search</title>
    <desc>Looking glass</desc>
    <defs></defs>
    <g id="Page-1" stroke="none" stroke-width="1" fill-rule="evenodd" sketch:type="MSPage">
        <path d="M13,12 L9.853,8.853 C10.569,7.924 11,6.764 11,5.5 C11,2.462 8.538,0 5.5,0 C2.462,0 0,2.462 0,5.5 C0,8.538 2.462,11 5.5,11 C6.764,11 7.924,10.569 8.853,9.853 L12,13 L13,12 L13,12 Z M1.001,5.5 C1.001,3.019 3.019,1.001 5.5,1.001 C7.981,1.001 9.999,3.019 9.999,5.5 C9.999,7.981 7.981,9.999 5.5,9.999 C3.019,9.999 1.001,7.981 1.001,5.5 L1.001,5.5 Z" id="Fill-8" sketch:type="MSShapeGroup"></path>
    </g>
</svg>
