<?xml version="1.0" encoding="UTF-8" standalone="no"?>
<svg width="11px" height="11px" viewBox="0 0 11 11" version="1.1" xmlns="http://www.w3.org/2000/svg" xmlns:xlink="http://www.w3.org/1999/xlink" xmlns:sketch="http://www.bohemiancoding.com/sketch/ns">
    <title>Social</title>
    <desc>hand with pointing finger</desc>
    <defs></defs>
    <g id="Page-1" stroke="none" stroke-width="1" fill-rule="evenodd" sketch:type="MSPage">
        <path d="M8.748,3.244 L8.684,3.244 C9.309,1.551 8.947,0.943 8.808,0.709 C8.54,0.258 8.063,0 7.5,0 C6.878,0 6.678,0.325 5.935,1.532 C5.547,2.163 4.679,3.574 4.25,4 L0,4 L0,10 L1.885,10 C4.033,10 4.963,10.308 5.783,10.58 C6.405,10.786 7.048,11 8,11 C10.441,11 11,5.787 11,5 C11,4.707 10.891,3.244 8.748,3.244 L8.748,3.244 Z M1,9 L1,5 L2,5 L2,9.002 C1.96,9.002 1.926,9 1.885,9 L1,9 L1,9 Z M8,10 C6.281,10 5.877,9.201 3,9.033 L3,5 L4.496,5 C5.224,4.991 7.313,1 7.5,1 C8.75,1 7.504,3.571 7,4.5 C7,4.5 7.925,4.244 8.748,4.244 C9.407,4.244 10,4.408 10,5 C10,6.422 9.185,10 8,10 L8,10 Z" id="Fill-13" sketch:type="MSShapeGroup"></path>
    </g>
</svg>
