<?xml version="1.0" encoding="UTF-8" standalone="no"?>
<svg width="16px" height="16px" viewBox="0 0 16 16" version="1.1" xmlns="http://www.w3.org/2000/svg" xmlns:xlink="http://www.w3.org/1999/xlink">
    <g stroke="none" stroke-width="1" fill-rule="evenodd">
        <path d="M2.62408813,7.63779671 L2.62408813,7.63779671 L2.62408813,7.63779671 L8.65163316,13.6653417 C8.64378298,13.6574916 8.64863216,13.6574914 8.6459815,13.660142 L13.6245971,8.68152638 C13.6275264,8.67859709 13.6275195,8.68490073 13.6297969,8.68717804 L7.60225182,2.65963301 C7.26826165,2.32564283 6.40071106,1.9667092 5.91711347,1.96641792 L1.93178,1.96401752 C1.93159982,1.96401741 1.92847253,1.96713966 1.92847264,1.96732488 L1.93087304,5.95265835 C1.93116538,6.43802295 2.2867492,7.30045778 2.62408813,7.63779671 L2.62408813,7.63779671 Z M1.43317144,8.82871339 C0.778442847,8.1739848 0.247222465,6.88283662 0.246662821,5.95367277 L0.244262418,1.9683393 C0.243700395,1.0352268 1.00363056,0.279247656 1.93279442,0.2798073 L5.91812789,0.282207703 C6.85124038,0.282769725 8.14581921,0.821367028 8.79316851,1.46871632 L14.8207135,7.49626136 C15.4754421,8.15098996 15.4768917,9.21106519 14.8155138,9.87244306 L9.83689818,14.8510587 C9.17929786,15.508659 8.10806577,15.5036077 7.46071648,14.8562584 L1.43317144,8.82871339 L1.43317144,8.82871339 Z"></path>
        <ellipse id="circle" cx="4.57251532" cy="4.57376026" rx="1.26315789" ry="1.26315789"></ellipse>
    </g>
</svg>
