<?xml version="1.0" encoding="UTF-8" standalone="no"?>
<svg width="11px" height="13px" viewBox="0 0 11 13" version="1.1" xmlns="http://www.w3.org/2000/svg" xmlns:xlink="http://www.w3.org/1999/xlink" xmlns:sketch="http://www.bohemiancoding.com/sketch/ns">
    <title>Usability</title>
    <desc>hand with pointing finger</desc>
    <defs></defs>
    <g id="Page-1" stroke="none" stroke-width="1" fill-rule="evenodd" sketch:type="MSPage">
        <path d="M6,3.551 L6,1.571 C6,0.675 5.355,0 4.5,0 C3.645,0 3,0.675 3,1.571 L3,4.356 C2.468,4.119 1.965,3.96 1.515,3.96 C0.623,3.96 0,4.594 0,5.5 C0,6.036 0.269,6.257 1.159,6.987 C1.637,7.38 2.718,8.267 3,8.671 L3,13 L10,13 L10,11.115 C10,9.04 10.28,8.476 10.527,7.978 C10.749,7.531 11,7.025 11,6 C11,4.189 7.706,3.689 6,3.551 L6,3.551 Z M9,12 L4,12 L4,11 L9.002,11 C9.002,11.04 9,11.074 9,11.115 L9,12 L9,12 Z M9.035,10 L4,10 L4,8.504 C3.991,7.776 1,5.687 1,5.5 C1,5.107 1.205,4.96 1.515,4.96 C2.19,4.96 3.364,5.654 4,6 L4,1.571 C4,1.256 4.185,1 4.5,1 C4.816,1 5,1.256 5,1.571 L5,4.5 L5.002,4.5 C5.331,4.5 10,4.817 10,6 C10,7.712 9.207,7.327 9.035,10 L9.035,10 Z" id="Fill-10" sketch:type="MSShapeGroup"></path>
    </g>
</svg>
