<?xml version="1.0" encoding="utf-8"?>
<!-- Generator: Adobe Illustrator 17.0.0, SVG Export Plug-In . SVG Version: 6.00 Build 0)  -->
<!DOCTYPE svg PUBLIC "-//W3C//DTD SVG 1.1//EN" "http://www.w3.org/Graphics/SVG/1.1/DTD/svg11.dtd">
<svg version="1.1" id="Layer_1" xmlns="http://www.w3.org/2000/svg" xmlns:xlink="http://www.w3.org/1999/xlink" x="0px" y="0px"
	 width="60px" height="60px" viewBox="0 0 60 60" enable-background="new 0 0 60 60" xml:space="preserve">
<g>
	<path fill="#010101" d="M46.554,22.796C43.367,16.639,36.94,12.695,30,12.695c-9.48,0-17.404,7.138-18.499,16.443
		c-0.353-0.036-0.707-0.054-1.059-0.054C4.684,29.085,0,33.776,0,39.544C0,49.881,10.608,50,11.06,50h36.593l0.129-0.008
		C47.904,49.976,60,48.263,60,36.391C60,28.941,53.981,22.871,46.554,22.796z M47.582,48H11.074l-0.014,1v-1
		C10.132,48,2,47.763,2,39.544c0-4.664,3.787-8.459,8.442-8.459c0.584,0,1.175,0.061,1.756,0.183l1.135,0.237l0.068-1.157
		C13.919,21.57,21.21,14.695,30,14.695c6.386,0,12.288,3.744,15.034,9.538l0.282,0.595l0.658-0.024
		C52.545,24.544,58,29.85,58,36.391C58,46.2,48.519,47.86,47.582,48z"/>
</g>
</svg>
