<?xml version="1.0" encoding="utf-8"?>
<!-- Generator: Adobe Illustrator 17.0.0, SVG Export Plug-In . SVG Version: 6.00 Build 0)  -->
<!DOCTYPE svg PUBLIC "-//W3C//DTD SVG 1.1//EN" "http://www.w3.org/Graphics/SVG/1.1/DTD/svg11.dtd">
<svg version="1.1" id="Layer_1" xmlns="http://www.w3.org/2000/svg" xmlns:xlink="http://www.w3.org/1999/xlink" x="0px" y="0px"
	 width="60px" height="60px" viewBox="0 0 60 60" enable-background="new 0 0 60 60" xml:space="preserve">
<g>
	<path fill="#010101" d="M45.862,15.856C42.803,9.966,36.646,6.195,30,6.195c-9.074,0-16.662,6.823-17.732,15.724
		c-2.625-0.253-5.232,0.526-7.3,2.207c-2.355,1.915-3.707,4.755-3.707,7.793c0,8.53,7.518,9.817,9.821,10.007
		c0.559,0.045,1.034-0.364,1.079-0.914c0.046-0.55-0.363-1.034-0.913-1.079c-2.401-0.199-7.987-1.378-7.987-8.014
		c0-2.433,1.082-4.707,2.969-6.241c1.89-1.537,4.344-2.133,6.734-1.633l1.134,0.237l0.068-1.157
		C14.661,14.753,21.616,8.195,30,8.195c6.094,0,11.724,3.571,14.343,9.098l0.282,0.595l0.658-0.024
		c3.014-0.115,5.897,0.979,8.068,3.072c2.185,2.106,3.388,4.936,3.388,7.968c0,9.621-9.578,11.014-9.985,11.069
		c-0.547,0.073-0.932,0.575-0.859,1.122c0.066,0.503,0.495,0.869,0.989,0.869c0.043,0,0.086-0.003,0.13-0.008
		c0.117-0.015,11.726-1.658,11.726-13.052c0-3.581-1.42-6.922-3.999-9.408C52.331,17.174,49.199,15.895,45.862,15.856z"/>
	<path fill="#010101" d="M43.261,39.805c0-7.72-6.28-14-14-14c-7.72,0-14,6.28-14,14c0,7.72,6.28,14,14,14
		C36.98,53.805,43.261,47.525,43.261,39.805z M17.261,39.805c0-6.617,5.383-12,12-12c6.617,0,12,5.383,12,12s-5.383,12-12,12
		C22.644,51.805,17.261,46.422,17.261,39.805z"/>
	<path fill="#010101" d="M33.466,45.509c0.195,0.197,0.452,0.296,0.71,0.296c0.255,0,0.509-0.097,0.704-0.29
		c0.393-0.389,0.395-1.022,0.006-1.414L30.65,39.83l4.317-4.317c0.391-0.391,0.391-1.023,0-1.414c-0.391-0.391-1.023-0.391-1.414,0
		l-4.311,4.311l-4.272-4.308c-0.389-0.392-1.022-0.395-1.414-0.006c-0.393,0.389-0.394,1.022-0.006,1.414l4.278,4.314l-4.19,4.19
		c-0.391,0.391-0.391,1.023,0,1.414c0.195,0.195,0.451,0.293,0.707,0.293c0.256,0,0.512-0.098,0.707-0.293l4.184-4.184
		L33.466,45.509z"/>
</g>
</svg>
