<?xml version="1.0" encoding="utf-8"?>
<!-- Generator: Adobe Illustrator 17.0.0, SVG Export Plug-In . SVG Version: 6.00 Build 0)  -->
<!DOCTYPE svg PUBLIC "-//W3C//DTD SVG 1.1//EN" "http://www.w3.org/Graphics/SVG/1.1/DTD/svg11.dtd">
<svg version="1.1" id="Layer_1" xmlns="http://www.w3.org/2000/svg" xmlns:xlink="http://www.w3.org/1999/xlink" x="0px" y="0px"
	 width="60px" height="60px" viewBox="0 0 60 60" enable-background="new 0 0 60 60" xml:space="preserve">
<g>
	<path fill="#010101" d="M3.707,24.627C1.352,26.541,0,29.382,0,32.42c0,2.917,0.899,5.241,2.674,6.907
		c2.624,2.463,6.344,2.683,7.568,2.683c0.24,0,0.384-0.008,0.406-0.01h4.809c0.553,0,1-0.448,1-1s-0.447-1-1-1l-4.871,0.002
		c-0.042,0.003-4.031,0.225-6.543-2.133C2.688,36.596,2,34.763,2,32.42c0-2.433,1.082-4.708,2.969-6.242
		c1.891-1.536,4.344-2.13,6.732-1.632l1.134,0.237l0.068-1.157c0.495-8.373,7.451-14.931,15.836-14.931
		c6.093,0,11.722,3.571,14.341,9.098l0.282,0.595l0.658-0.024c3.017-0.12,5.898,0.98,8.071,3.074
		c2.184,2.106,3.387,4.934,3.387,7.966c0,9.583-9.537,10.562-9.854,10.596h-3.672c-0.553,0-1,0.448-1,1s0.447,1,1,1l3.759-0.004
		c0.118-0.01,11.768-1.16,11.768-12.592c0-3.579-1.42-6.919-3.999-9.406c-2.41-2.323-5.542-3.603-8.88-3.641
		c-3.06-5.891-9.215-9.662-15.86-9.662c-9.075,0-16.664,6.823-17.734,15.724C8.39,22.171,5.776,22.945,3.707,24.627z"/>
	<path fill="#010101" d="M29,28.624c-0.553,0-1,0.448-1,1v22.962l-6.293-6.293c-0.391-0.391-1.023-0.391-1.414,0
		c-0.391,0.391-0.391,1.023,0,1.414l8,8C28.488,55.902,28.744,56,29,56c0.256,0,0.512-0.098,0.707-0.293l8-8
		c0.391-0.391,0.391-1.023,0-1.414c-0.391-0.391-1.023-0.391-1.414,0L30,52.586V29.624C30,29.072,29.553,28.624,29,28.624z"/>
</g>
</svg>
