<?xml version="1.0" encoding="utf-8"?>
<!-- Generator: Adobe Illustrator 17.0.0, SVG Export Plug-In . SVG Version: 6.00 Build 0)  -->
<!DOCTYPE svg PUBLIC "-//W3C//DTD SVG 1.1//EN" "http://www.w3.org/Graphics/SVG/1.1/DTD/svg11.dtd">
<svg version="1.1" id="Layer_1" xmlns="http://www.w3.org/2000/svg" xmlns:xlink="http://www.w3.org/1999/xlink" x="0px" y="0px"
	 width="60px" height="60px" viewBox="0 0 60 60" enable-background="new 0 0 60 60" xml:space="preserve">
<g>
	<path fill="#010101" d="M46.754,40.713c-0.547,0.073-0.932,0.575-0.859,1.122c0.072,0.546,0.566,0.934,1.119,0.861
		c0.117-0.015,11.726-1.659,11.726-13.052c0-3.58-1.421-6.921-4-9.407c-2.409-2.323-5.541-3.601-8.878-3.64
		C42.802,10.706,36.646,6.935,30,6.935c-9.075,0-16.663,6.823-17.733,15.725c-2.608-0.249-5.229,0.525-7.299,2.207
		c-2.355,1.915-3.707,4.755-3.707,7.793c0,2.911,0.896,5.269,2.662,7.009c2.988,2.944,7.413,3.036,7.953,3.036
		c0.023,0,0.04,0,0.048,0c0.552-0.008,0.991-0.461,0.984-1.013c-0.007-0.548-0.454-0.987-1.001-0.987c-0.004,0-0.007,0-0.011,0
		c-0.05-0.006-4.056,0.027-6.579-2.47c-1.365-1.35-2.057-3.226-2.057-5.575c0-2.433,1.082-4.707,2.969-6.241
		c1.891-1.537,4.347-2.132,6.734-1.632l1.134,0.237l0.068-1.157C14.66,15.493,21.615,8.935,30,8.935
		c6.093,0,11.722,3.571,14.342,9.098l0.282,0.595l0.658-0.024c3.019-0.121,5.898,0.979,8.069,3.072
		c2.185,2.105,3.388,4.935,3.388,7.967C56.739,39.265,47.161,40.658,46.754,40.713z"/>
	<path fill="#010101" d="M18.913,41.978c0,6.114,4.974,11.087,11.087,11.087c6.113,0,11.087-4.974,11.087-11.087
		c0-1.95-0.515-3.868-1.487-5.545c-0.276-0.477-0.888-0.64-1.367-0.363c-0.477,0.277-0.641,0.889-0.363,1.367
		c0.797,1.373,1.218,2.943,1.218,4.542c0,5.011-4.076,9.087-9.087,9.087c-5.011,0-9.087-4.077-9.087-9.087c0-5.047,3.877-9,8.826-9
		h0.188l-1.911,2.006c-0.381,0.4-0.366,1.033,0.034,1.414c0.193,0.184,0.441,0.276,0.689,0.276c0.264,0,0.527-0.104,0.724-0.31
		l4.164-4.37l-4.149-4.558c-0.371-0.409-1.004-0.437-1.412-0.067c-0.409,0.372-0.439,1.004-0.066,1.413l1.999,2.196h-0.259
		C23.669,30.978,18.913,35.81,18.913,41.978z"/>
</g>
</svg>
