<?xml version="1.0" encoding="utf-8"?>
<!-- Generator: Adobe Illustrator 17.0.0, SVG Export Plug-In . SVG Version: 6.00 Build 0)  -->
<!DOCTYPE svg PUBLIC "-//W3C//DTD SVG 1.1//EN" "http://www.w3.org/Graphics/SVG/1.1/DTD/svg11.dtd">
<svg version="1.1" id="Layer_1" xmlns="http://www.w3.org/2000/svg" xmlns:xlink="http://www.w3.org/1999/xlink" x="0px" y="0px"
	 width="60px" height="60px" viewBox="0 0 60 60" enable-background="new 0 0 60 60" xml:space="preserve">
<g>
	<path fill="#010101" d="M3.707,23.279C1.352,25.193,0,28.034,0,31.072c0,2.917,0.899,5.241,2.675,6.908
		c2.623,2.463,6.343,2.683,7.567,2.683c0.239,0,0.384-0.008,0.406-0.01h4.809c0.553,0,1-0.448,1-1c0-0.552-0.447-1-1-1l-4.869,0.002
		c-0.045,0.002-4.058,0.212-6.554-2.142C2.685,35.24,2,33.41,2,31.072c0-2.433,1.082-4.708,2.969-6.241
		c1.889-1.535,4.343-2.13,6.732-1.632l1.134,0.237l0.068-1.157c0.495-8.373,7.451-14.931,15.836-14.931
		c6.092,0,11.721,3.571,14.341,9.098l0.282,0.595l0.658-0.024c3.014-0.113,5.898,0.979,8.07,3.073
		c2.185,2.106,3.388,4.935,3.388,7.966c0,9.583-9.537,10.562-9.854,10.596h-3.672c-0.553,0-1,0.448-1,1c0,0.552,0.447,1,1,1
		l3.759-0.004c0.118-0.01,11.768-1.16,11.768-12.592c0-3.58-1.42-6.92-4-9.406c-2.409-2.323-5.541-3.602-8.879-3.641
		c-3.06-5.891-9.215-9.662-15.86-9.662c-9.075,0-16.664,6.823-17.734,15.725C8.389,20.823,5.776,21.598,3.707,23.279z"/>
	<path fill="#010101" d="M29,54.652c0.553,0,1-0.448,1-1V30.69l6.293,6.293c0.195,0.195,0.451,0.293,0.707,0.293
		c0.256,0,0.512-0.098,0.707-0.293c0.391-0.391,0.391-1.023,0-1.414l-8-8c-0.391-0.391-1.023-0.391-1.414,0l-8,8
		c-0.391,0.391-0.391,1.023,0,1.414c0.391,0.391,1.023,0.391,1.414,0L28,30.69v22.962C28,54.205,28.447,54.652,29,54.652z"/>
</g>
</svg>
