<?xml version="1.0" encoding="utf-8"?>
<!-- Generator: Adobe Illustrator 17.0.0, SVG Export Plug-In . SVG Version: 6.00 Build 0)  -->
<!DOCTYPE svg PUBLIC "-//W3C//DTD SVG 1.1//EN" "http://www.w3.org/Graphics/SVG/1.1/DTD/svg11.dtd">
<svg version="1.1" id="Layer_1" xmlns="http://www.w3.org/2000/svg" xmlns:xlink="http://www.w3.org/1999/xlink" x="0px" y="0px"
	 width="60px" height="60px" viewBox="0 0 60 60" enable-background="new 0 0 60 60" xml:space="preserve">
<g>
	<path fill="#010101" d="M27.638,59.705C27.826,59.894,28.081,60,28.348,60s0.521-0.106,0.71-0.295L46.71,41.922
		c0.284-0.287,0.368-0.716,0.213-1.089c-0.155-0.373-0.52-0.616-0.923-0.616H36V30c0-0.552-0.447-1-1-1c-0.553,0-1,0.448-1,1v11.217
		c0,0.552,0.447,1,1,1h8.599L28.348,57.581L13.097,42.217H21c0.553,0,1-0.448,1-1V30c0-0.552-0.447-1-1-1c-0.553,0-1,0.448-1,1
		v10.217h-9.305c-0.403,0-0.768,0.243-0.923,0.616c-0.155,0.373-0.071,0.802,0.213,1.089L27.638,59.705z"/>
	<path fill="#010101" d="M35,25.957c0.553,0,1-0.448,1-1v-6.304c0-0.552-0.447-1-1-1c-0.553,0-1,0.448-1,1v6.304
		C34,25.509,34.447,25.957,35,25.957z"/>
	<path fill="#010101" d="M21,26.217c0.553,0,1-0.448,1-1v-6.304c0-0.552-0.447-1-1-1c-0.553,0-1,0.448-1,1v6.304
		C20,25.77,20.447,26.217,21,26.217z"/>
	<path fill="#010101" d="M35,14.609c0.553,0,1-0.448,1-1V9.826c0-0.552-0.447-1-1-1c-0.553,0-1,0.448-1,1v3.783
		C34,14.161,34.447,14.609,35,14.609z"/>
	<path fill="#010101" d="M21,14.87c0.553,0,1-0.448,1-1v-3.783c0-0.552-0.447-1-1-1c-0.553,0-1,0.448-1,1v3.783
		C20,14.422,20.447,14.87,21,14.87z"/>
	<path fill="#010101" d="M35,5.783c0.553,0,1-0.448,1-1V3.522c0-0.552-0.447-1-1-1c-0.553,0-1,0.448-1,1v1.261
		C34,5.335,34.447,5.783,35,5.783z"/>
	<path fill="#010101" d="M21,6.044c0.553,0,1-0.448,1-1V3.783c0-0.552-0.447-1-1-1c-0.553,0-1,0.448-1,1v1.261
		C20,5.596,20.447,6.044,21,6.044z"/>
</g>
</svg>
