<?xml version="1.0" encoding="utf-8"?>
<!-- Generator: Adobe Illustrator 17.0.0, SVG Export Plug-In . SVG Version: 6.00 Build 0)  -->
<!DOCTYPE svg PUBLIC "-//W3C//DTD SVG 1.1//EN" "http://www.w3.org/Graphics/SVG/1.1/DTD/svg11.dtd">
<svg version="1.1" id="Layer_1" xmlns="http://www.w3.org/2000/svg" xmlns:xlink="http://www.w3.org/1999/xlink" x="0px" y="0px"
	 width="60px" height="60px" viewBox="0 0 60 60" enable-background="new 0 0 60 60" xml:space="preserve">
<g>
	<path fill="#010101" d="M8.901,14.619c-0.154,0.375-0.067,0.806,0.221,1.091l20.174,20C29.491,35.903,29.745,36,30,36
		c0.255,0,0.509-0.097,0.704-0.29l20.174-20c0.288-0.285,0.375-0.716,0.221-1.091C50.944,14.245,50.579,14,50.174,14H9.826
		C9.421,14,9.056,14.245,8.901,14.619z M47.745,16L30,33.592L12.255,16H47.745z"/>
	<path fill="#010101" d="M59,46H1c-0.553,0-1,0.448-1,1s0.447,1,1,1h58c0.553,0,1-0.448,1-1S59.553,46,59,46z"/>
</g>
</svg>
