<?xml version="1.0" encoding="utf-8"?>
<!-- Generator: Adobe Illustrator 17.0.0, SVG Export Plug-In . SVG Version: 6.00 Build 0)  -->
<!DOCTYPE svg PUBLIC "-//W3C//DTD SVG 1.1//EN" "http://www.w3.org/Graphics/SVG/1.1/DTD/svg11.dtd">
<svg version="1.1" id="Layer_1" xmlns="http://www.w3.org/2000/svg" xmlns:xlink="http://www.w3.org/1999/xlink" x="0px" y="0px"
	 width="60px" height="60px" viewBox="0 0 60 60" enable-background="new 0 0 60 60" xml:space="preserve">
<g>
	<path fill="#010101" d="M27.264,11.738c0.509-0.215,0.746-0.802,0.531-1.311c-0.215-0.509-0.803-0.746-1.31-0.531
		c-5.049,2.135-8.311,7.057-8.31,12.49L18.11,23.71l-3.275-3.247c-0.393-0.388-1.025-0.386-1.414,0.006
		c-0.389,0.393-0.387,1.025,0.006,1.415l4.869,4.826c0.037,0.037,0.085,0.054,0.127,0.084c0.057,0.042,0.109,0.086,0.175,0.115
		c0.069,0.03,0.141,0.04,0.214,0.054c0.048,0.01,0.09,0.033,0.14,0.036C18.967,27,18.984,27,19,27c0,0,0,0,0,0s0,0,0,0
		c0,0,0.001,0,0.001,0c0.006,0,0.011-0.003,0.017-0.003c0.119-0.002,0.237-0.024,0.349-0.068c0.073-0.029,0.132-0.078,0.195-0.122
		c0.038-0.026,0.081-0.04,0.116-0.073l0.009-0.008c0,0,0.001-0.001,0.001-0.001l5.207-4.817c0.405-0.375,0.431-1.007,0.056-1.413
		c-0.376-0.406-1.009-0.431-1.413-0.055l-3.422,3.164l0.057-1.17C20.174,17.758,22.957,13.56,27.264,11.738z"/>
	<path fill="#010101" d="M17,56v2h-6.652c-0.553,0-1,0.448-1,1s0.447,1,1,1h15.131c0.553,0,1-0.448,1-1s-0.447-1-1-1H19v-2h14
		c2.646,0,5-3.355,5-6V32.783C38,30.146,35.854,28,33.218,28h-3.783c-0.553,0-1,0.448-1,1s0.447,1,1,1h3.783
		C34.752,30,36,31.249,36,32.783V48H0V32.783C0,31.249,1.248,30,2.782,30h3.783c0.553,0,1-0.448,1-1s-0.447-1-1-1H2.782
		C0.146,28-2,30.146-2,32.783V50c0,2.645,2.354,6,5,6H17z M0,50h36c0,1.616-1.58,4-3,4H3C1.58,54,0,51.616,0,50z"/>
	<path fill="#010101" d="M36.739,0H31c-0.553,0-1,0.448-1,1v17.565c0,2.016,2.227,3.521,4.218,3.521c0.265,0,0.532-0.03,0.796-0.087
		H53c2.663,0,5-2.336,5-5V8c0-0.552-0.447-1-1-1h-1V3c0-0.552-0.447-1-1-1H37.739V1C37.739,0.448,37.292,0,36.739,0z M56,9v8
		c0,1.542-1.458,3-3,3H37.668C37.879,19.572,38,19.09,38,18.565V9H56z M54,4v3H37c-0.553,0-1,0.448-1,1v10.565
		c0,0.683-0.578,1.23-1.233,1.435H34c-0.088,0-0.173,0.011-0.254,0.033C32.897,19.847,32,19.212,32,18.565V2h3.739v1
		c0,0.552,0.447,1,1,1H54z"/>
</g>
</svg>
