<?xml version="1.0" encoding="utf-8"?>
<!-- Generator: Adobe Illustrator 17.0.0, SVG Export Plug-In . SVG Version: 6.00 Build 0)  -->
<!DOCTYPE svg PUBLIC "-//W3C//DTD SVG 1.1//EN" "http://www.w3.org/Graphics/SVG/1.1/DTD/svg11.dtd">
<svg version="1.1" id="Layer_1" xmlns="http://www.w3.org/2000/svg" xmlns:xlink="http://www.w3.org/1999/xlink" x="0px" y="0px"
	 width="60px" height="60px" viewBox="0 0 60 60" enable-background="new 0 0 60 60" xml:space="preserve">
<g>
	<path fill="#010101" d="M9.302,7.148c-0.47,0.29-0.616,0.905-0.327,1.375l20.174,32.783c0.182,0.296,0.504,0.476,0.852,0.476
		c0.348,0,0.67-0.18,0.852-0.476L51.025,8.524c0.289-0.47,0.143-1.086-0.327-1.375c-0.474-0.291-1.088-0.144-1.376,0.328L30,38.875
		L10.678,7.476C10.389,7.005,9.774,6.857,9.302,7.148z"/>
	<path fill="#010101" d="M59,52H1c-0.553,0-1,0.448-1,1s0.447,1,1,1h58c0.553,0,1-0.448,1-1S59.553,52,59,52z"/>
</g>
</svg>
