<?xml version="1.0" encoding="utf-8"?>
<!-- Generator: Adobe Illustrator 17.0.0, SVG Export Plug-In . SVG Version: 6.00 Build 0)  -->
<!DOCTYPE svg PUBLIC "-//W3C//DTD SVG 1.1//EN" "http://www.w3.org/Graphics/SVG/1.1/DTD/svg11.dtd">
<svg version="1.1" id="Layer_1" xmlns="http://www.w3.org/2000/svg" xmlns:xlink="http://www.w3.org/1999/xlink" x="0px" y="0px"
	 width="60px" height="60px" viewBox="0 0 60 60" enable-background="new 0 0 60 60" xml:space="preserve">
<g>
	<path fill="#010101" d="M59.922,40.616c-0.051-0.122-0.125-0.232-0.217-0.324c0,0-0.001-0.001-0.001-0.002l-10.087-10
		C49.43,30.104,49.177,30,48.913,30h-6.304c-0.552,0-1,0.448-1,1s0.448,1,1,1h5.893l8.07,8H41c-0.552,0-1,0.448-1,1v0.348V46H20
		v-4.652V41c0-0.552-0.448-1-1-1H3.429l8.07-8h8.415c0.552,0,1-0.448,1-1s-0.448-1-1-1h-8.826c-0.264,0-0.517,0.104-0.704,0.29
		l-10.087,10c0,0-0.001,0.001-0.001,0.002c-0.092,0.092-0.166,0.202-0.217,0.324C0.027,40.738,0.001,40.868,0,40.998
		C0,40.999,0,40.999,0,41v18c0,0.552,0.448,1,1,1h58c0.552,0,1-0.448,1-1V41c0-0.001,0-0.001,0-0.002
		C59.999,40.868,59.973,40.738,59.922,40.616z M58,58H2V42h16v5c0,0.552,0.448,1,1,1h22c0.552,0,1-0.448,1-1v-5h16V58z"/>
	<path fill="#010101" d="M31,0c-0.552,0-1,0.448-1,1v27.716L18.678,18.265c-0.406-0.374-1.039-0.348-1.413,0.057
		c-0.374,0.406-0.349,1.039,0.057,1.413l13,12c0.048,0.044,0.106,0.066,0.16,0.099c0.049,0.03,0.091,0.068,0.145,0.09
		C30.747,31.973,30.873,32,31,32s0.253-0.027,0.373-0.075c0.054-0.022,0.096-0.06,0.145-0.09c0.054-0.033,0.112-0.055,0.16-0.099
		l13-12c0.406-0.375,0.431-1.007,0.057-1.413c-0.375-0.405-1.006-0.431-1.413-0.057L32,28.716V1C32,0.448,31.552,0,31,0z"/>
</g>
</svg>
