<?xml version="1.0" encoding="utf-8"?>
<!-- Generator: Adobe Illustrator 17.0.0, SVG Export Plug-In . SVG Version: 6.00 Build 0)  -->
<!DOCTYPE svg PUBLIC "-//W3C//DTD SVG 1.1//EN" "http://www.w3.org/Graphics/SVG/1.1/DTD/svg11.dtd">
<svg version="1.1" id="Layer_1" xmlns="http://www.w3.org/2000/svg" xmlns:xlink="http://www.w3.org/1999/xlink" x="0px" y="0px"
	 width="60px" height="60px" viewBox="0 0 60 60" enable-background="new 0 0 60 60" xml:space="preserve">
<g>
	<path fill="#010101" d="M29.286,47.7C29.474,47.892,29.731,48,30,48s0.526-0.108,0.714-0.3l17.652-18
		c0.282-0.288,0.364-0.716,0.208-1.087C48.419,28.242,48.055,28,47.652,28H40V1c0-0.552-0.448-1-1-1H21c-0.552,0-1,0.448-1,1v27
		h-7.652c-0.403,0-0.766,0.242-0.922,0.613c-0.156,0.371-0.074,0.8,0.208,1.087L29.286,47.7z M21,30c0.552,0,1-0.448,1-1V2h16v27
		c0,0.552,0.448,1,1,1h6.271L30,45.572L14.729,30H21z"/>
	<path fill="#010101" d="M59,45c-0.552,0-1,0.448-1,1v12H2V46c0-0.552-0.448-1-1-1s-1,0.448-1,1v13c0,0.552,0.448,1,1,1h58
		c0.552,0,1-0.448,1-1V46C60,45.448,59.552,45,59,45z"/>
</g>
</svg>
