<?xml version="1.0" encoding="utf-8"?>
<!-- Generator: Adobe Illustrator 17.0.0, SVG Export Plug-In . SVG Version: 6.00 Build 0)  -->
<!DOCTYPE svg PUBLIC "-//W3C//DTD SVG 1.1//EN" "http://www.w3.org/Graphics/SVG/1.1/DTD/svg11.dtd">
<svg version="1.1" id="Layer_1" xmlns="http://www.w3.org/2000/svg" xmlns:xlink="http://www.w3.org/1999/xlink" x="0px" y="0px"
	 width="60px" height="60px" viewBox="0 0 60 60" enable-background="new 0 0 60 60" xml:space="preserve">
<g>
	<path fill="#010101" d="M43.707,34.293c-0.391-0.391-1.023-0.391-1.414,0L30,46.586V12c0-0.552-0.447-1-1-1c-0.553,0-1,0.448-1,1
		v34.586L15.707,34.293c-0.391-0.391-1.023-0.391-1.414,0c-0.391,0.391-0.391,1.023,0,1.414l14,14C28.488,49.902,28.744,50,29,50
		c0.256,0,0.512-0.098,0.707-0.293l14-14C44.098,35.316,44.098,34.684,43.707,34.293z"/>
	<path fill="#010101" d="M59,0H43.869c-0.553,0-1,0.448-1,1s0.447,1,1,1H58v56H43.869c-0.553,0-1,0.448-1,1s0.447,1,1,1H59
		c0.553,0,1-0.448,1-1V1C60,0.448,59.553,0,59,0z"/>
	<path fill="#010101" d="M1,60h12.608c0.553,0,1-0.448,1-1s-0.447-1-1-1H2V2h11.608c0.553,0,1-0.448,1-1s-0.447-1-1-1H1
		C0.447,0,0,0.448,0,1v58C0,59.552,0.447,60,1,60z"/>
</g>
</svg>
