<?xml version="1.0" encoding="utf-8"?>
<!-- Generator: Adobe Illustrator 17.0.0, SVG Export Plug-In . SVG Version: 6.00 Build 0)  -->
<!DOCTYPE svg PUBLIC "-//W3C//DTD SVG 1.1//EN" "http://www.w3.org/Graphics/SVG/1.1/DTD/svg11.dtd">
<svg version="1.1" id="Layer_1" xmlns="http://www.w3.org/2000/svg" xmlns:xlink="http://www.w3.org/1999/xlink" x="0px" y="0px"
	 width="60px" height="60px" viewBox="0 0 60 60" enable-background="new 0 0 60 60" xml:space="preserve">
<g>
	<path fill="#010101" d="M31,1c-0.553,0-1,0.448-1,1v25.586l-8.293-8.293c-0.391-0.391-1.023-0.391-1.414,0
		c-0.391,0.391-0.391,1.023,0,1.414l9.999,9.999c0.092,0.093,0.203,0.166,0.326,0.217C30.74,30.973,30.87,31,31,31
		c0.13,0,0.26-0.027,0.382-0.077c0.123-0.051,0.234-0.124,0.326-0.217l9.999-9.999c0.391-0.391,0.391-1.023,0-1.414
		c-0.391-0.391-1.023-0.391-1.414,0L32,27.586V2C32,1.448,31.553,1,31,1z"/>
	<path fill="#010101" d="M10,32.479V51c0,2.664,2.337,5,5,5h15v2h-5.739c-0.553,0-1,0.448-1,1s0.447,1,1,1h15.131
		c0.553,0,1-0.448,1-1s-0.447-1-1-1H32v-2h15c2.617,0,5-2.383,5-5V32c0-2.393-2.01-4-5-4h-7c-0.553,0-1,0.448-1,1s0.447,1,1,1h7
		c0.704,0,3,0.144,3,2v16H12V32.479C12,30.927,13.525,30,15,30h8c0.553,0,1-0.448,1-1s-0.447-1-1-1h-8
		C12.196,28,10,29.967,10,32.479z M50,50v1c0,1.542-1.458,3-3,3H15c-1.542,0-3-1.458-3-3v-1H50z"/>
</g>
</svg>
