<?xml version="1.0" encoding="utf-8"?>
<!-- Generator: Adobe Illustrator 17.0.0, SVG Export Plug-In . SVG Version: 6.00 Build 0)  -->
<!DOCTYPE svg PUBLIC "-//W3C//DTD SVG 1.1//EN" "http://www.w3.org/Graphics/SVG/1.1/DTD/svg11.dtd">
<svg version="1.1" id="Layer_1" xmlns="http://www.w3.org/2000/svg" xmlns:xlink="http://www.w3.org/1999/xlink" x="0px" y="0px"
	 width="60px" height="60px" viewBox="0 0 60 60" enable-background="new 0 0 60 60" xml:space="preserve">
<g>
	<path fill="#010101" d="M27.478,60c0.553,0,1-0.448,1-1s-0.447-1-1-1H21v-2h14c2.646,0,5-3.355,5-6V32.783
		C40,30.146,37.854,28,35.218,28h-3.783c-0.553,0-1,0.448-1,1s0.447,1,1,1h3.783C36.752,30,38,31.249,38,32.783V48H2V32.783
		C2,31.249,3.248,30,4.782,30h3.783c0.553,0,1-0.448,1-1s-0.447-1-1-1H4.782C2.146,28,0,30.146,0,32.783V50c0,2.645,2.354,6,5,6h14
		v2h-6.652c-0.553,0-1,0.448-1,1s0.447,1,1,1H27.478z M2,50h36c0,1.616-1.58,4-3,4H5C3.58,54,2,51.616,2,50z"/>
	<path fill="#010101" d="M29.264,11.738c0.509-0.215,0.746-0.802,0.531-1.311c-0.215-0.509-0.803-0.746-1.31-0.531
		c-5.049,2.135-8.311,7.057-8.31,12.49L20.11,23.71l-3.275-3.247c-0.393-0.388-1.025-0.386-1.414,0.006
		c-0.389,0.393-0.387,1.025,0.006,1.415l4.869,4.826c0.037,0.037,0.085,0.054,0.127,0.084c0.057,0.042,0.109,0.086,0.175,0.115
		c0.069,0.03,0.141,0.04,0.214,0.054c0.048,0.01,0.09,0.033,0.14,0.036C20.967,27,20.984,27,21,27c0,0,0,0,0,0s0,0,0,0
		c0,0,0.001,0,0.001,0c0.006,0,0.011-0.003,0.017-0.003c0.119-0.002,0.237-0.024,0.349-0.068c0.072-0.029,0.131-0.077,0.194-0.121
		c0.038-0.027,0.082-0.041,0.117-0.073l0.009-0.009c0,0,0.001-0.001,0.001-0.001l5.208-4.817c0.405-0.375,0.431-1.007,0.056-1.413
		c-0.376-0.406-1.009-0.431-1.413-0.055l-3.422,3.164l0.057-1.17C22.174,17.758,24.957,13.56,29.264,11.738z"/>
	<path fill="#010101" d="M52.142,0.293C51.954,0.106,51.7,0,51.435,0H41c-0.553,0-1,0.448-1,1v22c0,0.552,0.447,1,1,1h18
		c0.553,0,1-0.448,1-1V8.565c0-0.265-0.106-0.52-0.293-0.707L52.142,0.293z M57.021,8H52V2.979L57.021,8z M42,22V2h8v7
		c0,0.552,0.447,1,1,1h7v12H42z"/>
</g>
</svg>
