<?xml version="1.0" encoding="utf-8"?>
<!-- Generator: Adobe Illustrator 17.0.0, SVG Export Plug-In . SVG Version: 6.00 Build 0)  -->
<!DOCTYPE svg PUBLIC "-//W3C//DTD SVG 1.1//EN" "http://www.w3.org/Graphics/SVG/1.1/DTD/svg11.dtd">
<svg version="1.1" id="Layer_1" xmlns="http://www.w3.org/2000/svg" xmlns:xlink="http://www.w3.org/1999/xlink" x="0px" y="0px"
	 width="60px" height="60px" viewBox="0 0 60 60" enable-background="new 0 0 60 60" xml:space="preserve">
<g>
	<path fill="#010101" d="M29,0c-0.553,0-1,0.448-1,1v30.586L15.707,19.293c-0.391-0.391-1.023-0.391-1.414,0
		c-0.391,0.391-0.391,1.023,0,1.414l14,14C28.488,34.902,28.744,35,29,35c0.256,0,0.512-0.098,0.707-0.293l14-14
		c0.391-0.391,0.391-1.023,0-1.414c-0.391-0.391-1.023-0.391-1.414,0L30,31.586V1C30,0.448,29.553,0,29,0z"/>
	<path fill="#010101" d="M12.218,60H45c0.553,0,1-0.448,1-1s-0.447-1-1-1H12.218c-0.553,0-1,0.448-1,1S11.665,60,12.218,60z"/>
	<path fill="#010101" d="M12.218,52H45c0.553,0,1-0.448,1-1s-0.447-1-1-1H12.218c-0.553,0-1,0.448-1,1S11.665,52,12.218,52z"/>
	<path fill="#010101" d="M11.218,43c0,0.552,0.447,1,1,1H45c0.553,0,1-0.448,1-1s-0.447-1-1-1H12.218
		C11.665,42,11.218,42.448,11.218,43z"/>
</g>
</svg>
