<?xml version="1.0" encoding="utf-8"?>
<!-- Generator: Adobe Illustrator 17.0.0, SVG Export Plug-In . SVG Version: 6.00 Build 0)  -->
<!DOCTYPE svg PUBLIC "-//W3C//DTD SVG 1.1//EN" "http://www.w3.org/Graphics/SVG/1.1/DTD/svg11.dtd">
<svg version="1.1" id="Layer_1" xmlns="http://www.w3.org/2000/svg" xmlns:xlink="http://www.w3.org/1999/xlink" x="0px" y="0px"
	 width="60px" height="60px" viewBox="0 0 60 60" enable-background="new 0 0 60 60" xml:space="preserve">
<g>
	<path fill="#010101" d="M10.067,5v26c0,0.515,0.418,0.933,0.933,0.933h46c0.515,0,0.933-0.418,0.933-0.933V5
		c0-0.515-0.418-0.933-0.933-0.933H11C10.485,4.067,10.067,4.485,10.067,5z M22,11h4v4h-4V11z M32,11h4v4h-4V11z M42,11h4v4h-4V11z
		 M51,20h-4v-4h4V20z M46,25h-3.956v-4H46V25z M41,20h-4v-4h4V20z M36.044,25H32v-4h4.044V25z M31,20h-4v-4h4V20z M26,25h-4v-4h4V25
		z M21,20h-4v-4h4V20z M16,15h-4.067v-4H16V15z M11.933,21H16v4h-4.067V21z M16.826,26H21v4.067h-4.174V26z M27,26h4v4.067h-4V26z
		 M37,26h4v4.067h-4V26z M47,26h4v4.067h-4V26z M52,25v-4h4.067v4H52z M52,15v-4h4.067v4H52z M51.174,10H47V5.933h4.174V10z M41,10
		h-4V5.933h4V10z M31,10h-4V5.933h4V10z M21,10h-4.174V5.933H21V10z"/>
	<path fill="#010101" d="M4,1v58c0,0.552,0.448,1,1,1s1-0.448,1-1V1c0-0.552-0.448-1-1-1S4,0.448,4,1z"/>
</g>
</svg>
