<?xml version="1.0" encoding="utf-8"?>
<!-- Generator: Adobe Illustrator 17.0.0, SVG Export Plug-In . SVG Version: 6.00 Build 0)  -->
<!DOCTYPE svg PUBLIC "-//W3C//DTD SVG 1.1//EN" "http://www.w3.org/Graphics/SVG/1.1/DTD/svg11.dtd">
<svg version="1.1" id="Layer_1" xmlns="http://www.w3.org/2000/svg" xmlns:xlink="http://www.w3.org/1999/xlink" x="0px" y="0px"
	 width="60px" height="60px" viewBox="0 0 60 60" enable-background="new 0 0 60 60" xml:space="preserve">
<g>
	<path fill="#010101" d="M59,0c-0.552,0-1,0.448-1,1v2H2V1c0-0.552-0.448-1-1-1S0,0.448,0,1v58c0,0.552,0.448,1,1,1s1-0.448,1-1V37
		h56v22c0,0.552,0.448,1,1,1s1-0.448,1-1V1C60,0.448,59.552,0,59,0z M52,29h-4v-4h4V29z M42,29h-4v-4h4V29z M32,29h-4v-4h4V29z
		 M22,29h-4v-4h4V29z M12,29H8v-4h4V29z M52,9h-4V5h4V9z M52,19h-4v-4h4V19z M42,19h-4v-4h4V19z M32,19h-4v-4h4V19z M22,19h-4v-4h4
		V19z M12,19H8v-4h4V19z M7,14H2v-4h5V14z M13,10h4v4h-4V10z M23,10h4v4h-4V10z M33,10h4v4h-4V10z M43,10h4v4h-4V10z M42,9h-4V5h4V9
		z M32,9h-4V5h4V9z M22,9h-4V5h4V9z M12,9H8V5h4V9z M2,20h5v4H2V20z M13,20h4v4h-4V20z M23,20h4v4h-4V20z M33,20h4v4h-4V20z M43,20
		h4v4h-4V20z M53,20h5v4h-5V20z M58,14h-5v-4h5V14z M2,35v-5h5v5H2z M13,35v-5h4v5H13z M23,35v-5h4v5H23z M33,35v-5h4v5H33z M43,35
		v-5h4v5H43z M53,35v-5h5v5H53z"/>
</g>
</svg>
