<?xml version="1.0" encoding="utf-8"?>
<!-- Generator: Adobe Illustrator 17.0.0, SVG Export Plug-In . SVG Version: 6.00 Build 0)  -->
<!DOCTYPE svg PUBLIC "-//W3C//DTD SVG 1.1//EN" "http://www.w3.org/Graphics/SVG/1.1/DTD/svg11.dtd">
<svg version="1.1" id="Layer_1" xmlns="http://www.w3.org/2000/svg" xmlns:xlink="http://www.w3.org/1999/xlink" x="0px" y="0px"
	 width="60px" height="60px" viewBox="0 0 60 60" enable-background="new 0 0 60 60" xml:space="preserve">
<g>
	<path fill="#010101" d="M9.826,31.261v-6.304c0-1.363,0-2.773,5.304-2.956H40v6.739c0,0.418,0.26,0.792,0.652,0.938
		c0.393,0.145,0.832,0.032,1.105-0.285l11.957-13.87c0.324-0.375,0.324-0.931,0-1.306L41.757,0.347
		c-0.273-0.316-0.715-0.43-1.105-0.285C40.26,0.208,40,0.582,40,1v7H14.783C8.058,8,4.044,12.925,4.044,21.174
		c0,5.867,3.852,10.533,4.016,10.729c0.194,0.231,0.477,0.358,0.767,0.358c0.114,0,0.23-0.019,0.342-0.06
		C9.563,32.057,9.826,31.681,9.826,31.261z M7.826,24.956v2.896c-0.89-1.715-1.783-4.083-1.783-6.678
		C6.044,17.814,6.895,10,14.783,10H41c0.552,0,1-0.448,1-1V3.691l9.636,11.178L42,26.048V21c0-0.552-0.448-1-1-1l-25.904,0
		C10.732,20.151,7.826,21.051,7.826,24.956z"/>
	<path fill="#010101" d="M53.875,27.799c-0.395,0.144-0.658,0.519-0.658,0.94v6.304c0,1.317,0,2.956-5.304,2.956H24v-6.739
		c0-0.411-0.252-0.78-0.634-0.931c-0.383-0.15-0.818-0.052-1.098,0.249L9.355,44.449c-0.357,0.384-0.357,0.979,0,1.363l12.913,13.87
		C22.461,59.889,22.728,60,23,60c0.123,0,0.247-0.023,0.366-0.069C23.748,59.78,24,59.411,24,59v-7h23.913
		C56.096,52,59,44.903,59,38.826c0-5.866-3.852-10.533-4.016-10.729C54.714,27.774,54.271,27.655,53.875,27.799z M55.217,32.157
		C56.107,33.877,57,36.244,57,38.826C57,40.692,56.562,50,47.913,50H23c-0.552,0-1,0.448-1,1v5.458L11.453,45.13L22,33.802V39
		c0,0.552,0.448,1,1,1h24.913c3.612,0,7.304-0.589,7.304-4.956V32.157z"/>
</g>
</svg>
