<?xml version="1.0" encoding="utf-8"?>
<!-- Generator: Adobe Illustrator 17.0.0, SVG Export Plug-In . SVG Version: 6.00 Build 0)  -->
<!DOCTYPE svg PUBLIC "-//W3C//DTD SVG 1.1//EN" "http://www.w3.org/Graphics/SVG/1.1/DTD/svg11.dtd">
<svg version="1.1" id="Layer_1" xmlns="http://www.w3.org/2000/svg" xmlns:xlink="http://www.w3.org/1999/xlink" x="0px" y="0px"
	 width="60px" height="60px" viewBox="0 0 60 60" enable-background="new 0 0 60 60" xml:space="preserve">
<g>
	<path fill="#010101" d="M47.312,20.063L39.715,12.3c-0.388-0.395-1.02-0.402-1.414-0.015c-0.394,0.387-0.401,1.019-0.015,1.414
		l6.167,6.3H27.217c-0.552,0-1,0.448-1,1s0.448,1,1,1h17.509l-6.425,6.285c-0.395,0.386-0.402,1.019-0.016,1.414
		C38.481,29.899,38.74,30,39,30c0.252,0,0.505-0.095,0.699-0.285l8-7.826c0.189-0.186,0.298-0.439,0.301-0.704
		c0-0.033-0.015-0.063-0.018-0.096C47.985,21.058,48,21.031,48,21C48,20.559,47.709,20.196,47.312,20.063z"/>
	<path fill="#010101" d="M34.783,38H16.661l5.997-5.248c0.416-0.364,0.458-0.995,0.094-1.411c-0.365-0.415-0.995-0.458-1.411-0.094
		l-8,7c-0.008,0.007-0.011,0.018-0.019,0.025c-0.072,0.067-0.125,0.149-0.174,0.235c-0.018,0.032-0.046,0.057-0.061,0.091
		C13.032,38.722,13,38.857,13,39s0.032,0.278,0.087,0.401c0.015,0.034,0.043,0.059,0.061,0.091c0.05,0.086,0.102,0.168,0.174,0.235
		c0.008,0.007,0.011,0.018,0.019,0.025l8,7C21.531,46.919,21.766,47,22,47c0.278,0,0.555-0.116,0.753-0.341
		c0.364-0.416,0.322-1.047-0.094-1.411L16.661,40h18.121c0.552,0,1-0.448,1-1S35.335,38,34.783,38z"/>
	<path fill="#010101" d="M30,0C13.458,0,0,13.458,0,30s13.458,30,30,30s30-13.458,30-30S46.542,0,30,0z M30,58
		C14.56,58,2,45.44,2,30S14.56,2,30,2s28,12.56,28,28S45.44,58,30,58z"/>
</g>
</svg>
