<?xml version="1.0" encoding="utf-8"?>
<!-- Generator: Adobe Illustrator 17.0.0, SVG Export Plug-In . SVG Version: 6.00 Build 0)  -->
<!DOCTYPE svg PUBLIC "-//W3C//DTD SVG 1.1//EN" "http://www.w3.org/Graphics/SVG/1.1/DTD/svg11.dtd">
<svg version="1.1" id="Layer_1" xmlns="http://www.w3.org/2000/svg" xmlns:xlink="http://www.w3.org/1999/xlink" x="0px" y="0px"
	 width="60px" height="60px" viewBox="0 0 60 60" enable-background="new 0 0 60 60" xml:space="preserve">
<g>
	<path fill="#010101" d="M5,56h14v2h-6.652c-0.553,0-1,0.448-1,1s0.447,1,1,1h15.131c0.553,0,1-0.448,1-1s-0.447-1-1-1H21v-2h14
		c2.646,0,5-3.355,5-6V32.783C40,30.146,37.854,28,35.218,28h-3.783c-0.553,0-1,0.448-1,1s0.447,1,1,1h3.783
		C36.752,30,38,31.249,38,32.783V48H2V32.783C2,31.249,3.248,30,4.782,30h3.783c0.553,0,1-0.448,1-1s-0.447-1-1-1H4.782
		C2.146,28,0,30.146,0,32.783V50C0,52.645,2.354,56,5,56z M38,50c0,1.616-1.58,4-3,4H5c-1.42,0-3-2.384-3-4H38z"/>
	<path fill="#010101" d="M55.218,0H35.044c-0.553,0-1,0.448-1,1s0.447,1,1,1h20.174C56.752,2,58,3.249,58,4.783V16H35.998
		c-0.553,0-1,0.448-1,1s0.447,1,1,1h21.93c-0.119,0.527-0.386,1.008-0.778,1.37c-0.507,0.466-1.169,0.688-1.932,0.63l-10.209,0.002
		C45.006,20.002,45.003,20,45,20s-0.005,0.002-0.009,0.002l-10.031,0.002c-1.018,0.089-1.995-0.482-2.445-1.45
		c-0.231-0.5-0.824-0.719-1.328-0.485c-0.501,0.233-0.718,0.828-0.484,1.329c0.754,1.621,2.318,2.618,3.986,2.618
		c0.118,0,0.236-0.005,0.354-0.015L44,21.998V24h-2.652c-0.553,0-1,0.448-1,1s0.447,1,1,1h7.565c0.553,0,1-0.448,1-1s-0.447-1-1-1
		H46v-2.002l9.135-0.002c1.255,0.106,2.446-0.306,3.369-1.155c0.95-0.875,1.496-2.132,1.496-3.45V4.783C60,2.146,57.854,0,55.218,0z
		"/>
	<path fill="#010101" d="M20.174,19.283v4.52l-3.336-3.336c-0.391-0.391-1.023-0.391-1.414,0c-0.391,0.391-0.391,1.023,0,1.414
		l5.042,5.042c0.092,0.092,0.201,0.165,0.323,0.216c0.121,0.05,0.251,0.078,0.385,0.078c0.134,0,0.264-0.027,0.385-0.078
		c0.121-0.051,0.231-0.124,0.323-0.216l5.043-5.043c0.391-0.391,0.391-1.023,0-1.414c-0.391-0.391-1.023-0.391-1.414,0l-3.337,3.337
		v-4.521c0-4.663,3.794-8.456,8.457-8.456h1.999l-2.076,2.076c-0.391,0.39-0.391,1.023,0,1.414c0.195,0.195,0.451,0.293,0.707,0.293
		c0.256,0,0.512-0.098,0.707-0.293l3.782-3.782c0.092-0.092,0.165-0.201,0.216-0.323c0.05-0.121,0.078-0.251,0.078-0.385
		c0-0.134-0.027-0.264-0.078-0.385c-0.051-0.121-0.124-0.231-0.215-0.322l-3.783-3.782c-0.391-0.391-1.023-0.391-1.414,0
		c-0.391,0.391-0.391,1.024,0,1.414l2.076,2.076h-1.999C24.865,8.826,20.174,13.517,20.174,19.283z"/>
</g>
</svg>
