<?xml version="1.0" encoding="utf-8"?>
<!-- Generator: Adobe Illustrator 17.0.0, SVG Export Plug-In . SVG Version: 6.00 Build 0)  -->
<!DOCTYPE svg PUBLIC "-//W3C//DTD SVG 1.1//EN" "http://www.w3.org/Graphics/SVG/1.1/DTD/svg11.dtd">
<svg version="1.1" id="Layer_1" xmlns="http://www.w3.org/2000/svg" xmlns:xlink="http://www.w3.org/1999/xlink" x="0px" y="0px"
	 width="60px" height="60px" viewBox="0 0 60 60" enable-background="new 0 0 60 60" xml:space="preserve">
<g>
	<path fill="#010101" d="M33.783,10.826c0.552,0,1-0.448,1-1c0-0.552-0.448-1-1-1c-7.504,0-13.609,6.104-13.608,13.559L20.11,23.71
		l-3.276-3.247c-0.394-0.389-1.026-0.386-1.415,0.006c-0.389,0.393-0.386,1.025,0.006,1.415l4.87,4.826
		c0.037,0.037,0.085,0.054,0.127,0.084c0.057,0.042,0.11,0.086,0.175,0.115c0.069,0.03,0.14,0.04,0.213,0.054
		c0.048,0.01,0.09,0.033,0.14,0.036C20.967,27,20.984,27,21,27c0,0,0,0,0,0s0,0,0,0c0,0,0.001,0,0.001,0
		c0.006,0,0.011-0.003,0.017-0.003c0.119-0.002,0.237-0.024,0.349-0.068c0.071-0.028,0.128-0.076,0.19-0.118
		c0.04-0.027,0.085-0.042,0.122-0.076l5.217-4.826c0.405-0.375,0.43-1.007,0.055-1.413c-0.375-0.406-1.008-0.43-1.413-0.055
		l-3.421,3.164l0.057-1.17C22.174,16.034,27.381,10.826,33.783,10.826z"/>
	<path fill="#010101" d="M5,56h14v2h-6.652c-0.552,0-1,0.448-1,1s0.448,1,1,1h15.131c0.552,0,1-0.448,1-1s-0.448-1-1-1H21v-2h14
		c2.646,0,5-3.355,5-6V32.783C40,30.146,37.854,28,35.217,28h-3.783c-0.552,0-1,0.448-1,1s0.448,1,1,1h3.783
		C36.752,30,38,31.249,38,32.783V48H2V32.783C2,31.249,3.249,30,4.783,30h3.783c0.552,0,1-0.448,1-1s-0.448-1-1-1H4.783
		C2.146,28,0,30.146,0,32.783V50C0,52.645,2.354,56,5,56z M38,50c0,1.616-1.58,4-3,4H5c-1.42,0-3-2.384-3-4H38z"/>
	<path fill="#010101" d="M55.217,0H35.044c-2.637,0-4.783,2.146-4.783,4.783c0,0.552,0.448,1,1,1c0.552,0,1-0.448,1-1
		C32.261,3.249,33.509,2,35.044,2h20.174C56.752,2,58,3.249,58,4.783V16H32.234c-0.066-0.488-0.468-0.87-0.974-0.87
		c-0.552,0-1,0.448-1,1v1.261c0,1.318,0.545,2.576,1.496,3.451c0.831,0.765,1.884,1.173,2.939,1.173
		c0.116,0,0.232-0.005,0.348-0.015L44,21.998V24h-2.652c-0.552,0-1,0.448-1,1s0.448,1,1,1h7.565c0.552,0,1-0.448,1-1s-0.448-1-1-1
		H46v-2.002l9.134-0.002c1.252,0.104,2.447-0.306,3.369-1.155C59.455,19.966,60,18.708,60,17.391V4.783C60,2.146,57.854,0,55.217,0z
		 M55.217,20l-10.209,0.002C45.006,20.002,45.003,20,45,20s-0.005,0.002-0.009,0.002L34.96,20.003
		c-0.688,0.054-1.345-0.168-1.85-0.633c-0.393-0.361-0.659-0.843-0.778-1.37h25.595c-0.119,0.527-0.385,1.008-0.778,1.37
		C56.644,19.835,55.984,20.06,55.217,20z"/>
</g>
</svg>
