<?xml version="1.0" encoding="utf-8"?>
<!-- Generator: Adobe Illustrator 17.0.0, SVG Export Plug-In . SVG Version: 6.00 Build 0)  -->
<!DOCTYPE svg PUBLIC "-//W3C//DTD SVG 1.1//EN" "http://www.w3.org/Graphics/SVG/1.1/DTD/svg11.dtd">
<svg version="1.1" id="Layer_1" xmlns="http://www.w3.org/2000/svg" xmlns:xlink="http://www.w3.org/1999/xlink" x="0px" y="0px"
	 width="60px" height="60px" viewBox="0 0 60 60" enable-background="new 0 0 60 60" xml:space="preserve">
<g>
	<path fill="#010101" d="M22.255,29.919c0.267,0,0.534-0.106,0.731-0.317L38,13.534v7.639c0,0.552,0.448,1,1,1s1-0.448,1-1V11.087
		c0-0.019-0.01-0.036-0.011-0.055c0.009-0.278-0.087-0.558-0.306-0.763c-0.303-0.283-0.735-0.342-1.091-0.183H30
		c-0.552,0-1,0.448-1,1c0,0.552,0.448,1,1,1h6.616L21.524,28.236c-0.377,0.403-0.356,1.036,0.048,1.413
		C21.765,29.83,22.01,29.919,22.255,29.919z"/>
	<path fill="#010101" d="M18.078,49.388c0.052,0.122,0.127,0.231,0.22,0.322c0.002,0.001,0.002,0.004,0.003,0.005
		c0.035,0.034,0.079,0.048,0.117,0.076c0.065,0.048,0.126,0.1,0.202,0.131C18.742,49.973,18.871,50,19,50h9.739c0.552,0,1-0.448,1-1
		s-0.448-1-1-1h-7.367l15.826-16.221c0.386-0.395,0.378-1.028-0.018-1.414c-0.395-0.384-1.028-0.378-1.414,0.018L20,46.543v-7.717
		c0-0.552-0.448-1-1-1s-1,0.448-1,1V49c0,0.002,0.001,0.004,0.001,0.006C18.002,49.136,18.027,49.266,18.078,49.388z"/>
	<path fill="#010101" d="M59,0H1C0.448,0,0,0.448,0,1v58c0,0.552,0.448,1,1,1h58c0.552,0,1-0.448,1-1V1C60,0.448,59.552,0,59,0z
		 M58,58H2V2h56V58z"/>
</g>
</svg>
