<?xml version="1.0" encoding="utf-8"?>
<!-- Generator: Adobe Illustrator 17.0.0, SVG Export Plug-In . SVG Version: 6.00 Build 0)  -->
<!DOCTYPE svg PUBLIC "-//W3C//DTD SVG 1.1//EN" "http://www.w3.org/Graphics/SVG/1.1/DTD/svg11.dtd">
<svg version="1.1" id="Layer_1" xmlns="http://www.w3.org/2000/svg" xmlns:xlink="http://www.w3.org/1999/xlink" x="0px" y="0px"
	 width="60px" height="60px" viewBox="0 0 60 60" enable-background="new 0 0 60 60" xml:space="preserve">
<g>
	<path fill="#010101" d="M29.446,1.554c-0.391-0.391-1.023-0.391-1.414,0L0.293,29.293c-0.391,0.391-0.391,1.023,0,1.414
		l27.739,27.739c0.195,0.195,0.451,0.293,0.707,0.293c0.256,0,0.512-0.098,0.707-0.293l27.739-27.739
		c0.391-0.391,0.391-1.023,0-1.414L29.446,1.554z M28.739,56.325L2.414,30L28.739,3.675L55.065,30L28.739,56.325z"/>
	<path fill="#010101" d="M21.248,24.081c-0.364,0.416-0.322,1.047,0.094,1.411c0.417,0.364,1.048,0.322,1.411-0.094L28,19.401
		v20.677l-5.248-5.997c-0.364-0.415-0.996-0.458-1.411-0.094c-0.416,0.364-0.458,0.995-0.094,1.411l7,8
		c0.19,0.217,0.464,0.341,0.752,0.341s0.562-0.125,0.752-0.341l7-8c0.364-0.416,0.322-1.047-0.094-1.411
		c-0.417-0.363-1.047-0.32-1.411,0.094L30,40.078V19.401l5.248,5.997c0.198,0.226,0.475,0.341,0.753,0.341
		c0.233,0,0.468-0.082,0.658-0.248c0.416-0.364,0.458-0.995,0.094-1.411l-7-8c-0.38-0.434-1.125-0.434-1.505,0L21.248,24.081z"/>
</g>
</svg>
