<?xml version="1.0" encoding="utf-8"?>
<!-- Generator: Adobe Illustrator 17.0.0, SVG Export Plug-In . SVG Version: 6.00 Build 0)  -->
<!DOCTYPE svg PUBLIC "-//W3C//DTD SVG 1.1//EN" "http://www.w3.org/Graphics/SVG/1.1/DTD/svg11.dtd">
<svg version="1.1" id="Layer_1" xmlns="http://www.w3.org/2000/svg" xmlns:xlink="http://www.w3.org/1999/xlink" x="0px" y="0px"
	 width="60px" height="60px" viewBox="0 0 60 60" enable-background="new 0 0 60 60" xml:space="preserve">
<g>
	<path fill="#010101" d="M25.01,25.597L4.022,46.586V33.87c0-0.552-0.448-1-1-1c-0.552,0-1,0.448-1,1V49
		c0,0.13,0.027,0.26,0.077,0.382c0.101,0.245,0.296,0.439,0.541,0.541C2.762,49.973,2.892,50,3.022,50h15.13c0.552,0,1-0.448,1-1
		s-0.448-1-1-1H5.436l20.988-20.989c0.391-0.391,0.391-1.023,0-1.414C26.034,25.206,25.401,25.206,25.01,25.597z"/>
	<path fill="#010101" d="M57.901,12.621c-0.039-0.094-0.1-0.174-0.164-0.251c-0.019-0.023-0.026-0.051-0.048-0.073
		c-0.001-0.001-0.002-0.001-0.002-0.002c-0.092-0.093-0.202-0.167-0.324-0.218c-0.122-0.051-0.252-0.077-0.382-0.077
		c-0.001,0-0.002-0.001-0.003-0.001h-16.13c-0.552,0-1,0.448-1,1s0.448,1,1,1h13.695L31.319,36.941
		c-0.393,0.388-0.397,1.021-0.009,1.414c0.196,0.198,0.454,0.297,0.711,0.297c0.254,0,0.508-0.096,0.703-0.288l23.253-22.97v13.433
		c0,0.552,0.448,1,1,1s1-0.448,1-1V13c0-0.03-0.015-0.056-0.017-0.086C57.952,12.814,57.94,12.715,57.901,12.621z"/>
</g>
</svg>
