<?xml version="1.0" encoding="utf-8"?>
<!-- Generator: Adobe Illustrator 17.0.0, SVG Export Plug-In . SVG Version: 6.00 Build 0)  -->
<!DOCTYPE svg PUBLIC "-//W3C//DTD SVG 1.1//EN" "http://www.w3.org/Graphics/SVG/1.1/DTD/svg11.dtd">
<svg version="1.1" id="Layer_1" xmlns="http://www.w3.org/2000/svg" xmlns:xlink="http://www.w3.org/1999/xlink" x="0px" y="0px"
	 width="60px" height="60px" viewBox="0 0 60 60" enable-background="new 0 0 60 60" xml:space="preserve">
<g>
	<path fill="#010101" d="M36.249,34.336L14,56.586V43.87c0-0.552-0.447-1-1-1c-0.553,0-1,0.448-1,1V59
		c0,0.13,0.026,0.26,0.077,0.382c0.101,0.245,0.296,0.44,0.541,0.541C12.74,59.973,12.87,60,13,60h15.131c0.553,0,1-0.448,1-1
		s-0.447-1-1-1H15.414l22.249-22.25c0.391-0.391,0.391-1.023,0-1.414C37.272,33.946,36.64,33.946,36.249,34.336z"/>
	<path fill="#010101" d="M49.382,4.077C49.26,4.026,49.13,4,49,4H33.174c-0.553,0-1,0.448-1,1s0.447,1,1,1h13.412L25.293,27.293
		c-0.391,0.391-0.391,1.023,0,1.414C25.488,28.902,25.744,29,26,29c0.256,0,0.512-0.098,0.707-0.293L48,7.414v13.76
		c0,0.552,0.447,1,1,1c0.553,0,1-0.448,1-1V5c0-0.13-0.026-0.26-0.077-0.382C49.822,4.373,49.627,4.179,49.382,4.077z"/>
</g>
</svg>
