<?xml version="1.0" encoding="utf-8"?>
<!-- Generator: Adobe Illustrator 17.0.0, SVG Export Plug-In . SVG Version: 6.00 Build 0)  -->
<!DOCTYPE svg PUBLIC "-//W3C//DTD SVG 1.1//EN" "http://www.w3.org/Graphics/SVG/1.1/DTD/svg11.dtd">
<svg version="1.1" id="Layer_1" xmlns="http://www.w3.org/2000/svg" xmlns:xlink="http://www.w3.org/1999/xlink" x="0px" y="0px"
	 width="60px" height="60px" viewBox="0 0 60 60" enable-background="new 0 0 60 60" xml:space="preserve">
<g>
	<path fill="#010101" d="M45.707,24.293L31.708,10.294c-0.092-0.093-0.203-0.166-0.326-0.217c-0.244-0.101-0.52-0.101-0.764,0
		c-0.123,0.051-0.234,0.124-0.326,0.217L16.293,24.293c-0.391,0.391-0.391,1.023,0,1.414c0.391,0.391,1.023,0.391,1.414,0L30,13.414
		V49c0,0.552,0.447,1,1,1c0.553,0,1-0.448,1-1V13.414l12.293,12.293C44.488,25.902,44.744,26,45,26c0.256,0,0.512-0.098,0.707-0.293
		C46.098,25.316,46.098,24.684,45.707,24.293z"/>
	<path fill="#010101" d="M59,0H46.392c-0.553,0-1,0.448-1,1s0.447,1,1,1H58v56H46.392c-0.553,0-1,0.448-1,1s0.447,1,1,1H59
		c0.553,0,1-0.448,1-1V1C60,0.448,59.553,0,59,0z"/>
	<path fill="#010101" d="M1,60h15.131c0.553,0,1-0.448,1-1s-0.447-1-1-1H2V2h14.131c0.553,0,1-0.448,1-1s-0.447-1-1-1H1
		C0.447,0,0,0.448,0,1v58C0,59.552,0.447,60,1,60z"/>
</g>
</svg>
