<?xml version="1.0" encoding="utf-8"?>
<!-- Generator: Adobe Illustrator 17.0.0, SVG Export Plug-In . SVG Version: 6.00 Build 0)  -->
<!DOCTYPE svg PUBLIC "-//W3C//DTD SVG 1.1//EN" "http://www.w3.org/Graphics/SVG/1.1/DTD/svg11.dtd">
<svg version="1.1" id="Layer_1" xmlns="http://www.w3.org/2000/svg" xmlns:xlink="http://www.w3.org/1999/xlink" x="0px" y="0px"
	 width="60px" height="60px" viewBox="0 0 60 60" enable-background="new 0 0 60 60" xml:space="preserve">
<g>
	<path fill="#010101" d="M14.293,24.707c0.391,0.391,1.023,0.391,1.414,0L28,12.414V43.13c0,0.552,0.448,1,1,1s1-0.448,1-1V12.547
		l11.267,12.134C41.464,24.893,41.732,25,42,25c0.244,0,0.488-0.088,0.681-0.267c0.404-0.376,0.428-1.009,0.052-1.414L29.027,8.559
		L14.293,23.293C13.902,23.684,13.902,24.316,14.293,24.707z"/>
	<path fill="#010101" d="M4.412,57c0-0.552-0.448-1-1-1H2v-1.412c0-0.552-0.448-1-1-1s-1,0.448-1,1V58h3.412
		C3.964,58,4.412,57.552,4.412,57z"/>
	<path fill="#010101" d="M57,54c-0.552,0-1,0.448-1,1v1h-1.412c-0.552,0-1,0.448-1,1s0.448,1,1,1H58v-3C58,54.448,57.552,54,57,54z"
		/>
	<path fill="#010101" d="M1,4.412c0.552,0,1-0.448,1-1V2h1.412c0.552,0,1-0.448,1-1s-0.448-1-1-1H0v3.412
		C0,3.964,0.448,4.412,1,4.412z"/>
	<path fill="#010101" d="M58,0.479h-3.412c-0.552,0-1,0.448-1,1c0,0.552,0.448,1,1,1H56v1c0,0.552,0.448,1,1,1s1-0.448,1-1V0.479z"
		/>
	<path fill="#010101" d="M8.236,58h2.412c0.552,0,1-0.448,1-1s-0.448-1-1-1H8.236c-0.552,0-1,0.448-1,1S7.684,58,8.236,58z"/>
	<path fill="#010101" d="M27.533,56c-0.552,0-1,0.448-1,1s0.448,1,1,1h2.412c0.552,0,1-0.448,1-1s-0.448-1-1-1H27.533z"/>
	<path fill="#010101" d="M17.885,56c-0.552,0-1,0.448-1,1s0.448,1,1,1h2.412c0.552,0,1-0.448,1-1s-0.448-1-1-1H17.885z"/>
	<path fill="#010101" d="M37.182,56c-0.552,0-1,0.448-1,1s0.448,1,1,1h2.412c0.552,0,1-0.448,1-1s-0.448-1-1-1H37.182z"/>
	<path fill="#010101" d="M50.242,57c0-0.552-0.448-1-1-1H46.83c-0.552,0-1,0.448-1,1s0.448,1,1,1h2.413
		C49.794,58,50.242,57.552,50.242,57z"/>
	<path fill="#010101" d="M8.236,2h2.412c0.552,0,1-0.448,1-1s-0.448-1-1-1H8.236c-0.552,0-1,0.448-1,1S7.684,2,8.236,2z"/>
	<path fill="#010101" d="M29.945,2c0.552,0,1-0.448,1-1s-0.448-1-1-1h-2.412c-0.552,0-1,0.448-1,1s0.448,1,1,1H29.945z"/>
	<path fill="#010101" d="M20.297,2c0.552,0,1-0.448,1-1s-0.448-1-1-1h-2.412c-0.552,0-1,0.448-1,1s0.448,1,1,1H20.297z"/>
	<path fill="#010101" d="M39.594,2c0.552,0,1-0.448,1-1s-0.448-1-1-1h-2.412c-0.552,0-1,0.448-1,1s0.448,1,1,1H39.594z"/>
	<path fill="#010101" d="M49.242,0H46.83c-0.552,0-1,0.448-1,1s0.448,1,1,1h2.413c0.552,0,1-0.448,1-1S49.794,0,49.242,0z"/>
	<path fill="#010101" d="M58,47.588c0-0.552-0.448-1-1-1s-1,0.448-1,1V50c0,0.552,0.448,1,1,1s1-0.448,1-1V47.588z"/>
	<path fill="#010101" d="M58,28.291c0-0.552-0.448-1-1-1s-1,0.448-1,1v2.412c0,0.552,0.448,1,1,1s1-0.448,1-1V28.291z"/>
	<path fill="#010101" d="M58,37.94c0-0.552-0.448-1-1-1s-1,0.448-1,1v2.412c0,0.552,0.448,1,1,1s1-0.448,1-1V37.94z"/>
	<path fill="#010101" d="M58,18.643c0-0.552-0.448-1-1-1s-1,0.448-1,1v2.412c0,0.552,0.448,1,1,1s1-0.448,1-1V18.643z"/>
	<path fill="#010101" d="M58,8.994c0-0.552-0.448-1-1-1s-1,0.448-1,1v2.412c0,0.552,0.448,1,1,1s1-0.448,1-1V8.994z"/>
	<path fill="#010101" d="M1,50.764c0.552,0,1-0.448,1-1v-2.412c0-0.552-0.448-1-1-1s-1,0.448-1,1v2.412
		C0,50.316,0.448,50.764,1,50.764z"/>
	<path fill="#010101" d="M1,31.467c0.552,0,1-0.448,1-1v-2.412c0-0.552-0.448-1-1-1s-1,0.448-1,1v2.412
		C0,31.019,0.448,31.467,1,31.467z"/>
	<path fill="#010101" d="M1,41.115c0.552,0,1-0.448,1-1v-2.412c0-0.552-0.448-1-1-1s-1,0.448-1,1v2.412
		C0,40.668,0.448,41.115,1,41.115z"/>
	<path fill="#010101" d="M1,21.818c0.552,0,1-0.448,1-1v-2.412c0-0.552-0.448-1-1-1s-1,0.448-1,1v2.412
		C0,21.371,0.448,21.818,1,21.818z"/>
	<path fill="#010101" d="M1,12.17c0.552,0,1-0.448,1-1V8.758c0-0.552-0.448-1-1-1s-1,0.448-1,1v2.413C0,11.723,0.448,12.17,1,12.17z
		"/>
</g>
</svg>
