<?xml version="1.0" encoding="utf-8"?>
<!-- Generator: Adobe Illustrator 17.0.0, SVG Export Plug-In . SVG Version: 6.00 Build 0)  -->
<!DOCTYPE svg PUBLIC "-//W3C//DTD SVG 1.1//EN" "http://www.w3.org/Graphics/SVG/1.1/DTD/svg11.dtd">
<svg version="1.1" id="Layer_1" xmlns="http://www.w3.org/2000/svg" xmlns:xlink="http://www.w3.org/1999/xlink" x="0px" y="0px"
	 width="60px" height="60px" viewBox="0 0 60 60" enable-background="new 0 0 60 60" xml:space="preserve">
<g>
	<path fill="#010101" d="M27,37c0.552,0,1-0.448,1-1V8.414l8.293,8.293C36.488,16.902,36.744,17,37,17s0.512-0.098,0.707-0.293
		c0.391-0.391,0.391-1.023,0-1.414l-9.999-9.999c-0.092-0.092-0.203-0.166-0.325-0.216c-0.244-0.101-0.52-0.101-0.764,0
		c-0.123,0.051-0.233,0.124-0.325,0.216l-9.999,9.999c-0.391,0.391-0.391,1.023,0,1.414c0.391,0.391,1.023,0.391,1.414,0L26,8.414
		V36C26,36.552,26.448,37,27,37z"/>
	<path fill="#010101" d="M6,32.479V51c0,2.664,2.336,5,5,5h15v2h-6.391c-0.552,0-1,0.448-1,1s0.448,1,1,1h15.13c0.552,0,1-0.448,1-1
		s-0.448-1-1-1H28v-2h15c2.617,0,5-2.383,5-5V32c0-2.393-2.009-4-5-4h-9c-0.552,0-1,0.448-1,1s0.448,1,1,1h9c0.704,0,3,0.144,3,2v16
		H8V32.479C8,30.927,9.525,30,11,30h9c0.552,0,1-0.448,1-1s-0.448-1-1-1h-9C8.196,28,6,29.967,6,32.479z M46,50v1
		c0,1.542-1.458,3-3,3H11c-1.542,0-3-1.458-3-3v-1H46z"/>
</g>
</svg>
