<?xml version="1.0" encoding="utf-8"?>
<!-- Generator: Adobe Illustrator 17.0.0, SVG Export Plug-In . SVG Version: 6.00 Build 0)  -->
<!DOCTYPE svg PUBLIC "-//W3C//DTD SVG 1.1//EN" "http://www.w3.org/Graphics/SVG/1.1/DTD/svg11.dtd">
<svg version="1.1" id="Layer_1" xmlns="http://www.w3.org/2000/svg" xmlns:xlink="http://www.w3.org/1999/xlink" x="0px" y="0px"
	 width="60px" height="60px" viewBox="0 0 60 60" enable-background="new 0 0 60 60" xml:space="preserve">
<g>
	<path fill="#010101" d="M29,58c15.991,0,29-13.009,29-29C58,13.009,44.991,0,29,0S0,13.009,0,29C0,44.991,13.009,58,29,58z M29,2
		c14.888,0,27,12.112,27,27S43.888,56,29,56S2,43.888,2,29S14.112,2,29,2z"/>
	<path fill="#010101" d="M16.736,27.677L28,15.424V46.13c0,0.552,0.448,1,1,1s1-0.448,1-1V15.667l11.271,12.017
		C41.467,27.894,41.733,28,42,28c0.246,0,0.491-0.09,0.684-0.271c0.403-0.378,0.423-1.011,0.045-1.414l-13.13-14
		C29.41,12.114,29.146,12,28.87,12c-0.001,0-0.003,0-0.005,0c-0.278,0.002-0.543,0.119-0.731,0.323l-12.87,14
		c-0.374,0.407-0.347,1.039,0.06,1.413C15.73,28.11,16.363,28.083,16.736,27.677z"/>
</g>
</svg>
