<?xml version="1.0" encoding="utf-8"?>
<!-- Generator: Adobe Illustrator 17.0.0, SVG Export Plug-In . SVG Version: 6.00 Build 0)  -->
<!DOCTYPE svg PUBLIC "-//W3C//DTD SVG 1.1//EN" "http://www.w3.org/Graphics/SVG/1.1/DTD/svg11.dtd">
<svg version="1.1" id="Layer_1" xmlns="http://www.w3.org/2000/svg" xmlns:xlink="http://www.w3.org/1999/xlink" x="0px" y="0px"
	 width="60px" height="60px" viewBox="0 0 60 60" enable-background="new 0 0 60 60" xml:space="preserve">
<g>
	<path fill="#010101" d="M21,48h18c0.552,0,1-0.448,1-1V20h7.652c0.403,0,0.766-0.242,0.922-0.613
		c0.156-0.371,0.074-0.8-0.208-1.087l-17.652-18c-0.376-0.384-1.052-0.384-1.428,0l-17.652,18c-0.282,0.288-0.364,0.716-0.208,1.087
		C11.581,19.758,11.945,20,12.348,20H20v27C20,47.552,20.448,48,21,48z M14.729,18L30,2.428L45.271,18H39c-0.552,0-1,0.448-1,1v27
		H22V19c0-0.552-0.448-1-1-1H14.729z"/>
	<path fill="#010101" d="M59,45c-0.552,0-1,0.448-1,1v12H2V46c0-0.552-0.448-1-1-1s-1,0.448-1,1v13c0,0.552,0.448,1,1,1h58
		c0.552,0,1-0.448,1-1V46C60,45.448,59.552,45,59,45z"/>
</g>
</svg>
