<?xml version="1.0" encoding="utf-8"?>
<!-- Generator: Adobe Illustrator 17.0.0, SVG Export Plug-In . SVG Version: 6.00 Build 0)  -->
<!DOCTYPE svg PUBLIC "-//W3C//DTD SVG 1.1//EN" "http://www.w3.org/Graphics/SVG/1.1/DTD/svg11.dtd">
<svg version="1.1" id="Layer_1" xmlns="http://www.w3.org/2000/svg" xmlns:xlink="http://www.w3.org/1999/xlink" x="0px" y="0px"
	 width="60px" height="60px" viewBox="0 0 60 60" enable-background="new 0 0 60 60" xml:space="preserve">
<g>
	<path fill="#010101" d="M14,20h10v10c0,0.552,0.447,1,1,1c0.553,0,1-0.448,1-1V19c0-0.552-0.447-1-1-1h-8.619L31.652,2.428
		L46.924,18H39c-0.553,0-1,0.448-1,1v11c0,0.552,0.447,1,1,1c0.553,0,1-0.448,1-1V20h9.305c0.402,0,0.766-0.242,0.922-0.613
		c0.156-0.371,0.074-0.8-0.208-1.087l-17.652-18c-0.375-0.384-1.053-0.384-1.428,0l-17.652,18c-0.282,0.288-0.364,0.716-0.208,1.087
		C13.234,19.758,13.598,20,14,20z"/>
	<path fill="#010101" d="M25,42.348c0.553,0,1-0.448,1-1v-6.304c0-0.552-0.447-1-1-1c-0.553,0-1,0.448-1,1v6.304
		C24,41.9,24.447,42.348,25,42.348z"/>
	<path fill="#010101" d="M39,42.087c0.553,0,1-0.448,1-1v-6.304c0-0.552-0.447-1-1-1c-0.553,0-1,0.448-1,1v6.304
		C38,41.639,38.447,42.087,39,42.087z"/>
	<path fill="#010101" d="M24,50.174c0,0.552,0.447,1,1,1c0.553,0,1-0.448,1-1v-3.782c0-0.552-0.447-1-1-1c-0.553,0-1,0.448-1,1
		V50.174z"/>
	<path fill="#010101" d="M38,49.913c0,0.552,0.447,1,1,1c0.553,0,1-0.448,1-1V46.13c0-0.552-0.447-1-1-1c-0.553,0-1,0.448-1,1
		V49.913z"/>
	<path fill="#010101" d="M24,56.479c0,0.552,0.447,1,1,1c0.553,0,1-0.448,1-1v-1.261c0-0.552-0.447-1-1-1c-0.553,0-1,0.448-1,1
		V56.479z"/>
	<path fill="#010101" d="M38,56.217c0,0.552,0.447,1,1,1c0.553,0,1-0.448,1-1v-1.261c0-0.552-0.447-1-1-1c-0.553,0-1,0.448-1,1
		V56.217z"/>
</g>
</svg>
