<?xml version="1.0" encoding="utf-8"?>
<!-- Generator: Adobe Illustrator 17.0.0, SVG Export Plug-In . SVG Version: 6.00 Build 0)  -->
<!DOCTYPE svg PUBLIC "-//W3C//DTD SVG 1.1//EN" "http://www.w3.org/Graphics/SVG/1.1/DTD/svg11.dtd">
<svg version="1.1" id="Layer_1" xmlns="http://www.w3.org/2000/svg" xmlns:xlink="http://www.w3.org/1999/xlink" x="0px" y="0px"
	 width="60px" height="60px" viewBox="0 0 60 60" enable-background="new 0 0 60 60" xml:space="preserve">
<g>
	<path fill="#010101" d="M14.87,28H22v5.783c0,0.552,0.448,1,1,1s1-0.448,1-1V27c0-0.552-0.448-1-1-1h-5.8L30,12.538L42.8,26H37
		c-0.552,0-1,0.448-1,1v6.783c0,0.552,0.448,1,1,1s1-0.448,1-1V28h7.13c0.4,0,0.761-0.238,0.919-0.605
		c0.158-0.368,0.082-0.794-0.194-1.084l-15.13-15.913c-0.377-0.397-1.072-0.397-1.449,0l-15.13,15.913
		c-0.276,0.29-0.352,0.716-0.194,1.084C14.108,27.762,14.47,28,14.87,28z"/>
	<path fill="#010101" d="M23,37.826c-0.552,0-1,0.448-1,1v5.043c0,0.552,0.448,1,1,1s1-0.448,1-1v-5.043
		C24,38.274,23.552,37.826,23,37.826z"/>
	<path fill="#010101" d="M37,37.826c-0.552,0-1,0.448-1,1v5.043c0,0.552,0.448,1,1,1s1-0.448,1-1v-5.043
		C38,38.274,37.552,37.826,37,37.826z"/>
	<path fill="#010101" d="M23,47.913c-0.552,0-1,0.448-1,1v5.043c0,0.552,0.448,1,1,1s1-0.448,1-1v-5.043
		C24,48.361,23.552,47.913,23,47.913z"/>
	<path fill="#010101" d="M37,47.913c-0.552,0-1,0.448-1,1v5.043c0,0.552,0.448,1,1,1s1-0.448,1-1v-5.043
		C38,48.361,37.552,47.913,37,47.913z"/>
	<path fill="#010101" d="M59,0H1C0.448,0,0,0.448,0,1v58c0,0.552,0.448,1,1,1h58c0.552,0,1-0.448,1-1V1C60,0.448,59.552,0,59,0z
		 M58,58H2V2h56V58z"/>
</g>
</svg>
