<?xml version="1.0" encoding="utf-8"?>
<!-- Generator: Adobe Illustrator 17.0.0, SVG Export Plug-In . SVG Version: 6.00 Build 0)  -->
<!DOCTYPE svg PUBLIC "-//W3C//DTD SVG 1.1//EN" "http://www.w3.org/Graphics/SVG/1.1/DTD/svg11.dtd">
<svg version="1.1" id="Layer_1" xmlns="http://www.w3.org/2000/svg" xmlns:xlink="http://www.w3.org/1999/xlink" x="0px" y="0px"
	 width="60px" height="60px" viewBox="0 0 60 60" enable-background="new 0 0 60 60" xml:space="preserve">
<g>
	<path fill="#010101" d="M31,33.521c0.552,0,1-0.448,1-1V3.557l10.265,11.121C42.462,14.892,42.731,15,43,15
		c0.242,0,0.485-0.088,0.678-0.265c0.406-0.375,0.431-1.007,0.057-1.413l-12-13c-0.004-0.005-0.011-0.006-0.016-0.011
		C31.537,0.121,31.284,0,31,0s-0.537,0.121-0.719,0.311c-0.004,0.005-0.011,0.006-0.016,0.011l-12,13
		c-0.374,0.406-0.349,1.039,0.057,1.413c0.407,0.375,1.039,0.349,1.413-0.057L30,3.557v28.964C30,33.074,30.448,33.521,31,33.521z"
		/>
	<path fill="#010101" d="M59.922,40.616c-0.051-0.122-0.125-0.232-0.217-0.324c0,0-0.001-0.001-0.001-0.002l-10.087-10
		C49.43,30.104,49.177,30,48.913,30h-6.304c-0.552,0-1,0.448-1,1s0.448,1,1,1h5.893l8.07,8H41c-0.552,0-1,0.448-1,1v0.348V46H20
		v-4.652V41c0-0.552-0.448-1-1-1H3.429l8.07-8h8.415c0.552,0,1-0.448,1-1s-0.448-1-1-1h-8.826c-0.264,0-0.517,0.104-0.704,0.29
		l-10.087,10c0,0-0.001,0.001-0.001,0.002c-0.092,0.092-0.166,0.202-0.217,0.324C0.027,40.738,0.001,40.868,0,40.998
		C0,40.999,0,40.999,0,41v18c0,0.552,0.448,1,1,1h58c0.552,0,1-0.448,1-1V41c0-0.001,0-0.001,0-0.002
		C59.999,40.868,59.973,40.738,59.922,40.616z M58,58H2V42h16v5c0,0.552,0.448,1,1,1h22c0.552,0,1-0.448,1-1v-5h16V58z"/>
</g>
</svg>
