<?xml version="1.0" encoding="utf-8"?>
<!-- Generator: Adobe Illustrator 17.0.0, SVG Export Plug-In . SVG Version: 6.00 Build 0)  -->
<!DOCTYPE svg PUBLIC "-//W3C//DTD SVG 1.1//EN" "http://www.w3.org/Graphics/SVG/1.1/DTD/svg11.dtd">
<svg version="1.1" id="Layer_1" xmlns="http://www.w3.org/2000/svg" xmlns:xlink="http://www.w3.org/1999/xlink" x="0px" y="0px"
	 width="60px" height="60px" viewBox="0 0 60 60" enable-background="new 0 0 60 60" xml:space="preserve">
<g>
	<path fill="#010101" d="M21.707,11.707L30,3.414V31c0,0.552,0.448,1,1,1s1-0.448,1-1V3.414l8.293,8.293
		C40.488,11.902,40.744,12,41,12s0.512-0.098,0.707-0.293c0.391-0.391,0.391-1.023,0-1.414l-9.999-9.999
		c-0.092-0.092-0.203-0.166-0.325-0.216c-0.244-0.101-0.52-0.101-0.764,0c-0.123,0.051-0.233,0.124-0.325,0.216l-9.999,9.999
		c-0.391,0.391-0.391,1.023,0,1.414C20.684,12.098,21.316,12.098,21.707,11.707z"/>
	<path fill="#010101" d="M59.923,44.617c-0.005-0.012-0.013-0.021-0.019-0.032c-0.033-0.071-0.069-0.141-0.118-0.204l-12.609-16
		C46.987,28.141,46.697,28,46.391,28h-3.782c-0.552,0-1,0.448-1,1s0.448,1,1,1h3.297l11.033,14H3.061l11.033-14H19
		c0.552,0,1-0.448,1-1s-0.448-1-1-1h-5.391c-0.306,0-0.596,0.141-0.786,0.381l-12.609,16c-0.05,0.063-0.086,0.133-0.118,0.204
		c-0.005,0.011-0.014,0.021-0.019,0.032c-0.045,0.11-0.065,0.226-0.069,0.344C0.007,44.975,0,44.986,0,45v10c0,2.757,2.243,5,5,5h50
		c2.757,0,5-2.243,5-5V45c0-0.014-0.007-0.025-0.008-0.039C59.987,44.843,59.968,44.727,59.923,44.617z M55,58H5
		c-1.654,0-3-1.346-3-3v-9h56v9C58,56.654,56.654,58,55,58z"/>
	<path fill="#010101" d="M50.174,50.217H40.087c-0.552,0-1,0.448-1,1c0,0.552,0.448,1,1,1h10.087c0.552,0,1-0.448,1-1
		C51.174,50.665,50.726,50.217,50.174,50.217z"/>
</g>
</svg>
