<?xml version="1.0" encoding="utf-8"?>
<!-- Generator: Adobe Illustrator 17.0.0, SVG Export Plug-In . SVG Version: 6.00 Build 0)  -->
<!DOCTYPE svg PUBLIC "-//W3C//DTD SVG 1.1//EN" "http://www.w3.org/Graphics/SVG/1.1/DTD/svg11.dtd">
<svg version="1.1" id="Layer_1" xmlns="http://www.w3.org/2000/svg" xmlns:xlink="http://www.w3.org/1999/xlink" x="0px" y="0px"
	 width="60px" height="60px" viewBox="0 0 60 60" enable-background="new 0 0 60 60" xml:space="preserve">
<g>
	<path fill="#010101" d="M53.978,38h-48c-3.364,0-6,2.636-6,6v9.739c0,3.248,2.62,5.997,6.043,6.261h47.913
		c0.026,0,0.052-0.001,0.078-0.003c3.345-0.261,5.966-3.01,5.966-6.253l0.043-9.7C60.021,40.711,57.31,38,53.978,38z M57.978,53.739
		c0,2.199-1.791,4.063-4.085,4.261L6.1,58.003c-2.312-0.18-4.121-2.053-4.121-4.264V44c0-2.243,1.757-4,4-4h48
		c2.23,0,4.043,1.814,4.043,4.039L57.978,53.739z"/>
	<path fill="#010101" d="M51.413,50H8.543c-0.553,0-1,0.448-1,1c0,0.552,0.447,1,1,1h42.87c0.553,0,1-0.448,1-1
		C52.413,50.448,51.966,50,51.413,50z"/>
	<path fill="#010101" d="M46.37,47.435c0.694,0,1.261-0.563,1.261-1.261c0-0.697-0.566-1.261-1.261-1.261
		c-0.7,0-1.261,0.564-1.261,1.261C45.109,46.871,45.67,47.435,46.37,47.435z"/>
	<path fill="#010101" d="M51.413,44.913c-0.7,0-1.261,0.564-1.261,1.261c0,0.698,0.561,1.261,1.261,1.261
		c0.694,0,1.261-0.563,1.261-1.261C52.674,45.477,52.107,44.913,51.413,44.913z"/>
	<path fill="#010101" d="M15.685,15.707L27.978,3.414V31c0,0.552,0.447,1,1,1c0.553,0,1-0.448,1-1V3.414l12.293,12.293
		C42.467,15.902,42.723,16,42.978,16c0.256,0,0.512-0.098,0.707-0.293c0.391-0.391,0.391-1.023,0-1.414L29.687,0.294
		c-0.092-0.093-0.203-0.166-0.326-0.217C29.238,0.026,29.109,0,28.978,0l0,0c-0.001,0-0.001,0-0.002,0
		c-0.13,0-0.259,0.026-0.38,0.077c-0.123,0.051-0.234,0.124-0.326,0.217L14.271,14.293c-0.391,0.391-0.391,1.023,0,1.414
		C14.662,16.098,15.295,16.098,15.685,15.707z"/>
</g>
</svg>
