<?xml version="1.0" encoding="utf-8"?>
<!-- Generator: Adobe Illustrator 17.0.0, SVG Export Plug-In . SVG Version: 6.00 Build 0)  -->
<!DOCTYPE svg PUBLIC "-//W3C//DTD SVG 1.1//EN" "http://www.w3.org/Graphics/SVG/1.1/DTD/svg11.dtd">
<svg version="1.1" id="Layer_1" xmlns="http://www.w3.org/2000/svg" xmlns:xlink="http://www.w3.org/1999/xlink" x="0px" y="0px"
	 width="48px" height="48px" viewBox="0 0 48 48" enable-background="new 0 0 48 48" xml:space="preserve">
<g>
	<path fill="#010101" d="M47.707,24.293l-10-10c-0.391-0.391-1.023-0.391-1.414,0c-0.391,0.391-0.391,1.023,0,1.414L45.586,25
		l-9.293,9.293c-0.391,0.391-0.391,1.023,0,1.414C36.488,35.902,36.744,36,37,36s0.512-0.098,0.707-0.293l10-10
		C48.098,25.316,48.098,24.684,47.707,24.293z"/>
	<path fill="#010101" d="M2.414,25l9.293-9.293c0.391-0.391,0.391-1.023,0-1.414c-0.391-0.391-1.023-0.391-1.414,0l-10,10
		c-0.391,0.391-0.391,1.023,0,1.414l10,10C10.488,35.902,10.744,36,11,36s0.512-0.098,0.707-0.293c0.391-0.391,0.391-1.023,0-1.414
		L2.414,25z"/>
	<path fill="#010101" d="M24,22c-1.654,0-3,1.346-3,3s1.346,3,3,3s3-1.346,3-3S25.654,22,24,22z M24,26c-0.551,0-1-0.449-1-1
		s0.449-1,1-1s1,0.449,1,1S24.551,26,24,26z"/>
	<path fill="#010101" d="M37,25c0-1.654-1.346-3-3-3s-3,1.346-3,3s1.346,3,3,3S37,26.654,37,25z M34,26c-0.551,0-1-0.449-1-1
		s0.449-1,1-1s1,0.449,1,1S34.551,26,34,26z"/>
	<path fill="#010101" d="M14,22c-1.654,0-3,1.346-3,3s1.346,3,3,3s3-1.346,3-3S15.654,22,14,22z M14,26c-0.551,0-1-0.449-1-1
		s0.449-1,1-1s1,0.449,1,1S14.551,26,14,26z"/>
</g>
</svg>
