<?xml version="1.0" encoding="utf-8"?>
<!-- Generator: Adobe Illustrator 17.0.0, SVG Export Plug-In . SVG Version: 6.00 Build 0)  -->
<!DOCTYPE svg PUBLIC "-//W3C//DTD SVG 1.1//EN" "http://www.w3.org/Graphics/SVG/1.1/DTD/svg11.dtd">
<svg version="1.1" id="Layer_1" xmlns="http://www.w3.org/2000/svg" xmlns:xlink="http://www.w3.org/1999/xlink" x="0px" y="0px"
	 width="48px" height="48px" viewBox="0 0 48 48" enable-background="new 0 0 48 48" xml:space="preserve">
<g>
	<path fill="#010101" d="M22,16c-3.859,0-7,3.14-7,7s3.141,7,7,7s7-3.14,7-7S25.859,16,22,16z M22,28c-2.757,0-5-2.243-5-5
		s2.243-5,5-5s5,2.243,5,5S24.757,28,22,28z"/>
	<path fill="#010101" d="M45.707,6.293l-6-6c-0.391-0.391-1.023-0.391-1.414,0l-10,10c-0.391,0.391-0.391,1.023,0,1.414l6,6
		C34.488,17.902,34.744,18,35,18s0.512-0.098,0.707-0.293l10-10C46.098,7.316,46.098,6.684,45.707,6.293z M35,15.586L30.414,11
		L39,2.414L43.586,7L35,15.586z"/>
	<path fill="#010101" d="M10.707,5.293l-3-3c-0.391-0.391-1.023-0.391-1.414,0l-6,6c-0.391,0.391-0.391,1.023,0,1.414l3,3
		C3.488,12.902,3.744,13,4,13s0.512-0.098,0.707-0.293l6-6C11.098,6.316,11.098,5.684,10.707,5.293z M4,10.586L2.414,9L7,4.414
		L8.586,6L4,10.586z"/>
	<path fill="#010101" d="M16.707,11.293l-3-3c-0.391-0.391-1.023-0.391-1.414,0l-6,6c-0.391,0.391-0.391,1.023,0,1.414l3,3
		C9.488,18.902,9.744,19,10,19s0.512-0.098,0.707-0.293l6-6C17.098,12.316,17.098,11.684,16.707,11.293z M10,16.586L8.414,15
		L13,10.414L14.586,12L10,16.586z"/>
	<path fill="#010101" d="M26,42h-8c-0.553,0-1,0.448-1,1v4c0,0.552,0.447,1,1,1h8c0.553,0,1-0.448,1-1v-4C27,42.448,26.553,42,26,42
		z M25,46h-6v-2h6V46z"/>
	<path fill="#010101" d="M26,34h-8c-0.553,0-1,0.448-1,1v4c0,0.552,0.447,1,1,1h8c0.553,0,1-0.448,1-1v-4C27,34.448,26.553,34,26,34
		z M25,38h-6v-2h6V38z"/>
</g>
</svg>
