<?xml version="1.0" encoding="utf-8"?>
<!-- Generator: Adobe Illustrator 17.0.0, SVG Export Plug-In . SVG Version: 6.00 Build 0)  -->
<!DOCTYPE svg PUBLIC "-//W3C//DTD SVG 1.1//EN" "http://www.w3.org/Graphics/SVG/1.1/DTD/svg11.dtd">
<svg version="1.1" id="Layer_1" xmlns="http://www.w3.org/2000/svg" xmlns:xlink="http://www.w3.org/1999/xlink" x="0px" y="0px"
	 width="48px" height="48px" viewBox="0 0 48 48" enable-background="new 0 0 48 48" xml:space="preserve">
<g>
	<path fill="#010101" d="M11,18H2.844C2.379,18,2,17.551,2,17v-1h23c0.552,0,1-0.448,1-1V3c0-1.654-1.277-3-2.847-3H2.844
		C1.276,0,0,1.346,0,3v14c0,1.654,1.276,3,2.844,3H11c0.552,0,1-0.448,1-1S11.552,18,11,18z M2.844,2h20.309C23.62,2,24,2.449,24,3
		v11H2V3C2,2.449,2.379,2,2.844,2z"/>
	<path fill="#010101" d="M11,22H5c-0.552,0-1,0.448-1,1s0.448,1,1,1h6c0.552,0,1-0.448,1-1S11.552,22,11,22z"/>
	<path fill="#010101" d="M43.8,18H18.2c-2.316,0-4.2,2.064-4.2,4.6v16.8c0,2.537,1.884,4.6,4.2,4.6H30v2h-7c-0.552,0-1,0.448-1,1
		s0.448,1,1,1h16c0.552,0,1-0.448,1-1s-0.448-1-1-1h-7v-2h11.8c2.316,0,4.2-2.063,4.2-4.6V22.6C48,20.064,46.116,18,43.8,18z
		 M16,22.6c0-1.434,0.987-2.6,2.2-2.6h25.6c1.213,0,2.2,1.166,2.2,2.6V36H16V22.6z M43.8,42H18.2c-1.213,0-2.2-1.166-2.2-2.6V38h30
		v1.4C46,40.834,45.013,42,43.8,42z"/>
	<circle fill="#010101" cx="31" cy="40" r="1"/>
</g>
</svg>
