<?xml version="1.0" encoding="utf-8"?>
<!-- Generator: Adobe Illustrator 17.0.0, SVG Export Plug-In . SVG Version: 6.00 Build 0)  -->
<!DOCTYPE svg PUBLIC "-//W3C//DTD SVG 1.1//EN" "http://www.w3.org/Graphics/SVG/1.1/DTD/svg11.dtd">
<svg version="1.1" id="Layer_1" xmlns="http://www.w3.org/2000/svg" xmlns:xlink="http://www.w3.org/1999/xlink" x="0px" y="0px"
	 width="48px" height="48px" viewBox="0 0 48 48" enable-background="new 0 0 48 48" xml:space="preserve">
<g>
	<path fill="#010101" d="M47.991,10.958c-0.003-0.074-0.024-0.142-0.043-0.214c-0.015-0.056-0.023-0.112-0.047-0.164
		c-0.026-0.056-0.067-0.102-0.103-0.153c-0.041-0.056-0.077-0.113-0.128-0.16c-0.012-0.01-0.016-0.025-0.028-0.035l-12-10
		C35.461,0.082,35.234,0,35,0H13c-0.234,0-0.461,0.082-0.64,0.232l-12,10c-0.012,0.01-0.016,0.024-0.027,0.034
		c-0.054,0.049-0.093,0.108-0.135,0.168c-0.034,0.048-0.073,0.092-0.097,0.144c-0.026,0.055-0.035,0.115-0.051,0.174
		c-0.018,0.068-0.038,0.134-0.041,0.204C0.008,10.971,0,10.984,0,11v12v12v8c0,2.757,2.243,5,5,5h38c2.757,0,5-2.243,5-5v-8V23V11
		C48,10.985,47.992,10.973,47.991,10.958z M46,22H2V12h44V22z M2,24h44v10H2V24z M13.362,2h21.276l9.599,8H3.763L13.362,2z M43,46H5
		c-1.654,0-3-1.346-3-3v-7h44v7C46,44.654,44.654,46,43,46z"/>
	<circle fill="#010101" cx="28" cy="17" r="2"/>
	<circle fill="#010101" cx="34" cy="17" r="2"/>
	<circle fill="#010101" cx="40" cy="17" r="2"/>
	<path fill="#010101" d="M7,20c1.654,0,3-1.346,3-3s-1.346-3-3-3s-3,1.346-3,3S5.346,20,7,20z M7,16c0.552,0,1,0.449,1,1
		s-0.448,1-1,1s-1-0.449-1-1S6.448,16,7,16z"/>
	<circle fill="#010101" cx="28" cy="29" r="2"/>
	<circle fill="#010101" cx="34" cy="29" r="2"/>
	<circle fill="#010101" cx="40" cy="29" r="2"/>
	<path fill="#010101" d="M7,26c-1.654,0-3,1.346-3,3s1.346,3,3,3s3-1.346,3-3S8.654,26,7,26z M7,30c-0.552,0-1-0.449-1-1
		s0.448-1,1-1s1,0.449,1,1S7.552,30,7,30z"/>
	<circle fill="#010101" cx="28" cy="41" r="2"/>
	<circle fill="#010101" cx="34" cy="41" r="2"/>
	<circle fill="#010101" cx="40" cy="41" r="2"/>
	<path fill="#010101" d="M7,38c-1.654,0-3,1.346-3,3s1.346,3,3,3s3-1.346,3-3S8.654,38,7,38z M7,42c-0.552,0-1-0.449-1-1
		s0.448-1,1-1s1,0.449,1,1S7.552,42,7,42z"/>
</g>
</svg>
