<?xml version="1.0" encoding="utf-8"?>
<!-- Generator: Adobe Illustrator 17.0.0, SVG Export Plug-In . SVG Version: 6.00 Build 0)  -->
<!DOCTYPE svg PUBLIC "-//W3C//DTD SVG 1.1//EN" "http://www.w3.org/Graphics/SVG/1.1/DTD/svg11.dtd">
<svg version="1.1" id="Layer_1" xmlns="http://www.w3.org/2000/svg" xmlns:xlink="http://www.w3.org/1999/xlink" x="0px" y="0px"
	 width="48px" height="48px" viewBox="0 0 48 48" enable-background="new 0 0 48 48" xml:space="preserve">
<g>
	<path fill="#010101" d="M47,10H1c-0.553,0-1,0.448-1,1v12v12c0,0.552,0.447,1,1,1h23v10H11c-0.553,0-1,0.448-1,1s0.447,1,1,1h26
		c0.553,0,1-0.448,1-1s-0.447-1-1-1H26V36h21c0.553,0,1-0.448,1-1V23V11C48,10.448,47.553,10,47,10z M2,12h44v10H2V12z M2,34V24h44
		v10H2z"/>
	<circle fill="#010101" cx="28" cy="17" r="2"/>
	<circle fill="#010101" cx="34" cy="17" r="2"/>
	<circle fill="#010101" cx="40" cy="17" r="2"/>
	<path fill="#010101" d="M7,14c-1.654,0-3,1.346-3,3s1.346,3,3,3s3-1.346,3-3S8.654,14,7,14z M7,18c-0.552,0-1-0.449-1-1
		s0.448-1,1-1s1,0.449,1,1S7.552,18,7,18z"/>
	<circle fill="#010101" cx="28" cy="29" r="2"/>
	<circle fill="#010101" cx="34" cy="29" r="2"/>
	<circle fill="#010101" cx="40" cy="29" r="2"/>
	<path fill="#010101" d="M7,26c-1.654,0-3,1.346-3,3s1.346,3,3,3s3-1.346,3-3S8.654,26,7,26z M7,30c-0.552,0-1-0.449-1-1
		s0.448-1,1-1s1,0.449,1,1S7.552,30,7,30z"/>
	<circle fill="#010101" cx="3" cy="47" r="1"/>
	<circle fill="#010101" cx="7" cy="47" r="1"/>
	<circle fill="#010101" cx="41" cy="47" r="1"/>
	<circle fill="#010101" cx="45" cy="47" r="1"/>
</g>
</svg>
