<?xml version="1.0" encoding="utf-8"?>
<!-- Generator: Adobe Illustrator 17.0.0, SVG Export Plug-In . SVG Version: 6.00 Build 0)  -->
<!DOCTYPE svg PUBLIC "-//W3C//DTD SVG 1.1//EN" "http://www.w3.org/Graphics/SVG/1.1/DTD/svg11.dtd">
<svg version="1.1" id="Layer_1" xmlns="http://www.w3.org/2000/svg" xmlns:xlink="http://www.w3.org/1999/xlink" x="0px" y="0px"
	 width="48px" height="48px" viewBox="0 0 48 48" enable-background="new 0 0 48 48" xml:space="preserve">
<g>
	<path fill="#010101" d="M47.991,10.954c-0.003-0.069-0.023-0.133-0.04-0.2c-0.016-0.06-0.025-0.121-0.051-0.176
		c-0.025-0.053-0.064-0.097-0.098-0.146c-0.042-0.059-0.08-0.117-0.133-0.166c-0.011-0.01-0.016-0.025-0.028-0.034l-12-10
		C35.46,0.082,35.234,0,35,0H13c-0.234,0-0.46,0.082-0.641,0.232l-12,10c-0.012,0.01-0.017,0.025-0.029,0.036
		c-0.05,0.046-0.086,0.102-0.126,0.157c-0.037,0.052-0.079,0.099-0.105,0.156c-0.024,0.051-0.032,0.107-0.047,0.162
		c-0.019,0.072-0.04,0.141-0.043,0.215C0.008,10.973,0,10.985,0,11v12v8c0,2.757,2.243,5,5,5h19v10H11c-0.552,0-1,0.448-1,1
		s0.448,1,1,1h26c0.552,0,1-0.448,1-1s-0.448-1-1-1H26V36h17c2.757,0,5-2.243,5-5v-8V11C48,10.984,47.992,10.97,47.991,10.954z
		 M2,12h44v10H2V12z M13.362,2h21.276l9.6,8H3.762L13.362,2z M43,34H5c-1.654,0-3-1.346-3-3v-7h44v7C46,32.654,44.654,34,43,34z"/>
	<circle fill="#010101" cx="28" cy="17" r="2"/>
	<circle fill="#010101" cx="34" cy="17" r="2"/>
	<circle fill="#010101" cx="40" cy="17" r="2"/>
	<path fill="#010101" d="M7,14c-1.654,0-3,1.346-3,3s1.346,3,3,3s3-1.346,3-3S8.654,14,7,14z M7,18c-0.551,0-1-0.449-1-1
		s0.449-1,1-1s1,0.449,1,1S7.551,18,7,18z"/>
	<circle fill="#010101" cx="28" cy="29" r="2"/>
	<circle fill="#010101" cx="34" cy="29" r="2"/>
	<circle fill="#010101" cx="40" cy="29" r="2"/>
	<path fill="#010101" d="M7,26c-1.654,0-3,1.346-3,3s1.346,3,3,3s3-1.346,3-3S8.654,26,7,26z M7,30c-0.551,0-1-0.449-1-1
		s0.449-1,1-1s1,0.449,1,1S7.551,30,7,30z"/>
	<circle fill="#010101" cx="3" cy="47" r="1"/>
	<circle fill="#010101" cx="7" cy="47" r="1"/>
	<circle fill="#010101" cx="41" cy="47" r="1"/>
	<circle fill="#010101" cx="45" cy="47" r="1"/>
</g>
</svg>
