<?xml version="1.0" encoding="utf-8"?>
<!-- Generator: Adobe Illustrator 17.0.0, SVG Export Plug-In . SVG Version: 6.00 Build 0)  -->
<!DOCTYPE svg PUBLIC "-//W3C//DTD SVG 1.1//EN" "http://www.w3.org/Graphics/SVG/1.1/DTD/svg11.dtd">
<svg version="1.1" id="Layer_1" xmlns="http://www.w3.org/2000/svg" xmlns:xlink="http://www.w3.org/1999/xlink" x="0px" y="0px"
	 width="48px" height="48px" viewBox="0 0 48 48" enable-background="new 0 0 48 48" xml:space="preserve">
<path fill="#010101" d="M36,10h-6c-0.552,0-1,0.448-1,1v6c0,0.552,0.448,1,1,1h2v4.446l-6,3.75V3.414l3.293,3.293
	C29.488,6.902,29.744,7,30,7s0.512-0.098,0.707-0.293c0.391-0.391,0.391-1.023,0-1.414l-5-5c-0.092-0.092-0.203-0.165-0.325-0.216
	c-0.245-0.102-0.52-0.102-0.765,0c-0.122,0.051-0.233,0.124-0.325,0.216l-5,5c-0.391,0.391-0.391,1.023,0,1.414
	c0.391,0.391,1.023,0.391,1.414,0L24,3.414v26.782l-6-3.75v-4.588c1.721-0.447,3-1.999,3-3.858c0-2.206-1.794-4-4-4s-4,1.794-4,4
	c0,1.859,1.279,3.411,3,3.858V27c0,0.345,0.178,0.665,0.47,0.848L24,32.554v3.536c-2.833,0.478-5,2.942-5,5.91c0,3.309,2.691,6,6,6
	s6-2.691,6-6c0-2.968-2.167-5.432-5-5.91v-7.536l7.53-4.706C33.822,23.665,34,23.345,34,23v-5h2c0.552,0,1-0.448,1-1v-6
	C37,10.448,36.552,10,36,10z M15,18c0-1.103,0.897-2,2-2s2,0.897,2,2s-0.897,2-2,2S15,19.103,15,18z M29,42c0,2.206-1.794,4-4,4
	s-4-1.794-4-4s1.794-4,4-4S29,39.794,29,42z M35,16h-4v-4h4V16z"/>
</svg>
