<?xml version="1.0" encoding="utf-8"?>
<!-- Generator: Adobe Illustrator 17.0.0, SVG Export Plug-In . SVG Version: 6.00 Build 0)  -->
<!DOCTYPE svg PUBLIC "-//W3C//DTD SVG 1.1//EN" "http://www.w3.org/Graphics/SVG/1.1/DTD/svg11.dtd">
<svg version="1.1" id="Layer_2" xmlns="http://www.w3.org/2000/svg" xmlns:xlink="http://www.w3.org/1999/xlink" x="0px" y="0px"
	 width="60px" height="60px" viewBox="0 0 60 60" enable-background="new 0 0 60 60" xml:space="preserve">
<path fill="#010101" d="M30,0C13.458,0,0,13.458,0,30s13.458,30,30,30c6.119,0,11.982-1.805,16.957-5.221
	c0.911-0.625,1.142-1.87,0.517-2.781c-0.625-0.91-1.87-1.141-2.781-0.517C40.388,54.438,35.307,56,30,56C15.664,56,4,44.336,4,30
	S15.664,4,30,4c14.336,0,26,11.664,26,26v2.435c0,3.596-2.926,6.522-6.522,6.522c-3.596,0-6.522-2.926-6.522-6.522V30
	c0-7.144-5.812-12.956-12.956-12.956S17.043,22.856,17.043,30S22.856,42.957,30,42.957c4.254,0,8.025-2.071,10.389-5.247
	c1.824,3.132,5.211,5.247,9.089,5.247C55.28,42.957,60,38.236,60,32.435V30C60,13.458,46.542,0,30,0z M30,38.957
	c-4.939,0-8.957-4.018-8.957-8.957c0-4.938,4.018-8.956,8.957-8.956c4.938,0,8.956,4.018,8.956,8.956
	C38.956,34.939,34.938,38.957,30,38.957z"/>
</svg>
