<?xml version="1.0" encoding="utf-8"?>
<!-- Generator: Adobe Illustrator 17.0.0, SVG Export Plug-In . SVG Version: 6.00 Build 0)  -->
<!DOCTYPE svg PUBLIC "-//W3C//DTD SVG 1.1//EN" "http://www.w3.org/Graphics/SVG/1.1/DTD/svg11.dtd">
<svg version="1.1" id="Layer_2" xmlns="http://www.w3.org/2000/svg" xmlns:xlink="http://www.w3.org/1999/xlink" x="0px" y="0px"
	 width="60px" height="60px" viewBox="0 0 60 60" enable-background="new 0 0 60 60" xml:space="preserve">
<g>
	<path fill="#010101" d="M30,22.13c-4.315,0-7.826,3.511-7.826,7.826c0,4.315,3.511,7.827,7.826,7.827
		c4.315,0,7.826-3.511,7.826-7.827C37.826,25.641,34.315,22.13,30,22.13z"/>
	<path fill="#010101" d="M58,12h1c0.552,0,1-0.448,1-1V4c0-1.944-2.056-4-4-4h-7c-0.552,0-1,0.448-1,1v1c0,1.542-1.458,3-3,3
		s-3-1.458-3-3V1c0-0.552-0.448-1-1-1h-7c-0.552,0-1,0.448-1,1v1c0,1.542-1.458,3-3,3s-3-1.458-3-3V1c0-0.552-0.448-1-1-1h-7
		c-0.552,0-1,0.448-1,1v1c0,1.542-1.458,3-3,3s-3-1.458-3-3V1c0-0.552-0.448-1-1-1H4C2.056,0,0,2.056,0,4v7.044
		c0,0.273,0.111,0.534,0.309,0.723c0.197,0.189,0.46,0.286,0.735,0.276L2,12c1.542,0,3,1.458,3,3s-1.458,3-3,3H1
		c-0.552,0-1,0.448-1,1v7c0,0.552,0.448,1,1,1h1c1.564,0,3.043,1.437,3.043,2.957C5.043,31.493,3.536,33,2,33H1
		c-0.552,0-1,0.448-1,1v7c0,0.552,0.448,1,1,1h1c1.542,0,3,1.458,3,3s-1.458,3-3,3H1c-0.552,0-1,0.448-1,1v7c0,1.944,2.056,4,4,4h7
		c0.552,0,1-0.448,1-1v-1c0-1.542,1.458-3,3-3s3,1.458,3,3v1c0,0.552,0.448,1,1,1h7c0.552,0,1-0.448,1-1v-1c0-1.542,1.458-3,3-3
		s3,1.458,3,3v1c0,0.552,0.448,1,1,1h7c0.552,0,1-0.448,1-1v-1c0-1.542,1.458-3,3-3s3,1.458,3,3v1c0,0.552,0.448,1,1,1h7
		c1.944,0,4-2.056,4-4v-7c0-0.552-0.448-1-1-1h-1c-1.542,0-3-1.458-3-3s1.458-3,3-3h1c0.552,0,1-0.448,1-1v-7c0-0.552-0.448-1-1-1
		h-1c-1.542,0-3-1.458-3-3s1.458-3,3-3h1c0.552,0,1-0.448,1-1v-7c0-0.552-0.448-1-1-1h-1c-1.542,0-3-1.458-3-3S56.458,12,58,12z
		 M42.364,39.783c-1.555,0-2.733-0.394-3.503-1.171c-0.826-0.834-0.998-1.901-1.03-2.746c-1.795,2.374-4.633,3.917-7.831,3.917
		c-5.418,0-9.826-4.408-9.826-9.827c0-5.418,4.408-9.826,9.826-9.826c3.195,0,6.03,1.54,7.826,3.909v-1.648c0-0.552,0.448-1,1-1
		c0.552,0,1,0.448,1,1l-0.001,7.548c0,0.006,0.001,0.011,0.001,0.017c0,0.006-0.001,0.011-0.001,0.017l0,5.255
		c-0.007,0.667-0.015,1.498,0.458,1.977c0.379,0.384,1.08,0.578,2.081,0.578c3.766,0,5.736-4.363,5.736-8.673
		c0-3.918-1.534-7.762-4.209-10.546c-3.306-3.441-8.278-5.259-14.381-5.259c-9.164,0-16.62,7.47-16.62,16.652
		c0,9.182,7.499,16.652,16.717,16.652c2.969,0,5.972-0.791,8.457-2.227c0.479-0.277,1.09-0.113,1.366,0.365
		c0.276,0.478,0.113,1.09-0.365,1.366c-2.784,1.609-6.143,2.496-9.458,2.496c-10.321,0-18.717-8.367-18.717-18.652
		c0-10.285,8.353-18.652,18.62-18.652c6.66,0,12.131,2.031,15.823,5.874c3.029,3.152,4.767,7.501,4.767,11.932
		C50.101,35.294,46.847,39.783,42.364,39.783z"/>
</g>
</svg>
