<?xml version="1.0" encoding="utf-8"?>
<!-- Generator: Adobe Illustrator 17.0.0, SVG Export Plug-In . SVG Version: 6.00 Build 0)  -->
<!DOCTYPE svg PUBLIC "-//W3C//DTD SVG 1.1//EN" "http://www.w3.org/Graphics/SVG/1.1/DTD/svg11.dtd">
<svg version="1.1" id="Layer_2" xmlns="http://www.w3.org/2000/svg" xmlns:xlink="http://www.w3.org/1999/xlink" x="0px" y="0px"
	 width="60px" height="60px" viewBox="0 0 60 60" enable-background="new 0 0 60 60" xml:space="preserve">
<g>
	<path fill="#010101" d="M55.999,20.99c0-0.013-0.004-0.024-0.005-0.037c-0.005-0.106-0.029-0.207-0.066-0.304
		c-0.009-0.022-0.015-0.044-0.025-0.066c-0.046-0.1-0.108-0.192-0.185-0.273c-0.016-0.017-0.035-0.03-0.052-0.045
		c-0.033-0.03-0.063-0.063-0.101-0.089c-0.054-0.037-0.112-0.063-0.17-0.089c-0.009-0.004-0.015-0.012-0.024-0.016l-10-4
		c-0.515-0.204-1.095,0.045-1.3,0.557c-0.205,0.513,0.044,1.095,0.557,1.3l7.633,3.053l-23.25,8.942L7.343,21.053l7.063-3.139
		c0.504-0.224,0.732-0.815,0.507-1.32c-0.224-0.505-0.815-0.734-1.32-0.507l-9,4c-0.396,0.176-0.612,0.578-0.581,0.988
		C4.009,21.107,4,21.14,4,21.174V46c0,0.367,0.201,0.705,0.524,0.879l24,13C28.672,59.96,28.836,60,29,60
		c0.153,0,0.306-0.035,0.447-0.105l26-13C55.786,46.725,56,46.379,56,46V21C56,20.996,55.999,20.993,55.999,20.99z"/>
	<path fill="#010101" d="M28.38,21.881c0.195,0.195,0.451,0.293,0.707,0.293c0.256,0,0.512-0.098,0.707-0.293l10.087-10.087
		c0.391-0.391,0.391-1.023,0-1.414c-0.391-0.391-1.024-0.391-1.414,0L30,18.847V1c0-0.552-0.448-1-1-1c-0.552,0-1,0.448-1,1v17.673
		l-8.293-8.293c-0.391-0.391-1.023-0.391-1.414,0c-0.391,0.391-0.391,1.023,0,1.414L28.38,21.881z"/>
</g>
</svg>
