<?xml version="1.0" encoding="utf-8"?>
<!-- Generator: Adobe Illustrator 17.0.0, SVG Export Plug-In . SVG Version: 6.00 Build 0)  -->
<!DOCTYPE svg PUBLIC "-//W3C//DTD SVG 1.1//EN" "http://www.w3.org/Graphics/SVG/1.1/DTD/svg11.dtd">
<svg version="1.1" id="Layer_2" xmlns="http://www.w3.org/2000/svg" xmlns:xlink="http://www.w3.org/1999/xlink" x="0px" y="0px"
	 width="60px" height="60px" viewBox="0 0 60 60" enable-background="new 0 0 60 60" xml:space="preserve">
<path fill="#010101" d="M59.984,39.919c-0.005-0.067-0.02-0.13-0.04-0.196c-0.019-0.066-0.041-0.127-0.073-0.186
	c-0.013-0.025-0.014-0.053-0.03-0.077l-9-14C50.657,25.173,50.34,25,50,25h-2V2c0-0.552-0.448-1-1-1H13c-0.552,0-1,0.448-1,1v23h-2
	c-0.34,0-0.657,0.173-0.841,0.459l-9,14c-0.016,0.024-0.017,0.052-0.03,0.077c-0.032,0.059-0.053,0.121-0.073,0.186
	c-0.019,0.066-0.034,0.129-0.04,0.196C0.014,39.947,0,39.971,0,40v18c0,0.552,0.448,1,1,1h58c0.552,0,1-0.448,1-1V40
	C60,39.971,59.986,39.947,59.984,39.919z M26.217,11h12.609c0.552,0,1,0.448,1,1s-0.448,1-1,1H26.217c-0.552,0-1-0.448-1-1
	S25.665,11,26.217,11z M21.174,7h2.521c0.552,0,1,0.448,1,1s-0.448,1-1,1h-2.521c-0.552,0-1-0.448-1-1S20.622,7,21.174,7z
	 M21.174,17h17.652c0.552,0,1,0.448,1,1s-0.448,1-1,1H21.174c-0.552,0-1-0.448-1-1S20.622,17,21.174,17z M21.174,23h17.652
	c0.552,0,1,0.448,1,1s-0.448,1-1,1H21.174c-0.552,0-1-0.448-1-1S20.622,23,21.174,23z M21.174,29.261h17.652c0.552,0,1,0.448,1,1
	c0,0.552-0.448,1-1,1H21.174c-0.552,0-1-0.448-1-1C20.174,29.708,20.622,29.261,21.174,29.261z M41,39c-0.552,0-1,0.448-1,1v3
	c0,2.206-1.794,4-4,4H25c-2.61,0-3-2.506-3-4v-3c0-0.552-0.448-1-1-1H2.832l7.714-12H12v8c0,0.552,0.448,1,1,1h34
	c0.552,0,1-0.448,1-1v-8h1.454l7.714,12H41z"/>
</svg>
