<?xml version="1.0" encoding="utf-8"?>
<!-- Generator: Adobe Illustrator 17.0.0, SVG Export Plug-In . SVG Version: 6.00 Build 0)  -->
<!DOCTYPE svg PUBLIC "-//W3C//DTD SVG 1.1//EN" "http://www.w3.org/Graphics/SVG/1.1/DTD/svg11.dtd">
<svg version="1.1" id="Layer_2" xmlns="http://www.w3.org/2000/svg" xmlns:xlink="http://www.w3.org/1999/xlink" x="0px" y="0px"
	 width="60px" height="60px" viewBox="0 0 60 60" enable-background="new 0 0 60 60" xml:space="preserve">
<g>
	<path fill="#010101" d="M59.989,42.973c-0.003-0.067-0.022-0.13-0.04-0.196c-0.017-0.065-0.032-0.129-0.061-0.188
		c-0.008-0.017-0.007-0.036-0.017-0.052l-9-16c-0.177-0.315-0.51-0.51-0.872-0.51H40c-0.552,0-1,0.448-1,1s0.448,1,1,1h9.415
		l7.875,14H41c-0.552,0-1,0.448-1,1v2c0,1.362-2.457,3-4,3H25c-1.486,0-3-1.58-3-3.13v-1.87c0-0.552-0.448-1-1-1H2.71l7.875-14H18
		c0.552,0,1-0.448,1-1s-0.448-1-1-1h-8c-0.361,0-0.694,0.195-0.872,0.51l-9,16c-0.009,0.017-0.008,0.035-0.017,0.052
		c-0.03,0.059-0.044,0.123-0.061,0.188c-0.017,0.066-0.036,0.129-0.04,0.196C0.01,42.992,0,43.008,0,43.027v15.947
		c0,0.552,0.448,1,1,1h58c0.552,0,1-0.448,1-1V43.027C60,43.008,59.99,42.992,59.989,42.973z"/>
	<path fill="#010101" d="M28.293,29.733c0.092,0.092,0.203,0.165,0.325,0.216C28.74,30,28.87,30.027,29,30.027
		c0.13,0,0.26-0.027,0.382-0.077c0.122-0.051,0.233-0.124,0.325-0.216l10-10c0.391-0.391,0.391-1.023,0-1.414
		c-0.391-0.391-1.023-0.391-1.414,0L30,26.612V1.027c0-0.552-0.448-1-1-1c-0.552,0-1,0.448-1,1v25.586l-8.293-8.293
		c-0.391-0.391-1.023-0.391-1.414,0c-0.391,0.391-0.391,1.023,0,1.414L28.293,29.733z"/>
</g>
</svg>
