<?xml version="1.0" encoding="utf-8"?>
<!-- Generator: Adobe Illustrator 17.0.0, SVG Export Plug-In . SVG Version: 6.00 Build 0)  -->
<!DOCTYPE svg PUBLIC "-//W3C//DTD SVG 1.1//EN" "http://www.w3.org/Graphics/SVG/1.1/DTD/svg11.dtd">
<svg version="1.1" id="Layer_2" xmlns="http://www.w3.org/2000/svg" xmlns:xlink="http://www.w3.org/1999/xlink" x="0px" y="0px"
	 width="60px" height="60px" viewBox="0 0 60 60" enable-background="new 0 0 60 60" xml:space="preserve">
<path fill="#010101" d="M59.984,27.423c-0.005-0.067-0.021-0.13-0.04-0.195c-0.019-0.066-0.04-0.128-0.071-0.188
	c-0.012-0.024-0.013-0.05-0.028-0.073l-8.826-14c-0.183-0.29-0.502-0.467-0.846-0.467H9.826c-0.343,0-0.663,0.176-0.846,0.467
	l-8.826,14C0.14,26.99,0.139,27.016,0.127,27.04c-0.032,0.06-0.052,0.122-0.071,0.188c-0.019,0.065-0.034,0.128-0.04,0.195
	C0.013,27.45,0,27.473,0,27.5v19c0,0.552,0.448,1,1,1h58c0.552,0,1-0.448,1-1v-19C60,27.473,59.987,27.45,59.984,27.423z
	 M40.999,26.5c-0.265,0-0.52,0.106-0.707,0.293c-0.188,0.188-0.293,0.442-0.293,0.708L40,30.5c0,1.458-2.542,4-4,4H25
	c-1.362,0-3-2.457-3-4v-3c0-0.552-0.448-1-1-1H2.812l7.566-12h39.244l7.566,12H40.999z"/>
</svg>
