<?xml version="1.0" encoding="utf-8"?>
<!-- Generator: Adobe Illustrator 17.0.0, SVG Export Plug-In . SVG Version: 6.00 Build 0)  -->
<!DOCTYPE svg PUBLIC "-//W3C//DTD SVG 1.1//EN" "http://www.w3.org/Graphics/SVG/1.1/DTD/svg11.dtd">
<svg version="1.1" id="Layer_2" xmlns="http://www.w3.org/2000/svg" xmlns:xlink="http://www.w3.org/1999/xlink" x="0px" y="0px"
	 width="60px" height="60px" viewBox="0 0 60 60" enable-background="new 0 0 60 60" xml:space="preserve">
<g>
	<path fill="#010101" d="M59.392,17.588C58.902,16.864,57.91,16,55.969,16h-30c-3.967,0-5.425,3.64-6.048,5.194l-7.059,17.652
		c-0.545,1.361-0.472,2.711,0.2,3.704C13.695,43.485,14.759,44,16.06,44H46.32c2.5,0,5.234-1.937,6.225-4.411l7.06-17.652
		C60.24,20.35,60.161,18.724,59.392,17.588z M27.569,33.8l-8,6c-0.18,0.135-0.391,0.2-0.599,0.2c-0.304,0-0.604-0.138-0.801-0.4
		c-0.331-0.442-0.242-1.069,0.2-1.4l8-6c0.444-0.332,1.069-0.241,1.4,0.2C28.101,32.842,28.011,33.469,27.569,33.8z M47.524,39.832
		C47.354,39.946,47.161,40,46.97,40c-0.323,0-0.64-0.156-0.833-0.445l-4-6c-0.306-0.459-0.182-1.081,0.277-1.387
		c0.459-0.308,1.08-0.182,1.387,0.277l4,6C48.107,38.905,47.983,39.526,47.524,39.832z M53.619,23.697L35.716,33.784
		c-0.154,0.087-0.323,0.129-0.49,0.129c-0.263,0-0.523-0.104-0.716-0.302l-9.836-10.087c-0.386-0.396-0.378-1.029,0.018-1.414
		c0.395-0.386,1.029-0.378,1.414,0.017l9.299,9.537l17.233-9.709c0.48-0.271,1.091-0.101,1.362,0.38
		C54.27,22.816,54.1,23.426,53.619,23.697z"/>
	<path fill="#010101" d="M0.969,18h13c0.552,0,1-0.448,1-1c0-0.552-0.448-1-1-1h-13c-0.552,0-1,0.448-1,1
		C-0.031,17.552,0.417,18,0.969,18z"/>
	<path fill="#010101" d="M5.969,40h-5c-0.552,0-1,0.448-1,1c0,0.552,0.448,1,1,1h5c0.552,0,1-0.448,1-1
		C6.969,40.448,6.522,40,5.969,40z"/>
	<path fill="#010101" d="M8.535,28H0.969c-0.552,0-1,0.448-1,1c0,0.552,0.448,1,1,1h7.565c0.552,0,1-0.448,1-1
		C9.535,28.448,9.087,28,8.535,28z"/>
</g>
</svg>
