<?xml version="1.0" encoding="utf-8"?>
<!-- Generator: Adobe Illustrator 17.0.0, SVG Export Plug-In . SVG Version: 6.00 Build 0)  -->
<!DOCTYPE svg PUBLIC "-//W3C//DTD SVG 1.1//EN" "http://www.w3.org/Graphics/SVG/1.1/DTD/svg11.dtd">
<svg version="1.1" id="Layer_2" xmlns="http://www.w3.org/2000/svg" xmlns:xlink="http://www.w3.org/1999/xlink" x="0px" y="0px"
	 width="60px" height="60px" viewBox="0 0 60 60" enable-background="new 0 0 60 60" xml:space="preserve">
<g>
	<path fill="#010101" d="M45.885,45.885c0.976-0.977,2.56-0.977,3.535,0l2.774,2.774C56.439,43.615,59,37.108,59,30
		c0-7.108-2.561-13.615-6.806-18.659l-2.774,2.774c-0.488,0.488-1.128,0.733-1.768,0.733c-0.64,0-1.28-0.244-1.768-0.733
		c-0.977-0.976-0.977-2.559,0-3.535l2.774-2.774C43.615,3.561,37.108,1,30,1c-7.108,0-13.615,2.561-18.659,6.806l2.774,2.774
		c0.977,0.976,0.977,2.559,0,3.535c-0.488,0.488-1.128,0.733-1.767,0.733c-0.64,0-1.28-0.244-1.768-0.733l-2.774-2.774
		C3.561,16.385,1,22.892,1,30c0,7.108,2.561,13.615,6.806,18.659l2.774-2.774c0.976-0.977,2.559-0.977,3.535,0
		c0.977,0.976,0.977,2.559,0,3.535l-2.774,2.774C16.385,56.439,22.892,59,30,59c7.108,0,13.615-2.561,18.659-6.806l-2.774-2.774
		C44.908,48.444,44.908,46.861,45.885,45.885z M17,44c-2.944,0-5-1.609-5-3.913V22.435C12,19.741,13.962,18,17,18h26
		c2.991,0,5,1.607,5,4v18c0,2.393-2.009,4-5,4H17z"/>
	<path fill="#010101" d="M35.391,30.882l6.243-5.108c0.427-0.35,0.49-0.979,0.141-1.407c-0.35-0.427-0.979-0.49-1.407-0.141
		L30,32.708l-10.367-8.482c-0.428-0.349-1.057-0.287-1.407,0.141c-0.35,0.428-0.287,1.058,0.141,1.407l6.243,5.107l-7.268,6.366
		c-0.415,0.364-0.457,0.996-0.094,1.411C17.445,38.885,17.722,39,18,39c0.234,0,0.469-0.081,0.658-0.248l7.52-6.587l3.188,2.608
		C29.551,34.925,29.775,35,30,35c0.225,0,0.449-0.075,0.633-0.226l3.188-2.608l7.52,6.587C41.531,38.919,41.766,39,41.999,39
		c0.278,0,0.555-0.115,0.753-0.341c0.364-0.416,0.322-1.047-0.094-1.411L35.391,30.882z"/>
	<path fill="#010101" d="M48.359,46.945c-0.391-0.391-1.024-0.391-1.414,0c-0.391,0.391-0.391,1.023,0,1.414l11.348,11.348
		C58.488,59.902,58.744,60,59,60c0.256,0,0.512-0.098,0.707-0.293c0.391-0.391,0.391-1.023,0-1.414L48.359,46.945z"/>
	<path fill="#010101" d="M13.055,46.945c-0.391-0.391-1.023-0.391-1.414,0L0.293,58.293c-0.391,0.391-0.391,1.023,0,1.414
		C0.488,59.902,0.744,60,1,60c0.256,0,0.512-0.098,0.707-0.293l11.348-11.348C13.445,47.969,13.445,47.336,13.055,46.945z"/>
	<path fill="#010101" d="M46.945,13.055c0.195,0.195,0.451,0.293,0.707,0.293c0.256,0,0.512-0.098,0.707-0.293L59.707,1.707
		c0.391-0.391,0.391-1.023,0-1.414c-0.391-0.391-1.023-0.391-1.414,0L46.945,11.641C46.555,12.031,46.555,12.664,46.945,13.055z"/>
	<path fill="#010101" d="M11.641,13.055c0.195,0.195,0.451,0.293,0.707,0.293c0.256,0,0.512-0.098,0.707-0.293
		c0.391-0.391,0.391-1.024,0-1.414L1.707,0.293c-0.391-0.391-1.023-0.391-1.414,0c-0.391,0.391-0.391,1.023,0,1.414L11.641,13.055z"
		/>
</g>
</svg>
