<?xml version="1.0" encoding="utf-8"?>
<!-- Generator: Adobe Illustrator 17.0.0, SVG Export Plug-In . SVG Version: 6.00 Build 0)  -->
<!DOCTYPE svg PUBLIC "-//W3C//DTD SVG 1.1//EN" "http://www.w3.org/Graphics/SVG/1.1/DTD/svg11.dtd">
<svg version="1.1" id="Layer_2" xmlns="http://www.w3.org/2000/svg" xmlns:xlink="http://www.w3.org/1999/xlink" x="0px" y="0px"
	 width="60px" height="60px" viewBox="0 0 60 60" enable-background="new 0 0 60 60" xml:space="preserve">
<g>
	<path fill="#010101" d="M55,20H5c-2.664,0-5,2.336-5,5v28c0,2.664,2.336,5,5,5h50c2.664,0,5-2.336,5-5V25
		C60,22.336,57.664,20,55,20z M11.087,28h5.043c0.552,0,1,0.448,1,1c0,0.552-0.448,1-1,1h-5.043c-0.552,0-1-0.448-1-1
		C10.087,28.448,10.535,28,11.087,28z M11.087,44h22.696c0.552,0,1,0.448,1,1c0,0.552-0.448,1-1,1H11.087c-0.552,0-1-0.448-1-1
		C10.087,44.448,10.535,44,11.087,44z M41.348,52H11.087c-0.552,0-1-0.448-1-1c0-0.552,0.448-1,1-1h30.261c0.552,0,1,0.448,1,1
		C42.348,51.552,41.9,52,41.348,52z M52,37c0,0.552-0.448,1-1,1H41c-0.552,0-1-0.448-1-1V27c0-0.552,0.448-1,1-1h10
		c0.552,0,1,0.448,1,1V37z"/>
	<path fill="#010101" d="M6.043,16h47.913c0.552,0,1-0.448,1-1c0-0.552-0.448-1-1-1H6.043c-0.552,0-1,0.448-1,1
		C5.043,15.552,5.491,16,6.043,16z"/>
	<path fill="#010101" d="M11.087,10h37.826c0.552,0,1-0.448,1-1c0-0.552-0.448-1-1-1H11.087c-0.552,0-1,0.448-1,1
		C10.087,9.552,10.535,10,11.087,10z"/>
	<path fill="#010101" d="M16.13,4H43.87c0.552,0,1-0.448,1-1c0-0.552-0.448-1-1-1H16.13c-0.552,0-1,0.448-1,1
		C15.13,3.552,15.578,4,16.13,4z"/>
</g>
</svg>
