<?xml version="1.0" encoding="utf-8"?>
<!-- Generator: Adobe Illustrator 17.0.0, SVG Export Plug-In . SVG Version: 6.00 Build 0)  -->
<!DOCTYPE svg PUBLIC "-//W3C//DTD SVG 1.1//EN" "http://www.w3.org/Graphics/SVG/1.1/DTD/svg11.dtd">
<svg version="1.1" id="Layer_2" xmlns="http://www.w3.org/2000/svg" xmlns:xlink="http://www.w3.org/1999/xlink" x="0px" y="0px"
	 width="60px" height="60px" viewBox="0 0 60 60" enable-background="new 0 0 60 60" xml:space="preserve">
<path fill="#010101" d="M55.217,10.053H4.783C2.145,10.053,0,12.199,0,14.836V45c0,2.664,2.336,5,5,5h50c2.664,0,5-2.336,5-5V14.836
	C60,12.199,57.854,10.053,55.217,10.053z M11,20h5c0.552,0,1,0.448,1,1c0,0.552-0.448,1-1,1h-5c-0.552,0-1-0.448-1-1
	C10,20.448,10.448,20,11,20z M11,34h22c0.552,0,1,0.448,1,1c0,0.552-0.448,1-1,1H11c-0.552,0-1-0.448-1-1C10,34.448,10.448,34,11,34
	z M41,42H11c-0.552,0-1-0.448-1-1c0-0.552,0.448-1,1-1h30c0.552,0,1,0.448,1,1C42,41.552,41.552,42,41,42z M52,29
	c0,0.552-0.448,1-1,1H41c-0.552,0-1-0.448-1-1V19c0-0.552,0.448-1,1-1h10c0.552,0,1,0.448,1,1V29z"/>
</svg>
