<?xml version="1.0" encoding="utf-8"?>
<!-- Generator: Adobe Illustrator 17.0.0, SVG Export Plug-In . SVG Version: 6.00 Build 0)  -->
<!DOCTYPE svg PUBLIC "-//W3C//DTD SVG 1.1//EN" "http://www.w3.org/Graphics/SVG/1.1/DTD/svg11.dtd">
<svg version="1.1" id="Layer_2" xmlns="http://www.w3.org/2000/svg" xmlns:xlink="http://www.w3.org/1999/xlink" x="0px" y="0px"
	 width="60px" height="60px" viewBox="0 0 60 60" enable-background="new 0 0 60 60" xml:space="preserve">
<g>
	<path fill="#010101" d="M53.105,6.033C52.273,5.367,51.195,5,49.875,5H7.097C5.603,5,4.286,5.445,3.259,6.21l26.166,18.948
		L53.105,6.033z"/>
	<path fill="#010101" d="M47,29c2.975,0,5.73,0.94,8,2.527V10.861c0-1.286-0.237-2.368-0.663-3.253l-24.25,19.586
		c-0.183,0.148-0.406,0.222-0.628,0.222c-0.206,0-0.411-0.063-0.586-0.19L1.891,7.689C1.324,8.587,1,9.665,1,10.861V35
		c0,3.197,2.582,5.833,5.928,6H33.16C34.135,34.227,39.961,29,47,29z"/>
	<path fill="#010101" d="M47,31c-6.617,0-12,5.383-12,12c0,6.617,5.383,12,12,12c6.617,0,12-5.383,12-12C59,36.383,53.617,31,47,31z
		 M38.343,43.39c0-4.866,3.958-8.824,8.824-8.824c2.091,0,3.949,0.844,5.445,2.393v-1.669c0-0.552,0.448-1,1-1c0.552,0,1,0.448,1,1
		v5.826h-5.137c-0.552,0-1-0.448-1-1c0-0.552,0.448-1,1-1h2.365c-0.998-1.357-2.492-2.549-4.673-2.549
		c-3.763,0-6.824,3.062-6.824,6.824H38.343z M46.833,52.357c-2.29,0-4.408-0.881-6.011-2.382v0.483c0,0.552-0.448,1-1,1
		c-0.552,0-1-0.448-1-1V46.01h5.137c0.552,0,1,0.448,1,1c0,0.552-0.448,1-1,1H41.69c1.276,1.473,3.126,2.347,5.143,2.347
		c3.763,0,6.824-3.062,6.824-6.824h2C55.657,48.398,51.699,52.357,46.833,52.357z"/>
</g>
</svg>
