<?xml version="1.0" encoding="utf-8"?>
<!-- Generator: Adobe Illustrator 17.0.0, SVG Export Plug-In . SVG Version: 6.00 Build 0)  -->
<!DOCTYPE svg PUBLIC "-//W3C//DTD SVG 1.1//EN" "http://www.w3.org/Graphics/SVG/1.1/DTD/svg11.dtd">
<svg version="1.1" id="Layer_2" xmlns="http://www.w3.org/2000/svg" xmlns:xlink="http://www.w3.org/1999/xlink" x="0px" y="0px"
	 width="60px" height="60px" viewBox="0 0 60 60" enable-background="new 0 0 60 60" xml:space="preserve">
<g>
	<path fill="#010101" d="M52.105,5.033C51.273,4.367,50.195,4,48.875,4H6.097C4.603,4,3.286,4.445,2.259,5.21l26.166,18.948
		L52.105,5.033z"/>
	<path fill="#010101" d="M43.002,26c4.632,0,8.696,2.444,10.998,6.104V9.861c0-1.286-0.237-2.368-0.663-3.253l-24.25,19.586
		c-0.183,0.148-0.406,0.222-0.628,0.222c-0.206,0-0.411-0.063-0.586-0.19L0.891,6.689C0.324,7.587,0,8.665,0,9.861V34
		c0,3.197,2.582,5.833,5.928,6h24.123C30.025,39.669,30,39.338,30,39.001C30,31.832,35.833,26,43.002,26z"/>
	<path fill="#010101" d="M59.703,54.289l-6.877-6.803l-1.421-1.406C53.022,44.166,54,41.697,54,39.001
		C54,32.935,49.066,28,43.002,28C36.936,28,32,32.935,32,39.001C32,45.065,36.936,50,43.002,50c2.65,0,5.084-0.943,6.985-2.51
		l1.422,1.407l6.888,6.814C58.492,55.904,58.746,56,59,56c0.258,0,0.515-0.099,0.711-0.297
		C60.099,55.311,60.096,54.677,59.703,54.289z M43.002,48C38.038,48,34,43.963,34,39.001C34,34.038,38.038,30,43.002,30
		C47.963,30,52,34.038,52,39.001C52,43.963,47.963,48,43.002,48z"/>
</g>
</svg>
