<?xml version="1.0" encoding="utf-8"?>
<!-- Generator: Adobe Illustrator 17.0.0, SVG Export Plug-In . SVG Version: 6.00 Build 0)  -->
<!DOCTYPE svg PUBLIC "-//W3C//DTD SVG 1.1//EN" "http://www.w3.org/Graphics/SVG/1.1/DTD/svg11.dtd">
<svg version="1.1" id="Layer_2" xmlns="http://www.w3.org/2000/svg" xmlns:xlink="http://www.w3.org/1999/xlink" x="0px" y="0px"
	 width="60px" height="60px" viewBox="0 0 60 60" enable-background="new 0 0 60 60" xml:space="preserve">
<g>
	<path fill="#010101" d="M31.568,40.908c0-0.57,0.039-1.142,0.119-1.73l-2.397-1.385c-0.229-0.133-0.397-0.351-0.465-0.607
		c-0.069-0.256-0.033-0.529,0.1-0.759l4.121-7.128c0.275-0.477,0.887-0.642,1.365-0.366l2.416,1.391
		c1.055-0.784,2.395-1.518,3.492-1.995V26c0-0.552,0.448-1,1-1h8c0.552,0,1,0.448,1,1v2.344c1.026,0.506,1.901,1.234,2.745,1.961
		l2.255-1.31V10.861c0-1.286-0.237-2.368-0.663-3.253l-24.25,19.586c-0.183,0.148-0.406,0.222-0.628,0.222
		c-0.206,0-0.411-0.063-0.586-0.19L2.209,7.689c-0.567,0.898-0.891,1.976-0.891,3.173V35c0,3.197,2.582,5.833,5.928,6h24.324
		C31.571,40.97,31.568,40.938,31.568,40.908z"/>
	<path fill="#010101" d="M53.423,6.033C52.591,5.367,51.513,5,50.193,5H7.416C5.922,5,4.604,5.445,3.577,6.21l26.166,18.948
		L53.423,6.033z"/>
	<path fill="#010101" d="M56.551,44.026c-0.367-0.212-0.561-0.631-0.483-1.048c0.13-0.704,0.196-1.401,0.196-2.071
		c0-0.666-0.066-1.362-0.198-2.069c-0.077-0.417,0.116-0.836,0.483-1.048l2.128-1.229l-3.115-5.395l-2.111,1.226
		c-0.367,0.213-0.83,0.171-1.152-0.105l-0.343-0.295c-0.987-0.853-1.919-1.658-2.985-2.054c-0.392-0.146-0.652-0.52-0.652-0.938v-2
		h-6v2c0,0.418-0.26,0.792-0.652,0.938c-1.365,0.507-3.128,1.517-4.1,2.349c-0.322,0.276-0.781,0.318-1.149,0.107l-2.139-1.231
		l-3.121,5.398l2.126,1.229c0.366,0.212,0.56,0.631,0.483,1.048c-0.134,0.722-0.199,1.399-0.199,2.07
		c0,0.675,0.064,1.353,0.197,2.071c0.077,0.416-0.117,0.836-0.483,1.047l-2.129,1.229l3.117,5.399l2.149-1.233
		c0.366-0.212,0.826-0.168,1.148,0.107c0.953,0.815,3.635,1.987,5.102,2.534c0.391,0.146,0.65,0.52,0.65,0.937v2h5v-2
		c0-0.417,0.259-0.791,0.65-0.937c0.89-0.332,1.737-1.101,2.556-1.844c0.259-0.235,0.516-0.468,0.774-0.689
		c0.322-0.276,0.785-0.318,1.151-0.105l2.12,1.228l3.111-5.396L56.551,44.026z M44.915,47.396c-3.577,0-6.488-2.911-6.488-6.488
		c0-3.577,2.911-6.488,6.488-6.488c3.578,0,6.488,2.911,6.488,6.488C51.403,44.485,48.492,47.396,44.915,47.396z"/>
</g>
</svg>
