<?xml version="1.0" encoding="utf-8"?>
<!-- Generator: Adobe Illustrator 17.0.0, SVG Export Plug-In . SVG Version: 6.00 Build 0)  -->
<!DOCTYPE svg PUBLIC "-//W3C//DTD SVG 1.1//EN" "http://www.w3.org/Graphics/SVG/1.1/DTD/svg11.dtd">
<svg version="1.1" id="Layer_2" xmlns="http://www.w3.org/2000/svg" xmlns:xlink="http://www.w3.org/1999/xlink" x="0px" y="0px"
	 width="60px" height="60px" viewBox="0 0 60 60" enable-background="new 0 0 60 60" xml:space="preserve">
<g>
	<path fill="#010101" d="M51.579,12.01C51.531,12.003,51.483,12,51.435,12H12v-2h7c0.552,0,1-0.448,1-1V1c0-0.552-0.448-1-1-1h-8
		c-0.552,0-1,0.448-1,1v5v3v3H8.565c-0.03,0-0.056,0.015-0.085,0.017C8.32,12.012,8.164,12,8,12c-4.941,0-8,4.762-8,9.174V43
		c0,0.552,0.448,1,1,1h16h14v14c0,1.105,0.895,2,2,2c1.104,0,2-0.895,2-2V44h24c0.552,0,1-0.448,1-1V21.174
		C60,16.649,56.38,12.71,51.579,12.01z M16,42H2V21.174C2,17.724,4.294,14,8,14c0.751,0,1.445,0.073,2.089,0.21
		c0.836,0.197,1.894,0.583,2.89,1.346c0.076,0.062,0.155,0.121,0.229,0.187c0.026,0.021,0.05,0.046,0.076,0.069
		c1.101,1.017,1.907,2.475,2.447,4.393C15.897,20.994,16,21.871,16,22.875V42z"/>
	<path fill="#010101" d="M11.087,38H6.043c-0.552,0-1,0.448-1,1c0,0.552,0.448,1,1,1h5.043c0.552,0,1-0.448,1-1
		C12.087,38.448,11.639,38,11.087,38z"/>
</g>
</svg>
