<?xml version="1.0" encoding="utf-8"?>
<!-- Generator: Adobe Illustrator 17.0.0, SVG Export Plug-In . SVG Version: 6.00 Build 0)  -->
<!DOCTYPE svg PUBLIC "-//W3C//DTD SVG 1.1//EN" "http://www.w3.org/Graphics/SVG/1.1/DTD/svg11.dtd">
<svg version="1.1" id="Layer_2" xmlns="http://www.w3.org/2000/svg" xmlns:xlink="http://www.w3.org/1999/xlink" x="0px" y="0px"
	 width="60px" height="60px" viewBox="0 0 60 60" enable-background="new 0 0 60 60" xml:space="preserve">
<g>
	<path fill="#010101" d="M53.112,29.178c-0.87-0.719-1.953-1.179-3.112-1.179H10c-1.356,0-2.623,0.61-3.544,1.556l23.533,17.197
		L53.112,29.178z"/>
	<path fill="#010101" d="M54.386,30.722L30.605,48.796c-0.179,0.136-0.392,0.204-0.605,0.204c-0.207,0-0.414-0.064-0.59-0.192
		L5.362,31.233C5.136,31.789,5,32.383,5,32.999v22c0,3.166,2.322,4.616,4.55,4.948c0.101,0.034,0.208,0.052,0.32,0.052L9.978,60
		c0.006,0,0.026,0,0.032,0c0.017,0,0.035,0,0.052-0.002H50c2.664,0,5-2.336,5-5v-22C55,32.187,54.763,31.416,54.386,30.722z"/>
	<path fill="#010101" d="M19.706,12.708l9.333-9.296L29,22.997c-0.001,0.552,0.446,1.001,0.998,1.002c0,0,0.001,0,0.001,0
		c0.552,0,1-0.446,1.001-0.998l0.039-19.586l9.253,9.289c0.195,0.196,0.452,0.294,0.709,0.294c0.255,0,0.511-0.097,0.706-0.292
		c0.392-0.39,0.393-1.023,0.003-1.414l-10.956-11c-0.091-0.092-0.201-0.165-0.322-0.216C30.309,0.027,30.179,0,30.045-0.001h-0.002
		c-0.133,0-0.264,0.027-0.384,0.077c-0.116,0.049-0.221,0.12-0.31,0.207c-0.003,0.003-0.008,0.004-0.011,0.008l0,0
		c0,0,0,0.001-0.001,0.001L18.294,11.291c-0.392,0.39-0.392,1.023-0.003,1.414C18.681,13.097,19.315,13.098,19.706,12.708z"/>
</g>
</svg>
