<?xml version="1.0" encoding="utf-8"?>
<!-- Generator: Adobe Illustrator 17.0.0, SVG Export Plug-In . SVG Version: 6.00 Build 0)  -->
<!DOCTYPE svg PUBLIC "-//W3C//DTD SVG 1.1//EN" "http://www.w3.org/Graphics/SVG/1.1/DTD/svg11.dtd">
<svg version="1.1" id="Layer_2" xmlns="http://www.w3.org/2000/svg" xmlns:xlink="http://www.w3.org/1999/xlink" x="0px" y="0px"
	 width="60px" height="60px" viewBox="0 0 60 60" enable-background="new 0 0 60 60" xml:space="preserve">
<g>
	<path fill="#010101" d="M53.105,6.033C52.273,5.367,51.195,5,49.875,5H7.097C5.603,5,4.286,5.445,3.259,6.21l26.166,18.948
		L53.105,6.033z"/>
	<path fill="#010101" d="M46,27c3.379,0,6.489,1.137,9,3.029V10.861c0-1.286-0.237-2.368-0.663-3.253l-24.25,19.586
		c-0.183,0.148-0.406,0.222-0.628,0.222c-0.206,0-0.411-0.063-0.586-0.19L1.891,7.689C1.324,8.587,1,9.665,1,10.861V35
		c0,3.197,2.582,5.833,5.928,6h24.123C31.569,33.196,38.066,27,46,27z"/>
	<path fill="#010101" d="M53.229,36.185L40.185,49.229c1.593,1.284,3.614,2.057,5.815,2.057c5.12,0,9.286-4.165,9.286-9.286
		C55.286,39.8,54.513,37.778,53.229,36.185z"/>
	<path fill="#010101" d="M46,32.714c-5.12,0-9.286,4.166-9.286,9.286c0,2.2,0.773,4.222,2.057,5.815l13.043-13.043
		C50.222,33.487,48.2,32.714,46,32.714z"/>
	<path fill="#010101" d="M46,29c-7.169,0-13,5.832-13,13c0,7.169,5.831,13,13,13c7.168,0,13-5.831,13-13C59,34.832,53.168,29,46,29z
		 M46,53.286c-6.223,0-11.286-5.062-11.286-11.286c0-6.223,5.062-11.286,11.286-11.286c2.752,0,5.275,0.993,7.236,2.636l0.057-0.057
		l1.414,1.414l-0.057,0.057c1.643,1.961,2.636,4.484,2.636,7.236C57.286,48.223,52.223,53.286,46,53.286z"/>
</g>
</svg>
