<?xml version="1.0" encoding="utf-8"?>
<!-- Generator: Adobe Illustrator 17.0.0, SVG Export Plug-In . SVG Version: 6.00 Build 0)  -->
<!DOCTYPE svg PUBLIC "-//W3C//DTD SVG 1.1//EN" "http://www.w3.org/Graphics/SVG/1.1/DTD/svg11.dtd">
<svg version="1.1" id="Layer_2" xmlns="http://www.w3.org/2000/svg" xmlns:xlink="http://www.w3.org/1999/xlink" x="0px" y="0px"
	 width="60px" height="60px" viewBox="0 0 60 60" enable-background="new 0 0 60 60" xml:space="preserve">
<g>
	<path fill="#010101" d="M32.396,38.837c0.144-0.395,0.519-0.658,0.94-0.658h8.395l4.869-9.29c0.173-0.33,0.514-0.536,0.886-0.536
		c0.004,0,0.008,0,0.012,0c0.376,0.004,0.718,0.22,0.884,0.558l4.575,9.269h1.835c0.345-0.822,0.55-1.763,0.55-2.826V11.214
		c0-1.286-0.237-2.368-0.663-3.253l-24.25,19.586c-0.183,0.148-0.406,0.222-0.628,0.222c-0.206,0-0.411-0.063-0.586-0.19
		L2.233,8.042c-0.567,0.898-0.891,1.976-0.891,3.173v24.139c0,3.197,2.582,5.833,5.928,6h27.101l-1.678-1.408
		C32.371,39.675,32.252,39.232,32.396,38.837z"/>
	<path fill="#010101" d="M53.447,6.386c-0.832-0.665-1.91-1.033-3.23-1.033H7.439c-1.494,0-2.811,0.445-3.838,1.21l26.166,18.947
		L53.447,6.386z"/>
	<path fill="#010101" d="M53.115,44.989l5.542-4.81h-6.322c-0.381,0-0.728-0.216-0.897-0.558l-3.98-8.063l-4.237,8.085
		c-0.173,0.329-0.514,0.536-0.886,0.536h-6.252l5.721,4.799c0.315,0.264,0.436,0.694,0.306,1.084l-2.872,8.584l7.659-5.303
		c0.171-0.118,0.371-0.178,0.569-0.178c0.203,0,0.406,0.061,0.579,0.185l7.454,5.296l-2.683-8.604
		C52.698,45.663,52.815,45.25,53.115,44.989z"/>
</g>
</svg>
