<?xml version="1.0" encoding="utf-8"?>
<!-- Generator: Adobe Illustrator 17.0.0, SVG Export Plug-In . SVG Version: 6.00 Build 0)  -->
<!DOCTYPE svg PUBLIC "-//W3C//DTD SVG 1.1//EN" "http://www.w3.org/Graphics/SVG/1.1/DTD/svg11.dtd">
<svg version="1.1" id="Layer_2" xmlns="http://www.w3.org/2000/svg" xmlns:xlink="http://www.w3.org/1999/xlink" x="0px" y="0px"
	 width="60px" height="60px" viewBox="0 0 60 60" enable-background="new 0 0 60 60" xml:space="preserve">
<g>
	<path fill="#010101" d="M42.962,23.085c0.381-0.72,1.631-0.72,2.013,0l8.406,15.881c1.016-1.055,1.609-2.587,1.609-4.466V10.361
		c0-1.286-0.237-2.368-0.663-3.253l-24.25,19.586c-0.183,0.148-0.406,0.222-0.628,0.222c-0.206,0-0.411-0.063-0.586-0.19
		L1.881,7.189C1.314,8.087,0.99,9.165,0.99,10.361V34.5c0,3.197,2.582,5.833,5.928,6h26.826L42.962,23.085z"/>
	<path fill="#010101" d="M53.095,5.533c-0.832-0.665-1.91-1.033-3.23-1.033H7.087c-1.494,0-2.811,0.445-3.838,1.21l26.166,18.948
		L53.095,5.533z"/>
	<path fill="#010101" d="M58.804,53.892l-13.92-27.839c-0.339-0.678-1.45-0.678-1.789,0l-14,28c-0.155,0.31-0.138,0.678,0.044,0.973
		c0.182,0.294,0.504,0.474,0.851,0.474h28c0.006,0,0.013,0,0.02,0c0.552,0,1-0.448,1-1C59.01,54.272,58.933,54.061,58.804,53.892z
		 M42.99,37.247c0-0.552,0.448-1,1-1c0.552,0,1,0.448,1,1V45.5c0,0.552-0.448,1-1,1c-0.552,0-1-0.448-1-1V37.247z M43.99,52.5
		c-1.103,0-2-0.897-2-2s0.897-2,2-2c1.103,0,2,0.897,2,2S45.093,52.5,43.99,52.5z"/>
</g>
</svg>
