<?xml version="1.0" encoding="utf-8"?>
<!-- Generator: Adobe Illustrator 17.0.0, SVG Export Plug-In . SVG Version: 6.00 Build 0)  -->
<!DOCTYPE svg PUBLIC "-//W3C//DTD SVG 1.1//EN" "http://www.w3.org/Graphics/SVG/1.1/DTD/svg11.dtd">
<svg version="1.1" id="Layer_2" xmlns="http://www.w3.org/2000/svg" xmlns:xlink="http://www.w3.org/1999/xlink" x="0px" y="0px"
	 width="60px" height="60px" viewBox="0 0 60 60" enable-background="new 0 0 60 60" xml:space="preserve">
<g>
	<path fill="#010101" d="M39.234,28.283c2.428,0,4.72,1.026,6.447,2.852c1.727-1.826,4.019-2.852,6.447-2.852
		c0.812,0,1.628,0.124,2.423,0.353V10.361c0-1.286-0.237-2.368-0.663-3.253l-24.25,19.586c-0.183,0.148-0.406,0.222-0.628,0.222
		c-0.206,0-0.411-0.063-0.586-0.19L1.441,7.189C0.874,8.087,0.55,9.165,0.55,10.361V34.5c0,3.197,2.582,5.833,5.928,6H30.18
		c-0.172-0.725-0.269-1.45-0.269-2.166C29.911,32.042,34.651,28.283,39.234,28.283z"/>
	<path fill="#010101" d="M52.655,5.533c-0.832-0.665-1.91-1.033-3.23-1.033H6.647c-1.494,0-2.811,0.445-3.838,1.21l26.166,18.947
		L52.655,5.533z"/>
	<path fill="#010101" d="M52.127,30.283c-2.184,0-4.24,1.094-5.641,3.002c-0.377,0.514-1.235,0.514-1.612,0
		c-1.4-1.908-3.457-3.002-5.641-3.002c-3.6,0-7.323,3.011-7.323,8.051c0,2.509,1.538,5.341,3.675,8.038
		c0.083,0.104,0.166,0.208,0.251,0.312c0.148,0.182,0.301,0.362,0.454,0.542c3.1,3.633,6.935,6.672,8.302,7.71
		c0.164,0.122,0.333,0.252,0.49,0.367c0.002,0.001,0.007,0.005,0.009,0.006c0.175,0.127,0.382,0.191,0.588,0.191
		c0.207,0,0.413-0.064,0.588-0.191c0.002-0.001,0.007-0.005,0.008-0.006c0.157-0.115,0.326-0.244,0.491-0.367
		c1.367-1.038,5.202-4.077,8.302-7.71c0.153-0.18,0.307-0.36,0.454-0.542c0.085-0.103,0.168-0.208,0.251-0.312
		c1.808-2.282,3.184-4.66,3.565-6.857c0.009-0.052,0.016-0.105,0.024-0.157c0.053-0.346,0.087-0.689,0.087-1.024
		C59.45,33.294,55.727,30.283,52.127,30.283z"/>
</g>
</svg>
