<?xml version="1.0" encoding="utf-8"?>
<!-- Generator: Adobe Illustrator 17.0.0, SVG Export Plug-In . SVG Version: 6.00 Build 0)  -->
<!DOCTYPE svg PUBLIC "-//W3C//DTD SVG 1.1//EN" "http://www.w3.org/Graphics/SVG/1.1/DTD/svg11.dtd">
<svg version="1.1" id="Layer_2" xmlns="http://www.w3.org/2000/svg" xmlns:xlink="http://www.w3.org/1999/xlink" x="0px" y="0px"
	 width="60px" height="60px" viewBox="0 0 60 60" enable-background="new 0 0 60 60" xml:space="preserve">
<g>
	<path fill="#010101" d="M44.427,39.657c-0.171,0.115-0.365,0.17-0.556,0.17c-0.322,0-0.638-0.155-0.831-0.443
		c-0.308-0.458-0.186-1.08,0.273-1.388L58.95,27.5L50,21.468V1c0-0.552-0.448-1-1-1H11c-0.552,0-1,0.448-1,1v20.468L1.05,27.5
		l15.638,10.496c0.459,0.308,0.581,0.929,0.273,1.388c-0.193,0.288-0.509,0.443-0.831,0.443c-0.191,0-0.385-0.055-0.556-0.17
		L0,29.205v26.013C0,57.855,2.145,60,4.782,60h50.435C57.854,60,60,57.855,60,55.217V29.205L44.427,39.657z M12,33V2h36v31H12z
		 M52.763,52.646C52.565,52.88,52.284,53,51.999,53c-0.228,0-0.457-0.078-0.645-0.237L38.634,42H21.366L8.646,52.763
		c-0.423,0.357-1.053,0.304-1.409-0.117c-0.357-0.422-0.304-1.053,0.117-1.409l13-11C20.535,40.084,20.764,40,21,40h18
		c0.236,0,0.465,0.084,0.646,0.237l13,11C53.067,51.593,53.12,52.224,52.763,52.646z"/>
	<path fill="#010101" d="M19,8h5c0.552,0,1-0.448,1-1c0-0.552-0.448-1-1-1h-5c-0.552,0-1,0.448-1,1C18,7.552,18.448,8,19,8z"/>
	<path fill="#010101" d="M41,12H24c-0.552,0-1,0.448-1,1c0,0.552,0.448,1,1,1h17c0.552,0,1-0.448,1-1C42,12.448,41.552,12,41,12z"/>
	<path fill="#010101" d="M41,20H19c-0.552,0-1,0.448-1,1c0,0.552,0.448,1,1,1h22c0.552,0,1-0.448,1-1C42,20.448,41.552,20,41,20z"/>
	<path fill="#010101" d="M41,28H19c-0.552,0-1,0.448-1,1c0,0.552,0.448,1,1,1h22c0.552,0,1-0.448,1-1C42,28.448,41.552,28,41,28z"/>
</g>
</svg>
