<?xml version="1.0" encoding="utf-8"?>
<!-- Generator: Adobe Illustrator 17.0.0, SVG Export Plug-In . SVG Version: 6.00 Build 0)  -->
<!DOCTYPE svg PUBLIC "-//W3C//DTD SVG 1.1//EN" "http://www.w3.org/Graphics/SVG/1.1/DTD/svg11.dtd">
<svg version="1.1" id="Layer_2" xmlns="http://www.w3.org/2000/svg" xmlns:xlink="http://www.w3.org/1999/xlink" x="0px" y="0px"
	 width="60px" height="60px" viewBox="0 0 60 60" enable-background="new 0 0 60 60" xml:space="preserve">
<g>
	<path fill="#010101" d="M46,27c3.379,0,6.489,1.137,9,3.029V10.861c0-1.286-0.237-2.368-0.663-3.253l-24.25,19.586
		c-0.183,0.148-0.406,0.222-0.628,0.222c-0.206,0-0.411-0.063-0.586-0.19L1.891,7.689C1.324,8.587,1,9.665,1,10.861V35
		c0,3.197,2.582,5.833,5.928,6h24.123C31.569,33.196,38.066,27,46,27z"/>
	<path fill="#010101" d="M53.105,6.033C52.273,5.367,51.195,5,49.875,5H7.097C5.603,5,4.286,5.445,3.259,6.21l26.166,18.948
		L53.105,6.033z"/>
	<path fill="#010101" d="M46,29c-7.169,0-13,5.832-13,13c0,7.169,5.831,13,13,13c7.168,0,13-5.831,13-13C59,34.832,53.168,29,46,29z
		 M50,45h-7V35c0-0.552,0.448-1,1-1c0.552,0,1,0.448,1,1v8h5c0.552,0,1,0.448,1,1C51,44.552,50.552,45,50,45z"/>
</g>
</svg>
