<?xml version="1.0" encoding="utf-8"?>
<!-- Generator: Adobe Illustrator 17.0.0, SVG Export Plug-In . SVG Version: 6.00 Build 0)  -->
<!DOCTYPE svg PUBLIC "-//W3C//DTD SVG 1.1//EN" "http://www.w3.org/Graphics/SVG/1.1/DTD/svg11.dtd">
<svg version="1.1" id="Layer_2" xmlns="http://www.w3.org/2000/svg" xmlns:xlink="http://www.w3.org/1999/xlink" x="0px" y="0px"
	 width="60px" height="60px" viewBox="0 0 60 60" enable-background="new 0 0 60 60" xml:space="preserve">
<g>
	<path fill="#010101" d="M53.105,6.033C52.273,5.367,51.195,5,49.875,5H7.097C5.603,5,4.286,5.445,3.259,6.21l26.166,18.947
		L53.105,6.033z"/>
	<path fill="#010101" d="M46,27c3.379,0,6.489,1.137,9,3.029V10.861c0-1.286-0.237-2.368-0.663-3.253l-24.25,19.586
		c-0.183,0.148-0.406,0.222-0.628,0.222c-0.206,0-0.411-0.063-0.586-0.19L1.891,7.689C1.324,8.587,1,9.665,1,10.861V35
		c0,3.197,2.582,5.833,5.928,6h24.123C31.569,33.196,38.067,27,46,27z"/>
	<path fill="#010101" d="M46,29c-7.168,0-13,5.832-13,13c0,7.169,5.832,13,13,13s13-5.831,13-13C59,34.832,53.168,29,46,29z
		 M51.707,40.707c-0.391,0.391-1.023,0.391-1.414,0L47,37.414V49c0,0.552-0.448,1-1,1s-1-0.448-1-1V37.42l-3.295,3.307
		c-0.195,0.196-0.452,0.294-0.708,0.294c-0.255,0-0.511-0.097-0.706-0.292c-0.391-0.39-0.392-1.023-0.002-1.415l5.711-5.731
		l0.708,0.708l0,0l5,5C52.098,39.684,52.098,40.316,51.707,40.707z"/>
</g>
</svg>
