<?xml version="1.0" encoding="utf-8"?>
<!-- Generator: Adobe Illustrator 17.0.0, SVG Export Plug-In . SVG Version: 6.00 Build 0)  -->
<!DOCTYPE svg PUBLIC "-//W3C//DTD SVG 1.1//EN" "http://www.w3.org/Graphics/SVG/1.1/DTD/svg11.dtd">
<svg version="1.1" id="Layer_2" xmlns="http://www.w3.org/2000/svg" xmlns:xlink="http://www.w3.org/1999/xlink" x="0px" y="0px"
	 width="60px" height="60px" viewBox="0 0 60 60" enable-background="new 0 0 60 60" xml:space="preserve">
<g>
	<path fill="#010101" d="M38.521,36c0-4.973,5.479-9,9.479-9c2.276,0,5.032,1.298,7,3.335V10.861c0-1.286-0.237-2.368-0.663-3.253
		l-24.25,19.586c-0.183,0.148-0.406,0.222-0.628,0.222c-0.206,0-0.411-0.063-0.586-0.19L1.891,7.689C1.324,8.587,1,9.665,1,10.861
		V35c0,3.197,2.582,5.833,5.928,6H35v-3c0-1.267,1-2,2-2H38.521z"/>
	<path fill="#010101" d="M53.105,6.033C52.273,5.367,51.195,5,49.875,5H7.097C5.603,5,4.286,5.445,3.259,6.21l26.166,18.947
		L53.105,6.033z"/>
	<path fill="#010101" d="M58,38h-2v-1.25c0-4.038-3.962-8-8-8c-4.038,0-8,3.962-8,8V38h-2c-0.552,0-1,0.448-1,1v15
		c0,0.552,0.448,1,1,1h20c0.552,0,1-0.448,1-1V39C59,38.448,58.552,38,58,38z M49,45.963V49.8c0,0.552-0.448,1-1,1
		c-0.552,0-1-0.448-1-1v-3.843c-0.409-0.304-0.683-0.781-0.694-1.324c-0.009-0.453,0.16-0.882,0.474-1.208
		c0.314-0.325,0.736-0.51,1.188-0.519h0c0.948,0,1.708,0.745,1.725,1.661C49.704,45.138,49.428,45.648,49,45.963z M54,38H42v-1.25
		c0-2.972,3.028-6,6-6c2.972,0,6,3.028,6,6V38z"/>
</g>
</svg>
