<?xml version="1.0" encoding="utf-8"?>
<!-- Generator: Adobe Illustrator 17.0.0, SVG Export Plug-In . SVG Version: 6.00 Build 0)  -->
<!DOCTYPE svg PUBLIC "-//W3C//DTD SVG 1.1//EN" "http://www.w3.org/Graphics/SVG/1.1/DTD/svg11.dtd">
<svg version="1.1" id="Layer_2" xmlns="http://www.w3.org/2000/svg" xmlns:xlink="http://www.w3.org/1999/xlink" x="0px" y="0px"
	 width="60px" height="60px" viewBox="0 0 60 60" enable-background="new 0 0 60 60" xml:space="preserve">
<g>
	<path fill="#010101" d="M51.988,23.722c0.391-0.391,1.023-0.391,1.414,0L54,24.32V9.861c0-1.286-0.237-2.368-0.663-3.253
		l-24.25,19.586c-0.183,0.148-0.406,0.222-0.628,0.222c-0.206,0-0.411-0.063-0.586-0.19L0.891,6.689C0.324,7.587,0,8.665,0,9.861V34
		c0,3.197,2.582,5.833,5.928,6H35.71L51.988,23.722z"/>
	<path fill="#010101" d="M52.105,5.033C51.273,4.367,50.195,4,48.875,4H6.097C4.603,4,3.286,4.445,2.259,5.21l26.166,18.948
		L52.105,5.033z"/>
	<polygon fill="#010101" points="38.538,40 38.538,40 33.778,44.76 41.497,52.479 53.956,40.02 46.237,32.301 	"/>
	<path fill="#010101" d="M59.707,32.856L54,27.148v0l-1.305-1.305l-5.044,5.043l7.719,7.719l4.336-4.336
		C59.894,34.082,60,33.828,60,33.563C60,33.297,59.894,33.043,59.707,32.856z"/>
	<path fill="#010101" d="M30.295,54.725c-0.1,0.35-0.002,0.725,0.254,0.982C30.74,55.898,30.995,56,31.257,56
		c0.092,0,0.184-0.013,0.275-0.039l8.26-2.36l-7.137-7.137L30.295,54.725z"/>
</g>
</svg>
