<?xml version="1.0" encoding="utf-8"?>
<!-- Generator: Adobe Illustrator 17.0.0, SVG Export Plug-In . SVG Version: 6.00 Build 0)  -->
<!DOCTYPE svg PUBLIC "-//W3C//DTD SVG 1.1//EN" "http://www.w3.org/Graphics/SVG/1.1/DTD/svg11.dtd">
<svg version="1.1" id="Layer_2" xmlns="http://www.w3.org/2000/svg" xmlns:xlink="http://www.w3.org/1999/xlink" x="0px" y="0px"
	 width="60px" height="60px" viewBox="0 0 60 60" enable-background="new 0 0 60 60" xml:space="preserve">
<g>
	<path fill="#010101" d="M54.386,29.722L30.605,47.796c-0.179,0.136-0.392,0.204-0.605,0.204c-0.213,0-0.426-0.068-0.605-0.204
		L5.614,29.722C5.237,30.416,5,31.187,5,31.999v22c0,3.166,2.322,4.616,4.55,4.948c0.101,0.034,0.208,0.052,0.32,0.052L9.978,59
		c0.006,0,0.026,0,0.032,0c0.017,0,0.035,0,0.052-0.002H50c2.664,0,5-2.336,5-5v-22C55,31.187,54.763,30.416,54.386,29.722z"/>
	<path fill="#010101" d="M53.112,28.178c-0.87-0.719-1.953-1.179-3.112-1.179H10c-1.159,0-2.242,0.459-3.112,1.179L30,45.743
		L53.112,28.178z"/>
	<path fill="#010101" d="M29.293,24.706c0.092,0.092,0.203,0.165,0.325,0.216c0.122,0.051,0.252,0.077,0.382,0.077
		c0.13,0,0.26-0.027,0.382-0.077c0.122-0.051,0.233-0.124,0.325-0.216l11-11c0.391-0.391,0.391-1.023,0-1.414
		c-0.391-0.391-1.023-0.391-1.414,0L31,21.585V1.999c0-0.552-0.448-1-1-1c-0.552,0-1,0.448-1,1v19.586l-9.293-9.293
		c-0.391-0.391-1.023-0.391-1.414,0c-0.391,0.391-0.391,1.023,0,1.414L29.293,24.706z"/>
</g>
</svg>
