<?xml version="1.0" encoding="utf-8"?>
<!-- Generator: Adobe Illustrator 17.0.0, SVG Export Plug-In . SVG Version: 6.00 Build 0)  -->
<!DOCTYPE svg PUBLIC "-//W3C//DTD SVG 1.1//EN" "http://www.w3.org/Graphics/SVG/1.1/DTD/svg11.dtd">
<svg version="1.1" id="Layer_2" xmlns="http://www.w3.org/2000/svg" xmlns:xlink="http://www.w3.org/1999/xlink" x="0px" y="0px"
	 width="60px" height="60px" viewBox="0 0 60 60" enable-background="new 0 0 60 60" xml:space="preserve">
<g>
	<path fill="#010101" d="M46,27c3.379,0,6.489,1.136,9,3.029V10.861c0-1.286-0.237-2.368-0.663-3.253l-24.25,19.586
		c-0.183,0.148-0.406,0.222-0.628,0.222c-0.206,0-0.411-0.063-0.586-0.19L1.891,7.689C1.324,8.587,1,9.665,1,10.861v25.277
		C1,39.425,3.604,42,6.928,42H31C31,33.729,37.729,27,46,27z"/>
	<path fill="#010101" d="M53.105,6.032C52.273,5.367,51.195,5,49.875,5H7.097C5.603,5,4.286,5.445,3.259,6.21l26.166,18.948
		L53.105,6.032z"/>
	<path fill="#010101" d="M46,29c-7.169,0-13,5.832-13,13s5.831,13,13,13c7.168,0,13-5.832,13-13S53.168,29,46,29z M53.881,37.651
		L44.13,49.41l-6.77-5.642c-0.424-0.354-0.481-0.984-0.128-1.408c0.353-0.424,0.983-0.482,1.408-0.128l5.23,4.358l8.472-10.215
		c0.353-0.426,0.983-0.483,1.408-0.131C54.175,36.596,54.234,37.226,53.881,37.651z"/>
</g>
</svg>
