<?xml version="1.0" encoding="utf-8"?>
<!-- Generator: Adobe Illustrator 17.0.0, SVG Export Plug-In . SVG Version: 6.00 Build 0)  -->
<!DOCTYPE svg PUBLIC "-//W3C//DTD SVG 1.1//EN" "http://www.w3.org/Graphics/SVG/1.1/DTD/svg11.dtd">
<svg version="1.1" id="Layer_2" xmlns="http://www.w3.org/2000/svg" xmlns:xlink="http://www.w3.org/1999/xlink" x="0px" y="0px"
	 width="60px" height="60px" viewBox="0 0 60 60" enable-background="new 0 0 60 60" xml:space="preserve">
<g>
	<path fill="#010101" d="M43.039,31.577c2.198,0,4.263,0.575,6.06,1.576l0.016-3.537v-8.451l-14.384,7.492
		c-0.147,0.077-0.306,0.113-0.461,0.113c-0.361,0-0.709-0.196-0.888-0.538c-0.255-0.49-0.065-1.094,0.425-1.349l14.555-7.581
		L25.663,1.142C25.297,0.85,24.776,0.85,24.41,1.145L1.833,19.363l14.436,7.519c0.49,0.255,0.68,0.859,0.425,1.349
		c-0.178,0.342-0.527,0.538-0.888,0.538c-0.155,0-0.314-0.036-0.461-0.113L0.962,21.164v21.575c0,2.477,2.015,4.492,4.491,4.492
		h25.504c-0.264-1.009-0.419-2.062-0.419-3.153C30.538,37.185,36.146,31.577,43.039,31.577z M29.653,30.615h-8.869l-11.2,9.32
		c-0.187,0.156-0.414,0.231-0.639,0.231c-0.287,0-0.571-0.123-0.769-0.36c-0.353-0.424-0.295-1.055,0.129-1.408l11.478-9.552
		c0.18-0.149,0.406-0.231,0.64-0.231h9.23c0.552,0,1,0.448,1,1C30.653,30.168,30.206,30.615,29.653,30.615z"/>
	<path fill="#010101" d="M58.745,57.37l-5.757-5.757l-1.07-1.07c1.327-1.817,2.12-4.048,2.12-6.465
		c0-6.066-4.934-11.001-10.999-11.001c-6.066,0-11.001,4.935-11.001,11.001c0,6.065,4.935,10.999,11.001,10.999
		c2.927,0,5.584-1.157,7.557-3.028l1.06,1.06l5.675,5.675c0.195,0.195,0.451,0.293,0.707,0.293c0.256,0,0.512-0.098,0.707-0.293
		C59.136,58.393,59.136,57.76,58.745,57.37z M43.039,53.077c-4.963,0-9.001-4.037-9.001-8.999c0-4.963,4.038-9.001,9.001-9.001
		c4.962,0,8.999,4.038,8.999,9.001C52.038,49.04,48.001,53.077,43.039,53.077z"/>
</g>
</svg>
