<?xml version="1.0" encoding="utf-8"?>
<!-- Generator: Adobe Illustrator 17.0.0, SVG Export Plug-In . SVG Version: 6.00 Build 0)  -->
<!DOCTYPE svg PUBLIC "-//W3C//DTD SVG 1.1//EN" "http://www.w3.org/Graphics/SVG/1.1/DTD/svg11.dtd">
<svg version="1.1" id="Layer_2" xmlns="http://www.w3.org/2000/svg" xmlns:xlink="http://www.w3.org/1999/xlink" x="0px" y="0px"
	 width="60px" height="60px" viewBox="0 0 60 60" enable-background="new 0 0 60 60" xml:space="preserve">
<g>
	<path fill="#010101" d="M59.755,24.345C59.565,24.126,59.29,24,59,24h-7v-7c0-0.552-0.448-1-1-1h-7v8c0,1.657-1.343,3-3,3
		s-3-1.343-3-3v-8H11C4.523,16,0,20.112,0,26v15c0,0.552,0.448,1,1,1h27v17c0,0.552,0.448,1,1,1c0.552,0,1-0.448,1-1V42h21
		c0.552,0,1-0.448,1-1v-1h5c0.498,0,0.919-0.366,0.99-0.858l2-14C60.031,24.855,59.945,24.564,59.755,24.345z M56.133,38H52V26
		h5.847L56.133,38z"/>
	<path fill="#010101" d="M29,10h9h2v14c0,0.552,0.448,1,1,1s1-0.448,1-1V9V1c0-0.552-0.448-1-1-1h-2.816H29c-0.552,0-1,0.448-1,1v8
		C28,9.552,28.448,10,29,10z"/>
</g>
</svg>
