<?xml version="1.0" encoding="utf-8"?>
<!-- Generator: Adobe Illustrator 17.0.0, SVG Export Plug-In . SVG Version: 6.00 Build 0)  -->
<!DOCTYPE svg PUBLIC "-//W3C//DTD SVG 1.1//EN" "http://www.w3.org/Graphics/SVG/1.1/DTD/svg11.dtd">
<svg version="1.1" id="Layer_2" xmlns="http://www.w3.org/2000/svg" xmlns:xlink="http://www.w3.org/1999/xlink" x="0px" y="0px"
	 width="60px" height="60px" viewBox="0 0 60 60" enable-background="new 0 0 60 60" xml:space="preserve">
<path fill="#010101" d="M44.576,35.817C44.4,35.94,44.199,36,44,36c-0.314,0-0.623-0.147-0.818-0.423
	c-0.318-0.451-0.211-1.075,0.24-1.394l15.865-11.199L30.567,3.177c-0.342-0.235-0.794-0.235-1.136,0L0.744,22.961l16.81,11.207
	c0.459,0.306,0.583,0.927,0.277,1.387C17.638,35.844,17.321,36,16.998,36c-0.19,0-0.383-0.054-0.554-0.168L-0.001,24.868V52
	c0,2.71,2.19,5,4.782,5h50.435c1.409,0,2.653-0.479,3.503-1.348c0.871-0.891,1.313-2.162,1.28-3.652V24.93L44.576,35.817z
	 M51.799,47.6c-0.196,0.262-0.497,0.4-0.801,0.4c-0.208,0-0.419-0.065-0.599-0.2L38.666,39H21.333L9.599,47.8
	c-0.442,0.333-1.069,0.242-1.4-0.2c-0.332-0.442-0.242-1.069,0.2-1.4l12-9c0.173-0.13,0.384-0.2,0.6-0.2h18
	c0.216,0,0.427,0.07,0.6,0.2l12,9C52.041,46.531,52.13,47.158,51.799,47.6z"/>
</svg>
