<?xml version="1.0" encoding="utf-8"?>
<!-- Generator: Adobe Illustrator 17.0.0, SVG Export Plug-In . SVG Version: 6.00 Build 0)  -->
<!DOCTYPE svg PUBLIC "-//W3C//DTD SVG 1.1//EN" "http://www.w3.org/Graphics/SVG/1.1/DTD/svg11.dtd">
<svg version="1.1" id="Layer_2" xmlns="http://www.w3.org/2000/svg" xmlns:xlink="http://www.w3.org/1999/xlink" x="0px" y="0px"
	 width="60px" height="60px" viewBox="0 0 60 60" enable-background="new 0 0 60 60" xml:space="preserve">
<g>
	<path fill="#010101" d="M45.868,27c3.497,0,6.71,1.212,9.264,3.226V10.861c0-1.286-0.237-2.368-0.663-3.253l-24.25,19.586
		c-0.183,0.148-0.406,0.222-0.628,0.222c-0.206,0-0.411-0.063-0.587-0.19L2.023,7.689c-0.567,0.898-0.891,1.976-0.891,3.173V35
		c0,3.197,2.582,5.833,5.928,6h23.859C31.437,33.196,37.935,27,45.868,27z"/>
	<path fill="#010101" d="M53.236,6.033C52.405,5.367,51.327,5,50.007,5H7.229C5.735,5,4.418,5.445,3.391,6.21l26.166,18.948
		L53.236,6.033z"/>
	<path fill="#010101" d="M45.868,29c-7.168,0-13,5.832-13,13c0,7.169,5.832,13,13,13s13-5.831,13-13
		C58.868,34.832,53.037,29,45.868,29z M52.868,43H38.991c-0.552,0-1-0.448-1-1c0-0.552,0.448-1,1-1h11.016h2.861
		c0.552,0,1,0.448,1,1C53.868,42.552,53.42,43,52.868,43z"/>
</g>
</svg>
