<?xml version="1.0" encoding="utf-8"?>
<!-- Generator: Adobe Illustrator 17.0.0, SVG Export Plug-In . SVG Version: 6.00 Build 0)  -->
<!DOCTYPE svg PUBLIC "-//W3C//DTD SVG 1.1//EN" "http://www.w3.org/Graphics/SVG/1.1/DTD/svg11.dtd">
<svg version="1.1" id="Layer_2" xmlns="http://www.w3.org/2000/svg" xmlns:xlink="http://www.w3.org/1999/xlink" x="0px" y="0px"
	 width="60px" height="60px" viewBox="0 0 60 60" enable-background="new 0 0 60 60" xml:space="preserve">
<g>
	<path fill="#010101" d="M59.989,42.973c-0.003-0.067-0.022-0.13-0.04-0.196c-0.017-0.065-0.032-0.129-0.061-0.189
		c-0.008-0.017-0.007-0.036-0.017-0.052l-9-16c-0.177-0.315-0.51-0.51-0.872-0.51H39c-0.552,0-1,0.448-1,1s0.448,1,1,1h10.415
		l7.875,14H41c-0.552,0-1,0.448-1,1v2c0,1.362-2.457,3-4,3H25c-1.486,0-3-1.58-3-3.13v-1.87c0-0.552-0.448-1-1-1H2.71l7.875-14H23
		c0.552,0,1-0.448,1-1s-0.448-1-1-1H10c-0.361,0-0.694,0.195-0.872,0.51l-9,16c-0.009,0.017-0.009,0.035-0.017,0.052
		c-0.03,0.059-0.044,0.123-0.061,0.189c-0.017,0.066-0.036,0.129-0.04,0.196C0.01,42.991,0,43.007,0,43.026v15.947
		c0,0.552,0.448,1,1,1h58c0.552,0,1-0.448,1-1V43.026C60,43.007,59.99,42.991,59.989,42.973z"/>
	<path fill="#010101" d="M21.707,11.733L30,3.44v25.586c0,0.552,0.448,1,1,1c0.552,0,1-0.448,1-1V3.44l8.293,8.293
		c0.195,0.195,0.451,0.293,0.707,0.293c0.256,0,0.512-0.098,0.707-0.293c0.391-0.391,0.391-1.023,0-1.414l-10-10
		c-0.092-0.092-0.203-0.165-0.325-0.216c-0.244-0.101-0.52-0.101-0.764,0c-0.122,0.051-0.233,0.124-0.325,0.216l-10,10
		c-0.391,0.391-0.391,1.023,0,1.414C20.684,12.124,21.316,12.124,21.707,11.733z"/>
</g>
</svg>
