<?xml version="1.0" encoding="utf-8"?>
<!-- Generator: Adobe Illustrator 17.0.0, SVG Export Plug-In . SVG Version: 6.00 Build 0)  -->
<!DOCTYPE svg PUBLIC "-//W3C//DTD SVG 1.1//EN" "http://www.w3.org/Graphics/SVG/1.1/DTD/svg11.dtd">
<svg version="1.1" id="Layer_2" xmlns="http://www.w3.org/2000/svg" xmlns:xlink="http://www.w3.org/1999/xlink" x="0px" y="0px"
	 width="60px" height="60px" viewBox="0 0 60 60" enable-background="new 0 0 60 60" xml:space="preserve">
<g>
	<path fill="#010101" d="M59.95,42.277c-0.017-0.065-0.032-0.129-0.061-0.188c-0.008-0.017-0.007-0.036-0.017-0.052l-9-16
		c-0.177-0.315-0.51-0.51-0.872-0.51H36c-0.552,0-1,0.448-1,1c0,0.552,0.448,1,1,1h13.415l7.875,14H41c-0.552,0-1,0.448-1,1v2
		c0,1.362-2.457,3-4,3H25c-1.486,0-3-1.58-3-3.13v-1.87c0-0.552-0.448-1-1-1H2.71l7.875-14H16c0.552,0,1-0.448,1-1
		c0-0.552-0.448-1-1-1h-6c-0.361,0-0.694,0.195-0.872,0.51l-9,16c-0.009,0.017-0.009,0.035-0.017,0.052
		c-0.03,0.059-0.044,0.123-0.061,0.188c-0.017,0.066-0.036,0.129-0.04,0.196C0.01,42.492,0,42.507,0,42.527v15.947
		c0,0.552,0.448,1,1,1h58c0.552,0,1-0.448,1-1V42.527c0-0.019-0.01-0.035-0.011-0.053C59.986,42.406,59.967,42.343,59.95,42.277z"/>
	<path fill="#010101" d="M21.05,36.563c0.042,0.005,0.083,0.008,0.125,0.008c0.459,0,0.868-0.317,0.974-0.775
		C22.189,35.615,26.452,18.12,46,17.541v3.985c0,0.387,0.224,0.74,0.574,0.905c0.352,0.165,0.764,0.113,1.063-0.134l12-9.913
		c0.229-0.189,0.362-0.47,0.363-0.767c0.001-0.297-0.129-0.579-0.356-0.77l-12-10.087c-0.298-0.25-0.714-0.305-1.066-0.141
		C46.226,0.784,46,1.138,46,1.527v4.015C21.081,6.298,20.18,35.253,20.174,35.549C20.163,36.062,20.541,36.5,21.05,36.563z"/>
</g>
</svg>
