<?xml version="1.0" encoding="utf-8"?>
<!-- Generator: Adobe Illustrator 17.0.0, SVG Export Plug-In . SVG Version: 6.00 Build 0)  -->
<!DOCTYPE svg PUBLIC "-//W3C//DTD SVG 1.1//EN" "http://www.w3.org/Graphics/SVG/1.1/DTD/svg11.dtd">
<svg version="1.1" id="Layer_2" xmlns="http://www.w3.org/2000/svg" xmlns:xlink="http://www.w3.org/1999/xlink" x="0px" y="0px"
	 width="60px" height="60px" viewBox="0 0 60 60" enable-background="new 0 0 60 60" xml:space="preserve">
<path fill="#010101" d="M27.312,19.882c-0.726,0-1.338,0.02-1.812,0.044V11c0-0.388-0.225-0.741-0.576-0.906
	c-0.35-0.165-0.766-0.111-1.065,0.138l-21,17.532c-0.228,0.19-0.359,0.472-0.359,0.768c0,0.297,0.132,0.578,0.36,0.768l21,17.468
	c0.298,0.249,0.714,0.301,1.064,0.137C25.276,46.741,25.5,46.388,25.5,46v-9.203c1.183-0.246,3.686-0.672,6.809-0.672
	c7.386,0,17.426,2.315,23.309,13.346C55.794,49.802,56.137,50,56.5,50c0.08,0,0.162-0.01,0.243-0.03
	C57.187,49.859,57.5,49.459,57.5,49C57.5,21.982,34.394,19.882,27.312,19.882z"/>
</svg>
