<?xml version="1.0" encoding="utf-8"?>
<!-- Generator: Adobe Illustrator 17.0.0, SVG Export Plug-In . SVG Version: 6.00 Build 0)  -->
<!DOCTYPE svg PUBLIC "-//W3C//DTD SVG 1.1//EN" "http://www.w3.org/Graphics/SVG/1.1/DTD/svg11.dtd">
<svg version="1.1" id="Layer_2" xmlns="http://www.w3.org/2000/svg" xmlns:xlink="http://www.w3.org/1999/xlink" x="0px" y="0px"
	 width="60px" height="60px" viewBox="0 0 60 60" enable-background="new 0 0 60 60" xml:space="preserve">
<g>
	<path fill="#010101" d="M59,13H1c-0.553,0-1,0.448-1,1v14c0,0.552,0.447,1,1,1h8.758l11.707-11.707
		C21.652,17.106,21.906,17,22.172,17H32h13.231h7.597c0.404,0,0.77,0.244,0.924,0.617c0.155,0.374,0.069,0.804-0.217,1.09l-26,26
		C27.348,44.895,27.094,45,26.828,45H3.533H0.605l-0.288,0.27c-0.3,0.281-0.397,0.716-0.246,1.098C0.221,46.749,0.59,47,1,47h27
		c0.266,0,0.52-0.105,0.707-0.293L46.414,29H59c0.553,0,1-0.448,1-1V14C60,13.448,59.553,13,59,13z"/>
	<path fill="#010101" d="M1,43h25h0.414l24-24H48H23h-0.414L0.293,41.294c-0.286,0.286-0.372,0.716-0.216,1.089
		C0.231,42.756,0.596,43,1,43z M18.282,32.431c0.35-0.425,0.979-0.487,1.407-0.134c0.426,0.352,0.486,0.982,0.134,1.408
		c-0.328,0.398-0.407,0.666-0.413,0.759c0.02-0.028,0.14,0.009,0.356,0.012c0.01,0,0.021,0,0.031,0c1.159,0,2.921-0.911,3.791-1.965
		c0.328-0.397,0.408-0.666,0.414-0.758c-0.016,0.028-0.14-0.009-0.356-0.012c-1.026-0.015-1.811-0.446-2.15-1.181
		c-0.224-0.483-0.431-1.497,0.695-2.861c1.147-1.39,3.206-2.483,4.882-2.658l1.031-1.248c0.35-0.425,0.979-0.486,1.407-0.134
		c0.426,0.352,0.486,0.982,0.134,1.408l-0.413,0.499c0.208,0.175,0.39,0.373,0.505,0.622c0.223,0.483,0.43,1.497-0.696,2.862
		c-0.35,0.426-0.979,0.488-1.407,0.136c-0.427-0.351-0.487-0.982-0.136-1.407c0.328-0.399,0.407-0.667,0.413-0.761
		c-0.017,0.028-0.139-0.008-0.355-0.012c-0.01,0-0.02,0-0.03,0c-1.159,0-2.923,0.912-3.792,1.965
		c-0.327,0.397-0.407,0.665-0.413,0.758c0.018-0.029,0.141,0.009,0.355,0.012c1.028,0.016,1.812,0.447,2.152,1.183
		c0.223,0.483,0.429,1.497-0.697,2.861c-1.149,1.391-3.197,2.481-4.88,2.656l-1.032,1.25c-0.197,0.239-0.483,0.363-0.771,0.363
		c-0.224,0-0.449-0.075-0.636-0.229c-0.426-0.352-0.486-0.982-0.134-1.408l0.412-0.499c-0.209-0.175-0.391-0.374-0.506-0.623
		C17.361,34.809,17.155,33.794,18.282,32.431z"/>
</g>
</svg>
