<?xml version="1.0" encoding="utf-8"?>
<!-- Generator: Adobe Illustrator 17.0.0, SVG Export Plug-In . SVG Version: 6.00 Build 0)  -->
<!DOCTYPE svg PUBLIC "-//W3C//DTD SVG 1.1//EN" "http://www.w3.org/Graphics/SVG/1.1/DTD/svg11.dtd">
<svg version="1.1" id="Layer_2" xmlns="http://www.w3.org/2000/svg" xmlns:xlink="http://www.w3.org/1999/xlink" x="0px" y="0px"
	 width="60px" height="60px" viewBox="0 0 60 60" enable-background="new 0 0 60 60" xml:space="preserve">
<path fill="#010101" d="M59,38h-0.323l-7.2-18H54c0.553,0,1-0.448,1-1c0-0.552-0.447-1-1-1H33.899c-0.465-2.279-2.484-4-4.899-4
	c-2.415,0-4.434,1.721-4.899,4H6c-0.553,0-1,0.448-1,1c0,0.552,0.447,1,1,1h2.523l-7.2,18H1c-0.553,0-1,0.448-1,1
	c0,5.514,4.486,10,10,10s10-4.486,10-10c0-0.552-0.447-1-1-1h-0.323l-7.2-18h12.624c0.399,1.956,1.943,3.5,3.899,3.899V58h-7
	c-0.553,0-1,0.448-1,1c0,0.552,0.447,1,1,1h18c0.553,0,1-0.448,1-1c0-0.552-0.447-1-1-1h-9V23.899
	c1.956-0.399,3.5-1.943,3.899-3.899h14.624l-7.2,18H41c-0.553,0-1,0.448-1,1c0,5.514,4.486,10,10,10c5.514,0,10-4.486,10-10
	C60,38.448,59.553,38,59,38z M16.523,38H3.477L10,21.692L16.523,38z M43.477,38L50,21.692L56.523,38H43.477z"/>
</svg>
