<?xml version="1.0" encoding="utf-8"?>
<!-- Generator: Adobe Illustrator 17.0.0, SVG Export Plug-In . SVG Version: 6.00 Build 0)  -->
<!DOCTYPE svg PUBLIC "-//W3C//DTD SVG 1.1//EN" "http://www.w3.org/Graphics/SVG/1.1/DTD/svg11.dtd">
<svg version="1.1" id="Layer_2" xmlns="http://www.w3.org/2000/svg" xmlns:xlink="http://www.w3.org/1999/xlink" x="0px" y="0px"
	 width="60px" height="60px" viewBox="0 0 60 60" enable-background="new 0 0 60 60" xml:space="preserve">
<g>
	<path fill="#010101" d="M58,58H2c-0.553,0-1,0.448-1,1c0,0.552,0.447,1,1,1h56c0.553,0,1-0.448,1-1C59,58.448,58.553,58,58,58z"/>
	<path fill="#010101" d="M2,56h56c0.553,0,1-0.448,1-1c0-0.552-0.447-1-1-1H2c-0.553,0-1,0.448-1,1C1,55.552,1.447,56,2,56z"/>
	<path fill="#010101" d="M56,30c0.553,0,1-0.448,1-1c0-0.552-0.447-1-1-1h-1H45h-1c-0.553,0-1,0.448-1,1c0,0.552,0.447,1,1,1h1v20
		h-1c-0.553,0-1,0.448-1,1c0,0.552,0.447,1,1,1h1h10h1c0.553,0,1-0.448,1-1c0-0.552-0.447-1-1-1h-1V30H56z"/>
	<path fill="#010101" d="M16,30c0.553,0,1-0.448,1-1c0-0.552-0.447-1-1-1h-1H5H4c-0.553,0-1,0.448-1,1c0,0.552,0.447,1,1,1h1v20H4
		c-0.553,0-1,0.448-1,1c0,0.552,0.447,1,1,1h1h10h1c0.553,0,1-0.448,1-1c0-0.552-0.447-1-1-1h-1V30H16z"/>
	<path fill="#010101" d="M36,30c0.553,0,1-0.448,1-1c0-0.552-0.447-1-1-1h-1H25h-1c-0.553,0-1,0.448-1,1c0,0.552,0.447,1,1,1h1v20
		h-1c-0.553,0-1,0.448-1,1c0,0.552,0.447,1,1,1h1h10h1c0.553,0,1-0.448,1-1c0-0.552-0.447-1-1-1h-1V30H36z"/>
	<path fill="#010101" d="M2,26h56c0.419,0,0.793-0.261,0.937-0.653c0.146-0.392,0.031-0.834-0.287-1.106l-28-24
		c-0.373-0.321-0.928-0.321-1.301,0l-28,24c-0.318,0.272-0.433,0.714-0.287,1.106C1.207,25.739,1.581,26,2,26z"/>
</g>
</svg>
