<?xml version="1.0" encoding="utf-8"?>
<!-- Generator: Adobe Illustrator 17.0.0, SVG Export Plug-In . SVG Version: 6.00 Build 0)  -->
<!DOCTYPE svg PUBLIC "-//W3C//DTD SVG 1.1//EN" "http://www.w3.org/Graphics/SVG/1.1/DTD/svg11.dtd">
<svg version="1.1" id="Layer_2" xmlns="http://www.w3.org/2000/svg" xmlns:xlink="http://www.w3.org/1999/xlink" x="0px" y="0px"
	 width="60px" height="60px" viewBox="0 0 60 60" enable-background="new 0 0 60 60" xml:space="preserve">
<g>
	<path fill="#010101" d="M58,58H2c-0.553,0-1,0.448-1,1s0.447,1,1,1h56c0.553,0,1-0.448,1-1S58.553,58,58,58z"/>
	<path fill="#010101" d="M54,34c0.553,0,1-0.448,1-1s-0.447-1-1-1h-1h-4v24h4h1c0.553,0,1-0.448,1-1s-0.447-1-1-1h-1V34H54z"/>
	<path fill="#010101" d="M42,54c-0.553,0-1,0.448-1,1s0.447,1,1,1h1h4V32h-4h-1c-0.553,0-1,0.448-1,1s0.447,1,1,1h1v20H42z"/>
	<path fill="#010101" d="M18,34c0.553,0,1-0.448,1-1s-0.447-1-1-1h-1h-4v24h4h1c0.553,0,1-0.448,1-1s-0.447-1-1-1h-1V34H18z"/>
	<path fill="#010101" d="M6,54c-0.553,0-1,0.448-1,1s0.447,1,1,1h1h4V32H7H6c-0.553,0-1,0.448-1,1s0.447,1,1,1h1v20H6z"/>
	<path fill="#010101" d="M36,34c0.553,0,1-0.448,1-1s-0.447-1-1-1h-1h-4v24h4h1c0.553,0,1-0.448,1-1s-0.447-1-1-1h-1V34H36z"/>
	<path fill="#010101" d="M24,54c-0.553,0-1,0.448-1,1s0.447,1,1,1h1h4V32h-4h-1c-0.553,0-1,0.448-1,1s0.447,1,1,1h1v20H24z"/>
	<path fill="#010101" d="M2,30h56c0.435,0,0.819-0.281,0.952-0.695c0.133-0.414-0.018-0.866-0.371-1.119l-28-20
		c-0.348-0.248-0.814-0.248-1.162,0l-28,20c-0.354,0.253-0.504,0.705-0.371,1.119C1.181,29.719,1.565,30,2,30z"/>
</g>
</svg>
