<?xml version="1.0" encoding="utf-8"?>
<!-- Generator: Adobe Illustrator 17.0.0, SVG Export Plug-In . SVG Version: 6.00 Build 0)  -->
<!DOCTYPE svg PUBLIC "-//W3C//DTD SVG 1.1//EN" "http://www.w3.org/Graphics/SVG/1.1/DTD/svg11.dtd">
<svg version="1.1" id="Layer_2" xmlns="http://www.w3.org/2000/svg" xmlns:xlink="http://www.w3.org/1999/xlink" x="0px" y="0px"
	 width="60px" height="60px" viewBox="0 0 60 60" enable-background="new 0 0 60 60" xml:space="preserve">
<g>
	<path fill="#010101" d="M51,10H1v32h50V10z M14,36H8c-0.553,0-1-0.448-1-1c0-0.552,0.447-1,1-1h6c0.553,0,1,0.448,1,1
		C15,35.552,14.553,36,14,36z M26,35c-4.963,0-9-4.037-9-9c0-4.963,4.037-9,9-9c4.963,0,9,4.037,9,9C35,30.963,30.963,35,26,35z
		 M44,18h-6c-0.553,0-1-0.448-1-1c0-0.552,0.447-1,1-1h6c0.553,0,1,0.448,1,1C45,17.552,44.553,18,44,18z"/>
	<path fill="#010101" d="M55,15c0-0.552-0.447-1-1-1c-0.553,0-1,0.448-1,1v29H6c-0.553,0-1,0.448-1,1c0,0.552,0.447,1,1,1h49V15z"/>
	<path fill="#010101" d="M58,18c-0.553,0-1,0.448-1,1v29H10c-0.553,0-1,0.448-1,1c0,0.552,0.447,1,1,1h49V19
		C59,18.448,58.553,18,58,18z"/>
</g>
</svg>
