<?xml version="1.0" encoding="utf-8"?>
<!-- Generator: Adobe Illustrator 17.1.0, SVG Export Plug-In . SVG Version: 6.00 Build 0)  -->
<!DOCTYPE svg PUBLIC "-//W3C//DTD SVG 1.0//EN" "http://www.w3.org/TR/2001/REC-SVG-20010904/DTD/svg10.dtd">
<svg version="1.0" id="Layer_1" xmlns="http://www.w3.org/2000/svg" xmlns:xlink="http://www.w3.org/1999/xlink" x="0px" y="0px"
	 width="60px" height="60px" viewBox="0 0 60 60" enable-background="new 0 0 60 60" xml:space="preserve">
<g>
	<path d="M58.445,19.168L43.697,29H34v2h10c0.197,0,0.391-0.059,0.555-0.168l15-10c0.46-0.306,0.584-0.927,0.277-1.387
		C59.526,18.986,58.906,18.861,58.445,19.168z"/>
	<path d="M58.445,23.168L43.697,33H34v2h10c0.197,0,0.391-0.059,0.555-0.168l15-10c0.46-0.306,0.584-0.927,0.277-1.387
		C59.526,22.986,58.906,22.861,58.445,23.168z"/>
	<path d="M58.445,27.168L43.697,37H34v2h10c0.197,0,0.391-0.059,0.555-0.168l15-10c0.46-0.306,0.584-0.927,0.277-1.387
		C59.526,26.986,58.906,26.861,58.445,27.168z"/>
	<path d="M58.445,31.168L43.697,41H34v2h10c0.197,0,0.391-0.059,0.555-0.168l15-10c0.46-0.306,0.584-0.927,0.277-1.387
		C59.526,30.986,58.906,30.861,58.445,31.168z"/>
	<path d="M0,30c0,0.552,0.447,1,1,1h9v-2H1C0.447,29,0,29.448,0,30z"/>
	<path d="M0,34c0,0.552,0.447,1,1,1h9v-2H1C0.447,33,0,33.448,0,34z"/>
	<path d="M0,38c0,0.552,0.447,1,1,1h9v-2H1C0.447,37,0,37.448,0,38z"/>
	<path d="M0,42c0,0.552,0.447,1,1,1h9v-2H1C0.447,41,0,41.448,0,42z"/>
	<path d="M34,27h10c0.197,0,0.391-0.059,0.555-0.168l15-10c0.366-0.244,0.53-0.7,0.402-1.122C59.829,15.289,59.44,15,59,15h-7.592
		L50,15.939V16l-0.367,0.184L34,26.605V27z"/>
	<path d="M16,15c-0.197,0-0.391,0.059-0.555,0.168l-15,10c-0.366,0.244-0.53,0.7-0.402,1.122C0.171,26.711,0.559,27,1,27h9v-3.07
		c0-0.335,0.167-0.647,0.445-0.832L22.592,15H16z"/>
	<path d="M46.957,14.71C46.829,14.289,46.44,14,46,14H28c-0.197,0-0.391,0.059-0.555,0.168l-15,10L12,24.465V25v20
		c0,0.552,0.447,1,1,1h18c0.553,0,1-0.448,1-1V26.07c0-0.334,0.167-0.646,0.445-0.832l14.109-9.406
		C46.921,15.588,47.085,15.132,46.957,14.71z M22,31c2.205,0,3.999,1.795,3.999,4c0,1.858-1.279,3.41-2.999,3.858V40
		c0,0.552-0.447,1-1,1s-1-0.448-1-1v-1.141c-1.721-0.447-3.001-1.999-3.001-3.858c0-0.552,0.447-1,1-1c0.553,0,1,0.448,1,1
		c0,1.103,0.897,2,1.999,2c0,0,0.001,0,0.001,0h0.002c1.101-0.001,1.997-0.897,1.997-2c0-1.103-0.897-2-2-2
		C19.794,33,18,31.205,18,29c0-1.858,1.279-3.411,3-3.858V24c0-0.552,0.447-1,1-1s1,0.448,1,1v1.142c1.721,0.447,3,2,3,3.858
		c0,0.552-0.447,1-1,1s-1-0.448-1-1c0-1.103-0.897-2-2-2c-1.102,0-2,0.897-2,2S20.897,31,22,31z"/>
</g>
</svg>
