<?xml version="1.0" encoding="utf-8"?>
<!-- Generator: Adobe Illustrator 17.0.0, SVG Export Plug-In . SVG Version: 6.00 Build 0)  -->
<!DOCTYPE svg PUBLIC "-//W3C//DTD SVG 1.1//EN" "http://www.w3.org/Graphics/SVG/1.1/DTD/svg11.dtd">
<svg version="1.1" id="Layer_2" xmlns="http://www.w3.org/2000/svg" xmlns:xlink="http://www.w3.org/1999/xlink" x="0px" y="0px"
	 width="60px" height="60px" viewBox="0 0 60 60" enable-background="new 0 0 60 60" xml:space="preserve">
<g>
	<path fill="#010101" d="M0,11v38h60V11H0z M58,47H2V13h56V47z"/>
	<path fill="#010101" d="M10,45h40c3.364,0,6-2.636,6-6V21c0-3.364-2.636-6-6-6H10c-3.364,0-6,2.636-6,6v18C4,42.364,6.636,45,10,45
		z M47,33c1.654,0,3,1.345,3,2.999C50,37.653,48.654,39,47,39c-1.654,0-3-1.347-3-3.001C44,34.345,45.346,33,47,33z M29.999,22.001
		C34.411,22.001,38,25.589,38,30c0,4.411-3.589,8-8.001,8C25.588,38,22,34.411,22,30C22,25.589,25.588,22.001,29.999,22.001z M13,21
		c1.654,0,3,1.345,3,2.999C16,25.653,14.654,27,13,27c-1.654,0-3-1.347-3-3.001C10,22.345,11.346,21,13,21z"/>
</g>
</svg>
