<?xml version="1.0" encoding="utf-8"?>
<!-- Generator: Adobe Illustrator 17.0.0, SVG Export Plug-In . SVG Version: 6.00 Build 0)  -->
<!DOCTYPE svg PUBLIC "-//W3C//DTD SVG 1.1//EN" "http://www.w3.org/Graphics/SVG/1.1/DTD/svg11.dtd">
<svg version="1.1" id="Layer_2" xmlns="http://www.w3.org/2000/svg" xmlns:xlink="http://www.w3.org/1999/xlink" x="0px" y="0px"
	 width="60px" height="60px" viewBox="0 0 60 60" enable-background="new 0 0 60 60" xml:space="preserve">
<g>
	<polygon fill="#010101" points="10,53 10,60 20,60 20,53 19,53 	"/>
	<path fill="#010101" d="M27,53h-5v7h5c0.553,0,1-0.448,1-1v-5C28,53.448,27.553,53,27,53z"/>
	<path fill="#010101" d="M3,53c-0.553,0-1,0.448-1,1v5c0,0.552,0.447,1,1,1h5v-7H7H3z"/>
	<polygon fill="#010101" points="20,44 20,37 19,37 10,37 10,44 19,44 	"/>
	<path fill="#010101" d="M3,37c-0.553,0-1,0.448-1,1v5c0,0.552,0.447,1,1,1h4h1v-7H7H3z"/>
	<path fill="#010101" d="M27,37h-5v7h5c0.553,0,1-0.448,1-1v-5C28,37.448,27.553,37,27,37z"/>
	<path fill="#010101" d="M10,21H5c-0.553,0-1,0.448-1,1v5c0,0.552,0.447,1,1,1h2h3V21z"/>
	<polygon fill="#010101" points="22,21 15,21 12,21 12,28 19,28 22,28 	"/>
	<path fill="#010101" d="M30,22c0-0.552-0.447-1-1-1h-2h-3v7h5c0.553,0,1-0.448,1-1V22z"/>
	<path fill="#010101" d="M8,19c0,0.552,0.447,1,1,1h2h3v-7H9c-0.553,0-1,0.448-1,1V19z"/>
	<polygon fill="#010101" points="16,20 23,20 26,20 26,13 21,13 16,13 	"/>
	<path fill="#010101" d="M28,20h5c0.553,0,1-0.448,1-1v-5c0-0.552-0.447-1-1-1h-5V20z"/>
	<path fill="#010101" d="M26,51v-5c0-0.552-0.447-1-1-1h-4h-1v7h1h4C25.553,52,26,51.552,26,51z"/>
	<polygon fill="#010101" points="18,45 9,45 8,45 8,52 9,52 18,52 	"/>
	<path fill="#010101" d="M6,45H1c-0.553,0-1,0.448-1,1v5c0,0.552,0.447,1,1,1h5V45z"/>
	<polygon fill="#010101" points="18,36 18,29 11,29 8,29 8,36 9,36 	"/>
	<path fill="#010101" d="M25,36c0.553,0,1-0.448,1-1v-5c0-0.552-0.447-1-1-1h-2h-3v7h1H25z"/>
	<path fill="#010101" d="M1,36h5v-7H1c-0.553,0-1,0.448-1,1v5C0,35.552,0.447,36,1,36z"/>
	<path fill="#010101" d="M28,11V6c0-0.552-0.447-1-1-1h-5v7h5C27.553,12,28,11.552,28,11z"/>
	<path fill="#010101" d="M3,12h5V5H3C2.447,5,2,5.448,2,6v5C2,11.552,2.447,12,3,12z"/>
	<polygon fill="#010101" points="20,12 20,5 10,5 10,12 15,12 	"/>
	<path fill="#010101" d="M55,53h-2h-3v7h5c0.553,0,1-0.448,1-1v-5C56,53.448,55.553,53,55,53z"/>
	<path fill="#010101" d="M30,54v5c0,0.552,0.447,1,1,1h5v-7h-5C30.447,53,30,53.448,30,54z"/>
	<polygon fill="#010101" points="38,53 38,60 48,60 48,53 41,53 	"/>
	<polygon fill="#010101" points="52,45 49,45 42,45 42,52 49,52 52,52 	"/>
	<path fill="#010101" d="M40,45h-3h-2c-0.553,0-1,0.448-1,1v5c0,0.552,0.447,1,1,1h2h3V45z"/>
	<path fill="#010101" d="M59,45h-5v7h5c0.553,0,1-0.448,1-1v-5C60,45.448,59.553,45,59,45z"/>
	<path fill="#010101" d="M55,44c0.553,0,1-0.448,1-1v-5c0-0.552-0.447-1-1-1h-5v7h3H55z"/>
	<polygon fill="#010101" points="48,44 48,37 38,37 38,44 41,44 	"/>
	<path fill="#010101" d="M30,38v5c0,0.552,0.447,1,1,1h5v-7h-5C30.447,37,30,37.448,30,38z"/>
</g>
</svg>
