<?xml version="1.0" encoding="utf-8"?>
<!-- Generator: Adobe Illustrator 17.0.0, SVG Export Plug-In . SVG Version: 6.00 Build 0)  -->
<!DOCTYPE svg PUBLIC "-//W3C//DTD SVG 1.1//EN" "http://www.w3.org/Graphics/SVG/1.1/DTD/svg11.dtd">
<svg version="1.1" id="Layer_2" xmlns="http://www.w3.org/2000/svg" xmlns:xlink="http://www.w3.org/1999/xlink" x="0px" y="0px"
	 width="60px" height="60px" viewBox="0 0 60 60" enable-background="new 0 0 60 60" xml:space="preserve">
<g>
	<path fill="#010101" d="M59,0H1C0.447,0,0,0.448,0,1v9h60V1C60,0.448,59.553,0,59,0z"/>
	<path fill="#010101" d="M0,43c0,0.552,0.447,1,1,1h26.586L13.293,58.293c-0.391,0.391-0.391,1.023,0,1.414
		c0.391,0.391,1.023,0.391,1.414,0L29,45.414V59c0,0.552,0.447,1,1,1c0.553,0,1-0.448,1-1V45.414l14.293,14.293
		C45.488,59.902,45.744,60,46,60c0.256,0,0.512-0.098,0.707-0.293c0.391-0.391,0.391-1.023,0-1.414L32.414,44H59
		c0.553,0,1-0.448,1-1V12H0V43z"/>
</g>
</svg>
