<?xml version="1.0" encoding="utf-8"?>
<!-- Generator: Adobe Illustrator 17.0.0, SVG Export Plug-In . SVG Version: 6.00 Build 0)  -->
<!DOCTYPE svg PUBLIC "-//W3C//DTD SVG 1.1//EN" "http://www.w3.org/Graphics/SVG/1.1/DTD/svg11.dtd">
<svg version="1.1" id="Layer_2" xmlns="http://www.w3.org/2000/svg" xmlns:xlink="http://www.w3.org/1999/xlink" x="0px" y="0px"
	 width="60px" height="60px" viewBox="0 0 60 60" enable-background="new 0 0 60 60" xml:space="preserve">
<g>
	<path fill="#010101" d="M30,0H14c-0.321,0-0.623,0.154-0.811,0.415L0.489,18H30V0z"/>
	<path fill="#010101" d="M0,20v39c0,0.552,0.447,1,1,1h58c0.553,0,1-0.448,1-1V20H0z M54,53c0,0.552-0.447,1-1,1H33
		c-0.553,0-1-0.448-1-1v-8c0-0.552,0.447-1,1-1h20c0.553,0,1,0.448,1,1V53z"/>
	<path fill="#010101" d="M46.81,0.415C46.623,0.154,46.321,0,46,0H32v18h27.511L46.81,0.415z"/>
</g>
</svg>
