<?xml version="1.0" encoding="utf-8"?>
<!-- Generator: Adobe Illustrator 17.0.0, SVG Export Plug-In . SVG Version: 6.00 Build 0)  -->
<!DOCTYPE svg PUBLIC "-//W3C//DTD SVG 1.1//EN" "http://www.w3.org/Graphics/SVG/1.1/DTD/svg11.dtd">
<svg version="1.1" id="Layer_2" xmlns="http://www.w3.org/2000/svg" xmlns:xlink="http://www.w3.org/1999/xlink" x="0px" y="0px"
	 width="60px" height="60px" viewBox="0 0 60 60" enable-background="new 0 0 60 60" xml:space="preserve">
<g>
	<path fill="#010101" d="M38,20.24V12H0v27c0,0.552,0.447,1,1,1h19.051C20.53,29.896,28.165,21.656,38,20.24z"/>
	<path fill="#010101" d="M27.707,0.293C27.519,0.106,27.266,0,27,0h-7v10h17.414L27.707,0.293z"/>
	<path fill="#010101" d="M18,0h-7c-0.266,0-0.52,0.106-0.707,0.293L0.586,10H18V0z"/>
	<path fill="#010101" d="M41,22c-10.477,0-19,8.523-19,19c0,10.477,8.523,19,19,19c10.477,0,19-8.523,19-19
		C60,30.523,51.477,22,41,22z M49.707,43.707l-8,8c-0.092,0.092-0.203,0.166-0.326,0.216C41.26,51.974,41.13,52,41,52
		c-0.13,0-0.26-0.026-0.382-0.077c-0.123-0.051-0.233-0.124-0.326-0.216l-7.999-8c-0.391-0.391-0.391-1.023,0-1.414
		c0.391-0.391,1.023-0.391,1.414,0L40,48.586V33c0-0.552,0.447-1,1-1c0.553,0,1,0.448,1,1v15.586l6.293-6.293
		c0.391-0.391,1.023-0.391,1.414,0C50.098,42.684,50.098,43.316,49.707,43.707z"/>
</g>
</svg>
