<?xml version="1.0" encoding="utf-8"?>
<!-- Generator: Adobe Illustrator 17.0.0, SVG Export Plug-In . SVG Version: 6.00 Build 0)  -->
<!DOCTYPE svg PUBLIC "-//W3C//DTD SVG 1.1//EN" "http://www.w3.org/Graphics/SVG/1.1/DTD/svg11.dtd">
<svg version="1.1" id="Layer_2" xmlns="http://www.w3.org/2000/svg" xmlns:xlink="http://www.w3.org/1999/xlink" x="0px" y="0px"
	 width="60px" height="60px" viewBox="0 0 60 60" enable-background="new 0 0 60 60" xml:space="preserve">
<path fill="#010101" d="M59,0H1C0.447,0,0,0.448,0,1v58c0,0.552,0.447,1,1,1h58c0.553,0,1-0.448,1-1V1C60,0.448,59.553,0,59,0z
	 M32.293,18.293l7.999-7.999c0.092-0.092,0.203-0.166,0.325-0.216c0.12-0.049,0.246-0.074,0.374-0.076
	C40.995,10.002,40.997,10,41,10c0.003,0,0.005,0.002,0.008,0.002c0.127,0.001,0.254,0.026,0.374,0.075
	c0.123,0.051,0.233,0.124,0.325,0.216l8,7.999c0.391,0.391,0.391,1.023,0,1.414C49.512,19.902,49.256,20,49,20
	c-0.256,0-0.512-0.098-0.707-0.293L42,13.414V43c0,0.552-0.447,1-1,1c-0.553,0-1-0.448-1-1V13.414l-6.293,6.293
	c-0.391,0.391-1.023,0.391-1.414,0C31.902,19.316,31.902,18.684,32.293,18.293z M10.293,18.293l7.999-7.999
	c0.092-0.092,0.203-0.166,0.325-0.216c0.12-0.049,0.246-0.074,0.374-0.076C18.995,10.002,18.997,10,19,10
	c0.003,0,0.005,0.002,0.008,0.002c0.127,0.001,0.254,0.026,0.374,0.075c0.122,0.051,0.233,0.124,0.325,0.216l8,7.999
	c0.391,0.391,0.391,1.023,0,1.414C27.512,19.902,27.256,20,27,20c-0.256,0-0.512-0.098-0.707-0.293L20,13.414V43
	c0,0.552-0.447,1-1,1c-0.553,0-1-0.448-1-1V13.414l-6.293,6.293c-0.391,0.391-1.023,0.391-1.414,0
	C9.902,19.316,9.902,18.684,10.293,18.293z M51,52H9c-0.553,0-1-0.448-1-1c0-0.552,0.447-1,1-1h42c0.553,0,1,0.448,1,1
	C52,51.552,51.553,52,51,52z"/>
</svg>
