<?xml version="1.0" encoding="utf-8"?>
<!-- Generator: Adobe Illustrator 17.0.0, SVG Export Plug-In . SVG Version: 6.00 Build 0)  -->
<!DOCTYPE svg PUBLIC "-//W3C//DTD SVG 1.1//EN" "http://www.w3.org/Graphics/SVG/1.1/DTD/svg11.dtd">
<svg version="1.1" id="Layer_2" xmlns="http://www.w3.org/2000/svg" xmlns:xlink="http://www.w3.org/1999/xlink" x="0px" y="0px"
	 width="60px" height="60px" viewBox="0 0 60 60" enable-background="new 0 0 60 60" xml:space="preserve">
<path fill="#010101" d="M59,58h-3V21c0-0.552-0.447-1-1-1h-8c-0.553,0-1,0.448-1,1v37h-4V39c0-0.552-0.447-1-1-1h-8
	c-0.553,0-1,0.448-1,1v19h-4V33c0-0.552-0.447-1-1-1h-8c-0.553,0-1,0.448-1,1v25h-4V47c0-0.552-0.447-1-1-1H5c-0.553,0-1,0.448-1,1
	v11H1c-0.553,0-1,0.448-1,1c0,0.552,0.447,1,1,1h4h8h6h8h6h8h6h8h4c0.553,0,1-0.448,1-1C60,58.448,59.553,58,59,58z"/>
</svg>
