<?xml version="1.0" encoding="utf-8"?>
<!-- Generator: Adobe Illustrator 17.0.0, SVG Export Plug-In . SVG Version: 6.00 Build 0)  -->
<!DOCTYPE svg PUBLIC "-//W3C//DTD SVG 1.1//EN" "http://www.w3.org/Graphics/SVG/1.1/DTD/svg11.dtd">
<svg version="1.1" id="Layer_2" xmlns="http://www.w3.org/2000/svg" xmlns:xlink="http://www.w3.org/1999/xlink" x="0px" y="0px"
	 width="60px" height="60px" viewBox="0 0 60 60" enable-background="new 0 0 60 60" xml:space="preserve">
<g>
	<path fill="#010101" d="M59,58h-3V21c0-0.552-0.447-1-1-1h-8c-0.553,0-1,0.448-1,1v37h-4V39c0-0.552-0.447-1-1-1h-8
		c-0.553,0-1,0.448-1,1v19h-4V33c0-0.552-0.447-1-1-1h-8c-0.553,0-1,0.448-1,1v25h-4V47c0-0.552-0.447-1-1-1H5c-0.553,0-1,0.448-1,1
		v11H1c-0.553,0-1,0.448-1,1c0,0.552,0.447,1,1,1h4h8h6h8h6h8h6h8h4c0.553,0,1-0.448,1-1C60,58.448,59.553,58,59,58z"/>
	<path fill="#010101" d="M8,33c2.206,0,4-1.794,4-4c0-0.638-0.164-1.233-0.431-1.769l9.164-7.941C21.377,19.735,22.158,20,23,20
		c1.32,0,2.483-0.65,3.212-1.639l7.839,3.136C34.03,21.664,34,21.828,34,22c0,2.206,1.794,4,4,4c2.206,0,4-1.794,4-4
		c0-0.87-0.286-1.669-0.759-2.326L51.298,7.606C51.816,7.852,52.389,8,53,8c2.206,0,4-1.794,4-4c0-2.206-1.794-4-4-4
		c-2.206,0-4,1.794-4,4c0,0.87,0.286,1.669,0.76,2.326L39.703,18.395C39.185,18.149,38.611,18,38,18c-1.32,0-2.483,0.65-3.212,1.639
		l-7.839-3.136C26.97,16.336,27,16.172,27,16c0-2.206-1.794-4-4-4c-2.206,0-4,1.794-4,4c0,0.638,0.164,1.233,0.431,1.77
		l-9.164,7.941C9.623,25.265,8.842,25,8,25c-2.206,0-4,1.794-4,4C4,31.206,5.794,33,8,33z"/>
</g>
</svg>
