<?xml version="1.0" encoding="utf-8"?>
<!-- Generator: Adobe Illustrator 17.0.0, SVG Export Plug-In . SVG Version: 6.00 Build 0)  -->
<!DOCTYPE svg PUBLIC "-//W3C//DTD SVG 1.1//EN" "http://www.w3.org/Graphics/SVG/1.1/DTD/svg11.dtd">
<svg version="1.1" id="Layer_2" xmlns="http://www.w3.org/2000/svg" xmlns:xlink="http://www.w3.org/1999/xlink" x="0px" y="0px"
	 width="60px" height="60px" viewBox="0 0 60 60" enable-background="new 0 0 60 60" xml:space="preserve">
<g>
	<path fill="#010101" d="M48,0H12c-1.654,0-3,1.346-3,3v54c0,1.654,1.346,3,3,3h36c1.654,0,3-1.346,3-3V3C51,1.346,49.654,0,48,0z
		 M20,52h-4c-0.553,0-1-0.448-1-1c0-0.552,0.447-1,1-1h4c0.553,0,1,0.448,1,1C21,51.552,20.553,52,20,52z M20,44h-4
		c-0.553,0-1-0.448-1-1c0-0.552,0.447-1,1-1h4c0.553,0,1,0.448,1,1C21,43.552,20.553,44,20,44z M20,36h-4c-0.553,0-1-0.448-1-1
		c0-0.552,0.447-1,1-1h4c0.553,0,1,0.448,1,1C21,35.552,20.553,36,20,36z M20,28h-4c-0.553,0-1-0.448-1-1c0-0.552,0.447-1,1-1h4
		c0.553,0,1,0.448,1,1C21,27.552,20.553,28,20,28z M28,52h-4c-0.553,0-1-0.448-1-1c0-0.552,0.447-1,1-1h4c0.553,0,1,0.448,1,1
		C29,51.552,28.553,52,28,52z M28,44h-4c-0.553,0-1-0.448-1-1c0-0.552,0.447-1,1-1h4c0.553,0,1,0.448,1,1C29,43.552,28.553,44,28,44
		z M28,36h-4c-0.553,0-1-0.448-1-1c0-0.552,0.447-1,1-1h4c0.553,0,1,0.448,1,1C29,35.552,28.553,36,28,36z M28,28h-4
		c-0.553,0-1-0.448-1-1c0-0.552,0.447-1,1-1h4c0.553,0,1,0.448,1,1C29,27.552,28.553,28,28,28z M44,52H32c-0.553,0-1-0.448-1-1
		c0-0.552,0.447-1,1-1h12c0.553,0,1,0.448,1,1C45,51.552,44.553,52,44,52z M32,34h4c0.553,0,1,0.448,1,1c0,0.552-0.447,1-1,1h-4
		c-0.553,0-1-0.448-1-1C31,34.448,31.447,34,32,34z M31,27c0-0.552,0.447-1,1-1h4c0.553,0,1,0.448,1,1c0,0.552-0.447,1-1,1h-4
		C31.447,28,31,27.552,31,27z M32,42h4c0.553,0,1,0.448,1,1c0,0.552-0.447,1-1,1h-4c-0.553,0-1-0.448-1-1C31,42.448,31.447,42,32,42
		z M44,44h-4c-0.553,0-1-0.448-1-1c0-0.552,0.447-1,1-1h4c0.553,0,1,0.448,1,1C45,43.552,44.553,44,44,44z M44,36h-4
		c-0.553,0-1-0.448-1-1c0-0.552,0.447-1,1-1h4c0.553,0,1,0.448,1,1C45,35.552,44.553,36,44,36z M44,28h-4c-0.553,0-1-0.448-1-1
		c0-0.552,0.447-1,1-1h4c0.553,0,1,0.448,1,1C45,27.552,44.553,28,44,28z M45,19c0,0.552-0.447,1-1,1H16c-0.553,0-1-0.448-1-1V7
		c0-0.552,0.447-1,1-1h28c0.553,0,1,0.448,1,1V19z"/>
	<path fill="#010101" d="M40,10c-0.553,0-1,0.448-1,1v4c0,0.552,0.447,1,1,1c0.553,0,1-0.448,1-1v-4C41,10.448,40.553,10,40,10z"/>
</g>
</svg>
