<?xml version="1.0" encoding="utf-8"?>
<!-- Generator: Adobe Illustrator 17.0.0, SVG Export Plug-In . SVG Version: 6.00 Build 0)  -->
<!DOCTYPE svg PUBLIC "-//W3C//DTD SVG 1.1//EN" "http://www.w3.org/Graphics/SVG/1.1/DTD/svg11.dtd">
<svg version="1.1" id="Layer_2" xmlns="http://www.w3.org/2000/svg" xmlns:xlink="http://www.w3.org/1999/xlink" x="0px" y="0px"
	 width="60px" height="60px" viewBox="0 0 60 60" enable-background="new 0 0 60 60" xml:space="preserve">
<g>
	<path fill="#010101" d="M54.443,32H5.557l-5.25,14h59.386L54.443,32z M16.131,42.608h-2.522v-2.521h2.522V42.608z M19.913,38.826
		h-2.521v-2.521h2.521V38.826z M23.695,42.608h-2.521v-2.521h2.521V42.608z M27.479,38.826h-2.522v-2.521h2.522V38.826z
		 M31.262,42.608h-2.522v-2.521h2.522V42.608z M35.043,38.826h-2.521v-2.521h2.521V38.826z M38.826,42.608h-2.521v-2.521h2.521
		V42.608z M42.608,38.826h-2.521v-2.521h2.521V38.826z M46.392,42.608h-2.523v-2.521h2.523V42.608z"/>
	<path fill="#010101" d="M0,48v11c0,0.552,0.447,1,1,1h58c0.553,0,1-0.448,1-1V48H0z M38,53c0,0.552-0.447,1-1,1s-1-0.448-1-1v-1H22
		v1c0,0.552-0.447,1-1,1s-1-0.448-1-1v-2c0-0.552,0.447-1,1-1h16c0.553,0,1,0.448,1,1V53z"/>
	<path fill="#010101" d="M54,15c0-0.552-0.447-1-1-1h-7v-4h5c1.654,0,3-1.346,3-3V3c0-1.654-1.346-3-3-3H39c-1.654,0-3,1.346-3,3v4
		c0,1.654,1.346,3,3,3h5v4H26V5c0-0.332-0.165-0.642-0.44-0.828c-0.275-0.186-0.626-0.224-0.932-0.101l-10,4
		C14.249,8.224,14,8.591,14,9v5H7c-0.553,0-1,0.448-1,1v15h48V15z M28,27c0,0.552-0.447,1-1,1H13c-0.553,0-1-0.448-1-1v-8
		c0-0.552,0.447-1,1-1h14c0.553,0,1,0.448,1,1V27z M46,24H36c-0.553,0-1-0.448-1-1c0-0.552,0.447-1,1-1h10c0.553,0,1,0.448,1,1
		C47,23.552,46.553,24,46,24z"/>
</g>
</svg>
