<?xml version="1.0" encoding="utf-8"?>
<!-- Generator: Adobe Illustrator 17.0.0, SVG Export Plug-In . SVG Version: 6.00 Build 0)  -->
<!DOCTYPE svg PUBLIC "-//W3C//DTD SVG 1.1//EN" "http://www.w3.org/Graphics/SVG/1.1/DTD/svg11.dtd">
<svg version="1.1" id="Layer_2" xmlns="http://www.w3.org/2000/svg" xmlns:xlink="http://www.w3.org/1999/xlink" x="0px" y="0px"
	 width="60px" height="60px" viewBox="0 0 60 60" enable-background="new 0 0 60 60" xml:space="preserve">
<g>
	<path fill="#010101" d="M7.653,34.842c0.188,0,0.38-0.053,0.549-0.165L51.77,6.006l-0.765,6.884
		c-0.061,0.549,0.335,1.043,0.884,1.104C51.927,13.998,51.964,14,52.001,14c0.503,0,0.936-0.378,0.993-0.89l1-9
		c0.005-0.048-0.011-0.092-0.013-0.14C53.98,3.903,53.98,3.837,53.964,3.77c-0.017-0.071-0.048-0.133-0.08-0.197
		c-0.02-0.041-0.024-0.084-0.049-0.123c-0.009-0.013-0.023-0.02-0.032-0.032c-0.042-0.058-0.095-0.102-0.147-0.15
		c-0.045-0.04-0.086-0.085-0.137-0.116c-0.05-0.031-0.107-0.046-0.164-0.068c-0.066-0.026-0.13-0.053-0.2-0.065
		c-0.016-0.002-0.028-0.012-0.044-0.014l-9-1c-0.536-0.059-1.043,0.334-1.104,0.884c-0.061,0.549,0.335,1.043,0.884,1.105
		l6.246,0.694L7.102,33.006c-0.461,0.304-0.589,0.924-0.285,1.385C7.009,34.684,7.328,34.842,7.653,34.842z"/>
	<path fill="#010101" d="M59,58h-3V21c0-0.552-0.447-1-1-1h-8c-0.553,0-1,0.448-1,1v37h-4V31c0-0.552-0.447-1-1-1h-8
		c-0.553,0-1,0.448-1,1v27h-4V41c0-0.552-0.447-1-1-1h-8c-0.553,0-1,0.448-1,1v17h-4v-7c0-0.552-0.447-1-1-1H5c-0.553,0-1,0.448-1,1
		v7H1c-0.553,0-1,0.448-1,1c0,0.552,0.447,1,1,1h4h8h6h8h6h8h6h8h4c0.553,0,1-0.448,1-1C60,58.448,59.553,58,59,58z"/>
</g>
</svg>
