<?xml version="1.0" encoding="utf-8"?>
<!-- Generator: Adobe Illustrator 17.0.0, SVG Export Plug-In . SVG Version: 6.00 Build 0)  -->
<!DOCTYPE svg PUBLIC "-//W3C//DTD SVG 1.1//EN" "http://www.w3.org/Graphics/SVG/1.1/DTD/svg11.dtd">
<svg version="1.1" id="Layer_2" xmlns="http://www.w3.org/2000/svg" xmlns:xlink="http://www.w3.org/1999/xlink" x="0px" y="0px"
	 width="60px" height="60px" viewBox="0 0 60 60" enable-background="new 0 0 60 60" xml:space="preserve">
<g>
	<polygon fill="#010101" points="8.544,38.456 15.509,36.466 10.534,31.492 	"/>
	<path fill="#010101" d="M59,19H36.385L17.555,37.831c-0.12,0.12-0.269,0.208-0.433,0.254l-9.76,2.789
		c-0.09,0.026-0.183,0.039-0.274,0.039c-0.262,0-0.517-0.103-0.707-0.293c-0.257-0.257-0.355-0.633-0.255-0.982l2.789-9.76
		c0.047-0.163,0.135-0.312,0.255-0.432L19.615,19H1c-0.553,0-1,0.448-1,1v32c0,0.552,0.447,1,1,1h58c0.553,0,1-0.448,1-1V20
		C60,19.448,59.553,19,59,19z M51,43H21c-0.553,0-1-0.448-1-1c0-0.552,0.447-1,1-1h30c0.553,0,1,0.448,1,1
		C52,42.552,51.553,43,51,43z M51,35H31c-0.553,0-1-0.448-1-1c0-0.552,0.447-1,1-1h20c0.553,0,1,0.448,1,1
		C52,34.552,51.553,35,51,35z"/>
	
		<rect x="17.671" y="15.268" transform="matrix(0.7071 0.7071 -0.7071 0.7071 24.2867 -7.8339)" fill="#010101" width="7.859" height="20.264"/>
	<path fill="#010101" d="M21.6,16.457c0.256,0,0.512-0.098,0.707-0.293l5.905-5.905l0.07,0.074l1.383,1.446L27.4,14.043l5.557,5.557
		l6.751-6.751c0.39-0.391,0.39-1.023,0-1.414l-4.143-4.143C35.377,7.106,35.123,7,34.857,7c-0.266,0-0.52,0.106-0.707,0.293
		l-3.071,3.071l-1.382-1.446l-0.746-0.78c-0.186-0.194-0.442-0.306-0.711-0.309c-0.251-0.013-0.528,0.103-0.719,0.293l-6.629,6.628
		c-0.391,0.391-0.391,1.023,0,1.414C21.088,16.359,21.344,16.457,21.6,16.457z"/>
</g>
</svg>
