<?xml version="1.0" encoding="utf-8"?>
<!-- Generator: Adobe Illustrator 17.0.0, SVG Export Plug-In . SVG Version: 6.00 Build 0)  -->
<!DOCTYPE svg PUBLIC "-//W3C//DTD SVG 1.1//EN" "http://www.w3.org/Graphics/SVG/1.1/DTD/svg11.dtd">
<svg version="1.1" id="Layer_2" xmlns="http://www.w3.org/2000/svg" xmlns:xlink="http://www.w3.org/1999/xlink" x="0px" y="0px"
	 width="60px" height="60px" viewBox="0 0 60 60" enable-background="new 0 0 60 60" xml:space="preserve">
<g>
	<path fill="#010101" d="M20,40c0,1.028,6.877,4,20,4s20-2.972,20-4c0-0.136-0.014-0.269-0.035-0.399
		c-0.014-0.086-0.038-0.17-0.062-0.254c-0.01-0.037-0.018-0.074-0.029-0.11c-0.478-1.432-2.301-2.555-4.893-3.387
		c-0.003-0.001-0.006-0.002-0.009-0.003c-0.12-0.039-0.246-0.075-0.369-0.112c-4.166-1.231-9.878-1.684-13.907-1.73
		C40.464,34.002,40.232,34,40,34C33.082,34,20,35.254,20,40z"/>
	<path fill="#010101" d="M20,24c11.412,0,20-2.427,20-4v-4.3C35.538,18.341,24.785,19,20,19c-4.785,0-15.538-0.659-20-3.3V20
		C0,21.573,8.588,24,20,24z"/>
	<path fill="#010101" d="M20,31c11.412,0,20-2.427,20-4v-4.3C35.538,25.341,24.785,26,20,26c-4.785,0-15.538-0.659-20-3.3V27
		C0,28.573,8.588,31,20,31z"/>
	<path fill="#010101" d="M20,17c11.412,0,20-2.427,20-4V8.639C35.93,11.044,26.508,12,20,12c-6.508,0-15.93-0.956-20-3.361V13
		C0,14.573,8.588,17,20,17z"/>
	<path fill="#010101" d="M40,32v-2.3C35.538,32.341,24.785,33,20,33c-4.785,0-15.538-0.659-20-3.3V34
		c0,1.567,7.352,3.92,18.477,3.993c1.171-2.344,4.527-4.033,10.039-5.028C33.601,32.046,38.975,32,40,32z"/>
	<path fill="#010101" d="M0,41c0,4.333,10.52,5.759,18,5.97V40c0-0.003,0-0.005,0-0.008c-5.629-0.083-14.16-0.873-18-3.209V41z"/>
	<path fill="#010101" d="M20,49.7V54c0,4.736,12.571,6,20,6c7.429,0,20-1.264,20-6v-4.3C55.538,52.341,44.785,53,40,53
		C35.215,53,24.462,52.341,20,49.7z"/>
	<path fill="#010101" d="M20,42.639V47c0,1.573,8.588,4,20,4c11.412,0,20-2.427,20-4v-4.361C55.93,45.044,46.508,46,40,46
		C33.492,46,24.07,45.044,20,42.639z"/>
	<path fill="#010101" d="M20,10c13.123,0,20-2.972,20-4c0-4.123-10.367-6-20-6C10.367,0,0,1.877,0,6C0,7.028,6.877,10,20,10z"/>
</g>
</svg>
