<?xml version="1.0" encoding="utf-8"?>
<!-- Generator: Adobe Illustrator 17.0.0, SVG Export Plug-In . SVG Version: 6.00 Build 0)  -->
<!DOCTYPE svg PUBLIC "-//W3C//DTD SVG 1.1//EN" "http://www.w3.org/Graphics/SVG/1.1/DTD/svg11.dtd">
<svg version="1.1" id="Layer_2" xmlns="http://www.w3.org/2000/svg" xmlns:xlink="http://www.w3.org/1999/xlink" x="0px" y="0px"
	 width="60px" height="60px" viewBox="0 0 60 60" enable-background="new 0 0 60 60" xml:space="preserve">
<g>
	<path fill="#010101" d="M23,52.962H5c-2.57,0-5,2.43-5,5v1c0,0.552,0.447,1,1,1h26c0.553,0,1-0.448,1-1v-1
		C28,55.392,25.57,52.962,23,52.962z"/>
	<path fill="#010101" d="M5,50.962h18c0.553,0,1-0.448,1-1v-2c0-1.542-1.458-3-3-3H7c-1.542,0-3,1.458-3,3v2
		C4,50.515,4.447,50.962,5,50.962z"/>
	<path fill="#010101" d="M59.414,46.548L35.621,22.755l2.586-2.586c0.391-0.391,0.391-1.023,0-1.414l-9-9
		c-0.391-0.391-1.023-0.391-1.414,0l-8,8c-0.391,0.391-0.391,1.023,0,1.414l9,9c0.195,0.195,0.451,0.293,0.707,0.293
		s0.512-0.098,0.707-0.293l2.586-2.586l23.793,23.793c0.391,0.391,0.902,0.586,1.414,0.586s1.023-0.195,1.414-0.586
		C60.195,48.595,60.195,47.33,59.414,46.548z"/>
	<path fill="#010101" d="M17.707,19.255c-0.797-0.797-1.778-1.218-2.84-1.218c-1.826,0-3.699,1.321-4.453,3.142
		c-0.663,1.599-0.334,3.277,0.879,4.49l11,11c0.797,0.797,1.778,1.218,2.839,1.218c0.001,0,0.001,0,0.001,0
		c1.826,0,3.699-1.321,4.453-3.141c0.663-1.6,0.334-3.278-0.879-4.491L17.707,19.255z"/>
	<path fill="#010101" d="M40.293,18.669c0.797,0.797,1.778,1.218,2.839,1.218c0.001,0,0.001,0,0.001,0
		c1.826,0,3.699-1.321,4.453-3.141c0.663-1.6,0.334-3.278-0.879-4.491l-11-11c-0.797-0.797-1.778-1.218-2.84-1.218
		c-1.826,0-3.699,1.321-4.453,3.142c-0.663,1.599-0.334,3.277,0.879,4.49L40.293,18.669z"/>
</g>
</svg>
