<?xml version="1.0" encoding="utf-8"?>
<!-- Generator: Adobe Illustrator 17.0.0, SVG Export Plug-In . SVG Version: 6.00 Build 0)  -->
<!DOCTYPE svg PUBLIC "-//W3C//DTD SVG 1.1//EN" "http://www.w3.org/Graphics/SVG/1.1/DTD/svg11.dtd">
<svg version="1.1" id="Layer_2" xmlns="http://www.w3.org/2000/svg" xmlns:xlink="http://www.w3.org/1999/xlink" x="0px" y="0px"
	 width="60px" height="60px" viewBox="0 0 60 60" enable-background="new 0 0 60 60" xml:space="preserve">
<g>
	<path fill="#010101" d="M43.875,6.044c0-3.389-2.56-6.044-5.826-6.044H6.391C2.927,0,0,2.768,0,6.044V8h43.899L43.875,6.044z"/>
	<path fill="#010101" d="M43.92,22.447L44,15.987L43.925,10H0v16.218C0,29.406,2.867,32,6.391,32h29.66
		C36.463,27.447,39.659,23.693,43.92,22.447z M17,22H9c-0.553,0-1-0.448-1-1c0-0.552,0.447-1,1-1h8c0.553,0,1,0.448,1,1
		C18,21.552,17.553,22,17,22z M23,16H9c-0.553,0-1-0.448-1-1c0-0.552,0.447-1,1-1h14c0.553,0,1,0.448,1,1C24,15.552,23.553,16,23,16
		z M30,16c-0.553,0-1-0.448-1-1c0-0.552,0.447-1,1-1h6c0.553,0,1,0.448,1,1c0,0.552-0.447,1-1,1H30z"/>
	<path fill="#010101" d="M59,38h-3v-5c0-4.032-2.665-7.454-6.327-8.595C48.829,24.142,47.931,24,47,24
		c-0.931,0-1.829,0.142-2.673,0.405C40.665,25.546,38,28.968,38,33v5h-3c-0.552,0-1,0.449-1,1v20c0,0.551,0.448,1,1,1h24
		c0.552,0,1-0.449,1-1V39C60,38.449,59.552,38,59,38z M48,49.288V53c0,0.552-0.447,1-1,1c-0.553,0-1-0.448-1-1v-3.712
		c-0.881-0.387-1.5-1.266-1.5-2.288c0-1.378,1.121-2.5,2.5-2.5c1.379,0,2.5,1.122,2.5,2.5C49.5,48.023,48.881,48.901,48,49.288z
		 M54,38H40v-5c0-0.482,0.049-0.954,0.143-1.409V31.59c0.141-0.683,0.38-1.329,0.704-1.924c0.324-0.595,0.731-1.138,1.207-1.613
		c0.317-0.317,0.664-0.604,1.037-0.855C44.206,26.441,45.553,26,47,26c1.447,0,2.793,0.441,3.911,1.197
		c0.372,0.251,0.719,0.539,1.036,0.855c0.476,0.475,0.883,1.018,1.206,1.613c0.324,0.595,0.563,1.242,0.704,1.925
		C53.951,32.046,54,32.518,54,33V38z"/>
</g>
</svg>
