<?xml version="1.0" encoding="utf-8"?>
<!-- Generator: Adobe Illustrator 17.0.0, SVG Export Plug-In . SVG Version: 6.00 Build 0)  -->
<!DOCTYPE svg PUBLIC "-//W3C//DTD SVG 1.1//EN" "http://www.w3.org/Graphics/SVG/1.1/DTD/svg11.dtd">
<svg version="1.1" id="Layer_2" xmlns="http://www.w3.org/2000/svg" xmlns:xlink="http://www.w3.org/1999/xlink" x="0px" y="0px"
	 width="60px" height="60px" viewBox="0 0 60 60" enable-background="new 0 0 60 60" xml:space="preserve">
<g>
	<path fill="#010101" d="M54,11H6c-3.364,0-6,2.636-6,6v4h60v-4C60,13.636,57.364,11,54,11z"/>
	<path fill="#010101" d="M0,43c0,3.364,2.636,6,6,6h48c3.364,0,6-2.636,6-6V23H0V43z M41,29h10c0.553,0,1,0.448,1,1
		c0,0.552-0.447,1-1,1H41c-0.553,0-1-0.448-1-1C40,29.448,40.447,29,41,29z M9,29h20c0.553,0,1,0.448,1,1c0,0.552-0.447,1-1,1H9
		c-0.553,0-1-0.448-1-1C8,29.448,8.447,29,9,29z M9,35h8c0.553,0,1,0.448,1,1c0,0.552-0.447,1-1,1H9c-0.553,0-1-0.448-1-1
		C8,35.448,8.447,35,9,35z"/>
</g>
</svg>
