<?xml version="1.0" encoding="utf-8"?>
<!-- Generator: Adobe Illustrator 17.1.0, SVG Export Plug-In . SVG Version: 6.00 Build 0)  -->
<!DOCTYPE svg PUBLIC "-//W3C//DTD SVG 1.0//EN" "http://www.w3.org/TR/2001/REC-SVG-20010904/DTD/svg10.dtd">
<svg version="1.0" id="Layer_1" xmlns="http://www.w3.org/2000/svg" xmlns:xlink="http://www.w3.org/1999/xlink" x="0px" y="0px"
	 width="60px" height="60px" viewBox="0 0 60 60" enable-background="new 0 0 60 60" xml:space="preserve">
<g>
	<path d="M37,24H24.473C21.94,27.622,17.745,30,13,30c-0.337,0-0.668-0.027-1-0.051V51c0,0.552,0.447,1,1,1h4.08
		C17.033,51.672,17,51.34,17,51c0-3.86,3.141-7,7-7s7,3.14,7,7c0,0.34-0.033,0.672-0.08,1H37c0.553,0,1-0.448,1-1V25
		C38,24.448,37.553,24,37,24z"/>
	<path d="M9,38H1c-0.553,0-1,0.448-1,1s0.447,1,1,1h8c0.553,0,1-0.448,1-1S9.553,38,9,38z"/>
	<path d="M9,42H5c-0.553,0-1,0.448-1,1s0.447,1,1,1h4c0.553,0,1-0.448,1-1S9.553,42,9,42z"/>
	<path d="M9,46H7c-0.553,0-1,0.448-1,1s0.447,1,1,1h2c0.553,0,1-0.448,1-1S9.553,46,9,46z"/>
	<path d="M13,28c6.617,0,12-5.383,12-12S19.617,4,13,4S1,9.383,1,16S6.383,28,13,28z M12,11c0-0.552,0.447-1,1-1s1,0.448,1,1v5h3
		c0.553,0,1,0.448,1,1s-0.447,1-1,1h-4c-0.553,0-1-0.448-1-1V11z"/>
	<path d="M24,46c-2.757,0-5,2.243-5,5s2.243,5,5,5s5-2.243,5-5S26.757,46,24,46z"/>
	<path d="M59.988,40.939c-0.006-0.091-0.023-0.179-0.054-0.266c-0.011-0.032-0.019-0.063-0.033-0.093
		c-0.048-0.103-0.108-0.201-0.192-0.284c-0.001-0.001-0.001-0.002-0.002-0.003l-10-10C49.52,30.105,49.266,30,49,30h-8
		c-0.553,0-1,0.448-1,1v10v10c0,0.552,0.447,1,1,1h1.08C42.033,51.672,42,51.34,42,51c0-3.86,3.141-7,7-7s7,3.14,7,7
		c0,0.34-0.033,0.672-0.08,1H59c0.553,0,1-0.448,1-1V41C60,40.979,59.989,40.961,59.988,40.939z M42,40v-8h6.586l8,8H42z"/>
	<path d="M49,46c-2.757,0-5,2.243-5,5s2.243,5,5,5s5-2.243,5-5S51.757,46,49,46z"/>
</g>
</svg>
