<?xml version="1.0" encoding="utf-8"?>
<!-- Generator: Adobe Illustrator 17.0.0, SVG Export Plug-In . SVG Version: 6.00 Build 0)  -->
<!DOCTYPE svg PUBLIC "-//W3C//DTD SVG 1.1//EN" "http://www.w3.org/Graphics/SVG/1.1/DTD/svg11.dtd">
<svg version="1.1" id="Layer_2" xmlns="http://www.w3.org/2000/svg" xmlns:xlink="http://www.w3.org/1999/xlink" x="0px" y="0px"
	 width="60px" height="60px" viewBox="0 0 60 60" enable-background="new 0 0 60 60" xml:space="preserve">
<g>
	<path fill="#010101" d="M37.585,22.167c-0.17-0.123-0.375-0.189-0.585-0.189H23c-0.21,0-0.415,0.066-0.585,0.189
		C17.074,26.019,9,36.683,9,43.978c0,5.976,2.728,16,21,16s21-10.024,21-16C51,36.683,42.926,26.019,37.585,22.167z M30,40.978
		c2.757,0,5,2.243,5,5c0,2.415-1.721,4.434-4,4.899v1.101c0,0.552-0.447,1-1,1c-0.553,0-1-0.448-1-1v-1.101
		c-2.279-0.465-4-2.484-4-4.899c0-0.552,0.447-1,1-1c0.553,0,1,0.448,1,1c0,1.654,1.346,3,3,3c1.654,0,3-1.346,3-3s-1.346-3-3-3
		c-2.757,0-5-2.243-5-5c0-2.415,1.721-4.434,4-4.899v-1.101c0-0.552,0.447-1,1-1c0.553,0,1,0.448,1,1v1.101
		c2.279,0.465,4,2.484,4,4.899c0,0.552-0.447,1-1,1c-0.553,0-1-0.448-1-1c0-1.654-1.346-3-3-3c-1.654,0-3,1.346-3,3
		S28.346,40.978,30,40.978z"/>
	<path fill="#010101" d="M23,17.978c-0.553,0-1,0.448-1,1c0,0.552,0.447,1,1,1h14c0.553,0,1-0.448,1-1c0-0.552-0.447-1-1-1H23z"/>
	<path fill="#010101" d="M23,14.978c0,0.552,0.447,1,1,1h12c0.553,0,1-0.448,1-1c0-4.574,4.721-10.303,4.769-10.36
		c0.29-0.349,0.31-0.849,0.047-1.219c-0.264-0.371-0.741-0.516-1.167-0.357l-7.156,2.684l-2.598-5.195
		c-0.34-0.678-1.449-0.678-1.789,0l-2.598,5.195l-7.156-2.684c-0.427-0.159-0.905-0.013-1.167,0.357
		c-0.263,0.37-0.243,0.871,0.047,1.219C18.279,4.675,23,10.393,23,14.978z"/>
</g>
</svg>
