<?xml version="1.0" encoding="utf-8"?>
<!-- Generator: Adobe Illustrator 17.0.0, SVG Export Plug-In . SVG Version: 6.00 Build 0)  -->
<!DOCTYPE svg PUBLIC "-//W3C//DTD SVG 1.1//EN" "http://www.w3.org/Graphics/SVG/1.1/DTD/svg11.dtd">
<svg version="1.1" id="Layer_2" xmlns="http://www.w3.org/2000/svg" xmlns:xlink="http://www.w3.org/1999/xlink" x="0px" y="0px"
	 width="60px" height="60px" viewBox="0 0 60 60" enable-background="new 0 0 60 60" xml:space="preserve">
<path fill="#010101" d="M32,28.181V12.263c3.445,0.892,6,4.017,6,7.737c0,1.105,0.896,2,2,2s2-0.895,2-2
	c0-5.934-4.333-10.863-10-11.819V2c0-1.104-0.896-2-2-2s-2,0.896-2,2v6.181C22.333,9.137,18,14.066,18,20
	c0,5.934,4.333,10.863,10,11.819v15.917c-3.445-0.892-6-4.017-6-7.737c0-1.104-0.896-2-2-2s-2,0.896-2,2
	c0,5.934,4.333,10.863,10,11.819V58c0,1.105,0.896,2,2,2s2-0.895,2-2v-6.181C37.667,50.863,42,45.934,42,40
	C42,34.066,37.667,29.137,32,28.181z M28,27.737c-3.445-0.892-6-4.017-6-7.737c0-3.72,2.555-6.845,6-7.737V27.737z M32,47.737
	V32.263c3.445,0.892,6,4.017,6,7.737C38,43.72,35.445,46.845,32,47.737z"/>
</svg>
