<?xml version="1.0" encoding="utf-8"?>
<!-- Generator: Adobe Illustrator 17.0.0, SVG Export Plug-In . SVG Version: 6.00 Build 0)  -->
<!DOCTYPE svg PUBLIC "-//W3C//DTD SVG 1.1//EN" "http://www.w3.org/Graphics/SVG/1.1/DTD/svg11.dtd">
<svg version="1.1" id="Layer_2" xmlns="http://www.w3.org/2000/svg" xmlns:xlink="http://www.w3.org/1999/xlink" x="0px" y="0px"
	 width="60px" height="60px" viewBox="0 0 60 60" enable-background="new 0 0 60 60" xml:space="preserve">
<path fill="#010101" d="M52,18.694V14c0-0.552-0.447-1-1-1H9c-0.553,0-1,0.448-1,1v4.694C3.254,20.374,0,24.918,0,30
	s3.254,9.626,8,11.306V46c0,0.552,0.447,1,1,1h42c0.553,0,1-0.448,1-1v-4.694c4.746-1.68,8-6.224,8-11.306S56.746,20.374,52,18.694z
	 M29,29c2.757,0,5,2.243,5,5c0,2.415-1.721,4.434-4,4.899V40c0,0.552-0.447,1-1,1c-0.553,0-1-0.448-1-1v-1.101
	c-2.279-0.465-4-2.484-4-4.899c0-0.552,0.447-1,1-1c0.553,0,1,0.448,1,1c0,1.654,1.346,3,3,3c1.654,0,3-1.346,3-3
	c0-1.654-1.346-3-3-3c-2.757,0-5-2.243-5-5c0-2.415,1.721-4.434,4-4.899V20c0-0.552,0.447-1,1-1c0.553,0,1,0.448,1,1v1.101
	c2.279,0.465,4,2.484,4,4.899c0,0.552-0.447,1-1,1c-0.553,0-1-0.448-1-1c0-1.654-1.346-3-3-3c-1.654,0-3,1.346-3,3
	C26,27.654,27.346,29,29,29z"/>
</svg>
