<?xml version="1.0" encoding="utf-8"?>
<!-- Generator: Adobe Illustrator 17.0.0, SVG Export Plug-In . SVG Version: 6.00 Build 0)  -->
<!DOCTYPE svg PUBLIC "-//W3C//DTD SVG 1.1//EN" "http://www.w3.org/Graphics/SVG/1.1/DTD/svg11.dtd">
<svg version="1.1" id="Layer_2" xmlns="http://www.w3.org/2000/svg" xmlns:xlink="http://www.w3.org/1999/xlink" x="0px" y="0px"
	 width="60px" height="60px" viewBox="0 0 60 60" enable-background="new 0 0 60 60" xml:space="preserve">
<g>
	<path fill="#010101" d="M31,40.899c2.279-0.465,4-2.484,4-4.899c0-2.415-1.721-4.434-4-4.899V40.899z"/>
	<path fill="#010101" d="M25,24c0,2.415,1.721,4.434,4,4.899v-9.798C26.721,19.566,25,21.585,25,24z"/>
	<path fill="#010101" d="M30,0C13.458,0,0,13.458,0,30s13.458,30,30,30s30-13.458,30-30S46.542,0,30,0z M37,36
		c0,3.52-2.614,6.432-6,6.92V46c0,0.552-0.447,1-1,1c-0.553,0-1-0.448-1-1v-3.08c-3.386-0.488-6-3.4-6-6.92c0-0.552,0.447-1,1-1
		c0.553,0,1,0.448,1,1c0,2.415,1.721,4.434,4,4.899V30.92c-3.386-0.488-6-3.4-6-6.92c0-3.519,2.614-6.432,6-6.92V14
		c0-0.552,0.447-1,1-1c0.553,0,1,0.448,1,1v3.08c3.386,0.488,6,3.4,6,6.92c0,0.552-0.447,1-1,1c-0.553,0-1-0.448-1-1
		c0-2.415-1.721-4.434-4-4.899v9.979C34.386,29.568,37,32.481,37,36z"/>
</g>
</svg>
