<?xml version="1.0" encoding="utf-8"?>
<!-- Generator: Adobe Illustrator 17.0.0, SVG Export Plug-In . SVG Version: 6.00 Build 0)  -->
<!DOCTYPE svg PUBLIC "-//W3C//DTD SVG 1.1//EN" "http://www.w3.org/Graphics/SVG/1.1/DTD/svg11.dtd">
<svg version="1.1" id="Layer_2" xmlns="http://www.w3.org/2000/svg" xmlns:xlink="http://www.w3.org/1999/xlink" x="0px" y="0px"
	 width="60px" height="60px" viewBox="0 0 60 60" enable-background="new 0 0 60 60" xml:space="preserve">
<g>
	<path fill="#010101" d="M30.957,40.899c2.279-0.465,4-2.484,4-4.899c0-2.415-1.721-4.434-4-4.899V40.899z"/>
	<path fill="#010101" d="M24.957,24c0,2.415,1.721,4.434,4,4.899v-9.798C26.678,19.566,24.957,21.585,24.957,24z"/>
	<path fill="#010101" d="M60,30c0-2.279-1.276-4.306-3.205-5.33c1.39-1.686,1.794-4.046,0.922-6.15
		c-0.862-2.083-2.787-3.488-5.002-3.697c0.64-2.089,0.109-4.424-1.502-6.036c-1.138-1.139-2.651-1.766-4.262-1.766
		c-0.607,0-1.203,0.09-1.773,0.264c-0.209-2.172-1.593-4.126-3.698-4.999c-2.066-0.858-4.491-0.453-6.151,0.919
		C34.304,1.275,32.278,0,30,0c-2.278,0-4.304,1.275-5.329,3.204c-1.657-1.372-4.08-1.776-6.153-0.919
		c-2.104,0.872-3.488,2.825-3.696,4.999c-0.568-0.174-1.164-0.263-1.77-0.263c-1.611,0-3.126,0.628-4.265,1.768
		c-1.611,1.61-2.143,3.945-1.502,6.034c-2.213,0.209-4.137,1.614-5,3.698c-0.872,2.104-0.469,4.464,0.92,6.149
		C1.275,25.694,0,27.72,0,30c0,2.278,1.276,4.305,3.205,5.33c-1.39,1.685-1.793,4.045-0.922,6.15
		c0.863,2.083,2.789,3.488,5.002,3.698c-0.64,2.089-0.108,4.424,1.502,6.036c1.14,1.139,2.653,1.766,4.264,1.766
		c0.606,0,1.202-0.09,1.771-0.264c0.209,2.174,1.593,4.128,3.697,5.002c2.067,0.857,4.492,0.453,6.151-0.921
		C25.696,58.725,27.722,60,30,60c2.278,0,4.304-1.275,5.328-3.203c1.658,1.372,4.08,1.777,6.152,0.921
		c2.105-0.873,3.489-2.827,3.698-5.002c0.568,0.174,1.164,0.264,1.771,0.264c1.61,0,3.124-0.627,4.263-1.766
		c1.611-1.612,2.142-3.947,1.502-6.035c2.214-0.21,4.14-1.614,5.003-3.698c0.872-2.105,0.468-4.465-0.922-6.149
		C58.725,34.306,60,32.28,60,30z M36.957,36c0,3.52-2.614,6.432-6,6.92V46c0,0.552-0.447,1-1,1c-0.553,0-1-0.448-1-1v-3.08
		c-3.386-0.488-6-3.4-6-6.92c0-0.552,0.447-1,1-1c0.553,0,1,0.448,1,1c0,2.415,1.721,4.434,4,4.899V30.92c-3.386-0.488-6-3.4-6-6.92
		c0-3.519,2.614-6.432,6-6.92V14c0-0.552,0.447-1,1-1c0.553,0,1,0.448,1,1v3.08c3.386,0.488,6,3.4,6,6.92c0,0.552-0.447,1-1,1
		c-0.553,0-1-0.448-1-1c0-2.415-1.721-4.434-4-4.899v9.979C34.343,29.568,36.957,32.481,36.957,36z"/>
</g>
</svg>
