<?xml version="1.0" encoding="utf-8"?>
<!-- Generator: Adobe Illustrator 17.0.0, SVG Export Plug-In . SVG Version: 6.00 Build 0)  -->
<!DOCTYPE svg PUBLIC "-//W3C//DTD SVG 1.1//EN" "http://www.w3.org/Graphics/SVG/1.1/DTD/svg11.dtd">
<svg version="1.1" id="Layer_2" xmlns="http://www.w3.org/2000/svg" xmlns:xlink="http://www.w3.org/1999/xlink" x="0px" y="0px"
	 width="60px" height="60px" viewBox="0 0 60 60" enable-background="new 0 0 60 60" xml:space="preserve">
<g>
	<path fill="#010101" d="M37.585,22.167c-0.17-0.123-0.375-0.189-0.585-0.189H23c-0.21,0-0.415,0.066-0.585,0.189
		C17.074,26.019,9,36.683,9,43.978c0,5.976,2.728,16,21,16s21-10.024,21-16C51,36.683,42.926,26.019,37.585,22.167z M32,37.978
		c0.553,0,1,0.448,1,1c0,0.552-0.447,1-1,1h-4.92c-0.047,0.328-0.08,0.66-0.08,1c0,0.34,0.033,0.672,0.08,1H32c0.553,0,1,0.448,1,1
		c0,0.552-0.447,1-1,1h-4.315c1.126,2.361,3.53,4,6.315,4c0.553,0,1,0.448,1,1c0,0.552-0.447,1-1,1c-3.91,0-7.236-2.51-8.475-6H24
		c-0.553,0-1-0.448-1-1c0-0.552,0.447-1,1-1h1.059c-0.037-0.329-0.059-0.662-0.059-1c0-0.338,0.022-0.671,0.059-1H24
		c-0.553,0-1-0.448-1-1c0-0.552,0.447-1,1-1h1.525c1.24-3.49,4.565-6,8.475-6c0.553,0,1,0.448,1,1c0,0.552-0.447,1-1,1
		c-2.785,0-5.189,1.639-6.315,4H32z"/>
	<path fill="#010101" d="M23,17.978c-0.553,0-1,0.448-1,1c0,0.552,0.447,1,1,1h14c0.553,0,1-0.448,1-1c0-0.552-0.447-1-1-1H23z"/>
	<path fill="#010101" d="M23,14.978c0,0.552,0.447,1,1,1h12c0.553,0,1-0.448,1-1c0-4.574,4.721-10.303,4.769-10.36
		c0.29-0.349,0.31-0.849,0.047-1.219c-0.264-0.371-0.743-0.516-1.167-0.357l-7.156,2.684l-2.598-5.195
		c-0.34-0.678-1.449-0.678-1.789,0l-2.598,5.195l-7.156-2.684c-0.426-0.159-0.904-0.013-1.167,0.357
		c-0.263,0.37-0.243,0.871,0.047,1.219C18.279,4.675,23,10.393,23,14.978z"/>
</g>
</svg>
