<?xml version="1.0" encoding="utf-8"?>
<!-- Generator: Adobe Illustrator 17.0.0, SVG Export Plug-In . SVG Version: 6.00 Build 0)  -->
<!DOCTYPE svg PUBLIC "-//W3C//DTD SVG 1.1//EN" "http://www.w3.org/Graphics/SVG/1.1/DTD/svg11.dtd">
<svg version="1.1" id="Layer_2" xmlns="http://www.w3.org/2000/svg" xmlns:xlink="http://www.w3.org/1999/xlink" x="0px" y="0px"
	 width="60px" height="60px" viewBox="0 0 60 60" enable-background="new 0 0 60 60" xml:space="preserve">
<path fill="#010101" d="M30,0C13.458,0,0,13.458,0,30s13.458,30,30,30s30-13.458,30-30S46.542,0,30,0z M34,28c0.553,0,1,0.448,1,1
	c0,0.552-0.447,1-1,1H24v2h6c0.553,0,1,0.448,1,1c0,0.552-0.447,1-1,1h-6v2c0,3.86,3.141,7,7,7c2.067,0,3.823-0.883,5.22-2.625
	c0.345-0.43,0.975-0.501,1.405-0.155c0.432,0.345,0.501,0.975,0.155,1.406C36.011,43.833,33.666,45,31,45c-4.963,0-9-4.037-9-9v-2
	h-4c-0.553,0-1-0.448-1-1c0-0.552,0.447-1,1-1h4v-2h-4c-0.553,0-1-0.448-1-1c0-0.552,0.447-1,1-1h4v-4c0-4.963,4.037-9,9-9
	c2.667,0,5.012,1.167,6.78,3.375c0.346,0.431,0.276,1.06-0.155,1.405c-0.433,0.347-1.062,0.275-1.405-0.155
	C34.824,17.883,33.067,17,31,17c-3.859,0-7,3.14-7,7v4H34z"/>
</svg>
