<?xml version="1.0" encoding="utf-8"?>
<!-- Generator: Adobe Illustrator 17.0.0, SVG Export Plug-In . SVG Version: 6.00 Build 0)  -->
<!DOCTYPE svg PUBLIC "-//W3C//DTD SVG 1.1//EN" "http://www.w3.org/Graphics/SVG/1.1/DTD/svg11.dtd">
<svg version="1.1" id="Layer_2" xmlns="http://www.w3.org/2000/svg" xmlns:xlink="http://www.w3.org/1999/xlink" x="0px" y="0px"
	 width="60px" height="60px" viewBox="0 0 60 60" enable-background="new 0 0 60 60" xml:space="preserve">
<path fill="#010101" d="M60,30c0-2.279-1.275-4.306-3.205-5.33c1.389-1.685,1.793-4.045,0.924-6.152
	c-0.865-2.082-2.79-3.486-5.002-3.696c0.64-2.088,0.109-4.423-1.502-6.036c-1.139-1.139-2.652-1.766-4.264-1.766
	c-0.606,0-1.202,0.09-1.771,0.264c-0.209-2.173-1.593-4.126-3.699-4.999c-2.067-0.858-4.492-0.454-6.151,0.919
	C34.303,1.275,32.277,0,30,0c-2.278,0-4.304,1.275-5.329,3.204c-1.658-1.373-4.086-1.775-6.15-0.92
	c-2.105,0.871-3.489,2.825-3.698,5c-0.569-0.174-1.164-0.263-1.771-0.263c-1.611,0-3.126,0.628-4.265,1.768
	c-1.611,1.61-2.142,3.945-1.501,6.034c-2.213,0.209-4.138,1.614-5.001,3.698c-0.871,2.103-0.469,4.463,0.92,6.149
	C1.276,25.694,0,27.72,0,30c0,2.278,1.276,4.305,3.205,5.331c-1.39,1.685-1.793,4.045-0.922,6.15
	c0.863,2.083,2.789,3.488,5.003,3.698c-0.639,2.088-0.109,4.423,1.501,6.036c1.14,1.139,2.653,1.766,4.264,1.766
	c0.606,0,1.202-0.09,1.772-0.264c0.209,2.175,1.593,4.129,3.698,5.002c2.067,0.857,4.491,0.452,6.15-0.921
	C25.696,58.725,27.722,60,30,60c2.277,0,4.303-1.275,5.329-3.203c1.656,1.372,4.08,1.779,6.153,0.921
	c2.104-0.873,3.487-2.827,3.696-5.002c0.569,0.174,1.165,0.264,1.771,0.264c1.61,0,3.125-0.627,4.265-1.767
	c1.611-1.612,2.141-3.947,1.501-6.035c2.213-0.21,4.138-1.614,5.003-3.697c0.873-2.105,0.469-4.465-0.922-6.15
	C58.725,34.306,60,32.279,60,30z M36,28c0.553,0,1,0.448,1,1c0,0.552-0.447,1-1,1H26v2h6c0.553,0,1,0.448,1,1c0,0.552-0.447,1-1,1
	h-6v2c0,3.86,3.141,7,7,7c2.067,0,3.823-0.883,5.22-2.625c0.345-0.43,0.975-0.501,1.405-0.155c0.432,0.345,0.501,0.975,0.155,1.406
	C38.011,43.833,35.666,45,33,45c-4.963,0-9-4.037-9-9v-2h-4c-0.553,0-1-0.448-1-1c0-0.552,0.447-1,1-1h4v-2h-4c-0.553,0-1-0.448-1-1
	c0-0.552,0.447-1,1-1h4v-4c0-4.963,4.037-9,9-9c2.667,0,5.012,1.167,6.78,3.375c0.346,0.431,0.276,1.06-0.155,1.405
	c-0.433,0.347-1.062,0.275-1.405-0.155C36.824,17.883,35.067,17,33,17c-3.859,0-7,3.14-7,7v4H36z"/>
</svg>
