<?xml version="1.0" encoding="utf-8"?>
<!-- Generator: Adobe Illustrator 17.0.0, SVG Export Plug-In . SVG Version: 6.00 Build 0)  -->
<!DOCTYPE svg PUBLIC "-//W3C//DTD SVG 1.1//EN" "http://www.w3.org/Graphics/SVG/1.1/DTD/svg11.dtd">
<svg version="1.1" id="Layer_2" xmlns="http://www.w3.org/2000/svg" xmlns:xlink="http://www.w3.org/1999/xlink" x="0px" y="0px"
	 width="60px" height="60px" viewBox="0 0 60 60" enable-background="new 0 0 60 60" xml:space="preserve">
<path fill="#010101" d="M52,20.694V16c0-0.552-0.447-1-1-1H9c-0.553,0-1,0.448-1,1v4.694C3.254,22.374,0,26.918,0,32
	s3.254,9.626,8,11.306V48c0,0.552,0.447,1,1,1h42c0.553,0,1-0.448,1-1v-4.694c4.746-1.68,8-6.224,8-11.306S56.746,22.374,52,20.694z
	 M33,29c0.553,0,1,0.448,1,1c0,0.552-0.447,1-1,1h-5.931C27.028,31.328,27,31.661,27,32c0,0.339,0.028,0.672,0.069,1H33
	c0.553,0,1,0.448,1,1c0,0.552-0.447,1-1,1h-5.411c1.19,2.928,4.061,5,7.411,5c0.553,0,1,0.448,1,1c0,0.552-0.447,1-1,1
	c-4.469,0-8.261-2.947-9.539-7H23c-0.553,0-1-0.448-1-1c0-0.552,0.447-1,1-1h2.051C25.018,32.671,25,32.337,25,32
	c0-0.337,0.018-0.671,0.051-1H23c-0.553,0-1-0.448-1-1c0-0.552,0.447-1,1-1h2.461c1.277-4.053,5.07-7,9.539-7c0.553,0,1,0.448,1,1
	c0,0.552-0.447,1-1,1c-3.35,0-6.221,2.072-7.411,5H33z"/>
</svg>
