<?xml version="1.0" encoding="utf-8"?>
<!-- Generator: Adobe Illustrator 17.0.0, SVG Export Plug-In . SVG Version: 6.00 Build 0)  -->
<!DOCTYPE svg PUBLIC "-//W3C//DTD SVG 1.1//EN" "http://www.w3.org/Graphics/SVG/1.1/DTD/svg11.dtd">
<svg version="1.1" id="Layer_2" xmlns="http://www.w3.org/2000/svg" xmlns:xlink="http://www.w3.org/1999/xlink" x="0px" y="0px"
	 width="60px" height="60px" viewBox="0 0 60 60" enable-background="new 0 0 60 60" xml:space="preserve">
<g>
	<path fill="#010101" d="M14,14c-2.542,0-4,1.458-4,4v28H5c-0.553,0-1,0.448-1,1c0,0.552,0.447,1,1,1h5v10H1c-0.553,0-1,0.448-1,1
		c0,0.552,0.447,1,1,1h10h6c0.553,0,1-0.448,1-1V18C18,15.458,16.542,14,14,14z"/>
	<path fill="#010101" d="M59.707,42.293L56,38.586V24c0-3.364-2.636-6-6-6h-6c-13.01,0-24,10.991-24,24v13c0,0.552,0.447,1,1,1
		h5.589c-0.256-0.631-0.432-1.302-0.52-2H22v-7.586l10.009-10.009l0.259,0.278C32.466,36.894,32.732,37,33,37
		c0.244,0,0.489-0.089,0.683-0.269c0.403-0.377,0.425-1.01,0.049-1.414l-2.062-2.209c-0.377-0.403-1.009-0.426-1.414-0.049
		c-0.403,0.377-0.425,1.01-0.049,1.413l0.438,0.469L22,43.586V42c0-11.925,10.075-22,22-22h6c2.243,0,4,1.757,4,4v14h-7.691
		l2.656-9.737c0.146-0.533-0.169-1.083-0.702-1.228c-0.527-0.145-1.082,0.168-1.227,0.702L44.236,38H41
		c-0.266,0-0.52,0.106-0.707,0.293l-6,6C34.105,44.481,34,44.735,34,45c4.411,0,8,3.589,8,8c0,1.061-0.212,2.073-0.589,3h2.679
		C44.035,55.674,44,55.341,44,55c0-3.309,2.691-6,6-6c3.309,0,6,2.691,6,6c0,0.341-0.035,0.674-0.09,1H59c0.553,0,1-0.448,1-1V43
		C60,42.735,59.894,42.481,59.707,42.293z"/>
	<path fill="#010101" d="M34,47c-3.309,0-6,2.691-6,6c0,3.309,2.691,6,6,6c3.309,0,6-2.691,6-6C40,49.691,37.309,47,34,47z"/>
	<path fill="#010101" d="M50,51c-2.206,0-4,1.794-4,4c0,2.206,1.794,4,4,4c2.206,0,4-1.794,4-4C54,52.794,52.206,51,50,51z"/>
</g>
</svg>
