<?xml version="1.0" encoding="utf-8"?>
<!-- Generator: Adobe Illustrator 17.0.0, SVG Export Plug-In . SVG Version: 6.00 Build 0)  -->
<!DOCTYPE svg PUBLIC "-//W3C//DTD SVG 1.1//EN" "http://www.w3.org/Graphics/SVG/1.1/DTD/svg11.dtd">
<svg version="1.1" id="Layer_2" xmlns="http://www.w3.org/2000/svg" xmlns:xlink="http://www.w3.org/1999/xlink" x="0px" y="0px"
	 width="60px" height="60px" viewBox="0 0 60 60" enable-background="new 0 0 60 60" xml:space="preserve">
<g>
	<path fill="#010101" d="M33,35.502c4.411,0,8-3.589,8-8s-3.589-8-8-8s-8,3.589-8,8S28.589,35.502,33,35.502z M32,24.502
		c0-0.552,0.447-1,1-1s1,0.448,1,1v6c0,0.552-0.447,1-1,1s-1-0.448-1-1V24.502z"/>
	<path fill="#010101" d="M45,17.502c4.411,0,8-3.589,8-8s-3.589-8-8-8s-8,3.589-8,8S40.589,17.502,45,17.502z M44,6.502
		c0-0.552,0.447-1,1-1s1,0.448,1,1v6c0,0.552-0.447,1-1,1s-1-0.448-1-1V6.502z"/>
	<path fill="#010101" d="M11,34.521H1c-0.553,0-1,0.448-1,1v18c0,0.552,0.447,1,1,1h10c0.553,0,1-0.448,1-1v-18
		C12,34.969,11.552,34.521,11,34.521z"/>
	<path fill="#010101" d="M59.707,44.814c-2.965-2.964-5.027-3.071-8.051-2.205l-4.958,1.57c-0.119,1.028-0.495,1.98-1.114,2.727
		c-0.878,1.057-2.117,1.615-3.584,1.615h-1H28c-0.553,0-1-0.448-1-1c0-0.552,0.447-1,1-1h13h1c0.864,0,1.553-0.301,2.046-0.894
		c0.449-0.541,0.707-1.313,0.707-2.119c0-0.147-0.012-0.308-0.034-0.476c-0.51-1.398-1.764-2.523-3.713-2.525
		c-1.17,0.001-2.003,0.005-2.705,0.008c-0.783,0.003-1.417,0.005-2.191,0.004c-0.778,0.001-1.562,0-2.762-0.009
		c-3.441-2.647-7.257-3.989-11.348-3.989h-8c-0.553,0-1,0.448-1,1v13.844c0,0.431,0.275,0.812,0.684,0.949
		c3.909,1.303,7.004,2.428,9.49,3.333c5.066,1.842,7.896,2.852,10.487,2.852c3.173,0,5.986-1.514,12.104-4.869
		c3.239-1.777,7.677-4.21,13.683-7.213c0.287-0.144,0.488-0.417,0.54-0.734C60.039,45.364,59.934,45.041,59.707,44.814z"/>
</g>
</svg>
