<?xml version="1.0" encoding="utf-8"?>
<!-- Generator: Adobe Illustrator 17.0.0, SVG Export Plug-In . SVG Version: 6.00 Build 0)  -->
<!DOCTYPE svg PUBLIC "-//W3C//DTD SVG 1.1//EN" "http://www.w3.org/Graphics/SVG/1.1/DTD/svg11.dtd">
<svg version="1.1" id="Layer_2" xmlns="http://www.w3.org/2000/svg" xmlns:xlink="http://www.w3.org/1999/xlink" x="0px" y="0px"
	 width="60px" height="60px" viewBox="0 0 60 60" enable-background="new 0 0 60 60" xml:space="preserve">
<g>
	<path fill="#010101" d="M2.753,36h54.562H59h0.593L47.878,14.522C47.703,14.2,47.366,14,47,14H18V3c0-0.552,0.448-1,1-1h1
		c0.83,0,2.12,0.534,2.707,1.122l0.86,0.859C23.215,4.576,23,5.261,23,6c0,2.206,1.794,4,4,4c2.206,0,4-1.794,4-4
		c0-2.206-1.794-4-4-4c-0.74,0-1.425,0.215-2.02,0.567l-0.859-0.859C23.164,0.75,21.354,0,20,0h-1c-1.654,0-3,1.346-3,3v11h-2
		c-0.354,0-0.681,0.187-0.861,0.491L0.429,36H1H2.753z M20.03,30.758l3-12C23.142,18.313,23.541,18,24,18h20
		c0.403,0,0.768,0.243,0.923,0.615l4.93,11.83c0.106,0.159,0.167,0.35,0.167,0.555c0,0.552-0.447,1-1,1c-0.005,0-0.013,0-0.019,0H21
		c-0.308,0-0.599-0.142-0.788-0.385C20.022,31.373,19.955,31.056,20.03,30.758z"/>
	<path fill="#010101" d="M59.019,38c-0.005,0-0.012,0-0.019,0h-1H2H1H0v5c0,0.552,0.447,1,1,1h28v14h-4c-0.553,0-1,0.448-1,1
		c0,0.552,0.447,1,1,1h10c0.553,0,1-0.448,1-1c0-0.552-0.447-1-1-1h-4V44h28c0.553,0,1-0.448,1-1v-5H59.019z"/>
</g>
</svg>
