<?xml version="1.0" encoding="utf-8"?>
<!-- Generator: Adobe Illustrator 17.0.0, SVG Export Plug-In . SVG Version: 6.00 Build 0)  -->
<!DOCTYPE svg PUBLIC "-//W3C//DTD SVG 1.1//EN" "http://www.w3.org/Graphics/SVG/1.1/DTD/svg11.dtd">
<svg version="1.1" id="Layer_2" xmlns="http://www.w3.org/2000/svg" xmlns:xlink="http://www.w3.org/1999/xlink" x="0px" y="0px"
	 width="60px" height="60px" viewBox="0 0 60 60" enable-background="new 0 0 60 60" xml:space="preserve">
<g>
	<path fill="#010101" d="M55,12H5c-2.757,0-5,2.243-5,5v32c0,2.757,2.243,5,5,5h50c2.757,0,5-2.243,5-5V17
		C60,14.243,57.757,12,55,12z M28,41.479V40h-2v2h1.305c-0.994,0.699-2.108,1.233-3.305,1.574V42h-2v1.949
		C21.67,43.98,21.337,44,21,44c-1.801,0-3.498-0.443-5-1.214V42h-1.305c-1.462-1.027-2.66-2.4-3.481-4H12v-2h-1.574
		c-0.184-0.645-0.313-1.312-0.376-2H12v-2h-1.949c0.062-0.687,0.192-1.354,0.376-2H12v-2h-0.785c0.821-1.6,2.019-2.973,3.481-4H16
		v-0.786C17.502,22.444,19.199,22,21,22c0.337,0,0.67,0.021,1,0.051V24h2v-1.574c1.197,0.34,2.31,0.875,3.304,1.574H26v2h2v-1.478
		c1.696,1.403,2.956,3.307,3.573,5.478H30v2h1.949C31.979,32.331,32,32.664,32,33.002c0,0.337-0.021,0.669-0.051,0.998H30v2h1.574
		C30.956,38.172,29.696,40.076,28,41.479z M40,44.001c-3.18,0-6.13-1.362-8.223-3.737C33.18,38.189,34,35.689,34,33.002
		c0-2.688-0.82-5.188-2.223-7.263C33.871,23.362,36.821,22,40,22c6.065,0,11,4.935,11,11.002C51,39.066,46.065,44.001,40,44.001z"/>
	<rect x="14" y="30" fill="#010101" width="2" height="2"/>
	<rect x="14" y="34" fill="#010101" width="2" height="2"/>
	<rect x="18" y="36" fill="#010101" width="2" height="2"/>
	<rect x="18" y="40" fill="#010101" width="2" height="2"/>
	<rect x="18" y="24" fill="#010101" width="2" height="2"/>
	<rect x="18" y="32" fill="#010101" width="2" height="2"/>
	<rect x="18" y="28" fill="#010101" width="2" height="2"/>
	<rect x="26" y="36" fill="#010101" width="2" height="2"/>
	<rect x="26" y="32" fill="#010101" width="2" height="2"/>
	<rect x="26" y="28" fill="#010101" width="2" height="2"/>
	<rect x="14" y="38" fill="#010101" width="2" height="2"/>
	<rect x="14" y="26" fill="#010101" width="2" height="2"/>
	<rect x="22" y="30" fill="#010101" width="2" height="2"/>
	<rect x="22" y="34" fill="#010101" width="2" height="2"/>
	<rect x="22" y="38" fill="#010101" width="2" height="2"/>
	<rect x="22" y="26" fill="#010101" width="2" height="2"/>
</g>
</svg>
