<?xml version="1.0" encoding="utf-8"?>
<!-- Generator: Adobe Illustrator 17.0.0, SVG Export Plug-In . SVG Version: 6.00 Build 0)  -->
<!DOCTYPE svg PUBLIC "-//W3C//DTD SVG 1.1//EN" "http://www.w3.org/Graphics/SVG/1.1/DTD/svg11.dtd">
<svg version="1.1" id="Layer_2" xmlns="http://www.w3.org/2000/svg" xmlns:xlink="http://www.w3.org/1999/xlink" x="0px" y="0px"
	 width="60px" height="60px" viewBox="0 0 60 60" enable-background="new 0 0 60 60" xml:space="preserve">
<g>
	<path fill="#010101" d="M0,0v31c0-1.38,0.782-2.44,2-3.26V2h56v34H32v2h28V0H0z"/>
	<path fill="#010101" d="M32,32h18c2.243,0,4-1.757,4-4V10c0-2.243-1.757-4-4-4H10c-2.243,0-4,1.757-4,4v16.096
		C9.908,25.088,14.541,25,16,25c2.672,0,16,0.289,16,6V32z M47,22c1.654,0,3,1.345,3,2.999C50,26.653,48.654,28,47,28
		c-1.654,0-3-1.347-3-3.001C44,23.345,45.346,22,47,22z M13,16c-1.654,0-3-1.347-3-3.001C10,11.345,11.346,10,13,10
		c1.654,0,3,1.345,3,2.999C16,14.653,14.654,16,13,16z M29.999,25C26.14,25,23,21.86,23,18c0-3.859,3.14-6.999,6.999-6.999
		c3.86,0,7.001,3.14,7.001,6.999C37,21.86,33.859,25,29.999,25z"/>
	<path fill="#010101" d="M2,53.038V56c0,0.178,0.038,0.349,0.101,0.513c0.046,0.116,0.12,0.226,0.195,0.335
		c0.028,0.042,0.046,0.086,0.079,0.127c0.11,0.137,0.245,0.27,0.398,0.397c0.01,0.008,0.017,0.017,0.027,0.025
		c0.33,0.268,0.753,0.513,1.248,0.738c0.015,0.007,0.029,0.014,0.045,0.021c0.217,0.097,0.452,0.188,0.694,0.277
		c0.066,0.024,0.131,0.049,0.199,0.072c0.187,0.065,0.385,0.126,0.584,0.187c0.165,0.049,0.33,0.099,0.502,0.146
		c0.102,0.028,0.207,0.055,0.312,0.082c2.732,0.689,6.188,1.005,8.698,1.067C15.392,59.995,15.701,60,16,60
		c0.299,0,0.608-0.005,0.918-0.012c2.51-0.062,5.966-0.377,8.698-1.067c0.104-0.027,0.21-0.053,0.312-0.082
		c0.172-0.046,0.337-0.096,0.502-0.146c0.199-0.061,0.397-0.122,0.584-0.187c0.068-0.023,0.132-0.048,0.199-0.072
		c0.242-0.089,0.478-0.181,0.694-0.277c0.015-0.007,0.029-0.014,0.045-0.021c0.495-0.225,0.918-0.471,1.249-0.738
		c0.01-0.008,0.017-0.017,0.027-0.025c0.154-0.127,0.288-0.26,0.398-0.397c0.032-0.041,0.051-0.085,0.079-0.127
		c0.075-0.11,0.149-0.22,0.195-0.335C29.962,56.349,30,56.178,30,56v-2.962C26.441,54.592,19.09,55,16,55
		C12.91,55,5.559,54.592,2,53.038z"/>
	<path fill="#010101" d="M29.967,30.827C29.625,28.192,21.687,27,16,27c-3.204,0-7.122,0.379-10,1.179v0.002
		c-0.147,0.04-0.288,0.082-0.43,0.125c-0.199,0.061-0.397,0.122-0.584,0.187c-0.068,0.023-0.132,0.048-0.199,0.072
		c-0.242,0.089-0.478,0.181-0.694,0.277c-0.015,0.007-0.029,0.014-0.045,0.021C3.553,29.089,3.13,29.335,2.8,29.602
		c-0.01,0.008-0.017,0.017-0.027,0.025c-0.154,0.128-0.288,0.26-0.398,0.397c-0.032,0.041-0.05,0.085-0.079,0.127
		c-0.075,0.11-0.149,0.22-0.195,0.335c-0.042,0.109-0.053,0.225-0.067,0.341C3.005,31.62,8.398,33,16,33
		C23.605,33,29,31.618,29.967,30.827z"/>
	<path fill="#010101" d="M2,33.038v2.766C2.888,36.59,8.32,38,16,38c7.68,0,13.112-1.41,14-2.197v-2.765
		C26.441,34.592,19.09,35,16,35C12.91,35,5.559,34.592,2,33.038z"/>
	<path fill="#010101" d="M2,48.038v2.766C2.888,51.59,8.32,53,16,53c7.68,0,13.112-1.41,14-2.197v-2.765
		C26.441,49.592,19.09,50,16,50C12.91,50,5.559,49.592,2,48.038z"/>
	<path fill="#010101" d="M2,43.038v2.766C2.888,46.59,8.32,48,16,48c7.68,0,13.112-1.41,14-2.197v-2.765
		C26.441,44.592,19.09,45,16,45C12.91,45,5.559,44.592,2,43.038z"/>
	<path fill="#010101" d="M2,38.038v2.766C2.888,41.59,8.32,43,16,43c7.68,0,13.112-1.41,14-2.197v-2.765
		C26.441,39.592,19.09,40,16,40C12.91,40,5.559,39.592,2,38.038z"/>
</g>
</svg>
