<?xml version="1.0" encoding="utf-8"?>
<!-- Generator: Adobe Illustrator 17.0.0, SVG Export Plug-In . SVG Version: 6.00 Build 0)  -->
<!DOCTYPE svg PUBLIC "-//W3C//DTD SVG 1.1//EN" "http://www.w3.org/Graphics/SVG/1.1/DTD/svg11.dtd">
<svg version="1.1" id="Layer_2" xmlns="http://www.w3.org/2000/svg" xmlns:xlink="http://www.w3.org/1999/xlink" x="0px" y="0px"
	 width="60px" height="60px" viewBox="0 0 60 60" enable-background="new 0 0 60 60" xml:space="preserve">
<path fill="#010101" d="M30,0C19.523,0,11,8.523,11,19c0,0.055,0.005,0.11,0.014,0.164l5,30C16.094,49.647,16.511,50,17,50h12v9
	c0,0.552,0.447,1,1,1c0.553,0,1-0.448,1-1v-9h11c0.477,0,0.887-0.336,0.98-0.804l6-30C48.993,19.132,49,19.066,49,19
	C49,8.523,40.477,0,30,0z M30,44c-2.757,0-5-2.243-5-5c0-2.757,2.243-5,5-5c2.757,0,5,2.243,5,5C35,41.757,32.757,44,30,44z M41,27
	c0,0.552-0.447,1-1,1c-0.553,0-1-0.448-1-1v-1H21v1c0,0.552-0.447,1-1,1c-0.553,0-1-0.448-1-1v-2c0-0.552,0.447-1,1-1h20
	c0.553,0,1,0.448,1,1V27z M40.019,20c-0.004,0-0.012,0-0.019,0h-9.586l4.293-4.293c0.391-0.391,0.391-1.023,0-1.414
	c-0.391-0.391-1.023-0.391-1.414,0L27.586,20H20c-0.553,0-1-0.448-1-1c0-6.065,4.935-11,11-11c5.995,0,10.886,4.821,10.998,10.791
	c0.015,0.068,0.021,0.138,0.021,0.209C41.019,19.552,40.572,20,40.019,20z"/>
</svg>
