<?xml version="1.0" encoding="utf-8"?>
<!-- Generator: Adobe Illustrator 17.0.0, SVG Export Plug-In . SVG Version: 6.00 Build 0)  -->
<!DOCTYPE svg PUBLIC "-//W3C//DTD SVG 1.1//EN" "http://www.w3.org/Graphics/SVG/1.1/DTD/svg11.dtd">
<svg version="1.1" id="Layer_2" xmlns="http://www.w3.org/2000/svg" xmlns:xlink="http://www.w3.org/1999/xlink" x="0px" y="0px"
	 width="60px" height="60px" viewBox="0 0 60 60" enable-background="new 0 0 60 60" xml:space="preserve">
<g>
	<path fill="#010101" d="M59.96,1.608c-0.012-0.059-0.034-0.114-0.05-0.171c-0.02-0.068-0.036-0.137-0.063-0.203
		c-0.027-0.066-0.065-0.126-0.099-0.188c-0.028-0.052-0.051-0.106-0.085-0.156c-0.073-0.109-0.156-0.212-0.249-0.305
		c-0.001-0.001-0.002-0.001-0.002-0.002c-0.092-0.092-0.194-0.174-0.303-0.247c-0.048-0.032-0.101-0.054-0.151-0.081
		c-0.064-0.035-0.126-0.074-0.193-0.102c-0.064-0.026-0.13-0.041-0.195-0.06c-0.06-0.018-0.117-0.04-0.178-0.053
		c-0.121-0.024-0.244-0.036-0.366-0.037C58.016,0.002,58.008,0,58,0H43c-1.105,0-2,0.896-2,2c0,1.105,0.895,2,2,2h10.172
		L0.586,56.586c-0.781,0.781-0.781,2.047,0,2.828C0.977,59.805,1.488,60,2,60c0.512,0,1.023-0.195,1.414-0.586L56,6.828V17
		c0,1.105,0.895,2,2,2c1.104,0,2-0.895,2-2V2C60,1.869,59.986,1.738,59.96,1.608z"/>
	<path fill="#010101" d="M12,22c5.514,0,10-4.486,10-10c0-5.514-4.486-10-10-10C6.486,2,2,6.486,2,12C2,17.514,6.486,22,12,22z"/>
	<path fill="#010101" d="M48,38c-5.514,0-10,4.486-10,10c0,5.514,4.486,10,10,10c5.514,0,10-4.486,10-10C58,42.486,53.514,38,48,38z
		"/>
</g>
</svg>
