<?xml version="1.0" encoding="utf-8"?>
<!-- Generator: Adobe Illustrator 17.0.0, SVG Export Plug-In . SVG Version: 6.00 Build 0)  -->
<!DOCTYPE svg PUBLIC "-//W3C//DTD SVG 1.1//EN" "http://www.w3.org/Graphics/SVG/1.1/DTD/svg11.dtd">
<svg version="1.1" id="Layer_2" xmlns="http://www.w3.org/2000/svg" xmlns:xlink="http://www.w3.org/1999/xlink" x="0px" y="0px"
	 width="60px" height="60px" viewBox="0 0 60 60" enable-background="new 0 0 60 60" xml:space="preserve">
<path fill="#010101" d="M60,30c0-2.279-1.275-4.305-3.205-5.329c1.39-1.686,1.793-4.046,0.922-6.151
	c-0.863-2.082-2.788-3.487-5.001-3.697c0.641-2.088,0.11-4.423-1.503-6.037c-1.138-1.139-2.651-1.766-4.262-1.766
	c-0.607,0-1.203,0.09-1.772,0.264c-0.208-2.173-1.593-4.126-3.699-4.998c-2.067-0.857-4.493-0.455-6.151,0.918
	C34.304,1.275,32.278,0,30,0c-2.278,0-4.304,1.275-5.329,3.205c-1.659-1.373-4.085-1.775-6.152-0.919
	c-2.105,0.87-3.489,2.824-3.697,4.998c-0.569-0.174-1.165-0.263-1.772-0.263c-1.61,0-3.125,0.627-4.264,1.767
	c-1.611,1.611-2.142,3.946-1.502,6.035c-2.212,0.209-4.136,1.614-4.999,3.697c-0.871,2.103-0.469,4.463,0.921,6.149
	C1.276,25.694,0,27.721,0,30c0,2.278,1.276,4.305,3.205,5.331c-1.39,1.685-1.793,4.044-0.923,6.151
	c0.864,2.083,2.79,3.487,5.003,3.697c-0.639,2.088-0.109,4.423,1.501,6.036c1.14,1.139,2.653,1.767,4.264,1.767
	c0.607,0,1.202-0.09,1.773-0.264c0.209,2.173,1.593,4.127,3.698,5.001c2.066,0.856,4.492,0.453,6.151-0.92
	C25.696,58.725,27.722,60,30,60c2.278,0,4.304-1.275,5.328-3.203c1.659,1.372,4.083,1.776,6.153,0.921
	c2.104-0.873,3.487-2.827,3.696-5.002c0.569,0.175,1.165,0.264,1.772,0.264c1.61,0,3.124-0.627,4.263-1.766
	c1.613-1.613,2.143-3.948,1.503-6.036c2.213-0.21,4.138-1.614,5.001-3.696c0.874-2.106,0.472-4.466-0.92-6.15
	C58.725,34.306,60,32.279,60,30z M18,23c0-2.757,2.243-5,5-5c2.757,0,5,2.243,5,5c0,2.757-2.243,5-5,5C20.243,28,18,25.757,18,23z
	 M20.707,40.707C20.512,40.902,20.256,41,20,41c-0.256,0-0.512-0.098-0.707-0.293c-0.391-0.391-0.391-1.023,0-1.414l20-20
	c0.391-0.391,1.023-0.391,1.414,0c0.391,0.391,0.391,1.023,0,1.414L20.707,40.707z M37,42c-2.757,0-5-2.243-5-5c0-2.757,2.243-5,5-5
	c2.757,0,5,2.243,5,5C42,39.757,39.757,42,37,42z"/>
</svg>
