<?xml version="1.0" encoding="utf-8"?>
<!-- Generator: Adobe Illustrator 17.0.0, SVG Export Plug-In . SVG Version: 6.00 Build 0)  -->
<!DOCTYPE svg PUBLIC "-//W3C//DTD SVG 1.1//EN" "http://www.w3.org/Graphics/SVG/1.1/DTD/svg11.dtd">
<svg version="1.1" id="Layer_2" xmlns="http://www.w3.org/2000/svg" xmlns:xlink="http://www.w3.org/1999/xlink" x="0px" y="0px"
	 width="60px" height="60px" viewBox="0 0 60 60" enable-background="new 0 0 60 60" xml:space="preserve">
<g>
	<path fill="#010101" d="M33,0c-0.553,0-1,0.448-1,1v26c0,0.552,0.447,1,1,1h26c0.553,0,1-0.448,1-1C60,12.112,47.888,0,33,0z"/>
	<path fill="#010101" d="M53,32H28V7c0-0.552-0.447-1-1-1C12.112,6,0,18.112,0,33c0,14.888,12.112,27,27,27
		c14.888,0,27-12.112,27-27C54,32.448,53.553,32,53,32z"/>
</g>
</svg>
