<?xml version="1.0" encoding="utf-8"?>
<!-- Generator: Adobe Illustrator 17.1.0, SVG Export Plug-In . SVG Version: 6.00 Build 0)  -->
<!DOCTYPE svg PUBLIC "-//W3C//DTD SVG 1.0//EN" "http://www.w3.org/TR/2001/REC-SVG-20010904/DTD/svg10.dtd">
<svg version="1.0" id="Layer_1" xmlns="http://www.w3.org/2000/svg" xmlns:xlink="http://www.w3.org/1999/xlink" x="0px" y="0px"
	 width="60px" height="60px" viewBox="0 0 60 60" enable-background="new 0 0 60 60" xml:space="preserve">
<g>
	<circle cx="16" cy="25" r="1"/>
	<path d="M59,23c-0.553,0-1,0.448-1,1c0,1.922-1.294,3.479-3.075,3.887C54.278,16.829,43.346,8,30,8
		c-1.857,0-3.815,0.031-5.704,0.371C22.48,5.658,19.416,4,16.132,4c-1.718,0-3.417,0.458-4.916,1.325
		c-0.309,0.179-0.499,0.509-0.499,0.866c0,0.357,0.19,0.687,0.5,0.866c1.912,1.106,3.242,2.911,3.718,5.018
		C9.789,15.399,6.2,20.514,5.152,26H1c-0.553,0-1,0.448-1,1v10c0,0.552,0.447,1,1,1h6.362C9.801,43.035,14.21,46.635,20,48.512V55
		c0,0.552,0.447,1,1,1s1-0.448,1-1v-5.919C24.465,49.68,27.139,50,30,50c2.798,0,5.487-0.396,8-1.117V55c0,0.552,0.447,1,1,1
		s1-0.448,1-1v-6.771c8.453-3.136,14.471-10.114,14.926-18.304C57.834,29.49,60,27.048,60,24C60,23.448,59.553,23,59,23z M16,28
		c-1.654,0-3-1.346-3-3s1.346-3,3-3s3,1.346,3,3S17.654,28,16,28z M42.8,19.6C42.604,19.862,42.303,20,41.999,20
		c-0.209,0-0.42-0.065-0.6-0.2c-3.537-2.656-8.136-4.08-12.334-3.802c-0.539,0.034-1.027-0.381-1.063-0.932
		c-0.036-0.551,0.381-1.027,0.933-1.064c4.642-0.308,9.757,1.263,13.666,4.198C43.042,18.532,43.131,19.158,42.8,19.6z"/>
</g>
</svg>
