<?xml version="1.0" encoding="utf-8"?>
<!-- Generator: Adobe Illustrator 17.0.0, SVG Export Plug-In . SVG Version: 6.00 Build 0)  -->
<!DOCTYPE svg PUBLIC "-//W3C//DTD SVG 1.1//EN" "http://www.w3.org/Graphics/SVG/1.1/DTD/svg11.dtd">
<svg version="1.1" id="Layer_2" xmlns="http://www.w3.org/2000/svg" xmlns:xlink="http://www.w3.org/1999/xlink" x="0px" y="0px"
	 width="60px" height="60px" viewBox="0 0 60 60" enable-background="new 0 0 60 60" xml:space="preserve">
<path fill="#010101" d="M37,4c6.505,0,12,5.495,12,12c0,1.105,0.895,2,2,2c1.104,0,2-0.895,2-2c0-8.822-7.178-16-16-16
	c-8.822,0-16,7.178-16,16v12H9c-1.105,0-2,0.896-2,2c0,1.105,0.895,2,2,2h12v12c0,5.832-6.168,12-12,12c-1.105,0-2,0.896-2,2
	c0,1.105,0.895,2,2,2h41c1.104,0,2-0.895,2-2c0-1.104-0.896-2-2-2H18.979C22.547,52.94,25,48.493,25,44V32h20c1.104,0,2-0.895,2-2
	c0-1.104-0.896-2-2-2H25V16C25,9.495,30.495,4,37,4z"/>
</svg>
