<?xml version="1.0" encoding="utf-8"?>
<!-- Generator: Adobe Illustrator 17.0.0, SVG Export Plug-In . SVG Version: 6.00 Build 0)  -->
<!DOCTYPE svg PUBLIC "-//W3C//DTD SVG 1.1//EN" "http://www.w3.org/Graphics/SVG/1.1/DTD/svg11.dtd">
<svg version="1.1" id="Layer_2" xmlns="http://www.w3.org/2000/svg" xmlns:xlink="http://www.w3.org/1999/xlink" x="0px" y="0px"
	 width="60px" height="60px" viewBox="0 0 60 60" enable-background="new 0 0 60 60" xml:space="preserve">
<path fill="#010101" d="M30,0C13.458,0,0,13.458,0,30s13.458,30,30,30s30-13.458,30-30S46.542,0,30,0z M33,28c0.553,0,1,0.448,1,1
	c0,0.552-0.447,1-1,1h-5v3c0,2.562-0.765,5.238-2.383,7H37c0.553,0,1,0.448,1,1c0,0.552-0.447,1-1,1H21c-0.553,0-1-0.448-1-1
	c0-0.552,0.447-1,1-1c3.435,0,5-3.629,5-7v-3h-5c-0.553,0-1-0.448-1-1c0-0.552,0.447-1,1-1h5v-6c0-3.533,2.468-6,6-6
	c3.532,0,6,2.467,6,6c0,0.552-0.447,1-1,1c-0.553,0-1-0.448-1-1c0-2.43-1.57-4-4-4c-2.43,0-4,1.57-4,4v6H33z"/>
</svg>
