<?xml version="1.0" encoding="utf-8"?>
<!-- Generator: Adobe Illustrator 17.0.0, SVG Export Plug-In . SVG Version: 6.00 Build 0)  -->
<!DOCTYPE svg PUBLIC "-//W3C//DTD SVG 1.1//EN" "http://www.w3.org/Graphics/SVG/1.1/DTD/svg11.dtd">
<svg version="1.1" id="Layer_2" xmlns="http://www.w3.org/2000/svg" xmlns:xlink="http://www.w3.org/1999/xlink" x="0px" y="0px"
	 width="60px" height="60px" viewBox="0 0 60 60" enable-background="new 0 0 60 60" xml:space="preserve">
<path fill="#010101" d="M60,30c0-2.279-1.275-4.305-3.205-5.33c1.389-1.685,1.793-4.045,0.924-6.151
	c-0.865-2.083-2.79-3.487-5.002-3.697c0.639-2.088,0.109-4.422-1.502-6.035c-1.139-1.139-2.653-1.767-4.264-1.767
	c-0.607,0-1.203,0.089-1.771,0.263c-0.208-2.174-1.592-4.127-3.699-5.001c-2.067-0.856-4.493-0.453-6.151,0.92
	C34.303,1.275,32.277,0,30,0c-2.278,0-4.304,1.275-5.329,3.204c-1.658-1.372-4.083-1.778-6.151-0.921
	c-2.104,0.873-3.487,2.827-3.697,5.001c-0.568-0.174-1.164-0.263-1.771-0.263c-1.61,0-3.125,0.628-4.265,1.768
	c-1.611,1.61-2.142,3.945-1.501,6.035c-2.213,0.209-4.138,1.614-5.001,3.698c-0.872,2.104-0.47,4.464,0.92,6.149
	C1.276,25.695,0,27.722,0,30c0,2.278,1.275,4.305,3.205,5.33c-1.39,1.685-1.793,4.045-0.922,6.15
	c0.863,2.084,2.789,3.489,5.003,3.698c-0.64,2.089-0.109,4.424,1.501,6.036c1.14,1.138,2.653,1.765,4.263,1.765
	c0.607,0,1.203-0.09,1.773-0.264c0.209,2.176,1.594,4.13,3.699,5c2.064,0.858,4.491,0.455,6.15-0.918C25.696,58.725,27.722,60,30,60
	c2.277,0,4.304-1.275,5.329-3.204c1.659,1.373,4.085,1.775,6.152,0.92c2.105-0.871,3.489-2.825,3.697-5.001
	c0.569,0.174,1.165,0.264,1.771,0.264c1.61,0,3.125-0.627,4.265-1.766c1.611-1.612,2.142-3.947,1.502-6.035
	c2.212-0.209,4.137-1.614,5.002-3.697c0.873-2.105,0.47-4.465-0.922-6.15C58.725,34.306,60,32.28,60,30z M33,28c0.553,0,1,0.448,1,1
	c0,0.552-0.447,1-1,1h-5v3c0,2.562-0.765,5.238-2.383,7H37c0.553,0,1,0.448,1,1c0,0.552-0.447,1-1,1H21c-0.553,0-1-0.448-1-1
	c0-0.552,0.447-1,1-1c3.435,0,5-3.629,5-7v-3h-5c-0.553,0-1-0.448-1-1c0-0.552,0.447-1,1-1h5v-6c0-3.533,2.468-6,6-6
	c3.532,0,6,2.467,6,6c0,0.552-0.447,1-1,1c-0.553,0-1-0.448-1-1c0-2.43-1.57-4-4-4c-2.43,0-4,1.57-4,4v6H33z"/>
</svg>
