<?xml version="1.0" encoding="utf-8"?>
<!-- Generator: Adobe Illustrator 17.0.0, SVG Export Plug-In . SVG Version: 6.00 Build 0)  -->
<!DOCTYPE svg PUBLIC "-//W3C//DTD SVG 1.1//EN" "http://www.w3.org/Graphics/SVG/1.1/DTD/svg11.dtd">
<svg version="1.1" id="Layer_2" xmlns="http://www.w3.org/2000/svg" xmlns:xlink="http://www.w3.org/1999/xlink" x="0px" y="0px"
	 width="60px" height="60px" viewBox="0 0 60 60" enable-background="new 0 0 60 60" xml:space="preserve">
<path fill="#010101" d="M52,18.694V14c0-0.552-0.447-1-1-1H9c-0.553,0-1,0.448-1,1v4.694C3.254,20.374,0,24.918,0,30
	s3.254,9.626,8,11.306V46c0,0.552,0.447,1,1,1h42c0.553,0,1-0.448,1-1v-4.694c4.746-1.68,8-6.224,8-11.306S56.746,20.374,52,18.694z
	 M33,29c0.553,0,1,0.448,1,1c0,0.552-0.447,1-1,1h-3v3c0,1.061-0.25,2.127-0.741,3H35c0.553,0,1,0.448,1,1c0,0.552-0.447,1-1,1h-9
	c-0.553,0-1-0.448-1-1c0-0.552,0.447-1,1-1c1.582,0,2-1.962,2-3v-3h-3c-0.553,0-1-0.448-1-1c0-0.552,0.447-1,1-1h3v-4.108
	C28,22.419,29.458,21,32,21s4,1.458,4,4c0,0.552-0.447,1-1,1c-0.553,0-1-0.448-1-1c0-1.439-0.561-2-2-2c-1.44,0-2,0.53-2,1.892V29
	H33z"/>
</svg>
