<?xml version="1.0" encoding="utf-8"?>
<!-- Generator: Adobe Illustrator 17.0.0, SVG Export Plug-In . SVG Version: 6.00 Build 0)  -->
<!DOCTYPE svg PUBLIC "-//W3C//DTD SVG 1.1//EN" "http://www.w3.org/Graphics/SVG/1.1/DTD/svg11.dtd">
<svg version="1.1" id="Layer_2" xmlns="http://www.w3.org/2000/svg" xmlns:xlink="http://www.w3.org/1999/xlink" x="0px" y="0px"
	 width="60px" height="60px" viewBox="0 0 60 60" enable-background="new 0 0 60 60" xml:space="preserve">
<g>
	<path fill="#010101" d="M45.638,30.935C43.462,32.996,40.628,34,37,34c-2.977,0-5.754-0.727-7.91-2.059
		C27.12,33.325,24.793,34,22,34c-3.404,0-5.85-0.962-7.824-3.102C11.894,31.76,9.28,32,8,32c-0.687,0-1.355-0.075-2-0.213V59
		c0,0.552,0.447,1,1,1h30h12h4c0.553,0,1-0.448,1-1V31.539C53.038,31.833,52.031,32,51,32C49.135,32,47.223,31.616,45.638,30.935z
		 M30,50H12V38h18V50z M48,58H38V38h10V58z"/>
	<path fill="#010101" d="M59,20h-1H46v8.895C47.99,29.886,50.151,30,51,30c1.041,0,2.051-0.208,3-0.568v-0.022
		c3.385-1.325,6-4.734,6-8.409v-1H59z"/>
	<path fill="#010101" d="M44.181,29.542C44.076,29.383,44,29.204,44,29v-9H30v10c0,0.044-0.019,0.081-0.025,0.123
		C31.837,31.331,34.307,32,37,32C40.041,32,42.394,31.188,44.181,29.542z"/>
	<path fill="#010101" d="M16,20v9.897C17.525,31.373,19.34,32,22,32c2.45,0,4.382-0.573,6.044-1.78C28.028,30.147,28,30.078,28,30
		V20H16z"/>
	<path fill="#010101" d="M14,28.808V20H2H1H0v1c0,5.047,3.514,9,8,9C9.158,30,11.889,29.749,14,28.808z"/>
	<circle fill="#010101" cx="45" cy="49" r="1"/>
	<path fill="#010101" d="M2.767,18H14.28l3.333-10H7C6.648,8,6.323,8.185,6.143,8.485L1.634,16l-1.2,2H1H2.767z"/>
	<polygon fill="#010101" points="28,18 28,8 19.72,8 16.387,18 	"/>
	<path fill="#010101" d="M57.233,18H59h0.566l-1.2-2l-4.509-7.515C53.677,8.185,53.352,8,53,8H42.387l3.333,10H57.233z"/>
	<polygon fill="#010101" points="40.28,8 30,8 30,18 43.612,18 	"/>
</g>
</svg>
