<?xml version="1.0" encoding="utf-8"?>
<!-- Generator: Adobe Illustrator 17.0.0, SVG Export Plug-In . SVG Version: 6.00 Build 0)  -->
<!DOCTYPE svg PUBLIC "-//W3C//DTD SVG 1.1//EN" "http://www.w3.org/Graphics/SVG/1.1/DTD/svg11.dtd">
<svg version="1.1" id="Layer_2" xmlns="http://www.w3.org/2000/svg" xmlns:xlink="http://www.w3.org/1999/xlink" x="0px" y="0px"
	 width="60px" height="60px" viewBox="0 0 60 60" enable-background="new 0 0 60 60" xml:space="preserve">
<path fill="#010101" d="M54,22h-1.586L30.707,0.293c-0.391-0.391-1.023-0.391-1.414,0L7.586,22H6c-3.364,0-6,2.636-6,6v26
	c0,3.364,2.636,6,6,6h48c3.364,0,6-2.636,6-6V28C60,24.636,57.364,22,54,22z M30,2.414L49.586,22H10.414L30,2.414z M54,50
	c0,2.542-1.458,4-4,4H10c-2.542,0-4-1.458-4-4V32c0-2.542,1.458-4,4-4h40c2.542,0,4,1.458,4,4V50z"/>
</svg>
