<?xml version="1.0" encoding="utf-8"?>
<!-- Generator: Adobe Illustrator 17.0.0, SVG Export Plug-In . SVG Version: 6.00 Build 0)  -->
<!DOCTYPE svg PUBLIC "-//W3C//DTD SVG 1.1//EN" "http://www.w3.org/Graphics/SVG/1.1/DTD/svg11.dtd">
<svg version="1.1" id="Layer_2" xmlns="http://www.w3.org/2000/svg" xmlns:xlink="http://www.w3.org/1999/xlink" x="0px" y="0px"
	 width="60px" height="60px" viewBox="0 0 60 60" enable-background="new 0 0 60 60" xml:space="preserve">
<g>
	<path fill="#010101" d="M20,26h18c0.553,0,1-0.448,1-1V11c0-0.552-0.447-1-1-1H20c-0.553,0-1,0.448-1,1v14
		C19,25.552,19.447,26,20,26z M24,20h4c0.553,0,1,0.448,1,1c0,0.552-0.447,1-1,1h-4c-0.553,0-1-0.448-1-1C23,20.448,23.447,20,24,20
		z"/>
	<path fill="#010101" d="M48.707,58.293l-4-4C44.52,54.106,44.266,54,44,54H20.475C20.809,53.06,21,52.053,21,51
		c0-0.338-0.022-0.671-0.059-1H46c0.553,0,1-0.448,1-1V29c0-0.552-0.447-1-1-1H20c-0.553,0-1,0.448-1,1v16.356
		c-1.036-1.282-2.417-2.269-4-2.831V1c0-0.552-0.447-1-1-1H8C7.447,0,7,0.448,7,1c0,0.552,0.447,1,1,1h5v40.059
		C12.671,42.023,12.338,42,12,42c-4.963,0-9,4.037-9,9c0,4.963,4.037,9,9,9c3.114,0,5.862-1.59,7.478-4h24.108l3.707,3.707
		C47.488,59.902,47.744,60,48,60s0.512-0.098,0.707-0.293C49.098,59.316,49.098,58.684,48.707,58.293z M35,44h7c0.553,0,1,0.448,1,1
		c0,0.552-0.447,1-1,1h-7c-0.553,0-1-0.448-1-1C34,44.448,34.447,44,35,44z"/>
</g>
</svg>
