<?xml version="1.0" encoding="utf-8"?>
<!-- Generator: Adobe Illustrator 17.0.0, SVG Export Plug-In . SVG Version: 6.00 Build 0)  -->
<!DOCTYPE svg PUBLIC "-//W3C//DTD SVG 1.1//EN" "http://www.w3.org/Graphics/SVG/1.1/DTD/svg11.dtd">
<svg version="1.1" id="Layer_2" xmlns="http://www.w3.org/2000/svg" xmlns:xlink="http://www.w3.org/1999/xlink" x="0px" y="0px"
	 width="60px" height="60px" viewBox="0 0 60 60" enable-background="new 0 0 60 60" xml:space="preserve">
<g>
	<path fill="#010101" d="M60,19c0-0.552-0.447-1-1-1H27c-0.553,0-1,0.448-1,1v29h-2V25c0-0.552-0.447-1-1-1H13
		c-0.352,0-0.677,0.185-0.857,0.485L6.229,34.34l-5.87,4.892C0.132,39.422,0,39.703,0,40v6v3v6c0,0.552,0.447,1,1,1h3.263
		C4.098,55.359,4,54.691,4,54H2v-4h3.082c1.386-2.387,3.964-4,6.918-4c2.953,0,5.532,1.613,6.917,4H23h4h14.082
		c1.386-2.387,3.964-4,6.918-4c2.953,0,5.532,1.613,6.917,4H58v4h-2c0,0.691-0.098,1.359-0.263,2H59c0.553,0,1-0.448,1-1v-5.5
		c0-0.089-0.029-0.168-0.05-0.25C59.971,49.168,60,49.089,60,49V19z M18,30h-1.382l-3.724,7.447C12.719,37.798,12.366,38,11.999,38
		c-0.15,0-0.303-0.034-0.446-0.105c-0.494-0.247-0.694-0.848-0.447-1.342l4-8C15.275,28.214,15.621,28,16,28h2c0.553,0,1,0.448,1,1
		C19,29.552,18.553,30,18,30z"/>
	<path fill="#010101" d="M20,54c0,0.691-0.098,1.359-0.263,2h20.526C40.098,55.359,40,54.691,40,54H20z"/>
	<path fill="#010101" d="M12,48c-3.309,0-6,2.691-6,6c0,3.309,2.691,6,6,6c3.309,0,6-2.691,6-6C18,50.691,15.309,48,12,48z"/>
	<path fill="#010101" d="M48,48c-3.309,0-6,2.691-6,6c0,3.309,2.691,6,6,6c3.309,0,6-2.691,6-6C54,50.691,51.309,48,48,48z"/>
</g>
</svg>
