<?xml version="1.0" encoding="utf-8"?>
<!-- Generator: Adobe Illustrator 17.0.0, SVG Export Plug-In . SVG Version: 6.00 Build 0)  -->
<!DOCTYPE svg PUBLIC "-//W3C//DTD SVG 1.1//EN" "http://www.w3.org/Graphics/SVG/1.1/DTD/svg11.dtd">
<svg version="1.1" id="Layer_2" xmlns="http://www.w3.org/2000/svg" xmlns:xlink="http://www.w3.org/1999/xlink" x="0px" y="0px"
	 width="60px" height="60px" viewBox="0 0 60 60" enable-background="new 0 0 60 60" xml:space="preserve">
<g>
	<path fill="#010101" d="M45.745,29.042h-0.038c-0.321,0-0.682,1.64-1.021,2.377l-1.268,2.623h2.761l-0.245-2.623
		C45.877,30.719,45.802,29.042,45.745,29.042z"/>
	<path fill="#010101" d="M55,12H5c-2.757,0-5,2.243-5,5v32c0,2.757,2.243,5,5,5h50c2.757,0,5-2.243,5-5V17
		C60,14.243,57.757,12,55,12z M16,39.038l-1.698-9.996h-2.041c-0.697,0-1.261-0.803-1.261-1.5c0-0.694,0.564-1.5,1.261-1.5h3.31
		c0.035,0,0.062,0,0.096,0h1.142l0.567,6.078c0.133,1.343,0.227,2.922,0.303,3.922h0.039c0.473-1,1.077-2.617,1.701-3.94l2.855-6.06
		h3.045l-6.16,12.996H16z M27.479,39.038h-2.723l2-12.996h2.723L27.479,39.038z M33.285,39.139c-1.777,0-3.045-0.454-3.649-0.907
		L30.543,36c0.758,0.454,1.835,0.814,3.007,0.814c1.06,0,1.604-0.489,1.604-1.491c0-0.718-0.549-1.191-1.722-1.796
		c-1.361-0.738-2.646-1.721-2.646-3.385c0-2.573,2.25-4.143,5.029-4.143c1.552,0,2.459,0.341,3.008,0.644l-0.852,2.268
		c-0.416-0.227-1.323-0.585-2.383-0.566c-1.268,0-1.93,0.643-1.93,1.342c0,0.738,0.775,1.192,1.854,1.797
		c1.551,0.813,2.534,1.853,2.534,3.367C38.047,37.687,36.122,39.139,33.285,39.139z M46.979,39.038l-0.686-3.996h-3.668
		l-1.092,3.996h-2.895l5.783-12.996h3.498l1.915,12.996H46.979z"/>
</g>
</svg>
