<?xml version="1.0" encoding="utf-8"?>
<!-- Generator: Adobe Illustrator 17.0.0, SVG Export Plug-In . SVG Version: 6.00 Build 0)  -->
<!DOCTYPE svg PUBLIC "-//W3C//DTD SVG 1.1//EN" "http://www.w3.org/Graphics/SVG/1.1/DTD/svg11.dtd">
<svg version="1.1" id="Layer_2" xmlns="http://www.w3.org/2000/svg" xmlns:xlink="http://www.w3.org/1999/xlink" x="0px" y="0px"
	 width="60px" height="60px" viewBox="0 0 60 60" enable-background="new 0 0 60 60" xml:space="preserve">
<path fill="#010101" d="M30,0C13.458,0,0,13.458,0,30s13.458,30,30,30s30-13.458,30-30S46.542,0,30,0z M39.8,17.6L31,29.333V32h5
	c0.553,0,1,0.448,1,1c0,0.552-0.447,1-1,1h-5v4h5c0.553,0,1,0.448,1,1c0,0.552-0.447,1-1,1h-5v5c0,0.552-0.447,1-1,1
	c-0.553,0-1-0.448-1-1v-5h-5c-0.553,0-1-0.448-1-1c0-0.552,0.447-1,1-1h5v-4h-5c-0.553,0-1-0.448-1-1c0-0.552,0.447-1,1-1h5v-2.667
	L20.2,17.6c-0.332-0.442-0.242-1.069,0.2-1.4c0.441-0.332,1.068-0.242,1.399,0.2L30,27.334L38.2,16.4
	c0.331-0.441,0.959-0.531,1.399-0.2C40.042,16.531,40.132,17.158,39.8,17.6z"/>
</svg>
