<?xml version="1.0" encoding="utf-8"?>
<!-- Generator: Adobe Illustrator 17.0.0, SVG Export Plug-In . SVG Version: 6.00 Build 0)  -->
<!DOCTYPE svg PUBLIC "-//W3C//DTD SVG 1.1//EN" "http://www.w3.org/Graphics/SVG/1.1/DTD/svg11.dtd">
<svg version="1.1" id="Layer_2" xmlns="http://www.w3.org/2000/svg" xmlns:xlink="http://www.w3.org/1999/xlink" x="0px" y="0px"
	 width="60px" height="60px" viewBox="0 0 60 60" enable-background="new 0 0 60 60" xml:space="preserve">
<path fill="#010101" d="M47.685,3.078c0.596-0.931,0.324-2.167-0.607-2.763c-0.93-0.595-2.167-0.324-2.763,0.606L30,23.29
	L15.685,0.922c-0.596-0.931-1.832-1.202-2.763-0.606c-0.931,0.596-1.202,1.832-0.606,2.763L28,27.585V28h-9c-1.104,0-2,0.896-2,2
	c0,1.105,0.896,2,2,2h9v4h-9c-1.104,0-2,0.896-2,2c0,1.105,0.896,2,2,2h9v18c0,1.105,0.896,2,2,2s2-0.895,2-2V40h9
	c1.104,0,2-0.895,2-2c0-1.104-0.896-2-2-2h-9v-4h9c1.104,0,2-0.895,2-2c0-1.104-0.896-2-2-2h-9v-0.415L47.685,3.078z"/>
</svg>
