<?xml version="1.0" encoding="utf-8"?>
<!-- Generator: Adobe Illustrator 17.0.0, SVG Export Plug-In . SVG Version: 6.00 Build 0)  -->
<!DOCTYPE svg PUBLIC "-//W3C//DTD SVG 1.1//EN" "http://www.w3.org/Graphics/SVG/1.1/DTD/svg11.dtd">
<svg version="1.1" id="Layer_2" xmlns="http://www.w3.org/2000/svg" xmlns:xlink="http://www.w3.org/1999/xlink" x="0px" y="0px"
	 width="60px" height="60px" viewBox="0 0 60 60" enable-background="new 0 0 60 60" xml:space="preserve">
<path fill="#010101" d="M52,18.694V14c0-0.552-0.447-1-1-1H9c-0.553,0-1,0.448-1,1v4.694C3.254,20.374,0,24.918,0,30
	s3.254,9.626,8,11.306V46c0,0.552,0.447,1,1,1h42c0.553,0,1-0.448,1-1v-4.694c4.746-1.68,8-6.224,8-11.306S56.746,20.374,52,18.694z
	 M34.77,22.637L30,28.411V29h2c0.553,0,1,0.448,1,1c0,0.552-0.447,1-1,1h-2v2h2c0.553,0,1,0.448,1,1c0,0.552-0.447,1-1,1h-2v3
	c0,0.552-0.447,1-1,1c-0.553,0-1-0.448-1-1v-3h-2c-0.553,0-1-0.448-1-1c0-0.552,0.447-1,1-1h2v-2h-2c-0.553,0-1-0.448-1-1
	c0-0.552,0.447-1,1-1h2v-0.686l-4.766-5.67c-0.355-0.423-0.301-1.054,0.122-1.409c0.423-0.356,1.053-0.3,1.409,0.122l4.271,5.082
	l4.193-5.075c0.351-0.425,0.98-0.487,1.407-0.134C35.062,21.581,35.123,22.211,34.77,22.637z"/>
</svg>
