<?xml version="1.0" encoding="utf-8"?>
<!-- Generator: Adobe Illustrator 17.0.0, SVG Export Plug-In . SVG Version: 6.00 Build 0)  -->
<!DOCTYPE svg PUBLIC "-//W3C//DTD SVG 1.1//EN" "http://www.w3.org/Graphics/SVG/1.1/DTD/svg11.dtd">
<svg version="1.1" id="Layer_2" xmlns="http://www.w3.org/2000/svg" xmlns:xlink="http://www.w3.org/1999/xlink" x="0px" y="0px"
	 width="60px" height="60px" viewBox="0 0 60 60" enable-background="new 0 0 60 60" xml:space="preserve">
<path fill="#010101" d="M60,30c0-2.279-1.275-4.305-3.204-5.329c1.389-1.685,1.793-4.046,0.922-6.151
	c-0.863-2.083-2.788-3.488-5.002-3.697c0.641-2.088,0.11-4.423-1.503-6.037c-1.138-1.139-2.651-1.766-4.262-1.766
	c-0.607,0-1.203,0.09-1.771,0.264c-0.209-2.173-1.593-4.126-3.7-4.999c-2.067-0.857-4.491-0.454-6.151,0.919
	C34.304,1.275,32.278,0,30,0c-2.278,0-4.304,1.275-5.329,3.205c-1.657-1.372-4.08-1.776-6.153-0.92
	c-2.104,0.871-3.487,2.825-3.695,5c-0.569-0.174-1.165-0.264-1.771-0.264c-1.61,0-3.125,0.628-4.264,1.767
	c-1.611,1.61-2.142,3.945-1.502,6.035c-2.212,0.209-4.136,1.614-5,3.698c-0.871,2.103-0.469,4.463,0.921,6.149
	C1.276,25.694,0,27.721,0,30c0,2.278,1.276,4.305,3.205,5.331c-1.39,1.684-1.793,4.044-0.922,6.151
	c0.863,2.083,2.789,3.487,5.003,3.697c-0.64,2.088-0.109,4.424,1.501,6.036c1.14,1.139,2.653,1.766,4.264,1.766
	c0.606,0,1.202-0.089,1.771-0.264c0.209,2.174,1.594,4.129,3.699,5.002c2.066,0.857,4.493,0.453,6.15-0.92
	C25.697,58.726,27.722,60,30,60c2.278,0,4.304-1.275,5.328-3.203c1.659,1.372,4.083,1.777,6.153,0.921
	c2.105-0.873,3.488-2.827,3.697-5.002c0.568,0.174,1.164,0.264,1.771,0.264c1.61,0,3.124-0.627,4.263-1.766
	c1.612-1.613,2.143-3.947,1.503-6.036c2.214-0.21,4.139-1.614,5.002-3.696c0.874-2.105,0.471-4.466-0.921-6.151
	C58.725,34.306,60,32.279,60,30z M39.757,17.6l-8.8,11.733V32h5c0.553,0,1,0.448,1,1c0,0.552-0.447,1-1,1h-5v4h5
	c0.553,0,1,0.448,1,1c0,0.552-0.447,1-1,1h-5v5c0,0.552-0.447,1-1,1c-0.553,0-1-0.448-1-1v-5h-5c-0.553,0-1-0.448-1-1
	c0-0.552,0.447-1,1-1h5v-4h-5c-0.553,0-1-0.448-1-1c0-0.552,0.447-1,1-1h5v-2.667l-8.8-11.733c-0.332-0.442-0.242-1.069,0.2-1.4
	c0.441-0.332,1.068-0.242,1.399,0.2l8.2,10.934l8.2-10.934c0.331-0.441,0.959-0.531,1.399-0.2
	C39.999,16.531,40.089,17.158,39.757,17.6z"/>
</svg>
