<?xml version="1.0" encoding="utf-8"?>
<!-- Generator: Adobe Illustrator 17.0.0, SVG Export Plug-In . SVG Version: 6.00 Build 0)  -->
<!DOCTYPE svg PUBLIC "-//W3C//DTD SVG 1.1//EN" "http://www.w3.org/Graphics/SVG/1.1/DTD/svg11.dtd">
<svg version="1.1" id="Layer_1" xmlns="http://www.w3.org/2000/svg" xmlns:xlink="http://www.w3.org/1999/xlink" x="0px" y="0px"
	 width="48px" height="48px" viewBox="0 0 48 48" enable-background="new 0 0 48 48" xml:space="preserve">
<g>
	<path fill="#010101" d="M23.323,38.798c0.192,0.176,0.434,0.264,0.677,0.264c0.241,0,0.482-0.086,0.673-0.26L35.735,28.74
		c0.208-0.19,0.327-0.458,0.327-0.74v-9.124c0-0.405-0.244-0.771-0.619-0.925c-0.373-0.154-0.805-0.068-1.091,0.22L28,24.573V9
		c0-0.552-0.447-1-1-1h-6c-0.553,0-1,0.448-1,1v15.545l-6.223-6.368c-0.284-0.292-0.718-0.381-1.092-0.228
		c-0.377,0.154-0.623,0.519-0.623,0.926V28c0,0.28,0.118,0.546,0.324,0.736L23.323,38.798z M14.062,21.329l6.223,6.369
		c0.282,0.291,0.715,0.381,1.092,0.228C21.754,27.772,22,27.407,22,27V10h4v17c0,0.405,0.244,0.771,0.619,0.925
		c0.373,0.154,0.805,0.068,1.091-0.22l6.352-6.402v6.255l-10.059,9.149l-9.941-9.146V21.329z"/>
	<path fill="#010101" d="M47,0H1C0.447,0,0,0.448,0,1v46c0,0.552,0.447,1,1,1h46c0.553,0,1-0.448,1-1V1C48,0.448,47.553,0,47,0z
		 M46,46H2V2h44V46z"/>
</g>
</svg>
