<?xml version="1.0" encoding="utf-8"?>
<!-- Generator: Adobe Illustrator 17.0.0, SVG Export Plug-In . SVG Version: 6.00 Build 0)  -->
<!DOCTYPE svg PUBLIC "-//W3C//DTD SVG 1.1//EN" "http://www.w3.org/Graphics/SVG/1.1/DTD/svg11.dtd">
<svg version="1.1" id="Layer_1" xmlns="http://www.w3.org/2000/svg" xmlns:xlink="http://www.w3.org/1999/xlink" x="0px" y="0px"
	 width="48px" height="48px" viewBox="0 0 48 48" enable-background="new 0 0 48 48" xml:space="preserve">
<g>
	<path fill="#010101" d="M24,0C10.767,0,0,10.766,0,23.999C0,37.233,10.767,48,24,48c13.233,0,24-10.767,24-24.001
		C48,10.766,37.233,0,24,0z M24,46C11.869,46,2,36.131,2,23.999C2,11.869,11.869,2,24,2s22,9.869,22,21.999
		C46,36.131,36.131,46,24,46z"/>
	<path fill="#010101" d="M36.529,16.464L24.038,32.363l-11.33-15.861c-0.321-0.45-0.946-0.555-1.395-0.233
		c-0.449,0.321-0.553,0.946-0.232,1.395l12.105,16.947c0.183,0.257,0.476,0.411,0.791,0.419c0.007,0,0.015,0,0.023,0
		c0.307,0,0.597-0.14,0.786-0.382L38.101,17.7c0.342-0.434,0.266-1.063-0.168-1.404C37.497,15.952,36.87,16.03,36.529,16.464z"/>
</g>
</svg>
