<?xml version="1.0" encoding="utf-8"?>
<!-- Generator: Adobe Illustrator 17.0.0, SVG Export Plug-In . SVG Version: 6.00 Build 0)  -->
<!DOCTYPE svg PUBLIC "-//W3C//DTD SVG 1.1//EN" "http://www.w3.org/Graphics/SVG/1.1/DTD/svg11.dtd">
<svg version="1.1" id="Layer_1" xmlns="http://www.w3.org/2000/svg" xmlns:xlink="http://www.w3.org/1999/xlink" x="0px" y="0px"
	 width="48px" height="48px" viewBox="0 0 48 48" enable-background="new 0 0 48 48" xml:space="preserve">
<path fill="#010101" d="M47.707,14.092l-13.8-13.8c-0.391-0.391-1.023-0.391-1.414,0l-20.76,20.76L1.707,11.026
	c-0.287-0.286-0.717-0.373-1.09-0.217C0.244,10.964,0,11.329,0,11.733V47c0,0.552,0.448,1,1,1h35.267
	c0.404,0,0.769-0.244,0.923-0.618c0.155-0.374,0.069-0.804-0.217-1.09L26.947,36.266l20.76-20.76
	C48.098,15.115,48.098,14.483,47.707,14.092z M24.826,35.56c-0.391,0.391-0.391,1.023,0,1.414L33.852,46H2V14.148l9.026,9.026
	c0.391,0.391,1.023,0.391,1.414,0L33.2,2.414L45.586,14.8L24.826,35.56z"/>
</svg>
