<?xml version="1.0" encoding="utf-8"?>
<!-- Generator: Adobe Illustrator 17.0.0, SVG Export Plug-In . SVG Version: 6.00 Build 0)  -->
<!DOCTYPE svg PUBLIC "-//W3C//DTD SVG 1.1//EN" "http://www.w3.org/Graphics/SVG/1.1/DTD/svg11.dtd">
<svg version="1.1" id="Layer_1" xmlns="http://www.w3.org/2000/svg" xmlns:xlink="http://www.w3.org/1999/xlink" x="0px" y="0px"
	 width="48px" height="48px" viewBox="0 0 48 48" enable-background="new 0 0 48 48" xml:space="preserve">
<g>
	<path fill="#010101" d="M24.001,0C10.767,0,0,10.767,0,24c0,13.233,10.767,24,24.001,24C37.234,48,48,37.233,48,24
		S37.234,0,24.001,0z M24.001,46C11.869,46,2,36.131,2,24S11.869,2,24.001,2C36.131,2,46,11.869,46,24S36.131,46,24.001,46z"/>
	<path fill="#010101" d="M15.638,24.037l15.861-11.33c0.449-0.32,0.553-0.945,0.232-1.394c-0.322-0.449-0.946-0.553-1.395-0.232
		L13.389,23.186c-0.257,0.183-0.411,0.476-0.419,0.791c-0.007,0.315,0.135,0.615,0.382,0.809l16.947,13.315
		c0.183,0.145,0.401,0.214,0.617,0.214c0.297,0,0.59-0.13,0.789-0.383c0.342-0.434,0.266-1.063-0.168-1.404L15.638,24.037z"/>
</g>
</svg>
