<?xml version="1.0" encoding="utf-8"?>
<!-- Generator: Adobe Illustrator 17.0.0, SVG Export Plug-In . SVG Version: 6.00 Build 0)  -->
<!DOCTYPE svg PUBLIC "-//W3C//DTD SVG 1.1//EN" "http://www.w3.org/Graphics/SVG/1.1/DTD/svg11.dtd">
<svg version="1.1" id="Layer_1" xmlns="http://www.w3.org/2000/svg" xmlns:xlink="http://www.w3.org/1999/xlink" x="0px" y="0px"
	 width="48px" height="48px" viewBox="0 0 48 48" enable-background="new 0 0 48 48" xml:space="preserve">
<path fill="#010101" d="M47.382,10.81c-0.375-0.154-0.804-0.069-1.09,0.217L36.266,21.053l-20.76-20.76
	c-0.391-0.391-1.023-0.391-1.414,0l-13.8,13.8c-0.391,0.391-0.391,1.023,0,1.414l20.76,20.76L11.026,46.293
	c-0.286,0.286-0.372,0.716-0.217,1.09C10.964,47.756,11.329,48,11.733,48H47c0.553,0,1-0.448,1-1V11.733
	C48,11.329,47.757,10.964,47.382,10.81z M46,46H14.147l9.027-9.026c0.391-0.391,0.391-1.023,0-1.414L2.414,14.8L14.8,2.414
	l20.76,20.76c0.391,0.391,1.023,0.391,1.414,0L46,14.148V46z"/>
</svg>
