<?xml version="1.0" encoding="utf-8"?>
<!-- Generator: Adobe Illustrator 17.0.0, SVG Export Plug-In . SVG Version: 6.00 Build 0)  -->
<!DOCTYPE svg PUBLIC "-//W3C//DTD SVG 1.1//EN" "http://www.w3.org/Graphics/SVG/1.1/DTD/svg11.dtd">
<svg version="1.1" id="Layer_1" xmlns="http://www.w3.org/2000/svg" xmlns:xlink="http://www.w3.org/1999/xlink" x="0px" y="0px"
	 width="48px" height="48px" viewBox="0 0 48 48" enable-background="new 0 0 48 48" xml:space="preserve">
<g>
	<path fill="#010101" d="M37.242,21.321c-1.119-1.12-3.105-1.162-4.271-0.093l-4.973,4.56L28,11.042c0-0.799-0.312-1.552-0.88-2.12
		s-1.321-0.88-2.12-0.88h-1.938c-1.654,0-3,1.346-3,3v14.827l-5.023-4.461c-1.171-1.039-3.174-0.978-4.28,0.128l-0.591,0.592
		c-0.567,0.567-0.876,1.32-0.87,2.122c0.006,0.801,0.326,1.551,0.901,2.11l11.324,10.996c0.574,0.557,1.339,0.864,2.155,0.864
		c0.797,0,1.549-0.295,2.118-0.83l11.973-11.256c0.586-0.552,0.916-1.296,0.928-2.096c0.013-0.8-0.294-1.555-0.863-2.124
		L37.242,21.321z M36.398,24.676L24.427,35.932c-0.399,0.375-1.118,0.368-1.51-0.012L11.593,24.924
		c-0.189-0.183-0.293-0.428-0.295-0.69c-0.002-0.262,0.1-0.508,0.285-0.694l0.591-0.592c0.201-0.201,0.491-0.316,0.796-0.316
		c0.281,0,0.545,0.097,0.744,0.27l5.191,4.61c0.487,0.432,0.987,0.651,1.488,0.651c0.832,0,1.672-0.64,1.672-2.07V11.042
		c0-0.551,0.449-1,1-1h1.938c0.265,0,0.516,0.104,0.705,0.294c0.19,0.19,0.294,0.441,0.294,0.706L26,26.062
		c0,1.423,0.829,2.06,1.652,2.06c0.505,0,1.009-0.227,1.497-0.675l5.175-4.745c0.402-0.37,1.119-0.353,1.504,0.032l0.591,0.593
		c0.183,0.183,0.282,0.424,0.278,0.679C36.693,24.26,36.587,24.499,36.398,24.676z"/>
	<path fill="#010101" d="M24,0C10.767,0,0,10.767,0,24c0,13.233,10.767,24,24,24c13.233,0,24-10.767,24-24S37.233,0,24,0z M24,46
		C11.869,46,2,36.131,2,24S11.869,2,24,2s22,9.869,22,22S36.131,46,24,46z"/>
</g>
</svg>
