<?xml version="1.0" encoding="utf-8"?>
<!-- Generator: Adobe Illustrator 17.0.0, SVG Export Plug-In . SVG Version: 6.00 Build 0)  -->
<!DOCTYPE svg PUBLIC "-//W3C//DTD SVG 1.1//EN" "http://www.w3.org/Graphics/SVG/1.1/DTD/svg11.dtd">
<svg version="1.1" id="Layer_1" xmlns="http://www.w3.org/2000/svg" xmlns:xlink="http://www.w3.org/1999/xlink" x="0px" y="0px"
	 width="48px" height="48px" viewBox="0 0 48 48" enable-background="new 0 0 48 48" xml:space="preserve">
<g>
	<path fill="#231F20" d="M27.88,23.293L7.259,2.672c-0.391-0.391-1.023-0.391-1.414,0L0.293,8.224c-0.391,0.391-0.391,1.023,0,1.414
		L14.655,24L0.293,38.362c-0.391,0.39-0.391,1.023,0,1.414l5.552,5.552c0.195,0.195,0.451,0.293,0.707,0.293
		s0.511-0.098,0.707-0.293L27.88,24.707C28.271,24.316,28.271,23.684,27.88,23.293z M6.552,43.207l-4.138-4.138l14.362-14.362
		c0.391-0.391,0.391-1.023,0-1.414L2.414,8.931l4.138-4.138L25.758,24L6.552,43.207z"/>
	<path fill="#231F20" d="M47.708,23.293L27.087,2.672c-0.391-0.391-1.023-0.391-1.414,0l-5.552,5.552
		c-0.391,0.391-0.391,1.023,0,1.414L34.482,24L20.12,38.362c-0.391,0.39-0.391,1.023,0,1.414l5.552,5.552
		c0.195,0.195,0.451,0.293,0.707,0.293c0.256,0,0.512-0.098,0.707-0.293l20.622-20.621C48.099,24.316,48.099,23.684,47.708,23.293z
		 M26.38,43.207l-4.138-4.138l14.361-14.362c0.391-0.391,0.391-1.023,0-1.414L22.241,8.931l4.138-4.138L45.586,24L26.38,43.207z"/>
</g>
</svg>
