<?xml version="1.0" encoding="utf-8"?>
<!-- Generator: Adobe Illustrator 17.0.0, SVG Export Plug-In . SVG Version: 6.00 Build 0)  -->
<!DOCTYPE svg PUBLIC "-//W3C//DTD SVG 1.1//EN" "http://www.w3.org/Graphics/SVG/1.1/DTD/svg11.dtd">
<svg version="1.1" id="Layer_1" xmlns="http://www.w3.org/2000/svg" xmlns:xlink="http://www.w3.org/1999/xlink" x="0px" y="0px"
	 width="48px" height="48px" viewBox="0 0 48 48" enable-background="new 0 0 48 48" xml:space="preserve">
<g>
	<path fill="#010101" d="M26.478,10.644c-1.135-1.101-3.122-1.117-4.274-0.034L10.232,21.866c-0.586,0.552-0.916,1.296-0.928,2.096
		c-0.012,0.8,0.294,1.555,0.863,2.124l0.591,0.593c1.118,1.117,3.104,1.162,4.271,0.093l4.973-4.56L20,36.958
		c0,0.799,0.312,1.552,0.88,2.12s1.321,0.88,2.12,0.88h2.062c1.655,0,3-1.346,3.001-3.001V22.154l4.902,4.421
		c1.165,1.05,3.169,0.998,4.276-0.111l0.591-0.592c0.567-0.567,0.876-1.32,0.87-2.122c-0.005-0.801-0.326-1.551-0.901-2.11
		L26.478,10.644z M36.417,24.458l-0.591,0.592c-0.386,0.384-1.117,0.404-1.522,0.039l-5.087-4.587
		c-0.488-0.439-0.99-0.662-1.493-0.662c-0.828,0-1.663,0.639-1.663,2.066v15.052c0,0.551-0.449,1-1,1h-2.062
		c-0.265,0-0.515-0.104-0.705-0.294C22.105,37.474,22,37.223,22,36.958l0.002-15.021c0-1.423-0.829-2.06-1.652-2.06
		c-0.505,0-1.009,0.227-1.498,0.675l-5.175,4.745c-0.4,0.367-1.122,0.35-1.504-0.032l-0.591-0.593
		c-0.183-0.183-0.282-0.424-0.278-0.679c0.004-0.254,0.11-0.493,0.299-0.67l11.97-11.256c0.399-0.374,1.118-0.368,1.51,0.012
		l11.324,10.995c0.189,0.183,0.293,0.428,0.295,0.69C36.704,24.026,36.603,24.272,36.417,24.458z"/>
	<path fill="#010101" d="M24,0C10.767,0,0,10.767,0,24c0,13.233,10.767,24,24,24c13.233,0,24-10.767,24-24S37.233,0,24,0z M24,46
		C11.869,46,2,36.131,2,24S11.869,2,24,2s22,9.869,22,22S36.131,46,24,46z"/>
</g>
</svg>
