<?xml version="1.0" encoding="utf-8"?>
<!-- Generator: Adobe Illustrator 17.0.0, SVG Export Plug-In . SVG Version: 6.00 Build 0)  -->
<!DOCTYPE svg PUBLIC "-//W3C//DTD SVG 1.1//EN" "http://www.w3.org/Graphics/SVG/1.1/DTD/svg11.dtd">
<svg version="1.1" id="Layer_1" xmlns="http://www.w3.org/2000/svg" xmlns:xlink="http://www.w3.org/1999/xlink" x="0px" y="0px"
	 width="48px" height="48px" viewBox="0 0 48 48" enable-background="new 0 0 48 48" xml:space="preserve">
<g>
	<rect x="8.083" y="25.778" fill="#010101" width="3.538" height="3.538"/>
	<rect x="15.159" y="25.773" fill="#010101" width="3.538" height="3.538"/>
	<rect x="22.235" y="25.769" fill="#010101" width="3.538" height="3.538"/>
	<rect x="22.24" y="32.845" fill="#010101" width="3.538" height="3.538"/>
	<rect x="29.315" y="32.839" fill="#010101" width="3.538" height="3.538"/>
	<rect x="22.245" y="39.921" fill="#010101" width="3.538" height="3.538"/>
	<rect x="29.311" y="25.763" fill="#010101" width="3.538" height="3.538"/>
	<rect x="36.387" y="25.758" fill="#010101" width="3.538" height="3.538"/>
	<rect x="1.007" y="25.783" fill="#010101" width="3.538" height="3.538"/>
	<rect x="8.077" y="18.702" fill="#010101" width="3.538" height="3.538"/>
	<rect x="15.153" y="18.698" fill="#010101" width="3.538" height="3.538"/>
	<rect x="22.229" y="18.693" fill="#010101" width="3.538" height="3.538"/>
	<rect x="29.305" y="18.687" fill="#010101" width="3.538" height="3.538"/>
	<rect x="22.225" y="11.617" fill="#010101" width="3.538" height="3.538"/>
	<rect x="22.22" y="4.541" fill="#010101" width="3.538" height="3.538"/>
	<rect x="29.301" y="11.611" fill="#010101" width="3.539" height="3.538"/>
	<rect x="36.381" y="18.682" fill="#010101" width="3.538" height="3.538"/>
	<rect x="43.46" y="22.215" fill="#010101" width="3.538" height="3.538"/>
	<rect x="1.001" y="18.707" fill="#010101" width="3.538" height="3.538"/>
</g>
</svg>
