<?xml version="1.0" encoding="utf-8"?>
<!-- Generator: Adobe Illustrator 17.0.0, SVG Export Plug-In . SVG Version: 6.00 Build 0)  -->
<!DOCTYPE svg PUBLIC "-//W3C//DTD SVG 1.1//EN" "http://www.w3.org/Graphics/SVG/1.1/DTD/svg11.dtd">
<svg version="1.1" id="Layer_1" xmlns="http://www.w3.org/2000/svg" xmlns:xlink="http://www.w3.org/1999/xlink" x="0px" y="0px"
	 width="48px" height="48px" viewBox="0 0 48 48" enable-background="new 0 0 48 48" xml:space="preserve">
<g>
	<path fill="#010101" d="M39.039,20.053H22.448l6.256-6.33c0.387-0.391,0.385-1.021-0.004-1.41L24.707,8.32
		c-0.391-0.391-1.023-0.391-1.414,0L8.319,23.293C8.131,23.48,8.026,23.735,8.026,24s0.106,0.52,0.293,0.707L23.293,39.68
		c0.195,0.195,0.451,0.293,0.707,0.293s0.512-0.098,0.707-0.292l3.993-3.993c0.187-0.187,0.293-0.442,0.293-0.707
		c0-0.265-0.105-0.519-0.293-0.707l-6.232-6.232h16.571c0.553,0,1-0.448,1-1v-5.989C40.039,20.501,39.592,20.053,39.039,20.053z
		 M38.039,26.041H20.054c-0.404,0-0.77,0.243-0.924,0.617c-0.155,0.374-0.069,0.804,0.217,1.09l7.232,7.232L24,37.559L10.44,24
		L24,10.441l2.583,2.583l-7.24,7.325c-0.284,0.287-0.367,0.716-0.212,1.088c0.155,0.373,0.52,0.615,0.923,0.615h17.985V26.041z"/>
	<path fill="#010101" d="M24,0.002C10.767,0.002,0,10.767,0,24c0,13.233,10.767,23.999,24,23.999c13.233,0,24-10.765,24-23.998
		C48,10.768,37.233,0.002,24,0.002z M24,45.999C11.869,45.999,2,36.13,2,24S11.869,2.001,24,2.001S46,11.87,46,24
		S36.131,45.999,24,45.999z"/>
</g>
</svg>
