<?xml version="1.0" encoding="utf-8"?>
<!-- Generator: Adobe Illustrator 17.0.0, SVG Export Plug-In . SVG Version: 6.00 Build 0)  -->
<!DOCTYPE svg PUBLIC "-//W3C//DTD SVG 1.1//EN" "http://www.w3.org/Graphics/SVG/1.1/DTD/svg11.dtd">
<svg version="1.1" id="Layer_1" xmlns="http://www.w3.org/2000/svg" xmlns:xlink="http://www.w3.org/1999/xlink" x="0px" y="0px"
	 width="48px" height="48px" viewBox="0 0 48 48" enable-background="new 0 0 48 48" xml:space="preserve">
<g>
	<path fill="#010101" d="M19.26,35.735c0.19,0.208,0.458,0.327,0.74,0.327h9.125c0.405,0,0.77-0.244,0.924-0.618
		c0.155-0.375,0.068-0.805-0.22-1.091L23.427,28H39c0.552,0,1-0.448,1-1v-6c0-0.552-0.448-1-1-1H23.455l6.368-6.222
		c0.291-0.284,0.381-0.717,0.228-1.093c-0.154-0.377-0.519-0.623-0.926-0.623H20c-0.28,0-0.547,0.117-0.736,0.323L9.202,23.323
		c-0.351,0.381-0.353,0.967-0.004,1.35L19.26,35.735z M20.44,14.062h6.231l-6.369,6.222c-0.291,0.284-0.381,0.717-0.228,1.093
		C20.227,21.754,20.593,22,21,22h17v4H21c-0.405,0-0.771,0.245-0.925,0.618c-0.155,0.375-0.068,0.805,0.22,1.091l6.402,6.353h-6.255
		l-9.148-10.059L20.44,14.062z"/>
	<path fill="#010101" d="M47,0H1C0.448,0,0,0.448,0,1v46c0,0.552,0.448,1,1,1h46c0.552,0,1-0.448,1-1V1C48,0.448,47.552,0,47,0z
		 M46,46H2V2h44V46z"/>
</g>
</svg>
