<?xml version="1.0" encoding="utf-8"?>
<!-- Generator: Adobe Illustrator 17.0.0, SVG Export Plug-In . SVG Version: 6.00 Build 0)  -->
<!DOCTYPE svg PUBLIC "-//W3C//DTD SVG 1.1//EN" "http://www.w3.org/Graphics/SVG/1.1/DTD/svg11.dtd">
<svg version="1.1" id="Layer_1" xmlns="http://www.w3.org/2000/svg" xmlns:xlink="http://www.w3.org/1999/xlink" x="0px" y="0px"
	 width="48px" height="48px" viewBox="0 0 48 48" enable-background="new 0 0 48 48" xml:space="preserve">
<g>
	<path fill="#010101" d="M47,0H1C0.447,0,0,0.447,0,1v46c0,0.553,0.447,1,1,1h46c0.553,0,1-0.447,1-1V1C48,0.447,47.553,0,47,0z
		 M46,46H2V2h44V46z"/>
	<rect x="38" y="38" fill="#010101" width="3" height="3"/>
	<rect x="32" y="38" fill="#010101" width="3" height="3"/>
	<rect x="26" y="38" fill="#010101" width="3" height="3"/>
	<rect x="20" y="38" fill="#010101" width="3" height="3"/>
	<rect x="32" y="32" fill="#010101" width="3" height="3"/>
	<rect x="26" y="32" fill="#010101" width="3" height="3"/>
	<rect x="20" y="32" fill="#010101" width="3" height="3"/>
	<rect x="32" y="26" fill="#010101" width="3" height="3"/>
	<rect x="26" y="26" fill="#010101" width="3" height="3"/>
	<rect x="20" y="26" fill="#010101" width="3" height="3"/>
	<rect x="14" y="38" fill="#010101" width="3" height="3"/>
	<rect x="20" y="14" fill="#010101" width="3" height="3"/>
	<rect x="14" y="14" fill="#010101" width="3" height="3"/>
	<rect x="8" y="14" fill="#010101" width="3" height="3"/>
	<rect x="14" y="8" fill="#010101" width="3" height="3"/>
	<rect x="32" y="20" fill="#010101" width="3" height="3"/>
	<rect x="26" y="20" fill="#010101" width="3" height="3"/>
	<rect x="20" y="20" fill="#010101" width="3" height="3"/>
	<rect x="14" y="20" fill="#010101" width="3" height="3"/>
	<rect x="38" y="14" fill="#010101" width="3" height="3"/>
	<rect x="38" y="20" fill="#010101" width="3" height="3"/>
	<rect x="38" y="26" fill="#010101" width="3" height="3"/>
	<rect x="38" y="32" fill="#010101" width="3" height="3"/>
</g>
</svg>
