<?xml version="1.0" encoding="utf-8"?>
<!-- Generator: Adobe Illustrator 17.0.0, SVG Export Plug-In . SVG Version: 6.00 Build 0)  -->
<!DOCTYPE svg PUBLIC "-//W3C//DTD SVG 1.1//EN" "http://www.w3.org/Graphics/SVG/1.1/DTD/svg11.dtd">
<svg version="1.1" id="Layer_1" xmlns="http://www.w3.org/2000/svg" xmlns:xlink="http://www.w3.org/1999/xlink" x="0px" y="0px"
	 width="48px" height="48px" viewBox="0 0 48 48" enable-background="new 0 0 48 48" xml:space="preserve">
<path fill="#010101" d="M47.711,23.292l-21.85-21.85c-0.391-0.391-1.023-0.391-1.414,0l-6.9,6.9
	c-0.381,0.381-0.392,0.995-0.025,1.389l7.726,8.297L0.997,18c0,0,0,0-0.001,0c-0.265,0-0.519,0.105-0.706,0.292
	C0.101,18.48-0.004,18.734-0.004,19v10.077c0,0.552,0.448,1,1,1h24.16l-7.633,8.191c-0.368,0.394-0.357,1.008,0.024,1.389l6.9,6.9
	c0.195,0.195,0.451,0.293,0.707,0.293s0.511-0.098,0.707-0.294l21.85-21.85C48.102,24.315,48.102,23.683,47.711,23.292z
	 M25.154,44.436l-5.51-5.51l8.541-9.165c0.272-0.291,0.345-0.716,0.186-1.081c-0.159-0.365-0.519-0.601-0.917-0.601H1.996v-8.077
	l25.551,0.03h0.001c0.398,0,0.758-0.236,0.917-0.601c0.159-0.365,0.086-0.789-0.185-1.081l-8.636-9.275l5.51-5.511L45.59,24
	L25.154,44.436z"/>
</svg>
