<?xml version="1.0" encoding="utf-8"?>
<!-- Generator: Adobe Illustrator 17.0.0, SVG Export Plug-In . SVG Version: 6.00 Build 0)  -->
<!DOCTYPE svg PUBLIC "-//W3C//DTD SVG 1.1//EN" "http://www.w3.org/Graphics/SVG/1.1/DTD/svg11.dtd">
<svg version="1.1" id="Layer_1" xmlns="http://www.w3.org/2000/svg" xmlns:xlink="http://www.w3.org/1999/xlink" x="0px" y="0px"
	 width="48px" height="48px" viewBox="0 0 48 48" enable-background="new 0 0 48 48" xml:space="preserve">
<g>
	<path fill="#010101" d="M35.739,11.117L24.916,0.293c-0.385-0.386-1.008-0.39-1.4-0.013l-11.24,10.824
		c-0.197,0.188-0.307,0.448-0.307,0.72v10.823c0,0.4,0.239,0.763,0.608,0.92c0.369,0.157,0.797,0.078,1.085-0.2l10.533-10.142
		l10.13,10.129c0.191,0.191,0.447,0.293,0.707,0.293c0.129,0,0.259-0.025,0.383-0.076c0.374-0.155,0.617-0.52,0.617-0.924V11.824
		C36.032,11.559,35.927,11.305,35.739,11.117z M34.032,20.233l-9.116-9.116c-0.385-0.386-1.008-0.39-1.4-0.013l-9.547,9.192v-8.047
		l10.226-9.848l9.837,9.837V20.233z"/>
	<path fill="#010101" d="M24.916,19.235c-0.385-0.386-1.008-0.39-1.4-0.013l-11.24,10.823c-0.197,0.188-0.307,0.448-0.307,0.72
		v8.118c0,0.4,0.239,0.763,0.608,0.92c0.369,0.157,0.797,0.078,1.085-0.2l10.533-10.144l10.13,10.13
		c0.191,0.191,0.447,0.293,0.707,0.293c0.129,0,0.259-0.025,0.383-0.075c0.374-0.155,0.617-0.52,0.617-0.924v-8.118
		c0-0.265-0.105-0.519-0.293-0.707L24.916,19.235z M34.032,36.468l-9.116-9.117c-0.385-0.386-1.008-0.391-1.4-0.013l-9.547,9.193
		V31.19l10.226-9.848l9.837,9.836V36.468z"/>
	<path fill="#010101" d="M24.914,35.469c-0.385-0.386-1.008-0.39-1.4-0.013L12.274,46.28c-0.398,0.383-0.41,1.016-0.027,1.414
		C12.444,47.897,12.706,48,12.968,48c0.25,0,0.5-0.093,0.693-0.28l10.532-10.143l10.13,10.13c0.391,0.391,1.023,0.391,1.414,0
		c0.391-0.391,0.391-1.023,0-1.414L24.914,35.469z"/>
</g>
</svg>
