<?xml version="1.0" encoding="utf-8"?>
<!-- Generator: Adobe Illustrator 17.0.0, SVG Export Plug-In . SVG Version: 6.00 Build 0)  -->
<!DOCTYPE svg PUBLIC "-//W3C//DTD SVG 1.1//EN" "http://www.w3.org/Graphics/SVG/1.1/DTD/svg11.dtd">
<svg version="1.1" id="Layer_1" xmlns="http://www.w3.org/2000/svg" xmlns:xlink="http://www.w3.org/1999/xlink" x="0px" y="0px"
	 width="48px" height="48px" viewBox="0 0 48 48" enable-background="new 0 0 48 48" xml:space="preserve">
<path fill="#010101" d="M47,7.979H35.062c-0.553,0-1,0.448-1,1v14.055L11.776,0.341c-0.187-0.19-0.442-0.298-0.709-0.299
	c-0.285-0.013-0.524,0.104-0.712,0.293L0.293,10.397C0.103,10.586-0.002,10.843,0,11.11c0.002,0.267,0.11,0.523,0.302,0.71
	l22.679,22.138H8.937c-0.553,0-1,0.448-1,1v12c0,0.552,0.447,1,1,1H47c0.553,0,1-0.447,1-1V8.979C48,8.427,47.553,7.979,47,7.979z
	 M46,45.958H9.938v-10h15.5c0.407,0,0.773-0.246,0.926-0.623c0.153-0.377,0.063-0.809-0.228-1.093L2.423,11.095l8.633-8.633
	L34.348,26.18c0.286,0.29,0.717,0.377,1.093,0.225c0.376-0.154,0.621-0.52,0.621-0.926v-15.5H46V45.958z"/>
</svg>
