<?xml version="1.0" encoding="utf-8"?>
<!-- Generator: Adobe Illustrator 17.0.0, SVG Export Plug-In . SVG Version: 6.00 Build 0)  -->
<!DOCTYPE svg PUBLIC "-//W3C//DTD SVG 1.1//EN" "http://www.w3.org/Graphics/SVG/1.1/DTD/svg11.dtd">
<svg version="1.1" id="Layer_1" xmlns="http://www.w3.org/2000/svg" xmlns:xlink="http://www.w3.org/1999/xlink" x="0px" y="0px"
	 width="48px" height="48px" viewBox="0 0 48 48" enable-background="new 0 0 48 48" xml:space="preserve">
<g>
	<path fill="#231F20" d="M23.293,27.861c0.195,0.195,0.451,0.293,0.707,0.293s0.512-0.098,0.707-0.293l20.5-20.5
		C45.394,7.173,45.5,6.919,45.5,6.654s-0.106-0.52-0.293-0.707l-5.52-5.519c-0.39-0.391-1.023-0.391-1.414,0L24,14.701L9.726,0.428
		c-0.391-0.391-1.023-0.391-1.414,0L2.793,5.947C2.605,6.135,2.5,6.389,2.5,6.654s0.105,0.519,0.293,0.707L23.293,27.861z
		 M9.019,2.549l14.274,14.273c0.391,0.391,1.023,0.391,1.414,0L38.98,2.549l4.106,4.105L24,25.74L4.914,6.654L9.019,2.549z"/>
	<path fill="#231F20" d="M39.687,20.14c-0.39-0.391-1.023-0.391-1.414,0L24,34.413L9.726,20.139c-0.391-0.391-1.023-0.391-1.414,0
		l-5.519,5.519C2.605,25.845,2.5,26.1,2.5,26.365s0.105,0.52,0.293,0.707l20.5,20.5c0.195,0.195,0.451,0.293,0.707,0.293
		s0.512-0.097,0.707-0.292l20.5-20.5c0.187-0.187,0.293-0.442,0.293-0.707c0-0.265-0.106-0.519-0.293-0.707L39.687,20.14z
		 M24,45.451L4.914,26.365l4.105-4.105l14.274,14.274c0.391,0.391,1.023,0.391,1.414,0L38.98,22.26l4.106,4.105L24,45.451z"/>
</g>
</svg>
