<?xml version="1.0" encoding="utf-8"?>
<!-- Generator: Adobe Illustrator 17.0.0, SVG Export Plug-In . SVG Version: 6.00 Build 0)  -->
<!DOCTYPE svg PUBLIC "-//W3C//DTD SVG 1.1//EN" "http://www.w3.org/Graphics/SVG/1.1/DTD/svg11.dtd">
<svg version="1.1" id="Layer_1" xmlns="http://www.w3.org/2000/svg" xmlns:xlink="http://www.w3.org/1999/xlink" x="0px" y="0px"
	 width="48px" height="48px" viewBox="0 0 48 48" enable-background="new 0 0 48 48" xml:space="preserve">
<g>
	<path fill="#010101" d="M29.424,8.094c-0.352-0.164-0.766-0.111-1.064,0.137l-18,15C10.132,23.422,10,23.703,10,24
		s0.132,0.578,0.36,0.769l18,15C28.543,39.921,28.77,40,29,40c0.144,0,0.289-0.031,0.424-0.095C29.775,39.741,30,39.388,30,39v-8
		c0-0.309-0.143-0.6-0.386-0.789L21.629,24l7.985-6.211C29.857,17.6,30,17.309,30,17V9C30,8.612,29.775,8.259,29.424,8.094z
		 M28,16.511l-8.614,6.7C19.143,23.4,19,23.691,19,24s0.143,0.6,0.386,0.789l8.614,6.7v5.376L12.562,24L28,11.135V16.511z"/>
	<path fill="#010101" d="M24,0C10.767,0,0,10.767,0,24c0,13.233,10.767,24,24,24c13.233,0,24-10.767,24-24S37.233,0,24,0z M24,46
		C11.869,46,2,36.131,2,24S11.869,2,24,2s22,9.869,22,22S36.131,46,24,46z"/>
</g>
</svg>
