<?xml version="1.0" encoding="utf-8"?>
<!-- Generator: Adobe Illustrator 17.0.0, SVG Export Plug-In . SVG Version: 6.00 Build 0)  -->
<!DOCTYPE svg PUBLIC "-//W3C//DTD SVG 1.1//EN" "http://www.w3.org/Graphics/SVG/1.1/DTD/svg11.dtd">
<svg version="1.1" id="Layer_1" xmlns="http://www.w3.org/2000/svg" xmlns:xlink="http://www.w3.org/1999/xlink" x="0px" y="0px"
	 width="48px" height="48px" viewBox="0 0 48 48" enable-background="new 0 0 48 48" xml:space="preserve">
<g>
	<path fill="#010101" d="M33.502,11.135c-0.308-0.179-0.688-0.18-0.998-0.003l-21,12C11.192,23.31,11,23.642,11,24
		s0.192,0.69,0.504,0.868l21,12C32.657,36.956,32.829,37,33,37c0.174,0,0.347-0.045,0.502-0.135C33.81,36.686,34,36.356,34,36V12
		C34,11.644,33.81,11.314,33.502,11.135z M32,34.276L14.016,24L32,13.724V34.276z"/>
	<path fill="#010101" d="M24,0C10.767,0,0,10.767,0,24c0,13.233,10.767,24,24,24c13.233,0,24-10.767,24-24S37.233,0,24,0z M24,46
		C11.869,46,2,36.131,2,24S11.869,2,24,2s22,9.869,22,22S36.131,46,24,46z"/>
</g>
</svg>
