<?xml version="1.0" encoding="utf-8"?>
<!-- Generator: Adobe Illustrator 17.0.0, SVG Export Plug-In . SVG Version: 6.00 Build 0)  -->
<!DOCTYPE svg PUBLIC "-//W3C//DTD SVG 1.1//EN" "http://www.w3.org/Graphics/SVG/1.1/DTD/svg11.dtd">
<svg version="1.1" id="Layer_1" xmlns="http://www.w3.org/2000/svg" xmlns:xlink="http://www.w3.org/1999/xlink" x="0px" y="0px"
	 width="48px" height="48px" viewBox="0 0 48 48" enable-background="new 0 0 48 48" xml:space="preserve">
<path fill="#010101" d="M20.36,23.998L40.282,6.924c0.419-0.36,0.467-0.991,0.108-1.41L35.964,0.35
	c-0.36-0.421-0.991-0.468-1.41-0.109L7.719,23.238c-0.221,0.191-0.349,0.468-0.349,0.76s0.127,0.569,0.349,0.759L34.554,47.76
	c0.182,0.156,0.413,0.241,0.651,0.241c0.025,0,0.051-0.001,0.075-0.003c0.265-0.021,0.511-0.145,0.683-0.347l4.426-5.164
	c0.36-0.419,0.311-1.05-0.108-1.409L20.36,23.998z M35.096,45.591L9.906,23.998l25.19-21.587l3.124,3.646L18.173,23.238
	c-0.221,0.191-0.349,0.468-0.349,0.76s0.127,0.569,0.349,0.759L38.22,41.945L35.096,45.591z"/>
</svg>
