<?xml version="1.0" encoding="utf-8"?>
<!-- Generator: Adobe Illustrator 17.0.0, SVG Export Plug-In . SVG Version: 6.00 Build 0)  -->
<!DOCTYPE svg PUBLIC "-//W3C//DTD SVG 1.1//EN" "http://www.w3.org/Graphics/SVG/1.1/DTD/svg11.dtd">
<svg version="1.1" id="Layer_1" xmlns="http://www.w3.org/2000/svg" xmlns:xlink="http://www.w3.org/1999/xlink" x="0px" y="0px"
	 width="48px" height="48px" viewBox="0 0 48 48" enable-background="new 0 0 48 48" xml:space="preserve">
<g>
	<path fill="#010101" d="M12.556,30.049c0.373,0.154,0.804,0.068,1.091-0.22L20,23.427V39c0,0.552,0.448,1,1,1h6
		c0.552,0,1-0.448,1-1V23.455l6.221,6.368c0.285,0.292,0.717,0.382,1.093,0.228c0.377-0.154,0.623-0.519,0.623-0.926V20
		c0-0.28-0.117-0.547-0.323-0.736L24.677,9.202c-0.381-0.351-0.967-0.352-1.35-0.004L12.264,19.26
		c-0.208,0.19-0.327,0.458-0.327,0.74v9.124C11.937,29.529,12.181,29.895,12.556,30.049z M13.938,20.443l10.059-9.149l9.941,9.146
		v6.231l-6.222-6.369c-0.284-0.291-0.718-0.381-1.093-0.228C26.246,20.228,26,20.593,26,21v17h-4V21
		c0-0.405-0.245-0.771-0.618-0.924c-0.374-0.154-0.805-0.068-1.091,0.22l-6.353,6.402V20.443z"/>
	<path fill="#010101" d="M47,0H1C0.448,0,0,0.448,0,1v46c0,0.552,0.448,1,1,1h46c0.552,0,1-0.448,1-1V1C48,0.448,47.552,0,47,0z
		 M46,46H2V2h44V46z"/>
</g>
</svg>
