<?xml version="1.0" encoding="utf-8"?>
<!-- Generator: Adobe Illustrator 17.0.0, SVG Export Plug-In . SVG Version: 6.00 Build 0)  -->
<!DOCTYPE svg PUBLIC "-//W3C//DTD SVG 1.1//EN" "http://www.w3.org/Graphics/SVG/1.1/DTD/svg11.dtd">
<svg version="1.1" id="Layer_1" xmlns="http://www.w3.org/2000/svg" xmlns:xlink="http://www.w3.org/1999/xlink" x="0px" y="0px"
	 width="48px" height="48px" viewBox="0 0 48 48" enable-background="new 0 0 48 48" xml:space="preserve">
<g>
	<path fill="#010101" d="M39.68,23.293L24.707,8.32c-0.391-0.391-1.023-0.391-1.414,0L8.32,23.293c-0.391,0.391-0.391,1.023,0,1.414
		l3.993,3.993c0.391,0.391,1.023,0.391,1.414,0l6.279-6.279v16.634c0,0.552,0.448,1,1,1h5.989c0.552,0,1-0.448,1-1V22.422
		l6.279,6.278c0.391,0.391,1.023,0.391,1.414,0l3.992-3.993C40.071,24.316,40.071,23.684,39.68,23.293z M34.98,26.578L27.701,19.3
		c-0.287-0.286-0.716-0.373-1.09-0.217c-0.373,0.155-0.617,0.52-0.617,0.924v18.048h-3.988V20.008c0-0.404-0.244-0.769-0.617-0.924
		c-0.374-0.155-0.804-0.07-1.09,0.217l-7.279,7.278L10.441,24L24,10.441L37.559,24L34.98,26.578z"/>
	<path fill="#010101" d="M24,0C10.767,0,0.001,10.767,0.001,24c0,13.233,10.766,24,23.999,24c13.233,0,23.999-10.767,23.999-24
		S37.233,0,24,0z M24,46C11.87,46,2.001,36.131,2.001,24S11.87,2,24,2s21.999,9.869,21.999,22S36.13,46,24,46z"/>
</g>
</svg>
