<?xml version="1.0" encoding="utf-8"?>
<!-- Generator: Adobe Illustrator 17.0.0, SVG Export Plug-In . SVG Version: 6.00 Build 0)  -->
<!DOCTYPE svg PUBLIC "-//W3C//DTD SVG 1.1//EN" "http://www.w3.org/Graphics/SVG/1.1/DTD/svg11.dtd">
<svg version="1.1" id="Layer_1" xmlns="http://www.w3.org/2000/svg" xmlns:xlink="http://www.w3.org/1999/xlink" x="0px" y="0px"
	 width="48px" height="48px" viewBox="0 0 48 48" enable-background="new 0 0 48 48" xml:space="preserve">
<g>
	<path fill="#010101" d="M47.75,23.339l-15-17C32.56,6.123,32.287,6,32,6H1C0.448,6,0,6.447,0,7v34c0,0.553,0.448,1,1,1h31
		c0.287,0,0.56-0.123,0.75-0.339l15-17C48.083,24.283,48.083,23.717,47.75,23.339z M31.549,40H2V8h29.549l14.118,16L31.549,40z"/>
	<path fill="#010101" d="M26.707,15.293c-0.391-0.391-1.023-0.391-1.414,0L18,22.586l-7.293-7.293c-0.391-0.391-1.023-0.391-1.414,0
		c-0.391,0.391-0.391,1.023,0,1.414L16.586,24l-7.293,7.293c-0.391,0.391-0.391,1.023,0,1.414C9.488,32.902,9.744,33,10,33
		s0.512-0.098,0.707-0.293L18,25.414l7.293,7.293C25.488,32.902,25.744,33,26,33s0.512-0.098,0.707-0.293
		c0.391-0.391,0.391-1.023,0-1.414L19.414,24l7.293-7.293C27.098,16.316,27.098,15.684,26.707,15.293z"/>
</g>
</svg>
