<?xml version="1.0" encoding="utf-8"?>
<!-- Generator: Adobe Illustrator 17.0.0, SVG Export Plug-In . SVG Version: 6.00 Build 0)  -->
<!DOCTYPE svg PUBLIC "-//W3C//DTD SVG 1.1//EN" "http://www.w3.org/Graphics/SVG/1.1/DTD/svg11.dtd">
<svg version="1.1" id="Layer_1" xmlns="http://www.w3.org/2000/svg" xmlns:xlink="http://www.w3.org/1999/xlink" x="0px" y="0px"
	 width="48px" height="48px" viewBox="0 0 48 48" enable-background="new 0 0 48 48" xml:space="preserve">
<g>
	<path fill="#010101" d="M9,28h15.545l-6.368,6.222c-0.291,0.284-0.381,0.717-0.228,1.093c0.153,0.377,0.519,0.623,0.926,0.623H28
		c0.28,0,0.546-0.118,0.736-0.323l10.062-10.937c0.351-0.381,0.353-0.967,0.004-1.35L28.74,12.265
		c-0.19-0.208-0.458-0.327-0.74-0.327h-9.124c-0.405,0-0.771,0.245-0.925,0.619c-0.155,0.375-0.068,0.805,0.22,1.091L24.573,20H9
		c-0.552,0-1,0.448-1,1v6C8,27.552,8.448,28,9,28z M10,22h17c0.405,0,0.77-0.245,0.925-0.618c0.155-0.375,0.068-0.805-0.22-1.091
		l-6.402-6.353h6.255l9.149,10.059l-9.146,9.941H21.33l6.368-6.222c0.291-0.284,0.381-0.717,0.228-1.093
		C27.772,26.246,27.407,26,27,26H10V22z"/>
	<path fill="#010101" d="M47,0H1C0.448,0,0,0.448,0,1v46c0,0.552,0.448,1,1,1h46c0.552,0,1-0.448,1-1V1C48,0.448,47.552,0,47,0z
		 M46,46H2V2h44V46z"/>
</g>
</svg>
