<?xml version="1.0" encoding="utf-8"?>
<!-- Generator: Adobe Illustrator 17.0.0, SVG Export Plug-In . SVG Version: 6.00 Build 0)  -->
<!DOCTYPE svg PUBLIC "-//W3C//DTD SVG 1.1//EN" "http://www.w3.org/Graphics/SVG/1.1/DTD/svg11.dtd">
<svg version="1.1" id="Layer_1" xmlns="http://www.w3.org/2000/svg" xmlns:xlink="http://www.w3.org/1999/xlink" x="0px" y="0px"
	 width="48px" height="48px" viewBox="0 0 48 48" enable-background="new 0 0 48 48" xml:space="preserve">
<path fill="#010101" d="M45.751,25.34l-22-25c-0.006-0.007-0.016-0.009-0.022-0.016C23.546,0.127,23.29,0,23,0
	c-0.29,0-0.546,0.127-0.729,0.324c-0.006,0.007-0.016,0.009-0.022,0.016l-22,25c-0.364,0.414-0.324,1.046,0.091,1.411
	c0.413,0.363,1.045,0.324,1.411-0.091L22,3.65V47c0,0.553,0.447,1,1,1s1-0.447,1-1V3.65l20.249,23.01C44.447,26.886,44.723,27,45,27
	c0.235,0,0.471-0.082,0.66-0.249C46.075,26.386,46.115,25.754,45.751,25.34z"/>
</svg>
