<?xml version="1.0" encoding="utf-8"?>
<!-- Generator: Adobe Illustrator 17.0.0, SVG Export Plug-In . SVG Version: 6.00 Build 0)  -->
<!DOCTYPE svg PUBLIC "-//W3C//DTD SVG 1.1//EN" "http://www.w3.org/Graphics/SVG/1.1/DTD/svg11.dtd">
<svg version="1.1" id="Layer_1" xmlns="http://www.w3.org/2000/svg" xmlns:xlink="http://www.w3.org/1999/xlink" x="0px" y="0px"
	 width="48px" height="48px" viewBox="0 0 48 48" enable-background="new 0 0 48 48" xml:space="preserve">
<g>
	<path fill="#010101" d="M7.03,35.314c-1.586,1.586-1.586,4.07,0,5.657c0.767,0.767,1.773,1.189,2.833,1.189
		c1.053,0,2.056-0.422,2.824-1.189c1.586-1.586,1.586-4.071,0-5.657C11.157,33.786,8.569,33.774,7.03,35.314z M11.273,39.557
		c-0.784,0.782-2.054,0.773-2.829,0c-0.806-0.807-0.806-2.022,0-2.829c0.389-0.389,0.89-0.604,1.41-0.604
		c0.525,0,1.029,0.214,1.419,0.604C12.079,37.535,12.079,38.75,11.273,39.557z"/>
	<path fill="#010101" d="M19.581,35.314c-1.587,1.586-1.587,4.071,0,5.657c0.767,0.767,1.773,1.189,2.833,1.189
		c1.053,0,2.056-0.422,2.824-1.189c1.585-1.587,1.585-4.071,0-5.657C23.708,33.783,21.119,33.774,19.581,35.314z M23.824,39.557
		c-0.784,0.782-2.054,0.773-2.829,0c-0.806-0.807-0.806-2.022,0-2.829c0.389-0.39,0.891-0.604,1.41-0.604
		c0.526,0,1.03,0.214,1.419,0.604C24.63,37.535,24.63,38.75,23.824,39.557z"/>
	<path fill="#010101" d="M31.072,35.314c-1.586,1.586-1.586,4.071,0,5.657c0.767,0.767,1.773,1.189,2.833,1.189
		c1.053,0,2.056-0.422,2.824-1.189c1.585-1.586,1.585-4.071,0-5.657C35.2,33.786,32.61,33.774,31.072,35.314z M35.314,39.557
		c-0.785,0.783-2.055,0.771-2.829,0c-0.806-0.807-0.806-2.022,0-2.829c0.39-0.389,0.89-0.604,1.41-0.604
		c0.526,0,1.03,0.214,1.419,0.604C36.12,37.535,36.12,38.75,35.314,39.557z"/>
	<path fill="#010101" d="M9.863,29.256c1.053,0,2.056-0.423,2.824-1.191c0.775-0.774,1.198-1.788,1.19-2.852
		c-0.008-1.05-0.431-2.045-1.19-2.804c-1.53-1.531-4.119-1.539-5.657,0c-0.775,0.774-1.198,1.788-1.19,2.853
		c0.008,1.048,0.431,2.043,1.19,2.803C7.797,28.833,8.803,29.256,9.863,29.256z M8.443,23.824c0.39-0.39,0.891-0.604,1.41-0.604
		c0.526,0,1.03,0.214,1.419,0.604c0.386,0.385,0.6,0.883,0.604,1.404c0.003,0.525-0.211,1.03-0.604,1.424
		c-0.785,0.783-2.055,0.773-2.829,0c-0.385-0.386-0.6-0.885-0.604-1.404C7.835,24.723,8.05,24.218,8.443,23.824z"/>
	<path fill="#010101" d="M9.863,17.942c1.053,0,2.056-0.422,2.824-1.19c1.586-1.585,1.586-4.07,0-5.657
		c-1.53-1.529-4.118-1.537-5.657,0c-1.586,1.586-1.586,4.07,0,5.657C7.797,17.519,8.803,17.942,9.863,17.942z M8.443,12.508
		c0.39-0.388,0.89-0.603,1.41-0.603c0.526,0,1.03,0.215,1.419,0.603c0.806,0.806,0.806,2.022,0,2.829
		c-0.785,0.784-2.055,0.774-2.829,0C7.637,14.531,7.637,13.315,8.443,12.508z"/>
	<path fill="#010101" d="M40.971,7.029c-1.529-1.529-4.119-1.539-5.657,0c-1.586,1.587-1.586,4.071,0,5.656
		c0.767,0.768,1.773,1.191,2.833,1.191c1.054,0,2.057-0.423,2.824-1.191C42.557,11.1,42.557,8.616,40.971,7.029z M39.557,11.272
		c-0.784,0.783-2.054,0.775-2.829,0c-0.806-0.806-0.806-2.021,0-2.828c0.389-0.389,0.89-0.604,1.41-0.604
		c0.526,0,1.029,0.214,1.419,0.604C40.363,9.251,40.363,10.466,39.557,11.272z"/>
	<path fill="#010101" d="M33.899,19.756c0.775-0.774,1.198-1.788,1.19-2.852c-0.008-1.05-0.431-2.045-1.19-2.804
		c-1.529-1.531-4.119-1.539-5.656,0c-0.775,0.774-1.198,1.788-1.19,2.853c0.008,1.049,0.431,2.044,1.19,2.803
		c0.767,0.768,1.773,1.191,2.833,1.191C32.129,20.947,33.132,20.524,33.899,19.756z M29.656,18.342
		c-0.385-0.385-0.6-0.883-0.604-1.404c-0.004-0.524,0.211-1.03,0.605-1.424c0.389-0.389,0.889-0.603,1.409-0.603
		c0.526,0,1.03,0.214,1.418,0.603c0.386,0.386,0.6,0.883,0.604,1.404c0.003,0.525-0.211,1.03-0.604,1.424
		C31.7,19.125,30.43,19.115,29.656,18.342z"/>
	<path fill="#010101" d="M21.172,21.171c-1.586,1.586-1.586,4.07,0,5.657c0.767,0.768,1.773,1.191,2.833,1.191
		c1.053,0,2.056-0.423,2.824-1.191c1.586-1.585,1.586-4.07,0-5.657C25.299,19.643,22.71,19.635,21.172,21.171z M25.415,25.414
		c-0.785,0.783-2.055,0.773-2.829,0c-0.806-0.807-0.806-2.022,0-2.829c0.389-0.389,0.89-0.604,1.41-0.604
		c0.525,0,1.029,0.215,1.419,0.604C26.221,23.391,26.221,24.607,25.415,25.414z"/>
	<path fill="#010101" d="M19.757,28.242c-1.529-1.529-4.118-1.537-5.656,0c-1.587,1.586-1.587,4.071,0,5.657
		c0.767,0.768,1.773,1.19,2.833,1.19c1.053,0,2.056-0.422,2.823-1.19C21.343,32.312,21.343,29.828,19.757,28.242z M18.343,32.486
		c-0.785,0.781-2.054,0.771-2.828,0c-0.806-0.807-0.806-2.022,0-2.829c0.389-0.389,0.889-0.604,1.409-0.604
		c0.526,0,1.03,0.215,1.419,0.604C19.149,30.463,19.149,31.679,18.343,32.486z"/>
</g>
</svg>
