<?xml version="1.0" encoding="utf-8"?>
<!-- Generator: Adobe Illustrator 17.0.0, SVG Export Plug-In . SVG Version: 6.00 Build 0)  -->
<!DOCTYPE svg PUBLIC "-//W3C//DTD SVG 1.1//EN" "http://www.w3.org/Graphics/SVG/1.1/DTD/svg11.dtd">
<svg version="1.1" id="Layer_1" xmlns="http://www.w3.org/2000/svg" xmlns:xlink="http://www.w3.org/1999/xlink" x="0px" y="0px"
	 width="48px" height="48px" viewBox="0 0 48 48" enable-background="new 0 0 48 48" xml:space="preserve">
<path fill="#010101" d="M46.556,24.446l-6.899-6.9c-0.38-0.38-0.992-0.391-1.387-0.026l-8.203,7.605V0.996c0-0.552-0.447-1-1-1
	h-10.01c-0.553,0-1,0.448-1,1v24.181l-8.331-7.659c-0.393-0.362-1.005-0.35-1.384,0.029l-6.899,6.9
	c-0.391,0.391-0.391,1.023,0,1.414l21.85,21.85c0.187,0.188,0.441,0.293,0.707,0.293s0.519-0.106,0.706-0.294l21.85-21.85
	C46.947,25.469,46.947,24.837,46.556,24.446z M24,45.59L3.564,25.154l5.513-5.514l9.302,8.551c0.292,0.268,0.714,0.339,1.079,0.179
	c0.364-0.16,0.598-0.519,0.598-0.916V1.996h8.01v25.42c0,0.398,0.236,0.758,0.6,0.917c0.364,0.159,0.788,0.088,1.08-0.183
	l9.177-8.508l5.512,5.512L24,45.59z"/>
</svg>
