<?xml version="1.0" encoding="utf-8"?>
<!-- Generator: Adobe Illustrator 17.0.0, SVG Export Plug-In . SVG Version: 6.00 Build 0)  -->
<!DOCTYPE svg PUBLIC "-//W3C//DTD SVG 1.1//EN" "http://www.w3.org/Graphics/SVG/1.1/DTD/svg11.dtd">
<svg version="1.1" id="Layer_1" xmlns="http://www.w3.org/2000/svg" xmlns:xlink="http://www.w3.org/1999/xlink" x="0px" y="0px"
	 width="48px" height="48px" viewBox="0 0 48 48" enable-background="new 0 0 48 48" xml:space="preserve">
<g>
	<path fill="#010101" d="M23.875,0c-2.243,0-4,1.757-4,4s1.757,4,4,4s4-1.757,4-4S26.118,0,23.875,0z M23.875,6c-1.14,0-2-0.859-2-2
		s0.86-2,2-2s2,0.859,2,2S25.015,6,23.875,6z"/>
	<path fill="#010101" d="M14.125,8c-2.243,0-4,1.757-4,4s1.757,4,4,4s4-1.757,4-4S16.368,8,14.125,8z M14.125,14
		c-1.14,0-2-0.859-2-2s0.86-2,2-2s2,0.859,2,2S15.265,14,14.125,14z"/>
	<path fill="#010101" d="M5.875,16c-2.243,0-4,1.757-4,4s1.757,4,4,4s4-1.757,4-4S8.118,16,5.875,16z M5.875,22c-1.14,0-2-0.859-2-2
		s0.86-2,2-2s2,0.859,2,2S7.015,22,5.875,22z"/>
	<path fill="#010101" d="M34.125,8c-2.243,0-4,1.757-4,4s1.757,4,4,4s4-1.757,4-4S36.368,8,34.125,8z M34.125,14
		c-1.14,0-2-0.859-2-2s0.86-2,2-2s2,0.859,2,2S35.265,14,34.125,14z"/>
	<path fill="#010101" d="M42.125,16c-2.243,0-4,1.757-4,4s1.757,4,4,4s4-1.757,4-4S44.368,16,42.125,16z M42.125,22
		c-1.14,0-2-0.859-2-2s0.86-2,2-2s2,0.859,2,2S43.265,22,42.125,22z"/>
	<path fill="#010101" d="M23.875,40c-2.243,0-4,1.757-4,4s1.757,4,4,4s4-1.757,4-4S26.118,40,23.875,40z M23.875,46
		c-1.14,0-2-0.859-2-2s0.86-2,2-2s2,0.859,2,2S25.015,46,23.875,46z"/>
	<path fill="#010101" d="M23.875,30c-2.243,0-4,1.757-4,4s1.757,4,4,4s4-1.757,4-4S26.118,30,23.875,30z M23.875,36
		c-1.14,0-2-0.859-2-2s0.86-2,2-2s2,0.859,2,2S25.015,36,23.875,36z"/>
	<path fill="#010101" d="M23.875,20c-2.243,0-4,1.757-4,4s1.757,4,4,4s4-1.757,4-4S26.118,20,23.875,20z M23.875,26
		c-1.14,0-2-0.859-2-2s0.86-2,2-2s2,0.859,2,2S25.015,26,23.875,26z"/>
	<path fill="#010101" d="M23.875,10c-2.243,0-4,1.757-4,4s1.757,4,4,4s4-1.757,4-4S26.118,10,23.875,10z M23.875,16
		c-1.14,0-2-0.859-2-2s0.86-2,2-2s2,0.859,2,2S25.015,16,23.875,16z"/>
</g>
</svg>
