<?xml version="1.0" encoding="utf-8"?>
<!-- Generator: Adobe Illustrator 17.0.0, SVG Export Plug-In . SVG Version: 6.00 Build 0)  -->
<!DOCTYPE svg PUBLIC "-//W3C//DTD SVG 1.1//EN" "http://www.w3.org/Graphics/SVG/1.1/DTD/svg11.dtd">
<svg version="1.1" id="Layer_1" xmlns="http://www.w3.org/2000/svg" xmlns:xlink="http://www.w3.org/1999/xlink" x="0px" y="0px"
	 width="48px" height="48px" viewBox="0 0 48 48" enable-background="new 0 0 48 48" xml:space="preserve">
<g>
	<path fill="#010101" d="M39.905,18.576C39.741,18.225,39.388,18,39,18h-8c-0.309,0-0.6,0.143-0.789,0.386L24,26.371l-6.211-7.985
		C17.6,18.143,17.309,18,17,18H9c-0.388,0-0.741,0.225-0.906,0.577c-0.165,0.35-0.111,0.765,0.137,1.064l15,18
		C23.422,37.868,23.703,38,24,38s0.578-0.132,0.768-0.36l15-18C40.016,19.342,40.07,18.927,39.905,18.576z M24,35.438L11.135,20
		h5.376l6.7,8.614c0.379,0.486,1.199,0.486,1.578,0l6.7-8.614h5.376L24,35.438z"/>
	<path fill="#010101" d="M24,0C10.767,0,0,10.767,0,24c0,13.233,10.767,24,24,24c13.233,0,24-10.767,24-24S37.233,0,24,0z M24,46
		C11.869,46,2,36.131,2,24S11.869,2,24,2s22,9.869,22,22S36.131,46,24,46z"/>
</g>
</svg>
