<?xml version="1.0" encoding="utf-8"?>
<!-- Generator: Adobe Illustrator 17.0.0, SVG Export Plug-In . SVG Version: 6.00 Build 0)  -->
<!DOCTYPE svg PUBLIC "-//W3C//DTD SVG 1.1//EN" "http://www.w3.org/Graphics/SVG/1.1/DTD/svg11.dtd">
<svg version="1.1" id="Layer_1" xmlns="http://www.w3.org/2000/svg" xmlns:xlink="http://www.w3.org/1999/xlink" x="0px" y="0px"
	 width="48px" height="48px" viewBox="0 0 48 48" enable-background="new 0 0 48 48" xml:space="preserve">
<g>
	<path fill="#010101" d="M25.414,24L47.707,1.707c0.391-0.391,0.391-1.023,0-1.414c-0.391-0.391-1.023-0.391-1.414,0l-23,23
		c-0.391,0.391-0.391,1.023,0,1.414l23,23C46.488,47.902,46.744,48,47,48s0.512-0.098,0.707-0.293c0.391-0.391,0.391-1.023,0-1.414
		L25.414,24z"/>
	<path fill="#010101" d="M2.414,24L24.707,1.707c0.391-0.391,0.391-1.023,0-1.414c-0.391-0.391-1.023-0.391-1.414,0l-23,23
		c-0.391,0.391-0.391,1.023,0,1.414l23,23C23.488,47.902,23.744,48,24,48s0.512-0.098,0.707-0.293c0.391-0.391,0.391-1.023,0-1.414
		L2.414,24z"/>
</g>
</svg>
