<?xml version="1.0" encoding="utf-8"?>
<!-- Generator: Adobe Illustrator 17.0.0, SVG Export Plug-In . SVG Version: 6.00 Build 0)  -->
<!DOCTYPE svg PUBLIC "-//W3C//DTD SVG 1.1//EN" "http://www.w3.org/Graphics/SVG/1.1/DTD/svg11.dtd">
<svg version="1.1" id="Layer_1" xmlns="http://www.w3.org/2000/svg" xmlns:xlink="http://www.w3.org/1999/xlink" x="0px" y="0px"
	 width="48px" height="48px" viewBox="0 0 48 48" enable-background="new 0 0 48 48" xml:space="preserve">
<path fill="#010101" d="M47.378,3.045c-0.374-0.152-0.805-0.069-1.089,0.216L24.033,25.476L1.71,3.275
	C1.423,2.99,0.992,2.909,0.621,3.06C0.248,3.215,0.005,3.58,0.005,3.984v17.143c0,0.267,0.107,0.521,0.295,0.709L23.329,44.74
	c0.195,0.194,0.45,0.291,0.705,0.291c0.256,0,0.512-0.097,0.706-0.292l22.961-22.92c0.189-0.187,0.294-0.442,0.294-0.708V3.969
	C47.995,3.565,47.752,3.2,47.378,3.045z M45.995,20.696L24.033,42.619L2.005,20.711V6.39l21.324,21.208
	c0.391,0.39,1.023,0.387,1.411-0.001L45.995,6.38V20.696z"/>
</svg>
