<?xml version="1.0" encoding="utf-8"?>
<!-- Generator: Adobe Illustrator 17.0.0, SVG Export Plug-In . SVG Version: 6.00 Build 0)  -->
<!DOCTYPE svg PUBLIC "-//W3C//DTD SVG 1.1//EN" "http://www.w3.org/Graphics/SVG/1.1/DTD/svg11.dtd">
<svg version="1.1" id="Layer_1" xmlns="http://www.w3.org/2000/svg" xmlns:xlink="http://www.w3.org/1999/xlink" x="0px" y="0px"
	 width="48px" height="48px" viewBox="0 0 48 48" enable-background="new 0 0 48 48" xml:space="preserve">
<path fill="#010101" d="M44.903,26.61c-0.155-0.374-0.519-0.618-0.924-0.618H32v-25c0-0.552-0.448-1-1-1H17c-0.552,0-1,0.448-1,1v25
	H4.02c-0.403,0-0.768,0.243-0.923,0.616c-0.155,0.373-0.071,0.802,0.214,1.089l19.893,20.016c0.187,0.188,0.442,0.295,0.708,0.295
	h0.001c0.264,0,0.518-0.105,0.706-0.292L44.685,27.7C44.971,27.415,45.057,26.984,44.903,26.61z M23.916,45.593L6.425,27.992H17
	c0.552,0,1-0.448,1-1v-25h12v25c0,0.552,0.448,1,1,1h10.56L23.916,45.593z"/>
</svg>
