<?xml version="1.0" encoding="utf-8"?>
<!-- Generator: Adobe Illustrator 17.0.0, SVG Export Plug-In . SVG Version: 6.00 Build 0)  -->
<!DOCTYPE svg PUBLIC "-//W3C//DTD SVG 1.1//EN" "http://www.w3.org/Graphics/SVG/1.1/DTD/svg11.dtd">
<svg version="1.1" id="Layer_1" xmlns="http://www.w3.org/2000/svg" xmlns:xlink="http://www.w3.org/1999/xlink" x="0px" y="0px"
	 width="48px" height="48px" viewBox="0 0 48 48" enable-background="new 0 0 48 48" xml:space="preserve">
<path fill="#010101" d="M47.008,16h-25V4.021c0-0.404-0.244-0.769-0.618-0.924c-0.375-0.154-0.804-0.07-1.09,0.218L0.284,23.381
	c-0.188,0.188-0.292,0.443-0.292,0.708c0.001,0.266,0.107,0.52,0.295,0.708l20.016,19.891c0.191,0.19,0.446,0.291,0.705,0.291
	c0.13,0,0.26-0.025,0.384-0.077c0.373-0.155,0.616-0.519,0.616-0.923V32h25c0.552,0,1-0.448,1-1V17
	C48.008,16.448,47.56,16,47.008,16z M46.008,30h-25c-0.552,0-1,0.448-1,1v10.575L2.407,24.084L20.008,6.439V17c0,0.552,0.448,1,1,1
	h25V30z"/>
</svg>
