<?xml version="1.0" encoding="utf-8"?>
<!-- Generator: Adobe Illustrator 17.0.0, SVG Export Plug-In . SVG Version: 6.00 Build 0)  -->
<!DOCTYPE svg PUBLIC "-//W3C//DTD SVG 1.1//EN" "http://www.w3.org/Graphics/SVG/1.1/DTD/svg11.dtd">
<svg version="1.1" id="Layer_1" xmlns="http://www.w3.org/2000/svg" xmlns:xlink="http://www.w3.org/1999/xlink" x="0px" y="0px"
	 width="48px" height="48px" viewBox="0 0 48 48" enable-background="new 0 0 48 48" xml:space="preserve">
<g>
	<path fill="#010101" d="M26.156,36.2L14.622,23.96l11.64-12.271c0.275-0.29,0.35-0.716,0.193-1.083
		C26.297,10.238,25.935,10,25.536,10h-12.29c-0.274,0-0.537,0.112-0.726,0.312L0.23,23.27c-0.365,0.385-0.366,0.988-0.002,1.374
		l12.291,13.042C12.707,37.887,12.971,38,13.246,38h12.29c0.008,0.001,0.015,0,0.02,0c0.552,0,1-0.447,0.999-1
		C26.555,36.673,26.399,36.383,26.156,36.2z M13.678,36L2.332,23.96L13.676,12h9.533L12.521,23.27
		c-0.365,0.385-0.366,0.988-0.002,1.374L23.22,36H13.678z"/>
	<path fill="#010101" d="M47.664,36.2L36.13,23.96l11.64-12.271c0.275-0.29,0.35-0.716,0.193-1.083
		C47.805,10.238,47.444,10,47.044,10h-12.29c-0.275,0-0.537,0.112-0.726,0.312L21.738,23.27c-0.365,0.385-0.366,0.988-0.002,1.374
		l12.29,13.042C34.214,37.887,34.478,38,34.753,38h12.29c0.007,0.001,0.015,0,0.02,0c0.553,0,1-0.447,1-1
		C48.063,36.673,47.907,36.383,47.664,36.2z M35.186,36L23.84,23.96L35.184,12h9.533L34.028,23.27
		c-0.365,0.385-0.366,0.988-0.002,1.374L44.728,36H35.186z"/>
</g>
</svg>
