<?xml version="1.0" encoding="utf-8"?>
<!-- Generator: Adobe Illustrator 17.0.0, SVG Export Plug-In . SVG Version: 6.00 Build 0)  -->
<!DOCTYPE svg PUBLIC "-//W3C//DTD SVG 1.1//EN" "http://www.w3.org/Graphics/SVG/1.1/DTD/svg11.dtd">
<svg version="1.1" id="Layer_1" xmlns="http://www.w3.org/2000/svg" xmlns:xlink="http://www.w3.org/1999/xlink" x="0px" y="0px"
	 width="48px" height="48px" viewBox="0 0 48 48" enable-background="new 0 0 48 48" xml:space="preserve">
<g>
	<rect x="25.778" y="36.379" fill="#010101" width="3.538" height="3.538"/>
	<rect x="25.773" y="29.303" fill="#010101" width="3.538" height="3.538"/>
	<rect x="25.769" y="22.227" fill="#010101" width="3.538" height="3.538"/>
	<rect x="32.845" y="22.222" fill="#010101" width="3.538" height="3.538"/>
	<rect x="32.839" y="15.147" fill="#010101" width="3.538" height="3.537"/>
	<rect x="39.921" y="22.217" fill="#010101" width="3.538" height="3.538"/>
	<rect x="25.763" y="15.151" fill="#010101" width="3.538" height="3.538"/>
	<rect x="25.758" y="8.075" fill="#010101" width="3.538" height="3.538"/>
	<rect x="25.783" y="43.455" fill="#010101" width="3.538" height="3.538"/>
	<rect x="18.702" y="36.385" fill="#010101" width="3.538" height="3.538"/>
	<rect x="18.697" y="29.309" fill="#010101" width="3.538" height="3.538"/>
	<rect x="18.693" y="22.233" fill="#010101" width="3.538" height="3.538"/>
	<rect x="18.687" y="15.157" fill="#010101" width="3.538" height="3.538"/>
	<rect x="11.617" y="22.237" fill="#010101" width="3.538" height="3.538"/>
	<rect x="4.541" y="22.242" fill="#010101" width="3.538" height="3.538"/>
	<rect x="11.611" y="15.161" fill="#010101" width="3.538" height="3.537"/>
	<rect x="18.683" y="8.081" fill="#010101" width="3.538" height="3.538"/>
	<rect x="22.215" y="1.001" fill="#010101" width="3.538" height="3.538"/>
	<rect x="18.707" y="43.461" fill="#010101" width="3.538" height="3.538"/>
</g>
</svg>
