<?xml version="1.0" encoding="utf-8"?>
<!-- Generator: Adobe Illustrator 17.0.0, SVG Export Plug-In . SVG Version: 6.00 Build 0)  -->
<!DOCTYPE svg PUBLIC "-//W3C//DTD SVG 1.1//EN" "http://www.w3.org/Graphics/SVG/1.1/DTD/svg11.dtd">
<svg version="1.1" id="Layer_1" xmlns="http://www.w3.org/2000/svg" xmlns:xlink="http://www.w3.org/1999/xlink" x="0px" y="0px"
	 width="48px" height="48px" viewBox="0 0 48 48" enable-background="new 0 0 48 48" xml:space="preserve">
<g>
	<path fill="#010101" d="M39.665,28.236L24.769,10.36c-0.381-0.455-1.156-0.455-1.537,0l-15,18
		c-0.248,0.298-0.302,0.713-0.137,1.064C8.259,29.775,8.612,30,9,30h8c0.309,0,0.6-0.143,0.789-0.386L24,21.629l6.211,7.985
		C30.4,29.857,30.691,30,31,30h8c0.008,0.001,0.016,0.001,0.02,0c0.552,0,1-0.447,1-0.999C40.02,28.694,39.883,28.42,39.665,28.236z
		 M31.489,28l-6.7-8.614c-0.379-0.486-1.199-0.486-1.578,0L16.511,28h-5.376L24,12.562L36.865,28H31.489z"/>
	<path fill="#010101" d="M24,0C10.767,0,0,10.767,0,24c0,13.233,10.767,24,24,24c13.233,0,24-10.767,24-24S37.233,0,24,0z M24,46
		C11.869,46,2,36.131,2,24S11.869,2,24,2s22,9.869,22,22S36.131,46,24,46z"/>
</g>
</svg>
