<?xml version="1.0" encoding="utf-8"?>
<!-- Generator: Adobe Illustrator 17.0.0, SVG Export Plug-In . SVG Version: 6.00 Build 0)  -->
<!DOCTYPE svg PUBLIC "-//W3C//DTD SVG 1.1//EN" "http://www.w3.org/Graphics/SVG/1.1/DTD/svg11.dtd">
<svg version="1.1" id="Layer_1" xmlns="http://www.w3.org/2000/svg" xmlns:xlink="http://www.w3.org/1999/xlink" x="0px" y="0px"
	 width="48px" height="48px" viewBox="0 0 48 48" enable-background="new 0 0 48 48" xml:space="preserve">
<path fill="#010101" d="M43.935,18H19.446l8.656-8.304c0.968-0.967,1.481-2.272,1.445-3.675c-0.034-1.384-0.601-2.694-1.596-3.689
	c-1.03-1.029-2.386-1.595-3.818-1.595c-1.352,0-2.61,0.513-3.543,1.447L0.292,22.514c-0.39,0.391-0.39,1.024,0.001,1.414
	l19.951,19.923c0.914,0.911,2.147,1.412,3.475,1.412c1.415,0,2.815-0.587,3.84-1.611c1.027-1.027,1.614-2.428,1.613-3.845
	c-0.001-1.328-0.505-2.56-1.417-3.468l-8.311-8.321h24.555c1.234,0,2.32-0.604,3.058-1.701C47.665,25.413,48,24.235,48,23
	C48,20.542,46.481,18,43.935,18z M45.398,25.201c-0.365,0.542-0.836,0.817-1.403,0.817H17.033c-0.404,0-0.769,0.243-0.924,0.617
	c-0.155,0.373-0.07,0.803,0.216,1.089l10.017,10.03c0.534,0.532,0.829,1.262,0.83,2.055c0.001,0.889-0.373,1.775-1.026,2.428
	c-1.237,1.235-3.355,1.329-4.489,0.199L2.414,23.22L22.005,3.598c1.166-1.165,3.289-1.093,4.533,0.148
	c0.63,0.63,0.989,1.456,1.011,2.325c0.021,0.85-0.284,1.635-0.845,2.196L16.265,18.278c-0.294,0.283-0.387,0.716-0.235,1.095
	C16.183,19.752,16.55,20,16.958,20h26.98C45.212,20,46,21.557,46,23C46,23.829,45.78,24.631,45.398,25.201z"/>
</svg>
