<?xml version="1.0" encoding="utf-8"?>
<!-- Generator: Adobe Illustrator 17.0.0, SVG Export Plug-In . SVG Version: 6.00 Build 0)  -->
<!DOCTYPE svg PUBLIC "-//W3C//DTD SVG 1.1//EN" "http://www.w3.org/Graphics/SVG/1.1/DTD/svg11.dtd">
<svg version="1.1" id="Layer_1" xmlns="http://www.w3.org/2000/svg" xmlns:xlink="http://www.w3.org/1999/xlink" x="0px" y="0px"
	 width="48px" height="48px" viewBox="0 0 48 48" enable-background="new 0 0 48 48" xml:space="preserve">
<g>
	<path fill="#010101" d="M32.972,13.974h-2c-1.654,0-3,1.346-3,3v5.431l-10.35-10.351c-1.131-1.13-3.112-1.132-4.243,0l-1.37,1.37
		c-1.17,1.17-1.169,3.073,0.001,4.242l10.328,10.325h-5.346c-1.653,0-2.999,1.346-2.999,3.001l0.001,2.036c0,1.654,1.346,3,3,3
		h15.978c1.654,0,3-1.345,3-2.998V16.974C35.972,15.32,34.626,13.974,32.972,13.974z M33.972,33.028c0,0.551-0.448,1-1,1H16.994
		c-0.552,0-1-0.448-1-1l-0.001-2.036c0-0.551,0.448-1,0.999-1v-0.001h5.761c1.349,0,1.793-0.723,1.922-1.033
		c0.128-0.31,0.324-1.135-0.629-2.087l-10.622-10.62c-0.39-0.39-0.391-1.024-0.001-1.414l1.37-1.37c0.375-0.375,1.041-0.374,1.415,0
		L26.85,24.112c0.492,0.491,1.003,0.739,1.521,0.739c0.797,0,1.601-0.629,1.601-2.033v-5.845c0-0.551,0.448-1,1-1h2
		c0.552,0,1,0.449,1,1V33.028z"/>
	<path fill="#010101" d="M40.971,7.029C36.438,2.497,30.411,0,24,0C17.59,0,11.562,2.497,7.029,7.029
		c-9.357,9.358-9.357,24.584,0,33.941C11.562,45.503,17.59,48,24,48c6.411,0,12.437-2.497,16.971-7.03
		C50.328,31.612,50.328,16.387,40.971,7.029z M39.557,39.556C35.401,43.711,29.877,46,24,46c-5.876,0-11.401-2.289-15.557-6.444
		c-8.577-8.577-8.577-22.535,0-31.113C12.599,4.289,18.124,2,24,2c5.877,0,11.401,2.289,15.557,6.443
		C48.134,17.021,48.134,30.978,39.557,39.556z"/>
</g>
</svg>
