<?xml version="1.0" encoding="utf-8"?>
<!-- Generator: Adobe Illustrator 17.0.0, SVG Export Plug-In . SVG Version: 6.00 Build 0)  -->
<!DOCTYPE svg PUBLIC "-//W3C//DTD SVG 1.1//EN" "http://www.w3.org/Graphics/SVG/1.1/DTD/svg11.dtd">
<svg version="1.1" id="Layer_1" xmlns="http://www.w3.org/2000/svg" xmlns:xlink="http://www.w3.org/1999/xlink" x="0px" y="0px"
	 width="48px" height="48px" viewBox="0 0 48 48" enable-background="new 0 0 48 48" xml:space="preserve">
<path fill="#010101" d="M43.684,23.143l-38.167-23c-0.311-0.186-0.694-0.19-1.009-0.014C4.194,0.307,4,0.639,4,1v46
	c0,0.36,0.194,0.693,0.508,0.871C4.661,47.957,4.83,48,5,48c0.179,0,0.357-0.048,0.517-0.145l38.167-23
	c0.299-0.18,0.483-0.506,0.483-0.856C44.167,23.649,43.984,23.324,43.684,23.143z M6,45.229V2.77L41.229,24L6,45.229z"/>
</svg>
