<?xml version="1.0" encoding="utf-8"?>
<!-- Generator: Adobe Illustrator 17.0.0, SVG Export Plug-In . SVG Version: 6.00 Build 0)  -->
<!DOCTYPE svg PUBLIC "-//W3C//DTD SVG 1.1//EN" "http://www.w3.org/Graphics/SVG/1.1/DTD/svg11.dtd">
<svg version="1.1" id="Layer_1" xmlns="http://www.w3.org/2000/svg" xmlns:xlink="http://www.w3.org/1999/xlink" x="0px" y="0px"
	 width="48px" height="48px" viewBox="0 0 48 48" enable-background="new 0 0 48 48" xml:space="preserve">
<g>
	<path fill="#010101" d="M35.025,12.006h-6.022c-0.552,0-1,0.448-1,1v9.293L16.244,10.594c-0.391-0.388-1.023-0.388-1.413,0.002
		l-4.235,4.235c-0.39,0.39-0.391,1.022-0.002,1.413l11.704,11.759h-9.293c-0.552,0-1,0.448-1,1v5.991c0,0.552,0.448,1,1,1h22.02
		c0.553,0,1-0.448,1-1V13.006C36.025,12.454,35.577,12.006,35.025,12.006z M34.026,33.994h-20.02v-3.991h10.7
		c0.403,0,0.768-0.243,0.923-0.616c0.156-0.373,0.071-0.802-0.214-1.089L12.716,15.54l2.824-2.824l12.759,12.699
		c0.287,0.284,0.718,0.37,1.089,0.214c0.373-0.155,0.616-0.519,0.616-0.923v-10.7h4.022V33.994z"/>
	<path fill="#010101" d="M40.969,7.031c-4.533-4.533-10.56-7.03-16.971-7.03c-6.41,0-12.436,2.496-16.969,7.029
		c-9.357,9.357-9.356,24.583,0.001,33.94C11.563,45.503,17.59,48,24.002,48c6.41,0,12.436-2.497,16.968-7.029
		C50.327,31.614,50.326,16.388,40.969,7.031z M39.556,39.557C35.401,43.712,29.877,46,24.001,46
		c-5.877-0.001-11.401-2.29-15.557-6.445c-8.577-8.578-8.578-22.534-0.001-31.112C12.598,4.288,18.122,2,23.998,2
		C29.875,2,35.4,4.289,39.555,8.445C48.132,17.023,48.133,30.979,39.556,39.557z"/>
</g>
</svg>
