<?xml version="1.0" encoding="utf-8"?>
<!-- Generator: Adobe Illustrator 17.0.0, SVG Export Plug-In . SVG Version: 6.00 Build 0)  -->
<!DOCTYPE svg PUBLIC "-//W3C//DTD SVG 1.1//EN" "http://www.w3.org/Graphics/SVG/1.1/DTD/svg11.dtd">
<svg version="1.1" id="Layer_1" xmlns="http://www.w3.org/2000/svg" xmlns:xlink="http://www.w3.org/1999/xlink" x="0px" y="0px"
	 width="48px" height="48px" viewBox="0 0 48 48" enable-background="new 0 0 48 48" xml:space="preserve">
<path fill="#010101" d="M47.717,23.381L27.7,3.315c-0.286-0.287-0.717-0.372-1.09-0.218c-0.374,0.154-0.618,0.519-0.618,0.924
	v11.958h-25c-0.552,0-1,0.448-1,1v14c0,0.552,0.448,1,1,1h25v12c0,0.403,0.243,0.768,0.616,0.923
	c0.124,0.052,0.255,0.077,0.384,0.077c0.258,0,0.513-0.101,0.705-0.291l20.017-19.891c0.188-0.188,0.295-0.442,0.295-0.708
	C48.009,23.824,47.905,23.569,47.717,23.381z M27.992,41.575V30.979c0-0.552-0.448-1-1-1h-25v-12h25c0.552,0,1-0.448,1-1V6.439
	l17.601,17.645L27.992,41.575z"/>
</svg>
