<?xml version="1.0" encoding="utf-8"?>
<!-- Generator: Adobe Illustrator 17.0.0, SVG Export Plug-In . SVG Version: 6.00 Build 0)  -->
<!DOCTYPE svg PUBLIC "-//W3C//DTD SVG 1.1//EN" "http://www.w3.org/Graphics/SVG/1.1/DTD/svg11.dtd">
<svg version="1.1" id="Layer_1" xmlns="http://www.w3.org/2000/svg" xmlns:xlink="http://www.w3.org/1999/xlink" x="0px" y="0px"
	 width="48px" height="48px" viewBox="0 0 48 48" enable-background="new 0 0 48 48" xml:space="preserve">
<g>
	<path fill="#010101" d="M46.97,0.039L1.03,0H1.029C0.765,0,0.51,0.106,0.322,0.293C0.134,0.48,0.029,0.734,0.029,1v46
		c0,0.553,0.447,1,1,1H46.97c0.552,0,1-0.447,0.999-1V1.039C47.969,0.487,47.522,0.039,46.97,0.039z M45.969,46H2.029V2.001
		l43.94,0.037V46z"/>
	<rect x="36.983" y="20.035" fill="#010101" width="2.996" height="2.996"/>
	<rect x="30.991" y="20.035" fill="#010101" width="2.996" height="2.996"/>
	<rect x="30.991" y="26.027" fill="#010101" width="2.996" height="2.996"/>
	<rect x="24.999" y="20.035" fill="#010101" width="2.996" height="2.996"/>
	<rect x="24.999" y="26.027" fill="#010101" width="2.996" height="2.996"/>
	<rect x="19.006" y="20.035" fill="#010101" width="2.997" height="2.996"/>
	<rect x="19.006" y="26.027" fill="#010101" width="2.997" height="2.996"/>
	<rect x="24.999" y="32.019" fill="#010101" width="2.996" height="2.996"/>
	<rect x="22.003" y="38.012" fill="#010101" width="2.996" height="2.996"/>
	<rect x="19.006" y="32.019" fill="#010101" width="2.997" height="2.996"/>
	<rect x="24.999" y="8.05" fill="#010101" width="2.996" height="2.997"/>
	<rect x="24.999" y="14.043" fill="#010101" width="2.996" height="2.996"/>
	<rect x="19.006" y="8.05" fill="#010101" width="2.997" height="2.997"/>
	<rect x="19.006" y="14.043" fill="#010101" width="2.997" height="2.996"/>
	<rect x="13.014" y="20.035" fill="#010101" width="2.996" height="2.996"/>
	<rect x="7.022" y="20.035" fill="#010101" width="2.996" height="2.996"/>
	<rect x="13.014" y="26.027" fill="#010101" width="2.996" height="2.996"/>
</g>
</svg>
