<?xml version="1.0" encoding="utf-8"?>
<!-- Generator: Adobe Illustrator 17.0.0, SVG Export Plug-In . SVG Version: 6.00 Build 0)  -->
<!DOCTYPE svg PUBLIC "-//W3C//DTD SVG 1.1//EN" "http://www.w3.org/Graphics/SVG/1.1/DTD/svg11.dtd">
<svg version="1.1" id="Layer_1" xmlns="http://www.w3.org/2000/svg" xmlns:xlink="http://www.w3.org/1999/xlink" x="0px" y="0px"
	 width="48px" height="48px" viewBox="0 0 48 48" enable-background="new 0 0 48 48" xml:space="preserve">
<g>
	<path fill="#010101" d="M24.125,40c-2.243,0-4,1.757-4,4s1.757,4,4,4s4-1.757,4-4S26.368,40,24.125,40z M24.125,46
		c-1.14,0-2-0.859-2-2s0.86-2,2-2s2,0.859,2,2S25.265,46,24.125,46z"/>
	<path fill="#010101" d="M33.875,32c-2.243,0-4,1.757-4,4s1.757,4,4,4s4-1.757,4-4S36.118,32,33.875,32z M33.875,38
		c-1.14,0-2-0.859-2-2s0.86-2,2-2s2,0.859,2,2S35.015,38,33.875,38z"/>
	<path fill="#010101" d="M42.125,24c-2.243,0-4,1.757-4,4s1.757,4,4,4s4-1.757,4-4S44.368,24,42.125,24z M42.125,30
		c-1.14,0-2-0.859-2-2s0.86-2,2-2s2,0.859,2,2S43.265,30,42.125,30z"/>
	<path fill="#010101" d="M13.875,32c-2.243,0-4,1.757-4,4s1.757,4,4,4s4-1.757,4-4S16.118,32,13.875,32z M13.875,38
		c-1.14,0-2-0.859-2-2s0.86-2,2-2s2,0.859,2,2S15.015,38,13.875,38z"/>
	<path fill="#010101" d="M5.875,24c-2.243,0-4,1.757-4,4s1.757,4,4,4s4-1.757,4-4S8.118,24,5.875,24z M5.875,30c-1.14,0-2-0.859-2-2
		s0.86-2,2-2s2,0.859,2,2S7.015,30,5.875,30z"/>
	<path fill="#010101" d="M24.125,0c-2.243,0-4,1.757-4,4s1.757,4,4,4s4-1.757,4-4S26.368,0,24.125,0z M24.125,6c-1.14,0-2-0.859-2-2
		s0.86-2,2-2s2,0.859,2,2S25.265,6,24.125,6z"/>
	<path fill="#010101" d="M24.125,10c-2.243,0-4,1.757-4,4s1.757,4,4,4s4-1.757,4-4S26.368,10,24.125,10z M24.125,16
		c-1.14,0-2-0.859-2-2s0.86-2,2-2s2,0.859,2,2S25.265,16,24.125,16z"/>
	<path fill="#010101" d="M24.125,20c-2.243,0-4,1.757-4,4s1.757,4,4,4s4-1.757,4-4S26.368,20,24.125,20z M24.125,26
		c-1.14,0-2-0.859-2-2s0.86-2,2-2s2,0.859,2,2S25.265,26,24.125,26z"/>
	<path fill="#010101" d="M24.125,30c-2.243,0-4,1.757-4,4s1.757,4,4,4s4-1.757,4-4S26.368,30,24.125,30z M24.125,36
		c-1.14,0-2-0.859-2-2s0.86-2,2-2s2,0.859,2,2S25.265,36,24.125,36z"/>
</g>
</svg>
