<?xml version="1.0" encoding="utf-8"?>
<!-- Generator: Adobe Illustrator 17.0.0, SVG Export Plug-In . SVG Version: 6.00 Build 0)  -->
<!DOCTYPE svg PUBLIC "-//W3C//DTD SVG 1.1//EN" "http://www.w3.org/Graphics/SVG/1.1/DTD/svg11.dtd">
<svg version="1.1" id="Layer_1" xmlns="http://www.w3.org/2000/svg" xmlns:xlink="http://www.w3.org/1999/xlink" x="0px" y="0px"
	 width="48px" height="48px" viewBox="0 0 48 48" enable-background="new 0 0 48 48" xml:space="preserve">
<g>
	<path fill="#010101" d="M39,18.01l-15-0.005V9.013c0-0.407-0.247-0.774-0.625-0.928c-0.381-0.151-0.811-0.062-1.094,0.233
		L7.795,23.305c-0.375,0.388-0.375,1.003,0,1.39l14.486,14.987c0.193,0.199,0.453,0.305,0.719,0.305
		c0.126,0,0.253-0.024,0.375-0.074C23.753,39.76,24,39.394,24,38.986v-8.991l15,0.003c0.266,0,0.519-0.105,0.707-0.293
		C39.894,29.518,40,29.263,40,28.998V19.01C40,18.458,39.553,18.01,39,18.01z M38,27.998l-15-0.003c-0.266,0-0.52,0.105-0.707,0.293
		C22.105,28.476,22,28.73,22,28.995v7.518L9.904,24L22,11.487v7.518c0,0.552,0.447,1,1,1l15,0.005V27.998z"/>
	<path fill="#010101" d="M24,0C10.767,0,0,10.767,0,24c0,13.233,10.767,24,24,24c13.233,0,24-10.767,24-24S37.233,0,24,0z M24,46
		C11.869,46,2,36.131,2,24S11.869,2,24,2s22,9.869,22,22S36.131,46,24,46z"/>
</g>
</svg>
