<?xml version="1.0" encoding="utf-8"?>
<!-- Generator: Adobe Illustrator 17.0.0, SVG Export Plug-In . SVG Version: 6.00 Build 0)  -->
<!DOCTYPE svg PUBLIC "-//W3C//DTD SVG 1.1//EN" "http://www.w3.org/Graphics/SVG/1.1/DTD/svg11.dtd">
<svg version="1.1" id="Layer_1" xmlns="http://www.w3.org/2000/svg" xmlns:xlink="http://www.w3.org/1999/xlink" x="0px" y="0px"
	 width="48px" height="48px" viewBox="0 0 48 48" enable-background="new 0 0 48 48" xml:space="preserve">
<g>
	<path fill="#010101" d="M23.293,31.971c0.195,0.195,0.451,0.293,0.707,0.293s0.512-0.098,0.707-0.293l12.105-12.105
		c0.391-0.391,0.391-1.023,0-1.414c-0.391-0.391-1.023-0.391-1.414,0L24,29.85L12.601,18.451c-0.391-0.391-1.023-0.391-1.414,0
		s-0.391,1.023,0,1.414L23.293,31.971z"/>
	<path fill="#010101" d="M47,0H1C0.448,0,0,0.447,0,1v46c0,0.553,0.448,1,1,1h46c0.552,0,1-0.447,1-1V1C48,0.447,47.552,0,47,0z
		 M46,46H2V2h44V46z"/>
</g>
</svg>
