<?xml version="1.0" encoding="utf-8"?>
<!-- Generator: Adobe Illustrator 17.0.0, SVG Export Plug-In . SVG Version: 6.00 Build 0)  -->
<!DOCTYPE svg PUBLIC "-//W3C//DTD SVG 1.1//EN" "http://www.w3.org/Graphics/SVG/1.1/DTD/svg11.dtd">
<svg version="1.1" id="Layer_1" xmlns="http://www.w3.org/2000/svg" xmlns:xlink="http://www.w3.org/1999/xlink" x="0px" y="0px"
	 width="48px" height="48px" viewBox="0 0 48 48" enable-background="new 0 0 48 48" xml:space="preserve">
<g>
	<path fill="#231F20" d="M33.345,24L47.707,9.638c0.391-0.391,0.391-1.023,0-1.414l-5.552-5.552c-0.391-0.391-1.023-0.391-1.414,0
		l-20.62,20.621c-0.391,0.391-0.391,1.023,0,1.414l20.62,20.621c0.195,0.195,0.451,0.293,0.707,0.293s0.512-0.098,0.707-0.293
		l5.552-5.552c0.391-0.391,0.391-1.023,0-1.414L33.345,24z M41.449,43.207L22.242,24L41.448,4.793l4.138,4.138L31.224,23.293
		c-0.391,0.391-0.391,1.023,0,1.414l14.363,14.362L41.449,43.207z"/>
	<path fill="#231F20" d="M13.518,24L27.88,9.638c0.391-0.391,0.391-1.023,0-1.414l-5.552-5.552c-0.391-0.391-1.023-0.391-1.414,0
		L0.293,23.293c-0.391,0.391-0.391,1.023,0,1.414l20.621,20.621c0.195,0.195,0.451,0.293,0.707,0.293
		c0.255,0,0.511-0.098,0.707-0.293l5.552-5.552c0.391-0.391,0.391-1.023,0-1.414L13.518,24z M21.621,43.207L2.414,24L21.62,4.793
		l4.138,4.138L11.396,23.293c-0.391,0.391-0.391,1.023,0,1.414l14.363,14.362L21.621,43.207z"/>
</g>
</svg>
