<?xml version="1.0" encoding="utf-8"?>
<!-- Generator: Adobe Illustrator 17.0.0, SVG Export Plug-In . SVG Version: 6.00 Build 0)  -->
<!DOCTYPE svg PUBLIC "-//W3C//DTD SVG 1.1//EN" "http://www.w3.org/Graphics/SVG/1.1/DTD/svg11.dtd">
<svg version="1.1" id="Layer_1" xmlns="http://www.w3.org/2000/svg" xmlns:xlink="http://www.w3.org/1999/xlink" x="0px" y="0px"
	 width="48px" height="48px" viewBox="0 0 48 48" enable-background="new 0 0 48 48" xml:space="preserve">
<g>
	<path fill="#010101" d="M47,0.03H1.039c-0.552,0-1,0.447-1,0.999L0,46.969c0,0.265,0.105,0.52,0.293,0.708
		C0.48,47.865,0.734,47.97,1,47.97h46c0.553,0,1-0.448,1-1V1.03C48,0.477,47.553,0.03,47,0.03z M46,45.97H2.001L2.038,2.03H46V45.97
		z"/>
	<rect x="20.035" y="8.021" fill="#010101" width="2.996" height="2.996"/>
	<rect x="20.035" y="14.013" fill="#010101" width="2.996" height="2.996"/>
	<rect x="26.027" y="14.013" fill="#010101" width="2.996" height="2.996"/>
	<rect x="20.035" y="20.005" fill="#010101" width="2.996" height="2.996"/>
	<rect x="26.027" y="20.005" fill="#010101" width="2.996" height="2.996"/>
	<rect x="20.035" y="25.997" fill="#010101" width="2.996" height="2.996"/>
	<rect x="26.027" y="25.997" fill="#010101" width="2.996" height="2.996"/>
	<rect x="32.019" y="20.005" fill="#010101" width="2.996" height="2.996"/>
	<rect x="38.012" y="23.001" fill="#010101" width="2.996" height="2.996"/>
	<rect x="32.019" y="25.997" fill="#010101" width="2.996" height="2.996"/>
	<rect x="8.05" y="20.005" fill="#010101" width="2.997" height="2.996"/>
	<rect x="14.043" y="20.005" fill="#010101" width="2.996" height="2.996"/>
	<rect x="8.05" y="25.997" fill="#010101" width="2.997" height="2.996"/>
	<rect x="14.043" y="25.997" fill="#010101" width="2.996" height="2.996"/>
	<rect x="20.035" y="31.99" fill="#010101" width="2.996" height="2.996"/>
	<rect x="20.035" y="37.982" fill="#010101" width="2.996" height="2.996"/>
	<rect x="26.027" y="31.99" fill="#010101" width="2.996" height="2.996"/>
</g>
</svg>
