<?xml version="1.0" encoding="utf-8"?>
<!-- Generator: Adobe Illustrator 17.0.0, SVG Export Plug-In . SVG Version: 6.00 Build 0)  -->
<!DOCTYPE svg PUBLIC "-//W3C//DTD SVG 1.1//EN" "http://www.w3.org/Graphics/SVG/1.1/DTD/svg11.dtd">
<svg version="1.1" id="Layer_1" xmlns="http://www.w3.org/2000/svg" xmlns:xlink="http://www.w3.org/1999/xlink" x="0px" y="0px"
	 width="48px" height="48px" viewBox="0 0 48 48" enable-background="new 0 0 48 48" xml:space="preserve">
<g>
	<path fill="#010101" d="M14.593,35.36c0.149,0.386,0.52,0.64,0.933,0.64h7.263c0.249,0,0.488-0.093,0.674-0.261l12.105-11
		c0.208-0.189,0.326-0.457,0.327-0.738c0.001-0.281-0.117-0.55-0.325-0.739L23.465,12.179c-0.184-0.169-0.425-0.263-0.675-0.263
		h-7.263c-0.412,0-0.783,0.253-0.932,0.638c-0.149,0.385-0.048,0.822,0.257,1.1l11.295,10.342L14.853,34.259
		C14.547,34.538,14.444,34.974,14.593,35.36z M28.305,24.74c0.208-0.189,0.326-0.457,0.327-0.738
		c0.001-0.281-0.117-0.55-0.325-0.739L18.1,13.917h4.3l11.01,10.08L22.402,34h-4.288L28.305,24.74z"/>
	<path fill="#010101" d="M47,0H1C0.447,0,0,0.447,0,1v46c0,0.553,0.447,1,1,1h46c0.553,0,1-0.447,1-1V1C48,0.447,47.553,0,47,0z
		 M46,46H2V2h44V46z"/>
</g>
</svg>
