<?xml version="1.0" encoding="utf-8"?>
<!-- Generator: Adobe Illustrator 17.0.0, SVG Export Plug-In . SVG Version: 6.00 Build 0)  -->
<!DOCTYPE svg PUBLIC "-//W3C//DTD SVG 1.1//EN" "http://www.w3.org/Graphics/SVG/1.1/DTD/svg11.dtd">
<svg version="1.1" id="Layer_1" xmlns="http://www.w3.org/2000/svg" xmlns:xlink="http://www.w3.org/1999/xlink" x="0px" y="0px"
	 width="48px" height="48px" viewBox="0 0 48 48" enable-background="new 0 0 48 48" xml:space="preserve">
<g>
	<path fill="#010101" d="M31.769,9.165c-0.375-0.375-1.039-0.375-1.414,0L19.782,19.742l-6.027-6.39
		c-0.282-0.299-0.716-0.395-1.096-0.244c-0.381,0.152-0.631,0.519-0.631,0.929l-0.019,20.988c0,0.266,0.104,0.52,0.292,0.708
		c0.188,0.187,0.443,0.293,0.708,0.293h20.788c0.407,0,0.773-0.246,0.926-0.623c0.153-0.377,0.063-0.809-0.229-1.093l-6.245-6.077
		l10.584-10.591c0.39-0.391,0.39-1.024-0.001-1.414L31.769,9.165z M26.118,27.535c-0.189,0.19-0.294,0.446-0.292,0.714
		s0.111,0.523,0.303,0.71l5.207,5.067H14.01l0.015-17.472l5.008,5.31c0.186,0.197,0.443,0.31,0.713,0.314
		c0.281,0.009,0.531-0.102,0.722-0.293l10.594-10.599l5.649,5.649L26.118,27.535z"/>
	<path fill="#010101" d="M40.97,7.035c-4.533-4.533-10.56-7.03-16.971-7.03c-6.41,0-12.437,2.496-16.97,7.029
		c-9.357,9.357-9.357,24.584,0,33.941c4.533,4.533,10.56,7.029,16.971,7.029s12.438-2.494,16.971-7.028S48,30.416,48,24.005
		C48,17.595,45.503,11.568,40.97,7.035z M39.557,39.56c-4.156,4.155-9.681,6.443-15.557,6.443c-5.877,0-11.402-2.288-15.557-6.443
		c-8.577-8.578-8.577-22.535,0-31.113c4.155-4.155,9.68-6.443,15.556-6.443c5.877,0,11.402,2.289,15.557,6.444
		C43.711,12.603,46,18.128,46,24.004C46,29.88,43.712,35.405,39.557,39.56z"/>
</g>
</svg>
