<?xml version="1.0" encoding="utf-8"?>
<!-- Generator: Adobe Illustrator 17.0.0, SVG Export Plug-In . SVG Version: 6.00 Build 0)  -->
<!DOCTYPE svg PUBLIC "-//W3C//DTD SVG 1.1//EN" "http://www.w3.org/Graphics/SVG/1.1/DTD/svg11.dtd">
<svg version="1.1" id="Layer_1" xmlns="http://www.w3.org/2000/svg" xmlns:xlink="http://www.w3.org/1999/xlink" x="0px" y="0px"
	 width="48px" height="48px" viewBox="0 0 48 48" enable-background="new 0 0 48 48" xml:space="preserve">
<path fill="#010101" d="M36.938,7.645c-1.349,0-2.588,0.496-3.487,1.397c-0.933,0.936-1.445,2.228-1.442,3.636L32.002,24.67
	L14.043,7.08c-0.682-0.684-1.562-1.045-2.546-1.045c-1.3,0-2.734,0.658-3.836,1.76c-1.072,1.072-1.712,2.503-1.711,3.827
	c0,1.006,0.364,1.899,1.041,2.575l17.416,17.831H12.323c-2.909,0-5.101,2.122-5.101,4.938c0.002,2.85,2.195,4.999,5.1,4.999H41.05
	c0.553,0,1-0.448,0.999-1.001V12.676C42.045,9.857,39.801,7.647,36.938,7.645z M40.05,39.965H12.322c-1.795,0-3.099-1.262-3.1-3
	c0-1.73,1.276-2.938,3.101-2.938v0.001h14.459c0.403,0,0.766-0.241,0.922-0.612c0.156-0.371,0.074-0.799-0.206-1.087L8.413,12.79
	c-0.312-0.311-0.463-0.693-0.463-1.169c-0.001-0.793,0.431-1.717,1.125-2.412c1.151-1.151,2.707-1.563,3.56-0.708l19.667,19.26
	c0.289,0.283,0.719,0.365,1.088,0.208c0.371-0.155,0.612-0.519,0.612-0.921l0.008-14.372c-0.002-0.875,0.302-1.664,0.858-2.221
	c0.528-0.53,1.245-0.81,2.07-0.81c1.772,0.002,3.11,1.306,3.112,3.033V39.965z"/>
</svg>
