<?xml version="1.0" encoding="utf-8"?>
<!-- Generator: Adobe Illustrator 17.0.0, SVG Export Plug-In . SVG Version: 6.00 Build 0)  -->
<!DOCTYPE svg PUBLIC "-//W3C//DTD SVG 1.1//EN" "http://www.w3.org/Graphics/SVG/1.1/DTD/svg11.dtd">
<svg version="1.1" id="Layer_1" xmlns="http://www.w3.org/2000/svg" xmlns:xlink="http://www.w3.org/1999/xlink" x="0px" y="0px"
	 width="48px" height="48px" viewBox="0 0 48 48" enable-background="new 0 0 48 48" xml:space="preserve">
<path fill="#010101" d="M42.707,12.462l-7.071-7.071c-0.387-0.387-1.011-0.39-1.403-0.011L16.225,22.829V6.643
	c0-0.405-0.244-0.771-0.619-0.925s-0.804-0.067-1.091,0.221L4.527,16.015c-0.185,0.187-0.289,0.44-0.289,0.704V43
	c0,0.552,0.448,1,1,1h26.17c0.268,0,0.524-0.107,0.712-0.297l9.899-10.025c0.283-0.287,0.366-0.716,0.211-1.088
	c-0.156-0.372-0.52-0.614-0.923-0.614H25.261L42.72,13.863C43.098,13.47,43.093,12.847,42.707,12.462z M22.188,32.282
	c-0.278,0.289-0.357,0.716-0.2,1.085c0.157,0.369,0.519,0.609,0.92,0.609h16.006L30.99,42H6.238H6.237V17.131l7.988-8.059V25.19
	c0,0.401,0.24,0.764,0.61,0.921c0.369,0.155,0.796,0.076,1.086-0.203L34.918,7.502l5.681,5.68L22.188,32.282z"/>
</svg>
