<?xml version="1.0" encoding="utf-8"?>
<!-- Generator: Adobe Illustrator 17.0.0, SVG Export Plug-In . SVG Version: 6.00 Build 0)  -->
<!DOCTYPE svg PUBLIC "-//W3C//DTD SVG 1.1//EN" "http://www.w3.org/Graphics/SVG/1.1/DTD/svg11.dtd">
<svg version="1.1" id="Layer_1" xmlns="http://www.w3.org/2000/svg" xmlns:xlink="http://www.w3.org/1999/xlink" x="0px" y="0px"
	 width="48px" height="48px" viewBox="0 0 48 48" enable-background="new 0 0 48 48" xml:space="preserve">
<g>
	<path fill="#010101" d="M23.293,24.707C23.488,24.902,23.744,25,24,25s0.512-0.098,0.707-0.293l23-23
		c0.391-0.391,0.391-1.023,0-1.414c-0.391-0.391-1.023-0.391-1.414,0L24,22.586L1.707,0.293c-0.391-0.391-1.023-0.391-1.414,0
		c-0.391,0.391-0.391,1.023,0,1.414L23.293,24.707z"/>
	<path fill="#010101" d="M46.293,23.293L24,45.586L1.707,23.293c-0.391-0.391-1.023-0.391-1.414,0c-0.391,0.391-0.391,1.023,0,1.414
		l23,23C23.488,47.902,23.744,48,24,48s0.512-0.098,0.707-0.293l23-23c0.391-0.391,0.391-1.023,0-1.414
		C47.316,22.902,46.684,22.902,46.293,23.293z"/>
</g>
</svg>
