<?xml version="1.0" encoding="utf-8"?>
<!-- Generator: Adobe Illustrator 17.0.0, SVG Export Plug-In . SVG Version: 6.00 Build 0)  -->
<!DOCTYPE svg PUBLIC "-//W3C//DTD SVG 1.1//EN" "http://www.w3.org/Graphics/SVG/1.1/DTD/svg11.dtd">
<svg version="1.1" id="Layer_1" xmlns="http://www.w3.org/2000/svg" xmlns:xlink="http://www.w3.org/1999/xlink" x="0px" y="0px"
	 width="48px" height="48px" viewBox="0 0 48 48" enable-background="new 0 0 48 48" xml:space="preserve">
<g>
	<path fill="#010101" d="M24.707,23.293c-0.391-0.391-1.023-0.391-1.414,0l-23,23c-0.391,0.391-0.391,1.023,0,1.414
		c0.391,0.391,1.023,0.391,1.414,0L24,25.414l22.293,22.293C46.488,47.902,46.744,48,47,48s0.512-0.098,0.707-0.293
		c0.391-0.391,0.391-1.023,0-1.414L24.707,23.293z"/>
	<path fill="#010101" d="M1.707,24.707L24,2.414l22.293,22.293C46.488,24.902,46.744,25,47,25s0.512-0.098,0.707-0.293
		c0.391-0.391,0.391-1.023,0-1.414l-23-23c-0.391-0.391-1.023-0.391-1.414,0l-23,23c-0.391,0.391-0.391,1.023,0,1.414
		C0.684,25.098,1.316,25.098,1.707,24.707z"/>
</g>
</svg>
