<?xml version="1.0" encoding="utf-8"?>
<!-- Generator: Adobe Illustrator 17.0.0, SVG Export Plug-In . SVG Version: 6.00 Build 0)  -->
<!DOCTYPE svg PUBLIC "-//W3C//DTD SVG 1.1//EN" "http://www.w3.org/Graphics/SVG/1.1/DTD/svg11.dtd">
<svg version="1.1" id="Layer_1" xmlns="http://www.w3.org/2000/svg" xmlns:xlink="http://www.w3.org/1999/xlink" x="0px" y="0px"
	 width="48px" height="48px" viewBox="0 0 48 48" enable-background="new 0 0 48 48" xml:space="preserve">
<g>
	<path fill="#010101" d="M10.628,26.452c0.367,0.158,0.792,0.083,1.083-0.191l12.328-11.618l12.248,11.616
		c0.189,0.179,0.437,0.274,0.688,0.274c0.133,0,0.268-0.026,0.395-0.08c0.367-0.158,0.605-0.52,0.605-0.919V13.267
		c0-0.275-0.113-0.537-0.312-0.726L24.729,0.274c-0.384-0.365-0.987-0.366-1.374-0.002L10.339,12.54
		c-0.2,0.188-0.314,0.452-0.314,0.727v12.267C10.025,25.933,10.262,26.294,10.628,26.452z M12.025,13.698L24.039,2.376l11.937,11.32
		v9.51L24.73,12.541c-0.384-0.365-0.987-0.365-1.374-0.002L12.025,23.217V13.698z"/>
	<path fill="#010101" d="M37.664,34.008L24.73,21.741c-0.384-0.365-0.987-0.365-1.374-0.002L10.339,34.006
		c-0.2,0.188-0.314,0.452-0.314,0.727V47c0,0.399,0.237,0.76,0.603,0.918c0.367,0.159,0.792,0.084,1.083-0.19l12.328-11.619
		l12.248,11.617C36.476,47.905,36.724,48,36.975,48c0.133,0,0.268-0.026,0.396-0.081c0.367-0.158,0.605-0.52,0.605-0.919V34.734
		C37.976,34.459,37.863,34.197,37.664,34.008z M35.976,44.674L24.73,34.008c-0.384-0.365-0.987-0.365-1.374-0.002L12.025,44.684
		v-9.519L24.04,23.844l11.936,11.32V44.674z"/>
</g>
</svg>
