<?xml version="1.0" encoding="utf-8"?>
<!-- Generator: Adobe Illustrator 17.0.0, SVG Export Plug-In . SVG Version: 6.00 Build 0)  -->
<!DOCTYPE svg PUBLIC "-//W3C//DTD SVG 1.1//EN" "http://www.w3.org/Graphics/SVG/1.1/DTD/svg11.dtd">
<svg version="1.1" id="Layer_1" xmlns="http://www.w3.org/2000/svg" xmlns:xlink="http://www.w3.org/1999/xlink" x="0px" y="0px"
	 width="48px" height="48px" viewBox="0 0 48 48" enable-background="new 0 0 48 48" xml:space="preserve">
<g>
	<path fill="#010101" d="M46.969,0H1.029c-0.553,0-1,0.447-1,1v45.961c0,0.552,0.447,1,0.999,1L46.97,48
		c0.264,0,0.518-0.106,0.706-0.293c0.188-0.187,0.293-0.441,0.293-0.707V1C47.969,0.447,47.522,0,46.969,0z M45.969,45.999
		l-43.94-0.037V2h43.94V45.999z"/>
	<rect x="8.021" y="24.969" fill="#010101" width="2.996" height="2.996"/>
	<rect x="14.013" y="24.969" fill="#010101" width="2.996" height="2.996"/>
	<rect x="14.013" y="18.977" fill="#010101" width="2.996" height="2.996"/>
	<rect x="20.005" y="24.969" fill="#010101" width="2.996" height="2.996"/>
	<rect x="20.005" y="18.977" fill="#010101" width="2.996" height="2.996"/>
	<rect x="25.997" y="24.969" fill="#010101" width="2.996" height="2.996"/>
	<rect x="25.997" y="18.977" fill="#010101" width="2.996" height="2.996"/>
	<rect x="20.005" y="12.984" fill="#010101" width="2.996" height="2.997"/>
	<rect x="23.001" y="6.992" fill="#010101" width="2.996" height="2.996"/>
	<rect x="25.997" y="12.984" fill="#010101" width="2.996" height="2.997"/>
	<rect x="20.005" y="36.953" fill="#010101" width="2.996" height="2.997"/>
	<rect x="20.005" y="30.961" fill="#010101" width="2.996" height="2.996"/>
	<rect x="25.997" y="36.953" fill="#010101" width="2.996" height="2.997"/>
	<rect x="25.997" y="30.961" fill="#010101" width="2.996" height="2.996"/>
	<rect x="31.99" y="24.969" fill="#010101" width="2.996" height="2.996"/>
	<rect x="37.982" y="24.969" fill="#010101" width="2.996" height="2.996"/>
	<rect x="31.99" y="18.977" fill="#010101" width="2.996" height="2.996"/>
</g>
</svg>
