<?xml version="1.0" encoding="utf-8"?>
<!-- Generator: Adobe Illustrator 17.0.0, SVG Export Plug-In . SVG Version: 6.00 Build 0)  -->
<!DOCTYPE svg PUBLIC "-//W3C//DTD SVG 1.1//EN" "http://www.w3.org/Graphics/SVG/1.1/DTD/svg11.dtd">
<svg version="1.1" id="Layer_1" xmlns="http://www.w3.org/2000/svg" xmlns:xlink="http://www.w3.org/1999/xlink" x="0px" y="0px"
	 width="48px" height="48px" viewBox="0 0 48 48" enable-background="new 0 0 48 48" xml:space="preserve">
<path fill="#010101" d="M44.079,20.591L23.749,0.293c-0.391-0.391-1.024-0.391-1.415,0.001L2.411,20.245
	c-1.957,1.963-1.867,5.245,0.2,7.315c1.025,1.025,2.424,1.613,3.839,1.613c1.33,0,2.565-0.504,3.475-1.417l8.32-8.312v24.549
	c-0.001,0.965,0.365,1.842,1.059,2.537c0.919,0.92,2.399,1.47,3.959,1.47c1.516,0,2.98-0.56,3.916-1.497
	c0.711-0.712,1.085-1.6,1.084-2.569V19.445l8.304,8.658c0.933,0.933,2.191,1.447,3.543,1.447c1.433,0,2.791-0.567,3.821-1.598
	C45.999,25.881,46.065,22.579,44.079,20.591z M42.516,26.537c-0.652,0.653-1.507,1.012-2.406,1.012
	c-0.817,0-1.574-0.305-2.114-0.846L27.985,16.265c-0.283-0.295-0.718-0.388-1.095-0.235c-0.379,0.153-0.627,0.52-0.627,0.928v26.978
	c0.001,0.44-0.162,0.817-0.499,1.154C25.203,45.651,24.245,46,23.263,46c-1.026,0-2-0.338-2.544-0.883
	c-0.32-0.321-0.475-0.687-0.474-1.123V17.032c0-0.405-0.243-0.769-0.617-0.924c-0.124-0.051-0.254-0.076-0.383-0.076
	c-0.26,0-0.516,0.102-0.708,0.293L8.509,26.343c-1.129,1.134-3.249,1.039-4.483-0.197c-1.29-1.292-1.379-3.305-0.199-4.489
	L23.043,2.414l19.622,19.59C43.873,23.212,43.805,25.245,42.516,26.537z"/>
</svg>
