<?xml version="1.0" encoding="utf-8"?>
<!-- Generator: Adobe Illustrator 17.0.0, SVG Export Plug-In . SVG Version: 6.00 Build 0)  -->
<!DOCTYPE svg PUBLIC "-//W3C//DTD SVG 1.1//EN" "http://www.w3.org/Graphics/SVG/1.1/DTD/svg11.dtd">
<svg version="1.1" id="Layer_1" xmlns="http://www.w3.org/2000/svg" xmlns:xlink="http://www.w3.org/1999/xlink" x="0px" y="0px"
	 width="48px" height="48px" viewBox="0 0 48 48" enable-background="new 0 0 48 48" xml:space="preserve">
<path fill="#010101" d="M47.651,12.037l-5.164-4.426c-0.418-0.361-1.05-0.312-1.41,0.107L23.997,27.64L6.923,7.719
	C6.75,7.517,6.505,7.393,6.24,7.372C5.975,7.35,5.714,7.437,5.513,7.61l-5.164,4.426c-0.419,0.359-0.467,0.99-0.108,1.409
	l22.997,26.836c0.19,0.222,0.467,0.35,0.759,0.35s0.569-0.128,0.759-0.35l23.003-26.835c0.172-0.201,0.259-0.462,0.238-0.727
	C47.977,12.455,47.852,12.209,47.651,12.037z M23.996,38.093L2.41,12.903l3.645-3.124l17.183,20.047
	c0.19,0.222,0.467,0.35,0.759,0.35s0.569-0.128,0.759-0.349L41.944,9.779l3.645,3.124L23.996,38.093z"/>
</svg>
