<?xml version="1.0" encoding="utf-8"?>
<!-- Generator: Adobe Illustrator 17.0.0, SVG Export Plug-In . SVG Version: 6.00 Build 0)  -->
<!DOCTYPE svg PUBLIC "-//W3C//DTD SVG 1.1//EN" "http://www.w3.org/Graphics/SVG/1.1/DTD/svg11.dtd">
<svg version="1.1" id="Layer_1" xmlns="http://www.w3.org/2000/svg" xmlns:xlink="http://www.w3.org/1999/xlink" x="0px" y="0px"
	 width="48px" height="48px" viewBox="0 0 48 48" enable-background="new 0 0 48 48" xml:space="preserve">
<path fill="#010101" d="M40.282,23.244L13.446,0.241c-0.201-0.172-0.451-0.26-0.727-0.238c-0.264,0.021-0.51,0.145-0.683,0.347
	L7.61,5.514c-0.359,0.419-0.311,1.05,0.108,1.409l19.922,17.08L7.718,41.076c-0.42,0.36-0.468,0.991-0.109,1.41l4.426,5.164
	c0.198,0.232,0.479,0.35,0.76,0.35c0.23,0,0.462-0.079,0.65-0.24l26.837-22.997c0.222-0.191,0.35-0.468,0.35-0.76
	S40.504,23.433,40.282,23.244z M12.903,45.59l-3.124-3.646l20.047-17.181c0.222-0.191,0.35-0.468,0.35-0.76s-0.128-0.57-0.349-0.759
	L9.779,6.056l3.124-3.646l25.191,21.593L12.903,45.59z"/>
</svg>
