<?xml version="1.0" encoding="utf-8"?>
<!-- Generator: Adobe Illustrator 17.0.0, SVG Export Plug-In . SVG Version: 6.00 Build 0)  -->
<!DOCTYPE svg PUBLIC "-//W3C//DTD SVG 1.1//EN" "http://www.w3.org/Graphics/SVG/1.1/DTD/svg11.dtd">
<svg version="1.1" id="Layer_1" xmlns="http://www.w3.org/2000/svg" xmlns:xlink="http://www.w3.org/1999/xlink" x="0px" y="0px"
	 width="48px" height="48px" viewBox="0 0 48 48" enable-background="new 0 0 48 48" xml:space="preserve">
<path fill="#010101" d="M47.74,18.327c-0.188-0.189-0.443-0.295-0.709-0.295H22.722l7.729-8.3c0.367-0.394,0.356-1.008-0.025-1.389
	l-6.9-6.9c-0.39-0.391-1.023-0.391-1.414,0l-21.85,21.85c-0.391,0.391-0.391,1.023,0,1.414l21.85,21.85
	c0.195,0.195,0.451,0.293,0.707,0.293c0.256,0,0.512-0.098,0.707-0.293l6.9-6.9c0.381-0.381,0.392-0.996,0.024-1.389l-7.63-8.174
	h24.149c0.55,0,0.997-0.444,1-0.994l0.062-10.062C48.032,18.772,47.928,18.516,47.74,18.327z M45.976,28.094H20.519
	c-0.399,0-0.758,0.236-0.917,0.601c-0.159,0.366-0.086,0.79,0.186,1.081l8.541,9.15l-5.51,5.51L2.383,24L22.82,3.564l5.51,5.511
	l-8.636,9.275c-0.271,0.292-0.344,0.716-0.185,1.081c0.159,0.365,0.519,0.601,0.917,0.601h25.6L45.976,28.094z"/>
</svg>
