<?xml version="1.0" encoding="utf-8"?>
<!-- Generator: Adobe Illustrator 17.0.0, SVG Export Plug-In . SVG Version: 6.00 Build 0)  -->
<!DOCTYPE svg PUBLIC "-//W3C//DTD SVG 1.1//EN" "http://www.w3.org/Graphics/SVG/1.1/DTD/svg11.dtd">
<svg version="1.1" id="Layer_1" xmlns="http://www.w3.org/2000/svg" xmlns:xlink="http://www.w3.org/1999/xlink" x="0px" y="0px"
	 width="48px" height="48px" viewBox="0 0 48 48" enable-background="new 0 0 48 48" xml:space="preserve">
<g>
	<path fill="#010101" d="M23.26,34.225L13.225,23.804l10.129-10.13c0.286-0.286,0.372-0.716,0.217-1.09
		c-0.155-0.373-0.52-0.617-0.924-0.617H11.824c-0.265,0-0.519,0.105-0.707,0.293L0.293,23.084c-0.385,0.385-0.391,1.008-0.013,1.401
		l10.824,11.24c0.188,0.195,0.448,0.306,0.72,0.306h10.823c0.007,0,0.014,0,0.02,0c0.552,0,1-0.448,1.001-1
		C23.668,34.7,23.507,34.407,23.26,34.225z M12.249,34.031L2.401,23.804l9.837-9.837h7.995l-9.116,9.117
		c-0.385,0.385-0.391,1.008-0.013,1.401l9.192,9.546H12.249z"/>
	<path fill="#010101" d="M39.495,34.225L29.46,23.804l10.13-10.13c0.286-0.286,0.372-0.716,0.217-1.09
		c-0.155-0.373-0.52-0.617-0.924-0.617h-8.118c-0.265,0-0.519,0.105-0.707,0.293L19.234,23.084
		c-0.385,0.385-0.391,1.008-0.013,1.401l10.823,11.24c0.188,0.195,0.448,0.306,0.72,0.306h8.118c0.007,0,0.014,0,0.02,0
		c0.553,0,1-0.448,1.001-1C39.903,34.7,39.742,34.407,39.495,34.225z M31.19,34.031l-9.848-10.227l9.836-9.837h5.29l-9.117,9.117
		c-0.385,0.385-0.391,1.008-0.013,1.401l9.193,9.546H31.19z"/>
	<path fill="#010101" d="M37.577,23.806l10.13-10.13c0.391-0.39,0.391-1.023,0-1.414c-0.391-0.391-1.023-0.391-1.414,0
		L35.469,23.086c-0.385,0.385-0.391,1.009-0.013,1.401l10.824,11.24c0.196,0.203,0.458,0.306,0.72,0.306
		c0.249,0,0.499-0.093,0.694-0.28c0.397-0.383,0.409-1.016,0.026-1.414L37.577,23.806z"/>
</g>
</svg>
