<?xml version="1.0" encoding="utf-8"?>
<!-- Generator: Adobe Illustrator 17.0.0, SVG Export Plug-In . SVG Version: 6.00 Build 0)  -->
<!DOCTYPE svg PUBLIC "-//W3C//DTD SVG 1.1//EN" "http://www.w3.org/Graphics/SVG/1.1/DTD/svg11.dtd">
<svg version="1.1" id="Layer_1" xmlns="http://www.w3.org/2000/svg" xmlns:xlink="http://www.w3.org/1999/xlink" x="0px" y="0px"
	 width="48px" height="48px" viewBox="0 0 48 48" enable-background="new 0 0 48 48" xml:space="preserve">
<path fill="#010101" d="M44.63,46.18L22.523,24.033L44.725,1.71c0.285-0.286,0.369-0.716,0.214-1.089
	c-0.155-0.373-0.519-0.616-0.923-0.616H26.873c-0.266,0-0.521,0.106-0.709,0.295L3.26,23.329c-0.389,0.39-0.388,1.021,0.001,1.411
	L26.18,47.701c0.188,0.189,0.442,0.294,0.708,0.294h17.143c0.007-0.001,0.013-0.001,0.02,0c0.553,0,1-0.447,1-1
	C45.051,46.659,44.885,46.362,44.63,46.18z M27.303,45.995L5.38,24.033L27.289,2.005h14.322L20.402,23.329
	c-0.388,0.39-0.387,1.021,0.002,1.411L41.62,45.995H27.303z"/>
</svg>
