<?xml version="1.0" encoding="utf-8"?>
<!-- Generator: Adobe Illustrator 17.0.0, SVG Export Plug-In . SVG Version: 6.00 Build 0)  -->
<!DOCTYPE svg PUBLIC "-//W3C//DTD SVG 1.1//EN" "http://www.w3.org/Graphics/SVG/1.1/DTD/svg11.dtd">
<svg version="1.1" id="Layer_1" xmlns="http://www.w3.org/2000/svg" xmlns:xlink="http://www.w3.org/1999/xlink" x="0px" y="0px"
	 width="48px" height="48px" viewBox="0 0 48 48" enable-background="new 0 0 48 48" xml:space="preserve">
<g>
	<path fill="#010101" d="M40.205,23.305L25.719,8.332c-0.284-0.293-0.718-0.384-1.094-0.232C24.247,8.253,24,8.619,24,9.027v8.99
		L9,18.01c-0.265,0-0.52,0.106-0.707,0.293C8.105,18.49,8,18.745,8,19.01v9.989c0,0.552,0.447,0.999,0.999,0.999L24,30.008V39
		c0,0.408,0.247,0.774,0.625,0.927C24.747,39.976,24.874,40,25,40c0.266,0,0.527-0.106,0.72-0.305l14.486-15
		C40.58,24.307,40.58,23.692,40.205,23.305z M26,36.525v-7.516c0-0.552-0.447-1-0.999-1L10,27.999V20.01l15,0.007
		c0.265,0,0.519-0.105,0.707-0.293C25.894,19.537,26,19.282,26,19.017v-7.519L38.096,24L26,36.525z"/>
	<path fill="#010101" d="M24,0C10.767,0,0,10.767,0,24c0,13.233,10.767,24,24,24c13.233,0,24-10.767,24-24S37.233,0,24,0z M24,46
		C11.869,46,2,36.131,2,24S11.869,2,24,2s22,9.869,22,22S36.131,46,24,46z"/>
</g>
</svg>
