<?xml version="1.0" encoding="utf-8"?>
<!-- Generator: Adobe Illustrator 17.0.0, SVG Export Plug-In . SVG Version: 6.00 Build 0)  -->
<!DOCTYPE svg PUBLIC "-//W3C//DTD SVG 1.1//EN" "http://www.w3.org/Graphics/SVG/1.1/DTD/svg11.dtd">
<svg version="1.1" id="Layer_1" xmlns="http://www.w3.org/2000/svg" xmlns:xlink="http://www.w3.org/1999/xlink" x="0px" y="0px"
	 width="48px" height="48px" viewBox="0 0 48 48" enable-background="new 0 0 48 48" xml:space="preserve">
<path fill="#010101" d="M46.407,22.139l-21.85-21.85c-0.391-0.391-1.023-0.391-1.414,0l-21.85,21.85
	c-0.391,0.391-0.391,1.023,0,1.414l6.9,6.9c0.377,0.377,0.984,0.392,1.379,0.034L18,22.841v24.163c0,0.552,0.448,1,1,1h10
	c0.552,0,1-0.448,1-1.001V22.856l8.115,7.619c0.393,0.37,1.011,0.359,1.392-0.022l6.9-6.9c0.188-0.188,0.293-0.442,0.293-0.707
	S46.595,22.327,46.407,22.139z M38.778,28.354l-9.093-8.537c-0.292-0.274-0.718-0.347-1.082-0.189
	C28.237,19.787,28,20.147,28,20.546v25.458h-8V20.583c0-0.395-0.233-0.753-0.596-0.913c-0.36-0.16-0.783-0.092-1.077,0.173
	l-9.394,8.522l-5.519-5.519L23.85,2.41l20.436,20.436L38.778,28.354z"/>
</svg>
