<?xml version="1.0" encoding="utf-8"?>
<!-- Generator: Adobe Illustrator 17.0.0, SVG Export Plug-In . SVG Version: 6.00 Build 0)  -->
<!DOCTYPE svg PUBLIC "-//W3C//DTD SVG 1.1//EN" "http://www.w3.org/Graphics/SVG/1.1/DTD/svg11.dtd">
<svg version="1.1" id="Layer_1" xmlns="http://www.w3.org/2000/svg" xmlns:xlink="http://www.w3.org/1999/xlink" x="0px" y="0px"
	 width="48px" height="48px" viewBox="0 0 48 48" enable-background="new 0 0 48 48" xml:space="preserve">
<g>
	<path fill="#010101" d="M47.721,23.516l-10.823-11.24c-0.189-0.195-0.45-0.306-0.721-0.306H25.353c-0.401,0-0.764,0.239-0.92,0.608
		c-0.157,0.369-0.078,0.796,0.199,1.085l10.143,10.533l-10.13,10.13c-0.286,0.286-0.372,0.716-0.217,1.09
		c0.155,0.373,0.52,0.617,0.924,0.617h10.825c0.265,0,0.519-0.106,0.707-0.293l10.823-10.823
		C48.093,24.532,48.099,23.909,47.721,23.516z M35.763,34.033h-7.996l9.116-9.117c0.386-0.385,0.392-1.008,0.014-1.401l-9.193-9.546
		h8.047l9.848,10.227L35.763,34.033z"/>
	<path fill="#010101" d="M28.779,23.516l-10.823-11.24c-0.189-0.195-0.45-0.306-0.721-0.306H9.118c-0.401,0-0.764,0.239-0.92,0.608
		c-0.157,0.369-0.078,0.796,0.199,1.085L18.54,24.196L8.411,34.326c-0.286,0.286-0.372,0.716-0.217,1.09
		c0.154,0.373,0.52,0.617,0.924,0.617h8.117c0.266,0,0.52-0.106,0.707-0.293l10.823-10.823
		C29.151,24.532,29.157,23.909,28.779,23.516z M16.821,34.033h-5.289l9.116-9.117c0.386-0.385,0.392-1.008,0.014-1.401l-9.192-9.546
		h5.34l9.847,10.227L16.821,34.033z"/>
	<path fill="#010101" d="M12.543,23.513L1.72,12.273c-0.384-0.397-1.018-0.408-1.414-0.026c-0.398,0.383-0.41,1.016-0.027,1.414
		l10.143,10.533L0.293,34.324c-0.391,0.391-0.391,1.023,0,1.414C0.488,35.933,0.744,36.031,1,36.031s0.512-0.097,0.707-0.293
		l10.822-10.824C12.915,24.529,12.921,23.906,12.543,23.513z"/>
</g>
</svg>
