<?xml version="1.0" encoding="utf-8"?>
<!-- Generator: Adobe Illustrator 17.0.0, SVG Export Plug-In . SVG Version: 6.00 Build 0)  -->
<!DOCTYPE svg PUBLIC "-//W3C//DTD SVG 1.1//EN" "http://www.w3.org/Graphics/SVG/1.1/DTD/svg11.dtd">
<svg version="1.1" id="Layer_1" xmlns="http://www.w3.org/2000/svg" xmlns:xlink="http://www.w3.org/1999/xlink" x="0px" y="0px"
	 width="48px" height="48px" viewBox="0 0 48 48" enable-background="new 0 0 48 48" xml:space="preserve">
<g>
	<path fill="#010101" d="M12.555,33.406c0.118,0.046,0.24,0.068,0.362,0.068c0.275,0,0.544-0.114,0.737-0.326l10.343-11.295
		l10.262,11.294c0.279,0.306,0.716,0.41,1.101,0.26c0.386-0.149,0.64-0.52,0.64-0.933v-7.263c0-0.249-0.093-0.488-0.26-0.673
		l-11-12.105c-0.189-0.208-0.457-0.326-0.738-0.327c-0.001,0-0.001,0-0.002,0c-0.28,0-0.548,0.118-0.737,0.325L12.18,24.536
		c-0.169,0.184-0.263,0.425-0.263,0.675v7.263C11.917,32.886,12.17,33.257,12.555,33.406z M13.917,25.6l10.08-11.01L34,25.598v4.288
		l-9.26-10.191c-0.189-0.208-0.457-0.326-0.738-0.327c-0.001,0-0.001,0-0.002,0c-0.28,0-0.548,0.118-0.737,0.325L13.917,29.9V25.6z"
		/>
	<path fill="#010101" d="M47,0H1C0.447,0,0,0.447,0,1v46c0,0.553,0.447,1,1,1h46c0.553,0,1-0.447,1-1V1C48,0.447,47.553,0,47,0z
		 M46,46H2V2h44V46z"/>
</g>
</svg>
