<?xml version="1.0" encoding="utf-8"?>
<!-- Generator: Adobe Illustrator 17.0.0, SVG Export Plug-In . SVG Version: 6.00 Build 0)  -->
<!DOCTYPE svg PUBLIC "-//W3C//DTD SVG 1.1//EN" "http://www.w3.org/Graphics/SVG/1.1/DTD/svg11.dtd">
<svg version="1.1" id="Layer_1" xmlns="http://www.w3.org/2000/svg" xmlns:xlink="http://www.w3.org/1999/xlink" x="0px" y="0px"
	 width="48px" height="48px" viewBox="0 0 48 48" enable-background="new 0 0 48 48" xml:space="preserve">
<path fill="#010101" d="M45.66,21.249c-0.413-0.363-1.045-0.325-1.411,0.091L24,44.35V1c0-0.553-0.447-1-1-1s-1,0.447-1,1v43.35
	L1.751,21.34c-0.366-0.418-0.999-0.454-1.411-0.091c-0.415,0.365-0.455,0.997-0.091,1.411l22,25c0.007,0.007,0.017,0.01,0.023,0.017
	c0.071,0.077,0.158,0.134,0.25,0.185c0.027,0.015,0.047,0.038,0.075,0.051C22.721,47.967,22.856,48,23,48s0.279-0.033,0.402-0.087
	c0.028-0.012,0.048-0.036,0.075-0.05c0.092-0.051,0.179-0.109,0.251-0.185c0.007-0.007,0.017-0.01,0.023-0.017l22-25
	C46.115,22.246,46.075,21.614,45.66,21.249z"/>
</svg>
