<?xml version="1.0" encoding="utf-8"?>
<!-- Generator: Adobe Illustrator 17.0.0, SVG Export Plug-In . SVG Version: 6.00 Build 0)  -->
<!DOCTYPE svg PUBLIC "-//W3C//DTD SVG 1.1//EN" "http://www.w3.org/Graphics/SVG/1.1/DTD/svg11.dtd">
<svg version="1.1" id="Layer_1" xmlns="http://www.w3.org/2000/svg" xmlns:xlink="http://www.w3.org/1999/xlink" x="0px" y="0px"
	 width="48px" height="48px" viewBox="0 0 48 48" enable-background="new 0 0 48 48" xml:space="preserve">
<g>
	<path fill="#010101" d="M39.68,23.293L24.706,8.32c-0.391-0.391-1.023-0.391-1.414,0l-3.993,3.993
		c-0.39,0.39-0.391,1.021-0.003,1.412l6.295,6.344H9.07c-0.553,0-1,0.448-1,1v5.989c0,0.552,0.447,1,1,1h16.496l-6.263,6.213
		c-0.189,0.187-0.295,0.442-0.296,0.708c-0.001,0.266,0.104,0.521,0.293,0.709l3.993,3.992c0.195,0.195,0.451,0.293,0.707,0.293
		s0.512-0.098,0.707-0.293L39.68,24.707c0.188-0.187,0.293-0.442,0.293-0.707S39.868,23.481,39.68,23.293z M24,37.559l-2.576-2.576
		l7.273-7.215c0.288-0.286,0.375-0.716,0.221-1.091c-0.154-0.374-0.52-0.619-0.925-0.619H10.07v-3.989h17.923
		c0.403,0,0.768-0.243,0.923-0.616c0.155-0.373,0.071-0.802-0.213-1.089l-7.285-7.341L24,10.441L37.56,24L24,37.559z"/>
	<path fill="#010101" d="M24,0.002C10.767,0.002,0,10.767,0,24c0,13.233,10.767,23.999,24,23.999c13.233,0,24-10.766,24-23.999
		S37.233,0.002,24,0.002z M24,45.999C11.869,45.999,2,36.13,2,24S11.869,2.001,24,2.001S46,11.87,46,24S36.131,45.999,24,45.999z"/>
</g>
</svg>
