<?xml version="1.0" encoding="utf-8"?>
<!-- Generator: Adobe Illustrator 17.0.0, SVG Export Plug-In . SVG Version: 6.00 Build 0)  -->
<!DOCTYPE svg PUBLIC "-//W3C//DTD SVG 1.1//EN" "http://www.w3.org/Graphics/SVG/1.1/DTD/svg11.dtd">
<svg version="1.1" id="Layer_1" xmlns="http://www.w3.org/2000/svg" xmlns:xlink="http://www.w3.org/1999/xlink" x="0px" y="0px"
	 width="48px" height="48px" viewBox="0 0 48 48" enable-background="new 0 0 48 48" xml:space="preserve">
<path fill="#010101" d="M48,11.068c0.002-0.267-0.104-0.524-0.293-0.713L37.644,0.293C37.455,0.104,37.159-0.011,36.931,0
	c-0.268,0.001-0.522,0.11-0.709,0.301l-22.16,22.682V8.938c0-0.552-0.447-1-1-1H1c-0.553,0-1,0.448-1,1V47c0,0.552,0.447,1,1,1
	h38.062c0.553,0,1-0.448,1-1V34.916c0-0.552-0.447-1-1-1H25.018l22.68-22.138C47.89,11.591,47.998,11.335,48,11.068z M21.864,34.201
	c-0.291,0.284-0.381,0.717-0.228,1.093c0.154,0.377,0.52,0.623,0.926,0.623h15.5V46H2V9.938h10.062v15.5
	c0,0.406,0.246,0.772,0.623,0.926c0.375,0.153,0.809,0.063,1.092-0.228L36.945,2.423l8.632,8.631L21.864,34.201z"/>
</svg>
