<?xml version="1.0" encoding="utf-8"?>
<!-- Generator: Adobe Illustrator 17.0.0, SVG Export Plug-In . SVG Version: 6.00 Build 0)  -->
<!DOCTYPE svg PUBLIC "-//W3C//DTD SVG 1.1//EN" "http://www.w3.org/Graphics/SVG/1.1/DTD/svg11.dtd">
<svg version="1.1" id="Layer_1" xmlns="http://www.w3.org/2000/svg" xmlns:xlink="http://www.w3.org/1999/xlink" x="0px" y="0px"
	 width="48px" height="48px" viewBox="0 0 48 48" enable-background="new 0 0 48 48" xml:space="preserve">
<g>
	<path fill="#010101" d="M47,6H16c-0.287,0-0.56,0.123-0.75,0.339l-15,17c-0.334,0.378-0.334,0.944,0,1.322l15,17
		C15.44,41.877,15.713,42,16,42h31c0.552,0,1-0.447,1-1V7C48,6.447,47.552,6,47,6z M46,40H16.451L2.333,24L16.451,8H46V40z"/>
	<path fill="#010101" d="M21.293,32.707C21.488,32.902,21.744,33,22,33s0.512-0.098,0.707-0.293L30,25.414l7.293,7.293
		C37.488,32.902,37.744,33,38,33s0.512-0.098,0.707-0.293c0.391-0.391,0.391-1.023,0-1.414L31.414,24l7.293-7.293
		c0.391-0.391,0.391-1.023,0-1.414c-0.391-0.391-1.023-0.391-1.414,0L30,22.586l-7.293-7.293c-0.391-0.391-1.023-0.391-1.414,0
		c-0.391,0.391-0.391,1.023,0,1.414L28.586,24l-7.293,7.293C20.902,31.684,20.902,32.316,21.293,32.707z"/>
</g>
</svg>
