<?xml version="1.0" encoding="utf-8"?>
<!-- Generator: Adobe Illustrator 17.0.0, SVG Export Plug-In . SVG Version: 6.00 Build 0)  -->
<!DOCTYPE svg PUBLIC "-//W3C//DTD SVG 1.1//EN" "http://www.w3.org/Graphics/SVG/1.1/DTD/svg11.dtd">
<svg version="1.1" id="Layer_1" xmlns="http://www.w3.org/2000/svg" xmlns:xlink="http://www.w3.org/1999/xlink" x="0px" y="0px"
	 width="48px" height="48px" viewBox="0 0 48 48" enable-background="new 0 0 48 48" xml:space="preserve">
<g>
	<path fill="#010101" d="M37.372,21.548c-0.368-0.158-0.792-0.083-1.083,0.191L23.961,33.357L11.713,21.741
		c-0.289-0.275-0.714-0.349-1.083-0.193c-0.367,0.158-0.605,0.52-0.605,0.919v12.266c0,0.275,0.113,0.537,0.312,0.726L23.27,47.726
		C23.463,47.909,23.71,48,23.958,48c0.247,0,0.494-0.091,0.686-0.272l13.018-12.267c0.2-0.189,0.314-0.453,0.314-0.728V22.466
		C37.976,22.067,37.738,21.706,37.372,21.548z M35.975,34.302L23.961,45.624l-11.936-11.32v-9.51L23.27,35.459
		c0.385,0.366,0.988,0.366,1.374,0.002l11.331-10.678V34.302z"/>
	<path fill="#010101" d="M23.27,26.259c0.193,0.183,0.44,0.274,0.688,0.274c0.247,0,0.494-0.091,0.686-0.272l13.017-12.267
		c0.2-0.188,0.314-0.452,0.314-0.727V1c0-0.399-0.237-0.76-0.603-0.918c-0.368-0.159-0.792-0.084-1.083,0.19L23.961,11.89
		L11.713,0.274C11.424,0,10.998-0.076,10.63,0.081C10.263,0.239,10.025,0.601,10.025,1v12.266c0,0.275,0.113,0.537,0.312,0.726
		L23.27,26.259z M12.025,3.327L23.27,13.992c0.385,0.366,0.988,0.367,1.374,0.002L35.975,3.316v9.519L23.961,24.157l-11.936-11.32
		V3.327z"/>
</g>
</svg>
