<?xml version="1.0" encoding="utf-8"?>
<!-- Generator: Adobe Illustrator 17.0.0, SVG Export Plug-In . SVG Version: 6.00 Build 0)  -->
<!DOCTYPE svg PUBLIC "-//W3C//DTD SVG 1.1//EN" "http://www.w3.org/Graphics/SVG/1.1/DTD/svg11.dtd">
<svg version="1.1" id="Layer_1" xmlns="http://www.w3.org/2000/svg" xmlns:xlink="http://www.w3.org/1999/xlink" x="0px" y="0px"
	 width="48px" height="48px" viewBox="0 0 48 48" enable-background="new 0 0 48 48" xml:space="preserve">
<path fill="#010101" d="M41.71,18.015L31.722,7.939c-0.285-0.288-0.715-0.374-1.091-0.221c-0.374,0.155-0.619,0.52-0.619,0.925
	v16.186L12.005,7.38C11.613,7,10.988,7.004,10.602,7.391l-7.071,7.071c-0.386,0.385-0.391,1.008-0.013,1.401l17.458,18.113H4.93
	c-0.403,0-0.767,0.242-0.923,0.614c-0.155,0.372-0.072,0.801,0.212,1.088l9.9,10.025C14.307,45.893,14.562,46,14.83,46H41
	c0.552,0,1-0.448,1-1V18.719C42,18.456,41.896,18.203,41.71,18.015z M40,44H15.248l-7.925-8.024H23.33c0.4,0,0.763-0.24,0.92-0.609
	s0.078-0.796-0.2-1.085l-18.411-19.1l5.681-5.68l18.996,18.406c0.289,0.279,0.716,0.358,1.086,0.203
	c0.37-0.157,0.61-0.52,0.61-0.921V11.072L40,19.131V44z"/>
</svg>
