<?xml version="1.0" encoding="utf-8"?>
<!-- Generator: Adobe Illustrator 17.0.0, SVG Export Plug-In . SVG Version: 6.00 Build 0)  -->
<!DOCTYPE svg PUBLIC "-//W3C//DTD SVG 1.1//EN" "http://www.w3.org/Graphics/SVG/1.1/DTD/svg11.dtd">
<svg version="1.1" id="Layer_1" xmlns="http://www.w3.org/2000/svg" xmlns:xlink="http://www.w3.org/1999/xlink" x="0px" y="0px"
	 width="48px" height="48px" viewBox="0 0 48 48" enable-background="new 0 0 48 48" xml:space="preserve">
<g>
	<path fill="#010101" d="M18.451,36.812c0.195,0.195,0.451,0.293,0.707,0.293c0.256,0,0.511-0.097,0.707-0.293L31.97,24.707
		c0.391-0.391,0.391-1.023,0-1.414L19.865,11.188c-0.391-0.391-1.023-0.391-1.414,0s-0.391,1.023,0,1.414L29.849,24L18.451,35.398
		C18.06,35.789,18.06,36.421,18.451,36.812z"/>
	<path fill="#010101" d="M47,0H1C0.448,0,0,0.447,0,1v46c0,0.553,0.448,1,1,1h46c0.552,0,1-0.447,1-1V1C48,0.447,47.552,0,47,0z
		 M46,46H2V2h44V46z"/>
</g>
</svg>
