<?xml version="1.0" encoding="utf-8"?>
<!-- Generator: Adobe Illustrator 17.0.0, SVG Export Plug-In . SVG Version: 6.00 Build 0)  -->
<!DOCTYPE svg PUBLIC "-//W3C//DTD SVG 1.1//EN" "http://www.w3.org/Graphics/SVG/1.1/DTD/svg11.dtd">
<svg version="1.1" id="Layer_1" xmlns="http://www.w3.org/2000/svg" xmlns:xlink="http://www.w3.org/1999/xlink" x="0px" y="0px"
	 width="48px" height="48px" viewBox="0 0 48 48" enable-background="new 0 0 48 48" xml:space="preserve">
<g>
	<path fill="#010101" d="M13.062,36.053h15.494c0.254,0,0.5-0.097,0.685-0.271l6.452-6.077c0.299-0.282,0.395-0.716,0.244-1.097
		c-0.152-0.381-0.52-0.631-0.93-0.631h-9.029l11.018-11c0.189-0.187,0.294-0.442,0.294-0.707c0-0.265-0.105-0.519-0.293-0.707
		l-4.243-4.242c-0.386-0.387-1.011-0.391-1.404-0.01L20.046,22.297v-8.992c0-0.413-0.254-0.783-0.638-0.932
		c-0.385-0.148-0.821-0.048-1.101,0.257l-5.983,6.546c-0.168,0.185-0.262,0.426-0.262,0.675v15.202
		C12.062,35.605,12.509,36.053,13.062,36.053z M14.063,20.238l3.983-4.358v8.782c0,0.402,0.24,0.765,0.61,0.921
		c0.369,0.155,0.798,0.076,1.087-0.204l12.294-11.947l2.838,2.837l-12.02,11.999c-0.287,0.286-0.373,0.716-0.218,1.09
		c0.155,0.374,0.52,0.618,0.924,0.618h8.926l-4.328,4.077H14.063V20.238z"/>
	<path fill="#010101" d="M47,0H1C0.447,0,0,0.448,0,1v46c0,0.552,0.447,1,1,1h46c0.553,0,1-0.448,1-1V1C48,0.448,47.553,0,47,0z
		 M46,46H2V2h44V46z"/>
</g>
</svg>
