<?xml version="1.0" encoding="utf-8"?>
<!-- Generator: Adobe Illustrator 17.0.0, SVG Export Plug-In . SVG Version: 6.00 Build 0)  -->
<!DOCTYPE svg PUBLIC "-//W3C//DTD SVG 1.1//EN" "http://www.w3.org/Graphics/SVG/1.1/DTD/svg11.dtd">
<svg version="1.1" id="Layer_1" xmlns="http://www.w3.org/2000/svg" xmlns:xlink="http://www.w3.org/1999/xlink" x="0px" y="0px"
	 width="48px" height="48px" viewBox="0 0 48 48" enable-background="new 0 0 48 48" xml:space="preserve">
<g>
	<path fill="#010101" d="M35.423,24.432c-0.369-0.157-0.797-0.078-1.085,0.2L23.805,34.775l-10.13-10.129
		c-0.286-0.286-0.715-0.37-1.09-0.217c-0.374,0.155-0.617,0.52-0.617,0.924v10.823c0,0.265,0.105,0.519,0.293,0.707l10.823,10.824
		C23.279,47.902,23.535,48,23.791,48c0.25,0,0.5-0.093,0.693-0.28l11.24-10.825c0.197-0.188,0.307-0.448,0.307-0.72V25.352
		C36.031,24.952,35.792,24.589,35.423,24.432z M34.032,35.751l-10.227,9.848l-9.837-9.837h0.001v-7.995l9.116,9.116
		c0.386,0.386,1.009,0.39,1.4,0.013l9.547-9.192V35.751z"/>
	<path fill="#010101" d="M35.423,8.198c-0.369-0.158-0.797-0.078-1.085,0.2L23.805,18.541l-10.13-10.13
		c-0.286-0.286-0.715-0.371-1.09-0.217c-0.374,0.155-0.617,0.52-0.617,0.924v8.117c0,0.265,0.105,0.519,0.293,0.707l10.823,10.824
		c0.195,0.195,0.451,0.293,0.707,0.293c0.25,0,0.5-0.094,0.693-0.28l11.24-10.823c0.197-0.188,0.307-0.448,0.307-0.72V9.118
		C36.031,8.717,35.792,8.355,35.423,8.198z M34.032,16.809l-10.227,9.848l-9.837-9.836h0.001v-5.29l9.116,9.117
		c0.386,0.386,1.009,0.391,1.4,0.013l9.547-9.193V16.809z"/>
	<path fill="#010101" d="M23.085,12.531c0.195,0.195,0.451,0.293,0.707,0.293c0.25,0,0.5-0.093,0.694-0.28L35.726,1.72
		c0.398-0.383,0.41-1.016,0.027-1.414c-0.383-0.397-1.018-0.408-1.414-0.026L23.806,10.423l-10.13-10.13
		c-0.391-0.391-1.023-0.391-1.414,0c-0.391,0.391-0.391,1.023,0,1.414L23.085,12.531z"/>
</g>
</svg>
