<?xml version="1.0" encoding="utf-8"?>
<!-- Generator: Adobe Illustrator 17.0.0, SVG Export Plug-In . SVG Version: 6.00 Build 0)  -->
<!DOCTYPE svg PUBLIC "-//W3C//DTD SVG 1.1//EN" "http://www.w3.org/Graphics/SVG/1.1/DTD/svg11.dtd">
<svg version="1.1" id="Layer_1" xmlns="http://www.w3.org/2000/svg" xmlns:xlink="http://www.w3.org/1999/xlink" x="0px" y="0px"
	 width="48px" height="48px" viewBox="0 0 48 48" enable-background="new 0 0 48 48" xml:space="preserve">
<g>
	<path fill="#010101" d="M39.681,23.294l-3.993-3.993c-0.391-0.391-1.023-0.391-1.414,0l-6.279,6.278V9.039c0-0.552-0.448-1-1-1
		h-5.989c-0.552,0-1,0.448-1,1v16.539L13.727,19.3c-0.391-0.391-1.023-0.391-1.414,0L8.32,23.293c-0.391,0.391-0.391,1.023,0,1.414
		L23.293,39.68c0.187,0.188,0.442,0.293,0.707,0.293s0.519-0.105,0.707-0.293l14.974-14.972
		C40.072,24.317,40.072,23.685,39.681,23.294z M24,37.559L10.441,24l2.579-2.578l7.279,7.278c0.286,0.286,0.715,0.371,1.09,0.217
		c0.373-0.155,0.617-0.52,0.617-0.924V10.039h3.989v17.954c0,0.404,0.244,0.769,0.617,0.924c0.375,0.154,0.803,0.07,1.09-0.217
		l7.278-7.279L37.559,24L24,37.559z"/>
	<path fill="#010101" d="M24,0C10.767,0,0.001,10.767,0.001,24c0,13.233,10.766,24,23.999,24c13.233,0,23.998-10.767,23.998-24
		S37.233,0,24,0z M24,46C11.87,46,2.001,36.131,2.001,24S11.87,2,24,2s21.998,9.869,21.998,22S36.13,46,24,46z"/>
</g>
</svg>
