<?xml version="1.0" encoding="utf-8"?>
<!-- Generator: Adobe Illustrator 17.0.0, SVG Export Plug-In . SVG Version: 6.00 Build 0)  -->
<!DOCTYPE svg PUBLIC "-//W3C//DTD SVG 1.1//EN" "http://www.w3.org/Graphics/SVG/1.1/DTD/svg11.dtd">
<svg version="1.1" id="Layer_1" xmlns="http://www.w3.org/2000/svg" xmlns:xlink="http://www.w3.org/1999/xlink" x="0px" y="0px"
	 width="48px" height="48px" viewBox="0 0 48 48" enable-background="new 0 0 48 48" xml:space="preserve">
<path fill="#010101" d="M43.666,17.255l-19.021-17c-0.379-0.339-0.954-0.34-1.333,0l-18.979,17C4.121,17.445,4,17.716,4,18v14.25
	c0,0.393,0.229,0.749,0.587,0.911c0.359,0.162,0.776,0.1,1.072-0.159l12.32-10.796V47c0,0.552,0.447,1,1,1h10
	c0.553,0,1-0.448,1.001-1V22.173L42.35,32.76c0.297,0.254,0.714,0.312,1.068,0.148C43.772,32.745,44,32.391,44,32V18
	C44,17.715,43.879,17.444,43.666,17.255z M42,29.828L29.629,19.24c-0.295-0.252-0.712-0.311-1.068-0.148
	c-0.354,0.163-0.582,0.517-0.582,0.908v26h-8V20c0-0.393-0.23-0.749-0.587-0.911c-0.36-0.163-0.776-0.099-1.072,0.159L6,30.044
	V18.447L23.98,2.342L42,18.448V29.828z"/>
</svg>
