<?xml version="1.0" encoding="utf-8"?>
<!-- Generator: Adobe Illustrator 17.0.0, SVG Export Plug-In . SVG Version: 6.00 Build 0)  -->
<!DOCTYPE svg PUBLIC "-//W3C//DTD SVG 1.1//EN" "http://www.w3.org/Graphics/SVG/1.1/DTD/svg11.dtd">
<svg version="1.1" id="Layer_1" xmlns="http://www.w3.org/2000/svg" xmlns:xlink="http://www.w3.org/1999/xlink" x="0px" y="0px"
	 width="48px" height="48px" viewBox="0 0 48 48" enable-background="new 0 0 48 48" xml:space="preserve">
<g>
	<path fill="#010101" d="M24.707,23.293l-23-23c-0.391-0.391-1.023-0.391-1.414,0c-0.391,0.391-0.391,1.023,0,1.414L22.586,24
		L0.293,46.293c-0.391,0.391-0.391,1.023,0,1.414C0.488,47.902,0.744,48,1,48s0.512-0.098,0.707-0.293l23-23
		C25.098,24.316,25.098,23.684,24.707,23.293z"/>
	<path fill="#010101" d="M47.707,23.293l-23-23c-0.391-0.391-1.023-0.391-1.414,0c-0.391,0.391-0.391,1.023,0,1.414L45.586,24
		L23.293,46.293c-0.391,0.391-0.391,1.023,0,1.414C23.488,47.902,23.744,48,24,48s0.512-0.098,0.707-0.293l23-23
		C48.098,24.316,48.098,23.684,47.707,23.293z"/>
</g>
</svg>
