<?xml version="1.0" encoding="utf-8"?>
<!-- Generator: Adobe Illustrator 17.0.0, SVG Export Plug-In . SVG Version: 6.00 Build 0)  -->
<!DOCTYPE svg PUBLIC "-//W3C//DTD SVG 1.1//EN" "http://www.w3.org/Graphics/SVG/1.1/DTD/svg11.dtd">
<svg version="1.1" id="Layer_1" xmlns="http://www.w3.org/2000/svg" xmlns:xlink="http://www.w3.org/1999/xlink" x="0px" y="0px"
	 width="48px" height="48px" viewBox="0 0 48 48" enable-background="new 0 0 48 48" xml:space="preserve">
<g>
	<path fill="#010101" d="M35.051,20l-14.745,0.003l4.56-4.973c1.101-1.202,1.06-3.118-0.094-4.271l-0.592-0.591
		c-1.13-1.13-3.125-1.099-4.22,0.065L8.704,22.203c-1.116,1.187-1.101,3.104,0.034,4.274l10.996,11.324
		c0.565,0.581,1.322,0.901,2.132,0.901c0.793,0,1.539-0.309,2.099-0.872l0.593-0.591c1.151-1.15,1.2-3.068,0.111-4.276l-4.421-4.902
		h14.803c1.654,0,3-1.346,3-3v-2.062c0-0.799-0.312-1.552-0.88-2.119C36.603,20.312,35.85,20,35.051,20z M36.052,25.064
		c0,0.551-0.449,1-1,1H20.001c-1.331,0-1.795,0.72-1.933,1.03c-0.138,0.309-0.362,1.137,0.53,2.125l4.587,5.087
		c0.381,0.422,0.363,1.119-0.039,1.521l-0.593,0.592c-0.372,0.37-1.019,0.364-1.384-0.011L10.173,25.084
		c-0.394-0.406-0.4-1.097-0.012-1.51l11.256-11.971c0.182-0.193,0.425-0.299,0.685-0.299c0.249,0,0.485,0.099,0.665,0.278
		l0.592,0.591c0.399,0.4,0.414,1.089,0.033,1.505l-4.746,5.175c-0.901,0.983-0.681,1.809-0.545,2.119
		c0.136,0.309,0.598,1.03,1.931,1.03L35.053,22c0.551,0,0.999,0.449,0.999,1V25.064z"/>
	<path fill="#010101" d="M24,0C10.767,0,0,10.767,0,24c0,13.233,10.767,24,24,24c13.233,0,24-10.767,24-24S37.233,0,24,0z M24,46
		C11.869,46,2,36.131,2,24S11.869,2,24,2s22,9.869,22,22S36.131,46,24,46z"/>
</g>
</svg>
