<?xml version="1.0" encoding="utf-8"?>
<!-- Generator: Adobe Illustrator 17.0.0, SVG Export Plug-In . SVG Version: 6.00 Build 0)  -->
<!DOCTYPE svg PUBLIC "-//W3C//DTD SVG 1.1//EN" "http://www.w3.org/Graphics/SVG/1.1/DTD/svg11.dtd">
<svg version="1.1" id="Layer_1" xmlns="http://www.w3.org/2000/svg" xmlns:xlink="http://www.w3.org/1999/xlink" x="0px" y="0px"
	 width="48px" height="48px" viewBox="0 0 48 48" enable-background="new 0 0 48 48" xml:space="preserve">
<path fill="#010101" d="M44.74,23.26L21.82,0.299c-0.188-0.189-0.442-0.294-0.708-0.294H3.969c-0.405,0-0.769,0.243-0.924,0.617
	C2.89,0.995,2.976,1.425,3.261,1.711l22.215,22.256L3.275,46.29c-0.284,0.286-0.369,0.716-0.214,1.089
	c0.155,0.373,0.519,0.616,0.923,0.616h17.143c0.266,0,0.521-0.106,0.709-0.295l22.905-23.029C45.13,24.281,45.129,23.65,44.74,23.26
	z M20.711,45.995H6.389l21.209-21.324c0.388-0.39,0.387-1.021-0.002-1.411L6.38,2.005h14.317L42.62,23.967L20.711,45.995z"/>
</svg>
