<?xml version="1.0" encoding="utf-8"?>
<!-- Generator: Adobe Illustrator 17.0.0, SVG Export Plug-In . SVG Version: 6.00 Build 0)  -->
<!DOCTYPE svg PUBLIC "-//W3C//DTD SVG 1.1//EN" "http://www.w3.org/Graphics/SVG/1.1/DTD/svg11.dtd">
<svg version="1.1" id="Layer_1" xmlns="http://www.w3.org/2000/svg" xmlns:xlink="http://www.w3.org/1999/xlink" x="0px" y="0px"
	 width="48px" height="48px" viewBox="0 0 48 48" enable-background="new 0 0 48 48" xml:space="preserve">
<g>
	<path fill="#010101" d="M47,0H1C0.447,0,0,0.448,0,1v46c0,0.552,0.447,1,1,1h46c0.553,0,1-0.448,1-1V1C48,0.448,47.553,0,47,0z
		 M46,46H2V2h44V46z"/>
	<path fill="#010101" d="M22.359,28.016h-8.991c-0.412,0-0.782,0.253-0.932,0.637c-0.149,0.384-0.049,0.821,0.255,1.1l6.483,5.962
		c0.185,0.17,0.426,0.264,0.677,0.264h15.202c0.552,0,1-0.448,0.999-1V19.444c0-0.254-0.097-0.5-0.272-0.685l-6.075-6.453
		c-0.282-0.299-0.716-0.395-1.098-0.244c-0.381,0.152-0.631,0.52-0.631,0.93v9.029L16.978,11.003
		c-0.187-0.188-0.442-0.293-0.708-0.293s-0.519,0.105-0.707,0.293l-4.242,4.243c-0.387,0.387-0.391,1.012-0.01,1.404L22.359,28.016z
		 M16.269,13.125l11.999,12.02c0.286,0.286,0.718,0.372,1.09,0.217c0.374-0.154,0.618-0.519,0.618-0.924v-8.926l4.076,4.329v14.138
		H20.24l-4.309-3.962h8.793c0.403,0,0.765-0.241,0.921-0.611s0.076-0.798-0.204-1.086L13.432,15.963L16.269,13.125z"/>
</g>
</svg>
