<svg xmlns="http://www.w3.org/2000/svg" width="24" height="24" viewBox="0 0 24 24"><g><path fill-rule="evenodd" d="M19,1.001 L15.722,1.001 C15.375,0.406 14.738,0.001 14,0.001 L6,0.001 C5.263,0.001 4.625,0.406 4.278,1.001 L1,1.001 C0.447,1.001 4.4408921e-16,1.448 4.4408921e-16,2.001 L4.4408921e-16,5.04 C4.4408921e-16,5.956 0.41,6.81 1.126,7.383 L5.305,10.726 C6.207,11.86 7.51,12.659 9,12.911 L9,15.001 L7,15.001 C6.447,15.001 6,15.448 6,16.001 L6,18.001 L5,18.001 L5,20.001 L7,20.001 L13,20.001 L15,20.001 L15,18.001 L14,18.001 L14,16.001 C14,15.448 13.553,15.001 13,15.001 L11,15.001 L11,12.911 C12.49,12.659 13.793,11.86 14.695,10.725 L18.875,7.381 C19.59,6.81 20,5.956 20,5.04 L20,2.001 C20,1.448 19.553,1.001 19,1.001 L19,1.001 Z M12,18.001 L8,18.001 L8,17.001 L12,17.001 L12,18.001 Z M2.376,5.821 C2.137,5.631 2,5.345 2,5.04 L2,3.001 L4,3.001 L4,7.001 C4,7.043 4.006,7.084 4.006,7.126 L2.376,5.821 Z M10,11.001 C7.795,11.001 6,9.207 6,7.001 L6,2.001 L14,2.001 L14,7.001 C14,9.207 12.205,11.001 10,11.001 Z M18,5.04 C18,5.345 17.863,5.631 17.625,5.821 L15.994,7.126 C15.994,7.084 16,7.043 16,7.001 L16,3.001 L18,3.001 L18,5.04 Z" transform="translate(2 2)"/></g></svg>
