<svg xmlns="http://www.w3.org/2000/svg" viewBox="0 0 21 20"><path fill-rule="evenodd" d="M3.97 2.47a.75.75 0 0 1 1.06 0l2.301 2.3C8.317 4.303 9.385 4 10.5 4c4.97 0 9 6 9 6s-1.3 1.935-3.332 3.607l1.785 1.786a.75.75 0 0 1-1.06 1.06L3.97 3.53a.75.75 0 0 1 0-1.06ZM15.1 12.54c.257-.206.506-.422.747-.643A18.146 18.146 0 0 0 17.622 10a18.144 18.144 0 0 0-1.774-1.897C14.3 6.677 12.408 5.5 10.5 5.5c-.683 0-1.365.151-2.029.41l1.204 1.205a3.002 3.002 0 0 1 3.71 3.71l1.716 1.716ZM7.69 8.95a3 3 0 0 0 3.861 3.861L7.69 8.95ZM1.5 10s4.03 6 9 6c1.192 0 2.33-.345 3.37-.87l-1.128-1.128c-.732.313-1.486.498-2.242.498-1.907 0-3.8-1.178-5.348-2.604A18.144 18.144 0 0 1 3.378 10a18.143 18.143 0 0 1 1.774-1.897c.293-.27.598-.53.914-.776L4.998 6.259A18.881 18.881 0 0 0 1.5 9.999Z" clip-rule="evenodd"/></svg>
