<svg xmlns="http://www.w3.org/2000/svg" width="24" height="24" viewBox="0 0 24 24"><g><g  fill-rule="evenodd" transform="translate(2.333 1.333)"><circle cx="9.853" cy="6.64" r="1.92"/><path d="M9.85333333,20.08 C5.22997333,20.08 0.253333333,18.87904 0.253333333,16.24 C0.253333333,15.32416 0.875413333,14.04736 3.83797333,13.16704 L4.38421333,15.00736 C2.55733333,15.55072 2.17333333,16.14592 2.17333333,16.24 C2.17333333,16.7344 4.81333333,18.16 9.85333333,18.16 C14.8933333,18.16 17.5333333,16.7344 17.5333333,16.24 C17.5333333,16.14592 17.1512533,15.55264 15.3358933,15.01216 L15.8830933,13.17184 C18.8341333,14.05024 19.4533333,15.32512 19.4533333,16.24 C19.4533333,18.87904 14.4766933,20.08 9.85333333,20.08 Z"/><path d="M9.85333333,16.6384 L9.17461333,15.95872 C8.96725333,15.75136 4.09333333,10.8304 4.09333333,6.64 C4.09333333,3.46432 6.67669333,0.88 9.85333333,0.88 C13.0299733,0.88 15.6133333,3.46432 15.6133333,6.64 C15.6133333,10.8304 10.7394133,15.75136 10.5320533,15.95872 L9.85333333,16.6384 Z M9.85333333,2.8 C7.73557333,2.8 6.01333333,4.52224 6.01333333,6.64 C6.01333333,9.03808 8.37397333,12.20608 9.85333333,13.87456 C11.3326933,12.20608 13.6933333,9.03712 13.6933333,6.64 C13.6933333,4.52224 11.9710933,2.8 9.85333333,2.8 Z"/></g></g></svg>
