<svg version="1.1" xmlns="http://www.w3.org/2000/svg" xmlns:xlink="http://www.w3.org/1999/xlink" x="0px" y="0px" width="24px"
	 height="24px" viewBox="0 0 24 24" enable-background="new 0 0 24 24" xml:space="preserve">
<g id="Outline_Icons_1_">
	<g id="Outline_Icons">
		<path d="M23.5,2C23.224,2,23,2.224,23,2.5v0.63L1,9.825V9.5C1,9.224,0.776,9,0.5,9S0,9.224,0,9.5v1v3v1C0,14.776,0.224,15,0.5,15
			S1,14.776,1,14.5v-0.325l4,1.218v2.219c0,2.206,1.794,4,4,4c2.135,0,3.889-1.684,4-3.791l10,3.05V21.5c0,0.276,0.224,0.5,0.5,0.5
			s0.5-0.224,0.5-0.5v-1v-17v-1C24,2.224,23.776,2,23.5,2z M12,17.494c0,1.655-1.346,3.117-3,3.117s-3-1.346-3-3v-1.915L12,17.494z
			 M1,13.13v-2.259l22-6.696v15.65L1,13.13z"/>
	</g>
</g>
</svg>
