<svg xmlns="http://www.w3.org/2000/svg" width="24" height="24" viewBox="0 0 24 24"><g><path  fill-rule="evenodd" d="M10.999,0.999 L2.999,0.999 C1.896,0.999 0.999,1.895 0.999,2.999 L0.999,18.999 C0.999,20.103 1.896,20.999 2.999,20.999 L10.999,20.999 C12.102,20.999 12.999,20.103 12.999,18.999 L12.999,2.999 C12.999,1.896 12.102,0.999 10.999,0.999 Z M10.999,2.999 L10.999,4.999 L2.999,4.999 L2.999,2.999 L10.999,2.999 L10.999,2.999 Z M11,6.999 L11,14.999 L2.999,14.999 L2.999,6.999 L11,6.999 L11,6.999 Z M2.999,18.999 L2.999,16.999 L11,16.999 L11,18.999 L2.999,18.999 Z" transform="translate(5 1)"/></g></svg>