<?xml version="1.0" encoding="utf-8"?>
<!-- Generator: Adobe Illustrator 16.0.3, SVG Export Plug-In . SVG Version: 6.00 Build 0)  -->
<!DOCTYPE svg PUBLIC "-//W3C//DTD SVG 1.1//EN" "http://www.w3.org/Graphics/SVG/1.1/DTD/svg11.dtd">
<svg version="1.1" xmlns="http://www.w3.org/2000/svg" xmlns:xlink="http://www.w3.org/1999/xlink" x="0px" y="0px" width="24px"
	 height="24px" viewBox="0 0 24 24" enable-background="new 0 0 24 24" xml:space="preserve">
<g id="Outline_Icons_1_">
	<g id="Outline_Icons">
		<g>
			<g>
				<path d="M12.5,22c-0.004,0-0.009,0-0.014,0c-0.241-0.007-0.443-0.184-0.48-0.422L9.348,4.746l-2.369,7.898
					C6.916,12.855,6.721,13,6.5,13h-6C0.224,13,0,12.776,0,12.5S0.224,12,0.5,12h5.628l2.893-9.644
					c0.067-0.224,0.29-0.365,0.513-0.355c0.233,0.016,0.424,0.19,0.46,0.421l2.581,16.344l2.437-11.372
					c0.046-0.214,0.227-0.374,0.446-0.393c0.235-0.024,0.425,0.109,0.507,0.312L17.838,12H23.5c0.276,0,0.5,0.224,0.5,0.5
					S23.776,13,23.5,13h-6c-0.205,0-0.388-0.125-0.464-0.314l-1.391-3.477l-2.656,12.396C12.939,21.836,12.735,22,12.5,22z"/>
			</g>
		</g>
	</g>
</g>
</svg>
