<svg xmlns="http://www.w3.org/2000/svg" width="24" height="24" viewBox="0 0 24 24"><g><path  fill-rule="evenodd" d="M2,5 L2,3 L5.27,3 L6.21,5 L21,5 C21.55,5 22,5.45 22,6 C22,6.17 21.96,6.34 21.88,6.48 L18.3,12.97 C17.96,13.59 17.3,14 16.55,14 L9.1,14 L8.2,15.63 L8.17,15.75 C8.17,15.89 8.28,16 8.42,16 L20,16 L20,18 L8,18 C6.9,18 6,17.1 6,16 C6,15.65 6.09,15.32 6.25,15.04 L7.6,12.59 L4,5 L2,5 Z M8,19 C9.1,19 10,19.9 10,21 C10,22.1 9.1,23 8,23 C6.9,23 6.01,22.1 6.01,21 C6.01,19.9 6.9,19 8,19 Z M18,19 C19.1,19 20,19.9 20,21 C20,22.1 19.1,23 18,23 C16.9,23 16.01,22.1 16.01,21 C16.01,19.9 16.9,19 18,19 Z M6.95080566,7 L9.31814575,12 L16.8439331,12 L19.6009521,7 L6.95080566,7 Z"/></g></svg>