<svg version="1.1" xmlns="http://www.w3.org/2000/svg" xmlns:xlink="http://www.w3.org/1999/xlink" x="0px" y="0px" width="24px"
	 height="24px" viewBox="0 0 24 24" enable-background="new 0 0 24 24" xml:space="preserve">
<g id="Outline_Icons">
	<path d="M20.975,18.659l3-9C24.025,9.506,24,9.338,23.905,9.208C23.812,9.077,23.661,9,23.5,9H5.808L4.486,3.385
		C4.434,3.16,4.232,3,4,3H0.5C0.224,3,0,3.224,0,3.5S0.224,4,0.5,4h3.104l3.79,16.104C6.589,20.363,6,21.11,6,22
		c0,1.103,0.897,2,2,2s2-0.897,2-2c0-0.365-0.105-0.705-0.278-1h7.557C17.105,21.295,17,21.635,17,22c0,1.103,0.897,2,2,2
		s2-0.897,2-2c0-1.103-0.897-2-2-2H8.396l-0.235-1H20.5C20.715,19,20.906,18.862,20.975,18.659z M9,22c0,0.551-0.448,1-1,1
		s-1-0.449-1-1s0.448-1,1-1S9,21.449,9,22z M20,22c0,0.551-0.448,1-1,1s-1-0.449-1-1s0.448-1,1-1S20,21.449,20,22z M7.926,18
		l-1.883-8h16.764l-2.667,8H7.926z"/>
</g>
</svg>
