<?xml version="1.0" encoding="utf-8"?>
<!-- Generator: Adobe Illustrator 16.0.3, SVG Export Plug-In . SVG Version: 6.00 Build 0)  -->
<!DOCTYPE svg PUBLIC "-//W3C//DTD SVG 1.1//EN" "http://www.w3.org/Graphics/SVG/1.1/DTD/svg11.dtd">
<svg version="1.1" xmlns="http://www.w3.org/2000/svg" xmlns:xlink="http://www.w3.org/1999/xlink" x="0px" y="0px" width="24px"
	 height="24px" viewBox="0 0 24 24" enable-background="new 0 0 24 24" xml:space="preserve">
<g id="Outline_Icons_1_">
	<g id="Outline_Icons">
		<path d="M23,11c0-1.103-0.897-2-2-2h-7.358C13.928,7.825,14.5,5.283,14.5,3.719c0-0.883-0.24-1.621-0.694-2.133
			c-0.403-0.455-0.973-0.716-1.561-0.716C11.25,0.87,10.5,1.571,10.5,2.5c0,4.42-3.689,7.5-7,7.5h-3C0.224,10,0,10.224,0,10.5v9
			C0,19.776,0.224,20,0.5,20c4.583,0,6.151,0.673,7.411,1.214C8.852,21.619,9.74,22,11.5,22H18c1.103,0,2-0.897,2-2
			c0-0.411-0.125-0.794-0.339-1.112C20.44,18.614,21,17.871,21,17c0-0.411-0.125-0.794-0.339-1.112C21.44,15.614,22,14.871,22,14
			c0-0.411-0.125-0.794-0.339-1.112C22.44,12.614,23,11.871,23,11z M21,12h-1c-0.276,0-0.5,0.224-0.5,0.5S19.724,13,20,13
			c0.552,0,1,0.449,1,1s-0.448,1-1,1h-1c-0.276,0-0.5,0.224-0.5,0.5S18.724,16,19,16c0.552,0,1,0.449,1,1s-0.448,1-1,1h-1
			c-0.276,0-0.5,0.224-0.5,0.5S17.724,19,18,19c0.552,0,1,0.449,1,1s-0.448,1-1,1h-6.5c-1.554,0-2.278-0.311-3.194-0.705
			C7.01,19.739,5.407,19.051,1,19.003V11h2.5c3.784,0,8-3.491,8-8.5c0-0.433,0.387-0.63,0.745-0.63c0.178,0,0.52,0.049,0.812,0.379
			C13.347,2.576,13.5,3.084,13.5,3.719c0,1.912-0.974,5.616-0.983,5.653c-0.04,0.15-0.008,0.31,0.087,0.433
			C12.698,9.928,12.845,10,13,10h8c0.552,0,1,0.449,1,1S21.552,12,21,12z"/>
	</g>
</g>
</svg>
