<svg xmlns="http://www.w3.org/2000/svg" width="24" height="24" viewBox="0 0 24 24"><g><path  fill-rule="evenodd" d="M20.768,5.359 C20.578,5.132 20.297,5 20,5 L14,5 L14,1 C14,0.448 13.553,0 13,0 L10,0 C9.6,0 9.238,0.238 9.081,0.605 L6.341,7 L6,7 C6,6.448 5.553,6 5,6 L1,6 C0.447,6 0,6.448 0,7 L0,17 C0,17.552 0.447,18 1,18 L5,18 C5.553,18 6,17.552 6,17 L6,16.478 L9.629,17.929 C9.746,17.976 9.873,18 10,18 L18,18 C18.483,18 18.897,17.654 18.984,17.179 L20.984,6.179 C21.037,5.887 20.957,5.587 20.768,5.359 Z M4,16 L2,16 L2,8 L4,8 L4,16 Z M17.166,16 L10.192,16 L6,14.323 L6,9 L7,9 C7.4,9 7.762,8.762 7.919,8.394 L10.659,2 L12,2 L12,6 C12,6.552 12.447,7 13,7 L18.802,7 L17.166,16 Z" transform="translate(2 3.333)"/></g></svg>