<?xml version="1.0" encoding="utf-8"?>
<!-- Generator: Adobe Illustrator 16.0.3, SVG Export Plug-In . SVG Version: 6.00 Build 0)  -->
<!DOCTYPE svg PUBLIC "-//W3C//DTD SVG 1.1//EN" "http://www.w3.org/Graphics/SVG/1.1/DTD/svg11.dtd">
<svg version="1.1" xmlns="http://www.w3.org/2000/svg" xmlns:xlink="http://www.w3.org/1999/xlink" x="0px" y="0px" width="24px"
	 height="24px" viewBox="0 0 24 24" enable-background="new 0 0 24 24" xml:space="preserve">
<g id="Outline_Icons_1_">
	<g id="Outline_Icons">
		<g>
			<path d="M21.5,0h-19C1.122,0,0,1.121,0,2.5v13C0,16.879,1.122,18,2.5,18h5C7.776,18,8,17.776,8,17.5S7.776,17,7.5,17h-5
				C1.673,17,1,16.327,1,15.5v-13C1,1.673,1.673,1,2.5,1h19C22.327,1,23,1.673,23,2.5v9c0,0.276,0.224,0.5,0.5,0.5
				s0.5-0.224,0.5-0.5v-9C24,1.121,22.878,0,21.5,0z"/>
			<path d="M20.5,12c0.276,0,0.5-0.224,0.5-0.5v-9C21,2.224,20.776,2,20.5,2h-16C4.224,2,4,2.224,4,2.5v13C4,15.776,4.224,16,4.5,16
				h3C7.776,16,8,15.776,8,15.5S7.776,15,7.5,15H5V3h15v8.5C20,11.776,20.224,12,20.5,12z"/>
			<circle cx="22" cy="9" r="0.5"/>
			<path d="M23.079,14.779L18,12.957V7.97c0-0.893-0.491-1.47-1.25-1.47h-1.448C14.535,6.5,14,7.104,14,7.97v7.843l-0.826-0.988
				c-0.27-0.345-0.726-0.56-1.2-0.56l-0.99,0.019c-0.521,0-1.008,0.276-1.271,0.723s-0.274,1.004-0.028,1.455l3.735,6.773
				C13.678,23.707,14.169,24,14.703,24h6.386c0.595,0,1.126-0.356,1.379-0.988l1.52-6.681C23.996,16.294,24,16.257,24,16.22
				C24,15.517,23.63,14.949,23.079,14.779z M21.518,22.71C21.445,22.886,21.277,23,21.089,23h-6.386
				c-0.17,0-0.321-0.092-0.406-0.246l-3.735-6.773c-0.078-0.143-0.073-0.322,0.013-0.468c0.082-0.14,0.243-0.229,0.418-0.229
				l0.99-0.019c0.154,0,0.323,0.074,0.413,0.188l1.72,2.058c0.136,0.162,0.357,0.223,0.554,0.149C14.868,17.589,15,17.4,15,17.19
				V7.97c0-0.214,0.052-0.47,0.302-0.47h1.448c0.068,0,0.25,0,0.25,0.47v5.339c0,0.211,0.132,0.399,0.331,0.471l5.432,1.948
				c0.16,0.05,0.226,0.259,0.236,0.442L21.518,22.71z"/>
			<path d="M1.5,9c0,0.552,0.449,1,1,1s1-0.448,1-1s-0.449-1-1-1S1.5,8.448,1.5,9z M2.5,9L2.5,9H3H2.5z"/>
		</g>
	</g>
</g>
</svg>
