<?xml version="1.0" encoding="utf-8"?>
<!-- Generator: Adobe Illustrator 16.0.3, SVG Export Plug-In . SVG Version: 6.00 Build 0)  -->
<!DOCTYPE svg PUBLIC "-//W3C//DTD SVG 1.1//EN" "http://www.w3.org/Graphics/SVG/1.1/DTD/svg11.dtd">
<svg version="1.1" xmlns="http://www.w3.org/2000/svg" xmlns:xlink="http://www.w3.org/1999/xlink" x="0px" y="0px" width="24px"
	 height="24px" viewBox="0 0 24 24" enable-background="new 0 0 24 24" xml:space="preserve">
<g id="Outline_Icons_1_">
	<g id="Outline_Icons">
		<g>
			<path fill="none"  stroke-linecap="round" stroke-linejoin="round" stroke-miterlimit="10" d="M10.5,8
				c0-0.819,0.68-1.5,1.5-1.5c0.828,0,1.5,0.672,1.5,1.5v6l4.5,1.5c0.988,0.318,1.233,1.487,1,2.5l-1,5.5h-8l-4-6
				c-0.454-0.693-0.5-2,0.5-2s2,0.419,4,3.5V8z"/>
			<path fill="none"  stroke-linecap="round" stroke-linejoin="round" stroke-miterlimit="10" d="M7,12.5H5.5
				c-1.657,0-3-1.343-3-3v-6c0-1.657,1.343-3,3-3h13c1.656,0,3,1.343,3,3v6c0,1.657-1.344,3-3,3H17"/>
		</g>
	</g>
</g>
</svg>
