<svg xmlns="http://www.w3.org/2000/svg" width="24" height="24" viewBox="0 0 24 24"><g><path  fill-rule="evenodd" d="M12 4.5C10.6156181 4.5 9.5 5.61561808 9.5 7 9.5 8.38438192 10.6156181 9.5 12 9.5 13.3843819 9.5 14.5 8.38438192 14.5 7 14.5 5.61561808 13.3843819 4.5 12 4.5zM12 2.5C14.4889514 2.5 16.5 4.51104858 16.5 7 16.5 9.48895142 14.4889514 11.5 12 11.5 9.51104858 11.5 7.5 9.48895142 7.5 7 7.5 4.51104858 9.51104858 2.5 12 2.5zM12 19.85C14.3755868 19.85 16.565396 18.7171141 17.9482275 16.8515074 17.5139298 15.7112611 14.443268 14.5 12 14.5 9.54966777 14.5 6.48489319 15.70984 6.05162748 16.8513117 7.43445087 18.7170348 9.62433012 19.85 12 19.85zM12 21.85C8.8180531 21.85 5.89765244 20.2492932 4.16728994 17.6470426L3.9954352 17.3885944 4.00011361 17.0782597C4.04179379 14.3134749 8.37760779 12.5 12 12.5 15.6151803 12.5 19.9582244 14.3146787 19.9998864 17.0782597L20.0045648 17.3885944 19.8327101 17.6470426C18.1023476 20.2492932 15.1819469 21.85 12 21.85z"/></g></svg>