<svg width="24" height="24" viewBox="0 0 24 24" xmlns="http://www.w3.org/2000/svg">
  <g stroke="none" fill-rule="evenodd">
    <path d="M1 12c0 6.076 4.924 11 11 11s11-4.924 11-11S18.076 1 12 1 1 5.924 1 12zm-1 0C0 5.373 5.37 0 12 0c6.627 0 12 5.37 12 12 0 6.627-5.37 12-12 12-6.627 0-12-5.37-12-12z"/>
    <path d="M12 5c1.653 0 3 1.347 3 3s-1.347 3-3 3-3-1.347-3-3 1.347-3 3-3zM11.987 19C9.507 19 7.333 17.773 6 15.893 6.147 13.96 10.027 13 11.987 13s5.84.96 5.986 2.893C16.64 17.773 14.467 19 11.987 19z"/>
  </g>
</svg>
