<svg width="24" height="24" viewBox="0 0 24 24" xmlns="http://www.w3.org/2000/svg">
  <g fill-rule="evenodd" stroke="none">
    <path d="M1.5 12c0 5.8 4.7 10.5 10.5 10.5S22.5 17.8 22.5 12 17.8 1.5 12 1.5 1.5 6.2 1.5 12zM0 12C0 5.373 5.37 0 12 0c6.627 0 12 5.37 12 12 0 6.627-5.37 12-12 12-6.627 0-12-5.37-12-12z"/>
    <path d="M12 5c1.653 0 3 1.347 3 3s-1.347 3-3 3-3-1.347-3-3 1.347-3 3-3zm-.013 14C9.507 19 7.333 17.773 6 15.893 6.147 13.96 10.027 13 11.987 13s5.84.96 5.986 2.893C16.64 17.773 14.467 19 11.987 19z"/>
  </g>
</svg>
