<svg xmlns="http://www.w3.org/2000/svg" width="24" height="24"><path d="M12 14c-2.78198467 0-6.15252404 1.4735928-6.86825647 2.9439475C6.8564793 19.5170872 9.34481433 21 12 21c2.6551857 0 5.1435207-1.4829128 6.8682565-4.0560525C18.152524 15.4735928 14.7819847 14 12 14zm0 9c-3.72828508 0-6.99554566-2.2488889-9-5.6955556C3.22048998 13.76 9.05345212 12 12 12c2.9465479 0 8.77951 1.76 9 5.3044444C18.9955457 20.7511111 15.7282851 23 12 23zm0-12c-2.76142375 0-5-2.23857625-5-5s2.23857625-5 5-5c2.7614237 0 5 2.23857625 5 5s-2.2385763 5-5 5zm0-2c1.6568542 0 3-1.34314575 3-3s-1.3431458-3-3-3c-1.65685425 0-3 1.34314575-3 3s1.34314575 3 3 3z"/></svg>
