<svg xmlns="http://www.w3.org/2000/svg" width="24" height="24" viewBox="0 0 24 24"><g><g  fill-rule="evenodd" transform="translate(2)"><path d="M10.001 23.653C7.655 23.653.001 23.436.001 20.653.001 19.34 1.532 18.5 4.82 18.006L5.117 19.984C3.712 20.196 2.862 20.456 2.391 20.657 3.44 21.096 6.06 21.653 10.001 21.653 13.942 21.653 16.562 21.095 17.611 20.656 17.137 20.453 16.278 20.19 14.854 19.979L15.148 18C18.459 18.492 20.001 19.335 20.001 20.652 20.001 23.436 12.347 23.653 10.001 23.653zM10.001 6C8.347 6 7.001 4.654 7.001 3 7.001 1.346 8.347 0 10.001 0 11.655 0 13.001 1.346 13.001 3 13.001 4.654 11.655 6 10.001 6zM10.001 2C9.45 2 9.001 2.449 9.001 3 9.001 3.551 9.45 4 10.001 4 10.552 4 11.001 3.551 11.001 3 11.001 2.449 10.552 2 10.001 2z"/><path d="M12.001,20.6666667 L8.001,20.6666667 C7.449,20.6666667 7.001,20.2186667 7.001,19.6666667 L7.001,15.6666667 L6.001,15.6666667 C5.449,15.6666667 5.001,15.2186667 5.001,14.6666667 L5.001,11.6666667 C5.001,8.90966667 7.244,6.66666667 10.001,6.66666667 C12.758,6.66666667 15.001,8.90966667 15.001,11.6666667 L15.001,14.6666667 C15.001,15.2186667 14.553,15.6666667 14.001,15.6666667 L13.001,15.6666667 L13.001,19.6666667 C13.001,20.2186667 12.553,20.6666667 12.001,20.6666667 Z M9.001,18.6666667 L11.001,18.6666667 L11.001,14.6666667 C11.001,14.1146667 11.449,13.6666667 12.001,13.6666667 L13.001,13.6666667 L13.001,11.6666667 C13.001,10.0126667 11.655,8.66666667 10.001,8.66666667 C8.347,8.66666667 7.001,10.0126667 7.001,11.6666667 L7.001,13.6666667 L8.001,13.6666667 C8.553,13.6666667 9.001,14.1146667 9.001,14.6666667 L9.001,18.6666667 Z"/></g></g></svg>