<?xml version="1.0" encoding="utf-8"?>
<!-- Generator: Adobe Illustrator 16.0.3, SVG Export Plug-In . SVG Version: 6.00 Build 0)  -->
<!DOCTYPE svg PUBLIC "-//W3C//DTD SVG 1.1//EN" "http://www.w3.org/Graphics/SVG/1.1/DTD/svg11.dtd">
<svg version="1.1" xmlns="http://www.w3.org/2000/svg" xmlns:xlink="http://www.w3.org/1999/xlink" x="0px" y="0px" width="24px"
	 height="24px" viewBox="0 0 24 24" enable-background="new 0 0 24 24" xml:space="preserve">
<g id="Outline_Icons_1_">
	<g id="Outline_Icons">
		<g>
			<path d="M12,14.117v-1.923c0.339-0.337,0.913-1.15,0.991-2.838c0.459-0.215,0.759-0.735,0.759-1.393
				c0-0.564-0.222-1.028-0.576-1.284c0.325-0.646,0.833-1.74,0.561-2.836c-0.332-1.334-2.253-1.808-3.798-1.808
				c-1.368,0-3.032,0.372-3.625,1.383c-0.525-0.03-0.929,0.11-1.22,0.417c-0.709,0.75-0.348,2.152-0.153,2.905
				C4.969,6.857,4.995,6.947,5,6.964v2c0,1.89,1.162,2.931,2,3.337v1.817c-0.405,0.151-0.818,0.3-1.23,0.448
				c-2.607,0.939-4.858,1.75-5.271,2.996C0.006,19.051,0,22.36,0,22.5C0,22.776,0.224,23,0.5,23h18c0.276,0,0.5-0.224,0.5-0.5
				c0-0.14-0.006-3.449-0.499-4.938C18.019,16.108,15.264,15.326,12,14.117z M1.007,22c0.021-0.971,0.104-3.105,0.441-4.124
				c0.26-0.785,2.7-1.664,4.661-2.37c0.527-0.19,1.058-0.381,1.569-0.575C7.872,14.857,8,14.671,8,14.464v-2.5
				c0-0.217-0.143-0.41-0.349-0.477C7.583,11.465,6,10.931,6,8.964v-2C6,6.85,5.969,6.73,5.908,6.492
				C5.805,6.091,5.49,4.872,5.819,4.524c0.146-0.156,0.506-0.111,0.708-0.07c0.263,0.054,0.519-0.11,0.584-0.37
				c0.148-0.598,1.364-1.049,2.827-1.049s2.679,0.451,2.827,1.049c0.199,0.802-0.281,1.749-0.54,2.257
				C12.08,6.627,12,6.784,12,6.964c0,0.276,0.224,0.5,0.5,0.5c0.172,0,0.25,0.293,0.25,0.5c0,0.208-0.078,0.5-0.25,0.5
				c-0.276,0-0.5,0.224-0.5,0.5c0,2.01-0.764,2.575-0.763,2.575C11.089,11.63,11,11.791,11,11.964v2.5
				c0,0.208,0.129,0.395,0.324,0.468c2.409,0.909,5.896,1.945,6.228,2.945c0.337,1.018,0.421,3.152,0.441,4.124H1.007z"/>
			<path d="M23.501,17.562c-0.388-1.167-2.337-2.352-6.501-3.942v-0.925c0.339-0.337,0.913-1.15,0.991-2.837
				c0.192-0.09,0.358-0.235,0.487-0.429c0.175-0.263,0.271-0.605,0.271-0.965c0-0.572-0.228-1.041-0.589-1.294
				c0.322-0.694,0.85-1.899,0.575-3.01c-0.173-0.693-0.962-1.454-1.877-1.808c-0.893-0.346-1.785-0.27-2.51,0.215
				c-0.23,0.153-0.292,0.463-0.139,0.693c0.153,0.229,0.461,0.292,0.693,0.139c0.574-0.383,1.185-0.274,1.595-0.115
				c0.705,0.274,1.197,0.834,1.268,1.117c0.203,0.815-0.288,1.868-0.55,2.433C17.072,7.14,17,7.294,17,7.464
				c0,0.133,0.053,0.26,0.146,0.354s0.221,0.146,0.354,0.146c0.172,0,0.25,0.293,0.25,0.5c0,0.16-0.039,0.313-0.104,0.41
				c-0.055,0.083-0.103,0.09-0.146,0.09c-0.276,0-0.5,0.224-0.5,0.5c0,2.01-0.764,2.575-0.763,2.575
				C16.089,12.13,16,12.291,16,12.464v1.5c0,0.208,0.129,0.395,0.324,0.468c3.856,1.454,5.952,2.613,6.228,3.445
				c0.337,1.018,0.421,3.152,0.441,4.124H21c-0.276,0-0.5,0.224-0.5,0.5S20.724,23,21,23h2.5c0.276,0,0.5-0.224,0.5-0.5
				C24,22.36,23.994,19.051,23.501,17.562z"/>
		</g>
	</g>
</g>
</svg>
