<?xml version="1.0" encoding="utf-8"?>
<!-- Generator: Adobe Illustrator 17.0.0, SVG Export Plug-In . SVG Version: 6.00 Build 0)  -->
<!DOCTYPE svg PUBLIC "-//W3C//DTD SVG 1.1//EN" "http://www.w3.org/Graphics/SVG/1.1/DTD/svg11.dtd">
<svg version="1.1" xmlns="http://www.w3.org/2000/svg" xmlns:xlink="http://www.w3.org/1999/xlink" x="0px" y="0px" width="48px"
	 height="48px" viewBox="0 0 48 48" enable-background="new 0 0 48 48" xml:space="preserve">
<g id="Layer_3">
	<g>
		<path fill="#010101" d="M45.351,16.489L41,15.246v-1.522c1.811-1.365,3-3.625,3-6.181c-0.685,0.173-1.464,0.258-2.223,0.258
			c-0.47,0-0.933-0.032-1.361-0.095c-1.072-0.158-1.933-0.497-2.549-0.998c-2.139,1.321-5.49,1.205-7.835,0.147
			C30.013,7.081,30,7.31,30,7.543c0,2.557,1.189,4.816,3,6.181v1.522l-4.353,1.244C27.163,16.914,26,18.456,26,20v2h22v-2
			C48,18.455,46.836,16.913,45.351,16.489z"/>
		<path fill="#010101" d="M37.293,4.634c0.224-0.224,0.541-0.33,0.852-0.282c0.313,0.046,0.586,0.237,0.735,0.516
			c0.211,0.392,0.844,0.7,1.736,0.846c1.228,0.198,2.432,0.031,3.124-0.177C42.923,2.349,40.214,0,37,0
			c-2.981,0-5.526,2.022-6.533,4.857C32.449,5.981,35.964,5.963,37.293,4.634z"/>
		<path fill="#010101" d="M17.467,30.858c1.982,1.124,5.497,1.105,6.826-0.224c0.224-0.224,0.542-0.329,0.852-0.282
			c0.313,0.046,0.586,0.237,0.735,0.516c0.211,0.392,0.844,0.7,1.736,0.846c1.228,0.199,2.432,0.031,3.124-0.177
			C29.923,28.35,27.215,26,24,26C21.019,26,18.474,28.022,17.467,30.858z"/>
		<path fill="#010101" d="M32.351,42.489L28,41.246v-1.522c1.811-1.365,3-3.625,3-6.181c-0.685,0.173-1.464,0.258-2.223,0.258
			c-0.47,0-0.933-0.032-1.361-0.095c-1.072-0.158-1.933-0.497-2.549-0.998c-2.139,1.321-5.49,1.205-7.835,0.147
			C17.013,33.081,17,33.31,17,33.543c0,2.557,1.189,4.816,3,6.181v1.522l-4.353,1.244C14.163,42.914,13,44.456,13,46v2h22v-2
			C35,44.455,33.836,42.913,32.351,42.489z"/>
		<path fill="#010101" d="M22,20c0-1.545-1.164-3.087-2.649-3.511L15,15.246v-1.522c1.811-1.365,3-3.625,3-6.181
			c-0.685,0.173-1.464,0.258-2.223,0.258c-0.47,0-0.933-0.032-1.361-0.095c-1.072-0.158-1.933-0.497-2.549-0.998
			c-2.138,1.321-5.49,1.205-7.835,0.147C4.013,7.081,4,7.31,4,7.543c0,2.557,1.189,4.816,3,6.181v1.522l-4.353,1.244
			C1.163,16.914,0,18.456,0,20v2h22V20z"/>
		<path fill="#010101" d="M11.293,4.634c0.224-0.224,0.539-0.33,0.852-0.282c0.313,0.046,0.586,0.237,0.735,0.516
			c0.211,0.392,0.844,0.7,1.736,0.846c1.228,0.198,2.432,0.031,3.124-0.177C16.923,2.35,14.214,0,11,0
			C8.019,0,5.474,2.022,4.467,4.857C6.448,5.981,9.964,5.963,11.293,4.634z"/>
		<path fill="#010101" d="M13.707,30.707c0.391-0.391,0.391-1.023,0-1.414l-5-5c-0.391-0.391-1.023-0.391-1.414,0
			c-0.391,0.391-0.391,1.023,0,1.414l5,5C12.488,30.902,12.744,31,13,31C13.256,31,13.512,30.902,13.707,30.707z"/>
		<path fill="#010101" d="M39.293,24.293l-5,5c-0.391,0.391-0.391,1.023,0,1.414C34.488,30.902,34.744,31,35,31
			c0.256,0,0.512-0.098,0.707-0.293l5-5c0.391-0.391,0.391-1.023,0-1.414C40.316,23.902,39.684,23.902,39.293,24.293z"/>
	</g>
</g>
<g id="nyt_x5F_exporter_x5F_info" display="none">
</g>
</svg>
