<?xml version="1.0" encoding="utf-8"?>
<!-- Generator: Adobe Illustrator 17.0.0, SVG Export Plug-In . SVG Version: 6.00 Build 0)  -->
<!DOCTYPE svg PUBLIC "-//W3C//DTD SVG 1.1//EN" "http://www.w3.org/Graphics/SVG/1.1/DTD/svg11.dtd">
<svg version="1.1" xmlns="http://www.w3.org/2000/svg" xmlns:xlink="http://www.w3.org/1999/xlink" x="0px" y="0px" width="48px"
	 height="48px" viewBox="0 0 48 48" enable-background="new 0 0 48 48" xml:space="preserve">
<g id="Layer_3">
	<g>
		<path fill="#010101" d="M8.001,26C10.757,26,13,23.757,13,21c0-2.757-2.243-5-4.999-5C5.244,16,3,18.243,3,21
			C3,23.757,5.244,26,8.001,26z"/>
		<path fill="#010101" d="M0,29c0,4.777,0.32,9.177,4,10.627V48h8v-8.373c3.68-1.45,4-5.849,4-10.627v-1H0V29z"/>
		<path fill="#010101" d="M40.001,26C42.757,26,45,23.757,45,21c0-2.757-2.243-5-4.999-5C37.244,16,35,18.243,35,21
			C35,23.757,37.244,26,40.001,26z"/>
		<path fill="#010101" d="M32,28v1c0,4.777,0.32,9.177,4,10.627V48h8v-8.373c3.68-1.45,4-5.849,4-10.627v-1H32z"/>
		<path fill="#010101" d="M24.001,10C26.757,10,29,7.757,29,5c0-2.757-2.243-5-4.999-5C21.244,0,19,2.243,19,5
			C19,7.757,21.244,10,24.001,10z"/>
		<path fill="#010101" d="M32,12H16v1c0,4.777,0.32,9.177,4,10.627V32h8v-8.373c3.68-1.45,4-5.849,4-10.627V12z"/>
	</g>
</g>
<g id="nyt_x5F_exporter_x5F_info" display="none">
</g>
</svg>
