<?xml version="1.0" encoding="utf-8"?>
<!-- Generator: Adobe Illustrator 17.0.0, SVG Export Plug-In . SVG Version: 6.00 Build 0)  -->
<!DOCTYPE svg PUBLIC "-//W3C//DTD SVG 1.1//EN" "http://www.w3.org/Graphics/SVG/1.1/DTD/svg11.dtd">
<svg version="1.1" xmlns="http://www.w3.org/2000/svg" xmlns:xlink="http://www.w3.org/1999/xlink" x="0px" y="0px" width="48px"
	 height="48px" viewBox="0 0 48 48" enable-background="new 0 0 48 48" xml:space="preserve">
<g id="Layer_3">
	<g>
		<path fill="#010101" d="M0,27c0,2.166,0.672,3.46,2,3.863V39h8v-8.137c1.326-0.404,1.998-1.698,2-3.863v-7H0V27z"/>
		<path fill="#010101" d="M36,20v7c0,2.166,0.672,3.46,2,3.863V39h8v-8.137c1.326-0.404,1.998-1.698,2-3.863v-7H36z"/>
		<path fill="#010101" d="M16,31c0,2.415,1.721,4.435,4,4.899V48h8V35.899c2.279-0.464,4-2.485,4-4.899V20H16V31z"/>
		<path fill="#010101" d="M42,18c2.206,0,4-1.794,4-4c0-2.206-1.794-4-4-4c-2.206,0-4,1.794-4,4C38,16.206,39.794,18,42,18z"/>
		<path fill="#010101" d="M6,18c2.206,0,4-1.794,4-4c0-2.206-1.794-4-4-4c-2.206,0-4,1.794-4,4C2,16.206,3.794,18,6,18z"/>
		<path fill="#010101" d="M24,18c3.309,0,6-2.691,6-6c0-3.309-2.691-6-6-6c-3.309,0-6,2.691-6,6C18,15.309,20.691,18,24,18z"/>
	</g>
</g>
<g id="nyt_x5F_exporter_x5F_info" display="none">
</g>
</svg>
