<?xml version="1.0" encoding="utf-8"?>
<!-- Generator: Adobe Illustrator 17.0.0, SVG Export Plug-In . SVG Version: 6.00 Build 0)  -->
<!DOCTYPE svg PUBLIC "-//W3C//DTD SVG 1.1//EN" "http://www.w3.org/Graphics/SVG/1.1/DTD/svg11.dtd">
<svg version="1.1" xmlns="http://www.w3.org/2000/svg" xmlns:xlink="http://www.w3.org/1999/xlink" x="0px" y="0px" width="48px"
	 height="48px" viewBox="0 0 48 48" enable-background="new 0 0 48 48" xml:space="preserve">
<g id="Layer_3">
	<g>
		<path fill="#010101" d="M8,5c0-1.654,1.346-3,3-3h32c0.552,0,1-0.448,1-1c0-0.552-0.448-1-1-1H11C8.243,0,6,2.243,6,5v8h3
			c1.103,0,2,0.897,2,2s-0.897,2-2,2H6v2h3c1.103,0,2,0.897,2,2s-0.897,2-2,2H6v2h3c1.103,0,2,0.897,2,2s-0.897,2-2,2H6v2h3
			c1.103,0,2,0.897,2,2s-0.897,2-2,2H6v2h3c1.103,0,2,0.897,2,2s-0.897,2-2,2H6v2c0,2.757,2.243,5,5,5h33V8H11C9.346,8,8,6.654,8,5z
			 M26,16c3.318,0,6.098,2.502,6.815,5.846c-0.328,0.218-0.862,0.357-1.503,0.366c-1.473,0.027-3.028-0.595-3.431-1.344
			c-0.149-0.279-0.422-0.47-0.735-0.516c-0.31-0.047-0.629,0.059-0.852,0.282c-1.478,1.476-5.191,2.131-7.067,1.042
			C20,18.419,22.739,16,26,16z M15,36c0-1.544,1.163-3.086,2.647-3.511L22,31.246v-1.522c-1.757-1.324-2.921-3.493-2.989-5.956
			c1.017,0.379,2.245,0.525,3.583,0.399c1.62-0.152,3.142-0.67,4.271-1.431c1.105,0.978,2.872,1.477,4.378,1.477
			c0.033,0,0.066,0,0.099-0.001c0.604-0.009,1.154-0.099,1.64-0.255c-0.121,2.385-1.269,4.476-2.98,5.766v1.522l4.351,1.244
			C35.836,32.913,37,34.455,37,36v4H15V36z"/>
		<path fill="#010101" d="M11,4c-0.552,0-1,0.448-1,1c0,0.552,0.448,1,1,1h30c0.552,0,1-0.448,1-1c0-0.552-0.448-1-1-1H11z"/>
		<path fill="#010101" d="M5,16h4c0.551,0,1-0.449,1-1c0-0.551-0.449-1-1-1H5c-0.551,0-1,0.449-1,1C4,15.551,4.449,16,5,16z"/>
		<path fill="#010101" d="M5,22h4c0.551,0,1-0.449,1-1c0-0.551-0.449-1-1-1H5c-0.551,0-1,0.449-1,1C4,21.551,4.449,22,5,22z"/>
		<path fill="#010101" d="M5,28h4c0.551,0,1-0.449,1-1c0-0.551-0.449-1-1-1H5c-0.551,0-1,0.449-1,1C4,27.551,4.449,28,5,28z"/>
		<path fill="#010101" d="M5,34h4c0.551,0,1-0.449,1-1c0-0.551-0.449-1-1-1H5c-0.551,0-1,0.449-1,1C4,33.551,4.449,34,5,34z"/>
		<path fill="#010101" d="M10,39c0-0.551-0.449-1-1-1H5c-0.551,0-1,0.449-1,1c0,0.551,0.449,1,1,1h4C9.551,40,10,39.551,10,39z"/>
	</g>
</g>
<g id="nyt_x5F_exporter_x5F_info" display="none">
</g>
</svg>
