<?xml version="1.0" encoding="utf-8"?>
<!-- Generator: Adobe Illustrator 17.0.0, SVG Export Plug-In . SVG Version: 6.00 Build 0)  -->
<!DOCTYPE svg PUBLIC "-//W3C//DTD SVG 1.1//EN" "http://www.w3.org/Graphics/SVG/1.1/DTD/svg11.dtd">
<svg version="1.1" xmlns="http://www.w3.org/2000/svg" xmlns:xlink="http://www.w3.org/1999/xlink" x="0px" y="0px" width="48px"
	 height="48px" viewBox="0 0 48 48" enable-background="new 0 0 48 48" xml:space="preserve">
<g id="Layer_3">
	<g>
		<path fill="#010101" d="M26.811,31.325c-0.914-0.328-1.858-0.665-2.811-1.019v-3.729c0.972-0.65,2.762-2.316,2.978-5.856
			c0.733-0.459,1.194-1.453,1.194-2.722c0-1.116-0.357-2.019-0.942-2.533c0.486-1.271,1.289-3.498,0.739-5.708
			c-0.664-2.669-4.439-3.616-7.471-3.616c-2.685,0-5.953,0.743-7.126,2.768c-1.4-0.081-2.177,0.52-2.554,1.021
			c-1.038,1.381-0.555,3.547,0.003,5.491c-0.233,0.189-0.433,0.438-0.59,0.74C9.97,16.665,9.825,17.318,9.825,18
			c0,1.269,0.461,2.263,1.196,2.722c0.217,3.539,2.006,5.205,2.979,5.855v3.73c-0.847,0.315-1.713,0.625-2.575,0.934
			c-5.155,1.846-9.606,3.44-10.428,5.92C0.011,40.137,0,46.721,0,47c0,0.552,0.448,1,1,1h36c0.552,0,1-0.448,1-1
			c0-0.279-0.011-6.863-0.999-9.839C36.177,34.678,32.044,33.198,26.811,31.325z"/>
		<path fill="#010101" d="M47.001,37.161C46.226,34.823,42.444,32.534,34,29.31v-1.732c0.972-0.65,2.762-2.316,2.978-5.856
			c0.733-0.459,1.194-1.453,1.194-2.722c0-1.127-0.364-2.038-0.96-2.549c0.481-1.369,1.314-3.82,0.757-6.061
			c-0.358-1.438-1.919-2.985-3.711-3.679c-1.685-0.653-3.394-0.49-4.813,0.457c-0.46,0.306-0.583,0.927-0.277,1.387
			c0.306,0.459,0.927,0.583,1.387,0.277c1.105-0.737,2.233-0.546,2.982-0.255c1.387,0.537,2.339,1.679,2.493,2.297
			c0.425,1.709-0.33,3.853-0.735,5.005C35.099,16.436,35,16.715,35,17c0,0.552,0.362,0.973,0.915,0.973
			c0.069,0.056,0.258,0.403,0.258,1.027c0,0.624-0.19,0.971-0.173,1c-0.552,0-1,0.448-1,1c0,3.972-2.295,5.037-2.382,5.076
			C32.244,26.23,32,26.595,32,27v3c0,0.416,0.258,0.789,0.647,0.936c2.878,1.085,11.636,4.386,12.456,6.855
			c0.675,2.034,0.842,6.275,0.883,8.209H43c-0.552,0-1,0.448-1,1c0,0.552,0.448,1,1,1h4c0.552,0,1-0.448,1-1
			C48,46.721,47.989,40.137,47.001,37.161z"/>
	</g>
</g>
<g id="nyt_x5F_exporter_x5F_info" display="none">
</g>
</svg>
