<?xml version="1.0" encoding="utf-8"?>
<!-- Generator: Adobe Illustrator 17.0.0, SVG Export Plug-In . SVG Version: 6.00 Build 0)  -->
<!DOCTYPE svg PUBLIC "-//W3C//DTD SVG 1.1//EN" "http://www.w3.org/Graphics/SVG/1.1/DTD/svg11.dtd">
<svg version="1.1" xmlns="http://www.w3.org/2000/svg" xmlns:xlink="http://www.w3.org/1999/xlink" x="0px" y="0px" width="48px"
	 height="48px" viewBox="0 0 48 48" enable-background="new 0 0 48 48" xml:space="preserve">
<g id="Layer_3">
	<g>
		<path fill="#010101" d="M48,13V8c0-2.757-2.243-5-5-5h-1V1c0-0.552-0.448-1-1-1H8v48h33c0.552,0,1-0.448,1-1v-2h1
			c2.757,0,5-2.243,5-5v-5h-6v-2h6v-8h-6v-2h6v-8h-6v-2H48z M23,13c2.236,0,4.133,1.636,4.771,3.883
			c-0.317,0.104-0.731,0.16-1.191,0.092c-0.448-0.066-1.263-0.297-1.699-1.108c-0.149-0.279-0.422-0.47-0.735-0.516
			c-0.312-0.047-0.629,0.059-0.852,0.282c-1.465,1.464-3.657,1.577-4.998,1.05C18.987,14.541,20.832,13,23,13z M23.84,17.773
			c0.638,0.624,1.486,1.04,2.448,1.182c0.236,0.035,0.473,0.052,0.707,0.052c0.342,0,0.671-0.049,0.989-0.118
			c-0.163,2.895-2.333,5.197-4.984,5.197c-2.709,0-4.917-2.402-4.993-5.385C19.781,19.237,22.048,19.018,23.84,17.773z M32,36H14v-5
			c0-0.652,0.57-1.409,1.197-1.588L21,27.754v-1.987c0.634,0.204,1.305,0.318,2,0.318c0.695,0,1.366-0.113,2-0.318v1.987
			l5.802,1.658C31.429,29.591,32,30.348,32,31V36z"/>
		<path fill="#010101" d="M0,3v42c0,1.654,1.346,3,3,3h3V0H3C1.346,0,0,1.346,0,3z"/>
	</g>
</g>
<g id="nyt_x5F_exporter_x5F_info" display="none">
</g>
</svg>
