<?xml version="1.0" encoding="utf-8"?>
<!-- Generator: Adobe Illustrator 17.0.0, SVG Export Plug-In . SVG Version: 6.00 Build 0)  -->
<!DOCTYPE svg PUBLIC "-//W3C//DTD SVG 1.1//EN" "http://www.w3.org/Graphics/SVG/1.1/DTD/svg11.dtd">
<svg version="1.1" xmlns="http://www.w3.org/2000/svg" xmlns:xlink="http://www.w3.org/1999/xlink" x="0px" y="0px" width="48px"
	 height="48px" viewBox="0 0 48 48" enable-background="new 0 0 48 48" xml:space="preserve">
<g id="Layer_3">
	<g>
		<path fill="#010101" d="M41.866,34.375c-0.942-0.339-1.923-0.692-2.866-1.056v-1.715c0.746-0.496,1.814-1.609,1.979-3.968
			c0.677-0.571,1.026-1.728,1.026-2.875c0-0.449-0.059-1.104-0.34-1.668c-0.092-0.186-0.204-0.351-0.331-0.492
			c0.489-0.89,1.136-2.35,0.615-3.917C41.227,16.519,38.293,15.75,36,15.75c-2.002,0-4.493,0.585-5.573,2.176
			c-1.059-0.034-1.602,0.442-1.872,0.834c-0.728,1.061-0.215,2.605,0.209,3.723c-0.172,0.16-0.321,0.358-0.44,0.589
			c-0.289,0.562-0.35,1.216-0.35,1.666c0,1.161,0.357,2.331,1.047,2.903c0.166,2.354,1.233,3.467,1.978,3.962v1.715
			c-0.222,0.086-0.451,0.169-0.676,0.253C33.599,35.585,34,36.898,34,38v10h13c0.552,0,1-0.448,1-1v-9
			C48,36.637,46.229,35.945,41.866,34.375z"/>
		<path fill="#010101" d="M27.86,34.473c-0.004,0.001-0.008,0.003-0.012,0.004c-2.269-1.224-4.988-2.394-6.848-3.152v-0.671v-1.632
			V28.56c0.37-0.285,0.826-0.759,1.209-1.529c0.002-0.004,0.004-0.008,0.007-0.013c0.28-0.565,0.518-1.293,0.656-2.217
			c0.012-0.079,0.02-0.165,0.03-0.246c0.034-0.272,0.065-0.55,0.081-0.855c0.094-0.062,0.182-0.136,0.267-0.215
			c0.004-0.004,0.006-0.01,0.01-0.014c0.317-0.304,0.573-0.72,0.752-1.195c0.002-0.005,0.004-0.01,0.006-0.016
			c0.085-0.231,0.152-0.475,0.198-0.728c0.004-0.02,0.006-0.041,0.009-0.061c0.042-0.25,0.068-0.507,0.068-0.767
			c0-0.167-0.01-0.329-0.028-0.486c-0.056-0.47-0.196-0.891-0.412-1.234c-0.137-0.219-0.303-0.403-0.491-0.552
			c0.082-0.191,0.17-0.414,0.258-0.652c0.115-0.313,0.209-0.618,0.285-0.917c0.019-0.075,0.037-0.153,0.054-0.23
			c0.065-0.291,0.116-0.578,0.145-0.858c0.007-0.074,0.007-0.152,0.012-0.227c0.015-0.225,0.017-0.446,0.007-0.665
			c-0.004-0.092-0.007-0.184-0.016-0.276c-0.027-0.287-0.066-0.572-0.136-0.85c-0.069-0.275-0.172-0.537-0.302-0.788
			c-0.007-0.014-0.014-0.029-0.021-0.043c-0.406-0.761-1.086-1.401-1.976-1.886c-0.032-0.017-0.065-0.032-0.097-0.049
			c-0.252-0.132-0.522-0.251-0.806-0.358c-0.113-0.042-0.229-0.078-0.344-0.116c-0.201-0.066-0.409-0.126-0.622-0.18
			c-0.17-0.043-0.342-0.081-0.515-0.115c-0.254-0.05-0.512-0.094-0.781-0.126c-0.108-0.014-0.215-0.026-0.322-0.036
			C17.8,10.025,17.408,10,17,10c-0.33,0-0.652,0.016-0.968,0.04c-0.949,0.076-1.931,0.269-2.824,0.604
			c-0.013,0.005-0.028,0.009-0.042,0.014c-0.173,0.066-0.333,0.15-0.498,0.227c-0.332,0.158-0.645,0.33-0.924,0.527
			c-0.023,0.016-0.048,0.029-0.07,0.045c-0.17,0.123-0.321,0.258-0.469,0.394c-0.053,0.049-0.108,0.097-0.159,0.149
			c-0.121,0.123-0.229,0.253-0.332,0.386c-0.129,0.168-0.261,0.334-0.361,0.524c-0.171-0.009-0.328-0.004-0.477,0.009
			c-0.226,0.02-0.425,0.062-0.603,0.119c-0.008,0.002-0.016,0.004-0.024,0.007c-0.169,0.056-0.314,0.129-0.443,0.208
			c-0.017,0.011-0.034,0.021-0.051,0.031c-0.119,0.078-0.222,0.162-0.309,0.249c-0.014,0.014-0.026,0.028-0.039,0.042
			c-0.083,0.088-0.156,0.177-0.212,0.261c-0.099,0.15-0.173,0.311-0.23,0.479c-0.016,0.046-0.023,0.095-0.036,0.142
			c-0.034,0.127-0.064,0.256-0.078,0.389c-0.006,0.051-0.007,0.104-0.01,0.156c-0.008,0.137-0.01,0.276-0.002,0.418
			c0.003,0.047,0.006,0.095,0.011,0.143c0.014,0.154,0.036,0.309,0.065,0.464c0.007,0.037,0.013,0.073,0.02,0.11
			c0.036,0.177,0.08,0.355,0.131,0.531c0.005,0.016,0.008,0.031,0.013,0.047c0.176,0.604,0.418,1.191,0.631,1.696
			c-0.206,0.152-0.386,0.346-0.535,0.577c0,0.001-0.001,0.001-0.001,0.001c-0.064,0.099-0.117,0.207-0.168,0.317
			c-0.009,0.021-0.022,0.038-0.031,0.059c-0.036,0.083-0.062,0.175-0.09,0.264c-0.017,0.053-0.039,0.101-0.053,0.156
			c-0.022,0.083-0.033,0.172-0.049,0.259c-0.04,0.222-0.068,0.452-0.068,0.696c0,0.257,0.025,0.51,0.067,0.758
			c0.003,0.019,0.005,0.039,0.009,0.059c0.046,0.249,0.111,0.49,0.196,0.718c0.002,0.006,0.004,0.012,0.007,0.018
			c0.177,0.469,0.431,0.88,0.744,1.181c0.004,0.004,0.006,0.009,0.01,0.013c0.085,0.079,0.173,0.153,0.268,0.215
			c0.016,0.305,0.047,0.582,0.081,0.853c0.01,0.083,0.018,0.169,0.03,0.249c0.138,0.923,0.376,1.65,0.656,2.215
			c0.002,0.004,0.004,0.008,0.007,0.013C10.174,27.8,10.63,28.275,11,28.56v0.462v1.632v0.671
			c-3.502,1.427-10.043,4.313-10.901,6.269c-0.004,0.01-0.013,0.02-0.017,0.03C0.028,37.754,0,37.88,0,38v9c0,0.552,0.448,1,1,1h22
			h8h1v-1v-9C32,37.011,30.161,35.713,27.86,34.473z"/>
	</g>
</g>
<g id="nyt_x5F_exporter_x5F_info" display="none">
</g>
</svg>
