<?xml version="1.0" encoding="utf-8"?>
<!-- Generator: Adobe Illustrator 17.0.0, SVG Export Plug-In . SVG Version: 6.00 Build 0)  -->
<!DOCTYPE svg PUBLIC "-//W3C//DTD SVG 1.1//EN" "http://www.w3.org/Graphics/SVG/1.1/DTD/svg11.dtd">
<svg version="1.1" xmlns="http://www.w3.org/2000/svg" xmlns:xlink="http://www.w3.org/1999/xlink" x="0px" y="0px" width="48px"
	 height="48px" viewBox="0 0 48 48" enable-background="new 0 0 48 48" xml:space="preserve">
<g id="Layer_3">
	<path fill="#010101" d="M47.96,1.608c-0.012-0.059-0.034-0.114-0.051-0.171c-0.02-0.068-0.035-0.136-0.063-0.202
		c-0.028-0.067-0.066-0.128-0.101-0.192c-0.028-0.051-0.05-0.104-0.083-0.153c-0.146-0.219-0.335-0.407-0.554-0.554
		c-0.05-0.034-0.105-0.057-0.158-0.086c-0.062-0.034-0.121-0.071-0.186-0.098c-0.067-0.028-0.137-0.044-0.206-0.064
		c-0.056-0.017-0.11-0.038-0.168-0.05C46.263,0.014,46.131,0,46,0H33c-1.105,0-2,0.896-2,2c0,1.105,0.895,2,2,2h8.172L28.365,16.807
		C25.377,14.431,21.605,13,17.5,13C7.851,13,0,20.851,0,30.5C0,40.149,7.851,48,17.5,48S35,40.149,35,30.5
		c0-4.105-1.431-7.877-3.807-10.865L44,6.828V15c0,1.105,0.895,2,2,2c1.104,0,2-0.895,2-2V2C48,1.869,47.986,1.738,47.96,1.608z
		 M17.5,44C10.056,44,4,37.944,4,30.5C4,23.056,10.056,17,17.5,17C24.944,17,31,23.056,31,30.5C31,37.944,24.944,44,17.5,44z"/>
</g>
<g id="nyt_x5F_exporter_x5F_info" display="none">
</g>
</svg>
