<?xml version="1.0" encoding="utf-8"?>
<!-- Generator: Adobe Illustrator 17.0.0, SVG Export Plug-In . SVG Version: 6.00 Build 0)  -->
<!DOCTYPE svg PUBLIC "-//W3C//DTD SVG 1.1//EN" "http://www.w3.org/Graphics/SVG/1.1/DTD/svg11.dtd">
<svg version="1.1" xmlns="http://www.w3.org/2000/svg" xmlns:xlink="http://www.w3.org/1999/xlink" x="0px" y="0px" width="48px"
	 height="48px" viewBox="0 0 48 48" enable-background="new 0 0 48 48" xml:space="preserve">
<g id="Layer_3">
	<path fill="#010101" d="M39,15c0-8.271-6.729-15-15-15S9,6.729,9,15c0,7.591,5.673,13.868,13,14.851V38h-4c-1.105,0-2,0.896-2,2
		c0,1.105,0.895,2,2,2h4v4c0,1.105,0.895,2,2,2c1.104,0,2-0.895,2-2v-4h4c1.104,0,2-0.895,2-2c0-1.104-0.896-2-2-2h-4v-8.149
		C33.326,28.868,39,22.591,39,15z M24,26c-6.065,0-11-4.935-11-11c0-6.065,4.935-11,11-11s11,4.935,11,11C35,21.065,30.065,26,24,26
		z"/>
</g>
<g id="nyt_x5F_exporter_x5F_info" display="none">
</g>
</svg>
