<?xml version="1.0" encoding="utf-8"?>
<!-- Generator: Adobe Illustrator 17.0.0, SVG Export Plug-In . SVG Version: 6.00 Build 0)  -->
<!DOCTYPE svg PUBLIC "-//W3C//DTD SVG 1.1//EN" "http://www.w3.org/Graphics/SVG/1.1/DTD/svg11.dtd">
<svg version="1.1" xmlns="http://www.w3.org/2000/svg" xmlns:xlink="http://www.w3.org/1999/xlink" x="0px" y="0px" width="48px"
	 height="48px" viewBox="0 0 48 48" enable-background="new 0 0 48 48" xml:space="preserve">
<g id="Layer_3">
	<g>
		<path fill="#010101" d="M24.128,16.323c-0.925,0.604-1.186,1.842-0.583,2.768C24.497,20.551,25,22.249,25,24c0,4.962-4.038,9-9,9
			c-4.962,0-9-4.038-9-9c0-3.398,1.881-6.472,4.91-8.02c0.984-0.502,1.373-1.707,0.871-2.691c-0.503-0.985-1.709-1.374-2.691-0.871
			C5.717,14.654,3,19.092,3,24c0,6.135,4.276,11.277,10,12.637V40h-2c-1.105,0-2,0.896-2,2c0,1.105,0.895,2,2,2h2v2
			c0,1.105,0.895,2,2,2c1.104,0,2-0.895,2-2v-2h2c1.104,0,2-0.895,2-2c0-1.104-0.896-2-2-2h-2v-3.051C23.701,36.436,29,30.831,29,24
			c0-2.529-0.728-4.982-2.105-7.094C26.292,15.981,25.053,15.721,24.128,16.323z"/>
		<path fill="#010101" d="M47.96,1.608c-0.012-0.059-0.034-0.114-0.051-0.171c-0.02-0.068-0.035-0.136-0.063-0.202
			c-0.028-0.067-0.066-0.128-0.101-0.192c-0.028-0.051-0.05-0.104-0.083-0.153c-0.146-0.219-0.335-0.407-0.554-0.554
			c-0.05-0.034-0.105-0.057-0.158-0.086c-0.062-0.034-0.121-0.071-0.186-0.098c-0.067-0.028-0.137-0.044-0.206-0.064
			c-0.056-0.017-0.11-0.038-0.168-0.05C46.263,0.014,46.131,0,46,0h-7c-1.105,0-2,0.896-2,2c0,1.105,0.895,2,2,2h2.172l-5.516,5.516
			C33.505,7.942,30.863,7,28,7c-7.169,0-13,5.832-13,13c0,2.528,0.727,4.979,2.102,7.089c0.602,0.924,1.841,1.187,2.767,0.584
			c0.925-0.603,1.187-1.842,0.584-2.767C19.502,23.447,19,21.751,19,20c0-4.962,4.038-9,9-9c2.467,0,4.705,1,6.333,2.614
			c0.009,0.009,0.015,0.02,0.024,0.03c0.009,0.009,0.02,0.015,0.03,0.024C36,15.295,37,17.533,37,20
			c0,3.736-2.249,7.028-5.728,8.387c-1.029,0.401-1.537,1.562-1.135,2.59c0.308,0.79,1.063,1.273,1.863,1.273
			c0.242,0,0.488-0.044,0.727-0.138C37.752,30.15,41,25.396,41,20c0-2.863-0.942-5.505-2.516-7.655L44,6.828V9c0,1.105,0.895,2,2,2
			c1.104,0,2-0.895,2-2V2C48,1.869,47.986,1.738,47.96,1.608z"/>
	</g>
</g>
<g id="nyt_x5F_exporter_x5F_info" display="none">
</g>
</svg>
