<?xml version="1.0" encoding="utf-8"?>
<!-- Generator: Adobe Illustrator 17.0.0, SVG Export Plug-In . SVG Version: 6.00 Build 0)  -->
<!DOCTYPE svg PUBLIC "-//W3C//DTD SVG 1.1//EN" "http://www.w3.org/Graphics/SVG/1.1/DTD/svg11.dtd">
<svg version="1.1" xmlns="http://www.w3.org/2000/svg" xmlns:xlink="http://www.w3.org/1999/xlink" x="0px" y="0px" width="48px"
	 height="48px" viewBox="0 0 48 48" enable-background="new 0 0 48 48" xml:space="preserve">
<g id="Layer_3">
	<path fill="#010101" d="M47,6H1C0.448,6,0,6.448,0,7v34c0,0.552,0.448,1,1,1h8c0.552,0,1-0.448,1-1v-3c0-1.378,1.122-2.5,2.5-2.5
		c1.378,0,2.5,1.122,2.5,2.5v3c0,0.552,0.448,1,1,1h16c0.552,0,1-0.448,1-1v-3c0-1.378,1.122-2.5,2.5-2.5c1.378,0,2.5,1.122,2.5,2.5
		v3c0,0.552,0.448,1,1,1h8c0.552,0,1-0.448,1-1V7C48,6.448,47.552,6,47,6z M26,14h8v2h-8V14z M23,29c0,0.552-0.448,1-1,1H6
		c-0.552,0-1-0.448-1-1v-4c0-0.197,0.059-0.391,0.168-0.555c0.086-0.13,2.013-2.953,5.832-3.389v-0.53C10.248,19.929,9,18.554,9,16
		c0-1.991,0-5,5-5s5,3.009,5,5c0,2.554-1.248,3.929-2,4.526v0.53c3.819,0.436,5.746,3.259,5.832,3.389
		C22.941,24.609,23,24.803,23,25V29z M42,28H26v-2h16V28z M42,24H26v-2h16V24z M42,20H26v-2h16V20z"/>
</g>
<g id="nyt_x5F_exporter_x5F_info" display="none">
</g>
</svg>
