<?xml version="1.0" encoding="utf-8"?>
<!-- Generator: Adobe Illustrator 17.0.0, SVG Export Plug-In . SVG Version: 6.00 Build 0)  -->
<!DOCTYPE svg PUBLIC "-//W3C//DTD SVG 1.1//EN" "http://www.w3.org/Graphics/SVG/1.1/DTD/svg11.dtd">
<svg version="1.1" xmlns="http://www.w3.org/2000/svg" xmlns:xlink="http://www.w3.org/1999/xlink" x="0px" y="0px" width="48px"
	 height="48px" viewBox="0 0 48 48" enable-background="new 0 0 48 48" xml:space="preserve">
<g id="Layer_3">
	<g>
		<path fill="#010101" d="M0,47c0,0.552,0.448,1,1,1h46c0.552,0,1-0.448,1-1V22H0V47z M26,26h8v2h-8V26z M26,30h16v2H26V30z M26,34
			h16v2H26V34z M26,38h16v2H26V38z M6,41c0-2.481,1.245-5.276,4.498-6.44C9.575,33.652,9,32.393,9,31c0-2.757,2.243-5,5-5
			s5,2.243,5,5c0,1.393-0.575,2.652-1.498,3.56C20.754,35.724,22,38.519,22,41v1H6V41z"/>
		<path fill="#010101" d="M47,12H30V9c0-3.309-2.691-6-6-6s-6,2.691-6,6v3H1c-0.552,0-1,0.448-1,1v7h48v-7
			C48,12.448,47.552,12,47,12z M24,11c-1.105,0-2-0.896-2-2c0-1.104,0.895-2,2-2c1.104,0,2,0.896,2,2C26,10.104,25.104,11,24,11z"/>
	</g>
</g>
<g id="nyt_x5F_exporter_x5F_info" display="none">
</g>
</svg>
