<?xml version="1.0" encoding="utf-8"?>
<!-- Generator: Adobe Illustrator 17.0.0, SVG Export Plug-In . SVG Version: 6.00 Build 0)  -->
<!DOCTYPE svg PUBLIC "-//W3C//DTD SVG 1.1//EN" "http://www.w3.org/Graphics/SVG/1.1/DTD/svg11.dtd">
<svg version="1.1" xmlns="http://www.w3.org/2000/svg" xmlns:xlink="http://www.w3.org/1999/xlink" x="0px" y="0px" width="48px"
	 height="48px" viewBox="0 0 48 48" enable-background="new 0 0 48 48" xml:space="preserve">
<g id="Layer_3">
	<g>
		<path fill="#010101" d="M41,8H30V6c0-3.309-2.691-6-6-6c-3.309,0-6,2.691-6,6v2H7C6.448,8,6,8.448,6,9v38c0,0.552,0.448,1,1,1h34
			c0.552,0,1-0.448,1-1V9C42,8.448,41.552,8,41,8z M30,12h7c0.552,0,1,0.448,1,1v30c0,0.552-0.448,1-1,1H11c-0.552,0-1-0.448-1-1V13
			c0-0.552,0.448-1,1-1h7v2h-6v28h24V14h-6V12z M24,4c1.103,0,2,0.896,2,2c0,1.104-0.897,2-2,2c-1.106,0-2-0.896-2-2
			C22,4.896,22.894,4,24,4z M24,20c3.86,0,7,3.383,7,7.542c0,2.557-1.189,4.816-3,6.181v1.544l5.301,1.675l-0.603,1.907L26,36.733
			v-1.966c-0.634,0.204-1.305,0.318-2,0.318c-0.695,0-1.366-0.113-2-0.318v1.966l-6.699,2.116l-0.603-1.907L20,35.267v-1.544
			c-1.811-1.365-3-3.625-3-6.181C17,23.383,20.14,20,24,20z"/>
		<path fill="#010101" d="M24.293,24.634c0.224-0.224,0.539-0.33,0.852-0.282c0.313,0.046,0.586,0.237,0.735,0.516
			c0.434,0.808,1.235,1.037,1.674,1.102c0.468,0.068,0.891,0.006,1.209-0.107C28.12,23.626,26.229,22,24,22
			c-2.168,0-4.013,1.541-4.705,3.684C20.636,26.21,22.828,26.098,24.293,24.634z"/>
		<path fill="#010101" d="M24,33.085c2.657,0,4.831-2.311,4.985-5.215c-0.329,0.076-0.67,0.129-1.026,0.129
			c-0.23,0-0.463-0.017-0.696-0.051c-0.951-0.14-1.791-0.554-2.424-1.175c-1.793,1.245-4.06,1.462-5.832,0.926
			C19.083,30.683,21.291,33.085,24,33.085z"/>
	</g>
</g>
<g id="nyt_x5F_exporter_x5F_info" display="none">
</g>
</svg>
