<?xml version="1.0" encoding="utf-8"?>
<!-- Generator: Adobe Illustrator 17.0.0, SVG Export Plug-In . SVG Version: 6.00 Build 0)  -->
<!DOCTYPE svg PUBLIC "-//W3C//DTD SVG 1.1//EN" "http://www.w3.org/Graphics/SVG/1.1/DTD/svg11.dtd">
<svg version="1.1" xmlns="http://www.w3.org/2000/svg" xmlns:xlink="http://www.w3.org/1999/xlink" x="0px" y="0px" width="48px"
	 height="48px" viewBox="0 0 48 48" enable-background="new 0 0 48 48" xml:space="preserve">
<g id="Layer_3">
	<g>
		<path fill="#010101" d="M12.138,40.002V40H6v7c0,0.552,0.448,1,1,1h34c0.552,0,1-0.448,1-1v-7H13.161L12.138,40.002z M28,42h8v2
			h-8V42z"/>
		<path fill="#010101" d="M41,8H30V6c0-3.309-2.691-6-6-6c-3.309,0-6,2.691-6,6v2H7C6.448,8,6,8.448,6,9v29h6.169l0.002-0.143
			c0-1.492,1.107-2.901,2.632-3.337l5.274-1.276v-1.458C18.222,30.428,17,28.136,17,25.542c0-0.17,0.013-0.337,0.024-0.504
			c0.647,0.269,1.312,0.424,1.805,0.504c1.827,0.296,4.237,0.14,5.898-0.772c0.515,0.553,1.237,0.937,2.138,1.132
			c0.461,0.1,0.95,0.145,1.442,0.145c0.938,0,1.887-0.166,2.689-0.425c-0.024,2.486-1.171,4.683-2.918,6.039v1.584l5.235,1.266
			c1.61,0.46,2.692,1.844,2.671,3.377L35.986,38H42V9C42,8.448,41.552,8,41,8z M24,4c1.103,0,2,0.896,2,2c0,1.104-0.897,2-2,2
			c-1.106,0-2-0.896-2-2C22,4.896,22.894,4,24,4z M27.288,23.947c-1.08-0.233-1.285-0.779-1.352-0.959
			c-0.12-0.318-0.393-0.554-0.725-0.625c-0.333-0.073-0.678,0.03-0.918,0.271c-0.853,0.853-3.113,1.264-5.144,0.934
			c-0.784-0.128-1.348-0.34-1.732-0.565C18.388,20.091,20.968,18,24,18c3.233,0,5.953,2.377,6.754,5.592
			C29.953,23.912,28.494,24.208,27.288,23.947z"/>
	</g>
</g>
<g id="nyt_x5F_exporter_x5F_info" display="none">
</g>
</svg>
