<?xml version="1.0" encoding="utf-8"?>
<!-- Generator: Adobe Illustrator 17.0.0, SVG Export Plug-In . SVG Version: 6.00 Build 0)  -->
<!DOCTYPE svg PUBLIC "-//W3C//DTD SVG 1.1//EN" "http://www.w3.org/Graphics/SVG/1.1/DTD/svg11.dtd">
<svg version="1.1" xmlns="http://www.w3.org/2000/svg" xmlns:xlink="http://www.w3.org/1999/xlink" x="0px" y="0px" width="48px"
	 height="48px" viewBox="0 0 48 48" enable-background="new 0 0 48 48" xml:space="preserve">
<g id="Layer_3">
	<g>
		<path fill="#010101" d="M43,0H3C2.448,0,2,0.448,2,1v46c0,0.552,0.448,1,1,1h40c0.552,0,1-0.448,1-1V1C44,0.448,43.552,0,43,0z
			 M42,46H4V2h38V46z"/>
		<path fill="#010101" d="M6.684,36.051L18,32.279v-2.72c-0.742-0.571-1.833-1.905-1.982-4.859c-0.829-0.549-1.3-1.771-1.3-2.962
			c0-0.679,0.158-1.284,0.458-1.75c0.149-0.233,0.33-0.427,0.537-0.58c-0.573-1.356-1.352-3.309-0.515-4.573
			c0.296-0.447,0.921-0.987,2.157-0.926C18.48,11.78,21.522,11,24,11c2.782,0,6.277,0.984,6.97,3.757
			c0.472,1.888-0.168,3.649-0.609,4.677c0.188,0.148,0.353,0.333,0.49,0.551c0.288,0.458,0.44,1.052,0.44,1.719
			c0,1.206-0.475,2.442-1.31,2.996c-0.15,2.955-1.24,4.288-1.982,4.859v2.72l11.316,3.772C39.725,36.188,40,36.569,40,37V5
			c0-0.552-0.448-1-1-1H7C6.448,4,6,4.448,6,5v32C6,36.569,6.275,36.188,6.684,36.051z"/>
	</g>
</g>
<g id="nyt_x5F_exporter_x5F_info" display="none">
</g>
</svg>
