<?xml version="1.0" encoding="utf-8"?>
<!-- Generator: Adobe Illustrator 17.0.0, SVG Export Plug-In . SVG Version: 6.00 Build 0)  -->
<!DOCTYPE svg PUBLIC "-//W3C//DTD SVG 1.1//EN" "http://www.w3.org/Graphics/SVG/1.1/DTD/svg11.dtd">
<svg version="1.1" xmlns="http://www.w3.org/2000/svg" xmlns:xlink="http://www.w3.org/1999/xlink" x="0px" y="0px" width="48px"
	 height="48px" viewBox="0 0 48 48" enable-background="new 0 0 48 48" xml:space="preserve">
<g id="Layer_3">
	<g>
		<path fill="#010101" d="M10.242,33.569C8.465,33.838,6.735,34.24,5.4,35.241c-4.29,3.217-5.349,11.292-5.392,11.634
			c-0.036,0.285,0.052,0.571,0.242,0.786C0.44,47.877,0.713,48,1,48h20L10.2,33.6L10.242,33.569z"/>
		<path fill="#010101" d="M36.289,33.366C32.272,32.845,30,32.387,30,29.041v-1.946c1.104,0.815,2.556,1.296,4.141,1.296
			c2.752,0,5.263-1.433,6.714-3.832c0.187-0.309,0.193-0.694,0.016-1.009c-0.177-0.314-0.51-0.509-0.871-0.509
			c-1.35,0-1.967-4.387-2.463-7.911C36.652,8.835,35.55,1,29.609,1C27.973,1,26.133,1.613,24,2.871C21.867,1.613,20.027,1,18.391,1
			c-5.939,0-7.042,7.834-7.927,14.129C9.968,18.654,9.351,23.041,8,23.041c-0.384,0-0.735,0.22-0.901,0.567
			c-0.166,0.346-0.12,0.758,0.121,1.058c1.789,2.237,4.173,3.468,6.713,3.468h0.001c1.515,0,2.955-0.458,4.067-1.218v2.125
			c0,3.135-1.995,3.735-5.55,4.226L23.5,48h2l10.959-14.612C36.402,33.381,36.346,33.373,36.289,33.366z M18.621,25.08
			c-0.34-0.139-3.003-1.435-2.807-7.159c-0.256,0.072-0.524,0.12-0.814,0.12c-0.552,0-1-0.448-1-1c0-0.552,0.448-1,1-1
			c1.17,0,2-2.275,2-3c0-0.552,0.448-1,1-1c0.552,0,1,0.448,1,1c0,0.713-0.333,2.026-1.036,3.129
			c-0.768,5.891,1.423,7.062,1.445,7.073c0.483,0.239,0.707,0.825,0.484,1.316c-0.167,0.371-0.524,0.595-0.903,0.595
			C18.868,25.154,18.743,25.13,18.621,25.08z M20,36.041c-0.553,0-1-0.448-1-1c0-0.553,0.447-1,1-1c0.552,0,1,0.447,1,1
			C21,35.593,20.552,36.041,20,36.041z M24,37.041c-0.553,0-1-0.448-1-1c0-0.553,0.447-1,1-1c0.552,0,1,0.447,1,1
			C25,36.593,24.552,37.041,24,37.041z M28,36.041c-0.553,0-1-0.448-1-1c0-0.553,0.447-1,1-1c0.552,0,1,0.447,1,1
			C29,35.593,28.552,36.041,28,36.041z M29,25c-0.41,0-0.795-0.255-0.941-0.663c-0.183-0.51,0.074-1.07,0.573-1.267
			c0.097-0.048,2.153-1.164,1.403-6.901C29.333,15.067,29,13.754,29,13.041c0-0.552,0.448-1,1-1c0.552,0,1,0.448,1,1
			c0,0.725,0.83,3,2,3c0.552,0,1,0.448,1,1c0,0.552-0.448,1-1,1c-0.29,0-0.558-0.047-0.814-0.12c0.194,5.726-2.504,6.896-2.848,7.02
			C29.226,24.981,29.112,25,29,25z"/>
		<path fill="#010101" d="M42.6,35.241c-1.097-0.823-2.461-1.24-3.897-1.512L28,48h19c0.287,0,0.56-0.123,0.75-0.338
			c0.19-0.215,0.278-0.501,0.242-0.786C47.949,46.533,46.89,38.459,42.6,35.241z"/>
	</g>
</g>
<g id="nyt_x5F_exporter_x5F_info" display="none">
</g>
</svg>
