<?xml version="1.0" encoding="utf-8"?>
<!-- Generator: Adobe Illustrator 17.0.0, SVG Export Plug-In . SVG Version: 6.00 Build 0)  -->
<!DOCTYPE svg PUBLIC "-//W3C//DTD SVG 1.1//EN" "http://www.w3.org/Graphics/SVG/1.1/DTD/svg11.dtd">
<svg version="1.1" xmlns="http://www.w3.org/2000/svg" xmlns:xlink="http://www.w3.org/1999/xlink" x="0px" y="0px" width="48px"
	 height="48px" viewBox="0 0 48 48" enable-background="new 0 0 48 48" xml:space="preserve">
<g id="Layer_3">
	<g>
		<path fill="#010101" d="M42.083,33.547L36,31.815V32c0,3.475-2.964,8.565-11,8.961V48h23v-6
			C48,38.269,45.653,34.883,42.083,33.547z M29,45c-1.103,0-2-0.897-2-2s0.897-2,2-2s2,0.897,2,2S30.103,45,29,45z"/>
		<path fill="#010101" d="M12,32v-0.157l-6.16,1.73C2.347,34.883,0,38.27,0,42v6h23v-7.039C14.964,40.565,12,35.475,12,32z"/>
		<path fill="#010101" d="M34,32v-4.927c0.331-0.653,0.594-1.344,0.766-2.073c0.087-0.368,0.151-0.744,0.19-1.13
			c1.408-0.393,2.514-1.651,2.933-3.425c0.387-1.64,0.03-3.141-0.889-3.963v-2.159V14V9.382V5c0-0.512-0.365-5-13-5
			C12.55,0,11.151,4.271,11.03,4.757l-0.015,4.617L11,9.382l0.002,4.102L11,14h0.002l0,0.463L11,14.465v2.017
			c-0.919,0.822-1.276,2.324-0.889,3.963c0.419,1.774,1.524,3.033,2.933,3.425c0.039,0.386,0.103,0.762,0.19,1.13
			c0.172,0.729,0.435,1.42,0.766,2.073V32c0,2.814,2.663,7,10,7S34,34.814,34,32z M13,12v-1.336C14.325,10.159,18.015,9,24,9
			c5.987,0,9.677,1.159,11,1.664V12v1.537c-1.692-0.567-4.878-1.363-9.539-1.507C24.984,12.012,24.498,12,24,12
			c-5.809,0-9.23,0.829-11,1.462V12z M24,32c-2.685,0-9-3.8-9-9v-1h-1c-1.083,0-1.723-1.085-1.942-2.015
			c-0.225-0.951-0.053-1.87,0.39-2.091L13,17.618v-2.007C14.109,15.119,17.363,14,24,14c5.31,0,9.474,1.198,11,1.706v1.913
			l0.553,0.276c0.443,0.221,0.614,1.14,0.39,2.091C35.723,20.915,35.083,22,34,22h-1v1C33,28.2,26.685,32,24,32z"/>
		<path fill="#010101" d="M20.256,17.002L20,17.003l-0.256-0.001c-0.795-0.008-1.62-0.013-2.212,0.576
			C17.179,17.927,17,18.407,17,19.003c0,0.552,0.448,1,1,1c0.546,0,0.991-0.438,1-0.983c0.189-0.023,0.503-0.02,0.728-0.018
			L20,19.003l0.272-0.001C20.498,19,20.811,18.997,21,19.02c0.009,0.545,0.454,0.983,1,0.983c0.552,0,1-0.448,1-1
			c0-0.596-0.179-1.076-0.531-1.425C21.876,16.989,21.05,16.997,20.256,17.002z"/>
		<path fill="#010101" d="M28.256,17.002L28,17.003l-0.256-0.001c-0.797-0.008-1.619-0.013-2.212,0.576
			C25.179,17.927,25,18.407,25,19.003c0,0.552,0.448,1,1,1c0.546,0,0.991-0.438,1-0.983c0.189-0.023,0.503-0.02,0.728-0.018
			L28,19.003l0.272-0.001C28.497,19,28.812,18.997,29,19.02c0.009,0.545,0.454,0.983,1,0.983c0.552,0,1-0.448,1-1
			c0-0.596-0.179-1.076-0.531-1.425C29.875,16.989,29.052,16.997,28.256,17.002z"/>
	</g>
</g>
<g id="nyt_x5F_exporter_x5F_info" display="none">
</g>
</svg>
