<?xml version="1.0" encoding="utf-8"?>
<!-- Generator: Adobe Illustrator 17.1.0, SVG Export Plug-In . SVG Version: 6.00 Build 0)  -->
<!DOCTYPE svg PUBLIC "-//W3C//DTD SVG 1.0//EN" "http://www.w3.org/TR/2001/REC-SVG-20010904/DTD/svg10.dtd">
<svg version="1.0" id="Layer_1" xmlns="http://www.w3.org/2000/svg" xmlns:xlink="http://www.w3.org/1999/xlink" x="0px" y="0px"
	 width="48px" height="48px" viewBox="0 0 48 48" enable-background="new 0 0 48 48" xml:space="preserve">
<g>
	<path d="M13.996,30.701C6.999,31.656,0,32.845,0,40.491V48h23l0-0.001l0.015-12.345C19.251,35.065,14.869,31.693,13.996,30.701z
		 M16,41h-2v2c0,0.552-0.448,1-1,1c-0.552,0-1-0.448-1-1v-2h-2c-0.552,0-1-0.448-1-1s0.448-1,1-1h2v-2c0-0.552,0.448-1,1-1
		c0.552,0,1,0.448,1,1v2h2c0.552,0,1,0.448,1,1S16.552,41,16,41z"/>
	<path d="M33.897,30.685c-3.585,3.637-6.687,4.776-8.882,5.013L25,48h23v-7.509C48,32.749,41.206,31.683,33.897,30.685z M28,44
		c-0.553,0-1-0.448-1-1s0.447-1,1-1c0.553,0,1,0.448,1,1S28.553,44,28,44z M28,40c-0.553,0-1-0.448-1-1s0.447-1,1-1
		c0.553,0,1,0.448,1,1S28.553,40,28,40z"/>
	<path d="M20.257,17.001L20,17.003l-0.257-0.001c-0.8-0.003-1.619-0.013-2.211,0.576C17.179,17.927,17,18.407,17,19.003
		c0,0.552,0.448,1,1,1c0.546,0,0.991-0.438,1-0.983c0.189-0.022,0.501-0.02,0.727-0.019L20,19.003l0.273-0.001
		C20.498,19,20.811,18.997,21,19.02c0.009,0.545,0.454,0.983,1,0.983c0.552,0,1-0.448,1-1c0-0.596-0.179-1.076-0.531-1.426
		C21.876,16.989,21.056,16.997,20.257,17.001z"/>
	<path d="M28.257,17.001L28,17.003l-0.257-0.001c-0.798-0.003-1.619-0.013-2.211,0.576C25.179,17.927,25,18.407,25,19.003
		c0,0.552,0.448,1,1,1c0.546,0,0.991-0.438,1-0.983c0.188-0.022,0.501-0.02,0.727-0.019L28,19.003l0.273-0.001
		C28.498,19,28.811,18.997,29,19.02c0.009,0.545,0.454,0.983,1,0.983c0.552,0,1-0.448,1-1c0-0.596-0.179-1.076-0.531-1.426
		C29.876,16.989,29.053,16.997,28.257,17.001z"/>
	<path d="M32.584,29.168c0.012-0.011,0.027-0.015,0.039-0.026c0.903-1.088,1.618-2.34,2.018-3.731
		c0.088-0.149,0.152-0.313,0.152-0.498c0-0.012-0.005-0.022-0.006-0.033c0.075-0.339,0.137-0.683,0.171-1.036
		C36.33,23.375,37.25,21.902,37.25,20c0-0.57-0.085-1.099-0.238-1.577l0.958-7.256c0.012-0.069,1.049-6.906-8.639-9.115
		C27.914,0.781,26.049,0,24,0c-2.049,0-3.914,0.781-5.331,2.052c-9.688,2.209-8.651,9.046-8.644,9.083l0.988,7.245
		c-0.166,0.502-0.263,1.049-0.263,1.62c0,1.902,0.92,3.375,2.291,3.843c0.226,2.319,1.366,4.315,2.869,5.91
		c0.024,0.03,0.053,0.06,0.078,0.091c1.424,1.202,5.366,3.906,8.095,3.906c1.818,0,4.749-0.775,8.39-4.47L32.584,29.168z M24,2
		c3.309,0,6,2.691,6,6s-2.691,6-6,6c-3.309,0-6-2.691-6-6S20.691,2,24,2z M24,22c-3.699,0-7.206,0.981-8.958,1.561
		C15.025,23.375,15,23.19,15,23c0-0.552-0.448-1-1-1c-0.989,0-1.25-1.308-1.25-2c0-0.582,0.144-1.132,0.394-1.508
		C13.438,18.051,13.773,18,14,18c0.155,0,0.307-0.036,0.446-0.105l5.747-2.861C21.326,15.65,22.623,16,24,16
		c1.374,0,2.668-0.349,3.798-0.961l5.757,2.857C33.694,17.964,33.846,18,34,18c0.989,0,1.25,1.308,1.25,2s-0.261,2-1.25,2
		c-0.552,0-1,0.448-1,1c0,0.19-0.026,0.375-0.042,0.561C31.19,22.978,27.682,22,24,22z"/>
	<path d="M24,12c2.206,0,4-1.794,4-4s-1.794-4-4-4c-2.206,0-4,1.794-4,4S21.794,12,24,12z"/>
</g>
</svg>
