<?xml version="1.0" encoding="utf-8"?>
<!-- Generator: Adobe Illustrator 17.0.0, SVG Export Plug-In . SVG Version: 6.00 Build 0)  -->
<!DOCTYPE svg PUBLIC "-//W3C//DTD SVG 1.1//EN" "http://www.w3.org/Graphics/SVG/1.1/DTD/svg11.dtd">
<svg version="1.1" xmlns="http://www.w3.org/2000/svg" xmlns:xlink="http://www.w3.org/1999/xlink" x="0px" y="0px" width="48px"
	 height="48px" viewBox="0 0 48 48" enable-background="new 0 0 48 48" xml:space="preserve">
<g id="Layer_3">
	<g>
		<path fill="#010101" d="M19.096,10.644l0.847-1.619l0.908,1.586c0.9,1.575,1.802,2.109,3.236,1.912
			C23.426,9.762,21.36,7.74,18.918,7.74c-2.356,0-4.36,1.881-5.093,4.49c0.488,0.144,1.045,0.237,1.552,0.237
			C16.824,12.468,18.597,11.599,19.096,10.644z"/>
		<path fill="#010101" d="M23.54,14.571c-1.454,0-2.644-0.592-3.642-1.812c-1.15,1.007-2.909,1.709-4.521,1.709
			c-0.608,0-1.247-0.093-1.846-0.245c-0.002,0.064-0.008,0.126-0.008,0.19c0,3.679,2.42,6.673,5.395,6.673
			c2.945,0,5.343-2.939,5.388-6.571C24.044,14.548,23.786,14.571,23.54,14.571z"/>
		<path fill="#010101" d="M47.707,46.293L33.102,31.688C36.136,28.32,38,23.879,38,19C38,8.523,29.477,0,19,0C8.523,0,0,8.523,0,19
			c0,10.477,8.523,19,19,19c4.879,0,9.32-1.864,12.688-4.898l14.605,14.605C46.488,47.902,46.744,48,47,48
			c0.256,0,0.512-0.098,0.707-0.293C48.098,47.316,48.098,46.684,47.707,46.293z M29.57,28.872L21,25.311v-2.582
			c-0.661,0.228-1.359,0.356-2.082,0.356c-0.664,0-1.305-0.113-1.918-0.306v2.54l-8.627,3.475l-0.747-1.855L15,23.968v-2.213
			c-2.084-1.536-3.477-4.248-3.477-7.342c0-4.782,3.317-8.672,7.395-8.672c4.076,0,7.392,3.89,7.392,8.672
			c0,3.012-1.317,5.669-3.31,7.224v2.339l7.337,3.05L29.57,28.872z"/>
	</g>
</g>
<g id="nyt_x5F_exporter_x5F_info" display="none">
</g>
</svg>
