<?xml version="1.0" encoding="utf-8"?>
<!-- Generator: Adobe Illustrator 17.0.0, SVG Export Plug-In . SVG Version: 6.00 Build 0)  -->
<!DOCTYPE svg PUBLIC "-//W3C//DTD SVG 1.1//EN" "http://www.w3.org/Graphics/SVG/1.1/DTD/svg11.dtd">
<svg version="1.1" xmlns="http://www.w3.org/2000/svg" xmlns:xlink="http://www.w3.org/1999/xlink" x="0px" y="0px" width="48px"
	 height="48px" viewBox="0 0 48 48" enable-background="new 0 0 48 48" xml:space="preserve">
<g id="Layer_3">
	<g>
		<polygon fill="#010101" points="27.221,38.193 25.162,40.252 27.669,46.934 29.933,40.517 		"/>
		<path fill="#010101" d="M45.94,39.645c-0.83-2.923-5.184-4.538-11.227-6.661L29.413,48H47c0.552,0,1-0.448,1-1
			C48,46.869,47.977,43.762,45.94,39.645z M41,43h-5c-0.552,0-1-0.448-1-1c0-0.552,0.448-1,1-1h5c0.552,0,1,0.448,1,1
			C42,42.552,41.552,43,41,43z"/>
		<path fill="#010101" d="M30.647,38.495l2.179-6.175c-0.619-0.218-1.246-0.443-1.883-0.674l-5.233,2.616L30.647,38.495z"/>
		<path fill="#010101" d="M17.056,31.646c-0.538,0.195-1.071,0.387-1.596,0.573l2.048,6.143l4.782-4.099L17.056,31.646z"/>
		<polygon fill="#010101" points="18.191,40.411 20.349,46.886 22.837,40.252 20.779,38.193 		"/>
		<path fill="#010101" d="M30,26.488c0.878-0.745,2.756-2.69,2.978-5.865c0.772-0.65,1.176-2.018,1.176-3.084
			c0-0.646-0.142-1.193-0.422-1.624c-0.191-0.294-0.44-0.523-0.733-0.678V15c0-0.552-0.448-1-1-1H16c-0.552,0-1,0.448-1,1v0.237
			c-0.293,0.155-0.542,0.384-0.733,0.678c-0.28,0.431-0.422,0.978-0.422,1.624c0,1.066,0.404,2.434,1.176,3.084
			c0.223,3.175,2.1,5.12,2.979,5.865v3.394l6,3l6-3V26.488z"/>
		<path fill="#010101" d="M2.059,39.648c-1.031,2.146-1.999,6.95-2.04,7.156c-0.059,0.294,0.017,0.599,0.207,0.83
			C0.416,47.866,0.7,48,1,48h17.612l-5.039-15.117C7.378,35.057,2.899,36.676,2.059,39.648z"/>
		<path fill="#010101" d="M11,13h21.997c0.001,0,0.002,0.001,0.003,0.001c0.001,0,0.002-0.001,0.003-0.001H37c0.552,0,1-0.448,1-1
			c0-0.552-0.448-1-1-1h-3.299L29.94,0.658c-0.102-0.281-0.324-0.501-0.605-0.601c-0.282-0.1-0.593-0.068-0.849,0.085l-2.428,1.456
			c-1.097,0.659-3.019,0.658-4.116,0l-2.428-1.456c-0.256-0.153-0.566-0.185-0.849-0.085c-0.281,0.1-0.503,0.32-0.605,0.601
			L14.299,11H11c-0.552,0-1,0.448-1,1C10,12.552,10.448,13,11,13z"/>
	</g>
</g>
<g id="nyt_x5F_exporter_x5F_info" display="none">
</g>
</svg>
