<?xml version="1.0" encoding="utf-8"?>
<!-- Generator: Adobe Illustrator 17.0.0, SVG Export Plug-In . SVG Version: 6.00 Build 0)  -->
<!DOCTYPE svg PUBLIC "-//W3C//DTD SVG 1.1//EN" "http://www.w3.org/Graphics/SVG/1.1/DTD/svg11.dtd">
<svg version="1.1" xmlns="http://www.w3.org/2000/svg" xmlns:xlink="http://www.w3.org/1999/xlink" x="0px" y="0px" width="48px"
	 height="48px" viewBox="0 0 48 48" enable-background="new 0 0 48 48" xml:space="preserve">
<g id="Layer_3">
	<g>
		<path fill="#010101" d="M35.658,34.289l-2.947,9.823l-7.412-1.06L25,43.384V48h23v-2C48,39.935,42.444,37.156,35.658,34.289z"/>
		<path fill="#010101" d="M31.266,32.437c0.574-0.571,1.111-1.25,1.594-2.052c1.338,0.804,3.222,1.216,5.635,1.216h0
			c2.935,0,5.613-0.6,5.726-0.625c0.38-0.086,0.675-0.385,0.757-0.767c0.081-0.381-0.066-0.774-0.378-1.008
			c-1.142-0.856-1.503-3.701-1.885-6.713c-0.706-5.555-1.681-13.076-8.481-16.052l-1.244,8.707C32.919,15.634,32.498,16,32,16
			h-2.866c0.434,1.774,1.885,4.109,3.86,5.572c-0.193,9.737-5.348,11.282-8.449,12.212c-0.191,0.057-0.373,0.112-0.545,0.166
			c-0.172-0.054-0.355-0.108-0.545-0.166c-3.101-0.93-8.255-2.475-8.449-12.212c1.975-1.463,3.426-3.798,3.86-5.572H16
			c-0.498,0-0.919-0.366-0.99-0.858L13.76,6.387C6.966,9.366,5.991,16.903,5.286,22.471C4.903,25.491,4.541,28.344,3.4,29.2
			c-0.312,0.234-0.46,0.628-0.377,1.01c0.082,0.382,0.378,0.681,0.759,0.766c0.112,0.025,2.773,0.613,5.697,0.613
			c2.422,0,4.313-0.41,5.658-1.21c0.484,0.805,1.023,1.486,1.598,2.058c-0.215,0.092-0.431,0.189-0.645,0.279L24,41.505l7.91-8.789
			C31.697,32.626,31.48,32.529,31.266,32.437z"/>
		<path fill="#010101" d="M15.363,44.101l-3.793-9.484C5.14,37.373,0,40.167,0,46v2h23v-4.616l-0.299-0.332L15.363,44.101z"/>
		<path fill="#010101" d="M16.867,14H18h12h1.133l1.225-8.575c0.123-0.862-0.133-1.733-0.703-2.39C31.084,2.377,30.258,2,29.389,2
			H18.611c-0.87,0-1.696,0.377-2.266,1.035c-0.57,0.657-0.826,1.528-0.703,2.39L16.867,14z M21,7h2V5c0-0.552,0.448-1,1-1
			c0.552,0,1,0.448,1,1v2h2c0.552,0,1,0.448,1,1c0,0.552-0.448,1-1,1h-2v2c0,0.552-0.448,1-1,1c-0.552,0-1-0.448-1-1V9h-2
			c-0.552,0-1-0.448-1-1C20,7.448,20.448,7,21,7z"/>
		<path fill="#010101" d="M20,20.003l-0.256-0.001c-0.796-0.007-1.62-0.013-2.212,0.576C17.179,20.927,17,21.407,17,22.003
			c0,0.552,0.448,1,1,1c0.546,0,0.991-0.438,1-0.983c0.189-0.022,0.503-0.021,0.728-0.018L20,22.003l0.272-0.001
			c0.226-0.003,0.539-0.004,0.728,0.018c0.009,0.545,0.454,0.983,1,0.983c0.552,0,1-0.448,1-1c0-0.596-0.179-1.076-0.531-1.425
			c-0.593-0.589-1.416-0.58-2.212-0.576L20,20.003z"/>
		<path fill="#010101" d="M25.531,20.578C25.179,20.927,25,21.407,25,22.003c0,0.552,0.448,1,1,1c0.546,0,0.991-0.438,1-0.983
			c0.189-0.022,0.503-0.021,0.728-0.018L28,22.003l0.272-0.001c0.225-0.003,0.539-0.004,0.728,0.018
			c0.009,0.545,0.454,0.983,1,0.983c0.552,0,1-0.448,1-1c0-0.596-0.179-1.076-0.531-1.425c-0.593-0.589-1.418-0.58-2.212-0.576
			L28,20.003l-0.256-0.001C26.945,19.994,26.124,19.988,25.531,20.578z"/>
	</g>
</g>
<g id="nyt_x5F_exporter_x5F_info" display="none">
</g>
</svg>
