<?xml version="1.0" encoding="utf-8"?>
<!-- Generator: Adobe Illustrator 17.0.0, SVG Export Plug-In . SVG Version: 6.00 Build 0)  -->
<!DOCTYPE svg PUBLIC "-//W3C//DTD SVG 1.1//EN" "http://www.w3.org/Graphics/SVG/1.1/DTD/svg11.dtd">
<svg version="1.1" xmlns="http://www.w3.org/2000/svg" xmlns:xlink="http://www.w3.org/1999/xlink" x="0px" y="0px" width="48px"
	 height="48px" viewBox="0 0 48 48" enable-background="new 0 0 48 48" xml:space="preserve">
<g id="Layer_3">
	<path fill="#010101" d="M24,0C10.767,0,0,10.766,0,24c0,6.359,2.464,12.352,6.938,16.876l0.001,0.001C11.485,45.47,17.544,48,24,48
		c6.468,0,12.535-2.538,17.083-7.147C45.543,36.332,48,30.347,48,24C48,10.766,37.233,0,24,0z M40.189,38.856
		c-2.111-1.254-5.28-2.406-8.639-3.621c-0.837-0.303-1.692-0.612-2.551-0.93V30.61c1.002-0.618,2.768-2.215,2.979-5.871
		c0.773-0.452,1.26-1.455,1.26-2.739c0-1.157-0.395-2.086-1.039-2.589c0.484-1.514,1.36-4.288,0.77-6.654
		C32.277,9.984,28.513,9,25.5,9c-2.684,0-5.964,0.781-7.138,2.912c-1.408-0.069-2.19,0.547-2.58,1.061
		c-1.271,1.677-0.432,4.736,0.041,6.42c-0.657,0.499-1.062,1.436-1.062,2.606c0,1.285,0.487,2.288,1.26,2.739
		c0.211,3.656,1.977,5.253,2.979,5.871v3.697c-0.771,0.287-1.561,0.573-2.352,0.86c-3.243,1.175-6.576,2.39-8.815,3.716
		C4.079,34.809,2,29.564,2,24C2,11.869,11.869,2,24,2c12.131,0,22,9.869,22,22C46,29.551,43.929,34.786,40.189,38.856z"/>
</g>
<g id="nyt_x5F_exporter_x5F_info" display="none">
</g>
</svg>
