<?xml version="1.0" encoding="utf-8"?>
<!-- Generator: Adobe Illustrator 17.0.0, SVG Export Plug-In . SVG Version: 6.00 Build 0)  -->
<!DOCTYPE svg PUBLIC "-//W3C//DTD SVG 1.1//EN" "http://www.w3.org/Graphics/SVG/1.1/DTD/svg11.dtd">
<svg version="1.1" xmlns="http://www.w3.org/2000/svg" xmlns:xlink="http://www.w3.org/1999/xlink" x="0px" y="0px" width="48px"
	 height="48px" viewBox="0 0 48 48" enable-background="new 0 0 48 48" xml:space="preserve">
<g id="Layer_3">
	<g>
		<polygon fill="#010101" points="18.117,48 29.883,48 31.633,34 16.367,34 		"/>
		<path fill="#010101" d="M14.047,28h19.914l0.281-0.469l0.061-0.12C35.381,24.896,36,21.83,36,19v-1H12v1
			c0,2.831,0.618,5.897,1.697,8.412L14.047,28z M22.327,19h3.347l0.638,8h-4.624L22.327,19z"/>
		<path fill="#010101" d="M43,30H5c-0.551,0-1,0.449-1,1c0,0.551,0.449,1,1,1h38c0.551,0,1-0.449,1-1C44,30.449,43.551,30,43,30z"/>
		<path fill="#010101" d="M24,16c4.411,0,8-3.589,8-8c0-4.411-3.589-8-8-8c-4.411,0-8,3.589-8,8C16,12.411,19.589,16,24,16z"/>
	</g>
</g>
<g id="nyt_x5F_exporter_x5F_info" display="none">
</g>
</svg>
