<?xml version="1.0" encoding="utf-8"?>
<!-- Generator: Adobe Illustrator 17.0.0, SVG Export Plug-In . SVG Version: 6.00 Build 0)  -->
<!DOCTYPE svg PUBLIC "-//W3C//DTD SVG 1.1//EN" "http://www.w3.org/Graphics/SVG/1.1/DTD/svg11.dtd">
<svg version="1.1" xmlns="http://www.w3.org/2000/svg" xmlns:xlink="http://www.w3.org/1999/xlink" x="0px" y="0px" width="48px"
	 height="48px" viewBox="0 0 48 48" enable-background="new 0 0 48 48" xml:space="preserve">
<g id="Layer_3">
	<path fill="#010101" d="M47.707,46.293L33.102,31.688C36.136,28.32,38,23.879,38,19C38,8.523,29.477,0,19,0C8.523,0,0,8.523,0,19
		c0,10.477,8.523,19,19,19c4.879,0,9.32-1.864,12.688-4.898l14.605,14.605C46.488,47.902,46.744,48,47,48s0.512-0.098,0.707-0.293
		C48.098,47.316,48.098,46.684,47.707,46.293z M27.567,31.088c-1.586-0.754-3.294-1.502-4.939-2.16C22.249,28.776,22,28.409,22,28
		v-4c0-0.425,0.269-0.804,0.67-0.944h0c-0.008,0,1.33-0.67,1.33-4.056c0-0.522,0.4-0.95,0.91-0.996
		c0.149-0.147,0.39-0.684,0.382-1.327c-0.005-0.432-0.125-0.642-0.168-0.67c-0.552,0-1.06-0.455-1.06-1.007
		c0-0.318,0.12-0.589,0.319-1.037c0.378-0.849,1.009-2.271,0.647-3.721C24.705,8.943,22.59,8,20,8s-4.705,0.943-5.03,2.243
		c-0.13,0.52-0.647,0.844-1.17,0.737c-0.732-0.149-0.946-0.026-0.949-0.025c-0.107,0.185-0.075,0.841,0.766,2.823
		C13.872,14.379,14,14.681,14,15c0,0.552-0.448,1-1,1c-0.08,0-0.142,0-0.217,0.241c-0.196,0.636,0.081,1.548,0.306,1.763
		C13.6,18.049,14,18.478,14,19c0,3.409,1.356,4.065,1.369,4.071C15.726,23.233,16,23.608,16,24v4c0,0.409-0.249,0.777-0.629,0.929
		c-1.643,0.657-3.352,1.404-4.942,2.161l-0.859-1.806c1.426-0.679,2.946-1.351,4.431-1.958V24.56
		c-0.742-0.571-1.833-1.905-1.982-4.859c-0.828-0.549-1.299-1.771-1.299-2.962c0-0.678,0.158-1.283,0.458-1.749
		c0.149-0.233,0.33-0.426,0.537-0.58c-0.603-1.425-1.421-3.481-0.398-4.732c0.449-0.549,1.133-0.81,2.038-0.766
		C14.479,6.781,17.522,6,20,6c2.782,0,6.277,0.984,6.97,3.757c0.472,1.888-0.168,3.649-0.609,4.676
		c0.188,0.148,0.354,0.333,0.491,0.552c0.288,0.458,0.44,1.052,0.44,1.72c0,1.205-0.475,2.442-1.31,2.995
		c-0.15,2.955-1.24,4.289-1.982,4.859v2.767c1.487,0.609,3.005,1.28,4.427,1.957L27.567,31.088z"/>
</g>
<g id="nyt_x5F_exporter_x5F_info" display="none">
</g>
</svg>
