<?xml version="1.0" encoding="utf-8"?>
<!-- Generator: Adobe Illustrator 17.0.0, SVG Export Plug-In . SVG Version: 6.00 Build 0)  -->
<!DOCTYPE svg PUBLIC "-//W3C//DTD SVG 1.1//EN" "http://www.w3.org/Graphics/SVG/1.1/DTD/svg11.dtd">
<svg version="1.1" xmlns="http://www.w3.org/2000/svg" xmlns:xlink="http://www.w3.org/1999/xlink" x="0px" y="0px" width="48px"
	 height="48px" viewBox="0 0 48 48" enable-background="new 0 0 48 48" xml:space="preserve">
<g id="Layer_3">
	<g>
		<path fill="#010101" d="M24,12c3.309,0,6-2.691,6-6c0-3.309-2.691-6-6-6c-3.309,0-6,2.691-6,6C18,9.309,20.691,12,24,12z"/>
		<path fill="#010101" d="M35.275,15.039l-7-2c-0.464-0.134-0.955,0.084-1.169,0.514L24,19.764l-3.106-6.212
			c-0.214-0.43-0.704-0.647-1.169-0.514l-7,2C12.296,15.161,12,15.554,12,16v15c0,0.552,0.448,1,1,1h3.058l1.95,15.128
			C18.072,47.627,18.497,48,19,48h10c0.503,0,0.928-0.373,0.992-0.872L31.939,32H35c0.552,0,1-0.448,1-1V16
			C36,15.554,35.704,15.161,35.275,15.039z"/>
	</g>
</g>
<g id="nyt_x5F_exporter_x5F_info" display="none">
</g>
</svg>
