<?xml version="1.0" encoding="utf-8"?>
<!-- Generator: Adobe Illustrator 17.1.0, SVG Export Plug-In . SVG Version: 6.00 Build 0)  -->
<!DOCTYPE svg PUBLIC "-//W3C//DTD SVG 1.0//EN" "http://www.w3.org/TR/2001/REC-SVG-20010904/DTD/svg10.dtd">
<svg version="1.0" id="Layer_1" xmlns="http://www.w3.org/2000/svg" xmlns:xlink="http://www.w3.org/1999/xlink" x="0px" y="0px"
	 width="48px" height="48px" viewBox="0 0 48 48" enable-background="new 0 0 48 48" xml:space="preserve">
<g>
	<path d="M33.484,30.629c-0.659-0.09-1.329-0.181-2.002-0.278c1.795-1.683,3.222-3.886,3.477-6.507
		C36.33,23.375,37.25,21.902,37.25,20c0-0.566-0.09-1.087-0.24-1.562l1.001-7.339c0.016-0.16,0.359-3.952-2.488-7.098
		C33.12,1.346,29.248,0,24.016,0c-5.232,0-9.104,1.346-11.507,4.002c-2.847,3.146-2.504,6.938-2.484,7.134l0.987,7.24
		C10.848,18.867,10.75,19.409,10.75,20c0,1.902,0.92,3.375,2.291,3.843c0.255,2.622,1.683,4.826,3.479,6.509
		c-0.617,0.088-1.233,0.172-1.838,0.254C7.463,31.585,0,32.596,0,40.491V48h23l0-0.001l0.016-13.333c0-0.552,0.448-0.999,1-0.999
		h0.001c0.552,0,1,0.449,0.999,1.001L25,48h23v-7.509C48,32.604,40.949,31.645,33.484,30.629z M16,41h-2v2c0,0.552-0.448,1-1,1
		c-0.552,0-1-0.448-1-1v-2h-2c-0.552,0-1-0.448-1-1s0.448-1,1-1h2v-2c0-0.552,0.448-1,1-1c0.552,0,1,0.448,1,1v2h2
		c0.552,0,1,0.448,1,1S16.552,41,16,41z M28,44c-0.553,0-1-0.448-1-1s0.447-1,1-1c0.553,0,1,0.448,1,1S28.553,44,28,44z M28,40
		c-0.553,0-1-0.448-1-1s0.447-1,1-1c0.553,0,1,0.448,1,1S28.553,40,28,40z M24,32c-2.685,0-9-3.8-9-9c0-0.552-0.448-1-1-1
		c-0.989,0-1.25-1.308-1.25-2s0.261-2,1.25-2c0.476,0,0.886-0.336,0.98-0.803l0.846-4.208c5.259-0.14,7.105-1.639,8.184-3.202
		c1.076,1.562,2.918,3.061,8.174,3.202l0.834,4.205C33.112,17.663,33.523,18,34,18c0.989,0,1.25,1.308,1.25,2s-0.261,2-1.25,2
		c-0.552,0-1,0.448-1,1C33,28.2,26.685,32,24,32z"/>
	<path d="M20.257,17.001L20,17.003l-0.257-0.001c-0.801-0.003-1.619-0.013-2.211,0.576C17.179,17.927,17,18.407,17,19.003
		c0,0.552,0.448,1,1,1c0.546,0,0.991-0.438,1-0.983c0.189-0.022,0.501-0.02,0.727-0.019L20,19.003l0.273-0.001
		C20.498,19,20.811,18.997,21,19.02c0.009,0.545,0.454,0.983,1,0.983c0.552,0,1-0.448,1-1c0-0.596-0.179-1.076-0.531-1.426
		C21.876,16.989,21.055,16.997,20.257,17.001z"/>
	<path d="M28.257,17.001L28,17.003l-0.257-0.001c-0.798-0.003-1.619-0.013-2.211,0.576C25.179,17.927,25,18.407,25,19.003
		c0,0.552,0.448,1,1,1c0.546,0,0.991-0.438,1-0.983c0.188-0.022,0.501-0.02,0.727-0.019L28,19.003l0.273-0.001
		C28.498,19,28.811,18.997,29,19.02c0.009,0.545,0.454,0.983,1,0.983c0.552,0,1-0.448,1-1c0-0.596-0.179-1.076-0.531-1.426
		C29.876,16.989,29.053,16.997,28.257,17.001z"/>
</g>
</svg>
