<?xml version="1.0" encoding="utf-8"?>
<!-- Generator: Adobe Illustrator 17.0.0, SVG Export Plug-In . SVG Version: 6.00 Build 0)  -->
<!DOCTYPE svg PUBLIC "-//W3C//DTD SVG 1.1//EN" "http://www.w3.org/Graphics/SVG/1.1/DTD/svg11.dtd">
<svg version="1.1" xmlns="http://www.w3.org/2000/svg" xmlns:xlink="http://www.w3.org/1999/xlink" x="0px" y="0px" width="48px"
	 height="48px" viewBox="0 0 48 48" enable-background="new 0 0 48 48" xml:space="preserve">
<g id="Layer_3">
	<g>
		<path fill="#010101" d="M42.081,33.547l-11.11-3.154C31.435,29.962,31.878,29.5,32.28,29h-2.465
			c-0.251,0.189-0.534,0.347-0.825,0.488C27.086,31.064,24.864,32,23.533,32c-2.685,0-9-3.8-9-9c0-0.552-0.448-1-1-1
			c-0.989,0-1.25-1.308-1.25-2c0-0.692,0.261-2,1.25-2c0.477,0,0.887-0.336,0.98-0.804l0.842-4.207
			c5.256-0.14,7.101-1.639,8.178-3.201c1.077,1.562,2.921,3.061,8.178,3.201l0.841,4.207C32.645,17.664,33.056,18,33.533,18
			c0.989,0,1.25,1.308,1.25,2c0,0.692-0.261,2-1.25,2c-0.552,0-1,0.448-1,1c0,0.199-0.026,0.392-0.044,0.586h2.402
			c0.054,0,0.107-0.009,0.161-0.012c0.385-0.233,0.715-0.558,0.984-0.954h0.24h1.207c0.27,0,0.535-0.031,0.793-0.085v0.672v0v0
			c0,0.2-0.03,0.377-0.073,0.545c-0.005,0.018-0.01,0.036-0.015,0.054c-0.206,0.729-0.776,1.161-1.392,1.414
			c-0.111,0.048-0.228,0.087-0.346,0.125c-0.028,0.009-0.055,0.018-0.083,0.026c-0.324,0.097-0.666,0.161-1.019,0.189
			c-0.225,0.021-0.389,0.025-0.451,0.025c-0.002,0-0.004,0-0.006,0h-5.85l0,0h-0.071c-0.054-0.092-0.139-0.177-0.236-0.257
			c-0.096-0.078-0.205-0.151-0.325-0.214c-0.004-0.002-0.009-0.004-0.014-0.006c-0.12-0.062-0.249-0.114-0.38-0.158
			C28,24.946,27.985,24.94,27.97,24.936c-0.129-0.042-0.258-0.074-0.383-0.097c-0.022-0.004-0.044-0.008-0.066-0.011
			c-0.123-0.02-0.242-0.034-0.346-0.034c-0.001,0-0.002,0-0.003,0h-3.966c-0.328,0-0.633,0.1-0.886,0.271
			c-0.253,0.171-0.455,0.414-0.575,0.698c-0.08,0.19-0.125,0.398-0.125,0.617c0,0.31,0.093,0.598,0.248,0.843
			c0.281,0.445,0.774,0.743,1.339,0.743h3.965c0.098,0,0.216-0.018,0.343-0.048c0.012-0.003,0.024-0.006,0.036-0.008
			c0.251-0.064,0.537-0.181,0.798-0.335c0.021-0.012,0.042-0.024,0.062-0.036c0.121-0.075,0.234-0.159,0.335-0.25
			C28.852,27.194,28.943,27.097,29,27h0.063H35c0.123,0,0.248-0.004,0.374-0.011c0.069-0.004,0.141-0.011,0.213-0.017
			c0.058-0.005,0.117-0.01,0.175-0.016c0.075-0.008,0.153-0.02,0.23-0.031c0.063-0.009,0.126-0.018,0.188-0.029
			c0.06-0.01,0.121-0.023,0.181-0.035c0.092-0.019,0.184-0.038,0.275-0.061c0.026-0.006,0.052-0.013,0.078-0.02
			c1.515-0.399,2.892-1.361,3.116-3.074c0.015-0.123,0.021-0.252,0.025-0.384c0.001-0.039,0.007-0.075,0.007-0.114v-1.389l0,0
			c1.066-0.773,1.793-2.017,1.793-3.37c0-0.834-0.275-1.63-0.735-2.299c-0.767-1.113-2.049-1.874-3.437-1.874h-0.409l0.454-3.176
			c0.016-0.16,0.359-3.952-2.488-7.098C32.637,1.346,28.766,0,23.533,0s-9.104,1.346-11.507,4.002
			c-2.847,3.146-2.504,6.938-2.483,7.14l1.024,7.168c-0.178,0.508-0.285,1.073-0.285,1.691c0,1.902,0.92,3.376,2.291,3.843
			c0.268,2.755,1.826,5.055,3.752,6.767L5.84,33.573C2.347,34.883,0,38.27,0,42v6h48v-6C48,38.27,45.653,34.883,42.081,33.547z"/>
		<path fill="#010101" d="M22.533,19c0-0.596-0.179-1.076-0.531-1.425c-0.593-0.589-1.418-0.582-2.212-0.576L19.533,17l-0.256-0.001
			c-0.796-0.005-1.619-0.013-2.212,0.576c-0.353,0.35-0.531,0.829-0.531,1.425c0,0.552,0.448,1,1,1c0.546,0,0.991-0.438,1-0.983
			c0.188-0.023,0.501-0.022,0.727-0.019L19.533,19l0.272-0.001c0.223-0.002,0.539-0.004,0.728,0.019
			c0.009,0.544,0.454,0.983,1,0.983C22.085,20,22.533,19.552,22.533,19z"/>
		<path fill="#010101" d="M26.533,19.017c0.188-0.023,0.505-0.021,0.728-0.019L27.533,19l0.272-0.001
			c0.225-0.002,0.539-0.004,0.728,0.019c0.009,0.544,0.454,0.983,1,0.983c0.552,0,1-0.448,1-1c0-0.596-0.179-1.076-0.531-1.425
			c-0.593-0.589-1.419-0.578-2.212-0.576L27.533,17l-0.257-0.001c-0.798-0.007-1.62-0.013-2.212,0.576
			c-0.353,0.35-0.531,0.829-0.531,1.425c0,0.552,0.448,1,1,1C26.079,20,26.523,19.562,26.533,19.017z"/>
	</g>
</g>
<g id="nyt_x5F_exporter_x5F_info" display="none">
</g>
</svg>
