<?xml version="1.0" encoding="utf-8"?>
<!-- Generator: Adobe Illustrator 17.0.0, SVG Export Plug-In . SVG Version: 6.00 Build 0)  -->
<!DOCTYPE svg PUBLIC "-//W3C//DTD SVG 1.1//EN" "http://www.w3.org/Graphics/SVG/1.1/DTD/svg11.dtd">
<svg version="1.1" xmlns="http://www.w3.org/2000/svg" xmlns:xlink="http://www.w3.org/1999/xlink" x="0px" y="0px" width="48px"
	 height="48px" viewBox="0 0 48 48" enable-background="new 0 0 48 48" xml:space="preserve">
<g id="Layer_3">
	<g>
		<path fill="#010101" d="M29.815,26.134c-0.656-0.224-1.338-0.45-2.046-0.683c-1.248-0.412-2.531-0.835-3.769-1.288v-3.728
			c0.973-0.651,2.764-2.318,2.978-5.863c0.734-0.47,1.194-1.488,1.194-2.786c0-1.139-0.354-2.062-0.937-2.589
			c0.488-1.232,1.283-3.377,0.734-5.581C27.307,0.947,23.531,0,20.499,0c0,0-0.001,0-0.002,0c-2.684,0-5.952,0.743-7.125,2.768
			c-1.03-0.055-1.833,0.219-2.396,0.832c-1.337,1.453-0.595,4.155-0.154,5.68c-0.233,0.189-0.433,0.439-0.59,0.74
			c-0.263,0.503-0.407,1.156-0.407,1.838c0,1.269,0.461,2.263,1.196,2.722c0.217,3.54,2.006,5.206,2.979,5.856v3.728
			c-1.237,0.453-2.521,0.876-3.768,1.288c-4.702,1.552-8.415,2.777-9.182,5.092C0.065,33.514,0.002,38.768,0,38.99
			c-0.002,0.267,0.102,0.524,0.29,0.713C0.477,39.893,0.733,40,1,40h23.295c-0.229-0.965-0.363-1.966-0.363-3
			C23.932,32.459,26.276,28.46,29.815,26.134z"/>
		<path fill="#010101" d="M36.932,26c-6.065,0-11,4.935-11,11c0,6.065,4.935,11,11,11c6.065,0,11-4.935,11-11
			C47.932,30.935,42.997,26,36.932,26z M42,38h-6.029H32c-0.552,0-1-0.448-1-1c0-0.552,0.448-1,1-1h10c0.552,0,1,0.448,1,1
			C43,37.552,42.552,38,42,38z"/>
	</g>
</g>
<g id="nyt_x5F_exporter_x5F_info" display="none">
</g>
</svg>
