<?xml version="1.0" encoding="utf-8"?>
<!-- Generator: Adobe Illustrator 17.0.0, SVG Export Plug-In . SVG Version: 6.00 Build 0)  -->
<!DOCTYPE svg PUBLIC "-//W3C//DTD SVG 1.1//EN" "http://www.w3.org/Graphics/SVG/1.1/DTD/svg11.dtd">
<svg version="1.1" xmlns="http://www.w3.org/2000/svg" xmlns:xlink="http://www.w3.org/1999/xlink" x="0px" y="0px" width="48px"
	 height="48px" viewBox="0 0 48 48" enable-background="new 0 0 48 48" xml:space="preserve">
<g id="Layer_3">
	<g>
		<path fill="#010101" d="M23.148,38.535c0.213-0.801,0.724-1.47,1.438-1.886l0.207-0.12l-1.255-0.725l-0.376-1.237
			c-0.221-0.835-0.112-1.668,0.296-2.38L26,27.793v-3.928c2.993-2.326,4.976-6.324,4.976-10.865c0-0.125-0.013-0.246-0.016-0.37
			C30.175,12.844,29.472,13,28.976,13c-3.31,0-5.599-0.531-7.522-3.109C19.748,11.689,16.729,13,13.976,13
			c-1.542,0-3.429-0.925-4.872-1.877C9.028,11.737,8.976,12.361,8.976,13c0,4.564,2.005,8.579,5.024,10.899v4.396l-9.356,3.34
			C1.866,32.629,0,35.278,0,38.228V44h25.261l-1.802-3.121C23.046,40.169,22.935,39.336,23.148,38.535z"/>
		<path fill="#010101" d="M20.621,7.678l0.847-1.623l0.908,1.589c1.641,2.871,3.362,3.355,6.6,3.355
			c0.353,0,1.108-0.192,1.805-0.392C29.827,4.58,25.349,0,19.976,0c-4.875,0-9.014,3.771-10.453,8.971
			C10.764,9.895,12.741,11,13.976,11C16.593,11,19.698,9.448,20.621,7.678z"/>
		<path fill="#010101" d="M47.946,39.338c0-0.382-0.181-0.757-0.535-0.963l-1.383-0.798v0l-0.017-0.01
			c0.04-0.349,0.059-0.696,0.059-1.036c0-0.343-0.02-0.686-0.06-1.037l0.018-0.01v0l0.329-0.19l1.053-0.608
			c0.056-0.032,0.093-0.083,0.142-0.124c0.064-0.054,0.136-0.1,0.185-0.165c0.028-0.036,0.038-0.084,0.06-0.123
			c0.068-0.12,0.112-0.246,0.132-0.383c0.028-0.22-0.004-0.464-0.1-0.656c-0.009-0.018-0.008-0.037-0.018-0.055l-2.753-4.768
			c-0.144-0.251-0.388-0.438-0.669-0.513l-0.017-0.002c-0.253-0.063-0.598-0.017-0.82,0.113l-0.319,0.185l-1.055,0.613l0,0
			l-0.018,0.01c-0.223-0.162-0.461-0.31-0.702-0.454c-0.105-0.063-0.211-0.124-0.318-0.183c-0.247-0.136-0.497-0.27-0.757-0.387
			v-0.019l0,0v-1.612c0-0.606-0.493-1.1-1.1-1.1h-5.511c-0.607,0-1.1,0.494-1.1,1.1v1.61v0.02c-0.265,0.118-0.518,0.252-0.768,0.389
			c-0.111,0.061-0.221,0.123-0.329,0.187c-0.244,0.145-0.484,0.293-0.707,0.454l-0.957-0.551l-0.449-0.259
			c-0.031-0.018-0.065-0.026-0.097-0.041c-0.143-0.064-0.313-0.111-0.459-0.111c-0.387,0-0.749,0.207-0.95,0.546l-2.764,4.781
			c-0.146,0.254-0.183,0.544-0.105,0.836l0.136,0.446l1.757,1.015l-0.031,0.611c-0.007,0.146-0.011,0.292-0.011,0.437
			c0,0.145,0.003,0.29,0.011,0.436l0.031,0.611l-1.39,0.803c-0.251,0.146-0.432,0.384-0.508,0.669
			c-0.075,0.283-0.037,0.577,0.109,0.828L27.571,44l0,0l0.374,0.648c0.038,0.067,0.088,0.125,0.139,0.181
			c0.014,0.016,0.024,0.035,0.038,0.05c0.057,0.057,0.123,0.104,0.191,0.147c0.012,0.008,0.022,0.019,0.035,0.027
			c0.066,0.038,0.138,0.064,0.21,0.088c0.019,0.006,0.035,0.017,0.054,0.023c0.093,0.025,0.189,0.039,0.287,0.039h0
			c0.174,0,0.395-0.059,0.547-0.146l1.264-0.726l0.139-0.08l0,0l0.017-0.01c0.221,0.159,0.459,0.306,0.701,0.449
			c0.113,0.067,0.228,0.132,0.344,0.196c0.247,0.135,0.497,0.267,0.759,0.384v0.019V46.9c0,0.606,0.494,1.1,1.1,1.1h5.511
			c0.606,0,1.1-0.494,1.1-1.1v-1.613l0,0v-0.019c0.258-0.117,0.506-0.249,0.75-0.384c0.114-0.063,0.226-0.128,0.337-0.195
			c0.237-0.143,0.472-0.288,0.69-0.446l0.017,0.009l0,0l1.418,0.813c0.228,0.12,0.528,0.163,0.79,0.098
			c0.005-0.001,0.01-0.001,0.015-0.002c0.255-0.07,0.532-0.283,0.664-0.511l2.646-4.588l0.108-0.188
			c0.059-0.104,0.086-0.216,0.108-0.327c0.006-0.029,0.025-0.056,0.028-0.085C47.96,39.421,47.945,39.38,47.946,39.338z
			 M36.502,41.337c-2.65,0-4.807-2.156-4.807-4.807c0-2.651,2.156-4.807,4.807-4.807c2.651,0,4.807,2.156,4.807,4.807
			C41.309,39.181,39.153,41.337,36.502,41.337z"/>
	</g>
</g>
<g id="nyt_x5F_exporter_x5F_info" display="none">
</g>
</svg>
