<?xml version="1.0" encoding="utf-8"?>
<!-- Generator: Adobe Illustrator 17.0.0, SVG Export Plug-In . SVG Version: 6.00 Build 0)  -->
<!DOCTYPE svg PUBLIC "-//W3C//DTD SVG 1.1//EN" "http://www.w3.org/Graphics/SVG/1.1/DTD/svg11.dtd">
<svg version="1.1" xmlns="http://www.w3.org/2000/svg" xmlns:xlink="http://www.w3.org/1999/xlink" x="0px" y="0px" width="48px"
	 height="48px" viewBox="0 0 48 48" enable-background="new 0 0 48 48" xml:space="preserve">
<g id="Layer_3">
	<g>
		<path fill="#010101" d="M30.485,26.366c-0.855-0.299-1.764-0.6-2.717-0.915c-1.248-0.412-2.531-0.835-3.769-1.288v-3.728
			c0.973-0.651,2.764-2.318,2.978-5.863c0.734-0.47,1.194-1.488,1.194-2.786c0-1.139-0.354-2.062-0.937-2.589
			c0.488-1.232,1.283-3.377,0.734-5.581C27.307,0.947,23.531,0,20.499,0c0,0-0.001,0-0.002,0c-2.684,0-5.952,0.743-7.125,2.768
			c-1.03-0.055-1.833,0.219-2.396,0.832c-1.337,1.453-0.595,4.155-0.154,5.68c-0.233,0.189-0.433,0.438-0.59,0.74
			c-0.263,0.503-0.407,1.156-0.407,1.838c0,1.269,0.461,2.263,1.196,2.722c0.217,3.54,2.006,5.206,2.979,5.856v3.728
			c-1.237,0.453-2.521,0.876-3.768,1.288c-4.702,1.552-8.415,2.777-9.182,5.092C0.065,33.514,0.002,38.768,0,38.99
			c-0.002,0.267,0.102,0.524,0.29,0.713C0.477,39.893,0.733,40,1,40h24.897v-7.758c0-1.18,0.931-1.862,1.862-1.862h1.416
			C29.174,28.925,29.679,27.557,30.485,26.366z"/>
		<path fill="#010101" d="M47,32h-1.483v-0.922c0-3.794-3.724-7.517-7.517-7.517c-3.794,0-7.517,3.724-7.517,7.517V32H29
			c-0.552,0-1,0.448-1,1v14c0,0.552,0.448,1,1,1h18c0.552,0,1-0.448,1-1V33C48,32.448,47.552,32,47,32z M39.177,39.519
			c-0.055,0.057-0.116,0.104-0.177,0.152v3.557c0,0.552-0.448,1-1,1c-0.552,0-1-0.448-1-1v-3.562
			c-0.374-0.294-0.624-0.741-0.634-1.248c-0.017-0.901,0.702-1.648,1.603-1.666h0c0.915,0,1.647,0.719,1.665,1.603
			C39.642,38.792,39.48,39.205,39.177,39.519z M32.483,32.242L32.483,32.242l0-1.164c0-2.682,2.836-5.517,5.517-5.517
			c2.681,0,5.517,2.836,5.517,5.517v1.164l0,0H32.483z"/>
	</g>
</g>
<g id="nyt_x5F_exporter_x5F_info" display="none">
</g>
</svg>
