<?xml version="1.0" encoding="utf-8"?>
<!-- Generator: Adobe Illustrator 17.0.0, SVG Export Plug-In . SVG Version: 6.00 Build 0)  -->
<!DOCTYPE svg PUBLIC "-//W3C//DTD SVG 1.1//EN" "http://www.w3.org/Graphics/SVG/1.1/DTD/svg11.dtd">
<svg version="1.1" xmlns="http://www.w3.org/2000/svg" xmlns:xlink="http://www.w3.org/1999/xlink" x="0px" y="0px" width="48px"
	 height="48px" viewBox="0 0 48 48" enable-background="new 0 0 48 48" xml:space="preserve">
<g id="Layer_3">
	<g>
		<path fill="#010101" d="M39.354,36.636L30,33.295v-4.611c2.866-2.349,4.75-6.259,4.75-10.685c0-0.144-0.014-0.284-0.018-0.426
			C34.11,17.801,33.417,18,32.75,18c-3.311,0-5.599-0.53-7.523-3.109C23.521,16.689,20.503,18,17.75,18
			c-1.297,0-3.444-0.832-4.921-1.496C12.781,16.996,12.75,17.494,12.75,18c0,4.676,2.107,8.771,5.25,11.061v4.234l-9.356,3.34
			C5.866,37.629,4,40.278,4,43.228V48h40v-4.772C44,40.278,42.133,37.629,39.354,36.636z"/>
		<path fill="#010101" d="M24.394,12.678l0.847-1.623l0.908,1.589C27.79,15.516,29.512,16,32.75,16c0.519,0,1.227-0.259,1.792-0.494
			C33.554,9.527,29.093,5,23.75,5c-5.028,0-9.268,4.011-10.576,9.465C14.714,15.192,16.853,16,17.75,16
			C20.367,16,23.471,14.448,24.394,12.678z"/>
	</g>
</g>
<g id="nyt_x5F_exporter_x5F_info" display="none">
</g>
</svg>
