<?xml version="1.0" encoding="utf-8"?>
<!-- Generator: Adobe Illustrator 17.0.0, SVG Export Plug-In . SVG Version: 6.00 Build 0)  -->
<!DOCTYPE svg PUBLIC "-//W3C//DTD SVG 1.1//EN" "http://www.w3.org/Graphics/SVG/1.1/DTD/svg11.dtd">
<svg version="1.1" xmlns="http://www.w3.org/2000/svg" xmlns:xlink="http://www.w3.org/1999/xlink" x="0px" y="0px" width="48px"
	 height="48px" viewBox="0 0 48 48" enable-background="new 0 0 48 48" xml:space="preserve">
<g id="Layer_3">
	<g>
		<path fill="#010101" d="M29.852,26.11c-0.668-0.228-1.362-0.458-2.084-0.696c-1.248-0.412-2.531-0.835-3.769-1.288v-3.728
			c0.973-0.651,2.764-2.318,2.978-5.863c0.734-0.47,1.194-1.488,1.194-2.786c0-1.139-0.354-2.062-0.937-2.589
			c0.488-1.232,1.283-3.377,0.734-5.581c-0.664-2.67-4.439-3.616-7.471-3.616h-0.002c-2.684,0-5.952,0.743-7.125,2.768
			c-1.031-0.055-1.833,0.219-2.396,0.832c-1.337,1.453-0.595,4.155-0.154,5.68c-0.233,0.189-0.433,0.439-0.59,0.74
			c-0.263,0.503-0.407,1.156-0.407,1.838c0,1.269,0.461,2.263,1.196,2.722c0.217,3.54,2.006,5.206,2.979,5.856v3.728
			c-1.237,0.453-2.521,0.876-3.768,1.288c-4.702,1.552-8.415,2.777-9.182,5.092C0.065,33.477,0.002,38.731,0,38.953
			c-0.002,0.267,0.102,0.524,0.29,0.713c0.188,0.19,0.443,0.296,0.71,0.296h23.362c-0.228-0.965-0.362-1.966-0.362-3
			C24,32.425,26.328,28.435,29.852,26.11z"/>
		<path fill="#010101" d="M37,29.778c-3.962,0-7.185,3.223-7.185,7.185c0,1.621,0.546,3.113,1.455,4.316l10.047-10.047
			C40.113,30.324,38.621,29.778,37,29.778z"/>
		<path fill="#010101" d="M42.73,32.647L32.683,42.693c1.204,0.909,2.696,1.455,4.317,1.455c3.962,0,7.185-3.223,7.185-7.185
			C44.185,35.342,43.639,33.85,42.73,32.647z"/>
		<path fill="#010101" d="M37,25.889c-6.116,0-11.074,4.958-11.074,11.074c0,6.116,4.958,11.074,11.074,11.074
			c6.116,0,11.074-4.958,11.074-11.074C48.074,30.847,43.116,25.889,37,25.889z M37,46.148c-5.065,0-9.185-4.12-9.185-9.185
			c0-5.065,4.121-9.185,9.185-9.185c5.064,0,9.185,4.121,9.185,9.185C46.185,42.028,42.064,46.148,37,46.148z"/>
	</g>
</g>
<g id="nyt_x5F_exporter_x5F_info" display="none">
</g>
</svg>
