<?xml version="1.0" encoding="utf-8"?>
<!-- Generator: Adobe Illustrator 17.0.0, SVG Export Plug-In . SVG Version: 6.00 Build 0)  -->
<!DOCTYPE svg PUBLIC "-//W3C//DTD SVG 1.1//EN" "http://www.w3.org/Graphics/SVG/1.1/DTD/svg11.dtd">
<svg version="1.1" xmlns="http://www.w3.org/2000/svg" xmlns:xlink="http://www.w3.org/1999/xlink" x="0px" y="0px" width="48px"
	 height="48px" viewBox="0 0 48 48" enable-background="new 0 0 48 48" xml:space="preserve">
<g id="Layer_3">
	<g>
		<path fill="#010101" d="M26,36c0-2.607,1.011-4.976,2.651-6.758L26,28.295v-4.431c2.993-2.326,4.976-6.324,4.976-10.865
			c0-0.125-0.013-0.246-0.016-0.37C30.175,12.844,29.472,13,28.976,13c-3.31,0-5.599-0.531-7.521-3.109
			C19.748,11.689,16.729,13,13.976,13c-1.541,0-3.429-0.925-4.872-1.877C9.028,11.737,8.976,12.361,8.976,13
			c0,4.564,2.005,8.579,5.024,10.899v4.396l-9.356,3.34C1.866,32.629,0,35.278,0,38.228V44h30.025C27.587,42.175,26,39.273,26,36z"
			/>
		<path fill="#010101" d="M20.621,7.678l0.847-1.623l0.908,1.589c1.641,2.871,3.362,3.355,6.6,3.355
			c0.353,0,1.108-0.192,1.805-0.392C29.827,4.58,25.349,0,19.976,0c-4.875,0-9.014,3.771-10.453,8.971
			C10.764,9.895,12.741,11,13.976,11C16.593,11,19.698,9.448,20.621,7.678z"/>
		<path fill="#010101" d="M47.707,46.293l-3.969-3.969l-1.427-1.427C43.366,39.543,44,37.846,44,36c0-4.411-3.589-8-8-8
			c-4.411,0-8,3.589-8,8c0,4.411,3.589,8,8,8c1.846,0,3.542-0.634,4.898-1.688l1.427,1.427l3.969,3.969
			C46.488,47.902,46.744,48,47,48c0.256,0,0.512-0.098,0.707-0.293C48.098,47.316,48.098,46.684,47.707,46.293z M36,42
			c-3.309,0-6-2.691-6-6c0-3.309,2.691-6,6-6c3.309,0,6,2.691,6,6C42,39.309,39.309,42,36,42z"/>
	</g>
</g>
<g id="nyt_x5F_exporter_x5F_info" display="none">
</g>
</svg>
