<?xml version="1.0" encoding="utf-8"?>
<!-- Generator: Adobe Illustrator 17.0.0, SVG Export Plug-In . SVG Version: 6.00 Build 0)  -->
<!DOCTYPE svg PUBLIC "-//W3C//DTD SVG 1.1//EN" "http://www.w3.org/Graphics/SVG/1.1/DTD/svg11.dtd">
<svg version="1.1" xmlns="http://www.w3.org/2000/svg" xmlns:xlink="http://www.w3.org/1999/xlink" x="0px" y="0px" width="48px"
	 height="48px" viewBox="0 0 48 48" enable-background="new 0 0 48 48" xml:space="preserve">
<g id="Layer_3">
	<g>
		<path fill="#010101" d="M24.511,38.245l10.112-10.112c-1.683-0.972-4.095-1.772-6.854-2.683c-1.248-0.412-2.531-0.835-3.769-1.288
			v-3.728c0.973-0.651,2.764-2.318,2.978-5.863c0.734-0.47,1.194-1.488,1.194-2.786c0-1.139-0.354-2.062-0.937-2.589
			c0.488-1.232,1.283-3.377,0.734-5.581C27.307,0.947,23.531,0,20.499,0h-0.002c-2.684,0-5.952,0.743-7.125,2.768
			C12.342,2.713,11.54,2.987,10.977,3.6c-1.337,1.453-0.595,4.155-0.154,5.68c-0.233,0.189-0.433,0.438-0.59,0.74
			c-0.263,0.503-0.407,1.156-0.407,1.838c0,1.269,0.461,2.263,1.196,2.722c0.217,3.54,2.006,5.206,2.979,5.856v3.728
			c-1.237,0.453-2.521,0.876-3.768,1.288c-4.702,1.552-8.415,2.777-9.182,5.092C0.065,33.514,0.002,38.768,0,38.99
			c-0.002,0.267,0.102,0.524,0.29,0.713C0.477,39.893,0.733,40,1,40h22.878l0.378-1.323C24.303,38.514,24.391,38.365,24.511,38.245z
			"/>
		<polygon fill="#010101" points="36.228,29.356 36.228,29.356 26.998,38.586 33.413,45 43.001,35.412 36.587,28.998 		"/>
		<path fill="#010101" d="M24.037,46.725c-0.1,0.35-0.002,0.725,0.254,0.982C24.481,47.898,24.737,48,24.998,48
			c0.092,0,0.184-0.013,0.275-0.039l6.434-1.838l-5.832-5.832L24.037,46.725z"/>
		<path fill="#010101" d="M47.708,29.291l-5-5c-0.391-0.391-1.023-0.391-1.414,0l-3.293,3.293l6.414,6.414l3.293-3.293
			c0.188-0.188,0.293-0.442,0.293-0.707C48.001,29.732,47.896,29.478,47.708,29.291z"/>
	</g>
</g>
<g id="nyt_x5F_exporter_x5F_info" display="none">
</g>
</svg>
