<?xml version="1.0" encoding="utf-8"?>
<!-- Generator: Adobe Illustrator 17.0.0, SVG Export Plug-In . SVG Version: 6.00 Build 0)  -->
<!DOCTYPE svg PUBLIC "-//W3C//DTD SVG 1.1//EN" "http://www.w3.org/Graphics/SVG/1.1/DTD/svg11.dtd">
<svg version="1.1" xmlns="http://www.w3.org/2000/svg" xmlns:xlink="http://www.w3.org/1999/xlink" x="0px" y="0px" width="48px"
	 height="48px" viewBox="0 0 48 48" enable-background="new 0 0 48 48" xml:space="preserve">
<g id="Layer_3">
	<g>
		<path fill="#010101" d="M26.192,36.395c-0.219-0.821-0.11-1.649,0.298-2.361l3.222-5.574l1.783-0.062c0.002,0,0.003,0,0.004,0
			c0.408,0,0.794,0.072,1.15,0.21c0.07-0.448,0.246-0.858,0.487-1.22c-1.502-0.661-3.342-1.269-5.368-1.938
			c-1.248-0.412-2.531-0.835-3.769-1.288v-3.728c0.973-0.651,2.764-2.318,2.978-5.863c0.734-0.47,1.194-1.488,1.194-2.786
			c0-1.139-0.354-2.062-0.937-2.589c0.488-1.232,1.283-3.377,0.734-5.581C27.307,0.947,23.531,0,20.499,0c0,0-0.001,0-0.002,0
			c-2.684,0-5.952,0.743-7.125,2.768C12.344,2.713,11.54,2.987,10.977,3.6c-1.337,1.453-0.595,4.155-0.154,5.68
			c-0.233,0.189-0.433,0.438-0.59,0.74c-0.263,0.503-0.407,1.156-0.407,1.838c0,1.269,0.461,2.263,1.196,2.722
			c0.217,3.54,2.006,5.206,2.979,5.856v3.728c-1.237,0.453-2.521,0.876-3.768,1.288c-4.702,1.552-8.415,2.777-9.182,5.092
			C0.065,33.514,0.002,38.768,0,38.99c-0.002,0.267,0.102,0.524,0.29,0.713C0.477,39.893,0.733,40,1,40h25.114
			c0.093-0.768,0.46-1.493,1.076-2.006l-0.632-0.365L26.192,36.395z"/>
		<path fill="#010101" d="M47.963,40.086c-0.069-0.255-0.276-0.525-0.504-0.658l-1.102-0.636v0l-0.021-0.012
			c0.027-0.273,0.042-0.544,0.042-0.811c0-0.266-0.014-0.536-0.042-0.811l0.021-0.013v0l1.091-0.63
			c0.1-0.057,0.179-0.139,0.256-0.222c0.021-0.022,0.05-0.036,0.068-0.06c0.001-0.001,0.001-0.002,0.001-0.002
			c0.086-0.112,0.151-0.241,0.188-0.379c0.069-0.256,0.024-0.594-0.108-0.823l-2.37-4.104c-0.135-0.225-0.347-0.381-0.593-0.462
			c-0.021-0.007-0.037-0.022-0.059-0.028h0c-0.254-0.067-0.597-0.022-0.824,0.11l-1.114,0.646c-0.196-0.139-0.403-0.269-0.615-0.393
			c-0.037-0.022-0.075-0.044-0.113-0.065c-0.214-0.122-0.434-0.237-0.66-0.342V30.37v-1.284c0-0.599-0.487-1.086-1.086-1.086h-4.721
			c-0.298,0-0.568,0.121-0.764,0.316h0c-0.198,0.197-0.321,0.469-0.321,0.769v0.001v1.283l-0.528,0.283
			c-0.135,0.073-0.268,0.148-0.397,0.226l-0.504,0.305l-1.118-0.643c-0.162-0.092-0.347-0.142-0.536-0.142l-0.64,0.023l-2.666,4.612
			c-0.142,0.248-0.181,0.54-0.106,0.819l0.132,0.444l1.471,0.85l-0.021,0.824l0.021,0.823l-1.092,0.63
			c-0.306,0.175-0.476,0.478-0.52,0.802c-0.023,0.201,0.005,0.413,0.086,0.595c0.014,0.031,0.014,0.064,0.031,0.093l2.357,4.081
			c0.279,0.489,0.993,0.681,1.481,0.403l1.119-0.641h0l0.02-0.012c0.198,0.139,0.408,0.27,0.625,0.395
			c0.036,0.021,0.073,0.042,0.109,0.062c0.218,0.122,0.443,0.239,0.676,0.346v0.02v1.285c0,0.599,0.487,1.086,1.085,1.086h4.721
			c0.599,0,1.086-0.487,1.086-1.086v-1.284v-0.021c0.225-0.104,0.443-0.219,0.655-0.34c0.041-0.023,0.081-0.047,0.122-0.07
			c0.21-0.124,0.416-0.252,0.611-0.39l1.112,0.644c0.002,0.001,0.004,0.001,0.006,0.002c0.11,0.064,0.238,0.103,0.368,0.124
			c0.023,0.004,0.045,0.007,0.068,0.009c0.132,0.014,0.266,0.011,0.389-0.022c0.257-0.068,0.527-0.276,0.66-0.507l1.133-1.964
			l1.22-2.116C47.997,40.666,48.037,40.364,47.963,40.086z M38.038,42.231c-2.35,0-4.262-1.912-4.262-4.262
			c0-2.35,1.912-4.262,4.262-4.262c2.35,0,4.262,1.912,4.262,4.262C42.299,40.32,40.388,42.231,38.038,42.231z"/>
	</g>
</g>
<g id="nyt_x5F_exporter_x5F_info" display="none">
</g>
</svg>
