<?xml version="1.0" encoding="utf-8"?>
<!-- Generator: Adobe Illustrator 17.0.0, SVG Export Plug-In . SVG Version: 6.00 Build 0)  -->
<!DOCTYPE svg PUBLIC "-//W3C//DTD SVG 1.1//EN" "http://www.w3.org/Graphics/SVG/1.1/DTD/svg11.dtd">
<svg version="1.1" xmlns="http://www.w3.org/2000/svg" xmlns:xlink="http://www.w3.org/1999/xlink" x="0px" y="0px" width="48px"
	 height="48px" viewBox="0 0 48 48" enable-background="new 0 0 48 48" xml:space="preserve">
<g id="Layer_3">
	<path fill="#010101" d="M45.894,38.438c-1.47-2.938-6.486-4.783-13.429-7.336c-0.801-0.295-1.625-0.597-2.466-0.911v-4.818
		c0.879-0.745,2.757-2.691,2.978-5.867c0.453-0.384,0.811-1.047,1.018-1.924c0.333-1.41,0.167-3.081-0.829-4.074
		c0.058-0.148,0.122-0.311,0.183-0.465c0.767-1.933,2.194-5.531,1.63-8.354C34.289,1.228,29.373,0,25.373,0
		c-3.102,0-6.871,0.781-8.059,2.922c-1.196,0.133-2.118,0.627-2.746,1.475c-1.738,2.343-0.477,6.504,0.201,8.74
		c0.034,0.111,0.069,0.227,0.102,0.333c-1.03,0.988-1.204,2.684-0.867,4.111c0.207,0.878,0.564,1.54,1.018,1.924
		c0.221,3.176,2.1,5.123,2.979,5.867v4.818c-0.843,0.314-1.667,0.617-2.469,0.912c-6.942,2.553-11.958,4.397-13.425,7.334
		C0.024,42.601,0,46.822,0,47c0,0.552,0.448,1,1,1h46c0.552,0,1-0.448,1-1C48,46.822,47.976,42.601,45.894,38.438z"/>
</g>
<g id="nyt_x5F_exporter_x5F_info" display="none">
</g>
</svg>
