<?xml version="1.0" encoding="utf-8"?>
<!-- Generator: Adobe Illustrator 17.0.0, SVG Export Plug-In . SVG Version: 6.00 Build 0)  -->
<!DOCTYPE svg PUBLIC "-//W3C//DTD SVG 1.1//EN" "http://www.w3.org/Graphics/SVG/1.1/DTD/svg11.dtd">
<svg version="1.1" xmlns="http://www.w3.org/2000/svg" xmlns:xlink="http://www.w3.org/1999/xlink" x="0px" y="0px" width="48px"
	 height="48px" viewBox="0 0 48 48" enable-background="new 0 0 48 48" xml:space="preserve">
<g id="Layer_3">
	<g>
		<path fill="#010101" d="M27.03,28.626L26,28.258v-4.431c2.993-2.326,4.976-6.324,4.976-10.864c0-0.125-0.013-0.246-0.016-0.37
			c-0.785,0.214-1.488,0.37-1.984,0.37c-3.31,0-5.599-0.531-7.521-3.109c-1.707,1.798-4.726,3.109-7.479,3.109
			c-1.542,0-3.429-0.925-4.872-1.877c-0.076,0.615-0.128,1.238-0.128,1.877c0,4.564,2.005,8.579,5.024,10.899v4.396l-9.356,3.34
			C1.866,32.592,0,35.241,0,38.191v5.772h26.057c-1.296-2.022-2.057-4.42-2.057-7C24,33.789,25.14,30.883,27.03,28.626z"/>
		<path fill="#010101" d="M20.621,7.641l0.847-1.623l0.908,1.589c1.641,2.871,3.362,3.355,6.6,3.355
			c0.353,0,1.108-0.192,1.805-0.392C29.827,4.543,25.349-0.037,19.976-0.037c-4.875,0-9.014,3.77-10.453,8.971
			c1.24,0.924,3.218,2.029,4.453,2.029C16.593,10.963,19.698,9.411,20.621,7.641z"/>
		<path fill="#010101" d="M37,25.889c-6.116,0-11.074,4.958-11.074,11.074c0,6.116,4.958,11.074,11.074,11.074
			c6.116,0,11.074-4.958,11.074-11.074C48.074,30.847,43.116,25.889,37,25.889z M37,46.148c-5.065,0-9.185-4.12-9.185-9.185
			c0-5.065,4.121-9.185,9.185-9.185c5.064,0,9.185,4.121,9.185,9.185C46.185,42.028,42.064,46.148,37,46.148z"/>
		<path fill="#010101" d="M42.73,32.647L32.683,42.693c1.204,0.909,2.696,1.455,4.317,1.455c3.962,0,7.185-3.223,7.185-7.185
			C44.185,35.342,43.639,33.85,42.73,32.647z"/>
		<path fill="#010101" d="M37,29.778c-3.962,0-7.185,3.223-7.185,7.185c0,1.621,0.546,3.113,1.455,4.316l10.047-10.047
			C40.113,30.324,38.621,29.778,37,29.778z"/>
	</g>
</g>
<g id="nyt_x5F_exporter_x5F_info" display="none">
</g>
</svg>
