<?xml version="1.0" encoding="utf-8"?>
<!-- Generator: Adobe Illustrator 17.0.0, SVG Export Plug-In . SVG Version: 6.00 Build 0)  -->
<!DOCTYPE svg PUBLIC "-//W3C//DTD SVG 1.1//EN" "http://www.w3.org/Graphics/SVG/1.1/DTD/svg11.dtd">
<svg version="1.1" xmlns="http://www.w3.org/2000/svg" xmlns:xlink="http://www.w3.org/1999/xlink" x="0px" y="0px" width="48px"
	 height="48px" viewBox="0 0 48 48" enable-background="new 0 0 48 48" xml:space="preserve">
<g id="Layer_3">
	<g>
		<path fill="#010101" d="M28.929,39.748l-3.502-3.002c-1.075-0.924-1.451-2.284-0.981-3.55c0.461-1.247,1.661-2.053,3.054-2.053
			h4.028l1.86-3.64c-1.546-0.705-3.478-1.345-5.62-2.052c-1.247-0.412-2.53-0.835-3.768-1.288v-3.728
			c0.973-0.651,2.764-2.318,2.978-5.863c0.734-0.47,1.194-1.488,1.194-2.786c0-1.139-0.354-2.062-0.937-2.589
			c0.488-1.232,1.283-3.377,0.734-5.581C27.307,0.947,23.531,0,20.499,0c0,0-0.001,0-0.002,0c-2.684,0-5.952,0.743-7.125,2.768
			C12.342,2.713,11.54,2.987,10.977,3.6c-1.337,1.453-0.595,4.155-0.154,5.68c-0.232,0.189-0.433,0.438-0.59,0.74
			c-0.263,0.503-0.407,1.156-0.407,1.838c0,1.269,0.461,2.263,1.196,2.722c0.217,3.54,2.006,5.206,2.979,5.856v3.728
			c-1.237,0.453-2.521,0.876-3.768,1.288c-4.702,1.552-8.415,2.777-9.182,5.092C0.065,33.514,0.002,38.768,0,38.99
			c-0.002,0.267,0.102,0.524,0.29,0.713C0.477,39.893,0.733,40,1,40h27.838L28.929,39.748z"/>
		<path fill="#010101" d="M47.679,33.891c-0.039-0.105-0.096-0.197-0.16-0.282c-0.045-0.059-0.105-0.111-0.165-0.163
			c-0.028-0.024-0.053-0.053-0.083-0.074c-0.069-0.049-0.153-0.085-0.239-0.12c-0.036-0.015-0.068-0.035-0.107-0.047
			c-0.127-0.038-0.267-0.063-0.426-0.063h-5.25l-3.118-6.148c-0.229-0.453-0.658-0.733-1.119-0.733c-0.46,0-0.888,0.279-1.117,0.728
			l-3.145,6.154H27.5c-0.565,0-1.005,0.279-1.179,0.748c-0.174,0.469-0.022,0.969,0.408,1.338l4.55,3.899l-2.551,7.063
			c0,0.001,0,0.001-0.001,0.002c-0.045,0.127-0.067,0.243-0.079,0.352c-0.005,0.047-0.003,0.092-0.003,0.138
			c0,0.061,0.001,0.121,0.009,0.175c0.007,0.05,0.019,0.099,0.033,0.147c0.012,0.04,0.022,0.081,0.037,0.116
			c0.031,0.076,0.066,0.15,0.114,0.218l0.003,0.004l0.368,0.455l0.52,0c0.008,0,0.017-0.004,0.025-0.004
			c0.241-0.005,0.482-0.083,0.714-0.238l2.605-1.735L37,43.207l6.511,4.335l0.016,0.01c0.022,0.015,0.044,0.02,0.067,0.034
			c0.222,0.135,0.449,0.212,0.677,0.212l0.003,0l0.589-0.033l0.299-0.425c0.048-0.069,0.084-0.143,0.115-0.219
			c0.014-0.034,0.024-0.074,0.036-0.113c0.014-0.049,0.026-0.098,0.034-0.149c0.008-0.053,0.008-0.113,0.009-0.174
			c0-0.046,0.002-0.091-0.003-0.137c-0.012-0.11-0.033-0.227-0.08-0.356l-0.676-1.874l-1.874-5.188l4.553-3.902
			c0.12-0.104,0.21-0.213,0.281-0.325c0.022-0.034,0.033-0.07,0.051-0.105c0.042-0.082,0.082-0.165,0.103-0.247
			c0.01-0.037,0.01-0.075,0.015-0.113c0.011-0.077,0.023-0.155,0.019-0.228C47.735,34.103,47.718,33.996,47.679,33.891z"/>
	</g>
</g>
<g id="nyt_x5F_exporter_x5F_info" display="none">
</g>
</svg>
