<?xml version="1.0" encoding="utf-8"?>
<!-- Generator: Adobe Illustrator 17.0.0, SVG Export Plug-In . SVG Version: 6.00 Build 0)  -->
<!DOCTYPE svg PUBLIC "-//W3C//DTD SVG 1.1//EN" "http://www.w3.org/Graphics/SVG/1.1/DTD/svg11.dtd">
<svg version="1.1" xmlns="http://www.w3.org/2000/svg" xmlns:xlink="http://www.w3.org/1999/xlink" x="0px" y="0px" width="48px"
	 height="48px" viewBox="0 0 48 48" enable-background="new 0 0 48 48" xml:space="preserve">
<g id="Layer_3">
	<g>
		<path fill="#010101" d="M27.036,28.665L26,28.295v-4.431c2.993-2.326,4.976-6.324,4.976-10.865c0-0.125-0.013-0.246-0.016-0.37
			C30.175,12.844,29.472,13,28.976,13c-3.31,0-5.599-0.531-7.521-3.109C19.748,11.689,16.729,13,13.976,13
			c-1.542,0-3.429-0.925-4.872-1.877C9.028,11.737,8.976,12.361,8.976,13c0,4.564,2.005,8.579,5.024,10.899v4.396l-9.356,3.34
			C1.866,32.629,0,35.278,0,38.228V44h26.063C24.763,41.977,24,39.578,24,37C24,33.83,25.144,30.924,27.036,28.665z"/>
		<path fill="#010101" d="M20.621,7.678l0.847-1.623l0.908,1.589c1.641,2.871,3.362,3.355,6.6,3.355
			c0.353,0,1.108-0.192,1.805-0.392C29.827,4.58,25.349,0,19.976,0c-4.875,0-9.014,3.771-10.453,8.971
			C10.764,9.895,12.741,11,13.976,11C16.593,11,19.698,9.448,20.621,7.678z"/>
		<path fill="#010101" d="M37,26c-6.065,0-11,4.935-11,11c0,6.065,4.935,11,11,11c6.065,0,11-4.935,11-11C48,30.935,43.065,26,37,26
			z M42,38h-4v0.228V42c0,0.552-0.448,1-1,1c-0.552,0-1-0.448-1-1v-4h-4c-0.552,0-1-0.448-1-1c0-0.552,0.448-1,1-1h4v-4
			c0-0.552,0.448-1,1-1c0.552,0,1,0.448,1,1v4h4c0.552,0,1,0.448,1,1C43,37.552,42.552,38,42,38z"/>
	</g>
</g>
<g id="nyt_x5F_exporter_x5F_info" display="none">
</g>
</svg>
