<?xml version="1.0" encoding="utf-8"?>
<!-- Generator: Adobe Illustrator 17.0.0, SVG Export Plug-In . SVG Version: 6.00 Build 0)  -->
<!DOCTYPE svg PUBLIC "-//W3C//DTD SVG 1.1//EN" "http://www.w3.org/Graphics/SVG/1.1/DTD/svg11.dtd">
<svg version="1.1" xmlns="http://www.w3.org/2000/svg" xmlns:xlink="http://www.w3.org/1999/xlink" x="0px" y="0px" width="48px"
	 height="48px" viewBox="0 0 48 48" enable-background="new 0 0 48 48" xml:space="preserve">
<g id="Layer_3">
	<g>
		<polygon fill="#010101" points="34.321,31.267 34.321,31.267 27,38.587 33.414,45.001 34.415,44 34.416,44 37,41.416 37,41.416 
			43.003,35.413 36.589,28.999 		"/>
		<path fill="#010101" d="M24.512,38.246l7.725-7.724L26,28.295v-4.431c2.993-2.326,4.976-6.324,4.976-10.865
			c0-0.125-0.013-0.246-0.016-0.37C30.176,12.844,29.472,13,28.976,13c-3.31,0-5.599-0.531-7.522-3.109
			C19.748,11.689,16.729,13,13.976,13c-1.542,0-3.429-0.925-4.872-1.877C9.028,11.737,8.976,12.361,8.976,13
			c0,4.564,2.005,8.579,5.024,10.899v4.396l-9.356,3.34C1.866,32.629,0,35.278,0,38.228V44h22.737l1.52-5.322
			C24.304,38.515,24.392,38.366,24.512,38.246z"/>
		<path fill="#010101" d="M20.621,7.678l0.847-1.623l0.908,1.589c1.641,2.871,3.362,3.355,6.6,3.355
			c0.353,0,1.108-0.192,1.805-0.392C29.827,4.58,25.349,0,19.976,0c-4.875,0-9.014,3.771-10.453,8.971
			C10.764,9.895,12.741,11,13.976,11C16.593,11,19.698,9.448,20.621,7.678z"/>
		<path fill="#010101" d="M24.817,44L24.817,44l-0.779,2.726c-0.1,0.35-0.003,0.725,0.254,0.982c0.19,0.19,0.445,0.293,0.707,0.293
			c0.092,0,0.184-0.013,0.275-0.039l6.434-1.838l-5.832-5.832L24.817,44z"/>
		<path fill="#010101" d="M47.71,29.292l-5-5c-0.391-0.391-1.023-0.391-1.414,0l-3.293,3.293l6.414,6.414l3.293-3.293
			c0.188-0.188,0.293-0.442,0.293-0.707C48.003,29.734,47.898,29.48,47.71,29.292z"/>
	</g>
</g>
<g id="nyt_x5F_exporter_x5F_info" display="none">
</g>
</svg>
