<?xml version="1.0" encoding="utf-8"?>
<!-- Generator: Adobe Illustrator 17.0.0, SVG Export Plug-In . SVG Version: 6.00 Build 0)  -->
<!DOCTYPE svg PUBLIC "-//W3C//DTD SVG 1.1//EN" "http://www.w3.org/Graphics/SVG/1.1/DTD/svg11.dtd">
<svg version="1.1" xmlns="http://www.w3.org/2000/svg" xmlns:xlink="http://www.w3.org/1999/xlink" x="0px" y="0px" width="48px"
	 height="48px" viewBox="0 0 48 48" enable-background="new 0 0 48 48" xml:space="preserve">
<g id="Layer_3">
	<g>
		<path fill="#010101" d="M29.291,29.489l-3.343-1.194v-4.431c2.993-2.326,4.976-6.324,4.976-10.865c0-0.125-0.013-0.246-0.016-0.37
			C30.124,12.844,29.42,13,28.924,13c-3.31,0-5.599-0.531-7.521-3.109C19.696,11.689,16.677,13,13.924,13
			c-1.542,0-3.429-0.925-4.872-1.877C8.977,11.737,8.924,12.361,8.924,13c0,4.564,2.005,8.579,5.024,10.899v4.396l-9.356,3.34
			c-2.778,0.993-4.644,3.642-4.644,6.592V44h26V32.242c0-1.18,0.931-1.862,1.862-1.862h1.416
			C29.226,30.078,29.25,29.782,29.291,29.489z"/>
		<path fill="#010101" d="M20.569,7.678l0.847-1.623l0.908,1.589c1.641,2.871,3.362,3.355,6.6,3.355
			c0.353,0,1.108-0.192,1.805-0.392C29.776,4.58,25.298,0,19.924,0C15.049,0,10.91,3.771,9.472,8.971
			C10.712,9.895,12.689,11,13.924,11C16.541,11,19.646,9.448,20.569,7.678z"/>
		<path fill="#010101" d="M47.052,32h-1.483v-0.922c0-3.794-3.724-7.517-7.517-7.517c-3.793,0-7.517,3.724-7.517,7.517V32h-1.483
			c-0.552,0-1,0.448-1,1v14c0,0.552,0.448,1,1,1h18c0.552,0,1-0.448,1-1V33C48.052,32.448,47.604,32,47.052,32z M39.229,39.519
			c-0.055,0.057-0.116,0.104-0.177,0.152v3.557c0,0.552-0.448,1-1,1c-0.552,0-1-0.448-1-1v-3.562
			c-0.374-0.294-0.624-0.741-0.634-1.248c-0.017-0.901,0.702-1.648,1.603-1.666h0c0.916,0,1.648,0.719,1.664,1.603
			C39.693,38.792,39.531,39.205,39.229,39.519z M32.535,32.242L32.535,32.242v-1.164c0-2.682,2.836-5.517,5.517-5.517
			c2.681,0,5.517,2.836,5.517,5.517v1.164l0,0H32.535z"/>
	</g>
</g>
<g id="nyt_x5F_exporter_x5F_info" display="none">
</g>
</svg>
