<?xml version="1.0" encoding="utf-8"?>
<!-- Generator: Adobe Illustrator 17.0.0, SVG Export Plug-In . SVG Version: 6.00 Build 0)  -->
<!DOCTYPE svg PUBLIC "-//W3C//DTD SVG 1.1//EN" "http://www.w3.org/Graphics/SVG/1.1/DTD/svg11.dtd">
<svg version="1.1" xmlns="http://www.w3.org/2000/svg" xmlns:xlink="http://www.w3.org/1999/xlink" x="0px" y="0px" width="48px"
	 height="48px" viewBox="0 0 48 48" enable-background="new 0 0 48 48" xml:space="preserve">
<g id="Layer_3">
	<g>
		<polygon fill="none" points="29.186,47.798 29.209,47.798 28.838,47.338 		"/>
		<path fill="none" d="M30.468,47.556L30.468,47.556c-0.232,0.154-0.473,0.232-0.714,0.238
			C29.999,47.789,30.233,47.713,30.468,47.556z"/>
		<path fill="none" d="M28.655,46.861c-0.009-0.057-0.01-0.12-0.01-0.184C28.645,46.739,28.647,46.801,28.655,46.861z"/>
		<path fill="none" d="M28.725,47.123c-0.015-0.037-0.027-0.081-0.039-0.124C28.698,47.041,28.709,47.082,28.725,47.123z"/>
		<polygon fill="none" points="44.852,47.78 44.862,47.764 44.273,47.798 		"/>
		<path fill="none" d="M45.312,47.002c-0.012,0.042-0.023,0.084-0.038,0.12C45.29,47.084,45.301,47.043,45.312,47.002z"/>
		<path fill="none" d="M47.708,34.55c-0.021,0.082-0.061,0.164-0.103,0.247C47.647,34.716,47.686,34.635,47.708,34.55z"/>
		<path fill="none" d="M28.649,46.547c0.011-0.107,0.034-0.221,0.077-0.346C28.685,46.319,28.662,46.434,28.649,46.547z"/>
		<path fill="none" d="M45.354,46.678c0,0.063-0.001,0.126-0.009,0.182C45.353,46.801,45.354,46.74,45.354,46.678z"/>
		<path fill="none" d="M47.273,35.226c0.116-0.099,0.207-0.209,0.281-0.325C47.483,35.013,47.393,35.123,47.273,35.226
			L47.273,35.226z"/>
		<path fill="none" d="M44.268,47.798h0.002c-0.228,0-0.455-0.077-0.677-0.212C43.817,47.723,44.038,47.798,44.268,47.798z"/>
		<path fill="none" d="M45.35,46.549c-0.012-0.118-0.036-0.237-0.08-0.359l-0.676-1.873l0.676,1.874
			C45.317,46.32,45.339,46.438,45.35,46.549z"/>
		<polygon fill="none" points="38.19,44 43.511,47.542 38.191,44 		"/>
		<path fill="none" d="M47.742,34.209c0.004,0.073-0.007,0.151-0.019,0.228C47.735,34.361,47.747,34.286,47.742,34.209z"/>
		<path fill="none" d="M46.5,33.143c0.159,0,0.299,0.025,0.426,0.063C46.794,33.167,46.653,33.143,46.5,33.143z"/>
		<polygon fill="none" points="33.074,45.822 35.81,44 35.809,44 		"/>
		<path fill="none" d="M47.355,33.447c0.06,0.052,0.12,0.104,0.165,0.163C47.473,33.547,47.414,33.497,47.355,33.447z"/>
		<path fill="none" d="M47.033,33.253c0.085,0.035,0.17,0.071,0.239,0.12C47.2,33.323,47.117,33.287,47.033,33.253z"/>
		<polygon fill="none" points="34.341,30.032 33.805,31.082 33.805,31.082 		"/>
		<path fill="#010101" d="M28.929,39.748l-3.502-3.002c-1.075-0.924-1.451-2.284-0.981-3.55c0.461-1.247,1.661-2.053,3.054-2.053
			h4.028l0.378-0.739L26,28.295v-4.431c2.993-2.326,4.976-6.324,4.976-10.865c0-0.125-0.013-0.246-0.016-0.37
			C30.175,12.844,29.472,13,28.976,13c-3.31,0-5.599-0.531-7.521-3.109C19.748,11.689,16.729,13,13.976,13
			c-1.542,0-3.429-0.925-4.872-1.877C9.028,11.737,8.976,12.361,8.976,13c0,4.564,2.005,8.579,5.024,10.899v4.396l-9.356,3.34
			C1.866,32.629,0,35.278,0,38.228V44h27.394L28.929,39.748z"/>
		<path fill="#010101" d="M13.976,11c2.617,0,5.722-1.552,6.645-3.322l0.847-1.623l0.908,1.589c1.641,2.871,3.362,3.355,6.6,3.355
			c0.353,0,1.108-0.192,1.805-0.392C29.827,4.58,25.349,0,19.976,0c-4.875,0-9.014,3.771-10.453,8.971
			C10.764,9.895,12.741,11,13.976,11z"/>
		<path fill="#010101" d="M47.679,33.891c-0.039-0.105-0.095-0.197-0.16-0.282c-0.045-0.059-0.105-0.111-0.165-0.163
			c-0.028-0.024-0.052-0.052-0.083-0.074c-0.069-0.049-0.154-0.085-0.239-0.12c-0.036-0.015-0.068-0.035-0.107-0.047
			c-0.127-0.038-0.267-0.063-0.426-0.063h-5.25l-3.12-6.151c-0.229-0.45-0.657-0.73-1.118-0.73c-0.46,0-0.888,0.279-1.116,0.728
			l-1.555,3.043l-0.536,1.05h0l-1.053,2.061H27.5c-0.565,0-1.005,0.279-1.179,0.748c-0.174,0.469-0.021,0.969,0.408,1.338
			l4.55,3.899l-2.55,7.061c-0.002,0.004-0.002,0.008-0.003,0.013c-0.044,0.125-0.066,0.238-0.077,0.346
			c-0.005,0.044-0.003,0.086-0.003,0.13c0,0.064,0.001,0.128,0.01,0.184c0.007,0.047,0.018,0.092,0.031,0.137
			c0.012,0.043,0.024,0.087,0.039,0.124c0.031,0.075,0.065,0.148,0.113,0.216l0.372,0.46l0.52,0c0.008,0,0.016-0.004,0.025-0.004
			c0.241-0.005,0.482-0.083,0.714-0.238l2.605-1.735L35.809,44h0.001L37,43.208L38.19,44h0.001l5.32,3.542l0.016,0.01
			c0.022,0.015,0.044,0.02,0.067,0.034c0.222,0.135,0.449,0.212,0.677,0.212l0.003,0l0.589-0.033l0.299-0.425
			c0.048-0.068,0.083-0.142,0.113-0.217c0.015-0.036,0.026-0.079,0.038-0.12c0.013-0.046,0.025-0.093,0.032-0.142
			c0.008-0.056,0.01-0.119,0.009-0.182c0-0.043,0.001-0.086-0.003-0.13c-0.012-0.111-0.033-0.229-0.08-0.359l-0.676-1.874
			l-1.874-5.188l4.553-3.902c0.12-0.104,0.21-0.213,0.282-0.325c0.022-0.034,0.033-0.07,0.051-0.105
			c0.042-0.082,0.082-0.165,0.103-0.247c0.01-0.037,0.01-0.075,0.015-0.113c0.011-0.077,0.023-0.155,0.019-0.228
			C47.735,34.103,47.718,33.996,47.679,33.891z"/>
	</g>
</g>
<g id="nyt_x5F_exporter_x5F_info" display="none">
</g>
</svg>
