<?xml version="1.0" encoding="utf-8"?>
<!-- Generator: Adobe Illustrator 17.0.0, SVG Export Plug-In . SVG Version: 6.00 Build 0)  -->
<!DOCTYPE svg PUBLIC "-//W3C//DTD SVG 1.1//EN" "http://www.w3.org/Graphics/SVG/1.1/DTD/svg11.dtd">
<svg version="1.1" xmlns="http://www.w3.org/2000/svg" xmlns:xlink="http://www.w3.org/1999/xlink" x="0px" y="0px" width="48px"
	 height="48px" viewBox="0 0 48 48" enable-background="new 0 0 48 48" xml:space="preserve">
<g id="Layer_3">
	<g>
		<path fill="#010101" d="M27.519,28.838L26,28.295v-4.431c2.993-2.326,4.976-6.324,4.976-10.865c0-0.125-0.013-0.246-0.016-0.37
			C30.175,12.844,29.472,13,28.976,13c-3.31,0-5.599-0.531-7.521-3.109C19.748,11.689,16.729,13,13.976,13
			c-1.542,0-3.429-0.925-4.872-1.877C9.028,11.737,8.976,12.361,8.976,13c0,4.564,2.005,8.579,5.024,10.899v4.396l-9.356,3.34
			C1.866,32.629,0,35.278,0,38.228V44h29.623C27.192,41.355,25,38.103,25,34.973C25,32.343,26.02,30.256,27.519,28.838z"/>
		<path fill="#010101" d="M20.621,7.678l0.847-1.623l0.908,1.589c1.641,2.871,3.362,3.355,6.6,3.355
			c0.353,0,1.108-0.192,1.805-0.392C29.827,4.58,25.349,0,19.976,0c-4.875,0-9.014,3.771-10.453,8.971
			C10.764,9.895,12.741,11,13.976,11C16.593,11,19.698,9.448,20.621,7.678z"/>
		<path fill="#010101" d="M42.296,28.728c-0.196,0-0.397,0.013-0.6,0.038c-0.047,0.006-0.094,0.017-0.14,0.024
			c-0.155,0.023-0.311,0.05-0.467,0.089c-0.059,0.014-0.117,0.033-0.175,0.05c-0.146,0.041-0.292,0.087-0.438,0.143
			c-0.058,0.022-0.115,0.046-0.172,0.07c-0.158,0.066-0.315,0.141-0.471,0.224c-0.037,0.02-0.075,0.038-0.112,0.059
			c-0.825,0.47-1.603,1.197-2.22,2.245c-0.617-1.048-1.395-1.775-2.22-2.245c-0.037-0.021-0.075-0.039-0.112-0.059
			c-0.156-0.084-0.313-0.158-0.471-0.224c-0.057-0.024-0.114-0.048-0.173-0.07c-0.146-0.055-0.292-0.102-0.438-0.143
			c-0.059-0.016-0.116-0.035-0.175-0.05c-0.157-0.038-0.312-0.066-0.467-0.089c-0.047-0.007-0.093-0.018-0.14-0.024
			c-0.203-0.025-0.404-0.038-0.6-0.038C29.9,28.728,27,31.064,27,34.973c0,3.036,2.912,6.667,5.93,9.517
			c0.04,0.037,0.08,0.075,0.12,0.112c0.175,0.164,0.35,0.322,0.525,0.48c0.182,0.163,0.364,0.327,0.539,0.479
			c0.033,0.029,0.067,0.058,0.1,0.087c0.942,0.814,1.736,1.436,2.237,1.815c0.151,0.113,0.304,0.23,0.447,0.334
			c0.003,0.002,0.011,0.008,0.014,0.01C37.087,47.936,37.293,48,37.5,48c0.206,0,0.413-0.064,0.588-0.191
			c0.003-0.002,0.011-0.008,0.014-0.01c0.144-0.104,0.296-0.221,0.447-0.334c0.501-0.38,1.296-1.002,2.238-1.817
			c0.033-0.028,0.065-0.056,0.097-0.085c0.176-0.153,0.359-0.317,0.542-0.482c0.174-0.158,0.349-0.315,0.523-0.479
			c0.04-0.037,0.08-0.075,0.12-0.113c2.439-2.303,4.803-5.115,5.623-7.712c0.034-0.11,0.061-0.219,0.089-0.329
			c0.049-0.185,0.097-0.369,0.129-0.551C47.963,35.587,48,35.278,48,34.973C48,31.064,45.1,28.728,42.296,28.728z"/>
	</g>
</g>
<g id="nyt_x5F_exporter_x5F_info" display="none">
</g>
</svg>
