<svg xmlns="http://www.w3.org/2000/svg" width="24" height="24" viewBox="0 0 24 24" fill="none">
  <path d="M18.8103 24.6177C18.9394 24.6177 19.0809 24.5782 19.21 24.5123C19.7125 24.2742 19.919 23.6935 19.6739 23.1796C19.6739 23.1796 17.8317 18.8654 17.4961 17.2824C17.3678 16.7281 17.2905 15.2636 17.2642 14.5776C17.2642 14.3404 17.3933 14.1287 17.5998 14.0628L21.7225 12.7969C22.225 12.6642 22.5219 12.0713 22.3927 11.5565C22.2636 11.0417 21.6838 10.7386 21.1813 10.8704C21.1813 10.8704 17.3678 12.1371 15.9886 12.1371C14.649 12.1371 10.8609 10.8967 10.8609 10.8967C10.3585 10.765 9.79097 11.0022 9.62406 11.5169C9.45627 12.0713 9.75231 12.6511 10.2935 12.7837L14.417 14.0496C14.6235 14.1155 14.7904 14.3272 14.7517 14.5644C14.7131 15.2505 14.649 16.7281 14.5198 17.2692C14.1851 18.8522 12.3421 23.1664 12.3421 23.1664C12.1101 23.6804 12.3421 24.261 12.8059 24.4991C12.9351 24.565 13.0774 24.6045 13.2056 24.6045C13.5798 24.6045 13.94 24.3928 14.0823 24.0238L16.0536 19.9073L17.9345 24.0502C18.1022 24.406 18.437 24.6177 18.8103 24.6177Z" />
  <path d="M16.0672 11.1472C17.1056 11.1472 17.9481 10.2854 17.9481 9.22154C17.9481 8.1577 17.1056 7.29504 16.0672 7.29504C15.028 7.29504 14.1855 8.1577 14.1855 9.22154C14.1855 10.2854 15.028 11.1472 16.0672 11.1472Z" />
</svg>
