<svg xmlns="http://www.w3.org/2000/svg" width="24" height="24" viewBox="0 0 24 24"><g ><path fill-rule="evenodd" d="M17,14.909 L17,13.091 L15.508,13.091 C15.427,12.779 15.305,12.487 15.15,12.215 L16.091,11.273 L14.728,9.91 L13.786,10.851 C13.514,10.695 13.222,10.574 12.91,10.493 L12.91,9 L11.092,9 L11.092,10.492 C10.78,10.573 10.488,10.694 10.216,10.85 L9.272,9.909 L7.909,11.272 L8.85,12.214 C8.695,12.487 8.573,12.779 8.492,13.09 L7,13.09 L7,14.908 L8.492,14.908 C8.573,15.22 8.695,15.512 8.85,15.785 L7.909,16.726 L9.272,18.089 L10.214,17.148 C10.486,17.304 10.778,17.425 11.09,17.506 L11.09,19 L12.908,19 L12.908,17.508 C13.22,17.426 13.512,17.305 13.784,17.15 L14.726,18.091 L16.089,16.728 L15.148,15.787 C15.303,15.514 15.425,15.222 15.506,14.91 L17,14.91 L17,14.909 Z M12,16 C10.895,16 10,15.104 10,14 C10,12.896 10.895,12 12,12 C13.105,12 14,12.896 14,14 C14,15.104 13.105,16 12,16 Z"/><path fill-rule="evenodd" d="M16.414,1 L5,1 C3.897,1 3,1.898 3,3 L3,21 C3,22.103 3.897,23 5,23 L19,23 C20.103,23 21,22.103 21,21 L21,5.586 L16.414,1 Z M5,21 L5,3 L15,3 L15,7 L19,7 L19.001,21 L5,21 Z"/></g></svg>