
<svg width="24px" height="24px" viewBox="0 0 24 24" version="1.1" xmlns="http://www.w3.org/2000/svg" xmlns:xlink="http://www.w3.org/1999/xlink">
    <!-- Generator: Sketch 41 (35326) - http://www.bohemiancoding.com/sketch -->
    <desc>Created with Sketch.</desc>
    <defs></defs>
    <g id="Woorank-Icon" stroke="none" fill-rule="evenodd">
        <path d="M12,17.5 C13.6568542,17.5 15,16.1568542 15,14.5 C15,12.8431458 13.6568542,11.5 12,11.5 C10.3431458,11.5 9,12.8431458 9,14.5 C9,16.1568542 10.3431458,17.5 12,17.5 Z M12,16.5 C10.8954305,16.5 10,15.6045695 10,14.5 C10,13.3954305 10.8954305,12.5 12,12.5 C13.1045695,12.5 14,13.3954305 14,14.5 C14,15.6045695 13.1045695,16.5 12,16.5 Z" id="Oval" ></path>
        <path d="M19.6195067,12.6979514 L17.3694929,8.80221324 L15.6884664,9.77178596 C15.2487305,9.42716215 14.7647549,9.14627052 14.2494395,8.93722519 L14.2494395,7 L9.74943953,7 L9.74943953,8.94569582 C9.23021493,9.15502724 8.74820955,9.43322097 8.31238405,9.77295772 L6.63062813,8.8007943 L4.38063319,12.6964998 L6.05992832,13.6684949 C5.98307994,14.2161527 5.98318407,14.7742765 6.06174602,15.3293855 L4.38049335,16.301258 L6.63038617,20.1967868 L8.31202539,19.2268607 C8.75095298,19.5696141 9.23420839,19.8497529 9.74843953,20.0591394 L9.74843953,22 L14.2484395,22 L14.2484395,20.0550414 C14.7675208,19.8454265 15.2498882,19.5671316 15.684509,19.2282448 L17.36613,20.2014151 L19.6162459,16.3055002 L17.9373755,15.3337509 C18.0150694,14.7851133 18.0154194,14.2261051 17.9368151,13.66957 L19.6195067,12.6979514 Z M17.8754735,13.3126688 L17.3854395,13.412 L17.8326531,13.6356068 L17.3864395,13.41 L17.636462,13.8429997 L17.9368151,13.66957 C17.9199904,13.5504477 17.8995485,13.4314386 17.8754735,13.3126688 Z M17.0007491,18.8345849 L15.5721178,18.0078221 L15.3022584,18.2464082 C14.8092074,18.6823205 14.229547,19.0177924 13.5891313,19.2330581 L13.2484395,19.3475764 L13.2484395,21 L10.7484395,21 L10.7484395,19.3532552 L10.4085965,19.2383443 C9.77851247,19.0252943 9.1960642,18.6875896 8.69413757,18.2449816 L8.42475045,18.0074311 L6.99649289,18.8312132 L5.74638571,16.666742 L7.17506038,15.8408758 L7.10342104,15.4884103 C6.96893087,14.8267186 6.96962028,14.1566119 7.1013778,13.5098022 L7.17316047,13.1574146 L5.74624586,12.3315002 L6.99625093,10.1672057 L8.42459431,10.9928803 L8.69427348,10.7548985 C9.19014418,10.3173111 9.76813584,9.9826723 10.4083477,9.76807614 L10.7494395,9.65374369 L10.7494395,8 L13.2494395,8 L13.2494395,9.64456331 L13.5903059,9.75900052 C14.220509,9.97057515 14.8025532,10.3084694 15.3049764,10.7533423 L15.5744577,10.9919558 L17.0033862,10.1677868 L18.2533724,12.3320486 L17.0063792,13.0520866 L16.86118,13.3424851 L16.8954055,13.5113312 C17.0297906,14.1742976 17.0284131,14.8442504 16.8956382,15.4915279 L16.8232695,15.8443255 L18.2506332,16.6704998 L17.0007491,18.8345849 Z" id="Shape" ></path>
        <path d="M3,23 L3,1 L15.2928932,1 L21,6.70710678 L21,23 L3,23 Z M2,24 L22,24 L22,6.29289322 L15.7071068,0 L2,0 L2,24 Z" id="Shape" ></path>
        <polygon id="Shape"  points="16 0.5 15 0.5 15 7 21.5 7 21.5 6 16 6"></polygon>
    </g>
</svg>
