<?xml version="1.0" encoding="utf-8"?>
<!-- Generator: Adobe Illustrator 16.0.3, SVG Export Plug-In . SVG Version: 6.00 Build 0)  -->
<!DOCTYPE svg PUBLIC "-//W3C//DTD SVG 1.1//EN" "http://www.w3.org/Graphics/SVG/1.1/DTD/svg11.dtd">
<svg version="1.1" xmlns="http://www.w3.org/2000/svg" xmlns:xlink="http://www.w3.org/1999/xlink" x="0px" y="0px" width="24px"
	 height="24px" viewBox="0 0 24 24" enable-background="new 0 0 24 24" xml:space="preserve">
<g id="Outline_Icons">
	<g>
		<path d="M12.642,15.521c-0.04-0.012-0.099-0.024-0.172-0.038c-0.482-0.09-0.712-0.211-0.712-0.657C11.758,14.37,12.091,14,12.5,14
			c0.389,0,0.714,0.338,0.739,0.77c0.017,0.275,0.247,0.491,0.528,0.47c0.276-0.017,0.486-0.253,0.47-0.528
			C14.181,13.751,13.417,13,12.5,13c-0.961,0-1.742,0.818-1.742,1.825c0,0.898,0.515,1.451,1.604,1.656
			c0.038,0.011,0.094,0.021,0.163,0.034c0.484,0.088,0.715,0.209,0.715,0.658c0,0.455-0.332,0.826-0.74,0.826
			c-0.39,0-0.716-0.339-0.741-0.771c-0.017-0.275-0.262-0.497-0.528-0.47c-0.276,0.017-0.486,0.253-0.47,0.528
			C10.817,18.248,11.581,19,12.5,19c0.96,0,1.74-0.819,1.74-1.826C14.24,16.27,13.724,15.718,12.642,15.521z"/>
		<path d="M19.961,6.308c-0.025-0.062-0.062-0.115-0.108-0.162l-5.998-5.999c-0.046-0.045-0.101-0.082-0.162-0.107
			C13.632,0.014,13.566,0,13.5,0h-13C0.224,0,0,0.224,0,0.5v23C0,23.776,0.224,24,0.5,24h19c0.276,0,0.5-0.224,0.5-0.5v-17
			C20,6.434,19.986,6.368,19.961,6.308z M14,1.707L18.293,6H14V1.707z M1,23V1h12v5.5C13,6.776,13.224,7,13.5,7H19v16H1z"/>
		<path d="M8.5,13C8.224,13,8,13.224,8,13.5V17c0,0.552-0.448,1-1,1s-1-0.448-1-1c0-0.276-0.224-0.5-0.5-0.5S5,16.724,5,17
			c0,1.103,0.897,2,2,2s2-0.897,2-2v-3.5C9,13.224,8.776,13,8.5,13z"/>
	</g>
</g>
</svg>
