<?xml version="1.0" encoding="utf-8"?>
<!-- Generator: Adobe Illustrator 16.0.3, SVG Export Plug-In . SVG Version: 6.00 Build 0)  -->
<!DOCTYPE svg PUBLIC "-//W3C//DTD SVG 1.1//EN" "http://www.w3.org/Graphics/SVG/1.1/DTD/svg11.dtd">
<svg version="1.1" xmlns="http://www.w3.org/2000/svg" xmlns:xlink="http://www.w3.org/1999/xlink" x="0px" y="0px" width="24px"
	 height="24px" viewBox="0 0 24 24" enable-background="new 0 0 24 24" xml:space="preserve">
<g id="Outline_Icons">
	<g>
		<path fill="none"  stroke-linecap="round" stroke-linejoin="round" stroke-miterlimit="10" d="M11.26,17.259
			c0.041,0.692,0.58,1.241,1.24,1.241c0.686,0,1.24-0.594,1.24-1.326c0-1.08-1.024-1.112-1.241-1.174
			c-0.217-0.064-1.241-0.096-1.241-1.175c0-0.731,0.557-1.325,1.242-1.325c0.658,0,1.197,0.549,1.238,1.24"/>
		<g>
			<g>
				<polygon fill="none"  stroke-linecap="round" stroke-linejoin="round" stroke-miterlimit="10" points="
					19.5,23.5 0.5,23.5 0.5,0.5 13.5,0.5 19.5,6.5 				"/>
				<polyline fill="none"  stroke-linecap="round" stroke-linejoin="round" stroke-miterlimit="10" points="
					13.5,0.5 13.5,6.5 19.5,6.5 				"/>
			</g>
		</g>
		<path fill="none"  stroke-linecap="round" stroke-linejoin="round" stroke-miterlimit="10" d="M5.5,17
			c0,0.828,0.672,1.5,1.5,1.5s1.5-0.672,1.5-1.5v-3.5"/>
	</g>
</g>

</svg>
