<?xml version="1.0" encoding="utf-8"?>
<!-- Generator: Adobe Illustrator 16.0.3, SVG Export Plug-In . SVG Version: 6.00 Build 0)  -->
<!DOCTYPE svg PUBLIC "-//W3C//DTD SVG 1.1//EN" "http://www.w3.org/Graphics/SVG/1.1/DTD/svg11.dtd">
<svg version="1.1" xmlns="http://www.w3.org/2000/svg" xmlns:xlink="http://www.w3.org/1999/xlink" x="0px" y="0px" width="24px"
	 height="24px" viewBox="0 0 24 24" enable-background="new 0 0 24 24" xml:space="preserve">
<g id="Outline_Icons">
	<g>
		<path d="M19.961,6.308c-0.025-0.061-0.062-0.116-0.108-0.162l-5.998-5.999c-0.046-0.045-0.101-0.083-0.162-0.107
			C13.632,0.014,13.566,0,13.5,0h-13C0.224,0,0,0.224,0,0.5v23C0,23.776,0.224,24,0.5,24h19c0.276,0,0.5-0.224,0.5-0.5v-17
			C20,6.433,19.986,6.368,19.961,6.308z M14,1.707L18.293,6H14V1.707z M1,23V1h12v5.5C13,6.776,13.224,7,13.5,7H19v16H1z"/>
		<path d="M13.479,10.859c-0.057-0.194-0.226-0.334-0.427-0.356c-0.196-0.021-0.395,0.081-0.491,0.258l-2.681,4.913l-1.527-1.527
			c-0.113-0.114-0.274-0.165-0.434-0.14c-0.158,0.026-0.295,0.126-0.367,0.27l-2.5,5c-0.077,0.155-0.069,0.339,0.021,0.486
			C5.166,19.911,5.327,20,5.5,20h10c0.157,0,0.306-0.074,0.4-0.201c0.095-0.126,0.124-0.289,0.079-0.44L13.479,10.859z M6.309,19
			l1.828-3.656l1.51,1.509c0.111,0.111,0.27,0.165,0.425,0.142c0.156-0.022,0.292-0.117,0.367-0.256l2.423-4.44L14.832,19H6.309z"/>
		<path d="M7,11c1.103,0,2-0.897,2-2c0-1.103-0.897-2-2-2S5,7.897,5,9C5,10.103,5.897,11,7,11z M7,8c0.552,0,1,0.449,1,1
			s-0.448,1-1,1S6,9.551,6,9S6.448,8,7,8z"/>
	</g>
</g>
</svg>
