<svg xmlns="http://www.w3.org/2000/svg" width="24" height="24" viewBox="0 0 24 24"><g fill-rule="evenodd"><g transform="translate(1 1)"><path d="M4 2L14 2 14 6 18 6 18 7 20 7 20 4.586 15.414 0 4 0C2.897 0 2 .898 2 2L2 7 4 7 4 2zM18 20L4 20 4 19 2 19 2 20C2 21.103 2.897 22 4 22L18 22C19.103 22 20 21.103 20 20L20 19 18 19 18 20zM8 9L10 9C12.206 9 14 10.794 14 13 14 15.206 12.206 17 10 17L8 17 8 9zM12 13C12 11.898 11.103 11 10 11L10 15C11.103 15 12 14.103 12 13zM22 11L22 9 18 9C16.897 9 16 9.898 16 11L16 17 18 17 18 14 21 14 21 12 18 12 18 11 22 11zM2 15L3 15C4.654 15 6 13.654 6 12 6 10.346 4.654 9 3 9L0 9 0 17 2 17 2 15zM2 11L3 11C3.551 11 4 11.448 4 12 4 12.552 3.551 13 3 13L2 13 2 11z"/></g></g></svg>
