<?xml version="1.0" encoding="UTF-8" standalone="no"?>
<svg width="24px" height="24px" viewBox="0 0 24 24" version="1.1" xmlns="http://www.w3.org/2000/svg" xmlns:xlink="http://www.w3.org/1999/xlink">
	  <g stroke="none" stroke-width="1" fill-rule="evenodd">
		    <g transform="translate(1.000000, 2.000000)">
		        <path d="M21.961,6.308 C21.936,6.246 21.899,6.192 21.853,6.147 L15.854,0.147 C15.808,0.102 15.753,0.065 15.692,0.04 C15.632,0.014 15.567,0 15.5,0 L0.5,0 C0.224,0 0,0.224 0,0.5 L0,18.5 C0,18.776 0.224,19 0.5,19 L21.5,19 C21.776,19 22,18.776 22,18.5 L22,6.5 C22,6.434 21.986,6.368 21.961,6.308 Z M16,1.707 L20.293,6 L16,6 L16,1.707 Z M1,18 L1,1 L15,1 L15,6.5 C15,6.776 15.224,7 15.5,7 L21,7 L21,18 L1,18 Z" id="Shape"></path>
		    </g>
		    <!-- <path d="M7.5,16.9998416 C7.409,16.9998416 7.317,16.9758416 7.237,16.9248416 C7.09,16.8338416 7,16.6728416 7,16.4998416 L7,7.49984161 C7,7.32684161 7.09,7.16584161 7.237,7.07484161 C7.384,6.98284161 7.568,6.97584161 7.723,7.05284161 L17.723,11.5528416 C17.893,11.6378416 18,11.8108416 18,11.9998416 C18,12.1888416 17.893,12.3618416 17.724,12.4468416 L7.724,16.9468416 C7.653,16.9818416 7.577,16.9998416 7.5,16.9998416 Z M8,8.30984161 L8,15.6908416 L16.382,11.9998416 L8,8.30984161 Z" id="Shape"></path> -->
				<path d="M14.9368652,11.5047935 L9,14.9347184 L9,8.60206216 L14.9368652,11.5047935 Z M17.0631348,11.4312687 L8,7 L8,16.6673438 L17.0631348,11.4312687 Z"></path>
	  </g>
</svg>
