
<svg width="24px" height="24px" viewBox="-2 0 24 24" version="1.1" xmlns="http://www.w3.org/2000/svg" xmlns:xlink="http://www.w3.org/1999/xlink">
    <!-- Generator: Sketch 41 (35326) - http://www.bohemiancoding.com/sketch -->
    <desc>Created with Sketch.</desc>
    <defs></defs>
    <g id="Woorank-Icon" stroke="none" stroke-width="1" fill="none" fill-rule="evenodd" transform="translate(-2.000000, 0.000000)">
        <g id="Group" transform="translate(2.000000, 0.000000)" fill="#979797">
            <path d="M1,23 L1,1 L13.2928932,1 L19,6.70710678 L19,23 L1,23 Z M0,24 L20,24 L20,6.29289322 L13.7071068,0 L0,0 L0,24 Z" id="Shape"></path>
            <polygon id="Shape" points="14 0.5 13 0.5 13 7 19.5 7 19.5 6 14 6"></polygon>
            <g transform="translate(2.000000, 7.000000)">
                <path d="M8,10.5 C9.65685425,10.5 11,9.15685425 11,7.5 C11,5.84314575 9.65685425,4.5 8,4.5 C6.34314575,4.5 5,5.84314575 5,7.5 C5,9.15685425 6.34314575,10.5 8,10.5 Z M8,9.5 C6.8954305,9.5 6,8.6045695 6,7.5 C6,6.3954305 6.8954305,5.5 8,5.5 C9.1045695,5.5 10,6.3954305 10,7.5 C10,8.6045695 9.1045695,9.5 8,9.5 Z" id="Oval"></path>
                <path d="M15.6190671,5.69795136 L13.3690534,1.80221324 L11.6880268,2.77178596 C11.248291,2.42716215 10.7643154,2.14627052 10.249,1.93722519 L10.249,0 L5.749,0 L5.749,1.94569582 C5.2297754,2.15502724 4.74777003,2.43322097 4.31194452,2.77295772 L2.6301886,1.8007943 L0.380193665,5.69649982 L2.0594888,6.66849494 C1.98264041,7.21615271 1.98274454,7.77427646 2.06130649,8.32938553 L0.380053817,9.30125804 L2.62994664,13.1967868 L4.31158586,12.2268607 C4.75051345,12.5696141 5.23376886,12.8497529 5.748,13.0591394 L5.748,15 L10.248,15 L10.248,13.0550414 C10.7670813,12.8454265 11.2494487,12.5671316 11.6840695,12.2282448 L13.3656904,13.2014151 L15.6158063,9.30550018 L13.9369359,8.33375091 C14.0146299,7.78511332 14.0149799,7.2261051 13.9363756,6.66957003 L15.6190671,5.69795136 Z M13.875034,6.31266879 L13.385,6.412 L13.8322136,6.6356068 L13.386,6.41 L13.6360224,6.84299975 L13.9363756,6.66957003 C13.9195509,6.55044766 13.899109,6.4314386 13.875034,6.31266879 Z M13.0003096,11.8345849 L11.5716783,11.0078221 L11.3018188,11.2464082 C10.8087679,11.6823205 10.2291075,12.0177924 9.58869181,12.2330581 L9.248,12.3475764 L9.248,14 L6.748,14 L6.748,12.3532552 L6.40815697,12.2383443 C5.77807294,12.0252943 5.19562467,11.6875896 4.69369805,11.2449816 L4.42431093,11.0074311 L2.99605336,11.8312132 L1.74594618,9.66674196 L3.17462086,8.84087583 L3.10298151,8.48841026 C2.96849134,7.82671861 2.96918075,7.1566119 3.10093827,6.50980224 L3.17272095,6.15741458 L1.74580633,5.33150018 L2.9958114,3.1672057 L4.42415478,3.99288032 L4.69383395,3.75489852 C5.18970466,3.31731112 5.76769631,2.9826723 6.4079082,2.76807614 L6.749,2.65374369 L6.749,1 L9.249,1 L9.249,2.64456331 L9.5898664,2.75900052 C10.2200695,2.97057515 10.8021137,3.30846943 11.3045369,3.75334235 L11.5740182,3.99195581 L13.0029466,3.16778676 L14.2529329,5.33204864 L13.0059397,6.05208664 L12.8607405,6.34248511 L12.894966,6.51133121 C13.0293511,7.17429763 13.0279735,7.84425035 12.8951986,8.49152793 L12.8228299,8.84432546 L14.2501937,9.67049982 L13.0003096,11.8345849 Z" id="Shape"></path>
            </g>
        </g>
    </g>
</svg>
