<?xml version="1.0" encoding="UTF-8" standalone="no"?>
<svg width="24px" height="24px" viewBox="0 0 24 24" version="1.1" xmlns="http://www.w3.org/2000/svg" xmlns:xlink="http://www.w3.org/1999/xlink">
	  <g stroke="none" stroke-width="1" fill-rule="evenodd">
		    <g transform="translate(1.000000, 2.000000)">
		        <path d="M21.961,6.308 C21.936,6.246 21.899,6.192 21.853,6.147 L15.854,0.147 C15.808,0.102 15.753,0.065 15.692,0.04 C15.632,0.014 15.567,0 15.5,0 L0.5,0 C0.224,0 0,0.224 0,0.5 L0,18.5 C0,18.776 0.224,19 0.5,19 L21.5,19 C21.776,19 22,18.776 22,18.5 L22,6.5 C22,6.434 21.986,6.368 21.961,6.308 Z M16,1.707 L20.293,6 L16,6 L16,1.707 Z M1,18 L1,1 L15,1 L15,6.5 C15,6.776 15.224,7 15.5,7 L21,7 L21,18 L1,18 Z"></path>
		    </g>
				<path d="M14.9368652,11.5047935 L9,14.9347184 L9,8.60206216 L14.9368652,11.5047935 Z M17.0631348,11.4312687 L8,7 L8,16.6673438 L17.0631348,11.4312687 Z"></path>
	  </g>
</svg>
