<svg xmlns="http://www.w3.org/2000/svg" width="24" height="24" viewBox="0 0 24 24"><g ><path fill-rule="evenodd" d="M8 11.006L8 13.006 7 13.006 7 15.006 8 15.006 8 17.006C8 17.559 8.448 18.006 9 18.006L11 18.006 11 16.006 10 16.006 10 12.006 11 12.006 11 10.006 9 10.006C8.448 10.006 8 10.454 8 11.006zM16 11.006C16 10.454 15.552 10.006 15 10.006L13 10.006 13 12.006 14 12.006 14 16.006 13 16.006 13 18.006 15 18.006C15.552 18.006 16 17.559 16 17.006L16 15.006 17 15.006 17 13.006 16 13.006 16 11.006z"/><path fill-rule="evenodd" d="M16.414,1.003 L5,1.003 C3.897,1.003 3,1.899 3,3.003 L3,21.003 C3,22.106 3.897,23.003 5,23.003 L19,23.003 C20.103,23.003 21,22.106 21,21.003 L21,5.59 L16.414,1.003 Z M5,21.003 L5,3.003 L15,3.003 L15,7.003 L19,7.003 L19.001,21.003 L5,21.003 Z"/></g></svg>