<svg xmlns="http://www.w3.org/2000/svg" width="24" height="24" viewBox="0 0 24 24"><g ><path fill-rule="evenodd" d="M5 3.003L15 3.003 15 7.003 19 7.003 19 8.003 21 8.003 21 5.59 16.414 1.004 5 1.004C3.897 1.004 3 1.9 3 3.004L3 8.004 5 8.004 5 3.003zM19 21.003L5 21.003 5 20.003 3 20.003 3 21.003C3 22.106 3.897 23.003 5 23.003L19 23.003C20.103 23.003 21 22.106 21 21.003L21 20.003 19 20.003 19 21.003zM8 18.003L8 16.003 5 16.003C4.449 16.003 4 15.555 4 15.003L4 13.003C4 12.453 4.449 12.003 5 12.003L8 12.003 8 10.003 5 10.003C3.346 10.003 2 11.349 2 13.003L2 15.003C2 16.657 3.346 18.003 5 18.003L8 18.003zM11.5 12.003L15 12.003 15 10.003 11.5 10.003C10.122 10.003 9 11.125 9 12.503 9 13.882 10.122 15.003 11.5 15.003L12.5 15.003C12.776 15.003 13 15.227 13 15.503 13 15.779 12.776 16.003 12.5 16.003L9 16.003 9 18.003 12.5 18.003C13.878 18.003 15 16.882 15 15.503 15 14.125 13.878 13.003 12.5 13.003L11.5 13.003C11.224 13.003 11 12.779 11 12.503 11 12.227 11.224 12.003 11.5 12.003zM18.5 12.003L22 12.003 22 10.003 18.5 10.003C17.122 10.003 16 11.125 16 12.503 16 13.882 17.122 15.003 18.5 15.003L19.5 15.003C19.776 15.003 20 15.227 20 15.503 20 15.779 19.776 16.003 19.5 16.003L16 16.003 16 18.003 19.5 18.003C20.878 18.003 22 16.882 22 15.503 22 14.125 20.878 13.003 19.5 13.003L18.5 13.003C18.224 13.003 18 12.779 18 12.503 18 12.227 18.224 12.003 18.5 12.003z"/></g></svg>
