<svg xmlns="http://www.w3.org/2000/svg" width="24" height="24" viewBox="0 0 24 24"><g ><path fill-rule="evenodd" d="M5 3.003L15 3.003 15 7.003 19 7.003 19 8.003 21 8.003 21 5.59 16.414 1.004 5 1.004C3.897 1.004 3 1.9 3 3.004L3 8.004 5 8.004 5 3.003zM19 21.003L5 21.003 5 20.003 3 20.003 3 21.003C3 22.106 3.897 23.003 5 23.003L19 23.003C20.104 23.003 21 22.106 21 21.003L21 20.003 19 20.003 19 21.003z"/><polygon fill-rule="evenodd" points="15 18.003 15 10.003 13 10.003 13 13.003 11 13.003 11 10.003 9 10.003 9 18.003 11 18.003 11 15.003 13 15.003 13 18.003"/><path fill-rule="evenodd" d="M4 16.003L5 16.003C6.654 16.003 8 14.657 8 13.003 8 11.349 6.654 10.003 5 10.003L2 10.003 2 18.003 4 18.003 4 16.003zM4 12.003L5 12.003C5.552 12.003 6 12.453 6 13.003 6 13.555 5.552 14.003 5 14.003L4 14.003 4 12.003zM19 10.003L16 10.003 16 18.003 18 18.003 18 16.003 19 16.003C20.654 16.003 22 14.657 22 13.003 22 11.349 20.654 10.003 19 10.003zM19 14.003L18 14.003 18 12.003 19 12.003C19.552 12.003 20 12.453 20 13.003 20 13.555 19.552 14.003 19 14.003z"/></g></svg>