<svg xmlns="http://www.w3.org/2000/svg" viewBox="0 0 24 24"><path d="M18.6 3.5c-.1 0-.2 0-.2-.1-1.9-1.4-4.3-2.2-6.7-2.2-2.2 0-4.3.6-6.2 1.8-.2.2-.5.2-.6 0-.1-.2 0-.4.1-.5C7 1.2 9.2.6 11.6.6c2.6 0 5.1.8 7.1 2.3.2.1.3.3.2.5-.1.1-.2.1-.3.1z"/><path d="M2.5 12.3c-.2 0-.4-.2-.4-.4 0-5.1 4.2-9.2 9.4-9.2 3.7 0 7 2.1 8.6 5.4.5 1 1.1 2 1.8 2.9.1.2.1.4-.1.5-.2.1-.4.1-.5-.1-.7-.9-1.3-2-1.8-3-1.4-3-4.5-4.9-7.9-4.9-4.8 0-8.7 3.8-8.7 8.4-.1.3-.2.4-.4.4zM3.3 17.7h-.2c-.2-.1-.3-.3-.2-.5.6-1.2-.6-2.5-.6-2.5-.1-.2-.1-.4 0-.5.2-.1.4-.1.5 0 .1.1 1.6 1.7.7 3.4.1 0-.1.1-.2.1zM7.9 22.5c-.1 0-.2 0-.3-.1-.1-.2-.1-.4.1-.5 1.9-1.5 2-4.1 2-4.2 0-.2.2-.4.4-.4s.4.2.4.4c0 .1-.2 3-2.3 4.7-.1.1-.2.1-.3.1z"/><path d="M17.8 21.1c-.1 0-.2 0-.3-.1-2.7-2.7-4.7-5.9-5.7-7.5-.5-.9-.8-1.4-.8-1.4-.1-.2 0-.4.2-.5.2-.1.4 0 .5.2 0 0 .3.5.7 1.3.9 1.6 2.9 4.7 5.6 7.3.1.1.1.4 0 .5 0 .2-.1.2-.2.2zM10.5 23.5s-.1 0 0 0c-.3-.1-.4-.3-.4-.5.2-.9.8-2.9 1.8-2.8 1 .1 1.6 2 1.8 2.6.1.2-.1.4-.3.5-.2.1-.4-.1-.5-.3-.3-.9-.8-2-1.1-2-.2 0-.8 1-1 2.3 0 0-.1.2-.3.2z"/><path d="M6.2 20.9c-.1 0-.2 0-.3-.1-.1-.2-.1-.4 0-.5 0 0 2-1.7 1.9-3.9 0-.6-.3-1.3-.5-2-.6-1.8-1.2-3.9 1-5.9 1.2-1.1 2.6-1.6 4-1.3 1.5.2 2.9 1.2 3.8 2.7 1.1 1.9 4.5 6.2 4.5 6.3.1.2.1.4-.1.5-.2.1-.4.1-.5-.1-.1-.2-3.4-4.4-4.6-6.4-.7-1.3-2-2.1-3.2-2.3-1.2-.2-2.4.2-3.4 1.2-1.9 1.7-1.3 3.4-.8 5.1.2.7.5 1.4.5 2.2.2 2.5-2 4.4-2.1 4.5h-.2z"/><path d="M15.8 22.3c-.1 0-.2 0-.3-.1-.2-.2-5.2-6.2-6.2-8.6-.8-2.1.5-3.3 1.2-3.7 0 0 .7-.5 1.7-.2.8.2 1.5.9 2.1 2 1.3 2.6 4 5.8 5.1 7.1.1.2.1.4 0 .5-.2.1-.4.1-.5 0-1.1-1.3-3.8-4.5-5.2-7.2-.5-.9-1-1.4-1.6-1.6-.6-.2-1.1.2-1.2.2-.2.1-1.6.8-.9 2.7.9 2.3 6 8.3 6.1 8.4.1.2.1.4 0 .5h-.3z"/><path d="M4.4 19.7c-.1 0-.3-.1-.3-.2-.1-.2 0-.4.2-.5.1 0 1.8-1.1.9-3.7-1.8-5.2.4-7.8 2.6-9.1 2.5-1.5 4.6-1.3 6-.9 1.8.6 3.4 1.9 4.2 3.6 1 2.1 3.5 5 3.5 5 .1.2.1.4 0 .5-.2.1-.4.1-.5 0-.1-.1-2.6-3-3.6-5.2-.8-1.6-2.1-2.7-3.7-3.2-1.7-.5-3.6-.2-5.4.8-3 1.7-3.8 4.4-2.5 8.2 1.2 3.3-1.2 4.6-1.2 4.6 0 .1-.1.1-.2.1z"/></svg>
