<?xml version="1.0" encoding="utf-8"?>
<!-- Generator: Adobe Illustrator 24.0.0, SVG Export Plug-In . SVG Version: 6.00 Build 0)  -->
<svg version="1.1" id="Layer_1" xmlns="http://www.w3.org/2000/svg" xmlns:xlink="http://www.w3.org/1999/xlink" x="0px" y="0px"
	 viewBox="0 0 24 24" style="enable-background:new 0 0 24 24;" xml:space="preserve">
<title>icon</title>
<g>
	<g>
		<path d="M18.6,3.5c-0.1,0-0.2,0-0.2-0.1c-1.9-1.4-4.3-2.2-6.7-2.2c0,0,0,0,0,0c-2.2,0-4.3,0.6-6.2,1.8C5.3,3.2,5,3.2,4.9,3
			C4.8,2.8,4.9,2.6,5,2.5c2-1.3,4.2-1.9,6.6-1.9c0,0,0,0,0,0c2.6,0,5.1,0.8,7.1,2.3C18.9,3,19,3.2,18.9,3.4
			C18.8,3.5,18.7,3.5,18.6,3.5z"/>
	</g>
	<g>
		<path d="M2.5,12.3c-0.2,0-0.4-0.2-0.4-0.4c0-5.1,4.2-9.2,9.4-9.2c3.7,0,7,2.1,8.6,5.4c0.5,1,1.1,2,1.8,2.9
			c0.1,0.2,0.1,0.4-0.1,0.5c-0.2,0.1-0.4,0.1-0.5-0.1c-0.7-0.9-1.3-2-1.8-3c-1.4-3-4.5-4.9-7.9-4.9c-4.8,0-8.7,3.8-8.7,8.4
			C2.8,12.2,2.7,12.3,2.5,12.3z"/>
	</g>
	<g>
		<path d="M3.3,17.7c-0.1,0-0.1,0-0.2,0c-0.2-0.1-0.3-0.3-0.2-0.5c0.6-1.2-0.6-2.5-0.6-2.5c-0.1-0.2-0.1-0.4,0-0.5
			c0.2-0.1,0.4-0.1,0.5,0c0.1,0.1,1.6,1.7,0.7,3.4C3.6,17.6,3.4,17.7,3.3,17.7z"/>
	</g>
	<g>
		<path d="M7.9,22.5c-0.1,0-0.2,0-0.3-0.1c-0.1-0.2-0.1-0.4,0.1-0.5c1.9-1.5,2-4.1,2-4.2c0-0.2,0.2-0.4,0.4-0.4
			c0.2,0,0.4,0.2,0.4,0.4c0,0.1-0.2,3-2.3,4.7C8.1,22.5,8,22.5,7.9,22.5z"/>
	</g>
	<g>
		<path d="M17.8,21.1c-0.1,0-0.2,0-0.3-0.1c-2.7-2.7-4.7-5.9-5.7-7.5c-0.5-0.9-0.8-1.4-0.8-1.4c-0.1-0.2,0-0.4,0.2-0.5
			c0.2-0.1,0.4,0,0.5,0.2c0,0,0.3,0.5,0.7,1.3c0.9,1.6,2.9,4.7,5.6,7.3c0.1,0.1,0.1,0.4,0,0.5C18,21.1,17.9,21.1,17.8,21.1z"/>
	</g>
	<g>
		<path d="M10.5,23.5C10.5,23.5,10.4,23.5,10.5,23.5c-0.3-0.1-0.4-0.3-0.4-0.5c0.2-0.9,0.8-2.9,1.8-2.8c1,0.1,1.6,2,1.8,2.6
			c0.1,0.2-0.1,0.4-0.3,0.5c-0.2,0.1-0.4-0.1-0.5-0.3c-0.3-0.9-0.8-2-1.1-2c0,0,0,0,0,0c-0.2,0-0.8,1-1,2.3
			C10.8,23.3,10.7,23.5,10.5,23.5z"/>
	</g>
	<g>
		<path d="M6.2,20.9c-0.1,0-0.2,0-0.3-0.1c-0.1-0.2-0.1-0.4,0-0.5c0,0,2-1.7,1.9-3.9c0-0.6-0.3-1.3-0.5-2c-0.6-1.8-1.2-3.9,1-5.9
			c1.2-1.1,2.6-1.6,4-1.3c1.5,0.2,2.9,1.2,3.8,2.7c1.1,1.9,4.5,6.2,4.5,6.3c0.1,0.2,0.1,0.4-0.1,0.5c-0.2,0.1-0.4,0.1-0.5-0.1
			c-0.1-0.2-3.4-4.4-4.6-6.4c-0.7-1.3-2-2.1-3.2-2.3C11,7.7,9.8,8.1,8.8,9.1c-1.9,1.7-1.3,3.4-0.8,5.1c0.2,0.7,0.5,1.4,0.5,2.2
			c0.2,2.5-2,4.4-2.1,4.5C6.3,20.9,6.2,20.9,6.2,20.9z"/>
	</g>
	<g>
		<path d="M15.8,22.3c-0.1,0-0.2,0-0.3-0.1c-0.2-0.2-5.2-6.2-6.2-8.6c-0.8-2.1,0.5-3.3,1.2-3.7c0,0,0,0,0,0c0,0,0.7-0.5,1.7-0.2
			c0.8,0.2,1.5,0.9,2.1,2c1.3,2.6,4,5.8,5.1,7.1c0.1,0.2,0.1,0.4,0,0.5c-0.2,0.1-0.4,0.1-0.5,0c-1.1-1.3-3.8-4.5-5.2-7.2
			c-0.5-0.9-1-1.4-1.6-1.6c-0.6-0.2-1.1,0.2-1.2,0.2c-0.2,0.1-1.6,0.8-0.9,2.7c0.9,2.3,6,8.3,6.1,8.4c0.1,0.2,0.1,0.4,0,0.5
			C16,22.3,15.9,22.3,15.8,22.3z"/>
	</g>
	<g>
		<path d="M4.4,19.7c-0.1,0-0.3-0.1-0.3-0.2c-0.1-0.2,0-0.4,0.2-0.5c0.1,0,1.8-1.1,0.9-3.7c-1.8-5.2,0.4-7.8,2.6-9.1
			c2.5-1.5,4.6-1.3,6-0.9c1.8,0.6,3.4,1.9,4.2,3.6c1,2.1,3.5,5,3.5,5c0.1,0.2,0.1,0.4,0,0.5c-0.2,0.1-0.4,0.1-0.5,0
			c-0.1-0.1-2.6-3-3.6-5.2c-0.8-1.6-2.1-2.7-3.7-3.2c-1.7-0.5-3.6-0.2-5.4,0.8C5.3,8.5,4.5,11.2,5.8,15c1.2,3.3-1.2,4.6-1.2,4.6
			C4.6,19.7,4.5,19.7,4.4,19.7z"/>
	</g>
</g>
</svg>
