<svg id="Layer_1" data-name="Layer 1" xmlns="http://www.w3.org/2000/svg" viewBox="0 0 24 24"><title>icon_C</title><path d="M12,4.74a7.89,7.89,0,0,0-3.57.82.91.91,0,1,0,.75,1.65l.05,0a6.35,6.35,0,0,1,9.13,5.72.91.91,0,1,0,1.81,0A8.17,8.17,0,0,0,12,4.74Z"/><path d="M6.33,8.28a.92.92,0,0,0-1.26.28,8.23,8.23,0,0,0-1.24,4.35v4.54a.91.91,0,1,0,1.81,0V12.91a6.31,6.31,0,0,1,1-3.38.91.91,0,0,0-.29-1.25Z"/><path d="M8.37,13.82a.91.91,0,0,0,.91-.91,2.72,2.72,0,1,1,5.44,0v7.26a.91.91,0,0,0,1.82,0V12.91a4.54,4.54,0,1,0-9.08,0A.91.91,0,0,0,8.37,13.82Z"/><path d="M12.91,22V12.91a.91.91,0,0,0-1.82,0V22a.91.91,0,1,0,1.82,0Z"/><path d="M1.65,9.2a.9.9,0,0,0,1.19-.47h0A9.76,9.76,0,0,1,12,2.92a9.76,9.76,0,0,1,9.15,5.81.93.93,0,0,0,.84.55A.92.92,0,0,0,22.82,8h0A11.57,11.57,0,0,0,12,1.1,11.57,11.57,0,0,0,1.18,8,.91.91,0,0,0,1.65,9.2Z"/><path d="M7.46,20.17a.91.91,0,0,0,1.82,0V16.54a.91.91,0,1,0-1.82,0Z"/><path d="M19.26,15.63a.9.9,0,0,0-.9.91v1.82a.91.91,0,0,0,1.81,0V16.54A.91.91,0,0,0,19.26,15.63Z"/></svg>