
<svg width="24px" height="24px" viewBox="0 0 24 24" version="1.1" xmlns="http://www.w3.org/2000/svg" xmlns:xlink="http://www.w3.org/1999/xlink">
    <!-- Generator: Sketch 41 (35326) - http://www.bohemiancoding.com/sketch -->
    <desc>Created with Sketch.</desc>
    <defs></defs>
    <g id="Woorank-Icon" stroke="none" fill-rule="evenodd">
        <g id="Section-Tab---Canonical" transform="translate(2.000000, 0.000000)">
            <g id="Group">
                <path d="M13,5 L13,8 L1,8 L1,5 L13,5 Z M14,4 L0,4 L0,9 L14,9 L14,4 Z" id="Rectangle-path"></path>
                <path d="M13,12 L13,15 L1,15 L1,12 L13,12 Z M14,11 L0,11 L0,16 L14,16 L14,11 Z" id="Rectangle-path"></path>
                <path d="M13,19 L13,22 L1,22 L1,19 L13,19 Z M14,18 L0,18 L0,23 L14,23 L14,18 Z" id="Rectangle-path"></path>
                <path d="M13.5,20.0232558 C13.2238576,20.0232558 13,20.2419074 13,20.5116279 C13,20.7813484 13.2238576,21 13.5,21 L20,21 L20,0.488372093 C20,0.218651634 19.7761424,0 19.5,0 C19.2238576,0 19,0.218651634 19,0.488372093 L19,20.0232558 L13.5,20.0232558 Z" id="Shape"></path>
                <polygon id="Shape" points="13.5 7 19.5 7 19.5 6 13.5 6"></polygon>
                <polygon id="Shape" points="13.5 14 19.5 14 19.5 13 13.5 13"></polygon>
            </g>
        </g>
    </g>
</svg>
