<?xml version="1.0" encoding="utf-8"?>
<!-- Generator: Adobe Illustrator 16.0.3, SVG Export Plug-In . SVG Version: 6.00 Build 0)  -->
<!DOCTYPE svg PUBLIC "-//W3C//DTD SVG 1.1//EN" "http://www.w3.org/Graphics/SVG/1.1/DTD/svg11.dtd">
<svg version="1.1" xmlns="http://www.w3.org/2000/svg" xmlns:xlink="http://www.w3.org/1999/xlink" x="0px" y="0px" width="24px"
	 height="24px" viewBox="0 0 24 24" enable-background="new 0 0 24 24" xml:space="preserve">
<g id="Outline_Icons">
	<path d="M21,0v6h-5V4.5C16,4.224,15.776,4,15.5,4h-13C2.224,4,2,4.224,2,4.5v4C2,8.776,2.224,9,2.5,9h13C15.776,9,16,8.776,16,8.5
		V7h5v6h-5v-1.5c0-0.276-0.224-0.5-0.5-0.5h-13C2.224,11,2,11.224,2,11.5v4C2,15.776,2.224,16,2.5,16h13c0.276,0,0.5-0.224,0.5-0.5
		V14h5v6h-5v-1.5c0-0.276-0.224-0.5-0.5-0.5h-13C2.224,18,2,18.224,2,18.5v4C2,22.776,2.224,23,2.5,23h13c0.276,0,0.5-0.224,0.5-0.5
		V21h5.5c0.276,0,0.5-0.224,0.5-0.5V0H21z M15,8H3V5h12V8z M15,15H3v-3h12V15z M15,22H3v-3h12V22z"/>
</g>
</svg>
