<svg id="Layer_1" data-name="Layer 1" xmlns="http://www.w3.org/2000/svg" viewBox="0 0 24 24"><defs><style>.cls-1{fill-rule:evenodd;}</style></defs><title>icon</title><rect x="7" y="8.36" width="10" height="2"/><rect x="7" y="12.36" width="10" height="2"/><rect x="7" y="16.36" width="6" height="2"/><path class="cls-1" d="M18.94,1.59H4.6A2.38,2.38,0,0,0,2.23,4V20A2.38,2.38,0,0,0,4.6,22.41H21a.76.76,0,0,0,.76-.76V5.54A.74.74,0,0,0,21,4.8H19.7V2.35A.76.76,0,0,0,18.94,1.59ZM4.58,3.11H18.17V4.8H4.6A.84.84,0,0,1,4,4.49a.9.9,0,0,1-.18-.63A.85.85,0,0,1,4.58,3.11ZM20.23,6.34V20.9H4.6A.87.87,0,0,1,3.75,20V6.34Z"/></svg>