<svg xmlns="http://www.w3.org/2000/svg" viewBox="0 0 24 24"><path d="M12 1.7C6.3 1.7 1.7 6.3 1.7 12S6.3 22.3 12 22.3 22.3 17.7 22.3 12 17.7 1.7 12 1.7zM4.4 6.4c1.1-1.5 2.7-2.7 4.5-3.3l.4-.1-.2.3c-.7.8-1.3 1.9-1.7 3.2v.1H4.3l.1-.2zm-1.8 5c.1-1.3.4-2.6 1.1-3.8v-.1h3.4v.2c-.3 1.3-.4 2.5-.5 3.8v.1h-4v-.2zm1.1 5c-.6-1.2-1-2.5-1.1-3.8v-.1h4v.1c0 1.4.2 2.6.5 3.8v.2l-3.4-.2zm5.2 4.5c-1.8-.6-3.4-1.8-4.5-3.3l-.1-.2h3.1v.1c.4 1.3 1 2.4 1.6 3.2l.3.3-.4-.1zm2.7.5h-.2c-1.2-.4-2.2-1.7-3-3.8l-.1-.2h3.2v4zm0-4.9H8.1v-.1c-.3-1.3-.5-2.6-.5-3.8v-.1h4v4zm0-4.9h-4v-.1c0-1.3.2-2.7.5-3.8v-.1h3.5v4zm0-5H8.3l.1-.2c.7-2 1.8-3.4 3-3.8h.2v4zm8.7 1c.6 1.2 1 2.5 1.1 3.8v.1h-4v-.1c0-1.4-.2-2.6-.5-3.8v-.2l3.4.2zm-5.2-4.5c1.8.6 3.4 1.8 4.5 3.3l.1.2h-3.1v-.1c-.4-1.3-1-2.4-1.7-3.2l-.2-.3.4.1zm-2.7-.5h.2c1.2.4 2.2 1.7 3 3.8l.1.2h-3.2v-4zm0 4.9h3.5v.1c.3 1.3.5 2.6.5 3.8v.1h-4v-4zm0 4.9h4v.1c0 1.3-.2 2.7-.5 3.8v.1h-3.5v-4zm.2 8.9h-.2v-4h3.2l-.1.2c-.6 2.1-1.7 3.5-2.9 3.8zm7-3.7c-1.1 1.5-2.7 2.7-4.5 3.3l-.4.1.3-.3c.7-.8 1.2-1.9 1.7-3.2v-.1h3.1l-.2.2zm.7-1.2l-3.4.1v-.2c.3-1.3.4-2.5.5-3.8v-.1h4v.1c-.1 1.4-.5 2.7-1.1 3.9z"/></svg>
