<svg id="Layer_1" data-name="Layer 1" xmlns="http://www.w3.org/2000/svg" viewBox="0 0 24 24"><title>icon_C</title><path d="M12,1.15A10.85,10.85,0,1,0,22.85,12,10.87,10.87,0,0,0,12,1.15Zm3.19,2.1a9.38,9.38,0,0,1,6.08,7.82l0,.16H16.88v-.14A17.23,17.23,0,0,0,15,3.47l-.21-.36ZM12,2.68c1.74,0,3.18,3.61,3.34,8.4v.15H8.65v-.15C8.82,6.29,10.26,2.68,12,2.68ZM2.73,11.07A9.38,9.38,0,0,1,8.81,3.25l.39-.14L9,3.47a17.23,17.23,0,0,0-1.86,7.62v.14H2.71Zm6.08,9.67a9.35,9.35,0,0,1-6.08-7.81l0-.16H7.12v.14A17.23,17.23,0,0,0,9,20.53l.21.36Zm3.19.58c-1.74,0-3.18-3.61-3.34-8.4v-.15h6.7v.15C15.18,17.71,13.74,21.32,12,21.32Zm9.27-8.39a9.35,9.35,0,0,1-6.08,7.81l-.39.15.21-.36a17.23,17.23,0,0,0,1.86-7.62v-.14h4.41Z"/></svg>