<svg id="Layer_1" data-name="Layer 1" xmlns="http://www.w3.org/2000/svg" viewBox="0 0 24 24"><title>icon</title><rect x="4.38" y="8.92" width="6.03" height="6.74"/><path d="M22.41,3.58a.93.93,0,0,0-.91-.92H2.5a.93.93,0,0,0-.91.92V21.34H22.41ZM6,3.67H6a.76.76,0,0,1,.78.76h0a.78.78,0,0,1-1.56,0A.76.76,0,0,1,6,3.67Zm-2.29,0h0a.76.76,0,0,1,.77.77.78.78,0,1,1-.79-.77ZM21.38,20.31H17.6V16a3.93,3.93,0,0,0,0-7.08v3.74l-1.74,1-1.67-1V8.89a4,4,0,0,0-1.86,1.91A3.93,3.93,0,0,0,14.26,16h0v4.29H12.15V17.17H4.38v3.14H2.6V6.59H21.38Z"/></svg>