<svg xmlns="http://www.w3.org/2000/svg" width="24" height="24" viewBox="0 0 24 24"><g><g fill-rule="evenodd" transform="translate(1 1)"><path d="M2.514 15.227L3.928 13.813 3.221 13.106C2.831 12.716 2.831 12.082 3.221 11.691L11.707 3.206C11.895 3.017 12.146 2.913 12.414 2.913 12.682 2.913 12.932 3.017 13.122 3.206L13.829 3.913 15.242 2.5 14.536 1.793C13.402.659 11.425.659 10.293 1.793L1.808 10.277C.638 11.447.638 13.35 1.808 14.52L2.514 15.227zM20.192 7.451L19.484 6.744 18.07 8.158 18.778 8.865C18.967 9.054 19.07 9.304 19.07 9.572 19.07 9.838 18.966 10.089 18.778 10.278L10.293 18.764C9.915 19.141 9.256 19.141 8.878 18.764L8.171 18.057 6.757 19.47 7.464 20.177C8.031 20.744 8.784 21.056 9.586 21.056 10.387 21.056 11.14 20.744 11.707 20.177L20.192 11.692C20.758 11.126 21.07 10.373 21.07 9.572 21.07 8.771 20.758 8.017 20.192 7.451z"/><rect width="2" height="10" x="14.949" y="1.036" transform="rotate(45 15.949 6.036)"/><rect width="1.999" height="10.001" x="5.05" y="10.934" transform="rotate(44.992 6.05 15.934)"/></g></g></svg>
