<?xml version="1.0" encoding="utf-8"?>
<!-- Generator: Adobe Illustrator 16.0.3, SVG Export Plug-In . SVG Version: 6.00 Build 0)  -->
<!DOCTYPE svg PUBLIC "-//W3C//DTD SVG 1.1//EN" "http://www.w3.org/Graphics/SVG/1.1/DTD/svg11.dtd">
<svg version="1.1" xmlns="http://www.w3.org/2000/svg" xmlns:xlink="http://www.w3.org/1999/xlink" x="0px" y="0px" width="24px"
	 height="24px" viewBox="0 0 24 24" enable-background="new 0 0 24 24" xml:space="preserve">
<g id="Outline_Icons_1_">
	<g id="Outline_Icons">
		<g>
			<path fill="none"  stroke-linecap="round" stroke-linejoin="round" stroke-miterlimit="10" d="M13.5,14.5
				c0,1.104,0.896,2,2,2h5c1.65,0,3-1.35,3-3v-2c0-1.65-1.35-3-3-3h-5c-1.104,0-2,0.896-2,2"/>
			<path fill="none"  stroke-linecap="round" stroke-linejoin="round" stroke-miterlimit="10" d="M10.5,14.5
				c0,1.104-0.896,2-2,2h-5c-1.65,0-3-1.35-3-3v-2c0-1.65,1.35-3,3-3h5c1.104,0,2,0.896,2,2"/>

				<line fill="none"  stroke-linecap="round" stroke-linejoin="round" stroke-miterlimit="10" x1="6.5" y1="12.5" x2="17.5" y2="12.5"/>
		</g>
	</g>
</g>
</svg>
