<svg xmlns="http://www.w3.org/2000/svg" width="24" height="24" viewBox="0 0 24 24"><g ><path fill-rule="evenodd" d="M18,14 L18,4 C18,2.897 17.103,2 16,2 L2,2 C0.897,2 0,2.897 0,4 L0,14 C0,15.103 0.897,16 2,16 L16,16 C17.103,16 18,15.103 18,14 Z M16,6 L10,6 L10,4 L16,4 L16,6 Z M6,6 L6,4 L8,4 L8,6 L6,6 Z M4,4 L4,6 L2,6 L2,4 L4,4 Z M2,14 L2,8 L15.999,8 L15.997,14 L2,14 Z"/><path fill-rule="evenodd" d="M3,17 L19,17 L19,5 C20.103,5 21,5.897 21,7 L21,17 C21,18.103 20.103,19 19,19 L5,19 C3.897,19 3,18.103 3,17 Z"/><path fill-rule="evenodd" d="M6,20 L22,20 L22,8 C23.103,8 24,8.897 24,10 L24,20 C24,21.103 23.103,22 22,22 L8,22 C6.897,22 6,21.103 6,20 Z"/></g></svg>