<svg xmlns="http://www.w3.org/2000/svg" width="24" height="24" viewBox="0 0 24 24"><g><path fill-rule="evenodd" d="M12.4062488,7.8158269 C12.5436364,8.57297341 12.3281204,9.35811133 11.8278281,9.94616238 L13.2662883,12.4376486 C14.3072192,12.2452376 15.4044938,12.7125577 15.9631574,13.6801913 C16.6720145,14.9079679 16.2497258,16.483971 15.0219492,17.1928281 C14.0554648,17.7508281 12.880526,17.5997744 12.0752107,16.9146417 L8.08901952,19.2160703 C8.27970422,20.2560601 7.82305115,21.3491138 6.8565668,21.9071138 C5.62879021,22.615971 4.05278719,22.1936822 3.34393004,20.9659056 C2.6350729,19.738129 3.05736164,18.162126 4.28513823,17.4532689 C5.25162258,16.8952689 6.42656136,17.0463225 7.23187666,17.7314553 L11.2180679,15.4300267 C11.0788276,14.6706134 11.2847542,13.882906 11.7823086,13.2958917 L10.3432131,10.8033052 C9.30322324,10.9939899 8.21016957,10.5373369 7.65216957,9.57085251 C6.94331242,8.34307592 7.36560116,6.7670729 8.59337775,6.05821576 C9.56101134,5.49955224 10.7449391,5.64347846 11.5502062,6.33057669 L15.5263074,4.03497359 C15.3356227,2.99498372 15.7922758,1.90193004 16.7587601,1.34393004 C17.9865367,0.635072901 19.5625397,1.05736164 20.2713969,2.28513823 C20.980254,3.51291481 20.5579653,5.08891784 19.3301887,5.79777498 C18.3637043,6.35577498 17.1887656,6.2047213 16.3834503,5.51958857 L12.4062488,7.8158269 Z M13.3076635,14.2235981 C12.898652,14.459741 12.7577845,14.9854656 12.9939274,15.3944771 C13.2309274,15.8049731 13.7557949,15.944356 14.1648063,15.7082131 C14.5738177,15.4720703 14.7155424,14.9478302 14.4785424,14.5373342 C14.2423995,14.1283228 13.7166749,13.9874553 13.3076635,14.2235981 Z M5.99942394,20.4224988 C6.40843537,20.186356 6.54930286,19.6606313 6.31316,19.2516199 C6.07616,18.8411239 5.55129251,18.701741 5.14228108,18.9378839 C4.73326966,19.1740267 4.59154502,19.6982667 4.82854502,20.1087628 C5.06468788,20.5177742 5.59041251,20.6586417 5.99942394,20.4224988 Z M9.13678454,8.71370965 C9.3729274,9.12272108 9.89865203,9.26358857 10.3076635,9.02744571 C10.7181595,8.79044571 10.8575424,8.26557822 10.6213995,7.8565668 C10.3852567,7.44755537 9.86101665,7.30583074 9.4505206,7.54283074 C9.04150918,7.77897359 8.90064169,8.30469823 9.13678454,8.71370965 Z M17.3021669,3.99942394 C17.5383098,4.40843537 18.0640344,4.54930286 18.4730458,4.31316 C18.8835419,4.07616 19.0229248,3.55129251 18.7867819,3.14228108 C18.550639,2.73326966 18.026399,2.59154502 17.615903,2.82854502 C17.2068916,3.06468788 17.0660241,3.59041251 17.3021669,3.99942394 Z"/></g></svg>
