<svg xmlns="http://www.w3.org/2000/svg" width="24" height="24" viewBox="0 0 24 24"><g><path fill-rule="evenodd" d="M7.99796843,12.2241073 L5.70173011,16.2013087 C6.38686284,17.006624 6.53791651,18.1815628 5.97991651,19.1480472 C5.27105937,20.3758237 3.69505635,20.7981125 2.46727976,20.0892553 C1.23950317,19.3803982 0.817214437,17.8043952 1.52607158,16.5766186 C2.08407158,15.6101342 3.17712526,15.1534812 4.21711513,15.3441659 L6.51271823,11.3680647 C5.82561999,10.5627976 5.68169378,9.3788698 6.24035729,8.41123621 C6.94921444,7.18345962 8.52521746,6.76117089 9.75299405,7.47002803 C10.7194784,8.02802803 11.1761315,9.12108171 10.9854468,10.1610716 L13.4780332,11.600167 C14.0650475,11.1026126 14.852755,10.8966861 15.6121682,11.0359263 L17.9135968,7.04973513 C17.2284641,6.24441983 17.0774104,5.06948104 17.6354104,4.10299669 C18.3442676,2.8752201 19.9202706,2.45293137 21.1480472,3.16178851 C22.3758237,3.87064565 22.7981125,5.44664867 22.0892553,6.67442526 C21.5312553,7.64090961 20.4382017,8.09756269 19.3982118,7.90687799 L17.0967832,11.8930692 C17.781916,12.6983845 17.9329696,13.8733233 17.3749696,14.8398076 C16.6661125,16.0675842 15.0901095,16.489873 13.8623329,15.7810158 C12.8946993,15.2223523 12.4273791,14.1250776 12.6197901,13.0841468 L10.1283039,11.6456866 C9.54025287,12.1459788 8.75511494,12.3614949 7.99796843,12.2241073 Z M14.4057397,13.1255219 C14.1695968,13.5345334 14.3104643,14.060258 14.7194757,14.2964008 C15.1299718,14.5334008 15.6542118,14.3916762 15.8903547,13.9826648 C16.1264975,13.5736534 15.9871146,13.0487859 15.5766186,12.8117859 C15.1676072,12.575643 14.6418825,12.7165105 14.4057397,13.1255219 Z M20.6046404,5.8172824 C20.8407832,5.40827098 20.6999157,4.88254634 20.2909043,4.64640349 C19.8804083,4.40940349 19.3561682,4.55112812 19.1200254,4.96013955 C18.8838825,5.36915097 19.0232654,5.89401846 19.4337614,6.13101846 C19.8427729,6.36716132 20.3684975,6.22629383 20.6046404,5.8172824 Z M8.89585119,8.95464301 C8.48683976,8.71850015 7.96111513,8.85936764 7.72497227,9.26837907 C7.48797227,9.67887511 7.62969691,10.2031151 8.03870833,10.439258 C8.44771976,10.6754008 8.97258725,10.536018 9.20958725,10.1255219 C9.44573011,9.7165105 9.30486262,9.19078587 8.89585119,8.95464301 Z M4.18156548,17.1200254 C3.77255405,16.8838825 3.24682941,17.02475 3.01068656,17.4337614 C2.77368656,17.8442575 2.91541119,18.3684975 3.32442262,18.6046404 C3.73343404,18.8407832 4.25830154,18.7014003 4.49530154,18.2909043 C4.73144439,17.8818929 4.5905769,17.3561682 4.18156548,17.1200254 Z"/></g></svg>
