<svg xmlns="http://www.w3.org/2000/svg" width="24" height="24" viewBox="0 0 24 24"><g ><path d="M7,2 L21,2 C22.1045695,2 23,2.8954305 23,4 L23,18 C23,19.1045695 22.1045695,20 21,20 L7,20 C5.8954305,20 5,19.1045695 5,18 L5,4 C5,2.8954305 5.8954305,2 7,2 Z M7,4 L7,18 L21,18 L21,4 L7,4 Z"/><path d="M20,7 L4,7 L4,23 C2.8954305,23 2,22.1045695 2,21 L2,7 C2,5.8954305 2.8954305,5 4,5 L18,5 C19.1045695,5 20,5.8954305 20,7 Z" transform="matrix(1 0 0 -1 0 28)"/><polygon fill-rule="evenodd" points="9 6 19 6 19 8 9 8"/><polygon fill-rule="evenodd" points="9 10 19 10 19 12 9 12"/><polygon fill-rule="evenodd" points="9 14 15 14 15 16 9 16"/></g></svg>