<svg xmlns="http://www.w3.org/2000/svg" width="24" height="24" viewBox="0 0 24 24"><g ><path fill-rule="evenodd" d="M21.414,18.586 L17.455,14.627 C18.439,13.108 18.973,11.339 18.973,9.486 C18.973,6.953 17.987,4.57 16.194,2.779 C14.402,0.987 12.02,0 9.486,0 C6.952,0 4.57,0.987 2.779,2.778 C0.987,4.57 0,6.953 0,9.486 C0,12.02 0.987,14.403 2.779,16.194 C4.57,17.986 6.953,18.972 9.486,18.972 C11.34,18.972 13.108,18.44 14.627,17.455 L18.586,21.414 C18.964,21.792 19.466,22 20,22 C20.534,22 21.036,21.792 21.414,21.414 C21.792,21.037 22,20.535 22,20 C22,19.465 21.792,18.963 21.414,18.586 Z M4.193,14.778 C2.779,13.365 2,11.486 2,9.486 C2,7.486 2.779,5.607 4.193,4.194 C5.607,2.779 7.486,2 9.486,2 C11.486,2 13.365,2.779 14.779,4.194 C16.193,5.607 16.972,7.486 16.972,9.486 C16.972,11.486 16.193,13.365 14.779,14.779 C13.365,16.194 11.486,16.972 9.486,16.972 C7.486,16.972 5.607,16.194 4.193,14.778 Z" transform="translate(1 1)"/></g></svg>