<svg version="1.1" xmlns="http://www.w3.org/2000/svg" xmlns:xlink="http://www.w3.org/1999/xlink" x="0px" y="0px" width="24px"
	 height="24px" viewBox="0 0 24 24" enable-background="new 0 0 24 24" xml:space="preserve">
<g id="Outline_Icons">
	<g>
		<path d="M22.5,4C22.776,4,23,3.776,23,3.5v-3C23,0.224,22.776,0,22.5,0h-22C0.224,0,0,0.224,0,0.5v3C0,3.776,0.224,4,0.5,4H2v13
			H0.521c-0.276,0-0.5,0.224-0.5,0.5s0.224,0.5,0.5,0.5H2.5H11v2.071c-0.86,0.223-1.5,1-1.5,1.929c0,1.103,0.897,2,2,2s2-0.897,2-2
			c0-0.929-0.64-1.706-1.5-1.929V18h8.5h1.979c0.276,0,0.5-0.224,0.5-0.5s-0.224-0.5-0.5-0.5H21V4H22.5z M12.5,22
			c0,0.551-0.448,1-1,1s-1-0.449-1-1s0.448-1,1-1S12.5,21.449,12.5,22z M1,1h21v2h-1.5h-18H1V1z M20,17H3V4h17V17z"/>
		<path d="M6.553,14.776c-0.095,0.19-0.06,0.42,0.089,0.572C6.737,15.448,6.868,15.5,7,15.5c0.071,0,0.144-0.015,0.211-0.046
			l2.704-1.257c0.55,0.148,1.124,0.223,1.71,0.223c3.032,0,5.5-2.054,5.5-4.578c0-2.525-2.468-4.58-5.5-4.58s-5.5,2.054-5.5,4.58
			c0,1.136,0.486,2.201,1.379,3.037L6.553,14.776z M7.125,9.841c0-1.974,2.019-3.58,4.5-3.58s4.5,1.606,4.5,3.58
			c0,1.973-2.019,3.578-4.5,3.578c-0.555,0-1.095-0.079-1.606-0.234c-0.119-0.036-0.246-0.027-0.356,0.025l-1.573,0.732l0.483-0.964
			c0.105-0.211,0.049-0.467-0.136-0.615C7.591,11.688,7.125,10.792,7.125,9.841z"/>
	</g>
</g>
</svg>
