<svg xmlns="http://www.w3.org/2000/svg" width="24" height="24" viewBox="0 0 24 24"><g ><g fill-rule="evenodd" transform="translate(2 3)"><path d="M20,4 L20,1 C20,0.448 19.553,0 19,0 L1,0 C0.447,0 0,0.448 0,1 L0,4 C0,4.552 0.447,5 1,5 L1,15 L0,15 L0,17 L9,17 L9,19 L11,19 L11,17 L20,17 L20,15 L19,15 L19,5 C19.553,5 20,4.552 20,4 Z M2,2 L18,2 L18,3 L2,3 L2,2 Z M17,15 L3,15 L3,5 L17,5 L17,15 Z"/><path d="M5.416,13.812 C5.588,13.936 5.793,14 6,14 C6.106,14 6.213,13.983 6.316,13.949 L9.162,13 L12,13 C13.654,13 15,11.654 15,10 L15,9 C15,7.346 13.654,6 12,6 L8,6 C6.346,6 5,7.346 5,9 L5,13 C5,13.322 5.154,13.623 5.416,13.812 Z M7,9 C7,8.448 7.449,8 8,8 L12,8 C12.551,8 13,8.448 13,9 L13,10 C13,10.552 12.551,11 12,11 L9,11 C8.893,11 8.785,11.018 8.684,11.051 L7,11.612 L7,9 Z"/></g></g></svg>