<?xml version="1.0" encoding="utf-8"?>
<!-- Generator: Adobe Illustrator 24.0.0, SVG Export Plug-In . SVG Version: 6.00 Build 0)  -->
<svg version="1.1" id="Layer_1" xmlns="http://www.w3.org/2000/svg" xmlns:xlink="http://www.w3.org/1999/xlink" x="0px" y="0px"
	 viewBox="0 0 24 24" style="enable-background:new 0 0 24 24;" xml:space="preserve">
<style type="text/css">
	.st0{display:none;fill:#FF0000;}
</style>
<title>icon</title>
<g id="Layer_2_2_">
	<g id="Layer_1-2_1_">
		<path d="M20.4,7.7l-1,1.3c0.6,1,1,2.2,1.1,3.4v0.3h-1.2c-0.4,0-0.8,0.3-0.8,0.8c0,0.4,0.3,0.8,0.8,0.8h1.3v0.3
			c-0.2,1.6-0.8,3.1-1.8,4.3l-0.2,0.2l-0.9-0.8c-0.1-0.1-0.2-0.1-0.3-0.2c-0.3-0.1-0.6-0.1-0.8,0.1c-0.3,0.3-0.3,0.7,0,1l1.4,1.4
			c0.1,0.1,0.2,0.1,0.3,0.2c0.3,0.1,0.6,0.1,0.8-0.2c1.9-1.9,3-4.5,3-7.2C22.1,11.3,21.5,9.3,20.4,7.7z"/>
		<path d="M6.3,18.1L5.4,19l-0.2-0.2c-1-1.2-1.6-2.7-1.8-4.3v-0.3h1.3c0.4,0,0.8-0.3,0.8-0.8c0-0.4-0.3-0.8-0.8-0.8H3.4v-0.3
			C3.5,10.8,4.2,9.3,5.2,8l0.2-0.2l0.9,0.9C6.6,9,7,9,7.3,8.7c0.3-0.3,0.3-0.7,0-1L6.4,6.8l0.2-0.2c1.2-1,2.7-1.6,4.3-1.8h0.3v1.2
			c0,0.4,0.3,0.8,0.8,0.8c0.4,0,0.8-0.3,0.8-0.8V4.8H13c1,0.1,1.9,0.4,2.7,0.8l1.3-1c-1.5-0.9-3.2-1.3-5-1.3
			C6.4,3.2,1.8,7.8,1.8,13.4c0,2.7,1.1,5.3,3,7.2c0.3,0.3,0.8,0.3,1.1,0l1.4-1.4c0.3-0.3,0.3-0.8,0-1.1C7,17.8,6.6,17.8,6.3,18.1z"
			/>
	</g>
</g>
<circle class="st0" cx="12.8" cy="13.8" r="3.3"/>
<path d="M18.9,4.8l-6.4,5.9c-0.2,0-0.3-0.1-0.5-0.1c-1.8,0-3.3,1.5-3.3,3.3c0,1.8,1.5,3.3,3.3,3.3s3.3-1.5,3.3-3.3
	c0-0.4-0.1-0.8-0.2-1.2l4.4-7.5C19.7,5,19.2,4.6,18.9,4.8z"/>
</svg>
