<svg id="Layer_1" data-name="Layer 1" xmlns="http://www.w3.org/2000/svg" viewBox="0 0 24 24"><title>icon</title><g id="Layer_2" data-name="Layer 2"><g id="Layer_1-2" data-name="Layer 1-2"><path d="M19.19,5.34a10.1,10.1,0,0,0-7.19-3h0A10.17,10.17,0,0,0,1.84,12.52a10.23,10.23,0,0,0,3,7.2.75.75,0,0,0,1.06,0l1.44-1.44a.75.75,0,0,0-1-1.07l-.9.91-.18-.22a8.67,8.67,0,0,1-1.79-4.33l0-.27H4.66a.75.75,0,0,0,0-1.5H3.38l0-.28A8.56,8.56,0,0,1,5.2,7.18L5.38,7l.9.9a.75.75,0,0,0,1-1.07L6.44,5.9l.21-.17A8.5,8.5,0,0,1,11,3.94l.28,0V5.19a.75.75,0,1,0,1.5,0V3.9l.28,0A8.63,8.63,0,0,1,20.6,11.5l0,.28H19.35a.75.75,0,0,0,0,1.5h1.28l0,.28a8.65,8.65,0,0,1-1.8,4.31l-.18.22-.88-.88a.7.7,0,0,0-.25-.17.78.78,0,0,0-.84.15.75.75,0,0,0,0,1l0,0,1.43,1.43a.76.76,0,0,0,.26.16.73.73,0,0,0,.83-.15,10.14,10.14,0,0,0,0-14.36Z"/><rect x="9.25" y="20.14" width="5.5" height="1.5" rx="0.25"/><path d="M16.93,7.62l0,0a.36.36,0,0,0-.49,0l-3.85,2.92-.12,0a1.77,1.77,0,0,0-.46-.07,2.13,2.13,0,0,0-2.13,2.14,2.14,2.14,0,0,0,4.28,0,2.42,2.42,0,0,0-.05-.47l0-.11L17,8.09A.37.37,0,0,0,16.93,7.62Z"/></g></g></svg>