<?xml version="1.0" encoding="utf-8"?>
<!-- Generator: Adobe Illustrator 17.0.0, SVG Export Plug-In . SVG Version: 6.00 Build 0)  -->
<!DOCTYPE svg PUBLIC "-//W3C//DTD SVG 1.1//EN" "http://www.w3.org/Graphics/SVG/1.1/DTD/svg11.dtd">
<svg version="1.1" id="Layer_1" xmlns="http://www.w3.org/2000/svg" xmlns:xlink="http://www.w3.org/1999/xlink" x="0px" y="0px"
	 width="60px" height="60px" viewBox="0 0 60 60" enable-background="new 0 0 60 60" xml:space="preserve">
<g>
	<path fill="#231F20" d="M4.754,24h42.939l-1.164,5.819l1.961,0.393L49.733,24H51c0.553,0,1-0.448,1-1v-4c0-0.552-0.447-1-1-1H1
		c-0.553,0-1,0.448-1,1v4c0,0.552,0.447,1,1,1h1.71l4.877,23.206C7.685,47.669,8.093,48,8.565,48h20.174v-2H9.377L4.754,24z M2,20
		h48v2h-1.087H3.521H2V20z"/>
	<path fill="#231F20" d="M8.566,14.609c0.226,0,0.452-0.076,0.64-0.232l15.13-12.609c0.424-0.354,0.482-0.984,0.128-1.408
		c-0.354-0.424-0.983-0.482-1.409-0.128L7.925,12.841c-0.424,0.353-0.481,0.984-0.128,1.408C7.995,14.486,8.279,14.609,8.566,14.609
		z"/>
	<path fill="#231F20" d="M43.228,14.377c0.188,0.156,0.414,0.232,0.64,0.232c0.287,0,0.571-0.123,0.77-0.36
		c0.353-0.424,0.296-1.055-0.128-1.408L29.38,0.232c-0.426-0.353-1.055-0.296-1.409,0.128c-0.354,0.424-0.296,1.055,0.128,1.408
		L43.228,14.377z"/>
	<path fill="#231F20" d="M47,34c-7.168,0-13,5.831-13,13s5.832,13,13,13s13-5.831,13-13S54.168,34,47,34z M47,58
		c-6.065,0-11-4.935-11-11s4.935-11,11-11c6.065,0,11,4.935,11,11S53.065,58,47,58z"/>
	<path fill="#231F20" d="M53,46h-5v-5c0-0.552-0.447-1-1-1c-0.553,0-1,0.448-1,1v5h-5c-0.553,0-1,0.448-1,1s0.447,1,1,1h5v5
		c0,0.552,0.447,1,1,1c0.553,0,1-0.448,1-1v-5h5c0.553,0,1-0.448,1-1S53.553,46,53,46z"/>
</g>
</svg>
