<?xml version="1.0" encoding="utf-8"?>
<!-- Generator: Adobe Illustrator 17.0.0, SVG Export Plug-In . SVG Version: 6.00 Build 0)  -->
<!DOCTYPE svg PUBLIC "-//W3C//DTD SVG 1.1//EN" "http://www.w3.org/Graphics/SVG/1.1/DTD/svg11.dtd">
<svg version="1.1" id="Layer_1" xmlns="http://www.w3.org/2000/svg" xmlns:xlink="http://www.w3.org/1999/xlink" x="0px" y="0px"
	 width="60px" height="60px" viewBox="0 0 60 60" enable-background="new 0 0 60 60" xml:space="preserve">
<g>
	<path fill="#231F20" d="M59,26.044H1c-0.553,0-1,0.448-1,1V31c0,0.552,0.447,1,1,1h1.685l4.896,27.177
		C7.667,59.653,8.081,60,8.565,60h42.869c0.484,0,0.898-0.347,0.984-0.823L57.315,32H59c0.553,0,1-0.448,1-1v-3.956
		C60,26.491,59.553,26.044,59,26.044z M50.599,58H9.401L4.718,32h50.564L50.599,58z M58,30h-1.521H3.521H2v-1.956h56V30z"/>
	<path fill="#231F20" d="M8.565,22.174c0.256,0,0.512-0.098,0.707-0.293l15.13-15.13c0.391-0.391,0.391-1.023,0-1.414
		c-0.391-0.391-1.023-0.391-1.414,0l-15.13,15.13c-0.391,0.391-0.391,1.023,0,1.414C8.054,22.076,8.31,22.174,8.565,22.174z"/>
	<path fill="#231F20" d="M50.727,21.881c0.195,0.195,0.451,0.293,0.707,0.293c0.256,0,0.512-0.098,0.707-0.293
		c0.391-0.391,0.391-1.023,0-1.414l-15.13-15.13c-0.391-0.391-1.023-0.391-1.414,0c-0.391,0.391-0.391,1.023,0,1.414L50.727,21.881z
		"/>
	<path fill="#231F20" d="M35,52.435c0.553,0,1-0.448,1-1v-15.13c0-0.552-0.447-1-1-1c-0.553,0-1,0.448-1,1v15.13
		C34,51.987,34.447,52.435,35,52.435z"/>
	<path fill="#231F20" d="M45,52.435c0.553,0,1-0.448,1-1v-15.13c0-0.552-0.447-1-1-1c-0.553,0-1,0.448-1,1v15.13
		C44,51.987,44.447,52.435,45,52.435z"/>
	<path fill="#231F20" d="M25,52.435c0.553,0,1-0.448,1-1v-15.13c0-0.552-0.447-1-1-1c-0.553,0-1,0.448-1,1v15.13
		C24,51.987,24.447,52.435,25,52.435z"/>
	<path fill="#231F20" d="M15,52.435c0.553,0,1-0.448,1-1v-15.13c0-0.552-0.447-1-1-1c-0.553,0-1,0.448-1,1v15.13
		C14,51.987,14.447,52.435,15,52.435z"/>
</g>
</svg>
