<?xml version="1.0" encoding="utf-8"?>
<!-- Generator: Adobe Illustrator 17.0.0, SVG Export Plug-In . SVG Version: 6.00 Build 0)  -->
<!DOCTYPE svg PUBLIC "-//W3C//DTD SVG 1.1//EN" "http://www.w3.org/Graphics/SVG/1.1/DTD/svg11.dtd">
<svg version="1.1" id="Layer_1" xmlns="http://www.w3.org/2000/svg" xmlns:xlink="http://www.w3.org/1999/xlink" x="0px" y="0px"
	 width="60px" height="60px" viewBox="0 0 60 60" enable-background="new 0 0 60 60" xml:space="preserve">
<g>
	<path fill="#231F20" d="M59,26h-1.707l-2.146-10.387C53.456,8.006,47.076,2.426,39.805,2.038C39.265,0.653,37.592,0,36,0H24
		c-1.592,0-3.265,0.653-3.805,2.038C12.923,2.426,6.543,8.006,4.849,15.628L2.707,26H1c-0.553,0-1,0.448-1,1v4c0,0.552,0.447,1,1,1
		h1.685l4.896,27.177C7.667,59.653,8.081,60,8.565,60h42.869c0.484,0,0.898-0.347,0.984-0.823L57.315,32H59c0.553,0,1-0.448,1-1v-4
		C60,26.448,59.553,26,59,26z M24,2h12c0.83,0,2,0.31,2,1c0,0.87-1.253,1-2,1H24c-0.747,0-2-0.13-2-1C22,2.31,23.17,2,24,2z
		 M6.805,16.047C8.294,9.348,13.854,4.426,20.198,4.038C20.618,5.104,21.759,6,24,6h12c2.241,0,3.382-0.896,3.802-1.962
		c6.343,0.388,11.903,5.31,13.389,11.994L55.251,26H4.749L6.805,16.047z M50.599,58H9.401L4.718,32h50.564L50.599,58z M58,30h-1.522
		H3.521H2v-2h1.521h52.957H58V30z"/>
	<path fill="#231F20" d="M37,52.435c0.553,0,1-0.448,1-1V36.304c0-0.552-0.447-1-1-1c-0.553,0-1,0.448-1,1v15.131
		C36,51.987,36.447,52.435,37,52.435z"/>
	<path fill="#231F20" d="M45,52.435c0.553,0,1-0.448,1-1V36.304c0-0.552-0.447-1-1-1c-0.553,0-1,0.448-1,1v15.131
		C44,51.987,44.447,52.435,45,52.435z"/>
	<path fill="#231F20" d="M23,52.435c0.553,0,1-0.448,1-1V36.304c0-0.552-0.447-1-1-1c-0.553,0-1,0.448-1,1v15.131
		C22,51.987,22.447,52.435,23,52.435z"/>
	<path fill="#231F20" d="M15,52.435c0.553,0,1-0.448,1-1V36.304c0-0.552-0.447-1-1-1c-0.553,0-1,0.448-1,1v15.131
		C14,51.987,14.447,52.435,15,52.435z"/>
</g>
</svg>
