<?xml version="1.0" encoding="utf-8"?>
<!-- Generator: Adobe Illustrator 17.0.0, SVG Export Plug-In . SVG Version: 6.00 Build 0)  -->
<!DOCTYPE svg PUBLIC "-//W3C//DTD SVG 1.1//EN" "http://www.w3.org/Graphics/SVG/1.1/DTD/svg11.dtd">
<svg version="1.1" xmlns="http://www.w3.org/2000/svg" xmlns:xlink="http://www.w3.org/1999/xlink" x="0px" y="0px" width="60px"
	 height="60px" viewBox="0 0 60 60" enable-background="new 0 0 60 60" xml:space="preserve">
<g id="Layer_1">
	<g>
		<path fill="#231F20" d="M54.32,14.068C54.204,14.023,54.081,14,53.956,14H42v-1c0-4.962-3.686-9-8.217-9h-7.565
			C21.686,4,18,8.038,18,13v1H6.043c-0.125,0-0.248,0.023-0.364,0.068C2.176,15.436,0,18.142,0,21.13V41c0,0.552,0.448,1,1,1h2.521
			H4v13c0,0.552,0.448,1,1,1h50c0.552,0,1-0.448,1-1V42h0.479H59c0.552,0,1-0.448,1-1V21.13C60,18.142,57.824,15.436,54.32,14.068z
			 M20,13c0-3.86,2.789-7,6.217-7h7.565C37.211,6,40,9.14,40,13v1H20V13z M54,54H6V42h16v1c0,0.552,0.448,1,1,1h14
			c0.552,0,1-0.448,1-1v-1h16V54z M36,42H24v-6h12V42z M58,40h-1.521H55H38v-5c0-0.552-0.448-1-1-1H23c-0.552,0-1,0.448-1,1v5H5
			H3.521H2V21.13c0-2.068,1.657-4.067,4.236-5.13H19h22h12.764C56.343,17.064,58,19.062,58,21.13V40z"/>
	</g>
</g>
<g id="nyt_x5F_exporter_x5F_info" display="none">
</g>
</svg>
