<?xml version="1.0" encoding="utf-8"?>
<!-- Generator: Adobe Illustrator 17.0.0, SVG Export Plug-In . SVG Version: 6.00 Build 0)  -->
<!DOCTYPE svg PUBLIC "-//W3C//DTD SVG 1.1//EN" "http://www.w3.org/Graphics/SVG/1.1/DTD/svg11.dtd">
<svg version="1.1" xmlns="http://www.w3.org/2000/svg" xmlns:xlink="http://www.w3.org/1999/xlink" x="0px" y="0px" width="60px"
	 height="60px" viewBox="0 0 60 60" enable-background="new 0 0 60 60" xml:space="preserve">
<g id="Layer_1">
	<g>
		<path fill="#231F20" d="M59,8h-8.826c-0.461,0-0.863,0.316-0.972,0.765L45.996,22H1c-0.318,0-0.618,0.152-0.807,0.409
			c-0.188,0.257-0.243,0.588-0.147,0.892l7.565,24C7.743,47.717,8.129,48,8.565,48h31.133l-0.484,2H12c-2.757,0-5,2.243-5,5
			c0,2.757,2.243,5,5,5c2.757,0,5-2.243,5-5c0-1.13-0.391-2.162-1.026-3h19.051C34.391,52.838,34,53.87,34,55c0,2.757,2.243,5,5,5
			c2.757,0,5-2.243,5-5c0-1.985-1.172-3.688-2.851-4.495l0.745-3.074C41.957,47.299,42,47.156,42,47
			c0-0.002-0.001-0.003-0.001-0.005L50.96,10H59c0.552,0,1-0.448,1-1C60,8.448,59.552,8,59,8z M15,55c0,1.654-1.346,3-3,3
			s-3-1.346-3-3s1.346-3,3-3S15,53.346,15,55z M39,58c-1.654,0-3-1.346-3-3s1.346-3,3-3s3,1.346,3,3S40.654,58,39,58z M9.299,46
			L2.364,24h43.148l-5.329,22H9.299z"/>
		<path fill="#231F20" d="M24.248,19.659c0.007,0.008,0.018,0.011,0.025,0.019c0.067,0.072,0.149,0.125,0.234,0.174
			c0.032,0.019,0.057,0.047,0.091,0.061C24.722,19.968,24.857,20,25,20s0.278-0.032,0.401-0.087
			c0.034-0.015,0.059-0.043,0.091-0.061c0.086-0.05,0.168-0.102,0.234-0.174c0.007-0.008,0.018-0.011,0.025-0.019l7-8
			c0.364-0.416,0.322-1.047-0.094-1.411c-0.416-0.364-1.047-0.32-1.411,0.094L26,16.339V1c0-0.552-0.448-1-1-1s-1,0.448-1,1v15.339
			l-5.248-5.997c-0.364-0.415-0.995-0.458-1.411-0.094c-0.416,0.364-0.458,0.995-0.094,1.411L24.248,19.659z"/>
	</g>
</g>
<g id="nyt_x5F_exporter_x5F_info" display="none">
</g>
</svg>
