<?xml version="1.0" encoding="utf-8"?>
<!-- Generator: Adobe Illustrator 17.0.0, SVG Export Plug-In . SVG Version: 6.00 Build 0)  -->
<!DOCTYPE svg PUBLIC "-//W3C//DTD SVG 1.1//EN" "http://www.w3.org/Graphics/SVG/1.1/DTD/svg11.dtd">
<svg version="1.1" xmlns="http://www.w3.org/2000/svg" xmlns:xlink="http://www.w3.org/1999/xlink" x="0px" y="0px" width="60px"
	 height="60px" viewBox="0 0 60 60" enable-background="new 0 0 60 60" xml:space="preserve">
<g id="Layer_1">
	<g>
		<path fill="#231F20" d="M4.158,32.902C4.794,34.946,6.942,36.292,9.073,36h35.95C45.828,36.208,46,37.195,46,38
			c0,1.005-0.287,1.535-1.117,2H9.826c-0.552,0-1,0.448-1,1c0,0.552,0.448,1,1,1h35.54l0.211-0.105C47.253,41.057,48,39.856,48,38
			c0-2.179-1.004-3.668-2.685-3.983L9,34l-0.156,0.012c-1.156,0.184-2.432-0.598-2.777-1.706l-3.941-12.61
			c-0.263-0.838-0.108-1.765,0.412-2.475c0.524-0.711,1.363-1.135,2.244-1.135h43.165c1.771,0,3.274-1.326,3.494-3.084l0.846-6.772
			C52.305,6.099,52.417,6,52.548,6H59c0.552,0,1-0.448,1-1c0-0.552-0.448-1-1-1h-6.452c-1.137,0-2.102,0.852-2.244,1.981
			l-0.846,6.772c-0.095,0.76-0.744,1.333-1.51,1.333H4.783c-1.514,0-2.954,0.728-3.856,1.95c-0.896,1.224-1.162,2.815-0.709,4.257
			L4.158,32.902z"/>
		<path fill="#231F20" d="M49.023,19.137c-0.546-0.066-1.043,0.334-1.104,0.883l-1.261,11.348c-0.061,0.549,0.335,1.043,0.883,1.104
			c0.038,0.004,0.075,0.006,0.112,0.006c0.503,0,0.936-0.378,0.992-0.89l1.261-11.348C49.968,19.692,49.572,19.197,49.023,19.137z"
			/>
		<path fill="#231F20" d="M43,54c2.757,0,5-2.243,5-5c0-2.757-2.243-5-5-5s-5,2.243-5,5C38,51.757,40.243,54,43,54z M43,46
			c1.654,0,3,1.346,3,3s-1.346,3-3,3s-3-1.346-3-3S41.346,46,43,46z"/>
		<path fill="#231F20" d="M20,49c0-2.757-2.243-5-5-5s-5,2.243-5,5c0,2.757,2.243,5,5,5S20,51.757,20,49z M12,49
			c0-1.654,1.346-3,3-3s3,1.346,3,3s-1.346,3-3,3S12,50.654,12,49z"/>
	</g>
</g>
<g id="nyt_x5F_exporter_x5F_info" display="none">
</g>
</svg>
