<?xml version="1.0" encoding="utf-8"?>
<!-- Generator: Adobe Illustrator 17.0.0, SVG Export Plug-In . SVG Version: 6.00 Build 0)  -->
<!DOCTYPE svg PUBLIC "-//W3C//DTD SVG 1.1//EN" "http://www.w3.org/Graphics/SVG/1.1/DTD/svg11.dtd">
<svg version="1.1" xmlns="http://www.w3.org/2000/svg" xmlns:xlink="http://www.w3.org/1999/xlink" x="0px" y="0px" width="60px"
	 height="60px" viewBox="0 0 60 60" enable-background="new 0 0 60 60" xml:space="preserve">
<g id="Layer_1">
	<g>
		<path fill="#231F20" d="M27.218,42h-1c-0.553,0-1,0.448-1,1c0,0.552,0.447,1,1,1h1c0.553,0,1-0.448,1-1
			C28.218,42.448,27.771,42,27.218,42z"/>
		<path fill="#231F20" d="M33.815,42h-2.199c-0.553,0-1,0.448-1,1c0,0.552,0.447,1,1,1h2.199c0.553,0,1-0.448,1-1
			C34.815,42.448,34.367,42,33.815,42z"/>
		<path fill="#231F20" d="M40.41,42h-2.198c-0.553,0-1,0.448-1,1c0,0.552,0.447,1,1,1h2.198c0.553,0,1-0.448,1-1
			C41.41,42.448,40.963,42,40.41,42z"/>
		<path fill="#231F20" d="M47.007,42h-2.199c-0.553,0-1,0.448-1,1c0,0.552,0.447,1,1,1h2.199c0.553,0,1-0.448,1-1
			C48.007,42.448,47.56,42,47.007,42z"/>
		<path fill="#231F20" d="M53.602,42h-2.198c-0.553,0-1,0.448-1,1c0,0.552,0.447,1,1,1h2.198c0.553,0,1-0.448,1-1
			C54.602,42.448,54.155,42,53.602,42z"/>
		<path fill="#231F20" d="M59,42h-1c-0.553,0-1,0.448-1,1c0,0.552,0.447,1,1,1h1c0.553,0,1-0.448,1-1C60,42.448,59.553,42,59,42z"/>
		<path fill="#231F20" d="M59.417,13.314c-4.098-1.881-8.479-2.836-13.025-2.836c-10.151,0-18.951,7.095-24.432,16.489
			C19.434,21.876,18,16.299,18,11c0-4.962-4.037-9-9-9s-9,4.038-9,9s4.037,9,9,9c3.068,0,5.779-1.546,7.405-3.897
			c0.677,4.428,2.195,8.884,4.4,12.988c-2.364,4.609-3.945,9.651-4.536,14.623C14.63,41.468,11.986,40,9,40c-4.963,0-9,4.038-9,9
			s4.037,9,9,9s9-4.038,9-9c0-0.27-0.017-0.535-0.041-0.799C17.974,48.134,18,48.071,18,48c0-5.599,1.455-11.501,3.988-16.858
			c1.56,2.549,3.383,4.932,5.441,7.036c0.196,0.2,0.455,0.301,0.715,0.301c0.252,0,0.505-0.095,0.699-0.285
			c0.395-0.386,0.401-1.019,0.016-1.414c-1.71-1.748-3.252-3.696-4.604-5.775l19.236,7.878c0.51,0.209,1.095-0.034,1.305-0.546
			c0.209-0.511-0.036-1.095-0.547-1.304l-19.581-8.019l34.704-13.86c0.371-0.148,0.618-0.504,0.629-0.903
			C60.01,13.848,59.78,13.481,59.417,13.314z M9,18c-3.859,0-7-3.14-7-7c0-3.86,3.141-7,7-7c3.859,0,7,3.14,7,7
			C16,14.86,12.859,18,9,18z M9,56c-3.859,0-7-3.14-7-7c0-3.86,3.141-7,7-7c3.859,0,7,3.14,7,7C16,52.86,12.859,56,9,56z
			 M24.185,27.051c5.15-8.374,13.096-14.572,22.207-14.572c3.435,0,6.769,0.582,9.944,1.732L24.185,27.051z"/>
	</g>
</g>
<g id="nyt_x5F_exporter_x5F_info" display="none">
</g>
</svg>
