<?xml version="1.0" encoding="utf-8"?>
<!-- Generator: Adobe Illustrator 17.0.0, SVG Export Plug-In . SVG Version: 6.00 Build 0)  -->
<!DOCTYPE svg PUBLIC "-//W3C//DTD SVG 1.1//EN" "http://www.w3.org/Graphics/SVG/1.1/DTD/svg11.dtd">
<svg version="1.1" xmlns="http://www.w3.org/2000/svg" xmlns:xlink="http://www.w3.org/1999/xlink" x="0px" y="0px" width="60px"
	 height="60px" viewBox="0 0 60 60" enable-background="new 0 0 60 60" xml:space="preserve">
<g id="Layer_1">
	<g>
		<path fill="#231F20" d="M48.11,22.006C48.073,22.002,48.037,22,48,22h-4.001l-0.001-8.447C43.571,5.953,37.422,0,30,0
			c-7.422,0-13.571,5.953-14,13.609V22h-4c-0.037,0-0.073,0.002-0.11,0.006C5.111,22.759,0,28.363,0,35.044V51
			c0,4.878,3.923,9,8.565,9h42.869C56.077,60,60,55.878,60,51V35.044C60,28.363,54.889,22.759,48.11,22.006z M17.998,13.665
			C18.366,7.124,23.638,2,30,2s11.634,5.124,12,11.609V22H17.999L17.998,13.665z M2,51v-3.558C7.604,47.923,12.077,52.396,12.558,58
			H8.565C5.068,58,2,54.729,2,51z M51.435,58h-3.992C47.923,52.396,52.396,47.923,58,47.442V51C58,54.729,54.932,58,51.435,58z
			 M58,45.442C51.294,45.933,45.933,51.294,45.442,58H14.558C14.067,51.294,8.706,45.933,2,45.442V35.044
			C2,29.309,6.226,24.673,12.057,24H16v4.739c0,0.552,0.447,1,1,1c0.553,0,1-0.448,1-1L17.999,24H42v4.739c0,0.552,0.447,1,1,1
			c0.553,0,1-0.448,1-1L43.999,24h3.944C53.774,24.673,58,29.309,58,35.044V45.442z"/>
		<path fill="#231F20" d="M6.044,36c-0.553,0-1,0.448-1,1c0,0.552,0.447,1,1,1h47.912c0.553,0,1-0.448,1-1c0-0.552-0.447-1-1-1
			H6.044z"/>
		<path fill="#231F20" d="M11.087,39.087c-0.553,0-1,0.448-1,1v2.522c0,0.552,0.447,1,1,1c0.553,0,1-0.448,1-1v-2.522
			C12.087,39.535,11.64,39.087,11.087,39.087z"/>
	</g>
</g>
<g id="nyt_x5F_exporter_x5F_info" display="none">
</g>
</svg>
