<?xml version="1.0" encoding="utf-8"?>
<!-- Generator: Adobe Illustrator 17.0.0, SVG Export Plug-In . SVG Version: 6.00 Build 0)  -->
<!DOCTYPE svg PUBLIC "-//W3C//DTD SVG 1.1//EN" "http://www.w3.org/Graphics/SVG/1.1/DTD/svg11.dtd">
<svg version="1.1" xmlns="http://www.w3.org/2000/svg" xmlns:xlink="http://www.w3.org/1999/xlink" x="0px" y="0px" width="60px"
	 height="60px" viewBox="0 0 60 60" enable-background="new 0 0 60 60" xml:space="preserve">
<g id="Layer_1">
	<g>
		<path fill="#231F20" d="M30,25C13.458,25,0,38.458,0,55v1h60v-1C60,38.458,46.542,25,30,25z M2.018,54
			C2.546,39.022,14.896,27,30,27s27.454,12.022,27.982,27H2.018z"/>
		<path fill="#231F20" d="M4.451,31.65c-0.361,0.418-0.315,1.049,0.102,1.411c0.417,0.361,1.049,0.315,1.411-0.102
			C12.014,25.967,20.775,21.957,30,21.957s17.986,4.01,24.036,11.002c0.198,0.229,0.477,0.346,0.757,0.346
			c0.232,0,0.465-0.08,0.654-0.244c0.418-0.361,0.463-0.993,0.102-1.411c-4.591-5.305-10.653-8.984-17.312-10.661
			c1.095-0.918,1.807-2.278,1.807-3.815c0-2.757-2.243-5-5-5c-2.757,0-5,2.243-5,5c0,1.04,0.321,2.006,0.867,2.807
			c-0.303-0.008-0.606-0.025-0.91-0.025c-0.633,0-1.263,0.019-1.891,0.055C28.668,19.204,29,18.228,29,17.174c0-2.757-2.243-5-5-5
			s-5,2.243-5,5c0,1.64,0.804,3.085,2.028,3.997C14.657,22.929,8.873,26.54,4.451,31.65z M35.044,14.174c1.654,0,3,1.346,3,3
			s-1.346,3-3,3s-3-1.346-3-3S33.389,14.174,35.044,14.174z M24,14.174c1.654,0,3,1.346,3,3s-1.346,3-3,3s-3-1.346-3-3
			S22.346,14.174,24,14.174z"/>
	</g>
</g>
<g id="nyt_x5F_exporter_x5F_info" display="none">
</g>
</svg>
