<?xml version="1.0" encoding="utf-8"?>
<!-- Generator: Adobe Illustrator 17.0.0, SVG Export Plug-In . SVG Version: 6.00 Build 0)  -->
<!DOCTYPE svg PUBLIC "-//W3C//DTD SVG 1.1//EN" "http://www.w3.org/Graphics/SVG/1.1/DTD/svg11.dtd">
<svg version="1.1" xmlns="http://www.w3.org/2000/svg" xmlns:xlink="http://www.w3.org/1999/xlink" x="0px" y="0px" width="60px"
	 height="60px" viewBox="0 0 60 60" enable-background="new 0 0 60 60" xml:space="preserve">
<g id="Layer_1">
	<g>
		<path fill="#231F20" d="M15,52h30c8.271,0,15-6.67,15-14.87c0-8.516-4.884-14.576-12-15.094V18c0-0.552-0.448-1-1-1s-1,0.448-1,1
			v6h1c5.475,0,11,4.06,11,13.13C58,44.227,52.169,50,45,50H15C7.831,50,2,44.227,2,37.13C2,28.06,7.525,24,13,24h1v-6
			c0-0.552-0.448-1-1-1s-1,0.448-1,1v4.036C4.884,22.554,0,28.615,0,37.13C0,45.33,6.729,52,15,52z"/>
		<path fill="#231F20" d="M51,19c0.552,0,1-0.448,1-1v-2c0-1.661-1.551-4-5-4h-7.982c0.635-0.838,1.026-1.87,1.026-3
			c0-2.757-2.243-5-5-5c-2.757,0-5,2.243-5,5c0,1.13,0.391,2.162,1.026,3h-3.095C28.609,11.162,29,10.13,29,9c0-2.757-2.243-5-5-5
			s-5,2.243-5,5c0,1.13,0.391,2.162,1.026,3H13c-3.449,0-5,2.339-5,4v2.304c0,0.552,0.448,1,1,1s1-0.448,1-1V16c0-0.422,0.509-2,3-2
			h34c2.491,0,3,1.578,3,2v2C50,18.552,50.448,19,51,19z M32.044,9c0-1.654,1.346-3,3-3s3,1.346,3,3s-1.346,3-3,3
			S32.044,10.654,32.044,9z M21,9c0-1.654,1.346-3,3-3s3,1.346,3,3s-1.346,3-3,3S21,10.654,21,9z"/>
	</g>
</g>
<g id="nyt_x5F_exporter_x5F_info" display="none">
</g>
</svg>
