<?xml version="1.0" encoding="utf-8"?>
<!-- Generator: Adobe Illustrator 17.0.0, SVG Export Plug-In . SVG Version: 6.00 Build 0)  -->
<!DOCTYPE svg PUBLIC "-//W3C//DTD SVG 1.1//EN" "http://www.w3.org/Graphics/SVG/1.1/DTD/svg11.dtd">
<svg version="1.1" xmlns="http://www.w3.org/2000/svg" xmlns:xlink="http://www.w3.org/1999/xlink" x="0px" y="0px" width="60px"
	 height="60px" viewBox="0 0 60 60" enable-background="new 0 0 60 60" xml:space="preserve">
<g id="Layer_1">
	<g>
		<path fill="#231F20" d="M49.387,0.121c-0.371-0.155-0.8-0.074-1.087,0.209l-4.293,4.218L39.707,0.25
			c-0.391-0.391-1.023-0.391-1.414,0L34,4.543L29.707,0.25c-0.391-0.391-1.023-0.391-1.414,0L24,4.543L19.707,0.25
			c-0.391-0.391-1.023-0.391-1.414,0l-4.299,4.299L9.701,0.33C9.414,0.047,8.984-0.034,8.613,0.121C8.242,0.277,8,0.641,8,1.044v58
			c0,0.404,0.244,0.769,0.617,0.924c0.374,0.155,0.803,0.069,1.09-0.217l4.337-4.336l4.25,4.25c0.386,0.387,1.011,0.392,1.402,0.012
			l4.417-4.268l4.175,4.249c0.187,0.19,0.442,0.298,0.709,0.299c0.286,0.002,0.523-0.104,0.711-0.293L34,55.371l4.293,4.293
			c0.391,0.391,1.023,0.391,1.414,0l4.287-4.287l4.293,4.368c0.192,0.195,0.45,0.299,0.713,0.299c0.127,0,0.256-0.025,0.379-0.075
			C49.754,59.815,50,59.45,50,59.044v-58C50,0.641,49.758,0.277,49.387,0.121z M48,56.6l-3.287-3.344
			c-0.187-0.19-0.442-0.298-0.709-0.299c-0.238-0.018-0.523,0.104-0.711,0.293L39,57.543l-4.293-4.293
			c-0.391-0.391-1.023-0.391-1.414,0l-4.287,4.287l-4.162-4.237c-0.385-0.392-1.014-0.399-1.408-0.018l-4.423,4.273l-4.262-4.261
			C14.555,53.098,14.299,53,14.044,53c-0.256,0-0.512,0.098-0.707,0.293L10,56.629V3.428l3.299,3.242
			c0.391,0.384,1.019,0.382,1.408-0.006L19,2.371l4.293,4.293c0.391,0.391,1.023,0.391,1.414,0L29,2.371l4.293,4.293
			c0.391,0.391,1.023,0.391,1.414,0L39,2.371l4.293,4.293c0.389,0.389,1.017,0.39,1.408,0.006L48,3.428V56.6z"/>
		<path fill="#231F20" d="M31.696,16h-15.13c-0.552,0-1,0.448-1,1c0,0.552,0.448,1,1,1h15.13c0.552,0,1-0.448,1-1
			C32.696,16.448,32.248,16,31.696,16z"/>
		<path fill="#231F20" d="M16.565,26h10.087c0.552,0,1-0.448,1-1c0-0.552-0.448-1-1-1H16.565c-0.552,0-1,0.448-1,1
			C15.565,25.552,16.013,26,16.565,26z"/>
		<path fill="#231F20" d="M29.174,32H16.565c-0.552,0-1,0.448-1,1c0,0.552,0.448,1,1,1h12.608c0.552,0,1-0.448,1-1
			C30.174,32.448,29.726,32,29.174,32z"/>
		<path fill="#231F20" d="M24.13,40h-7.565c-0.552,0-1,0.448-1,1c0,0.552,0.448,1,1,1h7.565c0.552,0,1-0.448,1-1
			C25.13,40.448,24.683,40,24.13,40z"/>
		<path fill="#231F20" d="M41.783,16h-2.522c-0.552,0-1,0.448-1,1c0,0.552,0.448,1,1,1h2.522c0.552,0,1-0.448,1-1
			C42.783,16.448,42.335,16,41.783,16z"/>
		<path fill="#231F20" d="M41.783,24h-2.522c-0.552,0-1,0.448-1,1c0,0.552,0.448,1,1,1h2.522c0.552,0,1-0.448,1-1
			C42.783,24.448,42.335,24,41.783,24z"/>
		<path fill="#231F20" d="M41.783,32h-2.522c-0.552,0-1,0.448-1,1c0,0.552,0.448,1,1,1h2.522c0.552,0,1-0.448,1-1
			C42.783,32.448,42.335,32,41.783,32z"/>
		<path fill="#231F20" d="M41.783,40h-2.522c-0.552,0-1,0.448-1,1c0,0.552,0.448,1,1,1h2.522c0.552,0,1-0.448,1-1
			C42.783,40.448,42.335,40,41.783,40z"/>
	</g>
</g>
<g id="nyt_x5F_exporter_x5F_info" display="none">
</g>
</svg>
