<?xml version="1.0" encoding="utf-8"?>
<!-- Generator: Adobe Illustrator 17.0.0, SVG Export Plug-In . SVG Version: 6.00 Build 0)  -->
<!DOCTYPE svg PUBLIC "-//W3C//DTD SVG 1.1//EN" "http://www.w3.org/Graphics/SVG/1.1/DTD/svg11.dtd">
<svg version="1.1" xmlns="http://www.w3.org/2000/svg" xmlns:xlink="http://www.w3.org/1999/xlink" x="0px" y="0px" width="60px"
	 height="60px" viewBox="0 0 60 60" enable-background="new 0 0 60 60" xml:space="preserve">
<g id="Layer_1">
	<g>
		<path fill="#231F20" d="M30.739,14h5.043c0.552,0,1-0.448,1-1c0-0.552-0.448-1-1-1h-5.043c-0.552,0-1,0.448-1,1
			C29.739,13.552,30.187,14,30.739,14z"/>
		<path fill="#231F20" d="M47.13,18H33.26c-0.552,0-1,0.448-1,1c0,0.552,0.448,1,1,1h13.87c0.552,0,1-0.448,1-1
			C48.13,18.448,47.682,18,47.13,18z"/>
		<path fill="#231F20" d="M29.477,24h16.392c0.552,0,1-0.448,1-1c0-0.552-0.448-1-1-1H29.477c-0.552,0-1,0.448-1,1
			C28.477,23.552,28.925,24,29.477,24z"/>
		<path fill="#231F20" d="M47.13,26H29.477c-0.552,0-1,0.448-1,1c0,0.552,0.448,1,1,1H47.13c0.552,0,1-0.448,1-1
			C48.13,26.448,47.682,26,47.13,26z"/>
		<path fill="#231F20" d="M44.608,32c0.552,0,1-0.448,1-1c0-0.552-0.448-1-1-1h-15.13c-0.552,0-1,0.448-1,1c0,0.552,0.448,1,1,1
			H44.608z"/>
		<path fill="#231F20" d="M45.869,34H28.217c-0.552,0-1,0.448-1,1c0,0.552,0.448,1,1,1h17.652c0.552,0,1-0.448,1-1
			C46.869,34.448,46.421,34,45.869,34z"/>
		<path fill="#231F20" d="M57.477,2h-32c-0.791,0-1.495,0.3-2.035,0.868c-1.381,1.451-1.284,4.258-1.27,4.528
			c0.001,0.211,0.074,20.849-2.52,34.604H7.477c-1.007,0-1.825,0.321-2.433,0.956c-1.396,1.456-1.282,4.188-1.16,7.081
			c0.114,2.722,0.244,5.808-1.043,7.15C2.316,57.734,1.544,58,0.477,58v2h31c3.16,0,4.617-1.738,5.309-4h10.691
			c1.001,0,1.919-0.427,2.729-1.269c5.378-5.587,5.569-31.619,5.395-42.731h4.813l0.061-0.935c0.07-1.069,0.33-6.499-1.4-8.346
			C58.635,2.249,58.082,2,57.477,2z M31.477,58H4.75c1.386-2.004,1.257-5.071,1.132-8.047c-0.098-2.347-0.2-4.773,0.605-5.613
			C6.627,44.194,6.882,44,7.477,44h13h0.819h14.979c-0.737,1.577-0.786,3.855-0.83,5.975C35.344,54.968,35.025,58,31.477,58z
			 M37.446,50.016C37.53,45.927,37.758,44,39.477,44c1.664,0,1.941,0.963,2.032,4.274c0.049,1.786,0.121,4.097,1.292,5.726h-5.592
			C37.388,52.662,37.42,51.271,37.446,50.016z M48.766,53.344C48.341,53.786,47.92,54,47.477,54c-3.626,0-3.871-2.197-3.969-5.781
			C43.437,45.595,43.338,42,39.477,42H21.686c2.56-13.944,2.488-34.404,2.486-34.658c-0.036-0.726,0.092-2.437,0.719-3.095
			C25.056,4.074,25.231,4,25.477,4h28.738c-0.544,1.01-0.738,2.194-0.738,3.038C53.9,18.119,53.875,48.037,48.766,53.344z
			 M58.521,10h-2.956c-0.038-1.679-0.077-2.755-0.087-2.997C55.479,6.88,55.519,4,57.477,4c0.022,0,0.058,0,0.139,0.087
			C58.352,4.872,58.575,7.75,58.521,10z"/>
	</g>
</g>
<g id="nyt_x5F_exporter_x5F_info" display="none">
</g>
</svg>
