<?xml version="1.0" encoding="utf-8"?>
<!-- Generator: Adobe Illustrator 17.0.0, SVG Export Plug-In . SVG Version: 6.00 Build 0)  -->
<!DOCTYPE svg PUBLIC "-//W3C//DTD SVG 1.1//EN" "http://www.w3.org/Graphics/SVG/1.1/DTD/svg11.dtd">
<svg version="1.1" xmlns="http://www.w3.org/2000/svg" xmlns:xlink="http://www.w3.org/1999/xlink" x="0px" y="0px" width="60px"
	 height="60px" viewBox="0 0 60 60" enable-background="new 0 0 60 60" xml:space="preserve">
<g id="Layer_1">
	<g>
		<path fill="#231F20" d="M57.975,0H24.997L24.99,0.993C24.988,1.267,24.773,28.006,22.165,42H10.99
			c-3.867,0-3.954,4.237-4.031,7.975C6.856,54.968,6.538,58,2.99,58v2h31c3.16,0,4.617-1.738,5.309-4h9.691
			c0.925,0,1.783-0.396,2.552-1.176c7.079-7.188,6.477-51.938,6.448-53.839L57.975,0z M33.99,58H7.354
			c1.483-2.059,1.55-5.33,1.604-7.984C9.042,45.927,9.27,44,10.99,44h12h0.819h14.979c-0.737,1.577-0.786,3.855-0.83,5.975
			C37.856,54.968,37.538,58,33.99,58z M39.958,50.016C40.042,45.927,40.27,44,41.99,44c0.851,0,1.108,0.273,1.193,0.362
			c0.582,0.616,0.491,2.25,0.403,3.829c-0.111,1.988-0.226,4.207,0.841,5.81H39.72C39.9,52.662,39.932,51.271,39.958,50.016z
			 M50.117,53.42C49.733,53.811,49.364,54,48.99,54c-1.283,0-2.163-0.271-2.69-0.829c-0.935-0.988-0.824-2.961-0.717-4.869
			c0.117-2.094,0.228-4.072-0.947-5.314C44.016,42.333,43.125,42,41.99,42H24.198c2.293-12.698,2.714-35.036,2.781-40h29.024
			C56.148,15.413,55.375,48.081,50.117,53.42z"/>
		<path fill="#231F20" d="M33.25,10h5.043c0.552,0,1-0.448,1-1c0-0.552-0.448-1-1-1H33.25c-0.552,0-1,0.448-1,1
			C32.25,9.552,32.698,10,33.25,10z"/>
		<path fill="#231F20" d="M49.642,12h-13.87c-0.552,0-1,0.448-1,1c0,0.552,0.448,1,1,1h13.87c0.552,0,1-0.448,1-1
			C50.642,12.448,50.194,12,49.642,12z"/>
		<path fill="#231F20" d="M31.99,20h16.391c0.552,0,1-0.448,1-1c0-0.552-0.448-1-1-1H31.99c-0.552,0-1,0.448-1,1
			C30.99,19.552,31.438,20,31.99,20z"/>
		<path fill="#231F20" d="M49.642,22H31.99c-0.552,0-1,0.448-1,1c0,0.552,0.448,1,1,1h17.652c0.552,0,1-0.448,1-1
			C50.642,22.448,50.194,22,49.642,22z"/>
		<path fill="#231F20" d="M47.12,28c0.552,0,1-0.448,1-1c0-0.552-0.448-1-1-1H31.99c-0.552,0-1,0.448-1,1c0,0.552,0.448,1,1,1H47.12
			z"/>
		<path fill="#231F20" d="M30.729,32h17.652c0.552,0,1-0.448,1-1c0-0.552-0.448-1-1-1H30.729c-0.552,0-1,0.448-1,1
			C29.729,31.552,30.177,32,30.729,32z"/>
		<path fill="#231F20" d="M49.642,34H29.468c-0.552,0-1,0.448-1,1c0,0.552,0.448,1,1,1h20.174c0.552,0,1-0.448,1-1
			C50.642,34.448,50.194,34,49.642,34z"/>
	</g>
</g>
<g id="nyt_x5F_exporter_x5F_info" display="none">
</g>
</svg>
