<?xml version="1.0" encoding="utf-8"?>
<!-- Generator: Adobe Illustrator 17.0.0, SVG Export Plug-In . SVG Version: 6.00 Build 0)  -->
<!DOCTYPE svg PUBLIC "-//W3C//DTD SVG 1.1//EN" "http://www.w3.org/Graphics/SVG/1.1/DTD/svg11.dtd">
<svg version="1.1" xmlns="http://www.w3.org/2000/svg" xmlns:xlink="http://www.w3.org/1999/xlink" x="0px" y="0px" width="60px"
	 height="60px" viewBox="0 0 60 60" enable-background="new 0 0 60 60" xml:space="preserve">
<g id="Layer_1">
	<g>
		<path fill="#231F20" d="M59,8h-8.826c-0.461,0-0.863,0.316-0.972,0.765l-3.098,12.79l-7.767-9.41
			c-0.177-0.215-0.436-0.346-0.715-0.362c-0.283-0.017-0.551,0.086-0.751,0.28L34.868,14H23c-0.552,0-1,0.448-1,1v7h-6.355
			L8.215,5.587C8.104,5.343,7.9,5.153,7.648,5.061c-0.252-0.093-0.53-0.079-0.773,0.036l-6.304,3C0.085,8.327-0.131,8.9,0.081,9.394
			L5.484,22H1c-0.318,0-0.618,0.152-0.807,0.409c-0.188,0.257-0.243,0.588-0.147,0.892l7.565,24C7.743,47.717,8.129,48,8.565,48
			h31.133l-0.484,2H12c-2.757,0-5,2.243-5,5c0,2.757,2.243,5,5,5c2.757,0,5-2.243,5-5c0-1.13-0.391-2.162-1.026-3h19.051
			C34.391,52.838,34,53.87,34,55c0,2.757,2.243,5,5,5c2.757,0,5-2.243,5-5c0-1.985-1.172-3.688-2.851-4.495l0.745-3.074
			C41.957,47.299,42,47.156,42,47c0-0.002-0.001-0.003-0.001-0.005L50.96,10H59c0.552,0,1-0.448,1-1C60,8.448,59.552,8,59,8z M15,55
			c0,1.654-1.346,3-3,3s-3-1.346-3-3s1.346-3,3-3S15,53.346,15,55z M39,58c-1.654,0-3-1.346-3-3s1.346-3,3-3s3,1.346,3,3
			S40.654,58,39,58z M37.483,14.253L43.878,22H29.472L37.483,14.253z M24,16h8.8l-6.204,6H24V16z M2.298,9.489l4.516-2.148
			L13.449,22h-5.79L2.298,9.489z M9.299,46L2.364,24h4.633C6.998,24,6.999,24.001,7,24.001C7.001,24.001,7.002,24,7.003,24h38.508
			l-5.329,22H9.299z"/>
	</g>
</g>
<g id="nyt_x5F_exporter_x5F_info" display="none">
</g>
</svg>
