<?xml version="1.0" encoding="utf-8"?>
<!-- Generator: Adobe Illustrator 17.0.0, SVG Export Plug-In . SVG Version: 6.00 Build 0)  -->
<!DOCTYPE svg PUBLIC "-//W3C//DTD SVG 1.1//EN" "http://www.w3.org/Graphics/SVG/1.1/DTD/svg11.dtd">
<svg version="1.1" xmlns="http://www.w3.org/2000/svg" xmlns:xlink="http://www.w3.org/1999/xlink" x="0px" y="0px" width="60px"
	 height="60px" viewBox="0 0 60 60" enable-background="new 0 0 60 60" xml:space="preserve">
<g id="Layer_1">
	<g>
		<path fill="#231F20" d="M49.193,60c0.552,0,1-0.448,1-1V23c0-0.552-0.448-1-1-1h-6.652c-0.552,0-1,0.448-1,1c0,0.552,0.448,1,1,1
			h5.652v34h-44V24h5.565c0.552,0,1-0.448,1-1c0-0.552-0.448-1-1-1H3.193c-0.552,0-1,0.448-1,1v36c0,0.552,0.448,1,1,1H49.193z"/>
		<path fill="#231F20" d="M37.193,27c0.552,0,1-0.448,1-1l-0.001-13.604c0.157-3.231-0.986-6.301-3.219-8.645
			C32.702,1.367,29.486,0,26.149,0c-3.36,0-6.585,1.381-8.847,3.788c-2.205,2.347-3.309,5.409-3.11,8.56V26c0,0.552,0.448,1,1,1
			s1-0.448,1-1l-0.002-13.715c-0.166-2.656,0.747-5.188,2.569-7.128C20.646,3.151,23.339,2,26.149,2c2.792,0,5.48,1.141,7.375,3.13
			c1.851,1.943,2.799,4.489,2.668,7.217V26C36.193,26.552,36.641,27,37.193,27z"/>
		<path fill="#231F20" d="M32.193,24c0.552,0,1-0.448,1-1c0-0.552-0.448-1-1-1h-12c-0.552,0-1,0.448-1,1c0,0.552,0.448,1,1,1H32.193
			z"/>
		<path fill="#231F20" d="M16.193,50h20V32h-20V50z M18.193,34h16v14h-16V34z"/>
		<path fill="#231F20" d="M48.193,20c0.278,0,0.543-0.116,0.732-0.319l8.614-9.264c0.366-0.394,0.355-1.008-0.025-1.388l-5.349-5.35
			c-0.196-0.197-0.471-0.305-0.745-0.292c-0.278,0.011-0.539,0.137-0.721,0.348l-8.265,9.614c-0.156,0.181-0.242,0.413-0.242,0.652
			v5c0,0.552,0.448,1,1,1H48.193z M44.193,14.371l7.32-8.515l3.905,3.906L47.757,18h-3.564V14.371z"/>
	</g>
</g>
<g id="nyt_x5F_exporter_x5F_info" display="none">
</g>
</svg>
