<?xml version="1.0" encoding="utf-8"?>
<!-- Generator: Adobe Illustrator 17.0.0, SVG Export Plug-In . SVG Version: 6.00 Build 0)  -->
<!DOCTYPE svg PUBLIC "-//W3C//DTD SVG 1.1//EN" "http://www.w3.org/Graphics/SVG/1.1/DTD/svg11.dtd">
<svg version="1.1" xmlns="http://www.w3.org/2000/svg" xmlns:xlink="http://www.w3.org/1999/xlink" x="0px" y="0px" width="60px"
	 height="60px" viewBox="0 0 60 60" enable-background="new 0 0 60 60" xml:space="preserve">
<g id="Layer_1">
	<g>
		<path fill="#231F20" d="M51,20H3c-0.552,0-1,0.448-1,1v38c0,0.552,0.448,1,1,1h48c0.552,0,1-0.448,1-1V21
			C52,20.448,51.552,20,51,20z M50,58H4V22h46V58z"/>
		<path fill="#231F20" d="M37,17.13c0.552,0,1-0.448,1-1v-3.783C38,5.654,32.204,0,25.343,0C18.771,0,14,5.193,14,12.348v3.783
			c0,0.552,0.448,1,1,1s1-0.448,1-1v-3.783C16,6.352,19.929,2,25.343,2C31.12,2,36,6.739,36,12.348v3.783
			C36,16.683,36.448,17.13,37,17.13z"/>
		<path fill="#231F20" d="M53.358,2.418c-0.379-0.38-0.991-0.392-1.386-0.027l-9.651,8.917C42.117,11.497,42,11.764,42,12.043V17
			c0,0.552,0.448,1,1,1h6.085c0.257,0,0.505-0.099,0.691-0.277l8.915-8.524C58.886,9.012,58.997,8.756,59,8.487
			c0.003-0.269-0.103-0.528-0.293-0.718L53.358,2.418z M48.684,16H44v-3.52l8.623-7.968L56.57,8.46L48.684,16z"/>
	</g>
</g>
<g id="nyt_x5F_exporter_x5F_info" display="none">
</g>
</svg>
