<?xml version="1.0" encoding="utf-8"?>
<!-- Generator: Adobe Illustrator 17.0.0, SVG Export Plug-In . SVG Version: 6.00 Build 0)  -->
<!DOCTYPE svg PUBLIC "-//W3C//DTD SVG 1.1//EN" "http://www.w3.org/Graphics/SVG/1.1/DTD/svg11.dtd">
<svg version="1.1" xmlns="http://www.w3.org/2000/svg" xmlns:xlink="http://www.w3.org/1999/xlink" x="0px" y="0px" width="60px"
	 height="60px" viewBox="0 0 60 60" enable-background="new 0 0 60 60" xml:space="preserve">
<g id="Layer_1">
	<g>
		<path fill="#231F20" d="M48,6c0-3.364-2.636-6-6-6h-8c-3.364,0-6,2.636-6,6v4.087h-8V6c0-2.243,1.757-4,4-4h2c0.552,0,1-0.448,1-1
			c0-0.552-0.448-1-1-1h-2c-3.364,0-6,2.636-6,6v4.087H0V60h18.652H20h40V10.087H48V6z M30,6c0-2.243,1.757-4,4-4h8
			c2.243,0,4,1.757,4,4v4.087H30V6z M2,12.087h6v37.499l-3.707,3.707c-0.391,0.391-0.391,1.023,0,1.414
			c0.391,0.391,1.023,0.391,1.414,0L9,51.414l3.293,3.293C12.488,54.902,12.744,55,13,55s0.512-0.098,0.707-0.293
			c0.391-0.391,0.391-1.023,0-1.414L10,49.586V12.087h8V58H2V12.087z M58,58H20V12.087h38V58z"/>
	</g>
</g>
<g id="nyt_x5F_exporter_x5F_info" display="none">
</g>
</svg>
