<?xml version="1.0" encoding="utf-8"?>
<!-- Generator: Adobe Illustrator 17.0.0, SVG Export Plug-In . SVG Version: 6.00 Build 0)  -->
<!DOCTYPE svg PUBLIC "-//W3C//DTD SVG 1.1//EN" "http://www.w3.org/Graphics/SVG/1.1/DTD/svg11.dtd">
<svg version="1.1" xmlns="http://www.w3.org/2000/svg" xmlns:xlink="http://www.w3.org/1999/xlink" x="0px" y="0px" width="60px"
	 height="60px" viewBox="0 0 60 60" enable-background="new 0 0 60 60" xml:space="preserve">
<g id="Layer_1">
	<g>
		<path fill="#231F20" d="M30,0C13.458,0,0,13.458,0,30s13.458,30,30,30s30-13.458,30-30S46.542,0,30,0z M30,58
			C14.56,58,2,45.44,2,30C2,14.561,14.56,2,30,2s28,12.561,28,28C58,45.44,45.44,58,30,58z"/>
		<path fill="#231F20" d="M30,7.565C17.63,7.565,7.565,17.629,7.565,30S17.63,52.435,30,52.435c12.37,0,22.435-10.064,22.435-22.435
			S42.37,7.565,30,7.565z M30,50.435C18.732,50.435,9.565,41.268,9.565,30C9.565,18.732,18.732,9.565,30,9.565
			c11.268,0,20.435,9.167,20.435,20.435C50.435,41.268,41.268,50.435,30,50.435z"/>
		<path fill="#231F20" d="M39.292,17.103C37.481,15.473,34.381,14.5,31,14.5c-2.437,0-5.395,0.37-8.115,1.014L22.5,15.604V43.5h6
			V32.552c0.399,0.021,0.95,0.013,1.521,0c0.323-0.007,0.657-0.014,0.988-0.014c3.641,0,6.692-1.116,8.589-3.137
			c1.486-1.529,2.239-3.615,2.239-6.199C41.838,20.729,40.934,18.562,39.292,17.103z M28.5,18.451c0.322-0.012,0.784,0,1.304,0.017
			c0.479,0.015,1.021,0.031,1.61,0.031c2.698,0,5.914,0.851,5.914,4.906c0,3.375-2.303,5.31-6.318,5.31
			c-1.075,0-1.968-0.045-2.51-0.124V18.451z"/>
	</g>
</g>
<g id="nyt_x5F_exporter_x5F_info" display="none">
</g>
</svg>
