<?xml version="1.0" encoding="utf-8"?>
<!-- Generator: Adobe Illustrator 17.0.0, SVG Export Plug-In . SVG Version: 6.00 Build 0)  -->
<!DOCTYPE svg PUBLIC "-//W3C//DTD SVG 1.1//EN" "http://www.w3.org/Graphics/SVG/1.1/DTD/svg11.dtd">
<svg version="1.1" xmlns="http://www.w3.org/2000/svg" xmlns:xlink="http://www.w3.org/1999/xlink" x="0px" y="0px" width="60px"
	 height="60px" viewBox="0 0 60 60" enable-background="new 0 0 60 60" xml:space="preserve">
<g id="Layer_1">
	<g>
		<path fill="#231F20" d="M59,16H1c-0.553,0-1,0.448-1,1c0,0.552,0.447,1,1,1h58c0.553,0,1-0.448,1-1C60,16.448,59.553,16,59,16z"/>
		<path fill="#231F20" d="M59,42H1c-0.553,0-1,0.448-1,1c0,0.552,0.447,1,1,1h58c0.553,0,1-0.448,1-1C60,42.448,59.553,42,59,42z"/>
		<path fill="#231F20" d="M12,35v-7.149l6.219,7.774C18.413,35.867,18.702,36,19,36c0.11,0,0.223-0.019,0.331-0.056
			C19.731,35.803,20,35.425,20,35V25c0-0.552-0.447-1-1-1c-0.553,0-1,0.448-1,1v7.149l-6.219-7.774
			c-0.267-0.332-0.713-0.459-1.112-0.319C10.269,24.197,10,24.575,10,25v10c0,0.552,0.447,1,1,1C11.553,36,12,35.552,12,35z"/>
		<path fill="#231F20" d="M30,26c0.553,0,1-0.448,1-1c0-0.552-0.447-1-1-1h-7c-0.553,0-1,0.448-1,1v10c0,0.552,0.447,1,1,1h7
			c0.553,0,1-0.448,1-1c0-0.552-0.447-1-1-1h-6v-3h4c0.553,0,1-0.448,1-1c0-0.552-0.447-1-1-1h-4v-3H30z"/>
		<path fill="#231F20" d="M37.478,36.087c0.417,0,0.79-0.259,0.937-0.649l2.846-7.59l2.846,7.59c0.146,0.39,0.52,0.649,0.937,0.649
			c0.417,0,0.79-0.259,0.936-0.649l3.783-10.087c0.193-0.517-0.068-1.093-0.585-1.288c-0.518-0.193-1.094,0.068-1.288,0.585
			l-2.847,7.59l-2.846-7.59C42.051,24.259,41.678,24,41.261,24c-0.417,0-0.79,0.259-0.937,0.649l-2.846,7.59l-2.847-7.59
			c-0.194-0.518-0.771-0.778-1.288-0.585c-0.517,0.194-0.778,0.77-0.585,1.288l3.783,10.087
			C36.688,35.829,37.061,36.087,37.478,36.087z"/>
	</g>
</g>
<g id="nyt_x5F_exporter_x5F_info" display="none">
</g>
</svg>
