<?xml version="1.0" encoding="utf-8"?>
<!-- Generator: Adobe Illustrator 17.0.0, SVG Export Plug-In . SVG Version: 6.00 Build 0)  -->
<!DOCTYPE svg PUBLIC "-//W3C//DTD SVG 1.1//EN" "http://www.w3.org/Graphics/SVG/1.1/DTD/svg11.dtd">
<svg version="1.1" xmlns="http://www.w3.org/2000/svg" xmlns:xlink="http://www.w3.org/1999/xlink" x="0px" y="0px" width="60px"
	 height="60px" viewBox="0 0 60 60" enable-background="new 0 0 60 60" xml:space="preserve">
<g id="Layer_1">
	<g>
		<path fill="#231F20" d="M30.943,13.277c-0.141-0.4-0.519-0.668-0.943-0.668s-0.803,0.268-0.943,0.668L25.291,24H15
			c-0.418,0-0.791,0.26-0.938,0.651c-0.146,0.392-0.032,0.832,0.283,1.105l8.189,7.083l-3.57,10.713
			c-0.139,0.415,0.009,0.872,0.363,1.128c0.356,0.256,0.837,0.252,1.185-0.011L30,37.554l9.487,7.115c0.178,0.133,0.389,0.2,0.6,0.2
			c0.205,0,0.41-0.063,0.585-0.189c0.354-0.255,0.502-0.712,0.363-1.128l-3.57-10.713l8.19-7.083
			c0.315-0.273,0.429-0.714,0.283-1.105C45.791,24.26,45.418,24,45,24H34.709L30.943,13.277z M35.65,31.765
			c-0.307,0.265-0.423,0.688-0.294,1.073l2.77,8.311L30.6,35.504c-0.178-0.133-0.389-0.2-0.6-0.2c-0.211,0-0.422,0.067-0.6,0.2
			l-7.526,5.645l2.77-8.311c0.129-0.384,0.013-0.808-0.294-1.073L17.685,26H26c0.425,0,0.803-0.268,0.943-0.668L30,16.627
			l3.057,8.705C33.197,25.732,33.575,26,34,26h8.315L35.65,31.765z"/>
		<path fill="#231F20" d="M30,0C13.458,0,0,13.458,0,30s13.458,30,30,30s30-13.458,30-30S46.542,0,30,0z M30,58
			C14.56,58,2,45.44,2,30C2,14.561,14.56,2,30,2c15.439,0,28,12.561,28,28C58,45.44,45.439,58,30,58z"/>
		<path fill="#231F20" d="M30,7.565C17.63,7.565,7.565,17.629,7.565,30S17.63,52.435,30,52.435c12.37,0,22.435-10.064,22.435-22.435
			S42.37,7.565,30,7.565z M30,50.435C18.732,50.435,9.565,41.268,9.565,30C9.565,18.732,18.732,9.565,30,9.565
			c11.268,0,20.435,9.167,20.435,20.435C50.435,41.268,41.268,50.435,30,50.435z"/>
	</g>
</g>
<g id="nyt_x5F_exporter_x5F_info" display="none">
</g>
</svg>
