<?xml version="1.0" encoding="utf-8"?>
<!-- Generator: Adobe Illustrator 17.0.0, SVG Export Plug-In . SVG Version: 6.00 Build 0)  -->
<!DOCTYPE svg PUBLIC "-//W3C//DTD SVG 1.1//EN" "http://www.w3.org/Graphics/SVG/1.1/DTD/svg11.dtd">
<svg version="1.1" xmlns="http://www.w3.org/2000/svg" xmlns:xlink="http://www.w3.org/1999/xlink" x="0px" y="0px" width="60px"
	 height="60px" viewBox="0 0 60 60" enable-background="new 0 0 60 60" xml:space="preserve">
<g id="Layer_1">
	<g>
		<path fill="#231F20" d="M45,55c0-2.757-2.243-5-5-5c-2.757,0-5,2.243-5,5c0,2.757,2.243,5,5,5C42.757,60,45,57.757,45,55z M37,55
			c0-1.654,1.346-3,3-3s3,1.346,3,3s-1.346,3-3,3S37,56.654,37,55z"/>
		<path fill="#231F20" d="M11,60c2.757,0,5-2.243,5-5c0-2.757-2.243-5-5-5c-2.757,0-5,2.243-5,5C6,57.757,8.243,60,11,60z M11,52
			c1.654,0,3,1.346,3,3s-1.346,3-3,3s-3-1.346-3-3S9.346,52,11,52z"/>
		<path fill="#231F20" d="M59,8h-3.782c-0.501,0-0.926,0.372-0.991,0.869L49.298,46H1c-0.553,0-1,0.448-1,1c0,0.552,0.447,1,1,1
			h49.174c0.501,0,0.926-0.372,0.991-0.869L56.094,10H59c0.553,0,1-0.448,1-1C60,8.448,59.553,8,59,8z"/>
		<path fill="#231F20" d="M24.266,36.678c0.004,0.005,0.011,0.006,0.015,0.011c0.072,0.075,0.16,0.13,0.252,0.18
			c0.026,0.014,0.045,0.037,0.072,0.048C24.726,36.97,24.859,37,25,37s0.274-0.03,0.396-0.083c0.027-0.011,0.046-0.034,0.071-0.048
			c0.092-0.05,0.181-0.105,0.253-0.18c0.004-0.004,0.011-0.006,0.015-0.01l12-13c0.375-0.406,0.35-1.039-0.056-1.413
			c-0.405-0.374-1.039-0.349-1.413,0.057L26,33.443V1c0-0.552-0.447-1-1-1c-0.553,0-1,0.448-1,1v32.443L13.734,22.322
			c-0.374-0.406-1.008-0.43-1.413-0.057c-0.405,0.375-0.431,1.007-0.056,1.413L24.266,36.678z"/>
	</g>
</g>
<g id="nyt_x5F_exporter_x5F_info" display="none">
</g>
</svg>
