<?xml version="1.0" encoding="utf-8"?>
<!-- Generator: Adobe Illustrator 17.0.0, SVG Export Plug-In . SVG Version: 6.00 Build 0)  -->
<!DOCTYPE svg PUBLIC "-//W3C//DTD SVG 1.1//EN" "http://www.w3.org/Graphics/SVG/1.1/DTD/svg11.dtd">
<svg version="1.1" xmlns="http://www.w3.org/2000/svg" xmlns:xlink="http://www.w3.org/1999/xlink" x="0px" y="0px" width="60px"
	 height="60px" viewBox="0 0 60 60" enable-background="new 0 0 60 60" xml:space="preserve">
<g id="Layer_1">
	<g>
		<path fill="#231F20" d="M45,51c0-2.757-2.243-5-5-5c-2.757,0-5,2.243-5,5c0,2.757,2.243,5,5,5C42.757,56,45,53.757,45,51z M37,51
			c0-1.654,1.346-3,3-3s3,1.346,3,3s-1.346,3-3,3S37,52.654,37,51z"/>
		<path fill="#231F20" d="M16,51c0-2.757-2.243-5-5-5c-2.757,0-5,2.243-5,5c0,2.757,2.243,5,5,5C13.757,56,16,53.757,16,51z M8,51
			c0-1.654,1.346-3,3-3s3,1.346,3,3s-1.346,3-3,3S8,52.654,8,51z"/>
		<path fill="#231F20" d="M59,4h-3.782c-0.501,0-0.926,0.372-0.991,0.869L49.298,42H1c-0.553,0-1,0.448-1,1c0,0.552,0.447,1,1,1
			h49.174c0.501,0,0.926-0.372,0.991-0.869L56.094,6H59c0.553,0,1-0.448,1-1C60,4.448,59.553,4,59,4z"/>
	</g>
</g>
<g id="nyt_x5F_exporter_x5F_info" display="none">
</g>
</svg>
