<?xml version="1.0" encoding="utf-8"?>
<!-- Generator: Adobe Illustrator 17.0.0, SVG Export Plug-In . SVG Version: 6.00 Build 0)  -->
<!DOCTYPE svg PUBLIC "-//W3C//DTD SVG 1.1//EN" "http://www.w3.org/Graphics/SVG/1.1/DTD/svg11.dtd">
<svg version="1.1" xmlns="http://www.w3.org/2000/svg" xmlns:xlink="http://www.w3.org/1999/xlink" x="0px" y="0px" width="60px"
	 height="60px" viewBox="0 0 60 60" enable-background="new 0 0 60 60" xml:space="preserve">
<g id="Layer_1">
	<g>
		<path fill="#231F20" d="M45,55c0-2.757-2.243-5-5-5c-2.757,0-5,2.243-5,5c0,2.757,2.243,5,5,5C42.757,60,45,57.757,45,55z M37,55
			c0-1.654,1.346-3,3-3s3,1.346,3,3s-1.346,3-3,3S37,56.654,37,55z"/>
		<path fill="#231F20" d="M11,50c-2.757,0-5,2.243-5,5c0,2.757,2.243,5,5,5c2.757,0,5-2.243,5-5C16,52.243,13.757,50,11,50z M11,58
			c-1.654,0-3-1.346-3-3s1.346-3,3-3s3,1.346,3,3S12.654,58,11,58z"/>
		<path fill="#231F20" d="M59,8h-3.782c-0.501,0-0.926,0.372-0.991,0.869L49.298,46H1c-0.553,0-1,0.448-1,1c0,0.552,0.447,1,1,1
			h49.174c0.501,0,0.926-0.372,0.991-0.869L56.094,10H59c0.553,0,1-0.448,1-1C60,8.448,59.553,8,59,8z"/>
		<path fill="#231F20" d="M12.707,15.707L24,4.414V37c0,0.552,0.447,1,1,1c0.553,0,1-0.448,1-1V4.558l10.266,11.12
			C36.462,15.892,36.73,16,37,16c0.243,0,0.486-0.088,0.679-0.265c0.405-0.375,0.431-1.007,0.056-1.413l-12-13
			c-0.004-0.005-0.01-0.006-0.015-0.011c-0.062-0.064-0.139-0.109-0.215-0.155c-0.036-0.022-0.065-0.053-0.104-0.07
			c-0.066-0.029-0.142-0.034-0.215-0.048C25.129,1.026,25.077,1.001,25.019,1c-0.003,0-0.007,0.002-0.01,0.002
			C25.006,1.002,25.003,1,25,1c-0.092,0-0.174,0.029-0.258,0.052c-0.036,0.01-0.07,0.007-0.106,0.021
			c-0.13,0.051-0.247,0.124-0.344,0.221L11.293,14.293c-0.391,0.391-0.391,1.023,0,1.414C11.684,16.098,12.316,16.098,12.707,15.707
			z"/>
	</g>
</g>
<g id="nyt_x5F_exporter_x5F_info" display="none">
</g>
</svg>
