<?xml version="1.0" encoding="utf-8"?>
<!-- Generator: Adobe Illustrator 17.0.0, SVG Export Plug-In . SVG Version: 6.00 Build 0)  -->
<!DOCTYPE svg PUBLIC "-//W3C//DTD SVG 1.1//EN" "http://www.w3.org/Graphics/SVG/1.1/DTD/svg11.dtd">
<svg version="1.1" xmlns="http://www.w3.org/2000/svg" xmlns:xlink="http://www.w3.org/1999/xlink" x="0px" y="0px" width="60px"
	 height="60px" viewBox="0 0 60 60" enable-background="new 0 0 60 60" xml:space="preserve">
<g id="Layer_1">
	<g>
		<path fill="#231F20" d="M53,0H7C3.141,0,0,3.14,0,7v36.913c0,3.743,2.961,7.499,6.601,8.373l30.332,7.285
			c0.532,0.128,1.057,0.191,1.565,0.191c1.269,0,2.443-0.391,3.407-1.151C43.256,57.546,44,55.909,44,54v-8h9c3.859,0,7-3.14,7-7V7
			C60,3.14,56.859,0,53,0z M42,54c0,1.283-0.474,2.363-1.333,3.041c-0.858,0.677-2.02,0.885-3.268,0.586L7.067,50.342
			C4.32,49.682,2,46.738,2,43.913V7c0-0.66,0.129-1.29,0.362-1.868l34.583,9.242C39.685,15.106,42,18.12,42,20.957V54z M58,39
			c0,2.757-2.243,5-5,5h-9V24h4.913c0.553,0,1-0.448,1-1c0-0.552-0.447-1-1-1H44v-1.043c0-3.732-2.934-7.552-6.539-8.515L28.325,10
			h20.588c0.553,0,1-0.448,1-1c0-0.552-0.447-1-1-1H21c-0.032,0-0.059,0.015-0.091,0.018L3.554,3.38C4.452,2.525,5.666,2,7,2h46
			c2.757,0,5,2.243,5,5V39z"/>
		<path fill="#231F20" d="M34,29c-3.309,0-6,2.691-6,6s2.691,6,6,6s6-2.691,6-6S37.309,29,34,29z M34,39c-2.206,0-4-1.794-4-4
			c0-2.206,1.794-4,4-4c2.206,0,4,1.794,4,4C38,37.206,36.206,39,34,39z"/>
	</g>
</g>
<g id="nyt_x5F_exporter_x5F_info" display="none">
</g>
</svg>
