<?xml version="1.0" encoding="utf-8"?>
<!-- Generator: Adobe Illustrator 17.0.0, SVG Export Plug-In . SVG Version: 6.00 Build 0)  -->
<!DOCTYPE svg PUBLIC "-//W3C//DTD SVG 1.1//EN" "http://www.w3.org/Graphics/SVG/1.1/DTD/svg11.dtd">
<svg version="1.1" xmlns="http://www.w3.org/2000/svg" xmlns:xlink="http://www.w3.org/1999/xlink" x="0px" y="0px" width="60px"
	 height="60px" viewBox="0 0 60 60" enable-background="new 0 0 60 60" xml:space="preserve">
<g id="Layer_1">
	<g>
		<path fill="#231F20" d="M42.609,33.304c-1.246,0-2.261,1.014-2.261,2.261c0,1.247,1.015,2.261,2.261,2.261
			c1.247,0,2.262-1.014,2.262-2.261C44.871,34.318,43.856,33.304,42.609,33.304z M42.349,35.565c0-0.144,0.117-0.261,0.261-0.261
			c0.145,0,0.262,0.117,0.262,0.261C42.871,35.852,42.349,35.854,42.349,35.565z"/>
		<path fill="#231F20" d="M11.088,20h2.521c0.553,0,1-0.448,1-1c0-0.552-0.447-1-1-1h-2.521c-0.553,0-1,0.448-1,1
			C10.088,19.552,10.535,20,11.088,20z"/>
		<path fill="#231F20" d="M18.653,20h2.522c0.553,0,1-0.448,1-1c0-0.552-0.447-1-1-1h-2.522c-0.553,0-1,0.448-1,1
			C17.653,19.552,18.101,20,18.653,20z"/>
		<path fill="#231F20" d="M26.219,20h2.521c0.553,0,1-0.448,1-1c0-0.552-0.447-1-1-1h-2.521c-0.553,0-1,0.448-1,1
			C25.219,19.552,25.666,20,26.219,20z"/>
		<path fill="#231F20" d="M33.784,20h2.521c0.553,0,1-0.448,1-1c0-0.552-0.447-1-1-1h-2.521c-0.553,0-1,0.448-1,1
			C32.784,19.552,33.231,20,33.784,20z"/>
		<path fill="#231F20" d="M41.349,20h2.523c0.553,0,1-0.448,1-1c0-0.552-0.447-1-1-1h-2.523c-0.553,0-1,0.448-1,1
			C40.349,19.552,40.796,20,41.349,20z"/>
		<path fill="#231F20" d="M11.088,52h2.521c0.553,0,1-0.448,1-1c0-0.552-0.447-1-1-1h-2.521c-0.553,0-1,0.448-1,1
			C10.088,51.552,10.535,52,11.088,52z"/>
		<path fill="#231F20" d="M18.653,52h2.522c0.553,0,1-0.448,1-1c0-0.552-0.447-1-1-1h-2.522c-0.553,0-1,0.448-1,1
			C17.653,51.552,18.101,52,18.653,52z"/>
		<path fill="#231F20" d="M26.219,52h2.521c0.553,0,1-0.448,1-1c0-0.552-0.447-1-1-1h-2.521c-0.553,0-1,0.448-1,1
			C25.219,51.552,25.666,52,26.219,52z"/>
		<path fill="#231F20" d="M33.784,52h2.521c0.553,0,1-0.448,1-1c0-0.552-0.447-1-1-1h-2.521c-0.553,0-1,0.448-1,1
			C32.784,51.552,33.231,52,33.784,52z"/>
		<path fill="#231F20" d="M41.349,52h2.523c0.553,0,1-0.448,1-1c0-0.552-0.447-1-1-1h-2.523c-0.553,0-1,0.448-1,1
			C40.349,51.552,40.796,52,41.349,52z"/>
		<path fill="#231F20" d="M0.001,11v40c0,3.86,3.141,7,7,7h38.435c1.869,0,3.609-0.733,4.9-2.065
			c1.292-1.332,1.971-3.094,1.912-4.963L52.03,44h2.969c2.757,0,5-2.243,5-5v-6c0-2.757-2.243-5-5-5h-3v-9
			c0-3.519-2.614-6.432-6-6.92V9c0-2.757-3.141-5-7-5H7.001C3.142,4,0.001,7.14,0.001,11z M57.999,33v6c0,1.654-1.346,3-3,3h-14
			c-1.654,0-3-1.346-3-3v-6c0-1.654,1.346-3,3-3h14C56.653,30,57.999,31.346,57.999,33z M7.001,6h31.998c2.663,0,5,1.402,5,3v3h-36
			c-0.841,0-1-0.159-1-1s0.159-1,0.997-1l30.828,0.087c0.001,0,0.002,0,0.003,0c0.551,0,0.998-0.446,1-0.997
			c0.002-0.552-0.445-1.001-0.997-1.003L7.999,8c-1.935,0-3,1.065-3,3c0,1.935,1.065,3,3,3h37c2.757,0,5,2.243,5,5v9h-9
			c-2.757,0-5,2.243-5,5v6c0,2.757,2.243,5,5,5h9.03l0.22,7.034c0.042,1.322-0.438,2.568-1.349,3.508
			C47.989,55.482,46.759,56,45.435,56H7.001c-2.757,0-5-2.243-5-5V11C2.001,8.243,4.244,6,7.001,6z"/>
	</g>
</g>
<g id="nyt_x5F_exporter_x5F_info" display="none">
</g>
</svg>
