<?xml version="1.0" encoding="utf-8"?>
<!-- Generator: Adobe Illustrator 17.0.0, SVG Export Plug-In . SVG Version: 6.00 Build 0)  -->
<!DOCTYPE svg PUBLIC "-//W3C//DTD SVG 1.1//EN" "http://www.w3.org/Graphics/SVG/1.1/DTD/svg11.dtd">
<svg version="1.1" xmlns="http://www.w3.org/2000/svg" xmlns:xlink="http://www.w3.org/1999/xlink" x="0px" y="0px" width="60px"
	 height="60px" viewBox="0 0 60 60" enable-background="new 0 0 60 60" xml:space="preserve">
<g id="Layer_3">
	<g>
		<path fill="#010101" d="M59,13H36v-2c0-3.309-2.691-6-6-6c-3.309,0-6,2.691-6,6v3v5v1v23h-2V20c0-0.553-0.447-1-1-1h-8
			c-0.352,0-0.677,0.185-0.857,0.485L6.229,29.34l-5.87,4.892C0.132,34.422,0,34.703,0,35v9v6c0,0.553,0.447,1,1,1h3.263
			C4.097,50.359,4,49.692,4,49c0-4.411,3.589-8,8-8c4.411,0,8,3.589,8,8c0,0.692-0.097,1.359-0.263,2h20.526
			C40.097,50.359,40,49.692,40,49c0-4.411,3.589-8,8-8c4.411,0,8,3.589,8,8c0,0.692-0.097,1.359-0.263,2H59c0.553,0,1-0.447,1-1v-6
			V14C60,13.447,59.553,13,59,13z M18,25h-1.382l-3.724,7.447C12.719,32.798,12.366,33,11.999,33c-0.15,0-0.303-0.034-0.446-0.105
			c-0.494-0.247-0.694-0.848-0.447-1.342l4-8C15.275,23.214,15.621,23,16,23h2c0.553,0,1,0.447,1,1C19,24.553,18.553,25,18,25z
			 M26,11c0-2.206,1.794-4,4-4c2.206,0,4,1.794,4,4v2h-8V11z M52,32c0,0.553-0.447,1-1,1h-5v5c0,0.553-0.447,1-1,1h-6
			c-0.553,0-1-0.447-1-1v-5h-5c-0.553,0-1-0.447-1-1v-6c0-0.553,0.447-1,1-1h5v-5c0-0.553,0.447-1,1-1h6c0.553,0,1,0.447,1,1v5h5
			c0.553,0,1,0.447,1,1V32z"/>
		<path fill="#010101" d="M12,43c-3.309,0-6,2.691-6,6c0,3.309,2.691,6,6,6c3.309,0,6-2.691,6-6C18,45.691,15.309,43,12,43z"/>
		<path fill="#010101" d="M48,43c-3.309,0-6,2.691-6,6c0,3.309,2.691,6,6,6c3.309,0,6-2.691,6-6C54,45.691,51.309,43,48,43z"/>
	</g>
</g>
<g id="nyt_x5F_exporter_x5F_info" display="none">
</g>
</svg>
