<?xml version="1.0" encoding="utf-8"?>
<!-- Generator: Adobe Illustrator 17.0.0, SVG Export Plug-In . SVG Version: 6.00 Build 0)  -->
<!DOCTYPE svg PUBLIC "-//W3C//DTD SVG 1.1//EN" "http://www.w3.org/Graphics/SVG/1.1/DTD/svg11.dtd">
<svg version="1.1" xmlns="http://www.w3.org/2000/svg" xmlns:xlink="http://www.w3.org/1999/xlink" x="0px" y="0px" width="60px"
	 height="60px" viewBox="0 0 60 60" enable-background="new 0 0 60 60" xml:space="preserve">
<g id="Layer_3">
	<g>
		<path fill="#010101" d="M56.781,53.375L46.383,40.376c-0.001-0.001-0.002-0.001-0.003-0.002L37,28.649V18h2c0.553,0,1-0.447,1-1
			c0-0.553-0.447-1-1-1h-3H24h-3c-0.553,0-1,0.447-1,1c0,0.553,0.447,1,1,1h2v10.649l-9.38,11.724c-0.001,0-0.001,0.001-0.001,0.001
			l-10.399,13C3.077,53.553,3,53.773,3,54c0,3.309,2.691,6,6,6h42c3.364,0,6-2.636,6-6C57,53.773,56.923,53.553,56.781,53.375z
			 M16.481,40l8.3-10.375C24.923,29.447,25,29.228,25,29V18h10v11c0,0.228,0.077,0.447,0.219,0.625L43.519,40H16.481z"/>
		<path fill="#010101" d="M15,12c2.206,0,4-1.794,4-4c0-2.206-1.794-4-4-4c-2.206,0-4,1.794-4,4C11,10.206,12.794,12,15,12z"/>
		<path fill="#010101" d="M31,12c3.309,0,6-2.691,6-6c0-3.309-2.691-6-6-6c-3.309,0-6,2.691-6,6C25,9.309,27.691,12,31,12z"/>
		<circle fill="#010101" cx="46" cy="9" r="3"/>
	</g>
</g>
<g id="nyt_x5F_exporter_x5F_info" display="none">
</g>
</svg>
