<?xml version="1.0" encoding="utf-8"?>
<!-- Generator: Adobe Illustrator 17.0.0, SVG Export Plug-In . SVG Version: 6.00 Build 0)  -->
<!DOCTYPE svg PUBLIC "-//W3C//DTD SVG 1.1//EN" "http://www.w3.org/Graphics/SVG/1.1/DTD/svg11.dtd">
<svg version="1.1" xmlns="http://www.w3.org/2000/svg" xmlns:xlink="http://www.w3.org/1999/xlink" x="0px" y="0px" width="60px"
	 height="60px" viewBox="0 0 60 60" enable-background="new 0 0 60 60" xml:space="preserve">
<g id="Layer_3">
	<path fill="#010101" d="M44,0H16c-0.553,0-1,0.447-1,1c0,0.553,0.447,1,1,1h3v8h9c0.553,0,1,0.447,1,1c0,0.553-0.447,1-1,1h-9v6h5
		c0.553,0,1,0.447,1,1c0,0.553-0.447,1-1,1h-5v6h9c0.553,0,1,0.447,1,1c0,0.553-0.447,1-1,1h-9v6h5c0.553,0,1,0.447,1,1
		c0,0.553-0.447,1-1,1h-5v13c0,6.065,4.935,11,11,11c6.065,0,11-4.935,11-11V2h3c0.553,0,1-0.447,1-1C45,0.447,44.553,0,44,0z
		 M30,56c-0.553,0-1-0.447-1-1c0-0.553,0.447-1,1-1c2.757,0,5-2.243,5-5c0-0.553,0.447-1,1-1c0.553,0,1,0.447,1,1
		C37,52.859,33.859,56,30,56z"/>
</g>
<g id="nyt_x5F_exporter_x5F_info" display="none">
</g>
</svg>
