<?xml version="1.0" encoding="utf-8"?>
<!-- Generator: Adobe Illustrator 17.0.0, SVG Export Plug-In . SVG Version: 6.00 Build 0)  -->
<!DOCTYPE svg PUBLIC "-//W3C//DTD SVG 1.1//EN" "http://www.w3.org/Graphics/SVG/1.1/DTD/svg11.dtd">
<svg version="1.1" xmlns="http://www.w3.org/2000/svg" xmlns:xlink="http://www.w3.org/1999/xlink" x="0px" y="0px" width="60px"
	 height="60px" viewBox="0 0 60 60" enable-background="new 0 0 60 60" xml:space="preserve">
<g id="Layer_3">
	<path fill="#010101" d="M53,17H40v-4c0-2.206-1.794-4-4-4H24c-2.206,0-4,1.794-4,4v4H7c-3.859,0-7,3.141-7,7v28
		c0,3.859,3.141,7,7,7h46c3.859,0,7-3.141,7-7V24C60,20.141,56.859,17,53,17z M22,13c0-1.102,0.897-2,2-2h12c1.103,0,2,0.898,2,2v4
		H22V13z M44,44c0,0.553-0.447,1-1,1h-7v7c0,0.553-0.447,1-1,1H25c-0.553,0-1-0.447-1-1v-7h-7c-0.553,0-1-0.447-1-1V34
		c0-0.553,0.447-1,1-1h7v-7c0-0.553,0.447-1,1-1h10c0.553,0,1,0.447,1,1v7h7c0.553,0,1,0.447,1,1V44z"/>
</g>
<g id="nyt_x5F_exporter_x5F_info" display="none">
</g>
</svg>
