<?xml version="1.0" encoding="utf-8"?>
<!-- Generator: Adobe Illustrator 17.0.0, SVG Export Plug-In . SVG Version: 6.00 Build 0)  -->
<!DOCTYPE svg PUBLIC "-//W3C//DTD SVG 1.1//EN" "http://www.w3.org/Graphics/SVG/1.1/DTD/svg11.dtd">
<svg version="1.1" xmlns="http://www.w3.org/2000/svg" xmlns:xlink="http://www.w3.org/1999/xlink" x="0px" y="0px" width="60px"
	 height="60px" viewBox="0 0 60 60" enable-background="new 0 0 60 60" xml:space="preserve">
<g id="Layer_3">
	<path fill="#010101" d="M58.26,43.016c-0.264-0.161-6.54-3.93-14.391-3.93c-1.124,0-2.264,0.077-3.414,0.231
		c1.774-1.263,3.635-2.774,5.406-4.547c6.977-6.975,9.924-15.183,10.046-15.528c0.128-0.363,0.036-0.768-0.236-1.04
		c-0.272-0.273-0.678-0.364-1.039-0.236c-0.347,0.122-8.559,3.066-15.534,10.043c-1.643,1.643-3.064,3.36-4.282,5.035
		c0.718-3.167,1.228-6.768,1.228-10.609c0-11.943-4.947-21.498-5.157-21.898C30.713,0.206,30.371,0,30,0
		c-0.371,0-0.713,0.206-0.885,0.535c-0.211,0.4-5.159,9.955-5.159,21.898c0,3.836,0.51,7.438,1.229,10.611
		c-1.217-1.674-2.641-3.393-4.287-5.037c-6.973-6.977-15.184-9.921-15.53-10.043c-0.363-0.128-0.768-0.037-1.039,0.236
		c-0.273,0.273-0.364,0.677-0.236,1.039c0.122,0.347,3.068,8.555,10.041,15.529c1.773,1.772,3.636,3.284,5.41,4.548
		c-1.151-0.154-2.29-0.232-3.413-0.232c-7.853,0-14.127,3.769-14.391,3.93c-0.298,0.181-0.48,0.505-0.48,0.854
		c0,0.349,0.182,0.673,0.48,0.854c0.264,0.161,6.538,3.93,14.391,3.93c1.48,0,2.987-0.134,4.513-0.399
		c-0.09,0.086-0.178,0.173-0.266,0.261c-4.076,4.076-5.545,9.135-5.605,9.349c-0.099,0.349-0.002,0.723,0.255,0.979
		c0.255,0.256,0.629,0.353,0.979,0.255c0.213-0.06,5.274-1.525,9.313-5.567L29,50.208V59c0,0.553,0.447,1,1,1c0.553,0,1-0.447,1-1
		v-8.793l3.642,3.287c4.074,4.077,9.135,5.542,9.348,5.602c0.09,0.025,0.182,0.038,0.272,0.038c0.262,0,0.517-0.103,0.707-0.293
		c0.256-0.256,0.354-0.631,0.255-0.979c-0.061-0.213-1.525-5.272-5.604-9.35c-0.087-0.087-0.176-0.174-0.265-0.26
		c1.523,0.266,3.031,0.399,4.514,0.399c7.851,0,14.127-3.769,14.391-3.93c0.298-0.181,0.479-0.505,0.479-0.854
		C58.739,43.521,58.558,43.196,58.26,43.016z"/>
</g>
<g id="nyt_x5F_exporter_x5F_info" display="none">
</g>
</svg>
