<?xml version="1.0" encoding="utf-8"?>
<!-- Generator: Adobe Illustrator 17.0.0, SVG Export Plug-In . SVG Version: 6.00 Build 0)  -->
<!DOCTYPE svg PUBLIC "-//W3C//DTD SVG 1.1//EN" "http://www.w3.org/Graphics/SVG/1.1/DTD/svg11.dtd">
<svg version="1.1" xmlns="http://www.w3.org/2000/svg" xmlns:xlink="http://www.w3.org/1999/xlink" x="0px" y="0px" width="60px"
	 height="60px" viewBox="0 0 60 60" enable-background="new 0 0 60 60" xml:space="preserve">
<g id="Layer_3">
	<g>
		<path fill="#010101" d="M4.894,30.912c0.017,0.043,0.038,0.084,0.061,0.124l1.142,1.969h8.463l3.098-3.875
			c0.564-0.705,1.436-1.126,2.333-1.126l0.197,0.008c0.964,0.055,1.84,0.578,2.356,1.4l1.961,3.137l3.74-8.725
			c0.47-1.104,1.553-1.819,2.759-1.819l0.184,0.007c1.312,0.096,2.389,0.991,2.714,2.23l2.976,11.303l0.44-0.882
			c0.513-1.023,1.54-1.658,2.684-1.658h12.982l1.204-1.944c0.021-0.031,0.038-0.064,0.055-0.099c0.397-0.84,0.787-1.604,1.156-2.327
			c1.454-2.85,2.603-5.101,2.603-8.63C58,6.874,51.063,0.996,44.189,0.996c-5.312,0-11.526,3.686-14.189,11.679
			C27.337,4.681,21.123,0.996,15.81,0.996C8.936,0.996,2,6.874,2,20.004c0,3.84,1.33,7.088,2.737,10.526L4.894,30.912z"/>
		<path fill="#010101" d="M38.684,45.346c-0.513,1.023-1.54,1.658-2.684,1.658c-0.094,0-0.188-0.004-0.281-0.013
			c-1.256-0.13-2.306-1.023-2.62-2.225L30.32,34.207l-2.563,5.979c-0.439,1.031-1.408,1.726-2.527,1.811l-0.195,0.008
			c0,0-0.001,0-0.002,0c-1.075,0-2.024-0.526-2.575-1.408l-2.758-4.411l-1.355,1.694c-0.577,0.717-1.431,1.126-2.344,1.126H9.574
			l1.228,2.117c0.019,0.033,0.041,0.065,0.064,0.097c7.798,10.422,18.146,17.331,18.582,17.62c0.168,0.111,0.359,0.166,0.552,0.166
			c0.217,0,0.433-0.07,0.612-0.21c0.096-0.074,9.666-7.536,17.327-17.648l1.327-2.142h-7.412L38.684,45.346z"/>
		<path fill="#010101" d="M59,35.004H40c-0.381,0-0.724,0.212-0.895,0.553l-2.813,5.626l-4.325-16.433
			c-0.108-0.413-0.468-0.712-0.895-0.743l-0.111-0.004c-0.361,0.001-0.723,0.238-0.879,0.606l-5.249,12.244l-3.985-6.38
			c-0.169-0.269-0.461-0.447-0.763-0.465l-0.141-0.006c-0.245,0.001-0.541,0.145-0.727,0.377l-3.698,4.625H1c-0.552,0-1,0.448-1,1
			s0.448,1,1,1h15c0.305,0,0.591-0.138,0.783-0.377l3.115-3.896l4.254,6.804c0.185,0.294,0.5,0.47,0.845,0.47L25.116,40
			c0.334-0.026,0.655-0.257,0.802-0.6l4.855-11.328l4.259,16.186c0.105,0.401,0.46,0.699,0.883,0.742L36,45.004
			c0.381,0,0.724-0.212,0.894-0.553l3.724-7.447H59c0.552,0,1-0.448,1-1S59.552,35.004,59,35.004z"/>
	</g>
</g>
<g id="nyt_x5F_exporter_x5F_info" display="none">
</g>
</svg>
