<?xml version="1.0" encoding="utf-8"?>
<!-- Generator: Adobe Illustrator 17.0.0, SVG Export Plug-In . SVG Version: 6.00 Build 0)  -->
<!DOCTYPE svg PUBLIC "-//W3C//DTD SVG 1.1//EN" "http://www.w3.org/Graphics/SVG/1.1/DTD/svg11.dtd">
<svg version="1.1" xmlns="http://www.w3.org/2000/svg" xmlns:xlink="http://www.w3.org/1999/xlink" x="0px" y="0px" width="60px"
	 height="60px" viewBox="0 0 60 60" enable-background="new 0 0 60 60" xml:space="preserve">
<g id="Layer_3">
	<g>
		<path fill="#010101" d="M38,36v-7c0-2.757-2.243-5-5-5H20v-2.051C25.598,21.442,30,16.728,30,11c0-6.065-4.935-11-11-11
			C12.935,0,8,4.935,8,11c0,5.728,4.402,10.442,10,10.949V24H5c-2.757,0-5,2.243-5,5v30c0,0.553,0.447,1,1,1h19V50H8
			c-0.553,0-1-0.447-1-1c0-0.553,0.447-1,1-1h12v-5c0-0.34,0.033-0.672,0.08-1H8c-0.553,0-1-0.447-1-1c0-0.553,0.447-1,1-1h12.685
			c1.126-2.361,3.53-4,6.315-4H38z M14,12c-0.553,0-1-0.447-1-1c0-0.553,0.447-1,1-1h4V6c0-0.553,0.447-1,1-1c0.553,0,1,0.447,1,1v4
			h4c0.553,0,1,0.447,1,1c0,0.553-0.447,1-1,1h-4v4c0,0.553-0.447,1-1,1c-0.553,0-1-0.447-1-1v-4H14z M8,34c-0.553,0-1-0.447-1-1
			c0-0.553,0.447-1,1-1h21c0.553,0,1,0.447,1,1c0,0.553-0.447,1-1,1H8z"/>
		<path fill="#010101" d="M55,38H27c-2.757,0-5,2.243-5,5v16v1h1h13v-2v-3c0-0.553,0.447-1,1-1h8c0.553,0,1,0.447,1,1v5h13
			c0.553,0,1-0.447,1-1V43C60,40.243,57.757,38,55,38z M30,52h-2c-0.553,0-1-0.447-1-1c0-0.553,0.447-1,1-1h2c0.553,0,1,0.447,1,1
			C31,51.553,30.553,52,30,52z M30,46h-2c-0.553,0-1-0.447-1-1c0-0.553,0.447-1,1-1h2c0.553,0,1,0.447,1,1
			C31,45.553,30.553,46,30,46z M38,52h-2c-0.553,0-1-0.447-1-1c0-0.553,0.447-1,1-1h2c0.553,0,1,0.447,1,1
			C39,51.553,38.553,52,38,52z M38,46h-2c-0.553,0-1-0.447-1-1c0-0.553,0.447-1,1-1h2c0.553,0,1,0.447,1,1
			C39,45.553,38.553,46,38,46z M46,52h-2c-0.553,0-1-0.447-1-1c0-0.553,0.447-1,1-1h2c0.553,0,1,0.447,1,1
			C47,51.553,46.553,52,46,52z M46,46h-2c-0.553,0-1-0.447-1-1c0-0.553,0.447-1,1-1h2c0.553,0,1,0.447,1,1
			C47,45.553,46.553,46,46,46z M54,52h-2c-0.553,0-1-0.447-1-1c0-0.553,0.447-1,1-1h2c0.553,0,1,0.447,1,1
			C55,51.553,54.553,52,54,52z M54,46h-2c-0.553,0-1-0.447-1-1c0-0.553,0.447-1,1-1h2c0.553,0,1,0.447,1,1
			C55,45.553,54.553,46,54,46z"/>
	</g>
</g>
<g id="nyt_x5F_exporter_x5F_info" display="none">
</g>
</svg>
