<?xml version="1.0" encoding="utf-8"?>
<!-- Generator: Adobe Illustrator 17.0.0, SVG Export Plug-In . SVG Version: 6.00 Build 0)  -->
<!DOCTYPE svg PUBLIC "-//W3C//DTD SVG 1.1//EN" "http://www.w3.org/Graphics/SVG/1.1/DTD/svg11.dtd">
<svg version="1.1" xmlns="http://www.w3.org/2000/svg" xmlns:xlink="http://www.w3.org/1999/xlink" x="0px" y="0px" width="60px"
	 height="60px" viewBox="0 0 60 60" enable-background="new 0 0 60 60" xml:space="preserve">
<g id="Layer_3">
	<g>
		<path fill="#010101" d="M15,30H1c-0.553,0-1,0.447-1,1v28c0,0.553,0.447,1,1,1h14c0.553,0,1-0.447,1-1V31
			C16,30.447,15.553,30,15,30z M12,52H4c-0.553,0-1-0.447-1-1c0-0.553,0.447-1,1-1h8c0.553,0,1,0.447,1,1C13,51.553,12.553,52,12,52
			z M12,48H4c-0.553,0-1-0.447-1-1c0-0.553,0.447-1,1-1h8c0.553,0,1,0.447,1,1C13,47.553,12.553,48,12,48z M12,44H4
			c-0.553,0-1-0.447-1-1c0-0.553,0.447-1,1-1h8c0.553,0,1,0.447,1,1C13,43.553,12.553,44,12,44z M12,40H4c-0.553,0-1-0.447-1-1
			c0-0.553,0.447-1,1-1h8c0.553,0,1,0.447,1,1C13,39.553,12.553,40,12,40z M12,36H4c-0.553,0-1-0.447-1-1c0-0.553,0.447-1,1-1h8
			c0.553,0,1,0.447,1,1C13,35.553,12.553,36,12,36z"/>
		<path fill="#010101" d="M59,30H45c-0.553,0-1,0.447-1,1v28c0,0.553,0.447,1,1,1h14c0.553,0,1-0.447,1-1V31
			C60,30.447,59.553,30,59,30z M56,52h-8c-0.553,0-1-0.447-1-1c0-0.553,0.447-1,1-1h8c0.553,0,1,0.447,1,1
			C57,51.553,56.553,52,56,52z M56,48h-8c-0.553,0-1-0.447-1-1c0-0.553,0.447-1,1-1h8c0.553,0,1,0.447,1,1
			C57,47.553,56.553,48,56,48z M56,44h-8c-0.553,0-1-0.447-1-1c0-0.553,0.447-1,1-1h8c0.553,0,1,0.447,1,1
			C57,43.553,56.553,44,56,44z M56,40h-8c-0.553,0-1-0.447-1-1c0-0.553,0.447-1,1-1h8c0.553,0,1,0.447,1,1
			C57,39.553,56.553,40,56,40z M56,36h-8c-0.553,0-1-0.447-1-1c0-0.553,0.447-1,1-1h8c0.553,0,1,0.447,1,1
			C57,35.553,56.553,36,56,36z"/>
		<path fill="#010101" d="M17,28.416V59c0,0.553,0.447,1,1,1h8v-5c0-0.553,0.447-1,1-1h6c0.553,0,1,0.447,1,1v5h8
			c0.553,0,1-0.447,1-1V28.416C39.72,31.848,35.111,34,30,34C24.889,34,20.28,31.848,17,28.416z M23,50h-2c-0.553,0-1-0.447-1-1
			c0-0.553,0.447-1,1-1h2c0.553,0,1,0.447,1,1C24,49.553,23.553,50,23,50z M23,44h-2c-0.553,0-1-0.447-1-1c0-0.553,0.447-1,1-1h2
			c0.553,0,1,0.447,1,1C24,43.553,23.553,44,23,44z M23,38h-2c-0.553,0-1-0.447-1-1c0-0.553,0.447-1,1-1h2c0.553,0,1,0.447,1,1
			C24,37.553,23.553,38,23,38z M37,36h2c0.553,0,1,0.447,1,1c0,0.553-0.447,1-1,1h-2c-0.553,0-1-0.447-1-1
			C36,36.447,36.447,36,37,36z M37,42h2c0.553,0,1,0.447,1,1c0,0.553-0.447,1-1,1h-2c-0.553,0-1-0.447-1-1
			C36,42.447,36.447,42,37,42z M37,48h2c0.553,0,1,0.447,1,1c0,0.553-0.447,1-1,1h-2c-0.553,0-1-0.447-1-1
			C36,48.447,36.447,48,37,48z M31,50h-2c-0.553,0-1-0.447-1-1c0-0.553,0.447-1,1-1h2c0.553,0,1,0.447,1,1
			C32,49.553,31.553,50,31,50z M31,44h-2c-0.553,0-1-0.447-1-1c0-0.553,0.447-1,1-1h2c0.553,0,1,0.447,1,1
			C32,43.553,31.553,44,31,44z M32,37c0,0.553-0.447,1-1,1h-2c-0.553,0-1-0.447-1-1c0-0.553,0.447-1,1-1h2
			C31.553,36,32,36.447,32,37z"/>
		<path fill="#010101" d="M30,32c8.822,0,16-7.178,16-16c0-8.822-7.178-16-16-16c-8.822,0-16,7.178-16,16C14,24.822,21.178,32,30,32
			z M20,13c0-0.553,0.447-1,1-1h5V7c0-0.553,0.447-1,1-1h6c0.553,0,1,0.447,1,1v5h5c0.553,0,1,0.447,1,1v6c0,0.553-0.447,1-1,1h-5v5
			c0,0.553-0.447,1-1,1h-6c-0.553,0-1-0.447-1-1v-5h-5c-0.553,0-1-0.447-1-1V13z"/>
	</g>
</g>
<g id="nyt_x5F_exporter_x5F_info" display="none">
</g>
</svg>
