<?xml version="1.0" encoding="utf-8"?>
<!-- Generator: Adobe Illustrator 17.0.0, SVG Export Plug-In . SVG Version: 6.00 Build 0)  -->
<!DOCTYPE svg PUBLIC "-//W3C//DTD SVG 1.1//EN" "http://www.w3.org/Graphics/SVG/1.1/DTD/svg11.dtd">
<svg version="1.1" xmlns="http://www.w3.org/2000/svg" xmlns:xlink="http://www.w3.org/1999/xlink" x="0px" y="0px" width="60px"
	 height="60px" viewBox="0 0 60 60" enable-background="new 0 0 60 60" xml:space="preserve">
<g id="Layer_3">
	<path fill="#010101" d="M59,58h-5.695C56.139,56.008,58,52.72,58,49V27c0-6.065-4.935-11-11-11H28.357l2.167-6.13
		c0.089-0.25,0.074-0.524-0.04-0.764c-0.114-0.239-0.319-0.424-0.569-0.513L27.29,7.666l1.015-2.87l1.435,0.507
		c0.11,0.039,0.223,0.058,0.333,0.058c0.412,0,0.798-0.256,0.942-0.667c0.185-0.521-0.089-1.092-0.609-1.275l-3.734-1.32
		l-3.399-1.202c-0.001,0-0.002,0-0.003-0.001l-2.375-0.839c-0.522-0.184-1.093,0.089-1.275,0.609
		c-0.185,0.521,0.089,1.092,0.609,1.275l1.435,0.507l-1.014,2.87l-2.625-0.927c-0.522-0.182-1.092,0.09-1.275,0.61L9.185,26.399
		c-0.089,0.25-0.074,0.524,0.04,0.764c0.114,0.239,0.319,0.424,0.569,0.512l1.438,0.508l-2.188,6.189
		c-0.185,0.521,0.088,1.091,0.608,1.275l4.75,1.684c0.108,0.038,0.222,0.058,0.334,0.058c0.147,0,0.295-0.032,0.431-0.098
		c0.239-0.114,0.424-0.319,0.512-0.569l2.189-6.193l3.817,1.349c0.11,0.039,0.223,0.058,0.333,0.058
		c0.412,0,0.798-0.256,0.942-0.667l3.629-10.266l6.705,6.705C33.48,27.894,33.734,28,34,28h5c4.71,0,7,2.944,7,9v5
		c0,5.383-2.29,8-7,8H19.555l-3.75-6H23c0.553,0,1-0.447,1-1s-0.447-1-1-1h-9H7H1c-0.553,0-1,0.447-1,1s0.447,1,1,1h5v14H1
		c-0.553,0-1,0.447-1,1s0.447,1,1,1h44h2h12c0.553,0,1-0.447,1-1S59.553,58,59,58z M14.126,35.111l-2.864-1.015l1.855-5.246
		l2.864,1.013L14.126,35.111z M25.405,7l-2.87-1.014l1.014-2.87l2.87,1.015L25.405,7z"/>
</g>
<g id="nyt_x5F_exporter_x5F_info" display="none">
</g>
</svg>
