<?xml version="1.0" encoding="utf-8"?>
<!-- Generator: Adobe Illustrator 17.0.0, SVG Export Plug-In . SVG Version: 6.00 Build 0)  -->
<!DOCTYPE svg PUBLIC "-//W3C//DTD SVG 1.1//EN" "http://www.w3.org/Graphics/SVG/1.1/DTD/svg11.dtd">
<svg version="1.1" xmlns="http://www.w3.org/2000/svg" xmlns:xlink="http://www.w3.org/1999/xlink" x="0px" y="0px" width="60px"
	 height="60px" viewBox="0 0 60 60" enable-background="new 0 0 60 60" xml:space="preserve">
<g id="Layer_3">
	<g>
		<path fill="#010101" d="M56,21.62H4c-2.206,0-4,1.794-4,4s1.794,4,4,4h1.02c0.391,9.585,6.369,18.183,15.085,21.958
			c-3.464,1.427-6.593,3.594-9.162,6.361c-0.271,0.292-0.342,0.716-0.184,1.08c0.159,0.365,0.519,0.601,0.917,0.601h36.646
			c0.008,0.001,0.015,0,0.02,0c0.553,0,1-0.447,1-1c0-0.325-0.155-0.614-0.396-0.797c-2.549-2.713-5.638-4.839-9.053-6.245
			c8.716-3.775,14.694-12.373,15.085-21.958H56c2.206,0,4-1.794,4-4S58.206,21.62,56,21.62z M23.893,45.071
			c-0.176,0.349-0.528,0.55-0.894,0.55c-0.151,0-0.305-0.034-0.449-0.107c-3.981-2.009-7.423-5.45-9.442-9.441
			c-0.249-0.492-0.052-1.094,0.441-1.344c0.493-0.251,1.093-0.053,1.344,0.441c1.83,3.618,4.95,6.737,8.558,8.559
			C23.943,43.977,24.142,44.578,23.893,45.071z"/>
		<path fill="#010101" d="M35,19.62h11c0.322,0,0.625-0.155,0.812-0.417C56.569,5.594,57.211,3.241,54.589,1.105
			c-0.415-0.338-0.992-0.726-1.777-0.726c-2.241,0-4.885,2.783-18.546,17.562c-0.27,0.292-0.341,0.716-0.182,1.079
			C34.243,19.385,34.602,19.62,35,19.62z"/>
	</g>
</g>
<g id="nyt_x5F_exporter_x5F_info" display="none">
</g>
</svg>
