<?xml version="1.0" encoding="utf-8"?>
<!-- Generator: Adobe Illustrator 17.0.0, SVG Export Plug-In . SVG Version: 6.00 Build 0)  -->
<!DOCTYPE svg PUBLIC "-//W3C//DTD SVG 1.1//EN" "http://www.w3.org/Graphics/SVG/1.1/DTD/svg11.dtd">
<svg version="1.1" xmlns="http://www.w3.org/2000/svg" xmlns:xlink="http://www.w3.org/1999/xlink" x="0px" y="0px" width="60px"
	 height="60px" viewBox="0 0 60 60" enable-background="new 0 0 60 60" xml:space="preserve">
<g id="Layer_3">
	<g>
		<path fill="#010101" d="M55.707,34.293L47.414,26L26,47.414l8.293,8.293C36.862,58.276,40.765,59.75,45,59.75
			c4.235,0,8.138-1.474,10.707-4.043C58.276,53.138,59.75,49.235,59.75,45C59.75,40.765,58.276,36.862,55.707,34.293z M39,50
			c-0.553,0-1-0.447-1-1c0-0.553,0.447-1,1-1c0.552,0,1,0.447,1,1C40,49.553,39.552,50,39,50z M39,44c-0.553,0-1-0.447-1-1
			c0-0.553,0.447-1,1-1c0.552,0,1,0.447,1,1C40,43.553,39.552,44,39,44z M43,40c-0.553,0-1-0.447-1-1c0-0.553,0.447-1,1-1
			c0.552,0,1,0.447,1,1C44,39.553,43.552,40,43,40z M45,52c-0.553,0-1-0.447-1-1c0-0.553,0.447-1,1-1c0.552,0,1,0.447,1,1
			C46,51.553,45.552,52,45,52z M45,46c-0.553,0-1-0.447-1-1c0-0.553,0.447-1,1-1c0.552,0,1,0.447,1,1C46,45.553,45.552,46,45,46z
			 M49,40c-0.553,0-1-0.447-1-1c0-0.553,0.447-1,1-1c0.552,0,1,0.447,1,1C50,39.553,49.552,40,49,40z M51,46c-0.553,0-1-0.447-1-1
			c0-0.553,0.447-1,1-1c0.552,0,1,0.447,1,1C52,45.553,51.552,46,51,46z"/>
		
			<rect x="14.858" y="22.515" transform="matrix(0.7071 -0.7071 0.7071 0.7071 -12.4264 30)" fill="#010101" width="30.284" height="14.971"/>
		<path fill="#010101" d="M25.707,4.293C23.138,1.724,19.235,0.25,15,0.25c-4.235,0-8.138,1.474-10.707,4.043
			C1.724,6.862,0.25,10.765,0.25,15c0,4.235,1.474,8.138,4.043,10.707L12.586,34L34,12.586L25.707,4.293z M9,16
			c-0.553,0-1-0.447-1-1c0-0.553,0.447-1,1-1c0.552,0,1,0.447,1,1C10,15.553,9.552,16,9,16z M11,22c-0.553,0-1-0.447-1-1
			c0-0.553,0.447-1,1-1c0.552,0,1,0.447,1,1C12,21.553,11.552,22,11,22z M15,8c0.552,0,1,0.447,1,1c0,0.553-0.448,1-1,1
			c-0.553,0-1-0.447-1-1C14,8.447,14.447,8,15,8z M15,16c-0.553,0-1-0.447-1-1c0-0.553,0.447-1,1-1c0.552,0,1,0.447,1,1
			C16,15.553,15.552,16,15,16z M17,22c-0.553,0-1-0.447-1-1c0-0.553,0.447-1,1-1c0.552,0,1,0.447,1,1C18,21.553,17.552,22,17,22z
			 M21,18c-0.553,0-1-0.447-1-1c0-0.553,0.447-1,1-1c0.552,0,1,0.447,1,1C22,17.553,21.552,18,21,18z M21,12c-0.553,0-1-0.447-1-1
			c0-0.553,0.447-1,1-1c0.552,0,1,0.447,1,1C22,11.553,21.552,12,21,12z"/>
	</g>
</g>
<g id="nyt_x5F_exporter_x5F_info" display="none">
</g>
</svg>
