<?xml version="1.0" encoding="utf-8"?>
<!-- Generator: Adobe Illustrator 17.0.0, SVG Export Plug-In . SVG Version: 6.00 Build 0)  -->
<!DOCTYPE svg PUBLIC "-//W3C//DTD SVG 1.1//EN" "http://www.w3.org/Graphics/SVG/1.1/DTD/svg11.dtd">
<svg version="1.1" xmlns="http://www.w3.org/2000/svg" xmlns:xlink="http://www.w3.org/1999/xlink" x="0px" y="0px" width="60px"
	 height="60px" viewBox="0 0 60 60" enable-background="new 0 0 60 60" xml:space="preserve">
<g id="Layer_3">
	<g>
		<path fill="#010101" d="M52,8h-9v6h4v20h-5c-0.379,0-0.725,0.214-0.895,0.553l-2.92,5.841l-5.237-15.71
			c-0.131-0.394-0.492-0.665-0.906-0.683c-0.442-0.029-0.797,0.224-0.961,0.605l-5.049,11.78l-3.104-7.758
			c-0.138-0.345-0.456-0.585-0.825-0.623c-0.372-0.036-0.729,0.131-0.935,0.439L17.465,34H13V14h4V8H8C7.447,8,7,8.447,7,9v50
			c0,0.553,0.447,1,1,1h44c0.553,0,1-0.447,1-1V9C53,8.447,52.553,8,52,8z M47,52H13V36h5c0.334,0,0.646-0.167,0.832-0.445
			l2.945-4.418l3.294,8.234c0.15,0.376,0.512,0.624,0.917,0.629c0.417-0.008,0.771-0.235,0.931-0.606l4.964-11.582l5.169,15.505
			c0.128,0.384,0.474,0.652,0.877,0.681C37.953,43.999,37.977,44,38,44c0.377,0,0.725-0.212,0.894-0.553L42.618,36H47V52z"/>
		<path fill="#010101" d="M20,16h20c0.553,0,1-0.447,1-1V7c0-0.553-0.447-1-1-1h-2.212h-0.847c-0.039-0.329-0.104-0.64-0.181-0.943
			c-0.078-0.313-0.176-0.608-0.288-0.89c-0.063-0.156-0.132-0.308-0.206-0.455c-0.095-0.194-0.199-0.378-0.31-0.556
			c-0.119-0.19-0.246-0.372-0.382-0.545c-0.105-0.134-0.213-0.264-0.327-0.388c-0.139-0.151-0.285-0.295-0.437-0.431
			c-0.15-0.134-0.305-0.263-0.466-0.382c-0.103-0.076-0.205-0.153-0.311-0.224c-0.236-0.154-0.479-0.292-0.73-0.415
			c-0.078-0.039-0.155-0.077-0.234-0.112c-0.283-0.127-0.572-0.237-0.865-0.326c-0.051-0.016-0.103-0.03-0.154-0.044
			c-0.314-0.088-0.632-0.159-0.95-0.206c-0.035-0.005-0.071-0.008-0.106-0.013C30.662,0.027,30.328,0,30,0
			c-0.328,0-0.662,0.027-0.996,0.071c-0.036,0.005-0.071,0.008-0.106,0.013c-0.318,0.047-0.635,0.118-0.95,0.206
			c-0.051,0.014-0.102,0.028-0.153,0.044c-0.293,0.089-0.582,0.199-0.865,0.326c-0.079,0.036-0.156,0.074-0.234,0.112
			c-0.25,0.123-0.494,0.261-0.73,0.415c-0.106,0.07-0.208,0.147-0.311,0.224c-0.161,0.119-0.315,0.247-0.466,0.382
			c-0.152,0.136-0.297,0.28-0.436,0.431c-0.114,0.124-0.223,0.254-0.328,0.388c-0.135,0.173-0.262,0.354-0.38,0.544
			c-0.111,0.178-0.215,0.363-0.311,0.557c-0.073,0.148-0.142,0.299-0.205,0.455c-0.112,0.282-0.21,0.577-0.288,0.89
			C23.163,5.36,23.098,5.671,23.059,6h-0.847H20c-0.553,0-1,0.447-1,1v8C19,15.553,19.447,16,20,16z"/>
	</g>
</g>
<g id="nyt_x5F_exporter_x5F_info" display="none">
</g>
</svg>
