<?xml version="1.0" encoding="utf-8"?>
<!-- Generator: Adobe Illustrator 17.0.0, SVG Export Plug-In . SVG Version: 6.00 Build 0)  -->
<!DOCTYPE svg PUBLIC "-//W3C//DTD SVG 1.1//EN" "http://www.w3.org/Graphics/SVG/1.1/DTD/svg11.dtd">
<svg version="1.1" xmlns="http://www.w3.org/2000/svg" xmlns:xlink="http://www.w3.org/1999/xlink" x="0px" y="0px" width="60px"
	 height="60px" viewBox="0 0 60 60" enable-background="new 0 0 60 60" xml:space="preserve">
<g id="Layer_3">
	<g>
		<path fill="#010101" d="M46.063,23.352L41.278,10.59l-5.299,25.612c-0.093,0.445-0.473,0.772-0.927,0.797
			C35.035,37,35.018,37,35,37c-0.433,0-0.819-0.279-0.952-0.695l-7.123-22.257l-4.988,13.304c-0.144,0.384-0.509,0.641-0.919,0.648
			c-0.389,0.042-0.783-0.236-0.941-0.615l-4.256-10.213l-3.974,6.358C11.665,23.822,11.345,24,11,24H0v29c0,3.859,3.141,7,7,7h46
			c3.859,0,7-3.141,7-7V24H47C46.583,24,46.21,23.741,46.063,23.352z M10,53c0,0.553-0.447,1-1,1s-1-0.447-1-1v-4
			c0-0.553,0.447-1,1-1s1,0.447,1,1V53z M18,53c0,0.553-0.447,1-1,1c-0.553,0-1-0.447-1-1v-8c0-0.553,0.447-1,1-1
			c0.553,0,1,0.447,1,1V53z M26,53c0,0.553-0.447,1-1,1c-0.553,0-1-0.447-1-1v-4c0-0.553,0.447-1,1-1c0.553,0,1,0.447,1,1V53z
			 M34,53c0,0.553-0.447,1-1,1c-0.553,0-1-0.447-1-1v-8c0-0.553,0.447-1,1-1c0.553,0,1,0.447,1,1V53z M42,53c0,0.553-0.447,1-1,1
			c-0.553,0-1-0.447-1-1v-4c0-0.553,0.447-1,1-1c0.553,0,1,0.447,1,1V53z M48,45c0-0.553,0.447-1,1-1c0.553,0,1,0.447,1,1v8
			c0,0.553-0.447,1-1,1c-0.553,0-1-0.447-1-1V45z"/>
		<path fill="#010101" d="M53,0H7C3.141,0,0,3.141,0,7v15h10.445l4.707-7.53c0.197-0.317,0.562-0.495,0.93-0.467
			c0.373,0.031,0.697,0.268,0.841,0.612l4.028,9.667l5.112-13.634c0.149-0.398,0.505-0.672,0.961-0.648
			c0.426,0.011,0.798,0.29,0.928,0.695l6.84,21.374L40.02,6.798c0.091-0.437,0.458-0.761,0.902-0.795
			c0.43-0.039,0.856,0.229,1.014,0.646L47.693,22H60V7C60,3.141,56.859,0,53,0z"/>
	</g>
</g>
<g id="nyt_x5F_exporter_x5F_info" display="none">
</g>
</svg>
