<?xml version="1.0" encoding="utf-8"?>
<!-- Generator: Adobe Illustrator 17.0.0, SVG Export Plug-In . SVG Version: 6.00 Build 0)  -->
<!DOCTYPE svg PUBLIC "-//W3C//DTD SVG 1.1//EN" "http://www.w3.org/Graphics/SVG/1.1/DTD/svg11.dtd">
<svg version="1.1" xmlns="http://www.w3.org/2000/svg" xmlns:xlink="http://www.w3.org/1999/xlink" x="0px" y="0px" width="60px"
	 height="60px" viewBox="0 0 60 60" enable-background="new 0 0 60 60" xml:space="preserve">
<g id="Layer_3">
	<g>
		<path fill="#010101" d="M53,0H7C3.141,0,0,3.141,0,7v15h10.445l4.707-7.53c0.197-0.317,0.559-0.495,0.93-0.467
			c0.373,0.031,0.697,0.268,0.841,0.612l4.028,9.667l5.112-13.634c0.148-0.398,0.555-0.672,0.961-0.648
			c0.426,0.011,0.798,0.29,0.928,0.695l6.84,21.374L40.02,6.798c0.091-0.437,0.458-0.761,0.902-0.795
			c0.435-0.039,0.857,0.229,1.014,0.646L47.693,22H60V7C60,3.141,56.859,0,53,0z"/>
		<path fill="#010101" d="M46.063,23.352L41.278,10.59l-5.299,25.612c-0.093,0.445-0.473,0.772-0.927,0.797
			C35.035,37,35.018,37,35,37c-0.433,0-0.819-0.279-0.952-0.695l-7.123-22.257l-4.988,13.304c-0.144,0.384-0.509,0.641-0.919,0.648
			c-0.006,0-0.012,0-0.018,0c-0.403,0-0.768-0.242-0.923-0.615l-4.256-10.213l-3.974,6.358C11.665,23.822,11.345,24,11,24H0v22
			h5.586l3.707-3.707c0.215-0.215,0.51-0.323,0.82-0.286c0.303,0.034,0.573,0.205,0.734,0.463l4.334,6.935l3.111-3.111
			C18.48,46.106,18.734,46,19,46h4.586l3.707-3.707c0.215-0.215,0.509-0.323,0.82-0.286c0.303,0.034,0.573,0.205,0.734,0.463
			l4.334,6.935l3.111-3.111C36.48,46.106,36.734,46,37,46h3.586l3.707-3.707c0.214-0.215,0.511-0.323,0.82-0.286
			c0.303,0.034,0.573,0.205,0.734,0.463l4.334,6.935l3.111-3.111C53.48,46.106,53.734,46,54,46h6V24H47
			C46.583,24,46.21,23.741,46.063,23.352z"/>
		<path fill="#010101" d="M50.707,51.707C50.519,51.896,50.264,52,50,52c-0.037,0-0.075-0.002-0.113-0.007
			c-0.303-0.034-0.573-0.205-0.734-0.463l-4.334-6.935l-3.111,3.111C41.519,47.895,41.266,48,41,48h-3.586l-3.707,3.707
			c-0.215,0.215-0.515,0.323-0.82,0.286c-0.303-0.034-0.573-0.205-0.734-0.463l-4.334-6.935l-3.111,3.111
			C24.519,47.895,24.266,48,24,48h-4.586l-3.707,3.707c-0.215,0.215-0.515,0.323-0.82,0.286c-0.303-0.034-0.573-0.205-0.734-0.463
			l-4.334-6.935l-3.111,3.111C6.519,47.895,6.266,48,6,48H0v5c0,3.859,3.141,7,7,7h46c3.859,0,7-3.141,7-7v-5h-5.586L50.707,51.707z
			"/>
	</g>
</g>
<g id="nyt_x5F_exporter_x5F_info" display="none">
</g>
</svg>
