<?xml version="1.0" encoding="utf-8"?>
<!-- Generator: Adobe Illustrator 17.0.0, SVG Export Plug-In . SVG Version: 6.00 Build 0)  -->
<!DOCTYPE svg PUBLIC "-//W3C//DTD SVG 1.1//EN" "http://www.w3.org/Graphics/SVG/1.1/DTD/svg11.dtd">
<svg version="1.1" xmlns="http://www.w3.org/2000/svg" xmlns:xlink="http://www.w3.org/1999/xlink" x="0px" y="0px" width="60px"
	 height="60px" viewBox="0 0 60 60" enable-background="new 0 0 60 60" xml:space="preserve">
<g id="Layer_3">
	<path fill="#010101" d="M59.49,37.566L46.04,30l13.45-7.566c0.232-0.131,0.403-0.35,0.475-0.607
		c0.07-0.258,0.035-0.533-0.099-0.765l-7-12.125c-0.274-0.475-0.878-0.643-1.356-0.371L38,16.165V1c0-0.553-0.447-1-1-1H23
		c-0.553,0-1,0.447-1,1v15.165L8.49,8.566C8.013,8.295,7.408,8.463,7.134,8.938l-7,12.125C0,21.294-0.035,21.569,0.035,21.827
		c0.071,0.257,0.242,0.476,0.475,0.607L13.959,30L0.51,37.566c-0.232,0.131-0.403,0.35-0.475,0.606
		c-0.07,0.258-0.035,0.533,0.099,0.765l7,12.125c0.274,0.475,0.879,0.643,1.356,0.371L22,43.833V59c0,0.553,0.447,1,1,1h14
		c0.553,0,1-0.447,1-1V43.835l13.51,7.599c0.479,0.271,1.082,0.104,1.356-0.371l7-12.125c0.134-0.231,0.169-0.507,0.099-0.765
		C59.894,37.916,59.723,37.697,59.49,37.566z"/>
</g>
<g id="nyt_x5F_exporter_x5F_info" display="none">
</g>
</svg>
