<?xml version="1.0" encoding="utf-8"?>
<!-- Generator: Adobe Illustrator 17.0.0, SVG Export Plug-In . SVG Version: 6.00 Build 0)  -->
<!DOCTYPE svg PUBLIC "-//W3C//DTD SVG 1.1//EN" "http://www.w3.org/Graphics/SVG/1.1/DTD/svg11.dtd">
<svg version="1.1" xmlns="http://www.w3.org/2000/svg" xmlns:xlink="http://www.w3.org/1999/xlink" x="0px" y="0px" width="60px"
	 height="60px" viewBox="0 0 60 60" enable-background="new 0 0 60 60" xml:space="preserve">
<g id="Layer_3">
	<path fill="#010101" d="M50,18c-3.859,0-7,3.141-7,7c0,3.519,2.614,6.432,6,6.92V49c0,2.206-1.794,4-4,4c-2.206,0-4-1.794-4-4v-6
		c0-3.859-3.141-7-7-7c-3.859,0-7,3.141-7,7v11c0,2.206-1.794,4-4,4c-2.206,0-4-1.794-4-4V37.949C26.805,37.431,33,30.934,33,23V11
		c0-3.519-2.614-6.432-6-6.92V1c0-0.553-0.447-1-1-1c-2.757,0-5,2.243-5,5c0,2.757,2.243,5,5,5c0.553,0,1-0.447,1-1V6.101
		c2.279,0.465,4,2.484,4,4.899v12c0,7.168-5.832,13-13,13S5,30.168,5,23V11c0-2.415,1.721-4.434,4-4.899V9c0,0.553,0.447,1,1,1
		c2.757,0,5-2.243,5-5c0-2.757-2.243-5-5-5C9.447,0,9,0.447,9,1v3.08C5.614,4.568,3,7.481,3,11v12c0,7.934,6.195,14.431,14,14.949
		V54c0,3.309,2.691,6,6,6c3.309,0,6-2.691,6-6V43c0-2.757,2.243-5,5-5c2.757,0,5,2.243,5,5v6c0,3.309,2.691,6,6,6
		c3.309,0,6-2.691,6-6V31.92c3.386-0.488,6-3.401,6-6.92C57,21.141,53.859,18,50,18z"/>
</g>
<g id="nyt_x5F_exporter_x5F_info" display="none">
</g>
</svg>
