<?xml version="1.0" encoding="utf-8"?>
<!-- Generator: Adobe Illustrator 17.0.0, SVG Export Plug-In . SVG Version: 6.00 Build 0)  -->
<!DOCTYPE svg PUBLIC "-//W3C//DTD SVG 1.1//EN" "http://www.w3.org/Graphics/SVG/1.1/DTD/svg11.dtd">
<svg version="1.1" xmlns="http://www.w3.org/2000/svg" xmlns:xlink="http://www.w3.org/1999/xlink" x="0px" y="0px" width="48px"
	 height="48px" viewBox="0 0 48 48" enable-background="new 0 0 48 48" xml:space="preserve">
<g id="Layer_3">
	<path fill="#010101" d="M41,20c0.553,0,1-0.447,1-1V7c0-3.859-3.141-7-7-7H13C9.058,0,6,3.226,6,6v13v14v4v5v2c0,0.553,0.447,1,1,1
		h1v2c0,0.553,0.447,1,1,1h5c0.553,0,1-0.447,1-1v-2h18v2c0,0.553,0.447,1,1,1h5c0.553,0,1-0.447,1-1v-2h1c0.553,0,1-0.447,1-1v-2
		v-5v-4c0-0.553-0.447-1-1-1h-1V20H41z M13,46h-3v-2h3V46z M13,41H8v-3h5V41z M8,32V20h18v12H8z M16.767,43l1.8-3h10.867l1.8,3
		H16.767z M11,16c-0.553,0-1-0.447-1-1V9c0-0.553,0.447-1,1-1h26c0.553,0,1,0.447,1,1v6c0,0.553-0.447,1-1,1H11z M34,20h4v12h-4V20z
		 M38,46h-3v-2h3V46z M40,41h-5v-3h5V41z"/>
</g>
<g id="nyt_x5F_exporter_x5F_info" display="none">
</g>
</svg>
