<?xml version="1.0" encoding="utf-8"?>
<!-- Generator: Adobe Illustrator 17.0.0, SVG Export Plug-In . SVG Version: 6.00 Build 0)  -->
<!DOCTYPE svg PUBLIC "-//W3C//DTD SVG 1.1//EN" "http://www.w3.org/Graphics/SVG/1.1/DTD/svg11.dtd">
<svg version="1.1" xmlns="http://www.w3.org/2000/svg" xmlns:xlink="http://www.w3.org/1999/xlink" x="0px" y="0px" width="48px"
	 height="48px" viewBox="0 0 48 48" enable-background="new 0 0 48 48" xml:space="preserve">
<g id="Layer_3">
	<path fill="#010101" d="M47,14h-4h-3v-1V8c0-4.411-3.589-8-8-8H16c-4.411,0-8,3.589-8,8v5v1H5H1c-0.553,0-1,0.447-1,1v14
		c0,0.553,0.447,1,1,1h4c0.553,0,1-0.447,1-1V16h2v15v12c0,1.302,0.838,2.402,2,2.816V47c0,0.553,0.447,1,1,1h4c0.553,0,1-0.447,1-1
		v-1h16v1c0,0.553,0.447,1,1,1h4c0.553,0,1-0.447,1-1v-1.184c1.161-0.414,2-1.514,2-2.816V31V16h2v13c0,0.553,0.447,1,1,1h4
		c0.553,0,1-0.447,1-1V15C48,14.447,47.553,14,47,14z M17,5c0-0.553,0.447-1,1-1h12c0.553,0,1,0.447,1,1v4c0,0.553-0.447,1-1,1H18
		c-0.553,0-1-0.447-1-1V5z M19,40h-6c-0.553,0-1-0.447-1-1c0-0.553,0.447-1,1-1h6c0.553,0,1,0.447,1,1C20,39.553,19.553,40,19,40z
		 M35,40h-6c-0.553,0-1-0.447-1-1c0-0.553,0.447-1,1-1h6c0.553,0,1,0.447,1,1C36,39.553,35.553,40,35,40z M38,30H10V14h28V30z"/>
</g>
<g id="nyt_x5F_exporter_x5F_info" display="none">
</g>
</svg>
