<?xml version="1.0" encoding="utf-8"?>
<!-- Generator: Adobe Illustrator 17.0.0, SVG Export Plug-In . SVG Version: 6.00 Build 0)  -->
<!DOCTYPE svg PUBLIC "-//W3C//DTD SVG 1.1//EN" "http://www.w3.org/Graphics/SVG/1.1/DTD/svg11.dtd">
<svg version="1.1" xmlns="http://www.w3.org/2000/svg" xmlns:xlink="http://www.w3.org/1999/xlink" x="0px" y="0px" width="48px"
	 height="48px" viewBox="0 0 48 48" enable-background="new 0 0 48 48" xml:space="preserve">
<g id="Layer_3">
	<path fill="#010101" d="M48,21v-4c0-0.553-0.447-1-1-1h-6c-0.208,0-0.391,0.078-0.551,0.187l-2.501-7.503
		C37.812,8.275,37.431,8,37,8H11c-0.431,0-0.813,0.275-0.948,0.684L7.55,16.187C7.391,16.078,7.208,16,7,16H1c-0.553,0-1,0.447-1,1
		v4c0,0.553,0.447,1,1,1h3.586l-4.292,4.292c-0.092,0.092-0.166,0.201-0.217,0.323C0.027,26.736,0,26.866,0,27v5v3
		c0,0.553,0.447,1,1,1h1v3c0,0.553,0.447,1,1,1h6c0.553,0,1-0.447,1-1v-3h6v1c0,0.553,0.447,1,1,1h14c0.553,0,1-0.447,1-1v-1h6v3
		c0,0.553,0.447,1,1,1h6c0.553,0,1-0.447,1-1v-3h1c0.553,0,1-0.447,1-1v-3v-5c0-0.134-0.027-0.264-0.078-0.385
		c-0.051-0.122-0.125-0.232-0.217-0.323L43.414,22H47C47.553,22,48,21.553,48,21z M2,20v-2h4v2H2z M8,38H4v-2h4V38z M8,31H2v-3h6V31
		z M30,36H18v-4h12V36z M23,27v-2c0-0.553,0.447-1,1-1c0.553,0,1,0.447,1,1v2c0,0.553-0.447,1-1,1C23.447,28,23,27.553,23,27z
		 M8.388,20l3.333-10h24.559l3.333,10H8.388z M44,38h-4v-2h4V38z M46,28v3h-6v-3H46z M46,20h-4v-2h4V20z"/>
</g>
<g id="nyt_x5F_exporter_x5F_info" display="none">
</g>
</svg>
