<?xml version="1.0" encoding="utf-8"?>
<!-- Generator: Adobe Illustrator 17.0.0, SVG Export Plug-In . SVG Version: 6.00 Build 0)  -->
<!DOCTYPE svg PUBLIC "-//W3C//DTD SVG 1.1//EN" "http://www.w3.org/Graphics/SVG/1.1/DTD/svg11.dtd">
<svg version="1.1" xmlns="http://www.w3.org/2000/svg" xmlns:xlink="http://www.w3.org/1999/xlink" x="0px" y="0px" width="48px"
	 height="48px" viewBox="0 0 48 48" enable-background="new 0 0 48 48" xml:space="preserve">
<g id="Layer_3">
	<g>
		<path fill="#010101" d="M47,42.5h-1v-9c0-0.553-0.447-1-1-1h-1v-2.226l3.123-0.806c0.535-0.138,0.856-0.683,0.718-1.218
			c-0.138-0.535-0.684-0.859-1.218-0.718l-5.81,1.5c-0.535,0.138-0.856,0.683-0.718,1.218c0.116,0.451,0.522,0.75,0.967,0.75
			c0.083,0,0.167-0.01,0.251-0.032L42,30.791V32.5h-0.734l-13.769-7.868C27.345,24.546,27.174,24.5,27,24.5H16
			c-0.379,0-0.725,0.214-0.895,0.553L11.382,32.5H4c-2.206,0-4,1.794-4,4v7c0,0.553,0.447,1,1,1h2.596
			c-0.06-0.325-0.096-0.658-0.096-1C3.5,40.468,5.968,38,9,38c3.032,0,5.5,2.468,5.5,5.5c0,0.342-0.036,0.675-0.096,1h13.191
			c-0.06-0.325-0.096-0.658-0.096-1c0-3.032,2.468-5.5,5.5-5.5c3.032,0,5.5,2.468,5.5,5.5c0,0.342-0.036,0.675-0.096,1H47
			c0.553,0,1-0.447,1-1C48,42.947,47.553,42.5,47,42.5z M21,30.5h-1.382l-1.724,3.447c-0.176,0.351-0.528,0.553-0.895,0.553
			c-0.15,0-0.303-0.034-0.446-0.105c-0.494-0.247-0.694-0.848-0.447-1.342l2-4C18.275,28.714,18.621,28.5,19,28.5h2
			c0.553,0,1,0.447,1,1C22,30.053,21.553,30.5,21,30.5z"/>
		<path fill="#010101" d="M9,39c-2.481,0-4.5,2.019-4.5,4.5C4.5,45.981,6.519,48,9,48c2.481,0,4.5-2.019,4.5-4.5
			C13.5,41.019,11.481,39,9,39z"/>
		<path fill="#010101" d="M33,39c-2.481,0-4.5,2.019-4.5,4.5c0,2.481,2.019,4.5,4.5,4.5c2.481,0,4.5-2.019,4.5-4.5
			C37.5,41.019,35.481,39,33,39z"/>
	</g>
</g>
<g id="nyt_x5F_exporter_x5F_info" display="none">
</g>
</svg>
