<?xml version="1.0" encoding="utf-8"?>
<!-- Generator: Adobe Illustrator 17.0.0, SVG Export Plug-In . SVG Version: 6.00 Build 0)  -->
<!DOCTYPE svg PUBLIC "-//W3C//DTD SVG 1.1//EN" "http://www.w3.org/Graphics/SVG/1.1/DTD/svg11.dtd">
<svg version="1.1" xmlns="http://www.w3.org/2000/svg" xmlns:xlink="http://www.w3.org/1999/xlink" x="0px" y="0px" width="48px"
	 height="48px" viewBox="0 0 48 48" enable-background="new 0 0 48 48" xml:space="preserve">
<g id="Layer_3">
	<g>
		<path fill="#010101" d="M47,41.5h-1v-6c0-2.206-1.794-4-4-4h-2.382l-3.724-7.447C35.725,23.714,35.379,23.5,35,23.5H16
			c-0.379,0-0.725,0.214-0.895,0.553L11.382,31.5H4c-2.206,0-4,1.794-4,4v7c0,0.553,0.447,1,1,1h2.596
			c-0.06-0.325-0.096-0.658-0.096-1C3.5,39.468,5.968,37,9,37c3.032,0,5.5,2.468,5.5,5.5c0,0.342-0.036,0.675-0.096,1h17.191
			c-0.06-0.325-0.096-0.658-0.096-1c0-3.032,2.468-5.5,5.5-5.5c3.032,0,5.5,2.468,5.5,5.5c0,0.342-0.036,0.675-0.096,1H47
			c0.553,0,1-0.447,1-1C48,41.947,47.553,41.5,47,41.5z M21,29.5h-1.382l-1.724,3.447c-0.176,0.351-0.528,0.553-0.895,0.553
			c-0.15,0-0.303-0.034-0.446-0.105c-0.494-0.247-0.694-0.848-0.447-1.342l2-4C18.275,27.714,18.621,27.5,19,27.5h2
			c0.553,0,1,0.447,1,1C22,29.053,21.553,29.5,21,29.5z"/>
		<path fill="#010101" d="M9,38c-2.481,0-4.5,2.019-4.5,4.5C4.5,44.981,6.519,47,9,47c2.481,0,4.5-2.019,4.5-4.5
			C13.5,40.019,11.481,38,9,38z"/>
		<path fill="#010101" d="M37,38c-2.481,0-4.5,2.019-4.5,4.5c0,2.481,2.019,4.5,4.5,4.5c2.481,0,4.5-2.019,4.5-4.5
			C41.5,40.019,39.481,38,37,38z"/>
	</g>
</g>
<g id="nyt_x5F_exporter_x5F_info" display="none">
</g>
</svg>
