<?xml version="1.0" encoding="utf-8"?>
<!-- Generator: Adobe Illustrator 17.0.0, SVG Export Plug-In . SVG Version: 6.00 Build 0)  -->
<!DOCTYPE svg PUBLIC "-//W3C//DTD SVG 1.1//EN" "http://www.w3.org/Graphics/SVG/1.1/DTD/svg11.dtd">
<svg version="1.1" xmlns="http://www.w3.org/2000/svg" xmlns:xlink="http://www.w3.org/1999/xlink" x="0px" y="0px" width="48px"
	 height="48px" viewBox="0 0 48 48" enable-background="new 0 0 48 48" xml:space="preserve">
<g id="Layer_3">
	<path fill="#010101" d="M47,20h-4.422l-2.211-3.832c-0.277-0.478-0.891-0.642-1.366-0.366c-0.479,0.276-0.643,0.888-0.366,1.366
		L39.114,18H22v-3c0-0.553-0.447-1-1-1h-1v-2h17c0.553,0,1-0.447,1-1c0-0.553-0.447-1-1-1H20V9c0-0.553-0.447-1-1-1
		c-0.553,0-1,0.447-1,1v1H1c-0.553,0-1,0.447-1,1c0,0.553,0.447,1,1,1h17v2h-1c-0.553,0-1,0.447-1,1v3C9.659,18,2,23.353,2,30
		c0,4.401,1.415,7.309,3.748,7.887l-0.529,2.115l-3.219,0V40c0-0.553-0.447-1-1-1c-0.553,0-1,0.447-1,1c0,1.103,0.897,2,2,2h23
		c0.553,0,1-0.447,1-1c0-0.553-0.447-1-1-1l-3.217,0l-0.596-2.409c4.907-2.34,6.365-9.453,6.714-11.77l11.685-2.642l-0.953,1.65
		c-0.276,0.479-0.112,1.09,0.366,1.366c0.157,0.091,0.329,0.134,0.499,0.134c0.346,0,0.682-0.18,0.867-0.5L42.578,22H47
		c0.553,0,1-0.447,1-1C48,20.447,47.553,20,47,20z M14,23c0.553,0,1,0.447,1,1v6c0,0.553-0.447,1-1,1H8c-0.553,0-1-0.447-1-1
		C7,26.141,10.141,23,14,23z M7.28,40.002L7.78,38h11.448l0.494,2.001L7.28,40.002z M23,26h-2c-0.553,0-1-0.447-1-1
		c0-0.553,0.447-1,1-1h2c0.553,0,1,0.447,1,1C24,25.553,23.553,26,23,26z"/>
</g>
<g id="nyt_x5F_exporter_x5F_info" display="none">
</g>
</svg>
