<?xml version="1.0" encoding="utf-8"?>
<!-- Generator: Adobe Illustrator 17.0.0, SVG Export Plug-In . SVG Version: 6.00 Build 0)  -->
<!DOCTYPE svg PUBLIC "-//W3C//DTD SVG 1.1//EN" "http://www.w3.org/Graphics/SVG/1.1/DTD/svg11.dtd">
<svg version="1.1" xmlns="http://www.w3.org/2000/svg" xmlns:xlink="http://www.w3.org/1999/xlink" x="0px" y="0px" width="48px"
	 height="48px" viewBox="0 0 48 48" enable-background="new 0 0 48 48" xml:space="preserve">
<g id="Layer_3">
	<g>
		<circle fill="#010101" cx="39" cy="35.001" r="2"/>
		<path fill="#010101" d="M39,26.001c-0.742,0-1.46,0.1-2.151,0.27l-3.526-9.57l2.919-0.73c0.536-0.134,0.862-0.677,0.728-1.212
			c-0.134-0.537-0.679-0.866-1.212-0.727l-4,1c-0.275,0.068-0.509,0.251-0.642,0.502c-0.133,0.251-0.152,0.547-0.055,0.813
			l1.014,2.752l-13.561,4.666l-1.529-3.765H19c0.553,0,1-0.447,1-1s-0.447-1-1-1h-3.482c-0.004,0-0.007,0-0.011,0H13
			c-0.553,0-1,0.447-1,1s0.447,1,1,1h1.827l1.968,4.844l-2.563,2.848c-1.476-1.06-3.28-1.691-5.232-1.691c-4.963,0-9,4.037-9,9
			s4.037,9,9,9c4.625,0,8.442-3.507,8.941-8h3.994c0.022,0.001,0.042,0.002,0.064,0.002c0.306,0,0.607-0.14,0.804-0.403
			l10.265-13.808l1.905,5.172C32.029,28.445,30,31.487,30,35.001c0,4.963,4.037,9,9,9s9-4.037,9-9S43.963,26.001,39,26.001z
			 M9,41.001c-3.309,0-6-2.691-6-6c0-3.309,2.691-6,6-6s6,2.691,6,6C15,38.31,12.309,41.001,9,41.001z M17.941,34.001
			c-0.211-1.898-1.018-3.614-2.224-4.969l1.914-2.128l2.883,7.097H17.941z M22.258,32.98l-2.989-7.358l11.368-3.912L22.258,32.98z
			 M39,41.001c-3.309,0-6-2.691-6-6c0-3.309,2.691-6,6-6s6,2.691,6,6C45,38.31,42.309,41.001,39,41.001z"/>
		<circle fill="#010101" cx="9" cy="35.001" r="2"/>
	</g>
</g>
<g id="nyt_x5F_exporter_x5F_info" display="none">
</g>
</svg>
