<?xml version="1.0" encoding="utf-8"?>
<!-- Generator: Adobe Illustrator 17.0.0, SVG Export Plug-In . SVG Version: 6.00 Build 0)  -->
<!DOCTYPE svg PUBLIC "-//W3C//DTD SVG 1.1//EN" "http://www.w3.org/Graphics/SVG/1.1/DTD/svg11.dtd">
<svg version="1.1" xmlns="http://www.w3.org/2000/svg" xmlns:xlink="http://www.w3.org/1999/xlink" x="0px" y="0px" width="48px"
	 height="48px" viewBox="0 0 48 48" enable-background="new 0 0 48 48" xml:space="preserve">
<g id="Layer_3">
	<g>
		<path fill="#010101" d="M9,38.75c-2.481,0-4.5,2.019-4.5,4.5c0,2.481,2.019,4.5,4.5,4.5c2.481,0,4.5-2.019,4.5-4.5
			C13.5,40.769,11.481,38.75,9,38.75z"/>
		<path fill="#010101" d="M47,42.25h-1v-9c0-0.553-0.447-1-1-1H28v-7c0-0.553-0.447-1-1-1H16c-0.379,0-0.725,0.214-0.895,0.553
			l-3.724,7.447H4c-2.206,0-4,1.794-4,4v7c0,0.553,0.447,1,1,1h2.596c-0.06-0.325-0.096-0.658-0.096-1c0-3.032,2.468-5.5,5.5-5.5
			c3.032,0,5.5,2.468,5.5,5.5c0,0.342-0.036,0.675-0.096,1h13.191c-0.06-0.325-0.096-0.658-0.096-1c0-3.032,2.468-5.5,5.5-5.5
			c3.032,0,5.5,2.468,5.5,5.5c0,0.342-0.036,0.675-0.096,1H45h2c0.553,0,1-0.447,1-1C48,42.697,47.553,42.25,47,42.25z M21,30.25
			h-1.382l-1.724,3.447c-0.176,0.351-0.528,0.553-0.895,0.553c-0.15,0-0.303-0.034-0.446-0.105
			c-0.494-0.247-0.694-0.848-0.447-1.342l2-4c0.17-0.339,0.516-0.553,0.895-0.553h2c0.553,0,1,0.447,1,1
			C22,29.803,21.553,30.25,21,30.25z"/>
		<path fill="#010101" d="M33,38.75c-2.481,0-4.5,2.019-4.5,4.5c0,2.481,2.019,4.5,4.5,4.5c2.481,0,4.5-2.019,4.5-4.5
			C37.5,40.769,35.481,38.75,33,38.75z"/>
	</g>
</g>
<g id="nyt_x5F_exporter_x5F_info" display="none">
</g>
</svg>
