<?xml version="1.0" encoding="utf-8"?>
<!-- Generator: Adobe Illustrator 17.0.0, SVG Export Plug-In . SVG Version: 6.00 Build 0)  -->
<!DOCTYPE svg PUBLIC "-//W3C//DTD SVG 1.1//EN" "http://www.w3.org/Graphics/SVG/1.1/DTD/svg11.dtd">
<svg version="1.1" xmlns="http://www.w3.org/2000/svg" xmlns:xlink="http://www.w3.org/1999/xlink" x="0px" y="0px" width="48px"
	 height="48px" viewBox="0 0 48 48" enable-background="new 0 0 48 48" xml:space="preserve">
<g id="Layer_3">
	<g>
		<path fill="#010101" d="M43.617,27.744c-0.511-1.234-1.472-2.195-2.727-2.715l-28.197-10.95l-1.852-5.555
			c-0.09-0.271-0.292-0.49-0.555-0.602l-7-3C2.979,4.788,2.624,4.819,2.342,5.006c-0.28,0.186-0.449,0.499-0.449,0.835v13
			c0,0.409,0.249,0.776,0.629,0.929l12.856,5.142L2.47,30.935c-0.365,0.17-0.592,0.543-0.576,0.945
			c0.016,0.402,0.27,0.756,0.647,0.897l8,3c0.113,0.042,0.233,0.063,0.352,0.063c0.095,0,0.19-0.014,0.282-0.041l16.684-4.906
			l9.226,3.383c0.611,0.253,1.254,0.382,1.911,0.382c2.03,0,3.845-1.213,4.621-3.089C44.128,30.336,44.128,28.978,43.617,27.744z"/>
		<path fill="#010101" d="M21.621,16.185c0.098,0.269,0.307,0.482,0.572,0.587l7.334,2.889c0.119,0.047,0.243,0.069,0.366,0.069
			c0.262,0,0.519-0.103,0.71-0.296c0.282-0.284,0.367-0.708,0.217-1.079l-4-9.889c-0.099-0.244-0.29-0.44-0.533-0.544l-7-3
			c-0.367-0.158-0.791-0.081-1.081,0.193c-0.29,0.274-0.389,0.695-0.251,1.069L21.621,16.185z"/>
	</g>
</g>
<g id="nyt_x5F_exporter_x5F_info" display="none">
</g>
</svg>
