<?xml version="1.0" encoding="utf-8"?>
<!-- Generator: Adobe Illustrator 17.0.0, SVG Export Plug-In . SVG Version: 6.00 Build 0)  -->
<!DOCTYPE svg PUBLIC "-//W3C//DTD SVG 1.1//EN" "http://www.w3.org/Graphics/SVG/1.1/DTD/svg11.dtd">
<svg version="1.1" xmlns="http://www.w3.org/2000/svg" xmlns:xlink="http://www.w3.org/1999/xlink" x="0px" y="0px" width="48px"
	 height="48px" viewBox="0 0 48 48" enable-background="new 0 0 48 48" xml:space="preserve">
<g id="Layer_3">
	<g>
		<path fill="#010101" d="M47.485,13.367c-0.777-1.875-2.591-3.087-4.62-3.087c-0.658,0-1.302,0.128-1.929,0.389L14.03,22.373
			l-5.582-2.791c-0.263-0.131-0.57-0.139-0.841-0.024l-7,3c-0.306,0.131-0.525,0.404-0.589,0.729
			c-0.062,0.326,0.041,0.662,0.275,0.896l9,9c0.283,0.282,0.708,0.368,1.078,0.222l12.898-5.159l-5.205,13.879
			c-0.145,0.386-0.038,0.819,0.268,1.095c0.188,0.169,0.427,0.257,0.669,0.257c0.152,0,0.306-0.034,0.447-0.105l8-4
			c0.193-0.097,0.351-0.254,0.447-0.447l7.824-15.647l9.058-3.376C47.324,18.846,48.539,15.915,47.485,13.367z"/>
		<path fill="#010101" d="M11.27,13.992l9.424,3.746c0.118,0.047,0.244,0.07,0.369,0.07c0.136,0,0.271-0.027,0.399-0.083
			l7.228-3.144c0.37-0.161,0.607-0.529,0.601-0.934c-0.007-0.404-0.256-0.765-0.632-0.913L19.398,9.07
			c-0.241-0.096-0.512-0.094-0.751,0.006l-7.391,3.062c-0.376,0.156-0.62,0.524-0.617,0.931
			C10.642,13.477,10.891,13.842,11.27,13.992z"/>
	</g>
</g>
<g id="nyt_x5F_exporter_x5F_info" display="none">
</g>
</svg>
