<?xml version="1.0" encoding="utf-8"?>
<!-- Generator: Adobe Illustrator 17.0.0, SVG Export Plug-In . SVG Version: 6.00 Build 0)  -->
<!DOCTYPE svg PUBLIC "-//W3C//DTD SVG 1.1//EN" "http://www.w3.org/Graphics/SVG/1.1/DTD/svg11.dtd">
<svg version="1.1" xmlns="http://www.w3.org/2000/svg" xmlns:xlink="http://www.w3.org/1999/xlink" x="0px" y="0px" width="48px"
	 height="48px" viewBox="0 0 48 48" enable-background="new 0 0 48 48" xml:space="preserve">
<g id="Layer_3">
	<path fill="#010101" d="M45.969,2.025c-1.132-1.133-2.626-1.757-4.206-1.757c-1.581,0-3.075,0.624-4.208,1.757l-5.707,5.707
		c-3.131-0.002-5.968-0.02-8.535-0.036c-2.2-0.014-4.202-0.026-6.02-0.026c-11.191,0-17.031,0.269-17.031,6.062
		c0,4.652,4.157,4.819,10.449,5.071c2.613,0.105,5.769,0.231,9.407,0.658L9.848,29.732H5.262c-2.757,0-5,2.243-5,5
		c0,3.739,2.748,4.517,5.657,5.34c0.494,0.141,1.013,0.287,1.548,0.454c0.156,0.501,0.295,0.991,0.428,1.465
		c0.797,2.822,1.62,5.741,5.367,5.741c2.757,0,5-2.243,5-5v-4.586l10.271-10.271c0.43,3.653,0.557,6.814,0.662,9.432
		c0.252,6.277,0.419,10.425,5.067,10.425c1.861,0,3.168-0.447,4.112-1.406c2.26-2.296,2.181-7.259,2.009-18.133
		c-0.056-3.475-0.117-7.401-0.121-12.047l5.707-5.707C48.327,8.079,48.327,4.382,45.969,2.025z"/>
</g>
<g id="nyt_x5F_exporter_x5F_info" display="none">
</g>
</svg>
