<?xml version="1.0" encoding="utf-8"?>
<!-- Generator: Adobe Illustrator 17.0.0, SVG Export Plug-In . SVG Version: 6.00 Build 0)  -->
<!DOCTYPE svg PUBLIC "-//W3C//DTD SVG 1.1//EN" "http://www.w3.org/Graphics/SVG/1.1/DTD/svg11.dtd">
<svg version="1.1" xmlns="http://www.w3.org/2000/svg" xmlns:xlink="http://www.w3.org/1999/xlink" x="0px" y="0px" width="48px"
	 height="48px" viewBox="0 0 48 48" enable-background="new 0 0 48 48" xml:space="preserve">
<g id="Layer_3">
	<g>
		<path fill="#010101" d="M43,16H13.414l-3.707-3.707C9.52,12.106,9.266,12,9,12H1c-0.347,0-0.668,0.18-0.851,0.475
			s-0.199,0.663-0.044,0.973l6,12C6.275,25.786,6.621,26,7,26h13.586L10.293,36.293c-0.286,0.286-0.372,0.716-0.217,1.09
			C10.231,37.757,10.596,38,11,38h10c0.266,0,0.519-0.105,0.707-0.293L33.414,26H43c2.757,0,5-2.243,5-5C48,18.243,45.757,16,43,16z
			"/>
		<path fill="#010101" d="M21.293,14.707C21.481,14.895,21.734,15,22,15h8c0.404,0,0.769-0.243,0.924-0.617
			c0.155-0.374,0.069-0.804-0.217-1.09l-7-7C23.52,6.106,23.266,6,23,6h-8c-0.404,0-0.769,0.243-0.924,0.617
			c-0.155,0.374-0.069,0.804,0.217,1.09L21.293,14.707z"/>
	</g>
</g>
<g id="nyt_x5F_exporter_x5F_info" display="none">
</g>
</svg>
