<?xml version="1.0" encoding="utf-8"?>
<!-- Generator: Adobe Illustrator 17.0.0, SVG Export Plug-In . SVG Version: 6.00 Build 0)  -->
<!DOCTYPE svg PUBLIC "-//W3C//DTD SVG 1.1//EN" "http://www.w3.org/Graphics/SVG/1.1/DTD/svg11.dtd">
<svg version="1.1" xmlns="http://www.w3.org/2000/svg" xmlns:xlink="http://www.w3.org/1999/xlink" x="0px" y="0px" width="48px"
	 height="48px" viewBox="0 0 48 48" enable-background="new 0 0 48 48" xml:space="preserve">
<g id="Layer_3">
	<g>
		<path fill="#010101" d="M15.566,0.082c-1.055-0.311-2.172,0.292-2.484,1.352l-13,44c-0.313,1.059,0.292,2.172,1.352,2.484
			c0.189,0.056,0.38,0.083,0.567,0.083c0.863,0,1.66-0.565,1.917-1.435l13-44C17.231,1.507,16.626,0.394,15.566,0.082z"/>
		<path fill="#010101" d="M47.918,45.433l-13-44c-0.313-1.06-1.427-1.663-2.484-1.352c-1.06,0.312-1.665,1.426-1.352,2.484l13,44
			c0.257,0.87,1.054,1.435,1.917,1.435c0.187,0,0.379-0.027,0.567-0.083C47.626,47.605,48.231,46.492,47.918,45.433z"/>
		<path fill="#010101" d="M24,37c-1.105,0-2,0.895-2,2v7c0,1.104,0.895,2,2,2c1.104,0,2-0.896,2-2v-7C26,37.895,25.104,37,24,37z"/>
		<path fill="#010101" d="M24,21c-1.105,0-2,0.895-2,2v8c0,1.104,0.895,2,2,2c1.104,0,2-0.896,2-2v-8C26,21.895,25.104,21,24,21z"/>
		<path fill="#010101" d="M24,7c-1.105,0-2,0.895-2,2v6c0,1.104,0.895,2,2,2c1.104,0,2-0.896,2-2V9C26,7.895,25.104,7,24,7z"/>
		<path fill="#010101" d="M24,0c-1.105,0-2,0.895-2,2v1c0,1.104,0.895,2,2,2c1.104,0,2-0.896,2-2V2C26,0.895,25.104,0,24,0z"/>
	</g>
</g>
<g id="nyt_x5F_exporter_x5F_info" display="none">
</g>
</svg>
