<?xml version="1.0" encoding="utf-8"?>
<!-- Generator: Adobe Illustrator 17.0.0, SVG Export Plug-In . SVG Version: 6.00 Build 0)  -->
<!DOCTYPE svg PUBLIC "-//W3C//DTD SVG 1.1//EN" "http://www.w3.org/Graphics/SVG/1.1/DTD/svg11.dtd">
<svg version="1.1" xmlns="http://www.w3.org/2000/svg" xmlns:xlink="http://www.w3.org/1999/xlink" x="0px" y="0px" width="48px"
	 height="48px" viewBox="0 0 48 48" enable-background="new 0 0 48 48" xml:space="preserve">
<g id="Layer_3">
	<g>
		<path fill="#010101" d="M47.504,0.498c-0.23-0.23-0.556-0.335-0.871-0.279c-0.901,0.15-8.868,1.532-11.15,3.814
			c-1.056,1.056-13.539,13.571-19.787,19.836l8.473,8.446l19.799-19.798c2.283-2.281,3.665-10.247,3.815-11.148
			C47.836,1.05,47.732,0.726,47.504,0.498z"/>
		<path fill="#010101" d="M22.754,33.73l-8.471-8.445c-1.303,1.306-2.106,2.112-2.106,2.112c-0.39,0.391-0.39,1.024,0.001,1.413
			l7.041,7.041c0.188,0.188,0.441,0.293,0.707,0.293c0.266,0,0.52-0.105,0.707-0.293L22.754,33.73z"/>
		<path fill="#010101" d="M32.253,28.751c0-0.404-0.243-0.769-0.617-0.924c-0.374-0.157-0.804-0.069-1.09,0.217l-9.297,9.293
			c-0.16,0.159-0.261,0.369-0.286,0.594l-1,8.752c-0.049,0.422,0.176,0.829,0.559,1.014c0.139,0.067,0.287,0.1,0.435,0.1
			c0.26,0,0.516-0.101,0.707-0.293l7.07-7.07c0.95-0.95,2.532-3.017,3.071-4.635c0.622-1.864,0.533-4.372,0.475-6.032
			C32.266,29.373,32.253,29.027,32.253,28.751z"/>
		<path fill="#010101" d="M11.099,26.367l9.084-9.111c0.273-0.182,0.462-0.479,0.462-0.816c0-0.041-0.013-1.001-1.129-1.001
			c-0.882,0-5.378,0.033-7.375,0.699c-1.593,0.532-3.608,2.164-4.574,3.13l-7.07,7.07c-0.306,0.306-0.38,0.772-0.185,1.157
			c0.172,0.341,0.52,0.55,0.893,0.55c0.049,0,0.099-0.004,0.149-0.011l9.188-1.384C10.751,26.618,10.947,26.518,11.099,26.367z"/>
		<path fill="#010101" d="M13.562,31.609c-1.656-1.655-4.298-1.359-6.364,0.707c-2.09,2.091-4.267,10.825-4.508,11.813
			c-0.083,0.34,0.018,0.699,0.266,0.945c0.19,0.189,0.444,0.292,0.706,0.292c0.08,0,0.161-0.01,0.24-0.029
			c0.986-0.244,9.691-2.447,11.782-4.535c2.113-2.116,2.398-4.675,0.706-6.365L13.562,31.609z"/>
	</g>
</g>
<g id="nyt_x5F_exporter_x5F_info" display="none">
</g>
</svg>
