<?xml version="1.0" encoding="utf-8"?>
<!-- Generator: Adobe Illustrator 17.0.0, SVG Export Plug-In . SVG Version: 6.00 Build 0)  -->
<!DOCTYPE svg PUBLIC "-//W3C//DTD SVG 1.1//EN" "http://www.w3.org/Graphics/SVG/1.1/DTD/svg11.dtd">
<svg version="1.1" xmlns="http://www.w3.org/2000/svg" xmlns:xlink="http://www.w3.org/1999/xlink" x="0px" y="0px" width="48px"
	 height="48px" viewBox="0 0 48 48" enable-background="new 0 0 48 48" xml:space="preserve">
<g id="Layer_3">
	<g>
		<path fill="#010101" d="M17,36.841H5c-0.553,0-1,0.447-1,1c0,3.859,3.141,7,7,7c3.859,0,7-3.141,7-7
			C18,37.288,17.553,36.841,17,36.841z"/>
		<path fill="#010101" d="M45,35.841H33c-0.553,0-1,0.447-1,1c0,4.636,2.944,8,7,8c4.056,0,7-3.364,7-8
			C46,36.288,45.553,35.841,45,35.841z"/>
		<path fill="#010101" d="M39,24.841h-3.155c0.1-0.654,0.155-1.321,0.155-2v-3.026c0.838,0.635,1.87,1.026,3,1.026
			c0.553,0,1-0.447,1-1v-8c0-0.553-0.447-1-1-1c-1.13,0-2.162,0.391-3,1.026v-0.026c0-2.206-1.794-4-4-4h-3c-0.553,0-1,0.447-1,1
			s0.447,1,1,1h3c1.102,0,2,0.898,2,2v11c0,1.189-0.189,2.339-0.54,3.421c-0.027,0.081-0.06,0.171-0.094,0.265
			c-0.025,0.071-0.052,0.14-0.079,0.21c-0.289,0.745-0.775,1.771-1.547,2.796c-0.024,0.031-0.049,0.06-0.073,0.091
			c-0.116,0.15-0.235,0.301-0.363,0.45c-0.167,0.191-0.34,0.377-0.521,0.556c-0.076,0.076-0.159,0.149-0.238,0.223
			c-0.096,0.09-0.193,0.18-0.292,0.266c-0.361,0.309-0.755,0.602-1.191,0.866c-0.065,0.04-0.115,0.093-0.168,0.145
			c-0.633,0.399-1.313,0.737-2.035,1.006c-0.489-3.162-2.295-5.835-4.824-7.492C23.179,25.221,24,24.129,24,22.841v-4
			c0-0.553-0.447-1-1-1H3c-0.553,0-1,0.447-1,1v1.998c0,0.265,0.105,0.52,0.293,0.707l3.572,3.574C2.381,26.968,0,30.63,0,34.841
			c0,0.553,0.447,1,1,1h22c1.318,0,2.619-0.196,3.865-0.584c1.103-0.343,2.128-0.826,3.069-1.416H47c0.553,0,1-0.447,1-1
			C48,28.43,43.963,24.841,39,24.841z"/>
	</g>
</g>
<g id="nyt_x5F_exporter_x5F_info" display="none">
</g>
</svg>
