<?xml version="1.0" encoding="utf-8"?>
<!-- Generator: Adobe Illustrator 17.0.0, SVG Export Plug-In . SVG Version: 6.00 Build 0)  -->
<!DOCTYPE svg PUBLIC "-//W3C//DTD SVG 1.1//EN" "http://www.w3.org/Graphics/SVG/1.1/DTD/svg11.dtd">
<svg version="1.1" xmlns="http://www.w3.org/2000/svg" xmlns:xlink="http://www.w3.org/1999/xlink" x="0px" y="0px" width="48px"
	 height="48px" viewBox="0 0 48 48" enable-background="new 0 0 48 48" xml:space="preserve">
<g id="Layer_3">
	<g>
		<path fill="#010101" d="M41.852,46.046c-0.298-0.466-0.916-0.604-1.381-0.309c-0.526,0.336-1.354,0.353-1.925,0.038
			c-0.555-0.305-0.555-0.753-0.555-0.9c0-1.804-1.254-2.836-2.698-3.115l2.792-11.429c-0.006-0.002-0.011,0-0.017-0.002
			l-13.076-4.093v13.972c0,0.553-0.447,1-1,1s-1-0.447-1-1V26.235L9.897,30.327l2.866,11.735c-1.013,0.481-1.772,1.413-1.772,2.813
			c0,0.411-0.197,0.729-0.588,0.943c-0.568,0.312-1.381,0.305-1.889-0.017c-0.468-0.298-1.085-0.157-1.38,0.309
			c-0.296,0.467-0.156,1.085,0.31,1.38c1.133,0.717,2.709,0.747,3.924,0.079c1.031-0.568,1.623-1.551,1.623-2.695
			c0-1.215,1.347-1.25,1.5-1.25c0.423,0,0.821,0.125,1.094,0.344c0.273,0.218,0.406,0.515,0.406,0.906
			c0,0.995,0.411,1.872,1.156,2.469c0.63,0.504,1.463,0.781,2.344,0.781c1.739,0,3.5-1.116,3.5-3.25c0-1.215,1.347-1.25,1.5-1.25
			c0.423,0,0.821,0.125,1.094,0.344c0.273,0.218,0.406,0.515,0.406,0.906c0,0.995,0.411,1.872,1.156,2.469
			c0.63,0.504,1.463,0.781,2.344,0.781c1.739,0,3.5-1.116,3.5-3.25c0-1.215,1.347-1.25,1.5-1.25c0.423,0,0.821,0.125,1.094,0.344
			c0.273,0.218,0.406,0.515,0.406,0.906c0,1.13,0.58,2.097,1.591,2.652c1.198,0.658,2.828,0.617,3.961-0.1
			C42.01,47.13,42.148,46.513,41.852,46.046z"/>
		<path fill="#010101" d="M8.256,23.605l1.167,4.776l13.57-4.24v-6.057l-9,2.117v-5.325c0-1.654,1.346-3,3-3h4h6h4
			c1.654,0,3,1.346,3,3V20.2l-9-2.117v6.057l13.568,4.247l1.168-4.782l1.034,0.243c0.077,0.018,0.154,0.026,0.23,0.026
			c0.453,0,0.864-0.31,0.973-0.77c0.126-0.538-0.207-1.076-0.744-1.203l-5.229-1.23v-5.796c0-2.757-2.243-5-5-5h-3v-4h-8v4h-3
			c-2.757,0-5,2.243-5,5v5.796l-5.23,1.23c-0.537,0.127-0.87,0.665-0.744,1.203c0.126,0.537,0.665,0.862,1.203,0.744L8.256,23.605z"
			/>
		<path fill="#010101" d="M29.992,14.875c0-0.553-0.447-1-1-1h-10c-0.553,0-1,0.447-1,1c0,0.553,0.447,1,1,1h10
			C29.545,15.875,29.992,15.428,29.992,14.875z"/>
		<path fill="#010101" d="M27.992,0.875c0-0.553-0.447-1-1-1h-6c-0.553,0-1,0.447-1,1v3h8V0.875z"/>
	</g>
</g>
<g id="nyt_x5F_exporter_x5F_info" display="none">
</g>
</svg>
