<?xml version="1.0" encoding="utf-8"?>
<!-- Generator: Adobe Illustrator 17.0.0, SVG Export Plug-In . SVG Version: 6.00 Build 0)  -->
<!DOCTYPE svg PUBLIC "-//W3C//DTD SVG 1.1//EN" "http://www.w3.org/Graphics/SVG/1.1/DTD/svg11.dtd">
<svg version="1.1" xmlns="http://www.w3.org/2000/svg" xmlns:xlink="http://www.w3.org/1999/xlink" x="0px" y="0px" width="48px"
	 height="48px" viewBox="0 0 48 48" enable-background="new 0 0 48 48" xml:space="preserve">
<g id="Layer_3">
	<g>
		<path fill="#010101" d="M46.885,27h-3V15h3c0.553,0,1-0.447,1-1c0-0.553-0.447-1-1-1h-4h-18h-2c-0.553,0-1,0.447-1,1
			c0,0.553,0.447,1,1,1h1v10h-10v-6h1c0.553,0,1-0.447,1-1c0-0.553-0.447-1-1-1h-2h-4h-2c-0.553,0-1,0.447-1,1c0,0.553,0.447,1,1,1
			h1v6h-2c-3.016,0-3.25,6.123-3.25,8c0,1.301,0.115,4.639,1.188,6.567l-3.331,2.651c-0.432,0.344-0.503,0.973-0.159,1.405
			C0.53,43.871,0.821,44,1.116,44c0.218,0,0.438-0.071,0.622-0.218L5.234,41H7.48c0.472-2.556,2.714-4.5,5.404-4.5
			s4.932,1.944,5.404,4.5h1.191c0.472-2.556,2.714-4.5,5.404-4.5s4.932,1.944,5.404,4.5h1.191c0.472-2.556,2.714-4.5,5.404-4.5
			s4.932,1.944,5.404,4.5h4.596c0.553,0,1-0.447,1-1V28C47.885,27.447,47.437,27,46.885,27z M11.885,25h-2v-6h2V25z M39.885,24
			c0,0.553-0.447,1-1,1h-10c-0.553,0-1-0.447-1-1v-6c0-0.553,0.447-1,1-1h10c0.553,0,1,0.447,1,1V24z"/>
		<path fill="#010101" d="M12.885,37.5c-2.481,0-4.5,2.019-4.5,4.5c0,2.481,2.019,4.5,4.5,4.5s4.5-2.019,4.5-4.5
			C17.385,39.519,15.366,37.5,12.885,37.5z"/>
		<path fill="#010101" d="M24.885,37.5c-2.481,0-4.5,2.019-4.5,4.5c0,2.481,2.019,4.5,4.5,4.5s4.5-2.019,4.5-4.5
			C29.385,39.519,27.366,37.5,24.885,37.5z"/>
		<path fill="#010101" d="M36.885,37.5c-2.481,0-4.5,2.019-4.5,4.5c0,2.481,2.019,4.5,4.5,4.5s4.5-2.019,4.5-4.5
			C41.385,39.519,39.366,37.5,36.885,37.5z"/>
	</g>
</g>
<g id="nyt_x5F_exporter_x5F_info" display="none">
</g>
</svg>
