<?xml version="1.0" encoding="utf-8"?>
<!-- Generator: Adobe Illustrator 17.0.0, SVG Export Plug-In . SVG Version: 6.00 Build 0)  -->
<!DOCTYPE svg PUBLIC "-//W3C//DTD SVG 1.1//EN" "http://www.w3.org/Graphics/SVG/1.1/DTD/svg11.dtd">
<svg version="1.1" xmlns="http://www.w3.org/2000/svg" xmlns:xlink="http://www.w3.org/1999/xlink" x="0px" y="0px" width="48px"
	 height="48px" viewBox="0 0 48 48" enable-background="new 0 0 48 48" xml:space="preserve">
<g id="Layer_3">
	<g>
		<path fill="#010101" d="M47,40c0.553,0,1-0.447,1-1c0-0.553-0.447-1-1-1h-1v-2H34v2h-5H19h-5v-2H2v2H1c-0.553,0-1,0.447-1,1
			c0,0.553,0.447,1,1,1h2h4.026C6.391,40.838,6,41.87,6,43c0,1.13,0.391,2.162,1.026,3H1c-0.553,0-1,0.447-1,1c0,0.553,0.447,1,1,1
			h46c0.553,0,1-0.447,1-1c0-0.553-0.447-1-1-1h-6.026C41.609,45.162,42,44.13,42,43c0-1.13-0.391-2.162-1.026-3H45H47z M11,44
			h2.816c-0.414,1.162-1.514,2-2.816,2c-1.654,0-3-1.346-3-3c0-1.654,1.346-3,3-3c1.302,0,2.402,0.838,2.816,2H11
			c-0.553,0-1,0.447-1,1C10,43.553,10.447,44,11,44z M18,40v2h-2.101c-0.152-0.743-0.482-1.416-0.925-2H18z M14.974,46
			c0.442-0.584,0.773-1.257,0.925-2H19h10h3.101c0.152,0.743,0.482,1.416,0.924,2H14.974z M32.101,42H30v-2h3.026
			C32.583,40.584,32.253,41.257,32.101,42z M37,46c-1.302,0-2.402-0.838-2.816-2H37c0.553,0,1-0.447,1-1c0-0.553-0.447-1-1-1h-2.816
			c0.414-1.162,1.514-2,2.816-2c1.654,0,3,1.346,3,3C40,44.654,38.654,46,37,46z"/>
		<path fill="#010101" d="M47,18h-2h-5v-2h3c0.553,0,1-0.447,1-1c0-0.553-0.447-1-1-1h-4H29v-2.586l3.707-3.707
			c0.391-0.391,0.391-1.023,0-1.414L28.414,2H47c0.553,0,1-0.447,1-1c0-0.553-0.447-1-1-1H1C0.447,0,0,0.447,0,1
			c0,0.553,0.447,1,1,1h18.586l-4.293,4.293c-0.391,0.391-0.391,1.023,0,1.414L19,11.414V14H9H5c-0.553,0-1,0.447-1,1
			c0,0.553,0.447,1,1,1h3v2H3H1c-0.553,0-1,0.447-1,1c0,0.553,0.447,1,1,1h1v14h12V20h20v14h12V20h1c0.553,0,1-0.447,1-1
			C48,18.447,47.553,18,47,18z M20.414,10l-3-3l5-5h3.172l5,5l-3,3H20.414z"/>
		<path fill="#010101" d="M31,32c0.553,0,1-0.447,1-1v-8c0-0.553-0.447-1-1-1H17c-0.553,0-1,0.447-1,1v8c0,0.553,0.447,1,1,1H31z"/>
	</g>
</g>
<g id="nyt_x5F_exporter_x5F_info" display="none">
</g>
</svg>
