<?xml version="1.0" encoding="utf-8"?>
<!-- Generator: Adobe Illustrator 17.0.0, SVG Export Plug-In . SVG Version: 6.00 Build 0)  -->
<!DOCTYPE svg PUBLIC "-//W3C//DTD SVG 1.1//EN" "http://www.w3.org/Graphics/SVG/1.1/DTD/svg11.dtd">
<svg version="1.1" id="Layer_2" xmlns="http://www.w3.org/2000/svg" xmlns:xlink="http://www.w3.org/1999/xlink" x="0px" y="0px"
	 width="48px" height="48px" viewBox="0 0 48 48" enable-background="new 0 0 48 48" xml:space="preserve">
<path fill="#010101" d="M47.41,0.088c-0.358-0.162-0.779-0.098-1.074,0.165L30,14.774V3c0-0.379-0.214-0.725-0.553-0.895
	c-0.34-0.169-0.744-0.134-1.047,0.095l-28,21C0.148,23.389,0,23.686,0,24c0,0.315,0.148,0.611,0.4,0.8l28,21
	c0.303,0.228,0.708,0.262,1.047,0.095C29.786,45.725,30,45.379,30,45V33.227l16.335,14.521C46.522,47.914,46.76,48,47,48
	c0.139,0,0.278-0.028,0.41-0.088C47.769,47.751,48,47.394,48,47V1C48,0.607,47.769,0.249,47.41,0.088z"/>
</svg>
