<?xml version="1.0" encoding="utf-8"?>
<!-- Generator: Adobe Illustrator 17.0.0, SVG Export Plug-In . SVG Version: 6.00 Build 0)  -->
<!DOCTYPE svg PUBLIC "-//W3C//DTD SVG 1.1//EN" "http://www.w3.org/Graphics/SVG/1.1/DTD/svg11.dtd">
<svg version="1.1" id="Layer_2" xmlns="http://www.w3.org/2000/svg" xmlns:xlink="http://www.w3.org/1999/xlink" x="0px" y="0px"
	 width="48px" height="48px" viewBox="0 0 48 48" enable-background="new 0 0 48 48" xml:space="preserve">
<g>
	<rect x="8" y="38" fill="#010101" width="20" height="2"/>
	<path fill="#010101" d="M43,30H5c-2.757,0-5,2.243-5,5v6c0,2.757,2.243,5,5,5h1v1c0,0.553,0.448,1,1,1c0.552,0,1-0.447,1-1v-1h32v1
		c0,0.553,0.448,1,1,1c0.552,0,1-0.447,1-1v-1h1c2.757,0,5-2.243,5-5v-6C48,32.244,45.757,30,43,30z M30,41c0,0.553-0.448,1-1,1H7
		c-0.552,0-1-0.447-1-1v-4c0-0.553,0.448-1,1-1h22c0.552,0,1,0.447,1,1V41z M35,39c-1.103,0-2-0.898-2-2c0-1.103,0.897-2,2-2
		s2,0.897,2,2C37,38.103,36.103,39,35,39z M41,39c-1.103,0-2-0.898-2-2c0-1.103,0.897-2,2-2s2,0.897,2,2C43,38.103,42.103,39,41,39z
		"/>
	<path fill="#010101" d="M24,23c2.757,0,5-2.243,5-5s-2.243-5-5-5c-2.757,0-5,2.243-5,5S21.243,23,24,23z M24,15
		c1.654,0,3,1.346,3,3c0,1.654-1.346,3-3,3c-1.654,0-3-1.346-3-3C21,16.346,22.346,15,24,15z"/>
	<circle fill="#010101" cx="24" cy="18" r="1"/>
	<path fill="#010101" d="M7.887,28h32.227c0.378,0,0.725-0.214,0.894-0.553C42.33,24.806,43,21.963,43,19C43,8.524,34.477,0,24,0
		C13.523,0,5,8.524,5,19c0,2.963,0.67,5.806,1.993,8.447C7.162,27.787,7.508,28,7.887,28z M24,5c7.168,0,13,5.832,13,13
		c0,0.553-0.448,1-1,1c-0.552,0-1-0.447-1-1c0-6.065-4.935-11-11-11c-0.552,0-1-0.447-1-1S23.448,5,24,5z M24,11c3.86,0,7,3.141,7,7
		c0,3.859-3.14,7-7,7c-3.86,0-7-3.141-7-7C17,14.141,20.14,11,24,11z"/>
</g>
</svg>
