<?xml version="1.0" encoding="utf-8"?>
<!-- Generator: Adobe Illustrator 17.0.0, SVG Export Plug-In . SVG Version: 6.00 Build 0)  -->
<!DOCTYPE svg PUBLIC "-//W3C//DTD SVG 1.1//EN" "http://www.w3.org/Graphics/SVG/1.1/DTD/svg11.dtd">
<svg version="1.1" id="Layer_2" xmlns="http://www.w3.org/2000/svg" xmlns:xlink="http://www.w3.org/1999/xlink" x="0px" y="0px"
	 width="48px" height="48px" viewBox="0 0 48 48" enable-background="new 0 0 48 48" xml:space="preserve">
<path fill="#010101" d="M41,36H7c-1.654,0-3-1.346-3-3c0-1.654,1.346-3,3-3h13.068c2.958,2.492,6.77,4,10.932,4
	c9.374,0,17-7.626,17-17S40.374,0,31,0S14,7.626,14,17c0,3.307,0.964,6.386,2.604,9H7c-3.86,0-7,3.141-7,7c0,3.859,3.14,7,7,7h34
	c1.103,0,2,0.898,2,2c0,1.103-0.897,2-2,2H21c-1.105,0-2,0.896-2,2c0,1.105,0.895,2,2,2h20c3.309,0,6-2.691,6-6
	C47,38.692,44.309,36,41,36z M35.829,29.026c-1.418,0.565-2.948,0.852-4.553,0.852c-1.692,0-3.441-0.315-5.199-0.934
	c-0.254-0.09-0.462-0.278-0.575-0.523c-0.113-0.245-0.123-0.525-0.026-0.777l1.911-5c0.106-0.276,0.329-0.492,0.609-0.588
	c0.28-0.098,0.588-0.062,0.842,0.089c1.279,0.771,2.853,0.818,4.457,0.154c0.248-0.103,0.526-0.102,0.773,0.003
	c0.247,0.104,0.441,0.304,0.54,0.554l1.867,4.725c0.068,0.128,0.109,0.271,0.115,0.42C36.611,28.478,36.291,28.913,35.829,29.026z
	 M27,17c0-2.206,1.794-4,4-4c2.206,0,4,1.794,4,4s-1.794,4-4,4C28.794,21,27,19.207,27,17z M41.568,11.529
	c0.13-0.07,0.277-0.112,0.43-0.119c0.475-0.037,0.912,0.297,1.026,0.758c1.471,3.689,0.772,7.335-0.081,9.755
	c-0.09,0.255-0.279,0.463-0.524,0.576c-0.134,0.062-0.278,0.094-0.422,0.094c-0.12,0-0.241-0.023-0.355-0.066l-5-1.913
	c-0.276-0.106-0.492-0.328-0.588-0.608c-0.096-0.28-0.063-0.589,0.09-0.842c0.98-1.624,0.625-3.321,0.154-4.458
	c-0.103-0.248-0.102-0.526,0.003-0.773c0.105-0.246,0.304-0.44,0.553-0.539L41.568,11.529z M26.189,4.959
	c0.014-0.003,0.027-0.006,0.041-0.008c2.899-1.136,6.292-1.093,9.691,0.105c0.259,0.092,0.47,0.286,0.582,0.537
	c0.111,0.252,0.115,0.538,0.009,0.792L34.6,10.963c-0.157,0.376-0.524,0.614-0.922,0.614c-0.052,0-0.105-0.004-0.158-0.013
	c-0.137-0.021-0.264-0.071-0.376-0.142c-1.439-0.552-3.029-0.539-4.441,0.045c-0.51,0.212-1.095-0.03-1.306-0.54l-1.865-4.489
	c-0.074-0.132-0.117-0.281-0.124-0.437L25.407,5.98C25.386,5.495,25.716,5.065,26.189,4.959z M19.057,12.079
	c0.09-0.255,0.279-0.462,0.524-0.575c0.245-0.113,0.524-0.124,0.777-0.027l5,1.911c0.277,0.106,0.492,0.329,0.589,0.609
	c0.096,0.28,0.063,0.589-0.09,0.842c-0.98,1.624-0.625,3.321-0.154,4.459c0.102,0.247,0.101,0.525-0.004,0.772
	c-0.104,0.246-0.304,0.441-0.553,0.539l-4.723,1.866c-0.129,0.069-0.273,0.11-0.423,0.116c-0.015,0.001-0.029,0.001-0.043,0.001
	c-0.461,0-0.873-0.315-0.982-0.763C17.504,18.144,18.204,14.499,19.057,12.079z"/>
</svg>
