<?xml version="1.0" encoding="utf-8"?>
<!-- Generator: Adobe Illustrator 17.0.0, SVG Export Plug-In . SVG Version: 6.00 Build 0)  -->
<!DOCTYPE svg PUBLIC "-//W3C//DTD SVG 1.1//EN" "http://www.w3.org/Graphics/SVG/1.1/DTD/svg11.dtd">
<svg version="1.1" id="Layer_2" xmlns="http://www.w3.org/2000/svg" xmlns:xlink="http://www.w3.org/1999/xlink" x="0px" y="0px"
	 width="48px" height="48px" viewBox="0 0 48 48" enable-background="new 0 0 48 48" xml:space="preserve">
<path fill="#010101" d="M47.6,23.201l-28-21c-0.304-0.229-0.709-0.264-1.047-0.095C18.214,2.276,18,2.622,18,3v11.773L1.665,0.253
	C1.37-0.009,0.949-0.074,0.59,0.088C0.231,0.249,0,0.607,0,1v46c0,0.394,0.231,0.751,0.59,0.912C0.722,47.972,0.861,48,1,48
	c0.24,0,0.477-0.087,0.665-0.253L18,33.227V45c0,0.379,0.214,0.725,0.553,0.895c0.338,0.167,0.744,0.133,1.047-0.095l28-21
	c0.252-0.188,0.4-0.485,0.4-0.8C48,23.686,47.852,23.389,47.6,23.201z"/>
</svg>
