<?xml version="1.0" encoding="utf-8"?>
<!-- Generator: Adobe Illustrator 17.0.0, SVG Export Plug-In . SVG Version: 6.00 Build 0)  -->
<!DOCTYPE svg PUBLIC "-//W3C//DTD SVG 1.1//EN" "http://www.w3.org/Graphics/SVG/1.1/DTD/svg11.dtd">
<svg version="1.1" id="Layer_2" xmlns="http://www.w3.org/2000/svg" xmlns:xlink="http://www.w3.org/1999/xlink" x="0px" y="0px"
	 width="48px" height="48px" viewBox="0 0 48 48" enable-background="new 0 0 48 48" xml:space="preserve">
<g>
	<path fill="#010101" d="M11,6c-2.757,0-5,2.243-5,5c0,2.757,2.243,5,5,5c2.757,0,5-2.243,5-5C16,8.243,13.757,6,11,6z"/>
	<path fill="#010101" d="M8,47V25c0-1.626-1.067-3-2.331-3H0v17c0,4.963,4.038,9,9,9C8.448,48,8,47.553,8,47z"/>
	<path fill="#010101" d="M43,4H25c-0.552,0-1,0.447-1,1v7h-2V9c0-4.963-4.038-9-9-9H9C4.038,0,0,4.037,0,9v11h5.669
		C8.057,20,10,22.243,10,25v22c0,0.553-0.448,1-1,1h8c0.552,0,1-0.447,1-1V25h3c0.552,0,1-0.447,1-1V14h2v7c0,0.553,0.448,1,1,1h18
		c2.757,0,5-2.243,5-5V9C48,6.243,45.757,4,43,4z M11,18c-3.86,0-7-3.141-7-7c0-3.859,3.14-7,7-7c3.86,0,7,3.141,7,7
		C18,14.859,14.86,18,11,18z"/>
</g>
</svg>
