<?xml version="1.0" encoding="utf-8"?>
<!-- Generator: Adobe Illustrator 17.0.0, SVG Export Plug-In . SVG Version: 6.00 Build 0)  -->
<!DOCTYPE svg PUBLIC "-//W3C//DTD SVG 1.1//EN" "http://www.w3.org/Graphics/SVG/1.1/DTD/svg11.dtd">
<svg version="1.1" id="Layer_2" xmlns="http://www.w3.org/2000/svg" xmlns:xlink="http://www.w3.org/1999/xlink" x="0px" y="0px"
	 width="48px" height="48px" viewBox="0 0 48 48" enable-background="new 0 0 48 48" xml:space="preserve">
<g>
	<path fill="#010101" d="M2,15H0v20h2h45h1V15h-1H2z M30.414,25.911l-11,5C19.282,30.971,19.141,31,19,31
		c-0.189,0-0.377-0.054-0.542-0.159C18.173,30.657,18,30.34,18,30V20c0-0.34,0.173-0.656,0.458-0.841
		c0.286-0.184,0.647-0.211,0.955-0.069l11,5C30.771,24.252,31,24.608,31,25C31,25.393,30.771,25.748,30.414,25.911z"/>
	<rect x="16" y="7" fill="#010101" width="16" height="6"/>
	<path fill="#010101" d="M14,13V7H1C0.448,7,0,7.448,0,8v5h1H14z"/>
	<path fill="#010101" d="M34,37v6h13c0.552,0,1-0.447,1-1v-5h-1H34z"/>
	<path fill="#010101" d="M47,7H34v6h13h1V8C48,7.448,47.552,7,47,7z"/>
	<path fill="#010101" d="M0,37v5c0,0.553,0.448,1,1,1h13v-6H1H0z"/>
	<rect x="16" y="37" fill="#010101" width="16" height="6"/>
</g>
</svg>
