<?xml version="1.0" encoding="utf-8"?>
<!-- Generator: Adobe Illustrator 17.0.0, SVG Export Plug-In . SVG Version: 6.00 Build 0)  -->
<!DOCTYPE svg PUBLIC "-//W3C//DTD SVG 1.1//EN" "http://www.w3.org/Graphics/SVG/1.1/DTD/svg11.dtd">
<svg version="1.1" id="Layer_2" xmlns="http://www.w3.org/2000/svg" xmlns:xlink="http://www.w3.org/1999/xlink" x="0px" y="0px"
	 width="48px" height="48px" viewBox="0 0 48 48" enable-background="new 0 0 48 48" xml:space="preserve">
<g>
	<path fill="#010101" d="M1,8H0v32h1h46h1V8h-1H1z M24,36c-6.617,0-12-5.383-12-12s5.383-12,12-12c6.617,0,12,5.383,12,12
		S30.617,36,24,36z"/>
	<path fill="#010101" d="M47,0H34v6h13h1V1C48,0.448,47.552,0,47,0z"/>
	<rect x="16" y="0" fill="#010101" width="16" height="6"/>
	<path fill="#010101" d="M0,42v5c0,0.553,0.448,1,1,1h13v-6H1H0z"/>
	<path fill="#010101" d="M14,6V0H1C0.448,0,0,0.448,0,1v5h1H14z"/>
	<rect x="16" y="42" fill="#010101" width="16" height="6"/>
	<path fill="#010101" d="M34,42v6h13c0.552,0,1-0.447,1-1v-5h-1H34z"/>
	<path fill="#010101" d="M29.447,23.106l-8-4c-0.31-0.154-0.679-0.139-0.973,0.044C20.18,19.332,20,19.654,20,20v8
		c0,0.347,0.18,0.668,0.474,0.851C20.635,28.951,20.817,29,21,29c0.153,0,0.306-0.035,0.447-0.105l8-4
		C29.786,24.725,30,24.379,30,24S29.786,23.276,29.447,23.106z"/>
</g>
</svg>
