<?xml version="1.0" encoding="utf-8"?>
<!-- Generator: Adobe Illustrator 17.0.0, SVG Export Plug-In . SVG Version: 6.00 Build 0)  -->
<!DOCTYPE svg PUBLIC "-//W3C//DTD SVG 1.1//EN" "http://www.w3.org/Graphics/SVG/1.1/DTD/svg11.dtd">
<svg version="1.1" id="Layer_2" xmlns="http://www.w3.org/2000/svg" xmlns:xlink="http://www.w3.org/1999/xlink" x="0px" y="0px"
	 width="48px" height="48px" viewBox="0 0 48 48" enable-background="new 0 0 48 48" xml:space="preserve">
<g>
	<path fill="#010101" d="M41,0H7C3.14,0,0,3.141,0,7v34c0,3.859,3.14,7,7,7h34c3.86,0,7-3.141,7-7V7C48,3.141,44.86,0,41,0z M13,42
		H7c-0.552,0-1-0.447-1-1c0-0.553,0.448-1,1-1h6c0.552,0,1,0.447,1,1C14,41.553,13.552,42,13,42z M24,40c-3.86,0-7-3.141-7-7
		c0-3.859,3.14-7,7-7c3.86,0,7,3.141,7,7C31,36.86,27.86,40,24,40z M41,42h-6c-0.552,0-1-0.447-1-1c0-0.553,0.448-1,1-1h6
		c0.552,0,1,0.447,1,1C42,41.553,41.552,42,41,42z M42,33c0,0.553-0.448,1-1,1h-8.059C32.978,33.672,33,33.339,33,33
		c0-4.963-4.038-9-9-9c-4.962,0-9,4.037-9,9c0,0.338,0.022,0.671,0.059,1H7c-0.552,0-1-0.447-1-1V7c0-0.553,0.448-1,1-1h34
		c0.552,0,1,0.447,1,1V33z"/>
	<path fill="#010101" d="M28.447,32.106l-6-3c-0.31-0.154-0.678-0.139-0.973,0.044C21.18,29.332,21,29.654,21,30v6
		c0,0.347,0.18,0.668,0.474,0.851C21.635,36.951,21.817,37,22,37c0.153,0,0.306-0.035,0.447-0.106l6-3
		C28.786,33.725,29,33.379,29,33C29,32.622,28.786,32.276,28.447,32.106z"/>
</g>
</svg>
