<?xml version="1.0" encoding="utf-8"?>
<!-- Generator: Adobe Illustrator 17.0.0, SVG Export Plug-In . SVG Version: 6.00 Build 0)  -->
<!DOCTYPE svg PUBLIC "-//W3C//DTD SVG 1.1//EN" "http://www.w3.org/Graphics/SVG/1.1/DTD/svg11.dtd">
<svg version="1.1" id="Layer_2" xmlns="http://www.w3.org/2000/svg" xmlns:xlink="http://www.w3.org/1999/xlink" x="0px" y="0px"
	 width="48px" height="48px" viewBox="0 0 48 48" enable-background="new 0 0 48 48" xml:space="preserve">
<g>
	<path fill="#010101" d="M44.411,0.088c-0.357-0.159-0.778-0.099-1.073,0.163l-26,23C17.123,23.44,17,23.714,17,24
		c0,0.286,0.123,0.56,0.337,0.749l26,23C43.524,47.914,43.761,48,44,48c0.139,0,0.279-0.029,0.411-0.088
		C44.769,47.75,45,47.394,45,47V1C45,0.606,44.769,0.25,44.411,0.088z"/>
	<path fill="#010101" d="M12,0H4C3.448,0,3,0.447,3,1v46c0,0.553,0.448,1,1,1h8c0.552,0,1-0.447,1-1V1C13,0.447,12.552,0,12,0z"/>
</g>
</svg>
