<?xml version="1.0" encoding="utf-8"?>
<!-- Generator: Adobe Illustrator 17.0.0, SVG Export Plug-In . SVG Version: 6.00 Build 0)  -->
<!DOCTYPE svg PUBLIC "-//W3C//DTD SVG 1.1//EN" "http://www.w3.org/Graphics/SVG/1.1/DTD/svg11.dtd">
<svg version="1.1" id="Layer_2" xmlns="http://www.w3.org/2000/svg" xmlns:xlink="http://www.w3.org/1999/xlink" x="0px" y="0px"
	 width="48px" height="48px" viewBox="0 0 48 48" enable-background="new 0 0 48 48" xml:space="preserve">
<g>
	<polygon fill="#010101" points="40.414,14 36.414,18 46,18 48,18 48,14 46,14 	"/>
	<path fill="#010101" d="M14,12l-3-4L9.5,6H1C0.448,6,0,6.448,0,7v5h2H14z"/>
	<polygon fill="#010101" points="28.499,12 38,12 35,8 33.5,6 23.999,6 25.499,8 	"/>
	<path fill="#010101" d="M2,20H0v21c0,0.553,0.448,1,1,1h46c0.552,0,1-0.447,1-1V20h-2H2z M24,27c0-0.553,0.448-1,1-1
		c0.552,0,1,0.447,1,1v4c0,0.553-0.448,1-1,1c-0.552,0-1-0.447-1-1V27z M7,34h34c0.552,0,1,0.447,1,1s-0.448,1-1,1H7
		c-0.552,0-1-0.447-1-1S6.448,34,7,34z"/>
	<polygon fill="#010101" points="16.499,12 26,12 23,8 21.5,6 11.999,6 13.499,8 	"/>
	<polygon fill="#010101" points="37.586,14 28.414,14 24.414,18 33.586,18 	"/>
	<polygon fill="#010101" points="9.586,18 13.586,14 2,14 0,14 0,18 2,18 	"/>
	<polygon fill="#010101" points="12.414,18 21.586,18 25.586,14 16.414,14 	"/>
	<path fill="#010101" d="M47,6H35.999l1.5,2l3,4H46h2V7C48,6.448,47.552,6,47,6z"/>
</g>
</svg>
