<?xml version="1.0" encoding="utf-8"?>
<!-- Generator: Adobe Illustrator 17.0.0, SVG Export Plug-In . SVG Version: 6.00 Build 0)  -->
<!DOCTYPE svg PUBLIC "-//W3C//DTD SVG 1.1//EN" "http://www.w3.org/Graphics/SVG/1.1/DTD/svg11.dtd">
<svg version="1.1" id="Layer_2" xmlns="http://www.w3.org/2000/svg" xmlns:xlink="http://www.w3.org/1999/xlink" x="0px" y="0px"
	 width="48px" height="48px" viewBox="0 0 48 48" enable-background="new 0 0 48 48" xml:space="preserve">
<g>
	<path fill="#010101" d="M47.013,24.983c-0.627-0.419-1.445-0.467-2.244-0.136L36,28.501V25c0-1.654-1.346-3-3-3H5
		c-1.654,0-3,1.346-3,3v16c0,1.654,1.346,3,3,3h28c1.654,0,3-1.346,3-3v-3.5l8.769,3.653c0.35,0.146,0.703,0.219,1.043,0.219
		c0.435,0,0.848-0.119,1.2-0.355C47.64,40.6,48,39.865,48,39V27C48,26.136,47.64,25.401,47.013,24.983z M29,30H9
		c-0.552,0-1-0.447-1-1s0.448-1,1-1h20c0.552,0,1,0.447,1,1S29.552,30,29,30z"/>
	<path fill="#010101" d="M9,20c4.962,0,9-4.037,9-9s-4.038-9-9-9s-9,4.037-9,9S4.038,20,9,20z"/>
	<path fill="#010101" d="M26,20c3.309,0,6-2.691,6-6c0-3.309-2.691-6-6-6c-3.309,0-6,2.691-6,6C20,17.309,22.691,20,26,20z"/>
</g>
</svg>
