<?xml version="1.0" encoding="utf-8"?>
<!-- Generator: Adobe Illustrator 17.0.0, SVG Export Plug-In . SVG Version: 6.00 Build 0)  -->
<!DOCTYPE svg PUBLIC "-//W3C//DTD SVG 1.1//EN" "http://www.w3.org/Graphics/SVG/1.1/DTD/svg11.dtd">
<svg version="1.1" id="Layer_1" xmlns="http://www.w3.org/2000/svg" xmlns:xlink="http://www.w3.org/1999/xlink" x="0px" y="0px"
	 width="48px" height="48px" viewBox="0 0 48 48" enable-background="new 0 0 48 48" xml:space="preserve">
<g>
	<path fill="#010101" d="M24,0C10.767,0,0,10.767,0,24s10.767,24,24,24c13.233,0,24-10.767,24-24S37.233,0,24,0z M24,46
		C11.869,46,2,36.131,2,24S11.869,2,24,2s22,9.869,22,22S36.131,46,24,46z"/>
	<path fill="#010101" d="M30,24c0-3.309-2.691-6-6-6s-6,2.691-6,6s2.691,6,6,6S30,27.309,30,24z M24,28c-2.206,0-4-1.794-4-4
		s1.794-4,4-4s4,1.794,4,4S26.206,28,24,28z"/>
	<path fill="#010101" d="M19.446,16.896c1.058-0.527,2.76-0.842,4.553-0.842c1.793,0,3.496,0.315,4.556,0.842
		C28.696,16.965,28.848,17,29,17c0.003,0,0.007,0,0.01,0.002c0.586-0.011,1.01-0.444,1.01-1c0-0.137-0.028-0.268-0.078-0.387
		l-1.962-9.81c-0.078-0.391-0.381-0.698-0.771-0.782c-2.794-0.598-3.678-0.587-6.419,0c-0.39,0.084-0.693,0.391-0.771,0.782l-2,10
		c-0.075,0.374,0.07,0.759,0.373,0.99C18.696,17.027,19.104,17.066,19.446,16.896z M21.851,6.843
		c1.801-0.362,2.493-0.363,4.298,0.001l1.526,7.63c-1.092-0.273-2.358-0.421-3.676-0.421c-1.317,0-2.583,0.149-3.674,0.42
		L21.851,6.843z"/>
	<path fill="#010101" d="M20.123,31.497c-2.1-1.392-4.399-5.374-4.555-7.889c-0.023-0.38-0.262-0.714-0.614-0.861
		c-0.352-0.147-0.757-0.08-1.044,0.172l-7.66,6.733c-0.3,0.263-0.414,0.68-0.291,1.059c0.889,2.745,1.279,3.42,3.209,5.557
		c0.193,0.214,0.464,0.33,0.742,0.33c0.108,0,0.215-0.017,0.321-0.052l9.66-3.268c0.361-0.122,0.622-0.44,0.671-0.818
		C20.611,32.082,20.441,31.708,20.123,31.497z M10.215,34.438c-1.211-1.375-1.561-1.98-2.148-3.721l5.847-5.139
		c0.639,2.218,2.074,4.703,3.675,6.366L10.215,34.438z"/>
	<path fill="#010101" d="M41.749,29.651l-7.66-6.733c-0.287-0.252-0.691-0.319-1.044-0.172c-0.352,0.147-0.591,0.481-0.614,0.862
		c-0.156,2.514-2.454,6.494-4.555,7.888c-0.318,0.211-0.488,0.585-0.439,0.963c0.049,0.379,0.31,0.696,0.671,0.818l9.66,3.268
		c0.105,0.036,0.213,0.053,0.32,0.053c0.278,0,0.549-0.117,0.744-0.33c1.933-2.142,2.323-2.817,3.209-5.558
		C42.163,30.33,42.048,29.914,41.749,29.651z M37.783,34.439l-7.374-2.494c1.602-1.664,3.036-4.148,3.676-6.366l5.847,5.139
		C39.347,32.456,38.998,33.061,37.783,34.439z"/>
</g>
</svg>
