<?xml version="1.0" encoding="utf-8"?>
<!-- Generator: Adobe Illustrator 17.0.0, SVG Export Plug-In . SVG Version: 6.00 Build 0)  -->
<!DOCTYPE svg PUBLIC "-//W3C//DTD SVG 1.1//EN" "http://www.w3.org/Graphics/SVG/1.1/DTD/svg11.dtd">
<svg version="1.1" id="Layer_1" xmlns="http://www.w3.org/2000/svg" xmlns:xlink="http://www.w3.org/1999/xlink" x="0px" y="0px"
	 width="48px" height="48px" viewBox="0 0 48 48" enable-background="new 0 0 48 48" xml:space="preserve">
<g>
	<path fill="#010101" d="M47.758,0.348C47.567,0.127,47.291,0,47,0H1C0.709,0,0.433,0.127,0.242,0.348
		C0.053,0.569-0.032,0.861,0.011,1.149l6,40c0.055,0.365,0.307,0.671,0.656,0.794l17,6C23.774,47.981,23.888,48,24,48
		s0.226-0.019,0.334-0.057l17-6c0.348-0.123,0.6-0.428,0.656-0.794l6-40C48.032,0.861,47.948,0.568,47.758,0.348z M40.101,40.258
		L24,45.94L7.899,40.257L2.161,2h43.678L40.101,40.258z"/>
	<path fill="#010101" d="M13,10h18.39L14.485,20.142c-0.386,0.231-0.569,0.692-0.449,1.125C14.156,21.7,14.551,22,15,22h16.847
		l-1.745,12.217L24,35.96l-6.109-1.747l-0.825-5.366c-0.084-0.545-0.586-0.921-1.141-0.836c-0.546,0.084-0.92,0.594-0.836,1.14
		l0.923,6c0.06,0.387,0.338,0.703,0.714,0.81l7,2C23.815,37.987,23.907,38,24,38s0.185-0.013,0.274-0.038l7-2
		c0.38-0.109,0.66-0.43,0.716-0.82l2-14c0.041-0.287-0.045-0.578-0.234-0.797C33.565,20.126,33.29,20,33,20H18.61L35.515,9.858
		c0.386-0.231,0.569-0.692,0.449-1.125C35.844,8.3,35.449,8,35,8H13c-0.553,0-1,0.448-1,1S12.447,10,13,10z"/>
</g>
</svg>
