<?xml version="1.0" encoding="utf-8"?>
<!-- Generator: Adobe Illustrator 17.0.0, SVG Export Plug-In . SVG Version: 6.00 Build 0)  -->
<!DOCTYPE svg PUBLIC "-//W3C//DTD SVG 1.1//EN" "http://www.w3.org/Graphics/SVG/1.1/DTD/svg11.dtd">
<svg version="1.1" id="Layer_1" xmlns="http://www.w3.org/2000/svg" xmlns:xlink="http://www.w3.org/1999/xlink" x="0px" y="0px"
	 width="48px" height="48px" viewBox="0 0 48 48" enable-background="new 0 0 48 48" xml:space="preserve">
<g>
	<path fill="#010101" d="M47.935,20.667c-0.008-0.022-0.015-0.042-0.025-0.063c-0.046-0.106-0.105-0.204-0.184-0.289
		c-0.006-0.007-0.014-0.011-0.021-0.018c-0.048-0.049-0.099-0.096-0.158-0.134c-0.037-0.024-0.078-0.039-0.118-0.058
		c-0.013-0.006-0.02-0.018-0.033-0.023l-3.064-1.332C44.758,18.227,45,17.637,45,17c0-2.28-3.009-4-7-4
		c-1.825,0-3.439,0.363-4.66,0.971l-2.954-1.284C30.778,12.179,31,11.611,31,11c0-2.28-3.009-4-7-4s-7,1.72-7,4
		c0,0.611,0.222,1.179,0.614,1.687l-2.445,1.062C14.019,13.276,12.59,13,11,13c-3.991,0-7,1.72-7,4c0,0.505,0.155,0.981,0.429,1.419
		l-3.828,1.664c-0.015,0.006-0.024,0.019-0.038,0.026c-0.037,0.018-0.076,0.031-0.111,0.055c-0.056,0.037-0.104,0.082-0.151,0.128
		c-0.01,0.01-0.022,0.016-0.031,0.026c-0.077,0.083-0.134,0.179-0.18,0.282c-0.011,0.024-0.02,0.047-0.028,0.072
		C0.026,20.777,0,20.886,0,21v0.01c0,0,0,0,0,0.001V37c0,0.398,0.236,0.758,0.601,0.917l23,10c0.014,0.006,0.03,0.004,0.045,0.009
		C23.76,47.97,23.879,48,24,48s0.24-0.03,0.354-0.074c0.015-0.006,0.031-0.003,0.045-0.009l23-10C47.764,37.758,48,37.398,48,37V21
		C48,20.884,47.973,20.774,47.935,20.667z M43,17c0,0.328-0.327,0.712-0.902,1.059c-0.117,0.037-0.222,0.096-0.319,0.173
		C40.908,18.665,39.615,19,38,19c-3.052,0-5-1.185-5-2s1.948-2,5-2S43,16.185,43,17z M24,9c3.052,0,5,1.185,5,2s-1.948,2-5,2
		s-5-1.185-5-2S20.948,9,24,9z M19.432,14.077C20.641,14.657,22.222,15,24,15c1.778,0,3.358-0.343,4.567-0.923l2.994,1.301
		C31.2,15.869,31,16.416,31,17c0,2.28,3.009,4,7,4c1.731,0,3.276-0.325,4.473-0.877L44.491,21L24,29.91L3.508,21l2.559-1.112
		C7.313,20.582,9.036,21,11,21c3.991,0,7-1.72,7-4c0-0.714-0.296-1.374-0.824-1.943L19.432,14.077z M11,15c3.052,0,5,1.185,5,2
		s-1.948,2-5,2s-5-1.185-5-2S7.948,15,11,15z M2,22.526l21,9.13v13.818l-21-9.13V22.526z M46,36.345l-21,9.13V31.656l21-9.131
		V36.345z"/>
	<path fill="#010101" d="M17,22c0,2.28,3.009,4,7,4s7-1.72,7-4s-3.009-4-7-4S17,19.72,17,22z M24,20c3.052,0,5,1.185,5,2
		s-1.948,2-5,2s-5-1.185-5-2S20.948,20,24,20z"/>
</g>
</svg>
