<?xml version="1.0" encoding="utf-8"?>
<!-- Generator: Adobe Illustrator 17.0.0, SVG Export Plug-In . SVG Version: 6.00 Build 0)  -->
<!DOCTYPE svg PUBLIC "-//W3C//DTD SVG 1.1//EN" "http://www.w3.org/Graphics/SVG/1.1/DTD/svg11.dtd">
<svg version="1.1" id="Layer_1" xmlns="http://www.w3.org/2000/svg" xmlns:xlink="http://www.w3.org/1999/xlink" x="0px" y="0px"
	 width="48px" height="48px" viewBox="0 0 48 48" enable-background="new 0 0 48 48" xml:space="preserve">
<path fill="#010101" d="M46.706,24.334l-6.363-6.363c-0.391-0.391-1.023-0.391-1.414,0c-1.321,1.322-3.079,2.049-4.949,2.049
	s-3.629-0.728-4.951-2.049c-2.728-2.73-2.728-7.172,0-9.9c0.391-0.391,0.391-1.023,0-1.414l-6.362-6.364
	C22.479,0.106,22.226,0,21.96,0s-0.52,0.106-0.708,0.293l-4.285,4.284c-0.21-0.266-0.432-0.516-0.665-0.749
	c-1.7-1.7-3.961-2.636-6.364-2.636S5.274,2.128,3.574,3.828c-3.509,3.509-3.509,9.219,0.001,12.729
	c0.233,0.233,0.483,0.455,0.748,0.664l-4.284,4.285c-0.188,0.188-0.293,0.442-0.293,0.707s0.105,0.519,0.293,0.707l6.364,6.362
	c0.391,0.391,1.023,0.391,1.414,0.001c1.322-1.321,3.08-2.049,4.95-2.049c1.87,0,3.628,0.728,4.95,2.049
	c2.729,2.73,2.729,7.172,0,9.901c-0.391,0.391-0.391,1.023,0,1.414l6.362,6.363c0.195,0.195,0.451,0.293,0.707,0.293
	s0.512-0.098,0.707-0.293l4.286-4.285c0.21,0.266,0.433,0.517,0.666,0.749c1.699,1.7,3.959,2.636,6.363,2.636
	s4.664-0.936,6.363-2.636c1.7-1.7,2.637-3.96,2.637-6.364c0-2.404-0.937-4.664-2.636-6.363c-0.233-0.233-0.483-0.456-0.75-0.666
	l4.284-4.284C47.097,25.357,47.097,24.725,46.706,24.334z M40.158,29.468c-0.219,0.219-0.324,0.526-0.285,0.833
	c0.039,0.306,0.217,0.578,0.484,0.735c0.529,0.312,1,0.674,1.4,1.075c1.322,1.323,2.051,3.08,2.051,4.95s-0.729,3.628-2.051,4.95
	c-1.321,1.322-3.079,2.05-4.949,2.05s-3.628-0.728-4.95-2.051c-0.405-0.404-0.757-0.862-1.076-1.401
	c-0.157-0.265-0.428-0.443-0.735-0.482c-0.308-0.037-0.614,0.067-0.832,0.285l-4.429,4.428l-4.987-4.988
	c2.823-3.531,2.6-8.712-0.669-11.984c-1.7-1.698-3.961-2.634-6.364-2.634c-2.067,0-4.028,0.692-5.618,1.966L2.16,22.213l4.427-4.428
	c0.219-0.219,0.324-0.526,0.285-0.833c-0.039-0.306-0.217-0.578-0.483-0.735c-0.525-0.31-0.997-0.673-1.401-1.075
	c-2.728-2.73-2.728-7.171,0-9.9c1.322-1.322,3.081-2.05,4.951-2.05c1.87,0,3.628,0.728,4.95,2.05c0.4,0.401,0.762,0.872,1.074,1.401
	c0.157,0.267,0.428,0.445,0.735,0.484c0.304,0.039,0.614-0.066,0.833-0.285l4.429-4.428l4.988,4.988
	c-2.823,3.529-2.6,8.711,0.668,11.982c1.7,1.699,3.961,2.634,6.365,2.634c2.067,0,4.028-0.692,5.617-1.966l4.988,4.988
	L40.158,29.468z"/>
</svg>
