<?xml version="1.0" encoding="utf-8"?>
<!-- Generator: Adobe Illustrator 17.1.0, SVG Export Plug-In . SVG Version: 6.00 Build 0)  -->
<!DOCTYPE svg PUBLIC "-//W3C//DTD SVG 1.0//EN" "http://www.w3.org/TR/2001/REC-SVG-20010904/DTD/svg10.dtd">
<svg version="1.0" id="Layer_1" xmlns="http://www.w3.org/2000/svg" xmlns:xlink="http://www.w3.org/1999/xlink" x="0px" y="0px"
	 width="48px" height="48px" viewBox="0 0 48 48" enable-background="new 0 0 48 48" xml:space="preserve">
<g>
	<path d="M29,10H18c-0.553,0-1,0.448-1,1c0,0.552,0.447,1,1,1h11c0.553,0,1-0.448,1-1C30,10.448,29.553,10,29,10z"/>
	<path d="M29,16H18c-0.553,0-1,0.448-1,1c0,0.552,0.447,1,1,1h11c0.553,0,1-0.448,1-1C30,16.448,29.553,16,29,16z"/>
	<path d="M29,22H18c-0.553,0-1,0.448-1,1c0,0.552,0.447,1,1,1h11c0.553,0,1-0.448,1-1C30,22.448,29.553,22,29,22z"/>
	<path d="M29,28H18c-0.553,0-1,0.448-1,1c0,0.552,0.447,1,1,1h11c0.553,0,1-0.448,1-1C30,28.448,29.553,28,29,28z"/>
	<path d="M42,0c-0.253,0-0.501,0.021-0.745,0.051C41.171,0.029,41.09,0,41,0H17c-3.859,0-7,3.14-7,7v27H7c-3.859,0-7,3.14-7,7
		c0,3.86,3.141,7,7,7h24c3.859,0,7-3.14,7-7V8h9c0.553,0,1-0.448,1-1C48,2.878,45.532,0,42,0z M7,46c-2.757,0-5-2.243-5-5
		c0-2.757,2.243-5,5-5h19.105C24.807,37.272,24,39.043,24,41s0.807,3.729,2.105,5H7z M36,41c0,2.757-2.243,5-5,5s-5-2.243-5-5
		c0-2.757,2.243-5,5-5c0.553,0,1-0.448,1-1c0-0.552-0.447-1-1-1H12V7c0-2.757,2.243-5,5-5h20.54C36.586,3.063,36,4.462,36,6V41z
		 M38,6c0-2.206,1.794-4,4-4c2.115,0,3.616,1.57,3.937,4H38z"/>
</g>
</svg>
