<?xml version="1.0" encoding="utf-8"?>
<!-- Generator: Adobe Illustrator 17.0.0, SVG Export Plug-In . SVG Version: 6.00 Build 0)  -->
<!DOCTYPE svg PUBLIC "-//W3C//DTD SVG 1.1//EN" "http://www.w3.org/Graphics/SVG/1.1/DTD/svg11.dtd">
<svg version="1.1" id="Layer_1" xmlns="http://www.w3.org/2000/svg" xmlns:xlink="http://www.w3.org/1999/xlink" x="0px" y="0px"
	 width="60px" height="60px" viewBox="0 0 60 60" enable-background="new 0 0 60 60" xml:space="preserve">
<g>
	<path fill="#010101" d="M59,0H1C0.711,0,0.435,0.125,0.245,0.344C0.056,0.562-0.03,0.852,0.01,1.139l7,50
		c0.051,0.367,0.301,0.675,0.648,0.801l22,8C29.769,59.98,29.885,60,30,60c0.115,0,0.231-0.02,0.342-0.06l22-8
		c0.348-0.126,0.598-0.435,0.648-0.801l7-50c0.04-0.287-0.046-0.577-0.235-0.795C59.564,0.125,59.289,0,59,0z M51.093,50.266
		L30,57.936l-21.093-7.67L2.149,2h55.701L51.093,50.266z"/>
	<path fill="#010101" d="M16,12h24.582L18.461,26.158c-0.374,0.239-0.546,0.697-0.421,1.123C18.165,27.707,18.556,28,19,28h20.875
		l-1.794,15.252L30,45.946l-8.098-2.699l-0.912-6.388c-0.078-0.546-0.588-0.929-1.132-0.848c-0.547,0.078-0.927,0.584-0.849,1.131
		l1,7c0.054,0.375,0.314,0.688,0.674,0.807l9,3C29.786,47.983,29.894,48,30,48c0.106,0,0.214-0.017,0.316-0.051l9-3
		c0.367-0.122,0.632-0.447,0.677-0.832l2-17c0.033-0.284-0.056-0.568-0.246-0.781C41.558,26.122,41.285,26,41,26H22.418
		l22.121-14.158c0.374-0.239,0.546-0.697,0.421-1.123C44.835,10.293,44.444,10,44,10H16c-0.553,0-1,0.448-1,1S15.447,12,16,12z"/>
</g>
</svg>
