<?xml version="1.0" encoding="utf-8"?>
<!-- Generator: Adobe Illustrator 17.0.0, SVG Export Plug-In . SVG Version: 6.00 Build 0)  -->
<!DOCTYPE svg PUBLIC "-//W3C//DTD SVG 1.1//EN" "http://www.w3.org/Graphics/SVG/1.1/DTD/svg11.dtd">
<svg version="1.1" id="Layer_1" xmlns="http://www.w3.org/2000/svg" xmlns:xlink="http://www.w3.org/1999/xlink" x="0px" y="0px"
	 width="60px" height="60px" viewBox="0 0 60 60" enable-background="new 0 0 60 60" xml:space="preserve">
<g>
	<path fill="#010101" d="M59,26h-7.133c0.949-2.463,1-5.006,0.095-7.301c-1.198-3.043-3.914-5.403-7.646-6.647
		c-0.358-0.12-0.756-0.025-1.023,0.242c-0.268,0.267-0.361,0.664-0.241,1.023c0.488,1.465,0.049,1.804-1.124,2.711
		c-0.282,0.218-0.585,0.452-0.888,0.718c-0.378-4.435-2.561-6.654-4.239-8.358c-1.987-2.018-3.081-3.13-0.933-6.891
		c0.191-0.335,0.173-0.751-0.048-1.068c-0.221-0.316-0.606-0.477-0.985-0.414C29.522,0.903,25.396,3.381,22.9,7.18
		c-1.887,2.873-2.731,6.414-2.477,10.229c-0.62-0.555-1.258-1.033-1.864-1.487c-2.138-1.603-3.142-2.471-2.59-4.679
		c0.094-0.374-0.036-0.769-0.333-1.014c-0.298-0.246-0.709-0.297-1.059-0.135c-2.933,1.366-5.284,4.163-6.454,7.673
		C7.178,20.607,7.162,23.519,8.02,26H1c-0.553,0-1,0.448-1,1v32c0,0.552,0.447,1,1,1h58c0.553,0,1-0.448,1-1V27
		C60,26.448,59.553,26,59,26z M26,50v-6h20v6H26z M34,36v6H14v-6H34z M46,28v6H26v-6H46z M27.453,26
		c0.186-2.018,1.443-4.014,2.539-5.401c0.416,1.955,1.748,3.168,2.803,4.129c0.534,0.487,0.949,0.885,1.236,1.272H27.453z M36,42v-6
		h22v6H36z M12,42H2v-6h10V42z M2,44h22v6H2V44z M34,52v6H14v-6H34z M48,44h10v6H48V44z M58,34H48v-6h2.318H58V34z M10.021,18.399
		c0.758-2.274,2.134-4.239,3.825-5.532c0.229,2.193,1.893,3.44,3.514,4.655c1.394,1.045,2.836,2.126,3.747,3.929
		c0.23,0.454,0.764,0.663,1.24,0.486c0.477-0.177,0.745-0.684,0.623-1.178c-1.165-4.703-0.596-9.136,1.602-12.482
		c1.873-2.852,4.839-4.86,8.647-5.873c-1.42,3.75,0.394,5.594,2.156,7.384c1.975,2.006,4.213,4.28,3.63,10.111
		c-0.051,0.507,0.288,0.971,0.786,1.078c0.499,0.107,0.997-0.178,1.157-0.662c0.452-1.355,1.342-2.042,2.202-2.707
		c0.902-0.697,1.968-1.52,2.08-3.042c2.358,1.118,4.062,2.808,4.872,4.864c0.815,2.069,0.676,4.329-0.396,6.568h-4.869
		c0.779-0.788,1.473-1.744,1.581-2.727c0.082-0.747-0.164-1.432-0.712-1.98c-0.391-0.391-1.023-0.391-1.414,0
		c-0.391,0.39-0.391,1.023,0,1.414c0.133,0.133,0.151,0.228,0.139,0.347c-0.091,0.83-1.609,2.18-2.738,2.946h-5.421
		c-0.375-1.137-1.261-1.957-2.132-2.75c-1.439-1.311-2.682-2.443-2.16-5.053c0.085-0.424-0.112-0.855-0.489-1.067
		c-0.374-0.21-0.847-0.159-1.166,0.133c-0.2,0.183-4.557,4.228-4.872,8.738h-7.146c-1.129-0.766-2.648-2.116-2.738-2.946
		c-0.013-0.119,0.006-0.213,0.139-0.347c0.391-0.39,0.391-1.023,0-1.414c-0.391-0.391-1.023-0.391-1.414,0
		c-0.549,0.548-0.795,1.233-0.713,1.98c0.108,0.983,0.802,1.939,1.581,2.727h-5.01C9.182,23.814,9.129,21.081,10.021,18.399z
		 M9.527,28H24v6H2v-6H9.527z M2,52h10v6H2V52z M36,58v-6h22v6H36z"/>
</g>
</svg>
