<?xml version="1.0" encoding="utf-8"?>
<!-- Generator: Adobe Illustrator 17.0.0, SVG Export Plug-In . SVG Version: 6.00 Build 0)  -->
<!DOCTYPE svg PUBLIC "-//W3C//DTD SVG 1.1//EN" "http://www.w3.org/Graphics/SVG/1.1/DTD/svg11.dtd">
<svg version="1.1" id="Layer_1" xmlns="http://www.w3.org/2000/svg" xmlns:xlink="http://www.w3.org/1999/xlink" x="0px" y="0px"
	 width="60px" height="60px" viewBox="0 0 60 60" enable-background="new 0 0 60 60" xml:space="preserve">
<g>
	<path fill="#010101" d="M59,0H1C0.711,0,0.435,0.125,0.245,0.344C0.056,0.562-0.03,0.852,0.01,1.139l7,50
		c0.051,0.367,0.301,0.675,0.648,0.801l22,8C29.769,59.98,29.885,60,30,60c0.115,0,0.231-0.02,0.342-0.06l22-8
		c0.348-0.126,0.598-0.435,0.648-0.801l7-50c0.04-0.287-0.046-0.577-0.235-0.795C59.564,0.125,59.289,0,59,0z M51.093,50.266
		L30,57.936l-21.093-7.67L2.149,2h55.701L51.093,50.266z"/>
	<path fill="#010101" d="M19,28h20.875l-1.794,15.252L30,45.946l-8.098-2.699l-0.912-6.388c-0.078-0.546-0.585-0.929-1.132-0.848
		c-0.547,0.078-0.927,0.584-0.849,1.131l1,7c0.054,0.375,0.314,0.688,0.674,0.807l9,3C29.786,47.983,29.894,48,30,48
		c0.106,0,0.214-0.017,0.316-0.051l9-3c0.367-0.122,0.632-0.447,0.677-0.832l2-17c0.033-0.284-0.056-0.568-0.246-0.781
		C41.558,26.122,41.285,26,41,26H19.83l-2.625-14H44c0.553,0,1-0.448,1-1s-0.447-1-1-1H16c-0.298,0-0.579,0.132-0.77,0.361
		c-0.19,0.229-0.269,0.531-0.213,0.823l3,16C18.105,27.657,18.519,28,19,28z"/>
</g>
</svg>
