<?xml version="1.0" encoding="utf-8"?>
<!-- Generator: Adobe Illustrator 17.0.0, SVG Export Plug-In . SVG Version: 6.00 Build 0)  -->
<!DOCTYPE svg PUBLIC "-//W3C//DTD SVG 1.1//EN" "http://www.w3.org/Graphics/SVG/1.1/DTD/svg11.dtd">
<svg version="1.1" id="Layer_1" xmlns="http://www.w3.org/2000/svg" xmlns:xlink="http://www.w3.org/1999/xlink" x="0px" y="0px"
	 width="60px" height="60px" viewBox="0 0 60 60" enable-background="new 0 0 60 60" xml:space="preserve">
<g>
	<path fill="#010101" d="M58.991,30.707l-7.778-7.778c-0.375-0.375-1.039-0.375-1.414,0c-1.699,1.7-3.96,2.636-6.363,2.636
		c-2.404,0-4.665-0.937-6.365-2.636c-3.509-3.509-3.508-9.219,0.001-12.727c0.188-0.188,0.293-0.442,0.293-0.707
		c0-0.265-0.105-0.52-0.293-0.707l-7.778-7.778c-0.391-0.391-1.024-0.391-1.414,0l-5.786,5.786c-0.38-0.552-0.81-1.068-1.285-1.543
		c-2.077-2.078-4.84-3.222-7.778-3.222c-2.939,0-5.701,1.145-7.778,3.222c-2.078,2.077-3.222,4.839-3.222,7.778
		c0,2.939,1.144,5.701,3.222,7.778c0.476,0.476,0.992,0.905,1.544,1.285l-5.786,5.786c-0.188,0.188-0.293,0.442-0.293,0.707
		c0,0.265,0.106,0.52,0.293,0.707l7.778,7.778c0.375,0.375,1.039,0.375,1.414,0c1.699-1.7,3.96-2.636,6.363-2.636
		c2.404,0,4.664,0.936,6.364,2.636c1.7,1.7,2.636,3.96,2.636,6.364c0,2.404-0.936,4.664-2.636,6.364
		c-0.188,0.188-0.293,0.442-0.293,0.707c0,0.265,0.105,0.519,0.293,0.707l7.778,7.778c0.195,0.195,0.451,0.293,0.707,0.293
		c0.256,0,0.512-0.098,0.707-0.293l5.786-5.786c0.38,0.552,0.81,1.068,1.285,1.543c2.077,2.078,4.84,3.222,7.777,3.222
		c2.939,0,5.701-1.144,7.778-3.222c2.078-2.077,3.222-4.84,3.223-7.778c0-2.938-1.145-5.701-3.222-7.778
		c-0.476-0.476-0.992-0.906-1.544-1.286l5.786-5.786C59.382,31.731,59.382,31.098,58.991,30.707z M50.889,37.396
		c-0.226,0.225-0.33,0.544-0.281,0.858c0.048,0.315,0.243,0.587,0.525,0.735c0.812,0.425,1.554,0.969,2.201,1.618
		c1.7,1.7,2.637,3.96,2.637,6.364c0,2.404-0.937,4.664-2.637,6.364s-3.96,2.636-6.364,2.636c-2.403,0-4.663-0.936-6.363-2.636
		c-0.648-0.649-1.193-1.39-1.618-2.202c-0.146-0.282-0.42-0.477-0.734-0.525c-0.318-0.049-0.635,0.056-0.858,0.281l-5.981,5.981
		l-6.396-6.396c1.648-1.973,2.546-4.437,2.546-7.039c0-2.938-1.144-5.701-3.222-7.778c-2.077-2.078-4.84-3.222-7.778-3.222
		c-2.602,0-5.066,0.897-7.039,2.546L3.13,28.586l5.981-5.981c0.226-0.225,0.33-0.544,0.281-0.858
		c-0.048-0.314-0.243-0.587-0.525-0.735c-0.812-0.425-1.554-0.969-2.202-1.618c-1.7-1.7-2.636-3.96-2.636-6.364
		c0-2.404,0.935-4.664,2.636-6.364s3.96-2.636,6.364-2.636s4.664,0.937,6.364,2.636c0.648,0.649,1.193,1.39,1.618,2.202
		c0.147,0.282,0.42,0.477,0.734,0.525c0.319,0.05,0.634-0.057,0.858-0.281l5.981-5.981l6.396,6.396
		c-3.6,4.317-3.375,10.766,0.675,14.817c2.078,2.078,4.841,3.222,7.779,3.222c2.602,0,5.067-0.897,7.039-2.546l6.396,6.396
		L50.889,37.396z"/>
</g>
</svg>
