<?xml version="1.0" encoding="utf-8"?>
<!-- Generator: Adobe Illustrator 17.0.0, SVG Export Plug-In . SVG Version: 6.00 Build 0)  -->
<!DOCTYPE svg PUBLIC "-//W3C//DTD SVG 1.1//EN" "http://www.w3.org/Graphics/SVG/1.1/DTD/svg11.dtd">
<svg version="1.1" id="Layer_1" xmlns="http://www.w3.org/2000/svg" xmlns:xlink="http://www.w3.org/1999/xlink" x="0px" y="0px"
	 width="60px" height="60px" viewBox="0 0 60 60" enable-background="new 0 0 60 60" xml:space="preserve">
<g>
	<path fill="#010101" d="M53,0H20c-4.411,0-8,3.589-8,8v34H9c-4.963,0-9,4.038-9,9s4.037,9,9,9h30c4.963,0,9-4.038,9-9V8h11
		c0.553,0,1-0.448,1-1C60,3.14,56.859,0,53,0z M9,58c-3.859,0-7-3.14-7-7c0-3.86,3.141-7,7-7h24.349C31.308,45.651,30,48.176,30,51
		c0,2.824,1.308,5.349,3.349,7H9z M46,7v44c0,3.86-3.141,7-7,7c-3.859,0-7-3.14-7-7c0-3.86,3.141-7,7-7c0.553,0,1-0.448,1-1
		s-0.447-1-1-1H14V8c0-3.309,2.691-6,6-6h28.111C46.81,3.272,46,5.042,46,7z M48.101,6C48.565,3.721,50.585,2,53,2
		s4.435,1.721,4.899,4H48.101z"/>
	<path fill="#010101" d="M38,34H21c-0.553,0-1,0.448-1,1s0.447,1,1,1h17c0.553,0,1-0.448,1-1S38.553,34,38,34z"/>
	<path fill="#010101" d="M38,26H21c-0.553,0-1,0.448-1,1s0.447,1,1,1h17c0.553,0,1-0.448,1-1S38.553,26,38,26z"/>
	<path fill="#010101" d="M38,18H21c-0.553,0-1,0.448-1,1s0.447,1,1,1h17c0.553,0,1-0.448,1-1S38.553,18,38,18z"/>
	<path fill="#010101" d="M38,10H21c-0.553,0-1,0.448-1,1s0.447,1,1,1h17c0.553,0,1-0.448,1-1S38.553,10,38,10z"/>
</g>
</svg>
